0, 0, Header, 1, 3, 384
1, 0, Start_track
1, 0, Title_t, "L.v.Beethoven 3mov - Piano Sonata No.1 in f minor Op.2-1\000"
1, 0, Copyright_t, "Copyright(C) 1995-2009, Suzuki Software\000"
1, 0, Sequencer_specific, 9, 67, 123, 0, 88, 70, 48, 50, 0, 1
1, 0, Text_t, "XFhd:2000/02/27:JP:Classical::::L.v.Beethoven:::Kaoru Suzuki\000"
1, 0, Text_t, "XFln:JP:\203s\203A\203m\203\\\203i\203^\221æ1\224Ô\203w\222Z\222²\215ì\225i2-1\201`\221æ3\212y\217Í:L.v.\203x\201[\203g\201[\203\224\203F\203\223:::\227é\202¿\202á\202ñ:\227é\202¿\202á\202ñ\000"
1, 0, Time_signature, 1, 2, 96, 8
1, 0, Sequencer_specific, 3, 0, 0, 65
1, 0, Sequencer_specific, 5, 0, 0, 119, 14, 0
1, 0, Tempo, 285714
1, 384, Time_signature, 3, 2, 96, 8
1, 55104, Tempo, 352941
1, 55680, Tempo, 315789
1, 62208, Tempo, 285714
1, 85056, Tempo, 352941
1, 85632, Tempo, 315789
1, 92160, Tempo, 285714
1, 206976, Tempo, 315789
1, 207360, Tempo, 375000
1, 207744, Tempo, 333333
1, 212352, Tempo, 428571
1, 212352, End_track
2, 0, Start_track
2, 0, Title_t, "Right"
2, 0, Control_c, 0, 0, 0
2, 0, Program_c, 0, 0
2, 0, Control_c, 0, 7, 100
2, 0, Control_c, 0, 10, 75
2, 0, Control_c, 0, 91, 127
2, 0, Key_signature, -4, "minor"
2, 0, Note_on_c, 0, 68, 80
2, 0, Note_on_c, 0, 60, 80
2, 380, Note_off_c, 0, 68, 100
2, 380, Note_off_c, 0, 60, 100
2, 384, Note_on_c, 0, 70, 80
2, 384, Note_on_c, 0, 61, 80
2, 764, Note_off_c, 0, 70, 100
2, 764, Note_off_c, 0, 61, 100
2, 768, Note_on_c, 0, 67, 80
2, 768, Note_on_c, 0, 58, 80
2, 1148, Note_off_c, 0, 67, 100
2, 1148, Note_off_c, 0, 58, 100
2, 1536, Note_on_c, 0, 68, 80
2, 1536, Note_on_c, 0, 60, 80
2, 1916, Note_off_c, 0, 68, 100
2, 1916, Note_off_c, 0, 60, 100
2, 1920, Note_on_c, 0, 65, 80
2, 1920, Note_on_c, 0, 56, 80
2, 2300, Note_off_c, 0, 65, 100
2, 2300, Note_off_c, 0, 56, 100
2, 2304, Note_on_c, 0, 65, 80
2, 2304, Note_on_c, 0, 60, 80
2, 2684, Note_off_c, 0, 65, 100
2, 2684, Note_off_c, 0, 60, 100
2, 2688, Note_on_c, 0, 64, 80
2, 2688, Note_on_c, 0, 60, 80
2, 3068, Note_off_c, 0, 64, 100
2, 3068, Note_off_c, 0, 60, 100
2, 3072, Note_on_c, 0, 65, 80
2, 3072, Note_on_c, 0, 60, 80
2, 3452, Note_off_c, 0, 65, 100
2, 3452, Note_off_c, 0, 60, 100
2, 3456, Note_on_c, 0, 67, 80
2, 3456, Note_on_c, 0, 60, 80
2, 3836, Note_off_c, 0, 67, 100
2, 3836, Note_off_c, 0, 60, 100
2, 3840, Note_on_c, 0, 60, 80
2, 3840, Note_on_c, 0, 70, 80
2, 4220, Note_off_c, 0, 70, 100
2, 4224, Note_on_c, 0, 68, 80
2, 4604, Note_off_c, 0, 60, 100
2, 4604, Note_off_c, 0, 68, 100
2, 4608, Note_on_c, 0, 72, 80
2, 4608, Note_on_c, 0, 63, 80
2, 4988, Note_off_c, 0, 72, 100
2, 4988, Note_off_c, 0, 63, 100
2, 4992, Note_on_c, 0, 73, 80
2, 4992, Note_on_c, 0, 65, 80
2, 5372, Note_off_c, 0, 73, 100
2, 5372, Note_off_c, 0, 65, 100
2, 5376, Note_on_c, 0, 70, 80
2, 5376, Note_on_c, 0, 61, 80
2, 5756, Note_off_c, 0, 70, 100
2, 5756, Note_off_c, 0, 61, 100
2, 6144, Note_on_c, 0, 72, 80
2, 6144, Note_on_c, 0, 63, 80
2, 6524, Note_off_c, 0, 72, 100
2, 6524, Note_off_c, 0, 63, 100
2, 6528, Note_on_c, 0, 68, 80
2, 6528, Note_on_c, 0, 60, 80
2, 6908, Note_off_c, 0, 68, 100
2, 6908, Note_off_c, 0, 60, 100
2, 6912, Note_on_c, 0, 68, 80
2, 6912, Note_on_c, 0, 63, 80
2, 7292, Note_off_c, 0, 68, 100
2, 7292, Note_off_c, 0, 63, 100
2, 7296, Note_on_c, 0, 67, 80
2, 7296, Note_on_c, 0, 63, 80
2, 7676, Note_off_c, 0, 67, 100
2, 7676, Note_off_c, 0, 63, 100
2, 7680, Note_on_c, 0, 68, 80
2, 7680, Note_on_c, 0, 63, 80
2, 8060, Note_off_c, 0, 68, 100
2, 8060, Note_off_c, 0, 63, 100
2, 8064, Note_on_c, 0, 70, 80
2, 8064, Note_on_c, 0, 63, 80
2, 8444, Note_off_c, 0, 70, 100
2, 8444, Note_off_c, 0, 63, 100
2, 8448, Note_on_c, 0, 73, 80
2, 8448, Note_on_c, 0, 63, 80
2, 8828, Note_off_c, 0, 73, 100
2, 8832, Note_on_c, 0, 72, 80
2, 9212, Note_off_c, 0, 63, 100
2, 9212, Note_off_c, 0, 72, 100
2, 9216, Note_on_c, 0, 75, 110
2, 9216, Note_on_c, 0, 68, 110
2, 9596, Note_off_c, 0, 75, 100
2, 9596, Note_off_c, 0, 68, 100
2, 9600, Note_on_c, 0, 75, 110
2, 9600, Note_on_c, 0, 67, 110
2, 9980, Note_off_c, 0, 75, 100
2, 9980, Note_off_c, 0, 67, 100
2, 9984, Note_on_c, 0, 75, 110
2, 9984, Note_on_c, 0, 68, 110
2, 10364, Note_off_c, 0, 75, 100
2, 10364, Note_off_c, 0, 68, 100
2, 10368, Note_on_c, 0, 75, 110
2, 10368, Note_on_c, 0, 70, 110
2, 10748, Note_off_c, 0, 75, 100
2, 10748, Note_off_c, 0, 70, 100
2, 10752, Note_on_c, 0, 73, 110
2, 10752, Note_on_c, 0, 75, 110
2, 11132, Note_off_c, 0, 73, 100
2, 11136, Note_on_c, 0, 72, 110
2, 11516, Note_off_c, 0, 75, 100
2, 11516, Note_off_c, 0, 72, 100
2, 11520, Note_on_c, 0, 77, 80
2, 11900, Note_off_c, 0, 77, 100
2, 11904, Note_on_c, 0, 68, 80
2, 12668, Note_off_c, 0, 68, 100
2, 12672, Note_on_c, 0, 67, 80
2, 12672, Note_on_c, 0, 72, 80
2, 12820, Note_off_c, 0, 72, 100
2, 12824, Note_on_c, 0, 70, 80
2, 13052, Note_off_c, 0, 67, 100
2, 13056, Note_on_c, 0, 68, 80
2, 13060, Note_off_c, 0, 70, 100
2, 13436, Note_off_c, 0, 68, 100
2, 13824, Note_on_c, 0, 79, 110
2, 14012, Note_off_c, 0, 79, 100
2, 14016, Note_on_c, 0, 77, 110
2, 14204, Note_off_c, 0, 77, 100
2, 14208, Note_on_c, 0, 68, 100
2, 14972, Note_off_c, 0, 68, 100
2, 14976, Note_on_c, 0, 67, 100
2, 14976, Note_on_c, 0, 72, 100
2, 15124, Note_off_c, 0, 72, 100
2, 15128, Note_on_c, 0, 70, 100
2, 15356, Note_off_c, 0, 67, 100
2, 15356, Note_off_c, 0, 70, 100
2, 15360, Note_on_c, 0, 68, 100
2, 15740, Note_off_c, 0, 68, 100
2, 16128, Note_on_c, 0, 68, 80
2, 16128, Note_on_c, 0, 60, 80
2, 16508, Note_off_c, 0, 68, 100
2, 16508, Note_off_c, 0, 60, 100
2, 16512, Note_on_c, 0, 70, 80
2, 16512, Note_on_c, 0, 61, 80
2, 16892, Note_off_c, 0, 70, 100
2, 16892, Note_off_c, 0, 61, 100
2, 16896, Note_on_c, 0, 67, 80
2, 16896, Note_on_c, 0, 58, 80
2, 17276, Note_off_c, 0, 67, 100
2, 17276, Note_off_c, 0, 58, 100
2, 17664, Note_on_c, 0, 68, 80
2, 17664, Note_on_c, 0, 60, 80
2, 18044, Note_off_c, 0, 68, 100
2, 18044, Note_off_c, 0, 60, 100
2, 18048, Note_on_c, 0, 65, 80
2, 18048, Note_on_c, 0, 56, 80
2, 18428, Note_off_c, 0, 65, 100
2, 18428, Note_off_c, 0, 56, 100
2, 18432, Note_on_c, 0, 65, 80
2, 18432, Note_on_c, 0, 60, 80
2, 18812, Note_off_c, 0, 65, 100
2, 18812, Note_off_c, 0, 60, 100
2, 18816, Note_on_c, 0, 64, 80
2, 18816, Note_on_c, 0, 60, 80
2, 19196, Note_off_c, 0, 64, 100
2, 19196, Note_off_c, 0, 60, 100
2, 19200, Note_on_c, 0, 65, 80
2, 19200, Note_on_c, 0, 60, 80
2, 19580, Note_off_c, 0, 65, 100
2, 19580, Note_off_c, 0, 60, 100
2, 19584, Note_on_c, 0, 67, 80
2, 19584, Note_on_c, 0, 60, 80
2, 19964, Note_off_c, 0, 67, 100
2, 19964, Note_off_c, 0, 60, 100
2, 19968, Note_on_c, 0, 60, 80
2, 19968, Note_on_c, 0, 70, 80
2, 20348, Note_off_c, 0, 70, 100
2, 20352, Note_on_c, 0, 68, 80
2, 20732, Note_off_c, 0, 60, 100
2, 20732, Note_off_c, 0, 68, 100
2, 20736, Note_on_c, 0, 72, 80
2, 20736, Note_on_c, 0, 63, 80
2, 21116, Note_off_c, 0, 72, 100
2, 21116, Note_off_c, 0, 63, 100
2, 21120, Note_on_c, 0, 73, 80
2, 21120, Note_on_c, 0, 65, 80
2, 21500, Note_off_c, 0, 73, 100
2, 21500, Note_off_c, 0, 65, 100
2, 21504, Note_on_c, 0, 70, 80
2, 21504, Note_on_c, 0, 61, 80
2, 21884, Note_off_c, 0, 70, 100
2, 21884, Note_off_c, 0, 61, 100
2, 22272, Note_on_c, 0, 72, 80
2, 22272, Note_on_c, 0, 63, 80
2, 22652, Note_off_c, 0, 72, 100
2, 22652, Note_off_c, 0, 63, 100
2, 22656, Note_on_c, 0, 68, 80
2, 22656, Note_on_c, 0, 60, 80
2, 23036, Note_off_c, 0, 68, 100
2, 23036, Note_off_c, 0, 60, 100
2, 23040, Note_on_c, 0, 68, 80
2, 23040, Note_on_c, 0, 63, 80
2, 23420, Note_off_c, 0, 68, 100
2, 23420, Note_off_c, 0, 63, 100
2, 23424, Note_on_c, 0, 67, 80
2, 23424, Note_on_c, 0, 63, 80
2, 23804, Note_off_c, 0, 67, 100
2, 23804, Note_off_c, 0, 63, 100
2, 23808, Note_on_c, 0, 68, 80
2, 23808, Note_on_c, 0, 63, 80
2, 24188, Note_off_c, 0, 68, 100
2, 24188, Note_off_c, 0, 63, 100
2, 24192, Note_on_c, 0, 70, 80
2, 24192, Note_on_c, 0, 63, 80
2, 24572, Note_off_c, 0, 70, 100
2, 24572, Note_off_c, 0, 63, 100
2, 24576, Note_on_c, 0, 73, 80
2, 24576, Note_on_c, 0, 63, 80
2, 24956, Note_off_c, 0, 73, 100
2, 24960, Note_on_c, 0, 72, 80
2, 25340, Note_off_c, 0, 63, 100
2, 25340, Note_off_c, 0, 72, 100
2, 25344, Note_on_c, 0, 75, 110
2, 25344, Note_on_c, 0, 68, 110
2, 25724, Note_off_c, 0, 75, 100
2, 25724, Note_off_c, 0, 68, 100
2, 25728, Note_on_c, 0, 75, 110
2, 25728, Note_on_c, 0, 67, 110
2, 26108, Note_off_c, 0, 75, 100
2, 26108, Note_off_c, 0, 67, 100
2, 26112, Note_on_c, 0, 75, 110
2, 26112, Note_on_c, 0, 68, 110
2, 26492, Note_off_c, 0, 75, 100
2, 26492, Note_off_c, 0, 68, 100
2, 26496, Note_on_c, 0, 75, 110
2, 26496, Note_on_c, 0, 70, 110
2, 26876, Note_off_c, 0, 75, 100
2, 26876, Note_off_c, 0, 70, 100
2, 26880, Note_on_c, 0, 73, 110
2, 26880, Note_on_c, 0, 75, 110
2, 27260, Note_off_c, 0, 73, 100
2, 27264, Note_on_c, 0, 72, 110
2, 27644, Note_off_c, 0, 75, 100
2, 27644, Note_off_c, 0, 72, 100
2, 27648, Note_on_c, 0, 77, 80
2, 28028, Note_off_c, 0, 77, 100
2, 28032, Note_on_c, 0, 68, 80
2, 28796, Note_off_c, 0, 68, 100
2, 28800, Note_on_c, 0, 67, 80
2, 28800, Note_on_c, 0, 72, 80
2, 28948, Note_off_c, 0, 72, 100
2, 28952, Note_on_c, 0, 70, 80
2, 29180, Note_off_c, 0, 67, 100
2, 29180, Note_off_c, 0, 70, 100
2, 29184, Note_on_c, 0, 68, 80
2, 29564, Note_off_c, 0, 68, 100
2, 29952, Note_on_c, 0, 79, 110
2, 30140, Note_off_c, 0, 79, 100
2, 30144, Note_on_c, 0, 77, 110
2, 30332, Note_off_c, 0, 77, 100
2, 30336, Note_on_c, 0, 68, 80
2, 31100, Note_off_c, 0, 68, 100
2, 31104, Note_on_c, 0, 67, 80
2, 31104, Note_on_c, 0, 72, 80
2, 31252, Note_off_c, 0, 72, 100
2, 31256, Note_on_c, 0, 70, 80
2, 31484, Note_off_c, 0, 67, 100
2, 31484, Note_off_c, 0, 70, 100
2, 31488, Note_on_c, 0, 68, 80
2, 31868, Note_off_c, 0, 68, 100
2, 32256, Note_on_c, 0, 72, 80
2, 32256, Note_on_c, 0, 75, 80
2, 32636, Note_off_c, 0, 72, 100
2, 32636, Note_off_c, 0, 75, 100
2, 32640, Note_on_c, 0, 76, 80
2, 32640, Note_on_c, 0, 73, 80
2, 33020, Note_off_c, 0, 76, 100
2, 33020, Note_off_c, 0, 73, 100
2, 33024, Note_on_c, 0, 73, 80
2, 33024, Note_on_c, 0, 70, 80
2, 33404, Note_off_c, 0, 73, 100
2, 33404, Note_off_c, 0, 70, 100
2, 33792, Note_on_c, 0, 75, 80
2, 33792, Note_on_c, 0, 72, 80
2, 34172, Note_off_c, 0, 75, 100
2, 34172, Note_off_c, 0, 72, 100
2, 34176, Note_on_c, 0, 72, 80
2, 34176, Note_on_c, 0, 68, 80
2, 34556, Note_off_c, 0, 72, 100
2, 34556, Note_off_c, 0, 68, 100
2, 34944, Note_on_c, 0, 78, 80
2, 34944, Note_on_c, 0, 75, 80
2, 35324, Note_off_c, 0, 78, 100
2, 35324, Note_off_c, 0, 75, 100
2, 35328, Note_on_c, 0, 75, 80
2, 35328, Note_on_c, 0, 72, 80
2, 35708, Note_off_c, 0, 75, 100
2, 35708, Note_off_c, 0, 72, 100
2, 36096, Note_on_c, 0, 77, 80
2, 36096, Note_on_c, 0, 73, 80
2, 36476, Note_off_c, 0, 77, 100
2, 36476, Note_off_c, 0, 73, 100
2, 36480, Note_on_c, 0, 73, 80
2, 36480, Note_on_c, 0, 70, 80
2, 36860, Note_off_c, 0, 73, 100
2, 36860, Note_off_c, 0, 70, 100
2, 37248, Note_on_c, 0, 70, 80
2, 37248, Note_on_c, 0, 65, 80
2, 38012, Note_off_c, 0, 70, 100
2, 38012, Note_off_c, 0, 65, 100
2, 38016, Note_on_c, 0, 73, 80
2, 38016, Note_on_c, 0, 69, 80
2, 38156, Note_off_c, 0, 73, 100
2, 38160, Note_on_c, 0, 72, 80
2, 38396, Note_off_c, 0, 69, 100
2, 38396, Note_off_c, 0, 72, 100
2, 38400, Note_on_c, 0, 70, 80
2, 38780, Note_off_c, 0, 70, 100
2, 39168, Note_on_c, 0, 78, 110
2, 39356, Note_off_c, 0, 78, 100
2, 39360, Note_on_c, 0, 77, 110
2, 39548, Note_off_c, 0, 77, 100
2, 39552, Note_on_c, 0, 70, 80
2, 39552, Note_on_c, 0, 65, 80
2, 40316, Note_off_c, 0, 70, 100
2, 40316, Note_off_c, 0, 65, 100
2, 40320, Note_on_c, 0, 73, 80
2, 40320, Note_on_c, 0, 69, 80
2, 40460, Note_off_c, 0, 73, 100
2, 40464, Note_on_c, 0, 72, 80
2, 40700, Note_off_c, 0, 69, 100
2, 40700, Note_off_c, 0, 72, 100
2, 40704, Note_on_c, 0, 70, 80
2, 41084, Note_off_c, 0, 70, 100
2, 41472, Note_on_c, 0, 73, 80
2, 41472, Note_on_c, 0, 69, 80
2, 41660, Note_off_c, 0, 73, 100
2, 41664, Note_on_c, 0, 72, 80
2, 41852, Note_off_c, 0, 69, 100
2, 41852, Note_off_c, 0, 72, 100
2, 41856, Note_on_c, 0, 70, 80
2, 42236, Note_off_c, 0, 70, 100
2, 42624, Note_on_c, 0, 73, 80
2, 42624, Note_on_c, 0, 69, 80
2, 42812, Note_off_c, 0, 73, 100
2, 42816, Note_on_c, 0, 72, 80
2, 43004, Note_off_c, 0, 69, 100
2, 43004, Note_off_c, 0, 72, 100
2, 43008, Note_on_c, 0, 70, 80
2, 43388, Note_off_c, 0, 70, 100
2, 43776, Note_on_c, 0, 73, 120
2, 43964, Note_off_c, 0, 73, 100
2, 43968, Note_on_c, 0, 72, 120
2, 44156, Note_off_c, 0, 72, 100
2, 44160, Note_on_c, 0, 70, 120
2, 44348, Note_off_c, 0, 70, 100
2, 44352, Note_on_c, 0, 72, 120
2, 44540, Note_off_c, 0, 72, 100
2, 44544, Note_on_c, 0, 73, 120
2, 44732, Note_off_c, 0, 73, 100
2, 44736, Note_on_c, 0, 72, 120
2, 44924, Note_off_c, 0, 72, 100
2, 44928, Note_on_c, 0, 70, 120
2, 45116, Note_off_c, 0, 70, 100
2, 45120, Note_on_c, 0, 72, 120
2, 45308, Note_off_c, 0, 72, 100
2, 45312, Note_on_c, 0, 70, 120
2, 45500, Note_off_c, 0, 70, 100
2, 45504, Note_on_c, 0, 68, 120
2, 45692, Note_off_c, 0, 68, 100
2, 45696, Note_on_c, 0, 67, 120
2, 45884, Note_off_c, 0, 67, 100
2, 45888, Note_on_c, 0, 68, 120
2, 46076, Note_off_c, 0, 68, 100
2, 46080, Note_on_c, 0, 67, 120
2, 46268, Note_off_c, 0, 67, 100
2, 46272, Note_on_c, 0, 65, 120
2, 46460, Note_off_c, 0, 65, 100
2, 46464, Note_on_c, 0, 64, 120
2, 46652, Note_off_c, 0, 64, 100
2, 46656, Note_on_c, 0, 65, 120
2, 46844, Note_off_c, 0, 65, 100
2, 46848, Note_on_c, 0, 67, 120
2, 47036, Note_off_c, 0, 67, 100
2, 47040, Note_on_c, 0, 65, 120
2, 47228, Note_off_c, 0, 65, 100
2, 47232, Note_on_c, 0, 68, 120
2, 47420, Note_off_c, 0, 68, 100
2, 47424, Note_on_c, 0, 59, 120
2, 47612, Note_off_c, 0, 59, 100
2, 47616, Note_on_c, 0, 60, 120
2, 47996, Note_off_c, 0, 60, 100
2, 49536, Note_on_c, 0, 76, 110
2, 49916, Note_off_c, 0, 76, 100
2, 49920, Note_on_c, 0, 77, 110
2, 50300, Note_off_c, 0, 77, 100
2, 50304, Note_on_c, 0, 80, 110
2, 50684, Note_off_c, 0, 80, 100
2, 50688, Note_on_c, 0, 84, 110
2, 50784, Note_on_c, 0, 85, 110
2, 50876, Note_off_c, 0, 84, 100
2, 50880, Note_on_c, 0, 82, 110
2, 50972, Note_off_c, 0, 85, 100
2, 50976, Note_on_c, 0, 84, 110
2, 51068, Note_off_c, 0, 82, 100
2, 51068, Note_off_c, 0, 84, 100
2, 51072, Note_on_c, 0, 85, 110
2, 51452, Note_off_c, 0, 85, 100
2, 51456, Note_on_c, 0, 82, 110
2, 51836, Note_off_c, 0, 82, 100
2, 51840, Note_on_c, 0, 82, 110
2, 51936, Note_on_c, 0, 84, 110
2, 52028, Note_off_c, 0, 82, 100
2, 52032, Note_on_c, 0, 80, 110
2, 52124, Note_off_c, 0, 84, 100
2, 52128, Note_on_c, 0, 82, 110
2, 52220, Note_off_c, 0, 80, 100
2, 52220, Note_off_c, 0, 82, 100
2, 52224, Note_on_c, 0, 84, 110
2, 52604, Note_off_c, 0, 84, 100
2, 52608, Note_on_c, 0, 80, 110
2, 52988, Note_off_c, 0, 80, 100
2, 52992, Note_on_c, 0, 80, 110
2, 53088, Note_on_c, 0, 82, 110
2, 53180, Note_off_c, 0, 80, 100
2, 53184, Note_on_c, 0, 79, 110
2, 53276, Note_off_c, 0, 82, 100
2, 53280, Note_on_c, 0, 80, 110
2, 53372, Note_off_c, 0, 79, 100
2, 53372, Note_off_c, 0, 80, 100
2, 53376, Note_on_c, 0, 82, 110
2, 53756, Note_off_c, 0, 82, 100
2, 53760, Note_on_c, 0, 79, 110
2, 54140, Note_off_c, 0, 79, 100
2, 54144, Note_on_c, 0, 79, 110
2, 54240, Note_on_c, 0, 80, 110
2, 54332, Note_off_c, 0, 79, 100
2, 54336, Note_on_c, 0, 77, 110
2, 54428, Note_off_c, 0, 80, 100
2, 54432, Note_on_c, 0, 79, 110
2, 54524, Note_off_c, 0, 77, 100
2, 54524, Note_off_c, 0, 79, 100
2, 54528, Note_on_c, 0, 80, 110
2, 54908, Note_off_c, 0, 80, 100
2, 54912, Note_on_c, 0, 77, 110
2, 55292, Note_off_c, 0, 77, 100
2, 55296, Note_on_c, 0, 77, 120
2, 55676, Note_off_c, 0, 77, 100
2, 55680, Note_on_c, 0, 77, 80
2, 56444, Note_off_c, 0, 77, 100
2, 56448, Note_on_c, 0, 76, 80
2, 56448, Note_on_c, 0, 80, 80
2, 56592, Note_off_c, 0, 80, 100
2, 56596, Note_on_c, 0, 79, 80
2, 56828, Note_off_c, 0, 76, 100
2, 56828, Note_off_c, 0, 79, 100
2, 56832, Note_on_c, 0, 77, 80
2, 57212, Note_off_c, 0, 77, 100
2, 57600, Note_on_c, 0, 75, 80
2, 57788, Note_off_c, 0, 75, 100
2, 57792, Note_on_c, 0, 73, 80
2, 57980, Note_off_c, 0, 73, 100
2, 57984, Note_on_c, 0, 65, 80
2, 58748, Note_off_c, 0, 65, 100
2, 58752, Note_on_c, 0, 68, 80
2, 58752, Note_on_c, 0, 64, 80
2, 58896, Note_off_c, 0, 68, 100
2, 58900, Note_on_c, 0, 67, 80
2, 59132, Note_off_c, 0, 64, 100
2, 59132, Note_off_c, 0, 67, 100
2, 59136, Note_on_c, 0, 65, 80
2, 59516, Note_off_c, 0, 65, 100
2, 60288, Note_on_c, 0, 60, 80
2, 60288, Note_on_c, 0, 55, 80
2, 60288, Note_on_c, 0, 52, 80
2, 61436, Note_off_c, 0, 60, 100
2, 61436, Note_off_c, 0, 55, 100
2, 61436, Note_off_c, 0, 52, 100
2, 61440, Note_on_c, 0, 53, 80
2, 61820, Note_off_c, 0, 53, 100
2, 62208, Note_on_c, 0, 72, 80
2, 62208, Note_on_c, 0, 75, 80
2, 62588, Note_off_c, 0, 72, 100
2, 62588, Note_off_c, 0, 75, 100
2, 62592, Note_on_c, 0, 76, 80
2, 62592, Note_on_c, 0, 73, 80
2, 62972, Note_off_c, 0, 76, 100
2, 62972, Note_off_c, 0, 73, 100
2, 62976, Note_on_c, 0, 73, 80
2, 62976, Note_on_c, 0, 70, 80
2, 63356, Note_off_c, 0, 73, 100
2, 63356, Note_off_c, 0, 70, 100
2, 63744, Note_on_c, 0, 75, 80
2, 63744, Note_on_c, 0, 72, 80
2, 64124, Note_off_c, 0, 75, 100
2, 64124, Note_off_c, 0, 72, 100
2, 64128, Note_on_c, 0, 72, 80
2, 64128, Note_on_c, 0, 68, 80
2, 64508, Note_off_c, 0, 72, 100
2, 64508, Note_off_c, 0, 68, 100
2, 64896, Note_on_c, 0, 78, 80
2, 64896, Note_on_c, 0, 75, 80
2, 65276, Note_off_c, 0, 78, 100
2, 65276, Note_off_c, 0, 75, 100
2, 65280, Note_on_c, 0, 75, 80
2, 65280, Note_on_c, 0, 72, 80
2, 65660, Note_off_c, 0, 75, 100
2, 65660, Note_off_c, 0, 72, 100
2, 66048, Note_on_c, 0, 77, 80
2, 66048, Note_on_c, 0, 73, 80
2, 66428, Note_off_c, 0, 77, 100
2, 66428, Note_off_c, 0, 73, 100
2, 66432, Note_on_c, 0, 73, 80
2, 66432, Note_on_c, 0, 70, 80
2, 66812, Note_off_c, 0, 73, 100
2, 66812, Note_off_c, 0, 70, 100
2, 67200, Note_on_c, 0, 70, 80
2, 67200, Note_on_c, 0, 65, 80
2, 67964, Note_off_c, 0, 70, 100
2, 67964, Note_off_c, 0, 65, 100
2, 67968, Note_on_c, 0, 73, 80
2, 67968, Note_on_c, 0, 69, 80
2, 68108, Note_off_c, 0, 73, 100
2, 68112, Note_on_c, 0, 72, 80
2, 68348, Note_off_c, 0, 69, 100
2, 68348, Note_off_c, 0, 72, 100
2, 68352, Note_on_c, 0, 70, 80
2, 68732, Note_off_c, 0, 70, 100
2, 69120, Note_on_c, 0, 78, 110
2, 69308, Note_off_c, 0, 78, 100
2, 69312, Note_on_c, 0, 77, 110
2, 69500, Note_off_c, 0, 77, 100
2, 69504, Note_on_c, 0, 70, 80
2, 69504, Note_on_c, 0, 65, 80
2, 70268, Note_off_c, 0, 70, 100
2, 70268, Note_off_c, 0, 65, 100
2, 70272, Note_on_c, 0, 73, 80
2, 70272, Note_on_c, 0, 69, 80
2, 70412, Note_off_c, 0, 73, 100
2, 70416, Note_on_c, 0, 72, 80
2, 70652, Note_off_c, 0, 69, 100
2, 70652, Note_off_c, 0, 72, 100
2, 70656, Note_on_c, 0, 70, 80
2, 71036, Note_off_c, 0, 70, 100
2, 71424, Note_on_c, 0, 73, 80
2, 71424, Note_on_c, 0, 69, 80
2, 71612, Note_off_c, 0, 73, 100
2, 71616, Note_on_c, 0, 72, 80
2, 71804, Note_off_c, 0, 69, 100
2, 71804, Note_off_c, 0, 72, 100
2, 71808, Note_on_c, 0, 70, 80
2, 72188, Note_off_c, 0, 70, 100
2, 72576, Note_on_c, 0, 73, 80
2, 72576, Note_on_c, 0, 69, 80
2, 72764, Note_off_c, 0, 73, 100
2, 72768, Note_on_c, 0, 72, 80
2, 72956, Note_off_c, 0, 69, 100
2, 72956, Note_off_c, 0, 72, 100
2, 72960, Note_on_c, 0, 70, 80
2, 73340, Note_off_c, 0, 70, 100
2, 73728, Note_on_c, 0, 73, 120
2, 73916, Note_off_c, 0, 73, 100
2, 73920, Note_on_c, 0, 72, 120
2, 74108, Note_off_c, 0, 72, 100
2, 74112, Note_on_c, 0, 70, 120
2, 74300, Note_off_c, 0, 70, 100
2, 74304, Note_on_c, 0, 72, 120
2, 74492, Note_off_c, 0, 72, 100
2, 74496, Note_on_c, 0, 73, 120
2, 74684, Note_off_c, 0, 73, 100
2, 74688, Note_on_c, 0, 72, 120
2, 74876, Note_off_c, 0, 72, 100
2, 74880, Note_on_c, 0, 70, 120
2, 75068, Note_off_c, 0, 70, 100
2, 75072, Note_on_c, 0, 72, 120
2, 75260, Note_off_c, 0, 72, 100
2, 75264, Note_on_c, 0, 70, 120
2, 75452, Note_off_c, 0, 70, 100
2, 75456, Note_on_c, 0, 68, 120
2, 75644, Note_off_c, 0, 68, 100
2, 75648, Note_on_c, 0, 67, 120
2, 75836, Note_off_c, 0, 67, 100
2, 75840, Note_on_c, 0, 68, 120
2, 76028, Note_off_c, 0, 68, 100
2, 76032, Note_on_c, 0, 67, 120
2, 76220, Note_off_c, 0, 67, 100
2, 76224, Note_on_c, 0, 65, 120
2, 76412, Note_off_c, 0, 65, 100
2, 76416, Note_on_c, 0, 64, 120
2, 76604, Note_off_c, 0, 64, 100
2, 76608, Note_on_c, 0, 65, 120
2, 76796, Note_off_c, 0, 65, 100
2, 76800, Note_on_c, 0, 67, 120
2, 76988, Note_off_c, 0, 67, 100
2, 76992, Note_on_c, 0, 65, 120
2, 77180, Note_off_c, 0, 65, 100
2, 77184, Note_on_c, 0, 68, 120
2, 77372, Note_off_c, 0, 68, 100
2, 77376, Note_on_c, 0, 59, 120
2, 77564, Note_off_c, 0, 59, 100
2, 77568, Note_on_c, 0, 60, 120
2, 77948, Note_off_c, 0, 60, 100
2, 79488, Note_on_c, 0, 76, 110
2, 79868, Note_off_c, 0, 76, 100
2, 79872, Note_on_c, 0, 77, 110
2, 80252, Note_off_c, 0, 77, 100
2, 80256, Note_on_c, 0, 80, 110
2, 80636, Note_off_c, 0, 80, 100
2, 80640, Note_on_c, 0, 84, 110
2, 80736, Note_on_c, 0, 85, 110
2, 80828, Note_off_c, 0, 84, 100
2, 80832, Note_on_c, 0, 82, 110
2, 80924, Note_off_c, 0, 85, 100
2, 80928, Note_on_c, 0, 84, 110
2, 81020, Note_off_c, 0, 82, 100
2, 81020, Note_off_c, 0, 84, 100
2, 81024, Note_on_c, 0, 85, 110
2, 81404, Note_off_c, 0, 85, 100
2, 81408, Note_on_c, 0, 82, 110
2, 81788, Note_off_c, 0, 82, 100
2, 81792, Note_on_c, 0, 82, 110
2, 81888, Note_on_c, 0, 84, 110
2, 81980, Note_off_c, 0, 82, 100
2, 81984, Note_on_c, 0, 80, 110
2, 82076, Note_off_c, 0, 84, 100
2, 82080, Note_on_c, 0, 82, 110
2, 82172, Note_off_c, 0, 80, 100
2, 82172, Note_off_c, 0, 82, 100
2, 82176, Note_on_c, 0, 84, 110
2, 82556, Note_off_c, 0, 84, 100
2, 82560, Note_on_c, 0, 80, 110
2, 82940, Note_off_c, 0, 80, 100
2, 82944, Note_on_c, 0, 80, 110
2, 83040, Note_on_c, 0, 82, 110
2, 83132, Note_off_c, 0, 80, 100
2, 83136, Note_on_c, 0, 79, 110
2, 83228, Note_off_c, 0, 82, 100
2, 83232, Note_on_c, 0, 80, 110
2, 83324, Note_off_c, 0, 79, 100
2, 83324, Note_off_c, 0, 80, 100
2, 83328, Note_on_c, 0, 82, 110
2, 83708, Note_off_c, 0, 82, 100
2, 83712, Note_on_c, 0, 79, 110
2, 84092, Note_off_c, 0, 79, 100
2, 84096, Note_on_c, 0, 79, 110
2, 84192, Note_on_c, 0, 80, 110
2, 84284, Note_off_c, 0, 79, 100
2, 84288, Note_on_c, 0, 77, 110
2, 84380, Note_off_c, 0, 80, 100
2, 84384, Note_on_c, 0, 79, 110
2, 84476, Note_off_c, 0, 77, 100
2, 84476, Note_off_c, 0, 79, 100
2, 84480, Note_on_c, 0, 80, 110
2, 84860, Note_off_c, 0, 80, 100
2, 84864, Note_on_c, 0, 77, 110
2, 85244, Note_off_c, 0, 77, 100
2, 85248, Note_on_c, 0, 77, 120
2, 85628, Note_off_c, 0, 77, 100
2, 85632, Note_on_c, 0, 77, 80
2, 86396, Note_off_c, 0, 77, 100
2, 86400, Note_on_c, 0, 76, 80
2, 86400, Note_on_c, 0, 80, 80
2, 86544, Note_off_c, 0, 80, 100
2, 86548, Note_on_c, 0, 79, 80
2, 86780, Note_off_c, 0, 76, 100
2, 86780, Note_off_c, 0, 79, 100
2, 86784, Note_on_c, 0, 77, 80
2, 87164, Note_off_c, 0, 77, 100
2, 87552, Note_on_c, 0, 75, 80
2, 87740, Note_off_c, 0, 75, 100
2, 87744, Note_on_c, 0, 73, 80
2, 87932, Note_off_c, 0, 73, 100
2, 87936, Note_on_c, 0, 65, 80
2, 88700, Note_off_c, 0, 65, 100
2, 88704, Note_on_c, 0, 68, 80
2, 88704, Note_on_c, 0, 64, 80
2, 88848, Note_off_c, 0, 68, 100
2, 88852, Note_on_c, 0, 67, 80
2, 89084, Note_off_c, 0, 64, 100
2, 89084, Note_off_c, 0, 67, 100
2, 89088, Note_on_c, 0, 65, 80
2, 89468, Note_off_c, 0, 65, 100
2, 90240, Note_on_c, 0, 60, 80
2, 90240, Note_on_c, 0, 55, 80
2, 90240, Note_on_c, 0, 52, 80
2, 91388, Note_off_c, 0, 60, 100
2, 91388, Note_off_c, 0, 55, 100
2, 91388, Note_off_c, 0, 52, 100
2, 91392, Note_on_c, 0, 53, 80
2, 91772, Note_off_c, 0, 53, 100
2, 92160, Note_on_c, 0, 60, 100
2, 92540, Note_off_c, 0, 60, 100
2, 92544, Key_signature, -1, "major"
2, 92544, Note_on_c, 0, 69, 80
2, 92732, Note_off_c, 0, 69, 100
2, 92736, Note_on_c, 0, 67, 80
2, 92924, Note_off_c, 0, 67, 100
2, 92928, Note_on_c, 0, 69, 80
2, 93116, Note_off_c, 0, 69, 100
2, 93120, Note_on_c, 0, 65, 80
2, 93308, Note_off_c, 0, 65, 100
2, 93312, Note_on_c, 0, 67, 80
2, 93500, Note_off_c, 0, 67, 100
2, 93504, Note_on_c, 0, 69, 80
2, 93692, Note_off_c, 0, 69, 100
2, 93696, Note_on_c, 0, 70, 80
2, 93884, Note_off_c, 0, 70, 100
2, 93888, Note_on_c, 0, 69, 80
2, 94076, Note_off_c, 0, 69, 100
2, 94080, Note_on_c, 0, 70, 80
2, 94268, Note_off_c, 0, 70, 100
2, 94272, Note_on_c, 0, 67, 80
2, 94460, Note_off_c, 0, 67, 100
2, 94464, Note_on_c, 0, 69, 80
2, 94652, Note_off_c, 0, 69, 100
2, 94656, Note_on_c, 0, 70, 80
2, 94844, Note_off_c, 0, 70, 100
2, 94848, Note_on_c, 0, 72, 80
2, 95036, Note_off_c, 0, 72, 100
2, 95040, Note_on_c, 0, 71, 80
2, 95228, Note_off_c, 0, 71, 100
2, 95232, Note_on_c, 0, 72, 80
2, 95420, Note_off_c, 0, 72, 100
2, 95424, Note_on_c, 0, 74, 80
2, 95612, Note_off_c, 0, 74, 100
2, 95616, Note_on_c, 0, 72, 80
2, 95804, Note_off_c, 0, 72, 100
2, 95808, Note_on_c, 0, 70, 80
2, 95996, Note_off_c, 0, 70, 100
2, 96000, Note_on_c, 0, 69, 80
2, 96188, Note_off_c, 0, 69, 100
2, 96192, Note_on_c, 0, 67, 80
2, 96380, Note_off_c, 0, 67, 100
2, 96384, Note_on_c, 0, 69, 80
2, 96572, Note_off_c, 0, 69, 100
2, 96576, Note_on_c, 0, 70, 80
2, 96764, Note_off_c, 0, 70, 100
2, 96768, Note_on_c, 0, 69, 80
2, 96956, Note_off_c, 0, 69, 100
2, 96960, Note_on_c, 0, 65, 80
2, 97148, Note_off_c, 0, 65, 100
2, 97152, Note_on_c, 0, 69, 80
2, 97536, Note_on_c, 0, 72, 80
2, 97916, Note_off_c, 0, 72, 100
2, 97920, Note_on_c, 0, 77, 80
2, 98300, Note_off_c, 0, 69, 100
2, 98300, Note_off_c, 0, 77, 100
2, 98304, Note_on_c, 0, 67, 80
2, 98688, Note_on_c, 0, 74, 80
2, 99068, Note_off_c, 0, 74, 100
2, 99072, Note_on_c, 0, 77, 80
2, 99452, Note_off_c, 0, 67, 100
2, 99452, Note_off_c, 0, 77, 100
2, 99456, Note_on_c, 0, 67, 80
2, 99840, Note_on_c, 0, 77, 80
2, 100220, Note_off_c, 0, 77, 100
2, 100224, Note_on_c, 0, 76, 80
2, 100604, Note_off_c, 0, 67, 100
2, 100604, Note_off_c, 0, 76, 100
2, 100608, Note_on_c, 0, 65, 80
2, 100992, Note_on_c, 0, 74, 80
2, 101372, Note_off_c, 0, 65, 100
2, 101372, Note_off_c, 0, 74, 100
2, 101376, Note_on_c, 0, 72, 80
2, 101376, Note_on_c, 0, 64, 80
2, 101756, Note_off_c, 0, 72, 100
2, 101756, Note_off_c, 0, 64, 100
2, 101952, Note_on_c, 0, 67, 80
2, 102140, Note_off_c, 0, 67, 100
2, 102144, Note_on_c, 0, 64, 80
2, 102332, Note_off_c, 0, 64, 100
2, 102336, Note_on_c, 0, 60, 80
2, 102524, Note_off_c, 0, 60, 100
2, 102528, Note_on_c, 0, 65, 80
2, 102528, Note_on_c, 0, 59, 80
2, 102716, Note_off_c, 0, 65, 100
2, 102720, Note_on_c, 0, 62, 80
2, 102908, Note_off_c, 0, 59, 100
2, 102908, Note_off_c, 0, 62, 100
2, 102912, Note_on_c, 0, 60, 80
2, 103292, Note_off_c, 0, 60, 100
2, 103680, Note_on_c, 0, 60, 80
2, 104060, Note_off_c, 0, 60, 100
2, 104064, Note_on_c, 0, 69, 80
2, 104252, Note_off_c, 0, 69, 100
2, 104256, Note_on_c, 0, 67, 80
2, 104444, Note_off_c, 0, 67, 100
2, 104448, Note_on_c, 0, 69, 80
2, 104636, Note_off_c, 0, 69, 100
2, 104640, Note_on_c, 0, 65, 80
2, 104828, Note_off_c, 0, 65, 100
2, 104832, Note_on_c, 0, 67, 80
2, 105020, Note_off_c, 0, 67, 100
2, 105024, Note_on_c, 0, 69, 80
2, 105212, Note_off_c, 0, 69, 100
2, 105216, Note_on_c, 0, 70, 80
2, 105404, Note_off_c, 0, 70, 100
2, 105408, Note_on_c, 0, 69, 80
2, 105596, Note_off_c, 0, 69, 100
2, 105600, Note_on_c, 0, 70, 80
2, 105788, Note_off_c, 0, 70, 100
2, 105792, Note_on_c, 0, 67, 80
2, 105980, Note_off_c, 0, 67, 100
2, 105984, Note_on_c, 0, 69, 80
2, 106172, Note_off_c, 0, 69, 100
2, 106176, Note_on_c, 0, 70, 80
2, 106364, Note_off_c, 0, 70, 100
2, 106368, Note_on_c, 0, 72, 80
2, 106556, Note_off_c, 0, 72, 100
2, 106560, Note_on_c, 0, 71, 80
2, 106748, Note_off_c, 0, 71, 100
2, 106752, Note_on_c, 0, 72, 80
2, 106940, Note_off_c, 0, 72, 100
2, 106944, Note_on_c, 0, 74, 80
2, 107132, Note_off_c, 0, 74, 100
2, 107136, Note_on_c, 0, 72, 80
2, 107324, Note_off_c, 0, 72, 100
2, 107328, Note_on_c, 0, 70, 80
2, 107516, Note_off_c, 0, 70, 100
2, 107520, Note_on_c, 0, 69, 80
2, 107708, Note_off_c, 0, 69, 100
2, 107712, Note_on_c, 0, 67, 80
2, 107900, Note_off_c, 0, 67, 100
2, 107904, Note_on_c, 0, 69, 80
2, 108092, Note_off_c, 0, 69, 100
2, 108096, Note_on_c, 0, 70, 80
2, 108284, Note_off_c, 0, 70, 100
2, 108288, Note_on_c, 0, 69, 80
2, 108476, Note_off_c, 0, 69, 100
2, 108480, Note_on_c, 0, 65, 80
2, 108668, Note_off_c, 0, 65, 100
2, 108672, Note_on_c, 0, 69, 80
2, 109056, Note_on_c, 0, 72, 80
2, 109436, Note_off_c, 0, 72, 100
2, 109440, Note_on_c, 0, 77, 80
2, 109820, Note_off_c, 0, 69, 100
2, 109820, Note_off_c, 0, 77, 100
2, 109824, Note_on_c, 0, 67, 80
2, 110208, Note_on_c, 0, 74, 80
2, 110588, Note_off_c, 0, 74, 100
2, 110592, Note_on_c, 0, 77, 80
2, 110972, Note_off_c, 0, 67, 100
2, 110972, Note_off_c, 0, 77, 100
2, 110976, Note_on_c, 0, 67, 80
2, 111360, Note_on_c, 0, 77, 80
2, 111740, Note_off_c, 0, 77, 100
2, 111744, Note_on_c, 0, 76, 80
2, 112124, Note_off_c, 0, 67, 100
2, 112124, Note_off_c, 0, 76, 100
2, 112128, Note_on_c, 0, 65, 80
2, 112512, Note_on_c, 0, 74, 80
2, 112892, Note_off_c, 0, 65, 100
2, 112892, Note_off_c, 0, 74, 100
2, 112896, Note_on_c, 0, 72, 80
2, 112896, Note_on_c, 0, 64, 80
2, 113276, Note_off_c, 0, 72, 100
2, 113276, Note_off_c, 0, 64, 100
2, 113472, Note_on_c, 0, 67, 80
2, 113660, Note_off_c, 0, 67, 100
2, 113664, Note_on_c, 0, 64, 80
2, 113852, Note_off_c, 0, 64, 100
2, 113856, Note_on_c, 0, 60, 80
2, 114044, Note_off_c, 0, 60, 100
2, 114048, Note_on_c, 0, 65, 80
2, 114048, Note_on_c, 0, 59, 80
2, 114236, Note_off_c, 0, 65, 100
2, 114240, Note_on_c, 0, 62, 80
2, 114428, Note_off_c, 0, 59, 100
2, 114428, Note_off_c, 0, 62, 100
2, 114432, Note_on_c, 0, 60, 80
2, 114812, Note_off_c, 0, 60, 100
2, 115200, Note_on_c, 0, 60, 80
2, 115580, Note_off_c, 0, 60, 100
2, 115584, Note_on_c, 0, 64, 80
2, 115772, Note_off_c, 0, 64, 100
2, 115776, Note_on_c, 0, 62, 80
2, 115964, Note_off_c, 0, 62, 100
2, 115968, Note_on_c, 0, 64, 80
2, 116156, Note_off_c, 0, 64, 100
2, 116160, Note_on_c, 0, 60, 80
2, 116348, Note_off_c, 0, 60, 100
2, 116352, Note_on_c, 0, 62, 80
2, 116540, Note_off_c, 0, 62, 100
2, 116544, Note_on_c, 0, 64, 80
2, 116732, Note_off_c, 0, 64, 100
2, 116736, Note_on_c, 0, 65, 80
2, 116924, Note_off_c, 0, 65, 100
2, 116928, Note_on_c, 0, 64, 80
2, 117116, Note_off_c, 0, 64, 100
2, 117120, Note_on_c, 0, 65, 80
2, 117308, Note_off_c, 0, 65, 100
2, 117312, Note_on_c, 0, 62, 80
2, 117500, Note_off_c, 0, 62, 100
2, 117504, Note_on_c, 0, 64, 80
2, 117692, Note_off_c, 0, 64, 100
2, 117696, Note_on_c, 0, 65, 80
2, 117884, Note_off_c, 0, 65, 100
2, 117888, Note_on_c, 0, 67, 80
2, 118076, Note_off_c, 0, 67, 100
2, 118080, Note_on_c, 0, 66, 80
2, 118268, Note_off_c, 0, 66, 100
2, 118272, Note_on_c, 0, 67, 80
2, 118460, Note_off_c, 0, 67, 100
2, 118464, Note_on_c, 0, 64, 80
2, 118652, Note_off_c, 0, 64, 100
2, 118656, Note_on_c, 0, 65, 80
2, 118844, Note_off_c, 0, 65, 100
2, 118848, Note_on_c, 0, 67, 80
2, 119036, Note_off_c, 0, 67, 100
2, 119040, Note_on_c, 0, 69, 80
2, 119228, Note_off_c, 0, 69, 100
2, 119232, Note_on_c, 0, 65, 80
2, 119420, Note_off_c, 0, 65, 100
2, 119424, Note_on_c, 0, 69, 80
2, 119612, Note_off_c, 0, 69, 100
2, 119616, Note_on_c, 0, 72, 80
2, 119804, Note_off_c, 0, 72, 100
2, 119808, Note_on_c, 0, 77, 80
2, 119996, Note_off_c, 0, 77, 100
2, 120000, Note_on_c, 0, 81, 80
2, 120188, Note_off_c, 0, 81, 100
2, 120192, Note_on_c, 0, 84, 80
2, 120192, Note_on_c, 0, 72, 80
2, 121340, Note_off_c, 0, 84, 100
2, 121340, Note_off_c, 0, 72, 100
2, 121344, Note_on_c, 0, 83, 80
2, 121344, Note_on_c, 0, 71, 80
2, 122492, Note_off_c, 0, 83, 100
2, 122492, Note_off_c, 0, 71, 100
2, 122496, Note_on_c, 0, 82, 80
2, 122496, Note_on_c, 0, 70, 80
2, 122876, Note_off_c, 0, 82, 100
2, 122876, Note_off_c, 0, 70, 100
2, 123072, Note_on_c, 0, 67, 80
2, 123260, Note_off_c, 0, 67, 100
2, 123264, Note_on_c, 0, 69, 80
2, 123452, Note_off_c, 0, 69, 100
2, 123456, Note_on_c, 0, 70, 80
2, 123644, Note_off_c, 0, 70, 100
2, 123648, Note_on_c, 0, 72, 80
2, 123836, Note_off_c, 0, 72, 100
2, 123840, Note_on_c, 0, 70, 80
2, 124028, Note_off_c, 0, 70, 100
2, 124032, Note_on_c, 0, 72, 80
2, 124220, Note_off_c, 0, 72, 100
2, 124224, Note_on_c, 0, 69, 80
2, 124412, Note_off_c, 0, 69, 100
2, 124416, Note_on_c, 0, 70, 80
2, 124604, Note_off_c, 0, 70, 100
2, 124608, Note_on_c, 0, 72, 80
2, 124796, Note_off_c, 0, 72, 100
2, 124800, Note_on_c, 0, 74, 80
2, 124988, Note_off_c, 0, 74, 100
2, 124992, Note_on_c, 0, 72, 82
2, 125180, Note_off_c, 0, 72, 100
2, 125184, Note_on_c, 0, 74, 85
2, 125372, Note_off_c, 0, 74, 100
2, 125376, Note_on_c, 0, 76, 88
2, 125376, Note_on_c, 0, 70, 88
2, 125564, Note_off_c, 0, 76, 100
2, 125564, Note_off_c, 0, 70, 100
2, 125568, Note_on_c, 0, 77, 90
2, 125568, Note_on_c, 0, 72, 90
2, 125756, Note_off_c, 0, 77, 100
2, 125756, Note_off_c, 0, 72, 100
2, 125760, Note_on_c, 0, 79, 93
2, 125760, Note_on_c, 0, 74, 93
2, 125948, Note_off_c, 0, 79, 100
2, 125948, Note_off_c, 0, 74, 100
2, 125952, Note_on_c, 0, 81, 96
2, 125952, Note_on_c, 0, 76, 96
2, 126140, Note_off_c, 0, 81, 100
2, 126140, Note_off_c, 0, 76, 100
2, 126144, Note_on_c, 0, 79, 99
2, 126144, Note_on_c, 0, 74, 99
2, 126332, Note_off_c, 0, 79, 100
2, 126332, Note_off_c, 0, 74, 100
2, 126336, Note_on_c, 0, 81, 101
2, 126336, Note_on_c, 0, 76, 101
2, 126524, Note_off_c, 0, 81, 100
2, 126524, Note_off_c, 0, 76, 100
2, 126528, Note_on_c, 0, 77, 104
2, 126528, Note_on_c, 0, 72, 104
2, 126716, Note_off_c, 0, 77, 100
2, 126716, Note_off_c, 0, 72, 100
2, 126720, Note_on_c, 0, 79, 107
2, 126720, Note_on_c, 0, 74, 107
2, 126908, Note_off_c, 0, 79, 100
2, 126908, Note_off_c, 0, 74, 100
2, 126912, Note_on_c, 0, 81, 109
2, 126912, Note_on_c, 0, 76, 109
2, 127100, Note_off_c, 0, 81, 100
2, 127100, Note_off_c, 0, 76, 100
2, 127104, Note_on_c, 0, 82, 110
2, 127104, Note_on_c, 0, 77, 110
2, 127292, Note_off_c, 0, 82, 100
2, 127292, Note_off_c, 0, 77, 100
2, 127296, Note_on_c, 0, 81, 110
2, 127296, Note_on_c, 0, 76, 110
2, 127484, Note_off_c, 0, 81, 100
2, 127484, Note_off_c, 0, 76, 100
2, 127488, Note_on_c, 0, 79, 110
2, 127488, Note_on_c, 0, 74, 110
2, 127676, Note_off_c, 0, 79, 100
2, 127676, Note_off_c, 0, 74, 100
2, 127680, Note_on_c, 0, 81, 110
2, 127680, Note_on_c, 0, 76, 110
2, 127868, Note_off_c, 0, 81, 100
2, 127868, Note_off_c, 0, 76, 100
2, 127872, Note_on_c, 0, 79, 110
2, 127872, Note_on_c, 0, 74, 110
2, 128060, Note_off_c, 0, 79, 100
2, 128060, Note_off_c, 0, 74, 100
2, 128064, Note_on_c, 0, 77, 110
2, 128064, Note_on_c, 0, 72, 110
2, 128252, Note_off_c, 0, 77, 100
2, 128252, Note_off_c, 0, 72, 100
2, 128256, Note_on_c, 0, 76, 110
2, 128256, Note_on_c, 0, 70, 110
2, 128444, Note_off_c, 0, 76, 100
2, 128444, Note_off_c, 0, 70, 100
2, 128448, Note_on_c, 0, 77, 107
2, 128448, Note_on_c, 0, 72, 107
2, 128636, Note_off_c, 0, 77, 100
2, 128636, Note_off_c, 0, 72, 100
2, 128640, Note_on_c, 0, 76, 103
2, 128640, Note_on_c, 0, 70, 103
2, 128828, Note_off_c, 0, 76, 100
2, 128828, Note_off_c, 0, 70, 100
2, 128832, Note_on_c, 0, 74, 99
2, 128832, Note_on_c, 0, 69, 99
2, 129020, Note_off_c, 0, 74, 100
2, 129020, Note_off_c, 0, 69, 100
2, 129024, Note_on_c, 0, 72, 95
2, 129024, Note_on_c, 0, 67, 95
2, 129212, Note_off_c, 0, 72, 100
2, 129212, Note_off_c, 0, 67, 100
2, 129216, Note_on_c, 0, 74, 91
2, 129216, Note_on_c, 0, 69, 91
2, 129404, Note_off_c, 0, 74, 100
2, 129404, Note_off_c, 0, 69, 100
2, 129408, Note_on_c, 0, 72, 80
2, 129408, Note_on_c, 0, 67, 80
2, 130556, Note_off_c, 0, 72, 100
2, 130556, Note_off_c, 0, 67, 100
2, 130560, Note_on_c, 0, 71, 80
2, 130560, Note_on_c, 0, 65, 80
2, 131708, Note_off_c, 0, 71, 100
2, 131708, Note_off_c, 0, 65, 100
2, 131712, Note_on_c, 0, 70, 80
2, 131712, Note_on_c, 0, 64, 80
2, 132860, Note_off_c, 0, 70, 100
2, 132860, Note_off_c, 0, 64, 100
2, 132864, Note_on_c, 0, 69, 80
2, 133052, Note_off_c, 0, 69, 100
2, 133056, Note_on_c, 0, 67, 80
2, 133244, Note_off_c, 0, 67, 100
2, 133248, Note_on_c, 0, 69, 80
2, 133436, Note_off_c, 0, 69, 100
2, 133440, Note_on_c, 0, 65, 80
2, 133628, Note_off_c, 0, 65, 100
2, 133632, Note_on_c, 0, 67, 80
2, 133820, Note_off_c, 0, 67, 100
2, 133824, Note_on_c, 0, 69, 80
2, 134012, Note_off_c, 0, 69, 100
2, 134016, Note_on_c, 0, 70, 80
2, 134204, Note_off_c, 0, 70, 100
2, 134208, Note_on_c, 0, 69, 80
2, 134396, Note_off_c, 0, 69, 100
2, 134400, Note_on_c, 0, 70, 80
2, 134588, Note_off_c, 0, 70, 100
2, 134592, Note_on_c, 0, 67, 80
2, 134780, Note_off_c, 0, 67, 100
2, 134784, Note_on_c, 0, 69, 80
2, 134972, Note_off_c, 0, 69, 100
2, 134976, Note_on_c, 0, 70, 80
2, 135164, Note_off_c, 0, 70, 100
2, 135168, Note_on_c, 0, 72, 80
2, 135356, Note_off_c, 0, 72, 100
2, 135360, Note_on_c, 0, 71, 80
2, 135548, Note_off_c, 0, 71, 100
2, 135552, Note_on_c, 0, 72, 80
2, 135740, Note_off_c, 0, 72, 100
2, 135744, Note_on_c, 0, 74, 80
2, 135932, Note_off_c, 0, 74, 100
2, 135936, Note_on_c, 0, 72, 80
2, 136124, Note_off_c, 0, 72, 100
2, 136128, Note_on_c, 0, 70, 80
2, 136316, Note_off_c, 0, 70, 100
2, 136320, Note_on_c, 0, 69, 80
2, 136508, Note_off_c, 0, 69, 100
2, 136512, Note_on_c, 0, 67, 80
2, 136700, Note_off_c, 0, 67, 100
2, 136704, Note_on_c, 0, 69, 80
2, 136892, Note_off_c, 0, 69, 100
2, 136896, Note_on_c, 0, 70, 80
2, 137084, Note_off_c, 0, 70, 100
2, 137088, Note_on_c, 0, 69, 80
2, 137276, Note_off_c, 0, 69, 100
2, 137280, Note_on_c, 0, 65, 80
2, 137468, Note_off_c, 0, 65, 100
2, 137472, Note_on_c, 0, 69, 80
2, 137852, Note_off_c, 0, 69, 100
2, 137856, Note_on_c, 0, 72, 80
2, 138236, Note_off_c, 0, 72, 100
2, 138240, Note_on_c, 0, 77, 80
2, 138620, Note_off_c, 0, 77, 100
2, 138624, Note_on_c, 0, 74, 80
2, 139004, Note_off_c, 0, 74, 100
2, 139008, Note_on_c, 0, 67, 80
2, 139388, Note_off_c, 0, 67, 100
2, 139392, Note_on_c, 0, 65, 80
2, 139772, Note_off_c, 0, 65, 100
2, 139776, Note_on_c, 0, 64, 80
2, 140156, Note_off_c, 0, 64, 100
2, 140160, Note_on_c, 0, 67, 80
2, 140540, Note_off_c, 0, 67, 100
2, 140544, Note_on_c, 0, 72, 80
2, 140924, Note_off_c, 0, 72, 100
2, 140928, Note_on_c, 0, 65, 80
2, 141308, Note_off_c, 0, 65, 100
2, 141696, Note_on_c, 0, 60, 80
2, 142076, Note_off_c, 0, 60, 100
2, 142080, Note_on_c, 0, 64, 80
2, 142268, Note_off_c, 0, 64, 100
2, 142272, Note_on_c, 0, 62, 80
2, 142460, Note_off_c, 0, 62, 100
2, 142464, Note_on_c, 0, 64, 80
2, 142652, Note_off_c, 0, 64, 100
2, 142656, Note_on_c, 0, 60, 80
2, 142844, Note_off_c, 0, 60, 100
2, 142848, Note_on_c, 0, 62, 80
2, 143036, Note_off_c, 0, 62, 100
2, 143040, Note_on_c, 0, 64, 80
2, 143228, Note_off_c, 0, 64, 100
2, 143232, Note_on_c, 0, 65, 80
2, 143420, Note_off_c, 0, 65, 100
2, 143424, Note_on_c, 0, 64, 80
2, 143612, Note_off_c, 0, 64, 100
2, 143616, Note_on_c, 0, 65, 80
2, 143804, Note_off_c, 0, 65, 100
2, 143808, Note_on_c, 0, 62, 80
2, 143996, Note_off_c, 0, 62, 100
2, 144000, Note_on_c, 0, 64, 80
2, 144188, Note_off_c, 0, 64, 100
2, 144192, Note_on_c, 0, 65, 80
2, 144380, Note_off_c, 0, 65, 100
2, 144384, Note_on_c, 0, 67, 80
2, 144572, Note_off_c, 0, 67, 100
2, 144576, Note_on_c, 0, 66, 80
2, 144764, Note_off_c, 0, 66, 100
2, 144768, Note_on_c, 0, 67, 80
2, 144956, Note_off_c, 0, 67, 100
2, 144960, Note_on_c, 0, 64, 80
2, 145148, Note_off_c, 0, 64, 100
2, 145152, Note_on_c, 0, 65, 80
2, 145340, Note_off_c, 0, 65, 100
2, 145344, Note_on_c, 0, 67, 80
2, 145532, Note_off_c, 0, 67, 100
2, 145536, Note_on_c, 0, 69, 80
2, 145724, Note_off_c, 0, 69, 100
2, 145728, Note_on_c, 0, 65, 80
2, 145916, Note_off_c, 0, 65, 100
2, 145920, Note_on_c, 0, 69, 80
2, 146108, Note_off_c, 0, 69, 100
2, 146112, Note_on_c, 0, 72, 80
2, 146300, Note_off_c, 0, 72, 100
2, 146304, Note_on_c, 0, 77, 80
2, 146492, Note_off_c, 0, 77, 100
2, 146496, Note_on_c, 0, 81, 80
2, 146684, Note_off_c, 0, 81, 100
2, 146688, Note_on_c, 0, 84, 80
2, 146688, Note_on_c, 0, 72, 80
2, 147836, Note_off_c, 0, 84, 100
2, 147836, Note_off_c, 0, 72, 100
2, 147840, Note_on_c, 0, 83, 80
2, 147840, Note_on_c, 0, 71, 80
2, 148988, Note_off_c, 0, 83, 100
2, 148988, Note_off_c, 0, 71, 100
2, 148992, Note_on_c, 0, 82, 80
2, 148992, Note_on_c, 0, 70, 80
2, 149372, Note_off_c, 0, 82, 100
2, 149372, Note_off_c, 0, 70, 100
2, 149568, Note_on_c, 0, 67, 80
2, 149756, Note_off_c, 0, 67, 100
2, 149760, Note_on_c, 0, 69, 80
2, 149948, Note_off_c, 0, 69, 100
2, 149952, Note_on_c, 0, 70, 80
2, 150140, Note_off_c, 0, 70, 100
2, 150144, Note_on_c, 0, 72, 80
2, 150332, Note_off_c, 0, 72, 100
2, 150336, Note_on_c, 0, 70, 80
2, 150524, Note_off_c, 0, 70, 100
2, 150528, Note_on_c, 0, 72, 80
2, 150716, Note_off_c, 0, 72, 100
2, 150720, Note_on_c, 0, 69, 80
2, 150908, Note_off_c, 0, 69, 100
2, 150912, Note_on_c, 0, 70, 80
2, 151100, Note_off_c, 0, 70, 100
2, 151104, Note_on_c, 0, 72, 80
2, 151292, Note_off_c, 0, 72, 100
2, 151296, Note_on_c, 0, 74, 90
2, 151484, Note_off_c, 0, 74, 100
2, 151488, Note_on_c, 0, 72, 91
2, 151676, Note_off_c, 0, 72, 100
2, 151680, Note_on_c, 0, 74, 93
2, 151868, Note_off_c, 0, 74, 100
2, 151872, Note_on_c, 0, 76, 95
2, 151872, Note_on_c, 0, 70, 95
2, 152060, Note_off_c, 0, 76, 100
2, 152060, Note_off_c, 0, 70, 100
2, 152064, Note_on_c, 0, 77, 97
2, 152064, Note_on_c, 0, 72, 97
2, 152252, Note_off_c, 0, 77, 100
2, 152252, Note_off_c, 0, 72, 100
2, 152256, Note_on_c, 0, 79, 99
2, 152256, Note_on_c, 0, 74, 99
2, 152444, Note_off_c, 0, 79, 100
2, 152444, Note_off_c, 0, 74, 100
2, 152448, Note_on_c, 0, 81, 100
2, 152448, Note_on_c, 0, 76, 100
2, 152636, Note_off_c, 0, 81, 100
2, 152636, Note_off_c, 0, 76, 100
2, 152640, Note_on_c, 0, 79, 102
2, 152640, Note_on_c, 0, 74, 102
2, 152828, Note_off_c, 0, 79, 100
2, 152828, Note_off_c, 0, 74, 100
2, 152832, Note_on_c, 0, 81, 104
2, 152832, Note_on_c, 0, 76, 104
2, 153020, Note_off_c, 0, 81, 100
2, 153020, Note_off_c, 0, 76, 100
2, 153024, Note_on_c, 0, 77, 106
2, 153024, Note_on_c, 0, 72, 106
2, 153212, Note_off_c, 0, 77, 100
2, 153212, Note_off_c, 0, 72, 100
2, 153216, Note_on_c, 0, 79, 108
2, 153216, Note_on_c, 0, 74, 108
2, 153404, Note_off_c, 0, 79, 100
2, 153404, Note_off_c, 0, 74, 100
2, 153408, Note_on_c, 0, 81, 109
2, 153408, Note_on_c, 0, 76, 109
2, 153596, Note_off_c, 0, 81, 100
2, 153596, Note_off_c, 0, 76, 100
2, 153600, Note_on_c, 0, 82, 110
2, 153600, Note_on_c, 0, 77, 110
2, 153788, Note_off_c, 0, 82, 100
2, 153788, Note_off_c, 0, 77, 100
2, 153792, Note_on_c, 0, 81, 110
2, 153792, Note_on_c, 0, 76, 110
2, 153980, Note_off_c, 0, 81, 100
2, 153980, Note_off_c, 0, 76, 100
2, 153984, Note_on_c, 0, 79, 110
2, 153984, Note_on_c, 0, 74, 110
2, 154172, Note_off_c, 0, 79, 100
2, 154172, Note_off_c, 0, 74, 100
2, 154176, Note_on_c, 0, 81, 110
2, 154176, Note_on_c, 0, 76, 110
2, 154364, Note_off_c, 0, 81, 100
2, 154364, Note_off_c, 0, 76, 100
2, 154368, Note_on_c, 0, 79, 110
2, 154368, Note_on_c, 0, 74, 110
2, 154556, Note_off_c, 0, 79, 100
2, 154556, Note_off_c, 0, 74, 100
2, 154560, Note_on_c, 0, 77, 110
2, 154560, Note_on_c, 0, 72, 110
2, 154748, Note_off_c, 0, 77, 100
2, 154748, Note_off_c, 0, 72, 100
2, 154752, Note_on_c, 0, 76, 110
2, 154752, Note_on_c, 0, 70, 110
2, 154940, Note_off_c, 0, 76, 100
2, 154940, Note_off_c, 0, 70, 100
2, 154944, Note_on_c, 0, 77, 107
2, 154944, Note_on_c, 0, 72, 107
2, 155132, Note_off_c, 0, 77, 100
2, 155132, Note_off_c, 0, 72, 100
2, 155136, Note_on_c, 0, 76, 103
2, 155136, Note_on_c, 0, 70, 103
2, 155324, Note_off_c, 0, 76, 100
2, 155324, Note_off_c, 0, 70, 100
2, 155328, Note_on_c, 0, 74, 99
2, 155328, Note_on_c, 0, 69, 99
2, 155516, Note_off_c, 0, 74, 100
2, 155516, Note_off_c, 0, 69, 100
2, 155520, Note_on_c, 0, 72, 95
2, 155520, Note_on_c, 0, 67, 95
2, 155708, Note_off_c, 0, 72, 100
2, 155708, Note_off_c, 0, 67, 100
2, 155712, Note_on_c, 0, 74, 91
2, 155712, Note_on_c, 0, 69, 91
2, 155900, Note_off_c, 0, 74, 100
2, 155900, Note_off_c, 0, 69, 100
2, 155904, Note_on_c, 0, 72, 80
2, 155904, Note_on_c, 0, 67, 80
2, 157052, Note_off_c, 0, 72, 100
2, 157052, Note_off_c, 0, 67, 100
2, 157056, Note_on_c, 0, 71, 80
2, 157056, Note_on_c, 0, 65, 80
2, 158204, Note_off_c, 0, 71, 100
2, 158204, Note_off_c, 0, 65, 100
2, 158208, Note_on_c, 0, 70, 80
2, 158208, Note_on_c, 0, 64, 80
2, 159356, Note_off_c, 0, 70, 100
2, 159356, Note_off_c, 0, 64, 100
2, 159360, Note_on_c, 0, 69, 80
2, 159548, Note_off_c, 0, 69, 100
2, 159552, Note_on_c, 0, 67, 80
2, 159740, Note_off_c, 0, 67, 100
2, 159744, Note_on_c, 0, 69, 80
2, 159932, Note_off_c, 0, 69, 100
2, 159936, Note_on_c, 0, 65, 80
2, 160124, Note_off_c, 0, 65, 100
2, 160128, Note_on_c, 0, 67, 80
2, 160316, Note_off_c, 0, 67, 100
2, 160320, Note_on_c, 0, 69, 80
2, 160508, Note_off_c, 0, 69, 100
2, 160512, Note_on_c, 0, 70, 80
2, 160700, Note_off_c, 0, 70, 100
2, 160704, Note_on_c, 0, 69, 80
2, 160892, Note_off_c, 0, 69, 100
2, 160896, Note_on_c, 0, 70, 80
2, 161084, Note_off_c, 0, 70, 100
2, 161088, Note_on_c, 0, 67, 80
2, 161276, Note_off_c, 0, 67, 100
2, 161280, Note_on_c, 0, 69, 80
2, 161468, Note_off_c, 0, 69, 100
2, 161472, Note_on_c, 0, 70, 80
2, 161660, Note_off_c, 0, 70, 100
2, 161664, Note_on_c, 0, 72, 80
2, 161852, Note_off_c, 0, 72, 100
2, 161856, Note_on_c, 0, 71, 80
2, 162044, Note_off_c, 0, 71, 100
2, 162048, Note_on_c, 0, 72, 80
2, 162236, Note_off_c, 0, 72, 100
2, 162240, Note_on_c, 0, 74, 80
2, 162428, Note_off_c, 0, 74, 100
2, 162432, Note_on_c, 0, 72, 80
2, 162620, Note_off_c, 0, 72, 100
2, 162624, Note_on_c, 0, 70, 80
2, 162812, Note_off_c, 0, 70, 100
2, 162816, Note_on_c, 0, 69, 80
2, 163004, Note_off_c, 0, 69, 100
2, 163008, Note_on_c, 0, 67, 80
2, 163196, Note_off_c, 0, 67, 100
2, 163200, Note_on_c, 0, 69, 80
2, 163388, Note_off_c, 0, 69, 100
2, 163392, Note_on_c, 0, 70, 80
2, 163580, Note_off_c, 0, 70, 100
2, 163584, Note_on_c, 0, 69, 80
2, 163772, Note_off_c, 0, 69, 100
2, 163776, Note_on_c, 0, 65, 80
2, 163964, Note_off_c, 0, 65, 100
2, 163968, Note_on_c, 0, 69, 80
2, 164348, Note_off_c, 0, 69, 100
2, 164352, Note_on_c, 0, 72, 80
2, 164732, Note_off_c, 0, 72, 100
2, 164736, Note_on_c, 0, 77, 80
2, 165116, Note_off_c, 0, 77, 100
2, 165120, Note_on_c, 0, 74, 80
2, 165500, Note_off_c, 0, 74, 100
2, 165504, Note_on_c, 0, 67, 80
2, 165884, Note_off_c, 0, 67, 100
2, 165888, Note_on_c, 0, 65, 80
2, 166268, Note_off_c, 0, 65, 100
2, 166272, Note_on_c, 0, 64, 80
2, 166652, Note_off_c, 0, 64, 100
2, 166656, Note_on_c, 0, 67, 80
2, 167036, Note_off_c, 0, 67, 100
2, 167040, Note_on_c, 0, 72, 80
2, 167420, Note_off_c, 0, 72, 100
2, 167424, Note_on_c, 0, 65, 80
2, 167804, Note_off_c, 0, 65, 100
2, 168192, Note_on_c, 0, 68, 80
2, 168192, Note_on_c, 0, 60, 80
2, 168572, Note_off_c, 0, 68, 100
2, 168572, Note_off_c, 0, 60, 100
2, 168576, Note_on_c, 0, 70, 80
2, 168576, Note_on_c, 0, 61, 80
2, 168956, Note_off_c, 0, 70, 100
2, 168956, Note_off_c, 0, 61, 100
2, 168960, Note_on_c, 0, 67, 80
2, 168960, Note_on_c, 0, 58, 80
2, 169340, Note_off_c, 0, 67, 100
2, 169340, Note_off_c, 0, 58, 100
2, 169728, Note_on_c, 0, 68, 80
2, 169728, Note_on_c, 0, 60, 80
2, 170108, Note_off_c, 0, 68, 100
2, 170108, Note_off_c, 0, 60, 100
2, 170112, Note_on_c, 0, 65, 80
2, 170112, Note_on_c, 0, 56, 80
2, 170492, Note_off_c, 0, 65, 100
2, 170492, Note_off_c, 0, 56, 100
2, 170496, Note_on_c, 0, 65, 80
2, 170496, Note_on_c, 0, 60, 80
2, 170876, Note_off_c, 0, 65, 100
2, 170876, Note_off_c, 0, 60, 100
2, 170880, Note_on_c, 0, 64, 80
2, 170880, Note_on_c, 0, 60, 80
2, 171260, Note_off_c, 0, 64, 100
2, 171260, Note_off_c, 0, 60, 100
2, 171264, Note_on_c, 0, 65, 80
2, 171264, Note_on_c, 0, 60, 80
2, 171644, Note_off_c, 0, 65, 100
2, 171644, Note_off_c, 0, 60, 100
2, 171648, Note_on_c, 0, 67, 80
2, 171648, Note_on_c, 0, 60, 80
2, 172028, Note_off_c, 0, 67, 100
2, 172028, Note_off_c, 0, 60, 100
2, 172032, Note_on_c, 0, 60, 80
2, 172032, Note_on_c, 0, 70, 80
2, 172412, Note_off_c, 0, 70, 100
2, 172416, Note_on_c, 0, 68, 80
2, 172796, Note_off_c, 0, 60, 100
2, 172796, Note_off_c, 0, 68, 100
2, 172800, Note_on_c, 0, 72, 80
2, 172800, Note_on_c, 0, 63, 80
2, 173180, Note_off_c, 0, 72, 100
2, 173180, Note_off_c, 0, 63, 100
2, 173184, Note_on_c, 0, 73, 80
2, 173184, Note_on_c, 0, 65, 80
2, 173564, Note_off_c, 0, 73, 100
2, 173564, Note_off_c, 0, 65, 100
2, 173568, Note_on_c, 0, 70, 80
2, 173568, Note_on_c, 0, 61, 80
2, 173948, Note_off_c, 0, 70, 100
2, 173948, Note_off_c, 0, 61, 100
2, 174336, Note_on_c, 0, 72, 80
2, 174336, Note_on_c, 0, 63, 80
2, 174716, Note_off_c, 0, 72, 100
2, 174716, Note_off_c, 0, 63, 100
2, 174720, Note_on_c, 0, 68, 80
2, 174720, Note_on_c, 0, 60, 80
2, 175100, Note_off_c, 0, 68, 100
2, 175100, Note_off_c, 0, 60, 100
2, 175104, Note_on_c, 0, 68, 80
2, 175104, Note_on_c, 0, 63, 80
2, 175484, Note_off_c, 0, 68, 100
2, 175484, Note_off_c, 0, 63, 100
2, 175488, Note_on_c, 0, 67, 80
2, 175488, Note_on_c, 0, 63, 80
2, 175868, Note_off_c, 0, 67, 100
2, 175868, Note_off_c, 0, 63, 100
2, 175872, Note_on_c, 0, 68, 80
2, 175872, Note_on_c, 0, 63, 80
2, 176252, Note_off_c, 0, 68, 100
2, 176252, Note_off_c, 0, 63, 100
2, 176256, Note_on_c, 0, 70, 80
2, 176256, Note_on_c, 0, 63, 80
2, 176636, Note_off_c, 0, 70, 100
2, 176636, Note_off_c, 0, 63, 100
2, 176640, Note_on_c, 0, 73, 80
2, 176640, Note_on_c, 0, 63, 80
2, 177020, Note_off_c, 0, 73, 100
2, 177024, Note_on_c, 0, 72, 80
2, 177404, Note_off_c, 0, 63, 100
2, 177404, Note_off_c, 0, 72, 100
2, 177408, Note_on_c, 0, 75, 110
2, 177408, Note_on_c, 0, 68, 110
2, 177788, Note_off_c, 0, 75, 100
2, 177788, Note_off_c, 0, 68, 100
2, 177792, Note_on_c, 0, 75, 110
2, 177792, Note_on_c, 0, 67, 110
2, 178172, Note_off_c, 0, 75, 100
2, 178172, Note_off_c, 0, 67, 100
2, 178176, Note_on_c, 0, 75, 110
2, 178176, Note_on_c, 0, 68, 110
2, 178556, Note_off_c, 0, 75, 100
2, 178556, Note_off_c, 0, 68, 100
2, 178560, Note_on_c, 0, 75, 110
2, 178560, Note_on_c, 0, 70, 110
2, 178940, Note_off_c, 0, 75, 100
2, 178940, Note_off_c, 0, 70, 100
2, 178944, Note_on_c, 0, 73, 110
2, 178944, Note_on_c, 0, 75, 110
2, 179324, Note_off_c, 0, 73, 100
2, 179328, Note_on_c, 0, 72, 110
2, 179708, Note_off_c, 0, 75, 100
2, 179708, Note_off_c, 0, 72, 100
2, 179712, Note_on_c, 0, 77, 80
2, 180092, Note_off_c, 0, 77, 100
2, 180096, Note_on_c, 0, 68, 80
2, 180860, Note_off_c, 0, 68, 100
2, 180864, Note_on_c, 0, 67, 80
2, 180864, Note_on_c, 0, 72, 80
2, 181012, Note_off_c, 0, 72, 100
2, 181016, Note_on_c, 0, 70, 80
2, 181244, Note_off_c, 0, 67, 100
2, 181244, Note_off_c, 0, 70, 100
2, 181248, Note_on_c, 0, 68, 80
2, 181628, Note_off_c, 0, 68, 100
2, 182016, Note_on_c, 0, 79, 80
2, 182204, Note_off_c, 0, 79, 100
2, 182208, Note_on_c, 0, 77, 80
2, 182396, Note_off_c, 0, 77, 100
2, 182400, Note_on_c, 0, 68, 80
2, 183164, Note_off_c, 0, 68, 100
2, 183168, Note_on_c, 0, 67, 80
2, 183168, Note_on_c, 0, 72, 80
2, 183316, Note_off_c, 0, 72, 100
2, 183320, Note_on_c, 0, 70, 80
2, 183548, Note_off_c, 0, 67, 100
2, 183548, Note_off_c, 0, 70, 100
2, 183552, Note_on_c, 0, 68, 80
2, 183932, Note_off_c, 0, 68, 100
2, 184320, Note_on_c, 0, 72, 80
2, 184320, Note_on_c, 0, 75, 80
2, 184700, Note_off_c, 0, 72, 100
2, 184700, Note_off_c, 0, 75, 100
2, 184704, Note_on_c, 0, 76, 80
2, 184704, Note_on_c, 0, 73, 80
2, 185084, Note_off_c, 0, 76, 100
2, 185084, Note_off_c, 0, 73, 100
2, 185088, Note_on_c, 0, 73, 80
2, 185088, Note_on_c, 0, 70, 80
2, 185468, Note_off_c, 0, 73, 100
2, 185468, Note_off_c, 0, 70, 100
2, 185856, Note_on_c, 0, 75, 80
2, 185856, Note_on_c, 0, 72, 80
2, 186236, Note_off_c, 0, 75, 100
2, 186236, Note_off_c, 0, 72, 100
2, 186240, Note_on_c, 0, 72, 80
2, 186240, Note_on_c, 0, 68, 80
2, 186620, Note_off_c, 0, 72, 100
2, 186620, Note_off_c, 0, 68, 100
2, 187008, Note_on_c, 0, 78, 80
2, 187008, Note_on_c, 0, 75, 80
2, 187388, Note_off_c, 0, 78, 100
2, 187388, Note_off_c, 0, 75, 100
2, 187392, Note_on_c, 0, 75, 80
2, 187392, Note_on_c, 0, 72, 80
2, 187772, Note_off_c, 0, 75, 100
2, 187772, Note_off_c, 0, 72, 100
2, 188160, Note_on_c, 0, 77, 80
2, 188160, Note_on_c, 0, 73, 80
2, 188540, Note_off_c, 0, 77, 100
2, 188540, Note_off_c, 0, 73, 100
2, 188544, Note_on_c, 0, 73, 80
2, 188544, Note_on_c, 0, 70, 80
2, 188924, Note_off_c, 0, 73, 100
2, 188924, Note_off_c, 0, 70, 100
2, 189312, Note_on_c, 0, 70, 80
2, 189312, Note_on_c, 0, 65, 80
2, 190076, Note_off_c, 0, 70, 100
2, 190076, Note_off_c, 0, 65, 100
2, 190080, Note_on_c, 0, 73, 80
2, 190080, Note_on_c, 0, 69, 80
2, 190220, Note_off_c, 0, 73, 100
2, 190224, Note_on_c, 0, 72, 80
2, 190460, Note_off_c, 0, 69, 100
2, 190460, Note_off_c, 0, 72, 100
2, 190464, Note_on_c, 0, 70, 80
2, 190844, Note_off_c, 0, 70, 100
2, 191232, Note_on_c, 0, 78, 110
2, 191420, Note_off_c, 0, 78, 100
2, 191424, Note_on_c, 0, 77, 110
2, 191612, Note_off_c, 0, 77, 100
2, 191616, Note_on_c, 0, 70, 80
2, 191616, Note_on_c, 0, 65, 80
2, 192380, Note_off_c, 0, 70, 100
2, 192380, Note_off_c, 0, 65, 100
2, 192384, Note_on_c, 0, 73, 80
2, 192384, Note_on_c, 0, 69, 80
2, 192524, Note_off_c, 0, 73, 100
2, 192528, Note_on_c, 0, 72, 80
2, 192764, Note_off_c, 0, 69, 100
2, 192764, Note_off_c, 0, 72, 100
2, 192768, Note_on_c, 0, 70, 80
2, 193148, Note_off_c, 0, 70, 100
2, 193536, Note_on_c, 0, 73, 80
2, 193536, Note_on_c, 0, 69, 80
2, 193724, Note_off_c, 0, 73, 100
2, 193728, Note_on_c, 0, 72, 80
2, 193916, Note_off_c, 0, 69, 100
2, 193916, Note_off_c, 0, 72, 100
2, 193920, Note_on_c, 0, 70, 80
2, 194300, Note_off_c, 0, 70, 100
2, 194688, Note_on_c, 0, 73, 80
2, 194688, Note_on_c, 0, 69, 80
2, 194876, Note_off_c, 0, 73, 100
2, 194880, Note_on_c, 0, 72, 80
2, 195068, Note_off_c, 0, 69, 100
2, 195068, Note_off_c, 0, 72, 100
2, 195072, Note_on_c, 0, 70, 80
2, 195452, Note_off_c, 0, 70, 100
2, 195840, Note_on_c, 0, 73, 120
2, 196028, Note_off_c, 0, 73, 100
2, 196032, Note_on_c, 0, 72, 120
2, 196220, Note_off_c, 0, 72, 100
2, 196224, Note_on_c, 0, 70, 120
2, 196412, Note_off_c, 0, 70, 100
2, 196416, Note_on_c, 0, 72, 120
2, 196604, Note_off_c, 0, 72, 100
2, 196608, Note_on_c, 0, 73, 120
2, 196796, Note_off_c, 0, 73, 100
2, 196800, Note_on_c, 0, 72, 120
2, 196988, Note_off_c, 0, 72, 100
2, 196992, Note_on_c, 0, 70, 120
2, 197180, Note_off_c, 0, 70, 100
2, 197184, Note_on_c, 0, 72, 120
2, 197372, Note_off_c, 0, 72, 100
2, 197376, Note_on_c, 0, 70, 120
2, 197564, Note_off_c, 0, 70, 100
2, 197568, Note_on_c, 0, 68, 120
2, 197756, Note_off_c, 0, 68, 100
2, 197760, Note_on_c, 0, 67, 120
2, 197948, Note_off_c, 0, 67, 100
2, 197952, Note_on_c, 0, 68, 120
2, 198140, Note_off_c, 0, 68, 100
2, 198144, Note_on_c, 0, 67, 120
2, 198332, Note_off_c, 0, 67, 100
2, 198336, Note_on_c, 0, 65, 120
2, 198524, Note_off_c, 0, 65, 100
2, 198528, Note_on_c, 0, 64, 120
2, 198716, Note_off_c, 0, 64, 100
2, 198720, Note_on_c, 0, 65, 120
2, 198908, Note_off_c, 0, 65, 100
2, 198912, Note_on_c, 0, 67, 120
2, 199100, Note_off_c, 0, 67, 100
2, 199104, Note_on_c, 0, 65, 120
2, 199292, Note_off_c, 0, 65, 100
2, 199296, Note_on_c, 0, 68, 120
2, 199484, Note_off_c, 0, 68, 100
2, 199488, Note_on_c, 0, 59, 120
2, 199676, Note_off_c, 0, 59, 100
2, 199680, Note_on_c, 0, 60, 120
2, 200060, Note_off_c, 0, 60, 100
2, 201600, Note_on_c, 0, 76, 110
2, 201980, Note_off_c, 0, 76, 100
2, 201984, Note_on_c, 0, 77, 110
2, 202364, Note_off_c, 0, 77, 100
2, 202368, Note_on_c, 0, 80, 110
2, 202748, Note_off_c, 0, 80, 100
2, 202752, Note_on_c, 0, 84, 110
2, 202848, Note_on_c, 0, 85, 110
2, 202940, Note_off_c, 0, 84, 100
2, 202944, Note_on_c, 0, 82, 110
2, 203036, Note_off_c, 0, 85, 100
2, 203040, Note_on_c, 0, 84, 110
2, 203132, Note_off_c, 0, 82, 100
2, 203132, Note_off_c, 0, 84, 100
2, 203136, Note_on_c, 0, 85, 110
2, 203516, Note_off_c, 0, 85, 100
2, 203520, Note_on_c, 0, 82, 110
2, 203900, Note_off_c, 0, 82, 100
2, 203904, Note_on_c, 0, 82, 110
2, 204000, Note_on_c, 0, 84, 110
2, 204092, Note_off_c, 0, 82, 100
2, 204096, Note_on_c, 0, 80, 110
2, 204188, Note_off_c, 0, 84, 100
2, 204192, Note_on_c, 0, 82, 110
2, 204284, Note_off_c, 0, 80, 100
2, 204284, Note_off_c, 0, 82, 100
2, 204288, Note_on_c, 0, 84, 110
2, 204668, Note_off_c, 0, 84, 100
2, 204672, Note_on_c, 0, 80, 110
2, 205052, Note_off_c, 0, 80, 100
2, 205056, Note_on_c, 0, 80, 110
2, 205152, Note_on_c, 0, 82, 110
2, 205244, Note_off_c, 0, 80, 100
2, 205248, Note_on_c, 0, 79, 110
2, 205340, Note_off_c, 0, 82, 100
2, 205344, Note_on_c, 0, 80, 110
2, 205436, Note_off_c, 0, 79, 100
2, 205436, Note_off_c, 0, 80, 100
2, 205440, Note_on_c, 0, 82, 110
2, 205820, Note_off_c, 0, 82, 100
2, 205824, Note_on_c, 0, 79, 110
2, 206204, Note_off_c, 0, 79, 100
2, 206208, Note_on_c, 0, 79, 110
2, 206304, Note_on_c, 0, 80, 110
2, 206396, Note_off_c, 0, 79, 100
2, 206400, Note_on_c, 0, 77, 110
2, 206492, Note_off_c, 0, 80, 100
2, 206496, Note_on_c, 0, 79, 110
2, 206588, Note_off_c, 0, 77, 100
2, 206588, Note_off_c, 0, 79, 100
2, 206592, Note_on_c, 0, 80, 110
2, 206972, Note_off_c, 0, 80, 100
2, 206976, Note_on_c, 0, 77, 110
2, 207356, Note_off_c, 0, 77, 100
2, 207360, Note_on_c, 0, 77, 120
2, 207740, Note_off_c, 0, 77, 100
2, 207744, Note_on_c, 0, 77, 80
2, 208508, Note_off_c, 0, 77, 100
2, 208512, Note_on_c, 0, 76, 80
2, 208512, Note_on_c, 0, 80, 80
2, 208656, Note_off_c, 0, 80, 100
2, 208660, Note_on_c, 0, 79, 80
2, 208892, Note_off_c, 0, 76, 100
2, 208892, Note_off_c, 0, 79, 100
2, 208896, Note_on_c, 0, 77, 80
2, 209276, Note_off_c, 0, 77, 100
2, 209664, Note_on_c, 0, 75, 80
2, 209852, Note_off_c, 0, 75, 100
2, 209856, Note_on_c, 0, 73, 80
2, 210044, Note_off_c, 0, 73, 100
2, 210048, Note_on_c, 0, 65, 80
2, 210812, Note_off_c, 0, 65, 100
2, 210816, Note_on_c, 0, 68, 80
2, 210816, Note_on_c, 0, 64, 80
2, 210960, Note_off_c, 0, 68, 100
2, 210964, Note_on_c, 0, 67, 80
2, 211196, Note_off_c, 0, 64, 100
2, 211196, Note_off_c, 0, 67, 100
2, 211200, Note_on_c, 0, 65, 80
2, 211580, Note_off_c, 0, 65, 100
2, 212352, Note_on_c, 0, 60, 70
2, 212352, Note_on_c, 0, 55, 70
2, 212352, Note_on_c, 0, 52, 70
2, 213500, Note_off_c, 0, 60, 100
2, 213500, Note_off_c, 0, 55, 100
2, 213500, Note_off_c, 0, 52, 100
2, 213504, Note_on_c, 0, 53, 70
2, 214652, Note_off_c, 0, 53, 100
2, 214656, Control_c, 0, 7, 0
2, 215040, Note_on_c, 0, 53, 1
2, 215420, Note_off_c, 0, 53, 100
2, 215420, End_track
3, 0, Start_track
3, 0, Title_t, "Left"
3, 0, Control_c, 1, 0, 0
3, 0, Program_c, 1, 0
3, 0, Control_c, 1, 7, 100
3, 0, Control_c, 1, 10, 54
3, 0, Control_c, 1, 91, 127
3, 0, Key_signature, -4, "minor"
3, 1152, Note_on_c, 1, 53, 80
3, 1532, Note_off_c, 1, 53, 100
3, 2304, Note_on_c, 1, 56, 80
3, 2304, Note_on_c, 1, 53, 80
3, 2684, Note_off_c, 1, 56, 100
3, 2684, Note_off_c, 1, 53, 100
3, 2688, Note_on_c, 1, 58, 80
3, 2688, Note_on_c, 1, 55, 80
3, 3068, Note_off_c, 1, 58, 100
3, 3068, Note_off_c, 1, 55, 100
3, 3072, Note_on_c, 1, 56, 80
3, 3072, Note_on_c, 1, 53, 80
3, 3452, Note_off_c, 1, 56, 100
3, 3452, Note_off_c, 1, 53, 100
3, 3456, Note_on_c, 1, 55, 80
3, 3456, Note_on_c, 1, 52, 80
3, 3836, Note_off_c, 1, 55, 100
3, 3836, Note_off_c, 1, 52, 100
3, 3840, Note_on_c, 1, 56, 80
3, 3840, Note_on_c, 1, 53, 80
3, 4604, Note_off_c, 1, 56, 100
3, 4604, Note_off_c, 1, 53, 100
3, 5760, Note_on_c, 1, 56, 80
3, 5760, Note_on_c, 1, 44, 80
3, 6140, Note_off_c, 1, 56, 100
3, 6140, Note_off_c, 1, 44, 100
3, 6912, Note_on_c, 1, 56, 80
3, 6912, Note_on_c, 1, 60, 80
3, 7292, Note_off_c, 1, 56, 100
3, 7292, Note_off_c, 1, 60, 100
3, 7296, Note_on_c, 1, 61, 80
3, 7296, Note_on_c, 1, 58, 80
3, 7676, Note_off_c, 1, 61, 100
3, 7676, Note_off_c, 1, 58, 100
3, 7680, Note_on_c, 1, 60, 80
3, 7680, Note_on_c, 1, 56, 80
3, 8060, Note_off_c, 1, 60, 100
3, 8060, Note_off_c, 1, 56, 100
3, 8064, Note_on_c, 1, 58, 80
3, 8064, Note_on_c, 1, 55, 80
3, 8444, Note_off_c, 1, 58, 100
3, 8444, Note_off_c, 1, 55, 100
3, 8448, Note_on_c, 1, 56, 80
3, 8448, Note_on_c, 1, 60, 80
3, 9212, Note_off_c, 1, 56, 100
3, 9212, Note_off_c, 1, 60, 100
3, 9216, Note_on_c, 1, 60, 110
3, 9216, Note_on_c, 1, 63, 110
3, 9596, Note_off_c, 1, 60, 100
3, 9596, Note_off_c, 1, 63, 100
3, 9600, Note_on_c, 1, 58, 110
3, 9600, Note_on_c, 1, 61, 110
3, 9980, Note_off_c, 1, 58, 100
3, 9980, Note_off_c, 1, 61, 100
3, 9984, Note_on_c, 1, 56, 110
3, 9984, Note_on_c, 1, 60, 110
3, 10364, Note_off_c, 1, 56, 100
3, 10364, Note_off_c, 1, 60, 100
3, 10368, Note_on_c, 1, 55, 110
3, 10368, Note_on_c, 1, 58, 110
3, 10748, Note_off_c, 1, 55, 100
3, 10748, Note_off_c, 1, 58, 100
3, 10752, Note_on_c, 1, 56, 110
3, 11516, Note_off_c, 1, 56, 100
3, 11520, Note_on_c, 1, 58, 80
3, 11520, Note_on_c, 1, 49, 80
3, 11900, Note_off_c, 1, 58, 100
3, 11900, Note_off_c, 1, 49, 100
3, 11904, Note_on_c, 1, 60, 80
3, 11904, Note_on_c, 1, 51, 80
3, 12668, Note_off_c, 1, 60, 100
3, 12668, Note_off_c, 1, 51, 100
3, 12672, Note_on_c, 1, 61, 80
3, 12672, Note_on_c, 1, 51, 80
3, 13052, Note_off_c, 1, 61, 100
3, 13052, Note_off_c, 1, 51, 100
3, 13056, Note_on_c, 1, 56, 80
3, 13056, Note_on_c, 1, 60, 80
3, 13436, Note_off_c, 1, 56, 100
3, 13436, Note_off_c, 1, 60, 100
3, 14208, Note_on_c, 1, 60, 100
3, 14208, Note_on_c, 1, 51, 100
3, 14972, Note_off_c, 1, 60, 100
3, 14972, Note_off_c, 1, 51, 100
3, 14976, Note_on_c, 1, 61, 100
3, 14976, Note_on_c, 1, 51, 100
3, 15356, Note_off_c, 1, 61, 100
3, 15356, Note_off_c, 1, 51, 100
3, 15360, Note_on_c, 1, 56, 100
3, 15360, Note_on_c, 1, 60, 100
3, 15740, Note_off_c, 1, 56, 100
3, 15740, Note_off_c, 1, 60, 100
3, 17280, Note_on_c, 1, 53, 80
3, 17660, Note_off_c, 1, 53, 100
3, 18432, Note_on_c, 1, 56, 80
3, 18432, Note_on_c, 1, 53, 80
3, 18812, Note_off_c, 1, 56, 100
3, 18812, Note_off_c, 1, 53, 100
3, 18816, Note_on_c, 1, 58, 80
3, 18816, Note_on_c, 1, 55, 80
3, 19196, Note_off_c, 1, 58, 100
3, 19196, Note_off_c, 1, 55, 100
3, 19200, Note_on_c, 1, 56, 80
3, 19200, Note_on_c, 1, 53, 80
3, 19580, Note_off_c, 1, 56, 100
3, 19580, Note_off_c, 1, 53, 100
3, 19584, Note_on_c, 1, 55, 80
3, 19584, Note_on_c, 1, 52, 80
3, 19964, Note_off_c, 1, 55, 100
3, 19964, Note_off_c, 1, 52, 100
3, 19968, Note_on_c, 1, 56, 80
3, 19968, Note_on_c, 1, 53, 80
3, 20732, Note_off_c, 1, 56, 100
3, 20732, Note_off_c, 1, 53, 100
3, 21888, Note_on_c, 1, 56, 80
3, 21888, Note_on_c, 1, 44, 80
3, 22268, Note_off_c, 1, 56, 100
3, 22268, Note_off_c, 1, 44, 100
3, 23040, Note_on_c, 1, 56, 80
3, 23040, Note_on_c, 1, 60, 80
3, 23420, Note_off_c, 1, 56, 100
3, 23420, Note_off_c, 1, 60, 100
3, 23424, Note_on_c, 1, 61, 80
3, 23424, Note_on_c, 1, 58, 80
3, 23804, Note_off_c, 1, 61, 100
3, 23804, Note_off_c, 1, 58, 100
3, 23808, Note_on_c, 1, 60, 80
3, 23808, Note_on_c, 1, 56, 80
3, 24188, Note_off_c, 1, 60, 100
3, 24188, Note_off_c, 1, 56, 100
3, 24192, Note_on_c, 1, 58, 80
3, 24192, Note_on_c, 1, 55, 80
3, 24572, Note_off_c, 1, 58, 100
3, 24572, Note_off_c, 1, 55, 100
3, 24576, Note_on_c, 1, 56, 80
3, 24576, Note_on_c, 1, 60, 80
3, 25340, Note_off_c, 1, 56, 100
3, 25340, Note_off_c, 1, 60, 100
3, 25344, Note_on_c, 1, 60, 110
3, 25344, Note_on_c, 1, 63, 110
3, 25724, Note_off_c, 1, 60, 100
3, 25724, Note_off_c, 1, 63, 100
3, 25728, Note_on_c, 1, 58, 110
3, 25728, Note_on_c, 1, 61, 110
3, 26108, Note_off_c, 1, 58, 100
3, 26108, Note_off_c, 1, 61, 100
3, 26112, Note_on_c, 1, 56, 110
3, 26112, Note_on_c, 1, 60, 110
3, 26492, Note_off_c, 1, 56, 100
3, 26492, Note_off_c, 1, 60, 100
3, 26496, Note_on_c, 1, 55, 110
3, 26496, Note_on_c, 1, 58, 110
3, 26876, Note_off_c, 1, 55, 100
3, 26876, Note_off_c, 1, 58, 100
3, 26880, Note_on_c, 1, 56, 110
3, 27644, Note_off_c, 1, 56, 100
3, 27648, Note_on_c, 1, 58, 80
3, 27648, Note_on_c, 1, 49, 80
3, 28028, Note_off_c, 1, 58, 100
3, 28028, Note_off_c, 1, 49, 100
3, 28032, Note_on_c, 1, 60, 80
3, 28032, Note_on_c, 1, 51, 80
3, 28796, Note_off_c, 1, 60, 100
3, 28796, Note_off_c, 1, 51, 100
3, 28800, Note_on_c, 1, 61, 80
3, 28800, Note_on_c, 1, 51, 80
3, 29180, Note_off_c, 1, 61, 100
3, 29180, Note_off_c, 1, 51, 100
3, 29184, Note_on_c, 1, 56, 80
3, 29184, Note_on_c, 1, 60, 80
3, 29564, Note_off_c, 1, 56, 100
3, 29564, Note_off_c, 1, 60, 100
3, 30336, Note_on_c, 1, 60, 80
3, 30336, Note_on_c, 1, 51, 80
3, 31100, Note_off_c, 1, 60, 100
3, 31100, Note_off_c, 1, 51, 100
3, 31104, Note_on_c, 1, 61, 80
3, 31104, Note_on_c, 1, 51, 80
3, 31484, Note_off_c, 1, 61, 100
3, 31484, Note_off_c, 1, 51, 100
3, 31488, Note_on_c, 1, 56, 80
3, 31488, Note_on_c, 1, 60, 80
3, 31868, Note_off_c, 1, 56, 100
3, 31868, Note_off_c, 1, 60, 100
3, 33024, Note_on_c, 1, 58, 80
3, 33024, Note_on_c, 1, 55, 80
3, 33404, Note_off_c, 1, 58, 100
3, 33404, Note_off_c, 1, 55, 100
3, 33408, Note_on_c, 1, 58, 80
3, 33408, Note_on_c, 1, 61, 80
3, 33788, Note_off_c, 1, 58, 100
3, 33788, Note_off_c, 1, 61, 100
3, 34176, Note_on_c, 1, 60, 80
3, 34176, Note_on_c, 1, 56, 80
3, 34556, Note_off_c, 1, 60, 100
3, 34556, Note_off_c, 1, 56, 100
3, 34560, Note_on_c, 1, 60, 80
3, 34560, Note_on_c, 1, 63, 80
3, 34940, Note_off_c, 1, 60, 100
3, 34940, Note_off_c, 1, 63, 100
3, 35328, Note_on_c, 1, 57, 80
3, 35328, Note_on_c, 1, 60, 80
3, 35708, Note_off_c, 1, 57, 100
3, 35708, Note_off_c, 1, 60, 100
3, 35712, Note_on_c, 1, 60, 80
3, 35712, Note_on_c, 1, 63, 80
3, 36092, Note_off_c, 1, 60, 100
3, 36092, Note_off_c, 1, 63, 100
3, 36480, Note_on_c, 1, 58, 80
3, 36480, Note_on_c, 1, 61, 80
3, 36860, Note_off_c, 1, 58, 100
3, 36860, Note_off_c, 1, 61, 100
3, 36864, Note_on_c, 1, 61, 80
3, 36864, Note_on_c, 1, 65, 80
3, 37244, Note_off_c, 1, 61, 100
3, 37244, Note_off_c, 1, 65, 100
3, 37248, Note_on_c, 1, 61, 80
3, 37248, Note_on_c, 1, 53, 80
3, 38012, Note_off_c, 1, 61, 100
3, 38012, Note_off_c, 1, 53, 100
3, 38016, Note_on_c, 1, 63, 80
3, 38016, Note_on_c, 1, 53, 80
3, 38396, Note_off_c, 1, 63, 100
3, 38396, Note_off_c, 1, 53, 100
3, 38400, Note_on_c, 1, 58, 80
3, 38400, Note_on_c, 1, 61, 80
3, 38780, Note_off_c, 1, 58, 100
3, 38780, Note_off_c, 1, 61, 100
3, 39552, Note_on_c, 1, 61, 80
3, 39552, Note_on_c, 1, 53, 80
3, 40316, Note_off_c, 1, 61, 100
3, 40316, Note_off_c, 1, 53, 100
3, 40320, Note_on_c, 1, 63, 80
3, 40320, Note_on_c, 1, 53, 80
3, 40700, Note_off_c, 1, 63, 100
3, 40700, Note_off_c, 1, 53, 100
3, 40704, Note_on_c, 1, 58, 80
3, 40704, Note_on_c, 1, 61, 80
3, 41084, Note_off_c, 1, 58, 100
3, 41084, Note_off_c, 1, 61, 100
3, 41472, Note_on_c, 1, 63, 80
3, 41472, Note_on_c, 1, 53, 80
3, 41852, Note_off_c, 1, 63, 100
3, 41852, Note_off_c, 1, 53, 100
3, 41856, Note_on_c, 1, 58, 80
3, 41856, Note_on_c, 1, 61, 80
3, 42236, Note_off_c, 1, 58, 100
3, 42236, Note_off_c, 1, 61, 100
3, 42624, Note_on_c, 1, 63, 80
3, 42624, Note_on_c, 1, 53, 80
3, 43004, Note_off_c, 1, 63, 100
3, 43004, Note_off_c, 1, 53, 100
3, 43008, Note_on_c, 1, 58, 80
3, 43008, Note_on_c, 1, 61, 80
3, 43388, Note_off_c, 1, 58, 100
3, 43388, Note_off_c, 1, 61, 100
3, 43776, Note_on_c, 1, 61, 120
3, 43964, Note_off_c, 1, 61, 100
3, 43968, Note_on_c, 1, 60, 120
3, 44156, Note_off_c, 1, 60, 100
3, 44160, Note_on_c, 1, 58, 120
3, 44348, Note_off_c, 1, 58, 100
3, 44352, Note_on_c, 1, 60, 120
3, 44540, Note_off_c, 1, 60, 100
3, 44544, Note_on_c, 1, 61, 120
3, 44732, Note_off_c, 1, 61, 100
3, 44736, Note_on_c, 1, 60, 120
3, 44924, Note_off_c, 1, 60, 100
3, 44928, Note_on_c, 1, 58, 120
3, 45116, Note_off_c, 1, 58, 100
3, 45120, Note_on_c, 1, 60, 120
3, 45308, Note_off_c, 1, 60, 100
3, 45312, Note_on_c, 1, 58, 120
3, 45500, Note_off_c, 1, 58, 100
3, 45504, Note_on_c, 1, 56, 120
3, 45692, Note_off_c, 1, 56, 100
3, 45696, Note_on_c, 1, 55, 120
3, 45884, Note_off_c, 1, 55, 100
3, 45888, Note_on_c, 1, 56, 120
3, 46076, Note_off_c, 1, 56, 100
3, 46080, Note_on_c, 1, 55, 120
3, 46268, Note_off_c, 1, 55, 100
3, 46272, Note_on_c, 1, 53, 120
3, 46460, Note_off_c, 1, 53, 100
3, 46464, Note_on_c, 1, 52, 120
3, 46652, Note_off_c, 1, 52, 100
3, 46656, Note_on_c, 1, 53, 120
3, 46844, Note_off_c, 1, 53, 100
3, 46848, Note_on_c, 1, 55, 120
3, 47036, Note_off_c, 1, 55, 100
3, 47040, Note_on_c, 1, 53, 120
3, 47228, Note_off_c, 1, 53, 100
3, 47232, Note_on_c, 1, 56, 120
3, 47420, Note_off_c, 1, 56, 100
3, 47424, Note_on_c, 1, 47, 120
3, 47612, Note_off_c, 1, 47, 100
3, 47616, Note_on_c, 1, 48, 120
3, 47996, Note_off_c, 1, 48, 100
3, 48000, Note_on_c, 1, 60, 110
3, 48380, Note_off_c, 1, 60, 100
3, 48384, Note_on_c, 1, 68, 110
3, 48384, Note_on_c, 1, 60, 110
3, 48764, Note_off_c, 1, 68, 100
3, 48764, Note_off_c, 1, 60, 100
3, 48768, Note_on_c, 1, 70, 110
3, 48768, Note_on_c, 1, 61, 110
3, 49148, Note_off_c, 1, 70, 100
3, 49148, Note_off_c, 1, 61, 100
3, 49152, Note_on_c, 1, 67, 110
3, 49152, Note_on_c, 1, 58, 110
3, 49532, Note_off_c, 1, 67, 100
3, 49532, Note_off_c, 1, 58, 100
3, 49536, Note_on_c, 1, 67, 110
3, 49536, Note_on_c, 1, 58, 110
3, 49916, Note_off_c, 1, 67, 100
3, 49916, Note_off_c, 1, 58, 100
3, 49920, Note_on_c, 1, 68, 110
3, 49920, Note_on_c, 1, 60, 110
3, 50300, Note_off_c, 1, 68, 100
3, 50300, Note_off_c, 1, 60, 100
3, 50304, Note_on_c, 1, 65, 110
3, 50304, Note_on_c, 1, 56, 110
3, 50684, Note_off_c, 1, 65, 100
3, 50684, Note_off_c, 1, 56, 100
3, 50688, Note_on_c, 1, 56, 110
3, 50688, Note_on_c, 1, 53, 110
3, 51068, Note_off_c, 1, 56, 100
3, 51068, Note_off_c, 1, 53, 100
3, 51072, Note_on_c, 1, 55, 110
3, 51072, Note_on_c, 1, 52, 110
3, 51452, Note_off_c, 1, 55, 100
3, 51452, Note_off_c, 1, 52, 100
3, 51456, Note_on_c, 1, 55, 110
3, 51456, Note_on_c, 1, 58, 110
3, 51836, Note_off_c, 1, 55, 100
3, 51836, Note_off_c, 1, 58, 100
3, 51840, Note_on_c, 1, 55, 110
3, 51840, Note_on_c, 1, 58, 110
3, 52220, Note_off_c, 1, 55, 100
3, 52220, Note_off_c, 1, 58, 100
3, 52224, Note_on_c, 1, 56, 110
3, 52224, Note_on_c, 1, 53, 110
3, 52604, Note_off_c, 1, 56, 100
3, 52604, Note_off_c, 1, 53, 100
3, 52608, Note_on_c, 1, 56, 110
3, 52608, Note_on_c, 1, 60, 110
3, 52988, Note_off_c, 1, 56, 100
3, 52988, Note_off_c, 1, 60, 100
3, 52992, Note_on_c, 1, 56, 110
3, 52992, Note_on_c, 1, 60, 110
3, 52992, Note_on_c, 1, 65, 110
3, 53372, Note_off_c, 1, 56, 100
3, 53372, Note_off_c, 1, 60, 100
3, 53372, Note_off_c, 1, 65, 100
3, 53376, Note_on_c, 1, 64, 110
3, 53376, Note_on_c, 1, 58, 110
3, 53376, Note_on_c, 1, 55, 110
3, 53756, Note_off_c, 1, 64, 100
3, 53756, Note_off_c, 1, 58, 100
3, 53756, Note_off_c, 1, 55, 100
3, 53760, Note_on_c, 1, 64, 110
3, 53760, Note_on_c, 1, 61, 110
3, 53760, Note_on_c, 1, 58, 110
3, 54140, Note_off_c, 1, 64, 100
3, 54140, Note_off_c, 1, 61, 100
3, 54140, Note_off_c, 1, 58, 100
3, 54144, Note_on_c, 1, 64, 110
3, 54144, Note_on_c, 1, 61, 110
3, 54144, Note_on_c, 1, 58, 110
3, 54524, Note_off_c, 1, 64, 100
3, 54524, Note_off_c, 1, 61, 100
3, 54524, Note_off_c, 1, 58, 100
3, 54528, Note_on_c, 1, 65, 110
3, 54528, Note_on_c, 1, 62, 110
3, 54528, Note_on_c, 1, 59, 110
3, 54908, Note_off_c, 1, 65, 100
3, 54912, Note_on_c, 1, 68, 110
3, 55292, Note_off_c, 1, 62, 100
3, 55292, Note_off_c, 1, 59, 100
3, 55292, Note_off_c, 1, 68, 100
3, 55296, Note_on_c, 1, 68, 120
3, 55296, Note_on_c, 1, 62, 120
3, 55296, Note_on_c, 1, 59, 120
3, 55676, Note_off_c, 1, 68, 100
3, 55676, Note_off_c, 1, 62, 100
3, 55676, Note_off_c, 1, 59, 100
3, 55680, Note_on_c, 1, 68, 80
3, 55680, Note_on_c, 1, 60, 80
3, 56444, Note_off_c, 1, 68, 100
3, 56444, Note_off_c, 1, 60, 100
3, 56448, Note_on_c, 1, 60, 80
3, 56448, Note_on_c, 1, 70, 80
3, 56828, Note_off_c, 1, 60, 100
3, 56828, Note_off_c, 1, 70, 100
3, 56832, Note_on_c, 1, 65, 80
3, 56832, Note_on_c, 1, 68, 80
3, 57212, Note_off_c, 1, 65, 100
3, 57212, Note_off_c, 1, 68, 100
3, 57984, Note_on_c, 1, 56, 80
3, 57984, Note_on_c, 1, 48, 80
3, 58748, Note_off_c, 1, 56, 100
3, 58748, Note_off_c, 1, 48, 100
3, 58752, Note_on_c, 1, 58, 80
3, 58752, Note_on_c, 1, 48, 80
3, 59132, Note_off_c, 1, 58, 100
3, 59132, Note_off_c, 1, 48, 100
3, 59136, Note_on_c, 1, 56, 80
3, 59136, Note_on_c, 1, 53, 80
3, 59516, Note_off_c, 1, 56, 100
3, 59516, Note_off_c, 1, 53, 100
3, 60288, Note_on_c, 1, 48, 80
3, 60288, Note_on_c, 1, 36, 80
3, 61436, Note_off_c, 1, 48, 100
3, 61436, Note_off_c, 1, 36, 100
3, 61440, Note_on_c, 1, 41, 80
3, 61820, Note_off_c, 1, 41, 100
3, 62976, Note_on_c, 1, 58, 80
3, 62976, Note_on_c, 1, 55, 80
3, 63356, Note_off_c, 1, 58, 100
3, 63356, Note_off_c, 1, 55, 100
3, 63360, Note_on_c, 1, 58, 80
3, 63360, Note_on_c, 1, 61, 80
3, 63740, Note_off_c, 1, 58, 100
3, 63740, Note_off_c, 1, 61, 100
3, 64128, Note_on_c, 1, 60, 80
3, 64128, Note_on_c, 1, 56, 80
3, 64508, Note_off_c, 1, 60, 100
3, 64508, Note_off_c, 1, 56, 100
3, 64512, Note_on_c, 1, 60, 80
3, 64512, Note_on_c, 1, 63, 80
3, 64892, Note_off_c, 1, 60, 100
3, 64892, Note_off_c, 1, 63, 100
3, 65280, Note_on_c, 1, 57, 80
3, 65280, Note_on_c, 1, 60, 80
3, 65660, Note_off_c, 1, 57, 100
3, 65660, Note_off_c, 1, 60, 100
3, 65664, Note_on_c, 1, 60, 80
3, 65664, Note_on_c, 1, 63, 80
3, 66044, Note_off_c, 1, 60, 100
3, 66044, Note_off_c, 1, 63, 100
3, 66432, Note_on_c, 1, 58, 80
3, 66432, Note_on_c, 1, 61, 80
3, 66812, Note_off_c, 1, 58, 100
3, 66812, Note_off_c, 1, 61, 100
3, 66816, Note_on_c, 1, 61, 80
3, 66816, Note_on_c, 1, 65, 80
3, 67196, Note_off_c, 1, 61, 100
3, 67196, Note_off_c, 1, 65, 100
3, 67200, Note_on_c, 1, 61, 80
3, 67200, Note_on_c, 1, 53, 80
3, 67964, Note_off_c, 1, 61, 100
3, 67964, Note_off_c, 1, 53, 100
3, 67968, Note_on_c, 1, 63, 80
3, 67968, Note_on_c, 1, 53, 80
3, 68348, Note_off_c, 1, 63, 100
3, 68348, Note_off_c, 1, 53, 100
3, 68352, Note_on_c, 1, 58, 80
3, 68352, Note_on_c, 1, 61, 80
3, 68732, Note_off_c, 1, 58, 100
3, 68732, Note_off_c, 1, 61, 100
3, 69504, Note_on_c, 1, 61, 80
3, 69504, Note_on_c, 1, 53, 80
3, 70268, Note_off_c, 1, 61, 100
3, 70268, Note_off_c, 1, 53, 100
3, 70272, Note_on_c, 1, 63, 80
3, 70272, Note_on_c, 1, 53, 80
3, 70652, Note_off_c, 1, 63, 100
3, 70652, Note_off_c, 1, 53, 100
3, 70656, Note_on_c, 1, 58, 80
3, 70656, Note_on_c, 1, 61, 80
3, 71036, Note_off_c, 1, 58, 100
3, 71036, Note_off_c, 1, 61, 100
3, 71424, Note_on_c, 1, 63, 80
3, 71424, Note_on_c, 1, 53, 80
3, 71804, Note_off_c, 1, 63, 100
3, 71804, Note_off_c, 1, 53, 100
3, 71808, Note_on_c, 1, 58, 80
3, 71808, Note_on_c, 1, 61, 80
3, 72188, Note_off_c, 1, 58, 100
3, 72188, Note_off_c, 1, 61, 100
3, 72576, Note_on_c, 1, 63, 80
3, 72576, Note_on_c, 1, 53, 80
3, 72956, Note_off_c, 1, 63, 100
3, 72956, Note_off_c, 1, 53, 100
3, 72960, Note_on_c, 1, 58, 80
3, 72960, Note_on_c, 1, 61, 80
3, 73340, Note_off_c, 1, 58, 100
3, 73340, Note_off_c, 1, 61, 100
3, 73728, Note_on_c, 1, 61, 120
3, 73916, Note_off_c, 1, 61, 100
3, 73920, Note_on_c, 1, 60, 120
3, 74108, Note_off_c, 1, 60, 100
3, 74112, Note_on_c, 1, 58, 120
3, 74300, Note_off_c, 1, 58, 100
3, 74304, Note_on_c, 1, 60, 120
3, 74492, Note_off_c, 1, 60, 100
3, 74496, Note_on_c, 1, 61, 120
3, 74684, Note_off_c, 1, 61, 100
3, 74688, Note_on_c, 1, 60, 120
3, 74876, Note_off_c, 1, 60, 100
3, 74880, Note_on_c, 1, 58, 120
3, 75068, Note_off_c, 1, 58, 100
3, 75072, Note_on_c, 1, 60, 120
3, 75260, Note_off_c, 1, 60, 100
3, 75264, Note_on_c, 1, 58, 120
3, 75452, Note_off_c, 1, 58, 100
3, 75456, Note_on_c, 1, 56, 120
3, 75644, Note_off_c, 1, 56, 100
3, 75648, Note_on_c, 1, 55, 120
3, 75836, Note_off_c, 1, 55, 100
3, 75840, Note_on_c, 1, 56, 120
3, 76028, Note_off_c, 1, 56, 100
3, 76032, Note_on_c, 1, 55, 120
3, 76220, Note_off_c, 1, 55, 100
3, 76224, Note_on_c, 1, 53, 120
3, 76412, Note_off_c, 1, 53, 100
3, 76416, Note_on_c, 1, 52, 120
3, 76604, Note_off_c, 1, 52, 100
3, 76608, Note_on_c, 1, 53, 120
3, 76796, Note_off_c, 1, 53, 100
3, 76800, Note_on_c, 1, 55, 120
3, 76988, Note_off_c, 1, 55, 100
3, 76992, Note_on_c, 1, 53, 120
3, 77180, Note_off_c, 1, 53, 100
3, 77184, Note_on_c, 1, 56, 120
3, 77372, Note_off_c, 1, 56, 100
3, 77376, Note_on_c, 1, 47, 120
3, 77564, Note_off_c, 1, 47, 100
3, 77568, Note_on_c, 1, 48, 120
3, 77948, Note_off_c, 1, 48, 100
3, 77952, Note_on_c, 1, 60, 110
3, 78332, Note_off_c, 1, 60, 100
3, 78336, Note_on_c, 1, 68, 110
3, 78336, Note_on_c, 1, 60, 110
3, 78716, Note_off_c, 1, 68, 100
3, 78716, Note_off_c, 1, 60, 100
3, 78720, Note_on_c, 1, 70, 110
3, 78720, Note_on_c, 1, 61, 110
3, 79100, Note_off_c, 1, 70, 100
3, 79100, Note_off_c, 1, 61, 100
3, 79104, Note_on_c, 1, 67, 110
3, 79104, Note_on_c, 1, 58, 110
3, 79484, Note_off_c, 1, 67, 100
3, 79484, Note_off_c, 1, 58, 100
3, 79488, Note_on_c, 1, 67, 110
3, 79488, Note_on_c, 1, 58, 110
3, 79868, Note_off_c, 1, 67, 100
3, 79868, Note_off_c, 1, 58, 100
3, 79872, Note_on_c, 1, 68, 110
3, 79872, Note_on_c, 1, 60, 110
3, 80252, Note_off_c, 1, 68, 100
3, 80252, Note_off_c, 1, 60, 100
3, 80256, Note_on_c, 1, 65, 110
3, 80256, Note_on_c, 1, 56, 110
3, 80636, Note_off_c, 1, 65, 100
3, 80636, Note_off_c, 1, 56, 100
3, 80640, Note_on_c, 1, 56, 110
3, 80640, Note_on_c, 1, 53, 110
3, 81020, Note_off_c, 1, 56, 100
3, 81020, Note_off_c, 1, 53, 100
3, 81024, Note_on_c, 1, 55, 110
3, 81024, Note_on_c, 1, 52, 110
3, 81404, Note_off_c, 1, 55, 100
3, 81404, Note_off_c, 1, 52, 100
3, 81408, Note_on_c, 1, 55, 110
3, 81408, Note_on_c, 1, 58, 110
3, 81788, Note_off_c, 1, 55, 100
3, 81788, Note_off_c, 1, 58, 100
3, 81792, Note_on_c, 1, 55, 110
3, 81792, Note_on_c, 1, 58, 110
3, 82172, Note_off_c, 1, 55, 100
3, 82172, Note_off_c, 1, 58, 100
3, 82176, Note_on_c, 1, 56, 110
3, 82176, Note_on_c, 1, 53, 110
3, 82556, Note_off_c, 1, 56, 100
3, 82556, Note_off_c, 1, 53, 100
3, 82560, Note_on_c, 1, 56, 110
3, 82560, Note_on_c, 1, 60, 110
3, 82940, Note_off_c, 1, 56, 100
3, 82940, Note_off_c, 1, 60, 100
3, 82944, Note_on_c, 1, 56, 110
3, 82944, Note_on_c, 1, 60, 110
3, 82944, Note_on_c, 1, 65, 110
3, 83324, Note_off_c, 1, 56, 100
3, 83324, Note_off_c, 1, 60, 100
3, 83324, Note_off_c, 1, 65, 100
3, 83328, Note_on_c, 1, 64, 110
3, 83328, Note_on_c, 1, 58, 110
3, 83328, Note_on_c, 1, 55, 110
3, 83708, Note_off_c, 1, 64, 100
3, 83708, Note_off_c, 1, 58, 100
3, 83708, Note_off_c, 1, 55, 100
3, 83712, Note_on_c, 1, 64, 110
3, 83712, Note_on_c, 1, 61, 110
3, 83712, Note_on_c, 1, 58, 110
3, 84092, Note_off_c, 1, 64, 100
3, 84092, Note_off_c, 1, 61, 100
3, 84092, Note_off_c, 1, 58, 100
3, 84096, Note_on_c, 1, 64, 110
3, 84096, Note_on_c, 1, 61, 110
3, 84096, Note_on_c, 1, 58, 110
3, 84476, Note_off_c, 1, 64, 100
3, 84476, Note_off_c, 1, 61, 100
3, 84476, Note_off_c, 1, 58, 100
3, 84480, Note_on_c, 1, 65, 110
3, 84480, Note_on_c, 1, 62, 110
3, 84480, Note_on_c, 1, 59, 110
3, 84860, Note_off_c, 1, 65, 100
3, 84864, Note_on_c, 1, 68, 110
3, 85244, Note_off_c, 1, 62, 100
3, 85244, Note_off_c, 1, 59, 100
3, 85244, Note_off_c, 1, 68, 100
3, 85248, Note_on_c, 1, 68, 120
3, 85248, Note_on_c, 1, 62, 120
3, 85248, Note_on_c, 1, 59, 120
3, 85628, Note_off_c, 1, 68, 100
3, 85628, Note_off_c, 1, 62, 100
3, 85628, Note_off_c, 1, 59, 100
3, 85632, Note_on_c, 1, 68, 80
3, 85632, Note_on_c, 1, 60, 80
3, 86396, Note_off_c, 1, 68, 100
3, 86396, Note_off_c, 1, 60, 100
3, 86400, Note_on_c, 1, 60, 80
3, 86400, Note_on_c, 1, 70, 80
3, 86780, Note_off_c, 1, 60, 100
3, 86780, Note_off_c, 1, 70, 100
3, 86784, Note_on_c, 1, 65, 80
3, 86784, Note_on_c, 1, 68, 80
3, 87164, Note_off_c, 1, 65, 100
3, 87164, Note_off_c, 1, 68, 100
3, 87936, Note_on_c, 1, 56, 80
3, 87936, Note_on_c, 1, 48, 80
3, 88700, Note_off_c, 1, 56, 100
3, 88700, Note_off_c, 1, 48, 100
3, 88704, Note_on_c, 1, 58, 80
3, 88704, Note_on_c, 1, 48, 80
3, 89084, Note_off_c, 1, 58, 100
3, 89084, Note_off_c, 1, 48, 100
3, 89088, Note_on_c, 1, 56, 80
3, 89088, Note_on_c, 1, 53, 80
3, 89468, Note_off_c, 1, 56, 100
3, 89468, Note_off_c, 1, 53, 100
3, 90240, Note_on_c, 1, 48, 80
3, 90240, Note_on_c, 1, 36, 80
3, 91388, Note_off_c, 1, 48, 100
3, 91388, Note_off_c, 1, 36, 100
3, 91392, Note_on_c, 1, 41, 80
3, 91772, Note_off_c, 1, 41, 100
3, 92544, Key_signature, -1, "major"
3, 92544, Note_on_c, 1, 53, 80
3, 92924, Note_off_c, 1, 53, 100
3, 92928, Note_on_c, 1, 57, 80
3, 93308, Note_off_c, 1, 57, 100
3, 93312, Note_on_c, 1, 60, 80
3, 93692, Note_off_c, 1, 60, 100
3, 93696, Note_on_c, 1, 62, 80
3, 94076, Note_off_c, 1, 62, 100
3, 94080, Note_on_c, 1, 55, 80
3, 94460, Note_off_c, 1, 55, 100
3, 94464, Note_on_c, 1, 53, 80
3, 94844, Note_off_c, 1, 53, 100
3, 94848, Note_on_c, 1, 52, 80
3, 95228, Note_off_c, 1, 52, 100
3, 95232, Note_on_c, 1, 55, 80
3, 95612, Note_off_c, 1, 55, 100
3, 95616, Note_on_c, 1, 60, 80
3, 95996, Note_off_c, 1, 60, 100
3, 96000, Note_on_c, 1, 53, 80
3, 96380, Note_off_c, 1, 53, 100
3, 96384, Note_on_c, 1, 57, 80
3, 96764, Note_off_c, 1, 57, 100
3, 96768, Note_on_c, 1, 60, 80
3, 97148, Note_off_c, 1, 60, 100
3, 97152, Note_on_c, 1, 45, 80
3, 97340, Note_off_c, 1, 45, 100
3, 97344, Note_on_c, 1, 44, 80
3, 97532, Note_off_c, 1, 44, 100
3, 97536, Note_on_c, 1, 45, 80
3, 97724, Note_off_c, 1, 45, 100
3, 97728, Note_on_c, 1, 41, 80
3, 97916, Note_off_c, 1, 41, 100
3, 97920, Note_on_c, 1, 43, 80
3, 98108, Note_off_c, 1, 43, 100
3, 98112, Note_on_c, 1, 45, 80
3, 98300, Note_off_c, 1, 45, 100
3, 98304, Note_on_c, 1, 46, 80
3, 98492, Note_off_c, 1, 46, 100
3, 98496, Note_on_c, 1, 45, 80
3, 98684, Note_off_c, 1, 45, 100
3, 98688, Note_on_c, 1, 46, 80
3, 98876, Note_off_c, 1, 46, 100
3, 98880, Note_on_c, 1, 43, 80
3, 99068, Note_off_c, 1, 43, 100
3, 99072, Note_on_c, 1, 45, 80
3, 99260, Note_off_c, 1, 45, 100
3, 99264, Note_on_c, 1, 47, 80
3, 99452, Note_off_c, 1, 47, 100
3, 99456, Note_on_c, 1, 48, 80
3, 99644, Note_off_c, 1, 48, 100
3, 99648, Note_on_c, 1, 47, 80
3, 99836, Note_off_c, 1, 47, 100
3, 99840, Note_on_c, 1, 48, 80
3, 100028, Note_off_c, 1, 48, 100
3, 100032, Note_on_c, 1, 45, 80
3, 100220, Note_off_c, 1, 45, 100
3, 100224, Note_on_c, 1, 47, 80
3, 100412, Note_off_c, 1, 47, 100
3, 100416, Note_on_c, 1, 49, 80
3, 100604, Note_off_c, 1, 49, 100
3, 100608, Note_on_c, 1, 50, 80
3, 100796, Note_off_c, 1, 50, 100
3, 100800, Note_on_c, 1, 45, 80
3, 100988, Note_off_c, 1, 45, 100
3, 100992, Note_on_c, 1, 47, 80
3, 101180, Note_off_c, 1, 47, 100
3, 101184, Note_on_c, 1, 43, 80
3, 101372, Note_off_c, 1, 43, 100
3, 101376, Note_on_c, 1, 48, 80
3, 101564, Note_off_c, 1, 48, 100
3, 101568, Note_on_c, 1, 42, 80
3, 101756, Note_off_c, 1, 42, 100
3, 101760, Note_on_c, 1, 43, 80
3, 102524, Note_off_c, 1, 43, 100
3, 102528, Note_on_c, 1, 31, 80
3, 102908, Note_off_c, 1, 31, 100
3, 102912, Note_on_c, 1, 36, 80
3, 103292, Note_off_c, 1, 36, 100
3, 103296, Note_on_c, 1, 48, 80
3, 103676, Note_off_c, 1, 48, 100
3, 104064, Note_on_c, 1, 53, 80
3, 104444, Note_off_c, 1, 53, 100
3, 104448, Note_on_c, 1, 57, 80
3, 104828, Note_off_c, 1, 57, 100
3, 104832, Note_on_c, 1, 60, 80
3, 105212, Note_off_c, 1, 60, 100
3, 105216, Note_on_c, 1, 62, 80
3, 105596, Note_off_c, 1, 62, 100
3, 105600, Note_on_c, 1, 55, 80
3, 105980, Note_off_c, 1, 55, 100
3, 105984, Note_on_c, 1, 53, 80
3, 106364, Note_off_c, 1, 53, 100
3, 106368, Note_on_c, 1, 52, 80
3, 106748, Note_off_c, 1, 52, 100
3, 106752, Note_on_c, 1, 55, 80
3, 107132, Note_off_c, 1, 55, 100
3, 107136, Note_on_c, 1, 60, 80
3, 107516, Note_off_c, 1, 60, 100
3, 107520, Note_on_c, 1, 53, 80
3, 107900, Note_off_c, 1, 53, 100
3, 107904, Note_on_c, 1, 57, 80
3, 108284, Note_off_c, 1, 57, 100
3, 108288, Note_on_c, 1, 60, 80
3, 108668, Note_off_c, 1, 60, 100
3, 108672, Note_on_c, 1, 45, 80
3, 108860, Note_off_c, 1, 45, 100
3, 108864, Note_on_c, 1, 44, 80
3, 109052, Note_off_c, 1, 44, 100
3, 109056, Note_on_c, 1, 45, 80
3, 109244, Note_off_c, 1, 45, 100
3, 109248, Note_on_c, 1, 41, 80
3, 109436, Note_off_c, 1, 41, 100
3, 109440, Note_on_c, 1, 43, 80
3, 109628, Note_off_c, 1, 43, 100
3, 109632, Note_on_c, 1, 45, 80
3, 109820, Note_off_c, 1, 45, 100
3, 109824, Note_on_c, 1, 46, 80
3, 110012, Note_off_c, 1, 46, 100
3, 110016, Note_on_c, 1, 45, 80
3, 110204, Note_off_c, 1, 45, 100
3, 110208, Note_on_c, 1, 46, 80
3, 110396, Note_off_c, 1, 46, 100
3, 110400, Note_on_c, 1, 43, 80
3, 110588, Note_off_c, 1, 43, 100
3, 110592, Note_on_c, 1, 45, 80
3, 110780, Note_off_c, 1, 45, 100
3, 110784, Note_on_c, 1, 47, 80
3, 110972, Note_off_c, 1, 47, 100
3, 110976, Note_on_c, 1, 48, 80
3, 111164, Note_off_c, 1, 48, 100
3, 111168, Note_on_c, 1, 47, 80
3, 111356, Note_off_c, 1, 47, 100
3, 111360, Note_on_c, 1, 48, 80
3, 111548, Note_off_c, 1, 48, 100
3, 111552, Note_on_c, 1, 45, 80
3, 111740, Note_off_c, 1, 45, 100
3, 111744, Note_on_c, 1, 47, 80
3, 111932, Note_off_c, 1, 47, 100
3, 111936, Note_on_c, 1, 49, 80
3, 112124, Note_off_c, 1, 49, 100
3, 112128, Note_on_c, 1, 50, 80
3, 112316, Note_off_c, 1, 50, 100
3, 112320, Note_on_c, 1, 45, 80
3, 112508, Note_off_c, 1, 45, 100
3, 112512, Note_on_c, 1, 47, 80
3, 112700, Note_off_c, 1, 47, 100
3, 112704, Note_on_c, 1, 43, 80
3, 112892, Note_off_c, 1, 43, 100
3, 112896, Note_on_c, 1, 48, 80
3, 113084, Note_off_c, 1, 48, 100
3, 113088, Note_on_c, 1, 42, 80
3, 113276, Note_off_c, 1, 42, 100
3, 113280, Note_on_c, 1, 43, 80
3, 114044, Note_off_c, 1, 43, 100
3, 114048, Note_on_c, 1, 31, 80
3, 114428, Note_off_c, 1, 31, 100
3, 114432, Note_on_c, 1, 36, 80
3, 114812, Note_off_c, 1, 36, 100
3, 114816, Note_on_c, 1, 48, 80
3, 115196, Note_off_c, 1, 48, 100
3, 115584, Note_on_c, 1, 48, 80
3, 115584, Note_on_c, 1, 60, 80
3, 116732, Note_off_c, 1, 60, 100
3, 116736, Note_on_c, 1, 59, 80
3, 117884, Note_off_c, 1, 59, 100
3, 117888, Note_on_c, 1, 58, 80
3, 119036, Note_off_c, 1, 58, 100
3, 119040, Note_on_c, 1, 57, 80
3, 119420, Note_off_c, 1, 48, 100
3, 119420, Note_off_c, 1, 57, 100
3, 120192, Note_on_c, 1, 64, 80
3, 120380, Note_off_c, 1, 64, 100
3, 120384, Note_on_c, 1, 62, 80
3, 120572, Note_off_c, 1, 62, 100
3, 120576, Note_on_c, 1, 64, 80
3, 120764, Note_off_c, 1, 64, 100
3, 120768, Note_on_c, 1, 60, 80
3, 120956, Note_off_c, 1, 60, 100
3, 120960, Note_on_c, 1, 62, 80
3, 121148, Note_off_c, 1, 62, 100
3, 121152, Note_on_c, 1, 64, 80
3, 121340, Note_off_c, 1, 64, 100
3, 121344, Note_on_c, 1, 65, 80
3, 121532, Note_off_c, 1, 65, 100
3, 121536, Note_on_c, 1, 64, 80
3, 121724, Note_off_c, 1, 64, 100
3, 121728, Note_on_c, 1, 65, 80
3, 121916, Note_off_c, 1, 65, 100
3, 121920, Note_on_c, 1, 62, 80
3, 122108, Note_off_c, 1, 62, 100
3, 122112, Note_on_c, 1, 64, 80
3, 122300, Note_off_c, 1, 64, 100
3, 122304, Note_on_c, 1, 65, 80
3, 122492, Note_off_c, 1, 65, 100
3, 122496, Note_on_c, 1, 67, 80
3, 122684, Note_off_c, 1, 67, 100
3, 122688, Note_on_c, 1, 65, 80
3, 122876, Note_off_c, 1, 65, 100
3, 122880, Note_on_c, 1, 67, 80
3, 123068, Note_off_c, 1, 67, 100
3, 123072, Note_on_c, 1, 64, 80
3, 123260, Note_off_c, 1, 64, 100
3, 123264, Note_on_c, 1, 65, 80
3, 123452, Note_off_c, 1, 65, 100
3, 123456, Note_on_c, 1, 67, 80
3, 123644, Note_off_c, 1, 67, 100
3, 123648, Note_on_c, 1, 69, 80
3, 123836, Note_off_c, 1, 69, 100
3, 123840, Note_on_c, 1, 67, 80
3, 124028, Note_off_c, 1, 67, 100
3, 124032, Note_on_c, 1, 69, 80
3, 124220, Note_off_c, 1, 69, 100
3, 124224, Note_on_c, 1, 65, 80
3, 124412, Note_off_c, 1, 65, 100
3, 124416, Note_on_c, 1, 67, 80
3, 124604, Note_off_c, 1, 67, 100
3, 124608, Note_on_c, 1, 69, 80
3, 124796, Note_off_c, 1, 69, 100
3, 124800, Note_on_c, 1, 70, 80
3, 124988, Note_off_c, 1, 70, 100
3, 124992, Note_on_c, 1, 69, 82
3, 125180, Note_off_c, 1, 69, 100
3, 125184, Note_on_c, 1, 70, 85
3, 125372, Note_off_c, 1, 70, 100
3, 125376, Note_on_c, 1, 67, 88
3, 125564, Note_off_c, 1, 67, 100
3, 125568, Note_on_c, 1, 69, 90
3, 125756, Note_off_c, 1, 69, 100
3, 125760, Note_on_c, 1, 70, 93
3, 125948, Note_off_c, 1, 70, 100
3, 125952, Note_on_c, 1, 72, 96
3, 126140, Note_off_c, 1, 72, 100
3, 126144, Note_on_c, 1, 70, 99
3, 126332, Note_off_c, 1, 70, 100
3, 126336, Note_on_c, 1, 72, 101
3, 126524, Note_off_c, 1, 72, 100
3, 126528, Note_on_c, 1, 69, 104
3, 126716, Note_off_c, 1, 69, 100
3, 126720, Note_on_c, 1, 70, 107
3, 126908, Note_off_c, 1, 70, 100
3, 126912, Note_on_c, 1, 72, 109
3, 127100, Note_off_c, 1, 72, 100
3, 127104, Note_on_c, 1, 74, 110
3, 127292, Note_off_c, 1, 74, 100
3, 127296, Note_on_c, 1, 72, 110
3, 127484, Note_off_c, 1, 72, 100
3, 127488, Note_on_c, 1, 70, 110
3, 127676, Note_off_c, 1, 70, 100
3, 127680, Note_on_c, 1, 72, 110
3, 127868, Note_off_c, 1, 72, 100
3, 127872, Note_on_c, 1, 70, 110
3, 128060, Note_off_c, 1, 70, 100
3, 128064, Note_on_c, 1, 69, 110
3, 128252, Note_off_c, 1, 69, 100
3, 128256, Note_on_c, 1, 67, 110
3, 128444, Note_off_c, 1, 67, 100
3, 128448, Note_on_c, 1, 69, 107
3, 128636, Note_off_c, 1, 69, 100
3, 128640, Note_on_c, 1, 67, 103
3, 128828, Note_off_c, 1, 67, 100
3, 128832, Note_on_c, 1, 65, 99
3, 129020, Note_off_c, 1, 65, 100
3, 129024, Note_on_c, 1, 64, 95
3, 129212, Note_off_c, 1, 64, 100
3, 129216, Note_on_c, 1, 65, 91
3, 129404, Note_off_c, 1, 65, 100
3, 129408, Note_on_c, 1, 64, 80
3, 130556, Note_off_c, 1, 64, 100
3, 130560, Note_on_c, 1, 62, 80
3, 131708, Note_off_c, 1, 62, 100
3, 131712, Note_on_c, 1, 60, 80
3, 132860, Note_off_c, 1, 60, 100
3, 132864, Note_on_c, 1, 53, 80
3, 133244, Note_off_c, 1, 53, 100
3, 133248, Note_on_c, 1, 57, 80
3, 133628, Note_off_c, 1, 57, 100
3, 133632, Note_on_c, 1, 60, 80
3, 134012, Note_off_c, 1, 60, 100
3, 134016, Note_on_c, 1, 62, 80
3, 134396, Note_off_c, 1, 62, 100
3, 134400, Note_on_c, 1, 55, 80
3, 134780, Note_off_c, 1, 55, 100
3, 134784, Note_on_c, 1, 53, 80
3, 135164, Note_off_c, 1, 53, 100
3, 135168, Note_on_c, 1, 52, 80
3, 135548, Note_off_c, 1, 52, 100
3, 135552, Note_on_c, 1, 55, 80
3, 135932, Note_off_c, 1, 55, 100
3, 135936, Note_on_c, 1, 60, 80
3, 136316, Note_off_c, 1, 60, 100
3, 136320, Note_on_c, 1, 53, 80
3, 136700, Note_off_c, 1, 53, 100
3, 136704, Note_on_c, 1, 57, 80
3, 137084, Note_off_c, 1, 57, 100
3, 137088, Note_on_c, 1, 60, 80
3, 137468, Note_off_c, 1, 60, 100
3, 137472, Note_on_c, 1, 45, 80
3, 137660, Note_off_c, 1, 45, 100
3, 137664, Note_on_c, 1, 44, 80
3, 137852, Note_off_c, 1, 44, 100
3, 137856, Note_on_c, 1, 45, 80
3, 138044, Note_off_c, 1, 45, 100
3, 138048, Note_on_c, 1, 41, 80
3, 138236, Note_off_c, 1, 41, 100
3, 138240, Note_on_c, 1, 43, 80
3, 138428, Note_off_c, 1, 43, 100
3, 138432, Note_on_c, 1, 45, 80
3, 138620, Note_off_c, 1, 45, 100
3, 138624, Note_on_c, 1, 46, 80
3, 138812, Note_off_c, 1, 46, 100
3, 138816, Note_on_c, 1, 45, 80
3, 139004, Note_off_c, 1, 45, 100
3, 139008, Note_on_c, 1, 46, 80
3, 139196, Note_off_c, 1, 46, 100
3, 139200, Note_on_c, 1, 43, 80
3, 139388, Note_off_c, 1, 43, 100
3, 139392, Note_on_c, 1, 45, 80
3, 139580, Note_off_c, 1, 45, 100
3, 139584, Note_on_c, 1, 47, 80
3, 139772, Note_off_c, 1, 47, 100
3, 139776, Note_on_c, 1, 48, 80
3, 139964, Note_off_c, 1, 48, 100
3, 139968, Note_on_c, 1, 47, 80
3, 140156, Note_off_c, 1, 47, 100
3, 140160, Note_on_c, 1, 48, 80
3, 140348, Note_off_c, 1, 48, 100
3, 140352, Note_on_c, 1, 46, 80
3, 140540, Note_off_c, 1, 46, 100
3, 140544, Note_on_c, 1, 45, 80
3, 140732, Note_off_c, 1, 45, 100
3, 140736, Note_on_c, 1, 43, 80
3, 140924, Note_off_c, 1, 43, 100
3, 140928, Note_on_c, 1, 41, 80
3, 141308, Note_off_c, 1, 41, 100
3, 141312, Note_on_c, 1, 53, 80
3, 141692, Note_off_c, 1, 53, 100
3, 142080, Note_on_c, 1, 48, 80
3, 142080, Note_on_c, 1, 60, 80
3, 143228, Note_off_c, 1, 60, 100
3, 143232, Note_on_c, 1, 59, 80
3, 144380, Note_off_c, 1, 59, 100
3, 144384, Note_on_c, 1, 58, 80
3, 145532, Note_off_c, 1, 58, 100
3, 145536, Note_on_c, 1, 57, 80
3, 145916, Note_off_c, 1, 48, 100
3, 145916, Note_off_c, 1, 57, 100
3, 146688, Note_on_c, 1, 64, 80
3, 146876, Note_off_c, 1, 64, 100
3, 146880, Note_on_c, 1, 62, 80
3, 147068, Note_off_c, 1, 62, 100
3, 147072, Note_on_c, 1, 64, 80
3, 147260, Note_off_c, 1, 64, 100
3, 147264, Note_on_c, 1, 60, 80
3, 147452, Note_off_c, 1, 60, 100
3, 147456, Note_on_c, 1, 62, 80
3, 147644, Note_off_c, 1, 62, 100
3, 147648, Note_on_c, 1, 64, 80
3, 147836, Note_off_c, 1, 64, 100
3, 147840, Note_on_c, 1, 65, 80
3, 148028, Note_off_c, 1, 65, 100
3, 148032, Note_on_c, 1, 64, 80
3, 148220, Note_off_c, 1, 64, 100
3, 148224, Note_on_c, 1, 65, 80
3, 148412, Note_off_c, 1, 65, 100
3, 148416, Note_on_c, 1, 62, 80
3, 148604, Note_off_c, 1, 62, 100
3, 148608, Note_on_c, 1, 64, 80
3, 148796, Note_off_c, 1, 64, 100
3, 148800, Note_on_c, 1, 65, 80
3, 148988, Note_off_c, 1, 65, 100
3, 148992, Note_on_c, 1, 67, 80
3, 149180, Note_off_c, 1, 67, 100
3, 149184, Note_on_c, 1, 65, 80
3, 149372, Note_off_c, 1, 65, 100
3, 149376, Note_on_c, 1, 67, 80
3, 149564, Note_off_c, 1, 67, 100
3, 149568, Note_on_c, 1, 64, 80
3, 149756, Note_off_c, 1, 64, 100
3, 149760, Note_on_c, 1, 65, 80
3, 149948, Note_off_c, 1, 65, 100
3, 149952, Note_on_c, 1, 67, 80
3, 150140, Note_off_c, 1, 67, 100
3, 150144, Note_on_c, 1, 69, 80
3, 150332, Note_off_c, 1, 69, 100
3, 150336, Note_on_c, 1, 67, 80
3, 150524, Note_off_c, 1, 67, 100
3, 150528, Note_on_c, 1, 69, 80
3, 150716, Note_off_c, 1, 69, 100
3, 150720, Note_on_c, 1, 65, 80
3, 150908, Note_off_c, 1, 65, 100
3, 150912, Note_on_c, 1, 67, 80
3, 151100, Note_off_c, 1, 67, 100
3, 151104, Note_on_c, 1, 69, 80
3, 151292, Note_off_c, 1, 69, 100
3, 151296, Note_on_c, 1, 70, 90
3, 151484, Note_off_c, 1, 70, 100
3, 151488, Note_on_c, 1, 69, 91
3, 151676, Note_off_c, 1, 69, 100
3, 151680, Note_on_c, 1, 70, 93
3, 151868, Note_off_c, 1, 70, 100
3, 151872, Note_on_c, 1, 67, 95
3, 152060, Note_off_c, 1, 67, 100
3, 152064, Note_on_c, 1, 69, 97
3, 152252, Note_off_c, 1, 69, 100
3, 152256, Note_on_c, 1, 70, 99
3, 152444, Note_off_c, 1, 70, 100
3, 152448, Note_on_c, 1, 72, 100
3, 152636, Note_off_c, 1, 72, 100
3, 152640, Note_on_c, 1, 70, 102
3, 152828, Note_off_c, 1, 70, 100
3, 152832, Note_on_c, 1, 72, 104
3, 153020, Note_off_c, 1, 72, 100
3, 153024, Note_on_c, 1, 69, 106
3, 153212, Note_off_c, 1, 69, 100
3, 153216, Note_on_c, 1, 70, 108
3, 153404, Note_off_c, 1, 70, 100
3, 153408, Note_on_c, 1, 72, 109
3, 153596, Note_off_c, 1, 72, 100
3, 153600, Note_on_c, 1, 74, 110
3, 153788, Note_off_c, 1, 74, 100
3, 153792, Note_on_c, 1, 72, 110
3, 153980, Note_off_c, 1, 72, 100
3, 153984, Note_on_c, 1, 70, 110
3, 154172, Note_off_c, 1, 70, 100
3, 154176, Note_on_c, 1, 72, 110
3, 154364, Note_off_c, 1, 72, 100
3, 154368, Note_on_c, 1, 70, 110
3, 154556, Note_off_c, 1, 70, 100
3, 154560, Note_on_c, 1, 69, 110
3, 154748, Note_off_c, 1, 69, 100
3, 154752, Note_on_c, 1, 67, 80
3, 154940, Note_off_c, 1, 67, 100
3, 154944, Note_on_c, 1, 69, 80
3, 155132, Note_off_c, 1, 69, 100
3, 155136, Note_on_c, 1, 67, 80
3, 155324, Note_off_c, 1, 67, 100
3, 155328, Note_on_c, 1, 65, 80
3, 155516, Note_off_c, 1, 65, 100
3, 155520, Note_on_c, 1, 64, 80
3, 155708, Note_off_c, 1, 64, 100
3, 155712, Note_on_c, 1, 65, 80
3, 155900, Note_off_c, 1, 65, 100
3, 155904, Note_on_c, 1, 64, 80
3, 157052, Note_off_c, 1, 64, 100
3, 157056, Note_on_c, 1, 62, 80
3, 158204, Note_off_c, 1, 62, 100
3, 158208, Note_on_c, 1, 60, 80
3, 159356, Note_off_c, 1, 60, 100
3, 159360, Note_on_c, 1, 53, 80
3, 159740, Note_off_c, 1, 53, 100
3, 159744, Note_on_c, 1, 57, 80
3, 160124, Note_off_c, 1, 57, 100
3, 160128, Note_on_c, 1, 60, 80
3, 160508, Note_off_c, 1, 60, 100
3, 160512, Note_on_c, 1, 62, 80
3, 160892, Note_off_c, 1, 62, 100
3, 160896, Note_on_c, 1, 55, 80
3, 161276, Note_off_c, 1, 55, 100
3, 161280, Note_on_c, 1, 53, 80
3, 161660, Note_off_c, 1, 53, 100
3, 161664, Note_on_c, 1, 52, 80
3, 162044, Note_off_c, 1, 52, 100
3, 162048, Note_on_c, 1, 55, 80
3, 162428, Note_off_c, 1, 55, 100
3, 162432, Note_on_c, 1, 60, 80
3, 162812, Note_off_c, 1, 60, 100
3, 162816, Note_on_c, 1, 53, 80
3, 163196, Note_off_c, 1, 53, 100
3, 163200, Note_on_c, 1, 57, 80
3, 163580, Note_off_c, 1, 57, 100
3, 163584, Note_on_c, 1, 60, 80
3, 163964, Note_off_c, 1, 60, 100
3, 163968, Note_on_c, 1, 45, 80
3, 164156, Note_off_c, 1, 45, 100
3, 164160, Note_on_c, 1, 44, 80
3, 164348, Note_off_c, 1, 44, 100
3, 164352, Note_on_c, 1, 45, 80
3, 164540, Note_off_c, 1, 45, 100
3, 164544, Note_on_c, 1, 41, 80
3, 164732, Note_off_c, 1, 41, 100
3, 164736, Note_on_c, 1, 43, 80
3, 164924, Note_off_c, 1, 43, 100
3, 164928, Note_on_c, 1, 45, 80
3, 165116, Note_off_c, 1, 45, 100
3, 165120, Note_on_c, 1, 46, 80
3, 165308, Note_off_c, 1, 46, 100
3, 165312, Note_on_c, 1, 45, 80
3, 165500, Note_off_c, 1, 45, 100
3, 165504, Note_on_c, 1, 46, 80
3, 165692, Note_off_c, 1, 46, 100
3, 165696, Note_on_c, 1, 43, 80
3, 165884, Note_off_c, 1, 43, 100
3, 165888, Note_on_c, 1, 45, 80
3, 166076, Note_off_c, 1, 45, 100
3, 166080, Note_on_c, 1, 47, 80
3, 166268, Note_off_c, 1, 47, 100
3, 166272, Note_on_c, 1, 48, 80
3, 166460, Note_off_c, 1, 48, 100
3, 166464, Note_on_c, 1, 47, 80
3, 166652, Note_off_c, 1, 47, 100
3, 166656, Note_on_c, 1, 48, 80
3, 166844, Note_off_c, 1, 48, 100
3, 166848, Note_on_c, 1, 46, 80
3, 167036, Note_off_c, 1, 46, 100
3, 167040, Note_on_c, 1, 45, 80
3, 167228, Note_off_c, 1, 45, 100
3, 167232, Note_on_c, 1, 43, 80
3, 167420, Note_off_c, 1, 43, 100
3, 167424, Note_on_c, 1, 41, 80
3, 167804, Note_off_c, 1, 41, 100
3, 167808, Note_on_c, 1, 53, 80
3, 168188, Note_off_c, 1, 53, 100
3, 169344, Note_on_c, 1, 53, 80
3, 169724, Note_off_c, 1, 53, 100
3, 170496, Note_on_c, 1, 56, 80
3, 170496, Note_on_c, 1, 53, 80
3, 170876, Note_off_c, 1, 56, 100
3, 170876, Note_off_c, 1, 53, 100
3, 170880, Note_on_c, 1, 58, 80
3, 170880, Note_on_c, 1, 55, 80
3, 171260, Note_off_c, 1, 58, 100
3, 171260, Note_off_c, 1, 55, 100
3, 171264, Note_on_c, 1, 56, 80
3, 171264, Note_on_c, 1, 53, 80
3, 171644, Note_off_c, 1, 56, 100
3, 171644, Note_off_c, 1, 53, 100
3, 171648, Note_on_c, 1, 55, 80
3, 171648, Note_on_c, 1, 52, 80
3, 172028, Note_off_c, 1, 55, 100
3, 172028, Note_off_c, 1, 52, 100
3, 172032, Note_on_c, 1, 56, 80
3, 172032, Note_on_c, 1, 53, 80
3, 172796, Note_off_c, 1, 56, 100
3, 172796, Note_off_c, 1, 53, 100
3, 173952, Note_on_c, 1, 56, 80
3, 173952, Note_on_c, 1, 44, 80
3, 174332, Note_off_c, 1, 56, 100
3, 174332, Note_off_c, 1, 44, 100
3, 175104, Note_on_c, 1, 56, 80
3, 175104, Note_on_c, 1, 60, 80
3, 175484, Note_off_c, 1, 56, 100
3, 175484, Note_off_c, 1, 60, 100
3, 175488, Note_on_c, 1, 61, 80
3, 175488, Note_on_c, 1, 58, 80
3, 175868, Note_off_c, 1, 61, 100
3, 175868, Note_off_c, 1, 58, 100
3, 175872, Note_on_c, 1, 60, 80
3, 175872, Note_on_c, 1, 56, 80
3, 176252, Note_off_c, 1, 60, 100
3, 176252, Note_off_c, 1, 56, 100
3, 176256, Note_on_c, 1, 58, 80
3, 176256, Note_on_c, 1, 55, 80
3, 176636, Note_off_c, 1, 58, 100
3, 176636, Note_off_c, 1, 55, 100
3, 176640, Note_on_c, 1, 56, 80
3, 176640, Note_on_c, 1, 60, 80
3, 177404, Note_off_c, 1, 56, 100
3, 177404, Note_off_c, 1, 60, 100
3, 177408, Note_on_c, 1, 60, 110
3, 177408, Note_on_c, 1, 63, 110
3, 177788, Note_off_c, 1, 60, 100
3, 177788, Note_off_c, 1, 63, 100
3, 177792, Note_on_c, 1, 58, 110
3, 177792, Note_on_c, 1, 61, 110
3, 178172, Note_off_c, 1, 58, 100
3, 178172, Note_off_c, 1, 61, 100
3, 178176, Note_on_c, 1, 56, 110
3, 178176, Note_on_c, 1, 60, 110
3, 178556, Note_off_c, 1, 56, 100
3, 178556, Note_off_c, 1, 60, 100
3, 178560, Note_on_c, 1, 55, 110
3, 178560, Note_on_c, 1, 58, 110
3, 178940, Note_off_c, 1, 55, 100
3, 178940, Note_off_c, 1, 58, 100
3, 178944, Note_on_c, 1, 56, 110
3, 179708, Note_off_c, 1, 56, 100
3, 179712, Note_on_c, 1, 58, 80
3, 179712, Note_on_c, 1, 49, 80
3, 180092, Note_off_c, 1, 58, 100
3, 180092, Note_off_c, 1, 49, 100
3, 180096, Note_on_c, 1, 60, 80
3, 180096, Note_on_c, 1, 51, 80
3, 180860, Note_off_c, 1, 60, 100
3, 180860, Note_off_c, 1, 51, 100
3, 180864, Note_on_c, 1, 61, 80
3, 180864, Note_on_c, 1, 51, 80
3, 181244, Note_off_c, 1, 61, 100
3, 181244, Note_off_c, 1, 51, 100
3, 181248, Note_on_c, 1, 56, 80
3, 181248, Note_on_c, 1, 60, 80
3, 181628, Note_off_c, 1, 56, 100
3, 181628, Note_off_c, 1, 60, 100
3, 182400, Note_on_c, 1, 60, 80
3, 182400, Note_on_c, 1, 51, 80
3, 183164, Note_off_c, 1, 60, 100
3, 183164, Note_off_c, 1, 51, 100
3, 183168, Note_on_c, 1, 61, 80
3, 183168, Note_on_c, 1, 51, 80
3, 183548, Note_off_c, 1, 61, 100
3, 183548, Note_off_c, 1, 51, 100
3, 183552, Note_on_c, 1, 56, 80
3, 183552, Note_on_c, 1, 60, 80
3, 183932, Note_off_c, 1, 56, 100
3, 183932, Note_off_c, 1, 60, 100
3, 185088, Note_on_c, 1, 58, 80
3, 185088, Note_on_c, 1, 55, 80
3, 185468, Note_off_c, 1, 58, 100
3, 185468, Note_off_c, 1, 55, 100
3, 185472, Note_on_c, 1, 58, 80
3, 185472, Note_on_c, 1, 61, 80
3, 185852, Note_off_c, 1, 58, 100
3, 185852, Note_off_c, 1, 61, 100
3, 186240, Note_on_c, 1, 60, 80
3, 186240, Note_on_c, 1, 56, 80
3, 186620, Note_off_c, 1, 60, 100
3, 186620, Note_off_c, 1, 56, 100
3, 186624, Note_on_c, 1, 60, 80
3, 186624, Note_on_c, 1, 63, 80
3, 187004, Note_off_c, 1, 60, 100
3, 187004, Note_off_c, 1, 63, 100
3, 187392, Note_on_c, 1, 57, 80
3, 187392, Note_on_c, 1, 60, 80
3, 187772, Note_off_c, 1, 57, 100
3, 187772, Note_off_c, 1, 60, 100
3, 187776, Note_on_c, 1, 60, 80
3, 187776, Note_on_c, 1, 63, 80
3, 188156, Note_off_c, 1, 60, 100
3, 188156, Note_off_c, 1, 63, 100
3, 188544, Note_on_c, 1, 58, 80
3, 188544, Note_on_c, 1, 61, 80
3, 188924, Note_off_c, 1, 58, 100
3, 188924, Note_off_c, 1, 61, 100
3, 188928, Note_on_c, 1, 61, 80
3, 188928, Note_on_c, 1, 65, 80
3, 189308, Note_off_c, 1, 61, 100
3, 189308, Note_off_c, 1, 65, 100
3, 189312, Note_on_c, 1, 61, 80
3, 189312, Note_on_c, 1, 53, 80
3, 190076, Note_off_c, 1, 61, 100
3, 190076, Note_off_c, 1, 53, 100
3, 190080, Note_on_c, 1, 63, 80
3, 190080, Note_on_c, 1, 53, 80
3, 190460, Note_off_c, 1, 63, 100
3, 190460, Note_off_c, 1, 53, 100
3, 190464, Note_on_c, 1, 58, 80
3, 190464, Note_on_c, 1, 61, 80
3, 190844, Note_off_c, 1, 58, 100
3, 190844, Note_off_c, 1, 61, 100
3, 191616, Note_on_c, 1, 61, 80
3, 191616, Note_on_c, 1, 53, 80
3, 192380, Note_off_c, 1, 61, 100
3, 192380, Note_off_c, 1, 53, 100
3, 192384, Note_on_c, 1, 63, 80
3, 192384, Note_on_c, 1, 53, 80
3, 192764, Note_off_c, 1, 63, 100
3, 192764, Note_off_c, 1, 53, 100
3, 192768, Note_on_c, 1, 58, 80
3, 192768, Note_on_c, 1, 61, 80
3, 193148, Note_off_c, 1, 58, 100
3, 193148, Note_off_c, 1, 61, 100
3, 193536, Note_on_c, 1, 63, 80
3, 193536, Note_on_c, 1, 53, 80
3, 193916, Note_off_c, 1, 63, 100
3, 193916, Note_off_c, 1, 53, 100
3, 193920, Note_on_c, 1, 58, 80
3, 193920, Note_on_c, 1, 61, 80
3, 194300, Note_off_c, 1, 58, 100
3, 194300, Note_off_c, 1, 61, 100
3, 194688, Note_on_c, 1, 63, 80
3, 194688, Note_on_c, 1, 53, 80
3, 195068, Note_off_c, 1, 63, 100
3, 195068, Note_off_c, 1, 53, 100
3, 195072, Note_on_c, 1, 58, 80
3, 195072, Note_on_c, 1, 61, 80
3, 195452, Note_off_c, 1, 58, 100
3, 195452, Note_off_c, 1, 61, 100
3, 195840, Note_on_c, 1, 61, 120
3, 196028, Note_off_c, 1, 61, 100
3, 196032, Note_on_c, 1, 60, 120
3, 196220, Note_off_c, 1, 60, 100
3, 196224, Note_on_c, 1, 58, 120
3, 196412, Note_off_c, 1, 58, 100
3, 196416, Note_on_c, 1, 60, 120
3, 196604, Note_off_c, 1, 60, 100
3, 196608, Note_on_c, 1, 61, 120
3, 196796, Note_off_c, 1, 61, 100
3, 196800, Note_on_c, 1, 60, 120
3, 196988, Note_off_c, 1, 60, 100
3, 196992, Note_on_c, 1, 58, 120
3, 197180, Note_off_c, 1, 58, 100
3, 197184, Note_on_c, 1, 60, 120
3, 197372, Note_off_c, 1, 60, 100
3, 197376, Note_on_c, 1, 58, 120
3, 197564, Note_off_c, 1, 58, 100
3, 197568, Note_on_c, 1, 56, 120
3, 197756, Note_off_c, 1, 56, 100
3, 197760, Note_on_c, 1, 55, 120
3, 197948, Note_off_c, 1, 55, 100
3, 197952, Note_on_c, 1, 56, 120
3, 198140, Note_off_c, 1, 56, 100
3, 198144, Note_on_c, 1, 55, 120
3, 198332, Note_off_c, 1, 55, 100
3, 198336, Note_on_c, 1, 53, 120
3, 198524, Note_off_c, 1, 53, 100
3, 198528, Note_on_c, 1, 52, 120
3, 198716, Note_off_c, 1, 52, 100
3, 198720, Note_on_c, 1, 53, 120
3, 198908, Note_off_c, 1, 53, 100
3, 198912, Note_on_c, 1, 55, 120
3, 199100, Note_off_c, 1, 55, 100
3, 199104, Note_on_c, 1, 53, 120
3, 199292, Note_off_c, 1, 53, 100
3, 199296, Note_on_c, 1, 56, 120
3, 199484, Note_off_c, 1, 56, 100
3, 199488, Note_on_c, 1, 47, 120
3, 199676, Note_off_c, 1, 47, 100
3, 199680, Note_on_c, 1, 48, 120
3, 200060, Note_off_c, 1, 48, 100
3, 200064, Note_on_c, 1, 60, 110
3, 200444, Note_off_c, 1, 60, 100
3, 200448, Note_on_c, 1, 68, 110
3, 200448, Note_on_c, 1, 60, 110
3, 200828, Note_off_c, 1, 68, 100
3, 200828, Note_off_c, 1, 60, 100
3, 200832, Note_on_c, 1, 70, 110
3, 200832, Note_on_c, 1, 61, 110
3, 201212, Note_off_c, 1, 70, 100
3, 201212, Note_off_c, 1, 61, 100
3, 201216, Note_on_c, 1, 67, 110
3, 201216, Note_on_c, 1, 58, 110
3, 201596, Note_off_c, 1, 67, 100
3, 201596, Note_off_c, 1, 58, 100
3, 201600, Note_on_c, 1, 67, 110
3, 201600, Note_on_c, 1, 58, 110
3, 201980, Note_off_c, 1, 67, 100
3, 201980, Note_off_c, 1, 58, 100
3, 201984, Note_on_c, 1, 68, 110
3, 201984, Note_on_c, 1, 60, 110
3, 202364, Note_off_c, 1, 68, 100
3, 202364, Note_off_c, 1, 60, 100
3, 202368, Note_on_c, 1, 65, 110
3, 202368, Note_on_c, 1, 56, 110
3, 202748, Note_off_c, 1, 65, 100
3, 202748, Note_off_c, 1, 56, 100
3, 202752, Note_on_c, 1, 56, 110
3, 202752, Note_on_c, 1, 53, 110
3, 203132, Note_off_c, 1, 56, 100
3, 203132, Note_off_c, 1, 53, 100
3, 203136, Note_on_c, 1, 55, 110
3, 203136, Note_on_c, 1, 52, 110
3, 203516, Note_off_c, 1, 55, 100
3, 203516, Note_off_c, 1, 52, 100
3, 203520, Note_on_c, 1, 55, 110
3, 203520, Note_on_c, 1, 58, 110
3, 203900, Note_off_c, 1, 55, 100
3, 203900, Note_off_c, 1, 58, 100
3, 203904, Note_on_c, 1, 55, 110
3, 203904, Note_on_c, 1, 58, 110
3, 204284, Note_off_c, 1, 55, 100
3, 204284, Note_off_c, 1, 58, 100
3, 204288, Note_on_c, 1, 56, 110
3, 204288, Note_on_c, 1, 53, 110
3, 204668, Note_off_c, 1, 56, 100
3, 204668, Note_off_c, 1, 53, 100
3, 204672, Note_on_c, 1, 56, 110
3, 204672, Note_on_c, 1, 60, 110
3, 205052, Note_off_c, 1, 56, 100
3, 205052, Note_off_c, 1, 60, 100
3, 205056, Note_on_c, 1, 56, 110
3, 205056, Note_on_c, 1, 60, 110
3, 205056, Note_on_c, 1, 65, 110
3, 205436, Note_off_c, 1, 56, 100
3, 205436, Note_off_c, 1, 60, 100
3, 205436, Note_off_c, 1, 65, 100
3, 205440, Note_on_c, 1, 64, 110
3, 205440, Note_on_c, 1, 58, 110
3, 205440, Note_on_c, 1, 55, 110
3, 205820, Note_off_c, 1, 64, 100
3, 205820, Note_off_c, 1, 58, 100
3, 205820, Note_off_c, 1, 55, 100
3, 205824, Note_on_c, 1, 64, 110
3, 205824, Note_on_c, 1, 61, 110
3, 205824, Note_on_c, 1, 58, 110
3, 206204, Note_off_c, 1, 64, 100
3, 206204, Note_off_c, 1, 61, 100
3, 206204, Note_off_c, 1, 58, 100
3, 206208, Note_on_c, 1, 64, 110
3, 206208, Note_on_c, 1, 61, 110
3, 206208, Note_on_c, 1, 58, 110
3, 206588, Note_off_c, 1, 64, 100
3, 206588, Note_off_c, 1, 61, 100
3, 206588, Note_off_c, 1, 58, 100
3, 206592, Note_on_c, 1, 65, 110
3, 206592, Note_on_c, 1, 62, 110
3, 206592, Note_on_c, 1, 59, 110
3, 206972, Note_off_c, 1, 65, 100
3, 206976, Note_on_c, 1, 68, 110
3, 207356, Note_off_c, 1, 62, 100
3, 207356, Note_off_c, 1, 59, 100
3, 207356, Note_off_c, 1, 68, 100
3, 207360, Note_on_c, 1, 68, 120
3, 207360, Note_on_c, 1, 62, 120
3, 207360, Note_on_c, 1, 59, 120
3, 207740, Note_off_c, 1, 68, 100
3, 207740, Note_off_c, 1, 62, 100
3, 207740, Note_off_c, 1, 59, 100
3, 207744, Note_on_c, 1, 68, 80
3, 207744, Note_on_c, 1, 60, 80
3, 208508, Note_off_c, 1, 68, 100
3, 208508, Note_off_c, 1, 60, 100
3, 208512, Note_on_c, 1, 60, 80
3, 208512, Note_on_c, 1, 70, 80
3, 208892, Note_off_c, 1, 60, 100
3, 208892, Note_off_c, 1, 70, 100
3, 208896, Note_on_c, 1, 65, 80
3, 208896, Note_on_c, 1, 68, 80
3, 209276, Note_off_c, 1, 65, 100
3, 209276, Note_off_c, 1, 68, 100
3, 210048, Note_on_c, 1, 56, 80
3, 210048, Note_on_c, 1, 48, 80
3, 210812, Note_off_c, 1, 56, 100
3, 210812, Note_off_c, 1, 48, 100
3, 210816, Note_on_c, 1, 58, 80
3, 210816, Note_on_c, 1, 48, 80
3, 211196, Note_off_c, 1, 58, 100
3, 211196, Note_off_c, 1, 48, 100
3, 211200, Note_on_c, 1, 56, 80
3, 211200, Note_on_c, 1, 53, 80
3, 211580, Note_off_c, 1, 56, 100
3, 211580, Note_off_c, 1, 53, 100
3, 212352, Note_on_c, 1, 48, 70
3, 212352, Note_on_c, 1, 36, 70
3, 213500, Note_off_c, 1, 48, 100
3, 213500, Note_off_c, 1, 36, 100
3, 213504, Note_on_c, 1, 41, 70
3, 214652, Note_off_c, 1, 41, 100
3, 214652, End_track
0, 0, End_of_file
