0, 0, Header, 1, 3, 384
1, 0, Start_track
1, 0, Title_t, "L.v.Beethoven 2mov - Piano Sonata No.1 in f minor Op.2-1\000"
1, 0, Copyright_t, "Copyright(C) 1995-2009, Suzuki Software\000"
1, 0, Sequencer_specific, 9, 67, 123, 0, 88, 70, 48, 50, 0, 1
1, 0, Text_t, "XFhd:2000/02/27:JP:Classical::::L.v.Beethoven:::Kaoru Suzuki\000"
1, 0, Text_t, "XFln:JP:\203s\203A\203m\203\\\203i\203^\221æ1\224Ô\203w\222Z\222²\215ì\225i2-1\201`\221æ2\212y\217Í:L.v.\203x\201[\203g\201[\203\224\203F\203\223:::\227é\202¿\202á\202ñ:\227é\202¿\202á\202ñ\000"
1, 0, Time_signature, 1, 2, 96, 8
1, 0, Sequencer_specific, 3, 0, 0, 65
1, 0, Sequencer_specific, 5, 0, 0, 119, 14, 0
1, 0, Tempo, 1090909
1, 384, Time_signature, 3, 2, 96, 8
1, 35556, Tempo, 1153846
1, 35648, Tempo, 1200000
1, 35736, Tempo, 1250000
1, 35824, Tempo, 1304347
1, 35916, Tempo, 1363636
1, 36004, Tempo, 1428571
1, 36192, Tempo, 1090909
1, 67276, Tempo, 1111111
1, 67352, Tempo, 1132075
1, 67428, Tempo, 1153846
1, 67504, Tempo, 1176470
1, 67584, Tempo, 1200000
1, 67660, Tempo, 1224489
1, 67736, Tempo, 1250000
1, 67812, Tempo, 1276595
1, 67888, Tempo, 1304347
1, 67968, Tempo, 1333333
1, 68044, Tempo, 1363636
1, 68120, Tempo, 1395348
1, 68196, Tempo, 1428571
1, 68272, Tempo, 1463414
1, 68352, Tempo, 1500000
1, 69504, Tempo, 1500000
1, 69504, End_track
2, 0, Start_track
2, 0, Title_t, "Right"
2, 0, Control_c, 0, 0, 0
2, 0, Program_c, 0, 0
2, 0, Control_c, 0, 7, 100
2, 0, Control_c, 0, 10, 74
2, 0, Control_c, 0, 91, 127
2, 0, Key_signature, -1, "major"
2, 0, Note_on_c, 0, 60, 80
2, 284, Note_off_c, 0, 60, 100
2, 288, Note_on_c, 0, 60, 80
2, 380, Note_off_c, 0, 60, 100
2, 384, Note_on_c, 0, 69, 80
2, 572, Note_off_c, 0, 69, 100
2, 576, Note_on_c, 0, 70, 80
2, 624, Note_on_c, 0, 69, 80
2, 668, Note_off_c, 0, 70, 100
2, 672, Note_on_c, 0, 67, 80
2, 716, Note_off_c, 0, 69, 100
2, 720, Note_on_c, 0, 69, 80
2, 764, Note_off_c, 0, 67, 100
2, 768, Note_on_c, 0, 72, 80
2, 812, Note_off_c, 0, 69, 100
2, 816, Note_on_c, 0, 70, 80
2, 860, Note_off_c, 0, 72, 100
2, 956, Note_off_c, 0, 70, 100
2, 960, Note_on_c, 0, 69, 80
2, 1148, Note_off_c, 0, 69, 100
2, 1152, Note_on_c, 0, 67, 80
2, 1340, Note_off_c, 0, 67, 100
2, 1344, Note_on_c, 0, 65, 80
2, 1532, Note_off_c, 0, 65, 100
2, 1536, Note_on_c, 0, 65, 80
2, 1916, Note_off_c, 0, 65, 100
2, 1920, Note_on_c, 0, 64, 80
2, 2108, Note_off_c, 0, 64, 100
2, 2112, Note_on_c, 0, 60, 80
2, 2300, Note_off_c, 0, 60, 100
2, 2304, Note_on_c, 0, 62, 80
2, 2304, Note_on_c, 0, 59, 80
2, 2492, Note_off_c, 0, 62, 100
2, 2492, Note_off_c, 0, 59, 100
2, 2496, Note_on_c, 0, 64, 80
2, 2496, Note_on_c, 0, 58, 80
2, 2684, Note_off_c, 0, 64, 100
2, 2684, Note_off_c, 0, 58, 100
2, 2688, Note_on_c, 0, 65, 80
2, 2880, Note_on_c, 0, 72, 80
2, 2972, Note_off_c, 0, 72, 100
2, 3068, Note_off_c, 0, 65, 100
2, 3072, Note_on_c, 0, 67, 80
2, 3072, Note_on_c, 0, 72, 80
2, 3260, Note_off_c, 0, 72, 100
2, 3264, Note_on_c, 0, 70, 80
2, 3356, Note_off_c, 0, 70, 100
2, 3452, Note_off_c, 0, 67, 100
2, 3456, Note_on_c, 0, 65, 80
2, 3456, Note_on_c, 0, 70, 80
2, 3644, Note_off_c, 0, 70, 100
2, 3648, Note_on_c, 0, 69, 80
2, 3740, Note_off_c, 0, 69, 100
2, 3836, Note_off_c, 0, 65, 100
2, 3840, Note_on_c, 0, 65, 80
2, 3840, Note_on_c, 0, 69, 80
2, 4220, Note_off_c, 0, 65, 100
2, 4220, Note_off_c, 0, 69, 100
2, 4224, Note_on_c, 0, 67, 80
2, 4224, Note_on_c, 0, 64, 80
2, 4316, Note_off_c, 0, 67, 100
2, 4316, Note_off_c, 0, 64, 100
2, 4320, Note_on_c, 0, 60, 80
2, 4412, Note_off_c, 0, 60, 100
2, 4416, Note_on_c, 0, 62, 80
2, 4508, Note_off_c, 0, 62, 100
2, 4512, Note_on_c, 0, 64, 80
2, 4604, Note_off_c, 0, 64, 100
2, 4608, Note_on_c, 0, 65, 80
2, 4700, Note_off_c, 0, 65, 100
2, 4704, Note_on_c, 0, 66, 80
2, 4796, Note_off_c, 0, 66, 100
2, 4800, Note_on_c, 0, 67, 80
2, 4892, Note_off_c, 0, 67, 100
2, 4896, Note_on_c, 0, 68, 80
2, 4988, Note_off_c, 0, 68, 100
2, 4992, Note_on_c, 0, 69, 80
2, 5180, Note_off_c, 0, 69, 100
2, 5184, Note_on_c, 0, 70, 80
2, 5232, Note_on_c, 0, 69, 80
2, 5276, Note_off_c, 0, 70, 100
2, 5280, Note_on_c, 0, 67, 80
2, 5324, Note_off_c, 0, 69, 100
2, 5328, Note_on_c, 0, 69, 80
2, 5372, Note_off_c, 0, 67, 100
2, 5376, Note_on_c, 0, 72, 80
2, 5420, Note_off_c, 0, 69, 100
2, 5424, Note_on_c, 0, 70, 80
2, 5468, Note_off_c, 0, 72, 100
2, 5564, Note_off_c, 0, 70, 100
2, 5568, Note_on_c, 0, 69, 80
2, 5568, Note_on_c, 0, 65, 80
2, 5756, Note_off_c, 0, 69, 100
2, 5756, Note_off_c, 0, 65, 100
2, 5760, Note_on_c, 0, 67, 80
2, 5760, Note_on_c, 0, 64, 80
2, 5948, Note_off_c, 0, 67, 100
2, 5948, Note_off_c, 0, 64, 100
2, 5952, Note_on_c, 0, 65, 80
2, 6140, Note_off_c, 0, 65, 100
2, 6144, Note_on_c, 0, 74, 80
2, 6144, Note_on_c, 0, 65, 80
2, 6524, Note_off_c, 0, 74, 100
2, 6524, Note_off_c, 0, 65, 100
2, 6528, Note_on_c, 0, 76, 81
2, 6528, Note_on_c, 0, 67, 81
2, 6908, Note_off_c, 0, 76, 100
2, 6908, Note_off_c, 0, 67, 100
2, 6912, Note_on_c, 0, 72, 82
2, 6912, Note_on_c, 0, 79, 82
2, 7004, Note_off_c, 0, 79, 100
2, 7008, Note_on_c, 0, 77, 82
2, 7100, Note_off_c, 0, 77, 100
2, 7104, Note_on_c, 0, 76, 82
2, 7196, Note_off_c, 0, 76, 100
2, 7200, Note_on_c, 0, 77, 83
2, 7292, Note_off_c, 0, 72, 100
2, 7292, Note_off_c, 0, 77, 100
2, 7296, Note_on_c, 0, 76, 83
2, 7388, Note_off_c, 0, 76, 100
2, 7392, Note_on_c, 0, 74, 83
2, 7484, Note_off_c, 0, 74, 100
2, 7488, Note_on_c, 0, 72, 83
2, 7580, Note_off_c, 0, 72, 100
2, 7584, Note_on_c, 0, 70, 84
2, 7676, Note_off_c, 0, 70, 100
2, 7680, Note_on_c, 0, 69, 84
2, 7964, Note_off_c, 0, 69, 100
2, 7968, Note_on_c, 0, 70, 85
2, 7992, Note_on_c, 0, 69, 85
2, 8012, Note_off_c, 0, 70, 100
2, 8016, Note_on_c, 0, 67, 85
2, 8036, Note_off_c, 0, 69, 100
2, 8040, Note_on_c, 0, 69, 85
2, 8060, Note_off_c, 0, 67, 100
2, 8064, Note_on_c, 0, 72, 85
2, 8084, Note_off_c, 0, 69, 100
2, 8156, Note_off_c, 0, 72, 100
2, 8160, Note_on_c, 0, 70, 85
2, 8252, Note_off_c, 0, 70, 100
2, 8256, Note_on_c, 0, 67, 86
2, 8348, Note_off_c, 0, 67, 100
2, 8352, Note_on_c, 0, 64, 86
2, 8444, Note_off_c, 0, 64, 100
2, 8448, Note_on_c, 0, 67, 86
2, 8448, Note_on_c, 0, 64, 86
2, 8828, Note_off_c, 0, 67, 100
2, 8828, Note_off_c, 0, 64, 100
2, 8832, Note_on_c, 0, 65, 87
2, 9020, Note_off_c, 0, 65, 100
2, 9216, Note_on_c, 0, 72, 89
2, 9500, Note_off_c, 0, 72, 100
2, 9504, Note_on_c, 0, 77, 89
2, 9596, Note_off_c, 0, 77, 100
2, 9600, Note_on_c, 0, 77, 90
2, 9980, Note_off_c, 0, 77, 100
2, 9984, Note_on_c, 0, 76, 93
2, 10364, Note_off_c, 0, 76, 100
2, 10368, Note_on_c, 0, 77, 97
2, 10460, Note_off_c, 0, 77, 100
2, 10464, Note_on_c, 0, 79, 98
2, 10496, Note_on_c, 0, 77, 98
2, 10524, Note_off_c, 0, 79, 100
2, 10528, Note_on_c, 0, 76, 98
2, 10556, Note_off_c, 0, 77, 100
2, 10560, Note_on_c, 0, 77, 99
2, 10588, Note_off_c, 0, 76, 100
2, 10652, Note_off_c, 0, 77, 100
2, 10656, Note_on_c, 0, 81, 99
2, 10748, Note_off_c, 0, 81, 100
2, 10752, Note_on_c, 0, 84, 100
2, 11132, Note_off_c, 0, 84, 100
2, 11136, Note_on_c, 0, 83, 100
2, 11228, Note_off_c, 0, 83, 100
2, 11232, Note_on_c, 0, 84, 100
2, 11324, Note_off_c, 0, 84, 100
2, 11328, Note_on_c, 0, 86, 100
2, 11420, Note_off_c, 0, 86, 100
2, 11424, Note_on_c, 0, 84, 100
2, 11516, Note_off_c, 0, 84, 100
2, 11520, Note_on_c, 0, 82, 100
2, 11612, Note_off_c, 0, 82, 100
2, 11616, Note_on_c, 0, 81, 100
2, 11708, Note_off_c, 0, 81, 100
2, 11712, Note_on_c, 0, 79, 100
2, 11804, Note_off_c, 0, 79, 100
2, 11808, Note_on_c, 0, 77, 100
2, 11900, Note_off_c, 0, 77, 100
2, 11904, Note_on_c, 0, 77, 100
2, 12284, Note_off_c, 0, 77, 100
2, 12288, Note_on_c, 0, 76, 100
2, 12668, Note_off_c, 0, 76, 100
2, 12672, Note_on_c, 0, 77, 100
2, 12716, Note_off_c, 0, 77, 100
2, 12720, Note_on_c, 0, 79, 100
2, 12736, Note_on_c, 0, 77, 100
2, 12740, Note_off_c, 0, 79, 100
2, 12752, Note_on_c, 0, 76, 100
2, 12756, Note_off_c, 0, 77, 100
2, 12764, Note_off_c, 0, 76, 100
2, 12768, Note_on_c, 0, 77, 100
2, 12812, Note_off_c, 0, 77, 100
2, 12816, Note_on_c, 0, 79, 100
2, 12860, Note_off_c, 0, 79, 100
2, 12864, Note_on_c, 0, 81, 100
2, 12908, Note_off_c, 0, 81, 100
2, 12912, Note_on_c, 0, 82, 100
2, 12928, Note_on_c, 0, 81, 100
2, 12932, Note_off_c, 0, 82, 100
2, 12944, Note_on_c, 0, 79, 100
2, 12948, Note_off_c, 0, 81, 100
2, 12956, Note_off_c, 0, 79, 100
2, 12960, Note_on_c, 0, 81, 100
2, 13004, Note_off_c, 0, 81, 100
2, 13008, Note_on_c, 0, 83, 100
2, 13052, Note_off_c, 0, 83, 100
2, 13056, Note_on_c, 0, 86, 92
2, 13244, Note_off_c, 0, 86, 100
2, 13248, Note_on_c, 0, 84, 93
2, 13532, Note_off_c, 0, 84, 100
2, 13536, Note_on_c, 0, 83, 80
2, 13628, Note_off_c, 0, 83, 100
2, 13632, Note_on_c, 0, 86, 80
2, 13724, Note_off_c, 0, 86, 100
2, 13728, Note_on_c, 0, 84, 80
2, 13820, Note_off_c, 0, 84, 100
2, 13824, Note_on_c, 0, 84, 80
2, 13916, Note_off_c, 0, 84, 100
2, 13920, Note_on_c, 0, 82, 80
2, 14012, Note_off_c, 0, 82, 100
2, 14016, Note_on_c, 0, 81, 80
2, 14108, Note_off_c, 0, 81, 100
2, 14112, Note_on_c, 0, 82, 80
2, 14204, Note_off_c, 0, 82, 100
2, 14208, Note_on_c, 0, 81, 80
2, 14396, Note_off_c, 0, 81, 100
2, 14400, Note_on_c, 0, 82, 80
2, 14448, Note_on_c, 0, 81, 80
2, 14492, Note_off_c, 0, 82, 100
2, 14496, Note_on_c, 0, 79, 80
2, 14540, Note_off_c, 0, 81, 100
2, 14544, Note_on_c, 0, 81, 80
2, 14588, Note_off_c, 0, 79, 100
2, 14592, Note_on_c, 0, 84, 80
2, 14636, Note_off_c, 0, 81, 100
2, 14640, Note_on_c, 0, 82, 80
2, 14684, Note_off_c, 0, 84, 100
2, 14780, Note_off_c, 0, 82, 100
2, 14784, Note_on_c, 0, 81, 80
2, 14784, Note_on_c, 0, 77, 80
2, 14972, Note_off_c, 0, 81, 100
2, 14972, Note_off_c, 0, 77, 100
2, 14976, Note_on_c, 0, 79, 80
2, 14976, Note_on_c, 0, 76, 80
2, 15164, Note_off_c, 0, 79, 100
2, 15164, Note_off_c, 0, 76, 100
2, 15168, Note_on_c, 0, 77, 80
2, 15356, Note_off_c, 0, 77, 100
2, 15360, Note_on_c, 0, 76, 80
2, 15360, Note_on_c, 0, 72, 80
2, 15740, Note_off_c, 0, 76, 100
2, 15740, Note_off_c, 0, 72, 100
2, 15744, Note_on_c, 0, 74, 80
2, 15744, Note_on_c, 0, 70, 80
2, 15932, Note_off_c, 0, 74, 100
2, 15932, Note_off_c, 0, 70, 100
2, 16128, Note_on_c, 0, 86, 110
2, 16128, Note_on_c, 0, 74, 110
2, 16412, Note_off_c, 0, 86, 100
2, 16412, Note_off_c, 0, 74, 100
2, 16416, Note_on_c, 0, 84, 110
2, 16416, Note_on_c, 0, 72, 110
2, 16508, Note_off_c, 0, 84, 100
2, 16508, Note_off_c, 0, 72, 100
2, 16512, Note_on_c, 0, 84, 110
2, 16604, Note_off_c, 0, 84, 100
2, 16608, Note_on_c, 0, 89, 100
2, 16700, Note_off_c, 0, 89, 100
2, 16704, Note_on_c, 0, 88, 100
2, 16796, Note_off_c, 0, 88, 100
2, 16800, Note_on_c, 0, 86, 100
2, 16892, Note_off_c, 0, 86, 100
2, 16896, Note_on_c, 0, 85, 100
2, 16988, Note_off_c, 0, 85, 100
2, 16992, Note_on_c, 0, 88, 100
2, 17016, Note_on_c, 0, 86, 100
2, 17084, Note_off_c, 0, 88, 100
2, 17088, Note_on_c, 0, 84, 100
2, 17108, Note_off_c, 0, 86, 100
2, 17180, Note_off_c, 0, 84, 100
2, 17184, Note_on_c, 0, 82, 100
2, 17276, Note_off_c, 0, 82, 100
2, 17280, Note_on_c, 0, 81, 100
2, 17372, Note_off_c, 0, 81, 100
2, 17376, Note_on_c, 0, 84, 100
2, 17468, Note_off_c, 0, 84, 100
2, 17472, Note_on_c, 0, 82, 100
2, 17564, Note_off_c, 0, 82, 100
2, 17568, Note_on_c, 0, 79, 100
2, 17660, Note_off_c, 0, 79, 100
2, 17664, Note_on_c, 0, 79, 100
2, 17664, Note_on_c, 0, 70, 100
2, 18044, Note_off_c, 0, 79, 100
2, 18044, Note_off_c, 0, 70, 100
2, 18048, Note_on_c, 0, 69, 80
2, 18048, Note_on_c, 0, 77, 80
2, 18236, Note_off_c, 0, 69, 100
2, 18236, Note_off_c, 0, 77, 100
2, 18432, Note_on_c, 0, 81, 80
2, 18620, Note_off_c, 0, 81, 100
2, 18624, Note_on_c, 0, 82, 80
2, 18672, Note_on_c, 0, 81, 80
2, 18716, Note_off_c, 0, 82, 100
2, 18720, Note_on_c, 0, 80, 80
2, 18764, Note_off_c, 0, 81, 100
2, 18768, Note_on_c, 0, 81, 80
2, 18812, Note_off_c, 0, 80, 100
2, 18812, Note_off_c, 0, 81, 100
2, 18816, Note_on_c, 0, 86, 80
2, 19196, Note_off_c, 0, 86, 100
2, 19200, Note_on_c, 0, 50, 80
2, 19580, Note_off_c, 0, 50, 100
2, 19584, Note_on_c, 0, 74, 80
2, 19584, Note_on_c, 0, 86, 80
2, 19868, Note_off_c, 0, 74, 100
2, 19868, Note_off_c, 0, 86, 100
2, 19872, Note_on_c, 0, 86, 80
2, 19872, Note_on_c, 0, 74, 80
2, 19964, Note_off_c, 0, 86, 100
2, 19964, Note_off_c, 0, 74, 100
2, 19968, Note_on_c, 0, 86, 80
2, 19968, Note_on_c, 0, 74, 80
2, 20348, Note_off_c, 0, 86, 100
2, 20348, Note_off_c, 0, 74, 100
2, 20352, Note_on_c, 0, 73, 80
2, 20352, Note_on_c, 0, 85, 80
2, 20540, Note_off_c, 0, 73, 100
2, 20540, Note_off_c, 0, 85, 100
2, 20736, Note_on_c, 0, 85, 80
2, 20828, Note_off_c, 0, 85, 100
2, 20832, Note_on_c, 0, 86, 80
2, 20864, Note_on_c, 0, 85, 80
2, 20892, Note_off_c, 0, 86, 100
2, 20896, Note_on_c, 0, 83, 80
2, 20924, Note_off_c, 0, 85, 100
2, 20928, Note_on_c, 0, 85, 80
2, 20956, Note_off_c, 0, 83, 100
2, 21020, Note_off_c, 0, 85, 100
2, 21024, Note_on_c, 0, 86, 80
2, 21116, Note_off_c, 0, 86, 100
2, 21120, Note_on_c, 0, 88, 80
2, 21500, Note_off_c, 0, 88, 100
2, 21504, Note_on_c, 0, 45, 80
2, 21884, Note_off_c, 0, 45, 100
2, 21888, Note_on_c, 0, 79, 80
2, 22172, Note_off_c, 0, 79, 100
2, 22176, Note_on_c, 0, 79, 80
2, 22268, Note_off_c, 0, 79, 100
2, 22272, Note_on_c, 0, 79, 80
2, 22652, Note_off_c, 0, 79, 100
2, 22656, Note_on_c, 0, 77, 80
2, 22844, Note_off_c, 0, 77, 100
2, 23040, Note_on_c, 0, 77, 80
2, 23228, Note_off_c, 0, 77, 100
2, 23232, Note_on_c, 0, 79, 80
2, 23280, Note_on_c, 0, 77, 80
2, 23324, Note_off_c, 0, 79, 100
2, 23328, Note_on_c, 0, 76, 80
2, 23372, Note_off_c, 0, 77, 100
2, 23376, Note_on_c, 0, 77, 80
2, 23420, Note_off_c, 0, 76, 100
2, 23420, Note_off_c, 0, 77, 100
2, 23424, Note_on_c, 0, 86, 80
2, 23804, Note_off_c, 0, 86, 100
2, 23808, Note_on_c, 0, 43, 80
2, 24188, Note_off_c, 0, 43, 100
2, 24192, Note_on_c, 0, 77, 80
2, 24192, Note_on_c, 0, 89, 80
2, 24476, Note_off_c, 0, 77, 100
2, 24476, Note_off_c, 0, 89, 100
2, 24480, Note_on_c, 0, 77, 80
2, 24480, Note_on_c, 0, 89, 80
2, 24572, Note_off_c, 0, 77, 100
2, 24572, Note_off_c, 0, 89, 100
2, 24576, Note_on_c, 0, 77, 80
2, 24576, Note_on_c, 0, 89, 80
2, 24764, Note_off_c, 0, 77, 100
2, 24764, Note_off_c, 0, 89, 100
2, 24768, Note_on_c, 0, 88, 83
2, 24768, Note_on_c, 0, 76, 83
2, 24956, Note_off_c, 0, 88, 100
2, 24956, Note_off_c, 0, 76, 100
2, 24960, Note_on_c, 0, 76, 87
2, 24960, Note_on_c, 0, 88, 87
2, 25148, Note_off_c, 0, 76, 100
2, 25148, Note_off_c, 0, 88, 100
2, 25152, Note_on_c, 0, 74, 90
2, 25152, Note_on_c, 0, 86, 90
2, 25340, Note_off_c, 0, 74, 100
2, 25340, Note_off_c, 0, 86, 100
2, 25344, Note_on_c, 0, 86, 94
2, 25344, Note_on_c, 0, 74, 94
2, 25532, Note_off_c, 0, 86, 100
2, 25532, Note_off_c, 0, 74, 100
2, 25536, Note_on_c, 0, 72, 98
2, 25536, Note_on_c, 0, 84, 98
2, 25724, Note_off_c, 0, 72, 100
2, 25724, Note_off_c, 0, 84, 100
2, 25728, Note_on_c, 0, 74, 100
2, 25728, Note_on_c, 0, 84, 100
2, 25916, Note_off_c, 0, 84, 100
2, 25920, Note_on_c, 0, 83, 100
2, 26108, Note_off_c, 0, 74, 100
2, 26160, Note_on_c, 0, 84, 100
2, 26204, Note_off_c, 0, 83, 100
2, 26208, Note_on_c, 0, 86, 100
2, 26252, Note_off_c, 0, 84, 100
2, 26256, Note_on_c, 0, 84, 100
2, 26300, Note_off_c, 0, 86, 100
2, 26304, Note_on_c, 0, 83, 100
2, 26348, Note_off_c, 0, 84, 100
2, 26352, Note_on_c, 0, 84, 100
2, 26396, Note_off_c, 0, 83, 100
2, 26400, Note_on_c, 0, 86, 100
2, 26444, Note_off_c, 0, 84, 100
2, 26448, Note_on_c, 0, 83, 100
2, 26492, Note_off_c, 0, 86, 100
2, 26496, Note_on_c, 0, 84, 100
2, 26540, Note_off_c, 0, 83, 100
2, 26588, Note_off_c, 0, 84, 100
2, 26592, Note_on_c, 0, 86, 100
2, 26684, Note_off_c, 0, 86, 100
2, 26688, Note_on_c, 0, 88, 100
2, 26780, Note_off_c, 0, 88, 100
2, 26784, Note_on_c, 0, 84, 100
2, 26876, Note_off_c, 0, 84, 100
2, 26880, Note_on_c, 0, 83, 100
2, 26916, Note_on_c, 0, 84, 100
2, 26952, Note_off_c, 0, 83, 100
2, 26952, Note_on_c, 0, 86, 100
2, 26988, Note_off_c, 0, 84, 100
2, 26988, Note_on_c, 0, 84, 100
2, 27024, Note_off_c, 0, 86, 100
2, 27072, Note_on_c, 0, 83, 100
2, 27116, Note_off_c, 0, 84, 100
2, 27312, Note_on_c, 0, 84, 100
2, 27336, Note_off_c, 0, 83, 100
2, 27360, Note_on_c, 0, 86, 100
2, 27404, Note_off_c, 0, 84, 100
2, 27408, Note_on_c, 0, 84, 100
2, 27452, Note_off_c, 0, 86, 100
2, 27456, Note_on_c, 0, 83, 100
2, 27500, Note_off_c, 0, 84, 100
2, 27504, Note_on_c, 0, 84, 100
2, 27548, Note_off_c, 0, 83, 100
2, 27552, Note_on_c, 0, 86, 100
2, 27596, Note_off_c, 0, 84, 100
2, 27600, Note_on_c, 0, 83, 100
2, 27644, Note_off_c, 0, 86, 100
2, 27648, Note_on_c, 0, 84, 100
2, 27692, Note_off_c, 0, 83, 100
2, 27696, Note_on_c, 0, 86, 100
2, 27740, Note_off_c, 0, 84, 100
2, 27744, Note_on_c, 0, 88, 100
2, 27788, Note_off_c, 0, 86, 100
2, 27792, Note_on_c, 0, 86, 100
2, 27836, Note_off_c, 0, 88, 100
2, 27840, Note_on_c, 0, 84, 100
2, 27884, Note_off_c, 0, 86, 100
2, 27888, Note_on_c, 0, 83, 100
2, 27932, Note_off_c, 0, 84, 100
2, 27936, Note_on_c, 0, 81, 100
2, 27980, Note_off_c, 0, 83, 100
2, 27984, Note_on_c, 0, 79, 100
2, 28028, Note_off_c, 0, 81, 100
2, 28032, Note_on_c, 0, 80, 100
2, 28076, Note_off_c, 0, 79, 100
2, 28080, Note_on_c, 0, 81, 100
2, 28124, Note_off_c, 0, 80, 100
2, 28128, Note_on_c, 0, 84, 100
2, 28172, Note_off_c, 0, 81, 100
2, 28176, Note_on_c, 0, 83, 100
2, 28220, Note_off_c, 0, 84, 100
2, 28224, Note_on_c, 0, 81, 100
2, 28268, Note_off_c, 0, 83, 100
2, 28272, Note_on_c, 0, 79, 100
2, 28316, Note_off_c, 0, 81, 100
2, 28320, Note_on_c, 0, 77, 100
2, 28364, Note_off_c, 0, 79, 100
2, 28368, Note_on_c, 0, 76, 100
2, 28412, Note_off_c, 0, 77, 100
2, 28416, Note_on_c, 0, 79, 100
2, 28460, Note_off_c, 0, 76, 100
2, 28464, Note_on_c, 0, 77, 100
2, 28508, Note_off_c, 0, 79, 100
2, 28512, Note_on_c, 0, 81, 100
2, 28556, Note_off_c, 0, 77, 100
2, 28560, Note_on_c, 0, 79, 100
2, 28604, Note_off_c, 0, 81, 100
2, 28608, Note_on_c, 0, 77, 100
2, 28652, Note_off_c, 0, 79, 100
2, 28656, Note_on_c, 0, 76, 100
2, 28700, Note_off_c, 0, 77, 100
2, 28704, Note_on_c, 0, 74, 100
2, 28748, Note_off_c, 0, 76, 100
2, 28752, Note_on_c, 0, 73, 100
2, 28796, Note_off_c, 0, 74, 100
2, 28800, Note_on_c, 0, 74, 100
2, 28844, Note_off_c, 0, 73, 100
2, 28848, Note_on_c, 0, 76, 100
2, 28892, Note_off_c, 0, 74, 100
2, 28896, Note_on_c, 0, 77, 100
2, 28940, Note_off_c, 0, 76, 100
2, 28944, Note_on_c, 0, 76, 100
2, 28988, Note_off_c, 0, 77, 100
2, 28992, Note_on_c, 0, 79, 100
2, 29036, Note_off_c, 0, 76, 100
2, 29040, Note_on_c, 0, 77, 100
2, 29084, Note_off_c, 0, 79, 100
2, 29088, Note_on_c, 0, 76, 100
2, 29132, Note_off_c, 0, 77, 100
2, 29136, Note_on_c, 0, 74, 100
2, 29180, Note_off_c, 0, 76, 100
2, 29184, Note_on_c, 0, 72, 100
2, 29228, Note_off_c, 0, 74, 100
2, 29232, Note_on_c, 0, 74, 100
2, 29276, Note_off_c, 0, 72, 100
2, 29280, Note_on_c, 0, 72, 100
2, 29324, Note_off_c, 0, 74, 100
2, 29328, Note_on_c, 0, 71, 100
2, 29372, Note_off_c, 0, 72, 100
2, 29376, Note_on_c, 0, 72, 100
2, 29420, Note_off_c, 0, 71, 100
2, 29424, Note_on_c, 0, 67, 100
2, 29468, Note_off_c, 0, 72, 100
2, 29472, Note_on_c, 0, 69, 100
2, 29516, Note_off_c, 0, 67, 100
2, 29520, Note_on_c, 0, 71, 100
2, 29564, Note_off_c, 0, 69, 100
2, 29568, Note_on_c, 0, 72, 100
2, 29612, Note_off_c, 0, 71, 100
2, 29616, Note_on_c, 0, 74, 100
2, 29660, Note_off_c, 0, 72, 100
2, 29664, Note_on_c, 0, 76, 100
2, 29708, Note_off_c, 0, 74, 100
2, 29712, Note_on_c, 0, 77, 100
2, 29756, Note_off_c, 0, 76, 100
2, 29760, Note_on_c, 0, 79, 100
2, 29804, Note_off_c, 0, 77, 100
2, 29808, Note_on_c, 0, 78, 100
2, 29852, Note_off_c, 0, 79, 100
2, 29856, Note_on_c, 0, 79, 100
2, 29900, Note_off_c, 0, 78, 100
2, 29904, Note_on_c, 0, 78, 90
2, 29948, Note_off_c, 0, 79, 100
2, 29952, Note_on_c, 0, 79, 89
2, 29996, Note_off_c, 0, 78, 100
2, 30044, Note_off_c, 0, 79, 100
2, 30048, Note_on_c, 0, 77, 86
2, 30140, Note_off_c, 0, 77, 100
2, 30144, Note_on_c, 0, 76, 83
2, 30236, Note_off_c, 0, 76, 100
2, 30240, Note_on_c, 0, 74, 81
2, 30332, Note_off_c, 0, 74, 100
2, 30336, Note_on_c, 0, 72, 80
2, 30524, Note_off_c, 0, 72, 100
2, 30528, Note_on_c, 0, 60, 80
2, 30716, Note_off_c, 0, 60, 100
2, 30720, Note_on_c, 0, 65, 80
2, 30720, Note_on_c, 0, 57, 80
2, 30908, Note_off_c, 0, 65, 100
2, 30908, Note_off_c, 0, 57, 100
2, 30912, Note_on_c, 0, 64, 80
2, 30912, Note_on_c, 0, 55, 80
2, 31100, Note_off_c, 0, 64, 100
2, 31100, Note_off_c, 0, 55, 100
2, 31104, Note_on_c, 0, 62, 80
2, 31104, Note_on_c, 0, 53, 80
2, 31104, Note_on_c, 0, 57, 80
2, 31292, Note_off_c, 0, 62, 100
2, 31292, Note_off_c, 0, 53, 100
2, 31292, Note_off_c, 0, 57, 100
2, 31296, Note_on_c, 0, 60, 80
2, 31296, Note_on_c, 0, 52, 80
2, 31296, Note_on_c, 0, 55, 80
2, 31484, Note_off_c, 0, 60, 100
2, 31484, Note_off_c, 0, 52, 100
2, 31484, Note_off_c, 0, 55, 100
2, 31488, Note_on_c, 0, 55, 100
2, 31488, Note_on_c, 0, 53, 100
2, 31488, Note_on_c, 0, 50, 100
2, 31488, Note_on_c, 0, 60, 100
2, 31868, Note_off_c, 0, 60, 100
2, 31872, Note_on_c, 0, 59, 80
2, 32252, Note_off_c, 0, 55, 100
2, 32252, Note_off_c, 0, 53, 100
2, 32252, Note_off_c, 0, 50, 100
2, 32252, Note_off_c, 0, 59, 100
2, 32256, Note_on_c, 0, 59, 80
2, 32256, Note_on_c, 0, 55, 80
2, 32256, Note_on_c, 0, 53, 80
2, 32256, Note_on_c, 0, 50, 80
2, 32636, Note_off_c, 0, 59, 100
2, 32636, Note_off_c, 0, 55, 100
2, 32636, Note_off_c, 0, 53, 100
2, 32636, Note_off_c, 0, 50, 100
2, 32640, Note_on_c, 0, 60, 80
2, 32640, Note_on_c, 0, 52, 80
2, 32732, Note_off_c, 0, 60, 100
2, 32732, Note_off_c, 0, 52, 100
2, 32784, Note_on_c, 0, 62, 80
2, 32800, Note_on_c, 0, 60, 80
2, 32812, Note_off_c, 0, 62, 100
2, 32816, Note_on_c, 0, 59, 80
2, 32828, Note_off_c, 0, 60, 100
2, 32832, Note_on_c, 0, 60, 80
2, 32844, Note_off_c, 0, 59, 100
2, 32892, Note_off_c, 0, 60, 100
2, 32896, Note_on_c, 0, 64, 80
2, 32956, Note_off_c, 0, 64, 100
2, 32960, Note_on_c, 0, 67, 80
2, 33020, Note_off_c, 0, 67, 100
2, 33024, Note_on_c, 0, 67, 80
2, 33084, Note_off_c, 0, 67, 100
2, 33088, Note_on_c, 0, 65, 80
2, 33148, Note_off_c, 0, 65, 100
2, 33216, Note_on_c, 0, 65, 80
2, 33276, Note_off_c, 0, 65, 100
2, 33280, Note_on_c, 0, 64, 80
2, 33340, Note_off_c, 0, 64, 100
2, 33408, Note_on_c, 0, 64, 80
2, 33468, Note_off_c, 0, 64, 100
2, 33472, Note_on_c, 0, 62, 80
2, 33532, Note_off_c, 0, 62, 100
2, 33600, Note_on_c, 0, 62, 80
2, 33660, Note_off_c, 0, 62, 100
2, 33664, Note_on_c, 0, 60, 80
2, 33724, Note_off_c, 0, 60, 100
2, 33792, Note_on_c, 0, 55, 100
2, 33792, Note_on_c, 0, 53, 100
2, 33792, Note_on_c, 0, 50, 100
2, 33792, Note_on_c, 0, 60, 100
2, 34172, Note_off_c, 0, 60, 100
2, 34176, Note_on_c, 0, 59, 80
2, 34556, Note_off_c, 0, 55, 100
2, 34556, Note_off_c, 0, 53, 100
2, 34556, Note_off_c, 0, 50, 100
2, 34556, Note_off_c, 0, 59, 100
2, 34560, Note_on_c, 0, 71, 80
2, 34560, Note_on_c, 0, 67, 80
2, 34560, Note_on_c, 0, 65, 80
2, 34560, Note_on_c, 0, 62, 80
2, 34940, Note_off_c, 0, 71, 100
2, 34940, Note_off_c, 0, 67, 100
2, 34940, Note_off_c, 0, 65, 100
2, 34940, Note_off_c, 0, 62, 100
2, 34944, Note_on_c, 0, 72, 80
2, 34944, Note_on_c, 0, 64, 80
2, 35132, Note_off_c, 0, 72, 100
2, 35132, Note_off_c, 0, 64, 100
2, 35136, Note_on_c, 0, 60, 100
2, 35420, Note_off_c, 0, 60, 100
2, 35424, Note_on_c, 0, 62, 80
2, 35472, Note_on_c, 0, 64, 80
2, 35516, Note_off_c, 0, 62, 100
2, 35520, Note_on_c, 0, 65, 80
2, 35564, Note_off_c, 0, 64, 100
2, 35568, Note_on_c, 0, 67, 80
2, 35612, Note_off_c, 0, 65, 100
2, 35616, Note_on_c, 0, 69, 80
2, 35660, Note_off_c, 0, 67, 100
2, 35664, Note_on_c, 0, 70, 80
2, 35708, Note_off_c, 0, 69, 100
2, 35712, Note_on_c, 0, 72, 80
2, 35756, Note_off_c, 0, 70, 100
2, 35760, Note_on_c, 0, 71, 80
2, 35804, Note_off_c, 0, 72, 100
2, 35808, Note_on_c, 0, 72, 80
2, 35852, Note_off_c, 0, 71, 100
2, 35856, Note_on_c, 0, 74, 80
2, 35900, Note_off_c, 0, 72, 100
2, 35904, Note_on_c, 0, 72, 80
2, 35948, Note_off_c, 0, 74, 100
2, 35952, Note_on_c, 0, 70, 80
2, 35996, Note_off_c, 0, 72, 100
2, 36000, Note_on_c, 0, 69, 80
2, 36044, Note_off_c, 0, 70, 100
2, 36048, Note_on_c, 0, 67, 80
2, 36092, Note_off_c, 0, 69, 100
2, 36092, Note_off_c, 0, 67, 100
2, 36096, Note_on_c, 0, 69, 85
2, 36284, Note_off_c, 0, 69, 100
2, 36288, Note_on_c, 0, 70, 85
2, 36336, Note_on_c, 0, 69, 85
2, 36380, Note_off_c, 0, 70, 100
2, 36384, Note_on_c, 0, 67, 85
2, 36428, Note_off_c, 0, 69, 100
2, 36432, Note_on_c, 0, 69, 85
2, 36476, Note_off_c, 0, 67, 100
2, 36480, Note_on_c, 0, 72, 85
2, 36524, Note_off_c, 0, 69, 100
2, 36528, Note_on_c, 0, 70, 85
2, 36572, Note_off_c, 0, 72, 100
2, 36668, Note_off_c, 0, 70, 100
2, 36672, Note_on_c, 0, 69, 85
2, 36860, Note_off_c, 0, 69, 100
2, 36864, Note_on_c, 0, 67, 85
2, 37052, Note_off_c, 0, 67, 100
2, 37056, Note_on_c, 0, 65, 85
2, 37244, Note_off_c, 0, 65, 100
2, 37248, Note_on_c, 0, 65, 85
2, 37628, Note_off_c, 0, 65, 100
2, 37632, Note_on_c, 0, 64, 85
2, 37820, Note_off_c, 0, 64, 100
2, 37824, Note_on_c, 0, 60, 85
2, 38012, Note_off_c, 0, 60, 100
2, 38016, Note_on_c, 0, 62, 85
2, 38016, Note_on_c, 0, 59, 85
2, 38204, Note_off_c, 0, 62, 100
2, 38204, Note_off_c, 0, 59, 100
2, 38208, Note_on_c, 0, 64, 85
2, 38208, Note_on_c, 0, 58, 85
2, 38396, Note_off_c, 0, 64, 100
2, 38396, Note_off_c, 0, 58, 100
2, 38400, Note_on_c, 0, 65, 85
2, 38496, Note_on_c, 0, 72, 85
2, 38588, Note_off_c, 0, 72, 100
2, 38592, Note_on_c, 0, 72, 85
2, 38684, Note_off_c, 0, 72, 100
2, 38688, Note_on_c, 0, 72, 85
2, 38780, Note_off_c, 0, 65, 100
2, 38780, Note_off_c, 0, 72, 100
2, 38784, Note_on_c, 0, 67, 85
2, 38784, Note_on_c, 0, 72, 85
2, 38876, Note_off_c, 0, 72, 100
2, 38880, Note_on_c, 0, 70, 85
2, 38972, Note_off_c, 0, 70, 100
2, 38976, Note_on_c, 0, 70, 85
2, 39068, Note_off_c, 0, 70, 100
2, 39072, Note_on_c, 0, 70, 85
2, 39164, Note_off_c, 0, 67, 100
2, 39164, Note_off_c, 0, 70, 100
2, 39168, Note_on_c, 0, 65, 85
2, 39168, Note_on_c, 0, 70, 85
2, 39260, Note_off_c, 0, 70, 100
2, 39264, Note_on_c, 0, 69, 85
2, 39356, Note_off_c, 0, 69, 100
2, 39360, Note_on_c, 0, 69, 85
2, 39452, Note_off_c, 0, 69, 100
2, 39456, Note_on_c, 0, 69, 85
2, 39548, Note_off_c, 0, 65, 100
2, 39548, Note_off_c, 0, 69, 100
2, 39552, Note_on_c, 0, 65, 85
2, 39552, Note_on_c, 0, 69, 85
2, 39840, Note_on_c, 0, 70, 85
2, 39888, Note_on_c, 0, 69, 85
2, 39932, Note_off_c, 0, 65, 100
2, 39932, Note_off_c, 0, 69, 100
2, 39932, Note_off_c, 0, 70, 100
2, 39932, Note_off_c, 0, 69, 100
2, 39936, Note_on_c, 0, 67, 85
2, 39936, Note_on_c, 0, 64, 85
2, 40124, Note_off_c, 0, 67, 100
2, 40124, Note_off_c, 0, 64, 100
2, 40128, Note_on_c, 0, 60, 85
2, 40188, Note_off_c, 0, 60, 100
2, 40192, Note_on_c, 0, 61, 85
2, 40252, Note_off_c, 0, 61, 100
2, 40256, Note_on_c, 0, 62, 85
2, 40316, Note_off_c, 0, 62, 100
2, 40320, Note_on_c, 0, 63, 85
2, 40380, Note_off_c, 0, 63, 100
2, 40384, Note_on_c, 0, 64, 85
2, 40444, Note_off_c, 0, 64, 100
2, 40448, Note_on_c, 0, 65, 85
2, 40508, Note_off_c, 0, 65, 100
2, 40512, Note_on_c, 0, 66, 85
2, 40572, Note_off_c, 0, 66, 100
2, 40576, Note_on_c, 0, 67, 85
2, 40636, Note_off_c, 0, 67, 100
2, 40640, Note_on_c, 0, 68, 85
2, 40700, Note_off_c, 0, 68, 100
2, 40704, Note_on_c, 0, 69, 85
2, 40992, Note_on_c, 0, 70, 85
2, 41016, Note_on_c, 0, 69, 85
2, 41036, Note_off_c, 0, 70, 100
2, 41040, Note_on_c, 0, 67, 85
2, 41060, Note_off_c, 0, 69, 100
2, 41064, Note_on_c, 0, 69, 85
2, 41084, Note_off_c, 0, 69, 100
2, 41084, Note_off_c, 0, 67, 100
2, 41084, Note_off_c, 0, 69, 100
2, 41088, Note_on_c, 0, 72, 85
2, 41148, Note_off_c, 0, 72, 100
2, 41152, Note_on_c, 0, 70, 85
2, 41212, Note_off_c, 0, 70, 100
2, 41280, Note_on_c, 0, 70, 85
2, 41340, Note_off_c, 0, 70, 100
2, 41344, Note_on_c, 0, 69, 85
2, 41404, Note_off_c, 0, 69, 100
2, 41472, Note_on_c, 0, 69, 85
2, 41532, Note_off_c, 0, 69, 100
2, 41536, Note_on_c, 0, 67, 85
2, 41596, Note_off_c, 0, 67, 100
2, 41664, Note_on_c, 0, 67, 85
2, 41724, Note_off_c, 0, 67, 100
2, 41728, Note_on_c, 0, 65, 85
2, 41788, Note_off_c, 0, 65, 100
2, 41856, Note_on_c, 0, 74, 100
2, 42236, Note_off_c, 0, 74, 100
2, 42240, Note_on_c, 0, 76, 100
2, 42528, Note_on_c, 0, 77, 100
2, 42552, Note_on_c, 0, 76, 100
2, 42572, Note_off_c, 0, 77, 100
2, 42576, Note_on_c, 0, 74, 100
2, 42596, Note_off_c, 0, 76, 100
2, 42600, Note_on_c, 0, 76, 100
2, 42620, Note_off_c, 0, 76, 100
2, 42620, Note_off_c, 0, 74, 100
2, 42620, Note_off_c, 0, 76, 100
2, 42624, Note_on_c, 0, 79, 100
2, 42672, Note_on_c, 0, 77, 99
2, 42716, Note_off_c, 0, 79, 100
2, 42720, Note_on_c, 0, 76, 98
2, 42764, Note_off_c, 0, 77, 100
2, 42768, Note_on_c, 0, 77, 97
2, 42812, Note_off_c, 0, 76, 100
2, 42816, Note_on_c, 0, 76, 96
2, 42860, Note_off_c, 0, 77, 100
2, 42864, Note_on_c, 0, 77, 95
2, 42908, Note_off_c, 0, 76, 100
2, 42912, Note_on_c, 0, 79, 94
2, 42956, Note_off_c, 0, 77, 100
2, 42960, Note_on_c, 0, 77, 93
2, 43004, Note_off_c, 0, 79, 100
2, 43008, Note_on_c, 0, 76, 92
2, 43052, Note_off_c, 0, 77, 100
2, 43056, Note_on_c, 0, 74, 91
2, 43100, Note_off_c, 0, 76, 100
2, 43104, Note_on_c, 0, 73, 90
2, 43148, Note_off_c, 0, 74, 100
2, 43152, Note_on_c, 0, 74, 89
2, 43196, Note_off_c, 0, 73, 100
2, 43200, Note_on_c, 0, 76, 88
2, 43244, Note_off_c, 0, 74, 100
2, 43248, Note_on_c, 0, 74, 87
2, 43292, Note_off_c, 0, 76, 100
2, 43296, Note_on_c, 0, 72, 86
2, 43340, Note_off_c, 0, 74, 100
2, 43344, Note_on_c, 0, 70, 85
2, 43388, Note_off_c, 0, 72, 100
2, 43392, Note_on_c, 0, 69, 85
2, 43436, Note_off_c, 0, 70, 100
2, 43676, Note_off_c, 0, 69, 100
2, 43680, Note_on_c, 0, 70, 85
2, 43704, Note_on_c, 0, 69, 85
2, 43724, Note_off_c, 0, 70, 100
2, 43728, Note_on_c, 0, 67, 85
2, 43748, Note_off_c, 0, 69, 100
2, 43752, Note_on_c, 0, 69, 85
2, 43772, Note_off_c, 0, 67, 100
2, 43776, Note_on_c, 0, 72, 85
2, 43796, Note_off_c, 0, 69, 100
2, 43868, Note_off_c, 0, 72, 100
2, 43872, Note_on_c, 0, 70, 85
2, 43964, Note_off_c, 0, 70, 100
2, 43968, Note_on_c, 0, 67, 85
2, 44060, Note_off_c, 0, 67, 100
2, 44064, Note_on_c, 0, 64, 85
2, 44156, Note_off_c, 0, 64, 100
2, 44160, Note_on_c, 0, 67, 85
2, 44540, Note_off_c, 0, 67, 100
2, 44544, Note_on_c, 0, 65, 85
2, 44732, Note_off_c, 0, 65, 100
2, 44928, Note_on_c, 0, 72, 85
2, 45212, Note_off_c, 0, 72, 100
2, 45216, Note_on_c, 0, 77, 85
2, 45308, Note_off_c, 0, 77, 100
2, 45312, Note_on_c, 0, 77, 85
2, 45692, Note_off_c, 0, 77, 100
2, 45696, Note_on_c, 0, 76, 85
2, 46076, Note_off_c, 0, 76, 100
2, 46080, Note_on_c, 0, 77, 85
2, 46172, Note_off_c, 0, 77, 100
2, 46176, Note_on_c, 0, 79, 85
2, 46208, Note_on_c, 0, 77, 85
2, 46236, Note_off_c, 0, 79, 100
2, 46240, Note_on_c, 0, 76, 85
2, 46268, Note_off_c, 0, 77, 100
2, 46272, Note_on_c, 0, 77, 85
2, 46300, Note_off_c, 0, 76, 100
2, 46364, Note_off_c, 0, 77, 100
2, 46368, Note_on_c, 0, 81, 85
2, 46460, Note_off_c, 0, 81, 100
2, 46464, Note_on_c, 0, 84, 85
2, 46844, Note_off_c, 0, 84, 100
2, 46848, Note_on_c, 0, 83, 85
2, 46940, Note_off_c, 0, 83, 100
2, 46944, Note_on_c, 0, 84, 85
2, 47036, Note_off_c, 0, 84, 100
2, 47040, Note_on_c, 0, 86, 85
2, 47132, Note_off_c, 0, 86, 100
2, 47136, Note_on_c, 0, 84, 85
2, 47228, Note_off_c, 0, 84, 100
2, 47232, Note_on_c, 0, 82, 85
2, 47324, Note_off_c, 0, 82, 100
2, 47328, Note_on_c, 0, 81, 85
2, 47420, Note_off_c, 0, 81, 100
2, 47424, Note_on_c, 0, 79, 85
2, 47516, Note_off_c, 0, 79, 100
2, 47520, Note_on_c, 0, 77, 85
2, 47612, Note_off_c, 0, 77, 100
2, 47616, Note_on_c, 0, 77, 85
2, 47996, Note_off_c, 0, 77, 100
2, 48000, Note_on_c, 0, 76, 85
2, 48048, Note_on_c, 0, 77, 85
2, 48092, Note_off_c, 0, 76, 100
2, 48096, Note_on_c, 0, 76, 85
2, 48140, Note_off_c, 0, 77, 100
2, 48144, Note_on_c, 0, 74, 85
2, 48188, Note_off_c, 0, 76, 100
2, 48192, Note_on_c, 0, 76, 85
2, 48236, Note_off_c, 0, 74, 100
2, 48240, Note_on_c, 0, 72, 85
2, 48284, Note_off_c, 0, 76, 100
2, 48288, Note_on_c, 0, 74, 85
2, 48332, Note_off_c, 0, 72, 100
2, 48336, Note_on_c, 0, 76, 85
2, 48380, Note_off_c, 0, 74, 100
2, 48384, Note_on_c, 0, 77, 85
2, 48428, Note_off_c, 0, 76, 100
2, 48428, Note_off_c, 0, 77, 100
2, 48432, Note_on_c, 0, 79, 85
2, 48448, Note_on_c, 0, 77, 85
2, 48452, Note_off_c, 0, 79, 100
2, 48464, Note_on_c, 0, 76, 85
2, 48468, Note_off_c, 0, 77, 100
2, 48476, Note_off_c, 0, 76, 100
2, 48480, Note_on_c, 0, 77, 85
2, 48524, Note_off_c, 0, 77, 100
2, 48528, Note_on_c, 0, 79, 85
2, 48572, Note_off_c, 0, 79, 100
2, 48576, Note_on_c, 0, 81, 85
2, 48620, Note_off_c, 0, 81, 100
2, 48624, Note_on_c, 0, 82, 85
2, 48640, Note_on_c, 0, 81, 85
2, 48644, Note_off_c, 0, 82, 100
2, 48656, Note_on_c, 0, 79, 85
2, 48660, Note_off_c, 0, 81, 100
2, 48668, Note_off_c, 0, 79, 100
2, 48672, Note_on_c, 0, 81, 85
2, 48716, Note_off_c, 0, 81, 100
2, 48720, Note_on_c, 0, 83, 85
2, 48764, Note_off_c, 0, 83, 100
2, 48768, Note_on_c, 0, 86, 85
2, 48956, Note_off_c, 0, 86, 100
2, 48960, Note_on_c, 0, 84, 85
2, 49216, Note_on_c, 0, 83, 85
2, 49244, Note_off_c, 0, 84, 100
2, 49276, Note_off_c, 0, 83, 100
2, 49280, Note_on_c, 0, 84, 85
2, 49340, Note_off_c, 0, 84, 100
2, 49408, Note_on_c, 0, 86, 85
2, 49468, Note_off_c, 0, 86, 100
2, 49472, Note_on_c, 0, 84, 85
2, 49532, Note_off_c, 0, 84, 100
2, 49600, Note_on_c, 0, 84, 85
2, 49660, Note_off_c, 0, 84, 100
2, 49664, Note_on_c, 0, 83, 85
2, 49724, Note_off_c, 0, 83, 100
2, 49792, Note_on_c, 0, 84, 85
2, 49852, Note_off_c, 0, 84, 100
2, 49856, Note_on_c, 0, 82, 85
2, 49916, Note_off_c, 0, 82, 100
2, 49920, Note_on_c, 0, 81, 85
2, 50204, Note_off_c, 0, 81, 100
2, 50208, Note_on_c, 0, 82, 85
2, 50232, Note_on_c, 0, 81, 85
2, 50252, Note_off_c, 0, 82, 100
2, 50256, Note_on_c, 0, 79, 85
2, 50276, Note_off_c, 0, 81, 100
2, 50280, Note_on_c, 0, 81, 85
2, 50300, Note_off_c, 0, 79, 100
2, 50324, Note_off_c, 0, 81, 100
2, 50368, Note_on_c, 0, 84, 85
2, 50428, Note_off_c, 0, 84, 100
2, 50432, Note_on_c, 0, 82, 85
2, 50492, Note_off_c, 0, 82, 100
2, 50560, Note_on_c, 0, 82, 85
2, 50620, Note_off_c, 0, 82, 100
2, 50624, Note_on_c, 0, 81, 85
2, 50684, Note_off_c, 0, 81, 100
2, 50752, Note_on_c, 0, 81, 85
2, 50812, Note_off_c, 0, 81, 100
2, 50816, Note_on_c, 0, 79, 85
2, 50876, Note_off_c, 0, 79, 100
2, 50944, Note_on_c, 0, 79, 85
2, 51004, Note_off_c, 0, 79, 100
2, 51008, Note_on_c, 0, 77, 85
2, 51068, Note_off_c, 0, 77, 100
2, 51072, Note_on_c, 0, 76, 85
2, 51072, Note_on_c, 0, 72, 85
2, 51452, Note_off_c, 0, 76, 100
2, 51452, Note_off_c, 0, 72, 100
2, 51456, Note_on_c, 0, 74, 85
2, 51456, Note_on_c, 0, 70, 85
2, 51836, Note_off_c, 0, 74, 100
2, 51836, Note_off_c, 0, 70, 100
2, 51840, Note_on_c, 0, 74, 100
2, 51840, Note_on_c, 0, 86, 100
2, 52124, Note_off_c, 0, 74, 100
2, 52124, Note_off_c, 0, 86, 100
2, 52128, Note_on_c, 0, 72, 100
2, 52128, Note_on_c, 0, 84, 100
2, 52220, Note_off_c, 0, 72, 100
2, 52220, Note_off_c, 0, 84, 100
2, 52224, Note_on_c, 0, 84, 100
2, 52316, Note_off_c, 0, 84, 100
2, 52320, Note_on_c, 0, 89, 100
2, 52508, Note_off_c, 0, 89, 100
2, 52512, Note_on_c, 0, 88, 100
2, 52560, Note_on_c, 0, 86, 100
2, 52604, Note_off_c, 0, 88, 100
2, 52608, Note_on_c, 0, 85, 99
2, 52652, Note_off_c, 0, 86, 100
2, 52656, Note_on_c, 0, 88, 98
2, 52700, Note_off_c, 0, 85, 100
2, 52704, Note_on_c, 0, 86, 97
2, 52748, Note_off_c, 0, 88, 100
2, 52752, Note_on_c, 0, 84, 96
2, 52796, Note_off_c, 0, 86, 100
2, 52800, Note_on_c, 0, 82, 95
2, 52844, Note_off_c, 0, 84, 100
2, 52848, Note_on_c, 0, 81, 93
2, 52892, Note_off_c, 0, 82, 100
2, 52896, Note_on_c, 0, 84, 92
2, 52940, Note_off_c, 0, 81, 100
2, 52944, Note_on_c, 0, 82, 91
2, 52988, Note_off_c, 0, 84, 100
2, 52992, Note_on_c, 0, 81, 90
2, 53036, Note_off_c, 0, 82, 100
2, 53040, Note_on_c, 0, 79, 89
2, 53084, Note_off_c, 0, 81, 100
2, 53088, Note_on_c, 0, 82, 88
2, 53132, Note_off_c, 0, 79, 100
2, 53136, Note_on_c, 0, 79, 86
2, 53180, Note_off_c, 0, 82, 100
2, 53184, Note_on_c, 0, 77, 85
2, 53228, Note_off_c, 0, 79, 100
2, 53232, Note_on_c, 0, 76, 84
2, 53276, Note_off_c, 0, 77, 100
2, 53280, Note_on_c, 0, 79, 83
2, 53324, Note_off_c, 0, 76, 100
2, 53328, Note_on_c, 0, 76, 82
2, 53372, Note_off_c, 0, 79, 100
2, 53372, Note_off_c, 0, 76, 100
2, 53376, Note_on_c, 0, 76, 80
2, 53376, Note_on_c, 0, 79, 80
2, 53756, Note_off_c, 0, 76, 100
2, 53756, Note_off_c, 0, 79, 100
2, 53760, Note_on_c, 0, 77, 80
2, 53852, Note_off_c, 0, 77, 100
2, 53856, Note_on_c, 0, 72, 80
2, 53948, Note_off_c, 0, 72, 100
2, 53952, Note_on_c, 0, 77, 80
2, 54044, Note_off_c, 0, 77, 100
2, 54048, Note_on_c, 0, 72, 80
2, 54140, Note_off_c, 0, 72, 100
2, 54144, Note_on_c, 0, 70, 80
2, 54236, Note_off_c, 0, 70, 100
2, 54240, Note_on_c, 0, 69, 80
2, 54332, Note_off_c, 0, 69, 100
2, 54336, Note_on_c, 0, 67, 80
2, 54428, Note_off_c, 0, 67, 100
2, 54432, Note_on_c, 0, 65, 80
2, 54524, Note_off_c, 0, 65, 100
2, 54528, Note_on_c, 0, 65, 100
2, 54528, Note_on_c, 0, 55, 100
2, 54716, Note_off_c, 0, 65, 100
2, 54720, Note_on_c, 0, 64, 80
2, 54908, Note_off_c, 0, 55, 100
2, 54960, Note_on_c, 0, 65, 80
2, 55004, Note_off_c, 0, 64, 100
2, 55008, Note_on_c, 0, 67, 80
2, 55052, Note_off_c, 0, 65, 100
2, 55056, Note_on_c, 0, 65, 80
2, 55100, Note_off_c, 0, 67, 100
2, 55104, Note_on_c, 0, 64, 80
2, 55148, Note_off_c, 0, 65, 100
2, 55152, Note_on_c, 0, 65, 80
2, 55196, Note_off_c, 0, 64, 100
2, 55200, Note_on_c, 0, 67, 80
2, 55244, Note_off_c, 0, 65, 100
2, 55248, Note_on_c, 0, 64, 80
2, 55292, Note_off_c, 0, 67, 100
2, 55296, Note_on_c, 0, 65, 80
2, 55296, Note_on_c, 0, 60, 80
2, 55340, Note_off_c, 0, 64, 100
2, 55388, Note_off_c, 0, 65, 100
2, 55392, Note_on_c, 0, 67, 80
2, 55484, Note_off_c, 0, 67, 100
2, 55488, Note_on_c, 0, 69, 80
2, 55580, Note_off_c, 0, 69, 100
2, 55584, Note_on_c, 0, 65, 80
2, 55676, Note_off_c, 0, 60, 100
2, 55676, Note_off_c, 0, 65, 100
2, 55680, Note_on_c, 0, 65, 100
2, 55680, Note_on_c, 0, 55, 100
2, 55868, Note_off_c, 0, 65, 100
2, 55872, Note_on_c, 0, 64, 80
2, 56060, Note_off_c, 0, 55, 100
2, 56112, Note_on_c, 0, 65, 80
2, 56156, Note_off_c, 0, 64, 100
2, 56160, Note_on_c, 0, 67, 80
2, 56204, Note_off_c, 0, 65, 100
2, 56208, Note_on_c, 0, 65, 80
2, 56252, Note_off_c, 0, 67, 100
2, 56256, Note_on_c, 0, 64, 80
2, 56300, Note_off_c, 0, 65, 100
2, 56304, Note_on_c, 0, 65, 80
2, 56348, Note_off_c, 0, 64, 100
2, 56352, Note_on_c, 0, 67, 80
2, 56396, Note_off_c, 0, 65, 100
2, 56400, Note_on_c, 0, 64, 80
2, 56444, Note_off_c, 0, 67, 100
2, 56448, Note_on_c, 0, 60, 80
2, 56448, Note_on_c, 0, 65, 80
2, 56492, Note_off_c, 0, 64, 100
2, 56496, Note_on_c, 0, 69, 80
2, 56540, Note_off_c, 0, 65, 100
2, 56544, Note_on_c, 0, 72, 80
2, 56588, Note_off_c, 0, 69, 100
2, 56592, Note_on_c, 0, 70, 80
2, 56636, Note_off_c, 0, 72, 100
2, 56640, Note_on_c, 0, 69, 80
2, 56684, Note_off_c, 0, 70, 100
2, 56688, Note_on_c, 0, 67, 80
2, 56732, Note_off_c, 0, 69, 100
2, 56736, Note_on_c, 0, 65, 80
2, 56780, Note_off_c, 0, 67, 100
2, 56784, Note_on_c, 0, 63, 80
2, 56828, Note_off_c, 0, 60, 100
2, 56828, Note_off_c, 0, 65, 100
2, 56832, Note_on_c, 0, 62, 80
2, 56876, Note_off_c, 0, 63, 100
2, 56880, Note_on_c, 0, 63, 80
2, 56924, Note_off_c, 0, 62, 100
2, 56928, Note_on_c, 0, 62, 80
2, 56972, Note_off_c, 0, 63, 100
2, 56976, Note_on_c, 0, 61, 80
2, 57020, Note_off_c, 0, 62, 100
2, 57024, Note_on_c, 0, 62, 80
2, 57068, Note_off_c, 0, 61, 100
2, 57072, Note_on_c, 0, 64, 80
2, 57116, Note_off_c, 0, 62, 100
2, 57120, Note_on_c, 0, 65, 80
2, 57164, Note_off_c, 0, 64, 100
2, 57168, Note_on_c, 0, 66, 80
2, 57212, Note_off_c, 0, 65, 100
2, 57216, Note_on_c, 0, 67, 80
2, 57260, Note_off_c, 0, 66, 100
2, 57264, Note_on_c, 0, 69, 80
2, 57308, Note_off_c, 0, 67, 100
2, 57312, Note_on_c, 0, 70, 80
2, 57356, Note_off_c, 0, 69, 100
2, 57360, Note_on_c, 0, 72, 80
2, 57404, Note_off_c, 0, 70, 100
2, 57408, Note_on_c, 0, 74, 80
2, 57452, Note_off_c, 0, 72, 100
2, 57456, Note_on_c, 0, 76, 80
2, 57500, Note_off_c, 0, 74, 100
2, 57504, Note_on_c, 0, 77, 80
2, 57548, Note_off_c, 0, 76, 100
2, 57552, Note_on_c, 0, 78, 80
2, 57596, Note_off_c, 0, 77, 100
2, 57600, Note_on_c, 0, 79, 80
2, 57644, Note_off_c, 0, 78, 100
2, 57648, Note_on_c, 0, 81, 80
2, 57692, Note_off_c, 0, 79, 100
2, 57696, Note_on_c, 0, 82, 80
2, 57740, Note_off_c, 0, 81, 100
2, 57744, Note_on_c, 0, 84, 80
2, 57788, Note_off_c, 0, 82, 100
2, 57792, Note_on_c, 0, 86, 80
2, 57836, Note_off_c, 0, 84, 100
2, 57840, Note_on_c, 0, 88, 80
2, 57884, Note_off_c, 0, 86, 100
2, 57888, Note_on_c, 0, 89, 80
2, 57932, Note_off_c, 0, 88, 100
2, 57936, Note_on_c, 0, 86, 80
2, 57980, Note_off_c, 0, 89, 100
2, 57984, Note_on_c, 0, 84, 80
2, 58028, Note_off_c, 0, 86, 100
2, 58032, Note_on_c, 0, 86, 80
2, 58076, Note_off_c, 0, 84, 100
2, 58080, Note_on_c, 0, 84, 80
2, 58124, Note_off_c, 0, 86, 100
2, 58128, Note_on_c, 0, 83, 80
2, 58172, Note_off_c, 0, 84, 100
2, 58176, Note_on_c, 0, 84, 80
2, 58220, Note_off_c, 0, 83, 100
2, 58224, Note_on_c, 0, 89, 80
2, 58268, Note_off_c, 0, 84, 100
2, 58272, Note_on_c, 0, 88, 80
2, 58316, Note_off_c, 0, 89, 100
2, 58320, Note_on_c, 0, 86, 80
2, 58364, Note_off_c, 0, 88, 100
2, 58368, Note_on_c, 0, 84, 80
2, 58412, Note_off_c, 0, 86, 100
2, 58416, Note_on_c, 0, 83, 80
2, 58460, Note_off_c, 0, 84, 100
2, 58464, Note_on_c, 0, 82, 80
2, 58508, Note_off_c, 0, 83, 100
2, 58512, Note_on_c, 0, 81, 80
2, 58556, Note_off_c, 0, 82, 100
2, 58560, Note_on_c, 0, 79, 80
2, 58604, Note_off_c, 0, 81, 100
2, 58608, Note_on_c, 0, 77, 80
2, 58652, Note_off_c, 0, 79, 100
2, 58656, Note_on_c, 0, 76, 80
2, 58700, Note_off_c, 0, 77, 100
2, 58704, Note_on_c, 0, 74, 80
2, 58748, Note_off_c, 0, 76, 100
2, 58752, Note_on_c, 0, 72, 80
2, 58796, Note_off_c, 0, 74, 100
2, 58844, Note_off_c, 0, 72, 100
2, 58848, Note_on_c, 0, 70, 80
2, 58940, Note_off_c, 0, 70, 100
2, 58944, Note_on_c, 0, 69, 80
2, 59036, Note_off_c, 0, 69, 100
2, 59040, Note_on_c, 0, 67, 80
2, 59132, Note_off_c, 0, 67, 100
2, 59136, Note_on_c, 0, 65, 80
2, 59328, Note_on_c, 0, 53, 80
2, 59516, Note_off_c, 0, 53, 100
2, 59520, Note_on_c, 0, 58, 80
2, 59708, Note_off_c, 0, 58, 100
2, 59712, Note_on_c, 0, 57, 80
2, 59900, Note_off_c, 0, 57, 100
2, 59904, Note_on_c, 0, 55, 80
2, 60092, Note_off_c, 0, 65, 100
2, 60092, Note_off_c, 0, 55, 100
2, 60096, Note_on_c, 0, 53, 80
2, 60096, Note_on_c, 0, 60, 80
2, 60188, Note_off_c, 0, 60, 100
2, 60192, Note_on_c, 0, 65, 80
2, 60284, Note_off_c, 0, 53, 100
2, 60284, Note_off_c, 0, 65, 100
2, 60288, Note_on_c, 0, 65, 100
2, 60288, Note_on_c, 0, 60, 100
2, 60288, Note_on_c, 0, 58, 100
2, 60288, Note_on_c, 0, 55, 100
2, 60668, Note_off_c, 0, 65, 100
2, 60672, Note_on_c, 0, 64, 80
2, 61052, Note_off_c, 0, 60, 100
2, 61052, Note_off_c, 0, 58, 100
2, 61052, Note_off_c, 0, 55, 100
2, 61052, Note_off_c, 0, 64, 100
2, 61056, Note_on_c, 0, 64, 80
2, 61056, Note_on_c, 0, 60, 80
2, 61056, Note_on_c, 0, 58, 80
2, 61056, Note_on_c, 0, 55, 80
2, 61436, Note_off_c, 0, 64, 100
2, 61436, Note_off_c, 0, 60, 100
2, 61436, Note_off_c, 0, 58, 100
2, 61436, Note_off_c, 0, 55, 100
2, 61440, Note_on_c, 0, 65, 80
2, 61440, Note_on_c, 0, 60, 80
2, 61440, Note_on_c, 0, 57, 80
2, 61500, Note_off_c, 0, 65, 100
2, 61500, Note_off_c, 0, 60, 100
2, 61500, Note_off_c, 0, 57, 100
2, 61504, Note_on_c, 0, 57, 80
2, 61564, Note_off_c, 0, 57, 100
2, 61568, Note_on_c, 0, 60, 80
2, 61628, Note_off_c, 0, 60, 100
2, 61632, Note_on_c, 0, 65, 80
2, 61692, Note_off_c, 0, 65, 100
2, 61696, Note_on_c, 0, 69, 80
2, 61756, Note_off_c, 0, 69, 100
2, 61760, Note_on_c, 0, 72, 80
2, 61820, Note_off_c, 0, 72, 100
2, 61824, Note_on_c, 0, 72, 80
2, 61884, Note_off_c, 0, 72, 100
2, 61888, Note_on_c, 0, 65, 80
2, 61948, Note_off_c, 0, 65, 100
2, 61952, Note_on_c, 0, 70, 80
2, 62012, Note_off_c, 0, 70, 100
2, 62016, Note_on_c, 0, 70, 80
2, 62076, Note_off_c, 0, 70, 100
2, 62080, Note_on_c, 0, 64, 80
2, 62140, Note_off_c, 0, 64, 100
2, 62144, Note_on_c, 0, 69, 80
2, 62204, Note_off_c, 0, 69, 100
2, 62208, Note_on_c, 0, 69, 80
2, 62268, Note_off_c, 0, 69, 100
2, 62272, Note_on_c, 0, 62, 80
2, 62332, Note_off_c, 0, 62, 100
2, 62336, Note_on_c, 0, 67, 80
2, 62396, Note_off_c, 0, 67, 100
2, 62400, Note_on_c, 0, 67, 80
2, 62460, Note_off_c, 0, 67, 100
2, 62464, Note_on_c, 0, 60, 80
2, 62524, Note_off_c, 0, 60, 100
2, 62528, Note_on_c, 0, 65, 80
2, 62588, Note_off_c, 0, 65, 100
2, 62592, Note_on_c, 0, 65, 100
2, 62592, Note_on_c, 0, 60, 100
2, 62592, Note_on_c, 0, 58, 100
2, 62592, Note_on_c, 0, 55, 100
2, 62972, Note_off_c, 0, 65, 100
2, 62976, Note_on_c, 0, 64, 80
2, 63356, Note_off_c, 0, 60, 100
2, 63356, Note_off_c, 0, 58, 100
2, 63356, Note_off_c, 0, 55, 100
2, 63356, Note_off_c, 0, 64, 100
2, 63360, Note_on_c, 0, 76, 80
2, 63360, Note_on_c, 0, 72, 80
2, 63360, Note_on_c, 0, 70, 80
2, 63360, Note_on_c, 0, 67, 80
2, 63740, Note_off_c, 0, 76, 100
2, 63740, Note_off_c, 0, 72, 100
2, 63740, Note_off_c, 0, 70, 100
2, 63740, Note_off_c, 0, 67, 100
2, 63840, Note_on_c, 0, 65, 80
2, 63872, Note_on_c, 0, 69, 80
2, 63900, Note_off_c, 0, 65, 100
2, 63904, Note_on_c, 0, 72, 80
2, 63932, Note_off_c, 0, 69, 100
2, 63964, Note_off_c, 0, 72, 100
2, 64032, Note_on_c, 0, 77, 80
2, 64064, Note_on_c, 0, 81, 80
2, 64092, Note_off_c, 0, 77, 100
2, 64096, Note_on_c, 0, 84, 80
2, 64124, Note_off_c, 0, 81, 100
2, 64128, Note_on_c, 0, 84, 80
2, 64156, Note_off_c, 0, 84, 100
2, 64160, Note_on_c, 0, 81, 80
2, 64188, Note_off_c, 0, 84, 100
2, 64192, Note_on_c, 0, 82, 80
2, 64220, Note_off_c, 0, 81, 100
2, 64252, Note_off_c, 0, 82, 100
2, 64320, Note_on_c, 0, 82, 80
2, 64352, Note_on_c, 0, 80, 80
2, 64380, Note_off_c, 0, 82, 100
2, 64384, Note_on_c, 0, 81, 80
2, 64412, Note_off_c, 0, 80, 100
2, 64444, Note_off_c, 0, 81, 100
2, 64512, Note_on_c, 0, 81, 80
2, 64544, Note_on_c, 0, 78, 80
2, 64572, Note_off_c, 0, 81, 100
2, 64576, Note_on_c, 0, 79, 80
2, 64604, Note_off_c, 0, 78, 100
2, 64636, Note_off_c, 0, 79, 100
2, 64704, Note_on_c, 0, 79, 80
2, 64736, Note_on_c, 0, 76, 80
2, 64764, Note_off_c, 0, 79, 100
2, 64768, Note_on_c, 0, 77, 80
2, 64796, Note_off_c, 0, 76, 100
2, 64828, Note_off_c, 0, 77, 100
2, 64896, Note_on_c, 0, 77, 80
2, 65276, Note_off_c, 0, 77, 100
2, 65280, Note_on_c, 0, 76, 80
2, 65328, Note_on_c, 0, 72, 80
2, 65372, Note_off_c, 0, 76, 100
2, 65376, Note_on_c, 0, 74, 80
2, 65420, Note_off_c, 0, 72, 100
2, 65424, Note_on_c, 0, 76, 80
2, 65468, Note_off_c, 0, 74, 100
2, 65472, Note_on_c, 0, 77, 80
2, 65516, Note_off_c, 0, 76, 100
2, 65520, Note_on_c, 0, 79, 80
2, 65564, Note_off_c, 0, 77, 100
2, 65568, Note_on_c, 0, 81, 80
2, 65612, Note_off_c, 0, 79, 100
2, 65616, Note_on_c, 0, 82, 80
2, 65660, Note_off_c, 0, 81, 100
2, 65664, Note_on_c, 0, 84, 80
2, 65708, Note_off_c, 0, 82, 100
2, 65712, Note_on_c, 0, 83, 80
2, 65756, Note_off_c, 0, 84, 100
2, 65760, Note_on_c, 0, 84, 80
2, 65804, Note_off_c, 0, 83, 100
2, 65808, Note_on_c, 0, 86, 80
2, 65852, Note_off_c, 0, 84, 100
2, 65856, Note_on_c, 0, 84, 80
2, 65900, Note_off_c, 0, 86, 100
2, 65904, Note_on_c, 0, 82, 80
2, 65948, Note_off_c, 0, 84, 100
2, 65952, Note_on_c, 0, 81, 80
2, 65996, Note_off_c, 0, 82, 100
2, 66000, Note_on_c, 0, 79, 80
2, 66044, Note_off_c, 0, 81, 100
2, 66044, Note_off_c, 0, 79, 100
2, 66048, Note_on_c, 0, 77, 80
2, 66236, Note_off_c, 0, 77, 100
2, 66432, Note_on_c, 0, 74, 80
2, 66456, Note_on_c, 0, 72, 80
2, 66476, Note_off_c, 0, 74, 100
2, 66480, Note_on_c, 0, 71, 80
2, 66500, Note_off_c, 0, 72, 100
2, 66504, Note_on_c, 0, 72, 80
2, 66524, Note_off_c, 0, 71, 100
2, 66528, Note_on_c, 0, 74, 80
2, 66548, Note_off_c, 0, 72, 100
2, 66576, Note_on_c, 0, 76, 80
2, 66620, Note_off_c, 0, 74, 100
2, 66624, Note_on_c, 0, 77, 80
2, 66668, Note_off_c, 0, 76, 100
2, 66672, Note_on_c, 0, 79, 80
2, 66716, Note_off_c, 0, 77, 100
2, 66720, Note_on_c, 0, 81, 80
2, 66764, Note_off_c, 0, 79, 100
2, 66768, Note_on_c, 0, 82, 80
2, 66812, Note_off_c, 0, 81, 100
2, 66816, Note_on_c, 0, 84, 80
2, 66860, Note_off_c, 0, 82, 100
2, 66864, Note_on_c, 0, 83, 80
2, 66908, Note_off_c, 0, 84, 100
2, 66912, Note_on_c, 0, 84, 80
2, 66956, Note_off_c, 0, 83, 100
2, 66960, Note_on_c, 0, 86, 80
2, 67004, Note_off_c, 0, 84, 100
2, 67008, Note_on_c, 0, 84, 80
2, 67052, Note_off_c, 0, 86, 100
2, 67056, Note_on_c, 0, 82, 80
2, 67100, Note_off_c, 0, 84, 100
2, 67104, Note_on_c, 0, 81, 80
2, 67148, Note_off_c, 0, 82, 100
2, 67152, Note_on_c, 0, 79, 80
2, 67196, Note_off_c, 0, 81, 100
2, 67196, Note_off_c, 0, 79, 100
2, 67200, Note_on_c, 0, 79, 80
2, 67772, Note_off_c, 0, 79, 100
2, 67776, Note_on_c, 0, 81, 80
2, 67808, Note_on_c, 0, 79, 80
2, 67836, Note_off_c, 0, 81, 100
2, 67840, Note_on_c, 0, 78, 80
2, 67868, Note_off_c, 0, 79, 100
2, 67872, Note_on_c, 0, 79, 80
2, 67900, Note_off_c, 0, 78, 100
2, 67916, Note_off_c, 0, 79, 100
2, 67920, Note_on_c, 0, 81, 80
2, 67964, Note_off_c, 0, 81, 100
2, 67968, Note_on_c, 0, 84, 79
2, 68060, Note_off_c, 0, 84, 100
2, 68064, Note_on_c, 0, 82, 76
2, 68156, Note_off_c, 0, 82, 100
2, 68160, Note_on_c, 0, 79, 73
2, 68252, Note_off_c, 0, 79, 100
2, 68256, Note_on_c, 0, 76, 71
2, 68348, Note_off_c, 0, 76, 100
2, 68352, Note_on_c, 0, 79, 70
2, 68352, Note_on_c, 0, 76, 70
2, 68732, Note_off_c, 0, 79, 100
2, 68732, Note_off_c, 0, 76, 100
2, 68736, Note_on_c, 0, 77, 70
2, 68924, Note_off_c, 0, 77, 100
2, 69504, Note_on_c, 0, 79, 70
2, 69504, Note_on_c, 0, 76, 70
2, 69504, Note_on_c, 0, 72, 70
2, 69504, Note_on_c, 0, 70, 70
2, 69504, Note_on_c, 0, 67, 70
2, 69692, Note_off_c, 0, 79, 100
2, 69692, Note_off_c, 0, 76, 100
2, 69692, Note_off_c, 0, 72, 100
2, 69692, Note_off_c, 0, 70, 100
2, 69692, Note_off_c, 0, 67, 100
2, 69888, Note_on_c, 0, 77, 70
2, 69888, Note_on_c, 0, 72, 70
2, 69888, Note_on_c, 0, 69, 70
2, 70268, Note_off_c, 0, 77, 100
2, 70268, Note_off_c, 0, 72, 100
2, 70268, Note_off_c, 0, 69, 100
2, 70656, Control_c, 0, 7, 0
2, 70848, Note_on_c, 0, 65, 1
2, 71228, Note_off_c, 0, 65, 100
2, 71228, End_track
3, 0, Start_track
3, 0, Title_t, "Left"
3, 0, Control_c, 1, 0, 0
3, 0, Program_c, 1, 0
3, 0, Control_c, 1, 7, 100
3, 0, Control_c, 1, 10, 54
3, 0, Control_c, 1, 91, 127
3, 0, Key_signature, -1, "major"
3, 384, Note_on_c, 1, 53, 80
3, 384, Note_on_c, 1, 60, 80
3, 764, Note_off_c, 1, 60, 100
3, 768, Note_on_c, 1, 62, 80
3, 956, Note_off_c, 1, 62, 100
3, 960, Note_on_c, 1, 60, 80
3, 1148, Note_off_c, 1, 53, 100
3, 1148, Note_off_c, 1, 60, 100
3, 1152, Note_on_c, 1, 53, 80
3, 1152, Note_on_c, 1, 58, 80
3, 1340, Note_off_c, 1, 58, 100
3, 1344, Note_on_c, 1, 57, 80
3, 1532, Note_off_c, 1, 53, 100
3, 1532, Note_off_c, 1, 57, 100
3, 1536, Note_on_c, 1, 48, 80
3, 1536, Note_on_c, 1, 57, 80
3, 1916, Note_off_c, 1, 57, 100
3, 1920, Note_on_c, 1, 55, 80
3, 2108, Note_off_c, 1, 48, 100
3, 2108, Note_off_c, 1, 55, 100
3, 2688, Note_on_c, 1, 60, 80
3, 2688, Note_on_c, 1, 57, 80
3, 3068, Note_off_c, 1, 60, 100
3, 3068, Note_off_c, 1, 57, 100
3, 3072, Note_on_c, 1, 60, 80
3, 3072, Note_on_c, 1, 52, 80
3, 3452, Note_off_c, 1, 60, 100
3, 3452, Note_off_c, 1, 52, 100
3, 3456, Note_on_c, 1, 60, 80
3, 3456, Note_on_c, 1, 53, 80
3, 3836, Note_off_c, 1, 60, 100
3, 3836, Note_off_c, 1, 53, 100
3, 3840, Note_on_c, 1, 48, 80
3, 3840, Note_on_c, 1, 60, 80
3, 4412, Note_off_c, 1, 48, 100
3, 4412, Note_off_c, 1, 60, 100
3, 4992, Note_on_c, 1, 53, 80
3, 4992, Note_on_c, 1, 60, 80
3, 5372, Note_off_c, 1, 60, 100
3, 5376, Note_on_c, 1, 62, 80
3, 5564, Note_off_c, 1, 62, 100
3, 5568, Note_on_c, 1, 60, 80
3, 5756, Note_off_c, 1, 53, 100
3, 5756, Note_off_c, 1, 60, 100
3, 5760, Note_on_c, 1, 53, 80
3, 5760, Note_on_c, 1, 58, 80
3, 5948, Note_off_c, 1, 58, 100
3, 5952, Note_on_c, 1, 57, 80
3, 6140, Note_off_c, 1, 53, 100
3, 6140, Note_off_c, 1, 57, 100
3, 6144, Note_on_c, 1, 62, 80
3, 6144, Note_on_c, 1, 58, 80
3, 6524, Note_off_c, 1, 62, 100
3, 6524, Note_off_c, 1, 58, 100
3, 6528, Note_on_c, 1, 58, 81
3, 6528, Note_on_c, 1, 60, 81
3, 6908, Note_off_c, 1, 58, 100
3, 6908, Note_off_c, 1, 60, 100
3, 6912, Note_on_c, 1, 57, 82
3, 6912, Note_on_c, 1, 65, 82
3, 7292, Note_off_c, 1, 57, 100
3, 7292, Note_off_c, 1, 65, 100
3, 7296, Note_on_c, 1, 58, 83
3, 7296, Note_on_c, 1, 65, 83
3, 7676, Note_off_c, 1, 58, 100
3, 7676, Note_off_c, 1, 65, 100
3, 7680, Note_on_c, 1, 60, 84
3, 7680, Note_on_c, 1, 65, 84
3, 8060, Note_off_c, 1, 60, 100
3, 8060, Note_off_c, 1, 65, 100
3, 8064, Note_on_c, 1, 48, 85
3, 8156, Note_off_c, 1, 48, 100
3, 8160, Note_on_c, 1, 52, 85
3, 8252, Note_off_c, 1, 52, 100
3, 8256, Note_on_c, 1, 55, 86
3, 8348, Note_off_c, 1, 55, 100
3, 8352, Note_on_c, 1, 58, 86
3, 8444, Note_off_c, 1, 58, 100
3, 8448, Note_on_c, 1, 58, 86
3, 8448, Note_on_c, 1, 53, 86
3, 8828, Note_off_c, 1, 58, 100
3, 8832, Note_on_c, 1, 57, 87
3, 9020, Note_off_c, 1, 53, 100
3, 9020, Note_off_c, 1, 57, 100
3, 9600, Note_on_c, 1, 55, 90
3, 9600, Note_on_c, 1, 48, 90
3, 9692, Note_off_c, 1, 55, 100
3, 9696, Note_on_c, 1, 58, 90
3, 9788, Note_off_c, 1, 58, 100
3, 9792, Note_on_c, 1, 60, 91
3, 9884, Note_off_c, 1, 60, 100
3, 9888, Note_on_c, 1, 58, 92
3, 9980, Note_off_c, 1, 58, 100
3, 9984, Note_on_c, 1, 55, 93
3, 10076, Note_off_c, 1, 55, 100
3, 10080, Note_on_c, 1, 58, 94
3, 10172, Note_off_c, 1, 58, 100
3, 10176, Note_on_c, 1, 60, 95
3, 10268, Note_off_c, 1, 60, 100
3, 10272, Note_on_c, 1, 58, 96
3, 10364, Note_off_c, 1, 58, 100
3, 10368, Note_on_c, 1, 53, 97
3, 10460, Note_off_c, 1, 53, 100
3, 10464, Note_on_c, 1, 57, 98
3, 10556, Note_off_c, 1, 57, 100
3, 10560, Note_on_c, 1, 60, 99
3, 10652, Note_off_c, 1, 60, 100
3, 10656, Note_on_c, 1, 57, 99
3, 10748, Note_off_c, 1, 48, 100
3, 10748, Note_off_c, 1, 57, 100
3, 10752, Note_on_c, 1, 48, 100
3, 10752, Note_on_c, 1, 52, 100
3, 10844, Note_off_c, 1, 52, 100
3, 10848, Note_on_c, 1, 55, 100
3, 10940, Note_off_c, 1, 55, 100
3, 10944, Note_on_c, 1, 60, 100
3, 11036, Note_off_c, 1, 60, 100
3, 11040, Note_on_c, 1, 55, 100
3, 11132, Note_off_c, 1, 55, 100
3, 11136, Note_on_c, 1, 52, 100
3, 11228, Note_off_c, 1, 52, 100
3, 11232, Note_on_c, 1, 55, 100
3, 11324, Note_off_c, 1, 55, 100
3, 11328, Note_on_c, 1, 60, 100
3, 11420, Note_off_c, 1, 60, 100
3, 11424, Note_on_c, 1, 55, 100
3, 11516, Note_off_c, 1, 55, 100
3, 11520, Note_on_c, 1, 53, 100
3, 11612, Note_off_c, 1, 53, 100
3, 11616, Note_on_c, 1, 57, 100
3, 11708, Note_off_c, 1, 57, 100
3, 11712, Note_on_c, 1, 60, 100
3, 11804, Note_off_c, 1, 60, 100
3, 11808, Note_on_c, 1, 57, 100
3, 11900, Note_off_c, 1, 48, 100
3, 11900, Note_off_c, 1, 57, 100
3, 11904, Note_on_c, 1, 48, 100
3, 11904, Note_on_c, 1, 55, 100
3, 11996, Note_off_c, 1, 55, 100
3, 12000, Note_on_c, 1, 58, 100
3, 12092, Note_off_c, 1, 58, 100
3, 12096, Note_on_c, 1, 60, 100
3, 12188, Note_off_c, 1, 60, 100
3, 12192, Note_on_c, 1, 58, 100
3, 12284, Note_off_c, 1, 58, 100
3, 12288, Note_on_c, 1, 55, 100
3, 12380, Note_off_c, 1, 55, 100
3, 12384, Note_on_c, 1, 58, 100
3, 12476, Note_off_c, 1, 58, 100
3, 12480, Note_on_c, 1, 60, 100
3, 12572, Note_off_c, 1, 60, 100
3, 12576, Note_on_c, 1, 58, 100
3, 12668, Note_off_c, 1, 58, 100
3, 12672, Note_on_c, 1, 57, 100
3, 12764, Note_off_c, 1, 57, 100
3, 12768, Note_on_c, 1, 60, 100
3, 12860, Note_off_c, 1, 60, 100
3, 12864, Note_on_c, 1, 57, 100
3, 12956, Note_off_c, 1, 57, 100
3, 12960, Note_on_c, 1, 53, 100
3, 13052, Note_off_c, 1, 48, 100
3, 13052, Note_off_c, 1, 53, 100
3, 13056, Note_on_c, 1, 48, 100
3, 13148, Note_off_c, 1, 48, 100
3, 13152, Note_on_c, 1, 52, 100
3, 13244, Note_off_c, 1, 52, 100
3, 13248, Note_on_c, 1, 55, 100
3, 13340, Note_off_c, 1, 55, 100
3, 13344, Note_on_c, 1, 60, 100
3, 13436, Note_off_c, 1, 60, 100
3, 13440, Note_on_c, 1, 64, 80
3, 13532, Note_off_c, 1, 64, 100
3, 13536, Note_on_c, 1, 67, 80
3, 13628, Note_off_c, 1, 67, 100
3, 13632, Note_on_c, 1, 60, 80
3, 13724, Note_off_c, 1, 60, 100
3, 13728, Note_on_c, 1, 64, 80
3, 13820, Note_off_c, 1, 64, 100
3, 13824, Note_on_c, 1, 62, 80
3, 13916, Note_off_c, 1, 62, 100
3, 13920, Note_on_c, 1, 65, 80
3, 14012, Note_off_c, 1, 65, 100
3, 14016, Note_on_c, 1, 64, 80
3, 14108, Note_off_c, 1, 64, 100
3, 14112, Note_on_c, 1, 67, 80
3, 14204, Note_off_c, 1, 67, 100
3, 14208, Note_on_c, 1, 65, 80
3, 14304, Note_on_c, 1, 72, 80
3, 14396, Note_off_c, 1, 72, 100
3, 14400, Note_on_c, 1, 77, 80
3, 14492, Note_off_c, 1, 77, 100
3, 14496, Note_on_c, 1, 76, 80
3, 14588, Note_off_c, 1, 76, 100
3, 14592, Note_on_c, 1, 74, 80
3, 14780, Note_off_c, 1, 74, 100
3, 14784, Note_on_c, 1, 72, 80
3, 14972, Note_off_c, 1, 65, 100
3, 14972, Note_off_c, 1, 72, 100
3, 14976, Note_on_c, 1, 65, 80
3, 14976, Note_on_c, 1, 70, 80
3, 15164, Note_off_c, 1, 70, 100
3, 15168, Note_on_c, 1, 69, 80
3, 15356, Note_off_c, 1, 65, 100
3, 15356, Note_off_c, 1, 69, 100
3, 15360, Note_on_c, 1, 65, 80
3, 15360, Note_on_c, 1, 58, 80
3, 15932, Note_off_c, 1, 65, 100
3, 15932, Note_off_c, 1, 58, 100
3, 16128, Note_on_c, 1, 58, 110
3, 16128, Note_on_c, 1, 64, 110
3, 16412, Note_off_c, 1, 58, 100
3, 16412, Note_off_c, 1, 64, 100
3, 16416, Note_on_c, 1, 57, 110
3, 16416, Note_on_c, 1, 65, 110
3, 16508, Note_off_c, 1, 57, 100
3, 16508, Note_off_c, 1, 65, 100
3, 16512, Note_on_c, 1, 65, 110
3, 16512, Note_on_c, 1, 57, 110
3, 16892, Note_off_c, 1, 65, 100
3, 16892, Note_off_c, 1, 57, 100
3, 16896, Note_on_c, 1, 58, 100
3, 16992, Note_on_c, 1, 62, 100
3, 17084, Note_off_c, 1, 62, 100
3, 17088, Note_on_c, 1, 67, 100
3, 17180, Note_off_c, 1, 67, 100
3, 17184, Note_on_c, 1, 70, 100
3, 17276, Note_off_c, 1, 58, 100
3, 17276, Note_off_c, 1, 70, 100
3, 17280, Note_on_c, 1, 60, 100
3, 17280, Note_on_c, 1, 65, 100
3, 17372, Note_off_c, 1, 65, 100
3, 17376, Note_on_c, 1, 69, 100
3, 17468, Note_off_c, 1, 69, 100
3, 17472, Note_on_c, 1, 67, 100
3, 17564, Note_off_c, 1, 67, 100
3, 17568, Note_on_c, 1, 64, 100
3, 17660, Note_off_c, 1, 60, 100
3, 17660, Note_off_c, 1, 64, 100
3, 17664, Note_on_c, 1, 64, 100
3, 17664, Note_on_c, 1, 53, 100
3, 18044, Note_off_c, 1, 64, 100
3, 18048, Note_on_c, 1, 65, 80
3, 18236, Note_off_c, 1, 53, 100
3, 18236, Note_off_c, 1, 65, 100
3, 18912, Note_on_c, 1, 65, 80
3, 18912, Note_on_c, 1, 62, 80
3, 19004, Note_off_c, 1, 65, 100
3, 19004, Note_off_c, 1, 62, 100
3, 19008, Note_on_c, 1, 67, 80
3, 19008, Note_on_c, 1, 64, 80
3, 19100, Note_off_c, 1, 67, 100
3, 19100, Note_off_c, 1, 64, 100
3, 19104, Note_on_c, 1, 69, 80
3, 19104, Note_on_c, 1, 65, 80
3, 19196, Note_off_c, 1, 69, 100
3, 19196, Note_off_c, 1, 65, 100
3, 19296, Note_on_c, 1, 69, 80
3, 19296, Note_on_c, 1, 65, 80
3, 19388, Note_off_c, 1, 69, 100
3, 19388, Note_off_c, 1, 65, 100
3, 19392, Note_on_c, 1, 68, 80
3, 19392, Note_on_c, 1, 64, 80
3, 19484, Note_off_c, 1, 68, 100
3, 19484, Note_off_c, 1, 64, 100
3, 19488, Note_on_c, 1, 69, 80
3, 19488, Note_on_c, 1, 65, 80
3, 19580, Note_off_c, 1, 69, 100
3, 19580, Note_off_c, 1, 65, 100
3, 19680, Note_on_c, 1, 69, 80
3, 19680, Note_on_c, 1, 65, 80
3, 19772, Note_off_c, 1, 69, 100
3, 19772, Note_off_c, 1, 65, 100
3, 19776, Note_on_c, 1, 67, 80
3, 19776, Note_on_c, 1, 64, 80
3, 19868, Note_off_c, 1, 67, 100
3, 19868, Note_off_c, 1, 64, 100
3, 19872, Note_on_c, 1, 65, 80
3, 19872, Note_on_c, 1, 62, 80
3, 19964, Note_off_c, 1, 65, 100
3, 19964, Note_off_c, 1, 62, 100
3, 20064, Note_on_c, 1, 67, 80
3, 20064, Note_on_c, 1, 64, 80
3, 20156, Note_off_c, 1, 67, 100
3, 20156, Note_off_c, 1, 64, 100
3, 20160, Note_on_c, 1, 69, 80
3, 20160, Note_on_c, 1, 65, 80
3, 20252, Note_off_c, 1, 69, 100
3, 20252, Note_off_c, 1, 65, 100
3, 20256, Note_on_c, 1, 70, 80
3, 20256, Note_on_c, 1, 67, 80
3, 20348, Note_off_c, 1, 70, 100
3, 20348, Note_off_c, 1, 67, 100
3, 20448, Note_on_c, 1, 70, 80
3, 20448, Note_on_c, 1, 67, 80
3, 20540, Note_off_c, 1, 70, 100
3, 20540, Note_off_c, 1, 67, 100
3, 20544, Note_on_c, 1, 69, 80
3, 20544, Note_on_c, 1, 66, 80
3, 20636, Note_off_c, 1, 69, 100
3, 20636, Note_off_c, 1, 66, 100
3, 20640, Note_on_c, 1, 70, 80
3, 20640, Note_on_c, 1, 67, 80
3, 20732, Note_off_c, 1, 70, 100
3, 20732, Note_off_c, 1, 67, 100
3, 20832, Note_on_c, 1, 70, 80
3, 20832, Note_on_c, 1, 67, 80
3, 20924, Note_off_c, 1, 70, 100
3, 20924, Note_off_c, 1, 67, 100
3, 20928, Note_on_c, 1, 69, 80
3, 20928, Note_on_c, 1, 65, 80
3, 21020, Note_off_c, 1, 69, 100
3, 21020, Note_off_c, 1, 65, 100
3, 21024, Note_on_c, 1, 67, 80
3, 21024, Note_on_c, 1, 64, 80
3, 21116, Note_off_c, 1, 67, 100
3, 21116, Note_off_c, 1, 64, 100
3, 21216, Note_on_c, 1, 64, 80
3, 21216, Note_on_c, 1, 61, 80
3, 21308, Note_off_c, 1, 64, 100
3, 21308, Note_off_c, 1, 61, 100
3, 21312, Note_on_c, 1, 65, 80
3, 21312, Note_on_c, 1, 62, 80
3, 21404, Note_off_c, 1, 65, 100
3, 21404, Note_off_c, 1, 62, 100
3, 21408, Note_on_c, 1, 67, 80
3, 21408, Note_on_c, 1, 64, 80
3, 21500, Note_off_c, 1, 67, 100
3, 21500, Note_off_c, 1, 64, 100
3, 21600, Note_on_c, 1, 67, 80
3, 21600, Note_on_c, 1, 64, 80
3, 21692, Note_off_c, 1, 67, 100
3, 21692, Note_off_c, 1, 64, 100
3, 21696, Note_on_c, 1, 66, 80
3, 21696, Note_on_c, 1, 63, 80
3, 21788, Note_off_c, 1, 66, 100
3, 21788, Note_off_c, 1, 63, 100
3, 21792, Note_on_c, 1, 67, 80
3, 21792, Note_on_c, 1, 64, 80
3, 21884, Note_off_c, 1, 67, 100
3, 21884, Note_off_c, 1, 64, 100
3, 21984, Note_on_c, 1, 67, 80
3, 21984, Note_on_c, 1, 64, 80
3, 22076, Note_off_c, 1, 67, 100
3, 22076, Note_off_c, 1, 64, 100
3, 22080, Note_on_c, 1, 65, 80
3, 22080, Note_on_c, 1, 62, 80
3, 22172, Note_off_c, 1, 65, 100
3, 22172, Note_off_c, 1, 62, 100
3, 22176, Note_on_c, 1, 64, 80
3, 22176, Note_on_c, 1, 61, 80
3, 22268, Note_off_c, 1, 64, 100
3, 22268, Note_off_c, 1, 61, 100
3, 22368, Note_on_c, 1, 65, 80
3, 22368, Note_on_c, 1, 62, 80
3, 22460, Note_off_c, 1, 65, 100
3, 22460, Note_off_c, 1, 62, 100
3, 22464, Note_on_c, 1, 67, 80
3, 22464, Note_on_c, 1, 64, 80
3, 22556, Note_off_c, 1, 67, 100
3, 22556, Note_off_c, 1, 64, 100
3, 22560, Note_on_c, 1, 69, 80
3, 22560, Note_on_c, 1, 65, 80
3, 22652, Note_off_c, 1, 69, 100
3, 22652, Note_off_c, 1, 65, 100
3, 22752, Note_on_c, 1, 69, 80
3, 22752, Note_on_c, 1, 65, 80
3, 22844, Note_off_c, 1, 69, 100
3, 22844, Note_off_c, 1, 65, 100
3, 22848, Note_on_c, 1, 67, 80
3, 22848, Note_on_c, 1, 64, 80
3, 22940, Note_off_c, 1, 67, 100
3, 22940, Note_off_c, 1, 64, 100
3, 22944, Note_on_c, 1, 65, 80
3, 22944, Note_on_c, 1, 62, 80
3, 23036, Note_off_c, 1, 65, 100
3, 23036, Note_off_c, 1, 62, 100
3, 23136, Note_on_c, 1, 65, 80
3, 23136, Note_on_c, 1, 62, 80
3, 23228, Note_off_c, 1, 65, 100
3, 23228, Note_off_c, 1, 62, 100
3, 23232, Note_on_c, 1, 64, 80
3, 23232, Note_on_c, 1, 61, 80
3, 23324, Note_off_c, 1, 64, 100
3, 23324, Note_off_c, 1, 61, 100
3, 23328, Note_on_c, 1, 65, 80
3, 23328, Note_on_c, 1, 62, 80
3, 23420, Note_off_c, 1, 65, 100
3, 23420, Note_off_c, 1, 62, 100
3, 23520, Note_on_c, 1, 62, 80
3, 23520, Note_on_c, 1, 59, 80
3, 23612, Note_off_c, 1, 62, 100
3, 23612, Note_off_c, 1, 59, 100
3, 23616, Note_on_c, 1, 64, 80
3, 23616, Note_on_c, 1, 60, 80
3, 23708, Note_off_c, 1, 64, 100
3, 23708, Note_off_c, 1, 60, 100
3, 23712, Note_on_c, 1, 65, 80
3, 23712, Note_on_c, 1, 62, 80
3, 23804, Note_off_c, 1, 65, 100
3, 23804, Note_off_c, 1, 62, 100
3, 23904, Note_on_c, 1, 65, 80
3, 23904, Note_on_c, 1, 62, 80
3, 23996, Note_off_c, 1, 65, 100
3, 23996, Note_off_c, 1, 62, 100
3, 24000, Note_on_c, 1, 64, 80
3, 24000, Note_on_c, 1, 60, 80
3, 24092, Note_off_c, 1, 64, 100
3, 24092, Note_off_c, 1, 60, 100
3, 24096, Note_on_c, 1, 62, 80
3, 24096, Note_on_c, 1, 59, 80
3, 24188, Note_off_c, 1, 62, 100
3, 24188, Note_off_c, 1, 59, 100
3, 24288, Note_on_c, 1, 62, 80
3, 24288, Note_on_c, 1, 59, 80
3, 24380, Note_off_c, 1, 62, 100
3, 24380, Note_off_c, 1, 59, 100
3, 24384, Note_on_c, 1, 61, 80
3, 24384, Note_on_c, 1, 58, 80
3, 24476, Note_off_c, 1, 61, 100
3, 24476, Note_off_c, 1, 58, 100
3, 24480, Note_on_c, 1, 62, 80
3, 24480, Note_on_c, 1, 59, 80
3, 24572, Note_off_c, 1, 62, 100
3, 24572, Note_off_c, 1, 59, 100
3, 24672, Note_on_c, 1, 64, 81
3, 24672, Note_on_c, 1, 60, 81
3, 24764, Note_off_c, 1, 64, 100
3, 24764, Note_off_c, 1, 60, 100
3, 24768, Note_on_c, 1, 63, 83
3, 24768, Note_on_c, 1, 59, 83
3, 24860, Note_off_c, 1, 63, 100
3, 24860, Note_off_c, 1, 59, 100
3, 24864, Note_on_c, 1, 64, 85
3, 24864, Note_on_c, 1, 60, 85
3, 24956, Note_off_c, 1, 64, 100
3, 24956, Note_off_c, 1, 60, 100
3, 25056, Note_on_c, 1, 65, 89
3, 25056, Note_on_c, 1, 62, 89
3, 25148, Note_off_c, 1, 65, 100
3, 25148, Note_off_c, 1, 62, 100
3, 25152, Note_on_c, 1, 64, 90
3, 25152, Note_on_c, 1, 61, 90
3, 25244, Note_off_c, 1, 64, 100
3, 25244, Note_off_c, 1, 61, 100
3, 25248, Note_on_c, 1, 65, 92
3, 25248, Note_on_c, 1, 62, 92
3, 25340, Note_off_c, 1, 65, 100
3, 25340, Note_off_c, 1, 62, 100
3, 25440, Note_on_c, 1, 67, 96
3, 25440, Note_on_c, 1, 64, 96
3, 25532, Note_off_c, 1, 67, 100
3, 25532, Note_off_c, 1, 64, 100
3, 25536, Note_on_c, 1, 66, 98
3, 25536, Note_on_c, 1, 63, 98
3, 25628, Note_off_c, 1, 66, 100
3, 25628, Note_off_c, 1, 63, 100
3, 25632, Note_on_c, 1, 67, 99
3, 25632, Note_on_c, 1, 64, 99
3, 25724, Note_off_c, 1, 67, 100
3, 25724, Note_off_c, 1, 64, 100
3, 25728, Note_on_c, 1, 67, 100
3, 25728, Note_on_c, 1, 65, 100
3, 26108, Note_off_c, 1, 67, 100
3, 26112, Note_on_c, 1, 68, 100
3, 26300, Note_off_c, 1, 68, 100
3, 26304, Note_on_c, 1, 67, 100
3, 26492, Note_off_c, 1, 65, 100
3, 26492, Note_off_c, 1, 67, 100
3, 26496, Note_on_c, 1, 76, 100
3, 26496, Note_on_c, 1, 64, 100
3, 26496, Note_on_c, 1, 67, 100
3, 26684, Note_off_c, 1, 76, 100
3, 26688, Note_on_c, 1, 72, 100
3, 26876, Note_off_c, 1, 64, 100
3, 26876, Note_off_c, 1, 67, 100
3, 26876, Note_off_c, 1, 72, 100
3, 26880, Note_on_c, 1, 67, 100
3, 26880, Note_on_c, 1, 65, 100
3, 27260, Note_off_c, 1, 67, 100
3, 27264, Note_on_c, 1, 68, 100
3, 27452, Note_off_c, 1, 68, 100
3, 27456, Note_on_c, 1, 67, 100
3, 27644, Note_off_c, 1, 65, 100
3, 27644, Note_off_c, 1, 67, 100
3, 27648, Note_on_c, 1, 76, 100
3, 27648, Note_on_c, 1, 64, 100
3, 27648, Note_on_c, 1, 67, 100
3, 27836, Note_off_c, 1, 76, 100
3, 27840, Note_on_c, 1, 72, 100
3, 28028, Note_off_c, 1, 64, 100
3, 28028, Note_off_c, 1, 67, 100
3, 28028, Note_off_c, 1, 72, 100
3, 28032, Note_on_c, 1, 65, 100
3, 28032, Note_on_c, 1, 69, 100
3, 28220, Note_off_c, 1, 65, 100
3, 28220, Note_off_c, 1, 69, 100
3, 28800, Note_on_c, 1, 62, 100
3, 28800, Note_on_c, 1, 57, 100
3, 28800, Note_on_c, 1, 53, 100
3, 28988, Note_off_c, 1, 62, 100
3, 28988, Note_off_c, 1, 57, 100
3, 28988, Note_off_c, 1, 53, 100
3, 29184, Note_on_c, 1, 64, 100
3, 29184, Note_on_c, 1, 60, 100
3, 29184, Note_on_c, 1, 55, 100
3, 29372, Note_off_c, 1, 64, 100
3, 29372, Note_off_c, 1, 60, 100
3, 29372, Note_off_c, 1, 55, 100
3, 29952, Note_on_c, 1, 65, 89
3, 29952, Note_on_c, 1, 59, 89
3, 29952, Note_on_c, 1, 55, 89
3, 30140, Note_off_c, 1, 65, 100
3, 30140, Note_off_c, 1, 59, 100
3, 30140, Note_off_c, 1, 55, 100
3, 30336, Note_on_c, 1, 64, 80
3, 30336, Note_on_c, 1, 60, 80
3, 30524, Note_off_c, 1, 64, 100
3, 30524, Note_off_c, 1, 60, 100
3, 31488, Note_on_c, 1, 43, 100
3, 31488, Note_on_c, 1, 31, 100
3, 31960, Note_off_c, 1, 43, 100
3, 31960, Note_off_c, 1, 31, 100
3, 31968, Note_on_c, 1, 33, 80
3, 32016, Note_on_c, 1, 35, 80
3, 32060, Note_off_c, 1, 33, 100
3, 32064, Note_on_c, 1, 36, 80
3, 32108, Note_off_c, 1, 35, 100
3, 32112, Note_on_c, 1, 38, 80
3, 32156, Note_off_c, 1, 36, 100
3, 32160, Note_on_c, 1, 40, 80
3, 32204, Note_off_c, 1, 38, 100
3, 32208, Note_on_c, 1, 41, 80
3, 32252, Note_off_c, 1, 40, 100
3, 32256, Note_on_c, 1, 43, 80
3, 32300, Note_off_c, 1, 41, 100
3, 32304, Note_on_c, 1, 42, 80
3, 32348, Note_off_c, 1, 43, 100
3, 32352, Note_on_c, 1, 43, 80
3, 32396, Note_off_c, 1, 42, 100
3, 32400, Note_on_c, 1, 45, 80
3, 32444, Note_off_c, 1, 43, 100
3, 32448, Note_on_c, 1, 43, 80
3, 32492, Note_off_c, 1, 45, 100
3, 32496, Note_on_c, 1, 41, 80
3, 32540, Note_off_c, 1, 43, 100
3, 32544, Note_on_c, 1, 40, 80
3, 32588, Note_off_c, 1, 41, 100
3, 32592, Note_on_c, 1, 38, 80
3, 32636, Note_off_c, 1, 40, 100
3, 32636, Note_off_c, 1, 38, 100
3, 32640, Note_on_c, 1, 36, 80
3, 32828, Note_off_c, 1, 36, 100
3, 33088, Note_on_c, 1, 57, 80
3, 33148, Note_off_c, 1, 57, 100
3, 33152, Note_on_c, 1, 60, 80
3, 33212, Note_off_c, 1, 60, 100
3, 33280, Note_on_c, 1, 55, 80
3, 33340, Note_off_c, 1, 55, 100
3, 33344, Note_on_c, 1, 59, 80
3, 33404, Note_off_c, 1, 59, 100
3, 33472, Note_on_c, 1, 53, 80
3, 33532, Note_off_c, 1, 53, 100
3, 33536, Note_on_c, 1, 57, 80
3, 33596, Note_off_c, 1, 57, 100
3, 33664, Note_on_c, 1, 52, 80
3, 33724, Note_off_c, 1, 52, 100
3, 33728, Note_on_c, 1, 55, 80
3, 33788, Note_off_c, 1, 55, 100
3, 33792, Note_on_c, 1, 43, 100
3, 33792, Note_on_c, 1, 31, 100
3, 34264, Note_off_c, 1, 43, 100
3, 34264, Note_off_c, 1, 31, 100
3, 34272, Note_on_c, 1, 45, 80
3, 34320, Note_on_c, 1, 47, 80
3, 34364, Note_off_c, 1, 45, 100
3, 34368, Note_on_c, 1, 48, 80
3, 34412, Note_off_c, 1, 47, 100
3, 34416, Note_on_c, 1, 50, 80
3, 34460, Note_off_c, 1, 48, 100
3, 34464, Note_on_c, 1, 52, 80
3, 34508, Note_off_c, 1, 50, 100
3, 34512, Note_on_c, 1, 53, 80
3, 34556, Note_off_c, 1, 52, 100
3, 34560, Note_on_c, 1, 55, 80
3, 34604, Note_off_c, 1, 53, 100
3, 34608, Note_on_c, 1, 54, 80
3, 34652, Note_off_c, 1, 55, 100
3, 34656, Note_on_c, 1, 55, 80
3, 34700, Note_off_c, 1, 54, 100
3, 34704, Note_on_c, 1, 57, 80
3, 34748, Note_off_c, 1, 55, 100
3, 34752, Note_on_c, 1, 55, 80
3, 34796, Note_off_c, 1, 57, 100
3, 34800, Note_on_c, 1, 53, 80
3, 34844, Note_off_c, 1, 55, 100
3, 34848, Note_on_c, 1, 52, 80
3, 34892, Note_off_c, 1, 53, 100
3, 34896, Note_on_c, 1, 50, 80
3, 34940, Note_off_c, 1, 52, 100
3, 34940, Note_off_c, 1, 50, 100
3, 34944, Note_on_c, 1, 48, 80
3, 35328, Note_on_c, 1, 58, 80
3, 35516, Note_off_c, 1, 58, 100
3, 35520, Note_on_c, 1, 55, 80
3, 35708, Note_off_c, 1, 55, 100
3, 35712, Note_on_c, 1, 52, 80
3, 35900, Note_off_c, 1, 52, 100
3, 35904, Note_on_c, 1, 60, 80
3, 36092, Note_off_c, 1, 48, 100
3, 36092, Note_off_c, 1, 60, 100
3, 36096, Note_on_c, 1, 53, 85
3, 36096, Note_on_c, 1, 60, 85
3, 36476, Note_off_c, 1, 60, 100
3, 36480, Note_on_c, 1, 62, 85
3, 36668, Note_off_c, 1, 62, 100
3, 36672, Note_on_c, 1, 60, 85
3, 36860, Note_off_c, 1, 53, 100
3, 36860, Note_off_c, 1, 60, 100
3, 36864, Note_on_c, 1, 53, 85
3, 36864, Note_on_c, 1, 58, 85
3, 37052, Note_off_c, 1, 58, 100
3, 37056, Note_on_c, 1, 57, 85
3, 37244, Note_off_c, 1, 53, 100
3, 37244, Note_off_c, 1, 57, 100
3, 37248, Note_on_c, 1, 48, 85
3, 37248, Note_on_c, 1, 57, 85
3, 37628, Note_off_c, 1, 57, 100
3, 37632, Note_on_c, 1, 55, 85
3, 37820, Note_off_c, 1, 48, 100
3, 37820, Note_off_c, 1, 55, 100
3, 38400, Note_on_c, 1, 60, 85
3, 38400, Note_on_c, 1, 57, 85
3, 38780, Note_off_c, 1, 60, 100
3, 38780, Note_off_c, 1, 57, 100
3, 38784, Note_on_c, 1, 60, 85
3, 38784, Note_on_c, 1, 52, 85
3, 39164, Note_off_c, 1, 60, 100
3, 39164, Note_off_c, 1, 52, 100
3, 39168, Note_on_c, 1, 60, 85
3, 39168, Note_on_c, 1, 53, 85
3, 39548, Note_off_c, 1, 60, 100
3, 39548, Note_off_c, 1, 53, 100
3, 39552, Note_on_c, 1, 48, 85
3, 39552, Note_on_c, 1, 60, 85
3, 40124, Note_off_c, 1, 48, 100
3, 40124, Note_off_c, 1, 60, 100
3, 40704, Note_on_c, 1, 53, 85
3, 40764, Note_off_c, 1, 53, 100
3, 40768, Note_on_c, 1, 57, 85
3, 40828, Note_off_c, 1, 57, 100
3, 40832, Note_on_c, 1, 60, 85
3, 40892, Note_off_c, 1, 60, 100
3, 40896, Note_on_c, 1, 65, 85
3, 40956, Note_off_c, 1, 65, 100
3, 40960, Note_on_c, 1, 64, 85
3, 41020, Note_off_c, 1, 64, 100
3, 41024, Note_on_c, 1, 63, 85
3, 41084, Note_off_c, 1, 63, 100
3, 41152, Note_on_c, 1, 62, 85
3, 41212, Note_off_c, 1, 62, 100
3, 41216, Note_on_c, 1, 65, 85
3, 41276, Note_off_c, 1, 65, 100
3, 41344, Note_on_c, 1, 65, 85
3, 41404, Note_off_c, 1, 65, 100
3, 41408, Note_on_c, 1, 60, 85
3, 41468, Note_off_c, 1, 60, 100
3, 41536, Note_on_c, 1, 58, 85
3, 41596, Note_off_c, 1, 58, 100
3, 41600, Note_on_c, 1, 64, 85
3, 41660, Note_off_c, 1, 64, 100
3, 41728, Note_on_c, 1, 60, 85
3, 41788, Note_off_c, 1, 60, 100
3, 41792, Note_on_c, 1, 57, 85
3, 41852, Note_off_c, 1, 57, 100
3, 41856, Note_on_c, 1, 58, 100
3, 41916, Note_off_c, 1, 58, 100
3, 41920, Note_on_c, 1, 62, 100
3, 41980, Note_off_c, 1, 62, 100
3, 41984, Note_on_c, 1, 65, 100
3, 42044, Note_off_c, 1, 65, 100
3, 42048, Note_on_c, 1, 70, 100
3, 42108, Note_off_c, 1, 70, 100
3, 42112, Note_on_c, 1, 65, 100
3, 42172, Note_off_c, 1, 65, 100
3, 42176, Note_on_c, 1, 62, 100
3, 42236, Note_off_c, 1, 62, 100
3, 42240, Note_on_c, 1, 58, 100
3, 42300, Note_off_c, 1, 58, 100
3, 42304, Note_on_c, 1, 60, 100
3, 42364, Note_off_c, 1, 60, 100
3, 42368, Note_on_c, 1, 64, 100
3, 42428, Note_off_c, 1, 64, 100
3, 42432, Note_on_c, 1, 67, 100
3, 42492, Note_off_c, 1, 67, 100
3, 42496, Note_on_c, 1, 64, 100
3, 42556, Note_off_c, 1, 64, 100
3, 42560, Note_on_c, 1, 60, 100
3, 42620, Note_off_c, 1, 60, 100
3, 42624, Note_on_c, 1, 57, 100
3, 42684, Note_off_c, 1, 57, 100
3, 42688, Note_on_c, 1, 60, 99
3, 42748, Note_off_c, 1, 60, 100
3, 42752, Note_on_c, 1, 65, 97
3, 42812, Note_off_c, 1, 65, 100
3, 42816, Note_on_c, 1, 69, 96
3, 42876, Note_off_c, 1, 69, 100
3, 42880, Note_on_c, 1, 65, 94
3, 42940, Note_off_c, 1, 65, 100
3, 42944, Note_on_c, 1, 60, 93
3, 43004, Note_off_c, 1, 60, 100
3, 43008, Note_on_c, 1, 58, 92
3, 43068, Note_off_c, 1, 58, 100
3, 43072, Note_on_c, 1, 62, 90
3, 43132, Note_off_c, 1, 62, 100
3, 43136, Note_on_c, 1, 65, 89
3, 43196, Note_off_c, 1, 65, 100
3, 43200, Note_on_c, 1, 67, 88
3, 43260, Note_off_c, 1, 67, 100
3, 43264, Note_on_c, 1, 65, 86
3, 43324, Note_off_c, 1, 65, 100
3, 43328, Note_on_c, 1, 62, 85
3, 43388, Note_off_c, 1, 62, 100
3, 43392, Note_on_c, 1, 48, 85
3, 43452, Note_off_c, 1, 48, 100
3, 43456, Note_on_c, 1, 53, 85
3, 43516, Note_off_c, 1, 53, 100
3, 43520, Note_on_c, 1, 57, 85
3, 43580, Note_off_c, 1, 57, 100
3, 43584, Note_on_c, 1, 60, 85
3, 43644, Note_off_c, 1, 60, 100
3, 43648, Note_on_c, 1, 57, 85
3, 43708, Note_off_c, 1, 57, 100
3, 43712, Note_on_c, 1, 53, 85
3, 43772, Note_off_c, 1, 53, 100
3, 43776, Note_on_c, 1, 48, 85
3, 43836, Note_off_c, 1, 48, 100
3, 43840, Note_on_c, 1, 55, 85
3, 43900, Note_off_c, 1, 55, 100
3, 43904, Note_on_c, 1, 58, 85
3, 43964, Note_off_c, 1, 58, 100
3, 43968, Note_on_c, 1, 60, 85
3, 44028, Note_off_c, 1, 60, 100
3, 44032, Note_on_c, 1, 58, 85
3, 44092, Note_off_c, 1, 58, 100
3, 44096, Note_on_c, 1, 55, 85
3, 44156, Note_off_c, 1, 55, 100
3, 44160, Note_on_c, 1, 53, 85
3, 44220, Note_off_c, 1, 53, 100
3, 44224, Note_on_c, 1, 58, 85
3, 44284, Note_off_c, 1, 58, 100
3, 44288, Note_on_c, 1, 60, 85
3, 44348, Note_off_c, 1, 60, 100
3, 44352, Note_on_c, 1, 64, 85
3, 44412, Note_off_c, 1, 64, 100
3, 44416, Note_on_c, 1, 60, 85
3, 44476, Note_off_c, 1, 60, 100
3, 44480, Note_on_c, 1, 58, 85
3, 44540, Note_off_c, 1, 58, 100
3, 44544, Note_on_c, 1, 53, 85
3, 44604, Note_off_c, 1, 53, 100
3, 44608, Note_on_c, 1, 57, 85
3, 44668, Note_off_c, 1, 57, 100
3, 44672, Note_on_c, 1, 60, 85
3, 44732, Note_off_c, 1, 60, 100
3, 44736, Note_on_c, 1, 65, 85
3, 44796, Note_off_c, 1, 65, 100
3, 44800, Note_on_c, 1, 60, 85
3, 44860, Note_off_c, 1, 60, 100
3, 44864, Note_on_c, 1, 58, 85
3, 44924, Note_off_c, 1, 58, 100
3, 44928, Note_on_c, 1, 57, 85
3, 44988, Note_off_c, 1, 57, 100
3, 44992, Note_on_c, 1, 60, 85
3, 45052, Note_off_c, 1, 60, 100
3, 45056, Note_on_c, 1, 58, 85
3, 45116, Note_off_c, 1, 58, 100
3, 45120, Note_on_c, 1, 57, 85
3, 45180, Note_off_c, 1, 57, 100
3, 45184, Note_on_c, 1, 55, 85
3, 45244, Note_off_c, 1, 55, 100
3, 45248, Note_on_c, 1, 53, 100
3, 45308, Note_off_c, 1, 53, 100
3, 45312, Note_on_c, 1, 48, 85
3, 45372, Note_off_c, 1, 48, 100
3, 45376, Note_on_c, 1, 55, 85
3, 45436, Note_off_c, 1, 55, 100
3, 45440, Note_on_c, 1, 58, 85
3, 45500, Note_off_c, 1, 58, 100
3, 45504, Note_on_c, 1, 60, 85
3, 45564, Note_off_c, 1, 60, 100
3, 45568, Note_on_c, 1, 58, 85
3, 45628, Note_off_c, 1, 58, 100
3, 45632, Note_on_c, 1, 55, 85
3, 45692, Note_off_c, 1, 55, 100
3, 45696, Note_on_c, 1, 48, 85
3, 45756, Note_off_c, 1, 48, 100
3, 45760, Note_on_c, 1, 55, 85
3, 45820, Note_off_c, 1, 55, 100
3, 45824, Note_on_c, 1, 58, 85
3, 45884, Note_off_c, 1, 58, 100
3, 45888, Note_on_c, 1, 60, 85
3, 45948, Note_off_c, 1, 60, 100
3, 45952, Note_on_c, 1, 58, 85
3, 46012, Note_off_c, 1, 58, 100
3, 46016, Note_on_c, 1, 55, 85
3, 46076, Note_off_c, 1, 55, 100
3, 46080, Note_on_c, 1, 48, 85
3, 46140, Note_off_c, 1, 48, 100
3, 46144, Note_on_c, 1, 53, 85
3, 46204, Note_off_c, 1, 53, 100
3, 46208, Note_on_c, 1, 57, 85
3, 46268, Note_off_c, 1, 57, 100
3, 46272, Note_on_c, 1, 60, 85
3, 46332, Note_off_c, 1, 60, 100
3, 46336, Note_on_c, 1, 57, 85
3, 46396, Note_off_c, 1, 57, 100
3, 46400, Note_on_c, 1, 53, 85
3, 46460, Note_off_c, 1, 53, 100
3, 46464, Note_on_c, 1, 46, 85
3, 46524, Note_off_c, 1, 46, 100
3, 46528, Note_on_c, 1, 52, 85
3, 46588, Note_off_c, 1, 52, 100
3, 46592, Note_on_c, 1, 55, 85
3, 46652, Note_off_c, 1, 55, 100
3, 46656, Note_on_c, 1, 60, 85
3, 46716, Note_off_c, 1, 60, 100
3, 46720, Note_on_c, 1, 55, 85
3, 46780, Note_off_c, 1, 55, 100
3, 46784, Note_on_c, 1, 52, 85
3, 46844, Note_off_c, 1, 52, 100
3, 46848, Note_on_c, 1, 46, 85
3, 46908, Note_off_c, 1, 46, 100
3, 46912, Note_on_c, 1, 52, 85
3, 46972, Note_off_c, 1, 52, 100
3, 46976, Note_on_c, 1, 55, 85
3, 47036, Note_off_c, 1, 55, 100
3, 47040, Note_on_c, 1, 60, 85
3, 47100, Note_off_c, 1, 60, 100
3, 47104, Note_on_c, 1, 55, 85
3, 47164, Note_off_c, 1, 55, 100
3, 47168, Note_on_c, 1, 52, 85
3, 47228, Note_off_c, 1, 52, 100
3, 47232, Note_on_c, 1, 48, 85
3, 47292, Note_off_c, 1, 48, 100
3, 47296, Note_on_c, 1, 53, 85
3, 47356, Note_off_c, 1, 53, 100
3, 47360, Note_on_c, 1, 57, 85
3, 47420, Note_off_c, 1, 57, 100
3, 47424, Note_on_c, 1, 60, 85
3, 47484, Note_off_c, 1, 60, 100
3, 47488, Note_on_c, 1, 57, 85
3, 47548, Note_off_c, 1, 57, 100
3, 47552, Note_on_c, 1, 53, 85
3, 47612, Note_off_c, 1, 53, 100
3, 47616, Note_on_c, 1, 48, 85
3, 47676, Note_off_c, 1, 48, 100
3, 47680, Note_on_c, 1, 55, 85
3, 47740, Note_off_c, 1, 55, 100
3, 47744, Note_on_c, 1, 58, 85
3, 47804, Note_off_c, 1, 58, 100
3, 47808, Note_on_c, 1, 60, 85
3, 47868, Note_off_c, 1, 60, 100
3, 47872, Note_on_c, 1, 58, 85
3, 47932, Note_off_c, 1, 58, 100
3, 47936, Note_on_c, 1, 55, 85
3, 47996, Note_off_c, 1, 55, 100
3, 48000, Note_on_c, 1, 48, 85
3, 48060, Note_off_c, 1, 48, 100
3, 48064, Note_on_c, 1, 55, 85
3, 48124, Note_off_c, 1, 55, 100
3, 48128, Note_on_c, 1, 58, 85
3, 48188, Note_off_c, 1, 58, 100
3, 48192, Note_on_c, 1, 60, 85
3, 48252, Note_off_c, 1, 60, 100
3, 48256, Note_on_c, 1, 58, 85
3, 48316, Note_off_c, 1, 58, 100
3, 48320, Note_on_c, 1, 55, 85
3, 48380, Note_off_c, 1, 55, 100
3, 48384, Note_on_c, 1, 48, 85
3, 48444, Note_off_c, 1, 48, 100
3, 48448, Note_on_c, 1, 53, 85
3, 48508, Note_off_c, 1, 53, 100
3, 48512, Note_on_c, 1, 57, 85
3, 48572, Note_off_c, 1, 57, 100
3, 48576, Note_on_c, 1, 60, 85
3, 48636, Note_off_c, 1, 60, 100
3, 48640, Note_on_c, 1, 57, 85
3, 48700, Note_off_c, 1, 57, 100
3, 48704, Note_on_c, 1, 53, 85
3, 48764, Note_off_c, 1, 53, 100
3, 48768, Note_on_c, 1, 48, 85
3, 48828, Note_off_c, 1, 48, 100
3, 48832, Note_on_c, 1, 52, 85
3, 48892, Note_off_c, 1, 52, 100
3, 48896, Note_on_c, 1, 55, 85
3, 48956, Note_off_c, 1, 55, 100
3, 48960, Note_on_c, 1, 60, 85
3, 49020, Note_off_c, 1, 60, 100
3, 49024, Note_on_c, 1, 64, 85
3, 49084, Note_off_c, 1, 64, 100
3, 49088, Note_on_c, 1, 62, 85
3, 49148, Note_off_c, 1, 62, 100
3, 49152, Note_on_c, 1, 60, 85
3, 49212, Note_off_c, 1, 60, 100
3, 49216, Note_on_c, 1, 64, 85
3, 49276, Note_off_c, 1, 64, 100
3, 49280, Note_on_c, 1, 67, 85
3, 49340, Note_off_c, 1, 67, 100
3, 49344, Note_on_c, 1, 72, 85
3, 49404, Note_off_c, 1, 72, 100
3, 49408, Note_on_c, 1, 60, 85
3, 49468, Note_off_c, 1, 60, 100
3, 49472, Note_on_c, 1, 64, 85
3, 49532, Note_off_c, 1, 64, 100
3, 49536, Note_on_c, 1, 62, 85
3, 49596, Note_off_c, 1, 62, 100
3, 49600, Note_on_c, 1, 65, 85
3, 49660, Note_off_c, 1, 65, 100
3, 49664, Note_on_c, 1, 72, 85
3, 49724, Note_off_c, 1, 72, 100
3, 49728, Note_on_c, 1, 64, 85
3, 49788, Note_off_c, 1, 64, 100
3, 49792, Note_on_c, 1, 67, 85
3, 49852, Note_off_c, 1, 67, 100
3, 49856, Note_on_c, 1, 72, 85
3, 49916, Note_off_c, 1, 72, 100
3, 49920, Note_on_c, 1, 65, 85
3, 49984, Note_on_c, 1, 69, 85
3, 50044, Note_off_c, 1, 69, 100
3, 50048, Note_on_c, 1, 72, 85
3, 50108, Note_off_c, 1, 72, 100
3, 50112, Note_on_c, 1, 77, 85
3, 50172, Note_off_c, 1, 77, 100
3, 50176, Note_on_c, 1, 76, 85
3, 50236, Note_off_c, 1, 76, 100
3, 50240, Note_on_c, 1, 75, 85
3, 50300, Note_off_c, 1, 75, 100
3, 50304, Note_on_c, 1, 74, 85
3, 50364, Note_off_c, 1, 74, 100
3, 50368, Note_on_c, 1, 77, 85
3, 50428, Note_off_c, 1, 77, 100
3, 50432, Note_on_c, 1, 74, 85
3, 50492, Note_off_c, 1, 74, 100
3, 50496, Note_on_c, 1, 72, 85
3, 50556, Note_off_c, 1, 72, 100
3, 50560, Note_on_c, 1, 76, 85
3, 50620, Note_off_c, 1, 76, 100
3, 50624, Note_on_c, 1, 72, 85
3, 50684, Note_off_c, 1, 65, 100
3, 50684, Note_off_c, 1, 72, 100
3, 50688, Note_on_c, 1, 70, 85
3, 50688, Note_on_c, 1, 65, 85
3, 50748, Note_off_c, 1, 70, 100
3, 50752, Note_on_c, 1, 74, 85
3, 50812, Note_off_c, 1, 74, 100
3, 50816, Note_on_c, 1, 70, 85
3, 50876, Note_off_c, 1, 70, 100
3, 50880, Note_on_c, 1, 69, 85
3, 50940, Note_off_c, 1, 69, 100
3, 50944, Note_on_c, 1, 72, 85
3, 51004, Note_off_c, 1, 72, 100
3, 51008, Note_on_c, 1, 69, 85
3, 51068, Note_off_c, 1, 65, 100
3, 51068, Note_off_c, 1, 69, 100
3, 51072, Note_on_c, 1, 65, 85
3, 51072, Note_on_c, 1, 58, 85
3, 51644, Note_off_c, 1, 58, 100
3, 51648, Note_on_c, 1, 57, 100
3, 51836, Note_off_c, 1, 65, 100
3, 51836, Note_off_c, 1, 57, 100
3, 51840, Note_on_c, 1, 65, 100
3, 51840, Note_on_c, 1, 56, 100
3, 51840, Note_on_c, 1, 59, 100
3, 52124, Note_off_c, 1, 56, 100
3, 52124, Note_off_c, 1, 59, 100
3, 52128, Note_on_c, 1, 57, 100
3, 52128, Note_on_c, 1, 60, 100
3, 52220, Note_off_c, 1, 65, 100
3, 52220, Note_off_c, 1, 57, 100
3, 52220, Note_off_c, 1, 60, 100
3, 52224, Note_on_c, 1, 57, 100
3, 52224, Note_on_c, 1, 60, 100
3, 52224, Note_on_c, 1, 65, 100
3, 52604, Note_off_c, 1, 57, 100
3, 52604, Note_off_c, 1, 60, 100
3, 52604, Note_off_c, 1, 65, 100
3, 52608, Note_on_c, 1, 58, 99
3, 52608, Note_on_c, 1, 62, 99
3, 52796, Note_off_c, 1, 62, 100
3, 52800, Note_on_c, 1, 67, 95
3, 52988, Note_off_c, 1, 58, 100
3, 52988, Note_off_c, 1, 67, 100
3, 52992, Note_on_c, 1, 60, 90
3, 52992, Note_on_c, 1, 64, 90
3, 53180, Note_off_c, 1, 64, 100
3, 53184, Note_on_c, 1, 70, 85
3, 53372, Note_off_c, 1, 60, 100
3, 53372, Note_off_c, 1, 70, 100
3, 53376, Note_on_c, 1, 65, 80
3, 53376, Note_on_c, 1, 70, 80
3, 53756, Note_off_c, 1, 70, 100
3, 53760, Note_on_c, 1, 69, 80
3, 53948, Note_off_c, 1, 65, 100
3, 53948, Note_off_c, 1, 69, 100
3, 54528, Note_on_c, 1, 48, 100
3, 54528, Note_on_c, 1, 46, 100
3, 54908, Note_off_c, 1, 48, 100
3, 54912, Note_on_c, 1, 49, 80
3, 55100, Note_off_c, 1, 49, 100
3, 55104, Note_on_c, 1, 48, 80
3, 55292, Note_off_c, 1, 46, 100
3, 55292, Note_off_c, 1, 48, 100
3, 55296, Note_on_c, 1, 45, 80
3, 55296, Note_on_c, 1, 57, 80
3, 55484, Note_off_c, 1, 57, 100
3, 55488, Note_on_c, 1, 53, 80
3, 55676, Note_off_c, 1, 45, 100
3, 55676, Note_off_c, 1, 53, 100
3, 55680, Note_on_c, 1, 48, 100
3, 55680, Note_on_c, 1, 46, 100
3, 56060, Note_off_c, 1, 48, 100
3, 56064, Note_on_c, 1, 49, 80
3, 56252, Note_off_c, 1, 49, 100
3, 56256, Note_on_c, 1, 48, 80
3, 56444, Note_off_c, 1, 46, 100
3, 56444, Note_off_c, 1, 48, 100
3, 56448, Note_on_c, 1, 45, 80
3, 56448, Note_on_c, 1, 57, 80
3, 56636, Note_off_c, 1, 57, 100
3, 56640, Note_on_c, 1, 53, 80
3, 56828, Note_off_c, 1, 45, 100
3, 56828, Note_off_c, 1, 53, 100
3, 56832, Note_on_c, 1, 46, 80
3, 56832, Note_on_c, 1, 50, 80
3, 57020, Note_off_c, 1, 46, 100
3, 57020, Note_off_c, 1, 50, 100
3, 57600, Note_on_c, 1, 58, 80
3, 57600, Note_on_c, 1, 62, 80
3, 57600, Note_on_c, 1, 67, 80
3, 57788, Note_off_c, 1, 58, 100
3, 57788, Note_off_c, 1, 62, 100
3, 57788, Note_off_c, 1, 67, 100
3, 57984, Note_on_c, 1, 60, 80
3, 57984, Note_on_c, 1, 65, 80
3, 57984, Note_on_c, 1, 69, 80
3, 58172, Note_off_c, 1, 60, 100
3, 58172, Note_off_c, 1, 65, 100
3, 58172, Note_off_c, 1, 69, 100
3, 58752, Note_on_c, 1, 58, 80
3, 58752, Note_on_c, 1, 52, 80
3, 58752, Note_on_c, 1, 48, 80
3, 59132, Note_off_c, 1, 58, 100
3, 59132, Note_off_c, 1, 52, 100
3, 59132, Note_off_c, 1, 48, 100
3, 59136, Note_on_c, 1, 41, 80
3, 59328, Note_on_c, 1, 45, 80
3, 59516, Note_off_c, 1, 45, 100
3, 59520, Note_on_c, 1, 50, 80
3, 59708, Note_off_c, 1, 50, 100
3, 59712, Note_on_c, 1, 48, 80
3, 59900, Note_off_c, 1, 41, 100
3, 59900, Note_off_c, 1, 48, 100
3, 59904, Note_on_c, 1, 41, 80
3, 59904, Note_on_c, 1, 46, 80
3, 60092, Note_off_c, 1, 46, 100
3, 60096, Note_on_c, 1, 45, 80
3, 60284, Note_off_c, 1, 41, 100
3, 60284, Note_off_c, 1, 45, 100
3, 60288, Note_on_c, 1, 48, 100
3, 60288, Note_on_c, 1, 36, 100
3, 60768, Note_on_c, 1, 38, 80
3, 60816, Note_on_c, 1, 40, 80
3, 60860, Note_off_c, 1, 48, 100
3, 60860, Note_off_c, 1, 36, 100
3, 60860, Note_off_c, 1, 38, 100
3, 60864, Note_on_c, 1, 41, 80
3, 60908, Note_off_c, 1, 40, 100
3, 60912, Note_on_c, 1, 43, 80
3, 60956, Note_off_c, 1, 41, 100
3, 60960, Note_on_c, 1, 45, 80
3, 61004, Note_off_c, 1, 43, 100
3, 61008, Note_on_c, 1, 46, 80
3, 61052, Note_off_c, 1, 45, 100
3, 61056, Note_on_c, 1, 48, 80
3, 61100, Note_off_c, 1, 46, 100
3, 61104, Note_on_c, 1, 47, 80
3, 61148, Note_off_c, 1, 48, 100
3, 61152, Note_on_c, 1, 48, 80
3, 61196, Note_off_c, 1, 47, 100
3, 61200, Note_on_c, 1, 50, 80
3, 61244, Note_off_c, 1, 48, 100
3, 61248, Note_on_c, 1, 48, 80
3, 61292, Note_off_c, 1, 50, 100
3, 61296, Note_on_c, 1, 46, 80
3, 61340, Note_off_c, 1, 48, 100
3, 61344, Note_on_c, 1, 45, 80
3, 61388, Note_off_c, 1, 46, 100
3, 61392, Note_on_c, 1, 43, 80
3, 61436, Note_off_c, 1, 45, 100
3, 61436, Note_off_c, 1, 43, 100
3, 61440, Note_on_c, 1, 41, 80
3, 61820, Note_off_c, 1, 41, 100
3, 61888, Note_on_c, 1, 63, 80
3, 61948, Note_off_c, 1, 63, 100
3, 61952, Note_on_c, 1, 62, 80
3, 62012, Note_off_c, 1, 62, 100
3, 62080, Note_on_c, 1, 62, 80
3, 62140, Note_off_c, 1, 62, 100
3, 62144, Note_on_c, 1, 60, 80
3, 62204, Note_off_c, 1, 60, 100
3, 62272, Note_on_c, 1, 60, 80
3, 62332, Note_off_c, 1, 60, 100
3, 62336, Note_on_c, 1, 58, 80
3, 62396, Note_off_c, 1, 58, 100
3, 62464, Note_on_c, 1, 58, 80
3, 62524, Note_off_c, 1, 58, 100
3, 62528, Note_on_c, 1, 57, 80
3, 62588, Note_off_c, 1, 57, 100
3, 62592, Note_on_c, 1, 48, 100
3, 62592, Note_on_c, 1, 36, 100
3, 63072, Note_on_c, 1, 50, 80
3, 63120, Note_on_c, 1, 52, 80
3, 63164, Note_off_c, 1, 48, 100
3, 63164, Note_off_c, 1, 36, 100
3, 63164, Note_off_c, 1, 50, 100
3, 63168, Note_on_c, 1, 53, 80
3, 63212, Note_off_c, 1, 52, 100
3, 63216, Note_on_c, 1, 55, 80
3, 63260, Note_off_c, 1, 53, 100
3, 63264, Note_on_c, 1, 57, 80
3, 63308, Note_off_c, 1, 55, 100
3, 63312, Note_on_c, 1, 58, 80
3, 63356, Note_off_c, 1, 57, 100
3, 63360, Note_on_c, 1, 60, 80
3, 63404, Note_off_c, 1, 58, 100
3, 63408, Note_on_c, 1, 59, 80
3, 63452, Note_off_c, 1, 60, 100
3, 63456, Note_on_c, 1, 60, 80
3, 63500, Note_off_c, 1, 59, 100
3, 63504, Note_on_c, 1, 62, 80
3, 63548, Note_off_c, 1, 60, 100
3, 63552, Note_on_c, 1, 60, 80
3, 63596, Note_off_c, 1, 62, 100
3, 63600, Note_on_c, 1, 58, 80
3, 63644, Note_off_c, 1, 60, 100
3, 63648, Note_on_c, 1, 57, 80
3, 63692, Note_off_c, 1, 58, 100
3, 63696, Note_on_c, 1, 55, 80
3, 63740, Note_off_c, 1, 57, 100
3, 63740, Note_off_c, 1, 55, 100
3, 63744, Note_on_c, 1, 53, 80
3, 63776, Note_on_c, 1, 57, 80
3, 63804, Note_off_c, 1, 53, 100
3, 63808, Note_on_c, 1, 60, 80
3, 63836, Note_off_c, 1, 57, 100
3, 63868, Note_off_c, 1, 60, 100
3, 63936, Note_on_c, 1, 65, 80
3, 63968, Note_on_c, 1, 69, 80
3, 63996, Note_off_c, 1, 65, 100
3, 64000, Note_on_c, 1, 72, 80
3, 64028, Note_off_c, 1, 69, 100
3, 64060, Note_off_c, 1, 72, 100
3, 64224, Note_on_c, 1, 73, 80
3, 64256, Note_on_c, 1, 74, 80
3, 64284, Note_off_c, 1, 73, 100
3, 64288, Note_on_c, 1, 77, 80
3, 64316, Note_off_c, 1, 74, 100
3, 64348, Note_off_c, 1, 77, 100
3, 64416, Note_on_c, 1, 71, 80
3, 64448, Note_on_c, 1, 72, 80
3, 64476, Note_off_c, 1, 71, 100
3, 64480, Note_on_c, 1, 76, 80
3, 64508, Note_off_c, 1, 72, 100
3, 64540, Note_off_c, 1, 76, 100
3, 64608, Note_on_c, 1, 69, 80
3, 64640, Note_on_c, 1, 70, 80
3, 64668, Note_off_c, 1, 69, 100
3, 64672, Note_on_c, 1, 74, 80
3, 64700, Note_off_c, 1, 70, 100
3, 64732, Note_off_c, 1, 74, 100
3, 64800, Note_on_c, 1, 68, 80
3, 64832, Note_on_c, 1, 69, 80
3, 64860, Note_off_c, 1, 68, 100
3, 64864, Note_on_c, 1, 72, 80
3, 64892, Note_off_c, 1, 69, 100
3, 64892, Note_off_c, 1, 72, 100
3, 64896, Note_on_c, 1, 60, 80
3, 64896, Note_on_c, 1, 67, 80
3, 64896, Note_on_c, 1, 70, 80
3, 65468, Note_off_c, 1, 60, 100
3, 65468, Note_off_c, 1, 67, 100
3, 65468, Note_off_c, 1, 70, 100
3, 65664, Note_on_c, 1, 60, 80
3, 65664, Note_on_c, 1, 64, 80
3, 65664, Note_on_c, 1, 67, 80
3, 65664, Note_on_c, 1, 70, 80
3, 66044, Note_off_c, 1, 60, 100
3, 66044, Note_off_c, 1, 64, 100
3, 66044, Note_off_c, 1, 67, 100
3, 66044, Note_off_c, 1, 70, 100
3, 66048, Note_on_c, 1, 65, 80
3, 66048, Note_on_c, 1, 69, 80
3, 66236, Note_off_c, 1, 65, 100
3, 66236, Note_off_c, 1, 69, 100
3, 66816, Note_on_c, 1, 60, 80
3, 66816, Note_on_c, 1, 64, 80
3, 66816, Note_on_c, 1, 67, 80
3, 66816, Note_on_c, 1, 70, 80
3, 67196, Note_off_c, 1, 60, 100
3, 67196, Note_off_c, 1, 64, 100
3, 67196, Note_off_c, 1, 67, 100
3, 67196, Note_off_c, 1, 70, 100
3, 67200, Note_on_c, 1, 65, 80
3, 67200, Note_on_c, 1, 70, 80
3, 67580, Note_off_c, 1, 70, 100
3, 67584, Note_on_c, 1, 72, 80
3, 67964, Note_off_c, 1, 72, 100
3, 67968, Note_on_c, 1, 73, 79
3, 68348, Note_off_c, 1, 65, 100
3, 68348, Note_off_c, 1, 73, 100
3, 68352, Note_on_c, 1, 73, 70
3, 68352, Note_on_c, 1, 70, 70
3, 68352, Note_on_c, 1, 65, 70
3, 68732, Note_off_c, 1, 73, 100
3, 68732, Note_off_c, 1, 70, 100
3, 68736, Note_on_c, 1, 69, 70
3, 68736, Note_on_c, 1, 72, 70
3, 68924, Note_off_c, 1, 65, 100
3, 68924, Note_off_c, 1, 69, 100
3, 68924, Note_off_c, 1, 72, 100
3, 69504, Note_on_c, 1, 60, 70
3, 69504, Note_on_c, 1, 55, 70
3, 69504, Note_on_c, 1, 52, 70
3, 69504, Note_on_c, 1, 48, 70
3, 69692, Note_off_c, 1, 60, 100
3, 69692, Note_off_c, 1, 55, 100
3, 69692, Note_off_c, 1, 52, 100
3, 69692, Note_off_c, 1, 48, 100
3, 69888, Note_on_c, 1, 53, 70
3, 69888, Note_on_c, 1, 48, 70
3, 69888, Note_on_c, 1, 45, 70
3, 69888, Note_on_c, 1, 41, 70
3, 70268, Note_off_c, 1, 53, 100
3, 70268, Note_off_c, 1, 48, 100
3, 70268, Note_off_c, 1, 45, 100
3, 70268, Note_off_c, 1, 41, 100
3, 70268, End_track
0, 0, End_of_file
