0, 0, Header, 1, 18, 384
1, 0, Start_track
1, 0, Title_t, "L.v.Beethoven 4mov - Piano Sonata No.1 in f minor Op.2-1\000"
1, 0, Copyright_t, "Copyright(C) 1995-2009, Suzuki Software\000"
1, 0, Sequencer_specific, 9, 67, 123, 0, 88, 70, 48, 50, 0, 1
1, 0, Text_t, "XFhd:2000/02/27:JP:Classical::::L.v.Beethoven:::Kaoru Suzuki\000"
1, 0, Text_t, "XFln:JP:\203s\203A\203m\203\\\203i\203^\221æ1\224Ô\203w\222Z\222²\215ì\225i2-1\201`\221æ4\212y\217Í:L.v.\203x\201[\203g\201[\203\224\203F\203\223:::\227é\202¿\202á\202ñ:\227é\202¿\202á\202ñ\000"
1, 0, Time_signature, 4, 2, 96, 8
1, 0, Sequencer_specific, 3, 0, 0, 65
1, 0, Sequencer_specific, 5, 0, 0, 119, 14, 0
1, 0, Tempo, 285714
1, 0, End_track
2, 0, Start_track
2, 0, Title_t, "Right"
2, 0, Control_c, 0, 0, 0
2, 0, Program_c, 0, 0
2, 0, Control_c, 0, 7, 100
2, 0, Control_c, 0, 10, 72
2, 0, Control_c, 0, 91, 127
2, 0, Key_signature, -4, "minor"
2, 768, Note_on_c, 0, 77, 80
2, 768, Note_on_c, 0, 72, 80
2, 768, Note_on_c, 0, 68, 80
2, 768, Note_on_c, 0, 65, 80
2, 1148, Note_off_c, 0, 77, 100
2, 1148, Note_off_c, 0, 72, 100
2, 1148, Note_off_c, 0, 68, 100
2, 1148, Note_off_c, 0, 65, 100
2, 1152, Note_on_c, 0, 76, 80
2, 1152, Note_on_c, 0, 70, 80
2, 1152, Note_on_c, 0, 67, 80
2, 1152, Note_on_c, 0, 64, 80
2, 1152, Note_on_c, 0, 73, 80
2, 1532, Note_off_c, 0, 76, 100
2, 1532, Note_off_c, 0, 70, 100
2, 1532, Note_off_c, 0, 67, 100
2, 1532, Note_off_c, 0, 64, 100
2, 1532, Note_off_c, 0, 73, 100
2, 1536, Note_on_c, 0, 77, 80
2, 1536, Note_on_c, 0, 72, 80
2, 1536, Note_on_c, 0, 68, 80
2, 1536, Note_on_c, 0, 65, 80
2, 1916, Note_off_c, 0, 77, 100
2, 1916, Note_off_c, 0, 72, 100
2, 1916, Note_off_c, 0, 68, 100
2, 1916, Note_off_c, 0, 65, 100
2, 2304, Note_on_c, 0, 84, 110
2, 2304, Note_on_c, 0, 80, 110
2, 2304, Note_on_c, 0, 77, 110
2, 2304, Note_on_c, 0, 72, 110
2, 2684, Note_off_c, 0, 84, 100
2, 2684, Note_off_c, 0, 80, 100
2, 2684, Note_off_c, 0, 77, 100
2, 2684, Note_off_c, 0, 72, 100
2, 2688, Note_on_c, 0, 84, 110
2, 2688, Note_on_c, 0, 82, 110
2, 2688, Note_on_c, 0, 79, 110
2, 2688, Note_on_c, 0, 72, 110
2, 3068, Note_off_c, 0, 84, 100
2, 3068, Note_off_c, 0, 82, 100
2, 3068, Note_off_c, 0, 79, 100
2, 3068, Note_off_c, 0, 72, 100
2, 3072, Note_on_c, 0, 84, 110
2, 3072, Note_on_c, 0, 80, 110
2, 3072, Note_on_c, 0, 77, 110
2, 3072, Note_on_c, 0, 72, 110
2, 3452, Note_off_c, 0, 84, 100
2, 3452, Note_off_c, 0, 80, 100
2, 3452, Note_off_c, 0, 77, 100
2, 3452, Note_off_c, 0, 72, 100
2, 3840, Note_on_c, 0, 77, 80
2, 3840, Note_on_c, 0, 72, 80
2, 3840, Note_on_c, 0, 68, 80
2, 3840, Note_on_c, 0, 65, 80
2, 4220, Note_off_c, 0, 77, 100
2, 4220, Note_off_c, 0, 72, 100
2, 4220, Note_off_c, 0, 68, 100
2, 4220, Note_off_c, 0, 65, 100
2, 4224, Note_on_c, 0, 76, 80
2, 4224, Note_on_c, 0, 70, 80
2, 4224, Note_on_c, 0, 67, 80
2, 4224, Note_on_c, 0, 64, 80
2, 4224, Note_on_c, 0, 73, 80
2, 4604, Note_off_c, 0, 76, 100
2, 4604, Note_off_c, 0, 70, 100
2, 4604, Note_off_c, 0, 67, 100
2, 4604, Note_off_c, 0, 64, 100
2, 4604, Note_off_c, 0, 73, 100
2, 4608, Note_on_c, 0, 77, 80
2, 4608, Note_on_c, 0, 72, 80
2, 4608, Note_on_c, 0, 68, 80
2, 4608, Note_on_c, 0, 65, 80
2, 4988, Note_off_c, 0, 77, 100
2, 4988, Note_off_c, 0, 72, 100
2, 4988, Note_off_c, 0, 68, 100
2, 4988, Note_off_c, 0, 65, 100
2, 5376, Note_on_c, 0, 84, 110
2, 5376, Note_on_c, 0, 80, 110
2, 5376, Note_on_c, 0, 77, 110
2, 5376, Note_on_c, 0, 72, 110
2, 5756, Note_off_c, 0, 84, 100
2, 5756, Note_off_c, 0, 80, 100
2, 5756, Note_off_c, 0, 77, 100
2, 5756, Note_off_c, 0, 72, 100
2, 5760, Note_on_c, 0, 84, 110
2, 5760, Note_on_c, 0, 82, 110
2, 5760, Note_on_c, 0, 79, 110
2, 5760, Note_on_c, 0, 72, 110
2, 6140, Note_off_c, 0, 84, 100
2, 6140, Note_off_c, 0, 82, 100
2, 6140, Note_off_c, 0, 79, 100
2, 6140, Note_off_c, 0, 72, 100
2, 6144, Note_on_c, 0, 84, 110
2, 6144, Note_on_c, 0, 80, 110
2, 6144, Note_on_c, 0, 77, 110
2, 6144, Note_on_c, 0, 72, 110
2, 6524, Note_off_c, 0, 84, 100
2, 6524, Note_off_c, 0, 80, 100
2, 6524, Note_off_c, 0, 77, 100
2, 6524, Note_off_c, 0, 72, 100
2, 6912, Note_on_c, 0, 75, 80
2, 7292, Note_off_c, 0, 75, 100
2, 7296, Note_on_c, 0, 75, 80
2, 7676, Note_off_c, 0, 75, 100
2, 7680, Note_on_c, 0, 75, 80
2, 8060, Note_off_c, 0, 75, 100
2, 8064, Note_on_c, 0, 80, 80
2, 8444, Note_off_c, 0, 80, 100
2, 8448, Note_on_c, 0, 75, 80
2, 8828, Note_off_c, 0, 75, 100
2, 8832, Note_on_c, 0, 75, 80
2, 9212, Note_off_c, 0, 75, 100
2, 9216, Note_on_c, 0, 75, 80
2, 9596, Note_off_c, 0, 75, 100
2, 9600, Note_on_c, 0, 80, 80
2, 9980, Note_off_c, 0, 80, 100
2, 9984, Note_on_c, 0, 75, 80
2, 10364, Note_off_c, 0, 75, 100
2, 10368, Note_on_c, 0, 76, 80
2, 10748, Note_off_c, 0, 76, 100
2, 10752, Note_on_c, 0, 77, 80
2, 11132, Note_off_c, 0, 77, 100
2, 11136, Note_on_c, 0, 79, 80
2, 11516, Note_off_c, 0, 79, 100
2, 11520, Note_on_c, 0, 80, 80
2, 11900, Note_off_c, 0, 80, 100
2, 11904, Note_on_c, 0, 83, 80
2, 12284, Note_off_c, 0, 83, 100
2, 12288, Note_on_c, 0, 84, 80
2, 12668, Note_off_c, 0, 84, 100
2, 13056, Note_on_c, 0, 72, 80
2, 13436, Note_off_c, 0, 72, 100
2, 13440, Note_on_c, 0, 72, 80
2, 13820, Note_off_c, 0, 72, 100
2, 13824, Note_on_c, 0, 72, 80
2, 13888, Note_on_c, 0, 73, 80
2, 13948, Note_off_c, 0, 72, 100
2, 13952, Note_on_c, 0, 72, 80
2, 14012, Note_off_c, 0, 73, 100
2, 14016, Note_on_c, 0, 73, 80
2, 14076, Note_off_c, 0, 72, 100
2, 14080, Note_on_c, 0, 72, 80
2, 14140, Note_off_c, 0, 73, 100
2, 14144, Note_on_c, 0, 73, 80
2, 14204, Note_off_c, 0, 72, 100
2, 14208, Note_on_c, 0, 77, 80
2, 14268, Note_off_c, 0, 73, 100
2, 14588, Note_off_c, 0, 77, 100
2, 14592, Note_on_c, 0, 72, 80
2, 14972, Note_off_c, 0, 72, 100
2, 14976, Note_on_c, 0, 72, 80
2, 15356, Note_off_c, 0, 72, 100
2, 15360, Note_on_c, 0, 72, 80
2, 15424, Note_on_c, 0, 73, 80
2, 15484, Note_off_c, 0, 72, 100
2, 15488, Note_on_c, 0, 72, 80
2, 15548, Note_off_c, 0, 73, 100
2, 15552, Note_on_c, 0, 73, 80
2, 15612, Note_off_c, 0, 72, 100
2, 15616, Note_on_c, 0, 72, 80
2, 15676, Note_off_c, 0, 73, 100
2, 15680, Note_on_c, 0, 73, 80
2, 15740, Note_off_c, 0, 72, 100
2, 15744, Note_on_c, 0, 77, 80
2, 15804, Note_off_c, 0, 73, 100
2, 16124, Note_off_c, 0, 77, 100
2, 16128, Note_on_c, 0, 72, 80
2, 16508, Note_off_c, 0, 72, 100
2, 16512, Note_on_c, 0, 72, 80
2, 16892, Note_off_c, 0, 72, 100
2, 16896, Note_on_c, 0, 72, 100
2, 16976, Note_on_c, 0, 80, 99
2, 17084, Note_off_c, 0, 72, 100
2, 17468, Note_off_c, 0, 80, 100
2, 17472, Note_on_c, 0, 79, 92
2, 17660, Note_off_c, 0, 79, 100
2, 17664, Note_on_c, 0, 77, 89
2, 17852, Note_off_c, 0, 77, 100
2, 17856, Note_on_c, 0, 75, 86
2, 18044, Note_off_c, 0, 75, 100
2, 18048, Note_on_c, 0, 74, 83
2, 18236, Note_off_c, 0, 74, 100
2, 18240, Note_on_c, 0, 72, 81
2, 18428, Note_off_c, 0, 72, 100
2, 18432, Note_on_c, 0, 71, 80
2, 18812, Note_off_c, 0, 71, 100
2, 19200, Note_on_c, 0, 79, 80
2, 19200, Note_on_c, 0, 74, 80
2, 19200, Note_on_c, 0, 71, 80
2, 19200, Note_on_c, 0, 67, 80
2, 19580, Note_off_c, 0, 79, 100
2, 19580, Note_off_c, 0, 74, 100
2, 19580, Note_off_c, 0, 71, 100
2, 19580, Note_off_c, 0, 67, 100
2, 19584, Note_on_c, 0, 78, 80
2, 19584, Note_on_c, 0, 75, 80
2, 19584, Note_on_c, 0, 72, 80
2, 19584, Note_on_c, 0, 69, 80
2, 19584, Note_on_c, 0, 66, 80
2, 19964, Note_off_c, 0, 78, 100
2, 19964, Note_off_c, 0, 75, 100
2, 19964, Note_off_c, 0, 72, 100
2, 19964, Note_off_c, 0, 69, 100
2, 19964, Note_off_c, 0, 66, 100
2, 19968, Note_on_c, 0, 79, 80
2, 19968, Note_on_c, 0, 74, 80
2, 19968, Note_on_c, 0, 71, 80
2, 19968, Note_on_c, 0, 67, 80
2, 20348, Note_off_c, 0, 79, 100
2, 20348, Note_off_c, 0, 74, 100
2, 20348, Note_off_c, 0, 71, 100
2, 20348, Note_off_c, 0, 67, 100
2, 20736, Note_on_c, 0, 79, 120
2, 20736, Note_on_c, 0, 74, 120
2, 20736, Note_on_c, 0, 71, 120
2, 20736, Note_on_c, 0, 83, 120
2, 21116, Note_off_c, 0, 79, 100
2, 21116, Note_off_c, 0, 74, 100
2, 21116, Note_off_c, 0, 71, 100
2, 21116, Note_off_c, 0, 83, 100
2, 21120, Note_on_c, 0, 79, 120
2, 21120, Note_on_c, 0, 74, 120
2, 21120, Note_on_c, 0, 71, 120
2, 21120, Note_on_c, 0, 83, 120
2, 21500, Note_off_c, 0, 79, 100
2, 21500, Note_off_c, 0, 74, 100
2, 21500, Note_off_c, 0, 71, 100
2, 21500, Note_off_c, 0, 83, 100
2, 21504, Note_on_c, 0, 79, 120
2, 21504, Note_on_c, 0, 74, 120
2, 21504, Note_on_c, 0, 71, 120
2, 21504, Note_on_c, 0, 83, 120
2, 21884, Note_off_c, 0, 79, 100
2, 21884, Note_off_c, 0, 74, 100
2, 21884, Note_off_c, 0, 71, 100
2, 21884, Note_off_c, 0, 83, 100
2, 22272, Note_on_c, 0, 79, 100
2, 22272, Note_on_c, 0, 74, 100
2, 22272, Note_on_c, 0, 71, 100
2, 22272, Note_on_c, 0, 67, 100
2, 22652, Note_off_c, 0, 79, 100
2, 22652, Note_off_c, 0, 74, 100
2, 22652, Note_off_c, 0, 71, 100
2, 22652, Note_off_c, 0, 67, 100
2, 22656, Note_on_c, 0, 78, 100
2, 22656, Note_on_c, 0, 75, 100
2, 22656, Note_on_c, 0, 72, 100
2, 22656, Note_on_c, 0, 69, 100
2, 22656, Note_on_c, 0, 66, 100
2, 23036, Note_off_c, 0, 78, 100
2, 23036, Note_off_c, 0, 75, 100
2, 23036, Note_off_c, 0, 72, 100
2, 23036, Note_off_c, 0, 69, 100
2, 23036, Note_off_c, 0, 66, 100
2, 23040, Note_on_c, 0, 79, 100
2, 23040, Note_on_c, 0, 74, 100
2, 23040, Note_on_c, 0, 71, 100
2, 23040, Note_on_c, 0, 67, 100
2, 23420, Note_off_c, 0, 79, 100
2, 23420, Note_off_c, 0, 74, 100
2, 23420, Note_off_c, 0, 71, 100
2, 23420, Note_off_c, 0, 67, 100
2, 23808, Note_on_c, 0, 86, 120
2, 23808, Note_on_c, 0, 83, 120
2, 23808, Note_on_c, 0, 77, 120
2, 23808, Note_on_c, 0, 74, 120
2, 24188, Note_off_c, 0, 86, 100
2, 24188, Note_off_c, 0, 83, 100
2, 24188, Note_off_c, 0, 77, 100
2, 24188, Note_off_c, 0, 74, 100
2, 24192, Note_on_c, 0, 86, 120
2, 24192, Note_on_c, 0, 83, 120
2, 24192, Note_on_c, 0, 77, 120
2, 24192, Note_on_c, 0, 74, 120
2, 24572, Note_off_c, 0, 86, 100
2, 24572, Note_off_c, 0, 83, 100
2, 24572, Note_off_c, 0, 77, 100
2, 24572, Note_off_c, 0, 74, 100
2, 24576, Note_on_c, 0, 86, 120
2, 24576, Note_on_c, 0, 83, 120
2, 24576, Note_on_c, 0, 77, 120
2, 24576, Note_on_c, 0, 74, 120
2, 24956, Note_off_c, 0, 86, 100
2, 24956, Note_off_c, 0, 83, 100
2, 24956, Note_off_c, 0, 77, 100
2, 24956, Note_off_c, 0, 74, 100
2, 25344, Note_on_c, 0, 89, 120
2, 25344, Note_on_c, 0, 86, 120
2, 25344, Note_on_c, 0, 83, 120
2, 25344, Note_on_c, 0, 77, 120
2, 25724, Note_off_c, 0, 89, 100
2, 25724, Note_off_c, 0, 86, 100
2, 25724, Note_off_c, 0, 83, 100
2, 25724, Note_off_c, 0, 77, 100
2, 25728, Note_on_c, 0, 89, 120
2, 25728, Note_on_c, 0, 86, 120
2, 25728, Note_on_c, 0, 83, 120
2, 25728, Note_on_c, 0, 77, 120
2, 26108, Note_off_c, 0, 89, 100
2, 26108, Note_off_c, 0, 86, 100
2, 26108, Note_off_c, 0, 83, 100
2, 26108, Note_off_c, 0, 77, 100
2, 26112, Note_on_c, 0, 89, 120
2, 26112, Note_on_c, 0, 86, 120
2, 26112, Note_on_c, 0, 83, 120
2, 26112, Note_on_c, 0, 77, 120
2, 26492, Note_off_c, 0, 89, 100
2, 26492, Note_off_c, 0, 86, 100
2, 26492, Note_off_c, 0, 83, 100
2, 26492, Note_off_c, 0, 77, 100
2, 26880, Note_on_c, 0, 89, 120
2, 26880, Note_on_c, 0, 86, 120
2, 26880, Note_on_c, 0, 83, 120
2, 26880, Note_on_c, 0, 77, 120
2, 27260, Note_off_c, 0, 89, 100
2, 27260, Note_off_c, 0, 86, 100
2, 27260, Note_off_c, 0, 83, 100
2, 27260, Note_off_c, 0, 77, 100
2, 27264, Note_on_c, 0, 89, 120
2, 27264, Note_on_c, 0, 86, 120
2, 27264, Note_on_c, 0, 83, 120
2, 27264, Note_on_c, 0, 77, 120
2, 27644, Note_off_c, 0, 89, 100
2, 27644, Note_off_c, 0, 86, 100
2, 27644, Note_off_c, 0, 83, 100
2, 27644, Note_off_c, 0, 77, 100
2, 27648, Note_on_c, 0, 89, 120
2, 27648, Note_on_c, 0, 86, 120
2, 27648, Note_on_c, 0, 83, 120
2, 27648, Note_on_c, 0, 77, 120
2, 28028, Note_off_c, 0, 89, 100
2, 28028, Note_off_c, 0, 86, 100
2, 28028, Note_off_c, 0, 83, 100
2, 28028, Note_off_c, 0, 77, 100
2, 28416, Note_on_c, 0, 89, 120
2, 28416, Note_on_c, 0, 86, 120
2, 28416, Note_on_c, 0, 83, 120
2, 28416, Note_on_c, 0, 77, 120
2, 28796, Note_off_c, 0, 89, 100
2, 28796, Note_off_c, 0, 86, 100
2, 28796, Note_off_c, 0, 83, 100
2, 28796, Note_off_c, 0, 77, 100
2, 29184, Note_on_c, 0, 89, 120
2, 29312, Note_on_c, 0, 87, 120
2, 29436, Note_off_c, 0, 89, 100
2, 29440, Note_on_c, 0, 86, 120
2, 29564, Note_off_c, 0, 87, 100
2, 29568, Note_on_c, 0, 84, 120
2, 29692, Note_off_c, 0, 86, 100
2, 29696, Note_on_c, 0, 83, 120
2, 29820, Note_off_c, 0, 84, 100
2, 29824, Note_on_c, 0, 80, 120
2, 29948, Note_off_c, 0, 83, 100
2, 29952, Note_on_c, 0, 79, 120
2, 30076, Note_off_c, 0, 80, 100
2, 30080, Note_on_c, 0, 77, 120
2, 30204, Note_off_c, 0, 79, 100
2, 30208, Note_on_c, 0, 75, 120
2, 30332, Note_off_c, 0, 77, 100
2, 30336, Note_on_c, 0, 74, 120
2, 30460, Note_off_c, 0, 75, 100
2, 30464, Note_on_c, 0, 72, 120
2, 30588, Note_off_c, 0, 74, 100
2, 30592, Note_on_c, 0, 71, 120
2, 30716, Note_off_c, 0, 72, 100
2, 30720, Note_on_c, 0, 68, 120
2, 30844, Note_off_c, 0, 71, 100
2, 30848, Note_on_c, 0, 67, 120
2, 30972, Note_off_c, 0, 68, 100
2, 30976, Note_on_c, 0, 65, 120
2, 31100, Note_off_c, 0, 67, 100
2, 31104, Note_on_c, 0, 63, 120
2, 31228, Note_off_c, 0, 65, 100
2, 31232, Note_on_c, 0, 62, 120
2, 31356, Note_off_c, 0, 63, 100
2, 31360, Note_on_c, 0, 60, 120
2, 31484, Note_off_c, 0, 62, 100
2, 31488, Note_on_c, 0, 59, 120
2, 31612, Note_off_c, 0, 60, 100
2, 31868, Note_off_c, 0, 59, 100
2, 32384, Note_on_c, 0, 63, 110
2, 32512, Note_on_c, 0, 60, 110
2, 32636, Note_off_c, 0, 63, 100
2, 32640, Note_on_c, 0, 68, 110
2, 32764, Note_off_c, 0, 60, 100
2, 32768, Note_on_c, 0, 63, 110
2, 32892, Note_off_c, 0, 68, 100
2, 32896, Note_on_c, 0, 60, 110
2, 33020, Note_off_c, 0, 63, 100
2, 33024, Note_on_c, 0, 67, 110
2, 33148, Note_off_c, 0, 60, 100
2, 33152, Note_on_c, 0, 63, 110
2, 33276, Note_off_c, 0, 67, 100
2, 33280, Note_on_c, 0, 60, 110
2, 33404, Note_off_c, 0, 63, 100
2, 33408, Note_on_c, 0, 66, 110
2, 33532, Note_off_c, 0, 60, 100
2, 33536, Note_on_c, 0, 63, 110
2, 33660, Note_off_c, 0, 66, 100
2, 33664, Note_on_c, 0, 60, 110
2, 33788, Note_off_c, 0, 63, 100
2, 33792, Note_on_c, 0, 67, 110
2, 33916, Note_off_c, 0, 60, 100
2, 33920, Note_on_c, 0, 63, 110
2, 34044, Note_off_c, 0, 67, 100
2, 34048, Note_on_c, 0, 60, 110
2, 34172, Note_off_c, 0, 63, 100
2, 34176, Note_on_c, 0, 68, 110
2, 34300, Note_off_c, 0, 60, 100
2, 34304, Note_on_c, 0, 63, 110
2, 34428, Note_off_c, 0, 68, 100
2, 34432, Note_on_c, 0, 60, 110
2, 34556, Note_off_c, 0, 63, 100
2, 34560, Note_on_c, 0, 67, 110
2, 34684, Note_off_c, 0, 60, 100
2, 34688, Note_on_c, 0, 63, 110
2, 34812, Note_off_c, 0, 67, 100
2, 34816, Note_on_c, 0, 60, 110
2, 34940, Note_off_c, 0, 63, 100
2, 34944, Note_on_c, 0, 66, 110
2, 35068, Note_off_c, 0, 60, 100
2, 35072, Note_on_c, 0, 63, 110
2, 35196, Note_off_c, 0, 66, 100
2, 35200, Note_on_c, 0, 60, 110
2, 35324, Note_off_c, 0, 63, 100
2, 35324, Note_off_c, 0, 60, 100
2, 35328, Note_on_c, 0, 67, 110
2, 35708, Note_off_c, 0, 67, 100
2, 35712, Note_on_c, 0, 75, 110
2, 35840, Note_on_c, 0, 72, 110
2, 35964, Note_off_c, 0, 75, 100
2, 35968, Note_on_c, 0, 68, 110
2, 36092, Note_off_c, 0, 72, 100
2, 36096, Note_on_c, 0, 75, 110
2, 36220, Note_off_c, 0, 68, 100
2, 36224, Note_on_c, 0, 72, 110
2, 36348, Note_off_c, 0, 75, 100
2, 36352, Note_on_c, 0, 67, 110
2, 36476, Note_off_c, 0, 72, 100
2, 36480, Note_on_c, 0, 75, 110
2, 36604, Note_off_c, 0, 67, 100
2, 36608, Note_on_c, 0, 72, 110
2, 36732, Note_off_c, 0, 75, 100
2, 36736, Note_on_c, 0, 66, 110
2, 36860, Note_off_c, 0, 72, 100
2, 36860, Note_off_c, 0, 66, 100
2, 36864, Note_on_c, 0, 75, 110
2, 36992, Note_on_c, 0, 72, 110
2, 37116, Note_off_c, 0, 75, 100
2, 37120, Note_on_c, 0, 67, 110
2, 37244, Note_off_c, 0, 72, 100
2, 37248, Note_on_c, 0, 75, 110
2, 37372, Note_off_c, 0, 67, 100
2, 37376, Note_on_c, 0, 72, 110
2, 37500, Note_off_c, 0, 75, 100
2, 37504, Note_on_c, 0, 68, 110
2, 37628, Note_off_c, 0, 72, 100
2, 37632, Note_on_c, 0, 75, 110
2, 37756, Note_off_c, 0, 68, 100
2, 37760, Note_on_c, 0, 72, 110
2, 37884, Note_off_c, 0, 75, 100
2, 37888, Note_on_c, 0, 67, 110
2, 38012, Note_off_c, 0, 72, 100
2, 38016, Note_on_c, 0, 75, 110
2, 38140, Note_off_c, 0, 67, 100
2, 38144, Note_on_c, 0, 72, 110
2, 38268, Note_off_c, 0, 75, 100
2, 38272, Note_on_c, 0, 66, 110
2, 38396, Note_off_c, 0, 72, 100
2, 38396, Note_off_c, 0, 66, 100
2, 38400, Note_on_c, 0, 75, 110
2, 38780, Note_off_c, 0, 75, 100
2, 38784, Note_on_c, 0, 80, 110
2, 38912, Note_on_c, 0, 75, 110
2, 39036, Note_off_c, 0, 80, 100
2, 39040, Note_on_c, 0, 72, 110
2, 39164, Note_off_c, 0, 75, 100
2, 39168, Note_on_c, 0, 80, 110
2, 39292, Note_off_c, 0, 72, 100
2, 39296, Note_on_c, 0, 73, 110
2, 39420, Note_off_c, 0, 80, 100
2, 39424, Note_on_c, 0, 72, 110
2, 39548, Note_off_c, 0, 73, 100
2, 39552, Note_on_c, 0, 79, 110
2, 39676, Note_off_c, 0, 72, 100
2, 39680, Note_on_c, 0, 73, 110
2, 39804, Note_off_c, 0, 79, 100
2, 39808, Note_on_c, 0, 70, 110
2, 39932, Note_off_c, 0, 73, 100
2, 39932, Note_off_c, 0, 70, 100
2, 39936, Note_on_c, 0, 79, 110
2, 40064, Note_on_c, 0, 72, 110
2, 40188, Note_off_c, 0, 79, 100
2, 40192, Note_on_c, 0, 70, 110
2, 40316, Note_off_c, 0, 72, 100
2, 40320, Note_on_c, 0, 77, 110
2, 40444, Note_off_c, 0, 70, 100
2, 40448, Note_on_c, 0, 72, 110
2, 40572, Note_off_c, 0, 77, 100
2, 40576, Note_on_c, 0, 68, 110
2, 40700, Note_off_c, 0, 72, 100
2, 40704, Note_on_c, 0, 77, 110
2, 40828, Note_off_c, 0, 68, 100
2, 40832, Note_on_c, 0, 74, 110
2, 40956, Note_off_c, 0, 77, 100
2, 40960, Note_on_c, 0, 67, 110
2, 41084, Note_off_c, 0, 74, 100
2, 41088, Note_on_c, 0, 75, 110
2, 41212, Note_off_c, 0, 67, 100
2, 41216, Note_on_c, 0, 72, 110
2, 41340, Note_off_c, 0, 75, 100
2, 41344, Note_on_c, 0, 67, 110
2, 41468, Note_off_c, 0, 72, 100
2, 41468, Note_off_c, 0, 67, 100
2, 41472, Note_on_c, 0, 74, 110
2, 41600, Note_on_c, 0, 71, 110
2, 41724, Note_off_c, 0, 74, 100
2, 41728, Note_on_c, 0, 65, 110
2, 41852, Note_off_c, 0, 71, 100
2, 41856, Note_on_c, 0, 72, 110
2, 41980, Note_off_c, 0, 65, 100
2, 41984, Note_on_c, 0, 67, 110
2, 42108, Note_off_c, 0, 72, 100
2, 42112, Note_on_c, 0, 63, 110
2, 42236, Note_off_c, 0, 67, 100
2, 42240, Note_on_c, 0, 71, 110
2, 42364, Note_off_c, 0, 63, 100
2, 42368, Note_on_c, 0, 68, 110
2, 42492, Note_off_c, 0, 71, 100
2, 42496, Note_on_c, 0, 62, 110
2, 42620, Note_off_c, 0, 68, 100
2, 42624, Note_on_c, 0, 72, 110
2, 42748, Note_off_c, 0, 62, 100
2, 42752, Note_on_c, 0, 69, 110
2, 42876, Note_off_c, 0, 72, 100
2, 42880, Note_on_c, 0, 63, 110
2, 43004, Note_off_c, 0, 69, 100
2, 43004, Note_off_c, 0, 63, 100
2, 43008, Note_on_c, 0, 67, 110
2, 43136, Note_on_c, 0, 63, 110
2, 43260, Note_off_c, 0, 67, 100
2, 43264, Note_on_c, 0, 60, 110
2, 43388, Note_off_c, 0, 63, 100
2, 43392, Note_on_c, 0, 67, 110
2, 43516, Note_off_c, 0, 60, 100
2, 43520, Note_on_c, 0, 63, 110
2, 43644, Note_off_c, 0, 67, 100
2, 43648, Note_on_c, 0, 60, 110
2, 43772, Note_off_c, 0, 63, 100
2, 43776, Note_on_c, 0, 67, 110
2, 43900, Note_off_c, 0, 60, 100
2, 43904, Note_on_c, 0, 62, 110
2, 44028, Note_off_c, 0, 67, 100
2, 44032, Note_on_c, 0, 59, 110
2, 44156, Note_off_c, 0, 62, 100
2, 44160, Note_on_c, 0, 67, 110
2, 44284, Note_off_c, 0, 59, 100
2, 44288, Note_on_c, 0, 62, 110
2, 44412, Note_off_c, 0, 67, 100
2, 44416, Note_on_c, 0, 59, 110
2, 44540, Note_off_c, 0, 62, 100
2, 44540, Note_off_c, 0, 59, 100
2, 44544, Note_on_c, 0, 60, 110
2, 44672, Note_on_c, 0, 63, 110
2, 44796, Note_off_c, 0, 60, 100
2, 44800, Note_on_c, 0, 67, 110
2, 44924, Note_off_c, 0, 63, 100
2, 44928, Note_on_c, 0, 72, 110
2, 45052, Note_off_c, 0, 67, 100
2, 45056, Note_on_c, 0, 68, 110
2, 45180, Note_off_c, 0, 72, 100
2, 45184, Note_on_c, 0, 63, 110
2, 45308, Note_off_c, 0, 68, 100
2, 45312, Note_on_c, 0, 72, 110
2, 45436, Note_off_c, 0, 63, 100
2, 45440, Note_on_c, 0, 68, 110
2, 45564, Note_off_c, 0, 72, 100
2, 45568, Note_on_c, 0, 61, 110
2, 45692, Note_off_c, 0, 68, 100
2, 45696, Note_on_c, 0, 70, 110
2, 45820, Note_off_c, 0, 61, 100
2, 45824, Note_on_c, 0, 67, 110
2, 45948, Note_off_c, 0, 70, 100
2, 45952, Note_on_c, 0, 61, 110
2, 46076, Note_off_c, 0, 67, 100
2, 46076, Note_off_c, 0, 61, 100
2, 46080, Note_on_c, 0, 70, 110
2, 46208, Note_on_c, 0, 67, 110
2, 46332, Note_off_c, 0, 70, 100
2, 46336, Note_on_c, 0, 60, 110
2, 46460, Note_off_c, 0, 67, 100
2, 46464, Note_on_c, 0, 68, 110
2, 46588, Note_off_c, 0, 60, 100
2, 46592, Note_on_c, 0, 65, 110
2, 46716, Note_off_c, 0, 68, 100
2, 46720, Note_on_c, 0, 60, 110
2, 46844, Note_off_c, 0, 65, 100
2, 46848, Note_on_c, 0, 67, 110
2, 46972, Note_off_c, 0, 60, 100
2, 46976, Note_on_c, 0, 65, 110
2, 47100, Note_off_c, 0, 67, 100
2, 47104, Note_on_c, 0, 62, 110
2, 47228, Note_off_c, 0, 65, 100
2, 47232, Note_on_c, 0, 67, 110
2, 47356, Note_off_c, 0, 62, 100
2, 47360, Note_on_c, 0, 63, 110
2, 47484, Note_off_c, 0, 67, 100
2, 47488, Note_on_c, 0, 60, 110
2, 47612, Note_off_c, 0, 63, 100
2, 47612, Note_off_c, 0, 60, 100
2, 47616, Note_on_c, 0, 65, 110
2, 47744, Note_on_c, 0, 59, 110
2, 47868, Note_off_c, 0, 65, 100
2, 47872, Note_on_c, 0, 55, 110
2, 47996, Note_off_c, 0, 59, 100
2, 48000, Note_on_c, 0, 63, 110
2, 48124, Note_off_c, 0, 55, 100
2, 48128, Note_on_c, 0, 60, 110
2, 48252, Note_off_c, 0, 63, 100
2, 48256, Note_on_c, 0, 55, 110
2, 48380, Note_off_c, 0, 60, 100
2, 48384, Note_on_c, 0, 62, 110
2, 48508, Note_off_c, 0, 55, 100
2, 48512, Note_on_c, 0, 56, 110
2, 48636, Note_off_c, 0, 62, 100
2, 48640, Note_on_c, 0, 53, 110
2, 48764, Note_off_c, 0, 56, 100
2, 48768, Note_on_c, 0, 60, 110
2, 48892, Note_off_c, 0, 53, 100
2, 48896, Note_on_c, 0, 57, 110
2, 49020, Note_off_c, 0, 60, 100
2, 49024, Note_on_c, 0, 51, 110
2, 49148, Note_off_c, 0, 57, 100
2, 49148, Note_off_c, 0, 51, 100
2, 49152, Note_on_c, 0, 60, 110
2, 49280, Note_on_c, 0, 55, 110
2, 49404, Note_off_c, 0, 60, 100
2, 49408, Note_on_c, 0, 51, 110
2, 49532, Note_off_c, 0, 55, 100
2, 49536, Note_on_c, 0, 60, 110
2, 49660, Note_off_c, 0, 51, 100
2, 49664, Note_on_c, 0, 55, 110
2, 49788, Note_off_c, 0, 60, 100
2, 49792, Note_on_c, 0, 51, 110
2, 49916, Note_off_c, 0, 55, 100
2, 49920, Note_on_c, 0, 59, 110
2, 50044, Note_off_c, 0, 51, 100
2, 50048, Note_on_c, 0, 55, 110
2, 50172, Note_off_c, 0, 59, 100
2, 50176, Note_on_c, 0, 50, 110
2, 50300, Note_off_c, 0, 55, 100
2, 50304, Note_on_c, 0, 59, 110
2, 50428, Note_off_c, 0, 50, 100
2, 50432, Note_on_c, 0, 55, 110
2, 50556, Note_off_c, 0, 59, 100
2, 50560, Note_on_c, 0, 50, 110
2, 50684, Note_off_c, 0, 55, 100
2, 50684, Note_off_c, 0, 50, 100
2, 50688, Note_on_c, 0, 60, 110
2, 50688, Note_on_c, 0, 51, 110
2, 51068, Note_off_c, 0, 60, 100
2, 51068, Note_off_c, 0, 51, 100
2, 51456, Note_on_c, 0, 75, 100
2, 51456, Note_on_c, 0, 63, 100
2, 51836, Note_off_c, 0, 75, 100
2, 51836, Note_off_c, 0, 63, 100
2, 51840, Note_on_c, 0, 75, 100
2, 51840, Note_on_c, 0, 63, 100
2, 52220, Note_off_c, 0, 75, 100
2, 52220, Note_off_c, 0, 63, 100
2, 52224, Note_on_c, 0, 74, 100
2, 52224, Note_on_c, 0, 62, 100
2, 52604, Note_off_c, 0, 74, 100
2, 52604, Note_off_c, 0, 62, 100
2, 52608, Note_on_c, 0, 72, 100
2, 52608, Note_on_c, 0, 60, 100
2, 52988, Note_off_c, 0, 72, 100
2, 52988, Note_off_c, 0, 60, 100
2, 52992, Note_on_c, 0, 70, 100
2, 52992, Note_on_c, 0, 58, 100
2, 53372, Note_off_c, 0, 70, 100
2, 53372, Note_off_c, 0, 58, 100
2, 53376, Note_on_c, 0, 68, 100
2, 53376, Note_on_c, 0, 56, 100
2, 53756, Note_off_c, 0, 68, 100
2, 53756, Note_off_c, 0, 56, 100
2, 53760, Note_on_c, 0, 67, 100
2, 53760, Note_on_c, 0, 55, 100
2, 54524, Note_off_c, 0, 67, 100
2, 54524, Note_off_c, 0, 55, 100
2, 54528, Note_on_c, 0, 84, 100
2, 54528, Note_on_c, 0, 72, 100
2, 54908, Note_off_c, 0, 84, 100
2, 54908, Note_off_c, 0, 72, 100
2, 54912, Note_on_c, 0, 84, 100
2, 54912, Note_on_c, 0, 72, 100
2, 55292, Note_off_c, 0, 84, 100
2, 55292, Note_off_c, 0, 72, 100
2, 55296, Note_on_c, 0, 82, 100
2, 55296, Note_on_c, 0, 70, 100
2, 55676, Note_off_c, 0, 82, 100
2, 55676, Note_off_c, 0, 70, 100
2, 55680, Note_on_c, 0, 68, 100
2, 55680, Note_on_c, 0, 80, 100
2, 56060, Note_off_c, 0, 68, 100
2, 56060, Note_off_c, 0, 80, 100
2, 56064, Note_on_c, 0, 79, 100
2, 56064, Note_on_c, 0, 67, 100
2, 56444, Note_off_c, 0, 79, 100
2, 56444, Note_off_c, 0, 67, 100
2, 56448, Note_on_c, 0, 77, 100
2, 56448, Note_on_c, 0, 65, 100
2, 56828, Note_off_c, 0, 77, 100
2, 56828, Note_off_c, 0, 65, 100
2, 56832, Note_on_c, 0, 75, 100
2, 56832, Note_on_c, 0, 63, 100
2, 57596, Note_off_c, 0, 75, 100
2, 57596, Note_off_c, 0, 63, 100
2, 57600, Note_on_c, 0, 79, 100
2, 57600, Note_on_c, 0, 67, 100
2, 57980, Note_off_c, 0, 79, 100
2, 57980, Note_off_c, 0, 67, 100
2, 57984, Note_on_c, 0, 79, 100
2, 57984, Note_on_c, 0, 67, 100
2, 58364, Note_off_c, 0, 79, 100
2, 58364, Note_off_c, 0, 67, 100
2, 58368, Note_on_c, 0, 77, 100
2, 58368, Note_on_c, 0, 65, 100
2, 58748, Note_off_c, 0, 77, 100
2, 58748, Note_off_c, 0, 65, 100
2, 58752, Note_on_c, 0, 75, 100
2, 58752, Note_on_c, 0, 63, 100
2, 59132, Note_off_c, 0, 75, 100
2, 59132, Note_off_c, 0, 63, 100
2, 59136, Note_on_c, 0, 74, 100
2, 59136, Note_on_c, 0, 62, 100
2, 59516, Note_off_c, 0, 74, 100
2, 59516, Note_off_c, 0, 62, 100
2, 59520, Note_on_c, 0, 72, 100
2, 59520, Note_on_c, 0, 60, 100
2, 59900, Note_off_c, 0, 72, 100
2, 59900, Note_off_c, 0, 60, 100
2, 59904, Note_on_c, 0, 67, 100
2, 59904, Note_on_c, 0, 55, 100
2, 60668, Note_off_c, 0, 67, 100
2, 60668, Note_off_c, 0, 55, 100
2, 60672, Note_on_c, 0, 67, 100
2, 60672, Note_on_c, 0, 55, 100
2, 61052, Note_off_c, 0, 67, 100
2, 61052, Note_off_c, 0, 55, 100
2, 61056, Note_on_c, 0, 67, 100
2, 61056, Note_on_c, 0, 55, 100
2, 61436, Note_off_c, 0, 67, 100
2, 61436, Note_off_c, 0, 55, 100
2, 61440, Note_on_c, 0, 67, 100
2, 61440, Note_on_c, 0, 55, 100
2, 62204, Note_off_c, 0, 67, 100
2, 62204, Note_off_c, 0, 55, 100
2, 62208, Note_on_c, 0, 67, 100
2, 62208, Note_on_c, 0, 55, 100
2, 62588, Note_off_c, 0, 67, 100
2, 62588, Note_off_c, 0, 55, 100
2, 62592, Note_on_c, 0, 67, 100
2, 62592, Note_on_c, 0, 55, 100
2, 62972, Note_off_c, 0, 67, 100
2, 62972, Note_off_c, 0, 55, 100
2, 62976, Note_on_c, 0, 60, 100
2, 63356, Note_off_c, 0, 60, 100
2, 63744, Note_on_c, 0, 75, 100
2, 63744, Note_on_c, 0, 63, 100
2, 64124, Note_off_c, 0, 75, 100
2, 64124, Note_off_c, 0, 63, 100
2, 64128, Note_on_c, 0, 75, 100
2, 64128, Note_on_c, 0, 63, 100
2, 64508, Note_off_c, 0, 75, 100
2, 64508, Note_off_c, 0, 63, 100
2, 64512, Note_on_c, 0, 74, 100
2, 64512, Note_on_c, 0, 62, 100
2, 64892, Note_off_c, 0, 74, 100
2, 64892, Note_off_c, 0, 62, 100
2, 64896, Note_on_c, 0, 72, 100
2, 64896, Note_on_c, 0, 60, 100
2, 65276, Note_off_c, 0, 72, 100
2, 65276, Note_off_c, 0, 60, 100
2, 65280, Note_on_c, 0, 70, 100
2, 65280, Note_on_c, 0, 58, 100
2, 65660, Note_off_c, 0, 70, 100
2, 65660, Note_off_c, 0, 58, 100
2, 65664, Note_on_c, 0, 68, 100
2, 65664, Note_on_c, 0, 56, 100
2, 66044, Note_off_c, 0, 68, 100
2, 66044, Note_off_c, 0, 56, 100
2, 66048, Note_on_c, 0, 67, 100
2, 66048, Note_on_c, 0, 55, 100
2, 66812, Note_off_c, 0, 67, 100
2, 66812, Note_off_c, 0, 55, 100
2, 66816, Note_on_c, 0, 84, 100
2, 66816, Note_on_c, 0, 72, 100
2, 67196, Note_off_c, 0, 84, 100
2, 67196, Note_off_c, 0, 72, 100
2, 67200, Note_on_c, 0, 84, 100
2, 67200, Note_on_c, 0, 72, 100
2, 67580, Note_off_c, 0, 84, 100
2, 67580, Note_off_c, 0, 72, 100
2, 67584, Note_on_c, 0, 82, 100
2, 67584, Note_on_c, 0, 70, 100
2, 67964, Note_off_c, 0, 82, 100
2, 67964, Note_off_c, 0, 70, 100
2, 67968, Note_on_c, 0, 68, 100
2, 67968, Note_on_c, 0, 80, 100
2, 68348, Note_off_c, 0, 68, 100
2, 68348, Note_off_c, 0, 80, 100
2, 68352, Note_on_c, 0, 79, 100
2, 68352, Note_on_c, 0, 67, 100
2, 68732, Note_off_c, 0, 79, 100
2, 68732, Note_off_c, 0, 67, 100
2, 68736, Note_on_c, 0, 77, 100
2, 68736, Note_on_c, 0, 65, 100
2, 69116, Note_off_c, 0, 77, 100
2, 69116, Note_off_c, 0, 65, 100
2, 69120, Note_on_c, 0, 75, 100
2, 69120, Note_on_c, 0, 63, 100
2, 69884, Note_off_c, 0, 75, 100
2, 69884, Note_off_c, 0, 63, 100
2, 69888, Note_on_c, 0, 79, 100
2, 69888, Note_on_c, 0, 67, 100
2, 70268, Note_off_c, 0, 79, 100
2, 70268, Note_off_c, 0, 67, 100
2, 70272, Note_on_c, 0, 79, 100
2, 70272, Note_on_c, 0, 67, 100
2, 70652, Note_off_c, 0, 79, 100
2, 70652, Note_off_c, 0, 67, 100
2, 70656, Note_on_c, 0, 77, 100
2, 70656, Note_on_c, 0, 65, 100
2, 71036, Note_off_c, 0, 77, 100
2, 71036, Note_off_c, 0, 65, 100
2, 71040, Note_on_c, 0, 75, 100
2, 71040, Note_on_c, 0, 63, 100
2, 71420, Note_off_c, 0, 75, 100
2, 71420, Note_off_c, 0, 63, 100
2, 71424, Note_on_c, 0, 74, 100
2, 71424, Note_on_c, 0, 62, 100
2, 71804, Note_off_c, 0, 74, 100
2, 71804, Note_off_c, 0, 62, 100
2, 71808, Note_on_c, 0, 72, 100
2, 71808, Note_on_c, 0, 60, 100
2, 72188, Note_off_c, 0, 72, 100
2, 72188, Note_off_c, 0, 60, 100
2, 72192, Note_on_c, 0, 67, 100
2, 72192, Note_on_c, 0, 55, 100
2, 72956, Note_off_c, 0, 67, 100
2, 72956, Note_off_c, 0, 55, 100
2, 72960, Note_on_c, 0, 67, 100
2, 72960, Note_on_c, 0, 55, 100
2, 73340, Note_off_c, 0, 67, 100
2, 73340, Note_off_c, 0, 55, 100
2, 73344, Note_on_c, 0, 67, 100
2, 73344, Note_on_c, 0, 55, 100
2, 73724, Note_off_c, 0, 67, 100
2, 73724, Note_off_c, 0, 55, 100
2, 73728, Note_on_c, 0, 67, 100
2, 73728, Note_on_c, 0, 55, 100
2, 74492, Note_off_c, 0, 67, 100
2, 74492, Note_off_c, 0, 55, 100
2, 74496, Note_on_c, 0, 67, 100
2, 74496, Note_on_c, 0, 55, 100
2, 74876, Note_off_c, 0, 67, 100
2, 74876, Note_off_c, 0, 55, 100
2, 74880, Note_on_c, 0, 67, 100
2, 74880, Note_on_c, 0, 55, 100
2, 75260, Note_off_c, 0, 67, 100
2, 75260, Note_off_c, 0, 55, 100
2, 75264, Note_on_c, 0, 60, 100
2, 75644, Note_off_c, 0, 60, 100
2, 76032, Note_on_c, 0, 84, 120
2, 76032, Note_on_c, 0, 79, 120
2, 76032, Note_on_c, 0, 75, 120
2, 76032, Note_on_c, 0, 72, 120
2, 76412, Note_off_c, 0, 84, 100
2, 76412, Note_off_c, 0, 79, 100
2, 76412, Note_off_c, 0, 75, 100
2, 76412, Note_off_c, 0, 72, 100
2, 76416, Note_on_c, 0, 83, 120
2, 76416, Note_on_c, 0, 80, 120
2, 76416, Note_on_c, 0, 77, 120
2, 76416, Note_on_c, 0, 74, 120
2, 76416, Note_on_c, 0, 71, 120
2, 76796, Note_off_c, 0, 83, 100
2, 76796, Note_off_c, 0, 80, 100
2, 76796, Note_off_c, 0, 77, 100
2, 76796, Note_off_c, 0, 74, 100
2, 76796, Note_off_c, 0, 71, 100
2, 76800, Note_on_c, 0, 79, 120
2, 76800, Note_on_c, 0, 75, 120
2, 76800, Note_on_c, 0, 72, 120
2, 76800, Note_on_c, 0, 84, 120
2, 77180, Note_off_c, 0, 79, 100
2, 77180, Note_off_c, 0, 75, 100
2, 77180, Note_off_c, 0, 72, 100
2, 77180, Note_off_c, 0, 84, 100
2, 77568, Note_on_c, 0, 79, 120
2, 77568, Note_on_c, 0, 75, 120
2, 77568, Note_on_c, 0, 72, 120
2, 77568, Note_on_c, 0, 67, 120
2, 77948, Note_off_c, 0, 79, 100
2, 77948, Note_off_c, 0, 75, 100
2, 77948, Note_off_c, 0, 72, 100
2, 77948, Note_off_c, 0, 67, 100
2, 77952, Note_on_c, 0, 79, 120
2, 77952, Note_on_c, 0, 74, 120
2, 77952, Note_on_c, 0, 71, 120
2, 77952, Note_on_c, 0, 67, 120
2, 78332, Note_off_c, 0, 79, 100
2, 78332, Note_off_c, 0, 74, 100
2, 78332, Note_off_c, 0, 71, 100
2, 78332, Note_off_c, 0, 67, 100
2, 78336, Note_on_c, 0, 79, 120
2, 78336, Note_on_c, 0, 75, 120
2, 78336, Note_on_c, 0, 72, 120
2, 78336, Note_on_c, 0, 67, 120
2, 78716, Note_off_c, 0, 79, 100
2, 78716, Note_off_c, 0, 75, 100
2, 78716, Note_off_c, 0, 72, 100
2, 78716, Note_off_c, 0, 67, 100
2, 79104, Note_on_c, 0, 84, 120
2, 79104, Note_on_c, 0, 79, 120
2, 79104, Note_on_c, 0, 75, 120
2, 79104, Note_on_c, 0, 72, 120
2, 79484, Note_off_c, 0, 84, 100
2, 79484, Note_off_c, 0, 79, 100
2, 79484, Note_off_c, 0, 75, 100
2, 79484, Note_off_c, 0, 72, 100
2, 79488, Note_on_c, 0, 83, 120
2, 79488, Note_on_c, 0, 80, 120
2, 79488, Note_on_c, 0, 77, 120
2, 79488, Note_on_c, 0, 74, 120
2, 79488, Note_on_c, 0, 71, 120
2, 79868, Note_off_c, 0, 83, 100
2, 79868, Note_off_c, 0, 80, 100
2, 79868, Note_off_c, 0, 77, 100
2, 79868, Note_off_c, 0, 74, 100
2, 79868, Note_off_c, 0, 71, 100
2, 79872, Note_on_c, 0, 79, 120
2, 79872, Note_on_c, 0, 75, 120
2, 79872, Note_on_c, 0, 72, 120
2, 79872, Note_on_c, 0, 84, 120
2, 80252, Note_off_c, 0, 79, 100
2, 80252, Note_off_c, 0, 75, 100
2, 80252, Note_off_c, 0, 72, 100
2, 80252, Note_off_c, 0, 84, 100
2, 80640, Note_on_c, 0, 79, 120
2, 80640, Note_on_c, 0, 75, 120
2, 80640, Note_on_c, 0, 72, 120
2, 80640, Note_on_c, 0, 67, 120
2, 81020, Note_off_c, 0, 79, 100
2, 81020, Note_off_c, 0, 75, 100
2, 81020, Note_off_c, 0, 72, 100
2, 81020, Note_off_c, 0, 67, 100
2, 81024, Note_on_c, 0, 79, 120
2, 81024, Note_on_c, 0, 74, 120
2, 81024, Note_on_c, 0, 71, 120
2, 81024, Note_on_c, 0, 67, 120
2, 81404, Note_off_c, 0, 79, 100
2, 81404, Note_off_c, 0, 74, 100
2, 81404, Note_off_c, 0, 71, 100
2, 81404, Note_off_c, 0, 67, 100
2, 81408, Note_on_c, 0, 79, 120
2, 81408, Note_on_c, 0, 75, 120
2, 81408, Note_on_c, 0, 72, 120
2, 81408, Note_on_c, 0, 67, 120
2, 81788, Note_off_c, 0, 79, 100
2, 81788, Note_off_c, 0, 75, 100
2, 81788, Note_off_c, 0, 72, 100
2, 81788, Note_off_c, 0, 67, 100
2, 82176, Note_on_c, 0, 79, 120
2, 82176, Note_on_c, 0, 75, 120
2, 82176, Note_on_c, 0, 72, 120
2, 82176, Note_on_c, 0, 67, 120
2, 82556, Note_off_c, 0, 79, 100
2, 82556, Note_off_c, 0, 75, 100
2, 82556, Note_off_c, 0, 72, 100
2, 82556, Note_off_c, 0, 67, 100
2, 82560, Note_on_c, 0, 79, 120
2, 82560, Note_on_c, 0, 74, 120
2, 82560, Note_on_c, 0, 71, 120
2, 82560, Note_on_c, 0, 67, 120
2, 82940, Note_off_c, 0, 79, 100
2, 82940, Note_off_c, 0, 74, 100
2, 82940, Note_off_c, 0, 71, 100
2, 82940, Note_off_c, 0, 67, 100
2, 82944, Note_on_c, 0, 79, 120
2, 82944, Note_on_c, 0, 75, 120
2, 82944, Note_on_c, 0, 72, 120
2, 82944, Note_on_c, 0, 67, 120
2, 83324, Note_off_c, 0, 79, 100
2, 83324, Note_off_c, 0, 75, 100
2, 83324, Note_off_c, 0, 72, 100
2, 83324, Note_off_c, 0, 67, 100
2, 83712, Note_on_c, 0, 75, 120
2, 83712, Note_on_c, 0, 72, 120
2, 83712, Note_on_c, 0, 67, 120
2, 84092, Note_off_c, 0, 75, 100
2, 84092, Note_off_c, 0, 72, 100
2, 84092, Note_off_c, 0, 67, 100
2, 84480, Note_on_c, 0, 72, 120
2, 84480, Note_on_c, 0, 67, 120
2, 84480, Note_on_c, 0, 63, 120
2, 84860, Note_off_c, 0, 72, 100
2, 84860, Note_off_c, 0, 67, 100
2, 84860, Note_off_c, 0, 63, 100
2, 85248, Note_on_c, 0, 70, 112
2, 85248, Note_on_c, 0, 67, 112
2, 85248, Note_on_c, 0, 64, 112
2, 85628, Note_off_c, 0, 70, 100
2, 85628, Note_off_c, 0, 67, 100
2, 85628, Note_off_c, 0, 64, 100
2, 86016, Note_on_c, 0, 68, 80
2, 86016, Note_on_c, 0, 65, 80
2, 86396, Note_off_c, 0, 68, 100
2, 86396, Note_off_c, 0, 65, 100
2, 86784, Note_on_c, 0, 77, 80
2, 86784, Note_on_c, 0, 72, 80
2, 86784, Note_on_c, 0, 68, 80
2, 86784, Note_on_c, 0, 65, 80
2, 87164, Note_off_c, 0, 77, 100
2, 87164, Note_off_c, 0, 72, 100
2, 87164, Note_off_c, 0, 68, 100
2, 87164, Note_off_c, 0, 65, 100
2, 87168, Note_on_c, 0, 76, 80
2, 87168, Note_on_c, 0, 70, 80
2, 87168, Note_on_c, 0, 67, 80
2, 87168, Note_on_c, 0, 64, 80
2, 87168, Note_on_c, 0, 73, 80
2, 87548, Note_off_c, 0, 76, 100
2, 87548, Note_off_c, 0, 70, 100
2, 87548, Note_off_c, 0, 67, 100
2, 87548, Note_off_c, 0, 64, 100
2, 87548, Note_off_c, 0, 73, 100
2, 87552, Note_on_c, 0, 77, 80
2, 87552, Note_on_c, 0, 72, 80
2, 87552, Note_on_c, 0, 68, 80
2, 87552, Note_on_c, 0, 65, 80
2, 87932, Note_off_c, 0, 77, 100
2, 87932, Note_off_c, 0, 72, 100
2, 87932, Note_off_c, 0, 68, 100
2, 87932, Note_off_c, 0, 65, 100
2, 88320, Note_on_c, 0, 84, 110
2, 88320, Note_on_c, 0, 80, 110
2, 88320, Note_on_c, 0, 77, 110
2, 88320, Note_on_c, 0, 72, 110
2, 88700, Note_off_c, 0, 84, 100
2, 88700, Note_off_c, 0, 80, 100
2, 88700, Note_off_c, 0, 77, 100
2, 88700, Note_off_c, 0, 72, 100
2, 88704, Note_on_c, 0, 84, 110
2, 88704, Note_on_c, 0, 82, 110
2, 88704, Note_on_c, 0, 79, 110
2, 88704, Note_on_c, 0, 72, 110
2, 89084, Note_off_c, 0, 84, 100
2, 89084, Note_off_c, 0, 82, 100
2, 89084, Note_off_c, 0, 79, 100
2, 89084, Note_off_c, 0, 72, 100
2, 89088, Note_on_c, 0, 84, 110
2, 89088, Note_on_c, 0, 80, 110
2, 89088, Note_on_c, 0, 77, 110
2, 89088, Note_on_c, 0, 72, 110
2, 89468, Note_off_c, 0, 84, 100
2, 89468, Note_off_c, 0, 80, 100
2, 89468, Note_off_c, 0, 77, 100
2, 89468, Note_off_c, 0, 72, 100
2, 89856, Note_on_c, 0, 77, 80
2, 89856, Note_on_c, 0, 72, 80
2, 89856, Note_on_c, 0, 68, 80
2, 89856, Note_on_c, 0, 65, 80
2, 90236, Note_off_c, 0, 77, 100
2, 90236, Note_off_c, 0, 72, 100
2, 90236, Note_off_c, 0, 68, 100
2, 90236, Note_off_c, 0, 65, 100
2, 90240, Note_on_c, 0, 76, 80
2, 90240, Note_on_c, 0, 70, 80
2, 90240, Note_on_c, 0, 67, 80
2, 90240, Note_on_c, 0, 64, 80
2, 90240, Note_on_c, 0, 73, 80
2, 90620, Note_off_c, 0, 76, 100
2, 90620, Note_off_c, 0, 70, 100
2, 90620, Note_off_c, 0, 67, 100
2, 90620, Note_off_c, 0, 64, 100
2, 90620, Note_off_c, 0, 73, 100
2, 90624, Note_on_c, 0, 77, 80
2, 90624, Note_on_c, 0, 72, 80
2, 90624, Note_on_c, 0, 68, 80
2, 90624, Note_on_c, 0, 65, 80
2, 91004, Note_off_c, 0, 77, 100
2, 91004, Note_off_c, 0, 72, 100
2, 91004, Note_off_c, 0, 68, 100
2, 91004, Note_off_c, 0, 65, 100
2, 91392, Note_on_c, 0, 84, 110
2, 91392, Note_on_c, 0, 80, 110
2, 91392, Note_on_c, 0, 77, 110
2, 91392, Note_on_c, 0, 72, 110
2, 91772, Note_off_c, 0, 84, 100
2, 91772, Note_off_c, 0, 80, 100
2, 91772, Note_off_c, 0, 77, 100
2, 91772, Note_off_c, 0, 72, 100
2, 91776, Note_on_c, 0, 84, 110
2, 91776, Note_on_c, 0, 82, 110
2, 91776, Note_on_c, 0, 79, 110
2, 91776, Note_on_c, 0, 72, 110
2, 92156, Note_off_c, 0, 84, 100
2, 92156, Note_off_c, 0, 82, 100
2, 92156, Note_off_c, 0, 79, 100
2, 92156, Note_off_c, 0, 72, 100
2, 92160, Note_on_c, 0, 84, 110
2, 92160, Note_on_c, 0, 80, 110
2, 92160, Note_on_c, 0, 77, 110
2, 92160, Note_on_c, 0, 72, 110
2, 92540, Note_off_c, 0, 84, 100
2, 92540, Note_off_c, 0, 80, 100
2, 92540, Note_off_c, 0, 77, 100
2, 92540, Note_off_c, 0, 72, 100
2, 92928, Note_on_c, 0, 75, 80
2, 93308, Note_off_c, 0, 75, 100
2, 93312, Note_on_c, 0, 75, 80
2, 93692, Note_off_c, 0, 75, 100
2, 93696, Note_on_c, 0, 75, 80
2, 94076, Note_off_c, 0, 75, 100
2, 94080, Note_on_c, 0, 80, 80
2, 94460, Note_off_c, 0, 80, 100
2, 94464, Note_on_c, 0, 75, 80
2, 94844, Note_off_c, 0, 75, 100
2, 94848, Note_on_c, 0, 75, 80
2, 95228, Note_off_c, 0, 75, 100
2, 95232, Note_on_c, 0, 75, 80
2, 95612, Note_off_c, 0, 75, 100
2, 95616, Note_on_c, 0, 80, 80
2, 95996, Note_off_c, 0, 80, 100
2, 96000, Note_on_c, 0, 75, 80
2, 96380, Note_off_c, 0, 75, 100
2, 96384, Note_on_c, 0, 76, 80
2, 96764, Note_off_c, 0, 76, 100
2, 96768, Note_on_c, 0, 77, 80
2, 97148, Note_off_c, 0, 77, 100
2, 97152, Note_on_c, 0, 79, 80
2, 97532, Note_off_c, 0, 79, 100
2, 97536, Note_on_c, 0, 80, 80
2, 97916, Note_off_c, 0, 80, 100
2, 97920, Note_on_c, 0, 83, 80
2, 98300, Note_off_c, 0, 83, 100
2, 98304, Note_on_c, 0, 84, 80
2, 98684, Note_off_c, 0, 84, 100
2, 99072, Note_on_c, 0, 72, 80
2, 99452, Note_off_c, 0, 72, 100
2, 99456, Note_on_c, 0, 72, 80
2, 99836, Note_off_c, 0, 72, 100
2, 99840, Note_on_c, 0, 72, 80
2, 99904, Note_on_c, 0, 73, 80
2, 99964, Note_off_c, 0, 72, 100
2, 99968, Note_on_c, 0, 72, 80
2, 100028, Note_off_c, 0, 73, 100
2, 100032, Note_on_c, 0, 73, 80
2, 100092, Note_off_c, 0, 72, 100
2, 100096, Note_on_c, 0, 72, 80
2, 100156, Note_off_c, 0, 73, 100
2, 100160, Note_on_c, 0, 73, 80
2, 100220, Note_off_c, 0, 72, 100
2, 100224, Note_on_c, 0, 77, 80
2, 100284, Note_off_c, 0, 73, 100
2, 100604, Note_off_c, 0, 77, 100
2, 100608, Note_on_c, 0, 72, 80
2, 100988, Note_off_c, 0, 72, 100
2, 100992, Note_on_c, 0, 72, 80
2, 101372, Note_off_c, 0, 72, 100
2, 101376, Note_on_c, 0, 72, 80
2, 101440, Note_on_c, 0, 73, 80
2, 101500, Note_off_c, 0, 72, 100
2, 101504, Note_on_c, 0, 72, 80
2, 101564, Note_off_c, 0, 73, 100
2, 101568, Note_on_c, 0, 73, 80
2, 101628, Note_off_c, 0, 72, 100
2, 101632, Note_on_c, 0, 72, 80
2, 101692, Note_off_c, 0, 73, 100
2, 101696, Note_on_c, 0, 73, 80
2, 101756, Note_off_c, 0, 72, 100
2, 101760, Note_on_c, 0, 77, 80
2, 101820, Note_off_c, 0, 73, 100
2, 102140, Note_off_c, 0, 77, 100
2, 102144, Note_on_c, 0, 72, 80
2, 102524, Note_off_c, 0, 72, 100
2, 102528, Note_on_c, 0, 72, 80
2, 102908, Note_off_c, 0, 72, 100
2, 102912, Note_on_c, 0, 72, 100
2, 102992, Note_on_c, 0, 80, 99
2, 103100, Note_off_c, 0, 72, 100
2, 103484, Note_off_c, 0, 80, 100
2, 103488, Note_on_c, 0, 79, 92
2, 103676, Note_off_c, 0, 79, 100
2, 103680, Note_on_c, 0, 77, 89
2, 103868, Note_off_c, 0, 77, 100
2, 103872, Note_on_c, 0, 75, 86
2, 104060, Note_off_c, 0, 75, 100
2, 104064, Note_on_c, 0, 74, 83
2, 104252, Note_off_c, 0, 74, 100
2, 104256, Note_on_c, 0, 72, 81
2, 104444, Note_off_c, 0, 72, 100
2, 104448, Note_on_c, 0, 71, 80
2, 104828, Note_off_c, 0, 71, 100
2, 105216, Note_on_c, 0, 79, 80
2, 105216, Note_on_c, 0, 74, 80
2, 105216, Note_on_c, 0, 71, 80
2, 105216, Note_on_c, 0, 67, 80
2, 105596, Note_off_c, 0, 79, 100
2, 105596, Note_off_c, 0, 74, 100
2, 105596, Note_off_c, 0, 71, 100
2, 105596, Note_off_c, 0, 67, 100
2, 105600, Note_on_c, 0, 78, 80
2, 105600, Note_on_c, 0, 75, 80
2, 105600, Note_on_c, 0, 72, 80
2, 105600, Note_on_c, 0, 69, 80
2, 105600, Note_on_c, 0, 66, 80
2, 105980, Note_off_c, 0, 78, 100
2, 105980, Note_off_c, 0, 75, 100
2, 105980, Note_off_c, 0, 72, 100
2, 105980, Note_off_c, 0, 69, 100
2, 105980, Note_off_c, 0, 66, 100
2, 105984, Note_on_c, 0, 79, 80
2, 105984, Note_on_c, 0, 74, 80
2, 105984, Note_on_c, 0, 71, 80
2, 105984, Note_on_c, 0, 67, 80
2, 106364, Note_off_c, 0, 79, 100
2, 106364, Note_off_c, 0, 74, 100
2, 106364, Note_off_c, 0, 71, 100
2, 106364, Note_off_c, 0, 67, 100
2, 106752, Note_on_c, 0, 79, 120
2, 106752, Note_on_c, 0, 74, 120
2, 106752, Note_on_c, 0, 71, 120
2, 106752, Note_on_c, 0, 83, 120
2, 107132, Note_off_c, 0, 79, 100
2, 107132, Note_off_c, 0, 74, 100
2, 107132, Note_off_c, 0, 71, 100
2, 107132, Note_off_c, 0, 83, 100
2, 107136, Note_on_c, 0, 79, 120
2, 107136, Note_on_c, 0, 74, 120
2, 107136, Note_on_c, 0, 71, 120
2, 107136, Note_on_c, 0, 83, 120
2, 107516, Note_off_c, 0, 79, 100
2, 107516, Note_off_c, 0, 74, 100
2, 107516, Note_off_c, 0, 71, 100
2, 107516, Note_off_c, 0, 83, 100
2, 107520, Note_on_c, 0, 79, 120
2, 107520, Note_on_c, 0, 74, 120
2, 107520, Note_on_c, 0, 71, 120
2, 107520, Note_on_c, 0, 83, 120
2, 107900, Note_off_c, 0, 79, 100
2, 107900, Note_off_c, 0, 74, 100
2, 107900, Note_off_c, 0, 71, 100
2, 107900, Note_off_c, 0, 83, 100
2, 108288, Note_on_c, 0, 79, 100
2, 108288, Note_on_c, 0, 74, 100
2, 108288, Note_on_c, 0, 71, 100
2, 108288, Note_on_c, 0, 67, 100
2, 108668, Note_off_c, 0, 79, 100
2, 108668, Note_off_c, 0, 74, 100
2, 108668, Note_off_c, 0, 71, 100
2, 108668, Note_off_c, 0, 67, 100
2, 108672, Note_on_c, 0, 78, 100
2, 108672, Note_on_c, 0, 75, 100
2, 108672, Note_on_c, 0, 72, 100
2, 108672, Note_on_c, 0, 69, 100
2, 108672, Note_on_c, 0, 66, 100
2, 109052, Note_off_c, 0, 78, 100
2, 109052, Note_off_c, 0, 75, 100
2, 109052, Note_off_c, 0, 72, 100
2, 109052, Note_off_c, 0, 69, 100
2, 109052, Note_off_c, 0, 66, 100
2, 109056, Note_on_c, 0, 79, 100
2, 109056, Note_on_c, 0, 74, 100
2, 109056, Note_on_c, 0, 71, 100
2, 109056, Note_on_c, 0, 67, 100
2, 109436, Note_off_c, 0, 79, 100
2, 109436, Note_off_c, 0, 74, 100
2, 109436, Note_off_c, 0, 71, 100
2, 109436, Note_off_c, 0, 67, 100
2, 109824, Note_on_c, 0, 86, 120
2, 109824, Note_on_c, 0, 83, 120
2, 109824, Note_on_c, 0, 77, 120
2, 109824, Note_on_c, 0, 74, 120
2, 110204, Note_off_c, 0, 86, 100
2, 110204, Note_off_c, 0, 83, 100
2, 110204, Note_off_c, 0, 77, 100
2, 110204, Note_off_c, 0, 74, 100
2, 110208, Note_on_c, 0, 86, 120
2, 110208, Note_on_c, 0, 83, 120
2, 110208, Note_on_c, 0, 77, 120
2, 110208, Note_on_c, 0, 74, 120
2, 110588, Note_off_c, 0, 86, 100
2, 110588, Note_off_c, 0, 83, 100
2, 110588, Note_off_c, 0, 77, 100
2, 110588, Note_off_c, 0, 74, 100
2, 110592, Note_on_c, 0, 86, 120
2, 110592, Note_on_c, 0, 83, 120
2, 110592, Note_on_c, 0, 77, 120
2, 110592, Note_on_c, 0, 74, 120
2, 110972, Note_off_c, 0, 86, 100
2, 110972, Note_off_c, 0, 83, 100
2, 110972, Note_off_c, 0, 77, 100
2, 110972, Note_off_c, 0, 74, 100
2, 111360, Note_on_c, 0, 89, 120
2, 111360, Note_on_c, 0, 86, 120
2, 111360, Note_on_c, 0, 83, 120
2, 111360, Note_on_c, 0, 77, 120
2, 111740, Note_off_c, 0, 89, 100
2, 111740, Note_off_c, 0, 86, 100
2, 111740, Note_off_c, 0, 83, 100
2, 111740, Note_off_c, 0, 77, 100
2, 111744, Note_on_c, 0, 89, 120
2, 111744, Note_on_c, 0, 86, 120
2, 111744, Note_on_c, 0, 83, 120
2, 111744, Note_on_c, 0, 77, 120
2, 112124, Note_off_c, 0, 89, 100
2, 112124, Note_off_c, 0, 86, 100
2, 112124, Note_off_c, 0, 83, 100
2, 112124, Note_off_c, 0, 77, 100
2, 112128, Note_on_c, 0, 89, 120
2, 112128, Note_on_c, 0, 86, 120
2, 112128, Note_on_c, 0, 83, 120
2, 112128, Note_on_c, 0, 77, 120
2, 112508, Note_off_c, 0, 89, 100
2, 112508, Note_off_c, 0, 86, 100
2, 112508, Note_off_c, 0, 83, 100
2, 112508, Note_off_c, 0, 77, 100
2, 112896, Note_on_c, 0, 89, 120
2, 112896, Note_on_c, 0, 86, 120
2, 112896, Note_on_c, 0, 83, 120
2, 112896, Note_on_c, 0, 77, 120
2, 113276, Note_off_c, 0, 89, 100
2, 113276, Note_off_c, 0, 86, 100
2, 113276, Note_off_c, 0, 83, 100
2, 113276, Note_off_c, 0, 77, 100
2, 113280, Note_on_c, 0, 89, 120
2, 113280, Note_on_c, 0, 86, 120
2, 113280, Note_on_c, 0, 83, 120
2, 113280, Note_on_c, 0, 77, 120
2, 113660, Note_off_c, 0, 89, 100
2, 113660, Note_off_c, 0, 86, 100
2, 113660, Note_off_c, 0, 83, 100
2, 113660, Note_off_c, 0, 77, 100
2, 113664, Note_on_c, 0, 89, 120
2, 113664, Note_on_c, 0, 86, 120
2, 113664, Note_on_c, 0, 83, 120
2, 113664, Note_on_c, 0, 77, 120
2, 114044, Note_off_c, 0, 89, 100
2, 114044, Note_off_c, 0, 86, 100
2, 114044, Note_off_c, 0, 83, 100
2, 114044, Note_off_c, 0, 77, 100
2, 114432, Note_on_c, 0, 89, 120
2, 114432, Note_on_c, 0, 86, 120
2, 114432, Note_on_c, 0, 83, 120
2, 114432, Note_on_c, 0, 77, 120
2, 114812, Note_off_c, 0, 89, 100
2, 114812, Note_off_c, 0, 86, 100
2, 114812, Note_off_c, 0, 83, 100
2, 114812, Note_off_c, 0, 77, 100
2, 115200, Note_on_c, 0, 89, 120
2, 115328, Note_on_c, 0, 87, 120
2, 115452, Note_off_c, 0, 89, 100
2, 115456, Note_on_c, 0, 86, 120
2, 115580, Note_off_c, 0, 87, 100
2, 115584, Note_on_c, 0, 84, 120
2, 115708, Note_off_c, 0, 86, 100
2, 115712, Note_on_c, 0, 83, 120
2, 115836, Note_off_c, 0, 84, 100
2, 115840, Note_on_c, 0, 80, 120
2, 115964, Note_off_c, 0, 83, 100
2, 115968, Note_on_c, 0, 79, 120
2, 116092, Note_off_c, 0, 80, 100
2, 116096, Note_on_c, 0, 77, 120
2, 116220, Note_off_c, 0, 79, 100
2, 116224, Note_on_c, 0, 75, 120
2, 116348, Note_off_c, 0, 77, 100
2, 116352, Note_on_c, 0, 74, 120
2, 116476, Note_off_c, 0, 75, 100
2, 116480, Note_on_c, 0, 72, 120
2, 116604, Note_off_c, 0, 74, 100
2, 116608, Note_on_c, 0, 71, 120
2, 116732, Note_off_c, 0, 72, 100
2, 116736, Note_on_c, 0, 68, 120
2, 116860, Note_off_c, 0, 71, 100
2, 116864, Note_on_c, 0, 67, 120
2, 116988, Note_off_c, 0, 68, 100
2, 116992, Note_on_c, 0, 65, 120
2, 117116, Note_off_c, 0, 67, 100
2, 117120, Note_on_c, 0, 63, 120
2, 117244, Note_off_c, 0, 65, 100
2, 117248, Note_on_c, 0, 62, 120
2, 117372, Note_off_c, 0, 63, 100
2, 117376, Note_on_c, 0, 60, 120
2, 117500, Note_off_c, 0, 62, 100
2, 117504, Note_on_c, 0, 59, 120
2, 117628, Note_off_c, 0, 60, 100
2, 117884, Note_off_c, 0, 59, 100
2, 118400, Note_on_c, 0, 63, 110
2, 118528, Note_on_c, 0, 60, 110
2, 118652, Note_off_c, 0, 63, 100
2, 118656, Note_on_c, 0, 68, 110
2, 118780, Note_off_c, 0, 60, 100
2, 118784, Note_on_c, 0, 63, 110
2, 118908, Note_off_c, 0, 68, 100
2, 118912, Note_on_c, 0, 60, 110
2, 119036, Note_off_c, 0, 63, 100
2, 119040, Note_on_c, 0, 67, 110
2, 119164, Note_off_c, 0, 60, 100
2, 119168, Note_on_c, 0, 63, 110
2, 119292, Note_off_c, 0, 67, 100
2, 119296, Note_on_c, 0, 60, 110
2, 119420, Note_off_c, 0, 63, 100
2, 119424, Note_on_c, 0, 66, 110
2, 119548, Note_off_c, 0, 60, 100
2, 119552, Note_on_c, 0, 63, 110
2, 119676, Note_off_c, 0, 66, 100
2, 119680, Note_on_c, 0, 60, 110
2, 119804, Note_off_c, 0, 63, 100
2, 119808, Note_on_c, 0, 67, 110
2, 119932, Note_off_c, 0, 60, 100
2, 119936, Note_on_c, 0, 63, 110
2, 120060, Note_off_c, 0, 67, 100
2, 120064, Note_on_c, 0, 60, 110
2, 120188, Note_off_c, 0, 63, 100
2, 120192, Note_on_c, 0, 68, 110
2, 120316, Note_off_c, 0, 60, 100
2, 120320, Note_on_c, 0, 63, 110
2, 120444, Note_off_c, 0, 68, 100
2, 120448, Note_on_c, 0, 60, 110
2, 120572, Note_off_c, 0, 63, 100
2, 120576, Note_on_c, 0, 67, 110
2, 120700, Note_off_c, 0, 60, 100
2, 120704, Note_on_c, 0, 63, 110
2, 120828, Note_off_c, 0, 67, 100
2, 120832, Note_on_c, 0, 60, 110
2, 120956, Note_off_c, 0, 63, 100
2, 120960, Note_on_c, 0, 66, 110
2, 121084, Note_off_c, 0, 60, 100
2, 121088, Note_on_c, 0, 63, 110
2, 121212, Note_off_c, 0, 66, 100
2, 121216, Note_on_c, 0, 60, 110
2, 121340, Note_off_c, 0, 63, 100
2, 121340, Note_off_c, 0, 60, 100
2, 121344, Note_on_c, 0, 67, 110
2, 121724, Note_off_c, 0, 67, 100
2, 121728, Note_on_c, 0, 75, 110
2, 121856, Note_on_c, 0, 72, 110
2, 121980, Note_off_c, 0, 75, 100
2, 121984, Note_on_c, 0, 68, 110
2, 122108, Note_off_c, 0, 72, 100
2, 122112, Note_on_c, 0, 75, 110
2, 122236, Note_off_c, 0, 68, 100
2, 122240, Note_on_c, 0, 72, 110
2, 122364, Note_off_c, 0, 75, 100
2, 122368, Note_on_c, 0, 67, 110
2, 122492, Note_off_c, 0, 72, 100
2, 122496, Note_on_c, 0, 75, 110
2, 122620, Note_off_c, 0, 67, 100
2, 122624, Note_on_c, 0, 72, 110
2, 122748, Note_off_c, 0, 75, 100
2, 122752, Note_on_c, 0, 66, 110
2, 122876, Note_off_c, 0, 72, 100
2, 122876, Note_off_c, 0, 66, 100
2, 122880, Note_on_c, 0, 75, 110
2, 123008, Note_on_c, 0, 72, 110
2, 123132, Note_off_c, 0, 75, 100
2, 123136, Note_on_c, 0, 67, 110
2, 123260, Note_off_c, 0, 72, 100
2, 123264, Note_on_c, 0, 75, 110
2, 123388, Note_off_c, 0, 67, 100
2, 123392, Note_on_c, 0, 72, 110
2, 123516, Note_off_c, 0, 75, 100
2, 123520, Note_on_c, 0, 68, 110
2, 123644, Note_off_c, 0, 72, 100
2, 123648, Note_on_c, 0, 75, 110
2, 123772, Note_off_c, 0, 68, 100
2, 123776, Note_on_c, 0, 72, 110
2, 123900, Note_off_c, 0, 75, 100
2, 123904, Note_on_c, 0, 67, 110
2, 124028, Note_off_c, 0, 72, 100
2, 124032, Note_on_c, 0, 75, 110
2, 124156, Note_off_c, 0, 67, 100
2, 124160, Note_on_c, 0, 72, 110
2, 124284, Note_off_c, 0, 75, 100
2, 124288, Note_on_c, 0, 66, 110
2, 124412, Note_off_c, 0, 72, 100
2, 124412, Note_off_c, 0, 66, 100
2, 124416, Note_on_c, 0, 75, 110
2, 124796, Note_off_c, 0, 75, 100
2, 124800, Note_on_c, 0, 80, 110
2, 124928, Note_on_c, 0, 75, 110
2, 125052, Note_off_c, 0, 80, 100
2, 125056, Note_on_c, 0, 72, 110
2, 125180, Note_off_c, 0, 75, 100
2, 125184, Note_on_c, 0, 80, 110
2, 125308, Note_off_c, 0, 72, 100
2, 125312, Note_on_c, 0, 73, 110
2, 125436, Note_off_c, 0, 80, 100
2, 125440, Note_on_c, 0, 72, 110
2, 125564, Note_off_c, 0, 73, 100
2, 125568, Note_on_c, 0, 79, 110
2, 125692, Note_off_c, 0, 72, 100
2, 125696, Note_on_c, 0, 73, 110
2, 125820, Note_off_c, 0, 79, 100
2, 125824, Note_on_c, 0, 70, 110
2, 125948, Note_off_c, 0, 73, 100
2, 125948, Note_off_c, 0, 70, 100
2, 125952, Note_on_c, 0, 79, 110
2, 126080, Note_on_c, 0, 72, 110
2, 126204, Note_off_c, 0, 79, 100
2, 126208, Note_on_c, 0, 70, 110
2, 126332, Note_off_c, 0, 72, 100
2, 126336, Note_on_c, 0, 77, 110
2, 126460, Note_off_c, 0, 70, 100
2, 126464, Note_on_c, 0, 72, 110
2, 126588, Note_off_c, 0, 77, 100
2, 126592, Note_on_c, 0, 68, 110
2, 126716, Note_off_c, 0, 72, 100
2, 126720, Note_on_c, 0, 77, 110
2, 126844, Note_off_c, 0, 68, 100
2, 126848, Note_on_c, 0, 74, 110
2, 126972, Note_off_c, 0, 77, 100
2, 126976, Note_on_c, 0, 67, 110
2, 127100, Note_off_c, 0, 74, 100
2, 127104, Note_on_c, 0, 75, 110
2, 127228, Note_off_c, 0, 67, 100
2, 127232, Note_on_c, 0, 72, 110
2, 127356, Note_off_c, 0, 75, 100
2, 127360, Note_on_c, 0, 67, 110
2, 127484, Note_off_c, 0, 72, 100
2, 127484, Note_off_c, 0, 67, 100
2, 127488, Note_on_c, 0, 74, 110
2, 127616, Note_on_c, 0, 71, 110
2, 127740, Note_off_c, 0, 74, 100
2, 127744, Note_on_c, 0, 65, 110
2, 127868, Note_off_c, 0, 71, 100
2, 127872, Note_on_c, 0, 72, 110
2, 127996, Note_off_c, 0, 65, 100
2, 128000, Note_on_c, 0, 67, 110
2, 128124, Note_off_c, 0, 72, 100
2, 128128, Note_on_c, 0, 63, 110
2, 128252, Note_off_c, 0, 67, 100
2, 128256, Note_on_c, 0, 71, 110
2, 128380, Note_off_c, 0, 63, 100
2, 128384, Note_on_c, 0, 68, 110
2, 128508, Note_off_c, 0, 71, 100
2, 128512, Note_on_c, 0, 62, 110
2, 128636, Note_off_c, 0, 68, 100
2, 128640, Note_on_c, 0, 72, 110
2, 128764, Note_off_c, 0, 62, 100
2, 128768, Note_on_c, 0, 69, 110
2, 128892, Note_off_c, 0, 72, 100
2, 128896, Note_on_c, 0, 63, 110
2, 129020, Note_off_c, 0, 69, 100
2, 129020, Note_off_c, 0, 63, 100
2, 129024, Note_on_c, 0, 67, 110
2, 129152, Note_on_c, 0, 63, 110
2, 129276, Note_off_c, 0, 67, 100
2, 129280, Note_on_c, 0, 60, 110
2, 129404, Note_off_c, 0, 63, 100
2, 129408, Note_on_c, 0, 67, 110
2, 129532, Note_off_c, 0, 60, 100
2, 129536, Note_on_c, 0, 63, 110
2, 129660, Note_off_c, 0, 67, 100
2, 129664, Note_on_c, 0, 60, 110
2, 129788, Note_off_c, 0, 63, 100
2, 129792, Note_on_c, 0, 67, 110
2, 129916, Note_off_c, 0, 60, 100
2, 129920, Note_on_c, 0, 62, 110
2, 130044, Note_off_c, 0, 67, 100
2, 130048, Note_on_c, 0, 59, 110
2, 130172, Note_off_c, 0, 62, 100
2, 130176, Note_on_c, 0, 67, 110
2, 130300, Note_off_c, 0, 59, 100
2, 130304, Note_on_c, 0, 62, 110
2, 130428, Note_off_c, 0, 67, 100
2, 130432, Note_on_c, 0, 59, 110
2, 130556, Note_off_c, 0, 62, 100
2, 130556, Note_off_c, 0, 59, 100
2, 130560, Note_on_c, 0, 60, 110
2, 130688, Note_on_c, 0, 63, 110
2, 130812, Note_off_c, 0, 60, 100
2, 130816, Note_on_c, 0, 67, 110
2, 130940, Note_off_c, 0, 63, 100
2, 130944, Note_on_c, 0, 72, 110
2, 131068, Note_off_c, 0, 67, 100
2, 131072, Note_on_c, 0, 68, 110
2, 131196, Note_off_c, 0, 72, 100
2, 131200, Note_on_c, 0, 63, 110
2, 131324, Note_off_c, 0, 68, 100
2, 131328, Note_on_c, 0, 72, 110
2, 131452, Note_off_c, 0, 63, 100
2, 131456, Note_on_c, 0, 68, 110
2, 131580, Note_off_c, 0, 72, 100
2, 131584, Note_on_c, 0, 61, 110
2, 131708, Note_off_c, 0, 68, 100
2, 131712, Note_on_c, 0, 70, 110
2, 131836, Note_off_c, 0, 61, 100
2, 131840, Note_on_c, 0, 67, 110
2, 131964, Note_off_c, 0, 70, 100
2, 131968, Note_on_c, 0, 61, 110
2, 132092, Note_off_c, 0, 67, 100
2, 132092, Note_off_c, 0, 61, 100
2, 132096, Note_on_c, 0, 70, 110
2, 132224, Note_on_c, 0, 67, 110
2, 132348, Note_off_c, 0, 70, 100
2, 132352, Note_on_c, 0, 60, 110
2, 132476, Note_off_c, 0, 67, 100
2, 132480, Note_on_c, 0, 68, 110
2, 132604, Note_off_c, 0, 60, 100
2, 132608, Note_on_c, 0, 65, 110
2, 132732, Note_off_c, 0, 68, 100
2, 132736, Note_on_c, 0, 60, 110
2, 132860, Note_off_c, 0, 65, 100
2, 132864, Note_on_c, 0, 67, 110
2, 132988, Note_off_c, 0, 60, 100
2, 132992, Note_on_c, 0, 65, 110
2, 133116, Note_off_c, 0, 67, 100
2, 133120, Note_on_c, 0, 62, 110
2, 133244, Note_off_c, 0, 65, 100
2, 133248, Note_on_c, 0, 67, 110
2, 133372, Note_off_c, 0, 62, 100
2, 133376, Note_on_c, 0, 63, 110
2, 133500, Note_off_c, 0, 67, 100
2, 133504, Note_on_c, 0, 60, 110
2, 133628, Note_off_c, 0, 63, 100
2, 133628, Note_off_c, 0, 60, 100
2, 133632, Note_on_c, 0, 65, 110
2, 133760, Note_on_c, 0, 59, 110
2, 133884, Note_off_c, 0, 65, 100
2, 133888, Note_on_c, 0, 55, 110
2, 134012, Note_off_c, 0, 59, 100
2, 134016, Note_on_c, 0, 63, 110
2, 134140, Note_off_c, 0, 55, 100
2, 134144, Note_on_c, 0, 60, 110
2, 134268, Note_off_c, 0, 63, 100
2, 134272, Note_on_c, 0, 55, 110
2, 134396, Note_off_c, 0, 60, 100
2, 134400, Note_on_c, 0, 62, 110
2, 134524, Note_off_c, 0, 55, 100
2, 134528, Note_on_c, 0, 56, 110
2, 134652, Note_off_c, 0, 62, 100
2, 134656, Note_on_c, 0, 53, 110
2, 134780, Note_off_c, 0, 56, 100
2, 134784, Note_on_c, 0, 60, 110
2, 134908, Note_off_c, 0, 53, 100
2, 134912, Note_on_c, 0, 57, 110
2, 135036, Note_off_c, 0, 60, 100
2, 135040, Note_on_c, 0, 51, 110
2, 135164, Note_off_c, 0, 57, 100
2, 135164, Note_off_c, 0, 51, 100
2, 135168, Note_on_c, 0, 60, 110
2, 135296, Note_on_c, 0, 55, 110
2, 135420, Note_off_c, 0, 60, 100
2, 135424, Note_on_c, 0, 51, 110
2, 135548, Note_off_c, 0, 55, 100
2, 135552, Note_on_c, 0, 60, 110
2, 135676, Note_off_c, 0, 51, 100
2, 135680, Note_on_c, 0, 55, 110
2, 135804, Note_off_c, 0, 60, 100
2, 135808, Note_on_c, 0, 51, 110
2, 135932, Note_off_c, 0, 55, 100
2, 135936, Note_on_c, 0, 59, 110
2, 136060, Note_off_c, 0, 51, 100
2, 136064, Note_on_c, 0, 55, 110
2, 136188, Note_off_c, 0, 59, 100
2, 136192, Note_on_c, 0, 50, 110
2, 136316, Note_off_c, 0, 55, 100
2, 136320, Note_on_c, 0, 59, 110
2, 136444, Note_off_c, 0, 50, 100
2, 136448, Note_on_c, 0, 55, 110
2, 136572, Note_off_c, 0, 59, 100
2, 136576, Note_on_c, 0, 50, 110
2, 136700, Note_off_c, 0, 55, 100
2, 136700, Note_off_c, 0, 50, 100
2, 136704, Note_on_c, 0, 60, 110
2, 136704, Note_on_c, 0, 51, 110
2, 137084, Note_off_c, 0, 60, 100
2, 137084, Note_off_c, 0, 51, 100
2, 137472, Note_on_c, 0, 75, 100
2, 137472, Note_on_c, 0, 63, 100
2, 137852, Note_off_c, 0, 75, 100
2, 137852, Note_off_c, 0, 63, 100
2, 137856, Note_on_c, 0, 75, 100
2, 137856, Note_on_c, 0, 63, 100
2, 138236, Note_off_c, 0, 75, 100
2, 138236, Note_off_c, 0, 63, 100
2, 138240, Note_on_c, 0, 74, 100
2, 138240, Note_on_c, 0, 62, 100
2, 138620, Note_off_c, 0, 74, 100
2, 138620, Note_off_c, 0, 62, 100
2, 138624, Note_on_c, 0, 72, 100
2, 138624, Note_on_c, 0, 60, 100
2, 139004, Note_off_c, 0, 72, 100
2, 139004, Note_off_c, 0, 60, 100
2, 139008, Note_on_c, 0, 70, 100
2, 139008, Note_on_c, 0, 58, 100
2, 139388, Note_off_c, 0, 70, 100
2, 139388, Note_off_c, 0, 58, 100
2, 139392, Note_on_c, 0, 68, 100
2, 139392, Note_on_c, 0, 56, 100
2, 139772, Note_off_c, 0, 68, 100
2, 139772, Note_off_c, 0, 56, 100
2, 139776, Note_on_c, 0, 67, 100
2, 139776, Note_on_c, 0, 55, 100
2, 140540, Note_off_c, 0, 67, 100
2, 140540, Note_off_c, 0, 55, 100
2, 140544, Note_on_c, 0, 84, 100
2, 140544, Note_on_c, 0, 72, 100
2, 140924, Note_off_c, 0, 84, 100
2, 140924, Note_off_c, 0, 72, 100
2, 140928, Note_on_c, 0, 84, 100
2, 140928, Note_on_c, 0, 72, 100
2, 141308, Note_off_c, 0, 84, 100
2, 141308, Note_off_c, 0, 72, 100
2, 141312, Note_on_c, 0, 82, 100
2, 141312, Note_on_c, 0, 70, 100
2, 141692, Note_off_c, 0, 82, 100
2, 141692, Note_off_c, 0, 70, 100
2, 141696, Note_on_c, 0, 68, 100
2, 141696, Note_on_c, 0, 80, 100
2, 142076, Note_off_c, 0, 68, 100
2, 142076, Note_off_c, 0, 80, 100
2, 142080, Note_on_c, 0, 79, 100
2, 142080, Note_on_c, 0, 67, 100
2, 142460, Note_off_c, 0, 79, 100
2, 142460, Note_off_c, 0, 67, 100
2, 142464, Note_on_c, 0, 77, 100
2, 142464, Note_on_c, 0, 65, 100
2, 142844, Note_off_c, 0, 77, 100
2, 142844, Note_off_c, 0, 65, 100
2, 142848, Note_on_c, 0, 75, 100
2, 142848, Note_on_c, 0, 63, 100
2, 143612, Note_off_c, 0, 75, 100
2, 143612, Note_off_c, 0, 63, 100
2, 143616, Note_on_c, 0, 79, 100
2, 143616, Note_on_c, 0, 67, 100
2, 143996, Note_off_c, 0, 79, 100
2, 143996, Note_off_c, 0, 67, 100
2, 144000, Note_on_c, 0, 79, 100
2, 144000, Note_on_c, 0, 67, 100
2, 144380, Note_off_c, 0, 79, 100
2, 144380, Note_off_c, 0, 67, 100
2, 144384, Note_on_c, 0, 77, 100
2, 144384, Note_on_c, 0, 65, 100
2, 144764, Note_off_c, 0, 77, 100
2, 144764, Note_off_c, 0, 65, 100
2, 144768, Note_on_c, 0, 75, 100
2, 144768, Note_on_c, 0, 63, 100
2, 145148, Note_off_c, 0, 75, 100
2, 145148, Note_off_c, 0, 63, 100
2, 145152, Note_on_c, 0, 74, 100
2, 145152, Note_on_c, 0, 62, 100
2, 145532, Note_off_c, 0, 74, 100
2, 145532, Note_off_c, 0, 62, 100
2, 145536, Note_on_c, 0, 72, 100
2, 145536, Note_on_c, 0, 60, 100
2, 145916, Note_off_c, 0, 72, 100
2, 145916, Note_off_c, 0, 60, 100
2, 145920, Note_on_c, 0, 67, 100
2, 145920, Note_on_c, 0, 55, 100
2, 146684, Note_off_c, 0, 67, 100
2, 146684, Note_off_c, 0, 55, 100
2, 146688, Note_on_c, 0, 67, 100
2, 146688, Note_on_c, 0, 55, 100
2, 147068, Note_off_c, 0, 67, 100
2, 147068, Note_off_c, 0, 55, 100
2, 147072, Note_on_c, 0, 67, 100
2, 147072, Note_on_c, 0, 55, 100
2, 147452, Note_off_c, 0, 67, 100
2, 147452, Note_off_c, 0, 55, 100
2, 147456, Note_on_c, 0, 67, 100
2, 147456, Note_on_c, 0, 55, 100
2, 148220, Note_off_c, 0, 67, 100
2, 148220, Note_off_c, 0, 55, 100
2, 148224, Note_on_c, 0, 67, 100
2, 148224, Note_on_c, 0, 55, 100
2, 148604, Note_off_c, 0, 67, 100
2, 148604, Note_off_c, 0, 55, 100
2, 148608, Note_on_c, 0, 67, 100
2, 148608, Note_on_c, 0, 55, 100
2, 148988, Note_off_c, 0, 67, 100
2, 148988, Note_off_c, 0, 55, 100
2, 148992, Note_on_c, 0, 60, 100
2, 149372, Note_off_c, 0, 60, 100
2, 149760, Note_on_c, 0, 75, 100
2, 149760, Note_on_c, 0, 63, 100
2, 150140, Note_off_c, 0, 75, 100
2, 150140, Note_off_c, 0, 63, 100
2, 150144, Note_on_c, 0, 75, 100
2, 150144, Note_on_c, 0, 63, 100
2, 150524, Note_off_c, 0, 75, 100
2, 150524, Note_off_c, 0, 63, 100
2, 150528, Note_on_c, 0, 74, 100
2, 150528, Note_on_c, 0, 62, 100
2, 150908, Note_off_c, 0, 74, 100
2, 150908, Note_off_c, 0, 62, 100
2, 150912, Note_on_c, 0, 72, 100
2, 150912, Note_on_c, 0, 60, 100
2, 151292, Note_off_c, 0, 72, 100
2, 151292, Note_off_c, 0, 60, 100
2, 151296, Note_on_c, 0, 70, 100
2, 151296, Note_on_c, 0, 58, 100
2, 151676, Note_off_c, 0, 70, 100
2, 151676, Note_off_c, 0, 58, 100
2, 151680, Note_on_c, 0, 68, 100
2, 151680, Note_on_c, 0, 56, 100
2, 152060, Note_off_c, 0, 68, 100
2, 152060, Note_off_c, 0, 56, 100
2, 152064, Note_on_c, 0, 67, 100
2, 152064, Note_on_c, 0, 55, 100
2, 152828, Note_off_c, 0, 67, 100
2, 152828, Note_off_c, 0, 55, 100
2, 152832, Note_on_c, 0, 84, 100
2, 152832, Note_on_c, 0, 72, 100
2, 153212, Note_off_c, 0, 84, 100
2, 153212, Note_off_c, 0, 72, 100
2, 153216, Note_on_c, 0, 84, 100
2, 153216, Note_on_c, 0, 72, 100
2, 153596, Note_off_c, 0, 84, 100
2, 153596, Note_off_c, 0, 72, 100
2, 153600, Note_on_c, 0, 82, 100
2, 153600, Note_on_c, 0, 70, 100
2, 153980, Note_off_c, 0, 82, 100
2, 153980, Note_off_c, 0, 70, 100
2, 153984, Note_on_c, 0, 68, 100
2, 153984, Note_on_c, 0, 80, 100
2, 154364, Note_off_c, 0, 68, 100
2, 154364, Note_off_c, 0, 80, 100
2, 154368, Note_on_c, 0, 79, 100
2, 154368, Note_on_c, 0, 67, 100
2, 154748, Note_off_c, 0, 79, 100
2, 154748, Note_off_c, 0, 67, 100
2, 154752, Note_on_c, 0, 77, 100
2, 154752, Note_on_c, 0, 65, 100
2, 155132, Note_off_c, 0, 77, 100
2, 155132, Note_off_c, 0, 65, 100
2, 155136, Note_on_c, 0, 75, 100
2, 155136, Note_on_c, 0, 63, 100
2, 155900, Note_off_c, 0, 75, 100
2, 155900, Note_off_c, 0, 63, 100
2, 155904, Note_on_c, 0, 79, 100
2, 155904, Note_on_c, 0, 67, 100
2, 156284, Note_off_c, 0, 79, 100
2, 156284, Note_off_c, 0, 67, 100
2, 156288, Note_on_c, 0, 79, 100
2, 156288, Note_on_c, 0, 67, 100
2, 156668, Note_off_c, 0, 79, 100
2, 156668, Note_off_c, 0, 67, 100
2, 156672, Note_on_c, 0, 77, 100
2, 156672, Note_on_c, 0, 65, 100
2, 157052, Note_off_c, 0, 77, 100
2, 157052, Note_off_c, 0, 65, 100
2, 157056, Note_on_c, 0, 75, 100
2, 157056, Note_on_c, 0, 63, 100
2, 157436, Note_off_c, 0, 75, 100
2, 157436, Note_off_c, 0, 63, 100
2, 157440, Note_on_c, 0, 74, 100
2, 157440, Note_on_c, 0, 62, 100
2, 157820, Note_off_c, 0, 74, 100
2, 157820, Note_off_c, 0, 62, 100
2, 157824, Note_on_c, 0, 72, 100
2, 157824, Note_on_c, 0, 60, 100
2, 158204, Note_off_c, 0, 72, 100
2, 158204, Note_off_c, 0, 60, 100
2, 158208, Note_on_c, 0, 67, 100
2, 158208, Note_on_c, 0, 55, 100
2, 158972, Note_off_c, 0, 67, 100
2, 158972, Note_off_c, 0, 55, 100
2, 158976, Note_on_c, 0, 67, 100
2, 158976, Note_on_c, 0, 55, 100
2, 159356, Note_off_c, 0, 67, 100
2, 159356, Note_off_c, 0, 55, 100
2, 159360, Note_on_c, 0, 67, 100
2, 159360, Note_on_c, 0, 55, 100
2, 159740, Note_off_c, 0, 67, 100
2, 159740, Note_off_c, 0, 55, 100
2, 159744, Note_on_c, 0, 67, 100
2, 159744, Note_on_c, 0, 55, 100
2, 160508, Note_off_c, 0, 67, 100
2, 160508, Note_off_c, 0, 55, 100
2, 160512, Note_on_c, 0, 67, 100
2, 160512, Note_on_c, 0, 55, 100
2, 160892, Note_off_c, 0, 67, 100
2, 160892, Note_off_c, 0, 55, 100
2, 160896, Note_on_c, 0, 67, 100
2, 160896, Note_on_c, 0, 55, 100
2, 161276, Note_off_c, 0, 67, 100
2, 161276, Note_off_c, 0, 55, 100
2, 161280, Note_on_c, 0, 60, 100
2, 161660, Note_off_c, 0, 60, 100
2, 162048, Note_on_c, 0, 84, 120
2, 162048, Note_on_c, 0, 79, 120
2, 162048, Note_on_c, 0, 75, 120
2, 162048, Note_on_c, 0, 72, 120
2, 162428, Note_off_c, 0, 84, 100
2, 162428, Note_off_c, 0, 79, 100
2, 162428, Note_off_c, 0, 75, 100
2, 162428, Note_off_c, 0, 72, 100
2, 162432, Note_on_c, 0, 83, 120
2, 162432, Note_on_c, 0, 80, 120
2, 162432, Note_on_c, 0, 77, 120
2, 162432, Note_on_c, 0, 74, 120
2, 162432, Note_on_c, 0, 71, 120
2, 162812, Note_off_c, 0, 83, 100
2, 162812, Note_off_c, 0, 80, 100
2, 162812, Note_off_c, 0, 77, 100
2, 162812, Note_off_c, 0, 74, 100
2, 162812, Note_off_c, 0, 71, 100
2, 162816, Note_on_c, 0, 79, 120
2, 162816, Note_on_c, 0, 75, 120
2, 162816, Note_on_c, 0, 72, 120
2, 162816, Note_on_c, 0, 84, 120
2, 163196, Note_off_c, 0, 79, 100
2, 163196, Note_off_c, 0, 75, 100
2, 163196, Note_off_c, 0, 72, 100
2, 163196, Note_off_c, 0, 84, 100
2, 163584, Note_on_c, 0, 79, 120
2, 163584, Note_on_c, 0, 75, 120
2, 163584, Note_on_c, 0, 72, 120
2, 163584, Note_on_c, 0, 67, 120
2, 163964, Note_off_c, 0, 79, 100
2, 163964, Note_off_c, 0, 75, 100
2, 163964, Note_off_c, 0, 72, 100
2, 163964, Note_off_c, 0, 67, 100
2, 163968, Note_on_c, 0, 79, 120
2, 163968, Note_on_c, 0, 74, 120
2, 163968, Note_on_c, 0, 71, 120
2, 163968, Note_on_c, 0, 67, 120
2, 164348, Note_off_c, 0, 79, 100
2, 164348, Note_off_c, 0, 74, 100
2, 164348, Note_off_c, 0, 71, 100
2, 164348, Note_off_c, 0, 67, 100
2, 164352, Note_on_c, 0, 79, 120
2, 164352, Note_on_c, 0, 75, 120
2, 164352, Note_on_c, 0, 72, 120
2, 164352, Note_on_c, 0, 67, 120
2, 164732, Note_off_c, 0, 79, 100
2, 164732, Note_off_c, 0, 75, 100
2, 164732, Note_off_c, 0, 72, 100
2, 164732, Note_off_c, 0, 67, 100
2, 165120, Note_on_c, 0, 84, 120
2, 165120, Note_on_c, 0, 79, 120
2, 165120, Note_on_c, 0, 75, 120
2, 165120, Note_on_c, 0, 72, 120
2, 165500, Note_off_c, 0, 84, 100
2, 165500, Note_off_c, 0, 79, 100
2, 165500, Note_off_c, 0, 75, 100
2, 165500, Note_off_c, 0, 72, 100
2, 165504, Note_on_c, 0, 83, 120
2, 165504, Note_on_c, 0, 80, 120
2, 165504, Note_on_c, 0, 77, 120
2, 165504, Note_on_c, 0, 74, 120
2, 165504, Note_on_c, 0, 71, 120
2, 165884, Note_off_c, 0, 83, 100
2, 165884, Note_off_c, 0, 80, 100
2, 165884, Note_off_c, 0, 77, 100
2, 165884, Note_off_c, 0, 74, 100
2, 165884, Note_off_c, 0, 71, 100
2, 165888, Note_on_c, 0, 79, 120
2, 165888, Note_on_c, 0, 75, 120
2, 165888, Note_on_c, 0, 72, 120
2, 165888, Note_on_c, 0, 84, 120
2, 166268, Note_off_c, 0, 79, 100
2, 166268, Note_off_c, 0, 75, 100
2, 166268, Note_off_c, 0, 72, 100
2, 166268, Note_off_c, 0, 84, 100
2, 166656, Note_on_c, 0, 79, 120
2, 166656, Note_on_c, 0, 75, 120
2, 166656, Note_on_c, 0, 72, 120
2, 166656, Note_on_c, 0, 67, 120
2, 167036, Note_off_c, 0, 79, 100
2, 167036, Note_off_c, 0, 75, 100
2, 167036, Note_off_c, 0, 72, 100
2, 167036, Note_off_c, 0, 67, 100
2, 167040, Note_on_c, 0, 79, 120
2, 167040, Note_on_c, 0, 74, 120
2, 167040, Note_on_c, 0, 71, 120
2, 167040, Note_on_c, 0, 67, 120
2, 167420, Note_off_c, 0, 79, 100
2, 167420, Note_off_c, 0, 74, 100
2, 167420, Note_off_c, 0, 71, 100
2, 167420, Note_off_c, 0, 67, 100
2, 167424, Note_on_c, 0, 79, 120
2, 167424, Note_on_c, 0, 75, 120
2, 167424, Note_on_c, 0, 72, 120
2, 167424, Note_on_c, 0, 67, 120
2, 167804, Note_off_c, 0, 79, 100
2, 167804, Note_off_c, 0, 75, 100
2, 167804, Note_off_c, 0, 72, 100
2, 167804, Note_off_c, 0, 67, 100
2, 168192, Note_on_c, 0, 79, 120
2, 168192, Note_on_c, 0, 75, 120
2, 168192, Note_on_c, 0, 72, 120
2, 168192, Note_on_c, 0, 67, 120
2, 168572, Note_off_c, 0, 79, 100
2, 168572, Note_off_c, 0, 75, 100
2, 168572, Note_off_c, 0, 72, 100
2, 168572, Note_off_c, 0, 67, 100
2, 168576, Note_on_c, 0, 79, 120
2, 168576, Note_on_c, 0, 74, 120
2, 168576, Note_on_c, 0, 71, 120
2, 168576, Note_on_c, 0, 67, 120
2, 168956, Note_off_c, 0, 79, 100
2, 168956, Note_off_c, 0, 74, 100
2, 168956, Note_off_c, 0, 71, 100
2, 168956, Note_off_c, 0, 67, 100
2, 168960, Note_on_c, 0, 79, 120
2, 168960, Note_on_c, 0, 75, 120
2, 168960, Note_on_c, 0, 72, 120
2, 168960, Note_on_c, 0, 67, 120
2, 169340, Note_off_c, 0, 79, 100
2, 169340, Note_off_c, 0, 75, 100
2, 169340, Note_off_c, 0, 72, 100
2, 169340, Note_off_c, 0, 67, 100
2, 169728, Note_on_c, 0, 75, 120
2, 169728, Note_on_c, 0, 72, 120
2, 169728, Note_on_c, 0, 67, 120
2, 170108, Note_off_c, 0, 75, 100
2, 170108, Note_off_c, 0, 72, 100
2, 170108, Note_off_c, 0, 67, 100
2, 170496, Note_on_c, 0, 72, 120
2, 170496, Note_on_c, 0, 67, 120
2, 170496, Note_on_c, 0, 63, 120
2, 170876, Note_off_c, 0, 72, 100
2, 170876, Note_off_c, 0, 67, 100
2, 170876, Note_off_c, 0, 63, 100
2, 172032, Note_on_c, 0, 73, 120
2, 172032, Note_on_c, 0, 67, 120
2, 172032, Note_on_c, 0, 63, 120
2, 172032, Note_on_c, 0, 61, 120
2, 172412, Note_off_c, 0, 73, 100
2, 172412, Note_off_c, 0, 67, 100
2, 172412, Note_off_c, 0, 63, 100
2, 172412, Note_off_c, 0, 61, 100
2, 172800, Note_on_c, 0, 70, 120
2, 172800, Note_on_c, 0, 67, 120
2, 172800, Note_on_c, 0, 63, 120
2, 172800, Note_on_c, 0, 61, 120
2, 173180, Note_off_c, 0, 70, 100
2, 173180, Note_off_c, 0, 67, 100
2, 173180, Note_off_c, 0, 63, 100
2, 173180, Note_off_c, 0, 61, 100
2, 173568, Note_on_c, 0, 67, 120
2, 173568, Note_on_c, 0, 63, 120
2, 173568, Note_on_c, 0, 61, 120
2, 174332, Note_off_c, 0, 67, 100
2, 174332, Note_off_c, 0, 63, 100
2, 174332, Note_off_c, 0, 61, 100
2, 175104, Note_on_c, 0, 63, 80
2, 176636, Note_off_c, 0, 63, 100
2, 176640, Note_on_c, 0, 68, 80
2, 177404, Note_off_c, 0, 68, 100
2, 177408, Note_on_c, 0, 72, 80
2, 178172, Note_off_c, 0, 72, 100
2, 178176, Note_on_c, 0, 75, 80
2, 179324, Note_off_c, 0, 75, 100
2, 179328, Note_on_c, 0, 75, 80
2, 179708, Note_off_c, 0, 75, 100
2, 179712, Note_on_c, 0, 74, 80
2, 180092, Note_off_c, 0, 74, 100
2, 180096, Note_on_c, 0, 75, 80
2, 180476, Note_off_c, 0, 75, 100
2, 180480, Note_on_c, 0, 77, 80
2, 180860, Note_off_c, 0, 77, 100
2, 180864, Note_on_c, 0, 75, 80
2, 181244, Note_off_c, 0, 75, 100
2, 181248, Note_on_c, 0, 75, 80
2, 181628, Note_off_c, 0, 75, 100
2, 181632, Note_on_c, 0, 73, 80
2, 182012, Note_off_c, 0, 73, 100
2, 182400, Note_on_c, 0, 73, 80
2, 182780, Note_off_c, 0, 73, 100
2, 182784, Note_on_c, 0, 73, 80
2, 183164, Note_off_c, 0, 73, 100
2, 183168, Note_on_c, 0, 72, 80
2, 183548, Note_off_c, 0, 72, 100
2, 183936, Note_on_c, 0, 72, 80
2, 184316, Note_off_c, 0, 72, 100
2, 184320, Note_on_c, 0, 72, 80
2, 184508, Note_off_c, 0, 72, 100
2, 184512, Note_on_c, 0, 70, 80
2, 184700, Note_off_c, 0, 70, 100
2, 184704, Note_on_c, 0, 73, 80
2, 184892, Note_off_c, 0, 73, 100
2, 184896, Note_on_c, 0, 72, 80
2, 185084, Note_off_c, 0, 72, 100
2, 185088, Note_on_c, 0, 75, 80
2, 185276, Note_off_c, 0, 75, 100
2, 185280, Note_on_c, 0, 73, 80
2, 185468, Note_off_c, 0, 73, 100
2, 185472, Note_on_c, 0, 72, 80
2, 185660, Note_off_c, 0, 72, 100
2, 185664, Note_on_c, 0, 70, 80
2, 185852, Note_off_c, 0, 70, 100
2, 185856, Note_on_c, 0, 68, 80
2, 186236, Note_off_c, 0, 68, 100
2, 186240, Note_on_c, 0, 70, 80
2, 186336, Note_on_c, 0, 68, 80
2, 186428, Note_off_c, 0, 70, 100
2, 186432, Note_on_c, 0, 67, 80
2, 186524, Note_off_c, 0, 68, 100
2, 186528, Note_on_c, 0, 68, 80
2, 186620, Note_off_c, 0, 67, 100
2, 186620, Note_off_c, 0, 68, 100
2, 186624, Note_on_c, 0, 72, 80
2, 187004, Note_off_c, 0, 72, 100
2, 187008, Note_on_c, 0, 70, 80
2, 187388, Note_off_c, 0, 70, 100
2, 187392, Note_on_c, 0, 70, 80
2, 188540, Note_off_c, 0, 70, 100
2, 188544, Note_on_c, 0, 72, 80
2, 188924, Note_off_c, 0, 72, 100
2, 188928, Note_on_c, 0, 68, 80
2, 189308, Note_off_c, 0, 68, 100
2, 190464, Note_on_c, 0, 75, 80
2, 191612, Note_off_c, 0, 75, 100
2, 191616, Note_on_c, 0, 75, 80
2, 191996, Note_off_c, 0, 75, 100
2, 192000, Note_on_c, 0, 79, 80
2, 192380, Note_off_c, 0, 79, 100
2, 192384, Note_on_c, 0, 80, 80
2, 192764, Note_off_c, 0, 80, 100
2, 192768, Note_on_c, 0, 83, 80
2, 193148, Note_off_c, 0, 83, 100
2, 193152, Note_on_c, 0, 84, 80
2, 193532, Note_off_c, 0, 84, 100
2, 193536, Note_on_c, 0, 86, 80
2, 193916, Note_off_c, 0, 86, 100
2, 193920, Note_on_c, 0, 87, 80
2, 194300, Note_off_c, 0, 87, 100
2, 194688, Note_on_c, 0, 87, 80
2, 195068, Note_off_c, 0, 87, 100
2, 195072, Note_on_c, 0, 86, 80
2, 195452, Note_off_c, 0, 86, 100
2, 195456, Note_on_c, 0, 87, 80
2, 195836, Note_off_c, 0, 87, 100
2, 195840, Note_on_c, 0, 89, 80
2, 196220, Note_off_c, 0, 89, 100
2, 196224, Note_on_c, 0, 87, 80
2, 196604, Note_off_c, 0, 87, 100
2, 196608, Note_on_c, 0, 87, 80
2, 196988, Note_off_c, 0, 87, 100
2, 196992, Note_on_c, 0, 85, 80
2, 197372, Note_off_c, 0, 85, 100
2, 197760, Note_on_c, 0, 85, 80
2, 198140, Note_off_c, 0, 85, 100
2, 198144, Note_on_c, 0, 85, 80
2, 198524, Note_off_c, 0, 85, 100
2, 198528, Note_on_c, 0, 84, 80
2, 198908, Note_off_c, 0, 84, 100
2, 199296, Note_on_c, 0, 84, 80
2, 199676, Note_off_c, 0, 84, 100
2, 199680, Note_on_c, 0, 84, 80
2, 199868, Note_off_c, 0, 84, 100
2, 199872, Note_on_c, 0, 82, 80
2, 200060, Note_off_c, 0, 82, 100
2, 200064, Note_on_c, 0, 85, 80
2, 200252, Note_off_c, 0, 85, 100
2, 200256, Note_on_c, 0, 84, 80
2, 200444, Note_off_c, 0, 84, 100
2, 200448, Note_on_c, 0, 87, 80
2, 200636, Note_off_c, 0, 87, 100
2, 200640, Note_on_c, 0, 85, 80
2, 200828, Note_off_c, 0, 85, 100
2, 200832, Note_on_c, 0, 84, 80
2, 201020, Note_off_c, 0, 84, 100
2, 201024, Note_on_c, 0, 82, 80
2, 201212, Note_off_c, 0, 82, 100
2, 201216, Note_on_c, 0, 80, 80
2, 201596, Note_off_c, 0, 80, 100
2, 201600, Note_on_c, 0, 82, 80
2, 201696, Note_on_c, 0, 80, 80
2, 201788, Note_off_c, 0, 82, 100
2, 201792, Note_on_c, 0, 79, 80
2, 201884, Note_off_c, 0, 80, 100
2, 201888, Note_on_c, 0, 80, 80
2, 201980, Note_off_c, 0, 79, 100
2, 201980, Note_off_c, 0, 80, 100
2, 201984, Note_on_c, 0, 84, 80
2, 202364, Note_off_c, 0, 84, 100
2, 202368, Note_on_c, 0, 82, 80
2, 202748, Note_off_c, 0, 82, 100
2, 202752, Note_on_c, 0, 82, 80
2, 202752, Note_on_c, 0, 73, 80
2, 203900, Note_off_c, 0, 82, 100
2, 203904, Note_on_c, 0, 84, 80
2, 204284, Note_off_c, 0, 73, 100
2, 204284, Note_off_c, 0, 84, 100
2, 204288, Note_on_c, 0, 80, 80
2, 204288, Note_on_c, 0, 72, 80
2, 204668, Note_off_c, 0, 80, 100
2, 204668, Note_off_c, 0, 72, 100
2, 205440, Note_on_c, 0, 75, 80
2, 205820, Note_off_c, 0, 75, 100
2, 205824, Note_on_c, 0, 75, 80
2, 206204, Note_off_c, 0, 75, 100
2, 206208, Note_on_c, 0, 77, 80
2, 206588, Note_off_c, 0, 77, 100
2, 206592, Note_on_c, 0, 79, 80
2, 206972, Note_off_c, 0, 79, 100
2, 206976, Note_on_c, 0, 80, 80
2, 207356, Note_off_c, 0, 80, 100
2, 207360, Note_on_c, 0, 82, 80
2, 207740, Note_off_c, 0, 82, 100
2, 207744, Note_on_c, 0, 79, 80
2, 208124, Note_off_c, 0, 79, 100
2, 208128, Note_on_c, 0, 75, 80
2, 208508, Note_off_c, 0, 75, 100
2, 208512, Note_on_c, 0, 73, 80
2, 208892, Note_off_c, 0, 73, 100
2, 208896, Note_on_c, 0, 75, 80
2, 210044, Note_off_c, 0, 75, 100
2, 210048, Note_on_c, 0, 73, 80
2, 210144, Note_on_c, 0, 75, 80
2, 210236, Note_off_c, 0, 73, 100
2, 210240, Note_on_c, 0, 72, 80
2, 210332, Note_off_c, 0, 75, 100
2, 210336, Note_on_c, 0, 73, 80
2, 210428, Note_off_c, 0, 72, 100
2, 210428, Note_off_c, 0, 73, 100
2, 210432, Note_on_c, 0, 72, 80
2, 211196, Note_off_c, 0, 72, 100
2, 211584, Note_on_c, 0, 75, 80
2, 211964, Note_off_c, 0, 75, 100
2, 211968, Note_on_c, 0, 75, 80
2, 212156, Note_off_c, 0, 75, 100
2, 212160, Note_on_c, 0, 77, 80
2, 212348, Note_off_c, 0, 77, 100
2, 212352, Note_on_c, 0, 75, 80
2, 212540, Note_off_c, 0, 75, 100
2, 212544, Note_on_c, 0, 74, 80
2, 212732, Note_off_c, 0, 74, 100
2, 212736, Note_on_c, 0, 75, 80
2, 212924, Note_off_c, 0, 75, 100
2, 212928, Note_on_c, 0, 77, 80
2, 213116, Note_off_c, 0, 77, 100
2, 213120, Note_on_c, 0, 79, 80
2, 213308, Note_off_c, 0, 79, 100
2, 213312, Note_on_c, 0, 80, 80
2, 213500, Note_off_c, 0, 80, 100
2, 213504, Note_on_c, 0, 81, 80
2, 213692, Note_off_c, 0, 81, 100
2, 213696, Note_on_c, 0, 82, 80
2, 213884, Note_off_c, 0, 82, 100
2, 213888, Note_on_c, 0, 84, 80
2, 214076, Note_off_c, 0, 84, 100
2, 214080, Note_on_c, 0, 82, 80
2, 214268, Note_off_c, 0, 82, 100
2, 214272, Note_on_c, 0, 80, 80
2, 214460, Note_off_c, 0, 80, 100
2, 214464, Note_on_c, 0, 79, 80
2, 214652, Note_off_c, 0, 79, 100
2, 214656, Note_on_c, 0, 77, 80
2, 214844, Note_off_c, 0, 77, 100
2, 214848, Note_on_c, 0, 75, 80
2, 215036, Note_off_c, 0, 75, 100
2, 215040, Note_on_c, 0, 75, 80
2, 215804, Note_off_c, 0, 75, 100
2, 215808, Note_on_c, 0, 73, 80
2, 215904, Note_on_c, 0, 75, 80
2, 215996, Note_off_c, 0, 73, 100
2, 216000, Note_on_c, 0, 73, 80
2, 216092, Note_off_c, 0, 75, 100
2, 216096, Note_on_c, 0, 75, 80
2, 216188, Note_off_c, 0, 73, 100
2, 216192, Note_on_c, 0, 73, 80
2, 216284, Note_off_c, 0, 75, 100
2, 216288, Note_on_c, 0, 75, 80
2, 216380, Note_off_c, 0, 73, 100
2, 216384, Note_on_c, 0, 72, 80
2, 216476, Note_off_c, 0, 75, 100
2, 216480, Note_on_c, 0, 73, 80
2, 216572, Note_off_c, 0, 72, 100
2, 216572, Note_off_c, 0, 73, 100
2, 216576, Note_on_c, 0, 72, 80
2, 217340, Note_off_c, 0, 72, 100
2, 218112, Note_on_c, 0, 75, 80
2, 218112, Note_on_c, 0, 63, 80
2, 219644, Note_off_c, 0, 75, 100
2, 219644, Note_off_c, 0, 63, 100
2, 219648, Note_on_c, 0, 68, 80
2, 219648, Note_on_c, 0, 80, 80
2, 220412, Note_off_c, 0, 68, 100
2, 220412, Note_off_c, 0, 80, 100
2, 220416, Note_on_c, 0, 84, 99
2, 220416, Note_on_c, 0, 72, 99
2, 221180, Note_off_c, 0, 84, 100
2, 221180, Note_off_c, 0, 72, 100
2, 221184, Note_on_c, 0, 75, 110
2, 221184, Note_on_c, 0, 87, 110
2, 221564, Note_off_c, 0, 75, 100
2, 221564, Note_off_c, 0, 87, 100
2, 221568, Note_on_c, 0, 85, 110
2, 221568, Note_on_c, 0, 73, 110
2, 221948, Note_off_c, 0, 85, 100
2, 221948, Note_off_c, 0, 73, 100
2, 222336, Note_on_c, 0, 73, 110
2, 222336, Note_on_c, 0, 85, 110
2, 222716, Note_off_c, 0, 73, 100
2, 222716, Note_off_c, 0, 85, 100
2, 222720, Note_on_c, 0, 85, 110
2, 222720, Note_on_c, 0, 73, 110
2, 223100, Note_off_c, 0, 85, 100
2, 223100, Note_off_c, 0, 73, 100
2, 223104, Note_on_c, 0, 84, 110
2, 223104, Note_on_c, 0, 72, 110
2, 223484, Note_off_c, 0, 84, 100
2, 223484, Note_off_c, 0, 72, 100
2, 223872, Note_on_c, 0, 72, 110
2, 223872, Note_on_c, 0, 84, 110
2, 224252, Note_off_c, 0, 72, 100
2, 224252, Note_off_c, 0, 84, 100
2, 224256, Note_on_c, 0, 72, 110
2, 224256, Note_on_c, 0, 84, 110
2, 224636, Note_off_c, 0, 72, 100
2, 224636, Note_off_c, 0, 84, 100
2, 224640, Note_on_c, 0, 70, 110
2, 224640, Note_on_c, 0, 82, 110
2, 225020, Note_off_c, 0, 70, 100
2, 225020, Note_off_c, 0, 82, 100
2, 225024, Note_on_c, 0, 77, 110
2, 225024, Note_on_c, 0, 89, 110
2, 225404, Note_off_c, 0, 77, 100
2, 225404, Note_off_c, 0, 89, 100
2, 225408, Note_on_c, 0, 75, 110
2, 225408, Note_on_c, 0, 87, 110
2, 225788, Note_off_c, 0, 75, 100
2, 225788, Note_off_c, 0, 87, 100
2, 225792, Note_on_c, 0, 75, 110
2, 225792, Note_on_c, 0, 87, 110
2, 226172, Note_off_c, 0, 75, 100
2, 226172, Note_off_c, 0, 87, 100
2, 226176, Note_on_c, 0, 85, 110
2, 226176, Note_on_c, 0, 73, 110
2, 226556, Note_off_c, 0, 85, 100
2, 226556, Note_off_c, 0, 73, 100
2, 226560, Note_on_c, 0, 84, 110
2, 226560, Note_on_c, 0, 72, 110
2, 226940, Note_off_c, 0, 84, 100
2, 226940, Note_off_c, 0, 72, 100
2, 226944, Note_on_c, 0, 82, 110
2, 226944, Note_on_c, 0, 70, 110
2, 227324, Note_off_c, 0, 82, 100
2, 227324, Note_off_c, 0, 70, 100
2, 227328, Note_on_c, 0, 70, 110
2, 227328, Note_on_c, 0, 82, 110
2, 228476, Note_off_c, 0, 70, 100
2, 228476, Note_off_c, 0, 82, 100
2, 228480, Note_on_c, 0, 72, 110
2, 228480, Note_on_c, 0, 84, 110
2, 228860, Note_off_c, 0, 72, 100
2, 228860, Note_off_c, 0, 84, 100
2, 228864, Note_on_c, 0, 68, 110
2, 228864, Note_on_c, 0, 80, 110
2, 229628, Note_off_c, 0, 68, 100
2, 229628, Note_off_c, 0, 80, 100
2, 230016, Note_on_c, 0, 75, 100
2, 230396, Note_off_c, 0, 75, 100
2, 230400, Note_on_c, 0, 75, 100
2, 230780, Note_off_c, 0, 75, 100
2, 230784, Note_on_c, 0, 77, 100
2, 231164, Note_off_c, 0, 77, 100
2, 231168, Note_on_c, 0, 79, 100
2, 231548, Note_off_c, 0, 79, 100
2, 231552, Note_on_c, 0, 80, 100
2, 231932, Note_off_c, 0, 80, 100
2, 231936, Note_on_c, 0, 82, 100
2, 232316, Note_off_c, 0, 82, 100
2, 232320, Note_on_c, 0, 79, 100
2, 232700, Note_off_c, 0, 79, 100
2, 232704, Note_on_c, 0, 75, 100
2, 233084, Note_off_c, 0, 75, 100
2, 233088, Note_on_c, 0, 73, 100
2, 233468, Note_off_c, 0, 73, 100
2, 233472, Note_on_c, 0, 75, 100
2, 234620, Note_off_c, 0, 75, 100
2, 234624, Note_on_c, 0, 73, 100
2, 234720, Note_on_c, 0, 75, 100
2, 234812, Note_off_c, 0, 73, 100
2, 234816, Note_on_c, 0, 72, 100
2, 234908, Note_off_c, 0, 75, 100
2, 234912, Note_on_c, 0, 73, 100
2, 235004, Note_off_c, 0, 72, 100
2, 235004, Note_off_c, 0, 73, 100
2, 235008, Note_on_c, 0, 72, 100
2, 235772, Note_off_c, 0, 72, 100
2, 236160, Note_on_c, 0, 75, 100
2, 236540, Note_off_c, 0, 75, 100
2, 236544, Note_on_c, 0, 75, 100
2, 236732, Note_off_c, 0, 75, 100
2, 236736, Note_on_c, 0, 77, 100
2, 236924, Note_off_c, 0, 77, 100
2, 236928, Note_on_c, 0, 75, 100
2, 237116, Note_off_c, 0, 75, 100
2, 237120, Note_on_c, 0, 74, 100
2, 237308, Note_off_c, 0, 74, 100
2, 237312, Note_on_c, 0, 75, 100
2, 237500, Note_off_c, 0, 75, 100
2, 237504, Note_on_c, 0, 77, 100
2, 237692, Note_off_c, 0, 77, 100
2, 237696, Note_on_c, 0, 79, 100
2, 237884, Note_off_c, 0, 79, 100
2, 237888, Note_on_c, 0, 80, 100
2, 238076, Note_off_c, 0, 80, 100
2, 238080, Note_on_c, 0, 82, 100
2, 238268, Note_off_c, 0, 82, 100
2, 238272, Note_on_c, 0, 83, 100
2, 238460, Note_off_c, 0, 83, 100
2, 238464, Note_on_c, 0, 84, 100
2, 238652, Note_off_c, 0, 84, 100
2, 238656, Note_on_c, 0, 85, 100
2, 238844, Note_off_c, 0, 85, 100
2, 238848, Note_on_c, 0, 86, 100
2, 239036, Note_off_c, 0, 86, 100
2, 239040, Note_on_c, 0, 87, 100
2, 239228, Note_off_c, 0, 87, 100
2, 239232, Note_on_c, 0, 89, 100
2, 239420, Note_off_c, 0, 89, 100
2, 239424, Note_on_c, 0, 87, 100
2, 239612, Note_off_c, 0, 87, 100
2, 239616, Note_on_c, 0, 87, 100
2, 240380, Note_off_c, 0, 87, 100
2, 240384, Note_on_c, 0, 85, 100
2, 240480, Note_on_c, 0, 87, 100
2, 240572, Note_off_c, 0, 85, 100
2, 240576, Note_on_c, 0, 85, 100
2, 240668, Note_off_c, 0, 87, 100
2, 240672, Note_on_c, 0, 87, 100
2, 240764, Note_off_c, 0, 85, 100
2, 240768, Note_on_c, 0, 85, 100
2, 240860, Note_off_c, 0, 87, 100
2, 240864, Note_on_c, 0, 87, 100
2, 240956, Note_off_c, 0, 85, 100
2, 240960, Note_on_c, 0, 84, 100
2, 241052, Note_off_c, 0, 87, 100
2, 241056, Note_on_c, 0, 85, 100
2, 241148, Note_off_c, 0, 84, 100
2, 241148, Note_off_c, 0, 85, 100
2, 241152, Note_on_c, 0, 84, 100
2, 241916, Note_off_c, 0, 84, 100
2, 242688, Note_on_c, 0, 75, 100
2, 242688, Note_on_c, 0, 63, 100
2, 244220, Note_off_c, 0, 75, 100
2, 244220, Note_off_c, 0, 63, 100
2, 244224, Note_on_c, 0, 68, 100
2, 244224, Note_on_c, 0, 80, 100
2, 244988, Note_off_c, 0, 68, 100
2, 244988, Note_off_c, 0, 80, 100
2, 244992, Note_on_c, 0, 84, 105
2, 244992, Note_on_c, 0, 72, 105
2, 245756, Note_off_c, 0, 84, 100
2, 245756, Note_off_c, 0, 72, 100
2, 245760, Note_on_c, 0, 75, 110
2, 245760, Note_on_c, 0, 87, 110
2, 246140, Note_off_c, 0, 75, 100
2, 246140, Note_off_c, 0, 87, 100
2, 246144, Note_on_c, 0, 85, 110
2, 246144, Note_on_c, 0, 73, 110
2, 246524, Note_off_c, 0, 85, 100
2, 246524, Note_off_c, 0, 73, 100
2, 246912, Note_on_c, 0, 73, 110
2, 246912, Note_on_c, 0, 85, 110
2, 247292, Note_off_c, 0, 73, 100
2, 247292, Note_off_c, 0, 85, 100
2, 247296, Note_on_c, 0, 85, 110
2, 247296, Note_on_c, 0, 73, 110
2, 247676, Note_off_c, 0, 85, 100
2, 247676, Note_off_c, 0, 73, 100
2, 247680, Note_on_c, 0, 84, 110
2, 247680, Note_on_c, 0, 72, 110
2, 248060, Note_off_c, 0, 84, 100
2, 248060, Note_off_c, 0, 72, 100
2, 248448, Note_on_c, 0, 72, 110
2, 248448, Note_on_c, 0, 84, 110
2, 248828, Note_off_c, 0, 72, 100
2, 248828, Note_off_c, 0, 84, 100
2, 248832, Note_on_c, 0, 72, 110
2, 248832, Note_on_c, 0, 84, 110
2, 249212, Note_off_c, 0, 72, 100
2, 249212, Note_off_c, 0, 84, 100
2, 249216, Note_on_c, 0, 70, 110
2, 249216, Note_on_c, 0, 82, 110
2, 249596, Note_off_c, 0, 70, 100
2, 249596, Note_off_c, 0, 82, 100
2, 249600, Note_on_c, 0, 77, 110
2, 249600, Note_on_c, 0, 89, 110
2, 249980, Note_off_c, 0, 77, 100
2, 249980, Note_off_c, 0, 89, 100
2, 249984, Note_on_c, 0, 75, 110
2, 249984, Note_on_c, 0, 87, 110
2, 250364, Note_off_c, 0, 75, 100
2, 250364, Note_off_c, 0, 87, 100
2, 250368, Note_on_c, 0, 75, 110
2, 250368, Note_on_c, 0, 87, 110
2, 250748, Note_off_c, 0, 75, 100
2, 250748, Note_off_c, 0, 87, 100
2, 250752, Note_on_c, 0, 85, 110
2, 250752, Note_on_c, 0, 73, 110
2, 251132, Note_off_c, 0, 85, 100
2, 251132, Note_off_c, 0, 73, 100
2, 251136, Note_on_c, 0, 84, 110
2, 251136, Note_on_c, 0, 72, 110
2, 251516, Note_off_c, 0, 84, 100
2, 251516, Note_off_c, 0, 72, 100
2, 251520, Note_on_c, 0, 82, 110
2, 251520, Note_on_c, 0, 70, 110
2, 251900, Note_off_c, 0, 82, 100
2, 251900, Note_off_c, 0, 70, 100
2, 251904, Note_on_c, 0, 68, 110
2, 251904, Note_on_c, 0, 80, 110
2, 252284, Note_off_c, 0, 68, 100
2, 252284, Note_off_c, 0, 80, 100
2, 252672, Note_on_c, 0, 72, 70
2, 252672, Note_on_c, 0, 60, 70
2, 253052, Note_off_c, 0, 72, 100
2, 253052, Note_off_c, 0, 60, 100
2, 253056, Note_on_c, 0, 71, 70
2, 253056, Note_on_c, 0, 59, 70
2, 253436, Note_off_c, 0, 71, 100
2, 253436, Note_off_c, 0, 59, 100
2, 253440, Note_on_c, 0, 72, 70
2, 253440, Note_on_c, 0, 60, 70
2, 253820, Note_off_c, 0, 72, 100
2, 253820, Note_off_c, 0, 60, 100
2, 254208, Note_on_c, 0, 72, 70
2, 254208, Note_on_c, 0, 60, 70
2, 254588, Note_off_c, 0, 72, 100
2, 254588, Note_off_c, 0, 60, 100
2, 254592, Note_on_c, 0, 71, 70
2, 254592, Note_on_c, 0, 59, 70
2, 254972, Note_off_c, 0, 71, 100
2, 254972, Note_off_c, 0, 59, 100
2, 254976, Note_on_c, 0, 72, 70
2, 256124, Note_off_c, 0, 72, 100
2, 256128, Note_on_c, 0, 73, 70
2, 256224, Note_on_c, 0, 72, 70
2, 256316, Note_off_c, 0, 73, 100
2, 256320, Note_on_c, 0, 71, 70
2, 256412, Note_off_c, 0, 72, 100
2, 256416, Note_on_c, 0, 72, 70
2, 256508, Note_off_c, 0, 71, 100
2, 256508, Note_off_c, 0, 72, 100
2, 256512, Note_on_c, 0, 84, 105
2, 257660, Note_off_c, 0, 84, 100
2, 257664, Note_on_c, 0, 72, 70
2, 258044, Note_off_c, 0, 72, 100
2, 258048, Note_on_c, 0, 70, 70
2, 258428, Note_off_c, 0, 70, 100
2, 258816, Note_on_c, 0, 70, 70
2, 258816, Note_on_c, 0, 58, 70
2, 259196, Note_off_c, 0, 70, 100
2, 259196, Note_off_c, 0, 58, 100
2, 259200, Note_on_c, 0, 69, 70
2, 259200, Note_on_c, 0, 57, 70
2, 259580, Note_off_c, 0, 69, 100
2, 259580, Note_off_c, 0, 57, 100
2, 259584, Note_on_c, 0, 70, 70
2, 259584, Note_on_c, 0, 58, 70
2, 259964, Note_off_c, 0, 70, 100
2, 259964, Note_off_c, 0, 58, 100
2, 260352, Note_on_c, 0, 70, 70
2, 260352, Note_on_c, 0, 58, 70
2, 260732, Note_off_c, 0, 70, 100
2, 260732, Note_off_c, 0, 58, 100
2, 260736, Note_on_c, 0, 69, 70
2, 260736, Note_on_c, 0, 57, 70
2, 261116, Note_off_c, 0, 69, 100
2, 261116, Note_off_c, 0, 57, 100
2, 261120, Note_on_c, 0, 70, 70
2, 262268, Note_off_c, 0, 70, 100
2, 262272, Note_on_c, 0, 72, 70
2, 262368, Note_on_c, 0, 70, 70
2, 262460, Note_off_c, 0, 72, 100
2, 262464, Note_on_c, 0, 69, 70
2, 262556, Note_off_c, 0, 70, 100
2, 262560, Note_on_c, 0, 70, 70
2, 262652, Note_off_c, 0, 69, 100
2, 262652, Note_off_c, 0, 70, 100
2, 262656, Note_on_c, 0, 82, 102
2, 263804, Note_off_c, 0, 82, 100
2, 263808, Note_on_c, 0, 70, 70
2, 264188, Note_off_c, 0, 70, 100
2, 264192, Note_on_c, 0, 68, 70
2, 264572, Note_off_c, 0, 68, 100
2, 264960, Note_on_c, 0, 68, 70
2, 264960, Note_on_c, 0, 56, 70
2, 265340, Note_off_c, 0, 68, 100
2, 265340, Note_off_c, 0, 56, 100
2, 265344, Note_on_c, 0, 67, 70
2, 265344, Note_on_c, 0, 55, 70
2, 265724, Note_off_c, 0, 67, 100
2, 265724, Note_off_c, 0, 55, 100
2, 265728, Note_on_c, 0, 68, 70
2, 265728, Note_on_c, 0, 56, 70
2, 266108, Note_off_c, 0, 68, 100
2, 266108, Note_off_c, 0, 56, 100
2, 266496, Note_on_c, 0, 68, 70
2, 266496, Note_on_c, 0, 56, 70
2, 266876, Note_off_c, 0, 68, 100
2, 266876, Note_off_c, 0, 56, 100
2, 266880, Note_on_c, 0, 67, 70
2, 266880, Note_on_c, 0, 55, 70
2, 267260, Note_off_c, 0, 67, 100
2, 267260, Note_off_c, 0, 55, 100
2, 267264, Note_on_c, 0, 68, 70
2, 268412, Note_off_c, 0, 68, 100
2, 268416, Note_on_c, 0, 70, 70
2, 268512, Note_on_c, 0, 68, 70
2, 268604, Note_off_c, 0, 70, 100
2, 268608, Note_on_c, 0, 67, 70
2, 268700, Note_off_c, 0, 68, 100
2, 268704, Note_on_c, 0, 68, 70
2, 268796, Note_off_c, 0, 67, 100
2, 268796, Note_off_c, 0, 68, 100
2, 268800, Note_on_c, 0, 80, 110
2, 269948, Note_off_c, 0, 80, 100
2, 269952, Note_on_c, 0, 68, 80
2, 270332, Note_off_c, 0, 68, 100
2, 270336, Note_on_c, 0, 80, 110
2, 271484, Note_off_c, 0, 80, 100
2, 271488, Note_on_c, 0, 68, 80
2, 271868, Note_off_c, 0, 68, 100
2, 271872, Note_on_c, 0, 80, 110
2, 273020, Note_off_c, 0, 80, 100
2, 273024, Note_on_c, 0, 68, 80
2, 273404, Note_off_c, 0, 68, 100
2, 273408, Note_on_c, 0, 80, 110
2, 274556, Note_off_c, 0, 80, 100
2, 274560, Note_on_c, 0, 68, 80
2, 274940, Note_off_c, 0, 68, 100
2, 274944, Note_on_c, 0, 81, 110
2, 276092, Note_off_c, 0, 81, 100
2, 276096, Note_on_c, 0, 69, 80
2, 276476, Note_off_c, 0, 69, 100
2, 276480, Note_on_c, 0, 82, 120
2, 276864, Note_on_c, 0, 70, 120
2, 277628, Note_off_c, 0, 82, 100
2, 277628, Note_off_c, 0, 70, 100
2, 277632, Note_on_c, 0, 80, 120
2, 277632, Note_on_c, 0, 68, 120
2, 278012, Note_off_c, 0, 80, 100
2, 278012, Note_off_c, 0, 68, 100
2, 278016, Note_on_c, 0, 79, 120
2, 278396, Note_off_c, 0, 79, 100
2, 278400, Note_on_c, 0, 67, 120
2, 278780, Note_off_c, 0, 67, 100
2, 278784, Note_on_c, 0, 77, 120
2, 279164, Note_off_c, 0, 77, 100
2, 279168, Note_on_c, 0, 65, 120
2, 279548, Note_off_c, 0, 65, 100
2, 279552, Note_on_c, 0, 76, 120
2, 279932, Note_off_c, 0, 76, 100
2, 279936, Note_on_c, 0, 60, 80
2, 280064, Note_on_c, 0, 64, 80
2, 280188, Note_off_c, 0, 60, 100
2, 280192, Note_on_c, 0, 67, 80
2, 280316, Note_off_c, 0, 64, 100
2, 280320, Note_on_c, 0, 72, 80
2, 280444, Note_off_c, 0, 67, 100
2, 280448, Note_on_c, 0, 67, 80
2, 280572, Note_off_c, 0, 72, 100
2, 280576, Note_on_c, 0, 64, 80
2, 280700, Note_off_c, 0, 67, 100
2, 280704, Note_on_c, 0, 71, 80
2, 280828, Note_off_c, 0, 64, 100
2, 280832, Note_on_c, 0, 68, 80
2, 280956, Note_off_c, 0, 71, 100
2, 280960, Note_on_c, 0, 65, 80
2, 281084, Note_off_c, 0, 68, 100
2, 281088, Note_on_c, 0, 72, 80
2, 281212, Note_off_c, 0, 65, 100
2, 281216, Note_on_c, 0, 67, 80
2, 281340, Note_off_c, 0, 72, 100
2, 281344, Note_on_c, 0, 64, 80
2, 281468, Note_off_c, 0, 67, 100
2, 281472, Note_on_c, 0, 60, 80
2, 281596, Note_off_c, 0, 64, 100
2, 281600, Note_on_c, 0, 67, 80
2, 281724, Note_off_c, 0, 60, 100
2, 281728, Note_on_c, 0, 64, 80
2, 281852, Note_off_c, 0, 67, 100
2, 281980, Note_off_c, 0, 64, 100
2, 281984, Note_on_c, 0, 67, 80
2, 282112, Note_on_c, 0, 64, 80
2, 282236, Note_off_c, 0, 67, 100
2, 282364, Note_off_c, 0, 64, 100
2, 282368, Note_on_c, 0, 68, 80
2, 282496, Note_on_c, 0, 65, 80
2, 282620, Note_off_c, 0, 68, 100
2, 282620, Note_off_c, 0, 65, 100
2, 283008, Note_on_c, 0, 60, 80
2, 283136, Note_on_c, 0, 64, 80
2, 283260, Note_off_c, 0, 60, 100
2, 283264, Note_on_c, 0, 67, 80
2, 283388, Note_off_c, 0, 64, 100
2, 283392, Note_on_c, 0, 72, 80
2, 283516, Note_off_c, 0, 67, 100
2, 283520, Note_on_c, 0, 67, 80
2, 283644, Note_off_c, 0, 72, 100
2, 283648, Note_on_c, 0, 64, 80
2, 283772, Note_off_c, 0, 67, 100
2, 283776, Note_on_c, 0, 71, 80
2, 283900, Note_off_c, 0, 64, 100
2, 283904, Note_on_c, 0, 68, 80
2, 284028, Note_off_c, 0, 71, 100
2, 284032, Note_on_c, 0, 65, 80
2, 284156, Note_off_c, 0, 68, 100
2, 284160, Note_on_c, 0, 72, 80
2, 284284, Note_off_c, 0, 65, 100
2, 284288, Note_on_c, 0, 67, 80
2, 284412, Note_off_c, 0, 72, 100
2, 284416, Note_on_c, 0, 64, 80
2, 284540, Note_off_c, 0, 67, 100
2, 284544, Note_on_c, 0, 60, 80
2, 284668, Note_off_c, 0, 64, 100
2, 284672, Note_on_c, 0, 67, 80
2, 284796, Note_off_c, 0, 60, 100
2, 284800, Note_on_c, 0, 64, 80
2, 284924, Note_off_c, 0, 67, 100
2, 285052, Note_off_c, 0, 64, 100
2, 285056, Note_on_c, 0, 67, 80
2, 285184, Note_on_c, 0, 64, 80
2, 285308, Note_off_c, 0, 67, 100
2, 285436, Note_off_c, 0, 64, 100
2, 285440, Note_on_c, 0, 68, 80
2, 285568, Note_on_c, 0, 65, 80
2, 285692, Note_off_c, 0, 68, 100
2, 285692, Note_off_c, 0, 65, 100
2, 285824, Note_on_c, 0, 67, 80
2, 285952, Note_on_c, 0, 64, 80
2, 286076, Note_off_c, 0, 67, 100
2, 286080, Note_on_c, 0, 72, 80
2, 286204, Note_off_c, 0, 64, 100
2, 286208, Note_on_c, 0, 67, 80
2, 286332, Note_off_c, 0, 72, 100
2, 286336, Note_on_c, 0, 64, 80
2, 286460, Note_off_c, 0, 67, 100
2, 286464, Note_on_c, 0, 73, 80
2, 286588, Note_off_c, 0, 64, 100
2, 286592, Note_on_c, 0, 67, 80
2, 286720, Note_on_c, 0, 64, 80
2, 286844, Note_off_c, 0, 73, 100
2, 286844, Note_off_c, 0, 67, 100
2, 286848, Note_on_c, 0, 72, 80
2, 286972, Note_off_c, 0, 64, 100
2, 286976, Note_on_c, 0, 67, 80
2, 287104, Note_on_c, 0, 64, 80
2, 287228, Note_off_c, 0, 72, 100
2, 287228, Note_off_c, 0, 67, 100
2, 287228, Note_off_c, 0, 64, 100
2, 287232, Note_on_c, 0, 73, 80
2, 287360, Note_on_c, 0, 67, 80
2, 287488, Note_on_c, 0, 64, 80
2, 287612, Note_off_c, 0, 73, 100
2, 287612, Note_off_c, 0, 67, 100
2, 287616, Note_on_c, 0, 72, 80
2, 287740, Note_off_c, 0, 64, 100
2, 287744, Note_on_c, 0, 67, 80
2, 287868, Note_off_c, 0, 72, 100
2, 287872, Note_on_c, 0, 64, 80
2, 287996, Note_off_c, 0, 67, 100
2, 288000, Note_on_c, 0, 73, 80
2, 288124, Note_off_c, 0, 64, 100
2, 288128, Note_on_c, 0, 67, 80
2, 288256, Note_on_c, 0, 64, 80
2, 288380, Note_off_c, 0, 73, 100
2, 288380, Note_off_c, 0, 67, 100
2, 288384, Note_on_c, 0, 72, 80
2, 288508, Note_off_c, 0, 64, 100
2, 288512, Note_on_c, 0, 67, 80
2, 288640, Note_on_c, 0, 64, 80
2, 288764, Note_off_c, 0, 72, 100
2, 288764, Note_off_c, 0, 67, 100
2, 288764, Note_off_c, 0, 64, 100
2, 288768, Note_on_c, 0, 73, 80
2, 288896, Note_on_c, 0, 67, 80
2, 289020, Note_off_c, 0, 73, 100
2, 289024, Note_on_c, 0, 64, 80
2, 289148, Note_off_c, 0, 67, 100
2, 289152, Note_on_c, 0, 72, 80
2, 289276, Note_off_c, 0, 64, 100
2, 289280, Note_on_c, 0, 67, 80
2, 289404, Note_off_c, 0, 72, 100
2, 289408, Note_on_c, 0, 64, 80
2, 289532, Note_off_c, 0, 67, 100
2, 289536, Note_on_c, 0, 73, 80
2, 289660, Note_off_c, 0, 64, 100
2, 289664, Note_on_c, 0, 67, 80
2, 289792, Note_on_c, 0, 64, 80
2, 289916, Note_off_c, 0, 73, 100
2, 289916, Note_off_c, 0, 67, 100
2, 289920, Note_on_c, 0, 72, 80
2, 290044, Note_off_c, 0, 64, 100
2, 290048, Note_on_c, 0, 67, 80
2, 290176, Note_on_c, 0, 64, 80
2, 290300, Note_off_c, 0, 72, 100
2, 290300, Note_off_c, 0, 67, 100
2, 290300, Note_off_c, 0, 64, 100
2, 290304, Note_on_c, 0, 73, 80
2, 290432, Note_on_c, 0, 67, 80
2, 290560, Note_on_c, 0, 64, 80
2, 290684, Note_off_c, 0, 73, 100
2, 290684, Note_off_c, 0, 67, 100
2, 290684, Note_off_c, 0, 64, 100
2, 290688, Note_on_c, 0, 72, 80
2, 290816, Note_on_c, 0, 67, 80
2, 290944, Note_on_c, 0, 64, 80
2, 291068, Note_off_c, 0, 72, 100
2, 291068, Note_off_c, 0, 67, 100
2, 291068, Note_off_c, 0, 64, 100
2, 291072, Note_on_c, 0, 73, 80
2, 291200, Note_on_c, 0, 67, 80
2, 291328, Note_on_c, 0, 64, 80
2, 291452, Note_off_c, 0, 73, 100
2, 291452, Note_off_c, 0, 67, 100
2, 291452, Note_off_c, 0, 64, 100
2, 291456, Note_on_c, 0, 72, 80
2, 291584, Note_on_c, 0, 67, 80
2, 291712, Note_on_c, 0, 64, 80
2, 291836, Note_off_c, 0, 72, 100
2, 291836, Note_off_c, 0, 67, 100
2, 291836, Note_off_c, 0, 64, 100
2, 291840, Note_on_c, 0, 73, 80
2, 291968, Note_on_c, 0, 67, 80
2, 292096, Note_on_c, 0, 64, 80
2, 292220, Note_off_c, 0, 73, 100
2, 292220, Note_off_c, 0, 67, 100
2, 292220, Note_off_c, 0, 64, 100
2, 292224, Note_on_c, 0, 72, 80
2, 292352, Note_on_c, 0, 67, 80
2, 292480, Note_on_c, 0, 64, 80
2, 292604, Note_off_c, 0, 72, 100
2, 292604, Note_off_c, 0, 67, 100
2, 292604, Note_off_c, 0, 64, 100
2, 292608, Note_on_c, 0, 73, 80
2, 292736, Note_on_c, 0, 67, 80
2, 292864, Note_on_c, 0, 64, 80
2, 292988, Note_off_c, 0, 73, 100
2, 292988, Note_off_c, 0, 67, 100
2, 292988, Note_off_c, 0, 64, 100
2, 292992, Note_on_c, 0, 72, 80
2, 293120, Note_on_c, 0, 67, 80
2, 293248, Note_on_c, 0, 64, 80
2, 293372, Note_off_c, 0, 72, 100
2, 293372, Note_off_c, 0, 67, 100
2, 293372, Note_off_c, 0, 64, 100
2, 293376, Note_on_c, 0, 73, 80
2, 293504, Note_on_c, 0, 67, 80
2, 293632, Note_on_c, 0, 64, 80
2, 293756, Note_off_c, 0, 73, 100
2, 293756, Note_off_c, 0, 67, 100
2, 293756, Note_off_c, 0, 64, 100
2, 293760, Note_on_c, 0, 72, 80
2, 293888, Note_on_c, 0, 67, 80
2, 294016, Note_on_c, 0, 64, 80
2, 294140, Note_off_c, 0, 72, 100
2, 294140, Note_off_c, 0, 67, 100
2, 294140, Note_off_c, 0, 64, 100
2, 294144, Note_on_c, 0, 73, 80
2, 294272, Note_on_c, 0, 67, 80
2, 294400, Note_on_c, 0, 64, 80
2, 294524, Note_off_c, 0, 73, 100
2, 294524, Note_off_c, 0, 67, 100
2, 294524, Note_off_c, 0, 64, 100
2, 294528, Note_on_c, 0, 72, 80
2, 294656, Note_on_c, 0, 67, 80
2, 294784, Note_on_c, 0, 64, 80
2, 294908, Note_off_c, 0, 72, 100
2, 294908, Note_off_c, 0, 67, 100
2, 294908, Note_off_c, 0, 64, 100
2, 294912, Note_on_c, 0, 73, 80
2, 295040, Note_on_c, 0, 67, 80
2, 295168, Note_on_c, 0, 64, 80
2, 295292, Note_off_c, 0, 73, 100
2, 295292, Note_off_c, 0, 67, 100
2, 295292, Note_off_c, 0, 64, 100
2, 295296, Note_on_c, 0, 72, 80
2, 295424, Note_on_c, 0, 67, 80
2, 295552, Note_on_c, 0, 64, 80
2, 295676, Note_off_c, 0, 72, 100
2, 295676, Note_off_c, 0, 67, 100
2, 295676, Note_off_c, 0, 64, 100
2, 295680, Note_on_c, 0, 73, 80
2, 295808, Note_on_c, 0, 67, 80
2, 295936, Note_on_c, 0, 64, 80
2, 296060, Note_off_c, 0, 73, 100
2, 296060, Note_off_c, 0, 67, 100
2, 296060, Note_off_c, 0, 64, 100
2, 296064, Note_on_c, 0, 72, 80
2, 296192, Note_on_c, 0, 67, 80
2, 296320, Note_on_c, 0, 64, 80
2, 296444, Note_off_c, 0, 72, 100
2, 296444, Note_off_c, 0, 67, 100
2, 296444, Note_off_c, 0, 64, 100
2, 296448, Note_on_c, 0, 65, 110
2, 296828, Note_off_c, 0, 65, 100
2, 297216, Note_on_c, 0, 77, 110
2, 297216, Note_on_c, 0, 72, 110
2, 297216, Note_on_c, 0, 68, 110
2, 297216, Note_on_c, 0, 65, 110
2, 297596, Note_off_c, 0, 77, 100
2, 297596, Note_off_c, 0, 72, 100
2, 297596, Note_off_c, 0, 68, 100
2, 297596, Note_off_c, 0, 65, 100
2, 297600, Note_on_c, 0, 76, 110
2, 297600, Note_on_c, 0, 70, 110
2, 297600, Note_on_c, 0, 67, 110
2, 297600, Note_on_c, 0, 64, 110
2, 297600, Note_on_c, 0, 73, 110
2, 297980, Note_off_c, 0, 76, 100
2, 297980, Note_off_c, 0, 70, 100
2, 297980, Note_off_c, 0, 67, 100
2, 297980, Note_off_c, 0, 64, 100
2, 297980, Note_off_c, 0, 73, 100
2, 297984, Note_on_c, 0, 77, 110
2, 297984, Note_on_c, 0, 72, 110
2, 297984, Note_on_c, 0, 68, 110
2, 297984, Note_on_c, 0, 65, 110
2, 298364, Note_off_c, 0, 77, 100
2, 298364, Note_off_c, 0, 72, 100
2, 298364, Note_off_c, 0, 68, 100
2, 298364, Note_off_c, 0, 65, 100
2, 298752, Note_on_c, 0, 84, 110
2, 298752, Note_on_c, 0, 80, 110
2, 298752, Note_on_c, 0, 77, 110
2, 298752, Note_on_c, 0, 72, 110
2, 299132, Note_off_c, 0, 84, 100
2, 299132, Note_off_c, 0, 80, 100
2, 299132, Note_off_c, 0, 77, 100
2, 299132, Note_off_c, 0, 72, 100
2, 299136, Note_on_c, 0, 84, 110
2, 299136, Note_on_c, 0, 82, 110
2, 299136, Note_on_c, 0, 79, 110
2, 299136, Note_on_c, 0, 72, 110
2, 299516, Note_off_c, 0, 84, 100
2, 299516, Note_off_c, 0, 82, 100
2, 299516, Note_off_c, 0, 79, 100
2, 299516, Note_off_c, 0, 72, 100
2, 299520, Note_on_c, 0, 84, 110
2, 299520, Note_on_c, 0, 80, 110
2, 299520, Note_on_c, 0, 77, 110
2, 299520, Note_on_c, 0, 72, 110
2, 299900, Note_off_c, 0, 84, 100
2, 299900, Note_off_c, 0, 80, 100
2, 299900, Note_off_c, 0, 77, 100
2, 299900, Note_off_c, 0, 72, 100
2, 300288, Note_on_c, 0, 77, 110
2, 300288, Note_on_c, 0, 72, 110
2, 300288, Note_on_c, 0, 68, 110
2, 300288, Note_on_c, 0, 65, 110
2, 300668, Note_off_c, 0, 77, 100
2, 300668, Note_off_c, 0, 72, 100
2, 300668, Note_off_c, 0, 68, 100
2, 300668, Note_off_c, 0, 65, 100
2, 300672, Note_on_c, 0, 76, 110
2, 300672, Note_on_c, 0, 70, 110
2, 300672, Note_on_c, 0, 67, 110
2, 300672, Note_on_c, 0, 64, 110
2, 300672, Note_on_c, 0, 73, 110
2, 301052, Note_off_c, 0, 76, 100
2, 301052, Note_off_c, 0, 70, 100
2, 301052, Note_off_c, 0, 67, 100
2, 301052, Note_off_c, 0, 64, 100
2, 301052, Note_off_c, 0, 73, 100
2, 301056, Note_on_c, 0, 77, 110
2, 301056, Note_on_c, 0, 72, 110
2, 301056, Note_on_c, 0, 68, 110
2, 301056, Note_on_c, 0, 65, 110
2, 301436, Note_off_c, 0, 77, 100
2, 301436, Note_off_c, 0, 72, 100
2, 301436, Note_off_c, 0, 68, 100
2, 301436, Note_off_c, 0, 65, 100
2, 301824, Note_on_c, 0, 84, 110
2, 301824, Note_on_c, 0, 80, 110
2, 301824, Note_on_c, 0, 77, 110
2, 301824, Note_on_c, 0, 72, 110
2, 302204, Note_off_c, 0, 84, 100
2, 302204, Note_off_c, 0, 80, 100
2, 302204, Note_off_c, 0, 77, 100
2, 302204, Note_off_c, 0, 72, 100
2, 302208, Note_on_c, 0, 84, 110
2, 302208, Note_on_c, 0, 82, 110
2, 302208, Note_on_c, 0, 79, 110
2, 302208, Note_on_c, 0, 72, 110
2, 302588, Note_off_c, 0, 84, 100
2, 302588, Note_off_c, 0, 82, 100
2, 302588, Note_off_c, 0, 79, 100
2, 302588, Note_off_c, 0, 72, 100
2, 302592, Note_on_c, 0, 84, 110
2, 302592, Note_on_c, 0, 80, 110
2, 302592, Note_on_c, 0, 77, 110
2, 302592, Note_on_c, 0, 72, 110
2, 302972, Note_off_c, 0, 84, 100
2, 302972, Note_off_c, 0, 80, 100
2, 302972, Note_off_c, 0, 77, 100
2, 302972, Note_off_c, 0, 72, 100
2, 303360, Note_on_c, 0, 75, 80
2, 303740, Note_off_c, 0, 75, 100
2, 303744, Note_on_c, 0, 75, 80
2, 304124, Note_off_c, 0, 75, 100
2, 304128, Note_on_c, 0, 75, 80
2, 304508, Note_off_c, 0, 75, 100
2, 304512, Note_on_c, 0, 80, 80
2, 304892, Note_off_c, 0, 80, 100
2, 304896, Note_on_c, 0, 75, 80
2, 305276, Note_off_c, 0, 75, 100
2, 305280, Note_on_c, 0, 75, 80
2, 305660, Note_off_c, 0, 75, 100
2, 305664, Note_on_c, 0, 75, 80
2, 306044, Note_off_c, 0, 75, 100
2, 306048, Note_on_c, 0, 80, 80
2, 306428, Note_off_c, 0, 80, 100
2, 306432, Note_on_c, 0, 75, 80
2, 306812, Note_off_c, 0, 75, 100
2, 306816, Note_on_c, 0, 76, 80
2, 307196, Note_off_c, 0, 76, 100
2, 307200, Note_on_c, 0, 77, 80
2, 307580, Note_off_c, 0, 77, 100
2, 307584, Note_on_c, 0, 79, 80
2, 307964, Note_off_c, 0, 79, 100
2, 307968, Note_on_c, 0, 80, 80
2, 308348, Note_off_c, 0, 80, 100
2, 308352, Note_on_c, 0, 83, 80
2, 308732, Note_off_c, 0, 83, 100
2, 308736, Note_on_c, 0, 84, 80
2, 309116, Note_off_c, 0, 84, 100
2, 309504, Note_on_c, 0, 72, 80
2, 309884, Note_off_c, 0, 72, 100
2, 309888, Note_on_c, 0, 72, 80
2, 310268, Note_off_c, 0, 72, 100
2, 310272, Note_on_c, 0, 72, 80
2, 310652, Note_off_c, 0, 72, 100
2, 310656, Note_on_c, 0, 77, 80
2, 311036, Note_off_c, 0, 77, 100
2, 311232, Note_on_c, 0, 85, 80
2, 311420, Note_off_c, 0, 85, 100
2, 311424, Note_on_c, 0, 84, 80
2, 311612, Note_off_c, 0, 84, 100
2, 311616, Note_on_c, 0, 82, 80
2, 311804, Note_off_c, 0, 82, 100
2, 311808, Note_on_c, 0, 82, 80
2, 311996, Note_off_c, 0, 82, 100
2, 312000, Note_on_c, 0, 80, 80
2, 312188, Note_off_c, 0, 80, 100
2, 312192, Note_on_c, 0, 79, 80
2, 312380, Note_off_c, 0, 79, 100
2, 312384, Note_on_c, 0, 77, 80
2, 312572, Note_off_c, 0, 77, 100
2, 312576, Note_on_c, 0, 72, 80
2, 312956, Note_off_c, 0, 72, 100
2, 312960, Note_on_c, 0, 72, 80
2, 313340, Note_off_c, 0, 72, 100
2, 313344, Note_on_c, 0, 72, 80
2, 313408, Note_on_c, 0, 73, 80
2, 313468, Note_off_c, 0, 72, 100
2, 313472, Note_on_c, 0, 72, 80
2, 313532, Note_off_c, 0, 73, 100
2, 313536, Note_on_c, 0, 73, 80
2, 313596, Note_off_c, 0, 72, 100
2, 313600, Note_on_c, 0, 72, 80
2, 313660, Note_off_c, 0, 73, 100
2, 313664, Note_on_c, 0, 73, 80
2, 313724, Note_off_c, 0, 72, 100
2, 313728, Note_on_c, 0, 77, 80
2, 313788, Note_off_c, 0, 73, 100
2, 314108, Note_off_c, 0, 77, 100
2, 314304, Note_on_c, 0, 85, 80
2, 314492, Note_off_c, 0, 85, 100
2, 314496, Note_on_c, 0, 84, 80
2, 314684, Note_off_c, 0, 84, 100
2, 314688, Note_on_c, 0, 82, 80
2, 314876, Note_off_c, 0, 82, 100
2, 314880, Note_on_c, 0, 82, 80
2, 315068, Note_off_c, 0, 82, 100
2, 315072, Note_on_c, 0, 80, 80
2, 315260, Note_off_c, 0, 80, 100
2, 315264, Note_on_c, 0, 79, 80
2, 315452, Note_off_c, 0, 79, 100
2, 315456, Note_on_c, 0, 77, 80
2, 315644, Note_off_c, 0, 77, 100
2, 315840, Note_on_c, 0, 85, 80
2, 316028, Note_off_c, 0, 85, 100
2, 316032, Note_on_c, 0, 84, 80
2, 316220, Note_off_c, 0, 84, 100
2, 316224, Note_on_c, 0, 82, 80
2, 316412, Note_off_c, 0, 82, 100
2, 316416, Note_on_c, 0, 82, 80
2, 316604, Note_off_c, 0, 82, 100
2, 316608, Note_on_c, 0, 80, 80
2, 316796, Note_off_c, 0, 80, 100
2, 316800, Note_on_c, 0, 79, 80
2, 316988, Note_off_c, 0, 79, 100
2, 316992, Note_on_c, 0, 77, 80
2, 317180, Note_off_c, 0, 77, 100
2, 317184, Note_on_c, 0, 75, 80
2, 317372, Note_off_c, 0, 75, 100
2, 317376, Note_on_c, 0, 73, 80
2, 317564, Note_off_c, 0, 73, 100
2, 317568, Note_on_c, 0, 72, 80
2, 317756, Note_off_c, 0, 72, 100
2, 317760, Note_on_c, 0, 71, 80
2, 317948, Note_off_c, 0, 71, 100
2, 317952, Note_on_c, 0, 72, 80
2, 318332, Note_off_c, 0, 72, 100
2, 318720, Note_on_c, 0, 72, 80
2, 318720, Note_on_c, 0, 67, 80
2, 318720, Note_on_c, 0, 64, 80
2, 318720, Note_on_c, 0, 60, 80
2, 319100, Note_off_c, 0, 72, 100
2, 319100, Note_off_c, 0, 67, 100
2, 319100, Note_off_c, 0, 64, 100
2, 319100, Note_off_c, 0, 60, 100
2, 319104, Note_on_c, 0, 71, 80
2, 319104, Note_on_c, 0, 68, 80
2, 319104, Note_on_c, 0, 65, 80
2, 319104, Note_on_c, 0, 62, 80
2, 319104, Note_on_c, 0, 59, 80
2, 319484, Note_off_c, 0, 71, 100
2, 319484, Note_off_c, 0, 68, 100
2, 319484, Note_off_c, 0, 65, 100
2, 319484, Note_off_c, 0, 62, 100
2, 319484, Note_off_c, 0, 59, 100
2, 319488, Note_on_c, 0, 72, 80
2, 319488, Note_on_c, 0, 67, 80
2, 319488, Note_on_c, 0, 64, 80
2, 319488, Note_on_c, 0, 60, 80
2, 319868, Note_off_c, 0, 72, 100
2, 319868, Note_off_c, 0, 67, 100
2, 319868, Note_off_c, 0, 64, 100
2, 319868, Note_off_c, 0, 60, 100
2, 320256, Note_on_c, 0, 76, 110
2, 320256, Note_on_c, 0, 72, 110
2, 320256, Note_on_c, 0, 67, 110
2, 320256, Note_on_c, 0, 64, 110
2, 320636, Note_off_c, 0, 76, 100
2, 320636, Note_off_c, 0, 72, 100
2, 320636, Note_off_c, 0, 67, 100
2, 320636, Note_off_c, 0, 64, 100
2, 320640, Note_on_c, 0, 76, 110
2, 320640, Note_on_c, 0, 72, 110
2, 320640, Note_on_c, 0, 67, 110
2, 320640, Note_on_c, 0, 64, 110
2, 321020, Note_off_c, 0, 76, 100
2, 321020, Note_off_c, 0, 72, 100
2, 321020, Note_off_c, 0, 67, 100
2, 321020, Note_off_c, 0, 64, 100
2, 321024, Note_on_c, 0, 76, 110
2, 321024, Note_on_c, 0, 72, 110
2, 321024, Note_on_c, 0, 67, 110
2, 321024, Note_on_c, 0, 64, 110
2, 321404, Note_off_c, 0, 76, 100
2, 321404, Note_off_c, 0, 72, 100
2, 321404, Note_off_c, 0, 67, 100
2, 321404, Note_off_c, 0, 64, 100
2, 321792, Note_on_c, 0, 72, 100
2, 321792, Note_on_c, 0, 67, 100
2, 321792, Note_on_c, 0, 64, 100
2, 321792, Note_on_c, 0, 60, 100
2, 322172, Note_off_c, 0, 72, 100
2, 322172, Note_off_c, 0, 67, 100
2, 322172, Note_off_c, 0, 64, 100
2, 322172, Note_off_c, 0, 60, 100
2, 322176, Note_on_c, 0, 71, 100
2, 322176, Note_on_c, 0, 68, 100
2, 322176, Note_on_c, 0, 65, 100
2, 322176, Note_on_c, 0, 62, 100
2, 322176, Note_on_c, 0, 59, 100
2, 322556, Note_off_c, 0, 71, 100
2, 322556, Note_off_c, 0, 68, 100
2, 322556, Note_off_c, 0, 65, 100
2, 322556, Note_off_c, 0, 62, 100
2, 322556, Note_off_c, 0, 59, 100
2, 322560, Note_on_c, 0, 72, 100
2, 322560, Note_on_c, 0, 67, 100
2, 322560, Note_on_c, 0, 64, 100
2, 322560, Note_on_c, 0, 60, 100
2, 322940, Note_off_c, 0, 72, 100
2, 322940, Note_off_c, 0, 67, 100
2, 322940, Note_off_c, 0, 64, 100
2, 322940, Note_off_c, 0, 60, 100
2, 323328, Note_on_c, 0, 79, 110
2, 323328, Note_on_c, 0, 76, 110
2, 323328, Note_on_c, 0, 72, 110
2, 323328, Note_on_c, 0, 67, 110
2, 323708, Note_off_c, 0, 79, 100
2, 323708, Note_off_c, 0, 76, 100
2, 323708, Note_off_c, 0, 72, 100
2, 323708, Note_off_c, 0, 67, 100
2, 323712, Note_on_c, 0, 79, 110
2, 323712, Note_on_c, 0, 76, 110
2, 323712, Note_on_c, 0, 72, 110
2, 323712, Note_on_c, 0, 67, 110
2, 324092, Note_off_c, 0, 79, 100
2, 324092, Note_off_c, 0, 76, 100
2, 324092, Note_off_c, 0, 72, 100
2, 324092, Note_off_c, 0, 67, 100
2, 324096, Note_on_c, 0, 79, 110
2, 324096, Note_on_c, 0, 76, 110
2, 324096, Note_on_c, 0, 72, 110
2, 324096, Note_on_c, 0, 67, 110
2, 324476, Note_off_c, 0, 79, 100
2, 324476, Note_off_c, 0, 76, 100
2, 324476, Note_off_c, 0, 72, 100
2, 324476, Note_off_c, 0, 67, 100
2, 324864, Note_on_c, 0, 82, 110
2, 324864, Note_on_c, 0, 79, 110
2, 324864, Note_on_c, 0, 76, 110
2, 324864, Note_on_c, 0, 70, 110
2, 325244, Note_off_c, 0, 82, 100
2, 325244, Note_off_c, 0, 79, 100
2, 325244, Note_off_c, 0, 76, 100
2, 325244, Note_off_c, 0, 70, 100
2, 325248, Note_on_c, 0, 82, 110
2, 325248, Note_on_c, 0, 79, 110
2, 325248, Note_on_c, 0, 76, 110
2, 325248, Note_on_c, 0, 70, 110
2, 325628, Note_off_c, 0, 82, 100
2, 325628, Note_off_c, 0, 79, 100
2, 325628, Note_off_c, 0, 76, 100
2, 325628, Note_off_c, 0, 70, 100
2, 325632, Note_on_c, 0, 82, 110
2, 325632, Note_on_c, 0, 79, 110
2, 325632, Note_on_c, 0, 76, 110
2, 325632, Note_on_c, 0, 70, 110
2, 326012, Note_off_c, 0, 82, 100
2, 326012, Note_off_c, 0, 79, 100
2, 326012, Note_off_c, 0, 76, 100
2, 326012, Note_off_c, 0, 70, 100
2, 326400, Note_on_c, 0, 82, 120
2, 326400, Note_on_c, 0, 79, 120
2, 326400, Note_on_c, 0, 76, 120
2, 326400, Note_on_c, 0, 70, 120
2, 326780, Note_off_c, 0, 82, 100
2, 326780, Note_off_c, 0, 79, 100
2, 326780, Note_off_c, 0, 76, 100
2, 326780, Note_off_c, 0, 70, 100
2, 326784, Note_on_c, 0, 82, 120
2, 326784, Note_on_c, 0, 79, 120
2, 326784, Note_on_c, 0, 76, 120
2, 326784, Note_on_c, 0, 70, 120
2, 327164, Note_off_c, 0, 82, 100
2, 327164, Note_off_c, 0, 79, 100
2, 327164, Note_off_c, 0, 76, 100
2, 327164, Note_off_c, 0, 70, 100
2, 327168, Note_on_c, 0, 82, 120
2, 327168, Note_on_c, 0, 79, 120
2, 327168, Note_on_c, 0, 76, 120
2, 327168, Note_on_c, 0, 70, 120
2, 327548, Note_off_c, 0, 82, 100
2, 327548, Note_off_c, 0, 79, 100
2, 327548, Note_off_c, 0, 76, 100
2, 327548, Note_off_c, 0, 70, 100
2, 327936, Note_on_c, 0, 82, 120
2, 327936, Note_on_c, 0, 79, 120
2, 327936, Note_on_c, 0, 76, 120
2, 327936, Note_on_c, 0, 70, 120
2, 328316, Note_off_c, 0, 82, 100
2, 328316, Note_off_c, 0, 79, 100
2, 328316, Note_off_c, 0, 76, 100
2, 328316, Note_off_c, 0, 70, 100
2, 328704, Note_on_c, 0, 82, 120
2, 328832, Note_on_c, 0, 80, 120
2, 328956, Note_off_c, 0, 82, 100
2, 328960, Note_on_c, 0, 79, 120
2, 329084, Note_off_c, 0, 80, 100
2, 329088, Note_on_c, 0, 77, 119
2, 329212, Note_off_c, 0, 79, 100
2, 329216, Note_on_c, 0, 76, 119
2, 329340, Note_off_c, 0, 77, 100
2, 329344, Note_on_c, 0, 73, 118
2, 329468, Note_off_c, 0, 76, 100
2, 329472, Note_on_c, 0, 72, 118
2, 329596, Note_off_c, 0, 73, 100
2, 329600, Note_on_c, 0, 70, 118
2, 329724, Note_off_c, 0, 72, 100
2, 329728, Note_on_c, 0, 68, 117
2, 329852, Note_off_c, 0, 70, 100
2, 329856, Note_on_c, 0, 67, 117
2, 329980, Note_off_c, 0, 68, 100
2, 329984, Note_on_c, 0, 65, 116
2, 330108, Note_off_c, 0, 67, 100
2, 330112, Note_on_c, 0, 64, 116
2, 330236, Note_off_c, 0, 65, 100
2, 330240, Note_on_c, 0, 61, 115
2, 330364, Note_off_c, 0, 64, 100
2, 330368, Note_on_c, 0, 60, 115
2, 330492, Note_off_c, 0, 61, 100
2, 330496, Note_on_c, 0, 58, 115
2, 330620, Note_off_c, 0, 60, 100
2, 330624, Note_on_c, 0, 56, 114
2, 330748, Note_off_c, 0, 58, 100
2, 330752, Note_on_c, 0, 55, 114
2, 330876, Note_off_c, 0, 56, 100
2, 330880, Note_on_c, 0, 53, 113
2, 331004, Note_off_c, 0, 55, 100
2, 331008, Note_on_c, 0, 52, 113
2, 331132, Note_off_c, 0, 53, 100
2, 331388, Note_off_c, 0, 52, 100
2, 331904, Note_on_c, 0, 65, 100
2, 332032, Note_on_c, 0, 68, 100
2, 332156, Note_off_c, 0, 65, 100
2, 332160, Note_on_c, 0, 61, 100
2, 332284, Note_off_c, 0, 68, 100
2, 332288, Note_on_c, 0, 65, 100
2, 332412, Note_off_c, 0, 61, 100
2, 332416, Note_on_c, 0, 68, 100
2, 332540, Note_off_c, 0, 65, 100
2, 332544, Note_on_c, 0, 60, 100
2, 332668, Note_off_c, 0, 68, 100
2, 332672, Note_on_c, 0, 65, 100
2, 332796, Note_off_c, 0, 60, 100
2, 332800, Note_on_c, 0, 68, 100
2, 332924, Note_off_c, 0, 65, 100
2, 332928, Note_on_c, 0, 59, 100
2, 333052, Note_off_c, 0, 68, 100
2, 333056, Note_on_c, 0, 65, 100
2, 333180, Note_off_c, 0, 59, 100
2, 333184, Note_on_c, 0, 68, 100
2, 333308, Note_off_c, 0, 65, 100
2, 333308, Note_off_c, 0, 68, 100
2, 333312, Note_on_c, 0, 60, 100
2, 333440, Note_on_c, 0, 65, 100
2, 333564, Note_off_c, 0, 60, 100
2, 333568, Note_on_c, 0, 68, 100
2, 333692, Note_off_c, 0, 65, 100
2, 333696, Note_on_c, 0, 61, 100
2, 333820, Note_off_c, 0, 68, 100
2, 333824, Note_on_c, 0, 65, 100
2, 333948, Note_off_c, 0, 61, 100
2, 333952, Note_on_c, 0, 68, 100
2, 334076, Note_off_c, 0, 65, 100
2, 334080, Note_on_c, 0, 60, 100
2, 334204, Note_off_c, 0, 68, 100
2, 334208, Note_on_c, 0, 65, 100
2, 334332, Note_off_c, 0, 60, 100
2, 334336, Note_on_c, 0, 68, 100
2, 334460, Note_off_c, 0, 65, 100
2, 334464, Note_on_c, 0, 59, 100
2, 334588, Note_off_c, 0, 68, 100
2, 334592, Note_on_c, 0, 65, 100
2, 334716, Note_off_c, 0, 59, 100
2, 334720, Note_on_c, 0, 68, 100
2, 334844, Note_off_c, 0, 65, 100
2, 334844, Note_off_c, 0, 68, 100
2, 334848, Note_on_c, 0, 60, 110
2, 334976, Note_on_c, 0, 65, 110
2, 335100, Note_off_c, 0, 60, 100
2, 335104, Note_on_c, 0, 68, 110
2, 335228, Note_off_c, 0, 65, 100
2, 335232, Note_on_c, 0, 73, 110
2, 335356, Note_off_c, 0, 68, 100
2, 335360, Note_on_c, 0, 68, 110
2, 335484, Note_off_c, 0, 73, 100
2, 335488, Note_on_c, 0, 65, 110
2, 335612, Note_off_c, 0, 68, 100
2, 335616, Note_on_c, 0, 72, 110
2, 335740, Note_off_c, 0, 65, 100
2, 335744, Note_on_c, 0, 68, 110
2, 335868, Note_off_c, 0, 72, 100
2, 335872, Note_on_c, 0, 65, 110
2, 335996, Note_off_c, 0, 68, 100
2, 336000, Note_on_c, 0, 71, 110
2, 336124, Note_off_c, 0, 65, 100
2, 336128, Note_on_c, 0, 68, 110
2, 336252, Note_off_c, 0, 71, 100
2, 336256, Note_on_c, 0, 65, 110
2, 336380, Note_off_c, 0, 68, 100
2, 336380, Note_off_c, 0, 65, 100
2, 336384, Note_on_c, 0, 72, 110
2, 336512, Note_on_c, 0, 68, 110
2, 336636, Note_off_c, 0, 72, 100
2, 336640, Note_on_c, 0, 65, 110
2, 336764, Note_off_c, 0, 68, 100
2, 336768, Note_on_c, 0, 73, 110
2, 336892, Note_off_c, 0, 65, 100
2, 336896, Note_on_c, 0, 68, 110
2, 337020, Note_off_c, 0, 73, 100
2, 337024, Note_on_c, 0, 65, 110
2, 337148, Note_off_c, 0, 68, 100
2, 337152, Note_on_c, 0, 72, 110
2, 337276, Note_off_c, 0, 65, 100
2, 337280, Note_on_c, 0, 68, 110
2, 337404, Note_off_c, 0, 72, 100
2, 337408, Note_on_c, 0, 65, 110
2, 337532, Note_off_c, 0, 68, 100
2, 337536, Note_on_c, 0, 71, 110
2, 337660, Note_off_c, 0, 65, 100
2, 337664, Note_on_c, 0, 68, 110
2, 337788, Note_off_c, 0, 71, 100
2, 337792, Note_on_c, 0, 65, 110
2, 337916, Note_off_c, 0, 68, 100
2, 337916, Note_off_c, 0, 65, 100
2, 337920, Note_on_c, 0, 72, 110
2, 338048, Note_on_c, 0, 68, 110
2, 338172, Note_off_c, 0, 72, 100
2, 338176, Note_on_c, 0, 65, 110
2, 338300, Note_off_c, 0, 68, 100
2, 338304, Note_on_c, 0, 77, 110
2, 338428, Note_off_c, 0, 65, 100
2, 338432, Note_on_c, 0, 72, 110
2, 338556, Note_off_c, 0, 77, 100
2, 338560, Note_on_c, 0, 68, 110
2, 338684, Note_off_c, 0, 72, 100
2, 338688, Note_on_c, 0, 77, 110
2, 338812, Note_off_c, 0, 68, 100
2, 338816, Note_on_c, 0, 70, 110
2, 338940, Note_off_c, 0, 77, 100
2, 338944, Note_on_c, 0, 68, 110
2, 339068, Note_off_c, 0, 70, 100
2, 339072, Note_on_c, 0, 75, 110
2, 339196, Note_off_c, 0, 68, 100
2, 339200, Note_on_c, 0, 70, 110
2, 339324, Note_off_c, 0, 75, 100
2, 339328, Note_on_c, 0, 66, 110
2, 339452, Note_off_c, 0, 70, 100
2, 339456, Note_on_c, 0, 75, 110
2, 339580, Note_off_c, 0, 66, 100
2, 339584, Note_on_c, 0, 72, 110
2, 339708, Note_off_c, 0, 75, 100
2, 339712, Note_on_c, 0, 65, 110
2, 339836, Note_off_c, 0, 72, 100
2, 339840, Note_on_c, 0, 73, 110
2, 339964, Note_off_c, 0, 65, 100
2, 339968, Note_on_c, 0, 70, 110
2, 340092, Note_off_c, 0, 73, 100
2, 340096, Note_on_c, 0, 65, 110
2, 340220, Note_off_c, 0, 70, 100
2, 340224, Note_on_c, 0, 73, 110
2, 340348, Note_off_c, 0, 65, 100
2, 340352, Note_on_c, 0, 70, 110
2, 340476, Note_off_c, 0, 73, 100
2, 340480, Note_on_c, 0, 64, 110
2, 340604, Note_off_c, 0, 70, 100
2, 340608, Note_on_c, 0, 72, 110
2, 340732, Note_off_c, 0, 64, 100
2, 340736, Note_on_c, 0, 68, 110
2, 340860, Note_off_c, 0, 72, 100
2, 340864, Note_on_c, 0, 65, 110
2, 340988, Note_off_c, 0, 68, 100
2, 340992, Note_on_c, 0, 70, 110
2, 341116, Note_off_c, 0, 65, 100
2, 341120, Note_on_c, 0, 67, 110
2, 341244, Note_off_c, 0, 70, 100
2, 341248, Note_on_c, 0, 60, 110
2, 341372, Note_off_c, 0, 67, 100
2, 341376, Note_on_c, 0, 68, 110
2, 341500, Note_off_c, 0, 60, 100
2, 341504, Note_on_c, 0, 65, 110
2, 341628, Note_off_c, 0, 68, 100
2, 341632, Note_on_c, 0, 60, 110
2, 341756, Note_off_c, 0, 65, 100
2, 341760, Note_on_c, 0, 67, 110
2, 341884, Note_off_c, 0, 60, 100
2, 341888, Note_on_c, 0, 61, 110
2, 342012, Note_off_c, 0, 67, 100
2, 342016, Note_on_c, 0, 58, 110
2, 342140, Note_off_c, 0, 61, 100
2, 342144, Note_on_c, 0, 65, 110
2, 342268, Note_off_c, 0, 58, 100
2, 342272, Note_on_c, 0, 62, 110
2, 342396, Note_off_c, 0, 65, 100
2, 342400, Note_on_c, 0, 56, 110
2, 342524, Note_off_c, 0, 62, 100
2, 342528, Note_on_c, 0, 65, 110
2, 342652, Note_off_c, 0, 56, 100
2, 342656, Note_on_c, 0, 60, 110
2, 342780, Note_off_c, 0, 65, 100
2, 342784, Note_on_c, 0, 56, 110
2, 342908, Note_off_c, 0, 60, 100
2, 342912, Note_on_c, 0, 65, 110
2, 343036, Note_off_c, 0, 56, 100
2, 343040, Note_on_c, 0, 60, 110
2, 343164, Note_off_c, 0, 65, 100
2, 343168, Note_on_c, 0, 56, 110
2, 343292, Note_off_c, 0, 60, 100
2, 343296, Note_on_c, 0, 64, 110
2, 343420, Note_off_c, 0, 56, 100
2, 343424, Note_on_c, 0, 58, 110
2, 343548, Note_off_c, 0, 64, 100
2, 343552, Note_on_c, 0, 55, 110
2, 343676, Note_off_c, 0, 58, 100
2, 343680, Note_on_c, 0, 64, 110
2, 343804, Note_off_c, 0, 55, 100
2, 343808, Note_on_c, 0, 58, 110
2, 343932, Note_off_c, 0, 64, 100
2, 343936, Note_on_c, 0, 55, 110
2, 344060, Note_off_c, 0, 58, 100
2, 344060, Note_off_c, 0, 55, 100
2, 344064, Note_on_c, 0, 65, 110
2, 344192, Note_on_c, 0, 68, 110
2, 344316, Note_off_c, 0, 65, 100
2, 344320, Note_on_c, 0, 72, 110
2, 344444, Note_off_c, 0, 68, 100
2, 344448, Note_on_c, 0, 77, 110
2, 344572, Note_off_c, 0, 72, 100
2, 344576, Note_on_c, 0, 72, 110
2, 344700, Note_off_c, 0, 77, 100
2, 344704, Note_on_c, 0, 68, 110
2, 344828, Note_off_c, 0, 72, 100
2, 344832, Note_on_c, 0, 77, 110
2, 344956, Note_off_c, 0, 68, 100
2, 344960, Note_on_c, 0, 70, 110
2, 345084, Note_off_c, 0, 77, 100
2, 345088, Note_on_c, 0, 68, 110
2, 345212, Note_off_c, 0, 70, 100
2, 345216, Note_on_c, 0, 75, 110
2, 345340, Note_off_c, 0, 68, 100
2, 345344, Note_on_c, 0, 70, 110
2, 345468, Note_off_c, 0, 75, 100
2, 345472, Note_on_c, 0, 66, 110
2, 345596, Note_off_c, 0, 70, 100
2, 345600, Note_on_c, 0, 75, 110
2, 345724, Note_off_c, 0, 66, 100
2, 345728, Note_on_c, 0, 72, 110
2, 345852, Note_off_c, 0, 75, 100
2, 345856, Note_on_c, 0, 65, 110
2, 345980, Note_off_c, 0, 72, 100
2, 345984, Note_on_c, 0, 73, 110
2, 346108, Note_off_c, 0, 65, 100
2, 346112, Note_on_c, 0, 70, 110
2, 346236, Note_off_c, 0, 73, 100
2, 346240, Note_on_c, 0, 65, 110
2, 346364, Note_off_c, 0, 70, 100
2, 346368, Note_on_c, 0, 73, 110
2, 346492, Note_off_c, 0, 65, 100
2, 346496, Note_on_c, 0, 70, 110
2, 346620, Note_off_c, 0, 73, 100
2, 346624, Note_on_c, 0, 64, 110
2, 346748, Note_off_c, 0, 70, 100
2, 346752, Note_on_c, 0, 72, 110
2, 346876, Note_off_c, 0, 64, 100
2, 346880, Note_on_c, 0, 68, 110
2, 347004, Note_off_c, 0, 72, 100
2, 347008, Note_on_c, 0, 65, 110
2, 347132, Note_off_c, 0, 68, 100
2, 347136, Note_on_c, 0, 70, 110
2, 347260, Note_off_c, 0, 65, 100
2, 347264, Note_on_c, 0, 67, 110
2, 347388, Note_off_c, 0, 70, 100
2, 347392, Note_on_c, 0, 60, 110
2, 347516, Note_off_c, 0, 67, 100
2, 347520, Note_on_c, 0, 68, 110
2, 347644, Note_off_c, 0, 60, 100
2, 347648, Note_on_c, 0, 65, 110
2, 347772, Note_off_c, 0, 68, 100
2, 347776, Note_on_c, 0, 60, 110
2, 347900, Note_off_c, 0, 65, 100
2, 347904, Note_on_c, 0, 67, 110
2, 348028, Note_off_c, 0, 60, 100
2, 348032, Note_on_c, 0, 61, 110
2, 348156, Note_off_c, 0, 67, 100
2, 348160, Note_on_c, 0, 58, 110
2, 348284, Note_off_c, 0, 61, 100
2, 348288, Note_on_c, 0, 65, 110
2, 348412, Note_off_c, 0, 58, 100
2, 348416, Note_on_c, 0, 62, 110
2, 348540, Note_off_c, 0, 65, 100
2, 348544, Note_on_c, 0, 56, 110
2, 348668, Note_off_c, 0, 62, 100
2, 348672, Note_on_c, 0, 65, 110
2, 348796, Note_off_c, 0, 56, 100
2, 348800, Note_on_c, 0, 60, 110
2, 348924, Note_off_c, 0, 65, 100
2, 348928, Note_on_c, 0, 56, 110
2, 349052, Note_off_c, 0, 60, 100
2, 349056, Note_on_c, 0, 65, 110
2, 349180, Note_off_c, 0, 56, 100
2, 349184, Note_on_c, 0, 60, 110
2, 349308, Note_off_c, 0, 65, 100
2, 349312, Note_on_c, 0, 56, 110
2, 349436, Note_off_c, 0, 60, 100
2, 349440, Note_on_c, 0, 64, 110
2, 349564, Note_off_c, 0, 56, 100
2, 349568, Note_on_c, 0, 58, 110
2, 349692, Note_off_c, 0, 64, 100
2, 349696, Note_on_c, 0, 55, 110
2, 349820, Note_off_c, 0, 58, 100
2, 349824, Note_on_c, 0, 64, 110
2, 349948, Note_off_c, 0, 55, 100
2, 349952, Note_on_c, 0, 58, 110
2, 350076, Note_off_c, 0, 64, 100
2, 350080, Note_on_c, 0, 55, 110
2, 350204, Note_off_c, 0, 58, 100
2, 350204, Note_off_c, 0, 55, 100
2, 350208, Note_on_c, 0, 65, 100
2, 350208, Note_on_c, 0, 56, 100
2, 350588, Note_off_c, 0, 65, 100
2, 350588, Note_off_c, 0, 56, 100
2, 350976, Note_on_c, 0, 68, 100
2, 350976, Note_on_c, 0, 80, 100
2, 351356, Note_off_c, 0, 68, 100
2, 351356, Note_off_c, 0, 80, 100
2, 351360, Note_on_c, 0, 80, 100
2, 351360, Note_on_c, 0, 68, 100
2, 351740, Note_off_c, 0, 80, 100
2, 351740, Note_off_c, 0, 68, 100
2, 351744, Note_on_c, 0, 79, 100
2, 351744, Note_on_c, 0, 67, 100
2, 352124, Note_off_c, 0, 79, 100
2, 352124, Note_off_c, 0, 67, 100
2, 352128, Note_on_c, 0, 77, 100
2, 352128, Note_on_c, 0, 65, 100
2, 352508, Note_off_c, 0, 77, 100
2, 352508, Note_off_c, 0, 65, 100
2, 352512, Note_on_c, 0, 75, 100
2, 352512, Note_on_c, 0, 63, 100
2, 352892, Note_off_c, 0, 75, 100
2, 352892, Note_off_c, 0, 63, 100
2, 352896, Note_on_c, 0, 73, 100
2, 352896, Note_on_c, 0, 61, 100
2, 353276, Note_off_c, 0, 73, 100
2, 353276, Note_off_c, 0, 61, 100
2, 353280, Note_on_c, 0, 72, 100
2, 353280, Note_on_c, 0, 60, 100
2, 354044, Note_off_c, 0, 72, 100
2, 354044, Note_off_c, 0, 60, 100
2, 354048, Note_on_c, 0, 77, 100
2, 354048, Note_on_c, 0, 65, 100
2, 354428, Note_off_c, 0, 77, 100
2, 354428, Note_off_c, 0, 65, 100
2, 354432, Note_on_c, 0, 77, 100
2, 354432, Note_on_c, 0, 65, 100
2, 354812, Note_off_c, 0, 77, 100
2, 354812, Note_off_c, 0, 65, 100
2, 354816, Note_on_c, 0, 75, 100
2, 354816, Note_on_c, 0, 61, 100
2, 355196, Note_off_c, 0, 75, 100
2, 355196, Note_off_c, 0, 61, 100
2, 355200, Note_on_c, 0, 73, 100
2, 355200, Note_on_c, 0, 61, 100
2, 355580, Note_off_c, 0, 73, 100
2, 355580, Note_off_c, 0, 61, 100
2, 355584, Note_on_c, 0, 72, 100
2, 355584, Note_on_c, 0, 60, 100
2, 355964, Note_off_c, 0, 72, 100
2, 355964, Note_off_c, 0, 60, 100
2, 355968, Note_on_c, 0, 70, 100
2, 355968, Note_on_c, 0, 58, 100
2, 356348, Note_off_c, 0, 70, 100
2, 356348, Note_off_c, 0, 58, 100
2, 356352, Note_on_c, 0, 68, 100
2, 357116, Note_off_c, 0, 68, 100
2, 357120, Note_on_c, 0, 72, 100
2, 357120, Note_on_c, 0, 84, 100
2, 357500, Note_off_c, 0, 72, 100
2, 357500, Note_off_c, 0, 84, 100
2, 357504, Note_on_c, 0, 84, 100
2, 357504, Note_on_c, 0, 72, 100
2, 357884, Note_off_c, 0, 84, 100
2, 357884, Note_off_c, 0, 72, 100
2, 357888, Note_on_c, 0, 82, 100
2, 357888, Note_on_c, 0, 70, 100
2, 358268, Note_off_c, 0, 82, 100
2, 358268, Note_off_c, 0, 70, 100
2, 358272, Note_on_c, 0, 80, 100
2, 358272, Note_on_c, 0, 68, 100
2, 358652, Note_off_c, 0, 80, 100
2, 358652, Note_off_c, 0, 68, 100
2, 358656, Note_on_c, 0, 79, 100
2, 358656, Note_on_c, 0, 67, 100
2, 359036, Note_off_c, 0, 79, 100
2, 359036, Note_off_c, 0, 67, 100
2, 359040, Note_on_c, 0, 77, 100
2, 359040, Note_on_c, 0, 65, 100
2, 359420, Note_off_c, 0, 77, 100
2, 359420, Note_off_c, 0, 65, 100
2, 359424, Note_on_c, 0, 60, 100
2, 359424, Note_on_c, 0, 72, 100
2, 360188, Note_off_c, 0, 60, 100
2, 360188, Note_off_c, 0, 72, 100
2, 360192, Note_on_c, 0, 72, 100
2, 360192, Note_on_c, 0, 60, 100
2, 360572, Note_off_c, 0, 72, 100
2, 360572, Note_off_c, 0, 60, 100
2, 360576, Note_on_c, 0, 72, 100
2, 360576, Note_on_c, 0, 60, 100
2, 360956, Note_off_c, 0, 72, 100
2, 360956, Note_off_c, 0, 60, 100
2, 360960, Note_on_c, 0, 60, 100
2, 360960, Note_on_c, 0, 72, 100
2, 361724, Note_off_c, 0, 60, 100
2, 361724, Note_off_c, 0, 72, 100
2, 361728, Note_on_c, 0, 72, 100
2, 361728, Note_on_c, 0, 60, 100
2, 362108, Note_off_c, 0, 72, 100
2, 362108, Note_off_c, 0, 60, 100
2, 362112, Note_on_c, 0, 72, 100
2, 362112, Note_on_c, 0, 60, 100
2, 362492, Note_off_c, 0, 72, 100
2, 362492, Note_off_c, 0, 60, 100
2, 362496, Note_on_c, 0, 65, 100
2, 362876, Note_off_c, 0, 65, 100
2, 363264, Note_on_c, 0, 68, 100
2, 363264, Note_on_c, 0, 80, 100
2, 363644, Note_off_c, 0, 68, 100
2, 363644, Note_off_c, 0, 80, 100
2, 363648, Note_on_c, 0, 80, 100
2, 363648, Note_on_c, 0, 68, 100
2, 364028, Note_off_c, 0, 80, 100
2, 364028, Note_off_c, 0, 68, 100
2, 364032, Note_on_c, 0, 79, 100
2, 364032, Note_on_c, 0, 67, 100
2, 364412, Note_off_c, 0, 79, 100
2, 364412, Note_off_c, 0, 67, 100
2, 364416, Note_on_c, 0, 77, 100
2, 364416, Note_on_c, 0, 65, 100
2, 364796, Note_off_c, 0, 77, 100
2, 364796, Note_off_c, 0, 65, 100
2, 364800, Note_on_c, 0, 75, 100
2, 364800, Note_on_c, 0, 63, 100
2, 365180, Note_off_c, 0, 75, 100
2, 365180, Note_off_c, 0, 63, 100
2, 365184, Note_on_c, 0, 73, 100
2, 365184, Note_on_c, 0, 61, 100
2, 365564, Note_off_c, 0, 73, 100
2, 365564, Note_off_c, 0, 61, 100
2, 365568, Note_on_c, 0, 72, 100
2, 365568, Note_on_c, 0, 60, 100
2, 366332, Note_off_c, 0, 72, 100
2, 366332, Note_off_c, 0, 60, 100
2, 366336, Note_on_c, 0, 77, 100
2, 366336, Note_on_c, 0, 65, 100
2, 366716, Note_off_c, 0, 77, 100
2, 366716, Note_off_c, 0, 65, 100
2, 366720, Note_on_c, 0, 77, 100
2, 366720, Note_on_c, 0, 65, 100
2, 367100, Note_off_c, 0, 77, 100
2, 367100, Note_off_c, 0, 65, 100
2, 367104, Note_on_c, 0, 75, 100
2, 367104, Note_on_c, 0, 61, 100
2, 367484, Note_off_c, 0, 75, 100
2, 367484, Note_off_c, 0, 61, 100
2, 367488, Note_on_c, 0, 73, 100
2, 367488, Note_on_c, 0, 61, 100
2, 367868, Note_off_c, 0, 73, 100
2, 367868, Note_off_c, 0, 61, 100
2, 367872, Note_on_c, 0, 72, 100
2, 367872, Note_on_c, 0, 60, 100
2, 368252, Note_off_c, 0, 72, 100
2, 368252, Note_off_c, 0, 60, 100
2, 368256, Note_on_c, 0, 70, 100
2, 368256, Note_on_c, 0, 58, 100
2, 368636, Note_off_c, 0, 70, 100
2, 368636, Note_off_c, 0, 58, 100
2, 368640, Note_on_c, 0, 68, 100
2, 369404, Note_off_c, 0, 68, 100
2, 369408, Note_on_c, 0, 72, 100
2, 369408, Note_on_c, 0, 84, 100
2, 369788, Note_off_c, 0, 72, 100
2, 369788, Note_off_c, 0, 84, 100
2, 369792, Note_on_c, 0, 84, 100
2, 369792, Note_on_c, 0, 72, 100
2, 370172, Note_off_c, 0, 84, 100
2, 370172, Note_off_c, 0, 72, 100
2, 370176, Note_on_c, 0, 82, 100
2, 370176, Note_on_c, 0, 70, 100
2, 370556, Note_off_c, 0, 82, 100
2, 370556, Note_off_c, 0, 70, 100
2, 370560, Note_on_c, 0, 80, 100
2, 370560, Note_on_c, 0, 68, 100
2, 370940, Note_off_c, 0, 80, 100
2, 370940, Note_off_c, 0, 68, 100
2, 370944, Note_on_c, 0, 79, 100
2, 370944, Note_on_c, 0, 67, 100
2, 371324, Note_off_c, 0, 79, 100
2, 371324, Note_off_c, 0, 67, 100
2, 371328, Note_on_c, 0, 77, 100
2, 371328, Note_on_c, 0, 65, 100
2, 371708, Note_off_c, 0, 77, 100
2, 371708, Note_off_c, 0, 65, 100
2, 371712, Note_on_c, 0, 60, 100
2, 371712, Note_on_c, 0, 72, 100
2, 372476, Note_off_c, 0, 60, 100
2, 372476, Note_off_c, 0, 72, 100
2, 372480, Note_on_c, 0, 72, 100
2, 372480, Note_on_c, 0, 60, 100
2, 372860, Note_off_c, 0, 72, 100
2, 372860, Note_off_c, 0, 60, 100
2, 372864, Note_on_c, 0, 72, 100
2, 372864, Note_on_c, 0, 60, 100
2, 373244, Note_off_c, 0, 72, 100
2, 373244, Note_off_c, 0, 60, 100
2, 373248, Note_on_c, 0, 60, 100
2, 373248, Note_on_c, 0, 72, 100
2, 374012, Note_off_c, 0, 60, 100
2, 374012, Note_off_c, 0, 72, 100
2, 374016, Note_on_c, 0, 72, 100
2, 374016, Note_on_c, 0, 60, 100
2, 374396, Note_off_c, 0, 72, 100
2, 374396, Note_off_c, 0, 60, 100
2, 374400, Note_on_c, 0, 72, 100
2, 374400, Note_on_c, 0, 60, 100
2, 374780, Note_off_c, 0, 72, 100
2, 374780, Note_off_c, 0, 60, 100
2, 374784, Note_on_c, 0, 65, 110
2, 374912, Note_on_c, 0, 68, 110
2, 375036, Note_off_c, 0, 65, 100
2, 375040, Note_on_c, 0, 72, 110
2, 375164, Note_off_c, 0, 68, 100
2, 375168, Note_on_c, 0, 77, 110
2, 375292, Note_off_c, 0, 72, 100
2, 375296, Note_on_c, 0, 80, 110
2, 375420, Note_off_c, 0, 77, 100
2, 375424, Note_on_c, 0, 84, 110
2, 375548, Note_off_c, 0, 80, 100
2, 375552, Note_on_c, 0, 89, 110
2, 375676, Note_off_c, 0, 84, 100
2, 375680, Note_on_c, 0, 84, 110
2, 375804, Note_off_c, 0, 89, 100
2, 375808, Note_on_c, 0, 80, 110
2, 375932, Note_off_c, 0, 84, 100
2, 375936, Note_on_c, 0, 88, 110
2, 376060, Note_off_c, 0, 80, 100
2, 376064, Note_on_c, 0, 85, 110
2, 376188, Note_off_c, 0, 88, 100
2, 376192, Note_on_c, 0, 82, 110
2, 376316, Note_off_c, 0, 85, 100
2, 376316, Note_off_c, 0, 82, 100
2, 376320, Note_on_c, 0, 89, 110
2, 376448, Note_on_c, 0, 84, 110
2, 376572, Note_off_c, 0, 89, 100
2, 376576, Note_on_c, 0, 80, 110
2, 376700, Note_off_c, 0, 84, 100
2, 376704, Note_on_c, 0, 77, 110
2, 376828, Note_off_c, 0, 80, 100
2, 376832, Note_on_c, 0, 72, 110
2, 376956, Note_off_c, 0, 77, 100
2, 376960, Note_on_c, 0, 68, 110
2, 377084, Note_off_c, 0, 72, 100
2, 377088, Note_on_c, 0, 65, 110
2, 377212, Note_off_c, 0, 68, 100
2, 377216, Note_on_c, 0, 68, 110
2, 377340, Note_off_c, 0, 65, 100
2, 377344, Note_on_c, 0, 72, 110
2, 377468, Note_off_c, 0, 68, 100
2, 377472, Note_on_c, 0, 64, 110
2, 377596, Note_off_c, 0, 72, 100
2, 377600, Note_on_c, 0, 67, 110
2, 377724, Note_off_c, 0, 64, 100
2, 377728, Note_on_c, 0, 72, 110
2, 377852, Note_off_c, 0, 67, 100
2, 377852, Note_off_c, 0, 72, 100
2, 377856, Note_on_c, 0, 65, 110
2, 377984, Note_on_c, 0, 68, 110
2, 378108, Note_off_c, 0, 65, 100
2, 378112, Note_on_c, 0, 72, 110
2, 378236, Note_off_c, 0, 68, 100
2, 378240, Note_on_c, 0, 77, 110
2, 378364, Note_off_c, 0, 72, 100
2, 378368, Note_on_c, 0, 80, 110
2, 378492, Note_off_c, 0, 77, 100
2, 378496, Note_on_c, 0, 84, 110
2, 378620, Note_off_c, 0, 80, 100
2, 378624, Note_on_c, 0, 89, 110
2, 378748, Note_off_c, 0, 84, 100
2, 378752, Note_on_c, 0, 84, 110
2, 378876, Note_off_c, 0, 89, 100
2, 378880, Note_on_c, 0, 80, 110
2, 379004, Note_off_c, 0, 84, 100
2, 379008, Note_on_c, 0, 88, 110
2, 379132, Note_off_c, 0, 80, 100
2, 379136, Note_on_c, 0, 85, 110
2, 379260, Note_off_c, 0, 88, 100
2, 379264, Note_on_c, 0, 82, 110
2, 379388, Note_off_c, 0, 85, 100
2, 379388, Note_off_c, 0, 82, 100
2, 379392, Note_on_c, 0, 89, 110
2, 379520, Note_on_c, 0, 84, 110
2, 379644, Note_off_c, 0, 89, 100
2, 379648, Note_on_c, 0, 80, 110
2, 379772, Note_off_c, 0, 84, 100
2, 379776, Note_on_c, 0, 77, 110
2, 379900, Note_off_c, 0, 80, 100
2, 379904, Note_on_c, 0, 72, 110
2, 380028, Note_off_c, 0, 77, 100
2, 380032, Note_on_c, 0, 68, 110
2, 380156, Note_off_c, 0, 72, 100
2, 380160, Note_on_c, 0, 65, 110
2, 380284, Note_off_c, 0, 68, 100
2, 380288, Note_on_c, 0, 68, 110
2, 380412, Note_off_c, 0, 65, 100
2, 380416, Note_on_c, 0, 72, 110
2, 380540, Note_off_c, 0, 68, 100
2, 380544, Note_on_c, 0, 64, 110
2, 380668, Note_off_c, 0, 72, 100
2, 380672, Note_on_c, 0, 67, 110
2, 380796, Note_off_c, 0, 64, 100
2, 380800, Note_on_c, 0, 72, 110
2, 380924, Note_off_c, 0, 67, 100
2, 380924, Note_off_c, 0, 72, 100
2, 380928, Note_on_c, 0, 65, 110
2, 381056, Note_on_c, 0, 68, 110
2, 381180, Note_off_c, 0, 65, 100
2, 381184, Note_on_c, 0, 72, 110
2, 381308, Note_off_c, 0, 68, 100
2, 381312, Note_on_c, 0, 77, 110
2, 381436, Note_off_c, 0, 72, 100
2, 381440, Note_on_c, 0, 80, 110
2, 381564, Note_off_c, 0, 77, 100
2, 381568, Note_on_c, 0, 84, 110
2, 381692, Note_off_c, 0, 80, 100
2, 381696, Note_on_c, 0, 89, 120
2, 381820, Note_off_c, 0, 84, 100
2, 381824, Note_on_c, 0, 84, 120
2, 381948, Note_off_c, 0, 89, 100
2, 381952, Note_on_c, 0, 80, 120
2, 382076, Note_off_c, 0, 84, 100
2, 382080, Note_on_c, 0, 88, 120
2, 382204, Note_off_c, 0, 80, 100
2, 382208, Note_on_c, 0, 85, 120
2, 382332, Note_off_c, 0, 88, 100
2, 382336, Note_on_c, 0, 82, 120
2, 382460, Note_off_c, 0, 85, 100
2, 382460, Note_off_c, 0, 82, 100
2, 382464, Note_on_c, 0, 89, 120
2, 382592, Note_on_c, 0, 84, 120
2, 382716, Note_off_c, 0, 89, 100
2, 382720, Note_on_c, 0, 80, 120
2, 382844, Note_off_c, 0, 84, 100
2, 382848, Note_on_c, 0, 77, 120
2, 382972, Note_off_c, 0, 80, 100
2, 382976, Note_on_c, 0, 80, 120
2, 383100, Note_off_c, 0, 77, 100
2, 383104, Note_on_c, 0, 84, 120
2, 383228, Note_off_c, 0, 80, 100
2, 383232, Note_on_c, 0, 89, 120
2, 383356, Note_off_c, 0, 84, 100
2, 383360, Note_on_c, 0, 84, 120
2, 383484, Note_off_c, 0, 89, 100
2, 383488, Note_on_c, 0, 80, 120
2, 383612, Note_off_c, 0, 84, 100
2, 383616, Note_on_c, 0, 88, 120
2, 383740, Note_off_c, 0, 80, 100
2, 383744, Note_on_c, 0, 85, 120
2, 383868, Note_off_c, 0, 88, 100
2, 383872, Note_on_c, 0, 82, 120
2, 383996, Note_off_c, 0, 85, 100
2, 383996, Note_off_c, 0, 82, 100
2, 384000, Note_on_c, 0, 89, 120
2, 384128, Note_on_c, 0, 84, 120
2, 384252, Note_off_c, 0, 89, 100
2, 384256, Note_on_c, 0, 80, 120
2, 384380, Note_off_c, 0, 84, 100
2, 384384, Note_on_c, 0, 77, 120
2, 384508, Note_off_c, 0, 80, 100
2, 384512, Note_on_c, 0, 72, 120
2, 384636, Note_off_c, 0, 77, 100
2, 384640, Note_on_c, 0, 68, 120
2, 384764, Note_off_c, 0, 72, 100
2, 384768, Note_on_c, 0, 65, 120
2, 384892, Note_off_c, 0, 68, 100
2, 384896, Note_on_c, 0, 60, 120
2, 385020, Note_off_c, 0, 65, 100
2, 385024, Note_on_c, 0, 56, 120
2, 385148, Note_off_c, 0, 60, 100
2, 385276, Note_off_c, 0, 56, 100
2, 387072, Control_c, 0, 7, 0
2, 387456, Note_on_c, 0, 65, 1
2, 387836, Note_off_c, 0, 65, 100
2, 387836, End_track
3, 0, Start_track
3, 0, Title_t, "Left"
3, 0, Control_c, 1, 0, 0
3, 0, Program_c, 1, 0
3, 0, Control_c, 1, 7, 100
3, 0, Control_c, 1, 10, 51
3, 0, Control_c, 1, 91, 127
3, 0, Key_signature, -4, "minor"
3, 0, Note_on_c, 1, 53, 80
3, 128, Note_on_c, 1, 56, 80
3, 252, Note_off_c, 1, 53, 100
3, 256, Note_on_c, 1, 60, 80
3, 380, Note_off_c, 1, 56, 100
3, 384, Note_on_c, 1, 53, 80
3, 508, Note_off_c, 1, 60, 100
3, 512, Note_on_c, 1, 56, 80
3, 636, Note_off_c, 1, 53, 100
3, 640, Note_on_c, 1, 60, 80
3, 764, Note_off_c, 1, 56, 100
3, 768, Note_on_c, 1, 53, 80
3, 892, Note_off_c, 1, 60, 100
3, 896, Note_on_c, 1, 56, 80
3, 1020, Note_off_c, 1, 53, 100
3, 1024, Note_on_c, 1, 60, 80
3, 1148, Note_off_c, 1, 56, 100
3, 1152, Note_on_c, 1, 53, 80
3, 1276, Note_off_c, 1, 60, 100
3, 1280, Note_on_c, 1, 58, 80
3, 1404, Note_off_c, 1, 53, 100
3, 1408, Note_on_c, 1, 61, 80
3, 1532, Note_off_c, 1, 58, 100
3, 1532, Note_off_c, 1, 61, 100
3, 1536, Note_on_c, 1, 53, 80
3, 1664, Note_on_c, 1, 60, 80
3, 1788, Note_off_c, 1, 53, 100
3, 1792, Note_on_c, 1, 56, 80
3, 1916, Note_off_c, 1, 60, 100
3, 1920, Note_on_c, 1, 53, 80
3, 2044, Note_off_c, 1, 56, 100
3, 2048, Note_on_c, 1, 48, 80
3, 2172, Note_off_c, 1, 53, 100
3, 2176, Note_on_c, 1, 44, 100
3, 2300, Note_off_c, 1, 48, 100
3, 2304, Note_on_c, 1, 41, 100
3, 2428, Note_off_c, 1, 44, 100
3, 2432, Note_on_c, 1, 44, 100
3, 2556, Note_off_c, 1, 41, 100
3, 2560, Note_on_c, 1, 48, 100
3, 2684, Note_off_c, 1, 44, 100
3, 2688, Note_on_c, 1, 40, 100
3, 2812, Note_off_c, 1, 48, 100
3, 2816, Note_on_c, 1, 43, 100
3, 2940, Note_off_c, 1, 40, 100
3, 2944, Note_on_c, 1, 48, 100
3, 3068, Note_off_c, 1, 43, 100
3, 3068, Note_off_c, 1, 48, 100
3, 3072, Note_on_c, 1, 41, 100
3, 3200, Note_on_c, 1, 44, 100
3, 3324, Note_off_c, 1, 41, 100
3, 3328, Note_on_c, 1, 48, 100
3, 3452, Note_off_c, 1, 44, 100
3, 3456, Note_on_c, 1, 53, 100
3, 3580, Note_off_c, 1, 48, 100
3, 3584, Note_on_c, 1, 56, 100
3, 3708, Note_off_c, 1, 53, 100
3, 3712, Note_on_c, 1, 60, 100
3, 3836, Note_off_c, 1, 56, 100
3, 3840, Note_on_c, 1, 53, 80
3, 3964, Note_off_c, 1, 60, 100
3, 3968, Note_on_c, 1, 56, 80
3, 4092, Note_off_c, 1, 53, 100
3, 4096, Note_on_c, 1, 60, 80
3, 4220, Note_off_c, 1, 56, 100
3, 4224, Note_on_c, 1, 53, 80
3, 4348, Note_off_c, 1, 60, 100
3, 4352, Note_on_c, 1, 58, 80
3, 4476, Note_off_c, 1, 53, 100
3, 4480, Note_on_c, 1, 61, 80
3, 4604, Note_off_c, 1, 58, 100
3, 4604, Note_off_c, 1, 61, 100
3, 4608, Note_on_c, 1, 53, 80
3, 4736, Note_on_c, 1, 60, 80
3, 4860, Note_off_c, 1, 53, 100
3, 4864, Note_on_c, 1, 56, 80
3, 4988, Note_off_c, 1, 60, 100
3, 4992, Note_on_c, 1, 53, 80
3, 5116, Note_off_c, 1, 56, 100
3, 5120, Note_on_c, 1, 48, 80
3, 5244, Note_off_c, 1, 53, 100
3, 5248, Note_on_c, 1, 44, 80
3, 5372, Note_off_c, 1, 48, 100
3, 5376, Note_on_c, 1, 41, 100
3, 5500, Note_off_c, 1, 44, 100
3, 5504, Note_on_c, 1, 44, 100
3, 5628, Note_off_c, 1, 41, 100
3, 5632, Note_on_c, 1, 48, 100
3, 5756, Note_off_c, 1, 44, 100
3, 5760, Note_on_c, 1, 40, 100
3, 5884, Note_off_c, 1, 48, 100
3, 5888, Note_on_c, 1, 43, 100
3, 6012, Note_off_c, 1, 40, 100
3, 6016, Note_on_c, 1, 48, 100
3, 6140, Note_off_c, 1, 43, 100
3, 6140, Note_off_c, 1, 48, 100
3, 6144, Note_on_c, 1, 41, 100
3, 6272, Note_on_c, 1, 44, 100
3, 6396, Note_off_c, 1, 41, 100
3, 6400, Note_on_c, 1, 48, 100
3, 6524, Note_off_c, 1, 44, 100
3, 6528, Note_on_c, 1, 53, 100
3, 6652, Note_off_c, 1, 48, 100
3, 6656, Note_on_c, 1, 56, 100
3, 6780, Note_off_c, 1, 53, 100
3, 6784, Note_on_c, 1, 60, 100
3, 6908, Note_off_c, 1, 56, 100
3, 6908, Note_off_c, 1, 60, 100
3, 6912, Note_on_c, 1, 61, 80
3, 6912, Note_on_c, 1, 55, 80
3, 7292, Note_off_c, 1, 61, 100
3, 7296, Note_on_c, 1, 58, 80
3, 7676, Note_off_c, 1, 55, 100
3, 7676, Note_off_c, 1, 58, 100
3, 7680, Note_on_c, 1, 56, 80
3, 7680, Note_on_c, 1, 60, 80
3, 8444, Note_off_c, 1, 56, 100
3, 8444, Note_off_c, 1, 60, 100
3, 8448, Note_on_c, 1, 61, 80
3, 8448, Note_on_c, 1, 55, 80
3, 8828, Note_off_c, 1, 61, 100
3, 8832, Note_on_c, 1, 58, 80
3, 9212, Note_off_c, 1, 55, 100
3, 9212, Note_off_c, 1, 58, 100
3, 9216, Note_on_c, 1, 56, 80
3, 9216, Note_on_c, 1, 60, 80
3, 9980, Note_off_c, 1, 56, 100
3, 9980, Note_off_c, 1, 60, 100
3, 9984, Note_on_c, 1, 55, 80
3, 9984, Note_on_c, 1, 61, 80
3, 10364, Note_off_c, 1, 61, 100
3, 10368, Note_on_c, 1, 58, 80
3, 10748, Note_off_c, 1, 55, 100
3, 10748, Note_off_c, 1, 58, 100
3, 10752, Note_on_c, 1, 60, 80
3, 10752, Note_on_c, 1, 56, 80
3, 11132, Note_off_c, 1, 60, 100
3, 11132, Note_off_c, 1, 56, 100
3, 11136, Note_on_c, 1, 55, 80
3, 11136, Note_on_c, 1, 52, 80
3, 11516, Note_off_c, 1, 55, 100
3, 11516, Note_off_c, 1, 52, 100
3, 11520, Note_on_c, 1, 56, 80
3, 11520, Note_on_c, 1, 53, 80
3, 11900, Note_off_c, 1, 56, 100
3, 11900, Note_off_c, 1, 53, 100
3, 11904, Note_on_c, 1, 53, 80
3, 11904, Note_on_c, 1, 49, 80
3, 12284, Note_off_c, 1, 53, 100
3, 12284, Note_off_c, 1, 49, 100
3, 12288, Note_on_c, 1, 52, 80
3, 12288, Note_on_c, 1, 48, 80
3, 12668, Note_off_c, 1, 52, 100
3, 12668, Note_off_c, 1, 48, 100
3, 12672, Note_on_c, 1, 60, 80
3, 13052, Note_off_c, 1, 60, 100
3, 13056, Note_on_c, 1, 64, 80
3, 13056, Note_on_c, 1, 70, 80
3, 13436, Note_off_c, 1, 70, 100
3, 13440, Note_on_c, 1, 67, 80
3, 13820, Note_off_c, 1, 64, 100
3, 13820, Note_off_c, 1, 67, 100
3, 13824, Note_on_c, 1, 65, 80
3, 13824, Note_on_c, 1, 68, 80
3, 14588, Note_off_c, 1, 65, 100
3, 14588, Note_off_c, 1, 68, 100
3, 14592, Note_on_c, 1, 64, 80
3, 14592, Note_on_c, 1, 70, 80
3, 14972, Note_off_c, 1, 70, 100
3, 14976, Note_on_c, 1, 67, 80
3, 15356, Note_off_c, 1, 64, 100
3, 15356, Note_off_c, 1, 67, 100
3, 15360, Note_on_c, 1, 65, 80
3, 15360, Note_on_c, 1, 68, 80
3, 16124, Note_off_c, 1, 65, 100
3, 16124, Note_off_c, 1, 68, 100
3, 16128, Note_on_c, 1, 52, 80
3, 16128, Note_on_c, 1, 58, 80
3, 16508, Note_off_c, 1, 58, 100
3, 16512, Note_on_c, 1, 55, 80
3, 16892, Note_off_c, 1, 52, 100
3, 16892, Note_off_c, 1, 55, 100
3, 16896, Note_on_c, 1, 56, 100
3, 16896, Note_on_c, 1, 53, 100
3, 17276, Note_off_c, 1, 56, 100
3, 17276, Note_off_c, 1, 53, 100
3, 17280, Note_on_c, 1, 56, 95
3, 17280, Note_on_c, 1, 53, 95
3, 18044, Note_off_c, 1, 56, 100
3, 18044, Note_off_c, 1, 53, 100
3, 18048, Note_on_c, 1, 57, 83
3, 18048, Note_on_c, 1, 54, 83
3, 18428, Note_off_c, 1, 57, 100
3, 18428, Note_off_c, 1, 54, 100
3, 18432, Note_on_c, 1, 55, 80
3, 18560, Note_on_c, 1, 59, 80
3, 18684, Note_off_c, 1, 55, 100
3, 18688, Note_on_c, 1, 62, 80
3, 18812, Note_off_c, 1, 59, 100
3, 18816, Note_on_c, 1, 55, 80
3, 18940, Note_off_c, 1, 62, 100
3, 18944, Note_on_c, 1, 59, 80
3, 19068, Note_off_c, 1, 55, 100
3, 19072, Note_on_c, 1, 62, 80
3, 19196, Note_off_c, 1, 59, 100
3, 19200, Note_on_c, 1, 55, 80
3, 19324, Note_off_c, 1, 62, 100
3, 19328, Note_on_c, 1, 58, 80
3, 19452, Note_off_c, 1, 55, 100
3, 19456, Note_on_c, 1, 61, 80
3, 19580, Note_off_c, 1, 58, 100
3, 19584, Note_on_c, 1, 55, 80
3, 19708, Note_off_c, 1, 61, 100
3, 19712, Note_on_c, 1, 60, 80
3, 19836, Note_off_c, 1, 55, 100
3, 19840, Note_on_c, 1, 63, 80
3, 19964, Note_off_c, 1, 60, 100
3, 19964, Note_off_c, 1, 63, 100
3, 19968, Note_on_c, 1, 55, 80
3, 20096, Note_on_c, 1, 62, 80
3, 20220, Note_off_c, 1, 55, 100
3, 20224, Note_on_c, 1, 59, 80
3, 20348, Note_off_c, 1, 62, 100
3, 20352, Note_on_c, 1, 55, 80
3, 20476, Note_off_c, 1, 59, 100
3, 20480, Note_on_c, 1, 50, 80
3, 20604, Note_off_c, 1, 55, 100
3, 20608, Note_on_c, 1, 47, 80
3, 20732, Note_off_c, 1, 50, 100
3, 20736, Note_on_c, 1, 43, 100
3, 20860, Note_off_c, 1, 47, 100
3, 20864, Note_on_c, 1, 47, 100
3, 20988, Note_off_c, 1, 43, 100
3, 20992, Note_on_c, 1, 50, 100
3, 21116, Note_off_c, 1, 47, 100
3, 21120, Note_on_c, 1, 43, 100
3, 21244, Note_off_c, 1, 50, 100
3, 21248, Note_on_c, 1, 47, 100
3, 21372, Note_off_c, 1, 43, 100
3, 21376, Note_on_c, 1, 50, 100
3, 21500, Note_off_c, 1, 47, 100
3, 21500, Note_off_c, 1, 50, 100
3, 21504, Note_on_c, 1, 43, 100
3, 21632, Note_on_c, 1, 47, 100
3, 21756, Note_off_c, 1, 43, 100
3, 21760, Note_on_c, 1, 50, 100
3, 21884, Note_off_c, 1, 47, 100
3, 21888, Note_on_c, 1, 55, 100
3, 22012, Note_off_c, 1, 50, 100
3, 22016, Note_on_c, 1, 59, 100
3, 22140, Note_off_c, 1, 55, 100
3, 22144, Note_on_c, 1, 62, 100
3, 22268, Note_off_c, 1, 59, 100
3, 22272, Note_on_c, 1, 55, 100
3, 22396, Note_off_c, 1, 62, 100
3, 22400, Note_on_c, 1, 58, 100
3, 22524, Note_off_c, 1, 55, 100
3, 22528, Note_on_c, 1, 61, 100
3, 22652, Note_off_c, 1, 58, 100
3, 22656, Note_on_c, 1, 55, 100
3, 22780, Note_off_c, 1, 61, 100
3, 22784, Note_on_c, 1, 60, 100
3, 22908, Note_off_c, 1, 55, 100
3, 22912, Note_on_c, 1, 63, 100
3, 23036, Note_off_c, 1, 60, 100
3, 23036, Note_off_c, 1, 63, 100
3, 23040, Note_on_c, 1, 55, 100
3, 23168, Note_on_c, 1, 62, 100
3, 23292, Note_off_c, 1, 55, 100
3, 23296, Note_on_c, 1, 59, 100
3, 23420, Note_off_c, 1, 62, 100
3, 23424, Note_on_c, 1, 55, 100
3, 23548, Note_off_c, 1, 59, 100
3, 23552, Note_on_c, 1, 50, 100
3, 23676, Note_off_c, 1, 55, 100
3, 23680, Note_on_c, 1, 47, 100
3, 23804, Note_off_c, 1, 50, 100
3, 23808, Note_on_c, 1, 43, 120
3, 23932, Note_off_c, 1, 47, 100
3, 23936, Note_on_c, 1, 47, 120
3, 24060, Note_off_c, 1, 43, 100
3, 24064, Note_on_c, 1, 50, 120
3, 24188, Note_off_c, 1, 47, 100
3, 24192, Note_on_c, 1, 43, 120
3, 24316, Note_off_c, 1, 50, 100
3, 24320, Note_on_c, 1, 47, 120
3, 24444, Note_off_c, 1, 43, 100
3, 24448, Note_on_c, 1, 49, 120
3, 24572, Note_off_c, 1, 47, 100
3, 24572, Note_off_c, 1, 49, 100
3, 24576, Note_on_c, 1, 43, 120
3, 24704, Note_on_c, 1, 47, 120
3, 24828, Note_off_c, 1, 43, 100
3, 24832, Note_on_c, 1, 50, 120
3, 24956, Note_off_c, 1, 47, 100
3, 24960, Note_on_c, 1, 55, 120
3, 25084, Note_off_c, 1, 50, 100
3, 25088, Note_on_c, 1, 50, 120
3, 25212, Note_off_c, 1, 55, 100
3, 25216, Note_on_c, 1, 47, 120
3, 25340, Note_off_c, 1, 50, 100
3, 25344, Note_on_c, 1, 43, 120
3, 25468, Note_off_c, 1, 47, 100
3, 25472, Note_on_c, 1, 47, 120
3, 25596, Note_off_c, 1, 43, 100
3, 25600, Note_on_c, 1, 50, 120
3, 25724, Note_off_c, 1, 47, 100
3, 25728, Note_on_c, 1, 43, 120
3, 25852, Note_off_c, 1, 50, 100
3, 25856, Note_on_c, 1, 47, 120
3, 25980, Note_off_c, 1, 43, 100
3, 25984, Note_on_c, 1, 50, 120
3, 26108, Note_off_c, 1, 47, 100
3, 26108, Note_off_c, 1, 50, 100
3, 26112, Note_on_c, 1, 43, 120
3, 26240, Note_on_c, 1, 47, 120
3, 26364, Note_off_c, 1, 43, 100
3, 26368, Note_on_c, 1, 50, 120
3, 26492, Note_off_c, 1, 47, 100
3, 26496, Note_on_c, 1, 55, 120
3, 26620, Note_off_c, 1, 50, 100
3, 26624, Note_on_c, 1, 50, 120
3, 26748, Note_off_c, 1, 55, 100
3, 26752, Note_on_c, 1, 47, 120
3, 26876, Note_off_c, 1, 50, 100
3, 26880, Note_on_c, 1, 43, 120
3, 27004, Note_off_c, 1, 47, 100
3, 27008, Note_on_c, 1, 47, 120
3, 27132, Note_off_c, 1, 43, 100
3, 27136, Note_on_c, 1, 50, 120
3, 27260, Note_off_c, 1, 47, 100
3, 27264, Note_on_c, 1, 43, 120
3, 27388, Note_off_c, 1, 50, 100
3, 27392, Note_on_c, 1, 47, 120
3, 27516, Note_off_c, 1, 43, 100
3, 27520, Note_on_c, 1, 50, 120
3, 27644, Note_off_c, 1, 47, 100
3, 27644, Note_off_c, 1, 50, 100
3, 27648, Note_on_c, 1, 43, 120
3, 27776, Note_on_c, 1, 47, 120
3, 27900, Note_off_c, 1, 43, 100
3, 27904, Note_on_c, 1, 50, 120
3, 28028, Note_off_c, 1, 47, 100
3, 28032, Note_on_c, 1, 55, 120
3, 28156, Note_off_c, 1, 50, 100
3, 28160, Note_on_c, 1, 50, 120
3, 28284, Note_off_c, 1, 55, 100
3, 28288, Note_on_c, 1, 47, 120
3, 28412, Note_off_c, 1, 50, 100
3, 28416, Note_on_c, 1, 43, 120
3, 28540, Note_off_c, 1, 47, 100
3, 28544, Note_on_c, 1, 47, 120
3, 28668, Note_off_c, 1, 43, 100
3, 28672, Note_on_c, 1, 50, 120
3, 28796, Note_off_c, 1, 47, 100
3, 28800, Note_on_c, 1, 55, 120
3, 28924, Note_off_c, 1, 50, 100
3, 28928, Note_on_c, 1, 50, 120
3, 29052, Note_off_c, 1, 55, 100
3, 29056, Note_on_c, 1, 47, 120
3, 29180, Note_off_c, 1, 50, 100
3, 29180, Note_off_c, 1, 47, 100
3, 29184, Note_on_c, 1, 43, 120
3, 29948, Note_off_c, 1, 43, 100
3, 31616, Note_on_c, 1, 56, 120
3, 31744, Note_on_c, 1, 55, 120
3, 31868, Note_off_c, 1, 56, 100
3, 31872, Note_on_c, 1, 53, 120
3, 31996, Note_off_c, 1, 55, 100
3, 32000, Note_on_c, 1, 51, 120
3, 32124, Note_off_c, 1, 53, 100
3, 32128, Note_on_c, 1, 50, 120
3, 32252, Note_off_c, 1, 51, 100
3, 32252, Note_off_c, 1, 50, 100
3, 32256, Note_on_c, 1, 48, 120
3, 32636, Note_off_c, 1, 48, 100
3, 32640, Note_on_c, 1, 56, 120
3, 33020, Note_off_c, 1, 56, 100
3, 33024, Note_on_c, 1, 55, 120
3, 33404, Note_off_c, 1, 55, 100
3, 33408, Note_on_c, 1, 54, 120
3, 33788, Note_off_c, 1, 54, 100
3, 33792, Note_on_c, 1, 55, 120
3, 34172, Note_off_c, 1, 55, 100
3, 34176, Note_on_c, 1, 56, 120
3, 34556, Note_off_c, 1, 56, 100
3, 34560, Note_on_c, 1, 55, 120
3, 34940, Note_off_c, 1, 55, 100
3, 34944, Note_on_c, 1, 54, 120
3, 35324, Note_off_c, 1, 54, 100
3, 35328, Note_on_c, 1, 55, 110
3, 35456, Note_on_c, 1, 60, 110
3, 35580, Note_off_c, 1, 55, 100
3, 35584, Note_on_c, 1, 63, 110
3, 35708, Note_off_c, 1, 60, 100
3, 35712, Note_on_c, 1, 56, 110
3, 35836, Note_off_c, 1, 63, 100
3, 35840, Note_on_c, 1, 60, 110
3, 35964, Note_off_c, 1, 56, 100
3, 35968, Note_on_c, 1, 63, 110
3, 36092, Note_off_c, 1, 60, 100
3, 36096, Note_on_c, 1, 55, 110
3, 36220, Note_off_c, 1, 63, 100
3, 36224, Note_on_c, 1, 60, 110
3, 36348, Note_off_c, 1, 55, 100
3, 36352, Note_on_c, 1, 63, 110
3, 36476, Note_off_c, 1, 60, 100
3, 36480, Note_on_c, 1, 54, 110
3, 36604, Note_off_c, 1, 63, 100
3, 36608, Note_on_c, 1, 60, 110
3, 36732, Note_off_c, 1, 54, 100
3, 36736, Note_on_c, 1, 63, 110
3, 36860, Note_off_c, 1, 60, 100
3, 36860, Note_off_c, 1, 63, 100
3, 36864, Note_on_c, 1, 55, 110
3, 36992, Note_on_c, 1, 60, 110
3, 37116, Note_off_c, 1, 55, 100
3, 37120, Note_on_c, 1, 63, 110
3, 37244, Note_off_c, 1, 60, 100
3, 37248, Note_on_c, 1, 56, 110
3, 37372, Note_off_c, 1, 63, 100
3, 37376, Note_on_c, 1, 60, 110
3, 37500, Note_off_c, 1, 56, 100
3, 37504, Note_on_c, 1, 63, 110
3, 37628, Note_off_c, 1, 60, 100
3, 37632, Note_on_c, 1, 55, 110
3, 37756, Note_off_c, 1, 63, 100
3, 37760, Note_on_c, 1, 60, 110
3, 37884, Note_off_c, 1, 55, 100
3, 37888, Note_on_c, 1, 63, 110
3, 38012, Note_off_c, 1, 60, 100
3, 38016, Note_on_c, 1, 54, 110
3, 38140, Note_off_c, 1, 63, 100
3, 38144, Note_on_c, 1, 60, 110
3, 38268, Note_off_c, 1, 54, 100
3, 38272, Note_on_c, 1, 63, 110
3, 38396, Note_off_c, 1, 60, 100
3, 38396, Note_off_c, 1, 63, 100
3, 38400, Note_on_c, 1, 55, 110
3, 38528, Note_on_c, 1, 60, 110
3, 38652, Note_off_c, 1, 55, 100
3, 38656, Note_on_c, 1, 63, 110
3, 38780, Note_off_c, 1, 60, 100
3, 38784, Note_on_c, 1, 56, 110
3, 38908, Note_off_c, 1, 63, 100
3, 38976, Note_on_c, 1, 68, 110
3, 39164, Note_off_c, 1, 56, 100
3, 39168, Note_on_c, 1, 56, 110
3, 39356, Note_off_c, 1, 68, 100
3, 39360, Note_on_c, 1, 65, 110
3, 39548, Note_off_c, 1, 56, 100
3, 39552, Note_on_c, 1, 55, 110
3, 39740, Note_off_c, 1, 65, 100
3, 39744, Note_on_c, 1, 67, 110
3, 39932, Note_off_c, 1, 55, 100
3, 39932, Note_off_c, 1, 67, 100
3, 39936, Note_on_c, 1, 52, 110
3, 40128, Note_on_c, 1, 64, 110
3, 40316, Note_off_c, 1, 52, 100
3, 40320, Note_on_c, 1, 53, 110
3, 40508, Note_off_c, 1, 64, 100
3, 40512, Note_on_c, 1, 65, 110
3, 40700, Note_off_c, 1, 53, 100
3, 40704, Note_on_c, 1, 47, 110
3, 40892, Note_off_c, 1, 65, 100
3, 40896, Note_on_c, 1, 59, 110
3, 41084, Note_off_c, 1, 47, 100
3, 41088, Note_on_c, 1, 48, 110
3, 41276, Note_off_c, 1, 59, 100
3, 41280, Note_on_c, 1, 60, 110
3, 41468, Note_off_c, 1, 48, 100
3, 41468, Note_off_c, 1, 60, 100
3, 41472, Note_on_c, 1, 38, 110
3, 41664, Note_on_c, 1, 50, 110
3, 41852, Note_off_c, 1, 38, 100
3, 41856, Note_on_c, 1, 39, 110
3, 42044, Note_off_c, 1, 50, 100
3, 42048, Note_on_c, 1, 51, 110
3, 42236, Note_off_c, 1, 39, 100
3, 42240, Note_on_c, 1, 41, 110
3, 42428, Note_off_c, 1, 51, 100
3, 42432, Note_on_c, 1, 53, 110
3, 42620, Note_off_c, 1, 41, 100
3, 42624, Note_on_c, 1, 42, 110
3, 42812, Note_off_c, 1, 53, 100
3, 42816, Note_on_c, 1, 54, 110
3, 43004, Note_off_c, 1, 42, 100
3, 43004, Note_off_c, 1, 54, 100
3, 43008, Note_on_c, 1, 43, 110
3, 43200, Note_on_c, 1, 55, 110
3, 43388, Note_off_c, 1, 43, 100
3, 43392, Note_on_c, 1, 43, 110
3, 43580, Note_off_c, 1, 55, 100
3, 43584, Note_on_c, 1, 55, 110
3, 43772, Note_off_c, 1, 43, 100
3, 43776, Note_on_c, 1, 43, 110
3, 43964, Note_off_c, 1, 55, 100
3, 43968, Note_on_c, 1, 55, 110
3, 44156, Note_off_c, 1, 43, 100
3, 44160, Note_on_c, 1, 43, 110
3, 44348, Note_off_c, 1, 55, 100
3, 44352, Note_on_c, 1, 55, 110
3, 44540, Note_off_c, 1, 43, 100
3, 44540, Note_off_c, 1, 55, 100
3, 44544, Note_on_c, 1, 48, 110
3, 44924, Note_off_c, 1, 48, 100
3, 44928, Note_on_c, 1, 56, 110
3, 45120, Note_on_c, 1, 60, 110
3, 45308, Note_off_c, 1, 56, 100
3, 45312, Note_on_c, 1, 53, 110
3, 45500, Note_off_c, 1, 60, 100
3, 45504, Note_on_c, 1, 56, 110
3, 45692, Note_off_c, 1, 53, 100
3, 45696, Note_on_c, 1, 55, 110
3, 45884, Note_off_c, 1, 56, 100
3, 45888, Note_on_c, 1, 58, 110
3, 46076, Note_off_c, 1, 55, 100
3, 46080, Note_on_c, 1, 52, 110
3, 46268, Note_off_c, 1, 58, 100
3, 46272, Note_on_c, 1, 55, 110
3, 46460, Note_off_c, 1, 52, 100
3, 46464, Note_on_c, 1, 53, 110
3, 46652, Note_off_c, 1, 55, 100
3, 46656, Note_on_c, 1, 56, 110
3, 46844, Note_off_c, 1, 53, 100
3, 46848, Note_on_c, 1, 47, 110
3, 47036, Note_off_c, 1, 56, 100
3, 47040, Note_on_c, 1, 50, 110
3, 47228, Note_off_c, 1, 47, 100
3, 47232, Note_on_c, 1, 48, 110
3, 47420, Note_off_c, 1, 50, 100
3, 47424, Note_on_c, 1, 51, 110
3, 47612, Note_off_c, 1, 48, 100
3, 47612, Note_off_c, 1, 51, 100
3, 47616, Note_on_c, 1, 38, 110
3, 47996, Note_off_c, 1, 38, 100
3, 48000, Note_on_c, 1, 39, 110
3, 48380, Note_off_c, 1, 39, 100
3, 48384, Note_on_c, 1, 41, 110
3, 48764, Note_off_c, 1, 41, 100
3, 48768, Note_on_c, 1, 42, 110
3, 49148, Note_off_c, 1, 42, 100
3, 49152, Note_on_c, 1, 31, 110
3, 49344, Note_on_c, 1, 43, 110
3, 49532, Note_off_c, 1, 31, 100
3, 49536, Note_on_c, 1, 31, 110
3, 49724, Note_off_c, 1, 43, 100
3, 49728, Note_on_c, 1, 43, 110
3, 49916, Note_off_c, 1, 31, 100
3, 49920, Note_on_c, 1, 31, 110
3, 50108, Note_off_c, 1, 43, 100
3, 50112, Note_on_c, 1, 43, 110
3, 50300, Note_off_c, 1, 31, 100
3, 50304, Note_on_c, 1, 31, 110
3, 50492, Note_off_c, 1, 43, 100
3, 50496, Note_on_c, 1, 43, 110
3, 50684, Note_off_c, 1, 31, 100
3, 50684, Note_off_c, 1, 43, 100
3, 50688, Note_on_c, 1, 36, 100
3, 50816, Note_on_c, 1, 43, 100
3, 50940, Note_off_c, 1, 36, 100
3, 50944, Note_on_c, 1, 48, 100
3, 51068, Note_off_c, 1, 43, 100
3, 51072, Note_on_c, 1, 36, 100
3, 51196, Note_off_c, 1, 48, 100
3, 51200, Note_on_c, 1, 43, 100
3, 51324, Note_off_c, 1, 36, 100
3, 51328, Note_on_c, 1, 48, 100
3, 51452, Note_off_c, 1, 43, 100
3, 51456, Note_on_c, 1, 36, 100
3, 51580, Note_off_c, 1, 48, 100
3, 51584, Note_on_c, 1, 43, 100
3, 51708, Note_off_c, 1, 36, 100
3, 51712, Note_on_c, 1, 48, 100
3, 51836, Note_off_c, 1, 43, 100
3, 51840, Note_on_c, 1, 36, 100
3, 51964, Note_off_c, 1, 48, 100
3, 51968, Note_on_c, 1, 43, 100
3, 52092, Note_off_c, 1, 36, 100
3, 52096, Note_on_c, 1, 48, 100
3, 52220, Note_off_c, 1, 43, 100
3, 52224, Note_on_c, 1, 37, 100
3, 52348, Note_off_c, 1, 48, 100
3, 52352, Note_on_c, 1, 41, 100
3, 52476, Note_off_c, 1, 37, 100
3, 52480, Note_on_c, 1, 46, 100
3, 52604, Note_off_c, 1, 41, 100
3, 52608, Note_on_c, 1, 37, 100
3, 52732, Note_off_c, 1, 46, 100
3, 52736, Note_on_c, 1, 41, 100
3, 52860, Note_off_c, 1, 37, 100
3, 52864, Note_on_c, 1, 46, 100
3, 52988, Note_off_c, 1, 41, 100
3, 52992, Note_on_c, 1, 37, 100
3, 53116, Note_off_c, 1, 46, 100
3, 53120, Note_on_c, 1, 41, 100
3, 53244, Note_off_c, 1, 37, 100
3, 53248, Note_on_c, 1, 46, 100
3, 53372, Note_off_c, 1, 41, 100
3, 53376, Note_on_c, 1, 37, 100
3, 53500, Note_off_c, 1, 46, 100
3, 53504, Note_on_c, 1, 41, 100
3, 53628, Note_off_c, 1, 37, 100
3, 53632, Note_on_c, 1, 46, 100
3, 53756, Note_off_c, 1, 41, 100
3, 53756, Note_off_c, 1, 46, 100
3, 53760, Note_on_c, 1, 39, 100
3, 53888, Note_on_c, 1, 43, 100
3, 54012, Note_off_c, 1, 39, 100
3, 54016, Note_on_c, 1, 46, 100
3, 54140, Note_off_c, 1, 43, 100
3, 54144, Note_on_c, 1, 39, 100
3, 54268, Note_off_c, 1, 46, 100
3, 54272, Note_on_c, 1, 43, 100
3, 54396, Note_off_c, 1, 39, 100
3, 54400, Note_on_c, 1, 46, 100
3, 54524, Note_off_c, 1, 43, 100
3, 54528, Note_on_c, 1, 40, 100
3, 54652, Note_off_c, 1, 46, 100
3, 54656, Note_on_c, 1, 43, 100
3, 54780, Note_off_c, 1, 40, 100
3, 54784, Note_on_c, 1, 48, 100
3, 54908, Note_off_c, 1, 43, 100
3, 54912, Note_on_c, 1, 40, 100
3, 55036, Note_off_c, 1, 48, 100
3, 55040, Note_on_c, 1, 43, 100
3, 55164, Note_off_c, 1, 40, 100
3, 55168, Note_on_c, 1, 48, 100
3, 55292, Note_off_c, 1, 43, 100
3, 55292, Note_off_c, 1, 48, 100
3, 55296, Note_on_c, 1, 41, 100
3, 55424, Note_on_c, 1, 44, 100
3, 55548, Note_off_c, 1, 41, 100
3, 55552, Note_on_c, 1, 48, 100
3, 55676, Note_off_c, 1, 44, 100
3, 55680, Note_on_c, 1, 41, 100
3, 55804, Note_off_c, 1, 48, 100
3, 55808, Note_on_c, 1, 44, 100
3, 55932, Note_off_c, 1, 41, 100
3, 55936, Note_on_c, 1, 48, 100
3, 56060, Note_off_c, 1, 44, 100
3, 56064, Note_on_c, 1, 41, 100
3, 56188, Note_off_c, 1, 48, 100
3, 56192, Note_on_c, 1, 44, 100
3, 56316, Note_off_c, 1, 41, 100
3, 56320, Note_on_c, 1, 50, 100
3, 56444, Note_off_c, 1, 44, 100
3, 56448, Note_on_c, 1, 41, 100
3, 56572, Note_off_c, 1, 50, 100
3, 56576, Note_on_c, 1, 44, 100
3, 56700, Note_off_c, 1, 41, 100
3, 56704, Note_on_c, 1, 50, 100
3, 56828, Note_off_c, 1, 44, 100
3, 56828, Note_off_c, 1, 50, 100
3, 56832, Note_on_c, 1, 43, 100
3, 56960, Note_on_c, 1, 46, 100
3, 57084, Note_off_c, 1, 43, 100
3, 57088, Note_on_c, 1, 51, 100
3, 57212, Note_off_c, 1, 46, 100
3, 57216, Note_on_c, 1, 43, 100
3, 57340, Note_off_c, 1, 51, 100
3, 57344, Note_on_c, 1, 46, 100
3, 57468, Note_off_c, 1, 43, 100
3, 57472, Note_on_c, 1, 51, 100
3, 57596, Note_off_c, 1, 46, 100
3, 57600, Note_on_c, 1, 43, 100
3, 57724, Note_off_c, 1, 51, 100
3, 57728, Note_on_c, 1, 46, 100
3, 57852, Note_off_c, 1, 43, 100
3, 57856, Note_on_c, 1, 52, 100
3, 57980, Note_off_c, 1, 46, 100
3, 57984, Note_on_c, 1, 43, 100
3, 58108, Note_off_c, 1, 52, 100
3, 58112, Note_on_c, 1, 46, 100
3, 58236, Note_off_c, 1, 43, 100
3, 58240, Note_on_c, 1, 52, 100
3, 58364, Note_off_c, 1, 46, 100
3, 58364, Note_off_c, 1, 52, 100
3, 58368, Note_on_c, 1, 44, 100
3, 58496, Note_on_c, 1, 48, 100
3, 58620, Note_off_c, 1, 44, 100
3, 58624, Note_on_c, 1, 53, 100
3, 58748, Note_off_c, 1, 48, 100
3, 58752, Note_on_c, 1, 44, 100
3, 58876, Note_off_c, 1, 53, 100
3, 58880, Note_on_c, 1, 48, 100
3, 59004, Note_off_c, 1, 44, 100
3, 59008, Note_on_c, 1, 53, 100
3, 59132, Note_off_c, 1, 48, 100
3, 59136, Note_on_c, 1, 44, 100
3, 59260, Note_off_c, 1, 53, 100
3, 59264, Note_on_c, 1, 48, 100
3, 59388, Note_off_c, 1, 44, 100
3, 59392, Note_on_c, 1, 54, 100
3, 59516, Note_off_c, 1, 48, 100
3, 59520, Note_on_c, 1, 44, 100
3, 59644, Note_off_c, 1, 54, 100
3, 59648, Note_on_c, 1, 48, 100
3, 59772, Note_off_c, 1, 44, 100
3, 59776, Note_on_c, 1, 54, 100
3, 59900, Note_off_c, 1, 48, 100
3, 59900, Note_off_c, 1, 54, 100
3, 59904, Note_on_c, 1, 43, 100
3, 60032, Note_on_c, 1, 48, 100
3, 60156, Note_off_c, 1, 43, 100
3, 60160, Note_on_c, 1, 51, 100
3, 60284, Note_off_c, 1, 48, 100
3, 60288, Note_on_c, 1, 43, 100
3, 60412, Note_off_c, 1, 51, 100
3, 60416, Note_on_c, 1, 48, 100
3, 60540, Note_off_c, 1, 43, 100
3, 60544, Note_on_c, 1, 51, 100
3, 60668, Note_off_c, 1, 48, 100
3, 60672, Note_on_c, 1, 43, 100
3, 60796, Note_off_c, 1, 51, 100
3, 60800, Note_on_c, 1, 48, 100
3, 60924, Note_off_c, 1, 43, 100
3, 60928, Note_on_c, 1, 51, 100
3, 61052, Note_off_c, 1, 48, 100
3, 61056, Note_on_c, 1, 43, 100
3, 61180, Note_off_c, 1, 51, 100
3, 61184, Note_on_c, 1, 48, 100
3, 61308, Note_off_c, 1, 43, 100
3, 61312, Note_on_c, 1, 51, 100
3, 61436, Note_off_c, 1, 48, 100
3, 61436, Note_off_c, 1, 51, 100
3, 61440, Note_on_c, 1, 43, 100
3, 61568, Note_on_c, 1, 47, 100
3, 61692, Note_off_c, 1, 43, 100
3, 61696, Note_on_c, 1, 50, 100
3, 61820, Note_off_c, 1, 47, 100
3, 61824, Note_on_c, 1, 43, 100
3, 61948, Note_off_c, 1, 50, 100
3, 61952, Note_on_c, 1, 47, 100
3, 62076, Note_off_c, 1, 43, 100
3, 62080, Note_on_c, 1, 50, 100
3, 62204, Note_off_c, 1, 47, 100
3, 62208, Note_on_c, 1, 43, 100
3, 62332, Note_off_c, 1, 50, 100
3, 62336, Note_on_c, 1, 47, 100
3, 62460, Note_off_c, 1, 43, 100
3, 62464, Note_on_c, 1, 50, 100
3, 62588, Note_off_c, 1, 47, 100
3, 62592, Note_on_c, 1, 43, 100
3, 62716, Note_off_c, 1, 50, 100
3, 62720, Note_on_c, 1, 47, 100
3, 62844, Note_off_c, 1, 43, 100
3, 62848, Note_on_c, 1, 50, 100
3, 62972, Note_off_c, 1, 47, 100
3, 62972, Note_off_c, 1, 50, 100
3, 62976, Note_on_c, 1, 36, 100
3, 63104, Note_on_c, 1, 43, 100
3, 63228, Note_off_c, 1, 36, 100
3, 63232, Note_on_c, 1, 48, 100
3, 63356, Note_off_c, 1, 43, 100
3, 63360, Note_on_c, 1, 36, 100
3, 63484, Note_off_c, 1, 48, 100
3, 63488, Note_on_c, 1, 43, 100
3, 63612, Note_off_c, 1, 36, 100
3, 63616, Note_on_c, 1, 48, 100
3, 63740, Note_off_c, 1, 43, 100
3, 63744, Note_on_c, 1, 36, 100
3, 63868, Note_off_c, 1, 48, 100
3, 63872, Note_on_c, 1, 43, 100
3, 63996, Note_off_c, 1, 36, 100
3, 64000, Note_on_c, 1, 48, 100
3, 64124, Note_off_c, 1, 43, 100
3, 64128, Note_on_c, 1, 36, 100
3, 64252, Note_off_c, 1, 48, 100
3, 64256, Note_on_c, 1, 43, 100
3, 64380, Note_off_c, 1, 36, 100
3, 64384, Note_on_c, 1, 48, 100
3, 64508, Note_off_c, 1, 43, 100
3, 64512, Note_on_c, 1, 37, 100
3, 64636, Note_off_c, 1, 48, 100
3, 64640, Note_on_c, 1, 41, 100
3, 64764, Note_off_c, 1, 37, 100
3, 64768, Note_on_c, 1, 46, 100
3, 64892, Note_off_c, 1, 41, 100
3, 64896, Note_on_c, 1, 37, 100
3, 65020, Note_off_c, 1, 46, 100
3, 65024, Note_on_c, 1, 41, 100
3, 65148, Note_off_c, 1, 37, 100
3, 65152, Note_on_c, 1, 46, 100
3, 65276, Note_off_c, 1, 41, 100
3, 65280, Note_on_c, 1, 37, 100
3, 65404, Note_off_c, 1, 46, 100
3, 65408, Note_on_c, 1, 41, 100
3, 65532, Note_off_c, 1, 37, 100
3, 65536, Note_on_c, 1, 46, 100
3, 65660, Note_off_c, 1, 41, 100
3, 65664, Note_on_c, 1, 37, 100
3, 65788, Note_off_c, 1, 46, 100
3, 65792, Note_on_c, 1, 41, 100
3, 65916, Note_off_c, 1, 37, 100
3, 65920, Note_on_c, 1, 46, 100
3, 66044, Note_off_c, 1, 41, 100
3, 66044, Note_off_c, 1, 46, 100
3, 66048, Note_on_c, 1, 39, 100
3, 66176, Note_on_c, 1, 43, 100
3, 66300, Note_off_c, 1, 39, 100
3, 66304, Note_on_c, 1, 46, 100
3, 66428, Note_off_c, 1, 43, 100
3, 66432, Note_on_c, 1, 39, 100
3, 66556, Note_off_c, 1, 46, 100
3, 66560, Note_on_c, 1, 43, 100
3, 66684, Note_off_c, 1, 39, 100
3, 66688, Note_on_c, 1, 46, 100
3, 66812, Note_off_c, 1, 43, 100
3, 66816, Note_on_c, 1, 40, 100
3, 66940, Note_off_c, 1, 46, 100
3, 66944, Note_on_c, 1, 43, 100
3, 67068, Note_off_c, 1, 40, 100
3, 67072, Note_on_c, 1, 48, 100
3, 67196, Note_off_c, 1, 43, 100
3, 67200, Note_on_c, 1, 40, 100
3, 67324, Note_off_c, 1, 48, 100
3, 67328, Note_on_c, 1, 43, 100
3, 67452, Note_off_c, 1, 40, 100
3, 67456, Note_on_c, 1, 48, 100
3, 67580, Note_off_c, 1, 43, 100
3, 67580, Note_off_c, 1, 48, 100
3, 67584, Note_on_c, 1, 41, 100
3, 67712, Note_on_c, 1, 44, 100
3, 67836, Note_off_c, 1, 41, 100
3, 67840, Note_on_c, 1, 48, 100
3, 67964, Note_off_c, 1, 44, 100
3, 67968, Note_on_c, 1, 41, 100
3, 68092, Note_off_c, 1, 48, 100
3, 68096, Note_on_c, 1, 44, 100
3, 68220, Note_off_c, 1, 41, 100
3, 68224, Note_on_c, 1, 48, 100
3, 68348, Note_off_c, 1, 44, 100
3, 68352, Note_on_c, 1, 41, 100
3, 68476, Note_off_c, 1, 48, 100
3, 68480, Note_on_c, 1, 44, 100
3, 68604, Note_off_c, 1, 41, 100
3, 68608, Note_on_c, 1, 50, 100
3, 68732, Note_off_c, 1, 44, 100
3, 68736, Note_on_c, 1, 41, 100
3, 68860, Note_off_c, 1, 50, 100
3, 68864, Note_on_c, 1, 44, 100
3, 68988, Note_off_c, 1, 41, 100
3, 68992, Note_on_c, 1, 50, 100
3, 69116, Note_off_c, 1, 44, 100
3, 69116, Note_off_c, 1, 50, 100
3, 69120, Note_on_c, 1, 43, 100
3, 69248, Note_on_c, 1, 46, 100
3, 69372, Note_off_c, 1, 43, 100
3, 69376, Note_on_c, 1, 51, 100
3, 69500, Note_off_c, 1, 46, 100
3, 69504, Note_on_c, 1, 43, 100
3, 69628, Note_off_c, 1, 51, 100
3, 69632, Note_on_c, 1, 46, 100
3, 69756, Note_off_c, 1, 43, 100
3, 69760, Note_on_c, 1, 51, 100
3, 69884, Note_off_c, 1, 46, 100
3, 69888, Note_on_c, 1, 43, 100
3, 70012, Note_off_c, 1, 51, 100
3, 70016, Note_on_c, 1, 46, 100
3, 70140, Note_off_c, 1, 43, 100
3, 70144, Note_on_c, 1, 52, 100
3, 70268, Note_off_c, 1, 46, 100
3, 70272, Note_on_c, 1, 43, 100
3, 70396, Note_off_c, 1, 52, 100
3, 70400, Note_on_c, 1, 46, 100
3, 70524, Note_off_c, 1, 43, 100
3, 70528, Note_on_c, 1, 52, 100
3, 70652, Note_off_c, 1, 46, 100
3, 70652, Note_off_c, 1, 52, 100
3, 70656, Note_on_c, 1, 44, 100
3, 70784, Note_on_c, 1, 48, 100
3, 70908, Note_off_c, 1, 44, 100
3, 70912, Note_on_c, 1, 53, 100
3, 71036, Note_off_c, 1, 48, 100
3, 71040, Note_on_c, 1, 44, 100
3, 71164, Note_off_c, 1, 53, 100
3, 71168, Note_on_c, 1, 48, 100
3, 71292, Note_off_c, 1, 44, 100
3, 71296, Note_on_c, 1, 53, 100
3, 71420, Note_off_c, 1, 48, 100
3, 71424, Note_on_c, 1, 44, 100
3, 71548, Note_off_c, 1, 53, 100
3, 71552, Note_on_c, 1, 48, 100
3, 71676, Note_off_c, 1, 44, 100
3, 71680, Note_on_c, 1, 54, 100
3, 71804, Note_off_c, 1, 48, 100
3, 71808, Note_on_c, 1, 44, 100
3, 71932, Note_off_c, 1, 54, 100
3, 71936, Note_on_c, 1, 48, 100
3, 72060, Note_off_c, 1, 44, 100
3, 72064, Note_on_c, 1, 54, 100
3, 72188, Note_off_c, 1, 48, 100
3, 72188, Note_off_c, 1, 54, 100
3, 72192, Note_on_c, 1, 43, 100
3, 72320, Note_on_c, 1, 48, 100
3, 72444, Note_off_c, 1, 43, 100
3, 72448, Note_on_c, 1, 51, 100
3, 72572, Note_off_c, 1, 48, 100
3, 72576, Note_on_c, 1, 43, 100
3, 72700, Note_off_c, 1, 51, 100
3, 72704, Note_on_c, 1, 48, 100
3, 72828, Note_off_c, 1, 43, 100
3, 72832, Note_on_c, 1, 51, 100
3, 72956, Note_off_c, 1, 48, 100
3, 72960, Note_on_c, 1, 43, 100
3, 73084, Note_off_c, 1, 51, 100
3, 73088, Note_on_c, 1, 48, 100
3, 73212, Note_off_c, 1, 43, 100
3, 73216, Note_on_c, 1, 51, 100
3, 73340, Note_off_c, 1, 48, 100
3, 73344, Note_on_c, 1, 43, 100
3, 73468, Note_off_c, 1, 51, 100
3, 73472, Note_on_c, 1, 48, 100
3, 73596, Note_off_c, 1, 43, 100
3, 73600, Note_on_c, 1, 51, 100
3, 73724, Note_off_c, 1, 48, 100
3, 73724, Note_off_c, 1, 51, 100
3, 73728, Note_on_c, 1, 43, 100
3, 73856, Note_on_c, 1, 47, 100
3, 73980, Note_off_c, 1, 43, 100
3, 73984, Note_on_c, 1, 50, 100
3, 74108, Note_off_c, 1, 47, 100
3, 74112, Note_on_c, 1, 43, 100
3, 74236, Note_off_c, 1, 50, 100
3, 74240, Note_on_c, 1, 47, 100
3, 74364, Note_off_c, 1, 43, 100
3, 74368, Note_on_c, 1, 50, 100
3, 74492, Note_off_c, 1, 47, 100
3, 74496, Note_on_c, 1, 43, 100
3, 74620, Note_off_c, 1, 50, 100
3, 74624, Note_on_c, 1, 47, 100
3, 74748, Note_off_c, 1, 43, 100
3, 74752, Note_on_c, 1, 50, 100
3, 74876, Note_off_c, 1, 47, 100
3, 74880, Note_on_c, 1, 43, 100
3, 75004, Note_off_c, 1, 50, 100
3, 75008, Note_on_c, 1, 47, 100
3, 75132, Note_off_c, 1, 43, 100
3, 75136, Note_on_c, 1, 50, 100
3, 75260, Note_off_c, 1, 47, 100
3, 75260, Note_off_c, 1, 50, 100
3, 75264, Note_on_c, 1, 48, 120
3, 75392, Note_on_c, 1, 51, 120
3, 75516, Note_off_c, 1, 48, 100
3, 75520, Note_on_c, 1, 55, 120
3, 75644, Note_off_c, 1, 51, 100
3, 75648, Note_on_c, 1, 60, 120
3, 75772, Note_off_c, 1, 55, 100
3, 75776, Note_on_c, 1, 63, 120
3, 75900, Note_off_c, 1, 60, 100
3, 75904, Note_on_c, 1, 67, 120
3, 76028, Note_off_c, 1, 63, 100
3, 76032, Note_on_c, 1, 60, 120
3, 76156, Note_off_c, 1, 67, 100
3, 76160, Note_on_c, 1, 63, 120
3, 76284, Note_off_c, 1, 60, 100
3, 76288, Note_on_c, 1, 67, 120
3, 76412, Note_off_c, 1, 63, 100
3, 76416, Note_on_c, 1, 60, 120
3, 76540, Note_off_c, 1, 67, 100
3, 76544, Note_on_c, 1, 63, 120
3, 76668, Note_off_c, 1, 60, 100
3, 76672, Note_on_c, 1, 67, 120
3, 76796, Note_off_c, 1, 63, 100
3, 76796, Note_off_c, 1, 67, 100
3, 76800, Note_on_c, 1, 60, 120
3, 76928, Note_on_c, 1, 67, 120
3, 77052, Note_off_c, 1, 60, 100
3, 77056, Note_on_c, 1, 63, 120
3, 77180, Note_off_c, 1, 67, 100
3, 77184, Note_on_c, 1, 60, 120
3, 77308, Note_off_c, 1, 63, 100
3, 77312, Note_on_c, 1, 55, 120
3, 77436, Note_off_c, 1, 60, 100
3, 77440, Note_on_c, 1, 51, 120
3, 77564, Note_off_c, 1, 55, 100
3, 77568, Note_on_c, 1, 48, 120
3, 77692, Note_off_c, 1, 51, 100
3, 77696, Note_on_c, 1, 51, 120
3, 77820, Note_off_c, 1, 48, 100
3, 77824, Note_on_c, 1, 55, 120
3, 77948, Note_off_c, 1, 51, 100
3, 77952, Note_on_c, 1, 43, 120
3, 78076, Note_off_c, 1, 55, 100
3, 78080, Note_on_c, 1, 50, 120
3, 78204, Note_off_c, 1, 43, 100
3, 78208, Note_on_c, 1, 55, 120
3, 78332, Note_off_c, 1, 50, 100
3, 78332, Note_off_c, 1, 55, 100
3, 78336, Note_on_c, 1, 48, 120
3, 78464, Note_on_c, 1, 51, 120
3, 78588, Note_off_c, 1, 48, 100
3, 78592, Note_on_c, 1, 55, 120
3, 78716, Note_off_c, 1, 51, 100
3, 78720, Note_on_c, 1, 60, 120
3, 78844, Note_off_c, 1, 55, 100
3, 78848, Note_on_c, 1, 63, 120
3, 78972, Note_off_c, 1, 60, 100
3, 78976, Note_on_c, 1, 67, 120
3, 79100, Note_off_c, 1, 63, 100
3, 79104, Note_on_c, 1, 60, 120
3, 79228, Note_off_c, 1, 67, 100
3, 79232, Note_on_c, 1, 63, 120
3, 79356, Note_off_c, 1, 60, 100
3, 79360, Note_on_c, 1, 67, 120
3, 79484, Note_off_c, 1, 63, 100
3, 79488, Note_on_c, 1, 60, 120
3, 79612, Note_off_c, 1, 67, 100
3, 79616, Note_on_c, 1, 63, 120
3, 79740, Note_off_c, 1, 60, 100
3, 79744, Note_on_c, 1, 67, 120
3, 79868, Note_off_c, 1, 63, 100
3, 79868, Note_off_c, 1, 67, 100
3, 79872, Note_on_c, 1, 60, 120
3, 80000, Note_on_c, 1, 67, 120
3, 80124, Note_off_c, 1, 60, 100
3, 80128, Note_on_c, 1, 63, 120
3, 80252, Note_off_c, 1, 67, 100
3, 80256, Note_on_c, 1, 60, 120
3, 80380, Note_off_c, 1, 63, 100
3, 80384, Note_on_c, 1, 55, 120
3, 80508, Note_off_c, 1, 60, 100
3, 80512, Note_on_c, 1, 51, 120
3, 80636, Note_off_c, 1, 55, 100
3, 80640, Note_on_c, 1, 48, 120
3, 80764, Note_off_c, 1, 51, 100
3, 80768, Note_on_c, 1, 51, 120
3, 80892, Note_off_c, 1, 48, 100
3, 80896, Note_on_c, 1, 55, 120
3, 81020, Note_off_c, 1, 51, 100
3, 81024, Note_on_c, 1, 43, 120
3, 81148, Note_off_c, 1, 55, 100
3, 81152, Note_on_c, 1, 50, 120
3, 81276, Note_off_c, 1, 43, 100
3, 81280, Note_on_c, 1, 55, 120
3, 81404, Note_off_c, 1, 50, 100
3, 81404, Note_off_c, 1, 55, 100
3, 81408, Note_on_c, 1, 48, 120
3, 81536, Note_on_c, 1, 51, 120
3, 81660, Note_off_c, 1, 48, 100
3, 81664, Note_on_c, 1, 55, 120
3, 81788, Note_off_c, 1, 51, 100
3, 81792, Note_on_c, 1, 60, 120
3, 81916, Note_off_c, 1, 55, 100
3, 81920, Note_on_c, 1, 55, 120
3, 82044, Note_off_c, 1, 60, 100
3, 82048, Note_on_c, 1, 51, 120
3, 82172, Note_off_c, 1, 55, 100
3, 82176, Note_on_c, 1, 48, 120
3, 82300, Note_off_c, 1, 51, 100
3, 82304, Note_on_c, 1, 51, 120
3, 82428, Note_off_c, 1, 48, 100
3, 82432, Note_on_c, 1, 55, 120
3, 82556, Note_off_c, 1, 51, 100
3, 82560, Note_on_c, 1, 43, 120
3, 82684, Note_off_c, 1, 55, 100
3, 82688, Note_on_c, 1, 50, 120
3, 82812, Note_off_c, 1, 43, 100
3, 82816, Note_on_c, 1, 55, 120
3, 82940, Note_off_c, 1, 50, 100
3, 82940, Note_off_c, 1, 55, 100
3, 82944, Note_on_c, 1, 48, 120
3, 83072, Note_on_c, 1, 51, 120
3, 83196, Note_off_c, 1, 48, 100
3, 83200, Note_on_c, 1, 55, 120
3, 83324, Note_off_c, 1, 51, 100
3, 83328, Note_on_c, 1, 60, 120
3, 83452, Note_off_c, 1, 55, 100
3, 83456, Note_on_c, 1, 55, 120
3, 83580, Note_off_c, 1, 60, 100
3, 83584, Note_on_c, 1, 51, 120
3, 83708, Note_off_c, 1, 55, 100
3, 83712, Note_on_c, 1, 48, 120
3, 83836, Note_off_c, 1, 51, 100
3, 83840, Note_on_c, 1, 51, 120
3, 83964, Note_off_c, 1, 48, 100
3, 83968, Note_on_c, 1, 55, 120
3, 84092, Note_off_c, 1, 51, 100
3, 84096, Note_on_c, 1, 60, 120
3, 84220, Note_off_c, 1, 55, 100
3, 84224, Note_on_c, 1, 55, 120
3, 84348, Note_off_c, 1, 60, 100
3, 84352, Note_on_c, 1, 51, 120
3, 84476, Note_off_c, 1, 55, 100
3, 84476, Note_off_c, 1, 51, 100
3, 84480, Note_on_c, 1, 48, 120
3, 84608, Note_on_c, 1, 51, 120
3, 84732, Note_off_c, 1, 48, 100
3, 84736, Note_on_c, 1, 55, 119
3, 84860, Note_off_c, 1, 51, 100
3, 84864, Note_on_c, 1, 60, 118
3, 84988, Note_off_c, 1, 55, 100
3, 84992, Note_on_c, 1, 55, 117
3, 85116, Note_off_c, 1, 60, 100
3, 85120, Note_on_c, 1, 51, 116
3, 85244, Note_off_c, 1, 55, 100
3, 85248, Note_on_c, 1, 48, 115
3, 85372, Note_off_c, 1, 51, 100
3, 85376, Note_on_c, 1, 52, 115
3, 85500, Note_off_c, 1, 48, 100
3, 85504, Note_on_c, 1, 55, 114
3, 85628, Note_off_c, 1, 52, 100
3, 85632, Note_on_c, 1, 60, 113
3, 85756, Note_off_c, 1, 55, 100
3, 85760, Note_on_c, 1, 55, 112
3, 85884, Note_off_c, 1, 60, 100
3, 85888, Note_on_c, 1, 52, 111
3, 86012, Note_off_c, 1, 55, 100
3, 86012, Note_off_c, 1, 52, 100
3, 86016, Note_on_c, 1, 53, 80
3, 86144, Note_on_c, 1, 56, 80
3, 86268, Note_off_c, 1, 53, 100
3, 86272, Note_on_c, 1, 60, 80
3, 86396, Note_off_c, 1, 56, 100
3, 86400, Note_on_c, 1, 53, 80
3, 86524, Note_off_c, 1, 60, 100
3, 86528, Note_on_c, 1, 56, 80
3, 86652, Note_off_c, 1, 53, 100
3, 86656, Note_on_c, 1, 60, 80
3, 86780, Note_off_c, 1, 56, 100
3, 86784, Note_on_c, 1, 53, 80
3, 86908, Note_off_c, 1, 60, 100
3, 86912, Note_on_c, 1, 56, 80
3, 87036, Note_off_c, 1, 53, 100
3, 87040, Note_on_c, 1, 60, 80
3, 87164, Note_off_c, 1, 56, 100
3, 87168, Note_on_c, 1, 53, 80
3, 87292, Note_off_c, 1, 60, 100
3, 87296, Note_on_c, 1, 58, 80
3, 87420, Note_off_c, 1, 53, 100
3, 87424, Note_on_c, 1, 61, 80
3, 87548, Note_off_c, 1, 58, 100
3, 87548, Note_off_c, 1, 61, 100
3, 87552, Note_on_c, 1, 53, 80
3, 87680, Note_on_c, 1, 60, 80
3, 87804, Note_off_c, 1, 53, 100
3, 87808, Note_on_c, 1, 56, 80
3, 87932, Note_off_c, 1, 60, 100
3, 87936, Note_on_c, 1, 53, 80
3, 88060, Note_off_c, 1, 56, 100
3, 88064, Note_on_c, 1, 48, 80
3, 88188, Note_off_c, 1, 53, 100
3, 88192, Note_on_c, 1, 44, 80
3, 88316, Note_off_c, 1, 48, 100
3, 88320, Note_on_c, 1, 41, 100
3, 88444, Note_off_c, 1, 44, 100
3, 88448, Note_on_c, 1, 44, 100
3, 88572, Note_off_c, 1, 41, 100
3, 88576, Note_on_c, 1, 48, 100
3, 88700, Note_off_c, 1, 44, 100
3, 88704, Note_on_c, 1, 40, 100
3, 88828, Note_off_c, 1, 48, 100
3, 88832, Note_on_c, 1, 43, 100
3, 88956, Note_off_c, 1, 40, 100
3, 88960, Note_on_c, 1, 48, 100
3, 89084, Note_off_c, 1, 43, 100
3, 89084, Note_off_c, 1, 48, 100
3, 89088, Note_on_c, 1, 41, 100
3, 89216, Note_on_c, 1, 44, 100
3, 89340, Note_off_c, 1, 41, 100
3, 89344, Note_on_c, 1, 48, 100
3, 89468, Note_off_c, 1, 44, 100
3, 89472, Note_on_c, 1, 53, 100
3, 89596, Note_off_c, 1, 48, 100
3, 89600, Note_on_c, 1, 56, 100
3, 89724, Note_off_c, 1, 53, 100
3, 89728, Note_on_c, 1, 60, 100
3, 89852, Note_off_c, 1, 56, 100
3, 89856, Note_on_c, 1, 53, 80
3, 89980, Note_off_c, 1, 60, 100
3, 89984, Note_on_c, 1, 56, 80
3, 90108, Note_off_c, 1, 53, 100
3, 90112, Note_on_c, 1, 60, 80
3, 90236, Note_off_c, 1, 56, 100
3, 90240, Note_on_c, 1, 53, 80
3, 90364, Note_off_c, 1, 60, 100
3, 90368, Note_on_c, 1, 58, 80
3, 90492, Note_off_c, 1, 53, 100
3, 90496, Note_on_c, 1, 61, 80
3, 90620, Note_off_c, 1, 58, 100
3, 90620, Note_off_c, 1, 61, 100
3, 90624, Note_on_c, 1, 53, 80
3, 90752, Note_on_c, 1, 60, 80
3, 90876, Note_off_c, 1, 53, 100
3, 90880, Note_on_c, 1, 56, 80
3, 91004, Note_off_c, 1, 60, 100
3, 91008, Note_on_c, 1, 53, 80
3, 91132, Note_off_c, 1, 56, 100
3, 91136, Note_on_c, 1, 48, 80
3, 91260, Note_off_c, 1, 53, 100
3, 91264, Note_on_c, 1, 44, 80
3, 91388, Note_off_c, 1, 48, 100
3, 91392, Note_on_c, 1, 41, 100
3, 91516, Note_off_c, 1, 44, 100
3, 91520, Note_on_c, 1, 44, 100
3, 91644, Note_off_c, 1, 41, 100
3, 91648, Note_on_c, 1, 48, 100
3, 91772, Note_off_c, 1, 44, 100
3, 91776, Note_on_c, 1, 40, 100
3, 91900, Note_off_c, 1, 48, 100
3, 91904, Note_on_c, 1, 43, 100
3, 92028, Note_off_c, 1, 40, 100
3, 92032, Note_on_c, 1, 48, 100
3, 92156, Note_off_c, 1, 43, 100
3, 92156, Note_off_c, 1, 48, 100
3, 92160, Note_on_c, 1, 41, 100
3, 92288, Note_on_c, 1, 44, 100
3, 92412, Note_off_c, 1, 41, 100
3, 92416, Note_on_c, 1, 48, 100
3, 92540, Note_off_c, 1, 44, 100
3, 92544, Note_on_c, 1, 53, 100
3, 92668, Note_off_c, 1, 48, 100
3, 92672, Note_on_c, 1, 56, 100
3, 92796, Note_off_c, 1, 53, 100
3, 92800, Note_on_c, 1, 60, 100
3, 92924, Note_off_c, 1, 56, 100
3, 92924, Note_off_c, 1, 60, 100
3, 92928, Note_on_c, 1, 61, 80
3, 92928, Note_on_c, 1, 55, 80
3, 93308, Note_off_c, 1, 61, 100
3, 93312, Note_on_c, 1, 58, 80
3, 93692, Note_off_c, 1, 55, 100
3, 93692, Note_off_c, 1, 58, 100
3, 93696, Note_on_c, 1, 56, 80
3, 93696, Note_on_c, 1, 60, 80
3, 94460, Note_off_c, 1, 56, 100
3, 94460, Note_off_c, 1, 60, 100
3, 94464, Note_on_c, 1, 61, 80
3, 94464, Note_on_c, 1, 55, 80
3, 94844, Note_off_c, 1, 61, 100
3, 94848, Note_on_c, 1, 58, 80
3, 95228, Note_off_c, 1, 55, 100
3, 95228, Note_off_c, 1, 58, 100
3, 95232, Note_on_c, 1, 56, 80
3, 95232, Note_on_c, 1, 60, 80
3, 95996, Note_off_c, 1, 56, 100
3, 95996, Note_off_c, 1, 60, 100
3, 96000, Note_on_c, 1, 55, 80
3, 96000, Note_on_c, 1, 61, 80
3, 96380, Note_off_c, 1, 61, 100
3, 96384, Note_on_c, 1, 58, 80
3, 96764, Note_off_c, 1, 55, 100
3, 96764, Note_off_c, 1, 58, 100
3, 96768, Note_on_c, 1, 60, 80
3, 96768, Note_on_c, 1, 56, 80
3, 97148, Note_off_c, 1, 60, 100
3, 97148, Note_off_c, 1, 56, 100
3, 97152, Note_on_c, 1, 55, 80
3, 97152, Note_on_c, 1, 52, 80
3, 97532, Note_off_c, 1, 55, 100
3, 97532, Note_off_c, 1, 52, 100
3, 97536, Note_on_c, 1, 56, 80
3, 97536, Note_on_c, 1, 53, 80
3, 97916, Note_off_c, 1, 56, 100
3, 97916, Note_off_c, 1, 53, 100
3, 97920, Note_on_c, 1, 53, 80
3, 97920, Note_on_c, 1, 49, 80
3, 98300, Note_off_c, 1, 53, 100
3, 98300, Note_off_c, 1, 49, 100
3, 98304, Note_on_c, 1, 52, 80
3, 98304, Note_on_c, 1, 48, 80
3, 98684, Note_off_c, 1, 52, 100
3, 98684, Note_off_c, 1, 48, 100
3, 98688, Note_on_c, 1, 60, 80
3, 99068, Note_off_c, 1, 60, 100
3, 99072, Note_on_c, 1, 64, 80
3, 99072, Note_on_c, 1, 70, 80
3, 99452, Note_off_c, 1, 70, 100
3, 99456, Note_on_c, 1, 67, 80
3, 99836, Note_off_c, 1, 64, 100
3, 99836, Note_off_c, 1, 67, 100
3, 99840, Note_on_c, 1, 65, 80
3, 99840, Note_on_c, 1, 68, 80
3, 100604, Note_off_c, 1, 65, 100
3, 100604, Note_off_c, 1, 68, 100
3, 100608, Note_on_c, 1, 64, 80
3, 100608, Note_on_c, 1, 70, 80
3, 100988, Note_off_c, 1, 70, 100
3, 100992, Note_on_c, 1, 67, 80
3, 101372, Note_off_c, 1, 64, 100
3, 101372, Note_off_c, 1, 67, 100
3, 101376, Note_on_c, 1, 65, 80
3, 101376, Note_on_c, 1, 68, 80
3, 102140, Note_off_c, 1, 65, 100
3, 102140, Note_off_c, 1, 68, 100
3, 102144, Note_on_c, 1, 52, 80
3, 102144, Note_on_c, 1, 58, 80
3, 102524, Note_off_c, 1, 58, 100
3, 102528, Note_on_c, 1, 55, 80
3, 102908, Note_off_c, 1, 52, 100
3, 102908, Note_off_c, 1, 55, 100
3, 102912, Note_on_c, 1, 56, 100
3, 102912, Note_on_c, 1, 53, 100
3, 103292, Note_off_c, 1, 56, 100
3, 103292, Note_off_c, 1, 53, 100
3, 103296, Note_on_c, 1, 56, 95
3, 103296, Note_on_c, 1, 53, 95
3, 104060, Note_off_c, 1, 56, 100
3, 104060, Note_off_c, 1, 53, 100
3, 104064, Note_on_c, 1, 57, 83
3, 104064, Note_on_c, 1, 54, 83
3, 104444, Note_off_c, 1, 57, 100
3, 104444, Note_off_c, 1, 54, 100
3, 104448, Note_on_c, 1, 55, 80
3, 104576, Note_on_c, 1, 59, 80
3, 104700, Note_off_c, 1, 55, 100
3, 104704, Note_on_c, 1, 62, 80
3, 104828, Note_off_c, 1, 59, 100
3, 104832, Note_on_c, 1, 55, 80
3, 104956, Note_off_c, 1, 62, 100
3, 104960, Note_on_c, 1, 59, 80
3, 105084, Note_off_c, 1, 55, 100
3, 105088, Note_on_c, 1, 62, 80
3, 105212, Note_off_c, 1, 59, 100
3, 105216, Note_on_c, 1, 55, 80
3, 105340, Note_off_c, 1, 62, 100
3, 105344, Note_on_c, 1, 58, 80
3, 105468, Note_off_c, 1, 55, 100
3, 105472, Note_on_c, 1, 61, 80
3, 105596, Note_off_c, 1, 58, 100
3, 105600, Note_on_c, 1, 55, 80
3, 105724, Note_off_c, 1, 61, 100
3, 105728, Note_on_c, 1, 60, 80
3, 105852, Note_off_c, 1, 55, 100
3, 105856, Note_on_c, 1, 63, 80
3, 105980, Note_off_c, 1, 60, 100
3, 105980, Note_off_c, 1, 63, 100
3, 105984, Note_on_c, 1, 55, 80
3, 106112, Note_on_c, 1, 62, 80
3, 106236, Note_off_c, 1, 55, 100
3, 106240, Note_on_c, 1, 59, 80
3, 106364, Note_off_c, 1, 62, 100
3, 106368, Note_on_c, 1, 55, 80
3, 106492, Note_off_c, 1, 59, 100
3, 106496, Note_on_c, 1, 50, 80
3, 106620, Note_off_c, 1, 55, 100
3, 106624, Note_on_c, 1, 47, 80
3, 106748, Note_off_c, 1, 50, 100
3, 106752, Note_on_c, 1, 43, 100
3, 106876, Note_off_c, 1, 47, 100
3, 106880, Note_on_c, 1, 47, 100
3, 107004, Note_off_c, 1, 43, 100
3, 107008, Note_on_c, 1, 50, 100
3, 107132, Note_off_c, 1, 47, 100
3, 107136, Note_on_c, 1, 43, 100
3, 107260, Note_off_c, 1, 50, 100
3, 107264, Note_on_c, 1, 47, 100
3, 107388, Note_off_c, 1, 43, 100
3, 107392, Note_on_c, 1, 50, 100
3, 107516, Note_off_c, 1, 47, 100
3, 107516, Note_off_c, 1, 50, 100
3, 107520, Note_on_c, 1, 43, 100
3, 107648, Note_on_c, 1, 47, 100
3, 107772, Note_off_c, 1, 43, 100
3, 107776, Note_on_c, 1, 50, 100
3, 107900, Note_off_c, 1, 47, 100
3, 107904, Note_on_c, 1, 55, 100
3, 108028, Note_off_c, 1, 50, 100
3, 108032, Note_on_c, 1, 59, 100
3, 108156, Note_off_c, 1, 55, 100
3, 108160, Note_on_c, 1, 62, 100
3, 108284, Note_off_c, 1, 59, 100
3, 108288, Note_on_c, 1, 55, 100
3, 108412, Note_off_c, 1, 62, 100
3, 108416, Note_on_c, 1, 58, 100
3, 108540, Note_off_c, 1, 55, 100
3, 108544, Note_on_c, 1, 61, 100
3, 108668, Note_off_c, 1, 58, 100
3, 108672, Note_on_c, 1, 55, 100
3, 108796, Note_off_c, 1, 61, 100
3, 108800, Note_on_c, 1, 60, 100
3, 108924, Note_off_c, 1, 55, 100
3, 108928, Note_on_c, 1, 63, 100
3, 109052, Note_off_c, 1, 60, 100
3, 109052, Note_off_c, 1, 63, 100
3, 109056, Note_on_c, 1, 55, 100
3, 109184, Note_on_c, 1, 62, 100
3, 109308, Note_off_c, 1, 55, 100
3, 109312, Note_on_c, 1, 59, 100
3, 109436, Note_off_c, 1, 62, 100
3, 109440, Note_on_c, 1, 55, 100
3, 109564, Note_off_c, 1, 59, 100
3, 109568, Note_on_c, 1, 50, 100
3, 109692, Note_off_c, 1, 55, 100
3, 109696, Note_on_c, 1, 47, 100
3, 109820, Note_off_c, 1, 50, 100
3, 109824, Note_on_c, 1, 43, 120
3, 109948, Note_off_c, 1, 47, 100
3, 109952, Note_on_c, 1, 47, 120
3, 110076, Note_off_c, 1, 43, 100
3, 110080, Note_on_c, 1, 50, 120
3, 110204, Note_off_c, 1, 47, 100
3, 110208, Note_on_c, 1, 43, 120
3, 110332, Note_off_c, 1, 50, 100
3, 110336, Note_on_c, 1, 47, 120
3, 110460, Note_off_c, 1, 43, 100
3, 110464, Note_on_c, 1, 49, 120
3, 110588, Note_off_c, 1, 47, 100
3, 110588, Note_off_c, 1, 49, 100
3, 110592, Note_on_c, 1, 43, 120
3, 110720, Note_on_c, 1, 47, 120
3, 110844, Note_off_c, 1, 43, 100
3, 110848, Note_on_c, 1, 50, 120
3, 110972, Note_off_c, 1, 47, 100
3, 110976, Note_on_c, 1, 55, 120
3, 111100, Note_off_c, 1, 50, 100
3, 111104, Note_on_c, 1, 50, 120
3, 111228, Note_off_c, 1, 55, 100
3, 111232, Note_on_c, 1, 47, 120
3, 111356, Note_off_c, 1, 50, 100
3, 111360, Note_on_c, 1, 43, 120
3, 111484, Note_off_c, 1, 47, 100
3, 111488, Note_on_c, 1, 47, 120
3, 111612, Note_off_c, 1, 43, 100
3, 111616, Note_on_c, 1, 50, 120
3, 111740, Note_off_c, 1, 47, 100
3, 111744, Note_on_c, 1, 43, 120
3, 111868, Note_off_c, 1, 50, 100
3, 111872, Note_on_c, 1, 47, 120
3, 111996, Note_off_c, 1, 43, 100
3, 112000, Note_on_c, 1, 50, 120
3, 112124, Note_off_c, 1, 47, 100
3, 112124, Note_off_c, 1, 50, 100
3, 112128, Note_on_c, 1, 43, 120
3, 112256, Note_on_c, 1, 47, 120
3, 112380, Note_off_c, 1, 43, 100
3, 112384, Note_on_c, 1, 50, 120
3, 112508, Note_off_c, 1, 47, 100
3, 112512, Note_on_c, 1, 55, 120
3, 112636, Note_off_c, 1, 50, 100
3, 112640, Note_on_c, 1, 50, 120
3, 112764, Note_off_c, 1, 55, 100
3, 112768, Note_on_c, 1, 47, 120
3, 112892, Note_off_c, 1, 50, 100
3, 112896, Note_on_c, 1, 43, 120
3, 113020, Note_off_c, 1, 47, 100
3, 113024, Note_on_c, 1, 47, 120
3, 113148, Note_off_c, 1, 43, 100
3, 113152, Note_on_c, 1, 50, 120
3, 113276, Note_off_c, 1, 47, 100
3, 113280, Note_on_c, 1, 43, 120
3, 113404, Note_off_c, 1, 50, 100
3, 113408, Note_on_c, 1, 47, 120
3, 113532, Note_off_c, 1, 43, 100
3, 113536, Note_on_c, 1, 50, 120
3, 113660, Note_off_c, 1, 47, 100
3, 113660, Note_off_c, 1, 50, 100
3, 113664, Note_on_c, 1, 43, 120
3, 113792, Note_on_c, 1, 47, 120
3, 113916, Note_off_c, 1, 43, 100
3, 113920, Note_on_c, 1, 50, 120
3, 114044, Note_off_c, 1, 47, 100
3, 114048, Note_on_c, 1, 55, 120
3, 114172, Note_off_c, 1, 50, 100
3, 114176, Note_on_c, 1, 50, 120
3, 114300, Note_off_c, 1, 55, 100
3, 114304, Note_on_c, 1, 47, 120
3, 114428, Note_off_c, 1, 50, 100
3, 114432, Note_on_c, 1, 43, 120
3, 114556, Note_off_c, 1, 47, 100
3, 114560, Note_on_c, 1, 47, 120
3, 114684, Note_off_c, 1, 43, 100
3, 114688, Note_on_c, 1, 50, 120
3, 114812, Note_off_c, 1, 47, 100
3, 114816, Note_on_c, 1, 55, 120
3, 114940, Note_off_c, 1, 50, 100
3, 114944, Note_on_c, 1, 50, 120
3, 115068, Note_off_c, 1, 55, 100
3, 115072, Note_on_c, 1, 47, 120
3, 115196, Note_off_c, 1, 50, 100
3, 115196, Note_off_c, 1, 47, 100
3, 115200, Note_on_c, 1, 43, 120
3, 115964, Note_off_c, 1, 43, 100
3, 117632, Note_on_c, 1, 56, 120
3, 117760, Note_on_c, 1, 55, 120
3, 117884, Note_off_c, 1, 56, 100
3, 117888, Note_on_c, 1, 53, 120
3, 118012, Note_off_c, 1, 55, 100
3, 118016, Note_on_c, 1, 51, 120
3, 118140, Note_off_c, 1, 53, 100
3, 118144, Note_on_c, 1, 50, 120
3, 118268, Note_off_c, 1, 51, 100
3, 118268, Note_off_c, 1, 50, 100
3, 118272, Note_on_c, 1, 48, 120
3, 118652, Note_off_c, 1, 48, 100
3, 118656, Note_on_c, 1, 56, 120
3, 119036, Note_off_c, 1, 56, 100
3, 119040, Note_on_c, 1, 55, 120
3, 119420, Note_off_c, 1, 55, 100
3, 119424, Note_on_c, 1, 54, 120
3, 119804, Note_off_c, 1, 54, 100
3, 119808, Note_on_c, 1, 55, 120
3, 120188, Note_off_c, 1, 55, 100
3, 120192, Note_on_c, 1, 56, 120
3, 120572, Note_off_c, 1, 56, 100
3, 120576, Note_on_c, 1, 55, 120
3, 120956, Note_off_c, 1, 55, 100
3, 120960, Note_on_c, 1, 54, 120
3, 121340, Note_off_c, 1, 54, 100
3, 121344, Note_on_c, 1, 55, 110
3, 121472, Note_on_c, 1, 60, 110
3, 121596, Note_off_c, 1, 55, 100
3, 121600, Note_on_c, 1, 63, 110
3, 121724, Note_off_c, 1, 60, 100
3, 121728, Note_on_c, 1, 56, 110
3, 121852, Note_off_c, 1, 63, 100
3, 121856, Note_on_c, 1, 60, 110
3, 121980, Note_off_c, 1, 56, 100
3, 121984, Note_on_c, 1, 63, 110
3, 122108, Note_off_c, 1, 60, 100
3, 122112, Note_on_c, 1, 55, 110
3, 122236, Note_off_c, 1, 63, 100
3, 122240, Note_on_c, 1, 60, 110
3, 122364, Note_off_c, 1, 55, 100
3, 122368, Note_on_c, 1, 63, 110
3, 122492, Note_off_c, 1, 60, 100
3, 122496, Note_on_c, 1, 54, 110
3, 122620, Note_off_c, 1, 63, 100
3, 122624, Note_on_c, 1, 60, 110
3, 122748, Note_off_c, 1, 54, 100
3, 122752, Note_on_c, 1, 63, 110
3, 122876, Note_off_c, 1, 60, 100
3, 122876, Note_off_c, 1, 63, 100
3, 122880, Note_on_c, 1, 55, 110
3, 123008, Note_on_c, 1, 60, 110
3, 123132, Note_off_c, 1, 55, 100
3, 123136, Note_on_c, 1, 63, 110
3, 123260, Note_off_c, 1, 60, 100
3, 123264, Note_on_c, 1, 56, 110
3, 123388, Note_off_c, 1, 63, 100
3, 123392, Note_on_c, 1, 60, 110
3, 123516, Note_off_c, 1, 56, 100
3, 123520, Note_on_c, 1, 63, 110
3, 123644, Note_off_c, 1, 60, 100
3, 123648, Note_on_c, 1, 55, 110
3, 123772, Note_off_c, 1, 63, 100
3, 123776, Note_on_c, 1, 60, 110
3, 123900, Note_off_c, 1, 55, 100
3, 123904, Note_on_c, 1, 63, 110
3, 124028, Note_off_c, 1, 60, 100
3, 124032, Note_on_c, 1, 54, 110
3, 124156, Note_off_c, 1, 63, 100
3, 124160, Note_on_c, 1, 60, 110
3, 124284, Note_off_c, 1, 54, 100
3, 124288, Note_on_c, 1, 63, 110
3, 124412, Note_off_c, 1, 60, 100
3, 124412, Note_off_c, 1, 63, 100
3, 124416, Note_on_c, 1, 55, 110
3, 124544, Note_on_c, 1, 60, 110
3, 124668, Note_off_c, 1, 55, 100
3, 124672, Note_on_c, 1, 63, 110
3, 124796, Note_off_c, 1, 60, 100
3, 124800, Note_on_c, 1, 56, 110
3, 124924, Note_off_c, 1, 63, 100
3, 124992, Note_on_c, 1, 68, 110
3, 125180, Note_off_c, 1, 56, 100
3, 125184, Note_on_c, 1, 56, 110
3, 125372, Note_off_c, 1, 68, 100
3, 125376, Note_on_c, 1, 65, 110
3, 125564, Note_off_c, 1, 56, 100
3, 125568, Note_on_c, 1, 55, 110
3, 125756, Note_off_c, 1, 65, 100
3, 125760, Note_on_c, 1, 67, 110
3, 125948, Note_off_c, 1, 55, 100
3, 125948, Note_off_c, 1, 67, 100
3, 125952, Note_on_c, 1, 52, 110
3, 126144, Note_on_c, 1, 64, 110
3, 126332, Note_off_c, 1, 52, 100
3, 126336, Note_on_c, 1, 53, 110
3, 126524, Note_off_c, 1, 64, 100
3, 126528, Note_on_c, 1, 65, 110
3, 126716, Note_off_c, 1, 53, 100
3, 126720, Note_on_c, 1, 47, 110
3, 126908, Note_off_c, 1, 65, 100
3, 126912, Note_on_c, 1, 59, 110
3, 127100, Note_off_c, 1, 47, 100
3, 127104, Note_on_c, 1, 48, 110
3, 127292, Note_off_c, 1, 59, 100
3, 127296, Note_on_c, 1, 60, 110
3, 127484, Note_off_c, 1, 48, 100
3, 127484, Note_off_c, 1, 60, 100
3, 127488, Note_on_c, 1, 38, 110
3, 127680, Note_on_c, 1, 50, 110
3, 127868, Note_off_c, 1, 38, 100
3, 127872, Note_on_c, 1, 39, 110
3, 128060, Note_off_c, 1, 50, 100
3, 128064, Note_on_c, 1, 51, 110
3, 128252, Note_off_c, 1, 39, 100
3, 128256, Note_on_c, 1, 41, 110
3, 128444, Note_off_c, 1, 51, 100
3, 128448, Note_on_c, 1, 53, 110
3, 128636, Note_off_c, 1, 41, 100
3, 128640, Note_on_c, 1, 42, 110
3, 128828, Note_off_c, 1, 53, 100
3, 128832, Note_on_c, 1, 54, 110
3, 129020, Note_off_c, 1, 42, 100
3, 129020, Note_off_c, 1, 54, 100
3, 129024, Note_on_c, 1, 43, 110
3, 129216, Note_on_c, 1, 55, 110
3, 129404, Note_off_c, 1, 43, 100
3, 129408, Note_on_c, 1, 43, 110
3, 129596, Note_off_c, 1, 55, 100
3, 129600, Note_on_c, 1, 55, 110
3, 129788, Note_off_c, 1, 43, 100
3, 129792, Note_on_c, 1, 43, 110
3, 129980, Note_off_c, 1, 55, 100
3, 129984, Note_on_c, 1, 55, 110
3, 130172, Note_off_c, 1, 43, 100
3, 130176, Note_on_c, 1, 43, 110
3, 130364, Note_off_c, 1, 55, 100
3, 130368, Note_on_c, 1, 55, 110
3, 130556, Note_off_c, 1, 43, 100
3, 130556, Note_off_c, 1, 55, 100
3, 130560, Note_on_c, 1, 48, 110
3, 130940, Note_off_c, 1, 48, 100
3, 130944, Note_on_c, 1, 56, 110
3, 131136, Note_on_c, 1, 60, 110
3, 131324, Note_off_c, 1, 56, 100
3, 131328, Note_on_c, 1, 53, 110
3, 131516, Note_off_c, 1, 60, 100
3, 131520, Note_on_c, 1, 56, 110
3, 131708, Note_off_c, 1, 53, 100
3, 131712, Note_on_c, 1, 55, 110
3, 131900, Note_off_c, 1, 56, 100
3, 131904, Note_on_c, 1, 58, 110
3, 132092, Note_off_c, 1, 55, 100
3, 132096, Note_on_c, 1, 52, 110
3, 132284, Note_off_c, 1, 58, 100
3, 132288, Note_on_c, 1, 55, 110
3, 132476, Note_off_c, 1, 52, 100
3, 132480, Note_on_c, 1, 53, 110
3, 132668, Note_off_c, 1, 55, 100
3, 132672, Note_on_c, 1, 56, 110
3, 132860, Note_off_c, 1, 53, 100
3, 132864, Note_on_c, 1, 47, 110
3, 133052, Note_off_c, 1, 56, 100
3, 133056, Note_on_c, 1, 50, 110
3, 133244, Note_off_c, 1, 47, 100
3, 133248, Note_on_c, 1, 48, 110
3, 133436, Note_off_c, 1, 50, 100
3, 133440, Note_on_c, 1, 51, 110
3, 133628, Note_off_c, 1, 48, 100
3, 133628, Note_off_c, 1, 51, 100
3, 133632, Note_on_c, 1, 38, 110
3, 134012, Note_off_c, 1, 38, 100
3, 134016, Note_on_c, 1, 39, 110
3, 134396, Note_off_c, 1, 39, 100
3, 134400, Note_on_c, 1, 41, 110
3, 134780, Note_off_c, 1, 41, 100
3, 134784, Note_on_c, 1, 42, 110
3, 135164, Note_off_c, 1, 42, 100
3, 135168, Note_on_c, 1, 31, 110
3, 135360, Note_on_c, 1, 43, 110
3, 135548, Note_off_c, 1, 31, 100
3, 135552, Note_on_c, 1, 31, 110
3, 135740, Note_off_c, 1, 43, 100
3, 135744, Note_on_c, 1, 43, 110
3, 135932, Note_off_c, 1, 31, 100
3, 135936, Note_on_c, 1, 31, 110
3, 136124, Note_off_c, 1, 43, 100
3, 136128, Note_on_c, 1, 43, 110
3, 136316, Note_off_c, 1, 31, 100
3, 136320, Note_on_c, 1, 31, 110
3, 136508, Note_off_c, 1, 43, 100
3, 136512, Note_on_c, 1, 43, 110
3, 136700, Note_off_c, 1, 31, 100
3, 136700, Note_off_c, 1, 43, 100
3, 136704, Note_on_c, 1, 36, 100
3, 136832, Note_on_c, 1, 43, 100
3, 136956, Note_off_c, 1, 36, 100
3, 136960, Note_on_c, 1, 48, 100
3, 137084, Note_off_c, 1, 43, 100
3, 137088, Note_on_c, 1, 36, 100
3, 137212, Note_off_c, 1, 48, 100
3, 137216, Note_on_c, 1, 43, 100
3, 137340, Note_off_c, 1, 36, 100
3, 137344, Note_on_c, 1, 48, 100
3, 137468, Note_off_c, 1, 43, 100
3, 137472, Note_on_c, 1, 36, 100
3, 137596, Note_off_c, 1, 48, 100
3, 137600, Note_on_c, 1, 43, 100
3, 137724, Note_off_c, 1, 36, 100
3, 137728, Note_on_c, 1, 48, 100
3, 137852, Note_off_c, 1, 43, 100
3, 137856, Note_on_c, 1, 36, 100
3, 137980, Note_off_c, 1, 48, 100
3, 137984, Note_on_c, 1, 43, 100
3, 138108, Note_off_c, 1, 36, 100
3, 138112, Note_on_c, 1, 48, 100
3, 138236, Note_off_c, 1, 43, 100
3, 138240, Note_on_c, 1, 37, 100
3, 138364, Note_off_c, 1, 48, 100
3, 138368, Note_on_c, 1, 41, 100
3, 138492, Note_off_c, 1, 37, 100
3, 138496, Note_on_c, 1, 46, 100
3, 138620, Note_off_c, 1, 41, 100
3, 138624, Note_on_c, 1, 37, 100
3, 138748, Note_off_c, 1, 46, 100
3, 138752, Note_on_c, 1, 41, 100
3, 138876, Note_off_c, 1, 37, 100
3, 138880, Note_on_c, 1, 46, 100
3, 139004, Note_off_c, 1, 41, 100
3, 139008, Note_on_c, 1, 37, 100
3, 139132, Note_off_c, 1, 46, 100
3, 139136, Note_on_c, 1, 41, 100
3, 139260, Note_off_c, 1, 37, 100
3, 139264, Note_on_c, 1, 46, 100
3, 139388, Note_off_c, 1, 41, 100
3, 139392, Note_on_c, 1, 37, 100
3, 139516, Note_off_c, 1, 46, 100
3, 139520, Note_on_c, 1, 41, 100
3, 139644, Note_off_c, 1, 37, 100
3, 139648, Note_on_c, 1, 46, 100
3, 139772, Note_off_c, 1, 41, 100
3, 139772, Note_off_c, 1, 46, 100
3, 139776, Note_on_c, 1, 39, 100
3, 139904, Note_on_c, 1, 43, 100
3, 140028, Note_off_c, 1, 39, 100
3, 140032, Note_on_c, 1, 46, 100
3, 140156, Note_off_c, 1, 43, 100
3, 140160, Note_on_c, 1, 39, 100
3, 140284, Note_off_c, 1, 46, 100
3, 140288, Note_on_c, 1, 43, 100
3, 140412, Note_off_c, 1, 39, 100
3, 140416, Note_on_c, 1, 46, 100
3, 140540, Note_off_c, 1, 43, 100
3, 140544, Note_on_c, 1, 40, 100
3, 140668, Note_off_c, 1, 46, 100
3, 140672, Note_on_c, 1, 43, 100
3, 140796, Note_off_c, 1, 40, 100
3, 140800, Note_on_c, 1, 48, 100
3, 140924, Note_off_c, 1, 43, 100
3, 140928, Note_on_c, 1, 40, 100
3, 141052, Note_off_c, 1, 48, 100
3, 141056, Note_on_c, 1, 43, 100
3, 141180, Note_off_c, 1, 40, 100
3, 141184, Note_on_c, 1, 48, 100
3, 141308, Note_off_c, 1, 43, 100
3, 141308, Note_off_c, 1, 48, 100
3, 141312, Note_on_c, 1, 41, 100
3, 141440, Note_on_c, 1, 44, 100
3, 141564, Note_off_c, 1, 41, 100
3, 141568, Note_on_c, 1, 48, 100
3, 141692, Note_off_c, 1, 44, 100
3, 141696, Note_on_c, 1, 41, 100
3, 141820, Note_off_c, 1, 48, 100
3, 141824, Note_on_c, 1, 44, 100
3, 141948, Note_off_c, 1, 41, 100
3, 141952, Note_on_c, 1, 48, 100
3, 142076, Note_off_c, 1, 44, 100
3, 142080, Note_on_c, 1, 41, 100
3, 142204, Note_off_c, 1, 48, 100
3, 142208, Note_on_c, 1, 44, 100
3, 142332, Note_off_c, 1, 41, 100
3, 142336, Note_on_c, 1, 50, 100
3, 142460, Note_off_c, 1, 44, 100
3, 142464, Note_on_c, 1, 41, 100
3, 142588, Note_off_c, 1, 50, 100
3, 142592, Note_on_c, 1, 44, 100
3, 142716, Note_off_c, 1, 41, 100
3, 142720, Note_on_c, 1, 50, 100
3, 142844, Note_off_c, 1, 44, 100
3, 142844, Note_off_c, 1, 50, 100
3, 142848, Note_on_c, 1, 43, 100
3, 142976, Note_on_c, 1, 46, 100
3, 143100, Note_off_c, 1, 43, 100
3, 143104, Note_on_c, 1, 51, 100
3, 143228, Note_off_c, 1, 46, 100
3, 143232, Note_on_c, 1, 43, 100
3, 143356, Note_off_c, 1, 51, 100
3, 143360, Note_on_c, 1, 46, 100
3, 143484, Note_off_c, 1, 43, 100
3, 143488, Note_on_c, 1, 51, 100
3, 143612, Note_off_c, 1, 46, 100
3, 143616, Note_on_c, 1, 43, 100
3, 143740, Note_off_c, 1, 51, 100
3, 143744, Note_on_c, 1, 46, 100
3, 143868, Note_off_c, 1, 43, 100
3, 143872, Note_on_c, 1, 52, 100
3, 143996, Note_off_c, 1, 46, 100
3, 144000, Note_on_c, 1, 43, 100
3, 144124, Note_off_c, 1, 52, 100
3, 144128, Note_on_c, 1, 46, 100
3, 144252, Note_off_c, 1, 43, 100
3, 144256, Note_on_c, 1, 52, 100
3, 144380, Note_off_c, 1, 46, 100
3, 144380, Note_off_c, 1, 52, 100
3, 144384, Note_on_c, 1, 44, 100
3, 144512, Note_on_c, 1, 48, 100
3, 144636, Note_off_c, 1, 44, 100
3, 144640, Note_on_c, 1, 53, 100
3, 144764, Note_off_c, 1, 48, 100
3, 144768, Note_on_c, 1, 44, 100
3, 144892, Note_off_c, 1, 53, 100
3, 144896, Note_on_c, 1, 48, 100
3, 145020, Note_off_c, 1, 44, 100
3, 145024, Note_on_c, 1, 53, 100
3, 145148, Note_off_c, 1, 48, 100
3, 145152, Note_on_c, 1, 44, 100
3, 145276, Note_off_c, 1, 53, 100
3, 145280, Note_on_c, 1, 48, 100
3, 145404, Note_off_c, 1, 44, 100
3, 145408, Note_on_c, 1, 54, 100
3, 145532, Note_off_c, 1, 48, 100
3, 145536, Note_on_c, 1, 44, 100
3, 145660, Note_off_c, 1, 54, 100
3, 145664, Note_on_c, 1, 48, 100
3, 145788, Note_off_c, 1, 44, 100
3, 145792, Note_on_c, 1, 54, 100
3, 145916, Note_off_c, 1, 48, 100
3, 145916, Note_off_c, 1, 54, 100
3, 145920, Note_on_c, 1, 43, 100
3, 146048, Note_on_c, 1, 48, 100
3, 146172, Note_off_c, 1, 43, 100
3, 146176, Note_on_c, 1, 51, 100
3, 146300, Note_off_c, 1, 48, 100
3, 146304, Note_on_c, 1, 43, 100
3, 146428, Note_off_c, 1, 51, 100
3, 146432, Note_on_c, 1, 48, 100
3, 146556, Note_off_c, 1, 43, 100
3, 146560, Note_on_c, 1, 51, 100
3, 146684, Note_off_c, 1, 48, 100
3, 146688, Note_on_c, 1, 43, 100
3, 146812, Note_off_c, 1, 51, 100
3, 146816, Note_on_c, 1, 48, 100
3, 146940, Note_off_c, 1, 43, 100
3, 146944, Note_on_c, 1, 51, 100
3, 147068, Note_off_c, 1, 48, 100
3, 147072, Note_on_c, 1, 43, 100
3, 147196, Note_off_c, 1, 51, 100
3, 147200, Note_on_c, 1, 48, 100
3, 147324, Note_off_c, 1, 43, 100
3, 147328, Note_on_c, 1, 51, 100
3, 147452, Note_off_c, 1, 48, 100
3, 147452, Note_off_c, 1, 51, 100
3, 147456, Note_on_c, 1, 43, 100
3, 147584, Note_on_c, 1, 47, 100
3, 147708, Note_off_c, 1, 43, 100
3, 147712, Note_on_c, 1, 50, 100
3, 147836, Note_off_c, 1, 47, 100
3, 147840, Note_on_c, 1, 43, 100
3, 147964, Note_off_c, 1, 50, 100
3, 147968, Note_on_c, 1, 47, 100
3, 148092, Note_off_c, 1, 43, 100
3, 148096, Note_on_c, 1, 50, 100
3, 148220, Note_off_c, 1, 47, 100
3, 148224, Note_on_c, 1, 43, 100
3, 148348, Note_off_c, 1, 50, 100
3, 148352, Note_on_c, 1, 47, 100
3, 148476, Note_off_c, 1, 43, 100
3, 148480, Note_on_c, 1, 50, 100
3, 148604, Note_off_c, 1, 47, 100
3, 148608, Note_on_c, 1, 43, 100
3, 148732, Note_off_c, 1, 50, 100
3, 148736, Note_on_c, 1, 47, 100
3, 148860, Note_off_c, 1, 43, 100
3, 148864, Note_on_c, 1, 50, 100
3, 148988, Note_off_c, 1, 47, 100
3, 148988, Note_off_c, 1, 50, 100
3, 148992, Note_on_c, 1, 36, 100
3, 149120, Note_on_c, 1, 43, 100
3, 149244, Note_off_c, 1, 36, 100
3, 149248, Note_on_c, 1, 48, 100
3, 149372, Note_off_c, 1, 43, 100
3, 149376, Note_on_c, 1, 36, 100
3, 149500, Note_off_c, 1, 48, 100
3, 149504, Note_on_c, 1, 43, 100
3, 149628, Note_off_c, 1, 36, 100
3, 149632, Note_on_c, 1, 48, 100
3, 149756, Note_off_c, 1, 43, 100
3, 149760, Note_on_c, 1, 36, 100
3, 149884, Note_off_c, 1, 48, 100
3, 149888, Note_on_c, 1, 43, 100
3, 150012, Note_off_c, 1, 36, 100
3, 150016, Note_on_c, 1, 48, 100
3, 150140, Note_off_c, 1, 43, 100
3, 150144, Note_on_c, 1, 36, 100
3, 150268, Note_off_c, 1, 48, 100
3, 150272, Note_on_c, 1, 43, 100
3, 150396, Note_off_c, 1, 36, 100
3, 150400, Note_on_c, 1, 48, 100
3, 150524, Note_off_c, 1, 43, 100
3, 150528, Note_on_c, 1, 37, 100
3, 150652, Note_off_c, 1, 48, 100
3, 150656, Note_on_c, 1, 41, 100
3, 150780, Note_off_c, 1, 37, 100
3, 150784, Note_on_c, 1, 46, 100
3, 150908, Note_off_c, 1, 41, 100
3, 150912, Note_on_c, 1, 37, 100
3, 151036, Note_off_c, 1, 46, 100
3, 151040, Note_on_c, 1, 41, 100
3, 151164, Note_off_c, 1, 37, 100
3, 151168, Note_on_c, 1, 46, 100
3, 151292, Note_off_c, 1, 41, 100
3, 151296, Note_on_c, 1, 37, 100
3, 151420, Note_off_c, 1, 46, 100
3, 151424, Note_on_c, 1, 41, 100
3, 151548, Note_off_c, 1, 37, 100
3, 151552, Note_on_c, 1, 46, 100
3, 151676, Note_off_c, 1, 41, 100
3, 151680, Note_on_c, 1, 37, 100
3, 151804, Note_off_c, 1, 46, 100
3, 151808, Note_on_c, 1, 41, 100
3, 151932, Note_off_c, 1, 37, 100
3, 151936, Note_on_c, 1, 46, 100
3, 152060, Note_off_c, 1, 41, 100
3, 152060, Note_off_c, 1, 46, 100
3, 152064, Note_on_c, 1, 39, 100
3, 152192, Note_on_c, 1, 43, 100
3, 152316, Note_off_c, 1, 39, 100
3, 152320, Note_on_c, 1, 46, 100
3, 152444, Note_off_c, 1, 43, 100
3, 152448, Note_on_c, 1, 39, 100
3, 152572, Note_off_c, 1, 46, 100
3, 152576, Note_on_c, 1, 43, 100
3, 152700, Note_off_c, 1, 39, 100
3, 152704, Note_on_c, 1, 46, 100
3, 152828, Note_off_c, 1, 43, 100
3, 152832, Note_on_c, 1, 40, 100
3, 152956, Note_off_c, 1, 46, 100
3, 152960, Note_on_c, 1, 43, 100
3, 153084, Note_off_c, 1, 40, 100
3, 153088, Note_on_c, 1, 48, 100
3, 153212, Note_off_c, 1, 43, 100
3, 153216, Note_on_c, 1, 40, 100
3, 153340, Note_off_c, 1, 48, 100
3, 153344, Note_on_c, 1, 43, 100
3, 153468, Note_off_c, 1, 40, 100
3, 153472, Note_on_c, 1, 48, 100
3, 153596, Note_off_c, 1, 43, 100
3, 153596, Note_off_c, 1, 48, 100
3, 153600, Note_on_c, 1, 41, 100
3, 153728, Note_on_c, 1, 44, 100
3, 153852, Note_off_c, 1, 41, 100
3, 153856, Note_on_c, 1, 48, 100
3, 153980, Note_off_c, 1, 44, 100
3, 153984, Note_on_c, 1, 41, 100
3, 154108, Note_off_c, 1, 48, 100
3, 154112, Note_on_c, 1, 44, 100
3, 154236, Note_off_c, 1, 41, 100
3, 154240, Note_on_c, 1, 48, 100
3, 154364, Note_off_c, 1, 44, 100
3, 154368, Note_on_c, 1, 41, 100
3, 154492, Note_off_c, 1, 48, 100
3, 154496, Note_on_c, 1, 44, 100
3, 154620, Note_off_c, 1, 41, 100
3, 154624, Note_on_c, 1, 50, 100
3, 154748, Note_off_c, 1, 44, 100
3, 154752, Note_on_c, 1, 41, 100
3, 154876, Note_off_c, 1, 50, 100
3, 154880, Note_on_c, 1, 44, 100
3, 155004, Note_off_c, 1, 41, 100
3, 155008, Note_on_c, 1, 50, 100
3, 155132, Note_off_c, 1, 44, 100
3, 155132, Note_off_c, 1, 50, 100
3, 155136, Note_on_c, 1, 43, 100
3, 155264, Note_on_c, 1, 46, 100
3, 155388, Note_off_c, 1, 43, 100
3, 155392, Note_on_c, 1, 51, 100
3, 155516, Note_off_c, 1, 46, 100
3, 155520, Note_on_c, 1, 43, 100
3, 155644, Note_off_c, 1, 51, 100
3, 155648, Note_on_c, 1, 46, 100
3, 155772, Note_off_c, 1, 43, 100
3, 155776, Note_on_c, 1, 51, 100
3, 155900, Note_off_c, 1, 46, 100
3, 155904, Note_on_c, 1, 43, 100
3, 156028, Note_off_c, 1, 51, 100
3, 156032, Note_on_c, 1, 46, 100
3, 156156, Note_off_c, 1, 43, 100
3, 156160, Note_on_c, 1, 52, 100
3, 156284, Note_off_c, 1, 46, 100
3, 156288, Note_on_c, 1, 43, 100
3, 156412, Note_off_c, 1, 52, 100
3, 156416, Note_on_c, 1, 46, 100
3, 156540, Note_off_c, 1, 43, 100
3, 156544, Note_on_c, 1, 52, 100
3, 156668, Note_off_c, 1, 46, 100
3, 156668, Note_off_c, 1, 52, 100
3, 156672, Note_on_c, 1, 44, 100
3, 156800, Note_on_c, 1, 48, 100
3, 156924, Note_off_c, 1, 44, 100
3, 156928, Note_on_c, 1, 53, 100
3, 157052, Note_off_c, 1, 48, 100
3, 157056, Note_on_c, 1, 44, 100
3, 157180, Note_off_c, 1, 53, 100
3, 157184, Note_on_c, 1, 48, 100
3, 157308, Note_off_c, 1, 44, 100
3, 157312, Note_on_c, 1, 53, 100
3, 157436, Note_off_c, 1, 48, 100
3, 157440, Note_on_c, 1, 44, 100
3, 157564, Note_off_c, 1, 53, 100
3, 157568, Note_on_c, 1, 48, 100
3, 157692, Note_off_c, 1, 44, 100
3, 157696, Note_on_c, 1, 54, 100
3, 157820, Note_off_c, 1, 48, 100
3, 157824, Note_on_c, 1, 44, 100
3, 157948, Note_off_c, 1, 54, 100
3, 157952, Note_on_c, 1, 48, 100
3, 158076, Note_off_c, 1, 44, 100
3, 158080, Note_on_c, 1, 54, 100
3, 158204, Note_off_c, 1, 48, 100
3, 158204, Note_off_c, 1, 54, 100
3, 158208, Note_on_c, 1, 43, 100
3, 158336, Note_on_c, 1, 48, 100
3, 158460, Note_off_c, 1, 43, 100
3, 158464, Note_on_c, 1, 51, 100
3, 158588, Note_off_c, 1, 48, 100
3, 158592, Note_on_c, 1, 43, 100
3, 158716, Note_off_c, 1, 51, 100
3, 158720, Note_on_c, 1, 48, 100
3, 158844, Note_off_c, 1, 43, 100
3, 158848, Note_on_c, 1, 51, 100
3, 158972, Note_off_c, 1, 48, 100
3, 158976, Note_on_c, 1, 43, 100
3, 159100, Note_off_c, 1, 51, 100
3, 159104, Note_on_c, 1, 48, 100
3, 159228, Note_off_c, 1, 43, 100
3, 159232, Note_on_c, 1, 51, 100
3, 159356, Note_off_c, 1, 48, 100
3, 159360, Note_on_c, 1, 43, 100
3, 159484, Note_off_c, 1, 51, 100
3, 159488, Note_on_c, 1, 48, 100
3, 159612, Note_off_c, 1, 43, 100
3, 159616, Note_on_c, 1, 51, 100
3, 159740, Note_off_c, 1, 48, 100
3, 159740, Note_off_c, 1, 51, 100
3, 159744, Note_on_c, 1, 43, 100
3, 159872, Note_on_c, 1, 47, 100
3, 159996, Note_off_c, 1, 43, 100
3, 160000, Note_on_c, 1, 50, 100
3, 160124, Note_off_c, 1, 47, 100
3, 160128, Note_on_c, 1, 43, 100
3, 160252, Note_off_c, 1, 50, 100
3, 160256, Note_on_c, 1, 47, 100
3, 160380, Note_off_c, 1, 43, 100
3, 160384, Note_on_c, 1, 50, 100
3, 160508, Note_off_c, 1, 47, 100
3, 160512, Note_on_c, 1, 43, 100
3, 160636, Note_off_c, 1, 50, 100
3, 160640, Note_on_c, 1, 47, 100
3, 160764, Note_off_c, 1, 43, 100
3, 160768, Note_on_c, 1, 50, 100
3, 160892, Note_off_c, 1, 47, 100
3, 160896, Note_on_c, 1, 43, 100
3, 161020, Note_off_c, 1, 50, 100
3, 161024, Note_on_c, 1, 47, 100
3, 161148, Note_off_c, 1, 43, 100
3, 161152, Note_on_c, 1, 50, 100
3, 161276, Note_off_c, 1, 47, 100
3, 161276, Note_off_c, 1, 50, 100
3, 161280, Note_on_c, 1, 48, 120
3, 161408, Note_on_c, 1, 51, 120
3, 161532, Note_off_c, 1, 48, 100
3, 161536, Note_on_c, 1, 55, 120
3, 161660, Note_off_c, 1, 51, 100
3, 161664, Note_on_c, 1, 60, 120
3, 161788, Note_off_c, 1, 55, 100
3, 161792, Note_on_c, 1, 63, 120
3, 161916, Note_off_c, 1, 60, 100
3, 161920, Note_on_c, 1, 67, 120
3, 162044, Note_off_c, 1, 63, 100
3, 162048, Note_on_c, 1, 60, 120
3, 162172, Note_off_c, 1, 67, 100
3, 162176, Note_on_c, 1, 63, 120
3, 162300, Note_off_c, 1, 60, 100
3, 162304, Note_on_c, 1, 67, 120
3, 162428, Note_off_c, 1, 63, 100
3, 162432, Note_on_c, 1, 60, 120
3, 162556, Note_off_c, 1, 67, 100
3, 162560, Note_on_c, 1, 63, 120
3, 162684, Note_off_c, 1, 60, 100
3, 162688, Note_on_c, 1, 67, 120
3, 162812, Note_off_c, 1, 63, 100
3, 162812, Note_off_c, 1, 67, 100
3, 162816, Note_on_c, 1, 60, 120
3, 162944, Note_on_c, 1, 67, 120
3, 163068, Note_off_c, 1, 60, 100
3, 163072, Note_on_c, 1, 63, 120
3, 163196, Note_off_c, 1, 67, 100
3, 163200, Note_on_c, 1, 60, 120
3, 163324, Note_off_c, 1, 63, 100
3, 163328, Note_on_c, 1, 55, 120
3, 163452, Note_off_c, 1, 60, 100
3, 163456, Note_on_c, 1, 51, 120
3, 163580, Note_off_c, 1, 55, 100
3, 163584, Note_on_c, 1, 48, 120
3, 163708, Note_off_c, 1, 51, 100
3, 163712, Note_on_c, 1, 51, 120
3, 163836, Note_off_c, 1, 48, 100
3, 163840, Note_on_c, 1, 55, 120
3, 163964, Note_off_c, 1, 51, 100
3, 163968, Note_on_c, 1, 43, 120
3, 164092, Note_off_c, 1, 55, 100
3, 164096, Note_on_c, 1, 50, 120
3, 164220, Note_off_c, 1, 43, 100
3, 164224, Note_on_c, 1, 55, 120
3, 164348, Note_off_c, 1, 50, 100
3, 164348, Note_off_c, 1, 55, 100
3, 164352, Note_on_c, 1, 48, 120
3, 164480, Note_on_c, 1, 51, 120
3, 164604, Note_off_c, 1, 48, 100
3, 164608, Note_on_c, 1, 55, 120
3, 164732, Note_off_c, 1, 51, 100
3, 164736, Note_on_c, 1, 60, 120
3, 164860, Note_off_c, 1, 55, 100
3, 164864, Note_on_c, 1, 63, 120
3, 164988, Note_off_c, 1, 60, 100
3, 164992, Note_on_c, 1, 67, 120
3, 165116, Note_off_c, 1, 63, 100
3, 165120, Note_on_c, 1, 60, 120
3, 165244, Note_off_c, 1, 67, 100
3, 165248, Note_on_c, 1, 63, 120
3, 165372, Note_off_c, 1, 60, 100
3, 165376, Note_on_c, 1, 67, 120
3, 165500, Note_off_c, 1, 63, 100
3, 165504, Note_on_c, 1, 60, 120
3, 165628, Note_off_c, 1, 67, 100
3, 165632, Note_on_c, 1, 63, 120
3, 165756, Note_off_c, 1, 60, 100
3, 165760, Note_on_c, 1, 67, 120
3, 165884, Note_off_c, 1, 63, 100
3, 165884, Note_off_c, 1, 67, 100
3, 165888, Note_on_c, 1, 60, 120
3, 166016, Note_on_c, 1, 67, 120
3, 166140, Note_off_c, 1, 60, 100
3, 166144, Note_on_c, 1, 63, 120
3, 166268, Note_off_c, 1, 67, 100
3, 166272, Note_on_c, 1, 60, 120
3, 166396, Note_off_c, 1, 63, 100
3, 166400, Note_on_c, 1, 55, 120
3, 166524, Note_off_c, 1, 60, 100
3, 166528, Note_on_c, 1, 51, 120
3, 166652, Note_off_c, 1, 55, 100
3, 166656, Note_on_c, 1, 48, 120
3, 166780, Note_off_c, 1, 51, 100
3, 166784, Note_on_c, 1, 51, 120
3, 166908, Note_off_c, 1, 48, 100
3, 166912, Note_on_c, 1, 55, 120
3, 167036, Note_off_c, 1, 51, 100
3, 167040, Note_on_c, 1, 43, 120
3, 167164, Note_off_c, 1, 55, 100
3, 167168, Note_on_c, 1, 50, 120
3, 167292, Note_off_c, 1, 43, 100
3, 167296, Note_on_c, 1, 55, 120
3, 167420, Note_off_c, 1, 50, 100
3, 167420, Note_off_c, 1, 55, 100
3, 167424, Note_on_c, 1, 48, 120
3, 167552, Note_on_c, 1, 51, 120
3, 167676, Note_off_c, 1, 48, 100
3, 167680, Note_on_c, 1, 55, 120
3, 167804, Note_off_c, 1, 51, 100
3, 167808, Note_on_c, 1, 60, 120
3, 167932, Note_off_c, 1, 55, 100
3, 167936, Note_on_c, 1, 55, 120
3, 168060, Note_off_c, 1, 60, 100
3, 168064, Note_on_c, 1, 51, 120
3, 168188, Note_off_c, 1, 55, 100
3, 168192, Note_on_c, 1, 48, 120
3, 168316, Note_off_c, 1, 51, 100
3, 168320, Note_on_c, 1, 51, 120
3, 168444, Note_off_c, 1, 48, 100
3, 168448, Note_on_c, 1, 55, 120
3, 168572, Note_off_c, 1, 51, 100
3, 168576, Note_on_c, 1, 43, 120
3, 168700, Note_off_c, 1, 55, 100
3, 168704, Note_on_c, 1, 50, 120
3, 168828, Note_off_c, 1, 43, 100
3, 168832, Note_on_c, 1, 55, 120
3, 168956, Note_off_c, 1, 50, 100
3, 168956, Note_off_c, 1, 55, 100
3, 168960, Note_on_c, 1, 48, 120
3, 169088, Note_on_c, 1, 51, 120
3, 169212, Note_off_c, 1, 48, 100
3, 169216, Note_on_c, 1, 55, 120
3, 169340, Note_off_c, 1, 51, 100
3, 169344, Note_on_c, 1, 60, 120
3, 169468, Note_off_c, 1, 55, 100
3, 169472, Note_on_c, 1, 55, 120
3, 169596, Note_off_c, 1, 60, 100
3, 169600, Note_on_c, 1, 51, 120
3, 169724, Note_off_c, 1, 55, 100
3, 169728, Note_on_c, 1, 48, 120
3, 169852, Note_off_c, 1, 51, 100
3, 169856, Note_on_c, 1, 51, 120
3, 169980, Note_off_c, 1, 48, 100
3, 169984, Note_on_c, 1, 55, 120
3, 170108, Note_off_c, 1, 51, 100
3, 170112, Note_on_c, 1, 60, 120
3, 170236, Note_off_c, 1, 55, 100
3, 170240, Note_on_c, 1, 55, 120
3, 170364, Note_off_c, 1, 60, 100
3, 170368, Note_on_c, 1, 51, 120
3, 170492, Note_off_c, 1, 55, 100
3, 170492, Note_off_c, 1, 51, 100
3, 170496, Note_on_c, 1, 48, 120
3, 170876, Note_off_c, 1, 48, 100
3, 172032, Note_on_c, 1, 55, 120
3, 172032, Note_on_c, 1, 51, 120
3, 172032, Note_on_c, 1, 49, 120
3, 172032, Note_on_c, 1, 46, 120
3, 172412, Note_off_c, 1, 55, 100
3, 172412, Note_off_c, 1, 51, 100
3, 172412, Note_off_c, 1, 49, 100
3, 172412, Note_off_c, 1, 46, 100
3, 172800, Note_on_c, 1, 55, 120
3, 172800, Note_on_c, 1, 51, 120
3, 172800, Note_on_c, 1, 49, 120
3, 172800, Note_on_c, 1, 46, 120
3, 173180, Note_off_c, 1, 55, 100
3, 173180, Note_off_c, 1, 51, 100
3, 173180, Note_off_c, 1, 49, 100
3, 173180, Note_off_c, 1, 46, 100
3, 173568, Note_on_c, 1, 55, 120
3, 173568, Note_on_c, 1, 51, 120
3, 173568, Note_on_c, 1, 49, 120
3, 173568, Note_on_c, 1, 46, 120
3, 174332, Note_off_c, 1, 55, 100
3, 174332, Note_off_c, 1, 51, 100
3, 174332, Note_off_c, 1, 49, 100
3, 174332, Note_off_c, 1, 46, 100
3, 175488, Note_on_c, 1, 60, 80
3, 175488, Note_on_c, 1, 56, 80
3, 175868, Note_off_c, 1, 60, 100
3, 175868, Note_off_c, 1, 56, 100
3, 175872, Note_on_c, 1, 60, 80
3, 175872, Note_on_c, 1, 56, 80
3, 176252, Note_off_c, 1, 60, 100
3, 176252, Note_off_c, 1, 56, 100
3, 176256, Note_on_c, 1, 60, 80
3, 176256, Note_on_c, 1, 56, 80
3, 176636, Note_off_c, 1, 60, 100
3, 176636, Note_off_c, 1, 56, 100
3, 177024, Note_on_c, 1, 63, 80
3, 177024, Note_on_c, 1, 60, 80
3, 177024, Note_on_c, 1, 56, 80
3, 177404, Note_off_c, 1, 63, 100
3, 177404, Note_off_c, 1, 60, 100
3, 177404, Note_off_c, 1, 56, 100
3, 177408, Note_on_c, 1, 63, 80
3, 177408, Note_on_c, 1, 60, 80
3, 177408, Note_on_c, 1, 56, 80
3, 177788, Note_off_c, 1, 63, 100
3, 177788, Note_off_c, 1, 60, 100
3, 177788, Note_off_c, 1, 56, 100
3, 177792, Note_on_c, 1, 63, 80
3, 177792, Note_on_c, 1, 60, 80
3, 177792, Note_on_c, 1, 56, 80
3, 178172, Note_off_c, 1, 63, 100
3, 178172, Note_off_c, 1, 60, 100
3, 178172, Note_off_c, 1, 56, 100
3, 178560, Note_on_c, 1, 63, 80
3, 178560, Note_on_c, 1, 58, 80
3, 178560, Note_on_c, 1, 55, 80
3, 178940, Note_off_c, 1, 63, 100
3, 178940, Note_off_c, 1, 58, 100
3, 178940, Note_off_c, 1, 55, 100
3, 178944, Note_on_c, 1, 63, 80
3, 178944, Note_on_c, 1, 58, 80
3, 178944, Note_on_c, 1, 55, 80
3, 179324, Note_off_c, 1, 63, 100
3, 179324, Note_off_c, 1, 58, 100
3, 179324, Note_off_c, 1, 55, 100
3, 179328, Note_on_c, 1, 63, 80
3, 179328, Note_on_c, 1, 58, 80
3, 179328, Note_on_c, 1, 55, 80
3, 179708, Note_off_c, 1, 63, 100
3, 179708, Note_off_c, 1, 58, 100
3, 179708, Note_off_c, 1, 55, 100
3, 180096, Note_on_c, 1, 63, 80
3, 180096, Note_on_c, 1, 58, 80
3, 180096, Note_on_c, 1, 55, 80
3, 180476, Note_off_c, 1, 63, 100
3, 180476, Note_off_c, 1, 58, 100
3, 180476, Note_off_c, 1, 55, 100
3, 180480, Note_on_c, 1, 63, 80
3, 180480, Note_on_c, 1, 58, 80
3, 180480, Note_on_c, 1, 55, 80
3, 180860, Note_off_c, 1, 63, 100
3, 180860, Note_off_c, 1, 58, 100
3, 180860, Note_off_c, 1, 55, 100
3, 180864, Note_on_c, 1, 63, 80
3, 180864, Note_on_c, 1, 58, 80
3, 180864, Note_on_c, 1, 55, 80
3, 181244, Note_off_c, 1, 63, 100
3, 181244, Note_off_c, 1, 58, 100
3, 181244, Note_off_c, 1, 55, 100
3, 181632, Note_on_c, 1, 53, 80
3, 181632, Note_on_c, 1, 56, 80
3, 181632, Note_on_c, 1, 61, 80
3, 182012, Note_off_c, 1, 53, 100
3, 182012, Note_off_c, 1, 56, 100
3, 182012, Note_off_c, 1, 61, 100
3, 182016, Note_on_c, 1, 53, 80
3, 182016, Note_on_c, 1, 56, 80
3, 182016, Note_on_c, 1, 61, 80
3, 182396, Note_off_c, 1, 53, 100
3, 182396, Note_off_c, 1, 56, 100
3, 182396, Note_off_c, 1, 61, 100
3, 182400, Note_on_c, 1, 53, 80
3, 182400, Note_on_c, 1, 56, 80
3, 182400, Note_on_c, 1, 61, 80
3, 182780, Note_off_c, 1, 53, 100
3, 182780, Note_off_c, 1, 56, 100
3, 182780, Note_off_c, 1, 61, 100
3, 183168, Note_on_c, 1, 60, 80
3, 183168, Note_on_c, 1, 56, 80
3, 183168, Note_on_c, 1, 51, 80
3, 183548, Note_off_c, 1, 60, 100
3, 183548, Note_off_c, 1, 56, 100
3, 183548, Note_off_c, 1, 51, 100
3, 183552, Note_on_c, 1, 60, 80
3, 183552, Note_on_c, 1, 56, 80
3, 183552, Note_on_c, 1, 51, 80
3, 183932, Note_off_c, 1, 60, 100
3, 183932, Note_off_c, 1, 56, 100
3, 183932, Note_off_c, 1, 51, 100
3, 183936, Note_on_c, 1, 60, 80
3, 183936, Note_on_c, 1, 56, 80
3, 183936, Note_on_c, 1, 51, 80
3, 184316, Note_off_c, 1, 60, 100
3, 184316, Note_off_c, 1, 56, 100
3, 184316, Note_off_c, 1, 51, 100
3, 184704, Note_on_c, 1, 58, 80
3, 184704, Note_on_c, 1, 53, 80
3, 184704, Note_on_c, 1, 49, 80
3, 185084, Note_off_c, 1, 58, 100
3, 185084, Note_off_c, 1, 53, 100
3, 185084, Note_off_c, 1, 49, 100
3, 185088, Note_on_c, 1, 58, 80
3, 185088, Note_on_c, 1, 53, 80
3, 185088, Note_on_c, 1, 49, 80
3, 185468, Note_off_c, 1, 58, 100
3, 185468, Note_off_c, 1, 53, 100
3, 185468, Note_off_c, 1, 49, 100
3, 185472, Note_on_c, 1, 58, 80
3, 185472, Note_on_c, 1, 53, 80
3, 185472, Note_on_c, 1, 49, 80
3, 185852, Note_off_c, 1, 58, 100
3, 185852, Note_off_c, 1, 53, 100
3, 185852, Note_off_c, 1, 49, 100
3, 186240, Note_on_c, 1, 51, 80
3, 186240, Note_on_c, 1, 60, 80
3, 186620, Note_off_c, 1, 51, 100
3, 186620, Note_off_c, 1, 60, 100
3, 186624, Note_on_c, 1, 61, 80
3, 186624, Note_on_c, 1, 51, 80
3, 187004, Note_off_c, 1, 61, 100
3, 187004, Note_off_c, 1, 51, 100
3, 187008, Note_on_c, 1, 61, 80
3, 187008, Note_on_c, 1, 51, 80
3, 187388, Note_off_c, 1, 61, 100
3, 187388, Note_off_c, 1, 51, 100
3, 187776, Note_on_c, 1, 61, 80
3, 187776, Note_on_c, 1, 56, 80
3, 188156, Note_off_c, 1, 61, 100
3, 188156, Note_off_c, 1, 56, 100
3, 188160, Note_on_c, 1, 61, 80
3, 188160, Note_on_c, 1, 56, 80
3, 188540, Note_off_c, 1, 61, 100
3, 188540, Note_off_c, 1, 56, 100
3, 188544, Note_on_c, 1, 61, 80
3, 188544, Note_on_c, 1, 56, 80
3, 188924, Note_off_c, 1, 61, 100
3, 188924, Note_off_c, 1, 56, 100
3, 189312, Note_on_c, 1, 56, 80
3, 189692, Note_off_c, 1, 56, 100
3, 189696, Note_on_c, 1, 60, 80
3, 190076, Note_off_c, 1, 60, 100
3, 190080, Note_on_c, 1, 63, 80
3, 190460, Note_off_c, 1, 63, 100
3, 190848, Note_on_c, 1, 72, 80
3, 190848, Note_on_c, 1, 68, 80
3, 191228, Note_off_c, 1, 72, 100
3, 191228, Note_off_c, 1, 68, 100
3, 191232, Note_on_c, 1, 72, 80
3, 191232, Note_on_c, 1, 68, 80
3, 191612, Note_off_c, 1, 72, 100
3, 191612, Note_off_c, 1, 68, 100
3, 191616, Note_on_c, 1, 72, 80
3, 191616, Note_on_c, 1, 68, 80
3, 191996, Note_off_c, 1, 72, 100
3, 191996, Note_off_c, 1, 68, 100
3, 192384, Note_on_c, 1, 75, 80
3, 192384, Note_on_c, 1, 72, 80
3, 192384, Note_on_c, 1, 68, 80
3, 192764, Note_off_c, 1, 75, 100
3, 192764, Note_off_c, 1, 72, 100
3, 192764, Note_off_c, 1, 68, 100
3, 192768, Note_on_c, 1, 75, 80
3, 192768, Note_on_c, 1, 72, 80
3, 192768, Note_on_c, 1, 68, 80
3, 193148, Note_off_c, 1, 75, 100
3, 193148, Note_off_c, 1, 72, 100
3, 193148, Note_off_c, 1, 68, 100
3, 193152, Note_on_c, 1, 75, 80
3, 193152, Note_on_c, 1, 72, 80
3, 193152, Note_on_c, 1, 68, 80
3, 193532, Note_off_c, 1, 75, 100
3, 193532, Note_off_c, 1, 72, 100
3, 193532, Note_off_c, 1, 68, 100
3, 193920, Note_on_c, 1, 75, 80
3, 193920, Note_on_c, 1, 70, 80
3, 193920, Note_on_c, 1, 67, 80
3, 194300, Note_off_c, 1, 75, 100
3, 194300, Note_off_c, 1, 70, 100
3, 194300, Note_off_c, 1, 67, 100
3, 194304, Note_on_c, 1, 75, 80
3, 194304, Note_on_c, 1, 70, 80
3, 194304, Note_on_c, 1, 67, 80
3, 194684, Note_off_c, 1, 75, 100
3, 194684, Note_off_c, 1, 70, 100
3, 194684, Note_off_c, 1, 67, 100
3, 194688, Note_on_c, 1, 75, 80
3, 194688, Note_on_c, 1, 70, 80
3, 194688, Note_on_c, 1, 67, 80
3, 195068, Note_off_c, 1, 75, 100
3, 195068, Note_off_c, 1, 70, 100
3, 195068, Note_off_c, 1, 67, 100
3, 195456, Note_on_c, 1, 75, 80
3, 195456, Note_on_c, 1, 70, 80
3, 195456, Note_on_c, 1, 67, 80
3, 195836, Note_off_c, 1, 75, 100
3, 195836, Note_off_c, 1, 70, 100
3, 195836, Note_off_c, 1, 67, 100
3, 195840, Note_on_c, 1, 75, 80
3, 195840, Note_on_c, 1, 70, 80
3, 195840, Note_on_c, 1, 67, 80
3, 196220, Note_off_c, 1, 75, 100
3, 196220, Note_off_c, 1, 70, 100
3, 196220, Note_off_c, 1, 67, 100
3, 196224, Note_on_c, 1, 75, 80
3, 196224, Note_on_c, 1, 70, 80
3, 196224, Note_on_c, 1, 67, 80
3, 196604, Note_off_c, 1, 75, 100
3, 196604, Note_off_c, 1, 70, 100
3, 196604, Note_off_c, 1, 67, 100
3, 196992, Note_on_c, 1, 65, 80
3, 196992, Note_on_c, 1, 68, 80
3, 196992, Note_on_c, 1, 73, 80
3, 197372, Note_off_c, 1, 65, 100
3, 197372, Note_off_c, 1, 68, 100
3, 197372, Note_off_c, 1, 73, 100
3, 197376, Note_on_c, 1, 65, 80
3, 197376, Note_on_c, 1, 68, 80
3, 197376, Note_on_c, 1, 73, 80
3, 197756, Note_off_c, 1, 65, 100
3, 197756, Note_off_c, 1, 68, 100
3, 197756, Note_off_c, 1, 73, 100
3, 197760, Note_on_c, 1, 65, 80
3, 197760, Note_on_c, 1, 68, 80
3, 197760, Note_on_c, 1, 73, 80
3, 198140, Note_off_c, 1, 65, 100
3, 198140, Note_off_c, 1, 68, 100
3, 198140, Note_off_c, 1, 73, 100
3, 198528, Note_on_c, 1, 72, 80
3, 198528, Note_on_c, 1, 69, 80
3, 198528, Note_on_c, 1, 63, 80
3, 198908, Note_off_c, 1, 72, 100
3, 198908, Note_off_c, 1, 69, 100
3, 198908, Note_off_c, 1, 63, 100
3, 198912, Note_on_c, 1, 72, 80
3, 198912, Note_on_c, 1, 69, 80
3, 198912, Note_on_c, 1, 63, 80
3, 199292, Note_off_c, 1, 72, 100
3, 199292, Note_off_c, 1, 69, 100
3, 199292, Note_off_c, 1, 63, 100
3, 199296, Note_on_c, 1, 72, 80
3, 199296, Note_on_c, 1, 69, 80
3, 199296, Note_on_c, 1, 63, 80
3, 199676, Note_off_c, 1, 72, 100
3, 199676, Note_off_c, 1, 69, 100
3, 199676, Note_off_c, 1, 63, 100
3, 200064, Note_on_c, 1, 70, 80
3, 200064, Note_on_c, 1, 65, 80
3, 200064, Note_on_c, 1, 61, 80
3, 200444, Note_off_c, 1, 70, 100
3, 200444, Note_off_c, 1, 65, 100
3, 200444, Note_off_c, 1, 61, 100
3, 200448, Note_on_c, 1, 70, 80
3, 200448, Note_on_c, 1, 65, 80
3, 200448, Note_on_c, 1, 61, 80
3, 200828, Note_off_c, 1, 70, 100
3, 200828, Note_off_c, 1, 65, 100
3, 200828, Note_off_c, 1, 61, 100
3, 200832, Note_on_c, 1, 70, 80
3, 200832, Note_on_c, 1, 65, 80
3, 200832, Note_on_c, 1, 61, 80
3, 201212, Note_off_c, 1, 70, 100
3, 201212, Note_off_c, 1, 65, 100
3, 201212, Note_off_c, 1, 61, 100
3, 201600, Note_on_c, 1, 63, 80
3, 201600, Note_on_c, 1, 72, 80
3, 201980, Note_off_c, 1, 63, 100
3, 201980, Note_off_c, 1, 72, 100
3, 201984, Note_on_c, 1, 73, 80
3, 201984, Note_on_c, 1, 63, 80
3, 202364, Note_off_c, 1, 73, 100
3, 202364, Note_off_c, 1, 63, 100
3, 202368, Note_on_c, 1, 73, 80
3, 202368, Note_on_c, 1, 63, 80
3, 202748, Note_off_c, 1, 73, 100
3, 202748, Note_off_c, 1, 63, 100
3, 203136, Note_on_c, 1, 67, 80
3, 203516, Note_off_c, 1, 67, 100
3, 203520, Note_on_c, 1, 68, 80
3, 203900, Note_off_c, 1, 68, 100
3, 203904, Note_on_c, 1, 67, 80
3, 204284, Note_off_c, 1, 67, 100
3, 204288, Note_on_c, 1, 68, 80
3, 204668, Note_off_c, 1, 68, 100
3, 204672, Note_on_c, 1, 63, 80
3, 205052, Note_off_c, 1, 63, 100
3, 205056, Note_on_c, 1, 60, 80
3, 205436, Note_off_c, 1, 60, 100
3, 205440, Note_on_c, 1, 56, 80
3, 205820, Note_off_c, 1, 56, 100
3, 206208, Note_on_c, 1, 63, 80
3, 206208, Note_on_c, 1, 58, 80
3, 206208, Note_on_c, 1, 55, 80
3, 206588, Note_off_c, 1, 63, 100
3, 206588, Note_off_c, 1, 58, 100
3, 206588, Note_off_c, 1, 55, 100
3, 206592, Note_on_c, 1, 63, 80
3, 206592, Note_on_c, 1, 58, 80
3, 206592, Note_on_c, 1, 55, 80
3, 206972, Note_off_c, 1, 63, 100
3, 206972, Note_off_c, 1, 58, 100
3, 206972, Note_off_c, 1, 55, 100
3, 206976, Note_on_c, 1, 63, 80
3, 206976, Note_on_c, 1, 58, 80
3, 206976, Note_on_c, 1, 55, 80
3, 207356, Note_off_c, 1, 63, 100
3, 207356, Note_off_c, 1, 58, 100
3, 207356, Note_off_c, 1, 55, 100
3, 207744, Note_on_c, 1, 63, 80
3, 207744, Note_on_c, 1, 61, 80
3, 207744, Note_on_c, 1, 58, 80
3, 208124, Note_off_c, 1, 63, 100
3, 208124, Note_off_c, 1, 61, 100
3, 208124, Note_off_c, 1, 58, 100
3, 208128, Note_on_c, 1, 63, 80
3, 208128, Note_on_c, 1, 61, 80
3, 208128, Note_on_c, 1, 58, 80
3, 208508, Note_off_c, 1, 63, 100
3, 208508, Note_off_c, 1, 61, 100
3, 208508, Note_off_c, 1, 58, 100
3, 208512, Note_on_c, 1, 63, 80
3, 208512, Note_on_c, 1, 61, 80
3, 208512, Note_on_c, 1, 58, 80
3, 208892, Note_off_c, 1, 63, 100
3, 208892, Note_off_c, 1, 61, 100
3, 208892, Note_off_c, 1, 58, 100
3, 209280, Note_on_c, 1, 63, 80
3, 209280, Note_on_c, 1, 60, 80
3, 209280, Note_on_c, 1, 56, 80
3, 209660, Note_off_c, 1, 63, 100
3, 209660, Note_off_c, 1, 60, 100
3, 209660, Note_off_c, 1, 56, 100
3, 209664, Note_on_c, 1, 63, 80
3, 209664, Note_on_c, 1, 60, 80
3, 209664, Note_on_c, 1, 56, 80
3, 210044, Note_off_c, 1, 63, 100
3, 210044, Note_off_c, 1, 60, 100
3, 210044, Note_off_c, 1, 56, 100
3, 210048, Note_on_c, 1, 63, 80
3, 210048, Note_on_c, 1, 60, 80
3, 210048, Note_on_c, 1, 56, 80
3, 210428, Note_off_c, 1, 63, 100
3, 210428, Note_off_c, 1, 60, 100
3, 210428, Note_off_c, 1, 56, 100
3, 210816, Note_on_c, 1, 68, 80
3, 210816, Note_on_c, 1, 63, 80
3, 210816, Note_on_c, 1, 60, 80
3, 211196, Note_off_c, 1, 68, 100
3, 211196, Note_off_c, 1, 63, 100
3, 211196, Note_off_c, 1, 60, 100
3, 211200, Note_on_c, 1, 68, 80
3, 211200, Note_on_c, 1, 63, 80
3, 211200, Note_on_c, 1, 60, 80
3, 211580, Note_off_c, 1, 68, 100
3, 211580, Note_off_c, 1, 63, 100
3, 211580, Note_off_c, 1, 60, 100
3, 211584, Note_on_c, 1, 68, 80
3, 211584, Note_on_c, 1, 63, 80
3, 211584, Note_on_c, 1, 60, 80
3, 211964, Note_off_c, 1, 68, 100
3, 211964, Note_off_c, 1, 63, 100
3, 211964, Note_off_c, 1, 60, 100
3, 212352, Note_on_c, 1, 67, 80
3, 212352, Note_on_c, 1, 63, 80
3, 212352, Note_on_c, 1, 58, 80
3, 212732, Note_off_c, 1, 67, 100
3, 212732, Note_off_c, 1, 63, 100
3, 212732, Note_off_c, 1, 58, 100
3, 212736, Note_on_c, 1, 67, 80
3, 212736, Note_on_c, 1, 63, 80
3, 212736, Note_on_c, 1, 58, 80
3, 213116, Note_off_c, 1, 67, 100
3, 213116, Note_off_c, 1, 63, 100
3, 213116, Note_off_c, 1, 58, 100
3, 213120, Note_on_c, 1, 67, 80
3, 213120, Note_on_c, 1, 63, 80
3, 213120, Note_on_c, 1, 58, 80
3, 213500, Note_off_c, 1, 67, 100
3, 213500, Note_off_c, 1, 63, 100
3, 213500, Note_off_c, 1, 58, 100
3, 213888, Note_on_c, 1, 70, 80
3, 213888, Note_on_c, 1, 63, 80
3, 213888, Note_on_c, 1, 61, 80
3, 214268, Note_off_c, 1, 70, 100
3, 214268, Note_off_c, 1, 63, 100
3, 214268, Note_off_c, 1, 61, 100
3, 214272, Note_on_c, 1, 70, 80
3, 214272, Note_on_c, 1, 63, 80
3, 214272, Note_on_c, 1, 61, 80
3, 214652, Note_off_c, 1, 70, 100
3, 214652, Note_off_c, 1, 63, 100
3, 214652, Note_off_c, 1, 61, 100
3, 214656, Note_on_c, 1, 70, 80
3, 214656, Note_on_c, 1, 63, 80
3, 214656, Note_on_c, 1, 61, 80
3, 215036, Note_off_c, 1, 70, 100
3, 215036, Note_off_c, 1, 63, 100
3, 215036, Note_off_c, 1, 61, 100
3, 215424, Note_on_c, 1, 55, 80
3, 215424, Note_on_c, 1, 51, 80
3, 215804, Note_off_c, 1, 55, 100
3, 215804, Note_off_c, 1, 51, 100
3, 215808, Note_on_c, 1, 56, 80
3, 215808, Note_on_c, 1, 53, 80
3, 216188, Note_off_c, 1, 56, 100
3, 216188, Note_off_c, 1, 53, 100
3, 216192, Note_on_c, 1, 58, 80
3, 216192, Note_on_c, 1, 55, 80
3, 216572, Note_off_c, 1, 58, 100
3, 216572, Note_off_c, 1, 55, 100
3, 216576, Note_on_c, 1, 60, 80
3, 216576, Note_on_c, 1, 56, 80
3, 216956, Note_off_c, 1, 60, 100
3, 216956, Note_off_c, 1, 56, 100
3, 216960, Note_on_c, 1, 61, 80
3, 216960, Note_on_c, 1, 58, 80
3, 217340, Note_off_c, 1, 61, 100
3, 217340, Note_off_c, 1, 58, 100
3, 217344, Note_on_c, 1, 63, 80
3, 217344, Note_on_c, 1, 60, 80
3, 217724, Note_off_c, 1, 63, 100
3, 217724, Note_off_c, 1, 60, 100
3, 217728, Note_on_c, 1, 61, 80
3, 217728, Note_on_c, 1, 58, 80
3, 218108, Note_off_c, 1, 61, 100
3, 218108, Note_off_c, 1, 58, 100
3, 218496, Note_on_c, 1, 56, 80
3, 218496, Note_on_c, 1, 60, 80
3, 218876, Note_off_c, 1, 56, 100
3, 218876, Note_off_c, 1, 60, 100
3, 218880, Note_on_c, 1, 56, 80
3, 218880, Note_on_c, 1, 60, 80
3, 219260, Note_off_c, 1, 56, 100
3, 219260, Note_off_c, 1, 60, 100
3, 219264, Note_on_c, 1, 56, 80
3, 219264, Note_on_c, 1, 60, 80
3, 219644, Note_off_c, 1, 56, 100
3, 219644, Note_off_c, 1, 60, 100
3, 220032, Note_on_c, 1, 54, 89
3, 220032, Note_on_c, 1, 56, 89
3, 220032, Note_on_c, 1, 63, 89
3, 220412, Note_off_c, 1, 54, 100
3, 220412, Note_off_c, 1, 56, 100
3, 220412, Note_off_c, 1, 63, 100
3, 220416, Note_on_c, 1, 54, 99
3, 220416, Note_on_c, 1, 56, 99
3, 220416, Note_on_c, 1, 63, 99
3, 220796, Note_off_c, 1, 54, 100
3, 220796, Note_off_c, 1, 56, 100
3, 220796, Note_off_c, 1, 63, 100
3, 220800, Note_on_c, 1, 54, 109
3, 220800, Note_on_c, 1, 56, 109
3, 220800, Note_on_c, 1, 63, 109
3, 221180, Note_off_c, 1, 54, 100
3, 221180, Note_off_c, 1, 56, 100
3, 221180, Note_off_c, 1, 63, 100
3, 221568, Note_on_c, 1, 53, 110
3, 221568, Note_on_c, 1, 56, 110
3, 221568, Note_on_c, 1, 61, 110
3, 221948, Note_off_c, 1, 53, 100
3, 221948, Note_off_c, 1, 56, 100
3, 221948, Note_off_c, 1, 61, 100
3, 221952, Note_on_c, 1, 53, 110
3, 221952, Note_on_c, 1, 56, 110
3, 221952, Note_on_c, 1, 61, 110
3, 222332, Note_off_c, 1, 53, 100
3, 222332, Note_off_c, 1, 56, 100
3, 222332, Note_off_c, 1, 61, 100
3, 222336, Note_on_c, 1, 53, 110
3, 222336, Note_on_c, 1, 56, 110
3, 222336, Note_on_c, 1, 61, 110
3, 222716, Note_off_c, 1, 53, 100
3, 222716, Note_off_c, 1, 56, 100
3, 222716, Note_off_c, 1, 61, 100
3, 223104, Note_on_c, 1, 51, 110
3, 223104, Note_on_c, 1, 54, 110
3, 223104, Note_on_c, 1, 57, 110
3, 223484, Note_off_c, 1, 51, 100
3, 223484, Note_off_c, 1, 54, 100
3, 223484, Note_off_c, 1, 57, 100
3, 223488, Note_on_c, 1, 51, 110
3, 223488, Note_on_c, 1, 54, 110
3, 223488, Note_on_c, 1, 57, 110
3, 223868, Note_off_c, 1, 51, 100
3, 223868, Note_off_c, 1, 54, 100
3, 223868, Note_off_c, 1, 57, 100
3, 223872, Note_on_c, 1, 51, 110
3, 223872, Note_on_c, 1, 54, 110
3, 223872, Note_on_c, 1, 57, 110
3, 224252, Note_off_c, 1, 51, 100
3, 224252, Note_off_c, 1, 54, 100
3, 224252, Note_off_c, 1, 57, 100
3, 224640, Note_on_c, 1, 58, 110
3, 224640, Note_on_c, 1, 53, 110
3, 224640, Note_on_c, 1, 49, 110
3, 225020, Note_off_c, 1, 58, 100
3, 225020, Note_off_c, 1, 53, 100
3, 225020, Note_off_c, 1, 49, 100
3, 225024, Note_on_c, 1, 58, 110
3, 225024, Note_on_c, 1, 53, 110
3, 225024, Note_on_c, 1, 49, 110
3, 225404, Note_off_c, 1, 58, 100
3, 225404, Note_off_c, 1, 53, 100
3, 225404, Note_off_c, 1, 49, 100
3, 225408, Note_on_c, 1, 58, 110
3, 225408, Note_on_c, 1, 53, 110
3, 225408, Note_on_c, 1, 49, 110
3, 225788, Note_off_c, 1, 58, 100
3, 225788, Note_off_c, 1, 53, 100
3, 225788, Note_off_c, 1, 49, 100
3, 226176, Note_on_c, 1, 51, 110
3, 226176, Note_on_c, 1, 55, 110
3, 226176, Note_on_c, 1, 61, 110
3, 226556, Note_off_c, 1, 51, 100
3, 226556, Note_off_c, 1, 55, 100
3, 226556, Note_off_c, 1, 61, 100
3, 226560, Note_on_c, 1, 51, 110
3, 226560, Note_on_c, 1, 55, 110
3, 226560, Note_on_c, 1, 61, 110
3, 226940, Note_off_c, 1, 51, 100
3, 226940, Note_off_c, 1, 55, 100
3, 226940, Note_off_c, 1, 61, 100
3, 226944, Note_on_c, 1, 51, 110
3, 226944, Note_on_c, 1, 55, 110
3, 226944, Note_on_c, 1, 61, 110
3, 227324, Note_off_c, 1, 51, 100
3, 227324, Note_off_c, 1, 55, 100
3, 227324, Note_off_c, 1, 61, 100
3, 227712, Note_on_c, 1, 56, 110
3, 227712, Note_on_c, 1, 61, 110
3, 228092, Note_off_c, 1, 56, 100
3, 228092, Note_off_c, 1, 61, 100
3, 228096, Note_on_c, 1, 56, 110
3, 228096, Note_on_c, 1, 61, 110
3, 228476, Note_off_c, 1, 56, 100
3, 228476, Note_off_c, 1, 61, 100
3, 228480, Note_on_c, 1, 56, 110
3, 228480, Note_on_c, 1, 61, 110
3, 228860, Note_off_c, 1, 56, 100
3, 228860, Note_off_c, 1, 61, 100
3, 229248, Note_on_c, 1, 56, 100
3, 229248, Note_on_c, 1, 60, 100
3, 229628, Note_off_c, 1, 56, 100
3, 229628, Note_off_c, 1, 60, 100
3, 229632, Note_on_c, 1, 60, 100
3, 229632, Note_on_c, 1, 63, 100
3, 230012, Note_off_c, 1, 60, 100
3, 230012, Note_off_c, 1, 63, 100
3, 230016, Note_on_c, 1, 56, 100
3, 230016, Note_on_c, 1, 60, 100
3, 230396, Note_off_c, 1, 56, 100
3, 230396, Note_off_c, 1, 60, 100
3, 230784, Note_on_c, 1, 63, 100
3, 230784, Note_on_c, 1, 58, 100
3, 230784, Note_on_c, 1, 55, 100
3, 231164, Note_off_c, 1, 63, 100
3, 231164, Note_off_c, 1, 58, 100
3, 231164, Note_off_c, 1, 55, 100
3, 231168, Note_on_c, 1, 63, 100
3, 231168, Note_on_c, 1, 58, 100
3, 231168, Note_on_c, 1, 55, 100
3, 231548, Note_off_c, 1, 63, 100
3, 231548, Note_off_c, 1, 58, 100
3, 231548, Note_off_c, 1, 55, 100
3, 231552, Note_on_c, 1, 63, 100
3, 231552, Note_on_c, 1, 58, 100
3, 231552, Note_on_c, 1, 55, 100
3, 231932, Note_off_c, 1, 63, 100
3, 231932, Note_off_c, 1, 58, 100
3, 231932, Note_off_c, 1, 55, 100
3, 232320, Note_on_c, 1, 63, 100
3, 232320, Note_on_c, 1, 61, 100
3, 232320, Note_on_c, 1, 58, 100
3, 232700, Note_off_c, 1, 63, 100
3, 232700, Note_off_c, 1, 61, 100
3, 232700, Note_off_c, 1, 58, 100
3, 232704, Note_on_c, 1, 63, 100
3, 232704, Note_on_c, 1, 61, 100
3, 232704, Note_on_c, 1, 58, 100
3, 233084, Note_off_c, 1, 63, 100
3, 233084, Note_off_c, 1, 61, 100
3, 233084, Note_off_c, 1, 58, 100
3, 233088, Note_on_c, 1, 63, 100
3, 233088, Note_on_c, 1, 61, 100
3, 233088, Note_on_c, 1, 58, 100
3, 233468, Note_off_c, 1, 63, 100
3, 233468, Note_off_c, 1, 61, 100
3, 233468, Note_off_c, 1, 58, 100
3, 233856, Note_on_c, 1, 63, 100
3, 233856, Note_on_c, 1, 60, 100
3, 233856, Note_on_c, 1, 56, 100
3, 234236, Note_off_c, 1, 63, 100
3, 234236, Note_off_c, 1, 60, 100
3, 234236, Note_off_c, 1, 56, 100
3, 234240, Note_on_c, 1, 63, 100
3, 234240, Note_on_c, 1, 60, 100
3, 234240, Note_on_c, 1, 56, 100
3, 234620, Note_off_c, 1, 63, 100
3, 234620, Note_off_c, 1, 60, 100
3, 234620, Note_off_c, 1, 56, 100
3, 234624, Note_on_c, 1, 63, 100
3, 234624, Note_on_c, 1, 60, 100
3, 234624, Note_on_c, 1, 56, 100
3, 235004, Note_off_c, 1, 63, 100
3, 235004, Note_off_c, 1, 60, 100
3, 235004, Note_off_c, 1, 56, 100
3, 235392, Note_on_c, 1, 68, 100
3, 235392, Note_on_c, 1, 63, 100
3, 235392, Note_on_c, 1, 60, 100
3, 235772, Note_off_c, 1, 68, 100
3, 235772, Note_off_c, 1, 63, 100
3, 235772, Note_off_c, 1, 60, 100
3, 235776, Note_on_c, 1, 68, 100
3, 235776, Note_on_c, 1, 63, 100
3, 235776, Note_on_c, 1, 60, 100
3, 236156, Note_off_c, 1, 68, 100
3, 236156, Note_off_c, 1, 63, 100
3, 236156, Note_off_c, 1, 60, 100
3, 236160, Note_on_c, 1, 68, 100
3, 236160, Note_on_c, 1, 63, 100
3, 236160, Note_on_c, 1, 60, 100
3, 236540, Note_off_c, 1, 68, 100
3, 236540, Note_off_c, 1, 63, 100
3, 236540, Note_off_c, 1, 60, 100
3, 236928, Note_on_c, 1, 67, 100
3, 236928, Note_on_c, 1, 63, 100
3, 236928, Note_on_c, 1, 58, 100
3, 237308, Note_off_c, 1, 67, 100
3, 237308, Note_off_c, 1, 63, 100
3, 237308, Note_off_c, 1, 58, 100
3, 237312, Note_on_c, 1, 67, 100
3, 237312, Note_on_c, 1, 63, 100
3, 237312, Note_on_c, 1, 58, 100
3, 237692, Note_off_c, 1, 67, 100
3, 237692, Note_off_c, 1, 63, 100
3, 237692, Note_off_c, 1, 58, 100
3, 237696, Note_on_c, 1, 67, 100
3, 237696, Note_on_c, 1, 63, 100
3, 237696, Note_on_c, 1, 58, 100
3, 238076, Note_off_c, 1, 67, 100
3, 238076, Note_off_c, 1, 63, 100
3, 238076, Note_off_c, 1, 58, 100
3, 238464, Note_on_c, 1, 70, 100
3, 238464, Note_on_c, 1, 63, 100
3, 238464, Note_on_c, 1, 61, 100
3, 238844, Note_off_c, 1, 70, 100
3, 238844, Note_off_c, 1, 63, 100
3, 238844, Note_off_c, 1, 61, 100
3, 238848, Note_on_c, 1, 70, 100
3, 238848, Note_on_c, 1, 63, 100
3, 238848, Note_on_c, 1, 61, 100
3, 239228, Note_off_c, 1, 70, 100
3, 239228, Note_off_c, 1, 63, 100
3, 239228, Note_off_c, 1, 61, 100
3, 239232, Note_on_c, 1, 70, 100
3, 239232, Note_on_c, 1, 63, 100
3, 239232, Note_on_c, 1, 61, 100
3, 239612, Note_off_c, 1, 70, 100
3, 239612, Note_off_c, 1, 63, 100
3, 239612, Note_off_c, 1, 61, 100
3, 240000, Note_on_c, 1, 55, 100
3, 240000, Note_on_c, 1, 51, 100
3, 240380, Note_off_c, 1, 55, 100
3, 240380, Note_off_c, 1, 51, 100
3, 240384, Note_on_c, 1, 56, 100
3, 240384, Note_on_c, 1, 53, 100
3, 240764, Note_off_c, 1, 56, 100
3, 240764, Note_off_c, 1, 53, 100
3, 240768, Note_on_c, 1, 58, 100
3, 240768, Note_on_c, 1, 55, 100
3, 241148, Note_off_c, 1, 58, 100
3, 241148, Note_off_c, 1, 55, 100
3, 241152, Note_on_c, 1, 60, 100
3, 241152, Note_on_c, 1, 56, 100
3, 241532, Note_off_c, 1, 60, 100
3, 241532, Note_off_c, 1, 56, 100
3, 241536, Note_on_c, 1, 61, 100
3, 241536, Note_on_c, 1, 58, 100
3, 241916, Note_off_c, 1, 61, 100
3, 241916, Note_off_c, 1, 58, 100
3, 241920, Note_on_c, 1, 63, 100
3, 241920, Note_on_c, 1, 60, 100
3, 242300, Note_off_c, 1, 63, 100
3, 242300, Note_off_c, 1, 60, 100
3, 242304, Note_on_c, 1, 61, 100
3, 242304, Note_on_c, 1, 58, 100
3, 242684, Note_off_c, 1, 61, 100
3, 242684, Note_off_c, 1, 58, 100
3, 243072, Note_on_c, 1, 56, 100
3, 243072, Note_on_c, 1, 60, 100
3, 243452, Note_off_c, 1, 56, 100
3, 243452, Note_off_c, 1, 60, 100
3, 243456, Note_on_c, 1, 56, 100
3, 243456, Note_on_c, 1, 60, 100
3, 243836, Note_off_c, 1, 56, 100
3, 243836, Note_off_c, 1, 60, 100
3, 243840, Note_on_c, 1, 56, 100
3, 243840, Note_on_c, 1, 60, 100
3, 244220, Note_off_c, 1, 56, 100
3, 244220, Note_off_c, 1, 60, 100
3, 244608, Note_on_c, 1, 54, 102
3, 244608, Note_on_c, 1, 56, 102
3, 244608, Note_on_c, 1, 63, 102
3, 244988, Note_off_c, 1, 54, 100
3, 244988, Note_off_c, 1, 56, 100
3, 244988, Note_off_c, 1, 63, 100
3, 244992, Note_on_c, 1, 54, 105
3, 244992, Note_on_c, 1, 56, 105
3, 244992, Note_on_c, 1, 63, 105
3, 245372, Note_off_c, 1, 54, 100
3, 245372, Note_off_c, 1, 56, 100
3, 245372, Note_off_c, 1, 63, 100
3, 245376, Note_on_c, 1, 54, 107
3, 245376, Note_on_c, 1, 56, 107
3, 245376, Note_on_c, 1, 63, 107
3, 245756, Note_off_c, 1, 54, 100
3, 245756, Note_off_c, 1, 56, 100
3, 245756, Note_off_c, 1, 63, 100
3, 246144, Note_on_c, 1, 53, 110
3, 246144, Note_on_c, 1, 56, 110
3, 246144, Note_on_c, 1, 61, 110
3, 246524, Note_off_c, 1, 53, 100
3, 246524, Note_off_c, 1, 56, 100
3, 246524, Note_off_c, 1, 61, 100
3, 246528, Note_on_c, 1, 53, 110
3, 246528, Note_on_c, 1, 56, 110
3, 246528, Note_on_c, 1, 61, 110
3, 246908, Note_off_c, 1, 53, 100
3, 246908, Note_off_c, 1, 56, 100
3, 246908, Note_off_c, 1, 61, 100
3, 246912, Note_on_c, 1, 53, 110
3, 246912, Note_on_c, 1, 56, 110
3, 246912, Note_on_c, 1, 61, 110
3, 247292, Note_off_c, 1, 53, 100
3, 247292, Note_off_c, 1, 56, 100
3, 247292, Note_off_c, 1, 61, 100
3, 247680, Note_on_c, 1, 51, 110
3, 247680, Note_on_c, 1, 54, 110
3, 247680, Note_on_c, 1, 57, 110
3, 248060, Note_off_c, 1, 51, 100
3, 248060, Note_off_c, 1, 54, 100
3, 248060, Note_off_c, 1, 57, 100
3, 248064, Note_on_c, 1, 51, 110
3, 248064, Note_on_c, 1, 54, 110
3, 248064, Note_on_c, 1, 57, 110
3, 248444, Note_off_c, 1, 51, 100
3, 248444, Note_off_c, 1, 54, 100
3, 248444, Note_off_c, 1, 57, 100
3, 248448, Note_on_c, 1, 51, 110
3, 248448, Note_on_c, 1, 54, 110
3, 248448, Note_on_c, 1, 57, 110
3, 248828, Note_off_c, 1, 51, 100
3, 248828, Note_off_c, 1, 54, 100
3, 248828, Note_off_c, 1, 57, 100
3, 249216, Note_on_c, 1, 58, 110
3, 249216, Note_on_c, 1, 53, 110
3, 249216, Note_on_c, 1, 49, 110
3, 249596, Note_off_c, 1, 58, 100
3, 249596, Note_off_c, 1, 53, 100
3, 249596, Note_off_c, 1, 49, 100
3, 249600, Note_on_c, 1, 58, 110
3, 249600, Note_on_c, 1, 53, 110
3, 249600, Note_on_c, 1, 49, 110
3, 249980, Note_off_c, 1, 58, 100
3, 249980, Note_off_c, 1, 53, 100
3, 249980, Note_off_c, 1, 49, 100
3, 249984, Note_on_c, 1, 58, 110
3, 249984, Note_on_c, 1, 53, 110
3, 249984, Note_on_c, 1, 49, 110
3, 250364, Note_off_c, 1, 58, 100
3, 250364, Note_off_c, 1, 53, 100
3, 250364, Note_off_c, 1, 49, 100
3, 250752, Note_on_c, 1, 51, 110
3, 250752, Note_on_c, 1, 55, 110
3, 250752, Note_on_c, 1, 61, 110
3, 251132, Note_off_c, 1, 51, 100
3, 251132, Note_off_c, 1, 55, 100
3, 251132, Note_off_c, 1, 61, 100
3, 251136, Note_on_c, 1, 51, 110
3, 251136, Note_on_c, 1, 55, 110
3, 251136, Note_on_c, 1, 61, 110
3, 251516, Note_off_c, 1, 51, 100
3, 251516, Note_off_c, 1, 55, 100
3, 251516, Note_off_c, 1, 61, 100
3, 251520, Note_on_c, 1, 51, 110
3, 251520, Note_on_c, 1, 55, 110
3, 251520, Note_on_c, 1, 61, 110
3, 251900, Note_off_c, 1, 51, 100
3, 251900, Note_off_c, 1, 55, 100
3, 251900, Note_off_c, 1, 61, 100
3, 251904, Note_on_c, 1, 44, 100
3, 252032, Note_on_c, 1, 48, 70
3, 252156, Note_off_c, 1, 44, 100
3, 252160, Note_on_c, 1, 51, 70
3, 252284, Note_off_c, 1, 48, 100
3, 252288, Note_on_c, 1, 44, 70
3, 252412, Note_off_c, 1, 51, 100
3, 252416, Note_on_c, 1, 48, 70
3, 252540, Note_off_c, 1, 44, 100
3, 252544, Note_on_c, 1, 51, 70
3, 252668, Note_off_c, 1, 48, 100
3, 252672, Note_on_c, 1, 44, 70
3, 252796, Note_off_c, 1, 51, 100
3, 252800, Note_on_c, 1, 48, 70
3, 252924, Note_off_c, 1, 44, 100
3, 252928, Note_on_c, 1, 51, 70
3, 253052, Note_off_c, 1, 48, 100
3, 253056, Note_on_c, 1, 44, 70
3, 253180, Note_off_c, 1, 51, 100
3, 253184, Note_on_c, 1, 48, 70
3, 253308, Note_off_c, 1, 44, 100
3, 253312, Note_on_c, 1, 51, 70
3, 253436, Note_off_c, 1, 48, 100
3, 253440, Note_on_c, 1, 44, 70
3, 253564, Note_off_c, 1, 51, 100
3, 253568, Note_on_c, 1, 48, 70
3, 253692, Note_off_c, 1, 44, 100
3, 253696, Note_on_c, 1, 51, 70
3, 253820, Note_off_c, 1, 48, 100
3, 253824, Note_on_c, 1, 44, 70
3, 253948, Note_off_c, 1, 51, 100
3, 253952, Note_on_c, 1, 48, 70
3, 254076, Note_off_c, 1, 44, 100
3, 254080, Note_on_c, 1, 51, 70
3, 254204, Note_off_c, 1, 48, 100
3, 254208, Note_on_c, 1, 44, 70
3, 254332, Note_off_c, 1, 51, 100
3, 254336, Note_on_c, 1, 48, 70
3, 254460, Note_off_c, 1, 44, 100
3, 254464, Note_on_c, 1, 51, 70
3, 254588, Note_off_c, 1, 48, 100
3, 254592, Note_on_c, 1, 44, 70
3, 254716, Note_off_c, 1, 51, 100
3, 254720, Note_on_c, 1, 48, 70
3, 254844, Note_off_c, 1, 44, 100
3, 254848, Note_on_c, 1, 51, 70
3, 254972, Note_off_c, 1, 48, 100
3, 254972, Note_off_c, 1, 51, 100
3, 254976, Note_on_c, 1, 44, 70
3, 255356, Note_off_c, 1, 44, 100
3, 255360, Note_on_c, 1, 56, 70
3, 255360, Note_on_c, 1, 60, 70
3, 255360, Note_on_c, 1, 63, 70
3, 255740, Note_off_c, 1, 56, 100
3, 255740, Note_off_c, 1, 60, 100
3, 255740, Note_off_c, 1, 63, 100
3, 255744, Note_on_c, 1, 56, 70
3, 255744, Note_on_c, 1, 60, 70
3, 255744, Note_on_c, 1, 63, 70
3, 256124, Note_off_c, 1, 56, 100
3, 256124, Note_off_c, 1, 60, 100
3, 256124, Note_off_c, 1, 63, 100
3, 256128, Note_on_c, 1, 56, 70
3, 256128, Note_on_c, 1, 60, 70
3, 256128, Note_on_c, 1, 63, 70
3, 256508, Note_off_c, 1, 56, 100
3, 256508, Note_off_c, 1, 60, 100
3, 256508, Note_off_c, 1, 63, 100
3, 256512, Note_on_c, 1, 56, 70
3, 256512, Note_on_c, 1, 60, 70
3, 256512, Note_on_c, 1, 63, 70
3, 256892, Note_off_c, 1, 56, 100
3, 256892, Note_off_c, 1, 60, 100
3, 256892, Note_off_c, 1, 63, 100
3, 256896, Note_on_c, 1, 56, 70
3, 256896, Note_on_c, 1, 60, 70
3, 256896, Note_on_c, 1, 63, 70
3, 257276, Note_off_c, 1, 56, 100
3, 257276, Note_off_c, 1, 60, 100
3, 257276, Note_off_c, 1, 63, 100
3, 257280, Note_on_c, 1, 56, 70
3, 257280, Note_on_c, 1, 60, 70
3, 257280, Note_on_c, 1, 63, 70
3, 257660, Note_off_c, 1, 56, 100
3, 257660, Note_off_c, 1, 60, 100
3, 257660, Note_off_c, 1, 63, 100
3, 257664, Note_on_c, 1, 56, 70
3, 257664, Note_on_c, 1, 60, 70
3, 257664, Note_on_c, 1, 63, 70
3, 258044, Note_off_c, 1, 56, 100
3, 258044, Note_off_c, 1, 60, 100
3, 258044, Note_off_c, 1, 63, 100
3, 258048, Note_on_c, 1, 43, 70
3, 258176, Note_on_c, 1, 48, 70
3, 258300, Note_off_c, 1, 43, 100
3, 258304, Note_on_c, 1, 52, 70
3, 258428, Note_off_c, 1, 48, 100
3, 258432, Note_on_c, 1, 43, 70
3, 258556, Note_off_c, 1, 52, 100
3, 258560, Note_on_c, 1, 48, 70
3, 258684, Note_off_c, 1, 43, 100
3, 258688, Note_on_c, 1, 52, 70
3, 258812, Note_off_c, 1, 48, 100
3, 258816, Note_on_c, 1, 43, 70
3, 258940, Note_off_c, 1, 52, 100
3, 258944, Note_on_c, 1, 48, 70
3, 259068, Note_off_c, 1, 43, 100
3, 259072, Note_on_c, 1, 52, 70
3, 259196, Note_off_c, 1, 48, 100
3, 259200, Note_on_c, 1, 43, 70
3, 259324, Note_off_c, 1, 52, 100
3, 259328, Note_on_c, 1, 48, 70
3, 259452, Note_off_c, 1, 43, 100
3, 259456, Note_on_c, 1, 52, 70
3, 259580, Note_off_c, 1, 48, 100
3, 259584, Note_on_c, 1, 43, 70
3, 259708, Note_off_c, 1, 52, 100
3, 259712, Note_on_c, 1, 48, 70
3, 259836, Note_off_c, 1, 43, 100
3, 259840, Note_on_c, 1, 52, 70
3, 259964, Note_off_c, 1, 48, 100
3, 259968, Note_on_c, 1, 43, 70
3, 260092, Note_off_c, 1, 52, 100
3, 260096, Note_on_c, 1, 48, 70
3, 260220, Note_off_c, 1, 43, 100
3, 260224, Note_on_c, 1, 52, 70
3, 260348, Note_off_c, 1, 48, 100
3, 260352, Note_on_c, 1, 43, 70
3, 260476, Note_off_c, 1, 52, 100
3, 260480, Note_on_c, 1, 48, 70
3, 260604, Note_off_c, 1, 43, 100
3, 260608, Note_on_c, 1, 52, 70
3, 260732, Note_off_c, 1, 48, 100
3, 260736, Note_on_c, 1, 43, 70
3, 260860, Note_off_c, 1, 52, 100
3, 260864, Note_on_c, 1, 48, 70
3, 260988, Note_off_c, 1, 43, 100
3, 260992, Note_on_c, 1, 52, 70
3, 261116, Note_off_c, 1, 48, 100
3, 261116, Note_off_c, 1, 52, 100
3, 261120, Note_on_c, 1, 43, 70
3, 261500, Note_off_c, 1, 43, 100
3, 261504, Note_on_c, 1, 55, 70
3, 261504, Note_on_c, 1, 58, 70
3, 261504, Note_on_c, 1, 64, 70
3, 261884, Note_off_c, 1, 55, 100
3, 261884, Note_off_c, 1, 58, 100
3, 261884, Note_off_c, 1, 64, 100
3, 261888, Note_on_c, 1, 55, 70
3, 261888, Note_on_c, 1, 58, 70
3, 261888, Note_on_c, 1, 64, 70
3, 262268, Note_off_c, 1, 55, 100
3, 262268, Note_off_c, 1, 58, 100
3, 262268, Note_off_c, 1, 64, 100
3, 262272, Note_on_c, 1, 55, 70
3, 262272, Note_on_c, 1, 58, 70
3, 262272, Note_on_c, 1, 64, 70
3, 262652, Note_off_c, 1, 55, 100
3, 262652, Note_off_c, 1, 58, 100
3, 262652, Note_off_c, 1, 64, 100
3, 262656, Note_on_c, 1, 55, 70
3, 262656, Note_on_c, 1, 58, 70
3, 262656, Note_on_c, 1, 64, 70
3, 263036, Note_off_c, 1, 55, 100
3, 263036, Note_off_c, 1, 58, 100
3, 263036, Note_off_c, 1, 64, 100
3, 263040, Note_on_c, 1, 55, 70
3, 263040, Note_on_c, 1, 58, 70
3, 263040, Note_on_c, 1, 64, 70
3, 263420, Note_off_c, 1, 55, 100
3, 263420, Note_off_c, 1, 58, 100
3, 263420, Note_off_c, 1, 64, 100
3, 263424, Note_on_c, 1, 55, 70
3, 263424, Note_on_c, 1, 58, 70
3, 263424, Note_on_c, 1, 64, 70
3, 263804, Note_off_c, 1, 55, 100
3, 263804, Note_off_c, 1, 58, 100
3, 263804, Note_off_c, 1, 64, 100
3, 263808, Note_on_c, 1, 55, 70
3, 263808, Note_on_c, 1, 58, 70
3, 263808, Note_on_c, 1, 64, 70
3, 264188, Note_off_c, 1, 55, 100
3, 264188, Note_off_c, 1, 58, 100
3, 264188, Note_off_c, 1, 64, 100
3, 264192, Note_on_c, 1, 41, 70
3, 264320, Note_on_c, 1, 48, 70
3, 264444, Note_off_c, 1, 41, 100
3, 264448, Note_on_c, 1, 53, 70
3, 264572, Note_off_c, 1, 48, 100
3, 264576, Note_on_c, 1, 41, 70
3, 264700, Note_off_c, 1, 53, 100
3, 264704, Note_on_c, 1, 48, 70
3, 264828, Note_off_c, 1, 41, 100
3, 264832, Note_on_c, 1, 53, 70
3, 264956, Note_off_c, 1, 48, 100
3, 264960, Note_on_c, 1, 41, 70
3, 265084, Note_off_c, 1, 53, 100
3, 265088, Note_on_c, 1, 48, 70
3, 265212, Note_off_c, 1, 41, 100
3, 265216, Note_on_c, 1, 53, 70
3, 265340, Note_off_c, 1, 48, 100
3, 265344, Note_on_c, 1, 41, 70
3, 265468, Note_off_c, 1, 53, 100
3, 265472, Note_on_c, 1, 48, 70
3, 265596, Note_off_c, 1, 41, 100
3, 265600, Note_on_c, 1, 53, 70
3, 265724, Note_off_c, 1, 48, 100
3, 265728, Note_on_c, 1, 41, 70
3, 265852, Note_off_c, 1, 53, 100
3, 265856, Note_on_c, 1, 48, 70
3, 265980, Note_off_c, 1, 41, 100
3, 265984, Note_on_c, 1, 53, 70
3, 266108, Note_off_c, 1, 48, 100
3, 266112, Note_on_c, 1, 41, 70
3, 266236, Note_off_c, 1, 53, 100
3, 266240, Note_on_c, 1, 48, 70
3, 266364, Note_off_c, 1, 41, 100
3, 266368, Note_on_c, 1, 53, 70
3, 266492, Note_off_c, 1, 48, 100
3, 266496, Note_on_c, 1, 41, 70
3, 266620, Note_off_c, 1, 53, 100
3, 266624, Note_on_c, 1, 48, 70
3, 266748, Note_off_c, 1, 41, 100
3, 266752, Note_on_c, 1, 53, 70
3, 266876, Note_off_c, 1, 48, 100
3, 266880, Note_on_c, 1, 41, 70
3, 267004, Note_off_c, 1, 53, 100
3, 267008, Note_on_c, 1, 48, 70
3, 267132, Note_off_c, 1, 41, 100
3, 267136, Note_on_c, 1, 53, 70
3, 267260, Note_off_c, 1, 48, 100
3, 267260, Note_off_c, 1, 53, 100
3, 267264, Note_on_c, 1, 41, 70
3, 267644, Note_off_c, 1, 41, 100
3, 267648, Note_on_c, 1, 53, 70
3, 267648, Note_on_c, 1, 56, 70
3, 268028, Note_off_c, 1, 53, 100
3, 268028, Note_off_c, 1, 56, 100
3, 268032, Note_on_c, 1, 53, 70
3, 268032, Note_on_c, 1, 56, 70
3, 268412, Note_off_c, 1, 53, 100
3, 268412, Note_off_c, 1, 56, 100
3, 268416, Note_on_c, 1, 53, 70
3, 268416, Note_on_c, 1, 56, 70
3, 268796, Note_off_c, 1, 53, 100
3, 268796, Note_off_c, 1, 56, 100
3, 268800, Note_on_c, 1, 49, 111
3, 268800, Note_on_c, 1, 56, 100
3, 268800, Note_on_c, 1, 53, 100
3, 269180, Note_off_c, 1, 56, 100
3, 269180, Note_off_c, 1, 53, 100
3, 269184, Note_on_c, 1, 53, 80
3, 269184, Note_on_c, 1, 56, 80
3, 269564, Note_off_c, 1, 53, 100
3, 269564, Note_off_c, 1, 56, 100
3, 269568, Note_on_c, 1, 53, 80
3, 269568, Note_on_c, 1, 56, 80
3, 269948, Note_off_c, 1, 53, 100
3, 269948, Note_off_c, 1, 56, 100
3, 269952, Note_on_c, 1, 53, 80
3, 269952, Note_on_c, 1, 56, 80
3, 270332, Note_off_c, 1, 49, 100
3, 270332, Note_off_c, 1, 53, 100
3, 270332, Note_off_c, 1, 56, 100
3, 270336, Note_on_c, 1, 54, 100
3, 270336, Note_on_c, 1, 56, 100
3, 270336, Note_on_c, 1, 48, 112
3, 270716, Note_off_c, 1, 54, 100
3, 270716, Note_off_c, 1, 56, 100
3, 270720, Note_on_c, 1, 54, 80
3, 270720, Note_on_c, 1, 56, 80
3, 271100, Note_off_c, 1, 54, 100
3, 271100, Note_off_c, 1, 56, 100
3, 271104, Note_on_c, 1, 54, 80
3, 271104, Note_on_c, 1, 56, 80
3, 271484, Note_off_c, 1, 54, 100
3, 271484, Note_off_c, 1, 56, 100
3, 271488, Note_on_c, 1, 54, 80
3, 271488, Note_on_c, 1, 56, 80
3, 271868, Note_off_c, 1, 48, 100
3, 271868, Note_off_c, 1, 54, 100
3, 271868, Note_off_c, 1, 56, 100
3, 271872, Note_on_c, 1, 54, 100
3, 271872, Note_on_c, 1, 56, 100
3, 271872, Note_on_c, 1, 51, 113
3, 272252, Note_off_c, 1, 54, 100
3, 272252, Note_off_c, 1, 56, 100
3, 272256, Note_on_c, 1, 54, 80
3, 272256, Note_on_c, 1, 56, 80
3, 272636, Note_off_c, 1, 54, 100
3, 272636, Note_off_c, 1, 56, 100
3, 272640, Note_on_c, 1, 54, 80
3, 272640, Note_on_c, 1, 56, 80
3, 273020, Note_off_c, 1, 54, 100
3, 273020, Note_off_c, 1, 56, 100
3, 273024, Note_on_c, 1, 54, 80
3, 273024, Note_on_c, 1, 56, 80
3, 273404, Note_off_c, 1, 51, 100
3, 273404, Note_off_c, 1, 54, 100
3, 273404, Note_off_c, 1, 56, 100
3, 273408, Note_on_c, 1, 49, 110
3, 273408, Note_on_c, 1, 56, 100
3, 273408, Note_on_c, 1, 53, 100
3, 273788, Note_off_c, 1, 56, 100
3, 273788, Note_off_c, 1, 53, 100
3, 273792, Note_on_c, 1, 53, 80
3, 273792, Note_on_c, 1, 56, 80
3, 274172, Note_off_c, 1, 53, 100
3, 274172, Note_off_c, 1, 56, 100
3, 274176, Note_on_c, 1, 53, 80
3, 274176, Note_on_c, 1, 56, 80
3, 274556, Note_off_c, 1, 53, 100
3, 274556, Note_off_c, 1, 56, 100
3, 274560, Note_on_c, 1, 53, 80
3, 274560, Note_on_c, 1, 56, 80
3, 274940, Note_off_c, 1, 49, 100
3, 274940, Note_off_c, 1, 53, 100
3, 274940, Note_off_c, 1, 56, 100
3, 274944, Note_on_c, 1, 48, 110
3, 274944, Note_on_c, 1, 51, 110
3, 274944, Note_on_c, 1, 53, 110
3, 275324, Note_off_c, 1, 51, 100
3, 275324, Note_off_c, 1, 53, 100
3, 275328, Note_on_c, 1, 51, 80
3, 275328, Note_on_c, 1, 53, 80
3, 275708, Note_off_c, 1, 51, 100
3, 275708, Note_off_c, 1, 53, 100
3, 275712, Note_on_c, 1, 51, 80
3, 275712, Note_on_c, 1, 53, 80
3, 276092, Note_off_c, 1, 51, 100
3, 276092, Note_off_c, 1, 53, 100
3, 276096, Note_on_c, 1, 51, 80
3, 276096, Note_on_c, 1, 53, 80
3, 276476, Note_off_c, 1, 48, 100
3, 276476, Note_off_c, 1, 51, 100
3, 276476, Note_off_c, 1, 53, 100
3, 276480, Note_on_c, 1, 46, 120
3, 276864, Note_on_c, 1, 49, 120
3, 276864, Note_on_c, 1, 53, 120
3, 277244, Note_off_c, 1, 49, 100
3, 277244, Note_off_c, 1, 53, 100
3, 277248, Note_on_c, 1, 49, 120
3, 277248, Note_on_c, 1, 53, 120
3, 277628, Note_off_c, 1, 49, 100
3, 277628, Note_off_c, 1, 53, 100
3, 277632, Note_on_c, 1, 49, 120
3, 277632, Note_on_c, 1, 53, 120
3, 278012, Note_off_c, 1, 46, 100
3, 278012, Note_off_c, 1, 49, 100
3, 278012, Note_off_c, 1, 53, 100
3, 278016, Note_on_c, 1, 46, 120
3, 278400, Note_on_c, 1, 55, 120
3, 278400, Note_on_c, 1, 49, 120
3, 278780, Note_off_c, 1, 46, 100
3, 278780, Note_off_c, 1, 55, 100
3, 278780, Note_off_c, 1, 49, 100
3, 278784, Note_on_c, 1, 47, 120
3, 279168, Note_on_c, 1, 55, 120
3, 279168, Note_on_c, 1, 50, 120
3, 279548, Note_off_c, 1, 47, 100
3, 279548, Note_off_c, 1, 55, 100
3, 279548, Note_off_c, 1, 50, 100
3, 279552, Note_on_c, 1, 48, 110
3, 279680, Note_on_c, 1, 52, 110
3, 279804, Note_off_c, 1, 48, 100
3, 279808, Note_on_c, 1, 55, 110
3, 279932, Note_off_c, 1, 52, 100
3, 280060, Note_off_c, 1, 55, 100
3, 280320, Note_on_c, 1, 60, 80
3, 280700, Note_off_c, 1, 60, 100
3, 280704, Note_on_c, 1, 60, 80
3, 281084, Note_off_c, 1, 60, 100
3, 281088, Note_on_c, 1, 60, 80
3, 281468, Note_off_c, 1, 60, 100
3, 281856, Note_on_c, 1, 48, 80
3, 282236, Note_off_c, 1, 48, 100
3, 282240, Note_on_c, 1, 47, 80
3, 282620, Note_off_c, 1, 47, 100
3, 282624, Note_on_c, 1, 48, 80
3, 282752, Note_on_c, 1, 52, 80
3, 282876, Note_off_c, 1, 48, 100
3, 282880, Note_on_c, 1, 55, 80
3, 283004, Note_off_c, 1, 52, 100
3, 283132, Note_off_c, 1, 55, 100
3, 283392, Note_on_c, 1, 60, 80
3, 283772, Note_off_c, 1, 60, 100
3, 283776, Note_on_c, 1, 60, 80
3, 284156, Note_off_c, 1, 60, 100
3, 284160, Note_on_c, 1, 60, 80
3, 284540, Note_off_c, 1, 60, 100
3, 284928, Note_on_c, 1, 48, 80
3, 285308, Note_off_c, 1, 48, 100
3, 285312, Note_on_c, 1, 47, 80
3, 285692, Note_off_c, 1, 47, 100
3, 285696, Note_on_c, 1, 48, 107
3, 286464, Note_on_c, 1, 58, 80
3, 286844, Note_off_c, 1, 58, 100
3, 286848, Note_on_c, 1, 57, 80
3, 287228, Note_off_c, 1, 57, 100
3, 287232, Note_on_c, 1, 58, 80
3, 287612, Note_off_c, 1, 48, 100
3, 287612, Note_off_c, 1, 58, 100
3, 287616, Note_on_c, 1, 48, 104
3, 288000, Note_on_c, 1, 58, 80
3, 288380, Note_off_c, 1, 58, 100
3, 288384, Note_on_c, 1, 57, 80
3, 288764, Note_off_c, 1, 57, 100
3, 288768, Note_on_c, 1, 58, 80
3, 289148, Note_off_c, 1, 48, 100
3, 289148, Note_off_c, 1, 58, 100
3, 289152, Note_on_c, 1, 48, 80
3, 289536, Note_on_c, 1, 58, 80
3, 289916, Note_off_c, 1, 58, 100
3, 289920, Note_on_c, 1, 57, 80
3, 290300, Note_off_c, 1, 48, 100
3, 290300, Note_off_c, 1, 57, 100
3, 290304, Note_on_c, 1, 58, 80
3, 290304, Note_on_c, 1, 48, 80
3, 291836, Note_off_c, 1, 58, 100
3, 291840, Note_on_c, 1, 55, 80
3, 293372, Note_off_c, 1, 55, 100
3, 293376, Note_on_c, 1, 52, 80
3, 294908, Note_off_c, 1, 52, 100
3, 294912, Note_on_c, 1, 58, 80
3, 296444, Note_off_c, 1, 48, 100
3, 296444, Note_off_c, 1, 58, 100
3, 296448, Note_on_c, 1, 53, 110
3, 296576, Note_on_c, 1, 56, 110
3, 296700, Note_off_c, 1, 53, 100
3, 296704, Note_on_c, 1, 60, 110
3, 296828, Note_off_c, 1, 56, 100
3, 296832, Note_on_c, 1, 53, 110
3, 296956, Note_off_c, 1, 60, 100
3, 296960, Note_on_c, 1, 56, 110
3, 297084, Note_off_c, 1, 53, 100
3, 297088, Note_on_c, 1, 60, 110
3, 297212, Note_off_c, 1, 56, 100
3, 297216, Note_on_c, 1, 53, 110
3, 297340, Note_off_c, 1, 60, 100
3, 297344, Note_on_c, 1, 56, 110
3, 297468, Note_off_c, 1, 53, 100
3, 297472, Note_on_c, 1, 60, 110
3, 297596, Note_off_c, 1, 56, 100
3, 297600, Note_on_c, 1, 53, 110
3, 297724, Note_off_c, 1, 60, 100
3, 297728, Note_on_c, 1, 58, 110
3, 297852, Note_off_c, 1, 53, 100
3, 297856, Note_on_c, 1, 61, 110
3, 297980, Note_off_c, 1, 58, 100
3, 297980, Note_off_c, 1, 61, 100
3, 297984, Note_on_c, 1, 53, 110
3, 298112, Note_on_c, 1, 60, 110
3, 298236, Note_off_c, 1, 53, 100
3, 298240, Note_on_c, 1, 56, 110
3, 298364, Note_off_c, 1, 60, 100
3, 298368, Note_on_c, 1, 53, 110
3, 298492, Note_off_c, 1, 56, 100
3, 298496, Note_on_c, 1, 48, 110
3, 298620, Note_off_c, 1, 53, 100
3, 298624, Note_on_c, 1, 44, 110
3, 298748, Note_off_c, 1, 48, 100
3, 298752, Note_on_c, 1, 41, 110
3, 298876, Note_off_c, 1, 44, 100
3, 298880, Note_on_c, 1, 44, 110
3, 299004, Note_off_c, 1, 41, 100
3, 299008, Note_on_c, 1, 48, 110
3, 299132, Note_off_c, 1, 44, 100
3, 299136, Note_on_c, 1, 40, 110
3, 299260, Note_off_c, 1, 48, 100
3, 299264, Note_on_c, 1, 43, 110
3, 299388, Note_off_c, 1, 40, 100
3, 299392, Note_on_c, 1, 48, 110
3, 299516, Note_off_c, 1, 43, 100
3, 299516, Note_off_c, 1, 48, 100
3, 299520, Note_on_c, 1, 41, 110
3, 299648, Note_on_c, 1, 44, 110
3, 299772, Note_off_c, 1, 41, 100
3, 299776, Note_on_c, 1, 48, 110
3, 299900, Note_off_c, 1, 44, 100
3, 299904, Note_on_c, 1, 53, 110
3, 300028, Note_off_c, 1, 48, 100
3, 300032, Note_on_c, 1, 56, 110
3, 300156, Note_off_c, 1, 53, 100
3, 300160, Note_on_c, 1, 60, 110
3, 300284, Note_off_c, 1, 56, 100
3, 300288, Note_on_c, 1, 53, 110
3, 300412, Note_off_c, 1, 60, 100
3, 300416, Note_on_c, 1, 56, 110
3, 300540, Note_off_c, 1, 53, 100
3, 300544, Note_on_c, 1, 60, 110
3, 300668, Note_off_c, 1, 56, 100
3, 300672, Note_on_c, 1, 53, 110
3, 300796, Note_off_c, 1, 60, 100
3, 300800, Note_on_c, 1, 58, 110
3, 300924, Note_off_c, 1, 53, 100
3, 300928, Note_on_c, 1, 61, 110
3, 301052, Note_off_c, 1, 58, 100
3, 301052, Note_off_c, 1, 61, 100
3, 301056, Note_on_c, 1, 53, 110
3, 301184, Note_on_c, 1, 60, 110
3, 301308, Note_off_c, 1, 53, 100
3, 301312, Note_on_c, 1, 56, 110
3, 301436, Note_off_c, 1, 60, 100
3, 301440, Note_on_c, 1, 53, 110
3, 301564, Note_off_c, 1, 56, 100
3, 301568, Note_on_c, 1, 48, 110
3, 301692, Note_off_c, 1, 53, 100
3, 301696, Note_on_c, 1, 44, 110
3, 301820, Note_off_c, 1, 48, 100
3, 301824, Note_on_c, 1, 41, 110
3, 301948, Note_off_c, 1, 44, 100
3, 301952, Note_on_c, 1, 44, 110
3, 302076, Note_off_c, 1, 41, 100
3, 302080, Note_on_c, 1, 48, 110
3, 302204, Note_off_c, 1, 44, 100
3, 302208, Note_on_c, 1, 40, 110
3, 302332, Note_off_c, 1, 48, 100
3, 302336, Note_on_c, 1, 43, 110
3, 302460, Note_off_c, 1, 40, 100
3, 302464, Note_on_c, 1, 48, 110
3, 302588, Note_off_c, 1, 43, 100
3, 302588, Note_off_c, 1, 48, 100
3, 302592, Note_on_c, 1, 41, 110
3, 302720, Note_on_c, 1, 44, 110
3, 302844, Note_off_c, 1, 41, 100
3, 302848, Note_on_c, 1, 48, 110
3, 302972, Note_off_c, 1, 44, 100
3, 302976, Note_on_c, 1, 53, 110
3, 303100, Note_off_c, 1, 48, 100
3, 303104, Note_on_c, 1, 56, 110
3, 303228, Note_off_c, 1, 53, 100
3, 303232, Note_on_c, 1, 60, 110
3, 303356, Note_off_c, 1, 56, 100
3, 303356, Note_off_c, 1, 60, 100
3, 303360, Note_on_c, 1, 61, 80
3, 303360, Note_on_c, 1, 55, 80
3, 303740, Note_off_c, 1, 61, 100
3, 303744, Note_on_c, 1, 58, 80
3, 304124, Note_off_c, 1, 55, 100
3, 304124, Note_off_c, 1, 58, 100
3, 304128, Note_on_c, 1, 56, 80
3, 304128, Note_on_c, 1, 60, 80
3, 304892, Note_off_c, 1, 56, 100
3, 304892, Note_off_c, 1, 60, 100
3, 304896, Note_on_c, 1, 61, 80
3, 304896, Note_on_c, 1, 55, 80
3, 305276, Note_off_c, 1, 61, 100
3, 305280, Note_on_c, 1, 58, 80
3, 305660, Note_off_c, 1, 55, 100
3, 305660, Note_off_c, 1, 58, 100
3, 305664, Note_on_c, 1, 56, 80
3, 305664, Note_on_c, 1, 60, 80
3, 306428, Note_off_c, 1, 56, 100
3, 306428, Note_off_c, 1, 60, 100
3, 306432, Note_on_c, 1, 55, 80
3, 306432, Note_on_c, 1, 61, 80
3, 306812, Note_off_c, 1, 61, 100
3, 306816, Note_on_c, 1, 58, 80
3, 307196, Note_off_c, 1, 55, 100
3, 307196, Note_off_c, 1, 58, 100
3, 307200, Note_on_c, 1, 60, 80
3, 307200, Note_on_c, 1, 56, 80
3, 307580, Note_off_c, 1, 60, 100
3, 307580, Note_off_c, 1, 56, 100
3, 307584, Note_on_c, 1, 55, 80
3, 307584, Note_on_c, 1, 52, 80
3, 307964, Note_off_c, 1, 55, 100
3, 307964, Note_off_c, 1, 52, 100
3, 307968, Note_on_c, 1, 56, 80
3, 307968, Note_on_c, 1, 53, 80
3, 308348, Note_off_c, 1, 56, 100
3, 308348, Note_off_c, 1, 53, 100
3, 308352, Note_on_c, 1, 53, 80
3, 308352, Note_on_c, 1, 49, 80
3, 308732, Note_off_c, 1, 53, 100
3, 308732, Note_off_c, 1, 49, 100
3, 308736, Note_on_c, 1, 52, 80
3, 308736, Note_on_c, 1, 48, 80
3, 309116, Note_off_c, 1, 52, 100
3, 309116, Note_off_c, 1, 48, 100
3, 309120, Note_on_c, 1, 60, 80
3, 309500, Note_off_c, 1, 60, 100
3, 309504, Note_on_c, 1, 64, 80
3, 309504, Note_on_c, 1, 70, 80
3, 309884, Note_off_c, 1, 70, 100
3, 309888, Note_on_c, 1, 67, 80
3, 310268, Note_off_c, 1, 64, 100
3, 310268, Note_off_c, 1, 67, 100
3, 310272, Note_on_c, 1, 65, 80
3, 310272, Note_on_c, 1, 68, 80
3, 311036, Note_off_c, 1, 65, 100
3, 311036, Note_off_c, 1, 68, 100
3, 311040, Note_on_c, 1, 60, 80
3, 311420, Note_off_c, 1, 60, 100
3, 311424, Note_on_c, 1, 60, 80
3, 311804, Note_off_c, 1, 60, 100
3, 311808, Note_on_c, 1, 60, 80
3, 312188, Note_off_c, 1, 60, 100
3, 312192, Note_on_c, 1, 65, 80
3, 312572, Note_off_c, 1, 65, 100
3, 312576, Note_on_c, 1, 64, 80
3, 312576, Note_on_c, 1, 70, 80
3, 312956, Note_off_c, 1, 70, 100
3, 312960, Note_on_c, 1, 67, 80
3, 313340, Note_off_c, 1, 64, 100
3, 313340, Note_off_c, 1, 67, 100
3, 313344, Note_on_c, 1, 65, 80
3, 313344, Note_on_c, 1, 68, 80
3, 314108, Note_off_c, 1, 65, 100
3, 314108, Note_off_c, 1, 68, 100
3, 314112, Note_on_c, 1, 60, 80
3, 314492, Note_off_c, 1, 60, 100
3, 314496, Note_on_c, 1, 60, 80
3, 314876, Note_off_c, 1, 60, 100
3, 314880, Note_on_c, 1, 60, 80
3, 314944, Note_on_c, 1, 61, 80
3, 315004, Note_off_c, 1, 60, 100
3, 315008, Note_on_c, 1, 60, 80
3, 315068, Note_off_c, 1, 61, 100
3, 315072, Note_on_c, 1, 61, 80
3, 315132, Note_off_c, 1, 60, 100
3, 315136, Note_on_c, 1, 60, 80
3, 315196, Note_off_c, 1, 61, 100
3, 315200, Note_on_c, 1, 61, 80
3, 315260, Note_off_c, 1, 60, 100
3, 315264, Note_on_c, 1, 65, 80
3, 315324, Note_off_c, 1, 61, 100
3, 315644, Note_off_c, 1, 65, 100
3, 315648, Note_on_c, 1, 55, 103
3, 315648, Note_on_c, 1, 52, 105
3, 316028, Note_off_c, 1, 55, 100
3, 316028, Note_off_c, 1, 52, 100
3, 316032, Note_on_c, 1, 55, 82
3, 316032, Note_on_c, 1, 52, 80
3, 316412, Note_off_c, 1, 55, 100
3, 316412, Note_off_c, 1, 52, 100
3, 316416, Note_on_c, 1, 53, 80
3, 316416, Note_on_c, 1, 56, 80
3, 316796, Note_off_c, 1, 53, 100
3, 316796, Note_off_c, 1, 56, 100
3, 317184, Note_on_c, 1, 53, 80
3, 317184, Note_on_c, 1, 49, 80
3, 317564, Note_off_c, 1, 53, 100
3, 317564, Note_off_c, 1, 49, 100
3, 317952, Note_on_c, 1, 48, 80
3, 318080, Note_on_c, 1, 52, 80
3, 318204, Note_off_c, 1, 48, 100
3, 318208, Note_on_c, 1, 55, 80
3, 318332, Note_off_c, 1, 52, 100
3, 318336, Note_on_c, 1, 48, 80
3, 318460, Note_off_c, 1, 55, 100
3, 318464, Note_on_c, 1, 52, 80
3, 318588, Note_off_c, 1, 48, 100
3, 318592, Note_on_c, 1, 55, 80
3, 318716, Note_off_c, 1, 52, 100
3, 318720, Note_on_c, 1, 48, 80
3, 318844, Note_off_c, 1, 55, 100
3, 318848, Note_on_c, 1, 52, 80
3, 318972, Note_off_c, 1, 48, 100
3, 318976, Note_on_c, 1, 55, 80
3, 319100, Note_off_c, 1, 52, 100
3, 319104, Note_on_c, 1, 48, 80
3, 319228, Note_off_c, 1, 55, 100
3, 319232, Note_on_c, 1, 52, 80
3, 319356, Note_off_c, 1, 48, 100
3, 319360, Note_on_c, 1, 55, 80
3, 319484, Note_off_c, 1, 52, 100
3, 319484, Note_off_c, 1, 55, 100
3, 319488, Note_on_c, 1, 48, 80
3, 319616, Note_on_c, 1, 55, 80
3, 319740, Note_off_c, 1, 48, 100
3, 319744, Note_on_c, 1, 52, 80
3, 319868, Note_off_c, 1, 55, 100
3, 319872, Note_on_c, 1, 48, 80
3, 319996, Note_off_c, 1, 52, 100
3, 320000, Note_on_c, 1, 43, 80
3, 320124, Note_off_c, 1, 48, 100
3, 320128, Note_on_c, 1, 40, 80
3, 320252, Note_off_c, 1, 43, 100
3, 320256, Note_on_c, 1, 36, 110
3, 320380, Note_off_c, 1, 40, 100
3, 320384, Note_on_c, 1, 40, 110
3, 320508, Note_off_c, 1, 36, 100
3, 320512, Note_on_c, 1, 43, 110
3, 320636, Note_off_c, 1, 40, 100
3, 320640, Note_on_c, 1, 36, 110
3, 320764, Note_off_c, 1, 43, 100
3, 320768, Note_on_c, 1, 40, 110
3, 320892, Note_off_c, 1, 36, 100
3, 320896, Note_on_c, 1, 43, 110
3, 321020, Note_off_c, 1, 40, 100
3, 321024, Note_on_c, 1, 36, 110
3, 321148, Note_off_c, 1, 43, 100
3, 321152, Note_on_c, 1, 40, 110
3, 321276, Note_off_c, 1, 36, 100
3, 321280, Note_on_c, 1, 43, 110
3, 321404, Note_off_c, 1, 40, 100
3, 321408, Note_on_c, 1, 48, 110
3, 321532, Note_off_c, 1, 43, 100
3, 321536, Note_on_c, 1, 52, 110
3, 321660, Note_off_c, 1, 48, 100
3, 321664, Note_on_c, 1, 55, 110
3, 321788, Note_off_c, 1, 52, 100
3, 321792, Note_on_c, 1, 48, 110
3, 321916, Note_off_c, 1, 55, 100
3, 321920, Note_on_c, 1, 52, 100
3, 322044, Note_off_c, 1, 48, 100
3, 322048, Note_on_c, 1, 55, 100
3, 322172, Note_off_c, 1, 52, 100
3, 322176, Note_on_c, 1, 48, 100
3, 322300, Note_off_c, 1, 55, 100
3, 322304, Note_on_c, 1, 52, 100
3, 322428, Note_off_c, 1, 48, 100
3, 322432, Note_on_c, 1, 55, 100
3, 322556, Note_off_c, 1, 52, 100
3, 322556, Note_off_c, 1, 55, 100
3, 322560, Note_on_c, 1, 48, 100
3, 322688, Note_on_c, 1, 55, 100
3, 322812, Note_off_c, 1, 48, 100
3, 322816, Note_on_c, 1, 52, 100
3, 322940, Note_off_c, 1, 55, 100
3, 322944, Note_on_c, 1, 48, 100
3, 323068, Note_off_c, 1, 52, 100
3, 323072, Note_on_c, 1, 43, 100
3, 323196, Note_off_c, 1, 48, 100
3, 323200, Note_on_c, 1, 40, 100
3, 323324, Note_off_c, 1, 43, 100
3, 323328, Note_on_c, 1, 36, 110
3, 323452, Note_off_c, 1, 40, 100
3, 323456, Note_on_c, 1, 40, 110
3, 323580, Note_off_c, 1, 36, 100
3, 323584, Note_on_c, 1, 43, 110
3, 323708, Note_off_c, 1, 40, 100
3, 323712, Note_on_c, 1, 36, 110
3, 323836, Note_off_c, 1, 43, 100
3, 323840, Note_on_c, 1, 40, 110
3, 323964, Note_off_c, 1, 36, 100
3, 323968, Note_on_c, 1, 43, 110
3, 324092, Note_off_c, 1, 40, 100
3, 324092, Note_off_c, 1, 43, 100
3, 324096, Note_on_c, 1, 36, 110
3, 324224, Note_on_c, 1, 40, 110
3, 324348, Note_off_c, 1, 36, 100
3, 324352, Note_on_c, 1, 43, 110
3, 324476, Note_off_c, 1, 40, 100
3, 324480, Note_on_c, 1, 48, 110
3, 324604, Note_off_c, 1, 43, 100
3, 324608, Note_on_c, 1, 43, 110
3, 324732, Note_off_c, 1, 48, 100
3, 324736, Note_on_c, 1, 40, 110
3, 324860, Note_off_c, 1, 43, 100
3, 324864, Note_on_c, 1, 36, 110
3, 324988, Note_off_c, 1, 40, 100
3, 324992, Note_on_c, 1, 40, 110
3, 325116, Note_off_c, 1, 36, 100
3, 325120, Note_on_c, 1, 43, 110
3, 325244, Note_off_c, 1, 40, 100
3, 325248, Note_on_c, 1, 36, 110
3, 325372, Note_off_c, 1, 43, 100
3, 325376, Note_on_c, 1, 40, 110
3, 325500, Note_off_c, 1, 36, 100
3, 325504, Note_on_c, 1, 43, 110
3, 325628, Note_off_c, 1, 40, 100
3, 325628, Note_off_c, 1, 43, 100
3, 325632, Note_on_c, 1, 36, 110
3, 325760, Note_on_c, 1, 40, 110
3, 325884, Note_off_c, 1, 36, 100
3, 325888, Note_on_c, 1, 43, 110
3, 326012, Note_off_c, 1, 40, 100
3, 326016, Note_on_c, 1, 48, 110
3, 326140, Note_off_c, 1, 43, 100
3, 326144, Note_on_c, 1, 43, 110
3, 326268, Note_off_c, 1, 48, 100
3, 326272, Note_on_c, 1, 40, 110
3, 326396, Note_off_c, 1, 43, 100
3, 326400, Note_on_c, 1, 36, 120
3, 326524, Note_off_c, 1, 40, 100
3, 326528, Note_on_c, 1, 40, 120
3, 326652, Note_off_c, 1, 36, 100
3, 326656, Note_on_c, 1, 43, 120
3, 326780, Note_off_c, 1, 40, 100
3, 326784, Note_on_c, 1, 36, 120
3, 326908, Note_off_c, 1, 43, 100
3, 326912, Note_on_c, 1, 40, 120
3, 327036, Note_off_c, 1, 36, 100
3, 327040, Note_on_c, 1, 43, 120
3, 327164, Note_off_c, 1, 40, 100
3, 327164, Note_off_c, 1, 43, 100
3, 327168, Note_on_c, 1, 36, 120
3, 327296, Note_on_c, 1, 40, 120
3, 327420, Note_off_c, 1, 36, 100
3, 327424, Note_on_c, 1, 43, 120
3, 327548, Note_off_c, 1, 40, 100
3, 327552, Note_on_c, 1, 48, 120
3, 327676, Note_off_c, 1, 43, 100
3, 327680, Note_on_c, 1, 43, 120
3, 327804, Note_off_c, 1, 48, 100
3, 327808, Note_on_c, 1, 40, 120
3, 327932, Note_off_c, 1, 43, 100
3, 327936, Note_on_c, 1, 36, 120
3, 328060, Note_off_c, 1, 40, 100
3, 328064, Note_on_c, 1, 40, 120
3, 328188, Note_off_c, 1, 36, 100
3, 328192, Note_on_c, 1, 43, 120
3, 328316, Note_off_c, 1, 40, 100
3, 328320, Note_on_c, 1, 48, 120
3, 328444, Note_off_c, 1, 43, 100
3, 328448, Note_on_c, 1, 43, 120
3, 328572, Note_off_c, 1, 48, 100
3, 328576, Note_on_c, 1, 40, 120
3, 328700, Note_off_c, 1, 43, 100
3, 328700, Note_off_c, 1, 40, 100
3, 328704, Note_on_c, 1, 36, 120
3, 329084, Note_off_c, 1, 36, 100
3, 331136, Note_on_c, 1, 49, 113
3, 331264, Note_on_c, 1, 48, 112
3, 331388, Note_off_c, 1, 49, 100
3, 331392, Note_on_c, 1, 46, 112
3, 331516, Note_off_c, 1, 48, 100
3, 331520, Note_on_c, 1, 44, 111
3, 331644, Note_off_c, 1, 46, 100
3, 331648, Note_on_c, 1, 43, 111
3, 331772, Note_off_c, 1, 44, 100
3, 331772, Note_off_c, 1, 43, 100
3, 331776, Note_on_c, 1, 41, 110
3, 332156, Note_off_c, 1, 41, 100
3, 332160, Note_on_c, 1, 49, 110
3, 332540, Note_off_c, 1, 49, 100
3, 332544, Note_on_c, 1, 48, 110
3, 332924, Note_off_c, 1, 48, 100
3, 332928, Note_on_c, 1, 47, 110
3, 333308, Note_off_c, 1, 47, 100
3, 333312, Note_on_c, 1, 48, 110
3, 333692, Note_off_c, 1, 48, 100
3, 333696, Note_on_c, 1, 49, 110
3, 334076, Note_off_c, 1, 49, 100
3, 334080, Note_on_c, 1, 48, 110
3, 334460, Note_off_c, 1, 48, 100
3, 334464, Note_on_c, 1, 47, 110
3, 334844, Note_off_c, 1, 47, 100
3, 334848, Note_on_c, 1, 48, 110
3, 335228, Note_off_c, 1, 48, 100
3, 335232, Note_on_c, 1, 49, 110
3, 335232, Note_on_c, 1, 61, 110
3, 335612, Note_off_c, 1, 49, 100
3, 335612, Note_off_c, 1, 61, 100
3, 335616, Note_on_c, 1, 60, 110
3, 335616, Note_on_c, 1, 48, 110
3, 335996, Note_off_c, 1, 60, 100
3, 335996, Note_off_c, 1, 48, 100
3, 336000, Note_on_c, 1, 47, 110
3, 336000, Note_on_c, 1, 59, 110
3, 336380, Note_off_c, 1, 47, 100
3, 336380, Note_off_c, 1, 59, 100
3, 336384, Note_on_c, 1, 48, 110
3, 336384, Note_on_c, 1, 60, 110
3, 336764, Note_off_c, 1, 48, 100
3, 336764, Note_off_c, 1, 60, 100
3, 336768, Note_on_c, 1, 49, 110
3, 336768, Note_on_c, 1, 61, 110
3, 337148, Note_off_c, 1, 49, 100
3, 337148, Note_off_c, 1, 61, 100
3, 337152, Note_on_c, 1, 60, 110
3, 337152, Note_on_c, 1, 48, 110
3, 337532, Note_off_c, 1, 60, 100
3, 337532, Note_off_c, 1, 48, 100
3, 337536, Note_on_c, 1, 47, 110
3, 337536, Note_on_c, 1, 59, 110
3, 337916, Note_off_c, 1, 47, 100
3, 337916, Note_off_c, 1, 59, 100
3, 337920, Note_on_c, 1, 60, 110
3, 337920, Note_on_c, 1, 48, 110
3, 338300, Note_off_c, 1, 60, 100
3, 338300, Note_off_c, 1, 48, 100
3, 338304, Note_on_c, 1, 61, 110
3, 338684, Note_off_c, 1, 61, 100
3, 338688, Note_on_c, 1, 62, 110
3, 339068, Note_off_c, 1, 62, 100
3, 339072, Note_on_c, 1, 63, 110
3, 339452, Note_off_c, 1, 63, 100
3, 339456, Note_on_c, 1, 57, 110
3, 339836, Note_off_c, 1, 57, 100
3, 339840, Note_on_c, 1, 58, 110
3, 340220, Note_off_c, 1, 58, 100
3, 340224, Note_on_c, 1, 55, 110
3, 340604, Note_off_c, 1, 55, 100
3, 340608, Note_on_c, 1, 56, 110
3, 340988, Note_off_c, 1, 56, 100
3, 340992, Note_on_c, 1, 52, 110
3, 341372, Note_off_c, 1, 52, 100
3, 341376, Note_on_c, 1, 53, 110
3, 341756, Note_off_c, 1, 53, 100
3, 341760, Note_on_c, 1, 46, 110
3, 342140, Note_off_c, 1, 46, 100
3, 342144, Note_on_c, 1, 47, 110
3, 342524, Note_off_c, 1, 47, 100
3, 342528, Note_on_c, 1, 36, 110
3, 342720, Note_on_c, 1, 48, 110
3, 342908, Note_off_c, 1, 36, 100
3, 342912, Note_on_c, 1, 36, 110
3, 343100, Note_off_c, 1, 48, 100
3, 343104, Note_on_c, 1, 48, 110
3, 343292, Note_off_c, 1, 36, 100
3, 343296, Note_on_c, 1, 36, 110
3, 343484, Note_off_c, 1, 48, 100
3, 343488, Note_on_c, 1, 48, 110
3, 343676, Note_off_c, 1, 36, 100
3, 343680, Note_on_c, 1, 36, 110
3, 343868, Note_off_c, 1, 48, 100
3, 343872, Note_on_c, 1, 48, 110
3, 344060, Note_off_c, 1, 36, 100
3, 344060, Note_off_c, 1, 48, 100
3, 344064, Note_on_c, 1, 41, 110
3, 344444, Note_off_c, 1, 41, 100
3, 344448, Note_on_c, 1, 53, 110
3, 344640, Note_on_c, 1, 65, 110
3, 344828, Note_off_c, 1, 53, 100
3, 344832, Note_on_c, 1, 50, 110
3, 345020, Note_off_c, 1, 65, 100
3, 345024, Note_on_c, 1, 62, 110
3, 345212, Note_off_c, 1, 50, 100
3, 345216, Note_on_c, 1, 51, 110
3, 345404, Note_off_c, 1, 62, 100
3, 345408, Note_on_c, 1, 63, 110
3, 345596, Note_off_c, 1, 51, 100
3, 345600, Note_on_c, 1, 45, 110
3, 345788, Note_off_c, 1, 63, 100
3, 345792, Note_on_c, 1, 57, 110
3, 345980, Note_off_c, 1, 45, 100
3, 345984, Note_on_c, 1, 46, 110
3, 346172, Note_off_c, 1, 57, 100
3, 346176, Note_on_c, 1, 61, 110
3, 346364, Note_off_c, 1, 46, 100
3, 346368, Note_on_c, 1, 43, 110
3, 346556, Note_off_c, 1, 61, 100
3, 346560, Note_on_c, 1, 55, 110
3, 346748, Note_off_c, 1, 43, 100
3, 346752, Note_on_c, 1, 44, 110
3, 346940, Note_off_c, 1, 55, 100
3, 346944, Note_on_c, 1, 56, 110
3, 347132, Note_off_c, 1, 44, 100
3, 347136, Note_on_c, 1, 39, 110
3, 347324, Note_off_c, 1, 56, 100
3, 347328, Note_on_c, 1, 51, 110
3, 347516, Note_off_c, 1, 39, 100
3, 347520, Note_on_c, 1, 41, 110
3, 347708, Note_off_c, 1, 51, 100
3, 347712, Note_on_c, 1, 53, 110
3, 347900, Note_off_c, 1, 41, 100
3, 347904, Note_on_c, 1, 34, 110
3, 348092, Note_off_c, 1, 53, 100
3, 348096, Note_on_c, 1, 46, 110
3, 348284, Note_off_c, 1, 34, 100
3, 348288, Note_on_c, 1, 35, 110
3, 348476, Note_off_c, 1, 46, 100
3, 348480, Note_on_c, 1, 47, 110
3, 348668, Note_off_c, 1, 35, 100
3, 348672, Note_on_c, 1, 36, 110
3, 348860, Note_off_c, 1, 47, 100
3, 348864, Note_on_c, 1, 48, 110
3, 349052, Note_off_c, 1, 36, 100
3, 349056, Note_on_c, 1, 36, 110
3, 349244, Note_off_c, 1, 48, 100
3, 349248, Note_on_c, 1, 48, 110
3, 349436, Note_off_c, 1, 36, 100
3, 349440, Note_on_c, 1, 36, 110
3, 349628, Note_off_c, 1, 48, 100
3, 349632, Note_on_c, 1, 48, 110
3, 349820, Note_off_c, 1, 36, 100
3, 349824, Note_on_c, 1, 36, 110
3, 350012, Note_off_c, 1, 48, 100
3, 350016, Note_on_c, 1, 48, 110
3, 350204, Note_off_c, 1, 36, 100
3, 350204, Note_off_c, 1, 48, 100
3, 350208, Note_on_c, 1, 41, 100
3, 350336, Note_on_c, 1, 44, 100
3, 350460, Note_off_c, 1, 41, 100
3, 350464, Note_on_c, 1, 48, 100
3, 350588, Note_off_c, 1, 44, 100
3, 350592, Note_on_c, 1, 41, 100
3, 350716, Note_off_c, 1, 48, 100
3, 350720, Note_on_c, 1, 44, 100
3, 350844, Note_off_c, 1, 41, 100
3, 350848, Note_on_c, 1, 48, 100
3, 350972, Note_off_c, 1, 44, 100
3, 350976, Note_on_c, 1, 41, 100
3, 351100, Note_off_c, 1, 48, 100
3, 351104, Note_on_c, 1, 44, 100
3, 351228, Note_off_c, 1, 41, 100
3, 351232, Note_on_c, 1, 49, 100
3, 351356, Note_off_c, 1, 44, 100
3, 351360, Note_on_c, 1, 41, 100
3, 351484, Note_off_c, 1, 49, 100
3, 351488, Note_on_c, 1, 44, 100
3, 351612, Note_off_c, 1, 41, 100
3, 351616, Note_on_c, 1, 49, 100
3, 351740, Note_off_c, 1, 44, 100
3, 351744, Note_on_c, 1, 43, 100
3, 351868, Note_off_c, 1, 49, 100
3, 351872, Note_on_c, 1, 46, 100
3, 351996, Note_off_c, 1, 43, 100
3, 352000, Note_on_c, 1, 49, 100
3, 352124, Note_off_c, 1, 46, 100
3, 352128, Note_on_c, 1, 43, 100
3, 352252, Note_off_c, 1, 49, 100
3, 352256, Note_on_c, 1, 46, 100
3, 352380, Note_off_c, 1, 43, 100
3, 352384, Note_on_c, 1, 49, 100
3, 352508, Note_off_c, 1, 46, 100
3, 352512, Note_on_c, 1, 43, 100
3, 352636, Note_off_c, 1, 49, 100
3, 352640, Note_on_c, 1, 46, 100
3, 352764, Note_off_c, 1, 43, 100
3, 352768, Note_on_c, 1, 51, 100
3, 352892, Note_off_c, 1, 46, 100
3, 352896, Note_on_c, 1, 43, 100
3, 353020, Note_off_c, 1, 51, 100
3, 353024, Note_on_c, 1, 46, 100
3, 353148, Note_off_c, 1, 43, 100
3, 353152, Note_on_c, 1, 51, 100
3, 353276, Note_off_c, 1, 46, 100
3, 353280, Note_on_c, 1, 44, 100
3, 353404, Note_off_c, 1, 51, 100
3, 353408, Note_on_c, 1, 48, 100
3, 353532, Note_off_c, 1, 44, 100
3, 353536, Note_on_c, 1, 51, 100
3, 353660, Note_off_c, 1, 48, 100
3, 353664, Note_on_c, 1, 44, 100
3, 353788, Note_off_c, 1, 51, 100
3, 353792, Note_on_c, 1, 48, 100
3, 353916, Note_off_c, 1, 44, 100
3, 353920, Note_on_c, 1, 51, 100
3, 354044, Note_off_c, 1, 48, 100
3, 354048, Note_on_c, 1, 45, 100
3, 354172, Note_off_c, 1, 51, 100
3, 354176, Note_on_c, 1, 48, 100
3, 354300, Note_off_c, 1, 45, 100
3, 354304, Note_on_c, 1, 53, 100
3, 354428, Note_off_c, 1, 48, 100
3, 354432, Note_on_c, 1, 45, 100
3, 354556, Note_off_c, 1, 53, 100
3, 354560, Note_on_c, 1, 48, 100
3, 354684, Note_off_c, 1, 45, 100
3, 354688, Note_on_c, 1, 53, 100
3, 354812, Note_off_c, 1, 48, 100
3, 354816, Note_on_c, 1, 46, 100
3, 354940, Note_off_c, 1, 53, 100
3, 354944, Note_on_c, 1, 49, 100
3, 355068, Note_off_c, 1, 46, 100
3, 355072, Note_on_c, 1, 53, 100
3, 355196, Note_off_c, 1, 49, 100
3, 355200, Note_on_c, 1, 46, 100
3, 355324, Note_off_c, 1, 53, 100
3, 355328, Note_on_c, 1, 49, 100
3, 355452, Note_off_c, 1, 46, 100
3, 355456, Note_on_c, 1, 53, 100
3, 355580, Note_off_c, 1, 49, 100
3, 355584, Note_on_c, 1, 46, 100
3, 355708, Note_off_c, 1, 53, 100
3, 355712, Note_on_c, 1, 49, 100
3, 355836, Note_off_c, 1, 46, 100
3, 355840, Note_on_c, 1, 55, 100
3, 355964, Note_off_c, 1, 49, 100
3, 355968, Note_on_c, 1, 46, 100
3, 356092, Note_off_c, 1, 55, 100
3, 356096, Note_on_c, 1, 49, 100
3, 356220, Note_off_c, 1, 46, 100
3, 356224, Note_on_c, 1, 55, 100
3, 356348, Note_off_c, 1, 49, 100
3, 356348, Note_off_c, 1, 55, 100
3, 356352, Note_on_c, 1, 48, 100
3, 356480, Note_on_c, 1, 51, 100
3, 356604, Note_off_c, 1, 48, 100
3, 356608, Note_on_c, 1, 56, 100
3, 356732, Note_off_c, 1, 51, 100
3, 356736, Note_on_c, 1, 48, 100
3, 356860, Note_off_c, 1, 56, 100
3, 356864, Note_on_c, 1, 51, 100
3, 356988, Note_off_c, 1, 48, 100
3, 356992, Note_on_c, 1, 56, 100
3, 357116, Note_off_c, 1, 51, 100
3, 357120, Note_on_c, 1, 48, 100
3, 357244, Note_off_c, 1, 56, 100
3, 357248, Note_on_c, 1, 51, 100
3, 357372, Note_off_c, 1, 48, 100
3, 357376, Note_on_c, 1, 57, 100
3, 357500, Note_off_c, 1, 51, 100
3, 357504, Note_on_c, 1, 48, 100
3, 357628, Note_off_c, 1, 57, 100
3, 357632, Note_on_c, 1, 51, 100
3, 357756, Note_off_c, 1, 48, 100
3, 357760, Note_on_c, 1, 57, 100
3, 357884, Note_off_c, 1, 51, 100
3, 357888, Note_on_c, 1, 49, 100
3, 358012, Note_off_c, 1, 57, 100
3, 358016, Note_on_c, 1, 53, 100
3, 358140, Note_off_c, 1, 49, 100
3, 358144, Note_on_c, 1, 58, 100
3, 358268, Note_off_c, 1, 53, 100
3, 358272, Note_on_c, 1, 49, 100
3, 358396, Note_off_c, 1, 58, 100
3, 358400, Note_on_c, 1, 53, 100
3, 358524, Note_off_c, 1, 49, 100
3, 358528, Note_on_c, 1, 58, 100
3, 358652, Note_off_c, 1, 53, 100
3, 358656, Note_on_c, 1, 50, 100
3, 358780, Note_off_c, 1, 58, 100
3, 358784, Note_on_c, 1, 53, 100
3, 358908, Note_off_c, 1, 50, 100
3, 358912, Note_on_c, 1, 59, 100
3, 359036, Note_off_c, 1, 53, 100
3, 359040, Note_on_c, 1, 50, 100
3, 359164, Note_off_c, 1, 59, 100
3, 359168, Note_on_c, 1, 53, 100
3, 359292, Note_off_c, 1, 50, 100
3, 359296, Note_on_c, 1, 59, 100
3, 359420, Note_off_c, 1, 53, 100
3, 359424, Note_on_c, 1, 48, 100
3, 359548, Note_off_c, 1, 59, 100
3, 359552, Note_on_c, 1, 53, 100
3, 359676, Note_off_c, 1, 48, 100
3, 359680, Note_on_c, 1, 56, 100
3, 359804, Note_off_c, 1, 53, 100
3, 359808, Note_on_c, 1, 48, 100
3, 359932, Note_off_c, 1, 56, 100
3, 359936, Note_on_c, 1, 53, 100
3, 360060, Note_off_c, 1, 48, 100
3, 360064, Note_on_c, 1, 56, 100
3, 360188, Note_off_c, 1, 53, 100
3, 360192, Note_on_c, 1, 48, 100
3, 360316, Note_off_c, 1, 56, 100
3, 360320, Note_on_c, 1, 53, 100
3, 360444, Note_off_c, 1, 48, 100
3, 360448, Note_on_c, 1, 56, 100
3, 360572, Note_off_c, 1, 53, 100
3, 360576, Note_on_c, 1, 48, 100
3, 360700, Note_off_c, 1, 56, 100
3, 360704, Note_on_c, 1, 53, 100
3, 360828, Note_off_c, 1, 48, 100
3, 360832, Note_on_c, 1, 56, 100
3, 360956, Note_off_c, 1, 53, 100
3, 360960, Note_on_c, 1, 48, 100
3, 361084, Note_off_c, 1, 56, 100
3, 361088, Note_on_c, 1, 52, 100
3, 361212, Note_off_c, 1, 48, 100
3, 361216, Note_on_c, 1, 55, 100
3, 361340, Note_off_c, 1, 52, 100
3, 361344, Note_on_c, 1, 48, 100
3, 361468, Note_off_c, 1, 55, 100
3, 361472, Note_on_c, 1, 52, 100
3, 361596, Note_off_c, 1, 48, 100
3, 361600, Note_on_c, 1, 55, 100
3, 361724, Note_off_c, 1, 52, 100
3, 361728, Note_on_c, 1, 48, 100
3, 361852, Note_off_c, 1, 55, 100
3, 361856, Note_on_c, 1, 52, 100
3, 361980, Note_off_c, 1, 48, 100
3, 361984, Note_on_c, 1, 55, 100
3, 362108, Note_off_c, 1, 52, 100
3, 362112, Note_on_c, 1, 48, 100
3, 362236, Note_off_c, 1, 55, 100
3, 362240, Note_on_c, 1, 52, 100
3, 362364, Note_off_c, 1, 48, 100
3, 362368, Note_on_c, 1, 55, 100
3, 362492, Note_off_c, 1, 52, 100
3, 362492, Note_off_c, 1, 55, 100
3, 362496, Note_on_c, 1, 41, 100
3, 362624, Note_on_c, 1, 44, 100
3, 362748, Note_off_c, 1, 41, 100
3, 362752, Note_on_c, 1, 48, 100
3, 362876, Note_off_c, 1, 44, 100
3, 362880, Note_on_c, 1, 41, 100
3, 363004, Note_off_c, 1, 48, 100
3, 363008, Note_on_c, 1, 44, 100
3, 363132, Note_off_c, 1, 41, 100
3, 363136, Note_on_c, 1, 48, 100
3, 363260, Note_off_c, 1, 44, 100
3, 363264, Note_on_c, 1, 41, 100
3, 363388, Note_off_c, 1, 48, 100
3, 363392, Note_on_c, 1, 44, 100
3, 363516, Note_off_c, 1, 41, 100
3, 363520, Note_on_c, 1, 49, 100
3, 363644, Note_off_c, 1, 44, 100
3, 363648, Note_on_c, 1, 41, 100
3, 363772, Note_off_c, 1, 49, 100
3, 363776, Note_on_c, 1, 44, 100
3, 363900, Note_off_c, 1, 41, 100
3, 363904, Note_on_c, 1, 49, 100
3, 364028, Note_off_c, 1, 44, 100
3, 364032, Note_on_c, 1, 43, 100
3, 364156, Note_off_c, 1, 49, 100
3, 364160, Note_on_c, 1, 46, 100
3, 364284, Note_off_c, 1, 43, 100
3, 364288, Note_on_c, 1, 49, 100
3, 364412, Note_off_c, 1, 46, 100
3, 364416, Note_on_c, 1, 43, 100
3, 364540, Note_off_c, 1, 49, 100
3, 364544, Note_on_c, 1, 46, 100
3, 364668, Note_off_c, 1, 43, 100
3, 364672, Note_on_c, 1, 49, 100
3, 364796, Note_off_c, 1, 46, 100
3, 364800, Note_on_c, 1, 43, 100
3, 364924, Note_off_c, 1, 49, 100
3, 364928, Note_on_c, 1, 46, 100
3, 365052, Note_off_c, 1, 43, 100
3, 365056, Note_on_c, 1, 51, 100
3, 365180, Note_off_c, 1, 46, 100
3, 365184, Note_on_c, 1, 43, 100
3, 365308, Note_off_c, 1, 51, 100
3, 365312, Note_on_c, 1, 46, 100
3, 365436, Note_off_c, 1, 43, 100
3, 365440, Note_on_c, 1, 51, 100
3, 365564, Note_off_c, 1, 46, 100
3, 365568, Note_on_c, 1, 44, 100
3, 365692, Note_off_c, 1, 51, 100
3, 365696, Note_on_c, 1, 48, 100
3, 365820, Note_off_c, 1, 44, 100
3, 365824, Note_on_c, 1, 51, 100
3, 365948, Note_off_c, 1, 48, 100
3, 365952, Note_on_c, 1, 44, 100
3, 366076, Note_off_c, 1, 51, 100
3, 366080, Note_on_c, 1, 48, 100
3, 366204, Note_off_c, 1, 44, 100
3, 366208, Note_on_c, 1, 51, 100
3, 366332, Note_off_c, 1, 48, 100
3, 366336, Note_on_c, 1, 45, 100
3, 366460, Note_off_c, 1, 51, 100
3, 366464, Note_on_c, 1, 48, 100
3, 366588, Note_off_c, 1, 45, 100
3, 366592, Note_on_c, 1, 53, 100
3, 366716, Note_off_c, 1, 48, 100
3, 366720, Note_on_c, 1, 45, 100
3, 366844, Note_off_c, 1, 53, 100
3, 366848, Note_on_c, 1, 48, 100
3, 366972, Note_off_c, 1, 45, 100
3, 366976, Note_on_c, 1, 53, 100
3, 367100, Note_off_c, 1, 48, 100
3, 367104, Note_on_c, 1, 46, 100
3, 367228, Note_off_c, 1, 53, 100
3, 367232, Note_on_c, 1, 49, 100
3, 367356, Note_off_c, 1, 46, 100
3, 367360, Note_on_c, 1, 53, 100
3, 367484, Note_off_c, 1, 49, 100
3, 367488, Note_on_c, 1, 46, 100
3, 367612, Note_off_c, 1, 53, 100
3, 367616, Note_on_c, 1, 49, 100
3, 367740, Note_off_c, 1, 46, 100
3, 367744, Note_on_c, 1, 53, 100
3, 367868, Note_off_c, 1, 49, 100
3, 367872, Note_on_c, 1, 46, 100
3, 367996, Note_off_c, 1, 53, 100
3, 368000, Note_on_c, 1, 49, 100
3, 368124, Note_off_c, 1, 46, 100
3, 368128, Note_on_c, 1, 55, 100
3, 368252, Note_off_c, 1, 49, 100
3, 368256, Note_on_c, 1, 46, 100
3, 368380, Note_off_c, 1, 55, 100
3, 368384, Note_on_c, 1, 49, 100
3, 368508, Note_off_c, 1, 46, 100
3, 368512, Note_on_c, 1, 55, 100
3, 368636, Note_off_c, 1, 49, 100
3, 368636, Note_off_c, 1, 55, 100
3, 368640, Note_on_c, 1, 48, 100
3, 368768, Note_on_c, 1, 51, 100
3, 368892, Note_off_c, 1, 48, 100
3, 368896, Note_on_c, 1, 56, 100
3, 369020, Note_off_c, 1, 51, 100
3, 369024, Note_on_c, 1, 48, 100
3, 369148, Note_off_c, 1, 56, 100
3, 369152, Note_on_c, 1, 51, 100
3, 369276, Note_off_c, 1, 48, 100
3, 369280, Note_on_c, 1, 56, 100
3, 369404, Note_off_c, 1, 51, 100
3, 369408, Note_on_c, 1, 48, 100
3, 369532, Note_off_c, 1, 56, 100
3, 369536, Note_on_c, 1, 51, 100
3, 369660, Note_off_c, 1, 48, 100
3, 369664, Note_on_c, 1, 57, 100
3, 369788, Note_off_c, 1, 51, 100
3, 369792, Note_on_c, 1, 48, 100
3, 369916, Note_off_c, 1, 57, 100
3, 369920, Note_on_c, 1, 51, 100
3, 370044, Note_off_c, 1, 48, 100
3, 370048, Note_on_c, 1, 57, 100
3, 370172, Note_off_c, 1, 51, 100
3, 370176, Note_on_c, 1, 49, 100
3, 370300, Note_off_c, 1, 57, 100
3, 370304, Note_on_c, 1, 53, 100
3, 370428, Note_off_c, 1, 49, 100
3, 370432, Note_on_c, 1, 58, 100
3, 370556, Note_off_c, 1, 53, 100
3, 370560, Note_on_c, 1, 49, 100
3, 370684, Note_off_c, 1, 58, 100
3, 370688, Note_on_c, 1, 53, 100
3, 370812, Note_off_c, 1, 49, 100
3, 370816, Note_on_c, 1, 58, 100
3, 370940, Note_off_c, 1, 53, 100
3, 370944, Note_on_c, 1, 50, 100
3, 371068, Note_off_c, 1, 58, 100
3, 371072, Note_on_c, 1, 53, 100
3, 371196, Note_off_c, 1, 50, 100
3, 371200, Note_on_c, 1, 59, 100
3, 371324, Note_off_c, 1, 53, 100
3, 371328, Note_on_c, 1, 50, 100
3, 371452, Note_off_c, 1, 59, 100
3, 371456, Note_on_c, 1, 53, 100
3, 371580, Note_off_c, 1, 50, 100
3, 371584, Note_on_c, 1, 59, 100
3, 371708, Note_off_c, 1, 53, 100
3, 371712, Note_on_c, 1, 48, 100
3, 371836, Note_off_c, 1, 59, 100
3, 371840, Note_on_c, 1, 53, 100
3, 371964, Note_off_c, 1, 48, 100
3, 371968, Note_on_c, 1, 56, 100
3, 372092, Note_off_c, 1, 53, 100
3, 372096, Note_on_c, 1, 48, 100
3, 372220, Note_off_c, 1, 56, 100
3, 372224, Note_on_c, 1, 53, 100
3, 372348, Note_off_c, 1, 48, 100
3, 372352, Note_on_c, 1, 56, 100
3, 372476, Note_off_c, 1, 53, 100
3, 372480, Note_on_c, 1, 48, 100
3, 372604, Note_off_c, 1, 56, 100
3, 372608, Note_on_c, 1, 53, 100
3, 372732, Note_off_c, 1, 48, 100
3, 372736, Note_on_c, 1, 56, 100
3, 372860, Note_off_c, 1, 53, 100
3, 372864, Note_on_c, 1, 48, 100
3, 372988, Note_off_c, 1, 56, 100
3, 372992, Note_on_c, 1, 53, 100
3, 373116, Note_off_c, 1, 48, 100
3, 373120, Note_on_c, 1, 56, 100
3, 373244, Note_off_c, 1, 53, 100
3, 373248, Note_on_c, 1, 48, 100
3, 373372, Note_off_c, 1, 56, 100
3, 373376, Note_on_c, 1, 52, 100
3, 373500, Note_off_c, 1, 48, 100
3, 373504, Note_on_c, 1, 55, 100
3, 373628, Note_off_c, 1, 52, 100
3, 373632, Note_on_c, 1, 48, 100
3, 373756, Note_off_c, 1, 55, 100
3, 373760, Note_on_c, 1, 52, 100
3, 373884, Note_off_c, 1, 48, 100
3, 373888, Note_on_c, 1, 55, 100
3, 374012, Note_off_c, 1, 52, 100
3, 374016, Note_on_c, 1, 48, 100
3, 374140, Note_off_c, 1, 55, 100
3, 374144, Note_on_c, 1, 52, 100
3, 374268, Note_off_c, 1, 48, 100
3, 374272, Note_on_c, 1, 55, 100
3, 374396, Note_off_c, 1, 52, 100
3, 374400, Note_on_c, 1, 48, 100
3, 374524, Note_off_c, 1, 55, 100
3, 374528, Note_on_c, 1, 52, 100
3, 374652, Note_off_c, 1, 48, 100
3, 374656, Note_on_c, 1, 55, 100
3, 374780, Note_off_c, 1, 52, 100
3, 374780, Note_off_c, 1, 55, 100
3, 374784, Note_on_c, 1, 53, 110
3, 374784, Note_on_c, 1, 41, 110
3, 375164, Note_off_c, 1, 53, 100
3, 375164, Note_off_c, 1, 41, 100
3, 375552, Note_on_c, 1, 72, 110
3, 375552, Note_on_c, 1, 68, 110
3, 375552, Note_on_c, 1, 65, 110
3, 375932, Note_off_c, 1, 72, 100
3, 375932, Note_off_c, 1, 68, 100
3, 375932, Note_off_c, 1, 65, 100
3, 375936, Note_on_c, 1, 73, 110
3, 375936, Note_on_c, 1, 70, 110
3, 375936, Note_on_c, 1, 65, 110
3, 376316, Note_off_c, 1, 73, 100
3, 376316, Note_off_c, 1, 70, 100
3, 376316, Note_off_c, 1, 65, 100
3, 376320, Note_on_c, 1, 72, 110
3, 376320, Note_on_c, 1, 68, 110
3, 376320, Note_on_c, 1, 65, 110
3, 376700, Note_off_c, 1, 72, 100
3, 376700, Note_off_c, 1, 68, 100
3, 376700, Note_off_c, 1, 65, 100
3, 377088, Note_on_c, 1, 60, 110
3, 377088, Note_on_c, 1, 56, 110
3, 377088, Note_on_c, 1, 53, 110
3, 377468, Note_off_c, 1, 60, 100
3, 377468, Note_off_c, 1, 56, 100
3, 377468, Note_off_c, 1, 53, 100
3, 377472, Note_on_c, 1, 60, 110
3, 377472, Note_on_c, 1, 55, 110
3, 377472, Note_on_c, 1, 48, 110
3, 377852, Note_off_c, 1, 60, 100
3, 377852, Note_off_c, 1, 55, 100
3, 377852, Note_off_c, 1, 48, 100
3, 377856, Note_on_c, 1, 60, 110
3, 377856, Note_on_c, 1, 56, 110
3, 377856, Note_on_c, 1, 53, 110
3, 378236, Note_off_c, 1, 60, 100
3, 378236, Note_off_c, 1, 56, 100
3, 378236, Note_off_c, 1, 53, 100
3, 378624, Note_on_c, 1, 72, 110
3, 378624, Note_on_c, 1, 68, 110
3, 378624, Note_on_c, 1, 65, 110
3, 379004, Note_off_c, 1, 72, 100
3, 379004, Note_off_c, 1, 68, 100
3, 379004, Note_off_c, 1, 65, 100
3, 379008, Note_on_c, 1, 73, 110
3, 379008, Note_on_c, 1, 70, 110
3, 379008, Note_on_c, 1, 65, 110
3, 379388, Note_off_c, 1, 73, 100
3, 379388, Note_off_c, 1, 70, 100
3, 379388, Note_off_c, 1, 65, 100
3, 379392, Note_on_c, 1, 72, 110
3, 379392, Note_on_c, 1, 68, 110
3, 379392, Note_on_c, 1, 65, 110
3, 379772, Note_off_c, 1, 72, 100
3, 379772, Note_off_c, 1, 68, 100
3, 379772, Note_off_c, 1, 65, 100
3, 380160, Note_on_c, 1, 60, 110
3, 380160, Note_on_c, 1, 56, 110
3, 380160, Note_on_c, 1, 53, 110
3, 380540, Note_off_c, 1, 60, 100
3, 380540, Note_off_c, 1, 56, 100
3, 380540, Note_off_c, 1, 53, 100
3, 380544, Note_on_c, 1, 60, 110
3, 380544, Note_on_c, 1, 55, 110
3, 380544, Note_on_c, 1, 48, 110
3, 380924, Note_off_c, 1, 60, 100
3, 380924, Note_off_c, 1, 55, 100
3, 380924, Note_off_c, 1, 48, 100
3, 380928, Note_on_c, 1, 60, 110
3, 380928, Note_on_c, 1, 56, 110
3, 380928, Note_on_c, 1, 53, 110
3, 381308, Note_off_c, 1, 60, 100
3, 381308, Note_off_c, 1, 56, 100
3, 381308, Note_off_c, 1, 53, 100
3, 381696, Note_on_c, 1, 60, 120
3, 381696, Note_on_c, 1, 56, 120
3, 381696, Note_on_c, 1, 53, 120
3, 382076, Note_off_c, 1, 60, 100
3, 382076, Note_off_c, 1, 56, 100
3, 382076, Note_off_c, 1, 53, 100
3, 382080, Note_on_c, 1, 58, 120
3, 382080, Note_on_c, 1, 53, 120
3, 382080, Note_on_c, 1, 61, 120
3, 382460, Note_off_c, 1, 58, 100
3, 382460, Note_off_c, 1, 53, 100
3, 382460, Note_off_c, 1, 61, 100
3, 382464, Note_on_c, 1, 60, 120
3, 382464, Note_on_c, 1, 56, 120
3, 382464, Note_on_c, 1, 53, 120
3, 382844, Note_off_c, 1, 60, 100
3, 382844, Note_off_c, 1, 56, 100
3, 382844, Note_off_c, 1, 53, 100
3, 383232, Note_on_c, 1, 60, 120
3, 383232, Note_on_c, 1, 56, 120
3, 383232, Note_on_c, 1, 53, 120
3, 383612, Note_off_c, 1, 60, 100
3, 383612, Note_off_c, 1, 56, 100
3, 383612, Note_off_c, 1, 53, 100
3, 383616, Note_on_c, 1, 58, 120
3, 383616, Note_on_c, 1, 53, 120
3, 383616, Note_on_c, 1, 61, 120
3, 383996, Note_off_c, 1, 58, 100
3, 383996, Note_off_c, 1, 53, 100
3, 383996, Note_off_c, 1, 61, 100
3, 384000, Note_on_c, 1, 60, 120
3, 384000, Note_on_c, 1, 56, 120
3, 384000, Note_on_c, 1, 53, 120
3, 384764, Note_off_c, 1, 60, 100
3, 384764, Note_off_c, 1, 56, 100
3, 384764, Note_off_c, 1, 53, 100
3, 385152, Note_on_c, 1, 53, 120
3, 385280, Note_on_c, 1, 48, 120
3, 385404, Note_off_c, 1, 53, 100
3, 385408, Note_on_c, 1, 44, 120
3, 385532, Note_off_c, 1, 48, 100
3, 385532, Note_off_c, 1, 44, 100
3, 385536, Note_on_c, 1, 41, 120
3, 386300, Note_off_c, 1, 41, 100
3, 386300, End_track
4, 0, Start_track
4, 0, End_track
5, 0, Start_track
5, 0, End_track
6, 0, Start_track
6, 0, End_track
7, 0, Start_track
7, 0, End_track
8, 0, Start_track
8, 0, End_track
9, 0, Start_track
9, 0, End_track
10, 0, Start_track
10, 0, End_track
11, 0, Start_track
11, 0, End_track
12, 0, Start_track
12, 0, End_track
13, 0, Start_track
13, 0, End_track
14, 0, Start_track
14, 0, End_track
15, 0, Start_track
15, 0, End_track
16, 0, Start_track
16, 0, End_track
17, 0, Start_track
17, 0, End_track
18, 0, Start_track
18, 0, End_track
0, 0, End_of_file
