0, 0, Header, 1, 3, 384
1, 0, Start_track
1, 0, Title_t, "L.v.Beethoven 1mov - Piano Sonata No.1 in f minor Op.2-1\000"
1, 0, Copyright_t, "Copyright(C) 1995-2009, Suzuki Software\000"
1, 0, Sequencer_specific, 9, 67, 123, 0, 88, 70, 48, 50, 0, 1
1, 0, Text_t, "XFhd:2000/02/27:JP:Classical::::L.v.Beethoven:::Kaoru Suzuki\000"
1, 0, Text_t, "XFln:JP:\203s\203A\203m\203\\\203i\203^\221æ1\224Ô\203w\222Z\222²\215ì\225i2-1\201`\221æ1\212y\217Í:L.v.\203x\201[\203g\201[\203\224\203F\203\223:::\227é\202¿\202á\202ñ:\227é\202¿\202á\202ñ\000"
1, 0, Time_signature, 1, 1, 96, 8
1, 0, Sequencer_specific, 3, 0, 0, 65
1, 0, Sequencer_specific, 5, 0, 0, 119, 14, 0
1, 0, Tempo, 300000
1, 768, Time_signature, 2, 1, 96, 8
1, 309504, Tempo, 333333
1, 310272, Tempo, 428571
1, 310272, End_track
2, 0, Start_track
2, 0, Title_t, "Right"
2, 0, Control_c, 0, 0, 0
2, 0, Program_c, 0, 0
2, 0, Control_c, 0, 7, 100
2, 0, Control_c, 0, 91, 127
2, 0, Key_signature, -4, "minor"
2, 384, Note_on_c, 0, 60, 80
2, 760, Note_off_c, 0, 60, 100
2, 768, Note_on_c, 0, 65, 80
2, 1144, Note_off_c, 0, 65, 100
2, 1152, Note_on_c, 0, 68, 81
2, 1528, Note_off_c, 0, 68, 100
2, 1536, Note_on_c, 0, 72, 81
2, 1912, Note_off_c, 0, 72, 100
2, 1920, Note_on_c, 0, 77, 82
2, 2296, Note_off_c, 0, 77, 100
2, 2304, Note_on_c, 0, 80, 99
2, 2872, Note_off_c, 0, 80, 100
2, 2880, Note_on_c, 0, 79, 84
2, 2944, Note_on_c, 0, 77, 84
2, 3000, Note_off_c, 0, 79, 100
2, 3008, Note_on_c, 0, 76, 84
2, 3064, Note_off_c, 0, 77, 100
2, 3064, Note_off_c, 0, 76, 100
2, 3072, Note_on_c, 0, 77, 84
2, 3448, Note_off_c, 0, 77, 100
2, 3840, Note_on_c, 0, 67, 85
2, 4216, Note_off_c, 0, 67, 100
2, 4224, Note_on_c, 0, 72, 86
2, 4600, Note_off_c, 0, 72, 100
2, 4608, Note_on_c, 0, 76, 86
2, 4984, Note_off_c, 0, 76, 100
2, 4992, Note_on_c, 0, 79, 87
2, 5368, Note_off_c, 0, 79, 100
2, 5376, Note_on_c, 0, 82, 101
2, 5944, Note_off_c, 0, 82, 100
2, 5952, Note_on_c, 0, 80, 89
2, 6016, Note_on_c, 0, 79, 89
2, 6072, Note_off_c, 0, 80, 100
2, 6080, Note_on_c, 0, 77, 89
2, 6136, Note_off_c, 0, 79, 100
2, 6136, Note_off_c, 0, 77, 100
2, 6144, Note_on_c, 0, 79, 89
2, 6520, Note_off_c, 0, 79, 100
2, 6912, Note_on_c, 0, 72, 110
2, 6976, Note_on_c, 0, 80, 110
2, 7032, Note_off_c, 0, 72, 100
2, 7480, Note_off_c, 0, 80, 100
2, 7488, Note_on_c, 0, 79, 100
2, 7552, Note_on_c, 0, 77, 100
2, 7608, Note_off_c, 0, 79, 100
2, 7616, Note_on_c, 0, 76, 100
2, 7672, Note_off_c, 0, 77, 100
2, 7672, Note_off_c, 0, 76, 100
2, 7680, Note_on_c, 0, 77, 100
2, 8056, Note_off_c, 0, 77, 100
2, 8448, Note_on_c, 0, 72, 110
2, 8512, Note_on_c, 0, 82, 110
2, 8568, Note_off_c, 0, 72, 100
2, 9016, Note_off_c, 0, 82, 100
2, 9024, Note_on_c, 0, 80, 100
2, 9088, Note_on_c, 0, 79, 100
2, 9144, Note_off_c, 0, 80, 100
2, 9152, Note_on_c, 0, 77, 100
2, 9208, Note_off_c, 0, 79, 100
2, 9208, Note_off_c, 0, 77, 100
2, 9216, Note_on_c, 0, 79, 100
2, 9592, Note_off_c, 0, 79, 100
2, 9984, Note_on_c, 0, 68, 120
2, 10048, Note_on_c, 0, 77, 120
2, 10112, Note_on_c, 0, 80, 120
2, 10176, Note_on_c, 0, 84, 120
2, 10744, Note_off_c, 0, 68, 100
2, 10744, Note_off_c, 0, 77, 100
2, 10744, Note_off_c, 0, 80, 100
2, 10744, Note_off_c, 0, 84, 100
2, 10752, Note_on_c, 0, 82, 120
2, 10936, Note_off_c, 0, 82, 100
2, 10944, Note_on_c, 0, 80, 118
2, 11128, Note_off_c, 0, 80, 100
2, 11136, Note_on_c, 0, 79, 115
2, 11320, Note_off_c, 0, 79, 100
2, 11328, Note_on_c, 0, 77, 112
2, 11512, Note_off_c, 0, 77, 100
2, 11520, Note_on_c, 0, 76, 109
2, 11584, Note_on_c, 0, 77, 108
2, 11640, Note_off_c, 0, 76, 100
2, 11648, Note_on_c, 0, 79, 107
2, 11704, Note_off_c, 0, 77, 100
2, 11712, Note_on_c, 0, 77, 106
2, 11768, Note_off_c, 0, 79, 100
2, 12280, Note_off_c, 0, 77, 100
2, 12672, Note_on_c, 0, 76, 91
2, 13048, Note_off_c, 0, 76, 100
2, 17664, Note_on_c, 0, 68, 80
2, 18240, Note_on_c, 0, 75, 80
2, 18304, Note_on_c, 0, 73, 80
2, 18360, Note_off_c, 0, 75, 100
2, 18368, Note_on_c, 0, 72, 80
2, 18424, Note_off_c, 0, 73, 100
2, 18424, Note_off_c, 0, 72, 100
2, 18432, Note_on_c, 0, 73, 80
2, 18808, Note_off_c, 0, 73, 100
2, 18816, Note_on_c, 0, 73, 80
2, 19192, Note_off_c, 0, 73, 100
2, 19200, Note_on_c, 0, 73, 80
2, 19768, Note_off_c, 0, 68, 100
2, 19776, Note_on_c, 0, 70, 80
2, 19840, Note_on_c, 0, 68, 80
2, 19896, Note_off_c, 0, 70, 100
2, 19904, Note_on_c, 0, 67, 80
2, 19960, Note_off_c, 0, 68, 100
2, 19960, Note_off_c, 0, 67, 100
2, 19968, Note_on_c, 0, 68, 80
2, 20344, Note_off_c, 0, 68, 100
2, 20352, Note_on_c, 0, 68, 80
2, 20728, Note_off_c, 0, 68, 100
2, 20736, Note_on_c, 0, 67, 80
2, 21304, Note_off_c, 0, 73, 100
2, 21312, Note_on_c, 0, 75, 80
2, 21376, Note_on_c, 0, 73, 80
2, 21432, Note_off_c, 0, 75, 100
2, 21440, Note_on_c, 0, 72, 80
2, 21496, Note_off_c, 0, 73, 100
2, 21496, Note_off_c, 0, 72, 100
2, 21504, Note_on_c, 0, 73, 80
2, 21880, Note_off_c, 0, 73, 100
2, 21888, Note_on_c, 0, 73, 80
2, 22264, Note_off_c, 0, 67, 100
2, 22264, Note_off_c, 0, 73, 100
2, 22272, Note_on_c, 0, 68, 80
2, 22848, Note_on_c, 0, 73, 80
2, 22912, Note_on_c, 0, 72, 80
2, 22968, Note_off_c, 0, 73, 100
2, 22976, Note_on_c, 0, 71, 80
2, 23032, Note_off_c, 0, 72, 100
2, 23032, Note_off_c, 0, 71, 100
2, 23040, Note_on_c, 0, 72, 80
2, 23416, Note_off_c, 0, 72, 100
2, 23424, Note_on_c, 0, 72, 80
2, 23800, Note_off_c, 0, 68, 100
2, 23800, Note_off_c, 0, 72, 100
2, 23808, Note_on_c, 0, 72, 80
2, 24184, Note_off_c, 0, 72, 100
2, 24192, Note_on_c, 0, 70, 80
2, 24952, Note_off_c, 0, 70, 100
2, 24960, Note_on_c, 0, 68, 80
2, 25336, Note_off_c, 0, 68, 100
2, 25344, Note_on_c, 0, 67, 90
2, 25720, Note_off_c, 0, 67, 100
2, 25728, Note_on_c, 0, 75, 91
2, 26104, Note_off_c, 0, 75, 100
2, 26112, Note_on_c, 0, 73, 92
2, 26488, Note_off_c, 0, 73, 100
2, 26496, Note_on_c, 0, 72, 93
2, 27256, Note_off_c, 0, 72, 100
2, 27264, Note_on_c, 0, 70, 96
2, 28024, Note_off_c, 0, 70, 100
2, 28032, Note_on_c, 0, 68, 98
2, 28408, Note_off_c, 0, 68, 100
2, 28416, Note_on_c, 0, 67, 99
2, 28792, Note_off_c, 0, 67, 100
2, 28800, Note_on_c, 0, 75, 110
2, 28800, Note_on_c, 0, 63, 110
2, 29176, Note_off_c, 0, 75, 100
2, 29176, Note_off_c, 0, 63, 100
2, 29184, Note_on_c, 0, 61, 110
2, 29184, Note_on_c, 0, 73, 110
2, 29560, Note_off_c, 0, 61, 100
2, 29560, Note_off_c, 0, 73, 100
2, 29568, Note_on_c, 0, 72, 110
2, 29568, Note_on_c, 0, 60, 110
2, 30328, Note_off_c, 0, 60, 100
2, 30328, Note_off_c, 0, 72, 100
2, 30336, Note_on_c, 0, 70, 110
2, 30336, Note_on_c, 0, 58, 110
2, 31096, Note_off_c, 0, 70, 100
2, 31096, Note_off_c, 0, 58, 100
2, 31104, Note_on_c, 0, 68, 110
2, 31104, Note_on_c, 0, 56, 110
2, 31480, Note_off_c, 0, 68, 100
2, 31480, Note_off_c, 0, 56, 100
2, 31488, Note_on_c, 0, 67, 110
2, 31488, Note_on_c, 0, 55, 110
2, 31864, Note_off_c, 0, 67, 100
2, 31864, Note_off_c, 0, 55, 100
2, 32640, Note_on_c, 0, 76, 80
2, 33016, Note_off_c, 0, 76, 100
2, 33024, Note_on_c, 0, 75, 80
2, 33400, Note_off_c, 0, 75, 100
2, 33408, Note_on_c, 0, 73, 80
2, 33784, Note_off_c, 0, 73, 100
2, 33792, Note_on_c, 0, 70, 80
2, 34168, Note_off_c, 0, 70, 100
2, 34176, Note_on_c, 0, 67, 80
2, 34552, Note_off_c, 0, 67, 100
2, 34560, Note_on_c, 0, 64, 110
2, 35128, Note_off_c, 0, 64, 100
2, 35136, Note_on_c, 0, 63, 100
2, 35320, Note_off_c, 0, 63, 100
2, 35328, Note_on_c, 0, 68, 100
2, 35704, Note_off_c, 0, 68, 100
2, 35712, Note_on_c, 0, 76, 80
2, 36088, Note_off_c, 0, 76, 100
2, 36096, Note_on_c, 0, 75, 80
2, 36472, Note_off_c, 0, 75, 100
2, 36480, Note_on_c, 0, 73, 80
2, 36856, Note_off_c, 0, 73, 100
2, 36864, Note_on_c, 0, 70, 80
2, 37240, Note_off_c, 0, 70, 100
2, 37248, Note_on_c, 0, 67, 80
2, 37624, Note_off_c, 0, 67, 100
2, 37632, Note_on_c, 0, 64, 110
2, 38200, Note_off_c, 0, 64, 100
2, 38208, Note_on_c, 0, 63, 100
2, 38392, Note_off_c, 0, 63, 100
2, 38400, Note_on_c, 0, 68, 100
2, 38776, Note_off_c, 0, 68, 100
2, 38784, Note_on_c, 0, 76, 100
2, 39160, Note_off_c, 0, 76, 100
2, 39168, Note_on_c, 0, 75, 100
2, 39544, Note_off_c, 0, 75, 100
2, 39552, Note_on_c, 0, 73, 100
2, 39928, Note_off_c, 0, 73, 100
2, 39936, Note_on_c, 0, 70, 100
2, 40312, Note_off_c, 0, 70, 100
2, 40320, Note_on_c, 0, 67, 100
2, 40696, Note_off_c, 0, 67, 100
2, 40896, Note_on_c, 0, 67, 100
2, 41080, Note_off_c, 0, 67, 100
2, 41088, Note_on_c, 0, 70, 100
2, 41272, Note_off_c, 0, 70, 100
2, 41280, Note_on_c, 0, 68, 100
2, 41464, Note_off_c, 0, 68, 100
2, 41664, Note_on_c, 0, 69, 100
2, 41848, Note_off_c, 0, 69, 100
2, 41856, Note_on_c, 0, 72, 100
2, 42040, Note_off_c, 0, 72, 100
2, 42048, Note_on_c, 0, 70, 100
2, 42232, Note_off_c, 0, 70, 100
2, 42432, Note_on_c, 0, 71, 100
2, 42616, Note_off_c, 0, 71, 100
2, 42624, Note_on_c, 0, 73, 100
2, 42808, Note_off_c, 0, 73, 100
2, 42816, Note_on_c, 0, 72, 100
2, 43000, Note_off_c, 0, 72, 100
2, 43200, Note_on_c, 0, 74, 100
2, 43384, Note_off_c, 0, 74, 100
2, 43392, Note_on_c, 0, 80, 100
2, 43576, Note_off_c, 0, 80, 100
2, 43584, Note_on_c, 0, 74, 100
2, 43768, Note_off_c, 0, 74, 100
2, 43776, Note_on_c, 0, 75, 100
2, 44152, Note_off_c, 0, 75, 100
2, 44736, Note_on_c, 0, 74, 100
2, 44920, Note_off_c, 0, 74, 100
2, 44928, Note_on_c, 0, 80, 100
2, 45112, Note_off_c, 0, 80, 100
2, 45120, Note_on_c, 0, 74, 100
2, 45304, Note_off_c, 0, 74, 100
2, 45312, Note_on_c, 0, 75, 100
2, 45688, Note_off_c, 0, 75, 100
2, 46272, Note_on_c, 0, 79, 100
2, 46456, Note_off_c, 0, 79, 100
2, 46464, Note_on_c, 0, 88, 100
2, 46648, Note_off_c, 0, 88, 100
2, 46656, Note_on_c, 0, 79, 100
2, 46840, Note_off_c, 0, 79, 100
2, 46848, Note_on_c, 0, 80, 100
2, 47224, Note_off_c, 0, 80, 100
2, 47808, Note_on_c, 0, 79, 100
2, 47992, Note_off_c, 0, 79, 100
2, 48000, Note_on_c, 0, 88, 100
2, 48184, Note_off_c, 0, 88, 100
2, 48192, Note_on_c, 0, 79, 100
2, 48376, Note_off_c, 0, 79, 100
2, 48576, Note_on_c, 0, 79, 100
2, 48760, Note_off_c, 0, 79, 100
2, 48768, Note_on_c, 0, 82, 101
2, 48952, Note_off_c, 0, 82, 100
2, 48960, Note_on_c, 0, 80, 101
2, 49144, Note_off_c, 0, 80, 100
2, 49344, Note_on_c, 0, 81, 103
2, 49528, Note_off_c, 0, 81, 100
2, 49536, Note_on_c, 0, 84, 103
2, 49720, Note_off_c, 0, 84, 100
2, 49728, Note_on_c, 0, 82, 104
2, 49912, Note_off_c, 0, 82, 100
2, 50112, Note_on_c, 0, 83, 105
2, 50296, Note_off_c, 0, 83, 100
2, 50304, Note_on_c, 0, 85, 106
2, 50488, Note_off_c, 0, 85, 100
2, 50496, Note_on_c, 0, 84, 106
2, 50680, Note_off_c, 0, 84, 100
2, 50880, Note_on_c, 0, 84, 108
2, 51064, Note_off_c, 0, 84, 100
2, 51072, Note_on_c, 0, 87, 108
2, 51256, Note_off_c, 0, 87, 100
2, 51264, Note_on_c, 0, 85, 109
2, 51448, Note_off_c, 0, 85, 100
2, 51648, Note_on_c, 0, 86, 110
2, 51832, Note_off_c, 0, 86, 100
2, 51840, Note_on_c, 0, 89, 109
2, 52024, Note_off_c, 0, 89, 100
2, 52032, Note_on_c, 0, 87, 109
2, 52216, Note_off_c, 0, 87, 100
2, 52224, Note_on_c, 0, 85, 108
2, 52408, Note_off_c, 0, 85, 100
2, 52416, Note_on_c, 0, 84, 107
2, 52600, Note_off_c, 0, 84, 100
2, 52608, Note_on_c, 0, 82, 107
2, 52792, Note_off_c, 0, 82, 100
2, 52800, Note_on_c, 0, 80, 106
2, 52984, Note_off_c, 0, 80, 100
2, 52992, Note_on_c, 0, 79, 105
2, 53176, Note_off_c, 0, 79, 100
2, 53184, Note_on_c, 0, 77, 105
2, 53368, Note_off_c, 0, 77, 100
2, 53376, Note_on_c, 0, 75, 104
2, 53560, Note_off_c, 0, 75, 100
2, 53568, Note_on_c, 0, 73, 104
2, 53752, Note_off_c, 0, 73, 100
2, 53760, Note_on_c, 0, 72, 103
2, 53944, Note_off_c, 0, 72, 100
2, 53952, Note_on_c, 0, 70, 102
2, 54136, Note_off_c, 0, 70, 100
2, 54144, Note_on_c, 0, 68, 102
2, 54328, Note_off_c, 0, 68, 100
2, 54336, Note_on_c, 0, 67, 101
2, 54520, Note_off_c, 0, 67, 100
2, 54528, Note_on_c, 0, 65, 80
2, 54712, Note_off_c, 0, 65, 100
2, 54720, Note_on_c, 0, 63, 80
2, 54904, Note_off_c, 0, 63, 100
2, 54912, Note_on_c, 0, 62, 80
2, 55096, Note_off_c, 0, 62, 100
2, 55104, Note_on_c, 0, 63, 80
2, 55288, Note_off_c, 0, 63, 100
2, 55296, Note_on_c, 0, 62, 80
2, 55480, Note_off_c, 0, 62, 100
2, 55488, Note_on_c, 0, 63, 80
2, 55672, Note_off_c, 0, 63, 100
2, 55680, Note_on_c, 0, 62, 80
2, 55864, Note_off_c, 0, 62, 100
2, 55872, Note_on_c, 0, 63, 80
2, 56056, Note_off_c, 0, 63, 100
2, 56064, Note_on_c, 0, 62, 80
2, 56248, Note_off_c, 0, 62, 100
2, 56256, Note_on_c, 0, 63, 80
2, 56440, Note_off_c, 0, 63, 100
2, 56448, Note_on_c, 0, 65, 80
2, 56632, Note_off_c, 0, 65, 100
2, 56640, Note_on_c, 0, 63, 80
2, 56824, Note_off_c, 0, 63, 100
2, 56832, Note_on_c, 0, 62, 80
2, 57016, Note_off_c, 0, 62, 100
2, 57024, Note_on_c, 0, 63, 80
2, 57208, Note_off_c, 0, 63, 100
2, 57216, Note_on_c, 0, 65, 80
2, 57400, Note_off_c, 0, 65, 100
2, 57408, Note_on_c, 0, 63, 80
2, 57592, Note_off_c, 0, 63, 100
2, 57792, Note_on_c, 0, 80, 110
2, 57976, Note_off_c, 0, 80, 100
2, 57984, Note_on_c, 0, 89, 109
2, 58168, Note_off_c, 0, 89, 100
2, 58176, Note_on_c, 0, 87, 109
2, 58360, Note_off_c, 0, 87, 100
2, 58368, Note_on_c, 0, 85, 108
2, 58552, Note_off_c, 0, 85, 100
2, 58560, Note_on_c, 0, 84, 107
2, 58744, Note_off_c, 0, 84, 100
2, 58752, Note_on_c, 0, 82, 107
2, 58936, Note_off_c, 0, 82, 100
2, 58944, Note_on_c, 0, 80, 106
2, 59128, Note_off_c, 0, 80, 100
2, 59136, Note_on_c, 0, 79, 105
2, 59320, Note_off_c, 0, 79, 100
2, 59328, Note_on_c, 0, 77, 105
2, 59512, Note_off_c, 0, 77, 100
2, 59520, Note_on_c, 0, 75, 104
2, 59704, Note_off_c, 0, 75, 100
2, 59712, Note_on_c, 0, 73, 104
2, 59896, Note_off_c, 0, 73, 100
2, 59904, Note_on_c, 0, 72, 103
2, 60088, Note_off_c, 0, 72, 100
2, 60096, Note_on_c, 0, 70, 102
2, 60280, Note_off_c, 0, 70, 100
2, 60288, Note_on_c, 0, 68, 102
2, 60472, Note_off_c, 0, 68, 100
2, 60480, Note_on_c, 0, 67, 101
2, 60664, Note_off_c, 0, 67, 100
2, 60672, Note_on_c, 0, 65, 100
2, 60856, Note_off_c, 0, 65, 100
2, 60864, Note_on_c, 0, 63, 100
2, 61048, Note_off_c, 0, 63, 100
2, 61056, Note_on_c, 0, 61, 100
2, 61240, Note_off_c, 0, 61, 100
2, 61248, Note_on_c, 0, 60, 100
2, 61432, Note_off_c, 0, 60, 100
2, 61440, Note_on_c, 0, 58, 100
2, 61624, Note_off_c, 0, 58, 100
2, 61632, Note_on_c, 0, 56, 100
2, 61816, Note_off_c, 0, 56, 100
2, 61824, Note_on_c, 0, 55, 100
2, 62008, Note_off_c, 0, 55, 100
2, 62016, Note_on_c, 0, 53, 100
2, 62200, Note_off_c, 0, 53, 100
2, 62208, Note_on_c, 0, 51, 100
2, 62392, Note_off_c, 0, 51, 100
2, 62400, Note_on_c, 0, 53, 100
2, 62584, Note_off_c, 0, 53, 100
2, 62592, Note_on_c, 0, 55, 100
2, 62776, Note_off_c, 0, 55, 100
2, 62784, Note_on_c, 0, 56, 100
2, 62968, Note_off_c, 0, 56, 100
2, 62976, Note_on_c, 0, 58, 100
2, 63160, Note_off_c, 0, 58, 100
2, 63168, Note_on_c, 0, 60, 100
2, 63352, Note_off_c, 0, 60, 100
2, 63360, Note_on_c, 0, 61, 100
2, 63544, Note_off_c, 0, 61, 100
2, 63552, Note_on_c, 0, 58, 100
2, 63736, Note_off_c, 0, 58, 100
2, 63744, Note_on_c, 0, 56, 100
2, 64120, Note_off_c, 0, 56, 100
2, 64448, Note_on_c, 0, 62, 100
2, 64512, Note_on_c, 0, 71, 100
2, 64536, Note_off_c, 0, 62, 100
2, 65080, Note_off_c, 0, 71, 100
2, 65088, Note_on_c, 0, 70, 100
2, 65272, Note_off_c, 0, 70, 100
2, 65280, Note_on_c, 0, 68, 100
2, 66040, Note_off_c, 0, 68, 100
2, 66048, Note_on_c, 0, 67, 100
2, 66616, Note_off_c, 0, 67, 100
2, 66624, Note_on_c, 0, 75, 100
2, 66808, Note_off_c, 0, 75, 100
2, 66816, Note_on_c, 0, 75, 100
2, 67192, Note_off_c, 0, 75, 100
2, 67200, Note_on_c, 0, 68, 100
2, 67480, Note_off_c, 0, 68, 100
2, 67520, Note_on_c, 0, 62, 100
2, 67584, Note_on_c, 0, 71, 100
2, 67608, Note_off_c, 0, 62, 100
2, 68152, Note_off_c, 0, 71, 100
2, 68160, Note_on_c, 0, 70, 100
2, 68344, Note_off_c, 0, 70, 100
2, 68352, Note_on_c, 0, 68, 100
2, 69112, Note_off_c, 0, 68, 100
2, 69120, Note_on_c, 0, 67, 100
2, 69688, Note_off_c, 0, 67, 100
2, 69696, Note_on_c, 0, 75, 100
2, 69880, Note_off_c, 0, 75, 100
2, 69888, Note_on_c, 0, 75, 100
2, 70264, Note_off_c, 0, 75, 100
2, 70272, Note_on_c, 0, 68, 100
2, 70552, Note_off_c, 0, 68, 100
2, 70592, Note_on_c, 0, 74, 110
2, 70656, Note_on_c, 0, 83, 110
2, 70680, Note_off_c, 0, 74, 100
2, 71224, Note_off_c, 0, 83, 100
2, 71232, Note_on_c, 0, 82, 110
2, 71416, Note_off_c, 0, 82, 100
2, 71424, Note_on_c, 0, 80, 110
2, 72184, Note_off_c, 0, 80, 100
2, 72192, Note_on_c, 0, 79, 110
2, 72760, Note_off_c, 0, 79, 100
2, 72768, Note_on_c, 0, 87, 110
2, 72952, Note_off_c, 0, 87, 100
2, 72960, Note_on_c, 0, 79, 120
2, 72960, Note_on_c, 0, 73, 120
2, 72960, Note_on_c, 0, 87, 120
2, 74488, Note_off_c, 0, 79, 100
2, 74488, Note_off_c, 0, 73, 100
2, 74488, Note_off_c, 0, 87, 100
2, 74496, Note_on_c, 0, 80, 100
2, 74496, Note_on_c, 0, 75, 100
2, 74496, Note_on_c, 0, 72, 100
2, 74872, Note_off_c, 0, 80, 100
2, 74872, Note_off_c, 0, 75, 100
2, 74872, Note_off_c, 0, 72, 100
2, 75648, Note_on_c, 0, 60, 80
2, 76024, Note_off_c, 0, 60, 100
2, 76032, Note_on_c, 0, 65, 80
2, 76408, Note_off_c, 0, 65, 100
2, 76416, Note_on_c, 0, 68, 81
2, 76792, Note_off_c, 0, 68, 100
2, 76800, Note_on_c, 0, 72, 81
2, 77176, Note_off_c, 0, 72, 100
2, 77184, Note_on_c, 0, 77, 82
2, 77560, Note_off_c, 0, 77, 100
2, 77568, Note_on_c, 0, 80, 100
2, 78136, Note_off_c, 0, 80, 100
2, 78144, Note_on_c, 0, 79, 83
2, 78208, Note_on_c, 0, 77, 84
2, 78264, Note_off_c, 0, 79, 100
2, 78272, Note_on_c, 0, 76, 84
2, 78328, Note_off_c, 0, 77, 100
2, 78328, Note_off_c, 0, 76, 100
2, 78336, Note_on_c, 0, 77, 84
2, 78712, Note_off_c, 0, 77, 100
2, 79104, Note_on_c, 0, 67, 85
2, 79480, Note_off_c, 0, 67, 100
2, 79488, Note_on_c, 0, 72, 86
2, 79864, Note_off_c, 0, 72, 100
2, 79872, Note_on_c, 0, 76, 86
2, 80248, Note_off_c, 0, 76, 100
2, 80256, Note_on_c, 0, 79, 87
2, 80632, Note_off_c, 0, 79, 100
2, 80640, Note_on_c, 0, 82, 103
2, 81208, Note_off_c, 0, 82, 100
2, 81216, Note_on_c, 0, 80, 88
2, 81280, Note_on_c, 0, 79, 88
2, 81336, Note_off_c, 0, 80, 100
2, 81344, Note_on_c, 0, 77, 88
2, 81400, Note_off_c, 0, 79, 100
2, 81400, Note_off_c, 0, 77, 100
2, 81408, Note_on_c, 0, 79, 89
2, 81784, Note_off_c, 0, 79, 100
2, 82176, Note_on_c, 0, 72, 110
2, 82240, Note_on_c, 0, 80, 110
2, 82296, Note_off_c, 0, 72, 100
2, 82744, Note_off_c, 0, 80, 100
2, 82752, Note_on_c, 0, 79, 100
2, 82816, Note_on_c, 0, 77, 100
2, 82872, Note_off_c, 0, 79, 100
2, 82880, Note_on_c, 0, 76, 100
2, 82936, Note_off_c, 0, 77, 100
2, 82936, Note_off_c, 0, 76, 100
2, 82944, Note_on_c, 0, 77, 100
2, 83320, Note_off_c, 0, 77, 100
2, 83712, Note_on_c, 0, 72, 110
2, 83776, Note_on_c, 0, 82, 110
2, 83832, Note_off_c, 0, 72, 100
2, 84280, Note_off_c, 0, 82, 100
2, 84288, Note_on_c, 0, 80, 100
2, 84352, Note_on_c, 0, 79, 100
2, 84408, Note_off_c, 0, 80, 100
2, 84416, Note_on_c, 0, 77, 100
2, 84472, Note_off_c, 0, 79, 100
2, 84472, Note_off_c, 0, 77, 100
2, 84480, Note_on_c, 0, 79, 100
2, 84856, Note_off_c, 0, 79, 100
2, 85248, Note_on_c, 0, 68, 120
2, 85312, Note_on_c, 0, 77, 120
2, 85376, Note_on_c, 0, 80, 120
2, 85440, Note_on_c, 0, 84, 120
2, 86008, Note_off_c, 0, 68, 100
2, 86008, Note_off_c, 0, 77, 100
2, 86008, Note_off_c, 0, 80, 100
2, 86008, Note_off_c, 0, 84, 100
2, 86016, Note_on_c, 0, 82, 120
2, 86200, Note_off_c, 0, 82, 100
2, 86208, Note_on_c, 0, 80, 120
2, 86392, Note_off_c, 0, 80, 100
2, 86400, Note_on_c, 0, 79, 120
2, 86584, Note_off_c, 0, 79, 100
2, 86592, Note_on_c, 0, 77, 120
2, 86776, Note_off_c, 0, 77, 100
2, 86784, Note_on_c, 0, 76, 120
2, 86848, Note_on_c, 0, 77, 120
2, 86904, Note_off_c, 0, 76, 100
2, 86912, Note_on_c, 0, 79, 120
2, 86968, Note_off_c, 0, 77, 100
2, 86976, Note_on_c, 0, 77, 120
2, 87032, Note_off_c, 0, 79, 100
2, 87544, Note_off_c, 0, 77, 100
2, 87936, Note_on_c, 0, 76, 120
2, 88312, Note_off_c, 0, 76, 100
2, 92928, Note_on_c, 0, 68, 83
2, 93504, Note_on_c, 0, 75, 83
2, 93568, Note_on_c, 0, 73, 83
2, 93624, Note_off_c, 0, 75, 100
2, 93632, Note_on_c, 0, 72, 83
2, 93688, Note_off_c, 0, 73, 100
2, 93688, Note_off_c, 0, 72, 100
2, 93696, Note_on_c, 0, 73, 83
2, 94072, Note_off_c, 0, 73, 100
2, 94080, Note_on_c, 0, 73, 84
2, 94456, Note_off_c, 0, 73, 100
2, 94464, Note_on_c, 0, 73, 84
2, 95032, Note_off_c, 0, 68, 100
2, 95040, Note_on_c, 0, 70, 85
2, 95104, Note_on_c, 0, 68, 85
2, 95160, Note_off_c, 0, 70, 100
2, 95168, Note_on_c, 0, 67, 85
2, 95224, Note_off_c, 0, 68, 100
2, 95224, Note_off_c, 0, 67, 100
2, 95232, Note_on_c, 0, 68, 85
2, 95608, Note_off_c, 0, 68, 100
2, 95616, Note_on_c, 0, 68, 85
2, 95992, Note_off_c, 0, 68, 100
2, 96000, Note_on_c, 0, 67, 86
2, 96568, Note_off_c, 0, 73, 100
2, 96576, Note_on_c, 0, 75, 86
2, 96640, Note_on_c, 0, 73, 86
2, 96696, Note_off_c, 0, 75, 100
2, 96704, Note_on_c, 0, 72, 86
2, 96760, Note_off_c, 0, 73, 100
2, 96760, Note_off_c, 0, 72, 100
2, 96768, Note_on_c, 0, 73, 86
2, 97144, Note_off_c, 0, 73, 100
2, 97152, Note_on_c, 0, 73, 87
2, 97528, Note_off_c, 0, 67, 100
2, 97528, Note_off_c, 0, 73, 100
2, 97536, Note_on_c, 0, 68, 87
2, 98112, Note_on_c, 0, 73, 88
2, 98176, Note_on_c, 0, 72, 88
2, 98232, Note_off_c, 0, 73, 100
2, 98240, Note_on_c, 0, 71, 88
2, 98296, Note_off_c, 0, 72, 100
2, 98296, Note_off_c, 0, 71, 100
2, 98304, Note_on_c, 0, 72, 88
2, 98680, Note_off_c, 0, 72, 100
2, 98688, Note_on_c, 0, 72, 88
2, 99064, Note_off_c, 0, 68, 100
2, 99064, Note_off_c, 0, 72, 100
2, 99072, Note_on_c, 0, 72, 88
2, 99448, Note_off_c, 0, 72, 100
2, 99456, Note_on_c, 0, 70, 89
2, 100216, Note_off_c, 0, 70, 100
2, 100224, Note_on_c, 0, 68, 89
2, 100600, Note_off_c, 0, 68, 100
2, 100608, Note_on_c, 0, 67, 100
2, 100984, Note_off_c, 0, 67, 100
2, 100992, Note_on_c, 0, 75, 100
2, 101368, Note_off_c, 0, 75, 100
2, 101376, Note_on_c, 0, 73, 100
2, 101752, Note_off_c, 0, 73, 100
2, 101760, Note_on_c, 0, 72, 100
2, 102520, Note_off_c, 0, 72, 100
2, 102528, Note_on_c, 0, 70, 100
2, 103288, Note_off_c, 0, 70, 100
2, 103296, Note_on_c, 0, 68, 100
2, 103672, Note_off_c, 0, 68, 100
2, 103680, Note_on_c, 0, 67, 100
2, 104056, Note_off_c, 0, 67, 100
2, 104064, Note_on_c, 0, 75, 110
2, 104064, Note_on_c, 0, 63, 110
2, 104440, Note_off_c, 0, 75, 100
2, 104440, Note_off_c, 0, 63, 100
2, 104448, Note_on_c, 0, 61, 110
2, 104448, Note_on_c, 0, 73, 110
2, 104824, Note_off_c, 0, 61, 100
2, 104824, Note_off_c, 0, 73, 100
2, 104832, Note_on_c, 0, 72, 110
2, 104832, Note_on_c, 0, 60, 110
2, 105592, Note_off_c, 0, 60, 100
2, 105592, Note_off_c, 0, 72, 100
2, 105600, Note_on_c, 0, 70, 110
2, 105600, Note_on_c, 0, 58, 110
2, 106360, Note_off_c, 0, 70, 100
2, 106360, Note_off_c, 0, 58, 100
2, 106368, Note_on_c, 0, 68, 110
2, 106368, Note_on_c, 0, 56, 110
2, 106744, Note_off_c, 0, 68, 100
2, 106744, Note_off_c, 0, 56, 100
2, 106752, Note_on_c, 0, 67, 105
2, 106752, Note_on_c, 0, 55, 94
2, 107128, Note_off_c, 0, 67, 100
2, 107128, Note_off_c, 0, 55, 100
2, 107904, Note_on_c, 0, 76, 80
2, 108280, Note_off_c, 0, 76, 100
2, 108288, Note_on_c, 0, 75, 80
2, 108664, Note_off_c, 0, 75, 100
2, 108672, Note_on_c, 0, 73, 80
2, 109048, Note_off_c, 0, 73, 100
2, 109056, Note_on_c, 0, 70, 80
2, 109432, Note_off_c, 0, 70, 100
2, 109440, Note_on_c, 0, 67, 80
2, 109816, Note_off_c, 0, 67, 100
2, 109824, Note_on_c, 0, 64, 80
2, 110392, Note_off_c, 0, 64, 100
2, 110400, Note_on_c, 0, 63, 80
2, 110584, Note_off_c, 0, 63, 100
2, 110592, Note_on_c, 0, 68, 80
2, 110968, Note_off_c, 0, 68, 100
2, 110976, Note_on_c, 0, 76, 80
2, 111352, Note_off_c, 0, 76, 100
2, 111360, Note_on_c, 0, 75, 80
2, 111736, Note_off_c, 0, 75, 100
2, 111744, Note_on_c, 0, 73, 80
2, 112120, Note_off_c, 0, 73, 100
2, 112128, Note_on_c, 0, 70, 80
2, 112504, Note_off_c, 0, 70, 100
2, 112512, Note_on_c, 0, 67, 80
2, 112888, Note_off_c, 0, 67, 100
2, 112896, Note_on_c, 0, 64, 80
2, 113464, Note_off_c, 0, 64, 100
2, 113472, Note_on_c, 0, 63, 80
2, 113656, Note_off_c, 0, 63, 100
2, 113664, Note_on_c, 0, 68, 80
2, 114040, Note_off_c, 0, 68, 100
2, 114048, Note_on_c, 0, 76, 80
2, 114424, Note_off_c, 0, 76, 100
2, 114432, Note_on_c, 0, 75, 80
2, 114808, Note_off_c, 0, 75, 100
2, 114816, Note_on_c, 0, 73, 80
2, 115192, Note_off_c, 0, 73, 100
2, 115200, Note_on_c, 0, 70, 80
2, 115576, Note_off_c, 0, 70, 100
2, 115584, Note_on_c, 0, 67, 80
2, 115960, Note_off_c, 0, 67, 100
2, 116160, Note_on_c, 0, 67, 80
2, 116344, Note_off_c, 0, 67, 100
2, 116352, Note_on_c, 0, 70, 81
2, 116536, Note_off_c, 0, 70, 100
2, 116544, Note_on_c, 0, 68, 82
2, 116728, Note_off_c, 0, 68, 100
2, 116928, Note_on_c, 0, 69, 84
2, 117112, Note_off_c, 0, 69, 100
2, 117120, Note_on_c, 0, 72, 85
2, 117304, Note_off_c, 0, 72, 100
2, 117312, Note_on_c, 0, 70, 86
2, 117496, Note_off_c, 0, 70, 100
2, 117696, Note_on_c, 0, 71, 87
2, 117880, Note_off_c, 0, 71, 100
2, 117888, Note_on_c, 0, 73, 88
2, 118072, Note_off_c, 0, 73, 100
2, 118080, Note_on_c, 0, 72, 89
2, 118264, Note_off_c, 0, 72, 100
2, 118464, Note_on_c, 0, 74, 91
2, 118648, Note_off_c, 0, 74, 100
2, 118656, Note_on_c, 0, 80, 92
2, 118840, Note_off_c, 0, 80, 100
2, 118848, Note_on_c, 0, 74, 93
2, 119032, Note_off_c, 0, 74, 100
2, 119040, Note_on_c, 0, 75, 93
2, 119416, Note_off_c, 0, 75, 100
2, 120000, Note_on_c, 0, 74, 98
2, 120184, Note_off_c, 0, 74, 100
2, 120192, Note_on_c, 0, 80, 99
2, 120376, Note_off_c, 0, 80, 100
2, 120384, Note_on_c, 0, 74, 99
2, 120568, Note_off_c, 0, 74, 100
2, 120576, Note_on_c, 0, 75, 100
2, 120952, Note_off_c, 0, 75, 100
2, 121536, Note_on_c, 0, 79, 100
2, 121720, Note_off_c, 0, 79, 100
2, 121728, Note_on_c, 0, 88, 100
2, 121912, Note_off_c, 0, 88, 100
2, 121920, Note_on_c, 0, 79, 100
2, 122104, Note_off_c, 0, 79, 100
2, 122112, Note_on_c, 0, 80, 100
2, 122488, Note_off_c, 0, 80, 100
2, 123072, Note_on_c, 0, 79, 100
2, 123256, Note_off_c, 0, 79, 100
2, 123264, Note_on_c, 0, 88, 100
2, 123448, Note_off_c, 0, 88, 100
2, 123456, Note_on_c, 0, 79, 100
2, 123640, Note_off_c, 0, 79, 100
2, 123840, Note_on_c, 0, 79, 100
2, 124024, Note_off_c, 0, 79, 100
2, 124032, Note_on_c, 0, 82, 101
2, 124216, Note_off_c, 0, 82, 100
2, 124224, Note_on_c, 0, 80, 101
2, 124408, Note_off_c, 0, 80, 100
2, 124608, Note_on_c, 0, 81, 103
2, 124792, Note_off_c, 0, 81, 100
2, 124800, Note_on_c, 0, 84, 103
2, 124984, Note_off_c, 0, 84, 100
2, 124992, Note_on_c, 0, 82, 104
2, 125176, Note_off_c, 0, 82, 100
2, 125376, Note_on_c, 0, 83, 105
2, 125560, Note_off_c, 0, 83, 100
2, 125568, Note_on_c, 0, 85, 106
2, 125752, Note_off_c, 0, 85, 100
2, 125760, Note_on_c, 0, 84, 106
2, 125944, Note_off_c, 0, 84, 100
2, 126144, Note_on_c, 0, 84, 108
2, 126328, Note_off_c, 0, 84, 100
2, 126336, Note_on_c, 0, 87, 108
2, 126520, Note_off_c, 0, 87, 100
2, 126528, Note_on_c, 0, 85, 109
2, 126712, Note_off_c, 0, 85, 100
2, 126912, Note_on_c, 0, 86, 110
2, 127096, Note_off_c, 0, 86, 100
2, 127104, Note_on_c, 0, 89, 109
2, 127288, Note_off_c, 0, 89, 100
2, 127296, Note_on_c, 0, 87, 109
2, 127480, Note_off_c, 0, 87, 100
2, 127488, Note_on_c, 0, 85, 108
2, 127672, Note_off_c, 0, 85, 100
2, 127680, Note_on_c, 0, 84, 107
2, 127864, Note_off_c, 0, 84, 100
2, 127872, Note_on_c, 0, 82, 107
2, 128056, Note_off_c, 0, 82, 100
2, 128064, Note_on_c, 0, 80, 106
2, 128248, Note_off_c, 0, 80, 100
2, 128256, Note_on_c, 0, 79, 105
2, 128440, Note_off_c, 0, 79, 100
2, 128448, Note_on_c, 0, 77, 105
2, 128632, Note_off_c, 0, 77, 100
2, 128640, Note_on_c, 0, 75, 104
2, 128824, Note_off_c, 0, 75, 100
2, 128832, Note_on_c, 0, 73, 104
2, 129016, Note_off_c, 0, 73, 100
2, 129024, Note_on_c, 0, 72, 103
2, 129208, Note_off_c, 0, 72, 100
2, 129216, Note_on_c, 0, 70, 102
2, 129400, Note_off_c, 0, 70, 100
2, 129408, Note_on_c, 0, 68, 102
2, 129592, Note_off_c, 0, 68, 100
2, 129600, Note_on_c, 0, 67, 101
2, 129784, Note_off_c, 0, 67, 100
2, 129792, Note_on_c, 0, 65, 80
2, 129976, Note_off_c, 0, 65, 100
2, 129984, Note_on_c, 0, 63, 80
2, 130168, Note_off_c, 0, 63, 100
2, 130176, Note_on_c, 0, 62, 80
2, 130360, Note_off_c, 0, 62, 100
2, 130368, Note_on_c, 0, 63, 80
2, 130552, Note_off_c, 0, 63, 100
2, 130560, Note_on_c, 0, 62, 80
2, 130744, Note_off_c, 0, 62, 100
2, 130752, Note_on_c, 0, 63, 80
2, 130936, Note_off_c, 0, 63, 100
2, 130944, Note_on_c, 0, 62, 80
2, 131128, Note_off_c, 0, 62, 100
2, 131136, Note_on_c, 0, 63, 80
2, 131320, Note_off_c, 0, 63, 100
2, 131328, Note_on_c, 0, 62, 80
2, 131512, Note_off_c, 0, 62, 100
2, 131520, Note_on_c, 0, 63, 80
2, 131704, Note_off_c, 0, 63, 100
2, 131712, Note_on_c, 0, 65, 80
2, 131896, Note_off_c, 0, 65, 100
2, 131904, Note_on_c, 0, 63, 80
2, 132088, Note_off_c, 0, 63, 100
2, 132096, Note_on_c, 0, 62, 80
2, 132280, Note_off_c, 0, 62, 100
2, 132288, Note_on_c, 0, 63, 80
2, 132472, Note_off_c, 0, 63, 100
2, 132480, Note_on_c, 0, 65, 80
2, 132664, Note_off_c, 0, 65, 100
2, 132672, Note_on_c, 0, 63, 80
2, 132856, Note_off_c, 0, 63, 100
2, 133056, Note_on_c, 0, 80, 110
2, 133240, Note_off_c, 0, 80, 100
2, 133248, Note_on_c, 0, 89, 109
2, 133432, Note_off_c, 0, 89, 100
2, 133440, Note_on_c, 0, 87, 109
2, 133624, Note_off_c, 0, 87, 100
2, 133632, Note_on_c, 0, 85, 108
2, 133816, Note_off_c, 0, 85, 100
2, 133824, Note_on_c, 0, 84, 107
2, 134008, Note_off_c, 0, 84, 100
2, 134016, Note_on_c, 0, 82, 107
2, 134200, Note_off_c, 0, 82, 100
2, 134208, Note_on_c, 0, 80, 106
2, 134392, Note_off_c, 0, 80, 100
2, 134400, Note_on_c, 0, 79, 105
2, 134584, Note_off_c, 0, 79, 100
2, 134592, Note_on_c, 0, 77, 105
2, 134776, Note_off_c, 0, 77, 100
2, 134784, Note_on_c, 0, 75, 104
2, 134968, Note_off_c, 0, 75, 100
2, 134976, Note_on_c, 0, 73, 104
2, 135160, Note_off_c, 0, 73, 100
2, 135168, Note_on_c, 0, 72, 103
2, 135352, Note_off_c, 0, 72, 100
2, 135360, Note_on_c, 0, 70, 102
2, 135544, Note_off_c, 0, 70, 100
2, 135552, Note_on_c, 0, 68, 102
2, 135736, Note_off_c, 0, 68, 100
2, 135744, Note_on_c, 0, 67, 101
2, 135928, Note_off_c, 0, 67, 100
2, 135936, Note_on_c, 0, 65, 80
2, 136120, Note_off_c, 0, 65, 100
2, 136128, Note_on_c, 0, 63, 80
2, 136312, Note_off_c, 0, 63, 100
2, 136320, Note_on_c, 0, 61, 80
2, 136504, Note_off_c, 0, 61, 100
2, 136512, Note_on_c, 0, 60, 80
2, 136696, Note_off_c, 0, 60, 100
2, 136704, Note_on_c, 0, 58, 80
2, 136888, Note_off_c, 0, 58, 100
2, 136896, Note_on_c, 0, 56, 80
2, 137080, Note_off_c, 0, 56, 100
2, 137088, Note_on_c, 0, 55, 80
2, 137272, Note_off_c, 0, 55, 100
2, 137280, Note_on_c, 0, 53, 80
2, 137464, Note_off_c, 0, 53, 100
2, 137472, Note_on_c, 0, 51, 80
2, 137656, Note_off_c, 0, 51, 100
2, 137664, Note_on_c, 0, 53, 80
2, 137848, Note_off_c, 0, 53, 100
2, 137856, Note_on_c, 0, 55, 80
2, 138040, Note_off_c, 0, 55, 100
2, 138048, Note_on_c, 0, 56, 80
2, 138232, Note_off_c, 0, 56, 100
2, 138240, Note_on_c, 0, 58, 80
2, 138424, Note_off_c, 0, 58, 100
2, 138432, Note_on_c, 0, 60, 80
2, 138616, Note_off_c, 0, 60, 100
2, 138624, Note_on_c, 0, 61, 80
2, 138808, Note_off_c, 0, 61, 100
2, 138816, Note_on_c, 0, 58, 80
2, 139000, Note_off_c, 0, 58, 100
2, 139008, Note_on_c, 0, 56, 100
2, 139384, Note_off_c, 0, 56, 100
2, 139712, Note_on_c, 0, 62, 100
2, 139776, Note_on_c, 0, 71, 100
2, 139800, Note_off_c, 0, 62, 100
2, 140344, Note_off_c, 0, 71, 100
2, 140352, Note_on_c, 0, 70, 100
2, 140536, Note_off_c, 0, 70, 100
2, 140544, Note_on_c, 0, 68, 100
2, 141304, Note_off_c, 0, 68, 100
2, 141312, Note_on_c, 0, 67, 100
2, 141880, Note_off_c, 0, 67, 100
2, 141888, Note_on_c, 0, 75, 100
2, 142072, Note_off_c, 0, 75, 100
2, 142080, Note_on_c, 0, 75, 100
2, 142456, Note_off_c, 0, 75, 100
2, 142464, Note_on_c, 0, 68, 100
2, 142744, Note_off_c, 0, 68, 100
2, 142784, Note_on_c, 0, 62, 100
2, 142848, Note_on_c, 0, 71, 100
2, 142872, Note_off_c, 0, 62, 100
2, 143416, Note_off_c, 0, 71, 100
2, 143424, Note_on_c, 0, 70, 100
2, 143608, Note_off_c, 0, 70, 100
2, 143616, Note_on_c, 0, 68, 100
2, 144376, Note_off_c, 0, 68, 100
2, 144384, Note_on_c, 0, 67, 100
2, 144952, Note_off_c, 0, 67, 100
2, 144960, Note_on_c, 0, 75, 100
2, 145144, Note_off_c, 0, 75, 100
2, 145152, Note_on_c, 0, 75, 100
2, 145528, Note_off_c, 0, 75, 100
2, 145536, Note_on_c, 0, 68, 100
2, 145816, Note_off_c, 0, 68, 100
2, 145856, Note_on_c, 0, 74, 110
2, 145920, Note_on_c, 0, 83, 110
2, 145944, Note_off_c, 0, 74, 100
2, 146488, Note_off_c, 0, 83, 100
2, 146496, Note_on_c, 0, 82, 110
2, 146680, Note_off_c, 0, 82, 100
2, 146688, Note_on_c, 0, 80, 110
2, 147448, Note_off_c, 0, 80, 100
2, 147456, Note_on_c, 0, 79, 110
2, 148024, Note_off_c, 0, 79, 100
2, 148032, Note_on_c, 0, 87, 110
2, 148216, Note_off_c, 0, 87, 100
2, 148224, Note_on_c, 0, 79, 120
2, 148224, Note_on_c, 0, 73, 120
2, 148224, Note_on_c, 0, 87, 120
2, 149752, Note_off_c, 0, 79, 100
2, 149752, Note_off_c, 0, 73, 100
2, 149752, Note_off_c, 0, 87, 100
2, 149760, Note_on_c, 0, 80, 100
2, 149760, Note_on_c, 0, 75, 100
2, 149760, Note_on_c, 0, 72, 100
2, 150136, Note_off_c, 0, 80, 100
2, 150136, Note_off_c, 0, 75, 100
2, 150136, Note_off_c, 0, 72, 100
2, 150912, Note_on_c, 0, 63, 80
2, 151288, Note_off_c, 0, 63, 100
2, 151296, Note_on_c, 0, 68, 80
2, 151672, Note_off_c, 0, 68, 100
2, 151680, Note_on_c, 0, 72, 80
2, 152056, Note_off_c, 0, 72, 100
2, 152064, Note_on_c, 0, 75, 80
2, 152440, Note_off_c, 0, 75, 100
2, 152448, Note_on_c, 0, 80, 80
2, 152824, Note_off_c, 0, 80, 100
2, 152832, Note_on_c, 0, 84, 80
2, 153400, Note_off_c, 0, 84, 100
2, 153408, Note_on_c, 0, 82, 80
2, 153472, Note_on_c, 0, 80, 80
2, 153528, Note_off_c, 0, 82, 100
2, 153536, Note_on_c, 0, 79, 80
2, 153592, Note_off_c, 0, 80, 100
2, 153592, Note_off_c, 0, 79, 100
2, 153600, Note_on_c, 0, 80, 80
2, 153976, Note_off_c, 0, 80, 100
2, 154304, Note_on_c, 0, 73, 80
2, 154368, Note_on_c, 0, 85, 80
2, 154392, Note_off_c, 0, 73, 100
2, 154936, Note_off_c, 0, 85, 100
2, 154944, Note_on_c, 0, 84, 80
2, 155008, Note_on_c, 0, 82, 80
2, 155064, Note_off_c, 0, 84, 100
2, 155072, Note_on_c, 0, 81, 80
2, 155128, Note_off_c, 0, 82, 100
2, 155128, Note_off_c, 0, 81, 100
2, 155136, Note_on_c, 0, 82, 80
2, 155512, Note_off_c, 0, 82, 100
2, 155904, Note_on_c, 0, 70, 80
2, 156280, Note_off_c, 0, 70, 100
2, 156288, Note_on_c, 0, 73, 80
2, 156664, Note_off_c, 0, 73, 100
2, 156672, Note_on_c, 0, 79, 80
2, 157048, Note_off_c, 0, 79, 100
2, 157056, Note_on_c, 0, 82, 80
2, 157376, Note_on_c, 0, 73, 80
2, 157432, Note_off_c, 0, 82, 100
2, 157440, Note_on_c, 0, 85, 80
2, 157464, Note_off_c, 0, 73, 100
2, 158008, Note_off_c, 0, 85, 100
2, 158016, Note_on_c, 0, 84, 80
2, 158080, Note_on_c, 0, 82, 80
2, 158136, Note_off_c, 0, 84, 100
2, 158144, Note_on_c, 0, 81, 80
2, 158200, Note_off_c, 0, 82, 100
2, 158200, Note_off_c, 0, 81, 100
2, 158208, Note_on_c, 0, 82, 80
2, 158584, Note_off_c, 0, 82, 100
2, 158912, Note_on_c, 0, 73, 80
2, 158976, Note_on_c, 0, 85, 80
2, 159000, Note_off_c, 0, 73, 100
2, 159544, Note_off_c, 0, 85, 100
2, 159552, Note_on_c, 0, 84, 88
2, 159616, Note_on_c, 0, 82, 89
2, 159672, Note_off_c, 0, 84, 100
2, 159680, Note_on_c, 0, 81, 90
2, 159736, Note_off_c, 0, 82, 100
2, 159736, Note_off_c, 0, 81, 100
2, 159744, Note_on_c, 0, 82, 91
2, 160120, Note_off_c, 0, 82, 100
2, 160512, Note_on_c, 0, 81, 120
2, 160888, Note_off_c, 0, 81, 100
2, 161664, Note_on_c, 0, 78, 80
2, 162040, Note_off_c, 0, 78, 100
2, 162048, Note_on_c, 0, 77, 80
2, 162424, Note_off_c, 0, 77, 100
2, 162432, Note_on_c, 0, 75, 80
2, 162808, Note_off_c, 0, 75, 100
2, 162816, Note_on_c, 0, 72, 80
2, 163192, Note_off_c, 0, 72, 100
2, 163200, Note_on_c, 0, 69, 80
2, 163576, Note_off_c, 0, 69, 100
2, 163584, Note_on_c, 0, 66, 107
2, 164152, Note_off_c, 0, 66, 100
2, 164160, Note_on_c, 0, 65, 80
2, 164344, Note_off_c, 0, 65, 100
2, 164352, Note_on_c, 0, 70, 80
2, 164728, Note_off_c, 0, 70, 100
2, 164736, Note_on_c, 0, 78, 80
2, 165112, Note_off_c, 0, 78, 100
2, 165120, Note_on_c, 0, 77, 80
2, 165496, Note_off_c, 0, 77, 100
2, 165504, Note_on_c, 0, 75, 80
2, 165880, Note_off_c, 0, 75, 100
2, 165888, Note_on_c, 0, 72, 80
2, 166264, Note_off_c, 0, 72, 100
2, 166272, Note_on_c, 0, 69, 80
2, 166648, Note_off_c, 0, 69, 100
2, 166656, Note_on_c, 0, 66, 107
2, 167224, Note_off_c, 0, 66, 100
2, 167232, Note_on_c, 0, 65, 80
2, 167416, Note_off_c, 0, 65, 100
2, 167424, Note_on_c, 0, 70, 80
2, 167800, Note_off_c, 0, 70, 100
2, 167808, Note_on_c, 0, 78, 80
2, 168184, Note_off_c, 0, 78, 100
2, 168192, Note_on_c, 0, 77, 80
2, 168568, Note_off_c, 0, 77, 100
2, 168576, Note_on_c, 0, 75, 80
2, 168952, Note_off_c, 0, 75, 100
2, 168960, Note_on_c, 0, 72, 80
2, 169336, Note_off_c, 0, 72, 100
2, 169344, Note_on_c, 0, 69, 80
2, 169720, Note_off_c, 0, 69, 100
2, 169920, Note_on_c, 0, 69, 81
2, 170104, Note_off_c, 0, 69, 100
2, 170112, Note_on_c, 0, 72, 83
2, 170296, Note_off_c, 0, 72, 100
2, 170304, Note_on_c, 0, 70, 85
2, 170488, Note_off_c, 0, 70, 100
2, 170688, Note_on_c, 0, 70, 89
2, 170872, Note_off_c, 0, 70, 100
2, 170880, Note_on_c, 0, 73, 91
2, 171064, Note_off_c, 0, 73, 100
2, 171072, Note_on_c, 0, 72, 93
2, 171256, Note_off_c, 0, 72, 100
2, 171456, Note_on_c, 0, 72, 96
2, 171640, Note_off_c, 0, 72, 100
2, 171648, Note_on_c, 0, 75, 98
2, 171832, Note_off_c, 0, 75, 100
2, 171840, Note_on_c, 0, 73, 100
2, 172024, Note_off_c, 0, 73, 100
2, 172224, Note_on_c, 0, 71, 104
2, 172408, Note_off_c, 0, 71, 100
2, 172416, Note_on_c, 0, 73, 106
2, 172600, Note_off_c, 0, 73, 100
2, 172608, Note_on_c, 0, 72, 108
2, 172792, Note_off_c, 0, 72, 100
2, 172800, Note_on_c, 0, 71, 109
2, 173176, Note_off_c, 0, 71, 100
2, 173952, Note_on_c, 0, 80, 80
2, 174328, Note_off_c, 0, 80, 100
2, 174336, Note_on_c, 0, 79, 80
2, 174712, Note_off_c, 0, 79, 100
2, 174720, Note_on_c, 0, 77, 80
2, 175096, Note_off_c, 0, 77, 100
2, 175104, Note_on_c, 0, 74, 80
2, 175480, Note_off_c, 0, 74, 100
2, 175488, Note_on_c, 0, 71, 80
2, 175864, Note_off_c, 0, 71, 100
2, 175872, Note_on_c, 0, 68, 106
2, 176440, Note_off_c, 0, 68, 100
2, 176448, Note_on_c, 0, 67, 80
2, 176632, Note_off_c, 0, 67, 100
2, 176640, Note_on_c, 0, 72, 80
2, 177016, Note_off_c, 0, 72, 100
2, 177024, Note_on_c, 0, 80, 80
2, 177400, Note_off_c, 0, 80, 100
2, 177408, Note_on_c, 0, 79, 80
2, 177784, Note_off_c, 0, 79, 100
2, 177792, Note_on_c, 0, 77, 80
2, 178168, Note_off_c, 0, 77, 100
2, 178176, Note_on_c, 0, 74, 80
2, 178552, Note_off_c, 0, 74, 100
2, 178560, Note_on_c, 0, 71, 80
2, 178936, Note_off_c, 0, 71, 100
2, 178944, Note_on_c, 0, 68, 102
2, 179512, Note_off_c, 0, 68, 100
2, 179520, Note_on_c, 0, 67, 80
2, 179704, Note_off_c, 0, 67, 100
2, 179712, Note_on_c, 0, 72, 80
2, 180088, Note_off_c, 0, 72, 100
2, 180096, Note_on_c, 0, 65, 80
2, 180280, Note_off_c, 0, 65, 100
2, 180288, Note_on_c, 0, 62, 80
2, 180472, Note_off_c, 0, 62, 100
2, 180480, Note_on_c, 0, 65, 80
2, 180664, Note_off_c, 0, 65, 100
2, 180672, Note_on_c, 0, 62, 80
2, 180856, Note_off_c, 0, 62, 100
2, 180864, Note_on_c, 0, 65, 80
2, 181048, Note_off_c, 0, 65, 100
2, 181056, Note_on_c, 0, 62, 80
2, 181240, Note_off_c, 0, 62, 100
2, 181248, Note_on_c, 0, 65, 80
2, 181432, Note_off_c, 0, 65, 100
2, 181440, Note_on_c, 0, 62, 80
2, 181624, Note_off_c, 0, 62, 100
2, 181632, Note_on_c, 0, 65, 80
2, 181816, Note_off_c, 0, 65, 100
2, 181824, Note_on_c, 0, 62, 80
2, 182008, Note_off_c, 0, 62, 100
2, 182016, Note_on_c, 0, 65, 80
2, 182200, Note_off_c, 0, 65, 100
2, 182208, Note_on_c, 0, 62, 80
2, 182392, Note_off_c, 0, 62, 100
2, 182400, Note_on_c, 0, 65, 80
2, 182400, Note_on_c, 0, 71, 80
2, 182584, Note_off_c, 0, 65, 100
2, 182592, Note_on_c, 0, 62, 80
2, 182776, Note_off_c, 0, 71, 100
2, 182776, Note_off_c, 0, 62, 100
2, 182784, Note_on_c, 0, 72, 80
2, 182784, Note_on_c, 0, 63, 80
2, 182968, Note_off_c, 0, 63, 100
2, 182976, Note_on_c, 0, 60, 80
2, 183160, Note_off_c, 0, 72, 100
2, 183160, Note_off_c, 0, 60, 100
2, 183168, Note_on_c, 0, 63, 80
2, 183352, Note_off_c, 0, 63, 100
2, 183360, Note_on_c, 0, 60, 80
2, 183544, Note_off_c, 0, 60, 100
2, 183552, Note_on_c, 0, 63, 80
2, 183736, Note_off_c, 0, 63, 100
2, 183744, Note_on_c, 0, 60, 80
2, 183928, Note_off_c, 0, 60, 100
2, 183936, Note_on_c, 0, 63, 80
2, 184120, Note_off_c, 0, 63, 100
2, 184128, Note_on_c, 0, 60, 80
2, 184312, Note_off_c, 0, 60, 100
2, 184320, Note_on_c, 0, 63, 80
2, 184504, Note_off_c, 0, 63, 100
2, 184512, Note_on_c, 0, 60, 80
2, 184696, Note_off_c, 0, 60, 100
2, 184704, Note_on_c, 0, 63, 80
2, 184888, Note_off_c, 0, 63, 100
2, 184896, Note_on_c, 0, 60, 80
2, 185080, Note_off_c, 0, 60, 100
2, 185088, Note_on_c, 0, 63, 80
2, 185272, Note_off_c, 0, 63, 100
2, 185280, Note_on_c, 0, 60, 80
2, 185464, Note_off_c, 0, 60, 100
2, 185472, Note_on_c, 0, 63, 80
2, 185472, Note_on_c, 0, 69, 80
2, 185656, Note_off_c, 0, 63, 100
2, 185664, Note_on_c, 0, 60, 80
2, 185848, Note_off_c, 0, 69, 100
2, 185848, Note_off_c, 0, 60, 100
2, 185856, Note_on_c, 0, 70, 80
2, 185856, Note_on_c, 0, 61, 80
2, 186040, Note_off_c, 0, 61, 100
2, 186048, Note_on_c, 0, 58, 80
2, 186232, Note_off_c, 0, 70, 100
2, 186232, Note_off_c, 0, 58, 100
2, 186240, Note_on_c, 0, 61, 80
2, 186424, Note_off_c, 0, 61, 100
2, 186432, Note_on_c, 0, 58, 80
2, 186616, Note_off_c, 0, 58, 100
2, 186624, Note_on_c, 0, 61, 80
2, 186808, Note_off_c, 0, 61, 100
2, 186816, Note_on_c, 0, 58, 80
2, 187000, Note_off_c, 0, 58, 100
2, 187008, Note_on_c, 0, 61, 80
2, 187192, Note_off_c, 0, 61, 100
2, 187200, Note_on_c, 0, 58, 80
2, 187384, Note_off_c, 0, 58, 100
2, 187392, Note_on_c, 0, 61, 80
2, 187576, Note_off_c, 0, 61, 100
2, 187584, Note_on_c, 0, 58, 80
2, 187768, Note_off_c, 0, 58, 100
2, 187776, Note_on_c, 0, 61, 80
2, 187960, Note_off_c, 0, 61, 100
2, 187968, Note_on_c, 0, 58, 80
2, 188152, Note_off_c, 0, 58, 100
2, 188160, Note_on_c, 0, 61, 80
2, 188344, Note_off_c, 0, 61, 100
2, 188352, Note_on_c, 0, 58, 80
2, 188536, Note_off_c, 0, 58, 100
2, 188544, Note_on_c, 0, 61, 80
2, 188728, Note_off_c, 0, 61, 100
2, 188736, Note_on_c, 0, 58, 80
2, 188920, Note_off_c, 0, 58, 100
2, 188928, Note_on_c, 0, 61, 80
2, 188928, Note_on_c, 0, 67, 80
2, 189112, Note_off_c, 0, 61, 100
2, 189120, Note_on_c, 0, 58, 80
2, 189304, Note_off_c, 0, 58, 100
2, 189312, Note_on_c, 0, 61, 80
2, 189496, Note_off_c, 0, 61, 100
2, 189504, Note_on_c, 0, 58, 80
2, 189688, Note_off_c, 0, 67, 100
2, 189688, Note_off_c, 0, 58, 100
2, 189696, Note_on_c, 0, 60, 80
2, 189880, Note_off_c, 0, 60, 100
2, 189888, Note_on_c, 0, 56, 80
2, 190072, Note_off_c, 0, 56, 100
2, 190080, Note_on_c, 0, 63, 80
2, 190264, Note_off_c, 0, 63, 100
2, 190272, Note_on_c, 0, 56, 80
2, 190456, Note_off_c, 0, 56, 100
2, 190464, Note_on_c, 0, 63, 80
2, 190464, Note_on_c, 0, 68, 104
2, 190648, Note_off_c, 0, 63, 100
2, 190656, Note_on_c, 0, 56, 80
2, 190840, Note_off_c, 0, 56, 100
2, 190848, Note_on_c, 0, 63, 80
2, 191032, Note_off_c, 0, 63, 100
2, 191040, Note_on_c, 0, 56, 80
2, 191224, Note_off_c, 0, 68, 100
2, 191224, Note_off_c, 0, 56, 100
2, 191232, Note_on_c, 0, 61, 80
2, 191416, Note_off_c, 0, 61, 100
2, 191424, Note_on_c, 0, 56, 80
2, 191608, Note_off_c, 0, 56, 100
2, 191616, Note_on_c, 0, 61, 80
2, 191800, Note_off_c, 0, 61, 100
2, 191808, Note_on_c, 0, 56, 80
2, 191992, Note_off_c, 0, 56, 100
2, 192000, Note_on_c, 0, 61, 80
2, 192000, Note_on_c, 0, 65, 80
2, 192184, Note_off_c, 0, 61, 100
2, 192192, Note_on_c, 0, 56, 80
2, 192376, Note_off_c, 0, 56, 100
2, 192384, Note_on_c, 0, 61, 80
2, 192568, Note_off_c, 0, 61, 100
2, 192576, Note_on_c, 0, 56, 80
2, 192760, Note_off_c, 0, 65, 100
2, 192760, Note_off_c, 0, 56, 100
2, 192768, Note_on_c, 0, 58, 80
2, 192952, Note_off_c, 0, 58, 100
2, 192960, Note_on_c, 0, 55, 80
2, 193144, Note_off_c, 0, 55, 100
2, 193152, Note_on_c, 0, 61, 80
2, 193336, Note_off_c, 0, 61, 100
2, 193344, Note_on_c, 0, 55, 80
2, 193528, Note_off_c, 0, 55, 100
2, 193536, Note_on_c, 0, 61, 80
2, 193536, Note_on_c, 0, 67, 105
2, 193720, Note_off_c, 0, 61, 100
2, 193728, Note_on_c, 0, 55, 80
2, 193912, Note_off_c, 0, 55, 100
2, 193920, Note_on_c, 0, 61, 80
2, 194104, Note_off_c, 0, 61, 100
2, 194112, Note_on_c, 0, 55, 80
2, 194296, Note_off_c, 0, 67, 100
2, 194296, Note_off_c, 0, 55, 100
2, 194304, Note_on_c, 0, 60, 80
2, 194488, Note_off_c, 0, 60, 100
2, 194496, Note_on_c, 0, 55, 80
2, 194680, Note_off_c, 0, 55, 100
2, 194688, Note_on_c, 0, 60, 80
2, 194872, Note_off_c, 0, 60, 100
2, 194880, Note_on_c, 0, 55, 80
2, 195064, Note_off_c, 0, 55, 100
2, 195072, Note_on_c, 0, 60, 80
2, 195072, Note_on_c, 0, 64, 80
2, 195256, Note_off_c, 0, 60, 100
2, 195264, Note_on_c, 0, 55, 80
2, 195448, Note_off_c, 0, 55, 100
2, 195456, Note_on_c, 0, 60, 80
2, 195640, Note_off_c, 0, 60, 100
2, 195648, Note_on_c, 0, 55, 80
2, 195832, Note_off_c, 0, 64, 100
2, 195832, Note_off_c, 0, 55, 100
2, 195840, Note_on_c, 0, 56, 80
2, 196024, Note_off_c, 0, 56, 100
2, 196032, Note_on_c, 0, 53, 80
2, 196216, Note_off_c, 0, 53, 100
2, 196224, Note_on_c, 0, 60, 80
2, 196408, Note_off_c, 0, 60, 100
2, 196416, Note_on_c, 0, 53, 80
2, 196600, Note_off_c, 0, 53, 100
2, 196608, Note_on_c, 0, 60, 80
2, 196608, Note_on_c, 0, 65, 112
2, 196792, Note_off_c, 0, 60, 100
2, 196800, Note_on_c, 0, 53, 80
2, 196984, Note_off_c, 0, 53, 100
2, 196992, Note_on_c, 0, 60, 80
2, 197176, Note_off_c, 0, 60, 100
2, 197184, Note_on_c, 0, 53, 80
2, 197368, Note_off_c, 0, 65, 100
2, 197368, Note_off_c, 0, 53, 100
2, 197376, Note_on_c, 0, 61, 80
2, 197560, Note_off_c, 0, 61, 100
2, 197568, Note_on_c, 0, 53, 80
2, 197752, Note_off_c, 0, 53, 100
2, 197760, Note_on_c, 0, 61, 80
2, 197944, Note_off_c, 0, 61, 100
2, 197952, Note_on_c, 0, 53, 80
2, 198136, Note_off_c, 0, 53, 100
2, 198144, Note_on_c, 0, 61, 80
2, 198144, Note_on_c, 0, 65, 103
2, 198328, Note_off_c, 0, 61, 100
2, 198336, Note_on_c, 0, 53, 80
2, 198520, Note_off_c, 0, 53, 100
2, 198528, Note_on_c, 0, 61, 80
2, 198712, Note_off_c, 0, 61, 100
2, 198720, Note_on_c, 0, 53, 80
2, 198904, Note_off_c, 0, 65, 100
2, 198904, Note_off_c, 0, 53, 100
2, 198912, Note_on_c, 0, 62, 90
2, 199096, Note_off_c, 0, 62, 100
2, 199104, Note_on_c, 0, 53, 92
2, 199288, Note_off_c, 0, 53, 100
2, 199296, Note_on_c, 0, 65, 95
2, 199296, Note_on_c, 0, 62, 95
2, 199296, Note_on_c, 0, 56, 95
2, 199480, Note_off_c, 0, 65, 100
2, 199480, Note_off_c, 0, 62, 100
2, 199480, Note_off_c, 0, 56, 100
2, 199488, Note_on_c, 0, 53, 98
2, 199672, Note_off_c, 0, 53, 100
2, 199680, Note_on_c, 0, 65, 101
2, 199680, Note_on_c, 0, 62, 101
2, 199680, Note_on_c, 0, 56, 101
2, 199864, Note_off_c, 0, 65, 100
2, 199864, Note_off_c, 0, 62, 100
2, 199864, Note_off_c, 0, 56, 100
2, 199872, Note_on_c, 0, 53, 104
2, 200056, Note_off_c, 0, 53, 100
2, 200064, Note_on_c, 0, 65, 107
2, 200064, Note_on_c, 0, 62, 107
2, 200064, Note_on_c, 0, 56, 107
2, 200248, Note_off_c, 0, 65, 100
2, 200248, Note_off_c, 0, 62, 100
2, 200248, Note_off_c, 0, 56, 100
2, 200256, Note_on_c, 0, 53, 109
2, 200440, Note_off_c, 0, 53, 100
2, 200448, Note_on_c, 0, 64, 112
2, 200448, Note_on_c, 0, 60, 112
2, 200448, Note_on_c, 0, 55, 112
2, 200824, Note_off_c, 0, 64, 100
2, 200824, Note_off_c, 0, 60, 100
2, 200824, Note_off_c, 0, 55, 100
2, 201600, Note_on_c, 0, 72, 100
2, 201976, Note_off_c, 0, 72, 100
2, 201984, Note_on_c, 0, 68, 100
2, 202360, Note_off_c, 0, 68, 100
2, 203136, Note_on_c, 0, 77, 100
2, 203512, Note_off_c, 0, 77, 100
2, 203520, Note_on_c, 0, 76, 100
2, 203896, Note_off_c, 0, 76, 100
2, 204672, Note_on_c, 0, 84, 100
2, 205048, Note_off_c, 0, 84, 100
2, 205056, Note_on_c, 0, 77, 100
2, 205432, Note_off_c, 0, 77, 100
2, 205824, Note_on_c, 0, 77, 115
2, 205824, Note_on_c, 0, 89, 115
2, 206584, Note_off_c, 0, 77, 100
2, 206584, Note_off_c, 0, 89, 100
2, 206592, Note_on_c, 0, 76, 100
2, 206592, Note_on_c, 0, 88, 100
2, 206968, Note_off_c, 0, 76, 100
2, 206968, Note_off_c, 0, 88, 100
2, 207744, Note_on_c, 0, 72, 100
2, 207840, Note_on_c, 0, 73, 100
2, 207928, Note_off_c, 0, 72, 100
2, 207936, Note_on_c, 0, 71, 100
2, 208024, Note_off_c, 0, 73, 100
2, 208032, Note_on_c, 0, 72, 100
2, 208120, Note_off_c, 0, 71, 100
2, 208120, Note_off_c, 0, 72, 100
2, 208128, Note_on_c, 0, 68, 100
2, 208504, Note_off_c, 0, 68, 100
2, 208512, Note_on_c, 0, 68, 100
2, 208888, Note_off_c, 0, 68, 100
2, 209280, Note_on_c, 0, 77, 100
2, 209376, Note_on_c, 0, 79, 100
2, 209464, Note_off_c, 0, 77, 100
2, 209472, Note_on_c, 0, 76, 100
2, 209560, Note_off_c, 0, 79, 100
2, 209568, Note_on_c, 0, 77, 100
2, 209656, Note_off_c, 0, 76, 100
2, 209656, Note_off_c, 0, 77, 100
2, 209664, Note_on_c, 0, 76, 100
2, 210040, Note_off_c, 0, 76, 100
2, 210048, Note_on_c, 0, 76, 100
2, 210424, Note_off_c, 0, 76, 100
2, 210816, Note_on_c, 0, 84, 100
2, 210912, Note_on_c, 0, 85, 100
2, 211000, Note_off_c, 0, 84, 100
2, 211008, Note_on_c, 0, 83, 100
2, 211096, Note_off_c, 0, 85, 100
2, 211104, Note_on_c, 0, 84, 100
2, 211192, Note_off_c, 0, 83, 100
2, 211192, Note_off_c, 0, 84, 100
2, 211200, Note_on_c, 0, 77, 100
2, 211576, Note_off_c, 0, 77, 100
2, 211584, Note_on_c, 0, 77, 100
2, 211960, Note_off_c, 0, 77, 100
2, 212352, Note_on_c, 0, 77, 100
2, 212352, Note_on_c, 0, 89, 100
2, 212728, Note_off_c, 0, 77, 100
2, 212728, Note_off_c, 0, 89, 100
2, 212736, Note_on_c, 0, 76, 100
2, 212736, Note_on_c, 0, 88, 100
2, 213112, Note_off_c, 0, 76, 100
2, 213112, Note_off_c, 0, 88, 100
2, 213120, Note_on_c, 0, 76, 100
2, 213120, Note_on_c, 0, 88, 100
2, 213496, Note_off_c, 0, 76, 100
2, 213496, Note_off_c, 0, 88, 100
2, 213888, Note_on_c, 0, 73, 100
2, 213888, Note_on_c, 0, 85, 100
2, 214264, Note_off_c, 0, 73, 100
2, 214264, Note_off_c, 0, 85, 100
2, 214272, Note_on_c, 0, 72, 100
2, 214272, Note_on_c, 0, 84, 100
2, 214648, Note_off_c, 0, 72, 100
2, 214648, Note_off_c, 0, 84, 100
2, 214656, Note_on_c, 0, 84, 100
2, 214656, Note_on_c, 0, 72, 100
2, 215032, Note_off_c, 0, 84, 100
2, 215032, Note_off_c, 0, 72, 100
2, 215424, Note_on_c, 0, 77, 100
2, 215424, Note_on_c, 0, 89, 100
2, 215800, Note_off_c, 0, 77, 100
2, 215800, Note_off_c, 0, 89, 100
2, 215808, Note_on_c, 0, 76, 97
2, 215808, Note_on_c, 0, 88, 97
2, 216184, Note_off_c, 0, 76, 100
2, 216184, Note_off_c, 0, 88, 100
2, 216192, Note_on_c, 0, 76, 93
2, 216192, Note_on_c, 0, 88, 93
2, 216568, Note_off_c, 0, 76, 100
2, 216568, Note_off_c, 0, 88, 100
2, 216960, Note_on_c, 0, 73, 86
2, 216960, Note_on_c, 0, 85, 86
2, 217336, Note_off_c, 0, 73, 100
2, 217336, Note_off_c, 0, 85, 100
2, 217344, Note_on_c, 0, 72, 83
2, 217344, Note_on_c, 0, 84, 83
2, 217720, Note_off_c, 0, 72, 100
2, 217720, Note_off_c, 0, 84, 100
2, 217728, Note_on_c, 0, 84, 79
2, 217728, Note_on_c, 0, 72, 79
2, 218104, Note_off_c, 0, 84, 100
2, 218104, Note_off_c, 0, 72, 100
2, 218496, Note_on_c, 0, 77, 72
2, 218496, Note_on_c, 0, 89, 72
2, 218872, Note_off_c, 0, 77, 100
2, 218872, Note_off_c, 0, 89, 100
2, 218880, Note_on_c, 0, 76, 70
2, 218880, Note_on_c, 0, 88, 70
2, 219256, Note_off_c, 0, 76, 100
2, 219256, Note_off_c, 0, 88, 100
2, 222528, Note_on_c, 0, 68, 70
2, 222592, Note_on_c, 0, 66, 70
2, 222648, Note_off_c, 0, 68, 100
2, 222656, Note_on_c, 0, 65, 70
2, 222712, Note_off_c, 0, 66, 100
2, 222720, Note_on_c, 0, 66, 70
2, 222776, Note_off_c, 0, 65, 100
2, 223096, Note_off_c, 0, 66, 100
2, 224064, Note_on_c, 0, 87, 70
2, 224128, Note_on_c, 0, 85, 70
2, 224184, Note_off_c, 0, 87, 100
2, 224192, Note_on_c, 0, 84, 70
2, 224248, Note_off_c, 0, 85, 100
2, 224256, Note_on_c, 0, 85, 70
2, 224312, Note_off_c, 0, 84, 100
2, 224632, Note_off_c, 0, 85, 100
2, 225600, Note_on_c, 0, 65, 72
2, 225664, Note_on_c, 0, 64, 73
2, 225720, Note_off_c, 0, 65, 100
2, 225728, Note_on_c, 0, 62, 73
2, 225784, Note_off_c, 0, 64, 100
2, 225792, Note_on_c, 0, 64, 73
2, 225848, Note_off_c, 0, 62, 100
2, 226168, Note_off_c, 0, 64, 100
2, 227136, Note_on_c, 0, 85, 80
2, 227200, Note_on_c, 0, 84, 80
2, 227256, Note_off_c, 0, 85, 100
2, 227264, Note_on_c, 0, 83, 81
2, 227320, Note_off_c, 0, 84, 100
2, 227328, Note_on_c, 0, 84, 81
2, 227384, Note_off_c, 0, 83, 100
2, 227704, Note_off_c, 0, 84, 100
2, 228672, Note_on_c, 0, 63, 88
2, 228736, Note_on_c, 0, 62, 88
2, 228792, Note_off_c, 0, 63, 100
2, 228800, Note_on_c, 0, 60, 89
2, 228856, Note_off_c, 0, 62, 100
2, 228864, Note_on_c, 0, 62, 89
2, 228920, Note_off_c, 0, 60, 100
2, 229240, Note_off_c, 0, 62, 100
2, 230208, Note_on_c, 0, 84, 96
2, 230272, Note_on_c, 0, 82, 96
2, 230328, Note_off_c, 0, 84, 100
2, 230336, Note_on_c, 0, 81, 96
2, 230392, Note_off_c, 0, 82, 100
2, 230400, Note_on_c, 0, 82, 97
2, 230456, Note_off_c, 0, 81, 100
2, 230776, Note_off_c, 0, 82, 100
2, 231168, Note_on_c, 0, 65, 115
2, 231544, Note_off_c, 0, 65, 100
2, 231552, Note_on_c, 0, 68, 115
2, 231928, Note_off_c, 0, 68, 100
2, 231936, Note_on_c, 0, 72, 115
2, 232312, Note_off_c, 0, 72, 100
2, 232320, Note_on_c, 0, 77, 115
2, 232696, Note_off_c, 0, 77, 100
2, 232704, Note_on_c, 0, 80, 115
2, 233272, Note_off_c, 0, 80, 100
2, 233280, Note_on_c, 0, 79, 115
2, 233344, Note_on_c, 0, 77, 115
2, 233400, Note_off_c, 0, 79, 100
2, 233408, Note_on_c, 0, 76, 115
2, 233464, Note_off_c, 0, 77, 100
2, 233472, Note_on_c, 0, 77, 115
2, 233528, Note_off_c, 0, 76, 100
2, 233848, Note_off_c, 0, 77, 100
2, 234240, Note_on_c, 0, 67, 115
2, 234616, Note_off_c, 0, 67, 100
2, 234624, Note_on_c, 0, 72, 115
2, 235000, Note_off_c, 0, 72, 100
2, 235008, Note_on_c, 0, 76, 115
2, 235384, Note_off_c, 0, 76, 100
2, 235392, Note_on_c, 0, 79, 115
2, 235768, Note_off_c, 0, 79, 100
2, 235776, Note_on_c, 0, 82, 115
2, 236344, Note_off_c, 0, 82, 100
2, 236352, Note_on_c, 0, 80, 115
2, 236416, Note_on_c, 0, 79, 115
2, 236472, Note_off_c, 0, 80, 100
2, 236480, Note_on_c, 0, 77, 115
2, 236536, Note_off_c, 0, 79, 100
2, 236544, Note_on_c, 0, 79, 115
2, 236600, Note_off_c, 0, 77, 100
2, 236920, Note_off_c, 0, 79, 100
2, 237312, Note_on_c, 0, 72, 115
2, 237376, Note_on_c, 0, 80, 115
2, 237432, Note_off_c, 0, 72, 100
2, 237880, Note_off_c, 0, 80, 100
2, 237888, Note_on_c, 0, 79, 115
2, 237952, Note_on_c, 0, 77, 115
2, 238008, Note_off_c, 0, 79, 100
2, 238016, Note_on_c, 0, 76, 115
2, 238072, Note_off_c, 0, 77, 100
2, 238080, Note_on_c, 0, 77, 115
2, 238136, Note_off_c, 0, 76, 100
2, 238456, Note_off_c, 0, 77, 100
2, 238848, Note_on_c, 0, 72, 115
2, 238912, Note_on_c, 0, 82, 115
2, 239096, Note_off_c, 0, 72, 100
2, 239416, Note_off_c, 0, 82, 100
2, 239424, Note_on_c, 0, 80, 115
2, 239488, Note_on_c, 0, 79, 115
2, 239544, Note_off_c, 0, 80, 100
2, 239552, Note_on_c, 0, 77, 115
2, 239608, Note_off_c, 0, 79, 100
2, 239616, Note_on_c, 0, 79, 115
2, 239672, Note_off_c, 0, 77, 100
2, 239992, Note_off_c, 0, 79, 100
2, 240384, Note_on_c, 0, 72, 120
2, 240448, Note_on_c, 0, 77, 120
2, 240512, Note_on_c, 0, 80, 120
2, 240576, Note_on_c, 0, 84, 119
2, 241144, Note_off_c, 0, 72, 100
2, 241144, Note_off_c, 0, 77, 100
2, 241144, Note_off_c, 0, 80, 100
2, 241144, Note_off_c, 0, 84, 100
2, 241152, Note_on_c, 0, 82, 115
2, 241336, Note_off_c, 0, 82, 100
2, 241344, Note_on_c, 0, 80, 114
2, 241528, Note_off_c, 0, 80, 100
2, 241536, Note_on_c, 0, 79, 113
2, 241720, Note_off_c, 0, 79, 100
2, 241728, Note_on_c, 0, 77, 112
2, 241912, Note_off_c, 0, 77, 100
2, 241920, Note_on_c, 0, 76, 110
2, 241984, Note_on_c, 0, 77, 110
2, 242040, Note_off_c, 0, 76, 100
2, 242048, Note_on_c, 0, 79, 110
2, 242104, Note_off_c, 0, 77, 100
2, 242112, Note_on_c, 0, 77, 109
2, 242168, Note_off_c, 0, 79, 100
2, 242680, Note_off_c, 0, 77, 100
2, 243072, Note_on_c, 0, 76, 80
2, 243832, Note_off_c, 0, 76, 100
2, 248064, Note_on_c, 0, 82, 80
2, 248632, Note_off_c, 0, 82, 100
2, 248640, Note_on_c, 0, 80, 80
2, 248704, Note_on_c, 0, 78, 80
2, 248760, Note_off_c, 0, 80, 100
2, 248768, Note_on_c, 0, 77, 80
2, 248824, Note_off_c, 0, 78, 100
2, 248832, Note_on_c, 0, 78, 80
2, 248888, Note_off_c, 0, 77, 100
2, 249208, Note_off_c, 0, 78, 100
2, 249216, Note_on_c, 0, 78, 80
2, 249592, Note_off_c, 0, 78, 100
2, 249600, Note_on_c, 0, 78, 80
2, 250176, Note_on_c, 0, 73, 80
2, 250240, Note_on_c, 0, 72, 80
2, 250296, Note_off_c, 0, 73, 100
2, 250304, Note_on_c, 0, 71, 80
2, 250360, Note_off_c, 0, 72, 100
2, 250368, Note_on_c, 0, 72, 80
2, 250424, Note_off_c, 0, 71, 100
2, 250744, Note_off_c, 0, 72, 100
2, 250752, Note_on_c, 0, 72, 80
2, 251128, Note_off_c, 0, 72, 100
2, 251136, Note_on_c, 0, 72, 80
2, 251704, Note_off_c, 0, 78, 100
2, 251712, Note_on_c, 0, 78, 80
2, 251776, Note_on_c, 0, 77, 80
2, 251832, Note_off_c, 0, 78, 100
2, 251840, Note_on_c, 0, 76, 80
2, 251896, Note_off_c, 0, 77, 100
2, 251904, Note_on_c, 0, 77, 80
2, 251960, Note_off_c, 0, 76, 100
2, 252280, Note_off_c, 0, 77, 100
2, 252288, Note_on_c, 0, 77, 80
2, 252664, Note_off_c, 0, 77, 100
2, 252672, Note_on_c, 0, 77, 80
2, 253240, Note_off_c, 0, 72, 100
2, 253248, Note_on_c, 0, 72, 80
2, 253312, Note_on_c, 0, 70, 80
2, 253368, Note_off_c, 0, 72, 100
2, 253376, Note_on_c, 0, 69, 80
2, 253432, Note_off_c, 0, 70, 100
2, 253440, Note_on_c, 0, 70, 80
2, 253496, Note_off_c, 0, 69, 100
2, 253816, Note_off_c, 0, 70, 100
2, 253824, Note_on_c, 0, 70, 80
2, 254200, Note_off_c, 0, 77, 100
2, 254200, Note_off_c, 0, 70, 100
2, 254208, Note_on_c, 0, 71, 80
2, 254784, Note_on_c, 0, 79, 80
2, 254848, Note_on_c, 0, 77, 80
2, 254904, Note_off_c, 0, 79, 100
2, 254912, Note_on_c, 0, 76, 80
2, 254968, Note_off_c, 0, 77, 100
2, 254976, Note_on_c, 0, 77, 80
2, 255032, Note_off_c, 0, 76, 100
2, 255352, Note_off_c, 0, 77, 100
2, 255360, Note_on_c, 0, 79, 80
2, 255736, Note_off_c, 0, 79, 100
2, 255744, Note_on_c, 0, 80, 80
2, 256120, Note_off_c, 0, 80, 100
2, 256128, Note_on_c, 0, 76, 80
2, 256504, Note_off_c, 0, 76, 100
2, 256512, Note_on_c, 0, 77, 80
2, 256888, Note_off_c, 0, 77, 100
2, 256896, Note_on_c, 0, 71, 80
2, 257272, Note_off_c, 0, 71, 100
2, 257272, Note_off_c, 0, 71, 100
2, 257280, Note_on_c, 0, 72, 80
2, 257656, Note_off_c, 0, 72, 100
2, 257664, Note_on_c, 0, 76, 83
2, 258040, Note_off_c, 0, 76, 100
2, 258048, Note_on_c, 0, 77, 86
2, 258424, Note_off_c, 0, 77, 100
2, 258432, Note_on_c, 0, 79, 89
2, 258808, Note_off_c, 0, 79, 100
2, 258816, Note_on_c, 0, 80, 90
2, 259192, Note_off_c, 0, 80, 100
2, 259200, Note_on_c, 0, 76, 87
2, 259576, Note_off_c, 0, 76, 100
2, 259584, Note_on_c, 0, 77, 84
2, 259960, Note_off_c, 0, 77, 100
2, 259968, Note_on_c, 0, 71, 81
2, 260344, Note_off_c, 0, 71, 100
2, 260352, Note_on_c, 0, 72, 100
2, 260352, Note_on_c, 0, 64, 100
2, 260728, Note_off_c, 0, 72, 100
2, 260728, Note_off_c, 0, 64, 100
2, 261504, Note_on_c, 0, 73, 80
2, 261880, Note_off_c, 0, 73, 100
2, 261888, Note_on_c, 0, 72, 80
2, 262264, Note_off_c, 0, 72, 100
2, 262272, Note_on_c, 0, 70, 80
2, 262648, Note_off_c, 0, 70, 100
2, 262656, Note_on_c, 0, 67, 80
2, 263032, Note_off_c, 0, 67, 100
2, 263040, Note_on_c, 0, 64, 80
2, 263416, Note_off_c, 0, 64, 100
2, 263424, Note_on_c, 0, 61, 104
2, 263992, Note_off_c, 0, 61, 100
2, 264000, Note_on_c, 0, 60, 80
2, 264184, Note_off_c, 0, 60, 100
2, 264192, Note_on_c, 0, 65, 80
2, 264568, Note_off_c, 0, 65, 100
2, 264576, Note_on_c, 0, 85, 80
2, 264952, Note_off_c, 0, 85, 100
2, 264960, Note_on_c, 0, 84, 80
2, 265336, Note_off_c, 0, 84, 100
2, 265344, Note_on_c, 0, 82, 80
2, 265720, Note_off_c, 0, 82, 100
2, 265728, Note_on_c, 0, 79, 80
2, 266104, Note_off_c, 0, 79, 100
2, 266112, Note_on_c, 0, 76, 80
2, 266488, Note_off_c, 0, 76, 100
2, 266496, Note_on_c, 0, 73, 112
2, 267064, Note_off_c, 0, 73, 100
2, 267072, Note_on_c, 0, 72, 80
2, 267256, Note_off_c, 0, 72, 100
2, 267264, Note_on_c, 0, 77, 80
2, 267640, Note_off_c, 0, 77, 100
2, 267648, Note_on_c, 0, 85, 80
2, 268024, Note_off_c, 0, 85, 100
2, 268032, Note_on_c, 0, 84, 80
2, 268408, Note_off_c, 0, 84, 100
2, 268416, Note_on_c, 0, 82, 80
2, 268792, Note_off_c, 0, 82, 100
2, 268800, Note_on_c, 0, 79, 80
2, 269176, Note_off_c, 0, 79, 100
2, 269184, Note_on_c, 0, 76, 80
2, 269560, Note_off_c, 0, 76, 100
2, 269760, Note_on_c, 0, 76, 80
2, 269944, Note_off_c, 0, 76, 100
2, 269952, Note_on_c, 0, 79, 80
2, 270136, Note_off_c, 0, 79, 100
2, 270144, Note_on_c, 0, 77, 80
2, 270328, Note_off_c, 0, 77, 100
2, 270528, Note_on_c, 0, 77, 80
2, 270712, Note_off_c, 0, 77, 100
2, 270720, Note_on_c, 0, 80, 80
2, 270904, Note_off_c, 0, 80, 100
2, 270912, Note_on_c, 0, 79, 80
2, 271096, Note_off_c, 0, 79, 100
2, 271296, Note_on_c, 0, 79, 80
2, 271480, Note_off_c, 0, 79, 100
2, 271488, Note_on_c, 0, 82, 80
2, 271672, Note_off_c, 0, 82, 100
2, 271680, Note_on_c, 0, 80, 80
2, 271864, Note_off_c, 0, 80, 100
2, 272064, Note_on_c, 0, 83, 80
2, 272248, Note_off_c, 0, 83, 100
2, 272256, Note_on_c, 0, 89, 80
2, 272440, Note_off_c, 0, 89, 100
2, 272448, Note_on_c, 0, 83, 80
2, 272632, Note_off_c, 0, 83, 100
2, 272640, Note_on_c, 0, 84, 80
2, 273016, Note_off_c, 0, 84, 100
2, 273600, Note_on_c, 0, 83, 80
2, 273784, Note_off_c, 0, 83, 100
2, 273792, Note_on_c, 0, 89, 80
2, 273976, Note_off_c, 0, 89, 100
2, 273984, Note_on_c, 0, 83, 80
2, 274168, Note_off_c, 0, 83, 100
2, 274176, Note_on_c, 0, 84, 80
2, 274552, Note_off_c, 0, 84, 100
2, 275136, Note_on_c, 0, 76, 80
2, 275320, Note_off_c, 0, 76, 100
2, 275328, Note_on_c, 0, 85, 80
2, 275512, Note_off_c, 0, 85, 100
2, 275520, Note_on_c, 0, 76, 80
2, 275704, Note_off_c, 0, 76, 100
2, 275712, Note_on_c, 0, 77, 80
2, 276088, Note_off_c, 0, 77, 100
2, 276672, Note_on_c, 0, 76, 80
2, 276856, Note_off_c, 0, 76, 100
2, 276864, Note_on_c, 0, 85, 80
2, 277048, Note_off_c, 0, 85, 100
2, 277056, Note_on_c, 0, 76, 80
2, 277240, Note_off_c, 0, 76, 100
2, 277440, Note_on_c, 0, 76, 81
2, 277624, Note_off_c, 0, 76, 100
2, 277632, Note_on_c, 0, 79, 83
2, 277816, Note_off_c, 0, 79, 100
2, 277824, Note_on_c, 0, 77, 85
2, 278008, Note_off_c, 0, 77, 100
2, 278208, Note_on_c, 0, 77, 89
2, 278392, Note_off_c, 0, 77, 100
2, 278400, Note_on_c, 0, 80, 91
2, 278584, Note_off_c, 0, 80, 100
2, 278592, Note_on_c, 0, 79, 93
2, 278776, Note_off_c, 0, 79, 100
2, 278976, Note_on_c, 0, 79, 97
2, 279160, Note_off_c, 0, 79, 100
2, 279168, Note_on_c, 0, 82, 99
2, 279352, Note_off_c, 0, 82, 100
2, 279360, Note_on_c, 0, 80, 101
2, 279544, Note_off_c, 0, 80, 100
2, 279744, Note_on_c, 0, 81, 105
2, 279928, Note_off_c, 0, 81, 100
2, 279936, Note_on_c, 0, 84, 107
2, 280120, Note_off_c, 0, 84, 100
2, 280128, Note_on_c, 0, 82, 109
2, 280312, Note_off_c, 0, 82, 100
2, 280512, Note_on_c, 0, 84, 120
2, 280696, Note_off_c, 0, 84, 100
2, 280704, Note_on_c, 0, 89, 120
2, 280888, Note_off_c, 0, 89, 100
2, 280896, Note_on_c, 0, 87, 120
2, 281080, Note_off_c, 0, 87, 100
2, 281088, Note_on_c, 0, 85, 120
2, 281272, Note_off_c, 0, 85, 100
2, 281280, Note_on_c, 0, 84, 120
2, 281464, Note_off_c, 0, 84, 100
2, 281472, Note_on_c, 0, 82, 120
2, 281656, Note_off_c, 0, 82, 100
2, 281664, Note_on_c, 0, 80, 120
2, 281848, Note_off_c, 0, 80, 100
2, 281856, Note_on_c, 0, 79, 120
2, 282040, Note_off_c, 0, 79, 100
2, 282048, Note_on_c, 0, 77, 120
2, 282232, Note_off_c, 0, 77, 100
2, 282240, Note_on_c, 0, 75, 120
2, 282424, Note_off_c, 0, 75, 100
2, 282432, Note_on_c, 0, 73, 120
2, 282616, Note_off_c, 0, 73, 100
2, 282624, Note_on_c, 0, 72, 120
2, 282808, Note_off_c, 0, 72, 100
2, 282816, Note_on_c, 0, 70, 120
2, 283000, Note_off_c, 0, 70, 100
2, 283008, Note_on_c, 0, 68, 120
2, 283192, Note_off_c, 0, 68, 100
2, 283200, Note_on_c, 0, 67, 120
2, 283384, Note_off_c, 0, 67, 100
2, 283392, Note_on_c, 0, 65, 110
2, 283576, Note_off_c, 0, 65, 100
2, 283584, Note_on_c, 0, 64, 110
2, 283768, Note_off_c, 0, 64, 100
2, 283776, Note_on_c, 0, 61, 110
2, 283960, Note_off_c, 0, 61, 100
2, 283968, Note_on_c, 0, 60, 110
2, 284152, Note_off_c, 0, 60, 100
2, 284160, Note_on_c, 0, 59, 110
2, 284344, Note_off_c, 0, 59, 100
2, 284352, Note_on_c, 0, 60, 110
2, 284536, Note_off_c, 0, 60, 100
2, 284544, Note_on_c, 0, 59, 110
2, 284728, Note_off_c, 0, 59, 100
2, 284736, Note_on_c, 0, 60, 110
2, 284920, Note_off_c, 0, 60, 100
2, 284928, Note_on_c, 0, 59, 80
2, 285112, Note_off_c, 0, 59, 100
2, 285120, Note_on_c, 0, 60, 80
2, 285304, Note_off_c, 0, 60, 100
2, 285312, Note_on_c, 0, 61, 80
2, 285496, Note_off_c, 0, 61, 100
2, 285504, Note_on_c, 0, 60, 80
2, 285688, Note_off_c, 0, 60, 100
2, 285696, Note_on_c, 0, 59, 80
2, 285880, Note_off_c, 0, 59, 100
2, 285888, Note_on_c, 0, 60, 80
2, 286072, Note_off_c, 0, 60, 100
2, 286080, Note_on_c, 0, 61, 80
2, 286264, Note_off_c, 0, 61, 100
2, 286272, Note_on_c, 0, 60, 80
2, 286456, Note_off_c, 0, 60, 100
2, 286656, Note_on_c, 0, 84, 120
2, 286840, Note_off_c, 0, 84, 100
2, 286848, Note_on_c, 0, 89, 120
2, 287032, Note_off_c, 0, 89, 100
2, 287040, Note_on_c, 0, 87, 120
2, 287224, Note_off_c, 0, 87, 100
2, 287232, Note_on_c, 0, 85, 120
2, 287416, Note_off_c, 0, 85, 100
2, 287424, Note_on_c, 0, 84, 120
2, 287608, Note_off_c, 0, 84, 100
2, 287616, Note_on_c, 0, 82, 120
2, 287800, Note_off_c, 0, 82, 100
2, 287808, Note_on_c, 0, 80, 120
2, 287992, Note_off_c, 0, 80, 100
2, 288000, Note_on_c, 0, 79, 120
2, 288184, Note_off_c, 0, 79, 100
2, 288192, Note_on_c, 0, 77, 120
2, 288376, Note_off_c, 0, 77, 100
2, 288384, Note_on_c, 0, 75, 120
2, 288568, Note_off_c, 0, 75, 100
2, 288576, Note_on_c, 0, 73, 120
2, 288760, Note_off_c, 0, 73, 100
2, 288768, Note_on_c, 0, 72, 120
2, 288952, Note_off_c, 0, 72, 100
2, 288960, Note_on_c, 0, 70, 120
2, 289144, Note_off_c, 0, 70, 100
2, 289152, Note_on_c, 0, 68, 120
2, 289336, Note_off_c, 0, 68, 100
2, 289344, Note_on_c, 0, 67, 120
2, 289528, Note_off_c, 0, 67, 100
2, 289536, Note_on_c, 0, 65, 100
2, 289720, Note_off_c, 0, 65, 100
2, 289728, Note_on_c, 0, 64, 100
2, 289912, Note_off_c, 0, 64, 100
2, 289920, Note_on_c, 0, 61, 100
2, 290104, Note_off_c, 0, 61, 100
2, 290112, Note_on_c, 0, 60, 100
2, 290296, Note_off_c, 0, 60, 100
2, 290304, Note_on_c, 0, 59, 100
2, 290488, Note_off_c, 0, 59, 100
2, 290496, Note_on_c, 0, 60, 100
2, 290680, Note_off_c, 0, 60, 100
2, 290688, Note_on_c, 0, 59, 100
2, 290872, Note_off_c, 0, 59, 100
2, 290880, Note_on_c, 0, 60, 100
2, 291064, Note_off_c, 0, 60, 100
2, 291072, Note_on_c, 0, 59, 80
2, 291256, Note_off_c, 0, 59, 100
2, 291264, Note_on_c, 0, 60, 80
2, 291448, Note_off_c, 0, 60, 100
2, 291456, Note_on_c, 0, 61, 80
2, 291640, Note_off_c, 0, 61, 100
2, 291648, Note_on_c, 0, 60, 80
2, 291832, Note_off_c, 0, 60, 100
2, 291840, Note_on_c, 0, 60, 80
2, 292024, Note_off_c, 0, 60, 100
2, 292032, Note_on_c, 0, 58, 80
2, 292216, Note_off_c, 0, 58, 100
2, 292224, Note_on_c, 0, 56, 80
2, 292408, Note_off_c, 0, 56, 100
2, 292416, Note_on_c, 0, 55, 80
2, 292600, Note_off_c, 0, 55, 100
2, 292608, Note_on_c, 0, 53, 80
2, 292984, Note_off_c, 0, 53, 100
2, 293376, Note_on_c, 0, 68, 80
2, 293944, Note_off_c, 0, 68, 100
2, 293952, Note_on_c, 0, 67, 82
2, 294136, Note_off_c, 0, 67, 100
2, 294144, Note_on_c, 0, 65, 82
2, 294904, Note_off_c, 0, 65, 100
2, 294912, Note_on_c, 0, 64, 84
2, 295480, Note_off_c, 0, 64, 100
2, 295488, Note_on_c, 0, 72, 85
2, 295672, Note_off_c, 0, 72, 100
2, 295680, Note_on_c, 0, 72, 111
2, 296056, Note_off_c, 0, 72, 100
2, 296064, Note_on_c, 0, 65, 87
2, 296440, Note_off_c, 0, 65, 100
2, 296448, Note_on_c, 0, 68, 87
2, 297016, Note_off_c, 0, 68, 100
2, 297024, Note_on_c, 0, 67, 89
2, 297208, Note_off_c, 0, 67, 100
2, 297216, Note_on_c, 0, 65, 89
2, 297976, Note_off_c, 0, 65, 100
2, 297984, Note_on_c, 0, 64, 91
2, 298552, Note_off_c, 0, 64, 100
2, 298560, Note_on_c, 0, 72, 92
2, 298744, Note_off_c, 0, 72, 100
2, 298752, Note_on_c, 0, 72, 112
2, 299128, Note_off_c, 0, 72, 100
2, 299136, Note_on_c, 0, 65, 94
2, 299424, Note_on_c, 0, 71, 94
2, 299512, Note_off_c, 0, 65, 100
2, 299520, Note_on_c, 0, 80, 95
2, 299800, Note_off_c, 0, 71, 100
2, 300088, Note_off_c, 0, 80, 100
2, 300096, Note_on_c, 0, 79, 96
2, 300280, Note_off_c, 0, 79, 100
2, 300288, Note_on_c, 0, 77, 96
2, 301048, Note_off_c, 0, 77, 100
2, 301056, Note_on_c, 0, 76, 98
2, 301624, Note_off_c, 0, 76, 100
2, 301632, Note_on_c, 0, 84, 99
2, 301816, Note_off_c, 0, 84, 100
2, 301824, Note_on_c, 0, 84, 120
2, 301824, Note_on_c, 0, 75, 120
2, 301824, Note_on_c, 0, 72, 120
2, 303352, Note_off_c, 0, 84, 100
2, 303352, Note_off_c, 0, 75, 100
2, 303352, Note_off_c, 0, 72, 100
2, 303360, Note_on_c, 0, 77, 110
2, 303360, Note_on_c, 0, 73, 110
2, 303360, Note_on_c, 0, 70, 110
2, 303736, Note_off_c, 0, 77, 100
2, 303736, Note_off_c, 0, 73, 100
2, 303736, Note_off_c, 0, 70, 100
2, 304704, Note_on_c, 0, 82, 110
2, 304704, Note_on_c, 0, 73, 110
2, 304704, Note_on_c, 0, 70, 110
2, 304888, Note_off_c, 0, 82, 100
2, 304888, Note_off_c, 0, 73, 100
2, 304888, Note_off_c, 0, 70, 100
2, 304896, Note_on_c, 0, 82, 120
2, 304896, Note_on_c, 0, 70, 120
2, 304896, Note_on_c, 0, 73, 120
2, 306424, Note_off_c, 0, 82, 100
2, 306424, Note_off_c, 0, 70, 100
2, 306424, Note_off_c, 0, 73, 100
2, 306432, Note_on_c, 0, 75, 110
2, 306432, Note_on_c, 0, 72, 110
2, 306432, Note_on_c, 0, 68, 110
2, 306808, Note_off_c, 0, 75, 100
2, 306808, Note_off_c, 0, 72, 100
2, 306808, Note_off_c, 0, 68, 100
2, 307584, Note_on_c, 0, 80, 120
2, 307584, Note_on_c, 0, 72, 120
2, 307584, Note_on_c, 0, 68, 120
2, 307960, Note_off_c, 0, 80, 100
2, 307960, Note_off_c, 0, 72, 100
2, 307960, Note_off_c, 0, 68, 100
2, 307968, Note_on_c, 0, 73, 110
2, 307968, Note_on_c, 0, 70, 110
2, 307968, Note_on_c, 0, 67, 110
2, 308344, Note_off_c, 0, 73, 100
2, 308344, Note_off_c, 0, 70, 100
2, 308344, Note_off_c, 0, 67, 100
2, 308352, Note_on_c, 0, 79, 120
2, 308352, Note_on_c, 0, 70, 120
2, 308352, Note_on_c, 0, 67, 120
2, 308728, Note_off_c, 0, 79, 100
2, 308728, Note_off_c, 0, 70, 100
2, 308728, Note_off_c, 0, 67, 100
2, 308736, Note_on_c, 0, 72, 110
2, 308736, Note_on_c, 0, 68, 110
2, 308736, Note_on_c, 0, 65, 110
2, 309112, Note_off_c, 0, 72, 100
2, 309112, Note_off_c, 0, 68, 100
2, 309112, Note_off_c, 0, 65, 100
2, 309120, Note_on_c, 0, 68, 120
2, 309120, Note_on_c, 0, 65, 120
2, 309120, Note_on_c, 0, 77, 120
2, 309496, Note_off_c, 0, 68, 100
2, 309496, Note_off_c, 0, 65, 100
2, 309496, Note_off_c, 0, 77, 100
2, 309504, Note_on_c, 0, 77, 120
2, 309504, Note_on_c, 0, 73, 120
2, 309504, Note_on_c, 0, 67, 120
2, 309504, Note_on_c, 0, 65, 120
2, 309880, Note_off_c, 0, 77, 100
2, 309880, Note_off_c, 0, 73, 100
2, 309880, Note_off_c, 0, 67, 100
2, 309880, Note_off_c, 0, 65, 100
2, 310272, Note_on_c, 0, 76, 120
2, 310272, Note_on_c, 0, 72, 120
2, 310272, Note_on_c, 0, 70, 120
2, 310272, Note_on_c, 0, 67, 120
2, 310272, Note_on_c, 0, 64, 120
2, 310648, Note_off_c, 0, 76, 100
2, 310648, Note_off_c, 0, 72, 100
2, 310648, Note_off_c, 0, 70, 100
2, 310648, Note_off_c, 0, 67, 100
2, 310648, Note_off_c, 0, 64, 100
2, 311040, Note_on_c, 0, 77, 120
2, 311040, Note_on_c, 0, 72, 120
2, 311040, Note_on_c, 0, 68, 120
2, 311040, Note_on_c, 0, 65, 120
2, 311800, Note_off_c, 0, 77, 100
2, 311800, Note_off_c, 0, 72, 100
2, 311800, Note_off_c, 0, 68, 100
2, 311800, Note_off_c, 0, 65, 100
2, 312576, Control_c, 0, 7, 0
2, 312960, Note_on_c, 0, 65, 1
2, 313336, Note_off_c, 0, 65, 100
2, 313336, End_track
3, 0, Start_track
3, 0, Title_t, "Left"
3, 0, Control_c, 1, 0, 0
3, 0, Program_c, 1, 0
3, 0, Control_c, 1, 7, 100
3, 0, Control_c, 1, 91, 127
3, 0, Key_signature, -4, "minor"
3, 2688, Note_on_c, 1, 60, 83
3, 2688, Note_on_c, 1, 56, 83
3, 2688, Note_on_c, 1, 53, 83
3, 3064, Note_off_c, 1, 60, 100
3, 3064, Note_off_c, 1, 56, 100
3, 3064, Note_off_c, 1, 53, 100
3, 3072, Note_on_c, 1, 60, 84
3, 3072, Note_on_c, 1, 56, 84
3, 3072, Note_on_c, 1, 53, 84
3, 3448, Note_off_c, 1, 60, 100
3, 3448, Note_off_c, 1, 56, 100
3, 3448, Note_off_c, 1, 53, 100
3, 3456, Note_on_c, 1, 60, 84
3, 3456, Note_on_c, 1, 56, 84
3, 3456, Note_on_c, 1, 53, 84
3, 3832, Note_off_c, 1, 60, 100
3, 3832, Note_off_c, 1, 56, 100
3, 3832, Note_off_c, 1, 53, 100
3, 3840, Note_on_c, 1, 60, 85
3, 3840, Note_on_c, 1, 58, 85
3, 3840, Note_on_c, 1, 55, 85
3, 3840, Note_on_c, 1, 52, 85
3, 4216, Note_off_c, 1, 60, 100
3, 4216, Note_off_c, 1, 58, 100
3, 4216, Note_off_c, 1, 55, 100
3, 4216, Note_off_c, 1, 52, 100
3, 5760, Note_on_c, 1, 60, 88
3, 5760, Note_on_c, 1, 58, 88
3, 5760, Note_on_c, 1, 55, 88
3, 5760, Note_on_c, 1, 52, 88
3, 6136, Note_off_c, 1, 60, 100
3, 6136, Note_off_c, 1, 58, 100
3, 6136, Note_off_c, 1, 55, 100
3, 6136, Note_off_c, 1, 52, 100
3, 6144, Note_on_c, 1, 60, 89
3, 6144, Note_on_c, 1, 58, 89
3, 6144, Note_on_c, 1, 55, 89
3, 6144, Note_on_c, 1, 52, 89
3, 6520, Note_off_c, 1, 60, 100
3, 6520, Note_off_c, 1, 58, 100
3, 6520, Note_off_c, 1, 55, 100
3, 6520, Note_off_c, 1, 52, 100
3, 6528, Note_on_c, 1, 60, 89
3, 6528, Note_on_c, 1, 58, 89
3, 6528, Note_on_c, 1, 55, 89
3, 6528, Note_on_c, 1, 52, 89
3, 6904, Note_off_c, 1, 60, 100
3, 6904, Note_off_c, 1, 58, 100
3, 6904, Note_off_c, 1, 55, 100
3, 6904, Note_off_c, 1, 52, 100
3, 7296, Note_on_c, 1, 60, 100
3, 7296, Note_on_c, 1, 56, 100
3, 7296, Note_on_c, 1, 53, 100
3, 7672, Note_off_c, 1, 60, 100
3, 7672, Note_off_c, 1, 56, 100
3, 7672, Note_off_c, 1, 53, 100
3, 7680, Note_on_c, 1, 60, 100
3, 7680, Note_on_c, 1, 56, 100
3, 7680, Note_on_c, 1, 53, 100
3, 8056, Note_off_c, 1, 60, 100
3, 8056, Note_off_c, 1, 56, 100
3, 8056, Note_off_c, 1, 53, 100
3, 8064, Note_on_c, 1, 60, 100
3, 8064, Note_on_c, 1, 56, 100
3, 8064, Note_on_c, 1, 53, 100
3, 8440, Note_off_c, 1, 60, 100
3, 8440, Note_off_c, 1, 56, 100
3, 8440, Note_off_c, 1, 53, 100
3, 8832, Note_on_c, 1, 64, 100
3, 8832, Note_on_c, 1, 58, 100
3, 8832, Note_on_c, 1, 55, 100
3, 9208, Note_off_c, 1, 64, 100
3, 9208, Note_off_c, 1, 58, 100
3, 9208, Note_off_c, 1, 55, 100
3, 9216, Note_on_c, 1, 64, 100
3, 9216, Note_on_c, 1, 58, 100
3, 9216, Note_on_c, 1, 55, 100
3, 9592, Note_off_c, 1, 64, 100
3, 9592, Note_off_c, 1, 58, 100
3, 9592, Note_off_c, 1, 55, 100
3, 9600, Note_on_c, 1, 64, 100
3, 9600, Note_on_c, 1, 58, 100
3, 9600, Note_on_c, 1, 55, 100
3, 9976, Note_off_c, 1, 64, 100
3, 9976, Note_off_c, 1, 58, 100
3, 9976, Note_off_c, 1, 55, 100
3, 10368, Note_on_c, 1, 65, 120
3, 10368, Note_on_c, 1, 60, 120
3, 10368, Note_on_c, 1, 56, 120
3, 10744, Note_off_c, 1, 65, 100
3, 10744, Note_off_c, 1, 60, 100
3, 10744, Note_off_c, 1, 56, 100
3, 11136, Note_on_c, 1, 58, 100
3, 11136, Note_on_c, 1, 61, 100
3, 11136, Note_on_c, 1, 67, 100
3, 11512, Note_off_c, 1, 58, 100
3, 11512, Note_off_c, 1, 61, 100
3, 11512, Note_off_c, 1, 67, 100
3, 12672, Note_on_c, 1, 60, 80
3, 12672, Note_on_c, 1, 67, 80
3, 13048, Note_off_c, 1, 60, 100
3, 13048, Note_off_c, 1, 67, 100
3, 14208, Note_on_c, 1, 43, 80
3, 14584, Note_off_c, 1, 43, 100
3, 14592, Note_on_c, 1, 48, 80
3, 14968, Note_off_c, 1, 48, 100
3, 14976, Note_on_c, 1, 51, 80
3, 15352, Note_off_c, 1, 51, 100
3, 15360, Note_on_c, 1, 55, 80
3, 15736, Note_off_c, 1, 55, 100
3, 15744, Note_on_c, 1, 60, 80
3, 16120, Note_off_c, 1, 60, 100
3, 16128, Note_on_c, 1, 63, 80
3, 16696, Note_off_c, 1, 63, 100
3, 16704, Note_on_c, 1, 62, 80
3, 16768, Note_on_c, 1, 60, 80
3, 16824, Note_off_c, 1, 62, 100
3, 16832, Note_on_c, 1, 59, 80
3, 16888, Note_off_c, 1, 60, 100
3, 16888, Note_off_c, 1, 59, 100
3, 16896, Note_on_c, 1, 60, 80
3, 17272, Note_off_c, 1, 60, 100
3, 17280, Note_on_c, 1, 60, 80
3, 17656, Note_off_c, 1, 60, 100
3, 17664, Note_on_c, 1, 60, 80
3, 17664, Note_on_c, 1, 65, 80
3, 19192, Note_off_c, 1, 60, 100
3, 19192, Note_off_c, 1, 65, 100
3, 19200, Note_on_c, 1, 58, 80
3, 19200, Note_on_c, 1, 65, 80
3, 20728, Note_off_c, 1, 58, 100
3, 20728, Note_off_c, 1, 65, 100
3, 20736, Note_on_c, 1, 58, 80
3, 20736, Note_on_c, 1, 63, 80
3, 22264, Note_off_c, 1, 58, 100
3, 22264, Note_off_c, 1, 63, 100
3, 22272, Note_on_c, 1, 63, 80
3, 22272, Note_on_c, 1, 56, 80
3, 23800, Note_off_c, 1, 63, 100
3, 23800, Note_off_c, 1, 56, 100
3, 23808, Note_on_c, 1, 61, 80
3, 24568, Note_off_c, 1, 61, 100
3, 24576, Note_on_c, 1, 62, 80
3, 25336, Note_off_c, 1, 62, 100
3, 25344, Note_on_c, 1, 63, 90
3, 25720, Note_off_c, 1, 63, 100
3, 26496, Note_on_c, 1, 60, 93
3, 26496, Note_on_c, 1, 63, 93
3, 26872, Note_off_c, 1, 60, 100
3, 26872, Note_off_c, 1, 63, 100
3, 26880, Note_on_c, 1, 61, 94
3, 26880, Note_on_c, 1, 65, 94
3, 27640, Note_off_c, 1, 61, 100
3, 27640, Note_off_c, 1, 65, 100
3, 27648, Note_on_c, 1, 62, 97
3, 27648, Note_on_c, 1, 65, 97
3, 28408, Note_off_c, 1, 62, 100
3, 28408, Note_off_c, 1, 65, 100
3, 28416, Note_on_c, 1, 63, 99
3, 28792, Note_off_c, 1, 63, 100
3, 29568, Note_on_c, 1, 51, 110
3, 29568, Note_on_c, 1, 48, 110
3, 29944, Note_off_c, 1, 51, 100
3, 29944, Note_off_c, 1, 48, 100
3, 29952, Note_on_c, 1, 53, 110
3, 29952, Note_on_c, 1, 49, 110
3, 30712, Note_off_c, 1, 53, 100
3, 30712, Note_off_c, 1, 49, 100
3, 30720, Note_on_c, 1, 53, 110
3, 30720, Note_on_c, 1, 50, 110
3, 31480, Note_off_c, 1, 53, 100
3, 31480, Note_off_c, 1, 50, 100
3, 31488, Note_on_c, 1, 51, 110
3, 31672, Note_off_c, 1, 51, 100
3, 31680, Note_on_c, 1, 63, 80
3, 31864, Note_off_c, 1, 63, 100
3, 31872, Note_on_c, 1, 51, 80
3, 32056, Note_off_c, 1, 51, 100
3, 32064, Note_on_c, 1, 63, 80
3, 32248, Note_off_c, 1, 63, 100
3, 32256, Note_on_c, 1, 51, 80
3, 32440, Note_off_c, 1, 51, 100
3, 32448, Note_on_c, 1, 63, 80
3, 32632, Note_off_c, 1, 63, 100
3, 32640, Note_on_c, 1, 51, 80
3, 32824, Note_off_c, 1, 51, 100
3, 32832, Note_on_c, 1, 63, 80
3, 33016, Note_off_c, 1, 63, 100
3, 33024, Note_on_c, 1, 51, 80
3, 33208, Note_off_c, 1, 51, 100
3, 33216, Note_on_c, 1, 63, 80
3, 33400, Note_off_c, 1, 63, 100
3, 33408, Note_on_c, 1, 51, 80
3, 33592, Note_off_c, 1, 51, 100
3, 33600, Note_on_c, 1, 63, 80
3, 33784, Note_off_c, 1, 63, 100
3, 33792, Note_on_c, 1, 51, 80
3, 33976, Note_off_c, 1, 51, 100
3, 33984, Note_on_c, 1, 63, 80
3, 34168, Note_off_c, 1, 63, 100
3, 34176, Note_on_c, 1, 51, 80
3, 34360, Note_off_c, 1, 51, 100
3, 34368, Note_on_c, 1, 63, 80
3, 34552, Note_off_c, 1, 63, 100
3, 34560, Note_on_c, 1, 51, 110
3, 34560, Note_on_c, 1, 61, 110
3, 34936, Note_off_c, 1, 51, 100
3, 34944, Note_on_c, 1, 51, 100
3, 35320, Note_off_c, 1, 61, 100
3, 35320, Note_off_c, 1, 51, 100
3, 35328, Note_on_c, 1, 60, 100
3, 35328, Note_on_c, 1, 51, 100
3, 35512, Note_off_c, 1, 51, 100
3, 35520, Note_on_c, 1, 63, 100
3, 35704, Note_off_c, 1, 60, 100
3, 35704, Note_off_c, 1, 63, 100
3, 35712, Note_on_c, 1, 51, 80
3, 35896, Note_off_c, 1, 51, 100
3, 35904, Note_on_c, 1, 63, 80
3, 36088, Note_off_c, 1, 63, 100
3, 36096, Note_on_c, 1, 51, 80
3, 36280, Note_off_c, 1, 51, 100
3, 36288, Note_on_c, 1, 63, 80
3, 36472, Note_off_c, 1, 63, 100
3, 36480, Note_on_c, 1, 51, 80
3, 36664, Note_off_c, 1, 51, 100
3, 36672, Note_on_c, 1, 63, 80
3, 36856, Note_off_c, 1, 63, 100
3, 36864, Note_on_c, 1, 51, 80
3, 37048, Note_off_c, 1, 51, 100
3, 37056, Note_on_c, 1, 63, 80
3, 37240, Note_off_c, 1, 63, 100
3, 37248, Note_on_c, 1, 51, 80
3, 37432, Note_off_c, 1, 51, 100
3, 37440, Note_on_c, 1, 63, 80
3, 37624, Note_off_c, 1, 63, 100
3, 37632, Note_on_c, 1, 51, 110
3, 37632, Note_on_c, 1, 61, 110
3, 38008, Note_off_c, 1, 51, 100
3, 38016, Note_on_c, 1, 51, 100
3, 38392, Note_off_c, 1, 61, 100
3, 38392, Note_off_c, 1, 51, 100
3, 38400, Note_on_c, 1, 60, 100
3, 38400, Note_on_c, 1, 51, 100
3, 38584, Note_off_c, 1, 51, 100
3, 38592, Note_on_c, 1, 63, 100
3, 38776, Note_off_c, 1, 60, 100
3, 38776, Note_off_c, 1, 63, 100
3, 38784, Note_on_c, 1, 51, 100
3, 38968, Note_off_c, 1, 51, 100
3, 38976, Note_on_c, 1, 63, 100
3, 39160, Note_off_c, 1, 63, 100
3, 39168, Note_on_c, 1, 51, 100
3, 39352, Note_off_c, 1, 51, 100
3, 39360, Note_on_c, 1, 63, 100
3, 39544, Note_off_c, 1, 63, 100
3, 39552, Note_on_c, 1, 51, 100
3, 39736, Note_off_c, 1, 51, 100
3, 39744, Note_on_c, 1, 63, 100
3, 39928, Note_off_c, 1, 63, 100
3, 39936, Note_on_c, 1, 61, 100
3, 40120, Note_off_c, 1, 61, 100
3, 40128, Note_on_c, 1, 63, 100
3, 40312, Note_off_c, 1, 63, 100
3, 40320, Note_on_c, 1, 61, 100
3, 40504, Note_off_c, 1, 61, 100
3, 40512, Note_on_c, 1, 63, 100
3, 40696, Note_off_c, 1, 63, 100
3, 40704, Note_on_c, 1, 60, 100
3, 40888, Note_off_c, 1, 60, 100
3, 40896, Note_on_c, 1, 63, 100
3, 41080, Note_off_c, 1, 63, 100
3, 41088, Note_on_c, 1, 60, 100
3, 41272, Note_off_c, 1, 60, 100
3, 41280, Note_on_c, 1, 63, 100
3, 41464, Note_off_c, 1, 63, 100
3, 41472, Note_on_c, 1, 55, 100
3, 41656, Note_off_c, 1, 55, 100
3, 41664, Note_on_c, 1, 63, 100
3, 41848, Note_off_c, 1, 63, 100
3, 41856, Note_on_c, 1, 55, 100
3, 42040, Note_off_c, 1, 55, 100
3, 42048, Note_on_c, 1, 63, 100
3, 42232, Note_off_c, 1, 63, 100
3, 42240, Note_on_c, 1, 56, 100
3, 42424, Note_off_c, 1, 56, 100
3, 42432, Note_on_c, 1, 63, 100
3, 42616, Note_off_c, 1, 63, 100
3, 42624, Note_on_c, 1, 56, 100
3, 42808, Note_off_c, 1, 56, 100
3, 42816, Note_on_c, 1, 63, 100
3, 43000, Note_off_c, 1, 63, 100
3, 43008, Note_on_c, 1, 53, 100
3, 43192, Note_off_c, 1, 53, 100
3, 43200, Note_on_c, 1, 62, 100
3, 43384, Note_off_c, 1, 62, 100
3, 43392, Note_on_c, 1, 56, 100
3, 43576, Note_off_c, 1, 56, 100
3, 43584, Note_on_c, 1, 62, 100
3, 43768, Note_off_c, 1, 62, 100
3, 43776, Note_on_c, 1, 51, 100
3, 43960, Note_off_c, 1, 51, 100
3, 43968, Note_on_c, 1, 63, 100
3, 44152, Note_off_c, 1, 63, 100
3, 44160, Note_on_c, 1, 55, 100
3, 44344, Note_off_c, 1, 55, 100
3, 44352, Note_on_c, 1, 63, 100
3, 44536, Note_off_c, 1, 63, 100
3, 44544, Note_on_c, 1, 53, 100
3, 44728, Note_off_c, 1, 53, 100
3, 44736, Note_on_c, 1, 62, 100
3, 44920, Note_off_c, 1, 62, 100
3, 44928, Note_on_c, 1, 56, 100
3, 45112, Note_off_c, 1, 56, 100
3, 45120, Note_on_c, 1, 62, 100
3, 45304, Note_off_c, 1, 62, 100
3, 45312, Note_on_c, 1, 51, 100
3, 45496, Note_off_c, 1, 51, 100
3, 45504, Note_on_c, 1, 63, 100
3, 45688, Note_off_c, 1, 63, 100
3, 45696, Note_on_c, 1, 55, 100
3, 45880, Note_off_c, 1, 55, 100
3, 45888, Note_on_c, 1, 63, 100
3, 46072, Note_off_c, 1, 63, 100
3, 46080, Note_on_c, 1, 49, 100
3, 46264, Note_off_c, 1, 49, 100
3, 46272, Note_on_c, 1, 58, 100
3, 46456, Note_off_c, 1, 58, 100
3, 46464, Note_on_c, 1, 52, 100
3, 46648, Note_off_c, 1, 52, 100
3, 46656, Note_on_c, 1, 58, 100
3, 46840, Note_off_c, 1, 58, 100
3, 46848, Note_on_c, 1, 51, 100
3, 46976, Note_on_c, 1, 56, 100
3, 47032, Note_off_c, 1, 51, 100
3, 47160, Note_off_c, 1, 56, 100
3, 47232, Note_on_c, 1, 55, 100
3, 47416, Note_off_c, 1, 55, 100
3, 47424, Note_on_c, 1, 56, 100
3, 47608, Note_off_c, 1, 56, 100
3, 47616, Note_on_c, 1, 49, 100
3, 47800, Note_off_c, 1, 49, 100
3, 47808, Note_on_c, 1, 58, 100
3, 47992, Note_off_c, 1, 58, 100
3, 48000, Note_on_c, 1, 52, 100
3, 48184, Note_off_c, 1, 52, 100
3, 48192, Note_on_c, 1, 58, 100
3, 48376, Note_off_c, 1, 58, 100
3, 48384, Note_on_c, 1, 48, 100
3, 48568, Note_off_c, 1, 48, 100
3, 48576, Note_on_c, 1, 56, 100
3, 48760, Note_off_c, 1, 56, 100
3, 48768, Note_on_c, 1, 51, 101
3, 48952, Note_off_c, 1, 51, 100
3, 48960, Note_on_c, 1, 56, 101
3, 49144, Note_off_c, 1, 56, 100
3, 49152, Note_on_c, 1, 44, 102
3, 49336, Note_off_c, 1, 44, 100
3, 49344, Note_on_c, 1, 55, 103
3, 49528, Note_off_c, 1, 55, 100
3, 49536, Note_on_c, 1, 51, 103
3, 49720, Note_off_c, 1, 51, 100
3, 49728, Note_on_c, 1, 55, 104
3, 49912, Note_off_c, 1, 55, 100
3, 49920, Note_on_c, 1, 44, 105
3, 50104, Note_off_c, 1, 44, 100
3, 50112, Note_on_c, 1, 56, 105
3, 50296, Note_off_c, 1, 56, 100
3, 50304, Note_on_c, 1, 51, 106
3, 50488, Note_off_c, 1, 51, 100
3, 50496, Note_on_c, 1, 56, 106
3, 50680, Note_off_c, 1, 56, 100
3, 50688, Note_on_c, 1, 46, 107
3, 50872, Note_off_c, 1, 46, 100
3, 50880, Note_on_c, 1, 58, 108
3, 51064, Note_off_c, 1, 58, 100
3, 51072, Note_on_c, 1, 51, 108
3, 51256, Note_off_c, 1, 51, 100
3, 51264, Note_on_c, 1, 58, 109
3, 51448, Note_off_c, 1, 58, 100
3, 51456, Note_on_c, 1, 48, 110
3, 51832, Note_off_c, 1, 48, 100
3, 51840, Note_on_c, 1, 51, 109
3, 52600, Note_off_c, 1, 51, 100
3, 52608, Note_on_c, 1, 56, 107
3, 52984, Note_off_c, 1, 56, 100
3, 52992, Note_on_c, 1, 49, 105
3, 53368, Note_off_c, 1, 49, 100
3, 53376, Note_on_c, 1, 53, 114
3, 54136, Note_off_c, 1, 53, 100
3, 54144, Note_on_c, 1, 58, 102
3, 54520, Note_off_c, 1, 58, 100
3, 54528, Note_on_c, 1, 51, 80
3, 54904, Note_off_c, 1, 51, 100
3, 54912, Note_on_c, 1, 56, 80
3, 55672, Note_off_c, 1, 56, 100
3, 55680, Note_on_c, 1, 60, 80
3, 56056, Note_off_c, 1, 60, 100
3, 56064, Note_on_c, 1, 61, 80
3, 56440, Note_off_c, 1, 61, 100
3, 56448, Note_on_c, 1, 58, 80
3, 56824, Note_off_c, 1, 58, 100
3, 56832, Note_on_c, 1, 55, 80
3, 57208, Note_off_c, 1, 55, 100
3, 57216, Note_on_c, 1, 49, 80
3, 57592, Note_off_c, 1, 49, 100
3, 57600, Note_on_c, 1, 36, 110
3, 57976, Note_off_c, 1, 36, 100
3, 57984, Note_on_c, 1, 39, 109
3, 58744, Note_off_c, 1, 39, 100
3, 58752, Note_on_c, 1, 44, 107
3, 59128, Note_off_c, 1, 44, 100
3, 59136, Note_on_c, 1, 37, 105
3, 59512, Note_off_c, 1, 37, 100
3, 59520, Note_on_c, 1, 41, 114
3, 60280, Note_off_c, 1, 41, 100
3, 60288, Note_on_c, 1, 46, 102
3, 60664, Note_off_c, 1, 46, 100
3, 60672, Note_on_c, 1, 39, 100
3, 61048, Note_off_c, 1, 39, 100
3, 61056, Note_on_c, 1, 44, 120
3, 61816, Note_off_c, 1, 44, 100
3, 61824, Note_on_c, 1, 48, 100
3, 62200, Note_off_c, 1, 48, 100
3, 62208, Note_on_c, 1, 49, 100
3, 62584, Note_off_c, 1, 49, 100
3, 62592, Note_on_c, 1, 46, 100
3, 62968, Note_off_c, 1, 46, 100
3, 62976, Note_on_c, 1, 43, 100
3, 63352, Note_off_c, 1, 43, 100
3, 63360, Note_on_c, 1, 39, 100
3, 63736, Note_off_c, 1, 39, 100
3, 63744, Note_on_c, 1, 44, 100
3, 64120, Note_off_c, 1, 44, 100
3, 64128, Note_on_c, 1, 56, 100
3, 64504, Note_off_c, 1, 56, 100
3, 64896, Note_on_c, 1, 56, 100
3, 64896, Note_on_c, 1, 53, 100
3, 64896, Note_on_c, 1, 50, 100
3, 64896, Note_on_c, 1, 59, 100
3, 65272, Note_off_c, 1, 56, 100
3, 65272, Note_off_c, 1, 53, 100
3, 65272, Note_off_c, 1, 50, 100
3, 65272, Note_off_c, 1, 59, 100
3, 65664, Note_on_c, 1, 60, 100
3, 65664, Note_on_c, 1, 56, 100
3, 65664, Note_on_c, 1, 51, 100
3, 66040, Note_off_c, 1, 60, 100
3, 66040, Note_off_c, 1, 56, 100
3, 66040, Note_off_c, 1, 51, 100
3, 66432, Note_on_c, 1, 61, 100
3, 66432, Note_on_c, 1, 58, 100
3, 66432, Note_on_c, 1, 51, 100
3, 66808, Note_off_c, 1, 61, 100
3, 66808, Note_off_c, 1, 58, 100
3, 66808, Note_off_c, 1, 51, 100
3, 67200, Note_on_c, 1, 60, 100
3, 67200, Note_on_c, 1, 56, 100
3, 67576, Note_off_c, 1, 60, 100
3, 67576, Note_off_c, 1, 56, 100
3, 67968, Note_on_c, 1, 56, 100
3, 67968, Note_on_c, 1, 53, 100
3, 67968, Note_on_c, 1, 50, 100
3, 67968, Note_on_c, 1, 59, 100
3, 68344, Note_off_c, 1, 56, 100
3, 68344, Note_off_c, 1, 53, 100
3, 68344, Note_off_c, 1, 50, 100
3, 68344, Note_off_c, 1, 59, 100
3, 68736, Note_on_c, 1, 60, 100
3, 68736, Note_on_c, 1, 56, 100
3, 68736, Note_on_c, 1, 51, 100
3, 69112, Note_off_c, 1, 60, 100
3, 69112, Note_off_c, 1, 56, 100
3, 69112, Note_off_c, 1, 51, 100
3, 69504, Note_on_c, 1, 61, 100
3, 69504, Note_on_c, 1, 58, 100
3, 69504, Note_on_c, 1, 51, 100
3, 69880, Note_off_c, 1, 61, 100
3, 69880, Note_off_c, 1, 58, 100
3, 69880, Note_off_c, 1, 51, 100
3, 70272, Note_on_c, 1, 60, 100
3, 70272, Note_on_c, 1, 56, 100
3, 70648, Note_off_c, 1, 60, 100
3, 70648, Note_off_c, 1, 56, 100
3, 71040, Note_on_c, 1, 68, 110
3, 71040, Note_on_c, 1, 65, 110
3, 71040, Note_on_c, 1, 62, 110
3, 71040, Note_on_c, 1, 71, 110
3, 71416, Note_off_c, 1, 68, 100
3, 71416, Note_off_c, 1, 65, 100
3, 71416, Note_off_c, 1, 62, 100
3, 71416, Note_off_c, 1, 71, 100
3, 71808, Note_on_c, 1, 72, 110
3, 71808, Note_on_c, 1, 68, 110
3, 71808, Note_on_c, 1, 63, 110
3, 72184, Note_off_c, 1, 72, 100
3, 72184, Note_off_c, 1, 68, 100
3, 72184, Note_off_c, 1, 63, 100
3, 72576, Note_on_c, 1, 73, 110
3, 72576, Note_on_c, 1, 70, 110
3, 72576, Note_on_c, 1, 63, 110
3, 72952, Note_off_c, 1, 73, 100
3, 72952, Note_off_c, 1, 70, 100
3, 72952, Note_off_c, 1, 63, 100
3, 72960, Note_on_c, 1, 67, 120
3, 72960, Note_on_c, 1, 63, 120
3, 72960, Note_on_c, 1, 61, 120
3, 72960, Note_on_c, 1, 58, 120
3, 72960, Note_on_c, 1, 56, 120
3, 74488, Note_off_c, 1, 67, 100
3, 74488, Note_off_c, 1, 63, 100
3, 74488, Note_off_c, 1, 61, 100
3, 74488, Note_off_c, 1, 58, 100
3, 74488, Note_off_c, 1, 56, 100
3, 74496, Note_on_c, 1, 56, 100
3, 74496, Note_on_c, 1, 60, 100
3, 74496, Note_on_c, 1, 63, 100
3, 74496, Note_on_c, 1, 68, 100
3, 74872, Note_off_c, 1, 56, 100
3, 74872, Note_off_c, 1, 60, 100
3, 74872, Note_off_c, 1, 63, 100
3, 74872, Note_off_c, 1, 68, 100
3, 77952, Note_on_c, 1, 60, 83
3, 77952, Note_on_c, 1, 56, 83
3, 77952, Note_on_c, 1, 53, 83
3, 78328, Note_off_c, 1, 60, 100
3, 78328, Note_off_c, 1, 56, 100
3, 78328, Note_off_c, 1, 53, 100
3, 78336, Note_on_c, 1, 60, 84
3, 78336, Note_on_c, 1, 56, 84
3, 78336, Note_on_c, 1, 53, 84
3, 78712, Note_off_c, 1, 60, 100
3, 78712, Note_off_c, 1, 56, 100
3, 78712, Note_off_c, 1, 53, 100
3, 78720, Note_on_c, 1, 60, 84
3, 78720, Note_on_c, 1, 56, 84
3, 78720, Note_on_c, 1, 53, 84
3, 79096, Note_off_c, 1, 60, 100
3, 79096, Note_off_c, 1, 56, 100
3, 79096, Note_off_c, 1, 53, 100
3, 79104, Note_on_c, 1, 60, 85
3, 79104, Note_on_c, 1, 58, 85
3, 79104, Note_on_c, 1, 55, 85
3, 79104, Note_on_c, 1, 52, 85
3, 79480, Note_off_c, 1, 60, 100
3, 79480, Note_off_c, 1, 58, 100
3, 79480, Note_off_c, 1, 55, 100
3, 79480, Note_off_c, 1, 52, 100
3, 81024, Note_on_c, 1, 60, 88
3, 81024, Note_on_c, 1, 58, 88
3, 81024, Note_on_c, 1, 55, 88
3, 81024, Note_on_c, 1, 52, 88
3, 81400, Note_off_c, 1, 60, 100
3, 81400, Note_off_c, 1, 58, 100
3, 81400, Note_off_c, 1, 55, 100
3, 81400, Note_off_c, 1, 52, 100
3, 81408, Note_on_c, 1, 60, 89
3, 81408, Note_on_c, 1, 58, 89
3, 81408, Note_on_c, 1, 55, 89
3, 81408, Note_on_c, 1, 52, 89
3, 81784, Note_off_c, 1, 60, 100
3, 81784, Note_off_c, 1, 58, 100
3, 81784, Note_off_c, 1, 55, 100
3, 81784, Note_off_c, 1, 52, 100
3, 81792, Note_on_c, 1, 60, 89
3, 81792, Note_on_c, 1, 58, 89
3, 81792, Note_on_c, 1, 55, 89
3, 81792, Note_on_c, 1, 52, 89
3, 82168, Note_off_c, 1, 60, 100
3, 82168, Note_off_c, 1, 58, 100
3, 82168, Note_off_c, 1, 55, 100
3, 82168, Note_off_c, 1, 52, 100
3, 82560, Note_on_c, 1, 60, 100
3, 82560, Note_on_c, 1, 56, 100
3, 82560, Note_on_c, 1, 53, 100
3, 82936, Note_off_c, 1, 60, 100
3, 82936, Note_off_c, 1, 56, 100
3, 82936, Note_off_c, 1, 53, 100
3, 82944, Note_on_c, 1, 60, 100
3, 82944, Note_on_c, 1, 56, 100
3, 82944, Note_on_c, 1, 53, 100
3, 83320, Note_off_c, 1, 60, 100
3, 83320, Note_off_c, 1, 56, 100
3, 83320, Note_off_c, 1, 53, 100
3, 83328, Note_on_c, 1, 60, 100
3, 83328, Note_on_c, 1, 56, 100
3, 83328, Note_on_c, 1, 53, 100
3, 83704, Note_off_c, 1, 60, 100
3, 83704, Note_off_c, 1, 56, 100
3, 83704, Note_off_c, 1, 53, 100
3, 84096, Note_on_c, 1, 64, 100
3, 84096, Note_on_c, 1, 58, 100
3, 84096, Note_on_c, 1, 55, 100
3, 84472, Note_off_c, 1, 64, 100
3, 84472, Note_off_c, 1, 58, 100
3, 84472, Note_off_c, 1, 55, 100
3, 84480, Note_on_c, 1, 64, 100
3, 84480, Note_on_c, 1, 58, 100
3, 84480, Note_on_c, 1, 55, 100
3, 84856, Note_off_c, 1, 64, 100
3, 84856, Note_off_c, 1, 58, 100
3, 84856, Note_off_c, 1, 55, 100
3, 84864, Note_on_c, 1, 64, 100
3, 84864, Note_on_c, 1, 58, 100
3, 84864, Note_on_c, 1, 55, 100
3, 85240, Note_off_c, 1, 64, 100
3, 85240, Note_off_c, 1, 58, 100
3, 85240, Note_off_c, 1, 55, 100
3, 85632, Note_on_c, 1, 65, 120
3, 85632, Note_on_c, 1, 60, 120
3, 85632, Note_on_c, 1, 56, 120
3, 86008, Note_off_c, 1, 65, 100
3, 86008, Note_off_c, 1, 60, 100
3, 86008, Note_off_c, 1, 56, 100
3, 86400, Note_on_c, 1, 58, 120
3, 86400, Note_on_c, 1, 61, 120
3, 86400, Note_on_c, 1, 67, 120
3, 86776, Note_off_c, 1, 58, 100
3, 86776, Note_off_c, 1, 61, 100
3, 86776, Note_off_c, 1, 67, 100
3, 87936, Note_on_c, 1, 60, 120
3, 87936, Note_on_c, 1, 67, 120
3, 88312, Note_off_c, 1, 60, 100
3, 88312, Note_off_c, 1, 67, 100
3, 89472, Note_on_c, 1, 43, 80
3, 89848, Note_off_c, 1, 43, 100
3, 89856, Note_on_c, 1, 48, 80
3, 90232, Note_off_c, 1, 48, 100
3, 90240, Note_on_c, 1, 51, 80
3, 90616, Note_off_c, 1, 51, 100
3, 90624, Note_on_c, 1, 55, 81
3, 91000, Note_off_c, 1, 55, 100
3, 91008, Note_on_c, 1, 60, 81
3, 91384, Note_off_c, 1, 60, 100
3, 91392, Note_on_c, 1, 63, 81
3, 91960, Note_off_c, 1, 63, 100
3, 91968, Note_on_c, 1, 62, 82
3, 92032, Note_on_c, 1, 60, 82
3, 92088, Note_off_c, 1, 62, 100
3, 92096, Note_on_c, 1, 59, 82
3, 92152, Note_off_c, 1, 60, 100
3, 92152, Note_off_c, 1, 59, 100
3, 92160, Note_on_c, 1, 60, 82
3, 92536, Note_off_c, 1, 60, 100
3, 92544, Note_on_c, 1, 60, 82
3, 92920, Note_off_c, 1, 60, 100
3, 92928, Note_on_c, 1, 60, 83
3, 92928, Note_on_c, 1, 65, 83
3, 94456, Note_off_c, 1, 60, 100
3, 94456, Note_off_c, 1, 65, 100
3, 94464, Note_on_c, 1, 58, 84
3, 94464, Note_on_c, 1, 65, 84
3, 95992, Note_off_c, 1, 58, 100
3, 95992, Note_off_c, 1, 65, 100
3, 96000, Note_on_c, 1, 58, 86
3, 96000, Note_on_c, 1, 63, 86
3, 97528, Note_off_c, 1, 58, 100
3, 97528, Note_off_c, 1, 63, 100
3, 97536, Note_on_c, 1, 63, 87
3, 97536, Note_on_c, 1, 56, 87
3, 99064, Note_off_c, 1, 63, 100
3, 99064, Note_off_c, 1, 56, 100
3, 99072, Note_on_c, 1, 61, 88
3, 99832, Note_off_c, 1, 61, 100
3, 99840, Note_on_c, 1, 62, 89
3, 100600, Note_off_c, 1, 62, 100
3, 100608, Note_on_c, 1, 63, 100
3, 100984, Note_off_c, 1, 63, 100
3, 101760, Note_on_c, 1, 60, 100
3, 101760, Note_on_c, 1, 63, 100
3, 102136, Note_off_c, 1, 60, 100
3, 102136, Note_off_c, 1, 63, 100
3, 102144, Note_on_c, 1, 61, 100
3, 102144, Note_on_c, 1, 65, 100
3, 102904, Note_off_c, 1, 61, 100
3, 102904, Note_off_c, 1, 65, 100
3, 102912, Note_on_c, 1, 62, 100
3, 102912, Note_on_c, 1, 65, 100
3, 103672, Note_off_c, 1, 62, 100
3, 103672, Note_off_c, 1, 65, 100
3, 103680, Note_on_c, 1, 63, 100
3, 104056, Note_off_c, 1, 63, 100
3, 104832, Note_on_c, 1, 51, 110
3, 104832, Note_on_c, 1, 48, 110
3, 105208, Note_off_c, 1, 51, 100
3, 105208, Note_off_c, 1, 48, 100
3, 105216, Note_on_c, 1, 53, 110
3, 105216, Note_on_c, 1, 49, 110
3, 105976, Note_off_c, 1, 53, 100
3, 105976, Note_off_c, 1, 49, 100
3, 105984, Note_on_c, 1, 53, 110
3, 105984, Note_on_c, 1, 50, 110
3, 106744, Note_off_c, 1, 53, 100
3, 106744, Note_off_c, 1, 50, 100
3, 106752, Note_on_c, 1, 51, 80
3, 106936, Note_off_c, 1, 51, 100
3, 106944, Note_on_c, 1, 63, 80
3, 107128, Note_off_c, 1, 63, 100
3, 107136, Note_on_c, 1, 51, 80
3, 107320, Note_off_c, 1, 51, 100
3, 107328, Note_on_c, 1, 63, 80
3, 107512, Note_off_c, 1, 63, 100
3, 107520, Note_on_c, 1, 51, 80
3, 107704, Note_off_c, 1, 51, 100
3, 107712, Note_on_c, 1, 63, 80
3, 107896, Note_off_c, 1, 63, 100
3, 107904, Note_on_c, 1, 51, 80
3, 108088, Note_off_c, 1, 51, 100
3, 108096, Note_on_c, 1, 63, 80
3, 108280, Note_off_c, 1, 63, 100
3, 108288, Note_on_c, 1, 51, 80
3, 108472, Note_off_c, 1, 51, 100
3, 108480, Note_on_c, 1, 63, 80
3, 108664, Note_off_c, 1, 63, 100
3, 108672, Note_on_c, 1, 51, 80
3, 108856, Note_off_c, 1, 51, 100
3, 108864, Note_on_c, 1, 63, 80
3, 109048, Note_off_c, 1, 63, 100
3, 109056, Note_on_c, 1, 51, 80
3, 109240, Note_off_c, 1, 51, 100
3, 109248, Note_on_c, 1, 63, 80
3, 109432, Note_off_c, 1, 63, 100
3, 109440, Note_on_c, 1, 51, 80
3, 109624, Note_off_c, 1, 51, 100
3, 109632, Note_on_c, 1, 63, 80
3, 109816, Note_off_c, 1, 63, 100
3, 109824, Note_on_c, 1, 51, 80
3, 109824, Note_on_c, 1, 61, 80
3, 110200, Note_off_c, 1, 51, 100
3, 110208, Note_on_c, 1, 51, 80
3, 110584, Note_off_c, 1, 61, 100
3, 110584, Note_off_c, 1, 51, 100
3, 110592, Note_on_c, 1, 60, 80
3, 110592, Note_on_c, 1, 51, 80
3, 110776, Note_off_c, 1, 51, 100
3, 110784, Note_on_c, 1, 63, 80
3, 110968, Note_off_c, 1, 60, 100
3, 110968, Note_off_c, 1, 63, 100
3, 110976, Note_on_c, 1, 51, 80
3, 111160, Note_off_c, 1, 51, 100
3, 111168, Note_on_c, 1, 63, 80
3, 111352, Note_off_c, 1, 63, 100
3, 111360, Note_on_c, 1, 51, 80
3, 111544, Note_off_c, 1, 51, 100
3, 111552, Note_on_c, 1, 63, 80
3, 111736, Note_off_c, 1, 63, 100
3, 111744, Note_on_c, 1, 51, 80
3, 111928, Note_off_c, 1, 51, 100
3, 111936, Note_on_c, 1, 63, 80
3, 112120, Note_off_c, 1, 63, 100
3, 112128, Note_on_c, 1, 51, 80
3, 112312, Note_off_c, 1, 51, 100
3, 112320, Note_on_c, 1, 63, 80
3, 112504, Note_off_c, 1, 63, 100
3, 112512, Note_on_c, 1, 51, 80
3, 112696, Note_off_c, 1, 51, 100
3, 112704, Note_on_c, 1, 63, 80
3, 112888, Note_off_c, 1, 63, 100
3, 112896, Note_on_c, 1, 51, 80
3, 112896, Note_on_c, 1, 61, 80
3, 113272, Note_off_c, 1, 51, 100
3, 113280, Note_on_c, 1, 51, 80
3, 113656, Note_off_c, 1, 61, 100
3, 113656, Note_off_c, 1, 51, 100
3, 113664, Note_on_c, 1, 60, 80
3, 113664, Note_on_c, 1, 51, 80
3, 113848, Note_off_c, 1, 51, 100
3, 113856, Note_on_c, 1, 63, 80
3, 114040, Note_off_c, 1, 60, 100
3, 114040, Note_off_c, 1, 63, 100
3, 114048, Note_on_c, 1, 51, 80
3, 114232, Note_off_c, 1, 51, 100
3, 114240, Note_on_c, 1, 63, 80
3, 114424, Note_off_c, 1, 63, 100
3, 114432, Note_on_c, 1, 51, 80
3, 114616, Note_off_c, 1, 51, 100
3, 114624, Note_on_c, 1, 63, 80
3, 114808, Note_off_c, 1, 63, 100
3, 114816, Note_on_c, 1, 51, 80
3, 115000, Note_off_c, 1, 51, 100
3, 115008, Note_on_c, 1, 63, 80
3, 115192, Note_off_c, 1, 63, 100
3, 115200, Note_on_c, 1, 61, 80
3, 115384, Note_off_c, 1, 61, 100
3, 115392, Note_on_c, 1, 63, 80
3, 115576, Note_off_c, 1, 63, 100
3, 115584, Note_on_c, 1, 61, 80
3, 115768, Note_off_c, 1, 61, 100
3, 115776, Note_on_c, 1, 63, 80
3, 115960, Note_off_c, 1, 63, 100
3, 115968, Note_on_c, 1, 60, 80
3, 116152, Note_off_c, 1, 60, 100
3, 116160, Note_on_c, 1, 63, 80
3, 116344, Note_off_c, 1, 63, 100
3, 116352, Note_on_c, 1, 60, 81
3, 116536, Note_off_c, 1, 60, 100
3, 116544, Note_on_c, 1, 63, 82
3, 116728, Note_off_c, 1, 63, 100
3, 116736, Note_on_c, 1, 55, 83
3, 116920, Note_off_c, 1, 55, 100
3, 116928, Note_on_c, 1, 63, 84
3, 117112, Note_off_c, 1, 63, 100
3, 117120, Note_on_c, 1, 55, 85
3, 117304, Note_off_c, 1, 55, 100
3, 117312, Note_on_c, 1, 63, 86
3, 117496, Note_off_c, 1, 63, 100
3, 117504, Note_on_c, 1, 56, 86
3, 117688, Note_off_c, 1, 56, 100
3, 117696, Note_on_c, 1, 63, 87
3, 117880, Note_off_c, 1, 63, 100
3, 117888, Note_on_c, 1, 56, 88
3, 118072, Note_off_c, 1, 56, 100
3, 118080, Note_on_c, 1, 63, 89
3, 118264, Note_off_c, 1, 63, 100
3, 118272, Note_on_c, 1, 53, 90
3, 118456, Note_off_c, 1, 53, 100
3, 118464, Note_on_c, 1, 62, 91
3, 118648, Note_off_c, 1, 62, 100
3, 118656, Note_on_c, 1, 56, 92
3, 118840, Note_off_c, 1, 56, 100
3, 118848, Note_on_c, 1, 62, 93
3, 119032, Note_off_c, 1, 62, 100
3, 119040, Note_on_c, 1, 51, 93
3, 119224, Note_off_c, 1, 51, 100
3, 119232, Note_on_c, 1, 63, 94
3, 119416, Note_off_c, 1, 63, 100
3, 119424, Note_on_c, 1, 55, 95
3, 119608, Note_off_c, 1, 55, 100
3, 119616, Note_on_c, 1, 63, 96
3, 119800, Note_off_c, 1, 63, 100
3, 119808, Note_on_c, 1, 53, 97
3, 119992, Note_off_c, 1, 53, 100
3, 120000, Note_on_c, 1, 62, 98
3, 120184, Note_off_c, 1, 62, 100
3, 120192, Note_on_c, 1, 56, 99
3, 120376, Note_off_c, 1, 56, 100
3, 120384, Note_on_c, 1, 62, 99
3, 120568, Note_off_c, 1, 62, 100
3, 120576, Note_on_c, 1, 51, 100
3, 120760, Note_off_c, 1, 51, 100
3, 120768, Note_on_c, 1, 63, 100
3, 120952, Note_off_c, 1, 63, 100
3, 120960, Note_on_c, 1, 55, 100
3, 121144, Note_off_c, 1, 55, 100
3, 121152, Note_on_c, 1, 63, 100
3, 121336, Note_off_c, 1, 63, 100
3, 121344, Note_on_c, 1, 49, 100
3, 121528, Note_off_c, 1, 49, 100
3, 121536, Note_on_c, 1, 58, 100
3, 121720, Note_off_c, 1, 58, 100
3, 121728, Note_on_c, 1, 52, 100
3, 121912, Note_off_c, 1, 52, 100
3, 121920, Note_on_c, 1, 58, 100
3, 122104, Note_off_c, 1, 58, 100
3, 122112, Note_on_c, 1, 51, 100
3, 122296, Note_off_c, 1, 51, 100
3, 122304, Note_on_c, 1, 56, 100
3, 122488, Note_off_c, 1, 56, 100
3, 122496, Note_on_c, 1, 55, 100
3, 122680, Note_off_c, 1, 55, 100
3, 122688, Note_on_c, 1, 56, 100
3, 122872, Note_off_c, 1, 56, 100
3, 122880, Note_on_c, 1, 49, 100
3, 123064, Note_off_c, 1, 49, 100
3, 123072, Note_on_c, 1, 58, 100
3, 123256, Note_off_c, 1, 58, 100
3, 123264, Note_on_c, 1, 52, 100
3, 123448, Note_off_c, 1, 52, 100
3, 123456, Note_on_c, 1, 58, 100
3, 123640, Note_off_c, 1, 58, 100
3, 123648, Note_on_c, 1, 48, 100
3, 123832, Note_off_c, 1, 48, 100
3, 123840, Note_on_c, 1, 56, 100
3, 124024, Note_off_c, 1, 56, 100
3, 124032, Note_on_c, 1, 51, 101
3, 124216, Note_off_c, 1, 51, 100
3, 124224, Note_on_c, 1, 56, 101
3, 124408, Note_off_c, 1, 56, 100
3, 124416, Note_on_c, 1, 44, 102
3, 124600, Note_off_c, 1, 44, 100
3, 124608, Note_on_c, 1, 55, 103
3, 124792, Note_off_c, 1, 55, 100
3, 124800, Note_on_c, 1, 51, 103
3, 124984, Note_off_c, 1, 51, 100
3, 124992, Note_on_c, 1, 55, 104
3, 125176, Note_off_c, 1, 55, 100
3, 125184, Note_on_c, 1, 44, 105
3, 125368, Note_off_c, 1, 44, 100
3, 125376, Note_on_c, 1, 56, 105
3, 125560, Note_off_c, 1, 56, 100
3, 125568, Note_on_c, 1, 51, 106
3, 125752, Note_off_c, 1, 51, 100
3, 125760, Note_on_c, 1, 56, 106
3, 125944, Note_off_c, 1, 56, 100
3, 125952, Note_on_c, 1, 46, 107
3, 126136, Note_off_c, 1, 46, 100
3, 126144, Note_on_c, 1, 58, 108
3, 126328, Note_off_c, 1, 58, 100
3, 126336, Note_on_c, 1, 51, 108
3, 126520, Note_off_c, 1, 51, 100
3, 126528, Note_on_c, 1, 58, 109
3, 126712, Note_off_c, 1, 58, 100
3, 126720, Note_on_c, 1, 48, 110
3, 127096, Note_off_c, 1, 48, 100
3, 127104, Note_on_c, 1, 51, 109
3, 127864, Note_off_c, 1, 51, 100
3, 127872, Note_on_c, 1, 56, 107
3, 128248, Note_off_c, 1, 56, 100
3, 128256, Note_on_c, 1, 49, 105
3, 128632, Note_off_c, 1, 49, 100
3, 128640, Note_on_c, 1, 53, 114
3, 129400, Note_off_c, 1, 53, 100
3, 129408, Note_on_c, 1, 58, 102
3, 129784, Note_off_c, 1, 58, 100
3, 129792, Note_on_c, 1, 51, 80
3, 130168, Note_off_c, 1, 51, 100
3, 130176, Note_on_c, 1, 56, 80
3, 130936, Note_off_c, 1, 56, 100
3, 130944, Note_on_c, 1, 60, 80
3, 131320, Note_off_c, 1, 60, 100
3, 131328, Note_on_c, 1, 61, 80
3, 131704, Note_off_c, 1, 61, 100
3, 131712, Note_on_c, 1, 58, 80
3, 132088, Note_off_c, 1, 58, 100
3, 132096, Note_on_c, 1, 55, 80
3, 132472, Note_off_c, 1, 55, 100
3, 132480, Note_on_c, 1, 49, 80
3, 132856, Note_off_c, 1, 49, 100
3, 132864, Note_on_c, 1, 36, 110
3, 133240, Note_off_c, 1, 36, 100
3, 133248, Note_on_c, 1, 39, 109
3, 134008, Note_off_c, 1, 39, 100
3, 134016, Note_on_c, 1, 44, 107
3, 134392, Note_off_c, 1, 44, 100
3, 134400, Note_on_c, 1, 37, 105
3, 134776, Note_off_c, 1, 37, 100
3, 134784, Note_on_c, 1, 41, 114
3, 135544, Note_off_c, 1, 41, 100
3, 135552, Note_on_c, 1, 46, 102
3, 135928, Note_off_c, 1, 46, 100
3, 135936, Note_on_c, 1, 39, 80
3, 136312, Note_off_c, 1, 39, 100
3, 136320, Note_on_c, 1, 44, 80
3, 137080, Note_off_c, 1, 44, 100
3, 137088, Note_on_c, 1, 48, 80
3, 137464, Note_off_c, 1, 48, 100
3, 137472, Note_on_c, 1, 49, 80
3, 137848, Note_off_c, 1, 49, 100
3, 137856, Note_on_c, 1, 46, 80
3, 138232, Note_off_c, 1, 46, 100
3, 138240, Note_on_c, 1, 43, 80
3, 138616, Note_off_c, 1, 43, 100
3, 138624, Note_on_c, 1, 39, 80
3, 139000, Note_off_c, 1, 39, 100
3, 139008, Note_on_c, 1, 44, 100
3, 139384, Note_off_c, 1, 44, 100
3, 139392, Note_on_c, 1, 56, 100
3, 139768, Note_off_c, 1, 56, 100
3, 140160, Note_on_c, 1, 56, 100
3, 140160, Note_on_c, 1, 53, 100
3, 140160, Note_on_c, 1, 50, 100
3, 140160, Note_on_c, 1, 59, 100
3, 140536, Note_off_c, 1, 56, 100
3, 140536, Note_off_c, 1, 53, 100
3, 140536, Note_off_c, 1, 50, 100
3, 140536, Note_off_c, 1, 59, 100
3, 140928, Note_on_c, 1, 60, 100
3, 140928, Note_on_c, 1, 56, 100
3, 140928, Note_on_c, 1, 51, 100
3, 141304, Note_off_c, 1, 60, 100
3, 141304, Note_off_c, 1, 56, 100
3, 141304, Note_off_c, 1, 51, 100
3, 141696, Note_on_c, 1, 61, 100
3, 141696, Note_on_c, 1, 58, 100
3, 141696, Note_on_c, 1, 51, 100
3, 142072, Note_off_c, 1, 61, 100
3, 142072, Note_off_c, 1, 58, 100
3, 142072, Note_off_c, 1, 51, 100
3, 142464, Note_on_c, 1, 60, 100
3, 142464, Note_on_c, 1, 56, 100
3, 142840, Note_off_c, 1, 60, 100
3, 142840, Note_off_c, 1, 56, 100
3, 143232, Note_on_c, 1, 56, 100
3, 143232, Note_on_c, 1, 53, 100
3, 143232, Note_on_c, 1, 50, 100
3, 143232, Note_on_c, 1, 59, 100
3, 143608, Note_off_c, 1, 56, 100
3, 143608, Note_off_c, 1, 53, 100
3, 143608, Note_off_c, 1, 50, 100
3, 143608, Note_off_c, 1, 59, 100
3, 144000, Note_on_c, 1, 60, 100
3, 144000, Note_on_c, 1, 56, 100
3, 144000, Note_on_c, 1, 51, 100
3, 144376, Note_off_c, 1, 60, 100
3, 144376, Note_off_c, 1, 56, 100
3, 144376, Note_off_c, 1, 51, 100
3, 144768, Note_on_c, 1, 61, 100
3, 144768, Note_on_c, 1, 58, 100
3, 144768, Note_on_c, 1, 51, 100
3, 145144, Note_off_c, 1, 61, 100
3, 145144, Note_off_c, 1, 58, 100
3, 145144, Note_off_c, 1, 51, 100
3, 145536, Note_on_c, 1, 60, 100
3, 145536, Note_on_c, 1, 56, 100
3, 145912, Note_off_c, 1, 60, 100
3, 145912, Note_off_c, 1, 56, 100
3, 146304, Note_on_c, 1, 68, 110
3, 146304, Note_on_c, 1, 65, 110
3, 146304, Note_on_c, 1, 62, 110
3, 146304, Note_on_c, 1, 71, 110
3, 146680, Note_off_c, 1, 68, 100
3, 146680, Note_off_c, 1, 65, 100
3, 146680, Note_off_c, 1, 62, 100
3, 146680, Note_off_c, 1, 71, 100
3, 147072, Note_on_c, 1, 72, 110
3, 147072, Note_on_c, 1, 68, 110
3, 147072, Note_on_c, 1, 63, 110
3, 147448, Note_off_c, 1, 72, 100
3, 147448, Note_off_c, 1, 68, 100
3, 147448, Note_off_c, 1, 63, 100
3, 147840, Note_on_c, 1, 73, 110
3, 147840, Note_on_c, 1, 70, 110
3, 147840, Note_on_c, 1, 63, 110
3, 148216, Note_off_c, 1, 73, 100
3, 148216, Note_off_c, 1, 70, 100
3, 148216, Note_off_c, 1, 63, 100
3, 148224, Note_on_c, 1, 67, 120
3, 148224, Note_on_c, 1, 63, 120
3, 148224, Note_on_c, 1, 61, 120
3, 148224, Note_on_c, 1, 58, 120
3, 148224, Note_on_c, 1, 56, 120
3, 149752, Note_off_c, 1, 67, 100
3, 149752, Note_off_c, 1, 63, 100
3, 149752, Note_off_c, 1, 61, 100
3, 149752, Note_off_c, 1, 58, 100
3, 149752, Note_off_c, 1, 56, 100
3, 149760, Note_on_c, 1, 56, 100
3, 149760, Note_on_c, 1, 60, 100
3, 149760, Note_on_c, 1, 63, 100
3, 149760, Note_on_c, 1, 68, 100
3, 150136, Note_off_c, 1, 56, 100
3, 150136, Note_off_c, 1, 60, 100
3, 150136, Note_off_c, 1, 63, 100
3, 150136, Note_off_c, 1, 68, 100
3, 153216, Note_on_c, 1, 63, 80
3, 153216, Note_on_c, 1, 56, 80
3, 153216, Note_on_c, 1, 60, 80
3, 153592, Note_off_c, 1, 63, 100
3, 153592, Note_off_c, 1, 56, 100
3, 153592, Note_off_c, 1, 60, 100
3, 153600, Note_on_c, 1, 63, 80
3, 153600, Note_on_c, 1, 56, 80
3, 153600, Note_on_c, 1, 60, 80
3, 153976, Note_off_c, 1, 63, 100
3, 153976, Note_off_c, 1, 56, 100
3, 153976, Note_off_c, 1, 60, 100
3, 153984, Note_on_c, 1, 63, 80
3, 153984, Note_on_c, 1, 56, 80
3, 153984, Note_on_c, 1, 60, 80
3, 154360, Note_off_c, 1, 63, 100
3, 154360, Note_off_c, 1, 56, 100
3, 154360, Note_off_c, 1, 60, 100
3, 154752, Note_on_c, 1, 63, 80
3, 154752, Note_on_c, 1, 61, 80
3, 154752, Note_on_c, 1, 58, 80
3, 154752, Note_on_c, 1, 55, 80
3, 155128, Note_off_c, 1, 63, 100
3, 155128, Note_off_c, 1, 61, 100
3, 155128, Note_off_c, 1, 58, 100
3, 155128, Note_off_c, 1, 55, 100
3, 155136, Note_on_c, 1, 63, 80
3, 155136, Note_on_c, 1, 61, 80
3, 155136, Note_on_c, 1, 58, 80
3, 155136, Note_on_c, 1, 55, 80
3, 155512, Note_off_c, 1, 63, 100
3, 155512, Note_off_c, 1, 61, 100
3, 155512, Note_off_c, 1, 58, 100
3, 155512, Note_off_c, 1, 55, 100
3, 155520, Note_on_c, 1, 63, 80
3, 155520, Note_on_c, 1, 61, 80
3, 155520, Note_on_c, 1, 58, 80
3, 155520, Note_on_c, 1, 55, 80
3, 155896, Note_off_c, 1, 63, 100
3, 155896, Note_off_c, 1, 61, 100
3, 155896, Note_off_c, 1, 58, 100
3, 155896, Note_off_c, 1, 55, 100
3, 157824, Note_on_c, 1, 63, 80
3, 157824, Note_on_c, 1, 61, 80
3, 157824, Note_on_c, 1, 58, 80
3, 157824, Note_on_c, 1, 55, 80
3, 158200, Note_off_c, 1, 63, 100
3, 158200, Note_off_c, 1, 61, 100
3, 158200, Note_off_c, 1, 58, 100
3, 158200, Note_off_c, 1, 55, 100
3, 158208, Note_on_c, 1, 63, 80
3, 158208, Note_on_c, 1, 61, 80
3, 158208, Note_on_c, 1, 58, 80
3, 158208, Note_on_c, 1, 55, 80
3, 158584, Note_off_c, 1, 63, 100
3, 158584, Note_off_c, 1, 61, 100
3, 158584, Note_off_c, 1, 58, 100
3, 158584, Note_off_c, 1, 55, 100
3, 158592, Note_on_c, 1, 63, 80
3, 158592, Note_on_c, 1, 61, 80
3, 158592, Note_on_c, 1, 58, 80
3, 158592, Note_on_c, 1, 55, 80
3, 158968, Note_off_c, 1, 63, 100
3, 158968, Note_off_c, 1, 61, 100
3, 158968, Note_off_c, 1, 58, 100
3, 158968, Note_off_c, 1, 55, 100
3, 159360, Note_on_c, 1, 63, 85
3, 159360, Note_on_c, 1, 61, 85
3, 159360, Note_on_c, 1, 58, 85
3, 159360, Note_on_c, 1, 54, 85
3, 159736, Note_off_c, 1, 63, 100
3, 159736, Note_off_c, 1, 61, 100
3, 159736, Note_off_c, 1, 58, 100
3, 159736, Note_off_c, 1, 54, 100
3, 159744, Note_on_c, 1, 63, 91
3, 159744, Note_on_c, 1, 61, 91
3, 159744, Note_on_c, 1, 58, 91
3, 159744, Note_on_c, 1, 54, 91
3, 160120, Note_off_c, 1, 63, 100
3, 160120, Note_off_c, 1, 61, 100
3, 160120, Note_off_c, 1, 58, 100
3, 160120, Note_off_c, 1, 54, 100
3, 160128, Note_on_c, 1, 63, 97
3, 160128, Note_on_c, 1, 61, 97
3, 160128, Note_on_c, 1, 58, 97
3, 160128, Note_on_c, 1, 54, 97
3, 160504, Note_off_c, 1, 63, 100
3, 160504, Note_off_c, 1, 61, 100
3, 160504, Note_off_c, 1, 58, 100
3, 160504, Note_off_c, 1, 54, 100
3, 160512, Note_on_c, 1, 53, 120
3, 160696, Note_off_c, 1, 53, 100
3, 160704, Note_on_c, 1, 65, 80
3, 160888, Note_off_c, 1, 65, 100
3, 160896, Note_on_c, 1, 53, 80
3, 161080, Note_off_c, 1, 53, 100
3, 161088, Note_on_c, 1, 65, 80
3, 161272, Note_off_c, 1, 65, 100
3, 161280, Note_on_c, 1, 53, 80
3, 161464, Note_off_c, 1, 53, 100
3, 161472, Note_on_c, 1, 65, 80
3, 161656, Note_off_c, 1, 65, 100
3, 161664, Note_on_c, 1, 53, 80
3, 161848, Note_off_c, 1, 53, 100
3, 161856, Note_on_c, 1, 65, 80
3, 162040, Note_off_c, 1, 65, 100
3, 162048, Note_on_c, 1, 53, 80
3, 162232, Note_off_c, 1, 53, 100
3, 162240, Note_on_c, 1, 65, 80
3, 162424, Note_off_c, 1, 65, 100
3, 162432, Note_on_c, 1, 53, 80
3, 162616, Note_off_c, 1, 53, 100
3, 162624, Note_on_c, 1, 65, 80
3, 162808, Note_off_c, 1, 65, 100
3, 162816, Note_on_c, 1, 53, 80
3, 163000, Note_off_c, 1, 53, 100
3, 163008, Note_on_c, 1, 65, 80
3, 163192, Note_off_c, 1, 65, 100
3, 163200, Note_on_c, 1, 53, 80
3, 163384, Note_off_c, 1, 53, 100
3, 163392, Note_on_c, 1, 65, 80
3, 163576, Note_off_c, 1, 65, 100
3, 163584, Note_on_c, 1, 63, 80
3, 163584, Note_on_c, 1, 53, 80
3, 163960, Note_off_c, 1, 53, 100
3, 163968, Note_on_c, 1, 53, 80
3, 164344, Note_off_c, 1, 63, 100
3, 164344, Note_off_c, 1, 53, 100
3, 164352, Note_on_c, 1, 61, 80
3, 164352, Note_on_c, 1, 53, 80
3, 164536, Note_off_c, 1, 53, 100
3, 164544, Note_on_c, 1, 65, 80
3, 164728, Note_off_c, 1, 61, 100
3, 164728, Note_off_c, 1, 65, 100
3, 164736, Note_on_c, 1, 53, 80
3, 164920, Note_off_c, 1, 53, 100
3, 164928, Note_on_c, 1, 65, 80
3, 165112, Note_off_c, 1, 65, 100
3, 165120, Note_on_c, 1, 53, 80
3, 165304, Note_off_c, 1, 53, 100
3, 165312, Note_on_c, 1, 65, 80
3, 165496, Note_off_c, 1, 65, 100
3, 165504, Note_on_c, 1, 53, 80
3, 165688, Note_off_c, 1, 53, 100
3, 165696, Note_on_c, 1, 65, 80
3, 165880, Note_off_c, 1, 65, 100
3, 165888, Note_on_c, 1, 53, 80
3, 166072, Note_off_c, 1, 53, 100
3, 166080, Note_on_c, 1, 65, 80
3, 166264, Note_off_c, 1, 65, 100
3, 166272, Note_on_c, 1, 53, 80
3, 166456, Note_off_c, 1, 53, 100
3, 166464, Note_on_c, 1, 65, 80
3, 166648, Note_off_c, 1, 65, 100
3, 166656, Note_on_c, 1, 63, 80
3, 166656, Note_on_c, 1, 53, 80
3, 167032, Note_off_c, 1, 53, 100
3, 167040, Note_on_c, 1, 53, 80
3, 167416, Note_off_c, 1, 63, 100
3, 167416, Note_off_c, 1, 53, 100
3, 167424, Note_on_c, 1, 61, 80
3, 167424, Note_on_c, 1, 53, 80
3, 167608, Note_off_c, 1, 53, 100
3, 167616, Note_on_c, 1, 65, 80
3, 167800, Note_off_c, 1, 61, 100
3, 167800, Note_off_c, 1, 65, 100
3, 167808, Note_on_c, 1, 53, 80
3, 167992, Note_off_c, 1, 53, 100
3, 168000, Note_on_c, 1, 65, 80
3, 168184, Note_off_c, 1, 65, 100
3, 168192, Note_on_c, 1, 53, 80
3, 168376, Note_off_c, 1, 53, 100
3, 168384, Note_on_c, 1, 65, 80
3, 168568, Note_off_c, 1, 65, 100
3, 168576, Note_on_c, 1, 53, 80
3, 168760, Note_off_c, 1, 53, 100
3, 168768, Note_on_c, 1, 65, 80
3, 168952, Note_off_c, 1, 65, 100
3, 168960, Note_on_c, 1, 63, 80
3, 169144, Note_off_c, 1, 63, 100
3, 169152, Note_on_c, 1, 65, 80
3, 169336, Note_off_c, 1, 65, 100
3, 169344, Note_on_c, 1, 63, 80
3, 169528, Note_off_c, 1, 63, 100
3, 169536, Note_on_c, 1, 65, 80
3, 169720, Note_off_c, 1, 65, 100
3, 169728, Note_on_c, 1, 61, 80
3, 169912, Note_off_c, 1, 61, 100
3, 169920, Note_on_c, 1, 65, 81
3, 170104, Note_off_c, 1, 65, 100
3, 170112, Note_on_c, 1, 61, 83
3, 170296, Note_off_c, 1, 61, 100
3, 170304, Note_on_c, 1, 65, 85
3, 170488, Note_off_c, 1, 65, 100
3, 170496, Note_on_c, 1, 60, 87
3, 170680, Note_off_c, 1, 60, 100
3, 170688, Note_on_c, 1, 65, 89
3, 170872, Note_off_c, 1, 65, 100
3, 170880, Note_on_c, 1, 60, 91
3, 171064, Note_off_c, 1, 60, 100
3, 171072, Note_on_c, 1, 65, 93
3, 171256, Note_off_c, 1, 65, 100
3, 171264, Note_on_c, 1, 58, 94
3, 171448, Note_off_c, 1, 58, 100
3, 171456, Note_on_c, 1, 65, 96
3, 171640, Note_off_c, 1, 65, 100
3, 171648, Note_on_c, 1, 58, 98
3, 171832, Note_off_c, 1, 58, 100
3, 171840, Note_on_c, 1, 65, 100
3, 172024, Note_off_c, 1, 65, 100
3, 172032, Note_on_c, 1, 56, 102
3, 172216, Note_off_c, 1, 56, 100
3, 172224, Note_on_c, 1, 66, 104
3, 172408, Note_off_c, 1, 66, 100
3, 172416, Note_on_c, 1, 56, 106
3, 172600, Note_off_c, 1, 56, 100
3, 172608, Note_on_c, 1, 66, 108
3, 172792, Note_off_c, 1, 66, 100
3, 172800, Note_on_c, 1, 55, 109
3, 172984, Note_off_c, 1, 55, 100
3, 172992, Note_on_c, 1, 67, 80
3, 173176, Note_off_c, 1, 67, 100
3, 173184, Note_on_c, 1, 55, 80
3, 173368, Note_off_c, 1, 55, 100
3, 173376, Note_on_c, 1, 67, 80
3, 173560, Note_off_c, 1, 67, 100
3, 173568, Note_on_c, 1, 55, 80
3, 173752, Note_off_c, 1, 55, 100
3, 173760, Note_on_c, 1, 67, 80
3, 173944, Note_off_c, 1, 67, 100
3, 173952, Note_on_c, 1, 55, 80
3, 174136, Note_off_c, 1, 55, 100
3, 174144, Note_on_c, 1, 67, 80
3, 174328, Note_off_c, 1, 67, 100
3, 174336, Note_on_c, 1, 55, 80
3, 174520, Note_off_c, 1, 55, 100
3, 174528, Note_on_c, 1, 67, 80
3, 174712, Note_off_c, 1, 67, 100
3, 174720, Note_on_c, 1, 55, 80
3, 174904, Note_off_c, 1, 55, 100
3, 174912, Note_on_c, 1, 67, 80
3, 175096, Note_off_c, 1, 67, 100
3, 175104, Note_on_c, 1, 55, 80
3, 175288, Note_off_c, 1, 55, 100
3, 175296, Note_on_c, 1, 67, 80
3, 175480, Note_off_c, 1, 67, 100
3, 175488, Note_on_c, 1, 55, 80
3, 175672, Note_off_c, 1, 55, 100
3, 175680, Note_on_c, 1, 67, 80
3, 175864, Note_off_c, 1, 67, 100
3, 175872, Note_on_c, 1, 55, 80
3, 175872, Note_on_c, 1, 65, 80
3, 176248, Note_off_c, 1, 55, 100
3, 176256, Note_on_c, 1, 55, 80
3, 176632, Note_off_c, 1, 65, 100
3, 176632, Note_off_c, 1, 55, 100
3, 176640, Note_on_c, 1, 63, 80
3, 176640, Note_on_c, 1, 55, 80
3, 176824, Note_off_c, 1, 55, 100
3, 176832, Note_on_c, 1, 67, 80
3, 177016, Note_off_c, 1, 63, 100
3, 177016, Note_off_c, 1, 67, 100
3, 177024, Note_on_c, 1, 55, 80
3, 177208, Note_off_c, 1, 55, 100
3, 177216, Note_on_c, 1, 67, 80
3, 177400, Note_off_c, 1, 67, 100
3, 177408, Note_on_c, 1, 55, 80
3, 177592, Note_off_c, 1, 55, 100
3, 177600, Note_on_c, 1, 67, 80
3, 177784, Note_off_c, 1, 67, 100
3, 177792, Note_on_c, 1, 55, 80
3, 177976, Note_off_c, 1, 55, 100
3, 177984, Note_on_c, 1, 67, 80
3, 178168, Note_off_c, 1, 67, 100
3, 178176, Note_on_c, 1, 55, 80
3, 178360, Note_off_c, 1, 55, 100
3, 178368, Note_on_c, 1, 67, 80
3, 178552, Note_off_c, 1, 67, 100
3, 178560, Note_on_c, 1, 55, 80
3, 178744, Note_off_c, 1, 55, 100
3, 178752, Note_on_c, 1, 67, 80
3, 178936, Note_off_c, 1, 67, 100
3, 178944, Note_on_c, 1, 55, 80
3, 178944, Note_on_c, 1, 65, 80
3, 179320, Note_off_c, 1, 55, 100
3, 179328, Note_on_c, 1, 55, 80
3, 179704, Note_off_c, 1, 65, 100
3, 179704, Note_off_c, 1, 55, 100
3, 179712, Note_on_c, 1, 63, 80
3, 179712, Note_on_c, 1, 55, 80
3, 180088, Note_off_c, 1, 63, 100
3, 180088, Note_off_c, 1, 55, 100
3, 180096, Note_on_c, 1, 56, 80
3, 180472, Note_off_c, 1, 56, 100
3, 180480, Note_on_c, 1, 55, 80
3, 180856, Note_off_c, 1, 55, 100
3, 180864, Note_on_c, 1, 53, 80
3, 181240, Note_off_c, 1, 53, 100
3, 181248, Note_on_c, 1, 50, 80
3, 181624, Note_off_c, 1, 50, 100
3, 181632, Note_on_c, 1, 47, 80
3, 182008, Note_off_c, 1, 47, 100
3, 182016, Note_on_c, 1, 44, 104
3, 182584, Note_off_c, 1, 44, 100
3, 182592, Note_on_c, 1, 43, 80
3, 182776, Note_off_c, 1, 43, 100
3, 182784, Note_on_c, 1, 48, 80
3, 183160, Note_off_c, 1, 48, 100
3, 183168, Note_on_c, 1, 54, 80
3, 183544, Note_off_c, 1, 54, 100
3, 183552, Note_on_c, 1, 53, 80
3, 183928, Note_off_c, 1, 53, 100
3, 183936, Note_on_c, 1, 51, 80
3, 184312, Note_off_c, 1, 51, 100
3, 184320, Note_on_c, 1, 48, 80
3, 184696, Note_off_c, 1, 48, 100
3, 184704, Note_on_c, 1, 45, 80
3, 185080, Note_off_c, 1, 45, 100
3, 185088, Note_on_c, 1, 42, 101
3, 185656, Note_off_c, 1, 42, 100
3, 185664, Note_on_c, 1, 41, 80
3, 185848, Note_off_c, 1, 41, 100
3, 185856, Note_on_c, 1, 46, 80
3, 186232, Note_off_c, 1, 46, 100
3, 186240, Note_on_c, 1, 52, 80
3, 186616, Note_off_c, 1, 52, 100
3, 186624, Note_on_c, 1, 51, 80
3, 187000, Note_off_c, 1, 51, 100
3, 187008, Note_on_c, 1, 49, 80
3, 187384, Note_off_c, 1, 49, 100
3, 187392, Note_on_c, 1, 46, 80
3, 187768, Note_off_c, 1, 46, 100
3, 187776, Note_on_c, 1, 43, 80
3, 188152, Note_off_c, 1, 43, 100
3, 188160, Note_on_c, 1, 40, 80
3, 188536, Note_off_c, 1, 40, 100
3, 188544, Note_on_c, 1, 39, 80
3, 189304, Note_off_c, 1, 39, 100
3, 189312, Note_on_c, 1, 51, 108
3, 190072, Note_off_c, 1, 51, 100
3, 190080, Note_on_c, 1, 48, 80
3, 190840, Note_off_c, 1, 48, 100
3, 190848, Note_on_c, 1, 36, 80
3, 191608, Note_off_c, 1, 36, 100
3, 191616, Note_on_c, 1, 37, 80
3, 192376, Note_off_c, 1, 37, 100
3, 192384, Note_on_c, 1, 49, 105
3, 193144, Note_off_c, 1, 49, 100
3, 193152, Note_on_c, 1, 46, 80
3, 193912, Note_off_c, 1, 46, 100
3, 193920, Note_on_c, 1, 34, 80
3, 194680, Note_off_c, 1, 34, 100
3, 194688, Note_on_c, 1, 36, 80
3, 195448, Note_off_c, 1, 36, 100
3, 195456, Note_on_c, 1, 48, 104
3, 196216, Note_off_c, 1, 48, 100
3, 196224, Note_on_c, 1, 44, 80
3, 196984, Note_off_c, 1, 44, 100
3, 196992, Note_on_c, 1, 32, 80
3, 197368, Note_off_c, 1, 32, 100
3, 197760, Note_on_c, 1, 34, 80
3, 198520, Note_off_c, 1, 34, 100
3, 198528, Note_on_c, 1, 46, 80
3, 198904, Note_off_c, 1, 46, 100
3, 199296, Note_on_c, 1, 35, 95
3, 200056, Note_off_c, 1, 35, 100
3, 200064, Note_on_c, 1, 47, 107
3, 200440, Note_off_c, 1, 47, 100
3, 200448, Note_on_c, 1, 36, 110
3, 200632, Note_off_c, 1, 36, 100
3, 200640, Note_on_c, 1, 48, 100
3, 200824, Note_off_c, 1, 48, 100
3, 200832, Note_on_c, 1, 52, 100
3, 201016, Note_off_c, 1, 52, 100
3, 201024, Note_on_c, 1, 48, 100
3, 201208, Note_off_c, 1, 48, 100
3, 201216, Note_on_c, 1, 52, 100
3, 201400, Note_off_c, 1, 52, 100
3, 201408, Note_on_c, 1, 48, 100
3, 201592, Note_off_c, 1, 48, 100
3, 201600, Note_on_c, 1, 52, 100
3, 201784, Note_off_c, 1, 52, 100
3, 201792, Note_on_c, 1, 48, 100
3, 201976, Note_off_c, 1, 48, 100
3, 201984, Note_on_c, 1, 53, 100
3, 202168, Note_off_c, 1, 53, 100
3, 202176, Note_on_c, 1, 48, 100
3, 202360, Note_off_c, 1, 48, 100
3, 202368, Note_on_c, 1, 53, 100
3, 202552, Note_off_c, 1, 53, 100
3, 202560, Note_on_c, 1, 48, 100
3, 202744, Note_off_c, 1, 48, 100
3, 202752, Note_on_c, 1, 53, 100
3, 202936, Note_off_c, 1, 53, 100
3, 202944, Note_on_c, 1, 48, 100
3, 203128, Note_off_c, 1, 48, 100
3, 203136, Note_on_c, 1, 56, 100
3, 203320, Note_off_c, 1, 56, 100
3, 203328, Note_on_c, 1, 48, 100
3, 203512, Note_off_c, 1, 48, 100
3, 203520, Note_on_c, 1, 55, 100
3, 203704, Note_off_c, 1, 55, 100
3, 203712, Note_on_c, 1, 48, 100
3, 203896, Note_off_c, 1, 48, 100
3, 203904, Note_on_c, 1, 55, 100
3, 204088, Note_off_c, 1, 55, 100
3, 204096, Note_on_c, 1, 48, 100
3, 204280, Note_off_c, 1, 48, 100
3, 204288, Note_on_c, 1, 55, 100
3, 204472, Note_off_c, 1, 55, 100
3, 204480, Note_on_c, 1, 48, 100
3, 204664, Note_off_c, 1, 48, 100
3, 204672, Note_on_c, 1, 58, 100
3, 204856, Note_off_c, 1, 58, 100
3, 204864, Note_on_c, 1, 48, 100
3, 205048, Note_off_c, 1, 48, 100
3, 205056, Note_on_c, 1, 56, 100
3, 205240, Note_off_c, 1, 56, 100
3, 205248, Note_on_c, 1, 48, 100
3, 205432, Note_off_c, 1, 48, 100
3, 205440, Note_on_c, 1, 60, 100
3, 205624, Note_off_c, 1, 60, 100
3, 205632, Note_on_c, 1, 48, 100
3, 205816, Note_off_c, 1, 48, 100
3, 205824, Note_on_c, 1, 59, 100
3, 206008, Note_off_c, 1, 59, 100
3, 206016, Note_on_c, 1, 48, 100
3, 206200, Note_off_c, 1, 48, 100
3, 206208, Note_on_c, 1, 62, 100
3, 206392, Note_off_c, 1, 62, 100
3, 206400, Note_on_c, 1, 48, 100
3, 206584, Note_off_c, 1, 48, 100
3, 206592, Note_on_c, 1, 60, 100
3, 206776, Note_off_c, 1, 60, 100
3, 206784, Note_on_c, 1, 48, 100
3, 206968, Note_off_c, 1, 48, 100
3, 206976, Note_on_c, 1, 52, 100
3, 207160, Note_off_c, 1, 52, 100
3, 207168, Note_on_c, 1, 48, 100
3, 207352, Note_off_c, 1, 48, 100
3, 207360, Note_on_c, 1, 52, 100
3, 207544, Note_off_c, 1, 52, 100
3, 207552, Note_on_c, 1, 48, 100
3, 207736, Note_off_c, 1, 48, 100
3, 207744, Note_on_c, 1, 52, 100
3, 207928, Note_off_c, 1, 52, 100
3, 207936, Note_on_c, 1, 48, 100
3, 208120, Note_off_c, 1, 48, 100
3, 208128, Note_on_c, 1, 53, 100
3, 208312, Note_off_c, 1, 53, 100
3, 208320, Note_on_c, 1, 48, 100
3, 208504, Note_off_c, 1, 48, 100
3, 208512, Note_on_c, 1, 53, 100
3, 208696, Note_off_c, 1, 53, 100
3, 208704, Note_on_c, 1, 48, 100
3, 208888, Note_off_c, 1, 48, 100
3, 208896, Note_on_c, 1, 53, 100
3, 209080, Note_off_c, 1, 53, 100
3, 209088, Note_on_c, 1, 48, 100
3, 209272, Note_off_c, 1, 48, 100
3, 209280, Note_on_c, 1, 56, 100
3, 209464, Note_off_c, 1, 56, 100
3, 209472, Note_on_c, 1, 48, 100
3, 209656, Note_off_c, 1, 48, 100
3, 209664, Note_on_c, 1, 55, 100
3, 209848, Note_off_c, 1, 55, 100
3, 209856, Note_on_c, 1, 48, 100
3, 210040, Note_off_c, 1, 48, 100
3, 210048, Note_on_c, 1, 55, 100
3, 210232, Note_off_c, 1, 55, 100
3, 210240, Note_on_c, 1, 48, 100
3, 210424, Note_off_c, 1, 48, 100
3, 210432, Note_on_c, 1, 55, 100
3, 210616, Note_off_c, 1, 55, 100
3, 210624, Note_on_c, 1, 48, 100
3, 210808, Note_off_c, 1, 48, 100
3, 210816, Note_on_c, 1, 58, 100
3, 211000, Note_off_c, 1, 58, 100
3, 211008, Note_on_c, 1, 48, 100
3, 211192, Note_off_c, 1, 48, 100
3, 211200, Note_on_c, 1, 56, 100
3, 211384, Note_off_c, 1, 56, 100
3, 211392, Note_on_c, 1, 48, 100
3, 211576, Note_off_c, 1, 48, 100
3, 211584, Note_on_c, 1, 60, 100
3, 211768, Note_off_c, 1, 60, 100
3, 211776, Note_on_c, 1, 48, 100
3, 211960, Note_off_c, 1, 48, 100
3, 211968, Note_on_c, 1, 59, 100
3, 212152, Note_off_c, 1, 59, 100
3, 212160, Note_on_c, 1, 48, 100
3, 212344, Note_off_c, 1, 48, 100
3, 212352, Note_on_c, 1, 62, 100
3, 212536, Note_off_c, 1, 62, 100
3, 212544, Note_on_c, 1, 48, 100
3, 212728, Note_off_c, 1, 48, 100
3, 212736, Note_on_c, 1, 60, 100
3, 212920, Note_off_c, 1, 60, 100
3, 212928, Note_on_c, 1, 48, 100
3, 213112, Note_off_c, 1, 48, 100
3, 213120, Note_on_c, 1, 60, 100
3, 213304, Note_off_c, 1, 60, 100
3, 213312, Note_on_c, 1, 48, 100
3, 213496, Note_off_c, 1, 48, 100
3, 213504, Note_on_c, 1, 58, 100
3, 213688, Note_off_c, 1, 58, 100
3, 213696, Note_on_c, 1, 48, 100
3, 213880, Note_off_c, 1, 48, 100
3, 213888, Note_on_c, 1, 58, 100
3, 214072, Note_off_c, 1, 58, 100
3, 214080, Note_on_c, 1, 48, 100
3, 214264, Note_off_c, 1, 48, 100
3, 214272, Note_on_c, 1, 56, 100
3, 214456, Note_off_c, 1, 56, 100
3, 214464, Note_on_c, 1, 48, 100
3, 214648, Note_off_c, 1, 48, 100
3, 214656, Note_on_c, 1, 60, 100
3, 214840, Note_off_c, 1, 60, 100
3, 214848, Note_on_c, 1, 48, 100
3, 215032, Note_off_c, 1, 48, 100
3, 215040, Note_on_c, 1, 59, 100
3, 215224, Note_off_c, 1, 59, 100
3, 215232, Note_on_c, 1, 48, 100
3, 215416, Note_off_c, 1, 48, 100
3, 215424, Note_on_c, 1, 62, 100
3, 215608, Note_off_c, 1, 62, 100
3, 215616, Note_on_c, 1, 48, 99
3, 215800, Note_off_c, 1, 48, 100
3, 215808, Note_on_c, 1, 60, 97
3, 215992, Note_off_c, 1, 60, 100
3, 216000, Note_on_c, 1, 48, 95
3, 216184, Note_off_c, 1, 48, 100
3, 216192, Note_on_c, 1, 60, 93
3, 216376, Note_off_c, 1, 60, 100
3, 216384, Note_on_c, 1, 48, 92
3, 216568, Note_off_c, 1, 48, 100
3, 216576, Note_on_c, 1, 58, 90
3, 216760, Note_off_c, 1, 58, 100
3, 216768, Note_on_c, 1, 48, 88
3, 216952, Note_off_c, 1, 48, 100
3, 216960, Note_on_c, 1, 58, 86
3, 217144, Note_off_c, 1, 58, 100
3, 217152, Note_on_c, 1, 48, 85
3, 217336, Note_off_c, 1, 48, 100
3, 217344, Note_on_c, 1, 56, 83
3, 217528, Note_off_c, 1, 56, 100
3, 217536, Note_on_c, 1, 48, 81
3, 217720, Note_off_c, 1, 48, 100
3, 217728, Note_on_c, 1, 60, 79
3, 217912, Note_off_c, 1, 60, 100
3, 217920, Note_on_c, 1, 48, 78
3, 218104, Note_off_c, 1, 48, 100
3, 218112, Note_on_c, 1, 59, 76
3, 218296, Note_off_c, 1, 59, 100
3, 218304, Note_on_c, 1, 48, 74
3, 218488, Note_off_c, 1, 48, 100
3, 218496, Note_on_c, 1, 62, 72
3, 218680, Note_off_c, 1, 62, 100
3, 218688, Note_on_c, 1, 48, 71
3, 218872, Note_off_c, 1, 48, 100
3, 218880, Note_on_c, 1, 60, 70
3, 219256, Note_off_c, 1, 60, 100
3, 219264, Note_on_c, 1, 60, 70
3, 219640, Note_off_c, 1, 60, 100
3, 219648, Note_on_c, 1, 60, 70
3, 220024, Note_off_c, 1, 60, 100
3, 220032, Note_on_c, 1, 60, 70
3, 220408, Note_off_c, 1, 60, 100
3, 220416, Note_on_c, 1, 60, 70
3, 220792, Note_off_c, 1, 60, 100
3, 220800, Note_on_c, 1, 60, 70
3, 221176, Note_off_c, 1, 60, 100
3, 221184, Note_on_c, 1, 60, 70
3, 221560, Note_off_c, 1, 60, 100
3, 221568, Note_on_c, 1, 60, 70
3, 221944, Note_off_c, 1, 60, 100
3, 221952, Note_on_c, 1, 60, 70
3, 221952, Note_on_c, 1, 61, 70
3, 222328, Note_off_c, 1, 60, 100
3, 222328, Note_off_c, 1, 61, 100
3, 222336, Note_on_c, 1, 60, 70
3, 222336, Note_on_c, 1, 61, 70
3, 222712, Note_off_c, 1, 60, 100
3, 222712, Note_off_c, 1, 61, 100
3, 222720, Note_on_c, 1, 60, 70
3, 222720, Note_on_c, 1, 61, 70
3, 223096, Note_off_c, 1, 60, 100
3, 223096, Note_off_c, 1, 61, 100
3, 223104, Note_on_c, 1, 60, 70
3, 223104, Note_on_c, 1, 61, 70
3, 223480, Note_off_c, 1, 60, 100
3, 223480, Note_off_c, 1, 61, 100
3, 223488, Note_on_c, 1, 58, 70
3, 223488, Note_on_c, 1, 61, 70
3, 223864, Note_off_c, 1, 58, 100
3, 223864, Note_off_c, 1, 61, 100
3, 223872, Note_on_c, 1, 58, 70
3, 223872, Note_on_c, 1, 61, 70
3, 224248, Note_off_c, 1, 58, 100
3, 224248, Note_off_c, 1, 61, 100
3, 224256, Note_on_c, 1, 58, 70
3, 224256, Note_on_c, 1, 61, 70
3, 224632, Note_off_c, 1, 58, 100
3, 224632, Note_off_c, 1, 61, 100
3, 224640, Note_on_c, 1, 58, 70
3, 224640, Note_on_c, 1, 61, 70
3, 225016, Note_off_c, 1, 58, 100
3, 225016, Note_off_c, 1, 61, 100
3, 225024, Note_on_c, 1, 58, 70
3, 225024, Note_on_c, 1, 60, 70
3, 225400, Note_off_c, 1, 58, 100
3, 225400, Note_off_c, 1, 60, 100
3, 225408, Note_on_c, 1, 58, 71
3, 225408, Note_on_c, 1, 60, 71
3, 225784, Note_off_c, 1, 58, 100
3, 225784, Note_off_c, 1, 60, 100
3, 225792, Note_on_c, 1, 58, 73
3, 225792, Note_on_c, 1, 60, 73
3, 226168, Note_off_c, 1, 58, 100
3, 226168, Note_off_c, 1, 60, 100
3, 226176, Note_on_c, 1, 58, 75
3, 226176, Note_on_c, 1, 60, 75
3, 226552, Note_off_c, 1, 58, 100
3, 226552, Note_off_c, 1, 60, 100
3, 226560, Note_on_c, 1, 56, 77
3, 226560, Note_on_c, 1, 60, 77
3, 226936, Note_off_c, 1, 56, 100
3, 226936, Note_off_c, 1, 60, 100
3, 226944, Note_on_c, 1, 56, 79
3, 226944, Note_on_c, 1, 60, 79
3, 227320, Note_off_c, 1, 56, 100
3, 227320, Note_off_c, 1, 60, 100
3, 227328, Note_on_c, 1, 56, 81
3, 227328, Note_on_c, 1, 60, 81
3, 227704, Note_off_c, 1, 56, 100
3, 227704, Note_off_c, 1, 60, 100
3, 227712, Note_on_c, 1, 56, 83
3, 227712, Note_on_c, 1, 60, 83
3, 228088, Note_off_c, 1, 56, 100
3, 228088, Note_off_c, 1, 60, 100
3, 228096, Note_on_c, 1, 56, 85
3, 228096, Note_on_c, 1, 58, 85
3, 228472, Note_off_c, 1, 56, 100
3, 228472, Note_off_c, 1, 58, 100
3, 228480, Note_on_c, 1, 56, 87
3, 228480, Note_on_c, 1, 58, 87
3, 228856, Note_off_c, 1, 56, 100
3, 228856, Note_off_c, 1, 58, 100
3, 228864, Note_on_c, 1, 56, 89
3, 228864, Note_on_c, 1, 58, 89
3, 229240, Note_off_c, 1, 56, 100
3, 229240, Note_off_c, 1, 58, 100
3, 229248, Note_on_c, 1, 56, 91
3, 229248, Note_on_c, 1, 58, 91
3, 229624, Note_off_c, 1, 56, 100
3, 229624, Note_off_c, 1, 58, 100
3, 229632, Note_on_c, 1, 55, 93
3, 229632, Note_on_c, 1, 58, 93
3, 229632, Note_on_c, 1, 64, 93
3, 230008, Note_off_c, 1, 55, 100
3, 230008, Note_off_c, 1, 58, 100
3, 230008, Note_off_c, 1, 64, 100
3, 230016, Note_on_c, 1, 55, 95
3, 230016, Note_on_c, 1, 58, 95
3, 230016, Note_on_c, 1, 64, 95
3, 230392, Note_off_c, 1, 55, 100
3, 230392, Note_off_c, 1, 58, 100
3, 230392, Note_off_c, 1, 64, 100
3, 230400, Note_on_c, 1, 55, 97
3, 230400, Note_on_c, 1, 58, 97
3, 230400, Note_on_c, 1, 64, 97
3, 230776, Note_off_c, 1, 55, 100
3, 230776, Note_off_c, 1, 58, 100
3, 230776, Note_off_c, 1, 64, 100
3, 230784, Note_on_c, 1, 55, 98
3, 230784, Note_on_c, 1, 58, 98
3, 230784, Note_on_c, 1, 64, 98
3, 231160, Note_off_c, 1, 55, 100
3, 231160, Note_off_c, 1, 58, 100
3, 231160, Note_off_c, 1, 64, 100
3, 231168, Note_on_c, 1, 60, 115
3, 231168, Note_on_c, 1, 56, 115
3, 231168, Note_on_c, 1, 53, 115
3, 231544, Note_off_c, 1, 60, 100
3, 231544, Note_off_c, 1, 56, 100
3, 231544, Note_off_c, 1, 53, 100
3, 233088, Note_on_c, 1, 60, 115
3, 233088, Note_on_c, 1, 56, 115
3, 233088, Note_on_c, 1, 53, 115
3, 233464, Note_off_c, 1, 60, 100
3, 233464, Note_off_c, 1, 56, 100
3, 233464, Note_off_c, 1, 53, 100
3, 233472, Note_on_c, 1, 60, 115
3, 233472, Note_on_c, 1, 56, 115
3, 233472, Note_on_c, 1, 53, 115
3, 233848, Note_off_c, 1, 60, 100
3, 233848, Note_off_c, 1, 56, 100
3, 233848, Note_off_c, 1, 53, 100
3, 233856, Note_on_c, 1, 60, 115
3, 233856, Note_on_c, 1, 56, 115
3, 233856, Note_on_c, 1, 53, 115
3, 234232, Note_off_c, 1, 60, 100
3, 234232, Note_off_c, 1, 56, 100
3, 234232, Note_off_c, 1, 53, 100
3, 234240, Note_on_c, 1, 60, 115
3, 234240, Note_on_c, 1, 58, 115
3, 234240, Note_on_c, 1, 52, 115
3, 234240, Note_on_c, 1, 55, 115
3, 234616, Note_off_c, 1, 60, 100
3, 234616, Note_off_c, 1, 58, 100
3, 234616, Note_off_c, 1, 52, 100
3, 234616, Note_off_c, 1, 55, 100
3, 236160, Note_on_c, 1, 60, 115
3, 236160, Note_on_c, 1, 58, 115
3, 236160, Note_on_c, 1, 52, 115
3, 236160, Note_on_c, 1, 55, 115
3, 236536, Note_off_c, 1, 60, 100
3, 236536, Note_off_c, 1, 58, 100
3, 236536, Note_off_c, 1, 52, 100
3, 236536, Note_off_c, 1, 55, 100
3, 236544, Note_on_c, 1, 60, 115
3, 236544, Note_on_c, 1, 58, 115
3, 236544, Note_on_c, 1, 52, 115
3, 236544, Note_on_c, 1, 55, 115
3, 236920, Note_off_c, 1, 60, 100
3, 236920, Note_off_c, 1, 58, 100
3, 236920, Note_off_c, 1, 52, 100
3, 236920, Note_off_c, 1, 55, 100
3, 236928, Note_on_c, 1, 60, 115
3, 236928, Note_on_c, 1, 58, 115
3, 236928, Note_on_c, 1, 52, 115
3, 236928, Note_on_c, 1, 55, 115
3, 237304, Note_off_c, 1, 60, 100
3, 237304, Note_off_c, 1, 58, 100
3, 237304, Note_off_c, 1, 52, 100
3, 237304, Note_off_c, 1, 55, 100
3, 237312, Note_on_c, 1, 60, 115
3, 237312, Note_on_c, 1, 56, 115
3, 237312, Note_on_c, 1, 53, 115
3, 238072, Note_off_c, 1, 60, 100
3, 238072, Note_off_c, 1, 56, 100
3, 238072, Note_off_c, 1, 53, 100
3, 238848, Note_on_c, 1, 55, 115
3, 238848, Note_on_c, 1, 58, 115
3, 238848, Note_on_c, 1, 64, 115
3, 239608, Note_off_c, 1, 55, 100
3, 239608, Note_off_c, 1, 58, 100
3, 239608, Note_off_c, 1, 64, 100
3, 240384, Note_on_c, 1, 56, 120
3, 240384, Note_on_c, 1, 60, 120
3, 240384, Note_on_c, 1, 65, 120
3, 240760, Note_off_c, 1, 56, 100
3, 240760, Note_off_c, 1, 60, 100
3, 240760, Note_off_c, 1, 65, 100
3, 241152, Note_on_c, 1, 58, 115
3, 241152, Note_on_c, 1, 61, 115
3, 241152, Note_on_c, 1, 67, 115
3, 241528, Note_off_c, 1, 58, 100
3, 241528, Note_off_c, 1, 61, 100
3, 241528, Note_off_c, 1, 67, 100
3, 241920, Note_on_c, 1, 60, 110
3, 241920, Note_on_c, 1, 67, 110
3, 242296, Note_off_c, 1, 60, 100
3, 242296, Note_off_c, 1, 67, 100
3, 243072, Note_on_c, 1, 67, 80
3, 243072, Note_on_c, 1, 60, 80
3, 243832, Note_off_c, 1, 60, 100
3, 243832, Note_off_c, 1, 67, 100
3, 244608, Note_on_c, 1, 48, 80
3, 244984, Note_off_c, 1, 48, 100
3, 244992, Note_on_c, 1, 53, 80
3, 245368, Note_off_c, 1, 53, 100
3, 245376, Note_on_c, 1, 56, 80
3, 245752, Note_off_c, 1, 56, 100
3, 245760, Note_on_c, 1, 60, 80
3, 246136, Note_off_c, 1, 60, 100
3, 246144, Note_on_c, 1, 65, 80
3, 246520, Note_off_c, 1, 65, 100
3, 246528, Note_on_c, 1, 68, 80
3, 247096, Note_off_c, 1, 68, 100
3, 247104, Note_on_c, 1, 67, 80
3, 247168, Note_on_c, 1, 65, 80
3, 247224, Note_off_c, 1, 67, 100
3, 247232, Note_on_c, 1, 64, 80
3, 247288, Note_off_c, 1, 65, 100
3, 247296, Note_on_c, 1, 65, 80
3, 247352, Note_off_c, 1, 64, 100
3, 247672, Note_off_c, 1, 65, 100
3, 247680, Note_on_c, 1, 65, 80
3, 248056, Note_off_c, 1, 65, 100
3, 248064, Note_on_c, 1, 65, 80
3, 248064, Note_on_c, 1, 66, 80
3, 249592, Note_off_c, 1, 65, 100
3, 249592, Note_off_c, 1, 66, 100
3, 249600, Note_on_c, 1, 63, 80
3, 249600, Note_on_c, 1, 66, 80
3, 251128, Note_off_c, 1, 63, 100
3, 251128, Note_off_c, 1, 66, 100
3, 251136, Note_on_c, 1, 63, 80
3, 251136, Note_on_c, 1, 69, 80
3, 252664, Note_off_c, 1, 63, 100
3, 252664, Note_off_c, 1, 69, 100
3, 252672, Note_on_c, 1, 61, 80
3, 252672, Note_on_c, 1, 65, 80
3, 254200, Note_off_c, 1, 61, 100
3, 254200, Note_off_c, 1, 65, 100
3, 254208, Note_on_c, 1, 62, 80
3, 254208, Note_on_c, 1, 65, 80
3, 255352, Note_off_c, 1, 65, 100
3, 255360, Note_on_c, 1, 64, 80
3, 255736, Note_off_c, 1, 64, 100
3, 255744, Note_on_c, 1, 65, 80
3, 256120, Note_off_c, 1, 65, 100
3, 256128, Note_on_c, 1, 67, 80
3, 256504, Note_off_c, 1, 67, 100
3, 256512, Note_on_c, 1, 68, 80
3, 256888, Note_off_c, 1, 68, 100
3, 256896, Note_on_c, 1, 65, 80
3, 257272, Note_off_c, 1, 62, 100
3, 257272, Note_off_c, 1, 65, 100
3, 257280, Note_on_c, 1, 60, 80
3, 257280, Note_on_c, 1, 64, 80
3, 257656, Note_off_c, 1, 64, 100
3, 257664, Note_on_c, 1, 67, 83
3, 258040, Note_off_c, 1, 67, 100
3, 258048, Note_on_c, 1, 65, 86
3, 258424, Note_off_c, 1, 65, 100
3, 258432, Note_on_c, 1, 64, 89
3, 258808, Note_off_c, 1, 64, 100
3, 258816, Note_on_c, 1, 65, 90
3, 259192, Note_off_c, 1, 65, 100
3, 259200, Note_on_c, 1, 70, 87
3, 259576, Note_off_c, 1, 60, 100
3, 259576, Note_off_c, 1, 70, 100
3, 259584, Note_on_c, 1, 68, 84
3, 259584, Note_on_c, 1, 61, 84
3, 259960, Note_off_c, 1, 68, 100
3, 259968, Note_on_c, 1, 65, 81
3, 260344, Note_off_c, 1, 61, 100
3, 260344, Note_off_c, 1, 65, 100
3, 260352, Note_on_c, 1, 48, 100
3, 260536, Note_off_c, 1, 48, 100
3, 260544, Note_on_c, 1, 60, 80
3, 260728, Note_off_c, 1, 60, 100
3, 260736, Note_on_c, 1, 48, 80
3, 260920, Note_off_c, 1, 48, 100
3, 260928, Note_on_c, 1, 60, 80
3, 261112, Note_off_c, 1, 60, 100
3, 261120, Note_on_c, 1, 48, 80
3, 261304, Note_off_c, 1, 48, 100
3, 261312, Note_on_c, 1, 60, 80
3, 261496, Note_off_c, 1, 60, 100
3, 261504, Note_on_c, 1, 48, 80
3, 261688, Note_off_c, 1, 48, 100
3, 261696, Note_on_c, 1, 60, 80
3, 261880, Note_off_c, 1, 60, 100
3, 261888, Note_on_c, 1, 48, 80
3, 262072, Note_off_c, 1, 48, 100
3, 262080, Note_on_c, 1, 60, 80
3, 262264, Note_off_c, 1, 60, 100
3, 262272, Note_on_c, 1, 48, 80
3, 262456, Note_off_c, 1, 48, 100
3, 262464, Note_on_c, 1, 60, 80
3, 262648, Note_off_c, 1, 60, 100
3, 262656, Note_on_c, 1, 48, 80
3, 262840, Note_off_c, 1, 48, 100
3, 262848, Note_on_c, 1, 60, 80
3, 263032, Note_off_c, 1, 60, 100
3, 263040, Note_on_c, 1, 48, 80
3, 263224, Note_off_c, 1, 48, 100
3, 263232, Note_on_c, 1, 60, 80
3, 263416, Note_off_c, 1, 60, 100
3, 263424, Note_on_c, 1, 58, 80
3, 263424, Note_on_c, 1, 48, 80
3, 263800, Note_off_c, 1, 48, 100
3, 263808, Note_on_c, 1, 48, 80
3, 264184, Note_off_c, 1, 58, 100
3, 264184, Note_off_c, 1, 48, 100
3, 264192, Note_on_c, 1, 56, 80
3, 264192, Note_on_c, 1, 48, 80
3, 264376, Note_off_c, 1, 48, 100
3, 264384, Note_on_c, 1, 60, 80
3, 264568, Note_off_c, 1, 56, 100
3, 264568, Note_off_c, 1, 60, 100
3, 264576, Note_on_c, 1, 48, 80
3, 264760, Note_off_c, 1, 48, 100
3, 264768, Note_on_c, 1, 60, 80
3, 264952, Note_off_c, 1, 60, 100
3, 264960, Note_on_c, 1, 48, 80
3, 265144, Note_off_c, 1, 48, 100
3, 265152, Note_on_c, 1, 60, 80
3, 265336, Note_off_c, 1, 60, 100
3, 265344, Note_on_c, 1, 48, 80
3, 265528, Note_off_c, 1, 48, 100
3, 265536, Note_on_c, 1, 60, 80
3, 265720, Note_off_c, 1, 60, 100
3, 265728, Note_on_c, 1, 48, 80
3, 265912, Note_off_c, 1, 48, 100
3, 265920, Note_on_c, 1, 60, 80
3, 266104, Note_off_c, 1, 60, 100
3, 266112, Note_on_c, 1, 48, 80
3, 266296, Note_off_c, 1, 48, 100
3, 266304, Note_on_c, 1, 60, 80
3, 266488, Note_off_c, 1, 60, 100
3, 266496, Note_on_c, 1, 58, 80
3, 266496, Note_on_c, 1, 48, 80
3, 266872, Note_off_c, 1, 48, 100
3, 266880, Note_on_c, 1, 48, 80
3, 267256, Note_off_c, 1, 58, 100
3, 267256, Note_off_c, 1, 48, 100
3, 267264, Note_on_c, 1, 56, 80
3, 267264, Note_on_c, 1, 48, 80
3, 267448, Note_off_c, 1, 48, 100
3, 267456, Note_on_c, 1, 60, 80
3, 267640, Note_off_c, 1, 56, 100
3, 267640, Note_off_c, 1, 60, 100
3, 267648, Note_on_c, 1, 48, 80
3, 267832, Note_off_c, 1, 48, 100
3, 267840, Note_on_c, 1, 60, 80
3, 268024, Note_off_c, 1, 60, 100
3, 268032, Note_on_c, 1, 48, 80
3, 268216, Note_off_c, 1, 48, 100
3, 268224, Note_on_c, 1, 60, 80
3, 268408, Note_off_c, 1, 60, 100
3, 268416, Note_on_c, 1, 48, 80
3, 268600, Note_off_c, 1, 48, 100
3, 268608, Note_on_c, 1, 60, 80
3, 268792, Note_off_c, 1, 60, 100
3, 268800, Note_on_c, 1, 58, 80
3, 268984, Note_off_c, 1, 58, 100
3, 268992, Note_on_c, 1, 60, 80
3, 269176, Note_off_c, 1, 60, 100
3, 269184, Note_on_c, 1, 58, 80
3, 269368, Note_off_c, 1, 58, 100
3, 269376, Note_on_c, 1, 60, 80
3, 269560, Note_off_c, 1, 60, 100
3, 269568, Note_on_c, 1, 56, 80
3, 269752, Note_off_c, 1, 56, 100
3, 269760, Note_on_c, 1, 65, 80
3, 269944, Note_off_c, 1, 65, 100
3, 269952, Note_on_c, 1, 60, 80
3, 270136, Note_off_c, 1, 60, 100
3, 270144, Note_on_c, 1, 65, 80
3, 270328, Note_off_c, 1, 65, 100
3, 270336, Note_on_c, 1, 55, 80
3, 270520, Note_off_c, 1, 55, 100
3, 270528, Note_on_c, 1, 64, 80
3, 270712, Note_off_c, 1, 64, 100
3, 270720, Note_on_c, 1, 58, 80
3, 270904, Note_off_c, 1, 58, 100
3, 270912, Note_on_c, 1, 64, 80
3, 271096, Note_off_c, 1, 64, 100
3, 271104, Note_on_c, 1, 53, 80
3, 271288, Note_off_c, 1, 53, 100
3, 271296, Note_on_c, 1, 60, 80
3, 271480, Note_off_c, 1, 60, 100
3, 271488, Note_on_c, 1, 56, 80
3, 271672, Note_off_c, 1, 56, 100
3, 271680, Note_on_c, 1, 60, 80
3, 271864, Note_off_c, 1, 60, 100
3, 271872, Note_on_c, 1, 49, 80
3, 272056, Note_off_c, 1, 49, 100
3, 272064, Note_on_c, 1, 59, 80
3, 272248, Note_off_c, 1, 59, 100
3, 272256, Note_on_c, 1, 53, 80
3, 272440, Note_off_c, 1, 53, 100
3, 272448, Note_on_c, 1, 59, 80
3, 272632, Note_off_c, 1, 59, 100
3, 272640, Note_on_c, 1, 48, 80
3, 272824, Note_off_c, 1, 48, 100
3, 272832, Note_on_c, 1, 60, 80
3, 273016, Note_off_c, 1, 60, 100
3, 273024, Note_on_c, 1, 52, 80
3, 273208, Note_off_c, 1, 52, 100
3, 273216, Note_on_c, 1, 60, 80
3, 273400, Note_off_c, 1, 60, 100
3, 273408, Note_on_c, 1, 49, 80
3, 273592, Note_off_c, 1, 49, 100
3, 273600, Note_on_c, 1, 59, 80
3, 273784, Note_off_c, 1, 59, 100
3, 273792, Note_on_c, 1, 53, 80
3, 273976, Note_off_c, 1, 53, 100
3, 273984, Note_on_c, 1, 59, 80
3, 274168, Note_off_c, 1, 59, 100
3, 274176, Note_on_c, 1, 48, 80
3, 274360, Note_off_c, 1, 48, 100
3, 274368, Note_on_c, 1, 60, 80
3, 274552, Note_off_c, 1, 60, 100
3, 274560, Note_on_c, 1, 52, 80
3, 274744, Note_off_c, 1, 52, 100
3, 274752, Note_on_c, 1, 60, 80
3, 274936, Note_off_c, 1, 60, 100
3, 274944, Note_on_c, 1, 46, 80
3, 275128, Note_off_c, 1, 46, 100
3, 275136, Note_on_c, 1, 55, 80
3, 275320, Note_off_c, 1, 55, 100
3, 275328, Note_on_c, 1, 49, 80
3, 275512, Note_off_c, 1, 49, 100
3, 275520, Note_on_c, 1, 55, 80
3, 275704, Note_off_c, 1, 55, 100
3, 275712, Note_on_c, 1, 44, 80
3, 275896, Note_off_c, 1, 44, 100
3, 275904, Note_on_c, 1, 53, 80
3, 276088, Note_off_c, 1, 53, 100
3, 276096, Note_on_c, 1, 48, 80
3, 276280, Note_off_c, 1, 48, 100
3, 276288, Note_on_c, 1, 53, 80
3, 276472, Note_off_c, 1, 53, 100
3, 276480, Note_on_c, 1, 46, 80
3, 276664, Note_off_c, 1, 46, 100
3, 276672, Note_on_c, 1, 55, 80
3, 276856, Note_off_c, 1, 55, 100
3, 276864, Note_on_c, 1, 49, 80
3, 277048, Note_off_c, 1, 49, 100
3, 277056, Note_on_c, 1, 55, 80
3, 277240, Note_off_c, 1, 55, 100
3, 277248, Note_on_c, 1, 44, 80
3, 277432, Note_off_c, 1, 44, 100
3, 277440, Note_on_c, 1, 53, 81
3, 277624, Note_off_c, 1, 53, 100
3, 277632, Note_on_c, 1, 48, 83
3, 277816, Note_off_c, 1, 48, 100
3, 277824, Note_on_c, 1, 53, 85
3, 278008, Note_off_c, 1, 53, 100
3, 278016, Note_on_c, 1, 40, 87
3, 278200, Note_off_c, 1, 40, 100
3, 278208, Note_on_c, 1, 52, 89
3, 278392, Note_off_c, 1, 52, 100
3, 278400, Note_on_c, 1, 48, 91
3, 278584, Note_off_c, 1, 48, 100
3, 278592, Note_on_c, 1, 52, 93
3, 278776, Note_off_c, 1, 52, 100
3, 278784, Note_on_c, 1, 41, 95
3, 278968, Note_off_c, 1, 41, 100
3, 278976, Note_on_c, 1, 53, 97
3, 279160, Note_off_c, 1, 53, 100
3, 279168, Note_on_c, 1, 48, 99
3, 279352, Note_off_c, 1, 48, 100
3, 279360, Note_on_c, 1, 53, 101
3, 279544, Note_off_c, 1, 53, 100
3, 279552, Note_on_c, 1, 43, 103
3, 279736, Note_off_c, 1, 43, 100
3, 279744, Note_on_c, 1, 55, 105
3, 279928, Note_off_c, 1, 55, 100
3, 279936, Note_on_c, 1, 48, 107
3, 280120, Note_off_c, 1, 48, 100
3, 280128, Note_on_c, 1, 55, 109
3, 280312, Note_off_c, 1, 55, 100
3, 280320, Note_on_c, 1, 44, 120
3, 280696, Note_off_c, 1, 44, 100
3, 280704, Note_on_c, 1, 48, 120
3, 281464, Note_off_c, 1, 48, 100
3, 281472, Note_on_c, 1, 53, 120
3, 281848, Note_off_c, 1, 53, 100
3, 281856, Note_on_c, 1, 46, 120
3, 282232, Note_off_c, 1, 46, 100
3, 282240, Note_on_c, 1, 49, 120
3, 283000, Note_off_c, 1, 49, 100
3, 283008, Note_on_c, 1, 55, 120
3, 283384, Note_off_c, 1, 55, 100
3, 283392, Note_on_c, 1, 48, 110
3, 283768, Note_off_c, 1, 48, 100
3, 283776, Note_on_c, 1, 53, 110
3, 284536, Note_off_c, 1, 53, 100
3, 284544, Note_on_c, 1, 56, 110
3, 284920, Note_off_c, 1, 56, 100
3, 284928, Note_on_c, 1, 58, 80
3, 285304, Note_off_c, 1, 58, 100
3, 285312, Note_on_c, 1, 55, 80
3, 285688, Note_off_c, 1, 55, 100
3, 285696, Note_on_c, 1, 52, 80
3, 286072, Note_off_c, 1, 52, 100
3, 286080, Note_on_c, 1, 46, 80
3, 286456, Note_off_c, 1, 46, 100
3, 286464, Note_on_c, 1, 44, 120
3, 286840, Note_off_c, 1, 44, 100
3, 286848, Note_on_c, 1, 48, 120
3, 287608, Note_off_c, 1, 48, 100
3, 287616, Note_on_c, 1, 53, 120
3, 287992, Note_off_c, 1, 53, 100
3, 288000, Note_on_c, 1, 46, 120
3, 288376, Note_off_c, 1, 46, 100
3, 288384, Note_on_c, 1, 49, 120
3, 289144, Note_off_c, 1, 49, 100
3, 289152, Note_on_c, 1, 55, 120
3, 289528, Note_off_c, 1, 55, 100
3, 289536, Note_on_c, 1, 48, 100
3, 289912, Note_off_c, 1, 48, 100
3, 289920, Note_on_c, 1, 53, 100
3, 290680, Note_off_c, 1, 53, 100
3, 290688, Note_on_c, 1, 56, 100
3, 291064, Note_off_c, 1, 56, 100
3, 291456, Note_on_c, 1, 36, 80
3, 291832, Note_off_c, 1, 36, 100
3, 291840, Note_on_c, 1, 36, 80
3, 292216, Note_off_c, 1, 36, 100
3, 292224, Note_on_c, 1, 36, 80
3, 292600, Note_off_c, 1, 36, 100
3, 292608, Note_on_c, 1, 41, 80
3, 292984, Note_off_c, 1, 41, 100
3, 292992, Note_on_c, 1, 53, 80
3, 293368, Note_off_c, 1, 53, 100
3, 293760, Note_on_c, 1, 59, 81
3, 293760, Note_on_c, 1, 53, 81
3, 293760, Note_on_c, 1, 49, 81
3, 294136, Note_off_c, 1, 59, 100
3, 294136, Note_off_c, 1, 53, 100
3, 294136, Note_off_c, 1, 49, 100
3, 294528, Note_on_c, 1, 60, 83
3, 294528, Note_on_c, 1, 56, 83
3, 294528, Note_on_c, 1, 53, 83
3, 294528, Note_on_c, 1, 48, 83
3, 294904, Note_off_c, 1, 60, 100
3, 294904, Note_off_c, 1, 56, 100
3, 294904, Note_off_c, 1, 53, 100
3, 294904, Note_off_c, 1, 48, 100
3, 295296, Note_on_c, 1, 58, 85
3, 295296, Note_on_c, 1, 55, 85
3, 295296, Note_on_c, 1, 48, 85
3, 295672, Note_off_c, 1, 58, 100
3, 295672, Note_off_c, 1, 55, 100
3, 295672, Note_off_c, 1, 48, 100
3, 296064, Note_on_c, 1, 56, 87
3, 296064, Note_on_c, 1, 53, 87
3, 296440, Note_off_c, 1, 56, 100
3, 296440, Note_off_c, 1, 53, 100
3, 296832, Note_on_c, 1, 59, 88
3, 296832, Note_on_c, 1, 53, 88
3, 296832, Note_on_c, 1, 49, 88
3, 297208, Note_off_c, 1, 59, 100
3, 297208, Note_off_c, 1, 53, 100
3, 297208, Note_off_c, 1, 49, 100
3, 297600, Note_on_c, 1, 60, 90
3, 297600, Note_on_c, 1, 56, 90
3, 297600, Note_on_c, 1, 53, 90
3, 297600, Note_on_c, 1, 48, 90
3, 297976, Note_off_c, 1, 60, 100
3, 297976, Note_off_c, 1, 56, 100
3, 297976, Note_off_c, 1, 53, 100
3, 297976, Note_off_c, 1, 48, 100
3, 298368, Note_on_c, 1, 58, 92
3, 298368, Note_on_c, 1, 55, 92
3, 298368, Note_on_c, 1, 48, 92
3, 298744, Note_off_c, 1, 58, 100
3, 298744, Note_off_c, 1, 55, 100
3, 298744, Note_off_c, 1, 48, 100
3, 299136, Note_on_c, 1, 56, 94
3, 299136, Note_on_c, 1, 53, 94
3, 299512, Note_off_c, 1, 56, 100
3, 299512, Note_off_c, 1, 53, 100
3, 299904, Note_on_c, 1, 71, 95
3, 299904, Note_on_c, 1, 65, 95
3, 299904, Note_on_c, 1, 61, 95
3, 299904, Note_on_c, 1, 68, 95
3, 300280, Note_off_c, 1, 71, 100
3, 300280, Note_off_c, 1, 65, 100
3, 300280, Note_off_c, 1, 61, 100
3, 300280, Note_off_c, 1, 68, 100
3, 300672, Note_on_c, 1, 72, 97
3, 300672, Note_on_c, 1, 68, 97
3, 300672, Note_on_c, 1, 65, 97
3, 300672, Note_on_c, 1, 60, 97
3, 301048, Note_off_c, 1, 72, 100
3, 301048, Note_off_c, 1, 68, 100
3, 301048, Note_off_c, 1, 65, 100
3, 301048, Note_off_c, 1, 60, 100
3, 301440, Note_on_c, 1, 67, 99
3, 301440, Note_on_c, 1, 58, 99
3, 301440, Note_on_c, 1, 60, 99
3, 301816, Note_off_c, 1, 67, 100
3, 301816, Note_off_c, 1, 58, 100
3, 301816, Note_off_c, 1, 60, 100
3, 301824, Note_on_c, 1, 65, 120
3, 301824, Note_on_c, 1, 60, 120
3, 301824, Note_on_c, 1, 57, 120
3, 303352, Note_off_c, 1, 65, 100
3, 303352, Note_off_c, 1, 60, 100
3, 303352, Note_off_c, 1, 57, 100
3, 303360, Note_on_c, 1, 65, 110
3, 303360, Note_on_c, 1, 61, 110
3, 303360, Note_on_c, 1, 58, 110
3, 303736, Note_off_c, 1, 65, 100
3, 303736, Note_off_c, 1, 61, 100
3, 303736, Note_off_c, 1, 58, 100
3, 304704, Note_on_c, 1, 65, 110
3, 304704, Note_on_c, 1, 61, 110
3, 304704, Note_on_c, 1, 58, 110
3, 304888, Note_off_c, 1, 65, 100
3, 304888, Note_off_c, 1, 61, 100
3, 304888, Note_off_c, 1, 58, 100
3, 304896, Note_on_c, 1, 63, 120
3, 304896, Note_on_c, 1, 58, 120
3, 304896, Note_on_c, 1, 55, 120
3, 306424, Note_off_c, 1, 63, 100
3, 306424, Note_off_c, 1, 58, 100
3, 306424, Note_off_c, 1, 55, 100
3, 306432, Note_on_c, 1, 63, 110
3, 306432, Note_on_c, 1, 60, 110
3, 306432, Note_on_c, 1, 56, 110
3, 306808, Note_off_c, 1, 63, 100
3, 306808, Note_off_c, 1, 60, 100
3, 306808, Note_off_c, 1, 56, 100
3, 307584, Note_on_c, 1, 61, 120
3, 307584, Note_on_c, 1, 53, 120
3, 307960, Note_off_c, 1, 61, 100
3, 307960, Note_off_c, 1, 53, 100
3, 307968, Note_on_c, 1, 55, 110
3, 307968, Note_on_c, 1, 61, 110
3, 308344, Note_off_c, 1, 55, 100
3, 308344, Note_off_c, 1, 61, 100
3, 308352, Note_on_c, 1, 60, 120
3, 308352, Note_on_c, 1, 52, 120
3, 308728, Note_off_c, 1, 60, 100
3, 308728, Note_off_c, 1, 52, 100
3, 308736, Note_on_c, 1, 60, 110
3, 308736, Note_on_c, 1, 53, 110
3, 309112, Note_off_c, 1, 60, 100
3, 309112, Note_off_c, 1, 53, 100
3, 309120, Note_on_c, 1, 61, 120
3, 309120, Note_on_c, 1, 49, 120
3, 309496, Note_off_c, 1, 61, 100
3, 309496, Note_off_c, 1, 49, 100
3, 309504, Note_on_c, 1, 58, 120
3, 309504, Note_on_c, 1, 55, 120
3, 309504, Note_on_c, 1, 49, 120
3, 309504, Note_on_c, 1, 46, 120
3, 309880, Note_off_c, 1, 58, 100
3, 309880, Note_off_c, 1, 55, 100
3, 309880, Note_off_c, 1, 49, 100
3, 309880, Note_off_c, 1, 46, 100
3, 310272, Note_on_c, 1, 60, 120
3, 310272, Note_on_c, 1, 55, 120
3, 310272, Note_on_c, 1, 52, 120
3, 310272, Note_on_c, 1, 48, 120
3, 310648, Note_off_c, 1, 60, 100
3, 310648, Note_off_c, 1, 55, 100
3, 310648, Note_off_c, 1, 52, 100
3, 310648, Note_off_c, 1, 48, 100
3, 311040, Note_on_c, 1, 53, 120
3, 311040, Note_on_c, 1, 48, 120
3, 311040, Note_on_c, 1, 44, 120
3, 311040, Note_on_c, 1, 41, 120
3, 311800, Note_off_c, 1, 53, 100
3, 311800, Note_off_c, 1, 48, 100
3, 311800, Note_off_c, 1, 44, 100
3, 311800, Note_off_c, 1, 41, 100
3, 311800, End_track
0, 0, End_of_file
