0, 0, Header, 1, 3, 384
1, 0, Start_track
1, 0, Title_t, "L.v.Beethoven 2mov - Piano Sonata No.2 in A Major Op.2-2\000"
1, 0, Copyright_t, "Copyright(C) 1995-2009, Suzuki Software\000"
1, 0, Sequencer_specific, 9, 67, 123, 0, 88, 70, 48, 50, 0, 1
1, 0, Text_t, "XFhd:2000/03/01:JP:Classical::::L.v.Beethoven:::Kaoru Suzuki\000"
1, 0, Text_t, "XFln:JP:\203s\203A\203m\203\\\203i\203^\221æ2\224Ô\203C\222·\222²\215ì\225i2-2\201`\221æ2\212y\217Í:L.v.\203x\201[\203g\201[\203\224\203F\203\223:::\227é\202¿\202á\202ñ:\227é\202¿\202á\202ñ\000"
1, 0, Time_signature, 3, 2, 96, 8
1, 0, Sequencer_specific, 3, 0, 0, 65
1, 0, Sequencer_specific, 5, 0, 0, 119, 14, 0
1, 0, Tempo, 1250000
1, 12864, Tempo, 1333333
1, 13056, Tempo, 1428571
1, 13248, Tempo, 1538461
1, 13440, Tempo, 1666666
1, 13632, Tempo, 1818181
1, 13824, Tempo, 1250000
1, 21120, Tempo, 1153846
1, 24960, Tempo, 1090909
1, 28800, Tempo, 1200000
1, 31104, Tempo, 1090909
1, 34560, Tempo, 1250000
1, 34752, Tempo, 1333333
1, 34944, Tempo, 1428571
1, 35136, Tempo, 1538461
1, 35328, Tempo, 1666666
1, 35520, Tempo, 1818181
1, 35712, Tempo, 1200000
1, 48384, Tempo, 1250000
1, 48576, Tempo, 1276595
1, 48768, Tempo, 1304347
1, 48960, Tempo, 1333333
1, 49152, Tempo, 1363636
1, 49344, Tempo, 1395348
1, 49536, Tempo, 1176470
1, 64512, Tempo, 1250000
1, 64704, Tempo, 1276595
1, 64896, Tempo, 1304347
1, 65088, Tempo, 1333333
1, 65280, Tempo, 1363636
1, 65472, Tempo, 1395348
1, 65664, Tempo, 1153846
1, 75456, Tempo, 1132075
1, 76032, Tempo, 1250000
1, 76224, Tempo, 1276595
1, 76416, Tempo, 1304347
1, 76608, Tempo, 1333333
1, 76800, Tempo, 1463414
1, 76992, Tempo, 1818181
1, 77184, Tempo, 1090909
1, 85248, Tempo, 1200000
1, 89472, Tempo, 1333333
1, 89856, Tempo, 1428571
1, 90624, Tempo, 1538461
1, 90816, Tempo, 2000000
1, 90816, End_track
2, 0, Start_track
2, 0, Title_t, "Right"
2, 0, Control_c, 0, 0, 0
2, 0, Program_c, 0, 0
2, 0, Control_c, 0, 7, 100
2, 0, Control_c, 0, 10, 78
2, 0, Control_c, 0, 91, 0
2, 0, Key_signature, 2, "major"
2, 0, Note_on_c, 0, 66, 80
2, 0, Note_on_c, 0, 57, 80
2, 380, Note_off_c, 0, 66, 100
2, 380, Note_off_c, 0, 57, 100
2, 384, Note_on_c, 0, 66, 80
2, 384, Note_on_c, 0, 57, 80
2, 764, Note_off_c, 0, 66, 100
2, 764, Note_off_c, 0, 57, 100
2, 768, Note_on_c, 0, 66, 80
2, 768, Note_on_c, 0, 57, 80
2, 1148, Note_off_c, 0, 66, 100
2, 1148, Note_off_c, 0, 57, 100
2, 1152, Note_on_c, 0, 64, 80
2, 1152, Note_on_c, 0, 57, 80
2, 1532, Note_off_c, 0, 64, 100
2, 1532, Note_off_c, 0, 57, 100
2, 1536, Note_on_c, 0, 66, 80
2, 1536, Note_on_c, 0, 57, 80
2, 2300, Note_off_c, 0, 66, 100
2, 2300, Note_off_c, 0, 57, 100
2, 2304, Note_on_c, 0, 67, 80
2, 2304, Note_on_c, 0, 57, 80
2, 3068, Note_off_c, 0, 67, 100
2, 3068, Note_off_c, 0, 57, 100
2, 3072, Note_on_c, 0, 66, 80
2, 3072, Note_on_c, 0, 57, 80
2, 3452, Note_off_c, 0, 66, 100
2, 3452, Note_off_c, 0, 57, 100
2, 3456, Note_on_c, 0, 64, 80
2, 3456, Note_on_c, 0, 57, 80
2, 3644, Note_off_c, 0, 64, 100
2, 3644, Note_off_c, 0, 57, 100
2, 4608, Note_on_c, 0, 66, 80
2, 4608, Note_on_c, 0, 57, 80
2, 4988, Note_off_c, 0, 66, 100
2, 4988, Note_off_c, 0, 57, 100
2, 4992, Note_on_c, 0, 66, 80
2, 4992, Note_on_c, 0, 57, 80
2, 5372, Note_off_c, 0, 66, 100
2, 5372, Note_off_c, 0, 57, 100
2, 5376, Note_on_c, 0, 66, 80
2, 5376, Note_on_c, 0, 57, 80
2, 5660, Note_off_c, 0, 66, 100
2, 5660, Note_off_c, 0, 57, 100
2, 5664, Note_on_c, 0, 71, 80
2, 5756, Note_off_c, 0, 71, 100
2, 5760, Note_on_c, 0, 71, 101
2, 5760, Note_on_c, 0, 59, 80
2, 5948, Note_off_c, 0, 59, 100
2, 5952, Note_on_c, 0, 61, 80
2, 6140, Note_off_c, 0, 61, 100
2, 6144, Note_on_c, 0, 62, 80
2, 6332, Note_off_c, 0, 62, 100
2, 6336, Note_on_c, 0, 64, 80
2, 6524, Note_off_c, 0, 71, 100
2, 6524, Note_off_c, 0, 64, 100
2, 6528, Note_on_c, 0, 69, 80
2, 6528, Note_on_c, 0, 66, 80
2, 6716, Note_off_c, 0, 69, 100
2, 6716, Note_off_c, 0, 66, 100
2, 6720, Note_on_c, 0, 67, 80
2, 6720, Note_on_c, 0, 61, 80
2, 6908, Note_off_c, 0, 67, 100
2, 6908, Note_off_c, 0, 61, 100
2, 6912, Note_on_c, 0, 66, 80
2, 6912, Note_on_c, 0, 62, 80
2, 7100, Note_off_c, 0, 66, 100
2, 7100, Note_off_c, 0, 62, 100
2, 7104, Note_on_c, 0, 64, 80
2, 7104, Note_on_c, 0, 59, 80
2, 7292, Note_off_c, 0, 64, 100
2, 7292, Note_off_c, 0, 59, 100
2, 7296, Note_on_c, 0, 62, 80
2, 7676, Note_off_c, 0, 62, 100
2, 7680, Note_on_c, 0, 61, 80
2, 7872, Note_on_c, 0, 62, 80
2, 7920, Note_on_c, 0, 61, 80
2, 7964, Note_off_c, 0, 62, 100
2, 7968, Note_on_c, 0, 59, 80
2, 8012, Note_off_c, 0, 61, 100
2, 8016, Note_on_c, 0, 61, 80
2, 8060, Note_off_c, 0, 61, 100
2, 8060, Note_off_c, 0, 59, 100
2, 8060, Note_off_c, 0, 61, 100
2, 8064, Note_on_c, 0, 64, 80
2, 8064, Note_on_c, 0, 55, 80
2, 8064, Note_on_c, 0, 57, 80
2, 8444, Note_off_c, 0, 64, 100
2, 8444, Note_off_c, 0, 55, 100
2, 8448, Note_on_c, 0, 62, 80
2, 8448, Note_on_c, 0, 54, 80
2, 8636, Note_off_c, 0, 57, 100
2, 8636, Note_off_c, 0, 62, 100
2, 8636, Note_off_c, 0, 54, 100
2, 8640, Note_on_c, 0, 64, 80
2, 8828, Note_off_c, 0, 64, 100
2, 8832, Note_on_c, 0, 66, 80
2, 9020, Note_off_c, 0, 66, 100
2, 9024, Note_on_c, 0, 68, 80
2, 9212, Note_off_c, 0, 68, 100
2, 9216, Note_on_c, 0, 69, 80
2, 9980, Note_off_c, 0, 69, 100
2, 9984, Note_on_c, 0, 68, 80
2, 10008, Note_on_c, 0, 69, 80
2, 10028, Note_off_c, 0, 68, 100
2, 10032, Note_on_c, 0, 68, 80
2, 10052, Note_off_c, 0, 69, 100
2, 10056, Note_on_c, 0, 69, 80
2, 10076, Note_off_c, 0, 68, 100
2, 10080, Note_on_c, 0, 68, 80
2, 10100, Note_off_c, 0, 69, 100
2, 10104, Note_on_c, 0, 69, 80
2, 10124, Note_off_c, 0, 68, 100
2, 10128, Note_on_c, 0, 68, 80
2, 10148, Note_off_c, 0, 69, 100
2, 10152, Note_on_c, 0, 69, 80
2, 10172, Note_off_c, 0, 68, 100
2, 10176, Note_on_c, 0, 68, 80
2, 10196, Note_off_c, 0, 69, 100
2, 10200, Note_on_c, 0, 69, 80
2, 10220, Note_off_c, 0, 68, 100
2, 10224, Note_on_c, 0, 68, 80
2, 10244, Note_off_c, 0, 69, 100
2, 10248, Note_on_c, 0, 69, 80
2, 10268, Note_off_c, 0, 68, 100
2, 10272, Note_on_c, 0, 68, 80
2, 10292, Note_off_c, 0, 69, 100
2, 10296, Note_on_c, 0, 69, 80
2, 10316, Note_off_c, 0, 68, 100
2, 10320, Note_on_c, 0, 66, 80
2, 10340, Note_off_c, 0, 69, 100
2, 10344, Note_on_c, 0, 68, 80
2, 10364, Note_off_c, 0, 66, 100
2, 10364, Note_off_c, 0, 68, 100
2, 10368, Note_on_c, 0, 61, 80
2, 10368, Note_on_c, 0, 69, 80
2, 10556, Note_off_c, 0, 61, 100
2, 10556, Note_off_c, 0, 69, 100
2, 10560, Note_on_c, 0, 64, 80
2, 10748, Note_off_c, 0, 64, 100
2, 10752, Note_on_c, 0, 61, 80
2, 10940, Note_off_c, 0, 61, 100
2, 10944, Note_on_c, 0, 64, 80
2, 11132, Note_off_c, 0, 64, 100
2, 11136, Note_on_c, 0, 62, 80
2, 11136, Note_on_c, 0, 59, 80
2, 11324, Note_off_c, 0, 62, 100
2, 11324, Note_off_c, 0, 59, 100
2, 11328, Note_on_c, 0, 64, 80
2, 11516, Note_off_c, 0, 64, 100
2, 11520, Note_on_c, 0, 69, 80
2, 11520, Note_on_c, 0, 61, 80
2, 11708, Note_off_c, 0, 61, 100
2, 11712, Note_on_c, 0, 64, 80
2, 11900, Note_off_c, 0, 64, 100
2, 11904, Note_on_c, 0, 57, 80
2, 12092, Note_off_c, 0, 57, 100
2, 12096, Note_on_c, 0, 64, 80
2, 12284, Note_off_c, 0, 69, 100
2, 12284, Note_off_c, 0, 64, 100
2, 12288, Note_on_c, 0, 68, 80
2, 12288, Note_on_c, 0, 59, 80
2, 12312, Note_on_c, 0, 69, 80
2, 12332, Note_off_c, 0, 68, 100
2, 12336, Note_on_c, 0, 68, 80
2, 12356, Note_off_c, 0, 69, 100
2, 12360, Note_on_c, 0, 69, 80
2, 12380, Note_off_c, 0, 68, 100
2, 12384, Note_on_c, 0, 68, 80
2, 12404, Note_off_c, 0, 69, 100
2, 12408, Note_on_c, 0, 69, 80
2, 12428, Note_off_c, 0, 68, 100
2, 12432, Note_on_c, 0, 68, 80
2, 12452, Note_off_c, 0, 69, 100
2, 12456, Note_on_c, 0, 69, 80
2, 12476, Note_off_c, 0, 59, 100
2, 12476, Note_off_c, 0, 68, 100
2, 12480, Note_on_c, 0, 68, 80
2, 12480, Note_on_c, 0, 64, 80
2, 12500, Note_off_c, 0, 69, 100
2, 12504, Note_on_c, 0, 69, 80
2, 12524, Note_off_c, 0, 68, 100
2, 12528, Note_on_c, 0, 68, 80
2, 12548, Note_off_c, 0, 69, 100
2, 12552, Note_on_c, 0, 69, 80
2, 12572, Note_off_c, 0, 68, 100
2, 12576, Note_on_c, 0, 68, 80
2, 12596, Note_off_c, 0, 69, 100
2, 12600, Note_on_c, 0, 69, 80
2, 12620, Note_off_c, 0, 68, 100
2, 12624, Note_on_c, 0, 66, 80
2, 12644, Note_off_c, 0, 69, 100
2, 12648, Note_on_c, 0, 68, 80
2, 12668, Note_off_c, 0, 64, 100
2, 12668, Note_off_c, 0, 66, 100
2, 12668, Note_off_c, 0, 68, 100
2, 12672, Note_on_c, 0, 69, 80
2, 12672, Note_on_c, 0, 57, 80
2, 12860, Note_off_c, 0, 57, 100
2, 12864, Note_on_c, 0, 61, 80
2, 13052, Note_off_c, 0, 69, 100
2, 13052, Note_off_c, 0, 61, 100
2, 13056, Note_on_c, 0, 68, 80
2, 13056, Note_on_c, 0, 62, 80
2, 13244, Note_off_c, 0, 62, 100
2, 13248, Note_on_c, 0, 57, 80
2, 13436, Note_off_c, 0, 68, 100
2, 13436, Note_off_c, 0, 57, 100
2, 13440, Note_on_c, 0, 67, 80
2, 13440, Note_on_c, 0, 64, 80
2, 13628, Note_off_c, 0, 64, 100
2, 13632, Note_on_c, 0, 57, 80
2, 13820, Note_off_c, 0, 67, 100
2, 13820, Note_off_c, 0, 57, 100
2, 13824, Note_on_c, 0, 66, 80
2, 13824, Note_on_c, 0, 57, 80
2, 14204, Note_off_c, 0, 66, 100
2, 14204, Note_off_c, 0, 57, 100
2, 14208, Note_on_c, 0, 66, 81
2, 14208, Note_on_c, 0, 57, 81
2, 14588, Note_off_c, 0, 66, 100
2, 14588, Note_off_c, 0, 57, 100
2, 14592, Note_on_c, 0, 66, 83
2, 14592, Note_on_c, 0, 57, 83
2, 14972, Note_off_c, 0, 66, 100
2, 14972, Note_off_c, 0, 57, 100
2, 14976, Note_on_c, 0, 64, 84
2, 14976, Note_on_c, 0, 57, 84
2, 15356, Note_off_c, 0, 64, 100
2, 15356, Note_off_c, 0, 57, 100
2, 15360, Note_on_c, 0, 66, 86
2, 15360, Note_on_c, 0, 57, 86
2, 16124, Note_off_c, 0, 66, 100
2, 16124, Note_off_c, 0, 57, 100
2, 16128, Note_on_c, 0, 66, 89
2, 16128, Note_on_c, 0, 59, 89
2, 16508, Note_off_c, 0, 66, 100
2, 16508, Note_off_c, 0, 59, 100
2, 16512, Note_on_c, 0, 59, 91
2, 16512, Note_on_c, 0, 67, 91
2, 17276, Note_off_c, 0, 59, 100
2, 17276, Note_off_c, 0, 67, 100
2, 17280, Note_on_c, 0, 69, 94
2, 17280, Note_on_c, 0, 66, 94
2, 17280, Note_on_c, 0, 62, 94
2, 17280, Note_on_c, 0, 57, 94
2, 17660, Note_off_c, 0, 69, 100
2, 17660, Note_off_c, 0, 66, 100
2, 17660, Note_off_c, 0, 62, 100
2, 17660, Note_off_c, 0, 57, 100
2, 17664, Note_on_c, 0, 71, 96
2, 17664, Note_on_c, 0, 59, 96
2, 17664, Note_on_c, 0, 62, 96
2, 18044, Note_off_c, 0, 62, 100
2, 18048, Note_on_c, 0, 67, 98
2, 18432, Note_on_c, 0, 64, 100
2, 18812, Note_off_c, 0, 59, 100
2, 18812, Note_off_c, 0, 67, 100
2, 18812, Note_off_c, 0, 71, 100
2, 18812, Note_off_c, 0, 64, 100
2, 18816, Note_on_c, 0, 73, 107
2, 18816, Note_on_c, 0, 67, 107
2, 18816, Note_on_c, 0, 64, 107
2, 18816, Note_on_c, 0, 61, 107
2, 19004, Note_off_c, 0, 73, 100
2, 19004, Note_off_c, 0, 67, 100
2, 19004, Note_off_c, 0, 64, 100
2, 19004, Note_off_c, 0, 61, 100
2, 19008, Note_on_c, 0, 62, 111
2, 19008, Note_on_c, 0, 67, 111
2, 19008, Note_on_c, 0, 74, 111
2, 19196, Note_off_c, 0, 62, 100
2, 19196, Note_off_c, 0, 67, 100
2, 19196, Note_off_c, 0, 74, 100
2, 19200, Note_on_c, 0, 76, 115
2, 19200, Note_on_c, 0, 73, 115
2, 19200, Note_on_c, 0, 64, 115
2, 19200, Note_on_c, 0, 67, 115
2, 19388, Note_off_c, 0, 67, 100
2, 19392, Note_on_c, 0, 69, 119
2, 19580, Note_off_c, 0, 76, 100
2, 19580, Note_off_c, 0, 73, 100
2, 19580, Note_off_c, 0, 64, 100
2, 19580, Note_off_c, 0, 69, 100
2, 19584, Note_on_c, 0, 78, 120
2, 19584, Note_on_c, 0, 74, 120
2, 19584, Note_on_c, 0, 69, 120
2, 19772, Note_off_c, 0, 78, 100
2, 19772, Note_off_c, 0, 74, 100
2, 19772, Note_off_c, 0, 69, 100
2, 19776, Note_on_c, 0, 76, 101
2, 19776, Note_on_c, 0, 71, 101
2, 19776, Note_on_c, 0, 67, 101
2, 19964, Note_off_c, 0, 76, 100
2, 19964, Note_off_c, 0, 71, 100
2, 19964, Note_off_c, 0, 67, 100
2, 19968, Note_on_c, 0, 66, 80
2, 19968, Note_on_c, 0, 74, 80
2, 20156, Note_off_c, 0, 66, 100
2, 20160, Note_on_c, 0, 69, 80
2, 20348, Note_off_c, 0, 74, 100
2, 20348, Note_off_c, 0, 69, 100
2, 20352, Note_on_c, 0, 64, 80
2, 20352, Note_on_c, 0, 73, 80
2, 20540, Note_off_c, 0, 64, 100
2, 20544, Note_on_c, 0, 67, 80
2, 20636, Note_off_c, 0, 67, 100
2, 20640, Note_on_c, 0, 74, 80
2, 20664, Note_on_c, 0, 73, 80
2, 20684, Note_off_c, 0, 74, 100
2, 20688, Note_on_c, 0, 71, 80
2, 20708, Note_off_c, 0, 73, 100
2, 20712, Note_on_c, 0, 73, 80
2, 20732, Note_off_c, 0, 73, 100
2, 20732, Note_off_c, 0, 71, 100
2, 20732, Note_off_c, 0, 73, 100
2, 20736, Note_on_c, 0, 76, 80
2, 20736, Note_on_c, 0, 67, 80
2, 21116, Note_off_c, 0, 76, 100
2, 21116, Note_off_c, 0, 67, 100
2, 21120, Note_on_c, 0, 66, 80
2, 21120, Note_on_c, 0, 74, 80
2, 21308, Note_off_c, 0, 66, 100
2, 21308, Note_off_c, 0, 74, 100
2, 21312, Note_on_c, 0, 66, 80
2, 21500, Note_off_c, 0, 66, 100
2, 21504, Note_on_c, 0, 74, 80
2, 21692, Note_off_c, 0, 74, 100
2, 21696, Note_on_c, 0, 71, 80
2, 21696, Note_on_c, 0, 66, 80
2, 21884, Note_off_c, 0, 71, 100
2, 21884, Note_off_c, 0, 66, 100
2, 21888, Note_on_c, 0, 66, 80
2, 21888, Note_on_c, 0, 70, 80
2, 22076, Note_off_c, 0, 70, 100
2, 22080, Note_on_c, 0, 73, 80
2, 22268, Note_off_c, 0, 66, 100
2, 22268, Note_off_c, 0, 73, 100
2, 22272, Note_on_c, 0, 71, 80
2, 22460, Note_off_c, 0, 71, 100
2, 22464, Note_on_c, 0, 66, 80
2, 22556, Note_off_c, 0, 66, 100
2, 22560, Note_on_c, 0, 78, 80
2, 22652, Note_off_c, 0, 78, 100
2, 22656, Note_on_c, 0, 76, 80
2, 22748, Note_off_c, 0, 76, 100
2, 22752, Note_on_c, 0, 74, 80
2, 22844, Note_off_c, 0, 74, 100
2, 22848, Note_on_c, 0, 73, 80
2, 22940, Note_off_c, 0, 73, 100
2, 22944, Note_on_c, 0, 71, 80
2, 23036, Note_off_c, 0, 71, 100
2, 23040, Note_on_c, 0, 70, 80
2, 23132, Note_off_c, 0, 70, 100
2, 23136, Note_on_c, 0, 71, 80
2, 23160, Note_on_c, 0, 70, 80
2, 23180, Note_off_c, 0, 71, 100
2, 23184, Note_on_c, 0, 68, 80
2, 23204, Note_off_c, 0, 70, 100
2, 23208, Note_on_c, 0, 70, 80
2, 23228, Note_off_c, 0, 68, 100
2, 23228, Note_off_c, 0, 70, 100
2, 23232, Note_on_c, 0, 73, 80
2, 23324, Note_off_c, 0, 73, 100
2, 23328, Note_on_c, 0, 71, 80
2, 23420, Note_off_c, 0, 71, 100
2, 23424, Note_on_c, 0, 71, 80
2, 23612, Note_off_c, 0, 71, 100
2, 23616, Note_on_c, 0, 66, 80
2, 23708, Note_off_c, 0, 66, 100
2, 23712, Note_on_c, 0, 78, 80
2, 23804, Note_off_c, 0, 78, 100
2, 23808, Note_on_c, 0, 76, 80
2, 23900, Note_off_c, 0, 76, 100
2, 23904, Note_on_c, 0, 74, 80
2, 23996, Note_off_c, 0, 74, 100
2, 24000, Note_on_c, 0, 73, 80
2, 24092, Note_off_c, 0, 73, 100
2, 24096, Note_on_c, 0, 71, 80
2, 24188, Note_off_c, 0, 71, 100
2, 24192, Note_on_c, 0, 69, 80
2, 24284, Note_off_c, 0, 69, 100
2, 24288, Note_on_c, 0, 71, 80
2, 24320, Note_on_c, 0, 69, 80
2, 24348, Note_off_c, 0, 71, 100
2, 24352, Note_on_c, 0, 68, 80
2, 24380, Note_off_c, 0, 69, 100
2, 24380, Note_off_c, 0, 68, 100
2, 24384, Note_on_c, 0, 69, 80
2, 24476, Note_off_c, 0, 69, 100
2, 24480, Note_on_c, 0, 73, 80
2, 24572, Note_off_c, 0, 73, 100
2, 24576, Note_on_c, 0, 66, 80
2, 24768, Note_on_c, 0, 61, 80
2, 24956, Note_off_c, 0, 66, 100
2, 24956, Note_off_c, 0, 61, 100
2, 24960, Note_on_c, 0, 65, 80
2, 24960, Note_on_c, 0, 59, 80
2, 25148, Note_off_c, 0, 59, 100
2, 25152, Note_on_c, 0, 61, 80
2, 25340, Note_off_c, 0, 65, 100
2, 25340, Note_off_c, 0, 61, 100
2, 25344, Note_on_c, 0, 66, 80
2, 25344, Note_on_c, 0, 57, 80
2, 25532, Note_off_c, 0, 66, 100
2, 25532, Note_off_c, 0, 57, 100
2, 26304, Note_on_c, 0, 73, 80
2, 26304, Note_on_c, 0, 61, 80
2, 26492, Note_off_c, 0, 73, 100
2, 26492, Note_off_c, 0, 61, 100
2, 26496, Note_on_c, 0, 73, 80
2, 26496, Note_on_c, 0, 61, 80
2, 27068, Note_off_c, 0, 73, 100
2, 27068, Note_off_c, 0, 61, 100
2, 27456, Note_on_c, 0, 73, 80
2, 27456, Note_on_c, 0, 61, 80
2, 27644, Note_off_c, 0, 73, 100
2, 27644, Note_off_c, 0, 61, 100
2, 27648, Note_on_c, 0, 73, 80
2, 27648, Note_on_c, 0, 61, 80
2, 28220, Note_off_c, 0, 73, 100
2, 28220, Note_off_c, 0, 61, 100
2, 28992, Note_on_c, 0, 62, 80
2, 29180, Note_off_c, 0, 62, 100
2, 29184, Note_on_c, 0, 62, 80
2, 29184, Note_on_c, 0, 74, 80
2, 29372, Note_off_c, 0, 62, 100
2, 29372, Note_off_c, 0, 74, 100
2, 29376, Note_on_c, 0, 62, 80
2, 29376, Note_on_c, 0, 71, 80
2, 29564, Note_off_c, 0, 62, 100
2, 29564, Note_off_c, 0, 71, 100
2, 29568, Note_on_c, 0, 62, 80
2, 29568, Note_on_c, 0, 69, 80
2, 29756, Note_off_c, 0, 62, 100
2, 29756, Note_off_c, 0, 69, 100
2, 29760, Note_on_c, 0, 62, 80
2, 29760, Note_on_c, 0, 67, 80
2, 29948, Note_off_c, 0, 62, 100
2, 29948, Note_off_c, 0, 67, 100
2, 29952, Note_on_c, 0, 67, 80
2, 29952, Note_on_c, 0, 62, 80
2, 30140, Note_off_c, 0, 62, 100
2, 30144, Note_on_c, 0, 62, 80
2, 30236, Note_off_c, 0, 67, 100
2, 30240, Note_on_c, 0, 66, 80
2, 30332, Note_off_c, 0, 62, 100
2, 30332, Note_off_c, 0, 66, 100
2, 30336, Note_on_c, 0, 62, 80
2, 30336, Note_on_c, 0, 66, 80
2, 30524, Note_off_c, 0, 62, 100
2, 30528, Note_on_c, 0, 62, 80
2, 30716, Note_off_c, 0, 62, 100
2, 30720, Note_on_c, 0, 62, 80
2, 30908, Note_off_c, 0, 62, 100
2, 30912, Note_on_c, 0, 62, 80
2, 31100, Note_off_c, 0, 66, 100
2, 31100, Note_off_c, 0, 62, 100
2, 31104, Note_on_c, 0, 67, 80
2, 31104, Note_on_c, 0, 62, 80
2, 31196, Note_off_c, 0, 67, 100
2, 31200, Note_on_c, 0, 69, 80
2, 31292, Note_off_c, 0, 62, 100
2, 31292, Note_off_c, 0, 69, 100
2, 31296, Note_on_c, 0, 71, 80
2, 31296, Note_on_c, 0, 62, 80
2, 31388, Note_off_c, 0, 71, 100
2, 31392, Note_on_c, 0, 72, 80
2, 31484, Note_off_c, 0, 62, 100
2, 31484, Note_off_c, 0, 72, 100
2, 31488, Note_on_c, 0, 74, 80
2, 31488, Note_on_c, 0, 62, 80
2, 31580, Note_off_c, 0, 74, 100
2, 31584, Note_on_c, 0, 73, 80
2, 31676, Note_off_c, 0, 62, 100
2, 31676, Note_off_c, 0, 73, 100
2, 31680, Note_on_c, 0, 76, 80
2, 31680, Note_on_c, 0, 62, 80
2, 31772, Note_off_c, 0, 76, 100
2, 31776, Note_on_c, 0, 74, 80
2, 31868, Note_off_c, 0, 62, 100
2, 31868, Note_off_c, 0, 74, 100
2, 31872, Note_on_c, 0, 74, 80
2, 31872, Note_on_c, 0, 62, 80
2, 31964, Note_off_c, 0, 74, 100
2, 31968, Note_on_c, 0, 72, 80
2, 32012, Note_off_c, 0, 72, 100
2, 32016, Note_on_c, 0, 71, 80
2, 32060, Note_off_c, 0, 62, 100
2, 32060, Note_off_c, 0, 71, 100
2, 32064, Note_on_c, 0, 71, 80
2, 32064, Note_on_c, 0, 62, 80
2, 32156, Note_off_c, 0, 71, 100
2, 32160, Note_on_c, 0, 69, 80
2, 32204, Note_off_c, 0, 69, 100
2, 32208, Note_on_c, 0, 67, 80
2, 32252, Note_off_c, 0, 62, 100
2, 32252, Note_off_c, 0, 67, 100
2, 32256, Note_on_c, 0, 66, 80
2, 32256, Note_on_c, 0, 63, 80
2, 32304, Note_on_c, 0, 67, 80
2, 32348, Note_off_c, 0, 66, 100
2, 32352, Note_on_c, 0, 69, 81
2, 32396, Note_off_c, 0, 67, 100
2, 32400, Note_on_c, 0, 67, 82
2, 32444, Note_off_c, 0, 63, 100
2, 32444, Note_off_c, 0, 69, 100
2, 32448, Note_on_c, 0, 63, 82
2, 32540, Note_off_c, 0, 67, 100
2, 32544, Note_on_c, 0, 66, 84
2, 32636, Note_off_c, 0, 63, 100
2, 32636, Note_off_c, 0, 66, 100
2, 32640, Note_on_c, 0, 66, 85
2, 32640, Note_on_c, 0, 63, 85
2, 32828, Note_off_c, 0, 63, 100
2, 32832, Note_on_c, 0, 63, 88
2, 33020, Note_off_c, 0, 63, 100
2, 33024, Note_on_c, 0, 63, 90
2, 33212, Note_off_c, 0, 66, 100
2, 33212, Note_off_c, 0, 63, 100
2, 33216, Note_on_c, 0, 66, 93
2, 33216, Note_on_c, 0, 63, 93
2, 33404, Note_off_c, 0, 66, 100
2, 33404, Note_off_c, 0, 63, 100
2, 33408, Note_on_c, 0, 69, 96
2, 33408, Note_on_c, 0, 63, 96
2, 33596, Note_off_c, 0, 63, 100
2, 33600, Note_on_c, 0, 63, 99
2, 33692, Note_off_c, 0, 69, 100
2, 33696, Note_on_c, 0, 67, 100
2, 33788, Note_off_c, 0, 63, 100
2, 33788, Note_off_c, 0, 67, 100
2, 33792, Note_on_c, 0, 67, 101
2, 33792, Note_on_c, 0, 64, 101
2, 33980, Note_off_c, 0, 64, 100
2, 33984, Note_on_c, 0, 64, 104
2, 34172, Note_off_c, 0, 64, 100
2, 34176, Note_on_c, 0, 64, 107
2, 34176, Note_on_c, 0, 62, 107
2, 34364, Note_off_c, 0, 67, 100
2, 34364, Note_off_c, 0, 64, 100
2, 34364, Note_off_c, 0, 62, 100
2, 34368, Note_on_c, 0, 67, 109
2, 34368, Note_on_c, 0, 64, 109
2, 34368, Note_on_c, 0, 62, 109
2, 34556, Note_off_c, 0, 67, 100
2, 34556, Note_off_c, 0, 64, 100
2, 34556, Note_off_c, 0, 62, 100
2, 34560, Note_on_c, 0, 67, 120
2, 34560, Note_on_c, 0, 61, 120
2, 34560, Note_on_c, 0, 57, 120
2, 34560, Note_on_c, 0, 55, 120
2, 34560, Note_on_c, 0, 64, 120
2, 34748, Note_off_c, 0, 67, 100
2, 34748, Note_off_c, 0, 61, 100
2, 34748, Note_off_c, 0, 57, 100
2, 34748, Note_off_c, 0, 55, 100
2, 34748, Note_off_c, 0, 64, 100
2, 34752, Note_on_c, 0, 64, 80
2, 34940, Note_off_c, 0, 64, 100
2, 34944, Note_on_c, 0, 61, 80
2, 35132, Note_off_c, 0, 61, 100
2, 35136, Note_on_c, 0, 57, 80
2, 35324, Note_off_c, 0, 57, 100
2, 35328, Note_on_c, 0, 55, 80
2, 35516, Note_off_c, 0, 55, 100
2, 35520, Note_on_c, 0, 52, 80
2, 35708, Note_off_c, 0, 52, 100
2, 35712, Note_on_c, 0, 66, 80
2, 35712, Note_on_c, 0, 57, 80
2, 36092, Note_off_c, 0, 66, 100
2, 36092, Note_off_c, 0, 57, 100
2, 36096, Note_on_c, 0, 66, 80
2, 36096, Note_on_c, 0, 57, 80
2, 36476, Note_off_c, 0, 66, 100
2, 36476, Note_off_c, 0, 57, 100
2, 36480, Note_on_c, 0, 66, 80
2, 36480, Note_on_c, 0, 57, 80
2, 36860, Note_off_c, 0, 66, 100
2, 36860, Note_off_c, 0, 57, 100
2, 36864, Note_on_c, 0, 64, 80
2, 36864, Note_on_c, 0, 57, 80
2, 37244, Note_off_c, 0, 64, 100
2, 37244, Note_off_c, 0, 57, 100
2, 37248, Note_on_c, 0, 66, 80
2, 37248, Note_on_c, 0, 57, 80
2, 38012, Note_off_c, 0, 66, 100
2, 38012, Note_off_c, 0, 57, 100
2, 38016, Note_on_c, 0, 67, 80
2, 38016, Note_on_c, 0, 57, 80
2, 38780, Note_off_c, 0, 67, 100
2, 38780, Note_off_c, 0, 57, 100
2, 38784, Note_on_c, 0, 66, 80
2, 38784, Note_on_c, 0, 57, 80
2, 39164, Note_off_c, 0, 66, 100
2, 39164, Note_off_c, 0, 57, 100
2, 39168, Note_on_c, 0, 64, 80
2, 39168, Note_on_c, 0, 57, 80
2, 39356, Note_off_c, 0, 64, 100
2, 39356, Note_off_c, 0, 57, 100
2, 40320, Note_on_c, 0, 66, 80
2, 40320, Note_on_c, 0, 57, 80
2, 40700, Note_off_c, 0, 66, 100
2, 40700, Note_off_c, 0, 57, 100
2, 40704, Note_on_c, 0, 66, 80
2, 40704, Note_on_c, 0, 57, 80
2, 41084, Note_off_c, 0, 66, 100
2, 41084, Note_off_c, 0, 57, 100
2, 41088, Note_on_c, 0, 66, 80
2, 41088, Note_on_c, 0, 57, 80
2, 41372, Note_off_c, 0, 66, 100
2, 41372, Note_off_c, 0, 57, 100
2, 41376, Note_on_c, 0, 71, 80
2, 41468, Note_off_c, 0, 71, 100
2, 41472, Note_on_c, 0, 71, 80
2, 41472, Note_on_c, 0, 59, 80
2, 41660, Note_off_c, 0, 59, 100
2, 41664, Note_on_c, 0, 61, 80
2, 41852, Note_off_c, 0, 61, 100
2, 41856, Note_on_c, 0, 62, 80
2, 42044, Note_off_c, 0, 62, 100
2, 42048, Note_on_c, 0, 64, 80
2, 42236, Note_off_c, 0, 71, 100
2, 42236, Note_off_c, 0, 64, 100
2, 42240, Note_on_c, 0, 69, 80
2, 42240, Note_on_c, 0, 66, 80
2, 42428, Note_off_c, 0, 69, 100
2, 42428, Note_off_c, 0, 66, 100
2, 42432, Note_on_c, 0, 67, 80
2, 42432, Note_on_c, 0, 61, 80
2, 42620, Note_off_c, 0, 67, 100
2, 42620, Note_off_c, 0, 61, 100
2, 42624, Note_on_c, 0, 66, 80
2, 42624, Note_on_c, 0, 62, 80
2, 42812, Note_off_c, 0, 66, 100
2, 42812, Note_off_c, 0, 62, 100
2, 42816, Note_on_c, 0, 64, 80
2, 42816, Note_on_c, 0, 59, 80
2, 43004, Note_off_c, 0, 64, 100
2, 43004, Note_off_c, 0, 59, 100
2, 43008, Note_on_c, 0, 62, 80
2, 43388, Note_off_c, 0, 62, 100
2, 43392, Note_on_c, 0, 61, 80
2, 43584, Note_on_c, 0, 62, 80
2, 43632, Note_on_c, 0, 61, 80
2, 43676, Note_off_c, 0, 62, 100
2, 43680, Note_on_c, 0, 59, 80
2, 43724, Note_off_c, 0, 61, 100
2, 43728, Note_on_c, 0, 61, 80
2, 43772, Note_off_c, 0, 61, 100
2, 43772, Note_off_c, 0, 59, 100
2, 43772, Note_off_c, 0, 61, 100
2, 43776, Note_on_c, 0, 64, 80
2, 43776, Note_on_c, 0, 55, 80
2, 43776, Note_on_c, 0, 57, 80
2, 44156, Note_off_c, 0, 64, 100
2, 44156, Note_off_c, 0, 55, 100
2, 44160, Note_on_c, 0, 62, 80
2, 44160, Note_on_c, 0, 54, 80
2, 44348, Note_off_c, 0, 57, 100
2, 44348, Note_off_c, 0, 62, 100
2, 44348, Note_off_c, 0, 54, 100
2, 45120, Note_on_c, 0, 64, 80
2, 45308, Note_off_c, 0, 64, 100
2, 45312, Note_on_c, 0, 61, 80
2, 45500, Note_off_c, 0, 61, 100
2, 45504, Note_on_c, 0, 64, 80
2, 45692, Note_off_c, 0, 64, 100
2, 45696, Note_on_c, 0, 62, 80
2, 45696, Note_on_c, 0, 59, 80
2, 45884, Note_off_c, 0, 62, 100
2, 45884, Note_off_c, 0, 59, 100
2, 45888, Note_on_c, 0, 64, 80
2, 46076, Note_off_c, 0, 64, 100
2, 46080, Note_on_c, 0, 69, 80
2, 46080, Note_on_c, 0, 61, 80
2, 46268, Note_off_c, 0, 61, 100
2, 46272, Note_on_c, 0, 64, 80
2, 46460, Note_off_c, 0, 64, 100
2, 46464, Note_on_c, 0, 61, 80
2, 46652, Note_off_c, 0, 61, 100
2, 46656, Note_on_c, 0, 64, 80
2, 46844, Note_off_c, 0, 69, 100
2, 46844, Note_off_c, 0, 64, 100
2, 46848, Note_on_c, 0, 68, 80
2, 46848, Note_on_c, 0, 59, 80
2, 46872, Note_on_c, 0, 69, 80
2, 46892, Note_off_c, 0, 68, 100
2, 46896, Note_on_c, 0, 68, 80
2, 46916, Note_off_c, 0, 69, 100
2, 46920, Note_on_c, 0, 69, 80
2, 46940, Note_off_c, 0, 68, 100
2, 46944, Note_on_c, 0, 68, 80
2, 46964, Note_off_c, 0, 69, 100
2, 46968, Note_on_c, 0, 69, 80
2, 46988, Note_off_c, 0, 68, 100
2, 46992, Note_on_c, 0, 68, 80
2, 47012, Note_off_c, 0, 69, 100
2, 47016, Note_on_c, 0, 69, 80
2, 47036, Note_off_c, 0, 59, 100
2, 47036, Note_off_c, 0, 68, 100
2, 47040, Note_on_c, 0, 68, 80
2, 47040, Note_on_c, 0, 64, 80
2, 47060, Note_off_c, 0, 69, 100
2, 47064, Note_on_c, 0, 69, 80
2, 47084, Note_off_c, 0, 68, 100
2, 47088, Note_on_c, 0, 68, 80
2, 47108, Note_off_c, 0, 69, 100
2, 47112, Note_on_c, 0, 69, 80
2, 47132, Note_off_c, 0, 68, 100
2, 47136, Note_on_c, 0, 68, 80
2, 47156, Note_off_c, 0, 69, 100
2, 47160, Note_on_c, 0, 69, 80
2, 47180, Note_off_c, 0, 68, 100
2, 47184, Note_on_c, 0, 66, 80
2, 47204, Note_off_c, 0, 69, 100
2, 47208, Note_on_c, 0, 68, 80
2, 47228, Note_off_c, 0, 64, 100
2, 47228, Note_off_c, 0, 66, 100
2, 47228, Note_off_c, 0, 68, 100
2, 47232, Note_on_c, 0, 69, 80
2, 47232, Note_on_c, 0, 61, 80
2, 47420, Note_off_c, 0, 69, 100
2, 47420, Note_off_c, 0, 61, 100
2, 47424, Note_on_c, 0, 64, 80
2, 47424, Note_on_c, 0, 52, 80
2, 47612, Note_off_c, 0, 64, 100
2, 47612, Note_off_c, 0, 52, 100
2, 47616, Note_on_c, 0, 61, 80
2, 47616, Note_on_c, 0, 57, 80
2, 47804, Note_off_c, 0, 61, 100
2, 47804, Note_off_c, 0, 57, 100
2, 47808, Note_on_c, 0, 64, 80
2, 47808, Note_on_c, 0, 52, 80
2, 47996, Note_off_c, 0, 64, 100
2, 47996, Note_off_c, 0, 52, 100
2, 48000, Note_on_c, 0, 61, 80
2, 48000, Note_on_c, 0, 57, 80
2, 48188, Note_off_c, 0, 61, 100
2, 48188, Note_off_c, 0, 57, 100
2, 48192, Note_on_c, 0, 64, 80
2, 48192, Note_on_c, 0, 52, 80
2, 48380, Note_off_c, 0, 64, 100
2, 48380, Note_off_c, 0, 52, 100
2, 48384, Note_on_c, 0, 61, 80
2, 48576, Note_on_c, 0, 69, 80
2, 48576, Note_on_c, 0, 57, 80
2, 48764, Note_off_c, 0, 61, 100
2, 48764, Note_off_c, 0, 57, 100
2, 48768, Note_on_c, 0, 62, 80
2, 48956, Note_off_c, 0, 69, 100
2, 48956, Note_off_c, 0, 62, 100
2, 48960, Note_on_c, 0, 68, 80
2, 48960, Note_on_c, 0, 57, 80
2, 49148, Note_off_c, 0, 57, 100
2, 49152, Note_on_c, 0, 64, 80
2, 49340, Note_off_c, 0, 68, 100
2, 49340, Note_off_c, 0, 64, 100
2, 49344, Note_on_c, 0, 67, 80
2, 49344, Note_on_c, 0, 57, 80
2, 49532, Note_off_c, 0, 67, 100
2, 49532, Note_off_c, 0, 57, 100
2, 49536, Note_on_c, 0, 66, 80
2, 49536, Note_on_c, 0, 57, 80
2, 49916, Note_off_c, 0, 66, 100
2, 49916, Note_off_c, 0, 57, 100
2, 49920, Note_on_c, 0, 66, 80
2, 49920, Note_on_c, 0, 57, 80
2, 50300, Note_off_c, 0, 66, 100
2, 50300, Note_off_c, 0, 57, 100
2, 50304, Note_on_c, 0, 66, 80
2, 50304, Note_on_c, 0, 57, 80
2, 50684, Note_off_c, 0, 66, 100
2, 50684, Note_off_c, 0, 57, 100
2, 50688, Note_on_c, 0, 64, 80
2, 50688, Note_on_c, 0, 57, 80
2, 51068, Note_off_c, 0, 64, 100
2, 51068, Note_off_c, 0, 57, 100
2, 51072, Note_on_c, 0, 66, 80
2, 51072, Note_on_c, 0, 57, 80
2, 51836, Note_off_c, 0, 66, 100
2, 51836, Note_off_c, 0, 57, 100
2, 51840, Note_on_c, 0, 66, 80
2, 51840, Note_on_c, 0, 59, 80
2, 52220, Note_off_c, 0, 66, 100
2, 52220, Note_off_c, 0, 59, 100
2, 52224, Note_on_c, 0, 59, 84
2, 52224, Note_on_c, 0, 67, 84
2, 52988, Note_off_c, 0, 59, 100
2, 52988, Note_off_c, 0, 67, 100
2, 52992, Note_on_c, 0, 69, 94
2, 52992, Note_on_c, 0, 66, 94
2, 52992, Note_on_c, 0, 62, 94
2, 52992, Note_on_c, 0, 57, 94
2, 53372, Note_off_c, 0, 69, 100
2, 53372, Note_off_c, 0, 66, 100
2, 53372, Note_off_c, 0, 62, 100
2, 53372, Note_off_c, 0, 57, 100
2, 53376, Note_on_c, 0, 71, 99
2, 53376, Note_on_c, 0, 59, 99
2, 53376, Note_on_c, 0, 62, 99
2, 53756, Note_off_c, 0, 62, 100
2, 53760, Note_on_c, 0, 67, 104
2, 54144, Note_on_c, 0, 64, 110
2, 54524, Note_off_c, 0, 59, 100
2, 54524, Note_off_c, 0, 67, 100
2, 54524, Note_off_c, 0, 71, 100
2, 54524, Note_off_c, 0, 64, 100
2, 54528, Note_on_c, 0, 73, 113
2, 54528, Note_on_c, 0, 67, 113
2, 54528, Note_on_c, 0, 64, 113
2, 54528, Note_on_c, 0, 61, 113
2, 54716, Note_off_c, 0, 73, 100
2, 54716, Note_off_c, 0, 67, 100
2, 54716, Note_off_c, 0, 64, 100
2, 54716, Note_off_c, 0, 61, 100
2, 54720, Note_on_c, 0, 62, 114
2, 54720, Note_on_c, 0, 67, 114
2, 54720, Note_on_c, 0, 74, 114
2, 54908, Note_off_c, 0, 62, 100
2, 54908, Note_off_c, 0, 67, 100
2, 54908, Note_off_c, 0, 74, 100
2, 54912, Note_on_c, 0, 76, 116
2, 54912, Note_on_c, 0, 73, 116
2, 54912, Note_on_c, 0, 64, 116
2, 54912, Note_on_c, 0, 67, 116
2, 55100, Note_off_c, 0, 67, 100
2, 55104, Note_on_c, 0, 69, 118
2, 55292, Note_off_c, 0, 76, 100
2, 55292, Note_off_c, 0, 73, 100
2, 55292, Note_off_c, 0, 64, 100
2, 55292, Note_off_c, 0, 69, 100
2, 55296, Note_on_c, 0, 78, 119
2, 55296, Note_on_c, 0, 74, 119
2, 55296, Note_on_c, 0, 69, 119
2, 55484, Note_off_c, 0, 78, 100
2, 55484, Note_off_c, 0, 74, 100
2, 55484, Note_off_c, 0, 69, 100
2, 55488, Note_on_c, 0, 76, 80
2, 55488, Note_on_c, 0, 71, 80
2, 55488, Note_on_c, 0, 67, 80
2, 55676, Note_off_c, 0, 76, 100
2, 55676, Note_off_c, 0, 71, 100
2, 55676, Note_off_c, 0, 67, 100
2, 55680, Note_on_c, 0, 66, 80
2, 55680, Note_on_c, 0, 74, 80
2, 55868, Note_off_c, 0, 66, 100
2, 55872, Note_on_c, 0, 69, 80
2, 56060, Note_off_c, 0, 74, 100
2, 56060, Note_off_c, 0, 69, 100
2, 56064, Note_on_c, 0, 64, 80
2, 56064, Note_on_c, 0, 73, 80
2, 56088, Note_on_c, 0, 74, 80
2, 56108, Note_off_c, 0, 73, 100
2, 56112, Note_on_c, 0, 73, 80
2, 56132, Note_off_c, 0, 74, 100
2, 56136, Note_on_c, 0, 74, 80
2, 56156, Note_off_c, 0, 73, 100
2, 56160, Note_on_c, 0, 73, 80
2, 56180, Note_off_c, 0, 74, 100
2, 56184, Note_on_c, 0, 74, 80
2, 56204, Note_off_c, 0, 73, 100
2, 56208, Note_on_c, 0, 73, 80
2, 56228, Note_off_c, 0, 74, 100
2, 56232, Note_on_c, 0, 74, 80
2, 56252, Note_off_c, 0, 64, 100
2, 56252, Note_off_c, 0, 73, 100
2, 56256, Note_on_c, 0, 71, 80
2, 56256, Note_on_c, 0, 73, 80
2, 56276, Note_off_c, 0, 74, 100
2, 56280, Note_on_c, 0, 74, 80
2, 56300, Note_off_c, 0, 73, 100
2, 56304, Note_on_c, 0, 73, 80
2, 56324, Note_off_c, 0, 74, 100
2, 56328, Note_on_c, 0, 74, 80
2, 56348, Note_off_c, 0, 73, 100
2, 56352, Note_on_c, 0, 73, 80
2, 56372, Note_off_c, 0, 74, 100
2, 56376, Note_on_c, 0, 74, 80
2, 56396, Note_off_c, 0, 73, 100
2, 56400, Note_on_c, 0, 71, 80
2, 56420, Note_off_c, 0, 74, 100
2, 56424, Note_on_c, 0, 73, 80
2, 56444, Note_off_c, 0, 71, 100
2, 56444, Note_off_c, 0, 71, 100
2, 56444, Note_off_c, 0, 73, 100
2, 56448, Note_on_c, 0, 74, 80
2, 56448, Note_on_c, 0, 66, 80
2, 56636, Note_off_c, 0, 74, 100
2, 56640, Note_on_c, 0, 74, 80
2, 56828, Note_off_c, 0, 66, 100
2, 56828, Note_off_c, 0, 74, 100
2, 56832, Note_on_c, 0, 73, 80
2, 57020, Note_off_c, 0, 73, 100
2, 57024, Note_on_c, 0, 74, 80
2, 57212, Note_off_c, 0, 74, 100
2, 57216, Note_on_c, 0, 71, 80
2, 57216, Note_on_c, 0, 67, 80
2, 57404, Note_off_c, 0, 71, 100
2, 57408, Note_on_c, 0, 74, 80
2, 57596, Note_off_c, 0, 67, 100
2, 57596, Note_off_c, 0, 74, 100
2, 57600, Note_on_c, 0, 66, 80
2, 57600, Note_on_c, 0, 69, 80
2, 57788, Note_off_c, 0, 66, 100
2, 57792, Note_on_c, 0, 62, 80
2, 57980, Note_off_c, 0, 62, 100
2, 57984, Note_on_c, 0, 61, 80
2, 58172, Note_off_c, 0, 69, 100
2, 58172, Note_off_c, 0, 61, 100
2, 58176, Note_on_c, 0, 62, 80
2, 58176, Note_on_c, 0, 71, 80
2, 58268, Note_off_c, 0, 71, 100
2, 58272, Note_on_c, 0, 69, 80
2, 58364, Note_off_c, 0, 62, 100
2, 58364, Note_off_c, 0, 69, 100
2, 58368, Note_on_c, 0, 59, 80
2, 58368, Note_on_c, 0, 69, 80
2, 58460, Note_off_c, 0, 69, 100
2, 58464, Note_on_c, 0, 67, 80
2, 58556, Note_off_c, 0, 59, 100
2, 58556, Note_off_c, 0, 67, 100
2, 58560, Note_on_c, 0, 62, 80
2, 58560, Note_on_c, 0, 66, 80
2, 58652, Note_off_c, 0, 66, 100
2, 58656, Note_on_c, 0, 67, 80
2, 58748, Note_off_c, 0, 62, 100
2, 58748, Note_off_c, 0, 67, 100
2, 58752, Note_on_c, 0, 66, 80
2, 58752, Note_on_c, 0, 57, 80
2, 59132, Note_off_c, 0, 66, 100
2, 59228, Note_off_c, 0, 57, 100
2, 59232, Note_on_c, 0, 58, 80
2, 59324, Note_off_c, 0, 58, 100
2, 59328, Note_on_c, 0, 59, 80
2, 59420, Note_off_c, 0, 59, 100
2, 59424, Note_on_c, 0, 57, 80
2, 59516, Note_off_c, 0, 57, 100
2, 59520, Note_on_c, 0, 57, 80
2, 59612, Note_off_c, 0, 57, 100
2, 59616, Note_on_c, 0, 55, 80
2, 59708, Note_off_c, 0, 55, 100
2, 59712, Note_on_c, 0, 54, 80
2, 59804, Note_off_c, 0, 54, 100
2, 59808, Note_on_c, 0, 55, 80
2, 59900, Note_off_c, 0, 55, 100
2, 59904, Note_on_c, 0, 62, 80
2, 60092, Note_off_c, 0, 62, 100
2, 60096, Note_on_c, 0, 59, 80
2, 60096, Note_on_c, 0, 67, 80
2, 60284, Note_off_c, 0, 59, 100
2, 60288, Note_on_c, 0, 61, 80
2, 60476, Note_off_c, 0, 67, 100
2, 60476, Note_off_c, 0, 61, 100
2, 60480, Note_on_c, 0, 66, 80
2, 60480, Note_on_c, 0, 62, 80
2, 60668, Note_off_c, 0, 66, 100
2, 60672, Note_on_c, 0, 64, 80
2, 60860, Note_off_c, 0, 62, 100
2, 60860, Note_off_c, 0, 64, 100
2, 60864, Note_on_c, 0, 69, 80
2, 60864, Note_on_c, 0, 61, 80
2, 61052, Note_off_c, 0, 69, 100
2, 61052, Note_off_c, 0, 61, 100
2, 61056, Note_on_c, 0, 62, 80
2, 61148, Note_off_c, 0, 62, 100
2, 61152, Note_on_c, 0, 74, 80
2, 61244, Note_off_c, 0, 74, 100
2, 61248, Note_on_c, 0, 73, 80
2, 61340, Note_off_c, 0, 73, 100
2, 61344, Note_on_c, 0, 74, 80
2, 61436, Note_off_c, 0, 74, 100
2, 61440, Note_on_c, 0, 76, 80
2, 61532, Note_off_c, 0, 76, 100
2, 61536, Note_on_c, 0, 74, 80
2, 61628, Note_off_c, 0, 74, 100
2, 61632, Note_on_c, 0, 71, 80
2, 61632, Note_on_c, 0, 67, 80
2, 61724, Note_off_c, 0, 71, 100
2, 61728, Note_on_c, 0, 74, 80
2, 61820, Note_off_c, 0, 67, 100
2, 61820, Note_off_c, 0, 74, 100
2, 61824, Note_on_c, 0, 69, 80
2, 61824, Note_on_c, 0, 66, 80
2, 61916, Note_off_c, 0, 69, 100
2, 61920, Note_on_c, 0, 74, 80
2, 62012, Note_off_c, 0, 66, 100
2, 62012, Note_off_c, 0, 74, 100
2, 62016, Note_on_c, 0, 68, 80
2, 62016, Note_on_c, 0, 65, 80
2, 62108, Note_off_c, 0, 68, 100
2, 62112, Note_on_c, 0, 74, 80
2, 62204, Note_off_c, 0, 65, 100
2, 62204, Note_off_c, 0, 74, 100
2, 62208, Note_on_c, 0, 69, 80
2, 62780, Note_off_c, 0, 69, 100
2, 62784, Note_on_c, 0, 67, 80
2, 62972, Note_off_c, 0, 67, 100
2, 62976, Note_on_c, 0, 66, 80
2, 63164, Note_off_c, 0, 66, 100
2, 63168, Note_on_c, 0, 65, 80
2, 63356, Note_off_c, 0, 65, 100
2, 63360, Note_on_c, 0, 66, 80
2, 63360, Note_on_c, 0, 57, 80
2, 63740, Note_off_c, 0, 66, 100
2, 63740, Note_off_c, 0, 57, 100
2, 63936, Note_on_c, 0, 67, 80
2, 63936, Note_on_c, 0, 62, 80
2, 63936, Note_on_c, 0, 55, 80
2, 64124, Note_off_c, 0, 67, 100
2, 64124, Note_off_c, 0, 62, 100
2, 64124, Note_off_c, 0, 55, 100
2, 64128, Note_on_c, 0, 66, 80
2, 64128, Note_on_c, 0, 62, 80
2, 64128, Note_on_c, 0, 57, 80
2, 64316, Note_off_c, 0, 66, 100
2, 64316, Note_off_c, 0, 62, 100
2, 64316, Note_off_c, 0, 57, 100
2, 64320, Note_on_c, 0, 71, 80
2, 64320, Note_on_c, 0, 62, 80
2, 64320, Note_on_c, 0, 59, 80
2, 64508, Note_off_c, 0, 71, 100
2, 64508, Note_off_c, 0, 62, 100
2, 64508, Note_off_c, 0, 59, 100
2, 64512, Note_on_c, 0, 69, 80
2, 64512, Note_on_c, 0, 62, 80
2, 64512, Note_on_c, 0, 57, 80
2, 64700, Note_off_c, 0, 69, 100
2, 64700, Note_off_c, 0, 62, 100
2, 64700, Note_off_c, 0, 57, 100
2, 64704, Note_on_c, 0, 67, 80
2, 64704, Note_on_c, 0, 64, 80
2, 64704, Note_on_c, 0, 59, 80
2, 64892, Note_off_c, 0, 67, 100
2, 64892, Note_off_c, 0, 64, 100
2, 64892, Note_off_c, 0, 59, 100
2, 64896, Note_on_c, 0, 66, 80
2, 64896, Note_on_c, 0, 62, 80
2, 65276, Note_off_c, 0, 66, 100
2, 65276, Note_off_c, 0, 62, 100
2, 65280, Note_on_c, 0, 64, 80
2, 65280, Note_on_c, 0, 61, 80
2, 65660, Note_off_c, 0, 64, 100
2, 65660, Note_off_c, 0, 61, 100
2, 65664, Note_on_c, 0, 65, 120
2, 65664, Note_on_c, 0, 62, 120
2, 65664, Note_on_c, 0, 57, 120
2, 65664, Note_on_c, 0, 53, 120
2, 66044, Note_off_c, 0, 65, 100
2, 66044, Note_off_c, 0, 62, 100
2, 66044, Note_off_c, 0, 57, 100
2, 66044, Note_off_c, 0, 53, 100
2, 66048, Note_on_c, 0, 65, 120
2, 66048, Note_on_c, 0, 62, 120
2, 66048, Note_on_c, 0, 57, 120
2, 66048, Note_on_c, 0, 53, 120
2, 66428, Note_off_c, 0, 65, 100
2, 66428, Note_off_c, 0, 62, 100
2, 66428, Note_off_c, 0, 57, 100
2, 66428, Note_off_c, 0, 53, 100
2, 66432, Note_on_c, 0, 65, 120
2, 66432, Note_on_c, 0, 62, 120
2, 66432, Note_on_c, 0, 57, 120
2, 66432, Note_on_c, 0, 53, 120
2, 66812, Note_off_c, 0, 65, 100
2, 66812, Note_off_c, 0, 62, 100
2, 66812, Note_off_c, 0, 57, 100
2, 66812, Note_off_c, 0, 53, 100
2, 66816, Note_on_c, 0, 64, 120
2, 66816, Note_on_c, 0, 61, 120
2, 66816, Note_on_c, 0, 57, 120
2, 66816, Note_on_c, 0, 52, 120
2, 67196, Note_off_c, 0, 64, 100
2, 67196, Note_off_c, 0, 61, 100
2, 67196, Note_off_c, 0, 57, 100
2, 67196, Note_off_c, 0, 52, 100
2, 67200, Note_on_c, 0, 65, 120
2, 67200, Note_on_c, 0, 62, 120
2, 67200, Note_on_c, 0, 57, 120
2, 67200, Note_on_c, 0, 53, 120
2, 67964, Note_off_c, 0, 65, 100
2, 67964, Note_off_c, 0, 62, 100
2, 67964, Note_off_c, 0, 57, 100
2, 67964, Note_off_c, 0, 53, 100
2, 67968, Note_on_c, 0, 65, 120
2, 67968, Note_on_c, 0, 63, 120
2, 67968, Note_on_c, 0, 60, 120
2, 67968, Note_on_c, 0, 57, 120
2, 67968, Note_on_c, 0, 53, 120
2, 68348, Note_off_c, 0, 65, 100
2, 68348, Note_off_c, 0, 63, 100
2, 68348, Note_off_c, 0, 60, 100
2, 68348, Note_off_c, 0, 57, 100
2, 68348, Note_off_c, 0, 53, 100
2, 68352, Note_on_c, 0, 65, 120
2, 68352, Note_on_c, 0, 63, 120
2, 68352, Note_on_c, 0, 60, 120
2, 68352, Note_on_c, 0, 57, 120
2, 68352, Note_on_c, 0, 53, 120
2, 68732, Note_off_c, 0, 65, 100
2, 68732, Note_off_c, 0, 63, 100
2, 68732, Note_off_c, 0, 60, 100
2, 68732, Note_off_c, 0, 57, 100
2, 68732, Note_off_c, 0, 53, 100
2, 68736, Note_on_c, 0, 65, 120
2, 68736, Note_on_c, 0, 63, 120
2, 68736, Note_on_c, 0, 60, 120
2, 68736, Note_on_c, 0, 57, 120
2, 68736, Note_on_c, 0, 53, 120
2, 69116, Note_off_c, 0, 65, 100
2, 69116, Note_off_c, 0, 63, 100
2, 69116, Note_off_c, 0, 60, 100
2, 69116, Note_off_c, 0, 57, 100
2, 69116, Note_off_c, 0, 53, 100
2, 69120, Note_on_c, 0, 65, 120
2, 69120, Note_on_c, 0, 62, 120
2, 69120, Note_on_c, 0, 58, 120
2, 69120, Note_on_c, 0, 53, 120
2, 69884, Note_off_c, 0, 65, 100
2, 69884, Note_off_c, 0, 62, 100
2, 69884, Note_off_c, 0, 58, 100
2, 69884, Note_off_c, 0, 53, 100
2, 69888, Note_on_c, 0, 74, 120
2, 69888, Note_on_c, 0, 70, 120
2, 69888, Note_on_c, 0, 65, 120
2, 69888, Note_on_c, 0, 62, 120
2, 70268, Note_off_c, 0, 74, 100
2, 70268, Note_off_c, 0, 70, 100
2, 70268, Note_off_c, 0, 65, 100
2, 70268, Note_off_c, 0, 62, 100
2, 70272, Note_on_c, 0, 74, 120
2, 70272, Note_on_c, 0, 70, 120
2, 70272, Note_on_c, 0, 65, 120
2, 70272, Note_on_c, 0, 62, 120
2, 71036, Note_off_c, 0, 74, 100
2, 71036, Note_off_c, 0, 70, 100
2, 71036, Note_off_c, 0, 65, 100
2, 71036, Note_off_c, 0, 62, 100
2, 71040, Note_on_c, 0, 74, 120
2, 71040, Note_on_c, 0, 77, 120
2, 71040, Note_on_c, 0, 86, 120
2, 71420, Note_off_c, 0, 74, 100
2, 71420, Note_off_c, 0, 77, 100
2, 71420, Note_off_c, 0, 86, 100
2, 71424, Note_on_c, 0, 74, 120
2, 71424, Note_on_c, 0, 77, 120
2, 71424, Note_on_c, 0, 86, 120
2, 72188, Note_off_c, 0, 74, 100
2, 72188, Note_off_c, 0, 77, 100
2, 72188, Note_off_c, 0, 86, 100
2, 72192, Note_on_c, 0, 74, 120
2, 72192, Note_on_c, 0, 77, 120
2, 72572, Note_off_c, 0, 74, 100
2, 72572, Note_off_c, 0, 77, 100
2, 72576, Note_on_c, 0, 76, 120
2, 72576, Note_on_c, 0, 73, 120
2, 72576, Note_on_c, 0, 69, 120
2, 72764, Note_off_c, 0, 69, 100
2, 72768, Note_on_c, 0, 68, 120
2, 72956, Note_off_c, 0, 76, 100
2, 72956, Note_off_c, 0, 73, 100
2, 72956, Note_off_c, 0, 68, 100
2, 72960, Note_on_c, 0, 69, 80
2, 73152, Note_on_c, 0, 76, 80
2, 73152, Note_on_c, 0, 79, 80
2, 73340, Note_off_c, 0, 76, 100
2, 73340, Note_off_c, 0, 79, 100
2, 73344, Note_on_c, 0, 76, 80
2, 73344, Note_on_c, 0, 73, 80
2, 73532, Note_off_c, 0, 76, 100
2, 73532, Note_off_c, 0, 73, 100
2, 73536, Note_on_c, 0, 74, 80
2, 73536, Note_on_c, 0, 71, 80
2, 73724, Note_off_c, 0, 69, 100
2, 73724, Note_off_c, 0, 74, 100
2, 73724, Note_off_c, 0, 71, 100
2, 73728, Note_on_c, 0, 73, 80
2, 73728, Note_on_c, 0, 69, 80
2, 74108, Note_off_c, 0, 73, 100
2, 74108, Note_off_c, 0, 69, 100
2, 74304, Note_on_c, 0, 79, 80
2, 74304, Note_on_c, 0, 83, 80
2, 74492, Note_off_c, 0, 79, 100
2, 74492, Note_off_c, 0, 83, 100
2, 74496, Note_on_c, 0, 76, 80
2, 74496, Note_on_c, 0, 79, 80
2, 74684, Note_off_c, 0, 76, 100
2, 74684, Note_off_c, 0, 79, 100
2, 74688, Note_on_c, 0, 74, 80
2, 74688, Note_on_c, 0, 78, 80
2, 74876, Note_off_c, 0, 74, 100
2, 74876, Note_off_c, 0, 78, 100
2, 74880, Note_on_c, 0, 76, 80
2, 74880, Note_on_c, 0, 73, 80
2, 75260, Note_off_c, 0, 76, 100
2, 75260, Note_off_c, 0, 73, 100
2, 75456, Note_on_c, 0, 88, 80
2, 75456, Note_on_c, 0, 83, 80
2, 75456, Note_on_c, 0, 79, 80
2, 75644, Note_off_c, 0, 88, 100
2, 75644, Note_off_c, 0, 83, 100
2, 75644, Note_off_c, 0, 79, 100
2, 75648, Note_on_c, 0, 85, 80
2, 75648, Note_on_c, 0, 79, 80
2, 75648, Note_on_c, 0, 76, 80
2, 75836, Note_off_c, 0, 85, 100
2, 75836, Note_off_c, 0, 79, 100
2, 75836, Note_off_c, 0, 76, 100
2, 75840, Note_on_c, 0, 83, 80
2, 75840, Note_on_c, 0, 78, 80
2, 75840, Note_on_c, 0, 74, 80
2, 76028, Note_off_c, 0, 83, 100
2, 76028, Note_off_c, 0, 78, 100
2, 76028, Note_off_c, 0, 74, 100
2, 76032, Note_on_c, 0, 81, 80
2, 76032, Note_on_c, 0, 76, 80
2, 76032, Note_on_c, 0, 73, 80
2, 76220, Note_off_c, 0, 81, 100
2, 76220, Note_off_c, 0, 76, 100
2, 76220, Note_off_c, 0, 73, 100
2, 76224, Note_on_c, 0, 79, 80
2, 76224, Note_on_c, 0, 74, 80
2, 76224, Note_on_c, 0, 71, 80
2, 76412, Note_off_c, 0, 79, 100
2, 76412, Note_off_c, 0, 74, 100
2, 76412, Note_off_c, 0, 71, 100
2, 76416, Note_on_c, 0, 78, 80
2, 76416, Note_on_c, 0, 73, 80
2, 76416, Note_on_c, 0, 69, 80
2, 76604, Note_off_c, 0, 78, 100
2, 76604, Note_off_c, 0, 73, 100
2, 76604, Note_off_c, 0, 69, 100
2, 76608, Note_on_c, 0, 76, 80
2, 76608, Note_on_c, 0, 71, 80
2, 76796, Note_off_c, 0, 76, 100
2, 76796, Note_off_c, 0, 71, 100
2, 76800, Note_on_c, 0, 74, 80
2, 76800, Note_on_c, 0, 69, 80
2, 76988, Note_off_c, 0, 74, 100
2, 76988, Note_off_c, 0, 69, 100
2, 76992, Note_on_c, 0, 76, 80
2, 76992, Note_on_c, 0, 73, 80
2, 76992, Note_on_c, 0, 67, 80
2, 77180, Note_off_c, 0, 76, 100
2, 77180, Note_off_c, 0, 73, 100
2, 77180, Note_off_c, 0, 67, 100
2, 77184, Note_on_c, 0, 78, 80
2, 77184, Note_on_c, 0, 69, 80
2, 77276, Note_off_c, 0, 69, 100
2, 77280, Note_on_c, 0, 69, 80
2, 77372, Note_off_c, 0, 69, 100
2, 77376, Note_on_c, 0, 68, 80
2, 77468, Note_off_c, 0, 68, 100
2, 77472, Note_on_c, 0, 69, 80
2, 77564, Note_off_c, 0, 78, 100
2, 77564, Note_off_c, 0, 69, 100
2, 77568, Note_on_c, 0, 78, 80
2, 77568, Note_on_c, 0, 69, 80
2, 77660, Note_off_c, 0, 69, 100
2, 77664, Note_on_c, 0, 69, 80
2, 77756, Note_off_c, 0, 69, 100
2, 77760, Note_on_c, 0, 68, 80
2, 77852, Note_off_c, 0, 68, 100
2, 77856, Note_on_c, 0, 69, 80
2, 77948, Note_off_c, 0, 78, 100
2, 77948, Note_off_c, 0, 69, 100
2, 77952, Note_on_c, 0, 78, 80
2, 77952, Note_on_c, 0, 69, 80
2, 78044, Note_off_c, 0, 69, 100
2, 78048, Note_on_c, 0, 69, 80
2, 78140, Note_off_c, 0, 69, 100
2, 78144, Note_on_c, 0, 68, 80
2, 78236, Note_off_c, 0, 68, 100
2, 78240, Note_on_c, 0, 69, 80
2, 78332, Note_off_c, 0, 78, 100
2, 78332, Note_off_c, 0, 69, 100
2, 78336, Note_on_c, 0, 69, 80
2, 78336, Note_on_c, 0, 76, 80
2, 78428, Note_off_c, 0, 69, 100
2, 78432, Note_on_c, 0, 69, 80
2, 78524, Note_off_c, 0, 69, 100
2, 78528, Note_on_c, 0, 68, 80
2, 78620, Note_off_c, 0, 68, 100
2, 78624, Note_on_c, 0, 69, 80
2, 78716, Note_off_c, 0, 76, 100
2, 78716, Note_off_c, 0, 69, 100
2, 78720, Note_on_c, 0, 69, 80
2, 78720, Note_on_c, 0, 78, 80
2, 78812, Note_off_c, 0, 69, 100
2, 78816, Note_on_c, 0, 69, 80
2, 78908, Note_off_c, 0, 69, 100
2, 78912, Note_on_c, 0, 68, 80
2, 79004, Note_off_c, 0, 68, 100
2, 79008, Note_on_c, 0, 69, 80
2, 79100, Note_off_c, 0, 69, 100
2, 79104, Note_on_c, 0, 69, 80
2, 79196, Note_off_c, 0, 69, 100
2, 79200, Note_on_c, 0, 69, 80
2, 79292, Note_off_c, 0, 69, 100
2, 79296, Note_on_c, 0, 68, 80
2, 79388, Note_off_c, 0, 68, 100
2, 79392, Note_on_c, 0, 69, 80
2, 79484, Note_off_c, 0, 78, 100
2, 79484, Note_off_c, 0, 69, 100
2, 79488, Note_on_c, 0, 69, 80
2, 79488, Note_on_c, 0, 79, 80
2, 79580, Note_off_c, 0, 69, 100
2, 79584, Note_on_c, 0, 69, 80
2, 79676, Note_off_c, 0, 69, 100
2, 79680, Note_on_c, 0, 68, 80
2, 79772, Note_off_c, 0, 68, 100
2, 79776, Note_on_c, 0, 69, 80
2, 79868, Note_off_c, 0, 69, 100
2, 79872, Note_on_c, 0, 69, 80
2, 79964, Note_off_c, 0, 69, 100
2, 79968, Note_on_c, 0, 69, 80
2, 80060, Note_off_c, 0, 69, 100
2, 80064, Note_on_c, 0, 68, 80
2, 80156, Note_off_c, 0, 68, 100
2, 80160, Note_on_c, 0, 69, 80
2, 80252, Note_off_c, 0, 79, 100
2, 80252, Note_off_c, 0, 69, 100
2, 80256, Note_on_c, 0, 69, 80
2, 80256, Note_on_c, 0, 78, 80
2, 80348, Note_off_c, 0, 69, 100
2, 80352, Note_on_c, 0, 69, 80
2, 80444, Note_off_c, 0, 69, 100
2, 80448, Note_on_c, 0, 68, 80
2, 80540, Note_off_c, 0, 68, 100
2, 80544, Note_on_c, 0, 69, 80
2, 80636, Note_off_c, 0, 78, 100
2, 80636, Note_off_c, 0, 69, 100
2, 80640, Note_on_c, 0, 69, 80
2, 80640, Note_on_c, 0, 76, 80
2, 80732, Note_off_c, 0, 69, 100
2, 80736, Note_on_c, 0, 69, 80
2, 80828, Note_off_c, 0, 76, 100
2, 80828, Note_off_c, 0, 69, 100
2, 80832, Note_on_c, 0, 68, 80
2, 80924, Note_off_c, 0, 68, 100
2, 80928, Note_on_c, 0, 69, 80
2, 81020, Note_off_c, 0, 69, 100
2, 81024, Note_on_c, 0, 68, 80
2, 81116, Note_off_c, 0, 68, 100
2, 81120, Note_on_c, 0, 69, 80
2, 81212, Note_off_c, 0, 69, 100
2, 81216, Note_on_c, 0, 71, 80
2, 81308, Note_off_c, 0, 71, 100
2, 81312, Note_on_c, 0, 69, 80
2, 81404, Note_off_c, 0, 69, 100
2, 81408, Note_on_c, 0, 69, 80
2, 81500, Note_off_c, 0, 69, 100
2, 81504, Note_on_c, 0, 67, 80
2, 81596, Note_off_c, 0, 67, 100
2, 81600, Note_on_c, 0, 66, 80
2, 81692, Note_off_c, 0, 66, 100
2, 81696, Note_on_c, 0, 64, 80
2, 81788, Note_off_c, 0, 64, 100
2, 81792, Note_on_c, 0, 69, 80
2, 81792, Note_on_c, 0, 62, 80
2, 81884, Note_off_c, 0, 62, 100
2, 81888, Note_on_c, 0, 62, 80
2, 81980, Note_off_c, 0, 62, 100
2, 81984, Note_on_c, 0, 61, 80
2, 82076, Note_off_c, 0, 61, 100
2, 82080, Note_on_c, 0, 62, 80
2, 82172, Note_off_c, 0, 69, 100
2, 82172, Note_off_c, 0, 62, 100
2, 82176, Note_on_c, 0, 69, 80
2, 82176, Note_on_c, 0, 62, 80
2, 82268, Note_off_c, 0, 62, 100
2, 82272, Note_on_c, 0, 62, 80
2, 82364, Note_off_c, 0, 62, 100
2, 82368, Note_on_c, 0, 61, 80
2, 82460, Note_off_c, 0, 61, 100
2, 82464, Note_on_c, 0, 62, 80
2, 82556, Note_off_c, 0, 69, 100
2, 82556, Note_off_c, 0, 62, 100
2, 82560, Note_on_c, 0, 70, 80
2, 82560, Note_on_c, 0, 62, 80
2, 82652, Note_off_c, 0, 62, 100
2, 82656, Note_on_c, 0, 62, 80
2, 82748, Note_off_c, 0, 62, 100
2, 82752, Note_on_c, 0, 61, 80
2, 82844, Note_off_c, 0, 61, 100
2, 82848, Note_on_c, 0, 62, 80
2, 82940, Note_off_c, 0, 70, 100
2, 82940, Note_off_c, 0, 62, 100
2, 82944, Note_on_c, 0, 62, 80
2, 82944, Note_on_c, 0, 71, 80
2, 83036, Note_off_c, 0, 62, 100
2, 83040, Note_on_c, 0, 62, 80
2, 83132, Note_off_c, 0, 62, 100
2, 83136, Note_on_c, 0, 61, 80
2, 83228, Note_off_c, 0, 61, 100
2, 83232, Note_on_c, 0, 62, 80
2, 83324, Note_off_c, 0, 62, 100
2, 83328, Note_on_c, 0, 62, 80
2, 83420, Note_off_c, 0, 62, 100
2, 83424, Note_on_c, 0, 62, 80
2, 83516, Note_off_c, 0, 62, 100
2, 83520, Note_on_c, 0, 64, 80
2, 83612, Note_off_c, 0, 64, 100
2, 83616, Note_on_c, 0, 64, 80
2, 83708, Note_off_c, 0, 71, 100
2, 83708, Note_off_c, 0, 64, 100
2, 83712, Note_on_c, 0, 66, 80
2, 83712, Note_on_c, 0, 69, 101
2, 83804, Note_off_c, 0, 66, 100
2, 83808, Note_on_c, 0, 57, 80
2, 83900, Note_off_c, 0, 69, 100
2, 83900, Note_off_c, 0, 57, 100
2, 83904, Note_on_c, 0, 61, 80
2, 83904, Note_on_c, 0, 67, 80
2, 83996, Note_off_c, 0, 61, 100
2, 84000, Note_on_c, 0, 57, 80
2, 84092, Note_off_c, 0, 67, 100
2, 84092, Note_off_c, 0, 57, 100
2, 84096, Note_on_c, 0, 66, 80
2, 84096, Note_on_c, 0, 62, 80
2, 84188, Note_off_c, 0, 62, 100
2, 84192, Note_on_c, 0, 57, 80
2, 84284, Note_off_c, 0, 66, 100
2, 84284, Note_off_c, 0, 57, 100
2, 84288, Note_on_c, 0, 64, 80
2, 84288, Note_on_c, 0, 59, 80
2, 84380, Note_off_c, 0, 59, 100
2, 84384, Note_on_c, 0, 55, 80
2, 84476, Note_off_c, 0, 64, 100
2, 84476, Note_off_c, 0, 55, 100
2, 84480, Note_on_c, 0, 62, 80
2, 84480, Note_on_c, 0, 54, 80
2, 84572, Note_off_c, 0, 54, 100
2, 84576, Note_on_c, 0, 57, 80
2, 84668, Note_off_c, 0, 57, 100
2, 84672, Note_on_c, 0, 57, 80
2, 84764, Note_off_c, 0, 57, 100
2, 84768, Note_on_c, 0, 57, 80
2, 84860, Note_off_c, 0, 62, 100
2, 84860, Note_off_c, 0, 57, 100
2, 84864, Note_on_c, 0, 61, 80
2, 84864, Note_on_c, 0, 55, 80
2, 84956, Note_off_c, 0, 55, 100
2, 84960, Note_on_c, 0, 57, 80
2, 85052, Note_off_c, 0, 57, 100
2, 85056, Note_on_c, 0, 57, 80
2, 85148, Note_off_c, 0, 57, 100
2, 85152, Note_on_c, 0, 57, 80
2, 85244, Note_off_c, 0, 61, 100
2, 85244, Note_off_c, 0, 57, 100
2, 85248, Note_on_c, 0, 62, 80
2, 85248, Note_on_c, 0, 57, 80
2, 85248, Note_on_c, 0, 54, 80
2, 85628, Note_off_c, 0, 62, 100
2, 85628, Note_off_c, 0, 57, 100
2, 85628, Note_off_c, 0, 54, 100
2, 86016, Note_on_c, 0, 64, 80
2, 86016, Note_on_c, 0, 61, 80
2, 86016, Note_on_c, 0, 67, 80
2, 86300, Note_off_c, 0, 67, 100
2, 86304, Note_on_c, 0, 69, 80
2, 86396, Note_off_c, 0, 64, 100
2, 86396, Note_off_c, 0, 61, 100
2, 86396, Note_off_c, 0, 69, 100
2, 86400, Note_on_c, 0, 66, 80
2, 86400, Note_on_c, 0, 62, 80
2, 86400, Note_on_c, 0, 57, 80
2, 86588, Note_off_c, 0, 66, 100
2, 86588, Note_off_c, 0, 62, 100
2, 86588, Note_off_c, 0, 57, 100
2, 87168, Note_on_c, 0, 61, 80
2, 87168, Note_on_c, 0, 55, 80
2, 87168, Note_on_c, 0, 64, 80
2, 87452, Note_off_c, 0, 64, 100
2, 87456, Note_on_c, 0, 66, 80
2, 87548, Note_off_c, 0, 61, 100
2, 87548, Note_off_c, 0, 55, 100
2, 87548, Note_off_c, 0, 66, 100
2, 87552, Note_on_c, 0, 62, 80
2, 87552, Note_on_c, 0, 57, 80
2, 87552, Note_on_c, 0, 54, 80
2, 87740, Note_off_c, 0, 62, 100
2, 87740, Note_off_c, 0, 57, 100
2, 87740, Note_off_c, 0, 54, 100
2, 88320, Note_on_c, 0, 64, 80
2, 88320, Note_on_c, 0, 61, 80
2, 88320, Note_on_c, 0, 67, 80
2, 88412, Note_off_c, 0, 67, 100
2, 88416, Note_on_c, 0, 71, 80
2, 88508, Note_off_c, 0, 71, 100
2, 88512, Note_on_c, 0, 69, 80
2, 88604, Note_off_c, 0, 69, 100
2, 88608, Note_on_c, 0, 67, 80
2, 88700, Note_off_c, 0, 64, 100
2, 88700, Note_off_c, 0, 61, 100
2, 88700, Note_off_c, 0, 67, 100
2, 88704, Note_on_c, 0, 66, 80
2, 88704, Note_on_c, 0, 62, 80
2, 88704, Note_on_c, 0, 57, 80
2, 88892, Note_off_c, 0, 66, 100
2, 88892, Note_off_c, 0, 62, 100
2, 88892, Note_off_c, 0, 57, 100
2, 89472, Note_on_c, 0, 61, 80
2, 89472, Note_on_c, 0, 55, 80
2, 89472, Note_on_c, 0, 64, 80
2, 89564, Note_off_c, 0, 64, 100
2, 89568, Note_on_c, 0, 67, 80
2, 89660, Note_off_c, 0, 67, 100
2, 89664, Note_on_c, 0, 66, 80
2, 89756, Note_off_c, 0, 66, 100
2, 89760, Note_on_c, 0, 64, 80
2, 89852, Note_off_c, 0, 61, 100
2, 89852, Note_off_c, 0, 55, 100
2, 89852, Note_off_c, 0, 64, 100
2, 89856, Note_on_c, 0, 62, 80
2, 89856, Note_on_c, 0, 54, 80
2, 90428, Note_off_c, 0, 54, 100
2, 90432, Note_on_c, 0, 57, 80
2, 90620, Note_off_c, 0, 62, 100
2, 90620, Note_off_c, 0, 57, 100
2, 90624, Note_on_c, 0, 62, 80
2, 90624, Note_on_c, 0, 54, 80
2, 90812, Note_off_c, 0, 54, 100
2, 90816, Note_on_c, 0, 57, 80
2, 91004, Note_off_c, 0, 62, 100
2, 91004, Note_off_c, 0, 57, 100
2, 91008, Note_on_c, 0, 62, 80
2, 91008, Note_on_c, 0, 54, 80
2, 92156, Note_off_c, 0, 62, 100
2, 92156, Note_off_c, 0, 54, 100
2, 92160, Control_c, 0, 7, 0
2, 92352, Note_on_c, 0, 66, 1
2, 92540, Note_off_c, 0, 66, 100
2, 92540, End_track
3, 0, Start_track
3, 0, Title_t, "Left"
3, 0, Control_c, 1, 0, 0
3, 0, Program_c, 1, 0
3, 0, Control_c, 1, 7, 100
3, 0, Control_c, 1, 10, 58
3, 0, Control_c, 1, 91, 127
3, 0, Key_signature, 2, "major"
3, 0, Note_on_c, 1, 50, 80
3, 0, Note_on_c, 1, 38, 80
3, 92, Note_off_c, 1, 38, 100
3, 192, Note_on_c, 1, 40, 80
3, 284, Note_off_c, 1, 40, 100
3, 380, Note_off_c, 1, 50, 100
3, 384, Note_on_c, 1, 50, 80
3, 384, Note_on_c, 1, 42, 80
3, 476, Note_off_c, 1, 42, 100
3, 576, Note_on_c, 1, 40, 80
3, 668, Note_off_c, 1, 40, 100
3, 764, Note_off_c, 1, 50, 100
3, 768, Note_on_c, 1, 50, 80
3, 768, Note_on_c, 1, 42, 80
3, 860, Note_off_c, 1, 42, 100
3, 960, Note_on_c, 1, 38, 80
3, 1052, Note_off_c, 1, 38, 100
3, 1148, Note_off_c, 1, 50, 100
3, 1152, Note_on_c, 1, 49, 80
3, 1152, Note_on_c, 1, 43, 80
3, 1244, Note_off_c, 1, 43, 100
3, 1344, Note_on_c, 1, 45, 80
3, 1436, Note_off_c, 1, 45, 100
3, 1532, Note_off_c, 1, 49, 100
3, 1536, Note_on_c, 1, 50, 80
3, 1536, Note_on_c, 1, 42, 80
3, 1628, Note_off_c, 1, 42, 100
3, 1728, Note_on_c, 1, 40, 80
3, 1820, Note_off_c, 1, 40, 100
3, 1920, Note_on_c, 1, 42, 80
3, 2012, Note_off_c, 1, 42, 100
3, 2112, Note_on_c, 1, 38, 80
3, 2204, Note_off_c, 1, 38, 100
3, 2300, Note_off_c, 1, 50, 100
3, 2304, Note_on_c, 1, 52, 80
3, 2304, Note_on_c, 1, 37, 80
3, 2396, Note_off_c, 1, 37, 100
3, 2496, Note_on_c, 1, 45, 80
3, 2588, Note_off_c, 1, 45, 100
3, 2688, Note_on_c, 1, 47, 80
3, 2780, Note_off_c, 1, 47, 100
3, 2880, Note_on_c, 1, 49, 80
3, 2972, Note_off_c, 1, 49, 100
3, 3068, Note_off_c, 1, 52, 100
3, 3072, Note_on_c, 1, 50, 80
3, 3264, Note_on_c, 1, 44, 80
3, 3356, Note_off_c, 1, 44, 100
3, 3452, Note_off_c, 1, 50, 100
3, 3456, Note_on_c, 1, 45, 80
3, 3456, Note_on_c, 1, 49, 80
3, 3644, Note_off_c, 1, 45, 100
3, 3644, Note_off_c, 1, 49, 100
3, 3648, Note_on_c, 1, 45, 80
3, 3840, Note_on_c, 1, 44, 80
3, 4028, Note_off_c, 1, 44, 100
3, 4032, Note_on_c, 1, 43, 80
3, 4220, Note_off_c, 1, 43, 100
3, 4224, Note_on_c, 1, 42, 80
3, 4412, Note_off_c, 1, 42, 100
3, 4416, Note_on_c, 1, 40, 80
3, 4604, Note_off_c, 1, 45, 100
3, 4604, Note_off_c, 1, 40, 100
3, 4608, Note_on_c, 1, 50, 80
3, 4608, Note_on_c, 1, 38, 80
3, 4700, Note_off_c, 1, 38, 100
3, 4800, Note_on_c, 1, 40, 80
3, 4892, Note_off_c, 1, 40, 100
3, 4988, Note_off_c, 1, 50, 100
3, 4992, Note_on_c, 1, 50, 80
3, 4992, Note_on_c, 1, 42, 80
3, 5084, Note_off_c, 1, 42, 100
3, 5184, Note_on_c, 1, 40, 80
3, 5276, Note_off_c, 1, 40, 100
3, 5372, Note_off_c, 1, 50, 100
3, 5376, Note_on_c, 1, 50, 80
3, 5376, Note_on_c, 1, 42, 80
3, 5468, Note_off_c, 1, 42, 100
3, 5568, Note_on_c, 1, 38, 80
3, 5660, Note_off_c, 1, 50, 100
3, 5660, Note_off_c, 1, 38, 100
3, 5664, Note_on_c, 1, 55, 80
3, 5756, Note_off_c, 1, 55, 100
3, 5760, Note_on_c, 1, 43, 80
3, 5760, Note_on_c, 1, 55, 80
3, 5948, Note_off_c, 1, 43, 100
3, 5952, Note_on_c, 1, 45, 80
3, 6140, Note_off_c, 1, 45, 100
3, 6144, Note_on_c, 1, 47, 80
3, 6332, Note_off_c, 1, 47, 100
3, 6336, Note_on_c, 1, 49, 80
3, 6524, Note_off_c, 1, 55, 100
3, 6524, Note_off_c, 1, 49, 100
3, 6528, Note_on_c, 1, 50, 80
3, 6528, Note_on_c, 1, 54, 80
3, 6716, Note_off_c, 1, 50, 100
3, 6716, Note_off_c, 1, 54, 100
3, 6720, Note_on_c, 1, 52, 80
3, 6720, Note_on_c, 1, 55, 80
3, 6908, Note_off_c, 1, 52, 100
3, 6908, Note_off_c, 1, 55, 100
3, 6912, Note_on_c, 1, 57, 80
3, 6912, Note_on_c, 1, 54, 80
3, 7100, Note_off_c, 1, 57, 100
3, 7100, Note_off_c, 1, 54, 100
3, 7104, Note_on_c, 1, 55, 80
3, 7104, Note_on_c, 1, 43, 80
3, 7292, Note_off_c, 1, 55, 100
3, 7292, Note_off_c, 1, 43, 100
3, 7296, Note_on_c, 1, 54, 80
3, 7296, Note_on_c, 1, 45, 80
3, 7484, Note_off_c, 1, 54, 100
3, 7488, Note_on_c, 1, 57, 80
3, 7676, Note_off_c, 1, 45, 100
3, 7676, Note_off_c, 1, 57, 100
3, 7680, Note_on_c, 1, 55, 80
3, 7680, Note_on_c, 1, 45, 80
3, 7868, Note_off_c, 1, 55, 100
3, 7872, Note_on_c, 1, 57, 80
3, 8060, Note_off_c, 1, 57, 100
3, 8064, Note_on_c, 1, 38, 80
3, 8252, Note_off_c, 1, 45, 100
3, 8256, Note_on_c, 1, 47, 80
3, 8348, Note_off_c, 1, 47, 100
3, 8352, Note_on_c, 1, 49, 80
3, 8444, Note_off_c, 1, 49, 100
3, 8448, Note_on_c, 1, 50, 80
3, 8636, Note_off_c, 1, 38, 100
3, 8636, Note_off_c, 1, 50, 100
3, 9408, Note_on_c, 1, 64, 80
3, 9596, Note_off_c, 1, 64, 100
3, 9600, Note_on_c, 1, 57, 80
3, 9600, Note_on_c, 1, 61, 80
3, 9788, Note_off_c, 1, 61, 100
3, 9792, Note_on_c, 1, 64, 80
3, 9980, Note_off_c, 1, 57, 100
3, 9980, Note_off_c, 1, 64, 100
3, 9984, Note_on_c, 1, 59, 80
3, 9984, Note_on_c, 1, 62, 80
3, 10172, Note_off_c, 1, 62, 100
3, 10176, Note_on_c, 1, 64, 80
3, 10364, Note_off_c, 1, 59, 100
3, 10364, Note_off_c, 1, 64, 100
3, 10368, Note_on_c, 1, 57, 80
3, 11040, Note_on_c, 1, 54, 80
3, 11088, Note_on_c, 1, 56, 80
3, 11132, Note_off_c, 1, 57, 100
3, 11132, Note_off_c, 1, 54, 100
3, 11132, Note_off_c, 1, 56, 100
3, 11136, Note_on_c, 1, 56, 80
3, 11160, Note_on_c, 1, 57, 80
3, 11180, Note_off_c, 1, 56, 100
3, 11184, Note_on_c, 1, 56, 80
3, 11204, Note_off_c, 1, 57, 100
3, 11208, Note_on_c, 1, 57, 80
3, 11228, Note_off_c, 1, 56, 100
3, 11232, Note_on_c, 1, 56, 80
3, 11252, Note_off_c, 1, 57, 100
3, 11256, Note_on_c, 1, 57, 80
3, 11276, Note_off_c, 1, 56, 100
3, 11280, Note_on_c, 1, 56, 80
3, 11300, Note_off_c, 1, 57, 100
3, 11304, Note_on_c, 1, 57, 80
3, 11324, Note_off_c, 1, 56, 100
3, 11328, Note_on_c, 1, 56, 80
3, 11348, Note_off_c, 1, 57, 100
3, 11352, Note_on_c, 1, 57, 80
3, 11372, Note_off_c, 1, 56, 100
3, 11376, Note_on_c, 1, 56, 80
3, 11396, Note_off_c, 1, 57, 100
3, 11400, Note_on_c, 1, 57, 80
3, 11420, Note_off_c, 1, 56, 100
3, 11424, Note_on_c, 1, 56, 80
3, 11444, Note_off_c, 1, 57, 100
3, 11448, Note_on_c, 1, 57, 80
3, 11468, Note_off_c, 1, 56, 100
3, 11472, Note_on_c, 1, 54, 80
3, 11492, Note_off_c, 1, 57, 100
3, 11496, Note_on_c, 1, 56, 80
3, 11516, Note_off_c, 1, 54, 100
3, 11516, Note_off_c, 1, 56, 100
3, 11520, Note_on_c, 1, 57, 80
3, 11708, Note_off_c, 1, 57, 100
3, 11712, Note_on_c, 1, 52, 80
3, 11900, Note_off_c, 1, 52, 100
3, 11904, Note_on_c, 1, 49, 80
3, 12092, Note_off_c, 1, 49, 100
3, 12096, Note_on_c, 1, 52, 80
3, 12284, Note_off_c, 1, 52, 100
3, 12288, Note_on_c, 1, 50, 80
3, 12476, Note_off_c, 1, 50, 100
3, 12480, Note_on_c, 1, 52, 80
3, 12668, Note_off_c, 1, 52, 100
3, 12672, Note_on_c, 1, 49, 80
3, 12860, Note_off_c, 1, 49, 100
3, 12864, Note_on_c, 1, 45, 80
3, 13052, Note_off_c, 1, 45, 100
3, 13056, Note_on_c, 1, 47, 80
3, 13436, Note_off_c, 1, 47, 100
3, 13440, Note_on_c, 1, 49, 80
3, 13820, Note_off_c, 1, 49, 100
3, 13824, Note_on_c, 1, 50, 80
3, 13824, Note_on_c, 1, 38, 80
3, 13916, Note_off_c, 1, 38, 100
3, 14016, Note_on_c, 1, 40, 80
3, 14108, Note_off_c, 1, 40, 100
3, 14204, Note_off_c, 1, 50, 100
3, 14208, Note_on_c, 1, 50, 81
3, 14208, Note_on_c, 1, 42, 81
3, 14300, Note_off_c, 1, 42, 100
3, 14400, Note_on_c, 1, 40, 82
3, 14492, Note_off_c, 1, 40, 100
3, 14588, Note_off_c, 1, 50, 100
3, 14592, Note_on_c, 1, 50, 83
3, 14592, Note_on_c, 1, 42, 83
3, 14684, Note_off_c, 1, 42, 100
3, 14784, Note_on_c, 1, 38, 84
3, 14876, Note_off_c, 1, 38, 100
3, 14972, Note_off_c, 1, 50, 100
3, 14976, Note_on_c, 1, 49, 84
3, 14976, Note_on_c, 1, 43, 84
3, 15068, Note_off_c, 1, 43, 100
3, 15168, Note_on_c, 1, 45, 85
3, 15260, Note_off_c, 1, 45, 100
3, 15356, Note_off_c, 1, 49, 100
3, 15360, Note_on_c, 1, 50, 86
3, 15360, Note_on_c, 1, 42, 86
3, 15452, Note_off_c, 1, 42, 100
3, 15552, Note_on_c, 1, 40, 87
3, 15644, Note_off_c, 1, 40, 100
3, 15744, Note_on_c, 1, 42, 88
3, 15836, Note_off_c, 1, 42, 100
3, 15936, Note_on_c, 1, 38, 89
3, 16028, Note_off_c, 1, 38, 100
3, 16124, Note_off_c, 1, 50, 100
3, 16128, Note_on_c, 1, 51, 89
3, 16128, Note_on_c, 1, 45, 89
3, 16220, Note_off_c, 1, 45, 100
3, 16320, Note_on_c, 1, 47, 90
3, 16412, Note_off_c, 1, 47, 100
3, 16508, Note_off_c, 1, 51, 100
3, 16512, Note_on_c, 1, 52, 91
3, 16512, Note_on_c, 1, 43, 91
3, 16604, Note_off_c, 1, 43, 100
3, 16704, Note_on_c, 1, 42, 92
3, 16796, Note_off_c, 1, 42, 100
3, 16896, Note_on_c, 1, 43, 93
3, 16988, Note_off_c, 1, 43, 100
3, 17088, Note_on_c, 1, 40, 94
3, 17180, Note_off_c, 1, 40, 100
3, 17276, Note_off_c, 1, 52, 100
3, 17280, Note_on_c, 1, 54, 94
3, 17280, Note_on_c, 1, 48, 94
3, 17372, Note_off_c, 1, 48, 100
3, 17472, Note_on_c, 1, 50, 95
3, 17564, Note_off_c, 1, 50, 100
3, 17660, Note_off_c, 1, 54, 100
3, 17664, Note_on_c, 1, 55, 96
3, 17664, Note_on_c, 1, 47, 96
3, 17756, Note_off_c, 1, 47, 100
3, 17856, Note_on_c, 1, 47, 97
3, 17948, Note_off_c, 1, 47, 100
3, 18048, Note_on_c, 1, 43, 98
3, 18140, Note_off_c, 1, 43, 100
3, 18236, Note_off_c, 1, 55, 100
3, 18240, Note_on_c, 1, 54, 99
3, 18240, Note_on_c, 1, 42, 99
3, 18332, Note_off_c, 1, 42, 100
3, 18428, Note_off_c, 1, 54, 100
3, 18432, Note_on_c, 1, 52, 100
3, 18432, Note_on_c, 1, 40, 100
3, 18620, Note_off_c, 1, 52, 100
3, 18620, Note_off_c, 1, 40, 100
3, 18624, Note_on_c, 1, 50, 103
3, 18624, Note_on_c, 1, 38, 103
3, 18812, Note_off_c, 1, 50, 100
3, 18812, Note_off_c, 1, 38, 100
3, 18816, Note_on_c, 1, 49, 107
3, 18816, Note_on_c, 1, 37, 107
3, 19004, Note_off_c, 1, 49, 100
3, 19004, Note_off_c, 1, 37, 100
3, 19008, Note_on_c, 1, 47, 111
3, 19008, Note_on_c, 1, 35, 111
3, 19196, Note_off_c, 1, 47, 100
3, 19196, Note_off_c, 1, 35, 100
3, 19200, Note_on_c, 1, 45, 115
3, 19200, Note_on_c, 1, 33, 115
3, 19388, Note_off_c, 1, 45, 100
3, 19388, Note_off_c, 1, 33, 100
3, 19392, Note_on_c, 1, 43, 119
3, 19392, Note_on_c, 1, 31, 119
3, 19580, Note_off_c, 1, 43, 100
3, 19580, Note_off_c, 1, 31, 100
3, 19584, Note_on_c, 1, 42, 120
3, 19584, Note_on_c, 1, 30, 120
3, 19772, Note_off_c, 1, 42, 100
3, 19772, Note_off_c, 1, 30, 100
3, 19776, Note_on_c, 1, 43, 101
3, 19776, Note_on_c, 1, 31, 101
3, 19964, Note_off_c, 1, 43, 100
3, 19964, Note_off_c, 1, 31, 100
3, 19968, Note_on_c, 1, 45, 80
3, 19968, Note_on_c, 1, 33, 80
3, 20348, Note_off_c, 1, 45, 100
3, 20348, Note_off_c, 1, 33, 100
3, 20352, Note_on_c, 1, 45, 80
3, 20352, Note_on_c, 1, 33, 80
3, 20732, Note_off_c, 1, 33, 100
3, 20736, Note_on_c, 1, 38, 80
3, 20924, Note_off_c, 1, 45, 100
3, 20928, Note_on_c, 1, 47, 80
3, 21020, Note_off_c, 1, 47, 100
3, 21024, Note_on_c, 1, 49, 80
3, 21116, Note_off_c, 1, 49, 100
3, 21120, Note_on_c, 1, 50, 80
3, 21308, Note_off_c, 1, 38, 100
3, 21308, Note_off_c, 1, 50, 100
3, 21696, Note_on_c, 1, 59, 80
3, 21696, Note_on_c, 1, 62, 80
3, 21884, Note_off_c, 1, 59, 100
3, 21884, Note_off_c, 1, 62, 100
3, 21888, Note_on_c, 1, 61, 80
3, 21888, Note_on_c, 1, 64, 80
3, 22268, Note_off_c, 1, 61, 100
3, 22268, Note_off_c, 1, 64, 100
3, 22272, Note_on_c, 1, 66, 80
3, 22272, Note_on_c, 1, 62, 80
3, 22460, Note_off_c, 1, 66, 100
3, 22460, Note_off_c, 1, 62, 100
3, 22848, Note_on_c, 1, 59, 80
3, 22848, Note_on_c, 1, 62, 80
3, 23036, Note_off_c, 1, 59, 100
3, 23036, Note_off_c, 1, 62, 100
3, 23040, Note_on_c, 1, 61, 80
3, 23040, Note_on_c, 1, 64, 80
3, 23420, Note_off_c, 1, 61, 100
3, 23420, Note_off_c, 1, 64, 100
3, 23424, Note_on_c, 1, 62, 80
3, 23424, Note_on_c, 1, 66, 80
3, 23612, Note_off_c, 1, 62, 100
3, 23612, Note_off_c, 1, 66, 100
3, 24000, Note_on_c, 1, 54, 80
3, 24000, Note_on_c, 1, 50, 80
3, 24188, Note_off_c, 1, 50, 100
3, 24192, Note_on_c, 1, 49, 80
3, 24380, Note_off_c, 1, 54, 100
3, 24384, Note_on_c, 1, 57, 80
3, 24572, Note_off_c, 1, 49, 100
3, 24572, Note_off_c, 1, 57, 100
3, 24576, Note_on_c, 1, 49, 80
3, 24768, Note_on_c, 1, 57, 80
3, 24956, Note_off_c, 1, 49, 100
3, 24956, Note_off_c, 1, 57, 100
3, 24960, Note_on_c, 1, 49, 80
3, 24960, Note_on_c, 1, 56, 80
3, 25340, Note_off_c, 1, 49, 100
3, 25340, Note_off_c, 1, 56, 100
3, 25344, Note_on_c, 1, 54, 80
3, 25344, Note_on_c, 1, 42, 80
3, 25532, Note_off_c, 1, 54, 100
3, 25532, Note_off_c, 1, 42, 100
3, 25536, Note_on_c, 1, 49, 80
3, 25724, Note_off_c, 1, 49, 100
3, 25728, Note_on_c, 1, 50, 80
3, 25916, Note_off_c, 1, 50, 100
3, 25920, Note_on_c, 1, 49, 80
3, 26108, Note_off_c, 1, 49, 100
3, 26112, Note_on_c, 1, 57, 80
3, 26300, Note_off_c, 1, 57, 100
3, 26304, Note_on_c, 1, 54, 80
3, 26304, Note_on_c, 1, 45, 80
3, 26492, Note_off_c, 1, 54, 100
3, 26492, Note_off_c, 1, 45, 100
3, 26496, Note_on_c, 1, 53, 80
3, 26496, Note_on_c, 1, 44, 80
3, 26684, Note_off_c, 1, 53, 100
3, 26684, Note_off_c, 1, 44, 100
3, 26688, Note_on_c, 1, 56, 80
3, 26688, Note_on_c, 1, 47, 80
3, 26876, Note_off_c, 1, 56, 100
3, 26876, Note_off_c, 1, 47, 100
3, 26880, Note_on_c, 1, 54, 80
3, 26880, Note_on_c, 1, 45, 80
3, 26972, Note_off_c, 1, 54, 100
3, 26976, Note_on_c, 1, 49, 80
3, 27068, Note_off_c, 1, 45, 100
3, 27068, Note_off_c, 1, 49, 100
3, 27072, Note_on_c, 1, 57, 80
3, 27164, Note_off_c, 1, 57, 100
3, 27168, Note_on_c, 1, 56, 80
3, 27260, Note_off_c, 1, 56, 100
3, 27264, Note_on_c, 1, 59, 80
3, 27356, Note_off_c, 1, 59, 100
3, 27360, Note_on_c, 1, 57, 80
3, 27452, Note_off_c, 1, 57, 100
3, 27456, Note_on_c, 1, 45, 80
3, 27456, Note_on_c, 1, 56, 80
3, 27548, Note_off_c, 1, 56, 100
3, 27552, Note_on_c, 1, 54, 80
3, 27644, Note_off_c, 1, 45, 100
3, 27644, Note_off_c, 1, 54, 100
3, 27648, Note_on_c, 1, 53, 80
3, 27648, Note_on_c, 1, 44, 80
3, 27836, Note_off_c, 1, 53, 100
3, 27836, Note_off_c, 1, 44, 100
3, 27840, Note_on_c, 1, 56, 80
3, 27840, Note_on_c, 1, 47, 80
3, 28028, Note_off_c, 1, 56, 100
3, 28028, Note_off_c, 1, 47, 100
3, 28032, Note_on_c, 1, 54, 80
3, 28032, Note_on_c, 1, 45, 80
3, 28124, Note_off_c, 1, 54, 100
3, 28128, Note_on_c, 1, 49, 80
3, 28220, Note_off_c, 1, 45, 100
3, 28220, Note_off_c, 1, 49, 100
3, 28224, Note_on_c, 1, 57, 80
3, 28316, Note_off_c, 1, 57, 100
3, 28320, Note_on_c, 1, 56, 80
3, 28412, Note_off_c, 1, 56, 100
3, 28416, Note_on_c, 1, 59, 80
3, 28508, Note_off_c, 1, 59, 100
3, 28512, Note_on_c, 1, 57, 80
3, 28604, Note_off_c, 1, 57, 100
3, 28608, Note_on_c, 1, 45, 80
3, 28608, Note_on_c, 1, 56, 80
3, 28700, Note_off_c, 1, 56, 100
3, 28704, Note_on_c, 1, 54, 80
3, 28796, Note_off_c, 1, 45, 100
3, 28796, Note_off_c, 1, 54, 100
3, 28800, Note_on_c, 1, 54, 80
3, 28800, Note_on_c, 1, 47, 80
3, 28988, Note_off_c, 1, 54, 100
3, 28988, Note_off_c, 1, 47, 100
3, 28992, Note_on_c, 1, 55, 80
3, 28992, Note_on_c, 1, 47, 80
3, 29180, Note_off_c, 1, 55, 100
3, 29180, Note_off_c, 1, 47, 100
3, 29184, Note_on_c, 1, 55, 80
3, 29184, Note_on_c, 1, 47, 80
3, 29372, Note_off_c, 1, 55, 100
3, 29372, Note_off_c, 1, 47, 100
3, 29376, Note_on_c, 1, 55, 80
3, 29376, Note_on_c, 1, 47, 80
3, 29564, Note_off_c, 1, 55, 100
3, 29564, Note_off_c, 1, 47, 100
3, 29568, Note_on_c, 1, 55, 80
3, 29568, Note_on_c, 1, 47, 80
3, 29756, Note_off_c, 1, 55, 100
3, 29756, Note_off_c, 1, 47, 100
3, 29760, Note_on_c, 1, 55, 80
3, 29760, Note_on_c, 1, 47, 80
3, 29948, Note_off_c, 1, 55, 100
3, 29948, Note_off_c, 1, 47, 100
3, 29952, Note_on_c, 1, 57, 80
3, 29952, Note_on_c, 1, 48, 80
3, 30140, Note_off_c, 1, 57, 100
3, 30140, Note_off_c, 1, 48, 100
3, 30144, Note_on_c, 1, 57, 80
3, 30144, Note_on_c, 1, 48, 80
3, 30332, Note_off_c, 1, 57, 100
3, 30332, Note_off_c, 1, 48, 100
3, 30336, Note_on_c, 1, 57, 80
3, 30336, Note_on_c, 1, 48, 80
3, 30524, Note_off_c, 1, 57, 100
3, 30524, Note_off_c, 1, 48, 100
3, 30528, Note_on_c, 1, 57, 80
3, 30528, Note_on_c, 1, 48, 80
3, 30716, Note_off_c, 1, 57, 100
3, 30716, Note_off_c, 1, 48, 100
3, 30720, Note_on_c, 1, 57, 80
3, 30720, Note_on_c, 1, 48, 80
3, 30908, Note_off_c, 1, 57, 100
3, 30908, Note_off_c, 1, 48, 100
3, 30912, Note_on_c, 1, 57, 80
3, 30912, Note_on_c, 1, 48, 80
3, 31100, Note_off_c, 1, 57, 100
3, 31100, Note_off_c, 1, 48, 100
3, 31104, Note_on_c, 1, 55, 80
3, 31104, Note_on_c, 1, 50, 80
3, 31104, Note_on_c, 1, 47, 80
3, 31292, Note_off_c, 1, 55, 100
3, 31292, Note_off_c, 1, 50, 100
3, 31292, Note_off_c, 1, 47, 100
3, 31296, Note_on_c, 1, 55, 80
3, 31296, Note_on_c, 1, 50, 80
3, 31296, Note_on_c, 1, 47, 80
3, 31484, Note_off_c, 1, 55, 100
3, 31484, Note_off_c, 1, 50, 100
3, 31484, Note_off_c, 1, 47, 100
3, 31488, Note_on_c, 1, 55, 80
3, 31488, Note_on_c, 1, 50, 80
3, 31488, Note_on_c, 1, 47, 80
3, 31676, Note_off_c, 1, 55, 100
3, 31676, Note_off_c, 1, 50, 100
3, 31676, Note_off_c, 1, 47, 100
3, 31680, Note_on_c, 1, 55, 80
3, 31680, Note_on_c, 1, 50, 80
3, 31680, Note_on_c, 1, 47, 80
3, 31868, Note_off_c, 1, 55, 100
3, 31868, Note_off_c, 1, 50, 100
3, 31868, Note_off_c, 1, 47, 100
3, 31872, Note_on_c, 1, 55, 80
3, 31872, Note_on_c, 1, 50, 80
3, 31872, Note_on_c, 1, 47, 80
3, 32060, Note_off_c, 1, 55, 100
3, 32060, Note_off_c, 1, 50, 100
3, 32060, Note_off_c, 1, 47, 100
3, 32064, Note_on_c, 1, 55, 80
3, 32064, Note_on_c, 1, 50, 80
3, 32064, Note_on_c, 1, 47, 80
3, 32252, Note_off_c, 1, 55, 100
3, 32252, Note_off_c, 1, 50, 100
3, 32252, Note_off_c, 1, 47, 100
3, 32256, Note_on_c, 1, 57, 80
3, 32256, Note_on_c, 1, 48, 80
3, 32444, Note_off_c, 1, 57, 100
3, 32444, Note_off_c, 1, 48, 100
3, 32448, Note_on_c, 1, 57, 82
3, 32448, Note_on_c, 1, 48, 82
3, 32636, Note_off_c, 1, 57, 100
3, 32636, Note_off_c, 1, 48, 100
3, 32640, Note_on_c, 1, 57, 85
3, 32640, Note_on_c, 1, 48, 85
3, 32828, Note_off_c, 1, 57, 100
3, 32828, Note_off_c, 1, 48, 100
3, 32832, Note_on_c, 1, 57, 88
3, 32832, Note_on_c, 1, 48, 88
3, 33020, Note_off_c, 1, 57, 100
3, 33020, Note_off_c, 1, 48, 100
3, 33024, Note_on_c, 1, 57, 90
3, 33024, Note_on_c, 1, 47, 90
3, 33024, Note_on_c, 1, 51, 90
3, 33212, Note_off_c, 1, 57, 100
3, 33212, Note_off_c, 1, 47, 100
3, 33212, Note_off_c, 1, 51, 100
3, 33216, Note_on_c, 1, 57, 93
3, 33216, Note_on_c, 1, 47, 93
3, 33216, Note_on_c, 1, 51, 93
3, 33404, Note_off_c, 1, 57, 100
3, 33404, Note_off_c, 1, 47, 100
3, 33404, Note_off_c, 1, 51, 100
3, 33408, Note_on_c, 1, 57, 96
3, 33408, Note_on_c, 1, 51, 96
3, 33408, Note_on_c, 1, 47, 96
3, 33596, Note_off_c, 1, 57, 100
3, 33596, Note_off_c, 1, 51, 100
3, 33596, Note_off_c, 1, 47, 100
3, 33600, Note_on_c, 1, 57, 99
3, 33600, Note_on_c, 1, 51, 99
3, 33600, Note_on_c, 1, 47, 99
3, 33788, Note_off_c, 1, 57, 100
3, 33788, Note_off_c, 1, 51, 100
3, 33788, Note_off_c, 1, 47, 100
3, 33792, Note_on_c, 1, 55, 101
3, 33792, Note_on_c, 1, 52, 101
3, 33792, Note_on_c, 1, 47, 101
3, 33980, Note_off_c, 1, 55, 100
3, 33980, Note_off_c, 1, 52, 100
3, 33980, Note_off_c, 1, 47, 100
3, 33984, Note_on_c, 1, 55, 104
3, 33984, Note_on_c, 1, 52, 104
3, 33984, Note_on_c, 1, 47, 104
3, 34172, Note_off_c, 1, 55, 100
3, 34172, Note_off_c, 1, 52, 100
3, 34172, Note_off_c, 1, 47, 100
3, 34176, Note_on_c, 1, 55, 107
3, 34176, Note_on_c, 1, 46, 107
3, 34176, Note_on_c, 1, 50, 107
3, 34364, Note_off_c, 1, 55, 100
3, 34364, Note_off_c, 1, 46, 100
3, 34364, Note_off_c, 1, 50, 100
3, 34368, Note_on_c, 1, 55, 109
3, 34368, Note_on_c, 1, 46, 109
3, 34368, Note_on_c, 1, 50, 109
3, 34556, Note_off_c, 1, 55, 100
3, 34556, Note_off_c, 1, 46, 100
3, 34556, Note_off_c, 1, 50, 100
3, 34560, Note_on_c, 1, 45, 120
3, 34560, Note_on_c, 1, 40, 120
3, 34560, Note_on_c, 1, 37, 120
3, 34560, Note_on_c, 1, 33, 120
3, 34940, Note_off_c, 1, 40, 100
3, 34940, Note_off_c, 1, 37, 100
3, 35516, Note_off_c, 1, 45, 100
3, 35516, Note_off_c, 1, 33, 100
3, 35520, Note_on_c, 1, 47, 80
3, 35612, Note_off_c, 1, 47, 100
3, 35616, Note_on_c, 1, 49, 80
3, 35708, Note_off_c, 1, 49, 100
3, 35712, Note_on_c, 1, 50, 80
3, 35712, Note_on_c, 1, 38, 80
3, 35804, Note_off_c, 1, 38, 100
3, 35904, Note_on_c, 1, 40, 80
3, 35996, Note_off_c, 1, 40, 100
3, 36092, Note_off_c, 1, 50, 100
3, 36096, Note_on_c, 1, 50, 80
3, 36096, Note_on_c, 1, 42, 80
3, 36188, Note_off_c, 1, 42, 100
3, 36288, Note_on_c, 1, 40, 80
3, 36380, Note_off_c, 1, 40, 100
3, 36476, Note_off_c, 1, 50, 100
3, 36480, Note_on_c, 1, 50, 80
3, 36480, Note_on_c, 1, 42, 80
3, 36572, Note_off_c, 1, 42, 100
3, 36672, Note_on_c, 1, 38, 80
3, 36764, Note_off_c, 1, 38, 100
3, 36860, Note_off_c, 1, 50, 100
3, 36864, Note_on_c, 1, 49, 80
3, 36864, Note_on_c, 1, 43, 80
3, 36956, Note_off_c, 1, 43, 100
3, 37056, Note_on_c, 1, 45, 80
3, 37148, Note_off_c, 1, 45, 100
3, 37244, Note_off_c, 1, 49, 100
3, 37248, Note_on_c, 1, 50, 80
3, 37248, Note_on_c, 1, 42, 80
3, 37340, Note_off_c, 1, 42, 100
3, 37440, Note_on_c, 1, 40, 80
3, 37532, Note_off_c, 1, 40, 100
3, 37632, Note_on_c, 1, 42, 80
3, 37724, Note_off_c, 1, 42, 100
3, 37824, Note_on_c, 1, 38, 80
3, 37916, Note_off_c, 1, 38, 100
3, 38012, Note_off_c, 1, 50, 100
3, 38016, Note_on_c, 1, 52, 80
3, 38016, Note_on_c, 1, 37, 80
3, 38108, Note_off_c, 1, 37, 100
3, 38208, Note_on_c, 1, 45, 80
3, 38300, Note_off_c, 1, 45, 100
3, 38400, Note_on_c, 1, 47, 80
3, 38492, Note_off_c, 1, 47, 100
3, 38592, Note_on_c, 1, 49, 80
3, 38684, Note_off_c, 1, 49, 100
3, 38780, Note_off_c, 1, 52, 100
3, 38784, Note_on_c, 1, 50, 80
3, 38976, Note_on_c, 1, 44, 80
3, 39068, Note_off_c, 1, 44, 100
3, 39164, Note_off_c, 1, 50, 100
3, 39168, Note_on_c, 1, 45, 80
3, 39168, Note_on_c, 1, 49, 80
3, 39356, Note_off_c, 1, 45, 100
3, 39356, Note_off_c, 1, 49, 100
3, 39360, Note_on_c, 1, 45, 80
3, 39552, Note_on_c, 1, 44, 80
3, 39740, Note_off_c, 1, 44, 100
3, 39744, Note_on_c, 1, 43, 80
3, 39932, Note_off_c, 1, 43, 100
3, 39936, Note_on_c, 1, 42, 80
3, 40124, Note_off_c, 1, 42, 100
3, 40128, Note_on_c, 1, 40, 80
3, 40316, Note_off_c, 1, 45, 100
3, 40316, Note_off_c, 1, 40, 100
3, 40320, Note_on_c, 1, 50, 80
3, 40320, Note_on_c, 1, 38, 80
3, 40412, Note_off_c, 1, 38, 100
3, 40512, Note_on_c, 1, 40, 80
3, 40604, Note_off_c, 1, 40, 100
3, 40700, Note_off_c, 1, 50, 100
3, 40704, Note_on_c, 1, 50, 80
3, 40704, Note_on_c, 1, 42, 80
3, 40796, Note_off_c, 1, 42, 100
3, 40896, Note_on_c, 1, 40, 80
3, 40988, Note_off_c, 1, 40, 100
3, 41084, Note_off_c, 1, 50, 100
3, 41088, Note_on_c, 1, 50, 80
3, 41088, Note_on_c, 1, 42, 80
3, 41180, Note_off_c, 1, 42, 100
3, 41280, Note_on_c, 1, 38, 80
3, 41372, Note_off_c, 1, 50, 100
3, 41372, Note_off_c, 1, 38, 100
3, 41376, Note_on_c, 1, 55, 80
3, 41468, Note_off_c, 1, 55, 100
3, 41472, Note_on_c, 1, 43, 80
3, 41472, Note_on_c, 1, 55, 80
3, 41660, Note_off_c, 1, 43, 100
3, 41664, Note_on_c, 1, 45, 80
3, 41852, Note_off_c, 1, 45, 100
3, 41856, Note_on_c, 1, 47, 80
3, 42044, Note_off_c, 1, 47, 100
3, 42048, Note_on_c, 1, 49, 80
3, 42236, Note_off_c, 1, 55, 100
3, 42236, Note_off_c, 1, 49, 100
3, 42240, Note_on_c, 1, 50, 80
3, 42240, Note_on_c, 1, 54, 80
3, 42428, Note_off_c, 1, 50, 100
3, 42428, Note_off_c, 1, 54, 100
3, 42432, Note_on_c, 1, 52, 80
3, 42432, Note_on_c, 1, 55, 80
3, 42620, Note_off_c, 1, 52, 100
3, 42620, Note_off_c, 1, 55, 100
3, 42624, Note_on_c, 1, 57, 80
3, 42624, Note_on_c, 1, 54, 80
3, 42812, Note_off_c, 1, 57, 100
3, 42812, Note_off_c, 1, 54, 100
3, 42816, Note_on_c, 1, 55, 80
3, 42816, Note_on_c, 1, 43, 80
3, 43004, Note_off_c, 1, 55, 100
3, 43004, Note_off_c, 1, 43, 100
3, 43008, Note_on_c, 1, 54, 80
3, 43008, Note_on_c, 1, 45, 80
3, 43196, Note_off_c, 1, 54, 100
3, 43200, Note_on_c, 1, 57, 80
3, 43388, Note_off_c, 1, 45, 100
3, 43388, Note_off_c, 1, 57, 100
3, 43392, Note_on_c, 1, 55, 80
3, 43392, Note_on_c, 1, 45, 80
3, 43580, Note_off_c, 1, 55, 100
3, 43584, Note_on_c, 1, 57, 80
3, 43772, Note_off_c, 1, 57, 100
3, 43776, Note_on_c, 1, 38, 80
3, 43964, Note_off_c, 1, 45, 100
3, 43968, Note_on_c, 1, 47, 80
3, 44060, Note_off_c, 1, 47, 100
3, 44064, Note_on_c, 1, 49, 80
3, 44156, Note_off_c, 1, 49, 100
3, 44160, Note_on_c, 1, 50, 80
3, 44348, Note_off_c, 1, 38, 100
3, 44348, Note_off_c, 1, 50, 100
3, 44352, Note_on_c, 1, 52, 80
3, 44540, Note_off_c, 1, 52, 100
3, 44544, Note_on_c, 1, 54, 80
3, 44732, Note_off_c, 1, 54, 100
3, 44736, Note_on_c, 1, 56, 80
3, 44924, Note_off_c, 1, 56, 100
3, 44928, Note_on_c, 1, 57, 80
3, 45600, Note_on_c, 1, 54, 80
3, 45648, Note_on_c, 1, 56, 80
3, 45692, Note_off_c, 1, 57, 100
3, 45692, Note_off_c, 1, 54, 100
3, 45692, Note_off_c, 1, 56, 100
3, 45696, Note_on_c, 1, 56, 80
3, 45720, Note_on_c, 1, 57, 80
3, 45740, Note_off_c, 1, 56, 100
3, 45744, Note_on_c, 1, 56, 80
3, 45764, Note_off_c, 1, 57, 100
3, 45768, Note_on_c, 1, 57, 80
3, 45788, Note_off_c, 1, 56, 100
3, 45792, Note_on_c, 1, 56, 80
3, 45812, Note_off_c, 1, 57, 100
3, 45816, Note_on_c, 1, 57, 80
3, 45836, Note_off_c, 1, 56, 100
3, 45840, Note_on_c, 1, 56, 80
3, 45860, Note_off_c, 1, 57, 100
3, 45864, Note_on_c, 1, 57, 80
3, 45884, Note_off_c, 1, 56, 100
3, 45888, Note_on_c, 1, 56, 80
3, 45908, Note_off_c, 1, 57, 100
3, 45912, Note_on_c, 1, 57, 80
3, 45932, Note_off_c, 1, 56, 100
3, 45936, Note_on_c, 1, 56, 80
3, 45956, Note_off_c, 1, 57, 100
3, 45960, Note_on_c, 1, 57, 80
3, 45980, Note_off_c, 1, 56, 100
3, 45984, Note_on_c, 1, 56, 80
3, 46004, Note_off_c, 1, 57, 100
3, 46008, Note_on_c, 1, 57, 80
3, 46028, Note_off_c, 1, 56, 100
3, 46032, Note_on_c, 1, 54, 80
3, 46052, Note_off_c, 1, 57, 100
3, 46056, Note_on_c, 1, 56, 80
3, 46076, Note_off_c, 1, 54, 100
3, 46076, Note_off_c, 1, 56, 100
3, 46080, Note_on_c, 1, 57, 80
3, 46460, Note_off_c, 1, 57, 100
3, 46464, Note_on_c, 1, 52, 80
3, 46844, Note_off_c, 1, 52, 100
3, 46848, Note_on_c, 1, 50, 80
3, 47228, Note_off_c, 1, 50, 100
3, 47232, Note_on_c, 1, 49, 80
3, 47232, Note_on_c, 1, 45, 80
3, 47420, Note_off_c, 1, 49, 100
3, 47904, Note_on_c, 1, 42, 80
3, 47952, Note_on_c, 1, 44, 80
3, 47996, Note_off_c, 1, 45, 100
3, 47996, Note_off_c, 1, 42, 100
3, 47996, Note_off_c, 1, 44, 100
3, 48000, Note_on_c, 1, 44, 80
3, 48024, Note_on_c, 1, 45, 80
3, 48044, Note_off_c, 1, 44, 100
3, 48048, Note_on_c, 1, 44, 80
3, 48068, Note_off_c, 1, 45, 100
3, 48072, Note_on_c, 1, 45, 80
3, 48092, Note_off_c, 1, 44, 100
3, 48096, Note_on_c, 1, 44, 80
3, 48116, Note_off_c, 1, 45, 100
3, 48120, Note_on_c, 1, 45, 80
3, 48140, Note_off_c, 1, 44, 100
3, 48144, Note_on_c, 1, 44, 80
3, 48164, Note_off_c, 1, 45, 100
3, 48168, Note_on_c, 1, 45, 80
3, 48188, Note_off_c, 1, 44, 100
3, 48192, Note_on_c, 1, 44, 80
3, 48212, Note_off_c, 1, 45, 100
3, 48216, Note_on_c, 1, 45, 80
3, 48236, Note_off_c, 1, 44, 100
3, 48240, Note_on_c, 1, 44, 80
3, 48260, Note_off_c, 1, 45, 100
3, 48264, Note_on_c, 1, 45, 80
3, 48284, Note_off_c, 1, 44, 100
3, 48288, Note_on_c, 1, 44, 80
3, 48308, Note_off_c, 1, 45, 100
3, 48312, Note_on_c, 1, 45, 80
3, 48332, Note_off_c, 1, 44, 100
3, 48336, Note_on_c, 1, 42, 80
3, 48356, Note_off_c, 1, 45, 100
3, 48360, Note_on_c, 1, 44, 80
3, 48380, Note_off_c, 1, 42, 100
3, 48380, Note_off_c, 1, 44, 100
3, 48384, Note_on_c, 1, 45, 80
3, 48576, Note_on_c, 1, 33, 80
3, 48764, Note_off_c, 1, 33, 100
3, 48768, Note_on_c, 1, 35, 80
3, 49148, Note_off_c, 1, 35, 100
3, 49152, Note_on_c, 1, 37, 80
3, 49532, Note_off_c, 1, 45, 100
3, 49532, Note_off_c, 1, 37, 100
3, 49536, Note_on_c, 1, 50, 80
3, 49536, Note_on_c, 1, 38, 80
3, 49628, Note_off_c, 1, 38, 100
3, 49728, Note_on_c, 1, 40, 80
3, 49820, Note_off_c, 1, 40, 100
3, 49916, Note_off_c, 1, 50, 100
3, 49920, Note_on_c, 1, 50, 80
3, 49920, Note_on_c, 1, 42, 80
3, 50012, Note_off_c, 1, 42, 100
3, 50112, Note_on_c, 1, 40, 80
3, 50204, Note_off_c, 1, 40, 100
3, 50300, Note_off_c, 1, 50, 100
3, 50304, Note_on_c, 1, 50, 80
3, 50304, Note_on_c, 1, 42, 80
3, 50396, Note_off_c, 1, 42, 100
3, 50496, Note_on_c, 1, 38, 80
3, 50588, Note_off_c, 1, 38, 100
3, 50684, Note_off_c, 1, 50, 100
3, 50688, Note_on_c, 1, 49, 80
3, 50688, Note_on_c, 1, 43, 80
3, 50780, Note_off_c, 1, 43, 100
3, 50880, Note_on_c, 1, 45, 80
3, 50972, Note_off_c, 1, 45, 100
3, 51068, Note_off_c, 1, 49, 100
3, 51072, Note_on_c, 1, 50, 80
3, 51072, Note_on_c, 1, 42, 80
3, 51164, Note_off_c, 1, 42, 100
3, 51264, Note_on_c, 1, 40, 80
3, 51356, Note_off_c, 1, 40, 100
3, 51456, Note_on_c, 1, 42, 80
3, 51548, Note_off_c, 1, 42, 100
3, 51648, Note_on_c, 1, 38, 80
3, 51740, Note_off_c, 1, 38, 100
3, 51836, Note_off_c, 1, 50, 100
3, 51840, Note_on_c, 1, 51, 80
3, 51840, Note_on_c, 1, 45, 80
3, 51932, Note_off_c, 1, 45, 100
3, 52032, Note_on_c, 1, 47, 82
3, 52124, Note_off_c, 1, 47, 100
3, 52220, Note_off_c, 1, 51, 100
3, 52224, Note_on_c, 1, 52, 84
3, 52224, Note_on_c, 1, 43, 84
3, 52316, Note_off_c, 1, 43, 100
3, 52416, Note_on_c, 1, 42, 87
3, 52508, Note_off_c, 1, 42, 100
3, 52608, Note_on_c, 1, 43, 89
3, 52700, Note_off_c, 1, 43, 100
3, 52800, Note_on_c, 1, 40, 92
3, 52892, Note_off_c, 1, 40, 100
3, 52988, Note_off_c, 1, 52, 100
3, 52992, Note_on_c, 1, 54, 94
3, 52992, Note_on_c, 1, 48, 94
3, 53084, Note_off_c, 1, 48, 100
3, 53184, Note_on_c, 1, 50, 97
3, 53276, Note_off_c, 1, 50, 100
3, 53372, Note_off_c, 1, 54, 100
3, 53376, Note_on_c, 1, 55, 99
3, 53376, Note_on_c, 1, 47, 99
3, 53468, Note_off_c, 1, 47, 100
3, 53568, Note_on_c, 1, 47, 102
3, 53660, Note_off_c, 1, 47, 100
3, 53760, Note_on_c, 1, 43, 104
3, 53852, Note_off_c, 1, 43, 100
3, 53948, Note_off_c, 1, 55, 100
3, 53952, Note_on_c, 1, 54, 107
3, 53952, Note_on_c, 1, 42, 107
3, 54044, Note_off_c, 1, 42, 100
3, 54140, Note_off_c, 1, 54, 100
3, 54144, Note_on_c, 1, 52, 110
3, 54144, Note_on_c, 1, 40, 110
3, 54332, Note_off_c, 1, 52, 100
3, 54332, Note_off_c, 1, 40, 100
3, 54336, Note_on_c, 1, 50, 111
3, 54336, Note_on_c, 1, 38, 111
3, 54524, Note_off_c, 1, 50, 100
3, 54524, Note_off_c, 1, 38, 100
3, 54528, Note_on_c, 1, 49, 113
3, 54528, Note_on_c, 1, 37, 113
3, 54716, Note_off_c, 1, 49, 100
3, 54716, Note_off_c, 1, 37, 100
3, 54720, Note_on_c, 1, 47, 114
3, 54720, Note_on_c, 1, 35, 114
3, 54908, Note_off_c, 1, 47, 100
3, 54908, Note_off_c, 1, 35, 100
3, 54912, Note_on_c, 1, 45, 116
3, 54912, Note_on_c, 1, 33, 116
3, 55100, Note_off_c, 1, 45, 100
3, 55100, Note_off_c, 1, 33, 100
3, 55104, Note_on_c, 1, 43, 118
3, 55104, Note_on_c, 1, 31, 118
3, 55292, Note_off_c, 1, 43, 100
3, 55292, Note_off_c, 1, 31, 100
3, 55296, Note_on_c, 1, 42, 119
3, 55296, Note_on_c, 1, 30, 119
3, 55484, Note_off_c, 1, 42, 100
3, 55484, Note_off_c, 1, 30, 100
3, 55488, Note_on_c, 1, 43, 80
3, 55488, Note_on_c, 1, 31, 80
3, 55676, Note_off_c, 1, 43, 100
3, 55676, Note_off_c, 1, 31, 100
3, 55680, Note_on_c, 1, 45, 80
3, 55680, Note_on_c, 1, 33, 80
3, 56060, Note_off_c, 1, 45, 100
3, 56060, Note_off_c, 1, 33, 100
3, 56064, Note_on_c, 1, 33, 80
3, 56064, Note_on_c, 1, 45, 80
3, 56444, Note_off_c, 1, 33, 100
3, 56444, Note_off_c, 1, 45, 100
3, 56448, Note_on_c, 1, 38, 80
3, 56448, Note_on_c, 1, 50, 80
3, 56828, Note_off_c, 1, 50, 100
3, 57020, Note_off_c, 1, 38, 100
3, 58944, Note_on_c, 1, 50, 80
3, 59132, Note_off_c, 1, 50, 100
3, 59136, Note_on_c, 1, 49, 80
3, 59324, Note_off_c, 1, 49, 100
3, 59328, Note_on_c, 1, 50, 80
3, 59516, Note_off_c, 1, 50, 100
3, 59520, Note_on_c, 1, 47, 80
3, 59708, Note_off_c, 1, 47, 100
3, 59712, Note_on_c, 1, 50, 80
3, 59900, Note_off_c, 1, 50, 100
3, 59904, Note_on_c, 1, 45, 80
3, 59904, Note_on_c, 1, 54, 80
3, 60092, Note_off_c, 1, 45, 100
3, 60092, Note_off_c, 1, 54, 100
3, 60096, Note_on_c, 1, 43, 80
3, 60096, Note_on_c, 1, 52, 80
3, 60284, Note_off_c, 1, 43, 100
3, 60288, Note_on_c, 1, 45, 80
3, 60476, Note_off_c, 1, 52, 100
3, 60480, Note_on_c, 1, 54, 80
3, 60668, Note_off_c, 1, 54, 100
3, 60672, Note_on_c, 1, 55, 80
3, 61052, Note_off_c, 1, 45, 100
3, 61052, Note_off_c, 1, 55, 100
3, 61056, Note_on_c, 1, 50, 80
3, 61056, Note_on_c, 1, 54, 80
3, 61436, Note_off_c, 1, 50, 100
3, 61436, Note_off_c, 1, 54, 100
3, 62208, Note_on_c, 1, 66, 80
3, 62300, Note_off_c, 1, 66, 100
3, 62304, Note_on_c, 1, 62, 80
3, 62396, Note_off_c, 1, 62, 100
3, 62400, Note_on_c, 1, 61, 80
3, 62492, Note_off_c, 1, 61, 100
3, 62496, Note_on_c, 1, 62, 80
3, 62588, Note_off_c, 1, 62, 100
3, 62592, Note_on_c, 1, 64, 80
3, 62684, Note_off_c, 1, 64, 100
3, 62688, Note_on_c, 1, 62, 80
3, 62780, Note_off_c, 1, 62, 100
3, 62784, Note_on_c, 1, 59, 80
3, 62876, Note_off_c, 1, 59, 100
3, 62880, Note_on_c, 1, 62, 80
3, 62972, Note_off_c, 1, 62, 100
3, 62976, Note_on_c, 1, 57, 80
3, 63068, Note_off_c, 1, 57, 100
3, 63072, Note_on_c, 1, 62, 80
3, 63164, Note_off_c, 1, 62, 100
3, 63168, Note_on_c, 1, 56, 80
3, 63260, Note_off_c, 1, 56, 100
3, 63264, Note_on_c, 1, 62, 80
3, 63356, Note_off_c, 1, 62, 100
3, 63456, Note_on_c, 1, 50, 80
3, 63548, Note_off_c, 1, 50, 100
3, 63552, Note_on_c, 1, 49, 80
3, 63644, Note_off_c, 1, 49, 100
3, 63648, Note_on_c, 1, 50, 80
3, 63740, Note_off_c, 1, 50, 100
3, 63744, Note_on_c, 1, 52, 80
3, 63836, Note_off_c, 1, 52, 100
3, 63840, Note_on_c, 1, 50, 80
3, 63932, Note_off_c, 1, 50, 100
3, 63936, Note_on_c, 1, 47, 80
3, 64028, Note_off_c, 1, 47, 100
3, 64032, Note_on_c, 1, 50, 80
3, 64124, Note_off_c, 1, 50, 100
3, 64128, Note_on_c, 1, 45, 80
3, 64220, Note_off_c, 1, 45, 100
3, 64224, Note_on_c, 1, 50, 80
3, 64316, Note_off_c, 1, 50, 100
3, 64320, Note_on_c, 1, 43, 80
3, 64412, Note_off_c, 1, 43, 100
3, 64416, Note_on_c, 1, 52, 80
3, 64508, Note_off_c, 1, 52, 100
3, 64512, Note_on_c, 1, 42, 80
3, 64604, Note_off_c, 1, 42, 100
3, 64608, Note_on_c, 1, 54, 80
3, 64700, Note_off_c, 1, 54, 100
3, 64704, Note_on_c, 1, 43, 80
3, 64796, Note_off_c, 1, 43, 100
3, 64800, Note_on_c, 1, 55, 80
3, 64892, Note_off_c, 1, 55, 100
3, 64896, Note_on_c, 1, 45, 80
3, 65084, Note_off_c, 1, 45, 100
3, 65088, Note_on_c, 1, 57, 80
3, 65276, Note_off_c, 1, 57, 100
3, 65280, Note_on_c, 1, 45, 80
3, 65468, Note_off_c, 1, 45, 100
3, 65472, Note_on_c, 1, 55, 80
3, 65660, Note_off_c, 1, 55, 100
3, 65664, Note_on_c, 1, 50, 120
3, 65664, Note_on_c, 1, 38, 120
3, 65756, Note_off_c, 1, 38, 100
3, 65856, Note_on_c, 1, 40, 120
3, 65948, Note_off_c, 1, 40, 100
3, 66044, Note_off_c, 1, 50, 100
3, 66048, Note_on_c, 1, 50, 120
3, 66048, Note_on_c, 1, 41, 120
3, 66140, Note_off_c, 1, 41, 100
3, 66240, Note_on_c, 1, 40, 120
3, 66332, Note_off_c, 1, 40, 100
3, 66428, Note_off_c, 1, 50, 100
3, 66432, Note_on_c, 1, 50, 120
3, 66432, Note_on_c, 1, 41, 120
3, 66524, Note_off_c, 1, 41, 100
3, 66624, Note_on_c, 1, 38, 120
3, 66716, Note_off_c, 1, 38, 100
3, 66812, Note_off_c, 1, 50, 100
3, 66816, Note_on_c, 1, 49, 120
3, 66816, Note_on_c, 1, 43, 120
3, 66908, Note_off_c, 1, 43, 100
3, 67008, Note_on_c, 1, 45, 120
3, 67100, Note_off_c, 1, 45, 100
3, 67196, Note_off_c, 1, 49, 100
3, 67200, Note_on_c, 1, 50, 120
3, 67200, Note_on_c, 1, 41, 120
3, 67292, Note_off_c, 1, 41, 100
3, 67392, Note_on_c, 1, 40, 120
3, 67484, Note_off_c, 1, 40, 100
3, 67584, Note_on_c, 1, 41, 120
3, 67676, Note_off_c, 1, 41, 100
3, 67776, Note_on_c, 1, 38, 120
3, 67868, Note_off_c, 1, 38, 100
3, 67964, Note_off_c, 1, 50, 100
3, 67968, Note_on_c, 1, 51, 120
3, 67968, Note_on_c, 1, 39, 120
3, 68156, Note_off_c, 1, 51, 100
3, 68156, Note_off_c, 1, 39, 100
3, 68160, Note_on_c, 1, 50, 120
3, 68160, Note_on_c, 1, 38, 120
3, 68348, Note_off_c, 1, 50, 100
3, 68348, Note_off_c, 1, 38, 100
3, 68352, Note_on_c, 1, 48, 120
3, 68352, Note_on_c, 1, 36, 120
3, 68540, Note_off_c, 1, 48, 100
3, 68540, Note_off_c, 1, 36, 100
3, 68544, Note_on_c, 1, 46, 120
3, 68544, Note_on_c, 1, 34, 120
3, 68732, Note_off_c, 1, 46, 100
3, 68732, Note_off_c, 1, 34, 100
3, 68736, Note_on_c, 1, 45, 120
3, 68736, Note_on_c, 1, 33, 120
3, 68924, Note_off_c, 1, 45, 100
3, 68924, Note_off_c, 1, 33, 100
3, 68928, Note_on_c, 1, 41, 120
3, 68928, Note_on_c, 1, 29, 120
3, 69116, Note_off_c, 1, 41, 100
3, 69116, Note_off_c, 1, 29, 100
3, 69120, Note_on_c, 1, 46, 120
3, 69120, Note_on_c, 1, 34, 120
3, 69308, Note_off_c, 1, 34, 100
3, 69312, Note_on_c, 1, 48, 120
3, 69312, Note_on_c, 1, 36, 120
3, 69500, Note_off_c, 1, 48, 100
3, 69500, Note_off_c, 1, 36, 100
3, 69504, Note_on_c, 1, 50, 120
3, 69504, Note_on_c, 1, 38, 120
3, 69692, Note_off_c, 1, 50, 100
3, 69692, Note_off_c, 1, 38, 100
3, 69696, Note_on_c, 1, 51, 120
3, 69696, Note_on_c, 1, 39, 120
3, 69884, Note_off_c, 1, 46, 100
3, 69884, Note_off_c, 1, 51, 100
3, 69884, Note_off_c, 1, 39, 100
3, 69888, Note_on_c, 1, 46, 120
3, 69888, Note_on_c, 1, 53, 120
3, 69888, Note_on_c, 1, 41, 120
3, 70076, Note_off_c, 1, 53, 100
3, 70076, Note_off_c, 1, 41, 100
3, 70080, Note_on_c, 1, 55, 120
3, 70080, Note_on_c, 1, 43, 120
3, 70172, Note_off_c, 1, 55, 100
3, 70172, Note_off_c, 1, 43, 100
3, 70176, Note_on_c, 1, 57, 120
3, 70176, Note_on_c, 1, 45, 120
3, 70268, Note_off_c, 1, 46, 100
3, 70268, Note_off_c, 1, 57, 100
3, 70268, Note_off_c, 1, 45, 100
3, 70272, Note_on_c, 1, 58, 120
3, 70272, Note_on_c, 1, 46, 120
3, 70460, Note_off_c, 1, 46, 100
3, 70464, Note_on_c, 1, 60, 120
3, 70464, Note_on_c, 1, 48, 120
3, 70652, Note_off_c, 1, 60, 100
3, 70652, Note_off_c, 1, 48, 100
3, 70656, Note_on_c, 1, 62, 120
3, 70656, Note_on_c, 1, 50, 120
3, 70844, Note_off_c, 1, 62, 100
3, 70844, Note_off_c, 1, 50, 100
3, 70848, Note_on_c, 1, 63, 120
3, 70848, Note_on_c, 1, 51, 120
3, 71036, Note_off_c, 1, 58, 100
3, 71036, Note_off_c, 1, 63, 100
3, 71036, Note_off_c, 1, 51, 100
3, 71040, Note_on_c, 1, 65, 120
3, 71040, Note_on_c, 1, 53, 120
3, 71040, Note_on_c, 1, 58, 120
3, 71228, Note_off_c, 1, 65, 100
3, 71228, Note_off_c, 1, 53, 100
3, 71232, Note_on_c, 1, 67, 120
3, 71232, Note_on_c, 1, 55, 120
3, 71324, Note_off_c, 1, 67, 100
3, 71324, Note_off_c, 1, 55, 100
3, 71328, Note_on_c, 1, 69, 120
3, 71328, Note_on_c, 1, 57, 120
3, 71420, Note_off_c, 1, 58, 100
3, 71420, Note_off_c, 1, 69, 100
3, 71420, Note_off_c, 1, 57, 100
3, 71424, Note_on_c, 1, 70, 120
3, 71424, Note_on_c, 1, 58, 120
3, 71612, Note_off_c, 1, 70, 100
3, 71612, Note_off_c, 1, 58, 100
3, 71616, Note_on_c, 1, 69, 120
3, 71616, Note_on_c, 1, 57, 120
3, 71804, Note_off_c, 1, 69, 100
3, 71804, Note_off_c, 1, 57, 100
3, 71808, Note_on_c, 1, 70, 120
3, 71808, Note_on_c, 1, 58, 120
3, 71996, Note_off_c, 1, 70, 100
3, 71996, Note_off_c, 1, 58, 100
3, 72000, Note_on_c, 1, 69, 120
3, 72000, Note_on_c, 1, 57, 120
3, 72188, Note_off_c, 1, 69, 100
3, 72188, Note_off_c, 1, 57, 100
3, 72192, Note_on_c, 1, 68, 120
3, 72192, Note_on_c, 1, 56, 120
3, 72380, Note_off_c, 1, 68, 100
3, 72380, Note_off_c, 1, 56, 100
3, 72384, Note_on_c, 1, 68, 120
3, 72384, Note_on_c, 1, 56, 120
3, 72572, Note_off_c, 1, 68, 100
3, 72572, Note_off_c, 1, 56, 100
3, 72576, Note_on_c, 1, 57, 120
3, 73724, Note_off_c, 1, 57, 100
3, 73920, Note_on_c, 1, 56, 80
3, 74108, Note_off_c, 1, 56, 100
3, 74112, Note_on_c, 1, 57, 80
3, 74876, Note_off_c, 1, 57, 100
3, 75072, Note_on_c, 1, 44, 80
3, 75260, Note_off_c, 1, 44, 100
3, 75264, Note_on_c, 1, 45, 80
3, 75840, Note_on_c, 1, 57, 80
3, 76028, Note_off_c, 1, 57, 100
3, 76032, Note_on_c, 1, 57, 80
3, 76220, Note_off_c, 1, 57, 100
3, 76224, Note_on_c, 1, 57, 80
3, 76412, Note_off_c, 1, 57, 100
3, 76416, Note_on_c, 1, 57, 80
3, 76604, Note_off_c, 1, 45, 100
3, 76604, Note_off_c, 1, 57, 100
3, 76608, Note_on_c, 1, 57, 80
3, 76608, Note_on_c, 1, 67, 80
3, 76796, Note_off_c, 1, 57, 100
3, 76796, Note_off_c, 1, 67, 100
3, 76800, Note_on_c, 1, 57, 80
3, 76800, Note_on_c, 1, 66, 80
3, 76988, Note_off_c, 1, 57, 100
3, 76988, Note_off_c, 1, 66, 100
3, 76992, Note_on_c, 1, 57, 80
3, 76992, Note_on_c, 1, 64, 80
3, 77180, Note_off_c, 1, 57, 100
3, 77180, Note_off_c, 1, 64, 100
3, 77184, Note_on_c, 1, 62, 80
3, 77184, Note_on_c, 1, 50, 80
3, 77276, Note_off_c, 1, 50, 100
3, 77376, Note_on_c, 1, 52, 80
3, 77468, Note_off_c, 1, 52, 100
3, 77564, Note_off_c, 1, 62, 100
3, 77568, Note_on_c, 1, 62, 80
3, 77568, Note_on_c, 1, 54, 80
3, 77660, Note_off_c, 1, 54, 100
3, 77760, Note_on_c, 1, 52, 80
3, 77852, Note_off_c, 1, 52, 100
3, 77948, Note_off_c, 1, 62, 100
3, 77952, Note_on_c, 1, 62, 80
3, 77952, Note_on_c, 1, 54, 80
3, 78044, Note_off_c, 1, 54, 100
3, 78144, Note_on_c, 1, 50, 80
3, 78236, Note_off_c, 1, 50, 100
3, 78332, Note_off_c, 1, 62, 100
3, 78336, Note_on_c, 1, 61, 80
3, 78336, Note_on_c, 1, 55, 80
3, 78428, Note_off_c, 1, 55, 100
3, 78528, Note_on_c, 1, 57, 80
3, 78620, Note_off_c, 1, 57, 100
3, 78716, Note_off_c, 1, 61, 100
3, 78720, Note_on_c, 1, 62, 80
3, 78720, Note_on_c, 1, 54, 80
3, 78812, Note_off_c, 1, 54, 100
3, 78912, Note_on_c, 1, 52, 80
3, 79004, Note_off_c, 1, 52, 100
3, 79104, Note_on_c, 1, 54, 80
3, 79196, Note_off_c, 1, 54, 100
3, 79296, Note_on_c, 1, 50, 80
3, 79388, Note_off_c, 1, 50, 100
3, 79484, Note_off_c, 1, 62, 100
3, 79488, Note_on_c, 1, 64, 80
3, 79488, Note_on_c, 1, 49, 80
3, 79580, Note_off_c, 1, 49, 100
3, 79680, Note_on_c, 1, 57, 80
3, 79772, Note_off_c, 1, 57, 100
3, 79872, Note_on_c, 1, 59, 80
3, 79964, Note_off_c, 1, 59, 100
3, 80064, Note_on_c, 1, 61, 80
3, 80156, Note_off_c, 1, 61, 100
3, 80252, Note_off_c, 1, 64, 100
3, 80256, Note_on_c, 1, 66, 80
3, 80256, Note_on_c, 1, 62, 80
3, 80348, Note_off_c, 1, 62, 100
3, 80448, Note_on_c, 1, 56, 80
3, 80540, Note_off_c, 1, 56, 100
3, 80636, Note_off_c, 1, 66, 100
3, 80640, Note_on_c, 1, 64, 80
3, 80640, Note_on_c, 1, 61, 80
3, 80640, Note_on_c, 1, 57, 80
3, 80828, Note_off_c, 1, 64, 100
3, 80828, Note_off_c, 1, 61, 100
3, 80828, Note_off_c, 1, 57, 100
3, 81792, Note_on_c, 1, 50, 80
3, 81792, Note_on_c, 1, 42, 80
3, 81980, Note_off_c, 1, 42, 100
3, 81984, Note_on_c, 1, 41, 80
3, 82172, Note_off_c, 1, 50, 100
3, 82172, Note_off_c, 1, 41, 100
3, 82176, Note_on_c, 1, 50, 80
3, 82176, Note_on_c, 1, 42, 80
3, 82364, Note_off_c, 1, 42, 100
3, 82368, Note_on_c, 1, 41, 80
3, 82556, Note_off_c, 1, 50, 100
3, 82556, Note_off_c, 1, 41, 100
3, 82560, Note_on_c, 1, 50, 80
3, 82560, Note_on_c, 1, 42, 80
3, 82748, Note_off_c, 1, 42, 100
3, 82752, Note_on_c, 1, 38, 80
3, 82940, Note_off_c, 1, 50, 100
3, 82940, Note_off_c, 1, 38, 100
3, 82944, Note_on_c, 1, 50, 80
3, 82944, Note_on_c, 1, 43, 80
3, 83132, Note_off_c, 1, 43, 100
3, 83136, Note_on_c, 1, 45, 80
3, 83324, Note_off_c, 1, 50, 100
3, 83324, Note_off_c, 1, 45, 100
3, 83328, Note_on_c, 1, 55, 80
3, 83328, Note_on_c, 1, 47, 80
3, 83516, Note_off_c, 1, 55, 100
3, 83516, Note_off_c, 1, 47, 100
3, 83520, Note_on_c, 1, 49, 80
3, 83520, Note_on_c, 1, 55, 80
3, 83708, Note_off_c, 1, 49, 100
3, 83708, Note_off_c, 1, 55, 100
3, 83712, Note_on_c, 1, 50, 80
3, 83712, Note_on_c, 1, 54, 80
3, 83900, Note_off_c, 1, 50, 100
3, 83900, Note_off_c, 1, 54, 100
3, 83904, Note_on_c, 1, 52, 80
3, 83904, Note_on_c, 1, 55, 80
3, 84092, Note_off_c, 1, 52, 100
3, 84092, Note_off_c, 1, 55, 100
3, 84096, Note_on_c, 1, 54, 80
3, 84096, Note_on_c, 1, 42, 80
3, 84284, Note_off_c, 1, 54, 100
3, 84284, Note_off_c, 1, 42, 100
3, 84288, Note_on_c, 1, 43, 80
3, 84476, Note_off_c, 1, 43, 100
3, 84480, Note_on_c, 1, 45, 80
3, 84860, Note_off_c, 1, 45, 100
3, 84864, Note_on_c, 1, 45, 80
3, 84864, Note_on_c, 1, 52, 80
3, 85244, Note_off_c, 1, 45, 100
3, 85244, Note_off_c, 1, 52, 100
3, 85248, Note_on_c, 1, 38, 80
3, 85440, Note_on_c, 1, 50, 80
3, 85628, Note_off_c, 1, 50, 100
3, 85632, Note_on_c, 1, 49, 80
3, 85820, Note_off_c, 1, 49, 100
3, 85824, Note_on_c, 1, 47, 80
3, 86012, Note_off_c, 1, 47, 100
3, 86016, Note_on_c, 1, 45, 80
3, 86588, Note_off_c, 1, 38, 100
3, 86592, Note_on_c, 1, 38, 80
3, 86780, Note_off_c, 1, 38, 100
3, 86784, Note_on_c, 1, 37, 80
3, 86972, Note_off_c, 1, 37, 100
3, 86976, Note_on_c, 1, 35, 80
3, 87164, Note_off_c, 1, 35, 100
3, 87168, Note_on_c, 1, 33, 80
3, 87740, Note_off_c, 1, 33, 100
3, 87740, Note_off_c, 1, 45, 100
3, 87744, Note_on_c, 1, 50, 80
3, 87836, Note_off_c, 1, 50, 100
3, 87840, Note_on_c, 1, 49, 80
3, 87932, Note_off_c, 1, 49, 100
3, 87936, Note_on_c, 1, 52, 80
3, 88028, Note_off_c, 1, 52, 100
3, 88032, Note_on_c, 1, 50, 80
3, 88124, Note_off_c, 1, 50, 100
3, 88128, Note_on_c, 1, 49, 80
3, 88220, Note_off_c, 1, 49, 100
3, 88224, Note_on_c, 1, 47, 80
3, 88316, Note_off_c, 1, 47, 100
3, 88320, Note_on_c, 1, 45, 80
3, 88896, Note_on_c, 1, 38, 80
3, 88988, Note_off_c, 1, 38, 100
3, 88992, Note_on_c, 1, 37, 80
3, 89084, Note_off_c, 1, 37, 100
3, 89088, Note_on_c, 1, 40, 80
3, 89180, Note_off_c, 1, 40, 100
3, 89184, Note_on_c, 1, 38, 80
3, 89276, Note_off_c, 1, 38, 100
3, 89280, Note_on_c, 1, 37, 80
3, 89372, Note_off_c, 1, 37, 100
3, 89376, Note_on_c, 1, 35, 80
3, 89468, Note_off_c, 1, 45, 100
3, 89468, Note_off_c, 1, 35, 100
3, 89472, Note_on_c, 1, 33, 80
3, 90044, Note_off_c, 1, 33, 100
3, 90048, Note_on_c, 1, 35, 80
3, 90140, Note_off_c, 1, 35, 100
3, 90144, Note_on_c, 1, 37, 80
3, 90236, Note_off_c, 1, 37, 100
3, 90240, Note_on_c, 1, 38, 80
3, 90620, Note_off_c, 1, 38, 100
3, 90624, Note_on_c, 1, 38, 80
3, 91004, Note_off_c, 1, 38, 100
3, 91008, Note_on_c, 1, 50, 80
3, 91008, Note_on_c, 1, 45, 80
3, 91008, Note_on_c, 1, 38, 80
3, 92156, Note_off_c, 1, 50, 100
3, 92156, Note_off_c, 1, 45, 100
3, 92156, Note_off_c, 1, 38, 100
3, 92156, End_track
0, 0, End_of_file
