0, 0, Header, 1, 3, 384
1, 0, Start_track
1, 0, Title_t, "L.v.Beethoven 4mov - Piano Sonata No.2 in A Major Op.2-2\000"
1, 0, Copyright_t, "Copyright(C) 1995-2009, Suzuki Software\000"
1, 0, Sequencer_specific, 9, 67, 123, 0, 88, 70, 48, 50, 0, 1
1, 0, Text_t, "XFhd:2000/03/04:JP:Classical::::L.v.Beethoven:::Kaoru Suzuki\000"
1, 0, Text_t, "XFln:JP:\203s\203A\203m\203\\\203i\203^\221æ2\224Ô\203C\222·\222²\215ì\225i2-2\201`\221æ4\212y\217Í:L.v.\203x\201[\203g\201[\203\224\203F\203\223:::\227é\202¿\202á\202ñ:\227é\202¿\202á\202ñ\000"
1, 0, Time_signature, 4, 2, 96, 8
1, 0, Sequencer_specific, 3, 0, 0, 65
1, 0, Sequencer_specific, 5, 0, 0, 119, 14, 0
1, 0, Tempo, 480000
1, 165888, Tempo, 491803
1, 166272, Tempo, 500000
1, 166656, Tempo, 545454
1, 167040, Tempo, 600000
1, 167424, Tempo, 480000
1, 278016, Tempo, 500000
1, 278400, Tempo, 521739
1, 278784, Tempo, 571428
1, 279168, Tempo, 666666
1, 279552, Tempo, 487804
1, 298752, Tempo, 545454
1, 299136, Tempo, 600000
1, 299520, Tempo, 666666
1, 301056, Tempo, 857142
1, 301632, Tempo, 1500000
1, 301632, End_track
2, 0, Start_track
2, 0, Title_t, "Right"
2, 0, Control_c, 0, 0, 0
2, 0, Program_c, 0, 0
2, 0, Control_c, 0, 7, 100
2, 0, Control_c, 0, 10, 78
2, 0, Control_c, 0, 91, 127
2, 0, Key_signature, 3, "major"
2, 384, Note_on_c, 0, 61, 80
2, 448, Note_on_c, 0, 64, 80
2, 508, Note_off_c, 0, 61, 100
2, 512, Note_on_c, 0, 69, 80
2, 572, Note_off_c, 0, 64, 100
2, 576, Note_on_c, 0, 73, 80
2, 624, Note_on_c, 0, 76, 80
2, 636, Note_off_c, 0, 69, 100
2, 668, Note_off_c, 0, 73, 100
2, 672, Note_on_c, 0, 81, 80
2, 716, Note_off_c, 0, 76, 100
2, 720, Note_on_c, 0, 85, 80
2, 764, Note_off_c, 0, 81, 100
2, 764, Note_off_c, 0, 85, 100
2, 768, Note_on_c, 0, 88, 80
2, 1148, Note_off_c, 0, 88, 100
2, 1152, Note_on_c, 0, 88, 80
2, 1532, Note_off_c, 0, 88, 100
2, 1536, Note_on_c, 0, 88, 80
2, 1724, Note_off_c, 0, 88, 100
2, 1728, Note_on_c, 0, 68, 80
2, 1820, Note_off_c, 0, 68, 100
2, 1920, Note_on_c, 0, 68, 80
2, 2684, Note_off_c, 0, 68, 100
2, 2688, Note_on_c, 0, 68, 80
2, 3068, Note_off_c, 0, 68, 100
2, 3072, Note_on_c, 0, 69, 80
2, 3452, Note_off_c, 0, 69, 100
2, 3456, Note_on_c, 0, 71, 80
2, 3836, Note_off_c, 0, 71, 100
2, 3840, Note_on_c, 0, 73, 80
2, 4220, Note_off_c, 0, 73, 100
2, 4224, Note_on_c, 0, 74, 80
2, 4604, Note_off_c, 0, 74, 100
2, 4608, Note_on_c, 0, 73, 80
2, 4652, Note_off_c, 0, 73, 100
2, 4656, Note_on_c, 0, 76, 101
2, 5180, Note_off_c, 0, 76, 100
2, 5184, Note_on_c, 0, 74, 80
2, 5276, Note_off_c, 0, 74, 100
2, 5280, Note_on_c, 0, 73, 80
2, 5372, Note_off_c, 0, 73, 100
2, 5376, Note_on_c, 0, 71, 80
2, 5756, Note_off_c, 0, 71, 100
2, 6336, Note_on_c, 0, 57, 80
2, 6428, Note_off_c, 0, 57, 100
2, 6432, Note_on_c, 0, 61, 80
2, 6524, Note_off_c, 0, 61, 100
2, 6528, Note_on_c, 0, 64, 80
2, 6592, Note_on_c, 0, 69, 80
2, 6652, Note_off_c, 0, 64, 100
2, 6656, Note_on_c, 0, 73, 80
2, 6716, Note_off_c, 0, 69, 100
2, 6720, Note_on_c, 0, 76, 80
2, 6780, Note_off_c, 0, 73, 100
2, 6784, Note_on_c, 0, 81, 80
2, 6844, Note_off_c, 0, 76, 100
2, 6848, Note_on_c, 0, 85, 80
2, 6908, Note_off_c, 0, 81, 100
2, 6908, Note_off_c, 0, 85, 100
2, 6912, Note_on_c, 0, 88, 80
2, 7292, Note_off_c, 0, 88, 100
2, 7296, Note_on_c, 0, 88, 80
2, 7676, Note_off_c, 0, 88, 100
2, 7680, Note_on_c, 0, 88, 80
2, 7868, Note_off_c, 0, 88, 100
2, 7872, Note_on_c, 0, 66, 80
2, 7964, Note_off_c, 0, 66, 100
2, 8064, Note_on_c, 0, 66, 80
2, 8828, Note_off_c, 0, 66, 100
2, 8832, Note_on_c, 0, 66, 80
2, 9212, Note_off_c, 0, 66, 100
2, 9216, Note_on_c, 0, 68, 80
2, 9404, Note_off_c, 0, 68, 100
2, 9408, Note_on_c, 0, 69, 80
2, 9500, Note_off_c, 0, 69, 100
2, 9504, Note_on_c, 0, 68, 80
2, 9596, Note_off_c, 0, 68, 100
2, 9600, Note_on_c, 0, 66, 80
2, 9788, Note_off_c, 0, 66, 100
2, 9792, Note_on_c, 0, 68, 80
2, 9980, Note_off_c, 0, 68, 100
2, 9984, Note_on_c, 0, 71, 80
2, 10172, Note_off_c, 0, 71, 100
2, 10176, Note_on_c, 0, 69, 80
2, 10364, Note_off_c, 0, 69, 100
2, 10368, Note_on_c, 0, 66, 80
2, 10556, Note_off_c, 0, 66, 100
2, 10560, Note_on_c, 0, 63, 80
2, 10748, Note_off_c, 0, 63, 100
2, 10752, Note_on_c, 0, 66, 80
2, 10752, Note_on_c, 0, 63, 80
2, 11516, Note_off_c, 0, 66, 100
2, 11516, Note_off_c, 0, 63, 100
2, 11520, Note_on_c, 0, 64, 80
2, 11708, Note_off_c, 0, 64, 100
2, 11712, Note_on_c, 0, 76, 80
2, 11900, Note_off_c, 0, 76, 100
2, 11904, Note_on_c, 0, 71, 80
2, 12092, Note_off_c, 0, 71, 100
2, 12096, Note_on_c, 0, 73, 80
2, 12284, Note_off_c, 0, 73, 100
2, 12288, Note_on_c, 0, 74, 80
2, 12480, Note_on_c, 0, 71, 80
2, 12668, Note_off_c, 0, 71, 100
2, 12672, Note_on_c, 0, 66, 80
2, 12860, Note_off_c, 0, 66, 100
2, 12864, Note_on_c, 0, 68, 80
2, 13052, Note_off_c, 0, 74, 100
2, 13052, Note_off_c, 0, 68, 100
2, 13056, Note_on_c, 0, 73, 80
2, 13056, Note_on_c, 0, 69, 80
2, 13820, Note_off_c, 0, 73, 100
2, 13820, Note_off_c, 0, 69, 100
2, 13824, Note_on_c, 0, 64, 80
2, 13824, Note_on_c, 0, 68, 80
2, 13824, Note_on_c, 0, 71, 80
2, 14012, Note_off_c, 0, 64, 100
2, 14016, Note_on_c, 0, 63, 80
2, 14204, Note_off_c, 0, 63, 100
2, 14208, Note_on_c, 0, 64, 80
2, 14396, Note_off_c, 0, 64, 100
2, 14400, Note_on_c, 0, 66, 80
2, 14588, Note_off_c, 0, 66, 100
2, 14592, Note_on_c, 0, 64, 80
2, 14972, Note_off_c, 0, 68, 100
2, 14972, Note_off_c, 0, 71, 100
2, 14972, Note_off_c, 0, 64, 100
2, 15360, Note_on_c, 0, 59, 103
2, 15552, Note_on_c, 0, 71, 80
2, 15740, Note_off_c, 0, 71, 100
2, 15744, Note_on_c, 0, 66, 80
2, 15932, Note_off_c, 0, 66, 100
2, 15936, Note_on_c, 0, 68, 80
2, 16124, Note_off_c, 0, 59, 100
2, 16124, Note_off_c, 0, 68, 100
2, 16128, Note_on_c, 0, 69, 80
2, 16320, Note_on_c, 0, 57, 80
2, 16508, Note_off_c, 0, 57, 100
2, 16512, Note_on_c, 0, 61, 80
2, 16700, Note_off_c, 0, 61, 100
2, 16704, Note_on_c, 0, 63, 80
2, 16892, Note_off_c, 0, 69, 100
2, 16892, Note_off_c, 0, 63, 100
2, 16896, Note_on_c, 0, 68, 80
2, 16896, Note_on_c, 0, 64, 80
2, 16896, Note_on_c, 0, 59, 80
2, 17276, Note_off_c, 0, 68, 100
2, 17276, Note_off_c, 0, 64, 100
2, 17276, Note_off_c, 0, 59, 100
2, 18624, Note_on_c, 0, 57, 80
2, 18716, Note_off_c, 0, 57, 100
2, 18720, Note_on_c, 0, 61, 80
2, 18812, Note_off_c, 0, 61, 100
2, 18816, Note_on_c, 0, 64, 80
2, 18880, Note_on_c, 0, 69, 80
2, 18940, Note_off_c, 0, 64, 100
2, 18944, Note_on_c, 0, 73, 80
2, 19004, Note_off_c, 0, 69, 100
2, 19008, Note_on_c, 0, 76, 80
2, 19068, Note_off_c, 0, 73, 100
2, 19072, Note_on_c, 0, 81, 80
2, 19132, Note_off_c, 0, 76, 100
2, 19136, Note_on_c, 0, 85, 80
2, 19196, Note_off_c, 0, 81, 100
2, 19196, Note_off_c, 0, 85, 100
2, 19200, Note_on_c, 0, 88, 80
2, 19580, Note_off_c, 0, 88, 100
2, 19584, Note_on_c, 0, 88, 80
2, 19964, Note_off_c, 0, 88, 100
2, 19968, Note_on_c, 0, 88, 80
2, 20156, Note_off_c, 0, 88, 100
2, 20160, Note_on_c, 0, 68, 80
2, 20252, Note_off_c, 0, 68, 100
2, 20352, Note_on_c, 0, 68, 80
2, 21116, Note_off_c, 0, 68, 100
2, 21120, Note_on_c, 0, 69, 80
2, 21500, Note_off_c, 0, 69, 100
2, 21504, Note_on_c, 0, 71, 80
2, 21596, Note_off_c, 0, 71, 100
2, 21600, Note_on_c, 0, 73, 80
2, 21632, Note_on_c, 0, 71, 80
2, 21660, Note_off_c, 0, 73, 100
2, 21664, Note_on_c, 0, 70, 80
2, 21692, Note_off_c, 0, 71, 100
2, 21696, Note_on_c, 0, 71, 80
2, 21724, Note_off_c, 0, 70, 100
2, 21788, Note_off_c, 0, 71, 100
2, 21792, Note_on_c, 0, 73, 80
2, 21884, Note_off_c, 0, 73, 100
2, 21888, Note_on_c, 0, 74, 80
2, 22012, Note_off_c, 0, 74, 100
2, 22016, Note_on_c, 0, 76, 80
2, 22140, Note_off_c, 0, 76, 100
2, 22144, Note_on_c, 0, 78, 80
2, 22268, Note_off_c, 0, 78, 100
2, 22272, Note_on_c, 0, 69, 80
2, 22652, Note_off_c, 0, 69, 100
2, 22656, Note_on_c, 0, 68, 80
2, 22656, Note_on_c, 0, 73, 80
2, 22844, Note_off_c, 0, 73, 100
2, 22848, Note_on_c, 0, 71, 80
2, 23036, Note_off_c, 0, 68, 100
2, 23036, Note_off_c, 0, 71, 100
2, 23040, Note_on_c, 0, 71, 80
2, 23040, Note_on_c, 0, 68, 80
2, 23804, Note_off_c, 0, 71, 100
2, 23804, Note_off_c, 0, 68, 100
2, 23808, Note_on_c, 0, 69, 80
2, 23996, Note_off_c, 0, 69, 100
2, 24000, Note_on_c, 0, 78, 80
2, 24092, Note_off_c, 0, 78, 100
2, 24096, Note_on_c, 0, 76, 80
2, 24188, Note_off_c, 0, 76, 100
2, 24192, Note_on_c, 0, 74, 80
2, 24284, Note_off_c, 0, 74, 100
2, 24288, Note_on_c, 0, 73, 80
2, 24380, Note_off_c, 0, 73, 100
2, 24384, Note_on_c, 0, 71, 80
2, 24476, Note_off_c, 0, 71, 100
2, 24480, Note_on_c, 0, 69, 80
2, 24572, Note_off_c, 0, 69, 100
2, 24576, Note_on_c, 0, 68, 80
2, 24668, Note_off_c, 0, 68, 100
2, 24672, Note_on_c, 0, 69, 80
2, 24764, Note_off_c, 0, 69, 100
2, 24768, Note_on_c, 0, 71, 80
2, 24860, Note_off_c, 0, 71, 100
2, 24864, Note_on_c, 0, 69, 80
2, 24956, Note_off_c, 0, 69, 100
2, 24960, Note_on_c, 0, 68, 80
2, 25340, Note_off_c, 0, 68, 100
2, 25536, Note_on_c, 0, 76, 80
2, 25628, Note_off_c, 0, 76, 100
2, 25632, Note_on_c, 0, 74, 80
2, 25724, Note_off_c, 0, 74, 100
2, 25728, Note_on_c, 0, 73, 80
2, 25820, Note_off_c, 0, 73, 100
2, 25824, Note_on_c, 0, 71, 80
2, 25916, Note_off_c, 0, 71, 100
2, 25920, Note_on_c, 0, 69, 80
2, 26012, Note_off_c, 0, 69, 100
2, 26016, Note_on_c, 0, 68, 80
2, 26108, Note_off_c, 0, 68, 100
2, 26112, Note_on_c, 0, 69, 80
2, 26204, Note_off_c, 0, 69, 100
2, 26208, Note_on_c, 0, 71, 80
2, 26300, Note_off_c, 0, 71, 100
2, 26304, Note_on_c, 0, 73, 80
2, 26396, Note_off_c, 0, 73, 100
2, 26400, Note_on_c, 0, 71, 80
2, 26492, Note_off_c, 0, 71, 100
2, 26496, Note_on_c, 0, 69, 80
2, 26876, Note_off_c, 0, 69, 100
2, 27072, Note_on_c, 0, 81, 100
2, 27164, Note_off_c, 0, 81, 100
2, 27168, Note_on_c, 0, 80, 100
2, 27260, Note_off_c, 0, 80, 100
2, 27264, Note_on_c, 0, 78, 100
2, 27356, Note_off_c, 0, 78, 100
2, 27360, Note_on_c, 0, 76, 100
2, 27452, Note_off_c, 0, 76, 100
2, 27456, Note_on_c, 0, 74, 100
2, 27548, Note_off_c, 0, 74, 100
2, 27552, Note_on_c, 0, 73, 100
2, 27644, Note_off_c, 0, 73, 100
2, 27648, Note_on_c, 0, 71, 100
2, 27740, Note_off_c, 0, 71, 100
2, 27744, Note_on_c, 0, 74, 100
2, 27836, Note_off_c, 0, 74, 100
2, 27840, Note_on_c, 0, 78, 100
2, 27932, Note_off_c, 0, 78, 100
2, 27936, Note_on_c, 0, 76, 100
2, 28028, Note_off_c, 0, 76, 100
2, 28032, Note_on_c, 0, 74, 100
2, 28124, Note_off_c, 0, 74, 100
2, 28128, Note_on_c, 0, 73, 100
2, 28220, Note_off_c, 0, 73, 100
2, 28224, Note_on_c, 0, 71, 100
2, 28316, Note_off_c, 0, 71, 100
2, 28320, Note_on_c, 0, 69, 100
2, 28412, Note_off_c, 0, 69, 100
2, 28416, Note_on_c, 0, 68, 100
2, 28508, Note_off_c, 0, 68, 100
2, 28512, Note_on_c, 0, 69, 100
2, 28604, Note_off_c, 0, 69, 100
2, 28608, Note_on_c, 0, 71, 100
2, 28700, Note_off_c, 0, 71, 100
2, 28704, Note_on_c, 0, 69, 100
2, 28796, Note_off_c, 0, 69, 100
2, 28800, Note_on_c, 0, 68, 100
2, 28892, Note_off_c, 0, 68, 100
2, 28896, Note_on_c, 0, 66, 100
2, 28988, Note_off_c, 0, 66, 100
2, 28992, Note_on_c, 0, 64, 100
2, 29084, Note_off_c, 0, 64, 100
2, 29088, Note_on_c, 0, 62, 100
2, 29180, Note_off_c, 0, 62, 100
2, 29184, Note_on_c, 0, 61, 80
2, 29276, Note_off_c, 0, 61, 100
2, 29280, Note_on_c, 0, 69, 80
2, 29372, Note_off_c, 0, 69, 100
2, 29376, Note_on_c, 0, 64, 80
2, 29468, Note_off_c, 0, 64, 100
2, 29472, Note_on_c, 0, 73, 80
2, 29564, Note_off_c, 0, 73, 100
2, 29568, Note_on_c, 0, 69, 80
2, 29660, Note_off_c, 0, 69, 100
2, 29664, Note_on_c, 0, 76, 80
2, 29756, Note_off_c, 0, 76, 100
2, 29760, Note_on_c, 0, 73, 80
2, 29852, Note_off_c, 0, 73, 100
2, 29856, Note_on_c, 0, 81, 80
2, 29948, Note_off_c, 0, 81, 100
2, 29952, Note_on_c, 0, 76, 80
2, 30044, Note_off_c, 0, 76, 100
2, 30048, Note_on_c, 0, 85, 80
2, 30140, Note_off_c, 0, 85, 100
2, 30144, Note_on_c, 0, 81, 80
2, 30236, Note_off_c, 0, 81, 100
2, 30240, Note_on_c, 0, 88, 80
2, 30332, Note_off_c, 0, 88, 100
2, 30336, Note_on_c, 0, 86, 80
2, 30428, Note_off_c, 0, 86, 100
2, 30432, Note_on_c, 0, 85, 80
2, 30524, Note_off_c, 0, 85, 100
2, 30528, Note_on_c, 0, 83, 80
2, 30620, Note_off_c, 0, 83, 100
2, 30624, Note_on_c, 0, 81, 80
2, 30716, Note_off_c, 0, 81, 100
2, 30720, Note_on_c, 0, 80, 80
2, 30812, Note_off_c, 0, 80, 100
2, 30816, Note_on_c, 0, 81, 80
2, 30908, Note_off_c, 0, 81, 100
2, 30912, Note_on_c, 0, 83, 80
2, 31004, Note_off_c, 0, 83, 100
2, 31008, Note_on_c, 0, 81, 80
2, 31100, Note_off_c, 0, 81, 100
2, 31104, Note_on_c, 0, 80, 80
2, 31484, Note_off_c, 0, 80, 100
2, 31584, Note_on_c, 0, 87, 80
2, 31676, Note_off_c, 0, 87, 100
2, 31680, Note_on_c, 0, 88, 80
2, 31772, Note_off_c, 0, 88, 100
2, 31776, Note_on_c, 0, 86, 80
2, 31868, Note_off_c, 0, 86, 100
2, 31872, Note_on_c, 0, 85, 80
2, 31964, Note_off_c, 0, 85, 100
2, 31968, Note_on_c, 0, 83, 80
2, 32060, Note_off_c, 0, 83, 100
2, 32064, Note_on_c, 0, 81, 80
2, 32156, Note_off_c, 0, 81, 100
2, 32160, Note_on_c, 0, 80, 80
2, 32252, Note_off_c, 0, 80, 100
2, 32256, Note_on_c, 0, 81, 80
2, 32348, Note_off_c, 0, 81, 100
2, 32352, Note_on_c, 0, 83, 80
2, 32444, Note_off_c, 0, 83, 100
2, 32448, Note_on_c, 0, 85, 80
2, 32540, Note_off_c, 0, 85, 100
2, 32544, Note_on_c, 0, 83, 80
2, 32636, Note_off_c, 0, 83, 100
2, 32640, Note_on_c, 0, 81, 80
2, 33020, Note_off_c, 0, 81, 100
2, 33216, Note_on_c, 0, 85, 100
2, 33308, Note_off_c, 0, 85, 100
2, 33312, Note_on_c, 0, 83, 100
2, 33404, Note_off_c, 0, 83, 100
2, 33408, Note_on_c, 0, 81, 100
2, 33500, Note_off_c, 0, 81, 100
2, 33504, Note_on_c, 0, 80, 100
2, 33596, Note_off_c, 0, 80, 100
2, 33600, Note_on_c, 0, 78, 100
2, 33692, Note_off_c, 0, 78, 100
2, 33696, Note_on_c, 0, 76, 100
2, 33788, Note_off_c, 0, 76, 100
2, 33792, Note_on_c, 0, 75, 100
2, 33884, Note_off_c, 0, 75, 100
2, 33888, Note_on_c, 0, 78, 100
2, 33980, Note_off_c, 0, 78, 100
2, 33984, Note_on_c, 0, 81, 100
2, 34076, Note_off_c, 0, 81, 100
2, 34080, Note_on_c, 0, 80, 100
2, 34172, Note_off_c, 0, 80, 100
2, 34176, Note_on_c, 0, 78, 100
2, 34268, Note_off_c, 0, 78, 100
2, 34272, Note_on_c, 0, 76, 100
2, 34364, Note_off_c, 0, 76, 100
2, 34368, Note_on_c, 0, 75, 100
2, 34460, Note_off_c, 0, 75, 100
2, 34464, Note_on_c, 0, 73, 100
2, 34556, Note_off_c, 0, 73, 100
2, 34560, Note_on_c, 0, 71, 100
2, 34652, Note_off_c, 0, 71, 100
2, 34656, Note_on_c, 0, 75, 100
2, 34748, Note_off_c, 0, 75, 100
2, 34752, Note_on_c, 0, 78, 100
2, 34844, Note_off_c, 0, 78, 100
2, 34848, Note_on_c, 0, 76, 100
2, 34940, Note_off_c, 0, 76, 100
2, 34944, Note_on_c, 0, 75, 100
2, 35036, Note_off_c, 0, 75, 100
2, 35040, Note_on_c, 0, 73, 100
2, 35132, Note_off_c, 0, 73, 100
2, 35136, Note_on_c, 0, 71, 100
2, 35228, Note_off_c, 0, 71, 100
2, 35232, Note_on_c, 0, 69, 100
2, 35324, Note_off_c, 0, 69, 100
2, 35328, Note_on_c, 0, 68, 100
2, 35420, Note_off_c, 0, 68, 100
2, 35424, Note_on_c, 0, 64, 100
2, 35516, Note_off_c, 0, 64, 100
2, 35520, Note_on_c, 0, 71, 100
2, 35612, Note_off_c, 0, 71, 100
2, 35616, Note_on_c, 0, 68, 100
2, 35708, Note_off_c, 0, 68, 100
2, 35712, Note_on_c, 0, 76, 100
2, 35804, Note_off_c, 0, 76, 100
2, 35808, Note_on_c, 0, 71, 100
2, 35900, Note_off_c, 0, 71, 100
2, 35904, Note_on_c, 0, 80, 100
2, 35996, Note_off_c, 0, 80, 100
2, 36000, Note_on_c, 0, 76, 100
2, 36092, Note_off_c, 0, 76, 100
2, 36096, Note_on_c, 0, 83, 100
2, 36188, Note_off_c, 0, 83, 100
2, 36192, Note_on_c, 0, 80, 100
2, 36284, Note_off_c, 0, 80, 100
2, 36288, Note_on_c, 0, 88, 100
2, 36380, Note_off_c, 0, 88, 100
2, 36384, Note_on_c, 0, 87, 100
2, 36476, Note_off_c, 0, 87, 100
2, 36480, Note_on_c, 0, 85, 100
2, 36572, Note_off_c, 0, 85, 100
2, 36576, Note_on_c, 0, 83, 100
2, 36668, Note_off_c, 0, 83, 100
2, 36672, Note_on_c, 0, 81, 100
2, 36764, Note_off_c, 0, 81, 100
2, 36768, Note_on_c, 0, 80, 100
2, 36860, Note_off_c, 0, 80, 100
2, 36864, Note_on_c, 0, 78, 100
2, 36956, Note_off_c, 0, 78, 100
2, 36960, Note_on_c, 0, 81, 100
2, 37052, Note_off_c, 0, 81, 100
2, 37056, Note_on_c, 0, 85, 100
2, 37148, Note_off_c, 0, 85, 100
2, 37152, Note_on_c, 0, 83, 100
2, 37244, Note_off_c, 0, 83, 100
2, 37248, Note_on_c, 0, 81, 100
2, 37340, Note_off_c, 0, 81, 100
2, 37344, Note_on_c, 0, 80, 100
2, 37436, Note_off_c, 0, 80, 100
2, 37440, Note_on_c, 0, 78, 100
2, 37532, Note_off_c, 0, 78, 100
2, 37536, Note_on_c, 0, 76, 100
2, 37628, Note_off_c, 0, 76, 100
2, 37632, Note_on_c, 0, 75, 100
2, 37724, Note_off_c, 0, 75, 100
2, 37728, Note_on_c, 0, 76, 100
2, 37820, Note_off_c, 0, 76, 100
2, 37824, Note_on_c, 0, 75, 100
2, 37916, Note_off_c, 0, 75, 100
2, 37920, Note_on_c, 0, 73, 100
2, 38012, Note_off_c, 0, 73, 100
2, 38016, Note_on_c, 0, 71, 100
2, 38108, Note_off_c, 0, 71, 100
2, 38112, Note_on_c, 0, 69, 100
2, 38204, Note_off_c, 0, 69, 100
2, 38208, Note_on_c, 0, 68, 100
2, 38300, Note_off_c, 0, 68, 100
2, 38304, Note_on_c, 0, 66, 100
2, 38396, Note_off_c, 0, 66, 100
2, 38400, Note_on_c, 0, 64, 80
2, 38780, Note_off_c, 0, 64, 100
2, 39552, Note_on_c, 0, 71, 80
2, 39740, Note_off_c, 0, 71, 100
2, 39744, Note_on_c, 0, 76, 80
2, 39932, Note_off_c, 0, 76, 100
2, 39936, Note_on_c, 0, 76, 80
2, 40124, Note_off_c, 0, 76, 100
2, 40128, Note_on_c, 0, 75, 80
2, 40316, Note_off_c, 0, 75, 100
2, 40320, Note_on_c, 0, 73, 80
2, 40368, Note_on_c, 0, 75, 80
2, 40412, Note_off_c, 0, 73, 100
2, 40416, Note_on_c, 0, 73, 80
2, 40460, Note_off_c, 0, 75, 100
2, 40508, Note_off_c, 0, 73, 100
2, 40512, Note_on_c, 0, 71, 80
2, 40700, Note_off_c, 0, 71, 100
2, 40704, Note_on_c, 0, 71, 80
2, 41084, Note_off_c, 0, 71, 100
2, 41088, Note_on_c, 0, 71, 80
2, 41468, Note_off_c, 0, 71, 100
2, 41472, Note_on_c, 0, 71, 80
2, 41852, Note_off_c, 0, 71, 100
2, 41856, Note_on_c, 0, 71, 80
2, 41900, Note_off_c, 0, 71, 100
2, 41904, Note_on_c, 0, 80, 101
2, 42428, Note_off_c, 0, 80, 100
2, 42432, Note_on_c, 0, 81, 80
2, 42524, Note_off_c, 0, 81, 100
2, 42528, Note_on_c, 0, 80, 80
2, 42620, Note_off_c, 0, 80, 100
2, 42624, Note_on_c, 0, 78, 80
2, 42812, Note_off_c, 0, 78, 100
2, 42816, Note_on_c, 0, 76, 80
2, 43004, Note_off_c, 0, 76, 100
2, 43008, Note_on_c, 0, 76, 80
2, 43196, Note_off_c, 0, 76, 100
2, 43200, Note_on_c, 0, 75, 80
2, 43388, Note_off_c, 0, 75, 100
2, 43392, Note_on_c, 0, 73, 80
2, 43440, Note_on_c, 0, 75, 80
2, 43484, Note_off_c, 0, 73, 100
2, 43488, Note_on_c, 0, 73, 80
2, 43532, Note_off_c, 0, 75, 100
2, 43580, Note_off_c, 0, 73, 100
2, 43584, Note_on_c, 0, 71, 80
2, 43772, Note_off_c, 0, 71, 100
2, 43776, Note_on_c, 0, 71, 80
2, 44156, Note_off_c, 0, 71, 100
2, 44160, Note_on_c, 0, 71, 80
2, 44540, Note_off_c, 0, 71, 100
2, 44544, Note_on_c, 0, 71, 80
2, 44924, Note_off_c, 0, 71, 100
2, 44928, Note_on_c, 0, 71, 81
2, 44976, Note_on_c, 0, 76, 88
2, 45024, Note_on_c, 0, 80, 96
2, 45072, Note_on_c, 0, 83, 104
2, 45404, Note_off_c, 0, 71, 100
2, 45404, Note_off_c, 0, 76, 100
2, 45404, Note_off_c, 0, 80, 100
2, 45404, Note_off_c, 0, 83, 100
2, 45504, Note_on_c, 0, 85, 80
2, 45596, Note_off_c, 0, 85, 100
2, 45600, Note_on_c, 0, 83, 80
2, 45692, Note_off_c, 0, 83, 100
2, 45696, Note_on_c, 0, 81, 80
2, 45788, Note_off_c, 0, 81, 100
2, 45792, Note_on_c, 0, 80, 80
2, 45884, Note_off_c, 0, 80, 100
2, 45888, Note_on_c, 0, 78, 80
2, 45980, Note_off_c, 0, 78, 100
2, 45984, Note_on_c, 0, 76, 80
2, 46076, Note_off_c, 0, 76, 100
2, 46080, Note_on_c, 0, 76, 80
2, 46268, Note_off_c, 0, 76, 100
2, 46272, Note_on_c, 0, 75, 80
2, 46460, Note_off_c, 0, 75, 100
2, 46464, Note_on_c, 0, 73, 80
2, 46512, Note_on_c, 0, 75, 80
2, 46556, Note_off_c, 0, 73, 100
2, 46560, Note_on_c, 0, 73, 80
2, 46604, Note_off_c, 0, 75, 100
2, 46652, Note_off_c, 0, 73, 100
2, 46656, Note_on_c, 0, 71, 80
2, 46844, Note_off_c, 0, 71, 100
2, 46848, Note_on_c, 0, 71, 80
2, 47228, Note_off_c, 0, 71, 100
2, 47232, Note_on_c, 0, 71, 80
2, 47612, Note_off_c, 0, 71, 100
2, 47616, Note_on_c, 0, 71, 80
2, 47804, Note_off_c, 0, 71, 100
2, 47808, Note_on_c, 0, 76, 94
2, 47808, Note_on_c, 0, 64, 94
2, 48188, Note_off_c, 0, 76, 100
2, 48188, Note_off_c, 0, 64, 100
2, 48192, Note_on_c, 0, 74, 80
2, 48192, Note_on_c, 0, 62, 80
2, 48380, Note_off_c, 0, 74, 100
2, 48380, Note_off_c, 0, 62, 100
2, 48384, Note_on_c, 0, 73, 80
2, 48384, Note_on_c, 0, 61, 80
2, 48572, Note_off_c, 0, 73, 100
2, 48576, Note_on_c, 0, 74, 80
2, 48624, Note_on_c, 0, 73, 80
2, 48668, Note_off_c, 0, 74, 100
2, 48672, Note_on_c, 0, 71, 80
2, 48716, Note_off_c, 0, 73, 100
2, 48720, Note_on_c, 0, 73, 80
2, 48764, Note_off_c, 0, 71, 100
2, 48764, Note_off_c, 0, 73, 100
2, 48768, Note_on_c, 0, 73, 80
2, 48956, Note_off_c, 0, 61, 100
2, 48956, Note_off_c, 0, 73, 100
2, 48960, Note_on_c, 0, 76, 80
2, 48960, Note_on_c, 0, 64, 80
2, 49148, Note_off_c, 0, 76, 100
2, 49148, Note_off_c, 0, 64, 100
2, 49152, Note_on_c, 0, 76, 80
2, 49152, Note_on_c, 0, 64, 80
2, 49532, Note_off_c, 0, 76, 100
2, 49532, Note_off_c, 0, 64, 100
2, 49536, Note_on_c, 0, 74, 80
2, 49536, Note_on_c, 0, 62, 80
2, 49916, Note_off_c, 0, 74, 100
2, 49916, Note_off_c, 0, 62, 100
2, 50304, Note_on_c, 0, 72, 80
2, 50304, Note_on_c, 0, 60, 80
2, 50684, Note_off_c, 0, 72, 100
2, 50684, Note_off_c, 0, 60, 100
2, 50688, Note_on_c, 0, 75, 80
2, 50688, Note_on_c, 0, 63, 80
2, 50876, Note_off_c, 0, 75, 100
2, 50876, Note_off_c, 0, 63, 100
2, 50880, Note_on_c, 0, 73, 80
2, 50880, Note_on_c, 0, 61, 80
2, 51260, Note_off_c, 0, 73, 100
2, 51260, Note_off_c, 0, 61, 100
2, 51264, Note_on_c, 0, 71, 80
2, 51264, Note_on_c, 0, 59, 80
2, 51452, Note_off_c, 0, 71, 100
2, 51452, Note_off_c, 0, 59, 100
2, 51456, Note_on_c, 0, 70, 80
2, 51456, Note_on_c, 0, 58, 80
2, 51644, Note_off_c, 0, 70, 100
2, 51648, Note_on_c, 0, 71, 80
2, 51696, Note_on_c, 0, 70, 80
2, 51740, Note_off_c, 0, 71, 100
2, 51744, Note_on_c, 0, 68, 80
2, 51788, Note_off_c, 0, 70, 100
2, 51792, Note_on_c, 0, 70, 80
2, 51836, Note_off_c, 0, 68, 100
2, 51836, Note_off_c, 0, 70, 100
2, 51840, Note_on_c, 0, 70, 80
2, 52028, Note_off_c, 0, 58, 100
2, 52028, Note_off_c, 0, 70, 100
2, 52032, Note_on_c, 0, 73, 80
2, 52032, Note_on_c, 0, 61, 80
2, 52220, Note_off_c, 0, 73, 100
2, 52220, Note_off_c, 0, 61, 100
2, 52224, Note_on_c, 0, 73, 80
2, 52224, Note_on_c, 0, 61, 80
2, 52604, Note_off_c, 0, 73, 100
2, 52604, Note_off_c, 0, 61, 100
2, 52608, Note_on_c, 0, 71, 80
2, 52608, Note_on_c, 0, 59, 80
2, 52988, Note_off_c, 0, 71, 100
2, 52988, Note_off_c, 0, 59, 100
2, 53376, Note_on_c, 0, 68, 80
2, 53376, Note_on_c, 0, 56, 80
2, 53756, Note_off_c, 0, 68, 100
2, 53756, Note_off_c, 0, 56, 100
2, 53760, Note_on_c, 0, 69, 80
2, 53760, Note_on_c, 0, 57, 80
2, 53948, Note_off_c, 0, 69, 100
2, 53948, Note_off_c, 0, 57, 100
2, 53952, Note_on_c, 0, 69, 80
2, 53952, Note_on_c, 0, 57, 80
2, 54332, Note_off_c, 0, 69, 100
2, 54332, Note_off_c, 0, 57, 100
2, 54336, Note_on_c, 0, 76, 80
2, 54336, Note_on_c, 0, 64, 80
2, 54716, Note_off_c, 0, 76, 100
2, 54716, Note_off_c, 0, 64, 100
2, 54720, Note_on_c, 0, 74, 80
2, 54720, Note_on_c, 0, 68, 80
2, 55100, Note_off_c, 0, 74, 100
2, 55100, Note_off_c, 0, 68, 100
2, 55104, Note_on_c, 0, 73, 80
2, 55104, Note_on_c, 0, 69, 80
2, 55292, Note_off_c, 0, 73, 100
2, 55292, Note_off_c, 0, 69, 100
2, 55296, Note_on_c, 0, 71, 80
2, 55296, Note_on_c, 0, 68, 80
2, 55676, Note_off_c, 0, 71, 100
2, 55676, Note_off_c, 0, 68, 100
2, 56640, Note_on_c, 0, 80, 80
2, 56640, Note_on_c, 0, 68, 80
2, 56828, Note_off_c, 0, 80, 100
2, 56828, Note_off_c, 0, 68, 100
2, 56832, Note_on_c, 0, 81, 80
2, 56832, Note_on_c, 0, 69, 80
2, 57020, Note_off_c, 0, 81, 100
2, 57020, Note_off_c, 0, 69, 100
2, 57024, Note_on_c, 0, 81, 80
2, 57024, Note_on_c, 0, 69, 80
2, 57404, Note_off_c, 0, 81, 100
2, 57404, Note_off_c, 0, 69, 100
2, 57408, Note_on_c, 0, 76, 80
2, 57408, Note_on_c, 0, 64, 80
2, 57788, Note_off_c, 0, 76, 100
2, 57788, Note_off_c, 0, 64, 100
2, 57792, Note_on_c, 0, 74, 80
2, 57792, Note_on_c, 0, 68, 80
2, 58172, Note_off_c, 0, 74, 100
2, 58172, Note_off_c, 0, 68, 100
2, 58176, Note_on_c, 0, 73, 80
2, 58176, Note_on_c, 0, 69, 80
2, 58364, Note_off_c, 0, 73, 100
2, 58364, Note_off_c, 0, 69, 100
2, 58368, Note_on_c, 0, 71, 80
2, 58368, Note_on_c, 0, 68, 80
2, 58748, Note_off_c, 0, 71, 100
2, 58748, Note_off_c, 0, 68, 100
2, 61872, Note_on_c, 0, 61, 80
2, 61920, Note_on_c, 0, 64, 80
2, 61964, Note_off_c, 0, 61, 100
2, 61968, Note_on_c, 0, 69, 80
2, 62012, Note_off_c, 0, 64, 100
2, 62016, Note_on_c, 0, 73, 80
2, 62060, Note_off_c, 0, 69, 100
2, 62064, Note_on_c, 0, 76, 80
2, 62108, Note_off_c, 0, 73, 100
2, 62112, Note_on_c, 0, 81, 80
2, 62156, Note_off_c, 0, 76, 100
2, 62160, Note_on_c, 0, 85, 80
2, 62204, Note_off_c, 0, 81, 100
2, 62204, Note_off_c, 0, 85, 100
2, 62208, Note_on_c, 0, 88, 80
2, 62588, Note_off_c, 0, 88, 100
2, 62592, Note_on_c, 0, 88, 80
2, 62972, Note_off_c, 0, 88, 100
2, 62976, Note_on_c, 0, 88, 80
2, 63164, Note_off_c, 0, 88, 100
2, 63168, Note_on_c, 0, 68, 80
2, 63260, Note_off_c, 0, 68, 100
2, 63360, Note_on_c, 0, 68, 80
2, 64124, Note_off_c, 0, 68, 100
2, 64128, Note_on_c, 0, 68, 80
2, 64508, Note_off_c, 0, 68, 100
2, 64512, Note_on_c, 0, 69, 80
2, 64796, Note_off_c, 0, 69, 100
2, 64800, Note_on_c, 0, 64, 80
2, 64892, Note_off_c, 0, 64, 100
2, 64896, Note_on_c, 0, 71, 80
2, 65180, Note_off_c, 0, 71, 100
2, 65184, Note_on_c, 0, 64, 80
2, 65276, Note_off_c, 0, 64, 100
2, 65280, Note_on_c, 0, 73, 80
2, 65564, Note_off_c, 0, 73, 100
2, 65568, Note_on_c, 0, 69, 80
2, 65660, Note_off_c, 0, 69, 100
2, 65664, Note_on_c, 0, 74, 80
2, 65948, Note_off_c, 0, 74, 100
2, 65952, Note_on_c, 0, 69, 80
2, 66044, Note_off_c, 0, 69, 100
2, 66048, Note_on_c, 0, 73, 92
2, 66092, Note_off_c, 0, 73, 100
2, 66096, Note_on_c, 0, 76, 103
2, 66620, Note_off_c, 0, 76, 100
2, 66624, Note_on_c, 0, 74, 80
2, 66716, Note_off_c, 0, 74, 100
2, 66720, Note_on_c, 0, 73, 80
2, 66812, Note_off_c, 0, 73, 100
2, 66816, Note_on_c, 0, 71, 80
2, 67196, Note_off_c, 0, 71, 100
2, 67776, Note_on_c, 0, 57, 80
2, 67868, Note_off_c, 0, 57, 100
2, 67872, Note_on_c, 0, 61, 80
2, 67964, Note_off_c, 0, 61, 100
2, 67968, Note_on_c, 0, 64, 80
2, 68032, Note_on_c, 0, 69, 80
2, 68092, Note_off_c, 0, 64, 100
2, 68096, Note_on_c, 0, 73, 80
2, 68156, Note_off_c, 0, 69, 100
2, 68160, Note_on_c, 0, 76, 80
2, 68220, Note_off_c, 0, 73, 100
2, 68224, Note_on_c, 0, 81, 80
2, 68284, Note_off_c, 0, 76, 100
2, 68288, Note_on_c, 0, 85, 80
2, 68348, Note_off_c, 0, 81, 100
2, 68348, Note_off_c, 0, 85, 100
2, 68352, Note_on_c, 0, 88, 80
2, 68732, Note_off_c, 0, 88, 100
2, 68736, Note_on_c, 0, 88, 80
2, 69116, Note_off_c, 0, 88, 100
2, 69120, Note_on_c, 0, 88, 80
2, 69308, Note_off_c, 0, 88, 100
2, 69312, Note_on_c, 0, 66, 80
2, 69404, Note_off_c, 0, 66, 100
2, 69504, Note_on_c, 0, 66, 80
2, 70268, Note_off_c, 0, 66, 100
2, 70272, Note_on_c, 0, 66, 80
2, 70652, Note_off_c, 0, 66, 100
2, 70656, Note_on_c, 0, 68, 80
2, 70844, Note_off_c, 0, 68, 100
2, 70848, Note_on_c, 0, 69, 80
2, 70940, Note_off_c, 0, 69, 100
2, 70944, Note_on_c, 0, 68, 80
2, 71036, Note_off_c, 0, 68, 100
2, 71040, Note_on_c, 0, 66, 80
2, 71228, Note_off_c, 0, 66, 100
2, 71232, Note_on_c, 0, 68, 80
2, 71420, Note_off_c, 0, 68, 100
2, 71424, Note_on_c, 0, 71, 80
2, 71612, Note_off_c, 0, 71, 100
2, 71616, Note_on_c, 0, 69, 80
2, 71804, Note_off_c, 0, 69, 100
2, 71808, Note_on_c, 0, 66, 80
2, 71996, Note_off_c, 0, 66, 100
2, 72000, Note_on_c, 0, 63, 80
2, 72188, Note_off_c, 0, 63, 100
2, 72192, Note_on_c, 0, 66, 80
2, 72192, Note_on_c, 0, 63, 80
2, 72956, Note_off_c, 0, 66, 100
2, 72956, Note_off_c, 0, 63, 100
2, 72960, Note_on_c, 0, 64, 80
2, 73148, Note_off_c, 0, 64, 100
2, 73152, Note_on_c, 0, 76, 80
2, 73340, Note_off_c, 0, 76, 100
2, 73344, Note_on_c, 0, 71, 80
2, 73532, Note_off_c, 0, 71, 100
2, 73536, Note_on_c, 0, 73, 80
2, 73724, Note_off_c, 0, 73, 100
2, 73728, Note_on_c, 0, 74, 80
2, 73920, Note_on_c, 0, 71, 80
2, 74108, Note_off_c, 0, 71, 100
2, 74112, Note_on_c, 0, 66, 80
2, 74300, Note_off_c, 0, 66, 100
2, 74304, Note_on_c, 0, 68, 80
2, 74492, Note_off_c, 0, 74, 100
2, 74492, Note_off_c, 0, 68, 100
2, 74496, Note_on_c, 0, 73, 80
2, 74496, Note_on_c, 0, 69, 80
2, 75260, Note_off_c, 0, 73, 100
2, 75260, Note_off_c, 0, 69, 100
2, 75264, Note_on_c, 0, 64, 80
2, 75264, Note_on_c, 0, 68, 80
2, 75264, Note_on_c, 0, 71, 80
2, 75452, Note_off_c, 0, 64, 100
2, 75456, Note_on_c, 0, 63, 80
2, 75644, Note_off_c, 0, 63, 100
2, 75648, Note_on_c, 0, 64, 80
2, 75836, Note_off_c, 0, 64, 100
2, 75840, Note_on_c, 0, 66, 80
2, 76028, Note_off_c, 0, 66, 100
2, 76032, Note_on_c, 0, 64, 80
2, 76412, Note_off_c, 0, 68, 100
2, 76412, Note_off_c, 0, 71, 100
2, 76412, Note_off_c, 0, 64, 100
2, 76800, Note_on_c, 0, 59, 101
2, 76992, Note_on_c, 0, 71, 80
2, 77180, Note_off_c, 0, 71, 100
2, 77184, Note_on_c, 0, 66, 80
2, 77372, Note_off_c, 0, 66, 100
2, 77376, Note_on_c, 0, 68, 80
2, 77564, Note_off_c, 0, 59, 100
2, 77564, Note_off_c, 0, 68, 100
2, 77568, Note_on_c, 0, 69, 80
2, 77760, Note_on_c, 0, 57, 80
2, 77948, Note_off_c, 0, 57, 100
2, 77952, Note_on_c, 0, 61, 80
2, 78140, Note_off_c, 0, 61, 100
2, 78144, Note_on_c, 0, 63, 80
2, 78332, Note_off_c, 0, 69, 100
2, 78332, Note_off_c, 0, 63, 100
2, 78336, Note_on_c, 0, 68, 80
2, 78336, Note_on_c, 0, 64, 80
2, 78336, Note_on_c, 0, 59, 80
2, 78716, Note_off_c, 0, 68, 100
2, 78716, Note_off_c, 0, 64, 100
2, 78716, Note_off_c, 0, 59, 100
2, 79872, Note_on_c, 0, 45, 80
2, 79936, Note_on_c, 0, 49, 80
2, 79996, Note_off_c, 0, 45, 100
2, 80000, Note_on_c, 0, 52, 80
2, 80060, Note_off_c, 0, 49, 100
2, 80064, Note_on_c, 0, 57, 80
2, 80124, Note_off_c, 0, 52, 100
2, 80160, Note_on_c, 0, 61, 80
2, 80252, Note_off_c, 0, 57, 100
2, 80256, Note_on_c, 0, 64, 81
2, 80320, Note_on_c, 0, 69, 81
2, 80348, Note_off_c, 0, 61, 100
2, 80380, Note_off_c, 0, 64, 100
2, 80384, Note_on_c, 0, 73, 81
2, 80444, Note_off_c, 0, 69, 100
2, 80448, Note_on_c, 0, 76, 81
2, 80508, Note_off_c, 0, 73, 100
2, 80512, Note_on_c, 0, 81, 82
2, 80572, Note_off_c, 0, 76, 100
2, 80576, Note_on_c, 0, 85, 82
2, 80636, Note_off_c, 0, 81, 100
2, 80636, Note_off_c, 0, 85, 100
2, 80640, Note_on_c, 0, 88, 82
2, 81020, Note_off_c, 0, 88, 100
2, 81024, Note_on_c, 0, 88, 83
2, 81404, Note_off_c, 0, 88, 100
2, 81408, Note_on_c, 0, 88, 85
2, 81596, Note_off_c, 0, 88, 100
2, 81600, Note_on_c, 0, 68, 85
2, 81692, Note_off_c, 0, 68, 100
2, 81792, Note_on_c, 0, 68, 86
2, 82556, Note_off_c, 0, 68, 100
2, 82560, Note_on_c, 0, 69, 88
2, 82940, Note_off_c, 0, 69, 100
2, 82944, Note_on_c, 0, 71, 90
2, 83036, Note_off_c, 0, 71, 100
2, 83040, Note_on_c, 0, 73, 90
2, 83072, Note_on_c, 0, 71, 90
2, 83100, Note_off_c, 0, 73, 100
2, 83104, Note_on_c, 0, 70, 90
2, 83132, Note_off_c, 0, 71, 100
2, 83136, Note_on_c, 0, 71, 90
2, 83164, Note_off_c, 0, 70, 100
2, 83228, Note_off_c, 0, 71, 100
2, 83232, Note_on_c, 0, 73, 91
2, 83324, Note_off_c, 0, 73, 100
2, 83328, Note_on_c, 0, 74, 91
2, 83452, Note_off_c, 0, 74, 100
2, 83456, Note_on_c, 0, 76, 91
2, 83580, Note_off_c, 0, 76, 100
2, 83584, Note_on_c, 0, 78, 92
2, 83708, Note_off_c, 0, 78, 100
2, 83712, Note_on_c, 0, 69, 92
2, 84092, Note_off_c, 0, 69, 100
2, 84096, Note_on_c, 0, 68, 94
2, 84096, Note_on_c, 0, 73, 94
2, 84284, Note_off_c, 0, 73, 100
2, 84288, Note_on_c, 0, 71, 94
2, 84476, Note_off_c, 0, 68, 100
2, 84476, Note_off_c, 0, 71, 100
2, 84480, Note_on_c, 0, 71, 95
2, 84480, Note_on_c, 0, 68, 95
2, 85244, Note_off_c, 0, 71, 100
2, 85244, Note_off_c, 0, 68, 100
2, 85248, Note_on_c, 0, 69, 97
2, 85372, Note_off_c, 0, 69, 100
2, 85376, Note_on_c, 0, 64, 98
2, 85500, Note_off_c, 0, 64, 100
2, 85504, Note_on_c, 0, 65, 98
2, 85628, Note_off_c, 0, 65, 100
2, 85632, Note_on_c, 0, 66, 99
2, 85756, Note_off_c, 0, 66, 100
2, 85760, Note_on_c, 0, 67, 99
2, 85884, Note_off_c, 0, 67, 100
2, 85888, Note_on_c, 0, 68, 99
2, 86012, Note_off_c, 0, 68, 100
2, 86016, Key_signature, 0, "major"
2, 86144, Note_on_c, 0, 69, 120
2, 86268, Note_off_c, 0, 69, 100
2, 86272, Note_on_c, 0, 70, 120
2, 86396, Note_off_c, 0, 70, 100
2, 86400, Note_on_c, 0, 71, 120
2, 86524, Note_off_c, 0, 71, 100
2, 86528, Note_on_c, 0, 72, 120
2, 86652, Note_off_c, 0, 72, 100
2, 86656, Note_on_c, 0, 73, 120
2, 86780, Note_off_c, 0, 73, 100
2, 86784, Note_on_c, 0, 74, 120
2, 86908, Note_off_c, 0, 74, 100
2, 86912, Note_on_c, 0, 75, 120
2, 87036, Note_off_c, 0, 75, 100
2, 87040, Note_on_c, 0, 76, 120
2, 87164, Note_off_c, 0, 76, 100
2, 87168, Note_on_c, 0, 77, 120
2, 87292, Note_off_c, 0, 77, 100
2, 87296, Note_on_c, 0, 76, 120
2, 87420, Note_off_c, 0, 76, 100
2, 87424, Note_on_c, 0, 69, 120
2, 87548, Note_off_c, 0, 69, 100
2, 87680, Note_on_c, 0, 68, 120
2, 87804, Note_off_c, 0, 68, 100
2, 87808, Note_on_c, 0, 69, 120
2, 87932, Note_off_c, 0, 69, 100
2, 87936, Note_on_c, 0, 70, 120
2, 88060, Note_off_c, 0, 70, 100
2, 88064, Note_on_c, 0, 71, 120
2, 88188, Note_off_c, 0, 71, 100
2, 88192, Note_on_c, 0, 72, 120
2, 88316, Note_off_c, 0, 72, 100
2, 88320, Note_on_c, 0, 73, 120
2, 88444, Note_off_c, 0, 73, 100
2, 88448, Note_on_c, 0, 74, 120
2, 88572, Note_off_c, 0, 74, 100
2, 88576, Note_on_c, 0, 75, 120
2, 88700, Note_off_c, 0, 75, 100
2, 88704, Note_on_c, 0, 76, 120
2, 88828, Note_off_c, 0, 76, 100
2, 88832, Note_on_c, 0, 74, 120
2, 88956, Note_off_c, 0, 74, 100
2, 88960, Note_on_c, 0, 68, 120
2, 89084, Note_off_c, 0, 68, 100
2, 89216, Note_on_c, 0, 69, 120
2, 89340, Note_off_c, 0, 69, 100
2, 89344, Note_on_c, 0, 71, 120
2, 89468, Note_off_c, 0, 71, 100
2, 89472, Note_on_c, 0, 72, 120
2, 89596, Note_off_c, 0, 72, 100
2, 89600, Note_on_c, 0, 73, 120
2, 89724, Note_off_c, 0, 73, 100
2, 89728, Note_on_c, 0, 74, 120
2, 89852, Note_off_c, 0, 74, 100
2, 89856, Note_on_c, 0, 75, 120
2, 89980, Note_off_c, 0, 75, 100
2, 89984, Note_on_c, 0, 76, 120
2, 90108, Note_off_c, 0, 76, 100
2, 90112, Note_on_c, 0, 77, 120
2, 90236, Note_off_c, 0, 77, 100
2, 90240, Note_on_c, 0, 78, 120
2, 90364, Note_off_c, 0, 78, 100
2, 90368, Note_on_c, 0, 79, 120
2, 90492, Note_off_c, 0, 79, 100
2, 90496, Note_on_c, 0, 80, 120
2, 90620, Note_off_c, 0, 80, 100
2, 90624, Note_on_c, 0, 81, 120
2, 90748, Note_off_c, 0, 81, 100
2, 90752, Note_on_c, 0, 76, 120
2, 90876, Note_off_c, 0, 76, 100
2, 90880, Note_on_c, 0, 77, 120
2, 91004, Note_off_c, 0, 77, 100
2, 91008, Note_on_c, 0, 74, 127
2, 91132, Note_off_c, 0, 74, 100
2, 91136, Note_on_c, 0, 77, 120
2, 91260, Note_off_c, 0, 77, 100
2, 91264, Note_on_c, 0, 71, 120
2, 91388, Note_off_c, 0, 71, 100
2, 91392, Note_on_c, 0, 72, 127
2, 91516, Note_off_c, 0, 72, 100
2, 91520, Note_on_c, 0, 76, 120
2, 91644, Note_off_c, 0, 76, 100
2, 91648, Note_on_c, 0, 69, 120
2, 91772, Note_off_c, 0, 69, 100
2, 91776, Note_on_c, 0, 71, 127
2, 91900, Note_off_c, 0, 71, 100
2, 91904, Note_on_c, 0, 74, 120
2, 92028, Note_off_c, 0, 74, 100
2, 92032, Note_on_c, 0, 68, 120
2, 92156, Note_off_c, 0, 68, 100
2, 92160, Note_on_c, 0, 69, 120
2, 92160, Note_on_c, 0, 64, 120
2, 92160, Note_on_c, 0, 60, 120
2, 92540, Note_off_c, 0, 69, 100
2, 92540, Note_off_c, 0, 64, 100
2, 92540, Note_off_c, 0, 60, 100
2, 92544, Note_on_c, 0, 69, 120
2, 92544, Note_on_c, 0, 64, 120
2, 92544, Note_on_c, 0, 60, 120
2, 92924, Note_off_c, 0, 69, 100
2, 92924, Note_off_c, 0, 64, 100
2, 92924, Note_off_c, 0, 60, 100
2, 93312, Note_on_c, 0, 69, 120
2, 93312, Note_on_c, 0, 64, 120
2, 93312, Note_on_c, 0, 60, 120
2, 93596, Note_off_c, 0, 69, 100
2, 93596, Note_off_c, 0, 64, 100
2, 93596, Note_off_c, 0, 60, 100
2, 93600, Note_on_c, 0, 69, 120
2, 93600, Note_on_c, 0, 64, 120
2, 93600, Note_on_c, 0, 60, 120
2, 93692, Note_off_c, 0, 69, 100
2, 93692, Note_off_c, 0, 64, 100
2, 93692, Note_off_c, 0, 60, 100
2, 93696, Note_on_c, 0, 77, 120
2, 93696, Note_on_c, 0, 74, 120
2, 93696, Note_on_c, 0, 69, 120
2, 93696, Note_on_c, 0, 65, 120
2, 94076, Note_off_c, 0, 77, 100
2, 94076, Note_off_c, 0, 74, 100
2, 94076, Note_off_c, 0, 69, 100
2, 94076, Note_off_c, 0, 65, 100
2, 94080, Note_on_c, 0, 77, 120
2, 94080, Note_on_c, 0, 74, 120
2, 94080, Note_on_c, 0, 69, 120
2, 94080, Note_on_c, 0, 65, 120
2, 94460, Note_off_c, 0, 77, 100
2, 94460, Note_off_c, 0, 74, 100
2, 94460, Note_off_c, 0, 69, 100
2, 94460, Note_off_c, 0, 65, 100
2, 94848, Note_on_c, 0, 77, 120
2, 94848, Note_on_c, 0, 74, 120
2, 94848, Note_on_c, 0, 69, 120
2, 94848, Note_on_c, 0, 65, 120
2, 95132, Note_off_c, 0, 77, 100
2, 95132, Note_off_c, 0, 74, 100
2, 95132, Note_off_c, 0, 69, 100
2, 95132, Note_off_c, 0, 65, 100
2, 95136, Note_on_c, 0, 77, 120
2, 95136, Note_on_c, 0, 74, 120
2, 95136, Note_on_c, 0, 69, 120
2, 95136, Note_on_c, 0, 65, 120
2, 95228, Note_off_c, 0, 77, 100
2, 95228, Note_off_c, 0, 74, 100
2, 95228, Note_off_c, 0, 69, 100
2, 95228, Note_off_c, 0, 65, 100
2, 95232, Note_on_c, 0, 77, 120
2, 95232, Note_on_c, 0, 74, 120
2, 95232, Note_on_c, 0, 71, 120
2, 95232, Note_on_c, 0, 67, 120
2, 95232, Note_on_c, 0, 65, 120
2, 95612, Note_off_c, 0, 77, 100
2, 95612, Note_off_c, 0, 74, 100
2, 95612, Note_off_c, 0, 71, 100
2, 95612, Note_off_c, 0, 67, 100
2, 95612, Note_off_c, 0, 65, 100
2, 95616, Note_on_c, 0, 77, 120
2, 95616, Note_on_c, 0, 74, 120
2, 95616, Note_on_c, 0, 71, 120
2, 95616, Note_on_c, 0, 67, 120
2, 95616, Note_on_c, 0, 65, 120
2, 95996, Note_off_c, 0, 77, 100
2, 95996, Note_off_c, 0, 74, 100
2, 95996, Note_off_c, 0, 71, 100
2, 95996, Note_off_c, 0, 67, 100
2, 95996, Note_off_c, 0, 65, 100
2, 96384, Note_on_c, 0, 77, 120
2, 96384, Note_on_c, 0, 74, 120
2, 96384, Note_on_c, 0, 71, 120
2, 96384, Note_on_c, 0, 67, 120
2, 96384, Note_on_c, 0, 65, 120
2, 96668, Note_off_c, 0, 77, 100
2, 96668, Note_off_c, 0, 74, 100
2, 96668, Note_off_c, 0, 71, 100
2, 96668, Note_off_c, 0, 67, 100
2, 96668, Note_off_c, 0, 65, 100
2, 96672, Note_on_c, 0, 74, 120
2, 96672, Note_on_c, 0, 71, 120
2, 96672, Note_on_c, 0, 67, 120
2, 96672, Note_on_c, 0, 65, 120
2, 96672, Note_on_c, 0, 77, 120
2, 96764, Note_off_c, 0, 74, 100
2, 96764, Note_off_c, 0, 71, 100
2, 96764, Note_off_c, 0, 67, 100
2, 96764, Note_off_c, 0, 65, 100
2, 96764, Note_off_c, 0, 77, 100
2, 96768, Note_on_c, 0, 77, 120
2, 96768, Note_on_c, 0, 74, 120
2, 96768, Note_on_c, 0, 71, 120
2, 96768, Note_on_c, 0, 67, 120
2, 96768, Note_on_c, 0, 65, 120
2, 97148, Note_off_c, 0, 77, 100
2, 97148, Note_off_c, 0, 74, 100
2, 97148, Note_off_c, 0, 71, 100
2, 97148, Note_off_c, 0, 67, 100
2, 97148, Note_off_c, 0, 65, 100
2, 97152, Note_on_c, 0, 77, 120
2, 97152, Note_on_c, 0, 74, 120
2, 97152, Note_on_c, 0, 71, 120
2, 97152, Note_on_c, 0, 67, 120
2, 97152, Note_on_c, 0, 65, 120
2, 97436, Note_off_c, 0, 77, 100
2, 97436, Note_off_c, 0, 74, 100
2, 97436, Note_off_c, 0, 71, 100
2, 97436, Note_off_c, 0, 67, 100
2, 97436, Note_off_c, 0, 65, 100
2, 97440, Note_on_c, 0, 77, 120
2, 97440, Note_on_c, 0, 74, 120
2, 97440, Note_on_c, 0, 71, 120
2, 97440, Note_on_c, 0, 67, 120
2, 97440, Note_on_c, 0, 65, 120
2, 97532, Note_off_c, 0, 77, 100
2, 97532, Note_off_c, 0, 74, 100
2, 97532, Note_off_c, 0, 71, 100
2, 97532, Note_off_c, 0, 67, 100
2, 97532, Note_off_c, 0, 65, 100
2, 97536, Note_on_c, 0, 76, 120
2, 97536, Note_on_c, 0, 72, 120
2, 97536, Note_on_c, 0, 67, 120
2, 97536, Note_on_c, 0, 64, 120
2, 97916, Note_off_c, 0, 76, 100
2, 97916, Note_off_c, 0, 72, 100
2, 97916, Note_off_c, 0, 67, 100
2, 97916, Note_off_c, 0, 64, 100
2, 97920, Note_on_c, 0, 76, 120
2, 97920, Note_on_c, 0, 72, 120
2, 97920, Note_on_c, 0, 67, 120
2, 97920, Note_on_c, 0, 64, 120
2, 98204, Note_off_c, 0, 76, 100
2, 98204, Note_off_c, 0, 72, 100
2, 98204, Note_off_c, 0, 67, 100
2, 98204, Note_off_c, 0, 64, 100
2, 98208, Note_on_c, 0, 76, 120
2, 98208, Note_on_c, 0, 72, 120
2, 98208, Note_on_c, 0, 67, 120
2, 98208, Note_on_c, 0, 64, 120
2, 98300, Note_off_c, 0, 76, 100
2, 98300, Note_off_c, 0, 72, 100
2, 98300, Note_off_c, 0, 67, 100
2, 98300, Note_off_c, 0, 64, 100
2, 98304, Note_on_c, 0, 74, 120
2, 98304, Note_on_c, 0, 69, 120
2, 98304, Note_on_c, 0, 65, 120
2, 98304, Note_on_c, 0, 62, 120
2, 98684, Note_off_c, 0, 74, 100
2, 98684, Note_off_c, 0, 69, 100
2, 98684, Note_off_c, 0, 65, 100
2, 98684, Note_off_c, 0, 62, 100
2, 98688, Note_on_c, 0, 72, 120
2, 98688, Note_on_c, 0, 69, 120
2, 98688, Note_on_c, 0, 66, 120
2, 98688, Note_on_c, 0, 63, 120
2, 98688, Note_on_c, 0, 60, 120
2, 98972, Note_off_c, 0, 72, 100
2, 98972, Note_off_c, 0, 69, 100
2, 98972, Note_off_c, 0, 66, 100
2, 98972, Note_off_c, 0, 63, 100
2, 98972, Note_off_c, 0, 60, 100
2, 98976, Note_on_c, 0, 72, 120
2, 98976, Note_on_c, 0, 69, 120
2, 98976, Note_on_c, 0, 66, 120
2, 98976, Note_on_c, 0, 63, 120
2, 98976, Note_on_c, 0, 60, 120
2, 99068, Note_off_c, 0, 72, 100
2, 99068, Note_off_c, 0, 69, 100
2, 99068, Note_off_c, 0, 66, 100
2, 99068, Note_off_c, 0, 63, 100
2, 99068, Note_off_c, 0, 60, 100
2, 99072, Note_on_c, 0, 72, 120
2, 99072, Note_on_c, 0, 67, 120
2, 99072, Note_on_c, 0, 64, 120
2, 99072, Note_on_c, 0, 60, 120
2, 99452, Note_off_c, 0, 72, 100
2, 99452, Note_off_c, 0, 67, 100
2, 99452, Note_off_c, 0, 64, 100
2, 99452, Note_off_c, 0, 60, 100
2, 99456, Note_on_c, 0, 71, 120
2, 99456, Note_on_c, 0, 67, 120
2, 99456, Note_on_c, 0, 65, 120
2, 99456, Note_on_c, 0, 62, 120
2, 99456, Note_on_c, 0, 59, 120
2, 99836, Note_off_c, 0, 71, 100
2, 99836, Note_off_c, 0, 67, 100
2, 99836, Note_off_c, 0, 65, 100
2, 99836, Note_off_c, 0, 62, 100
2, 99836, Note_off_c, 0, 59, 100
2, 99840, Note_on_c, 0, 72, 120
2, 99840, Note_on_c, 0, 67, 120
2, 99840, Note_on_c, 0, 64, 120
2, 99840, Note_on_c, 0, 60, 120
2, 100220, Note_off_c, 0, 72, 100
2, 100220, Note_off_c, 0, 67, 100
2, 100220, Note_off_c, 0, 64, 100
2, 100220, Note_off_c, 0, 60, 100
2, 100736, Note_on_c, 0, 64, 120
2, 100860, Note_off_c, 0, 64, 100
2, 100864, Note_on_c, 0, 65, 120
2, 100988, Note_off_c, 0, 65, 100
2, 100992, Note_on_c, 0, 66, 120
2, 101116, Note_off_c, 0, 66, 100
2, 101120, Note_on_c, 0, 67, 120
2, 101244, Note_off_c, 0, 67, 100
2, 101248, Note_on_c, 0, 68, 120
2, 101372, Note_off_c, 0, 68, 100
2, 101504, Note_on_c, 0, 69, 120
2, 101628, Note_off_c, 0, 69, 100
2, 101632, Note_on_c, 0, 70, 120
2, 101756, Note_off_c, 0, 70, 100
2, 101760, Note_on_c, 0, 71, 120
2, 101884, Note_off_c, 0, 71, 100
2, 101888, Note_on_c, 0, 72, 120
2, 102012, Note_off_c, 0, 72, 100
2, 102016, Note_on_c, 0, 73, 120
2, 102140, Note_off_c, 0, 73, 100
2, 102144, Note_on_c, 0, 74, 120
2, 102268, Note_off_c, 0, 74, 100
2, 102272, Note_on_c, 0, 75, 120
2, 102396, Note_off_c, 0, 75, 100
2, 102400, Note_on_c, 0, 76, 120
2, 102524, Note_off_c, 0, 76, 100
2, 102528, Note_on_c, 0, 77, 120
2, 102652, Note_off_c, 0, 77, 100
2, 102656, Note_on_c, 0, 76, 120
2, 102780, Note_off_c, 0, 76, 100
2, 102784, Note_on_c, 0, 69, 120
2, 102908, Note_off_c, 0, 69, 100
2, 103040, Note_on_c, 0, 68, 120
2, 103164, Note_off_c, 0, 68, 100
2, 103168, Note_on_c, 0, 69, 120
2, 103292, Note_off_c, 0, 69, 100
2, 103296, Note_on_c, 0, 70, 120
2, 103420, Note_off_c, 0, 70, 100
2, 103424, Note_on_c, 0, 71, 120
2, 103548, Note_off_c, 0, 71, 100
2, 103552, Note_on_c, 0, 72, 120
2, 103676, Note_off_c, 0, 72, 100
2, 103680, Note_on_c, 0, 73, 120
2, 103804, Note_off_c, 0, 73, 100
2, 103808, Note_on_c, 0, 74, 120
2, 103932, Note_off_c, 0, 74, 100
2, 103936, Note_on_c, 0, 75, 120
2, 104060, Note_off_c, 0, 75, 100
2, 104064, Note_on_c, 0, 76, 120
2, 104188, Note_off_c, 0, 76, 100
2, 104192, Note_on_c, 0, 74, 120
2, 104316, Note_off_c, 0, 74, 100
2, 104320, Note_on_c, 0, 68, 120
2, 104444, Note_off_c, 0, 68, 100
2, 104576, Note_on_c, 0, 69, 120
2, 104700, Note_off_c, 0, 69, 100
2, 104704, Note_on_c, 0, 71, 120
2, 104828, Note_off_c, 0, 71, 100
2, 104832, Note_on_c, 0, 72, 120
2, 104956, Note_off_c, 0, 72, 100
2, 104960, Note_on_c, 0, 73, 120
2, 105084, Note_off_c, 0, 73, 100
2, 105088, Note_on_c, 0, 74, 120
2, 105212, Note_off_c, 0, 74, 100
2, 105216, Note_on_c, 0, 75, 120
2, 105340, Note_off_c, 0, 75, 100
2, 105344, Note_on_c, 0, 76, 120
2, 105468, Note_off_c, 0, 76, 100
2, 105472, Note_on_c, 0, 77, 120
2, 105596, Note_off_c, 0, 77, 100
2, 105600, Note_on_c, 0, 78, 120
2, 105724, Note_off_c, 0, 78, 100
2, 105728, Note_on_c, 0, 79, 120
2, 105852, Note_off_c, 0, 79, 100
2, 105856, Note_on_c, 0, 80, 120
2, 105980, Note_off_c, 0, 80, 100
2, 105984, Note_on_c, 0, 81, 120
2, 106108, Note_off_c, 0, 81, 100
2, 106112, Note_on_c, 0, 76, 120
2, 106236, Note_off_c, 0, 76, 100
2, 106240, Note_on_c, 0, 77, 120
2, 106364, Note_off_c, 0, 77, 100
2, 106368, Note_on_c, 0, 74, 120
2, 106492, Note_off_c, 0, 74, 100
2, 106496, Note_on_c, 0, 77, 120
2, 106620, Note_off_c, 0, 77, 100
2, 106624, Note_on_c, 0, 71, 120
2, 106748, Note_off_c, 0, 71, 100
2, 106752, Note_on_c, 0, 72, 120
2, 106876, Note_off_c, 0, 72, 100
2, 106880, Note_on_c, 0, 76, 120
2, 107004, Note_off_c, 0, 76, 100
2, 107008, Note_on_c, 0, 69, 120
2, 107132, Note_off_c, 0, 69, 100
2, 107136, Note_on_c, 0, 71, 120
2, 107260, Note_off_c, 0, 71, 100
2, 107264, Note_on_c, 0, 74, 120
2, 107388, Note_off_c, 0, 74, 100
2, 107392, Note_on_c, 0, 68, 120
2, 107516, Note_off_c, 0, 68, 100
2, 107520, Note_on_c, 0, 69, 120
2, 107520, Note_on_c, 0, 64, 120
2, 107520, Note_on_c, 0, 60, 120
2, 107900, Note_off_c, 0, 69, 100
2, 107900, Note_off_c, 0, 64, 100
2, 107900, Note_off_c, 0, 60, 100
2, 107904, Note_on_c, 0, 69, 120
2, 107904, Note_on_c, 0, 64, 120
2, 107904, Note_on_c, 0, 60, 120
2, 108284, Note_off_c, 0, 69, 100
2, 108284, Note_off_c, 0, 64, 100
2, 108284, Note_off_c, 0, 60, 100
2, 108672, Note_on_c, 0, 69, 120
2, 108672, Note_on_c, 0, 64, 120
2, 108672, Note_on_c, 0, 60, 120
2, 108956, Note_off_c, 0, 69, 100
2, 108956, Note_off_c, 0, 64, 100
2, 108956, Note_off_c, 0, 60, 100
2, 108960, Note_on_c, 0, 69, 120
2, 108960, Note_on_c, 0, 64, 120
2, 108960, Note_on_c, 0, 60, 120
2, 109052, Note_off_c, 0, 69, 100
2, 109052, Note_off_c, 0, 64, 100
2, 109052, Note_off_c, 0, 60, 100
2, 109056, Note_on_c, 0, 77, 120
2, 109056, Note_on_c, 0, 74, 120
2, 109056, Note_on_c, 0, 69, 120
2, 109056, Note_on_c, 0, 65, 120
2, 109436, Note_off_c, 0, 77, 100
2, 109436, Note_off_c, 0, 74, 100
2, 109436, Note_off_c, 0, 69, 100
2, 109436, Note_off_c, 0, 65, 100
2, 109440, Note_on_c, 0, 77, 120
2, 109440, Note_on_c, 0, 74, 120
2, 109440, Note_on_c, 0, 69, 120
2, 109440, Note_on_c, 0, 65, 120
2, 109820, Note_off_c, 0, 77, 100
2, 109820, Note_off_c, 0, 74, 100
2, 109820, Note_off_c, 0, 69, 100
2, 109820, Note_off_c, 0, 65, 100
2, 110208, Note_on_c, 0, 77, 120
2, 110208, Note_on_c, 0, 74, 120
2, 110208, Note_on_c, 0, 69, 120
2, 110208, Note_on_c, 0, 65, 120
2, 110492, Note_off_c, 0, 77, 100
2, 110492, Note_off_c, 0, 74, 100
2, 110492, Note_off_c, 0, 69, 100
2, 110492, Note_off_c, 0, 65, 100
2, 110496, Note_on_c, 0, 77, 120
2, 110496, Note_on_c, 0, 74, 120
2, 110496, Note_on_c, 0, 69, 120
2, 110496, Note_on_c, 0, 65, 120
2, 110588, Note_off_c, 0, 77, 100
2, 110588, Note_off_c, 0, 74, 100
2, 110588, Note_off_c, 0, 69, 100
2, 110588, Note_off_c, 0, 65, 100
2, 110592, Note_on_c, 0, 77, 120
2, 110592, Note_on_c, 0, 74, 120
2, 110592, Note_on_c, 0, 71, 120
2, 110592, Note_on_c, 0, 67, 120
2, 110592, Note_on_c, 0, 65, 120
2, 110972, Note_off_c, 0, 77, 100
2, 110972, Note_off_c, 0, 74, 100
2, 110972, Note_off_c, 0, 71, 100
2, 110972, Note_off_c, 0, 67, 100
2, 110972, Note_off_c, 0, 65, 100
2, 110976, Note_on_c, 0, 77, 120
2, 110976, Note_on_c, 0, 74, 120
2, 110976, Note_on_c, 0, 71, 120
2, 110976, Note_on_c, 0, 67, 120
2, 110976, Note_on_c, 0, 65, 120
2, 111356, Note_off_c, 0, 77, 100
2, 111356, Note_off_c, 0, 74, 100
2, 111356, Note_off_c, 0, 71, 100
2, 111356, Note_off_c, 0, 67, 100
2, 111356, Note_off_c, 0, 65, 100
2, 111744, Note_on_c, 0, 77, 120
2, 111744, Note_on_c, 0, 74, 120
2, 111744, Note_on_c, 0, 71, 120
2, 111744, Note_on_c, 0, 67, 120
2, 111744, Note_on_c, 0, 65, 120
2, 112028, Note_off_c, 0, 77, 100
2, 112028, Note_off_c, 0, 74, 100
2, 112028, Note_off_c, 0, 71, 100
2, 112028, Note_off_c, 0, 67, 100
2, 112028, Note_off_c, 0, 65, 100
2, 112032, Note_on_c, 0, 74, 120
2, 112032, Note_on_c, 0, 71, 120
2, 112032, Note_on_c, 0, 67, 120
2, 112032, Note_on_c, 0, 65, 120
2, 112032, Note_on_c, 0, 77, 120
2, 112124, Note_off_c, 0, 74, 100
2, 112124, Note_off_c, 0, 71, 100
2, 112124, Note_off_c, 0, 67, 100
2, 112124, Note_off_c, 0, 65, 100
2, 112124, Note_off_c, 0, 77, 100
2, 112128, Note_on_c, 0, 77, 120
2, 112128, Note_on_c, 0, 74, 120
2, 112128, Note_on_c, 0, 71, 120
2, 112128, Note_on_c, 0, 67, 120
2, 112128, Note_on_c, 0, 65, 120
2, 112508, Note_off_c, 0, 77, 100
2, 112508, Note_off_c, 0, 74, 100
2, 112508, Note_off_c, 0, 71, 100
2, 112508, Note_off_c, 0, 67, 100
2, 112508, Note_off_c, 0, 65, 100
2, 112512, Note_on_c, 0, 77, 120
2, 112512, Note_on_c, 0, 74, 120
2, 112512, Note_on_c, 0, 71, 120
2, 112512, Note_on_c, 0, 67, 120
2, 112512, Note_on_c, 0, 65, 120
2, 112796, Note_off_c, 0, 77, 100
2, 112796, Note_off_c, 0, 74, 100
2, 112796, Note_off_c, 0, 71, 100
2, 112796, Note_off_c, 0, 67, 100
2, 112796, Note_off_c, 0, 65, 100
2, 112800, Note_on_c, 0, 77, 120
2, 112800, Note_on_c, 0, 74, 120
2, 112800, Note_on_c, 0, 71, 120
2, 112800, Note_on_c, 0, 67, 120
2, 112800, Note_on_c, 0, 65, 120
2, 112892, Note_off_c, 0, 77, 100
2, 112892, Note_off_c, 0, 74, 100
2, 112892, Note_off_c, 0, 71, 100
2, 112892, Note_off_c, 0, 67, 100
2, 112892, Note_off_c, 0, 65, 100
2, 112896, Note_on_c, 0, 76, 120
2, 112896, Note_on_c, 0, 72, 120
2, 112896, Note_on_c, 0, 67, 120
2, 112896, Note_on_c, 0, 64, 120
2, 113276, Note_off_c, 0, 76, 100
2, 113276, Note_off_c, 0, 72, 100
2, 113276, Note_off_c, 0, 67, 100
2, 113276, Note_off_c, 0, 64, 100
2, 113280, Note_on_c, 0, 76, 120
2, 113280, Note_on_c, 0, 72, 120
2, 113280, Note_on_c, 0, 67, 120
2, 113280, Note_on_c, 0, 64, 120
2, 113564, Note_off_c, 0, 76, 100
2, 113564, Note_off_c, 0, 72, 100
2, 113564, Note_off_c, 0, 67, 100
2, 113564, Note_off_c, 0, 64, 100
2, 113568, Note_on_c, 0, 76, 120
2, 113568, Note_on_c, 0, 72, 120
2, 113568, Note_on_c, 0, 67, 120
2, 113568, Note_on_c, 0, 64, 120
2, 113660, Note_off_c, 0, 76, 100
2, 113660, Note_off_c, 0, 72, 100
2, 113660, Note_off_c, 0, 67, 100
2, 113660, Note_off_c, 0, 64, 100
2, 113664, Note_on_c, 0, 74, 120
2, 113664, Note_on_c, 0, 69, 120
2, 113664, Note_on_c, 0, 65, 120
2, 113664, Note_on_c, 0, 62, 120
2, 114044, Note_off_c, 0, 74, 100
2, 114044, Note_off_c, 0, 69, 100
2, 114044, Note_off_c, 0, 65, 100
2, 114044, Note_off_c, 0, 62, 100
2, 114048, Note_on_c, 0, 72, 120
2, 114048, Note_on_c, 0, 69, 120
2, 114048, Note_on_c, 0, 66, 120
2, 114048, Note_on_c, 0, 63, 120
2, 114048, Note_on_c, 0, 60, 120
2, 114332, Note_off_c, 0, 72, 100
2, 114332, Note_off_c, 0, 69, 100
2, 114332, Note_off_c, 0, 66, 100
2, 114332, Note_off_c, 0, 63, 100
2, 114332, Note_off_c, 0, 60, 100
2, 114336, Note_on_c, 0, 72, 120
2, 114336, Note_on_c, 0, 69, 120
2, 114336, Note_on_c, 0, 66, 120
2, 114336, Note_on_c, 0, 63, 120
2, 114336, Note_on_c, 0, 60, 120
2, 114428, Note_off_c, 0, 72, 100
2, 114428, Note_off_c, 0, 69, 100
2, 114428, Note_off_c, 0, 66, 100
2, 114428, Note_off_c, 0, 63, 100
2, 114428, Note_off_c, 0, 60, 100
2, 114432, Note_on_c, 0, 72, 120
2, 114432, Note_on_c, 0, 67, 120
2, 114432, Note_on_c, 0, 64, 120
2, 114432, Note_on_c, 0, 60, 120
2, 114812, Note_off_c, 0, 72, 100
2, 114812, Note_off_c, 0, 67, 100
2, 114812, Note_off_c, 0, 64, 100
2, 114812, Note_off_c, 0, 60, 100
2, 114816, Note_on_c, 0, 71, 120
2, 114816, Note_on_c, 0, 67, 120
2, 114816, Note_on_c, 0, 65, 120
2, 114816, Note_on_c, 0, 62, 120
2, 114816, Note_on_c, 0, 59, 120
2, 115196, Note_off_c, 0, 71, 100
2, 115196, Note_off_c, 0, 67, 100
2, 115196, Note_off_c, 0, 65, 100
2, 115196, Note_off_c, 0, 62, 100
2, 115196, Note_off_c, 0, 59, 100
2, 115200, Note_on_c, 0, 72, 120
2, 115200, Note_on_c, 0, 67, 120
2, 115200, Note_on_c, 0, 64, 120
2, 115200, Note_on_c, 0, 60, 120
2, 115580, Note_off_c, 0, 72, 100
2, 115580, Note_off_c, 0, 67, 100
2, 115580, Note_off_c, 0, 64, 100
2, 115580, Note_off_c, 0, 60, 100
2, 116096, Note_on_c, 0, 55, 120
2, 116220, Note_off_c, 0, 55, 100
2, 116224, Note_on_c, 0, 56, 120
2, 116348, Note_off_c, 0, 56, 100
2, 116352, Note_on_c, 0, 57, 120
2, 116476, Note_off_c, 0, 57, 100
2, 116480, Note_on_c, 0, 58, 120
2, 116604, Note_off_c, 0, 58, 100
2, 116608, Note_on_c, 0, 59, 120
2, 116732, Note_off_c, 0, 59, 100
2, 116736, Note_on_c, 0, 60, 120
2, 116860, Note_off_c, 0, 60, 100
2, 116864, Note_on_c, 0, 61, 120
2, 116988, Note_off_c, 0, 61, 100
2, 116992, Note_on_c, 0, 62, 120
2, 117116, Note_off_c, 0, 62, 100
2, 117120, Note_on_c, 0, 63, 120
2, 117244, Note_off_c, 0, 63, 100
2, 117248, Note_on_c, 0, 64, 120
2, 117372, Note_off_c, 0, 64, 100
2, 117376, Note_on_c, 0, 65, 120
2, 117500, Note_off_c, 0, 65, 100
2, 117504, Note_on_c, 0, 66, 120
2, 117628, Note_off_c, 0, 66, 100
2, 117632, Note_on_c, 0, 67, 120
2, 117756, Note_off_c, 0, 67, 100
2, 117760, Note_on_c, 0, 68, 120
2, 117884, Note_off_c, 0, 68, 100
2, 117888, Note_on_c, 0, 69, 120
2, 118012, Note_off_c, 0, 69, 100
2, 118016, Note_on_c, 0, 70, 120
2, 118140, Note_off_c, 0, 70, 100
2, 118144, Note_on_c, 0, 71, 120
2, 118268, Note_off_c, 0, 71, 100
2, 118272, Note_on_c, 0, 72, 120
2, 118272, Note_on_c, 0, 62, 120
2, 118652, Note_off_c, 0, 72, 100
2, 118656, Note_on_c, 0, 71, 120
2, 119036, Note_off_c, 0, 62, 100
2, 119036, Note_off_c, 0, 71, 100
2, 119936, Note_on_c, 0, 62, 120
2, 120060, Note_off_c, 0, 62, 100
2, 120064, Note_on_c, 0, 64, 120
2, 120188, Note_off_c, 0, 64, 100
2, 120192, Note_on_c, 0, 65, 120
2, 120316, Note_off_c, 0, 65, 100
2, 120320, Note_on_c, 0, 66, 120
2, 120444, Note_off_c, 0, 66, 100
2, 120448, Note_on_c, 0, 67, 120
2, 120572, Note_off_c, 0, 67, 100
2, 120576, Note_on_c, 0, 68, 120
2, 120700, Note_off_c, 0, 68, 100
2, 120704, Note_on_c, 0, 69, 120
2, 120828, Note_off_c, 0, 69, 100
2, 120832, Note_on_c, 0, 70, 120
2, 120956, Note_off_c, 0, 70, 100
2, 120960, Note_on_c, 0, 71, 120
2, 121084, Note_off_c, 0, 71, 100
2, 121088, Note_on_c, 0, 72, 120
2, 121212, Note_off_c, 0, 72, 100
2, 121216, Note_on_c, 0, 73, 120
2, 121340, Note_off_c, 0, 73, 100
2, 121344, Note_on_c, 0, 74, 120
2, 121344, Note_on_c, 0, 64, 120
2, 121724, Note_off_c, 0, 74, 100
2, 121728, Note_on_c, 0, 72, 120
2, 122108, Note_off_c, 0, 64, 100
2, 122108, Note_off_c, 0, 72, 100
2, 123008, Note_on_c, 0, 64, 120
2, 123132, Note_off_c, 0, 64, 100
2, 123136, Note_on_c, 0, 66, 120
2, 123260, Note_off_c, 0, 66, 100
2, 123264, Note_on_c, 0, 67, 120
2, 123388, Note_off_c, 0, 67, 100
2, 123392, Note_on_c, 0, 69, 120
2, 123516, Note_off_c, 0, 69, 100
2, 123520, Note_on_c, 0, 70, 120
2, 123644, Note_off_c, 0, 70, 100
2, 123648, Note_on_c, 0, 71, 120
2, 123772, Note_off_c, 0, 71, 100
2, 123776, Note_on_c, 0, 72, 120
2, 123900, Note_off_c, 0, 72, 100
2, 123904, Note_on_c, 0, 73, 120
2, 124028, Note_off_c, 0, 73, 100
2, 124032, Note_on_c, 0, 74, 120
2, 124156, Note_off_c, 0, 74, 100
2, 124160, Note_on_c, 0, 75, 120
2, 124284, Note_off_c, 0, 75, 100
2, 124288, Note_on_c, 0, 76, 120
2, 124412, Note_off_c, 0, 76, 100
2, 124416, Note_on_c, 0, 77, 120
2, 124540, Note_off_c, 0, 77, 100
2, 124544, Note_on_c, 0, 78, 120
2, 124668, Note_off_c, 0, 78, 100
2, 124672, Note_on_c, 0, 79, 120
2, 124796, Note_off_c, 0, 79, 100
2, 124800, Note_on_c, 0, 80, 120
2, 124924, Note_off_c, 0, 80, 100
2, 124928, Note_on_c, 0, 81, 120
2, 125052, Note_off_c, 0, 81, 100
2, 125056, Note_on_c, 0, 82, 120
2, 125180, Note_off_c, 0, 82, 100
2, 125184, Note_on_c, 0, 83, 120
2, 125308, Note_off_c, 0, 83, 100
2, 125312, Note_on_c, 0, 71, 120
2, 125436, Note_off_c, 0, 71, 100
2, 125440, Note_on_c, 0, 84, 120
2, 125564, Note_off_c, 0, 84, 100
2, 125568, Note_on_c, 0, 81, 120
2, 125692, Note_off_c, 0, 81, 100
2, 125696, Note_on_c, 0, 71, 120
2, 125820, Note_off_c, 0, 71, 100
2, 125824, Note_on_c, 0, 83, 120
2, 125948, Note_off_c, 0, 83, 100
2, 125952, Note_on_c, 0, 79, 120
2, 126076, Note_off_c, 0, 79, 100
2, 126080, Note_on_c, 0, 71, 120
2, 126204, Note_off_c, 0, 71, 100
2, 126208, Note_on_c, 0, 81, 120
2, 126332, Note_off_c, 0, 81, 100
2, 126336, Note_on_c, 0, 78, 120
2, 126460, Note_off_c, 0, 78, 100
2, 126464, Note_on_c, 0, 69, 120
2, 126588, Note_off_c, 0, 69, 100
2, 126592, Note_on_c, 0, 79, 120
2, 126716, Note_off_c, 0, 79, 100
2, 126720, Note_on_c, 0, 76, 120
2, 126844, Note_off_c, 0, 76, 100
2, 126848, Note_on_c, 0, 67, 120
2, 126972, Note_off_c, 0, 67, 100
2, 126976, Note_on_c, 0, 78, 120
2, 127100, Note_off_c, 0, 78, 100
2, 127104, Note_on_c, 0, 75, 120
2, 127228, Note_off_c, 0, 75, 100
2, 127232, Note_on_c, 0, 66, 120
2, 127356, Note_off_c, 0, 66, 100
2, 127360, Note_on_c, 0, 78, 120
2, 127484, Note_off_c, 0, 78, 100
2, 127488, Note_on_c, 0, 76, 120
2, 127612, Note_off_c, 0, 76, 100
2, 127616, Note_on_c, 0, 68, 120
2, 127740, Note_off_c, 0, 68, 100
2, 127744, Note_on_c, 0, 77, 120
2, 127868, Note_off_c, 0, 77, 100
2, 127872, Note_on_c, 0, 74, 120
2, 127996, Note_off_c, 0, 74, 100
2, 128000, Note_on_c, 0, 71, 120
2, 128124, Note_off_c, 0, 71, 100
2, 128128, Note_on_c, 0, 76, 120
2, 128252, Note_off_c, 0, 76, 100
2, 128256, Note_on_c, 0, 72, 120
2, 128380, Note_off_c, 0, 72, 100
2, 128384, Note_on_c, 0, 69, 120
2, 128508, Note_off_c, 0, 69, 100
2, 128512, Note_on_c, 0, 74, 120
2, 128636, Note_off_c, 0, 74, 100
2, 128640, Note_on_c, 0, 71, 120
2, 128764, Note_off_c, 0, 71, 100
2, 128768, Note_on_c, 0, 68, 120
2, 128892, Note_off_c, 0, 68, 100
2, 128896, Note_on_c, 0, 72, 120
2, 129020, Note_off_c, 0, 72, 100
2, 129152, Note_on_c, 0, 69, 120
2, 129276, Note_off_c, 0, 69, 100
2, 129280, Note_on_c, 0, 70, 120
2, 129404, Note_off_c, 0, 70, 100
2, 129408, Note_on_c, 0, 71, 120
2, 129532, Note_off_c, 0, 71, 100
2, 129536, Note_on_c, 0, 72, 120
2, 129660, Note_off_c, 0, 72, 100
2, 129664, Note_on_c, 0, 73, 120
2, 129788, Note_off_c, 0, 73, 100
2, 129792, Note_on_c, 0, 74, 120
2, 129916, Note_off_c, 0, 74, 100
2, 129920, Note_on_c, 0, 75, 120
2, 130044, Note_off_c, 0, 75, 100
2, 130048, Note_on_c, 0, 76, 120
2, 130172, Note_off_c, 0, 76, 100
2, 130176, Note_on_c, 0, 77, 120
2, 130300, Note_off_c, 0, 77, 100
2, 130304, Note_on_c, 0, 76, 120
2, 130428, Note_off_c, 0, 76, 100
2, 130432, Note_on_c, 0, 69, 120
2, 130556, Note_off_c, 0, 69, 100
2, 130688, Note_on_c, 0, 68, 120
2, 130812, Note_off_c, 0, 68, 100
2, 130816, Note_on_c, 0, 69, 120
2, 130940, Note_off_c, 0, 69, 100
2, 130944, Note_on_c, 0, 70, 120
2, 131068, Note_off_c, 0, 70, 100
2, 131072, Note_on_c, 0, 71, 120
2, 131196, Note_off_c, 0, 71, 100
2, 131200, Note_on_c, 0, 72, 120
2, 131324, Note_off_c, 0, 72, 100
2, 131328, Note_on_c, 0, 73, 120
2, 131452, Note_off_c, 0, 73, 100
2, 131456, Note_on_c, 0, 74, 120
2, 131580, Note_off_c, 0, 74, 100
2, 131584, Note_on_c, 0, 75, 120
2, 131708, Note_off_c, 0, 75, 100
2, 131712, Note_on_c, 0, 76, 120
2, 131836, Note_off_c, 0, 76, 100
2, 131840, Note_on_c, 0, 74, 120
2, 131964, Note_off_c, 0, 74, 100
2, 131968, Note_on_c, 0, 68, 120
2, 132092, Note_off_c, 0, 68, 100
2, 132224, Note_on_c, 0, 69, 120
2, 132348, Note_off_c, 0, 69, 100
2, 132352, Note_on_c, 0, 71, 120
2, 132476, Note_off_c, 0, 71, 100
2, 132480, Note_on_c, 0, 72, 120
2, 132604, Note_off_c, 0, 72, 100
2, 132608, Note_on_c, 0, 74, 120
2, 132732, Note_off_c, 0, 74, 100
2, 132736, Note_on_c, 0, 75, 120
2, 132860, Note_off_c, 0, 75, 100
2, 132864, Note_on_c, 0, 76, 120
2, 132988, Note_off_c, 0, 76, 100
2, 132992, Note_on_c, 0, 77, 120
2, 133116, Note_off_c, 0, 77, 100
2, 133120, Note_on_c, 0, 78, 120
2, 133244, Note_off_c, 0, 78, 100
2, 133248, Note_on_c, 0, 79, 120
2, 133372, Note_off_c, 0, 79, 100
2, 133376, Note_on_c, 0, 80, 120
2, 133500, Note_off_c, 0, 80, 100
2, 133504, Note_on_c, 0, 81, 120
2, 133628, Note_off_c, 0, 81, 100
2, 133632, Note_on_c, 0, 82, 120
2, 133756, Note_off_c, 0, 82, 100
2, 133760, Note_on_c, 0, 83, 120
2, 133884, Note_off_c, 0, 83, 100
2, 133888, Note_on_c, 0, 84, 120
2, 134012, Note_off_c, 0, 84, 100
2, 134016, Note_on_c, 0, 85, 120
2, 134140, Note_off_c, 0, 85, 100
2, 134144, Note_on_c, 0, 86, 120
2, 134268, Note_off_c, 0, 86, 100
2, 134272, Note_on_c, 0, 87, 120
2, 134396, Note_off_c, 0, 87, 100
2, 134400, Note_on_c, 0, 88, 120
2, 134524, Note_off_c, 0, 88, 100
2, 134528, Note_on_c, 0, 84, 120
2, 134652, Note_off_c, 0, 84, 100
2, 134656, Note_on_c, 0, 81, 120
2, 134780, Note_off_c, 0, 81, 100
2, 134784, Note_on_c, 0, 86, 120
2, 134908, Note_off_c, 0, 86, 100
2, 134912, Note_on_c, 0, 83, 120
2, 135036, Note_off_c, 0, 83, 100
2, 135040, Note_on_c, 0, 80, 120
2, 135164, Note_off_c, 0, 80, 100
2, 135168, Note_on_c, 0, 81, 120
2, 135292, Note_off_c, 0, 81, 100
2, 135296, Note_on_c, 0, 77, 120
2, 135420, Note_off_c, 0, 77, 100
2, 135424, Note_on_c, 0, 76, 120
2, 135548, Note_off_c, 0, 76, 100
2, 135552, Note_on_c, 0, 74, 120
2, 135676, Note_off_c, 0, 74, 100
2, 135680, Note_on_c, 0, 72, 120
2, 135804, Note_off_c, 0, 72, 100
2, 135808, Note_on_c, 0, 71, 120
2, 135932, Note_off_c, 0, 71, 100
2, 135936, Note_on_c, 0, 69, 120
2, 136316, Note_off_c, 0, 69, 100
2, 136704, Note_on_c, 0, 60, 80
2, 136828, Note_off_c, 0, 60, 100
2, 136832, Note_on_c, 0, 61, 80
2, 136956, Note_off_c, 0, 61, 100
2, 136960, Note_on_c, 0, 62, 80
2, 137084, Note_off_c, 0, 62, 100
2, 137088, Note_on_c, 0, 63, 80
2, 137212, Note_off_c, 0, 63, 100
2, 137216, Note_on_c, 0, 64, 80
2, 137340, Note_off_c, 0, 64, 100
2, 137344, Note_on_c, 0, 65, 80
2, 137468, Note_off_c, 0, 65, 100
2, 137472, Note_on_c, 0, 66, 80
2, 137596, Note_off_c, 0, 66, 100
2, 137600, Note_on_c, 0, 67, 80
2, 137724, Note_off_c, 0, 67, 100
2, 137728, Note_on_c, 0, 68, 80
2, 137852, Note_off_c, 0, 68, 100
2, 137856, Note_on_c, 0, 69, 80
2, 137980, Note_off_c, 0, 69, 100
2, 137984, Note_on_c, 0, 70, 80
2, 138108, Note_off_c, 0, 70, 100
2, 138112, Note_on_c, 0, 71, 80
2, 138236, Note_off_c, 0, 71, 100
2, 138240, Note_on_c, 0, 72, 80
2, 138240, Note_on_c, 0, 62, 80
2, 138620, Note_off_c, 0, 72, 100
2, 138624, Note_on_c, 0, 71, 80
2, 139004, Note_off_c, 0, 62, 100
2, 139004, Note_off_c, 0, 71, 100
2, 139904, Note_on_c, 0, 62, 80
2, 140028, Note_off_c, 0, 62, 100
2, 140032, Note_on_c, 0, 64, 80
2, 140156, Note_off_c, 0, 64, 100
2, 140160, Note_on_c, 0, 65, 80
2, 140284, Note_off_c, 0, 65, 100
2, 140288, Note_on_c, 0, 66, 80
2, 140412, Note_off_c, 0, 66, 100
2, 140416, Note_on_c, 0, 67, 80
2, 140540, Note_off_c, 0, 67, 100
2, 140544, Note_on_c, 0, 68, 80
2, 140668, Note_off_c, 0, 68, 100
2, 140672, Note_on_c, 0, 69, 80
2, 140796, Note_off_c, 0, 69, 100
2, 140800, Note_on_c, 0, 70, 80
2, 140924, Note_off_c, 0, 70, 100
2, 140928, Note_on_c, 0, 71, 80
2, 141052, Note_off_c, 0, 71, 100
2, 141056, Note_on_c, 0, 72, 80
2, 141180, Note_off_c, 0, 72, 100
2, 141184, Note_on_c, 0, 73, 80
2, 141308, Note_off_c, 0, 73, 100
2, 141312, Note_on_c, 0, 74, 80
2, 141312, Note_on_c, 0, 64, 80
2, 141692, Note_off_c, 0, 74, 100
2, 141696, Note_on_c, 0, 72, 80
2, 142076, Note_off_c, 0, 64, 100
2, 142076, Note_off_c, 0, 72, 100
2, 142976, Note_on_c, 0, 64, 80
2, 143100, Note_off_c, 0, 64, 100
2, 143104, Note_on_c, 0, 66, 81
2, 143228, Note_off_c, 0, 66, 100
2, 143232, Note_on_c, 0, 67, 82
2, 143356, Note_off_c, 0, 67, 100
2, 143360, Note_on_c, 0, 69, 83
2, 143484, Note_off_c, 0, 69, 100
2, 143488, Note_on_c, 0, 70, 84
2, 143612, Note_off_c, 0, 70, 100
2, 143616, Note_on_c, 0, 71, 85
2, 143740, Note_off_c, 0, 71, 100
2, 143744, Note_on_c, 0, 72, 86
2, 143868, Note_off_c, 0, 72, 100
2, 143872, Note_on_c, 0, 73, 86
2, 143996, Note_off_c, 0, 73, 100
2, 144000, Note_on_c, 0, 74, 87
2, 144124, Note_off_c, 0, 74, 100
2, 144128, Note_on_c, 0, 75, 88
2, 144252, Note_off_c, 0, 75, 100
2, 144256, Note_on_c, 0, 76, 89
2, 144380, Note_off_c, 0, 76, 100
2, 144384, Note_on_c, 0, 77, 90
2, 144508, Note_off_c, 0, 77, 100
2, 144512, Note_on_c, 0, 78, 91
2, 144636, Note_off_c, 0, 78, 100
2, 144640, Note_on_c, 0, 79, 92
2, 144764, Note_off_c, 0, 79, 100
2, 144768, Note_on_c, 0, 80, 93
2, 144892, Note_off_c, 0, 80, 100
2, 144896, Note_on_c, 0, 81, 93
2, 145020, Note_off_c, 0, 81, 100
2, 145024, Note_on_c, 0, 82, 94
2, 145148, Note_off_c, 0, 82, 100
2, 145152, Note_on_c, 0, 83, 95
2, 145276, Note_off_c, 0, 83, 100
2, 145280, Note_on_c, 0, 71, 96
2, 145404, Note_off_c, 0, 71, 100
2, 145408, Note_on_c, 0, 84, 97
2, 145532, Note_off_c, 0, 84, 100
2, 145536, Note_on_c, 0, 81, 98
2, 145660, Note_off_c, 0, 81, 100
2, 145664, Note_on_c, 0, 71, 99
2, 145788, Note_off_c, 0, 71, 100
2, 145792, Note_on_c, 0, 83, 99
2, 145916, Note_off_c, 0, 83, 100
2, 145920, Note_on_c, 0, 79, 100
2, 146044, Note_off_c, 0, 79, 100
2, 146048, Note_on_c, 0, 71, 100
2, 146172, Note_off_c, 0, 71, 100
2, 146176, Note_on_c, 0, 81, 102
2, 146300, Note_off_c, 0, 81, 100
2, 146304, Note_on_c, 0, 78, 101
2, 146428, Note_off_c, 0, 78, 100
2, 146432, Note_on_c, 0, 69, 102
2, 146556, Note_off_c, 0, 69, 100
2, 146560, Note_on_c, 0, 79, 104
2, 146684, Note_off_c, 0, 79, 100
2, 146688, Note_on_c, 0, 76, 103
2, 146812, Note_off_c, 0, 76, 100
2, 146816, Note_on_c, 0, 67, 104
2, 146940, Note_off_c, 0, 67, 100
2, 146944, Note_on_c, 0, 78, 106
2, 147068, Note_off_c, 0, 78, 100
2, 147072, Note_on_c, 0, 75, 105
2, 147196, Note_off_c, 0, 75, 100
2, 147200, Note_on_c, 0, 66, 106
2, 147324, Note_off_c, 0, 66, 100
2, 147328, Note_on_c, 0, 78, 106
2, 147452, Note_off_c, 0, 78, 100
2, 147456, Note_on_c, 0, 76, 107
2, 147580, Note_off_c, 0, 76, 100
2, 147584, Note_on_c, 0, 68, 108
2, 147708, Note_off_c, 0, 68, 100
2, 147712, Note_on_c, 0, 77, 117
2, 147836, Note_off_c, 0, 77, 100
2, 147840, Note_on_c, 0, 74, 109
2, 147964, Note_off_c, 0, 74, 100
2, 147968, Note_on_c, 0, 71, 110
2, 148092, Note_off_c, 0, 71, 100
2, 148096, Note_on_c, 0, 76, 120
2, 148220, Note_off_c, 0, 76, 100
2, 148224, Note_on_c, 0, 72, 111
2, 148348, Note_off_c, 0, 72, 100
2, 148352, Note_on_c, 0, 69, 111
2, 148476, Note_off_c, 0, 69, 100
2, 148480, Note_on_c, 0, 74, 120
2, 148604, Note_off_c, 0, 74, 100
2, 148608, Note_on_c, 0, 71, 113
2, 148732, Note_off_c, 0, 71, 100
2, 148736, Note_on_c, 0, 68, 113
2, 148860, Note_off_c, 0, 68, 100
2, 148864, Note_on_c, 0, 72, 121
2, 148988, Note_off_c, 0, 72, 100
2, 149120, Note_on_c, 0, 69, 120
2, 149244, Note_off_c, 0, 69, 100
2, 149248, Note_on_c, 0, 70, 120
2, 149372, Note_off_c, 0, 70, 100
2, 149376, Note_on_c, 0, 71, 120
2, 149500, Note_off_c, 0, 71, 100
2, 149504, Note_on_c, 0, 72, 120
2, 149628, Note_off_c, 0, 72, 100
2, 149632, Note_on_c, 0, 73, 120
2, 149756, Note_off_c, 0, 73, 100
2, 149760, Note_on_c, 0, 74, 120
2, 149884, Note_off_c, 0, 74, 100
2, 149888, Note_on_c, 0, 75, 120
2, 150012, Note_off_c, 0, 75, 100
2, 150016, Note_on_c, 0, 76, 120
2, 150140, Note_off_c, 0, 76, 100
2, 150144, Note_on_c, 0, 77, 120
2, 150268, Note_off_c, 0, 77, 100
2, 150272, Note_on_c, 0, 76, 120
2, 150396, Note_off_c, 0, 76, 100
2, 150400, Note_on_c, 0, 69, 120
2, 150524, Note_off_c, 0, 69, 100
2, 150656, Note_on_c, 0, 68, 120
2, 150780, Note_off_c, 0, 68, 100
2, 150784, Note_on_c, 0, 69, 120
2, 150908, Note_off_c, 0, 69, 100
2, 150912, Note_on_c, 0, 70, 120
2, 151036, Note_off_c, 0, 70, 100
2, 151040, Note_on_c, 0, 71, 120
2, 151164, Note_off_c, 0, 71, 100
2, 151168, Note_on_c, 0, 72, 120
2, 151292, Note_off_c, 0, 72, 100
2, 151296, Note_on_c, 0, 73, 120
2, 151420, Note_off_c, 0, 73, 100
2, 151424, Note_on_c, 0, 74, 120
2, 151548, Note_off_c, 0, 74, 100
2, 151552, Note_on_c, 0, 75, 120
2, 151676, Note_off_c, 0, 75, 100
2, 151680, Note_on_c, 0, 76, 120
2, 151804, Note_off_c, 0, 76, 100
2, 151808, Note_on_c, 0, 74, 120
2, 151932, Note_off_c, 0, 74, 100
2, 151936, Note_on_c, 0, 68, 120
2, 152060, Note_off_c, 0, 68, 100
2, 152192, Note_on_c, 0, 69, 120
2, 152316, Note_off_c, 0, 69, 100
2, 152320, Note_on_c, 0, 71, 120
2, 152444, Note_off_c, 0, 71, 100
2, 152448, Note_on_c, 0, 72, 120
2, 152572, Note_off_c, 0, 72, 100
2, 152576, Note_on_c, 0, 73, 120
2, 152700, Note_off_c, 0, 73, 100
2, 152704, Note_on_c, 0, 74, 120
2, 152828, Note_off_c, 0, 74, 100
2, 152832, Note_on_c, 0, 75, 120
2, 152956, Note_off_c, 0, 75, 100
2, 152960, Note_on_c, 0, 76, 120
2, 153084, Note_off_c, 0, 76, 100
2, 153088, Note_on_c, 0, 77, 120
2, 153212, Note_off_c, 0, 77, 100
2, 153216, Note_on_c, 0, 78, 120
2, 153340, Note_off_c, 0, 78, 100
2, 153344, Note_on_c, 0, 79, 120
2, 153468, Note_off_c, 0, 79, 100
2, 153472, Note_on_c, 0, 80, 120
2, 153596, Note_off_c, 0, 80, 100
2, 153600, Note_on_c, 0, 81, 120
2, 153724, Note_off_c, 0, 81, 100
2, 153728, Note_on_c, 0, 82, 120
2, 153852, Note_off_c, 0, 82, 100
2, 153856, Note_on_c, 0, 83, 120
2, 153980, Note_off_c, 0, 83, 100
2, 153984, Note_on_c, 0, 84, 120
2, 154108, Note_off_c, 0, 84, 100
2, 154112, Note_on_c, 0, 83, 120
2, 154236, Note_off_c, 0, 83, 100
2, 154240, Note_on_c, 0, 86, 120
2, 154364, Note_off_c, 0, 86, 100
2, 154368, Note_on_c, 0, 84, 120
2, 154492, Note_off_c, 0, 84, 100
2, 154496, Note_on_c, 0, 83, 120
2, 154620, Note_off_c, 0, 83, 100
2, 154624, Note_on_c, 0, 86, 120
2, 154748, Note_off_c, 0, 86, 100
2, 154752, Note_on_c, 0, 84, 120
2, 154876, Note_off_c, 0, 84, 100
2, 154880, Note_on_c, 0, 83, 114
2, 155004, Note_off_c, 0, 83, 100
2, 155008, Note_on_c, 0, 81, 95
2, 155132, Note_off_c, 0, 81, 100
2, 155136, Note_on_c, 0, 80, 70
2, 155904, Note_on_c, 0, 88, 70
2, 156668, Note_off_c, 0, 80, 100
2, 156668, Note_off_c, 0, 88, 100
2, 156672, Note_on_c, 0, 78, 70
2, 156672, Note_on_c, 0, 81, 70
2, 156672, Note_on_c, 0, 87, 70
2, 158204, Note_off_c, 0, 78, 100
2, 158204, Note_off_c, 0, 81, 100
2, 158204, Note_off_c, 0, 87, 100
2, 158208, Note_on_c, 0, 86, 70
2, 158208, Note_on_c, 0, 83, 70
2, 158208, Note_on_c, 0, 80, 70
2, 158208, Note_on_c, 0, 76, 70
2, 159740, Note_off_c, 0, 86, 100
2, 159740, Note_off_c, 0, 83, 100
2, 159740, Note_off_c, 0, 80, 100
2, 159740, Note_off_c, 0, 76, 100
2, 159744, Note_on_c, 0, 80, 70
2, 159868, Note_off_c, 0, 80, 100
2, 159872, Note_on_c, 0, 81, 70
2, 159996, Note_off_c, 0, 81, 100
2, 160000, Note_on_c, 0, 82, 70
2, 160124, Note_off_c, 0, 82, 100
2, 160128, Note_on_c, 0, 83, 70
2, 160252, Note_off_c, 0, 83, 100
2, 160256, Note_on_c, 0, 84, 70
2, 160380, Note_off_c, 0, 84, 100
2, 160384, Note_on_c, 0, 85, 70
2, 160508, Note_off_c, 0, 85, 100
2, 160512, Note_on_c, 0, 86, 70
2, 160636, Note_off_c, 0, 86, 100
2, 160640, Note_on_c, 0, 85, 70
2, 160764, Note_off_c, 0, 85, 100
2, 160768, Note_on_c, 0, 83, 70
2, 160892, Note_off_c, 0, 83, 100
2, 160896, Note_on_c, 0, 81, 70
2, 161020, Note_off_c, 0, 81, 100
2, 161024, Note_on_c, 0, 80, 70
2, 161148, Note_off_c, 0, 80, 100
2, 161152, Note_on_c, 0, 78, 70
2, 161276, Note_off_c, 0, 78, 100
2, 161280, Note_on_c, 0, 76, 70
2, 161404, Note_off_c, 0, 76, 100
2, 161408, Note_on_c, 0, 74, 70
2, 161532, Note_off_c, 0, 74, 100
2, 161536, Note_on_c, 0, 73, 70
2, 161660, Note_off_c, 0, 73, 100
2, 161664, Note_on_c, 0, 71, 70
2, 161788, Note_off_c, 0, 71, 100
2, 161792, Note_on_c, 0, 69, 70
2, 161916, Note_off_c, 0, 69, 100
2, 161920, Note_on_c, 0, 68, 70
2, 162044, Note_off_c, 0, 68, 100
2, 162048, Note_on_c, 0, 71, 70
2, 162172, Note_off_c, 0, 71, 100
2, 162176, Note_on_c, 0, 69, 70
2, 162300, Note_off_c, 0, 69, 100
2, 162304, Note_on_c, 0, 68, 70
2, 162428, Note_off_c, 0, 68, 100
2, 162432, Note_on_c, 0, 66, 70
2, 162556, Note_off_c, 0, 66, 100
2, 162560, Note_on_c, 0, 64, 70
2, 162684, Note_off_c, 0, 64, 100
2, 162688, Note_on_c, 0, 63, 70
2, 162812, Note_off_c, 0, 63, 100
2, 162816, Note_on_c, 0, 66, 70
2, 162940, Note_off_c, 0, 66, 100
2, 162944, Note_on_c, 0, 64, 70
2, 163068, Note_off_c, 0, 64, 100
2, 163072, Note_on_c, 0, 62, 70
2, 163196, Note_off_c, 0, 62, 100
2, 163200, Note_on_c, 0, 61, 70
2, 163324, Note_off_c, 0, 61, 100
2, 163328, Note_on_c, 0, 59, 70
2, 163452, Note_off_c, 0, 59, 100
2, 163456, Note_on_c, 0, 58, 70
2, 163580, Note_off_c, 0, 58, 100
2, 163584, Note_on_c, 0, 62, 70
2, 163708, Note_off_c, 0, 62, 100
2, 163712, Note_on_c, 0, 61, 70
2, 163836, Note_off_c, 0, 61, 100
2, 163840, Note_on_c, 0, 59, 70
2, 163964, Note_off_c, 0, 59, 100
2, 163968, Note_on_c, 0, 57, 70
2, 164092, Note_off_c, 0, 57, 100
2, 164096, Note_on_c, 0, 56, 70
2, 164220, Note_off_c, 0, 56, 100
2, 164224, Note_on_c, 0, 54, 70
2, 164348, Note_off_c, 0, 54, 100
2, 164352, Note_on_c, 0, 59, 70
2, 164476, Note_off_c, 0, 59, 100
2, 164480, Note_on_c, 0, 57, 70
2, 164604, Note_off_c, 0, 57, 100
2, 164608, Note_on_c, 0, 56, 70
2, 164732, Note_off_c, 0, 56, 100
2, 164736, Note_on_c, 0, 54, 70
2, 164860, Note_off_c, 0, 54, 100
2, 164864, Note_on_c, 0, 52, 70
2, 164988, Note_off_c, 0, 52, 100
2, 164992, Note_on_c, 0, 51, 70
2, 165116, Note_off_c, 0, 51, 100
2, 165120, Note_on_c, 0, 54, 70
2, 165244, Note_off_c, 0, 54, 100
2, 165248, Note_on_c, 0, 52, 70
2, 165372, Note_off_c, 0, 52, 100
2, 165376, Note_on_c, 0, 50, 70
2, 165500, Note_off_c, 0, 50, 100
2, 165504, Note_on_c, 0, 49, 70
2, 165628, Note_off_c, 0, 49, 100
2, 165632, Note_on_c, 0, 47, 70
2, 165756, Note_off_c, 0, 47, 100
2, 165760, Note_on_c, 0, 46, 70
2, 165884, Note_off_c, 0, 46, 100
2, 165888, Note_on_c, 0, 50, 70
2, 166012, Note_off_c, 0, 50, 100
2, 166016, Note_on_c, 0, 49, 70
2, 166140, Note_off_c, 0, 49, 100
2, 166144, Note_on_c, 0, 47, 70
2, 166268, Note_off_c, 0, 47, 100
2, 166272, Note_on_c, 0, 45, 70
2, 166396, Note_off_c, 0, 45, 100
2, 166400, Note_on_c, 0, 44, 70
2, 166524, Note_off_c, 0, 44, 100
2, 166528, Note_on_c, 0, 42, 70
2, 166652, Note_off_c, 0, 42, 100
2, 166656, Note_on_c, 0, 40, 70
2, 166780, Note_off_c, 0, 40, 100
2, 166784, Note_on_c, 0, 42, 70
2, 166908, Note_off_c, 0, 42, 100
2, 166912, Note_on_c, 0, 40, 70
2, 167036, Note_off_c, 0, 40, 100
2, 167040, Note_on_c, 0, 38, 70
2, 167164, Note_off_c, 0, 38, 100
2, 167168, Note_on_c, 0, 37, 70
2, 167292, Note_off_c, 0, 37, 100
2, 167296, Note_on_c, 0, 35, 70
2, 167420, Note_off_c, 0, 35, 100
2, 167424, Key_signature, 3, "major"
2, 168192, Note_on_c, 0, 61, 80
2, 168240, Note_on_c, 0, 62, 80
2, 168284, Note_off_c, 0, 61, 100
2, 168288, Note_on_c, 0, 64, 80
2, 168332, Note_off_c, 0, 62, 100
2, 168336, Note_on_c, 0, 66, 80
2, 168380, Note_off_c, 0, 64, 100
2, 168384, Note_on_c, 0, 68, 80
2, 168428, Note_off_c, 0, 66, 100
2, 168432, Note_on_c, 0, 69, 80
2, 168476, Note_off_c, 0, 68, 100
2, 168480, Note_on_c, 0, 71, 80
2, 168524, Note_off_c, 0, 69, 100
2, 168528, Note_on_c, 0, 73, 80
2, 168572, Note_off_c, 0, 71, 100
2, 168576, Note_on_c, 0, 74, 80
2, 168620, Note_off_c, 0, 73, 100
2, 168624, Note_on_c, 0, 76, 80
2, 168668, Note_off_c, 0, 74, 100
2, 168672, Note_on_c, 0, 78, 80
2, 168716, Note_off_c, 0, 76, 100
2, 168720, Note_on_c, 0, 80, 80
2, 168764, Note_off_c, 0, 78, 100
2, 168768, Note_on_c, 0, 81, 80
2, 168812, Note_off_c, 0, 80, 100
2, 168816, Note_on_c, 0, 83, 80
2, 168860, Note_off_c, 0, 81, 100
2, 168864, Note_on_c, 0, 85, 80
2, 168908, Note_off_c, 0, 83, 100
2, 168912, Note_on_c, 0, 86, 80
2, 168956, Note_off_c, 0, 85, 100
2, 168956, Note_off_c, 0, 86, 100
2, 168960, Note_on_c, 0, 88, 80
2, 169148, Note_off_c, 0, 88, 100
2, 169152, Note_on_c, 0, 68, 80
2, 169244, Note_off_c, 0, 68, 100
2, 169344, Note_on_c, 0, 68, 80
2, 170108, Note_off_c, 0, 68, 100
2, 170112, Note_on_c, 0, 68, 80
2, 170492, Note_off_c, 0, 68, 100
2, 170496, Note_on_c, 0, 69, 80
2, 170780, Note_off_c, 0, 69, 100
2, 170784, Note_on_c, 0, 73, 80
2, 170832, Note_on_c, 0, 71, 80
2, 170876, Note_off_c, 0, 73, 100
2, 170876, Note_off_c, 0, 71, 100
2, 170880, Note_on_c, 0, 71, 80
2, 171164, Note_off_c, 0, 71, 100
2, 171168, Note_on_c, 0, 74, 80
2, 171216, Note_on_c, 0, 73, 80
2, 171260, Note_off_c, 0, 74, 100
2, 171260, Note_off_c, 0, 73, 100
2, 171264, Note_on_c, 0, 73, 80
2, 171548, Note_off_c, 0, 73, 100
2, 171552, Note_on_c, 0, 76, 80
2, 171600, Note_on_c, 0, 74, 80
2, 171644, Note_off_c, 0, 76, 100
2, 171644, Note_off_c, 0, 74, 100
2, 171648, Note_on_c, 0, 74, 80
2, 171932, Note_off_c, 0, 74, 100
2, 171936, Note_on_c, 0, 75, 80
2, 172028, Note_off_c, 0, 75, 100
2, 172032, Note_on_c, 0, 76, 97
2, 172604, Note_off_c, 0, 76, 100
2, 172608, Note_on_c, 0, 74, 80
2, 172700, Note_off_c, 0, 74, 100
2, 172704, Note_on_c, 0, 73, 80
2, 172796, Note_off_c, 0, 73, 100
2, 172800, Note_on_c, 0, 71, 80
2, 173180, Note_off_c, 0, 71, 100
2, 173568, Note_on_c, 0, 57, 80
2, 173616, Note_on_c, 0, 59, 80
2, 173660, Note_off_c, 0, 57, 100
2, 173664, Note_on_c, 0, 57, 80
2, 173708, Note_off_c, 0, 59, 100
2, 173712, Note_on_c, 0, 56, 80
2, 173756, Note_off_c, 0, 57, 100
2, 173804, Note_off_c, 0, 56, 100
2, 173808, Note_on_c, 0, 59, 80
2, 173856, Note_on_c, 0, 61, 80
2, 173900, Note_off_c, 0, 59, 100
2, 173904, Note_on_c, 0, 63, 80
2, 173948, Note_off_c, 0, 61, 100
2, 173952, Note_on_c, 0, 64, 80
2, 173996, Note_off_c, 0, 63, 100
2, 174000, Note_on_c, 0, 66, 80
2, 174044, Note_off_c, 0, 64, 100
2, 174048, Note_on_c, 0, 68, 80
2, 174092, Note_off_c, 0, 66, 100
2, 174096, Note_on_c, 0, 69, 80
2, 174140, Note_off_c, 0, 68, 100
2, 174144, Note_on_c, 0, 71, 80
2, 174188, Note_off_c, 0, 69, 100
2, 174192, Note_on_c, 0, 73, 80
2, 174236, Note_off_c, 0, 71, 100
2, 174240, Note_on_c, 0, 75, 80
2, 174284, Note_off_c, 0, 73, 100
2, 174288, Note_on_c, 0, 76, 80
2, 174332, Note_off_c, 0, 75, 100
2, 174336, Note_on_c, 0, 78, 80
2, 174380, Note_off_c, 0, 76, 100
2, 174400, Note_on_c, 0, 80, 80
2, 174460, Note_off_c, 0, 78, 100
2, 174464, Note_on_c, 0, 81, 80
2, 174524, Note_off_c, 0, 80, 100
2, 174528, Note_on_c, 0, 83, 80
2, 174588, Note_off_c, 0, 81, 100
2, 174592, Note_on_c, 0, 85, 80
2, 174652, Note_off_c, 0, 83, 100
2, 174656, Note_on_c, 0, 87, 80
2, 174716, Note_off_c, 0, 85, 100
2, 174716, Note_off_c, 0, 87, 100
2, 174720, Note_on_c, 0, 88, 80
2, 174908, Note_off_c, 0, 88, 100
2, 174912, Note_on_c, 0, 88, 80
2, 175100, Note_off_c, 0, 88, 100
2, 175104, Note_on_c, 0, 88, 80
2, 175292, Note_off_c, 0, 88, 100
2, 175296, Note_on_c, 0, 66, 80
2, 175388, Note_off_c, 0, 66, 100
2, 175488, Note_on_c, 0, 66, 80
2, 176252, Note_off_c, 0, 66, 100
2, 176256, Note_on_c, 0, 66, 80
2, 176636, Note_off_c, 0, 66, 100
2, 176640, Note_on_c, 0, 68, 80
2, 176828, Note_off_c, 0, 68, 100
2, 176832, Note_on_c, 0, 69, 80
2, 176924, Note_off_c, 0, 69, 100
2, 176928, Note_on_c, 0, 68, 80
2, 177020, Note_off_c, 0, 68, 100
2, 177024, Note_on_c, 0, 66, 80
2, 177212, Note_off_c, 0, 66, 100
2, 177216, Note_on_c, 0, 68, 80
2, 177404, Note_off_c, 0, 68, 100
2, 177408, Note_on_c, 0, 71, 80
2, 177596, Note_off_c, 0, 71, 100
2, 177600, Note_on_c, 0, 69, 80
2, 177788, Note_off_c, 0, 69, 100
2, 177792, Note_on_c, 0, 66, 80
2, 177980, Note_off_c, 0, 66, 100
2, 177984, Note_on_c, 0, 63, 80
2, 178172, Note_off_c, 0, 63, 100
2, 178176, Note_on_c, 0, 66, 80
2, 178176, Note_on_c, 0, 63, 80
2, 178940, Note_off_c, 0, 66, 100
2, 178940, Note_off_c, 0, 63, 100
2, 178944, Note_on_c, 0, 64, 80
2, 179036, Note_off_c, 0, 64, 100
2, 179040, Note_on_c, 0, 76, 80
2, 179132, Note_off_c, 0, 76, 100
2, 179136, Note_on_c, 0, 75, 80
2, 179228, Note_off_c, 0, 75, 100
2, 179232, Note_on_c, 0, 76, 80
2, 179324, Note_off_c, 0, 76, 100
2, 179328, Note_on_c, 0, 78, 80
2, 179420, Note_off_c, 0, 78, 100
2, 179424, Note_on_c, 0, 76, 80
2, 179516, Note_off_c, 0, 76, 100
2, 179520, Note_on_c, 0, 71, 80
2, 179612, Note_off_c, 0, 71, 100
2, 179616, Note_on_c, 0, 73, 80
2, 179708, Note_off_c, 0, 73, 100
2, 179712, Note_on_c, 0, 74, 100
2, 179808, Note_on_c, 0, 71, 80
2, 179900, Note_off_c, 0, 71, 100
2, 179904, Note_on_c, 0, 70, 80
2, 179996, Note_off_c, 0, 70, 100
2, 180000, Note_on_c, 0, 71, 80
2, 180092, Note_off_c, 0, 71, 100
2, 180096, Note_on_c, 0, 73, 80
2, 180188, Note_off_c, 0, 73, 100
2, 180192, Note_on_c, 0, 71, 80
2, 180284, Note_off_c, 0, 71, 100
2, 180288, Note_on_c, 0, 66, 80
2, 180380, Note_off_c, 0, 66, 100
2, 180384, Note_on_c, 0, 68, 80
2, 180476, Note_off_c, 0, 74, 100
2, 180476, Note_off_c, 0, 68, 100
2, 180480, Note_on_c, 0, 73, 80
2, 180480, Note_on_c, 0, 69, 80
2, 181244, Note_off_c, 0, 73, 100
2, 181244, Note_off_c, 0, 69, 100
2, 181248, Note_on_c, 0, 71, 80
2, 181248, Note_on_c, 0, 68, 80
2, 181248, Note_on_c, 0, 64, 80
2, 181628, Note_off_c, 0, 71, 100
2, 181628, Note_off_c, 0, 68, 100
2, 181628, Note_off_c, 0, 64, 100
2, 182112, Note_on_c, 0, 64, 80
2, 182204, Note_off_c, 0, 64, 100
2, 182208, Note_on_c, 0, 63, 80
2, 182300, Note_off_c, 0, 63, 100
2, 182304, Note_on_c, 0, 64, 80
2, 182396, Note_off_c, 0, 64, 100
2, 182400, Note_on_c, 0, 66, 80
2, 182492, Note_off_c, 0, 66, 100
2, 182496, Note_on_c, 0, 64, 80
2, 182588, Note_off_c, 0, 64, 100
2, 182592, Note_on_c, 0, 59, 80
2, 182684, Note_off_c, 0, 59, 100
2, 182688, Note_on_c, 0, 61, 80
2, 182780, Note_off_c, 0, 61, 100
2, 182784, Note_on_c, 0, 62, 100
2, 182880, Note_on_c, 0, 71, 80
2, 182972, Note_off_c, 0, 71, 100
2, 182976, Note_on_c, 0, 70, 80
2, 183068, Note_off_c, 0, 70, 100
2, 183072, Note_on_c, 0, 71, 80
2, 183164, Note_off_c, 0, 71, 100
2, 183168, Note_on_c, 0, 73, 80
2, 183260, Note_off_c, 0, 73, 100
2, 183264, Note_on_c, 0, 71, 80
2, 183356, Note_off_c, 0, 71, 100
2, 183360, Note_on_c, 0, 66, 80
2, 183452, Note_off_c, 0, 66, 100
2, 183456, Note_on_c, 0, 68, 80
2, 183548, Note_off_c, 0, 62, 100
2, 183548, Note_off_c, 0, 68, 100
2, 183552, Note_on_c, 0, 69, 80
2, 183552, Note_on_c, 0, 61, 80
2, 184316, Note_off_c, 0, 69, 100
2, 184316, Note_off_c, 0, 61, 100
2, 184320, Note_on_c, 0, 68, 80
2, 184320, Note_on_c, 0, 59, 80
2, 184700, Note_off_c, 0, 68, 100
2, 184700, Note_off_c, 0, 59, 100
2, 185856, Note_on_c, 0, 57, 80
2, 185904, Note_on_c, 0, 59, 80
2, 185948, Note_off_c, 0, 57, 100
2, 185952, Note_on_c, 0, 57, 80
2, 185996, Note_off_c, 0, 59, 100
2, 186000, Note_on_c, 0, 56, 80
2, 186044, Note_off_c, 0, 57, 100
2, 186092, Note_off_c, 0, 56, 100
2, 186096, Note_on_c, 0, 59, 80
2, 186144, Note_on_c, 0, 61, 80
2, 186188, Note_off_c, 0, 59, 100
2, 186192, Note_on_c, 0, 62, 80
2, 186236, Note_off_c, 0, 61, 100
2, 186240, Note_on_c, 0, 64, 80
2, 186284, Note_off_c, 0, 62, 100
2, 186288, Note_on_c, 0, 66, 80
2, 186332, Note_off_c, 0, 64, 100
2, 186336, Note_on_c, 0, 68, 80
2, 186380, Note_off_c, 0, 66, 100
2, 186384, Note_on_c, 0, 69, 80
2, 186428, Note_off_c, 0, 68, 100
2, 186432, Note_on_c, 0, 71, 80
2, 186476, Note_off_c, 0, 69, 100
2, 186480, Note_on_c, 0, 73, 80
2, 186524, Note_off_c, 0, 71, 100
2, 186528, Note_on_c, 0, 74, 80
2, 186572, Note_off_c, 0, 73, 100
2, 186576, Note_on_c, 0, 76, 80
2, 186620, Note_off_c, 0, 74, 100
2, 186624, Note_on_c, 0, 78, 80
2, 186668, Note_off_c, 0, 76, 100
2, 186688, Note_on_c, 0, 80, 80
2, 186748, Note_off_c, 0, 78, 100
2, 186752, Note_on_c, 0, 81, 80
2, 186812, Note_off_c, 0, 80, 100
2, 186816, Note_on_c, 0, 83, 80
2, 186876, Note_off_c, 0, 81, 100
2, 186880, Note_on_c, 0, 85, 80
2, 186940, Note_off_c, 0, 83, 100
2, 186944, Note_on_c, 0, 86, 80
2, 187004, Note_off_c, 0, 85, 100
2, 187004, Note_off_c, 0, 86, 100
2, 187008, Note_on_c, 0, 88, 80
2, 187196, Note_off_c, 0, 88, 100
2, 187200, Note_on_c, 0, 88, 80
2, 187388, Note_off_c, 0, 88, 100
2, 187392, Note_on_c, 0, 88, 80
2, 187580, Note_off_c, 0, 88, 100
2, 187584, Note_on_c, 0, 68, 80
2, 187676, Note_off_c, 0, 68, 100
2, 187776, Note_on_c, 0, 68, 80
2, 188540, Note_off_c, 0, 68, 100
2, 188544, Note_on_c, 0, 69, 80
2, 188924, Note_off_c, 0, 69, 100
2, 188928, Note_on_c, 0, 71, 80
2, 189020, Note_off_c, 0, 71, 100
2, 189024, Note_on_c, 0, 73, 80
2, 189056, Note_on_c, 0, 71, 80
2, 189084, Note_off_c, 0, 73, 100
2, 189088, Note_on_c, 0, 70, 80
2, 189116, Note_off_c, 0, 71, 100
2, 189120, Note_on_c, 0, 71, 80
2, 189148, Note_off_c, 0, 70, 100
2, 189212, Note_off_c, 0, 71, 100
2, 189216, Note_on_c, 0, 73, 80
2, 189308, Note_off_c, 0, 73, 100
2, 189312, Note_on_c, 0, 74, 80
2, 189436, Note_off_c, 0, 74, 100
2, 189440, Note_on_c, 0, 76, 80
2, 189564, Note_off_c, 0, 76, 100
2, 189568, Note_on_c, 0, 78, 80
2, 189692, Note_off_c, 0, 78, 100
2, 189696, Note_on_c, 0, 69, 80
2, 190076, Note_off_c, 0, 69, 100
2, 190080, Note_on_c, 0, 68, 80
2, 190080, Note_on_c, 0, 73, 80
2, 190268, Note_off_c, 0, 73, 100
2, 190272, Note_on_c, 0, 71, 80
2, 190460, Note_off_c, 0, 68, 100
2, 190460, Note_off_c, 0, 71, 100
2, 190464, Note_on_c, 0, 71, 80
2, 190464, Note_on_c, 0, 68, 80
2, 191228, Note_off_c, 0, 71, 100
2, 191228, Note_off_c, 0, 68, 100
2, 191232, Note_on_c, 0, 69, 80
2, 191420, Note_off_c, 0, 69, 100
2, 191424, Note_on_c, 0, 78, 80
2, 191516, Note_off_c, 0, 78, 100
2, 191520, Note_on_c, 0, 76, 80
2, 191612, Note_off_c, 0, 76, 100
2, 191616, Note_on_c, 0, 74, 80
2, 191708, Note_off_c, 0, 74, 100
2, 191712, Note_on_c, 0, 73, 80
2, 191804, Note_off_c, 0, 73, 100
2, 191808, Note_on_c, 0, 71, 80
2, 191900, Note_off_c, 0, 71, 100
2, 191904, Note_on_c, 0, 69, 80
2, 191996, Note_off_c, 0, 69, 100
2, 192000, Note_on_c, 0, 68, 80
2, 192092, Note_off_c, 0, 68, 100
2, 192096, Note_on_c, 0, 69, 80
2, 192188, Note_off_c, 0, 69, 100
2, 192192, Note_on_c, 0, 71, 80
2, 192284, Note_off_c, 0, 71, 100
2, 192288, Note_on_c, 0, 69, 80
2, 192380, Note_off_c, 0, 69, 100
2, 192384, Note_on_c, 0, 68, 80
2, 192764, Note_off_c, 0, 68, 100
2, 192960, Note_on_c, 0, 76, 80
2, 193052, Note_off_c, 0, 76, 100
2, 193056, Note_on_c, 0, 74, 80
2, 193148, Note_off_c, 0, 74, 100
2, 193152, Note_on_c, 0, 73, 80
2, 193244, Note_off_c, 0, 73, 100
2, 193248, Note_on_c, 0, 71, 80
2, 193340, Note_off_c, 0, 71, 100
2, 193344, Note_on_c, 0, 69, 80
2, 193436, Note_off_c, 0, 69, 100
2, 193440, Note_on_c, 0, 68, 80
2, 193532, Note_off_c, 0, 68, 100
2, 193536, Note_on_c, 0, 69, 80
2, 193628, Note_off_c, 0, 69, 100
2, 193632, Note_on_c, 0, 71, 80
2, 193724, Note_off_c, 0, 71, 100
2, 193728, Note_on_c, 0, 73, 80
2, 193820, Note_off_c, 0, 73, 100
2, 193824, Note_on_c, 0, 71, 80
2, 193916, Note_off_c, 0, 71, 100
2, 193920, Note_on_c, 0, 69, 80
2, 194300, Note_off_c, 0, 69, 100
2, 194496, Note_on_c, 0, 81, 100
2, 194588, Note_off_c, 0, 81, 100
2, 194592, Note_on_c, 0, 80, 100
2, 194684, Note_off_c, 0, 80, 100
2, 194688, Note_on_c, 0, 78, 100
2, 194780, Note_off_c, 0, 78, 100
2, 194784, Note_on_c, 0, 76, 100
2, 194876, Note_off_c, 0, 76, 100
2, 194880, Note_on_c, 0, 74, 100
2, 194972, Note_off_c, 0, 74, 100
2, 194976, Note_on_c, 0, 73, 100
2, 195068, Note_off_c, 0, 73, 100
2, 195072, Note_on_c, 0, 71, 100
2, 195164, Note_off_c, 0, 71, 100
2, 195168, Note_on_c, 0, 74, 100
2, 195260, Note_off_c, 0, 74, 100
2, 195264, Note_on_c, 0, 78, 100
2, 195356, Note_off_c, 0, 78, 100
2, 195360, Note_on_c, 0, 76, 100
2, 195452, Note_off_c, 0, 76, 100
2, 195456, Note_on_c, 0, 74, 100
2, 195548, Note_off_c, 0, 74, 100
2, 195552, Note_on_c, 0, 73, 100
2, 195644, Note_off_c, 0, 73, 100
2, 195648, Note_on_c, 0, 71, 100
2, 195740, Note_off_c, 0, 71, 100
2, 195744, Note_on_c, 0, 69, 100
2, 195836, Note_off_c, 0, 69, 100
2, 195840, Note_on_c, 0, 68, 100
2, 195932, Note_off_c, 0, 68, 100
2, 195936, Note_on_c, 0, 69, 100
2, 196028, Note_off_c, 0, 69, 100
2, 196032, Note_on_c, 0, 71, 100
2, 196124, Note_off_c, 0, 71, 100
2, 196128, Note_on_c, 0, 69, 100
2, 196220, Note_off_c, 0, 69, 100
2, 196224, Note_on_c, 0, 68, 100
2, 196316, Note_off_c, 0, 68, 100
2, 196320, Note_on_c, 0, 66, 100
2, 196412, Note_off_c, 0, 66, 100
2, 196416, Note_on_c, 0, 64, 100
2, 196508, Note_off_c, 0, 64, 100
2, 196512, Note_on_c, 0, 62, 100
2, 196604, Note_off_c, 0, 62, 100
2, 196608, Note_on_c, 0, 61, 100
2, 196700, Note_off_c, 0, 61, 100
2, 196704, Note_on_c, 0, 69, 100
2, 196796, Note_off_c, 0, 69, 100
2, 196800, Note_on_c, 0, 64, 100
2, 196892, Note_off_c, 0, 64, 100
2, 196896, Note_on_c, 0, 73, 100
2, 196988, Note_off_c, 0, 73, 100
2, 196992, Note_on_c, 0, 69, 100
2, 197084, Note_off_c, 0, 69, 100
2, 197088, Note_on_c, 0, 76, 100
2, 197180, Note_off_c, 0, 76, 100
2, 197184, Note_on_c, 0, 73, 100
2, 197276, Note_off_c, 0, 73, 100
2, 197280, Note_on_c, 0, 81, 100
2, 197372, Note_off_c, 0, 81, 100
2, 197376, Note_on_c, 0, 76, 100
2, 197468, Note_off_c, 0, 76, 100
2, 197472, Note_on_c, 0, 85, 100
2, 197564, Note_off_c, 0, 85, 100
2, 197568, Note_on_c, 0, 81, 100
2, 197660, Note_off_c, 0, 81, 100
2, 197664, Note_on_c, 0, 88, 100
2, 197756, Note_off_c, 0, 88, 100
2, 197760, Note_on_c, 0, 86, 100
2, 197852, Note_off_c, 0, 86, 100
2, 197856, Note_on_c, 0, 85, 97
2, 197948, Note_off_c, 0, 85, 100
2, 197952, Note_on_c, 0, 83, 93
2, 198044, Note_off_c, 0, 83, 100
2, 198048, Note_on_c, 0, 81, 88
2, 198140, Note_off_c, 0, 81, 100
2, 198144, Note_on_c, 0, 80, 80
2, 198236, Note_off_c, 0, 80, 100
2, 198240, Note_on_c, 0, 81, 80
2, 198332, Note_off_c, 0, 81, 100
2, 198336, Note_on_c, 0, 83, 80
2, 198428, Note_off_c, 0, 83, 100
2, 198432, Note_on_c, 0, 81, 80
2, 198524, Note_off_c, 0, 81, 100
2, 198528, Note_on_c, 0, 80, 80
2, 198908, Note_off_c, 0, 80, 100
2, 199008, Note_on_c, 0, 87, 80
2, 199100, Note_off_c, 0, 87, 100
2, 199104, Note_on_c, 0, 88, 80
2, 199196, Note_off_c, 0, 88, 100
2, 199200, Note_on_c, 0, 86, 80
2, 199292, Note_off_c, 0, 86, 100
2, 199296, Note_on_c, 0, 85, 80
2, 199388, Note_off_c, 0, 85, 100
2, 199392, Note_on_c, 0, 83, 80
2, 199484, Note_off_c, 0, 83, 100
2, 199488, Note_on_c, 0, 81, 80
2, 199580, Note_off_c, 0, 81, 100
2, 199584, Note_on_c, 0, 80, 80
2, 199676, Note_off_c, 0, 80, 100
2, 199680, Note_on_c, 0, 81, 80
2, 199772, Note_off_c, 0, 81, 100
2, 199776, Note_on_c, 0, 83, 80
2, 199868, Note_off_c, 0, 83, 100
2, 199872, Note_on_c, 0, 85, 80
2, 199964, Note_off_c, 0, 85, 100
2, 199968, Note_on_c, 0, 83, 80
2, 200060, Note_off_c, 0, 83, 100
2, 200064, Note_on_c, 0, 81, 80
2, 200444, Note_off_c, 0, 81, 100
2, 200640, Note_on_c, 0, 85, 100
2, 200732, Note_off_c, 0, 85, 100
2, 200736, Note_on_c, 0, 83, 100
2, 200828, Note_off_c, 0, 83, 100
2, 200832, Note_on_c, 0, 81, 100
2, 200924, Note_off_c, 0, 81, 100
2, 200928, Note_on_c, 0, 80, 100
2, 201020, Note_off_c, 0, 80, 100
2, 201024, Note_on_c, 0, 78, 100
2, 201116, Note_off_c, 0, 78, 100
2, 201120, Note_on_c, 0, 76, 100
2, 201212, Note_off_c, 0, 76, 100
2, 201216, Note_on_c, 0, 75, 100
2, 201308, Note_off_c, 0, 75, 100
2, 201312, Note_on_c, 0, 76, 100
2, 201404, Note_off_c, 0, 76, 100
2, 201408, Note_on_c, 0, 78, 100
2, 201500, Note_off_c, 0, 78, 100
2, 201504, Note_on_c, 0, 80, 100
2, 201596, Note_off_c, 0, 80, 100
2, 201600, Note_on_c, 0, 81, 100
2, 201692, Note_off_c, 0, 81, 100
2, 201696, Note_on_c, 0, 80, 100
2, 201788, Note_off_c, 0, 80, 100
2, 201792, Note_on_c, 0, 78, 100
2, 201884, Note_off_c, 0, 78, 100
2, 201888, Note_on_c, 0, 76, 100
2, 201980, Note_off_c, 0, 76, 100
2, 201984, Note_on_c, 0, 75, 100
2, 202076, Note_off_c, 0, 75, 100
2, 202080, Note_on_c, 0, 73, 100
2, 202172, Note_off_c, 0, 73, 100
2, 202176, Note_on_c, 0, 71, 100
2, 202268, Note_off_c, 0, 71, 100
2, 202272, Note_on_c, 0, 69, 100
2, 202364, Note_off_c, 0, 69, 100
2, 202368, Note_on_c, 0, 68, 100
2, 202460, Note_off_c, 0, 68, 100
2, 202464, Note_on_c, 0, 66, 100
2, 202556, Note_off_c, 0, 66, 100
2, 202560, Note_on_c, 0, 64, 100
2, 202652, Note_off_c, 0, 64, 100
2, 202656, Note_on_c, 0, 63, 100
2, 202748, Note_off_c, 0, 63, 100
2, 202752, Note_on_c, 0, 64, 100
2, 203132, Note_off_c, 0, 64, 100
2, 204288, Note_on_c, 0, 80, 100
2, 205052, Note_off_c, 0, 80, 100
2, 205056, Note_on_c, 0, 81, 100
2, 205244, Note_off_c, 0, 81, 100
2, 205248, Note_on_c, 0, 80, 100
2, 205436, Note_off_c, 0, 80, 100
2, 205440, Note_on_c, 0, 78, 100
2, 205488, Note_on_c, 0, 80, 100
2, 205532, Note_off_c, 0, 78, 100
2, 205536, Note_on_c, 0, 78, 100
2, 205580, Note_off_c, 0, 80, 100
2, 205628, Note_off_c, 0, 78, 100
2, 205632, Note_on_c, 0, 76, 100
2, 205820, Note_off_c, 0, 76, 100
2, 205824, Note_on_c, 0, 76, 100
2, 206204, Note_off_c, 0, 76, 100
2, 206208, Note_on_c, 0, 76, 100
2, 206256, Note_on_c, 0, 85, 118
2, 206396, Note_off_c, 0, 76, 100
2, 206780, Note_off_c, 0, 85, 100
2, 206784, Note_on_c, 0, 86, 100
2, 206876, Note_off_c, 0, 86, 100
2, 206880, Note_on_c, 0, 85, 100
2, 206972, Note_off_c, 0, 85, 100
2, 206976, Note_on_c, 0, 83, 100
2, 207164, Note_off_c, 0, 83, 100
2, 207168, Note_on_c, 0, 81, 100
2, 207356, Note_off_c, 0, 81, 100
2, 207360, Note_on_c, 0, 80, 100
2, 208124, Note_off_c, 0, 80, 100
2, 208128, Note_on_c, 0, 81, 100
2, 208316, Note_off_c, 0, 81, 100
2, 208320, Note_on_c, 0, 80, 100
2, 208508, Note_off_c, 0, 80, 100
2, 208512, Note_on_c, 0, 78, 100
2, 208560, Note_on_c, 0, 80, 100
2, 208604, Note_off_c, 0, 78, 100
2, 208608, Note_on_c, 0, 78, 100
2, 208652, Note_off_c, 0, 80, 100
2, 208700, Note_off_c, 0, 78, 100
2, 208704, Note_on_c, 0, 76, 100
2, 208892, Note_off_c, 0, 76, 100
2, 208896, Note_on_c, 0, 76, 100
2, 209276, Note_off_c, 0, 76, 100
2, 209280, Note_on_c, 0, 76, 103
2, 209328, Note_on_c, 0, 81, 108
2, 209376, Note_on_c, 0, 85, 113
2, 209424, Note_on_c, 0, 88, 121
2, 209468, Note_off_c, 0, 76, 100
2, 209516, Note_off_c, 0, 81, 100
2, 209564, Note_off_c, 0, 85, 100
2, 209852, Note_off_c, 0, 88, 100
2, 209856, Note_on_c, 0, 87, 100
2, 209948, Note_off_c, 0, 87, 100
2, 209952, Note_on_c, 0, 88, 100
2, 210044, Note_off_c, 0, 88, 100
2, 210048, Note_on_c, 0, 86, 100
2, 210140, Note_off_c, 0, 86, 100
2, 210144, Note_on_c, 0, 85, 100
2, 210236, Note_off_c, 0, 85, 100
2, 210240, Note_on_c, 0, 83, 100
2, 210332, Note_off_c, 0, 83, 100
2, 210336, Note_on_c, 0, 81, 100
2, 210428, Note_off_c, 0, 81, 100
2, 210432, Note_on_c, 0, 80, 100
2, 211008, Note_on_c, 0, 81, 100
2, 211056, Note_on_c, 0, 80, 100
2, 211100, Note_off_c, 0, 81, 100
2, 211104, Note_on_c, 0, 78, 100
2, 211148, Note_off_c, 0, 80, 100
2, 211152, Note_on_c, 0, 80, 100
2, 211196, Note_off_c, 0, 80, 100
2, 211196, Note_off_c, 0, 78, 100
2, 211196, Note_off_c, 0, 80, 100
2, 211200, Note_on_c, 0, 81, 100
2, 211388, Note_off_c, 0, 81, 100
2, 211392, Note_on_c, 0, 80, 100
2, 211580, Note_off_c, 0, 80, 100
2, 211584, Note_on_c, 0, 78, 100
2, 211632, Note_on_c, 0, 80, 100
2, 211676, Note_off_c, 0, 78, 100
2, 211680, Note_on_c, 0, 78, 100
2, 211724, Note_off_c, 0, 80, 100
2, 211772, Note_off_c, 0, 78, 100
2, 211776, Note_on_c, 0, 76, 100
2, 211964, Note_off_c, 0, 76, 100
2, 211968, Note_on_c, 0, 76, 100
2, 212156, Note_off_c, 0, 76, 100
2, 212160, Note_on_c, 0, 81, 100
2, 212160, Note_on_c, 0, 69, 100
2, 212540, Note_off_c, 0, 81, 100
2, 212540, Note_off_c, 0, 69, 100
2, 212544, Note_on_c, 0, 79, 100
2, 212544, Note_on_c, 0, 67, 100
2, 212732, Note_off_c, 0, 79, 100
2, 212732, Note_off_c, 0, 67, 100
2, 212736, Note_on_c, 0, 78, 100
2, 212736, Note_on_c, 0, 66, 100
2, 212924, Note_off_c, 0, 78, 100
2, 212928, Note_on_c, 0, 79, 100
2, 212976, Note_on_c, 0, 78, 100
2, 213020, Note_off_c, 0, 79, 100
2, 213024, Note_on_c, 0, 76, 100
2, 213068, Note_off_c, 0, 78, 100
2, 213072, Note_on_c, 0, 78, 100
2, 213116, Note_off_c, 0, 76, 100
2, 213120, Note_on_c, 0, 78, 100
2, 213164, Note_off_c, 0, 78, 100
2, 213308, Note_off_c, 0, 66, 100
2, 213308, Note_off_c, 0, 78, 100
2, 213312, Note_on_c, 0, 81, 100
2, 213312, Note_on_c, 0, 69, 100
2, 213500, Note_off_c, 0, 81, 100
2, 213500, Note_off_c, 0, 69, 100
2, 213504, Note_on_c, 0, 81, 100
2, 213504, Note_on_c, 0, 69, 100
2, 213884, Note_off_c, 0, 81, 100
2, 213884, Note_off_c, 0, 69, 100
2, 213888, Note_on_c, 0, 79, 100
2, 213888, Note_on_c, 0, 67, 100
2, 214268, Note_off_c, 0, 79, 100
2, 214268, Note_off_c, 0, 67, 100
2, 214656, Note_on_c, 0, 77, 100
2, 214656, Note_on_c, 0, 65, 100
2, 215036, Note_off_c, 0, 77, 100
2, 215036, Note_off_c, 0, 65, 100
2, 215040, Note_on_c, 0, 80, 100
2, 215040, Note_on_c, 0, 68, 100
2, 215228, Note_off_c, 0, 80, 100
2, 215228, Note_off_c, 0, 68, 100
2, 215232, Note_on_c, 0, 78, 100
2, 215232, Note_on_c, 0, 66, 100
2, 215612, Note_off_c, 0, 78, 100
2, 215612, Note_off_c, 0, 66, 100
2, 215616, Note_on_c, 0, 76, 100
2, 215616, Note_on_c, 0, 64, 100
2, 215804, Note_off_c, 0, 76, 100
2, 215804, Note_off_c, 0, 64, 100
2, 215808, Note_on_c, 0, 75, 100
2, 215808, Note_on_c, 0, 63, 100
2, 215996, Note_off_c, 0, 75, 100
2, 216000, Note_on_c, 0, 76, 100
2, 216048, Note_on_c, 0, 75, 100
2, 216092, Note_off_c, 0, 76, 100
2, 216096, Note_on_c, 0, 73, 100
2, 216140, Note_off_c, 0, 75, 100
2, 216144, Note_on_c, 0, 75, 100
2, 216188, Note_off_c, 0, 73, 100
2, 216188, Note_off_c, 0, 75, 100
2, 216192, Note_on_c, 0, 75, 100
2, 216380, Note_off_c, 0, 63, 100
2, 216380, Note_off_c, 0, 75, 100
2, 216384, Note_on_c, 0, 78, 100
2, 216384, Note_on_c, 0, 66, 100
2, 216572, Note_off_c, 0, 78, 100
2, 216572, Note_off_c, 0, 66, 100
2, 216576, Note_on_c, 0, 78, 100
2, 216576, Note_on_c, 0, 66, 100
2, 216956, Note_off_c, 0, 78, 100
2, 216956, Note_off_c, 0, 66, 100
2, 216960, Note_on_c, 0, 64, 100
2, 216960, Note_on_c, 0, 76, 100
2, 217340, Note_off_c, 0, 64, 100
2, 217340, Note_off_c, 0, 76, 100
2, 217728, Note_on_c, 0, 73, 100
2, 217728, Note_on_c, 0, 61, 100
2, 218108, Note_off_c, 0, 73, 100
2, 218108, Note_off_c, 0, 61, 100
2, 218112, Note_on_c, 0, 76, 100
2, 218112, Note_on_c, 0, 64, 100
2, 218300, Note_off_c, 0, 76, 100
2, 218300, Note_off_c, 0, 64, 100
2, 218304, Note_on_c, 0, 74, 100
2, 218304, Note_on_c, 0, 62, 100
2, 218684, Note_off_c, 0, 74, 100
2, 218684, Note_off_c, 0, 62, 100
2, 218688, Note_on_c, 0, 73, 100
2, 218688, Note_on_c, 0, 61, 100
2, 219068, Note_off_c, 0, 73, 100
2, 219068, Note_off_c, 0, 61, 100
2, 219072, Note_on_c, 0, 71, 100
2, 219072, Note_on_c, 0, 59, 100
2, 219452, Note_off_c, 0, 71, 100
2, 219452, Note_off_c, 0, 59, 100
2, 219456, Note_on_c, 0, 78, 100
2, 219456, Note_on_c, 0, 66, 100
2, 219644, Note_off_c, 0, 78, 100
2, 219644, Note_off_c, 0, 66, 100
2, 219648, Note_on_c, 0, 69, 100
2, 220220, Note_off_c, 0, 69, 100
2, 220224, Note_on_c, 0, 71, 100
2, 220272, Note_on_c, 0, 69, 100
2, 220316, Note_off_c, 0, 71, 100
2, 220320, Note_on_c, 0, 68, 100
2, 220364, Note_off_c, 0, 69, 100
2, 220368, Note_on_c, 0, 69, 100
2, 220412, Note_off_c, 0, 68, 100
2, 220412, Note_off_c, 0, 69, 100
2, 220416, Note_on_c, 0, 73, 100
2, 220416, Note_on_c, 0, 68, 100
2, 220416, Note_on_c, 0, 62, 100
2, 220988, Note_off_c, 0, 73, 100
2, 220992, Note_on_c, 0, 71, 100
2, 221180, Note_off_c, 0, 68, 100
2, 221180, Note_off_c, 0, 62, 100
2, 221180, Note_off_c, 0, 71, 100
2, 221184, Note_on_c, 0, 69, 80
2, 221184, Note_on_c, 0, 61, 80
2, 221564, Note_off_c, 0, 69, 100
2, 221564, Note_off_c, 0, 61, 100
2, 221568, Note_on_c, 0, 64, 80
2, 221632, Note_on_c, 0, 69, 80
2, 221692, Note_off_c, 0, 64, 100
2, 221696, Note_on_c, 0, 73, 80
2, 221756, Note_off_c, 0, 69, 100
2, 221760, Note_on_c, 0, 76, 80
2, 221820, Note_off_c, 0, 73, 100
2, 221824, Note_on_c, 0, 81, 80
2, 221884, Note_off_c, 0, 76, 100
2, 221888, Note_on_c, 0, 85, 80
2, 221948, Note_off_c, 0, 81, 100
2, 221948, Note_off_c, 0, 85, 100
2, 221952, Note_on_c, 0, 88, 80
2, 222332, Note_off_c, 0, 88, 100
2, 222336, Note_on_c, 0, 88, 80
2, 222716, Note_off_c, 0, 88, 100
2, 222720, Note_on_c, 0, 88, 80
2, 222908, Note_off_c, 0, 88, 100
2, 222912, Note_on_c, 0, 68, 80
2, 223004, Note_off_c, 0, 68, 100
2, 223104, Note_on_c, 0, 68, 80
2, 223868, Note_off_c, 0, 68, 100
2, 223872, Note_on_c, 0, 68, 80
2, 224252, Note_off_c, 0, 68, 100
2, 224448, Note_on_c, 0, 68, 80
2, 224540, Note_off_c, 0, 68, 100
2, 224544, Note_on_c, 0, 69, 80
2, 224636, Note_off_c, 0, 69, 100
2, 224832, Note_on_c, 0, 70, 80
2, 224924, Note_off_c, 0, 70, 100
2, 224928, Note_on_c, 0, 71, 80
2, 225020, Note_off_c, 0, 71, 100
2, 225216, Note_on_c, 0, 72, 80
2, 225308, Note_off_c, 0, 72, 100
2, 225312, Note_on_c, 0, 73, 80
2, 225404, Note_off_c, 0, 73, 100
2, 225600, Note_on_c, 0, 73, 80
2, 225692, Note_off_c, 0, 73, 100
2, 225696, Note_on_c, 0, 74, 80
2, 225788, Note_off_c, 0, 74, 100
2, 225792, Note_on_c, 0, 76, 80
2, 226268, Note_off_c, 0, 76, 100
2, 226272, Note_on_c, 0, 75, 80
2, 226320, Note_on_c, 0, 76, 80
2, 226364, Note_off_c, 0, 75, 100
2, 226368, Note_on_c, 0, 78, 80
2, 226412, Note_off_c, 0, 76, 100
2, 226416, Note_on_c, 0, 76, 80
2, 226460, Note_off_c, 0, 78, 100
2, 226464, Note_on_c, 0, 74, 80
2, 226508, Note_off_c, 0, 76, 100
2, 226512, Note_on_c, 0, 73, 80
2, 226556, Note_off_c, 0, 74, 100
2, 226556, Note_off_c, 0, 73, 100
2, 226560, Note_on_c, 0, 71, 80
2, 226940, Note_off_c, 0, 71, 100
2, 227520, Note_on_c, 0, 57, 80
2, 227612, Note_off_c, 0, 57, 100
2, 227616, Note_on_c, 0, 61, 80
2, 227708, Note_off_c, 0, 61, 100
2, 227712, Note_on_c, 0, 64, 80
2, 227776, Note_on_c, 0, 69, 80
2, 227836, Note_off_c, 0, 64, 100
2, 227840, Note_on_c, 0, 73, 80
2, 227900, Note_off_c, 0, 69, 100
2, 227904, Note_on_c, 0, 76, 80
2, 227964, Note_off_c, 0, 73, 100
2, 227968, Note_on_c, 0, 81, 80
2, 228028, Note_off_c, 0, 76, 100
2, 228032, Note_on_c, 0, 85, 80
2, 228092, Note_off_c, 0, 81, 100
2, 228092, Note_off_c, 0, 85, 100
2, 228096, Note_on_c, 0, 88, 80
2, 228476, Note_off_c, 0, 88, 100
2, 228480, Note_on_c, 0, 88, 80
2, 228860, Note_off_c, 0, 88, 100
2, 228864, Note_on_c, 0, 88, 80
2, 229052, Note_off_c, 0, 88, 100
2, 229056, Note_on_c, 0, 70, 80
2, 229148, Note_off_c, 0, 70, 100
2, 229248, Note_on_c, 0, 70, 80
2, 229820, Note_off_c, 0, 70, 100
2, 229824, Note_on_c, 0, 79, 80
2, 230012, Note_off_c, 0, 79, 100
2, 230016, Note_on_c, 0, 76, 80
2, 230204, Note_off_c, 0, 76, 100
2, 230208, Note_on_c, 0, 70, 80
2, 230396, Note_off_c, 0, 70, 100
2, 230400, Note_on_c, 0, 69, 80
2, 230588, Note_off_c, 0, 69, 100
2, 230592, Note_on_c, 0, 72, 80
2, 230780, Note_off_c, 0, 72, 100
2, 230784, Note_on_c, 0, 77, 80
2, 230972, Note_off_c, 0, 77, 100
2, 230976, Note_on_c, 0, 72, 80
2, 231164, Note_off_c, 0, 72, 100
2, 231168, Note_on_c, 0, 81, 80
2, 231356, Note_off_c, 0, 81, 100
2, 231360, Note_on_c, 0, 77, 80
2, 231548, Note_off_c, 0, 77, 100
2, 231552, Note_on_c, 0, 72, 80
2, 231740, Note_off_c, 0, 72, 100
2, 231744, Note_on_c, 0, 69, 80
2, 231932, Note_off_c, 0, 69, 100
2, 231936, Note_on_c, 0, 70, 80
2, 231984, Note_on_c, 0, 72, 80
2, 232028, Note_off_c, 0, 70, 100
2, 232032, Note_on_c, 0, 70, 80
2, 232076, Note_off_c, 0, 72, 100
2, 232080, Note_on_c, 0, 72, 80
2, 232124, Note_off_c, 0, 70, 100
2, 232128, Note_on_c, 0, 70, 80
2, 232172, Note_off_c, 0, 72, 100
2, 232176, Note_on_c, 0, 72, 80
2, 232220, Note_off_c, 0, 70, 100
2, 232224, Note_on_c, 0, 69, 80
2, 232268, Note_off_c, 0, 72, 100
2, 232272, Note_on_c, 0, 70, 80
2, 232316, Note_off_c, 0, 69, 100
2, 232316, Note_off_c, 0, 70, 100
2, 232320, Note_on_c, 0, 79, 80
2, 232892, Note_off_c, 0, 79, 100
2, 232896, Note_on_c, 0, 76, 80
2, 233084, Note_off_c, 0, 76, 100
2, 233088, Note_on_c, 0, 72, 80
2, 233276, Note_off_c, 0, 72, 100
2, 233280, Note_on_c, 0, 70, 80
2, 233468, Note_off_c, 0, 70, 100
2, 233472, Note_on_c, 0, 69, 80
2, 233564, Note_off_c, 0, 69, 100
2, 233568, Note_on_c, 0, 72, 80
2, 233660, Note_off_c, 0, 72, 100
2, 233664, Note_on_c, 0, 77, 80
2, 233756, Note_off_c, 0, 77, 100
2, 233760, Note_on_c, 0, 76, 80
2, 233852, Note_off_c, 0, 76, 100
2, 233856, Note_on_c, 0, 77, 80
2, 233948, Note_off_c, 0, 77, 100
2, 233952, Note_on_c, 0, 72, 80
2, 234044, Note_off_c, 0, 72, 100
2, 234048, Note_on_c, 0, 81, 80
2, 234140, Note_off_c, 0, 81, 100
2, 234144, Note_on_c, 0, 80, 80
2, 234236, Note_off_c, 0, 80, 100
2, 234240, Note_on_c, 0, 81, 80
2, 234332, Note_off_c, 0, 81, 100
2, 234336, Note_on_c, 0, 77, 80
2, 234428, Note_off_c, 0, 77, 100
2, 234432, Note_on_c, 0, 84, 80
2, 234524, Note_off_c, 0, 84, 100
2, 234528, Note_on_c, 0, 83, 80
2, 234620, Note_off_c, 0, 83, 100
2, 234624, Note_on_c, 0, 84, 80
2, 234716, Note_off_c, 0, 84, 100
2, 234720, Note_on_c, 0, 81, 80
2, 234812, Note_off_c, 0, 81, 100
2, 234816, Note_on_c, 0, 77, 80
2, 234908, Note_off_c, 0, 77, 100
2, 234912, Note_on_c, 0, 72, 80
2, 235004, Note_off_c, 0, 72, 100
2, 235008, Note_on_c, 0, 70, 80
2, 235056, Note_on_c, 0, 72, 80
2, 235100, Note_off_c, 0, 70, 100
2, 235104, Note_on_c, 0, 70, 80
2, 235148, Note_off_c, 0, 72, 100
2, 235152, Note_on_c, 0, 72, 80
2, 235196, Note_off_c, 0, 70, 100
2, 235200, Note_on_c, 0, 70, 80
2, 235244, Note_off_c, 0, 72, 100
2, 235248, Note_on_c, 0, 72, 80
2, 235292, Note_off_c, 0, 70, 100
2, 235296, Note_on_c, 0, 69, 80
2, 235340, Note_off_c, 0, 72, 100
2, 235344, Note_on_c, 0, 70, 80
2, 235388, Note_off_c, 0, 69, 100
2, 235388, Note_off_c, 0, 70, 100
2, 235392, Note_on_c, 0, 79, 101
2, 236156, Note_off_c, 0, 79, 100
2, 236160, Note_on_c, 0, 70, 80
2, 236540, Note_off_c, 0, 70, 100
2, 236544, Note_on_c, 0, 70, 80
2, 236924, Note_off_c, 0, 70, 100
2, 236928, Note_on_c, 0, 79, 85
2, 237692, Note_off_c, 0, 79, 100
2, 237696, Note_on_c, 0, 70, 97
2, 238076, Note_off_c, 0, 70, 100
2, 238080, Note_on_c, 0, 71, 90
2, 238268, Note_off_c, 0, 71, 100
2, 238272, Note_on_c, 0, 78, 88
2, 238460, Note_off_c, 0, 78, 100
2, 238464, Note_on_c, 0, 77, 85
2, 238652, Note_off_c, 0, 77, 100
2, 238656, Note_on_c, 0, 78, 82
2, 238844, Note_off_c, 0, 78, 100
2, 238848, Note_on_c, 0, 76, 79
2, 239036, Note_off_c, 0, 76, 100
2, 239040, Note_on_c, 0, 74, 76
2, 239228, Note_off_c, 0, 74, 100
2, 239232, Note_on_c, 0, 73, 73
2, 239420, Note_off_c, 0, 73, 100
2, 239424, Note_on_c, 0, 71, 71
2, 239612, Note_off_c, 0, 71, 100
2, 239616, Note_on_c, 0, 69, 70
2, 240188, Note_off_c, 0, 69, 100
2, 240192, Note_on_c, 0, 71, 70
2, 240240, Note_on_c, 0, 69, 70
2, 240284, Note_off_c, 0, 71, 100
2, 240288, Note_on_c, 0, 68, 70
2, 240332, Note_off_c, 0, 69, 100
2, 240336, Note_on_c, 0, 69, 70
2, 240380, Note_off_c, 0, 68, 100
2, 240380, Note_off_c, 0, 69, 100
2, 240384, Note_on_c, 0, 73, 70
2, 240956, Note_off_c, 0, 73, 100
2, 240960, Note_on_c, 0, 71, 70
2, 241148, Note_off_c, 0, 71, 100
2, 241152, Note_on_c, 0, 69, 70
2, 241340, Note_off_c, 0, 69, 100
2, 241344, Note_on_c, 0, 64, 89
2, 241344, Note_on_c, 0, 61, 82
2, 241532, Note_off_c, 0, 64, 100
2, 241532, Note_off_c, 0, 61, 100
2, 241536, Note_on_c, 0, 64, 100
2, 241536, Note_on_c, 0, 61, 100
2, 241724, Note_off_c, 0, 64, 100
2, 241724, Note_off_c, 0, 61, 100
2, 241728, Note_on_c, 0, 64, 100
2, 241728, Note_on_c, 0, 61, 100
2, 241916, Note_off_c, 0, 64, 100
2, 241916, Note_off_c, 0, 61, 100
2, 241920, Note_on_c, 0, 64, 100
2, 241920, Note_on_c, 0, 61, 100
2, 242108, Note_off_c, 0, 64, 100
2, 242108, Note_off_c, 0, 61, 100
2, 242112, Note_on_c, 0, 64, 100
2, 242112, Note_on_c, 0, 61, 100
2, 242300, Note_off_c, 0, 64, 100
2, 242300, Note_off_c, 0, 61, 100
2, 242304, Note_on_c, 0, 64, 100
2, 242304, Note_on_c, 0, 61, 100
2, 242492, Note_off_c, 0, 64, 100
2, 242492, Note_off_c, 0, 61, 100
2, 242496, Note_on_c, 0, 64, 100
2, 242496, Note_on_c, 0, 61, 100
2, 242684, Note_off_c, 0, 64, 100
2, 242684, Note_off_c, 0, 61, 100
2, 243136, Note_on_c, 0, 68, 100
2, 243200, Note_on_c, 0, 71, 100
2, 243260, Note_off_c, 0, 68, 100
2, 243264, Note_on_c, 0, 76, 100
2, 243324, Note_off_c, 0, 71, 100
2, 243328, Note_on_c, 0, 80, 100
2, 243388, Note_off_c, 0, 76, 100
2, 243392, Note_on_c, 0, 83, 100
2, 243452, Note_off_c, 0, 80, 100
2, 243452, Note_off_c, 0, 83, 100
2, 243456, Note_on_c, 0, 86, 100
2, 243836, Note_off_c, 0, 86, 100
2, 243840, Note_on_c, 0, 86, 100
2, 244220, Note_off_c, 0, 86, 100
2, 244224, Note_on_c, 0, 85, 100
2, 244604, Note_off_c, 0, 85, 100
2, 244608, Note_on_c, 0, 64, 100
2, 244608, Note_on_c, 0, 61, 100
2, 244608, Note_on_c, 0, 57, 100
2, 244796, Note_off_c, 0, 64, 100
2, 244796, Note_off_c, 0, 61, 100
2, 244796, Note_off_c, 0, 57, 100
2, 244800, Note_on_c, 0, 64, 100
2, 244800, Note_on_c, 0, 61, 100
2, 244800, Note_on_c, 0, 57, 100
2, 244988, Note_off_c, 0, 64, 100
2, 244988, Note_off_c, 0, 61, 100
2, 244988, Note_off_c, 0, 57, 100
2, 244992, Note_on_c, 0, 64, 100
2, 244992, Note_on_c, 0, 61, 100
2, 245180, Note_off_c, 0, 64, 100
2, 245180, Note_off_c, 0, 61, 100
2, 245184, Note_on_c, 0, 64, 100
2, 245184, Note_on_c, 0, 61, 100
2, 245372, Note_off_c, 0, 64, 100
2, 245372, Note_off_c, 0, 61, 100
2, 245376, Note_on_c, 0, 64, 100
2, 245376, Note_on_c, 0, 61, 100
2, 245564, Note_off_c, 0, 64, 100
2, 245564, Note_off_c, 0, 61, 100
2, 245568, Note_on_c, 0, 64, 100
2, 245568, Note_on_c, 0, 61, 100
2, 245756, Note_off_c, 0, 64, 100
2, 245756, Note_off_c, 0, 61, 100
2, 246208, Note_on_c, 0, 68, 100
2, 246272, Note_on_c, 0, 71, 100
2, 246332, Note_off_c, 0, 68, 100
2, 246336, Note_on_c, 0, 76, 100
2, 246396, Note_off_c, 0, 71, 100
2, 246400, Note_on_c, 0, 80, 100
2, 246460, Note_off_c, 0, 76, 100
2, 246464, Note_on_c, 0, 83, 100
2, 246524, Note_off_c, 0, 80, 100
2, 246524, Note_off_c, 0, 83, 100
2, 246528, Note_on_c, 0, 86, 100
2, 246908, Note_off_c, 0, 86, 100
2, 246912, Note_on_c, 0, 86, 100
2, 247292, Note_off_c, 0, 86, 100
2, 247296, Note_on_c, 0, 85, 100
2, 247676, Note_off_c, 0, 85, 100
2, 247680, Note_on_c, 0, 64, 100
2, 247680, Note_on_c, 0, 61, 100
2, 247680, Note_on_c, 0, 57, 100
2, 247868, Note_off_c, 0, 64, 100
2, 247868, Note_off_c, 0, 61, 100
2, 247868, Note_off_c, 0, 57, 100
2, 247872, Note_on_c, 0, 64, 100
2, 247872, Note_on_c, 0, 61, 100
2, 247872, Note_on_c, 0, 57, 100
2, 248060, Note_off_c, 0, 64, 100
2, 248060, Note_off_c, 0, 61, 100
2, 248060, Note_off_c, 0, 57, 100
2, 248064, Note_on_c, 0, 64, 100
2, 248064, Note_on_c, 0, 61, 100
2, 248252, Note_off_c, 0, 64, 100
2, 248252, Note_off_c, 0, 61, 100
2, 248256, Note_on_c, 0, 64, 100
2, 248256, Note_on_c, 0, 61, 100
2, 248444, Note_off_c, 0, 64, 100
2, 248444, Note_off_c, 0, 61, 100
2, 248448, Note_on_c, 0, 64, 100
2, 248448, Note_on_c, 0, 61, 100
2, 248636, Note_off_c, 0, 64, 100
2, 248636, Note_off_c, 0, 61, 100
2, 248640, Note_on_c, 0, 64, 100
2, 248640, Note_on_c, 0, 61, 100
2, 248828, Note_off_c, 0, 64, 100
2, 248828, Note_off_c, 0, 61, 100
2, 248832, Note_on_c, 0, 64, 100
2, 248832, Note_on_c, 0, 61, 100
2, 249212, Note_off_c, 0, 64, 100
2, 249212, Note_off_c, 0, 61, 100
2, 249216, Note_on_c, 0, 57, 100
2, 249280, Note_on_c, 0, 61, 100
2, 249340, Note_off_c, 0, 57, 100
2, 249344, Note_on_c, 0, 64, 100
2, 249404, Note_off_c, 0, 61, 100
2, 249408, Note_on_c, 0, 69, 100
2, 249468, Note_off_c, 0, 64, 100
2, 249472, Note_on_c, 0, 73, 100
2, 249532, Note_off_c, 0, 69, 100
2, 249536, Note_on_c, 0, 76, 100
2, 249596, Note_off_c, 0, 73, 100
2, 249596, Note_off_c, 0, 76, 100
2, 249600, Note_on_c, 0, 81, 100
2, 249980, Note_off_c, 0, 81, 100
2, 249984, Note_on_c, 0, 81, 100
2, 250364, Note_off_c, 0, 81, 100
2, 250368, Note_on_c, 0, 81, 100
2, 250556, Note_off_c, 0, 81, 100
2, 250560, Note_on_c, 0, 62, 100
2, 250652, Note_off_c, 0, 62, 100
2, 250752, Note_on_c, 0, 62, 100
2, 251516, Note_off_c, 0, 62, 100
2, 251520, Note_on_c, 0, 63, 100
2, 251900, Note_off_c, 0, 63, 100
2, 251904, Note_on_c, 0, 64, 100
2, 251904, Note_on_c, 0, 61, 100
2, 252476, Note_off_c, 0, 64, 100
2, 252476, Note_off_c, 0, 61, 100
2, 252480, Note_on_c, 0, 61, 100
2, 252480, Note_on_c, 0, 57, 100
2, 252668, Note_off_c, 0, 61, 100
2, 252668, Note_off_c, 0, 57, 100
2, 252672, Note_on_c, 0, 62, 100
2, 252672, Note_on_c, 0, 59, 100
2, 253244, Note_off_c, 0, 62, 100
2, 253244, Note_off_c, 0, 59, 100
2, 253248, Note_on_c, 0, 59, 100
2, 253248, Note_on_c, 0, 56, 100
2, 253436, Note_off_c, 0, 59, 100
2, 253436, Note_off_c, 0, 56, 100
2, 253440, Note_on_c, 0, 61, 100
2, 253820, Note_off_c, 0, 61, 100
2, 253824, Note_on_c, 0, 57, 100
2, 253888, Note_on_c, 0, 61, 100
2, 253948, Note_off_c, 0, 57, 100
2, 253952, Note_on_c, 0, 64, 100
2, 254012, Note_off_c, 0, 61, 100
2, 254016, Note_on_c, 0, 69, 100
2, 254076, Note_off_c, 0, 64, 100
2, 254080, Note_on_c, 0, 73, 100
2, 254140, Note_off_c, 0, 69, 100
2, 254144, Note_on_c, 0, 76, 100
2, 254204, Note_off_c, 0, 73, 100
2, 254204, Note_off_c, 0, 76, 100
2, 254208, Note_on_c, 0, 81, 100
2, 254588, Note_off_c, 0, 81, 100
2, 254592, Note_on_c, 0, 81, 100
2, 254972, Note_off_c, 0, 81, 100
2, 254976, Note_on_c, 0, 81, 110
2, 255164, Note_off_c, 0, 81, 100
2, 255168, Note_on_c, 0, 62, 110
2, 255260, Note_off_c, 0, 62, 100
2, 255360, Note_on_c, 0, 62, 110
2, 256124, Note_off_c, 0, 62, 100
2, 256128, Note_on_c, 0, 81, 110
2, 256508, Note_off_c, 0, 81, 100
2, 256512, Note_on_c, 0, 81, 110
2, 256700, Note_off_c, 0, 81, 100
2, 256704, Note_on_c, 0, 63, 110
2, 256796, Note_off_c, 0, 63, 100
2, 256896, Note_on_c, 0, 63, 110
2, 257660, Note_off_c, 0, 63, 100
2, 257664, Note_on_c, 0, 81, 110
2, 258044, Note_off_c, 0, 81, 100
2, 258048, Note_on_c, 0, 82, 110
2, 258236, Note_off_c, 0, 82, 100
2, 258240, Note_on_c, 0, 81, 110
2, 258428, Note_off_c, 0, 81, 100
2, 258432, Note_on_c, 0, 79, 111
2, 258620, Note_off_c, 0, 79, 100
2, 258624, Note_on_c, 0, 77, 111
2, 258812, Note_off_c, 0, 77, 100
2, 258816, Note_on_c, 0, 75, 112
2, 259008, Note_on_c, 0, 69, 113
2, 259196, Note_off_c, 0, 69, 100
2, 259200, Note_on_c, 0, 67, 113
2, 259388, Note_off_c, 0, 67, 100
2, 259392, Note_on_c, 0, 65, 114
2, 259580, Note_off_c, 0, 75, 100
2, 259580, Note_off_c, 0, 65, 100
2, 259584, Note_on_c, 0, 70, 115
2, 259584, Note_on_c, 0, 74, 115
2, 259772, Note_off_c, 0, 70, 100
2, 259776, Note_on_c, 0, 69, 115
2, 259964, Note_off_c, 0, 69, 100
2, 259968, Note_on_c, 0, 67, 116
2, 260156, Note_off_c, 0, 67, 100
2, 260160, Note_on_c, 0, 65, 116
2, 260348, Note_off_c, 0, 74, 100
2, 260348, Note_off_c, 0, 65, 100
2, 260352, Note_on_c, 0, 63, 117
2, 260544, Note_on_c, 0, 69, 118
2, 260732, Note_off_c, 0, 69, 100
2, 260736, Note_on_c, 0, 67, 118
2, 260924, Note_off_c, 0, 67, 100
2, 260928, Note_on_c, 0, 65, 119
2, 261116, Note_off_c, 0, 63, 100
2, 261116, Note_off_c, 0, 65, 100
2, 261120, Note_on_c, 0, 70, 120
2, 261120, Note_on_c, 0, 62, 120
2, 261244, Note_off_c, 0, 70, 100
2, 261244, Note_off_c, 0, 62, 100
2, 261248, Note_on_c, 0, 58, 120
2, 261372, Note_off_c, 0, 58, 100
2, 261376, Note_on_c, 0, 59, 120
2, 261500, Note_off_c, 0, 59, 100
2, 261504, Note_on_c, 0, 60, 120
2, 261628, Note_off_c, 0, 60, 100
2, 261632, Note_on_c, 0, 61, 120
2, 261756, Note_off_c, 0, 61, 100
2, 261760, Note_on_c, 0, 62, 120
2, 261884, Note_off_c, 0, 62, 100
2, 261888, Note_on_c, 0, 63, 120
2, 262012, Note_off_c, 0, 63, 100
2, 262016, Note_on_c, 0, 64, 120
2, 262140, Note_off_c, 0, 64, 100
2, 262144, Note_on_c, 0, 65, 120
2, 262268, Note_off_c, 0, 65, 100
2, 262272, Note_on_c, 0, 67, 120
2, 262396, Note_off_c, 0, 67, 100
2, 262400, Note_on_c, 0, 65, 120
2, 262524, Note_off_c, 0, 65, 100
2, 262528, Note_on_c, 0, 58, 120
2, 262652, Note_off_c, 0, 58, 100
2, 262784, Note_on_c, 0, 57, 120
2, 262908, Note_off_c, 0, 57, 100
2, 262912, Note_on_c, 0, 58, 120
2, 263036, Note_off_c, 0, 58, 100
2, 263040, Note_on_c, 0, 59, 120
2, 263164, Note_off_c, 0, 59, 100
2, 263168, Note_on_c, 0, 60, 120
2, 263292, Note_off_c, 0, 60, 100
2, 263296, Note_on_c, 0, 61, 120
2, 263420, Note_off_c, 0, 61, 100
2, 263424, Note_on_c, 0, 62, 120
2, 263548, Note_off_c, 0, 62, 100
2, 263552, Note_on_c, 0, 63, 120
2, 263676, Note_off_c, 0, 63, 100
2, 263680, Note_on_c, 0, 64, 120
2, 263804, Note_off_c, 0, 64, 100
2, 263808, Note_on_c, 0, 65, 120
2, 263932, Note_off_c, 0, 65, 100
2, 263936, Note_on_c, 0, 63, 120
2, 264060, Note_off_c, 0, 63, 100
2, 264064, Note_on_c, 0, 57, 120
2, 264188, Note_off_c, 0, 57, 100
2, 264320, Note_on_c, 0, 58, 120
2, 264444, Note_off_c, 0, 58, 100
2, 264448, Note_on_c, 0, 59, 120
2, 264572, Note_off_c, 0, 59, 100
2, 264576, Note_on_c, 0, 60, 120
2, 264700, Note_off_c, 0, 60, 100
2, 264704, Note_on_c, 0, 61, 120
2, 264828, Note_off_c, 0, 61, 100
2, 264832, Note_on_c, 0, 62, 120
2, 264956, Note_off_c, 0, 62, 100
2, 264960, Note_on_c, 0, 63, 120
2, 265084, Note_off_c, 0, 63, 100
2, 265088, Note_on_c, 0, 64, 120
2, 265212, Note_off_c, 0, 64, 100
2, 265216, Note_on_c, 0, 65, 120
2, 265340, Note_off_c, 0, 65, 100
2, 265344, Note_on_c, 0, 66, 120
2, 265468, Note_off_c, 0, 66, 100
2, 265472, Note_on_c, 0, 67, 120
2, 265596, Note_off_c, 0, 67, 100
2, 265600, Note_on_c, 0, 68, 120
2, 265724, Note_off_c, 0, 68, 100
2, 265856, Note_on_c, 0, 69, 120
2, 265980, Note_off_c, 0, 69, 100
2, 265984, Note_on_c, 0, 71, 120
2, 266108, Note_off_c, 0, 71, 100
2, 266112, Note_on_c, 0, 72, 120
2, 266236, Note_off_c, 0, 72, 100
2, 266240, Note_on_c, 0, 69, 120
2, 266364, Note_off_c, 0, 69, 100
2, 266368, Note_on_c, 0, 71, 120
2, 266492, Note_off_c, 0, 71, 100
2, 266496, Note_on_c, 0, 72, 120
2, 266620, Note_off_c, 0, 72, 100
2, 266624, Note_on_c, 0, 69, 120
2, 266748, Note_off_c, 0, 69, 100
2, 266752, Note_on_c, 0, 71, 120
2, 266876, Note_off_c, 0, 71, 100
2, 266880, Note_on_c, 0, 72, 120
2, 267004, Note_off_c, 0, 72, 100
2, 267008, Note_on_c, 0, 71, 120
2, 267132, Note_off_c, 0, 71, 100
2, 267136, Note_on_c, 0, 69, 120
2, 267260, Note_off_c, 0, 69, 100
2, 267264, Note_on_c, 0, 68, 120
2, 267388, Note_off_c, 0, 68, 100
2, 267392, Note_on_c, 0, 64, 120
2, 267516, Note_off_c, 0, 64, 100
2, 267520, Note_on_c, 0, 65, 120
2, 267644, Note_off_c, 0, 65, 100
2, 267648, Note_on_c, 0, 66, 120
2, 267772, Note_off_c, 0, 66, 100
2, 267776, Note_on_c, 0, 67, 120
2, 267900, Note_off_c, 0, 67, 100
2, 267904, Note_on_c, 0, 68, 120
2, 268028, Note_off_c, 0, 68, 100
2, 268032, Note_on_c, 0, 69, 120
2, 268156, Note_off_c, 0, 69, 100
2, 268160, Note_on_c, 0, 70, 120
2, 268284, Note_off_c, 0, 70, 100
2, 268288, Note_on_c, 0, 71, 120
2, 268412, Note_off_c, 0, 71, 100
2, 268416, Note_on_c, 0, 72, 120
2, 268540, Note_off_c, 0, 72, 100
2, 268544, Note_on_c, 0, 71, 120
2, 268668, Note_off_c, 0, 71, 100
2, 268672, Note_on_c, 0, 64, 120
2, 268796, Note_off_c, 0, 64, 100
2, 268928, Note_on_c, 0, 66, 120
2, 269052, Note_off_c, 0, 66, 100
2, 269056, Note_on_c, 0, 68, 120
2, 269180, Note_off_c, 0, 68, 100
2, 269184, Note_on_c, 0, 69, 120
2, 269308, Note_off_c, 0, 69, 100
2, 269312, Note_on_c, 0, 71, 120
2, 269436, Note_off_c, 0, 71, 100
2, 269440, Note_on_c, 0, 72, 120
2, 269564, Note_off_c, 0, 72, 100
2, 269568, Note_on_c, 0, 73, 120
2, 269692, Note_off_c, 0, 73, 100
2, 269696, Note_on_c, 0, 74, 120
2, 269820, Note_off_c, 0, 74, 100
2, 269824, Note_on_c, 0, 75, 120
2, 269948, Note_off_c, 0, 75, 100
2, 269952, Note_on_c, 0, 76, 120
2, 270076, Note_off_c, 0, 76, 100
2, 270080, Note_on_c, 0, 77, 120
2, 270204, Note_off_c, 0, 77, 100
2, 270208, Note_on_c, 0, 78, 120
2, 270332, Note_off_c, 0, 78, 100
2, 270464, Note_on_c, 0, 68, 120
2, 270588, Note_off_c, 0, 68, 100
2, 270592, Note_on_c, 0, 69, 120
2, 270716, Note_off_c, 0, 69, 100
2, 270720, Note_on_c, 0, 70, 120
2, 270844, Note_off_c, 0, 70, 100
2, 270848, Note_on_c, 0, 71, 120
2, 270972, Note_off_c, 0, 71, 100
2, 270976, Note_on_c, 0, 72, 120
2, 271100, Note_off_c, 0, 72, 100
2, 271104, Note_on_c, 0, 73, 120
2, 271228, Note_off_c, 0, 73, 100
2, 271232, Note_on_c, 0, 74, 120
2, 271356, Note_off_c, 0, 74, 100
2, 271360, Note_on_c, 0, 75, 120
2, 271484, Note_off_c, 0, 75, 100
2, 271488, Note_on_c, 0, 76, 120
2, 271612, Note_off_c, 0, 76, 100
2, 271616, Note_on_c, 0, 74, 120
2, 271740, Note_off_c, 0, 74, 100
2, 271744, Note_on_c, 0, 68, 120
2, 271868, Note_off_c, 0, 68, 100
2, 272000, Note_on_c, 0, 69, 120
2, 272124, Note_off_c, 0, 69, 100
2, 272128, Note_on_c, 0, 71, 120
2, 272252, Note_off_c, 0, 71, 100
2, 272256, Note_on_c, 0, 73, 120
2, 272380, Note_off_c, 0, 73, 100
2, 272384, Note_on_c, 0, 74, 120
2, 272508, Note_off_c, 0, 74, 100
2, 272512, Note_on_c, 0, 75, 120
2, 272636, Note_off_c, 0, 75, 100
2, 272640, Note_on_c, 0, 76, 120
2, 272764, Note_off_c, 0, 76, 100
2, 272768, Note_on_c, 0, 77, 120
2, 272892, Note_off_c, 0, 77, 100
2, 272896, Note_on_c, 0, 78, 120
2, 273020, Note_off_c, 0, 78, 100
2, 273024, Note_on_c, 0, 79, 120
2, 273148, Note_off_c, 0, 79, 100
2, 273152, Note_on_c, 0, 80, 120
2, 273276, Note_off_c, 0, 80, 100
2, 273280, Note_on_c, 0, 81, 120
2, 273404, Note_off_c, 0, 81, 100
2, 273536, Note_on_c, 0, 71, 120
2, 273660, Note_off_c, 0, 71, 100
2, 273664, Note_on_c, 0, 73, 120
2, 273788, Note_off_c, 0, 73, 100
2, 273792, Note_on_c, 0, 74, 120
2, 273916, Note_off_c, 0, 74, 100
2, 273920, Note_on_c, 0, 75, 120
2, 274044, Note_off_c, 0, 75, 100
2, 274048, Note_on_c, 0, 76, 120
2, 274172, Note_off_c, 0, 76, 100
2, 274176, Note_on_c, 0, 77, 120
2, 274300, Note_off_c, 0, 77, 100
2, 274304, Note_on_c, 0, 78, 120
2, 274428, Note_off_c, 0, 78, 100
2, 274432, Note_on_c, 0, 79, 120
2, 274556, Note_off_c, 0, 79, 100
2, 274560, Note_on_c, 0, 80, 120
2, 274684, Note_off_c, 0, 80, 100
2, 274688, Note_on_c, 0, 81, 120
2, 274812, Note_off_c, 0, 81, 100
2, 274816, Note_on_c, 0, 82, 120
2, 274940, Note_off_c, 0, 82, 100
2, 274944, Note_on_c, 0, 83, 120
2, 275068, Note_off_c, 0, 83, 100
2, 275072, Note_on_c, 0, 84, 120
2, 275196, Note_off_c, 0, 84, 100
2, 275200, Note_on_c, 0, 85, 120
2, 275324, Note_off_c, 0, 85, 100
2, 275328, Note_on_c, 0, 86, 120
2, 275452, Note_off_c, 0, 86, 100
2, 275456, Note_on_c, 0, 85, 120
2, 275580, Note_off_c, 0, 85, 100
2, 275584, Note_on_c, 0, 83, 119
2, 275708, Note_off_c, 0, 83, 100
2, 275712, Note_on_c, 0, 81, 119
2, 275836, Note_off_c, 0, 81, 100
2, 275840, Note_on_c, 0, 80, 118
2, 275964, Note_off_c, 0, 80, 100
2, 275968, Note_on_c, 0, 78, 117
2, 276092, Note_off_c, 0, 78, 100
2, 276096, Note_on_c, 0, 76, 117
2, 276220, Note_off_c, 0, 76, 100
2, 276224, Note_on_c, 0, 74, 116
2, 276348, Note_off_c, 0, 74, 100
2, 276352, Note_on_c, 0, 73, 116
2, 276476, Note_off_c, 0, 73, 100
2, 276480, Note_on_c, 0, 71, 115
2, 276604, Note_off_c, 0, 71, 100
2, 276608, Note_on_c, 0, 69, 114
2, 276732, Note_off_c, 0, 69, 100
2, 276736, Note_on_c, 0, 68, 114
2, 276860, Note_off_c, 0, 68, 100
2, 276864, Note_on_c, 0, 66, 113
2, 276988, Note_off_c, 0, 66, 100
2, 276992, Note_on_c, 0, 64, 113
2, 277116, Note_off_c, 0, 64, 100
2, 277120, Note_on_c, 0, 62, 112
2, 277244, Note_off_c, 0, 62, 100
2, 277248, Note_on_c, 0, 61, 111
2, 277372, Note_off_c, 0, 61, 100
2, 277376, Note_on_c, 0, 59, 111
2, 277500, Note_off_c, 0, 59, 100
2, 277504, Note_on_c, 0, 57, 110
2, 277628, Note_off_c, 0, 57, 100
2, 277632, Note_on_c, 0, 56, 110
2, 277756, Note_off_c, 0, 56, 100
2, 277760, Note_on_c, 0, 54, 109
2, 277884, Note_off_c, 0, 54, 100
2, 277888, Note_on_c, 0, 52, 108
2, 278012, Note_off_c, 0, 52, 100
2, 278016, Note_on_c, 0, 50, 108
2, 278140, Note_off_c, 0, 50, 100
2, 278144, Note_on_c, 0, 49, 107
2, 278268, Note_off_c, 0, 49, 100
2, 278272, Note_on_c, 0, 47, 107
2, 278396, Note_off_c, 0, 47, 100
2, 278400, Note_on_c, 0, 45, 106
2, 278524, Note_off_c, 0, 45, 100
2, 278528, Note_on_c, 0, 44, 105
2, 278652, Note_off_c, 0, 44, 100
2, 278656, Note_on_c, 0, 42, 105
2, 278780, Note_off_c, 0, 42, 100
2, 278784, Note_on_c, 0, 40, 104
2, 278908, Note_off_c, 0, 40, 100
2, 278912, Note_on_c, 0, 42, 104
2, 279036, Note_off_c, 0, 42, 100
2, 279040, Note_on_c, 0, 40, 103
2, 279164, Note_off_c, 0, 40, 100
2, 279168, Note_on_c, 0, 38, 102
2, 279292, Note_off_c, 0, 38, 100
2, 279296, Note_on_c, 0, 37, 102
2, 279420, Note_off_c, 0, 37, 100
2, 279424, Note_on_c, 0, 35, 101
2, 279548, Note_off_c, 0, 35, 100
2, 279984, Note_on_c, 0, 61, 80
2, 280032, Note_on_c, 0, 64, 80
2, 280076, Note_off_c, 0, 61, 100
2, 280080, Note_on_c, 0, 69, 80
2, 280124, Note_off_c, 0, 64, 100
2, 280128, Note_on_c, 0, 73, 80
2, 280172, Note_off_c, 0, 69, 100
2, 280176, Note_on_c, 0, 76, 80
2, 280220, Note_off_c, 0, 73, 100
2, 280224, Note_on_c, 0, 81, 80
2, 280268, Note_off_c, 0, 76, 100
2, 280272, Note_on_c, 0, 85, 80
2, 280316, Note_off_c, 0, 81, 100
2, 280316, Note_off_c, 0, 85, 100
2, 280320, Note_on_c, 0, 88, 80
2, 280700, Note_off_c, 0, 88, 100
2, 280704, Note_on_c, 0, 88, 80
2, 281084, Note_off_c, 0, 88, 100
2, 281088, Note_on_c, 0, 88, 80
2, 281276, Note_off_c, 0, 88, 100
2, 281280, Note_on_c, 0, 68, 80
2, 281372, Note_off_c, 0, 68, 100
2, 281472, Note_on_c, 0, 68, 80
2, 282236, Note_off_c, 0, 68, 100
2, 282240, Note_on_c, 0, 68, 80
2, 282620, Note_off_c, 0, 68, 100
2, 282624, Note_on_c, 0, 69, 80
2, 282688, Note_on_c, 0, 71, 80
2, 282748, Note_off_c, 0, 69, 100
2, 282752, Note_on_c, 0, 69, 80
2, 282812, Note_off_c, 0, 71, 100
2, 282816, Note_on_c, 0, 68, 80
2, 282876, Note_off_c, 0, 69, 100
2, 282880, Note_on_c, 0, 69, 80
2, 282940, Note_off_c, 0, 68, 100
2, 282944, Note_on_c, 0, 70, 80
2, 283004, Note_off_c, 0, 69, 100
2, 283008, Note_on_c, 0, 71, 80
2, 283068, Note_off_c, 0, 70, 100
2, 283072, Note_on_c, 0, 73, 80
2, 283132, Note_off_c, 0, 71, 100
2, 283136, Note_on_c, 0, 71, 80
2, 283196, Note_off_c, 0, 73, 100
2, 283200, Note_on_c, 0, 70, 80
2, 283260, Note_off_c, 0, 71, 100
2, 283264, Note_on_c, 0, 71, 80
2, 283324, Note_off_c, 0, 70, 100
2, 283328, Note_on_c, 0, 72, 80
2, 283388, Note_off_c, 0, 71, 100
2, 283392, Note_on_c, 0, 73, 80
2, 283452, Note_off_c, 0, 72, 100
2, 283456, Note_on_c, 0, 74, 80
2, 283516, Note_off_c, 0, 73, 100
2, 283520, Note_on_c, 0, 73, 80
2, 283580, Note_off_c, 0, 74, 100
2, 283584, Note_on_c, 0, 72, 80
2, 283644, Note_off_c, 0, 73, 100
2, 283648, Note_on_c, 0, 73, 80
2, 283708, Note_off_c, 0, 72, 100
2, 283712, Note_on_c, 0, 69, 80
2, 283772, Note_off_c, 0, 73, 100
2, 283776, Note_on_c, 0, 74, 80
2, 283836, Note_off_c, 0, 69, 100
2, 283840, Note_on_c, 0, 76, 80
2, 283900, Note_off_c, 0, 74, 100
2, 283904, Note_on_c, 0, 74, 80
2, 283964, Note_off_c, 0, 76, 100
2, 283968, Note_on_c, 0, 73, 80
2, 284028, Note_off_c, 0, 74, 100
2, 284032, Note_on_c, 0, 74, 80
2, 284092, Note_off_c, 0, 73, 100
2, 284096, Note_on_c, 0, 75, 80
2, 284156, Note_off_c, 0, 74, 100
2, 284156, Note_off_c, 0, 75, 100
2, 284160, Note_on_c, 0, 76, 80
2, 284224, Note_on_c, 0, 78, 80
2, 284284, Note_off_c, 0, 76, 100
2, 284288, Note_on_c, 0, 76, 80
2, 284348, Note_off_c, 0, 78, 100
2, 284352, Note_on_c, 0, 75, 80
2, 284412, Note_off_c, 0, 76, 100
2, 284416, Note_on_c, 0, 76, 80
2, 284476, Note_off_c, 0, 75, 100
2, 284480, Note_on_c, 0, 77, 80
2, 284540, Note_off_c, 0, 76, 100
2, 284544, Note_on_c, 0, 78, 80
2, 284604, Note_off_c, 0, 77, 100
2, 284640, Note_on_c, 0, 76, 80
2, 284732, Note_off_c, 0, 78, 100
2, 284736, Note_on_c, 0, 74, 80
2, 284828, Note_off_c, 0, 76, 100
2, 284832, Note_on_c, 0, 73, 80
2, 284924, Note_off_c, 0, 74, 100
2, 284924, Note_off_c, 0, 73, 100
2, 284928, Note_on_c, 0, 71, 80
2, 285308, Note_off_c, 0, 71, 100
2, 285888, Note_on_c, 0, 57, 80
2, 285980, Note_off_c, 0, 57, 100
2, 285984, Note_on_c, 0, 61, 80
2, 286076, Note_off_c, 0, 61, 100
2, 286080, Note_on_c, 0, 64, 80
2, 286144, Note_on_c, 0, 69, 80
2, 286204, Note_off_c, 0, 64, 100
2, 286208, Note_on_c, 0, 73, 80
2, 286268, Note_off_c, 0, 69, 100
2, 286272, Note_on_c, 0, 76, 80
2, 286332, Note_off_c, 0, 73, 100
2, 286336, Note_on_c, 0, 81, 80
2, 286396, Note_off_c, 0, 76, 100
2, 286400, Note_on_c, 0, 85, 80
2, 286460, Note_off_c, 0, 81, 100
2, 286460, Note_off_c, 0, 85, 100
2, 286464, Note_on_c, 0, 88, 80
2, 286652, Note_off_c, 0, 88, 100
2, 286656, Note_on_c, 0, 87, 80
2, 286748, Note_off_c, 0, 87, 100
2, 286752, Note_on_c, 0, 88, 80
2, 286844, Note_off_c, 0, 88, 100
2, 286848, Note_on_c, 0, 87, 80
2, 286940, Note_off_c, 0, 87, 100
2, 286944, Note_on_c, 0, 88, 80
2, 287036, Note_off_c, 0, 88, 100
2, 287040, Note_on_c, 0, 87, 80
2, 287132, Note_off_c, 0, 87, 100
2, 287136, Note_on_c, 0, 88, 80
2, 287228, Note_off_c, 0, 88, 100
2, 287232, Note_on_c, 0, 88, 102
2, 287420, Note_off_c, 0, 88, 100
2, 287424, Note_on_c, 0, 66, 80
2, 287516, Note_off_c, 0, 66, 100
2, 287616, Note_on_c, 0, 66, 80
2, 288188, Note_off_c, 0, 66, 100
2, 288192, Note_on_c, 0, 74, 80
2, 288284, Note_off_c, 0, 74, 100
2, 288288, Note_on_c, 0, 73, 80
2, 288380, Note_off_c, 0, 73, 100
2, 288384, Note_on_c, 0, 76, 80
2, 288476, Note_off_c, 0, 76, 100
2, 288480, Note_on_c, 0, 74, 80
2, 288572, Note_off_c, 0, 74, 100
2, 288576, Note_on_c, 0, 73, 80
2, 288668, Note_off_c, 0, 73, 100
2, 288672, Note_on_c, 0, 71, 80
2, 288764, Note_off_c, 0, 71, 100
2, 288768, Note_on_c, 0, 69, 80
2, 289340, Note_off_c, 0, 69, 100
2, 289344, Note_on_c, 0, 71, 80
2, 289392, Note_on_c, 0, 69, 80
2, 289436, Note_off_c, 0, 71, 100
2, 289440, Note_on_c, 0, 68, 80
2, 289484, Note_off_c, 0, 69, 100
2, 289488, Note_on_c, 0, 69, 80
2, 289532, Note_off_c, 0, 68, 100
2, 289532, Note_off_c, 0, 69, 100
2, 289536, Note_on_c, 0, 73, 80
2, 289724, Note_off_c, 0, 73, 100
2, 289728, Note_on_c, 0, 71, 80
2, 289916, Note_off_c, 0, 71, 100
2, 289920, Note_on_c, 0, 74, 80
2, 290108, Note_off_c, 0, 74, 100
2, 290112, Note_on_c, 0, 68, 80
2, 290300, Note_off_c, 0, 68, 100
2, 290304, Note_on_c, 0, 69, 80
2, 290396, Note_off_c, 0, 69, 100
2, 290400, Note_on_c, 0, 68, 80
2, 290492, Note_off_c, 0, 68, 100
2, 290496, Note_on_c, 0, 71, 80
2, 290588, Note_off_c, 0, 71, 100
2, 290592, Note_on_c, 0, 69, 80
2, 290684, Note_off_c, 0, 69, 100
2, 290688, Note_on_c, 0, 73, 80
2, 290780, Note_off_c, 0, 73, 100
2, 290784, Note_on_c, 0, 71, 80
2, 290876, Note_off_c, 0, 71, 100
2, 290880, Note_on_c, 0, 74, 80
2, 290972, Note_off_c, 0, 74, 100
2, 290976, Note_on_c, 0, 73, 80
2, 291068, Note_off_c, 0, 73, 100
2, 291072, Note_on_c, 0, 76, 80
2, 291164, Note_off_c, 0, 76, 100
2, 291168, Note_on_c, 0, 75, 80
2, 291260, Note_off_c, 0, 75, 100
2, 291264, Note_on_c, 0, 78, 80
2, 291356, Note_off_c, 0, 78, 100
2, 291360, Note_on_c, 0, 76, 80
2, 291452, Note_off_c, 0, 76, 100
2, 291456, Note_on_c, 0, 74, 80
2, 291548, Note_off_c, 0, 74, 100
2, 291552, Note_on_c, 0, 73, 80
2, 291644, Note_off_c, 0, 73, 100
2, 291648, Note_on_c, 0, 71, 80
2, 291740, Note_off_c, 0, 71, 100
2, 291744, Note_on_c, 0, 69, 80
2, 291836, Note_off_c, 0, 69, 100
2, 291840, Note_on_c, 0, 68, 80
2, 292220, Note_off_c, 0, 68, 100
2, 292224, Note_on_c, 0, 68, 100
2, 292272, Note_on_c, 0, 74, 101
2, 292412, Note_off_c, 0, 68, 100
2, 292988, Note_off_c, 0, 74, 100
2, 292992, Note_on_c, 0, 71, 80
2, 293180, Note_off_c, 0, 71, 100
2, 293184, Note_on_c, 0, 68, 80
2, 293372, Note_off_c, 0, 68, 100
2, 293376, Note_on_c, 0, 69, 80
2, 293468, Note_off_c, 0, 69, 100
2, 293472, Note_on_c, 0, 68, 80
2, 293564, Note_off_c, 0, 68, 100
2, 293568, Note_on_c, 0, 71, 80
2, 293660, Note_off_c, 0, 71, 100
2, 293664, Note_on_c, 0, 69, 80
2, 293756, Note_off_c, 0, 69, 100
2, 293760, Note_on_c, 0, 73, 80
2, 293852, Note_off_c, 0, 73, 100
2, 293856, Note_on_c, 0, 71, 80
2, 293948, Note_off_c, 0, 71, 100
2, 293952, Note_on_c, 0, 74, 80
2, 294044, Note_off_c, 0, 74, 100
2, 294048, Note_on_c, 0, 73, 80
2, 294140, Note_off_c, 0, 73, 100
2, 294144, Note_on_c, 0, 76, 80
2, 294236, Note_off_c, 0, 76, 100
2, 294240, Note_on_c, 0, 75, 80
2, 294332, Note_off_c, 0, 75, 100
2, 294336, Note_on_c, 0, 78, 80
2, 294428, Note_off_c, 0, 78, 100
2, 294432, Note_on_c, 0, 76, 80
2, 294524, Note_off_c, 0, 76, 100
2, 294528, Note_on_c, 0, 74, 80
2, 294620, Note_off_c, 0, 74, 100
2, 294624, Note_on_c, 0, 73, 80
2, 294716, Note_off_c, 0, 73, 100
2, 294720, Note_on_c, 0, 71, 80
2, 294812, Note_off_c, 0, 71, 100
2, 294816, Note_on_c, 0, 69, 80
2, 294908, Note_off_c, 0, 69, 100
2, 294912, Note_on_c, 0, 68, 80
2, 294960, Note_on_c, 0, 69, 80
2, 295004, Note_off_c, 0, 68, 100
2, 295008, Note_on_c, 0, 68, 80
2, 295052, Note_off_c, 0, 69, 100
2, 295056, Note_on_c, 0, 69, 80
2, 295100, Note_off_c, 0, 68, 100
2, 295104, Note_on_c, 0, 68, 80
2, 295148, Note_off_c, 0, 69, 100
2, 295152, Note_on_c, 0, 69, 80
2, 295196, Note_off_c, 0, 68, 100
2, 295200, Note_on_c, 0, 66, 80
2, 295244, Note_off_c, 0, 69, 100
2, 295248, Note_on_c, 0, 68, 80
2, 295292, Note_off_c, 0, 66, 100
2, 295292, Note_off_c, 0, 68, 100
2, 295296, Note_on_c, 0, 74, 103
2, 296060, Note_off_c, 0, 74, 100
2, 296064, Note_on_c, 0, 71, 80
2, 296252, Note_off_c, 0, 71, 100
2, 296256, Note_on_c, 0, 68, 80
2, 296444, Note_off_c, 0, 68, 100
2, 296448, Note_on_c, 0, 69, 80
2, 296540, Note_off_c, 0, 69, 100
2, 296544, Note_on_c, 0, 68, 81
2, 296636, Note_off_c, 0, 68, 100
2, 296640, Note_on_c, 0, 71, 83
2, 296732, Note_off_c, 0, 71, 100
2, 296736, Note_on_c, 0, 69, 85
2, 296828, Note_off_c, 0, 69, 100
2, 296832, Note_on_c, 0, 73, 87
2, 296924, Note_off_c, 0, 73, 100
2, 296928, Note_on_c, 0, 71, 89
2, 297020, Note_off_c, 0, 71, 100
2, 297024, Note_on_c, 0, 74, 91
2, 297116, Note_off_c, 0, 74, 100
2, 297120, Note_on_c, 0, 73, 93
2, 297212, Note_off_c, 0, 73, 100
2, 297216, Note_on_c, 0, 76, 95
2, 297308, Note_off_c, 0, 76, 100
2, 297312, Note_on_c, 0, 75, 97
2, 297404, Note_off_c, 0, 75, 100
2, 297408, Note_on_c, 0, 78, 99
2, 297500, Note_off_c, 0, 78, 100
2, 297504, Note_on_c, 0, 76, 101
2, 297596, Note_off_c, 0, 76, 100
2, 297600, Note_on_c, 0, 81, 103
2, 297692, Note_off_c, 0, 81, 100
2, 297696, Note_on_c, 0, 80, 105
2, 297788, Note_off_c, 0, 80, 100
2, 297792, Note_on_c, 0, 83, 107
2, 297884, Note_off_c, 0, 83, 100
2, 297888, Note_on_c, 0, 81, 109
2, 297980, Note_off_c, 0, 81, 100
2, 297984, Note_on_c, 0, 80, 105
2, 298076, Note_off_c, 0, 80, 100
2, 298080, Note_on_c, 0, 78, 103
2, 298172, Note_off_c, 0, 78, 100
2, 298176, Note_on_c, 0, 76, 101
2, 298268, Note_off_c, 0, 76, 100
2, 298272, Note_on_c, 0, 74, 99
2, 298364, Note_off_c, 0, 74, 100
2, 298368, Note_on_c, 0, 73, 96
2, 298460, Note_off_c, 0, 73, 100
2, 298464, Note_on_c, 0, 71, 94
2, 298556, Note_off_c, 0, 71, 100
2, 298560, Note_on_c, 0, 69, 92
2, 298652, Note_off_c, 0, 69, 100
2, 298656, Note_on_c, 0, 68, 90
2, 298748, Note_off_c, 0, 68, 100
2, 298752, Note_on_c, 0, 66, 87
2, 298844, Note_off_c, 0, 66, 100
2, 298848, Note_on_c, 0, 64, 85
2, 298940, Note_off_c, 0, 64, 100
2, 298944, Note_on_c, 0, 62, 83
2, 299036, Note_off_c, 0, 62, 100
2, 299040, Note_on_c, 0, 61, 81
2, 299132, Note_off_c, 0, 61, 100
2, 299136, Note_on_c, 0, 59, 80
2, 299228, Note_off_c, 0, 59, 100
2, 299232, Note_on_c, 0, 57, 80
2, 299324, Note_off_c, 0, 57, 100
2, 299328, Note_on_c, 0, 56, 80
2, 299420, Note_off_c, 0, 56, 100
2, 299424, Note_on_c, 0, 54, 80
2, 299516, Note_off_c, 0, 54, 100
2, 299520, Note_on_c, 0, 52, 80
2, 299900, Note_off_c, 0, 52, 100
2, 299904, Note_on_c, 0, 62, 80
2, 300284, Note_off_c, 0, 62, 100
2, 300288, Note_on_c, 0, 59, 80
2, 300668, Note_off_c, 0, 59, 100
2, 300672, Note_on_c, 0, 56, 80
2, 301052, Note_off_c, 0, 56, 100
2, 301056, Note_on_c, 0, 59, 80
2, 301056, Note_on_c, 0, 56, 80
2, 301056, Note_on_c, 0, 52, 80
2, 301056, Note_on_c, 0, 50, 80
2, 301820, Note_off_c, 0, 59, 100
2, 301820, Note_off_c, 0, 56, 100
2, 301820, Note_off_c, 0, 52, 100
2, 301820, Note_off_c, 0, 50, 100
2, 301920, Note_on_c, 0, 49, 80
2, 301920, Note_on_c, 0, 52, 80
2, 301920, Note_on_c, 0, 57, 80
2, 302684, Note_off_c, 0, 57, 100
2, 302684, Note_off_c, 0, 52, 100
2, 302684, Note_off_c, 0, 49, 100
2, 303360, Control_c, 0, 7, 0
2, 303744, Note_on_c, 0, 57, 1
2, 304124, Note_off_c, 0, 57, 100
2, 304124, End_track
3, 0, Start_track
3, 0, Title_t, "Left"
3, 0, Control_c, 1, 0, 0
3, 0, Program_c, 1, 0
3, 0, Control_c, 1, 7, 100
3, 0, Control_c, 1, 10, 56
3, 0, Control_c, 1, 91, 127
3, 0, Key_signature, 3, "major"
3, 0, Note_on_c, 1, 45, 80
3, 96, Note_on_c, 1, 49, 80
3, 188, Note_off_c, 1, 45, 100
3, 192, Note_on_c, 1, 52, 80
3, 284, Note_off_c, 1, 49, 100
3, 288, Note_on_c, 1, 57, 80
3, 380, Note_off_c, 1, 52, 100
3, 476, Note_off_c, 1, 57, 100
3, 768, Note_on_c, 1, 57, 80
3, 956, Note_off_c, 1, 57, 100
3, 960, Note_on_c, 1, 64, 80
3, 1148, Note_off_c, 1, 64, 100
3, 1152, Note_on_c, 1, 61, 80
3, 1340, Note_off_c, 1, 61, 100
3, 1344, Note_on_c, 1, 64, 80
3, 1532, Note_off_c, 1, 64, 100
3, 1536, Note_on_c, 1, 59, 80
3, 1724, Note_off_c, 1, 59, 100
3, 1728, Note_on_c, 1, 64, 80
3, 1916, Note_off_c, 1, 64, 100
3, 1920, Note_on_c, 1, 62, 80
3, 2108, Note_off_c, 1, 62, 100
3, 2112, Note_on_c, 1, 64, 80
3, 2300, Note_off_c, 1, 64, 100
3, 2304, Note_on_c, 1, 59, 80
3, 2492, Note_off_c, 1, 59, 100
3, 2496, Note_on_c, 1, 64, 80
3, 2684, Note_off_c, 1, 64, 100
3, 2688, Note_on_c, 1, 62, 80
3, 2876, Note_off_c, 1, 62, 100
3, 2880, Note_on_c, 1, 64, 80
3, 3068, Note_off_c, 1, 64, 100
3, 3072, Note_on_c, 1, 61, 80
3, 3260, Note_off_c, 1, 61, 100
3, 3264, Note_on_c, 1, 64, 80
3, 3452, Note_off_c, 1, 64, 100
3, 3456, Note_on_c, 1, 56, 80
3, 3644, Note_off_c, 1, 56, 100
3, 3648, Note_on_c, 1, 64, 80
3, 3836, Note_off_c, 1, 64, 100
3, 3840, Note_on_c, 1, 57, 80
3, 4028, Note_off_c, 1, 57, 100
3, 4032, Note_on_c, 1, 64, 80
3, 4220, Note_off_c, 1, 64, 100
3, 4224, Note_on_c, 1, 54, 80
3, 4412, Note_off_c, 1, 54, 100
3, 4416, Note_on_c, 1, 57, 80
3, 4604, Note_off_c, 1, 57, 100
3, 4608, Note_on_c, 1, 52, 80
3, 4796, Note_off_c, 1, 52, 100
3, 4800, Note_on_c, 1, 61, 80
3, 4988, Note_off_c, 1, 61, 100
3, 4992, Note_on_c, 1, 57, 80
3, 5180, Note_off_c, 1, 57, 100
3, 5184, Note_on_c, 1, 61, 80
3, 5372, Note_off_c, 1, 61, 100
3, 5376, Note_on_c, 1, 52, 80
3, 5564, Note_off_c, 1, 52, 100
3, 5568, Note_on_c, 1, 56, 80
3, 5756, Note_off_c, 1, 56, 100
3, 5760, Note_on_c, 1, 50, 80
3, 5948, Note_off_c, 1, 50, 100
3, 5952, Note_on_c, 1, 56, 80
3, 6140, Note_off_c, 1, 56, 100
3, 6144, Note_on_c, 1, 49, 80
3, 6332, Note_off_c, 1, 49, 100
3, 6336, Note_on_c, 1, 57, 80
3, 6524, Note_off_c, 1, 57, 100
3, 6528, Note_on_c, 1, 52, 80
3, 6716, Note_off_c, 1, 52, 100
3, 6720, Note_on_c, 1, 57, 80
3, 6908, Note_off_c, 1, 57, 100
3, 6912, Note_on_c, 1, 47, 80
3, 7100, Note_off_c, 1, 47, 100
3, 7104, Note_on_c, 1, 56, 80
3, 7292, Note_off_c, 1, 56, 100
3, 7296, Note_on_c, 1, 52, 80
3, 7484, Note_off_c, 1, 52, 100
3, 7488, Note_on_c, 1, 54, 80
3, 7676, Note_off_c, 1, 54, 100
3, 7680, Note_on_c, 1, 46, 80
3, 7868, Note_off_c, 1, 46, 100
3, 7872, Note_on_c, 1, 54, 80
3, 8060, Note_off_c, 1, 54, 100
3, 8064, Note_on_c, 1, 52, 80
3, 8252, Note_off_c, 1, 52, 100
3, 8256, Note_on_c, 1, 54, 80
3, 8444, Note_off_c, 1, 54, 100
3, 8448, Note_on_c, 1, 49, 80
3, 8636, Note_off_c, 1, 49, 100
3, 8640, Note_on_c, 1, 58, 80
3, 8828, Note_off_c, 1, 58, 100
3, 8832, Note_on_c, 1, 52, 80
3, 9020, Note_off_c, 1, 52, 100
3, 9024, Note_on_c, 1, 58, 80
3, 9212, Note_off_c, 1, 58, 100
3, 9216, Note_on_c, 1, 47, 80
3, 9216, Note_on_c, 1, 52, 80
3, 9404, Note_off_c, 1, 52, 100
3, 9408, Note_on_c, 1, 59, 80
3, 9596, Note_off_c, 1, 59, 100
3, 9600, Note_on_c, 1, 56, 80
3, 9788, Note_off_c, 1, 56, 100
3, 9792, Note_on_c, 1, 59, 80
3, 9980, Note_off_c, 1, 59, 100
3, 9984, Note_on_c, 1, 54, 80
3, 10172, Note_off_c, 1, 54, 100
3, 10176, Note_on_c, 1, 59, 80
3, 10364, Note_off_c, 1, 47, 100
3, 10364, Note_off_c, 1, 59, 100
3, 10368, Note_on_c, 1, 47, 80
3, 10368, Note_on_c, 1, 57, 80
3, 10556, Note_off_c, 1, 57, 100
3, 10560, Note_on_c, 1, 59, 80
3, 10748, Note_off_c, 1, 47, 100
3, 10748, Note_off_c, 1, 59, 100
3, 10752, Note_on_c, 1, 52, 80
3, 10944, Note_on_c, 1, 57, 80
3, 11132, Note_off_c, 1, 57, 100
3, 11136, Note_on_c, 1, 59, 80
3, 11324, Note_off_c, 1, 59, 100
3, 11328, Note_on_c, 1, 57, 80
3, 11516, Note_off_c, 1, 57, 100
3, 11520, Note_on_c, 1, 56, 80
3, 11900, Note_off_c, 1, 52, 100
3, 11900, Note_off_c, 1, 56, 100
3, 12288, Note_on_c, 1, 52, 102
3, 13248, Note_on_c, 1, 57, 80
3, 13436, Note_off_c, 1, 57, 100
3, 13440, Note_on_c, 1, 61, 80
3, 13628, Note_off_c, 1, 61, 100
3, 13632, Note_on_c, 1, 63, 80
3, 13820, Note_off_c, 1, 63, 100
3, 14780, Note_off_c, 1, 52, 100
3, 14784, Note_on_c, 1, 52, 80
3, 14972, Note_off_c, 1, 52, 100
3, 14976, Note_on_c, 1, 47, 80
3, 15164, Note_off_c, 1, 47, 100
3, 15168, Note_on_c, 1, 49, 80
3, 15356, Note_off_c, 1, 49, 100
3, 15360, Note_on_c, 1, 50, 80
3, 15360, Note_on_c, 1, 40, 104
3, 16124, Note_off_c, 1, 50, 100
3, 16128, Note_on_c, 1, 49, 80
3, 16508, Note_off_c, 1, 49, 100
3, 16512, Note_on_c, 1, 54, 80
3, 16892, Note_off_c, 1, 54, 100
3, 16896, Note_on_c, 1, 52, 80
3, 17084, Note_off_c, 1, 40, 100
3, 17088, Note_on_c, 1, 39, 70
3, 17276, Note_off_c, 1, 52, 100
3, 17276, Note_off_c, 1, 39, 100
3, 17280, Note_on_c, 1, 40, 70
3, 17468, Note_off_c, 1, 40, 100
3, 17472, Note_on_c, 1, 42, 70
3, 17660, Note_off_c, 1, 42, 100
3, 17664, Note_on_c, 1, 40, 70
3, 17852, Note_off_c, 1, 40, 100
3, 17856, Note_on_c, 1, 38, 70
3, 18044, Note_off_c, 1, 38, 100
3, 18048, Note_on_c, 1, 37, 70
3, 18236, Note_off_c, 1, 37, 100
3, 18240, Note_on_c, 1, 35, 70
3, 18428, Note_off_c, 1, 35, 100
3, 18432, Note_on_c, 1, 33, 80
3, 18620, Note_off_c, 1, 33, 100
3, 18624, Note_on_c, 1, 52, 80
3, 18812, Note_off_c, 1, 52, 100
3, 18816, Note_on_c, 1, 49, 80
3, 19004, Note_off_c, 1, 49, 100
3, 19008, Note_on_c, 1, 52, 80
3, 19196, Note_off_c, 1, 52, 100
3, 19200, Note_on_c, 1, 45, 80
3, 19388, Note_off_c, 1, 45, 100
3, 19392, Note_on_c, 1, 52, 80
3, 19580, Note_off_c, 1, 52, 100
3, 19584, Note_on_c, 1, 49, 80
3, 19772, Note_off_c, 1, 49, 100
3, 19776, Note_on_c, 1, 52, 80
3, 19964, Note_off_c, 1, 52, 100
3, 19968, Note_on_c, 1, 47, 80
3, 20156, Note_off_c, 1, 47, 100
3, 20160, Note_on_c, 1, 52, 80
3, 20348, Note_off_c, 1, 52, 100
3, 20352, Note_on_c, 1, 50, 80
3, 20540, Note_off_c, 1, 50, 100
3, 20544, Note_on_c, 1, 52, 80
3, 20732, Note_off_c, 1, 52, 100
3, 20736, Note_on_c, 1, 47, 80
3, 20924, Note_off_c, 1, 47, 100
3, 20928, Note_on_c, 1, 52, 80
3, 21116, Note_off_c, 1, 52, 100
3, 21120, Note_on_c, 1, 49, 80
3, 21308, Note_off_c, 1, 49, 100
3, 21312, Note_on_c, 1, 57, 80
3, 21500, Note_off_c, 1, 57, 100
3, 21504, Note_on_c, 1, 50, 80
3, 21692, Note_off_c, 1, 50, 100
3, 21696, Note_on_c, 1, 59, 80
3, 21884, Note_off_c, 1, 59, 100
3, 21888, Note_on_c, 1, 54, 80
3, 22076, Note_off_c, 1, 54, 100
3, 22080, Note_on_c, 1, 59, 80
3, 22268, Note_off_c, 1, 59, 100
3, 22272, Note_on_c, 1, 52, 80
3, 22460, Note_off_c, 1, 52, 100
3, 22464, Note_on_c, 1, 61, 80
3, 22652, Note_off_c, 1, 61, 100
3, 22656, Note_on_c, 1, 52, 80
3, 22844, Note_off_c, 1, 52, 100
3, 22848, Note_on_c, 1, 62, 80
3, 23036, Note_off_c, 1, 62, 100
3, 23040, Note_on_c, 1, 57, 80
3, 23232, Note_on_c, 1, 62, 80
3, 23420, Note_off_c, 1, 62, 100
3, 23424, Note_on_c, 1, 64, 80
3, 23612, Note_off_c, 1, 64, 100
3, 23616, Note_on_c, 1, 62, 80
3, 23804, Note_off_c, 1, 62, 100
3, 23808, Note_on_c, 1, 61, 80
3, 24188, Note_off_c, 1, 57, 100
3, 24188, Note_off_c, 1, 61, 100
3, 24960, Note_on_c, 1, 59, 80
3, 25052, Note_off_c, 1, 59, 100
3, 25056, Note_on_c, 1, 62, 80
3, 25148, Note_off_c, 1, 62, 100
3, 25152, Note_on_c, 1, 64, 80
3, 25244, Note_off_c, 1, 64, 100
3, 25248, Note_on_c, 1, 62, 80
3, 25340, Note_off_c, 1, 62, 100
3, 25344, Note_on_c, 1, 59, 80
3, 25724, Note_off_c, 1, 59, 100
3, 26496, Note_on_c, 1, 61, 80
3, 26588, Note_off_c, 1, 61, 100
3, 26592, Note_on_c, 1, 64, 80
3, 26684, Note_off_c, 1, 64, 100
3, 26688, Note_on_c, 1, 69, 80
3, 26780, Note_off_c, 1, 69, 100
3, 26784, Note_on_c, 1, 64, 80
3, 26876, Note_off_c, 1, 64, 100
3, 26880, Note_on_c, 1, 61, 80
3, 27260, Note_off_c, 1, 61, 100
3, 27648, Note_on_c, 1, 62, 100
3, 27648, Note_on_c, 1, 66, 100
3, 28028, Note_off_c, 1, 62, 100
3, 28028, Note_off_c, 1, 66, 100
3, 28416, Note_on_c, 1, 62, 100
3, 28416, Note_on_c, 1, 59, 100
3, 28416, Note_on_c, 1, 52, 100
3, 28796, Note_off_c, 1, 62, 100
3, 28796, Note_off_c, 1, 59, 100
3, 28796, Note_off_c, 1, 52, 100
3, 29184, Note_on_c, 1, 57, 80
3, 29564, Note_off_c, 1, 57, 100
3, 31104, Note_on_c, 1, 71, 80
3, 31196, Note_off_c, 1, 71, 100
3, 31200, Note_on_c, 1, 74, 80
3, 31292, Note_off_c, 1, 74, 100
3, 31296, Note_on_c, 1, 76, 80
3, 31388, Note_off_c, 1, 76, 100
3, 31392, Note_on_c, 1, 74, 80
3, 31484, Note_off_c, 1, 74, 100
3, 31488, Note_on_c, 1, 71, 80
3, 31868, Note_off_c, 1, 71, 100
3, 32640, Note_on_c, 1, 73, 80
3, 32732, Note_off_c, 1, 73, 100
3, 32736, Note_on_c, 1, 76, 80
3, 32828, Note_off_c, 1, 76, 100
3, 32832, Note_on_c, 1, 81, 80
3, 32924, Note_off_c, 1, 81, 100
3, 32928, Note_on_c, 1, 76, 80
3, 33020, Note_off_c, 1, 76, 100
3, 33024, Note_on_c, 1, 73, 80
3, 33404, Note_off_c, 1, 73, 100
3, 33792, Note_on_c, 1, 66, 100
3, 33792, Note_on_c, 1, 69, 100
3, 34172, Note_off_c, 1, 66, 100
3, 34172, Note_off_c, 1, 69, 100
3, 34560, Note_on_c, 1, 63, 100
3, 34560, Note_on_c, 1, 66, 100
3, 34940, Note_off_c, 1, 63, 100
3, 34940, Note_off_c, 1, 66, 100
3, 35328, Note_on_c, 1, 64, 100
3, 35708, Note_off_c, 1, 64, 100
3, 36288, Note_on_c, 1, 56, 100
3, 36288, Note_on_c, 1, 52, 100
3, 36476, Note_off_c, 1, 56, 100
3, 36476, Note_off_c, 1, 52, 100
3, 36480, Note_on_c, 1, 57, 100
3, 36480, Note_on_c, 1, 54, 100
3, 36668, Note_off_c, 1, 57, 100
3, 36668, Note_off_c, 1, 54, 100
3, 36672, Note_on_c, 1, 59, 100
3, 36672, Note_on_c, 1, 56, 100
3, 36860, Note_off_c, 1, 59, 100
3, 36860, Note_off_c, 1, 56, 100
3, 36864, Note_on_c, 1, 57, 100
3, 36864, Note_on_c, 1, 61, 100
3, 37244, Note_off_c, 1, 57, 100
3, 37244, Note_off_c, 1, 61, 100
3, 37632, Note_on_c, 1, 57, 100
3, 37632, Note_on_c, 1, 54, 100
3, 37632, Note_on_c, 1, 51, 100
3, 37632, Note_on_c, 1, 47, 100
3, 38012, Note_off_c, 1, 57, 100
3, 38012, Note_off_c, 1, 54, 100
3, 38012, Note_off_c, 1, 51, 100
3, 38012, Note_off_c, 1, 47, 100
3, 38400, Note_on_c, 1, 52, 80
3, 38492, Note_off_c, 1, 52, 100
3, 38496, Note_on_c, 1, 59, 80
3, 38588, Note_off_c, 1, 59, 100
3, 38592, Note_on_c, 1, 56, 80
3, 38684, Note_off_c, 1, 56, 100
3, 38688, Note_on_c, 1, 59, 80
3, 38780, Note_off_c, 1, 59, 100
3, 38784, Note_on_c, 1, 64, 80
3, 38876, Note_off_c, 1, 64, 100
3, 38880, Note_on_c, 1, 59, 80
3, 38972, Note_off_c, 1, 59, 100
3, 38976, Note_on_c, 1, 56, 80
3, 39068, Note_off_c, 1, 56, 100
3, 39072, Note_on_c, 1, 59, 80
3, 39164, Note_off_c, 1, 59, 100
3, 39168, Note_on_c, 1, 52, 80
3, 39260, Note_off_c, 1, 52, 100
3, 39264, Note_on_c, 1, 59, 80
3, 39356, Note_off_c, 1, 59, 100
3, 39360, Note_on_c, 1, 56, 80
3, 39452, Note_off_c, 1, 56, 100
3, 39456, Note_on_c, 1, 59, 80
3, 39548, Note_off_c, 1, 59, 100
3, 39552, Note_on_c, 1, 52, 80
3, 39644, Note_off_c, 1, 52, 100
3, 39648, Note_on_c, 1, 59, 80
3, 39740, Note_off_c, 1, 59, 100
3, 39744, Note_on_c, 1, 56, 80
3, 39836, Note_off_c, 1, 56, 100
3, 39840, Note_on_c, 1, 59, 80
3, 39932, Note_off_c, 1, 59, 100
3, 39936, Note_on_c, 1, 57, 80
3, 40028, Note_off_c, 1, 57, 100
3, 40032, Note_on_c, 1, 59, 80
3, 40124, Note_off_c, 1, 59, 100
3, 40128, Note_on_c, 1, 54, 80
3, 40220, Note_off_c, 1, 54, 100
3, 40224, Note_on_c, 1, 59, 80
3, 40316, Note_off_c, 1, 59, 100
3, 40320, Note_on_c, 1, 51, 80
3, 40412, Note_off_c, 1, 51, 100
3, 40416, Note_on_c, 1, 59, 80
3, 40508, Note_off_c, 1, 59, 100
3, 40512, Note_on_c, 1, 47, 80
3, 40604, Note_off_c, 1, 47, 100
3, 40608, Note_on_c, 1, 59, 80
3, 40700, Note_off_c, 1, 59, 100
3, 40704, Note_on_c, 1, 45, 80
3, 40796, Note_off_c, 1, 45, 100
3, 40800, Note_on_c, 1, 59, 80
3, 40892, Note_off_c, 1, 59, 100
3, 40896, Note_on_c, 1, 47, 80
3, 40988, Note_off_c, 1, 47, 100
3, 40992, Note_on_c, 1, 59, 80
3, 41084, Note_off_c, 1, 59, 100
3, 41088, Note_on_c, 1, 45, 80
3, 41180, Note_off_c, 1, 45, 100
3, 41184, Note_on_c, 1, 59, 80
3, 41276, Note_off_c, 1, 59, 100
3, 41280, Note_on_c, 1, 47, 80
3, 41372, Note_off_c, 1, 47, 100
3, 41376, Note_on_c, 1, 59, 80
3, 41468, Note_off_c, 1, 59, 100
3, 41472, Note_on_c, 1, 44, 80
3, 41564, Note_off_c, 1, 44, 100
3, 41568, Note_on_c, 1, 59, 80
3, 41660, Note_off_c, 1, 59, 100
3, 41664, Note_on_c, 1, 47, 80
3, 41756, Note_off_c, 1, 47, 100
3, 41760, Note_on_c, 1, 59, 80
3, 41852, Note_off_c, 1, 59, 100
3, 41856, Note_on_c, 1, 52, 80
3, 41948, Note_off_c, 1, 52, 100
3, 41952, Note_on_c, 1, 59, 80
3, 42044, Note_off_c, 1, 59, 100
3, 42048, Note_on_c, 1, 56, 80
3, 42140, Note_off_c, 1, 56, 100
3, 42144, Note_on_c, 1, 59, 80
3, 42236, Note_off_c, 1, 59, 100
3, 42240, Note_on_c, 1, 52, 80
3, 42332, Note_off_c, 1, 52, 100
3, 42336, Note_on_c, 1, 59, 80
3, 42428, Note_off_c, 1, 59, 100
3, 42432, Note_on_c, 1, 56, 80
3, 42524, Note_off_c, 1, 56, 100
3, 42528, Note_on_c, 1, 59, 80
3, 42620, Note_off_c, 1, 59, 100
3, 42624, Note_on_c, 1, 52, 80
3, 42716, Note_off_c, 1, 52, 100
3, 42720, Note_on_c, 1, 59, 80
3, 42812, Note_off_c, 1, 59, 100
3, 42816, Note_on_c, 1, 56, 80
3, 42908, Note_off_c, 1, 56, 100
3, 42912, Note_on_c, 1, 59, 80
3, 43004, Note_off_c, 1, 59, 100
3, 43008, Note_on_c, 1, 57, 80
3, 43100, Note_off_c, 1, 57, 100
3, 43104, Note_on_c, 1, 59, 80
3, 43196, Note_off_c, 1, 59, 100
3, 43200, Note_on_c, 1, 54, 80
3, 43292, Note_off_c, 1, 54, 100
3, 43296, Note_on_c, 1, 59, 80
3, 43388, Note_off_c, 1, 59, 100
3, 43392, Note_on_c, 1, 51, 80
3, 43484, Note_off_c, 1, 51, 100
3, 43488, Note_on_c, 1, 59, 80
3, 43580, Note_off_c, 1, 59, 100
3, 43584, Note_on_c, 1, 47, 80
3, 43676, Note_off_c, 1, 47, 100
3, 43680, Note_on_c, 1, 59, 80
3, 43772, Note_off_c, 1, 59, 100
3, 43776, Note_on_c, 1, 45, 80
3, 43868, Note_off_c, 1, 45, 100
3, 43872, Note_on_c, 1, 59, 80
3, 43964, Note_off_c, 1, 59, 100
3, 43968, Note_on_c, 1, 47, 80
3, 44060, Note_off_c, 1, 47, 100
3, 44064, Note_on_c, 1, 59, 80
3, 44156, Note_off_c, 1, 59, 100
3, 44160, Note_on_c, 1, 45, 80
3, 44252, Note_off_c, 1, 45, 100
3, 44256, Note_on_c, 1, 59, 80
3, 44348, Note_off_c, 1, 59, 100
3, 44352, Note_on_c, 1, 47, 80
3, 44444, Note_off_c, 1, 47, 100
3, 44448, Note_on_c, 1, 59, 80
3, 44540, Note_off_c, 1, 59, 100
3, 44544, Note_on_c, 1, 44, 80
3, 44636, Note_off_c, 1, 44, 100
3, 44640, Note_on_c, 1, 59, 80
3, 44732, Note_off_c, 1, 59, 100
3, 44736, Note_on_c, 1, 47, 80
3, 44828, Note_off_c, 1, 47, 100
3, 44832, Note_on_c, 1, 59, 80
3, 44924, Note_off_c, 1, 59, 100
3, 44928, Note_on_c, 1, 52, 80
3, 45020, Note_off_c, 1, 52, 100
3, 45024, Note_on_c, 1, 59, 80
3, 45116, Note_off_c, 1, 59, 100
3, 45120, Note_on_c, 1, 56, 80
3, 45212, Note_off_c, 1, 56, 100
3, 45216, Note_on_c, 1, 59, 80
3, 45308, Note_off_c, 1, 59, 100
3, 45312, Note_on_c, 1, 52, 80
3, 45404, Note_off_c, 1, 52, 100
3, 45408, Note_on_c, 1, 59, 80
3, 45500, Note_off_c, 1, 59, 100
3, 45504, Note_on_c, 1, 56, 80
3, 45596, Note_off_c, 1, 56, 100
3, 45600, Note_on_c, 1, 59, 80
3, 45692, Note_off_c, 1, 59, 100
3, 45696, Note_on_c, 1, 52, 80
3, 45788, Note_off_c, 1, 52, 100
3, 45792, Note_on_c, 1, 59, 80
3, 45884, Note_off_c, 1, 59, 100
3, 45888, Note_on_c, 1, 56, 80
3, 45980, Note_off_c, 1, 56, 100
3, 45984, Note_on_c, 1, 59, 80
3, 46076, Note_off_c, 1, 59, 100
3, 46080, Note_on_c, 1, 57, 80
3, 46172, Note_off_c, 1, 57, 100
3, 46176, Note_on_c, 1, 59, 80
3, 46268, Note_off_c, 1, 59, 100
3, 46272, Note_on_c, 1, 54, 80
3, 46364, Note_off_c, 1, 54, 100
3, 46368, Note_on_c, 1, 59, 80
3, 46460, Note_off_c, 1, 59, 100
3, 46464, Note_on_c, 1, 51, 80
3, 46556, Note_off_c, 1, 51, 100
3, 46560, Note_on_c, 1, 59, 80
3, 46652, Note_off_c, 1, 59, 100
3, 46656, Note_on_c, 1, 47, 80
3, 46748, Note_off_c, 1, 47, 100
3, 46752, Note_on_c, 1, 59, 80
3, 46844, Note_off_c, 1, 59, 100
3, 46848, Note_on_c, 1, 45, 80
3, 46940, Note_off_c, 1, 45, 100
3, 46944, Note_on_c, 1, 59, 80
3, 47036, Note_off_c, 1, 59, 100
3, 47040, Note_on_c, 1, 47, 80
3, 47132, Note_off_c, 1, 47, 100
3, 47136, Note_on_c, 1, 59, 80
3, 47228, Note_off_c, 1, 59, 100
3, 47232, Note_on_c, 1, 45, 80
3, 47324, Note_off_c, 1, 45, 100
3, 47328, Note_on_c, 1, 59, 80
3, 47420, Note_off_c, 1, 59, 100
3, 47424, Note_on_c, 1, 47, 80
3, 47516, Note_off_c, 1, 47, 100
3, 47520, Note_on_c, 1, 59, 80
3, 47612, Note_off_c, 1, 59, 100
3, 47616, Note_on_c, 1, 44, 80
3, 47708, Note_off_c, 1, 44, 100
3, 47712, Note_on_c, 1, 59, 80
3, 47804, Note_off_c, 1, 59, 100
3, 47808, Note_on_c, 1, 56, 80
3, 47900, Note_off_c, 1, 56, 100
3, 47904, Note_on_c, 1, 59, 80
3, 47996, Note_off_c, 1, 59, 100
3, 48000, Note_on_c, 1, 44, 80
3, 48092, Note_off_c, 1, 44, 100
3, 48096, Note_on_c, 1, 59, 80
3, 48188, Note_off_c, 1, 59, 100
3, 48192, Note_on_c, 1, 56, 80
3, 48284, Note_off_c, 1, 56, 100
3, 48288, Note_on_c, 1, 59, 80
3, 48380, Note_off_c, 1, 59, 100
3, 48384, Note_on_c, 1, 43, 80
3, 48476, Note_off_c, 1, 43, 100
3, 48480, Note_on_c, 1, 57, 80
3, 48572, Note_off_c, 1, 57, 100
3, 48576, Note_on_c, 1, 55, 80
3, 48668, Note_off_c, 1, 55, 100
3, 48672, Note_on_c, 1, 57, 80
3, 48764, Note_off_c, 1, 57, 100
3, 48768, Note_on_c, 1, 43, 80
3, 48860, Note_off_c, 1, 43, 100
3, 48864, Note_on_c, 1, 57, 80
3, 48956, Note_off_c, 1, 57, 100
3, 48960, Note_on_c, 1, 55, 80
3, 49052, Note_off_c, 1, 55, 100
3, 49056, Note_on_c, 1, 57, 80
3, 49148, Note_off_c, 1, 57, 100
3, 49152, Note_on_c, 1, 42, 80
3, 49244, Note_off_c, 1, 42, 100
3, 49248, Note_on_c, 1, 57, 80
3, 49340, Note_off_c, 1, 57, 100
3, 49344, Note_on_c, 1, 54, 80
3, 49436, Note_off_c, 1, 54, 100
3, 49440, Note_on_c, 1, 57, 80
3, 49532, Note_off_c, 1, 57, 100
3, 49536, Note_on_c, 1, 42, 80
3, 49628, Note_off_c, 1, 42, 100
3, 49632, Note_on_c, 1, 57, 80
3, 49724, Note_off_c, 1, 57, 100
3, 49728, Note_on_c, 1, 54, 80
3, 49820, Note_off_c, 1, 54, 100
3, 49824, Note_on_c, 1, 57, 80
3, 49916, Note_off_c, 1, 57, 100
3, 49920, Note_on_c, 1, 42, 80
3, 50012, Note_off_c, 1, 42, 100
3, 50016, Note_on_c, 1, 56, 80
3, 50108, Note_off_c, 1, 56, 100
3, 50112, Note_on_c, 1, 54, 80
3, 50204, Note_off_c, 1, 54, 100
3, 50208, Note_on_c, 1, 56, 80
3, 50300, Note_off_c, 1, 56, 100
3, 50304, Note_on_c, 1, 42, 80
3, 50396, Note_off_c, 1, 42, 100
3, 50400, Note_on_c, 1, 56, 80
3, 50492, Note_off_c, 1, 56, 100
3, 50496, Note_on_c, 1, 54, 80
3, 50588, Note_off_c, 1, 54, 100
3, 50592, Note_on_c, 1, 56, 80
3, 50684, Note_off_c, 1, 56, 100
3, 50688, Note_on_c, 1, 40, 80
3, 50780, Note_off_c, 1, 40, 100
3, 50784, Note_on_c, 1, 56, 80
3, 50876, Note_off_c, 1, 56, 100
3, 50880, Note_on_c, 1, 52, 80
3, 50972, Note_off_c, 1, 52, 100
3, 50976, Note_on_c, 1, 56, 80
3, 51068, Note_off_c, 1, 56, 100
3, 51072, Note_on_c, 1, 40, 80
3, 51164, Note_off_c, 1, 40, 100
3, 51168, Note_on_c, 1, 56, 80
3, 51260, Note_off_c, 1, 56, 100
3, 51264, Note_on_c, 1, 52, 80
3, 51356, Note_off_c, 1, 52, 100
3, 51360, Note_on_c, 1, 56, 80
3, 51452, Note_off_c, 1, 56, 100
3, 51456, Note_on_c, 1, 40, 80
3, 51548, Note_off_c, 1, 40, 100
3, 51552, Note_on_c, 1, 54, 80
3, 51644, Note_off_c, 1, 54, 100
3, 51648, Note_on_c, 1, 52, 80
3, 51740, Note_off_c, 1, 52, 100
3, 51744, Note_on_c, 1, 54, 80
3, 51836, Note_off_c, 1, 54, 100
3, 51840, Note_on_c, 1, 40, 80
3, 51932, Note_off_c, 1, 40, 100
3, 51936, Note_on_c, 1, 54, 80
3, 52028, Note_off_c, 1, 54, 100
3, 52032, Note_on_c, 1, 52, 80
3, 52124, Note_off_c, 1, 52, 100
3, 52128, Note_on_c, 1, 54, 80
3, 52220, Note_off_c, 1, 54, 100
3, 52224, Note_on_c, 1, 39, 80
3, 52316, Note_off_c, 1, 39, 100
3, 52320, Note_on_c, 1, 54, 80
3, 52412, Note_off_c, 1, 54, 100
3, 52416, Note_on_c, 1, 51, 80
3, 52508, Note_off_c, 1, 51, 100
3, 52512, Note_on_c, 1, 54, 80
3, 52604, Note_off_c, 1, 54, 100
3, 52608, Note_on_c, 1, 39, 80
3, 52700, Note_off_c, 1, 39, 100
3, 52704, Note_on_c, 1, 54, 80
3, 52796, Note_off_c, 1, 54, 100
3, 52800, Note_on_c, 1, 51, 80
3, 52892, Note_off_c, 1, 51, 100
3, 52896, Note_on_c, 1, 54, 80
3, 52988, Note_off_c, 1, 54, 100
3, 52992, Note_on_c, 1, 38, 80
3, 53084, Note_off_c, 1, 38, 100
3, 53088, Note_on_c, 1, 52, 80
3, 53180, Note_off_c, 1, 52, 100
3, 53184, Note_on_c, 1, 50, 80
3, 53276, Note_off_c, 1, 50, 100
3, 53280, Note_on_c, 1, 52, 80
3, 53372, Note_off_c, 1, 52, 100
3, 53376, Note_on_c, 1, 38, 80
3, 53468, Note_off_c, 1, 38, 100
3, 53472, Note_on_c, 1, 52, 80
3, 53564, Note_off_c, 1, 52, 100
3, 53568, Note_on_c, 1, 50, 80
3, 53660, Note_off_c, 1, 50, 100
3, 53664, Note_on_c, 1, 52, 80
3, 53756, Note_off_c, 1, 52, 100
3, 53760, Note_on_c, 1, 37, 80
3, 53852, Note_off_c, 1, 37, 100
3, 53856, Note_on_c, 1, 52, 80
3, 53948, Note_off_c, 1, 52, 100
3, 53952, Note_on_c, 1, 49, 80
3, 54044, Note_off_c, 1, 49, 100
3, 54048, Note_on_c, 1, 52, 80
3, 54140, Note_off_c, 1, 52, 100
3, 54144, Note_on_c, 1, 37, 80
3, 54236, Note_off_c, 1, 37, 100
3, 54240, Note_on_c, 1, 52, 80
3, 54332, Note_off_c, 1, 52, 100
3, 54336, Note_on_c, 1, 49, 80
3, 54428, Note_off_c, 1, 49, 100
3, 54432, Note_on_c, 1, 52, 80
3, 54524, Note_off_c, 1, 52, 100
3, 54528, Note_on_c, 1, 35, 80
3, 54620, Note_off_c, 1, 35, 100
3, 54624, Note_on_c, 1, 52, 80
3, 54716, Note_off_c, 1, 52, 100
3, 54720, Note_on_c, 1, 47, 80
3, 54812, Note_off_c, 1, 47, 100
3, 54816, Note_on_c, 1, 52, 80
3, 54908, Note_off_c, 1, 52, 100
3, 54912, Note_on_c, 1, 33, 80
3, 55004, Note_off_c, 1, 33, 100
3, 55008, Note_on_c, 1, 52, 80
3, 55100, Note_off_c, 1, 52, 100
3, 55104, Note_on_c, 1, 45, 80
3, 55196, Note_off_c, 1, 45, 100
3, 55200, Note_on_c, 1, 52, 80
3, 55292, Note_off_c, 1, 52, 100
3, 55296, Note_on_c, 1, 40, 80
3, 55388, Note_off_c, 1, 40, 100
3, 55392, Note_on_c, 1, 52, 80
3, 55484, Note_off_c, 1, 52, 100
3, 55488, Note_on_c, 1, 42, 80
3, 55580, Note_off_c, 1, 42, 100
3, 55584, Note_on_c, 1, 52, 80
3, 55676, Note_off_c, 1, 52, 100
3, 55680, Note_on_c, 1, 44, 80
3, 55772, Note_off_c, 1, 44, 100
3, 55776, Note_on_c, 1, 52, 80
3, 55868, Note_off_c, 1, 52, 100
3, 55872, Note_on_c, 1, 45, 80
3, 55964, Note_off_c, 1, 45, 100
3, 55968, Note_on_c, 1, 52, 80
3, 56060, Note_off_c, 1, 52, 100
3, 56064, Note_on_c, 1, 47, 80
3, 56156, Note_off_c, 1, 47, 100
3, 56160, Note_on_c, 1, 52, 80
3, 56252, Note_off_c, 1, 52, 100
3, 56256, Note_on_c, 1, 49, 80
3, 56348, Note_off_c, 1, 49, 100
3, 56352, Note_on_c, 1, 52, 80
3, 56444, Note_off_c, 1, 52, 100
3, 56448, Note_on_c, 1, 50, 80
3, 56540, Note_off_c, 1, 50, 100
3, 56544, Note_on_c, 1, 52, 80
3, 56636, Note_off_c, 1, 52, 100
3, 56640, Note_on_c, 1, 47, 80
3, 56732, Note_off_c, 1, 47, 100
3, 56736, Note_on_c, 1, 52, 80
3, 56828, Note_off_c, 1, 52, 100
3, 56832, Note_on_c, 1, 49, 80
3, 56924, Note_off_c, 1, 49, 100
3, 56928, Note_on_c, 1, 52, 80
3, 57020, Note_off_c, 1, 52, 100
3, 57024, Note_on_c, 1, 45, 80
3, 57116, Note_off_c, 1, 45, 100
3, 57120, Note_on_c, 1, 52, 80
3, 57212, Note_off_c, 1, 52, 100
3, 57216, Note_on_c, 1, 37, 80
3, 57308, Note_off_c, 1, 37, 100
3, 57312, Note_on_c, 1, 52, 80
3, 57404, Note_off_c, 1, 52, 100
3, 57408, Note_on_c, 1, 49, 80
3, 57500, Note_off_c, 1, 49, 100
3, 57504, Note_on_c, 1, 52, 80
3, 57596, Note_off_c, 1, 52, 100
3, 57600, Note_on_c, 1, 35, 80
3, 57692, Note_off_c, 1, 35, 100
3, 57696, Note_on_c, 1, 52, 80
3, 57788, Note_off_c, 1, 52, 100
3, 57792, Note_on_c, 1, 47, 80
3, 57884, Note_off_c, 1, 47, 100
3, 57888, Note_on_c, 1, 52, 80
3, 57980, Note_off_c, 1, 52, 100
3, 57984, Note_on_c, 1, 33, 80
3, 58076, Note_off_c, 1, 33, 100
3, 58080, Note_on_c, 1, 52, 80
3, 58172, Note_off_c, 1, 52, 100
3, 58176, Note_on_c, 1, 45, 80
3, 58268, Note_off_c, 1, 45, 100
3, 58272, Note_on_c, 1, 52, 80
3, 58364, Note_off_c, 1, 52, 100
3, 58368, Note_on_c, 1, 40, 70
3, 58460, Note_off_c, 1, 40, 100
3, 58464, Note_on_c, 1, 52, 70
3, 58556, Note_off_c, 1, 52, 100
3, 58560, Note_on_c, 1, 42, 70
3, 58652, Note_off_c, 1, 42, 100
3, 58656, Note_on_c, 1, 52, 70
3, 58748, Note_off_c, 1, 52, 100
3, 58752, Note_on_c, 1, 44, 70
3, 58844, Note_off_c, 1, 44, 100
3, 58848, Note_on_c, 1, 52, 70
3, 58940, Note_off_c, 1, 52, 100
3, 58944, Note_on_c, 1, 45, 70
3, 59036, Note_off_c, 1, 45, 100
3, 59040, Note_on_c, 1, 52, 70
3, 59132, Note_off_c, 1, 52, 100
3, 59136, Note_on_c, 1, 46, 70
3, 59228, Note_off_c, 1, 46, 100
3, 59232, Note_on_c, 1, 52, 70
3, 59324, Note_off_c, 1, 52, 100
3, 59328, Note_on_c, 1, 47, 70
3, 59420, Note_off_c, 1, 47, 100
3, 59424, Note_on_c, 1, 52, 70
3, 59516, Note_off_c, 1, 52, 100
3, 59520, Note_on_c, 1, 48, 70
3, 59612, Note_off_c, 1, 48, 100
3, 59616, Note_on_c, 1, 52, 70
3, 59708, Note_off_c, 1, 52, 100
3, 59712, Note_on_c, 1, 49, 70
3, 59804, Note_off_c, 1, 49, 100
3, 59808, Note_on_c, 1, 52, 70
3, 59900, Note_off_c, 1, 52, 100
3, 59904, Note_on_c, 1, 50, 70
3, 59996, Note_off_c, 1, 50, 100
3, 60000, Note_on_c, 1, 52, 70
3, 60092, Note_off_c, 1, 52, 100
3, 60096, Note_on_c, 1, 49, 70
3, 60188, Note_off_c, 1, 49, 100
3, 60192, Note_on_c, 1, 52, 70
3, 60284, Note_off_c, 1, 52, 100
3, 60288, Note_on_c, 1, 47, 70
3, 60380, Note_off_c, 1, 47, 100
3, 60384, Note_on_c, 1, 52, 70
3, 60476, Note_off_c, 1, 52, 100
3, 60480, Note_on_c, 1, 45, 70
3, 60572, Note_off_c, 1, 45, 100
3, 60576, Note_on_c, 1, 52, 70
3, 60668, Note_off_c, 1, 52, 100
3, 60672, Note_on_c, 1, 44, 70
3, 60764, Note_off_c, 1, 44, 100
3, 60768, Note_on_c, 1, 52, 70
3, 60860, Note_off_c, 1, 52, 100
3, 60864, Note_on_c, 1, 42, 70
3, 60956, Note_off_c, 1, 42, 100
3, 60960, Note_on_c, 1, 52, 70
3, 61052, Note_off_c, 1, 52, 100
3, 61056, Note_on_c, 1, 44, 70
3, 61148, Note_off_c, 1, 44, 100
3, 61152, Note_on_c, 1, 52, 70
3, 61244, Note_off_c, 1, 52, 100
3, 61248, Note_on_c, 1, 40, 70
3, 61340, Note_off_c, 1, 40, 100
3, 61344, Note_on_c, 1, 52, 70
3, 61436, Note_off_c, 1, 52, 100
3, 61440, Note_on_c, 1, 33, 80
3, 61504, Note_on_c, 1, 37, 80
3, 61564, Note_off_c, 1, 33, 100
3, 61568, Note_on_c, 1, 40, 80
3, 61628, Note_off_c, 1, 37, 100
3, 61632, Note_on_c, 1, 45, 80
3, 61692, Note_off_c, 1, 40, 100
3, 61696, Note_on_c, 1, 49, 80
3, 61756, Note_off_c, 1, 45, 100
3, 61760, Note_on_c, 1, 52, 80
3, 61820, Note_off_c, 1, 49, 100
3, 61824, Note_on_c, 1, 57, 80
3, 61884, Note_off_c, 1, 52, 100
3, 61916, Note_off_c, 1, 57, 100
3, 62208, Note_on_c, 1, 57, 80
3, 62396, Note_off_c, 1, 57, 100
3, 62400, Note_on_c, 1, 64, 80
3, 62588, Note_off_c, 1, 64, 100
3, 62592, Note_on_c, 1, 61, 80
3, 62780, Note_off_c, 1, 61, 100
3, 62784, Note_on_c, 1, 64, 80
3, 62972, Note_off_c, 1, 64, 100
3, 62976, Note_on_c, 1, 59, 80
3, 63164, Note_off_c, 1, 59, 100
3, 63168, Note_on_c, 1, 64, 80
3, 63356, Note_off_c, 1, 64, 100
3, 63360, Note_on_c, 1, 62, 80
3, 63548, Note_off_c, 1, 62, 100
3, 63552, Note_on_c, 1, 64, 80
3, 63740, Note_off_c, 1, 64, 100
3, 63744, Note_on_c, 1, 59, 80
3, 63932, Note_off_c, 1, 59, 100
3, 63936, Note_on_c, 1, 64, 80
3, 64124, Note_off_c, 1, 64, 100
3, 64128, Note_on_c, 1, 62, 80
3, 64316, Note_off_c, 1, 62, 100
3, 64320, Note_on_c, 1, 64, 80
3, 64508, Note_off_c, 1, 64, 100
3, 64512, Note_on_c, 1, 61, 80
3, 64700, Note_off_c, 1, 61, 100
3, 64704, Note_on_c, 1, 57, 80
3, 64892, Note_off_c, 1, 57, 100
3, 64896, Note_on_c, 1, 56, 80
3, 65084, Note_off_c, 1, 56, 100
3, 65088, Note_on_c, 1, 52, 80
3, 65276, Note_off_c, 1, 52, 100
3, 65280, Note_on_c, 1, 57, 80
3, 65468, Note_off_c, 1, 57, 100
3, 65472, Note_on_c, 1, 64, 80
3, 65660, Note_off_c, 1, 64, 100
3, 65664, Note_on_c, 1, 54, 80
3, 65852, Note_off_c, 1, 54, 100
3, 65856, Note_on_c, 1, 57, 80
3, 66044, Note_off_c, 1, 57, 100
3, 66048, Note_on_c, 1, 52, 80
3, 66236, Note_off_c, 1, 52, 100
3, 66240, Note_on_c, 1, 61, 80
3, 66428, Note_off_c, 1, 61, 100
3, 66432, Note_on_c, 1, 57, 80
3, 66620, Note_off_c, 1, 57, 100
3, 66624, Note_on_c, 1, 61, 80
3, 66812, Note_off_c, 1, 61, 100
3, 66816, Note_on_c, 1, 52, 80
3, 67004, Note_off_c, 1, 52, 100
3, 67008, Note_on_c, 1, 56, 80
3, 67196, Note_off_c, 1, 56, 100
3, 67200, Note_on_c, 1, 50, 80
3, 67388, Note_off_c, 1, 50, 100
3, 67392, Note_on_c, 1, 56, 80
3, 67580, Note_off_c, 1, 56, 100
3, 67584, Note_on_c, 1, 49, 80
3, 67772, Note_off_c, 1, 49, 100
3, 67776, Note_on_c, 1, 57, 80
3, 67964, Note_off_c, 1, 57, 100
3, 67968, Note_on_c, 1, 52, 80
3, 68156, Note_off_c, 1, 52, 100
3, 68160, Note_on_c, 1, 57, 80
3, 68348, Note_off_c, 1, 57, 100
3, 68352, Note_on_c, 1, 47, 80
3, 68540, Note_off_c, 1, 47, 100
3, 68544, Note_on_c, 1, 56, 80
3, 68732, Note_off_c, 1, 56, 100
3, 68736, Note_on_c, 1, 52, 80
3, 68924, Note_off_c, 1, 52, 100
3, 68928, Note_on_c, 1, 54, 80
3, 69116, Note_off_c, 1, 54, 100
3, 69120, Note_on_c, 1, 46, 80
3, 69308, Note_off_c, 1, 46, 100
3, 69312, Note_on_c, 1, 54, 80
3, 69500, Note_off_c, 1, 54, 100
3, 69504, Note_on_c, 1, 52, 80
3, 69692, Note_off_c, 1, 52, 100
3, 69696, Note_on_c, 1, 54, 80
3, 69884, Note_off_c, 1, 54, 100
3, 69888, Note_on_c, 1, 49, 80
3, 70076, Note_off_c, 1, 49, 100
3, 70080, Note_on_c, 1, 58, 80
3, 70268, Note_off_c, 1, 58, 100
3, 70272, Note_on_c, 1, 52, 80
3, 70460, Note_off_c, 1, 52, 100
3, 70464, Note_on_c, 1, 58, 80
3, 70652, Note_off_c, 1, 58, 100
3, 70656, Note_on_c, 1, 47, 80
3, 70656, Note_on_c, 1, 52, 80
3, 70844, Note_off_c, 1, 52, 100
3, 70848, Note_on_c, 1, 59, 80
3, 71036, Note_off_c, 1, 59, 100
3, 71040, Note_on_c, 1, 56, 80
3, 71228, Note_off_c, 1, 56, 100
3, 71232, Note_on_c, 1, 59, 80
3, 71420, Note_off_c, 1, 59, 100
3, 71424, Note_on_c, 1, 54, 80
3, 71612, Note_off_c, 1, 54, 100
3, 71616, Note_on_c, 1, 59, 80
3, 71804, Note_off_c, 1, 47, 100
3, 71804, Note_off_c, 1, 59, 100
3, 71808, Note_on_c, 1, 47, 80
3, 71808, Note_on_c, 1, 57, 80
3, 71996, Note_off_c, 1, 57, 100
3, 72000, Note_on_c, 1, 59, 80
3, 72188, Note_off_c, 1, 47, 100
3, 72188, Note_off_c, 1, 59, 100
3, 72192, Note_on_c, 1, 52, 80
3, 72384, Note_on_c, 1, 57, 80
3, 72572, Note_off_c, 1, 57, 100
3, 72576, Note_on_c, 1, 59, 80
3, 72764, Note_off_c, 1, 59, 100
3, 72768, Note_on_c, 1, 57, 80
3, 72956, Note_off_c, 1, 57, 100
3, 72960, Note_on_c, 1, 56, 80
3, 73340, Note_off_c, 1, 52, 100
3, 73340, Note_off_c, 1, 56, 100
3, 73728, Note_on_c, 1, 52, 104
3, 74688, Note_on_c, 1, 57, 80
3, 74876, Note_off_c, 1, 57, 100
3, 74880, Note_on_c, 1, 61, 80
3, 75068, Note_off_c, 1, 61, 100
3, 75072, Note_on_c, 1, 63, 80
3, 75260, Note_off_c, 1, 63, 100
3, 76220, Note_off_c, 1, 52, 100
3, 76224, Note_on_c, 1, 52, 80
3, 76412, Note_off_c, 1, 52, 100
3, 76416, Note_on_c, 1, 47, 80
3, 76604, Note_off_c, 1, 47, 100
3, 76608, Note_on_c, 1, 49, 80
3, 76796, Note_off_c, 1, 49, 100
3, 76800, Note_on_c, 1, 50, 80
3, 76800, Note_on_c, 1, 40, 104
3, 77564, Note_off_c, 1, 50, 100
3, 77568, Note_on_c, 1, 49, 80
3, 77948, Note_off_c, 1, 49, 100
3, 77952, Note_on_c, 1, 54, 80
3, 78332, Note_off_c, 1, 54, 100
3, 78336, Note_on_c, 1, 52, 80
3, 78524, Note_off_c, 1, 40, 100
3, 78528, Note_on_c, 1, 39, 70
3, 78716, Note_off_c, 1, 52, 100
3, 78716, Note_off_c, 1, 39, 100
3, 78720, Note_on_c, 1, 40, 70
3, 78908, Note_off_c, 1, 40, 100
3, 78912, Note_on_c, 1, 42, 70
3, 79100, Note_off_c, 1, 42, 100
3, 79104, Note_on_c, 1, 40, 70
3, 79292, Note_off_c, 1, 40, 100
3, 79296, Note_on_c, 1, 38, 70
3, 79484, Note_off_c, 1, 38, 100
3, 79488, Note_on_c, 1, 37, 70
3, 79676, Note_off_c, 1, 37, 100
3, 79680, Note_on_c, 1, 35, 70
3, 79868, Note_off_c, 1, 35, 100
3, 79872, Note_on_c, 1, 33, 80
3, 80060, Note_off_c, 1, 33, 100
3, 80064, Note_on_c, 1, 52, 80
3, 80252, Note_off_c, 1, 52, 100
3, 80256, Note_on_c, 1, 49, 81
3, 80444, Note_off_c, 1, 49, 100
3, 80448, Note_on_c, 1, 52, 81
3, 80636, Note_off_c, 1, 52, 100
3, 80640, Note_on_c, 1, 45, 82
3, 80828, Note_off_c, 1, 45, 100
3, 80832, Note_on_c, 1, 52, 83
3, 81020, Note_off_c, 1, 52, 100
3, 81024, Note_on_c, 1, 49, 83
3, 81212, Note_off_c, 1, 49, 100
3, 81216, Note_on_c, 1, 52, 84
3, 81404, Note_off_c, 1, 52, 100
3, 81408, Note_on_c, 1, 47, 85
3, 81596, Note_off_c, 1, 47, 100
3, 81600, Note_on_c, 1, 52, 85
3, 81788, Note_off_c, 1, 52, 100
3, 81792, Note_on_c, 1, 50, 86
3, 81980, Note_off_c, 1, 50, 100
3, 81984, Note_on_c, 1, 52, 87
3, 82172, Note_off_c, 1, 52, 100
3, 82176, Note_on_c, 1, 47, 87
3, 82364, Note_off_c, 1, 47, 100
3, 82368, Note_on_c, 1, 52, 88
3, 82556, Note_off_c, 1, 52, 100
3, 82560, Note_on_c, 1, 49, 88
3, 82748, Note_off_c, 1, 49, 100
3, 82752, Note_on_c, 1, 57, 89
3, 82940, Note_off_c, 1, 57, 100
3, 82944, Note_on_c, 1, 50, 90
3, 83132, Note_off_c, 1, 50, 100
3, 83136, Note_on_c, 1, 59, 90
3, 83324, Note_off_c, 1, 59, 100
3, 83328, Note_on_c, 1, 54, 91
3, 83516, Note_off_c, 1, 54, 100
3, 83520, Note_on_c, 1, 59, 92
3, 83708, Note_off_c, 1, 59, 100
3, 83712, Note_on_c, 1, 52, 92
3, 83900, Note_off_c, 1, 52, 100
3, 83904, Note_on_c, 1, 61, 93
3, 84092, Note_off_c, 1, 61, 100
3, 84096, Note_on_c, 1, 52, 94
3, 84284, Note_off_c, 1, 52, 100
3, 84288, Note_on_c, 1, 62, 94
3, 84476, Note_off_c, 1, 62, 100
3, 84480, Note_on_c, 1, 57, 95
3, 84672, Note_on_c, 1, 62, 95
3, 84860, Note_off_c, 1, 62, 100
3, 84864, Note_on_c, 1, 64, 96
3, 85052, Note_off_c, 1, 64, 100
3, 85056, Note_on_c, 1, 62, 97
3, 85244, Note_off_c, 1, 62, 100
3, 85628, Note_off_c, 1, 57, 100
3, 86016, Key_signature, 0, "major"
3, 86016, Note_on_c, 1, 57, 120
3, 86016, Note_on_c, 1, 52, 120
3, 86016, Note_on_c, 1, 48, 120
3, 86016, Note_on_c, 1, 45, 120
3, 86396, Note_off_c, 1, 57, 100
3, 86396, Note_off_c, 1, 52, 100
3, 86396, Note_off_c, 1, 48, 100
3, 86396, Note_off_c, 1, 45, 100
3, 86400, Note_on_c, 1, 57, 120
3, 86400, Note_on_c, 1, 60, 120
3, 86400, Note_on_c, 1, 64, 120
3, 86780, Note_off_c, 1, 57, 100
3, 86780, Note_off_c, 1, 60, 100
3, 86780, Note_off_c, 1, 64, 100
3, 87168, Note_on_c, 1, 60, 120
3, 87168, Note_on_c, 1, 57, 120
3, 87168, Note_on_c, 1, 64, 120
3, 87452, Note_off_c, 1, 60, 100
3, 87452, Note_off_c, 1, 57, 100
3, 87452, Note_off_c, 1, 64, 100
3, 87456, Note_on_c, 1, 64, 120
3, 87456, Note_on_c, 1, 60, 120
3, 87456, Note_on_c, 1, 57, 120
3, 87548, Note_off_c, 1, 64, 100
3, 87548, Note_off_c, 1, 60, 100
3, 87548, Note_off_c, 1, 57, 100
3, 87552, Note_on_c, 1, 59, 120
3, 87552, Note_on_c, 1, 62, 120
3, 87552, Note_on_c, 1, 64, 120
3, 87932, Note_off_c, 1, 59, 100
3, 87932, Note_off_c, 1, 62, 100
3, 87932, Note_off_c, 1, 64, 100
3, 87936, Note_on_c, 1, 59, 120
3, 87936, Note_on_c, 1, 62, 120
3, 87936, Note_on_c, 1, 64, 120
3, 88316, Note_off_c, 1, 59, 100
3, 88316, Note_off_c, 1, 62, 100
3, 88316, Note_off_c, 1, 64, 100
3, 88704, Note_on_c, 1, 59, 120
3, 88704, Note_on_c, 1, 62, 120
3, 88704, Note_on_c, 1, 64, 120
3, 88988, Note_off_c, 1, 59, 100
3, 88988, Note_off_c, 1, 62, 100
3, 88988, Note_off_c, 1, 64, 100
3, 88992, Note_on_c, 1, 59, 120
3, 88992, Note_on_c, 1, 62, 120
3, 88992, Note_on_c, 1, 64, 120
3, 89084, Note_off_c, 1, 59, 100
3, 89084, Note_off_c, 1, 62, 100
3, 89084, Note_off_c, 1, 64, 100
3, 89088, Note_on_c, 1, 60, 120
3, 89088, Note_on_c, 1, 64, 120
3, 89468, Note_off_c, 1, 60, 100
3, 89468, Note_off_c, 1, 64, 100
3, 91008, Note_on_c, 1, 59, 120
3, 91008, Note_on_c, 1, 53, 120
3, 91008, Note_on_c, 1, 50, 120
3, 91388, Note_off_c, 1, 59, 100
3, 91388, Note_off_c, 1, 53, 100
3, 91388, Note_off_c, 1, 50, 100
3, 91392, Note_on_c, 1, 57, 120
3, 91392, Note_on_c, 1, 60, 120
3, 91392, Note_on_c, 1, 52, 120
3, 91772, Note_off_c, 1, 57, 100
3, 91772, Note_off_c, 1, 60, 100
3, 91772, Note_off_c, 1, 52, 100
3, 91776, Note_on_c, 1, 52, 120
3, 91776, Note_on_c, 1, 59, 120
3, 91776, Note_on_c, 1, 62, 120
3, 92156, Note_off_c, 1, 52, 100
3, 92156, Note_off_c, 1, 59, 100
3, 92156, Note_off_c, 1, 62, 100
3, 92288, Note_on_c, 1, 45, 120
3, 92412, Note_off_c, 1, 45, 100
3, 92416, Note_on_c, 1, 46, 120
3, 92540, Note_off_c, 1, 46, 100
3, 92544, Note_on_c, 1, 47, 120
3, 92668, Note_off_c, 1, 47, 100
3, 92672, Note_on_c, 1, 48, 120
3, 92796, Note_off_c, 1, 48, 100
3, 92800, Note_on_c, 1, 49, 120
3, 92924, Note_off_c, 1, 49, 100
3, 92928, Note_on_c, 1, 50, 120
3, 93052, Note_off_c, 1, 50, 100
3, 93056, Note_on_c, 1, 51, 120
3, 93180, Note_off_c, 1, 51, 100
3, 93184, Note_on_c, 1, 52, 120
3, 93308, Note_off_c, 1, 52, 100
3, 93312, Note_on_c, 1, 53, 120
3, 93436, Note_off_c, 1, 53, 100
3, 93440, Note_on_c, 1, 52, 120
3, 93564, Note_off_c, 1, 52, 100
3, 93568, Note_on_c, 1, 45, 120
3, 93692, Note_off_c, 1, 45, 100
3, 93824, Note_on_c, 1, 38, 120
3, 93948, Note_off_c, 1, 38, 100
3, 93952, Note_on_c, 1, 40, 120
3, 94076, Note_off_c, 1, 40, 100
3, 94080, Note_on_c, 1, 41, 120
3, 94204, Note_off_c, 1, 41, 100
3, 94208, Note_on_c, 1, 42, 120
3, 94332, Note_off_c, 1, 42, 100
3, 94336, Note_on_c, 1, 43, 120
3, 94460, Note_off_c, 1, 43, 100
3, 94464, Note_on_c, 1, 44, 120
3, 94588, Note_off_c, 1, 44, 100
3, 94592, Note_on_c, 1, 45, 120
3, 94716, Note_off_c, 1, 45, 100
3, 94720, Note_on_c, 1, 46, 120
3, 94844, Note_off_c, 1, 46, 100
3, 94848, Note_on_c, 1, 47, 120
3, 94972, Note_off_c, 1, 47, 100
3, 94976, Note_on_c, 1, 45, 120
3, 95100, Note_off_c, 1, 45, 100
3, 95104, Note_on_c, 1, 38, 120
3, 95228, Note_off_c, 1, 38, 100
3, 95360, Note_on_c, 1, 31, 120
3, 95484, Note_off_c, 1, 31, 100
3, 95488, Note_on_c, 1, 33, 120
3, 95612, Note_off_c, 1, 33, 100
3, 95616, Note_on_c, 1, 35, 120
3, 95740, Note_off_c, 1, 35, 100
3, 95744, Note_on_c, 1, 36, 120
3, 95868, Note_off_c, 1, 36, 100
3, 95872, Note_on_c, 1, 38, 120
3, 95996, Note_off_c, 1, 38, 100
3, 96000, Note_on_c, 1, 40, 120
3, 96124, Note_off_c, 1, 40, 100
3, 96128, Note_on_c, 1, 41, 120
3, 96252, Note_off_c, 1, 41, 100
3, 96256, Note_on_c, 1, 43, 120
3, 96380, Note_off_c, 1, 43, 100
3, 96384, Note_on_c, 1, 45, 120
3, 96508, Note_off_c, 1, 45, 100
3, 96512, Note_on_c, 1, 47, 120
3, 96636, Note_off_c, 1, 47, 100
3, 96640, Note_on_c, 1, 48, 120
3, 96764, Note_off_c, 1, 48, 100
3, 96768, Note_on_c, 1, 50, 120
3, 96892, Note_off_c, 1, 50, 100
3, 96896, Note_on_c, 1, 52, 120
3, 97020, Note_off_c, 1, 52, 100
3, 97024, Note_on_c, 1, 53, 120
3, 97148, Note_off_c, 1, 53, 100
3, 97152, Note_on_c, 1, 55, 120
3, 97276, Note_off_c, 1, 55, 100
3, 97280, Note_on_c, 1, 57, 120
3, 97404, Note_off_c, 1, 57, 100
3, 97408, Note_on_c, 1, 59, 120
3, 97532, Note_off_c, 1, 59, 100
3, 97536, Note_on_c, 1, 60, 120
3, 97660, Note_off_c, 1, 60, 100
3, 97664, Note_on_c, 1, 59, 120
3, 97788, Note_off_c, 1, 59, 100
3, 97792, Note_on_c, 1, 57, 120
3, 97916, Note_off_c, 1, 57, 100
3, 97920, Note_on_c, 1, 55, 120
3, 98044, Note_off_c, 1, 55, 100
3, 98048, Note_on_c, 1, 53, 120
3, 98172, Note_off_c, 1, 53, 100
3, 98176, Note_on_c, 1, 52, 120
3, 98300, Note_off_c, 1, 52, 100
3, 98304, Note_on_c, 1, 53, 120
3, 98428, Note_off_c, 1, 53, 100
3, 98432, Note_on_c, 1, 55, 120
3, 98556, Note_off_c, 1, 55, 100
3, 98560, Note_on_c, 1, 57, 120
3, 98684, Note_off_c, 1, 57, 100
3, 98688, Note_on_c, 1, 54, 120
3, 98812, Note_off_c, 1, 54, 100
3, 98816, Note_on_c, 1, 55, 120
3, 98940, Note_off_c, 1, 55, 100
3, 98944, Note_on_c, 1, 57, 120
3, 99068, Note_off_c, 1, 57, 100
3, 99072, Note_on_c, 1, 43, 120
3, 99196, Note_off_c, 1, 43, 100
3, 99200, Note_on_c, 1, 48, 120
3, 99324, Note_off_c, 1, 48, 100
3, 99328, Note_on_c, 1, 52, 120
3, 99452, Note_off_c, 1, 52, 100
3, 99456, Note_on_c, 1, 55, 120
3, 99580, Note_off_c, 1, 55, 100
3, 99584, Note_on_c, 1, 53, 120
3, 99708, Note_off_c, 1, 53, 100
3, 99712, Note_on_c, 1, 50, 120
3, 99836, Note_off_c, 1, 50, 100
3, 99840, Note_on_c, 1, 48, 120
3, 99964, Note_off_c, 1, 48, 100
3, 99968, Note_on_c, 1, 55, 120
3, 100092, Note_off_c, 1, 55, 100
3, 100096, Note_on_c, 1, 52, 120
3, 100220, Note_off_c, 1, 52, 100
3, 100224, Note_on_c, 1, 48, 120
3, 100348, Note_off_c, 1, 48, 100
3, 100352, Note_on_c, 1, 43, 120
3, 100476, Note_off_c, 1, 43, 100
3, 100480, Note_on_c, 1, 40, 120
3, 100604, Note_off_c, 1, 40, 100
3, 100608, Note_on_c, 1, 36, 120
3, 100988, Note_off_c, 1, 36, 100
3, 101376, Note_on_c, 1, 57, 120
3, 101376, Note_on_c, 1, 52, 120
3, 101376, Note_on_c, 1, 48, 120
3, 101376, Note_on_c, 1, 45, 120
3, 101756, Note_off_c, 1, 57, 100
3, 101756, Note_off_c, 1, 52, 100
3, 101756, Note_off_c, 1, 48, 100
3, 101756, Note_off_c, 1, 45, 100
3, 101760, Note_on_c, 1, 57, 120
3, 101760, Note_on_c, 1, 60, 120
3, 101760, Note_on_c, 1, 64, 120
3, 102140, Note_off_c, 1, 57, 100
3, 102140, Note_off_c, 1, 60, 100
3, 102140, Note_off_c, 1, 64, 100
3, 102528, Note_on_c, 1, 60, 120
3, 102528, Note_on_c, 1, 57, 120
3, 102528, Note_on_c, 1, 64, 120
3, 102812, Note_off_c, 1, 60, 100
3, 102812, Note_off_c, 1, 57, 100
3, 102812, Note_off_c, 1, 64, 100
3, 102816, Note_on_c, 1, 64, 120
3, 102816, Note_on_c, 1, 60, 120
3, 102816, Note_on_c, 1, 57, 120
3, 102908, Note_off_c, 1, 64, 100
3, 102908, Note_off_c, 1, 60, 100
3, 102908, Note_off_c, 1, 57, 100
3, 102912, Note_on_c, 1, 59, 120
3, 102912, Note_on_c, 1, 62, 120
3, 102912, Note_on_c, 1, 64, 120
3, 103292, Note_off_c, 1, 59, 100
3, 103292, Note_off_c, 1, 62, 100
3, 103292, Note_off_c, 1, 64, 100
3, 103296, Note_on_c, 1, 59, 120
3, 103296, Note_on_c, 1, 62, 120
3, 103296, Note_on_c, 1, 64, 120
3, 103676, Note_off_c, 1, 59, 100
3, 103676, Note_off_c, 1, 62, 100
3, 103676, Note_off_c, 1, 64, 100
3, 104064, Note_on_c, 1, 59, 120
3, 104064, Note_on_c, 1, 62, 120
3, 104064, Note_on_c, 1, 64, 120
3, 104348, Note_off_c, 1, 59, 100
3, 104348, Note_off_c, 1, 62, 100
3, 104348, Note_off_c, 1, 64, 100
3, 104352, Note_on_c, 1, 59, 120
3, 104352, Note_on_c, 1, 62, 120
3, 104352, Note_on_c, 1, 64, 120
3, 104444, Note_off_c, 1, 59, 100
3, 104444, Note_off_c, 1, 62, 100
3, 104444, Note_off_c, 1, 64, 100
3, 104448, Note_on_c, 1, 60, 120
3, 104448, Note_on_c, 1, 64, 120
3, 104828, Note_off_c, 1, 60, 100
3, 104828, Note_off_c, 1, 64, 100
3, 106368, Note_on_c, 1, 59, 120
3, 106368, Note_on_c, 1, 53, 120
3, 106368, Note_on_c, 1, 50, 120
3, 106748, Note_off_c, 1, 59, 100
3, 106748, Note_off_c, 1, 53, 100
3, 106748, Note_off_c, 1, 50, 100
3, 106752, Note_on_c, 1, 57, 120
3, 106752, Note_on_c, 1, 60, 120
3, 106752, Note_on_c, 1, 52, 120
3, 107132, Note_off_c, 1, 57, 100
3, 107132, Note_off_c, 1, 60, 100
3, 107132, Note_off_c, 1, 52, 100
3, 107136, Note_on_c, 1, 52, 120
3, 107136, Note_on_c, 1, 59, 120
3, 107136, Note_on_c, 1, 62, 120
3, 107516, Note_off_c, 1, 52, 100
3, 107516, Note_off_c, 1, 59, 100
3, 107516, Note_off_c, 1, 62, 100
3, 107648, Note_on_c, 1, 45, 120
3, 107772, Note_off_c, 1, 45, 100
3, 107776, Note_on_c, 1, 46, 120
3, 107900, Note_off_c, 1, 46, 100
3, 107904, Note_on_c, 1, 47, 120
3, 108028, Note_off_c, 1, 47, 100
3, 108032, Note_on_c, 1, 48, 120
3, 108156, Note_off_c, 1, 48, 100
3, 108160, Note_on_c, 1, 49, 120
3, 108284, Note_off_c, 1, 49, 100
3, 108288, Note_on_c, 1, 50, 120
3, 108412, Note_off_c, 1, 50, 100
3, 108416, Note_on_c, 1, 51, 120
3, 108540, Note_off_c, 1, 51, 100
3, 108544, Note_on_c, 1, 52, 120
3, 108668, Note_off_c, 1, 52, 100
3, 108672, Note_on_c, 1, 53, 120
3, 108796, Note_off_c, 1, 53, 100
3, 108800, Note_on_c, 1, 52, 120
3, 108924, Note_off_c, 1, 52, 100
3, 108928, Note_on_c, 1, 45, 120
3, 109052, Note_off_c, 1, 45, 100
3, 109184, Note_on_c, 1, 38, 120
3, 109308, Note_off_c, 1, 38, 100
3, 109312, Note_on_c, 1, 40, 120
3, 109436, Note_off_c, 1, 40, 100
3, 109440, Note_on_c, 1, 41, 120
3, 109564, Note_off_c, 1, 41, 100
3, 109568, Note_on_c, 1, 42, 120
3, 109692, Note_off_c, 1, 42, 100
3, 109696, Note_on_c, 1, 43, 120
3, 109820, Note_off_c, 1, 43, 100
3, 109824, Note_on_c, 1, 44, 120
3, 109948, Note_off_c, 1, 44, 100
3, 109952, Note_on_c, 1, 45, 120
3, 110076, Note_off_c, 1, 45, 100
3, 110080, Note_on_c, 1, 46, 120
3, 110204, Note_off_c, 1, 46, 100
3, 110208, Note_on_c, 1, 47, 120
3, 110332, Note_off_c, 1, 47, 100
3, 110336, Note_on_c, 1, 45, 120
3, 110460, Note_off_c, 1, 45, 100
3, 110464, Note_on_c, 1, 38, 120
3, 110588, Note_off_c, 1, 38, 100
3, 110720, Note_on_c, 1, 31, 120
3, 110844, Note_off_c, 1, 31, 100
3, 110848, Note_on_c, 1, 33, 120
3, 110972, Note_off_c, 1, 33, 100
3, 110976, Note_on_c, 1, 35, 120
3, 111100, Note_off_c, 1, 35, 100
3, 111104, Note_on_c, 1, 36, 120
3, 111228, Note_off_c, 1, 36, 100
3, 111232, Note_on_c, 1, 38, 120
3, 111356, Note_off_c, 1, 38, 100
3, 111360, Note_on_c, 1, 40, 120
3, 111484, Note_off_c, 1, 40, 100
3, 111488, Note_on_c, 1, 41, 120
3, 111612, Note_off_c, 1, 41, 100
3, 111616, Note_on_c, 1, 43, 120
3, 111740, Note_off_c, 1, 43, 100
3, 111744, Note_on_c, 1, 45, 120
3, 111868, Note_off_c, 1, 45, 100
3, 111872, Note_on_c, 1, 47, 120
3, 111996, Note_off_c, 1, 47, 100
3, 112000, Note_on_c, 1, 48, 120
3, 112124, Note_off_c, 1, 48, 100
3, 112128, Note_on_c, 1, 50, 120
3, 112252, Note_off_c, 1, 50, 100
3, 112256, Note_on_c, 1, 52, 120
3, 112380, Note_off_c, 1, 52, 100
3, 112384, Note_on_c, 1, 53, 120
3, 112508, Note_off_c, 1, 53, 100
3, 112512, Note_on_c, 1, 55, 120
3, 112636, Note_off_c, 1, 55, 100
3, 112640, Note_on_c, 1, 57, 120
3, 112764, Note_off_c, 1, 57, 100
3, 112768, Note_on_c, 1, 59, 120
3, 112892, Note_off_c, 1, 59, 100
3, 112896, Note_on_c, 1, 60, 120
3, 113020, Note_off_c, 1, 60, 100
3, 113024, Note_on_c, 1, 59, 120
3, 113148, Note_off_c, 1, 59, 100
3, 113152, Note_on_c, 1, 57, 120
3, 113276, Note_off_c, 1, 57, 100
3, 113280, Note_on_c, 1, 55, 120
3, 113404, Note_off_c, 1, 55, 100
3, 113408, Note_on_c, 1, 53, 120
3, 113532, Note_off_c, 1, 53, 100
3, 113536, Note_on_c, 1, 52, 120
3, 113660, Note_off_c, 1, 52, 100
3, 113664, Note_on_c, 1, 53, 120
3, 113788, Note_off_c, 1, 53, 100
3, 113792, Note_on_c, 1, 55, 120
3, 113916, Note_off_c, 1, 55, 100
3, 113920, Note_on_c, 1, 57, 120
3, 114044, Note_off_c, 1, 57, 100
3, 114048, Note_on_c, 1, 54, 120
3, 114172, Note_off_c, 1, 54, 100
3, 114176, Note_on_c, 1, 55, 120
3, 114300, Note_off_c, 1, 55, 100
3, 114304, Note_on_c, 1, 57, 120
3, 114428, Note_off_c, 1, 57, 100
3, 114432, Note_on_c, 1, 43, 120
3, 114556, Note_off_c, 1, 43, 100
3, 114560, Note_on_c, 1, 48, 120
3, 114684, Note_off_c, 1, 48, 100
3, 114688, Note_on_c, 1, 52, 120
3, 114812, Note_off_c, 1, 52, 100
3, 114816, Note_on_c, 1, 55, 120
3, 114940, Note_off_c, 1, 55, 100
3, 114944, Note_on_c, 1, 53, 120
3, 115068, Note_off_c, 1, 53, 100
3, 115072, Note_on_c, 1, 50, 120
3, 115196, Note_off_c, 1, 50, 100
3, 115200, Note_on_c, 1, 48, 120
3, 115324, Note_off_c, 1, 48, 100
3, 115328, Note_on_c, 1, 55, 120
3, 115452, Note_off_c, 1, 55, 100
3, 115456, Note_on_c, 1, 52, 120
3, 115580, Note_off_c, 1, 52, 100
3, 115584, Note_on_c, 1, 48, 120
3, 115708, Note_off_c, 1, 48, 100
3, 115712, Note_on_c, 1, 43, 120
3, 115836, Note_off_c, 1, 43, 100
3, 115840, Note_on_c, 1, 40, 120
3, 115964, Note_off_c, 1, 40, 100
3, 115968, Note_on_c, 1, 36, 120
3, 116348, Note_off_c, 1, 36, 100
3, 116736, Note_on_c, 1, 55, 120
3, 116736, Note_on_c, 1, 52, 120
3, 116736, Note_on_c, 1, 48, 120
3, 117116, Note_off_c, 1, 55, 100
3, 117116, Note_off_c, 1, 52, 100
3, 117116, Note_off_c, 1, 48, 100
3, 118400, Note_on_c, 1, 43, 120
3, 118524, Note_off_c, 1, 43, 100
3, 118528, Note_on_c, 1, 45, 120
3, 118652, Note_off_c, 1, 45, 100
3, 118656, Note_on_c, 1, 46, 120
3, 118780, Note_off_c, 1, 46, 100
3, 118784, Note_on_c, 1, 47, 120
3, 118908, Note_off_c, 1, 47, 100
3, 118912, Note_on_c, 1, 48, 120
3, 119036, Note_off_c, 1, 48, 100
3, 119040, Note_on_c, 1, 49, 120
3, 119164, Note_off_c, 1, 49, 100
3, 119168, Note_on_c, 1, 50, 120
3, 119292, Note_off_c, 1, 50, 100
3, 119296, Note_on_c, 1, 51, 120
3, 119420, Note_off_c, 1, 51, 100
3, 119424, Note_on_c, 1, 52, 120
3, 119548, Note_off_c, 1, 52, 100
3, 119552, Note_on_c, 1, 53, 120
3, 119676, Note_off_c, 1, 53, 100
3, 119680, Note_on_c, 1, 54, 120
3, 119804, Note_off_c, 1, 54, 100
3, 119808, Note_on_c, 1, 55, 120
3, 119808, Note_on_c, 1, 50, 120
3, 120188, Note_off_c, 1, 55, 100
3, 120192, Note_on_c, 1, 53, 120
3, 120572, Note_off_c, 1, 50, 100
3, 120572, Note_off_c, 1, 53, 100
3, 121472, Note_on_c, 1, 45, 120
3, 121596, Note_off_c, 1, 45, 100
3, 121600, Note_on_c, 1, 47, 120
3, 121724, Note_off_c, 1, 47, 100
3, 121728, Note_on_c, 1, 48, 120
3, 121852, Note_off_c, 1, 48, 100
3, 121856, Note_on_c, 1, 49, 120
3, 121980, Note_off_c, 1, 49, 100
3, 121984, Note_on_c, 1, 50, 120
3, 122108, Note_off_c, 1, 50, 100
3, 122112, Note_on_c, 1, 51, 120
3, 122236, Note_off_c, 1, 51, 100
3, 122240, Note_on_c, 1, 52, 120
3, 122364, Note_off_c, 1, 52, 100
3, 122368, Note_on_c, 1, 53, 120
3, 122492, Note_off_c, 1, 53, 100
3, 122496, Note_on_c, 1, 54, 120
3, 122620, Note_off_c, 1, 54, 100
3, 122624, Note_on_c, 1, 55, 120
3, 122748, Note_off_c, 1, 55, 100
3, 122752, Note_on_c, 1, 56, 120
3, 122876, Note_off_c, 1, 56, 100
3, 122880, Note_on_c, 1, 52, 120
3, 122880, Note_on_c, 1, 57, 120
3, 123260, Note_off_c, 1, 57, 100
3, 123264, Note_on_c, 1, 55, 120
3, 123644, Note_off_c, 1, 52, 100
3, 123644, Note_off_c, 1, 55, 100
3, 124416, Note_on_c, 1, 59, 120
3, 124416, Note_on_c, 1, 57, 120
3, 124416, Note_on_c, 1, 54, 120
3, 124416, Note_on_c, 1, 51, 120
3, 125564, Note_off_c, 1, 59, 100
3, 125564, Note_off_c, 1, 57, 100
3, 125564, Note_off_c, 1, 54, 100
3, 125564, Note_off_c, 1, 51, 100
3, 125568, Note_on_c, 1, 59, 120
3, 125568, Note_on_c, 1, 54, 120
3, 125568, Note_on_c, 1, 51, 120
3, 125948, Note_off_c, 1, 59, 100
3, 125948, Note_off_c, 1, 54, 100
3, 125948, Note_off_c, 1, 51, 100
3, 125952, Note_on_c, 1, 59, 120
3, 125952, Note_on_c, 1, 55, 120
3, 125952, Note_on_c, 1, 52, 120
3, 126332, Note_off_c, 1, 59, 100
3, 126332, Note_off_c, 1, 55, 100
3, 126332, Note_off_c, 1, 52, 100
3, 126336, Note_on_c, 1, 57, 120
3, 126336, Note_on_c, 1, 60, 120
3, 126716, Note_off_c, 1, 57, 100
3, 126716, Note_off_c, 1, 60, 100
3, 126720, Note_on_c, 1, 59, 120
3, 127100, Note_off_c, 1, 59, 100
3, 127104, Note_on_c, 1, 57, 120
3, 127104, Note_on_c, 1, 47, 120
3, 127484, Note_off_c, 1, 57, 100
3, 127484, Note_off_c, 1, 47, 100
3, 127488, Note_on_c, 1, 56, 120
3, 127488, Note_on_c, 1, 52, 120
3, 127868, Note_off_c, 1, 56, 100
3, 127868, Note_off_c, 1, 52, 100
3, 129024, Note_on_c, 1, 57, 120
3, 129024, Note_on_c, 1, 52, 120
3, 129024, Note_on_c, 1, 48, 120
3, 129024, Note_on_c, 1, 45, 120
3, 129404, Note_off_c, 1, 57, 100
3, 129404, Note_off_c, 1, 52, 100
3, 129404, Note_off_c, 1, 48, 100
3, 129404, Note_off_c, 1, 45, 100
3, 129408, Note_on_c, 1, 64, 120
3, 129408, Note_on_c, 1, 60, 120
3, 129408, Note_on_c, 1, 57, 120
3, 129788, Note_off_c, 1, 64, 100
3, 129788, Note_off_c, 1, 60, 100
3, 129788, Note_off_c, 1, 57, 100
3, 130176, Note_on_c, 1, 57, 120
3, 130176, Note_on_c, 1, 52, 120
3, 130176, Note_on_c, 1, 48, 120
3, 130176, Note_on_c, 1, 45, 120
3, 130460, Note_off_c, 1, 57, 100
3, 130460, Note_off_c, 1, 52, 100
3, 130460, Note_off_c, 1, 48, 100
3, 130460, Note_off_c, 1, 45, 100
3, 130464, Note_on_c, 1, 57, 120
3, 130464, Note_on_c, 1, 48, 120
3, 130464, Note_on_c, 1, 45, 120
3, 130464, Note_on_c, 1, 52, 120
3, 130556, Note_off_c, 1, 57, 100
3, 130556, Note_off_c, 1, 48, 100
3, 130556, Note_off_c, 1, 45, 100
3, 130556, Note_off_c, 1, 52, 100
3, 130560, Note_on_c, 1, 56, 120
3, 130560, Note_on_c, 1, 52, 120
3, 130560, Note_on_c, 1, 50, 120
3, 130560, Note_on_c, 1, 47, 120
3, 130940, Note_off_c, 1, 56, 100
3, 130940, Note_off_c, 1, 52, 100
3, 130940, Note_off_c, 1, 50, 100
3, 130940, Note_off_c, 1, 47, 100
3, 130944, Note_on_c, 1, 59, 120
3, 130944, Note_on_c, 1, 62, 120
3, 130944, Note_on_c, 1, 64, 120
3, 131324, Note_off_c, 1, 59, 100
3, 131324, Note_off_c, 1, 62, 100
3, 131324, Note_off_c, 1, 64, 100
3, 131712, Note_on_c, 1, 56, 120
3, 131712, Note_on_c, 1, 52, 120
3, 131712, Note_on_c, 1, 50, 120
3, 131712, Note_on_c, 1, 47, 120
3, 131996, Note_off_c, 1, 56, 100
3, 131996, Note_off_c, 1, 52, 100
3, 131996, Note_off_c, 1, 50, 100
3, 131996, Note_off_c, 1, 47, 100
3, 132000, Note_on_c, 1, 56, 120
3, 132000, Note_on_c, 1, 52, 120
3, 132000, Note_on_c, 1, 50, 120
3, 132000, Note_on_c, 1, 47, 120
3, 132092, Note_off_c, 1, 56, 100
3, 132092, Note_off_c, 1, 52, 100
3, 132092, Note_off_c, 1, 50, 100
3, 132092, Note_off_c, 1, 47, 100
3, 132096, Note_on_c, 1, 57, 120
3, 132096, Note_on_c, 1, 52, 120
3, 132096, Note_on_c, 1, 48, 120
3, 132476, Note_off_c, 1, 57, 100
3, 132476, Note_off_c, 1, 52, 100
3, 132476, Note_off_c, 1, 48, 100
3, 132480, Note_on_c, 1, 60, 120
3, 132480, Note_on_c, 1, 64, 120
3, 132480, Note_on_c, 1, 69, 120
3, 132860, Note_off_c, 1, 60, 100
3, 132860, Note_off_c, 1, 64, 100
3, 132860, Note_off_c, 1, 69, 100
3, 134016, Note_on_c, 1, 57, 120
3, 134016, Note_on_c, 1, 53, 120
3, 134396, Note_off_c, 1, 57, 100
3, 134396, Note_off_c, 1, 53, 100
3, 134400, Note_on_c, 1, 57, 120
3, 134400, Note_on_c, 1, 60, 120
3, 134400, Note_on_c, 1, 52, 120
3, 134780, Note_off_c, 1, 57, 100
3, 134780, Note_off_c, 1, 60, 100
3, 134780, Note_off_c, 1, 52, 100
3, 134784, Note_on_c, 1, 52, 120
3, 134784, Note_on_c, 1, 59, 120
3, 134784, Note_on_c, 1, 62, 120
3, 135164, Note_off_c, 1, 52, 100
3, 135164, Note_off_c, 1, 59, 100
3, 135164, Note_off_c, 1, 62, 100
3, 135168, Note_on_c, 1, 57, 120
3, 135168, Note_on_c, 1, 60, 120
3, 135548, Note_off_c, 1, 57, 100
3, 135548, Note_off_c, 1, 60, 100
3, 136064, Note_on_c, 1, 57, 120
3, 136188, Note_off_c, 1, 57, 100
3, 136192, Note_on_c, 1, 55, 120
3, 136316, Note_off_c, 1, 55, 100
3, 136320, Note_on_c, 1, 53, 120
3, 136444, Note_off_c, 1, 53, 100
3, 136448, Note_on_c, 1, 52, 120
3, 136572, Note_off_c, 1, 52, 100
3, 136576, Note_on_c, 1, 50, 120
3, 136700, Note_off_c, 1, 50, 100
3, 136704, Note_on_c, 1, 48, 80
3, 137084, Note_off_c, 1, 48, 100
3, 138368, Note_on_c, 1, 43, 80
3, 138492, Note_off_c, 1, 43, 100
3, 138496, Note_on_c, 1, 45, 80
3, 138620, Note_off_c, 1, 45, 100
3, 138624, Note_on_c, 1, 46, 80
3, 138748, Note_off_c, 1, 46, 100
3, 138752, Note_on_c, 1, 47, 80
3, 138876, Note_off_c, 1, 47, 100
3, 138880, Note_on_c, 1, 48, 80
3, 139004, Note_off_c, 1, 48, 100
3, 139008, Note_on_c, 1, 49, 80
3, 139132, Note_off_c, 1, 49, 100
3, 139136, Note_on_c, 1, 50, 80
3, 139260, Note_off_c, 1, 50, 100
3, 139264, Note_on_c, 1, 51, 80
3, 139388, Note_off_c, 1, 51, 100
3, 139392, Note_on_c, 1, 52, 80
3, 139516, Note_off_c, 1, 52, 100
3, 139520, Note_on_c, 1, 53, 80
3, 139644, Note_off_c, 1, 53, 100
3, 139648, Note_on_c, 1, 54, 80
3, 139772, Note_off_c, 1, 54, 100
3, 139776, Note_on_c, 1, 55, 80
3, 139776, Note_on_c, 1, 50, 80
3, 140156, Note_off_c, 1, 55, 100
3, 140160, Note_on_c, 1, 53, 80
3, 140540, Note_off_c, 1, 50, 100
3, 140540, Note_off_c, 1, 53, 100
3, 141440, Note_on_c, 1, 45, 80
3, 141564, Note_off_c, 1, 45, 100
3, 141568, Note_on_c, 1, 47, 80
3, 141692, Note_off_c, 1, 47, 100
3, 141696, Note_on_c, 1, 48, 80
3, 141820, Note_off_c, 1, 48, 100
3, 141824, Note_on_c, 1, 49, 80
3, 141948, Note_off_c, 1, 49, 100
3, 141952, Note_on_c, 1, 50, 80
3, 142076, Note_off_c, 1, 50, 100
3, 142080, Note_on_c, 1, 51, 80
3, 142204, Note_off_c, 1, 51, 100
3, 142208, Note_on_c, 1, 52, 80
3, 142332, Note_off_c, 1, 52, 100
3, 142336, Note_on_c, 1, 53, 80
3, 142460, Note_off_c, 1, 53, 100
3, 142464, Note_on_c, 1, 54, 80
3, 142588, Note_off_c, 1, 54, 100
3, 142592, Note_on_c, 1, 55, 80
3, 142716, Note_off_c, 1, 55, 100
3, 142720, Note_on_c, 1, 56, 80
3, 142844, Note_off_c, 1, 56, 100
3, 142848, Note_on_c, 1, 52, 80
3, 142848, Note_on_c, 1, 57, 80
3, 143228, Note_off_c, 1, 57, 100
3, 143232, Note_on_c, 1, 55, 82
3, 143612, Note_off_c, 1, 52, 100
3, 143612, Note_off_c, 1, 55, 100
3, 144384, Note_on_c, 1, 59, 90
3, 144384, Note_on_c, 1, 57, 90
3, 144384, Note_on_c, 1, 54, 90
3, 144384, Note_on_c, 1, 51, 90
3, 145532, Note_off_c, 1, 59, 100
3, 145532, Note_off_c, 1, 57, 100
3, 145532, Note_off_c, 1, 54, 100
3, 145532, Note_off_c, 1, 51, 100
3, 145536, Note_on_c, 1, 59, 98
3, 145536, Note_on_c, 1, 54, 98
3, 145536, Note_on_c, 1, 51, 98
3, 145916, Note_off_c, 1, 59, 100
3, 145916, Note_off_c, 1, 54, 100
3, 145916, Note_off_c, 1, 51, 100
3, 145920, Note_on_c, 1, 59, 100
3, 145920, Note_on_c, 1, 55, 100
3, 145920, Note_on_c, 1, 52, 100
3, 146300, Note_off_c, 1, 59, 100
3, 146300, Note_off_c, 1, 55, 100
3, 146300, Note_off_c, 1, 52, 100
3, 146304, Note_on_c, 1, 57, 101
3, 146304, Note_on_c, 1, 60, 101
3, 146684, Note_off_c, 1, 57, 100
3, 146684, Note_off_c, 1, 60, 100
3, 146688, Note_on_c, 1, 59, 103
3, 147068, Note_off_c, 1, 59, 100
3, 147072, Note_on_c, 1, 57, 105
3, 147072, Note_on_c, 1, 47, 105
3, 147452, Note_off_c, 1, 57, 100
3, 147452, Note_off_c, 1, 47, 100
3, 147456, Note_on_c, 1, 56, 107
3, 147456, Note_on_c, 1, 52, 107
3, 147836, Note_off_c, 1, 56, 100
3, 147836, Note_off_c, 1, 52, 100
3, 148992, Note_on_c, 1, 57, 120
3, 148992, Note_on_c, 1, 52, 120
3, 148992, Note_on_c, 1, 48, 120
3, 148992, Note_on_c, 1, 45, 120
3, 149372, Note_off_c, 1, 57, 100
3, 149372, Note_off_c, 1, 52, 100
3, 149372, Note_off_c, 1, 48, 100
3, 149372, Note_off_c, 1, 45, 100
3, 149376, Note_on_c, 1, 64, 120
3, 149376, Note_on_c, 1, 60, 120
3, 149376, Note_on_c, 1, 57, 120
3, 149756, Note_off_c, 1, 64, 100
3, 149756, Note_off_c, 1, 60, 100
3, 149756, Note_off_c, 1, 57, 100
3, 150144, Note_on_c, 1, 57, 120
3, 150144, Note_on_c, 1, 52, 120
3, 150144, Note_on_c, 1, 48, 120
3, 150144, Note_on_c, 1, 45, 120
3, 150428, Note_off_c, 1, 57, 100
3, 150428, Note_off_c, 1, 52, 100
3, 150428, Note_off_c, 1, 48, 100
3, 150428, Note_off_c, 1, 45, 100
3, 150432, Note_on_c, 1, 57, 120
3, 150432, Note_on_c, 1, 48, 120
3, 150432, Note_on_c, 1, 45, 120
3, 150432, Note_on_c, 1, 52, 120
3, 150524, Note_off_c, 1, 57, 100
3, 150524, Note_off_c, 1, 48, 100
3, 150524, Note_off_c, 1, 45, 100
3, 150524, Note_off_c, 1, 52, 100
3, 150528, Note_on_c, 1, 56, 120
3, 150528, Note_on_c, 1, 52, 120
3, 150528, Note_on_c, 1, 50, 120
3, 150528, Note_on_c, 1, 47, 120
3, 150908, Note_off_c, 1, 56, 100
3, 150908, Note_off_c, 1, 52, 100
3, 150908, Note_off_c, 1, 50, 100
3, 150908, Note_off_c, 1, 47, 100
3, 150912, Note_on_c, 1, 59, 120
3, 150912, Note_on_c, 1, 62, 120
3, 150912, Note_on_c, 1, 64, 120
3, 151292, Note_off_c, 1, 59, 100
3, 151292, Note_off_c, 1, 62, 100
3, 151292, Note_off_c, 1, 64, 100
3, 151680, Note_on_c, 1, 56, 120
3, 151680, Note_on_c, 1, 52, 120
3, 151680, Note_on_c, 1, 50, 120
3, 151680, Note_on_c, 1, 47, 120
3, 151964, Note_off_c, 1, 56, 100
3, 151964, Note_off_c, 1, 52, 100
3, 151964, Note_off_c, 1, 50, 100
3, 151964, Note_off_c, 1, 47, 100
3, 151968, Note_on_c, 1, 56, 120
3, 151968, Note_on_c, 1, 52, 120
3, 151968, Note_on_c, 1, 50, 120
3, 151968, Note_on_c, 1, 47, 120
3, 152060, Note_off_c, 1, 56, 100
3, 152060, Note_off_c, 1, 52, 100
3, 152060, Note_off_c, 1, 50, 100
3, 152060, Note_off_c, 1, 47, 100
3, 152064, Note_on_c, 1, 57, 120
3, 152064, Note_on_c, 1, 52, 120
3, 152064, Note_on_c, 1, 48, 120
3, 152444, Note_off_c, 1, 57, 100
3, 152444, Note_off_c, 1, 52, 100
3, 152444, Note_off_c, 1, 48, 100
3, 152448, Note_on_c, 1, 60, 120
3, 152448, Note_on_c, 1, 64, 120
3, 152448, Note_on_c, 1, 69, 120
3, 152828, Note_off_c, 1, 60, 100
3, 152828, Note_off_c, 1, 64, 100
3, 152828, Note_off_c, 1, 69, 100
3, 153600, Note_on_c, 1, 65, 120
3, 153600, Note_on_c, 1, 69, 120
3, 154368, Note_on_c, 1, 75, 120
3, 155132, Note_off_c, 1, 65, 100
3, 155132, Note_off_c, 1, 69, 100
3, 155132, Note_off_c, 1, 75, 100
3, 155264, Note_on_c, 1, 64, 70
3, 155388, Note_off_c, 1, 64, 100
3, 155392, Note_on_c, 1, 65, 70
3, 155516, Note_off_c, 1, 65, 100
3, 155520, Note_on_c, 1, 66, 70
3, 155644, Note_off_c, 1, 66, 100
3, 155648, Note_on_c, 1, 67, 70
3, 155772, Note_off_c, 1, 67, 100
3, 155776, Note_on_c, 1, 68, 70
3, 155900, Note_off_c, 1, 68, 100
3, 155904, Note_on_c, 1, 69, 70
3, 156028, Note_off_c, 1, 69, 100
3, 156032, Note_on_c, 1, 70, 70
3, 156156, Note_off_c, 1, 70, 100
3, 156160, Note_on_c, 1, 71, 70
3, 156284, Note_off_c, 1, 71, 100
3, 156288, Note_on_c, 1, 72, 70
3, 156412, Note_off_c, 1, 72, 100
3, 156416, Note_on_c, 1, 71, 70
3, 156540, Note_off_c, 1, 71, 100
3, 156544, Note_on_c, 1, 64, 70
3, 156668, Note_off_c, 1, 64, 100
3, 156800, Note_on_c, 1, 66, 70
3, 156924, Note_off_c, 1, 66, 100
3, 156928, Note_on_c, 1, 67, 70
3, 157052, Note_off_c, 1, 67, 100
3, 157056, Note_on_c, 1, 69, 70
3, 157180, Note_off_c, 1, 69, 100
3, 157184, Note_on_c, 1, 70, 70
3, 157308, Note_off_c, 1, 70, 100
3, 157312, Note_on_c, 1, 71, 70
3, 157436, Note_off_c, 1, 71, 100
3, 157440, Note_on_c, 1, 72, 70
3, 157564, Note_off_c, 1, 72, 100
3, 157568, Note_on_c, 1, 69, 70
3, 157692, Note_off_c, 1, 69, 100
3, 157696, Note_on_c, 1, 66, 70
3, 157820, Note_off_c, 1, 66, 100
3, 157824, Note_on_c, 1, 72, 70
3, 157948, Note_off_c, 1, 72, 100
3, 157952, Note_on_c, 1, 69, 70
3, 158076, Note_off_c, 1, 69, 100
3, 158080, Note_on_c, 1, 66, 70
3, 158204, Note_off_c, 1, 66, 100
3, 158336, Note_on_c, 1, 68, 70
3, 158460, Note_off_c, 1, 68, 100
3, 158464, Note_on_c, 1, 69, 70
3, 158588, Note_off_c, 1, 69, 100
3, 158592, Note_on_c, 1, 71, 70
3, 158716, Note_off_c, 1, 71, 100
3, 158720, Note_on_c, 1, 72, 70
3, 158844, Note_off_c, 1, 72, 100
3, 158848, Note_on_c, 1, 73, 70
3, 158972, Note_off_c, 1, 73, 100
3, 158976, Note_on_c, 1, 74, 70
3, 159100, Note_off_c, 1, 74, 100
3, 159104, Note_on_c, 1, 75, 70
3, 159228, Note_off_c, 1, 75, 100
3, 159232, Note_on_c, 1, 76, 70
3, 159356, Note_off_c, 1, 76, 100
3, 159360, Note_on_c, 1, 77, 70
3, 159484, Note_off_c, 1, 77, 100
3, 159488, Note_on_c, 1, 78, 70
3, 159612, Note_off_c, 1, 78, 100
3, 159616, Note_on_c, 1, 79, 70
3, 159740, Note_off_c, 1, 79, 100
3, 167424, Key_signature, 3, "major"
3, 167424, Note_on_c, 1, 33, 80
3, 167472, Note_on_c, 1, 35, 80
3, 167516, Note_off_c, 1, 33, 100
3, 167520, Note_on_c, 1, 37, 80
3, 167564, Note_off_c, 1, 35, 100
3, 167568, Note_on_c, 1, 38, 80
3, 167612, Note_off_c, 1, 37, 100
3, 167616, Note_on_c, 1, 40, 80
3, 167660, Note_off_c, 1, 38, 100
3, 167664, Note_on_c, 1, 42, 80
3, 167708, Note_off_c, 1, 40, 100
3, 167712, Note_on_c, 1, 44, 80
3, 167756, Note_off_c, 1, 42, 100
3, 167760, Note_on_c, 1, 45, 80
3, 167804, Note_off_c, 1, 44, 100
3, 167808, Note_on_c, 1, 47, 80
3, 167852, Note_off_c, 1, 45, 100
3, 167856, Note_on_c, 1, 49, 80
3, 167900, Note_off_c, 1, 47, 100
3, 167904, Note_on_c, 1, 50, 80
3, 167948, Note_off_c, 1, 49, 100
3, 167952, Note_on_c, 1, 52, 80
3, 167996, Note_off_c, 1, 50, 100
3, 168000, Note_on_c, 1, 54, 80
3, 168044, Note_off_c, 1, 52, 100
3, 168048, Note_on_c, 1, 56, 80
3, 168092, Note_off_c, 1, 54, 100
3, 168096, Note_on_c, 1, 57, 80
3, 168140, Note_off_c, 1, 56, 100
3, 168144, Note_on_c, 1, 59, 80
3, 168188, Note_off_c, 1, 57, 100
3, 168236, Note_off_c, 1, 59, 100
3, 168960, Note_on_c, 1, 59, 80
3, 169148, Note_off_c, 1, 59, 100
3, 169152, Note_on_c, 1, 64, 80
3, 169340, Note_off_c, 1, 64, 100
3, 169344, Note_on_c, 1, 62, 80
3, 169532, Note_off_c, 1, 62, 100
3, 169536, Note_on_c, 1, 64, 80
3, 169724, Note_off_c, 1, 64, 100
3, 169728, Note_on_c, 1, 59, 80
3, 169916, Note_off_c, 1, 59, 100
3, 169920, Note_on_c, 1, 64, 80
3, 170108, Note_off_c, 1, 64, 100
3, 170112, Note_on_c, 1, 62, 80
3, 170300, Note_off_c, 1, 62, 100
3, 170304, Note_on_c, 1, 64, 80
3, 170492, Note_off_c, 1, 64, 100
3, 170496, Note_on_c, 1, 61, 80
3, 170684, Note_off_c, 1, 61, 100
3, 170688, Note_on_c, 1, 57, 80
3, 170876, Note_off_c, 1, 57, 100
3, 170880, Note_on_c, 1, 56, 80
3, 171068, Note_off_c, 1, 56, 100
3, 171072, Note_on_c, 1, 52, 80
3, 171260, Note_off_c, 1, 52, 100
3, 171264, Note_on_c, 1, 57, 80
3, 171452, Note_off_c, 1, 57, 100
3, 171456, Note_on_c, 1, 64, 80
3, 171644, Note_off_c, 1, 64, 100
3, 171648, Note_on_c, 1, 54, 80
3, 171836, Note_off_c, 1, 54, 100
3, 171840, Note_on_c, 1, 57, 80
3, 172028, Note_off_c, 1, 57, 100
3, 172032, Note_on_c, 1, 52, 80
3, 172220, Note_off_c, 1, 52, 100
3, 172224, Note_on_c, 1, 61, 80
3, 172412, Note_off_c, 1, 61, 100
3, 172416, Note_on_c, 1, 57, 80
3, 172604, Note_off_c, 1, 57, 100
3, 172608, Note_on_c, 1, 61, 80
3, 172796, Note_off_c, 1, 61, 100
3, 172800, Note_on_c, 1, 52, 80
3, 172988, Note_off_c, 1, 52, 100
3, 172992, Note_on_c, 1, 56, 80
3, 173180, Note_off_c, 1, 56, 100
3, 173184, Note_on_c, 1, 50, 80
3, 173372, Note_off_c, 1, 50, 100
3, 173376, Note_on_c, 1, 56, 80
3, 173564, Note_off_c, 1, 56, 100
3, 173568, Note_on_c, 1, 49, 80
3, 173756, Note_off_c, 1, 49, 100
3, 173760, Note_on_c, 1, 57, 80
3, 173948, Note_off_c, 1, 57, 100
3, 173952, Note_on_c, 1, 52, 80
3, 174140, Note_off_c, 1, 52, 100
3, 174144, Note_on_c, 1, 57, 80
3, 174332, Note_off_c, 1, 57, 100
3, 174336, Note_on_c, 1, 47, 80
3, 174524, Note_off_c, 1, 47, 100
3, 174528, Note_on_c, 1, 56, 80
3, 174716, Note_off_c, 1, 56, 100
3, 174720, Note_on_c, 1, 52, 80
3, 174908, Note_off_c, 1, 52, 100
3, 174912, Note_on_c, 1, 54, 80
3, 175100, Note_off_c, 1, 54, 100
3, 175104, Note_on_c, 1, 46, 80
3, 175292, Note_off_c, 1, 46, 100
3, 175296, Note_on_c, 1, 54, 80
3, 175484, Note_off_c, 1, 54, 100
3, 175488, Note_on_c, 1, 52, 80
3, 175676, Note_off_c, 1, 52, 100
3, 175680, Note_on_c, 1, 54, 80
3, 175868, Note_off_c, 1, 54, 100
3, 175872, Note_on_c, 1, 49, 80
3, 176060, Note_off_c, 1, 49, 100
3, 176064, Note_on_c, 1, 58, 80
3, 176252, Note_off_c, 1, 58, 100
3, 176256, Note_on_c, 1, 52, 80
3, 176444, Note_off_c, 1, 52, 100
3, 176448, Note_on_c, 1, 58, 80
3, 176636, Note_off_c, 1, 58, 100
3, 176640, Note_on_c, 1, 47, 80
3, 176640, Note_on_c, 1, 52, 80
3, 176828, Note_off_c, 1, 52, 100
3, 176832, Note_on_c, 1, 59, 80
3, 177020, Note_off_c, 1, 59, 100
3, 177024, Note_on_c, 1, 56, 80
3, 177212, Note_off_c, 1, 56, 100
3, 177216, Note_on_c, 1, 59, 80
3, 177404, Note_off_c, 1, 59, 100
3, 177408, Note_on_c, 1, 54, 80
3, 177596, Note_off_c, 1, 54, 100
3, 177600, Note_on_c, 1, 59, 80
3, 177788, Note_off_c, 1, 47, 100
3, 177788, Note_off_c, 1, 59, 100
3, 177792, Note_on_c, 1, 47, 80
3, 177792, Note_on_c, 1, 57, 80
3, 177980, Note_off_c, 1, 57, 100
3, 177984, Note_on_c, 1, 59, 80
3, 178172, Note_off_c, 1, 47, 100
3, 178172, Note_off_c, 1, 59, 100
3, 178176, Note_on_c, 1, 52, 80
3, 178368, Note_on_c, 1, 57, 80
3, 178556, Note_off_c, 1, 57, 100
3, 178560, Note_on_c, 1, 59, 80
3, 178748, Note_off_c, 1, 59, 100
3, 178752, Note_on_c, 1, 57, 80
3, 178940, Note_off_c, 1, 57, 100
3, 178944, Note_on_c, 1, 56, 80
3, 179324, Note_off_c, 1, 52, 100
3, 179324, Note_off_c, 1, 56, 100
3, 179712, Note_on_c, 1, 52, 100
3, 180672, Note_on_c, 1, 57, 80
3, 180764, Note_off_c, 1, 57, 100
3, 180768, Note_on_c, 1, 56, 80
3, 180860, Note_off_c, 1, 56, 100
3, 180864, Note_on_c, 1, 57, 80
3, 180956, Note_off_c, 1, 57, 100
3, 180960, Note_on_c, 1, 59, 80
3, 181052, Note_off_c, 1, 59, 100
3, 181056, Note_on_c, 1, 61, 80
3, 181148, Note_off_c, 1, 61, 100
3, 181152, Note_on_c, 1, 63, 80
3, 181244, Note_off_c, 1, 63, 100
3, 181440, Note_on_c, 1, 51, 80
3, 181532, Note_off_c, 1, 51, 100
3, 181536, Note_on_c, 1, 52, 80
3, 181628, Note_off_c, 1, 52, 100
3, 181632, Note_on_c, 1, 54, 80
3, 181724, Note_off_c, 1, 54, 100
3, 181728, Note_on_c, 1, 52, 80
3, 181820, Note_off_c, 1, 52, 100
3, 181824, Note_on_c, 1, 51, 80
3, 181916, Note_off_c, 1, 51, 100
3, 181920, Note_on_c, 1, 52, 80
3, 182012, Note_off_c, 1, 52, 100
3, 182016, Note_on_c, 1, 40, 100
3, 182204, Note_off_c, 1, 52, 100
3, 183740, Note_off_c, 1, 40, 100
3, 183744, Note_on_c, 1, 42, 80
3, 183836, Note_off_c, 1, 42, 100
3, 183840, Note_on_c, 1, 44, 80
3, 183932, Note_off_c, 1, 44, 100
3, 183936, Note_on_c, 1, 45, 80
3, 184028, Note_off_c, 1, 45, 100
3, 184032, Note_on_c, 1, 47, 80
3, 184124, Note_off_c, 1, 47, 100
3, 184128, Note_on_c, 1, 49, 80
3, 184220, Note_off_c, 1, 49, 100
3, 184224, Note_on_c, 1, 51, 80
3, 184316, Note_off_c, 1, 51, 100
3, 184320, Note_on_c, 1, 52, 80
3, 184412, Note_off_c, 1, 52, 100
3, 184416, Note_on_c, 1, 54, 80
3, 184508, Note_off_c, 1, 54, 100
3, 184512, Note_on_c, 1, 56, 80
3, 184604, Note_off_c, 1, 56, 100
3, 184608, Note_on_c, 1, 57, 80
3, 184700, Note_off_c, 1, 57, 100
3, 184704, Note_on_c, 1, 59, 80
3, 184796, Note_off_c, 1, 59, 100
3, 184800, Note_on_c, 1, 57, 80
3, 184892, Note_off_c, 1, 57, 100
3, 184896, Note_on_c, 1, 56, 80
3, 184988, Note_off_c, 1, 56, 100
3, 184992, Note_on_c, 1, 54, 80
3, 185084, Note_off_c, 1, 54, 100
3, 185088, Note_on_c, 1, 52, 80
3, 185180, Note_off_c, 1, 52, 100
3, 185184, Note_on_c, 1, 54, 80
3, 185276, Note_off_c, 1, 54, 100
3, 185280, Note_on_c, 1, 52, 80
3, 185372, Note_off_c, 1, 52, 100
3, 185376, Note_on_c, 1, 50, 80
3, 185468, Note_off_c, 1, 50, 100
3, 185472, Note_on_c, 1, 49, 80
3, 185564, Note_off_c, 1, 49, 100
3, 185568, Note_on_c, 1, 50, 80
3, 185660, Note_off_c, 1, 50, 100
3, 185664, Note_on_c, 1, 49, 80
3, 185756, Note_off_c, 1, 49, 100
3, 185760, Note_on_c, 1, 47, 80
3, 185852, Note_off_c, 1, 47, 100
3, 185856, Note_on_c, 1, 45, 80
3, 186044, Note_off_c, 1, 45, 100
3, 186048, Note_on_c, 1, 52, 80
3, 186236, Note_off_c, 1, 52, 100
3, 186240, Note_on_c, 1, 49, 80
3, 186428, Note_off_c, 1, 49, 100
3, 186432, Note_on_c, 1, 52, 80
3, 186620, Note_off_c, 1, 52, 100
3, 186624, Note_on_c, 1, 45, 80
3, 186812, Note_off_c, 1, 45, 100
3, 186816, Note_on_c, 1, 52, 80
3, 187004, Note_off_c, 1, 52, 100
3, 187008, Note_on_c, 1, 49, 80
3, 187196, Note_off_c, 1, 49, 100
3, 187200, Note_on_c, 1, 52, 80
3, 187388, Note_off_c, 1, 52, 100
3, 187392, Note_on_c, 1, 47, 80
3, 187580, Note_off_c, 1, 47, 100
3, 187584, Note_on_c, 1, 52, 80
3, 187772, Note_off_c, 1, 52, 100
3, 187776, Note_on_c, 1, 50, 80
3, 187964, Note_off_c, 1, 50, 100
3, 187968, Note_on_c, 1, 52, 80
3, 188156, Note_off_c, 1, 52, 100
3, 188160, Note_on_c, 1, 47, 80
3, 188348, Note_off_c, 1, 47, 100
3, 188352, Note_on_c, 1, 52, 80
3, 188540, Note_off_c, 1, 52, 100
3, 188544, Note_on_c, 1, 49, 80
3, 188732, Note_off_c, 1, 49, 100
3, 188736, Note_on_c, 1, 57, 80
3, 188924, Note_off_c, 1, 57, 100
3, 188928, Note_on_c, 1, 50, 80
3, 189116, Note_off_c, 1, 50, 100
3, 189120, Note_on_c, 1, 59, 80
3, 189308, Note_off_c, 1, 59, 100
3, 189312, Note_on_c, 1, 54, 80
3, 189500, Note_off_c, 1, 54, 100
3, 189504, Note_on_c, 1, 59, 80
3, 189692, Note_off_c, 1, 59, 100
3, 189696, Note_on_c, 1, 52, 80
3, 189884, Note_off_c, 1, 52, 100
3, 189888, Note_on_c, 1, 61, 80
3, 190076, Note_off_c, 1, 61, 100
3, 190080, Note_on_c, 1, 52, 80
3, 190268, Note_off_c, 1, 52, 100
3, 190272, Note_on_c, 1, 62, 80
3, 190460, Note_off_c, 1, 62, 100
3, 190464, Note_on_c, 1, 57, 80
3, 190656, Note_on_c, 1, 62, 80
3, 190844, Note_off_c, 1, 62, 100
3, 190848, Note_on_c, 1, 64, 80
3, 191036, Note_off_c, 1, 64, 100
3, 191040, Note_on_c, 1, 62, 80
3, 191228, Note_off_c, 1, 62, 100
3, 191232, Note_on_c, 1, 61, 80
3, 191612, Note_off_c, 1, 57, 100
3, 191612, Note_off_c, 1, 61, 100
3, 192384, Note_on_c, 1, 59, 80
3, 192476, Note_off_c, 1, 59, 100
3, 192480, Note_on_c, 1, 62, 80
3, 192572, Note_off_c, 1, 62, 100
3, 192576, Note_on_c, 1, 64, 80
3, 192668, Note_off_c, 1, 64, 100
3, 192672, Note_on_c, 1, 62, 80
3, 192764, Note_off_c, 1, 62, 100
3, 192768, Note_on_c, 1, 59, 80
3, 193148, Note_off_c, 1, 59, 100
3, 193920, Note_on_c, 1, 61, 80
3, 194012, Note_off_c, 1, 61, 100
3, 194016, Note_on_c, 1, 64, 80
3, 194108, Note_off_c, 1, 64, 100
3, 194112, Note_on_c, 1, 69, 80
3, 194204, Note_off_c, 1, 69, 100
3, 194208, Note_on_c, 1, 64, 80
3, 194300, Note_off_c, 1, 64, 100
3, 194304, Note_on_c, 1, 61, 80
3, 194684, Note_off_c, 1, 61, 100
3, 195072, Note_on_c, 1, 62, 100
3, 195072, Note_on_c, 1, 66, 100
3, 195452, Note_off_c, 1, 62, 100
3, 195452, Note_off_c, 1, 66, 100
3, 195840, Note_on_c, 1, 62, 100
3, 195840, Note_on_c, 1, 59, 100
3, 195840, Note_on_c, 1, 52, 100
3, 196220, Note_off_c, 1, 62, 100
3, 196220, Note_off_c, 1, 59, 100
3, 196220, Note_off_c, 1, 52, 100
3, 196608, Note_on_c, 1, 57, 100
3, 196988, Note_off_c, 1, 57, 100
3, 198528, Note_on_c, 1, 71, 80
3, 198620, Note_off_c, 1, 71, 100
3, 198624, Note_on_c, 1, 74, 80
3, 198716, Note_off_c, 1, 74, 100
3, 198720, Note_on_c, 1, 76, 80
3, 198812, Note_off_c, 1, 76, 100
3, 198816, Note_on_c, 1, 74, 80
3, 198908, Note_off_c, 1, 74, 100
3, 198912, Note_on_c, 1, 71, 80
3, 199292, Note_off_c, 1, 71, 100
3, 200064, Note_on_c, 1, 73, 80
3, 200156, Note_off_c, 1, 73, 100
3, 200160, Note_on_c, 1, 76, 80
3, 200252, Note_off_c, 1, 76, 100
3, 200256, Note_on_c, 1, 81, 80
3, 200348, Note_off_c, 1, 81, 100
3, 200352, Note_on_c, 1, 76, 80
3, 200444, Note_off_c, 1, 76, 100
3, 200448, Note_on_c, 1, 73, 80
3, 200828, Note_off_c, 1, 73, 100
3, 201216, Note_on_c, 1, 66, 100
3, 201216, Note_on_c, 1, 69, 100
3, 201596, Note_off_c, 1, 66, 100
3, 201596, Note_off_c, 1, 69, 100
3, 201984, Note_on_c, 1, 54, 100
3, 201984, Note_on_c, 1, 57, 100
3, 202364, Note_off_c, 1, 54, 100
3, 202364, Note_off_c, 1, 57, 100
3, 202752, Note_on_c, 1, 52, 100
3, 202844, Note_off_c, 1, 52, 100
3, 202848, Note_on_c, 1, 64, 100
3, 202940, Note_off_c, 1, 64, 100
3, 202944, Note_on_c, 1, 54, 100
3, 203036, Note_off_c, 1, 54, 100
3, 203040, Note_on_c, 1, 64, 100
3, 203132, Note_off_c, 1, 64, 100
3, 203136, Note_on_c, 1, 56, 100
3, 203228, Note_off_c, 1, 56, 100
3, 203232, Note_on_c, 1, 64, 100
3, 203324, Note_off_c, 1, 64, 100
3, 203328, Note_on_c, 1, 57, 100
3, 203420, Note_off_c, 1, 57, 100
3, 203424, Note_on_c, 1, 64, 100
3, 203516, Note_off_c, 1, 64, 100
3, 203520, Note_on_c, 1, 59, 100
3, 203612, Note_off_c, 1, 59, 100
3, 203616, Note_on_c, 1, 64, 100
3, 203708, Note_off_c, 1, 64, 100
3, 203712, Note_on_c, 1, 61, 100
3, 203804, Note_off_c, 1, 61, 100
3, 203808, Note_on_c, 1, 64, 100
3, 203900, Note_off_c, 1, 64, 100
3, 203904, Note_on_c, 1, 63, 100
3, 203996, Note_off_c, 1, 63, 100
3, 204000, Note_on_c, 1, 64, 100
3, 204092, Note_off_c, 1, 64, 100
3, 204096, Note_on_c, 1, 66, 100
3, 204188, Note_off_c, 1, 66, 100
3, 204192, Note_on_c, 1, 64, 100
3, 204284, Note_off_c, 1, 64, 100
3, 204288, Note_on_c, 1, 62, 100
3, 204380, Note_off_c, 1, 62, 100
3, 204384, Note_on_c, 1, 64, 100
3, 204476, Note_off_c, 1, 64, 100
3, 204480, Note_on_c, 1, 59, 100
3, 204572, Note_off_c, 1, 59, 100
3, 204576, Note_on_c, 1, 64, 100
3, 204668, Note_off_c, 1, 64, 100
3, 204672, Note_on_c, 1, 56, 100
3, 204764, Note_off_c, 1, 56, 100
3, 204768, Note_on_c, 1, 64, 100
3, 204860, Note_off_c, 1, 64, 100
3, 204864, Note_on_c, 1, 52, 100
3, 204956, Note_off_c, 1, 52, 100
3, 204960, Note_on_c, 1, 64, 100
3, 205052, Note_off_c, 1, 64, 100
3, 205056, Note_on_c, 1, 50, 100
3, 205148, Note_off_c, 1, 50, 100
3, 205152, Note_on_c, 1, 64, 100
3, 205244, Note_off_c, 1, 64, 100
3, 205248, Note_on_c, 1, 52, 100
3, 205340, Note_off_c, 1, 52, 100
3, 205344, Note_on_c, 1, 64, 100
3, 205436, Note_off_c, 1, 64, 100
3, 205440, Note_on_c, 1, 50, 100
3, 205532, Note_off_c, 1, 50, 100
3, 205536, Note_on_c, 1, 64, 100
3, 205628, Note_off_c, 1, 64, 100
3, 205632, Note_on_c, 1, 52, 100
3, 205724, Note_off_c, 1, 52, 100
3, 205728, Note_on_c, 1, 64, 100
3, 205820, Note_off_c, 1, 64, 100
3, 205824, Note_on_c, 1, 49, 100
3, 205916, Note_off_c, 1, 49, 100
3, 205920, Note_on_c, 1, 64, 100
3, 206012, Note_off_c, 1, 64, 100
3, 206016, Note_on_c, 1, 52, 100
3, 206108, Note_off_c, 1, 52, 100
3, 206112, Note_on_c, 1, 64, 100
3, 206204, Note_off_c, 1, 64, 100
3, 206208, Note_on_c, 1, 57, 100
3, 206300, Note_off_c, 1, 57, 100
3, 206304, Note_on_c, 1, 64, 100
3, 206396, Note_off_c, 1, 64, 100
3, 206400, Note_on_c, 1, 61, 100
3, 206492, Note_off_c, 1, 61, 100
3, 206496, Note_on_c, 1, 64, 100
3, 206588, Note_off_c, 1, 64, 100
3, 206592, Note_on_c, 1, 57, 100
3, 206684, Note_off_c, 1, 57, 100
3, 206688, Note_on_c, 1, 64, 100
3, 206780, Note_off_c, 1, 64, 100
3, 206784, Note_on_c, 1, 61, 100
3, 206876, Note_off_c, 1, 61, 100
3, 206880, Note_on_c, 1, 64, 100
3, 206972, Note_off_c, 1, 64, 100
3, 206976, Note_on_c, 1, 57, 100
3, 207068, Note_off_c, 1, 57, 100
3, 207072, Note_on_c, 1, 64, 100
3, 207164, Note_off_c, 1, 64, 100
3, 207168, Note_on_c, 1, 61, 100
3, 207260, Note_off_c, 1, 61, 100
3, 207264, Note_on_c, 1, 64, 100
3, 207356, Note_off_c, 1, 64, 100
3, 207360, Note_on_c, 1, 62, 100
3, 207452, Note_off_c, 1, 62, 100
3, 207456, Note_on_c, 1, 64, 100
3, 207548, Note_off_c, 1, 64, 100
3, 207552, Note_on_c, 1, 59, 100
3, 207644, Note_off_c, 1, 59, 100
3, 207648, Note_on_c, 1, 64, 100
3, 207740, Note_off_c, 1, 64, 100
3, 207744, Note_on_c, 1, 56, 100
3, 207836, Note_off_c, 1, 56, 100
3, 207840, Note_on_c, 1, 64, 100
3, 207932, Note_off_c, 1, 64, 100
3, 207936, Note_on_c, 1, 52, 100
3, 208028, Note_off_c, 1, 52, 100
3, 208032, Note_on_c, 1, 64, 100
3, 208124, Note_off_c, 1, 64, 100
3, 208128, Note_on_c, 1, 50, 100
3, 208220, Note_off_c, 1, 50, 100
3, 208224, Note_on_c, 1, 64, 100
3, 208316, Note_off_c, 1, 64, 100
3, 208320, Note_on_c, 1, 52, 100
3, 208412, Note_off_c, 1, 52, 100
3, 208416, Note_on_c, 1, 64, 100
3, 208508, Note_off_c, 1, 64, 100
3, 208512, Note_on_c, 1, 50, 100
3, 208604, Note_off_c, 1, 50, 100
3, 208608, Note_on_c, 1, 64, 100
3, 208700, Note_off_c, 1, 64, 100
3, 208704, Note_on_c, 1, 52, 100
3, 208796, Note_off_c, 1, 52, 100
3, 208800, Note_on_c, 1, 64, 100
3, 208892, Note_off_c, 1, 64, 100
3, 208896, Note_on_c, 1, 49, 100
3, 208988, Note_off_c, 1, 49, 100
3, 208992, Note_on_c, 1, 64, 100
3, 209084, Note_off_c, 1, 64, 100
3, 209088, Note_on_c, 1, 52, 100
3, 209180, Note_off_c, 1, 52, 100
3, 209184, Note_on_c, 1, 64, 100
3, 209276, Note_off_c, 1, 64, 100
3, 209280, Note_on_c, 1, 57, 100
3, 209372, Note_off_c, 1, 57, 100
3, 209376, Note_on_c, 1, 64, 100
3, 209468, Note_off_c, 1, 64, 100
3, 209472, Note_on_c, 1, 61, 100
3, 209564, Note_off_c, 1, 61, 100
3, 209568, Note_on_c, 1, 64, 100
3, 209660, Note_off_c, 1, 64, 100
3, 209664, Note_on_c, 1, 57, 100
3, 209756, Note_off_c, 1, 57, 100
3, 209760, Note_on_c, 1, 64, 100
3, 209852, Note_off_c, 1, 64, 100
3, 209856, Note_on_c, 1, 61, 100
3, 209948, Note_off_c, 1, 61, 100
3, 209952, Note_on_c, 1, 64, 100
3, 210044, Note_off_c, 1, 64, 100
3, 210048, Note_on_c, 1, 57, 100
3, 210140, Note_off_c, 1, 57, 100
3, 210144, Note_on_c, 1, 64, 100
3, 210236, Note_off_c, 1, 64, 100
3, 210240, Note_on_c, 1, 61, 100
3, 210332, Note_off_c, 1, 61, 100
3, 210336, Note_on_c, 1, 64, 100
3, 210428, Note_off_c, 1, 64, 100
3, 210432, Note_on_c, 1, 62, 100
3, 210524, Note_off_c, 1, 62, 100
3, 210528, Note_on_c, 1, 64, 100
3, 210620, Note_off_c, 1, 64, 100
3, 210624, Note_on_c, 1, 59, 100
3, 210716, Note_off_c, 1, 59, 100
3, 210720, Note_on_c, 1, 64, 100
3, 210812, Note_off_c, 1, 64, 100
3, 210816, Note_on_c, 1, 56, 100
3, 210908, Note_off_c, 1, 56, 100
3, 210912, Note_on_c, 1, 64, 100
3, 211004, Note_off_c, 1, 64, 100
3, 211008, Note_on_c, 1, 52, 100
3, 211100, Note_off_c, 1, 52, 100
3, 211104, Note_on_c, 1, 64, 100
3, 211196, Note_off_c, 1, 64, 100
3, 211200, Note_on_c, 1, 50, 100
3, 211292, Note_off_c, 1, 50, 100
3, 211296, Note_on_c, 1, 64, 100
3, 211388, Note_off_c, 1, 64, 100
3, 211392, Note_on_c, 1, 52, 100
3, 211484, Note_off_c, 1, 52, 100
3, 211488, Note_on_c, 1, 64, 100
3, 211580, Note_off_c, 1, 64, 100
3, 211584, Note_on_c, 1, 50, 100
3, 211676, Note_off_c, 1, 50, 100
3, 211680, Note_on_c, 1, 64, 100
3, 211772, Note_off_c, 1, 64, 100
3, 211776, Note_on_c, 1, 52, 100
3, 211868, Note_off_c, 1, 52, 100
3, 211872, Note_on_c, 1, 64, 100
3, 211964, Note_off_c, 1, 64, 100
3, 211968, Note_on_c, 1, 49, 100
3, 212060, Note_off_c, 1, 49, 100
3, 212064, Note_on_c, 1, 64, 100
3, 212156, Note_off_c, 1, 64, 100
3, 212160, Note_on_c, 1, 52, 100
3, 212252, Note_off_c, 1, 52, 100
3, 212256, Note_on_c, 1, 64, 100
3, 212348, Note_off_c, 1, 64, 100
3, 212352, Note_on_c, 1, 49, 100
3, 212444, Note_off_c, 1, 49, 100
3, 212448, Note_on_c, 1, 64, 100
3, 212540, Note_off_c, 1, 64, 100
3, 212544, Note_on_c, 1, 52, 100
3, 212636, Note_off_c, 1, 52, 100
3, 212640, Note_on_c, 1, 64, 100
3, 212732, Note_off_c, 1, 64, 100
3, 212736, Note_on_c, 1, 48, 100
3, 212828, Note_off_c, 1, 48, 100
3, 212832, Note_on_c, 1, 64, 100
3, 212924, Note_off_c, 1, 64, 100
3, 212928, Note_on_c, 1, 50, 100
3, 213020, Note_off_c, 1, 50, 100
3, 213024, Note_on_c, 1, 64, 100
3, 213116, Note_off_c, 1, 64, 100
3, 213120, Note_on_c, 1, 48, 100
3, 213212, Note_off_c, 1, 48, 100
3, 213216, Note_on_c, 1, 64, 100
3, 213308, Note_off_c, 1, 64, 100
3, 213312, Note_on_c, 1, 50, 100
3, 213404, Note_off_c, 1, 50, 100
3, 213408, Note_on_c, 1, 64, 100
3, 213500, Note_off_c, 1, 64, 100
3, 213504, Note_on_c, 1, 47, 100
3, 213596, Note_off_c, 1, 47, 100
3, 213600, Note_on_c, 1, 62, 100
3, 213692, Note_off_c, 1, 62, 100
3, 213696, Note_on_c, 1, 50, 100
3, 213788, Note_off_c, 1, 50, 100
3, 213792, Note_on_c, 1, 62, 100
3, 213884, Note_off_c, 1, 62, 100
3, 213888, Note_on_c, 1, 47, 100
3, 213980, Note_off_c, 1, 47, 100
3, 213984, Note_on_c, 1, 62, 100
3, 214076, Note_off_c, 1, 62, 100
3, 214080, Note_on_c, 1, 50, 100
3, 214172, Note_off_c, 1, 50, 100
3, 214176, Note_on_c, 1, 62, 100
3, 214268, Note_off_c, 1, 62, 100
3, 214272, Note_on_c, 1, 47, 100
3, 214364, Note_off_c, 1, 47, 100
3, 214368, Note_on_c, 1, 61, 100
3, 214460, Note_off_c, 1, 61, 100
3, 214464, Note_on_c, 1, 49, 100
3, 214556, Note_off_c, 1, 49, 100
3, 214560, Note_on_c, 1, 61, 100
3, 214652, Note_off_c, 1, 61, 100
3, 214656, Note_on_c, 1, 47, 100
3, 214748, Note_off_c, 1, 47, 100
3, 214752, Note_on_c, 1, 61, 100
3, 214844, Note_off_c, 1, 61, 100
3, 214848, Note_on_c, 1, 49, 100
3, 214940, Note_off_c, 1, 49, 100
3, 214944, Note_on_c, 1, 61, 100
3, 215036, Note_off_c, 1, 61, 100
3, 215040, Note_on_c, 1, 46, 100
3, 215132, Note_off_c, 1, 46, 100
3, 215136, Note_on_c, 1, 61, 100
3, 215228, Note_off_c, 1, 61, 100
3, 215232, Note_on_c, 1, 49, 100
3, 215324, Note_off_c, 1, 49, 100
3, 215328, Note_on_c, 1, 61, 100
3, 215420, Note_off_c, 1, 61, 100
3, 215424, Note_on_c, 1, 46, 100
3, 215516, Note_off_c, 1, 46, 100
3, 215520, Note_on_c, 1, 61, 100
3, 215612, Note_off_c, 1, 61, 100
3, 215616, Note_on_c, 1, 49, 100
3, 215708, Note_off_c, 1, 49, 100
3, 215712, Note_on_c, 1, 61, 100
3, 215804, Note_off_c, 1, 61, 100
3, 215808, Note_on_c, 1, 45, 100
3, 215900, Note_off_c, 1, 45, 100
3, 215904, Note_on_c, 1, 59, 100
3, 215996, Note_off_c, 1, 59, 100
3, 216000, Note_on_c, 1, 47, 100
3, 216092, Note_off_c, 1, 47, 100
3, 216096, Note_on_c, 1, 59, 100
3, 216188, Note_off_c, 1, 59, 100
3, 216192, Note_on_c, 1, 45, 100
3, 216284, Note_off_c, 1, 45, 100
3, 216288, Note_on_c, 1, 59, 100
3, 216380, Note_off_c, 1, 59, 100
3, 216384, Note_on_c, 1, 47, 100
3, 216476, Note_off_c, 1, 47, 100
3, 216480, Note_on_c, 1, 59, 100
3, 216572, Note_off_c, 1, 59, 100
3, 216576, Note_on_c, 1, 44, 100
3, 216668, Note_off_c, 1, 44, 100
3, 216672, Note_on_c, 1, 59, 100
3, 216764, Note_off_c, 1, 59, 100
3, 216768, Note_on_c, 1, 47, 100
3, 216860, Note_off_c, 1, 47, 100
3, 216864, Note_on_c, 1, 59, 100
3, 216956, Note_off_c, 1, 59, 100
3, 216960, Note_on_c, 1, 44, 100
3, 217052, Note_off_c, 1, 44, 100
3, 217056, Note_on_c, 1, 59, 100
3, 217148, Note_off_c, 1, 59, 100
3, 217152, Note_on_c, 1, 47, 100
3, 217244, Note_off_c, 1, 47, 100
3, 217248, Note_on_c, 1, 59, 100
3, 217340, Note_off_c, 1, 59, 100
3, 217344, Note_on_c, 1, 43, 100
3, 217436, Note_off_c, 1, 43, 100
3, 217440, Note_on_c, 1, 57, 100
3, 217532, Note_off_c, 1, 57, 100
3, 217536, Note_on_c, 1, 45, 100
3, 217628, Note_off_c, 1, 45, 100
3, 217632, Note_on_c, 1, 57, 100
3, 217724, Note_off_c, 1, 57, 100
3, 217728, Note_on_c, 1, 43, 100
3, 217820, Note_off_c, 1, 43, 100
3, 217824, Note_on_c, 1, 57, 100
3, 217916, Note_off_c, 1, 57, 100
3, 217920, Note_on_c, 1, 45, 100
3, 218012, Note_off_c, 1, 45, 100
3, 218016, Note_on_c, 1, 57, 100
3, 218108, Note_off_c, 1, 57, 100
3, 218112, Note_on_c, 1, 42, 100
3, 218204, Note_off_c, 1, 42, 100
3, 218208, Note_on_c, 1, 57, 100
3, 218300, Note_off_c, 1, 57, 100
3, 218304, Note_on_c, 1, 45, 100
3, 218396, Note_off_c, 1, 45, 100
3, 218400, Note_on_c, 1, 57, 100
3, 218492, Note_off_c, 1, 57, 100
3, 218496, Note_on_c, 1, 42, 100
3, 218588, Note_off_c, 1, 42, 100
3, 218592, Note_on_c, 1, 57, 100
3, 218684, Note_off_c, 1, 57, 100
3, 218688, Note_on_c, 1, 45, 100
3, 218780, Note_off_c, 1, 45, 100
3, 218784, Note_on_c, 1, 57, 100
3, 218876, Note_off_c, 1, 57, 100
3, 218880, Note_on_c, 1, 38, 100
3, 218972, Note_off_c, 1, 38, 100
3, 218976, Note_on_c, 1, 57, 100
3, 219068, Note_off_c, 1, 57, 100
3, 219072, Note_on_c, 1, 45, 100
3, 219164, Note_off_c, 1, 45, 100
3, 219168, Note_on_c, 1, 57, 100
3, 219260, Note_off_c, 1, 57, 100
3, 219264, Note_on_c, 1, 39, 100
3, 219356, Note_off_c, 1, 39, 100
3, 219360, Note_on_c, 1, 57, 100
3, 219452, Note_off_c, 1, 57, 100
3, 219456, Note_on_c, 1, 45, 100
3, 219548, Note_off_c, 1, 45, 100
3, 219552, Note_on_c, 1, 57, 100
3, 219644, Note_off_c, 1, 57, 100
3, 219648, Note_on_c, 1, 40, 100
3, 219740, Note_off_c, 1, 40, 100
3, 219744, Note_on_c, 1, 45, 100
3, 219836, Note_off_c, 1, 45, 100
3, 219840, Note_on_c, 1, 49, 100
3, 219932, Note_off_c, 1, 49, 100
3, 219936, Note_on_c, 1, 52, 100
3, 220028, Note_off_c, 1, 52, 100
3, 220032, Note_on_c, 1, 40, 100
3, 220124, Note_off_c, 1, 40, 100
3, 220128, Note_on_c, 1, 45, 100
3, 220220, Note_off_c, 1, 45, 100
3, 220224, Note_on_c, 1, 49, 100
3, 220316, Note_off_c, 1, 49, 100
3, 220320, Note_on_c, 1, 52, 100
3, 220412, Note_off_c, 1, 52, 100
3, 220416, Note_on_c, 1, 40, 100
3, 220508, Note_off_c, 1, 40, 100
3, 220512, Note_on_c, 1, 47, 100
3, 220604, Note_off_c, 1, 47, 100
3, 220608, Note_on_c, 1, 50, 100
3, 220700, Note_off_c, 1, 50, 100
3, 220704, Note_on_c, 1, 52, 100
3, 220796, Note_off_c, 1, 52, 100
3, 220800, Note_on_c, 1, 40, 100
3, 220892, Note_off_c, 1, 40, 100
3, 220896, Note_on_c, 1, 47, 100
3, 220988, Note_off_c, 1, 47, 100
3, 220992, Note_on_c, 1, 50, 100
3, 221084, Note_off_c, 1, 50, 100
3, 221088, Note_on_c, 1, 52, 100
3, 221180, Note_off_c, 1, 52, 100
3, 221248, Note_on_c, 1, 45, 80
3, 221312, Note_on_c, 1, 49, 80
3, 221372, Note_off_c, 1, 45, 100
3, 221376, Note_on_c, 1, 52, 80
3, 221436, Note_off_c, 1, 49, 100
3, 221440, Note_on_c, 1, 57, 80
3, 221500, Note_off_c, 1, 52, 100
3, 221504, Note_on_c, 1, 61, 80
3, 221564, Note_off_c, 1, 57, 100
3, 221628, Note_off_c, 1, 61, 100
3, 221952, Note_on_c, 1, 57, 80
3, 222140, Note_off_c, 1, 57, 100
3, 222144, Note_on_c, 1, 64, 80
3, 222332, Note_off_c, 1, 64, 100
3, 222336, Note_on_c, 1, 61, 80
3, 222524, Note_off_c, 1, 61, 100
3, 222528, Note_on_c, 1, 64, 80
3, 222716, Note_off_c, 1, 64, 100
3, 222720, Note_on_c, 1, 59, 80
3, 222908, Note_off_c, 1, 59, 100
3, 222912, Note_on_c, 1, 64, 80
3, 223100, Note_off_c, 1, 64, 100
3, 223104, Note_on_c, 1, 62, 80
3, 223292, Note_off_c, 1, 62, 100
3, 223296, Note_on_c, 1, 64, 80
3, 223484, Note_off_c, 1, 64, 100
3, 223488, Note_on_c, 1, 59, 80
3, 223676, Note_off_c, 1, 59, 100
3, 223680, Note_on_c, 1, 64, 80
3, 223868, Note_off_c, 1, 64, 100
3, 223872, Note_on_c, 1, 62, 80
3, 224060, Note_off_c, 1, 62, 100
3, 224064, Note_on_c, 1, 64, 80
3, 224252, Note_off_c, 1, 64, 100
3, 224256, Note_on_c, 1, 61, 80
3, 224444, Note_off_c, 1, 61, 100
3, 224448, Note_on_c, 1, 64, 80
3, 224636, Note_off_c, 1, 64, 100
3, 224640, Note_on_c, 1, 56, 80
3, 224828, Note_off_c, 1, 56, 100
3, 224832, Note_on_c, 1, 64, 80
3, 225020, Note_off_c, 1, 64, 100
3, 225024, Note_on_c, 1, 57, 80
3, 225212, Note_off_c, 1, 57, 100
3, 225216, Note_on_c, 1, 64, 80
3, 225404, Note_off_c, 1, 64, 100
3, 225408, Note_on_c, 1, 54, 80
3, 225596, Note_off_c, 1, 54, 100
3, 225600, Note_on_c, 1, 57, 80
3, 225788, Note_off_c, 1, 57, 100
3, 225792, Note_on_c, 1, 52, 80
3, 225980, Note_off_c, 1, 52, 100
3, 225984, Note_on_c, 1, 61, 80
3, 226172, Note_off_c, 1, 61, 100
3, 226176, Note_on_c, 1, 57, 80
3, 226364, Note_off_c, 1, 57, 100
3, 226368, Note_on_c, 1, 61, 80
3, 226556, Note_off_c, 1, 61, 100
3, 226560, Note_on_c, 1, 52, 80
3, 226748, Note_off_c, 1, 52, 100
3, 226752, Note_on_c, 1, 56, 80
3, 226940, Note_off_c, 1, 56, 100
3, 226944, Note_on_c, 1, 50, 80
3, 227132, Note_off_c, 1, 50, 100
3, 227136, Note_on_c, 1, 56, 80
3, 227324, Note_off_c, 1, 56, 100
3, 227328, Note_on_c, 1, 49, 80
3, 227516, Note_off_c, 1, 49, 100
3, 227520, Note_on_c, 1, 57, 80
3, 227708, Note_off_c, 1, 57, 100
3, 227712, Note_on_c, 1, 52, 80
3, 227900, Note_off_c, 1, 52, 100
3, 227904, Note_on_c, 1, 57, 80
3, 228092, Note_off_c, 1, 57, 100
3, 228096, Note_on_c, 1, 49, 80
3, 228284, Note_off_c, 1, 49, 100
3, 228288, Note_on_c, 1, 57, 80
3, 228476, Note_off_c, 1, 57, 100
3, 228480, Note_on_c, 1, 52, 80
3, 228668, Note_off_c, 1, 52, 100
3, 228672, Note_on_c, 1, 57, 80
3, 228860, Note_off_c, 1, 57, 100
3, 228864, Note_on_c, 1, 49, 80
3, 229052, Note_off_c, 1, 49, 100
3, 229056, Note_on_c, 1, 58, 80
3, 229244, Note_off_c, 1, 58, 100
3, 229248, Note_on_c, 1, 52, 80
3, 229436, Note_off_c, 1, 52, 100
3, 229440, Note_on_c, 1, 58, 80
3, 229628, Note_off_c, 1, 58, 100
3, 229632, Note_on_c, 1, 48, 80
3, 229820, Note_off_c, 1, 48, 100
3, 229824, Note_on_c, 1, 58, 80
3, 230012, Note_off_c, 1, 58, 100
3, 230016, Note_on_c, 1, 52, 80
3, 230204, Note_off_c, 1, 52, 100
3, 230208, Note_on_c, 1, 58, 80
3, 230396, Note_off_c, 1, 58, 100
3, 230400, Note_on_c, 1, 48, 80
3, 230588, Note_off_c, 1, 48, 100
3, 230592, Note_on_c, 1, 57, 80
3, 230780, Note_off_c, 1, 57, 100
3, 230784, Note_on_c, 1, 53, 80
3, 230972, Note_off_c, 1, 53, 100
3, 230976, Note_on_c, 1, 57, 80
3, 231164, Note_off_c, 1, 57, 100
3, 231168, Note_on_c, 1, 48, 80
3, 231356, Note_off_c, 1, 48, 100
3, 231360, Note_on_c, 1, 57, 80
3, 231548, Note_off_c, 1, 57, 100
3, 231552, Note_on_c, 1, 53, 80
3, 231740, Note_off_c, 1, 53, 100
3, 231744, Note_on_c, 1, 57, 80
3, 231932, Note_off_c, 1, 57, 100
3, 231936, Note_on_c, 1, 48, 80
3, 232124, Note_off_c, 1, 48, 100
3, 232128, Note_on_c, 1, 58, 80
3, 232316, Note_off_c, 1, 58, 100
3, 232320, Note_on_c, 1, 55, 80
3, 232508, Note_off_c, 1, 55, 100
3, 232512, Note_on_c, 1, 58, 80
3, 232700, Note_off_c, 1, 58, 100
3, 232704, Note_on_c, 1, 48, 80
3, 232892, Note_off_c, 1, 48, 100
3, 232896, Note_on_c, 1, 58, 80
3, 233084, Note_off_c, 1, 58, 100
3, 233088, Note_on_c, 1, 52, 80
3, 233276, Note_off_c, 1, 52, 100
3, 233280, Note_on_c, 1, 58, 80
3, 233468, Note_off_c, 1, 58, 100
3, 233472, Note_on_c, 1, 48, 80
3, 233660, Note_off_c, 1, 48, 100
3, 233664, Note_on_c, 1, 57, 80
3, 233852, Note_off_c, 1, 57, 100
3, 233856, Note_on_c, 1, 53, 80
3, 234044, Note_off_c, 1, 53, 100
3, 234048, Note_on_c, 1, 57, 80
3, 234236, Note_off_c, 1, 57, 100
3, 234240, Note_on_c, 1, 48, 80
3, 234428, Note_off_c, 1, 48, 100
3, 234432, Note_on_c, 1, 57, 80
3, 234620, Note_off_c, 1, 57, 100
3, 234624, Note_on_c, 1, 53, 80
3, 234812, Note_off_c, 1, 53, 100
3, 234816, Note_on_c, 1, 57, 80
3, 235004, Note_off_c, 1, 57, 100
3, 235008, Note_on_c, 1, 48, 80
3, 235196, Note_off_c, 1, 48, 100
3, 235200, Note_on_c, 1, 58, 80
3, 235388, Note_off_c, 1, 58, 100
3, 235392, Note_on_c, 1, 55, 80
3, 235580, Note_off_c, 1, 55, 100
3, 235584, Note_on_c, 1, 58, 80
3, 235772, Note_off_c, 1, 58, 100
3, 235776, Note_on_c, 1, 48, 80
3, 235964, Note_off_c, 1, 48, 100
3, 235968, Note_on_c, 1, 58, 80
3, 236156, Note_off_c, 1, 58, 100
3, 236160, Note_on_c, 1, 52, 80
3, 236348, Note_off_c, 1, 52, 100
3, 236352, Note_on_c, 1, 58, 80
3, 236540, Note_off_c, 1, 58, 100
3, 236544, Note_on_c, 1, 49, 80
3, 236732, Note_off_c, 1, 49, 100
3, 236736, Note_on_c, 1, 58, 82
3, 236924, Note_off_c, 1, 58, 100
3, 236928, Note_on_c, 1, 52, 85
3, 237116, Note_off_c, 1, 52, 100
3, 237120, Note_on_c, 1, 58, 88
3, 237308, Note_off_c, 1, 58, 100
3, 237312, Note_on_c, 1, 49, 91
3, 237500, Note_off_c, 1, 49, 100
3, 237504, Note_on_c, 1, 58, 94
3, 237692, Note_off_c, 1, 58, 100
3, 237696, Note_on_c, 1, 52, 97
3, 237884, Note_off_c, 1, 52, 100
3, 237888, Note_on_c, 1, 58, 99
3, 238076, Note_off_c, 1, 58, 100
3, 238080, Note_on_c, 1, 50, 90
3, 238268, Note_off_c, 1, 50, 100
3, 238272, Note_on_c, 1, 59, 88
3, 238460, Note_off_c, 1, 59, 100
3, 238464, Note_on_c, 1, 54, 85
3, 238652, Note_off_c, 1, 54, 100
3, 238656, Note_on_c, 1, 59, 82
3, 238844, Note_off_c, 1, 59, 100
3, 238848, Note_on_c, 1, 50, 79
3, 239036, Note_off_c, 1, 50, 100
3, 239040, Note_on_c, 1, 59, 76
3, 239228, Note_off_c, 1, 59, 100
3, 239232, Note_on_c, 1, 54, 73
3, 239420, Note_off_c, 1, 54, 100
3, 239424, Note_on_c, 1, 59, 71
3, 239612, Note_off_c, 1, 59, 100
3, 239616, Note_on_c, 1, 52, 70
3, 239804, Note_off_c, 1, 52, 100
3, 239808, Note_on_c, 1, 61, 70
3, 239996, Note_off_c, 1, 61, 100
3, 240000, Note_on_c, 1, 57, 70
3, 240188, Note_off_c, 1, 57, 100
3, 240192, Note_on_c, 1, 61, 70
3, 240380, Note_off_c, 1, 61, 100
3, 240384, Note_on_c, 1, 52, 70
3, 240572, Note_off_c, 1, 52, 100
3, 240576, Note_on_c, 1, 62, 70
3, 240764, Note_off_c, 1, 62, 100
3, 240768, Note_on_c, 1, 56, 70
3, 240956, Note_off_c, 1, 56, 100
3, 240960, Note_on_c, 1, 62, 70
3, 241148, Note_off_c, 1, 62, 100
3, 241152, Note_on_c, 1, 57, 70
3, 241152, Note_on_c, 1, 61, 70
3, 241532, Note_off_c, 1, 57, 100
3, 241532, Note_off_c, 1, 61, 100
3, 241536, Note_on_c, 1, 33, 100
3, 241600, Note_on_c, 1, 37, 100
3, 241660, Note_off_c, 1, 33, 100
3, 241664, Note_on_c, 1, 40, 100
3, 241724, Note_off_c, 1, 37, 100
3, 241728, Note_on_c, 1, 45, 100
3, 241788, Note_off_c, 1, 40, 100
3, 241792, Note_on_c, 1, 49, 100
3, 241852, Note_off_c, 1, 45, 100
3, 241856, Note_on_c, 1, 52, 100
3, 241916, Note_off_c, 1, 49, 100
3, 241916, Note_off_c, 1, 52, 100
3, 241920, Note_on_c, 1, 57, 100
3, 242300, Note_off_c, 1, 57, 100
3, 242304, Note_on_c, 1, 57, 100
3, 242684, Note_off_c, 1, 57, 100
3, 242688, Note_on_c, 1, 56, 100
3, 242688, Note_on_c, 1, 64, 100
3, 242688, Note_on_c, 1, 62, 100
3, 242688, Note_on_c, 1, 59, 100
3, 242876, Note_off_c, 1, 64, 100
3, 242876, Note_off_c, 1, 62, 100
3, 242876, Note_off_c, 1, 59, 100
3, 242880, Note_on_c, 1, 64, 100
3, 242880, Note_on_c, 1, 62, 100
3, 242880, Note_on_c, 1, 59, 100
3, 243068, Note_off_c, 1, 56, 100
3, 243068, Note_off_c, 1, 64, 100
3, 243068, Note_off_c, 1, 62, 100
3, 243068, Note_off_c, 1, 59, 100
3, 243072, Note_on_c, 1, 62, 100
3, 243072, Note_on_c, 1, 59, 100
3, 243072, Note_on_c, 1, 64, 100
3, 243260, Note_off_c, 1, 62, 100
3, 243260, Note_off_c, 1, 59, 100
3, 243260, Note_off_c, 1, 64, 100
3, 243264, Note_on_c, 1, 64, 100
3, 243264, Note_on_c, 1, 62, 100
3, 243264, Note_on_c, 1, 59, 100
3, 243452, Note_off_c, 1, 64, 100
3, 243452, Note_off_c, 1, 62, 100
3, 243452, Note_off_c, 1, 59, 100
3, 243456, Note_on_c, 1, 64, 100
3, 243456, Note_on_c, 1, 59, 100
3, 243456, Note_on_c, 1, 56, 100
3, 243644, Note_off_c, 1, 64, 100
3, 243644, Note_off_c, 1, 59, 100
3, 243644, Note_off_c, 1, 56, 100
3, 243648, Note_on_c, 1, 64, 100
3, 243648, Note_on_c, 1, 59, 100
3, 243648, Note_on_c, 1, 56, 100
3, 243836, Note_off_c, 1, 64, 100
3, 243836, Note_off_c, 1, 59, 100
3, 243836, Note_off_c, 1, 56, 100
3, 243840, Note_on_c, 1, 64, 100
3, 243840, Note_on_c, 1, 59, 100
3, 243840, Note_on_c, 1, 56, 100
3, 244028, Note_off_c, 1, 64, 100
3, 244028, Note_off_c, 1, 59, 100
3, 244028, Note_off_c, 1, 56, 100
3, 244032, Note_on_c, 1, 64, 100
3, 244032, Note_on_c, 1, 59, 100
3, 244032, Note_on_c, 1, 56, 100
3, 244220, Note_off_c, 1, 64, 100
3, 244220, Note_off_c, 1, 59, 100
3, 244220, Note_off_c, 1, 56, 100
3, 244224, Note_on_c, 1, 64, 100
3, 244224, Note_on_c, 1, 61, 100
3, 244224, Note_on_c, 1, 57, 100
3, 244412, Note_off_c, 1, 64, 100
3, 244412, Note_off_c, 1, 61, 100
3, 244412, Note_off_c, 1, 57, 100
3, 244416, Note_on_c, 1, 64, 100
3, 244416, Note_on_c, 1, 61, 100
3, 244416, Note_on_c, 1, 57, 100
3, 244604, Note_off_c, 1, 64, 100
3, 244604, Note_off_c, 1, 61, 100
3, 244604, Note_off_c, 1, 57, 100
3, 244608, Note_on_c, 1, 33, 100
3, 244672, Note_on_c, 1, 37, 100
3, 244732, Note_off_c, 1, 33, 100
3, 244736, Note_on_c, 1, 40, 100
3, 244796, Note_off_c, 1, 37, 100
3, 244800, Note_on_c, 1, 45, 100
3, 244860, Note_off_c, 1, 40, 100
3, 244864, Note_on_c, 1, 49, 100
3, 244924, Note_off_c, 1, 45, 100
3, 244928, Note_on_c, 1, 52, 100
3, 244988, Note_off_c, 1, 49, 100
3, 244988, Note_off_c, 1, 52, 100
3, 244992, Note_on_c, 1, 57, 100
3, 245372, Note_off_c, 1, 57, 100
3, 245376, Note_on_c, 1, 57, 100
3, 245756, Note_off_c, 1, 57, 100
3, 245760, Note_on_c, 1, 56, 100
3, 245760, Note_on_c, 1, 64, 100
3, 245760, Note_on_c, 1, 62, 100
3, 245760, Note_on_c, 1, 59, 100
3, 245948, Note_off_c, 1, 64, 100
3, 245948, Note_off_c, 1, 62, 100
3, 245948, Note_off_c, 1, 59, 100
3, 245952, Note_on_c, 1, 64, 100
3, 245952, Note_on_c, 1, 62, 100
3, 245952, Note_on_c, 1, 59, 100
3, 246140, Note_off_c, 1, 56, 100
3, 246140, Note_off_c, 1, 64, 100
3, 246140, Note_off_c, 1, 62, 100
3, 246140, Note_off_c, 1, 59, 100
3, 246144, Note_on_c, 1, 62, 100
3, 246144, Note_on_c, 1, 59, 100
3, 246144, Note_on_c, 1, 64, 100
3, 246332, Note_off_c, 1, 62, 100
3, 246332, Note_off_c, 1, 59, 100
3, 246332, Note_off_c, 1, 64, 100
3, 246336, Note_on_c, 1, 64, 100
3, 246336, Note_on_c, 1, 62, 100
3, 246336, Note_on_c, 1, 59, 100
3, 246524, Note_off_c, 1, 64, 100
3, 246524, Note_off_c, 1, 62, 100
3, 246524, Note_off_c, 1, 59, 100
3, 246528, Note_on_c, 1, 64, 100
3, 246528, Note_on_c, 1, 59, 100
3, 246528, Note_on_c, 1, 56, 100
3, 246716, Note_off_c, 1, 64, 100
3, 246716, Note_off_c, 1, 59, 100
3, 246716, Note_off_c, 1, 56, 100
3, 246720, Note_on_c, 1, 64, 100
3, 246720, Note_on_c, 1, 59, 100
3, 246720, Note_on_c, 1, 56, 100
3, 246908, Note_off_c, 1, 64, 100
3, 246908, Note_off_c, 1, 59, 100
3, 246908, Note_off_c, 1, 56, 100
3, 246912, Note_on_c, 1, 64, 100
3, 246912, Note_on_c, 1, 59, 100
3, 246912, Note_on_c, 1, 56, 100
3, 247100, Note_off_c, 1, 64, 100
3, 247100, Note_off_c, 1, 59, 100
3, 247100, Note_off_c, 1, 56, 100
3, 247104, Note_on_c, 1, 64, 100
3, 247104, Note_on_c, 1, 59, 100
3, 247104, Note_on_c, 1, 56, 100
3, 247292, Note_off_c, 1, 64, 100
3, 247292, Note_off_c, 1, 59, 100
3, 247292, Note_off_c, 1, 56, 100
3, 247296, Note_on_c, 1, 64, 100
3, 247296, Note_on_c, 1, 61, 100
3, 247296, Note_on_c, 1, 57, 100
3, 247484, Note_off_c, 1, 64, 100
3, 247484, Note_off_c, 1, 61, 100
3, 247484, Note_off_c, 1, 57, 100
3, 247488, Note_on_c, 1, 64, 100
3, 247488, Note_on_c, 1, 61, 100
3, 247488, Note_on_c, 1, 57, 100
3, 247676, Note_off_c, 1, 64, 100
3, 247676, Note_off_c, 1, 61, 100
3, 247676, Note_off_c, 1, 57, 100
3, 247680, Note_on_c, 1, 33, 100
3, 247744, Note_on_c, 1, 37, 100
3, 247804, Note_off_c, 1, 33, 100
3, 247808, Note_on_c, 1, 40, 100
3, 247868, Note_off_c, 1, 37, 100
3, 247872, Note_on_c, 1, 45, 100
3, 247932, Note_off_c, 1, 40, 100
3, 247936, Note_on_c, 1, 49, 100
3, 247996, Note_off_c, 1, 45, 100
3, 248000, Note_on_c, 1, 52, 100
3, 248060, Note_off_c, 1, 49, 100
3, 248060, Note_off_c, 1, 52, 100
3, 248064, Note_on_c, 1, 57, 100
3, 248444, Note_off_c, 1, 57, 100
3, 248448, Note_on_c, 1, 57, 100
3, 248828, Note_off_c, 1, 57, 100
3, 248832, Note_on_c, 1, 57, 100
3, 248832, Note_on_c, 1, 55, 100
3, 249020, Note_off_c, 1, 57, 100
3, 249020, Note_off_c, 1, 55, 100
3, 249024, Note_on_c, 1, 57, 100
3, 249024, Note_on_c, 1, 55, 100
3, 249212, Note_off_c, 1, 57, 100
3, 249212, Note_off_c, 1, 55, 100
3, 249216, Note_on_c, 1, 57, 100
3, 249216, Note_on_c, 1, 55, 100
3, 249404, Note_off_c, 1, 57, 100
3, 249404, Note_off_c, 1, 55, 100
3, 249408, Note_on_c, 1, 57, 100
3, 249408, Note_on_c, 1, 55, 100
3, 249596, Note_off_c, 1, 57, 100
3, 249596, Note_off_c, 1, 55, 100
3, 249600, Note_on_c, 1, 55, 100
3, 249600, Note_on_c, 1, 57, 100
3, 249600, Note_on_c, 1, 61, 100
3, 249788, Note_off_c, 1, 55, 100
3, 249788, Note_off_c, 1, 57, 100
3, 249788, Note_off_c, 1, 61, 100
3, 249792, Note_on_c, 1, 55, 100
3, 249792, Note_on_c, 1, 57, 100
3, 249792, Note_on_c, 1, 61, 100
3, 249980, Note_off_c, 1, 55, 100
3, 249980, Note_off_c, 1, 57, 100
3, 249980, Note_off_c, 1, 61, 100
3, 249984, Note_on_c, 1, 55, 100
3, 249984, Note_on_c, 1, 57, 100
3, 249984, Note_on_c, 1, 61, 100
3, 250172, Note_off_c, 1, 55, 100
3, 250172, Note_off_c, 1, 57, 100
3, 250172, Note_off_c, 1, 61, 100
3, 250176, Note_on_c, 1, 55, 100
3, 250176, Note_on_c, 1, 57, 100
3, 250176, Note_on_c, 1, 61, 100
3, 250364, Note_off_c, 1, 55, 100
3, 250364, Note_off_c, 1, 57, 100
3, 250364, Note_off_c, 1, 61, 100
3, 250368, Note_on_c, 1, 54, 100
3, 250368, Note_on_c, 1, 57, 100
3, 250556, Note_off_c, 1, 54, 100
3, 250556, Note_off_c, 1, 57, 100
3, 250560, Note_on_c, 1, 54, 100
3, 250560, Note_on_c, 1, 57, 100
3, 250748, Note_off_c, 1, 54, 100
3, 250748, Note_off_c, 1, 57, 100
3, 250752, Note_on_c, 1, 54, 100
3, 250752, Note_on_c, 1, 57, 100
3, 250940, Note_off_c, 1, 54, 100
3, 250940, Note_off_c, 1, 57, 100
3, 250944, Note_on_c, 1, 54, 100
3, 250944, Note_on_c, 1, 57, 100
3, 251132, Note_off_c, 1, 54, 100
3, 251132, Note_off_c, 1, 57, 100
3, 251136, Note_on_c, 1, 53, 100
3, 251136, Note_on_c, 1, 57, 100
3, 251324, Note_off_c, 1, 53, 100
3, 251324, Note_off_c, 1, 57, 100
3, 251328, Note_on_c, 1, 53, 100
3, 251328, Note_on_c, 1, 57, 100
3, 251516, Note_off_c, 1, 53, 100
3, 251516, Note_off_c, 1, 57, 100
3, 251520, Note_on_c, 1, 53, 100
3, 251520, Note_on_c, 1, 57, 100
3, 251708, Note_off_c, 1, 53, 100
3, 251708, Note_off_c, 1, 57, 100
3, 251712, Note_on_c, 1, 53, 100
3, 251712, Note_on_c, 1, 57, 100
3, 251900, Note_off_c, 1, 53, 100
3, 251900, Note_off_c, 1, 57, 100
3, 251904, Note_on_c, 1, 52, 100
3, 252092, Note_off_c, 1, 52, 100
3, 252096, Note_on_c, 1, 52, 100
3, 252284, Note_off_c, 1, 52, 100
3, 252288, Note_on_c, 1, 40, 100
3, 252476, Note_off_c, 1, 40, 100
3, 252480, Note_on_c, 1, 52, 100
3, 252668, Note_off_c, 1, 52, 100
3, 252672, Note_on_c, 1, 40, 100
3, 252860, Note_off_c, 1, 40, 100
3, 252864, Note_on_c, 1, 52, 100
3, 253052, Note_off_c, 1, 52, 100
3, 253056, Note_on_c, 1, 40, 100
3, 253244, Note_off_c, 1, 40, 100
3, 253248, Note_on_c, 1, 52, 100
3, 253436, Note_off_c, 1, 52, 100
3, 253440, Note_on_c, 1, 45, 100
3, 253628, Note_off_c, 1, 45, 100
3, 253632, Note_on_c, 1, 57, 100
3, 253820, Note_off_c, 1, 57, 100
3, 253824, Note_on_c, 1, 57, 100
3, 254012, Note_off_c, 1, 57, 100
3, 254016, Note_on_c, 1, 57, 100
3, 254204, Note_off_c, 1, 57, 100
3, 254208, Note_on_c, 1, 55, 100
3, 254208, Note_on_c, 1, 57, 100
3, 254208, Note_on_c, 1, 61, 100
3, 254396, Note_off_c, 1, 55, 100
3, 254396, Note_off_c, 1, 57, 100
3, 254396, Note_off_c, 1, 61, 100
3, 254400, Note_on_c, 1, 55, 100
3, 254400, Note_on_c, 1, 57, 100
3, 254400, Note_on_c, 1, 61, 100
3, 254588, Note_off_c, 1, 55, 100
3, 254588, Note_off_c, 1, 57, 100
3, 254588, Note_off_c, 1, 61, 100
3, 254592, Note_on_c, 1, 55, 100
3, 254592, Note_on_c, 1, 57, 100
3, 254592, Note_on_c, 1, 61, 100
3, 254780, Note_off_c, 1, 55, 100
3, 254780, Note_off_c, 1, 57, 100
3, 254780, Note_off_c, 1, 61, 100
3, 254784, Note_on_c, 1, 55, 100
3, 254784, Note_on_c, 1, 57, 100
3, 254784, Note_on_c, 1, 61, 100
3, 254972, Note_off_c, 1, 55, 100
3, 254972, Note_off_c, 1, 57, 100
3, 254972, Note_off_c, 1, 61, 100
3, 254976, Note_on_c, 1, 54, 110
3, 254976, Note_on_c, 1, 57, 110
3, 255164, Note_off_c, 1, 54, 100
3, 255164, Note_off_c, 1, 57, 100
3, 255168, Note_on_c, 1, 54, 110
3, 255168, Note_on_c, 1, 57, 110
3, 255356, Note_off_c, 1, 54, 100
3, 255356, Note_off_c, 1, 57, 100
3, 255360, Note_on_c, 1, 54, 110
3, 255360, Note_on_c, 1, 57, 110
3, 255548, Note_off_c, 1, 54, 100
3, 255548, Note_off_c, 1, 57, 100
3, 255552, Note_on_c, 1, 54, 110
3, 255552, Note_on_c, 1, 57, 110
3, 255740, Note_off_c, 1, 54, 100
3, 255740, Note_off_c, 1, 57, 100
3, 255744, Note_on_c, 1, 54, 110
3, 255744, Note_on_c, 1, 57, 110
3, 255932, Note_off_c, 1, 54, 100
3, 255932, Note_off_c, 1, 57, 100
3, 255936, Note_on_c, 1, 54, 110
3, 255936, Note_on_c, 1, 57, 110
3, 256124, Note_off_c, 1, 54, 100
3, 256124, Note_off_c, 1, 57, 100
3, 256128, Note_on_c, 1, 54, 110
3, 256128, Note_on_c, 1, 57, 110
3, 256316, Note_off_c, 1, 54, 100
3, 256316, Note_off_c, 1, 57, 100
3, 256320, Note_on_c, 1, 54, 110
3, 256320, Note_on_c, 1, 57, 110
3, 256508, Note_off_c, 1, 54, 100
3, 256508, Note_off_c, 1, 57, 100
3, 256512, Note_on_c, 1, 60, 110
3, 256512, Note_on_c, 1, 57, 110
3, 256512, Note_on_c, 1, 53, 110
3, 256700, Note_off_c, 1, 60, 100
3, 256700, Note_off_c, 1, 57, 100
3, 256700, Note_off_c, 1, 53, 100
3, 256704, Note_on_c, 1, 60, 110
3, 256704, Note_on_c, 1, 57, 110
3, 256704, Note_on_c, 1, 53, 110
3, 256892, Note_off_c, 1, 60, 100
3, 256892, Note_off_c, 1, 57, 100
3, 256892, Note_off_c, 1, 53, 100
3, 256896, Note_on_c, 1, 60, 110
3, 256896, Note_on_c, 1, 57, 110
3, 256896, Note_on_c, 1, 53, 110
3, 257084, Note_off_c, 1, 60, 100
3, 257084, Note_off_c, 1, 57, 100
3, 257084, Note_off_c, 1, 53, 100
3, 257088, Note_on_c, 1, 60, 110
3, 257088, Note_on_c, 1, 57, 110
3, 257088, Note_on_c, 1, 53, 110
3, 257276, Note_off_c, 1, 60, 100
3, 257276, Note_off_c, 1, 57, 100
3, 257276, Note_off_c, 1, 53, 100
3, 257280, Note_on_c, 1, 60, 110
3, 257280, Note_on_c, 1, 57, 110
3, 257280, Note_on_c, 1, 53, 110
3, 257468, Note_off_c, 1, 60, 100
3, 257468, Note_off_c, 1, 57, 100
3, 257468, Note_off_c, 1, 53, 100
3, 257472, Note_on_c, 1, 60, 110
3, 257472, Note_on_c, 1, 57, 110
3, 257472, Note_on_c, 1, 53, 110
3, 257660, Note_off_c, 1, 60, 100
3, 257660, Note_off_c, 1, 57, 100
3, 257660, Note_off_c, 1, 53, 100
3, 257664, Note_on_c, 1, 60, 110
3, 257664, Note_on_c, 1, 53, 110
3, 257664, Note_on_c, 1, 63, 110
3, 257852, Note_off_c, 1, 60, 100
3, 257852, Note_off_c, 1, 53, 100
3, 257852, Note_off_c, 1, 63, 100
3, 257856, Note_on_c, 1, 60, 110
3, 257856, Note_on_c, 1, 53, 110
3, 257856, Note_on_c, 1, 63, 110
3, 258044, Note_off_c, 1, 60, 100
3, 258044, Note_off_c, 1, 53, 100
3, 258044, Note_off_c, 1, 63, 100
3, 258048, Note_on_c, 1, 53, 110
3, 258048, Note_on_c, 1, 58, 110
3, 258048, Note_on_c, 1, 62, 110
3, 258812, Note_off_c, 1, 58, 100
3, 258812, Note_off_c, 1, 62, 100
3, 258816, Note_on_c, 1, 60, 112
3, 258816, Note_on_c, 1, 63, 112
3, 259580, Note_off_c, 1, 53, 100
3, 259580, Note_off_c, 1, 60, 100
3, 259580, Note_off_c, 1, 63, 100
3, 259584, Note_on_c, 1, 62, 115
3, 259584, Note_on_c, 1, 58, 115
3, 259584, Note_on_c, 1, 53, 115
3, 260348, Note_off_c, 1, 62, 100
3, 260348, Note_off_c, 1, 58, 100
3, 260348, Note_off_c, 1, 53, 100
3, 260352, Note_on_c, 1, 51, 117
3, 260352, Note_on_c, 1, 48, 117
3, 260352, Note_on_c, 1, 41, 117
3, 261116, Note_off_c, 1, 51, 100
3, 261116, Note_off_c, 1, 48, 100
3, 261116, Note_off_c, 1, 41, 100
3, 261120, Note_on_c, 1, 50, 120
3, 261120, Note_on_c, 1, 46, 120
3, 261120, Note_on_c, 1, 41, 120
3, 262268, Note_off_c, 1, 50, 100
3, 262268, Note_off_c, 1, 46, 100
3, 262268, Note_off_c, 1, 41, 100
3, 262272, Note_on_c, 1, 50, 120
3, 262272, Note_on_c, 1, 46, 120
3, 262272, Note_on_c, 1, 41, 120
3, 262556, Note_off_c, 1, 50, 100
3, 262556, Note_off_c, 1, 46, 100
3, 262556, Note_off_c, 1, 41, 100
3, 262560, Note_on_c, 1, 50, 120
3, 262560, Note_on_c, 1, 46, 120
3, 262560, Note_on_c, 1, 41, 120
3, 262652, Note_off_c, 1, 50, 100
3, 262652, Note_off_c, 1, 46, 100
3, 262652, Note_off_c, 1, 41, 100
3, 262656, Note_on_c, 1, 51, 120
3, 262656, Note_on_c, 1, 48, 120
3, 262656, Note_on_c, 1, 41, 120
3, 263804, Note_off_c, 1, 51, 100
3, 263804, Note_off_c, 1, 48, 100
3, 263804, Note_off_c, 1, 41, 100
3, 263808, Note_on_c, 1, 51, 120
3, 263808, Note_on_c, 1, 48, 120
3, 263808, Note_on_c, 1, 41, 120
3, 264092, Note_off_c, 1, 51, 100
3, 264092, Note_off_c, 1, 48, 100
3, 264092, Note_off_c, 1, 41, 100
3, 264096, Note_on_c, 1, 51, 120
3, 264096, Note_on_c, 1, 48, 120
3, 264096, Note_on_c, 1, 41, 120
3, 264188, Note_off_c, 1, 51, 100
3, 264188, Note_off_c, 1, 48, 100
3, 264188, Note_off_c, 1, 41, 100
3, 264192, Note_on_c, 1, 50, 120
3, 264192, Note_on_c, 1, 46, 120
3, 264192, Note_on_c, 1, 41, 120
3, 265340, Note_off_c, 1, 50, 100
3, 265340, Note_off_c, 1, 46, 100
3, 265340, Note_off_c, 1, 41, 100
3, 265344, Note_on_c, 1, 50, 120
3, 265344, Note_on_c, 1, 46, 120
3, 265344, Note_on_c, 1, 41, 120
3, 265628, Note_off_c, 1, 50, 100
3, 265628, Note_off_c, 1, 46, 100
3, 265628, Note_off_c, 1, 41, 100
3, 265632, Note_on_c, 1, 50, 120
3, 265632, Note_on_c, 1, 46, 120
3, 265632, Note_on_c, 1, 41, 120
3, 265724, Note_off_c, 1, 50, 100
3, 265724, Note_off_c, 1, 46, 100
3, 265724, Note_off_c, 1, 41, 100
3, 265728, Note_on_c, 1, 50, 120
3, 265728, Note_on_c, 1, 48, 120
3, 265728, Note_on_c, 1, 45, 120
3, 265728, Note_on_c, 1, 42, 120
3, 266876, Note_off_c, 1, 50, 100
3, 266876, Note_off_c, 1, 48, 100
3, 266876, Note_off_c, 1, 45, 100
3, 266876, Note_off_c, 1, 42, 100
3, 266880, Note_on_c, 1, 50, 120
3, 266880, Note_on_c, 1, 48, 120
3, 266880, Note_on_c, 1, 45, 120
3, 266880, Note_on_c, 1, 42, 120
3, 267164, Note_off_c, 1, 50, 100
3, 267164, Note_off_c, 1, 48, 100
3, 267164, Note_off_c, 1, 45, 100
3, 267164, Note_off_c, 1, 42, 100
3, 267168, Note_on_c, 1, 50, 120
3, 267168, Note_on_c, 1, 48, 120
3, 267168, Note_on_c, 1, 45, 120
3, 267168, Note_on_c, 1, 42, 120
3, 267260, Note_off_c, 1, 50, 100
3, 267260, Note_off_c, 1, 48, 100
3, 267260, Note_off_c, 1, 45, 100
3, 267260, Note_off_c, 1, 42, 100
3, 267264, Note_on_c, 1, 52, 120
3, 267264, Note_on_c, 1, 47, 120
3, 267264, Note_on_c, 1, 44, 120
3, 267264, Note_on_c, 1, 40, 120
3, 267644, Note_off_c, 1, 52, 100
3, 267644, Note_off_c, 1, 47, 100
3, 267644, Note_off_c, 1, 44, 100
3, 267644, Note_off_c, 1, 40, 100
3, 267648, Note_on_c, 1, 59, 120
3, 267648, Note_on_c, 1, 56, 120
3, 267648, Note_on_c, 1, 52, 120
3, 268028, Note_off_c, 1, 59, 100
3, 268028, Note_off_c, 1, 56, 100
3, 268028, Note_off_c, 1, 52, 100
3, 268416, Note_on_c, 1, 59, 120
3, 268416, Note_on_c, 1, 56, 120
3, 268416, Note_on_c, 1, 52, 120
3, 268700, Note_off_c, 1, 59, 100
3, 268700, Note_off_c, 1, 56, 100
3, 268700, Note_off_c, 1, 52, 100
3, 268704, Note_on_c, 1, 59, 120
3, 268704, Note_on_c, 1, 56, 120
3, 268704, Note_on_c, 1, 52, 120
3, 268796, Note_off_c, 1, 59, 100
3, 268796, Note_off_c, 1, 56, 100
3, 268796, Note_off_c, 1, 52, 100
3, 268800, Note_on_c, 1, 60, 120
3, 268800, Note_on_c, 1, 57, 120
3, 268800, Note_on_c, 1, 52, 120
3, 269180, Note_off_c, 1, 60, 100
3, 269180, Note_off_c, 1, 57, 100
3, 269180, Note_off_c, 1, 52, 100
3, 269184, Note_on_c, 1, 60, 120
3, 269184, Note_on_c, 1, 57, 120
3, 269184, Note_on_c, 1, 52, 120
3, 269564, Note_off_c, 1, 60, 100
3, 269564, Note_off_c, 1, 57, 100
3, 269564, Note_off_c, 1, 52, 100
3, 269952, Note_on_c, 1, 60, 120
3, 269952, Note_on_c, 1, 57, 120
3, 269952, Note_on_c, 1, 52, 120
3, 270236, Note_off_c, 1, 60, 100
3, 270236, Note_off_c, 1, 57, 100
3, 270236, Note_off_c, 1, 52, 100
3, 270240, Note_on_c, 1, 60, 120
3, 270240, Note_on_c, 1, 57, 120
3, 270240, Note_on_c, 1, 52, 120
3, 270332, Note_off_c, 1, 60, 100
3, 270332, Note_off_c, 1, 57, 100
3, 270332, Note_off_c, 1, 52, 100
3, 270336, Note_on_c, 1, 62, 120
3, 270336, Note_on_c, 1, 59, 120
3, 270336, Note_on_c, 1, 52, 120
3, 270716, Note_off_c, 1, 62, 100
3, 270716, Note_off_c, 1, 59, 100
3, 270716, Note_off_c, 1, 52, 100
3, 270720, Note_on_c, 1, 62, 120
3, 270720, Note_on_c, 1, 59, 120
3, 270720, Note_on_c, 1, 52, 120
3, 271100, Note_off_c, 1, 62, 100
3, 271100, Note_off_c, 1, 59, 100
3, 271100, Note_off_c, 1, 52, 100
3, 271488, Note_on_c, 1, 62, 120
3, 271488, Note_on_c, 1, 59, 120
3, 271488, Note_on_c, 1, 52, 120
3, 271772, Note_off_c, 1, 62, 100
3, 271772, Note_off_c, 1, 59, 100
3, 271772, Note_off_c, 1, 52, 100
3, 271776, Note_on_c, 1, 62, 120
3, 271776, Note_on_c, 1, 59, 120
3, 271776, Note_on_c, 1, 52, 120
3, 271868, Note_off_c, 1, 62, 100
3, 271868, Note_off_c, 1, 59, 100
3, 271868, Note_off_c, 1, 52, 100
3, 271872, Note_on_c, 1, 64, 120
3, 271872, Note_on_c, 1, 61, 120
3, 271872, Note_on_c, 1, 52, 120
3, 272252, Note_off_c, 1, 64, 100
3, 272252, Note_off_c, 1, 61, 100
3, 272252, Note_off_c, 1, 52, 100
3, 272256, Note_on_c, 1, 64, 120
3, 272256, Note_on_c, 1, 61, 120
3, 272256, Note_on_c, 1, 52, 120
3, 272636, Note_off_c, 1, 64, 100
3, 272636, Note_off_c, 1, 61, 100
3, 272636, Note_off_c, 1, 52, 100
3, 273024, Note_on_c, 1, 64, 120
3, 273024, Note_on_c, 1, 61, 120
3, 273024, Note_on_c, 1, 52, 120
3, 273308, Note_off_c, 1, 64, 100
3, 273308, Note_off_c, 1, 61, 100
3, 273308, Note_off_c, 1, 52, 100
3, 273312, Note_on_c, 1, 64, 120
3, 273312, Note_on_c, 1, 61, 120
3, 273312, Note_on_c, 1, 52, 120
3, 273404, Note_off_c, 1, 64, 100
3, 273404, Note_off_c, 1, 61, 100
3, 273404, Note_off_c, 1, 52, 100
3, 273408, Note_on_c, 1, 59, 120
3, 273408, Note_on_c, 1, 62, 120
3, 273408, Note_on_c, 1, 56, 120
3, 273408, Note_on_c, 1, 52, 120
3, 273788, Note_off_c, 1, 59, 100
3, 273788, Note_off_c, 1, 62, 100
3, 273788, Note_off_c, 1, 56, 100
3, 273788, Note_off_c, 1, 52, 100
3, 279552, Note_on_c, 1, 33, 80
3, 279616, Note_on_c, 1, 37, 80
3, 279676, Note_off_c, 1, 33, 100
3, 279680, Note_on_c, 1, 40, 80
3, 279740, Note_off_c, 1, 37, 100
3, 279744, Note_on_c, 1, 45, 80
3, 279804, Note_off_c, 1, 40, 100
3, 279808, Note_on_c, 1, 49, 80
3, 279868, Note_off_c, 1, 45, 100
3, 279872, Note_on_c, 1, 52, 80
3, 279932, Note_off_c, 1, 49, 100
3, 279936, Note_on_c, 1, 57, 80
3, 279996, Note_off_c, 1, 52, 100
3, 280028, Note_off_c, 1, 57, 100
3, 280320, Note_on_c, 1, 57, 80
3, 280508, Note_off_c, 1, 57, 100
3, 280512, Note_on_c, 1, 64, 80
3, 280700, Note_off_c, 1, 64, 100
3, 280704, Note_on_c, 1, 61, 80
3, 280892, Note_off_c, 1, 61, 100
3, 280896, Note_on_c, 1, 64, 80
3, 281084, Note_off_c, 1, 64, 100
3, 281088, Note_on_c, 1, 59, 80
3, 281276, Note_off_c, 1, 59, 100
3, 281280, Note_on_c, 1, 64, 80
3, 281468, Note_off_c, 1, 64, 100
3, 281472, Note_on_c, 1, 62, 80
3, 281660, Note_off_c, 1, 62, 100
3, 281664, Note_on_c, 1, 64, 80
3, 281852, Note_off_c, 1, 64, 100
3, 281856, Note_on_c, 1, 59, 80
3, 282044, Note_off_c, 1, 59, 100
3, 282048, Note_on_c, 1, 64, 80
3, 282236, Note_off_c, 1, 64, 100
3, 282240, Note_on_c, 1, 62, 80
3, 282428, Note_off_c, 1, 62, 100
3, 282432, Note_on_c, 1, 64, 80
3, 282620, Note_off_c, 1, 64, 100
3, 282624, Note_on_c, 1, 61, 80
3, 282720, Note_on_c, 1, 64, 80
3, 282812, Note_off_c, 1, 61, 100
3, 282908, Note_off_c, 1, 64, 100
3, 283008, Note_on_c, 1, 56, 80
3, 283196, Note_off_c, 1, 56, 100
3, 283200, Note_on_c, 1, 52, 80
3, 283388, Note_off_c, 1, 52, 100
3, 283392, Note_on_c, 1, 57, 80
3, 283580, Note_off_c, 1, 57, 100
3, 283584, Note_on_c, 1, 64, 80
3, 283772, Note_off_c, 1, 64, 100
3, 283776, Note_on_c, 1, 54, 80
3, 283964, Note_off_c, 1, 54, 100
3, 283968, Note_on_c, 1, 57, 80
3, 284156, Note_off_c, 1, 57, 100
3, 284160, Note_on_c, 1, 52, 80
3, 284348, Note_off_c, 1, 52, 100
3, 284352, Note_on_c, 1, 61, 80
3, 284540, Note_off_c, 1, 61, 100
3, 284544, Note_on_c, 1, 57, 80
3, 284732, Note_off_c, 1, 57, 100
3, 284736, Note_on_c, 1, 61, 80
3, 284924, Note_off_c, 1, 61, 100
3, 284928, Note_on_c, 1, 52, 80
3, 285116, Note_off_c, 1, 52, 100
3, 285120, Note_on_c, 1, 56, 80
3, 285308, Note_off_c, 1, 56, 100
3, 285312, Note_on_c, 1, 50, 80
3, 285500, Note_off_c, 1, 50, 100
3, 285504, Note_on_c, 1, 56, 80
3, 285692, Note_off_c, 1, 56, 100
3, 285696, Note_on_c, 1, 49, 80
3, 285884, Note_off_c, 1, 49, 100
3, 285888, Note_on_c, 1, 57, 80
3, 286076, Note_off_c, 1, 57, 100
3, 286080, Note_on_c, 1, 52, 80
3, 286268, Note_off_c, 1, 52, 100
3, 286272, Note_on_c, 1, 57, 80
3, 286460, Note_off_c, 1, 57, 100
3, 286464, Note_on_c, 1, 49, 80
3, 286652, Note_off_c, 1, 49, 100
3, 286656, Note_on_c, 1, 57, 80
3, 286844, Note_off_c, 1, 57, 100
3, 286848, Note_on_c, 1, 49, 80
3, 287036, Note_off_c, 1, 49, 100
3, 287040, Note_on_c, 1, 58, 80
3, 287228, Note_off_c, 1, 58, 100
3, 287232, Note_on_c, 1, 50, 80
3, 287420, Note_off_c, 1, 50, 100
3, 287424, Note_on_c, 1, 58, 80
3, 287612, Note_off_c, 1, 58, 100
3, 287616, Note_on_c, 1, 52, 80
3, 287804, Note_off_c, 1, 52, 100
3, 287808, Note_on_c, 1, 58, 80
3, 287996, Note_off_c, 1, 58, 100
3, 288000, Note_on_c, 1, 50, 80
3, 288188, Note_off_c, 1, 50, 100
3, 288192, Note_on_c, 1, 59, 80
3, 288380, Note_off_c, 1, 59, 100
3, 288384, Note_on_c, 1, 54, 80
3, 288572, Note_off_c, 1, 54, 100
3, 288576, Note_on_c, 1, 59, 80
3, 288764, Note_off_c, 1, 59, 100
3, 288768, Note_on_c, 1, 52, 80
3, 288956, Note_off_c, 1, 52, 100
3, 288960, Note_on_c, 1, 61, 80
3, 289148, Note_off_c, 1, 61, 100
3, 289152, Note_on_c, 1, 57, 80
3, 289340, Note_off_c, 1, 57, 100
3, 289344, Note_on_c, 1, 61, 80
3, 289532, Note_off_c, 1, 61, 100
3, 289536, Note_on_c, 1, 52, 80
3, 289724, Note_off_c, 1, 52, 100
3, 289728, Note_on_c, 1, 62, 80
3, 289916, Note_off_c, 1, 62, 100
3, 289920, Note_on_c, 1, 59, 80
3, 290108, Note_off_c, 1, 59, 100
3, 290112, Note_on_c, 1, 62, 80
3, 290300, Note_off_c, 1, 62, 100
3, 290304, Note_on_c, 1, 57, 80
3, 290492, Note_off_c, 1, 57, 100
3, 290496, Note_on_c, 1, 64, 80
3, 290684, Note_off_c, 1, 64, 100
3, 290688, Note_on_c, 1, 61, 80
3, 290876, Note_off_c, 1, 61, 100
3, 290880, Note_on_c, 1, 64, 80
3, 291068, Note_off_c, 1, 64, 100
3, 291072, Note_on_c, 1, 57, 80
3, 291260, Note_off_c, 1, 57, 100
3, 291264, Note_on_c, 1, 64, 80
3, 291452, Note_off_c, 1, 64, 100
3, 291456, Note_on_c, 1, 61, 80
3, 291644, Note_off_c, 1, 61, 100
3, 291648, Note_on_c, 1, 64, 80
3, 291836, Note_off_c, 1, 64, 100
3, 291840, Note_on_c, 1, 59, 80
3, 292028, Note_off_c, 1, 59, 100
3, 292032, Note_on_c, 1, 64, 80
3, 292220, Note_off_c, 1, 64, 100
3, 292224, Note_on_c, 1, 62, 80
3, 292412, Note_off_c, 1, 62, 100
3, 292416, Note_on_c, 1, 64, 80
3, 292604, Note_off_c, 1, 64, 100
3, 292608, Note_on_c, 1, 52, 80
3, 292796, Note_off_c, 1, 52, 100
3, 292800, Note_on_c, 1, 64, 80
3, 292988, Note_off_c, 1, 64, 100
3, 292992, Note_on_c, 1, 62, 80
3, 293180, Note_off_c, 1, 62, 100
3, 293184, Note_on_c, 1, 64, 80
3, 293372, Note_off_c, 1, 64, 100
3, 293376, Note_on_c, 1, 57, 80
3, 293564, Note_off_c, 1, 57, 100
3, 293568, Note_on_c, 1, 64, 80
3, 293756, Note_off_c, 1, 64, 100
3, 293760, Note_on_c, 1, 61, 80
3, 293948, Note_off_c, 1, 61, 100
3, 293952, Note_on_c, 1, 64, 80
3, 294140, Note_off_c, 1, 64, 100
3, 294144, Note_on_c, 1, 57, 80
3, 294332, Note_off_c, 1, 57, 100
3, 294336, Note_on_c, 1, 64, 80
3, 294524, Note_off_c, 1, 64, 100
3, 294528, Note_on_c, 1, 61, 80
3, 294716, Note_off_c, 1, 61, 100
3, 294720, Note_on_c, 1, 64, 80
3, 294908, Note_off_c, 1, 64, 100
3, 294912, Note_on_c, 1, 59, 80
3, 295100, Note_off_c, 1, 59, 100
3, 295104, Note_on_c, 1, 64, 80
3, 295292, Note_off_c, 1, 64, 100
3, 295296, Note_on_c, 1, 62, 80
3, 295484, Note_off_c, 1, 62, 100
3, 295488, Note_on_c, 1, 64, 80
3, 295676, Note_off_c, 1, 64, 100
3, 295680, Note_on_c, 1, 52, 80
3, 295868, Note_off_c, 1, 52, 100
3, 295872, Note_on_c, 1, 64, 80
3, 296060, Note_off_c, 1, 64, 100
3, 296064, Note_on_c, 1, 62, 80
3, 296252, Note_off_c, 1, 62, 100
3, 296256, Note_on_c, 1, 64, 80
3, 296444, Note_off_c, 1, 64, 100
3, 296448, Note_on_c, 1, 57, 80
3, 296448, Note_on_c, 1, 61, 80
3, 296828, Note_off_c, 1, 57, 100
3, 296828, Note_off_c, 1, 61, 100
3, 299520, Note_on_c, 1, 50, 80
3, 299520, Note_on_c, 1, 47, 80
3, 299520, Note_on_c, 1, 40, 80
3, 301052, Note_off_c, 1, 50, 100
3, 301052, Note_off_c, 1, 47, 100
3, 301052, Note_off_c, 1, 40, 100
3, 301056, Note_on_c, 1, 33, 80
3, 301628, Note_off_c, 1, 33, 100
3, 301632, Note_on_c, 1, 37, 80
3, 301728, Note_on_c, 1, 40, 80
3, 301920, Note_on_c, 1, 45, 80
3, 302108, Note_off_c, 1, 37, 100
3, 302108, Note_off_c, 1, 40, 100
3, 302684, Note_off_c, 1, 45, 100
3, 302684, End_track
0, 0, End_of_file
