0, 0, Header, 1, 3, 384
1, 0, Start_track
1, 0, Title_t, "L.v.Beethoven 1mov - Piano Sonata No.2 in A Major Op.2-2\000"
1, 0, Copyright_t, "Copyright(C) 1995-2009, Suzuki Software\000"
1, 0, Sequencer_specific, 9, 67, 123, 0, 88, 70, 48, 50, 0, 1
1, 0, Text_t, "XFhd:2000/03/01:JP:Classical::::L.v.Beethoven:::Kaoru Suzuki\000"
1, 0, Text_t, "XFln:JP:\203s\203A\203m\203\\\203i\203^\221æ2\224Ô\203C\222·\222²\215ì\225i2-2\201`\221æ1\212y\217Í:L.v.\203x\201[\203g\201[\203\224\203F\203\223:::\227é\202¿\202á\202ñ:\227é\202¿\202á\202ñ\000"
1, 0, Time_signature, 1, 2, 96, 8
1, 0, Sequencer_specific, 3, 0, 0, 65
1, 0, Sequencer_specific, 5, 0, 0, 119, 14, 0
1, 0, Tempo, 400000
1, 384, Time_signature, 2, 2, 96, 8
1, 37860, Tempo, 413793
1, 38668, Tempo, 428571
1, 39472, Tempo, 444444
1, 40280, Tempo, 461538
1, 41088, Tempo, 400000
1, 42624, Tempo, 428571
1, 44160, Tempo, 400000
1, 87168, Tempo, 428571
1, 87936, Tempo, 500000
1, 88704, Tempo, 600000
1, 89472, Tempo, 400000
1, 127716, Tempo, 413793
1, 128524, Tempo, 428571
1, 129328, Tempo, 444444
1, 130136, Tempo, 461538
1, 130944, Tempo, 413793
1, 132480, Tempo, 428571
1, 133248, Tempo, 444444
1, 134016, Tempo, 400000
1, 177024, Tempo, 428571
1, 177792, Tempo, 500000
1, 178560, Tempo, 600000
1, 180096, Tempo, 500000
1, 182208, Tempo, 400000
1, 210816, Tempo, 480000
1, 211584, Tempo, 600000
1, 212352, Tempo, 750000
1, 213120, Tempo, 400000
1, 259200, Tempo, 428571
1, 259968, Tempo, 500000
1, 260736, Tempo, 600000
1, 261504, Tempo, 750000
1, 262272, Tempo, 400000
1, 275328, Tempo, 413793
1, 276096, Tempo, 428571
1, 280704, Tempo, 444444
1, 281472, Tempo, 400000
1, 296832, Tempo, 413793
1, 297600, Tempo, 428571
1, 298368, Tempo, 444444
1, 299136, Tempo, 461538
1, 299904, Tempo, 413793
1, 301744, Tempo, 428571
1, 302052, Tempo, 444444
1, 302360, Tempo, 461538
1, 302668, Tempo, 480000
1, 302976, Tempo, 428571
1, 303360, Tempo, 413793
1, 303588, Tempo, 405405
1, 303744, Tempo, 400000
1, 320256, Tempo, 413793
1, 320640, Tempo, 428571
1, 321024, Tempo, 444444
1, 321408, Tempo, 461538
1, 321792, Tempo, 480000
1, 322176, Tempo, 400000
1, 345984, Tempo, 480000
1, 346752, Tempo, 600000
1, 346752, End_track
2, 0, Start_track
2, 0, Title_t, "Right"
2, 0, Control_c, 0, 0, 0
2, 0, Program_c, 0, 0
2, 0, Control_c, 0, 7, 100
2, 0, Control_c, 0, 10, 79
2, 0, Control_c, 0, 91, 127
2, 0, Key_signature, 3, "major"
2, 192, Note_on_c, 0, 81, 80
2, 192, Note_on_c, 0, 69, 80
2, 380, Note_off_c, 0, 81, 100
2, 380, Note_off_c, 0, 69, 100
2, 384, Note_on_c, 0, 76, 80
2, 384, Note_on_c, 0, 64, 80
2, 764, Note_off_c, 0, 76, 100
2, 764, Note_off_c, 0, 64, 100
2, 960, Note_on_c, 0, 64, 80
2, 1004, Note_off_c, 0, 64, 100
2, 1008, Note_on_c, 0, 62, 80
2, 1052, Note_off_c, 0, 62, 100
2, 1056, Note_on_c, 0, 61, 80
2, 1100, Note_off_c, 0, 61, 100
2, 1104, Note_on_c, 0, 59, 80
2, 1148, Note_off_c, 0, 59, 100
2, 1152, Note_on_c, 0, 57, 80
2, 1532, Note_off_c, 0, 57, 100
2, 1728, Note_on_c, 0, 81, 80
2, 1728, Note_on_c, 0, 69, 80
2, 1916, Note_off_c, 0, 81, 100
2, 1916, Note_off_c, 0, 69, 100
2, 1920, Note_on_c, 0, 78, 80
2, 1920, Note_on_c, 0, 66, 80
2, 2300, Note_off_c, 0, 78, 100
2, 2300, Note_off_c, 0, 66, 100
2, 2496, Note_on_c, 0, 66, 80
2, 2540, Note_off_c, 0, 66, 100
2, 2544, Note_on_c, 0, 64, 80
2, 2588, Note_off_c, 0, 64, 100
2, 2592, Note_on_c, 0, 62, 80
2, 2636, Note_off_c, 0, 62, 100
2, 2640, Note_on_c, 0, 61, 80
2, 2684, Note_off_c, 0, 61, 100
2, 2688, Note_on_c, 0, 59, 80
2, 3068, Note_off_c, 0, 59, 100
2, 3264, Note_on_c, 0, 74, 80
2, 3264, Note_on_c, 0, 86, 80
2, 3452, Note_off_c, 0, 74, 100
2, 3452, Note_off_c, 0, 86, 100
2, 3456, Note_on_c, 0, 83, 80
2, 3456, Note_on_c, 0, 71, 80
2, 3836, Note_off_c, 0, 83, 100
2, 3836, Note_off_c, 0, 71, 100
2, 3840, Note_on_c, 0, 80, 80
2, 3840, Note_on_c, 0, 68, 80
2, 4220, Note_off_c, 0, 80, 100
2, 4220, Note_off_c, 0, 68, 100
2, 4224, Note_on_c, 0, 76, 80
2, 4224, Note_on_c, 0, 64, 80
2, 4604, Note_off_c, 0, 76, 100
2, 4604, Note_off_c, 0, 64, 100
2, 4608, Note_on_c, 0, 74, 80
2, 4608, Note_on_c, 0, 62, 80
2, 4988, Note_off_c, 0, 74, 100
2, 4988, Note_off_c, 0, 62, 100
2, 4992, Note_on_c, 0, 71, 80
2, 4992, Note_on_c, 0, 59, 80
2, 5372, Note_off_c, 0, 71, 100
2, 5372, Note_off_c, 0, 59, 100
2, 5376, Note_on_c, 0, 68, 80
2, 5376, Note_on_c, 0, 56, 80
2, 5756, Note_off_c, 0, 68, 100
2, 5756, Note_off_c, 0, 56, 100
2, 5760, Note_on_c, 0, 64, 80
2, 5760, Note_on_c, 0, 52, 80
2, 6140, Note_off_c, 0, 64, 100
2, 6140, Note_off_c, 0, 52, 100
2, 6336, Note_on_c, 0, 57, 80
2, 6396, Note_off_c, 0, 57, 100
2, 6400, Note_on_c, 0, 61, 80
2, 6460, Note_off_c, 0, 61, 100
2, 6464, Note_on_c, 0, 64, 80
2, 6524, Note_off_c, 0, 64, 100
2, 6528, Note_on_c, 0, 69, 100
2, 6716, Note_off_c, 0, 69, 100
2, 6720, Note_on_c, 0, 71, 80
2, 6908, Note_off_c, 0, 71, 100
2, 6912, Note_on_c, 0, 73, 80
2, 7100, Note_off_c, 0, 73, 100
2, 7104, Note_on_c, 0, 74, 80
2, 7292, Note_off_c, 0, 74, 100
2, 7296, Note_on_c, 0, 76, 80
2, 7484, Note_off_c, 0, 76, 100
2, 7488, Note_on_c, 0, 78, 80
2, 7676, Note_off_c, 0, 78, 100
2, 7680, Note_on_c, 0, 80, 80
2, 7868, Note_off_c, 0, 80, 100
2, 7872, Note_on_c, 0, 81, 80
2, 8060, Note_off_c, 0, 81, 100
2, 8064, Note_on_c, 0, 76, 80
2, 8256, Note_on_c, 0, 68, 80
2, 8444, Note_off_c, 0, 68, 100
2, 8448, Note_on_c, 0, 69, 80
2, 8636, Note_off_c, 0, 76, 100
2, 8636, Note_off_c, 0, 69, 100
2, 8640, Note_on_c, 0, 74, 80
2, 8640, Note_on_c, 0, 71, 80
2, 8828, Note_off_c, 0, 74, 100
2, 8828, Note_off_c, 0, 71, 100
2, 8832, Note_on_c, 0, 73, 80
2, 8832, Note_on_c, 0, 64, 80
2, 9020, Note_off_c, 0, 73, 100
2, 9020, Note_off_c, 0, 64, 100
2, 9792, Note_on_c, 0, 56, 80
2, 9792, Note_on_c, 0, 64, 80
2, 9980, Note_off_c, 0, 56, 100
2, 9980, Note_off_c, 0, 64, 100
2, 9984, Note_on_c, 0, 66, 80
2, 9984, Note_on_c, 0, 57, 80
2, 10172, Note_off_c, 0, 66, 100
2, 10172, Note_off_c, 0, 57, 100
2, 10176, Note_on_c, 0, 68, 80
2, 10176, Note_on_c, 0, 59, 80
2, 10364, Note_off_c, 0, 68, 100
2, 10364, Note_off_c, 0, 59, 100
2, 10368, Note_on_c, 0, 69, 80
2, 10368, Note_on_c, 0, 61, 80
2, 10556, Note_off_c, 0, 69, 100
2, 10556, Note_off_c, 0, 61, 100
2, 10560, Note_on_c, 0, 64, 80
2, 10748, Note_off_c, 0, 64, 100
2, 10752, Note_on_c, 0, 69, 80
2, 10940, Note_off_c, 0, 69, 100
2, 10944, Note_on_c, 0, 73, 80
2, 11132, Note_off_c, 0, 73, 100
2, 11136, Note_on_c, 0, 71, 80
2, 11136, Note_on_c, 0, 76, 80
2, 11324, Note_off_c, 0, 71, 100
2, 11328, Note_on_c, 0, 68, 80
2, 11516, Note_off_c, 0, 68, 100
2, 11520, Note_on_c, 0, 69, 80
2, 11708, Note_off_c, 0, 76, 100
2, 11708, Note_off_c, 0, 69, 100
2, 11712, Note_on_c, 0, 71, 80
2, 11712, Note_on_c, 0, 74, 80
2, 11900, Note_off_c, 0, 71, 100
2, 11900, Note_off_c, 0, 74, 100
2, 11904, Note_on_c, 0, 64, 80
2, 11904, Note_on_c, 0, 73, 80
2, 12092, Note_off_c, 0, 73, 100
2, 12096, Note_on_c, 0, 71, 80
2, 12284, Note_off_c, 0, 71, 100
2, 12288, Note_on_c, 0, 69, 80
2, 12476, Note_off_c, 0, 64, 100
2, 12476, Note_off_c, 0, 69, 100
2, 12480, Note_on_c, 0, 71, 80
2, 12480, Note_on_c, 0, 63, 80
2, 12668, Note_off_c, 0, 71, 100
2, 12668, Note_off_c, 0, 63, 100
2, 12672, Note_on_c, 0, 68, 70
2, 12672, Note_on_c, 0, 59, 70
2, 12860, Note_off_c, 0, 68, 100
2, 12864, Note_on_c, 0, 64, 70
2, 13052, Note_off_c, 0, 59, 100
2, 13052, Note_off_c, 0, 64, 100
2, 13056, Note_on_c, 0, 69, 70
2, 13056, Note_on_c, 0, 63, 70
2, 13056, Note_on_c, 0, 57, 70
2, 13244, Note_off_c, 0, 69, 100
2, 13248, Note_on_c, 0, 71, 70
2, 13436, Note_off_c, 0, 63, 100
2, 13436, Note_off_c, 0, 57, 100
2, 13436, Note_off_c, 0, 71, 100
2, 13440, Note_on_c, 0, 68, 70
2, 13440, Note_on_c, 0, 59, 70
2, 13628, Note_off_c, 0, 68, 100
2, 13632, Note_on_c, 0, 64, 70
2, 13820, Note_off_c, 0, 59, 100
2, 13820, Note_off_c, 0, 64, 100
2, 13824, Note_on_c, 0, 69, 70
2, 13824, Note_on_c, 0, 63, 70
2, 13824, Note_on_c, 0, 57, 70
2, 14012, Note_off_c, 0, 69, 100
2, 14016, Note_on_c, 0, 71, 70
2, 14204, Note_off_c, 0, 63, 100
2, 14204, Note_off_c, 0, 57, 100
2, 14204, Note_off_c, 0, 71, 100
2, 14208, Note_on_c, 0, 68, 70
2, 14208, Note_on_c, 0, 64, 70
2, 14208, Note_on_c, 0, 59, 70
2, 14588, Note_off_c, 0, 68, 100
2, 14588, Note_off_c, 0, 64, 100
2, 14588, Note_off_c, 0, 59, 100
2, 14592, Note_on_c, 0, 64, 70
2, 14592, Note_on_c, 0, 59, 70
2, 14592, Note_on_c, 0, 56, 70
2, 14972, Note_off_c, 0, 64, 100
2, 14972, Note_off_c, 0, 59, 100
2, 14972, Note_off_c, 0, 56, 100
2, 14976, Note_on_c, 0, 64, 70
2, 14976, Note_on_c, 0, 59, 70
2, 14976, Note_on_c, 0, 56, 70
2, 15356, Note_off_c, 0, 64, 100
2, 15356, Note_off_c, 0, 59, 100
2, 15356, Note_off_c, 0, 56, 100
2, 15552, Note_on_c, 0, 81, 110
2, 15552, Note_on_c, 0, 69, 110
2, 15740, Note_off_c, 0, 81, 100
2, 15740, Note_off_c, 0, 69, 100
2, 15744, Note_on_c, 0, 76, 110
2, 15744, Note_on_c, 0, 64, 110
2, 16124, Note_off_c, 0, 76, 100
2, 16124, Note_off_c, 0, 64, 100
2, 16320, Note_on_c, 0, 64, 110
2, 16364, Note_off_c, 0, 64, 100
2, 16368, Note_on_c, 0, 62, 110
2, 16412, Note_off_c, 0, 62, 100
2, 16416, Note_on_c, 0, 61, 110
2, 16460, Note_off_c, 0, 61, 100
2, 16464, Note_on_c, 0, 59, 110
2, 16508, Note_off_c, 0, 59, 100
2, 16512, Note_on_c, 0, 57, 110
2, 16892, Note_off_c, 0, 57, 100
2, 19008, Note_on_c, 0, 64, 80
2, 19008, Note_on_c, 0, 56, 80
2, 19196, Note_off_c, 0, 64, 100
2, 19196, Note_off_c, 0, 56, 100
2, 19200, Note_on_c, 0, 66, 80
2, 19200, Note_on_c, 0, 57, 80
2, 19388, Note_off_c, 0, 66, 100
2, 19388, Note_off_c, 0, 57, 100
2, 19392, Note_on_c, 0, 68, 80
2, 19392, Note_on_c, 0, 59, 80
2, 19580, Note_off_c, 0, 68, 100
2, 19580, Note_off_c, 0, 59, 100
2, 19584, Note_on_c, 0, 61, 80
2, 19584, Note_on_c, 0, 69, 80
2, 19772, Note_off_c, 0, 61, 100
2, 19772, Note_off_c, 0, 69, 100
2, 19776, Note_on_c, 0, 64, 80
2, 19964, Note_off_c, 0, 64, 100
2, 19968, Note_on_c, 0, 69, 80
2, 20156, Note_off_c, 0, 69, 100
2, 20160, Note_on_c, 0, 73, 80
2, 20348, Note_off_c, 0, 73, 100
2, 20352, Note_on_c, 0, 76, 110
2, 20352, Note_on_c, 0, 71, 80
2, 20540, Note_off_c, 0, 71, 100
2, 20544, Note_on_c, 0, 68, 80
2, 20732, Note_off_c, 0, 68, 100
2, 20736, Note_on_c, 0, 69, 80
2, 20924, Note_off_c, 0, 76, 100
2, 20924, Note_off_c, 0, 69, 100
2, 20928, Note_on_c, 0, 74, 80
2, 20928, Note_on_c, 0, 71, 80
2, 21116, Note_off_c, 0, 74, 100
2, 21116, Note_off_c, 0, 71, 100
2, 21120, Note_on_c, 0, 73, 80
2, 21120, Note_on_c, 0, 64, 80
2, 21500, Note_off_c, 0, 73, 100
2, 21500, Note_off_c, 0, 64, 100
2, 22080, Note_on_c, 0, 76, 80
2, 22080, Note_on_c, 0, 68, 80
2, 22268, Note_off_c, 0, 76, 100
2, 22268, Note_off_c, 0, 68, 100
2, 22272, Note_on_c, 0, 78, 80
2, 22272, Note_on_c, 0, 69, 80
2, 22460, Note_off_c, 0, 78, 100
2, 22460, Note_off_c, 0, 69, 100
2, 22464, Note_on_c, 0, 80, 80
2, 22464, Note_on_c, 0, 71, 80
2, 22652, Note_off_c, 0, 80, 100
2, 22652, Note_off_c, 0, 71, 100
2, 22656, Note_on_c, 0, 73, 80
2, 22656, Note_on_c, 0, 81, 80
2, 22844, Note_off_c, 0, 73, 100
2, 22844, Note_off_c, 0, 81, 100
2, 22848, Note_on_c, 0, 76, 80
2, 22848, Note_on_c, 0, 83, 80
2, 23036, Note_off_c, 0, 83, 100
2, 23040, Note_on_c, 0, 85, 80
2, 23228, Note_off_c, 0, 76, 100
2, 23228, Note_off_c, 0, 85, 100
2, 23232, Note_on_c, 0, 81, 80
2, 23232, Note_on_c, 0, 86, 80
2, 23420, Note_off_c, 0, 81, 100
2, 23420, Note_off_c, 0, 86, 100
2, 23424, Note_on_c, 0, 85, 80
2, 23424, Note_on_c, 0, 88, 80
2, 23804, Note_off_c, 0, 85, 100
2, 23804, Note_off_c, 0, 88, 100
2, 23808, Note_on_c, 0, 80, 80
2, 23808, Note_on_c, 0, 76, 80
2, 23808, Note_on_c, 0, 74, 80
2, 23808, Note_on_c, 0, 71, 80
2, 24188, Note_off_c, 0, 80, 100
2, 24188, Note_off_c, 0, 76, 100
2, 24188, Note_off_c, 0, 74, 100
2, 24188, Note_off_c, 0, 71, 100
2, 24192, Note_on_c, 0, 73, 110
2, 24192, Note_on_c, 0, 76, 110
2, 24192, Note_on_c, 0, 81, 110
2, 24572, Note_off_c, 0, 73, 100
2, 24572, Note_off_c, 0, 76, 100
2, 24572, Note_off_c, 0, 81, 100
2, 25728, Note_on_c, 0, 64, 110
2, 25792, Note_on_c, 0, 68, 110
2, 25852, Note_off_c, 0, 64, 100
2, 25856, Note_on_c, 0, 69, 110
2, 25916, Note_off_c, 0, 68, 100
2, 25920, Note_on_c, 0, 71, 110
2, 25980, Note_off_c, 0, 69, 100
2, 25984, Note_on_c, 0, 73, 110
2, 26044, Note_off_c, 0, 71, 100
2, 26048, Note_on_c, 0, 74, 110
2, 26108, Note_off_c, 0, 73, 100
2, 26112, Note_on_c, 0, 76, 110
2, 26172, Note_off_c, 0, 74, 100
2, 26176, Note_on_c, 0, 80, 110
2, 26236, Note_off_c, 0, 76, 100
2, 26240, Note_on_c, 0, 81, 110
2, 26300, Note_off_c, 0, 80, 100
2, 26304, Note_on_c, 0, 83, 110
2, 26364, Note_off_c, 0, 81, 100
2, 26368, Note_on_c, 0, 85, 110
2, 26428, Note_off_c, 0, 83, 100
2, 26432, Note_on_c, 0, 86, 110
2, 26492, Note_off_c, 0, 85, 100
2, 26492, Note_off_c, 0, 86, 100
2, 26496, Note_on_c, 0, 88, 110
2, 26684, Note_off_c, 0, 88, 100
2, 26688, Note_on_c, 0, 86, 110
2, 26876, Note_off_c, 0, 86, 100
2, 26880, Note_on_c, 0, 85, 110
2, 27068, Note_off_c, 0, 85, 100
2, 27072, Note_on_c, 0, 83, 110
2, 27260, Note_off_c, 0, 83, 100
2, 27264, Note_on_c, 0, 81, 110
2, 27644, Note_off_c, 0, 81, 100
2, 28864, Note_on_c, 0, 71, 110
2, 28928, Note_on_c, 0, 73, 110
2, 28988, Note_off_c, 0, 71, 100
2, 28992, Note_on_c, 0, 75, 110
2, 29052, Note_off_c, 0, 73, 100
2, 29056, Note_on_c, 0, 76, 110
2, 29116, Note_off_c, 0, 75, 100
2, 29120, Note_on_c, 0, 77, 110
2, 29180, Note_off_c, 0, 76, 100
2, 29184, Note_on_c, 0, 78, 110
2, 29244, Note_off_c, 0, 77, 100
2, 29248, Note_on_c, 0, 75, 110
2, 29308, Note_off_c, 0, 78, 100
2, 29312, Note_on_c, 0, 76, 110
2, 29372, Note_off_c, 0, 75, 100
2, 29376, Note_on_c, 0, 78, 110
2, 29436, Note_off_c, 0, 76, 100
2, 29440, Note_on_c, 0, 80, 110
2, 29500, Note_off_c, 0, 78, 100
2, 29504, Note_on_c, 0, 81, 110
2, 29564, Note_off_c, 0, 80, 100
2, 29564, Note_off_c, 0, 81, 100
2, 29568, Note_on_c, 0, 83, 120
2, 29756, Note_off_c, 0, 83, 100
2, 29760, Note_on_c, 0, 81, 120
2, 29948, Note_off_c, 0, 81, 100
2, 29952, Note_on_c, 0, 80, 120
2, 30140, Note_off_c, 0, 80, 100
2, 30144, Note_on_c, 0, 78, 120
2, 30332, Note_off_c, 0, 78, 100
2, 30336, Note_on_c, 0, 76, 120
2, 30524, Note_off_c, 0, 76, 100
2, 30528, Note_on_c, 0, 75, 120
2, 30716, Note_off_c, 0, 75, 100
2, 30720, Note_on_c, 0, 73, 120
2, 30908, Note_off_c, 0, 73, 100
2, 30912, Note_on_c, 0, 71, 120
2, 31100, Note_off_c, 0, 71, 100
2, 31104, Note_on_c, 0, 70, 120
2, 31292, Note_off_c, 0, 70, 100
2, 31296, Note_on_c, 0, 68, 120
2, 31484, Note_off_c, 0, 68, 100
2, 31488, Note_on_c, 0, 66, 120
2, 31676, Note_off_c, 0, 66, 100
2, 31680, Note_on_c, 0, 64, 120
2, 31868, Note_off_c, 0, 64, 100
2, 31872, Note_on_c, 0, 63, 80
2, 32064, Note_on_c, 0, 61, 80
2, 32252, Note_off_c, 0, 63, 100
2, 32252, Note_off_c, 0, 61, 100
2, 32256, Note_on_c, 0, 63, 80
2, 32256, Note_on_c, 0, 59, 80
2, 32444, Note_off_c, 0, 59, 100
2, 32448, Note_on_c, 0, 57, 80
2, 32636, Note_off_c, 0, 63, 100
2, 32636, Note_off_c, 0, 57, 100
2, 32640, Note_on_c, 0, 64, 80
2, 32640, Note_on_c, 0, 56, 80
2, 32828, Note_off_c, 0, 56, 100
2, 32832, Note_on_c, 0, 54, 80
2, 33020, Note_off_c, 0, 64, 100
2, 33020, Note_off_c, 0, 54, 100
2, 33024, Note_on_c, 0, 58, 80
2, 33024, Note_on_c, 0, 52, 80
2, 33212, Note_off_c, 0, 52, 100
2, 33216, Note_on_c, 0, 54, 80
2, 33404, Note_off_c, 0, 58, 100
2, 33404, Note_off_c, 0, 54, 100
2, 33408, Note_on_c, 0, 59, 80
2, 33408, Note_on_c, 0, 51, 80
2, 33596, Note_off_c, 0, 51, 100
2, 33600, Note_on_c, 0, 49, 80
2, 33788, Note_off_c, 0, 59, 100
2, 33788, Note_off_c, 0, 49, 100
2, 33792, Note_on_c, 0, 51, 80
2, 33792, Note_on_c, 0, 47, 80
2, 33980, Note_off_c, 0, 47, 100
2, 33984, Note_on_c, 0, 45, 80
2, 34172, Note_off_c, 0, 51, 100
2, 34172, Note_off_c, 0, 45, 100
2, 34176, Note_on_c, 0, 52, 80
2, 34176, Note_on_c, 0, 44, 80
2, 34364, Note_off_c, 0, 44, 100
2, 34368, Note_on_c, 0, 42, 80
2, 34556, Note_off_c, 0, 52, 100
2, 34556, Note_off_c, 0, 42, 100
2, 34560, Note_on_c, 0, 46, 80
2, 34560, Note_on_c, 0, 40, 80
2, 34748, Note_off_c, 0, 40, 100
2, 34752, Note_on_c, 0, 42, 80
2, 34940, Note_off_c, 0, 46, 100
2, 34940, Note_off_c, 0, 42, 100
2, 34944, Note_on_c, 0, 39, 80
2, 34944, Note_on_c, 0, 47, 80
2, 35324, Note_off_c, 0, 39, 100
2, 35324, Note_off_c, 0, 47, 100
2, 37056, Note_on_c, 0, 59, 80
2, 37244, Note_off_c, 0, 59, 100
2, 37248, Note_on_c, 0, 60, 80
2, 37436, Note_off_c, 0, 60, 100
2, 37440, Note_on_c, 0, 59, 80
2, 37628, Note_off_c, 0, 59, 100
2, 37632, Note_on_c, 0, 66, 80
2, 37820, Note_off_c, 0, 66, 100
2, 37824, Note_on_c, 0, 63, 80
2, 38012, Note_off_c, 0, 63, 100
2, 38592, Note_on_c, 0, 59, 80
2, 38780, Note_off_c, 0, 59, 100
2, 38784, Note_on_c, 0, 60, 80
2, 38972, Note_off_c, 0, 60, 100
2, 38976, Note_on_c, 0, 59, 80
2, 39164, Note_off_c, 0, 59, 100
2, 39168, Note_on_c, 0, 66, 80
2, 39356, Note_off_c, 0, 66, 100
2, 39360, Note_on_c, 0, 63, 80
2, 39548, Note_off_c, 0, 63, 100
2, 40128, Note_on_c, 0, 59, 80
2, 40316, Note_off_c, 0, 59, 100
2, 40320, Note_on_c, 0, 60, 80
2, 40508, Note_off_c, 0, 60, 100
2, 40512, Note_on_c, 0, 59, 80
2, 40700, Note_off_c, 0, 59, 100
2, 40704, Note_on_c, 0, 67, 80
2, 40892, Note_off_c, 0, 67, 100
2, 40896, Note_on_c, 0, 64, 80
2, 41084, Note_off_c, 0, 64, 100
2, 41856, Note_on_c, 0, 63, 115
2, 42044, Note_off_c, 0, 63, 100
2, 42048, Note_on_c, 0, 66, 80
2, 42236, Note_off_c, 0, 66, 100
2, 42240, Note_on_c, 0, 69, 80
2, 42428, Note_off_c, 0, 69, 100
2, 42432, Note_on_c, 0, 71, 80
2, 42620, Note_off_c, 0, 71, 100
2, 42624, Note_on_c, 0, 72, 80
2, 42812, Note_off_c, 0, 72, 100
2, 42816, Note_on_c, 0, 71, 80
2, 43004, Note_off_c, 0, 71, 100
2, 43008, Note_on_c, 0, 74, 80
2, 43196, Note_off_c, 0, 74, 100
2, 43200, Note_on_c, 0, 72, 80
2, 43388, Note_off_c, 0, 72, 100
2, 43392, Note_on_c, 0, 71, 80
2, 43580, Note_off_c, 0, 71, 100
2, 43584, Note_on_c, 0, 69, 80
2, 43772, Note_off_c, 0, 69, 100
2, 43776, Note_on_c, 0, 67, 80
2, 43964, Note_off_c, 0, 67, 100
2, 43968, Note_on_c, 0, 66, 80
2, 44156, Note_off_c, 0, 66, 100
2, 44160, Note_on_c, 0, 64, 100
2, 44540, Note_off_c, 0, 64, 100
2, 44736, Note_on_c, 0, 76, 100
2, 44924, Note_off_c, 0, 76, 100
2, 44928, Note_on_c, 0, 75, 100
2, 45116, Note_off_c, 0, 75, 100
2, 45120, Note_on_c, 0, 76, 100
2, 45308, Note_off_c, 0, 76, 100
2, 45312, Note_on_c, 0, 79, 100
2, 45500, Note_off_c, 0, 79, 100
2, 45504, Note_on_c, 0, 76, 100
2, 45692, Note_off_c, 0, 76, 100
2, 45696, Note_on_c, 0, 76, 100
2, 45980, Note_off_c, 0, 76, 100
2, 45984, Note_on_c, 0, 78, 100
2, 46028, Note_off_c, 0, 78, 100
2, 46032, Note_on_c, 0, 76, 100
2, 46076, Note_off_c, 0, 76, 100
2, 46080, Note_on_c, 0, 75, 100
2, 46844, Note_off_c, 0, 75, 100
2, 46848, Note_on_c, 0, 74, 100
2, 47228, Note_off_c, 0, 74, 100
2, 47232, Note_on_c, 0, 74, 100
2, 47804, Note_off_c, 0, 74, 100
2, 47808, Note_on_c, 0, 79, 100
2, 47996, Note_off_c, 0, 79, 100
2, 48000, Note_on_c, 0, 78, 100
2, 48188, Note_off_c, 0, 78, 100
2, 48192, Note_on_c, 0, 79, 100
2, 48380, Note_off_c, 0, 79, 100
2, 48384, Note_on_c, 0, 83, 100
2, 48572, Note_off_c, 0, 83, 100
2, 48576, Note_on_c, 0, 79, 100
2, 48764, Note_off_c, 0, 79, 100
2, 48768, Note_on_c, 0, 79, 100
2, 49052, Note_off_c, 0, 79, 100
2, 49056, Note_on_c, 0, 81, 100
2, 49100, Note_off_c, 0, 81, 100
2, 49104, Note_on_c, 0, 79, 100
2, 49148, Note_off_c, 0, 79, 100
2, 49152, Note_on_c, 0, 78, 100
2, 49916, Note_off_c, 0, 78, 100
2, 49920, Note_on_c, 0, 77, 100
2, 50300, Note_off_c, 0, 77, 100
2, 50304, Note_on_c, 0, 77, 100
2, 50876, Note_off_c, 0, 77, 100
2, 50880, Note_on_c, 0, 82, 100
2, 51068, Note_off_c, 0, 82, 100
2, 51072, Note_on_c, 0, 81, 100
2, 51260, Note_off_c, 0, 81, 100
2, 51264, Note_on_c, 0, 82, 100
2, 51452, Note_off_c, 0, 82, 100
2, 51456, Note_on_c, 0, 86, 100
2, 51644, Note_off_c, 0, 86, 100
2, 51648, Note_on_c, 0, 82, 100
2, 51836, Note_off_c, 0, 82, 100
2, 51840, Note_on_c, 0, 82, 100
2, 52124, Note_off_c, 0, 82, 100
2, 52128, Note_on_c, 0, 84, 100
2, 52172, Note_off_c, 0, 84, 100
2, 52176, Note_on_c, 0, 82, 100
2, 52220, Note_off_c, 0, 82, 100
2, 52224, Note_on_c, 0, 81, 100
2, 52988, Note_off_c, 0, 81, 100
2, 52992, Note_on_c, 0, 81, 100
2, 53372, Note_off_c, 0, 81, 100
2, 53376, Note_on_c, 0, 81, 100
2, 53564, Note_off_c, 0, 81, 100
2, 53568, Note_on_c, 0, 83, 100
2, 53616, Note_on_c, 0, 81, 100
2, 53660, Note_off_c, 0, 83, 100
2, 53664, Note_on_c, 0, 80, 100
2, 53708, Note_off_c, 0, 81, 100
2, 53712, Note_on_c, 0, 81, 100
2, 53756, Note_off_c, 0, 80, 100
2, 53756, Note_off_c, 0, 81, 100
2, 53760, Note_on_c, 0, 72, 100
2, 53760, Note_on_c, 0, 84, 100
2, 54524, Note_off_c, 0, 72, 100
2, 54524, Note_off_c, 0, 84, 100
2, 54528, Note_on_c, 0, 71, 100
2, 54528, Note_on_c, 0, 83, 100
2, 54908, Note_off_c, 0, 71, 100
2, 54908, Note_off_c, 0, 83, 100
2, 54912, Note_on_c, 0, 83, 100
2, 55100, Note_off_c, 0, 83, 100
2, 55104, Note_on_c, 0, 85, 100
2, 55152, Note_on_c, 0, 83, 100
2, 55196, Note_off_c, 0, 85, 100
2, 55200, Note_on_c, 0, 82, 100
2, 55244, Note_off_c, 0, 83, 100
2, 55248, Note_on_c, 0, 83, 100
2, 55292, Note_off_c, 0, 82, 100
2, 55292, Note_off_c, 0, 83, 100
2, 55296, Note_on_c, 0, 74, 100
2, 55296, Note_on_c, 0, 86, 100
2, 56060, Note_off_c, 0, 74, 100
2, 56060, Note_off_c, 0, 86, 100
2, 56064, Note_on_c, 0, 73, 100
2, 56064, Note_on_c, 0, 85, 100
2, 56444, Note_off_c, 0, 73, 100
2, 56444, Note_off_c, 0, 85, 100
2, 56448, Note_on_c, 0, 85, 100
2, 56636, Note_off_c, 0, 85, 100
2, 56640, Note_on_c, 0, 87, 100
2, 56688, Note_on_c, 0, 85, 100
2, 56732, Note_off_c, 0, 87, 100
2, 56736, Note_on_c, 0, 84, 100
2, 56780, Note_off_c, 0, 85, 100
2, 56784, Note_on_c, 0, 85, 100
2, 56828, Note_off_c, 0, 84, 100
2, 56828, Note_off_c, 0, 85, 100
2, 56832, Note_on_c, 0, 76, 100
2, 56832, Note_on_c, 0, 88, 100
2, 57596, Note_off_c, 0, 76, 100
2, 57596, Note_off_c, 0, 88, 100
2, 57600, Note_on_c, 0, 75, 100
2, 57600, Note_on_c, 0, 87, 100
2, 57980, Note_off_c, 0, 75, 100
2, 57980, Note_off_c, 0, 87, 100
2, 57984, Note_on_c, 0, 75, 100
2, 57984, Note_on_c, 0, 87, 100
2, 58364, Note_off_c, 0, 75, 100
2, 58364, Note_off_c, 0, 87, 100
2, 58560, Note_on_c, 0, 60, 120
2, 58608, Note_on_c, 0, 59, 120
2, 58652, Note_off_c, 0, 60, 100
2, 58656, Note_on_c, 0, 57, 120
2, 58700, Note_off_c, 0, 59, 100
2, 58704, Note_on_c, 0, 55, 120
2, 58748, Note_off_c, 0, 57, 100
2, 58748, Note_off_c, 0, 55, 100
2, 58752, Note_on_c, 0, 54, 120
2, 59132, Note_off_c, 0, 54, 100
2, 59328, Note_on_c, 0, 76, 80
2, 59328, Note_on_c, 0, 88, 80
2, 59516, Note_off_c, 0, 76, 100
2, 59516, Note_off_c, 0, 88, 100
2, 59520, Note_on_c, 0, 75, 80
2, 59520, Note_on_c, 0, 87, 80
2, 59900, Note_off_c, 0, 75, 100
2, 59900, Note_off_c, 0, 87, 100
2, 60096, Note_on_c, 0, 60, 120
2, 60144, Note_on_c, 0, 59, 120
2, 60188, Note_off_c, 0, 60, 100
2, 60192, Note_on_c, 0, 57, 120
2, 60236, Note_off_c, 0, 59, 100
2, 60240, Note_on_c, 0, 55, 120
2, 60284, Note_off_c, 0, 57, 100
2, 60284, Note_off_c, 0, 55, 100
2, 60288, Note_on_c, 0, 54, 120
2, 60668, Note_off_c, 0, 54, 100
2, 60864, Note_on_c, 0, 88, 70
2, 61052, Note_off_c, 0, 88, 100
2, 61056, Note_on_c, 0, 87, 70
2, 61436, Note_off_c, 0, 87, 100
2, 61632, Note_on_c, 0, 88, 70
2, 61820, Note_off_c, 0, 88, 100
2, 61824, Note_on_c, 0, 87, 70
2, 62204, Note_off_c, 0, 87, 100
2, 62400, Note_on_c, 0, 88, 70
2, 62588, Note_off_c, 0, 88, 100
2, 62592, Note_on_c, 0, 87, 70
2, 62972, Note_off_c, 0, 87, 100
2, 63936, Note_on_c, 0, 83, 90
2, 64124, Note_off_c, 0, 83, 100
2, 64320, Note_on_c, 0, 76, 120
2, 64384, Note_on_c, 0, 88, 120
2, 64444, Note_off_c, 0, 76, 100
2, 64448, Note_on_c, 0, 76, 120
2, 64508, Note_off_c, 0, 88, 100
2, 64512, Note_on_c, 0, 71, 120
2, 64572, Note_off_c, 0, 76, 100
2, 64576, Note_on_c, 0, 83, 120
2, 64636, Note_off_c, 0, 71, 100
2, 64640, Note_on_c, 0, 71, 120
2, 64700, Note_off_c, 0, 83, 100
2, 64704, Note_on_c, 0, 68, 120
2, 64764, Note_off_c, 0, 71, 100
2, 64768, Note_on_c, 0, 80, 120
2, 64828, Note_off_c, 0, 68, 100
2, 64832, Note_on_c, 0, 68, 120
2, 64892, Note_off_c, 0, 80, 100
2, 64896, Note_on_c, 0, 64, 120
2, 64956, Note_off_c, 0, 68, 100
2, 64960, Note_on_c, 0, 76, 120
2, 65020, Note_off_c, 0, 64, 100
2, 65024, Note_on_c, 0, 64, 120
2, 65084, Note_off_c, 0, 76, 100
2, 65088, Note_on_c, 0, 59, 120
2, 65148, Note_off_c, 0, 64, 100
2, 65152, Note_on_c, 0, 71, 120
2, 65212, Note_off_c, 0, 59, 100
2, 65216, Note_on_c, 0, 59, 120
2, 65276, Note_off_c, 0, 71, 100
2, 65280, Note_on_c, 0, 56, 120
2, 65340, Note_off_c, 0, 59, 100
2, 65344, Note_on_c, 0, 68, 120
2, 65404, Note_off_c, 0, 56, 100
2, 65408, Note_on_c, 0, 56, 120
2, 65468, Note_off_c, 0, 68, 100
2, 65472, Note_on_c, 0, 52, 120
2, 65532, Note_off_c, 0, 56, 100
2, 65536, Note_on_c, 0, 64, 120
2, 65596, Note_off_c, 0, 52, 100
2, 65600, Note_on_c, 0, 52, 120
2, 65660, Note_off_c, 0, 64, 100
2, 65660, Note_off_c, 0, 52, 100
2, 65664, Note_on_c, 0, 52, 120
2, 65664, Note_on_c, 0, 54, 120
2, 66428, Note_off_c, 0, 52, 100
2, 66428, Note_off_c, 0, 54, 100
2, 66432, Note_on_c, 0, 59, 120
2, 66432, Note_on_c, 0, 51, 120
2, 67196, Note_off_c, 0, 59, 100
2, 67196, Note_off_c, 0, 51, 100
2, 67392, Note_on_c, 0, 52, 120
2, 67456, Note_on_c, 0, 64, 120
2, 67508, Note_off_c, 0, 52, 100
2, 67520, Note_on_c, 0, 52, 120
2, 67572, Note_off_c, 0, 64, 100
2, 67584, Note_on_c, 0, 56, 120
2, 67636, Note_off_c, 0, 52, 100
2, 67648, Note_on_c, 0, 68, 120
2, 67696, Note_off_c, 0, 56, 100
2, 67712, Note_on_c, 0, 56, 120
2, 67776, Note_off_c, 0, 68, 100
2, 67776, Note_on_c, 0, 59, 120
2, 67828, Note_off_c, 0, 56, 100
2, 67840, Note_on_c, 0, 71, 120
2, 67892, Note_off_c, 0, 59, 100
2, 67904, Note_on_c, 0, 59, 120
2, 67956, Note_off_c, 0, 71, 100
2, 67968, Note_on_c, 0, 64, 120
2, 68012, Note_off_c, 0, 59, 100
2, 68032, Note_on_c, 0, 76, 120
2, 68092, Note_off_c, 0, 64, 100
2, 68096, Note_on_c, 0, 64, 120
2, 68156, Note_off_c, 0, 76, 100
2, 68160, Note_on_c, 0, 68, 120
2, 68220, Note_off_c, 0, 64, 100
2, 68224, Note_on_c, 0, 80, 120
2, 68284, Note_off_c, 0, 68, 100
2, 68288, Note_on_c, 0, 68, 120
2, 68348, Note_off_c, 0, 80, 100
2, 68352, Note_on_c, 0, 71, 120
2, 68412, Note_off_c, 0, 68, 100
2, 68416, Note_on_c, 0, 83, 120
2, 68476, Note_off_c, 0, 71, 100
2, 68480, Note_on_c, 0, 71, 120
2, 68540, Note_off_c, 0, 83, 100
2, 68544, Note_on_c, 0, 76, 120
2, 68604, Note_off_c, 0, 71, 100
2, 68608, Note_on_c, 0, 88, 120
2, 68668, Note_off_c, 0, 76, 100
2, 68672, Note_on_c, 0, 76, 120
2, 68732, Note_off_c, 0, 88, 100
2, 68732, Note_off_c, 0, 76, 100
2, 68736, Note_on_c, 0, 78, 120
2, 68736, Note_on_c, 0, 76, 120
2, 69500, Note_off_c, 0, 78, 100
2, 69500, Note_off_c, 0, 76, 100
2, 69504, Note_on_c, 0, 75, 120
2, 69504, Note_on_c, 0, 83, 120
2, 70268, Note_off_c, 0, 75, 100
2, 70268, Note_off_c, 0, 83, 100
2, 70272, Note_on_c, 0, 76, 100
2, 70460, Note_off_c, 0, 76, 100
2, 70720, Note_on_c, 0, 80, 100
2, 70784, Note_on_c, 0, 81, 100
2, 70844, Note_off_c, 0, 80, 100
2, 70848, Note_on_c, 0, 83, 100
2, 70908, Note_off_c, 0, 81, 100
2, 70912, Note_on_c, 0, 85, 100
2, 70972, Note_off_c, 0, 83, 100
2, 70976, Note_on_c, 0, 87, 100
2, 71036, Note_off_c, 0, 85, 100
2, 71036, Note_off_c, 0, 87, 100
2, 71040, Note_on_c, 0, 88, 100
2, 71228, Note_off_c, 0, 88, 100
2, 71232, Note_on_c, 0, 87, 100
2, 71420, Note_off_c, 0, 87, 100
2, 71424, Note_on_c, 0, 85, 100
2, 71612, Note_off_c, 0, 85, 100
2, 71616, Note_on_c, 0, 83, 100
2, 71804, Note_off_c, 0, 83, 100
2, 71808, Note_on_c, 0, 81, 100
2, 71996, Note_off_c, 0, 81, 100
2, 72000, Note_on_c, 0, 80, 100
2, 72188, Note_off_c, 0, 80, 100
2, 72192, Note_on_c, 0, 78, 100
2, 72380, Note_off_c, 0, 78, 100
2, 72384, Note_on_c, 0, 76, 100
2, 72572, Note_off_c, 0, 76, 100
2, 72576, Note_on_c, 0, 75, 100
2, 72764, Note_off_c, 0, 75, 100
2, 73344, Note_on_c, 0, 64, 100
2, 73724, Note_off_c, 0, 64, 100
2, 74880, Note_on_c, 0, 61, 110
2, 74944, Note_on_c, 0, 63, 110
2, 75004, Note_off_c, 0, 61, 100
2, 75008, Note_on_c, 0, 64, 110
2, 75068, Note_off_c, 0, 63, 100
2, 75072, Note_on_c, 0, 66, 110
2, 75132, Note_off_c, 0, 64, 100
2, 75136, Note_on_c, 0, 68, 110
2, 75196, Note_off_c, 0, 66, 100
2, 75200, Note_on_c, 0, 69, 110
2, 75260, Note_off_c, 0, 68, 100
2, 75264, Note_on_c, 0, 71, 110
2, 75324, Note_off_c, 0, 69, 100
2, 75328, Note_on_c, 0, 75, 110
2, 75388, Note_off_c, 0, 71, 100
2, 75392, Note_on_c, 0, 76, 110
2, 75452, Note_off_c, 0, 75, 100
2, 75456, Note_on_c, 0, 78, 110
2, 75516, Note_off_c, 0, 76, 100
2, 75520, Note_on_c, 0, 80, 110
2, 75580, Note_off_c, 0, 78, 100
2, 75584, Note_on_c, 0, 81, 110
2, 75644, Note_off_c, 0, 80, 100
2, 75644, Note_off_c, 0, 81, 100
2, 75648, Note_on_c, 0, 83, 120
2, 75836, Note_off_c, 0, 83, 100
2, 75840, Note_on_c, 0, 81, 120
2, 76028, Note_off_c, 0, 81, 100
2, 76032, Note_on_c, 0, 80, 120
2, 76220, Note_off_c, 0, 80, 100
2, 76224, Note_on_c, 0, 78, 120
2, 76412, Note_off_c, 0, 78, 100
2, 76416, Note_on_c, 0, 76, 120
2, 76604, Note_off_c, 0, 76, 100
2, 76608, Note_on_c, 0, 75, 120
2, 76796, Note_off_c, 0, 75, 100
2, 76800, Note_on_c, 0, 73, 120
2, 76988, Note_off_c, 0, 73, 100
2, 76992, Note_on_c, 0, 71, 120
2, 77180, Note_off_c, 0, 71, 100
2, 77184, Note_on_c, 0, 69, 120
2, 77372, Note_off_c, 0, 69, 100
2, 77376, Note_on_c, 0, 68, 120
2, 77564, Note_off_c, 0, 68, 100
2, 77568, Note_on_c, 0, 66, 120
2, 77756, Note_off_c, 0, 66, 100
2, 77760, Note_on_c, 0, 64, 120
2, 77948, Note_off_c, 0, 64, 100
2, 77952, Note_on_c, 0, 63, 120
2, 78140, Note_off_c, 0, 63, 100
2, 78144, Note_on_c, 0, 61, 120
2, 78332, Note_off_c, 0, 61, 100
2, 78336, Note_on_c, 0, 59, 120
2, 78524, Note_off_c, 0, 59, 100
2, 78528, Note_on_c, 0, 57, 120
2, 78716, Note_off_c, 0, 57, 100
2, 78720, Note_on_c, 0, 56, 120
2, 78908, Note_off_c, 0, 56, 100
2, 78912, Note_on_c, 0, 54, 120
2, 79100, Note_off_c, 0, 54, 100
2, 79104, Note_on_c, 0, 52, 120
2, 79292, Note_off_c, 0, 52, 100
2, 79296, Note_on_c, 0, 51, 120
2, 79484, Note_off_c, 0, 51, 100
2, 79488, Note_on_c, 0, 52, 80
2, 79676, Note_off_c, 0, 52, 100
2, 79680, Note_on_c, 0, 54, 80
2, 79868, Note_off_c, 0, 54, 100
2, 79872, Note_on_c, 0, 56, 80
2, 80060, Note_off_c, 0, 56, 100
2, 80064, Note_on_c, 0, 57, 80
2, 80252, Note_off_c, 0, 57, 100
2, 80256, Note_on_c, 0, 59, 80
2, 80256, Note_on_c, 0, 69, 80
2, 80444, Note_off_c, 0, 59, 100
2, 80448, Note_on_c, 0, 61, 80
2, 80636, Note_off_c, 0, 61, 100
2, 80640, Note_on_c, 0, 62, 80
2, 80828, Note_off_c, 0, 62, 100
2, 80832, Note_on_c, 0, 63, 80
2, 81020, Note_off_c, 0, 69, 100
2, 81020, Note_off_c, 0, 63, 100
2, 81024, Note_on_c, 0, 68, 80
2, 81024, Note_on_c, 0, 64, 80
2, 81024, Note_on_c, 0, 59, 80
2, 81788, Note_off_c, 0, 68, 100
2, 81788, Note_off_c, 0, 64, 100
2, 81788, Note_off_c, 0, 59, 100
2, 81792, Note_on_c, 0, 59, 80
2, 81792, Note_on_c, 0, 57, 80
2, 81792, Note_on_c, 0, 66, 80
2, 82556, Note_off_c, 0, 59, 100
2, 82556, Note_off_c, 0, 57, 100
2, 82556, Note_off_c, 0, 66, 100
2, 82560, Note_on_c, 0, 56, 80
2, 82560, Note_on_c, 0, 64, 80
2, 82748, Note_off_c, 0, 56, 100
2, 82752, Note_on_c, 0, 54, 80
2, 82940, Note_off_c, 0, 54, 100
2, 82944, Note_on_c, 0, 56, 80
2, 83132, Note_off_c, 0, 56, 100
2, 83136, Note_on_c, 0, 57, 80
2, 83324, Note_off_c, 0, 64, 100
2, 83324, Note_off_c, 0, 57, 100
2, 83328, Note_on_c, 0, 59, 80
2, 83328, Note_on_c, 0, 69, 80
2, 83516, Note_off_c, 0, 59, 100
2, 83520, Note_on_c, 0, 61, 80
2, 83708, Note_off_c, 0, 61, 100
2, 83712, Note_on_c, 0, 62, 80
2, 83900, Note_off_c, 0, 62, 100
2, 83904, Note_on_c, 0, 63, 80
2, 84092, Note_off_c, 0, 69, 100
2, 84092, Note_off_c, 0, 63, 100
2, 84096, Note_on_c, 0, 68, 80
2, 84096, Note_on_c, 0, 64, 80
2, 84096, Note_on_c, 0, 59, 80
2, 84860, Note_off_c, 0, 68, 100
2, 84860, Note_off_c, 0, 64, 100
2, 84860, Note_off_c, 0, 59, 100
2, 84864, Note_on_c, 0, 59, 80
2, 84864, Note_on_c, 0, 57, 80
2, 84864, Note_on_c, 0, 66, 80
2, 85628, Note_off_c, 0, 59, 100
2, 85628, Note_off_c, 0, 57, 100
2, 85628, Note_off_c, 0, 66, 100
2, 85632, Note_on_c, 0, 64, 70
2, 85632, Note_on_c, 0, 59, 70
2, 85632, Note_on_c, 0, 56, 70
2, 86012, Note_off_c, 0, 64, 100
2, 86012, Note_off_c, 0, 59, 100
2, 86012, Note_off_c, 0, 56, 100
2, 86400, Note_on_c, 0, 64, 70
2, 86400, Note_on_c, 0, 59, 70
2, 86400, Note_on_c, 0, 56, 70
2, 86780, Note_off_c, 0, 64, 100
2, 86780, Note_off_c, 0, 59, 100
2, 86780, Note_off_c, 0, 56, 100
2, 86784, Note_on_c, 0, 64, 70
2, 86784, Note_on_c, 0, 59, 70
2, 86784, Note_on_c, 0, 56, 70
2, 87164, Note_off_c, 0, 64, 100
2, 87164, Note_off_c, 0, 59, 100
2, 87164, Note_off_c, 0, 56, 100
2, 87168, Note_on_c, 0, 64, 70
2, 87168, Note_on_c, 0, 59, 70
2, 87168, Note_on_c, 0, 56, 70
2, 87548, Note_off_c, 0, 64, 100
2, 87548, Note_off_c, 0, 59, 100
2, 87548, Note_off_c, 0, 56, 100
2, 87936, Note_on_c, 0, 59, 70
2, 87936, Note_on_c, 0, 56, 70
2, 88316, Note_off_c, 0, 59, 100
2, 88316, Note_off_c, 0, 56, 100
2, 88704, Note_on_c, 0, 56, 70
2, 88704, Note_on_c, 0, 52, 70
2, 89084, Note_off_c, 0, 56, 100
2, 89084, Note_off_c, 0, 52, 100
2, 90048, Note_on_c, 0, 81, 80
2, 90048, Note_on_c, 0, 69, 80
2, 90236, Note_off_c, 0, 81, 100
2, 90236, Note_off_c, 0, 69, 100
2, 90240, Note_on_c, 0, 76, 80
2, 90240, Note_on_c, 0, 64, 80
2, 90620, Note_off_c, 0, 76, 100
2, 90620, Note_off_c, 0, 64, 100
2, 90816, Note_on_c, 0, 64, 80
2, 90860, Note_off_c, 0, 64, 100
2, 90864, Note_on_c, 0, 62, 80
2, 90908, Note_off_c, 0, 62, 100
2, 90912, Note_on_c, 0, 61, 80
2, 90956, Note_off_c, 0, 61, 100
2, 90960, Note_on_c, 0, 59, 80
2, 91004, Note_off_c, 0, 59, 100
2, 91008, Note_on_c, 0, 57, 80
2, 91388, Note_off_c, 0, 57, 100
2, 91584, Note_on_c, 0, 81, 80
2, 91584, Note_on_c, 0, 69, 80
2, 91772, Note_off_c, 0, 81, 100
2, 91772, Note_off_c, 0, 69, 100
2, 91776, Note_on_c, 0, 78, 80
2, 91776, Note_on_c, 0, 66, 80
2, 92156, Note_off_c, 0, 78, 100
2, 92156, Note_off_c, 0, 66, 100
2, 92352, Note_on_c, 0, 66, 80
2, 92396, Note_off_c, 0, 66, 100
2, 92400, Note_on_c, 0, 64, 80
2, 92444, Note_off_c, 0, 64, 100
2, 92448, Note_on_c, 0, 62, 80
2, 92492, Note_off_c, 0, 62, 100
2, 92496, Note_on_c, 0, 61, 80
2, 92540, Note_off_c, 0, 61, 100
2, 92544, Note_on_c, 0, 59, 80
2, 92924, Note_off_c, 0, 59, 100
2, 93120, Note_on_c, 0, 74, 80
2, 93120, Note_on_c, 0, 86, 80
2, 93308, Note_off_c, 0, 74, 100
2, 93308, Note_off_c, 0, 86, 100
2, 93312, Note_on_c, 0, 83, 80
2, 93312, Note_on_c, 0, 71, 80
2, 93692, Note_off_c, 0, 83, 100
2, 93692, Note_off_c, 0, 71, 100
2, 93696, Note_on_c, 0, 80, 80
2, 93696, Note_on_c, 0, 68, 80
2, 94076, Note_off_c, 0, 80, 100
2, 94076, Note_off_c, 0, 68, 100
2, 94080, Note_on_c, 0, 76, 80
2, 94080, Note_on_c, 0, 64, 80
2, 94460, Note_off_c, 0, 76, 100
2, 94460, Note_off_c, 0, 64, 100
2, 94464, Note_on_c, 0, 74, 80
2, 94464, Note_on_c, 0, 62, 80
2, 94844, Note_off_c, 0, 74, 100
2, 94844, Note_off_c, 0, 62, 100
2, 94848, Note_on_c, 0, 71, 80
2, 94848, Note_on_c, 0, 59, 80
2, 95228, Note_off_c, 0, 71, 100
2, 95228, Note_off_c, 0, 59, 100
2, 95232, Note_on_c, 0, 68, 80
2, 95232, Note_on_c, 0, 56, 80
2, 95612, Note_off_c, 0, 68, 100
2, 95612, Note_off_c, 0, 56, 100
2, 95616, Note_on_c, 0, 64, 80
2, 95616, Note_on_c, 0, 52, 80
2, 95996, Note_off_c, 0, 64, 100
2, 95996, Note_off_c, 0, 52, 100
2, 96192, Note_on_c, 0, 57, 80
2, 96252, Note_off_c, 0, 57, 100
2, 96256, Note_on_c, 0, 61, 80
2, 96316, Note_off_c, 0, 61, 100
2, 96320, Note_on_c, 0, 64, 80
2, 96380, Note_off_c, 0, 64, 100
2, 96384, Note_on_c, 0, 69, 100
2, 96572, Note_off_c, 0, 69, 100
2, 96576, Note_on_c, 0, 71, 80
2, 96764, Note_off_c, 0, 71, 100
2, 96768, Note_on_c, 0, 73, 80
2, 96956, Note_off_c, 0, 73, 100
2, 96960, Note_on_c, 0, 74, 80
2, 97148, Note_off_c, 0, 74, 100
2, 97152, Note_on_c, 0, 76, 80
2, 97340, Note_off_c, 0, 76, 100
2, 97344, Note_on_c, 0, 78, 80
2, 97532, Note_off_c, 0, 78, 100
2, 97536, Note_on_c, 0, 80, 80
2, 97724, Note_off_c, 0, 80, 100
2, 97728, Note_on_c, 0, 81, 80
2, 97916, Note_off_c, 0, 81, 100
2, 97920, Note_on_c, 0, 76, 80
2, 98112, Note_on_c, 0, 68, 80
2, 98300, Note_off_c, 0, 68, 100
2, 98304, Note_on_c, 0, 69, 80
2, 98492, Note_off_c, 0, 76, 100
2, 98492, Note_off_c, 0, 69, 100
2, 98496, Note_on_c, 0, 74, 80
2, 98496, Note_on_c, 0, 71, 80
2, 98684, Note_off_c, 0, 74, 100
2, 98684, Note_off_c, 0, 71, 100
2, 98688, Note_on_c, 0, 73, 80
2, 98688, Note_on_c, 0, 64, 80
2, 98876, Note_off_c, 0, 73, 100
2, 98876, Note_off_c, 0, 64, 100
2, 99648, Note_on_c, 0, 56, 80
2, 99648, Note_on_c, 0, 64, 80
2, 99836, Note_off_c, 0, 56, 100
2, 99836, Note_off_c, 0, 64, 100
2, 99840, Note_on_c, 0, 66, 80
2, 99840, Note_on_c, 0, 57, 80
2, 100028, Note_off_c, 0, 66, 100
2, 100028, Note_off_c, 0, 57, 100
2, 100032, Note_on_c, 0, 68, 80
2, 100032, Note_on_c, 0, 59, 80
2, 100220, Note_off_c, 0, 68, 100
2, 100220, Note_off_c, 0, 59, 100
2, 100224, Note_on_c, 0, 69, 80
2, 100224, Note_on_c, 0, 61, 80
2, 100412, Note_off_c, 0, 69, 100
2, 100412, Note_off_c, 0, 61, 100
2, 100416, Note_on_c, 0, 64, 80
2, 100604, Note_off_c, 0, 64, 100
2, 100608, Note_on_c, 0, 69, 80
2, 100796, Note_off_c, 0, 69, 100
2, 100800, Note_on_c, 0, 73, 80
2, 100988, Note_off_c, 0, 73, 100
2, 100992, Note_on_c, 0, 71, 80
2, 100992, Note_on_c, 0, 76, 80
2, 101180, Note_off_c, 0, 71, 100
2, 101184, Note_on_c, 0, 68, 80
2, 101372, Note_off_c, 0, 68, 100
2, 101376, Note_on_c, 0, 69, 80
2, 101564, Note_off_c, 0, 76, 100
2, 101564, Note_off_c, 0, 69, 100
2, 101568, Note_on_c, 0, 71, 80
2, 101568, Note_on_c, 0, 74, 80
2, 101756, Note_off_c, 0, 71, 100
2, 101756, Note_off_c, 0, 74, 100
2, 101760, Note_on_c, 0, 64, 80
2, 101760, Note_on_c, 0, 73, 80
2, 101948, Note_off_c, 0, 73, 100
2, 101952, Note_on_c, 0, 71, 80
2, 102140, Note_off_c, 0, 71, 100
2, 102144, Note_on_c, 0, 69, 80
2, 102332, Note_off_c, 0, 64, 100
2, 102332, Note_off_c, 0, 69, 100
2, 102336, Note_on_c, 0, 71, 80
2, 102336, Note_on_c, 0, 63, 80
2, 102524, Note_off_c, 0, 71, 100
2, 102524, Note_off_c, 0, 63, 100
2, 102528, Note_on_c, 0, 68, 70
2, 102528, Note_on_c, 0, 59, 70
2, 102716, Note_off_c, 0, 68, 100
2, 102720, Note_on_c, 0, 64, 70
2, 102908, Note_off_c, 0, 59, 100
2, 102908, Note_off_c, 0, 64, 100
2, 102912, Note_on_c, 0, 69, 70
2, 102912, Note_on_c, 0, 63, 70
2, 102912, Note_on_c, 0, 57, 70
2, 103100, Note_off_c, 0, 69, 100
2, 103104, Note_on_c, 0, 71, 70
2, 103292, Note_off_c, 0, 63, 100
2, 103292, Note_off_c, 0, 57, 100
2, 103292, Note_off_c, 0, 71, 100
2, 103296, Note_on_c, 0, 68, 70
2, 103296, Note_on_c, 0, 59, 70
2, 103484, Note_off_c, 0, 68, 100
2, 103488, Note_on_c, 0, 64, 70
2, 103676, Note_off_c, 0, 59, 100
2, 103676, Note_off_c, 0, 64, 100
2, 103680, Note_on_c, 0, 69, 70
2, 103680, Note_on_c, 0, 63, 70
2, 103680, Note_on_c, 0, 57, 70
2, 103868, Note_off_c, 0, 69, 100
2, 103872, Note_on_c, 0, 71, 70
2, 104060, Note_off_c, 0, 63, 100
2, 104060, Note_off_c, 0, 57, 100
2, 104060, Note_off_c, 0, 71, 100
2, 104064, Note_on_c, 0, 68, 70
2, 104064, Note_on_c, 0, 64, 70
2, 104064, Note_on_c, 0, 59, 70
2, 104444, Note_off_c, 0, 68, 100
2, 104444, Note_off_c, 0, 64, 100
2, 104444, Note_off_c, 0, 59, 100
2, 104448, Note_on_c, 0, 64, 70
2, 104448, Note_on_c, 0, 59, 70
2, 104448, Note_on_c, 0, 56, 70
2, 104828, Note_off_c, 0, 64, 100
2, 104828, Note_off_c, 0, 59, 100
2, 104828, Note_off_c, 0, 56, 100
2, 104832, Note_on_c, 0, 64, 70
2, 104832, Note_on_c, 0, 59, 70
2, 104832, Note_on_c, 0, 56, 70
2, 105212, Note_off_c, 0, 64, 100
2, 105212, Note_off_c, 0, 59, 100
2, 105212, Note_off_c, 0, 56, 100
2, 105408, Note_on_c, 0, 81, 100
2, 105408, Note_on_c, 0, 69, 100
2, 105596, Note_off_c, 0, 81, 100
2, 105596, Note_off_c, 0, 69, 100
2, 105600, Note_on_c, 0, 76, 100
2, 105600, Note_on_c, 0, 64, 100
2, 105980, Note_off_c, 0, 76, 100
2, 105980, Note_off_c, 0, 64, 100
2, 106176, Note_on_c, 0, 64, 100
2, 106220, Note_off_c, 0, 64, 100
2, 106224, Note_on_c, 0, 62, 100
2, 106268, Note_off_c, 0, 62, 100
2, 106272, Note_on_c, 0, 61, 100
2, 106316, Note_off_c, 0, 61, 100
2, 106320, Note_on_c, 0, 59, 100
2, 106364, Note_off_c, 0, 59, 100
2, 106368, Note_on_c, 0, 57, 100
2, 106748, Note_off_c, 0, 57, 100
2, 108864, Note_on_c, 0, 64, 80
2, 108864, Note_on_c, 0, 56, 80
2, 109052, Note_off_c, 0, 64, 100
2, 109052, Note_off_c, 0, 56, 100
2, 109056, Note_on_c, 0, 66, 80
2, 109056, Note_on_c, 0, 57, 80
2, 109244, Note_off_c, 0, 66, 100
2, 109244, Note_off_c, 0, 57, 100
2, 109248, Note_on_c, 0, 68, 80
2, 109248, Note_on_c, 0, 59, 80
2, 109436, Note_off_c, 0, 68, 100
2, 109436, Note_off_c, 0, 59, 100
2, 109440, Note_on_c, 0, 61, 80
2, 109440, Note_on_c, 0, 69, 80
2, 109628, Note_off_c, 0, 61, 100
2, 109628, Note_off_c, 0, 69, 100
2, 109632, Note_on_c, 0, 64, 80
2, 109820, Note_off_c, 0, 64, 100
2, 109824, Note_on_c, 0, 69, 80
2, 110012, Note_off_c, 0, 69, 100
2, 110016, Note_on_c, 0, 73, 80
2, 110204, Note_off_c, 0, 73, 100
2, 110208, Note_on_c, 0, 76, 106
2, 110208, Note_on_c, 0, 71, 80
2, 110396, Note_off_c, 0, 71, 100
2, 110400, Note_on_c, 0, 68, 80
2, 110588, Note_off_c, 0, 68, 100
2, 110592, Note_on_c, 0, 69, 80
2, 110780, Note_off_c, 0, 76, 100
2, 110780, Note_off_c, 0, 69, 100
2, 110784, Note_on_c, 0, 74, 80
2, 110784, Note_on_c, 0, 71, 80
2, 110972, Note_off_c, 0, 74, 100
2, 110972, Note_off_c, 0, 71, 100
2, 110976, Note_on_c, 0, 73, 80
2, 110976, Note_on_c, 0, 64, 80
2, 111356, Note_off_c, 0, 73, 100
2, 111356, Note_off_c, 0, 64, 100
2, 111936, Note_on_c, 0, 76, 80
2, 111936, Note_on_c, 0, 68, 80
2, 112124, Note_off_c, 0, 76, 100
2, 112124, Note_off_c, 0, 68, 100
2, 112128, Note_on_c, 0, 78, 80
2, 112128, Note_on_c, 0, 69, 80
2, 112316, Note_off_c, 0, 78, 100
2, 112316, Note_off_c, 0, 69, 100
2, 112320, Note_on_c, 0, 80, 80
2, 112320, Note_on_c, 0, 71, 80
2, 112508, Note_off_c, 0, 80, 100
2, 112508, Note_off_c, 0, 71, 100
2, 112512, Note_on_c, 0, 73, 80
2, 112512, Note_on_c, 0, 81, 80
2, 112700, Note_off_c, 0, 73, 100
2, 112700, Note_off_c, 0, 81, 100
2, 112704, Note_on_c, 0, 76, 80
2, 112704, Note_on_c, 0, 83, 80
2, 112892, Note_off_c, 0, 83, 100
2, 112896, Note_on_c, 0, 85, 80
2, 113084, Note_off_c, 0, 76, 100
2, 113084, Note_off_c, 0, 85, 100
2, 113088, Note_on_c, 0, 81, 80
2, 113088, Note_on_c, 0, 86, 80
2, 113276, Note_off_c, 0, 81, 100
2, 113276, Note_off_c, 0, 86, 100
2, 113280, Note_on_c, 0, 85, 80
2, 113280, Note_on_c, 0, 88, 80
2, 113660, Note_off_c, 0, 85, 100
2, 113660, Note_off_c, 0, 88, 100
2, 113664, Note_on_c, 0, 80, 80
2, 113664, Note_on_c, 0, 76, 80
2, 113664, Note_on_c, 0, 74, 80
2, 113664, Note_on_c, 0, 71, 80
2, 114044, Note_off_c, 0, 80, 100
2, 114044, Note_off_c, 0, 76, 100
2, 114044, Note_off_c, 0, 74, 100
2, 114044, Note_off_c, 0, 71, 100
2, 114048, Note_on_c, 0, 73, 110
2, 114048, Note_on_c, 0, 76, 110
2, 114048, Note_on_c, 0, 81, 110
2, 114428, Note_off_c, 0, 73, 100
2, 114428, Note_off_c, 0, 76, 100
2, 114428, Note_off_c, 0, 81, 100
2, 115584, Note_on_c, 0, 64, 110
2, 115648, Note_on_c, 0, 68, 110
2, 115708, Note_off_c, 0, 64, 100
2, 115712, Note_on_c, 0, 69, 110
2, 115772, Note_off_c, 0, 68, 100
2, 115776, Note_on_c, 0, 71, 110
2, 115836, Note_off_c, 0, 69, 100
2, 115840, Note_on_c, 0, 73, 110
2, 115900, Note_off_c, 0, 71, 100
2, 115904, Note_on_c, 0, 74, 110
2, 115964, Note_off_c, 0, 73, 100
2, 115968, Note_on_c, 0, 76, 110
2, 116028, Note_off_c, 0, 74, 100
2, 116032, Note_on_c, 0, 80, 110
2, 116092, Note_off_c, 0, 76, 100
2, 116096, Note_on_c, 0, 81, 110
2, 116156, Note_off_c, 0, 80, 100
2, 116160, Note_on_c, 0, 83, 110
2, 116220, Note_off_c, 0, 81, 100
2, 116224, Note_on_c, 0, 85, 110
2, 116284, Note_off_c, 0, 83, 100
2, 116288, Note_on_c, 0, 86, 110
2, 116348, Note_off_c, 0, 85, 100
2, 116348, Note_off_c, 0, 86, 100
2, 116352, Note_on_c, 0, 88, 110
2, 116540, Note_off_c, 0, 88, 100
2, 116544, Note_on_c, 0, 86, 110
2, 116732, Note_off_c, 0, 86, 100
2, 116736, Note_on_c, 0, 85, 110
2, 116924, Note_off_c, 0, 85, 100
2, 116928, Note_on_c, 0, 83, 110
2, 117116, Note_off_c, 0, 83, 100
2, 117120, Note_on_c, 0, 81, 110
2, 117500, Note_off_c, 0, 81, 100
2, 118720, Note_on_c, 0, 71, 110
2, 118784, Note_on_c, 0, 73, 110
2, 118844, Note_off_c, 0, 71, 100
2, 118848, Note_on_c, 0, 75, 110
2, 118908, Note_off_c, 0, 73, 100
2, 118912, Note_on_c, 0, 76, 110
2, 118972, Note_off_c, 0, 75, 100
2, 118976, Note_on_c, 0, 77, 110
2, 119036, Note_off_c, 0, 76, 100
2, 119040, Note_on_c, 0, 78, 110
2, 119100, Note_off_c, 0, 77, 100
2, 119104, Note_on_c, 0, 75, 110
2, 119164, Note_off_c, 0, 78, 100
2, 119168, Note_on_c, 0, 76, 110
2, 119228, Note_off_c, 0, 75, 100
2, 119232, Note_on_c, 0, 78, 110
2, 119292, Note_off_c, 0, 76, 100
2, 119296, Note_on_c, 0, 80, 110
2, 119356, Note_off_c, 0, 78, 100
2, 119360, Note_on_c, 0, 81, 110
2, 119420, Note_off_c, 0, 80, 100
2, 119420, Note_off_c, 0, 81, 100
2, 119424, Note_on_c, 0, 83, 120
2, 119612, Note_off_c, 0, 83, 100
2, 119616, Note_on_c, 0, 81, 120
2, 119804, Note_off_c, 0, 81, 100
2, 119808, Note_on_c, 0, 80, 120
2, 119996, Note_off_c, 0, 80, 100
2, 120000, Note_on_c, 0, 78, 120
2, 120188, Note_off_c, 0, 78, 100
2, 120192, Note_on_c, 0, 76, 120
2, 120380, Note_off_c, 0, 76, 100
2, 120384, Note_on_c, 0, 75, 120
2, 120572, Note_off_c, 0, 75, 100
2, 120576, Note_on_c, 0, 73, 120
2, 120764, Note_off_c, 0, 73, 100
2, 120768, Note_on_c, 0, 71, 120
2, 120956, Note_off_c, 0, 71, 100
2, 120960, Note_on_c, 0, 70, 120
2, 121148, Note_off_c, 0, 70, 100
2, 121152, Note_on_c, 0, 68, 120
2, 121340, Note_off_c, 0, 68, 100
2, 121344, Note_on_c, 0, 66, 120
2, 121532, Note_off_c, 0, 66, 100
2, 121536, Note_on_c, 0, 64, 120
2, 121724, Note_off_c, 0, 64, 100
2, 121728, Note_on_c, 0, 63, 80
2, 121920, Note_on_c, 0, 61, 80
2, 122108, Note_off_c, 0, 63, 100
2, 122108, Note_off_c, 0, 61, 100
2, 122112, Note_on_c, 0, 63, 80
2, 122112, Note_on_c, 0, 59, 80
2, 122300, Note_off_c, 0, 59, 100
2, 122304, Note_on_c, 0, 57, 80
2, 122492, Note_off_c, 0, 63, 100
2, 122492, Note_off_c, 0, 57, 100
2, 122496, Note_on_c, 0, 64, 80
2, 122496, Note_on_c, 0, 56, 80
2, 122684, Note_off_c, 0, 56, 100
2, 122688, Note_on_c, 0, 54, 80
2, 122876, Note_off_c, 0, 64, 100
2, 122876, Note_off_c, 0, 54, 100
2, 122880, Note_on_c, 0, 58, 80
2, 122880, Note_on_c, 0, 52, 80
2, 123068, Note_off_c, 0, 52, 100
2, 123072, Note_on_c, 0, 54, 80
2, 123260, Note_off_c, 0, 58, 100
2, 123260, Note_off_c, 0, 54, 100
2, 123264, Note_on_c, 0, 59, 80
2, 123264, Note_on_c, 0, 51, 80
2, 123452, Note_off_c, 0, 51, 100
2, 123456, Note_on_c, 0, 49, 80
2, 123644, Note_off_c, 0, 59, 100
2, 123644, Note_off_c, 0, 49, 100
2, 123648, Note_on_c, 0, 51, 80
2, 123648, Note_on_c, 0, 47, 80
2, 123836, Note_off_c, 0, 47, 100
2, 123840, Note_on_c, 0, 45, 80
2, 124028, Note_off_c, 0, 51, 100
2, 124028, Note_off_c, 0, 45, 100
2, 124032, Note_on_c, 0, 52, 80
2, 124032, Note_on_c, 0, 44, 80
2, 124220, Note_off_c, 0, 44, 100
2, 124224, Note_on_c, 0, 42, 80
2, 124412, Note_off_c, 0, 52, 100
2, 124412, Note_off_c, 0, 42, 100
2, 124416, Note_on_c, 0, 46, 80
2, 124416, Note_on_c, 0, 40, 80
2, 124604, Note_off_c, 0, 40, 100
2, 124608, Note_on_c, 0, 42, 80
2, 124796, Note_off_c, 0, 46, 100
2, 124796, Note_off_c, 0, 42, 100
2, 124800, Note_on_c, 0, 39, 80
2, 124800, Note_on_c, 0, 47, 80
2, 125180, Note_off_c, 0, 39, 100
2, 125180, Note_off_c, 0, 47, 100
2, 126912, Note_on_c, 0, 59, 80
2, 127100, Note_off_c, 0, 59, 100
2, 127104, Note_on_c, 0, 60, 80
2, 127292, Note_off_c, 0, 60, 100
2, 127296, Note_on_c, 0, 59, 80
2, 127484, Note_off_c, 0, 59, 100
2, 127488, Note_on_c, 0, 66, 80
2, 127676, Note_off_c, 0, 66, 100
2, 127680, Note_on_c, 0, 63, 80
2, 127868, Note_off_c, 0, 63, 100
2, 128448, Note_on_c, 0, 59, 80
2, 128636, Note_off_c, 0, 59, 100
2, 128640, Note_on_c, 0, 60, 80
2, 128828, Note_off_c, 0, 60, 100
2, 128832, Note_on_c, 0, 59, 80
2, 129020, Note_off_c, 0, 59, 100
2, 129024, Note_on_c, 0, 66, 80
2, 129212, Note_off_c, 0, 66, 100
2, 129216, Note_on_c, 0, 63, 80
2, 129404, Note_off_c, 0, 63, 100
2, 129984, Note_on_c, 0, 59, 80
2, 130172, Note_off_c, 0, 59, 100
2, 130176, Note_on_c, 0, 60, 80
2, 130364, Note_off_c, 0, 60, 100
2, 130368, Note_on_c, 0, 59, 80
2, 130556, Note_off_c, 0, 59, 100
2, 130560, Note_on_c, 0, 67, 80
2, 130748, Note_off_c, 0, 67, 100
2, 130752, Note_on_c, 0, 64, 80
2, 130940, Note_off_c, 0, 64, 100
2, 131712, Note_on_c, 0, 63, 100
2, 131900, Note_off_c, 0, 63, 100
2, 131904, Note_on_c, 0, 66, 100
2, 132092, Note_off_c, 0, 66, 100
2, 132096, Note_on_c, 0, 69, 100
2, 132284, Note_off_c, 0, 69, 100
2, 132288, Note_on_c, 0, 71, 100
2, 132476, Note_off_c, 0, 71, 100
2, 132480, Note_on_c, 0, 72, 100
2, 132668, Note_off_c, 0, 72, 100
2, 132672, Note_on_c, 0, 71, 100
2, 132860, Note_off_c, 0, 71, 100
2, 132864, Note_on_c, 0, 74, 100
2, 133052, Note_off_c, 0, 74, 100
2, 133056, Note_on_c, 0, 72, 100
2, 133244, Note_off_c, 0, 72, 100
2, 133248, Note_on_c, 0, 71, 100
2, 133436, Note_off_c, 0, 71, 100
2, 133440, Note_on_c, 0, 69, 100
2, 133628, Note_off_c, 0, 69, 100
2, 133632, Note_on_c, 0, 67, 100
2, 133820, Note_off_c, 0, 67, 100
2, 133824, Note_on_c, 0, 66, 100
2, 134012, Note_off_c, 0, 66, 100
2, 134016, Note_on_c, 0, 64, 100
2, 134396, Note_off_c, 0, 64, 100
2, 134592, Note_on_c, 0, 76, 100
2, 134780, Note_off_c, 0, 76, 100
2, 134784, Note_on_c, 0, 75, 100
2, 134972, Note_off_c, 0, 75, 100
2, 134976, Note_on_c, 0, 76, 100
2, 135164, Note_off_c, 0, 76, 100
2, 135168, Note_on_c, 0, 79, 100
2, 135356, Note_off_c, 0, 79, 100
2, 135360, Note_on_c, 0, 76, 100
2, 135548, Note_off_c, 0, 76, 100
2, 135552, Note_on_c, 0, 76, 100
2, 135836, Note_off_c, 0, 76, 100
2, 135840, Note_on_c, 0, 78, 100
2, 135884, Note_off_c, 0, 78, 100
2, 135888, Note_on_c, 0, 76, 100
2, 135932, Note_off_c, 0, 76, 100
2, 135936, Note_on_c, 0, 75, 100
2, 136700, Note_off_c, 0, 75, 100
2, 136704, Note_on_c, 0, 74, 100
2, 137084, Note_off_c, 0, 74, 100
2, 137088, Note_on_c, 0, 74, 100
2, 137660, Note_off_c, 0, 74, 100
2, 137664, Note_on_c, 0, 79, 100
2, 137852, Note_off_c, 0, 79, 100
2, 137856, Note_on_c, 0, 78, 100
2, 138044, Note_off_c, 0, 78, 100
2, 138048, Note_on_c, 0, 79, 100
2, 138236, Note_off_c, 0, 79, 100
2, 138240, Note_on_c, 0, 83, 100
2, 138428, Note_off_c, 0, 83, 100
2, 138432, Note_on_c, 0, 79, 100
2, 138620, Note_off_c, 0, 79, 100
2, 138624, Note_on_c, 0, 79, 100
2, 138908, Note_off_c, 0, 79, 100
2, 138912, Note_on_c, 0, 81, 100
2, 138956, Note_off_c, 0, 81, 100
2, 138960, Note_on_c, 0, 79, 100
2, 139004, Note_off_c, 0, 79, 100
2, 139008, Note_on_c, 0, 78, 100
2, 139772, Note_off_c, 0, 78, 100
2, 139776, Note_on_c, 0, 77, 100
2, 140156, Note_off_c, 0, 77, 100
2, 140160, Note_on_c, 0, 77, 100
2, 140732, Note_off_c, 0, 77, 100
2, 140736, Note_on_c, 0, 82, 100
2, 140924, Note_off_c, 0, 82, 100
2, 140928, Note_on_c, 0, 81, 100
2, 141116, Note_off_c, 0, 81, 100
2, 141120, Note_on_c, 0, 82, 100
2, 141308, Note_off_c, 0, 82, 100
2, 141312, Note_on_c, 0, 86, 100
2, 141500, Note_off_c, 0, 86, 100
2, 141504, Note_on_c, 0, 82, 100
2, 141692, Note_off_c, 0, 82, 100
2, 141696, Note_on_c, 0, 82, 100
2, 141980, Note_off_c, 0, 82, 100
2, 141984, Note_on_c, 0, 84, 100
2, 142028, Note_off_c, 0, 84, 100
2, 142032, Note_on_c, 0, 82, 100
2, 142076, Note_off_c, 0, 82, 100
2, 142080, Note_on_c, 0, 81, 100
2, 142844, Note_off_c, 0, 81, 100
2, 142848, Note_on_c, 0, 81, 100
2, 143228, Note_off_c, 0, 81, 100
2, 143232, Note_on_c, 0, 81, 100
2, 143420, Note_off_c, 0, 81, 100
2, 143424, Note_on_c, 0, 83, 100
2, 143472, Note_on_c, 0, 81, 100
2, 143516, Note_off_c, 0, 83, 100
2, 143520, Note_on_c, 0, 80, 100
2, 143564, Note_off_c, 0, 81, 100
2, 143568, Note_on_c, 0, 81, 100
2, 143612, Note_off_c, 0, 80, 100
2, 143612, Note_off_c, 0, 81, 100
2, 143616, Note_on_c, 0, 72, 100
2, 143616, Note_on_c, 0, 84, 100
2, 144380, Note_off_c, 0, 72, 100
2, 144380, Note_off_c, 0, 84, 100
2, 144384, Note_on_c, 0, 71, 100
2, 144384, Note_on_c, 0, 83, 100
2, 144764, Note_off_c, 0, 71, 100
2, 144764, Note_off_c, 0, 83, 100
2, 144768, Note_on_c, 0, 83, 100
2, 144956, Note_off_c, 0, 83, 100
2, 144960, Note_on_c, 0, 85, 100
2, 145008, Note_on_c, 0, 83, 100
2, 145052, Note_off_c, 0, 85, 100
2, 145056, Note_on_c, 0, 82, 100
2, 145100, Note_off_c, 0, 83, 100
2, 145104, Note_on_c, 0, 83, 100
2, 145148, Note_off_c, 0, 82, 100
2, 145148, Note_off_c, 0, 83, 100
2, 145152, Note_on_c, 0, 74, 100
2, 145152, Note_on_c, 0, 86, 100
2, 145916, Note_off_c, 0, 74, 100
2, 145916, Note_off_c, 0, 86, 100
2, 145920, Note_on_c, 0, 73, 100
2, 145920, Note_on_c, 0, 85, 100
2, 146300, Note_off_c, 0, 73, 100
2, 146300, Note_off_c, 0, 85, 100
2, 146304, Note_on_c, 0, 85, 100
2, 146492, Note_off_c, 0, 85, 100
2, 146496, Note_on_c, 0, 87, 100
2, 146544, Note_on_c, 0, 85, 100
2, 146588, Note_off_c, 0, 87, 100
2, 146592, Note_on_c, 0, 84, 100
2, 146636, Note_off_c, 0, 85, 100
2, 146640, Note_on_c, 0, 85, 100
2, 146684, Note_off_c, 0, 84, 100
2, 146684, Note_off_c, 0, 85, 100
2, 146688, Note_on_c, 0, 76, 100
2, 146688, Note_on_c, 0, 88, 100
2, 147452, Note_off_c, 0, 76, 100
2, 147452, Note_off_c, 0, 88, 100
2, 147456, Note_on_c, 0, 75, 100
2, 147456, Note_on_c, 0, 87, 100
2, 147836, Note_off_c, 0, 75, 100
2, 147836, Note_off_c, 0, 87, 100
2, 147840, Note_on_c, 0, 75, 100
2, 147840, Note_on_c, 0, 87, 100
2, 148220, Note_off_c, 0, 75, 100
2, 148220, Note_off_c, 0, 87, 100
2, 148416, Note_on_c, 0, 60, 120
2, 148464, Note_on_c, 0, 59, 120
2, 148508, Note_off_c, 0, 60, 100
2, 148512, Note_on_c, 0, 57, 120
2, 148556, Note_off_c, 0, 59, 100
2, 148560, Note_on_c, 0, 55, 120
2, 148604, Note_off_c, 0, 57, 100
2, 148604, Note_off_c, 0, 55, 100
2, 148608, Note_on_c, 0, 54, 120
2, 148988, Note_off_c, 0, 54, 100
2, 149184, Note_on_c, 0, 76, 100
2, 149184, Note_on_c, 0, 88, 100
2, 149372, Note_off_c, 0, 76, 100
2, 149372, Note_off_c, 0, 88, 100
2, 149376, Note_on_c, 0, 75, 100
2, 149376, Note_on_c, 0, 87, 100
2, 149756, Note_off_c, 0, 75, 100
2, 149756, Note_off_c, 0, 87, 100
2, 149952, Note_on_c, 0, 60, 120
2, 150000, Note_on_c, 0, 59, 120
2, 150044, Note_off_c, 0, 60, 100
2, 150048, Note_on_c, 0, 57, 120
2, 150092, Note_off_c, 0, 59, 100
2, 150096, Note_on_c, 0, 55, 120
2, 150140, Note_off_c, 0, 57, 100
2, 150140, Note_off_c, 0, 55, 100
2, 150144, Note_on_c, 0, 54, 120
2, 150524, Note_off_c, 0, 54, 100
2, 150720, Note_on_c, 0, 88, 90
2, 150908, Note_off_c, 0, 88, 100
2, 150912, Note_on_c, 0, 87, 90
2, 151292, Note_off_c, 0, 87, 100
2, 151488, Note_on_c, 0, 88, 90
2, 151676, Note_off_c, 0, 88, 100
2, 151680, Note_on_c, 0, 87, 90
2, 152060, Note_off_c, 0, 87, 100
2, 152256, Note_on_c, 0, 88, 90
2, 152444, Note_off_c, 0, 88, 100
2, 152448, Note_on_c, 0, 87, 90
2, 152828, Note_off_c, 0, 87, 100
2, 153792, Note_on_c, 0, 83, 90
2, 153980, Note_off_c, 0, 83, 100
2, 154176, Note_on_c, 0, 76, 120
2, 154240, Note_on_c, 0, 88, 120
2, 154300, Note_off_c, 0, 76, 100
2, 154304, Note_on_c, 0, 76, 120
2, 154364, Note_off_c, 0, 88, 100
2, 154368, Note_on_c, 0, 71, 120
2, 154428, Note_off_c, 0, 76, 100
2, 154432, Note_on_c, 0, 83, 120
2, 154492, Note_off_c, 0, 71, 100
2, 154496, Note_on_c, 0, 71, 120
2, 154556, Note_off_c, 0, 83, 100
2, 154560, Note_on_c, 0, 68, 120
2, 154620, Note_off_c, 0, 71, 100
2, 154624, Note_on_c, 0, 80, 120
2, 154684, Note_off_c, 0, 68, 100
2, 154688, Note_on_c, 0, 68, 120
2, 154748, Note_off_c, 0, 80, 100
2, 154752, Note_on_c, 0, 64, 120
2, 154812, Note_off_c, 0, 68, 100
2, 154816, Note_on_c, 0, 76, 120
2, 154876, Note_off_c, 0, 64, 100
2, 154880, Note_on_c, 0, 64, 120
2, 154940, Note_off_c, 0, 76, 100
2, 154944, Note_on_c, 0, 59, 120
2, 155004, Note_off_c, 0, 64, 100
2, 155008, Note_on_c, 0, 71, 120
2, 155068, Note_off_c, 0, 59, 100
2, 155072, Note_on_c, 0, 59, 120
2, 155132, Note_off_c, 0, 71, 100
2, 155136, Note_on_c, 0, 56, 120
2, 155196, Note_off_c, 0, 59, 100
2, 155200, Note_on_c, 0, 68, 120
2, 155260, Note_off_c, 0, 56, 100
2, 155264, Note_on_c, 0, 56, 120
2, 155324, Note_off_c, 0, 68, 100
2, 155328, Note_on_c, 0, 52, 120
2, 155388, Note_off_c, 0, 56, 100
2, 155392, Note_on_c, 0, 64, 120
2, 155452, Note_off_c, 0, 52, 100
2, 155456, Note_on_c, 0, 52, 120
2, 155516, Note_off_c, 0, 64, 100
2, 155516, Note_off_c, 0, 52, 100
2, 155520, Note_on_c, 0, 52, 120
2, 155520, Note_on_c, 0, 54, 120
2, 156284, Note_off_c, 0, 52, 100
2, 156284, Note_off_c, 0, 54, 100
2, 156288, Note_on_c, 0, 59, 120
2, 156288, Note_on_c, 0, 51, 120
2, 157052, Note_off_c, 0, 59, 100
2, 157052, Note_off_c, 0, 51, 100
2, 157248, Note_on_c, 0, 52, 120
2, 157312, Note_on_c, 0, 64, 120
2, 157364, Note_off_c, 0, 52, 100
2, 157376, Note_on_c, 0, 52, 120
2, 157428, Note_off_c, 0, 64, 100
2, 157440, Note_on_c, 0, 56, 120
2, 157492, Note_off_c, 0, 52, 100
2, 157504, Note_on_c, 0, 68, 120
2, 157552, Note_off_c, 0, 56, 100
2, 157568, Note_on_c, 0, 56, 120
2, 157632, Note_off_c, 0, 68, 100
2, 157632, Note_on_c, 0, 59, 120
2, 157684, Note_off_c, 0, 56, 100
2, 157696, Note_on_c, 0, 71, 120
2, 157748, Note_off_c, 0, 59, 100
2, 157760, Note_on_c, 0, 59, 120
2, 157812, Note_off_c, 0, 71, 100
2, 157824, Note_on_c, 0, 64, 120
2, 157868, Note_off_c, 0, 59, 100
2, 157888, Note_on_c, 0, 76, 120
2, 157948, Note_off_c, 0, 64, 100
2, 157952, Note_on_c, 0, 64, 120
2, 158012, Note_off_c, 0, 76, 100
2, 158016, Note_on_c, 0, 68, 120
2, 158076, Note_off_c, 0, 64, 100
2, 158080, Note_on_c, 0, 80, 120
2, 158140, Note_off_c, 0, 68, 100
2, 158144, Note_on_c, 0, 68, 120
2, 158204, Note_off_c, 0, 80, 100
2, 158208, Note_on_c, 0, 71, 120
2, 158268, Note_off_c, 0, 68, 100
2, 158272, Note_on_c, 0, 83, 120
2, 158332, Note_off_c, 0, 71, 100
2, 158336, Note_on_c, 0, 71, 120
2, 158396, Note_off_c, 0, 83, 100
2, 158400, Note_on_c, 0, 76, 120
2, 158460, Note_off_c, 0, 71, 100
2, 158464, Note_on_c, 0, 88, 120
2, 158524, Note_off_c, 0, 76, 100
2, 158528, Note_on_c, 0, 76, 120
2, 158588, Note_off_c, 0, 88, 100
2, 158588, Note_off_c, 0, 76, 100
2, 158592, Note_on_c, 0, 78, 120
2, 158592, Note_on_c, 0, 76, 120
2, 159356, Note_off_c, 0, 78, 100
2, 159356, Note_off_c, 0, 76, 100
2, 159360, Note_on_c, 0, 75, 120
2, 159360, Note_on_c, 0, 83, 120
2, 160124, Note_off_c, 0, 75, 100
2, 160124, Note_off_c, 0, 83, 100
2, 160128, Note_on_c, 0, 76, 100
2, 160316, Note_off_c, 0, 76, 100
2, 160576, Note_on_c, 0, 80, 100
2, 160640, Note_on_c, 0, 81, 100
2, 160700, Note_off_c, 0, 80, 100
2, 160704, Note_on_c, 0, 83, 100
2, 160764, Note_off_c, 0, 81, 100
2, 160768, Note_on_c, 0, 85, 100
2, 160828, Note_off_c, 0, 83, 100
2, 160832, Note_on_c, 0, 87, 100
2, 160892, Note_off_c, 0, 85, 100
2, 160892, Note_off_c, 0, 87, 100
2, 160896, Note_on_c, 0, 88, 100
2, 161084, Note_off_c, 0, 88, 100
2, 161088, Note_on_c, 0, 87, 100
2, 161276, Note_off_c, 0, 87, 100
2, 161280, Note_on_c, 0, 85, 100
2, 161468, Note_off_c, 0, 85, 100
2, 161472, Note_on_c, 0, 83, 100
2, 161660, Note_off_c, 0, 83, 100
2, 161664, Note_on_c, 0, 81, 100
2, 161852, Note_off_c, 0, 81, 100
2, 161856, Note_on_c, 0, 80, 100
2, 162044, Note_off_c, 0, 80, 100
2, 162048, Note_on_c, 0, 78, 100
2, 162236, Note_off_c, 0, 78, 100
2, 162240, Note_on_c, 0, 76, 100
2, 162428, Note_off_c, 0, 76, 100
2, 162432, Note_on_c, 0, 75, 100
2, 162620, Note_off_c, 0, 75, 100
2, 163200, Note_on_c, 0, 64, 100
2, 163580, Note_off_c, 0, 64, 100
2, 164736, Note_on_c, 0, 61, 110
2, 164800, Note_on_c, 0, 63, 110
2, 164860, Note_off_c, 0, 61, 100
2, 164864, Note_on_c, 0, 64, 110
2, 164924, Note_off_c, 0, 63, 100
2, 164928, Note_on_c, 0, 66, 110
2, 164988, Note_off_c, 0, 64, 100
2, 164992, Note_on_c, 0, 68, 110
2, 165052, Note_off_c, 0, 66, 100
2, 165056, Note_on_c, 0, 69, 110
2, 165116, Note_off_c, 0, 68, 100
2, 165120, Note_on_c, 0, 71, 110
2, 165180, Note_off_c, 0, 69, 100
2, 165184, Note_on_c, 0, 75, 110
2, 165244, Note_off_c, 0, 71, 100
2, 165248, Note_on_c, 0, 76, 110
2, 165308, Note_off_c, 0, 75, 100
2, 165312, Note_on_c, 0, 78, 110
2, 165372, Note_off_c, 0, 76, 100
2, 165376, Note_on_c, 0, 80, 110
2, 165436, Note_off_c, 0, 78, 100
2, 165440, Note_on_c, 0, 81, 110
2, 165500, Note_off_c, 0, 80, 100
2, 165500, Note_off_c, 0, 81, 100
2, 165504, Note_on_c, 0, 83, 120
2, 165692, Note_off_c, 0, 83, 100
2, 165696, Note_on_c, 0, 81, 120
2, 165884, Note_off_c, 0, 81, 100
2, 165888, Note_on_c, 0, 80, 120
2, 166076, Note_off_c, 0, 80, 100
2, 166080, Note_on_c, 0, 78, 120
2, 166268, Note_off_c, 0, 78, 100
2, 166272, Note_on_c, 0, 76, 120
2, 166460, Note_off_c, 0, 76, 100
2, 166464, Note_on_c, 0, 75, 120
2, 166652, Note_off_c, 0, 75, 100
2, 166656, Note_on_c, 0, 73, 120
2, 166844, Note_off_c, 0, 73, 100
2, 166848, Note_on_c, 0, 71, 120
2, 167036, Note_off_c, 0, 71, 100
2, 167040, Note_on_c, 0, 69, 120
2, 167228, Note_off_c, 0, 69, 100
2, 167232, Note_on_c, 0, 68, 120
2, 167420, Note_off_c, 0, 68, 100
2, 167424, Note_on_c, 0, 66, 120
2, 167612, Note_off_c, 0, 66, 100
2, 167616, Note_on_c, 0, 64, 120
2, 167804, Note_off_c, 0, 64, 100
2, 167808, Note_on_c, 0, 63, 120
2, 167996, Note_off_c, 0, 63, 100
2, 168000, Note_on_c, 0, 61, 120
2, 168188, Note_off_c, 0, 61, 100
2, 168192, Note_on_c, 0, 59, 120
2, 168380, Note_off_c, 0, 59, 100
2, 168384, Note_on_c, 0, 57, 120
2, 168572, Note_off_c, 0, 57, 100
2, 168576, Note_on_c, 0, 56, 120
2, 168764, Note_off_c, 0, 56, 100
2, 168768, Note_on_c, 0, 54, 120
2, 168956, Note_off_c, 0, 54, 100
2, 168960, Note_on_c, 0, 52, 120
2, 169148, Note_off_c, 0, 52, 100
2, 169152, Note_on_c, 0, 51, 120
2, 169340, Note_off_c, 0, 51, 100
2, 169344, Note_on_c, 0, 52, 80
2, 169532, Note_off_c, 0, 52, 100
2, 169536, Note_on_c, 0, 54, 80
2, 169724, Note_off_c, 0, 54, 100
2, 169728, Note_on_c, 0, 56, 80
2, 169916, Note_off_c, 0, 56, 100
2, 169920, Note_on_c, 0, 57, 80
2, 170108, Note_off_c, 0, 57, 100
2, 170112, Note_on_c, 0, 59, 80
2, 170112, Note_on_c, 0, 69, 80
2, 170300, Note_off_c, 0, 59, 100
2, 170304, Note_on_c, 0, 61, 80
2, 170492, Note_off_c, 0, 61, 100
2, 170496, Note_on_c, 0, 62, 80
2, 170684, Note_off_c, 0, 62, 100
2, 170688, Note_on_c, 0, 63, 80
2, 170876, Note_off_c, 0, 69, 100
2, 170876, Note_off_c, 0, 63, 100
2, 170880, Note_on_c, 0, 68, 80
2, 170880, Note_on_c, 0, 64, 80
2, 170880, Note_on_c, 0, 59, 80
2, 171644, Note_off_c, 0, 68, 100
2, 171644, Note_off_c, 0, 64, 100
2, 171644, Note_off_c, 0, 59, 100
2, 171648, Note_on_c, 0, 59, 80
2, 171648, Note_on_c, 0, 57, 80
2, 171648, Note_on_c, 0, 66, 80
2, 172412, Note_off_c, 0, 59, 100
2, 172412, Note_off_c, 0, 57, 100
2, 172412, Note_off_c, 0, 66, 100
2, 172416, Note_on_c, 0, 56, 80
2, 172416, Note_on_c, 0, 64, 80
2, 172604, Note_off_c, 0, 56, 100
2, 172608, Note_on_c, 0, 54, 80
2, 172796, Note_off_c, 0, 54, 100
2, 172800, Note_on_c, 0, 56, 80
2, 172988, Note_off_c, 0, 56, 100
2, 172992, Note_on_c, 0, 57, 80
2, 173180, Note_off_c, 0, 64, 100
2, 173180, Note_off_c, 0, 57, 100
2, 173184, Note_on_c, 0, 59, 80
2, 173184, Note_on_c, 0, 69, 80
2, 173372, Note_off_c, 0, 59, 100
2, 173376, Note_on_c, 0, 61, 80
2, 173564, Note_off_c, 0, 61, 100
2, 173568, Note_on_c, 0, 62, 80
2, 173756, Note_off_c, 0, 62, 100
2, 173760, Note_on_c, 0, 63, 80
2, 173948, Note_off_c, 0, 69, 100
2, 173948, Note_off_c, 0, 63, 100
2, 173952, Note_on_c, 0, 68, 80
2, 173952, Note_on_c, 0, 64, 80
2, 173952, Note_on_c, 0, 59, 80
2, 174716, Note_off_c, 0, 68, 100
2, 174716, Note_off_c, 0, 64, 100
2, 174716, Note_off_c, 0, 59, 100
2, 174720, Note_on_c, 0, 59, 80
2, 174720, Note_on_c, 0, 57, 80
2, 174720, Note_on_c, 0, 66, 80
2, 175484, Note_off_c, 0, 59, 100
2, 175484, Note_off_c, 0, 57, 100
2, 175484, Note_off_c, 0, 66, 100
2, 175488, Note_on_c, 0, 64, 70
2, 175488, Note_on_c, 0, 59, 70
2, 175488, Note_on_c, 0, 56, 70
2, 175868, Note_off_c, 0, 64, 100
2, 175868, Note_off_c, 0, 59, 100
2, 175868, Note_off_c, 0, 56, 100
2, 176256, Note_on_c, 0, 64, 70
2, 176256, Note_on_c, 0, 59, 70
2, 176256, Note_on_c, 0, 56, 70
2, 176636, Note_off_c, 0, 64, 100
2, 176636, Note_off_c, 0, 59, 100
2, 176636, Note_off_c, 0, 56, 100
2, 176640, Note_on_c, 0, 64, 70
2, 176640, Note_on_c, 0, 59, 70
2, 176640, Note_on_c, 0, 56, 70
2, 177020, Note_off_c, 0, 64, 100
2, 177020, Note_off_c, 0, 59, 100
2, 177020, Note_off_c, 0, 56, 100
2, 177024, Note_on_c, 0, 64, 70
2, 177024, Note_on_c, 0, 59, 70
2, 177024, Note_on_c, 0, 56, 70
2, 177404, Note_off_c, 0, 64, 100
2, 177404, Note_off_c, 0, 59, 100
2, 177404, Note_off_c, 0, 56, 100
2, 177792, Note_on_c, 0, 59, 70
2, 177792, Note_on_c, 0, 56, 70
2, 178172, Note_off_c, 0, 59, 100
2, 178172, Note_off_c, 0, 56, 100
2, 178560, Note_on_c, 0, 56, 70
2, 178560, Note_on_c, 0, 52, 70
2, 178940, Note_off_c, 0, 56, 100
2, 178940, Note_off_c, 0, 52, 100
2, 180864, Note_on_c, 0, 67, 70
2, 180864, Note_on_c, 0, 71, 70
2, 181244, Note_off_c, 0, 67, 100
2, 181244, Note_off_c, 0, 71, 100
2, 181632, Note_on_c, 0, 67, 70
2, 182012, Note_off_c, 0, 67, 100
2, 182400, Key_signature, 0, "major"
2, 182976, Note_on_c, 0, 72, 110
2, 182976, Note_on_c, 0, 84, 110
2, 183164, Note_off_c, 0, 72, 100
2, 183164, Note_off_c, 0, 84, 100
2, 183168, Note_on_c, 0, 67, 110
2, 183168, Note_on_c, 0, 79, 110
2, 183548, Note_off_c, 0, 67, 100
2, 183548, Note_off_c, 0, 79, 100
2, 183744, Note_on_c, 0, 67, 110
2, 183792, Note_on_c, 0, 65, 110
2, 183836, Note_off_c, 0, 67, 100
2, 183840, Note_on_c, 0, 64, 110
2, 183884, Note_off_c, 0, 65, 100
2, 183888, Note_on_c, 0, 62, 110
2, 183932, Note_off_c, 0, 64, 100
2, 183932, Note_off_c, 0, 62, 100
2, 183936, Note_on_c, 0, 60, 110
2, 184316, Note_off_c, 0, 60, 100
2, 184512, Note_on_c, 0, 72, 110
2, 184512, Note_on_c, 0, 84, 110
2, 184700, Note_off_c, 0, 72, 100
2, 184700, Note_off_c, 0, 84, 100
2, 184704, Note_on_c, 0, 69, 110
2, 184704, Note_on_c, 0, 81, 110
2, 185084, Note_off_c, 0, 69, 100
2, 185084, Note_off_c, 0, 81, 100
2, 185280, Note_on_c, 0, 69, 110
2, 185328, Note_on_c, 0, 67, 110
2, 185372, Note_off_c, 0, 69, 100
2, 185376, Note_on_c, 0, 65, 110
2, 185420, Note_off_c, 0, 67, 100
2, 185424, Note_on_c, 0, 64, 110
2, 185468, Note_off_c, 0, 65, 100
2, 185468, Note_off_c, 0, 64, 100
2, 185472, Note_on_c, 0, 62, 110
2, 185852, Note_off_c, 0, 62, 100
2, 186048, Note_on_c, 0, 77, 110
2, 186048, Note_on_c, 0, 89, 110
2, 186236, Note_off_c, 0, 77, 100
2, 186236, Note_off_c, 0, 89, 100
2, 186240, Note_on_c, 0, 86, 110
2, 186240, Note_on_c, 0, 74, 110
2, 186620, Note_off_c, 0, 86, 100
2, 186620, Note_off_c, 0, 74, 100
2, 186624, Note_on_c, 0, 83, 110
2, 186624, Note_on_c, 0, 71, 110
2, 187004, Note_off_c, 0, 83, 100
2, 187004, Note_off_c, 0, 71, 100
2, 187008, Note_on_c, 0, 79, 110
2, 187008, Note_on_c, 0, 67, 110
2, 187388, Note_off_c, 0, 79, 100
2, 187388, Note_off_c, 0, 67, 100
2, 187392, Note_on_c, 0, 77, 110
2, 187392, Note_on_c, 0, 65, 110
2, 187772, Note_off_c, 0, 77, 100
2, 187772, Note_off_c, 0, 65, 100
2, 187776, Note_on_c, 0, 74, 110
2, 187776, Note_on_c, 0, 62, 110
2, 188156, Note_off_c, 0, 74, 100
2, 188156, Note_off_c, 0, 62, 100
2, 188160, Note_on_c, 0, 71, 110
2, 188160, Note_on_c, 0, 59, 110
2, 188540, Note_off_c, 0, 71, 100
2, 188540, Note_off_c, 0, 59, 100
2, 188544, Note_on_c, 0, 67, 110
2, 188544, Note_on_c, 0, 55, 110
2, 188924, Note_off_c, 0, 67, 100
2, 188924, Note_off_c, 0, 55, 100
2, 188928, Note_on_c, 0, 67, 120
2, 188928, Note_on_c, 0, 55, 120
2, 189308, Note_off_c, 0, 67, 100
2, 189308, Note_off_c, 0, 55, 100
2, 189312, Note_on_c, 0, 56, 110
2, 189312, Note_on_c, 0, 68, 110
2, 189408, Note_on_c, 0, 63, 110
2, 189472, Note_off_c, 0, 68, 100
2, 189500, Note_off_c, 0, 56, 100
2, 189504, Note_on_c, 0, 60, 110
2, 189504, Note_on_c, 0, 56, 110
2, 189580, Note_off_c, 0, 63, 100
2, 189600, Note_on_c, 0, 63, 110
2, 189672, Note_off_c, 0, 60, 100
2, 189688, Note_off_c, 0, 56, 100
2, 189696, Note_on_c, 0, 60, 110
2, 189696, Note_on_c, 0, 56, 110
2, 189776, Note_off_c, 0, 63, 100
2, 189792, Note_on_c, 0, 63, 110
2, 189848, Note_off_c, 0, 60, 100
2, 189860, Note_off_c, 0, 56, 100
2, 189888, Note_on_c, 0, 60, 110
2, 189888, Note_on_c, 0, 56, 110
2, 189956, Note_off_c, 0, 63, 100
2, 189984, Note_on_c, 0, 63, 110
2, 190036, Note_off_c, 0, 60, 100
2, 190044, Note_off_c, 0, 56, 100
2, 190080, Note_on_c, 0, 60, 110
2, 190080, Note_on_c, 0, 56, 110
2, 190152, Note_off_c, 0, 63, 100
2, 190176, Note_on_c, 0, 63, 110
2, 190248, Note_off_c, 0, 60, 100
2, 190264, Note_off_c, 0, 56, 100
2, 190272, Note_on_c, 0, 60, 110
2, 190272, Note_on_c, 0, 56, 110
2, 190344, Note_off_c, 0, 63, 100
2, 190368, Note_on_c, 0, 63, 110
2, 190428, Note_off_c, 0, 56, 100
2, 190432, Note_off_c, 0, 60, 100
2, 190464, Note_on_c, 0, 60, 110
2, 190464, Note_on_c, 0, 56, 110
2, 190544, Note_off_c, 0, 63, 100
2, 190560, Note_on_c, 0, 63, 110
2, 190616, Note_off_c, 0, 60, 100
2, 190624, Note_off_c, 0, 56, 100
2, 190656, Note_on_c, 0, 60, 110
2, 190656, Note_on_c, 0, 56, 110
2, 190724, Note_off_c, 0, 63, 100
2, 190752, Note_on_c, 0, 63, 110
2, 190816, Note_off_c, 0, 56, 100
2, 190840, Note_off_c, 0, 60, 100
2, 190848, Note_on_c, 0, 60, 110
2, 190848, Note_on_c, 0, 56, 110
2, 190912, Note_off_c, 0, 63, 100
2, 190944, Note_on_c, 0, 63, 110
2, 191008, Note_off_c, 0, 60, 100
2, 191012, Note_off_c, 0, 56, 100
2, 191040, Note_on_c, 0, 60, 110
2, 191040, Note_on_c, 0, 56, 110
2, 191100, Note_off_c, 0, 63, 100
2, 191136, Note_on_c, 0, 63, 110
2, 191192, Note_off_c, 0, 60, 100
2, 191216, Note_off_c, 0, 56, 100
2, 191232, Note_on_c, 0, 60, 110
2, 191232, Note_on_c, 0, 56, 110
2, 191312, Note_off_c, 0, 63, 100
2, 191328, Note_on_c, 0, 63, 110
2, 191400, Note_off_c, 0, 60, 100
2, 191404, Note_off_c, 0, 56, 100
2, 191424, Note_on_c, 0, 87, 110
2, 191424, Note_on_c, 0, 60, 110
2, 191424, Note_on_c, 0, 56, 110
2, 191508, Note_off_c, 0, 63, 100
2, 191520, Note_on_c, 0, 63, 110
2, 191592, Note_off_c, 0, 56, 100
2, 191600, Note_off_c, 0, 60, 100
2, 191612, Note_off_c, 0, 87, 100
2, 191616, Note_on_c, 0, 60, 110
2, 191616, Note_on_c, 0, 56, 110
2, 191616, Note_on_c, 0, 84, 110
2, 191672, Note_off_c, 0, 63, 100
2, 191712, Note_on_c, 0, 63, 110
2, 191772, Note_off_c, 0, 56, 100
2, 191776, Note_off_c, 0, 60, 100
2, 191808, Note_on_c, 0, 60, 110
2, 191808, Note_on_c, 0, 56, 110
2, 191892, Note_off_c, 0, 63, 100
2, 191904, Note_on_c, 0, 63, 110
2, 191976, Note_off_c, 0, 60, 100
2, 191976, Note_off_c, 0, 56, 100
2, 191996, Note_off_c, 0, 84, 100
2, 192000, Note_on_c, 0, 60, 110
2, 192000, Note_on_c, 0, 56, 110
2, 192000, Note_on_c, 0, 80, 110
2, 192076, Note_off_c, 0, 63, 100
2, 192096, Note_on_c, 0, 63, 110
2, 192164, Note_off_c, 0, 60, 100
2, 192168, Note_off_c, 0, 56, 100
2, 192192, Note_on_c, 0, 60, 110
2, 192192, Note_on_c, 0, 56, 110
2, 192276, Note_off_c, 0, 63, 100
2, 192288, Note_on_c, 0, 63, 110
2, 192372, Note_off_c, 0, 56, 100
2, 192376, Note_off_c, 0, 60, 100
2, 192380, Note_off_c, 0, 80, 100
2, 192384, Note_on_c, 0, 60, 110
2, 192384, Note_on_c, 0, 56, 110
2, 192384, Note_on_c, 0, 75, 110
2, 192452, Note_off_c, 0, 63, 100
2, 192480, Note_on_c, 0, 63, 110
2, 192552, Note_off_c, 0, 56, 100
2, 192576, Note_on_c, 0, 60, 110
2, 192576, Note_on_c, 0, 56, 110
2, 192600, Note_off_c, 0, 60, 100
2, 192636, Note_off_c, 0, 63, 100
2, 192672, Note_on_c, 0, 63, 110
2, 192732, Note_off_c, 0, 56, 100
2, 192752, Note_off_c, 0, 60, 100
2, 192764, Note_off_c, 0, 75, 100
2, 192768, Note_on_c, 0, 60, 110
2, 192768, Note_on_c, 0, 56, 110
2, 192768, Note_on_c, 0, 72, 110
2, 192840, Note_off_c, 0, 63, 100
2, 192864, Note_on_c, 0, 63, 110
2, 192924, Note_off_c, 0, 56, 100
2, 192940, Note_off_c, 0, 60, 100
2, 192960, Note_on_c, 0, 60, 110
2, 192960, Note_on_c, 0, 56, 110
2, 193044, Note_off_c, 0, 63, 100
2, 193056, Note_on_c, 0, 63, 110
2, 193120, Note_off_c, 0, 60, 100
2, 193136, Note_off_c, 0, 56, 100
2, 193148, Note_off_c, 0, 72, 100
2, 193152, Note_on_c, 0, 60, 110
2, 193152, Note_on_c, 0, 56, 110
2, 193152, Note_on_c, 0, 70, 110
2, 193216, Note_off_c, 0, 63, 100
2, 193248, Note_on_c, 0, 63, 110
2, 193316, Note_off_c, 0, 60, 100
2, 193324, Note_off_c, 0, 56, 100
2, 193344, Note_on_c, 0, 60, 110
2, 193344, Note_on_c, 0, 56, 110
2, 193420, Note_off_c, 0, 63, 100
2, 193440, Note_on_c, 0, 63, 110
2, 193500, Note_off_c, 0, 60, 100
2, 193524, Note_off_c, 0, 56, 100
2, 193532, Note_off_c, 0, 70, 100
2, 193536, Note_on_c, 0, 60, 110
2, 193536, Note_on_c, 0, 56, 110
2, 193536, Note_on_c, 0, 68, 110
2, 193608, Note_off_c, 0, 63, 100
2, 193632, Note_on_c, 0, 63, 110
2, 193692, Note_off_c, 0, 56, 100
2, 193704, Note_off_c, 0, 60, 100
2, 193728, Note_on_c, 0, 60, 110
2, 193728, Note_on_c, 0, 56, 110
2, 193780, Note_off_c, 0, 63, 100
2, 193824, Note_on_c, 0, 63, 110
2, 193880, Note_off_c, 0, 56, 100
2, 193900, Note_off_c, 0, 60, 100
2, 193916, Note_off_c, 0, 68, 100
2, 193920, Note_on_c, 0, 61, 110
2, 193920, Note_on_c, 0, 58, 110
2, 193920, Note_on_c, 0, 55, 110
2, 193920, Note_on_c, 0, 67, 110
2, 193992, Note_off_c, 0, 63, 100
2, 194016, Note_on_c, 0, 63, 110
2, 194084, Note_off_c, 0, 61, 100
2, 194088, Note_off_c, 0, 55, 100
2, 194096, Note_off_c, 0, 58, 100
2, 194112, Note_on_c, 0, 61, 110
2, 194112, Note_on_c, 0, 58, 110
2, 194112, Note_on_c, 0, 55, 110
2, 194196, Note_off_c, 0, 63, 100
2, 194208, Note_on_c, 0, 63, 110
2, 194256, Note_off_c, 0, 58, 100
2, 194280, Note_off_c, 0, 55, 100
2, 194296, Note_off_c, 0, 61, 100
2, 194300, Note_off_c, 0, 67, 100
2, 194304, Note_on_c, 0, 61, 110
2, 194304, Note_on_c, 0, 58, 110
2, 194304, Note_on_c, 0, 55, 110
2, 194360, Note_off_c, 0, 63, 100
2, 194400, Note_on_c, 0, 63, 110
2, 194456, Note_off_c, 0, 58, 100
2, 194456, Note_off_c, 0, 55, 100
2, 194468, Note_off_c, 0, 61, 100
2, 194496, Note_on_c, 0, 61, 110
2, 194496, Note_on_c, 0, 58, 110
2, 194496, Note_on_c, 0, 55, 110
2, 194544, Note_off_c, 0, 63, 100
2, 194592, Note_on_c, 0, 63, 110
2, 194652, Note_off_c, 0, 58, 100
2, 194652, Note_off_c, 0, 55, 100
2, 194664, Note_off_c, 0, 61, 100
2, 194688, Note_on_c, 0, 61, 110
2, 194688, Note_on_c, 0, 58, 110
2, 194688, Note_on_c, 0, 55, 110
2, 194748, Note_off_c, 0, 63, 100
2, 194784, Note_on_c, 0, 63, 110
2, 194844, Note_off_c, 0, 61, 100
2, 194844, Note_off_c, 0, 58, 100
2, 194864, Note_off_c, 0, 55, 100
2, 194880, Note_on_c, 0, 61, 110
2, 194880, Note_on_c, 0, 58, 110
2, 194880, Note_on_c, 0, 55, 110
2, 194972, Note_off_c, 0, 63, 100
2, 194976, Note_on_c, 0, 63, 110
2, 195024, Note_off_c, 0, 61, 100
2, 195032, Note_off_c, 0, 58, 100
2, 195036, Note_off_c, 0, 55, 100
2, 195072, Note_on_c, 0, 61, 110
2, 195072, Note_on_c, 0, 58, 110
2, 195072, Note_on_c, 0, 55, 110
2, 195152, Note_off_c, 0, 63, 100
2, 195168, Note_on_c, 0, 63, 110
2, 195232, Note_off_c, 0, 58, 100
2, 195236, Note_off_c, 0, 55, 100
2, 195240, Note_off_c, 0, 61, 100
2, 195264, Note_on_c, 0, 61, 110
2, 195264, Note_on_c, 0, 58, 110
2, 195264, Note_on_c, 0, 55, 110
2, 195340, Note_off_c, 0, 63, 100
2, 195360, Note_on_c, 0, 63, 110
2, 195416, Note_off_c, 0, 55, 100
2, 195424, Note_off_c, 0, 61, 100
2, 195432, Note_off_c, 0, 58, 100
2, 195456, Note_on_c, 0, 61, 110
2, 195456, Note_on_c, 0, 58, 110
2, 195456, Note_on_c, 0, 55, 110
2, 195540, Note_off_c, 0, 63, 100
2, 195552, Note_on_c, 0, 63, 110
2, 195616, Note_off_c, 0, 61, 100
2, 195616, Note_off_c, 0, 58, 100
2, 195616, Note_off_c, 0, 55, 100
2, 195648, Note_on_c, 0, 61, 110
2, 195648, Note_on_c, 0, 58, 110
2, 195648, Note_on_c, 0, 55, 110
2, 195716, Note_off_c, 0, 63, 100
2, 195744, Note_on_c, 0, 63, 110
2, 195800, Note_off_c, 0, 58, 100
2, 195804, Note_off_c, 0, 61, 100
2, 195808, Note_off_c, 0, 55, 100
2, 195840, Note_on_c, 0, 61, 110
2, 195840, Note_on_c, 0, 58, 110
2, 195840, Note_on_c, 0, 55, 110
2, 195900, Note_off_c, 0, 63, 100
2, 195936, Note_on_c, 0, 63, 110
2, 196004, Note_off_c, 0, 61, 100
2, 196004, Note_off_c, 0, 58, 100
2, 196028, Note_off_c, 0, 55, 100
2, 196032, Note_on_c, 0, 61, 110
2, 196032, Note_on_c, 0, 58, 110
2, 196032, Note_on_c, 0, 55, 110
2, 196032, Note_on_c, 0, 85, 110
2, 196088, Note_off_c, 0, 63, 100
2, 196128, Note_on_c, 0, 63, 110
2, 196192, Note_off_c, 0, 61, 100
2, 196192, Note_off_c, 0, 55, 100
2, 196196, Note_off_c, 0, 58, 100
2, 196220, Note_off_c, 0, 85, 100
2, 196224, Note_on_c, 0, 61, 110
2, 196224, Note_on_c, 0, 58, 110
2, 196224, Note_on_c, 0, 55, 110
2, 196224, Note_on_c, 0, 82, 110
2, 196296, Note_off_c, 0, 63, 100
2, 196320, Note_on_c, 0, 63, 110
2, 196384, Note_off_c, 0, 58, 100
2, 196384, Note_off_c, 0, 55, 100
2, 196396, Note_off_c, 0, 61, 100
2, 196416, Note_on_c, 0, 61, 110
2, 196416, Note_on_c, 0, 58, 110
2, 196416, Note_on_c, 0, 55, 110
2, 196476, Note_off_c, 0, 63, 100
2, 196512, Note_on_c, 0, 63, 110
2, 196576, Note_off_c, 0, 61, 100
2, 196580, Note_off_c, 0, 58, 100
2, 196580, Note_off_c, 0, 55, 100
2, 196604, Note_off_c, 0, 82, 100
2, 196608, Note_on_c, 0, 61, 110
2, 196608, Note_on_c, 0, 58, 110
2, 196608, Note_on_c, 0, 55, 110
2, 196608, Note_on_c, 0, 79, 110
2, 196672, Note_off_c, 0, 63, 100
2, 196704, Note_on_c, 0, 63, 110
2, 196776, Note_off_c, 0, 61, 100
2, 196788, Note_off_c, 0, 58, 100
2, 196788, Note_off_c, 0, 55, 100
2, 196800, Note_on_c, 0, 61, 110
2, 196800, Note_on_c, 0, 58, 110
2, 196800, Note_on_c, 0, 55, 110
2, 196876, Note_off_c, 0, 63, 100
2, 196896, Note_on_c, 0, 63, 110
2, 196968, Note_off_c, 0, 61, 100
2, 196972, Note_off_c, 0, 55, 100
2, 196984, Note_off_c, 0, 58, 100
2, 196988, Note_off_c, 0, 79, 100
2, 196992, Note_on_c, 0, 61, 110
2, 196992, Note_on_c, 0, 58, 110
2, 196992, Note_on_c, 0, 55, 110
2, 196992, Note_on_c, 0, 73, 110
2, 197060, Note_off_c, 0, 63, 100
2, 197088, Note_on_c, 0, 63, 110
2, 197152, Note_off_c, 0, 61, 100
2, 197160, Note_off_c, 0, 58, 100
2, 197168, Note_off_c, 0, 55, 100
2, 197184, Note_on_c, 0, 61, 110
2, 197184, Note_on_c, 0, 58, 110
2, 197184, Note_on_c, 0, 55, 110
2, 197260, Note_off_c, 0, 63, 100
2, 197280, Note_on_c, 0, 63, 110
2, 197348, Note_off_c, 0, 61, 100
2, 197352, Note_off_c, 0, 55, 100
2, 197360, Note_off_c, 0, 58, 100
2, 197372, Note_off_c, 0, 73, 100
2, 197376, Note_on_c, 0, 70, 110
2, 197376, Note_on_c, 0, 61, 110
2, 197376, Note_on_c, 0, 58, 110
2, 197376, Note_on_c, 0, 55, 110
2, 197452, Note_off_c, 0, 63, 100
2, 197472, Note_on_c, 0, 63, 110
2, 197524, Note_off_c, 0, 55, 100
2, 197540, Note_off_c, 0, 61, 100
2, 197564, Note_off_c, 0, 58, 100
2, 197568, Note_on_c, 0, 61, 110
2, 197568, Note_on_c, 0, 58, 110
2, 197568, Note_on_c, 0, 55, 110
2, 197648, Note_off_c, 0, 63, 100
2, 197664, Note_on_c, 0, 63, 110
2, 197728, Note_off_c, 0, 58, 100
2, 197732, Note_off_c, 0, 61, 100
2, 197732, Note_off_c, 0, 55, 100
2, 197756, Note_off_c, 0, 70, 100
2, 197760, Note_on_c, 0, 58, 110
2, 197760, Note_on_c, 0, 55, 110
2, 197760, Note_on_c, 0, 67, 110
2, 197824, Note_off_c, 0, 63, 100
2, 197856, Note_on_c, 0, 61, 110
2, 197928, Note_off_c, 0, 58, 100
2, 197936, Note_off_c, 0, 55, 100
2, 197952, Note_on_c, 0, 55, 110
2, 197952, Note_on_c, 0, 58, 110
2, 198020, Note_off_c, 0, 61, 100
2, 198048, Note_on_c, 0, 61, 110
2, 198104, Note_off_c, 0, 55, 100
2, 198112, Note_off_c, 0, 58, 100
2, 198140, Note_off_c, 0, 67, 100
2, 198144, Note_on_c, 0, 58, 110
2, 198144, Note_on_c, 0, 55, 110
2, 198144, Note_on_c, 0, 65, 110
2, 198204, Note_off_c, 0, 61, 100
2, 198240, Note_on_c, 0, 61, 110
2, 198292, Note_off_c, 0, 58, 100
2, 198300, Note_off_c, 0, 55, 100
2, 198336, Note_on_c, 0, 55, 110
2, 198336, Note_on_c, 0, 58, 110
2, 198400, Note_off_c, 0, 61, 100
2, 198432, Note_on_c, 0, 61, 110
2, 198488, Note_off_c, 0, 55, 100
2, 198492, Note_off_c, 0, 58, 100
2, 198524, Note_off_c, 0, 65, 100
2, 198528, Note_on_c, 0, 55, 110
2, 198528, Note_on_c, 0, 58, 110
2, 198528, Note_on_c, 0, 64, 120
2, 198592, Note_off_c, 0, 61, 100
2, 198624, Note_on_c, 0, 60, 110
2, 198668, Note_off_c, 0, 58, 100
2, 198700, Note_off_c, 0, 55, 100
2, 198720, Note_on_c, 0, 55, 110
2, 198720, Note_on_c, 0, 58, 110
2, 198772, Note_off_c, 0, 60, 100
2, 198816, Note_on_c, 0, 60, 110
2, 198868, Note_off_c, 0, 55, 100
2, 198888, Note_off_c, 0, 58, 100
2, 198908, Note_off_c, 0, 64, 100
2, 198912, Note_on_c, 0, 55, 110
2, 198912, Note_on_c, 0, 58, 110
2, 198980, Note_off_c, 0, 60, 100
2, 199008, Note_on_c, 0, 60, 110
2, 199068, Note_off_c, 0, 58, 100
2, 199080, Note_off_c, 0, 55, 100
2, 199104, Note_on_c, 0, 55, 110
2, 199104, Note_on_c, 0, 58, 110
2, 199160, Note_off_c, 0, 60, 100
2, 199200, Note_on_c, 0, 60, 110
2, 199260, Note_off_c, 0, 55, 100
2, 199268, Note_off_c, 0, 58, 100
2, 199296, Note_on_c, 0, 55, 110
2, 199296, Note_on_c, 0, 58, 110
2, 199360, Note_off_c, 0, 60, 100
2, 199392, Note_on_c, 0, 60, 110
2, 199436, Note_off_c, 0, 58, 100
2, 199460, Note_off_c, 0, 55, 100
2, 199488, Note_on_c, 0, 55, 110
2, 199488, Note_on_c, 0, 58, 110
2, 199564, Note_off_c, 0, 60, 100
2, 199584, Note_on_c, 0, 60, 110
2, 199632, Note_off_c, 0, 58, 100
2, 199664, Note_off_c, 0, 55, 100
2, 199680, Note_on_c, 0, 55, 110
2, 199680, Note_on_c, 0, 58, 110
2, 199744, Note_off_c, 0, 60, 100
2, 199776, Note_on_c, 0, 60, 110
2, 199820, Note_off_c, 0, 55, 100
2, 199832, Note_off_c, 0, 58, 100
2, 199872, Note_on_c, 0, 55, 110
2, 199872, Note_on_c, 0, 58, 110
2, 199924, Note_off_c, 0, 60, 100
2, 199968, Note_on_c, 0, 60, 110
2, 200020, Note_off_c, 0, 55, 100
2, 200028, Note_off_c, 0, 58, 100
2, 200064, Note_on_c, 0, 55, 110
2, 200064, Note_on_c, 0, 58, 110
2, 200132, Note_off_c, 0, 60, 100
2, 200160, Note_on_c, 0, 60, 110
2, 200228, Note_off_c, 0, 58, 100
2, 200232, Note_off_c, 0, 55, 100
2, 200256, Note_on_c, 0, 55, 110
2, 200256, Note_on_c, 0, 58, 110
2, 200328, Note_off_c, 0, 60, 100
2, 200352, Note_on_c, 0, 60, 110
2, 200412, Note_off_c, 0, 55, 100
2, 200412, Note_off_c, 0, 58, 100
2, 200448, Note_on_c, 0, 55, 110
2, 200448, Note_on_c, 0, 58, 110
2, 200508, Note_off_c, 0, 60, 100
2, 200544, Note_on_c, 0, 60, 110
2, 200612, Note_off_c, 0, 58, 100
2, 200616, Note_off_c, 0, 55, 100
2, 200640, Note_on_c, 0, 55, 110
2, 200640, Note_on_c, 0, 58, 110
2, 200640, Note_on_c, 0, 82, 110
2, 200720, Note_off_c, 0, 60, 100
2, 200736, Note_on_c, 0, 60, 110
2, 200800, Note_off_c, 0, 55, 100
2, 200804, Note_off_c, 0, 58, 100
2, 200828, Note_off_c, 0, 82, 100
2, 200832, Note_on_c, 0, 55, 110
2, 200832, Note_on_c, 0, 58, 110
2, 200832, Note_on_c, 0, 79, 110
2, 200904, Note_off_c, 0, 60, 100
2, 200928, Note_on_c, 0, 60, 110
2, 200992, Note_off_c, 0, 58, 100
2, 200996, Note_off_c, 0, 55, 100
2, 201024, Note_on_c, 0, 55, 110
2, 201024, Note_on_c, 0, 58, 110
2, 201092, Note_off_c, 0, 60, 100
2, 201120, Note_on_c, 0, 60, 110
2, 201184, Note_off_c, 0, 55, 100
2, 201188, Note_off_c, 0, 58, 100
2, 201212, Note_off_c, 0, 79, 100
2, 201216, Note_on_c, 0, 76, 120
2, 201216, Note_on_c, 0, 55, 110
2, 201216, Note_on_c, 0, 58, 110
2, 201288, Note_off_c, 0, 60, 100
2, 201312, Note_on_c, 0, 60, 110
2, 201376, Note_off_c, 0, 55, 100
2, 201392, Note_off_c, 0, 58, 100
2, 201408, Note_on_c, 0, 55, 110
2, 201408, Note_on_c, 0, 58, 110
2, 201476, Note_off_c, 0, 60, 100
2, 201504, Note_on_c, 0, 60, 110
2, 201568, Note_off_c, 0, 55, 100
2, 201572, Note_off_c, 0, 58, 100
2, 201596, Note_off_c, 0, 76, 100
2, 201600, Note_on_c, 0, 55, 110
2, 201600, Note_on_c, 0, 58, 110
2, 201600, Note_on_c, 0, 72, 120
2, 201680, Note_off_c, 0, 60, 100
2, 201696, Note_on_c, 0, 60, 110
2, 201752, Note_off_c, 0, 58, 100
2, 201776, Note_off_c, 0, 55, 100
2, 201792, Note_on_c, 0, 55, 110
2, 201792, Note_on_c, 0, 58, 110
2, 201844, Note_off_c, 0, 60, 100
2, 201888, Note_on_c, 0, 60, 110
2, 201948, Note_off_c, 0, 55, 100
2, 201956, Note_off_c, 0, 58, 100
2, 201980, Note_off_c, 0, 72, 100
2, 201984, Note_on_c, 0, 70, 121
2, 201984, Note_on_c, 0, 55, 110
2, 201984, Note_on_c, 0, 58, 110
2, 202048, Note_off_c, 0, 60, 100
2, 202080, Note_on_c, 0, 60, 110
2, 202136, Note_off_c, 0, 58, 100
2, 202164, Note_off_c, 0, 55, 100
2, 202176, Note_on_c, 0, 55, 110
2, 202176, Note_on_c, 0, 58, 110
2, 202220, Note_off_c, 0, 60, 100
2, 202272, Note_on_c, 0, 60, 110
2, 202320, Note_off_c, 0, 55, 100
2, 202340, Note_off_c, 0, 58, 100
2, 202364, Note_off_c, 0, 70, 100
2, 202368, Note_on_c, 0, 55, 110
2, 202368, Note_on_c, 0, 58, 110
2, 202368, Note_on_c, 0, 67, 120
2, 202428, Note_off_c, 0, 60, 100
2, 202464, Note_on_c, 0, 60, 110
2, 202532, Note_off_c, 0, 55, 100
2, 202536, Note_off_c, 0, 58, 100
2, 202560, Note_on_c, 0, 55, 110
2, 202560, Note_on_c, 0, 58, 110
2, 202616, Note_off_c, 0, 60, 100
2, 202656, Note_on_c, 0, 60, 110
2, 202716, Note_off_c, 0, 55, 100
2, 202716, Note_off_c, 0, 58, 100
2, 202748, Note_off_c, 0, 67, 100
2, 202752, Note_on_c, 0, 55, 110
2, 202752, Note_on_c, 0, 58, 110
2, 202752, Note_on_c, 0, 64, 120
2, 202816, Note_off_c, 0, 60, 100
2, 202848, Note_on_c, 0, 60, 110
2, 202908, Note_off_c, 0, 55, 100
2, 202912, Note_off_c, 0, 58, 100
2, 202944, Note_on_c, 0, 55, 110
2, 202944, Note_on_c, 0, 58, 110
2, 202988, Note_off_c, 0, 60, 100
2, 203040, Note_on_c, 0, 60, 110
2, 203108, Note_off_c, 0, 55, 100
2, 203132, Note_off_c, 0, 64, 100
2, 203132, Note_off_c, 0, 58, 100
2, 203136, Note_on_c, 0, 53, 110
2, 203136, Note_on_c, 0, 56, 110
2, 203216, Note_off_c, 0, 60, 100
2, 203232, Note_on_c, 0, 60, 110
2, 203304, Note_off_c, 0, 53, 100
2, 203312, Note_off_c, 0, 56, 100
2, 203328, Note_on_c, 0, 53, 110
2, 203328, Note_on_c, 0, 56, 110
2, 203392, Note_off_c, 0, 60, 100
2, 203424, Note_on_c, 0, 60, 110
2, 203496, Note_off_c, 0, 53, 100
2, 203496, Note_off_c, 0, 56, 100
2, 203520, Note_on_c, 0, 53, 110
2, 203520, Note_on_c, 0, 56, 110
2, 203596, Note_off_c, 0, 60, 100
2, 203616, Note_on_c, 0, 60, 110
2, 203684, Note_off_c, 0, 56, 100
2, 203688, Note_off_c, 0, 53, 100
2, 203712, Note_on_c, 0, 53, 110
2, 203712, Note_on_c, 0, 56, 110
2, 203712, Note_on_c, 0, 84, 120
2, 203796, Note_off_c, 0, 60, 100
2, 203808, Note_on_c, 0, 60, 110
2, 203864, Note_off_c, 0, 53, 100
2, 203884, Note_off_c, 0, 56, 100
2, 203900, Note_off_c, 0, 84, 100
2, 203904, Note_on_c, 0, 53, 110
2, 203904, Note_on_c, 0, 56, 110
2, 203904, Note_on_c, 0, 80, 122
2, 203972, Note_off_c, 0, 60, 100
2, 204000, Note_on_c, 0, 60, 110
2, 204068, Note_off_c, 0, 53, 100
2, 204068, Note_off_c, 0, 56, 100
2, 204096, Note_on_c, 0, 53, 110
2, 204096, Note_on_c, 0, 56, 110
2, 204160, Note_off_c, 0, 60, 100
2, 204192, Note_on_c, 0, 60, 110
2, 204256, Note_off_c, 0, 53, 100
2, 204268, Note_off_c, 0, 56, 100
2, 204284, Note_off_c, 0, 80, 100
2, 204288, Note_on_c, 0, 77, 120
2, 204288, Note_on_c, 0, 53, 110
2, 204288, Note_on_c, 0, 56, 110
2, 204344, Note_off_c, 0, 60, 100
2, 204384, Note_on_c, 0, 60, 110
2, 204440, Note_off_c, 0, 56, 100
2, 204444, Note_off_c, 0, 53, 100
2, 204480, Note_on_c, 0, 53, 110
2, 204480, Note_on_c, 0, 56, 110
2, 204544, Note_off_c, 0, 60, 100
2, 204576, Note_on_c, 0, 60, 110
2, 204628, Note_off_c, 0, 53, 100
2, 204640, Note_off_c, 0, 56, 100
2, 204668, Note_off_c, 0, 77, 100
2, 204672, Note_on_c, 0, 53, 110
2, 204672, Note_on_c, 0, 56, 110
2, 204672, Note_on_c, 0, 72, 120
2, 204732, Note_off_c, 0, 60, 100
2, 204768, Note_on_c, 0, 60, 110
2, 204828, Note_off_c, 0, 53, 100
2, 204828, Note_off_c, 0, 56, 100
2, 204864, Note_on_c, 0, 53, 110
2, 204864, Note_on_c, 0, 56, 110
2, 204904, Note_off_c, 0, 60, 100
2, 204960, Note_on_c, 0, 60, 110
2, 205008, Note_off_c, 0, 53, 100
2, 205012, Note_off_c, 0, 56, 100
2, 205052, Note_off_c, 0, 72, 100
2, 205056, Note_on_c, 0, 53, 110
2, 205056, Note_on_c, 0, 56, 110
2, 205056, Note_on_c, 0, 72, 120
2, 205104, Note_off_c, 0, 60, 100
2, 205152, Note_on_c, 0, 60, 110
2, 205204, Note_off_c, 0, 53, 100
2, 205208, Note_off_c, 0, 56, 100
2, 205248, Note_on_c, 0, 53, 110
2, 205248, Note_on_c, 0, 56, 110
2, 205288, Note_off_c, 0, 60, 100
2, 205344, Note_on_c, 0, 60, 110
2, 205400, Note_off_c, 0, 53, 100
2, 205400, Note_off_c, 0, 56, 100
2, 205436, Note_off_c, 0, 72, 100
2, 205440, Note_on_c, 0, 53, 110
2, 205440, Note_on_c, 0, 56, 110
2, 205440, Note_on_c, 0, 68, 121
2, 205500, Note_off_c, 0, 60, 100
2, 205536, Note_on_c, 0, 60, 110
2, 205600, Note_off_c, 0, 53, 100
2, 205608, Note_off_c, 0, 56, 100
2, 205632, Note_on_c, 0, 53, 110
2, 205632, Note_on_c, 0, 56, 110
2, 205680, Note_off_c, 0, 60, 100
2, 205728, Note_on_c, 0, 60, 110
2, 205776, Note_off_c, 0, 53, 100
2, 205784, Note_off_c, 0, 56, 100
2, 205820, Note_off_c, 0, 68, 100
2, 205824, Note_on_c, 0, 53, 110
2, 205824, Note_on_c, 0, 56, 110
2, 205824, Note_on_c, 0, 65, 123
2, 205880, Note_off_c, 0, 60, 100
2, 205920, Note_on_c, 0, 60, 110
2, 205988, Note_off_c, 0, 56, 100
2, 205992, Note_off_c, 0, 53, 100
2, 206016, Note_on_c, 0, 53, 110
2, 206016, Note_on_c, 0, 56, 110
2, 206084, Note_off_c, 0, 60, 100
2, 206112, Note_on_c, 0, 60, 110
2, 206192, Note_off_c, 0, 53, 100
2, 206196, Note_off_c, 0, 56, 100
2, 206204, Note_off_c, 0, 65, 100
2, 206208, Note_on_c, 0, 56, 110
2, 206208, Note_on_c, 0, 59, 110
2, 206208, Note_on_c, 0, 62, 110
2, 206208, Note_on_c, 0, 53, 110
2, 206276, Note_off_c, 0, 60, 100
2, 206304, Note_on_c, 0, 62, 110
2, 206360, Note_off_c, 0, 53, 100
2, 206364, Note_off_c, 0, 56, 100
2, 206364, Note_off_c, 0, 59, 100
2, 206364, Note_off_c, 0, 62, 100
2, 206400, Note_on_c, 0, 56, 110
2, 206400, Note_on_c, 0, 59, 110
2, 206400, Note_on_c, 0, 62, 110
2, 206400, Note_on_c, 0, 53, 110
2, 206452, Note_off_c, 0, 62, 100
2, 206496, Note_on_c, 0, 62, 110
2, 206560, Note_off_c, 0, 59, 100
2, 206564, Note_off_c, 0, 56, 100
2, 206564, Note_off_c, 0, 62, 100
2, 206564, Note_off_c, 0, 53, 100
2, 206592, Note_on_c, 0, 56, 110
2, 206592, Note_on_c, 0, 59, 110
2, 206592, Note_on_c, 0, 62, 110
2, 206592, Note_on_c, 0, 53, 110
2, 206684, Note_off_c, 0, 62, 100
2, 206688, Note_on_c, 0, 62, 110
2, 206748, Note_off_c, 0, 56, 100
2, 206752, Note_off_c, 0, 62, 100
2, 206756, Note_off_c, 0, 59, 100
2, 206756, Note_off_c, 0, 53, 100
2, 206784, Note_on_c, 0, 56, 110
2, 206784, Note_on_c, 0, 59, 110
2, 206784, Note_on_c, 0, 62, 110
2, 206784, Note_on_c, 0, 53, 110
2, 206784, Note_on_c, 0, 89, 119
2, 206852, Note_off_c, 0, 62, 100
2, 206880, Note_on_c, 0, 62, 110
2, 206928, Note_off_c, 0, 56, 100
2, 206940, Note_off_c, 0, 62, 100
2, 206948, Note_off_c, 0, 53, 100
2, 206956, Note_off_c, 0, 59, 100
2, 206972, Note_off_c, 0, 89, 100
2, 206976, Note_on_c, 0, 56, 110
2, 206976, Note_on_c, 0, 59, 110
2, 206976, Note_on_c, 0, 62, 110
2, 206976, Note_on_c, 0, 53, 110
2, 206976, Note_on_c, 0, 86, 120
2, 207028, Note_off_c, 0, 62, 100
2, 207072, Note_on_c, 0, 62, 110
2, 207124, Note_off_c, 0, 56, 100
2, 207132, Note_off_c, 0, 59, 100
2, 207132, Note_off_c, 0, 53, 100
2, 207136, Note_off_c, 0, 62, 100
2, 207168, Note_on_c, 0, 56, 110
2, 207168, Note_on_c, 0, 59, 110
2, 207168, Note_on_c, 0, 62, 110
2, 207168, Note_on_c, 0, 53, 110
2, 207236, Note_off_c, 0, 62, 100
2, 207264, Note_on_c, 0, 62, 110
2, 207312, Note_off_c, 0, 56, 100
2, 207312, Note_off_c, 0, 59, 100
2, 207340, Note_off_c, 0, 62, 100
2, 207344, Note_off_c, 0, 53, 100
2, 207356, Note_off_c, 0, 86, 100
2, 207360, Note_on_c, 0, 56, 110
2, 207360, Note_on_c, 0, 59, 110
2, 207360, Note_on_c, 0, 62, 110
2, 207360, Note_on_c, 0, 53, 110
2, 207360, Note_on_c, 0, 83, 122
2, 207428, Note_off_c, 0, 62, 100
2, 207456, Note_on_c, 0, 62, 110
2, 207512, Note_off_c, 0, 56, 100
2, 207516, Note_off_c, 0, 62, 100
2, 207516, Note_off_c, 0, 53, 100
2, 207532, Note_off_c, 0, 59, 100
2, 207552, Note_on_c, 0, 56, 110
2, 207552, Note_on_c, 0, 59, 110
2, 207552, Note_on_c, 0, 62, 110
2, 207552, Note_on_c, 0, 53, 110
2, 207604, Note_off_c, 0, 62, 100
2, 207648, Note_on_c, 0, 62, 110
2, 207700, Note_off_c, 0, 56, 100
2, 207704, Note_off_c, 0, 59, 100
2, 207712, Note_off_c, 0, 62, 100
2, 207716, Note_off_c, 0, 53, 100
2, 207740, Note_off_c, 0, 83, 100
2, 207744, Note_on_c, 0, 56, 110
2, 207744, Note_on_c, 0, 59, 110
2, 207744, Note_on_c, 0, 62, 110
2, 207744, Note_on_c, 0, 53, 110
2, 207744, Note_on_c, 0, 80, 120
2, 207808, Note_off_c, 0, 62, 100
2, 207840, Note_on_c, 0, 62, 110
2, 207896, Note_off_c, 0, 56, 100
2, 207896, Note_off_c, 0, 62, 100
2, 207900, Note_off_c, 0, 53, 100
2, 207904, Note_off_c, 0, 59, 100
2, 207936, Note_on_c, 0, 56, 110
2, 207936, Note_on_c, 0, 59, 110
2, 207936, Note_on_c, 0, 62, 110
2, 207936, Note_on_c, 0, 53, 110
2, 208004, Note_off_c, 0, 62, 100
2, 208032, Note_on_c, 0, 62, 110
2, 208088, Note_off_c, 0, 56, 100
2, 208096, Note_off_c, 0, 62, 100
2, 208100, Note_off_c, 0, 59, 100
2, 208104, Note_off_c, 0, 53, 100
2, 208124, Note_off_c, 0, 80, 100
2, 208128, Note_on_c, 0, 56, 110
2, 208128, Note_on_c, 0, 59, 110
2, 208128, Note_on_c, 0, 62, 110
2, 208128, Note_on_c, 0, 53, 110
2, 208128, Note_on_c, 0, 77, 120
2, 208196, Note_off_c, 0, 62, 100
2, 208224, Note_on_c, 0, 62, 110
2, 208288, Note_off_c, 0, 59, 100
2, 208288, Note_off_c, 0, 62, 100
2, 208292, Note_off_c, 0, 56, 100
2, 208300, Note_off_c, 0, 53, 100
2, 208320, Note_on_c, 0, 56, 110
2, 208320, Note_on_c, 0, 59, 110
2, 208320, Note_on_c, 0, 62, 110
2, 208320, Note_on_c, 0, 53, 110
2, 208380, Note_off_c, 0, 62, 100
2, 208416, Note_on_c, 0, 62, 110
2, 208468, Note_off_c, 0, 59, 100
2, 208472, Note_off_c, 0, 56, 100
2, 208476, Note_off_c, 0, 53, 100
2, 208488, Note_off_c, 0, 62, 100
2, 208508, Note_off_c, 0, 77, 100
2, 208512, Note_on_c, 0, 56, 110
2, 208512, Note_on_c, 0, 59, 110
2, 208512, Note_on_c, 0, 62, 110
2, 208512, Note_on_c, 0, 53, 110
2, 208512, Note_on_c, 0, 74, 120
2, 208572, Note_off_c, 0, 62, 100
2, 208608, Note_on_c, 0, 62, 110
2, 208672, Note_off_c, 0, 56, 100
2, 208676, Note_off_c, 0, 59, 100
2, 208676, Note_off_c, 0, 62, 100
2, 208676, Note_off_c, 0, 53, 100
2, 208704, Note_on_c, 0, 56, 110
2, 208704, Note_on_c, 0, 59, 110
2, 208704, Note_on_c, 0, 62, 110
2, 208704, Note_on_c, 0, 53, 110
2, 208760, Note_off_c, 0, 62, 100
2, 208800, Note_on_c, 0, 62, 110
2, 208860, Note_off_c, 0, 56, 100
2, 208864, Note_off_c, 0, 62, 100
2, 208880, Note_off_c, 0, 53, 100
2, 208892, Note_off_c, 0, 74, 100
2, 208892, Note_off_c, 0, 59, 100
2, 208896, Note_on_c, 0, 56, 110
2, 208896, Note_on_c, 0, 59, 110
2, 208896, Note_on_c, 0, 62, 110
2, 208896, Note_on_c, 0, 53, 110
2, 208896, Note_on_c, 0, 71, 123
2, 208984, Note_off_c, 0, 62, 100
2, 208992, Note_on_c, 0, 62, 110
2, 209060, Note_off_c, 0, 62, 100
2, 209064, Note_off_c, 0, 59, 100
2, 209072, Note_off_c, 0, 53, 100
2, 209084, Note_off_c, 0, 56, 100
2, 209088, Note_on_c, 0, 56, 110
2, 209088, Note_on_c, 0, 59, 110
2, 209088, Note_on_c, 0, 62, 110
2, 209088, Note_on_c, 0, 53, 110
2, 209148, Note_off_c, 0, 62, 100
2, 209184, Note_on_c, 0, 62, 110
2, 209232, Note_off_c, 0, 53, 100
2, 209236, Note_off_c, 0, 59, 100
2, 209236, Note_off_c, 0, 62, 100
2, 209256, Note_off_c, 0, 56, 100
2, 209276, Note_off_c, 0, 71, 100
2, 209280, Note_on_c, 0, 72, 122
2, 209280, Note_on_c, 0, 52, 110
2, 209280, Note_on_c, 0, 55, 110
2, 209348, Note_off_c, 0, 62, 100
2, 209376, Note_on_c, 0, 60, 110
2, 209424, Note_off_c, 0, 52, 100
2, 209424, Note_off_c, 0, 55, 100
2, 209472, Note_on_c, 0, 52, 110
2, 209472, Note_on_c, 0, 55, 110
2, 209524, Note_off_c, 0, 60, 100
2, 209568, Note_on_c, 0, 60, 110
2, 209616, Note_off_c, 0, 55, 100
2, 209628, Note_off_c, 0, 52, 100
2, 209660, Note_off_c, 0, 72, 100
2, 209664, Note_on_c, 0, 52, 110
2, 209664, Note_on_c, 0, 55, 110
2, 209728, Note_off_c, 0, 60, 100
2, 209760, Note_on_c, 0, 60, 110
2, 209824, Note_off_c, 0, 52, 100
2, 209824, Note_off_c, 0, 55, 100
2, 209856, Note_on_c, 0, 52, 110
2, 209856, Note_on_c, 0, 55, 110
2, 209924, Note_off_c, 0, 60, 100
2, 209952, Note_on_c, 0, 60, 110
2, 210012, Note_off_c, 0, 52, 100
2, 210024, Note_off_c, 0, 55, 100
2, 210048, Note_on_c, 0, 52, 110
2, 210048, Note_on_c, 0, 55, 110
2, 210132, Note_off_c, 0, 60, 100
2, 210144, Note_on_c, 0, 60, 110
2, 210204, Note_off_c, 0, 52, 100
2, 210208, Note_off_c, 0, 55, 100
2, 210240, Note_on_c, 0, 52, 110
2, 210240, Note_on_c, 0, 55, 110
2, 210304, Note_off_c, 0, 60, 100
2, 210336, Note_on_c, 0, 60, 110
2, 210408, Note_off_c, 0, 55, 100
2, 210412, Note_off_c, 0, 52, 100
2, 210432, Note_on_c, 0, 52, 110
2, 210432, Note_on_c, 0, 55, 110
2, 210496, Note_off_c, 0, 60, 100
2, 210528, Note_on_c, 0, 60, 110
2, 210588, Note_off_c, 0, 52, 100
2, 210600, Note_off_c, 0, 55, 100
2, 210624, Note_on_c, 0, 52, 110
2, 210624, Note_on_c, 0, 55, 110
2, 210684, Note_off_c, 0, 60, 100
2, 210720, Note_on_c, 0, 60, 110
2, 210784, Note_off_c, 0, 52, 100
2, 210784, Note_off_c, 0, 55, 100
2, 210812, Note_off_c, 0, 60, 100
2, 210816, Note_on_c, 0, 60, 100
2, 210816, Note_on_c, 0, 55, 100
2, 210816, Note_on_c, 0, 52, 100
2, 211196, Note_off_c, 0, 60, 100
2, 211196, Note_off_c, 0, 55, 100
2, 211196, Note_off_c, 0, 52, 100
2, 211584, Note_on_c, 0, 60, 100
2, 211584, Note_on_c, 0, 55, 100
2, 211584, Note_on_c, 0, 52, 100
2, 211964, Note_off_c, 0, 60, 100
2, 211964, Note_off_c, 0, 55, 100
2, 211964, Note_off_c, 0, 52, 100
2, 212352, Note_on_c, 0, 60, 100
2, 212352, Note_on_c, 0, 52, 100
2, 212352, Note_on_c, 0, 55, 100
2, 213692, Note_off_c, 0, 52, 100
2, 213692, Note_off_c, 0, 55, 100
2, 213692, Note_off_c, 0, 60, 100
2, 213696, Note_on_c, 0, 53, 100
2, 213760, Note_on_c, 0, 57, 100
2, 213820, Note_off_c, 0, 53, 100
2, 213824, Note_on_c, 0, 60, 100
2, 213884, Note_off_c, 0, 57, 100
2, 213884, Note_off_c, 0, 60, 100
2, 213888, Note_on_c, 0, 65, 110
2, 214076, Note_off_c, 0, 65, 100
2, 214080, Note_on_c, 0, 67, 100
2, 214268, Note_off_c, 0, 67, 100
2, 214272, Note_on_c, 0, 69, 100
2, 214460, Note_off_c, 0, 69, 100
2, 214464, Note_on_c, 0, 70, 100
2, 214652, Note_off_c, 0, 70, 100
2, 214656, Note_on_c, 0, 72, 100
2, 214844, Note_off_c, 0, 72, 100
2, 214848, Note_on_c, 0, 74, 100
2, 215036, Note_off_c, 0, 74, 100
2, 215040, Note_on_c, 0, 76, 100
2, 215228, Note_off_c, 0, 76, 100
2, 215232, Note_on_c, 0, 77, 100
2, 215420, Note_off_c, 0, 77, 100
2, 215424, Note_on_c, 0, 72, 100
2, 215616, Note_on_c, 0, 64, 100
2, 215804, Note_off_c, 0, 64, 100
2, 215808, Note_on_c, 0, 65, 100
2, 215996, Note_off_c, 0, 72, 100
2, 215996, Note_off_c, 0, 65, 100
2, 216000, Note_on_c, 0, 67, 100
2, 216000, Note_on_c, 0, 70, 100
2, 216188, Note_off_c, 0, 67, 100
2, 216188, Note_off_c, 0, 70, 100
2, 216192, Note_on_c, 0, 60, 100
2, 216192, Note_on_c, 0, 69, 100
2, 216380, Note_off_c, 0, 60, 100
2, 216380, Note_off_c, 0, 69, 100
2, 217152, Note_on_c, 0, 60, 100
2, 217152, Note_on_c, 0, 52, 100
2, 217340, Note_off_c, 0, 60, 100
2, 217340, Note_off_c, 0, 52, 100
2, 217344, Note_on_c, 0, 53, 100
2, 217344, Note_on_c, 0, 62, 100
2, 217532, Note_off_c, 0, 53, 100
2, 217532, Note_off_c, 0, 62, 100
2, 217536, Note_on_c, 0, 64, 100
2, 217536, Note_on_c, 0, 55, 100
2, 217724, Note_off_c, 0, 64, 100
2, 217724, Note_off_c, 0, 55, 100
2, 217728, Note_on_c, 0, 65, 100
2, 217728, Note_on_c, 0, 57, 100
2, 217916, Note_off_c, 0, 65, 100
2, 217916, Note_off_c, 0, 57, 100
2, 217920, Note_on_c, 0, 60, 100
2, 218108, Note_off_c, 0, 60, 100
2, 218112, Note_on_c, 0, 65, 100
2, 218300, Note_off_c, 0, 65, 100
2, 218304, Note_on_c, 0, 69, 100
2, 218492, Note_off_c, 0, 69, 100
2, 218496, Note_on_c, 0, 72, 100
2, 218496, Note_on_c, 0, 67, 100
2, 218684, Note_off_c, 0, 67, 100
2, 218688, Note_on_c, 0, 64, 100
2, 218876, Note_off_c, 0, 64, 100
2, 218880, Note_on_c, 0, 65, 100
2, 219068, Note_off_c, 0, 72, 100
2, 219068, Note_off_c, 0, 65, 100
2, 219072, Note_on_c, 0, 67, 100
2, 219072, Note_on_c, 0, 70, 100
2, 219260, Note_off_c, 0, 67, 100
2, 219260, Note_off_c, 0, 70, 100
2, 219264, Note_on_c, 0, 69, 100
2, 219264, Note_on_c, 0, 60, 100
2, 219452, Note_off_c, 0, 69, 100
2, 219452, Note_off_c, 0, 60, 100
2, 219648, Note_on_c, 0, 67, 100
2, 219648, Note_on_c, 0, 62, 100
2, 219648, Note_on_c, 0, 58, 100
2, 219836, Note_off_c, 0, 67, 100
2, 219836, Note_off_c, 0, 62, 100
2, 219836, Note_off_c, 0, 58, 100
2, 220032, Note_on_c, 0, 65, 100
2, 220032, Note_on_c, 0, 60, 100
2, 220032, Note_on_c, 0, 57, 100
2, 220220, Note_off_c, 0, 65, 100
2, 220220, Note_off_c, 0, 60, 100
2, 220220, Note_off_c, 0, 57, 100
2, 220416, Note_on_c, 0, 58, 100
2, 220416, Note_on_c, 0, 55, 100
2, 220416, Note_on_c, 0, 64, 100
2, 220604, Note_off_c, 0, 58, 100
2, 220604, Note_off_c, 0, 55, 100
2, 220604, Note_off_c, 0, 64, 100
2, 220800, Note_on_c, 0, 65, 110
2, 220800, Note_on_c, 0, 57, 110
2, 220800, Note_on_c, 0, 60, 110
2, 221180, Note_off_c, 0, 65, 100
2, 221180, Note_off_c, 0, 57, 100
2, 221180, Note_off_c, 0, 60, 100
2, 222528, Note_on_c, 0, 72, 100
2, 222528, Note_on_c, 0, 64, 100
2, 222716, Note_off_c, 0, 72, 100
2, 222716, Note_off_c, 0, 64, 100
2, 222720, Note_on_c, 0, 74, 100
2, 222720, Note_on_c, 0, 65, 100
2, 222908, Note_off_c, 0, 74, 100
2, 222908, Note_off_c, 0, 65, 100
2, 222912, Note_on_c, 0, 76, 100
2, 222912, Note_on_c, 0, 67, 100
2, 223100, Note_off_c, 0, 76, 100
2, 223100, Note_off_c, 0, 67, 100
2, 223104, Note_on_c, 0, 77, 100
2, 223104, Note_on_c, 0, 69, 100
2, 223292, Note_off_c, 0, 77, 100
2, 223292, Note_off_c, 0, 69, 100
2, 223296, Note_on_c, 0, 72, 100
2, 223484, Note_off_c, 0, 72, 100
2, 223488, Note_on_c, 0, 77, 100
2, 223676, Note_off_c, 0, 77, 100
2, 223680, Note_on_c, 0, 81, 100
2, 223868, Note_off_c, 0, 81, 100
2, 223872, Note_on_c, 0, 84, 100
2, 223872, Note_on_c, 0, 79, 100
2, 224060, Note_off_c, 0, 79, 100
2, 224064, Note_on_c, 0, 76, 100
2, 224252, Note_off_c, 0, 76, 100
2, 224256, Note_on_c, 0, 77, 100
2, 224444, Note_off_c, 0, 84, 100
2, 224444, Note_off_c, 0, 77, 100
2, 224448, Note_on_c, 0, 82, 100
2, 224448, Note_on_c, 0, 79, 100
2, 224636, Note_off_c, 0, 82, 100
2, 224636, Note_off_c, 0, 79, 100
2, 224640, Note_on_c, 0, 77, 100
2, 224640, Note_on_c, 0, 81, 100
2, 225020, Note_off_c, 0, 77, 100
2, 225020, Note_off_c, 0, 81, 100
2, 225600, Note_on_c, 0, 73, 100
2, 225600, Note_on_c, 0, 69, 100
2, 225788, Note_off_c, 0, 73, 100
2, 225788, Note_off_c, 0, 69, 100
2, 225792, Note_on_c, 0, 74, 100
2, 225792, Note_on_c, 0, 71, 100
2, 225980, Note_off_c, 0, 74, 100
2, 225980, Note_off_c, 0, 71, 100
2, 225984, Note_on_c, 0, 76, 100
2, 225984, Note_on_c, 0, 73, 100
2, 226172, Note_off_c, 0, 76, 100
2, 226172, Note_off_c, 0, 73, 100
2, 226176, Note_on_c, 0, 74, 100
2, 226176, Note_on_c, 0, 77, 100
2, 226364, Note_off_c, 0, 74, 100
2, 226364, Note_off_c, 0, 77, 100
2, 226368, Note_on_c, 0, 69, 100
2, 226556, Note_off_c, 0, 69, 100
2, 226560, Note_on_c, 0, 74, 100
2, 226748, Note_off_c, 0, 74, 100
2, 226752, Note_on_c, 0, 77, 100
2, 226940, Note_off_c, 0, 77, 100
2, 226944, Note_on_c, 0, 81, 100
2, 226944, Note_on_c, 0, 76, 100
2, 227132, Note_off_c, 0, 76, 100
2, 227136, Note_on_c, 0, 73, 100
2, 227324, Note_off_c, 0, 73, 100
2, 227328, Note_on_c, 0, 74, 100
2, 227516, Note_off_c, 0, 81, 100
2, 227516, Note_off_c, 0, 74, 100
2, 227520, Note_on_c, 0, 79, 100
2, 227520, Note_on_c, 0, 76, 100
2, 227708, Note_off_c, 0, 79, 100
2, 227708, Note_off_c, 0, 76, 100
2, 227712, Note_on_c, 0, 77, 100
2, 227712, Note_on_c, 0, 69, 100
2, 227900, Note_off_c, 0, 77, 100
2, 227900, Note_off_c, 0, 69, 100
2, 228096, Note_on_c, 0, 76, 100
2, 228096, Note_on_c, 0, 70, 100
2, 228096, Note_on_c, 0, 67, 100
2, 228284, Note_off_c, 0, 76, 100
2, 228284, Note_off_c, 0, 70, 100
2, 228284, Note_off_c, 0, 67, 100
2, 228480, Note_on_c, 0, 69, 100
2, 228480, Note_on_c, 0, 65, 100
2, 228480, Note_on_c, 0, 74, 100
2, 228668, Note_off_c, 0, 69, 100
2, 228668, Note_off_c, 0, 65, 100
2, 228668, Note_off_c, 0, 74, 100
2, 228864, Note_on_c, 0, 73, 100
2, 228864, Note_on_c, 0, 69, 100
2, 228864, Note_on_c, 0, 64, 100
2, 229052, Note_off_c, 0, 73, 100
2, 229052, Note_off_c, 0, 69, 100
2, 229052, Note_off_c, 0, 64, 100
2, 229056, Note_on_c, 0, 62, 110
2, 229120, Note_on_c, 0, 65, 110
2, 229180, Note_off_c, 0, 62, 100
2, 229184, Note_on_c, 0, 69, 110
2, 229244, Note_off_c, 0, 65, 100
2, 229244, Note_off_c, 0, 69, 100
2, 229248, Note_on_c, 0, 74, 110
2, 229436, Note_off_c, 0, 74, 100
2, 229440, Note_on_c, 0, 76, 110
2, 229628, Note_off_c, 0, 76, 100
2, 229632, Note_on_c, 0, 77, 110
2, 229760, Note_on_c, 0, 64, 110
2, 229820, Note_off_c, 0, 77, 100
2, 229824, Note_on_c, 0, 79, 110
2, 229884, Note_off_c, 0, 64, 100
2, 229952, Note_on_c, 0, 65, 110
2, 230012, Note_off_c, 0, 79, 100
2, 230016, Note_on_c, 0, 81, 110
2, 230076, Note_off_c, 0, 65, 100
2, 230204, Note_off_c, 0, 81, 100
2, 230208, Note_on_c, 0, 67, 110
2, 230396, Note_off_c, 0, 67, 100
2, 230400, Note_on_c, 0, 69, 110
2, 230528, Note_on_c, 0, 69, 110
2, 230588, Note_off_c, 0, 69, 100
2, 230652, Note_off_c, 0, 69, 100
2, 230656, Note_on_c, 0, 70, 110
2, 230720, Note_on_c, 0, 74, 110
2, 230780, Note_off_c, 0, 70, 100
2, 230780, Note_off_c, 0, 74, 100
2, 230784, Note_on_c, 0, 79, 110
2, 230972, Note_off_c, 0, 79, 100
2, 230976, Note_on_c, 0, 81, 110
2, 231164, Note_off_c, 0, 81, 100
2, 231168, Note_on_c, 0, 82, 110
2, 231296, Note_on_c, 0, 69, 110
2, 231356, Note_off_c, 0, 82, 100
2, 231360, Note_on_c, 0, 84, 110
2, 231420, Note_off_c, 0, 69, 100
2, 231488, Note_on_c, 0, 70, 110
2, 231548, Note_off_c, 0, 84, 100
2, 231552, Note_on_c, 0, 86, 110
2, 231612, Note_off_c, 0, 70, 100
2, 231744, Note_on_c, 0, 72, 110
2, 231932, Note_off_c, 0, 86, 100
2, 231932, Note_off_c, 0, 72, 100
2, 231936, Note_on_c, 0, 74, 110
2, 232124, Note_off_c, 0, 74, 100
2, 232128, Note_on_c, 0, 60, 110
2, 232192, Note_on_c, 0, 64, 110
2, 232252, Note_off_c, 0, 60, 100
2, 232256, Note_on_c, 0, 67, 110
2, 232316, Note_off_c, 0, 64, 100
2, 232316, Note_off_c, 0, 67, 100
2, 232320, Note_on_c, 0, 72, 110
2, 232508, Note_off_c, 0, 72, 100
2, 232512, Note_on_c, 0, 74, 110
2, 232700, Note_off_c, 0, 74, 100
2, 232704, Note_on_c, 0, 76, 110
2, 232832, Note_on_c, 0, 62, 110
2, 232892, Note_off_c, 0, 76, 100
2, 232896, Note_on_c, 0, 77, 110
2, 232956, Note_off_c, 0, 62, 100
2, 233024, Note_on_c, 0, 64, 110
2, 233084, Note_off_c, 0, 77, 100
2, 233088, Note_on_c, 0, 79, 110
2, 233148, Note_off_c, 0, 64, 100
2, 233280, Note_on_c, 0, 65, 110
2, 233468, Note_off_c, 0, 79, 100
2, 233468, Note_off_c, 0, 65, 100
2, 233472, Note_on_c, 0, 67, 110
2, 233660, Note_off_c, 0, 67, 100
2, 233664, Note_on_c, 0, 65, 110
2, 233728, Note_on_c, 0, 69, 110
2, 233788, Note_off_c, 0, 65, 100
2, 233792, Note_on_c, 0, 72, 110
2, 233852, Note_off_c, 0, 69, 100
2, 233852, Note_off_c, 0, 72, 100
2, 233856, Note_on_c, 0, 77, 110
2, 234044, Note_off_c, 0, 77, 100
2, 234048, Note_on_c, 0, 79, 110
2, 234236, Note_off_c, 0, 79, 100
2, 234240, Note_on_c, 0, 81, 110
2, 234368, Note_on_c, 0, 67, 110
2, 234428, Note_off_c, 0, 81, 100
2, 234432, Note_on_c, 0, 82, 110
2, 234492, Note_off_c, 0, 67, 100
2, 234560, Note_on_c, 0, 69, 110
2, 234620, Note_off_c, 0, 82, 100
2, 234624, Note_on_c, 0, 84, 110
2, 234684, Note_off_c, 0, 69, 100
2, 234816, Note_on_c, 0, 70, 110
2, 235004, Note_off_c, 0, 84, 100
2, 235004, Note_off_c, 0, 70, 100
2, 235008, Note_on_c, 0, 72, 110
2, 235196, Note_off_c, 0, 72, 100
2, 235200, Note_on_c, 0, 84, 80
2, 235388, Note_off_c, 0, 84, 100
2, 235392, Note_on_c, 0, 76, 80
2, 235392, Note_on_c, 0, 70, 80
2, 235580, Note_off_c, 0, 70, 100
2, 235584, Note_on_c, 0, 72, 80
2, 235772, Note_off_c, 0, 76, 100
2, 235772, Note_off_c, 0, 72, 100
2, 235776, Note_on_c, 0, 73, 80
2, 235964, Note_off_c, 0, 73, 100
2, 235968, Note_on_c, 0, 76, 80
2, 236156, Note_off_c, 0, 76, 100
2, 236160, Note_on_c, 0, 77, 80
2, 236160, Note_on_c, 0, 72, 80
2, 236348, Note_off_c, 0, 72, 100
2, 236352, Note_on_c, 0, 70, 80
2, 236540, Note_off_c, 0, 77, 100
2, 236540, Note_off_c, 0, 70, 100
2, 236544, Note_on_c, 0, 69, 80
2, 236732, Note_off_c, 0, 69, 100
2, 236736, Note_on_c, 0, 77, 80
2, 236924, Note_off_c, 0, 77, 100
2, 236928, Note_on_c, 0, 73, 80
2, 236928, Note_on_c, 0, 67, 80
2, 237116, Note_off_c, 0, 67, 100
2, 237120, Note_on_c, 0, 69, 80
2, 237308, Note_off_c, 0, 73, 100
2, 237308, Note_off_c, 0, 69, 100
2, 237312, Note_on_c, 0, 70, 80
2, 237500, Note_off_c, 0, 70, 100
2, 237504, Note_on_c, 0, 62, 110
2, 237568, Note_on_c, 0, 65, 110
2, 237628, Note_off_c, 0, 62, 100
2, 237632, Note_on_c, 0, 69, 110
2, 237692, Note_off_c, 0, 65, 100
2, 237692, Note_off_c, 0, 69, 100
2, 237696, Note_on_c, 0, 74, 110
2, 237884, Note_off_c, 0, 74, 100
2, 237888, Note_on_c, 0, 76, 110
2, 238076, Note_off_c, 0, 76, 100
2, 238080, Note_on_c, 0, 77, 110
2, 238208, Note_on_c, 0, 64, 110
2, 238268, Note_off_c, 0, 77, 100
2, 238272, Note_on_c, 0, 79, 110
2, 238332, Note_off_c, 0, 64, 100
2, 238400, Note_on_c, 0, 65, 110
2, 238460, Note_off_c, 0, 79, 100
2, 238464, Note_on_c, 0, 81, 110
2, 238524, Note_off_c, 0, 65, 100
2, 238656, Note_on_c, 0, 67, 110
2, 238844, Note_off_c, 0, 81, 100
2, 238844, Note_off_c, 0, 67, 100
2, 238848, Note_on_c, 0, 69, 110
2, 239036, Note_off_c, 0, 69, 100
2, 239040, Note_on_c, 0, 81, 80
2, 239228, Note_off_c, 0, 81, 100
2, 239232, Note_on_c, 0, 73, 80
2, 239232, Note_on_c, 0, 67, 80
2, 239420, Note_off_c, 0, 67, 100
2, 239424, Note_on_c, 0, 69, 80
2, 239612, Note_off_c, 0, 73, 100
2, 239612, Note_off_c, 0, 69, 100
2, 239616, Note_on_c, 0, 70, 80
2, 239804, Note_off_c, 0, 70, 100
2, 239808, Note_on_c, 0, 73, 80
2, 239996, Note_off_c, 0, 73, 100
2, 240000, Note_on_c, 0, 74, 80
2, 240000, Note_on_c, 0, 69, 80
2, 240188, Note_off_c, 0, 69, 100
2, 240192, Note_on_c, 0, 67, 80
2, 240380, Note_off_c, 0, 74, 100
2, 240380, Note_off_c, 0, 67, 100
2, 240384, Note_on_c, 0, 65, 80
2, 240572, Note_off_c, 0, 65, 100
2, 240576, Note_on_c, 0, 74, 80
2, 240764, Note_off_c, 0, 74, 100
2, 240768, Note_on_c, 0, 68, 80
2, 240768, Note_on_c, 0, 65, 80
2, 240956, Note_off_c, 0, 65, 100
2, 240960, Note_on_c, 0, 64, 80
2, 241148, Note_off_c, 0, 68, 100
2, 241148, Note_off_c, 0, 64, 100
2, 241152, Note_on_c, 0, 62, 80
2, 241340, Note_off_c, 0, 62, 100
2, 241344, Note_on_c, 0, 57, 110
2, 241408, Note_on_c, 0, 60, 110
2, 241468, Note_off_c, 0, 57, 100
2, 241472, Note_on_c, 0, 64, 110
2, 241532, Note_off_c, 0, 60, 100
2, 241532, Note_off_c, 0, 64, 100
2, 241536, Note_on_c, 0, 69, 110
2, 241724, Note_off_c, 0, 69, 100
2, 241728, Note_on_c, 0, 71, 110
2, 241916, Note_off_c, 0, 71, 100
2, 241920, Note_on_c, 0, 72, 110
2, 242048, Note_on_c, 0, 59, 110
2, 242108, Note_off_c, 0, 72, 100
2, 242112, Note_on_c, 0, 74, 110
2, 242172, Note_off_c, 0, 59, 100
2, 242240, Note_on_c, 0, 60, 110
2, 242300, Note_off_c, 0, 74, 100
2, 242304, Note_on_c, 0, 76, 110
2, 242364, Note_off_c, 0, 60, 100
2, 242496, Note_on_c, 0, 62, 110
2, 242684, Note_off_c, 0, 76, 100
2, 242684, Note_off_c, 0, 62, 100
2, 242688, Note_on_c, 0, 64, 110
2, 242876, Note_off_c, 0, 64, 100
2, 242880, Note_on_c, 0, 76, 80
2, 243068, Note_off_c, 0, 76, 100
2, 243072, Note_on_c, 0, 68, 80
2, 243072, Note_on_c, 0, 62, 80
2, 243260, Note_off_c, 0, 62, 100
2, 243264, Note_on_c, 0, 64, 80
2, 243452, Note_off_c, 0, 68, 100
2, 243452, Note_off_c, 0, 64, 100
2, 243456, Note_on_c, 0, 65, 80
2, 243644, Note_off_c, 0, 65, 100
2, 243648, Note_on_c, 0, 68, 80
2, 243836, Note_off_c, 0, 68, 100
2, 243840, Note_on_c, 0, 69, 80
2, 243840, Note_on_c, 0, 64, 80
2, 244028, Note_off_c, 0, 64, 100
2, 244032, Note_on_c, 0, 62, 80
2, 244220, Note_off_c, 0, 69, 100
2, 244220, Note_off_c, 0, 62, 100
2, 244224, Note_on_c, 0, 60, 80
2, 244412, Note_off_c, 0, 60, 100
2, 244416, Note_on_c, 0, 69, 80
2, 244604, Note_off_c, 0, 69, 100
2, 244608, Note_on_c, 0, 63, 80
2, 244608, Note_on_c, 0, 60, 80
2, 244796, Note_off_c, 0, 60, 100
2, 244800, Note_on_c, 0, 59, 80
2, 244988, Note_off_c, 0, 63, 100
2, 244988, Note_off_c, 0, 59, 100
2, 244992, Note_on_c, 0, 57, 80
2, 245180, Note_off_c, 0, 57, 100
2, 245184, Note_on_c, 0, 63, 80
2, 245372, Note_off_c, 0, 63, 100
2, 245376, Note_on_c, 0, 64, 80
2, 245376, Note_on_c, 0, 56, 80
2, 245948, Note_off_c, 0, 64, 100
2, 245948, Note_off_c, 0, 56, 100
2, 245952, Note_on_c, 0, 66, 110
2, 245952, Note_on_c, 0, 64, 110
2, 245952, Note_on_c, 0, 57, 110
2, 246140, Note_off_c, 0, 66, 100
2, 246140, Note_off_c, 0, 64, 100
2, 246140, Note_off_c, 0, 57, 100
2, 246144, Note_on_c, 0, 68, 80
2, 246144, Note_on_c, 0, 64, 80
2, 246144, Note_on_c, 0, 59, 80
2, 246332, Note_off_c, 0, 68, 100
2, 246332, Note_off_c, 0, 64, 100
2, 246332, Note_off_c, 0, 59, 100
2, 246336, Note_on_c, 0, 69, 80
2, 246336, Note_on_c, 0, 64, 80
2, 246336, Note_on_c, 0, 60, 80
2, 246524, Note_off_c, 0, 69, 100
2, 246524, Note_off_c, 0, 64, 100
2, 246524, Note_off_c, 0, 60, 100
2, 246528, Note_on_c, 0, 71, 80
2, 246528, Note_on_c, 0, 64, 80
2, 246528, Note_on_c, 0, 62, 80
2, 246716, Note_off_c, 0, 71, 100
2, 246716, Note_off_c, 0, 64, 100
2, 246716, Note_off_c, 0, 62, 100
2, 246720, Note_on_c, 0, 68, 80
2, 246720, Note_on_c, 0, 64, 80
2, 246720, Note_on_c, 0, 59, 80
2, 246908, Note_off_c, 0, 68, 100
2, 246908, Note_off_c, 0, 64, 100
2, 246908, Note_off_c, 0, 59, 100
2, 246912, Note_on_c, 0, 69, 80
2, 246912, Note_on_c, 0, 64, 80
2, 246912, Note_on_c, 0, 60, 80
2, 247292, Note_off_c, 0, 69, 100
2, 247292, Note_off_c, 0, 64, 100
2, 247292, Note_off_c, 0, 60, 100
2, 247488, Note_on_c, 0, 72, 110
2, 247488, Note_on_c, 0, 64, 110
2, 247676, Note_off_c, 0, 72, 100
2, 247676, Note_off_c, 0, 64, 100
2, 247680, Note_on_c, 0, 71, 80
2, 247680, Note_on_c, 0, 64, 80
2, 247680, Note_on_c, 0, 62, 80
2, 247868, Note_off_c, 0, 71, 100
2, 247868, Note_off_c, 0, 64, 100
2, 247868, Note_off_c, 0, 62, 100
2, 247872, Note_on_c, 0, 69, 80
2, 247872, Note_on_c, 0, 64, 80
2, 247872, Note_on_c, 0, 60, 80
2, 248060, Note_off_c, 0, 69, 100
2, 248060, Note_off_c, 0, 64, 100
2, 248060, Note_off_c, 0, 60, 100
2, 248064, Note_on_c, 0, 68, 80
2, 248064, Note_on_c, 0, 64, 80
2, 248064, Note_on_c, 0, 59, 80
2, 248252, Note_off_c, 0, 68, 100
2, 248252, Note_off_c, 0, 64, 100
2, 248252, Note_off_c, 0, 59, 100
2, 248256, Note_on_c, 0, 66, 80
2, 248256, Note_on_c, 0, 64, 80
2, 248256, Note_on_c, 0, 57, 80
2, 248444, Note_off_c, 0, 66, 100
2, 248444, Note_off_c, 0, 64, 100
2, 248444, Note_off_c, 0, 57, 100
2, 248448, Note_on_c, 0, 64, 80
2, 248448, Note_on_c, 0, 56, 80
2, 248852, Note_off_c, 0, 64, 100
2, 248856, Note_off_c, 0, 56, 100
2, 249024, Note_on_c, 0, 66, 110
2, 249024, Note_on_c, 0, 64, 110
2, 249024, Note_on_c, 0, 57, 110
2, 249212, Note_off_c, 0, 66, 100
2, 249212, Note_off_c, 0, 64, 100
2, 249212, Note_off_c, 0, 57, 100
2, 249216, Note_on_c, 0, 68, 80
2, 249216, Note_on_c, 0, 64, 80
2, 249216, Note_on_c, 0, 59, 80
2, 249404, Note_off_c, 0, 68, 100
2, 249404, Note_off_c, 0, 64, 100
2, 249404, Note_off_c, 0, 59, 100
2, 249408, Note_on_c, 0, 69, 80
2, 249408, Note_on_c, 0, 64, 80
2, 249408, Note_on_c, 0, 60, 80
2, 249596, Note_off_c, 0, 69, 100
2, 249596, Note_off_c, 0, 64, 100
2, 249596, Note_off_c, 0, 60, 100
2, 249600, Note_on_c, 0, 71, 80
2, 249600, Note_on_c, 0, 64, 80
2, 249600, Note_on_c, 0, 62, 80
2, 249788, Note_off_c, 0, 71, 100
2, 249788, Note_off_c, 0, 64, 100
2, 249788, Note_off_c, 0, 62, 100
2, 249792, Note_on_c, 0, 68, 80
2, 249792, Note_on_c, 0, 64, 80
2, 249792, Note_on_c, 0, 59, 80
2, 249980, Note_off_c, 0, 68, 100
2, 249980, Note_off_c, 0, 64, 100
2, 249980, Note_off_c, 0, 59, 100
2, 249984, Note_on_c, 0, 69, 80
2, 249984, Note_on_c, 0, 64, 80
2, 249984, Note_on_c, 0, 60, 80
2, 250364, Note_off_c, 0, 69, 100
2, 250364, Note_off_c, 0, 64, 100
2, 250364, Note_off_c, 0, 60, 100
2, 250560, Note_on_c, 0, 72, 110
2, 250560, Note_on_c, 0, 64, 110
2, 250748, Note_off_c, 0, 72, 100
2, 250748, Note_off_c, 0, 64, 100
2, 250752, Note_on_c, 0, 71, 80
2, 250752, Note_on_c, 0, 64, 80
2, 250752, Note_on_c, 0, 62, 80
2, 250940, Note_off_c, 0, 71, 100
2, 250940, Note_off_c, 0, 64, 100
2, 250940, Note_off_c, 0, 62, 100
2, 250944, Note_on_c, 0, 69, 80
2, 250944, Note_on_c, 0, 64, 80
2, 250944, Note_on_c, 0, 60, 80
2, 251132, Note_off_c, 0, 69, 100
2, 251132, Note_off_c, 0, 64, 100
2, 251132, Note_off_c, 0, 60, 100
2, 251136, Note_on_c, 0, 68, 80
2, 251136, Note_on_c, 0, 64, 80
2, 251136, Note_on_c, 0, 59, 80
2, 251324, Note_off_c, 0, 68, 100
2, 251324, Note_off_c, 0, 64, 100
2, 251324, Note_off_c, 0, 59, 100
2, 251328, Note_on_c, 0, 66, 80
2, 251328, Note_on_c, 0, 64, 80
2, 251328, Note_on_c, 0, 57, 80
2, 251516, Note_off_c, 0, 66, 100
2, 251516, Note_off_c, 0, 64, 100
2, 251516, Note_off_c, 0, 57, 100
2, 251520, Note_on_c, 0, 64, 120
2, 251520, Note_on_c, 0, 59, 120
2, 251520, Note_on_c, 0, 56, 120
2, 253052, Note_off_c, 0, 56, 100
2, 253052, Note_off_c, 0, 59, 100
2, 253052, Note_off_c, 0, 64, 100
2, 253056, Note_on_c, 0, 69, 120
2, 253056, Note_on_c, 0, 66, 120
2, 253056, Note_on_c, 0, 62, 120
2, 253056, Note_on_c, 0, 57, 120
2, 254588, Note_off_c, 0, 57, 100
2, 254588, Note_off_c, 0, 62, 100
2, 254588, Note_off_c, 0, 66, 100
2, 254588, Note_off_c, 0, 69, 100
2, 254592, Note_on_c, 0, 74, 120
2, 254592, Note_on_c, 0, 71, 120
2, 254592, Note_on_c, 0, 68, 120
2, 254592, Note_on_c, 0, 64, 120
2, 254592, Note_on_c, 0, 62, 120
2, 256124, Note_off_c, 0, 62, 100
2, 256124, Note_off_c, 0, 64, 100
2, 256124, Note_off_c, 0, 68, 100
2, 256124, Note_off_c, 0, 71, 100
2, 256124, Note_off_c, 0, 74, 100
2, 256128, Note_on_c, 0, 64, 120
2, 256128, Note_on_c, 0, 62, 120
2, 256316, Note_off_c, 0, 64, 100
2, 256316, Note_off_c, 0, 62, 100
2, 256320, Note_on_c, 0, 64, 120
2, 256320, Note_on_c, 0, 62, 120
2, 256508, Note_off_c, 0, 64, 100
2, 256508, Note_off_c, 0, 62, 100
2, 256512, Note_on_c, 0, 64, 120
2, 256512, Note_on_c, 0, 62, 120
2, 256700, Note_off_c, 0, 64, 100
2, 256700, Note_off_c, 0, 62, 100
2, 256704, Note_on_c, 0, 62, 120
2, 256704, Note_on_c, 0, 64, 120
2, 256892, Note_off_c, 0, 62, 100
2, 256892, Note_off_c, 0, 64, 100
2, 256896, Note_on_c, 0, 74, 80
2, 256896, Note_on_c, 0, 64, 80
2, 256896, Note_on_c, 0, 62, 80
2, 257084, Note_off_c, 0, 74, 100
2, 257084, Note_off_c, 0, 64, 100
2, 257084, Note_off_c, 0, 62, 100
2, 257088, Note_on_c, 0, 73, 80
2, 257088, Note_on_c, 0, 64, 80
2, 257088, Note_on_c, 0, 62, 80
2, 257276, Note_off_c, 0, 73, 100
2, 257276, Note_off_c, 0, 64, 100
2, 257276, Note_off_c, 0, 62, 100
2, 257280, Note_on_c, 0, 71, 80
2, 257280, Note_on_c, 0, 64, 80
2, 257280, Note_on_c, 0, 62, 80
2, 257468, Note_off_c, 0, 71, 100
2, 257468, Note_off_c, 0, 64, 100
2, 257468, Note_off_c, 0, 62, 100
2, 257472, Note_on_c, 0, 69, 80
2, 257472, Note_on_c, 0, 62, 80
2, 257472, Note_on_c, 0, 64, 80
2, 257660, Note_off_c, 0, 69, 100
2, 257660, Note_off_c, 0, 62, 100
2, 257660, Note_off_c, 0, 64, 100
2, 257664, Note_on_c, 0, 68, 80
2, 257664, Note_on_c, 0, 64, 80
2, 257664, Note_on_c, 0, 62, 80
2, 257852, Note_off_c, 0, 64, 100
2, 257852, Note_off_c, 0, 62, 100
2, 257856, Note_on_c, 0, 64, 80
2, 257856, Note_on_c, 0, 62, 80
2, 258044, Note_off_c, 0, 68, 100
2, 258044, Note_off_c, 0, 64, 100
2, 258044, Note_off_c, 0, 62, 100
2, 258048, Note_on_c, 0, 64, 80
2, 258048, Note_on_c, 0, 62, 80
2, 258236, Note_off_c, 0, 64, 100
2, 258236, Note_off_c, 0, 62, 100
2, 258240, Note_on_c, 0, 62, 80
2, 258240, Note_on_c, 0, 64, 80
2, 258428, Note_off_c, 0, 62, 100
2, 258428, Note_off_c, 0, 64, 100
2, 258432, Note_on_c, 0, 64, 80
2, 258432, Note_on_c, 0, 62, 80
2, 258432, Note_on_c, 0, 68, 80
2, 258620, Note_off_c, 0, 64, 100
2, 258620, Note_off_c, 0, 62, 100
2, 258620, Note_off_c, 0, 68, 100
2, 258624, Note_on_c, 0, 64, 80
2, 258624, Note_on_c, 0, 62, 80
2, 258624, Note_on_c, 0, 69, 80
2, 258812, Note_off_c, 0, 64, 100
2, 258812, Note_off_c, 0, 62, 100
2, 258812, Note_off_c, 0, 69, 100
2, 258816, Note_on_c, 0, 64, 80
2, 258816, Note_on_c, 0, 62, 80
2, 258816, Note_on_c, 0, 71, 80
2, 259004, Note_off_c, 0, 64, 100
2, 259004, Note_off_c, 0, 62, 100
2, 259004, Note_off_c, 0, 71, 100
2, 259008, Note_on_c, 0, 62, 80
2, 259008, Note_on_c, 0, 64, 80
2, 259008, Note_on_c, 0, 73, 80
2, 259196, Note_off_c, 0, 62, 100
2, 259196, Note_off_c, 0, 64, 100
2, 259196, Note_off_c, 0, 73, 100
2, 259200, Note_on_c, 0, 74, 70
2, 259200, Note_on_c, 0, 71, 70
2, 259200, Note_on_c, 0, 64, 70
2, 259200, Note_on_c, 0, 62, 70
2, 259388, Note_off_c, 0, 74, 100
2, 259388, Note_off_c, 0, 71, 100
2, 259388, Note_off_c, 0, 64, 100
2, 259388, Note_off_c, 0, 62, 100
2, 259968, Note_on_c, 0, 73, 70
2, 259968, Note_on_c, 0, 69, 70
2, 259968, Note_on_c, 0, 61, 70
2, 260156, Note_off_c, 0, 73, 100
2, 260156, Note_off_c, 0, 69, 100
2, 260156, Note_off_c, 0, 61, 100
2, 260736, Note_on_c, 0, 78, 70
2, 260736, Note_on_c, 0, 69, 70
2, 260736, Note_on_c, 0, 66, 70
2, 260924, Note_off_c, 0, 78, 100
2, 260924, Note_off_c, 0, 69, 100
2, 260924, Note_off_c, 0, 66, 100
2, 261504, Note_on_c, 0, 68, 70
2, 261504, Note_on_c, 0, 62, 70
2, 261884, Note_off_c, 0, 68, 100
2, 261884, Note_off_c, 0, 62, 100
2, 262272, Key_signature, 3, "major"
2, 262848, Note_on_c, 0, 81, 100
2, 262848, Note_on_c, 0, 69, 100
2, 263036, Note_off_c, 0, 81, 100
2, 263036, Note_off_c, 0, 69, 100
2, 263040, Note_on_c, 0, 76, 100
2, 263040, Note_on_c, 0, 64, 100
2, 263420, Note_off_c, 0, 76, 100
2, 263420, Note_off_c, 0, 64, 100
2, 263616, Note_on_c, 0, 64, 100
2, 263660, Note_off_c, 0, 64, 100
2, 263664, Note_on_c, 0, 62, 100
2, 263708, Note_off_c, 0, 62, 100
2, 263712, Note_on_c, 0, 61, 100
2, 263756, Note_off_c, 0, 61, 100
2, 263760, Note_on_c, 0, 59, 100
2, 263804, Note_off_c, 0, 59, 100
2, 263808, Note_on_c, 0, 57, 100
2, 264188, Note_off_c, 0, 57, 100
2, 264384, Note_on_c, 0, 81, 100
2, 264384, Note_on_c, 0, 69, 100
2, 264572, Note_off_c, 0, 81, 100
2, 264572, Note_off_c, 0, 69, 100
2, 264576, Note_on_c, 0, 78, 100
2, 264576, Note_on_c, 0, 66, 100
2, 264956, Note_off_c, 0, 78, 100
2, 264956, Note_off_c, 0, 66, 100
2, 265152, Note_on_c, 0, 66, 100
2, 265196, Note_off_c, 0, 66, 100
2, 265200, Note_on_c, 0, 64, 100
2, 265244, Note_off_c, 0, 64, 100
2, 265248, Note_on_c, 0, 62, 100
2, 265292, Note_off_c, 0, 62, 100
2, 265296, Note_on_c, 0, 61, 100
2, 265340, Note_off_c, 0, 61, 100
2, 265344, Note_on_c, 0, 59, 100
2, 265724, Note_off_c, 0, 59, 100
2, 265920, Note_on_c, 0, 74, 110
2, 265920, Note_on_c, 0, 86, 110
2, 266108, Note_off_c, 0, 74, 100
2, 266108, Note_off_c, 0, 86, 100
2, 266112, Note_on_c, 0, 83, 110
2, 266112, Note_on_c, 0, 71, 110
2, 266492, Note_off_c, 0, 83, 100
2, 266492, Note_off_c, 0, 71, 100
2, 266496, Note_on_c, 0, 80, 110
2, 266496, Note_on_c, 0, 68, 110
2, 266876, Note_off_c, 0, 80, 100
2, 266876, Note_off_c, 0, 68, 100
2, 266880, Note_on_c, 0, 76, 110
2, 266880, Note_on_c, 0, 64, 110
2, 267260, Note_off_c, 0, 76, 100
2, 267260, Note_off_c, 0, 64, 100
2, 267264, Note_on_c, 0, 74, 80
2, 267264, Note_on_c, 0, 62, 80
2, 267644, Note_off_c, 0, 74, 100
2, 267644, Note_off_c, 0, 62, 100
2, 267648, Note_on_c, 0, 71, 80
2, 267648, Note_on_c, 0, 59, 80
2, 268028, Note_off_c, 0, 71, 100
2, 268028, Note_off_c, 0, 59, 100
2, 268032, Note_on_c, 0, 68, 80
2, 268032, Note_on_c, 0, 56, 80
2, 268412, Note_off_c, 0, 68, 100
2, 268412, Note_off_c, 0, 56, 100
2, 268416, Note_on_c, 0, 64, 80
2, 268416, Note_on_c, 0, 52, 80
2, 268796, Note_off_c, 0, 64, 100
2, 268796, Note_off_c, 0, 52, 100
2, 268992, Note_on_c, 0, 57, 80
2, 269052, Note_off_c, 0, 57, 100
2, 269056, Note_on_c, 0, 61, 80
2, 269116, Note_off_c, 0, 61, 100
2, 269120, Note_on_c, 0, 64, 80
2, 269180, Note_off_c, 0, 64, 100
2, 269184, Note_on_c, 0, 69, 110
2, 269372, Note_off_c, 0, 69, 100
2, 269376, Note_on_c, 0, 71, 80
2, 269564, Note_off_c, 0, 71, 100
2, 269568, Note_on_c, 0, 73, 80
2, 269756, Note_off_c, 0, 73, 100
2, 269760, Note_on_c, 0, 74, 80
2, 269948, Note_off_c, 0, 74, 100
2, 269952, Note_on_c, 0, 76, 80
2, 270140, Note_off_c, 0, 76, 100
2, 270144, Note_on_c, 0, 78, 80
2, 270332, Note_off_c, 0, 78, 100
2, 270336, Note_on_c, 0, 80, 80
2, 270524, Note_off_c, 0, 80, 100
2, 270528, Note_on_c, 0, 81, 80
2, 270716, Note_off_c, 0, 81, 100
2, 270720, Note_on_c, 0, 76, 80
2, 270912, Note_on_c, 0, 68, 80
2, 271100, Note_off_c, 0, 68, 100
2, 271104, Note_on_c, 0, 69, 80
2, 271292, Note_off_c, 0, 76, 100
2, 271292, Note_off_c, 0, 69, 100
2, 271296, Note_on_c, 0, 74, 80
2, 271296, Note_on_c, 0, 71, 80
2, 271484, Note_off_c, 0, 74, 100
2, 271484, Note_off_c, 0, 71, 100
2, 271488, Note_on_c, 0, 73, 80
2, 271488, Note_on_c, 0, 64, 80
2, 271676, Note_off_c, 0, 73, 100
2, 271676, Note_off_c, 0, 64, 100
2, 272448, Note_on_c, 0, 56, 80
2, 272448, Note_on_c, 0, 64, 80
2, 272636, Note_off_c, 0, 56, 100
2, 272636, Note_off_c, 0, 64, 100
2, 272640, Note_on_c, 0, 66, 80
2, 272640, Note_on_c, 0, 57, 80
2, 272828, Note_off_c, 0, 66, 100
2, 272828, Note_off_c, 0, 57, 100
2, 272832, Note_on_c, 0, 68, 80
2, 272832, Note_on_c, 0, 59, 80
2, 273020, Note_off_c, 0, 68, 100
2, 273020, Note_off_c, 0, 59, 100
2, 273024, Note_on_c, 0, 69, 80
2, 273024, Note_on_c, 0, 61, 80
2, 273212, Note_off_c, 0, 69, 100
2, 273212, Note_off_c, 0, 61, 100
2, 273216, Note_on_c, 0, 64, 80
2, 273404, Note_off_c, 0, 64, 100
2, 273408, Note_on_c, 0, 69, 80
2, 273596, Note_off_c, 0, 69, 100
2, 273600, Note_on_c, 0, 73, 80
2, 273788, Note_off_c, 0, 73, 100
2, 273792, Note_on_c, 0, 71, 80
2, 273792, Note_on_c, 0, 76, 80
2, 273980, Note_off_c, 0, 71, 100
2, 273984, Note_on_c, 0, 68, 80
2, 274172, Note_off_c, 0, 68, 100
2, 274176, Note_on_c, 0, 69, 80
2, 274364, Note_off_c, 0, 76, 100
2, 274364, Note_off_c, 0, 69, 100
2, 274368, Note_on_c, 0, 71, 80
2, 274368, Note_on_c, 0, 74, 80
2, 274556, Note_off_c, 0, 71, 100
2, 274556, Note_off_c, 0, 74, 100
2, 274560, Note_on_c, 0, 64, 80
2, 274560, Note_on_c, 0, 73, 80
2, 274748, Note_off_c, 0, 73, 100
2, 274752, Note_on_c, 0, 71, 80
2, 274940, Note_off_c, 0, 71, 100
2, 274944, Note_on_c, 0, 69, 80
2, 275132, Note_off_c, 0, 64, 100
2, 275132, Note_off_c, 0, 69, 100
2, 275136, Note_on_c, 0, 71, 80
2, 275136, Note_on_c, 0, 63, 80
2, 275324, Note_off_c, 0, 71, 100
2, 275324, Note_off_c, 0, 63, 100
2, 275328, Note_on_c, 0, 68, 70
2, 275328, Note_on_c, 0, 59, 70
2, 275516, Note_off_c, 0, 68, 100
2, 275520, Note_on_c, 0, 64, 70
2, 275708, Note_off_c, 0, 59, 100
2, 275708, Note_off_c, 0, 64, 100
2, 275712, Note_on_c, 0, 69, 70
2, 275712, Note_on_c, 0, 63, 70
2, 275712, Note_on_c, 0, 57, 70
2, 275900, Note_off_c, 0, 69, 100
2, 275904, Note_on_c, 0, 71, 70
2, 276092, Note_off_c, 0, 63, 100
2, 276092, Note_off_c, 0, 57, 100
2, 276092, Note_off_c, 0, 71, 100
2, 276096, Note_on_c, 0, 68, 70
2, 276096, Note_on_c, 0, 59, 70
2, 276284, Note_off_c, 0, 68, 100
2, 276288, Note_on_c, 0, 64, 70
2, 276476, Note_off_c, 0, 59, 100
2, 276476, Note_off_c, 0, 64, 100
2, 276480, Note_on_c, 0, 69, 70
2, 276480, Note_on_c, 0, 63, 70
2, 276480, Note_on_c, 0, 57, 70
2, 276668, Note_off_c, 0, 69, 100
2, 276672, Note_on_c, 0, 71, 70
2, 276860, Note_off_c, 0, 63, 100
2, 276860, Note_off_c, 0, 57, 100
2, 276860, Note_off_c, 0, 71, 100
2, 276864, Note_on_c, 0, 68, 70
2, 276864, Note_on_c, 0, 64, 70
2, 276864, Note_on_c, 0, 59, 70
2, 277244, Note_off_c, 0, 68, 100
2, 277244, Note_off_c, 0, 64, 100
2, 277244, Note_off_c, 0, 59, 100
2, 277824, Note_on_c, 0, 64, 70
2, 278012, Note_off_c, 0, 64, 100
2, 278016, Note_on_c, 0, 67, 70
2, 278016, Note_on_c, 0, 61, 70
2, 278016, Note_on_c, 0, 55, 70
2, 278204, Note_off_c, 0, 67, 100
2, 278208, Note_on_c, 0, 69, 70
2, 278396, Note_off_c, 0, 61, 100
2, 278396, Note_off_c, 0, 55, 100
2, 278396, Note_off_c, 0, 69, 100
2, 278400, Note_on_c, 0, 57, 70
2, 278400, Note_on_c, 0, 66, 70
2, 278588, Note_off_c, 0, 66, 100
2, 278592, Note_on_c, 0, 62, 70
2, 278780, Note_off_c, 0, 57, 100
2, 278780, Note_off_c, 0, 62, 100
2, 278784, Note_on_c, 0, 55, 70
2, 278784, Note_on_c, 0, 61, 70
2, 278784, Note_on_c, 0, 67, 70
2, 278972, Note_off_c, 0, 67, 100
2, 278976, Note_on_c, 0, 69, 70
2, 279164, Note_off_c, 0, 55, 100
2, 279164, Note_off_c, 0, 61, 100
2, 279164, Note_off_c, 0, 69, 100
2, 279168, Note_on_c, 0, 57, 70
2, 279168, Note_on_c, 0, 66, 70
2, 279356, Note_off_c, 0, 66, 100
2, 279360, Note_on_c, 0, 62, 70
2, 279548, Note_off_c, 0, 57, 100
2, 279548, Note_off_c, 0, 62, 100
2, 279552, Note_on_c, 0, 55, 70
2, 279552, Note_on_c, 0, 61, 70
2, 279552, Note_on_c, 0, 67, 70
2, 279740, Note_off_c, 0, 67, 100
2, 279744, Note_on_c, 0, 69, 70
2, 279932, Note_off_c, 0, 55, 100
2, 279932, Note_off_c, 0, 61, 100
2, 279932, Note_off_c, 0, 69, 100
2, 279936, Note_on_c, 0, 66, 70
2, 279936, Note_on_c, 0, 62, 70
2, 279936, Note_on_c, 0, 57, 70
2, 280316, Note_off_c, 0, 66, 100
2, 280316, Note_off_c, 0, 62, 100
2, 280316, Note_off_c, 0, 57, 100
2, 280896, Note_on_c, 0, 69, 120
2, 281084, Note_off_c, 0, 69, 100
2, 281088, Note_on_c, 0, 74, 120
2, 281088, Note_on_c, 0, 68, 120
2, 281088, Note_on_c, 0, 62, 120
2, 281276, Note_off_c, 0, 74, 100
2, 281280, Note_on_c, 0, 76, 120
2, 281468, Note_off_c, 0, 68, 100
2, 281468, Note_off_c, 0, 62, 100
2, 281468, Note_off_c, 0, 76, 100
2, 281472, Note_on_c, 0, 73, 120
2, 281472, Note_on_c, 0, 64, 120
2, 281660, Note_off_c, 0, 73, 100
2, 281664, Note_on_c, 0, 69, 120
2, 281852, Note_off_c, 0, 64, 100
2, 281852, Note_off_c, 0, 69, 100
2, 281856, Note_on_c, 0, 74, 120
2, 281856, Note_on_c, 0, 62, 120
2, 281856, Note_on_c, 0, 68, 120
2, 282044, Note_off_c, 0, 74, 100
2, 282048, Note_on_c, 0, 76, 120
2, 282236, Note_off_c, 0, 62, 100
2, 282236, Note_off_c, 0, 68, 100
2, 282236, Note_off_c, 0, 76, 100
2, 282240, Note_on_c, 0, 73, 120
2, 282240, Note_on_c, 0, 64, 120
2, 282428, Note_off_c, 0, 73, 100
2, 282432, Note_on_c, 0, 69, 120
2, 282620, Note_off_c, 0, 64, 100
2, 282620, Note_off_c, 0, 69, 100
2, 282624, Note_on_c, 0, 74, 120
2, 282624, Note_on_c, 0, 62, 120
2, 282624, Note_on_c, 0, 68, 120
2, 282812, Note_off_c, 0, 74, 100
2, 282816, Note_on_c, 0, 76, 120
2, 283004, Note_off_c, 0, 62, 100
2, 283004, Note_off_c, 0, 68, 100
2, 283004, Note_off_c, 0, 76, 100
2, 283008, Note_on_c, 0, 73, 120
2, 283008, Note_on_c, 0, 69, 120
2, 283008, Note_on_c, 0, 64, 120
2, 283388, Note_off_c, 0, 73, 100
2, 283388, Note_off_c, 0, 69, 100
2, 283388, Note_off_c, 0, 64, 100
2, 284544, Note_on_c, 0, 64, 110
2, 284608, Note_on_c, 0, 68, 110
2, 284668, Note_off_c, 0, 64, 100
2, 284672, Note_on_c, 0, 69, 110
2, 284732, Note_off_c, 0, 68, 100
2, 284736, Note_on_c, 0, 71, 110
2, 284796, Note_off_c, 0, 69, 100
2, 284800, Note_on_c, 0, 73, 110
2, 284860, Note_off_c, 0, 71, 100
2, 284864, Note_on_c, 0, 74, 110
2, 284924, Note_off_c, 0, 73, 100
2, 284928, Note_on_c, 0, 76, 110
2, 284988, Note_off_c, 0, 74, 100
2, 284992, Note_on_c, 0, 80, 110
2, 285052, Note_off_c, 0, 76, 100
2, 285056, Note_on_c, 0, 81, 110
2, 285116, Note_off_c, 0, 80, 100
2, 285120, Note_on_c, 0, 83, 110
2, 285180, Note_off_c, 0, 81, 100
2, 285184, Note_on_c, 0, 85, 110
2, 285244, Note_off_c, 0, 83, 100
2, 285248, Note_on_c, 0, 86, 110
2, 285308, Note_off_c, 0, 85, 100
2, 285308, Note_off_c, 0, 86, 100
2, 285312, Note_on_c, 0, 88, 110
2, 285500, Note_off_c, 0, 88, 100
2, 285504, Note_on_c, 0, 86, 110
2, 285692, Note_off_c, 0, 86, 100
2, 285696, Note_on_c, 0, 85, 110
2, 285884, Note_off_c, 0, 85, 100
2, 285888, Note_on_c, 0, 83, 110
2, 286076, Note_off_c, 0, 83, 100
2, 286080, Note_on_c, 0, 81, 110
2, 286460, Note_off_c, 0, 81, 100
2, 287616, Note_on_c, 0, 64, 110
2, 287680, Note_on_c, 0, 68, 110
2, 287740, Note_off_c, 0, 64, 100
2, 287744, Note_on_c, 0, 69, 111
2, 287804, Note_off_c, 0, 68, 100
2, 287808, Note_on_c, 0, 71, 112
2, 287868, Note_off_c, 0, 69, 100
2, 287872, Note_on_c, 0, 73, 113
2, 287932, Note_off_c, 0, 71, 100
2, 287936, Note_on_c, 0, 74, 114
2, 287996, Note_off_c, 0, 73, 100
2, 288000, Note_on_c, 0, 76, 115
2, 288060, Note_off_c, 0, 74, 100
2, 288064, Note_on_c, 0, 80, 115
2, 288124, Note_off_c, 0, 76, 100
2, 288128, Note_on_c, 0, 81, 116
2, 288188, Note_off_c, 0, 80, 100
2, 288192, Note_on_c, 0, 83, 117
2, 288252, Note_off_c, 0, 81, 100
2, 288256, Note_on_c, 0, 85, 118
2, 288316, Note_off_c, 0, 83, 100
2, 288320, Note_on_c, 0, 86, 119
2, 288380, Note_off_c, 0, 85, 100
2, 288380, Note_off_c, 0, 86, 100
2, 288384, Note_on_c, 0, 88, 120
2, 288572, Note_off_c, 0, 88, 100
2, 288576, Note_on_c, 0, 86, 120
2, 288764, Note_off_c, 0, 86, 100
2, 288768, Note_on_c, 0, 85, 120
2, 288956, Note_off_c, 0, 85, 100
2, 288960, Note_on_c, 0, 83, 120
2, 289148, Note_off_c, 0, 83, 100
2, 289152, Note_on_c, 0, 81, 120
2, 289340, Note_off_c, 0, 81, 100
2, 289344, Note_on_c, 0, 80, 120
2, 289532, Note_off_c, 0, 80, 100
2, 289536, Note_on_c, 0, 78, 120
2, 289724, Note_off_c, 0, 78, 100
2, 289728, Note_on_c, 0, 76, 120
2, 289916, Note_off_c, 0, 76, 100
2, 289920, Note_on_c, 0, 75, 120
2, 290108, Note_off_c, 0, 75, 100
2, 290112, Note_on_c, 0, 73, 120
2, 290300, Note_off_c, 0, 73, 100
2, 290304, Note_on_c, 0, 71, 120
2, 290492, Note_off_c, 0, 71, 100
2, 290496, Note_on_c, 0, 69, 120
2, 290684, Note_off_c, 0, 69, 100
2, 290688, Note_on_c, 0, 68, 100
2, 290880, Note_on_c, 0, 66, 100
2, 291068, Note_off_c, 0, 68, 100
2, 291068, Note_off_c, 0, 66, 100
2, 291072, Note_on_c, 0, 68, 100
2, 291072, Note_on_c, 0, 64, 100
2, 291260, Note_off_c, 0, 64, 100
2, 291264, Note_on_c, 0, 62, 100
2, 291452, Note_off_c, 0, 68, 100
2, 291452, Note_off_c, 0, 62, 100
2, 291456, Note_on_c, 0, 69, 100
2, 291456, Note_on_c, 0, 61, 100
2, 291644, Note_off_c, 0, 61, 100
2, 291648, Note_on_c, 0, 59, 100
2, 291836, Note_off_c, 0, 69, 100
2, 291836, Note_off_c, 0, 59, 100
2, 291840, Note_on_c, 0, 63, 100
2, 291840, Note_on_c, 0, 57, 100
2, 292028, Note_off_c, 0, 57, 100
2, 292032, Note_on_c, 0, 59, 100
2, 292220, Note_off_c, 0, 63, 100
2, 292220, Note_off_c, 0, 59, 100
2, 292224, Note_on_c, 0, 64, 100
2, 292224, Note_on_c, 0, 56, 100
2, 292412, Note_off_c, 0, 56, 100
2, 292416, Note_on_c, 0, 54, 100
2, 292604, Note_off_c, 0, 64, 100
2, 292604, Note_off_c, 0, 54, 100
2, 292608, Note_on_c, 0, 56, 100
2, 292608, Note_on_c, 0, 52, 100
2, 292796, Note_off_c, 0, 52, 100
2, 292800, Note_on_c, 0, 50, 100
2, 292988, Note_off_c, 0, 56, 100
2, 292988, Note_off_c, 0, 50, 100
2, 292992, Note_on_c, 0, 57, 100
2, 292992, Note_on_c, 0, 49, 100
2, 293180, Note_off_c, 0, 49, 100
2, 293184, Note_on_c, 0, 47, 100
2, 293372, Note_off_c, 0, 57, 100
2, 293372, Note_off_c, 0, 47, 100
2, 293376, Note_on_c, 0, 51, 100
2, 293376, Note_on_c, 0, 45, 100
2, 293564, Note_off_c, 0, 45, 100
2, 293568, Note_on_c, 0, 47, 100
2, 293756, Note_off_c, 0, 51, 100
2, 293756, Note_off_c, 0, 47, 100
2, 293760, Note_on_c, 0, 44, 100
2, 293760, Note_on_c, 0, 52, 100
2, 294140, Note_off_c, 0, 44, 100
2, 294140, Note_off_c, 0, 52, 100
2, 295872, Note_on_c, 0, 64, 100
2, 296060, Note_off_c, 0, 64, 100
2, 296064, Note_on_c, 0, 65, 100
2, 296252, Note_off_c, 0, 65, 100
2, 296256, Note_on_c, 0, 64, 100
2, 296444, Note_off_c, 0, 64, 100
2, 296448, Note_on_c, 0, 71, 100
2, 296636, Note_off_c, 0, 71, 100
2, 296640, Note_on_c, 0, 68, 100
2, 296828, Note_off_c, 0, 68, 100
2, 297408, Note_on_c, 0, 64, 100
2, 297596, Note_off_c, 0, 64, 100
2, 297600, Note_on_c, 0, 65, 100
2, 297788, Note_off_c, 0, 65, 100
2, 297792, Note_on_c, 0, 64, 100
2, 297980, Note_off_c, 0, 64, 100
2, 297984, Note_on_c, 0, 71, 100
2, 298172, Note_off_c, 0, 71, 100
2, 298176, Note_on_c, 0, 68, 100
2, 298364, Note_off_c, 0, 68, 100
2, 298944, Note_on_c, 0, 64, 100
2, 299132, Note_off_c, 0, 64, 100
2, 299136, Note_on_c, 0, 65, 100
2, 299324, Note_off_c, 0, 65, 100
2, 299328, Note_on_c, 0, 64, 100
2, 299516, Note_off_c, 0, 64, 100
2, 299520, Note_on_c, 0, 72, 100
2, 299708, Note_off_c, 0, 72, 100
2, 299712, Note_on_c, 0, 69, 100
2, 299900, Note_off_c, 0, 69, 100
2, 300672, Note_on_c, 0, 68, 100
2, 300860, Note_off_c, 0, 68, 100
2, 300864, Note_on_c, 0, 71, 100
2, 301052, Note_off_c, 0, 71, 100
2, 301056, Note_on_c, 0, 74, 100
2, 301244, Note_off_c, 0, 74, 100
2, 301248, Note_on_c, 0, 76, 100
2, 301436, Note_off_c, 0, 76, 100
2, 301440, Note_on_c, 0, 77, 100
2, 301628, Note_off_c, 0, 77, 100
2, 301632, Note_on_c, 0, 76, 100
2, 301820, Note_off_c, 0, 76, 100
2, 301824, Note_on_c, 0, 79, 100
2, 302012, Note_off_c, 0, 79, 100
2, 302016, Note_on_c, 0, 77, 100
2, 302204, Note_off_c, 0, 77, 100
2, 302208, Note_on_c, 0, 76, 100
2, 302396, Note_off_c, 0, 76, 100
2, 302400, Note_on_c, 0, 74, 100
2, 302588, Note_off_c, 0, 74, 100
2, 302592, Note_on_c, 0, 72, 100
2, 302780, Note_off_c, 0, 72, 100
2, 302784, Note_on_c, 0, 71, 100
2, 302972, Note_off_c, 0, 71, 100
2, 302976, Note_on_c, 0, 69, 100
2, 303356, Note_off_c, 0, 69, 100
2, 303552, Note_on_c, 0, 81, 100
2, 303740, Note_off_c, 0, 81, 100
2, 303744, Note_on_c, 0, 80, 100
2, 303932, Note_off_c, 0, 80, 100
2, 303936, Note_on_c, 0, 81, 100
2, 304124, Note_off_c, 0, 81, 100
2, 304128, Note_on_c, 0, 84, 100
2, 304316, Note_off_c, 0, 84, 100
2, 304320, Note_on_c, 0, 81, 100
2, 304508, Note_off_c, 0, 81, 100
2, 304512, Note_on_c, 0, 81, 100
2, 304796, Note_off_c, 0, 81, 100
2, 304800, Note_on_c, 0, 83, 100
2, 304844, Note_off_c, 0, 83, 100
2, 304848, Note_on_c, 0, 81, 100
2, 304892, Note_off_c, 0, 81, 100
2, 304896, Note_on_c, 0, 80, 100
2, 305660, Note_off_c, 0, 80, 100
2, 305664, Note_on_c, 0, 79, 100
2, 306044, Note_off_c, 0, 79, 100
2, 306048, Note_on_c, 0, 79, 100
2, 306428, Note_off_c, 0, 79, 100
2, 306624, Note_on_c, 0, 84, 100
2, 306812, Note_off_c, 0, 84, 100
2, 306816, Note_on_c, 0, 83, 100
2, 307004, Note_off_c, 0, 83, 100
2, 307008, Note_on_c, 0, 84, 100
2, 307196, Note_off_c, 0, 84, 100
2, 307200, Note_on_c, 0, 88, 100
2, 307388, Note_off_c, 0, 88, 100
2, 307392, Note_on_c, 0, 84, 100
2, 307580, Note_off_c, 0, 84, 100
2, 307584, Note_on_c, 0, 84, 100
2, 307868, Note_off_c, 0, 84, 100
2, 307872, Note_on_c, 0, 86, 100
2, 307916, Note_off_c, 0, 86, 100
2, 307920, Note_on_c, 0, 84, 100
2, 307964, Note_off_c, 0, 84, 100
2, 307968, Note_on_c, 0, 83, 100
2, 308732, Note_off_c, 0, 83, 100
2, 308736, Note_on_c, 0, 82, 100
2, 309116, Note_off_c, 0, 82, 100
2, 309120, Note_on_c, 0, 82, 100
2, 309500, Note_off_c, 0, 82, 100
2, 309696, Note_on_c, 0, 75, 100
2, 309884, Note_off_c, 0, 75, 100
2, 309888, Note_on_c, 0, 74, 100
2, 310076, Note_off_c, 0, 74, 100
2, 310080, Note_on_c, 0, 75, 100
2, 310268, Note_off_c, 0, 75, 100
2, 310272, Note_on_c, 0, 79, 100
2, 310460, Note_off_c, 0, 79, 100
2, 310464, Note_on_c, 0, 75, 100
2, 310652, Note_off_c, 0, 75, 100
2, 310656, Note_on_c, 0, 75, 100
2, 310940, Note_off_c, 0, 75, 100
2, 310944, Note_on_c, 0, 77, 100
2, 310988, Note_off_c, 0, 77, 100
2, 310992, Note_on_c, 0, 75, 100
2, 311036, Note_off_c, 0, 75, 100
2, 311040, Note_on_c, 0, 74, 100
2, 311040, Note_on_c, 0, 62, 100
2, 311804, Note_off_c, 0, 62, 100
2, 311804, Note_off_c, 0, 74, 100
2, 311808, Note_on_c, 0, 74, 100
2, 312188, Note_off_c, 0, 74, 100
2, 312192, Note_on_c, 0, 74, 100
2, 312380, Note_off_c, 0, 74, 100
2, 312384, Note_on_c, 0, 76, 100
2, 312432, Note_on_c, 0, 74, 100
2, 312476, Note_off_c, 0, 76, 100
2, 312480, Note_on_c, 0, 73, 100
2, 312524, Note_off_c, 0, 74, 100
2, 312528, Note_on_c, 0, 74, 100
2, 312572, Note_off_c, 0, 73, 100
2, 312572, Note_off_c, 0, 74, 100
2, 312576, Note_on_c, 0, 65, 110
2, 312576, Note_on_c, 0, 77, 110
2, 313340, Note_off_c, 0, 65, 100
2, 313340, Note_off_c, 0, 77, 100
2, 313344, Note_on_c, 0, 64, 100
2, 313344, Note_on_c, 0, 76, 100
2, 313724, Note_off_c, 0, 64, 100
2, 313724, Note_off_c, 0, 76, 100
2, 313728, Note_on_c, 0, 76, 100
2, 313916, Note_off_c, 0, 76, 100
2, 313920, Note_on_c, 0, 78, 100
2, 313968, Note_on_c, 0, 76, 100
2, 314012, Note_off_c, 0, 78, 100
2, 314016, Note_on_c, 0, 74, 100
2, 314060, Note_off_c, 0, 76, 100
2, 314064, Note_on_c, 0, 76, 100
2, 314108, Note_off_c, 0, 74, 100
2, 314108, Note_off_c, 0, 76, 100
2, 314112, Note_on_c, 0, 67, 110
2, 314112, Note_on_c, 0, 79, 110
2, 314876, Note_off_c, 0, 67, 100
2, 314876, Note_off_c, 0, 79, 100
2, 314880, Note_on_c, 0, 66, 100
2, 314880, Note_on_c, 0, 78, 100
2, 315260, Note_off_c, 0, 66, 100
2, 315260, Note_off_c, 0, 78, 100
2, 315264, Note_on_c, 0, 78, 100
2, 315452, Note_off_c, 0, 78, 100
2, 315456, Note_on_c, 0, 80, 100
2, 315504, Note_on_c, 0, 78, 100
2, 315548, Note_off_c, 0, 80, 100
2, 315552, Note_on_c, 0, 77, 100
2, 315596, Note_off_c, 0, 78, 100
2, 315600, Note_on_c, 0, 78, 100
2, 315644, Note_off_c, 0, 77, 100
2, 315644, Note_off_c, 0, 78, 100
2, 315648, Note_on_c, 0, 81, 110
2, 315648, Note_on_c, 0, 69, 110
2, 316412, Note_off_c, 0, 69, 100
2, 316412, Note_off_c, 0, 81, 100
2, 316416, Note_on_c, 0, 68, 100
2, 316416, Note_on_c, 0, 80, 100
2, 316796, Note_off_c, 0, 68, 100
2, 316796, Note_off_c, 0, 80, 100
2, 316800, Note_on_c, 0, 80, 100
2, 316800, Note_on_c, 0, 68, 100
2, 317180, Note_off_c, 0, 80, 100
2, 317180, Note_off_c, 0, 68, 100
2, 317376, Note_on_c, 0, 65, 120
2, 317424, Note_on_c, 0, 64, 120
2, 317468, Note_off_c, 0, 65, 100
2, 317472, Note_on_c, 0, 62, 120
2, 317516, Note_off_c, 0, 64, 100
2, 317520, Note_on_c, 0, 60, 120
2, 317564, Note_off_c, 0, 62, 100
2, 317564, Note_off_c, 0, 60, 100
2, 317568, Note_on_c, 0, 59, 120
2, 317948, Note_off_c, 0, 59, 100
2, 318144, Note_on_c, 0, 69, 70
2, 318144, Note_on_c, 0, 81, 70
2, 318332, Note_off_c, 0, 69, 100
2, 318332, Note_off_c, 0, 81, 100
2, 318336, Note_on_c, 0, 68, 70
2, 318336, Note_on_c, 0, 80, 70
2, 318716, Note_off_c, 0, 68, 100
2, 318716, Note_off_c, 0, 80, 100
2, 318912, Note_on_c, 0, 65, 120
2, 318960, Note_on_c, 0, 64, 120
2, 319004, Note_off_c, 0, 65, 100
2, 319008, Note_on_c, 0, 62, 120
2, 319052, Note_off_c, 0, 64, 100
2, 319056, Note_on_c, 0, 60, 120
2, 319100, Note_off_c, 0, 62, 100
2, 319100, Note_off_c, 0, 60, 100
2, 319104, Note_on_c, 0, 59, 120
2, 319484, Note_off_c, 0, 59, 100
2, 319680, Note_on_c, 0, 81, 70
2, 319868, Note_off_c, 0, 81, 100
2, 319872, Note_on_c, 0, 80, 70
2, 320252, Note_off_c, 0, 80, 100
2, 320448, Note_on_c, 0, 81, 70
2, 320636, Note_off_c, 0, 81, 100
2, 320640, Note_on_c, 0, 80, 70
2, 321020, Note_off_c, 0, 80, 100
2, 321216, Note_on_c, 0, 81, 70
2, 321404, Note_off_c, 0, 81, 100
2, 321408, Note_on_c, 0, 80, 70
2, 321788, Note_off_c, 0, 80, 100
2, 322752, Note_on_c, 0, 76, 100
2, 322940, Note_off_c, 0, 76, 100
2, 323136, Note_on_c, 0, 69, 120
2, 323200, Note_on_c, 0, 81, 120
2, 323260, Note_off_c, 0, 69, 100
2, 323264, Note_on_c, 0, 69, 120
2, 323324, Note_off_c, 0, 81, 100
2, 323328, Note_on_c, 0, 64, 120
2, 323388, Note_off_c, 0, 69, 100
2, 323392, Note_on_c, 0, 76, 120
2, 323452, Note_off_c, 0, 64, 100
2, 323456, Note_on_c, 0, 64, 120
2, 323516, Note_off_c, 0, 76, 100
2, 323520, Note_on_c, 0, 61, 120
2, 323580, Note_off_c, 0, 64, 100
2, 323584, Note_on_c, 0, 73, 120
2, 323644, Note_off_c, 0, 61, 100
2, 323648, Note_on_c, 0, 61, 120
2, 323708, Note_off_c, 0, 73, 100
2, 323712, Note_on_c, 0, 57, 120
2, 323772, Note_off_c, 0, 61, 100
2, 323776, Note_on_c, 0, 69, 120
2, 323836, Note_off_c, 0, 57, 100
2, 323840, Note_on_c, 0, 57, 120
2, 323900, Note_off_c, 0, 69, 100
2, 323904, Note_on_c, 0, 52, 120
2, 323964, Note_off_c, 0, 57, 100
2, 323968, Note_on_c, 0, 64, 120
2, 324028, Note_off_c, 0, 52, 100
2, 324032, Note_on_c, 0, 52, 120
2, 324092, Note_off_c, 0, 64, 100
2, 324096, Note_on_c, 0, 49, 120
2, 324156, Note_off_c, 0, 52, 100
2, 324160, Note_on_c, 0, 61, 120
2, 324220, Note_off_c, 0, 49, 100
2, 324224, Note_on_c, 0, 49, 120
2, 324284, Note_off_c, 0, 61, 100
2, 324288, Note_on_c, 0, 45, 120
2, 324348, Note_off_c, 0, 49, 100
2, 324352, Note_on_c, 0, 57, 120
2, 324412, Note_off_c, 0, 45, 100
2, 324416, Note_on_c, 0, 45, 120
2, 324476, Note_off_c, 0, 57, 100
2, 324476, Note_off_c, 0, 45, 100
2, 324480, Note_on_c, 0, 59, 120
2, 324480, Note_on_c, 0, 57, 120
2, 325244, Note_off_c, 0, 59, 100
2, 325244, Note_off_c, 0, 57, 100
2, 325248, Note_on_c, 0, 64, 120
2, 325248, Note_on_c, 0, 56, 120
2, 326012, Note_off_c, 0, 64, 100
2, 326012, Note_off_c, 0, 56, 100
2, 326208, Note_on_c, 0, 52, 120
2, 326272, Note_on_c, 0, 64, 120
2, 326332, Note_off_c, 0, 52, 100
2, 326336, Note_on_c, 0, 52, 120
2, 326396, Note_off_c, 0, 64, 100
2, 326400, Note_on_c, 0, 57, 120
2, 326460, Note_off_c, 0, 52, 100
2, 326464, Note_on_c, 0, 69, 120
2, 326524, Note_off_c, 0, 57, 100
2, 326528, Note_on_c, 0, 57, 120
2, 326588, Note_off_c, 0, 69, 100
2, 326592, Note_on_c, 0, 61, 120
2, 326652, Note_off_c, 0, 57, 100
2, 326656, Note_on_c, 0, 73, 120
2, 326716, Note_off_c, 0, 61, 100
2, 326720, Note_on_c, 0, 61, 120
2, 326780, Note_off_c, 0, 73, 100
2, 326784, Note_on_c, 0, 64, 120
2, 326844, Note_off_c, 0, 61, 100
2, 326848, Note_on_c, 0, 76, 120
2, 326908, Note_off_c, 0, 64, 100
2, 326912, Note_on_c, 0, 64, 120
2, 326972, Note_off_c, 0, 76, 100
2, 326976, Note_on_c, 0, 69, 120
2, 327036, Note_off_c, 0, 64, 100
2, 327040, Note_on_c, 0, 81, 120
2, 327100, Note_off_c, 0, 69, 100
2, 327104, Note_on_c, 0, 69, 120
2, 327164, Note_off_c, 0, 81, 100
2, 327168, Note_on_c, 0, 73, 120
2, 327228, Note_off_c, 0, 69, 100
2, 327232, Note_on_c, 0, 85, 120
2, 327292, Note_off_c, 0, 73, 100
2, 327296, Note_on_c, 0, 73, 120
2, 327356, Note_off_c, 0, 85, 100
2, 327360, Note_on_c, 0, 76, 120
2, 327420, Note_off_c, 0, 73, 100
2, 327424, Note_on_c, 0, 88, 120
2, 327484, Note_off_c, 0, 76, 100
2, 327488, Note_on_c, 0, 76, 120
2, 327548, Note_off_c, 0, 88, 100
2, 327548, Note_off_c, 0, 76, 100
2, 327552, Note_on_c, 0, 87, 120
2, 327552, Note_on_c, 0, 83, 120
2, 327552, Note_on_c, 0, 81, 120
2, 327552, Note_on_c, 0, 75, 120
2, 328316, Note_off_c, 0, 87, 100
2, 328316, Note_off_c, 0, 83, 100
2, 328316, Note_off_c, 0, 81, 100
2, 328316, Note_off_c, 0, 75, 100
2, 328320, Note_on_c, 0, 74, 120
2, 328320, Note_on_c, 0, 80, 120
2, 328320, Note_on_c, 0, 83, 120
2, 328320, Note_on_c, 0, 88, 120
2, 329084, Note_off_c, 0, 74, 100
2, 329084, Note_off_c, 0, 80, 100
2, 329084, Note_off_c, 0, 83, 100
2, 329084, Note_off_c, 0, 88, 100
2, 329088, Note_on_c, 0, 81, 100
2, 329088, Note_on_c, 0, 73, 100
2, 329276, Note_off_c, 0, 81, 100
2, 329276, Note_off_c, 0, 73, 100
2, 329536, Note_on_c, 0, 73, 100
2, 329600, Note_on_c, 0, 74, 100
2, 329660, Note_off_c, 0, 73, 100
2, 329664, Note_on_c, 0, 76, 100
2, 329724, Note_off_c, 0, 74, 100
2, 329728, Note_on_c, 0, 78, 100
2, 329788, Note_off_c, 0, 76, 100
2, 329792, Note_on_c, 0, 80, 100
2, 329852, Note_off_c, 0, 78, 100
2, 329852, Note_off_c, 0, 80, 100
2, 329856, Note_on_c, 0, 81, 100
2, 330044, Note_off_c, 0, 81, 100
2, 330048, Note_on_c, 0, 80, 100
2, 330236, Note_off_c, 0, 80, 100
2, 330240, Note_on_c, 0, 78, 100
2, 330428, Note_off_c, 0, 78, 100
2, 330432, Note_on_c, 0, 76, 100
2, 330620, Note_off_c, 0, 76, 100
2, 330624, Note_on_c, 0, 74, 100
2, 330812, Note_off_c, 0, 74, 100
2, 330816, Note_on_c, 0, 73, 100
2, 331004, Note_off_c, 0, 73, 100
2, 331008, Note_on_c, 0, 71, 100
2, 331196, Note_off_c, 0, 71, 100
2, 331200, Note_on_c, 0, 69, 100
2, 331388, Note_off_c, 0, 69, 100
2, 331392, Note_on_c, 0, 68, 100
2, 331580, Note_off_c, 0, 68, 100
2, 332160, Note_on_c, 0, 57, 100
2, 332348, Note_off_c, 0, 57, 100
2, 333696, Note_on_c, 0, 64, 120
2, 333760, Note_on_c, 0, 68, 120
2, 333820, Note_off_c, 0, 64, 100
2, 333824, Note_on_c, 0, 69, 120
2, 333884, Note_off_c, 0, 68, 100
2, 333888, Note_on_c, 0, 71, 120
2, 333948, Note_off_c, 0, 69, 100
2, 333952, Note_on_c, 0, 73, 120
2, 334012, Note_off_c, 0, 71, 100
2, 334016, Note_on_c, 0, 74, 120
2, 334076, Note_off_c, 0, 73, 100
2, 334080, Note_on_c, 0, 76, 120
2, 334140, Note_off_c, 0, 74, 100
2, 334144, Note_on_c, 0, 80, 120
2, 334204, Note_off_c, 0, 76, 100
2, 334208, Note_on_c, 0, 81, 120
2, 334268, Note_off_c, 0, 80, 100
2, 334272, Note_on_c, 0, 83, 120
2, 334332, Note_off_c, 0, 81, 100
2, 334336, Note_on_c, 0, 85, 120
2, 334396, Note_off_c, 0, 83, 100
2, 334400, Note_on_c, 0, 86, 120
2, 334460, Note_off_c, 0, 85, 100
2, 334460, Note_off_c, 0, 86, 100
2, 334464, Note_on_c, 0, 88, 120
2, 334652, Note_off_c, 0, 88, 100
2, 334656, Note_on_c, 0, 86, 120
2, 334844, Note_off_c, 0, 86, 100
2, 334848, Note_on_c, 0, 85, 120
2, 335036, Note_off_c, 0, 85, 100
2, 335040, Note_on_c, 0, 83, 120
2, 335228, Note_off_c, 0, 83, 100
2, 335232, Note_on_c, 0, 81, 120
2, 335420, Note_off_c, 0, 81, 100
2, 335424, Note_on_c, 0, 80, 120
2, 335612, Note_off_c, 0, 80, 100
2, 335616, Note_on_c, 0, 78, 120
2, 335804, Note_off_c, 0, 78, 100
2, 335808, Note_on_c, 0, 76, 120
2, 335996, Note_off_c, 0, 76, 100
2, 336000, Note_on_c, 0, 74, 120
2, 336188, Note_off_c, 0, 74, 100
2, 336192, Note_on_c, 0, 73, 120
2, 336380, Note_off_c, 0, 73, 100
2, 336384, Note_on_c, 0, 71, 120
2, 336572, Note_off_c, 0, 71, 100
2, 336576, Note_on_c, 0, 69, 120
2, 336764, Note_off_c, 0, 69, 100
2, 336768, Note_on_c, 0, 68, 120
2, 336956, Note_off_c, 0, 68, 100
2, 336960, Note_on_c, 0, 66, 120
2, 337148, Note_off_c, 0, 66, 100
2, 337152, Note_on_c, 0, 64, 120
2, 337340, Note_off_c, 0, 64, 100
2, 337344, Note_on_c, 0, 62, 120
2, 337532, Note_off_c, 0, 62, 100
2, 337536, Note_on_c, 0, 61, 120
2, 337724, Note_off_c, 0, 61, 100
2, 337728, Note_on_c, 0, 59, 120
2, 337916, Note_off_c, 0, 59, 100
2, 337920, Note_on_c, 0, 57, 120
2, 338108, Note_off_c, 0, 57, 100
2, 338112, Note_on_c, 0, 56, 120
2, 338300, Note_off_c, 0, 56, 100
2, 338304, Note_on_c, 0, 57, 85
2, 338304, Note_on_c, 0, 45, 85
2, 338492, Note_off_c, 0, 45, 100
2, 338496, Note_on_c, 0, 47, 85
2, 338684, Note_off_c, 0, 47, 100
2, 338688, Note_on_c, 0, 49, 85
2, 338876, Note_off_c, 0, 49, 100
2, 338880, Note_on_c, 0, 50, 85
2, 339068, Note_off_c, 0, 57, 100
2, 339068, Note_off_c, 0, 50, 100
2, 339072, Note_on_c, 0, 62, 85
2, 339072, Note_on_c, 0, 52, 85
2, 339260, Note_off_c, 0, 52, 100
2, 339264, Note_on_c, 0, 54, 85
2, 339452, Note_off_c, 0, 54, 100
2, 339456, Note_on_c, 0, 55, 85
2, 339644, Note_off_c, 0, 55, 100
2, 339648, Note_on_c, 0, 56, 85
2, 339836, Note_off_c, 0, 62, 100
2, 339836, Note_off_c, 0, 56, 100
2, 339840, Note_on_c, 0, 61, 85
2, 339840, Note_on_c, 0, 57, 85
2, 339840, Note_on_c, 0, 52, 85
2, 340604, Note_off_c, 0, 61, 100
2, 340604, Note_off_c, 0, 57, 100
2, 340604, Note_off_c, 0, 52, 100
2, 340608, Note_on_c, 0, 59, 85
2, 340608, Note_on_c, 0, 52, 85
2, 340608, Note_on_c, 0, 50, 85
2, 341372, Note_off_c, 0, 59, 100
2, 341372, Note_off_c, 0, 52, 100
2, 341372, Note_off_c, 0, 50, 100
2, 341376, Note_on_c, 0, 57, 70
2, 341376, Note_on_c, 0, 49, 70
2, 341564, Note_off_c, 0, 49, 100
2, 341568, Note_on_c, 0, 47, 70
2, 341756, Note_off_c, 0, 47, 100
2, 341760, Note_on_c, 0, 49, 70
2, 341948, Note_off_c, 0, 49, 100
2, 341952, Note_on_c, 0, 50, 70
2, 342140, Note_off_c, 0, 57, 100
2, 342140, Note_off_c, 0, 50, 100
2, 342144, Note_on_c, 0, 62, 70
2, 342144, Note_on_c, 0, 52, 70
2, 342332, Note_off_c, 0, 52, 100
2, 342336, Note_on_c, 0, 54, 70
2, 342524, Note_off_c, 0, 54, 100
2, 342528, Note_on_c, 0, 55, 70
2, 342716, Note_off_c, 0, 55, 100
2, 342720, Note_on_c, 0, 56, 70
2, 342908, Note_off_c, 0, 62, 100
2, 342908, Note_off_c, 0, 56, 100
2, 342912, Note_on_c, 0, 61, 70
2, 342912, Note_on_c, 0, 57, 70
2, 342912, Note_on_c, 0, 52, 70
2, 343676, Note_off_c, 0, 61, 100
2, 343676, Note_off_c, 0, 57, 100
2, 343676, Note_off_c, 0, 52, 100
2, 343680, Note_on_c, 0, 59, 70
2, 343680, Note_on_c, 0, 52, 70
2, 343680, Note_on_c, 0, 50, 70
2, 344444, Note_off_c, 0, 59, 100
2, 344444, Note_off_c, 0, 52, 100
2, 344444, Note_off_c, 0, 50, 100
2, 344448, Note_on_c, 0, 57, 70
2, 344448, Note_on_c, 0, 52, 70
2, 344448, Note_on_c, 0, 49, 70
2, 344828, Note_off_c, 0, 57, 100
2, 344828, Note_off_c, 0, 52, 100
2, 344828, Note_off_c, 0, 49, 100
2, 345216, Note_on_c, 0, 57, 70
2, 345216, Note_on_c, 0, 52, 70
2, 345216, Note_on_c, 0, 49, 70
2, 345596, Note_off_c, 0, 57, 100
2, 345596, Note_off_c, 0, 52, 100
2, 345596, Note_off_c, 0, 49, 100
2, 345600, Note_on_c, 0, 57, 70
2, 345600, Note_on_c, 0, 52, 70
2, 345600, Note_on_c, 0, 49, 70
2, 345980, Note_off_c, 0, 57, 100
2, 345980, Note_off_c, 0, 52, 100
2, 345980, Note_off_c, 0, 49, 100
2, 345984, Note_on_c, 0, 57, 70
2, 345984, Note_on_c, 0, 52, 70
2, 345984, Note_on_c, 0, 49, 70
2, 346364, Note_off_c, 0, 57, 100
2, 346364, Note_off_c, 0, 52, 100
2, 346364, Note_off_c, 0, 49, 100
2, 346752, Note_on_c, 0, 52, 70
2, 346752, Note_on_c, 0, 49, 70
2, 347132, Note_off_c, 0, 52, 100
2, 347132, Note_off_c, 0, 49, 100
2, 347520, Note_on_c, 0, 49, 70
2, 347520, Note_on_c, 0, 45, 70
2, 348284, Note_off_c, 0, 49, 100
2, 348284, Note_off_c, 0, 45, 100
2, 348288, Control_c, 0, 7, 0
2, 348672, Note_on_c, 0, 57, 1
2, 349052, Note_off_c, 0, 57, 100
2, 349052, End_track
3, 0, Start_track
3, 0, Title_t, "Left"
3, 0, Control_c, 1, 0, 0
3, 0, Program_c, 1, 0
3, 0, Control_c, 1, 7, 100
3, 0, Control_c, 1, 10, 56
3, 0, Control_c, 1, 91, 127
3, 0, Key_signature, 3, "major"
3, 192, Note_on_c, 1, 57, 80
3, 380, Note_off_c, 1, 57, 100
3, 384, Note_on_c, 1, 52, 80
3, 764, Note_off_c, 1, 52, 100
3, 960, Note_on_c, 1, 52, 80
3, 1004, Note_off_c, 1, 52, 100
3, 1008, Note_on_c, 1, 50, 80
3, 1052, Note_off_c, 1, 50, 100
3, 1056, Note_on_c, 1, 49, 80
3, 1100, Note_off_c, 1, 49, 100
3, 1104, Note_on_c, 1, 47, 80
3, 1148, Note_off_c, 1, 47, 100
3, 1152, Note_on_c, 1, 45, 80
3, 1532, Note_off_c, 1, 45, 100
3, 1728, Note_on_c, 1, 57, 80
3, 1916, Note_off_c, 1, 57, 100
3, 1920, Note_on_c, 1, 54, 80
3, 2300, Note_off_c, 1, 54, 100
3, 2496, Note_on_c, 1, 54, 80
3, 2540, Note_off_c, 1, 54, 100
3, 2544, Note_on_c, 1, 52, 80
3, 2588, Note_off_c, 1, 52, 100
3, 2592, Note_on_c, 1, 50, 80
3, 2636, Note_off_c, 1, 50, 100
3, 2640, Note_on_c, 1, 49, 80
3, 2684, Note_off_c, 1, 49, 100
3, 2688, Note_on_c, 1, 47, 80
3, 3068, Note_off_c, 1, 47, 100
3, 3264, Note_on_c, 1, 62, 80
3, 3452, Note_off_c, 1, 62, 100
3, 3456, Note_on_c, 1, 59, 80
3, 3836, Note_off_c, 1, 59, 100
3, 3840, Note_on_c, 1, 56, 80
3, 4220, Note_off_c, 1, 56, 100
3, 4224, Note_on_c, 1, 52, 80
3, 4604, Note_off_c, 1, 52, 100
3, 4608, Note_on_c, 1, 50, 80
3, 4988, Note_off_c, 1, 50, 100
3, 4992, Note_on_c, 1, 47, 80
3, 5372, Note_off_c, 1, 47, 100
3, 5376, Note_on_c, 1, 44, 80
3, 5756, Note_off_c, 1, 44, 100
3, 5760, Note_on_c, 1, 40, 80
3, 6140, Note_off_c, 1, 40, 100
3, 6528, Note_on_c, 1, 45, 100
3, 6592, Note_on_c, 1, 49, 80
3, 6656, Note_on_c, 1, 52, 80
3, 6720, Note_on_c, 1, 57, 80
3, 6780, Note_off_c, 1, 57, 100
3, 6908, Note_off_c, 1, 45, 100
3, 6908, Note_off_c, 1, 49, 100
3, 6908, Note_off_c, 1, 52, 100
3, 8256, Note_on_c, 1, 52, 80
3, 8444, Note_off_c, 1, 52, 100
3, 8448, Note_on_c, 1, 54, 80
3, 8636, Note_off_c, 1, 54, 100
3, 8640, Note_on_c, 1, 56, 80
3, 8828, Note_off_c, 1, 56, 100
3, 8832, Note_on_c, 1, 57, 80
3, 9020, Note_off_c, 1, 57, 100
3, 9024, Note_on_c, 1, 45, 80
3, 9212, Note_off_c, 1, 45, 100
3, 9216, Note_on_c, 1, 49, 80
3, 9404, Note_off_c, 1, 49, 100
3, 9408, Note_on_c, 1, 50, 80
3, 9596, Note_off_c, 1, 50, 100
3, 9600, Note_on_c, 1, 52, 80
3, 10172, Note_off_c, 1, 52, 100
3, 10176, Note_on_c, 1, 50, 80
3, 10364, Note_off_c, 1, 50, 100
3, 10368, Note_on_c, 1, 49, 80
3, 10556, Note_off_c, 1, 49, 100
3, 10560, Note_on_c, 1, 52, 80
3, 10748, Note_off_c, 1, 52, 100
3, 10752, Note_on_c, 1, 49, 80
3, 10940, Note_off_c, 1, 49, 100
3, 10944, Note_on_c, 1, 45, 80
3, 11132, Note_off_c, 1, 45, 100
3, 11136, Note_on_c, 1, 44, 80
3, 11324, Note_off_c, 1, 44, 100
3, 11328, Note_on_c, 1, 40, 80
3, 11516, Note_off_c, 1, 40, 100
3, 11520, Note_on_c, 1, 42, 80
3, 11708, Note_off_c, 1, 42, 100
3, 11712, Note_on_c, 1, 44, 80
3, 11900, Note_off_c, 1, 44, 100
3, 11904, Note_on_c, 1, 45, 80
3, 12092, Note_off_c, 1, 45, 100
3, 12096, Note_on_c, 1, 44, 80
3, 12284, Note_off_c, 1, 44, 100
3, 12288, Note_on_c, 1, 42, 80
3, 12476, Note_off_c, 1, 42, 100
3, 12480, Note_on_c, 1, 47, 80
3, 12668, Note_off_c, 1, 47, 100
3, 12672, Note_on_c, 1, 52, 70
3, 12672, Note_on_c, 1, 40, 70
3, 12860, Note_off_c, 1, 52, 100
3, 12864, Note_on_c, 1, 47, 70
3, 13052, Note_off_c, 1, 47, 100
3, 13056, Note_on_c, 1, 54, 70
3, 13244, Note_off_c, 1, 54, 100
3, 13248, Note_on_c, 1, 47, 70
3, 13436, Note_off_c, 1, 40, 100
3, 13436, Note_off_c, 1, 47, 100
3, 13440, Note_on_c, 1, 52, 70
3, 13440, Note_on_c, 1, 40, 70
3, 13628, Note_off_c, 1, 52, 100
3, 13632, Note_on_c, 1, 47, 70
3, 13820, Note_off_c, 1, 47, 100
3, 13824, Note_on_c, 1, 54, 70
3, 14012, Note_off_c, 1, 54, 100
3, 14016, Note_on_c, 1, 47, 70
3, 14204, Note_off_c, 1, 40, 100
3, 14204, Note_off_c, 1, 47, 100
3, 14208, Note_on_c, 1, 52, 70
3, 14208, Note_on_c, 1, 40, 70
3, 14588, Note_off_c, 1, 52, 100
3, 14588, Note_off_c, 1, 40, 100
3, 14592, Note_on_c, 1, 40, 70
3, 14972, Note_off_c, 1, 40, 100
3, 14976, Note_on_c, 1, 40, 70
3, 15356, Note_off_c, 1, 40, 100
3, 15552, Note_on_c, 1, 57, 110
3, 15740, Note_off_c, 1, 57, 100
3, 15744, Note_on_c, 1, 52, 110
3, 16124, Note_off_c, 1, 52, 100
3, 16320, Note_on_c, 1, 52, 110
3, 16364, Note_off_c, 1, 52, 100
3, 16368, Note_on_c, 1, 50, 110
3, 16412, Note_off_c, 1, 50, 100
3, 16416, Note_on_c, 1, 49, 110
3, 16460, Note_off_c, 1, 49, 100
3, 16464, Note_on_c, 1, 47, 110
3, 16508, Note_off_c, 1, 47, 100
3, 16512, Note_on_c, 1, 45, 110
3, 16892, Note_off_c, 1, 45, 100
3, 17088, Note_on_c, 1, 33, 100
3, 17152, Note_on_c, 1, 37, 100
3, 17212, Note_off_c, 1, 33, 100
3, 17216, Note_on_c, 1, 40, 100
3, 17276, Note_off_c, 1, 37, 100
3, 17276, Note_off_c, 1, 40, 100
3, 17280, Note_on_c, 1, 45, 113
3, 17468, Note_off_c, 1, 45, 100
3, 17472, Note_on_c, 1, 47, 80
3, 17660, Note_off_c, 1, 47, 100
3, 17664, Note_on_c, 1, 49, 80
3, 17852, Note_off_c, 1, 49, 100
3, 17856, Note_on_c, 1, 50, 80
3, 18044, Note_off_c, 1, 50, 100
3, 18048, Note_on_c, 1, 52, 80
3, 18236, Note_off_c, 1, 52, 100
3, 18240, Note_on_c, 1, 54, 80
3, 18428, Note_off_c, 1, 54, 100
3, 18432, Note_on_c, 1, 56, 80
3, 18620, Note_off_c, 1, 56, 100
3, 18624, Note_on_c, 1, 57, 80
3, 18812, Note_off_c, 1, 57, 100
3, 18816, Note_on_c, 1, 52, 109
3, 19388, Note_off_c, 1, 52, 100
3, 19392, Note_on_c, 1, 50, 80
3, 19580, Note_off_c, 1, 50, 100
3, 19584, Note_on_c, 1, 49, 80
3, 19772, Note_off_c, 1, 49, 100
3, 19776, Note_on_c, 1, 52, 80
3, 19964, Note_off_c, 1, 52, 100
3, 19968, Note_on_c, 1, 49, 80
3, 20156, Note_off_c, 1, 49, 100
3, 20160, Note_on_c, 1, 45, 80
3, 20348, Note_off_c, 1, 45, 100
3, 20352, Note_on_c, 1, 44, 80
3, 20540, Note_off_c, 1, 44, 100
3, 20544, Note_on_c, 1, 52, 80
3, 20732, Note_off_c, 1, 52, 100
3, 20736, Note_on_c, 1, 54, 80
3, 20924, Note_off_c, 1, 54, 100
3, 20928, Note_on_c, 1, 56, 80
3, 21116, Note_off_c, 1, 56, 100
3, 21120, Note_on_c, 1, 57, 80
3, 21308, Note_off_c, 1, 57, 100
3, 21312, Note_on_c, 1, 52, 80
3, 21500, Note_off_c, 1, 52, 100
3, 21504, Note_on_c, 1, 57, 80
3, 21692, Note_off_c, 1, 57, 100
3, 21696, Note_on_c, 1, 61, 80
3, 21884, Note_off_c, 1, 61, 100
3, 21888, Note_on_c, 1, 64, 111
3, 22460, Note_off_c, 1, 64, 100
3, 22464, Note_on_c, 1, 62, 80
3, 22652, Note_off_c, 1, 62, 100
3, 22656, Note_on_c, 1, 61, 80
3, 22844, Note_off_c, 1, 61, 100
3, 22848, Note_on_c, 1, 56, 80
3, 23036, Note_off_c, 1, 56, 100
3, 23040, Note_on_c, 1, 57, 80
3, 23228, Note_off_c, 1, 57, 100
3, 23232, Note_on_c, 1, 54, 80
3, 23420, Note_off_c, 1, 54, 100
3, 23424, Note_on_c, 1, 52, 80
3, 23804, Note_off_c, 1, 52, 100
3, 23808, Note_on_c, 1, 40, 80
3, 24188, Note_off_c, 1, 40, 100
3, 24192, Note_on_c, 1, 45, 110
3, 24256, Note_on_c, 1, 49, 110
3, 24316, Note_off_c, 1, 45, 100
3, 24320, Note_on_c, 1, 50, 110
3, 24380, Note_off_c, 1, 49, 100
3, 24384, Note_on_c, 1, 52, 110
3, 24444, Note_off_c, 1, 50, 100
3, 24448, Note_on_c, 1, 54, 110
3, 24508, Note_off_c, 1, 52, 100
3, 24512, Note_on_c, 1, 56, 110
3, 24572, Note_off_c, 1, 54, 100
3, 24576, Note_on_c, 1, 57, 110
3, 24636, Note_off_c, 1, 56, 100
3, 24640, Note_on_c, 1, 61, 110
3, 24700, Note_off_c, 1, 57, 100
3, 24704, Note_on_c, 1, 62, 110
3, 24764, Note_off_c, 1, 61, 100
3, 24768, Note_on_c, 1, 64, 110
3, 24828, Note_off_c, 1, 62, 100
3, 24832, Note_on_c, 1, 66, 110
3, 24892, Note_off_c, 1, 64, 100
3, 24896, Note_on_c, 1, 68, 110
3, 24956, Note_off_c, 1, 66, 100
3, 24956, Note_off_c, 1, 68, 100
3, 24960, Note_on_c, 1, 69, 110
3, 25148, Note_off_c, 1, 69, 100
3, 25152, Note_on_c, 1, 68, 110
3, 25340, Note_off_c, 1, 68, 100
3, 25344, Note_on_c, 1, 66, 110
3, 25532, Note_off_c, 1, 66, 100
3, 25536, Note_on_c, 1, 64, 110
3, 25724, Note_off_c, 1, 64, 100
3, 25728, Note_on_c, 1, 62, 110
3, 25916, Note_off_c, 1, 62, 100
3, 25920, Note_on_c, 1, 61, 110
3, 26108, Note_off_c, 1, 61, 100
3, 26112, Note_on_c, 1, 59, 110
3, 26300, Note_off_c, 1, 59, 100
3, 26304, Note_on_c, 1, 57, 110
3, 26492, Note_off_c, 1, 57, 100
3, 26496, Note_on_c, 1, 56, 110
3, 26684, Note_off_c, 1, 56, 100
3, 26688, Note_on_c, 1, 54, 110
3, 26876, Note_off_c, 1, 54, 100
3, 26880, Note_on_c, 1, 52, 110
3, 27068, Note_off_c, 1, 52, 100
3, 27072, Note_on_c, 1, 50, 110
3, 27260, Note_off_c, 1, 50, 100
3, 27264, Note_on_c, 1, 49, 110
3, 27328, Note_on_c, 1, 52, 110
3, 27388, Note_off_c, 1, 49, 100
3, 27392, Note_on_c, 1, 54, 110
3, 27452, Note_off_c, 1, 52, 100
3, 27456, Note_on_c, 1, 56, 110
3, 27516, Note_off_c, 1, 54, 100
3, 27520, Note_on_c, 1, 57, 110
3, 27580, Note_off_c, 1, 56, 100
3, 27584, Note_on_c, 1, 59, 110
3, 27644, Note_off_c, 1, 57, 100
3, 27648, Note_on_c, 1, 61, 110
3, 27708, Note_off_c, 1, 59, 100
3, 27712, Note_on_c, 1, 64, 110
3, 27772, Note_off_c, 1, 61, 100
3, 27776, Note_on_c, 1, 66, 110
3, 27836, Note_off_c, 1, 64, 100
3, 27840, Note_on_c, 1, 68, 110
3, 27900, Note_off_c, 1, 66, 100
3, 27904, Note_on_c, 1, 69, 110
3, 27964, Note_off_c, 1, 68, 100
3, 27968, Note_on_c, 1, 71, 110
3, 28028, Note_off_c, 1, 69, 100
3, 28028, Note_off_c, 1, 71, 100
3, 28032, Note_on_c, 1, 73, 110
3, 28220, Note_off_c, 1, 73, 100
3, 28224, Note_on_c, 1, 71, 110
3, 28412, Note_off_c, 1, 71, 100
3, 28416, Note_on_c, 1, 69, 110
3, 28604, Note_off_c, 1, 69, 100
3, 28608, Note_on_c, 1, 68, 110
3, 28796, Note_off_c, 1, 68, 100
3, 28800, Note_on_c, 1, 69, 110
3, 28988, Note_off_c, 1, 69, 100
3, 28992, Note_on_c, 1, 68, 110
3, 29180, Note_off_c, 1, 68, 100
3, 29184, Note_on_c, 1, 66, 110
3, 29372, Note_off_c, 1, 66, 100
3, 29376, Note_on_c, 1, 64, 110
3, 29564, Note_off_c, 1, 64, 100
3, 29568, Note_on_c, 1, 63, 120
3, 29756, Note_off_c, 1, 63, 100
3, 29760, Note_on_c, 1, 61, 120
3, 29948, Note_off_c, 1, 61, 100
3, 29952, Note_on_c, 1, 59, 120
3, 30140, Note_off_c, 1, 59, 100
3, 30144, Note_on_c, 1, 57, 120
3, 30332, Note_off_c, 1, 57, 100
3, 30336, Note_on_c, 1, 56, 120
3, 30524, Note_off_c, 1, 56, 100
3, 30528, Note_on_c, 1, 54, 120
3, 30716, Note_off_c, 1, 54, 100
3, 30720, Note_on_c, 1, 52, 120
3, 30908, Note_off_c, 1, 52, 100
3, 30912, Note_on_c, 1, 51, 120
3, 31100, Note_off_c, 1, 51, 100
3, 31104, Note_on_c, 1, 49, 120
3, 31292, Note_off_c, 1, 49, 100
3, 31296, Note_on_c, 1, 47, 120
3, 31484, Note_off_c, 1, 47, 100
3, 31488, Note_on_c, 1, 46, 120
3, 31676, Note_off_c, 1, 46, 100
3, 31680, Note_on_c, 1, 42, 120
3, 31868, Note_off_c, 1, 42, 100
3, 31872, Note_on_c, 1, 47, 80
3, 33404, Note_off_c, 1, 47, 100
3, 33408, Note_on_c, 1, 35, 80
3, 35132, Note_off_c, 1, 35, 100
3, 35136, Note_on_c, 1, 39, 80
3, 35324, Note_off_c, 1, 39, 100
3, 35328, Note_on_c, 1, 42, 80
3, 35516, Note_off_c, 1, 42, 100
3, 35520, Note_on_c, 1, 46, 80
3, 35708, Note_off_c, 1, 46, 100
3, 35712, Note_on_c, 1, 47, 80
3, 35900, Note_off_c, 1, 47, 100
3, 35904, Note_on_c, 1, 51, 80
3, 36092, Note_off_c, 1, 51, 100
3, 36096, Note_on_c, 1, 54, 80
3, 36284, Note_off_c, 1, 54, 100
3, 36288, Note_on_c, 1, 58, 80
3, 36476, Note_off_c, 1, 58, 100
3, 36480, Note_on_c, 1, 59, 80
3, 36668, Note_off_c, 1, 59, 100
3, 36672, Note_on_c, 1, 58, 80
3, 36860, Note_off_c, 1, 58, 100
3, 36864, Note_on_c, 1, 59, 80
3, 37052, Note_off_c, 1, 59, 100
3, 38016, Note_on_c, 1, 57, 80
3, 38204, Note_off_c, 1, 57, 100
3, 38208, Note_on_c, 1, 56, 80
3, 38396, Note_off_c, 1, 56, 100
3, 38400, Note_on_c, 1, 57, 80
3, 38588, Note_off_c, 1, 57, 100
3, 39552, Note_on_c, 1, 55, 80
3, 39740, Note_off_c, 1, 55, 100
3, 39744, Note_on_c, 1, 54, 80
3, 39932, Note_off_c, 1, 54, 100
3, 39936, Note_on_c, 1, 55, 80
3, 40124, Note_off_c, 1, 55, 100
3, 41088, Note_on_c, 1, 51, 80
3, 41280, Note_on_c, 1, 54, 80
3, 41472, Note_on_c, 1, 57, 80
3, 41664, Note_on_c, 1, 59, 80
3, 41852, Note_off_c, 1, 59, 100
3, 41856, Note_on_c, 1, 60, 110
3, 43388, Note_off_c, 1, 57, 100
3, 43388, Note_off_c, 1, 60, 100
3, 43392, Note_on_c, 1, 59, 80
3, 43772, Note_off_c, 1, 59, 100
3, 43776, Note_on_c, 1, 57, 80
3, 44156, Note_off_c, 1, 51, 100
3, 44156, Note_off_c, 1, 54, 100
3, 44156, Note_off_c, 1, 57, 100
3, 44160, Note_on_c, 1, 55, 100
3, 44160, Note_on_c, 1, 52, 100
3, 44252, Note_off_c, 1, 55, 100
3, 44252, Note_off_c, 1, 52, 100
3, 44256, Note_on_c, 1, 59, 100
3, 44348, Note_off_c, 1, 59, 100
3, 44352, Note_on_c, 1, 55, 100
3, 44352, Note_on_c, 1, 52, 100
3, 44444, Note_off_c, 1, 55, 100
3, 44444, Note_off_c, 1, 52, 100
3, 44448, Note_on_c, 1, 59, 100
3, 44540, Note_off_c, 1, 59, 100
3, 44544, Note_on_c, 1, 55, 100
3, 44544, Note_on_c, 1, 52, 100
3, 44636, Note_off_c, 1, 55, 100
3, 44636, Note_off_c, 1, 52, 100
3, 44640, Note_on_c, 1, 59, 100
3, 44732, Note_off_c, 1, 59, 100
3, 44736, Note_on_c, 1, 55, 100
3, 44736, Note_on_c, 1, 52, 100
3, 44828, Note_off_c, 1, 55, 100
3, 44828, Note_off_c, 1, 52, 100
3, 44832, Note_on_c, 1, 59, 100
3, 44924, Note_off_c, 1, 59, 100
3, 44928, Note_on_c, 1, 55, 100
3, 44928, Note_on_c, 1, 52, 100
3, 45020, Note_off_c, 1, 55, 100
3, 45020, Note_off_c, 1, 52, 100
3, 45024, Note_on_c, 1, 59, 100
3, 45116, Note_off_c, 1, 59, 100
3, 45120, Note_on_c, 1, 55, 100
3, 45120, Note_on_c, 1, 52, 100
3, 45212, Note_off_c, 1, 55, 100
3, 45212, Note_off_c, 1, 52, 100
3, 45216, Note_on_c, 1, 59, 100
3, 45308, Note_off_c, 1, 59, 100
3, 45312, Note_on_c, 1, 55, 100
3, 45312, Note_on_c, 1, 52, 100
3, 45404, Note_off_c, 1, 55, 100
3, 45404, Note_off_c, 1, 52, 100
3, 45408, Note_on_c, 1, 59, 100
3, 45500, Note_off_c, 1, 59, 100
3, 45504, Note_on_c, 1, 55, 100
3, 45504, Note_on_c, 1, 52, 100
3, 45596, Note_off_c, 1, 55, 100
3, 45596, Note_off_c, 1, 52, 100
3, 45600, Note_on_c, 1, 59, 100
3, 45692, Note_off_c, 1, 59, 100
3, 45696, Note_on_c, 1, 57, 100
3, 45696, Note_on_c, 1, 54, 100
3, 45788, Note_off_c, 1, 57, 100
3, 45788, Note_off_c, 1, 54, 100
3, 45792, Note_on_c, 1, 59, 100
3, 45884, Note_off_c, 1, 59, 100
3, 45888, Note_on_c, 1, 57, 100
3, 45888, Note_on_c, 1, 54, 100
3, 45980, Note_off_c, 1, 57, 100
3, 45980, Note_off_c, 1, 54, 100
3, 45984, Note_on_c, 1, 60, 100
3, 46076, Note_off_c, 1, 60, 100
3, 46080, Note_on_c, 1, 57, 100
3, 46080, Note_on_c, 1, 54, 100
3, 46172, Note_off_c, 1, 57, 100
3, 46172, Note_off_c, 1, 54, 100
3, 46176, Note_on_c, 1, 60, 100
3, 46268, Note_off_c, 1, 60, 100
3, 46272, Note_on_c, 1, 57, 100
3, 46272, Note_on_c, 1, 54, 100
3, 46364, Note_off_c, 1, 57, 100
3, 46364, Note_off_c, 1, 54, 100
3, 46368, Note_on_c, 1, 60, 100
3, 46460, Note_off_c, 1, 60, 100
3, 46464, Note_on_c, 1, 57, 100
3, 46464, Note_on_c, 1, 54, 100
3, 46556, Note_off_c, 1, 57, 100
3, 46556, Note_off_c, 1, 54, 100
3, 46560, Note_on_c, 1, 60, 100
3, 46652, Note_off_c, 1, 60, 100
3, 46656, Note_on_c, 1, 57, 100
3, 46656, Note_on_c, 1, 54, 100
3, 46748, Note_off_c, 1, 57, 100
3, 46748, Note_off_c, 1, 54, 100
3, 46752, Note_on_c, 1, 60, 100
3, 46844, Note_off_c, 1, 60, 100
3, 46848, Note_on_c, 1, 57, 100
3, 46848, Note_on_c, 1, 54, 100
3, 46940, Note_off_c, 1, 57, 100
3, 46940, Note_off_c, 1, 54, 100
3, 46944, Note_on_c, 1, 60, 100
3, 47036, Note_off_c, 1, 60, 100
3, 47040, Note_on_c, 1, 57, 100
3, 47040, Note_on_c, 1, 54, 100
3, 47132, Note_off_c, 1, 57, 100
3, 47132, Note_off_c, 1, 54, 100
3, 47136, Note_on_c, 1, 60, 100
3, 47228, Note_off_c, 1, 60, 100
3, 47232, Note_on_c, 1, 55, 100
3, 47232, Note_on_c, 1, 59, 100
3, 47324, Note_off_c, 1, 55, 100
3, 47324, Note_off_c, 1, 59, 100
3, 47328, Note_on_c, 1, 60, 100
3, 47420, Note_off_c, 1, 60, 100
3, 47424, Note_on_c, 1, 59, 100
3, 47424, Note_on_c, 1, 55, 100
3, 47516, Note_off_c, 1, 59, 100
3, 47516, Note_off_c, 1, 55, 100
3, 47520, Note_on_c, 1, 62, 100
3, 47612, Note_off_c, 1, 62, 100
3, 47616, Note_on_c, 1, 55, 100
3, 47616, Note_on_c, 1, 59, 100
3, 47708, Note_off_c, 1, 55, 100
3, 47708, Note_off_c, 1, 59, 100
3, 47712, Note_on_c, 1, 62, 100
3, 47804, Note_off_c, 1, 62, 100
3, 47808, Note_on_c, 1, 59, 100
3, 47808, Note_on_c, 1, 55, 100
3, 47900, Note_off_c, 1, 59, 100
3, 47900, Note_off_c, 1, 55, 100
3, 47904, Note_on_c, 1, 62, 100
3, 47996, Note_off_c, 1, 62, 100
3, 48000, Note_on_c, 1, 55, 100
3, 48000, Note_on_c, 1, 59, 100
3, 48092, Note_off_c, 1, 55, 100
3, 48092, Note_off_c, 1, 59, 100
3, 48096, Note_on_c, 1, 62, 100
3, 48188, Note_off_c, 1, 62, 100
3, 48192, Note_on_c, 1, 59, 100
3, 48192, Note_on_c, 1, 55, 100
3, 48284, Note_off_c, 1, 59, 100
3, 48284, Note_off_c, 1, 55, 100
3, 48288, Note_on_c, 1, 62, 100
3, 48380, Note_off_c, 1, 62, 100
3, 48384, Note_on_c, 1, 55, 100
3, 48384, Note_on_c, 1, 59, 100
3, 48476, Note_off_c, 1, 55, 100
3, 48476, Note_off_c, 1, 59, 100
3, 48480, Note_on_c, 1, 62, 100
3, 48572, Note_off_c, 1, 62, 100
3, 48576, Note_on_c, 1, 59, 100
3, 48576, Note_on_c, 1, 55, 100
3, 48668, Note_off_c, 1, 59, 100
3, 48668, Note_off_c, 1, 55, 100
3, 48672, Note_on_c, 1, 62, 100
3, 48764, Note_off_c, 1, 62, 100
3, 48768, Note_on_c, 1, 57, 100
3, 48768, Note_on_c, 1, 60, 100
3, 48860, Note_off_c, 1, 57, 100
3, 48860, Note_off_c, 1, 60, 100
3, 48864, Note_on_c, 1, 62, 100
3, 48956, Note_off_c, 1, 62, 100
3, 48960, Note_on_c, 1, 57, 100
3, 48960, Note_on_c, 1, 60, 100
3, 49052, Note_off_c, 1, 57, 100
3, 49052, Note_off_c, 1, 60, 100
3, 49056, Note_on_c, 1, 63, 100
3, 49148, Note_off_c, 1, 63, 100
3, 49152, Note_on_c, 1, 57, 100
3, 49152, Note_on_c, 1, 60, 100
3, 49244, Note_off_c, 1, 57, 100
3, 49244, Note_off_c, 1, 60, 100
3, 49248, Note_on_c, 1, 63, 100
3, 49340, Note_off_c, 1, 63, 100
3, 49344, Note_on_c, 1, 57, 100
3, 49344, Note_on_c, 1, 60, 100
3, 49436, Note_off_c, 1, 57, 100
3, 49436, Note_off_c, 1, 60, 100
3, 49440, Note_on_c, 1, 63, 100
3, 49532, Note_off_c, 1, 63, 100
3, 49536, Note_on_c, 1, 57, 100
3, 49536, Note_on_c, 1, 60, 100
3, 49628, Note_off_c, 1, 57, 100
3, 49628, Note_off_c, 1, 60, 100
3, 49632, Note_on_c, 1, 63, 100
3, 49724, Note_off_c, 1, 63, 100
3, 49728, Note_on_c, 1, 57, 100
3, 49728, Note_on_c, 1, 60, 100
3, 49820, Note_off_c, 1, 57, 100
3, 49820, Note_off_c, 1, 60, 100
3, 49824, Note_on_c, 1, 63, 100
3, 49916, Note_off_c, 1, 63, 100
3, 49920, Note_on_c, 1, 57, 100
3, 49920, Note_on_c, 1, 60, 100
3, 50012, Note_off_c, 1, 57, 100
3, 50012, Note_off_c, 1, 60, 100
3, 50016, Note_on_c, 1, 63, 100
3, 50108, Note_off_c, 1, 63, 100
3, 50112, Note_on_c, 1, 57, 100
3, 50112, Note_on_c, 1, 60, 100
3, 50204, Note_off_c, 1, 57, 100
3, 50204, Note_off_c, 1, 60, 100
3, 50208, Note_on_c, 1, 63, 100
3, 50300, Note_off_c, 1, 63, 100
3, 50304, Note_on_c, 1, 58, 100
3, 50304, Note_on_c, 1, 62, 100
3, 50396, Note_off_c, 1, 58, 100
3, 50396, Note_off_c, 1, 62, 100
3, 50400, Note_on_c, 1, 63, 100
3, 50492, Note_off_c, 1, 63, 100
3, 50496, Note_on_c, 1, 58, 100
3, 50496, Note_on_c, 1, 62, 100
3, 50588, Note_off_c, 1, 58, 100
3, 50588, Note_off_c, 1, 62, 100
3, 50592, Note_on_c, 1, 65, 100
3, 50684, Note_off_c, 1, 65, 100
3, 50688, Note_on_c, 1, 58, 100
3, 50688, Note_on_c, 1, 62, 100
3, 50780, Note_off_c, 1, 58, 100
3, 50780, Note_off_c, 1, 62, 100
3, 50784, Note_on_c, 1, 65, 100
3, 50876, Note_off_c, 1, 65, 100
3, 50880, Note_on_c, 1, 58, 100
3, 50880, Note_on_c, 1, 62, 100
3, 50972, Note_off_c, 1, 58, 100
3, 50972, Note_off_c, 1, 62, 100
3, 50976, Note_on_c, 1, 65, 100
3, 51068, Note_off_c, 1, 65, 100
3, 51072, Note_on_c, 1, 58, 100
3, 51072, Note_on_c, 1, 62, 100
3, 51164, Note_off_c, 1, 58, 100
3, 51164, Note_off_c, 1, 62, 100
3, 51168, Note_on_c, 1, 65, 100
3, 51260, Note_off_c, 1, 65, 100
3, 51264, Note_on_c, 1, 58, 100
3, 51264, Note_on_c, 1, 62, 100
3, 51356, Note_off_c, 1, 58, 100
3, 51356, Note_off_c, 1, 62, 100
3, 51360, Note_on_c, 1, 65, 100
3, 51452, Note_off_c, 1, 65, 100
3, 51456, Note_on_c, 1, 58, 100
3, 51456, Note_on_c, 1, 62, 100
3, 51548, Note_off_c, 1, 58, 100
3, 51548, Note_off_c, 1, 62, 100
3, 51552, Note_on_c, 1, 65, 100
3, 51644, Note_off_c, 1, 65, 100
3, 51648, Note_on_c, 1, 58, 100
3, 51648, Note_on_c, 1, 62, 100
3, 51740, Note_off_c, 1, 58, 100
3, 51740, Note_off_c, 1, 62, 100
3, 51744, Note_on_c, 1, 65, 100
3, 51836, Note_off_c, 1, 65, 100
3, 51840, Note_on_c, 1, 60, 100
3, 51840, Note_on_c, 1, 63, 100
3, 51932, Note_off_c, 1, 60, 100
3, 51932, Note_off_c, 1, 63, 100
3, 51936, Note_on_c, 1, 65, 100
3, 52028, Note_off_c, 1, 65, 100
3, 52032, Note_on_c, 1, 60, 100
3, 52032, Note_on_c, 1, 63, 100
3, 52124, Note_off_c, 1, 60, 100
3, 52124, Note_off_c, 1, 63, 100
3, 52128, Note_on_c, 1, 66, 100
3, 52220, Note_off_c, 1, 66, 100
3, 52224, Note_on_c, 1, 60, 100
3, 52224, Note_on_c, 1, 63, 100
3, 52316, Note_off_c, 1, 60, 100
3, 52316, Note_off_c, 1, 63, 100
3, 52320, Note_on_c, 1, 66, 100
3, 52412, Note_off_c, 1, 66, 100
3, 52416, Note_on_c, 1, 60, 100
3, 52416, Note_on_c, 1, 63, 100
3, 52508, Note_off_c, 1, 60, 100
3, 52508, Note_off_c, 1, 63, 100
3, 52512, Note_on_c, 1, 66, 100
3, 52604, Note_off_c, 1, 66, 100
3, 52608, Note_on_c, 1, 61, 100
3, 52608, Note_on_c, 1, 64, 100
3, 52700, Note_off_c, 1, 61, 100
3, 52700, Note_off_c, 1, 64, 100
3, 52704, Note_on_c, 1, 66, 100
3, 52796, Note_off_c, 1, 66, 100
3, 52800, Note_on_c, 1, 61, 100
3, 52800, Note_on_c, 1, 64, 100
3, 52892, Note_off_c, 1, 61, 100
3, 52892, Note_off_c, 1, 64, 100
3, 52896, Note_on_c, 1, 67, 100
3, 52988, Note_off_c, 1, 67, 100
3, 52992, Note_on_c, 1, 61, 100
3, 52992, Note_on_c, 1, 64, 100
3, 53084, Note_off_c, 1, 61, 100
3, 53084, Note_off_c, 1, 64, 100
3, 53088, Note_on_c, 1, 67, 100
3, 53180, Note_off_c, 1, 67, 100
3, 53184, Note_on_c, 1, 61, 100
3, 53184, Note_on_c, 1, 64, 100
3, 53276, Note_off_c, 1, 61, 100
3, 53276, Note_off_c, 1, 64, 100
3, 53280, Note_on_c, 1, 67, 100
3, 53372, Note_off_c, 1, 67, 100
3, 53376, Note_on_c, 1, 62, 100
3, 53376, Note_on_c, 1, 66, 100
3, 53468, Note_off_c, 1, 62, 100
3, 53468, Note_off_c, 1, 66, 100
3, 53472, Note_on_c, 1, 67, 100
3, 53564, Note_off_c, 1, 67, 100
3, 53568, Note_on_c, 1, 62, 100
3, 53568, Note_on_c, 1, 66, 100
3, 53660, Note_off_c, 1, 62, 100
3, 53660, Note_off_c, 1, 66, 100
3, 53664, Note_on_c, 1, 69, 100
3, 53756, Note_off_c, 1, 69, 100
3, 53760, Note_on_c, 1, 62, 100
3, 53760, Note_on_c, 1, 66, 100
3, 53852, Note_off_c, 1, 62, 100
3, 53852, Note_off_c, 1, 66, 100
3, 53856, Note_on_c, 1, 69, 100
3, 53948, Note_off_c, 1, 69, 100
3, 53952, Note_on_c, 1, 62, 100
3, 53952, Note_on_c, 1, 66, 100
3, 54044, Note_off_c, 1, 62, 100
3, 54044, Note_off_c, 1, 66, 100
3, 54048, Note_on_c, 1, 69, 100
3, 54140, Note_off_c, 1, 69, 100
3, 54144, Note_on_c, 1, 63, 100
3, 54144, Note_on_c, 1, 66, 100
3, 54236, Note_off_c, 1, 63, 100
3, 54236, Note_off_c, 1, 66, 100
3, 54240, Note_on_c, 1, 69, 100
3, 54332, Note_off_c, 1, 69, 100
3, 54336, Note_on_c, 1, 63, 100
3, 54336, Note_on_c, 1, 66, 100
3, 54428, Note_off_c, 1, 63, 100
3, 54428, Note_off_c, 1, 66, 100
3, 54432, Note_on_c, 1, 69, 100
3, 54524, Note_off_c, 1, 69, 100
3, 54528, Note_on_c, 1, 63, 100
3, 54528, Note_on_c, 1, 66, 100
3, 54620, Note_off_c, 1, 63, 100
3, 54620, Note_off_c, 1, 66, 100
3, 54624, Note_on_c, 1, 69, 100
3, 54716, Note_off_c, 1, 69, 100
3, 54720, Note_on_c, 1, 63, 100
3, 54720, Note_on_c, 1, 66, 100
3, 54812, Note_off_c, 1, 63, 100
3, 54812, Note_off_c, 1, 66, 100
3, 54816, Note_on_c, 1, 69, 100
3, 54908, Note_off_c, 1, 69, 100
3, 54912, Note_on_c, 1, 64, 100
3, 54912, Note_on_c, 1, 68, 100
3, 55004, Note_off_c, 1, 64, 100
3, 55004, Note_off_c, 1, 68, 100
3, 55008, Note_on_c, 1, 69, 100
3, 55100, Note_off_c, 1, 69, 100
3, 55104, Note_on_c, 1, 64, 100
3, 55104, Note_on_c, 1, 68, 100
3, 55196, Note_off_c, 1, 64, 100
3, 55196, Note_off_c, 1, 68, 100
3, 55200, Note_on_c, 1, 71, 100
3, 55292, Note_off_c, 1, 71, 100
3, 55296, Note_on_c, 1, 64, 100
3, 55296, Note_on_c, 1, 68, 100
3, 55388, Note_off_c, 1, 64, 100
3, 55388, Note_off_c, 1, 68, 100
3, 55392, Note_on_c, 1, 71, 100
3, 55484, Note_off_c, 1, 71, 100
3, 55488, Note_on_c, 1, 64, 100
3, 55488, Note_on_c, 1, 68, 100
3, 55580, Note_off_c, 1, 64, 100
3, 55580, Note_off_c, 1, 68, 100
3, 55584, Note_on_c, 1, 71, 100
3, 55676, Note_off_c, 1, 71, 100
3, 55680, Note_on_c, 1, 65, 100
3, 55680, Note_on_c, 1, 68, 100
3, 55772, Note_off_c, 1, 65, 100
3, 55772, Note_off_c, 1, 68, 100
3, 55776, Note_on_c, 1, 71, 100
3, 55868, Note_off_c, 1, 71, 100
3, 55872, Note_on_c, 1, 65, 100
3, 55872, Note_on_c, 1, 68, 100
3, 55964, Note_off_c, 1, 65, 100
3, 55964, Note_off_c, 1, 68, 100
3, 55968, Note_on_c, 1, 71, 100
3, 56060, Note_off_c, 1, 71, 100
3, 56064, Note_on_c, 1, 65, 100
3, 56064, Note_on_c, 1, 68, 100
3, 56156, Note_off_c, 1, 65, 100
3, 56156, Note_off_c, 1, 68, 100
3, 56160, Note_on_c, 1, 71, 100
3, 56252, Note_off_c, 1, 71, 100
3, 56256, Note_on_c, 1, 65, 100
3, 56256, Note_on_c, 1, 68, 100
3, 56348, Note_off_c, 1, 65, 100
3, 56348, Note_off_c, 1, 68, 100
3, 56352, Note_on_c, 1, 71, 100
3, 56444, Note_off_c, 1, 71, 100
3, 56448, Note_on_c, 1, 66, 100
3, 56448, Note_on_c, 1, 69, 100
3, 56540, Note_off_c, 1, 66, 100
3, 56540, Note_off_c, 1, 69, 100
3, 56544, Note_on_c, 1, 71, 100
3, 56636, Note_off_c, 1, 71, 100
3, 56640, Note_on_c, 1, 66, 100
3, 56640, Note_on_c, 1, 69, 100
3, 56732, Note_off_c, 1, 66, 100
3, 56732, Note_off_c, 1, 69, 100
3, 56736, Note_on_c, 1, 71, 100
3, 56828, Note_off_c, 1, 71, 100
3, 56832, Note_on_c, 1, 66, 100
3, 56832, Note_on_c, 1, 69, 100
3, 56924, Note_off_c, 1, 66, 100
3, 56924, Note_off_c, 1, 69, 100
3, 56928, Note_on_c, 1, 72, 100
3, 57020, Note_off_c, 1, 72, 100
3, 57024, Note_on_c, 1, 66, 100
3, 57024, Note_on_c, 1, 69, 100
3, 57116, Note_off_c, 1, 66, 100
3, 57116, Note_off_c, 1, 69, 100
3, 57120, Note_on_c, 1, 72, 100
3, 57212, Note_off_c, 1, 72, 100
3, 57216, Note_on_c, 1, 66, 100
3, 57216, Note_on_c, 1, 69, 100
3, 57308, Note_off_c, 1, 66, 100
3, 57308, Note_off_c, 1, 69, 100
3, 57312, Note_on_c, 1, 72, 100
3, 57404, Note_off_c, 1, 72, 100
3, 57408, Note_on_c, 1, 66, 100
3, 57408, Note_on_c, 1, 69, 100
3, 57500, Note_off_c, 1, 66, 100
3, 57500, Note_off_c, 1, 69, 100
3, 57504, Note_on_c, 1, 72, 100
3, 57596, Note_off_c, 1, 72, 100
3, 57600, Note_on_c, 1, 66, 100
3, 57600, Note_on_c, 1, 69, 100
3, 57692, Note_off_c, 1, 66, 100
3, 57692, Note_off_c, 1, 69, 100
3, 57696, Note_on_c, 1, 72, 100
3, 57788, Note_off_c, 1, 72, 100
3, 57792, Note_on_c, 1, 66, 100
3, 57792, Note_on_c, 1, 69, 100
3, 57884, Note_off_c, 1, 66, 100
3, 57884, Note_off_c, 1, 69, 100
3, 57888, Note_on_c, 1, 72, 100
3, 57980, Note_off_c, 1, 72, 100
3, 57984, Note_on_c, 1, 66, 100
3, 57984, Note_on_c, 1, 69, 100
3, 58364, Note_off_c, 1, 66, 100
3, 58364, Note_off_c, 1, 69, 100
3, 58560, Note_on_c, 1, 48, 120
3, 58608, Note_on_c, 1, 47, 120
3, 58652, Note_off_c, 1, 48, 100
3, 58656, Note_on_c, 1, 45, 120
3, 58700, Note_off_c, 1, 47, 100
3, 58704, Note_on_c, 1, 43, 120
3, 58748, Note_off_c, 1, 45, 100
3, 58748, Note_off_c, 1, 43, 100
3, 58752, Note_on_c, 1, 42, 120
3, 59132, Note_off_c, 1, 42, 100
3, 60096, Note_on_c, 1, 48, 120
3, 60144, Note_on_c, 1, 47, 120
3, 60188, Note_off_c, 1, 48, 100
3, 60192, Note_on_c, 1, 45, 120
3, 60236, Note_off_c, 1, 47, 100
3, 60240, Note_on_c, 1, 43, 120
3, 60284, Note_off_c, 1, 45, 100
3, 60284, Note_off_c, 1, 43, 100
3, 60288, Note_on_c, 1, 42, 120
3, 60668, Note_off_c, 1, 42, 100
3, 61440, Note_on_c, 1, 66, 70
3, 61440, Note_on_c, 1, 69, 70
3, 61440, Note_on_c, 1, 72, 70
3, 61820, Note_off_c, 1, 66, 100
3, 61820, Note_off_c, 1, 69, 100
3, 61820, Note_off_c, 1, 72, 100
3, 62208, Note_on_c, 1, 66, 70
3, 62208, Note_on_c, 1, 69, 70
3, 62208, Note_on_c, 1, 72, 70
3, 62588, Note_off_c, 1, 66, 100
3, 62588, Note_off_c, 1, 69, 100
3, 62588, Note_off_c, 1, 72, 100
3, 62976, Note_on_c, 1, 66, 70
3, 62976, Note_on_c, 1, 69, 70
3, 62976, Note_on_c, 1, 72, 70
3, 63356, Note_off_c, 1, 66, 100
3, 63356, Note_off_c, 1, 69, 100
3, 63356, Note_off_c, 1, 72, 100
3, 64128, Note_on_c, 1, 56, 120
3, 64128, Note_on_c, 1, 59, 120
3, 64128, Note_on_c, 1, 64, 120
3, 64508, Note_off_c, 1, 56, 100
3, 64508, Note_off_c, 1, 59, 100
3, 64508, Note_off_c, 1, 64, 100
3, 65664, Note_on_c, 1, 46, 120
3, 66428, Note_off_c, 1, 46, 100
3, 66432, Note_on_c, 1, 45, 120
3, 66432, Note_on_c, 1, 35, 120
3, 67196, Note_off_c, 1, 45, 100
3, 67196, Note_off_c, 1, 35, 100
3, 67200, Note_on_c, 1, 40, 100
3, 67200, Note_on_c, 1, 44, 100
3, 67580, Note_off_c, 1, 40, 100
3, 67580, Note_off_c, 1, 44, 100
3, 68736, Note_on_c, 1, 70, 120
3, 69500, Note_off_c, 1, 70, 100
3, 69504, Note_on_c, 1, 69, 120
3, 69504, Note_on_c, 1, 59, 120
3, 70268, Note_off_c, 1, 69, 100
3, 70268, Note_off_c, 1, 59, 100
3, 70272, Note_on_c, 1, 64, 100
3, 70336, Note_on_c, 1, 68, 100
3, 70396, Note_off_c, 1, 64, 100
3, 70400, Note_on_c, 1, 69, 100
3, 70460, Note_off_c, 1, 68, 100
3, 70464, Note_on_c, 1, 71, 100
3, 70524, Note_off_c, 1, 69, 100
3, 70528, Note_on_c, 1, 73, 100
3, 70588, Note_off_c, 1, 71, 100
3, 70592, Note_on_c, 1, 75, 100
3, 70652, Note_off_c, 1, 73, 100
3, 70656, Note_on_c, 1, 76, 100
3, 70716, Note_off_c, 1, 75, 100
3, 70844, Note_off_c, 1, 76, 100
3, 71808, Note_on_c, 1, 47, 100
3, 71872, Note_on_c, 1, 51, 100
3, 71932, Note_off_c, 1, 47, 100
3, 71936, Note_on_c, 1, 52, 100
3, 71996, Note_off_c, 1, 51, 100
3, 72000, Note_on_c, 1, 54, 100
3, 72060, Note_off_c, 1, 52, 100
3, 72064, Note_on_c, 1, 56, 100
3, 72124, Note_off_c, 1, 54, 100
3, 72128, Note_on_c, 1, 57, 100
3, 72188, Note_off_c, 1, 56, 100
3, 72192, Note_on_c, 1, 59, 100
3, 72252, Note_off_c, 1, 57, 100
3, 72256, Note_on_c, 1, 63, 100
3, 72316, Note_off_c, 1, 59, 100
3, 72320, Note_on_c, 1, 64, 100
3, 72380, Note_off_c, 1, 63, 100
3, 72384, Note_on_c, 1, 66, 100
3, 72444, Note_off_c, 1, 64, 100
3, 72448, Note_on_c, 1, 68, 100
3, 72508, Note_off_c, 1, 66, 100
3, 72512, Note_on_c, 1, 69, 100
3, 72572, Note_off_c, 1, 68, 100
3, 72572, Note_off_c, 1, 69, 100
3, 72576, Note_on_c, 1, 71, 100
3, 72764, Note_off_c, 1, 71, 100
3, 72768, Note_on_c, 1, 69, 100
3, 72956, Note_off_c, 1, 69, 100
3, 72960, Note_on_c, 1, 68, 100
3, 73148, Note_off_c, 1, 68, 100
3, 73152, Note_on_c, 1, 66, 100
3, 73340, Note_off_c, 1, 66, 100
3, 73344, Note_on_c, 1, 40, 100
3, 73408, Note_on_c, 1, 44, 100
3, 73468, Note_off_c, 1, 40, 100
3, 73472, Note_on_c, 1, 45, 100
3, 73532, Note_off_c, 1, 44, 100
3, 73536, Note_on_c, 1, 47, 100
3, 73596, Note_off_c, 1, 45, 100
3, 73600, Note_on_c, 1, 49, 100
3, 73660, Note_off_c, 1, 47, 100
3, 73664, Note_on_c, 1, 51, 100
3, 73724, Note_off_c, 1, 49, 100
3, 73728, Note_on_c, 1, 52, 100
3, 73788, Note_off_c, 1, 51, 100
3, 73792, Note_on_c, 1, 56, 100
3, 73852, Note_off_c, 1, 52, 100
3, 73856, Note_on_c, 1, 57, 100
3, 73916, Note_off_c, 1, 56, 100
3, 73920, Note_on_c, 1, 59, 100
3, 73980, Note_off_c, 1, 57, 100
3, 73984, Note_on_c, 1, 61, 100
3, 74044, Note_off_c, 1, 59, 100
3, 74048, Note_on_c, 1, 63, 100
3, 74108, Note_off_c, 1, 61, 100
3, 74108, Note_off_c, 1, 63, 100
3, 74112, Note_on_c, 1, 64, 100
3, 74300, Note_off_c, 1, 64, 100
3, 74304, Note_on_c, 1, 63, 100
3, 74492, Note_off_c, 1, 63, 100
3, 74496, Note_on_c, 1, 61, 100
3, 74684, Note_off_c, 1, 61, 100
3, 74688, Note_on_c, 1, 59, 100
3, 74876, Note_off_c, 1, 59, 100
3, 74880, Note_on_c, 1, 57, 100
3, 75068, Note_off_c, 1, 57, 100
3, 75072, Note_on_c, 1, 56, 100
3, 75260, Note_off_c, 1, 56, 100
3, 75264, Note_on_c, 1, 54, 100
3, 75452, Note_off_c, 1, 54, 100
3, 75456, Note_on_c, 1, 52, 100
3, 75644, Note_off_c, 1, 52, 100
3, 75648, Note_on_c, 1, 51, 120
3, 75836, Note_off_c, 1, 51, 100
3, 75840, Note_on_c, 1, 49, 120
3, 76028, Note_off_c, 1, 49, 100
3, 76032, Note_on_c, 1, 47, 120
3, 76220, Note_off_c, 1, 47, 100
3, 76224, Note_on_c, 1, 45, 120
3, 76412, Note_off_c, 1, 45, 100
3, 76416, Note_on_c, 1, 44, 120
3, 76604, Note_off_c, 1, 44, 100
3, 76608, Note_on_c, 1, 42, 120
3, 76796, Note_off_c, 1, 42, 100
3, 76800, Note_on_c, 1, 40, 120
3, 76988, Note_off_c, 1, 40, 100
3, 76992, Note_on_c, 1, 39, 120
3, 77180, Note_off_c, 1, 39, 100
3, 77184, Note_on_c, 1, 37, 120
3, 77372, Note_off_c, 1, 37, 100
3, 77376, Note_on_c, 1, 35, 120
3, 77564, Note_off_c, 1, 35, 100
3, 77568, Note_on_c, 1, 33, 120
3, 77756, Note_off_c, 1, 33, 100
3, 77760, Note_on_c, 1, 32, 120
3, 77948, Note_off_c, 1, 32, 100
3, 77952, Note_on_c, 1, 33, 120
3, 78716, Note_off_c, 1, 33, 100
3, 78720, Note_on_c, 1, 35, 120
3, 79484, Note_off_c, 1, 35, 100
3, 79488, Note_on_c, 1, 40, 80
3, 81020, Note_off_c, 1, 40, 100
3, 81024, Note_on_c, 1, 40, 80
3, 81216, Note_on_c, 1, 42, 80
3, 81404, Note_off_c, 1, 42, 100
3, 81408, Note_on_c, 1, 44, 80
3, 81596, Note_off_c, 1, 44, 100
3, 81600, Note_on_c, 1, 45, 80
3, 81788, Note_off_c, 1, 45, 100
3, 81792, Note_on_c, 1, 47, 80
3, 81980, Note_off_c, 1, 47, 100
3, 81984, Note_on_c, 1, 49, 80
3, 82172, Note_off_c, 1, 49, 100
3, 82176, Note_on_c, 1, 50, 80
3, 82364, Note_off_c, 1, 50, 100
3, 82368, Note_on_c, 1, 51, 80
3, 82556, Note_off_c, 1, 51, 100
3, 82560, Note_on_c, 1, 52, 80
3, 83324, Note_off_c, 1, 52, 100
3, 83328, Note_on_c, 1, 51, 80
3, 83708, Note_off_c, 1, 51, 100
3, 83712, Note_on_c, 1, 54, 80
3, 84092, Note_off_c, 1, 40, 100
3, 84092, Note_off_c, 1, 54, 100
3, 84096, Note_on_c, 1, 40, 80
3, 84288, Note_on_c, 1, 42, 80
3, 84476, Note_off_c, 1, 42, 100
3, 84480, Note_on_c, 1, 44, 80
3, 84668, Note_off_c, 1, 44, 100
3, 84672, Note_on_c, 1, 45, 80
3, 84860, Note_off_c, 1, 45, 100
3, 84864, Note_on_c, 1, 47, 80
3, 85052, Note_off_c, 1, 47, 100
3, 85056, Note_on_c, 1, 49, 80
3, 85244, Note_off_c, 1, 49, 100
3, 85248, Note_on_c, 1, 50, 80
3, 85436, Note_off_c, 1, 50, 100
3, 85440, Note_on_c, 1, 51, 80
3, 85628, Note_off_c, 1, 40, 100
3, 85628, Note_off_c, 1, 51, 100
3, 85632, Note_on_c, 1, 40, 70
3, 85632, Note_on_c, 1, 52, 70
3, 85760, Note_off_c, 1, 40, 100
3, 85760, Note_off_c, 1, 52, 100
3, 85824, Note_on_c, 1, 49, 70
3, 85952, Note_off_c, 1, 49, 100
3, 86016, Note_on_c, 1, 47, 70
3, 86144, Note_off_c, 1, 47, 100
3, 86208, Note_on_c, 1, 45, 70
3, 86336, Note_off_c, 1, 45, 100
3, 86400, Note_on_c, 1, 44, 70
3, 86528, Note_off_c, 1, 44, 100
3, 86592, Note_on_c, 1, 45, 70
3, 86720, Note_off_c, 1, 45, 100
3, 86784, Note_on_c, 1, 44, 70
3, 86912, Note_off_c, 1, 44, 100
3, 86976, Note_on_c, 1, 42, 70
3, 87104, Note_off_c, 1, 42, 100
3, 87168, Note_on_c, 1, 40, 70
3, 87424, Note_off_c, 1, 40, 100
3, 87936, Note_on_c, 1, 40, 70
3, 88316, Note_off_c, 1, 40, 100
3, 88704, Note_on_c, 1, 40, 70
3, 89084, Note_off_c, 1, 40, 100
3, 90048, Note_on_c, 1, 57, 80
3, 90236, Note_off_c, 1, 57, 100
3, 90240, Note_on_c, 1, 52, 80
3, 90620, Note_off_c, 1, 52, 100
3, 90816, Note_on_c, 1, 52, 80
3, 90860, Note_off_c, 1, 52, 100
3, 90864, Note_on_c, 1, 50, 80
3, 90908, Note_off_c, 1, 50, 100
3, 90912, Note_on_c, 1, 49, 80
3, 90956, Note_off_c, 1, 49, 100
3, 90960, Note_on_c, 1, 47, 80
3, 91004, Note_off_c, 1, 47, 100
3, 91008, Note_on_c, 1, 45, 80
3, 91388, Note_off_c, 1, 45, 100
3, 91584, Note_on_c, 1, 57, 80
3, 91772, Note_off_c, 1, 57, 100
3, 91776, Note_on_c, 1, 54, 80
3, 92156, Note_off_c, 1, 54, 100
3, 92352, Note_on_c, 1, 54, 80
3, 92396, Note_off_c, 1, 54, 100
3, 92400, Note_on_c, 1, 52, 80
3, 92444, Note_off_c, 1, 52, 100
3, 92448, Note_on_c, 1, 50, 80
3, 92492, Note_off_c, 1, 50, 100
3, 92496, Note_on_c, 1, 49, 80
3, 92540, Note_off_c, 1, 49, 100
3, 92544, Note_on_c, 1, 47, 80
3, 92924, Note_off_c, 1, 47, 100
3, 93120, Note_on_c, 1, 62, 80
3, 93308, Note_off_c, 1, 62, 100
3, 93312, Note_on_c, 1, 59, 80
3, 93692, Note_off_c, 1, 59, 100
3, 93696, Note_on_c, 1, 56, 80
3, 94076, Note_off_c, 1, 56, 100
3, 94080, Note_on_c, 1, 52, 80
3, 94460, Note_off_c, 1, 52, 100
3, 94464, Note_on_c, 1, 50, 80
3, 94844, Note_off_c, 1, 50, 100
3, 94848, Note_on_c, 1, 47, 80
3, 95228, Note_off_c, 1, 47, 100
3, 95232, Note_on_c, 1, 44, 80
3, 95612, Note_off_c, 1, 44, 100
3, 95616, Note_on_c, 1, 40, 80
3, 95996, Note_off_c, 1, 40, 100
3, 96384, Note_on_c, 1, 45, 100
3, 96448, Note_on_c, 1, 49, 80
3, 96512, Note_on_c, 1, 52, 80
3, 96576, Note_on_c, 1, 57, 80
3, 96636, Note_off_c, 1, 57, 100
3, 96764, Note_off_c, 1, 45, 100
3, 96764, Note_off_c, 1, 49, 100
3, 96764, Note_off_c, 1, 52, 100
3, 98112, Note_on_c, 1, 52, 80
3, 98300, Note_off_c, 1, 52, 100
3, 98304, Note_on_c, 1, 54, 80
3, 98492, Note_off_c, 1, 54, 100
3, 98496, Note_on_c, 1, 56, 80
3, 98684, Note_off_c, 1, 56, 100
3, 98688, Note_on_c, 1, 57, 80
3, 98876, Note_off_c, 1, 57, 100
3, 98880, Note_on_c, 1, 45, 80
3, 99068, Note_off_c, 1, 45, 100
3, 99072, Note_on_c, 1, 49, 80
3, 99260, Note_off_c, 1, 49, 100
3, 99264, Note_on_c, 1, 50, 80
3, 99452, Note_off_c, 1, 50, 100
3, 99456, Note_on_c, 1, 52, 80
3, 100028, Note_off_c, 1, 52, 100
3, 100032, Note_on_c, 1, 50, 80
3, 100220, Note_off_c, 1, 50, 100
3, 100224, Note_on_c, 1, 49, 80
3, 100412, Note_off_c, 1, 49, 100
3, 100416, Note_on_c, 1, 52, 80
3, 100604, Note_off_c, 1, 52, 100
3, 100608, Note_on_c, 1, 49, 80
3, 100796, Note_off_c, 1, 49, 100
3, 100800, Note_on_c, 1, 45, 80
3, 100988, Note_off_c, 1, 45, 100
3, 100992, Note_on_c, 1, 44, 80
3, 101180, Note_off_c, 1, 44, 100
3, 101184, Note_on_c, 1, 40, 80
3, 101372, Note_off_c, 1, 40, 100
3, 101376, Note_on_c, 1, 42, 80
3, 101564, Note_off_c, 1, 42, 100
3, 101568, Note_on_c, 1, 44, 80
3, 101756, Note_off_c, 1, 44, 100
3, 101760, Note_on_c, 1, 45, 80
3, 101948, Note_off_c, 1, 45, 100
3, 101952, Note_on_c, 1, 44, 80
3, 102140, Note_off_c, 1, 44, 100
3, 102144, Note_on_c, 1, 42, 80
3, 102332, Note_off_c, 1, 42, 100
3, 102336, Note_on_c, 1, 47, 80
3, 102524, Note_off_c, 1, 47, 100
3, 102528, Note_on_c, 1, 52, 70
3, 102528, Note_on_c, 1, 40, 70
3, 102716, Note_off_c, 1, 52, 100
3, 102720, Note_on_c, 1, 47, 70
3, 102908, Note_off_c, 1, 47, 100
3, 102912, Note_on_c, 1, 54, 70
3, 103100, Note_off_c, 1, 54, 100
3, 103104, Note_on_c, 1, 47, 70
3, 103292, Note_off_c, 1, 40, 100
3, 103292, Note_off_c, 1, 47, 100
3, 103296, Note_on_c, 1, 52, 70
3, 103296, Note_on_c, 1, 40, 70
3, 103484, Note_off_c, 1, 52, 100
3, 103488, Note_on_c, 1, 47, 70
3, 103676, Note_off_c, 1, 47, 100
3, 103680, Note_on_c, 1, 54, 70
3, 103868, Note_off_c, 1, 54, 100
3, 103872, Note_on_c, 1, 47, 70
3, 104060, Note_off_c, 1, 40, 100
3, 104060, Note_off_c, 1, 47, 100
3, 104064, Note_on_c, 1, 52, 70
3, 104064, Note_on_c, 1, 40, 70
3, 104444, Note_off_c, 1, 52, 100
3, 104444, Note_off_c, 1, 40, 100
3, 104448, Note_on_c, 1, 40, 70
3, 104828, Note_off_c, 1, 40, 100
3, 104832, Note_on_c, 1, 40, 70
3, 105212, Note_off_c, 1, 40, 100
3, 105408, Note_on_c, 1, 57, 100
3, 105596, Note_off_c, 1, 57, 100
3, 105600, Note_on_c, 1, 52, 100
3, 105980, Note_off_c, 1, 52, 100
3, 106176, Note_on_c, 1, 52, 100
3, 106220, Note_off_c, 1, 52, 100
3, 106224, Note_on_c, 1, 50, 100
3, 106268, Note_off_c, 1, 50, 100
3, 106272, Note_on_c, 1, 49, 100
3, 106316, Note_off_c, 1, 49, 100
3, 106320, Note_on_c, 1, 47, 100
3, 106364, Note_off_c, 1, 47, 100
3, 106368, Note_on_c, 1, 45, 100
3, 106748, Note_off_c, 1, 45, 100
3, 106944, Note_on_c, 1, 33, 100
3, 107008, Note_on_c, 1, 37, 100
3, 107068, Note_off_c, 1, 33, 100
3, 107072, Note_on_c, 1, 40, 100
3, 107132, Note_off_c, 1, 37, 100
3, 107132, Note_off_c, 1, 40, 100
3, 107136, Note_on_c, 1, 45, 100
3, 107324, Note_off_c, 1, 45, 100
3, 107328, Note_on_c, 1, 47, 80
3, 107516, Note_off_c, 1, 47, 100
3, 107520, Note_on_c, 1, 49, 80
3, 107708, Note_off_c, 1, 49, 100
3, 107712, Note_on_c, 1, 50, 80
3, 107900, Note_off_c, 1, 50, 100
3, 107904, Note_on_c, 1, 52, 80
3, 108092, Note_off_c, 1, 52, 100
3, 108096, Note_on_c, 1, 54, 80
3, 108284, Note_off_c, 1, 54, 100
3, 108288, Note_on_c, 1, 56, 80
3, 108476, Note_off_c, 1, 56, 100
3, 108480, Note_on_c, 1, 57, 80
3, 108668, Note_off_c, 1, 57, 100
3, 108672, Note_on_c, 1, 52, 110
3, 109244, Note_off_c, 1, 52, 100
3, 109248, Note_on_c, 1, 50, 80
3, 109436, Note_off_c, 1, 50, 100
3, 109440, Note_on_c, 1, 49, 80
3, 109628, Note_off_c, 1, 49, 100
3, 109632, Note_on_c, 1, 52, 80
3, 109820, Note_off_c, 1, 52, 100
3, 109824, Note_on_c, 1, 49, 80
3, 110012, Note_off_c, 1, 49, 100
3, 110016, Note_on_c, 1, 45, 80
3, 110204, Note_off_c, 1, 45, 100
3, 110208, Note_on_c, 1, 44, 80
3, 110396, Note_off_c, 1, 44, 100
3, 110400, Note_on_c, 1, 52, 80
3, 110588, Note_off_c, 1, 52, 100
3, 110592, Note_on_c, 1, 54, 80
3, 110780, Note_off_c, 1, 54, 100
3, 110784, Note_on_c, 1, 56, 80
3, 110972, Note_off_c, 1, 56, 100
3, 110976, Note_on_c, 1, 57, 80
3, 111164, Note_off_c, 1, 57, 100
3, 111168, Note_on_c, 1, 52, 80
3, 111356, Note_off_c, 1, 52, 100
3, 111360, Note_on_c, 1, 57, 80
3, 111548, Note_off_c, 1, 57, 100
3, 111552, Note_on_c, 1, 61, 80
3, 111740, Note_off_c, 1, 61, 100
3, 111744, Note_on_c, 1, 64, 104
3, 112316, Note_off_c, 1, 64, 100
3, 112320, Note_on_c, 1, 62, 80
3, 112508, Note_off_c, 1, 62, 100
3, 112512, Note_on_c, 1, 61, 80
3, 112700, Note_off_c, 1, 61, 100
3, 112704, Note_on_c, 1, 56, 80
3, 112892, Note_off_c, 1, 56, 100
3, 112896, Note_on_c, 1, 57, 80
3, 113084, Note_off_c, 1, 57, 100
3, 113088, Note_on_c, 1, 54, 80
3, 113276, Note_off_c, 1, 54, 100
3, 113280, Note_on_c, 1, 52, 80
3, 113660, Note_off_c, 1, 52, 100
3, 113664, Note_on_c, 1, 40, 80
3, 114044, Note_off_c, 1, 40, 100
3, 114048, Note_on_c, 1, 45, 110
3, 114112, Note_on_c, 1, 49, 110
3, 114172, Note_off_c, 1, 45, 100
3, 114176, Note_on_c, 1, 50, 110
3, 114236, Note_off_c, 1, 49, 100
3, 114240, Note_on_c, 1, 52, 110
3, 114300, Note_off_c, 1, 50, 100
3, 114304, Note_on_c, 1, 54, 110
3, 114364, Note_off_c, 1, 52, 100
3, 114368, Note_on_c, 1, 56, 110
3, 114428, Note_off_c, 1, 54, 100
3, 114432, Note_on_c, 1, 57, 110
3, 114492, Note_off_c, 1, 56, 100
3, 114496, Note_on_c, 1, 61, 110
3, 114556, Note_off_c, 1, 57, 100
3, 114560, Note_on_c, 1, 62, 110
3, 114620, Note_off_c, 1, 61, 100
3, 114624, Note_on_c, 1, 64, 110
3, 114684, Note_off_c, 1, 62, 100
3, 114688, Note_on_c, 1, 66, 110
3, 114748, Note_off_c, 1, 64, 100
3, 114752, Note_on_c, 1, 68, 110
3, 114812, Note_off_c, 1, 66, 100
3, 114812, Note_off_c, 1, 68, 100
3, 114816, Note_on_c, 1, 69, 110
3, 115004, Note_off_c, 1, 69, 100
3, 115008, Note_on_c, 1, 68, 110
3, 115196, Note_off_c, 1, 68, 100
3, 115200, Note_on_c, 1, 66, 110
3, 115388, Note_off_c, 1, 66, 100
3, 115392, Note_on_c, 1, 64, 110
3, 115580, Note_off_c, 1, 64, 100
3, 115584, Note_on_c, 1, 62, 110
3, 115772, Note_off_c, 1, 62, 100
3, 115776, Note_on_c, 1, 61, 110
3, 115964, Note_off_c, 1, 61, 100
3, 115968, Note_on_c, 1, 59, 110
3, 116156, Note_off_c, 1, 59, 100
3, 116160, Note_on_c, 1, 57, 110
3, 116348, Note_off_c, 1, 57, 100
3, 116352, Note_on_c, 1, 56, 110
3, 116540, Note_off_c, 1, 56, 100
3, 116544, Note_on_c, 1, 54, 110
3, 116732, Note_off_c, 1, 54, 100
3, 116736, Note_on_c, 1, 52, 110
3, 116924, Note_off_c, 1, 52, 100
3, 116928, Note_on_c, 1, 50, 110
3, 117116, Note_off_c, 1, 50, 100
3, 117120, Note_on_c, 1, 49, 110
3, 117184, Note_on_c, 1, 52, 110
3, 117244, Note_off_c, 1, 49, 100
3, 117248, Note_on_c, 1, 54, 110
3, 117308, Note_off_c, 1, 52, 100
3, 117312, Note_on_c, 1, 56, 110
3, 117372, Note_off_c, 1, 54, 100
3, 117376, Note_on_c, 1, 57, 110
3, 117436, Note_off_c, 1, 56, 100
3, 117440, Note_on_c, 1, 59, 110
3, 117500, Note_off_c, 1, 57, 100
3, 117504, Note_on_c, 1, 61, 110
3, 117564, Note_off_c, 1, 59, 100
3, 117568, Note_on_c, 1, 64, 110
3, 117628, Note_off_c, 1, 61, 100
3, 117632, Note_on_c, 1, 66, 110
3, 117692, Note_off_c, 1, 64, 100
3, 117696, Note_on_c, 1, 68, 110
3, 117756, Note_off_c, 1, 66, 100
3, 117760, Note_on_c, 1, 69, 110
3, 117820, Note_off_c, 1, 68, 100
3, 117824, Note_on_c, 1, 71, 110
3, 117884, Note_off_c, 1, 69, 100
3, 117884, Note_off_c, 1, 71, 100
3, 117888, Note_on_c, 1, 73, 110
3, 118076, Note_off_c, 1, 73, 100
3, 118080, Note_on_c, 1, 71, 110
3, 118268, Note_off_c, 1, 71, 100
3, 118272, Note_on_c, 1, 69, 110
3, 118460, Note_off_c, 1, 69, 100
3, 118464, Note_on_c, 1, 68, 110
3, 118652, Note_off_c, 1, 68, 100
3, 118656, Note_on_c, 1, 69, 110
3, 118844, Note_off_c, 1, 69, 100
3, 118848, Note_on_c, 1, 68, 110
3, 119036, Note_off_c, 1, 68, 100
3, 119040, Note_on_c, 1, 66, 110
3, 119228, Note_off_c, 1, 66, 100
3, 119232, Note_on_c, 1, 64, 110
3, 119420, Note_off_c, 1, 64, 100
3, 119424, Note_on_c, 1, 63, 120
3, 119612, Note_off_c, 1, 63, 100
3, 119616, Note_on_c, 1, 61, 120
3, 119804, Note_off_c, 1, 61, 100
3, 119808, Note_on_c, 1, 59, 120
3, 119996, Note_off_c, 1, 59, 100
3, 120000, Note_on_c, 1, 57, 120
3, 120188, Note_off_c, 1, 57, 100
3, 120192, Note_on_c, 1, 56, 120
3, 120380, Note_off_c, 1, 56, 100
3, 120384, Note_on_c, 1, 54, 120
3, 120572, Note_off_c, 1, 54, 100
3, 120576, Note_on_c, 1, 52, 120
3, 120764, Note_off_c, 1, 52, 100
3, 120768, Note_on_c, 1, 51, 120
3, 120956, Note_off_c, 1, 51, 100
3, 120960, Note_on_c, 1, 49, 120
3, 121148, Note_off_c, 1, 49, 100
3, 121152, Note_on_c, 1, 47, 120
3, 121340, Note_off_c, 1, 47, 100
3, 121344, Note_on_c, 1, 46, 120
3, 121532, Note_off_c, 1, 46, 100
3, 121536, Note_on_c, 1, 42, 120
3, 121724, Note_off_c, 1, 42, 100
3, 121728, Note_on_c, 1, 47, 80
3, 123260, Note_off_c, 1, 47, 100
3, 123264, Note_on_c, 1, 35, 80
3, 124988, Note_off_c, 1, 35, 100
3, 124992, Note_on_c, 1, 39, 80
3, 125180, Note_off_c, 1, 39, 100
3, 125184, Note_on_c, 1, 42, 80
3, 125372, Note_off_c, 1, 42, 100
3, 125376, Note_on_c, 1, 46, 80
3, 125564, Note_off_c, 1, 46, 100
3, 125568, Note_on_c, 1, 47, 80
3, 125756, Note_off_c, 1, 47, 100
3, 125760, Note_on_c, 1, 51, 80
3, 125948, Note_off_c, 1, 51, 100
3, 125952, Note_on_c, 1, 54, 80
3, 126140, Note_off_c, 1, 54, 100
3, 126144, Note_on_c, 1, 58, 80
3, 126332, Note_off_c, 1, 58, 100
3, 126336, Note_on_c, 1, 59, 80
3, 126524, Note_off_c, 1, 59, 100
3, 126528, Note_on_c, 1, 58, 80
3, 126716, Note_off_c, 1, 58, 100
3, 126720, Note_on_c, 1, 59, 80
3, 126908, Note_off_c, 1, 59, 100
3, 127872, Note_on_c, 1, 57, 80
3, 128060, Note_off_c, 1, 57, 100
3, 128064, Note_on_c, 1, 56, 80
3, 128252, Note_off_c, 1, 56, 100
3, 128256, Note_on_c, 1, 57, 80
3, 128444, Note_off_c, 1, 57, 100
3, 129408, Note_on_c, 1, 55, 80
3, 129596, Note_off_c, 1, 55, 100
3, 129600, Note_on_c, 1, 54, 80
3, 129788, Note_off_c, 1, 54, 100
3, 129792, Note_on_c, 1, 55, 80
3, 129980, Note_off_c, 1, 55, 100
3, 130944, Note_on_c, 1, 51, 80
3, 131136, Note_on_c, 1, 54, 80
3, 131328, Note_on_c, 1, 57, 80
3, 131520, Note_on_c, 1, 59, 80
3, 131708, Note_off_c, 1, 59, 100
3, 131712, Note_on_c, 1, 60, 100
3, 133244, Note_off_c, 1, 57, 100
3, 133244, Note_off_c, 1, 60, 100
3, 133248, Note_on_c, 1, 59, 100
3, 133628, Note_off_c, 1, 59, 100
3, 133632, Note_on_c, 1, 57, 100
3, 134012, Note_off_c, 1, 51, 100
3, 134012, Note_off_c, 1, 54, 100
3, 134012, Note_off_c, 1, 57, 100
3, 134016, Note_on_c, 1, 55, 100
3, 134016, Note_on_c, 1, 52, 100
3, 134108, Note_off_c, 1, 55, 100
3, 134108, Note_off_c, 1, 52, 100
3, 134112, Note_on_c, 1, 59, 100
3, 134204, Note_off_c, 1, 59, 100
3, 134208, Note_on_c, 1, 55, 100
3, 134208, Note_on_c, 1, 52, 100
3, 134300, Note_off_c, 1, 55, 100
3, 134300, Note_off_c, 1, 52, 100
3, 134304, Note_on_c, 1, 59, 100
3, 134396, Note_off_c, 1, 59, 100
3, 134400, Note_on_c, 1, 55, 100
3, 134400, Note_on_c, 1, 52, 100
3, 134492, Note_off_c, 1, 55, 100
3, 134492, Note_off_c, 1, 52, 100
3, 134496, Note_on_c, 1, 59, 100
3, 134588, Note_off_c, 1, 59, 100
3, 134592, Note_on_c, 1, 55, 100
3, 134592, Note_on_c, 1, 52, 100
3, 134684, Note_off_c, 1, 55, 100
3, 134684, Note_off_c, 1, 52, 100
3, 134688, Note_on_c, 1, 59, 100
3, 134780, Note_off_c, 1, 59, 100
3, 134784, Note_on_c, 1, 55, 100
3, 134784, Note_on_c, 1, 52, 100
3, 134876, Note_off_c, 1, 55, 100
3, 134876, Note_off_c, 1, 52, 100
3, 134880, Note_on_c, 1, 59, 100
3, 134972, Note_off_c, 1, 59, 100
3, 134976, Note_on_c, 1, 55, 100
3, 134976, Note_on_c, 1, 52, 100
3, 135068, Note_off_c, 1, 55, 100
3, 135068, Note_off_c, 1, 52, 100
3, 135072, Note_on_c, 1, 59, 100
3, 135164, Note_off_c, 1, 59, 100
3, 135168, Note_on_c, 1, 55, 100
3, 135168, Note_on_c, 1, 52, 100
3, 135260, Note_off_c, 1, 55, 100
3, 135260, Note_off_c, 1, 52, 100
3, 135264, Note_on_c, 1, 59, 100
3, 135356, Note_off_c, 1, 59, 100
3, 135360, Note_on_c, 1, 55, 100
3, 135360, Note_on_c, 1, 52, 100
3, 135452, Note_off_c, 1, 55, 100
3, 135452, Note_off_c, 1, 52, 100
3, 135456, Note_on_c, 1, 59, 100
3, 135548, Note_off_c, 1, 59, 100
3, 135552, Note_on_c, 1, 57, 100
3, 135552, Note_on_c, 1, 54, 100
3, 135644, Note_off_c, 1, 57, 100
3, 135644, Note_off_c, 1, 54, 100
3, 135648, Note_on_c, 1, 59, 100
3, 135740, Note_off_c, 1, 59, 100
3, 135744, Note_on_c, 1, 57, 100
3, 135744, Note_on_c, 1, 54, 100
3, 135836, Note_off_c, 1, 57, 100
3, 135836, Note_off_c, 1, 54, 100
3, 135840, Note_on_c, 1, 60, 100
3, 135932, Note_off_c, 1, 60, 100
3, 135936, Note_on_c, 1, 57, 100
3, 135936, Note_on_c, 1, 54, 100
3, 136028, Note_off_c, 1, 57, 100
3, 136028, Note_off_c, 1, 54, 100
3, 136032, Note_on_c, 1, 60, 100
3, 136124, Note_off_c, 1, 60, 100
3, 136128, Note_on_c, 1, 57, 100
3, 136128, Note_on_c, 1, 54, 100
3, 136220, Note_off_c, 1, 57, 100
3, 136220, Note_off_c, 1, 54, 100
3, 136224, Note_on_c, 1, 60, 100
3, 136316, Note_off_c, 1, 60, 100
3, 136320, Note_on_c, 1, 57, 100
3, 136320, Note_on_c, 1, 54, 100
3, 136412, Note_off_c, 1, 57, 100
3, 136412, Note_off_c, 1, 54, 100
3, 136416, Note_on_c, 1, 60, 100
3, 136508, Note_off_c, 1, 60, 100
3, 136512, Note_on_c, 1, 57, 100
3, 136512, Note_on_c, 1, 54, 100
3, 136604, Note_off_c, 1, 57, 100
3, 136604, Note_off_c, 1, 54, 100
3, 136608, Note_on_c, 1, 60, 100
3, 136700, Note_off_c, 1, 60, 100
3, 136704, Note_on_c, 1, 57, 100
3, 136704, Note_on_c, 1, 54, 100
3, 136796, Note_off_c, 1, 57, 100
3, 136796, Note_off_c, 1, 54, 100
3, 136800, Note_on_c, 1, 60, 100
3, 136892, Note_off_c, 1, 60, 100
3, 136896, Note_on_c, 1, 57, 100
3, 136896, Note_on_c, 1, 54, 100
3, 136988, Note_off_c, 1, 57, 100
3, 136988, Note_off_c, 1, 54, 100
3, 136992, Note_on_c, 1, 60, 100
3, 137084, Note_off_c, 1, 60, 100
3, 137088, Note_on_c, 1, 55, 100
3, 137088, Note_on_c, 1, 59, 100
3, 137180, Note_off_c, 1, 55, 100
3, 137180, Note_off_c, 1, 59, 100
3, 137184, Note_on_c, 1, 60, 100
3, 137276, Note_off_c, 1, 60, 100
3, 137280, Note_on_c, 1, 59, 100
3, 137280, Note_on_c, 1, 55, 100
3, 137372, Note_off_c, 1, 59, 100
3, 137372, Note_off_c, 1, 55, 100
3, 137376, Note_on_c, 1, 62, 100
3, 137468, Note_off_c, 1, 62, 100
3, 137472, Note_on_c, 1, 55, 100
3, 137472, Note_on_c, 1, 59, 100
3, 137564, Note_off_c, 1, 55, 100
3, 137564, Note_off_c, 1, 59, 100
3, 137568, Note_on_c, 1, 62, 100
3, 137660, Note_off_c, 1, 62, 100
3, 137664, Note_on_c, 1, 59, 100
3, 137664, Note_on_c, 1, 55, 100
3, 137756, Note_off_c, 1, 59, 100
3, 137756, Note_off_c, 1, 55, 100
3, 137760, Note_on_c, 1, 62, 100
3, 137852, Note_off_c, 1, 62, 100
3, 137856, Note_on_c, 1, 55, 100
3, 137856, Note_on_c, 1, 59, 100
3, 137948, Note_off_c, 1, 55, 100
3, 137948, Note_off_c, 1, 59, 100
3, 137952, Note_on_c, 1, 62, 100
3, 138044, Note_off_c, 1, 62, 100
3, 138048, Note_on_c, 1, 59, 100
3, 138048, Note_on_c, 1, 55, 100
3, 138140, Note_off_c, 1, 59, 100
3, 138140, Note_off_c, 1, 55, 100
3, 138144, Note_on_c, 1, 62, 100
3, 138236, Note_off_c, 1, 62, 100
3, 138240, Note_on_c, 1, 55, 100
3, 138240, Note_on_c, 1, 59, 100
3, 138332, Note_off_c, 1, 55, 100
3, 138332, Note_off_c, 1, 59, 100
3, 138336, Note_on_c, 1, 62, 100
3, 138428, Note_off_c, 1, 62, 100
3, 138432, Note_on_c, 1, 59, 100
3, 138432, Note_on_c, 1, 55, 100
3, 138524, Note_off_c, 1, 59, 100
3, 138524, Note_off_c, 1, 55, 100
3, 138528, Note_on_c, 1, 62, 100
3, 138620, Note_off_c, 1, 62, 100
3, 138624, Note_on_c, 1, 57, 100
3, 138624, Note_on_c, 1, 60, 100
3, 138716, Note_off_c, 1, 57, 100
3, 138716, Note_off_c, 1, 60, 100
3, 138720, Note_on_c, 1, 62, 100
3, 138812, Note_off_c, 1, 62, 100
3, 138816, Note_on_c, 1, 57, 100
3, 138816, Note_on_c, 1, 60, 100
3, 138908, Note_off_c, 1, 57, 100
3, 138908, Note_off_c, 1, 60, 100
3, 138912, Note_on_c, 1, 63, 100
3, 139004, Note_off_c, 1, 63, 100
3, 139008, Note_on_c, 1, 57, 100
3, 139008, Note_on_c, 1, 60, 100
3, 139100, Note_off_c, 1, 57, 100
3, 139100, Note_off_c, 1, 60, 100
3, 139104, Note_on_c, 1, 63, 100
3, 139196, Note_off_c, 1, 63, 100
3, 139200, Note_on_c, 1, 57, 100
3, 139200, Note_on_c, 1, 60, 100
3, 139292, Note_off_c, 1, 57, 100
3, 139292, Note_off_c, 1, 60, 100
3, 139296, Note_on_c, 1, 63, 100
3, 139388, Note_off_c, 1, 63, 100
3, 139392, Note_on_c, 1, 57, 100
3, 139392, Note_on_c, 1, 60, 100
3, 139484, Note_off_c, 1, 57, 100
3, 139484, Note_off_c, 1, 60, 100
3, 139488, Note_on_c, 1, 63, 100
3, 139580, Note_off_c, 1, 63, 100
3, 139584, Note_on_c, 1, 57, 100
3, 139584, Note_on_c, 1, 60, 100
3, 139676, Note_off_c, 1, 57, 100
3, 139676, Note_off_c, 1, 60, 100
3, 139680, Note_on_c, 1, 63, 100
3, 139772, Note_off_c, 1, 63, 100
3, 139776, Note_on_c, 1, 57, 100
3, 139776, Note_on_c, 1, 60, 100
3, 139868, Note_off_c, 1, 57, 100
3, 139868, Note_off_c, 1, 60, 100
3, 139872, Note_on_c, 1, 63, 100
3, 139964, Note_off_c, 1, 63, 100
3, 139968, Note_on_c, 1, 57, 100
3, 139968, Note_on_c, 1, 60, 100
3, 140060, Note_off_c, 1, 57, 100
3, 140060, Note_off_c, 1, 60, 100
3, 140064, Note_on_c, 1, 63, 100
3, 140156, Note_off_c, 1, 63, 100
3, 140160, Note_on_c, 1, 58, 100
3, 140160, Note_on_c, 1, 62, 100
3, 140252, Note_off_c, 1, 58, 100
3, 140252, Note_off_c, 1, 62, 100
3, 140256, Note_on_c, 1, 63, 100
3, 140348, Note_off_c, 1, 63, 100
3, 140352, Note_on_c, 1, 58, 100
3, 140352, Note_on_c, 1, 62, 100
3, 140444, Note_off_c, 1, 58, 100
3, 140444, Note_off_c, 1, 62, 100
3, 140448, Note_on_c, 1, 65, 100
3, 140540, Note_off_c, 1, 65, 100
3, 140544, Note_on_c, 1, 58, 100
3, 140544, Note_on_c, 1, 62, 100
3, 140636, Note_off_c, 1, 58, 100
3, 140636, Note_off_c, 1, 62, 100
3, 140640, Note_on_c, 1, 65, 100
3, 140732, Note_off_c, 1, 65, 100
3, 140736, Note_on_c, 1, 58, 100
3, 140736, Note_on_c, 1, 62, 100
3, 140828, Note_off_c, 1, 58, 100
3, 140828, Note_off_c, 1, 62, 100
3, 140832, Note_on_c, 1, 65, 100
3, 140924, Note_off_c, 1, 65, 100
3, 140928, Note_on_c, 1, 58, 100
3, 140928, Note_on_c, 1, 62, 100
3, 141020, Note_off_c, 1, 58, 100
3, 141020, Note_off_c, 1, 62, 100
3, 141024, Note_on_c, 1, 65, 100
3, 141116, Note_off_c, 1, 65, 100
3, 141120, Note_on_c, 1, 58, 100
3, 141120, Note_on_c, 1, 62, 100
3, 141212, Note_off_c, 1, 58, 100
3, 141212, Note_off_c, 1, 62, 100
3, 141216, Note_on_c, 1, 65, 100
3, 141308, Note_off_c, 1, 65, 100
3, 141312, Note_on_c, 1, 58, 100
3, 141312, Note_on_c, 1, 62, 100
3, 141404, Note_off_c, 1, 58, 100
3, 141404, Note_off_c, 1, 62, 100
3, 141408, Note_on_c, 1, 65, 100
3, 141500, Note_off_c, 1, 65, 100
3, 141504, Note_on_c, 1, 58, 100
3, 141504, Note_on_c, 1, 62, 100
3, 141596, Note_off_c, 1, 58, 100
3, 141596, Note_off_c, 1, 62, 100
3, 141600, Note_on_c, 1, 65, 100
3, 141692, Note_off_c, 1, 65, 100
3, 141696, Note_on_c, 1, 60, 100
3, 141696, Note_on_c, 1, 63, 100
3, 141788, Note_off_c, 1, 60, 100
3, 141788, Note_off_c, 1, 63, 100
3, 141792, Note_on_c, 1, 65, 100
3, 141884, Note_off_c, 1, 65, 100
3, 141888, Note_on_c, 1, 60, 100
3, 141888, Note_on_c, 1, 63, 100
3, 141980, Note_off_c, 1, 60, 100
3, 141980, Note_off_c, 1, 63, 100
3, 141984, Note_on_c, 1, 66, 100
3, 142076, Note_off_c, 1, 66, 100
3, 142080, Note_on_c, 1, 60, 100
3, 142080, Note_on_c, 1, 63, 100
3, 142172, Note_off_c, 1, 60, 100
3, 142172, Note_off_c, 1, 63, 100
3, 142176, Note_on_c, 1, 66, 100
3, 142268, Note_off_c, 1, 66, 100
3, 142272, Note_on_c, 1, 60, 100
3, 142272, Note_on_c, 1, 63, 100
3, 142364, Note_off_c, 1, 60, 100
3, 142364, Note_off_c, 1, 63, 100
3, 142368, Note_on_c, 1, 66, 100
3, 142460, Note_off_c, 1, 66, 100
3, 142464, Note_on_c, 1, 61, 100
3, 142464, Note_on_c, 1, 64, 100
3, 142556, Note_off_c, 1, 61, 100
3, 142556, Note_off_c, 1, 64, 100
3, 142560, Note_on_c, 1, 66, 100
3, 142652, Note_off_c, 1, 66, 100
3, 142656, Note_on_c, 1, 61, 100
3, 142656, Note_on_c, 1, 64, 100
3, 142748, Note_off_c, 1, 61, 100
3, 142748, Note_off_c, 1, 64, 100
3, 142752, Note_on_c, 1, 67, 100
3, 142844, Note_off_c, 1, 67, 100
3, 142848, Note_on_c, 1, 61, 100
3, 142848, Note_on_c, 1, 64, 100
3, 142940, Note_off_c, 1, 61, 100
3, 142940, Note_off_c, 1, 64, 100
3, 142944, Note_on_c, 1, 67, 100
3, 143036, Note_off_c, 1, 67, 100
3, 143040, Note_on_c, 1, 61, 100
3, 143040, Note_on_c, 1, 64, 100
3, 143132, Note_off_c, 1, 61, 100
3, 143132, Note_off_c, 1, 64, 100
3, 143136, Note_on_c, 1, 67, 100
3, 143228, Note_off_c, 1, 67, 100
3, 143232, Note_on_c, 1, 62, 100
3, 143232, Note_on_c, 1, 66, 100
3, 143324, Note_off_c, 1, 62, 100
3, 143324, Note_off_c, 1, 66, 100
3, 143328, Note_on_c, 1, 67, 100
3, 143420, Note_off_c, 1, 67, 100
3, 143424, Note_on_c, 1, 62, 100
3, 143424, Note_on_c, 1, 66, 100
3, 143516, Note_off_c, 1, 62, 100
3, 143516, Note_off_c, 1, 66, 100
3, 143520, Note_on_c, 1, 69, 100
3, 143612, Note_off_c, 1, 69, 100
3, 143616, Note_on_c, 1, 62, 100
3, 143616, Note_on_c, 1, 66, 100
3, 143708, Note_off_c, 1, 62, 100
3, 143708, Note_off_c, 1, 66, 100
3, 143712, Note_on_c, 1, 69, 100
3, 143804, Note_off_c, 1, 69, 100
3, 143808, Note_on_c, 1, 62, 100
3, 143808, Note_on_c, 1, 66, 100
3, 143900, Note_off_c, 1, 62, 100
3, 143900, Note_off_c, 1, 66, 100
3, 143904, Note_on_c, 1, 69, 100
3, 143996, Note_off_c, 1, 69, 100
3, 144000, Note_on_c, 1, 63, 100
3, 144000, Note_on_c, 1, 66, 100
3, 144092, Note_off_c, 1, 63, 100
3, 144092, Note_off_c, 1, 66, 100
3, 144096, Note_on_c, 1, 69, 100
3, 144188, Note_off_c, 1, 69, 100
3, 144192, Note_on_c, 1, 63, 100
3, 144192, Note_on_c, 1, 66, 100
3, 144284, Note_off_c, 1, 63, 100
3, 144284, Note_off_c, 1, 66, 100
3, 144288, Note_on_c, 1, 69, 100
3, 144380, Note_off_c, 1, 69, 100
3, 144384, Note_on_c, 1, 63, 100
3, 144384, Note_on_c, 1, 66, 100
3, 144476, Note_off_c, 1, 63, 100
3, 144476, Note_off_c, 1, 66, 100
3, 144480, Note_on_c, 1, 69, 100
3, 144572, Note_off_c, 1, 69, 100
3, 144576, Note_on_c, 1, 63, 100
3, 144576, Note_on_c, 1, 66, 100
3, 144668, Note_off_c, 1, 63, 100
3, 144668, Note_off_c, 1, 66, 100
3, 144672, Note_on_c, 1, 69, 100
3, 144764, Note_off_c, 1, 69, 100
3, 144768, Note_on_c, 1, 64, 100
3, 144768, Note_on_c, 1, 68, 100
3, 144860, Note_off_c, 1, 64, 100
3, 144860, Note_off_c, 1, 68, 100
3, 144864, Note_on_c, 1, 69, 100
3, 144956, Note_off_c, 1, 69, 100
3, 144960, Note_on_c, 1, 64, 100
3, 144960, Note_on_c, 1, 68, 100
3, 145052, Note_off_c, 1, 64, 100
3, 145052, Note_off_c, 1, 68, 100
3, 145056, Note_on_c, 1, 71, 100
3, 145148, Note_off_c, 1, 71, 100
3, 145152, Note_on_c, 1, 64, 100
3, 145152, Note_on_c, 1, 68, 100
3, 145244, Note_off_c, 1, 64, 100
3, 145244, Note_off_c, 1, 68, 100
3, 145248, Note_on_c, 1, 71, 100
3, 145340, Note_off_c, 1, 71, 100
3, 145344, Note_on_c, 1, 64, 100
3, 145344, Note_on_c, 1, 68, 100
3, 145436, Note_off_c, 1, 64, 100
3, 145436, Note_off_c, 1, 68, 100
3, 145440, Note_on_c, 1, 71, 100
3, 145532, Note_off_c, 1, 71, 100
3, 145536, Note_on_c, 1, 65, 100
3, 145536, Note_on_c, 1, 68, 100
3, 145628, Note_off_c, 1, 65, 100
3, 145628, Note_off_c, 1, 68, 100
3, 145632, Note_on_c, 1, 71, 100
3, 145724, Note_off_c, 1, 71, 100
3, 145728, Note_on_c, 1, 65, 100
3, 145728, Note_on_c, 1, 68, 100
3, 145820, Note_off_c, 1, 65, 100
3, 145820, Note_off_c, 1, 68, 100
3, 145824, Note_on_c, 1, 71, 100
3, 145916, Note_off_c, 1, 71, 100
3, 145920, Note_on_c, 1, 65, 100
3, 145920, Note_on_c, 1, 68, 100
3, 146012, Note_off_c, 1, 65, 100
3, 146012, Note_off_c, 1, 68, 100
3, 146016, Note_on_c, 1, 71, 100
3, 146108, Note_off_c, 1, 71, 100
3, 146112, Note_on_c, 1, 65, 100
3, 146112, Note_on_c, 1, 68, 100
3, 146204, Note_off_c, 1, 65, 100
3, 146204, Note_off_c, 1, 68, 100
3, 146208, Note_on_c, 1, 71, 100
3, 146300, Note_off_c, 1, 71, 100
3, 146304, Note_on_c, 1, 66, 100
3, 146304, Note_on_c, 1, 69, 100
3, 146396, Note_off_c, 1, 66, 100
3, 146396, Note_off_c, 1, 69, 100
3, 146400, Note_on_c, 1, 71, 100
3, 146492, Note_off_c, 1, 71, 100
3, 146496, Note_on_c, 1, 66, 100
3, 146496, Note_on_c, 1, 69, 100
3, 146588, Note_off_c, 1, 66, 100
3, 146588, Note_off_c, 1, 69, 100
3, 146592, Note_on_c, 1, 71, 100
3, 146684, Note_off_c, 1, 71, 100
3, 146688, Note_on_c, 1, 66, 100
3, 146688, Note_on_c, 1, 69, 100
3, 146780, Note_off_c, 1, 66, 100
3, 146780, Note_off_c, 1, 69, 100
3, 146784, Note_on_c, 1, 72, 100
3, 146876, Note_off_c, 1, 72, 100
3, 146880, Note_on_c, 1, 66, 100
3, 146880, Note_on_c, 1, 69, 100
3, 146972, Note_off_c, 1, 66, 100
3, 146972, Note_off_c, 1, 69, 100
3, 146976, Note_on_c, 1, 72, 100
3, 147068, Note_off_c, 1, 72, 100
3, 147072, Note_on_c, 1, 66, 100
3, 147072, Note_on_c, 1, 69, 100
3, 147164, Note_off_c, 1, 66, 100
3, 147164, Note_off_c, 1, 69, 100
3, 147168, Note_on_c, 1, 72, 100
3, 147260, Note_off_c, 1, 72, 100
3, 147264, Note_on_c, 1, 66, 100
3, 147264, Note_on_c, 1, 69, 100
3, 147356, Note_off_c, 1, 66, 100
3, 147356, Note_off_c, 1, 69, 100
3, 147360, Note_on_c, 1, 72, 100
3, 147452, Note_off_c, 1, 72, 100
3, 147456, Note_on_c, 1, 66, 100
3, 147456, Note_on_c, 1, 69, 100
3, 147548, Note_off_c, 1, 66, 100
3, 147548, Note_off_c, 1, 69, 100
3, 147552, Note_on_c, 1, 72, 100
3, 147644, Note_off_c, 1, 72, 100
3, 147648, Note_on_c, 1, 66, 100
3, 147648, Note_on_c, 1, 69, 100
3, 147740, Note_off_c, 1, 66, 100
3, 147740, Note_off_c, 1, 69, 100
3, 147744, Note_on_c, 1, 72, 100
3, 147836, Note_off_c, 1, 72, 100
3, 147840, Note_on_c, 1, 66, 100
3, 147840, Note_on_c, 1, 69, 100
3, 148220, Note_off_c, 1, 66, 100
3, 148220, Note_off_c, 1, 69, 100
3, 148416, Note_on_c, 1, 48, 120
3, 148464, Note_on_c, 1, 47, 120
3, 148508, Note_off_c, 1, 48, 100
3, 148512, Note_on_c, 1, 45, 120
3, 148556, Note_off_c, 1, 47, 100
3, 148560, Note_on_c, 1, 43, 120
3, 148604, Note_off_c, 1, 45, 100
3, 148604, Note_off_c, 1, 43, 100
3, 148608, Note_on_c, 1, 42, 120
3, 148988, Note_off_c, 1, 42, 100
3, 149952, Note_on_c, 1, 48, 120
3, 150000, Note_on_c, 1, 47, 120
3, 150044, Note_off_c, 1, 48, 100
3, 150048, Note_on_c, 1, 45, 120
3, 150092, Note_off_c, 1, 47, 100
3, 150096, Note_on_c, 1, 43, 120
3, 150140, Note_off_c, 1, 45, 100
3, 150140, Note_off_c, 1, 43, 100
3, 150144, Note_on_c, 1, 42, 120
3, 150524, Note_off_c, 1, 42, 100
3, 151296, Note_on_c, 1, 66, 90
3, 151296, Note_on_c, 1, 69, 90
3, 151296, Note_on_c, 1, 72, 90
3, 151676, Note_off_c, 1, 66, 100
3, 151676, Note_off_c, 1, 69, 100
3, 151676, Note_off_c, 1, 72, 100
3, 152064, Note_on_c, 1, 66, 90
3, 152064, Note_on_c, 1, 69, 90
3, 152064, Note_on_c, 1, 72, 90
3, 152444, Note_off_c, 1, 66, 100
3, 152444, Note_off_c, 1, 69, 100
3, 152444, Note_off_c, 1, 72, 100
3, 152832, Note_on_c, 1, 66, 90
3, 152832, Note_on_c, 1, 69, 90
3, 152832, Note_on_c, 1, 72, 90
3, 153212, Note_off_c, 1, 66, 100
3, 153212, Note_off_c, 1, 69, 100
3, 153212, Note_off_c, 1, 72, 100
3, 153984, Note_on_c, 1, 56, 120
3, 153984, Note_on_c, 1, 59, 120
3, 153984, Note_on_c, 1, 64, 120
3, 154364, Note_off_c, 1, 56, 100
3, 154364, Note_off_c, 1, 59, 100
3, 154364, Note_off_c, 1, 64, 100
3, 155520, Note_on_c, 1, 46, 120
3, 156284, Note_off_c, 1, 46, 100
3, 156288, Note_on_c, 1, 45, 120
3, 156288, Note_on_c, 1, 35, 120
3, 157052, Note_off_c, 1, 45, 100
3, 157052, Note_off_c, 1, 35, 100
3, 157056, Note_on_c, 1, 40, 100
3, 157056, Note_on_c, 1, 44, 100
3, 157436, Note_off_c, 1, 40, 100
3, 157436, Note_off_c, 1, 44, 100
3, 158592, Note_on_c, 1, 70, 120
3, 159356, Note_off_c, 1, 70, 100
3, 159360, Note_on_c, 1, 69, 120
3, 159360, Note_on_c, 1, 59, 120
3, 160124, Note_off_c, 1, 69, 100
3, 160124, Note_off_c, 1, 59, 100
3, 160128, Note_on_c, 1, 64, 100
3, 160192, Note_on_c, 1, 68, 100
3, 160252, Note_off_c, 1, 64, 100
3, 160256, Note_on_c, 1, 69, 100
3, 160316, Note_off_c, 1, 68, 100
3, 160320, Note_on_c, 1, 71, 100
3, 160380, Note_off_c, 1, 69, 100
3, 160384, Note_on_c, 1, 73, 100
3, 160444, Note_off_c, 1, 71, 100
3, 160448, Note_on_c, 1, 75, 100
3, 160508, Note_off_c, 1, 73, 100
3, 160512, Note_on_c, 1, 76, 100
3, 160572, Note_off_c, 1, 75, 100
3, 160700, Note_off_c, 1, 76, 100
3, 161664, Note_on_c, 1, 47, 100
3, 161728, Note_on_c, 1, 51, 100
3, 161788, Note_off_c, 1, 47, 100
3, 161792, Note_on_c, 1, 52, 100
3, 161852, Note_off_c, 1, 51, 100
3, 161856, Note_on_c, 1, 54, 100
3, 161916, Note_off_c, 1, 52, 100
3, 161920, Note_on_c, 1, 56, 100
3, 161980, Note_off_c, 1, 54, 100
3, 161984, Note_on_c, 1, 57, 100
3, 162044, Note_off_c, 1, 56, 100
3, 162048, Note_on_c, 1, 59, 100
3, 162108, Note_off_c, 1, 57, 100
3, 162112, Note_on_c, 1, 63, 100
3, 162172, Note_off_c, 1, 59, 100
3, 162176, Note_on_c, 1, 64, 100
3, 162236, Note_off_c, 1, 63, 100
3, 162240, Note_on_c, 1, 66, 100
3, 162300, Note_off_c, 1, 64, 100
3, 162304, Note_on_c, 1, 68, 100
3, 162364, Note_off_c, 1, 66, 100
3, 162368, Note_on_c, 1, 69, 100
3, 162428, Note_off_c, 1, 68, 100
3, 162428, Note_off_c, 1, 69, 100
3, 162432, Note_on_c, 1, 71, 100
3, 162620, Note_off_c, 1, 71, 100
3, 162624, Note_on_c, 1, 69, 100
3, 162812, Note_off_c, 1, 69, 100
3, 162816, Note_on_c, 1, 68, 100
3, 163004, Note_off_c, 1, 68, 100
3, 163008, Note_on_c, 1, 66, 100
3, 163196, Note_off_c, 1, 66, 100
3, 163200, Note_on_c, 1, 40, 100
3, 163264, Note_on_c, 1, 44, 100
3, 163324, Note_off_c, 1, 40, 100
3, 163328, Note_on_c, 1, 45, 100
3, 163388, Note_off_c, 1, 44, 100
3, 163392, Note_on_c, 1, 47, 100
3, 163452, Note_off_c, 1, 45, 100
3, 163456, Note_on_c, 1, 49, 100
3, 163516, Note_off_c, 1, 47, 100
3, 163520, Note_on_c, 1, 51, 100
3, 163580, Note_off_c, 1, 49, 100
3, 163584, Note_on_c, 1, 52, 100
3, 163644, Note_off_c, 1, 51, 100
3, 163648, Note_on_c, 1, 56, 100
3, 163708, Note_off_c, 1, 52, 100
3, 163712, Note_on_c, 1, 57, 100
3, 163772, Note_off_c, 1, 56, 100
3, 163776, Note_on_c, 1, 59, 100
3, 163836, Note_off_c, 1, 57, 100
3, 163840, Note_on_c, 1, 61, 100
3, 163900, Note_off_c, 1, 59, 100
3, 163904, Note_on_c, 1, 63, 100
3, 163964, Note_off_c, 1, 61, 100
3, 163964, Note_off_c, 1, 63, 100
3, 163968, Note_on_c, 1, 64, 100
3, 164156, Note_off_c, 1, 64, 100
3, 164160, Note_on_c, 1, 63, 100
3, 164348, Note_off_c, 1, 63, 100
3, 164352, Note_on_c, 1, 61, 100
3, 164540, Note_off_c, 1, 61, 100
3, 164544, Note_on_c, 1, 59, 100
3, 164732, Note_off_c, 1, 59, 100
3, 164736, Note_on_c, 1, 57, 100
3, 164924, Note_off_c, 1, 57, 100
3, 164928, Note_on_c, 1, 56, 100
3, 165116, Note_off_c, 1, 56, 100
3, 165120, Note_on_c, 1, 54, 100
3, 165308, Note_off_c, 1, 54, 100
3, 165312, Note_on_c, 1, 52, 100
3, 165500, Note_off_c, 1, 52, 100
3, 165504, Note_on_c, 1, 51, 120
3, 165692, Note_off_c, 1, 51, 100
3, 165696, Note_on_c, 1, 49, 120
3, 165884, Note_off_c, 1, 49, 100
3, 165888, Note_on_c, 1, 47, 120
3, 166076, Note_off_c, 1, 47, 100
3, 166080, Note_on_c, 1, 45, 120
3, 166268, Note_off_c, 1, 45, 100
3, 166272, Note_on_c, 1, 44, 120
3, 166460, Note_off_c, 1, 44, 100
3, 166464, Note_on_c, 1, 42, 120
3, 166652, Note_off_c, 1, 42, 100
3, 166656, Note_on_c, 1, 40, 120
3, 166844, Note_off_c, 1, 40, 100
3, 166848, Note_on_c, 1, 39, 120
3, 167036, Note_off_c, 1, 39, 100
3, 167040, Note_on_c, 1, 37, 120
3, 167228, Note_off_c, 1, 37, 100
3, 167232, Note_on_c, 1, 35, 120
3, 167420, Note_off_c, 1, 35, 100
3, 167424, Note_on_c, 1, 33, 120
3, 167612, Note_off_c, 1, 33, 100
3, 167616, Note_on_c, 1, 32, 120
3, 167804, Note_off_c, 1, 32, 100
3, 167808, Note_on_c, 1, 33, 120
3, 168572, Note_off_c, 1, 33, 100
3, 168576, Note_on_c, 1, 35, 120
3, 169340, Note_off_c, 1, 35, 100
3, 169344, Note_on_c, 1, 40, 80
3, 170876, Note_off_c, 1, 40, 100
3, 170880, Note_on_c, 1, 40, 80
3, 171072, Note_on_c, 1, 42, 80
3, 171260, Note_off_c, 1, 42, 100
3, 171264, Note_on_c, 1, 44, 80
3, 171452, Note_off_c, 1, 44, 100
3, 171456, Note_on_c, 1, 45, 80
3, 171644, Note_off_c, 1, 45, 100
3, 171648, Note_on_c, 1, 47, 80
3, 171836, Note_off_c, 1, 47, 100
3, 171840, Note_on_c, 1, 49, 80
3, 172028, Note_off_c, 1, 49, 100
3, 172032, Note_on_c, 1, 50, 80
3, 172220, Note_off_c, 1, 50, 100
3, 172224, Note_on_c, 1, 51, 80
3, 172412, Note_off_c, 1, 51, 100
3, 172416, Note_on_c, 1, 52, 80
3, 173180, Note_off_c, 1, 52, 100
3, 173184, Note_on_c, 1, 51, 80
3, 173564, Note_off_c, 1, 51, 100
3, 173568, Note_on_c, 1, 54, 80
3, 173948, Note_off_c, 1, 40, 100
3, 173948, Note_off_c, 1, 54, 100
3, 173952, Note_on_c, 1, 40, 80
3, 174144, Note_on_c, 1, 42, 80
3, 174332, Note_off_c, 1, 42, 100
3, 174336, Note_on_c, 1, 44, 80
3, 174524, Note_off_c, 1, 44, 100
3, 174528, Note_on_c, 1, 45, 80
3, 174716, Note_off_c, 1, 45, 100
3, 174720, Note_on_c, 1, 47, 80
3, 174908, Note_off_c, 1, 47, 100
3, 174912, Note_on_c, 1, 49, 80
3, 175100, Note_off_c, 1, 49, 100
3, 175104, Note_on_c, 1, 50, 80
3, 175292, Note_off_c, 1, 50, 100
3, 175296, Note_on_c, 1, 51, 80
3, 175484, Note_off_c, 1, 40, 100
3, 175484, Note_off_c, 1, 51, 100
3, 175488, Note_on_c, 1, 40, 70
3, 175488, Note_on_c, 1, 52, 70
3, 175616, Note_off_c, 1, 40, 100
3, 175616, Note_off_c, 1, 52, 100
3, 175680, Note_on_c, 1, 49, 70
3, 175808, Note_off_c, 1, 49, 100
3, 175872, Note_on_c, 1, 47, 70
3, 176000, Note_off_c, 1, 47, 100
3, 176064, Note_on_c, 1, 45, 70
3, 176192, Note_off_c, 1, 45, 100
3, 176256, Note_on_c, 1, 44, 70
3, 176384, Note_off_c, 1, 44, 100
3, 176448, Note_on_c, 1, 45, 70
3, 176576, Note_off_c, 1, 45, 100
3, 176640, Note_on_c, 1, 44, 70
3, 176768, Note_off_c, 1, 44, 100
3, 176832, Note_on_c, 1, 42, 70
3, 176960, Note_off_c, 1, 42, 100
3, 177024, Note_on_c, 1, 40, 70
3, 177280, Note_off_c, 1, 40, 100
3, 177792, Note_on_c, 1, 40, 70
3, 178172, Note_off_c, 1, 40, 100
3, 178560, Note_on_c, 1, 40, 70
3, 178940, Note_off_c, 1, 40, 100
3, 180096, Note_on_c, 1, 64, 70
3, 180476, Note_off_c, 1, 64, 100
3, 180864, Note_on_c, 1, 64, 70
3, 181244, Note_off_c, 1, 64, 100
3, 181632, Note_on_c, 1, 64, 70
3, 182012, Note_off_c, 1, 64, 100
3, 182400, Key_signature, 0, "major"
3, 182976, Note_on_c, 1, 60, 110
3, 183164, Note_off_c, 1, 60, 100
3, 183168, Note_on_c, 1, 55, 110
3, 183548, Note_off_c, 1, 55, 100
3, 183744, Note_on_c, 1, 55, 110
3, 183792, Note_on_c, 1, 53, 110
3, 183836, Note_off_c, 1, 55, 100
3, 183840, Note_on_c, 1, 52, 110
3, 183884, Note_off_c, 1, 53, 100
3, 183888, Note_on_c, 1, 50, 110
3, 183932, Note_off_c, 1, 52, 100
3, 183932, Note_off_c, 1, 50, 100
3, 183936, Note_on_c, 1, 48, 110
3, 184316, Note_off_c, 1, 48, 100
3, 184512, Note_on_c, 1, 60, 110
3, 184700, Note_off_c, 1, 60, 100
3, 184704, Note_on_c, 1, 57, 110
3, 185084, Note_off_c, 1, 57, 100
3, 185280, Note_on_c, 1, 57, 110
3, 185328, Note_on_c, 1, 55, 110
3, 185372, Note_off_c, 1, 57, 100
3, 185376, Note_on_c, 1, 53, 110
3, 185420, Note_off_c, 1, 55, 100
3, 185424, Note_on_c, 1, 52, 110
3, 185468, Note_off_c, 1, 53, 100
3, 185468, Note_off_c, 1, 52, 100
3, 185472, Note_on_c, 1, 50, 110
3, 185852, Note_off_c, 1, 50, 100
3, 186048, Note_on_c, 1, 65, 110
3, 186236, Note_off_c, 1, 65, 100
3, 186240, Note_on_c, 1, 62, 110
3, 186620, Note_off_c, 1, 62, 100
3, 186624, Note_on_c, 1, 59, 110
3, 187004, Note_off_c, 1, 59, 100
3, 187008, Note_on_c, 1, 55, 110
3, 187388, Note_off_c, 1, 55, 100
3, 187392, Note_on_c, 1, 53, 110
3, 187772, Note_off_c, 1, 53, 100
3, 187776, Note_on_c, 1, 50, 110
3, 188156, Note_off_c, 1, 50, 100
3, 188160, Note_on_c, 1, 47, 110
3, 188540, Note_off_c, 1, 47, 100
3, 188544, Note_on_c, 1, 43, 110
3, 188924, Note_off_c, 1, 43, 100
3, 188928, Note_on_c, 1, 43, 120
3, 188928, Note_on_c, 1, 31, 120
3, 189308, Note_off_c, 1, 43, 100
3, 189308, Note_off_c, 1, 31, 100
3, 189312, Note_on_c, 1, 44, 120
3, 189312, Note_on_c, 1, 32, 120
3, 189692, Note_off_c, 1, 44, 100
3, 189692, Note_off_c, 1, 32, 100
3, 189888, Note_on_c, 1, 44, 120
3, 190076, Note_off_c, 1, 44, 100
3, 190080, Note_on_c, 1, 39, 120
3, 190460, Note_off_c, 1, 39, 100
3, 190656, Note_on_c, 1, 39, 120
3, 190704, Note_on_c, 1, 37, 120
3, 190748, Note_off_c, 1, 39, 100
3, 190752, Note_on_c, 1, 36, 120
3, 190796, Note_off_c, 1, 37, 100
3, 190800, Note_on_c, 1, 34, 120
3, 190844, Note_off_c, 1, 36, 100
3, 190844, Note_off_c, 1, 34, 100
3, 190848, Note_on_c, 1, 32, 120
3, 191228, Note_off_c, 1, 32, 100
3, 194496, Note_on_c, 1, 51, 120
3, 194684, Note_off_c, 1, 51, 100
3, 194688, Note_on_c, 1, 46, 120
3, 195068, Note_off_c, 1, 46, 100
3, 195264, Note_on_c, 1, 46, 120
3, 195312, Note_on_c, 1, 44, 120
3, 195356, Note_off_c, 1, 46, 100
3, 195360, Note_on_c, 1, 43, 120
3, 195404, Note_off_c, 1, 44, 100
3, 195408, Note_on_c, 1, 41, 120
3, 195452, Note_off_c, 1, 43, 100
3, 195452, Note_off_c, 1, 41, 100
3, 195456, Note_on_c, 1, 39, 120
3, 195836, Note_off_c, 1, 39, 100
3, 199104, Note_on_c, 1, 48, 120
3, 199292, Note_off_c, 1, 48, 100
3, 199296, Note_on_c, 1, 43, 120
3, 199676, Note_off_c, 1, 43, 100
3, 199872, Note_on_c, 1, 43, 120
3, 199920, Note_on_c, 1, 41, 120
3, 199964, Note_off_c, 1, 43, 100
3, 199968, Note_on_c, 1, 40, 120
3, 200012, Note_off_c, 1, 41, 100
3, 200016, Note_on_c, 1, 38, 120
3, 200060, Note_off_c, 1, 40, 100
3, 200060, Note_off_c, 1, 38, 100
3, 200064, Note_on_c, 1, 36, 120
3, 200444, Note_off_c, 1, 36, 100
3, 203136, Note_on_c, 1, 36, 120
3, 203184, Note_on_c, 1, 41, 120
3, 203232, Note_on_c, 1, 44, 120
3, 203280, Note_on_c, 1, 48, 120
3, 203516, Note_off_c, 1, 36, 100
3, 203516, Note_off_c, 1, 41, 100
3, 203516, Note_off_c, 1, 44, 100
3, 203516, Note_off_c, 1, 48, 100
3, 206208, Note_on_c, 1, 36, 120
3, 206256, Note_on_c, 1, 41, 120
3, 206304, Note_on_c, 1, 44, 120
3, 206352, Note_on_c, 1, 48, 120
3, 206588, Note_off_c, 1, 36, 100
3, 206588, Note_off_c, 1, 41, 100
3, 206588, Note_off_c, 1, 44, 100
3, 206588, Note_off_c, 1, 48, 100
3, 209664, Note_on_c, 1, 48, 120
3, 210044, Note_off_c, 1, 48, 100
3, 210048, Note_on_c, 1, 43, 120
3, 210428, Note_off_c, 1, 43, 100
3, 210432, Note_on_c, 1, 40, 120
3, 210812, Note_off_c, 1, 40, 100
3, 210816, Note_on_c, 1, 36, 100
3, 210816, Note_on_c, 1, 48, 100
3, 211196, Note_off_c, 1, 36, 100
3, 211196, Note_off_c, 1, 48, 100
3, 211584, Note_on_c, 1, 48, 100
3, 211584, Note_on_c, 1, 40, 100
3, 211584, Note_on_c, 1, 36, 100
3, 211584, Note_on_c, 1, 43, 100
3, 211964, Note_off_c, 1, 48, 100
3, 211964, Note_off_c, 1, 40, 100
3, 211964, Note_off_c, 1, 36, 100
3, 211964, Note_off_c, 1, 43, 100
3, 212352, Note_on_c, 1, 40, 100
3, 212352, Note_on_c, 1, 36, 100
3, 212352, Note_on_c, 1, 43, 100
3, 212352, Note_on_c, 1, 48, 100
3, 213692, Note_off_c, 1, 36, 100
3, 213692, Note_off_c, 1, 40, 100
3, 213692, Note_off_c, 1, 43, 100
3, 213692, Note_off_c, 1, 48, 100
3, 213888, Note_on_c, 1, 53, 110
3, 213888, Note_on_c, 1, 48, 110
3, 213888, Note_on_c, 1, 45, 110
3, 213888, Note_on_c, 1, 41, 110
3, 214268, Note_off_c, 1, 53, 100
3, 214268, Note_off_c, 1, 48, 100
3, 214268, Note_off_c, 1, 45, 100
3, 214268, Note_off_c, 1, 41, 100
3, 215616, Note_on_c, 1, 48, 100
3, 215804, Note_off_c, 1, 48, 100
3, 215808, Note_on_c, 1, 50, 100
3, 215996, Note_off_c, 1, 50, 100
3, 216000, Note_on_c, 1, 52, 100
3, 216188, Note_off_c, 1, 52, 100
3, 216192, Note_on_c, 1, 53, 100
3, 216380, Note_off_c, 1, 53, 100
3, 216384, Note_on_c, 1, 41, 100
3, 216572, Note_off_c, 1, 41, 100
3, 216576, Note_on_c, 1, 45, 100
3, 216764, Note_off_c, 1, 45, 100
3, 216768, Note_on_c, 1, 46, 100
3, 216956, Note_off_c, 1, 46, 100
3, 216960, Note_on_c, 1, 48, 100
3, 217532, Note_off_c, 1, 48, 100
3, 217536, Note_on_c, 1, 46, 100
3, 217724, Note_off_c, 1, 46, 100
3, 217728, Note_on_c, 1, 45, 100
3, 217916, Note_off_c, 1, 45, 100
3, 217920, Note_on_c, 1, 48, 100
3, 218108, Note_off_c, 1, 48, 100
3, 218112, Note_on_c, 1, 45, 100
3, 218300, Note_off_c, 1, 45, 100
3, 218304, Note_on_c, 1, 41, 100
3, 218492, Note_off_c, 1, 41, 100
3, 218496, Note_on_c, 1, 40, 100
3, 218684, Note_off_c, 1, 40, 100
3, 218688, Note_on_c, 1, 36, 100
3, 218876, Note_off_c, 1, 36, 100
3, 218880, Note_on_c, 1, 38, 100
3, 219068, Note_off_c, 1, 38, 100
3, 219072, Note_on_c, 1, 40, 100
3, 219260, Note_off_c, 1, 40, 100
3, 219264, Note_on_c, 1, 41, 100
3, 219452, Note_off_c, 1, 41, 100
3, 219456, Note_on_c, 1, 45, 100
3, 219644, Note_off_c, 1, 45, 100
3, 219648, Note_on_c, 1, 46, 100
3, 219836, Note_off_c, 1, 46, 100
3, 219840, Note_on_c, 1, 43, 100
3, 220028, Note_off_c, 1, 43, 100
3, 220032, Note_on_c, 1, 48, 100
3, 220220, Note_off_c, 1, 48, 100
3, 220224, Note_on_c, 1, 47, 100
3, 220412, Note_off_c, 1, 47, 100
3, 220416, Note_on_c, 1, 48, 100
3, 220604, Note_off_c, 1, 48, 100
3, 220608, Note_on_c, 1, 41, 110
3, 220672, Note_on_c, 1, 45, 110
3, 220732, Note_off_c, 1, 41, 100
3, 220736, Note_on_c, 1, 48, 110
3, 220796, Note_off_c, 1, 45, 100
3, 220796, Note_off_c, 1, 48, 100
3, 220800, Note_on_c, 1, 53, 110
3, 220988, Note_off_c, 1, 53, 100
3, 220992, Note_on_c, 1, 55, 100
3, 221180, Note_off_c, 1, 55, 100
3, 221184, Note_on_c, 1, 57, 100
3, 221372, Note_off_c, 1, 57, 100
3, 221376, Note_on_c, 1, 58, 100
3, 221564, Note_off_c, 1, 58, 100
3, 221568, Note_on_c, 1, 60, 100
3, 221756, Note_off_c, 1, 60, 100
3, 221760, Note_on_c, 1, 62, 100
3, 221948, Note_off_c, 1, 62, 100
3, 221952, Note_on_c, 1, 64, 100
3, 222140, Note_off_c, 1, 64, 100
3, 222144, Note_on_c, 1, 65, 100
3, 222332, Note_off_c, 1, 65, 100
3, 222336, Note_on_c, 1, 60, 100
3, 222908, Note_off_c, 1, 60, 100
3, 222912, Note_on_c, 1, 58, 100
3, 223100, Note_off_c, 1, 58, 100
3, 223104, Note_on_c, 1, 57, 100
3, 223292, Note_off_c, 1, 57, 100
3, 223296, Note_on_c, 1, 60, 100
3, 223484, Note_off_c, 1, 60, 100
3, 223488, Note_on_c, 1, 57, 100
3, 223676, Note_off_c, 1, 57, 100
3, 223680, Note_on_c, 1, 53, 100
3, 223868, Note_off_c, 1, 53, 100
3, 223872, Note_on_c, 1, 52, 100
3, 224060, Note_off_c, 1, 52, 100
3, 224064, Note_on_c, 1, 48, 100
3, 224252, Note_off_c, 1, 48, 100
3, 224256, Note_on_c, 1, 50, 100
3, 224444, Note_off_c, 1, 50, 100
3, 224448, Note_on_c, 1, 52, 100
3, 224636, Note_off_c, 1, 52, 100
3, 224640, Note_on_c, 1, 53, 100
3, 224828, Note_off_c, 1, 53, 100
3, 224832, Note_on_c, 1, 45, 100
3, 225020, Note_off_c, 1, 45, 100
3, 225024, Note_on_c, 1, 50, 100
3, 225212, Note_off_c, 1, 50, 100
3, 225216, Note_on_c, 1, 53, 100
3, 225404, Note_off_c, 1, 53, 100
3, 225408, Note_on_c, 1, 57, 110
3, 225980, Note_off_c, 1, 57, 100
3, 225984, Note_on_c, 1, 55, 100
3, 226172, Note_off_c, 1, 55, 100
3, 226176, Note_on_c, 1, 53, 100
3, 226364, Note_off_c, 1, 53, 100
3, 226368, Note_on_c, 1, 57, 100
3, 226556, Note_off_c, 1, 57, 100
3, 226560, Note_on_c, 1, 53, 100
3, 226748, Note_off_c, 1, 53, 100
3, 226752, Note_on_c, 1, 50, 100
3, 226940, Note_off_c, 1, 50, 100
3, 226944, Note_on_c, 1, 49, 100
3, 227132, Note_off_c, 1, 49, 100
3, 227136, Note_on_c, 1, 45, 100
3, 227324, Note_off_c, 1, 45, 100
3, 227328, Note_on_c, 1, 47, 100
3, 227516, Note_off_c, 1, 47, 100
3, 227520, Note_on_c, 1, 49, 100
3, 227708, Note_off_c, 1, 49, 100
3, 227712, Note_on_c, 1, 50, 100
3, 227900, Note_off_c, 1, 50, 100
3, 227904, Note_on_c, 1, 53, 100
3, 228092, Note_off_c, 1, 53, 100
3, 228096, Note_on_c, 1, 55, 100
3, 228284, Note_off_c, 1, 55, 100
3, 228288, Note_on_c, 1, 52, 100
3, 228476, Note_off_c, 1, 52, 100
3, 228480, Note_on_c, 1, 57, 100
3, 228668, Note_off_c, 1, 57, 100
3, 228672, Note_on_c, 1, 56, 100
3, 228860, Note_off_c, 1, 56, 100
3, 228864, Note_on_c, 1, 57, 100
3, 229052, Note_off_c, 1, 57, 100
3, 229440, Note_on_c, 1, 50, 110
3, 229504, Note_on_c, 1, 53, 110
3, 229564, Note_off_c, 1, 50, 100
3, 229568, Note_on_c, 1, 57, 110
3, 229628, Note_off_c, 1, 53, 100
3, 229632, Note_on_c, 1, 62, 110
3, 229692, Note_off_c, 1, 57, 100
3, 229820, Note_off_c, 1, 62, 100
3, 229824, Note_on_c, 1, 38, 110
3, 229888, Note_on_c, 1, 41, 110
3, 229948, Note_off_c, 1, 38, 100
3, 229952, Note_on_c, 1, 45, 110
3, 230012, Note_off_c, 1, 41, 100
3, 230012, Note_off_c, 1, 45, 100
3, 230016, Note_on_c, 1, 50, 110
3, 230204, Note_off_c, 1, 50, 100
3, 230208, Note_on_c, 1, 52, 110
3, 230396, Note_off_c, 1, 52, 100
3, 230400, Note_on_c, 1, 53, 110
3, 230588, Note_off_c, 1, 53, 100
3, 230976, Note_on_c, 1, 55, 110
3, 231040, Note_on_c, 1, 58, 110
3, 231100, Note_off_c, 1, 55, 100
3, 231104, Note_on_c, 1, 62, 110
3, 231164, Note_off_c, 1, 58, 100
3, 231168, Note_on_c, 1, 67, 110
3, 231228, Note_off_c, 1, 62, 100
3, 231356, Note_off_c, 1, 67, 100
3, 231360, Note_on_c, 1, 43, 110
3, 231424, Note_on_c, 1, 46, 110
3, 231484, Note_off_c, 1, 43, 100
3, 231488, Note_on_c, 1, 50, 110
3, 231548, Note_off_c, 1, 46, 100
3, 231548, Note_off_c, 1, 50, 100
3, 231552, Note_on_c, 1, 55, 110
3, 231740, Note_off_c, 1, 55, 100
3, 231744, Note_on_c, 1, 57, 110
3, 231932, Note_off_c, 1, 57, 100
3, 231936, Note_on_c, 1, 58, 110
3, 232124, Note_off_c, 1, 58, 100
3, 232512, Note_on_c, 1, 48, 110
3, 232576, Note_on_c, 1, 52, 110
3, 232636, Note_off_c, 1, 48, 100
3, 232640, Note_on_c, 1, 55, 110
3, 232700, Note_off_c, 1, 52, 100
3, 232704, Note_on_c, 1, 60, 110
3, 232764, Note_off_c, 1, 55, 100
3, 232892, Note_off_c, 1, 60, 100
3, 232896, Note_on_c, 1, 36, 110
3, 232960, Note_on_c, 1, 40, 110
3, 233020, Note_off_c, 1, 36, 100
3, 233024, Note_on_c, 1, 43, 110
3, 233084, Note_off_c, 1, 40, 100
3, 233084, Note_off_c, 1, 43, 100
3, 233088, Note_on_c, 1, 48, 110
3, 233276, Note_off_c, 1, 48, 100
3, 233280, Note_on_c, 1, 50, 110
3, 233468, Note_off_c, 1, 50, 100
3, 233472, Note_on_c, 1, 52, 110
3, 233660, Note_off_c, 1, 52, 100
3, 234048, Note_on_c, 1, 53, 110
3, 234112, Note_on_c, 1, 57, 110
3, 234172, Note_off_c, 1, 53, 100
3, 234176, Note_on_c, 1, 60, 110
3, 234236, Note_off_c, 1, 57, 100
3, 234240, Note_on_c, 1, 65, 110
3, 234300, Note_off_c, 1, 60, 100
3, 234428, Note_off_c, 1, 65, 100
3, 234432, Note_on_c, 1, 41, 110
3, 234496, Note_on_c, 1, 45, 110
3, 234556, Note_off_c, 1, 41, 100
3, 234560, Note_on_c, 1, 48, 110
3, 234620, Note_off_c, 1, 45, 100
3, 234620, Note_off_c, 1, 48, 100
3, 234624, Note_on_c, 1, 53, 110
3, 234812, Note_off_c, 1, 53, 100
3, 234816, Note_on_c, 1, 55, 110
3, 235004, Note_off_c, 1, 55, 100
3, 235008, Note_on_c, 1, 57, 110
3, 235196, Note_off_c, 1, 57, 100
3, 235392, Note_on_c, 1, 67, 80
3, 235580, Note_off_c, 1, 67, 100
3, 235584, Note_on_c, 1, 69, 80
3, 235772, Note_off_c, 1, 69, 100
3, 235776, Note_on_c, 1, 70, 80
3, 235964, Note_off_c, 1, 70, 100
3, 236160, Note_on_c, 1, 69, 80
3, 236348, Note_off_c, 1, 69, 100
3, 236352, Note_on_c, 1, 67, 80
3, 236540, Note_off_c, 1, 67, 100
3, 236544, Note_on_c, 1, 65, 80
3, 236732, Note_off_c, 1, 65, 100
3, 236928, Note_on_c, 1, 64, 80
3, 237116, Note_off_c, 1, 64, 100
3, 237120, Note_on_c, 1, 65, 80
3, 237308, Note_off_c, 1, 65, 100
3, 237312, Note_on_c, 1, 67, 80
3, 237500, Note_off_c, 1, 67, 100
3, 237888, Note_on_c, 1, 50, 110
3, 237952, Note_on_c, 1, 53, 110
3, 238012, Note_off_c, 1, 50, 100
3, 238016, Note_on_c, 1, 57, 110
3, 238076, Note_off_c, 1, 53, 100
3, 238080, Note_on_c, 1, 62, 110
3, 238140, Note_off_c, 1, 57, 100
3, 238268, Note_off_c, 1, 62, 100
3, 238272, Note_on_c, 1, 38, 110
3, 238336, Note_on_c, 1, 41, 110
3, 238396, Note_off_c, 1, 38, 100
3, 238400, Note_on_c, 1, 45, 110
3, 238460, Note_off_c, 1, 41, 100
3, 238460, Note_off_c, 1, 45, 100
3, 238464, Note_on_c, 1, 50, 110
3, 238652, Note_off_c, 1, 50, 100
3, 238656, Note_on_c, 1, 52, 110
3, 238844, Note_off_c, 1, 52, 100
3, 238848, Note_on_c, 1, 53, 110
3, 239036, Note_off_c, 1, 53, 100
3, 239232, Note_on_c, 1, 64, 80
3, 239420, Note_off_c, 1, 64, 100
3, 239424, Note_on_c, 1, 65, 80
3, 239612, Note_off_c, 1, 65, 100
3, 239616, Note_on_c, 1, 67, 80
3, 239804, Note_off_c, 1, 67, 100
3, 240000, Note_on_c, 1, 65, 80
3, 240188, Note_off_c, 1, 65, 100
3, 240192, Note_on_c, 1, 64, 80
3, 240380, Note_off_c, 1, 64, 100
3, 240384, Note_on_c, 1, 62, 80
3, 240572, Note_off_c, 1, 62, 100
3, 240768, Note_on_c, 1, 62, 80
3, 240956, Note_off_c, 1, 62, 100
3, 240960, Note_on_c, 1, 60, 80
3, 241148, Note_off_c, 1, 60, 100
3, 241152, Note_on_c, 1, 59, 80
3, 241340, Note_off_c, 1, 59, 100
3, 241728, Note_on_c, 1, 45, 110
3, 241792, Note_on_c, 1, 48, 110
3, 241852, Note_off_c, 1, 45, 100
3, 241856, Note_on_c, 1, 52, 110
3, 241916, Note_off_c, 1, 48, 100
3, 241920, Note_on_c, 1, 57, 110
3, 241980, Note_off_c, 1, 52, 100
3, 242108, Note_off_c, 1, 57, 100
3, 242112, Note_on_c, 1, 33, 110
3, 242176, Note_on_c, 1, 36, 110
3, 242236, Note_off_c, 1, 33, 100
3, 242240, Note_on_c, 1, 40, 110
3, 242300, Note_off_c, 1, 36, 100
3, 242300, Note_off_c, 1, 40, 100
3, 242304, Note_on_c, 1, 45, 110
3, 242492, Note_off_c, 1, 45, 100
3, 242496, Note_on_c, 1, 47, 110
3, 242684, Note_off_c, 1, 47, 100
3, 242688, Note_on_c, 1, 48, 110
3, 242876, Note_off_c, 1, 48, 100
3, 243072, Note_on_c, 1, 59, 80
3, 243260, Note_off_c, 1, 59, 100
3, 243264, Note_on_c, 1, 60, 80
3, 243452, Note_off_c, 1, 60, 100
3, 243456, Note_on_c, 1, 62, 80
3, 243644, Note_off_c, 1, 62, 100
3, 243840, Note_on_c, 1, 60, 80
3, 244028, Note_off_c, 1, 60, 100
3, 244032, Note_on_c, 1, 59, 80
3, 244220, Note_off_c, 1, 59, 100
3, 244224, Note_on_c, 1, 57, 80
3, 244412, Note_off_c, 1, 57, 100
3, 244608, Note_on_c, 1, 57, 80
3, 244796, Note_off_c, 1, 57, 100
3, 244800, Note_on_c, 1, 56, 80
3, 244988, Note_off_c, 1, 56, 100
3, 244992, Note_on_c, 1, 54, 80
3, 245180, Note_off_c, 1, 54, 100
3, 245568, Note_on_c, 1, 40, 110
3, 245632, Note_on_c, 1, 44, 110
3, 245692, Note_off_c, 1, 40, 100
3, 245696, Note_on_c, 1, 47, 110
3, 245756, Note_off_c, 1, 44, 100
3, 245756, Note_off_c, 1, 47, 100
3, 245760, Note_on_c, 1, 52, 110
3, 246908, Note_off_c, 1, 52, 100
3, 247104, Note_on_c, 1, 40, 110
3, 247168, Note_on_c, 1, 45, 110
3, 247228, Note_off_c, 1, 40, 100
3, 247232, Note_on_c, 1, 48, 110
3, 247292, Note_off_c, 1, 45, 100
3, 247292, Note_off_c, 1, 48, 100
3, 247296, Note_on_c, 1, 52, 110
3, 248444, Note_off_c, 1, 52, 100
3, 248640, Note_on_c, 1, 40, 110
3, 248704, Note_on_c, 1, 44, 110
3, 248764, Note_off_c, 1, 40, 100
3, 248768, Note_on_c, 1, 47, 110
3, 248828, Note_off_c, 1, 44, 100
3, 248828, Note_off_c, 1, 47, 100
3, 248832, Note_on_c, 1, 52, 110
3, 249980, Note_off_c, 1, 52, 100
3, 250176, Note_on_c, 1, 40, 110
3, 250240, Note_on_c, 1, 45, 110
3, 250300, Note_off_c, 1, 40, 100
3, 250304, Note_on_c, 1, 48, 110
3, 250364, Note_off_c, 1, 45, 100
3, 250364, Note_off_c, 1, 48, 100
3, 250368, Note_on_c, 1, 52, 110
3, 251516, Note_off_c, 1, 52, 100
3, 251712, Note_on_c, 1, 40, 120
3, 251900, Note_off_c, 1, 40, 100
3, 251904, Note_on_c, 1, 44, 120
3, 252092, Note_off_c, 1, 44, 100
3, 252096, Note_on_c, 1, 47, 120
3, 252284, Note_off_c, 1, 47, 100
3, 252288, Note_on_c, 1, 49, 120
3, 252476, Note_off_c, 1, 49, 100
3, 252480, Note_on_c, 1, 51, 120
3, 252668, Note_off_c, 1, 51, 100
3, 252672, Note_on_c, 1, 52, 120
3, 252860, Note_off_c, 1, 52, 100
3, 252864, Note_on_c, 1, 40, 120
3, 253052, Note_off_c, 1, 40, 100
3, 253248, Note_on_c, 1, 42, 120
3, 253436, Note_off_c, 1, 42, 100
3, 253440, Note_on_c, 1, 45, 120
3, 253628, Note_off_c, 1, 45, 100
3, 253632, Note_on_c, 1, 49, 120
3, 253820, Note_off_c, 1, 49, 100
3, 253824, Note_on_c, 1, 50, 120
3, 254012, Note_off_c, 1, 50, 100
3, 254016, Note_on_c, 1, 52, 120
3, 254204, Note_off_c, 1, 52, 100
3, 254208, Note_on_c, 1, 54, 120
3, 254396, Note_off_c, 1, 54, 100
3, 254400, Note_on_c, 1, 42, 120
3, 254588, Note_off_c, 1, 42, 100
3, 254784, Note_on_c, 1, 44, 120
3, 254972, Note_off_c, 1, 44, 100
3, 254976, Note_on_c, 1, 47, 120
3, 255164, Note_off_c, 1, 47, 100
3, 255168, Note_on_c, 1, 51, 120
3, 255356, Note_off_c, 1, 51, 100
3, 255360, Note_on_c, 1, 52, 120
3, 255548, Note_off_c, 1, 52, 100
3, 255552, Note_on_c, 1, 54, 120
3, 255740, Note_off_c, 1, 54, 100
3, 255744, Note_on_c, 1, 56, 120
3, 255932, Note_off_c, 1, 56, 100
3, 255936, Note_on_c, 1, 57, 120
3, 256124, Note_off_c, 1, 57, 100
3, 256128, Note_on_c, 1, 59, 120
3, 256316, Note_off_c, 1, 59, 100
3, 256320, Note_on_c, 1, 57, 120
3, 256508, Note_off_c, 1, 57, 100
3, 256512, Note_on_c, 1, 56, 120
3, 256700, Note_off_c, 1, 56, 100
3, 256704, Note_on_c, 1, 54, 120
3, 256892, Note_off_c, 1, 54, 100
3, 256896, Note_on_c, 1, 52, 80
3, 257276, Note_off_c, 1, 52, 100
3, 257664, Note_on_c, 1, 52, 80
3, 257852, Note_off_c, 1, 52, 100
3, 257856, Note_on_c, 1, 54, 80
3, 258044, Note_off_c, 1, 54, 100
3, 258048, Note_on_c, 1, 56, 80
3, 258236, Note_off_c, 1, 56, 100
3, 258240, Note_on_c, 1, 57, 80
3, 258428, Note_off_c, 1, 57, 100
3, 258432, Note_on_c, 1, 59, 80
3, 258812, Note_off_c, 1, 59, 100
3, 259200, Note_on_c, 1, 56, 70
3, 259200, Note_on_c, 1, 52, 70
3, 259388, Note_off_c, 1, 56, 100
3, 259388, Note_off_c, 1, 52, 100
3, 259968, Note_on_c, 1, 54, 70
3, 259968, Note_on_c, 1, 57, 70
3, 260156, Note_off_c, 1, 54, 100
3, 260156, Note_off_c, 1, 57, 100
3, 260736, Note_on_c, 1, 59, 70
3, 260736, Note_on_c, 1, 50, 70
3, 260924, Note_off_c, 1, 59, 100
3, 260924, Note_off_c, 1, 50, 100
3, 261504, Note_on_c, 1, 59, 70
3, 261504, Note_on_c, 1, 52, 70
3, 261884, Note_off_c, 1, 59, 100
3, 261884, Note_off_c, 1, 52, 100
3, 262272, Key_signature, 3, "major"
3, 262848, Note_on_c, 1, 57, 100
3, 263036, Note_off_c, 1, 57, 100
3, 263040, Note_on_c, 1, 52, 100
3, 263420, Note_off_c, 1, 52, 100
3, 263616, Note_on_c, 1, 52, 100
3, 263660, Note_off_c, 1, 52, 100
3, 263664, Note_on_c, 1, 50, 100
3, 263708, Note_off_c, 1, 50, 100
3, 263712, Note_on_c, 1, 49, 100
3, 263756, Note_off_c, 1, 49, 100
3, 263760, Note_on_c, 1, 47, 100
3, 263804, Note_off_c, 1, 47, 100
3, 263808, Note_on_c, 1, 45, 100
3, 264188, Note_off_c, 1, 45, 100
3, 264384, Note_on_c, 1, 57, 100
3, 264572, Note_off_c, 1, 57, 100
3, 264576, Note_on_c, 1, 54, 100
3, 264956, Note_off_c, 1, 54, 100
3, 265152, Note_on_c, 1, 54, 100
3, 265196, Note_off_c, 1, 54, 100
3, 265200, Note_on_c, 1, 52, 100
3, 265244, Note_off_c, 1, 52, 100
3, 265248, Note_on_c, 1, 50, 100
3, 265292, Note_off_c, 1, 50, 100
3, 265296, Note_on_c, 1, 49, 100
3, 265340, Note_off_c, 1, 49, 100
3, 265344, Note_on_c, 1, 47, 100
3, 265724, Note_off_c, 1, 47, 100
3, 265920, Note_on_c, 1, 62, 110
3, 266108, Note_off_c, 1, 62, 100
3, 266112, Note_on_c, 1, 59, 110
3, 266492, Note_off_c, 1, 59, 100
3, 266496, Note_on_c, 1, 56, 110
3, 266876, Note_off_c, 1, 56, 100
3, 266880, Note_on_c, 1, 52, 110
3, 267260, Note_off_c, 1, 52, 100
3, 267264, Note_on_c, 1, 50, 80
3, 267644, Note_off_c, 1, 50, 100
3, 267648, Note_on_c, 1, 47, 80
3, 268028, Note_off_c, 1, 47, 100
3, 268032, Note_on_c, 1, 44, 80
3, 268412, Note_off_c, 1, 44, 100
3, 268416, Note_on_c, 1, 40, 80
3, 268796, Note_off_c, 1, 40, 100
3, 269184, Note_on_c, 1, 45, 110
3, 269248, Note_on_c, 1, 49, 80
3, 269312, Note_on_c, 1, 52, 80
3, 269376, Note_on_c, 1, 57, 80
3, 269436, Note_off_c, 1, 57, 100
3, 269564, Note_off_c, 1, 45, 100
3, 269564, Note_off_c, 1, 49, 100
3, 269564, Note_off_c, 1, 52, 100
3, 270912, Note_on_c, 1, 52, 80
3, 271100, Note_off_c, 1, 52, 100
3, 271104, Note_on_c, 1, 54, 80
3, 271292, Note_off_c, 1, 54, 100
3, 271296, Note_on_c, 1, 56, 80
3, 271484, Note_off_c, 1, 56, 100
3, 271488, Note_on_c, 1, 57, 80
3, 271676, Note_off_c, 1, 57, 100
3, 271680, Note_on_c, 1, 45, 80
3, 271868, Note_off_c, 1, 45, 100
3, 271872, Note_on_c, 1, 49, 80
3, 272060, Note_off_c, 1, 49, 100
3, 272064, Note_on_c, 1, 50, 80
3, 272252, Note_off_c, 1, 50, 100
3, 272256, Note_on_c, 1, 52, 80
3, 272828, Note_off_c, 1, 52, 100
3, 272832, Note_on_c, 1, 50, 80
3, 273020, Note_off_c, 1, 50, 100
3, 273024, Note_on_c, 1, 49, 80
3, 273212, Note_off_c, 1, 49, 100
3, 273216, Note_on_c, 1, 52, 80
3, 273404, Note_off_c, 1, 52, 100
3, 273408, Note_on_c, 1, 49, 80
3, 273596, Note_off_c, 1, 49, 100
3, 273600, Note_on_c, 1, 45, 80
3, 273788, Note_off_c, 1, 45, 100
3, 273792, Note_on_c, 1, 44, 80
3, 273980, Note_off_c, 1, 44, 100
3, 273984, Note_on_c, 1, 40, 80
3, 274172, Note_off_c, 1, 40, 100
3, 274176, Note_on_c, 1, 42, 80
3, 274364, Note_off_c, 1, 42, 100
3, 274368, Note_on_c, 1, 44, 80
3, 274556, Note_off_c, 1, 44, 100
3, 274560, Note_on_c, 1, 45, 80
3, 274748, Note_off_c, 1, 45, 100
3, 274752, Note_on_c, 1, 44, 80
3, 274940, Note_off_c, 1, 44, 100
3, 274944, Note_on_c, 1, 42, 80
3, 275132, Note_off_c, 1, 42, 100
3, 275136, Note_on_c, 1, 47, 80
3, 275324, Note_off_c, 1, 47, 100
3, 275328, Note_on_c, 1, 52, 70
3, 275328, Note_on_c, 1, 40, 70
3, 275516, Note_off_c, 1, 52, 100
3, 275520, Note_on_c, 1, 47, 70
3, 275708, Note_off_c, 1, 47, 100
3, 275712, Note_on_c, 1, 54, 70
3, 275900, Note_off_c, 1, 54, 100
3, 275904, Note_on_c, 1, 47, 70
3, 276092, Note_off_c, 1, 40, 100
3, 276092, Note_off_c, 1, 47, 100
3, 276096, Note_on_c, 1, 52, 70
3, 276096, Note_on_c, 1, 40, 70
3, 276284, Note_off_c, 1, 52, 100
3, 276288, Note_on_c, 1, 47, 70
3, 276476, Note_off_c, 1, 47, 100
3, 276480, Note_on_c, 1, 54, 70
3, 276668, Note_off_c, 1, 54, 100
3, 276672, Note_on_c, 1, 47, 70
3, 276860, Note_off_c, 1, 40, 100
3, 276860, Note_off_c, 1, 47, 100
3, 276864, Note_on_c, 1, 52, 70
3, 276864, Note_on_c, 1, 40, 70
3, 277244, Note_off_c, 1, 52, 100
3, 277244, Note_off_c, 1, 40, 100
3, 278016, Note_on_c, 1, 52, 70
3, 278016, Note_on_c, 1, 40, 70
3, 278204, Note_off_c, 1, 52, 100
3, 278208, Note_on_c, 1, 44, 70
3, 278396, Note_off_c, 1, 40, 100
3, 278396, Note_off_c, 1, 44, 100
3, 278400, Note_on_c, 1, 38, 70
3, 278400, Note_on_c, 1, 50, 70
3, 278588, Note_off_c, 1, 50, 100
3, 278592, Note_on_c, 1, 45, 70
3, 278780, Note_off_c, 1, 45, 100
3, 278784, Note_on_c, 1, 52, 70
3, 278972, Note_off_c, 1, 52, 100
3, 278976, Note_on_c, 1, 45, 70
3, 279164, Note_off_c, 1, 38, 100
3, 279164, Note_off_c, 1, 45, 100
3, 279168, Note_on_c, 1, 38, 70
3, 279168, Note_on_c, 1, 50, 70
3, 279356, Note_off_c, 1, 50, 100
3, 279360, Note_on_c, 1, 45, 70
3, 279548, Note_off_c, 1, 45, 100
3, 279552, Note_on_c, 1, 52, 70
3, 279740, Note_off_c, 1, 52, 100
3, 279744, Note_on_c, 1, 45, 70
3, 279932, Note_off_c, 1, 38, 100
3, 279932, Note_off_c, 1, 45, 100
3, 279936, Note_on_c, 1, 50, 70
3, 279936, Note_on_c, 1, 38, 70
3, 280316, Note_off_c, 1, 50, 100
3, 280316, Note_off_c, 1, 38, 100
3, 281088, Note_on_c, 1, 59, 120
3, 281088, Note_on_c, 1, 47, 120
3, 281276, Note_off_c, 1, 59, 100
3, 281280, Note_on_c, 1, 52, 120
3, 281468, Note_off_c, 1, 47, 100
3, 281468, Note_off_c, 1, 52, 100
3, 281472, Note_on_c, 1, 57, 120
3, 281472, Note_on_c, 1, 45, 120
3, 281660, Note_off_c, 1, 57, 100
3, 281664, Note_on_c, 1, 52, 120
3, 281852, Note_off_c, 1, 45, 100
3, 281852, Note_off_c, 1, 52, 100
3, 281856, Note_on_c, 1, 59, 120
3, 281856, Note_on_c, 1, 47, 120
3, 282044, Note_off_c, 1, 59, 100
3, 282048, Note_on_c, 1, 52, 120
3, 282236, Note_off_c, 1, 47, 100
3, 282236, Note_off_c, 1, 52, 100
3, 282240, Note_on_c, 1, 57, 120
3, 282240, Note_on_c, 1, 45, 120
3, 282428, Note_off_c, 1, 57, 100
3, 282432, Note_on_c, 1, 52, 120
3, 282620, Note_off_c, 1, 45, 100
3, 282620, Note_off_c, 1, 52, 100
3, 282624, Note_on_c, 1, 59, 120
3, 282624, Note_on_c, 1, 47, 120
3, 282812, Note_off_c, 1, 59, 100
3, 282816, Note_on_c, 1, 52, 120
3, 283004, Note_off_c, 1, 47, 100
3, 283004, Note_off_c, 1, 52, 100
3, 283008, Note_on_c, 1, 45, 110
3, 283072, Note_on_c, 1, 49, 110
3, 283132, Note_off_c, 1, 45, 100
3, 283136, Note_on_c, 1, 50, 110
3, 283196, Note_off_c, 1, 49, 100
3, 283200, Note_on_c, 1, 52, 110
3, 283260, Note_off_c, 1, 50, 100
3, 283264, Note_on_c, 1, 54, 110
3, 283324, Note_off_c, 1, 52, 100
3, 283328, Note_on_c, 1, 56, 110
3, 283388, Note_off_c, 1, 54, 100
3, 283392, Note_on_c, 1, 57, 110
3, 283452, Note_off_c, 1, 56, 100
3, 283456, Note_on_c, 1, 61, 110
3, 283516, Note_off_c, 1, 57, 100
3, 283520, Note_on_c, 1, 62, 110
3, 283580, Note_off_c, 1, 61, 100
3, 283584, Note_on_c, 1, 64, 110
3, 283644, Note_off_c, 1, 62, 100
3, 283648, Note_on_c, 1, 66, 110
3, 283708, Note_off_c, 1, 64, 100
3, 283712, Note_on_c, 1, 68, 110
3, 283772, Note_off_c, 1, 66, 100
3, 283772, Note_off_c, 1, 68, 100
3, 283776, Note_on_c, 1, 69, 110
3, 283964, Note_off_c, 1, 69, 100
3, 283968, Note_on_c, 1, 68, 110
3, 284156, Note_off_c, 1, 68, 100
3, 284160, Note_on_c, 1, 66, 110
3, 284348, Note_off_c, 1, 66, 100
3, 284352, Note_on_c, 1, 64, 110
3, 284540, Note_off_c, 1, 64, 100
3, 284544, Note_on_c, 1, 62, 110
3, 284732, Note_off_c, 1, 62, 100
3, 284736, Note_on_c, 1, 61, 110
3, 284924, Note_off_c, 1, 61, 100
3, 284928, Note_on_c, 1, 59, 110
3, 285116, Note_off_c, 1, 59, 100
3, 285120, Note_on_c, 1, 57, 110
3, 285308, Note_off_c, 1, 57, 100
3, 285312, Note_on_c, 1, 56, 110
3, 285500, Note_off_c, 1, 56, 100
3, 285504, Note_on_c, 1, 52, 110
3, 285692, Note_off_c, 1, 52, 100
3, 285696, Note_on_c, 1, 54, 110
3, 285884, Note_off_c, 1, 54, 100
3, 285888, Note_on_c, 1, 56, 110
3, 286076, Note_off_c, 1, 56, 100
3, 286080, Note_on_c, 1, 45, 110
3, 286144, Note_on_c, 1, 49, 110
3, 286204, Note_off_c, 1, 45, 100
3, 286208, Note_on_c, 1, 50, 110
3, 286268, Note_off_c, 1, 49, 100
3, 286272, Note_on_c, 1, 52, 110
3, 286332, Note_off_c, 1, 50, 100
3, 286336, Note_on_c, 1, 54, 110
3, 286396, Note_off_c, 1, 52, 100
3, 286400, Note_on_c, 1, 56, 110
3, 286460, Note_off_c, 1, 54, 100
3, 286464, Note_on_c, 1, 57, 110
3, 286524, Note_off_c, 1, 56, 100
3, 286528, Note_on_c, 1, 61, 110
3, 286588, Note_off_c, 1, 57, 100
3, 286592, Note_on_c, 1, 62, 110
3, 286652, Note_off_c, 1, 61, 100
3, 286656, Note_on_c, 1, 64, 110
3, 286716, Note_off_c, 1, 62, 100
3, 286720, Note_on_c, 1, 66, 110
3, 286780, Note_off_c, 1, 64, 100
3, 286784, Note_on_c, 1, 68, 110
3, 286844, Note_off_c, 1, 66, 100
3, 286844, Note_off_c, 1, 68, 100
3, 286848, Note_on_c, 1, 69, 110
3, 287036, Note_off_c, 1, 69, 100
3, 287040, Note_on_c, 1, 68, 110
3, 287228, Note_off_c, 1, 68, 100
3, 287232, Note_on_c, 1, 66, 110
3, 287420, Note_off_c, 1, 66, 100
3, 287424, Note_on_c, 1, 64, 110
3, 287612, Note_off_c, 1, 64, 100
3, 287616, Note_on_c, 1, 62, 110
3, 287804, Note_off_c, 1, 62, 100
3, 287808, Note_on_c, 1, 61, 112
3, 287996, Note_off_c, 1, 61, 100
3, 288000, Note_on_c, 1, 59, 115
3, 288188, Note_off_c, 1, 59, 100
3, 288192, Note_on_c, 1, 57, 117
3, 288380, Note_off_c, 1, 57, 100
3, 288384, Note_on_c, 1, 56, 120
3, 288572, Note_off_c, 1, 56, 100
3, 288576, Note_on_c, 1, 54, 120
3, 288764, Note_off_c, 1, 54, 100
3, 288768, Note_on_c, 1, 52, 120
3, 288956, Note_off_c, 1, 52, 100
3, 288960, Note_on_c, 1, 50, 120
3, 289148, Note_off_c, 1, 50, 100
3, 289152, Note_on_c, 1, 49, 120
3, 289340, Note_off_c, 1, 49, 100
3, 289344, Note_on_c, 1, 47, 120
3, 289532, Note_off_c, 1, 47, 100
3, 289536, Note_on_c, 1, 45, 120
3, 289724, Note_off_c, 1, 45, 100
3, 289728, Note_on_c, 1, 44, 120
3, 289916, Note_off_c, 1, 44, 100
3, 289920, Note_on_c, 1, 42, 120
3, 290108, Note_off_c, 1, 42, 100
3, 290112, Note_on_c, 1, 40, 120
3, 290300, Note_off_c, 1, 40, 100
3, 290304, Note_on_c, 1, 39, 120
3, 290492, Note_off_c, 1, 39, 100
3, 290496, Note_on_c, 1, 36, 120
3, 290684, Note_off_c, 1, 36, 100
3, 290688, Note_on_c, 1, 40, 100
3, 293948, Note_off_c, 1, 40, 100
3, 293952, Note_on_c, 1, 44, 100
3, 294140, Note_off_c, 1, 44, 100
3, 294144, Note_on_c, 1, 47, 100
3, 294332, Note_off_c, 1, 47, 100
3, 294336, Note_on_c, 1, 51, 100
3, 294524, Note_off_c, 1, 51, 100
3, 294528, Note_on_c, 1, 52, 100
3, 294716, Note_off_c, 1, 52, 100
3, 294720, Note_on_c, 1, 56, 100
3, 294908, Note_off_c, 1, 56, 100
3, 294912, Note_on_c, 1, 59, 100
3, 295100, Note_off_c, 1, 59, 100
3, 295104, Note_on_c, 1, 63, 100
3, 295292, Note_off_c, 1, 63, 100
3, 295296, Note_on_c, 1, 64, 100
3, 295484, Note_off_c, 1, 64, 100
3, 295488, Note_on_c, 1, 63, 100
3, 295676, Note_off_c, 1, 63, 100
3, 295680, Note_on_c, 1, 64, 100
3, 295868, Note_off_c, 1, 64, 100
3, 296832, Note_on_c, 1, 62, 100
3, 297020, Note_off_c, 1, 62, 100
3, 297024, Note_on_c, 1, 61, 100
3, 297212, Note_off_c, 1, 61, 100
3, 297216, Note_on_c, 1, 62, 100
3, 297404, Note_off_c, 1, 62, 100
3, 298368, Note_on_c, 1, 60, 100
3, 298556, Note_off_c, 1, 60, 100
3, 298560, Note_on_c, 1, 59, 100
3, 298748, Note_off_c, 1, 59, 100
3, 298752, Note_on_c, 1, 60, 100
3, 298940, Note_off_c, 1, 60, 100
3, 299904, Note_on_c, 1, 56, 100
3, 300096, Note_on_c, 1, 59, 100
3, 300288, Note_on_c, 1, 62, 100
3, 300480, Note_on_c, 1, 64, 100
3, 300668, Note_off_c, 1, 64, 100
3, 300672, Note_on_c, 1, 65, 116
3, 302204, Note_off_c, 1, 62, 100
3, 302204, Note_off_c, 1, 65, 100
3, 302208, Note_on_c, 1, 64, 100
3, 302588, Note_off_c, 1, 64, 100
3, 302592, Note_on_c, 1, 62, 100
3, 302972, Note_off_c, 1, 56, 100
3, 302972, Note_off_c, 1, 59, 100
3, 302972, Note_off_c, 1, 62, 100
3, 302976, Note_on_c, 1, 57, 100
3, 302976, Note_on_c, 1, 60, 100
3, 303068, Note_off_c, 1, 57, 100
3, 303068, Note_off_c, 1, 60, 100
3, 303072, Note_on_c, 1, 64, 100
3, 303164, Note_off_c, 1, 64, 100
3, 303168, Note_on_c, 1, 57, 100
3, 303168, Note_on_c, 1, 60, 100
3, 303260, Note_off_c, 1, 57, 100
3, 303260, Note_off_c, 1, 60, 100
3, 303264, Note_on_c, 1, 64, 100
3, 303356, Note_off_c, 1, 64, 100
3, 303360, Note_on_c, 1, 57, 100
3, 303360, Note_on_c, 1, 60, 100
3, 303452, Note_off_c, 1, 57, 100
3, 303452, Note_off_c, 1, 60, 100
3, 303456, Note_on_c, 1, 64, 100
3, 303548, Note_off_c, 1, 64, 100
3, 303552, Note_on_c, 1, 57, 100
3, 303552, Note_on_c, 1, 60, 100
3, 303644, Note_off_c, 1, 57, 100
3, 303644, Note_off_c, 1, 60, 100
3, 303648, Note_on_c, 1, 64, 100
3, 303740, Note_off_c, 1, 64, 100
3, 303744, Note_on_c, 1, 57, 100
3, 303744, Note_on_c, 1, 60, 100
3, 303836, Note_off_c, 1, 57, 100
3, 303836, Note_off_c, 1, 60, 100
3, 303840, Note_on_c, 1, 64, 100
3, 303932, Note_off_c, 1, 64, 100
3, 303936, Note_on_c, 1, 57, 100
3, 303936, Note_on_c, 1, 60, 100
3, 304028, Note_off_c, 1, 57, 100
3, 304028, Note_off_c, 1, 60, 100
3, 304032, Note_on_c, 1, 64, 100
3, 304124, Note_off_c, 1, 64, 100
3, 304128, Note_on_c, 1, 57, 100
3, 304128, Note_on_c, 1, 60, 100
3, 304220, Note_off_c, 1, 57, 100
3, 304220, Note_off_c, 1, 60, 100
3, 304224, Note_on_c, 1, 64, 100
3, 304316, Note_off_c, 1, 64, 100
3, 304320, Note_on_c, 1, 57, 100
3, 304320, Note_on_c, 1, 60, 100
3, 304412, Note_off_c, 1, 57, 100
3, 304412, Note_off_c, 1, 60, 100
3, 304416, Note_on_c, 1, 64, 100
3, 304508, Note_off_c, 1, 64, 100
3, 304512, Note_on_c, 1, 59, 100
3, 304512, Note_on_c, 1, 62, 100
3, 304604, Note_off_c, 1, 59, 100
3, 304604, Note_off_c, 1, 62, 100
3, 304608, Note_on_c, 1, 64, 100
3, 304700, Note_off_c, 1, 64, 100
3, 304704, Note_on_c, 1, 59, 100
3, 304704, Note_on_c, 1, 62, 100
3, 304796, Note_off_c, 1, 59, 100
3, 304796, Note_off_c, 1, 62, 100
3, 304800, Note_on_c, 1, 65, 100
3, 304892, Note_off_c, 1, 65, 100
3, 304896, Note_on_c, 1, 59, 100
3, 304896, Note_on_c, 1, 62, 100
3, 304988, Note_off_c, 1, 59, 100
3, 304988, Note_off_c, 1, 62, 100
3, 304992, Note_on_c, 1, 65, 100
3, 305084, Note_off_c, 1, 65, 100
3, 305088, Note_on_c, 1, 59, 100
3, 305088, Note_on_c, 1, 62, 100
3, 305180, Note_off_c, 1, 59, 100
3, 305180, Note_off_c, 1, 62, 100
3, 305184, Note_on_c, 1, 65, 100
3, 305276, Note_off_c, 1, 65, 100
3, 305280, Note_on_c, 1, 59, 100
3, 305280, Note_on_c, 1, 62, 100
3, 305372, Note_off_c, 1, 59, 100
3, 305372, Note_off_c, 1, 62, 100
3, 305376, Note_on_c, 1, 65, 100
3, 305468, Note_off_c, 1, 65, 100
3, 305472, Note_on_c, 1, 59, 100
3, 305472, Note_on_c, 1, 62, 100
3, 305564, Note_off_c, 1, 59, 100
3, 305564, Note_off_c, 1, 62, 100
3, 305568, Note_on_c, 1, 65, 100
3, 305660, Note_off_c, 1, 65, 100
3, 305664, Note_on_c, 1, 59, 100
3, 305664, Note_on_c, 1, 62, 100
3, 305756, Note_off_c, 1, 59, 100
3, 305756, Note_off_c, 1, 62, 100
3, 305760, Note_on_c, 1, 65, 100
3, 305852, Note_off_c, 1, 65, 100
3, 305856, Note_on_c, 1, 59, 100
3, 305856, Note_on_c, 1, 62, 100
3, 305948, Note_off_c, 1, 59, 100
3, 305948, Note_off_c, 1, 62, 100
3, 305952, Note_on_c, 1, 65, 100
3, 306044, Note_off_c, 1, 65, 100
3, 306048, Note_on_c, 1, 60, 100
3, 306048, Note_on_c, 1, 64, 100
3, 306140, Note_off_c, 1, 60, 100
3, 306140, Note_off_c, 1, 64, 100
3, 306144, Note_on_c, 1, 67, 100
3, 306236, Note_off_c, 1, 67, 100
3, 306240, Note_on_c, 1, 60, 100
3, 306240, Note_on_c, 1, 64, 100
3, 306332, Note_off_c, 1, 60, 100
3, 306332, Note_off_c, 1, 64, 100
3, 306336, Note_on_c, 1, 67, 100
3, 306428, Note_off_c, 1, 67, 100
3, 306432, Note_on_c, 1, 60, 100
3, 306432, Note_on_c, 1, 64, 100
3, 306524, Note_off_c, 1, 60, 100
3, 306524, Note_off_c, 1, 64, 100
3, 306528, Note_on_c, 1, 67, 100
3, 306620, Note_off_c, 1, 67, 100
3, 306624, Note_on_c, 1, 60, 100
3, 306624, Note_on_c, 1, 64, 100
3, 306716, Note_off_c, 1, 60, 100
3, 306716, Note_off_c, 1, 64, 100
3, 306720, Note_on_c, 1, 67, 100
3, 306812, Note_off_c, 1, 67, 100
3, 306816, Note_on_c, 1, 60, 100
3, 306816, Note_on_c, 1, 64, 100
3, 306908, Note_off_c, 1, 60, 100
3, 306908, Note_off_c, 1, 64, 100
3, 306912, Note_on_c, 1, 67, 100
3, 307004, Note_off_c, 1, 67, 100
3, 307008, Note_on_c, 1, 60, 100
3, 307008, Note_on_c, 1, 64, 100
3, 307100, Note_off_c, 1, 60, 100
3, 307100, Note_off_c, 1, 64, 100
3, 307104, Note_on_c, 1, 67, 100
3, 307196, Note_off_c, 1, 67, 100
3, 307200, Note_on_c, 1, 60, 100
3, 307200, Note_on_c, 1, 64, 100
3, 307292, Note_off_c, 1, 60, 100
3, 307292, Note_off_c, 1, 64, 100
3, 307296, Note_on_c, 1, 67, 100
3, 307388, Note_off_c, 1, 67, 100
3, 307392, Note_on_c, 1, 60, 100
3, 307392, Note_on_c, 1, 64, 100
3, 307484, Note_off_c, 1, 60, 100
3, 307484, Note_off_c, 1, 64, 100
3, 307488, Note_on_c, 1, 67, 100
3, 307580, Note_off_c, 1, 67, 100
3, 307584, Note_on_c, 1, 62, 100
3, 307584, Note_on_c, 1, 65, 100
3, 307676, Note_off_c, 1, 62, 100
3, 307676, Note_off_c, 1, 65, 100
3, 307680, Note_on_c, 1, 67, 100
3, 307772, Note_off_c, 1, 67, 100
3, 307776, Note_on_c, 1, 62, 100
3, 307776, Note_on_c, 1, 65, 100
3, 307868, Note_off_c, 1, 62, 100
3, 307868, Note_off_c, 1, 65, 100
3, 307872, Note_on_c, 1, 68, 100
3, 307964, Note_off_c, 1, 68, 100
3, 307968, Note_on_c, 1, 62, 100
3, 307968, Note_on_c, 1, 65, 100
3, 308060, Note_off_c, 1, 62, 100
3, 308060, Note_off_c, 1, 65, 100
3, 308064, Note_on_c, 1, 68, 100
3, 308156, Note_off_c, 1, 68, 100
3, 308160, Note_on_c, 1, 62, 100
3, 308160, Note_on_c, 1, 65, 100
3, 308252, Note_off_c, 1, 62, 100
3, 308252, Note_off_c, 1, 65, 100
3, 308256, Note_on_c, 1, 68, 100
3, 308348, Note_off_c, 1, 68, 100
3, 308352, Note_on_c, 1, 62, 100
3, 308352, Note_on_c, 1, 65, 100
3, 308444, Note_off_c, 1, 62, 100
3, 308444, Note_off_c, 1, 65, 100
3, 308448, Note_on_c, 1, 68, 100
3, 308540, Note_off_c, 1, 68, 100
3, 308544, Note_on_c, 1, 62, 100
3, 308544, Note_on_c, 1, 65, 100
3, 308636, Note_off_c, 1, 62, 100
3, 308636, Note_off_c, 1, 65, 100
3, 308640, Note_on_c, 1, 68, 100
3, 308732, Note_off_c, 1, 68, 100
3, 308736, Note_on_c, 1, 62, 100
3, 308736, Note_on_c, 1, 65, 100
3, 308828, Note_off_c, 1, 62, 100
3, 308828, Note_off_c, 1, 65, 100
3, 308832, Note_on_c, 1, 68, 100
3, 308924, Note_off_c, 1, 68, 100
3, 308928, Note_on_c, 1, 62, 100
3, 308928, Note_on_c, 1, 65, 100
3, 309020, Note_off_c, 1, 62, 100
3, 309020, Note_off_c, 1, 65, 100
3, 309024, Note_on_c, 1, 68, 100
3, 309116, Note_off_c, 1, 68, 100
3, 309120, Note_on_c, 1, 63, 100
3, 309212, Note_off_c, 1, 63, 100
3, 309216, Note_on_c, 1, 67, 100
3, 309308, Note_off_c, 1, 67, 100
3, 309312, Note_on_c, 1, 55, 100
3, 309312, Note_on_c, 1, 51, 100
3, 309404, Note_off_c, 1, 55, 100
3, 309404, Note_off_c, 1, 51, 100
3, 309408, Note_on_c, 1, 58, 100
3, 309500, Note_off_c, 1, 58, 100
3, 309504, Note_on_c, 1, 51, 100
3, 309504, Note_on_c, 1, 55, 100
3, 309596, Note_off_c, 1, 51, 100
3, 309596, Note_off_c, 1, 55, 100
3, 309600, Note_on_c, 1, 58, 100
3, 309692, Note_off_c, 1, 58, 100
3, 309696, Note_on_c, 1, 51, 100
3, 309696, Note_on_c, 1, 55, 100
3, 309788, Note_off_c, 1, 51, 100
3, 309788, Note_off_c, 1, 55, 100
3, 309792, Note_on_c, 1, 58, 100
3, 309884, Note_off_c, 1, 58, 100
3, 309888, Note_on_c, 1, 51, 100
3, 309888, Note_on_c, 1, 55, 100
3, 309980, Note_off_c, 1, 51, 100
3, 309980, Note_off_c, 1, 55, 100
3, 309984, Note_on_c, 1, 58, 100
3, 310076, Note_off_c, 1, 58, 100
3, 310080, Note_on_c, 1, 51, 100
3, 310080, Note_on_c, 1, 55, 100
3, 310172, Note_off_c, 1, 51, 100
3, 310172, Note_off_c, 1, 55, 100
3, 310176, Note_on_c, 1, 58, 100
3, 310268, Note_off_c, 1, 58, 100
3, 310272, Note_on_c, 1, 51, 100
3, 310272, Note_on_c, 1, 55, 100
3, 310364, Note_off_c, 1, 51, 100
3, 310364, Note_off_c, 1, 55, 100
3, 310368, Note_on_c, 1, 58, 100
3, 310460, Note_off_c, 1, 58, 100
3, 310464, Note_on_c, 1, 51, 100
3, 310464, Note_on_c, 1, 55, 100
3, 310556, Note_off_c, 1, 51, 100
3, 310556, Note_off_c, 1, 55, 100
3, 310560, Note_on_c, 1, 58, 100
3, 310652, Note_off_c, 1, 58, 100
3, 310656, Note_on_c, 1, 53, 100
3, 310656, Note_on_c, 1, 56, 100
3, 310748, Note_off_c, 1, 53, 100
3, 310748, Note_off_c, 1, 56, 100
3, 310752, Note_on_c, 1, 58, 100
3, 310844, Note_off_c, 1, 58, 100
3, 310848, Note_on_c, 1, 53, 100
3, 310848, Note_on_c, 1, 56, 100
3, 310940, Note_off_c, 1, 53, 100
3, 310940, Note_off_c, 1, 56, 100
3, 310944, Note_on_c, 1, 59, 100
3, 311036, Note_off_c, 1, 59, 100
3, 311040, Note_on_c, 1, 53, 100
3, 311040, Note_on_c, 1, 56, 100
3, 311132, Note_off_c, 1, 53, 100
3, 311132, Note_off_c, 1, 56, 100
3, 311136, Note_on_c, 1, 59, 100
3, 311228, Note_off_c, 1, 59, 100
3, 311232, Note_on_c, 1, 53, 100
3, 311232, Note_on_c, 1, 56, 100
3, 311324, Note_off_c, 1, 53, 100
3, 311324, Note_off_c, 1, 56, 100
3, 311328, Note_on_c, 1, 59, 100
3, 311420, Note_off_c, 1, 59, 100
3, 311424, Note_on_c, 1, 54, 100
3, 311424, Note_on_c, 1, 57, 100
3, 311516, Note_off_c, 1, 54, 100
3, 311516, Note_off_c, 1, 57, 100
3, 311520, Note_on_c, 1, 59, 100
3, 311612, Note_off_c, 1, 59, 100
3, 311616, Note_on_c, 1, 54, 100
3, 311616, Note_on_c, 1, 57, 100
3, 311708, Note_off_c, 1, 54, 100
3, 311708, Note_off_c, 1, 57, 100
3, 311712, Note_on_c, 1, 60, 100
3, 311804, Note_off_c, 1, 60, 100
3, 311808, Note_on_c, 1, 54, 100
3, 311808, Note_on_c, 1, 57, 100
3, 311900, Note_off_c, 1, 54, 100
3, 311900, Note_off_c, 1, 57, 100
3, 311904, Note_on_c, 1, 60, 100
3, 311996, Note_off_c, 1, 60, 100
3, 312000, Note_on_c, 1, 54, 100
3, 312000, Note_on_c, 1, 57, 100
3, 312092, Note_off_c, 1, 54, 100
3, 312092, Note_off_c, 1, 57, 100
3, 312096, Note_on_c, 1, 60, 100
3, 312188, Note_off_c, 1, 60, 100
3, 312192, Note_on_c, 1, 55, 100
3, 312192, Note_on_c, 1, 59, 100
3, 312284, Note_off_c, 1, 55, 100
3, 312284, Note_off_c, 1, 59, 100
3, 312288, Note_on_c, 1, 61, 100
3, 312380, Note_off_c, 1, 61, 100
3, 312384, Note_on_c, 1, 55, 100
3, 312384, Note_on_c, 1, 59, 100
3, 312476, Note_off_c, 1, 55, 100
3, 312476, Note_off_c, 1, 59, 100
3, 312480, Note_on_c, 1, 62, 100
3, 312572, Note_off_c, 1, 62, 100
3, 312576, Note_on_c, 1, 55, 100
3, 312576, Note_on_c, 1, 59, 100
3, 312668, Note_off_c, 1, 55, 100
3, 312668, Note_off_c, 1, 59, 100
3, 312672, Note_on_c, 1, 62, 100
3, 312764, Note_off_c, 1, 62, 100
3, 312768, Note_on_c, 1, 55, 100
3, 312768, Note_on_c, 1, 59, 100
3, 312860, Note_off_c, 1, 55, 100
3, 312860, Note_off_c, 1, 59, 100
3, 312864, Note_on_c, 1, 62, 100
3, 312956, Note_off_c, 1, 62, 100
3, 312960, Note_on_c, 1, 56, 100
3, 312960, Note_on_c, 1, 59, 100
3, 313052, Note_off_c, 1, 56, 100
3, 313052, Note_off_c, 1, 59, 100
3, 313056, Note_on_c, 1, 62, 100
3, 313148, Note_off_c, 1, 62, 100
3, 313152, Note_on_c, 1, 56, 100
3, 313152, Note_on_c, 1, 59, 100
3, 313244, Note_off_c, 1, 56, 100
3, 313244, Note_off_c, 1, 59, 100
3, 313248, Note_on_c, 1, 62, 100
3, 313340, Note_off_c, 1, 62, 100
3, 313344, Note_on_c, 1, 56, 100
3, 313344, Note_on_c, 1, 59, 100
3, 313436, Note_off_c, 1, 56, 100
3, 313436, Note_off_c, 1, 59, 100
3, 313440, Note_on_c, 1, 62, 100
3, 313532, Note_off_c, 1, 62, 100
3, 313536, Note_on_c, 1, 56, 100
3, 313536, Note_on_c, 1, 59, 100
3, 313628, Note_off_c, 1, 56, 100
3, 313628, Note_off_c, 1, 59, 100
3, 313632, Note_on_c, 1, 62, 100
3, 313724, Note_off_c, 1, 62, 100
3, 313728, Note_on_c, 1, 57, 100
3, 313728, Note_on_c, 1, 61, 100
3, 313820, Note_off_c, 1, 57, 100
3, 313820, Note_off_c, 1, 61, 100
3, 313824, Note_on_c, 1, 62, 100
3, 313916, Note_off_c, 1, 62, 100
3, 313920, Note_on_c, 1, 57, 100
3, 313920, Note_on_c, 1, 61, 100
3, 314012, Note_off_c, 1, 57, 100
3, 314012, Note_off_c, 1, 61, 100
3, 314016, Note_on_c, 1, 64, 100
3, 314108, Note_off_c, 1, 64, 100
3, 314112, Note_on_c, 1, 57, 100
3, 314112, Note_on_c, 1, 61, 100
3, 314204, Note_off_c, 1, 57, 100
3, 314204, Note_off_c, 1, 61, 100
3, 314208, Note_on_c, 1, 64, 100
3, 314300, Note_off_c, 1, 64, 100
3, 314304, Note_on_c, 1, 57, 100
3, 314304, Note_on_c, 1, 61, 100
3, 314396, Note_off_c, 1, 57, 100
3, 314396, Note_off_c, 1, 61, 100
3, 314400, Note_on_c, 1, 64, 100
3, 314492, Note_off_c, 1, 64, 100
3, 314496, Note_on_c, 1, 57, 100
3, 314496, Note_on_c, 1, 61, 100
3, 314588, Note_off_c, 1, 57, 100
3, 314588, Note_off_c, 1, 61, 100
3, 314592, Note_on_c, 1, 64, 100
3, 314684, Note_off_c, 1, 64, 100
3, 314688, Note_on_c, 1, 57, 100
3, 314688, Note_on_c, 1, 61, 100
3, 314780, Note_off_c, 1, 57, 100
3, 314780, Note_off_c, 1, 61, 100
3, 314784, Note_on_c, 1, 64, 100
3, 314876, Note_off_c, 1, 64, 100
3, 314880, Note_on_c, 1, 57, 100
3, 314880, Note_on_c, 1, 61, 100
3, 314972, Note_off_c, 1, 57, 100
3, 314972, Note_off_c, 1, 61, 100
3, 314976, Note_on_c, 1, 64, 100
3, 315068, Note_off_c, 1, 64, 100
3, 315072, Note_on_c, 1, 57, 100
3, 315072, Note_on_c, 1, 61, 100
3, 315164, Note_off_c, 1, 57, 100
3, 315164, Note_off_c, 1, 61, 100
3, 315168, Note_on_c, 1, 64, 100
3, 315260, Note_off_c, 1, 64, 100
3, 315264, Note_on_c, 1, 62, 100
3, 315264, Note_on_c, 1, 59, 100
3, 315356, Note_off_c, 1, 62, 100
3, 315356, Note_off_c, 1, 59, 100
3, 315360, Note_on_c, 1, 64, 100
3, 315452, Note_off_c, 1, 64, 100
3, 315456, Note_on_c, 1, 59, 100
3, 315456, Note_on_c, 1, 62, 100
3, 315548, Note_off_c, 1, 59, 100
3, 315548, Note_off_c, 1, 62, 100
3, 315552, Note_on_c, 1, 64, 100
3, 315644, Note_off_c, 1, 64, 100
3, 315648, Note_on_c, 1, 62, 100
3, 315648, Note_on_c, 1, 59, 100
3, 315740, Note_off_c, 1, 62, 100
3, 315740, Note_off_c, 1, 59, 100
3, 315744, Note_on_c, 1, 65, 100
3, 315836, Note_off_c, 1, 65, 100
3, 315840, Note_on_c, 1, 59, 100
3, 315840, Note_on_c, 1, 62, 100
3, 315932, Note_off_c, 1, 59, 100
3, 315932, Note_off_c, 1, 62, 100
3, 315936, Note_on_c, 1, 65, 100
3, 316028, Note_off_c, 1, 65, 100
3, 316032, Note_on_c, 1, 62, 100
3, 316032, Note_on_c, 1, 59, 100
3, 316124, Note_off_c, 1, 62, 100
3, 316124, Note_off_c, 1, 59, 100
3, 316128, Note_on_c, 1, 65, 100
3, 316220, Note_off_c, 1, 65, 100
3, 316224, Note_on_c, 1, 59, 100
3, 316224, Note_on_c, 1, 62, 100
3, 316316, Note_off_c, 1, 59, 100
3, 316316, Note_off_c, 1, 62, 100
3, 316320, Note_on_c, 1, 65, 100
3, 316412, Note_off_c, 1, 65, 100
3, 316416, Note_on_c, 1, 62, 100
3, 316416, Note_on_c, 1, 59, 100
3, 316508, Note_off_c, 1, 62, 100
3, 316508, Note_off_c, 1, 59, 100
3, 316512, Note_on_c, 1, 65, 100
3, 316604, Note_off_c, 1, 65, 100
3, 316608, Note_on_c, 1, 59, 100
3, 316608, Note_on_c, 1, 62, 100
3, 316700, Note_off_c, 1, 59, 100
3, 316700, Note_off_c, 1, 62, 100
3, 316704, Note_on_c, 1, 65, 100
3, 316796, Note_off_c, 1, 65, 100
3, 316800, Note_on_c, 1, 59, 100
3, 316800, Note_on_c, 1, 62, 100
3, 317180, Note_off_c, 1, 59, 100
3, 317180, Note_off_c, 1, 62, 100
3, 317376, Note_on_c, 1, 53, 120
3, 317424, Note_on_c, 1, 52, 120
3, 317468, Note_off_c, 1, 53, 100
3, 317472, Note_on_c, 1, 50, 120
3, 317516, Note_off_c, 1, 52, 100
3, 317520, Note_on_c, 1, 48, 120
3, 317564, Note_off_c, 1, 50, 100
3, 317564, Note_off_c, 1, 48, 100
3, 317568, Note_on_c, 1, 47, 120
3, 317948, Note_off_c, 1, 47, 100
3, 318912, Note_on_c, 1, 53, 120
3, 318960, Note_on_c, 1, 52, 120
3, 319004, Note_off_c, 1, 53, 100
3, 319008, Note_on_c, 1, 50, 120
3, 319052, Note_off_c, 1, 52, 100
3, 319056, Note_on_c, 1, 48, 120
3, 319100, Note_off_c, 1, 50, 100
3, 319100, Note_off_c, 1, 48, 100
3, 319104, Note_on_c, 1, 47, 120
3, 319484, Note_off_c, 1, 47, 100
3, 320256, Note_on_c, 1, 59, 70
3, 320256, Note_on_c, 1, 62, 70
3, 320256, Note_on_c, 1, 65, 70
3, 320636, Note_off_c, 1, 59, 100
3, 320636, Note_off_c, 1, 62, 100
3, 320636, Note_off_c, 1, 65, 100
3, 321024, Note_on_c, 1, 59, 70
3, 321024, Note_on_c, 1, 62, 70
3, 321024, Note_on_c, 1, 65, 70
3, 321404, Note_off_c, 1, 59, 100
3, 321404, Note_off_c, 1, 62, 100
3, 321404, Note_off_c, 1, 65, 100
3, 321792, Note_on_c, 1, 59, 70
3, 321792, Note_on_c, 1, 62, 70
3, 321792, Note_on_c, 1, 65, 70
3, 322172, Note_off_c, 1, 59, 100
3, 322172, Note_off_c, 1, 62, 100
3, 322172, Note_off_c, 1, 65, 100
3, 322944, Note_on_c, 1, 61, 120
3, 322944, Note_on_c, 1, 57, 120
3, 322944, Note_on_c, 1, 52, 120
3, 322944, Note_on_c, 1, 49, 120
3, 323324, Note_off_c, 1, 61, 100
3, 323324, Note_off_c, 1, 57, 100
3, 323324, Note_off_c, 1, 52, 100
3, 323324, Note_off_c, 1, 49, 100
3, 324480, Note_on_c, 1, 51, 120
3, 324480, Note_on_c, 1, 42, 120
3, 325244, Note_off_c, 1, 51, 100
3, 325244, Note_off_c, 1, 42, 100
3, 325248, Note_on_c, 1, 50, 120
3, 325248, Note_on_c, 1, 40, 120
3, 326012, Note_off_c, 1, 50, 100
3, 326012, Note_off_c, 1, 40, 100
3, 326016, Note_on_c, 1, 49, 120
3, 326016, Note_on_c, 1, 45, 120
3, 326396, Note_off_c, 1, 49, 100
3, 326396, Note_off_c, 1, 45, 100
3, 327552, Note_on_c, 1, 66, 120
3, 327552, Note_on_c, 1, 69, 120
3, 328316, Note_off_c, 1, 66, 100
3, 328316, Note_off_c, 1, 69, 100
3, 328320, Note_on_c, 1, 64, 120
3, 328320, Note_on_c, 1, 68, 120
3, 329084, Note_off_c, 1, 64, 100
3, 329084, Note_off_c, 1, 68, 100
3, 329088, Note_on_c, 1, 57, 100
3, 329152, Note_on_c, 1, 61, 100
3, 329212, Note_off_c, 1, 57, 100
3, 329216, Note_on_c, 1, 62, 100
3, 329276, Note_off_c, 1, 61, 100
3, 329280, Note_on_c, 1, 64, 100
3, 329340, Note_off_c, 1, 62, 100
3, 329344, Note_on_c, 1, 66, 100
3, 329404, Note_off_c, 1, 64, 100
3, 329408, Note_on_c, 1, 68, 100
3, 329468, Note_off_c, 1, 66, 100
3, 329472, Note_on_c, 1, 69, 100
3, 329532, Note_off_c, 1, 68, 100
3, 329660, Note_off_c, 1, 69, 100
3, 330624, Note_on_c, 1, 40, 100
3, 330688, Note_on_c, 1, 44, 100
3, 330748, Note_off_c, 1, 40, 100
3, 330752, Note_on_c, 1, 45, 100
3, 330812, Note_off_c, 1, 44, 100
3, 330816, Note_on_c, 1, 47, 100
3, 330876, Note_off_c, 1, 45, 100
3, 330880, Note_on_c, 1, 49, 100
3, 330940, Note_off_c, 1, 47, 100
3, 330944, Note_on_c, 1, 50, 100
3, 331004, Note_off_c, 1, 49, 100
3, 331008, Note_on_c, 1, 52, 100
3, 331068, Note_off_c, 1, 50, 100
3, 331072, Note_on_c, 1, 56, 100
3, 331132, Note_off_c, 1, 52, 100
3, 331136, Note_on_c, 1, 57, 100
3, 331196, Note_off_c, 1, 56, 100
3, 331200, Note_on_c, 1, 59, 100
3, 331260, Note_off_c, 1, 57, 100
3, 331264, Note_on_c, 1, 61, 100
3, 331324, Note_off_c, 1, 59, 100
3, 331328, Note_on_c, 1, 62, 100
3, 331388, Note_off_c, 1, 61, 100
3, 331388, Note_off_c, 1, 62, 100
3, 331392, Note_on_c, 1, 64, 100
3, 331580, Note_off_c, 1, 64, 100
3, 331584, Note_on_c, 1, 62, 100
3, 331772, Note_off_c, 1, 62, 100
3, 331776, Note_on_c, 1, 61, 100
3, 331964, Note_off_c, 1, 61, 100
3, 331968, Note_on_c, 1, 59, 100
3, 332156, Note_off_c, 1, 59, 100
3, 332160, Note_on_c, 1, 33, 110
3, 332224, Note_on_c, 1, 37, 110
3, 332284, Note_off_c, 1, 33, 100
3, 332288, Note_on_c, 1, 38, 110
3, 332348, Note_off_c, 1, 37, 100
3, 332352, Note_on_c, 1, 40, 110
3, 332412, Note_off_c, 1, 38, 100
3, 332416, Note_on_c, 1, 42, 110
3, 332476, Note_off_c, 1, 40, 100
3, 332480, Note_on_c, 1, 44, 110
3, 332540, Note_off_c, 1, 42, 100
3, 332544, Note_on_c, 1, 45, 110
3, 332604, Note_off_c, 1, 44, 100
3, 332608, Note_on_c, 1, 49, 110
3, 332668, Note_off_c, 1, 45, 100
3, 332672, Note_on_c, 1, 50, 110
3, 332732, Note_off_c, 1, 49, 100
3, 332736, Note_on_c, 1, 52, 110
3, 332796, Note_off_c, 1, 50, 100
3, 332800, Note_on_c, 1, 54, 110
3, 332860, Note_off_c, 1, 52, 100
3, 332864, Note_on_c, 1, 56, 110
3, 332924, Note_off_c, 1, 54, 100
3, 332924, Note_off_c, 1, 56, 100
3, 332928, Note_on_c, 1, 57, 110
3, 333116, Note_off_c, 1, 57, 100
3, 333120, Note_on_c, 1, 56, 110
3, 333308, Note_off_c, 1, 56, 100
3, 333312, Note_on_c, 1, 54, 110
3, 333500, Note_off_c, 1, 54, 100
3, 333504, Note_on_c, 1, 52, 110
3, 333692, Note_off_c, 1, 52, 100
3, 333696, Note_on_c, 1, 50, 110
3, 333884, Note_off_c, 1, 50, 100
3, 333888, Note_on_c, 1, 49, 110
3, 334076, Note_off_c, 1, 49, 100
3, 334080, Note_on_c, 1, 47, 110
3, 334268, Note_off_c, 1, 47, 100
3, 334272, Note_on_c, 1, 45, 110
3, 334460, Note_off_c, 1, 45, 100
3, 334464, Note_on_c, 1, 44, 120
3, 334652, Note_off_c, 1, 44, 100
3, 334656, Note_on_c, 1, 42, 120
3, 334844, Note_off_c, 1, 42, 100
3, 334848, Note_on_c, 1, 40, 120
3, 335036, Note_off_c, 1, 40, 100
3, 335040, Note_on_c, 1, 38, 120
3, 335228, Note_off_c, 1, 38, 100
3, 335232, Note_on_c, 1, 37, 120
3, 336764, Note_off_c, 1, 37, 100
3, 336768, Note_on_c, 1, 38, 120
3, 337532, Note_off_c, 1, 38, 100
3, 337536, Note_on_c, 1, 40, 120
3, 338300, Note_off_c, 1, 40, 100
3, 338304, Note_on_c, 1, 33, 85
3, 339836, Note_off_c, 1, 33, 100
3, 339840, Note_on_c, 1, 33, 85
3, 340032, Note_on_c, 1, 35, 85
3, 340220, Note_off_c, 1, 35, 100
3, 340224, Note_on_c, 1, 37, 85
3, 340412, Note_off_c, 1, 37, 100
3, 340416, Note_on_c, 1, 38, 85
3, 340604, Note_off_c, 1, 38, 100
3, 340608, Note_on_c, 1, 40, 85
3, 340796, Note_off_c, 1, 40, 100
3, 340800, Note_on_c, 1, 42, 85
3, 340988, Note_off_c, 1, 42, 100
3, 340992, Note_on_c, 1, 43, 85
3, 341180, Note_off_c, 1, 43, 100
3, 341184, Note_on_c, 1, 44, 85
3, 341372, Note_off_c, 1, 33, 100
3, 341372, Note_off_c, 1, 44, 100
3, 341376, Note_on_c, 1, 33, 70
3, 341376, Note_on_c, 1, 45, 70
3, 342140, Note_off_c, 1, 45, 100
3, 342144, Note_on_c, 1, 44, 70
3, 342524, Note_off_c, 1, 44, 100
3, 342528, Note_on_c, 1, 47, 70
3, 342908, Note_off_c, 1, 33, 100
3, 342908, Note_off_c, 1, 47, 100
3, 342912, Note_on_c, 1, 33, 70
3, 343104, Note_on_c, 1, 35, 70
3, 343292, Note_off_c, 1, 35, 100
3, 343296, Note_on_c, 1, 37, 70
3, 343484, Note_off_c, 1, 37, 100
3, 343488, Note_on_c, 1, 38, 70
3, 343676, Note_off_c, 1, 38, 100
3, 343680, Note_on_c, 1, 40, 70
3, 343868, Note_off_c, 1, 40, 100
3, 343872, Note_on_c, 1, 42, 70
3, 344060, Note_off_c, 1, 42, 100
3, 344064, Note_on_c, 1, 43, 70
3, 344252, Note_off_c, 1, 43, 100
3, 344256, Note_on_c, 1, 44, 70
3, 344444, Note_off_c, 1, 33, 100
3, 344444, Note_off_c, 1, 44, 100
3, 344448, Note_on_c, 1, 33, 70
3, 344448, Note_on_c, 1, 45, 70
3, 344576, Note_off_c, 1, 33, 100
3, 344576, Note_off_c, 1, 45, 100
3, 344640, Note_on_c, 1, 42, 70
3, 344768, Note_off_c, 1, 42, 100
3, 344832, Note_on_c, 1, 40, 70
3, 344960, Note_off_c, 1, 40, 100
3, 345024, Note_on_c, 1, 38, 70
3, 345152, Note_off_c, 1, 38, 100
3, 345216, Note_on_c, 1, 37, 70
3, 345344, Note_off_c, 1, 37, 100
3, 345408, Note_on_c, 1, 38, 70
3, 345536, Note_off_c, 1, 38, 100
3, 345600, Note_on_c, 1, 37, 70
3, 345728, Note_off_c, 1, 37, 100
3, 345792, Note_on_c, 1, 35, 70
3, 345920, Note_off_c, 1, 35, 100
3, 345984, Note_on_c, 1, 33, 70
3, 346240, Note_off_c, 1, 33, 100
3, 346752, Note_on_c, 1, 33, 70
3, 347008, Note_off_c, 1, 33, 100
3, 347520, Note_on_c, 1, 33, 70
3, 348284, Note_off_c, 1, 33, 100
3, 348284, End_track
0, 0, End_of_file
