0, 0, Header, 1, 3, 384
1, 0, Start_track
1, 0, Title_t, "L.v.Beethoven 3mov - Piano Sonata No.2 in A Major Op.2-2\000"
1, 0, Copyright_t, "Copyright(C) 1995-2009, Suzuki Software\000"
1, 0, Sequencer_specific, 9, 67, 123, 0, 88, 70, 48, 50, 0, 1
1, 0, Text_t, "XFhd:2000/03/04:JP:Classical::::L.v.Beethoven:::Kaoru Suzuki\000"
1, 0, Text_t, "XFln:JP:\203s\203A\203m\203\\\203i\203^\221æ2\224Ô\203C\222·\222²\215ì\225i2-2\201`\221æ3\212y\217Í:L.v.\203x\201[\203g\201[\203\224\203F\203\223:::\227é\202¿\202á\202ñ:\227é\202¿\202á\202ñ\000"
1, 0, Time_signature, 1, 2, 96, 8
1, 0, Sequencer_specific, 3, 0, 0, 65
1, 0, Sequencer_specific, 5, 0, 0, 119, 14, 0
1, 0, Tempo, 285714
1, 384, Time_signature, 3, 2, 96, 8
1, 28032, Tempo, 324324
1, 29184, Tempo, 500000
1, 29568, Tempo, 333333
1, 29952, Tempo, 300000
1, 30336, Tempo, 285714
1, 42240, Tempo, 300000
1, 42624, Tempo, 315789
1, 43008, Tempo, 333333
1, 43392, Tempo, 428571
1, 43776, Tempo, 500000
1, 44160, Tempo, 285714
1, 69504, Tempo, 315789
1, 69888, Tempo, 461538
1, 70656, Tempo, 333333
1, 71040, Tempo, 315789
1, 71424, Tempo, 300000
1, 71808, Tempo, 285714
1, 83328, Tempo, 300000
1, 83712, Tempo, 315789
1, 84096, Tempo, 352941
1, 84480, Tempo, 428571
1, 84864, Tempo, 500000
1, 85248, Tempo, 300000
1, 85632, Tempo, 289855
1, 184704, Tempo, 315789
1, 185088, Tempo, 400000
1, 185472, Tempo, 500000
1, 186240, Tempo, 333333
1, 186624, Tempo, 307692
1, 187008, Tempo, 289855
1, 198528, Tempo, 300000
1, 198912, Tempo, 315789
1, 199296, Tempo, 333333
1, 199680, Tempo, 375000
1, 200064, Tempo, 428571
1, 200448, Tempo, 500000
1, 200832, Tempo, 289855
1, 226176, Tempo, 333333
1, 227712, Tempo, 315789
1, 228096, Tempo, 300000
1, 228480, Tempo, 289855
1, 240000, Tempo, 300000
1, 240384, Tempo, 315789
1, 240768, Tempo, 333333
1, 241152, Tempo, 352941
1, 241536, Tempo, 428571
1, 241920, Tempo, 500000
1, 242688, Tempo, 289855
1, 257280, Tempo, 400000
1, 257280, End_track
2, 0, Start_track
2, 0, Title_t, "Right"
2, 0, Control_c, 0, 0, 0
2, 0, Program_c, 0, 0
2, 0, Control_c, 0, 7, 100
2, 0, Control_c, 0, 10, 72
2, 0, Control_c, 0, 91, 127
2, 0, Key_signature, 3, "major"
2, 0, Note_on_c, 0, 81, 80
2, 96, Note_on_c, 0, 76, 80
2, 188, Note_off_c, 0, 81, 100
2, 192, Note_on_c, 0, 85, 80
2, 284, Note_off_c, 0, 76, 100
2, 288, Note_on_c, 0, 81, 80
2, 380, Note_off_c, 0, 85, 100
2, 384, Note_on_c, 0, 88, 80
2, 476, Note_off_c, 0, 81, 100
2, 764, Note_off_c, 0, 88, 100
2, 1152, Note_on_c, 0, 73, 80
2, 1248, Note_on_c, 0, 69, 80
2, 1340, Note_off_c, 0, 73, 100
2, 1344, Note_on_c, 0, 76, 80
2, 1436, Note_off_c, 0, 69, 100
2, 1440, Note_on_c, 0, 73, 80
2, 1532, Note_off_c, 0, 76, 100
2, 1536, Note_on_c, 0, 81, 80
2, 1628, Note_off_c, 0, 73, 100
2, 1916, Note_off_c, 0, 81, 100
2, 2304, Note_on_c, 0, 61, 80
2, 2400, Note_on_c, 0, 57, 80
2, 2492, Note_off_c, 0, 61, 100
2, 2496, Note_on_c, 0, 64, 80
2, 2588, Note_off_c, 0, 57, 100
2, 2592, Note_on_c, 0, 61, 80
2, 2684, Note_off_c, 0, 64, 100
2, 2688, Note_on_c, 0, 69, 80
2, 2780, Note_off_c, 0, 61, 100
2, 3068, Note_off_c, 0, 69, 100
2, 3072, Note_on_c, 0, 69, 80
2, 3072, Note_on_c, 0, 63, 80
2, 3072, Note_on_c, 0, 59, 80
2, 3452, Note_off_c, 0, 69, 100
2, 3452, Note_off_c, 0, 63, 100
2, 3452, Note_off_c, 0, 59, 100
2, 3456, Note_on_c, 0, 69, 80
2, 3456, Note_on_c, 0, 66, 80
2, 3456, Note_on_c, 0, 59, 80
2, 3836, Note_off_c, 0, 69, 100
2, 3836, Note_off_c, 0, 66, 100
2, 3836, Note_off_c, 0, 59, 100
2, 3840, Note_on_c, 0, 66, 80
2, 3840, Note_on_c, 0, 69, 80
2, 3840, Note_on_c, 0, 59, 80
2, 4220, Note_off_c, 0, 66, 100
2, 4220, Note_off_c, 0, 69, 100
2, 4224, Note_on_c, 0, 68, 80
2, 4224, Note_on_c, 0, 64, 80
2, 4604, Note_off_c, 0, 59, 100
2, 4604, Note_off_c, 0, 68, 100
2, 4604, Note_off_c, 0, 64, 100
2, 4608, Note_on_c, 0, 80, 80
2, 4704, Note_on_c, 0, 76, 80
2, 4796, Note_off_c, 0, 80, 100
2, 4800, Note_on_c, 0, 83, 80
2, 4892, Note_off_c, 0, 76, 100
2, 4896, Note_on_c, 0, 80, 80
2, 4988, Note_off_c, 0, 83, 100
2, 4992, Note_on_c, 0, 86, 80
2, 5084, Note_off_c, 0, 80, 100
2, 5372, Note_off_c, 0, 86, 100
2, 5760, Note_on_c, 0, 68, 80
2, 5856, Note_on_c, 0, 64, 80
2, 5948, Note_off_c, 0, 68, 100
2, 5952, Note_on_c, 0, 71, 80
2, 6044, Note_off_c, 0, 64, 100
2, 6048, Note_on_c, 0, 68, 80
2, 6140, Note_off_c, 0, 71, 100
2, 6144, Note_on_c, 0, 74, 80
2, 6236, Note_off_c, 0, 68, 100
2, 6524, Note_off_c, 0, 74, 100
2, 6912, Note_on_c, 0, 62, 80
2, 7008, Note_on_c, 0, 59, 80
2, 7100, Note_off_c, 0, 62, 100
2, 7104, Note_on_c, 0, 64, 80
2, 7196, Note_off_c, 0, 59, 100
2, 7200, Note_on_c, 0, 62, 80
2, 7292, Note_off_c, 0, 64, 100
2, 7296, Note_on_c, 0, 68, 80
2, 7388, Note_off_c, 0, 62, 100
2, 7676, Note_off_c, 0, 68, 100
2, 7680, Note_on_c, 0, 68, 80
2, 7680, Note_on_c, 0, 62, 80
2, 8060, Note_off_c, 0, 68, 100
2, 8060, Note_off_c, 0, 62, 100
2, 8064, Note_on_c, 0, 68, 80
2, 8064, Note_on_c, 0, 62, 80
2, 8444, Note_off_c, 0, 68, 100
2, 8444, Note_off_c, 0, 62, 100
2, 8448, Note_on_c, 0, 71, 80
2, 8448, Note_on_c, 0, 62, 80
2, 8828, Note_off_c, 0, 71, 100
2, 8828, Note_off_c, 0, 62, 100
2, 8832, Note_on_c, 0, 69, 80
2, 8832, Note_on_c, 0, 61, 80
2, 9212, Note_off_c, 0, 69, 100
2, 9212, Note_off_c, 0, 61, 100
2, 9216, Note_on_c, 0, 81, 80
2, 9312, Note_on_c, 0, 76, 80
2, 9404, Note_off_c, 0, 81, 100
2, 9408, Note_on_c, 0, 85, 80
2, 9500, Note_off_c, 0, 76, 100
2, 9504, Note_on_c, 0, 81, 80
2, 9596, Note_off_c, 0, 85, 100
2, 9600, Note_on_c, 0, 88, 80
2, 9692, Note_off_c, 0, 81, 100
2, 9980, Note_off_c, 0, 88, 100
2, 10368, Note_on_c, 0, 73, 80
2, 10464, Note_on_c, 0, 69, 80
2, 10556, Note_off_c, 0, 73, 100
2, 10560, Note_on_c, 0, 76, 80
2, 10652, Note_off_c, 0, 69, 100
2, 10656, Note_on_c, 0, 73, 80
2, 10748, Note_off_c, 0, 76, 100
2, 10752, Note_on_c, 0, 81, 80
2, 10844, Note_off_c, 0, 73, 100
2, 11132, Note_off_c, 0, 81, 100
2, 11520, Note_on_c, 0, 61, 80
2, 11616, Note_on_c, 0, 57, 80
2, 11708, Note_off_c, 0, 61, 100
2, 11712, Note_on_c, 0, 64, 80
2, 11804, Note_off_c, 0, 57, 100
2, 11808, Note_on_c, 0, 61, 80
2, 11900, Note_off_c, 0, 64, 100
2, 11904, Note_on_c, 0, 69, 80
2, 11996, Note_off_c, 0, 61, 100
2, 12284, Note_off_c, 0, 69, 100
2, 12288, Note_on_c, 0, 69, 80
2, 12288, Note_on_c, 0, 63, 80
2, 12288, Note_on_c, 0, 59, 80
2, 12668, Note_off_c, 0, 69, 100
2, 12668, Note_off_c, 0, 63, 100
2, 12668, Note_off_c, 0, 59, 100
2, 12672, Note_on_c, 0, 69, 80
2, 12672, Note_on_c, 0, 66, 80
2, 12672, Note_on_c, 0, 59, 80
2, 13052, Note_off_c, 0, 69, 100
2, 13052, Note_off_c, 0, 66, 100
2, 13052, Note_off_c, 0, 59, 100
2, 13056, Note_on_c, 0, 66, 80
2, 13056, Note_on_c, 0, 69, 80
2, 13056, Note_on_c, 0, 59, 80
2, 13436, Note_off_c, 0, 66, 100
2, 13436, Note_off_c, 0, 69, 100
2, 13440, Note_on_c, 0, 68, 80
2, 13440, Note_on_c, 0, 64, 80
2, 13820, Note_off_c, 0, 59, 100
2, 13820, Note_off_c, 0, 68, 100
2, 13820, Note_off_c, 0, 64, 100
2, 13824, Note_on_c, 0, 80, 80
2, 13920, Note_on_c, 0, 76, 80
2, 14012, Note_off_c, 0, 80, 100
2, 14016, Note_on_c, 0, 83, 80
2, 14108, Note_off_c, 0, 76, 100
2, 14112, Note_on_c, 0, 80, 80
2, 14204, Note_off_c, 0, 83, 100
2, 14208, Note_on_c, 0, 86, 80
2, 14300, Note_off_c, 0, 80, 100
2, 14588, Note_off_c, 0, 86, 100
2, 14976, Note_on_c, 0, 68, 80
2, 15072, Note_on_c, 0, 64, 80
2, 15164, Note_off_c, 0, 68, 100
2, 15168, Note_on_c, 0, 71, 80
2, 15260, Note_off_c, 0, 64, 100
2, 15264, Note_on_c, 0, 68, 80
2, 15356, Note_off_c, 0, 71, 100
2, 15360, Note_on_c, 0, 74, 80
2, 15452, Note_off_c, 0, 68, 100
2, 15740, Note_off_c, 0, 74, 100
2, 16128, Note_on_c, 0, 62, 80
2, 16224, Note_on_c, 0, 59, 80
2, 16316, Note_off_c, 0, 62, 100
2, 16320, Note_on_c, 0, 64, 80
2, 16412, Note_off_c, 0, 59, 100
2, 16416, Note_on_c, 0, 62, 80
2, 16508, Note_off_c, 0, 64, 100
2, 16512, Note_on_c, 0, 68, 80
2, 16604, Note_off_c, 0, 62, 100
2, 16892, Note_off_c, 0, 68, 100
2, 16896, Note_on_c, 0, 68, 80
2, 16896, Note_on_c, 0, 62, 80
2, 17276, Note_off_c, 0, 68, 100
2, 17276, Note_off_c, 0, 62, 100
2, 17280, Note_on_c, 0, 68, 80
2, 17280, Note_on_c, 0, 62, 80
2, 17660, Note_off_c, 0, 68, 100
2, 17660, Note_off_c, 0, 62, 100
2, 17664, Note_on_c, 0, 71, 80
2, 17664, Note_on_c, 0, 62, 80
2, 18044, Note_off_c, 0, 71, 100
2, 18044, Note_off_c, 0, 62, 100
2, 18048, Note_on_c, 0, 69, 80
2, 18048, Note_on_c, 0, 61, 80
2, 18428, Note_off_c, 0, 69, 100
2, 18428, Note_off_c, 0, 61, 100
2, 19200, Note_on_c, 0, 76, 86
2, 19200, Note_on_c, 0, 71, 86
2, 19200, Note_on_c, 0, 68, 86
2, 19580, Note_off_c, 0, 76, 100
2, 19580, Note_off_c, 0, 71, 100
2, 19580, Note_off_c, 0, 68, 100
2, 20352, Note_on_c, 0, 78, 95
2, 20352, Note_on_c, 0, 71, 95
2, 20352, Note_on_c, 0, 66, 95
2, 20732, Note_off_c, 0, 78, 100
2, 20732, Note_off_c, 0, 71, 100
2, 20732, Note_off_c, 0, 66, 100
2, 21504, Note_on_c, 0, 80, 105
2, 21504, Note_on_c, 0, 77, 105
2, 21504, Note_on_c, 0, 71, 105
2, 21504, Note_on_c, 0, 68, 105
2, 21884, Note_off_c, 0, 80, 100
2, 21884, Note_off_c, 0, 77, 100
2, 21884, Note_off_c, 0, 71, 100
2, 21884, Note_off_c, 0, 68, 100
2, 22272, Note_on_c, 0, 77, 110
2, 22272, Note_on_c, 0, 71, 110
2, 22272, Note_on_c, 0, 68, 110
2, 22652, Note_off_c, 0, 77, 100
2, 22652, Note_off_c, 0, 71, 100
2, 22652, Note_off_c, 0, 68, 100
2, 22656, Note_on_c, 0, 69, 110
2, 22656, Note_on_c, 0, 78, 110
2, 23036, Note_off_c, 0, 69, 100
2, 23036, Note_off_c, 0, 78, 100
2, 23808, Note_on_c, 0, 78, 86
2, 23808, Note_on_c, 0, 73, 86
2, 23808, Note_on_c, 0, 69, 86
2, 24188, Note_off_c, 0, 78, 100
2, 24188, Note_off_c, 0, 73, 100
2, 24188, Note_off_c, 0, 69, 100
2, 24960, Note_on_c, 0, 80, 95
2, 24960, Note_on_c, 0, 73, 95
2, 24960, Note_on_c, 0, 68, 95
2, 25340, Note_off_c, 0, 80, 100
2, 25340, Note_off_c, 0, 73, 100
2, 25340, Note_off_c, 0, 68, 100
2, 26112, Note_on_c, 0, 82, 105
2, 26112, Note_on_c, 0, 79, 105
2, 26112, Note_on_c, 0, 73, 105
2, 26112, Note_on_c, 0, 70, 105
2, 26492, Note_off_c, 0, 82, 100
2, 26492, Note_off_c, 0, 79, 100
2, 26492, Note_off_c, 0, 73, 100
2, 26492, Note_off_c, 0, 70, 100
2, 26880, Note_on_c, 0, 79, 110
2, 26880, Note_on_c, 0, 73, 110
2, 26880, Note_on_c, 0, 70, 110
2, 27260, Note_off_c, 0, 79, 100
2, 27260, Note_off_c, 0, 73, 100
2, 27260, Note_off_c, 0, 70, 100
2, 27264, Note_on_c, 0, 71, 110
2, 27264, Note_on_c, 0, 80, 110
2, 27644, Note_off_c, 0, 71, 100
2, 27644, Note_off_c, 0, 80, 100
2, 28032, Note_on_c, 0, 75, 120
2, 28032, Note_on_c, 0, 68, 120
2, 28412, Note_off_c, 0, 75, 100
2, 28412, Note_off_c, 0, 68, 100
2, 28416, Note_on_c, 0, 76, 120
2, 28416, Note_on_c, 0, 68, 120
2, 28796, Note_off_c, 0, 76, 100
2, 28796, Note_off_c, 0, 68, 100
2, 29568, Note_on_c, 0, 68, 80
2, 29568, Note_on_c, 0, 63, 80
2, 29948, Note_off_c, 0, 68, 100
2, 29948, Note_off_c, 0, 63, 100
2, 29952, Note_on_c, 0, 67, 80
2, 29952, Note_on_c, 0, 61, 80
2, 30332, Note_off_c, 0, 67, 100
2, 30332, Note_off_c, 0, 61, 100
2, 30336, Note_on_c, 0, 68, 80
2, 30336, Note_on_c, 0, 59, 80
2, 30716, Note_off_c, 0, 68, 100
2, 30716, Note_off_c, 0, 59, 100
2, 30720, Note_on_c, 0, 75, 80
2, 31100, Note_off_c, 0, 75, 100
2, 31104, Note_on_c, 0, 75, 80
2, 31484, Note_off_c, 0, 75, 100
2, 31488, Note_on_c, 0, 75, 80
2, 32252, Note_off_c, 0, 75, 100
2, 32256, Note_on_c, 0, 67, 80
2, 32636, Note_off_c, 0, 67, 100
2, 32640, Note_on_c, 0, 68, 80
2, 33020, Note_off_c, 0, 68, 100
2, 33024, Note_on_c, 0, 70, 80
2, 33404, Note_off_c, 0, 70, 100
2, 33408, Note_on_c, 0, 71, 80
2, 33788, Note_off_c, 0, 71, 100
2, 33792, Note_on_c, 0, 71, 80
2, 33888, Note_on_c, 0, 70, 80
2, 33980, Note_off_c, 0, 71, 100
2, 34172, Note_off_c, 0, 70, 100
2, 34176, Note_on_c, 0, 68, 80
2, 34556, Note_off_c, 0, 68, 100
2, 34560, Note_on_c, 0, 67, 80
2, 34656, Note_on_c, 0, 68, 80
2, 34748, Note_off_c, 0, 67, 100
2, 34752, Note_on_c, 0, 65, 80
2, 34844, Note_off_c, 0, 68, 100
2, 34848, Note_on_c, 0, 67, 80
2, 34940, Note_off_c, 0, 65, 100
2, 34940, Note_off_c, 0, 67, 100
2, 34944, Note_on_c, 0, 68, 80
2, 35324, Note_off_c, 0, 68, 100
2, 35328, Note_on_c, 0, 75, 80
2, 35708, Note_off_c, 0, 75, 100
2, 35712, Note_on_c, 0, 75, 80
2, 36092, Note_off_c, 0, 75, 100
2, 36096, Note_on_c, 0, 75, 80
2, 36860, Note_off_c, 0, 75, 100
2, 36864, Note_on_c, 0, 67, 80
2, 37244, Note_off_c, 0, 67, 100
2, 37248, Note_on_c, 0, 68, 80
2, 37632, Note_on_c, 0, 75, 81
2, 38012, Note_off_c, 0, 75, 100
2, 38016, Note_on_c, 0, 75, 83
2, 38396, Note_off_c, 0, 68, 100
2, 38396, Note_off_c, 0, 75, 100
2, 38400, Note_on_c, 0, 75, 85
2, 38784, Note_on_c, 0, 69, 87
2, 39164, Note_off_c, 0, 69, 100
2, 39168, Note_on_c, 0, 69, 89
2, 39548, Note_off_c, 0, 75, 100
2, 39548, Note_off_c, 0, 69, 100
2, 39552, Note_on_c, 0, 68, 90
2, 39936, Note_on_c, 0, 74, 87
2, 40316, Note_off_c, 0, 74, 100
2, 40320, Note_on_c, 0, 74, 83
2, 40700, Note_off_c, 0, 68, 100
2, 40700, Note_off_c, 0, 74, 100
2, 40704, Note_on_c, 0, 73, 79
2, 41088, Note_on_c, 0, 67, 75
2, 41468, Note_off_c, 0, 67, 100
2, 41472, Note_on_c, 0, 67, 71
2, 41852, Note_off_c, 0, 73, 100
2, 41852, Note_off_c, 0, 67, 100
2, 41856, Note_on_c, 0, 66, 70
2, 42240, Note_on_c, 0, 74, 70
2, 42620, Note_off_c, 0, 74, 100
2, 42624, Note_on_c, 0, 74, 70
2, 43004, Note_off_c, 0, 66, 100
2, 43004, Note_off_c, 0, 74, 100
2, 43008, Note_on_c, 0, 68, 70
2, 43008, Note_on_c, 0, 62, 70
2, 43392, Note_on_c, 0, 74, 70
2, 43772, Note_off_c, 0, 74, 100
2, 43776, Note_on_c, 0, 74, 70
2, 44156, Note_off_c, 0, 68, 100
2, 44156, Note_off_c, 0, 62, 100
2, 44156, Note_off_c, 0, 74, 100
2, 46080, Note_on_c, 0, 81, 80
2, 46176, Note_on_c, 0, 76, 80
2, 46268, Note_off_c, 0, 81, 100
2, 46272, Note_on_c, 0, 85, 80
2, 46364, Note_off_c, 0, 76, 100
2, 46368, Note_on_c, 0, 81, 80
2, 46460, Note_off_c, 0, 85, 100
2, 46464, Note_on_c, 0, 88, 80
2, 46556, Note_off_c, 0, 81, 100
2, 46844, Note_off_c, 0, 88, 100
2, 47232, Note_on_c, 0, 73, 80
2, 47328, Note_on_c, 0, 69, 80
2, 47420, Note_off_c, 0, 73, 100
2, 47424, Note_on_c, 0, 76, 80
2, 47516, Note_off_c, 0, 69, 100
2, 47520, Note_on_c, 0, 73, 80
2, 47612, Note_off_c, 0, 76, 100
2, 47616, Note_on_c, 0, 81, 80
2, 47708, Note_off_c, 0, 73, 100
2, 47996, Note_off_c, 0, 81, 100
2, 48384, Note_on_c, 0, 61, 80
2, 48480, Note_on_c, 0, 57, 80
2, 48572, Note_off_c, 0, 61, 100
2, 48576, Note_on_c, 0, 64, 80
2, 48668, Note_off_c, 0, 57, 100
2, 48672, Note_on_c, 0, 61, 80
2, 48764, Note_off_c, 0, 64, 100
2, 48768, Note_on_c, 0, 69, 80
2, 48860, Note_off_c, 0, 61, 100
2, 49148, Note_off_c, 0, 69, 100
2, 49152, Note_on_c, 0, 69, 80
2, 49152, Note_on_c, 0, 63, 80
2, 49152, Note_on_c, 0, 59, 80
2, 49532, Note_off_c, 0, 69, 100
2, 49532, Note_off_c, 0, 63, 100
2, 49532, Note_off_c, 0, 59, 100
2, 49536, Note_on_c, 0, 69, 80
2, 49536, Note_on_c, 0, 66, 80
2, 49536, Note_on_c, 0, 59, 80
2, 49916, Note_off_c, 0, 69, 100
2, 49916, Note_off_c, 0, 66, 100
2, 49916, Note_off_c, 0, 59, 100
2, 49920, Note_on_c, 0, 66, 80
2, 49920, Note_on_c, 0, 69, 80
2, 49920, Note_on_c, 0, 59, 80
2, 50300, Note_off_c, 0, 66, 100
2, 50300, Note_off_c, 0, 69, 100
2, 50304, Note_on_c, 0, 68, 80
2, 50304, Note_on_c, 0, 64, 80
2, 50684, Note_off_c, 0, 59, 100
2, 50684, Note_off_c, 0, 68, 100
2, 50684, Note_off_c, 0, 64, 100
2, 50688, Note_on_c, 0, 80, 80
2, 50784, Note_on_c, 0, 76, 80
2, 50876, Note_off_c, 0, 80, 100
2, 50880, Note_on_c, 0, 83, 80
2, 50972, Note_off_c, 0, 76, 100
2, 50976, Note_on_c, 0, 80, 80
2, 51068, Note_off_c, 0, 83, 100
2, 51072, Note_on_c, 0, 86, 80
2, 51164, Note_off_c, 0, 80, 100
2, 51452, Note_off_c, 0, 86, 100
2, 51840, Note_on_c, 0, 68, 80
2, 51936, Note_on_c, 0, 64, 80
2, 52028, Note_off_c, 0, 68, 100
2, 52032, Note_on_c, 0, 71, 80
2, 52124, Note_off_c, 0, 64, 100
2, 52128, Note_on_c, 0, 68, 80
2, 52220, Note_off_c, 0, 71, 100
2, 52224, Note_on_c, 0, 74, 80
2, 52316, Note_off_c, 0, 68, 100
2, 52604, Note_off_c, 0, 74, 100
2, 52992, Note_on_c, 0, 62, 80
2, 53088, Note_on_c, 0, 59, 80
2, 53180, Note_off_c, 0, 62, 100
2, 53184, Note_on_c, 0, 64, 80
2, 53276, Note_off_c, 0, 59, 100
2, 53280, Note_on_c, 0, 62, 80
2, 53372, Note_off_c, 0, 64, 100
2, 53376, Note_on_c, 0, 68, 80
2, 53468, Note_off_c, 0, 62, 100
2, 53756, Note_off_c, 0, 68, 100
2, 53760, Note_on_c, 0, 68, 80
2, 53760, Note_on_c, 0, 62, 80
2, 54140, Note_off_c, 0, 68, 100
2, 54140, Note_off_c, 0, 62, 100
2, 54144, Note_on_c, 0, 68, 80
2, 54144, Note_on_c, 0, 62, 80
2, 54524, Note_off_c, 0, 68, 100
2, 54524, Note_off_c, 0, 62, 100
2, 54528, Note_on_c, 0, 71, 80
2, 54528, Note_on_c, 0, 62, 80
2, 54908, Note_off_c, 0, 71, 100
2, 54908, Note_off_c, 0, 62, 100
2, 54912, Note_on_c, 0, 69, 80
2, 54912, Note_on_c, 0, 61, 80
2, 55292, Note_off_c, 0, 69, 100
2, 55292, Note_off_c, 0, 61, 100
2, 56064, Note_on_c, 0, 73, 110
2, 56064, Note_on_c, 0, 69, 110
2, 56064, Note_on_c, 0, 64, 110
2, 56064, Note_on_c, 0, 61, 110
2, 56444, Note_off_c, 0, 73, 100
2, 56444, Note_off_c, 0, 69, 100
2, 56444, Note_off_c, 0, 64, 100
2, 56444, Note_off_c, 0, 61, 100
2, 57216, Note_on_c, 0, 78, 110
2, 57216, Note_on_c, 0, 74, 110
2, 57216, Note_on_c, 0, 66, 110
2, 57596, Note_off_c, 0, 78, 100
2, 57596, Note_off_c, 0, 74, 100
2, 57596, Note_off_c, 0, 66, 100
2, 58368, Note_on_c, 0, 80, 120
2, 58368, Note_on_c, 0, 74, 120
2, 58368, Note_on_c, 0, 71, 120
2, 58368, Note_on_c, 0, 68, 120
2, 58748, Note_off_c, 0, 80, 100
2, 58748, Note_off_c, 0, 74, 100
2, 58748, Note_off_c, 0, 71, 100
2, 58748, Note_off_c, 0, 68, 100
2, 59136, Note_on_c, 0, 81, 120
2, 59136, Note_on_c, 0, 76, 120
2, 59136, Note_on_c, 0, 73, 120
2, 59136, Note_on_c, 0, 69, 120
2, 59516, Note_off_c, 0, 81, 100
2, 59516, Note_off_c, 0, 76, 100
2, 59516, Note_off_c, 0, 73, 100
2, 59516, Note_off_c, 0, 69, 100
2, 60672, Note_on_c, 0, 76, 86
2, 60672, Note_on_c, 0, 71, 86
2, 60672, Note_on_c, 0, 68, 86
2, 61052, Note_off_c, 0, 76, 100
2, 61052, Note_off_c, 0, 71, 100
2, 61052, Note_off_c, 0, 68, 100
2, 61824, Note_on_c, 0, 78, 96
2, 61824, Note_on_c, 0, 71, 96
2, 61824, Note_on_c, 0, 66, 96
2, 62204, Note_off_c, 0, 78, 100
2, 62204, Note_off_c, 0, 71, 100
2, 62204, Note_off_c, 0, 66, 100
2, 62976, Note_on_c, 0, 80, 106
2, 62976, Note_on_c, 0, 77, 106
2, 62976, Note_on_c, 0, 71, 106
2, 62976, Note_on_c, 0, 68, 106
2, 63356, Note_off_c, 0, 80, 100
2, 63356, Note_off_c, 0, 77, 100
2, 63356, Note_off_c, 0, 71, 100
2, 63356, Note_off_c, 0, 68, 100
2, 63744, Note_on_c, 0, 77, 110
2, 63744, Note_on_c, 0, 71, 110
2, 63744, Note_on_c, 0, 68, 110
2, 64124, Note_off_c, 0, 77, 100
2, 64124, Note_off_c, 0, 71, 100
2, 64124, Note_off_c, 0, 68, 100
2, 64128, Note_on_c, 0, 69, 110
2, 64128, Note_on_c, 0, 78, 110
2, 64508, Note_off_c, 0, 69, 100
2, 64508, Note_off_c, 0, 78, 100
2, 65280, Note_on_c, 0, 78, 86
2, 65280, Note_on_c, 0, 73, 86
2, 65280, Note_on_c, 0, 69, 86
2, 65660, Note_off_c, 0, 78, 100
2, 65660, Note_off_c, 0, 73, 100
2, 65660, Note_off_c, 0, 69, 100
2, 66432, Note_on_c, 0, 80, 96
2, 66432, Note_on_c, 0, 73, 96
2, 66432, Note_on_c, 0, 68, 96
2, 66812, Note_off_c, 0, 80, 100
2, 66812, Note_off_c, 0, 73, 100
2, 66812, Note_off_c, 0, 68, 100
2, 67584, Note_on_c, 0, 82, 106
2, 67584, Note_on_c, 0, 79, 106
2, 67584, Note_on_c, 0, 73, 106
2, 67584, Note_on_c, 0, 70, 106
2, 67964, Note_off_c, 0, 82, 100
2, 67964, Note_off_c, 0, 79, 100
2, 67964, Note_off_c, 0, 73, 100
2, 67964, Note_off_c, 0, 70, 100
2, 68352, Note_on_c, 0, 79, 110
2, 68352, Note_on_c, 0, 73, 110
2, 68352, Note_on_c, 0, 70, 110
2, 68732, Note_off_c, 0, 79, 100
2, 68732, Note_off_c, 0, 73, 100
2, 68732, Note_off_c, 0, 70, 100
2, 68736, Note_on_c, 0, 71, 110
2, 68736, Note_on_c, 0, 80, 110
2, 69116, Note_off_c, 0, 71, 100
2, 69116, Note_off_c, 0, 80, 100
2, 69504, Note_on_c, 0, 75, 120
2, 69504, Note_on_c, 0, 68, 120
2, 69884, Note_off_c, 0, 75, 100
2, 69884, Note_off_c, 0, 68, 100
2, 69888, Note_on_c, 0, 76, 120
2, 69888, Note_on_c, 0, 68, 120
2, 70268, Note_off_c, 0, 76, 100
2, 70268, Note_off_c, 0, 68, 100
2, 71040, Note_on_c, 0, 68, 80
2, 71040, Note_on_c, 0, 63, 80
2, 71420, Note_off_c, 0, 68, 100
2, 71420, Note_off_c, 0, 63, 100
2, 71424, Note_on_c, 0, 67, 80
2, 71424, Note_on_c, 0, 61, 80
2, 71804, Note_off_c, 0, 67, 100
2, 71804, Note_off_c, 0, 61, 100
2, 71808, Note_on_c, 0, 68, 80
2, 71808, Note_on_c, 0, 59, 80
2, 72188, Note_off_c, 0, 68, 100
2, 72188, Note_off_c, 0, 59, 100
2, 72192, Note_on_c, 0, 75, 80
2, 72572, Note_off_c, 0, 75, 100
2, 72576, Note_on_c, 0, 75, 80
2, 72956, Note_off_c, 0, 75, 100
2, 72960, Note_on_c, 0, 75, 80
2, 73724, Note_off_c, 0, 75, 100
2, 73728, Note_on_c, 0, 67, 80
2, 74108, Note_off_c, 0, 67, 100
2, 74112, Note_on_c, 0, 68, 80
2, 74492, Note_off_c, 0, 68, 100
2, 74496, Note_on_c, 0, 70, 80
2, 74876, Note_off_c, 0, 70, 100
2, 74880, Note_on_c, 0, 71, 80
2, 75260, Note_off_c, 0, 71, 100
2, 75264, Note_on_c, 0, 71, 80
2, 75360, Note_on_c, 0, 70, 80
2, 75452, Note_off_c, 0, 71, 100
2, 75644, Note_off_c, 0, 70, 100
2, 75648, Note_on_c, 0, 68, 80
2, 76028, Note_off_c, 0, 68, 100
2, 76032, Note_on_c, 0, 67, 80
2, 76128, Note_on_c, 0, 68, 80
2, 76220, Note_off_c, 0, 67, 100
2, 76224, Note_on_c, 0, 65, 80
2, 76316, Note_off_c, 0, 68, 100
2, 76320, Note_on_c, 0, 67, 80
2, 76412, Note_off_c, 0, 65, 100
2, 76412, Note_off_c, 0, 67, 100
2, 76416, Note_on_c, 0, 68, 80
2, 76796, Note_off_c, 0, 68, 100
2, 76800, Note_on_c, 0, 75, 80
2, 77180, Note_off_c, 0, 75, 100
2, 77184, Note_on_c, 0, 75, 80
2, 77564, Note_off_c, 0, 75, 100
2, 77568, Note_on_c, 0, 75, 80
2, 78332, Note_off_c, 0, 75, 100
2, 78336, Note_on_c, 0, 67, 80
2, 78716, Note_off_c, 0, 67, 100
2, 78720, Note_on_c, 0, 68, 80
2, 79104, Note_on_c, 0, 75, 81
2, 79484, Note_off_c, 0, 75, 100
2, 79488, Note_on_c, 0, 75, 83
2, 79868, Note_off_c, 0, 68, 100
2, 79868, Note_off_c, 0, 75, 100
2, 79872, Note_on_c, 0, 75, 85
2, 80256, Note_on_c, 0, 69, 87
2, 80636, Note_off_c, 0, 69, 100
2, 80640, Note_on_c, 0, 69, 89
2, 81020, Note_off_c, 0, 75, 100
2, 81020, Note_off_c, 0, 69, 100
2, 81024, Note_on_c, 0, 68, 90
2, 81408, Note_on_c, 0, 74, 87
2, 81788, Note_off_c, 0, 74, 100
2, 81792, Note_on_c, 0, 74, 83
2, 82172, Note_off_c, 0, 68, 100
2, 82172, Note_off_c, 0, 74, 100
2, 82176, Note_on_c, 0, 73, 79
2, 82560, Note_on_c, 0, 67, 75
2, 82940, Note_off_c, 0, 67, 100
2, 82944, Note_on_c, 0, 67, 71
2, 83324, Note_off_c, 0, 73, 100
2, 83324, Note_off_c, 0, 67, 100
2, 83328, Note_on_c, 0, 66, 70
2, 83712, Note_on_c, 0, 74, 70
2, 84092, Note_off_c, 0, 74, 100
2, 84096, Note_on_c, 0, 74, 70
2, 84476, Note_off_c, 0, 66, 100
2, 84476, Note_off_c, 0, 74, 100
2, 84480, Note_on_c, 0, 68, 70
2, 84480, Note_on_c, 0, 62, 70
2, 84864, Note_on_c, 0, 74, 70
2, 85244, Note_off_c, 0, 74, 100
2, 85248, Note_on_c, 0, 74, 70
2, 85628, Note_off_c, 0, 68, 100
2, 85628, Note_off_c, 0, 62, 100
2, 85628, Note_off_c, 0, 74, 100
2, 87552, Note_on_c, 0, 81, 80
2, 87648, Note_on_c, 0, 76, 80
2, 87740, Note_off_c, 0, 81, 100
2, 87744, Note_on_c, 0, 85, 80
2, 87836, Note_off_c, 0, 76, 100
2, 87840, Note_on_c, 0, 81, 80
2, 87932, Note_off_c, 0, 85, 100
2, 87936, Note_on_c, 0, 88, 80
2, 88028, Note_off_c, 0, 81, 100
2, 88316, Note_off_c, 0, 88, 100
2, 88704, Note_on_c, 0, 73, 80
2, 88800, Note_on_c, 0, 69, 80
2, 88892, Note_off_c, 0, 73, 100
2, 88896, Note_on_c, 0, 76, 80
2, 88988, Note_off_c, 0, 69, 100
2, 88992, Note_on_c, 0, 73, 80
2, 89084, Note_off_c, 0, 76, 100
2, 89088, Note_on_c, 0, 81, 80
2, 89180, Note_off_c, 0, 73, 100
2, 89468, Note_off_c, 0, 81, 100
2, 89856, Note_on_c, 0, 61, 80
2, 89952, Note_on_c, 0, 57, 80
2, 90044, Note_off_c, 0, 61, 100
2, 90048, Note_on_c, 0, 64, 80
2, 90140, Note_off_c, 0, 57, 100
2, 90144, Note_on_c, 0, 61, 80
2, 90236, Note_off_c, 0, 64, 100
2, 90240, Note_on_c, 0, 69, 80
2, 90332, Note_off_c, 0, 61, 100
2, 90620, Note_off_c, 0, 69, 100
2, 90624, Note_on_c, 0, 69, 80
2, 90624, Note_on_c, 0, 63, 80
2, 90624, Note_on_c, 0, 59, 80
2, 91004, Note_off_c, 0, 69, 100
2, 91004, Note_off_c, 0, 63, 100
2, 91004, Note_off_c, 0, 59, 100
2, 91008, Note_on_c, 0, 69, 80
2, 91008, Note_on_c, 0, 66, 80
2, 91008, Note_on_c, 0, 59, 80
2, 91388, Note_off_c, 0, 69, 100
2, 91388, Note_off_c, 0, 66, 100
2, 91388, Note_off_c, 0, 59, 100
2, 91392, Note_on_c, 0, 66, 80
2, 91392, Note_on_c, 0, 69, 80
2, 91392, Note_on_c, 0, 59, 80
2, 91772, Note_off_c, 0, 66, 100
2, 91772, Note_off_c, 0, 69, 100
2, 91776, Note_on_c, 0, 68, 80
2, 91776, Note_on_c, 0, 64, 80
2, 92156, Note_off_c, 0, 59, 100
2, 92156, Note_off_c, 0, 68, 100
2, 92156, Note_off_c, 0, 64, 100
2, 92160, Note_on_c, 0, 80, 80
2, 92256, Note_on_c, 0, 76, 80
2, 92348, Note_off_c, 0, 80, 100
2, 92352, Note_on_c, 0, 83, 80
2, 92444, Note_off_c, 0, 76, 100
2, 92448, Note_on_c, 0, 80, 80
2, 92540, Note_off_c, 0, 83, 100
2, 92544, Note_on_c, 0, 86, 80
2, 92636, Note_off_c, 0, 80, 100
2, 92924, Note_off_c, 0, 86, 100
2, 93312, Note_on_c, 0, 68, 80
2, 93408, Note_on_c, 0, 64, 80
2, 93500, Note_off_c, 0, 68, 100
2, 93504, Note_on_c, 0, 71, 80
2, 93596, Note_off_c, 0, 64, 100
2, 93600, Note_on_c, 0, 68, 80
2, 93692, Note_off_c, 0, 71, 100
2, 93696, Note_on_c, 0, 74, 80
2, 93788, Note_off_c, 0, 68, 100
2, 94076, Note_off_c, 0, 74, 100
2, 94464, Note_on_c, 0, 62, 80
2, 94560, Note_on_c, 0, 59, 80
2, 94652, Note_off_c, 0, 62, 100
2, 94656, Note_on_c, 0, 64, 80
2, 94748, Note_off_c, 0, 59, 100
2, 94752, Note_on_c, 0, 62, 80
2, 94844, Note_off_c, 0, 64, 100
2, 94848, Note_on_c, 0, 68, 80
2, 94940, Note_off_c, 0, 62, 100
2, 95228, Note_off_c, 0, 68, 100
2, 95232, Note_on_c, 0, 68, 80
2, 95232, Note_on_c, 0, 62, 80
2, 95612, Note_off_c, 0, 68, 100
2, 95612, Note_off_c, 0, 62, 100
2, 95616, Note_on_c, 0, 68, 80
2, 95616, Note_on_c, 0, 62, 80
2, 95996, Note_off_c, 0, 68, 100
2, 95996, Note_off_c, 0, 62, 100
2, 96000, Note_on_c, 0, 71, 80
2, 96000, Note_on_c, 0, 62, 80
2, 96380, Note_off_c, 0, 71, 100
2, 96380, Note_off_c, 0, 62, 100
2, 96384, Note_on_c, 0, 69, 80
2, 96384, Note_on_c, 0, 61, 80
2, 96764, Note_off_c, 0, 69, 100
2, 96764, Note_off_c, 0, 61, 100
2, 97536, Note_on_c, 0, 73, 110
2, 97536, Note_on_c, 0, 69, 110
2, 97536, Note_on_c, 0, 64, 110
2, 97536, Note_on_c, 0, 61, 110
2, 97916, Note_off_c, 0, 73, 100
2, 97916, Note_off_c, 0, 69, 100
2, 97916, Note_off_c, 0, 64, 100
2, 97916, Note_off_c, 0, 61, 100
2, 98688, Note_on_c, 0, 78, 110
2, 98688, Note_on_c, 0, 74, 110
2, 98688, Note_on_c, 0, 66, 110
2, 99068, Note_off_c, 0, 78, 100
2, 99068, Note_off_c, 0, 74, 100
2, 99068, Note_off_c, 0, 66, 100
2, 99840, Note_on_c, 0, 80, 120
2, 99840, Note_on_c, 0, 74, 120
2, 99840, Note_on_c, 0, 71, 120
2, 99840, Note_on_c, 0, 68, 120
2, 100220, Note_off_c, 0, 80, 100
2, 100220, Note_off_c, 0, 74, 100
2, 100220, Note_off_c, 0, 71, 100
2, 100220, Note_off_c, 0, 68, 100
2, 100608, Note_on_c, 0, 81, 120
2, 100608, Note_on_c, 0, 76, 120
2, 100608, Note_on_c, 0, 73, 120
2, 100608, Note_on_c, 0, 69, 120
2, 100988, Note_off_c, 0, 81, 100
2, 100988, Note_off_c, 0, 76, 100
2, 100988, Note_off_c, 0, 73, 100
2, 100988, Note_off_c, 0, 69, 100
2, 101376, Note_on_c, 0, 64, 100
2, 101756, Note_off_c, 0, 64, 100
2, 101760, Key_signature, 0, "minor"
2, 101760, Note_on_c, 0, 72, 80
2, 102140, Note_off_c, 0, 72, 100
2, 102144, Note_on_c, 0, 71, 80
2, 102524, Note_off_c, 0, 71, 100
2, 102528, Note_on_c, 0, 69, 80
2, 102908, Note_off_c, 0, 69, 100
2, 102912, Note_on_c, 0, 77, 111
2, 102912, Note_on_c, 0, 68, 104
2, 103292, Note_off_c, 0, 77, 100
2, 103292, Note_off_c, 0, 68, 100
2, 103296, Note_on_c, 0, 76, 80
2, 103296, Note_on_c, 0, 69, 80
2, 103676, Note_off_c, 0, 76, 100
2, 103676, Note_off_c, 0, 69, 100
2, 103680, Note_on_c, 0, 74, 80
2, 103680, Note_on_c, 0, 71, 80
2, 104060, Note_off_c, 0, 74, 100
2, 104060, Note_off_c, 0, 71, 100
2, 104064, Note_on_c, 0, 72, 80
2, 104444, Note_off_c, 0, 72, 100
2, 104448, Note_on_c, 0, 71, 80
2, 104828, Note_off_c, 0, 71, 100
2, 104832, Note_on_c, 0, 69, 80
2, 105212, Note_off_c, 0, 69, 100
2, 105216, Note_on_c, 0, 77, 110
2, 105216, Note_on_c, 0, 68, 113
2, 105596, Note_off_c, 0, 77, 100
2, 105596, Note_off_c, 0, 68, 100
2, 105600, Note_on_c, 0, 76, 80
2, 105600, Note_on_c, 0, 69, 80
2, 105980, Note_off_c, 0, 76, 100
2, 105980, Note_off_c, 0, 69, 100
2, 105984, Note_on_c, 0, 74, 80
2, 105984, Note_on_c, 0, 71, 80
2, 106364, Note_off_c, 0, 74, 100
2, 106364, Note_off_c, 0, 71, 100
2, 106368, Note_on_c, 0, 72, 80
2, 106748, Note_off_c, 0, 72, 100
2, 106752, Note_on_c, 0, 71, 80
2, 107132, Note_off_c, 0, 71, 100
2, 107136, Note_on_c, 0, 69, 80
2, 107516, Note_off_c, 0, 69, 100
2, 107520, Note_on_c, 0, 67, 80
2, 107900, Note_off_c, 0, 67, 100
2, 107904, Note_on_c, 0, 66, 80
2, 108284, Note_off_c, 0, 66, 100
2, 108288, Note_on_c, 0, 64, 80
2, 108668, Note_off_c, 0, 64, 100
2, 108672, Note_on_c, 0, 60, 80
2, 109052, Note_off_c, 0, 60, 100
2, 109056, Note_on_c, 0, 59, 80
2, 109436, Note_off_c, 0, 59, 100
2, 109440, Note_on_c, 0, 63, 80
2, 109440, Note_on_c, 0, 57, 80
2, 109820, Note_off_c, 0, 63, 100
2, 109820, Note_off_c, 0, 57, 100
2, 109824, Note_on_c, 0, 64, 80
2, 109824, Note_on_c, 0, 55, 80
2, 110204, Note_off_c, 0, 64, 100
2, 110204, Note_off_c, 0, 55, 100
2, 110592, Note_on_c, 0, 64, 80
2, 110972, Note_off_c, 0, 64, 100
2, 110976, Note_on_c, 0, 72, 80
2, 111356, Note_off_c, 0, 72, 100
2, 111360, Note_on_c, 0, 71, 80
2, 111740, Note_off_c, 0, 71, 100
2, 111744, Note_on_c, 0, 69, 80
2, 112124, Note_off_c, 0, 69, 100
2, 112128, Note_on_c, 0, 77, 110
2, 112128, Note_on_c, 0, 68, 110
2, 112508, Note_off_c, 0, 77, 100
2, 112508, Note_off_c, 0, 68, 100
2, 112512, Note_on_c, 0, 76, 80
2, 112512, Note_on_c, 0, 69, 80
2, 112892, Note_off_c, 0, 76, 100
2, 112892, Note_off_c, 0, 69, 100
2, 112896, Note_on_c, 0, 74, 80
2, 112896, Note_on_c, 0, 71, 80
2, 113276, Note_off_c, 0, 74, 100
2, 113276, Note_off_c, 0, 71, 100
2, 113280, Note_on_c, 0, 72, 80
2, 113660, Note_off_c, 0, 72, 100
2, 113664, Note_on_c, 0, 71, 80
2, 114044, Note_off_c, 0, 71, 100
2, 114048, Note_on_c, 0, 69, 80
2, 114428, Note_off_c, 0, 69, 100
2, 114432, Note_on_c, 0, 77, 110
2, 114432, Note_on_c, 0, 68, 112
2, 114812, Note_off_c, 0, 77, 100
2, 114812, Note_off_c, 0, 68, 100
2, 114816, Note_on_c, 0, 76, 80
2, 114816, Note_on_c, 0, 69, 80
2, 115196, Note_off_c, 0, 76, 100
2, 115196, Note_off_c, 0, 69, 100
2, 115200, Note_on_c, 0, 74, 80
2, 115200, Note_on_c, 0, 71, 80
2, 115580, Note_off_c, 0, 74, 100
2, 115580, Note_off_c, 0, 71, 100
2, 115584, Note_on_c, 0, 72, 80
2, 115964, Note_off_c, 0, 72, 100
2, 115968, Note_on_c, 0, 71, 80
2, 116348, Note_off_c, 0, 71, 100
2, 116352, Note_on_c, 0, 69, 80
2, 116732, Note_off_c, 0, 69, 100
2, 116736, Note_on_c, 0, 67, 80
2, 117116, Note_off_c, 0, 67, 100
2, 117120, Note_on_c, 0, 66, 80
2, 117500, Note_off_c, 0, 66, 100
2, 117504, Note_on_c, 0, 64, 80
2, 117884, Note_off_c, 0, 64, 100
2, 117888, Note_on_c, 0, 60, 80
2, 118268, Note_off_c, 0, 60, 100
2, 118272, Note_on_c, 0, 59, 80
2, 118652, Note_off_c, 0, 59, 100
2, 118656, Note_on_c, 0, 63, 80
2, 118656, Note_on_c, 0, 57, 80
2, 119036, Note_off_c, 0, 63, 100
2, 119036, Note_off_c, 0, 57, 100
2, 119040, Note_on_c, 0, 64, 80
2, 119040, Note_on_c, 0, 55, 80
2, 119420, Note_off_c, 0, 64, 100
2, 119420, Note_off_c, 0, 55, 100
2, 119808, Note_on_c, 0, 67, 80
2, 119904, Note_on_c, 0, 69, 80
2, 119996, Note_off_c, 0, 67, 100
2, 120000, Note_on_c, 0, 66, 80
2, 120092, Note_off_c, 0, 69, 100
2, 120096, Note_on_c, 0, 67, 80
2, 120188, Note_off_c, 0, 66, 100
2, 120188, Note_off_c, 0, 67, 100
2, 120192, Note_on_c, 0, 76, 80
2, 120572, Note_off_c, 0, 76, 100
2, 120576, Note_on_c, 0, 74, 80
2, 120956, Note_off_c, 0, 74, 100
2, 120960, Note_on_c, 0, 72, 80
2, 121340, Note_off_c, 0, 72, 100
2, 121344, Note_on_c, 0, 81, 111
2, 121344, Note_on_c, 0, 71, 112
2, 121724, Note_off_c, 0, 81, 100
2, 121724, Note_off_c, 0, 71, 100
2, 121728, Note_on_c, 0, 79, 80
2, 121728, Note_on_c, 0, 72, 80
2, 122108, Note_off_c, 0, 79, 100
2, 122108, Note_off_c, 0, 72, 100
2, 122112, Note_on_c, 0, 77, 80
2, 122112, Note_on_c, 0, 74, 80
2, 122492, Note_off_c, 0, 77, 100
2, 122492, Note_off_c, 0, 74, 100
2, 122496, Note_on_c, 0, 76, 80
2, 122876, Note_off_c, 0, 76, 100
2, 122880, Note_on_c, 0, 74, 80
2, 123260, Note_off_c, 0, 74, 100
2, 123264, Note_on_c, 0, 72, 80
2, 123644, Note_off_c, 0, 72, 100
2, 123648, Note_on_c, 0, 82, 111
2, 123648, Note_on_c, 0, 73, 111
2, 124028, Note_off_c, 0, 82, 100
2, 124028, Note_off_c, 0, 73, 100
2, 124032, Note_on_c, 0, 81, 80
2, 124032, Note_on_c, 0, 74, 80
2, 124412, Note_off_c, 0, 81, 100
2, 124412, Note_off_c, 0, 74, 100
2, 124416, Note_on_c, 0, 79, 80
2, 124416, Note_on_c, 0, 76, 80
2, 124796, Note_off_c, 0, 79, 100
2, 124796, Note_off_c, 0, 76, 100
2, 124800, Note_on_c, 0, 77, 80
2, 125180, Note_off_c, 0, 77, 100
2, 125184, Note_on_c, 0, 76, 80
2, 125564, Note_off_c, 0, 76, 100
2, 125568, Note_on_c, 0, 74, 80
2, 125948, Note_off_c, 0, 74, 100
2, 125952, Note_on_c, 0, 72, 80
2, 126332, Note_off_c, 0, 72, 100
2, 126336, Note_on_c, 0, 71, 83
2, 126716, Note_off_c, 0, 71, 100
2, 126720, Note_on_c, 0, 69, 87
2, 127100, Note_off_c, 0, 69, 100
2, 127104, Note_on_c, 0, 68, 90
2, 127484, Note_off_c, 0, 68, 100
2, 127488, Note_on_c, 0, 65, 94
2, 127868, Note_off_c, 0, 65, 100
2, 127872, Note_on_c, 0, 64, 97
2, 128252, Note_off_c, 0, 64, 100
2, 128256, Note_on_c, 0, 62, 101
2, 128636, Note_off_c, 0, 62, 100
2, 128640, Note_on_c, 0, 60, 104
2, 129020, Note_off_c, 0, 60, 100
2, 129024, Note_on_c, 0, 59, 108
2, 129404, Note_off_c, 0, 59, 100
2, 129408, Note_on_c, 0, 72, 113
2, 129408, Note_on_c, 0, 60, 113
2, 129788, Note_off_c, 0, 72, 100
2, 129788, Note_off_c, 0, 60, 100
2, 129792, Note_on_c, 0, 71, 80
2, 130172, Note_off_c, 0, 71, 100
2, 130176, Note_on_c, 0, 69, 80
2, 130556, Note_off_c, 0, 69, 100
2, 130560, Note_on_c, 0, 77, 110
2, 130560, Note_on_c, 0, 68, 112
2, 130940, Note_off_c, 0, 77, 100
2, 130944, Note_on_c, 0, 76, 80
2, 131324, Note_off_c, 0, 76, 100
2, 131328, Note_on_c, 0, 74, 80
2, 131708, Note_off_c, 0, 68, 100
2, 131708, Note_off_c, 0, 74, 100
2, 131712, Note_on_c, 0, 72, 80
2, 132092, Note_off_c, 0, 72, 100
2, 132096, Note_on_c, 0, 71, 80
2, 132476, Note_off_c, 0, 71, 100
2, 132480, Note_on_c, 0, 69, 80
2, 132860, Note_off_c, 0, 69, 100
2, 132864, Note_on_c, 0, 77, 110
2, 132864, Note_on_c, 0, 80, 110
2, 132864, Note_on_c, 0, 68, 110
2, 133244, Note_off_c, 0, 77, 100
2, 133244, Note_off_c, 0, 80, 100
2, 133244, Note_off_c, 0, 68, 100
2, 133248, Note_on_c, 0, 81, 110
2, 133248, Note_on_c, 0, 76, 110
2, 133248, Note_on_c, 0, 69, 110
2, 133628, Note_off_c, 0, 81, 100
2, 133628, Note_off_c, 0, 76, 100
2, 133628, Note_off_c, 0, 69, 100
2, 133632, Note_on_c, 0, 83, 110
2, 133632, Note_on_c, 0, 74, 110
2, 133632, Note_on_c, 0, 71, 110
2, 134012, Note_off_c, 0, 83, 100
2, 134012, Note_off_c, 0, 74, 100
2, 134012, Note_off_c, 0, 71, 100
2, 134016, Note_on_c, 0, 84, 110
2, 134016, Note_on_c, 0, 72, 110
2, 134396, Note_off_c, 0, 84, 100
2, 134396, Note_off_c, 0, 72, 100
2, 134400, Note_on_c, 0, 83, 110
2, 134400, Note_on_c, 0, 71, 110
2, 134780, Note_off_c, 0, 83, 100
2, 134780, Note_off_c, 0, 71, 100
2, 134784, Note_on_c, 0, 81, 110
2, 134784, Note_on_c, 0, 69, 110
2, 135164, Note_off_c, 0, 81, 100
2, 135164, Note_off_c, 0, 69, 100
2, 135168, Note_on_c, 0, 89, 120
2, 135168, Note_on_c, 0, 77, 120
2, 135168, Note_on_c, 0, 80, 120
2, 135548, Note_off_c, 0, 89, 100
2, 135548, Note_off_c, 0, 77, 100
2, 135548, Note_off_c, 0, 80, 100
2, 135552, Note_on_c, 0, 88, 120
2, 135552, Note_on_c, 0, 76, 120
2, 135552, Note_on_c, 0, 81, 120
2, 135932, Note_off_c, 0, 88, 100
2, 135932, Note_off_c, 0, 76, 100
2, 135932, Note_off_c, 0, 81, 100
2, 135936, Note_on_c, 0, 86, 120
2, 135936, Note_on_c, 0, 74, 120
2, 135936, Note_on_c, 0, 83, 120
2, 136316, Note_off_c, 0, 86, 100
2, 136316, Note_off_c, 0, 74, 100
2, 136316, Note_off_c, 0, 83, 100
2, 136320, Note_on_c, 0, 84, 120
2, 136320, Note_on_c, 0, 72, 120
2, 136700, Note_off_c, 0, 84, 100
2, 136700, Note_off_c, 0, 72, 100
2, 136704, Note_on_c, 0, 74, 120
2, 136704, Note_on_c, 0, 77, 120
2, 136704, Note_on_c, 0, 83, 120
2, 136704, Note_on_c, 0, 86, 120
2, 137084, Note_off_c, 0, 74, 100
2, 137084, Note_off_c, 0, 77, 100
2, 137084, Note_off_c, 0, 83, 100
2, 137084, Note_off_c, 0, 86, 100
2, 137088, Note_on_c, 0, 83, 120
2, 137088, Note_on_c, 0, 80, 120
2, 137088, Note_on_c, 0, 74, 120
2, 137088, Note_on_c, 0, 71, 120
2, 137468, Note_off_c, 0, 83, 100
2, 137468, Note_off_c, 0, 80, 100
2, 137468, Note_off_c, 0, 74, 100
2, 137468, Note_off_c, 0, 71, 100
2, 137472, Note_on_c, 0, 81, 120
2, 137472, Note_on_c, 0, 72, 120
2, 137472, Note_on_c, 0, 69, 120
2, 137852, Note_off_c, 0, 81, 100
2, 137852, Note_off_c, 0, 72, 100
2, 137852, Note_off_c, 0, 69, 100
2, 138240, Note_on_c, 0, 67, 80
2, 138336, Note_on_c, 0, 69, 80
2, 138428, Note_off_c, 0, 67, 100
2, 138432, Note_on_c, 0, 66, 80
2, 138524, Note_off_c, 0, 69, 100
2, 138528, Note_on_c, 0, 67, 80
2, 138620, Note_off_c, 0, 66, 100
2, 138620, Note_off_c, 0, 67, 100
2, 138624, Note_on_c, 0, 76, 80
2, 139004, Note_off_c, 0, 76, 100
2, 139008, Note_on_c, 0, 74, 80
2, 139388, Note_off_c, 0, 74, 100
2, 139392, Note_on_c, 0, 72, 80
2, 139772, Note_off_c, 0, 72, 100
2, 139776, Note_on_c, 0, 81, 103
2, 139776, Note_on_c, 0, 71, 100
2, 140156, Note_off_c, 0, 81, 100
2, 140156, Note_off_c, 0, 71, 100
2, 140160, Note_on_c, 0, 79, 80
2, 140160, Note_on_c, 0, 72, 80
2, 140540, Note_off_c, 0, 79, 100
2, 140540, Note_off_c, 0, 72, 100
2, 140544, Note_on_c, 0, 77, 80
2, 140544, Note_on_c, 0, 74, 80
2, 140924, Note_off_c, 0, 77, 100
2, 140924, Note_off_c, 0, 74, 100
2, 140928, Note_on_c, 0, 76, 80
2, 141308, Note_off_c, 0, 76, 100
2, 141312, Note_on_c, 0, 74, 80
2, 141692, Note_off_c, 0, 74, 100
2, 141696, Note_on_c, 0, 72, 80
2, 142076, Note_off_c, 0, 72, 100
2, 142080, Note_on_c, 0, 82, 104
2, 142080, Note_on_c, 0, 73, 102
2, 142460, Note_off_c, 0, 82, 100
2, 142460, Note_off_c, 0, 73, 100
2, 142464, Note_on_c, 0, 81, 80
2, 142464, Note_on_c, 0, 74, 80
2, 142844, Note_off_c, 0, 81, 100
2, 142844, Note_off_c, 0, 74, 100
2, 142848, Note_on_c, 0, 79, 80
2, 142848, Note_on_c, 0, 76, 80
2, 143228, Note_off_c, 0, 79, 100
2, 143228, Note_off_c, 0, 76, 100
2, 143232, Note_on_c, 0, 77, 80
2, 143612, Note_off_c, 0, 77, 100
2, 143616, Note_on_c, 0, 76, 80
2, 143996, Note_off_c, 0, 76, 100
2, 144000, Note_on_c, 0, 74, 80
2, 144380, Note_off_c, 0, 74, 100
2, 144384, Note_on_c, 0, 72, 80
2, 144764, Note_off_c, 0, 72, 100
2, 144768, Note_on_c, 0, 71, 80
2, 145148, Note_off_c, 0, 71, 100
2, 145152, Note_on_c, 0, 69, 80
2, 145532, Note_off_c, 0, 69, 100
2, 145536, Note_on_c, 0, 68, 80
2, 145916, Note_off_c, 0, 68, 100
2, 145920, Note_on_c, 0, 65, 85
2, 146300, Note_off_c, 0, 65, 100
2, 146304, Note_on_c, 0, 64, 91
2, 146684, Note_off_c, 0, 64, 100
2, 146688, Note_on_c, 0, 62, 97
2, 147068, Note_off_c, 0, 62, 100
2, 147072, Note_on_c, 0, 60, 103
2, 147452, Note_off_c, 0, 60, 100
2, 147456, Note_on_c, 0, 59, 109
2, 147836, Note_off_c, 0, 59, 100
2, 147840, Note_on_c, 0, 72, 114
2, 147840, Note_on_c, 0, 60, 114
2, 148220, Note_off_c, 0, 72, 100
2, 148220, Note_off_c, 0, 60, 100
2, 148224, Note_on_c, 0, 71, 80
2, 148604, Note_off_c, 0, 71, 100
2, 148608, Note_on_c, 0, 69, 80
2, 148988, Note_off_c, 0, 69, 100
2, 148992, Note_on_c, 0, 77, 111
2, 148992, Note_on_c, 0, 68, 110
2, 149372, Note_off_c, 0, 77, 100
2, 149376, Note_on_c, 0, 76, 80
2, 149756, Note_off_c, 0, 76, 100
2, 149760, Note_on_c, 0, 74, 80
2, 150140, Note_off_c, 0, 68, 100
2, 150140, Note_off_c, 0, 74, 100
2, 150144, Note_on_c, 0, 72, 80
2, 150524, Note_off_c, 0, 72, 100
2, 150528, Note_on_c, 0, 71, 80
2, 150908, Note_off_c, 0, 71, 100
2, 150912, Note_on_c, 0, 69, 80
2, 151292, Note_off_c, 0, 69, 100
2, 151296, Note_on_c, 0, 77, 120
2, 151296, Note_on_c, 0, 80, 123
2, 151296, Note_on_c, 0, 68, 121
2, 151676, Note_off_c, 0, 77, 100
2, 151676, Note_off_c, 0, 80, 100
2, 151676, Note_off_c, 0, 68, 100
2, 151680, Note_on_c, 0, 81, 110
2, 151680, Note_on_c, 0, 76, 110
2, 151680, Note_on_c, 0, 69, 110
2, 152060, Note_off_c, 0, 81, 100
2, 152060, Note_off_c, 0, 76, 100
2, 152060, Note_off_c, 0, 69, 100
2, 152064, Note_on_c, 0, 83, 110
2, 152064, Note_on_c, 0, 74, 110
2, 152064, Note_on_c, 0, 71, 110
2, 152444, Note_off_c, 0, 83, 100
2, 152444, Note_off_c, 0, 74, 100
2, 152444, Note_off_c, 0, 71, 100
2, 152448, Note_on_c, 0, 84, 110
2, 152448, Note_on_c, 0, 72, 110
2, 152828, Note_off_c, 0, 84, 100
2, 152828, Note_off_c, 0, 72, 100
2, 152832, Note_on_c, 0, 83, 110
2, 152832, Note_on_c, 0, 71, 110
2, 153212, Note_off_c, 0, 83, 100
2, 153212, Note_off_c, 0, 71, 100
2, 153216, Note_on_c, 0, 81, 110
2, 153216, Note_on_c, 0, 69, 110
2, 153596, Note_off_c, 0, 81, 100
2, 153596, Note_off_c, 0, 69, 100
2, 153600, Note_on_c, 0, 89, 120
2, 153600, Note_on_c, 0, 77, 120
2, 153600, Note_on_c, 0, 80, 120
2, 153980, Note_off_c, 0, 89, 100
2, 153980, Note_off_c, 0, 77, 100
2, 153980, Note_off_c, 0, 80, 100
2, 153984, Note_on_c, 0, 88, 120
2, 153984, Note_on_c, 0, 76, 120
2, 153984, Note_on_c, 0, 81, 120
2, 154364, Note_off_c, 0, 88, 100
2, 154364, Note_off_c, 0, 76, 100
2, 154364, Note_off_c, 0, 81, 100
2, 154368, Note_on_c, 0, 86, 120
2, 154368, Note_on_c, 0, 74, 120
2, 154368, Note_on_c, 0, 83, 120
2, 154748, Note_off_c, 0, 86, 100
2, 154748, Note_off_c, 0, 74, 100
2, 154748, Note_off_c, 0, 83, 100
2, 154752, Note_on_c, 0, 84, 120
2, 154752, Note_on_c, 0, 72, 120
2, 155132, Note_off_c, 0, 84, 100
2, 155132, Note_off_c, 0, 72, 100
2, 155136, Note_on_c, 0, 74, 120
2, 155136, Note_on_c, 0, 77, 120
2, 155136, Note_on_c, 0, 83, 120
2, 155136, Note_on_c, 0, 86, 120
2, 155516, Note_off_c, 0, 74, 100
2, 155516, Note_off_c, 0, 77, 100
2, 155516, Note_off_c, 0, 83, 100
2, 155516, Note_off_c, 0, 86, 100
2, 155520, Note_on_c, 0, 83, 120
2, 155520, Note_on_c, 0, 80, 120
2, 155520, Note_on_c, 0, 74, 120
2, 155520, Note_on_c, 0, 71, 120
2, 155900, Note_off_c, 0, 83, 100
2, 155900, Note_off_c, 0, 80, 100
2, 155900, Note_off_c, 0, 74, 100
2, 155900, Note_off_c, 0, 71, 100
2, 155904, Note_on_c, 0, 81, 120
2, 155904, Note_on_c, 0, 72, 120
2, 155904, Note_on_c, 0, 69, 120
2, 156284, Note_off_c, 0, 81, 100
2, 156284, Note_off_c, 0, 72, 100
2, 156284, Note_off_c, 0, 69, 100
2, 156672, Note_on_c, 0, 81, 80
2, 156768, Note_on_c, 0, 76, 80
2, 156860, Note_off_c, 0, 81, 100
2, 156864, Note_on_c, 0, 85, 80
2, 156956, Note_off_c, 0, 76, 100
2, 156960, Note_on_c, 0, 81, 80
2, 157052, Note_off_c, 0, 85, 100
2, 157056, Key_signature, 3, "major"
2, 157056, Note_on_c, 0, 88, 80
2, 157148, Note_off_c, 0, 81, 100
2, 157436, Note_off_c, 0, 88, 100
2, 157824, Note_on_c, 0, 73, 80
2, 157920, Note_on_c, 0, 69, 80
2, 158012, Note_off_c, 0, 73, 100
2, 158016, Note_on_c, 0, 76, 80
2, 158108, Note_off_c, 0, 69, 100
2, 158112, Note_on_c, 0, 73, 80
2, 158204, Note_off_c, 0, 76, 100
2, 158208, Note_on_c, 0, 81, 80
2, 158300, Note_off_c, 0, 73, 100
2, 158588, Note_off_c, 0, 81, 100
2, 158976, Note_on_c, 0, 61, 80
2, 159072, Note_on_c, 0, 57, 80
2, 159164, Note_off_c, 0, 61, 100
2, 159168, Note_on_c, 0, 64, 80
2, 159260, Note_off_c, 0, 57, 100
2, 159264, Note_on_c, 0, 61, 80
2, 159356, Note_off_c, 0, 64, 100
2, 159360, Note_on_c, 0, 69, 80
2, 159452, Note_off_c, 0, 61, 100
2, 159740, Note_off_c, 0, 69, 100
2, 159744, Note_on_c, 0, 69, 80
2, 159744, Note_on_c, 0, 63, 80
2, 159744, Note_on_c, 0, 59, 80
2, 160124, Note_off_c, 0, 69, 100
2, 160124, Note_off_c, 0, 63, 100
2, 160124, Note_off_c, 0, 59, 100
2, 160128, Note_on_c, 0, 69, 80
2, 160128, Note_on_c, 0, 66, 80
2, 160128, Note_on_c, 0, 59, 80
2, 160508, Note_off_c, 0, 69, 100
2, 160508, Note_off_c, 0, 66, 100
2, 160508, Note_off_c, 0, 59, 100
2, 160512, Note_on_c, 0, 66, 80
2, 160512, Note_on_c, 0, 69, 80
2, 160512, Note_on_c, 0, 59, 80
2, 160892, Note_off_c, 0, 66, 100
2, 160892, Note_off_c, 0, 69, 100
2, 160896, Note_on_c, 0, 68, 80
2, 160896, Note_on_c, 0, 64, 80
2, 161276, Note_off_c, 0, 59, 100
2, 161276, Note_off_c, 0, 68, 100
2, 161276, Note_off_c, 0, 64, 100
2, 161280, Note_on_c, 0, 80, 80
2, 161376, Note_on_c, 0, 76, 80
2, 161468, Note_off_c, 0, 80, 100
2, 161472, Note_on_c, 0, 83, 80
2, 161564, Note_off_c, 0, 76, 100
2, 161568, Note_on_c, 0, 80, 80
2, 161660, Note_off_c, 0, 83, 100
2, 161664, Note_on_c, 0, 86, 80
2, 161756, Note_off_c, 0, 80, 100
2, 162044, Note_off_c, 0, 86, 100
2, 162432, Note_on_c, 0, 68, 80
2, 162528, Note_on_c, 0, 64, 80
2, 162620, Note_off_c, 0, 68, 100
2, 162624, Note_on_c, 0, 71, 80
2, 162716, Note_off_c, 0, 64, 100
2, 162720, Note_on_c, 0, 68, 80
2, 162812, Note_off_c, 0, 71, 100
2, 162816, Note_on_c, 0, 74, 80
2, 162908, Note_off_c, 0, 68, 100
2, 163196, Note_off_c, 0, 74, 100
2, 163584, Note_on_c, 0, 62, 80
2, 163680, Note_on_c, 0, 59, 80
2, 163772, Note_off_c, 0, 62, 100
2, 163776, Note_on_c, 0, 64, 80
2, 163868, Note_off_c, 0, 59, 100
2, 163872, Note_on_c, 0, 62, 80
2, 163964, Note_off_c, 0, 64, 100
2, 163968, Note_on_c, 0, 68, 80
2, 164060, Note_off_c, 0, 62, 100
2, 164348, Note_off_c, 0, 68, 100
2, 164352, Note_on_c, 0, 68, 80
2, 164352, Note_on_c, 0, 62, 80
2, 164732, Note_off_c, 0, 68, 100
2, 164732, Note_off_c, 0, 62, 100
2, 164736, Note_on_c, 0, 68, 80
2, 164736, Note_on_c, 0, 62, 80
2, 165116, Note_off_c, 0, 68, 100
2, 165116, Note_off_c, 0, 62, 100
2, 165120, Note_on_c, 0, 71, 80
2, 165120, Note_on_c, 0, 62, 80
2, 165500, Note_off_c, 0, 71, 100
2, 165500, Note_off_c, 0, 62, 100
2, 165504, Note_on_c, 0, 69, 80
2, 165504, Note_on_c, 0, 61, 80
2, 165884, Note_off_c, 0, 69, 100
2, 165884, Note_off_c, 0, 61, 100
2, 165888, Note_on_c, 0, 81, 80
2, 165984, Note_on_c, 0, 76, 80
2, 166076, Note_off_c, 0, 81, 100
2, 166080, Note_on_c, 0, 85, 80
2, 166172, Note_off_c, 0, 76, 100
2, 166176, Note_on_c, 0, 81, 80
2, 166268, Note_off_c, 0, 85, 100
2, 166272, Note_on_c, 0, 88, 80
2, 166364, Note_off_c, 0, 81, 100
2, 166652, Note_off_c, 0, 88, 100
2, 167040, Note_on_c, 0, 73, 80
2, 167136, Note_on_c, 0, 69, 80
2, 167228, Note_off_c, 0, 73, 100
2, 167232, Note_on_c, 0, 76, 80
2, 167324, Note_off_c, 0, 69, 100
2, 167328, Note_on_c, 0, 73, 80
2, 167420, Note_off_c, 0, 76, 100
2, 167424, Note_on_c, 0, 81, 80
2, 167516, Note_off_c, 0, 73, 100
2, 167804, Note_off_c, 0, 81, 100
2, 168192, Note_on_c, 0, 61, 80
2, 168288, Note_on_c, 0, 57, 80
2, 168380, Note_off_c, 0, 61, 100
2, 168384, Note_on_c, 0, 64, 80
2, 168476, Note_off_c, 0, 57, 100
2, 168480, Note_on_c, 0, 61, 80
2, 168572, Note_off_c, 0, 64, 100
2, 168576, Note_on_c, 0, 69, 80
2, 168668, Note_off_c, 0, 61, 100
2, 168956, Note_off_c, 0, 69, 100
2, 168960, Note_on_c, 0, 69, 80
2, 168960, Note_on_c, 0, 63, 80
2, 168960, Note_on_c, 0, 59, 80
2, 169340, Note_off_c, 0, 69, 100
2, 169340, Note_off_c, 0, 63, 100
2, 169340, Note_off_c, 0, 59, 100
2, 169344, Note_on_c, 0, 69, 80
2, 169344, Note_on_c, 0, 66, 80
2, 169344, Note_on_c, 0, 59, 80
2, 169724, Note_off_c, 0, 69, 100
2, 169724, Note_off_c, 0, 66, 100
2, 169724, Note_off_c, 0, 59, 100
2, 169728, Note_on_c, 0, 66, 80
2, 169728, Note_on_c, 0, 69, 80
2, 169728, Note_on_c, 0, 59, 80
2, 170108, Note_off_c, 0, 66, 100
2, 170108, Note_off_c, 0, 69, 100
2, 170112, Note_on_c, 0, 68, 80
2, 170112, Note_on_c, 0, 64, 80
2, 170492, Note_off_c, 0, 59, 100
2, 170492, Note_off_c, 0, 68, 100
2, 170492, Note_off_c, 0, 64, 100
2, 170496, Note_on_c, 0, 80, 80
2, 170592, Note_on_c, 0, 76, 80
2, 170684, Note_off_c, 0, 80, 100
2, 170688, Note_on_c, 0, 83, 80
2, 170780, Note_off_c, 0, 76, 100
2, 170784, Note_on_c, 0, 80, 80
2, 170876, Note_off_c, 0, 83, 100
2, 170880, Note_on_c, 0, 86, 80
2, 170972, Note_off_c, 0, 80, 100
2, 171260, Note_off_c, 0, 86, 100
2, 171648, Note_on_c, 0, 68, 80
2, 171744, Note_on_c, 0, 64, 80
2, 171836, Note_off_c, 0, 68, 100
2, 171840, Note_on_c, 0, 71, 80
2, 171932, Note_off_c, 0, 64, 100
2, 171936, Note_on_c, 0, 68, 80
2, 172028, Note_off_c, 0, 71, 100
2, 172032, Note_on_c, 0, 74, 80
2, 172124, Note_off_c, 0, 68, 100
2, 172412, Note_off_c, 0, 74, 100
2, 172800, Note_on_c, 0, 62, 80
2, 172896, Note_on_c, 0, 59, 80
2, 172988, Note_off_c, 0, 62, 100
2, 172992, Note_on_c, 0, 64, 80
2, 173084, Note_off_c, 0, 59, 100
2, 173088, Note_on_c, 0, 62, 80
2, 173180, Note_off_c, 0, 64, 100
2, 173184, Note_on_c, 0, 68, 80
2, 173276, Note_off_c, 0, 62, 100
2, 173564, Note_off_c, 0, 68, 100
2, 173568, Note_on_c, 0, 68, 80
2, 173568, Note_on_c, 0, 62, 80
2, 173948, Note_off_c, 0, 68, 100
2, 173948, Note_off_c, 0, 62, 100
2, 173952, Note_on_c, 0, 68, 80
2, 173952, Note_on_c, 0, 62, 80
2, 174332, Note_off_c, 0, 68, 100
2, 174332, Note_off_c, 0, 62, 100
2, 174336, Note_on_c, 0, 71, 80
2, 174336, Note_on_c, 0, 62, 80
2, 174716, Note_off_c, 0, 71, 100
2, 174716, Note_off_c, 0, 62, 100
2, 174720, Note_on_c, 0, 69, 80
2, 174720, Note_on_c, 0, 61, 80
2, 175100, Note_off_c, 0, 69, 100
2, 175100, Note_off_c, 0, 61, 100
2, 175872, Note_on_c, 0, 76, 86
2, 175872, Note_on_c, 0, 71, 86
2, 175872, Note_on_c, 0, 68, 86
2, 176252, Note_off_c, 0, 76, 100
2, 176252, Note_off_c, 0, 71, 100
2, 176252, Note_off_c, 0, 68, 100
2, 177024, Note_on_c, 0, 78, 97
2, 177024, Note_on_c, 0, 71, 97
2, 177024, Note_on_c, 0, 66, 97
2, 177404, Note_off_c, 0, 78, 100
2, 177404, Note_off_c, 0, 71, 100
2, 177404, Note_off_c, 0, 66, 100
2, 178176, Note_on_c, 0, 80, 107
2, 178176, Note_on_c, 0, 77, 107
2, 178176, Note_on_c, 0, 71, 107
2, 178176, Note_on_c, 0, 68, 107
2, 178556, Note_off_c, 0, 80, 100
2, 178556, Note_off_c, 0, 77, 100
2, 178556, Note_off_c, 0, 71, 100
2, 178556, Note_off_c, 0, 68, 100
2, 178944, Note_on_c, 0, 77, 110
2, 178944, Note_on_c, 0, 71, 110
2, 178944, Note_on_c, 0, 68, 110
2, 179324, Note_off_c, 0, 77, 100
2, 179324, Note_off_c, 0, 71, 100
2, 179324, Note_off_c, 0, 68, 100
2, 179328, Note_on_c, 0, 69, 110
2, 179328, Note_on_c, 0, 78, 110
2, 179708, Note_off_c, 0, 69, 100
2, 179708, Note_off_c, 0, 78, 100
2, 180480, Note_on_c, 0, 78, 86
2, 180480, Note_on_c, 0, 73, 86
2, 180480, Note_on_c, 0, 69, 86
2, 180860, Note_off_c, 0, 78, 100
2, 180860, Note_off_c, 0, 73, 100
2, 180860, Note_off_c, 0, 69, 100
2, 181632, Note_on_c, 0, 80, 97
2, 181632, Note_on_c, 0, 73, 97
2, 181632, Note_on_c, 0, 68, 97
2, 182012, Note_off_c, 0, 80, 100
2, 182012, Note_off_c, 0, 73, 100
2, 182012, Note_off_c, 0, 68, 100
2, 182784, Note_on_c, 0, 82, 107
2, 182784, Note_on_c, 0, 79, 107
2, 182784, Note_on_c, 0, 73, 107
2, 182784, Note_on_c, 0, 70, 107
2, 183164, Note_off_c, 0, 82, 100
2, 183164, Note_off_c, 0, 79, 100
2, 183164, Note_off_c, 0, 73, 100
2, 183164, Note_off_c, 0, 70, 100
2, 183552, Note_on_c, 0, 79, 110
2, 183552, Note_on_c, 0, 73, 110
2, 183552, Note_on_c, 0, 70, 110
2, 183932, Note_off_c, 0, 79, 100
2, 183932, Note_off_c, 0, 73, 100
2, 183932, Note_off_c, 0, 70, 100
2, 183936, Note_on_c, 0, 71, 110
2, 183936, Note_on_c, 0, 80, 110
2, 184316, Note_off_c, 0, 71, 100
2, 184316, Note_off_c, 0, 80, 100
2, 184704, Note_on_c, 0, 75, 120
2, 184704, Note_on_c, 0, 68, 120
2, 185084, Note_off_c, 0, 75, 100
2, 185084, Note_off_c, 0, 68, 100
2, 185088, Note_on_c, 0, 76, 120
2, 185088, Note_on_c, 0, 68, 120
2, 185468, Note_off_c, 0, 76, 100
2, 185468, Note_off_c, 0, 68, 100
2, 186240, Note_on_c, 0, 68, 80
2, 186240, Note_on_c, 0, 63, 80
2, 186620, Note_off_c, 0, 68, 100
2, 186620, Note_off_c, 0, 63, 100
2, 186624, Note_on_c, 0, 67, 80
2, 186624, Note_on_c, 0, 61, 80
2, 187004, Note_off_c, 0, 67, 100
2, 187004, Note_off_c, 0, 61, 100
2, 187008, Note_on_c, 0, 68, 80
2, 187008, Note_on_c, 0, 59, 80
2, 187388, Note_off_c, 0, 68, 100
2, 187388, Note_off_c, 0, 59, 100
2, 187392, Note_on_c, 0, 75, 80
2, 187772, Note_off_c, 0, 75, 100
2, 187776, Note_on_c, 0, 75, 80
2, 188156, Note_off_c, 0, 75, 100
2, 188160, Note_on_c, 0, 75, 80
2, 188924, Note_off_c, 0, 75, 100
2, 188928, Note_on_c, 0, 67, 80
2, 189308, Note_off_c, 0, 67, 100
2, 189312, Note_on_c, 0, 68, 80
2, 189692, Note_off_c, 0, 68, 100
2, 189696, Note_on_c, 0, 70, 80
2, 190076, Note_off_c, 0, 70, 100
2, 190080, Note_on_c, 0, 71, 80
2, 190460, Note_off_c, 0, 71, 100
2, 190464, Note_on_c, 0, 71, 80
2, 190560, Note_on_c, 0, 70, 80
2, 190652, Note_off_c, 0, 71, 100
2, 190844, Note_off_c, 0, 70, 100
2, 190848, Note_on_c, 0, 68, 80
2, 191228, Note_off_c, 0, 68, 100
2, 191232, Note_on_c, 0, 67, 80
2, 191328, Note_on_c, 0, 68, 80
2, 191420, Note_off_c, 0, 67, 100
2, 191424, Note_on_c, 0, 65, 80
2, 191516, Note_off_c, 0, 68, 100
2, 191520, Note_on_c, 0, 67, 80
2, 191612, Note_off_c, 0, 65, 100
2, 191612, Note_off_c, 0, 67, 100
2, 191616, Note_on_c, 0, 68, 80
2, 191996, Note_off_c, 0, 68, 100
2, 192000, Note_on_c, 0, 75, 80
2, 192380, Note_off_c, 0, 75, 100
2, 192384, Note_on_c, 0, 75, 80
2, 192764, Note_off_c, 0, 75, 100
2, 192768, Note_on_c, 0, 75, 80
2, 193532, Note_off_c, 0, 75, 100
2, 193536, Note_on_c, 0, 67, 80
2, 193916, Note_off_c, 0, 67, 100
2, 193920, Note_on_c, 0, 68, 80
2, 194304, Note_on_c, 0, 75, 81
2, 194684, Note_off_c, 0, 75, 100
2, 194688, Note_on_c, 0, 75, 83
2, 195068, Note_off_c, 0, 68, 100
2, 195068, Note_off_c, 0, 75, 100
2, 195072, Note_on_c, 0, 75, 85
2, 195456, Note_on_c, 0, 69, 87
2, 195836, Note_off_c, 0, 69, 100
2, 195840, Note_on_c, 0, 69, 89
2, 196220, Note_off_c, 0, 75, 100
2, 196220, Note_off_c, 0, 69, 100
2, 196224, Note_on_c, 0, 68, 90
2, 196608, Note_on_c, 0, 74, 87
2, 196988, Note_off_c, 0, 74, 100
2, 196992, Note_on_c, 0, 74, 83
2, 197372, Note_off_c, 0, 68, 100
2, 197372, Note_off_c, 0, 74, 100
2, 197376, Note_on_c, 0, 73, 79
2, 197760, Note_on_c, 0, 67, 75
2, 198140, Note_off_c, 0, 67, 100
2, 198144, Note_on_c, 0, 67, 71
2, 198524, Note_off_c, 0, 73, 100
2, 198524, Note_off_c, 0, 67, 100
2, 198528, Note_on_c, 0, 66, 70
2, 198912, Note_on_c, 0, 74, 70
2, 199292, Note_off_c, 0, 74, 100
2, 199296, Note_on_c, 0, 74, 70
2, 199676, Note_off_c, 0, 66, 100
2, 199676, Note_off_c, 0, 74, 100
2, 199680, Note_on_c, 0, 68, 70
2, 199680, Note_on_c, 0, 62, 70
2, 200064, Note_on_c, 0, 74, 70
2, 200444, Note_off_c, 0, 74, 100
2, 200448, Note_on_c, 0, 74, 70
2, 200828, Note_off_c, 0, 68, 100
2, 200828, Note_off_c, 0, 62, 100
2, 200828, Note_off_c, 0, 74, 100
2, 202752, Note_on_c, 0, 81, 80
2, 202848, Note_on_c, 0, 76, 80
2, 202940, Note_off_c, 0, 81, 100
2, 202944, Note_on_c, 0, 85, 80
2, 203036, Note_off_c, 0, 76, 100
2, 203040, Note_on_c, 0, 81, 80
2, 203132, Note_off_c, 0, 85, 100
2, 203136, Note_on_c, 0, 88, 80
2, 203228, Note_off_c, 0, 81, 100
2, 203516, Note_off_c, 0, 88, 100
2, 203904, Note_on_c, 0, 73, 80
2, 204000, Note_on_c, 0, 69, 80
2, 204092, Note_off_c, 0, 73, 100
2, 204096, Note_on_c, 0, 76, 80
2, 204188, Note_off_c, 0, 69, 100
2, 204192, Note_on_c, 0, 73, 80
2, 204284, Note_off_c, 0, 76, 100
2, 204288, Note_on_c, 0, 81, 80
2, 204380, Note_off_c, 0, 73, 100
2, 204668, Note_off_c, 0, 81, 100
2, 205056, Note_on_c, 0, 61, 80
2, 205152, Note_on_c, 0, 57, 80
2, 205244, Note_off_c, 0, 61, 100
2, 205248, Note_on_c, 0, 64, 80
2, 205340, Note_off_c, 0, 57, 100
2, 205344, Note_on_c, 0, 61, 80
2, 205436, Note_off_c, 0, 64, 100
2, 205440, Note_on_c, 0, 69, 80
2, 205532, Note_off_c, 0, 61, 100
2, 205820, Note_off_c, 0, 69, 100
2, 205824, Note_on_c, 0, 69, 80
2, 205824, Note_on_c, 0, 63, 80
2, 205824, Note_on_c, 0, 59, 80
2, 206204, Note_off_c, 0, 69, 100
2, 206204, Note_off_c, 0, 63, 100
2, 206204, Note_off_c, 0, 59, 100
2, 206208, Note_on_c, 0, 69, 80
2, 206208, Note_on_c, 0, 66, 80
2, 206208, Note_on_c, 0, 59, 80
2, 206588, Note_off_c, 0, 69, 100
2, 206588, Note_off_c, 0, 66, 100
2, 206588, Note_off_c, 0, 59, 100
2, 206592, Note_on_c, 0, 66, 80
2, 206592, Note_on_c, 0, 69, 80
2, 206592, Note_on_c, 0, 59, 80
2, 206972, Note_off_c, 0, 66, 100
2, 206972, Note_off_c, 0, 69, 100
2, 206976, Note_on_c, 0, 68, 80
2, 206976, Note_on_c, 0, 64, 80
2, 207356, Note_off_c, 0, 59, 100
2, 207356, Note_off_c, 0, 68, 100
2, 207356, Note_off_c, 0, 64, 100
2, 207360, Note_on_c, 0, 80, 80
2, 207456, Note_on_c, 0, 76, 80
2, 207548, Note_off_c, 0, 80, 100
2, 207552, Note_on_c, 0, 83, 80
2, 207644, Note_off_c, 0, 76, 100
2, 207648, Note_on_c, 0, 80, 80
2, 207740, Note_off_c, 0, 83, 100
2, 207744, Note_on_c, 0, 86, 80
2, 207836, Note_off_c, 0, 80, 100
2, 208124, Note_off_c, 0, 86, 100
2, 208512, Note_on_c, 0, 68, 80
2, 208608, Note_on_c, 0, 64, 80
2, 208700, Note_off_c, 0, 68, 100
2, 208704, Note_on_c, 0, 71, 80
2, 208796, Note_off_c, 0, 64, 100
2, 208800, Note_on_c, 0, 68, 80
2, 208892, Note_off_c, 0, 71, 100
2, 208896, Note_on_c, 0, 74, 80
2, 208988, Note_off_c, 0, 68, 100
2, 209276, Note_off_c, 0, 74, 100
2, 209664, Note_on_c, 0, 62, 80
2, 209760, Note_on_c, 0, 59, 80
2, 209852, Note_off_c, 0, 62, 100
2, 209856, Note_on_c, 0, 64, 80
2, 209948, Note_off_c, 0, 59, 100
2, 209952, Note_on_c, 0, 62, 80
2, 210044, Note_off_c, 0, 64, 100
2, 210048, Note_on_c, 0, 68, 80
2, 210140, Note_off_c, 0, 62, 100
2, 210428, Note_off_c, 0, 68, 100
2, 210432, Note_on_c, 0, 68, 80
2, 210432, Note_on_c, 0, 62, 80
2, 210812, Note_off_c, 0, 68, 100
2, 210812, Note_off_c, 0, 62, 100
2, 210816, Note_on_c, 0, 68, 80
2, 210816, Note_on_c, 0, 62, 80
2, 211196, Note_off_c, 0, 68, 100
2, 211196, Note_off_c, 0, 62, 100
2, 211200, Note_on_c, 0, 71, 80
2, 211200, Note_on_c, 0, 62, 80
2, 211580, Note_off_c, 0, 71, 100
2, 211580, Note_off_c, 0, 62, 100
2, 211584, Note_on_c, 0, 69, 80
2, 211584, Note_on_c, 0, 61, 80
2, 211964, Note_off_c, 0, 69, 100
2, 211964, Note_off_c, 0, 61, 100
2, 212736, Note_on_c, 0, 73, 110
2, 212736, Note_on_c, 0, 69, 110
2, 212736, Note_on_c, 0, 64, 110
2, 212736, Note_on_c, 0, 61, 110
2, 213116, Note_off_c, 0, 73, 100
2, 213116, Note_off_c, 0, 69, 100
2, 213116, Note_off_c, 0, 64, 100
2, 213116, Note_off_c, 0, 61, 100
2, 213888, Note_on_c, 0, 78, 110
2, 213888, Note_on_c, 0, 74, 110
2, 213888, Note_on_c, 0, 66, 110
2, 214268, Note_off_c, 0, 78, 100
2, 214268, Note_off_c, 0, 74, 100
2, 214268, Note_off_c, 0, 66, 100
2, 215040, Note_on_c, 0, 80, 120
2, 215040, Note_on_c, 0, 74, 120
2, 215040, Note_on_c, 0, 71, 120
2, 215040, Note_on_c, 0, 68, 120
2, 215420, Note_off_c, 0, 80, 100
2, 215420, Note_off_c, 0, 74, 100
2, 215420, Note_off_c, 0, 71, 100
2, 215420, Note_off_c, 0, 68, 100
2, 215808, Note_on_c, 0, 81, 120
2, 215808, Note_on_c, 0, 76, 120
2, 215808, Note_on_c, 0, 73, 120
2, 215808, Note_on_c, 0, 69, 120
2, 216188, Note_off_c, 0, 81, 100
2, 216188, Note_off_c, 0, 76, 100
2, 216188, Note_off_c, 0, 73, 100
2, 216188, Note_off_c, 0, 69, 100
2, 217344, Note_on_c, 0, 76, 86
2, 217344, Note_on_c, 0, 71, 86
2, 217344, Note_on_c, 0, 68, 86
2, 217724, Note_off_c, 0, 76, 100
2, 217724, Note_off_c, 0, 71, 100
2, 217724, Note_off_c, 0, 68, 100
2, 218496, Note_on_c, 0, 78, 97
2, 218496, Note_on_c, 0, 71, 97
2, 218496, Note_on_c, 0, 66, 97
2, 218876, Note_off_c, 0, 78, 100
2, 218876, Note_off_c, 0, 71, 100
2, 218876, Note_off_c, 0, 66, 100
2, 219648, Note_on_c, 0, 80, 107
2, 219648, Note_on_c, 0, 77, 107
2, 219648, Note_on_c, 0, 71, 107
2, 219648, Note_on_c, 0, 68, 107
2, 220028, Note_off_c, 0, 80, 100
2, 220028, Note_off_c, 0, 77, 100
2, 220028, Note_off_c, 0, 71, 100
2, 220028, Note_off_c, 0, 68, 100
2, 220416, Note_on_c, 0, 77, 110
2, 220416, Note_on_c, 0, 71, 110
2, 220416, Note_on_c, 0, 68, 110
2, 220796, Note_off_c, 0, 77, 100
2, 220796, Note_off_c, 0, 71, 100
2, 220796, Note_off_c, 0, 68, 100
2, 220800, Note_on_c, 0, 69, 110
2, 220800, Note_on_c, 0, 78, 110
2, 221180, Note_off_c, 0, 69, 100
2, 221180, Note_off_c, 0, 78, 100
2, 221952, Note_on_c, 0, 78, 86
2, 221952, Note_on_c, 0, 73, 86
2, 221952, Note_on_c, 0, 69, 86
2, 222332, Note_off_c, 0, 78, 100
2, 222332, Note_off_c, 0, 73, 100
2, 222332, Note_off_c, 0, 69, 100
2, 223104, Note_on_c, 0, 80, 97
2, 223104, Note_on_c, 0, 73, 97
2, 223104, Note_on_c, 0, 68, 97
2, 223484, Note_off_c, 0, 80, 100
2, 223484, Note_off_c, 0, 73, 100
2, 223484, Note_off_c, 0, 68, 100
2, 224256, Note_on_c, 0, 82, 107
2, 224256, Note_on_c, 0, 79, 107
2, 224256, Note_on_c, 0, 73, 107
2, 224256, Note_on_c, 0, 70, 107
2, 224636, Note_off_c, 0, 82, 100
2, 224636, Note_off_c, 0, 79, 100
2, 224636, Note_off_c, 0, 73, 100
2, 224636, Note_off_c, 0, 70, 100
2, 225024, Note_on_c, 0, 79, 110
2, 225024, Note_on_c, 0, 73, 110
2, 225024, Note_on_c, 0, 70, 110
2, 225404, Note_off_c, 0, 79, 100
2, 225404, Note_off_c, 0, 73, 100
2, 225404, Note_off_c, 0, 70, 100
2, 225408, Note_on_c, 0, 71, 110
2, 225408, Note_on_c, 0, 80, 110
2, 225788, Note_off_c, 0, 71, 100
2, 225788, Note_off_c, 0, 80, 100
2, 226176, Note_on_c, 0, 75, 120
2, 226176, Note_on_c, 0, 68, 120
2, 226556, Note_off_c, 0, 75, 100
2, 226556, Note_off_c, 0, 68, 100
2, 226560, Note_on_c, 0, 76, 120
2, 226560, Note_on_c, 0, 68, 120
2, 226940, Note_off_c, 0, 76, 100
2, 226940, Note_off_c, 0, 68, 100
2, 227712, Note_on_c, 0, 68, 80
2, 227712, Note_on_c, 0, 63, 80
2, 228092, Note_off_c, 0, 68, 100
2, 228092, Note_off_c, 0, 63, 100
2, 228096, Note_on_c, 0, 67, 80
2, 228096, Note_on_c, 0, 61, 80
2, 228476, Note_off_c, 0, 67, 100
2, 228476, Note_off_c, 0, 61, 100
2, 228480, Note_on_c, 0, 68, 80
2, 228480, Note_on_c, 0, 59, 80
2, 228860, Note_off_c, 0, 68, 100
2, 228860, Note_off_c, 0, 59, 100
2, 228864, Note_on_c, 0, 75, 80
2, 229244, Note_off_c, 0, 75, 100
2, 229248, Note_on_c, 0, 75, 80
2, 229628, Note_off_c, 0, 75, 100
2, 229632, Note_on_c, 0, 75, 80
2, 230396, Note_off_c, 0, 75, 100
2, 230400, Note_on_c, 0, 67, 80
2, 230780, Note_off_c, 0, 67, 100
2, 230784, Note_on_c, 0, 68, 80
2, 231164, Note_off_c, 0, 68, 100
2, 231168, Note_on_c, 0, 70, 80
2, 231548, Note_off_c, 0, 70, 100
2, 231552, Note_on_c, 0, 71, 80
2, 231932, Note_off_c, 0, 71, 100
2, 231936, Note_on_c, 0, 71, 80
2, 232032, Note_on_c, 0, 70, 80
2, 232124, Note_off_c, 0, 71, 100
2, 232316, Note_off_c, 0, 70, 100
2, 232320, Note_on_c, 0, 68, 80
2, 232700, Note_off_c, 0, 68, 100
2, 232704, Note_on_c, 0, 67, 80
2, 232800, Note_on_c, 0, 68, 80
2, 232892, Note_off_c, 0, 67, 100
2, 232896, Note_on_c, 0, 65, 80
2, 232988, Note_off_c, 0, 68, 100
2, 232992, Note_on_c, 0, 67, 80
2, 233084, Note_off_c, 0, 65, 100
2, 233084, Note_off_c, 0, 67, 100
2, 233088, Note_on_c, 0, 68, 80
2, 233468, Note_off_c, 0, 68, 100
2, 233472, Note_on_c, 0, 75, 80
2, 233852, Note_off_c, 0, 75, 100
2, 233856, Note_on_c, 0, 75, 80
2, 234236, Note_off_c, 0, 75, 100
2, 234240, Note_on_c, 0, 75, 80
2, 235004, Note_off_c, 0, 75, 100
2, 235008, Note_on_c, 0, 67, 80
2, 235388, Note_off_c, 0, 67, 100
2, 235392, Note_on_c, 0, 68, 80
2, 235776, Note_on_c, 0, 75, 81
2, 236156, Note_off_c, 0, 75, 100
2, 236160, Note_on_c, 0, 75, 83
2, 236540, Note_off_c, 0, 68, 100
2, 236540, Note_off_c, 0, 75, 100
2, 236544, Note_on_c, 0, 75, 85
2, 236928, Note_on_c, 0, 69, 87
2, 237308, Note_off_c, 0, 69, 100
2, 237312, Note_on_c, 0, 69, 89
2, 237692, Note_off_c, 0, 75, 100
2, 237692, Note_off_c, 0, 69, 100
2, 237696, Note_on_c, 0, 68, 90
2, 238080, Note_on_c, 0, 74, 87
2, 238460, Note_off_c, 0, 74, 100
2, 238464, Note_on_c, 0, 74, 83
2, 238844, Note_off_c, 0, 68, 100
2, 238844, Note_off_c, 0, 74, 100
2, 238848, Note_on_c, 0, 73, 79
2, 239232, Note_on_c, 0, 67, 75
2, 239612, Note_off_c, 0, 67, 100
2, 239616, Note_on_c, 0, 67, 71
2, 239996, Note_off_c, 0, 73, 100
2, 239996, Note_off_c, 0, 67, 100
2, 240000, Note_on_c, 0, 66, 70
2, 240384, Note_on_c, 0, 74, 70
2, 240764, Note_off_c, 0, 74, 100
2, 240768, Note_on_c, 0, 74, 70
2, 241148, Note_off_c, 0, 66, 100
2, 241148, Note_off_c, 0, 74, 100
2, 241152, Note_on_c, 0, 68, 70
2, 241152, Note_on_c, 0, 62, 70
2, 241536, Note_on_c, 0, 74, 70
2, 241916, Note_off_c, 0, 74, 100
2, 241920, Note_on_c, 0, 74, 70
2, 242300, Note_off_c, 0, 68, 100
2, 242300, Note_off_c, 0, 62, 100
2, 242300, Note_off_c, 0, 74, 100
2, 244224, Note_on_c, 0, 81, 80
2, 244320, Note_on_c, 0, 76, 80
2, 244412, Note_off_c, 0, 81, 100
2, 244416, Note_on_c, 0, 85, 80
2, 244508, Note_off_c, 0, 76, 100
2, 244512, Note_on_c, 0, 81, 80
2, 244604, Note_off_c, 0, 85, 100
2, 244608, Note_on_c, 0, 88, 80
2, 244700, Note_off_c, 0, 81, 100
2, 244988, Note_off_c, 0, 88, 100
2, 245376, Note_on_c, 0, 73, 80
2, 245472, Note_on_c, 0, 69, 80
2, 245564, Note_off_c, 0, 73, 100
2, 245568, Note_on_c, 0, 76, 80
2, 245660, Note_off_c, 0, 69, 100
2, 245664, Note_on_c, 0, 73, 80
2, 245756, Note_off_c, 0, 76, 100
2, 245760, Note_on_c, 0, 81, 80
2, 245852, Note_off_c, 0, 73, 100
2, 246140, Note_off_c, 0, 81, 100
2, 246528, Note_on_c, 0, 61, 80
2, 246624, Note_on_c, 0, 57, 80
2, 246716, Note_off_c, 0, 61, 100
2, 246720, Note_on_c, 0, 64, 80
2, 246812, Note_off_c, 0, 57, 100
2, 246816, Note_on_c, 0, 61, 80
2, 246908, Note_off_c, 0, 64, 100
2, 246912, Note_on_c, 0, 69, 80
2, 247004, Note_off_c, 0, 61, 100
2, 247292, Note_off_c, 0, 69, 100
2, 247296, Note_on_c, 0, 69, 80
2, 247296, Note_on_c, 0, 63, 80
2, 247296, Note_on_c, 0, 59, 80
2, 247676, Note_off_c, 0, 69, 100
2, 247676, Note_off_c, 0, 63, 100
2, 247676, Note_off_c, 0, 59, 100
2, 247680, Note_on_c, 0, 69, 80
2, 247680, Note_on_c, 0, 66, 80
2, 247680, Note_on_c, 0, 59, 80
2, 248060, Note_off_c, 0, 69, 100
2, 248060, Note_off_c, 0, 66, 100
2, 248060, Note_off_c, 0, 59, 100
2, 248064, Note_on_c, 0, 66, 80
2, 248064, Note_on_c, 0, 69, 80
2, 248064, Note_on_c, 0, 59, 80
2, 248444, Note_off_c, 0, 66, 100
2, 248444, Note_off_c, 0, 69, 100
2, 248448, Note_on_c, 0, 68, 80
2, 248448, Note_on_c, 0, 64, 80
2, 248828, Note_off_c, 0, 59, 100
2, 248828, Note_off_c, 0, 68, 100
2, 248828, Note_off_c, 0, 64, 100
2, 248832, Note_on_c, 0, 80, 80
2, 248928, Note_on_c, 0, 76, 80
2, 249020, Note_off_c, 0, 80, 100
2, 249024, Note_on_c, 0, 83, 80
2, 249116, Note_off_c, 0, 76, 100
2, 249120, Note_on_c, 0, 80, 80
2, 249212, Note_off_c, 0, 83, 100
2, 249216, Note_on_c, 0, 86, 80
2, 249308, Note_off_c, 0, 80, 100
2, 249596, Note_off_c, 0, 86, 100
2, 249984, Note_on_c, 0, 68, 80
2, 250080, Note_on_c, 0, 64, 80
2, 250172, Note_off_c, 0, 68, 100
2, 250176, Note_on_c, 0, 71, 80
2, 250268, Note_off_c, 0, 64, 100
2, 250272, Note_on_c, 0, 68, 80
2, 250364, Note_off_c, 0, 71, 100
2, 250368, Note_on_c, 0, 74, 80
2, 250460, Note_off_c, 0, 68, 100
2, 250748, Note_off_c, 0, 74, 100
2, 251136, Note_on_c, 0, 62, 80
2, 251232, Note_on_c, 0, 59, 80
2, 251324, Note_off_c, 0, 62, 100
2, 251328, Note_on_c, 0, 64, 80
2, 251420, Note_off_c, 0, 59, 100
2, 251424, Note_on_c, 0, 62, 80
2, 251516, Note_off_c, 0, 64, 100
2, 251520, Note_on_c, 0, 68, 80
2, 251612, Note_off_c, 0, 62, 100
2, 251900, Note_off_c, 0, 68, 100
2, 251904, Note_on_c, 0, 68, 80
2, 251904, Note_on_c, 0, 62, 80
2, 252284, Note_off_c, 0, 68, 100
2, 252284, Note_off_c, 0, 62, 100
2, 252288, Note_on_c, 0, 68, 80
2, 252288, Note_on_c, 0, 62, 80
2, 252668, Note_off_c, 0, 68, 100
2, 252668, Note_off_c, 0, 62, 100
2, 252672, Note_on_c, 0, 71, 80
2, 252672, Note_on_c, 0, 62, 80
2, 253052, Note_off_c, 0, 71, 100
2, 253052, Note_off_c, 0, 62, 100
2, 253056, Note_on_c, 0, 69, 80
2, 253056, Note_on_c, 0, 61, 80
2, 253436, Note_off_c, 0, 69, 100
2, 253436, Note_off_c, 0, 61, 100
2, 254208, Note_on_c, 0, 73, 110
2, 254208, Note_on_c, 0, 69, 110
2, 254208, Note_on_c, 0, 64, 110
2, 254208, Note_on_c, 0, 61, 110
2, 254588, Note_off_c, 0, 73, 100
2, 254588, Note_off_c, 0, 69, 100
2, 254588, Note_off_c, 0, 64, 100
2, 254588, Note_off_c, 0, 61, 100
2, 255360, Note_on_c, 0, 78, 110
2, 255360, Note_on_c, 0, 74, 110
2, 255360, Note_on_c, 0, 66, 110
2, 255740, Note_off_c, 0, 78, 100
2, 255740, Note_off_c, 0, 74, 100
2, 255740, Note_off_c, 0, 66, 100
2, 256512, Note_on_c, 0, 80, 120
2, 256512, Note_on_c, 0, 74, 120
2, 256512, Note_on_c, 0, 71, 120
2, 256512, Note_on_c, 0, 68, 120
2, 256892, Note_off_c, 0, 80, 100
2, 256892, Note_off_c, 0, 74, 100
2, 256892, Note_off_c, 0, 71, 100
2, 256892, Note_off_c, 0, 68, 100
2, 257280, Note_on_c, 0, 81, 120
2, 257280, Note_on_c, 0, 76, 120
2, 257280, Note_on_c, 0, 73, 120
2, 257280, Note_on_c, 0, 69, 120
2, 257660, Note_off_c, 0, 81, 100
2, 257660, Note_off_c, 0, 76, 100
2, 257660, Note_off_c, 0, 73, 100
2, 257660, Note_off_c, 0, 69, 100
2, 258432, Control_c, 0, 7, 0
2, 258816, Note_on_c, 0, 57, 1
2, 259196, Note_off_c, 0, 57, 100
2, 259196, End_track
3, 0, Start_track
3, 0, Title_t, "Left"
3, 0, Control_c, 1, 0, 0
3, 0, Program_c, 1, 0
3, 0, Control_c, 1, 7, 100
3, 0, Control_c, 1, 10, 58
3, 0, Control_c, 1, 91, 127
3, 0, Key_signature, 3, "major"
3, 768, Note_on_c, 1, 61, 80
3, 768, Note_on_c, 1, 57, 80
3, 768, Note_on_c, 1, 64, 80
3, 1148, Note_off_c, 1, 61, 100
3, 1148, Note_off_c, 1, 57, 100
3, 1148, Note_off_c, 1, 64, 100
3, 1920, Note_on_c, 1, 57, 80
3, 1920, Note_on_c, 1, 52, 80
3, 1920, Note_on_c, 1, 49, 80
3, 1920, Note_on_c, 1, 45, 80
3, 2300, Note_off_c, 1, 57, 100
3, 2300, Note_off_c, 1, 52, 100
3, 2300, Note_off_c, 1, 49, 100
3, 2300, Note_off_c, 1, 45, 100
3, 2688, Note_on_c, 1, 57, 80
3, 3068, Note_off_c, 1, 57, 100
3, 3072, Note_on_c, 1, 54, 80
3, 3452, Note_off_c, 1, 54, 100
3, 3456, Note_on_c, 1, 51, 80
3, 3836, Note_off_c, 1, 51, 100
3, 3840, Note_on_c, 1, 52, 80
3, 4220, Note_off_c, 1, 52, 100
3, 4224, Note_on_c, 1, 40, 80
3, 4604, Note_off_c, 1, 40, 100
3, 5376, Note_on_c, 1, 62, 80
3, 5376, Note_on_c, 1, 59, 80
3, 5376, Note_on_c, 1, 56, 80
3, 5376, Note_on_c, 1, 52, 80
3, 5756, Note_off_c, 1, 62, 100
3, 5756, Note_off_c, 1, 59, 100
3, 5756, Note_off_c, 1, 56, 100
3, 5756, Note_off_c, 1, 52, 100
3, 6528, Note_on_c, 1, 52, 80
3, 6528, Note_on_c, 1, 47, 80
3, 6528, Note_on_c, 1, 44, 80
3, 6528, Note_on_c, 1, 40, 80
3, 6908, Note_off_c, 1, 52, 100
3, 6908, Note_off_c, 1, 47, 100
3, 6908, Note_off_c, 1, 44, 100
3, 6908, Note_off_c, 1, 40, 100
3, 7680, Note_on_c, 1, 59, 80
3, 7680, Note_on_c, 1, 52, 80
3, 8060, Note_off_c, 1, 59, 100
3, 8060, Note_off_c, 1, 52, 100
3, 8064, Note_on_c, 1, 59, 80
3, 8064, Note_on_c, 1, 52, 80
3, 8444, Note_off_c, 1, 59, 100
3, 8444, Note_off_c, 1, 52, 100
3, 8448, Note_on_c, 1, 56, 80
3, 8448, Note_on_c, 1, 45, 80
3, 8828, Note_off_c, 1, 56, 100
3, 8832, Note_on_c, 1, 57, 80
3, 9212, Note_off_c, 1, 45, 100
3, 9212, Note_off_c, 1, 57, 100
3, 9984, Note_on_c, 1, 61, 80
3, 9984, Note_on_c, 1, 57, 80
3, 9984, Note_on_c, 1, 64, 80
3, 10364, Note_off_c, 1, 61, 100
3, 10364, Note_off_c, 1, 57, 100
3, 10364, Note_off_c, 1, 64, 100
3, 11136, Note_on_c, 1, 57, 80
3, 11136, Note_on_c, 1, 52, 80
3, 11136, Note_on_c, 1, 49, 80
3, 11136, Note_on_c, 1, 45, 80
3, 11516, Note_off_c, 1, 57, 100
3, 11516, Note_off_c, 1, 52, 100
3, 11516, Note_off_c, 1, 49, 100
3, 11516, Note_off_c, 1, 45, 100
3, 11904, Note_on_c, 1, 57, 80
3, 12284, Note_off_c, 1, 57, 100
3, 12288, Note_on_c, 1, 54, 80
3, 12668, Note_off_c, 1, 54, 100
3, 12672, Note_on_c, 1, 51, 80
3, 13052, Note_off_c, 1, 51, 100
3, 13056, Note_on_c, 1, 52, 80
3, 13436, Note_off_c, 1, 52, 100
3, 13440, Note_on_c, 1, 40, 80
3, 13820, Note_off_c, 1, 40, 100
3, 14592, Note_on_c, 1, 62, 80
3, 14592, Note_on_c, 1, 59, 80
3, 14592, Note_on_c, 1, 56, 80
3, 14592, Note_on_c, 1, 52, 80
3, 14972, Note_off_c, 1, 62, 100
3, 14972, Note_off_c, 1, 59, 100
3, 14972, Note_off_c, 1, 56, 100
3, 14972, Note_off_c, 1, 52, 100
3, 15744, Note_on_c, 1, 52, 80
3, 15744, Note_on_c, 1, 47, 80
3, 15744, Note_on_c, 1, 44, 80
3, 15744, Note_on_c, 1, 40, 80
3, 16124, Note_off_c, 1, 52, 100
3, 16124, Note_off_c, 1, 47, 100
3, 16124, Note_off_c, 1, 44, 100
3, 16124, Note_off_c, 1, 40, 100
3, 16896, Note_on_c, 1, 59, 80
3, 16896, Note_on_c, 1, 52, 80
3, 17276, Note_off_c, 1, 59, 100
3, 17276, Note_off_c, 1, 52, 100
3, 17280, Note_on_c, 1, 59, 80
3, 17280, Note_on_c, 1, 52, 80
3, 17660, Note_off_c, 1, 59, 100
3, 17660, Note_off_c, 1, 52, 100
3, 17664, Note_on_c, 1, 56, 80
3, 17664, Note_on_c, 1, 45, 80
3, 18044, Note_off_c, 1, 56, 100
3, 18048, Note_on_c, 1, 57, 80
3, 18428, Note_off_c, 1, 45, 100
3, 18428, Note_off_c, 1, 57, 100
3, 18432, Note_on_c, 1, 56, 80
3, 18528, Note_on_c, 1, 52, 80
3, 18620, Note_off_c, 1, 56, 100
3, 18624, Note_on_c, 1, 59, 81
3, 18716, Note_off_c, 1, 52, 100
3, 18720, Note_on_c, 1, 56, 82
3, 18812, Note_off_c, 1, 59, 100
3, 18816, Note_on_c, 1, 64, 83
3, 18908, Note_off_c, 1, 56, 100
3, 19196, Note_off_c, 1, 64, 100
3, 19584, Note_on_c, 1, 56, 89
3, 19680, Note_on_c, 1, 50, 90
3, 19772, Note_off_c, 1, 56, 100
3, 19776, Note_on_c, 1, 59, 91
3, 19868, Note_off_c, 1, 50, 100
3, 19872, Note_on_c, 1, 56, 91
3, 19964, Note_off_c, 1, 59, 100
3, 19968, Note_on_c, 1, 62, 92
3, 20060, Note_off_c, 1, 56, 100
3, 20348, Note_off_c, 1, 62, 100
3, 20736, Note_on_c, 1, 53, 98
3, 20832, Note_on_c, 1, 49, 99
3, 20924, Note_off_c, 1, 53, 100
3, 20928, Note_on_c, 1, 56, 100
3, 21020, Note_off_c, 1, 49, 100
3, 21024, Note_on_c, 1, 53, 101
3, 21116, Note_off_c, 1, 56, 100
3, 21120, Note_on_c, 1, 61, 102
3, 21212, Note_off_c, 1, 53, 100
3, 21500, Note_off_c, 1, 61, 100
3, 21888, Note_on_c, 1, 61, 108
3, 22268, Note_off_c, 1, 61, 100
3, 22272, Note_on_c, 1, 61, 110
3, 22652, Note_off_c, 1, 61, 100
3, 22656, Note_on_c, 1, 54, 110
3, 23036, Note_off_c, 1, 54, 100
3, 23040, Note_on_c, 1, 57, 80
3, 23136, Note_on_c, 1, 54, 80
3, 23228, Note_off_c, 1, 57, 100
3, 23232, Note_on_c, 1, 61, 81
3, 23324, Note_off_c, 1, 54, 100
3, 23328, Note_on_c, 1, 57, 82
3, 23420, Note_off_c, 1, 61, 100
3, 23424, Note_on_c, 1, 66, 83
3, 23516, Note_off_c, 1, 57, 100
3, 23804, Note_off_c, 1, 66, 100
3, 24192, Note_on_c, 1, 56, 89
3, 24288, Note_on_c, 1, 52, 90
3, 24380, Note_off_c, 1, 56, 100
3, 24384, Note_on_c, 1, 61, 91
3, 24476, Note_off_c, 1, 52, 100
3, 24480, Note_on_c, 1, 56, 91
3, 24572, Note_off_c, 1, 61, 100
3, 24576, Note_on_c, 1, 64, 92
3, 24668, Note_off_c, 1, 56, 100
3, 24956, Note_off_c, 1, 64, 100
3, 25344, Note_on_c, 1, 55, 98
3, 25436, Note_off_c, 1, 55, 100
3, 25440, Note_on_c, 1, 51, 99
3, 25532, Note_off_c, 1, 51, 100
3, 25536, Note_on_c, 1, 58, 100
3, 25628, Note_off_c, 1, 58, 100
3, 25632, Note_on_c, 1, 55, 101
3, 25724, Note_off_c, 1, 55, 100
3, 25728, Note_on_c, 1, 63, 102
3, 26108, Note_off_c, 1, 63, 100
3, 26496, Note_on_c, 1, 63, 108
3, 26876, Note_off_c, 1, 63, 100
3, 26880, Note_on_c, 1, 63, 110
3, 27260, Note_off_c, 1, 63, 100
3, 27264, Note_on_c, 1, 56, 110
3, 27644, Note_off_c, 1, 56, 100
3, 28032, Note_on_c, 1, 59, 120
3, 28412, Note_off_c, 1, 59, 100
3, 28416, Note_on_c, 1, 61, 120
3, 28796, Note_off_c, 1, 61, 100
3, 29568, Note_on_c, 1, 59, 80
3, 29568, Note_on_c, 1, 51, 80
3, 29948, Note_off_c, 1, 59, 100
3, 29948, Note_off_c, 1, 51, 100
3, 29952, Note_on_c, 1, 58, 80
3, 29952, Note_on_c, 1, 51, 80
3, 30332, Note_off_c, 1, 58, 100
3, 30332, Note_off_c, 1, 51, 100
3, 30336, Note_on_c, 1, 56, 80
3, 30336, Note_on_c, 1, 44, 80
3, 30524, Note_off_c, 1, 56, 100
3, 30524, Note_off_c, 1, 44, 100
3, 30528, Note_on_c, 1, 63, 80
3, 30716, Note_off_c, 1, 63, 100
3, 30720, Note_on_c, 1, 59, 80
3, 30908, Note_off_c, 1, 59, 100
3, 30912, Note_on_c, 1, 63, 80
3, 31100, Note_off_c, 1, 63, 100
3, 31104, Note_on_c, 1, 56, 80
3, 31292, Note_off_c, 1, 56, 100
3, 31296, Note_on_c, 1, 63, 80
3, 31484, Note_off_c, 1, 63, 100
3, 31488, Note_on_c, 1, 58, 80
3, 31676, Note_off_c, 1, 58, 100
3, 31680, Note_on_c, 1, 63, 80
3, 31868, Note_off_c, 1, 63, 100
3, 31872, Note_on_c, 1, 61, 80
3, 32060, Note_off_c, 1, 61, 100
3, 32064, Note_on_c, 1, 63, 80
3, 32252, Note_off_c, 1, 63, 100
3, 32256, Note_on_c, 1, 58, 80
3, 32444, Note_off_c, 1, 58, 100
3, 32448, Note_on_c, 1, 63, 80
3, 32636, Note_off_c, 1, 63, 100
3, 32640, Note_on_c, 1, 59, 80
3, 32828, Note_off_c, 1, 59, 100
3, 32832, Note_on_c, 1, 63, 80
3, 33020, Note_off_c, 1, 63, 100
3, 33024, Note_on_c, 1, 58, 80
3, 33212, Note_off_c, 1, 58, 100
3, 33216, Note_on_c, 1, 61, 80
3, 33404, Note_off_c, 1, 61, 100
3, 33408, Note_on_c, 1, 56, 80
3, 33596, Note_off_c, 1, 56, 100
3, 33600, Note_on_c, 1, 59, 80
3, 33788, Note_off_c, 1, 59, 100
3, 33792, Note_on_c, 1, 49, 80
3, 33980, Note_off_c, 1, 49, 100
3, 33984, Note_on_c, 1, 61, 80
3, 34172, Note_off_c, 1, 61, 100
3, 34176, Note_on_c, 1, 51, 80
3, 34364, Note_off_c, 1, 51, 100
3, 34368, Note_on_c, 1, 61, 80
3, 34556, Note_off_c, 1, 61, 100
3, 34560, Note_on_c, 1, 51, 80
3, 34748, Note_off_c, 1, 51, 100
3, 34752, Note_on_c, 1, 60, 80
3, 34940, Note_off_c, 1, 60, 100
3, 34944, Note_on_c, 1, 56, 80
3, 35132, Note_off_c, 1, 56, 100
3, 35136, Note_on_c, 1, 63, 80
3, 35324, Note_off_c, 1, 63, 100
3, 35328, Note_on_c, 1, 59, 80
3, 35516, Note_off_c, 1, 59, 100
3, 35520, Note_on_c, 1, 63, 80
3, 35708, Note_off_c, 1, 63, 100
3, 35712, Note_on_c, 1, 56, 80
3, 35900, Note_off_c, 1, 56, 100
3, 35904, Note_on_c, 1, 63, 80
3, 36092, Note_off_c, 1, 63, 100
3, 36096, Note_on_c, 1, 58, 80
3, 36284, Note_off_c, 1, 58, 100
3, 36288, Note_on_c, 1, 63, 80
3, 36476, Note_off_c, 1, 63, 100
3, 36480, Note_on_c, 1, 61, 80
3, 36668, Note_off_c, 1, 61, 100
3, 36672, Note_on_c, 1, 63, 80
3, 36860, Note_off_c, 1, 63, 100
3, 36864, Note_on_c, 1, 58, 80
3, 37052, Note_off_c, 1, 58, 100
3, 37056, Note_on_c, 1, 63, 80
3, 37244, Note_off_c, 1, 63, 100
3, 37248, Note_on_c, 1, 59, 80
3, 37248, Note_on_c, 1, 63, 80
3, 38396, Note_off_c, 1, 59, 100
3, 38396, Note_off_c, 1, 63, 100
3, 38400, Note_on_c, 1, 66, 85
3, 38400, Note_on_c, 1, 59, 85
3, 39548, Note_off_c, 1, 66, 100
3, 39548, Note_off_c, 1, 59, 100
3, 39552, Note_on_c, 1, 64, 90
3, 39552, Note_on_c, 1, 59, 90
3, 39552, Note_on_c, 1, 52, 90
3, 40700, Note_off_c, 1, 64, 100
3, 40700, Note_off_c, 1, 59, 100
3, 40700, Note_off_c, 1, 52, 100
3, 40704, Note_on_c, 1, 64, 79
3, 40704, Note_on_c, 1, 57, 79
3, 41852, Note_off_c, 1, 64, 100
3, 41852, Note_off_c, 1, 57, 100
3, 41856, Note_on_c, 1, 62, 70
3, 41856, Note_on_c, 1, 57, 70
3, 41856, Note_on_c, 1, 50, 70
3, 43004, Note_off_c, 1, 62, 100
3, 43004, Note_off_c, 1, 57, 100
3, 43004, Note_off_c, 1, 50, 100
3, 43008, Note_on_c, 1, 59, 70
3, 43008, Note_on_c, 1, 52, 70
3, 43008, Note_on_c, 1, 47, 70
3, 44156, Note_off_c, 1, 59, 100
3, 44156, Note_off_c, 1, 52, 100
3, 44156, Note_off_c, 1, 47, 100
3, 46848, Note_on_c, 1, 61, 80
3, 46848, Note_on_c, 1, 57, 80
3, 46848, Note_on_c, 1, 64, 80
3, 47228, Note_off_c, 1, 61, 100
3, 47228, Note_off_c, 1, 57, 100
3, 47228, Note_off_c, 1, 64, 100
3, 48000, Note_on_c, 1, 57, 80
3, 48000, Note_on_c, 1, 52, 80
3, 48000, Note_on_c, 1, 49, 80
3, 48000, Note_on_c, 1, 45, 80
3, 48380, Note_off_c, 1, 57, 100
3, 48380, Note_off_c, 1, 52, 100
3, 48380, Note_off_c, 1, 49, 100
3, 48380, Note_off_c, 1, 45, 100
3, 48768, Note_on_c, 1, 57, 80
3, 49148, Note_off_c, 1, 57, 100
3, 49152, Note_on_c, 1, 54, 80
3, 49532, Note_off_c, 1, 54, 100
3, 49536, Note_on_c, 1, 51, 80
3, 49916, Note_off_c, 1, 51, 100
3, 49920, Note_on_c, 1, 52, 80
3, 50300, Note_off_c, 1, 52, 100
3, 50304, Note_on_c, 1, 40, 80
3, 50684, Note_off_c, 1, 40, 100
3, 51456, Note_on_c, 1, 62, 80
3, 51456, Note_on_c, 1, 59, 80
3, 51456, Note_on_c, 1, 56, 80
3, 51456, Note_on_c, 1, 52, 80
3, 51836, Note_off_c, 1, 62, 100
3, 51836, Note_off_c, 1, 59, 100
3, 51836, Note_off_c, 1, 56, 100
3, 51836, Note_off_c, 1, 52, 100
3, 52608, Note_on_c, 1, 52, 80
3, 52608, Note_on_c, 1, 47, 80
3, 52608, Note_on_c, 1, 44, 80
3, 52608, Note_on_c, 1, 40, 80
3, 52988, Note_off_c, 1, 52, 100
3, 52988, Note_off_c, 1, 47, 100
3, 52988, Note_off_c, 1, 44, 100
3, 52988, Note_off_c, 1, 40, 100
3, 53760, Note_on_c, 1, 59, 80
3, 53760, Note_on_c, 1, 52, 80
3, 54140, Note_off_c, 1, 59, 100
3, 54140, Note_off_c, 1, 52, 100
3, 54144, Note_on_c, 1, 59, 80
3, 54144, Note_on_c, 1, 52, 80
3, 54524, Note_off_c, 1, 59, 100
3, 54524, Note_off_c, 1, 52, 100
3, 54528, Note_on_c, 1, 56, 80
3, 54528, Note_on_c, 1, 45, 80
3, 54908, Note_off_c, 1, 56, 100
3, 54912, Note_on_c, 1, 57, 80
3, 55292, Note_off_c, 1, 45, 100
3, 55292, Note_off_c, 1, 57, 100
3, 55296, Note_on_c, 1, 49, 110
3, 55392, Note_on_c, 1, 45, 110
3, 55484, Note_off_c, 1, 49, 100
3, 55488, Note_on_c, 1, 52, 110
3, 55580, Note_off_c, 1, 45, 100
3, 55584, Note_on_c, 1, 49, 110
3, 55676, Note_off_c, 1, 52, 100
3, 55680, Note_on_c, 1, 57, 110
3, 55772, Note_off_c, 1, 49, 100
3, 56060, Note_off_c, 1, 57, 100
3, 56448, Note_on_c, 1, 42, 110
3, 56544, Note_on_c, 1, 38, 110
3, 56636, Note_off_c, 1, 42, 100
3, 56640, Note_on_c, 1, 45, 110
3, 56732, Note_off_c, 1, 38, 100
3, 56736, Note_on_c, 1, 42, 110
3, 56828, Note_off_c, 1, 45, 100
3, 56832, Note_on_c, 1, 50, 110
3, 56924, Note_off_c, 1, 42, 100
3, 57212, Note_off_c, 1, 50, 100
3, 57600, Note_on_c, 1, 44, 110
3, 57696, Note_on_c, 1, 40, 110
3, 57788, Note_off_c, 1, 44, 100
3, 57792, Note_on_c, 1, 47, 110
3, 57884, Note_off_c, 1, 40, 100
3, 57888, Note_on_c, 1, 44, 110
3, 57980, Note_off_c, 1, 47, 100
3, 57984, Note_on_c, 1, 52, 110
3, 58076, Note_off_c, 1, 44, 100
3, 58364, Note_off_c, 1, 52, 100
3, 58752, Note_on_c, 1, 40, 120
3, 59132, Note_off_c, 1, 40, 100
3, 59520, Note_on_c, 1, 33, 120
3, 59900, Note_off_c, 1, 33, 100
3, 59904, Note_on_c, 1, 56, 80
3, 60000, Note_on_c, 1, 52, 80
3, 60092, Note_off_c, 1, 56, 100
3, 60096, Note_on_c, 1, 59, 81
3, 60188, Note_off_c, 1, 52, 100
3, 60192, Note_on_c, 1, 56, 82
3, 60284, Note_off_c, 1, 59, 100
3, 60288, Note_on_c, 1, 64, 83
3, 60380, Note_off_c, 1, 56, 100
3, 60668, Note_off_c, 1, 64, 100
3, 61056, Note_on_c, 1, 56, 89
3, 61152, Note_on_c, 1, 50, 90
3, 61244, Note_off_c, 1, 56, 100
3, 61248, Note_on_c, 1, 59, 91
3, 61340, Note_off_c, 1, 50, 100
3, 61344, Note_on_c, 1, 56, 92
3, 61436, Note_off_c, 1, 59, 100
3, 61440, Note_on_c, 1, 62, 93
3, 61532, Note_off_c, 1, 56, 100
3, 61820, Note_off_c, 1, 62, 100
3, 62208, Note_on_c, 1, 53, 99
3, 62304, Note_on_c, 1, 49, 100
3, 62396, Note_off_c, 1, 53, 100
3, 62400, Note_on_c, 1, 56, 101
3, 62492, Note_off_c, 1, 49, 100
3, 62496, Note_on_c, 1, 53, 102
3, 62588, Note_off_c, 1, 56, 100
3, 62592, Note_on_c, 1, 61, 103
3, 62684, Note_off_c, 1, 53, 100
3, 62972, Note_off_c, 1, 61, 100
3, 63360, Note_on_c, 1, 61, 109
3, 63740, Note_off_c, 1, 61, 100
3, 63744, Note_on_c, 1, 61, 110
3, 64124, Note_off_c, 1, 61, 100
3, 64128, Note_on_c, 1, 54, 110
3, 64508, Note_off_c, 1, 54, 100
3, 64512, Note_on_c, 1, 57, 80
3, 64608, Note_on_c, 1, 54, 80
3, 64700, Note_off_c, 1, 57, 100
3, 64704, Note_on_c, 1, 61, 81
3, 64796, Note_off_c, 1, 54, 100
3, 64800, Note_on_c, 1, 57, 82
3, 64892, Note_off_c, 1, 61, 100
3, 64896, Note_on_c, 1, 66, 83
3, 64988, Note_off_c, 1, 57, 100
3, 65276, Note_off_c, 1, 66, 100
3, 65664, Note_on_c, 1, 56, 89
3, 65760, Note_on_c, 1, 52, 90
3, 65852, Note_off_c, 1, 56, 100
3, 65856, Note_on_c, 1, 61, 91
3, 65948, Note_off_c, 1, 52, 100
3, 65952, Note_on_c, 1, 56, 92
3, 66044, Note_off_c, 1, 61, 100
3, 66048, Note_on_c, 1, 64, 93
3, 66140, Note_off_c, 1, 56, 100
3, 66428, Note_off_c, 1, 64, 100
3, 66816, Note_on_c, 1, 55, 99
3, 66908, Note_off_c, 1, 55, 100
3, 66912, Note_on_c, 1, 51, 100
3, 67004, Note_off_c, 1, 51, 100
3, 67008, Note_on_c, 1, 58, 101
3, 67100, Note_off_c, 1, 58, 100
3, 67104, Note_on_c, 1, 55, 102
3, 67196, Note_off_c, 1, 55, 100
3, 67200, Note_on_c, 1, 63, 103
3, 67580, Note_off_c, 1, 63, 100
3, 67968, Note_on_c, 1, 63, 109
3, 68348, Note_off_c, 1, 63, 100
3, 68352, Note_on_c, 1, 63, 110
3, 68732, Note_off_c, 1, 63, 100
3, 68736, Note_on_c, 1, 56, 110
3, 69116, Note_off_c, 1, 56, 100
3, 69504, Note_on_c, 1, 59, 120
3, 69884, Note_off_c, 1, 59, 100
3, 69888, Note_on_c, 1, 61, 120
3, 70268, Note_off_c, 1, 61, 100
3, 71040, Note_on_c, 1, 59, 80
3, 71040, Note_on_c, 1, 51, 80
3, 71420, Note_off_c, 1, 59, 100
3, 71420, Note_off_c, 1, 51, 100
3, 71424, Note_on_c, 1, 58, 80
3, 71424, Note_on_c, 1, 51, 80
3, 71804, Note_off_c, 1, 58, 100
3, 71804, Note_off_c, 1, 51, 100
3, 71808, Note_on_c, 1, 56, 80
3, 71808, Note_on_c, 1, 44, 80
3, 71996, Note_off_c, 1, 56, 100
3, 71996, Note_off_c, 1, 44, 100
3, 72000, Note_on_c, 1, 63, 80
3, 72188, Note_off_c, 1, 63, 100
3, 72192, Note_on_c, 1, 59, 80
3, 72380, Note_off_c, 1, 59, 100
3, 72384, Note_on_c, 1, 63, 80
3, 72572, Note_off_c, 1, 63, 100
3, 72576, Note_on_c, 1, 56, 80
3, 72764, Note_off_c, 1, 56, 100
3, 72768, Note_on_c, 1, 63, 80
3, 72956, Note_off_c, 1, 63, 100
3, 72960, Note_on_c, 1, 58, 80
3, 73148, Note_off_c, 1, 58, 100
3, 73152, Note_on_c, 1, 63, 80
3, 73340, Note_off_c, 1, 63, 100
3, 73344, Note_on_c, 1, 61, 80
3, 73532, Note_off_c, 1, 61, 100
3, 73536, Note_on_c, 1, 63, 80
3, 73724, Note_off_c, 1, 63, 100
3, 73728, Note_on_c, 1, 58, 80
3, 73916, Note_off_c, 1, 58, 100
3, 73920, Note_on_c, 1, 63, 80
3, 74108, Note_off_c, 1, 63, 100
3, 74112, Note_on_c, 1, 59, 80
3, 74300, Note_off_c, 1, 59, 100
3, 74304, Note_on_c, 1, 63, 80
3, 74492, Note_off_c, 1, 63, 100
3, 74496, Note_on_c, 1, 58, 80
3, 74684, Note_off_c, 1, 58, 100
3, 74688, Note_on_c, 1, 61, 80
3, 74876, Note_off_c, 1, 61, 100
3, 74880, Note_on_c, 1, 56, 80
3, 75068, Note_off_c, 1, 56, 100
3, 75072, Note_on_c, 1, 59, 80
3, 75260, Note_off_c, 1, 59, 100
3, 75264, Note_on_c, 1, 49, 80
3, 75452, Note_off_c, 1, 49, 100
3, 75456, Note_on_c, 1, 61, 80
3, 75644, Note_off_c, 1, 61, 100
3, 75648, Note_on_c, 1, 51, 80
3, 75836, Note_off_c, 1, 51, 100
3, 75840, Note_on_c, 1, 61, 80
3, 76028, Note_off_c, 1, 61, 100
3, 76032, Note_on_c, 1, 51, 80
3, 76220, Note_off_c, 1, 51, 100
3, 76224, Note_on_c, 1, 60, 80
3, 76412, Note_off_c, 1, 60, 100
3, 76416, Note_on_c, 1, 56, 80
3, 76604, Note_off_c, 1, 56, 100
3, 76608, Note_on_c, 1, 63, 80
3, 76796, Note_off_c, 1, 63, 100
3, 76800, Note_on_c, 1, 59, 80
3, 76988, Note_off_c, 1, 59, 100
3, 76992, Note_on_c, 1, 63, 80
3, 77180, Note_off_c, 1, 63, 100
3, 77184, Note_on_c, 1, 56, 80
3, 77372, Note_off_c, 1, 56, 100
3, 77376, Note_on_c, 1, 63, 80
3, 77564, Note_off_c, 1, 63, 100
3, 77568, Note_on_c, 1, 58, 80
3, 77756, Note_off_c, 1, 58, 100
3, 77760, Note_on_c, 1, 63, 80
3, 77948, Note_off_c, 1, 63, 100
3, 77952, Note_on_c, 1, 61, 80
3, 78140, Note_off_c, 1, 61, 100
3, 78144, Note_on_c, 1, 63, 80
3, 78332, Note_off_c, 1, 63, 100
3, 78336, Note_on_c, 1, 58, 80
3, 78524, Note_off_c, 1, 58, 100
3, 78528, Note_on_c, 1, 63, 80
3, 78716, Note_off_c, 1, 63, 100
3, 78720, Note_on_c, 1, 59, 80
3, 78720, Note_on_c, 1, 63, 80
3, 79868, Note_off_c, 1, 59, 100
3, 79868, Note_off_c, 1, 63, 100
3, 79872, Note_on_c, 1, 66, 85
3, 79872, Note_on_c, 1, 59, 85
3, 81020, Note_off_c, 1, 66, 100
3, 81020, Note_off_c, 1, 59, 100
3, 81024, Note_on_c, 1, 64, 90
3, 81024, Note_on_c, 1, 59, 90
3, 81024, Note_on_c, 1, 52, 90
3, 82172, Note_off_c, 1, 64, 100
3, 82172, Note_off_c, 1, 59, 100
3, 82172, Note_off_c, 1, 52, 100
3, 82176, Note_on_c, 1, 64, 79
3, 82176, Note_on_c, 1, 57, 79
3, 83324, Note_off_c, 1, 64, 100
3, 83324, Note_off_c, 1, 57, 100
3, 83328, Note_on_c, 1, 62, 70
3, 83328, Note_on_c, 1, 57, 70
3, 83328, Note_on_c, 1, 50, 70
3, 84476, Note_off_c, 1, 62, 100
3, 84476, Note_off_c, 1, 57, 100
3, 84476, Note_off_c, 1, 50, 100
3, 84480, Note_on_c, 1, 59, 70
3, 84480, Note_on_c, 1, 52, 70
3, 84480, Note_on_c, 1, 47, 70
3, 85628, Note_off_c, 1, 59, 100
3, 85628, Note_off_c, 1, 52, 100
3, 85628, Note_off_c, 1, 47, 100
3, 88320, Note_on_c, 1, 61, 80
3, 88320, Note_on_c, 1, 57, 80
3, 88320, Note_on_c, 1, 64, 80
3, 88700, Note_off_c, 1, 61, 100
3, 88700, Note_off_c, 1, 57, 100
3, 88700, Note_off_c, 1, 64, 100
3, 89472, Note_on_c, 1, 57, 80
3, 89472, Note_on_c, 1, 52, 80
3, 89472, Note_on_c, 1, 49, 80
3, 89472, Note_on_c, 1, 45, 80
3, 89852, Note_off_c, 1, 57, 100
3, 89852, Note_off_c, 1, 52, 100
3, 89852, Note_off_c, 1, 49, 100
3, 89852, Note_off_c, 1, 45, 100
3, 90240, Note_on_c, 1, 57, 80
3, 90620, Note_off_c, 1, 57, 100
3, 90624, Note_on_c, 1, 54, 80
3, 91004, Note_off_c, 1, 54, 100
3, 91008, Note_on_c, 1, 51, 80
3, 91388, Note_off_c, 1, 51, 100
3, 91392, Note_on_c, 1, 52, 80
3, 91772, Note_off_c, 1, 52, 100
3, 91776, Note_on_c, 1, 40, 80
3, 92156, Note_off_c, 1, 40, 100
3, 92928, Note_on_c, 1, 62, 80
3, 92928, Note_on_c, 1, 59, 80
3, 92928, Note_on_c, 1, 56, 80
3, 92928, Note_on_c, 1, 52, 80
3, 93308, Note_off_c, 1, 62, 100
3, 93308, Note_off_c, 1, 59, 100
3, 93308, Note_off_c, 1, 56, 100
3, 93308, Note_off_c, 1, 52, 100
3, 94080, Note_on_c, 1, 52, 80
3, 94080, Note_on_c, 1, 47, 80
3, 94080, Note_on_c, 1, 44, 80
3, 94080, Note_on_c, 1, 40, 80
3, 94460, Note_off_c, 1, 52, 100
3, 94460, Note_off_c, 1, 47, 100
3, 94460, Note_off_c, 1, 44, 100
3, 94460, Note_off_c, 1, 40, 100
3, 95232, Note_on_c, 1, 59, 80
3, 95232, Note_on_c, 1, 52, 80
3, 95612, Note_off_c, 1, 59, 100
3, 95612, Note_off_c, 1, 52, 100
3, 95616, Note_on_c, 1, 59, 80
3, 95616, Note_on_c, 1, 52, 80
3, 95996, Note_off_c, 1, 59, 100
3, 95996, Note_off_c, 1, 52, 100
3, 96000, Note_on_c, 1, 56, 80
3, 96000, Note_on_c, 1, 45, 80
3, 96380, Note_off_c, 1, 56, 100
3, 96384, Note_on_c, 1, 57, 80
3, 96764, Note_off_c, 1, 45, 100
3, 96764, Note_off_c, 1, 57, 100
3, 96768, Note_on_c, 1, 49, 110
3, 96864, Note_on_c, 1, 45, 110
3, 96956, Note_off_c, 1, 49, 100
3, 96960, Note_on_c, 1, 52, 110
3, 97052, Note_off_c, 1, 45, 100
3, 97056, Note_on_c, 1, 49, 110
3, 97148, Note_off_c, 1, 52, 100
3, 97152, Note_on_c, 1, 57, 110
3, 97244, Note_off_c, 1, 49, 100
3, 97532, Note_off_c, 1, 57, 100
3, 97920, Note_on_c, 1, 42, 110
3, 98016, Note_on_c, 1, 38, 110
3, 98108, Note_off_c, 1, 42, 100
3, 98112, Note_on_c, 1, 45, 110
3, 98204, Note_off_c, 1, 38, 100
3, 98208, Note_on_c, 1, 42, 110
3, 98300, Note_off_c, 1, 45, 100
3, 98304, Note_on_c, 1, 50, 110
3, 98396, Note_off_c, 1, 42, 100
3, 98684, Note_off_c, 1, 50, 100
3, 99072, Note_on_c, 1, 44, 110
3, 99168, Note_on_c, 1, 40, 110
3, 99260, Note_off_c, 1, 44, 100
3, 99264, Note_on_c, 1, 47, 110
3, 99356, Note_off_c, 1, 40, 100
3, 99360, Note_on_c, 1, 44, 110
3, 99452, Note_off_c, 1, 47, 100
3, 99456, Note_on_c, 1, 52, 110
3, 99548, Note_off_c, 1, 44, 100
3, 99836, Note_off_c, 1, 52, 100
3, 100224, Note_on_c, 1, 40, 120
3, 100604, Note_off_c, 1, 40, 100
3, 100992, Note_on_c, 1, 33, 120
3, 101372, Note_off_c, 1, 33, 100
3, 101760, Key_signature, 0, "minor"
3, 101760, Note_on_c, 1, 57, 80
3, 101948, Note_off_c, 1, 57, 100
3, 101952, Note_on_c, 1, 64, 80
3, 102140, Note_off_c, 1, 64, 100
3, 102144, Note_on_c, 1, 59, 80
3, 102332, Note_off_c, 1, 59, 100
3, 102336, Note_on_c, 1, 64, 80
3, 102524, Note_off_c, 1, 64, 100
3, 102528, Note_on_c, 1, 60, 80
3, 102716, Note_off_c, 1, 60, 100
3, 102720, Note_on_c, 1, 64, 80
3, 102908, Note_off_c, 1, 64, 100
3, 102912, Note_on_c, 1, 62, 80
3, 103100, Note_off_c, 1, 62, 100
3, 103104, Note_on_c, 1, 64, 80
3, 103292, Note_off_c, 1, 64, 100
3, 103296, Note_on_c, 1, 60, 80
3, 103484, Note_off_c, 1, 60, 100
3, 103488, Note_on_c, 1, 64, 80
3, 103676, Note_off_c, 1, 64, 100
3, 103680, Note_on_c, 1, 59, 80
3, 103868, Note_off_c, 1, 59, 100
3, 103872, Note_on_c, 1, 64, 80
3, 104060, Note_off_c, 1, 64, 100
3, 104064, Note_on_c, 1, 57, 80
3, 104252, Note_off_c, 1, 57, 100
3, 104256, Note_on_c, 1, 64, 80
3, 104444, Note_off_c, 1, 64, 100
3, 104448, Note_on_c, 1, 59, 80
3, 104636, Note_off_c, 1, 59, 100
3, 104640, Note_on_c, 1, 64, 80
3, 104828, Note_off_c, 1, 64, 100
3, 104832, Note_on_c, 1, 60, 80
3, 105020, Note_off_c, 1, 60, 100
3, 105024, Note_on_c, 1, 64, 80
3, 105212, Note_off_c, 1, 64, 100
3, 105216, Note_on_c, 1, 62, 80
3, 105404, Note_off_c, 1, 62, 100
3, 105408, Note_on_c, 1, 64, 80
3, 105596, Note_off_c, 1, 64, 100
3, 105600, Note_on_c, 1, 60, 80
3, 105788, Note_off_c, 1, 60, 100
3, 105792, Note_on_c, 1, 64, 80
3, 105980, Note_off_c, 1, 64, 100
3, 105984, Note_on_c, 1, 59, 80
3, 106172, Note_off_c, 1, 59, 100
3, 106176, Note_on_c, 1, 64, 80
3, 106364, Note_off_c, 1, 64, 100
3, 106368, Note_on_c, 1, 57, 80
3, 106556, Note_off_c, 1, 57, 100
3, 106560, Note_on_c, 1, 64, 80
3, 106748, Note_off_c, 1, 64, 100
3, 106752, Note_on_c, 1, 55, 80
3, 106940, Note_off_c, 1, 55, 100
3, 106944, Note_on_c, 1, 64, 80
3, 107132, Note_off_c, 1, 64, 100
3, 107136, Note_on_c, 1, 54, 80
3, 107324, Note_off_c, 1, 54, 100
3, 107328, Note_on_c, 1, 63, 80
3, 107516, Note_off_c, 1, 63, 100
3, 107520, Note_on_c, 1, 52, 80
3, 107708, Note_off_c, 1, 52, 100
3, 107712, Note_on_c, 1, 55, 80
3, 107900, Note_off_c, 1, 55, 100
3, 107904, Note_on_c, 1, 54, 80
3, 108092, Note_off_c, 1, 54, 100
3, 108096, Note_on_c, 1, 57, 80
3, 108284, Note_off_c, 1, 57, 100
3, 108288, Note_on_c, 1, 55, 80
3, 108476, Note_off_c, 1, 55, 100
3, 108480, Note_on_c, 1, 59, 80
3, 108668, Note_off_c, 1, 59, 100
3, 108672, Note_on_c, 1, 45, 80
3, 108860, Note_off_c, 1, 45, 100
3, 108864, Note_on_c, 1, 57, 80
3, 109052, Note_off_c, 1, 57, 100
3, 109056, Note_on_c, 1, 47, 80
3, 109244, Note_off_c, 1, 47, 100
3, 109248, Note_on_c, 1, 55, 80
3, 109436, Note_off_c, 1, 55, 100
3, 109440, Note_on_c, 1, 47, 80
3, 109628, Note_off_c, 1, 47, 100
3, 109632, Note_on_c, 1, 54, 80
3, 109820, Note_off_c, 1, 54, 100
3, 109824, Note_on_c, 1, 52, 80
3, 110204, Note_off_c, 1, 52, 100
3, 110208, Note_on_c, 1, 40, 80
3, 110588, Note_off_c, 1, 40, 100
3, 110976, Note_on_c, 1, 57, 80
3, 111164, Note_off_c, 1, 57, 100
3, 111168, Note_on_c, 1, 64, 80
3, 111356, Note_off_c, 1, 64, 100
3, 111360, Note_on_c, 1, 59, 80
3, 111548, Note_off_c, 1, 59, 100
3, 111552, Note_on_c, 1, 64, 80
3, 111740, Note_off_c, 1, 64, 100
3, 111744, Note_on_c, 1, 60, 80
3, 111932, Note_off_c, 1, 60, 100
3, 111936, Note_on_c, 1, 64, 80
3, 112124, Note_off_c, 1, 64, 100
3, 112128, Note_on_c, 1, 62, 80
3, 112316, Note_off_c, 1, 62, 100
3, 112320, Note_on_c, 1, 64, 80
3, 112508, Note_off_c, 1, 64, 100
3, 112512, Note_on_c, 1, 60, 80
3, 112700, Note_off_c, 1, 60, 100
3, 112704, Note_on_c, 1, 64, 80
3, 112892, Note_off_c, 1, 64, 100
3, 112896, Note_on_c, 1, 59, 80
3, 113084, Note_off_c, 1, 59, 100
3, 113088, Note_on_c, 1, 64, 80
3, 113276, Note_off_c, 1, 64, 100
3, 113280, Note_on_c, 1, 57, 80
3, 113468, Note_off_c, 1, 57, 100
3, 113472, Note_on_c, 1, 64, 80
3, 113660, Note_off_c, 1, 64, 100
3, 113664, Note_on_c, 1, 59, 80
3, 113852, Note_off_c, 1, 59, 100
3, 113856, Note_on_c, 1, 64, 80
3, 114044, Note_off_c, 1, 64, 100
3, 114048, Note_on_c, 1, 60, 80
3, 114236, Note_off_c, 1, 60, 100
3, 114240, Note_on_c, 1, 64, 80
3, 114428, Note_off_c, 1, 64, 100
3, 114432, Note_on_c, 1, 62, 80
3, 114620, Note_off_c, 1, 62, 100
3, 114624, Note_on_c, 1, 64, 80
3, 114812, Note_off_c, 1, 64, 100
3, 114816, Note_on_c, 1, 60, 80
3, 115004, Note_off_c, 1, 60, 100
3, 115008, Note_on_c, 1, 64, 80
3, 115196, Note_off_c, 1, 64, 100
3, 115200, Note_on_c, 1, 59, 80
3, 115388, Note_off_c, 1, 59, 100
3, 115392, Note_on_c, 1, 64, 80
3, 115580, Note_off_c, 1, 64, 100
3, 115584, Note_on_c, 1, 57, 80
3, 115772, Note_off_c, 1, 57, 100
3, 115776, Note_on_c, 1, 64, 80
3, 115964, Note_off_c, 1, 64, 100
3, 115968, Note_on_c, 1, 55, 80
3, 116156, Note_off_c, 1, 55, 100
3, 116160, Note_on_c, 1, 64, 80
3, 116348, Note_off_c, 1, 64, 100
3, 116352, Note_on_c, 1, 54, 80
3, 116540, Note_off_c, 1, 54, 100
3, 116544, Note_on_c, 1, 63, 80
3, 116732, Note_off_c, 1, 63, 100
3, 116736, Note_on_c, 1, 52, 80
3, 116924, Note_off_c, 1, 52, 100
3, 116928, Note_on_c, 1, 55, 80
3, 117116, Note_off_c, 1, 55, 100
3, 117120, Note_on_c, 1, 54, 80
3, 117308, Note_off_c, 1, 54, 100
3, 117312, Note_on_c, 1, 57, 80
3, 117500, Note_off_c, 1, 57, 100
3, 117504, Note_on_c, 1, 55, 80
3, 117692, Note_off_c, 1, 55, 100
3, 117696, Note_on_c, 1, 59, 80
3, 117884, Note_off_c, 1, 59, 100
3, 117888, Note_on_c, 1, 45, 80
3, 118076, Note_off_c, 1, 45, 100
3, 118080, Note_on_c, 1, 57, 80
3, 118268, Note_off_c, 1, 57, 100
3, 118272, Note_on_c, 1, 47, 80
3, 118460, Note_off_c, 1, 47, 100
3, 118464, Note_on_c, 1, 55, 80
3, 118652, Note_off_c, 1, 55, 100
3, 118656, Note_on_c, 1, 47, 80
3, 118844, Note_off_c, 1, 47, 100
3, 118848, Note_on_c, 1, 54, 80
3, 119036, Note_off_c, 1, 54, 100
3, 119040, Note_on_c, 1, 52, 80
3, 119420, Note_off_c, 1, 52, 100
3, 119424, Note_on_c, 1, 40, 80
3, 119804, Note_off_c, 1, 40, 100
3, 120192, Note_on_c, 1, 60, 80
3, 120380, Note_off_c, 1, 60, 100
3, 120384, Note_on_c, 1, 67, 80
3, 120572, Note_off_c, 1, 67, 100
3, 120576, Note_on_c, 1, 62, 80
3, 120764, Note_off_c, 1, 62, 100
3, 120768, Note_on_c, 1, 67, 80
3, 120956, Note_off_c, 1, 67, 100
3, 120960, Note_on_c, 1, 64, 80
3, 121148, Note_off_c, 1, 64, 100
3, 121152, Note_on_c, 1, 67, 80
3, 121340, Note_off_c, 1, 67, 100
3, 121344, Note_on_c, 1, 65, 80
3, 121532, Note_off_c, 1, 65, 100
3, 121536, Note_on_c, 1, 67, 80
3, 121724, Note_off_c, 1, 67, 100
3, 121728, Note_on_c, 1, 64, 80
3, 121916, Note_off_c, 1, 64, 100
3, 121920, Note_on_c, 1, 67, 80
3, 122108, Note_off_c, 1, 67, 100
3, 122112, Note_on_c, 1, 62, 80
3, 122300, Note_off_c, 1, 62, 100
3, 122304, Note_on_c, 1, 67, 80
3, 122492, Note_off_c, 1, 67, 100
3, 122496, Note_on_c, 1, 60, 80
3, 122684, Note_off_c, 1, 60, 100
3, 122688, Note_on_c, 1, 67, 80
3, 122876, Note_off_c, 1, 67, 100
3, 122880, Note_on_c, 1, 62, 80
3, 123068, Note_off_c, 1, 62, 100
3, 123072, Note_on_c, 1, 67, 80
3, 123260, Note_off_c, 1, 67, 100
3, 123264, Note_on_c, 1, 64, 80
3, 123452, Note_off_c, 1, 64, 100
3, 123456, Note_on_c, 1, 67, 80
3, 123644, Note_off_c, 1, 67, 100
3, 123648, Note_on_c, 1, 67, 80
3, 123836, Note_off_c, 1, 67, 100
3, 123840, Note_on_c, 1, 69, 80
3, 124028, Note_off_c, 1, 69, 100
3, 124032, Note_on_c, 1, 65, 80
3, 124220, Note_off_c, 1, 65, 100
3, 124224, Note_on_c, 1, 69, 80
3, 124412, Note_off_c, 1, 69, 100
3, 124416, Note_on_c, 1, 64, 80
3, 124604, Note_off_c, 1, 64, 100
3, 124608, Note_on_c, 1, 69, 80
3, 124796, Note_off_c, 1, 69, 100
3, 124800, Note_on_c, 1, 62, 80
3, 124988, Note_off_c, 1, 62, 100
3, 124992, Note_on_c, 1, 69, 80
3, 125180, Note_off_c, 1, 69, 100
3, 125184, Note_on_c, 1, 60, 80
3, 125372, Note_off_c, 1, 60, 100
3, 125376, Note_on_c, 1, 69, 80
3, 125564, Note_off_c, 1, 69, 100
3, 125568, Note_on_c, 1, 59, 80
3, 125756, Note_off_c, 1, 59, 100
3, 125760, Note_on_c, 1, 68, 80
3, 125948, Note_off_c, 1, 68, 100
3, 125952, Note_on_c, 1, 57, 80
3, 126140, Note_off_c, 1, 57, 100
3, 126144, Note_on_c, 1, 69, 81
3, 126332, Note_off_c, 1, 69, 100
3, 126336, Note_on_c, 1, 55, 83
3, 126524, Note_off_c, 1, 55, 100
3, 126528, Note_on_c, 1, 67, 85
3, 126716, Note_off_c, 1, 67, 100
3, 126720, Note_on_c, 1, 53, 87
3, 126908, Note_off_c, 1, 53, 100
3, 126912, Note_on_c, 1, 65, 88
3, 127100, Note_off_c, 1, 65, 100
3, 127104, Note_on_c, 1, 52, 90
3, 127292, Note_off_c, 1, 52, 100
3, 127296, Note_on_c, 1, 64, 92
3, 127484, Note_off_c, 1, 64, 100
3, 127488, Note_on_c, 1, 50, 94
3, 127676, Note_off_c, 1, 50, 100
3, 127680, Note_on_c, 1, 62, 95
3, 127868, Note_off_c, 1, 62, 100
3, 127872, Note_on_c, 1, 48, 97
3, 128060, Note_off_c, 1, 48, 100
3, 128064, Note_on_c, 1, 60, 99
3, 128252, Note_off_c, 1, 60, 100
3, 128256, Note_on_c, 1, 47, 101
3, 128444, Note_off_c, 1, 47, 100
3, 128448, Note_on_c, 1, 59, 102
3, 128636, Note_off_c, 1, 59, 100
3, 128640, Note_on_c, 1, 45, 104
3, 128828, Note_off_c, 1, 45, 100
3, 128832, Note_on_c, 1, 57, 106
3, 129020, Note_off_c, 1, 57, 100
3, 129024, Note_on_c, 1, 44, 108
3, 129212, Note_off_c, 1, 44, 100
3, 129216, Note_on_c, 1, 56, 109
3, 129404, Note_off_c, 1, 56, 100
3, 129408, Note_on_c, 1, 57, 111
3, 129408, Note_on_c, 1, 45, 108
3, 129596, Note_off_c, 1, 57, 100
3, 129596, Note_off_c, 1, 45, 100
3, 129600, Note_on_c, 1, 64, 80
3, 129788, Note_off_c, 1, 64, 100
3, 129792, Note_on_c, 1, 59, 80
3, 129980, Note_off_c, 1, 59, 100
3, 129984, Note_on_c, 1, 64, 80
3, 130172, Note_off_c, 1, 64, 100
3, 130176, Note_on_c, 1, 60, 80
3, 130364, Note_off_c, 1, 60, 100
3, 130368, Note_on_c, 1, 64, 80
3, 130556, Note_off_c, 1, 64, 100
3, 130560, Note_on_c, 1, 52, 116
3, 130560, Note_on_c, 1, 62, 80
3, 130748, Note_off_c, 1, 62, 100
3, 130752, Note_on_c, 1, 64, 80
3, 130940, Note_off_c, 1, 64, 100
3, 130944, Note_on_c, 1, 60, 80
3, 131132, Note_off_c, 1, 60, 100
3, 131136, Note_on_c, 1, 64, 80
3, 131324, Note_off_c, 1, 64, 100
3, 131328, Note_on_c, 1, 59, 80
3, 131516, Note_off_c, 1, 59, 100
3, 131520, Note_on_c, 1, 64, 80
3, 131708, Note_off_c, 1, 64, 100
3, 131712, Note_on_c, 1, 57, 80
3, 131900, Note_off_c, 1, 57, 100
3, 131904, Note_on_c, 1, 64, 80
3, 132092, Note_off_c, 1, 64, 100
3, 132096, Note_on_c, 1, 59, 80
3, 132284, Note_off_c, 1, 59, 100
3, 132288, Note_on_c, 1, 64, 80
3, 132476, Note_off_c, 1, 64, 100
3, 132480, Note_on_c, 1, 60, 80
3, 132668, Note_off_c, 1, 60, 100
3, 132672, Note_on_c, 1, 64, 80
3, 132860, Note_off_c, 1, 52, 100
3, 132860, Note_off_c, 1, 64, 100
3, 132864, Note_on_c, 1, 62, 110
3, 132864, Note_on_c, 1, 52, 110
3, 133052, Note_off_c, 1, 62, 100
3, 133056, Note_on_c, 1, 64, 110
3, 133244, Note_off_c, 1, 64, 100
3, 133248, Note_on_c, 1, 60, 110
3, 133436, Note_off_c, 1, 60, 100
3, 133440, Note_on_c, 1, 64, 110
3, 133628, Note_off_c, 1, 64, 100
3, 133632, Note_on_c, 1, 59, 110
3, 133820, Note_off_c, 1, 59, 100
3, 133824, Note_on_c, 1, 64, 110
3, 134012, Note_off_c, 1, 64, 100
3, 134016, Note_on_c, 1, 57, 110
3, 134204, Note_off_c, 1, 57, 100
3, 134208, Note_on_c, 1, 64, 110
3, 134396, Note_off_c, 1, 64, 100
3, 134400, Note_on_c, 1, 59, 110
3, 134588, Note_off_c, 1, 59, 100
3, 134592, Note_on_c, 1, 64, 110
3, 134780, Note_off_c, 1, 64, 100
3, 134784, Note_on_c, 1, 60, 110
3, 134972, Note_off_c, 1, 60, 100
3, 134976, Note_on_c, 1, 64, 110
3, 135164, Note_off_c, 1, 52, 100
3, 135164, Note_off_c, 1, 64, 100
3, 135168, Note_on_c, 1, 62, 120
3, 135168, Note_on_c, 1, 52, 126
3, 135356, Note_off_c, 1, 62, 100
3, 135360, Note_on_c, 1, 64, 120
3, 135548, Note_off_c, 1, 64, 100
3, 135552, Note_on_c, 1, 60, 120
3, 135740, Note_off_c, 1, 60, 100
3, 135744, Note_on_c, 1, 64, 120
3, 135932, Note_off_c, 1, 64, 100
3, 135936, Note_on_c, 1, 59, 120
3, 136124, Note_off_c, 1, 59, 100
3, 136128, Note_on_c, 1, 64, 120
3, 136316, Note_off_c, 1, 52, 100
3, 136316, Note_off_c, 1, 64, 100
3, 136320, Note_on_c, 1, 57, 120
3, 136508, Note_off_c, 1, 57, 100
3, 136512, Note_on_c, 1, 69, 120
3, 136700, Note_off_c, 1, 69, 100
3, 136704, Note_on_c, 1, 50, 120
3, 136892, Note_off_c, 1, 50, 100
3, 136896, Note_on_c, 1, 62, 120
3, 137084, Note_off_c, 1, 62, 100
3, 137088, Note_on_c, 1, 52, 120
3, 137276, Note_off_c, 1, 52, 100
3, 137280, Note_on_c, 1, 64, 120
3, 137468, Note_off_c, 1, 64, 100
3, 137472, Note_on_c, 1, 57, 120
3, 137852, Note_off_c, 1, 57, 100
3, 137856, Note_on_c, 1, 45, 120
3, 138236, Note_off_c, 1, 45, 100
3, 138624, Note_on_c, 1, 60, 80
3, 138812, Note_off_c, 1, 60, 100
3, 138816, Note_on_c, 1, 67, 80
3, 139004, Note_off_c, 1, 67, 100
3, 139008, Note_on_c, 1, 62, 80
3, 139196, Note_off_c, 1, 62, 100
3, 139200, Note_on_c, 1, 67, 80
3, 139388, Note_off_c, 1, 67, 100
3, 139392, Note_on_c, 1, 64, 80
3, 139580, Note_off_c, 1, 64, 100
3, 139584, Note_on_c, 1, 67, 80
3, 139772, Note_off_c, 1, 67, 100
3, 139776, Note_on_c, 1, 65, 80
3, 139964, Note_off_c, 1, 65, 100
3, 139968, Note_on_c, 1, 67, 80
3, 140156, Note_off_c, 1, 67, 100
3, 140160, Note_on_c, 1, 64, 80
3, 140348, Note_off_c, 1, 64, 100
3, 140352, Note_on_c, 1, 67, 80
3, 140540, Note_off_c, 1, 67, 100
3, 140544, Note_on_c, 1, 62, 80
3, 140732, Note_off_c, 1, 62, 100
3, 140736, Note_on_c, 1, 67, 80
3, 140924, Note_off_c, 1, 67, 100
3, 140928, Note_on_c, 1, 60, 80
3, 141116, Note_off_c, 1, 60, 100
3, 141120, Note_on_c, 1, 67, 80
3, 141308, Note_off_c, 1, 67, 100
3, 141312, Note_on_c, 1, 62, 80
3, 141500, Note_off_c, 1, 62, 100
3, 141504, Note_on_c, 1, 67, 80
3, 141692, Note_off_c, 1, 67, 100
3, 141696, Note_on_c, 1, 64, 80
3, 141884, Note_off_c, 1, 64, 100
3, 141888, Note_on_c, 1, 67, 80
3, 142076, Note_off_c, 1, 67, 100
3, 142080, Note_on_c, 1, 67, 80
3, 142268, Note_off_c, 1, 67, 100
3, 142272, Note_on_c, 1, 69, 80
3, 142460, Note_off_c, 1, 69, 100
3, 142464, Note_on_c, 1, 65, 80
3, 142652, Note_off_c, 1, 65, 100
3, 142656, Note_on_c, 1, 69, 80
3, 142844, Note_off_c, 1, 69, 100
3, 142848, Note_on_c, 1, 64, 80
3, 143036, Note_off_c, 1, 64, 100
3, 143040, Note_on_c, 1, 69, 80
3, 143228, Note_off_c, 1, 69, 100
3, 143232, Note_on_c, 1, 62, 80
3, 143420, Note_off_c, 1, 62, 100
3, 143424, Note_on_c, 1, 69, 80
3, 143612, Note_off_c, 1, 69, 100
3, 143616, Note_on_c, 1, 60, 80
3, 143804, Note_off_c, 1, 60, 100
3, 143808, Note_on_c, 1, 69, 80
3, 143996, Note_off_c, 1, 69, 100
3, 144000, Note_on_c, 1, 59, 80
3, 144188, Note_off_c, 1, 59, 100
3, 144192, Note_on_c, 1, 68, 80
3, 144380, Note_off_c, 1, 68, 100
3, 144384, Note_on_c, 1, 57, 80
3, 144572, Note_off_c, 1, 57, 100
3, 144576, Note_on_c, 1, 69, 80
3, 144764, Note_off_c, 1, 69, 100
3, 144768, Note_on_c, 1, 55, 80
3, 144956, Note_off_c, 1, 55, 100
3, 144960, Note_on_c, 1, 67, 80
3, 145148, Note_off_c, 1, 67, 100
3, 145152, Note_on_c, 1, 53, 80
3, 145340, Note_off_c, 1, 53, 100
3, 145344, Note_on_c, 1, 65, 80
3, 145532, Note_off_c, 1, 65, 100
3, 145536, Note_on_c, 1, 52, 80
3, 145724, Note_off_c, 1, 52, 100
3, 145728, Note_on_c, 1, 64, 82
3, 145916, Note_off_c, 1, 64, 100
3, 145920, Note_on_c, 1, 50, 85
3, 146108, Note_off_c, 1, 50, 100
3, 146112, Note_on_c, 1, 62, 88
3, 146300, Note_off_c, 1, 62, 100
3, 146304, Note_on_c, 1, 48, 91
3, 146492, Note_off_c, 1, 48, 100
3, 146496, Note_on_c, 1, 60, 94
3, 146684, Note_off_c, 1, 60, 100
3, 146688, Note_on_c, 1, 47, 97
3, 146876, Note_off_c, 1, 47, 100
3, 146880, Note_on_c, 1, 59, 100
3, 147068, Note_off_c, 1, 59, 100
3, 147072, Note_on_c, 1, 45, 103
3, 147260, Note_off_c, 1, 45, 100
3, 147264, Note_on_c, 1, 57, 106
3, 147452, Note_off_c, 1, 57, 100
3, 147456, Note_on_c, 1, 44, 109
3, 147644, Note_off_c, 1, 44, 100
3, 147648, Note_on_c, 1, 56, 112
3, 147836, Note_off_c, 1, 56, 100
3, 147840, Note_on_c, 1, 57, 114
3, 147840, Note_on_c, 1, 45, 114
3, 148028, Note_off_c, 1, 57, 100
3, 148028, Note_off_c, 1, 45, 100
3, 148032, Note_on_c, 1, 64, 80
3, 148220, Note_off_c, 1, 64, 100
3, 148224, Note_on_c, 1, 59, 80
3, 148412, Note_off_c, 1, 59, 100
3, 148416, Note_on_c, 1, 64, 80
3, 148604, Note_off_c, 1, 64, 100
3, 148608, Note_on_c, 1, 60, 80
3, 148796, Note_off_c, 1, 60, 100
3, 148800, Note_on_c, 1, 64, 80
3, 148988, Note_off_c, 1, 64, 100
3, 148992, Note_on_c, 1, 52, 112
3, 148992, Note_on_c, 1, 62, 80
3, 149180, Note_off_c, 1, 62, 100
3, 149184, Note_on_c, 1, 64, 80
3, 149372, Note_off_c, 1, 64, 100
3, 149376, Note_on_c, 1, 60, 80
3, 149564, Note_off_c, 1, 60, 100
3, 149568, Note_on_c, 1, 64, 80
3, 149756, Note_off_c, 1, 64, 100
3, 149760, Note_on_c, 1, 59, 80
3, 149948, Note_off_c, 1, 59, 100
3, 149952, Note_on_c, 1, 64, 80
3, 150140, Note_off_c, 1, 64, 100
3, 150144, Note_on_c, 1, 57, 80
3, 150332, Note_off_c, 1, 57, 100
3, 150336, Note_on_c, 1, 64, 80
3, 150524, Note_off_c, 1, 64, 100
3, 150528, Note_on_c, 1, 59, 80
3, 150716, Note_off_c, 1, 59, 100
3, 150720, Note_on_c, 1, 64, 80
3, 150908, Note_off_c, 1, 64, 100
3, 150912, Note_on_c, 1, 60, 80
3, 151100, Note_off_c, 1, 60, 100
3, 151104, Note_on_c, 1, 64, 80
3, 151292, Note_off_c, 1, 52, 100
3, 151292, Note_off_c, 1, 64, 100
3, 151296, Note_on_c, 1, 62, 110
3, 151296, Note_on_c, 1, 52, 125
3, 151484, Note_off_c, 1, 62, 100
3, 151488, Note_on_c, 1, 64, 110
3, 151676, Note_off_c, 1, 64, 100
3, 151680, Note_on_c, 1, 60, 110
3, 151868, Note_off_c, 1, 60, 100
3, 151872, Note_on_c, 1, 64, 110
3, 152060, Note_off_c, 1, 64, 100
3, 152064, Note_on_c, 1, 59, 110
3, 152252, Note_off_c, 1, 59, 100
3, 152256, Note_on_c, 1, 64, 110
3, 152444, Note_off_c, 1, 64, 100
3, 152448, Note_on_c, 1, 57, 110
3, 152636, Note_off_c, 1, 57, 100
3, 152640, Note_on_c, 1, 64, 110
3, 152828, Note_off_c, 1, 64, 100
3, 152832, Note_on_c, 1, 59, 110
3, 153020, Note_off_c, 1, 59, 100
3, 153024, Note_on_c, 1, 64, 110
3, 153212, Note_off_c, 1, 64, 100
3, 153216, Note_on_c, 1, 60, 110
3, 153404, Note_off_c, 1, 60, 100
3, 153408, Note_on_c, 1, 64, 110
3, 153596, Note_off_c, 1, 52, 100
3, 153596, Note_off_c, 1, 64, 100
3, 153600, Note_on_c, 1, 62, 120
3, 153600, Note_on_c, 1, 52, 127
3, 153788, Note_off_c, 1, 62, 100
3, 153792, Note_on_c, 1, 64, 120
3, 153980, Note_off_c, 1, 64, 100
3, 153984, Note_on_c, 1, 60, 120
3, 154172, Note_off_c, 1, 60, 100
3, 154176, Note_on_c, 1, 64, 120
3, 154364, Note_off_c, 1, 64, 100
3, 154368, Note_on_c, 1, 59, 120
3, 154556, Note_off_c, 1, 59, 100
3, 154560, Note_on_c, 1, 64, 120
3, 154748, Note_off_c, 1, 52, 100
3, 154748, Note_off_c, 1, 64, 100
3, 154752, Note_on_c, 1, 57, 120
3, 154940, Note_off_c, 1, 57, 100
3, 154944, Note_on_c, 1, 69, 120
3, 155132, Note_off_c, 1, 69, 100
3, 155136, Note_on_c, 1, 50, 120
3, 155324, Note_off_c, 1, 50, 100
3, 155328, Note_on_c, 1, 62, 120
3, 155516, Note_off_c, 1, 62, 100
3, 155520, Note_on_c, 1, 52, 120
3, 155708, Note_off_c, 1, 52, 100
3, 155712, Note_on_c, 1, 64, 120
3, 155900, Note_off_c, 1, 64, 100
3, 155904, Note_on_c, 1, 57, 120
3, 156284, Note_off_c, 1, 57, 100
3, 156288, Note_on_c, 1, 45, 120
3, 156668, Note_off_c, 1, 45, 100
3, 157056, Key_signature, 3, "major"
3, 157440, Note_on_c, 1, 61, 80
3, 157440, Note_on_c, 1, 57, 80
3, 157440, Note_on_c, 1, 64, 80
3, 157820, Note_off_c, 1, 61, 100
3, 157820, Note_off_c, 1, 57, 100
3, 157820, Note_off_c, 1, 64, 100
3, 158592, Note_on_c, 1, 57, 80
3, 158592, Note_on_c, 1, 52, 80
3, 158592, Note_on_c, 1, 49, 80
3, 158592, Note_on_c, 1, 45, 80
3, 158972, Note_off_c, 1, 57, 100
3, 158972, Note_off_c, 1, 52, 100
3, 158972, Note_off_c, 1, 49, 100
3, 158972, Note_off_c, 1, 45, 100
3, 159360, Note_on_c, 1, 57, 80
3, 159740, Note_off_c, 1, 57, 100
3, 159744, Note_on_c, 1, 54, 80
3, 160124, Note_off_c, 1, 54, 100
3, 160128, Note_on_c, 1, 51, 80
3, 160508, Note_off_c, 1, 51, 100
3, 160512, Note_on_c, 1, 52, 80
3, 160892, Note_off_c, 1, 52, 100
3, 160896, Note_on_c, 1, 40, 80
3, 161276, Note_off_c, 1, 40, 100
3, 162048, Note_on_c, 1, 62, 80
3, 162048, Note_on_c, 1, 59, 80
3, 162048, Note_on_c, 1, 56, 80
3, 162048, Note_on_c, 1, 52, 80
3, 162428, Note_off_c, 1, 62, 100
3, 162428, Note_off_c, 1, 59, 100
3, 162428, Note_off_c, 1, 56, 100
3, 162428, Note_off_c, 1, 52, 100
3, 163200, Note_on_c, 1, 52, 80
3, 163200, Note_on_c, 1, 47, 80
3, 163200, Note_on_c, 1, 44, 80
3, 163200, Note_on_c, 1, 40, 80
3, 163580, Note_off_c, 1, 52, 100
3, 163580, Note_off_c, 1, 47, 100
3, 163580, Note_off_c, 1, 44, 100
3, 163580, Note_off_c, 1, 40, 100
3, 164352, Note_on_c, 1, 59, 80
3, 164352, Note_on_c, 1, 52, 80
3, 164732, Note_off_c, 1, 59, 100
3, 164732, Note_off_c, 1, 52, 100
3, 164736, Note_on_c, 1, 59, 80
3, 164736, Note_on_c, 1, 52, 80
3, 165116, Note_off_c, 1, 59, 100
3, 165116, Note_off_c, 1, 52, 100
3, 165120, Note_on_c, 1, 56, 80
3, 165120, Note_on_c, 1, 45, 80
3, 165500, Note_off_c, 1, 56, 100
3, 165504, Note_on_c, 1, 57, 80
3, 165884, Note_off_c, 1, 45, 100
3, 165884, Note_off_c, 1, 57, 100
3, 166656, Note_on_c, 1, 61, 80
3, 166656, Note_on_c, 1, 57, 80
3, 166656, Note_on_c, 1, 64, 80
3, 167036, Note_off_c, 1, 61, 100
3, 167036, Note_off_c, 1, 57, 100
3, 167036, Note_off_c, 1, 64, 100
3, 167808, Note_on_c, 1, 57, 80
3, 167808, Note_on_c, 1, 52, 80
3, 167808, Note_on_c, 1, 49, 80
3, 167808, Note_on_c, 1, 45, 80
3, 168188, Note_off_c, 1, 57, 100
3, 168188, Note_off_c, 1, 52, 100
3, 168188, Note_off_c, 1, 49, 100
3, 168188, Note_off_c, 1, 45, 100
3, 168576, Note_on_c, 1, 57, 80
3, 168956, Note_off_c, 1, 57, 100
3, 168960, Note_on_c, 1, 54, 80
3, 169340, Note_off_c, 1, 54, 100
3, 169344, Note_on_c, 1, 51, 80
3, 169724, Note_off_c, 1, 51, 100
3, 169728, Note_on_c, 1, 52, 80
3, 170108, Note_off_c, 1, 52, 100
3, 170112, Note_on_c, 1, 40, 80
3, 170492, Note_off_c, 1, 40, 100
3, 171264, Note_on_c, 1, 62, 80
3, 171264, Note_on_c, 1, 59, 80
3, 171264, Note_on_c, 1, 56, 80
3, 171264, Note_on_c, 1, 52, 80
3, 171644, Note_off_c, 1, 62, 100
3, 171644, Note_off_c, 1, 59, 100
3, 171644, Note_off_c, 1, 56, 100
3, 171644, Note_off_c, 1, 52, 100
3, 172416, Note_on_c, 1, 52, 80
3, 172416, Note_on_c, 1, 47, 80
3, 172416, Note_on_c, 1, 44, 80
3, 172416, Note_on_c, 1, 40, 80
3, 172796, Note_off_c, 1, 52, 100
3, 172796, Note_off_c, 1, 47, 100
3, 172796, Note_off_c, 1, 44, 100
3, 172796, Note_off_c, 1, 40, 100
3, 173568, Note_on_c, 1, 59, 80
3, 173568, Note_on_c, 1, 52, 80
3, 173948, Note_off_c, 1, 59, 100
3, 173948, Note_off_c, 1, 52, 100
3, 173952, Note_on_c, 1, 59, 80
3, 173952, Note_on_c, 1, 52, 80
3, 174332, Note_off_c, 1, 59, 100
3, 174332, Note_off_c, 1, 52, 100
3, 174336, Note_on_c, 1, 56, 80
3, 174336, Note_on_c, 1, 45, 80
3, 174716, Note_off_c, 1, 56, 100
3, 174720, Note_on_c, 1, 57, 80
3, 175100, Note_off_c, 1, 45, 100
3, 175100, Note_off_c, 1, 57, 100
3, 175104, Note_on_c, 1, 56, 80
3, 175200, Note_on_c, 1, 52, 80
3, 175292, Note_off_c, 1, 56, 100
3, 175296, Note_on_c, 1, 59, 81
3, 175388, Note_off_c, 1, 52, 100
3, 175392, Note_on_c, 1, 56, 82
3, 175484, Note_off_c, 1, 59, 100
3, 175488, Note_on_c, 1, 64, 83
3, 175580, Note_off_c, 1, 56, 100
3, 175868, Note_off_c, 1, 64, 100
3, 176256, Note_on_c, 1, 56, 90
3, 176352, Note_on_c, 1, 50, 91
3, 176444, Note_off_c, 1, 56, 100
3, 176448, Note_on_c, 1, 59, 92
3, 176540, Note_off_c, 1, 50, 100
3, 176544, Note_on_c, 1, 56, 93
3, 176636, Note_off_c, 1, 59, 100
3, 176640, Note_on_c, 1, 62, 93
3, 176732, Note_off_c, 1, 56, 100
3, 177020, Note_off_c, 1, 62, 100
3, 177408, Note_on_c, 1, 53, 100
3, 177504, Note_on_c, 1, 49, 101
3, 177596, Note_off_c, 1, 53, 100
3, 177600, Note_on_c, 1, 56, 102
3, 177692, Note_off_c, 1, 49, 100
3, 177696, Note_on_c, 1, 53, 103
3, 177788, Note_off_c, 1, 56, 100
3, 177792, Note_on_c, 1, 61, 104
3, 177884, Note_off_c, 1, 53, 100
3, 178172, Note_off_c, 1, 61, 100
3, 178560, Note_on_c, 1, 61, 111
3, 178940, Note_off_c, 1, 61, 100
3, 178944, Note_on_c, 1, 61, 110
3, 179324, Note_off_c, 1, 61, 100
3, 179328, Note_on_c, 1, 54, 110
3, 179708, Note_off_c, 1, 54, 100
3, 179712, Note_on_c, 1, 57, 80
3, 179808, Note_on_c, 1, 54, 80
3, 179900, Note_off_c, 1, 57, 100
3, 179904, Note_on_c, 1, 61, 81
3, 179996, Note_off_c, 1, 54, 100
3, 180000, Note_on_c, 1, 57, 82
3, 180092, Note_off_c, 1, 61, 100
3, 180096, Note_on_c, 1, 66, 83
3, 180188, Note_off_c, 1, 57, 100
3, 180476, Note_off_c, 1, 66, 100
3, 180864, Note_on_c, 1, 56, 90
3, 180960, Note_on_c, 1, 52, 91
3, 181052, Note_off_c, 1, 56, 100
3, 181056, Note_on_c, 1, 61, 92
3, 181148, Note_off_c, 1, 52, 100
3, 181152, Note_on_c, 1, 56, 93
3, 181244, Note_off_c, 1, 61, 100
3, 181248, Note_on_c, 1, 64, 93
3, 181340, Note_off_c, 1, 56, 100
3, 181628, Note_off_c, 1, 64, 100
3, 182016, Note_on_c, 1, 55, 100
3, 182108, Note_off_c, 1, 55, 100
3, 182112, Note_on_c, 1, 51, 101
3, 182204, Note_off_c, 1, 51, 100
3, 182208, Note_on_c, 1, 58, 102
3, 182300, Note_off_c, 1, 58, 100
3, 182304, Note_on_c, 1, 55, 103
3, 182396, Note_off_c, 1, 55, 100
3, 182400, Note_on_c, 1, 63, 104
3, 182780, Note_off_c, 1, 63, 100
3, 183168, Note_on_c, 1, 63, 111
3, 183548, Note_off_c, 1, 63, 100
3, 183552, Note_on_c, 1, 63, 110
3, 183932, Note_off_c, 1, 63, 100
3, 183936, Note_on_c, 1, 56, 110
3, 184316, Note_off_c, 1, 56, 100
3, 184704, Note_on_c, 1, 59, 120
3, 185084, Note_off_c, 1, 59, 100
3, 185088, Note_on_c, 1, 61, 120
3, 185468, Note_off_c, 1, 61, 100
3, 186240, Note_on_c, 1, 59, 80
3, 186240, Note_on_c, 1, 51, 80
3, 186620, Note_off_c, 1, 59, 100
3, 186620, Note_off_c, 1, 51, 100
3, 186624, Note_on_c, 1, 58, 80
3, 186624, Note_on_c, 1, 51, 80
3, 187004, Note_off_c, 1, 58, 100
3, 187004, Note_off_c, 1, 51, 100
3, 187008, Note_on_c, 1, 56, 80
3, 187008, Note_on_c, 1, 44, 80
3, 187196, Note_off_c, 1, 56, 100
3, 187196, Note_off_c, 1, 44, 100
3, 187200, Note_on_c, 1, 63, 80
3, 187388, Note_off_c, 1, 63, 100
3, 187392, Note_on_c, 1, 59, 80
3, 187580, Note_off_c, 1, 59, 100
3, 187584, Note_on_c, 1, 63, 80
3, 187772, Note_off_c, 1, 63, 100
3, 187776, Note_on_c, 1, 56, 80
3, 187964, Note_off_c, 1, 56, 100
3, 187968, Note_on_c, 1, 63, 80
3, 188156, Note_off_c, 1, 63, 100
3, 188160, Note_on_c, 1, 58, 80
3, 188348, Note_off_c, 1, 58, 100
3, 188352, Note_on_c, 1, 63, 80
3, 188540, Note_off_c, 1, 63, 100
3, 188544, Note_on_c, 1, 61, 80
3, 188732, Note_off_c, 1, 61, 100
3, 188736, Note_on_c, 1, 63, 80
3, 188924, Note_off_c, 1, 63, 100
3, 188928, Note_on_c, 1, 58, 80
3, 189116, Note_off_c, 1, 58, 100
3, 189120, Note_on_c, 1, 63, 80
3, 189308, Note_off_c, 1, 63, 100
3, 189312, Note_on_c, 1, 59, 80
3, 189500, Note_off_c, 1, 59, 100
3, 189504, Note_on_c, 1, 63, 80
3, 189692, Note_off_c, 1, 63, 100
3, 189696, Note_on_c, 1, 58, 80
3, 189884, Note_off_c, 1, 58, 100
3, 189888, Note_on_c, 1, 61, 80
3, 190076, Note_off_c, 1, 61, 100
3, 190080, Note_on_c, 1, 56, 80
3, 190268, Note_off_c, 1, 56, 100
3, 190272, Note_on_c, 1, 59, 80
3, 190460, Note_off_c, 1, 59, 100
3, 190464, Note_on_c, 1, 49, 80
3, 190652, Note_off_c, 1, 49, 100
3, 190656, Note_on_c, 1, 61, 80
3, 190844, Note_off_c, 1, 61, 100
3, 190848, Note_on_c, 1, 51, 80
3, 191036, Note_off_c, 1, 51, 100
3, 191040, Note_on_c, 1, 61, 80
3, 191228, Note_off_c, 1, 61, 100
3, 191232, Note_on_c, 1, 51, 80
3, 191420, Note_off_c, 1, 51, 100
3, 191424, Note_on_c, 1, 60, 80
3, 191612, Note_off_c, 1, 60, 100
3, 191616, Note_on_c, 1, 56, 80
3, 191804, Note_off_c, 1, 56, 100
3, 191808, Note_on_c, 1, 63, 80
3, 191996, Note_off_c, 1, 63, 100
3, 192000, Note_on_c, 1, 59, 80
3, 192188, Note_off_c, 1, 59, 100
3, 192192, Note_on_c, 1, 63, 80
3, 192380, Note_off_c, 1, 63, 100
3, 192384, Note_on_c, 1, 56, 80
3, 192572, Note_off_c, 1, 56, 100
3, 192576, Note_on_c, 1, 63, 80
3, 192764, Note_off_c, 1, 63, 100
3, 192768, Note_on_c, 1, 58, 80
3, 192956, Note_off_c, 1, 58, 100
3, 192960, Note_on_c, 1, 63, 80
3, 193148, Note_off_c, 1, 63, 100
3, 193152, Note_on_c, 1, 61, 80
3, 193340, Note_off_c, 1, 61, 100
3, 193344, Note_on_c, 1, 63, 80
3, 193532, Note_off_c, 1, 63, 100
3, 193536, Note_on_c, 1, 58, 80
3, 193724, Note_off_c, 1, 58, 100
3, 193728, Note_on_c, 1, 63, 80
3, 193916, Note_off_c, 1, 63, 100
3, 193920, Note_on_c, 1, 59, 80
3, 193920, Note_on_c, 1, 63, 80
3, 195068, Note_off_c, 1, 59, 100
3, 195068, Note_off_c, 1, 63, 100
3, 195072, Note_on_c, 1, 66, 85
3, 195072, Note_on_c, 1, 59, 85
3, 196220, Note_off_c, 1, 66, 100
3, 196220, Note_off_c, 1, 59, 100
3, 196224, Note_on_c, 1, 64, 90
3, 196224, Note_on_c, 1, 59, 90
3, 196224, Note_on_c, 1, 52, 90
3, 197372, Note_off_c, 1, 64, 100
3, 197372, Note_off_c, 1, 59, 100
3, 197372, Note_off_c, 1, 52, 100
3, 197376, Note_on_c, 1, 64, 79
3, 197376, Note_on_c, 1, 57, 79
3, 198524, Note_off_c, 1, 64, 100
3, 198524, Note_off_c, 1, 57, 100
3, 198528, Note_on_c, 1, 62, 70
3, 198528, Note_on_c, 1, 57, 70
3, 198528, Note_on_c, 1, 50, 70
3, 199676, Note_off_c, 1, 62, 100
3, 199676, Note_off_c, 1, 57, 100
3, 199676, Note_off_c, 1, 50, 100
3, 199680, Note_on_c, 1, 59, 70
3, 199680, Note_on_c, 1, 52, 70
3, 199680, Note_on_c, 1, 47, 70
3, 200828, Note_off_c, 1, 59, 100
3, 200828, Note_off_c, 1, 52, 100
3, 200828, Note_off_c, 1, 47, 100
3, 203520, Note_on_c, 1, 61, 80
3, 203520, Note_on_c, 1, 57, 80
3, 203520, Note_on_c, 1, 64, 80
3, 203900, Note_off_c, 1, 61, 100
3, 203900, Note_off_c, 1, 57, 100
3, 203900, Note_off_c, 1, 64, 100
3, 204672, Note_on_c, 1, 57, 80
3, 204672, Note_on_c, 1, 52, 80
3, 204672, Note_on_c, 1, 49, 80
3, 204672, Note_on_c, 1, 45, 80
3, 205052, Note_off_c, 1, 57, 100
3, 205052, Note_off_c, 1, 52, 100
3, 205052, Note_off_c, 1, 49, 100
3, 205052, Note_off_c, 1, 45, 100
3, 205440, Note_on_c, 1, 57, 80
3, 205820, Note_off_c, 1, 57, 100
3, 205824, Note_on_c, 1, 54, 80
3, 206204, Note_off_c, 1, 54, 100
3, 206208, Note_on_c, 1, 51, 80
3, 206588, Note_off_c, 1, 51, 100
3, 206592, Note_on_c, 1, 52, 80
3, 206972, Note_off_c, 1, 52, 100
3, 206976, Note_on_c, 1, 40, 80
3, 207356, Note_off_c, 1, 40, 100
3, 208128, Note_on_c, 1, 62, 80
3, 208128, Note_on_c, 1, 59, 80
3, 208128, Note_on_c, 1, 56, 80
3, 208128, Note_on_c, 1, 52, 80
3, 208508, Note_off_c, 1, 62, 100
3, 208508, Note_off_c, 1, 59, 100
3, 208508, Note_off_c, 1, 56, 100
3, 208508, Note_off_c, 1, 52, 100
3, 209280, Note_on_c, 1, 52, 80
3, 209280, Note_on_c, 1, 47, 80
3, 209280, Note_on_c, 1, 44, 80
3, 209280, Note_on_c, 1, 40, 80
3, 209660, Note_off_c, 1, 52, 100
3, 209660, Note_off_c, 1, 47, 100
3, 209660, Note_off_c, 1, 44, 100
3, 209660, Note_off_c, 1, 40, 100
3, 210432, Note_on_c, 1, 59, 80
3, 210432, Note_on_c, 1, 52, 80
3, 210812, Note_off_c, 1, 59, 100
3, 210812, Note_off_c, 1, 52, 100
3, 210816, Note_on_c, 1, 59, 80
3, 210816, Note_on_c, 1, 52, 80
3, 211196, Note_off_c, 1, 59, 100
3, 211196, Note_off_c, 1, 52, 100
3, 211200, Note_on_c, 1, 56, 80
3, 211200, Note_on_c, 1, 45, 80
3, 211580, Note_off_c, 1, 56, 100
3, 211584, Note_on_c, 1, 57, 80
3, 211964, Note_off_c, 1, 45, 100
3, 211964, Note_off_c, 1, 57, 100
3, 211968, Note_on_c, 1, 49, 110
3, 212064, Note_on_c, 1, 45, 110
3, 212156, Note_off_c, 1, 49, 100
3, 212160, Note_on_c, 1, 52, 110
3, 212252, Note_off_c, 1, 45, 100
3, 212256, Note_on_c, 1, 49, 110
3, 212348, Note_off_c, 1, 52, 100
3, 212352, Note_on_c, 1, 57, 110
3, 212444, Note_off_c, 1, 49, 100
3, 212732, Note_off_c, 1, 57, 100
3, 213120, Note_on_c, 1, 42, 110
3, 213216, Note_on_c, 1, 38, 110
3, 213308, Note_off_c, 1, 42, 100
3, 213312, Note_on_c, 1, 45, 110
3, 213404, Note_off_c, 1, 38, 100
3, 213408, Note_on_c, 1, 42, 110
3, 213500, Note_off_c, 1, 45, 100
3, 213504, Note_on_c, 1, 50, 110
3, 213596, Note_off_c, 1, 42, 100
3, 213884, Note_off_c, 1, 50, 100
3, 214272, Note_on_c, 1, 44, 110
3, 214368, Note_on_c, 1, 40, 110
3, 214460, Note_off_c, 1, 44, 100
3, 214464, Note_on_c, 1, 47, 110
3, 214556, Note_off_c, 1, 40, 100
3, 214560, Note_on_c, 1, 44, 110
3, 214652, Note_off_c, 1, 47, 100
3, 214656, Note_on_c, 1, 52, 110
3, 214748, Note_off_c, 1, 44, 100
3, 215036, Note_off_c, 1, 52, 100
3, 215424, Note_on_c, 1, 40, 120
3, 215804, Note_off_c, 1, 40, 100
3, 216192, Note_on_c, 1, 33, 120
3, 216572, Note_off_c, 1, 33, 100
3, 216576, Note_on_c, 1, 56, 80
3, 216672, Note_on_c, 1, 52, 80
3, 216764, Note_off_c, 1, 56, 100
3, 216768, Note_on_c, 1, 59, 81
3, 216860, Note_off_c, 1, 52, 100
3, 216864, Note_on_c, 1, 56, 82
3, 216956, Note_off_c, 1, 59, 100
3, 216960, Note_on_c, 1, 64, 83
3, 217052, Note_off_c, 1, 56, 100
3, 217340, Note_off_c, 1, 64, 100
3, 217728, Note_on_c, 1, 56, 90
3, 217824, Note_on_c, 1, 50, 91
3, 217916, Note_off_c, 1, 56, 100
3, 217920, Note_on_c, 1, 59, 92
3, 218012, Note_off_c, 1, 50, 100
3, 218016, Note_on_c, 1, 56, 93
3, 218108, Note_off_c, 1, 59, 100
3, 218112, Note_on_c, 1, 62, 93
3, 218204, Note_off_c, 1, 56, 100
3, 218492, Note_off_c, 1, 62, 100
3, 218880, Note_on_c, 1, 53, 100
3, 218976, Note_on_c, 1, 49, 101
3, 219068, Note_off_c, 1, 53, 100
3, 219072, Note_on_c, 1, 56, 102
3, 219164, Note_off_c, 1, 49, 100
3, 219168, Note_on_c, 1, 53, 103
3, 219260, Note_off_c, 1, 56, 100
3, 219264, Note_on_c, 1, 61, 104
3, 219356, Note_off_c, 1, 53, 100
3, 219644, Note_off_c, 1, 61, 100
3, 220032, Note_on_c, 1, 61, 111
3, 220412, Note_off_c, 1, 61, 100
3, 220416, Note_on_c, 1, 61, 110
3, 220796, Note_off_c, 1, 61, 100
3, 220800, Note_on_c, 1, 54, 110
3, 221180, Note_off_c, 1, 54, 100
3, 221184, Note_on_c, 1, 57, 80
3, 221280, Note_on_c, 1, 54, 80
3, 221372, Note_off_c, 1, 57, 100
3, 221376, Note_on_c, 1, 61, 81
3, 221468, Note_off_c, 1, 54, 100
3, 221472, Note_on_c, 1, 57, 82
3, 221564, Note_off_c, 1, 61, 100
3, 221568, Note_on_c, 1, 66, 83
3, 221660, Note_off_c, 1, 57, 100
3, 221948, Note_off_c, 1, 66, 100
3, 222336, Note_on_c, 1, 56, 90
3, 222432, Note_on_c, 1, 52, 91
3, 222524, Note_off_c, 1, 56, 100
3, 222528, Note_on_c, 1, 61, 92
3, 222620, Note_off_c, 1, 52, 100
3, 222624, Note_on_c, 1, 56, 93
3, 222716, Note_off_c, 1, 61, 100
3, 222720, Note_on_c, 1, 64, 93
3, 222812, Note_off_c, 1, 56, 100
3, 223100, Note_off_c, 1, 64, 100
3, 223488, Note_on_c, 1, 55, 100
3, 223580, Note_off_c, 1, 55, 100
3, 223584, Note_on_c, 1, 51, 101
3, 223676, Note_off_c, 1, 51, 100
3, 223680, Note_on_c, 1, 58, 102
3, 223772, Note_off_c, 1, 58, 100
3, 223776, Note_on_c, 1, 55, 103
3, 223868, Note_off_c, 1, 55, 100
3, 223872, Note_on_c, 1, 63, 104
3, 224252, Note_off_c, 1, 63, 100
3, 224640, Note_on_c, 1, 63, 111
3, 225020, Note_off_c, 1, 63, 100
3, 225024, Note_on_c, 1, 63, 110
3, 225404, Note_off_c, 1, 63, 100
3, 225408, Note_on_c, 1, 56, 110
3, 225788, Note_off_c, 1, 56, 100
3, 226176, Note_on_c, 1, 59, 120
3, 226556, Note_off_c, 1, 59, 100
3, 226560, Note_on_c, 1, 61, 120
3, 226940, Note_off_c, 1, 61, 100
3, 227712, Note_on_c, 1, 59, 80
3, 227712, Note_on_c, 1, 51, 80
3, 228092, Note_off_c, 1, 59, 100
3, 228092, Note_off_c, 1, 51, 100
3, 228096, Note_on_c, 1, 58, 80
3, 228096, Note_on_c, 1, 51, 80
3, 228476, Note_off_c, 1, 58, 100
3, 228476, Note_off_c, 1, 51, 100
3, 228480, Note_on_c, 1, 56, 80
3, 228480, Note_on_c, 1, 44, 80
3, 228668, Note_off_c, 1, 56, 100
3, 228668, Note_off_c, 1, 44, 100
3, 228672, Note_on_c, 1, 63, 80
3, 228860, Note_off_c, 1, 63, 100
3, 228864, Note_on_c, 1, 59, 80
3, 229052, Note_off_c, 1, 59, 100
3, 229056, Note_on_c, 1, 63, 80
3, 229244, Note_off_c, 1, 63, 100
3, 229248, Note_on_c, 1, 56, 80
3, 229436, Note_off_c, 1, 56, 100
3, 229440, Note_on_c, 1, 63, 80
3, 229628, Note_off_c, 1, 63, 100
3, 229632, Note_on_c, 1, 58, 80
3, 229820, Note_off_c, 1, 58, 100
3, 229824, Note_on_c, 1, 63, 80
3, 230012, Note_off_c, 1, 63, 100
3, 230016, Note_on_c, 1, 61, 80
3, 230204, Note_off_c, 1, 61, 100
3, 230208, Note_on_c, 1, 63, 80
3, 230396, Note_off_c, 1, 63, 100
3, 230400, Note_on_c, 1, 58, 80
3, 230588, Note_off_c, 1, 58, 100
3, 230592, Note_on_c, 1, 63, 80
3, 230780, Note_off_c, 1, 63, 100
3, 230784, Note_on_c, 1, 59, 80
3, 230972, Note_off_c, 1, 59, 100
3, 230976, Note_on_c, 1, 63, 80
3, 231164, Note_off_c, 1, 63, 100
3, 231168, Note_on_c, 1, 58, 80
3, 231356, Note_off_c, 1, 58, 100
3, 231360, Note_on_c, 1, 61, 80
3, 231548, Note_off_c, 1, 61, 100
3, 231552, Note_on_c, 1, 56, 80
3, 231740, Note_off_c, 1, 56, 100
3, 231744, Note_on_c, 1, 59, 80
3, 231932, Note_off_c, 1, 59, 100
3, 231936, Note_on_c, 1, 49, 80
3, 232124, Note_off_c, 1, 49, 100
3, 232128, Note_on_c, 1, 61, 80
3, 232316, Note_off_c, 1, 61, 100
3, 232320, Note_on_c, 1, 51, 80
3, 232508, Note_off_c, 1, 51, 100
3, 232512, Note_on_c, 1, 61, 80
3, 232700, Note_off_c, 1, 61, 100
3, 232704, Note_on_c, 1, 51, 80
3, 232892, Note_off_c, 1, 51, 100
3, 232896, Note_on_c, 1, 60, 80
3, 233084, Note_off_c, 1, 60, 100
3, 233088, Note_on_c, 1, 56, 80
3, 233276, Note_off_c, 1, 56, 100
3, 233280, Note_on_c, 1, 63, 80
3, 233468, Note_off_c, 1, 63, 100
3, 233472, Note_on_c, 1, 59, 80
3, 233660, Note_off_c, 1, 59, 100
3, 233664, Note_on_c, 1, 63, 80
3, 233852, Note_off_c, 1, 63, 100
3, 233856, Note_on_c, 1, 56, 80
3, 234044, Note_off_c, 1, 56, 100
3, 234048, Note_on_c, 1, 63, 80
3, 234236, Note_off_c, 1, 63, 100
3, 234240, Note_on_c, 1, 58, 80
3, 234428, Note_off_c, 1, 58, 100
3, 234432, Note_on_c, 1, 63, 80
3, 234620, Note_off_c, 1, 63, 100
3, 234624, Note_on_c, 1, 61, 80
3, 234812, Note_off_c, 1, 61, 100
3, 234816, Note_on_c, 1, 63, 80
3, 235004, Note_off_c, 1, 63, 100
3, 235008, Note_on_c, 1, 58, 80
3, 235196, Note_off_c, 1, 58, 100
3, 235200, Note_on_c, 1, 63, 80
3, 235388, Note_off_c, 1, 63, 100
3, 235392, Note_on_c, 1, 59, 80
3, 235392, Note_on_c, 1, 63, 80
3, 236540, Note_off_c, 1, 59, 100
3, 236540, Note_off_c, 1, 63, 100
3, 236544, Note_on_c, 1, 66, 85
3, 236544, Note_on_c, 1, 59, 85
3, 237692, Note_off_c, 1, 66, 100
3, 237692, Note_off_c, 1, 59, 100
3, 237696, Note_on_c, 1, 64, 90
3, 237696, Note_on_c, 1, 59, 90
3, 237696, Note_on_c, 1, 52, 90
3, 238844, Note_off_c, 1, 64, 100
3, 238844, Note_off_c, 1, 59, 100
3, 238844, Note_off_c, 1, 52, 100
3, 238848, Note_on_c, 1, 64, 79
3, 238848, Note_on_c, 1, 57, 79
3, 239996, Note_off_c, 1, 64, 100
3, 239996, Note_off_c, 1, 57, 100
3, 240000, Note_on_c, 1, 62, 70
3, 240000, Note_on_c, 1, 57, 70
3, 240000, Note_on_c, 1, 50, 70
3, 241148, Note_off_c, 1, 62, 100
3, 241148, Note_off_c, 1, 57, 100
3, 241148, Note_off_c, 1, 50, 100
3, 241152, Note_on_c, 1, 59, 70
3, 241152, Note_on_c, 1, 52, 70
3, 241152, Note_on_c, 1, 47, 70
3, 242300, Note_off_c, 1, 59, 100
3, 242300, Note_off_c, 1, 52, 100
3, 242300, Note_off_c, 1, 47, 100
3, 244992, Note_on_c, 1, 61, 80
3, 244992, Note_on_c, 1, 57, 80
3, 244992, Note_on_c, 1, 64, 80
3, 245372, Note_off_c, 1, 61, 100
3, 245372, Note_off_c, 1, 57, 100
3, 245372, Note_off_c, 1, 64, 100
3, 246144, Note_on_c, 1, 57, 80
3, 246144, Note_on_c, 1, 52, 80
3, 246144, Note_on_c, 1, 49, 80
3, 246144, Note_on_c, 1, 45, 80
3, 246524, Note_off_c, 1, 57, 100
3, 246524, Note_off_c, 1, 52, 100
3, 246524, Note_off_c, 1, 49, 100
3, 246524, Note_off_c, 1, 45, 100
3, 246912, Note_on_c, 1, 57, 80
3, 247292, Note_off_c, 1, 57, 100
3, 247296, Note_on_c, 1, 54, 80
3, 247676, Note_off_c, 1, 54, 100
3, 247680, Note_on_c, 1, 51, 80
3, 248060, Note_off_c, 1, 51, 100
3, 248064, Note_on_c, 1, 52, 80
3, 248444, Note_off_c, 1, 52, 100
3, 248448, Note_on_c, 1, 40, 80
3, 248828, Note_off_c, 1, 40, 100
3, 249600, Note_on_c, 1, 62, 80
3, 249600, Note_on_c, 1, 59, 80
3, 249600, Note_on_c, 1, 56, 80
3, 249600, Note_on_c, 1, 52, 80
3, 249980, Note_off_c, 1, 62, 100
3, 249980, Note_off_c, 1, 59, 100
3, 249980, Note_off_c, 1, 56, 100
3, 249980, Note_off_c, 1, 52, 100
3, 250752, Note_on_c, 1, 52, 80
3, 250752, Note_on_c, 1, 47, 80
3, 250752, Note_on_c, 1, 44, 80
3, 250752, Note_on_c, 1, 40, 80
3, 251132, Note_off_c, 1, 52, 100
3, 251132, Note_off_c, 1, 47, 100
3, 251132, Note_off_c, 1, 44, 100
3, 251132, Note_off_c, 1, 40, 100
3, 251904, Note_on_c, 1, 59, 80
3, 251904, Note_on_c, 1, 52, 80
3, 252284, Note_off_c, 1, 59, 100
3, 252284, Note_off_c, 1, 52, 100
3, 252288, Note_on_c, 1, 59, 80
3, 252288, Note_on_c, 1, 52, 80
3, 252668, Note_off_c, 1, 59, 100
3, 252668, Note_off_c, 1, 52, 100
3, 252672, Note_on_c, 1, 56, 80
3, 252672, Note_on_c, 1, 45, 80
3, 253052, Note_off_c, 1, 56, 100
3, 253056, Note_on_c, 1, 57, 80
3, 253436, Note_off_c, 1, 45, 100
3, 253436, Note_off_c, 1, 57, 100
3, 253440, Note_on_c, 1, 49, 110
3, 253536, Note_on_c, 1, 45, 110
3, 253628, Note_off_c, 1, 49, 100
3, 253632, Note_on_c, 1, 52, 110
3, 253724, Note_off_c, 1, 45, 100
3, 253728, Note_on_c, 1, 49, 110
3, 253820, Note_off_c, 1, 52, 100
3, 253824, Note_on_c, 1, 57, 110
3, 253916, Note_off_c, 1, 49, 100
3, 254204, Note_off_c, 1, 57, 100
3, 254592, Note_on_c, 1, 42, 110
3, 254688, Note_on_c, 1, 38, 110
3, 254780, Note_off_c, 1, 42, 100
3, 254784, Note_on_c, 1, 45, 110
3, 254876, Note_off_c, 1, 38, 100
3, 254880, Note_on_c, 1, 42, 110
3, 254972, Note_off_c, 1, 45, 100
3, 254976, Note_on_c, 1, 50, 110
3, 255068, Note_off_c, 1, 42, 100
3, 255356, Note_off_c, 1, 50, 100
3, 255744, Note_on_c, 1, 44, 110
3, 255840, Note_on_c, 1, 40, 110
3, 255932, Note_off_c, 1, 44, 100
3, 255936, Note_on_c, 1, 47, 110
3, 256028, Note_off_c, 1, 40, 100
3, 256032, Note_on_c, 1, 44, 110
3, 256124, Note_off_c, 1, 47, 100
3, 256128, Note_on_c, 1, 52, 110
3, 256220, Note_off_c, 1, 44, 100
3, 256508, Note_off_c, 1, 52, 100
3, 256896, Note_on_c, 1, 40, 120
3, 257276, Note_off_c, 1, 40, 100
3, 257664, Note_on_c, 1, 33, 120
3, 258044, Note_off_c, 1, 33, 100
3, 258044, End_track
0, 0, End_of_file
