0, 0, Header, 1, 3, 384
1, 0, Start_track
1, 0, Title_t, "L.v.Beethoven 2mov - Piano Sonata No.3 in C Major Op.2-3\000"
1, 0, Copyright_t, "Copyright(C) 1995-2009, Suzuki Software\000"
1, 0, Sequencer_specific, 9, 67, 123, 0, 88, 70, 48, 50, 0, 1
1, 0, Text_t, "XFhd:2000/03/11:JP:Classical::::L.v.Beethoven:::Kaoru Suzuki\000"
1, 0, Text_t, "XFln:JP:\203s\203A\203m\203\\\203i\203^\221æ3\224Ô\203n\222·\222²\215ì\225i2-3\201`\221æ2\212y\217Í:L.v.\203x\201[\203g\201[\203\224\203F\203\223:::\227é\202¿\202á\202ñ:\227é\202¿\202á\202ñ\000"
1, 0, Time_signature, 4, 3, 96, 8
1, 0, Sequencer_specific, 3, 0, 0, 65
1, 0, Sequencer_specific, 5, 0, 0, 119, 14, 0
1, 0, Tempo, 2000000
1, 6912, Tempo, 2400000
1, 7680, Tempo, 1500000
1, 30720, Tempo, 1578947
1, 31488, Tempo, 1621621
1, 31872, Tempo, 1666666
1, 32064, Tempo, 1875000
1, 39936, Tempo, 1714285
1, 41472, Tempo, 1666666
1, 42240, Tempo, 1621621
1, 43008, Tempo, 1621621
1, 43776, Tempo, 1578947
1, 49920, Tempo, 1666666
1, 50688, Tempo, 1714285
1, 57600, Tempo, 1818181
1, 57984, Tempo, 1935483
1, 60288, Tempo, 4000000
1, 60672, Tempo, 3000000
1, 61056, Tempo, 2000000
1, 61056, End_track
2, 0, Start_track
2, 0, Title_t, "Right"
2, 0, Control_c, 0, 0, 0
2, 0, Program_c, 0, 0
2, 0, Control_c, 0, 7, 100
2, 0, Control_c, 0, 10, 72
2, 0, Control_c, 0, 91, 127
2, 0, Key_signature, 4, "major"
2, 0, Note_on_c, 0, 59, 80
2, 0, Note_on_c, 0, 68, 80
2, 140, Note_off_c, 0, 68, 100
2, 144, Note_on_c, 0, 66, 80
2, 188, Note_off_c, 0, 66, 100
2, 192, Note_on_c, 0, 68, 80
2, 284, Note_off_c, 0, 68, 100
2, 288, Note_on_c, 0, 69, 80
2, 380, Note_off_c, 0, 59, 100
2, 380, Note_off_c, 0, 69, 100
2, 384, Note_on_c, 0, 66, 80
2, 384, Note_on_c, 0, 59, 80
2, 572, Note_off_c, 0, 66, 100
2, 572, Note_off_c, 0, 59, 100
2, 768, Note_on_c, 0, 59, 80
2, 768, Note_on_c, 0, 64, 80
2, 908, Note_off_c, 0, 64, 100
2, 912, Note_on_c, 0, 63, 80
2, 956, Note_off_c, 0, 63, 100
2, 960, Note_on_c, 0, 64, 80
2, 1052, Note_off_c, 0, 64, 100
2, 1056, Note_on_c, 0, 66, 80
2, 1148, Note_off_c, 0, 59, 100
2, 1148, Note_off_c, 0, 66, 100
2, 1152, Note_on_c, 0, 63, 80
2, 1152, Note_on_c, 0, 59, 80
2, 1152, Note_on_c, 0, 57, 80
2, 1340, Note_off_c, 0, 63, 100
2, 1340, Note_off_c, 0, 59, 100
2, 1340, Note_off_c, 0, 57, 100
2, 1440, Note_on_c, 0, 59, 80
2, 1532, Note_off_c, 0, 59, 100
2, 1536, Note_on_c, 0, 64, 80
2, 1536, Note_on_c, 0, 59, 80
2, 1628, Note_off_c, 0, 64, 100
2, 1628, Note_off_c, 0, 59, 100
2, 1632, Note_on_c, 0, 66, 80
2, 1632, Note_on_c, 0, 59, 80
2, 1724, Note_off_c, 0, 66, 100
2, 1724, Note_off_c, 0, 59, 100
2, 1728, Note_on_c, 0, 68, 80
2, 1728, Note_on_c, 0, 64, 80
2, 1728, Note_on_c, 0, 59, 80
2, 1820, Note_off_c, 0, 68, 100
2, 1820, Note_off_c, 0, 64, 100
2, 1820, Note_off_c, 0, 59, 100
2, 1824, Note_on_c, 0, 69, 80
2, 1824, Note_on_c, 0, 66, 80
2, 1824, Note_on_c, 0, 61, 80
2, 1916, Note_off_c, 0, 69, 100
2, 1916, Note_off_c, 0, 66, 100
2, 1916, Note_off_c, 0, 61, 100
2, 1920, Note_on_c, 0, 66, 80
2, 1920, Note_on_c, 0, 63, 80
2, 2108, Note_off_c, 0, 66, 100
2, 2108, Note_off_c, 0, 63, 100
2, 2208, Note_on_c, 0, 71, 80
2, 2208, Note_on_c, 0, 63, 80
2, 2300, Note_off_c, 0, 71, 100
2, 2300, Note_off_c, 0, 63, 100
2, 2304, Note_on_c, 0, 71, 80
2, 2304, Note_on_c, 0, 64, 80
2, 2396, Note_off_c, 0, 71, 100
2, 2396, Note_off_c, 0, 64, 100
2, 2400, Note_on_c, 0, 69, 80
2, 2400, Note_on_c, 0, 59, 80
2, 2492, Note_off_c, 0, 69, 100
2, 2492, Note_off_c, 0, 59, 100
2, 2496, Note_on_c, 0, 68, 80
2, 2496, Note_on_c, 0, 59, 80
2, 2588, Note_off_c, 0, 68, 100
2, 2588, Note_off_c, 0, 59, 100
2, 2592, Note_on_c, 0, 73, 80
2, 2592, Note_on_c, 0, 61, 80
2, 2636, Note_off_c, 0, 73, 100
2, 2636, Note_off_c, 0, 61, 100
2, 2640, Note_on_c, 0, 69, 80
2, 2684, Note_off_c, 0, 69, 100
2, 2688, Note_on_c, 0, 66, 80
2, 2688, Note_on_c, 0, 59, 80
2, 2876, Note_off_c, 0, 66, 100
2, 2876, Note_off_c, 0, 59, 100
2, 3072, Note_on_c, 0, 61, 80
2, 3072, Note_on_c, 0, 69, 80
2, 3212, Note_off_c, 0, 69, 100
2, 3216, Note_on_c, 0, 68, 80
2, 3260, Note_off_c, 0, 68, 100
2, 3264, Note_on_c, 0, 69, 80
2, 3356, Note_off_c, 0, 69, 100
2, 3360, Note_on_c, 0, 71, 80
2, 3452, Note_off_c, 0, 61, 100
2, 3452, Note_off_c, 0, 71, 100
2, 3456, Note_on_c, 0, 68, 80
2, 3456, Note_on_c, 0, 61, 80
2, 3644, Note_off_c, 0, 68, 100
2, 3644, Note_off_c, 0, 61, 100
2, 3840, Note_on_c, 0, 61, 80
2, 3840, Note_on_c, 0, 66, 80
2, 3980, Note_off_c, 0, 66, 100
2, 3984, Note_on_c, 0, 65, 80
2, 4028, Note_off_c, 0, 65, 100
2, 4032, Note_on_c, 0, 66, 80
2, 4124, Note_off_c, 0, 66, 100
2, 4128, Note_on_c, 0, 68, 80
2, 4220, Note_off_c, 0, 61, 100
2, 4220, Note_off_c, 0, 68, 100
2, 4224, Note_on_c, 0, 65, 80
2, 4224, Note_on_c, 0, 61, 80
2, 4224, Note_on_c, 0, 59, 80
2, 4412, Note_off_c, 0, 65, 100
2, 4412, Note_off_c, 0, 61, 100
2, 4412, Note_off_c, 0, 59, 100
2, 4512, Note_on_c, 0, 70, 80
2, 4512, Note_on_c, 0, 64, 80
2, 4700, Note_off_c, 0, 64, 100
2, 4700, Note_off_c, 0, 70, 100
2, 4704, Note_on_c, 0, 71, 80
2, 4704, Note_on_c, 0, 63, 80
2, 4796, Note_off_c, 0, 71, 100
2, 4796, Note_off_c, 0, 63, 100
2, 4896, Note_on_c, 0, 68, 80
2, 4896, Note_on_c, 0, 62, 80
2, 5084, Note_off_c, 0, 68, 100
2, 5084, Note_off_c, 0, 62, 100
2, 5088, Note_on_c, 0, 69, 80
2, 5088, Note_on_c, 0, 61, 80
2, 5180, Note_off_c, 0, 69, 100
2, 5180, Note_off_c, 0, 61, 100
2, 5280, Note_on_c, 0, 66, 80
2, 5280, Note_on_c, 0, 61, 80
2, 5372, Note_off_c, 0, 66, 100
2, 5372, Note_off_c, 0, 61, 100
2, 5376, Note_on_c, 0, 64, 80
2, 5376, Note_on_c, 0, 59, 80
2, 5376, Note_on_c, 0, 56, 80
2, 5564, Note_off_c, 0, 64, 100
2, 5564, Note_off_c, 0, 59, 100
2, 5564, Note_off_c, 0, 56, 100
2, 5568, Note_on_c, 0, 66, 80
2, 5568, Note_on_c, 0, 63, 80
2, 5568, Note_on_c, 0, 57, 80
2, 5756, Note_off_c, 0, 66, 100
2, 5756, Note_off_c, 0, 63, 100
2, 5756, Note_off_c, 0, 57, 100
2, 5760, Note_on_c, 0, 68, 80
2, 5760, Note_on_c, 0, 64, 80
2, 5760, Note_on_c, 0, 59, 80
2, 5948, Note_off_c, 0, 68, 100
2, 5948, Note_off_c, 0, 64, 100
2, 5948, Note_off_c, 0, 59, 100
2, 6144, Note_on_c, 0, 78, 80
2, 6144, Note_on_c, 0, 66, 80
2, 6332, Note_off_c, 0, 78, 100
2, 6332, Note_off_c, 0, 66, 100
2, 6336, Note_on_c, 0, 83, 80
2, 6336, Note_on_c, 0, 71, 80
2, 6428, Note_off_c, 0, 83, 100
2, 6428, Note_off_c, 0, 71, 100
2, 6528, Note_on_c, 0, 76, 80
2, 6528, Note_on_c, 0, 64, 80
2, 6716, Note_off_c, 0, 76, 100
2, 6716, Note_off_c, 0, 64, 100
2, 6720, Note_on_c, 0, 69, 80
2, 6720, Note_on_c, 0, 81, 80
2, 6812, Note_off_c, 0, 69, 100
2, 6812, Note_off_c, 0, 81, 100
2, 7056, Note_on_c, 0, 72, 80
2, 7100, Note_off_c, 0, 72, 100
2, 7104, Note_on_c, 0, 73, 80
2, 7148, Note_off_c, 0, 73, 100
2, 7152, Note_on_c, 0, 68, 80
2, 7196, Note_off_c, 0, 68, 100
2, 7200, Note_on_c, 0, 69, 80
2, 7268, Note_off_c, 0, 69, 100
2, 7270, Note_on_c, 0, 66, 80
2, 7290, Note_off_c, 0, 66, 100
2, 7296, Note_on_c, 0, 61, 80
2, 7296, Note_on_c, 0, 57, 80
2, 7296, Note_on_c, 0, 54, 80
2, 7484, Note_off_c, 0, 61, 100
2, 7488, Note_on_c, 0, 63, 80
2, 7676, Note_off_c, 0, 57, 100
2, 7676, Note_off_c, 0, 54, 100
2, 7676, Note_off_c, 0, 63, 100
2, 7680, Key_signature, 1, "minor"
2, 7728, Note_on_c, 0, 64, 80
2, 7776, Note_on_c, 0, 67, 80
2, 7820, Note_off_c, 0, 64, 100
2, 7824, Note_on_c, 0, 71, 80
2, 7868, Note_off_c, 0, 67, 100
2, 7872, Note_on_c, 0, 72, 80
2, 7916, Note_off_c, 0, 71, 100
2, 7920, Note_on_c, 0, 71, 80
2, 7964, Note_off_c, 0, 72, 100
2, 7968, Note_on_c, 0, 64, 80
2, 8012, Note_off_c, 0, 71, 100
2, 8016, Note_on_c, 0, 71, 80
2, 8060, Note_off_c, 0, 64, 100
2, 8108, Note_off_c, 0, 71, 100
2, 8112, Note_on_c, 0, 64, 80
2, 8160, Note_on_c, 0, 67, 80
2, 8204, Note_off_c, 0, 64, 100
2, 8208, Note_on_c, 0, 71, 80
2, 8252, Note_off_c, 0, 67, 100
2, 8256, Note_on_c, 0, 72, 80
2, 8300, Note_off_c, 0, 71, 100
2, 8304, Note_on_c, 0, 71, 80
2, 8348, Note_off_c, 0, 72, 100
2, 8352, Note_on_c, 0, 64, 80
2, 8396, Note_off_c, 0, 71, 100
2, 8400, Note_on_c, 0, 71, 80
2, 8444, Note_off_c, 0, 64, 100
2, 8492, Note_off_c, 0, 71, 100
2, 8496, Note_on_c, 0, 63, 80
2, 8544, Note_on_c, 0, 69, 80
2, 8588, Note_off_c, 0, 63, 100
2, 8592, Note_on_c, 0, 71, 80
2, 8636, Note_off_c, 0, 69, 100
2, 8640, Note_on_c, 0, 72, 80
2, 8684, Note_off_c, 0, 71, 100
2, 8688, Note_on_c, 0, 71, 80
2, 8732, Note_off_c, 0, 72, 100
2, 8736, Note_on_c, 0, 63, 80
2, 8780, Note_off_c, 0, 71, 100
2, 8784, Note_on_c, 0, 71, 80
2, 8828, Note_off_c, 0, 63, 100
2, 8876, Note_off_c, 0, 71, 100
2, 8880, Note_on_c, 0, 63, 80
2, 8928, Note_on_c, 0, 66, 80
2, 8972, Note_off_c, 0, 63, 100
2, 8976, Note_on_c, 0, 71, 80
2, 9020, Note_off_c, 0, 66, 100
2, 9024, Note_on_c, 0, 72, 80
2, 9068, Note_off_c, 0, 71, 100
2, 9072, Note_on_c, 0, 71, 80
2, 9116, Note_off_c, 0, 72, 100
2, 9120, Note_on_c, 0, 63, 80
2, 9164, Note_off_c, 0, 71, 100
2, 9168, Note_on_c, 0, 71, 80
2, 9212, Note_off_c, 0, 63, 100
2, 9260, Note_off_c, 0, 71, 100
2, 9264, Note_on_c, 0, 64, 80
2, 9312, Note_on_c, 0, 67, 80
2, 9356, Note_off_c, 0, 64, 100
2, 9360, Note_on_c, 0, 71, 80
2, 9404, Note_off_c, 0, 67, 100
2, 9408, Note_on_c, 0, 72, 80
2, 9452, Note_off_c, 0, 71, 100
2, 9456, Note_on_c, 0, 71, 80
2, 9500, Note_off_c, 0, 72, 100
2, 9504, Note_on_c, 0, 67, 80
2, 9548, Note_off_c, 0, 71, 100
2, 9552, Note_on_c, 0, 64, 80
2, 9596, Note_off_c, 0, 67, 100
2, 9644, Note_off_c, 0, 64, 100
2, 9648, Note_on_c, 0, 69, 80
2, 9696, Note_on_c, 0, 66, 80
2, 9740, Note_off_c, 0, 69, 100
2, 9744, Note_on_c, 0, 72, 80
2, 9788, Note_off_c, 0, 66, 100
2, 9792, Note_on_c, 0, 67, 80
2, 9836, Note_off_c, 0, 72, 100
2, 9840, Note_on_c, 0, 71, 80
2, 9884, Note_off_c, 0, 67, 100
2, 9888, Note_on_c, 0, 69, 80
2, 9932, Note_off_c, 0, 71, 100
2, 9936, Note_on_c, 0, 72, 80
2, 9980, Note_off_c, 0, 69, 100
2, 10028, Note_off_c, 0, 72, 100
2, 10032, Note_on_c, 0, 62, 80
2, 10080, Note_on_c, 0, 67, 80
2, 10124, Note_off_c, 0, 62, 100
2, 10128, Note_on_c, 0, 71, 80
2, 10172, Note_off_c, 0, 67, 100
2, 10176, Note_on_c, 0, 72, 80
2, 10220, Note_off_c, 0, 71, 100
2, 10224, Note_on_c, 0, 71, 80
2, 10268, Note_off_c, 0, 72, 100
2, 10272, Note_on_c, 0, 67, 80
2, 10316, Note_off_c, 0, 71, 100
2, 10320, Note_on_c, 0, 62, 80
2, 10364, Note_off_c, 0, 67, 100
2, 10412, Note_off_c, 0, 62, 100
2, 10416, Note_on_c, 0, 62, 80
2, 10464, Note_on_c, 0, 67, 80
2, 10508, Note_off_c, 0, 62, 100
2, 10512, Note_on_c, 0, 74, 80
2, 10556, Note_off_c, 0, 67, 100
2, 10560, Note_on_c, 0, 73, 80
2, 10604, Note_off_c, 0, 74, 100
2, 10608, Note_on_c, 0, 74, 80
2, 10652, Note_off_c, 0, 73, 100
2, 10656, Note_on_c, 0, 67, 80
2, 10700, Note_off_c, 0, 74, 100
2, 10704, Note_on_c, 0, 62, 80
2, 10748, Note_off_c, 0, 67, 100
2, 10796, Note_off_c, 0, 62, 100
2, 10800, Note_on_c, 0, 66, 80
2, 10848, Note_on_c, 0, 69, 80
2, 10892, Note_off_c, 0, 66, 100
2, 10896, Note_on_c, 0, 72, 80
2, 10940, Note_off_c, 0, 69, 100
2, 10944, Note_on_c, 0, 71, 80
2, 10988, Note_off_c, 0, 72, 100
2, 10992, Note_on_c, 0, 72, 80
2, 11036, Note_off_c, 0, 71, 100
2, 11040, Note_on_c, 0, 69, 80
2, 11084, Note_off_c, 0, 72, 100
2, 11088, Note_on_c, 0, 66, 80
2, 11132, Note_off_c, 0, 69, 100
2, 11180, Note_off_c, 0, 66, 100
2, 11184, Note_on_c, 0, 66, 80
2, 11232, Note_on_c, 0, 69, 80
2, 11276, Note_off_c, 0, 66, 100
2, 11280, Note_on_c, 0, 75, 80
2, 11324, Note_off_c, 0, 69, 100
2, 11328, Note_on_c, 0, 74, 80
2, 11372, Note_off_c, 0, 75, 100
2, 11376, Note_on_c, 0, 75, 80
2, 11420, Note_off_c, 0, 74, 100
2, 11424, Note_on_c, 0, 69, 80
2, 11468, Note_off_c, 0, 75, 100
2, 11472, Note_on_c, 0, 66, 80
2, 11516, Note_off_c, 0, 69, 100
2, 11564, Note_off_c, 0, 66, 100
2, 11568, Note_on_c, 0, 62, 80
2, 11616, Note_on_c, 0, 67, 80
2, 11660, Note_off_c, 0, 62, 100
2, 11664, Note_on_c, 0, 71, 80
2, 11708, Note_off_c, 0, 67, 100
2, 11712, Note_on_c, 0, 73, 80
2, 11756, Note_off_c, 0, 71, 100
2, 11760, Note_on_c, 0, 74, 80
2, 11804, Note_off_c, 0, 73, 100
2, 11808, Note_on_c, 0, 71, 80
2, 11852, Note_off_c, 0, 74, 100
2, 11856, Note_on_c, 0, 67, 80
2, 11900, Note_off_c, 0, 71, 100
2, 11904, Note_on_c, 0, 66, 80
2, 11948, Note_off_c, 0, 67, 100
2, 11952, Note_on_c, 0, 69, 80
2, 11996, Note_off_c, 0, 66, 100
2, 12000, Note_on_c, 0, 67, 80
2, 12044, Note_off_c, 0, 69, 100
2, 12048, Note_on_c, 0, 71, 80
2, 12092, Note_off_c, 0, 67, 100
2, 12096, Note_on_c, 0, 69, 80
2, 12140, Note_off_c, 0, 71, 100
2, 12144, Note_on_c, 0, 72, 80
2, 12188, Note_off_c, 0, 69, 100
2, 12192, Note_on_c, 0, 71, 80
2, 12236, Note_off_c, 0, 72, 100
2, 12240, Note_on_c, 0, 74, 80
2, 12284, Note_off_c, 0, 71, 100
2, 12332, Note_off_c, 0, 74, 100
2, 12336, Note_on_c, 0, 64, 80
2, 12384, Note_on_c, 0, 69, 80
2, 12428, Note_off_c, 0, 64, 100
2, 12432, Note_on_c, 0, 72, 80
2, 12476, Note_off_c, 0, 69, 100
2, 12480, Note_on_c, 0, 75, 80
2, 12524, Note_off_c, 0, 72, 100
2, 12528, Note_on_c, 0, 76, 80
2, 12572, Note_off_c, 0, 75, 100
2, 12576, Note_on_c, 0, 72, 80
2, 12620, Note_off_c, 0, 76, 100
2, 12624, Note_on_c, 0, 69, 80
2, 12668, Note_off_c, 0, 72, 100
2, 12672, Note_on_c, 0, 68, 80
2, 12716, Note_off_c, 0, 69, 100
2, 12720, Note_on_c, 0, 71, 80
2, 12764, Note_off_c, 0, 68, 100
2, 12768, Note_on_c, 0, 69, 80
2, 12812, Note_off_c, 0, 71, 100
2, 12816, Note_on_c, 0, 72, 80
2, 12860, Note_off_c, 0, 69, 100
2, 12864, Note_on_c, 0, 71, 80
2, 12908, Note_off_c, 0, 72, 100
2, 12912, Note_on_c, 0, 74, 80
2, 12956, Note_off_c, 0, 71, 100
2, 12960, Note_on_c, 0, 72, 80
2, 13004, Note_off_c, 0, 74, 100
2, 13008, Note_on_c, 0, 76, 80
2, 13052, Note_off_c, 0, 72, 100
2, 13100, Note_off_c, 0, 76, 100
2, 13104, Note_on_c, 0, 59, 80
2, 13152, Note_on_c, 0, 62, 80
2, 13196, Note_off_c, 0, 59, 100
2, 13200, Note_on_c, 0, 67, 80
2, 13244, Note_off_c, 0, 62, 100
2, 13248, Note_on_c, 0, 69, 80
2, 13292, Note_off_c, 0, 67, 100
2, 13296, Note_on_c, 0, 67, 80
2, 13340, Note_off_c, 0, 69, 100
2, 13344, Note_on_c, 0, 59, 80
2, 13388, Note_off_c, 0, 67, 100
2, 13392, Note_on_c, 0, 67, 80
2, 13436, Note_off_c, 0, 59, 100
2, 13484, Note_off_c, 0, 67, 100
2, 13488, Note_on_c, 0, 57, 80
2, 13536, Note_on_c, 0, 60, 80
2, 13580, Note_off_c, 0, 57, 100
2, 13584, Note_on_c, 0, 66, 80
2, 13628, Note_off_c, 0, 60, 100
2, 13632, Note_on_c, 0, 67, 80
2, 13676, Note_off_c, 0, 66, 100
2, 13680, Note_on_c, 0, 66, 80
2, 13724, Note_off_c, 0, 67, 100
2, 13728, Note_on_c, 0, 57, 80
2, 13772, Note_off_c, 0, 66, 100
2, 13776, Note_on_c, 0, 66, 80
2, 13820, Note_off_c, 0, 57, 100
2, 13820, Note_off_c, 0, 66, 100
2, 13872, Note_on_c, 0, 59, 80
2, 13920, Note_on_c, 0, 62, 80
2, 13964, Note_off_c, 0, 59, 100
2, 13968, Note_on_c, 0, 67, 80
2, 14012, Note_off_c, 0, 62, 100
2, 14016, Note_on_c, 0, 69, 80
2, 14060, Note_off_c, 0, 67, 100
2, 14064, Note_on_c, 0, 67, 80
2, 14108, Note_off_c, 0, 69, 100
2, 14112, Note_on_c, 0, 59, 80
2, 14156, Note_off_c, 0, 67, 100
2, 14160, Note_on_c, 0, 67, 80
2, 14204, Note_off_c, 0, 59, 100
2, 14252, Note_off_c, 0, 67, 100
2, 14256, Note_on_c, 0, 59, 80
2, 14304, Note_on_c, 0, 62, 80
2, 14348, Note_off_c, 0, 59, 100
2, 14352, Note_on_c, 0, 67, 80
2, 14396, Note_off_c, 0, 62, 100
2, 14400, Note_on_c, 0, 69, 80
2, 14444, Note_off_c, 0, 67, 100
2, 14448, Note_on_c, 0, 67, 80
2, 14492, Note_off_c, 0, 69, 100
2, 14496, Note_on_c, 0, 59, 80
2, 14540, Note_off_c, 0, 67, 100
2, 14544, Note_on_c, 0, 67, 80
2, 14588, Note_off_c, 0, 59, 100
2, 14636, Note_off_c, 0, 67, 100
2, 14640, Note_on_c, 0, 57, 80
2, 14688, Note_on_c, 0, 64, 80
2, 14732, Note_off_c, 0, 57, 100
2, 14736, Note_on_c, 0, 67, 80
2, 14780, Note_off_c, 0, 64, 100
2, 14784, Note_on_c, 0, 69, 80
2, 14828, Note_off_c, 0, 67, 100
2, 14832, Note_on_c, 0, 67, 80
2, 14876, Note_off_c, 0, 69, 100
2, 14880, Note_on_c, 0, 57, 80
2, 14924, Note_off_c, 0, 67, 100
2, 14928, Note_on_c, 0, 67, 80
2, 14972, Note_off_c, 0, 57, 100
2, 15020, Note_off_c, 0, 67, 100
2, 15024, Note_on_c, 0, 57, 80
2, 15072, Note_on_c, 0, 64, 80
2, 15116, Note_off_c, 0, 57, 100
2, 15120, Note_on_c, 0, 67, 80
2, 15164, Note_off_c, 0, 64, 100
2, 15168, Note_on_c, 0, 69, 80
2, 15212, Note_off_c, 0, 67, 100
2, 15216, Note_on_c, 0, 67, 80
2, 15260, Note_off_c, 0, 69, 100
2, 15264, Note_on_c, 0, 57, 80
2, 15308, Note_off_c, 0, 67, 100
2, 15312, Note_on_c, 0, 67, 80
2, 15356, Note_off_c, 0, 57, 100
2, 15404, Note_off_c, 0, 67, 100
2, 15408, Note_on_c, 0, 59, 80
2, 15456, Note_on_c, 0, 62, 80
2, 15500, Note_off_c, 0, 59, 100
2, 15504, Note_on_c, 0, 67, 80
2, 15548, Note_off_c, 0, 62, 100
2, 15552, Note_on_c, 0, 69, 80
2, 15596, Note_off_c, 0, 67, 100
2, 15600, Note_on_c, 0, 67, 80
2, 15644, Note_off_c, 0, 69, 100
2, 15648, Note_on_c, 0, 59, 80
2, 15692, Note_off_c, 0, 67, 100
2, 15696, Note_on_c, 0, 67, 80
2, 15740, Note_off_c, 0, 59, 100
2, 15788, Note_off_c, 0, 67, 100
2, 15792, Note_on_c, 0, 57, 80
2, 15884, Note_off_c, 0, 57, 100
2, 15888, Note_on_c, 0, 60, 80
2, 15936, Note_on_c, 0, 66, 80
2, 15980, Note_off_c, 0, 60, 100
2, 15984, Note_on_c, 0, 60, 80
2, 16028, Note_off_c, 0, 66, 100
2, 16032, Note_on_c, 0, 57, 80
2, 16076, Note_off_c, 0, 60, 100
2, 16080, Note_on_c, 0, 60, 80
2, 16124, Note_off_c, 0, 57, 100
2, 16172, Note_off_c, 0, 60, 100
2, 16176, Note_on_c, 0, 59, 80
2, 16224, Note_on_c, 0, 62, 80
2, 16268, Note_off_c, 0, 59, 100
2, 16272, Note_on_c, 0, 67, 80
2, 16316, Note_off_c, 0, 62, 100
2, 16320, Note_on_c, 0, 69, 80
2, 16364, Note_off_c, 0, 67, 100
2, 16368, Note_on_c, 0, 67, 80
2, 16412, Note_off_c, 0, 69, 100
2, 16416, Note_on_c, 0, 59, 80
2, 16460, Note_off_c, 0, 67, 100
2, 16464, Note_on_c, 0, 67, 80
2, 16508, Note_off_c, 0, 59, 100
2, 16556, Note_off_c, 0, 67, 100
2, 16560, Note_on_c, 0, 59, 80
2, 16608, Note_on_c, 0, 62, 80
2, 16652, Note_off_c, 0, 59, 100
2, 16656, Note_on_c, 0, 67, 80
2, 16700, Note_off_c, 0, 62, 100
2, 16704, Note_on_c, 0, 69, 80
2, 16748, Note_off_c, 0, 67, 100
2, 16752, Note_on_c, 0, 67, 80
2, 16796, Note_off_c, 0, 69, 100
2, 16800, Note_on_c, 0, 59, 80
2, 16844, Note_off_c, 0, 67, 100
2, 16848, Note_on_c, 0, 67, 80
2, 16892, Note_off_c, 0, 59, 100
2, 16940, Note_off_c, 0, 67, 100
2, 16944, Note_on_c, 0, 57, 80
2, 16992, Note_on_c, 0, 64, 80
2, 17036, Note_off_c, 0, 57, 100
2, 17040, Note_on_c, 0, 67, 80
2, 17084, Note_off_c, 0, 64, 100
2, 17088, Note_on_c, 0, 69, 80
2, 17132, Note_off_c, 0, 67, 100
2, 17136, Note_on_c, 0, 67, 80
2, 17180, Note_off_c, 0, 69, 100
2, 17184, Note_on_c, 0, 57, 80
2, 17228, Note_off_c, 0, 67, 100
2, 17232, Note_on_c, 0, 67, 80
2, 17276, Note_off_c, 0, 57, 100
2, 17324, Note_off_c, 0, 67, 100
2, 17328, Note_on_c, 0, 57, 80
2, 17376, Note_on_c, 0, 64, 80
2, 17420, Note_off_c, 0, 57, 100
2, 17424, Note_on_c, 0, 67, 80
2, 17468, Note_off_c, 0, 64, 100
2, 17472, Note_on_c, 0, 69, 80
2, 17516, Note_off_c, 0, 67, 100
2, 17520, Note_on_c, 0, 67, 80
2, 17564, Note_off_c, 0, 69, 100
2, 17568, Note_on_c, 0, 57, 80
2, 17612, Note_off_c, 0, 67, 100
2, 17616, Note_on_c, 0, 67, 80
2, 17660, Note_off_c, 0, 57, 100
2, 17708, Note_off_c, 0, 67, 100
2, 17712, Note_on_c, 0, 59, 80
2, 17804, Note_off_c, 0, 59, 100
2, 17808, Note_on_c, 0, 67, 80
2, 17856, Note_on_c, 0, 69, 80
2, 17900, Note_off_c, 0, 67, 100
2, 17904, Note_on_c, 0, 67, 80
2, 17948, Note_off_c, 0, 69, 100
2, 17952, Note_on_c, 0, 59, 80
2, 17996, Note_off_c, 0, 67, 100
2, 18000, Note_on_c, 0, 67, 80
2, 18044, Note_off_c, 0, 59, 100
2, 18092, Note_off_c, 0, 67, 100
2, 18096, Note_on_c, 0, 57, 80
2, 18188, Note_off_c, 0, 57, 100
2, 18192, Note_on_c, 0, 60, 80
2, 18240, Note_on_c, 0, 66, 80
2, 18284, Note_off_c, 0, 60, 100
2, 18288, Note_on_c, 0, 60, 80
2, 18332, Note_off_c, 0, 66, 100
2, 18336, Note_on_c, 0, 57, 80
2, 18380, Note_off_c, 0, 60, 100
2, 18384, Note_on_c, 0, 60, 80
2, 18428, Note_off_c, 0, 57, 100
2, 18476, Note_off_c, 0, 60, 100
2, 18480, Note_on_c, 0, 59, 80
2, 18528, Note_on_c, 0, 62, 80
2, 18572, Note_off_c, 0, 59, 100
2, 18576, Note_on_c, 0, 67, 80
2, 18620, Note_off_c, 0, 62, 100
2, 18624, Note_on_c, 0, 69, 80
2, 18668, Note_off_c, 0, 67, 100
2, 18672, Note_on_c, 0, 67, 80
2, 18716, Note_off_c, 0, 69, 100
2, 18720, Note_on_c, 0, 59, 80
2, 18764, Note_off_c, 0, 67, 100
2, 18768, Note_on_c, 0, 67, 80
2, 18812, Note_off_c, 0, 59, 100
2, 18860, Note_off_c, 0, 67, 100
2, 18864, Note_on_c, 0, 57, 80
2, 18912, Note_on_c, 0, 59, 80
2, 18956, Note_off_c, 0, 57, 100
2, 18960, Note_on_c, 0, 63, 80
2, 19004, Note_off_c, 0, 59, 100
2, 19008, Note_on_c, 0, 64, 80
2, 19052, Note_off_c, 0, 63, 100
2, 19056, Note_on_c, 0, 63, 80
2, 19100, Note_off_c, 0, 64, 100
2, 19104, Note_on_c, 0, 57, 80
2, 19148, Note_off_c, 0, 63, 100
2, 19152, Note_on_c, 0, 63, 80
2, 19196, Note_off_c, 0, 57, 100
2, 19244, Note_off_c, 0, 63, 100
2, 19248, Note_on_c, 0, 55, 80
2, 19296, Note_on_c, 0, 59, 80
2, 19340, Note_off_c, 0, 55, 100
2, 19344, Note_on_c, 0, 64, 80
2, 19388, Note_off_c, 0, 59, 100
2, 19392, Note_on_c, 0, 66, 80
2, 19436, Note_off_c, 0, 64, 100
2, 19440, Note_on_c, 0, 64, 80
2, 19484, Note_off_c, 0, 66, 100
2, 19488, Note_on_c, 0, 55, 80
2, 19532, Note_off_c, 0, 64, 100
2, 19536, Note_on_c, 0, 64, 80
2, 19580, Note_off_c, 0, 55, 100
2, 19628, Note_off_c, 0, 64, 100
2, 19632, Note_on_c, 0, 55, 80
2, 19680, Note_on_c, 0, 59, 80
2, 19724, Note_off_c, 0, 55, 100
2, 19728, Note_on_c, 0, 64, 80
2, 19772, Note_off_c, 0, 59, 100
2, 19776, Note_on_c, 0, 66, 80
2, 19820, Note_off_c, 0, 64, 100
2, 19824, Note_on_c, 0, 64, 80
2, 19868, Note_off_c, 0, 66, 100
2, 19872, Note_on_c, 0, 55, 80
2, 19916, Note_off_c, 0, 64, 100
2, 19920, Note_on_c, 0, 64, 80
2, 19964, Note_off_c, 0, 55, 100
2, 20012, Note_off_c, 0, 64, 100
2, 20016, Note_on_c, 0, 57, 80
2, 20064, Note_on_c, 0, 60, 80
2, 20108, Note_off_c, 0, 57, 100
2, 20112, Note_on_c, 0, 63, 80
2, 20156, Note_off_c, 0, 60, 100
2, 20160, Note_on_c, 0, 64, 80
2, 20204, Note_off_c, 0, 63, 100
2, 20208, Note_on_c, 0, 63, 80
2, 20252, Note_off_c, 0, 64, 100
2, 20256, Note_on_c, 0, 57, 80
2, 20300, Note_off_c, 0, 63, 100
2, 20304, Note_on_c, 0, 63, 80
2, 20348, Note_off_c, 0, 57, 100
2, 20396, Note_off_c, 0, 63, 100
2, 20400, Note_on_c, 0, 60, 80
2, 20448, Note_on_c, 0, 63, 80
2, 20492, Note_off_c, 0, 60, 100
2, 20496, Note_on_c, 0, 66, 80
2, 20540, Note_off_c, 0, 63, 100
2, 20544, Note_on_c, 0, 67, 80
2, 20588, Note_off_c, 0, 66, 100
2, 20592, Note_on_c, 0, 66, 80
2, 20636, Note_off_c, 0, 67, 100
2, 20640, Note_on_c, 0, 60, 80
2, 20684, Note_off_c, 0, 66, 100
2, 20688, Note_on_c, 0, 66, 80
2, 20732, Note_off_c, 0, 60, 100
2, 20732, Note_off_c, 0, 66, 100
2, 20784, Note_on_c, 0, 59, 80
2, 20832, Note_on_c, 0, 62, 80
2, 20876, Note_off_c, 0, 59, 100
2, 20880, Note_on_c, 0, 65, 80
2, 20924, Note_off_c, 0, 62, 100
2, 20928, Note_on_c, 0, 64, 80
2, 20972, Note_off_c, 0, 65, 100
2, 20976, Note_on_c, 0, 65, 80
2, 21020, Note_off_c, 0, 64, 100
2, 21024, Note_on_c, 0, 62, 80
2, 21068, Note_off_c, 0, 65, 100
2, 21072, Note_on_c, 0, 59, 80
2, 21116, Note_off_c, 0, 62, 100
2, 21164, Note_off_c, 0, 59, 100
2, 21168, Note_on_c, 0, 59, 80
2, 21216, Note_on_c, 0, 56, 80
2, 21260, Note_off_c, 0, 59, 100
2, 21264, Note_on_c, 0, 65, 80
2, 21308, Note_off_c, 0, 56, 100
2, 21312, Note_on_c, 0, 57, 80
2, 21356, Note_off_c, 0, 65, 100
2, 21360, Note_on_c, 0, 64, 80
2, 21404, Note_off_c, 0, 57, 100
2, 21408, Note_on_c, 0, 62, 80
2, 21452, Note_off_c, 0, 64, 100
2, 21456, Note_on_c, 0, 68, 100
2, 21500, Note_off_c, 0, 62, 100
2, 21548, Note_off_c, 0, 68, 100
2, 21552, Note_on_c, 0, 57, 110
2, 21600, Note_on_c, 0, 60, 110
2, 21644, Note_off_c, 0, 57, 100
2, 21648, Note_on_c, 0, 64, 110
2, 21692, Note_off_c, 0, 60, 100
2, 21696, Note_on_c, 0, 65, 110
2, 21740, Note_off_c, 0, 64, 100
2, 21744, Note_on_c, 0, 64, 110
2, 21788, Note_off_c, 0, 65, 100
2, 21792, Note_on_c, 0, 60, 110
2, 21836, Note_off_c, 0, 64, 100
2, 21840, Note_on_c, 0, 57, 110
2, 21884, Note_off_c, 0, 60, 100
2, 21932, Note_off_c, 0, 57, 100
2, 21936, Note_on_c, 0, 57, 110
2, 21984, Note_on_c, 0, 60, 110
2, 22028, Note_off_c, 0, 57, 100
2, 22032, Note_on_c, 0, 64, 110
2, 22076, Note_off_c, 0, 60, 100
2, 22080, Note_on_c, 0, 65, 110
2, 22124, Note_off_c, 0, 64, 100
2, 22128, Note_on_c, 0, 64, 110
2, 22172, Note_off_c, 0, 65, 100
2, 22176, Note_on_c, 0, 60, 110
2, 22220, Note_off_c, 0, 64, 100
2, 22224, Note_on_c, 0, 57, 110
2, 22268, Note_off_c, 0, 60, 100
2, 22316, Note_off_c, 0, 57, 100
2, 22320, Note_on_c, 0, 56, 110
2, 22368, Note_on_c, 0, 62, 110
2, 22412, Note_off_c, 0, 56, 100
2, 22416, Note_on_c, 0, 64, 110
2, 22460, Note_off_c, 0, 62, 100
2, 22464, Note_on_c, 0, 65, 110
2, 22508, Note_off_c, 0, 64, 100
2, 22512, Note_on_c, 0, 64, 110
2, 22556, Note_off_c, 0, 65, 100
2, 22560, Note_on_c, 0, 62, 110
2, 22604, Note_off_c, 0, 64, 100
2, 22608, Note_on_c, 0, 56, 110
2, 22652, Note_off_c, 0, 62, 100
2, 22700, Note_off_c, 0, 56, 100
2, 22704, Note_on_c, 0, 56, 110
2, 22752, Note_on_c, 0, 62, 110
2, 22796, Note_off_c, 0, 56, 100
2, 22800, Note_on_c, 0, 64, 110
2, 22844, Note_off_c, 0, 62, 100
2, 22848, Note_on_c, 0, 65, 110
2, 22892, Note_off_c, 0, 64, 100
2, 22896, Note_on_c, 0, 64, 110
2, 22940, Note_off_c, 0, 65, 100
2, 22944, Note_on_c, 0, 62, 110
2, 22988, Note_off_c, 0, 64, 100
2, 22992, Note_on_c, 0, 56, 110
2, 23036, Note_off_c, 0, 62, 100
2, 23084, Note_off_c, 0, 56, 100
2, 23088, Note_on_c, 0, 55, 80
2, 23136, Note_on_c, 0, 58, 80
2, 23180, Note_off_c, 0, 55, 100
2, 23184, Note_on_c, 0, 64, 80
2, 23228, Note_off_c, 0, 58, 100
2, 23232, Note_on_c, 0, 66, 80
2, 23276, Note_off_c, 0, 64, 100
2, 23280, Note_on_c, 0, 67, 80
2, 23324, Note_off_c, 0, 66, 100
2, 23328, Note_on_c, 0, 64, 80
2, 23372, Note_off_c, 0, 67, 100
2, 23376, Note_on_c, 0, 61, 80
2, 23420, Note_off_c, 0, 64, 100
2, 23468, Note_off_c, 0, 61, 100
2, 23472, Note_on_c, 0, 60, 80
2, 23520, Note_on_c, 0, 58, 80
2, 23564, Note_off_c, 0, 60, 100
2, 23568, Note_on_c, 0, 67, 80
2, 23612, Note_off_c, 0, 58, 100
2, 23616, Note_on_c, 0, 59, 80
2, 23660, Note_off_c, 0, 67, 100
2, 23664, Note_on_c, 0, 66, 80
2, 23708, Note_off_c, 0, 59, 100
2, 23712, Note_on_c, 0, 64, 80
2, 23756, Note_off_c, 0, 66, 100
2, 23760, Note_on_c, 0, 70, 80
2, 23804, Note_off_c, 0, 64, 100
2, 23852, Note_off_c, 0, 70, 100
2, 23856, Note_on_c, 0, 59, 110
2, 23904, Note_on_c, 0, 62, 110
2, 23948, Note_off_c, 0, 59, 100
2, 23952, Note_on_c, 0, 66, 110
2, 23996, Note_off_c, 0, 62, 100
2, 24000, Note_on_c, 0, 70, 110
2, 24044, Note_off_c, 0, 66, 100
2, 24048, Note_on_c, 0, 71, 110
2, 24092, Note_off_c, 0, 70, 100
2, 24096, Note_on_c, 0, 59, 110
2, 24140, Note_off_c, 0, 71, 100
2, 24144, Note_on_c, 0, 71, 110
2, 24188, Note_off_c, 0, 59, 100
2, 24236, Note_off_c, 0, 71, 100
2, 24240, Note_on_c, 0, 59, 110
2, 24288, Note_on_c, 0, 62, 110
2, 24332, Note_off_c, 0, 59, 100
2, 24336, Note_on_c, 0, 71, 110
2, 24380, Note_off_c, 0, 62, 100
2, 24384, Note_on_c, 0, 70, 110
2, 24428, Note_off_c, 0, 71, 100
2, 24432, Note_on_c, 0, 71, 110
2, 24476, Note_off_c, 0, 70, 100
2, 24480, Note_on_c, 0, 62, 110
2, 24524, Note_off_c, 0, 71, 100
2, 24528, Note_on_c, 0, 71, 110
2, 24572, Note_off_c, 0, 62, 100
2, 24620, Note_off_c, 0, 71, 100
2, 24624, Note_on_c, 0, 60, 110
2, 24672, Note_on_c, 0, 67, 110
2, 24716, Note_off_c, 0, 60, 100
2, 24720, Note_on_c, 0, 71, 110
2, 24764, Note_off_c, 0, 67, 100
2, 24768, Note_on_c, 0, 72, 110
2, 24812, Note_off_c, 0, 71, 100
2, 24816, Note_on_c, 0, 71, 110
2, 24860, Note_off_c, 0, 72, 100
2, 24864, Note_on_c, 0, 60, 110
2, 24908, Note_off_c, 0, 71, 100
2, 24912, Note_on_c, 0, 71, 110
2, 24956, Note_off_c, 0, 60, 100
2, 25004, Note_off_c, 0, 71, 100
2, 25008, Note_on_c, 0, 60, 110
2, 25056, Note_on_c, 0, 64, 110
2, 25100, Note_off_c, 0, 60, 100
2, 25104, Note_on_c, 0, 71, 110
2, 25148, Note_off_c, 0, 64, 100
2, 25152, Note_on_c, 0, 72, 110
2, 25196, Note_off_c, 0, 71, 100
2, 25200, Note_on_c, 0, 71, 110
2, 25244, Note_off_c, 0, 72, 100
2, 25248, Note_on_c, 0, 64, 110
2, 25292, Note_off_c, 0, 71, 100
2, 25296, Note_on_c, 0, 71, 110
2, 25340, Note_off_c, 0, 64, 100
2, 25340, Note_off_c, 0, 71, 100
2, 25392, Note_on_c, 0, 60, 80
2, 25440, Note_on_c, 0, 63, 80
2, 25484, Note_off_c, 0, 60, 100
2, 25488, Note_on_c, 0, 69, 80
2, 25532, Note_off_c, 0, 63, 100
2, 25536, Note_on_c, 0, 72, 80
2, 25580, Note_off_c, 0, 69, 100
2, 25584, Note_on_c, 0, 69, 80
2, 25628, Note_off_c, 0, 72, 100
2, 25632, Note_on_c, 0, 63, 80
2, 25676, Note_off_c, 0, 69, 100
2, 25680, Note_on_c, 0, 69, 80
2, 25724, Note_off_c, 0, 63, 100
2, 25772, Note_off_c, 0, 69, 100
2, 25776, Note_on_c, 0, 66, 80
2, 25824, Note_on_c, 0, 63, 80
2, 25868, Note_off_c, 0, 66, 100
2, 25872, Note_on_c, 0, 72, 80
2, 25916, Note_off_c, 0, 63, 100
2, 25920, Note_on_c, 0, 64, 80
2, 25964, Note_off_c, 0, 72, 100
2, 25968, Note_on_c, 0, 71, 80
2, 26012, Note_off_c, 0, 64, 100
2, 26016, Note_on_c, 0, 69, 80
2, 26060, Note_off_c, 0, 71, 100
2, 26064, Note_on_c, 0, 75, 80
2, 26108, Note_off_c, 0, 69, 100
2, 26156, Note_off_c, 0, 75, 100
2, 26160, Note_on_c, 0, 64, 80
2, 26208, Note_on_c, 0, 67, 80
2, 26252, Note_off_c, 0, 64, 100
2, 26256, Note_on_c, 0, 76, 80
2, 26300, Note_off_c, 0, 67, 100
2, 26304, Note_on_c, 0, 75, 80
2, 26348, Note_off_c, 0, 76, 100
2, 26352, Note_on_c, 0, 76, 80
2, 26396, Note_off_c, 0, 75, 100
2, 26400, Note_on_c, 0, 64, 100
2, 26444, Note_off_c, 0, 76, 100
2, 26448, Note_on_c, 0, 76, 100
2, 26492, Note_off_c, 0, 64, 100
2, 26540, Note_off_c, 0, 76, 100
2, 26544, Note_on_c, 0, 64, 100
2, 26592, Note_on_c, 0, 67, 100
2, 26636, Note_off_c, 0, 64, 100
2, 26640, Note_on_c, 0, 76, 100
2, 26684, Note_off_c, 0, 67, 100
2, 26688, Note_on_c, 0, 75, 100
2, 26732, Note_off_c, 0, 76, 100
2, 26736, Note_on_c, 0, 76, 100
2, 26780, Note_off_c, 0, 75, 100
2, 26784, Note_on_c, 0, 64, 100
2, 26828, Note_off_c, 0, 76, 100
2, 26832, Note_on_c, 0, 76, 100
2, 26876, Note_off_c, 0, 64, 100
2, 26924, Note_off_c, 0, 76, 100
2, 26928, Note_on_c, 0, 58, 100
2, 26976, Note_on_c, 0, 61, 100
2, 27020, Note_off_c, 0, 58, 100
2, 27024, Note_on_c, 0, 64, 100
2, 27068, Note_off_c, 0, 61, 100
2, 27072, Note_on_c, 0, 66, 100
2, 27116, Note_off_c, 0, 64, 100
2, 27120, Note_on_c, 0, 67, 100
2, 27164, Note_off_c, 0, 66, 100
2, 27168, Note_on_c, 0, 64, 100
2, 27212, Note_off_c, 0, 67, 100
2, 27216, Note_on_c, 0, 61, 100
2, 27260, Note_off_c, 0, 64, 100
2, 27308, Note_off_c, 0, 61, 100
2, 27312, Note_on_c, 0, 58, 100
2, 27360, Note_on_c, 0, 61, 100
2, 27404, Note_off_c, 0, 58, 100
2, 27408, Note_on_c, 0, 67, 100
2, 27452, Note_off_c, 0, 61, 100
2, 27456, Note_on_c, 0, 66, 100
2, 27500, Note_off_c, 0, 67, 100
2, 27504, Note_on_c, 0, 67, 100
2, 27548, Note_off_c, 0, 66, 100
2, 27552, Note_on_c, 0, 58, 100
2, 27596, Note_off_c, 0, 67, 100
2, 27600, Note_on_c, 0, 67, 100
2, 27644, Note_off_c, 0, 58, 100
2, 27644, Note_off_c, 0, 67, 100
2, 27696, Note_on_c, 0, 63, 80
2, 27744, Note_on_c, 0, 66, 80
2, 27788, Note_off_c, 0, 63, 100
2, 27792, Note_on_c, 0, 71, 80
2, 27836, Note_off_c, 0, 66, 100
2, 27840, Note_on_c, 0, 70, 80
2, 27884, Note_off_c, 0, 71, 100
2, 27888, Note_on_c, 0, 71, 80
2, 27932, Note_off_c, 0, 70, 100
2, 27936, Note_on_c, 0, 66, 80
2, 27980, Note_off_c, 0, 71, 100
2, 27984, Note_on_c, 0, 63, 80
2, 28028, Note_off_c, 0, 66, 100
2, 28076, Note_off_c, 0, 63, 100
2, 28080, Note_on_c, 0, 63, 80
2, 28128, Note_on_c, 0, 66, 80
2, 28172, Note_off_c, 0, 63, 100
2, 28176, Note_on_c, 0, 69, 80
2, 28220, Note_off_c, 0, 66, 100
2, 28224, Note_on_c, 0, 67, 80
2, 28268, Note_off_c, 0, 69, 100
2, 28272, Note_on_c, 0, 69, 80
2, 28316, Note_off_c, 0, 67, 100
2, 28320, Note_on_c, 0, 66, 80
2, 28364, Note_off_c, 0, 69, 100
2, 28368, Note_on_c, 0, 63, 80
2, 28412, Note_off_c, 0, 66, 100
2, 28460, Note_off_c, 0, 63, 100
2, 28464, Note_on_c, 0, 64, 80
2, 28512, Note_on_c, 0, 67, 80
2, 28556, Note_off_c, 0, 64, 100
2, 28560, Note_on_c, 0, 71, 80
2, 28604, Note_off_c, 0, 67, 100
2, 28608, Note_on_c, 0, 70, 80
2, 28652, Note_off_c, 0, 71, 100
2, 28656, Note_on_c, 0, 71, 80
2, 28700, Note_off_c, 0, 70, 100
2, 28704, Note_on_c, 0, 67, 80
2, 28748, Note_off_c, 0, 71, 100
2, 28752, Note_on_c, 0, 64, 80
2, 28796, Note_off_c, 0, 67, 100
2, 28844, Note_off_c, 0, 64, 100
2, 28848, Note_on_c, 0, 64, 80
2, 28896, Note_on_c, 0, 67, 80
2, 28940, Note_off_c, 0, 64, 100
2, 28944, Note_on_c, 0, 73, 80
2, 28988, Note_off_c, 0, 67, 100
2, 28992, Note_on_c, 0, 67, 80
2, 29036, Note_off_c, 0, 73, 100
2, 29040, Note_on_c, 0, 73, 80
2, 29084, Note_off_c, 0, 67, 100
2, 29088, Note_on_c, 0, 67, 80
2, 29132, Note_off_c, 0, 73, 100
2, 29136, Note_on_c, 0, 64, 80
2, 29180, Note_off_c, 0, 67, 100
2, 29228, Note_off_c, 0, 64, 100
2, 29232, Note_on_c, 0, 63, 80
2, 29280, Note_on_c, 0, 66, 80
2, 29324, Note_off_c, 0, 63, 100
2, 29328, Note_on_c, 0, 69, 80
2, 29372, Note_off_c, 0, 66, 100
2, 29376, Note_on_c, 0, 67, 80
2, 29420, Note_off_c, 0, 69, 100
2, 29424, Note_on_c, 0, 69, 80
2, 29468, Note_off_c, 0, 67, 100
2, 29472, Note_on_c, 0, 66, 80
2, 29516, Note_off_c, 0, 69, 100
2, 29520, Note_on_c, 0, 63, 80
2, 29564, Note_off_c, 0, 66, 100
2, 29612, Note_off_c, 0, 63, 100
2, 29616, Note_on_c, 0, 59, 80
2, 29664, Note_on_c, 0, 66, 80
2, 29708, Note_off_c, 0, 59, 100
2, 29712, Note_on_c, 0, 69, 80
2, 29756, Note_off_c, 0, 66, 100
2, 29760, Note_on_c, 0, 68, 80
2, 29804, Note_off_c, 0, 69, 100
2, 29808, Note_on_c, 0, 69, 80
2, 29852, Note_off_c, 0, 68, 100
2, 29856, Note_on_c, 0, 66, 80
2, 29900, Note_off_c, 0, 69, 100
2, 29904, Note_on_c, 0, 59, 80
2, 29948, Note_off_c, 0, 66, 100
2, 29996, Note_off_c, 0, 59, 100
2, 30000, Note_on_c, 0, 59, 80
2, 30048, Note_on_c, 0, 64, 80
2, 30092, Note_off_c, 0, 59, 100
2, 30096, Note_on_c, 0, 67, 80
2, 30140, Note_off_c, 0, 64, 100
2, 30144, Note_on_c, 0, 66, 80
2, 30188, Note_off_c, 0, 67, 100
2, 30192, Note_on_c, 0, 67, 80
2, 30236, Note_off_c, 0, 66, 100
2, 30240, Note_on_c, 0, 64, 80
2, 30284, Note_off_c, 0, 67, 100
2, 30288, Note_on_c, 0, 59, 80
2, 30332, Note_off_c, 0, 64, 100
2, 30380, Note_off_c, 0, 59, 100
2, 30384, Note_on_c, 0, 61, 80
2, 30432, Note_on_c, 0, 64, 80
2, 30476, Note_off_c, 0, 61, 100
2, 30480, Note_on_c, 0, 67, 80
2, 30524, Note_off_c, 0, 64, 100
2, 30528, Note_on_c, 0, 66, 80
2, 30572, Note_off_c, 0, 67, 100
2, 30576, Note_on_c, 0, 67, 80
2, 30620, Note_off_c, 0, 66, 100
2, 30624, Note_on_c, 0, 64, 80
2, 30668, Note_off_c, 0, 67, 100
2, 30672, Note_on_c, 0, 61, 80
2, 30716, Note_off_c, 0, 64, 100
2, 30764, Note_off_c, 0, 61, 100
2, 30768, Note_on_c, 0, 63, 82
2, 30816, Note_on_c, 0, 66, 83
2, 30860, Note_off_c, 0, 63, 100
2, 30864, Note_on_c, 0, 71, 84
2, 30908, Note_off_c, 0, 66, 100
2, 30912, Note_on_c, 0, 70, 85
2, 30956, Note_off_c, 0, 71, 100
2, 30960, Note_on_c, 0, 71, 87
2, 31004, Note_off_c, 0, 70, 100
2, 31008, Note_on_c, 0, 63, 88
2, 31052, Note_off_c, 0, 71, 100
2, 31056, Note_on_c, 0, 71, 89
2, 31100, Note_off_c, 0, 63, 100
2, 31148, Note_off_c, 0, 71, 100
2, 31152, Note_on_c, 0, 59, 91
2, 31200, Note_on_c, 0, 63, 92
2, 31244, Note_off_c, 0, 59, 100
2, 31248, Note_on_c, 0, 71, 94
2, 31292, Note_off_c, 0, 63, 100
2, 31296, Note_on_c, 0, 70, 95
2, 31340, Note_off_c, 0, 71, 100
2, 31344, Note_on_c, 0, 71, 96
2, 31388, Note_off_c, 0, 70, 100
2, 31392, Note_on_c, 0, 63, 97
2, 31436, Note_off_c, 0, 71, 100
2, 31440, Note_on_c, 0, 71, 100
2, 31484, Note_off_c, 0, 63, 100
2, 31532, Note_off_c, 0, 71, 100
2, 31536, Note_on_c, 0, 59, 96
2, 31584, Note_on_c, 0, 63, 93
2, 31628, Note_off_c, 0, 59, 100
2, 31632, Note_on_c, 0, 71, 91
2, 31676, Note_off_c, 0, 63, 100
2, 31680, Note_on_c, 0, 73, 88
2, 31724, Note_off_c, 0, 71, 100
2, 31728, Note_on_c, 0, 71, 86
2, 31772, Note_off_c, 0, 73, 100
2, 31776, Note_on_c, 0, 63, 83
2, 31820, Note_off_c, 0, 71, 100
2, 31824, Note_on_c, 0, 71, 80
2, 31868, Note_off_c, 0, 63, 100
2, 31916, Note_off_c, 0, 71, 100
2, 31920, Note_on_c, 0, 59, 80
2, 31968, Note_on_c, 0, 63, 80
2, 32012, Note_off_c, 0, 59, 100
2, 32016, Note_on_c, 0, 69, 80
2, 32060, Note_off_c, 0, 63, 100
2, 32064, Note_on_c, 0, 71, 80
2, 32108, Note_off_c, 0, 69, 100
2, 32112, Note_on_c, 0, 69, 80
2, 32156, Note_off_c, 0, 71, 100
2, 32160, Note_on_c, 0, 59, 80
2, 32204, Note_off_c, 0, 69, 100
2, 32208, Note_on_c, 0, 69, 80
2, 32252, Note_off_c, 0, 59, 100
2, 32252, Note_off_c, 0, 69, 100
2, 32256, Key_signature, 4, "major"
2, 32256, Note_on_c, 0, 59, 70
2, 32256, Note_on_c, 0, 68, 70
2, 32396, Note_off_c, 0, 68, 100
2, 32400, Note_on_c, 0, 66, 70
2, 32444, Note_off_c, 0, 66, 100
2, 32448, Note_on_c, 0, 68, 70
2, 32540, Note_off_c, 0, 68, 100
2, 32544, Note_on_c, 0, 69, 70
2, 32636, Note_off_c, 0, 59, 100
2, 32636, Note_off_c, 0, 69, 100
2, 32640, Note_on_c, 0, 66, 70
2, 32640, Note_on_c, 0, 59, 70
2, 32828, Note_off_c, 0, 66, 100
2, 32828, Note_off_c, 0, 59, 100
2, 33024, Note_on_c, 0, 59, 70
2, 33024, Note_on_c, 0, 64, 70
2, 33164, Note_off_c, 0, 64, 100
2, 33168, Note_on_c, 0, 63, 70
2, 33212, Note_off_c, 0, 63, 100
2, 33216, Note_on_c, 0, 64, 70
2, 33308, Note_off_c, 0, 64, 100
2, 33312, Note_on_c, 0, 66, 70
2, 33404, Note_off_c, 0, 59, 100
2, 33404, Note_off_c, 0, 66, 100
2, 33408, Note_on_c, 0, 63, 70
2, 33408, Note_on_c, 0, 59, 70
2, 33408, Note_on_c, 0, 57, 70
2, 33596, Note_off_c, 0, 63, 100
2, 33596, Note_off_c, 0, 59, 100
2, 33596, Note_off_c, 0, 57, 100
2, 33696, Note_on_c, 0, 59, 70
2, 33788, Note_off_c, 0, 59, 100
2, 33792, Note_on_c, 0, 64, 70
2, 33792, Note_on_c, 0, 59, 70
2, 33884, Note_off_c, 0, 64, 100
2, 33884, Note_off_c, 0, 59, 100
2, 33888, Note_on_c, 0, 66, 70
2, 33888, Note_on_c, 0, 59, 70
2, 33980, Note_off_c, 0, 66, 100
2, 33980, Note_off_c, 0, 59, 100
2, 33984, Note_on_c, 0, 68, 70
2, 33984, Note_on_c, 0, 64, 70
2, 33984, Note_on_c, 0, 59, 70
2, 34076, Note_off_c, 0, 68, 100
2, 34076, Note_off_c, 0, 64, 100
2, 34076, Note_off_c, 0, 59, 100
2, 34080, Note_on_c, 0, 69, 70
2, 34080, Note_on_c, 0, 66, 70
2, 34080, Note_on_c, 0, 61, 70
2, 34172, Note_off_c, 0, 69, 100
2, 34172, Note_off_c, 0, 66, 100
2, 34172, Note_off_c, 0, 61, 100
2, 34176, Note_on_c, 0, 66, 70
2, 34176, Note_on_c, 0, 63, 70
2, 34364, Note_off_c, 0, 66, 100
2, 34364, Note_off_c, 0, 63, 100
2, 34464, Note_on_c, 0, 71, 70
2, 34464, Note_on_c, 0, 63, 70
2, 34556, Note_off_c, 0, 71, 100
2, 34556, Note_off_c, 0, 63, 100
2, 34560, Note_on_c, 0, 71, 70
2, 34560, Note_on_c, 0, 64, 70
2, 34652, Note_off_c, 0, 71, 100
2, 34652, Note_off_c, 0, 64, 100
2, 34656, Note_on_c, 0, 69, 70
2, 34656, Note_on_c, 0, 59, 70
2, 34748, Note_off_c, 0, 69, 100
2, 34748, Note_off_c, 0, 59, 100
2, 34752, Note_on_c, 0, 68, 70
2, 34752, Note_on_c, 0, 59, 70
2, 34844, Note_off_c, 0, 68, 100
2, 34844, Note_off_c, 0, 59, 100
2, 34848, Note_on_c, 0, 73, 70
2, 34848, Note_on_c, 0, 61, 70
2, 34892, Note_off_c, 0, 73, 100
2, 34892, Note_off_c, 0, 61, 100
2, 34896, Note_on_c, 0, 69, 70
2, 34940, Note_off_c, 0, 69, 100
2, 34944, Note_on_c, 0, 66, 70
2, 34944, Note_on_c, 0, 59, 70
2, 35132, Note_off_c, 0, 66, 100
2, 35132, Note_off_c, 0, 59, 100
2, 35328, Note_on_c, 0, 61, 70
2, 35328, Note_on_c, 0, 69, 70
2, 35468, Note_off_c, 0, 69, 100
2, 35472, Note_on_c, 0, 68, 70
2, 35516, Note_off_c, 0, 68, 100
2, 35520, Note_on_c, 0, 69, 70
2, 35612, Note_off_c, 0, 69, 100
2, 35616, Note_on_c, 0, 71, 70
2, 35708, Note_off_c, 0, 61, 100
2, 35708, Note_off_c, 0, 71, 100
2, 35712, Note_on_c, 0, 68, 70
2, 35712, Note_on_c, 0, 61, 70
2, 35900, Note_off_c, 0, 68, 100
2, 35900, Note_off_c, 0, 61, 100
2, 36096, Note_on_c, 0, 61, 70
2, 36096, Note_on_c, 0, 66, 70
2, 36236, Note_off_c, 0, 66, 100
2, 36240, Note_on_c, 0, 65, 70
2, 36284, Note_off_c, 0, 65, 100
2, 36288, Note_on_c, 0, 66, 70
2, 36380, Note_off_c, 0, 66, 100
2, 36384, Note_on_c, 0, 68, 70
2, 36476, Note_off_c, 0, 61, 100
2, 36476, Note_off_c, 0, 68, 100
2, 36480, Note_on_c, 0, 65, 70
2, 36480, Note_on_c, 0, 61, 70
2, 36480, Note_on_c, 0, 59, 70
2, 36668, Note_off_c, 0, 65, 100
2, 36668, Note_off_c, 0, 61, 100
2, 36668, Note_off_c, 0, 59, 100
2, 36768, Note_on_c, 0, 70, 70
2, 36768, Note_on_c, 0, 64, 70
2, 36956, Note_off_c, 0, 64, 100
2, 36956, Note_off_c, 0, 70, 100
2, 36960, Note_on_c, 0, 71, 70
2, 36960, Note_on_c, 0, 63, 70
2, 37052, Note_off_c, 0, 71, 100
2, 37052, Note_off_c, 0, 63, 100
2, 37152, Note_on_c, 0, 68, 70
2, 37152, Note_on_c, 0, 62, 70
2, 37340, Note_off_c, 0, 68, 100
2, 37340, Note_off_c, 0, 62, 100
2, 37344, Note_on_c, 0, 69, 70
2, 37344, Note_on_c, 0, 61, 70
2, 37436, Note_off_c, 0, 69, 100
2, 37436, Note_off_c, 0, 61, 100
2, 37536, Note_on_c, 0, 66, 70
2, 37536, Note_on_c, 0, 61, 70
2, 37628, Note_off_c, 0, 66, 100
2, 37628, Note_off_c, 0, 61, 100
2, 37632, Note_on_c, 0, 64, 70
2, 37632, Note_on_c, 0, 59, 70
2, 37632, Note_on_c, 0, 56, 70
2, 37820, Note_off_c, 0, 64, 100
2, 37820, Note_off_c, 0, 59, 100
2, 37820, Note_off_c, 0, 56, 100
2, 37824, Note_on_c, 0, 66, 70
2, 37824, Note_on_c, 0, 63, 70
2, 37824, Note_on_c, 0, 57, 70
2, 38012, Note_off_c, 0, 66, 100
2, 38012, Note_off_c, 0, 63, 100
2, 38012, Note_off_c, 0, 57, 100
2, 38016, Note_on_c, 0, 68, 70
2, 38016, Note_on_c, 0, 64, 70
2, 38016, Note_on_c, 0, 59, 70
2, 38204, Note_off_c, 0, 68, 100
2, 38204, Note_off_c, 0, 64, 100
2, 38204, Note_off_c, 0, 59, 100
2, 38400, Note_on_c, 0, 78, 70
2, 38400, Note_on_c, 0, 66, 70
2, 38588, Note_off_c, 0, 78, 100
2, 38588, Note_off_c, 0, 66, 100
2, 38592, Note_on_c, 0, 83, 70
2, 38592, Note_on_c, 0, 71, 70
2, 38684, Note_off_c, 0, 83, 100
2, 38684, Note_off_c, 0, 71, 100
2, 38784, Note_on_c, 0, 76, 70
2, 38784, Note_on_c, 0, 64, 70
2, 38972, Note_off_c, 0, 76, 100
2, 38972, Note_off_c, 0, 64, 100
2, 38976, Note_on_c, 0, 69, 70
2, 38976, Note_on_c, 0, 81, 70
2, 39068, Note_off_c, 0, 69, 100
2, 39068, Note_off_c, 0, 81, 100
2, 39312, Note_on_c, 0, 72, 70
2, 39356, Note_off_c, 0, 72, 100
2, 39360, Note_on_c, 0, 73, 70
2, 39404, Note_off_c, 0, 73, 100
2, 39408, Note_on_c, 0, 68, 70
2, 39452, Note_off_c, 0, 68, 100
2, 39456, Note_on_c, 0, 69, 70
2, 39524, Note_off_c, 0, 69, 100
2, 39526, Note_on_c, 0, 66, 70
2, 39546, Note_off_c, 0, 66, 100
2, 39552, Note_on_c, 0, 61, 70
2, 39552, Note_on_c, 0, 57, 70
2, 39552, Note_on_c, 0, 54, 70
2, 39740, Note_off_c, 0, 61, 100
2, 39744, Note_on_c, 0, 63, 70
2, 39932, Note_off_c, 0, 57, 100
2, 39932, Note_off_c, 0, 54, 100
2, 39932, Note_off_c, 0, 63, 100
2, 39936, Note_on_c, 0, 64, 110
2, 39936, Note_on_c, 0, 55, 110
2, 39936, Note_on_c, 0, 52, 110
2, 40076, Note_off_c, 0, 64, 100
2, 40076, Note_off_c, 0, 55, 100
2, 40076, Note_off_c, 0, 52, 100
2, 40080, Note_on_c, 0, 62, 110
2, 40080, Note_on_c, 0, 55, 110
2, 40080, Note_on_c, 0, 50, 110
2, 40124, Note_off_c, 0, 62, 100
2, 40124, Note_off_c, 0, 55, 100
2, 40124, Note_off_c, 0, 50, 100
2, 40128, Note_on_c, 0, 64, 110
2, 40128, Note_on_c, 0, 55, 110
2, 40128, Note_on_c, 0, 52, 110
2, 40220, Note_off_c, 0, 64, 100
2, 40220, Note_off_c, 0, 55, 100
2, 40220, Note_off_c, 0, 52, 100
2, 40224, Note_on_c, 0, 65, 110
2, 40224, Note_on_c, 0, 55, 110
2, 40224, Note_on_c, 0, 53, 110
2, 40316, Note_off_c, 0, 65, 100
2, 40316, Note_off_c, 0, 55, 100
2, 40316, Note_off_c, 0, 53, 100
2, 40320, Note_on_c, 0, 62, 110
2, 40320, Note_on_c, 0, 55, 110
2, 40320, Note_on_c, 0, 50, 110
2, 40508, Note_off_c, 0, 62, 100
2, 40508, Note_off_c, 0, 55, 100
2, 40508, Note_off_c, 0, 50, 100
2, 40704, Note_on_c, 0, 65, 110
2, 40704, Note_on_c, 0, 59, 110
2, 40704, Note_on_c, 0, 55, 110
2, 40844, Note_off_c, 0, 65, 100
2, 40844, Note_off_c, 0, 59, 100
2, 40844, Note_off_c, 0, 55, 100
2, 40848, Note_on_c, 0, 64, 110
2, 40848, Note_on_c, 0, 60, 110
2, 40848, Note_on_c, 0, 55, 110
2, 40892, Note_off_c, 0, 64, 100
2, 40892, Note_off_c, 0, 60, 100
2, 40892, Note_off_c, 0, 55, 100
2, 40896, Note_on_c, 0, 65, 110
2, 40896, Note_on_c, 0, 59, 110
2, 40896, Note_on_c, 0, 55, 110
2, 40988, Note_off_c, 0, 65, 100
2, 40988, Note_off_c, 0, 59, 100
2, 40988, Note_off_c, 0, 55, 100
2, 40992, Note_on_c, 0, 67, 110
2, 40992, Note_on_c, 0, 60, 110
2, 40992, Note_on_c, 0, 55, 110
2, 41084, Note_off_c, 0, 67, 100
2, 41084, Note_off_c, 0, 60, 100
2, 41084, Note_off_c, 0, 55, 100
2, 41088, Note_on_c, 0, 64, 110
2, 41088, Note_on_c, 0, 60, 110
2, 41088, Note_on_c, 0, 55, 110
2, 41276, Note_off_c, 0, 64, 100
2, 41276, Note_off_c, 0, 60, 100
2, 41276, Note_off_c, 0, 55, 100
2, 41520, Note_on_c, 0, 60, 80
2, 41568, Note_on_c, 0, 64, 80
2, 41612, Note_off_c, 0, 60, 100
2, 41616, Note_on_c, 0, 67, 80
2, 41660, Note_off_c, 0, 64, 100
2, 41664, Note_on_c, 0, 69, 80
2, 41708, Note_off_c, 0, 67, 100
2, 41712, Note_on_c, 0, 67, 80
2, 41756, Note_off_c, 0, 69, 100
2, 41760, Note_on_c, 0, 60, 80
2, 41804, Note_off_c, 0, 67, 100
2, 41808, Note_on_c, 0, 67, 80
2, 41852, Note_off_c, 0, 60, 100
2, 41900, Note_off_c, 0, 67, 100
2, 41904, Note_on_c, 0, 60, 80
2, 41952, Note_on_c, 0, 64, 80
2, 41996, Note_off_c, 0, 60, 100
2, 42000, Note_on_c, 0, 67, 80
2, 42044, Note_off_c, 0, 64, 100
2, 42048, Note_on_c, 0, 69, 80
2, 42092, Note_off_c, 0, 67, 100
2, 42096, Note_on_c, 0, 67, 80
2, 42140, Note_off_c, 0, 69, 100
2, 42144, Note_on_c, 0, 60, 80
2, 42188, Note_off_c, 0, 67, 100
2, 42192, Note_on_c, 0, 67, 80
2, 42236, Note_off_c, 0, 60, 100
2, 42284, Note_off_c, 0, 67, 100
2, 42288, Note_on_c, 0, 59, 80
2, 42336, Note_on_c, 0, 65, 80
2, 42380, Note_off_c, 0, 59, 100
2, 42384, Note_on_c, 0, 68, 80
2, 42428, Note_off_c, 0, 65, 100
2, 42432, Note_on_c, 0, 69, 80
2, 42476, Note_off_c, 0, 68, 100
2, 42480, Note_on_c, 0, 68, 80
2, 42524, Note_off_c, 0, 69, 100
2, 42528, Note_on_c, 0, 59, 80
2, 42572, Note_off_c, 0, 68, 100
2, 42576, Note_on_c, 0, 68, 80
2, 42620, Note_off_c, 0, 59, 100
2, 42668, Note_off_c, 0, 68, 100
2, 42672, Note_on_c, 0, 62, 80
2, 42720, Note_on_c, 0, 65, 80
2, 42764, Note_off_c, 0, 62, 100
2, 42768, Note_on_c, 0, 71, 80
2, 42812, Note_off_c, 0, 65, 100
2, 42816, Note_on_c, 0, 72, 80
2, 42860, Note_off_c, 0, 71, 100
2, 42864, Note_on_c, 0, 71, 80
2, 42908, Note_off_c, 0, 72, 100
2, 42912, Note_on_c, 0, 62, 80
2, 42956, Note_off_c, 0, 71, 100
2, 42960, Note_on_c, 0, 71, 80
2, 43004, Note_off_c, 0, 62, 100
2, 43052, Note_off_c, 0, 71, 100
2, 43056, Note_on_c, 0, 60, 80
2, 43104, Note_on_c, 0, 64, 80
2, 43148, Note_off_c, 0, 60, 100
2, 43152, Note_on_c, 0, 72, 80
2, 43196, Note_off_c, 0, 64, 100
2, 43200, Note_on_c, 0, 71, 80
2, 43244, Note_off_c, 0, 72, 100
2, 43248, Note_on_c, 0, 72, 80
2, 43292, Note_off_c, 0, 71, 100
2, 43296, Note_on_c, 0, 64, 80
2, 43340, Note_off_c, 0, 72, 100
2, 43344, Note_on_c, 0, 72, 80
2, 43388, Note_off_c, 0, 64, 100
2, 43436, Note_off_c, 0, 72, 100
2, 43440, Note_on_c, 0, 64, 80
2, 43488, Note_on_c, 0, 67, 80
2, 43532, Note_off_c, 0, 64, 100
2, 43536, Note_on_c, 0, 76, 80
2, 43580, Note_off_c, 0, 67, 100
2, 43584, Note_on_c, 0, 75, 80
2, 43628, Note_off_c, 0, 76, 100
2, 43632, Note_on_c, 0, 76, 80
2, 43676, Note_off_c, 0, 75, 100
2, 43680, Note_on_c, 0, 67, 80
2, 43724, Note_off_c, 0, 76, 100
2, 43728, Note_on_c, 0, 64, 80
2, 43772, Note_off_c, 0, 67, 100
2, 43820, Note_off_c, 0, 64, 100
2, 43824, Note_on_c, 0, 64, 80
2, 43872, Note_on_c, 0, 68, 80
2, 43916, Note_off_c, 0, 64, 100
2, 43920, Note_on_c, 0, 71, 80
2, 43964, Note_off_c, 0, 68, 100
2, 43968, Note_on_c, 0, 70, 80
2, 44012, Note_off_c, 0, 71, 100
2, 44016, Note_on_c, 0, 71, 80
2, 44060, Note_off_c, 0, 70, 100
2, 44064, Note_on_c, 0, 68, 80
2, 44108, Note_off_c, 0, 71, 100
2, 44112, Note_on_c, 0, 64, 80
2, 44156, Note_off_c, 0, 68, 100
2, 44204, Note_off_c, 0, 64, 100
2, 44208, Note_on_c, 0, 57, 80
2, 44256, Note_on_c, 0, 63, 80
2, 44300, Note_off_c, 0, 57, 100
2, 44304, Note_on_c, 0, 66, 80
2, 44348, Note_off_c, 0, 63, 100
2, 44352, Note_on_c, 0, 65, 80
2, 44396, Note_off_c, 0, 66, 100
2, 44400, Note_on_c, 0, 66, 80
2, 44444, Note_off_c, 0, 65, 100
2, 44448, Note_on_c, 0, 63, 80
2, 44492, Note_off_c, 0, 66, 100
2, 44496, Note_on_c, 0, 57, 80
2, 44540, Note_off_c, 0, 63, 100
2, 44540, Note_off_c, 0, 57, 100
2, 44592, Note_on_c, 0, 56, 80
2, 44640, Note_on_c, 0, 59, 80
2, 44684, Note_off_c, 0, 56, 100
2, 44688, Note_on_c, 0, 64, 80
2, 44732, Note_off_c, 0, 59, 100
2, 44736, Note_on_c, 0, 66, 80
2, 44780, Note_off_c, 0, 64, 100
2, 44784, Note_on_c, 0, 64, 80
2, 44828, Note_off_c, 0, 66, 100
2, 44832, Note_on_c, 0, 56, 80
2, 44876, Note_off_c, 0, 64, 100
2, 44880, Note_on_c, 0, 64, 80
2, 44924, Note_off_c, 0, 56, 100
2, 44972, Note_off_c, 0, 64, 100
2, 44976, Note_on_c, 0, 56, 80
2, 45024, Note_on_c, 0, 59, 80
2, 45068, Note_off_c, 0, 56, 100
2, 45072, Note_on_c, 0, 64, 80
2, 45116, Note_off_c, 0, 59, 100
2, 45120, Note_on_c, 0, 66, 80
2, 45164, Note_off_c, 0, 64, 100
2, 45168, Note_on_c, 0, 64, 80
2, 45212, Note_off_c, 0, 66, 100
2, 45216, Note_on_c, 0, 56, 80
2, 45260, Note_off_c, 0, 64, 100
2, 45264, Note_on_c, 0, 64, 80
2, 45308, Note_off_c, 0, 56, 100
2, 45356, Note_off_c, 0, 64, 100
2, 45360, Note_on_c, 0, 57, 80
2, 45408, Note_on_c, 0, 61, 80
2, 45452, Note_off_c, 0, 57, 100
2, 45456, Note_on_c, 0, 64, 80
2, 45500, Note_off_c, 0, 61, 100
2, 45504, Note_on_c, 0, 66, 80
2, 45548, Note_off_c, 0, 64, 100
2, 45552, Note_on_c, 0, 64, 80
2, 45596, Note_off_c, 0, 66, 100
2, 45600, Note_on_c, 0, 57, 80
2, 45644, Note_off_c, 0, 64, 100
2, 45648, Note_on_c, 0, 64, 80
2, 45692, Note_off_c, 0, 57, 100
2, 45740, Note_off_c, 0, 64, 100
2, 45744, Note_on_c, 0, 58, 80
2, 45792, Note_on_c, 0, 61, 80
2, 45836, Note_off_c, 0, 58, 100
2, 45840, Note_on_c, 0, 64, 80
2, 45884, Note_off_c, 0, 61, 100
2, 45888, Note_on_c, 0, 66, 80
2, 45932, Note_off_c, 0, 64, 100
2, 45936, Note_on_c, 0, 64, 80
2, 45980, Note_off_c, 0, 66, 100
2, 45984, Note_on_c, 0, 58, 80
2, 46028, Note_off_c, 0, 64, 100
2, 46032, Note_on_c, 0, 64, 80
2, 46076, Note_off_c, 0, 58, 100
2, 46124, Note_off_c, 0, 64, 100
2, 46128, Note_on_c, 0, 59, 80
2, 46220, Note_off_c, 0, 59, 100
2, 46224, Note_on_c, 0, 64, 80
2, 46272, Note_on_c, 0, 68, 80
2, 46316, Note_off_c, 0, 64, 100
2, 46320, Note_on_c, 0, 64, 80
2, 46364, Note_off_c, 0, 68, 100
2, 46368, Note_on_c, 0, 56, 80
2, 46412, Note_off_c, 0, 64, 100
2, 46416, Note_on_c, 0, 64, 80
2, 46460, Note_off_c, 0, 56, 100
2, 46508, Note_off_c, 0, 64, 100
2, 46512, Note_on_c, 0, 57, 80
2, 46604, Note_off_c, 0, 57, 100
2, 46608, Note_on_c, 0, 63, 80
2, 46656, Note_on_c, 0, 66, 80
2, 46700, Note_off_c, 0, 63, 100
2, 46704, Note_on_c, 0, 63, 80
2, 46748, Note_off_c, 0, 66, 100
2, 46752, Note_on_c, 0, 57, 80
2, 46796, Note_off_c, 0, 63, 100
2, 46800, Note_on_c, 0, 63, 80
2, 46844, Note_off_c, 0, 57, 100
2, 46892, Note_off_c, 0, 63, 100
2, 46896, Note_on_c, 0, 56, 80
2, 46944, Note_on_c, 0, 59, 80
2, 46988, Note_off_c, 0, 56, 100
2, 46992, Note_on_c, 0, 64, 80
2, 47036, Note_off_c, 0, 59, 100
2, 47040, Note_on_c, 0, 66, 80
2, 47084, Note_off_c, 0, 64, 100
2, 47088, Note_on_c, 0, 64, 80
2, 47132, Note_off_c, 0, 66, 100
2, 47136, Note_on_c, 0, 56, 80
2, 47180, Note_off_c, 0, 64, 100
2, 47184, Note_on_c, 0, 64, 80
2, 47228, Note_off_c, 0, 56, 100
2, 47276, Note_off_c, 0, 64, 100
2, 47280, Note_on_c, 0, 56, 80
2, 47328, Note_on_c, 0, 59, 80
2, 47372, Note_off_c, 0, 56, 100
2, 47376, Note_on_c, 0, 64, 80
2, 47420, Note_off_c, 0, 59, 100
2, 47424, Note_on_c, 0, 66, 80
2, 47468, Note_off_c, 0, 64, 100
2, 47472, Note_on_c, 0, 64, 80
2, 47516, Note_off_c, 0, 66, 100
2, 47520, Note_on_c, 0, 56, 80
2, 47564, Note_off_c, 0, 64, 100
2, 47568, Note_on_c, 0, 64, 80
2, 47612, Note_off_c, 0, 56, 100
2, 47660, Note_off_c, 0, 64, 100
2, 47664, Note_on_c, 0, 57, 80
2, 47712, Note_on_c, 0, 61, 80
2, 47756, Note_off_c, 0, 57, 100
2, 47760, Note_on_c, 0, 64, 80
2, 47804, Note_off_c, 0, 61, 100
2, 47808, Note_on_c, 0, 66, 80
2, 47852, Note_off_c, 0, 64, 100
2, 47856, Note_on_c, 0, 64, 80
2, 47900, Note_off_c, 0, 66, 100
2, 47904, Note_on_c, 0, 57, 80
2, 47948, Note_off_c, 0, 64, 100
2, 47952, Note_on_c, 0, 64, 80
2, 47996, Note_off_c, 0, 57, 100
2, 48044, Note_off_c, 0, 64, 100
2, 48048, Note_on_c, 0, 55, 80
2, 48096, Note_on_c, 0, 58, 80
2, 48140, Note_off_c, 0, 55, 100
2, 48144, Note_on_c, 0, 64, 80
2, 48188, Note_off_c, 0, 58, 100
2, 48192, Note_on_c, 0, 66, 80
2, 48236, Note_off_c, 0, 64, 100
2, 48240, Note_on_c, 0, 64, 80
2, 48284, Note_off_c, 0, 66, 100
2, 48288, Note_on_c, 0, 55, 80
2, 48332, Note_off_c, 0, 64, 100
2, 48336, Note_on_c, 0, 64, 80
2, 48380, Note_off_c, 0, 55, 100
2, 48428, Note_off_c, 0, 64, 100
2, 48432, Note_on_c, 0, 56, 80
2, 48524, Note_off_c, 0, 56, 100
2, 48528, Note_on_c, 0, 64, 80
2, 48576, Note_on_c, 0, 66, 80
2, 48620, Note_off_c, 0, 64, 100
2, 48624, Note_on_c, 0, 64, 80
2, 48668, Note_off_c, 0, 66, 100
2, 48672, Note_on_c, 0, 56, 80
2, 48716, Note_off_c, 0, 64, 100
2, 48720, Note_on_c, 0, 64, 80
2, 48764, Note_off_c, 0, 56, 100
2, 48812, Note_off_c, 0, 64, 100
2, 48816, Note_on_c, 0, 57, 80
2, 48908, Note_off_c, 0, 57, 100
2, 48912, Note_on_c, 0, 63, 80
2, 48960, Note_on_c, 0, 66, 80
2, 49004, Note_off_c, 0, 63, 100
2, 49008, Note_on_c, 0, 63, 80
2, 49052, Note_off_c, 0, 66, 100
2, 49056, Note_on_c, 0, 57, 80
2, 49100, Note_off_c, 0, 63, 100
2, 49104, Note_on_c, 0, 63, 80
2, 49148, Note_off_c, 0, 57, 100
2, 49196, Note_off_c, 0, 63, 100
2, 49200, Note_on_c, 0, 56, 80
2, 49248, Note_on_c, 0, 59, 80
2, 49292, Note_off_c, 0, 56, 100
2, 49296, Note_on_c, 0, 64, 80
2, 49340, Note_off_c, 0, 59, 100
2, 49344, Note_on_c, 0, 66, 80
2, 49388, Note_off_c, 0, 64, 100
2, 49392, Note_on_c, 0, 64, 80
2, 49436, Note_off_c, 0, 66, 100
2, 49440, Note_on_c, 0, 56, 80
2, 49484, Note_off_c, 0, 64, 100
2, 49488, Note_on_c, 0, 64, 80
2, 49532, Note_off_c, 0, 56, 100
2, 49580, Note_off_c, 0, 64, 100
2, 49584, Note_on_c, 0, 57, 80
2, 49676, Note_off_c, 0, 57, 100
2, 49680, Note_on_c, 0, 63, 80
2, 49728, Note_on_c, 0, 66, 80
2, 49772, Note_off_c, 0, 63, 100
2, 49776, Note_on_c, 0, 63, 80
2, 49820, Note_off_c, 0, 66, 100
2, 49824, Note_on_c, 0, 57, 80
2, 49868, Note_off_c, 0, 63, 100
2, 49872, Note_on_c, 0, 63, 80
2, 49916, Note_off_c, 0, 57, 100
2, 49964, Note_off_c, 0, 63, 100
2, 49968, Note_on_c, 0, 56, 80
2, 50016, Note_on_c, 0, 59, 80
2, 50060, Note_off_c, 0, 56, 100
2, 50064, Note_on_c, 0, 64, 80
2, 50108, Note_off_c, 0, 59, 100
2, 50112, Note_on_c, 0, 68, 80
2, 50156, Note_off_c, 0, 64, 100
2, 50160, Note_on_c, 0, 64, 80
2, 50204, Note_off_c, 0, 68, 100
2, 50208, Note_on_c, 0, 71, 80
2, 50252, Note_off_c, 0, 64, 100
2, 50256, Note_on_c, 0, 68, 80
2, 50300, Note_off_c, 0, 71, 100
2, 50304, Note_on_c, 0, 76, 80
2, 50348, Note_off_c, 0, 68, 100
2, 50352, Note_on_c, 0, 71, 80
2, 50396, Note_off_c, 0, 76, 100
2, 50400, Note_on_c, 0, 80, 80
2, 50444, Note_off_c, 0, 71, 100
2, 50448, Note_on_c, 0, 76, 80
2, 50492, Note_off_c, 0, 80, 100
2, 50496, Note_on_c, 0, 83, 80
2, 50540, Note_off_c, 0, 76, 100
2, 50544, Note_on_c, 0, 82, 80
2, 50588, Note_off_c, 0, 83, 100
2, 50592, Note_on_c, 0, 81, 80
2, 50636, Note_off_c, 0, 82, 100
2, 50640, Note_on_c, 0, 78, 80
2, 50684, Note_off_c, 0, 81, 100
2, 50684, Note_off_c, 0, 78, 100
2, 50688, Note_on_c, 0, 80, 80
2, 50828, Note_off_c, 0, 80, 100
2, 50832, Note_on_c, 0, 78, 80
2, 50876, Note_off_c, 0, 78, 100
2, 50880, Note_on_c, 0, 80, 80
2, 50972, Note_off_c, 0, 80, 100
2, 50976, Note_on_c, 0, 81, 80
2, 51068, Note_off_c, 0, 81, 100
2, 51072, Note_on_c, 0, 75, 80
2, 51072, Note_on_c, 0, 78, 80
2, 51260, Note_off_c, 0, 75, 100
2, 51260, Note_off_c, 0, 78, 100
2, 51456, Note_on_c, 0, 76, 80
2, 51596, Note_off_c, 0, 76, 100
2, 51600, Note_on_c, 0, 78, 80
2, 51624, Note_on_c, 0, 76, 80
2, 51644, Note_off_c, 0, 78, 100
2, 51648, Note_on_c, 0, 75, 80
2, 51668, Note_off_c, 0, 76, 100
2, 51692, Note_off_c, 0, 75, 100
2, 51696, Note_on_c, 0, 76, 80
2, 51740, Note_off_c, 0, 76, 100
2, 51744, Note_on_c, 0, 80, 80
2, 51788, Note_off_c, 0, 80, 100
2, 51792, Note_on_c, 0, 78, 80
2, 51836, Note_off_c, 0, 78, 100
2, 51840, Note_on_c, 0, 76, 80
2, 51932, Note_off_c, 0, 76, 100
2, 51936, Note_on_c, 0, 75, 80
2, 52028, Note_off_c, 0, 75, 100
2, 52176, Note_on_c, 0, 71, 80
2, 52220, Note_off_c, 0, 71, 100
2, 52224, Note_on_c, 0, 76, 80
2, 52268, Note_off_c, 0, 76, 100
2, 52296, Note_on_c, 0, 71, 80
2, 52316, Note_off_c, 0, 71, 100
2, 52320, Note_on_c, 0, 78, 80
2, 52364, Note_off_c, 0, 78, 100
2, 52392, Note_on_c, 0, 71, 80
2, 52412, Note_off_c, 0, 71, 100
2, 52416, Note_on_c, 0, 80, 80
2, 52460, Note_off_c, 0, 80, 100
2, 52488, Note_on_c, 0, 71, 80
2, 52508, Note_off_c, 0, 71, 100
2, 52512, Note_on_c, 0, 81, 80
2, 52512, Note_on_c, 0, 73, 80
2, 52604, Note_off_c, 0, 81, 100
2, 52604, Note_off_c, 0, 73, 100
2, 52608, Note_on_c, 0, 78, 80
2, 52608, Note_on_c, 0, 71, 80
2, 52796, Note_off_c, 0, 78, 100
2, 52796, Note_off_c, 0, 71, 100
2, 52872, Note_on_c, 0, 75, 80
2, 52892, Note_off_c, 0, 75, 100
2, 52896, Note_on_c, 0, 83, 80
2, 52940, Note_off_c, 0, 83, 100
2, 52968, Note_on_c, 0, 76, 80
2, 52988, Note_off_c, 0, 76, 100
2, 52992, Note_on_c, 0, 83, 80
2, 53036, Note_off_c, 0, 83, 100
2, 53064, Note_on_c, 0, 71, 80
2, 53084, Note_off_c, 0, 71, 100
2, 53088, Note_on_c, 0, 81, 80
2, 53132, Note_off_c, 0, 81, 100
2, 53160, Note_on_c, 0, 71, 80
2, 53180, Note_off_c, 0, 71, 100
2, 53184, Note_on_c, 0, 80, 80
2, 53228, Note_off_c, 0, 80, 100
2, 53256, Note_on_c, 0, 73, 80
2, 53276, Note_off_c, 0, 73, 100
2, 53280, Note_on_c, 0, 85, 80
2, 53348, Note_off_c, 0, 85, 100
2, 53352, Note_on_c, 0, 81, 80
2, 53372, Note_off_c, 0, 81, 100
2, 53376, Note_on_c, 0, 78, 80
2, 53376, Note_on_c, 0, 71, 80
2, 53564, Note_off_c, 0, 78, 100
2, 53564, Note_off_c, 0, 71, 100
2, 53760, Note_on_c, 0, 73, 80
2, 53760, Note_on_c, 0, 69, 80
2, 53760, Note_on_c, 0, 81, 80
2, 53900, Note_off_c, 0, 81, 100
2, 53904, Note_on_c, 0, 80, 80
2, 53948, Note_off_c, 0, 80, 100
2, 53952, Note_on_c, 0, 81, 80
2, 54044, Note_off_c, 0, 81, 100
2, 54048, Note_on_c, 0, 83, 80
2, 54140, Note_off_c, 0, 73, 100
2, 54140, Note_off_c, 0, 69, 100
2, 54140, Note_off_c, 0, 83, 100
2, 54144, Note_on_c, 0, 80, 80
2, 54144, Note_on_c, 0, 73, 80
2, 54144, Note_on_c, 0, 68, 80
2, 54332, Note_off_c, 0, 80, 100
2, 54332, Note_off_c, 0, 73, 100
2, 54332, Note_off_c, 0, 68, 100
2, 54480, Note_on_c, 0, 79, 120
2, 54480, Note_on_c, 0, 67, 120
2, 54480, Note_on_c, 0, 73, 120
2, 54908, Note_off_c, 0, 67, 100
2, 54908, Note_off_c, 0, 73, 100
2, 54908, Note_off_c, 0, 79, 100
2, 54912, Note_on_c, 0, 68, 90
2, 54936, Note_on_c, 0, 72, 90
2, 54960, Note_on_c, 0, 75, 90
2, 54984, Note_on_c, 0, 80, 90
2, 55196, Note_off_c, 0, 68, 100
2, 55196, Note_off_c, 0, 72, 100
2, 55196, Note_off_c, 0, 75, 100
2, 55196, Note_off_c, 0, 80, 100
2, 55200, Note_on_c, 0, 82, 80
2, 55200, Note_on_c, 0, 76, 80
2, 55388, Note_off_c, 0, 76, 100
2, 55388, Note_off_c, 0, 82, 100
2, 55392, Note_on_c, 0, 83, 80
2, 55392, Note_on_c, 0, 75, 80
2, 55484, Note_off_c, 0, 83, 100
2, 55484, Note_off_c, 0, 75, 100
2, 55584, Note_on_c, 0, 80, 80
2, 55584, Note_on_c, 0, 74, 80
2, 55772, Note_off_c, 0, 80, 100
2, 55772, Note_off_c, 0, 74, 100
2, 55776, Note_on_c, 0, 81, 80
2, 55776, Note_on_c, 0, 73, 80
2, 55868, Note_off_c, 0, 81, 100
2, 55868, Note_off_c, 0, 73, 100
2, 55968, Note_on_c, 0, 81, 80
2, 56036, Note_off_c, 0, 81, 100
2, 56040, Note_on_c, 0, 78, 80
2, 56060, Note_off_c, 0, 78, 100
2, 56064, Note_on_c, 0, 75, 80
2, 56088, Note_on_c, 0, 73, 80
2, 56108, Note_off_c, 0, 75, 100
2, 56112, Note_on_c, 0, 72, 80
2, 56132, Note_off_c, 0, 73, 100
2, 56136, Note_on_c, 0, 73, 80
2, 56156, Note_off_c, 0, 72, 100
2, 56160, Note_on_c, 0, 76, 80
2, 56180, Note_off_c, 0, 73, 100
2, 56228, Note_off_c, 0, 76, 100
2, 56232, Note_on_c, 0, 75, 80
2, 56252, Note_off_c, 0, 75, 100
2, 56256, Note_on_c, 0, 76, 80
2, 56280, Note_on_c, 0, 75, 80
2, 56300, Note_off_c, 0, 76, 100
2, 56304, Note_on_c, 0, 73, 80
2, 56324, Note_off_c, 0, 75, 100
2, 56328, Note_on_c, 0, 75, 80
2, 56348, Note_off_c, 0, 73, 100
2, 56352, Note_on_c, 0, 78, 80
2, 56372, Note_off_c, 0, 75, 100
2, 56420, Note_off_c, 0, 78, 100
2, 56424, Note_on_c, 0, 76, 80
2, 56444, Note_off_c, 0, 76, 100
2, 56448, Note_on_c, 0, 76, 80
2, 56636, Note_off_c, 0, 76, 100
2, 56832, Note_on_c, 0, 76, 80
2, 56832, Note_on_c, 0, 64, 80
2, 57020, Note_off_c, 0, 76, 100
2, 57020, Note_off_c, 0, 64, 100
2, 57024, Note_on_c, 0, 75, 80
2, 57024, Note_on_c, 0, 63, 80
2, 57116, Note_off_c, 0, 75, 100
2, 57116, Note_off_c, 0, 63, 100
2, 57216, Note_on_c, 0, 74, 80
2, 57216, Note_on_c, 0, 62, 80
2, 57404, Note_off_c, 0, 74, 100
2, 57404, Note_off_c, 0, 62, 100
2, 57408, Note_on_c, 0, 73, 80
2, 57408, Note_on_c, 0, 61, 80
2, 57500, Note_off_c, 0, 73, 100
2, 57500, Note_off_c, 0, 61, 100
2, 57504, Note_on_c, 0, 72, 80
2, 57504, Note_on_c, 0, 84, 80
2, 57596, Note_off_c, 0, 72, 100
2, 57596, Note_off_c, 0, 84, 100
2, 57600, Note_on_c, 0, 85, 80
2, 57600, Note_on_c, 0, 73, 80
2, 57692, Note_off_c, 0, 85, 100
2, 57692, Note_off_c, 0, 73, 100
2, 57696, Note_on_c, 0, 80, 80
2, 57696, Note_on_c, 0, 68, 80
2, 57788, Note_off_c, 0, 80, 100
2, 57788, Note_off_c, 0, 68, 100
2, 57792, Note_on_c, 0, 81, 80
2, 57792, Note_on_c, 0, 69, 80
2, 57884, Note_off_c, 0, 81, 100
2, 57884, Note_off_c, 0, 69, 100
2, 57888, Note_on_c, 0, 78, 80
2, 57888, Note_on_c, 0, 66, 80
2, 57980, Note_off_c, 0, 78, 100
2, 57980, Note_off_c, 0, 66, 100
2, 57984, Note_on_c, 0, 76, 80
2, 57984, Note_on_c, 0, 64, 80
2, 58076, Note_off_c, 0, 76, 100
2, 58076, Note_off_c, 0, 64, 100
2, 58080, Note_on_c, 0, 75, 80
2, 58080, Note_on_c, 0, 63, 80
2, 58172, Note_off_c, 0, 75, 100
2, 58172, Note_off_c, 0, 63, 100
2, 58176, Note_on_c, 0, 73, 80
2, 58176, Note_on_c, 0, 61, 80
2, 58268, Note_off_c, 0, 73, 100
2, 58268, Note_off_c, 0, 61, 100
2, 58272, Note_on_c, 0, 75, 80
2, 58272, Note_on_c, 0, 63, 80
2, 58364, Note_off_c, 0, 75, 100
2, 58364, Note_off_c, 0, 63, 100
2, 58368, Note_on_c, 0, 76, 80
2, 58368, Note_on_c, 0, 64, 80
2, 58460, Note_off_c, 0, 76, 100
2, 58460, Note_off_c, 0, 64, 100
2, 58464, Note_on_c, 0, 71, 80
2, 58556, Note_off_c, 0, 71, 100
2, 58560, Note_on_c, 0, 71, 80
2, 58652, Note_off_c, 0, 71, 100
2, 58656, Note_on_c, 0, 71, 80
2, 58748, Note_off_c, 0, 71, 100
2, 58752, Note_on_c, 0, 71, 80
2, 58844, Note_off_c, 0, 71, 100
2, 58848, Note_on_c, 0, 71, 80
2, 58940, Note_off_c, 0, 71, 100
2, 58944, Note_on_c, 0, 71, 80
2, 59036, Note_off_c, 0, 71, 100
2, 59040, Note_on_c, 0, 71, 80
2, 59132, Note_off_c, 0, 71, 100
2, 59136, Note_on_c, 0, 71, 80
2, 59228, Note_off_c, 0, 71, 100
2, 59232, Note_on_c, 0, 71, 80
2, 59324, Note_off_c, 0, 71, 100
2, 59328, Note_on_c, 0, 71, 80
2, 59420, Note_off_c, 0, 71, 100
2, 59424, Note_on_c, 0, 71, 80
2, 59516, Note_off_c, 0, 71, 100
2, 59520, Note_on_c, 0, 71, 80
2, 59612, Note_off_c, 0, 71, 100
2, 59616, Note_on_c, 0, 71, 80
2, 59708, Note_off_c, 0, 71, 100
2, 59712, Note_on_c, 0, 71, 80
2, 59804, Note_off_c, 0, 71, 100
2, 59808, Note_on_c, 0, 71, 80
2, 59900, Note_off_c, 0, 71, 100
2, 59904, Note_on_c, 0, 71, 80
2, 59996, Note_off_c, 0, 71, 100
2, 60000, Note_on_c, 0, 71, 80
2, 60000, Note_on_c, 0, 83, 80
2, 60092, Note_off_c, 0, 71, 100
2, 60092, Note_off_c, 0, 83, 100
2, 60096, Note_on_c, 0, 71, 80
2, 60096, Note_on_c, 0, 83, 80
2, 60188, Note_off_c, 0, 71, 100
2, 60188, Note_off_c, 0, 83, 100
2, 60192, Note_on_c, 0, 71, 80
2, 60192, Note_on_c, 0, 83, 80
2, 60284, Note_off_c, 0, 71, 100
2, 60284, Note_off_c, 0, 83, 100
2, 60288, Note_on_c, 0, 83, 80
2, 60332, Note_off_c, 0, 83, 100
2, 60336, Note_on_c, 0, 85, 80
2, 60348, Note_on_c, 0, 83, 80
2, 60358, Note_off_c, 0, 85, 100
2, 60360, Note_on_c, 0, 81, 80
2, 60370, Note_off_c, 0, 83, 100
2, 60372, Note_on_c, 0, 83, 80
2, 60382, Note_off_c, 0, 81, 100
2, 60382, Note_off_c, 0, 83, 100
2, 60384, Note_on_c, 0, 88, 115
2, 60528, Note_on_c, 0, 87, 80
2, 60532, Note_off_c, 0, 88, 100
2, 60572, Note_off_c, 0, 87, 100
2, 60576, Note_on_c, 0, 85, 80
2, 60620, Note_off_c, 0, 85, 100
2, 60624, Note_on_c, 0, 84, 80
2, 60668, Note_off_c, 0, 84, 100
2, 60672, Note_on_c, 0, 87, 80
2, 60764, Note_off_c, 0, 87, 100
2, 60768, Note_on_c, 0, 85, 80
2, 61052, Note_off_c, 0, 85, 100
2, 61140, Note_on_c, 0, 87, 100
2, 61152, Note_on_c, 0, 85, 100
2, 61160, Note_off_c, 0, 87, 100
2, 61164, Note_on_c, 0, 87, 100
2, 61172, Note_off_c, 0, 85, 100
2, 61176, Note_on_c, 0, 85, 100
2, 61184, Note_off_c, 0, 87, 100
2, 61188, Note_on_c, 0, 87, 100
2, 61196, Note_off_c, 0, 85, 100
2, 61200, Note_on_c, 0, 85, 100
2, 61208, Note_off_c, 0, 87, 100
2, 61212, Note_on_c, 0, 87, 100
2, 61220, Note_off_c, 0, 85, 100
2, 61224, Note_on_c, 0, 84, 100
2, 61232, Note_off_c, 0, 87, 100
2, 61236, Note_on_c, 0, 85, 100
2, 61244, Note_off_c, 0, 84, 100
2, 61248, Note_on_c, 0, 87, 100
2, 61256, Note_off_c, 0, 85, 100
2, 61340, Note_off_c, 0, 87, 100
2, 61344, Note_on_c, 0, 88, 100
2, 61436, Note_off_c, 0, 88, 100
2, 61440, Note_on_c, 0, 47, 100
2, 61872, Note_on_c, 0, 49, 70
2, 61916, Note_off_c, 0, 47, 100
2, 61920, Note_on_c, 0, 51, 70
2, 61964, Note_off_c, 0, 49, 100
2, 61968, Note_on_c, 0, 52, 70
2, 62012, Note_off_c, 0, 51, 100
2, 62016, Note_on_c, 0, 54, 70
2, 62060, Note_off_c, 0, 52, 100
2, 62064, Note_on_c, 0, 56, 70
2, 62108, Note_off_c, 0, 54, 100
2, 62112, Note_on_c, 0, 57, 70
2, 62156, Note_off_c, 0, 56, 100
2, 62160, Note_on_c, 0, 51, 70
2, 62204, Note_off_c, 0, 57, 100
2, 62208, Note_on_c, 0, 54, 70
2, 62208, Note_on_c, 0, 51, 70
2, 62252, Note_off_c, 0, 51, 100
2, 62588, Note_off_c, 0, 54, 100
2, 62588, Note_off_c, 0, 51, 100
2, 62592, Note_on_c, 0, 52, 70
2, 62972, Note_off_c, 0, 52, 100
2, 63168, Control_c, 0, 7, 0
2, 63360, Note_on_c, 0, 52, 1
2, 63740, Note_off_c, 0, 52, 100
2, 63740, End_track
3, 0, Start_track
3, 0, Title_t, "Left"
3, 0, Control_c, 1, 0, 0
3, 0, Program_c, 1, 0
3, 0, Control_c, 1, 7, 100
3, 0, Control_c, 1, 10, 56
3, 0, Control_c, 1, 91, 127
3, 0, Key_signature, 4, "major"
3, 0, Note_on_c, 1, 52, 80
3, 0, Note_on_c, 1, 40, 80
3, 380, Note_off_c, 1, 52, 100
3, 380, Note_off_c, 1, 40, 100
3, 384, Note_on_c, 1, 51, 80
3, 384, Note_on_c, 1, 45, 80
3, 572, Note_off_c, 1, 51, 100
3, 572, Note_off_c, 1, 45, 100
3, 768, Note_on_c, 1, 52, 80
3, 768, Note_on_c, 1, 44, 80
3, 1148, Note_off_c, 1, 52, 100
3, 1148, Note_off_c, 1, 44, 100
3, 1152, Note_on_c, 1, 51, 80
3, 1152, Note_on_c, 1, 42, 80
3, 1340, Note_off_c, 1, 51, 100
3, 1340, Note_off_c, 1, 42, 100
3, 1536, Note_on_c, 1, 56, 80
3, 1628, Note_off_c, 1, 56, 100
3, 1632, Note_on_c, 1, 51, 80
3, 1724, Note_off_c, 1, 51, 100
3, 1728, Note_on_c, 1, 52, 80
3, 1820, Note_off_c, 1, 52, 100
3, 1824, Note_on_c, 1, 57, 80
3, 1824, Note_on_c, 1, 45, 80
3, 1916, Note_off_c, 1, 57, 100
3, 1916, Note_off_c, 1, 45, 100
3, 1920, Note_on_c, 1, 59, 80
3, 1920, Note_on_c, 1, 47, 80
3, 2108, Note_off_c, 1, 59, 100
3, 2108, Note_off_c, 1, 47, 100
3, 2208, Note_on_c, 1, 54, 80
3, 2208, Note_on_c, 1, 45, 80
3, 2300, Note_off_c, 1, 54, 100
3, 2300, Note_off_c, 1, 45, 100
3, 2304, Note_on_c, 1, 56, 80
3, 2304, Note_on_c, 1, 44, 80
3, 2396, Note_off_c, 1, 56, 100
3, 2396, Note_off_c, 1, 44, 100
3, 2400, Note_on_c, 1, 51, 80
3, 2400, Note_on_c, 1, 42, 80
3, 2492, Note_off_c, 1, 51, 100
3, 2492, Note_off_c, 1, 42, 100
3, 2496, Note_on_c, 1, 52, 80
3, 2496, Note_on_c, 1, 40, 80
3, 2588, Note_off_c, 1, 52, 100
3, 2588, Note_off_c, 1, 40, 100
3, 2592, Note_on_c, 1, 57, 80
3, 2592, Note_on_c, 1, 45, 80
3, 2636, Note_off_c, 1, 57, 100
3, 2636, Note_off_c, 1, 45, 100
3, 2640, Note_on_c, 1, 54, 80
3, 2684, Note_off_c, 1, 54, 100
3, 2688, Note_on_c, 1, 51, 80
3, 2688, Note_on_c, 1, 47, 80
3, 2876, Note_off_c, 1, 51, 100
3, 2876, Note_off_c, 1, 47, 100
3, 3072, Note_on_c, 1, 54, 80
3, 3072, Note_on_c, 1, 42, 80
3, 3452, Note_off_c, 1, 54, 100
3, 3452, Note_off_c, 1, 42, 100
3, 3456, Note_on_c, 1, 53, 80
3, 3456, Note_on_c, 1, 47, 80
3, 3644, Note_off_c, 1, 53, 100
3, 3644, Note_off_c, 1, 47, 100
3, 3840, Note_on_c, 1, 57, 80
3, 3840, Note_on_c, 1, 49, 80
3, 3840, Note_on_c, 1, 45, 80
3, 4220, Note_off_c, 1, 57, 100
3, 4220, Note_off_c, 1, 49, 100
3, 4220, Note_off_c, 1, 45, 100
3, 4224, Note_on_c, 1, 56, 80
3, 4224, Note_on_c, 1, 49, 80
3, 4224, Note_on_c, 1, 44, 80
3, 4412, Note_off_c, 1, 56, 100
3, 4412, Note_off_c, 1, 49, 100
3, 4412, Note_off_c, 1, 44, 100
3, 4512, Note_on_c, 1, 61, 80
3, 4512, Note_on_c, 1, 54, 80
3, 4700, Note_off_c, 1, 54, 100
3, 4700, Note_off_c, 1, 61, 100
3, 4704, Note_on_c, 1, 59, 80
3, 4704, Note_on_c, 1, 47, 80
3, 4796, Note_off_c, 1, 59, 100
3, 4796, Note_off_c, 1, 47, 100
3, 4896, Note_on_c, 1, 59, 80
3, 4896, Note_on_c, 1, 52, 80
3, 5084, Note_off_c, 1, 59, 100
3, 5084, Note_off_c, 1, 52, 100
3, 5088, Note_on_c, 1, 57, 80
3, 5088, Note_on_c, 1, 45, 80
3, 5180, Note_off_c, 1, 57, 100
3, 5180, Note_off_c, 1, 45, 100
3, 5280, Note_on_c, 1, 57, 80
3, 5280, Note_on_c, 1, 45, 80
3, 5372, Note_off_c, 1, 57, 100
3, 5372, Note_off_c, 1, 45, 100
3, 5376, Note_on_c, 1, 47, 80
3, 5756, Note_off_c, 1, 47, 100
3, 5760, Note_on_c, 1, 52, 80
3, 5760, Note_on_c, 1, 40, 80
3, 5948, Note_off_c, 1, 52, 100
3, 5948, Note_off_c, 1, 40, 100
3, 6048, Note_on_c, 1, 58, 80
3, 6048, Note_on_c, 1, 52, 80
3, 6236, Note_off_c, 1, 52, 100
3, 6236, Note_off_c, 1, 58, 100
3, 6240, Note_on_c, 1, 59, 80
3, 6240, Note_on_c, 1, 51, 80
3, 6332, Note_off_c, 1, 59, 100
3, 6332, Note_off_c, 1, 51, 100
3, 6432, Note_on_c, 1, 56, 80
3, 6432, Note_on_c, 1, 50, 80
3, 6620, Note_off_c, 1, 56, 100
3, 6620, Note_off_c, 1, 50, 100
3, 6624, Note_on_c, 1, 57, 80
3, 6624, Note_on_c, 1, 49, 80
3, 6716, Note_off_c, 1, 57, 100
3, 6716, Note_off_c, 1, 49, 100
3, 7296, Note_on_c, 1, 47, 80
3, 7296, Note_on_c, 1, 35, 80
3, 7676, Note_off_c, 1, 47, 100
3, 7676, Note_off_c, 1, 35, 100
3, 7680, Key_signature, 1, "minor"
3, 7680, Note_on_c, 1, 52, 80
3, 7680, Note_on_c, 1, 40, 80
3, 8060, Note_off_c, 1, 52, 100
3, 8060, Note_off_c, 1, 40, 100
3, 8064, Note_on_c, 1, 55, 80
3, 8064, Note_on_c, 1, 43, 80
3, 8444, Note_off_c, 1, 55, 100
3, 8444, Note_off_c, 1, 43, 100
3, 8448, Note_on_c, 1, 54, 80
3, 8448, Note_on_c, 1, 42, 80
3, 8828, Note_off_c, 1, 54, 100
3, 8828, Note_off_c, 1, 42, 100
3, 8832, Note_on_c, 1, 45, 80
3, 8832, Note_on_c, 1, 57, 80
3, 9212, Note_off_c, 1, 45, 100
3, 9212, Note_off_c, 1, 57, 100
3, 9216, Note_on_c, 1, 55, 80
3, 9216, Note_on_c, 1, 43, 80
3, 9404, Note_off_c, 1, 55, 100
3, 9404, Note_off_c, 1, 43, 100
3, 9504, Note_on_c, 1, 83, 80
3, 9600, Note_on_c, 1, 84, 80
3, 9692, Note_off_c, 1, 83, 100
3, 9696, Note_on_c, 1, 81, 80
3, 9788, Note_off_c, 1, 84, 100
3, 9792, Note_on_c, 1, 79, 80
3, 9884, Note_off_c, 1, 81, 100
3, 9888, Note_on_c, 1, 78, 80
3, 9980, Note_off_c, 1, 79, 100
3, 9980, Note_off_c, 1, 78, 100
3, 9984, Note_on_c, 1, 55, 80
3, 9984, Note_on_c, 1, 43, 80
3, 10364, Note_off_c, 1, 55, 100
3, 10364, Note_off_c, 1, 43, 100
3, 10368, Note_on_c, 1, 59, 80
3, 10368, Note_on_c, 1, 47, 80
3, 10748, Note_off_c, 1, 59, 100
3, 10748, Note_off_c, 1, 47, 100
3, 10752, Note_on_c, 1, 57, 80
3, 10752, Note_on_c, 1, 45, 80
3, 11132, Note_off_c, 1, 57, 100
3, 11132, Note_off_c, 1, 45, 100
3, 11136, Note_on_c, 1, 48, 80
3, 11136, Note_on_c, 1, 60, 80
3, 11516, Note_off_c, 1, 48, 100
3, 11516, Note_off_c, 1, 60, 100
3, 11520, Note_on_c, 1, 47, 80
3, 11520, Note_on_c, 1, 59, 80
3, 11708, Note_off_c, 1, 47, 100
3, 11708, Note_off_c, 1, 59, 100
3, 11808, Note_on_c, 1, 86, 80
3, 11904, Note_on_c, 1, 84, 80
3, 11996, Note_off_c, 1, 86, 100
3, 12000, Note_on_c, 1, 83, 80
3, 12092, Note_off_c, 1, 84, 100
3, 12096, Note_on_c, 1, 81, 80
3, 12188, Note_off_c, 1, 83, 100
3, 12192, Note_on_c, 1, 79, 80
3, 12284, Note_off_c, 1, 81, 100
3, 12284, Note_off_c, 1, 79, 100
3, 12288, Note_on_c, 1, 60, 80
3, 12288, Note_on_c, 1, 48, 80
3, 12476, Note_off_c, 1, 60, 100
3, 12476, Note_off_c, 1, 48, 100
3, 12576, Note_on_c, 1, 88, 80
3, 12672, Note_on_c, 1, 86, 80
3, 12764, Note_off_c, 1, 88, 100
3, 12768, Note_on_c, 1, 84, 80
3, 12860, Note_off_c, 1, 86, 100
3, 12864, Note_on_c, 1, 83, 80
3, 12956, Note_off_c, 1, 84, 100
3, 12960, Note_on_c, 1, 81, 80
3, 13052, Note_off_c, 1, 83, 100
3, 13052, Note_off_c, 1, 81, 100
3, 13056, Note_on_c, 1, 50, 80
3, 13436, Note_off_c, 1, 50, 100
3, 13440, Note_on_c, 1, 50, 80
3, 13440, Note_on_c, 1, 38, 80
3, 13820, Note_off_c, 1, 50, 100
3, 13820, Note_off_c, 1, 38, 100
3, 13824, Note_on_c, 1, 43, 80
3, 13916, Note_off_c, 1, 43, 100
3, 13920, Note_on_c, 1, 73, 80
3, 14108, Note_off_c, 1, 73, 100
3, 14112, Note_on_c, 1, 74, 80
3, 14204, Note_off_c, 1, 74, 100
3, 14208, Note_on_c, 1, 47, 80
3, 14300, Note_off_c, 1, 47, 100
3, 14304, Note_on_c, 1, 78, 80
3, 14492, Note_off_c, 1, 78, 100
3, 14496, Note_on_c, 1, 79, 80
3, 14588, Note_off_c, 1, 79, 100
3, 14592, Note_on_c, 1, 48, 80
3, 14684, Note_off_c, 1, 48, 100
3, 14688, Note_on_c, 1, 75, 80
3, 14876, Note_off_c, 1, 75, 100
3, 14880, Note_on_c, 1, 76, 80
3, 14972, Note_off_c, 1, 76, 100
3, 14976, Note_on_c, 1, 49, 80
3, 15068, Note_off_c, 1, 49, 100
3, 15072, Note_on_c, 1, 87, 101
3, 15260, Note_off_c, 1, 87, 100
3, 15264, Note_on_c, 1, 88, 80
3, 15356, Note_off_c, 1, 88, 100
3, 15360, Note_on_c, 1, 50, 80
3, 15452, Note_off_c, 1, 50, 100
3, 15456, Note_on_c, 1, 73, 101
3, 15644, Note_off_c, 1, 73, 100
3, 15648, Note_on_c, 1, 74, 80
3, 15740, Note_off_c, 1, 74, 100
3, 15744, Note_on_c, 1, 50, 80
3, 15836, Note_off_c, 1, 50, 100
3, 15840, Note_on_c, 1, 63, 103
3, 16028, Note_off_c, 1, 63, 100
3, 16032, Note_on_c, 1, 62, 80
3, 16124, Note_off_c, 1, 62, 100
3, 16128, Note_on_c, 1, 47, 80
3, 16220, Note_off_c, 1, 47, 100
3, 16224, Note_on_c, 1, 73, 102
3, 16412, Note_off_c, 1, 73, 100
3, 16416, Note_on_c, 1, 74, 80
3, 16508, Note_off_c, 1, 74, 100
3, 16512, Note_on_c, 1, 47, 80
3, 16604, Note_off_c, 1, 47, 100
3, 16608, Note_on_c, 1, 79, 102
3, 16796, Note_off_c, 1, 79, 100
3, 16800, Note_on_c, 1, 74, 80
3, 16892, Note_off_c, 1, 74, 100
3, 16896, Note_on_c, 1, 48, 80
3, 16988, Note_off_c, 1, 48, 100
3, 16992, Note_on_c, 1, 75, 100
3, 17180, Note_off_c, 1, 75, 100
3, 17184, Note_on_c, 1, 76, 80
3, 17276, Note_off_c, 1, 76, 100
3, 17280, Note_on_c, 1, 49, 80
3, 17372, Note_off_c, 1, 49, 100
3, 17376, Note_on_c, 1, 79, 104
3, 17564, Note_off_c, 1, 79, 100
3, 17568, Note_on_c, 1, 76, 80
3, 17660, Note_off_c, 1, 76, 100
3, 17664, Note_on_c, 1, 50, 80
3, 17756, Note_off_c, 1, 50, 100
3, 17760, Note_on_c, 1, 61, 104
3, 17948, Note_off_c, 1, 61, 100
3, 17952, Note_on_c, 1, 62, 80
3, 18044, Note_off_c, 1, 62, 100
3, 18048, Note_on_c, 1, 50, 80
3, 18140, Note_off_c, 1, 50, 100
3, 18144, Note_on_c, 1, 63, 102
3, 18332, Note_off_c, 1, 63, 100
3, 18336, Note_on_c, 1, 62, 80
3, 18428, Note_off_c, 1, 62, 100
3, 18432, Note_on_c, 1, 55, 80
3, 18432, Note_on_c, 1, 43, 80
3, 18812, Note_off_c, 1, 55, 100
3, 18812, Note_off_c, 1, 43, 100
3, 18816, Note_on_c, 1, 54, 80
3, 18816, Note_on_c, 1, 42, 80
3, 19196, Note_off_c, 1, 54, 100
3, 19196, Note_off_c, 1, 42, 100
3, 19200, Note_on_c, 1, 40, 80
3, 19200, Note_on_c, 1, 28, 80
3, 19580, Note_off_c, 1, 40, 100
3, 19580, Note_off_c, 1, 28, 100
3, 19584, Note_on_c, 1, 43, 80
3, 19584, Note_on_c, 1, 31, 80
3, 19964, Note_off_c, 1, 43, 100
3, 19964, Note_off_c, 1, 31, 100
3, 19968, Note_on_c, 1, 42, 80
3, 19968, Note_on_c, 1, 30, 80
3, 20348, Note_off_c, 1, 42, 100
3, 20348, Note_off_c, 1, 30, 100
3, 20352, Note_on_c, 1, 45, 80
3, 20352, Note_on_c, 1, 33, 80
3, 20732, Note_off_c, 1, 45, 100
3, 20732, Note_off_c, 1, 33, 100
3, 20736, Note_on_c, 1, 44, 80
3, 20736, Note_on_c, 1, 32, 80
3, 20924, Note_off_c, 1, 44, 100
3, 20924, Note_off_c, 1, 32, 100
3, 21024, Note_on_c, 1, 77, 80
3, 21120, Note_on_c, 1, 76, 80
3, 21212, Note_off_c, 1, 77, 100
3, 21216, Note_on_c, 1, 74, 80
3, 21308, Note_off_c, 1, 76, 100
3, 21312, Note_on_c, 1, 72, 80
3, 21404, Note_off_c, 1, 74, 100
3, 21408, Note_on_c, 1, 71, 80
3, 21500, Note_off_c, 1, 72, 100
3, 21500, Note_off_c, 1, 71, 100
3, 21504, Note_on_c, 1, 45, 120
3, 21504, Note_on_c, 1, 33, 120
3, 21884, Note_off_c, 1, 45, 100
3, 21884, Note_off_c, 1, 33, 100
3, 21888, Note_on_c, 1, 48, 120
3, 21888, Note_on_c, 1, 36, 120
3, 22268, Note_off_c, 1, 48, 100
3, 22268, Note_off_c, 1, 36, 100
3, 22272, Note_on_c, 1, 47, 120
3, 22272, Note_on_c, 1, 35, 120
3, 22652, Note_off_c, 1, 47, 100
3, 22652, Note_off_c, 1, 35, 100
3, 22656, Note_on_c, 1, 38, 120
3, 22656, Note_on_c, 1, 50, 120
3, 23036, Note_off_c, 1, 38, 100
3, 23036, Note_off_c, 1, 50, 100
3, 23040, Note_on_c, 1, 49, 80
3, 23040, Note_on_c, 1, 37, 80
3, 23228, Note_off_c, 1, 49, 100
3, 23228, Note_off_c, 1, 37, 100
3, 23328, Note_on_c, 1, 79, 80
3, 23424, Note_on_c, 1, 78, 80
3, 23516, Note_off_c, 1, 79, 100
3, 23520, Note_on_c, 1, 76, 80
3, 23612, Note_off_c, 1, 78, 100
3, 23616, Note_on_c, 1, 74, 80
3, 23708, Note_off_c, 1, 76, 100
3, 23712, Note_on_c, 1, 73, 80
3, 23804, Note_off_c, 1, 74, 100
3, 23804, Note_off_c, 1, 73, 100
3, 23808, Note_on_c, 1, 50, 120
3, 23808, Note_on_c, 1, 38, 120
3, 24188, Note_off_c, 1, 50, 100
3, 24188, Note_off_c, 1, 38, 100
3, 24192, Note_on_c, 1, 42, 120
3, 24192, Note_on_c, 1, 54, 120
3, 24572, Note_off_c, 1, 42, 100
3, 24572, Note_off_c, 1, 54, 100
3, 24576, Note_on_c, 1, 52, 120
3, 24576, Note_on_c, 1, 40, 120
3, 24956, Note_off_c, 1, 52, 100
3, 24956, Note_off_c, 1, 40, 100
3, 24960, Note_on_c, 1, 55, 120
3, 24960, Note_on_c, 1, 43, 120
3, 25340, Note_off_c, 1, 55, 100
3, 25340, Note_off_c, 1, 43, 100
3, 25344, Note_on_c, 1, 54, 80
3, 25344, Note_on_c, 1, 42, 80
3, 25532, Note_off_c, 1, 54, 100
3, 25532, Note_off_c, 1, 42, 100
3, 25632, Note_on_c, 1, 84, 80
3, 25728, Note_on_c, 1, 83, 80
3, 25820, Note_off_c, 1, 84, 100
3, 25824, Note_on_c, 1, 81, 80
3, 25916, Note_off_c, 1, 83, 100
3, 25920, Note_on_c, 1, 79, 80
3, 26012, Note_off_c, 1, 81, 100
3, 26016, Note_on_c, 1, 78, 80
3, 26108, Note_off_c, 1, 79, 100
3, 26108, Note_off_c, 1, 78, 100
3, 26112, Note_on_c, 1, 76, 80
3, 26300, Note_off_c, 1, 76, 100
3, 26400, Note_on_c, 1, 59, 110
3, 26400, Note_on_c, 1, 47, 110
3, 26496, Note_on_c, 1, 57, 110
3, 26496, Note_on_c, 1, 45, 110
3, 26588, Note_off_c, 1, 59, 100
3, 26588, Note_off_c, 1, 47, 100
3, 26592, Note_on_c, 1, 55, 110
3, 26592, Note_on_c, 1, 43, 110
3, 26684, Note_off_c, 1, 57, 100
3, 26684, Note_off_c, 1, 45, 100
3, 26688, Note_on_c, 1, 54, 110
3, 26688, Note_on_c, 1, 42, 110
3, 26780, Note_off_c, 1, 55, 100
3, 26780, Note_off_c, 1, 43, 100
3, 26784, Note_on_c, 1, 52, 110
3, 26784, Note_on_c, 1, 40, 110
3, 26876, Note_off_c, 1, 54, 100
3, 26876, Note_off_c, 1, 42, 100
3, 26876, Note_off_c, 1, 52, 100
3, 26876, Note_off_c, 1, 40, 100
3, 26880, Note_on_c, 1, 46, 110
3, 26880, Note_on_c, 1, 34, 110
3, 27068, Note_off_c, 1, 46, 100
3, 27068, Note_off_c, 1, 34, 100
3, 27168, Note_on_c, 1, 79, 100
3, 27264, Note_on_c, 1, 78, 100
3, 27356, Note_off_c, 1, 79, 100
3, 27360, Note_on_c, 1, 76, 100
3, 27452, Note_off_c, 1, 78, 100
3, 27456, Note_on_c, 1, 75, 100
3, 27548, Note_off_c, 1, 76, 100
3, 27552, Note_on_c, 1, 76, 100
3, 27644, Note_off_c, 1, 75, 100
3, 27644, Note_off_c, 1, 76, 100
3, 27648, Note_on_c, 1, 47, 80
3, 27740, Note_off_c, 1, 47, 100
3, 27744, Note_on_c, 1, 76, 80
3, 27932, Note_off_c, 1, 76, 100
3, 27936, Note_on_c, 1, 75, 80
3, 28028, Note_off_c, 1, 75, 100
3, 28032, Note_on_c, 1, 59, 80
3, 28124, Note_off_c, 1, 59, 100
3, 28128, Note_on_c, 1, 84, 80
3, 28316, Note_off_c, 1, 84, 100
3, 28320, Note_on_c, 1, 83, 80
3, 28412, Note_off_c, 1, 83, 100
3, 28416, Note_on_c, 1, 59, 80
3, 28508, Note_off_c, 1, 59, 100
3, 28512, Note_on_c, 1, 81, 80
3, 28700, Note_off_c, 1, 81, 100
3, 28704, Note_on_c, 1, 79, 80
3, 28796, Note_off_c, 1, 79, 100
3, 28800, Note_on_c, 1, 59, 80
3, 28892, Note_off_c, 1, 59, 100
3, 28896, Note_on_c, 1, 78, 80
3, 29084, Note_off_c, 1, 78, 100
3, 29088, Note_on_c, 1, 76, 80
3, 29180, Note_off_c, 1, 76, 100
3, 29184, Note_on_c, 1, 47, 80
3, 29276, Note_off_c, 1, 47, 100
3, 29280, Note_on_c, 1, 60, 80
3, 29468, Note_off_c, 1, 60, 100
3, 29472, Note_on_c, 1, 59, 80
3, 29564, Note_off_c, 1, 59, 100
3, 29568, Note_on_c, 1, 47, 80
3, 29660, Note_off_c, 1, 47, 100
3, 29664, Note_on_c, 1, 76, 80
3, 29852, Note_off_c, 1, 76, 100
3, 29856, Note_on_c, 1, 75, 80
3, 29948, Note_off_c, 1, 75, 100
3, 29952, Note_on_c, 1, 47, 80
3, 30044, Note_off_c, 1, 47, 100
3, 30048, Note_on_c, 1, 78, 80
3, 30236, Note_off_c, 1, 78, 100
3, 30240, Note_on_c, 1, 76, 80
3, 30332, Note_off_c, 1, 76, 100
3, 30336, Note_on_c, 1, 47, 80
3, 30428, Note_off_c, 1, 47, 100
3, 30432, Note_on_c, 1, 79, 80
3, 30620, Note_off_c, 1, 79, 100
3, 30624, Note_on_c, 1, 70, 80
3, 30716, Note_off_c, 1, 70, 100
3, 30720, Note_on_c, 1, 47, 81
3, 30812, Note_off_c, 1, 47, 100
3, 30816, Note_on_c, 1, 59, 83
3, 31004, Note_off_c, 1, 59, 100
3, 31008, Note_on_c, 1, 54, 88
3, 31100, Note_off_c, 1, 54, 100
3, 31104, Note_on_c, 1, 51, 90
3, 31196, Note_off_c, 1, 51, 100
3, 31200, Note_on_c, 1, 47, 92
3, 31388, Note_off_c, 1, 47, 100
3, 31392, Note_on_c, 1, 42, 97
3, 31484, Note_off_c, 1, 42, 100
3, 31488, Note_on_c, 1, 39, 98
3, 31580, Note_off_c, 1, 39, 100
3, 31584, Note_on_c, 1, 35, 93
3, 31772, Note_off_c, 1, 35, 100
3, 31776, Note_on_c, 1, 39, 83
3, 31868, Note_off_c, 1, 39, 100
3, 31872, Note_on_c, 1, 42, 80
3, 31964, Note_off_c, 1, 42, 100
3, 31968, Note_on_c, 1, 47, 80
3, 32156, Note_off_c, 1, 47, 100
3, 32160, Note_on_c, 1, 51, 80
3, 32252, Note_off_c, 1, 51, 100
3, 32256, Key_signature, 4, "major"
3, 32256, Note_on_c, 1, 52, 70
3, 32256, Note_on_c, 1, 40, 70
3, 32636, Note_off_c, 1, 52, 100
3, 32636, Note_off_c, 1, 40, 100
3, 32640, Note_on_c, 1, 51, 70
3, 32640, Note_on_c, 1, 45, 70
3, 32828, Note_off_c, 1, 51, 100
3, 32828, Note_off_c, 1, 45, 100
3, 33024, Note_on_c, 1, 52, 70
3, 33024, Note_on_c, 1, 44, 70
3, 33404, Note_off_c, 1, 52, 100
3, 33404, Note_off_c, 1, 44, 100
3, 33408, Note_on_c, 1, 51, 70
3, 33408, Note_on_c, 1, 42, 70
3, 33596, Note_off_c, 1, 51, 100
3, 33596, Note_off_c, 1, 42, 100
3, 33792, Note_on_c, 1, 56, 70
3, 33884, Note_off_c, 1, 56, 100
3, 33888, Note_on_c, 1, 51, 70
3, 33980, Note_off_c, 1, 51, 100
3, 33984, Note_on_c, 1, 52, 70
3, 34076, Note_off_c, 1, 52, 100
3, 34080, Note_on_c, 1, 57, 70
3, 34080, Note_on_c, 1, 45, 70
3, 34172, Note_off_c, 1, 57, 100
3, 34172, Note_off_c, 1, 45, 100
3, 34176, Note_on_c, 1, 59, 70
3, 34176, Note_on_c, 1, 47, 70
3, 34364, Note_off_c, 1, 59, 100
3, 34364, Note_off_c, 1, 47, 100
3, 34464, Note_on_c, 1, 54, 70
3, 34464, Note_on_c, 1, 45, 70
3, 34556, Note_off_c, 1, 54, 100
3, 34556, Note_off_c, 1, 45, 100
3, 34560, Note_on_c, 1, 56, 70
3, 34560, Note_on_c, 1, 44, 70
3, 34652, Note_off_c, 1, 56, 100
3, 34652, Note_off_c, 1, 44, 100
3, 34656, Note_on_c, 1, 51, 70
3, 34656, Note_on_c, 1, 42, 70
3, 34748, Note_off_c, 1, 51, 100
3, 34748, Note_off_c, 1, 42, 100
3, 34752, Note_on_c, 1, 52, 70
3, 34752, Note_on_c, 1, 40, 70
3, 34844, Note_off_c, 1, 52, 100
3, 34844, Note_off_c, 1, 40, 100
3, 34848, Note_on_c, 1, 57, 70
3, 34848, Note_on_c, 1, 45, 70
3, 34892, Note_off_c, 1, 57, 100
3, 34892, Note_off_c, 1, 45, 100
3, 34896, Note_on_c, 1, 54, 70
3, 34940, Note_off_c, 1, 54, 100
3, 34944, Note_on_c, 1, 51, 70
3, 34944, Note_on_c, 1, 47, 70
3, 35132, Note_off_c, 1, 51, 100
3, 35132, Note_off_c, 1, 47, 100
3, 35328, Note_on_c, 1, 54, 70
3, 35328, Note_on_c, 1, 42, 70
3, 35708, Note_off_c, 1, 54, 100
3, 35708, Note_off_c, 1, 42, 100
3, 35712, Note_on_c, 1, 53, 70
3, 35712, Note_on_c, 1, 47, 70
3, 35900, Note_off_c, 1, 53, 100
3, 35900, Note_off_c, 1, 47, 100
3, 36096, Note_on_c, 1, 57, 70
3, 36096, Note_on_c, 1, 49, 70
3, 36096, Note_on_c, 1, 45, 70
3, 36476, Note_off_c, 1, 57, 100
3, 36476, Note_off_c, 1, 49, 100
3, 36476, Note_off_c, 1, 45, 100
3, 36480, Note_on_c, 1, 56, 70
3, 36480, Note_on_c, 1, 49, 70
3, 36480, Note_on_c, 1, 44, 70
3, 36668, Note_off_c, 1, 56, 100
3, 36668, Note_off_c, 1, 49, 100
3, 36668, Note_off_c, 1, 44, 100
3, 36768, Note_on_c, 1, 61, 70
3, 36768, Note_on_c, 1, 54, 70
3, 36956, Note_off_c, 1, 54, 100
3, 36956, Note_off_c, 1, 61, 100
3, 36960, Note_on_c, 1, 59, 70
3, 36960, Note_on_c, 1, 47, 70
3, 37052, Note_off_c, 1, 59, 100
3, 37052, Note_off_c, 1, 47, 100
3, 37152, Note_on_c, 1, 59, 70
3, 37152, Note_on_c, 1, 52, 70
3, 37340, Note_off_c, 1, 59, 100
3, 37340, Note_off_c, 1, 52, 100
3, 37344, Note_on_c, 1, 57, 70
3, 37344, Note_on_c, 1, 45, 70
3, 37436, Note_off_c, 1, 57, 100
3, 37436, Note_off_c, 1, 45, 100
3, 37536, Note_on_c, 1, 57, 70
3, 37536, Note_on_c, 1, 45, 70
3, 37628, Note_off_c, 1, 57, 100
3, 37628, Note_off_c, 1, 45, 100
3, 37632, Note_on_c, 1, 47, 70
3, 38012, Note_off_c, 1, 47, 100
3, 38016, Note_on_c, 1, 52, 70
3, 38016, Note_on_c, 1, 40, 70
3, 38204, Note_off_c, 1, 52, 100
3, 38204, Note_off_c, 1, 40, 100
3, 38304, Note_on_c, 1, 58, 70
3, 38304, Note_on_c, 1, 52, 70
3, 38492, Note_off_c, 1, 52, 100
3, 38492, Note_off_c, 1, 58, 100
3, 38496, Note_on_c, 1, 59, 70
3, 38496, Note_on_c, 1, 51, 70
3, 38588, Note_off_c, 1, 59, 100
3, 38588, Note_off_c, 1, 51, 100
3, 38688, Note_on_c, 1, 56, 70
3, 38688, Note_on_c, 1, 50, 70
3, 38876, Note_off_c, 1, 56, 100
3, 38876, Note_off_c, 1, 50, 100
3, 38880, Note_on_c, 1, 57, 70
3, 38880, Note_on_c, 1, 49, 70
3, 38972, Note_off_c, 1, 57, 100
3, 38972, Note_off_c, 1, 49, 100
3, 39552, Note_on_c, 1, 47, 70
3, 39552, Note_on_c, 1, 35, 70
3, 39932, Note_off_c, 1, 47, 100
3, 39932, Note_off_c, 1, 35, 100
3, 39936, Note_on_c, 1, 48, 110
3, 39936, Note_on_c, 1, 36, 110
3, 40076, Note_off_c, 1, 48, 100
3, 40076, Note_off_c, 1, 36, 100
3, 40080, Note_on_c, 1, 47, 110
3, 40080, Note_on_c, 1, 35, 110
3, 40124, Note_off_c, 1, 47, 100
3, 40124, Note_off_c, 1, 35, 100
3, 40128, Note_on_c, 1, 48, 110
3, 40128, Note_on_c, 1, 36, 110
3, 40220, Note_off_c, 1, 48, 100
3, 40220, Note_off_c, 1, 36, 100
3, 40224, Note_on_c, 1, 50, 110
3, 40224, Note_on_c, 1, 38, 110
3, 40316, Note_off_c, 1, 50, 100
3, 40316, Note_off_c, 1, 38, 100
3, 40320, Note_on_c, 1, 47, 110
3, 40320, Note_on_c, 1, 35, 110
3, 40508, Note_off_c, 1, 47, 100
3, 40508, Note_off_c, 1, 35, 100
3, 40704, Note_on_c, 1, 50, 110
3, 40704, Note_on_c, 1, 38, 110
3, 40844, Note_off_c, 1, 50, 100
3, 40844, Note_off_c, 1, 38, 100
3, 40848, Note_on_c, 1, 48, 110
3, 40848, Note_on_c, 1, 36, 110
3, 40892, Note_off_c, 1, 48, 100
3, 40892, Note_off_c, 1, 36, 100
3, 40896, Note_on_c, 1, 50, 110
3, 40896, Note_on_c, 1, 38, 110
3, 40988, Note_off_c, 1, 50, 100
3, 40988, Note_off_c, 1, 38, 100
3, 40992, Note_on_c, 1, 52, 110
3, 40992, Note_on_c, 1, 40, 110
3, 41084, Note_off_c, 1, 52, 100
3, 41084, Note_off_c, 1, 40, 100
3, 41088, Note_on_c, 1, 48, 110
3, 41088, Note_on_c, 1, 36, 110
3, 41276, Note_off_c, 1, 48, 100
3, 41276, Note_off_c, 1, 36, 100
3, 41472, Note_on_c, 1, 48, 80
3, 41472, Note_on_c, 1, 36, 80
3, 41852, Note_off_c, 1, 48, 100
3, 41852, Note_off_c, 1, 36, 100
3, 41856, Note_on_c, 1, 40, 80
3, 41856, Note_on_c, 1, 52, 80
3, 42236, Note_off_c, 1, 40, 100
3, 42236, Note_off_c, 1, 52, 100
3, 42240, Note_on_c, 1, 50, 80
3, 42240, Note_on_c, 1, 38, 80
3, 42620, Note_off_c, 1, 50, 100
3, 42620, Note_off_c, 1, 38, 100
3, 42624, Note_on_c, 1, 44, 80
3, 42624, Note_on_c, 1, 56, 80
3, 43004, Note_off_c, 1, 44, 100
3, 43004, Note_off_c, 1, 56, 100
3, 43008, Note_on_c, 1, 57, 80
3, 43008, Note_on_c, 1, 45, 80
3, 43388, Note_off_c, 1, 57, 100
3, 43388, Note_off_c, 1, 45, 100
3, 43392, Note_on_c, 1, 58, 103
3, 43392, Note_on_c, 1, 46, 102
3, 43772, Note_off_c, 1, 58, 100
3, 43772, Note_off_c, 1, 46, 100
3, 43776, Note_on_c, 1, 59, 80
3, 43776, Note_on_c, 1, 47, 80
3, 44156, Note_off_c, 1, 59, 100
3, 44156, Note_off_c, 1, 47, 100
3, 44160, Note_on_c, 1, 47, 80
3, 44160, Note_on_c, 1, 35, 80
3, 44540, Note_off_c, 1, 47, 100
3, 44540, Note_off_c, 1, 35, 100
3, 44544, Note_on_c, 1, 40, 80
3, 44636, Note_off_c, 1, 40, 100
3, 44640, Note_on_c, 1, 75, 80
3, 44828, Note_off_c, 1, 75, 100
3, 44832, Note_on_c, 1, 76, 80
3, 44924, Note_off_c, 1, 76, 100
3, 44928, Note_on_c, 1, 50, 80
3, 45020, Note_off_c, 1, 50, 100
3, 45024, Note_on_c, 1, 78, 80
3, 45212, Note_off_c, 1, 78, 100
3, 45216, Note_on_c, 1, 76, 80
3, 45308, Note_off_c, 1, 76, 100
3, 45312, Note_on_c, 1, 49, 80
3, 45404, Note_off_c, 1, 49, 100
3, 45408, Note_on_c, 1, 84, 80
3, 45596, Note_off_c, 1, 84, 100
3, 45600, Note_on_c, 1, 85, 80
3, 45692, Note_off_c, 1, 85, 100
3, 45696, Note_on_c, 1, 49, 80
3, 45788, Note_off_c, 1, 49, 100
3, 45792, Note_on_c, 1, 87, 80
3, 45980, Note_off_c, 1, 87, 100
3, 45984, Note_on_c, 1, 88, 80
3, 46076, Note_off_c, 1, 88, 100
3, 46080, Note_on_c, 1, 47, 80
3, 46172, Note_off_c, 1, 47, 100
3, 46176, Note_on_c, 1, 70, 80
3, 46364, Note_off_c, 1, 70, 100
3, 46368, Note_on_c, 1, 71, 80
3, 46460, Note_off_c, 1, 71, 100
3, 46464, Note_on_c, 1, 47, 80
3, 46556, Note_off_c, 1, 47, 100
3, 46560, Note_on_c, 1, 60, 103
3, 46748, Note_off_c, 1, 60, 100
3, 46752, Note_on_c, 1, 59, 80
3, 46844, Note_off_c, 1, 59, 100
3, 46848, Note_on_c, 1, 52, 80
3, 46940, Note_off_c, 1, 52, 100
3, 46944, Note_on_c, 1, 70, 80
3, 47132, Note_off_c, 1, 70, 100
3, 47136, Note_on_c, 1, 71, 80
3, 47228, Note_off_c, 1, 71, 100
3, 47232, Note_on_c, 1, 50, 80
3, 47324, Note_off_c, 1, 50, 100
3, 47328, Note_on_c, 1, 78, 80
3, 47516, Note_off_c, 1, 78, 100
3, 47520, Note_on_c, 1, 76, 80
3, 47612, Note_off_c, 1, 76, 100
3, 47616, Note_on_c, 1, 49, 80
3, 47708, Note_off_c, 1, 49, 100
3, 47712, Note_on_c, 1, 72, 80
3, 47900, Note_off_c, 1, 72, 100
3, 47904, Note_on_c, 1, 73, 80
3, 47996, Note_off_c, 1, 73, 100
3, 48000, Note_on_c, 1, 49, 80
3, 48092, Note_off_c, 1, 49, 100
3, 48096, Note_on_c, 1, 78, 80
3, 48284, Note_off_c, 1, 78, 100
3, 48288, Note_on_c, 1, 76, 80
3, 48380, Note_off_c, 1, 76, 100
3, 48384, Note_on_c, 1, 47, 80
3, 48476, Note_off_c, 1, 47, 100
3, 48480, Note_on_c, 1, 70, 101
3, 48668, Note_off_c, 1, 70, 100
3, 48672, Note_on_c, 1, 71, 80
3, 48764, Note_off_c, 1, 71, 100
3, 48768, Note_on_c, 1, 47, 80
3, 48860, Note_off_c, 1, 47, 100
3, 48864, Note_on_c, 1, 60, 103
3, 49052, Note_off_c, 1, 60, 100
3, 49056, Note_on_c, 1, 59, 80
3, 49148, Note_off_c, 1, 59, 100
3, 49152, Note_on_c, 1, 47, 80
3, 49244, Note_off_c, 1, 47, 100
3, 49248, Note_on_c, 1, 75, 80
3, 49436, Note_off_c, 1, 75, 100
3, 49440, Note_on_c, 1, 76, 80
3, 49532, Note_off_c, 1, 76, 100
3, 49536, Note_on_c, 1, 47, 80
3, 49628, Note_off_c, 1, 47, 100
3, 49632, Note_on_c, 1, 60, 103
3, 49820, Note_off_c, 1, 60, 100
3, 49824, Note_on_c, 1, 59, 80
3, 49916, Note_off_c, 1, 59, 100
3, 49920, Note_on_c, 1, 52, 80
3, 49920, Note_on_c, 1, 40, 80
3, 50108, Note_off_c, 1, 52, 100
3, 50108, Note_off_c, 1, 40, 100
3, 50688, Note_on_c, 1, 71, 80
3, 50688, Note_on_c, 1, 64, 80
3, 51068, Note_off_c, 1, 71, 100
3, 51068, Note_off_c, 1, 64, 100
3, 51072, Note_on_c, 1, 69, 80
3, 51072, Note_on_c, 1, 71, 80
3, 51260, Note_off_c, 1, 69, 100
3, 51260, Note_off_c, 1, 71, 100
3, 51456, Note_on_c, 1, 68, 80
3, 51456, Note_on_c, 1, 71, 80
3, 51836, Note_off_c, 1, 68, 100
3, 51836, Note_off_c, 1, 71, 100
3, 51840, Note_on_c, 1, 66, 80
3, 51840, Note_on_c, 1, 69, 80
3, 52028, Note_off_c, 1, 66, 100
3, 52028, Note_off_c, 1, 69, 100
3, 52224, Note_on_c, 1, 68, 80
3, 52316, Note_off_c, 1, 68, 100
3, 52320, Note_on_c, 1, 66, 80
3, 52320, Note_on_c, 1, 63, 80
3, 52412, Note_off_c, 1, 66, 100
3, 52412, Note_off_c, 1, 63, 100
3, 52416, Note_on_c, 1, 64, 80
3, 52416, Note_on_c, 1, 68, 80
3, 52508, Note_off_c, 1, 64, 100
3, 52508, Note_off_c, 1, 68, 100
3, 52512, Note_on_c, 1, 57, 80
3, 52512, Note_on_c, 1, 66, 80
3, 52604, Note_off_c, 1, 57, 100
3, 52604, Note_off_c, 1, 66, 100
3, 52608, Note_on_c, 1, 59, 80
3, 52608, Note_on_c, 1, 63, 80
3, 52796, Note_off_c, 1, 59, 100
3, 52796, Note_off_c, 1, 63, 100
3, 52896, Note_on_c, 1, 57, 80
3, 52896, Note_on_c, 1, 66, 80
3, 52988, Note_off_c, 1, 57, 100
3, 52988, Note_off_c, 1, 66, 100
3, 52992, Note_on_c, 1, 56, 80
3, 52992, Note_on_c, 1, 68, 80
3, 53084, Note_off_c, 1, 56, 100
3, 53084, Note_off_c, 1, 68, 100
3, 53088, Note_on_c, 1, 63, 80
3, 53088, Note_on_c, 1, 54, 80
3, 53180, Note_off_c, 1, 63, 100
3, 53180, Note_off_c, 1, 54, 100
3, 53184, Note_on_c, 1, 52, 80
3, 53184, Note_on_c, 1, 61, 80
3, 53276, Note_off_c, 1, 52, 100
3, 53276, Note_off_c, 1, 61, 100
3, 53280, Note_on_c, 1, 57, 80
3, 53280, Note_on_c, 1, 69, 80
3, 53348, Note_off_c, 1, 57, 100
3, 53348, Note_off_c, 1, 69, 100
3, 53352, Note_on_c, 1, 66, 80
3, 53372, Note_off_c, 1, 66, 100
3, 53376, Note_on_c, 1, 59, 80
3, 53376, Note_on_c, 1, 63, 80
3, 53564, Note_off_c, 1, 59, 100
3, 53564, Note_off_c, 1, 63, 100
3, 53760, Note_on_c, 1, 66, 80
3, 53760, Note_on_c, 1, 61, 80
3, 53760, Note_on_c, 1, 54, 80
3, 54140, Note_off_c, 1, 66, 100
3, 54140, Note_off_c, 1, 61, 100
3, 54140, Note_off_c, 1, 54, 100
3, 54144, Note_on_c, 1, 64, 80
3, 54144, Note_on_c, 1, 61, 80
3, 54144, Note_on_c, 1, 56, 80
3, 54332, Note_off_c, 1, 64, 100
3, 54332, Note_off_c, 1, 61, 100
3, 54332, Note_off_c, 1, 56, 100
3, 54528, Note_on_c, 1, 57, 120
3, 54528, Note_on_c, 1, 49, 120
3, 54528, Note_on_c, 1, 45, 120
3, 54908, Note_off_c, 1, 57, 100
3, 54908, Note_off_c, 1, 49, 100
3, 54908, Note_off_c, 1, 45, 100
3, 54912, Note_on_c, 1, 44, 90
3, 54936, Note_on_c, 1, 48, 90
3, 54960, Note_on_c, 1, 51, 90
3, 54980, Note_off_c, 1, 44, 100
3, 54984, Note_on_c, 1, 56, 90
3, 55004, Note_off_c, 1, 48, 100
3, 55196, Note_off_c, 1, 51, 100
3, 55196, Note_off_c, 1, 56, 100
3, 55200, Note_on_c, 1, 73, 80
3, 55200, Note_on_c, 1, 66, 80
3, 55388, Note_off_c, 1, 66, 100
3, 55388, Note_off_c, 1, 73, 100
3, 55392, Note_on_c, 1, 71, 80
3, 55392, Note_on_c, 1, 59, 80
3, 55484, Note_off_c, 1, 71, 100
3, 55484, Note_off_c, 1, 59, 100
3, 55584, Note_on_c, 1, 71, 80
3, 55584, Note_on_c, 1, 64, 80
3, 55772, Note_off_c, 1, 71, 100
3, 55772, Note_off_c, 1, 64, 100
3, 55776, Note_on_c, 1, 69, 80
3, 55776, Note_on_c, 1, 57, 80
3, 55868, Note_off_c, 1, 69, 100
3, 55868, Note_off_c, 1, 57, 100
3, 56064, Note_on_c, 1, 69, 80
3, 56064, Note_on_c, 1, 59, 80
3, 56064, Note_on_c, 1, 66, 80
3, 56444, Note_off_c, 1, 69, 100
3, 56444, Note_off_c, 1, 59, 100
3, 56444, Note_off_c, 1, 66, 100
3, 56448, Note_on_c, 1, 68, 80
3, 56448, Note_on_c, 1, 64, 80
3, 56448, Note_on_c, 1, 61, 80
3, 56636, Note_off_c, 1, 68, 100
3, 56636, Note_off_c, 1, 64, 100
3, 56636, Note_off_c, 1, 61, 100
3, 56736, Note_on_c, 1, 46, 80
3, 56736, Note_on_c, 1, 34, 80
3, 56924, Note_off_c, 1, 34, 100
3, 56924, Note_off_c, 1, 46, 100
3, 56928, Note_on_c, 1, 47, 80
3, 56928, Note_on_c, 1, 35, 80
3, 57020, Note_off_c, 1, 47, 100
3, 57020, Note_off_c, 1, 35, 100
3, 57120, Note_on_c, 1, 44, 80
3, 57120, Note_on_c, 1, 32, 80
3, 57308, Note_off_c, 1, 44, 100
3, 57308, Note_off_c, 1, 32, 100
3, 57312, Note_on_c, 1, 33, 80
3, 57312, Note_on_c, 1, 45, 80
3, 57404, Note_off_c, 1, 33, 100
3, 57404, Note_off_c, 1, 45, 100
3, 57984, Note_on_c, 1, 57, 80
3, 57984, Note_on_c, 1, 54, 80
3, 57984, Note_on_c, 1, 47, 80
3, 58364, Note_off_c, 1, 57, 100
3, 58364, Note_off_c, 1, 54, 100
3, 58364, Note_off_c, 1, 47, 100
3, 58368, Note_on_c, 1, 56, 80
3, 58368, Note_on_c, 1, 52, 80
3, 58556, Note_off_c, 1, 56, 100
3, 58556, Note_off_c, 1, 52, 100
3, 58752, Note_on_c, 1, 52, 80
3, 58752, Note_on_c, 1, 44, 80
3, 58892, Note_off_c, 1, 52, 100
3, 58892, Note_off_c, 1, 44, 100
3, 58896, Note_on_c, 1, 51, 80
3, 58896, Note_on_c, 1, 42, 80
3, 58940, Note_off_c, 1, 51, 100
3, 58940, Note_off_c, 1, 42, 100
3, 58944, Note_on_c, 1, 52, 80
3, 58944, Note_on_c, 1, 44, 80
3, 59036, Note_off_c, 1, 52, 100
3, 59036, Note_off_c, 1, 44, 100
3, 59040, Note_on_c, 1, 54, 80
3, 59040, Note_on_c, 1, 45, 80
3, 59132, Note_off_c, 1, 54, 100
3, 59132, Note_off_c, 1, 45, 100
3, 59136, Note_on_c, 1, 51, 80
3, 59136, Note_on_c, 1, 42, 80
3, 59324, Note_off_c, 1, 51, 100
3, 59324, Note_off_c, 1, 42, 100
3, 59520, Note_on_c, 1, 56, 80
3, 59520, Note_on_c, 1, 52, 80
3, 59660, Note_off_c, 1, 56, 100
3, 59660, Note_off_c, 1, 52, 100
3, 59664, Note_on_c, 1, 54, 80
3, 59664, Note_on_c, 1, 51, 80
3, 59708, Note_off_c, 1, 54, 100
3, 59708, Note_off_c, 1, 51, 100
3, 59712, Note_on_c, 1, 56, 80
3, 59712, Note_on_c, 1, 52, 80
3, 59804, Note_off_c, 1, 56, 100
3, 59804, Note_off_c, 1, 52, 100
3, 59808, Note_on_c, 1, 57, 80
3, 59808, Note_on_c, 1, 54, 80
3, 59900, Note_off_c, 1, 57, 100
3, 59900, Note_off_c, 1, 54, 100
3, 59904, Note_on_c, 1, 54, 80
3, 59904, Note_on_c, 1, 51, 80
3, 60092, Note_off_c, 1, 54, 100
3, 60092, Note_off_c, 1, 51, 100
3, 60288, Note_on_c, 1, 56, 80
3, 60288, Note_on_c, 1, 64, 80
3, 60668, Note_off_c, 1, 56, 100
3, 60668, Note_off_c, 1, 64, 100
3, 60672, Note_on_c, 1, 57, 80
3, 60672, Note_on_c, 1, 64, 80
3, 61052, Note_off_c, 1, 57, 100
3, 61052, Note_off_c, 1, 64, 100
3, 61824, Note_on_c, 1, 35, 70
3, 61824, Note_on_c, 1, 45, 70
3, 62204, Note_off_c, 1, 35, 100
3, 62204, Note_off_c, 1, 45, 100
3, 62208, Note_on_c, 1, 45, 70
3, 62208, Note_on_c, 1, 40, 70
3, 62588, Note_off_c, 1, 45, 100
3, 62592, Note_on_c, 1, 44, 70
3, 62972, Note_off_c, 1, 40, 100
3, 62972, Note_off_c, 1, 44, 100
3, 62972, End_track
0, 0, End_of_file
