0, 0, Header, 1, 3, 384
1, 0, Start_track
1, 0, Title_t, "L.v.Beethoven 3mov - Piano Sonata No.3 in C Major Op.2-3\000"
1, 0, Copyright_t, "Copyright(C) 1995-2009, Suzuki Software\000"
1, 0, Sequencer_specific, 9, 67, 123, 0, 88, 70, 48, 50, 0, 1
1, 0, Text_t, "XFhd:2000/03/12:JP:Classical::::L.v.Beethoven:::Kaoru Suzuki\000"
1, 0, Text_t, "XFln:JP:\203s\203A\203m\203\\\203i\203^\221æ3\224Ô\203n\222·\222²\215ì\225i2-3\201`\221æ3\212y\217Í:L.v.\203x\201[\203g\201[\203\224\203F\203\223:::\227é\202¿\202á\202ñ:\227é\202¿\202á\202ñ\000"
1, 0, Time_signature, 2, 2, 96, 8
1, 0, Sequencer_specific, 3, 0, 0, 65
1, 0, Sequencer_specific, 5, 0, 0, 119, 14, 0
1, 0, Tempo, 230769
1, 768, Time_signature, 3, 2, 96, 8
1, 50304, Tempo, 250000
1, 52224, Tempo, 272727
1, 53184, Tempo, 250000
1, 60672, Tempo, 255319
1, 61824, Tempo, 260869
1, 62976, Tempo, 250000
1, 64128, Tempo, 230769
1, 105600, Tempo, 250000
1, 115968, Tempo, 255319
1, 117120, Tempo, 260869
1, 118272, Tempo, 244897
1, 119424, Tempo, 230769
1, 143232, Tempo, 250000
1, 148224, Tempo, 240000
1, 203520, Tempo, 230769
1, 235776, Tempo, 250000
1, 246144, Tempo, 255319
1, 247296, Tempo, 260869
1, 248448, Tempo, 244897
1, 249600, Tempo, 230769
1, 273024, Tempo, 250000
1, 283392, Tempo, 240000
1, 284160, Tempo, 230769
1, 301440, Tempo, 250000
1, 302592, Tempo, 272727
1, 302976, Tempo, 300000
1, 303360, Tempo, 400000
1, 303360, End_track
2, 0, Start_track
2, 0, Title_t, "Right"
2, 0, Control_c, 0, 0, 0
2, 0, Program_c, 0, 0
2, 0, Control_c, 0, 7, 100
2, 0, Control_c, 0, 10, 79
2, 0, Control_c, 0, 91, 127
2, 0, Key_signature, 0, "major"
2, 192, Note_on_c, 0, 79, 80
2, 380, Note_off_c, 0, 79, 100
2, 384, Note_on_c, 0, 78, 80
2, 572, Note_off_c, 0, 78, 100
2, 576, Note_on_c, 0, 79, 80
2, 764, Note_off_c, 0, 79, 100
2, 768, Note_on_c, 0, 81, 80
2, 1148, Note_off_c, 0, 81, 100
2, 1152, Note_on_c, 0, 79, 80
2, 1532, Note_off_c, 0, 79, 100
2, 1536, Note_on_c, 0, 77, 80
2, 1916, Note_off_c, 0, 77, 100
2, 1920, Note_on_c, 0, 76, 80
2, 2300, Note_off_c, 0, 76, 100
2, 2304, Note_on_c, 0, 74, 80
2, 2684, Note_off_c, 0, 74, 100
2, 2688, Note_on_c, 0, 72, 80
2, 3068, Note_off_c, 0, 72, 100
2, 3072, Note_on_c, 0, 71, 80
2, 4220, Note_off_c, 0, 71, 100
2, 4224, Note_on_c, 0, 72, 80
2, 4224, Note_on_c, 0, 64, 80
2, 4604, Note_off_c, 0, 64, 100
2, 4608, Note_on_c, 0, 62, 80
2, 4988, Note_off_c, 0, 62, 100
2, 4992, Note_on_c, 0, 60, 80
2, 5372, Note_off_c, 0, 72, 100
2, 5372, Note_off_c, 0, 60, 100
2, 5376, Note_on_c, 0, 74, 80
2, 5376, Note_on_c, 0, 71, 80
2, 5376, Note_on_c, 0, 67, 80
2, 6524, Note_off_c, 0, 74, 100
2, 6524, Note_off_c, 0, 71, 100
2, 6524, Note_off_c, 0, 67, 100
2, 6528, Note_on_c, 0, 76, 80
2, 6528, Note_on_c, 0, 72, 80
2, 6528, Note_on_c, 0, 67, 80
2, 7676, Note_off_c, 0, 76, 100
2, 7676, Note_off_c, 0, 72, 100
2, 7676, Note_off_c, 0, 67, 100
2, 7680, Note_on_c, 0, 79, 80
2, 7680, Note_on_c, 0, 74, 80
2, 7680, Note_on_c, 0, 67, 80
2, 8060, Note_off_c, 0, 79, 100
2, 8060, Note_off_c, 0, 74, 100
2, 8060, Note_off_c, 0, 67, 100
2, 8064, Note_on_c, 0, 77, 80
2, 8064, Note_on_c, 0, 71, 80
2, 8064, Note_on_c, 0, 67, 80
2, 8444, Note_off_c, 0, 77, 100
2, 8444, Note_off_c, 0, 71, 100
2, 8444, Note_off_c, 0, 67, 100
2, 8448, Note_on_c, 0, 76, 80
2, 8448, Note_on_c, 0, 72, 80
2, 8448, Note_on_c, 0, 67, 80
2, 8828, Note_off_c, 0, 76, 100
2, 8828, Note_off_c, 0, 72, 100
2, 8828, Note_off_c, 0, 67, 100
2, 8832, Note_on_c, 0, 74, 80
2, 8832, Note_on_c, 0, 71, 80
2, 8832, Note_on_c, 0, 67, 80
2, 9212, Note_off_c, 0, 74, 100
2, 9212, Note_off_c, 0, 71, 100
2, 9212, Note_off_c, 0, 67, 100
2, 10560, Note_on_c, 0, 78, 80
2, 10748, Note_off_c, 0, 78, 100
2, 10752, Note_on_c, 0, 76, 80
2, 10940, Note_off_c, 0, 76, 100
2, 10944, Note_on_c, 0, 78, 80
2, 11132, Note_off_c, 0, 78, 100
2, 11136, Note_on_c, 0, 79, 80
2, 11516, Note_off_c, 0, 79, 100
2, 11712, Note_on_c, 0, 79, 80
2, 11900, Note_off_c, 0, 79, 100
2, 11904, Note_on_c, 0, 78, 80
2, 12092, Note_off_c, 0, 78, 100
2, 12096, Note_on_c, 0, 79, 80
2, 12284, Note_off_c, 0, 79, 100
2, 12288, Note_on_c, 0, 81, 80
2, 12668, Note_off_c, 0, 81, 100
2, 12864, Note_on_c, 0, 81, 80
2, 13052, Note_off_c, 0, 81, 100
2, 13056, Note_on_c, 0, 79, 80
2, 13244, Note_off_c, 0, 79, 100
2, 13248, Note_on_c, 0, 81, 80
2, 13436, Note_off_c, 0, 81, 100
2, 13440, Note_on_c, 0, 82, 80
2, 13820, Note_off_c, 0, 82, 100
2, 14016, Note_on_c, 0, 82, 91
2, 14204, Note_off_c, 0, 82, 100
2, 14208, Note_on_c, 0, 81, 95
2, 14396, Note_off_c, 0, 81, 100
2, 14400, Note_on_c, 0, 82, 99
2, 14588, Note_off_c, 0, 82, 100
2, 14592, Note_on_c, 0, 85, 110
2, 14972, Note_off_c, 0, 85, 100
2, 15168, Note_on_c, 0, 85, 110
2, 15356, Note_off_c, 0, 85, 100
2, 15360, Note_on_c, 0, 84, 110
2, 15548, Note_off_c, 0, 84, 100
2, 15552, Note_on_c, 0, 85, 110
2, 15740, Note_off_c, 0, 85, 100
2, 15744, Note_on_c, 0, 86, 110
2, 16124, Note_off_c, 0, 86, 100
2, 16320, Note_on_c, 0, 86, 110
2, 16508, Note_off_c, 0, 86, 100
2, 16512, Note_on_c, 0, 85, 110
2, 16700, Note_off_c, 0, 85, 100
2, 16704, Note_on_c, 0, 86, 110
2, 16892, Note_off_c, 0, 86, 100
2, 16896, Note_on_c, 0, 83, 110
2, 16896, Note_on_c, 0, 79, 110
2, 16896, Note_on_c, 0, 74, 110
2, 17276, Note_off_c, 0, 83, 100
2, 17276, Note_off_c, 0, 79, 100
2, 17276, Note_off_c, 0, 74, 100
2, 17280, Note_on_c, 0, 84, 110
2, 17280, Note_on_c, 0, 81, 110
2, 17280, Note_on_c, 0, 76, 110
2, 17660, Note_off_c, 0, 84, 100
2, 17660, Note_off_c, 0, 81, 100
2, 17660, Note_off_c, 0, 76, 100
2, 17664, Note_on_c, 0, 81, 110
2, 17664, Note_on_c, 0, 78, 110
2, 17664, Note_on_c, 0, 72, 110
2, 18044, Note_off_c, 0, 81, 100
2, 18044, Note_off_c, 0, 78, 100
2, 18044, Note_off_c, 0, 72, 100
2, 18048, Note_on_c, 0, 79, 110
2, 18048, Note_on_c, 0, 74, 110
2, 18048, Note_on_c, 0, 71, 110
2, 18428, Note_off_c, 0, 79, 100
2, 18428, Note_off_c, 0, 74, 100
2, 18428, Note_off_c, 0, 71, 100
2, 18624, Note_on_c, 0, 79, 80
2, 18812, Note_off_c, 0, 79, 100
2, 18816, Note_on_c, 0, 78, 80
2, 19004, Note_off_c, 0, 78, 100
2, 19008, Note_on_c, 0, 79, 80
2, 19196, Note_off_c, 0, 79, 100
2, 19200, Note_on_c, 0, 81, 80
2, 19580, Note_off_c, 0, 81, 100
2, 19584, Note_on_c, 0, 79, 80
2, 19964, Note_off_c, 0, 79, 100
2, 19968, Note_on_c, 0, 77, 80
2, 20348, Note_off_c, 0, 77, 100
2, 20352, Note_on_c, 0, 76, 80
2, 20732, Note_off_c, 0, 76, 100
2, 20736, Note_on_c, 0, 74, 80
2, 21116, Note_off_c, 0, 74, 100
2, 21120, Note_on_c, 0, 72, 80
2, 21500, Note_off_c, 0, 72, 100
2, 21504, Note_on_c, 0, 71, 80
2, 22652, Note_off_c, 0, 71, 100
2, 22656, Note_on_c, 0, 72, 80
2, 22656, Note_on_c, 0, 64, 80
2, 23036, Note_off_c, 0, 64, 100
2, 23040, Note_on_c, 0, 62, 80
2, 23420, Note_off_c, 0, 62, 100
2, 23424, Note_on_c, 0, 60, 80
2, 23804, Note_off_c, 0, 72, 100
2, 23804, Note_off_c, 0, 60, 100
2, 23808, Note_on_c, 0, 74, 80
2, 23808, Note_on_c, 0, 71, 80
2, 23808, Note_on_c, 0, 67, 80
2, 24956, Note_off_c, 0, 74, 100
2, 24956, Note_off_c, 0, 71, 100
2, 24956, Note_off_c, 0, 67, 100
2, 24960, Note_on_c, 0, 76, 80
2, 24960, Note_on_c, 0, 72, 80
2, 24960, Note_on_c, 0, 67, 80
2, 26108, Note_off_c, 0, 76, 100
2, 26108, Note_off_c, 0, 72, 100
2, 26108, Note_off_c, 0, 67, 100
2, 26112, Note_on_c, 0, 79, 80
2, 26112, Note_on_c, 0, 74, 80
2, 26112, Note_on_c, 0, 67, 80
2, 26492, Note_off_c, 0, 79, 100
2, 26492, Note_off_c, 0, 74, 100
2, 26492, Note_off_c, 0, 67, 100
2, 26496, Note_on_c, 0, 77, 80
2, 26496, Note_on_c, 0, 71, 80
2, 26496, Note_on_c, 0, 67, 80
2, 26876, Note_off_c, 0, 77, 100
2, 26876, Note_off_c, 0, 71, 100
2, 26876, Note_off_c, 0, 67, 100
2, 26880, Note_on_c, 0, 76, 80
2, 26880, Note_on_c, 0, 72, 80
2, 26880, Note_on_c, 0, 67, 80
2, 27260, Note_off_c, 0, 76, 100
2, 27260, Note_off_c, 0, 72, 100
2, 27260, Note_off_c, 0, 67, 100
2, 27264, Note_on_c, 0, 74, 80
2, 27264, Note_on_c, 0, 71, 80
2, 27264, Note_on_c, 0, 67, 80
2, 27644, Note_off_c, 0, 74, 100
2, 27644, Note_off_c, 0, 71, 100
2, 27644, Note_off_c, 0, 67, 100
2, 28992, Note_on_c, 0, 78, 82
2, 29180, Note_off_c, 0, 78, 100
2, 29184, Note_on_c, 0, 76, 83
2, 29372, Note_off_c, 0, 76, 100
2, 29376, Note_on_c, 0, 78, 84
2, 29564, Note_off_c, 0, 78, 100
2, 29568, Note_on_c, 0, 79, 85
2, 29948, Note_off_c, 0, 79, 100
2, 30144, Note_on_c, 0, 79, 87
2, 30332, Note_off_c, 0, 79, 100
2, 30336, Note_on_c, 0, 78, 88
2, 30524, Note_off_c, 0, 78, 100
2, 30528, Note_on_c, 0, 79, 89
2, 30716, Note_off_c, 0, 79, 100
2, 30720, Note_on_c, 0, 81, 90
2, 31100, Note_off_c, 0, 81, 100
2, 31296, Note_on_c, 0, 81, 93
2, 31484, Note_off_c, 0, 81, 100
2, 31488, Note_on_c, 0, 79, 93
2, 31676, Note_off_c, 0, 79, 100
2, 31680, Note_on_c, 0, 81, 94
2, 31868, Note_off_c, 0, 81, 100
2, 31872, Note_on_c, 0, 82, 95
2, 32252, Note_off_c, 0, 82, 100
2, 32448, Note_on_c, 0, 82, 98
2, 32636, Note_off_c, 0, 82, 100
2, 32640, Note_on_c, 0, 81, 99
2, 32828, Note_off_c, 0, 81, 100
2, 32832, Note_on_c, 0, 82, 99
2, 33020, Note_off_c, 0, 82, 100
2, 33024, Note_on_c, 0, 85, 110
2, 33404, Note_off_c, 0, 85, 100
2, 33600, Note_on_c, 0, 85, 110
2, 33788, Note_off_c, 0, 85, 100
2, 33792, Note_on_c, 0, 84, 110
2, 33980, Note_off_c, 0, 84, 100
2, 33984, Note_on_c, 0, 85, 110
2, 34172, Note_off_c, 0, 85, 100
2, 34176, Note_on_c, 0, 86, 110
2, 34556, Note_off_c, 0, 86, 100
2, 34752, Note_on_c, 0, 86, 110
2, 34940, Note_off_c, 0, 86, 100
2, 34944, Note_on_c, 0, 85, 110
2, 35132, Note_off_c, 0, 85, 100
2, 35136, Note_on_c, 0, 86, 110
2, 35324, Note_off_c, 0, 86, 100
2, 35328, Note_on_c, 0, 83, 110
2, 35328, Note_on_c, 0, 79, 110
2, 35328, Note_on_c, 0, 74, 110
2, 35708, Note_off_c, 0, 83, 100
2, 35708, Note_off_c, 0, 79, 100
2, 35708, Note_off_c, 0, 74, 100
2, 35712, Note_on_c, 0, 84, 110
2, 35712, Note_on_c, 0, 81, 110
2, 35712, Note_on_c, 0, 76, 110
2, 36092, Note_off_c, 0, 84, 100
2, 36092, Note_off_c, 0, 81, 100
2, 36092, Note_off_c, 0, 76, 100
2, 36096, Note_on_c, 0, 81, 110
2, 36096, Note_on_c, 0, 78, 110
2, 36096, Note_on_c, 0, 72, 110
2, 36476, Note_off_c, 0, 81, 100
2, 36476, Note_off_c, 0, 78, 100
2, 36476, Note_off_c, 0, 72, 100
2, 36480, Note_on_c, 0, 79, 110
2, 36480, Note_on_c, 0, 74, 110
2, 36480, Note_on_c, 0, 71, 110
2, 36860, Note_off_c, 0, 79, 100
2, 36860, Note_off_c, 0, 74, 100
2, 36860, Note_off_c, 0, 71, 100
2, 38208, Note_on_c, 0, 71, 80
2, 38396, Note_off_c, 0, 71, 100
2, 38400, Note_on_c, 0, 69, 80
2, 38588, Note_off_c, 0, 69, 100
2, 38592, Note_on_c, 0, 71, 80
2, 38780, Note_off_c, 0, 71, 100
2, 38784, Note_on_c, 0, 72, 80
2, 39164, Note_off_c, 0, 72, 100
2, 39360, Note_on_c, 0, 72, 80
2, 39548, Note_off_c, 0, 72, 100
2, 39552, Note_on_c, 0, 71, 80
2, 39740, Note_off_c, 0, 71, 100
2, 39744, Note_on_c, 0, 72, 80
2, 39932, Note_off_c, 0, 72, 100
2, 39936, Note_on_c, 0, 69, 80
2, 40316, Note_off_c, 0, 69, 100
2, 40512, Note_on_c, 0, 69, 80
2, 40700, Note_off_c, 0, 69, 100
2, 40704, Note_on_c, 0, 67, 80
2, 40892, Note_off_c, 0, 67, 100
2, 40896, Note_on_c, 0, 69, 80
2, 41084, Note_off_c, 0, 69, 100
2, 41088, Note_on_c, 0, 70, 80
2, 41468, Note_off_c, 0, 70, 100
2, 41664, Note_on_c, 0, 70, 80
2, 41852, Note_off_c, 0, 70, 100
2, 41856, Note_on_c, 0, 69, 80
2, 42044, Note_off_c, 0, 69, 100
2, 42048, Note_on_c, 0, 70, 80
2, 42236, Note_off_c, 0, 70, 100
2, 42240, Note_on_c, 0, 78, 80
2, 42620, Note_off_c, 0, 78, 100
2, 42624, Note_on_c, 0, 77, 80
2, 43004, Note_off_c, 0, 77, 100
2, 43008, Note_on_c, 0, 75, 80
2, 43388, Note_off_c, 0, 75, 100
2, 43392, Note_on_c, 0, 73, 80
2, 43772, Note_off_c, 0, 73, 100
2, 43776, Note_on_c, 0, 72, 80
2, 44156, Note_off_c, 0, 72, 100
2, 44160, Note_on_c, 0, 70, 80
2, 44540, Note_off_c, 0, 70, 100
2, 44544, Note_on_c, 0, 77, 80
2, 44544, Note_on_c, 0, 89, 80
2, 44924, Note_off_c, 0, 77, 100
2, 44924, Note_off_c, 0, 89, 100
2, 44928, Note_on_c, 0, 75, 80
2, 44928, Note_on_c, 0, 87, 80
2, 45308, Note_off_c, 0, 75, 100
2, 45308, Note_off_c, 0, 87, 100
2, 45312, Note_on_c, 0, 73, 80
2, 45312, Note_on_c, 0, 85, 80
2, 45692, Note_off_c, 0, 73, 100
2, 45692, Note_off_c, 0, 85, 100
2, 45696, Note_on_c, 0, 72, 80
2, 45696, Note_on_c, 0, 84, 80
2, 46076, Note_off_c, 0, 72, 100
2, 46076, Note_off_c, 0, 84, 100
2, 46080, Note_on_c, 0, 70, 80
2, 46080, Note_on_c, 0, 82, 80
2, 46460, Note_off_c, 0, 70, 100
2, 46460, Note_off_c, 0, 82, 100
2, 46464, Note_on_c, 0, 68, 80
2, 46464, Note_on_c, 0, 80, 80
2, 46844, Note_off_c, 0, 68, 100
2, 46844, Note_off_c, 0, 80, 100
2, 46848, Note_on_c, 0, 87, 80
2, 46848, Note_on_c, 0, 75, 80
2, 47228, Note_off_c, 0, 87, 100
2, 47228, Note_off_c, 0, 75, 100
2, 47232, Note_on_c, 0, 86, 80
2, 47232, Note_on_c, 0, 74, 80
2, 47612, Note_off_c, 0, 86, 100
2, 47612, Note_off_c, 0, 74, 100
2, 47616, Note_on_c, 0, 84, 80
2, 47616, Note_on_c, 0, 72, 80
2, 47996, Note_off_c, 0, 84, 100
2, 47996, Note_off_c, 0, 72, 100
2, 48000, Note_on_c, 0, 83, 80
2, 48000, Note_on_c, 0, 71, 80
2, 48380, Note_off_c, 0, 83, 100
2, 48380, Note_off_c, 0, 71, 100
2, 48384, Note_on_c, 0, 81, 80
2, 48384, Note_on_c, 0, 69, 80
2, 48764, Note_off_c, 0, 81, 100
2, 48764, Note_off_c, 0, 69, 100
2, 48768, Note_on_c, 0, 79, 80
2, 48768, Note_on_c, 0, 67, 80
2, 49148, Note_off_c, 0, 79, 100
2, 49148, Note_off_c, 0, 67, 100
2, 49152, Note_on_c, 0, 75, 110
2, 49152, Note_on_c, 0, 63, 110
2, 49532, Note_off_c, 0, 75, 100
2, 49532, Note_off_c, 0, 63, 100
2, 49536, Note_on_c, 0, 74, 110
2, 49536, Note_on_c, 0, 62, 110
2, 49916, Note_off_c, 0, 74, 100
2, 49916, Note_off_c, 0, 62, 100
2, 49920, Note_on_c, 0, 72, 110
2, 49920, Note_on_c, 0, 60, 110
2, 50300, Note_off_c, 0, 72, 100
2, 50300, Note_off_c, 0, 60, 100
2, 50304, Note_on_c, 0, 67, 110
2, 50304, Note_on_c, 0, 55, 110
2, 50684, Note_off_c, 0, 67, 100
2, 50684, Note_off_c, 0, 55, 100
2, 50880, Note_on_c, 0, 55, 100
2, 51068, Note_off_c, 0, 55, 100
2, 51072, Note_on_c, 0, 54, 100
2, 51260, Note_off_c, 0, 54, 100
2, 51264, Note_on_c, 0, 55, 100
2, 51452, Note_off_c, 0, 55, 100
2, 51456, Note_on_c, 0, 56, 100
2, 51836, Note_off_c, 0, 56, 100
2, 51840, Note_on_c, 0, 55, 100
2, 52028, Note_off_c, 0, 55, 100
2, 52224, Note_on_c, 0, 79, 110
2, 52224, Note_on_c, 0, 74, 110
2, 52224, Note_on_c, 0, 71, 110
2, 52604, Note_off_c, 0, 79, 100
2, 52604, Note_off_c, 0, 74, 100
2, 52604, Note_off_c, 0, 71, 100
2, 52608, Note_on_c, 0, 78, 100
2, 52608, Note_on_c, 0, 75, 100
2, 52608, Note_on_c, 0, 72, 100
2, 52608, Note_on_c, 0, 69, 100
2, 52988, Note_off_c, 0, 78, 100
2, 52988, Note_off_c, 0, 75, 100
2, 52988, Note_off_c, 0, 72, 100
2, 52988, Note_off_c, 0, 69, 100
2, 52992, Note_on_c, 0, 79, 100
2, 52992, Note_on_c, 0, 74, 100
2, 52992, Note_on_c, 0, 71, 100
2, 53180, Note_off_c, 0, 79, 100
2, 53180, Note_off_c, 0, 74, 100
2, 53180, Note_off_c, 0, 71, 100
2, 53184, Note_on_c, 0, 55, 100
2, 53372, Note_off_c, 0, 55, 100
2, 53376, Note_on_c, 0, 54, 100
2, 53564, Note_off_c, 0, 54, 100
2, 53568, Note_on_c, 0, 55, 100
2, 53756, Note_off_c, 0, 55, 100
2, 53760, Note_on_c, 0, 56, 100
2, 54140, Note_off_c, 0, 56, 100
2, 54144, Note_on_c, 0, 55, 100
2, 54332, Note_off_c, 0, 55, 100
2, 54528, Note_on_c, 0, 79, 110
2, 54528, Note_on_c, 0, 74, 110
2, 54528, Note_on_c, 0, 71, 110
2, 54908, Note_off_c, 0, 79, 100
2, 54908, Note_off_c, 0, 74, 100
2, 54908, Note_off_c, 0, 71, 100
2, 54912, Note_on_c, 0, 81, 100
2, 54912, Note_on_c, 0, 78, 100
2, 54912, Note_on_c, 0, 75, 100
2, 54912, Note_on_c, 0, 72, 100
2, 55292, Note_off_c, 0, 81, 100
2, 55292, Note_off_c, 0, 78, 100
2, 55292, Note_off_c, 0, 75, 100
2, 55292, Note_off_c, 0, 72, 100
2, 55296, Note_on_c, 0, 79, 100
2, 55296, Note_on_c, 0, 74, 100
2, 55296, Note_on_c, 0, 71, 100
2, 55484, Note_off_c, 0, 79, 100
2, 55484, Note_off_c, 0, 74, 100
2, 55484, Note_off_c, 0, 71, 100
2, 55488, Note_on_c, 0, 55, 100
2, 55676, Note_off_c, 0, 55, 100
2, 55680, Note_on_c, 0, 54, 100
2, 55868, Note_off_c, 0, 54, 100
2, 55872, Note_on_c, 0, 55, 100
2, 56060, Note_off_c, 0, 55, 100
2, 56064, Note_on_c, 0, 56, 100
2, 56444, Note_off_c, 0, 56, 100
2, 56448, Note_on_c, 0, 55, 100
2, 56636, Note_off_c, 0, 55, 100
2, 56832, Note_on_c, 0, 79, 110
2, 56832, Note_on_c, 0, 74, 110
2, 56832, Note_on_c, 0, 71, 110
2, 57212, Note_off_c, 0, 79, 100
2, 57212, Note_off_c, 0, 74, 100
2, 57212, Note_off_c, 0, 71, 100
2, 57216, Note_on_c, 0, 80, 100
2, 57216, Note_on_c, 0, 75, 100
2, 57216, Note_on_c, 0, 72, 100
2, 57596, Note_off_c, 0, 80, 100
2, 57596, Note_off_c, 0, 75, 100
2, 57596, Note_off_c, 0, 72, 100
2, 57600, Note_on_c, 0, 79, 100
2, 57600, Note_on_c, 0, 74, 100
2, 57600, Note_on_c, 0, 71, 100
2, 57788, Note_off_c, 0, 79, 100
2, 57788, Note_off_c, 0, 74, 100
2, 57788, Note_off_c, 0, 71, 100
2, 57984, Note_on_c, 0, 79, 110
2, 57984, Note_on_c, 0, 74, 110
2, 57984, Note_on_c, 0, 71, 110
2, 58364, Note_off_c, 0, 79, 100
2, 58364, Note_off_c, 0, 74, 100
2, 58364, Note_off_c, 0, 71, 100
2, 58368, Note_on_c, 0, 80, 100
2, 58368, Note_on_c, 0, 75, 100
2, 58368, Note_on_c, 0, 72, 100
2, 58748, Note_off_c, 0, 80, 100
2, 58748, Note_off_c, 0, 75, 100
2, 58748, Note_off_c, 0, 72, 100
2, 58752, Note_on_c, 0, 79, 100
2, 58752, Note_on_c, 0, 74, 100
2, 58752, Note_on_c, 0, 71, 100
2, 58940, Note_off_c, 0, 79, 100
2, 58940, Note_off_c, 0, 74, 100
2, 58940, Note_off_c, 0, 71, 100
2, 59136, Note_on_c, 0, 79, 110
2, 59136, Note_on_c, 0, 74, 110
2, 59136, Note_on_c, 0, 71, 110
2, 59516, Note_off_c, 0, 79, 100
2, 59516, Note_off_c, 0, 74, 100
2, 59516, Note_off_c, 0, 71, 100
2, 59520, Note_on_c, 0, 80, 100
2, 59520, Note_on_c, 0, 75, 100
2, 59520, Note_on_c, 0, 72, 100
2, 59900, Note_off_c, 0, 80, 100
2, 59900, Note_off_c, 0, 75, 100
2, 59900, Note_off_c, 0, 72, 100
2, 59904, Note_on_c, 0, 79, 100
2, 59904, Note_on_c, 0, 74, 100
2, 59904, Note_on_c, 0, 71, 100
2, 60092, Note_off_c, 0, 79, 100
2, 60092, Note_off_c, 0, 74, 100
2, 60092, Note_off_c, 0, 71, 100
2, 60096, Note_on_c, 0, 79, 100
2, 60284, Note_off_c, 0, 79, 100
2, 60288, Note_on_c, 0, 78, 98
2, 60476, Note_off_c, 0, 78, 100
2, 60480, Note_on_c, 0, 79, 95
2, 60668, Note_off_c, 0, 79, 100
2, 60672, Note_on_c, 0, 80, 92
2, 61052, Note_off_c, 0, 80, 100
2, 61056, Note_on_c, 0, 79, 87
2, 61244, Note_off_c, 0, 79, 100
2, 61248, Note_on_c, 0, 79, 84
2, 61436, Note_off_c, 0, 79, 100
2, 61440, Note_on_c, 0, 78, 81
2, 61628, Note_off_c, 0, 78, 100
2, 61632, Note_on_c, 0, 79, 79
2, 61820, Note_off_c, 0, 79, 100
2, 61824, Note_on_c, 0, 80, 76
2, 62204, Note_off_c, 0, 80, 100
2, 62208, Note_on_c, 0, 79, 71
2, 62396, Note_off_c, 0, 79, 100
2, 62400, Note_on_c, 0, 79, 70
2, 62588, Note_off_c, 0, 79, 100
2, 62592, Note_on_c, 0, 78, 70
2, 62780, Note_off_c, 0, 78, 100
2, 62784, Note_on_c, 0, 79, 70
2, 62972, Note_off_c, 0, 79, 100
2, 62976, Note_on_c, 0, 80, 70
2, 63356, Note_off_c, 0, 80, 100
2, 63360, Note_on_c, 0, 79, 70
2, 63548, Note_off_c, 0, 79, 100
2, 63552, Note_on_c, 0, 79, 80
2, 63740, Note_off_c, 0, 79, 100
2, 63744, Note_on_c, 0, 78, 80
2, 63932, Note_off_c, 0, 78, 100
2, 63936, Note_on_c, 0, 79, 80
2, 64124, Note_off_c, 0, 79, 100
2, 64128, Note_on_c, 0, 81, 80
2, 64508, Note_off_c, 0, 81, 100
2, 64512, Note_on_c, 0, 79, 80
2, 64892, Note_off_c, 0, 79, 100
2, 64896, Note_on_c, 0, 77, 80
2, 65276, Note_off_c, 0, 77, 100
2, 65280, Note_on_c, 0, 76, 80
2, 65660, Note_off_c, 0, 76, 100
2, 65664, Note_on_c, 0, 74, 80
2, 66044, Note_off_c, 0, 74, 100
2, 66048, Note_on_c, 0, 72, 80
2, 66428, Note_off_c, 0, 72, 100
2, 66432, Note_on_c, 0, 71, 80
2, 67580, Note_off_c, 0, 71, 100
2, 67584, Note_on_c, 0, 72, 80
2, 68732, Note_off_c, 0, 72, 100
2, 68736, Note_on_c, 0, 74, 80
2, 68736, Note_on_c, 0, 71, 80
2, 68736, Note_on_c, 0, 67, 80
2, 69884, Note_off_c, 0, 74, 100
2, 69884, Note_off_c, 0, 71, 100
2, 69884, Note_off_c, 0, 67, 100
2, 69888, Note_on_c, 0, 72, 80
2, 69888, Note_on_c, 0, 67, 80
2, 69888, Note_on_c, 0, 76, 80
2, 71036, Note_off_c, 0, 72, 100
2, 71036, Note_off_c, 0, 67, 100
2, 71040, Note_on_c, 0, 73, 80
2, 71040, Note_on_c, 0, 69, 80
2, 71420, Note_off_c, 0, 76, 100
2, 71420, Note_off_c, 0, 73, 100
2, 71424, Note_on_c, 0, 74, 80
2, 71424, Note_on_c, 0, 77, 80
2, 71804, Note_off_c, 0, 69, 100
2, 71804, Note_off_c, 0, 74, 100
2, 71804, Note_off_c, 0, 77, 100
2, 71808, Note_on_c, 0, 74, 80
2, 71808, Note_on_c, 0, 71, 80
2, 71808, Note_on_c, 0, 65, 80
2, 72188, Note_off_c, 0, 74, 100
2, 72188, Note_off_c, 0, 71, 100
2, 72188, Note_off_c, 0, 65, 100
2, 72192, Note_on_c, 0, 72, 80
2, 72192, Note_on_c, 0, 64, 80
2, 72572, Note_off_c, 0, 72, 100
2, 72572, Note_off_c, 0, 64, 100
2, 73920, Note_on_c, 0, 76, 80
2, 74108, Note_off_c, 0, 76, 100
2, 74112, Note_on_c, 0, 74, 80
2, 74300, Note_off_c, 0, 74, 100
2, 74304, Note_on_c, 0, 76, 80
2, 74492, Note_off_c, 0, 76, 100
2, 74496, Note_on_c, 0, 77, 80
2, 74876, Note_off_c, 0, 77, 100
2, 75072, Note_on_c, 0, 77, 80
2, 75260, Note_off_c, 0, 77, 100
2, 75264, Note_on_c, 0, 76, 80
2, 75452, Note_off_c, 0, 76, 100
2, 75456, Note_on_c, 0, 77, 80
2, 75644, Note_off_c, 0, 77, 100
2, 75648, Note_on_c, 0, 83, 80
2, 76028, Note_off_c, 0, 83, 100
2, 76224, Note_on_c, 0, 83, 80
2, 76412, Note_off_c, 0, 83, 100
2, 76416, Note_on_c, 0, 81, 80
2, 76604, Note_off_c, 0, 81, 100
2, 76608, Note_on_c, 0, 83, 80
2, 76796, Note_off_c, 0, 83, 100
2, 76800, Note_on_c, 0, 84, 80
2, 77180, Note_off_c, 0, 84, 100
2, 77376, Note_on_c, 0, 84, 80
2, 77564, Note_off_c, 0, 84, 100
2, 77568, Note_on_c, 0, 83, 80
2, 77756, Note_off_c, 0, 83, 100
2, 77760, Note_on_c, 0, 84, 80
2, 77948, Note_off_c, 0, 84, 100
2, 77952, Note_on_c, 0, 78, 80
2, 78332, Note_off_c, 0, 78, 100
2, 78528, Note_on_c, 0, 78, 80
2, 78716, Note_off_c, 0, 78, 100
2, 78720, Note_on_c, 0, 77, 80
2, 78908, Note_off_c, 0, 77, 100
2, 78912, Note_on_c, 0, 78, 80
2, 79100, Note_off_c, 0, 78, 100
2, 79104, Note_on_c, 0, 79, 80
2, 79484, Note_off_c, 0, 79, 100
2, 79680, Note_on_c, 0, 79, 80
2, 79868, Note_off_c, 0, 79, 100
2, 79872, Note_on_c, 0, 78, 80
2, 80060, Note_off_c, 0, 78, 100
2, 80064, Note_on_c, 0, 79, 80
2, 80252, Note_off_c, 0, 79, 100
2, 80256, Note_on_c, 0, 76, 80
2, 80256, Note_on_c, 0, 72, 80
2, 80256, Note_on_c, 0, 67, 80
2, 80636, Note_off_c, 0, 76, 100
2, 80636, Note_off_c, 0, 72, 100
2, 80636, Note_off_c, 0, 67, 100
2, 80640, Note_on_c, 0, 69, 80
2, 80640, Note_on_c, 0, 74, 80
2, 80640, Note_on_c, 0, 77, 80
2, 81020, Note_off_c, 0, 69, 100
2, 81020, Note_off_c, 0, 74, 100
2, 81020, Note_off_c, 0, 77, 100
2, 81024, Note_on_c, 0, 74, 80
2, 81024, Note_on_c, 0, 71, 80
2, 81024, Note_on_c, 0, 65, 80
2, 81404, Note_off_c, 0, 74, 100
2, 81404, Note_off_c, 0, 71, 100
2, 81404, Note_off_c, 0, 65, 100
2, 81408, Note_on_c, 0, 72, 80
2, 81408, Note_on_c, 0, 64, 80
2, 81788, Note_off_c, 0, 72, 100
2, 81788, Note_off_c, 0, 64, 100
2, 81984, Note_on_c, 0, 60, 80
2, 82172, Note_off_c, 0, 60, 100
2, 82176, Note_on_c, 0, 59, 80
2, 82364, Note_off_c, 0, 59, 100
2, 82368, Note_on_c, 0, 60, 80
2, 82556, Note_off_c, 0, 60, 100
2, 82560, Note_on_c, 0, 61, 105
2, 82940, Note_off_c, 0, 61, 100
2, 82944, Note_on_c, 0, 60, 80
2, 83132, Note_off_c, 0, 60, 100
2, 83328, Note_on_c, 0, 76, 110
2, 83328, Note_on_c, 0, 72, 110
2, 83708, Note_off_c, 0, 76, 100
2, 83708, Note_off_c, 0, 72, 100
2, 83712, Note_on_c, 0, 77, 110
2, 83712, Note_on_c, 0, 74, 110
2, 83712, Note_on_c, 0, 71, 110
2, 84092, Note_off_c, 0, 77, 100
2, 84092, Note_off_c, 0, 74, 100
2, 84092, Note_off_c, 0, 71, 100
2, 84096, Note_on_c, 0, 76, 110
2, 84096, Note_on_c, 0, 72, 110
2, 84284, Note_off_c, 0, 76, 100
2, 84284, Note_off_c, 0, 72, 100
2, 84288, Note_on_c, 0, 60, 80
2, 84476, Note_off_c, 0, 60, 100
2, 84480, Note_on_c, 0, 59, 80
2, 84668, Note_off_c, 0, 59, 100
2, 84672, Note_on_c, 0, 60, 80
2, 84860, Note_off_c, 0, 60, 100
2, 84864, Note_on_c, 0, 61, 80
2, 85244, Note_off_c, 0, 61, 100
2, 85248, Note_on_c, 0, 60, 80
2, 85436, Note_off_c, 0, 60, 100
2, 85632, Note_on_c, 0, 76, 100
2, 85632, Note_on_c, 0, 79, 100
2, 85632, Note_on_c, 0, 84, 100
2, 86012, Note_off_c, 0, 76, 100
2, 86012, Note_off_c, 0, 79, 100
2, 86012, Note_off_c, 0, 84, 100
2, 86016, Note_on_c, 0, 77, 100
2, 86016, Note_on_c, 0, 80, 100
2, 86016, Note_on_c, 0, 83, 100
2, 86396, Note_off_c, 0, 77, 100
2, 86396, Note_off_c, 0, 80, 100
2, 86396, Note_off_c, 0, 83, 100
2, 86400, Note_on_c, 0, 76, 100
2, 86400, Note_on_c, 0, 79, 100
2, 86400, Note_on_c, 0, 84, 100
2, 86588, Note_off_c, 0, 76, 100
2, 86588, Note_off_c, 0, 79, 100
2, 86588, Note_off_c, 0, 84, 100
2, 86592, Note_on_c, 0, 60, 80
2, 86780, Note_off_c, 0, 60, 100
2, 86784, Note_on_c, 0, 59, 80
2, 86972, Note_off_c, 0, 59, 100
2, 86976, Note_on_c, 0, 60, 80
2, 87164, Note_off_c, 0, 60, 100
2, 87168, Note_on_c, 0, 61, 104
2, 87548, Note_off_c, 0, 61, 100
2, 87552, Note_on_c, 0, 60, 80
2, 87740, Note_off_c, 0, 60, 100
2, 87936, Note_on_c, 0, 84, 100
2, 87936, Note_on_c, 0, 88, 100
2, 88316, Note_off_c, 0, 84, 100
2, 88316, Note_off_c, 0, 88, 100
2, 88320, Note_on_c, 0, 89, 100
2, 88320, Note_on_c, 0, 86, 100
2, 88320, Note_on_c, 0, 83, 100
2, 88700, Note_off_c, 0, 89, 100
2, 88700, Note_off_c, 0, 86, 100
2, 88700, Note_off_c, 0, 83, 100
2, 88704, Note_on_c, 0, 84, 100
2, 88704, Note_on_c, 0, 88, 100
2, 89084, Note_off_c, 0, 84, 100
2, 89084, Note_off_c, 0, 88, 100
2, 89088, Note_on_c, 0, 84, 100
2, 89088, Note_on_c, 0, 88, 100
2, 89468, Note_off_c, 0, 84, 100
2, 89468, Note_off_c, 0, 88, 100
2, 89472, Note_on_c, 0, 89, 100
2, 89472, Note_on_c, 0, 86, 100
2, 89472, Note_on_c, 0, 83, 100
2, 89852, Note_off_c, 0, 89, 100
2, 89852, Note_off_c, 0, 86, 100
2, 89852, Note_off_c, 0, 83, 100
2, 89856, Note_on_c, 0, 84, 100
2, 89856, Note_on_c, 0, 88, 100
2, 90236, Note_off_c, 0, 84, 100
2, 90236, Note_off_c, 0, 88, 100
2, 90240, Note_on_c, 0, 84, 100
2, 90240, Note_on_c, 0, 88, 100
2, 90620, Note_off_c, 0, 84, 100
2, 90620, Note_off_c, 0, 88, 100
2, 90624, Note_on_c, 0, 89, 100
2, 90624, Note_on_c, 0, 86, 100
2, 90624, Note_on_c, 0, 83, 100
2, 91004, Note_off_c, 0, 89, 100
2, 91004, Note_off_c, 0, 86, 100
2, 91004, Note_off_c, 0, 83, 100
2, 91008, Note_on_c, 0, 84, 100
2, 91008, Note_on_c, 0, 88, 100
2, 91388, Note_off_c, 0, 84, 100
2, 91388, Note_off_c, 0, 88, 100
2, 91392, Note_on_c, 0, 72, 120
2, 91392, Note_on_c, 0, 84, 120
2, 91772, Note_off_c, 0, 72, 100
2, 91772, Note_off_c, 0, 84, 100
2, 91776, Note_on_c, 0, 72, 120
2, 91776, Note_on_c, 0, 60, 120
2, 92156, Note_off_c, 0, 72, 100
2, 92156, Note_off_c, 0, 60, 100
2, 93504, Note_on_c, 0, 71, 80
2, 93692, Note_off_c, 0, 71, 100
2, 93696, Note_on_c, 0, 69, 80
2, 93884, Note_off_c, 0, 69, 100
2, 93888, Note_on_c, 0, 71, 80
2, 94076, Note_off_c, 0, 71, 100
2, 94080, Note_on_c, 0, 72, 80
2, 94460, Note_off_c, 0, 72, 100
2, 94656, Note_on_c, 0, 72, 80
2, 94844, Note_off_c, 0, 72, 100
2, 94848, Note_on_c, 0, 71, 80
2, 95036, Note_off_c, 0, 71, 100
2, 95040, Note_on_c, 0, 72, 80
2, 95228, Note_off_c, 0, 72, 100
2, 95232, Note_on_c, 0, 69, 80
2, 95612, Note_off_c, 0, 69, 100
2, 95808, Note_on_c, 0, 69, 80
2, 95996, Note_off_c, 0, 69, 100
2, 96000, Note_on_c, 0, 67, 80
2, 96188, Note_off_c, 0, 67, 100
2, 96192, Note_on_c, 0, 69, 80
2, 96380, Note_off_c, 0, 69, 100
2, 96384, Note_on_c, 0, 70, 80
2, 96764, Note_off_c, 0, 70, 100
2, 96960, Note_on_c, 0, 70, 80
2, 97148, Note_off_c, 0, 70, 100
2, 97152, Note_on_c, 0, 69, 80
2, 97340, Note_off_c, 0, 69, 100
2, 97344, Note_on_c, 0, 70, 80
2, 97532, Note_off_c, 0, 70, 100
2, 97536, Note_on_c, 0, 78, 80
2, 97916, Note_off_c, 0, 78, 100
2, 97920, Note_on_c, 0, 77, 80
2, 98300, Note_off_c, 0, 77, 100
2, 98304, Note_on_c, 0, 75, 80
2, 98684, Note_off_c, 0, 75, 100
2, 98688, Note_on_c, 0, 73, 80
2, 99068, Note_off_c, 0, 73, 100
2, 99072, Note_on_c, 0, 72, 80
2, 99452, Note_off_c, 0, 72, 100
2, 99456, Note_on_c, 0, 70, 80
2, 99836, Note_off_c, 0, 70, 100
2, 99840, Note_on_c, 0, 77, 80
2, 99840, Note_on_c, 0, 89, 80
2, 100220, Note_off_c, 0, 77, 100
2, 100220, Note_off_c, 0, 89, 100
2, 100224, Note_on_c, 0, 75, 80
2, 100224, Note_on_c, 0, 87, 80
2, 100604, Note_off_c, 0, 75, 100
2, 100604, Note_off_c, 0, 87, 100
2, 100608, Note_on_c, 0, 73, 80
2, 100608, Note_on_c, 0, 85, 80
2, 100988, Note_off_c, 0, 73, 100
2, 100988, Note_off_c, 0, 85, 100
2, 100992, Note_on_c, 0, 72, 80
2, 100992, Note_on_c, 0, 84, 80
2, 101372, Note_off_c, 0, 72, 100
2, 101372, Note_off_c, 0, 84, 100
2, 101376, Note_on_c, 0, 70, 80
2, 101376, Note_on_c, 0, 82, 80
2, 101756, Note_off_c, 0, 70, 100
2, 101756, Note_off_c, 0, 82, 100
2, 101760, Note_on_c, 0, 68, 80
2, 101760, Note_on_c, 0, 80, 80
2, 102140, Note_off_c, 0, 68, 100
2, 102140, Note_off_c, 0, 80, 100
2, 102144, Note_on_c, 0, 87, 80
2, 102144, Note_on_c, 0, 75, 80
2, 102524, Note_off_c, 0, 87, 100
2, 102524, Note_off_c, 0, 75, 100
2, 102528, Note_on_c, 0, 86, 80
2, 102528, Note_on_c, 0, 74, 80
2, 102908, Note_off_c, 0, 86, 100
2, 102908, Note_off_c, 0, 74, 100
2, 102912, Note_on_c, 0, 84, 80
2, 102912, Note_on_c, 0, 72, 80
2, 103292, Note_off_c, 0, 84, 100
2, 103292, Note_off_c, 0, 72, 100
2, 103296, Note_on_c, 0, 83, 80
2, 103296, Note_on_c, 0, 71, 80
2, 103676, Note_off_c, 0, 83, 100
2, 103676, Note_off_c, 0, 71, 100
2, 103680, Note_on_c, 0, 81, 80
2, 103680, Note_on_c, 0, 69, 80
2, 104060, Note_off_c, 0, 81, 100
2, 104060, Note_off_c, 0, 69, 100
2, 104064, Note_on_c, 0, 79, 80
2, 104064, Note_on_c, 0, 67, 80
2, 104444, Note_off_c, 0, 79, 100
2, 104444, Note_off_c, 0, 67, 100
2, 104448, Note_on_c, 0, 75, 110
2, 104448, Note_on_c, 0, 63, 110
2, 104828, Note_off_c, 0, 75, 100
2, 104828, Note_off_c, 0, 63, 100
2, 104832, Note_on_c, 0, 74, 110
2, 104832, Note_on_c, 0, 62, 110
2, 105212, Note_off_c, 0, 74, 100
2, 105212, Note_off_c, 0, 62, 100
2, 105216, Note_on_c, 0, 72, 110
2, 105216, Note_on_c, 0, 60, 110
2, 105596, Note_off_c, 0, 72, 100
2, 105596, Note_off_c, 0, 60, 100
2, 105600, Note_on_c, 0, 67, 110
2, 105600, Note_on_c, 0, 55, 110
2, 105980, Note_off_c, 0, 67, 100
2, 105980, Note_off_c, 0, 55, 100
2, 106176, Note_on_c, 0, 55, 80
2, 106364, Note_off_c, 0, 55, 100
2, 106368, Note_on_c, 0, 54, 80
2, 106556, Note_off_c, 0, 54, 100
2, 106560, Note_on_c, 0, 55, 80
2, 106748, Note_off_c, 0, 55, 100
2, 106752, Note_on_c, 0, 56, 80
2, 107132, Note_off_c, 0, 56, 100
2, 107136, Note_on_c, 0, 55, 80
2, 107324, Note_off_c, 0, 55, 100
2, 107520, Note_on_c, 0, 79, 110
2, 107520, Note_on_c, 0, 74, 110
2, 107520, Note_on_c, 0, 71, 110
2, 107900, Note_off_c, 0, 79, 100
2, 107900, Note_off_c, 0, 74, 100
2, 107900, Note_off_c, 0, 71, 100
2, 107904, Note_on_c, 0, 78, 100
2, 107904, Note_on_c, 0, 75, 100
2, 107904, Note_on_c, 0, 72, 100
2, 107904, Note_on_c, 0, 69, 100
2, 108284, Note_off_c, 0, 78, 100
2, 108284, Note_off_c, 0, 75, 100
2, 108284, Note_off_c, 0, 72, 100
2, 108284, Note_off_c, 0, 69, 100
2, 108288, Note_on_c, 0, 79, 100
2, 108288, Note_on_c, 0, 74, 100
2, 108288, Note_on_c, 0, 71, 100
2, 108476, Note_off_c, 0, 79, 100
2, 108476, Note_off_c, 0, 74, 100
2, 108476, Note_off_c, 0, 71, 100
2, 108480, Note_on_c, 0, 55, 80
2, 108668, Note_off_c, 0, 55, 100
2, 108672, Note_on_c, 0, 54, 80
2, 108860, Note_off_c, 0, 54, 100
2, 108864, Note_on_c, 0, 55, 80
2, 109052, Note_off_c, 0, 55, 100
2, 109056, Note_on_c, 0, 56, 80
2, 109436, Note_off_c, 0, 56, 100
2, 109440, Note_on_c, 0, 55, 80
2, 109628, Note_off_c, 0, 55, 100
2, 109824, Note_on_c, 0, 79, 110
2, 109824, Note_on_c, 0, 74, 110
2, 109824, Note_on_c, 0, 71, 110
2, 110204, Note_off_c, 0, 79, 100
2, 110204, Note_off_c, 0, 74, 100
2, 110204, Note_off_c, 0, 71, 100
2, 110208, Note_on_c, 0, 81, 100
2, 110208, Note_on_c, 0, 78, 100
2, 110208, Note_on_c, 0, 75, 100
2, 110208, Note_on_c, 0, 72, 100
2, 110588, Note_off_c, 0, 81, 100
2, 110588, Note_off_c, 0, 78, 100
2, 110588, Note_off_c, 0, 75, 100
2, 110588, Note_off_c, 0, 72, 100
2, 110592, Note_on_c, 0, 79, 100
2, 110592, Note_on_c, 0, 74, 100
2, 110592, Note_on_c, 0, 71, 100
2, 110780, Note_off_c, 0, 79, 100
2, 110780, Note_off_c, 0, 74, 100
2, 110780, Note_off_c, 0, 71, 100
2, 110784, Note_on_c, 0, 55, 80
2, 110972, Note_off_c, 0, 55, 100
2, 110976, Note_on_c, 0, 54, 80
2, 111164, Note_off_c, 0, 54, 100
2, 111168, Note_on_c, 0, 55, 80
2, 111356, Note_off_c, 0, 55, 100
2, 111360, Note_on_c, 0, 56, 80
2, 111740, Note_off_c, 0, 56, 100
2, 111744, Note_on_c, 0, 55, 80
2, 111932, Note_off_c, 0, 55, 100
2, 112128, Note_on_c, 0, 79, 110
2, 112128, Note_on_c, 0, 74, 110
2, 112128, Note_on_c, 0, 71, 110
2, 112508, Note_off_c, 0, 79, 100
2, 112508, Note_off_c, 0, 74, 100
2, 112508, Note_off_c, 0, 71, 100
2, 112512, Note_on_c, 0, 80, 100
2, 112512, Note_on_c, 0, 75, 100
2, 112512, Note_on_c, 0, 72, 100
2, 112892, Note_off_c, 0, 80, 100
2, 112892, Note_off_c, 0, 75, 100
2, 112892, Note_off_c, 0, 72, 100
2, 112896, Note_on_c, 0, 79, 100
2, 112896, Note_on_c, 0, 74, 100
2, 112896, Note_on_c, 0, 71, 100
2, 113084, Note_off_c, 0, 79, 100
2, 113084, Note_off_c, 0, 74, 100
2, 113084, Note_off_c, 0, 71, 100
2, 113280, Note_on_c, 0, 79, 110
2, 113280, Note_on_c, 0, 74, 110
2, 113280, Note_on_c, 0, 71, 110
2, 113660, Note_off_c, 0, 79, 100
2, 113660, Note_off_c, 0, 74, 100
2, 113660, Note_off_c, 0, 71, 100
2, 113664, Note_on_c, 0, 80, 100
2, 113664, Note_on_c, 0, 75, 100
2, 113664, Note_on_c, 0, 72, 100
2, 114044, Note_off_c, 0, 80, 100
2, 114044, Note_off_c, 0, 75, 100
2, 114044, Note_off_c, 0, 72, 100
2, 114048, Note_on_c, 0, 79, 100
2, 114048, Note_on_c, 0, 74, 100
2, 114048, Note_on_c, 0, 71, 100
2, 114236, Note_off_c, 0, 79, 100
2, 114236, Note_off_c, 0, 74, 100
2, 114236, Note_off_c, 0, 71, 100
2, 114432, Note_on_c, 0, 79, 110
2, 114432, Note_on_c, 0, 74, 110
2, 114432, Note_on_c, 0, 71, 110
2, 114812, Note_off_c, 0, 79, 100
2, 114812, Note_off_c, 0, 74, 100
2, 114812, Note_off_c, 0, 71, 100
2, 114816, Note_on_c, 0, 80, 100
2, 114816, Note_on_c, 0, 75, 100
2, 114816, Note_on_c, 0, 72, 100
2, 115196, Note_off_c, 0, 80, 100
2, 115196, Note_off_c, 0, 75, 100
2, 115196, Note_off_c, 0, 72, 100
2, 115200, Note_on_c, 0, 79, 100
2, 115200, Note_on_c, 0, 74, 100
2, 115200, Note_on_c, 0, 71, 100
2, 115388, Note_off_c, 0, 79, 100
2, 115388, Note_off_c, 0, 74, 100
2, 115388, Note_off_c, 0, 71, 100
2, 115392, Note_on_c, 0, 79, 90
2, 115580, Note_off_c, 0, 79, 100
2, 115584, Note_on_c, 0, 78, 89
2, 115772, Note_off_c, 0, 78, 100
2, 115776, Note_on_c, 0, 79, 87
2, 115964, Note_off_c, 0, 79, 100
2, 115968, Note_on_c, 0, 80, 85
2, 116348, Note_off_c, 0, 80, 100
2, 116352, Note_on_c, 0, 79, 81
2, 116540, Note_off_c, 0, 79, 100
2, 116544, Note_on_c, 0, 79, 80
2, 116732, Note_off_c, 0, 79, 100
2, 116736, Note_on_c, 0, 78, 78
2, 116924, Note_off_c, 0, 78, 100
2, 116928, Note_on_c, 0, 79, 76
2, 117116, Note_off_c, 0, 79, 100
2, 117120, Note_on_c, 0, 80, 74
2, 117500, Note_off_c, 0, 80, 100
2, 117504, Note_on_c, 0, 79, 71
2, 117692, Note_off_c, 0, 79, 100
2, 117696, Note_on_c, 0, 79, 70
2, 117884, Note_off_c, 0, 79, 100
2, 117888, Note_on_c, 0, 78, 70
2, 118076, Note_off_c, 0, 78, 100
2, 118080, Note_on_c, 0, 79, 70
2, 118268, Note_off_c, 0, 79, 100
2, 118272, Note_on_c, 0, 80, 70
2, 118652, Note_off_c, 0, 80, 100
2, 118656, Note_on_c, 0, 79, 70
2, 118844, Note_off_c, 0, 79, 100
2, 118848, Note_on_c, 0, 79, 80
2, 119036, Note_off_c, 0, 79, 100
2, 119040, Note_on_c, 0, 78, 80
2, 119228, Note_off_c, 0, 78, 100
2, 119232, Note_on_c, 0, 79, 80
2, 119420, Note_off_c, 0, 79, 100
2, 119424, Note_on_c, 0, 81, 80
2, 119804, Note_off_c, 0, 81, 100
2, 119808, Note_on_c, 0, 79, 80
2, 120188, Note_off_c, 0, 79, 100
2, 120192, Note_on_c, 0, 77, 80
2, 120572, Note_off_c, 0, 77, 100
2, 120576, Note_on_c, 0, 76, 80
2, 120956, Note_off_c, 0, 76, 100
2, 120960, Note_on_c, 0, 74, 80
2, 121340, Note_off_c, 0, 74, 100
2, 121344, Note_on_c, 0, 72, 80
2, 121724, Note_off_c, 0, 72, 100
2, 121728, Note_on_c, 0, 71, 80
2, 122876, Note_off_c, 0, 71, 100
2, 122880, Note_on_c, 0, 72, 80
2, 124028, Note_off_c, 0, 72, 100
2, 124032, Note_on_c, 0, 74, 80
2, 124032, Note_on_c, 0, 71, 80
2, 124032, Note_on_c, 0, 67, 80
2, 125180, Note_off_c, 0, 74, 100
2, 125180, Note_off_c, 0, 71, 100
2, 125180, Note_off_c, 0, 67, 100
2, 125184, Note_on_c, 0, 72, 80
2, 125184, Note_on_c, 0, 67, 80
2, 125184, Note_on_c, 0, 76, 80
2, 126332, Note_off_c, 0, 72, 100
2, 126332, Note_off_c, 0, 67, 100
2, 126336, Note_on_c, 0, 73, 80
2, 126336, Note_on_c, 0, 69, 80
2, 126716, Note_off_c, 0, 76, 100
2, 126716, Note_off_c, 0, 73, 100
2, 126720, Note_on_c, 0, 74, 80
2, 126720, Note_on_c, 0, 77, 80
2, 127100, Note_off_c, 0, 69, 100
2, 127100, Note_off_c, 0, 74, 100
2, 127100, Note_off_c, 0, 77, 100
2, 127104, Note_on_c, 0, 74, 80
2, 127104, Note_on_c, 0, 71, 80
2, 127104, Note_on_c, 0, 65, 80
2, 127484, Note_off_c, 0, 74, 100
2, 127484, Note_off_c, 0, 71, 100
2, 127484, Note_off_c, 0, 65, 100
2, 127488, Note_on_c, 0, 72, 80
2, 127488, Note_on_c, 0, 64, 80
2, 127868, Note_off_c, 0, 72, 100
2, 127868, Note_off_c, 0, 64, 100
2, 129216, Note_on_c, 0, 76, 80
2, 129404, Note_off_c, 0, 76, 100
2, 129408, Note_on_c, 0, 74, 80
2, 129596, Note_off_c, 0, 74, 100
2, 129600, Note_on_c, 0, 76, 80
2, 129788, Note_off_c, 0, 76, 100
2, 129792, Note_on_c, 0, 77, 80
2, 130172, Note_off_c, 0, 77, 100
2, 130368, Note_on_c, 0, 77, 80
2, 130556, Note_off_c, 0, 77, 100
2, 130560, Note_on_c, 0, 76, 80
2, 130748, Note_off_c, 0, 76, 100
2, 130752, Note_on_c, 0, 77, 80
2, 130940, Note_off_c, 0, 77, 100
2, 130944, Note_on_c, 0, 83, 80
2, 131324, Note_off_c, 0, 83, 100
2, 131520, Note_on_c, 0, 83, 80
2, 131708, Note_off_c, 0, 83, 100
2, 131712, Note_on_c, 0, 81, 80
2, 131900, Note_off_c, 0, 81, 100
2, 131904, Note_on_c, 0, 83, 80
2, 132092, Note_off_c, 0, 83, 100
2, 132096, Note_on_c, 0, 84, 80
2, 132476, Note_off_c, 0, 84, 100
2, 132672, Note_on_c, 0, 84, 80
2, 132860, Note_off_c, 0, 84, 100
2, 132864, Note_on_c, 0, 83, 80
2, 133052, Note_off_c, 0, 83, 100
2, 133056, Note_on_c, 0, 84, 80
2, 133244, Note_off_c, 0, 84, 100
2, 133248, Note_on_c, 0, 78, 80
2, 133628, Note_off_c, 0, 78, 100
2, 133824, Note_on_c, 0, 78, 80
2, 134012, Note_off_c, 0, 78, 100
2, 134016, Note_on_c, 0, 77, 80
2, 134204, Note_off_c, 0, 77, 100
2, 134208, Note_on_c, 0, 78, 80
2, 134396, Note_off_c, 0, 78, 100
2, 134400, Note_on_c, 0, 79, 80
2, 134780, Note_off_c, 0, 79, 100
2, 134976, Note_on_c, 0, 79, 80
2, 135164, Note_off_c, 0, 79, 100
2, 135168, Note_on_c, 0, 78, 80
2, 135356, Note_off_c, 0, 78, 100
2, 135360, Note_on_c, 0, 79, 80
2, 135548, Note_off_c, 0, 79, 100
2, 135552, Note_on_c, 0, 76, 80
2, 135552, Note_on_c, 0, 72, 80
2, 135552, Note_on_c, 0, 67, 80
2, 135932, Note_off_c, 0, 76, 100
2, 135932, Note_off_c, 0, 72, 100
2, 135932, Note_off_c, 0, 67, 100
2, 135936, Note_on_c, 0, 69, 80
2, 135936, Note_on_c, 0, 74, 80
2, 135936, Note_on_c, 0, 77, 80
2, 136316, Note_off_c, 0, 69, 100
2, 136316, Note_off_c, 0, 74, 100
2, 136316, Note_off_c, 0, 77, 100
2, 136320, Note_on_c, 0, 74, 80
2, 136320, Note_on_c, 0, 71, 80
2, 136320, Note_on_c, 0, 65, 80
2, 136700, Note_off_c, 0, 74, 100
2, 136700, Note_off_c, 0, 71, 100
2, 136700, Note_off_c, 0, 65, 100
2, 136704, Note_on_c, 0, 72, 80
2, 136704, Note_on_c, 0, 64, 80
2, 137084, Note_off_c, 0, 72, 100
2, 137084, Note_off_c, 0, 64, 100
2, 137280, Note_on_c, 0, 60, 80
2, 137468, Note_off_c, 0, 60, 100
2, 137472, Note_on_c, 0, 59, 80
2, 137660, Note_off_c, 0, 59, 100
2, 137664, Note_on_c, 0, 60, 80
2, 137852, Note_off_c, 0, 60, 100
2, 137856, Note_on_c, 0, 61, 103
2, 138236, Note_off_c, 0, 61, 100
2, 138240, Note_on_c, 0, 60, 80
2, 138428, Note_off_c, 0, 60, 100
2, 138624, Note_on_c, 0, 76, 100
2, 138624, Note_on_c, 0, 72, 100
2, 139004, Note_off_c, 0, 76, 100
2, 139004, Note_off_c, 0, 72, 100
2, 139008, Note_on_c, 0, 77, 100
2, 139008, Note_on_c, 0, 74, 100
2, 139008, Note_on_c, 0, 71, 100
2, 139388, Note_off_c, 0, 77, 100
2, 139388, Note_off_c, 0, 74, 100
2, 139388, Note_off_c, 0, 71, 100
2, 139392, Note_on_c, 0, 76, 100
2, 139392, Note_on_c, 0, 72, 100
2, 139580, Note_off_c, 0, 76, 100
2, 139580, Note_off_c, 0, 72, 100
2, 139584, Note_on_c, 0, 60, 80
2, 139772, Note_off_c, 0, 60, 100
2, 139776, Note_on_c, 0, 59, 80
2, 139964, Note_off_c, 0, 59, 100
2, 139968, Note_on_c, 0, 60, 80
2, 140156, Note_off_c, 0, 60, 100
2, 140160, Note_on_c, 0, 61, 101
2, 140540, Note_off_c, 0, 61, 100
2, 140544, Note_on_c, 0, 60, 80
2, 140732, Note_off_c, 0, 60, 100
2, 140928, Note_on_c, 0, 76, 100
2, 140928, Note_on_c, 0, 79, 100
2, 140928, Note_on_c, 0, 84, 100
2, 141308, Note_off_c, 0, 76, 100
2, 141308, Note_off_c, 0, 79, 100
2, 141308, Note_off_c, 0, 84, 100
2, 141312, Note_on_c, 0, 77, 100
2, 141312, Note_on_c, 0, 80, 100
2, 141312, Note_on_c, 0, 83, 100
2, 141692, Note_off_c, 0, 77, 100
2, 141692, Note_off_c, 0, 80, 100
2, 141692, Note_off_c, 0, 83, 100
2, 141696, Note_on_c, 0, 76, 100
2, 141696, Note_on_c, 0, 79, 100
2, 141696, Note_on_c, 0, 84, 100
2, 141884, Note_off_c, 0, 76, 100
2, 141884, Note_off_c, 0, 79, 100
2, 141884, Note_off_c, 0, 84, 100
2, 141888, Note_on_c, 0, 60, 80
2, 142076, Note_off_c, 0, 60, 100
2, 142080, Note_on_c, 0, 59, 80
2, 142268, Note_off_c, 0, 59, 100
2, 142272, Note_on_c, 0, 60, 80
2, 142460, Note_off_c, 0, 60, 100
2, 142464, Note_on_c, 0, 61, 102
2, 142844, Note_off_c, 0, 61, 100
2, 142848, Note_on_c, 0, 60, 80
2, 143036, Note_off_c, 0, 60, 100
2, 143232, Note_on_c, 0, 84, 100
2, 143232, Note_on_c, 0, 88, 100
2, 143612, Note_off_c, 0, 84, 100
2, 143612, Note_off_c, 0, 88, 100
2, 143616, Note_on_c, 0, 89, 100
2, 143616, Note_on_c, 0, 86, 100
2, 143616, Note_on_c, 0, 83, 100
2, 143996, Note_off_c, 0, 89, 100
2, 143996, Note_off_c, 0, 86, 100
2, 143996, Note_off_c, 0, 83, 100
2, 144000, Note_on_c, 0, 84, 100
2, 144000, Note_on_c, 0, 88, 100
2, 144380, Note_off_c, 0, 84, 100
2, 144380, Note_off_c, 0, 88, 100
2, 144384, Note_on_c, 0, 84, 100
2, 144384, Note_on_c, 0, 88, 100
2, 144764, Note_off_c, 0, 84, 100
2, 144764, Note_off_c, 0, 88, 100
2, 144768, Note_on_c, 0, 89, 100
2, 144768, Note_on_c, 0, 86, 100
2, 144768, Note_on_c, 0, 83, 100
2, 145148, Note_off_c, 0, 89, 100
2, 145148, Note_off_c, 0, 86, 100
2, 145148, Note_off_c, 0, 83, 100
2, 145152, Note_on_c, 0, 84, 100
2, 145152, Note_on_c, 0, 88, 100
2, 145532, Note_off_c, 0, 84, 100
2, 145532, Note_off_c, 0, 88, 100
2, 145536, Note_on_c, 0, 84, 100
2, 145536, Note_on_c, 0, 88, 100
2, 145916, Note_off_c, 0, 84, 100
2, 145916, Note_off_c, 0, 88, 100
2, 145920, Note_on_c, 0, 89, 100
2, 145920, Note_on_c, 0, 86, 100
2, 145920, Note_on_c, 0, 83, 100
2, 146300, Note_off_c, 0, 89, 100
2, 146300, Note_off_c, 0, 86, 100
2, 146300, Note_off_c, 0, 83, 100
2, 146304, Note_on_c, 0, 84, 100
2, 146304, Note_on_c, 0, 88, 100
2, 146684, Note_off_c, 0, 84, 100
2, 146684, Note_off_c, 0, 88, 100
2, 146688, Note_on_c, 0, 72, 110
2, 146688, Note_on_c, 0, 84, 110
2, 147068, Note_off_c, 0, 72, 100
2, 147068, Note_off_c, 0, 84, 100
2, 147072, Note_on_c, 0, 72, 110
2, 147072, Note_on_c, 0, 60, 110
2, 147452, Note_off_c, 0, 72, 100
2, 147452, Note_off_c, 0, 60, 100
2, 148224, Note_on_c, 0, 52, 100
2, 148352, Note_on_c, 0, 57, 100
2, 148476, Note_off_c, 0, 52, 100
2, 148480, Note_on_c, 0, 60, 100
2, 148604, Note_off_c, 0, 57, 100
2, 148608, Note_on_c, 0, 64, 100
2, 148732, Note_off_c, 0, 60, 100
2, 148736, Note_on_c, 0, 69, 100
2, 148860, Note_off_c, 0, 64, 100
2, 148864, Note_on_c, 0, 72, 100
2, 148988, Note_off_c, 0, 69, 100
2, 148992, Note_on_c, 0, 76, 100
2, 149116, Note_off_c, 0, 72, 100
2, 149120, Note_on_c, 0, 72, 100
2, 149244, Note_off_c, 0, 76, 100
2, 149248, Note_on_c, 0, 69, 100
2, 149372, Note_off_c, 0, 72, 100
2, 149376, Note_on_c, 0, 76, 100
2, 149500, Note_off_c, 0, 69, 100
2, 149504, Note_on_c, 0, 71, 100
2, 149628, Note_off_c, 0, 76, 100
2, 149632, Note_on_c, 0, 68, 100
2, 149756, Note_off_c, 0, 71, 100
2, 149760, Note_on_c, 0, 64, 100
2, 149884, Note_off_c, 0, 68, 100
2, 149888, Note_on_c, 0, 59, 100
2, 150012, Note_off_c, 0, 64, 100
2, 150016, Note_on_c, 0, 56, 100
2, 150140, Note_off_c, 0, 59, 100
2, 150144, Note_on_c, 0, 52, 100
2, 150268, Note_off_c, 0, 56, 100
2, 150272, Note_on_c, 0, 56, 100
2, 150396, Note_off_c, 0, 52, 100
2, 150400, Note_on_c, 0, 59, 100
2, 150524, Note_off_c, 0, 56, 100
2, 150524, Note_off_c, 0, 59, 100
2, 150528, Note_on_c, 0, 52, 100
2, 150656, Note_on_c, 0, 57, 100
2, 150780, Note_off_c, 0, 52, 100
2, 150784, Note_on_c, 0, 60, 100
2, 150908, Note_off_c, 0, 57, 100
2, 150912, Note_on_c, 0, 64, 100
2, 151036, Note_off_c, 0, 60, 100
2, 151040, Note_on_c, 0, 69, 100
2, 151164, Note_off_c, 0, 64, 100
2, 151168, Note_on_c, 0, 72, 100
2, 151292, Note_off_c, 0, 69, 100
2, 151296, Note_on_c, 0, 76, 100
2, 151420, Note_off_c, 0, 72, 100
2, 151424, Note_on_c, 0, 72, 100
2, 151548, Note_off_c, 0, 76, 100
2, 151552, Note_on_c, 0, 69, 100
2, 151676, Note_off_c, 0, 72, 100
2, 151680, Note_on_c, 0, 76, 100
2, 151804, Note_off_c, 0, 69, 100
2, 151808, Note_on_c, 0, 71, 100
2, 151932, Note_off_c, 0, 76, 100
2, 151936, Note_on_c, 0, 68, 100
2, 152060, Note_off_c, 0, 71, 100
2, 152064, Note_on_c, 0, 64, 100
2, 152188, Note_off_c, 0, 68, 100
2, 152192, Note_on_c, 0, 59, 100
2, 152316, Note_off_c, 0, 64, 100
2, 152320, Note_on_c, 0, 56, 100
2, 152444, Note_off_c, 0, 59, 100
2, 152448, Note_on_c, 0, 52, 100
2, 152572, Note_off_c, 0, 56, 100
2, 152576, Note_on_c, 0, 56, 100
2, 152700, Note_off_c, 0, 52, 100
2, 152704, Note_on_c, 0, 59, 100
2, 152828, Note_off_c, 0, 56, 100
2, 152828, Note_off_c, 0, 59, 100
2, 152832, Note_on_c, 0, 52, 100
2, 152960, Note_on_c, 0, 57, 100
2, 153084, Note_off_c, 0, 52, 100
2, 153088, Note_on_c, 0, 60, 100
2, 153212, Note_off_c, 0, 57, 100
2, 153216, Note_on_c, 0, 64, 100
2, 153340, Note_off_c, 0, 60, 100
2, 153344, Note_on_c, 0, 69, 100
2, 153468, Note_off_c, 0, 64, 100
2, 153472, Note_on_c, 0, 72, 100
2, 153596, Note_off_c, 0, 69, 100
2, 153600, Note_on_c, 0, 76, 100
2, 153724, Note_off_c, 0, 72, 100
2, 153728, Note_on_c, 0, 72, 100
2, 153852, Note_off_c, 0, 76, 100
2, 153856, Note_on_c, 0, 69, 100
2, 153980, Note_off_c, 0, 72, 100
2, 153984, Note_on_c, 0, 76, 100
2, 154108, Note_off_c, 0, 69, 100
2, 154112, Note_on_c, 0, 72, 100
2, 154236, Note_off_c, 0, 76, 100
2, 154240, Note_on_c, 0, 67, 100
2, 154364, Note_off_c, 0, 72, 100
2, 154368, Note_on_c, 0, 64, 100
2, 154492, Note_off_c, 0, 67, 100
2, 154496, Note_on_c, 0, 60, 100
2, 154620, Note_off_c, 0, 64, 100
2, 154624, Note_on_c, 0, 55, 100
2, 154748, Note_off_c, 0, 60, 100
2, 154752, Note_on_c, 0, 52, 100
2, 154876, Note_off_c, 0, 55, 100
2, 154880, Note_on_c, 0, 55, 100
2, 155004, Note_off_c, 0, 52, 100
2, 155008, Note_on_c, 0, 59, 100
2, 155132, Note_off_c, 0, 55, 100
2, 155132, Note_off_c, 0, 59, 100
2, 155136, Note_on_c, 0, 64, 100
2, 155264, Note_on_c, 0, 61, 98
2, 155388, Note_off_c, 0, 64, 100
2, 155392, Note_on_c, 0, 55, 96
2, 155516, Note_off_c, 0, 61, 100
2, 155520, Note_on_c, 0, 64, 93
2, 155644, Note_off_c, 0, 55, 100
2, 155648, Note_on_c, 0, 59, 91
2, 155772, Note_off_c, 0, 64, 100
2, 155776, Note_on_c, 0, 55, 88
2, 155900, Note_off_c, 0, 59, 100
2, 155904, Note_on_c, 0, 63, 86
2, 156028, Note_off_c, 0, 55, 100
2, 156032, Note_on_c, 0, 59, 83
2, 156156, Note_off_c, 0, 63, 100
2, 156160, Note_on_c, 0, 54, 81
2, 156284, Note_off_c, 0, 59, 100
2, 156284, Note_off_c, 0, 54, 100
2, 156288, Note_on_c, 0, 64, 80
2, 156288, Note_on_c, 0, 59, 80
2, 156288, Note_on_c, 0, 55, 80
2, 156668, Note_off_c, 0, 64, 100
2, 156668, Note_off_c, 0, 59, 100
2, 156668, Note_off_c, 0, 55, 100
2, 157440, Note_on_c, 0, 52, 100
2, 157568, Note_on_c, 0, 57, 100
2, 157692, Note_off_c, 0, 52, 100
2, 157696, Note_on_c, 0, 60, 100
2, 157820, Note_off_c, 0, 57, 100
2, 157824, Note_on_c, 0, 64, 100
2, 157948, Note_off_c, 0, 60, 100
2, 157952, Note_on_c, 0, 69, 100
2, 158076, Note_off_c, 0, 64, 100
2, 158080, Note_on_c, 0, 72, 100
2, 158204, Note_off_c, 0, 69, 100
2, 158208, Note_on_c, 0, 76, 100
2, 158332, Note_off_c, 0, 72, 100
2, 158336, Note_on_c, 0, 72, 100
2, 158460, Note_off_c, 0, 76, 100
2, 158464, Note_on_c, 0, 69, 100
2, 158588, Note_off_c, 0, 72, 100
2, 158592, Note_on_c, 0, 76, 100
2, 158716, Note_off_c, 0, 69, 100
2, 158720, Note_on_c, 0, 71, 100
2, 158844, Note_off_c, 0, 76, 100
2, 158848, Note_on_c, 0, 68, 100
2, 158972, Note_off_c, 0, 71, 100
2, 158976, Note_on_c, 0, 64, 100
2, 159100, Note_off_c, 0, 68, 100
2, 159104, Note_on_c, 0, 59, 100
2, 159228, Note_off_c, 0, 64, 100
2, 159232, Note_on_c, 0, 56, 100
2, 159356, Note_off_c, 0, 59, 100
2, 159360, Note_on_c, 0, 52, 100
2, 159484, Note_off_c, 0, 56, 100
2, 159488, Note_on_c, 0, 56, 100
2, 159612, Note_off_c, 0, 52, 100
2, 159616, Note_on_c, 0, 59, 100
2, 159740, Note_off_c, 0, 56, 100
2, 159740, Note_off_c, 0, 59, 100
2, 159744, Note_on_c, 0, 52, 100
2, 159872, Note_on_c, 0, 57, 100
2, 159996, Note_off_c, 0, 52, 100
2, 160000, Note_on_c, 0, 60, 100
2, 160124, Note_off_c, 0, 57, 100
2, 160128, Note_on_c, 0, 64, 100
2, 160252, Note_off_c, 0, 60, 100
2, 160256, Note_on_c, 0, 69, 100
2, 160380, Note_off_c, 0, 64, 100
2, 160384, Note_on_c, 0, 72, 100
2, 160508, Note_off_c, 0, 69, 100
2, 160512, Note_on_c, 0, 76, 100
2, 160636, Note_off_c, 0, 72, 100
2, 160640, Note_on_c, 0, 72, 100
2, 160764, Note_off_c, 0, 76, 100
2, 160768, Note_on_c, 0, 69, 100
2, 160892, Note_off_c, 0, 72, 100
2, 160896, Note_on_c, 0, 76, 100
2, 161020, Note_off_c, 0, 69, 100
2, 161024, Note_on_c, 0, 71, 100
2, 161148, Note_off_c, 0, 76, 100
2, 161152, Note_on_c, 0, 68, 100
2, 161276, Note_off_c, 0, 71, 100
2, 161280, Note_on_c, 0, 64, 100
2, 161404, Note_off_c, 0, 68, 100
2, 161408, Note_on_c, 0, 59, 100
2, 161532, Note_off_c, 0, 64, 100
2, 161536, Note_on_c, 0, 56, 100
2, 161660, Note_off_c, 0, 59, 100
2, 161664, Note_on_c, 0, 52, 100
2, 161788, Note_off_c, 0, 56, 100
2, 161792, Note_on_c, 0, 56, 100
2, 161916, Note_off_c, 0, 52, 100
2, 161920, Note_on_c, 0, 59, 100
2, 162044, Note_off_c, 0, 56, 100
2, 162044, Note_off_c, 0, 59, 100
2, 162048, Note_on_c, 0, 52, 100
2, 162176, Note_on_c, 0, 57, 100
2, 162300, Note_off_c, 0, 52, 100
2, 162304, Note_on_c, 0, 60, 100
2, 162428, Note_off_c, 0, 57, 100
2, 162432, Note_on_c, 0, 64, 100
2, 162556, Note_off_c, 0, 60, 100
2, 162560, Note_on_c, 0, 69, 100
2, 162684, Note_off_c, 0, 64, 100
2, 162688, Note_on_c, 0, 72, 100
2, 162812, Note_off_c, 0, 69, 100
2, 162816, Note_on_c, 0, 76, 100
2, 162940, Note_off_c, 0, 72, 100
2, 162944, Note_on_c, 0, 72, 100
2, 163068, Note_off_c, 0, 76, 100
2, 163072, Note_on_c, 0, 69, 100
2, 163196, Note_off_c, 0, 72, 100
2, 163200, Note_on_c, 0, 76, 100
2, 163324, Note_off_c, 0, 69, 100
2, 163328, Note_on_c, 0, 72, 100
2, 163452, Note_off_c, 0, 76, 100
2, 163456, Note_on_c, 0, 67, 100
2, 163580, Note_off_c, 0, 72, 100
2, 163584, Note_on_c, 0, 64, 100
2, 163708, Note_off_c, 0, 67, 100
2, 163712, Note_on_c, 0, 60, 100
2, 163836, Note_off_c, 0, 64, 100
2, 163840, Note_on_c, 0, 55, 100
2, 163964, Note_off_c, 0, 60, 100
2, 163968, Note_on_c, 0, 52, 100
2, 164092, Note_off_c, 0, 55, 100
2, 164096, Note_on_c, 0, 55, 100
2, 164220, Note_off_c, 0, 52, 100
2, 164224, Note_on_c, 0, 59, 100
2, 164348, Note_off_c, 0, 55, 100
2, 164348, Note_off_c, 0, 59, 100
2, 164352, Note_on_c, 0, 64, 100
2, 164480, Note_on_c, 0, 61, 98
2, 164604, Note_off_c, 0, 64, 100
2, 164608, Note_on_c, 0, 55, 96
2, 164732, Note_off_c, 0, 61, 100
2, 164736, Note_on_c, 0, 64, 93
2, 164860, Note_off_c, 0, 55, 100
2, 164864, Note_on_c, 0, 59, 91
2, 164988, Note_off_c, 0, 64, 100
2, 164992, Note_on_c, 0, 55, 88
2, 165116, Note_off_c, 0, 59, 100
2, 165120, Note_on_c, 0, 63, 86
2, 165244, Note_off_c, 0, 55, 100
2, 165248, Note_on_c, 0, 59, 83
2, 165372, Note_off_c, 0, 63, 100
2, 165376, Note_on_c, 0, 54, 81
2, 165500, Note_off_c, 0, 59, 100
2, 165500, Note_off_c, 0, 54, 100
2, 165504, Note_on_c, 0, 64, 80
2, 165504, Note_on_c, 0, 59, 80
2, 165504, Note_on_c, 0, 55, 80
2, 165884, Note_off_c, 0, 64, 100
2, 165884, Note_off_c, 0, 59, 100
2, 165884, Note_off_c, 0, 55, 100
2, 166272, Note_on_c, 0, 55, 100
2, 166652, Note_off_c, 0, 55, 100
2, 166656, Note_on_c, 0, 55, 100
2, 166784, Note_on_c, 0, 60, 100
2, 166908, Note_off_c, 0, 55, 100
2, 166912, Note_on_c, 0, 64, 100
2, 167036, Note_off_c, 0, 60, 100
2, 167040, Note_on_c, 0, 67, 100
2, 167164, Note_off_c, 0, 64, 100
2, 167168, Note_on_c, 0, 72, 100
2, 167292, Note_off_c, 0, 67, 100
2, 167296, Note_on_c, 0, 76, 100
2, 167420, Note_off_c, 0, 72, 100
2, 167424, Note_on_c, 0, 79, 100
2, 167548, Note_off_c, 0, 76, 100
2, 167552, Note_on_c, 0, 76, 100
2, 167676, Note_off_c, 0, 79, 100
2, 167680, Note_on_c, 0, 72, 100
2, 167804, Note_off_c, 0, 76, 100
2, 167808, Note_on_c, 0, 79, 100
2, 167932, Note_off_c, 0, 72, 100
2, 167936, Note_on_c, 0, 74, 100
2, 168060, Note_off_c, 0, 79, 100
2, 168064, Note_on_c, 0, 71, 100
2, 168188, Note_off_c, 0, 74, 100
2, 168192, Note_on_c, 0, 67, 100
2, 168316, Note_off_c, 0, 71, 100
2, 168320, Note_on_c, 0, 62, 100
2, 168444, Note_off_c, 0, 67, 100
2, 168448, Note_on_c, 0, 59, 100
2, 168572, Note_off_c, 0, 62, 100
2, 168576, Note_on_c, 0, 55, 100
2, 168700, Note_off_c, 0, 59, 100
2, 168704, Note_on_c, 0, 59, 100
2, 168828, Note_off_c, 0, 55, 100
2, 168832, Note_on_c, 0, 62, 100
2, 168956, Note_off_c, 0, 59, 100
2, 168956, Note_off_c, 0, 62, 100
2, 168960, Note_on_c, 0, 67, 100
2, 169088, Note_on_c, 0, 61, 100
2, 169212, Note_off_c, 0, 67, 100
2, 169216, Note_on_c, 0, 58, 100
2, 169340, Note_off_c, 0, 61, 100
2, 169344, Note_on_c, 0, 67, 100
2, 169468, Note_off_c, 0, 58, 100
2, 169472, Note_on_c, 0, 62, 100
2, 169596, Note_off_c, 0, 67, 100
2, 169600, Note_on_c, 0, 58, 100
2, 169724, Note_off_c, 0, 62, 100
2, 169728, Note_on_c, 0, 67, 100
2, 169852, Note_off_c, 0, 58, 100
2, 169856, Note_on_c, 0, 64, 100
2, 169980, Note_off_c, 0, 67, 100
2, 169984, Note_on_c, 0, 57, 100
2, 170108, Note_off_c, 0, 64, 100
2, 170112, Note_on_c, 0, 67, 100
2, 170236, Note_off_c, 0, 57, 100
2, 170240, Note_on_c, 0, 64, 100
2, 170364, Note_off_c, 0, 67, 100
2, 170368, Note_on_c, 0, 57, 100
2, 170492, Note_off_c, 0, 64, 100
2, 170496, Note_on_c, 0, 65, 100
2, 170620, Note_off_c, 0, 57, 100
2, 170624, Note_on_c, 0, 62, 100
2, 170748, Note_off_c, 0, 65, 100
2, 170752, Note_on_c, 0, 57, 100
2, 170876, Note_off_c, 0, 62, 100
2, 170880, Note_on_c, 0, 65, 100
2, 171004, Note_off_c, 0, 57, 100
2, 171008, Note_on_c, 0, 62, 100
2, 171132, Note_off_c, 0, 65, 100
2, 171136, Note_on_c, 0, 57, 100
2, 171260, Note_off_c, 0, 62, 100
2, 171260, Note_off_c, 0, 57, 100
2, 171264, Note_on_c, 0, 55, 100
2, 171392, Note_on_c, 0, 62, 100
2, 171516, Note_off_c, 0, 55, 100
2, 171520, Note_on_c, 0, 65, 100
2, 171644, Note_off_c, 0, 62, 100
2, 171648, Note_on_c, 0, 69, 100
2, 171772, Note_off_c, 0, 65, 100
2, 171776, Note_on_c, 0, 74, 100
2, 171900, Note_off_c, 0, 69, 100
2, 171904, Note_on_c, 0, 77, 100
2, 172028, Note_off_c, 0, 74, 100
2, 172032, Note_on_c, 0, 81, 100
2, 172156, Note_off_c, 0, 77, 100
2, 172160, Note_on_c, 0, 77, 100
2, 172284, Note_off_c, 0, 81, 100
2, 172288, Note_on_c, 0, 74, 100
2, 172412, Note_off_c, 0, 77, 100
2, 172416, Note_on_c, 0, 81, 100
2, 172540, Note_off_c, 0, 74, 100
2, 172544, Note_on_c, 0, 76, 100
2, 172668, Note_off_c, 0, 81, 100
2, 172672, Note_on_c, 0, 72, 100
2, 172796, Note_off_c, 0, 76, 100
2, 172800, Note_on_c, 0, 69, 100
2, 172924, Note_off_c, 0, 72, 100
2, 172928, Note_on_c, 0, 64, 100
2, 173052, Note_off_c, 0, 69, 100
2, 173056, Note_on_c, 0, 60, 100
2, 173180, Note_off_c, 0, 64, 100
2, 173184, Note_on_c, 0, 57, 100
2, 173308, Note_off_c, 0, 60, 100
2, 173312, Note_on_c, 0, 60, 100
2, 173436, Note_off_c, 0, 57, 100
2, 173440, Note_on_c, 0, 64, 100
2, 173564, Note_off_c, 0, 60, 100
2, 173568, Note_on_c, 0, 69, 100
2, 173692, Note_off_c, 0, 64, 100
2, 173696, Note_on_c, 0, 63, 100
2, 173820, Note_off_c, 0, 69, 100
2, 173824, Note_on_c, 0, 59, 100
2, 173948, Note_off_c, 0, 63, 100
2, 173952, Note_on_c, 0, 69, 100
2, 174076, Note_off_c, 0, 59, 100
2, 174080, Note_on_c, 0, 64, 100
2, 174204, Note_off_c, 0, 69, 100
2, 174208, Note_on_c, 0, 59, 100
2, 174332, Note_off_c, 0, 64, 100
2, 174336, Note_on_c, 0, 69, 100
2, 174460, Note_off_c, 0, 59, 100
2, 174464, Note_on_c, 0, 66, 100
2, 174588, Note_off_c, 0, 69, 100
2, 174592, Note_on_c, 0, 59, 100
2, 174716, Note_off_c, 0, 66, 100
2, 174720, Note_on_c, 0, 69, 100
2, 174844, Note_off_c, 0, 59, 100
2, 174848, Note_on_c, 0, 64, 100
2, 174972, Note_off_c, 0, 69, 100
2, 174976, Note_on_c, 0, 59, 100
2, 175100, Note_off_c, 0, 64, 100
2, 175104, Note_on_c, 0, 68, 100
2, 175228, Note_off_c, 0, 59, 100
2, 175232, Note_on_c, 0, 64, 100
2, 175356, Note_off_c, 0, 68, 100
2, 175360, Note_on_c, 0, 59, 100
2, 175484, Note_off_c, 0, 64, 100
2, 175488, Note_on_c, 0, 68, 100
2, 175612, Note_off_c, 0, 59, 100
2, 175616, Note_on_c, 0, 64, 100
2, 175740, Note_off_c, 0, 68, 100
2, 175744, Note_on_c, 0, 59, 100
2, 175868, Note_off_c, 0, 64, 100
2, 175868, Note_off_c, 0, 59, 100
2, 175872, Note_on_c, 0, 64, 100
2, 176000, Note_on_c, 0, 69, 100
2, 176124, Note_off_c, 0, 64, 100
2, 176128, Note_on_c, 0, 72, 100
2, 176252, Note_off_c, 0, 69, 100
2, 176256, Note_on_c, 0, 76, 100
2, 176380, Note_off_c, 0, 72, 100
2, 176384, Note_on_c, 0, 81, 100
2, 176508, Note_off_c, 0, 76, 100
2, 176512, Note_on_c, 0, 84, 100
2, 176636, Note_off_c, 0, 81, 100
2, 176640, Note_on_c, 0, 88, 100
2, 176764, Note_off_c, 0, 84, 100
2, 176768, Note_on_c, 0, 84, 100
2, 176892, Note_off_c, 0, 88, 100
2, 176896, Note_on_c, 0, 81, 100
2, 177020, Note_off_c, 0, 84, 100
2, 177024, Note_on_c, 0, 88, 100
2, 177148, Note_off_c, 0, 81, 100
2, 177152, Note_on_c, 0, 83, 100
2, 177276, Note_off_c, 0, 88, 100
2, 177280, Note_on_c, 0, 80, 100
2, 177404, Note_off_c, 0, 83, 100
2, 177408, Note_on_c, 0, 76, 100
2, 177532, Note_off_c, 0, 80, 100
2, 177536, Note_on_c, 0, 71, 100
2, 177660, Note_off_c, 0, 76, 100
2, 177664, Note_on_c, 0, 68, 100
2, 177788, Note_off_c, 0, 71, 100
2, 177792, Note_on_c, 0, 64, 100
2, 177916, Note_off_c, 0, 68, 100
2, 177920, Note_on_c, 0, 68, 100
2, 178044, Note_off_c, 0, 64, 100
2, 178048, Note_on_c, 0, 71, 100
2, 178172, Note_off_c, 0, 68, 100
2, 178176, Note_on_c, 0, 64, 100
2, 178300, Note_off_c, 0, 71, 100
2, 178304, Note_on_c, 0, 69, 100
2, 178428, Note_off_c, 0, 64, 100
2, 178432, Note_on_c, 0, 72, 100
2, 178556, Note_off_c, 0, 69, 100
2, 178560, Note_on_c, 0, 76, 100
2, 178684, Note_off_c, 0, 72, 100
2, 178688, Note_on_c, 0, 81, 100
2, 178812, Note_off_c, 0, 76, 100
2, 178816, Note_on_c, 0, 84, 100
2, 178940, Note_off_c, 0, 81, 100
2, 178944, Note_on_c, 0, 88, 100
2, 179068, Note_off_c, 0, 84, 100
2, 179072, Note_on_c, 0, 84, 100
2, 179196, Note_off_c, 0, 88, 100
2, 179200, Note_on_c, 0, 81, 100
2, 179324, Note_off_c, 0, 84, 100
2, 179328, Note_on_c, 0, 88, 100
2, 179452, Note_off_c, 0, 81, 100
2, 179456, Note_on_c, 0, 83, 100
2, 179580, Note_off_c, 0, 88, 100
2, 179584, Note_on_c, 0, 80, 100
2, 179708, Note_off_c, 0, 83, 100
2, 179712, Note_on_c, 0, 76, 100
2, 179836, Note_off_c, 0, 80, 100
2, 179840, Note_on_c, 0, 71, 100
2, 179964, Note_off_c, 0, 76, 100
2, 179968, Note_on_c, 0, 68, 100
2, 180092, Note_off_c, 0, 71, 100
2, 180096, Note_on_c, 0, 64, 100
2, 180220, Note_off_c, 0, 68, 100
2, 180224, Note_on_c, 0, 68, 100
2, 180348, Note_off_c, 0, 64, 100
2, 180352, Note_on_c, 0, 71, 100
2, 180476, Note_off_c, 0, 68, 100
2, 180480, Note_on_c, 0, 64, 100
2, 180604, Note_off_c, 0, 71, 100
2, 180608, Note_on_c, 0, 69, 100
2, 180732, Note_off_c, 0, 64, 100
2, 180736, Note_on_c, 0, 72, 100
2, 180860, Note_off_c, 0, 69, 100
2, 180864, Note_on_c, 0, 76, 100
2, 180988, Note_off_c, 0, 72, 100
2, 180992, Note_on_c, 0, 81, 100
2, 181116, Note_off_c, 0, 76, 100
2, 181120, Note_on_c, 0, 84, 100
2, 181244, Note_off_c, 0, 81, 100
2, 181248, Note_on_c, 0, 88, 100
2, 181372, Note_off_c, 0, 84, 100
2, 181376, Note_on_c, 0, 84, 100
2, 181500, Note_off_c, 0, 88, 100
2, 181504, Note_on_c, 0, 81, 100
2, 181628, Note_off_c, 0, 84, 100
2, 181632, Note_on_c, 0, 88, 100
2, 181756, Note_off_c, 0, 81, 100
2, 181760, Note_on_c, 0, 84, 100
2, 181884, Note_off_c, 0, 88, 100
2, 181888, Note_on_c, 0, 77, 100
2, 182012, Note_off_c, 0, 84, 100
2, 182016, Note_on_c, 0, 86, 100
2, 182140, Note_off_c, 0, 77, 100
2, 182144, Note_on_c, 0, 83, 100
2, 182268, Note_off_c, 0, 86, 100
2, 182272, Note_on_c, 0, 77, 100
2, 182396, Note_off_c, 0, 83, 100
2, 182400, Note_on_c, 0, 86, 100
2, 182524, Note_off_c, 0, 77, 100
2, 182528, Note_on_c, 0, 83, 100
2, 182652, Note_off_c, 0, 86, 100
2, 182656, Note_on_c, 0, 77, 100
2, 182780, Note_off_c, 0, 83, 100
2, 182784, Note_on_c, 0, 86, 98
2, 182908, Note_off_c, 0, 77, 100
2, 182912, Note_on_c, 0, 83, 96
2, 183036, Note_off_c, 0, 86, 100
2, 183040, Note_on_c, 0, 76, 94
2, 183164, Note_off_c, 0, 83, 100
2, 183168, Note_on_c, 0, 84, 92
2, 183292, Note_off_c, 0, 76, 100
2, 183296, Note_on_c, 0, 81, 89
2, 183420, Note_off_c, 0, 84, 100
2, 183424, Note_on_c, 0, 76, 87
2, 183548, Note_off_c, 0, 81, 100
2, 183552, Note_on_c, 0, 83, 85
2, 183676, Note_off_c, 0, 76, 100
2, 183680, Note_on_c, 0, 80, 83
2, 183804, Note_off_c, 0, 83, 100
2, 183808, Note_on_c, 0, 74, 81
2, 183932, Note_off_c, 0, 80, 100
2, 183932, Note_off_c, 0, 74, 100
2, 183936, Note_on_c, 0, 81, 80
2, 183936, Note_on_c, 0, 72, 80
2, 184316, Note_off_c, 0, 81, 100
2, 184316, Note_off_c, 0, 72, 100
2, 184704, Note_on_c, 0, 55, 100
2, 185084, Note_off_c, 0, 55, 100
2, 185088, Note_on_c, 0, 55, 100
2, 185216, Note_on_c, 0, 60, 100
2, 185340, Note_off_c, 0, 55, 100
2, 185344, Note_on_c, 0, 64, 100
2, 185468, Note_off_c, 0, 60, 100
2, 185472, Note_on_c, 0, 67, 100
2, 185596, Note_off_c, 0, 64, 100
2, 185600, Note_on_c, 0, 72, 100
2, 185724, Note_off_c, 0, 67, 100
2, 185728, Note_on_c, 0, 76, 100
2, 185852, Note_off_c, 0, 72, 100
2, 185856, Note_on_c, 0, 79, 100
2, 185980, Note_off_c, 0, 76, 100
2, 185984, Note_on_c, 0, 76, 100
2, 186108, Note_off_c, 0, 79, 100
2, 186112, Note_on_c, 0, 72, 100
2, 186236, Note_off_c, 0, 76, 100
2, 186240, Note_on_c, 0, 79, 100
2, 186364, Note_off_c, 0, 72, 100
2, 186368, Note_on_c, 0, 74, 100
2, 186492, Note_off_c, 0, 79, 100
2, 186496, Note_on_c, 0, 71, 100
2, 186620, Note_off_c, 0, 74, 100
2, 186624, Note_on_c, 0, 67, 100
2, 186748, Note_off_c, 0, 71, 100
2, 186752, Note_on_c, 0, 62, 100
2, 186876, Note_off_c, 0, 67, 100
2, 186880, Note_on_c, 0, 59, 100
2, 187004, Note_off_c, 0, 62, 100
2, 187008, Note_on_c, 0, 55, 100
2, 187132, Note_off_c, 0, 59, 100
2, 187136, Note_on_c, 0, 59, 100
2, 187260, Note_off_c, 0, 55, 100
2, 187264, Note_on_c, 0, 62, 100
2, 187388, Note_off_c, 0, 59, 100
2, 187388, Note_off_c, 0, 62, 100
2, 187392, Note_on_c, 0, 67, 100
2, 187520, Note_on_c, 0, 61, 100
2, 187644, Note_off_c, 0, 67, 100
2, 187648, Note_on_c, 0, 58, 100
2, 187772, Note_off_c, 0, 61, 100
2, 187776, Note_on_c, 0, 67, 100
2, 187900, Note_off_c, 0, 58, 100
2, 187904, Note_on_c, 0, 62, 100
2, 188028, Note_off_c, 0, 67, 100
2, 188032, Note_on_c, 0, 58, 100
2, 188156, Note_off_c, 0, 62, 100
2, 188160, Note_on_c, 0, 67, 100
2, 188284, Note_off_c, 0, 58, 100
2, 188288, Note_on_c, 0, 64, 100
2, 188412, Note_off_c, 0, 67, 100
2, 188416, Note_on_c, 0, 57, 100
2, 188540, Note_off_c, 0, 64, 100
2, 188544, Note_on_c, 0, 67, 100
2, 188668, Note_off_c, 0, 57, 100
2, 188672, Note_on_c, 0, 64, 100
2, 188796, Note_off_c, 0, 67, 100
2, 188800, Note_on_c, 0, 57, 100
2, 188924, Note_off_c, 0, 64, 100
2, 188928, Note_on_c, 0, 65, 100
2, 189052, Note_off_c, 0, 57, 100
2, 189056, Note_on_c, 0, 62, 100
2, 189180, Note_off_c, 0, 65, 100
2, 189184, Note_on_c, 0, 57, 100
2, 189308, Note_off_c, 0, 62, 100
2, 189312, Note_on_c, 0, 65, 100
2, 189436, Note_off_c, 0, 57, 100
2, 189440, Note_on_c, 0, 62, 100
2, 189564, Note_off_c, 0, 65, 100
2, 189568, Note_on_c, 0, 57, 100
2, 189692, Note_off_c, 0, 62, 100
2, 189692, Note_off_c, 0, 57, 100
2, 189696, Note_on_c, 0, 55, 100
2, 189824, Note_on_c, 0, 62, 100
2, 189948, Note_off_c, 0, 55, 100
2, 189952, Note_on_c, 0, 65, 100
2, 190076, Note_off_c, 0, 62, 100
2, 190080, Note_on_c, 0, 69, 100
2, 190204, Note_off_c, 0, 65, 100
2, 190208, Note_on_c, 0, 74, 100
2, 190332, Note_off_c, 0, 69, 100
2, 190336, Note_on_c, 0, 77, 100
2, 190460, Note_off_c, 0, 74, 100
2, 190464, Note_on_c, 0, 81, 100
2, 190588, Note_off_c, 0, 77, 100
2, 190592, Note_on_c, 0, 77, 100
2, 190716, Note_off_c, 0, 81, 100
2, 190720, Note_on_c, 0, 74, 100
2, 190844, Note_off_c, 0, 77, 100
2, 190848, Note_on_c, 0, 81, 100
2, 190972, Note_off_c, 0, 74, 100
2, 190976, Note_on_c, 0, 76, 100
2, 191100, Note_off_c, 0, 81, 100
2, 191104, Note_on_c, 0, 72, 100
2, 191228, Note_off_c, 0, 76, 100
2, 191232, Note_on_c, 0, 69, 100
2, 191356, Note_off_c, 0, 72, 100
2, 191360, Note_on_c, 0, 64, 100
2, 191484, Note_off_c, 0, 69, 100
2, 191488, Note_on_c, 0, 60, 100
2, 191612, Note_off_c, 0, 64, 100
2, 191616, Note_on_c, 0, 57, 100
2, 191740, Note_off_c, 0, 60, 100
2, 191744, Note_on_c, 0, 60, 100
2, 191868, Note_off_c, 0, 57, 100
2, 191872, Note_on_c, 0, 64, 100
2, 191996, Note_off_c, 0, 60, 100
2, 192000, Note_on_c, 0, 69, 100
2, 192124, Note_off_c, 0, 64, 100
2, 192128, Note_on_c, 0, 63, 100
2, 192252, Note_off_c, 0, 69, 100
2, 192256, Note_on_c, 0, 59, 100
2, 192380, Note_off_c, 0, 63, 100
2, 192384, Note_on_c, 0, 69, 100
2, 192508, Note_off_c, 0, 59, 100
2, 192512, Note_on_c, 0, 64, 100
2, 192636, Note_off_c, 0, 69, 100
2, 192640, Note_on_c, 0, 59, 100
2, 192764, Note_off_c, 0, 64, 100
2, 192768, Note_on_c, 0, 69, 100
2, 192892, Note_off_c, 0, 59, 100
2, 192896, Note_on_c, 0, 66, 100
2, 193020, Note_off_c, 0, 69, 100
2, 193024, Note_on_c, 0, 59, 100
2, 193148, Note_off_c, 0, 66, 100
2, 193152, Note_on_c, 0, 69, 100
2, 193276, Note_off_c, 0, 59, 100
2, 193280, Note_on_c, 0, 64, 100
2, 193404, Note_off_c, 0, 69, 100
2, 193408, Note_on_c, 0, 59, 100
2, 193532, Note_off_c, 0, 64, 100
2, 193536, Note_on_c, 0, 68, 100
2, 193660, Note_off_c, 0, 59, 100
2, 193664, Note_on_c, 0, 64, 100
2, 193788, Note_off_c, 0, 68, 100
2, 193792, Note_on_c, 0, 59, 100
2, 193916, Note_off_c, 0, 64, 100
2, 193920, Note_on_c, 0, 68, 100
2, 194044, Note_off_c, 0, 59, 100
2, 194048, Note_on_c, 0, 64, 100
2, 194172, Note_off_c, 0, 68, 100
2, 194176, Note_on_c, 0, 59, 100
2, 194300, Note_off_c, 0, 64, 100
2, 194300, Note_off_c, 0, 59, 100
2, 194304, Note_on_c, 0, 64, 100
2, 194432, Note_on_c, 0, 69, 100
2, 194556, Note_off_c, 0, 64, 100
2, 194560, Note_on_c, 0, 72, 100
2, 194684, Note_off_c, 0, 69, 100
2, 194688, Note_on_c, 0, 76, 100
2, 194812, Note_off_c, 0, 72, 100
2, 194816, Note_on_c, 0, 81, 100
2, 194940, Note_off_c, 0, 76, 100
2, 194944, Note_on_c, 0, 84, 100
2, 195068, Note_off_c, 0, 81, 100
2, 195072, Note_on_c, 0, 88, 100
2, 195196, Note_off_c, 0, 84, 100
2, 195200, Note_on_c, 0, 84, 100
2, 195324, Note_off_c, 0, 88, 100
2, 195328, Note_on_c, 0, 81, 100
2, 195452, Note_off_c, 0, 84, 100
2, 195456, Note_on_c, 0, 88, 100
2, 195580, Note_off_c, 0, 81, 100
2, 195584, Note_on_c, 0, 83, 100
2, 195708, Note_off_c, 0, 88, 100
2, 195712, Note_on_c, 0, 80, 100
2, 195836, Note_off_c, 0, 83, 100
2, 195840, Note_on_c, 0, 76, 100
2, 195964, Note_off_c, 0, 80, 100
2, 195968, Note_on_c, 0, 71, 100
2, 196092, Note_off_c, 0, 76, 100
2, 196096, Note_on_c, 0, 68, 100
2, 196220, Note_off_c, 0, 71, 100
2, 196224, Note_on_c, 0, 64, 100
2, 196348, Note_off_c, 0, 68, 100
2, 196352, Note_on_c, 0, 68, 100
2, 196476, Note_off_c, 0, 64, 100
2, 196480, Note_on_c, 0, 71, 100
2, 196604, Note_off_c, 0, 68, 100
2, 196608, Note_on_c, 0, 64, 100
2, 196732, Note_off_c, 0, 71, 100
2, 196736, Note_on_c, 0, 69, 100
2, 196860, Note_off_c, 0, 64, 100
2, 196864, Note_on_c, 0, 72, 100
2, 196988, Note_off_c, 0, 69, 100
2, 196992, Note_on_c, 0, 76, 100
2, 197116, Note_off_c, 0, 72, 100
2, 197120, Note_on_c, 0, 81, 100
2, 197244, Note_off_c, 0, 76, 100
2, 197248, Note_on_c, 0, 84, 100
2, 197372, Note_off_c, 0, 81, 100
2, 197376, Note_on_c, 0, 88, 100
2, 197500, Note_off_c, 0, 84, 100
2, 197504, Note_on_c, 0, 84, 100
2, 197628, Note_off_c, 0, 88, 100
2, 197632, Note_on_c, 0, 81, 100
2, 197756, Note_off_c, 0, 84, 100
2, 197760, Note_on_c, 0, 89, 100
2, 197884, Note_off_c, 0, 81, 100
2, 197888, Note_on_c, 0, 86, 101
2, 198012, Note_off_c, 0, 89, 100
2, 198016, Note_on_c, 0, 81, 102
2, 198140, Note_off_c, 0, 86, 100
2, 198144, Note_on_c, 0, 77, 103
2, 198268, Note_off_c, 0, 81, 100
2, 198272, Note_on_c, 0, 74, 104
2, 198396, Note_off_c, 0, 77, 100
2, 198400, Note_on_c, 0, 69, 105
2, 198524, Note_off_c, 0, 74, 100
2, 198528, Note_on_c, 0, 65, 106
2, 198652, Note_off_c, 0, 69, 100
2, 198656, Note_on_c, 0, 69, 107
2, 198780, Note_off_c, 0, 65, 100
2, 198784, Note_on_c, 0, 74, 108
2, 198908, Note_off_c, 0, 69, 100
2, 198912, Note_on_c, 0, 65, 109
2, 199036, Note_off_c, 0, 74, 100
2, 199040, Note_on_c, 0, 68, 111
2, 199164, Note_off_c, 0, 65, 100
2, 199168, Note_on_c, 0, 74, 112
2, 199292, Note_off_c, 0, 68, 100
2, 199296, Note_on_c, 0, 77, 113
2, 199420, Note_off_c, 0, 74, 100
2, 199424, Note_on_c, 0, 80, 114
2, 199548, Note_off_c, 0, 77, 100
2, 199552, Note_on_c, 0, 86, 115
2, 199676, Note_off_c, 0, 80, 100
2, 199680, Note_on_c, 0, 89, 116
2, 199804, Note_off_c, 0, 86, 100
2, 199808, Note_on_c, 0, 86, 117
2, 199932, Note_off_c, 0, 89, 100
2, 199936, Note_on_c, 0, 80, 118
2, 200060, Note_off_c, 0, 86, 100
2, 200064, Note_on_c, 0, 89, 120
2, 200188, Note_off_c, 0, 80, 100
2, 200192, Note_on_c, 0, 86, 120
2, 200316, Note_off_c, 0, 89, 100
2, 200320, Note_on_c, 0, 83, 120
2, 200444, Note_off_c, 0, 86, 100
2, 200448, Note_on_c, 0, 79, 120
2, 200572, Note_off_c, 0, 83, 100
2, 200576, Note_on_c, 0, 77, 120
2, 200700, Note_off_c, 0, 79, 100
2, 200704, Note_on_c, 0, 74, 120
2, 200828, Note_off_c, 0, 77, 100
2, 200832, Note_on_c, 0, 71, 120
2, 200956, Note_off_c, 0, 74, 100
2, 200960, Note_on_c, 0, 67, 120
2, 201084, Note_off_c, 0, 71, 100
2, 201088, Note_on_c, 0, 65, 120
2, 201212, Note_off_c, 0, 67, 100
2, 201216, Note_on_c, 0, 62, 120
2, 201340, Note_off_c, 0, 65, 100
2, 201344, Note_on_c, 0, 59, 120
2, 201468, Note_off_c, 0, 62, 100
2, 201472, Note_on_c, 0, 55, 120
2, 201596, Note_off_c, 0, 59, 100
2, 201600, Note_on_c, 0, 53, 120
2, 201724, Note_off_c, 0, 55, 100
2, 201728, Note_on_c, 0, 50, 120
2, 201852, Note_off_c, 0, 53, 100
2, 201856, Note_on_c, 0, 47, 120
2, 201980, Note_off_c, 0, 50, 100
2, 201984, Note_on_c, 0, 43, 120
2, 202108, Note_off_c, 0, 47, 100
2, 202236, Note_off_c, 0, 43, 100
2, 204096, Note_on_c, 0, 79, 80
2, 204284, Note_off_c, 0, 79, 100
2, 204288, Note_on_c, 0, 78, 80
2, 204476, Note_off_c, 0, 78, 100
2, 204480, Note_on_c, 0, 79, 80
2, 204668, Note_off_c, 0, 79, 100
2, 204672, Note_on_c, 0, 81, 80
2, 205052, Note_off_c, 0, 81, 100
2, 205056, Note_on_c, 0, 79, 80
2, 205436, Note_off_c, 0, 79, 100
2, 205440, Note_on_c, 0, 77, 80
2, 205820, Note_off_c, 0, 77, 100
2, 205824, Note_on_c, 0, 76, 80
2, 206204, Note_off_c, 0, 76, 100
2, 206208, Note_on_c, 0, 74, 80
2, 206588, Note_off_c, 0, 74, 100
2, 206592, Note_on_c, 0, 72, 80
2, 206972, Note_off_c, 0, 72, 100
2, 206976, Note_on_c, 0, 71, 80
2, 208124, Note_off_c, 0, 71, 100
2, 208128, Note_on_c, 0, 72, 80
2, 208128, Note_on_c, 0, 64, 80
2, 208508, Note_off_c, 0, 64, 100
2, 208512, Note_on_c, 0, 62, 80
2, 208892, Note_off_c, 0, 62, 100
2, 208896, Note_on_c, 0, 60, 80
2, 209276, Note_off_c, 0, 72, 100
2, 209276, Note_off_c, 0, 60, 100
2, 209280, Note_on_c, 0, 74, 80
2, 209280, Note_on_c, 0, 71, 80
2, 209280, Note_on_c, 0, 67, 80
2, 210428, Note_off_c, 0, 74, 100
2, 210428, Note_off_c, 0, 71, 100
2, 210428, Note_off_c, 0, 67, 100
2, 210432, Note_on_c, 0, 76, 80
2, 210432, Note_on_c, 0, 72, 80
2, 210432, Note_on_c, 0, 67, 80
2, 211580, Note_off_c, 0, 76, 100
2, 211580, Note_off_c, 0, 72, 100
2, 211580, Note_off_c, 0, 67, 100
2, 211584, Note_on_c, 0, 79, 80
2, 211584, Note_on_c, 0, 74, 80
2, 211584, Note_on_c, 0, 67, 80
2, 211964, Note_off_c, 0, 79, 100
2, 211964, Note_off_c, 0, 74, 100
2, 211964, Note_off_c, 0, 67, 100
2, 211968, Note_on_c, 0, 77, 80
2, 211968, Note_on_c, 0, 71, 80
2, 211968, Note_on_c, 0, 67, 80
2, 212348, Note_off_c, 0, 77, 100
2, 212348, Note_off_c, 0, 71, 100
2, 212348, Note_off_c, 0, 67, 100
2, 212352, Note_on_c, 0, 76, 80
2, 212352, Note_on_c, 0, 72, 80
2, 212352, Note_on_c, 0, 67, 80
2, 212732, Note_off_c, 0, 76, 100
2, 212732, Note_off_c, 0, 72, 100
2, 212732, Note_off_c, 0, 67, 100
2, 212736, Note_on_c, 0, 74, 80
2, 212736, Note_on_c, 0, 71, 80
2, 212736, Note_on_c, 0, 67, 80
2, 213116, Note_off_c, 0, 74, 100
2, 213116, Note_off_c, 0, 71, 100
2, 213116, Note_off_c, 0, 67, 100
2, 214464, Note_on_c, 0, 78, 80
2, 214652, Note_off_c, 0, 78, 100
2, 214656, Note_on_c, 0, 76, 80
2, 214844, Note_off_c, 0, 76, 100
2, 214848, Note_on_c, 0, 78, 80
2, 215036, Note_off_c, 0, 78, 100
2, 215040, Note_on_c, 0, 79, 80
2, 215420, Note_off_c, 0, 79, 100
2, 215616, Note_on_c, 0, 79, 80
2, 215804, Note_off_c, 0, 79, 100
2, 215808, Note_on_c, 0, 78, 80
2, 215996, Note_off_c, 0, 78, 100
2, 216000, Note_on_c, 0, 79, 80
2, 216188, Note_off_c, 0, 79, 100
2, 216192, Note_on_c, 0, 81, 80
2, 216572, Note_off_c, 0, 81, 100
2, 216768, Note_on_c, 0, 81, 80
2, 216956, Note_off_c, 0, 81, 100
2, 216960, Note_on_c, 0, 79, 80
2, 217148, Note_off_c, 0, 79, 100
2, 217152, Note_on_c, 0, 81, 80
2, 217340, Note_off_c, 0, 81, 100
2, 217344, Note_on_c, 0, 82, 100
2, 217724, Note_off_c, 0, 82, 100
2, 217920, Note_on_c, 0, 82, 100
2, 218108, Note_off_c, 0, 82, 100
2, 218112, Note_on_c, 0, 81, 100
2, 218300, Note_off_c, 0, 81, 100
2, 218304, Note_on_c, 0, 82, 100
2, 218492, Note_off_c, 0, 82, 100
2, 218496, Note_on_c, 0, 85, 110
2, 218876, Note_off_c, 0, 85, 100
2, 219072, Note_on_c, 0, 85, 110
2, 219260, Note_off_c, 0, 85, 100
2, 219264, Note_on_c, 0, 84, 110
2, 219452, Note_off_c, 0, 84, 100
2, 219456, Note_on_c, 0, 85, 110
2, 219644, Note_off_c, 0, 85, 100
2, 219648, Note_on_c, 0, 86, 110
2, 220028, Note_off_c, 0, 86, 100
2, 220224, Note_on_c, 0, 86, 110
2, 220412, Note_off_c, 0, 86, 100
2, 220416, Note_on_c, 0, 85, 110
2, 220604, Note_off_c, 0, 85, 100
2, 220608, Note_on_c, 0, 86, 110
2, 220796, Note_off_c, 0, 86, 100
2, 220800, Note_on_c, 0, 83, 110
2, 220800, Note_on_c, 0, 79, 110
2, 220800, Note_on_c, 0, 74, 110
2, 221180, Note_off_c, 0, 83, 100
2, 221180, Note_off_c, 0, 79, 100
2, 221180, Note_off_c, 0, 74, 100
2, 221184, Note_on_c, 0, 84, 110
2, 221184, Note_on_c, 0, 81, 110
2, 221184, Note_on_c, 0, 76, 110
2, 221564, Note_off_c, 0, 84, 100
2, 221564, Note_off_c, 0, 81, 100
2, 221564, Note_off_c, 0, 76, 100
2, 221568, Note_on_c, 0, 81, 110
2, 221568, Note_on_c, 0, 78, 110
2, 221568, Note_on_c, 0, 72, 110
2, 221948, Note_off_c, 0, 81, 100
2, 221948, Note_off_c, 0, 78, 100
2, 221948, Note_off_c, 0, 72, 100
2, 221952, Note_on_c, 0, 79, 110
2, 221952, Note_on_c, 0, 74, 110
2, 221952, Note_on_c, 0, 71, 110
2, 222332, Note_off_c, 0, 79, 100
2, 222332, Note_off_c, 0, 74, 100
2, 222332, Note_off_c, 0, 71, 100
2, 223680, Note_on_c, 0, 71, 80
2, 223868, Note_off_c, 0, 71, 100
2, 223872, Note_on_c, 0, 69, 80
2, 224060, Note_off_c, 0, 69, 100
2, 224064, Note_on_c, 0, 71, 80
2, 224252, Note_off_c, 0, 71, 100
2, 224256, Note_on_c, 0, 72, 80
2, 224636, Note_off_c, 0, 72, 100
2, 224832, Note_on_c, 0, 72, 80
2, 225020, Note_off_c, 0, 72, 100
2, 225024, Note_on_c, 0, 71, 80
2, 225212, Note_off_c, 0, 71, 100
2, 225216, Note_on_c, 0, 72, 80
2, 225404, Note_off_c, 0, 72, 100
2, 225408, Note_on_c, 0, 69, 80
2, 225788, Note_off_c, 0, 69, 100
2, 225984, Note_on_c, 0, 69, 80
2, 226172, Note_off_c, 0, 69, 100
2, 226176, Note_on_c, 0, 67, 80
2, 226364, Note_off_c, 0, 67, 100
2, 226368, Note_on_c, 0, 69, 80
2, 226556, Note_off_c, 0, 69, 100
2, 226560, Note_on_c, 0, 70, 80
2, 226940, Note_off_c, 0, 70, 100
2, 227136, Note_on_c, 0, 70, 80
2, 227324, Note_off_c, 0, 70, 100
2, 227328, Note_on_c, 0, 69, 80
2, 227516, Note_off_c, 0, 69, 100
2, 227520, Note_on_c, 0, 70, 80
2, 227708, Note_off_c, 0, 70, 100
2, 227712, Note_on_c, 0, 78, 80
2, 228092, Note_off_c, 0, 78, 100
2, 228096, Note_on_c, 0, 77, 80
2, 228476, Note_off_c, 0, 77, 100
2, 228480, Note_on_c, 0, 75, 80
2, 228860, Note_off_c, 0, 75, 100
2, 228864, Note_on_c, 0, 73, 80
2, 229244, Note_off_c, 0, 73, 100
2, 229248, Note_on_c, 0, 72, 80
2, 229628, Note_off_c, 0, 72, 100
2, 229632, Note_on_c, 0, 70, 80
2, 230012, Note_off_c, 0, 70, 100
2, 230016, Note_on_c, 0, 77, 80
2, 230016, Note_on_c, 0, 89, 80
2, 230396, Note_off_c, 0, 77, 100
2, 230396, Note_off_c, 0, 89, 100
2, 230400, Note_on_c, 0, 75, 80
2, 230400, Note_on_c, 0, 87, 80
2, 230780, Note_off_c, 0, 75, 100
2, 230780, Note_off_c, 0, 87, 100
2, 230784, Note_on_c, 0, 73, 80
2, 230784, Note_on_c, 0, 85, 80
2, 231164, Note_off_c, 0, 73, 100
2, 231164, Note_off_c, 0, 85, 100
2, 231168, Note_on_c, 0, 72, 80
2, 231168, Note_on_c, 0, 84, 80
2, 231548, Note_off_c, 0, 72, 100
2, 231548, Note_off_c, 0, 84, 100
2, 231552, Note_on_c, 0, 70, 80
2, 231552, Note_on_c, 0, 82, 80
2, 231932, Note_off_c, 0, 70, 100
2, 231932, Note_off_c, 0, 82, 100
2, 231936, Note_on_c, 0, 68, 80
2, 231936, Note_on_c, 0, 80, 80
2, 232316, Note_off_c, 0, 68, 100
2, 232316, Note_off_c, 0, 80, 100
2, 232320, Note_on_c, 0, 87, 80
2, 232320, Note_on_c, 0, 75, 80
2, 232700, Note_off_c, 0, 87, 100
2, 232700, Note_off_c, 0, 75, 100
2, 232704, Note_on_c, 0, 86, 80
2, 232704, Note_on_c, 0, 74, 80
2, 233084, Note_off_c, 0, 86, 100
2, 233084, Note_off_c, 0, 74, 100
2, 233088, Note_on_c, 0, 84, 80
2, 233088, Note_on_c, 0, 72, 80
2, 233468, Note_off_c, 0, 84, 100
2, 233468, Note_off_c, 0, 72, 100
2, 233472, Note_on_c, 0, 83, 80
2, 233472, Note_on_c, 0, 71, 80
2, 233852, Note_off_c, 0, 83, 100
2, 233852, Note_off_c, 0, 71, 100
2, 233856, Note_on_c, 0, 81, 80
2, 233856, Note_on_c, 0, 69, 80
2, 234236, Note_off_c, 0, 81, 100
2, 234236, Note_off_c, 0, 69, 100
2, 234240, Note_on_c, 0, 79, 80
2, 234240, Note_on_c, 0, 67, 80
2, 234620, Note_off_c, 0, 79, 100
2, 234620, Note_off_c, 0, 67, 100
2, 234624, Note_on_c, 0, 75, 110
2, 234624, Note_on_c, 0, 63, 110
2, 235004, Note_off_c, 0, 75, 100
2, 235004, Note_off_c, 0, 63, 100
2, 235008, Note_on_c, 0, 74, 110
2, 235008, Note_on_c, 0, 62, 110
2, 235388, Note_off_c, 0, 74, 100
2, 235388, Note_off_c, 0, 62, 100
2, 235392, Note_on_c, 0, 72, 110
2, 235392, Note_on_c, 0, 60, 110
2, 235772, Note_off_c, 0, 72, 100
2, 235772, Note_off_c, 0, 60, 100
2, 235776, Note_on_c, 0, 67, 110
2, 235776, Note_on_c, 0, 55, 110
2, 236156, Note_off_c, 0, 67, 100
2, 236156, Note_off_c, 0, 55, 100
2, 236352, Note_on_c, 0, 55, 80
2, 236540, Note_off_c, 0, 55, 100
2, 236544, Note_on_c, 0, 54, 80
2, 236732, Note_off_c, 0, 54, 100
2, 236736, Note_on_c, 0, 55, 80
2, 236924, Note_off_c, 0, 55, 100
2, 236928, Note_on_c, 0, 56, 80
2, 237308, Note_off_c, 0, 56, 100
2, 237312, Note_on_c, 0, 55, 80
2, 237500, Note_off_c, 0, 55, 100
2, 237696, Note_on_c, 0, 79, 110
2, 237696, Note_on_c, 0, 74, 110
2, 237696, Note_on_c, 0, 71, 110
2, 238076, Note_off_c, 0, 79, 100
2, 238076, Note_off_c, 0, 74, 100
2, 238076, Note_off_c, 0, 71, 100
2, 238080, Note_on_c, 0, 78, 100
2, 238080, Note_on_c, 0, 75, 100
2, 238080, Note_on_c, 0, 72, 100
2, 238080, Note_on_c, 0, 69, 100
2, 238460, Note_off_c, 0, 78, 100
2, 238460, Note_off_c, 0, 75, 100
2, 238460, Note_off_c, 0, 72, 100
2, 238460, Note_off_c, 0, 69, 100
2, 238464, Note_on_c, 0, 79, 100
2, 238464, Note_on_c, 0, 74, 100
2, 238464, Note_on_c, 0, 71, 100
2, 238652, Note_off_c, 0, 79, 100
2, 238652, Note_off_c, 0, 74, 100
2, 238652, Note_off_c, 0, 71, 100
2, 238656, Note_on_c, 0, 55, 80
2, 238844, Note_off_c, 0, 55, 100
2, 238848, Note_on_c, 0, 54, 80
2, 239036, Note_off_c, 0, 54, 100
2, 239040, Note_on_c, 0, 55, 80
2, 239228, Note_off_c, 0, 55, 100
2, 239232, Note_on_c, 0, 56, 80
2, 239612, Note_off_c, 0, 56, 100
2, 239616, Note_on_c, 0, 55, 80
2, 239804, Note_off_c, 0, 55, 100
2, 240000, Note_on_c, 0, 79, 110
2, 240000, Note_on_c, 0, 74, 110
2, 240000, Note_on_c, 0, 71, 110
2, 240380, Note_off_c, 0, 79, 100
2, 240380, Note_off_c, 0, 74, 100
2, 240380, Note_off_c, 0, 71, 100
2, 240384, Note_on_c, 0, 81, 100
2, 240384, Note_on_c, 0, 78, 100
2, 240384, Note_on_c, 0, 75, 100
2, 240384, Note_on_c, 0, 72, 100
2, 240764, Note_off_c, 0, 81, 100
2, 240764, Note_off_c, 0, 78, 100
2, 240764, Note_off_c, 0, 75, 100
2, 240764, Note_off_c, 0, 72, 100
2, 240768, Note_on_c, 0, 79, 100
2, 240768, Note_on_c, 0, 74, 100
2, 240768, Note_on_c, 0, 71, 100
2, 240956, Note_off_c, 0, 79, 100
2, 240956, Note_off_c, 0, 74, 100
2, 240956, Note_off_c, 0, 71, 100
2, 240960, Note_on_c, 0, 55, 80
2, 241148, Note_off_c, 0, 55, 100
2, 241152, Note_on_c, 0, 54, 80
2, 241340, Note_off_c, 0, 54, 100
2, 241344, Note_on_c, 0, 55, 80
2, 241532, Note_off_c, 0, 55, 100
2, 241536, Note_on_c, 0, 56, 80
2, 241916, Note_off_c, 0, 56, 100
2, 241920, Note_on_c, 0, 55, 80
2, 242108, Note_off_c, 0, 55, 100
2, 242304, Note_on_c, 0, 79, 110
2, 242304, Note_on_c, 0, 74, 110
2, 242304, Note_on_c, 0, 71, 110
2, 242684, Note_off_c, 0, 79, 100
2, 242684, Note_off_c, 0, 74, 100
2, 242684, Note_off_c, 0, 71, 100
2, 242688, Note_on_c, 0, 80, 100
2, 242688, Note_on_c, 0, 75, 100
2, 242688, Note_on_c, 0, 72, 100
2, 243068, Note_off_c, 0, 80, 100
2, 243068, Note_off_c, 0, 75, 100
2, 243068, Note_off_c, 0, 72, 100
2, 243072, Note_on_c, 0, 79, 100
2, 243072, Note_on_c, 0, 74, 100
2, 243072, Note_on_c, 0, 71, 100
2, 243260, Note_off_c, 0, 79, 100
2, 243260, Note_off_c, 0, 74, 100
2, 243260, Note_off_c, 0, 71, 100
2, 243456, Note_on_c, 0, 79, 110
2, 243456, Note_on_c, 0, 74, 110
2, 243456, Note_on_c, 0, 71, 110
2, 243836, Note_off_c, 0, 79, 100
2, 243836, Note_off_c, 0, 74, 100
2, 243836, Note_off_c, 0, 71, 100
2, 243840, Note_on_c, 0, 80, 100
2, 243840, Note_on_c, 0, 75, 100
2, 243840, Note_on_c, 0, 72, 100
2, 244220, Note_off_c, 0, 80, 100
2, 244220, Note_off_c, 0, 75, 100
2, 244220, Note_off_c, 0, 72, 100
2, 244224, Note_on_c, 0, 79, 100
2, 244224, Note_on_c, 0, 74, 100
2, 244224, Note_on_c, 0, 71, 100
2, 244412, Note_off_c, 0, 79, 100
2, 244412, Note_off_c, 0, 74, 100
2, 244412, Note_off_c, 0, 71, 100
2, 244608, Note_on_c, 0, 79, 110
2, 244608, Note_on_c, 0, 74, 110
2, 244608, Note_on_c, 0, 71, 110
2, 244988, Note_off_c, 0, 79, 100
2, 244988, Note_off_c, 0, 74, 100
2, 244988, Note_off_c, 0, 71, 100
2, 244992, Note_on_c, 0, 80, 100
2, 244992, Note_on_c, 0, 75, 100
2, 244992, Note_on_c, 0, 72, 100
2, 245372, Note_off_c, 0, 80, 100
2, 245372, Note_off_c, 0, 75, 100
2, 245372, Note_off_c, 0, 72, 100
2, 245376, Note_on_c, 0, 79, 100
2, 245376, Note_on_c, 0, 74, 100
2, 245376, Note_on_c, 0, 71, 100
2, 245564, Note_off_c, 0, 79, 100
2, 245564, Note_off_c, 0, 74, 100
2, 245564, Note_off_c, 0, 71, 100
2, 245568, Note_on_c, 0, 79, 100
2, 245756, Note_off_c, 0, 79, 100
2, 245760, Note_on_c, 0, 78, 99
2, 245948, Note_off_c, 0, 78, 100
2, 245952, Note_on_c, 0, 79, 97
2, 246140, Note_off_c, 0, 79, 100
2, 246144, Note_on_c, 0, 80, 95
2, 246524, Note_off_c, 0, 80, 100
2, 246528, Note_on_c, 0, 79, 91
2, 246716, Note_off_c, 0, 79, 100
2, 246720, Note_on_c, 0, 79, 90
2, 246908, Note_off_c, 0, 79, 100
2, 246912, Note_on_c, 0, 78, 88
2, 247100, Note_off_c, 0, 78, 100
2, 247104, Note_on_c, 0, 79, 86
2, 247292, Note_off_c, 0, 79, 100
2, 247296, Note_on_c, 0, 80, 84
2, 247676, Note_off_c, 0, 80, 100
2, 247680, Note_on_c, 0, 79, 81
2, 247868, Note_off_c, 0, 79, 100
2, 247872, Note_on_c, 0, 79, 70
2, 248060, Note_off_c, 0, 79, 100
2, 248064, Note_on_c, 0, 78, 70
2, 248252, Note_off_c, 0, 78, 100
2, 248256, Note_on_c, 0, 79, 70
2, 248444, Note_off_c, 0, 79, 100
2, 248448, Note_on_c, 0, 80, 70
2, 248828, Note_off_c, 0, 80, 100
2, 248832, Note_on_c, 0, 79, 70
2, 249020, Note_off_c, 0, 79, 100
2, 249024, Note_on_c, 0, 79, 80
2, 249212, Note_off_c, 0, 79, 100
2, 249216, Note_on_c, 0, 78, 80
2, 249404, Note_off_c, 0, 78, 100
2, 249408, Note_on_c, 0, 79, 80
2, 249596, Note_off_c, 0, 79, 100
2, 249600, Note_on_c, 0, 81, 80
2, 249980, Note_off_c, 0, 81, 100
2, 249984, Note_on_c, 0, 79, 80
2, 250364, Note_off_c, 0, 79, 100
2, 250368, Note_on_c, 0, 77, 80
2, 250748, Note_off_c, 0, 77, 100
2, 250752, Note_on_c, 0, 76, 80
2, 251132, Note_off_c, 0, 76, 100
2, 251136, Note_on_c, 0, 74, 80
2, 251516, Note_off_c, 0, 74, 100
2, 251520, Note_on_c, 0, 72, 80
2, 251900, Note_off_c, 0, 72, 100
2, 251904, Note_on_c, 0, 71, 80
2, 253052, Note_off_c, 0, 71, 100
2, 253056, Note_on_c, 0, 72, 80
2, 254204, Note_off_c, 0, 72, 100
2, 254208, Note_on_c, 0, 74, 80
2, 254208, Note_on_c, 0, 71, 80
2, 254208, Note_on_c, 0, 67, 80
2, 255356, Note_off_c, 0, 74, 100
2, 255356, Note_off_c, 0, 71, 100
2, 255356, Note_off_c, 0, 67, 100
2, 255360, Note_on_c, 0, 72, 80
2, 255360, Note_on_c, 0, 67, 80
2, 255360, Note_on_c, 0, 76, 80
2, 256508, Note_off_c, 0, 72, 100
2, 256508, Note_off_c, 0, 67, 100
2, 256512, Note_on_c, 0, 73, 80
2, 256512, Note_on_c, 0, 69, 80
2, 256892, Note_off_c, 0, 76, 100
2, 256892, Note_off_c, 0, 73, 100
2, 256896, Note_on_c, 0, 74, 80
2, 256896, Note_on_c, 0, 77, 80
2, 257276, Note_off_c, 0, 69, 100
2, 257276, Note_off_c, 0, 74, 100
2, 257276, Note_off_c, 0, 77, 100
2, 257280, Note_on_c, 0, 74, 80
2, 257280, Note_on_c, 0, 71, 80
2, 257280, Note_on_c, 0, 65, 80
2, 257660, Note_off_c, 0, 74, 100
2, 257660, Note_off_c, 0, 71, 100
2, 257660, Note_off_c, 0, 65, 100
2, 257664, Note_on_c, 0, 72, 80
2, 257664, Note_on_c, 0, 64, 80
2, 258044, Note_off_c, 0, 72, 100
2, 258044, Note_off_c, 0, 64, 100
2, 259392, Note_on_c, 0, 76, 80
2, 259580, Note_off_c, 0, 76, 100
2, 259584, Note_on_c, 0, 74, 80
2, 259772, Note_off_c, 0, 74, 100
2, 259776, Note_on_c, 0, 76, 80
2, 259964, Note_off_c, 0, 76, 100
2, 259968, Note_on_c, 0, 77, 80
2, 260348, Note_off_c, 0, 77, 100
2, 260544, Note_on_c, 0, 77, 80
2, 260732, Note_off_c, 0, 77, 100
2, 260736, Note_on_c, 0, 76, 80
2, 260924, Note_off_c, 0, 76, 100
2, 260928, Note_on_c, 0, 77, 80
2, 261116, Note_off_c, 0, 77, 100
2, 261120, Note_on_c, 0, 83, 80
2, 261500, Note_off_c, 0, 83, 100
2, 261696, Note_on_c, 0, 83, 80
2, 261884, Note_off_c, 0, 83, 100
2, 261888, Note_on_c, 0, 81, 80
2, 262076, Note_off_c, 0, 81, 100
2, 262080, Note_on_c, 0, 83, 80
2, 262268, Note_off_c, 0, 83, 100
2, 262272, Note_on_c, 0, 84, 80
2, 262652, Note_off_c, 0, 84, 100
2, 262848, Note_on_c, 0, 84, 80
2, 263036, Note_off_c, 0, 84, 100
2, 263040, Note_on_c, 0, 83, 80
2, 263228, Note_off_c, 0, 83, 100
2, 263232, Note_on_c, 0, 84, 80
2, 263420, Note_off_c, 0, 84, 100
2, 263424, Note_on_c, 0, 78, 80
2, 263804, Note_off_c, 0, 78, 100
2, 264000, Note_on_c, 0, 78, 80
2, 264188, Note_off_c, 0, 78, 100
2, 264192, Note_on_c, 0, 77, 80
2, 264380, Note_off_c, 0, 77, 100
2, 264384, Note_on_c, 0, 78, 80
2, 264572, Note_off_c, 0, 78, 100
2, 264576, Note_on_c, 0, 79, 80
2, 264956, Note_off_c, 0, 79, 100
2, 265152, Note_on_c, 0, 79, 80
2, 265340, Note_off_c, 0, 79, 100
2, 265344, Note_on_c, 0, 78, 80
2, 265532, Note_off_c, 0, 78, 100
2, 265536, Note_on_c, 0, 79, 80
2, 265724, Note_off_c, 0, 79, 100
2, 265728, Note_on_c, 0, 76, 80
2, 265728, Note_on_c, 0, 72, 80
2, 265728, Note_on_c, 0, 67, 80
2, 266108, Note_off_c, 0, 76, 100
2, 266108, Note_off_c, 0, 72, 100
2, 266108, Note_off_c, 0, 67, 100
2, 266112, Note_on_c, 0, 69, 80
2, 266112, Note_on_c, 0, 74, 80
2, 266112, Note_on_c, 0, 77, 80
2, 266492, Note_off_c, 0, 69, 100
2, 266492, Note_off_c, 0, 74, 100
2, 266492, Note_off_c, 0, 77, 100
2, 266496, Note_on_c, 0, 74, 80
2, 266496, Note_on_c, 0, 71, 80
2, 266496, Note_on_c, 0, 65, 80
2, 266876, Note_off_c, 0, 74, 100
2, 266876, Note_off_c, 0, 71, 100
2, 266876, Note_off_c, 0, 65, 100
2, 266880, Note_on_c, 0, 72, 80
2, 266880, Note_on_c, 0, 64, 80
2, 267260, Note_off_c, 0, 72, 100
2, 267260, Note_off_c, 0, 64, 100
2, 267456, Note_on_c, 0, 60, 80
2, 267644, Note_off_c, 0, 60, 100
2, 267648, Note_on_c, 0, 59, 80
2, 267836, Note_off_c, 0, 59, 100
2, 267840, Note_on_c, 0, 60, 80
2, 268028, Note_off_c, 0, 60, 100
2, 268032, Note_on_c, 0, 61, 101
2, 268412, Note_off_c, 0, 61, 100
2, 268416, Note_on_c, 0, 60, 80
2, 268604, Note_off_c, 0, 60, 100
2, 268800, Note_on_c, 0, 76, 100
2, 268800, Note_on_c, 0, 72, 100
2, 269180, Note_off_c, 0, 76, 100
2, 269180, Note_off_c, 0, 72, 100
2, 269184, Note_on_c, 0, 77, 100
2, 269184, Note_on_c, 0, 74, 100
2, 269184, Note_on_c, 0, 71, 100
2, 269564, Note_off_c, 0, 77, 100
2, 269564, Note_off_c, 0, 74, 100
2, 269564, Note_off_c, 0, 71, 100
2, 269568, Note_on_c, 0, 76, 100
2, 269568, Note_on_c, 0, 72, 100
2, 269756, Note_off_c, 0, 76, 100
2, 269756, Note_off_c, 0, 72, 100
2, 269760, Note_on_c, 0, 60, 80
2, 269948, Note_off_c, 0, 60, 100
2, 269952, Note_on_c, 0, 59, 80
2, 270140, Note_off_c, 0, 59, 100
2, 270144, Note_on_c, 0, 60, 80
2, 270332, Note_off_c, 0, 60, 100
2, 270336, Note_on_c, 0, 61, 101
2, 270716, Note_off_c, 0, 61, 100
2, 270720, Note_on_c, 0, 60, 80
2, 270908, Note_off_c, 0, 60, 100
2, 271104, Note_on_c, 0, 76, 110
2, 271104, Note_on_c, 0, 79, 110
2, 271104, Note_on_c, 0, 84, 110
2, 271484, Note_off_c, 0, 76, 100
2, 271484, Note_off_c, 0, 79, 100
2, 271484, Note_off_c, 0, 84, 100
2, 271488, Note_on_c, 0, 77, 110
2, 271488, Note_on_c, 0, 80, 110
2, 271488, Note_on_c, 0, 83, 110
2, 271868, Note_off_c, 0, 77, 100
2, 271868, Note_off_c, 0, 80, 100
2, 271868, Note_off_c, 0, 83, 100
2, 271872, Note_on_c, 0, 76, 110
2, 271872, Note_on_c, 0, 79, 110
2, 271872, Note_on_c, 0, 84, 110
2, 272060, Note_off_c, 0, 76, 100
2, 272060, Note_off_c, 0, 79, 100
2, 272060, Note_off_c, 0, 84, 100
2, 272064, Note_on_c, 0, 60, 80
2, 272252, Note_off_c, 0, 60, 100
2, 272256, Note_on_c, 0, 59, 80
2, 272444, Note_off_c, 0, 59, 100
2, 272448, Note_on_c, 0, 60, 80
2, 272636, Note_off_c, 0, 60, 100
2, 272640, Note_on_c, 0, 61, 103
2, 273020, Note_off_c, 0, 61, 100
2, 273024, Note_on_c, 0, 60, 80
2, 273212, Note_off_c, 0, 60, 100
2, 273408, Note_on_c, 0, 84, 110
2, 273408, Note_on_c, 0, 88, 110
2, 273788, Note_off_c, 0, 84, 100
2, 273788, Note_off_c, 0, 88, 100
2, 273792, Note_on_c, 0, 89, 110
2, 273792, Note_on_c, 0, 86, 110
2, 273792, Note_on_c, 0, 83, 110
2, 274172, Note_off_c, 0, 89, 100
2, 274172, Note_off_c, 0, 86, 100
2, 274172, Note_off_c, 0, 83, 100
2, 274176, Note_on_c, 0, 84, 110
2, 274176, Note_on_c, 0, 88, 110
2, 274556, Note_off_c, 0, 84, 100
2, 274556, Note_off_c, 0, 88, 100
2, 274560, Note_on_c, 0, 84, 110
2, 274560, Note_on_c, 0, 88, 110
2, 274940, Note_off_c, 0, 84, 100
2, 274940, Note_off_c, 0, 88, 100
2, 274944, Note_on_c, 0, 89, 110
2, 274944, Note_on_c, 0, 86, 110
2, 274944, Note_on_c, 0, 83, 110
2, 275324, Note_off_c, 0, 89, 100
2, 275324, Note_off_c, 0, 86, 100
2, 275324, Note_off_c, 0, 83, 100
2, 275328, Note_on_c, 0, 84, 110
2, 275328, Note_on_c, 0, 88, 110
2, 275708, Note_off_c, 0, 84, 100
2, 275708, Note_off_c, 0, 88, 100
2, 275712, Note_on_c, 0, 84, 110
2, 275712, Note_on_c, 0, 88, 110
2, 276092, Note_off_c, 0, 84, 100
2, 276092, Note_off_c, 0, 88, 100
2, 276096, Note_on_c, 0, 89, 110
2, 276096, Note_on_c, 0, 86, 110
2, 276096, Note_on_c, 0, 83, 110
2, 276476, Note_off_c, 0, 89, 100
2, 276476, Note_off_c, 0, 86, 100
2, 276476, Note_off_c, 0, 83, 100
2, 276480, Note_on_c, 0, 84, 110
2, 276480, Note_on_c, 0, 88, 110
2, 276860, Note_off_c, 0, 84, 100
2, 276860, Note_off_c, 0, 88, 100
2, 276864, Note_on_c, 0, 72, 120
2, 276864, Note_on_c, 0, 84, 120
2, 277244, Note_off_c, 0, 72, 100
2, 277244, Note_off_c, 0, 84, 100
2, 277248, Note_on_c, 0, 72, 120
2, 277248, Note_on_c, 0, 60, 120
2, 277628, Note_off_c, 0, 72, 100
2, 277628, Note_off_c, 0, 60, 100
2, 279168, Note_on_c, 0, 69, 120
2, 279168, Note_on_c, 0, 81, 120
2, 279548, Note_off_c, 0, 69, 100
2, 279548, Note_off_c, 0, 81, 100
2, 279552, Note_on_c, 0, 69, 120
2, 279552, Note_on_c, 0, 57, 120
2, 279932, Note_off_c, 0, 69, 100
2, 279932, Note_off_c, 0, 57, 100
2, 281472, Note_on_c, 0, 78, 120
2, 281472, Note_on_c, 0, 66, 120
2, 281852, Note_off_c, 0, 78, 100
2, 281852, Note_off_c, 0, 66, 100
2, 281856, Note_on_c, 0, 66, 120
2, 281856, Note_on_c, 0, 54, 120
2, 282236, Note_off_c, 0, 66, 100
2, 282236, Note_off_c, 0, 54, 100
2, 282624, Note_on_c, 0, 66, 120
2, 282624, Note_on_c, 0, 54, 120
2, 283004, Note_off_c, 0, 66, 100
2, 283004, Note_off_c, 0, 54, 100
2, 283008, Note_on_c, 0, 67, 120
2, 283008, Note_on_c, 0, 55, 120
2, 283388, Note_off_c, 0, 67, 100
2, 283388, Note_off_c, 0, 55, 100
2, 284160, Note_on_c, 0, 71, 80
2, 284160, Note_on_c, 0, 65, 80
2, 284160, Note_on_c, 0, 62, 80
2, 285308, Note_off_c, 0, 71, 100
2, 285308, Note_off_c, 0, 65, 100
2, 285308, Note_off_c, 0, 62, 100
2, 285312, Note_on_c, 0, 64, 80
2, 285312, Note_on_c, 0, 60, 80
2, 285312, Note_on_c, 0, 72, 80
2, 286460, Note_off_c, 0, 64, 100
2, 286460, Note_off_c, 0, 60, 100
2, 286460, Note_off_c, 0, 72, 100
2, 286464, Note_on_c, 0, 66, 80
2, 286464, Note_on_c, 0, 63, 80
2, 286464, Note_on_c, 0, 60, 80
2, 287612, Note_off_c, 0, 66, 100
2, 287612, Note_off_c, 0, 63, 100
2, 287612, Note_off_c, 0, 60, 100
2, 287616, Note_on_c, 0, 67, 80
2, 287616, Note_on_c, 0, 62, 80
2, 287616, Note_on_c, 0, 59, 80
2, 288764, Note_off_c, 0, 67, 100
2, 288764, Note_off_c, 0, 62, 100
2, 288764, Note_off_c, 0, 59, 100
2, 288768, Note_on_c, 0, 64, 80
2, 288768, Note_on_c, 0, 60, 80
2, 288768, Note_on_c, 0, 55, 80
2, 289916, Note_off_c, 0, 64, 100
2, 289916, Note_off_c, 0, 60, 100
2, 289920, Note_on_c, 0, 65, 80
2, 289920, Note_on_c, 0, 62, 80
2, 291068, Note_off_c, 0, 55, 100
2, 291068, Note_off_c, 0, 65, 100
2, 291068, Note_off_c, 0, 62, 100
2, 291072, Note_on_c, 0, 62, 80
2, 291072, Note_on_c, 0, 59, 80
2, 291072, Note_on_c, 0, 53, 80
2, 292220, Note_off_c, 0, 62, 100
2, 292220, Note_off_c, 0, 59, 100
2, 292220, Note_off_c, 0, 53, 100
2, 292224, Note_on_c, 0, 60, 80
2, 292224, Note_on_c, 0, 55, 80
2, 292224, Note_on_c, 0, 52, 80
2, 293372, Note_off_c, 0, 60, 100
2, 293372, Note_off_c, 0, 55, 100
2, 293372, Note_off_c, 0, 52, 100
2, 293376, Note_on_c, 0, 65, 70
2, 293376, Note_on_c, 0, 59, 70
2, 294524, Note_off_c, 0, 65, 100
2, 294524, Note_off_c, 0, 59, 100
2, 294528, Note_on_c, 0, 64, 70
2, 294528, Note_on_c, 0, 60, 70
2, 295676, Note_off_c, 0, 64, 100
2, 295676, Note_off_c, 0, 60, 100
2, 295680, Note_on_c, 0, 71, 70
2, 295680, Note_on_c, 0, 65, 70
2, 296828, Note_off_c, 0, 71, 100
2, 296828, Note_off_c, 0, 65, 100
2, 296832, Note_on_c, 0, 72, 70
2, 296832, Note_on_c, 0, 64, 70
2, 297980, Note_off_c, 0, 72, 100
2, 297980, Note_off_c, 0, 64, 100
2, 297984, Note_on_c, 0, 77, 70
2, 297984, Note_on_c, 0, 71, 70
2, 299132, Note_off_c, 0, 77, 100
2, 299132, Note_off_c, 0, 71, 100
2, 299136, Note_on_c, 0, 76, 70
2, 299136, Note_on_c, 0, 72, 70
2, 300284, Note_off_c, 0, 76, 100
2, 300284, Note_off_c, 0, 72, 100
2, 300288, Note_on_c, 0, 77, 70
2, 300288, Note_on_c, 0, 83, 70
2, 301436, Note_off_c, 0, 77, 100
2, 301436, Note_off_c, 0, 83, 100
2, 301440, Note_on_c, 0, 76, 70
2, 301440, Note_on_c, 0, 84, 70
2, 301820, Note_off_c, 0, 76, 100
2, 301820, Note_off_c, 0, 84, 100
2, 302208, Note_on_c, 0, 47, 70
2, 302588, Note_off_c, 0, 47, 100
2, 302592, Note_on_c, 0, 48, 70
2, 302972, Note_off_c, 0, 48, 100
2, 303360, Note_on_c, 0, 47, 70
2, 303740, Note_off_c, 0, 47, 100
2, 303744, Note_on_c, 0, 48, 70
2, 304892, Note_off_c, 0, 48, 100
2, 305280, Control_c, 0, 7, 0
2, 305664, Note_on_c, 0, 48, 1
2, 306044, Note_off_c, 0, 48, 100
2, 306044, End_track
3, 0, Start_track
3, 0, Title_t, "Left"
3, 0, Control_c, 1, 0, 0
3, 0, Program_c, 1, 0
3, 0, Control_c, 1, 7, 100
3, 0, Control_c, 1, 10, 54
3, 0, Control_c, 1, 91, 127
3, 0, Key_signature, 0, "major"
3, 2496, Note_on_c, 1, 64, 80
3, 2684, Note_off_c, 1, 64, 100
3, 2688, Note_on_c, 1, 62, 80
3, 2876, Note_off_c, 1, 62, 100
3, 2880, Note_on_c, 1, 64, 80
3, 3068, Note_off_c, 1, 64, 100
3, 3072, Note_on_c, 1, 65, 80
3, 3452, Note_off_c, 1, 65, 100
3, 3456, Note_on_c, 1, 62, 80
3, 3836, Note_off_c, 1, 62, 100
3, 3840, Note_on_c, 1, 67, 80
3, 4220, Note_off_c, 1, 67, 100
3, 4800, Note_on_c, 1, 55, 80
3, 4988, Note_off_c, 1, 55, 100
3, 4992, Note_on_c, 1, 54, 80
3, 5180, Note_off_c, 1, 54, 100
3, 5184, Note_on_c, 1, 55, 80
3, 5372, Note_off_c, 1, 55, 100
3, 5376, Note_on_c, 1, 57, 80
3, 5756, Note_off_c, 1, 57, 100
3, 5760, Note_on_c, 1, 55, 80
3, 6140, Note_off_c, 1, 55, 100
3, 6144, Note_on_c, 1, 53, 80
3, 6524, Note_off_c, 1, 53, 100
3, 6528, Note_on_c, 1, 52, 80
3, 6908, Note_off_c, 1, 52, 100
3, 6912, Note_on_c, 1, 50, 80
3, 7292, Note_off_c, 1, 50, 100
3, 7296, Note_on_c, 1, 48, 80
3, 7676, Note_off_c, 1, 48, 100
3, 7680, Note_on_c, 1, 47, 80
3, 8060, Note_off_c, 1, 47, 100
3, 8064, Note_on_c, 1, 43, 80
3, 8444, Note_off_c, 1, 43, 100
3, 8448, Note_on_c, 1, 48, 80
3, 8828, Note_off_c, 1, 48, 100
3, 8832, Note_on_c, 1, 43, 80
3, 9212, Note_off_c, 1, 43, 100
3, 9408, Note_on_c, 1, 74, 80
3, 9596, Note_off_c, 1, 74, 100
3, 9600, Note_on_c, 1, 73, 80
3, 9788, Note_off_c, 1, 73, 100
3, 9792, Note_on_c, 1, 74, 80
3, 9980, Note_off_c, 1, 74, 100
3, 9984, Note_on_c, 1, 75, 80
3, 10364, Note_off_c, 1, 75, 100
3, 10368, Note_on_c, 1, 74, 80
3, 10748, Note_off_c, 1, 74, 100
3, 10752, Note_on_c, 1, 72, 80
3, 11132, Note_off_c, 1, 72, 100
3, 11136, Note_on_c, 1, 70, 80
3, 11516, Note_off_c, 1, 70, 100
3, 11520, Note_on_c, 1, 69, 80
3, 11900, Note_off_c, 1, 69, 100
3, 11904, Note_on_c, 1, 67, 80
3, 12284, Note_off_c, 1, 67, 100
3, 12288, Note_on_c, 1, 66, 80
3, 12288, Note_on_c, 1, 63, 80
3, 12668, Note_off_c, 1, 66, 100
3, 12668, Note_off_c, 1, 63, 100
3, 12672, Note_on_c, 1, 62, 80
3, 13052, Note_off_c, 1, 62, 100
3, 13056, Note_on_c, 1, 60, 80
3, 13436, Note_off_c, 1, 60, 100
3, 13440, Note_on_c, 1, 58, 80
3, 13820, Note_off_c, 1, 58, 100
3, 13824, Note_on_c, 1, 57, 87
3, 14204, Note_off_c, 1, 57, 100
3, 14208, Note_on_c, 1, 55, 95
3, 14588, Note_off_c, 1, 55, 100
3, 14592, Note_on_c, 1, 58, 110
3, 14592, Note_on_c, 1, 46, 110
3, 14972, Note_off_c, 1, 58, 100
3, 14972, Note_off_c, 1, 46, 100
3, 14976, Note_on_c, 1, 57, 110
3, 14976, Note_on_c, 1, 45, 110
3, 15356, Note_off_c, 1, 57, 100
3, 15356, Note_off_c, 1, 45, 100
3, 15360, Note_on_c, 1, 55, 110
3, 15360, Note_on_c, 1, 43, 110
3, 15740, Note_off_c, 1, 55, 100
3, 15740, Note_off_c, 1, 43, 100
3, 15744, Note_on_c, 1, 54, 110
3, 15744, Note_on_c, 1, 42, 110
3, 16124, Note_off_c, 1, 54, 100
3, 16124, Note_off_c, 1, 42, 100
3, 16128, Note_on_c, 1, 52, 110
3, 16128, Note_on_c, 1, 40, 110
3, 16508, Note_off_c, 1, 52, 100
3, 16508, Note_off_c, 1, 40, 100
3, 16512, Note_on_c, 1, 50, 110
3, 16512, Note_on_c, 1, 38, 110
3, 16892, Note_off_c, 1, 50, 100
3, 16892, Note_off_c, 1, 38, 100
3, 16896, Note_on_c, 1, 55, 110
3, 16896, Note_on_c, 1, 43, 110
3, 17276, Note_off_c, 1, 55, 100
3, 17276, Note_off_c, 1, 43, 100
3, 17280, Note_on_c, 1, 48, 110
3, 17280, Note_on_c, 1, 36, 110
3, 17660, Note_off_c, 1, 48, 100
3, 17660, Note_off_c, 1, 36, 100
3, 17664, Note_on_c, 1, 38, 110
3, 17664, Note_on_c, 1, 50, 110
3, 18044, Note_off_c, 1, 38, 100
3, 18044, Note_off_c, 1, 50, 100
3, 18048, Note_on_c, 1, 43, 110
3, 18048, Note_on_c, 1, 31, 110
3, 18428, Note_off_c, 1, 43, 100
3, 18428, Note_off_c, 1, 31, 100
3, 20928, Note_on_c, 1, 64, 80
3, 21116, Note_off_c, 1, 64, 100
3, 21120, Note_on_c, 1, 62, 80
3, 21308, Note_off_c, 1, 62, 100
3, 21312, Note_on_c, 1, 64, 80
3, 21500, Note_off_c, 1, 64, 100
3, 21504, Note_on_c, 1, 65, 80
3, 21884, Note_off_c, 1, 65, 100
3, 21888, Note_on_c, 1, 62, 80
3, 22268, Note_off_c, 1, 62, 100
3, 22272, Note_on_c, 1, 67, 80
3, 22652, Note_off_c, 1, 67, 100
3, 23232, Note_on_c, 1, 55, 80
3, 23420, Note_off_c, 1, 55, 100
3, 23424, Note_on_c, 1, 54, 80
3, 23612, Note_off_c, 1, 54, 100
3, 23616, Note_on_c, 1, 55, 80
3, 23804, Note_off_c, 1, 55, 100
3, 23808, Note_on_c, 1, 57, 80
3, 24188, Note_off_c, 1, 57, 100
3, 24192, Note_on_c, 1, 55, 80
3, 24572, Note_off_c, 1, 55, 100
3, 24576, Note_on_c, 1, 53, 80
3, 24956, Note_off_c, 1, 53, 100
3, 24960, Note_on_c, 1, 52, 80
3, 25340, Note_off_c, 1, 52, 100
3, 25344, Note_on_c, 1, 50, 80
3, 25724, Note_off_c, 1, 50, 100
3, 25728, Note_on_c, 1, 48, 80
3, 26108, Note_off_c, 1, 48, 100
3, 26112, Note_on_c, 1, 47, 80
3, 26492, Note_off_c, 1, 47, 100
3, 26496, Note_on_c, 1, 43, 80
3, 26876, Note_off_c, 1, 43, 100
3, 26880, Note_on_c, 1, 48, 80
3, 27260, Note_off_c, 1, 48, 100
3, 27264, Note_on_c, 1, 43, 80
3, 27644, Note_off_c, 1, 43, 100
3, 27840, Note_on_c, 1, 74, 80
3, 28028, Note_off_c, 1, 74, 100
3, 28032, Note_on_c, 1, 73, 80
3, 28220, Note_off_c, 1, 73, 100
3, 28224, Note_on_c, 1, 74, 80
3, 28412, Note_off_c, 1, 74, 100
3, 28416, Note_on_c, 1, 75, 80
3, 28796, Note_off_c, 1, 75, 100
3, 28800, Note_on_c, 1, 74, 81
3, 29180, Note_off_c, 1, 74, 100
3, 29184, Note_on_c, 1, 72, 83
3, 29564, Note_off_c, 1, 72, 100
3, 29568, Note_on_c, 1, 70, 85
3, 29948, Note_off_c, 1, 70, 100
3, 29952, Note_on_c, 1, 69, 86
3, 30332, Note_off_c, 1, 69, 100
3, 30336, Note_on_c, 1, 67, 88
3, 30716, Note_off_c, 1, 67, 100
3, 30720, Note_on_c, 1, 66, 90
3, 30720, Note_on_c, 1, 63, 90
3, 31100, Note_off_c, 1, 66, 100
3, 31100, Note_off_c, 1, 63, 100
3, 31104, Note_on_c, 1, 62, 92
3, 31484, Note_off_c, 1, 62, 100
3, 31488, Note_on_c, 1, 60, 93
3, 31868, Note_off_c, 1, 60, 100
3, 31872, Note_on_c, 1, 58, 95
3, 32252, Note_off_c, 1, 58, 100
3, 32256, Note_on_c, 1, 57, 97
3, 32636, Note_off_c, 1, 57, 100
3, 32640, Note_on_c, 1, 55, 99
3, 33020, Note_off_c, 1, 55, 100
3, 33024, Note_on_c, 1, 58, 110
3, 33024, Note_on_c, 1, 46, 110
3, 33404, Note_off_c, 1, 58, 100
3, 33404, Note_off_c, 1, 46, 100
3, 33408, Note_on_c, 1, 57, 110
3, 33408, Note_on_c, 1, 45, 110
3, 33788, Note_off_c, 1, 57, 100
3, 33788, Note_off_c, 1, 45, 100
3, 33792, Note_on_c, 1, 55, 110
3, 33792, Note_on_c, 1, 43, 110
3, 34172, Note_off_c, 1, 55, 100
3, 34172, Note_off_c, 1, 43, 100
3, 34176, Note_on_c, 1, 54, 110
3, 34176, Note_on_c, 1, 42, 110
3, 34556, Note_off_c, 1, 54, 100
3, 34556, Note_off_c, 1, 42, 100
3, 34560, Note_on_c, 1, 52, 110
3, 34560, Note_on_c, 1, 40, 110
3, 34940, Note_off_c, 1, 52, 100
3, 34940, Note_off_c, 1, 40, 100
3, 34944, Note_on_c, 1, 50, 110
3, 34944, Note_on_c, 1, 38, 110
3, 35324, Note_off_c, 1, 50, 100
3, 35324, Note_off_c, 1, 38, 100
3, 35328, Note_on_c, 1, 55, 110
3, 35328, Note_on_c, 1, 43, 110
3, 35708, Note_off_c, 1, 55, 100
3, 35708, Note_off_c, 1, 43, 100
3, 35712, Note_on_c, 1, 48, 110
3, 35712, Note_on_c, 1, 36, 110
3, 36092, Note_off_c, 1, 48, 100
3, 36092, Note_off_c, 1, 36, 100
3, 36096, Note_on_c, 1, 38, 110
3, 36096, Note_on_c, 1, 50, 110
3, 36476, Note_off_c, 1, 38, 100
3, 36476, Note_off_c, 1, 50, 100
3, 36480, Note_on_c, 1, 43, 110
3, 36480, Note_on_c, 1, 31, 110
3, 36860, Note_off_c, 1, 43, 100
3, 36860, Note_off_c, 1, 31, 100
3, 37056, Note_on_c, 1, 67, 80
3, 37244, Note_off_c, 1, 67, 100
3, 37248, Note_on_c, 1, 66, 80
3, 37436, Note_off_c, 1, 66, 100
3, 37440, Note_on_c, 1, 67, 80
3, 37628, Note_off_c, 1, 67, 100
3, 37632, Note_on_c, 1, 68, 80
3, 38012, Note_off_c, 1, 68, 100
3, 38016, Note_on_c, 1, 67, 80
3, 38396, Note_off_c, 1, 67, 100
3, 38400, Note_on_c, 1, 65, 80
3, 38780, Note_off_c, 1, 65, 100
3, 38784, Note_on_c, 1, 63, 80
3, 39164, Note_off_c, 1, 63, 100
3, 39168, Note_on_c, 1, 62, 80
3, 39548, Note_off_c, 1, 62, 100
3, 39552, Note_on_c, 1, 60, 80
3, 39932, Note_off_c, 1, 60, 100
3, 39936, Note_on_c, 1, 66, 80
3, 40316, Note_off_c, 1, 66, 100
3, 40320, Note_on_c, 1, 65, 80
3, 40700, Note_off_c, 1, 65, 100
3, 40704, Note_on_c, 1, 63, 80
3, 41084, Note_off_c, 1, 63, 100
3, 41088, Note_on_c, 1, 61, 80
3, 41468, Note_off_c, 1, 61, 100
3, 41472, Note_on_c, 1, 60, 80
3, 41852, Note_off_c, 1, 60, 100
3, 41856, Note_on_c, 1, 58, 80
3, 42236, Note_off_c, 1, 58, 100
3, 42240, Note_on_c, 1, 57, 80
3, 42620, Note_off_c, 1, 57, 100
3, 42816, Note_on_c, 1, 57, 80
3, 43004, Note_off_c, 1, 57, 100
3, 43008, Note_on_c, 1, 55, 80
3, 43196, Note_off_c, 1, 55, 100
3, 43200, Note_on_c, 1, 57, 80
3, 43388, Note_off_c, 1, 57, 100
3, 43392, Note_on_c, 1, 58, 80
3, 43772, Note_off_c, 1, 58, 100
3, 43968, Note_on_c, 1, 61, 80
3, 44156, Note_off_c, 1, 61, 100
3, 44160, Note_on_c, 1, 60, 80
3, 44348, Note_off_c, 1, 60, 100
3, 44352, Note_on_c, 1, 61, 80
3, 44540, Note_off_c, 1, 61, 100
3, 44544, Note_on_c, 1, 55, 80
3, 44924, Note_off_c, 1, 55, 100
3, 45120, Note_on_c, 1, 55, 80
3, 45308, Note_off_c, 1, 55, 100
3, 45312, Note_on_c, 1, 53, 80
3, 45500, Note_off_c, 1, 53, 100
3, 45504, Note_on_c, 1, 55, 80
3, 45692, Note_off_c, 1, 55, 100
3, 45696, Note_on_c, 1, 56, 80
3, 46076, Note_off_c, 1, 56, 100
3, 46272, Note_on_c, 1, 60, 80
3, 46460, Note_off_c, 1, 60, 100
3, 46464, Note_on_c, 1, 59, 80
3, 46652, Note_off_c, 1, 59, 100
3, 46656, Note_on_c, 1, 60, 80
3, 46844, Note_off_c, 1, 60, 100
3, 46848, Note_on_c, 1, 54, 80
3, 47228, Note_off_c, 1, 54, 100
3, 47424, Note_on_c, 1, 54, 80
3, 47612, Note_off_c, 1, 54, 100
3, 47616, Note_on_c, 1, 52, 80
3, 47804, Note_off_c, 1, 52, 100
3, 47808, Note_on_c, 1, 54, 80
3, 47996, Note_off_c, 1, 54, 100
3, 48000, Note_on_c, 1, 55, 80
3, 48380, Note_off_c, 1, 55, 100
3, 48576, Note_on_c, 1, 55, 80
3, 48764, Note_off_c, 1, 55, 100
3, 48768, Note_on_c, 1, 54, 80
3, 48956, Note_off_c, 1, 54, 100
3, 48960, Note_on_c, 1, 55, 80
3, 49148, Note_off_c, 1, 55, 100
3, 49152, Note_on_c, 1, 51, 110
3, 49532, Note_off_c, 1, 51, 100
3, 49536, Note_on_c, 1, 50, 110
3, 49916, Note_off_c, 1, 50, 100
3, 49920, Note_on_c, 1, 48, 110
3, 50300, Note_off_c, 1, 48, 100
3, 50304, Note_on_c, 1, 43, 110
3, 50684, Note_off_c, 1, 43, 100
3, 50880, Note_on_c, 1, 43, 100
3, 51068, Note_off_c, 1, 43, 100
3, 51072, Note_on_c, 1, 42, 100
3, 51260, Note_off_c, 1, 42, 100
3, 51264, Note_on_c, 1, 43, 100
3, 51452, Note_off_c, 1, 43, 100
3, 51456, Note_on_c, 1, 44, 100
3, 51836, Note_off_c, 1, 44, 100
3, 51840, Note_on_c, 1, 43, 100
3, 52028, Note_off_c, 1, 43, 100
3, 52224, Note_on_c, 1, 62, 110
3, 52224, Note_on_c, 1, 59, 110
3, 52224, Note_on_c, 1, 55, 110
3, 52604, Note_off_c, 1, 62, 100
3, 52604, Note_off_c, 1, 59, 100
3, 52604, Note_off_c, 1, 55, 100
3, 52608, Note_on_c, 1, 55, 100
3, 52608, Note_on_c, 1, 60, 100
3, 52608, Note_on_c, 1, 63, 100
3, 52988, Note_off_c, 1, 60, 100
3, 52988, Note_off_c, 1, 63, 100
3, 52992, Note_on_c, 1, 62, 100
3, 52992, Note_on_c, 1, 59, 100
3, 53180, Note_off_c, 1, 55, 100
3, 53180, Note_off_c, 1, 62, 100
3, 53180, Note_off_c, 1, 59, 100
3, 53184, Note_on_c, 1, 43, 100
3, 53372, Note_off_c, 1, 43, 100
3, 53376, Note_on_c, 1, 42, 100
3, 53564, Note_off_c, 1, 42, 100
3, 53568, Note_on_c, 1, 43, 100
3, 53756, Note_off_c, 1, 43, 100
3, 53760, Note_on_c, 1, 44, 100
3, 54140, Note_off_c, 1, 44, 100
3, 54144, Note_on_c, 1, 43, 100
3, 54332, Note_off_c, 1, 43, 100
3, 54528, Note_on_c, 1, 62, 110
3, 54528, Note_on_c, 1, 59, 110
3, 54528, Note_on_c, 1, 55, 110
3, 54908, Note_off_c, 1, 62, 100
3, 54908, Note_off_c, 1, 59, 100
3, 54908, Note_off_c, 1, 55, 100
3, 54912, Note_on_c, 1, 63, 100
3, 54912, Note_on_c, 1, 60, 100
3, 54912, Note_on_c, 1, 55, 100
3, 55292, Note_off_c, 1, 63, 100
3, 55292, Note_off_c, 1, 60, 100
3, 55296, Note_on_c, 1, 62, 100
3, 55296, Note_on_c, 1, 59, 100
3, 55484, Note_off_c, 1, 55, 100
3, 55484, Note_off_c, 1, 62, 100
3, 55484, Note_off_c, 1, 59, 100
3, 55488, Note_on_c, 1, 43, 100
3, 55676, Note_off_c, 1, 43, 100
3, 55680, Note_on_c, 1, 42, 100
3, 55868, Note_off_c, 1, 42, 100
3, 55872, Note_on_c, 1, 43, 100
3, 56060, Note_off_c, 1, 43, 100
3, 56064, Note_on_c, 1, 44, 100
3, 56444, Note_off_c, 1, 44, 100
3, 56448, Note_on_c, 1, 43, 100
3, 56636, Note_off_c, 1, 43, 100
3, 56832, Note_on_c, 1, 62, 110
3, 56832, Note_on_c, 1, 59, 110
3, 56832, Note_on_c, 1, 55, 110
3, 57212, Note_off_c, 1, 62, 100
3, 57212, Note_off_c, 1, 59, 100
3, 57212, Note_off_c, 1, 55, 100
3, 57216, Note_on_c, 1, 63, 100
3, 57216, Note_on_c, 1, 60, 100
3, 57216, Note_on_c, 1, 55, 100
3, 57596, Note_off_c, 1, 63, 100
3, 57596, Note_off_c, 1, 60, 100
3, 57600, Note_on_c, 1, 59, 100
3, 57600, Note_on_c, 1, 62, 100
3, 57788, Note_off_c, 1, 55, 100
3, 57788, Note_off_c, 1, 59, 100
3, 57788, Note_off_c, 1, 62, 100
3, 57984, Note_on_c, 1, 62, 110
3, 57984, Note_on_c, 1, 59, 110
3, 57984, Note_on_c, 1, 55, 110
3, 58364, Note_off_c, 1, 62, 100
3, 58364, Note_off_c, 1, 59, 100
3, 58364, Note_off_c, 1, 55, 100
3, 58368, Note_on_c, 1, 63, 100
3, 58368, Note_on_c, 1, 60, 100
3, 58368, Note_on_c, 1, 55, 100
3, 58748, Note_off_c, 1, 63, 100
3, 58748, Note_off_c, 1, 60, 100
3, 58752, Note_on_c, 1, 59, 100
3, 58752, Note_on_c, 1, 62, 100
3, 58940, Note_off_c, 1, 55, 100
3, 58940, Note_off_c, 1, 59, 100
3, 58940, Note_off_c, 1, 62, 100
3, 59136, Note_on_c, 1, 62, 110
3, 59136, Note_on_c, 1, 59, 110
3, 59136, Note_on_c, 1, 55, 110
3, 59516, Note_off_c, 1, 62, 100
3, 59516, Note_off_c, 1, 59, 100
3, 59516, Note_off_c, 1, 55, 100
3, 59520, Note_on_c, 1, 63, 100
3, 59520, Note_on_c, 1, 60, 100
3, 59520, Note_on_c, 1, 55, 100
3, 59900, Note_off_c, 1, 63, 100
3, 59900, Note_off_c, 1, 60, 100
3, 59904, Note_on_c, 1, 59, 100
3, 59904, Note_on_c, 1, 62, 100
3, 60092, Note_off_c, 1, 55, 100
3, 60092, Note_off_c, 1, 59, 100
3, 60092, Note_off_c, 1, 62, 100
3, 65856, Note_on_c, 1, 64, 80
3, 66044, Note_off_c, 1, 64, 100
3, 66048, Note_on_c, 1, 62, 80
3, 66236, Note_off_c, 1, 62, 100
3, 66240, Note_on_c, 1, 64, 80
3, 66428, Note_off_c, 1, 64, 100
3, 66432, Note_on_c, 1, 65, 80
3, 66812, Note_off_c, 1, 65, 100
3, 66816, Note_on_c, 1, 62, 80
3, 67196, Note_off_c, 1, 62, 100
3, 67200, Note_on_c, 1, 67, 80
3, 67580, Note_off_c, 1, 67, 100
3, 67584, Note_on_c, 1, 64, 80
3, 67964, Note_off_c, 1, 64, 100
3, 67968, Note_on_c, 1, 62, 80
3, 68160, Note_on_c, 1, 52, 80
3, 68348, Note_off_c, 1, 62, 100
3, 68348, Note_off_c, 1, 52, 100
3, 68352, Note_on_c, 1, 60, 80
3, 68352, Note_on_c, 1, 50, 80
3, 68540, Note_off_c, 1, 50, 100
3, 68544, Note_on_c, 1, 52, 80
3, 68732, Note_off_c, 1, 60, 100
3, 68732, Note_off_c, 1, 52, 100
3, 68736, Note_on_c, 1, 53, 80
3, 69116, Note_off_c, 1, 53, 100
3, 69120, Note_on_c, 1, 50, 80
3, 69500, Note_off_c, 1, 50, 100
3, 69504, Note_on_c, 1, 55, 80
3, 69884, Note_off_c, 1, 55, 100
3, 69888, Note_on_c, 1, 52, 80
3, 70268, Note_off_c, 1, 52, 100
3, 70272, Note_on_c, 1, 50, 80
3, 70652, Note_off_c, 1, 50, 100
3, 70656, Note_on_c, 1, 48, 80
3, 71036, Note_off_c, 1, 48, 100
3, 71040, Note_on_c, 1, 41, 80
3, 71420, Note_off_c, 1, 41, 100
3, 71808, Note_on_c, 1, 43, 80
3, 72188, Note_off_c, 1, 43, 100
3, 72192, Note_on_c, 1, 48, 80
3, 72192, Note_on_c, 1, 36, 80
3, 72572, Note_off_c, 1, 48, 100
3, 72572, Note_off_c, 1, 36, 100
3, 72768, Note_on_c, 1, 72, 80
3, 72956, Note_off_c, 1, 72, 100
3, 72960, Note_on_c, 1, 71, 80
3, 73148, Note_off_c, 1, 71, 100
3, 73152, Note_on_c, 1, 72, 80
3, 73340, Note_off_c, 1, 72, 100
3, 73344, Note_on_c, 1, 73, 80
3, 73724, Note_off_c, 1, 73, 100
3, 73728, Note_on_c, 1, 72, 80
3, 74108, Note_off_c, 1, 72, 100
3, 74112, Note_on_c, 1, 70, 80
3, 74492, Note_off_c, 1, 70, 100
3, 74496, Note_on_c, 1, 68, 80
3, 74876, Note_off_c, 1, 68, 100
3, 74880, Note_on_c, 1, 67, 80
3, 75260, Note_off_c, 1, 67, 100
3, 75264, Note_on_c, 1, 65, 80
3, 75644, Note_off_c, 1, 65, 100
3, 75648, Note_on_c, 1, 68, 80
3, 76028, Note_off_c, 1, 68, 100
3, 76032, Note_on_c, 1, 67, 80
3, 76412, Note_off_c, 1, 67, 100
3, 76416, Note_on_c, 1, 65, 80
3, 76796, Note_off_c, 1, 65, 100
3, 76800, Note_on_c, 1, 63, 80
3, 77180, Note_off_c, 1, 63, 100
3, 77184, Note_on_c, 1, 62, 80
3, 77564, Note_off_c, 1, 62, 100
3, 77568, Note_on_c, 1, 60, 80
3, 77948, Note_off_c, 1, 60, 100
3, 77952, Note_on_c, 1, 63, 80
3, 78332, Note_off_c, 1, 63, 100
3, 78336, Note_on_c, 1, 62, 80
3, 78716, Note_off_c, 1, 62, 100
3, 78720, Note_on_c, 1, 60, 80
3, 79100, Note_off_c, 1, 60, 100
3, 79104, Note_on_c, 1, 59, 80
3, 79484, Note_off_c, 1, 59, 100
3, 79488, Note_on_c, 1, 57, 80
3, 79868, Note_off_c, 1, 57, 100
3, 79872, Note_on_c, 1, 55, 80
3, 80252, Note_off_c, 1, 55, 100
3, 80256, Note_on_c, 1, 60, 80
3, 80636, Note_off_c, 1, 60, 100
3, 80640, Note_on_c, 1, 53, 80
3, 81020, Note_off_c, 1, 53, 100
3, 81024, Note_on_c, 1, 55, 80
3, 81404, Note_off_c, 1, 55, 100
3, 81408, Note_on_c, 1, 48, 80
3, 81788, Note_off_c, 1, 48, 100
3, 81984, Note_on_c, 1, 48, 80
3, 82172, Note_off_c, 1, 48, 100
3, 82176, Note_on_c, 1, 47, 80
3, 82364, Note_off_c, 1, 47, 100
3, 82368, Note_on_c, 1, 48, 80
3, 82556, Note_off_c, 1, 48, 100
3, 82560, Note_on_c, 1, 49, 104
3, 82940, Note_off_c, 1, 49, 100
3, 82944, Note_on_c, 1, 48, 80
3, 83132, Note_off_c, 1, 48, 100
3, 83328, Note_on_c, 1, 67, 110
3, 83328, Note_on_c, 1, 64, 110
3, 83328, Note_on_c, 1, 60, 110
3, 83708, Note_off_c, 1, 67, 100
3, 83708, Note_off_c, 1, 64, 100
3, 83708, Note_off_c, 1, 60, 100
3, 83712, Note_on_c, 1, 65, 110
3, 83712, Note_on_c, 1, 68, 110
3, 83712, Note_on_c, 1, 60, 110
3, 84092, Note_off_c, 1, 65, 100
3, 84092, Note_off_c, 1, 68, 100
3, 84096, Note_on_c, 1, 64, 110
3, 84096, Note_on_c, 1, 67, 110
3, 84284, Note_off_c, 1, 60, 100
3, 84284, Note_off_c, 1, 64, 100
3, 84284, Note_off_c, 1, 67, 100
3, 84288, Note_on_c, 1, 48, 80
3, 84476, Note_off_c, 1, 48, 100
3, 84480, Note_on_c, 1, 47, 80
3, 84668, Note_off_c, 1, 47, 100
3, 84672, Note_on_c, 1, 48, 80
3, 84860, Note_off_c, 1, 48, 100
3, 84864, Note_on_c, 1, 49, 80
3, 85244, Note_off_c, 1, 49, 100
3, 85248, Note_on_c, 1, 48, 80
3, 85436, Note_off_c, 1, 48, 100
3, 85632, Note_on_c, 1, 67, 100
3, 85632, Note_on_c, 1, 64, 100
3, 85632, Note_on_c, 1, 60, 100
3, 86012, Note_off_c, 1, 67, 100
3, 86012, Note_off_c, 1, 64, 100
3, 86012, Note_off_c, 1, 60, 100
3, 86016, Note_on_c, 1, 65, 100
3, 86016, Note_on_c, 1, 68, 100
3, 86016, Note_on_c, 1, 60, 100
3, 86396, Note_off_c, 1, 65, 100
3, 86396, Note_off_c, 1, 68, 100
3, 86400, Note_on_c, 1, 64, 100
3, 86400, Note_on_c, 1, 67, 100
3, 86588, Note_off_c, 1, 60, 100
3, 86588, Note_off_c, 1, 64, 100
3, 86588, Note_off_c, 1, 67, 100
3, 86592, Note_on_c, 1, 48, 80
3, 86780, Note_off_c, 1, 48, 100
3, 86784, Note_on_c, 1, 47, 80
3, 86972, Note_off_c, 1, 47, 100
3, 86976, Note_on_c, 1, 48, 80
3, 87164, Note_off_c, 1, 48, 100
3, 87168, Note_on_c, 1, 49, 105
3, 87548, Note_off_c, 1, 49, 100
3, 87552, Note_on_c, 1, 48, 80
3, 87740, Note_off_c, 1, 48, 100
3, 87936, Note_on_c, 1, 67, 100
3, 87936, Note_on_c, 1, 64, 100
3, 87936, Note_on_c, 1, 60, 100
3, 88316, Note_off_c, 1, 67, 100
3, 88316, Note_off_c, 1, 64, 100
3, 88316, Note_off_c, 1, 60, 100
3, 88320, Note_on_c, 1, 60, 100
3, 88320, Note_on_c, 1, 65, 100
3, 88320, Note_on_c, 1, 68, 100
3, 88700, Note_off_c, 1, 65, 100
3, 88700, Note_off_c, 1, 68, 100
3, 88704, Note_on_c, 1, 64, 100
3, 88704, Note_on_c, 1, 67, 100
3, 89084, Note_off_c, 1, 60, 100
3, 89084, Note_off_c, 1, 64, 100
3, 89084, Note_off_c, 1, 67, 100
3, 89088, Note_on_c, 1, 67, 100
3, 89088, Note_on_c, 1, 64, 100
3, 89088, Note_on_c, 1, 60, 100
3, 89468, Note_off_c, 1, 67, 100
3, 89468, Note_off_c, 1, 64, 100
3, 89468, Note_off_c, 1, 60, 100
3, 89472, Note_on_c, 1, 60, 100
3, 89472, Note_on_c, 1, 65, 100
3, 89472, Note_on_c, 1, 68, 100
3, 89852, Note_off_c, 1, 65, 100
3, 89852, Note_off_c, 1, 68, 100
3, 89856, Note_on_c, 1, 64, 100
3, 89856, Note_on_c, 1, 67, 100
3, 90236, Note_off_c, 1, 60, 100
3, 90236, Note_off_c, 1, 64, 100
3, 90236, Note_off_c, 1, 67, 100
3, 90240, Note_on_c, 1, 67, 100
3, 90240, Note_on_c, 1, 64, 100
3, 90240, Note_on_c, 1, 60, 100
3, 90620, Note_off_c, 1, 67, 100
3, 90620, Note_off_c, 1, 64, 100
3, 90620, Note_off_c, 1, 60, 100
3, 90624, Note_on_c, 1, 60, 100
3, 90624, Note_on_c, 1, 65, 100
3, 90624, Note_on_c, 1, 68, 100
3, 91004, Note_off_c, 1, 65, 100
3, 91004, Note_off_c, 1, 68, 100
3, 91008, Note_on_c, 1, 64, 100
3, 91008, Note_on_c, 1, 67, 100
3, 91388, Note_off_c, 1, 60, 100
3, 91388, Note_off_c, 1, 64, 100
3, 91388, Note_off_c, 1, 67, 100
3, 91392, Note_on_c, 1, 60, 120
3, 91392, Note_on_c, 1, 48, 120
3, 91772, Note_off_c, 1, 60, 100
3, 91772, Note_off_c, 1, 48, 100
3, 91776, Note_on_c, 1, 48, 120
3, 91776, Note_on_c, 1, 36, 120
3, 92156, Note_off_c, 1, 48, 100
3, 92156, Note_off_c, 1, 36, 100
3, 92352, Note_on_c, 1, 67, 80
3, 92540, Note_off_c, 1, 67, 100
3, 92544, Note_on_c, 1, 66, 80
3, 92732, Note_off_c, 1, 66, 100
3, 92736, Note_on_c, 1, 67, 80
3, 92924, Note_off_c, 1, 67, 100
3, 92928, Note_on_c, 1, 68, 80
3, 93308, Note_off_c, 1, 68, 100
3, 93312, Note_on_c, 1, 67, 80
3, 93692, Note_off_c, 1, 67, 100
3, 93696, Note_on_c, 1, 65, 80
3, 94076, Note_off_c, 1, 65, 100
3, 94080, Note_on_c, 1, 63, 80
3, 94460, Note_off_c, 1, 63, 100
3, 94464, Note_on_c, 1, 62, 80
3, 94844, Note_off_c, 1, 62, 100
3, 94848, Note_on_c, 1, 60, 80
3, 95228, Note_off_c, 1, 60, 100
3, 95232, Note_on_c, 1, 66, 80
3, 95612, Note_off_c, 1, 66, 100
3, 95616, Note_on_c, 1, 65, 80
3, 95996, Note_off_c, 1, 65, 100
3, 96000, Note_on_c, 1, 63, 80
3, 96380, Note_off_c, 1, 63, 100
3, 96384, Note_on_c, 1, 61, 80
3, 96764, Note_off_c, 1, 61, 100
3, 96768, Note_on_c, 1, 60, 80
3, 97148, Note_off_c, 1, 60, 100
3, 97152, Note_on_c, 1, 58, 80
3, 97532, Note_off_c, 1, 58, 100
3, 97536, Note_on_c, 1, 57, 80
3, 97916, Note_off_c, 1, 57, 100
3, 98112, Note_on_c, 1, 57, 80
3, 98300, Note_off_c, 1, 57, 100
3, 98304, Note_on_c, 1, 55, 80
3, 98492, Note_off_c, 1, 55, 100
3, 98496, Note_on_c, 1, 57, 80
3, 98684, Note_off_c, 1, 57, 100
3, 98688, Note_on_c, 1, 58, 80
3, 99068, Note_off_c, 1, 58, 100
3, 99264, Note_on_c, 1, 61, 80
3, 99452, Note_off_c, 1, 61, 100
3, 99456, Note_on_c, 1, 60, 80
3, 99644, Note_off_c, 1, 60, 100
3, 99648, Note_on_c, 1, 61, 80
3, 99836, Note_off_c, 1, 61, 100
3, 99840, Note_on_c, 1, 55, 80
3, 100220, Note_off_c, 1, 55, 100
3, 100416, Note_on_c, 1, 55, 80
3, 100604, Note_off_c, 1, 55, 100
3, 100608, Note_on_c, 1, 53, 80
3, 100796, Note_off_c, 1, 53, 100
3, 100800, Note_on_c, 1, 55, 80
3, 100988, Note_off_c, 1, 55, 100
3, 100992, Note_on_c, 1, 56, 80
3, 101372, Note_off_c, 1, 56, 100
3, 101568, Note_on_c, 1, 60, 80
3, 101756, Note_off_c, 1, 60, 100
3, 101760, Note_on_c, 1, 59, 80
3, 101948, Note_off_c, 1, 59, 100
3, 101952, Note_on_c, 1, 60, 80
3, 102140, Note_off_c, 1, 60, 100
3, 102144, Note_on_c, 1, 54, 80
3, 102524, Note_off_c, 1, 54, 100
3, 102720, Note_on_c, 1, 54, 80
3, 102908, Note_off_c, 1, 54, 100
3, 102912, Note_on_c, 1, 52, 80
3, 103100, Note_off_c, 1, 52, 100
3, 103104, Note_on_c, 1, 54, 80
3, 103292, Note_off_c, 1, 54, 100
3, 103296, Note_on_c, 1, 55, 80
3, 103676, Note_off_c, 1, 55, 100
3, 103872, Note_on_c, 1, 55, 80
3, 104060, Note_off_c, 1, 55, 100
3, 104064, Note_on_c, 1, 54, 80
3, 104252, Note_off_c, 1, 54, 100
3, 104256, Note_on_c, 1, 55, 100
3, 104444, Note_off_c, 1, 55, 100
3, 104448, Note_on_c, 1, 51, 110
3, 104828, Note_off_c, 1, 51, 100
3, 104832, Note_on_c, 1, 50, 110
3, 105212, Note_off_c, 1, 50, 100
3, 105216, Note_on_c, 1, 48, 110
3, 105596, Note_off_c, 1, 48, 100
3, 105600, Note_on_c, 1, 43, 110
3, 105980, Note_off_c, 1, 43, 100
3, 106176, Note_on_c, 1, 43, 80
3, 106364, Note_off_c, 1, 43, 100
3, 106368, Note_on_c, 1, 42, 80
3, 106556, Note_off_c, 1, 42, 100
3, 106560, Note_on_c, 1, 43, 80
3, 106748, Note_off_c, 1, 43, 100
3, 106752, Note_on_c, 1, 44, 80
3, 107132, Note_off_c, 1, 44, 100
3, 107136, Note_on_c, 1, 43, 80
3, 107324, Note_off_c, 1, 43, 100
3, 107520, Note_on_c, 1, 62, 110
3, 107520, Note_on_c, 1, 59, 110
3, 107520, Note_on_c, 1, 55, 110
3, 107900, Note_off_c, 1, 62, 100
3, 107900, Note_off_c, 1, 59, 100
3, 107900, Note_off_c, 1, 55, 100
3, 107904, Note_on_c, 1, 55, 100
3, 107904, Note_on_c, 1, 60, 100
3, 107904, Note_on_c, 1, 63, 100
3, 108284, Note_off_c, 1, 60, 100
3, 108284, Note_off_c, 1, 63, 100
3, 108288, Note_on_c, 1, 62, 100
3, 108288, Note_on_c, 1, 59, 100
3, 108476, Note_off_c, 1, 55, 100
3, 108476, Note_off_c, 1, 62, 100
3, 108476, Note_off_c, 1, 59, 100
3, 108480, Note_on_c, 1, 43, 80
3, 108668, Note_off_c, 1, 43, 100
3, 108672, Note_on_c, 1, 42, 80
3, 108860, Note_off_c, 1, 42, 100
3, 108864, Note_on_c, 1, 43, 80
3, 109052, Note_off_c, 1, 43, 100
3, 109056, Note_on_c, 1, 44, 80
3, 109436, Note_off_c, 1, 44, 100
3, 109440, Note_on_c, 1, 43, 80
3, 109628, Note_off_c, 1, 43, 100
3, 109824, Note_on_c, 1, 62, 110
3, 109824, Note_on_c, 1, 59, 110
3, 109824, Note_on_c, 1, 55, 110
3, 110204, Note_off_c, 1, 62, 100
3, 110204, Note_off_c, 1, 59, 100
3, 110204, Note_off_c, 1, 55, 100
3, 110208, Note_on_c, 1, 63, 100
3, 110208, Note_on_c, 1, 60, 100
3, 110208, Note_on_c, 1, 55, 100
3, 110588, Note_off_c, 1, 63, 100
3, 110588, Note_off_c, 1, 60, 100
3, 110592, Note_on_c, 1, 62, 100
3, 110592, Note_on_c, 1, 59, 100
3, 110780, Note_off_c, 1, 55, 100
3, 110780, Note_off_c, 1, 62, 100
3, 110780, Note_off_c, 1, 59, 100
3, 110784, Note_on_c, 1, 43, 80
3, 110972, Note_off_c, 1, 43, 100
3, 110976, Note_on_c, 1, 42, 80
3, 111164, Note_off_c, 1, 42, 100
3, 111168, Note_on_c, 1, 43, 80
3, 111356, Note_off_c, 1, 43, 100
3, 111360, Note_on_c, 1, 44, 80
3, 111740, Note_off_c, 1, 44, 100
3, 111744, Note_on_c, 1, 43, 80
3, 111932, Note_off_c, 1, 43, 100
3, 112128, Note_on_c, 1, 62, 110
3, 112128, Note_on_c, 1, 59, 110
3, 112128, Note_on_c, 1, 55, 110
3, 112508, Note_off_c, 1, 62, 100
3, 112508, Note_off_c, 1, 59, 100
3, 112508, Note_off_c, 1, 55, 100
3, 112512, Note_on_c, 1, 63, 100
3, 112512, Note_on_c, 1, 60, 100
3, 112512, Note_on_c, 1, 55, 100
3, 112892, Note_off_c, 1, 63, 100
3, 112892, Note_off_c, 1, 60, 100
3, 112896, Note_on_c, 1, 59, 100
3, 112896, Note_on_c, 1, 62, 100
3, 113084, Note_off_c, 1, 55, 100
3, 113084, Note_off_c, 1, 59, 100
3, 113084, Note_off_c, 1, 62, 100
3, 113280, Note_on_c, 1, 62, 110
3, 113280, Note_on_c, 1, 59, 110
3, 113280, Note_on_c, 1, 55, 110
3, 113660, Note_off_c, 1, 62, 100
3, 113660, Note_off_c, 1, 59, 100
3, 113660, Note_off_c, 1, 55, 100
3, 113664, Note_on_c, 1, 63, 100
3, 113664, Note_on_c, 1, 60, 100
3, 113664, Note_on_c, 1, 55, 100
3, 114044, Note_off_c, 1, 63, 100
3, 114044, Note_off_c, 1, 60, 100
3, 114048, Note_on_c, 1, 59, 100
3, 114048, Note_on_c, 1, 62, 100
3, 114236, Note_off_c, 1, 55, 100
3, 114236, Note_off_c, 1, 59, 100
3, 114236, Note_off_c, 1, 62, 100
3, 114432, Note_on_c, 1, 62, 110
3, 114432, Note_on_c, 1, 59, 110
3, 114432, Note_on_c, 1, 55, 110
3, 114812, Note_off_c, 1, 62, 100
3, 114812, Note_off_c, 1, 59, 100
3, 114812, Note_off_c, 1, 55, 100
3, 114816, Note_on_c, 1, 63, 100
3, 114816, Note_on_c, 1, 60, 100
3, 114816, Note_on_c, 1, 55, 100
3, 115196, Note_off_c, 1, 63, 100
3, 115196, Note_off_c, 1, 60, 100
3, 115200, Note_on_c, 1, 59, 100
3, 115200, Note_on_c, 1, 62, 100
3, 115388, Note_off_c, 1, 55, 100
3, 115388, Note_off_c, 1, 59, 100
3, 115388, Note_off_c, 1, 62, 100
3, 121152, Note_on_c, 1, 64, 80
3, 121340, Note_off_c, 1, 64, 100
3, 121344, Note_on_c, 1, 62, 80
3, 121532, Note_off_c, 1, 62, 100
3, 121536, Note_on_c, 1, 64, 80
3, 121724, Note_off_c, 1, 64, 100
3, 121728, Note_on_c, 1, 65, 80
3, 122108, Note_off_c, 1, 65, 100
3, 122112, Note_on_c, 1, 62, 80
3, 122492, Note_off_c, 1, 62, 100
3, 122496, Note_on_c, 1, 67, 80
3, 122876, Note_off_c, 1, 67, 100
3, 122880, Note_on_c, 1, 64, 80
3, 123260, Note_off_c, 1, 64, 100
3, 123264, Note_on_c, 1, 62, 80
3, 123456, Note_on_c, 1, 52, 80
3, 123644, Note_off_c, 1, 62, 100
3, 123644, Note_off_c, 1, 52, 100
3, 123648, Note_on_c, 1, 60, 80
3, 123648, Note_on_c, 1, 50, 80
3, 123836, Note_off_c, 1, 50, 100
3, 123840, Note_on_c, 1, 52, 80
3, 124028, Note_off_c, 1, 60, 100
3, 124028, Note_off_c, 1, 52, 100
3, 124032, Note_on_c, 1, 53, 80
3, 124412, Note_off_c, 1, 53, 100
3, 124416, Note_on_c, 1, 50, 80
3, 124796, Note_off_c, 1, 50, 100
3, 124800, Note_on_c, 1, 55, 80
3, 125180, Note_off_c, 1, 55, 100
3, 125184, Note_on_c, 1, 52, 80
3, 125564, Note_off_c, 1, 52, 100
3, 125568, Note_on_c, 1, 50, 80
3, 125948, Note_off_c, 1, 50, 100
3, 125952, Note_on_c, 1, 48, 80
3, 126332, Note_off_c, 1, 48, 100
3, 126336, Note_on_c, 1, 41, 80
3, 126716, Note_off_c, 1, 41, 100
3, 127104, Note_on_c, 1, 43, 80
3, 127484, Note_off_c, 1, 43, 100
3, 127488, Note_on_c, 1, 48, 80
3, 127488, Note_on_c, 1, 36, 80
3, 127868, Note_off_c, 1, 48, 100
3, 127868, Note_off_c, 1, 36, 100
3, 128064, Note_on_c, 1, 72, 80
3, 128252, Note_off_c, 1, 72, 100
3, 128256, Note_on_c, 1, 71, 80
3, 128444, Note_off_c, 1, 71, 100
3, 128448, Note_on_c, 1, 72, 80
3, 128636, Note_off_c, 1, 72, 100
3, 128640, Note_on_c, 1, 73, 80
3, 129020, Note_off_c, 1, 73, 100
3, 129024, Note_on_c, 1, 72, 80
3, 129404, Note_off_c, 1, 72, 100
3, 129408, Note_on_c, 1, 70, 80
3, 129788, Note_off_c, 1, 70, 100
3, 129792, Note_on_c, 1, 68, 80
3, 130172, Note_off_c, 1, 68, 100
3, 130176, Note_on_c, 1, 67, 80
3, 130556, Note_off_c, 1, 67, 100
3, 130560, Note_on_c, 1, 65, 80
3, 130940, Note_off_c, 1, 65, 100
3, 130944, Note_on_c, 1, 68, 80
3, 131324, Note_off_c, 1, 68, 100
3, 131328, Note_on_c, 1, 67, 80
3, 131708, Note_off_c, 1, 67, 100
3, 131712, Note_on_c, 1, 65, 80
3, 132092, Note_off_c, 1, 65, 100
3, 132096, Note_on_c, 1, 63, 80
3, 132476, Note_off_c, 1, 63, 100
3, 132480, Note_on_c, 1, 62, 80
3, 132860, Note_off_c, 1, 62, 100
3, 132864, Note_on_c, 1, 60, 80
3, 133244, Note_off_c, 1, 60, 100
3, 133248, Note_on_c, 1, 63, 80
3, 133628, Note_off_c, 1, 63, 100
3, 133632, Note_on_c, 1, 62, 80
3, 134012, Note_off_c, 1, 62, 100
3, 134016, Note_on_c, 1, 60, 80
3, 134396, Note_off_c, 1, 60, 100
3, 134400, Note_on_c, 1, 59, 80
3, 134780, Note_off_c, 1, 59, 100
3, 134784, Note_on_c, 1, 57, 80
3, 135164, Note_off_c, 1, 57, 100
3, 135168, Note_on_c, 1, 55, 80
3, 135548, Note_off_c, 1, 55, 100
3, 135552, Note_on_c, 1, 60, 80
3, 135932, Note_off_c, 1, 60, 100
3, 135936, Note_on_c, 1, 53, 80
3, 136316, Note_off_c, 1, 53, 100
3, 136320, Note_on_c, 1, 55, 80
3, 136700, Note_off_c, 1, 55, 100
3, 136704, Note_on_c, 1, 48, 80
3, 137084, Note_off_c, 1, 48, 100
3, 137280, Note_on_c, 1, 48, 80
3, 137468, Note_off_c, 1, 48, 100
3, 137472, Note_on_c, 1, 47, 80
3, 137660, Note_off_c, 1, 47, 100
3, 137664, Note_on_c, 1, 48, 80
3, 137852, Note_off_c, 1, 48, 100
3, 137856, Note_on_c, 1, 49, 103
3, 138236, Note_off_c, 1, 49, 100
3, 138240, Note_on_c, 1, 48, 80
3, 138428, Note_off_c, 1, 48, 100
3, 138624, Note_on_c, 1, 67, 100
3, 138624, Note_on_c, 1, 64, 100
3, 138624, Note_on_c, 1, 60, 100
3, 139004, Note_off_c, 1, 67, 100
3, 139004, Note_off_c, 1, 64, 100
3, 139004, Note_off_c, 1, 60, 100
3, 139008, Note_on_c, 1, 65, 100
3, 139008, Note_on_c, 1, 68, 100
3, 139008, Note_on_c, 1, 60, 100
3, 139388, Note_off_c, 1, 65, 100
3, 139388, Note_off_c, 1, 68, 100
3, 139392, Note_on_c, 1, 64, 100
3, 139392, Note_on_c, 1, 67, 100
3, 139580, Note_off_c, 1, 60, 100
3, 139580, Note_off_c, 1, 64, 100
3, 139580, Note_off_c, 1, 67, 100
3, 139584, Note_on_c, 1, 48, 80
3, 139772, Note_off_c, 1, 48, 100
3, 139776, Note_on_c, 1, 47, 80
3, 139964, Note_off_c, 1, 47, 100
3, 139968, Note_on_c, 1, 48, 80
3, 140156, Note_off_c, 1, 48, 100
3, 140160, Note_on_c, 1, 49, 103
3, 140540, Note_off_c, 1, 49, 100
3, 140544, Note_on_c, 1, 48, 80
3, 140732, Note_off_c, 1, 48, 100
3, 140928, Note_on_c, 1, 67, 100
3, 140928, Note_on_c, 1, 64, 100
3, 140928, Note_on_c, 1, 60, 100
3, 141308, Note_off_c, 1, 67, 100
3, 141308, Note_off_c, 1, 64, 100
3, 141308, Note_off_c, 1, 60, 100
3, 141312, Note_on_c, 1, 65, 100
3, 141312, Note_on_c, 1, 68, 100
3, 141312, Note_on_c, 1, 60, 100
3, 141692, Note_off_c, 1, 65, 100
3, 141692, Note_off_c, 1, 68, 100
3, 141696, Note_on_c, 1, 64, 100
3, 141696, Note_on_c, 1, 67, 100
3, 141884, Note_off_c, 1, 60, 100
3, 141884, Note_off_c, 1, 64, 100
3, 141884, Note_off_c, 1, 67, 100
3, 141888, Note_on_c, 1, 48, 80
3, 142076, Note_off_c, 1, 48, 100
3, 142080, Note_on_c, 1, 47, 80
3, 142268, Note_off_c, 1, 47, 100
3, 142272, Note_on_c, 1, 48, 80
3, 142460, Note_off_c, 1, 48, 100
3, 142464, Note_on_c, 1, 49, 104
3, 142844, Note_off_c, 1, 49, 100
3, 142848, Note_on_c, 1, 48, 80
3, 143036, Note_off_c, 1, 48, 100
3, 143232, Note_on_c, 1, 67, 100
3, 143232, Note_on_c, 1, 64, 100
3, 143232, Note_on_c, 1, 60, 100
3, 143612, Note_off_c, 1, 67, 100
3, 143612, Note_off_c, 1, 64, 100
3, 143612, Note_off_c, 1, 60, 100
3, 143616, Note_on_c, 1, 60, 100
3, 143616, Note_on_c, 1, 65, 100
3, 143616, Note_on_c, 1, 68, 100
3, 143996, Note_off_c, 1, 65, 100
3, 143996, Note_off_c, 1, 68, 100
3, 144000, Note_on_c, 1, 64, 100
3, 144000, Note_on_c, 1, 67, 100
3, 144380, Note_off_c, 1, 60, 100
3, 144380, Note_off_c, 1, 64, 100
3, 144380, Note_off_c, 1, 67, 100
3, 144384, Note_on_c, 1, 67, 100
3, 144384, Note_on_c, 1, 64, 100
3, 144384, Note_on_c, 1, 60, 100
3, 144764, Note_off_c, 1, 67, 100
3, 144764, Note_off_c, 1, 64, 100
3, 144764, Note_off_c, 1, 60, 100
3, 144768, Note_on_c, 1, 60, 100
3, 144768, Note_on_c, 1, 65, 100
3, 144768, Note_on_c, 1, 68, 100
3, 145148, Note_off_c, 1, 65, 100
3, 145148, Note_off_c, 1, 68, 100
3, 145152, Note_on_c, 1, 64, 100
3, 145152, Note_on_c, 1, 67, 100
3, 145532, Note_off_c, 1, 60, 100
3, 145532, Note_off_c, 1, 64, 100
3, 145532, Note_off_c, 1, 67, 100
3, 145536, Note_on_c, 1, 67, 100
3, 145536, Note_on_c, 1, 64, 100
3, 145536, Note_on_c, 1, 60, 100
3, 145916, Note_off_c, 1, 67, 100
3, 145916, Note_off_c, 1, 64, 100
3, 145916, Note_off_c, 1, 60, 100
3, 145920, Note_on_c, 1, 60, 100
3, 145920, Note_on_c, 1, 65, 100
3, 145920, Note_on_c, 1, 68, 100
3, 146300, Note_off_c, 1, 65, 100
3, 146300, Note_off_c, 1, 68, 100
3, 146304, Note_on_c, 1, 64, 100
3, 146304, Note_on_c, 1, 67, 100
3, 146684, Note_off_c, 1, 60, 100
3, 146684, Note_off_c, 1, 64, 100
3, 146684, Note_off_c, 1, 67, 100
3, 146688, Note_on_c, 1, 60, 110
3, 146688, Note_on_c, 1, 48, 110
3, 147068, Note_off_c, 1, 60, 100
3, 147068, Note_off_c, 1, 48, 100
3, 147072, Note_on_c, 1, 48, 110
3, 147072, Note_on_c, 1, 36, 110
3, 147452, Note_off_c, 1, 48, 100
3, 147452, Note_off_c, 1, 36, 100
3, 148224, Note_on_c, 1, 45, 100
3, 148224, Note_on_c, 1, 33, 100
3, 149372, Note_off_c, 1, 45, 100
3, 149372, Note_off_c, 1, 33, 100
3, 149376, Note_on_c, 1, 47, 100
3, 149376, Note_on_c, 1, 35, 100
3, 150524, Note_off_c, 1, 47, 100
3, 150524, Note_off_c, 1, 35, 100
3, 150528, Note_on_c, 1, 48, 100
3, 150528, Note_on_c, 1, 36, 100
3, 151676, Note_off_c, 1, 48, 100
3, 151676, Note_off_c, 1, 36, 100
3, 151680, Note_on_c, 1, 50, 100
3, 151680, Note_on_c, 1, 38, 100
3, 152828, Note_off_c, 1, 50, 100
3, 152828, Note_off_c, 1, 38, 100
3, 152832, Note_on_c, 1, 48, 100
3, 152832, Note_on_c, 1, 36, 100
3, 153980, Note_off_c, 1, 48, 100
3, 153980, Note_off_c, 1, 36, 100
3, 153984, Note_on_c, 1, 47, 100
3, 153984, Note_on_c, 1, 35, 100
3, 155132, Note_off_c, 1, 47, 100
3, 155132, Note_off_c, 1, 35, 100
3, 155136, Note_on_c, 1, 45, 100
3, 155136, Note_on_c, 1, 33, 100
3, 155516, Note_off_c, 1, 45, 100
3, 155516, Note_off_c, 1, 33, 100
3, 155520, Note_on_c, 1, 47, 93
3, 155520, Note_on_c, 1, 35, 93
3, 155900, Note_off_c, 1, 47, 100
3, 155900, Note_off_c, 1, 35, 100
3, 155904, Note_on_c, 1, 47, 86
3, 155904, Note_on_c, 1, 35, 86
3, 156284, Note_off_c, 1, 47, 100
3, 156284, Note_off_c, 1, 35, 100
3, 156288, Note_on_c, 1, 40, 80
3, 156668, Note_off_c, 1, 40, 100
3, 156672, Note_on_c, 1, 52, 80
3, 157052, Note_off_c, 1, 52, 100
3, 157056, Note_on_c, 1, 52, 80
3, 157436, Note_off_c, 1, 52, 100
3, 157440, Note_on_c, 1, 45, 100
3, 157440, Note_on_c, 1, 33, 100
3, 158588, Note_off_c, 1, 45, 100
3, 158588, Note_off_c, 1, 33, 100
3, 158592, Note_on_c, 1, 47, 100
3, 158592, Note_on_c, 1, 35, 100
3, 159740, Note_off_c, 1, 47, 100
3, 159740, Note_off_c, 1, 35, 100
3, 159744, Note_on_c, 1, 48, 100
3, 159744, Note_on_c, 1, 36, 100
3, 160892, Note_off_c, 1, 48, 100
3, 160892, Note_off_c, 1, 36, 100
3, 160896, Note_on_c, 1, 50, 100
3, 160896, Note_on_c, 1, 38, 100
3, 162044, Note_off_c, 1, 50, 100
3, 162044, Note_off_c, 1, 38, 100
3, 162048, Note_on_c, 1, 48, 100
3, 162048, Note_on_c, 1, 36, 100
3, 163196, Note_off_c, 1, 48, 100
3, 163196, Note_off_c, 1, 36, 100
3, 163200, Note_on_c, 1, 47, 100
3, 163200, Note_on_c, 1, 35, 100
3, 164348, Note_off_c, 1, 47, 100
3, 164348, Note_off_c, 1, 35, 100
3, 164352, Note_on_c, 1, 45, 100
3, 164352, Note_on_c, 1, 33, 100
3, 164732, Note_off_c, 1, 45, 100
3, 164732, Note_off_c, 1, 33, 100
3, 164736, Note_on_c, 1, 47, 93
3, 164736, Note_on_c, 1, 35, 93
3, 165116, Note_off_c, 1, 47, 100
3, 165116, Note_off_c, 1, 35, 100
3, 165120, Note_on_c, 1, 47, 86
3, 165120, Note_on_c, 1, 35, 86
3, 165500, Note_off_c, 1, 47, 100
3, 165500, Note_off_c, 1, 35, 100
3, 165504, Note_on_c, 1, 40, 80
3, 165884, Note_off_c, 1, 40, 100
3, 165888, Note_on_c, 1, 52, 80
3, 166268, Note_off_c, 1, 52, 100
3, 166656, Note_on_c, 1, 48, 100
3, 166656, Note_on_c, 1, 36, 100
3, 167804, Note_off_c, 1, 48, 100
3, 167804, Note_off_c, 1, 36, 100
3, 167808, Note_on_c, 1, 50, 100
3, 167808, Note_on_c, 1, 38, 100
3, 168956, Note_off_c, 1, 50, 100
3, 168956, Note_off_c, 1, 38, 100
3, 168960, Note_on_c, 1, 52, 100
3, 168960, Note_on_c, 1, 40, 100
3, 169340, Note_off_c, 1, 52, 100
3, 169340, Note_off_c, 1, 40, 100
3, 169344, Note_on_c, 1, 50, 100
3, 169344, Note_on_c, 1, 38, 100
3, 169724, Note_off_c, 1, 50, 100
3, 169724, Note_off_c, 1, 38, 100
3, 169728, Note_on_c, 1, 37, 100
3, 169728, Note_on_c, 1, 49, 100
3, 170108, Note_off_c, 1, 37, 100
3, 170108, Note_off_c, 1, 49, 100
3, 170112, Note_on_c, 1, 50, 100
3, 170112, Note_on_c, 1, 38, 100
3, 170492, Note_off_c, 1, 50, 100
3, 170492, Note_off_c, 1, 38, 100
3, 171264, Note_on_c, 1, 50, 100
3, 171264, Note_on_c, 1, 38, 100
3, 172412, Note_off_c, 1, 50, 100
3, 172412, Note_off_c, 1, 38, 100
3, 172416, Note_on_c, 1, 52, 100
3, 172416, Note_on_c, 1, 40, 100
3, 173564, Note_off_c, 1, 52, 100
3, 173564, Note_off_c, 1, 40, 100
3, 173568, Note_on_c, 1, 54, 100
3, 173568, Note_on_c, 1, 42, 100
3, 173948, Note_off_c, 1, 54, 100
3, 173948, Note_off_c, 1, 42, 100
3, 173952, Note_on_c, 1, 52, 100
3, 173952, Note_on_c, 1, 40, 100
3, 174332, Note_off_c, 1, 52, 100
3, 174332, Note_off_c, 1, 40, 100
3, 174336, Note_on_c, 1, 39, 100
3, 174336, Note_on_c, 1, 51, 100
3, 174716, Note_off_c, 1, 39, 100
3, 174716, Note_off_c, 1, 51, 100
3, 174720, Note_on_c, 1, 52, 100
3, 174720, Note_on_c, 1, 40, 100
3, 175100, Note_off_c, 1, 52, 100
3, 175100, Note_off_c, 1, 40, 100
3, 175872, Note_on_c, 1, 57, 100
3, 175872, Note_on_c, 1, 45, 100
3, 177020, Note_off_c, 1, 57, 100
3, 177020, Note_off_c, 1, 45, 100
3, 177024, Note_on_c, 1, 59, 100
3, 177024, Note_on_c, 1, 47, 100
3, 178172, Note_off_c, 1, 59, 100
3, 178172, Note_off_c, 1, 47, 100
3, 178176, Note_on_c, 1, 60, 100
3, 178176, Note_on_c, 1, 48, 100
3, 179324, Note_off_c, 1, 60, 100
3, 179324, Note_off_c, 1, 48, 100
3, 179328, Note_on_c, 1, 62, 100
3, 179328, Note_on_c, 1, 50, 100
3, 180476, Note_off_c, 1, 62, 100
3, 180476, Note_off_c, 1, 50, 100
3, 180480, Note_on_c, 1, 60, 100
3, 180480, Note_on_c, 1, 48, 100
3, 181628, Note_off_c, 1, 60, 100
3, 181628, Note_off_c, 1, 48, 100
3, 181632, Note_on_c, 1, 50, 100
3, 181632, Note_on_c, 1, 62, 100
3, 182780, Note_off_c, 1, 50, 100
3, 182780, Note_off_c, 1, 62, 100
3, 182784, Note_on_c, 1, 52, 98
3, 182784, Note_on_c, 1, 64, 98
3, 183164, Note_off_c, 1, 52, 100
3, 183164, Note_off_c, 1, 64, 100
3, 183552, Note_on_c, 1, 52, 85
3, 183552, Note_on_c, 1, 40, 85
3, 183932, Note_off_c, 1, 52, 100
3, 183932, Note_off_c, 1, 40, 100
3, 183936, Note_on_c, 1, 45, 80
3, 184316, Note_off_c, 1, 45, 100
3, 184320, Note_on_c, 1, 57, 80
3, 184700, Note_off_c, 1, 57, 100
3, 185088, Note_on_c, 1, 48, 100
3, 185088, Note_on_c, 1, 36, 100
3, 186236, Note_off_c, 1, 48, 100
3, 186236, Note_off_c, 1, 36, 100
3, 186240, Note_on_c, 1, 50, 100
3, 186240, Note_on_c, 1, 38, 100
3, 187388, Note_off_c, 1, 50, 100
3, 187388, Note_off_c, 1, 38, 100
3, 187392, Note_on_c, 1, 52, 100
3, 187392, Note_on_c, 1, 40, 100
3, 187772, Note_off_c, 1, 52, 100
3, 187772, Note_off_c, 1, 40, 100
3, 187776, Note_on_c, 1, 50, 100
3, 187776, Note_on_c, 1, 38, 100
3, 188156, Note_off_c, 1, 50, 100
3, 188156, Note_off_c, 1, 38, 100
3, 188160, Note_on_c, 1, 37, 100
3, 188160, Note_on_c, 1, 49, 100
3, 188540, Note_off_c, 1, 37, 100
3, 188540, Note_off_c, 1, 49, 100
3, 188544, Note_on_c, 1, 50, 100
3, 188544, Note_on_c, 1, 38, 100
3, 188924, Note_off_c, 1, 50, 100
3, 188924, Note_off_c, 1, 38, 100
3, 189696, Note_on_c, 1, 50, 100
3, 189696, Note_on_c, 1, 38, 100
3, 190844, Note_off_c, 1, 50, 100
3, 190844, Note_off_c, 1, 38, 100
3, 190848, Note_on_c, 1, 52, 100
3, 190848, Note_on_c, 1, 40, 100
3, 191996, Note_off_c, 1, 52, 100
3, 191996, Note_off_c, 1, 40, 100
3, 192000, Note_on_c, 1, 54, 100
3, 192000, Note_on_c, 1, 42, 100
3, 192380, Note_off_c, 1, 54, 100
3, 192380, Note_off_c, 1, 42, 100
3, 192384, Note_on_c, 1, 52, 100
3, 192384, Note_on_c, 1, 40, 100
3, 192764, Note_off_c, 1, 52, 100
3, 192764, Note_off_c, 1, 40, 100
3, 192768, Note_on_c, 1, 39, 100
3, 192768, Note_on_c, 1, 51, 100
3, 193148, Note_off_c, 1, 39, 100
3, 193148, Note_off_c, 1, 51, 100
3, 193152, Note_on_c, 1, 52, 100
3, 193152, Note_on_c, 1, 40, 100
3, 193532, Note_off_c, 1, 52, 100
3, 193532, Note_off_c, 1, 40, 100
3, 194304, Note_on_c, 1, 57, 100
3, 194304, Note_on_c, 1, 45, 100
3, 195452, Note_off_c, 1, 57, 100
3, 195452, Note_off_c, 1, 45, 100
3, 195456, Note_on_c, 1, 59, 100
3, 195456, Note_on_c, 1, 47, 100
3, 196604, Note_off_c, 1, 59, 100
3, 196604, Note_off_c, 1, 47, 100
3, 196608, Note_on_c, 1, 60, 100
3, 196608, Note_on_c, 1, 48, 100
3, 197756, Note_off_c, 1, 60, 100
3, 197756, Note_off_c, 1, 48, 100
3, 197760, Note_on_c, 1, 62, 100
3, 197760, Note_on_c, 1, 50, 100
3, 197760, Note_on_c, 1, 57, 100
3, 197760, Note_on_c, 1, 53, 100
3, 198908, Note_off_c, 1, 62, 100
3, 198908, Note_off_c, 1, 50, 100
3, 198908, Note_off_c, 1, 57, 100
3, 198908, Note_off_c, 1, 53, 100
3, 198912, Note_on_c, 1, 60, 109
3, 198912, Note_on_c, 1, 56, 109
3, 198912, Note_on_c, 1, 53, 109
3, 198912, Note_on_c, 1, 48, 109
3, 200060, Note_off_c, 1, 60, 100
3, 200060, Note_off_c, 1, 56, 100
3, 200060, Note_off_c, 1, 53, 100
3, 200060, Note_off_c, 1, 48, 100
3, 200064, Note_on_c, 1, 59, 120
3, 200064, Note_on_c, 1, 55, 120
3, 200064, Note_on_c, 1, 53, 120
3, 200064, Note_on_c, 1, 50, 120
3, 200064, Note_on_c, 1, 47, 120
3, 200444, Note_off_c, 1, 59, 100
3, 200444, Note_off_c, 1, 55, 100
3, 200444, Note_off_c, 1, 53, 100
3, 200444, Note_off_c, 1, 50, 100
3, 200444, Note_off_c, 1, 47, 100
3, 202112, Note_on_c, 1, 38, 120
3, 202240, Note_on_c, 1, 35, 120
3, 202364, Note_off_c, 1, 38, 100
3, 202364, Note_off_c, 1, 35, 100
3, 202368, Note_on_c, 1, 31, 120
3, 203516, Note_off_c, 1, 31, 100
3, 206400, Note_on_c, 1, 64, 80
3, 206588, Note_off_c, 1, 64, 100
3, 206592, Note_on_c, 1, 62, 80
3, 206780, Note_off_c, 1, 62, 100
3, 206784, Note_on_c, 1, 64, 80
3, 206972, Note_off_c, 1, 64, 100
3, 206976, Note_on_c, 1, 65, 80
3, 207356, Note_off_c, 1, 65, 100
3, 207360, Note_on_c, 1, 62, 80
3, 207740, Note_off_c, 1, 62, 100
3, 207744, Note_on_c, 1, 67, 80
3, 208124, Note_off_c, 1, 67, 100
3, 208704, Note_on_c, 1, 55, 80
3, 208892, Note_off_c, 1, 55, 100
3, 208896, Note_on_c, 1, 54, 80
3, 209084, Note_off_c, 1, 54, 100
3, 209088, Note_on_c, 1, 55, 80
3, 209276, Note_off_c, 1, 55, 100
3, 209280, Note_on_c, 1, 57, 80
3, 209660, Note_off_c, 1, 57, 100
3, 209664, Note_on_c, 1, 55, 80
3, 210044, Note_off_c, 1, 55, 100
3, 210048, Note_on_c, 1, 53, 80
3, 210428, Note_off_c, 1, 53, 100
3, 210432, Note_on_c, 1, 52, 80
3, 210812, Note_off_c, 1, 52, 100
3, 210816, Note_on_c, 1, 50, 80
3, 211196, Note_off_c, 1, 50, 100
3, 211200, Note_on_c, 1, 48, 80
3, 211580, Note_off_c, 1, 48, 100
3, 211584, Note_on_c, 1, 47, 80
3, 211964, Note_off_c, 1, 47, 100
3, 211968, Note_on_c, 1, 43, 80
3, 212348, Note_off_c, 1, 43, 100
3, 212352, Note_on_c, 1, 48, 80
3, 212732, Note_off_c, 1, 48, 100
3, 212736, Note_on_c, 1, 43, 80
3, 213116, Note_off_c, 1, 43, 100
3, 213312, Note_on_c, 1, 74, 80
3, 213500, Note_off_c, 1, 74, 100
3, 213504, Note_on_c, 1, 73, 80
3, 213692, Note_off_c, 1, 73, 100
3, 213696, Note_on_c, 1, 74, 80
3, 213884, Note_off_c, 1, 74, 100
3, 213888, Note_on_c, 1, 75, 80
3, 214268, Note_off_c, 1, 75, 100
3, 214272, Note_on_c, 1, 74, 80
3, 214652, Note_off_c, 1, 74, 100
3, 214656, Note_on_c, 1, 72, 80
3, 215036, Note_off_c, 1, 72, 100
3, 215040, Note_on_c, 1, 70, 80
3, 215420, Note_off_c, 1, 70, 100
3, 215424, Note_on_c, 1, 69, 80
3, 215804, Note_off_c, 1, 69, 100
3, 215808, Note_on_c, 1, 67, 80
3, 216188, Note_off_c, 1, 67, 100
3, 216192, Note_on_c, 1, 66, 80
3, 216192, Note_on_c, 1, 63, 80
3, 216572, Note_off_c, 1, 66, 100
3, 216572, Note_off_c, 1, 63, 100
3, 216576, Note_on_c, 1, 62, 80
3, 216956, Note_off_c, 1, 62, 100
3, 216960, Note_on_c, 1, 60, 80
3, 217340, Note_off_c, 1, 60, 100
3, 217344, Note_on_c, 1, 58, 100
3, 217724, Note_off_c, 1, 58, 100
3, 217728, Note_on_c, 1, 57, 100
3, 218108, Note_off_c, 1, 57, 100
3, 218112, Note_on_c, 1, 55, 100
3, 218492, Note_off_c, 1, 55, 100
3, 218496, Note_on_c, 1, 58, 110
3, 218496, Note_on_c, 1, 46, 110
3, 218876, Note_off_c, 1, 58, 100
3, 218876, Note_off_c, 1, 46, 100
3, 218880, Note_on_c, 1, 57, 110
3, 218880, Note_on_c, 1, 45, 110
3, 219260, Note_off_c, 1, 57, 100
3, 219260, Note_off_c, 1, 45, 100
3, 219264, Note_on_c, 1, 55, 110
3, 219264, Note_on_c, 1, 43, 110
3, 219644, Note_off_c, 1, 55, 100
3, 219644, Note_off_c, 1, 43, 100
3, 219648, Note_on_c, 1, 54, 110
3, 219648, Note_on_c, 1, 42, 110
3, 220028, Note_off_c, 1, 54, 100
3, 220028, Note_off_c, 1, 42, 100
3, 220032, Note_on_c, 1, 52, 110
3, 220032, Note_on_c, 1, 40, 110
3, 220412, Note_off_c, 1, 52, 100
3, 220412, Note_off_c, 1, 40, 100
3, 220416, Note_on_c, 1, 50, 110
3, 220416, Note_on_c, 1, 38, 110
3, 220796, Note_off_c, 1, 50, 100
3, 220796, Note_off_c, 1, 38, 100
3, 220800, Note_on_c, 1, 55, 110
3, 220800, Note_on_c, 1, 43, 110
3, 221180, Note_off_c, 1, 55, 100
3, 221180, Note_off_c, 1, 43, 100
3, 221184, Note_on_c, 1, 48, 110
3, 221184, Note_on_c, 1, 36, 110
3, 221564, Note_off_c, 1, 48, 100
3, 221564, Note_off_c, 1, 36, 100
3, 221568, Note_on_c, 1, 38, 110
3, 221568, Note_on_c, 1, 50, 110
3, 221948, Note_off_c, 1, 38, 100
3, 221948, Note_off_c, 1, 50, 100
3, 221952, Note_on_c, 1, 43, 110
3, 221952, Note_on_c, 1, 31, 110
3, 222332, Note_off_c, 1, 43, 100
3, 222332, Note_off_c, 1, 31, 100
3, 222528, Note_on_c, 1, 67, 80
3, 222716, Note_off_c, 1, 67, 100
3, 222720, Note_on_c, 1, 66, 80
3, 222908, Note_off_c, 1, 66, 100
3, 222912, Note_on_c, 1, 67, 80
3, 223100, Note_off_c, 1, 67, 100
3, 223104, Note_on_c, 1, 68, 80
3, 223484, Note_off_c, 1, 68, 100
3, 223488, Note_on_c, 1, 67, 80
3, 223868, Note_off_c, 1, 67, 100
3, 223872, Note_on_c, 1, 65, 80
3, 224252, Note_off_c, 1, 65, 100
3, 224256, Note_on_c, 1, 63, 80
3, 224636, Note_off_c, 1, 63, 100
3, 224640, Note_on_c, 1, 62, 80
3, 225020, Note_off_c, 1, 62, 100
3, 225024, Note_on_c, 1, 60, 80
3, 225404, Note_off_c, 1, 60, 100
3, 225408, Note_on_c, 1, 66, 80
3, 225788, Note_off_c, 1, 66, 100
3, 225792, Note_on_c, 1, 65, 80
3, 226172, Note_off_c, 1, 65, 100
3, 226176, Note_on_c, 1, 63, 80
3, 226556, Note_off_c, 1, 63, 100
3, 226560, Note_on_c, 1, 61, 80
3, 226940, Note_off_c, 1, 61, 100
3, 226944, Note_on_c, 1, 60, 80
3, 227324, Note_off_c, 1, 60, 100
3, 227328, Note_on_c, 1, 58, 80
3, 227708, Note_off_c, 1, 58, 100
3, 227712, Note_on_c, 1, 57, 80
3, 228092, Note_off_c, 1, 57, 100
3, 228288, Note_on_c, 1, 57, 80
3, 228476, Note_off_c, 1, 57, 100
3, 228480, Note_on_c, 1, 55, 80
3, 228668, Note_off_c, 1, 55, 100
3, 228672, Note_on_c, 1, 57, 80
3, 228860, Note_off_c, 1, 57, 100
3, 228864, Note_on_c, 1, 58, 80
3, 229244, Note_off_c, 1, 58, 100
3, 229440, Note_on_c, 1, 61, 80
3, 229628, Note_off_c, 1, 61, 100
3, 229632, Note_on_c, 1, 60, 80
3, 229820, Note_off_c, 1, 60, 100
3, 229824, Note_on_c, 1, 61, 80
3, 230012, Note_off_c, 1, 61, 100
3, 230016, Note_on_c, 1, 55, 80
3, 230396, Note_off_c, 1, 55, 100
3, 230592, Note_on_c, 1, 55, 80
3, 230780, Note_off_c, 1, 55, 100
3, 230784, Note_on_c, 1, 53, 80
3, 230972, Note_off_c, 1, 53, 100
3, 230976, Note_on_c, 1, 55, 80
3, 231164, Note_off_c, 1, 55, 100
3, 231168, Note_on_c, 1, 56, 80
3, 231548, Note_off_c, 1, 56, 100
3, 231744, Note_on_c, 1, 60, 80
3, 231932, Note_off_c, 1, 60, 100
3, 231936, Note_on_c, 1, 59, 80
3, 232124, Note_off_c, 1, 59, 100
3, 232128, Note_on_c, 1, 60, 80
3, 232316, Note_off_c, 1, 60, 100
3, 232320, Note_on_c, 1, 54, 80
3, 232700, Note_off_c, 1, 54, 100
3, 232896, Note_on_c, 1, 54, 80
3, 233084, Note_off_c, 1, 54, 100
3, 233088, Note_on_c, 1, 52, 80
3, 233276, Note_off_c, 1, 52, 100
3, 233280, Note_on_c, 1, 54, 80
3, 233468, Note_off_c, 1, 54, 100
3, 233472, Note_on_c, 1, 55, 80
3, 233852, Note_off_c, 1, 55, 100
3, 234048, Note_on_c, 1, 55, 80
3, 234236, Note_off_c, 1, 55, 100
3, 234240, Note_on_c, 1, 54, 80
3, 234428, Note_off_c, 1, 54, 100
3, 234432, Note_on_c, 1, 55, 80
3, 234620, Note_off_c, 1, 55, 100
3, 234624, Note_on_c, 1, 51, 110
3, 235004, Note_off_c, 1, 51, 100
3, 235008, Note_on_c, 1, 50, 110
3, 235388, Note_off_c, 1, 50, 100
3, 235392, Note_on_c, 1, 48, 110
3, 235772, Note_off_c, 1, 48, 100
3, 235776, Note_on_c, 1, 43, 110
3, 236156, Note_off_c, 1, 43, 100
3, 236352, Note_on_c, 1, 43, 80
3, 236540, Note_off_c, 1, 43, 100
3, 236544, Note_on_c, 1, 42, 80
3, 236732, Note_off_c, 1, 42, 100
3, 236736, Note_on_c, 1, 43, 80
3, 236924, Note_off_c, 1, 43, 100
3, 236928, Note_on_c, 1, 44, 80
3, 237308, Note_off_c, 1, 44, 100
3, 237312, Note_on_c, 1, 43, 80
3, 237500, Note_off_c, 1, 43, 100
3, 237696, Note_on_c, 1, 62, 110
3, 237696, Note_on_c, 1, 59, 110
3, 237696, Note_on_c, 1, 55, 110
3, 238076, Note_off_c, 1, 62, 100
3, 238076, Note_off_c, 1, 59, 100
3, 238076, Note_off_c, 1, 55, 100
3, 238080, Note_on_c, 1, 55, 100
3, 238080, Note_on_c, 1, 60, 100
3, 238080, Note_on_c, 1, 63, 100
3, 238460, Note_off_c, 1, 60, 100
3, 238460, Note_off_c, 1, 63, 100
3, 238464, Note_on_c, 1, 62, 100
3, 238464, Note_on_c, 1, 59, 100
3, 238652, Note_off_c, 1, 55, 100
3, 238652, Note_off_c, 1, 62, 100
3, 238652, Note_off_c, 1, 59, 100
3, 238656, Note_on_c, 1, 43, 80
3, 238844, Note_off_c, 1, 43, 100
3, 238848, Note_on_c, 1, 42, 80
3, 239036, Note_off_c, 1, 42, 100
3, 239040, Note_on_c, 1, 43, 80
3, 239228, Note_off_c, 1, 43, 100
3, 239232, Note_on_c, 1, 44, 80
3, 239612, Note_off_c, 1, 44, 100
3, 239616, Note_on_c, 1, 43, 80
3, 239804, Note_off_c, 1, 43, 100
3, 240000, Note_on_c, 1, 62, 110
3, 240000, Note_on_c, 1, 59, 110
3, 240000, Note_on_c, 1, 55, 110
3, 240380, Note_off_c, 1, 62, 100
3, 240380, Note_off_c, 1, 59, 100
3, 240380, Note_off_c, 1, 55, 100
3, 240384, Note_on_c, 1, 63, 100
3, 240384, Note_on_c, 1, 60, 100
3, 240384, Note_on_c, 1, 55, 100
3, 240764, Note_off_c, 1, 63, 100
3, 240764, Note_off_c, 1, 60, 100
3, 240768, Note_on_c, 1, 62, 100
3, 240768, Note_on_c, 1, 59, 100
3, 240956, Note_off_c, 1, 55, 100
3, 240956, Note_off_c, 1, 62, 100
3, 240956, Note_off_c, 1, 59, 100
3, 240960, Note_on_c, 1, 43, 80
3, 241148, Note_off_c, 1, 43, 100
3, 241152, Note_on_c, 1, 42, 80
3, 241340, Note_off_c, 1, 42, 100
3, 241344, Note_on_c, 1, 43, 80
3, 241532, Note_off_c, 1, 43, 100
3, 241536, Note_on_c, 1, 44, 80
3, 241916, Note_off_c, 1, 44, 100
3, 241920, Note_on_c, 1, 43, 80
3, 242108, Note_off_c, 1, 43, 100
3, 242304, Note_on_c, 1, 62, 110
3, 242304, Note_on_c, 1, 59, 110
3, 242304, Note_on_c, 1, 55, 110
3, 242684, Note_off_c, 1, 62, 100
3, 242684, Note_off_c, 1, 59, 100
3, 242684, Note_off_c, 1, 55, 100
3, 242688, Note_on_c, 1, 63, 100
3, 242688, Note_on_c, 1, 60, 100
3, 242688, Note_on_c, 1, 55, 100
3, 243068, Note_off_c, 1, 63, 100
3, 243068, Note_off_c, 1, 60, 100
3, 243072, Note_on_c, 1, 59, 100
3, 243072, Note_on_c, 1, 62, 100
3, 243260, Note_off_c, 1, 55, 100
3, 243260, Note_off_c, 1, 59, 100
3, 243260, Note_off_c, 1, 62, 100
3, 243456, Note_on_c, 1, 62, 110
3, 243456, Note_on_c, 1, 59, 110
3, 243456, Note_on_c, 1, 55, 110
3, 243836, Note_off_c, 1, 62, 100
3, 243836, Note_off_c, 1, 59, 100
3, 243836, Note_off_c, 1, 55, 100
3, 243840, Note_on_c, 1, 63, 100
3, 243840, Note_on_c, 1, 60, 100
3, 243840, Note_on_c, 1, 55, 100
3, 244220, Note_off_c, 1, 63, 100
3, 244220, Note_off_c, 1, 60, 100
3, 244224, Note_on_c, 1, 59, 100
3, 244224, Note_on_c, 1, 62, 100
3, 244412, Note_off_c, 1, 55, 100
3, 244412, Note_off_c, 1, 59, 100
3, 244412, Note_off_c, 1, 62, 100
3, 244608, Note_on_c, 1, 62, 110
3, 244608, Note_on_c, 1, 59, 110
3, 244608, Note_on_c, 1, 55, 110
3, 244988, Note_off_c, 1, 62, 100
3, 244988, Note_off_c, 1, 59, 100
3, 244988, Note_off_c, 1, 55, 100
3, 244992, Note_on_c, 1, 63, 100
3, 244992, Note_on_c, 1, 60, 100
3, 244992, Note_on_c, 1, 55, 100
3, 245372, Note_off_c, 1, 63, 100
3, 245372, Note_off_c, 1, 60, 100
3, 245376, Note_on_c, 1, 59, 100
3, 245376, Note_on_c, 1, 62, 100
3, 245564, Note_off_c, 1, 55, 100
3, 245564, Note_off_c, 1, 59, 100
3, 245564, Note_off_c, 1, 62, 100
3, 251328, Note_on_c, 1, 64, 80
3, 251516, Note_off_c, 1, 64, 100
3, 251520, Note_on_c, 1, 62, 80
3, 251708, Note_off_c, 1, 62, 100
3, 251712, Note_on_c, 1, 64, 80
3, 251900, Note_off_c, 1, 64, 100
3, 251904, Note_on_c, 1, 65, 80
3, 252284, Note_off_c, 1, 65, 100
3, 252288, Note_on_c, 1, 62, 80
3, 252668, Note_off_c, 1, 62, 100
3, 252672, Note_on_c, 1, 67, 80
3, 253052, Note_off_c, 1, 67, 100
3, 253056, Note_on_c, 1, 64, 80
3, 253436, Note_off_c, 1, 64, 100
3, 253440, Note_on_c, 1, 62, 80
3, 253632, Note_on_c, 1, 52, 80
3, 253820, Note_off_c, 1, 62, 100
3, 253820, Note_off_c, 1, 52, 100
3, 253824, Note_on_c, 1, 60, 80
3, 253824, Note_on_c, 1, 50, 80
3, 254012, Note_off_c, 1, 50, 100
3, 254016, Note_on_c, 1, 52, 80
3, 254204, Note_off_c, 1, 60, 100
3, 254204, Note_off_c, 1, 52, 100
3, 254208, Note_on_c, 1, 53, 80
3, 254588, Note_off_c, 1, 53, 100
3, 254592, Note_on_c, 1, 50, 80
3, 254972, Note_off_c, 1, 50, 100
3, 254976, Note_on_c, 1, 55, 80
3, 255356, Note_off_c, 1, 55, 100
3, 255360, Note_on_c, 1, 52, 80
3, 255740, Note_off_c, 1, 52, 100
3, 255744, Note_on_c, 1, 50, 80
3, 256124, Note_off_c, 1, 50, 100
3, 256128, Note_on_c, 1, 48, 80
3, 256508, Note_off_c, 1, 48, 100
3, 256512, Note_on_c, 1, 41, 80
3, 256892, Note_off_c, 1, 41, 100
3, 257280, Note_on_c, 1, 43, 80
3, 257660, Note_off_c, 1, 43, 100
3, 257664, Note_on_c, 1, 48, 80
3, 257664, Note_on_c, 1, 36, 80
3, 258044, Note_off_c, 1, 48, 100
3, 258044, Note_off_c, 1, 36, 100
3, 258240, Note_on_c, 1, 72, 80
3, 258428, Note_off_c, 1, 72, 100
3, 258432, Note_on_c, 1, 71, 80
3, 258620, Note_off_c, 1, 71, 100
3, 258624, Note_on_c, 1, 72, 80
3, 258812, Note_off_c, 1, 72, 100
3, 258816, Note_on_c, 1, 73, 80
3, 259196, Note_off_c, 1, 73, 100
3, 259200, Note_on_c, 1, 72, 80
3, 259580, Note_off_c, 1, 72, 100
3, 259584, Note_on_c, 1, 70, 80
3, 259964, Note_off_c, 1, 70, 100
3, 259968, Note_on_c, 1, 68, 80
3, 260348, Note_off_c, 1, 68, 100
3, 260352, Note_on_c, 1, 67, 80
3, 260732, Note_off_c, 1, 67, 100
3, 260736, Note_on_c, 1, 65, 80
3, 261116, Note_off_c, 1, 65, 100
3, 261120, Note_on_c, 1, 68, 80
3, 261500, Note_off_c, 1, 68, 100
3, 261504, Note_on_c, 1, 67, 80
3, 261884, Note_off_c, 1, 67, 100
3, 261888, Note_on_c, 1, 65, 80
3, 262268, Note_off_c, 1, 65, 100
3, 262272, Note_on_c, 1, 63, 80
3, 262652, Note_off_c, 1, 63, 100
3, 262656, Note_on_c, 1, 62, 80
3, 263036, Note_off_c, 1, 62, 100
3, 263040, Note_on_c, 1, 60, 80
3, 263420, Note_off_c, 1, 60, 100
3, 263424, Note_on_c, 1, 63, 80
3, 263804, Note_off_c, 1, 63, 100
3, 263808, Note_on_c, 1, 62, 80
3, 264188, Note_off_c, 1, 62, 100
3, 264192, Note_on_c, 1, 60, 80
3, 264572, Note_off_c, 1, 60, 100
3, 264576, Note_on_c, 1, 59, 80
3, 264956, Note_off_c, 1, 59, 100
3, 264960, Note_on_c, 1, 57, 80
3, 265340, Note_off_c, 1, 57, 100
3, 265344, Note_on_c, 1, 55, 80
3, 265724, Note_off_c, 1, 55, 100
3, 265728, Note_on_c, 1, 60, 80
3, 266108, Note_off_c, 1, 60, 100
3, 266112, Note_on_c, 1, 53, 80
3, 266492, Note_off_c, 1, 53, 100
3, 266496, Note_on_c, 1, 55, 80
3, 266876, Note_off_c, 1, 55, 100
3, 266880, Note_on_c, 1, 48, 80
3, 267260, Note_off_c, 1, 48, 100
3, 267456, Note_on_c, 1, 48, 80
3, 267644, Note_off_c, 1, 48, 100
3, 267648, Note_on_c, 1, 47, 80
3, 267836, Note_off_c, 1, 47, 100
3, 267840, Note_on_c, 1, 48, 80
3, 268028, Note_off_c, 1, 48, 100
3, 268032, Note_on_c, 1, 49, 102
3, 268412, Note_off_c, 1, 49, 100
3, 268416, Note_on_c, 1, 48, 80
3, 268604, Note_off_c, 1, 48, 100
3, 268800, Note_on_c, 1, 67, 100
3, 268800, Note_on_c, 1, 64, 100
3, 268800, Note_on_c, 1, 60, 100
3, 269180, Note_off_c, 1, 67, 100
3, 269180, Note_off_c, 1, 64, 100
3, 269180, Note_off_c, 1, 60, 100
3, 269184, Note_on_c, 1, 65, 100
3, 269184, Note_on_c, 1, 68, 100
3, 269184, Note_on_c, 1, 60, 100
3, 269564, Note_off_c, 1, 65, 100
3, 269564, Note_off_c, 1, 68, 100
3, 269568, Note_on_c, 1, 64, 100
3, 269568, Note_on_c, 1, 67, 100
3, 269756, Note_off_c, 1, 60, 100
3, 269756, Note_off_c, 1, 64, 100
3, 269756, Note_off_c, 1, 67, 100
3, 269760, Note_on_c, 1, 48, 80
3, 269948, Note_off_c, 1, 48, 100
3, 269952, Note_on_c, 1, 47, 80
3, 270140, Note_off_c, 1, 47, 100
3, 270144, Note_on_c, 1, 48, 80
3, 270332, Note_off_c, 1, 48, 100
3, 270336, Note_on_c, 1, 49, 104
3, 270716, Note_off_c, 1, 49, 100
3, 270720, Note_on_c, 1, 48, 80
3, 270908, Note_off_c, 1, 48, 100
3, 271104, Note_on_c, 1, 67, 110
3, 271104, Note_on_c, 1, 64, 110
3, 271104, Note_on_c, 1, 60, 110
3, 271484, Note_off_c, 1, 67, 100
3, 271484, Note_off_c, 1, 64, 100
3, 271484, Note_off_c, 1, 60, 100
3, 271488, Note_on_c, 1, 65, 110
3, 271488, Note_on_c, 1, 68, 110
3, 271488, Note_on_c, 1, 60, 110
3, 271868, Note_off_c, 1, 65, 100
3, 271868, Note_off_c, 1, 68, 100
3, 271872, Note_on_c, 1, 64, 110
3, 271872, Note_on_c, 1, 67, 110
3, 272060, Note_off_c, 1, 60, 100
3, 272060, Note_off_c, 1, 64, 100
3, 272060, Note_off_c, 1, 67, 100
3, 272064, Note_on_c, 1, 48, 80
3, 272252, Note_off_c, 1, 48, 100
3, 272256, Note_on_c, 1, 47, 80
3, 272444, Note_off_c, 1, 47, 100
3, 272448, Note_on_c, 1, 48, 80
3, 272636, Note_off_c, 1, 48, 100
3, 272640, Note_on_c, 1, 49, 103
3, 273020, Note_off_c, 1, 49, 100
3, 273024, Note_on_c, 1, 48, 80
3, 273212, Note_off_c, 1, 48, 100
3, 273408, Note_on_c, 1, 67, 110
3, 273408, Note_on_c, 1, 64, 110
3, 273408, Note_on_c, 1, 60, 110
3, 273788, Note_off_c, 1, 67, 100
3, 273788, Note_off_c, 1, 64, 100
3, 273788, Note_off_c, 1, 60, 100
3, 273792, Note_on_c, 1, 60, 110
3, 273792, Note_on_c, 1, 65, 110
3, 273792, Note_on_c, 1, 68, 110
3, 274172, Note_off_c, 1, 65, 100
3, 274172, Note_off_c, 1, 68, 100
3, 274176, Note_on_c, 1, 64, 110
3, 274176, Note_on_c, 1, 67, 110
3, 274556, Note_off_c, 1, 60, 100
3, 274556, Note_off_c, 1, 64, 100
3, 274556, Note_off_c, 1, 67, 100
3, 274560, Note_on_c, 1, 67, 110
3, 274560, Note_on_c, 1, 64, 110
3, 274560, Note_on_c, 1, 60, 110
3, 274940, Note_off_c, 1, 67, 100
3, 274940, Note_off_c, 1, 64, 100
3, 274940, Note_off_c, 1, 60, 100
3, 274944, Note_on_c, 1, 60, 110
3, 274944, Note_on_c, 1, 65, 110
3, 274944, Note_on_c, 1, 68, 110
3, 275324, Note_off_c, 1, 65, 100
3, 275324, Note_off_c, 1, 68, 100
3, 275328, Note_on_c, 1, 64, 110
3, 275328, Note_on_c, 1, 67, 110
3, 275708, Note_off_c, 1, 60, 100
3, 275708, Note_off_c, 1, 64, 100
3, 275708, Note_off_c, 1, 67, 100
3, 275712, Note_on_c, 1, 67, 110
3, 275712, Note_on_c, 1, 64, 110
3, 275712, Note_on_c, 1, 60, 110
3, 276092, Note_off_c, 1, 67, 100
3, 276092, Note_off_c, 1, 64, 100
3, 276092, Note_off_c, 1, 60, 100
3, 276096, Note_on_c, 1, 60, 110
3, 276096, Note_on_c, 1, 65, 110
3, 276096, Note_on_c, 1, 68, 110
3, 276476, Note_off_c, 1, 65, 100
3, 276476, Note_off_c, 1, 68, 100
3, 276480, Note_on_c, 1, 64, 110
3, 276480, Note_on_c, 1, 67, 110
3, 276860, Note_off_c, 1, 60, 100
3, 276860, Note_off_c, 1, 64, 100
3, 276860, Note_off_c, 1, 67, 100
3, 276864, Note_on_c, 1, 60, 120
3, 276864, Note_on_c, 1, 48, 120
3, 277244, Note_off_c, 1, 60, 100
3, 277244, Note_off_c, 1, 48, 100
3, 277248, Note_on_c, 1, 48, 120
3, 277248, Note_on_c, 1, 36, 120
3, 277628, Note_off_c, 1, 48, 100
3, 277628, Note_off_c, 1, 36, 100
3, 279168, Note_on_c, 1, 57, 120
3, 279168, Note_on_c, 1, 45, 120
3, 279548, Note_off_c, 1, 57, 100
3, 279548, Note_off_c, 1, 45, 100
3, 279552, Note_on_c, 1, 45, 120
3, 279552, Note_on_c, 1, 33, 120
3, 279932, Note_off_c, 1, 45, 100
3, 279932, Note_off_c, 1, 33, 100
3, 281472, Note_on_c, 1, 54, 120
3, 281472, Note_on_c, 1, 42, 120
3, 281852, Note_off_c, 1, 54, 100
3, 281852, Note_off_c, 1, 42, 100
3, 281856, Note_on_c, 1, 42, 120
3, 281856, Note_on_c, 1, 30, 120
3, 282236, Note_off_c, 1, 42, 100
3, 282236, Note_off_c, 1, 30, 100
3, 282624, Note_on_c, 1, 42, 120
3, 282624, Note_on_c, 1, 30, 120
3, 283004, Note_off_c, 1, 42, 100
3, 283004, Note_off_c, 1, 30, 100
3, 283008, Note_on_c, 1, 43, 120
3, 283008, Note_on_c, 1, 31, 120
3, 283388, Note_off_c, 1, 43, 100
3, 283388, Note_off_c, 1, 31, 100
3, 283584, Note_on_c, 1, 43, 80
3, 283772, Note_off_c, 1, 43, 100
3, 283776, Note_on_c, 1, 42, 80
3, 283964, Note_off_c, 1, 42, 100
3, 283968, Note_on_c, 1, 43, 80
3, 284156, Note_off_c, 1, 43, 100
3, 284160, Note_on_c, 1, 44, 80
3, 284540, Note_off_c, 1, 44, 100
3, 284544, Note_on_c, 1, 43, 80
3, 284924, Note_off_c, 1, 43, 100
3, 284928, Note_on_c, 1, 43, 80
3, 285308, Note_off_c, 1, 43, 100
3, 285312, Note_on_c, 1, 44, 80
3, 285692, Note_off_c, 1, 44, 100
3, 285696, Note_on_c, 1, 43, 80
3, 286076, Note_off_c, 1, 43, 100
3, 286080, Note_on_c, 1, 43, 80
3, 286460, Note_off_c, 1, 43, 100
3, 286464, Note_on_c, 1, 44, 80
3, 286844, Note_off_c, 1, 44, 100
3, 286848, Note_on_c, 1, 43, 80
3, 287228, Note_off_c, 1, 43, 100
3, 287232, Note_on_c, 1, 43, 80
3, 287612, Note_off_c, 1, 43, 100
3, 287616, Note_on_c, 1, 44, 80
3, 287996, Note_off_c, 1, 44, 100
3, 288000, Note_on_c, 1, 43, 80
3, 288380, Note_off_c, 1, 43, 100
3, 288384, Note_on_c, 1, 43, 80
3, 288764, Note_off_c, 1, 43, 100
3, 288768, Note_on_c, 1, 44, 80
3, 289148, Note_off_c, 1, 44, 100
3, 289152, Note_on_c, 1, 43, 80
3, 289532, Note_off_c, 1, 43, 100
3, 289536, Note_on_c, 1, 43, 80
3, 289916, Note_off_c, 1, 43, 100
3, 289920, Note_on_c, 1, 44, 80
3, 290300, Note_off_c, 1, 44, 100
3, 290304, Note_on_c, 1, 43, 80
3, 290684, Note_off_c, 1, 43, 100
3, 290688, Note_on_c, 1, 43, 80
3, 291068, Note_off_c, 1, 43, 100
3, 291072, Note_on_c, 1, 44, 80
3, 291452, Note_off_c, 1, 44, 100
3, 291456, Note_on_c, 1, 43, 80
3, 291836, Note_off_c, 1, 43, 100
3, 291840, Note_on_c, 1, 43, 80
3, 292220, Note_off_c, 1, 43, 100
3, 292224, Note_on_c, 1, 36, 80
3, 292604, Note_off_c, 1, 36, 100
3, 292800, Note_on_c, 1, 36, 70
3, 292988, Note_off_c, 1, 36, 100
3, 292992, Note_on_c, 1, 35, 70
3, 293180, Note_off_c, 1, 35, 100
3, 293184, Note_on_c, 1, 36, 70
3, 293372, Note_off_c, 1, 36, 100
3, 293376, Note_on_c, 1, 37, 70
3, 293756, Note_off_c, 1, 37, 100
3, 293760, Note_on_c, 1, 36, 70
3, 294140, Note_off_c, 1, 36, 100
3, 294144, Note_on_c, 1, 36, 70
3, 294524, Note_off_c, 1, 36, 100
3, 294528, Note_on_c, 1, 37, 70
3, 294908, Note_off_c, 1, 37, 100
3, 294912, Note_on_c, 1, 36, 70
3, 295292, Note_off_c, 1, 36, 100
3, 295296, Note_on_c, 1, 36, 70
3, 295676, Note_off_c, 1, 36, 100
3, 295680, Note_on_c, 1, 37, 70
3, 296060, Note_off_c, 1, 37, 100
3, 296064, Note_on_c, 1, 36, 70
3, 296444, Note_off_c, 1, 36, 100
3, 296448, Note_on_c, 1, 36, 70
3, 296828, Note_off_c, 1, 36, 100
3, 296832, Note_on_c, 1, 37, 70
3, 297212, Note_off_c, 1, 37, 100
3, 297216, Note_on_c, 1, 36, 70
3, 297596, Note_off_c, 1, 36, 100
3, 297600, Note_on_c, 1, 36, 70
3, 297980, Note_off_c, 1, 36, 100
3, 297984, Note_on_c, 1, 37, 70
3, 298364, Note_off_c, 1, 37, 100
3, 298368, Note_on_c, 1, 36, 70
3, 298748, Note_off_c, 1, 36, 100
3, 298752, Note_on_c, 1, 36, 70
3, 299132, Note_off_c, 1, 36, 100
3, 299136, Note_on_c, 1, 37, 70
3, 299516, Note_off_c, 1, 37, 100
3, 299520, Note_on_c, 1, 36, 70
3, 299900, Note_off_c, 1, 36, 100
3, 299904, Note_on_c, 1, 36, 70
3, 300284, Note_off_c, 1, 36, 100
3, 300288, Note_on_c, 1, 37, 70
3, 300668, Note_off_c, 1, 37, 100
3, 300672, Note_on_c, 1, 36, 70
3, 301052, Note_off_c, 1, 36, 100
3, 301056, Note_on_c, 1, 36, 70
3, 301436, Note_off_c, 1, 36, 100
3, 301440, Note_on_c, 1, 36, 70
3, 301820, Note_off_c, 1, 36, 100
3, 302208, Note_on_c, 1, 35, 70
3, 302588, Note_off_c, 1, 35, 100
3, 302592, Note_on_c, 1, 36, 70
3, 302972, Note_off_c, 1, 36, 100
3, 303360, Note_on_c, 1, 35, 70
3, 303740, Note_off_c, 1, 35, 100
3, 303744, Note_on_c, 1, 36, 70
3, 304892, Note_off_c, 1, 36, 100
3, 304892, End_track
0, 0, End_of_file
