0, 0, Header, 1, 3, 384
1, 0, Start_track
1, 0, Title_t, "L.v.Beethoven 4mov - Piano Sonata No.3 in C Major Op.2-3\000"
1, 0, Copyright_t, "Copyright(C) 1995-2009, Suzuki Software\000"
1, 0, Sequencer_specific, 9, 67, 123, 0, 88, 70, 48, 50, 0, 1
1, 0, Text_t, "XFhd:2000/03/12:JP:Classical::::L.v.Beethoven:::Kaoru Suzuki\000"
1, 0, Text_t, "XFln:JP:\203s\203A\203m\203\\\203i\203^\221æ3\224Ô\203n\222·\222²\215ì\225i2-3\201`\221æ4\212y\217Í:L.v.\203x\201[\203g\201[\203\224\203F\203\223:::\227é\202¿\202á\202ñ:\227é\202¿\202á\202ñ\000"
1, 0, Time_signature, 1, 2, 96, 8
1, 0, Sequencer_specific, 3, 0, 0, 65
1, 0, Sequencer_specific, 5, 0, 0, 119, 14, 0
1, 0, Tempo, 352941
1, 384, Time_signature, 3, 2, 96, 8
1, 144576, Tempo, 357142
1, 144768, Tempo, 361445
1, 144960, Tempo, 365853
1, 145152, Tempo, 370370
1, 145344, Tempo, 379746
1, 145536, Tempo, 352941
1, 163008, Tempo, 357142
1, 163200, Tempo, 361445
1, 163392, Tempo, 368098
1, 163584, Tempo, 375000
1, 163776, Tempo, 387096
1, 163968, Tempo, 352941
1, 343680, Tempo, 400000
1, 349440, Tempo, 428571
1, 351744, Tempo, 461538
1, 352320, Tempo, 600000
1, 354048, Tempo, 333333
1, 360960, Tempo, 428571
1, 360960, End_track
2, 0, Start_track
2, 0, Title_t, "Right"
2, 0, Control_c, 0, 0, 0
2, 0, Program_c, 0, 0
2, 0, Control_c, 0, 7, 100
2, 0, Control_c, 0, 10, 79
2, 0, Control_c, 0, 91, 127
2, 0, Key_signature, 0, "major"
2, 192, Note_on_c, 0, 67, 80
2, 380, Note_off_c, 0, 67, 100
2, 384, Note_on_c, 0, 72, 80
2, 384, Note_on_c, 0, 67, 80
2, 384, Note_on_c, 0, 64, 80
2, 572, Note_off_c, 0, 72, 100
2, 572, Note_off_c, 0, 67, 100
2, 572, Note_off_c, 0, 64, 100
2, 576, Note_on_c, 0, 71, 80
2, 576, Note_on_c, 0, 65, 80
2, 576, Note_on_c, 0, 62, 80
2, 764, Note_off_c, 0, 71, 100
2, 764, Note_off_c, 0, 65, 100
2, 764, Note_off_c, 0, 62, 100
2, 768, Note_on_c, 0, 72, 80
2, 768, Note_on_c, 0, 67, 80
2, 768, Note_on_c, 0, 64, 80
2, 956, Note_off_c, 0, 72, 100
2, 956, Note_off_c, 0, 67, 100
2, 956, Note_off_c, 0, 64, 100
2, 960, Note_on_c, 0, 74, 80
2, 960, Note_on_c, 0, 69, 80
2, 960, Note_on_c, 0, 65, 80
2, 1148, Note_off_c, 0, 74, 100
2, 1148, Note_off_c, 0, 69, 100
2, 1148, Note_off_c, 0, 65, 100
2, 1152, Note_on_c, 0, 76, 80
2, 1152, Note_on_c, 0, 71, 80
2, 1152, Note_on_c, 0, 67, 80
2, 1340, Note_off_c, 0, 76, 100
2, 1340, Note_off_c, 0, 71, 100
2, 1340, Note_off_c, 0, 67, 100
2, 1344, Note_on_c, 0, 77, 80
2, 1344, Note_on_c, 0, 72, 80
2, 1344, Note_on_c, 0, 69, 80
2, 1532, Note_off_c, 0, 77, 100
2, 1532, Note_off_c, 0, 72, 100
2, 1532, Note_off_c, 0, 69, 100
2, 1536, Note_on_c, 0, 79, 80
2, 1536, Note_on_c, 0, 74, 80
2, 1536, Note_on_c, 0, 71, 80
2, 1724, Note_off_c, 0, 79, 100
2, 1724, Note_off_c, 0, 74, 100
2, 1724, Note_off_c, 0, 71, 100
2, 1728, Note_on_c, 0, 81, 80
2, 1728, Note_on_c, 0, 76, 80
2, 1728, Note_on_c, 0, 72, 80
2, 1916, Note_off_c, 0, 81, 100
2, 1916, Note_off_c, 0, 76, 100
2, 1916, Note_off_c, 0, 72, 100
2, 1920, Note_on_c, 0, 83, 80
2, 1920, Note_on_c, 0, 77, 80
2, 1920, Note_on_c, 0, 74, 80
2, 2108, Note_off_c, 0, 83, 100
2, 2108, Note_off_c, 0, 77, 100
2, 2108, Note_off_c, 0, 74, 100
2, 2112, Note_on_c, 0, 84, 80
2, 2112, Note_on_c, 0, 79, 80
2, 2112, Note_on_c, 0, 76, 80
2, 2300, Note_off_c, 0, 84, 100
2, 2300, Note_off_c, 0, 79, 100
2, 2300, Note_off_c, 0, 76, 100
2, 2304, Note_on_c, 0, 86, 80
2, 2304, Note_on_c, 0, 81, 80
2, 2304, Note_on_c, 0, 77, 80
2, 2492, Note_off_c, 0, 86, 100
2, 2492, Note_off_c, 0, 81, 100
2, 2492, Note_off_c, 0, 77, 100
2, 2496, Note_on_c, 0, 88, 80
2, 2496, Note_on_c, 0, 84, 80
2, 2684, Note_off_c, 0, 88, 100
2, 2684, Note_off_c, 0, 84, 100
2, 2688, Note_on_c, 0, 84, 80
2, 2688, Note_on_c, 0, 89, 80
2, 3068, Note_off_c, 0, 84, 100
2, 3068, Note_off_c, 0, 89, 100
2, 3072, Note_on_c, 0, 88, 80
2, 3072, Note_on_c, 0, 84, 80
2, 3260, Note_off_c, 0, 88, 100
2, 3260, Note_off_c, 0, 84, 100
2, 3264, Note_on_c, 0, 84, 80
2, 3264, Note_on_c, 0, 89, 80
2, 3644, Note_off_c, 0, 84, 100
2, 3644, Note_off_c, 0, 89, 100
2, 3648, Note_on_c, 0, 88, 80
2, 3648, Note_on_c, 0, 84, 80
2, 3836, Note_off_c, 0, 88, 100
2, 3836, Note_off_c, 0, 84, 100
2, 3840, Note_on_c, 0, 86, 80
2, 3840, Note_on_c, 0, 84, 80
2, 4220, Note_off_c, 0, 86, 100
2, 4220, Note_off_c, 0, 84, 100
2, 4800, Note_on_c, 0, 62, 80
2, 4988, Note_off_c, 0, 62, 100
2, 4992, Note_on_c, 0, 67, 80
2, 4992, Note_on_c, 0, 62, 80
2, 4992, Note_on_c, 0, 59, 80
2, 5180, Note_off_c, 0, 67, 100
2, 5180, Note_off_c, 0, 62, 100
2, 5180, Note_off_c, 0, 59, 100
2, 5184, Note_on_c, 0, 66, 80
2, 5184, Note_on_c, 0, 60, 80
2, 5184, Note_on_c, 0, 57, 80
2, 5372, Note_off_c, 0, 66, 100
2, 5372, Note_off_c, 0, 60, 100
2, 5372, Note_off_c, 0, 57, 100
2, 5376, Note_on_c, 0, 67, 80
2, 5376, Note_on_c, 0, 62, 80
2, 5376, Note_on_c, 0, 59, 80
2, 5564, Note_off_c, 0, 67, 100
2, 5564, Note_off_c, 0, 62, 100
2, 5564, Note_off_c, 0, 59, 100
2, 5568, Note_on_c, 0, 69, 80
2, 5568, Note_on_c, 0, 64, 80
2, 5568, Note_on_c, 0, 60, 80
2, 5756, Note_off_c, 0, 69, 100
2, 5756, Note_off_c, 0, 64, 100
2, 5756, Note_off_c, 0, 60, 100
2, 5760, Note_on_c, 0, 71, 80
2, 5760, Note_on_c, 0, 65, 80
2, 5760, Note_on_c, 0, 62, 80
2, 5948, Note_off_c, 0, 71, 100
2, 5948, Note_off_c, 0, 65, 100
2, 5948, Note_off_c, 0, 62, 100
2, 5952, Note_on_c, 0, 72, 80
2, 5952, Note_on_c, 0, 67, 80
2, 5952, Note_on_c, 0, 64, 80
2, 6140, Note_off_c, 0, 72, 100
2, 6140, Note_off_c, 0, 67, 100
2, 6140, Note_off_c, 0, 64, 100
2, 6144, Note_on_c, 0, 74, 80
2, 6144, Note_on_c, 0, 69, 80
2, 6144, Note_on_c, 0, 65, 80
2, 6332, Note_off_c, 0, 74, 100
2, 6332, Note_off_c, 0, 69, 100
2, 6332, Note_off_c, 0, 65, 100
2, 6336, Note_on_c, 0, 76, 80
2, 6336, Note_on_c, 0, 71, 80
2, 6336, Note_on_c, 0, 67, 80
2, 6524, Note_off_c, 0, 76, 100
2, 6524, Note_off_c, 0, 71, 100
2, 6524, Note_off_c, 0, 67, 100
2, 6528, Note_on_c, 0, 77, 80
2, 6528, Note_on_c, 0, 72, 80
2, 6528, Note_on_c, 0, 69, 80
2, 6716, Note_off_c, 0, 77, 100
2, 6716, Note_off_c, 0, 72, 100
2, 6716, Note_off_c, 0, 69, 100
2, 6720, Note_on_c, 0, 79, 80
2, 6720, Note_on_c, 0, 74, 80
2, 6720, Note_on_c, 0, 71, 80
2, 6908, Note_off_c, 0, 79, 100
2, 6908, Note_off_c, 0, 74, 100
2, 6908, Note_off_c, 0, 71, 100
2, 6912, Note_on_c, 0, 81, 80
2, 6912, Note_on_c, 0, 76, 80
2, 6912, Note_on_c, 0, 72, 80
2, 7100, Note_off_c, 0, 81, 100
2, 7100, Note_off_c, 0, 76, 100
2, 7100, Note_off_c, 0, 72, 100
2, 7104, Note_on_c, 0, 83, 80
2, 7104, Note_on_c, 0, 77, 80
2, 7104, Note_on_c, 0, 74, 80
2, 7292, Note_off_c, 0, 83, 100
2, 7292, Note_off_c, 0, 77, 100
2, 7292, Note_off_c, 0, 74, 100
2, 7296, Note_on_c, 0, 84, 80
2, 7296, Note_on_c, 0, 79, 80
2, 7296, Note_on_c, 0, 76, 80
2, 7676, Note_off_c, 0, 84, 100
2, 7676, Note_off_c, 0, 79, 100
2, 7676, Note_off_c, 0, 76, 100
2, 7680, Note_on_c, 0, 86, 80
2, 7680, Note_on_c, 0, 79, 80
2, 7680, Note_on_c, 0, 77, 80
2, 7868, Note_off_c, 0, 86, 100
2, 7868, Note_off_c, 0, 79, 100
2, 7868, Note_off_c, 0, 77, 100
2, 7872, Note_on_c, 0, 84, 80
2, 7872, Note_on_c, 0, 79, 80
2, 7872, Note_on_c, 0, 76, 80
2, 8252, Note_off_c, 0, 84, 100
2, 8252, Note_off_c, 0, 79, 100
2, 8252, Note_off_c, 0, 76, 100
2, 8256, Note_on_c, 0, 86, 80
2, 8256, Note_on_c, 0, 79, 80
2, 8256, Note_on_c, 0, 77, 80
2, 8444, Note_off_c, 0, 86, 100
2, 8444, Note_off_c, 0, 79, 100
2, 8444, Note_off_c, 0, 77, 100
2, 8448, Note_on_c, 0, 76, 80
2, 8448, Note_on_c, 0, 79, 80
2, 8448, Note_on_c, 0, 84, 80
2, 8828, Note_off_c, 0, 76, 100
2, 8828, Note_off_c, 0, 79, 100
2, 8828, Note_off_c, 0, 84, 100
2, 9024, Note_on_c, 0, 81, 80
2, 9116, Note_off_c, 0, 81, 100
2, 9120, Note_on_c, 0, 79, 80
2, 9212, Note_off_c, 0, 79, 100
2, 9216, Note_on_c, 0, 77, 80
2, 9308, Note_off_c, 0, 77, 100
2, 9312, Note_on_c, 0, 76, 80
2, 9404, Note_off_c, 0, 76, 100
2, 9408, Note_on_c, 0, 74, 80
2, 9500, Note_off_c, 0, 74, 100
2, 9504, Note_on_c, 0, 72, 80
2, 9596, Note_off_c, 0, 72, 100
2, 9600, Note_on_c, 0, 71, 80
2, 9692, Note_off_c, 0, 71, 100
2, 9696, Note_on_c, 0, 72, 80
2, 9788, Note_off_c, 0, 72, 100
2, 9792, Note_on_c, 0, 71, 80
2, 9884, Note_off_c, 0, 71, 100
2, 9888, Note_on_c, 0, 69, 80
2, 9980, Note_off_c, 0, 69, 100
2, 9984, Note_on_c, 0, 71, 80
2, 10076, Note_off_c, 0, 71, 100
2, 10080, Note_on_c, 0, 67, 80
2, 10172, Note_off_c, 0, 67, 100
2, 10176, Note_on_c, 0, 72, 80
2, 10268, Note_off_c, 0, 72, 100
2, 10272, Note_on_c, 0, 74, 80
2, 10364, Note_off_c, 0, 74, 100
2, 10368, Note_on_c, 0, 72, 80
2, 10460, Note_off_c, 0, 72, 100
2, 10464, Note_on_c, 0, 71, 80
2, 10556, Note_off_c, 0, 71, 100
2, 10560, Note_on_c, 0, 72, 80
2, 10652, Note_off_c, 0, 72, 100
2, 10656, Note_on_c, 0, 67, 80
2, 10748, Note_off_c, 0, 67, 100
2, 10752, Note_on_c, 0, 74, 80
2, 10844, Note_off_c, 0, 74, 100
2, 10848, Note_on_c, 0, 76, 80
2, 10940, Note_off_c, 0, 76, 100
2, 10944, Note_on_c, 0, 74, 80
2, 11036, Note_off_c, 0, 74, 100
2, 11040, Note_on_c, 0, 73, 80
2, 11132, Note_off_c, 0, 73, 100
2, 11136, Note_on_c, 0, 74, 80
2, 11228, Note_off_c, 0, 74, 100
2, 11232, Note_on_c, 0, 67, 80
2, 11324, Note_off_c, 0, 67, 100
2, 11328, Note_on_c, 0, 79, 80
2, 11420, Note_off_c, 0, 79, 100
2, 11424, Note_on_c, 0, 77, 80
2, 11516, Note_off_c, 0, 77, 100
2, 11520, Note_on_c, 0, 76, 80
2, 11612, Note_off_c, 0, 76, 100
2, 11616, Note_on_c, 0, 74, 80
2, 11708, Note_off_c, 0, 74, 100
2, 11712, Note_on_c, 0, 72, 80
2, 11804, Note_off_c, 0, 72, 100
2, 11808, Note_on_c, 0, 71, 80
2, 11900, Note_off_c, 0, 71, 100
2, 11904, Note_on_c, 0, 72, 80
2, 11996, Note_off_c, 0, 72, 100
2, 12000, Note_on_c, 0, 74, 80
2, 12092, Note_off_c, 0, 74, 100
2, 12096, Note_on_c, 0, 72, 80
2, 12188, Note_off_c, 0, 72, 100
2, 12192, Note_on_c, 0, 71, 80
2, 12284, Note_off_c, 0, 71, 100
2, 12288, Note_on_c, 0, 72, 80
2, 12380, Note_off_c, 0, 72, 100
2, 12384, Note_on_c, 0, 67, 80
2, 12476, Note_off_c, 0, 67, 100
2, 12480, Note_on_c, 0, 74, 80
2, 12572, Note_off_c, 0, 74, 100
2, 12576, Note_on_c, 0, 76, 80
2, 12668, Note_off_c, 0, 76, 100
2, 12672, Note_on_c, 0, 74, 80
2, 12764, Note_off_c, 0, 74, 100
2, 12768, Note_on_c, 0, 73, 80
2, 12860, Note_off_c, 0, 73, 100
2, 12864, Note_on_c, 0, 74, 80
2, 12956, Note_off_c, 0, 74, 100
2, 12960, Note_on_c, 0, 67, 80
2, 13052, Note_off_c, 0, 67, 100
2, 13056, Note_on_c, 0, 76, 80
2, 13148, Note_off_c, 0, 76, 100
2, 13152, Note_on_c, 0, 77, 80
2, 13244, Note_off_c, 0, 77, 100
2, 13248, Note_on_c, 0, 76, 80
2, 13340, Note_off_c, 0, 76, 100
2, 13344, Note_on_c, 0, 75, 80
2, 13436, Note_off_c, 0, 75, 100
2, 13440, Note_on_c, 0, 76, 80
2, 13532, Note_off_c, 0, 76, 100
2, 13536, Note_on_c, 0, 72, 80
2, 13628, Note_off_c, 0, 72, 100
2, 13632, Note_on_c, 0, 81, 80
2, 13724, Note_off_c, 0, 81, 100
2, 13728, Note_on_c, 0, 79, 80
2, 13820, Note_off_c, 0, 79, 100
2, 13824, Note_on_c, 0, 77, 80
2, 13916, Note_off_c, 0, 77, 100
2, 13920, Note_on_c, 0, 76, 80
2, 14012, Note_off_c, 0, 76, 100
2, 14016, Note_on_c, 0, 74, 80
2, 14108, Note_off_c, 0, 74, 100
2, 14112, Note_on_c, 0, 72, 80
2, 14204, Note_off_c, 0, 72, 100
2, 14208, Note_on_c, 0, 78, 80
2, 14300, Note_off_c, 0, 78, 100
2, 14304, Note_on_c, 0, 79, 80
2, 14396, Note_off_c, 0, 79, 100
2, 14400, Note_on_c, 0, 78, 80
2, 14492, Note_off_c, 0, 78, 100
2, 14496, Note_on_c, 0, 76, 80
2, 14588, Note_off_c, 0, 76, 100
2, 14592, Note_on_c, 0, 78, 80
2, 14684, Note_off_c, 0, 78, 100
2, 14688, Note_on_c, 0, 74, 80
2, 14780, Note_off_c, 0, 74, 100
2, 14784, Note_on_c, 0, 79, 80
2, 14876, Note_off_c, 0, 79, 100
2, 14880, Note_on_c, 0, 81, 80
2, 14972, Note_off_c, 0, 81, 100
2, 14976, Note_on_c, 0, 79, 80
2, 15068, Note_off_c, 0, 79, 100
2, 15072, Note_on_c, 0, 78, 80
2, 15164, Note_off_c, 0, 78, 100
2, 15168, Note_on_c, 0, 79, 80
2, 15260, Note_off_c, 0, 79, 100
2, 15264, Note_on_c, 0, 74, 80
2, 15356, Note_off_c, 0, 74, 100
2, 15360, Note_on_c, 0, 81, 80
2, 15452, Note_off_c, 0, 81, 100
2, 15456, Note_on_c, 0, 83, 80
2, 15548, Note_off_c, 0, 83, 100
2, 15552, Note_on_c, 0, 81, 80
2, 15644, Note_off_c, 0, 81, 100
2, 15648, Note_on_c, 0, 80, 80
2, 15740, Note_off_c, 0, 80, 100
2, 15744, Note_on_c, 0, 81, 80
2, 15836, Note_off_c, 0, 81, 100
2, 15840, Note_on_c, 0, 74, 80
2, 15932, Note_off_c, 0, 74, 100
2, 15936, Note_on_c, 0, 86, 80
2, 16028, Note_off_c, 0, 86, 100
2, 16032, Note_on_c, 0, 84, 80
2, 16124, Note_off_c, 0, 84, 100
2, 16128, Note_on_c, 0, 83, 80
2, 16220, Note_off_c, 0, 83, 100
2, 16224, Note_on_c, 0, 81, 80
2, 16316, Note_off_c, 0, 81, 100
2, 16320, Note_on_c, 0, 79, 80
2, 16412, Note_off_c, 0, 79, 100
2, 16416, Note_on_c, 0, 78, 80
2, 16508, Note_off_c, 0, 78, 100
2, 16512, Note_on_c, 0, 79, 80
2, 16604, Note_off_c, 0, 79, 100
2, 16608, Note_on_c, 0, 81, 80
2, 16700, Note_off_c, 0, 81, 100
2, 16704, Note_on_c, 0, 79, 80
2, 16796, Note_off_c, 0, 79, 100
2, 16800, Note_on_c, 0, 78, 80
2, 16892, Note_off_c, 0, 78, 100
2, 16896, Note_on_c, 0, 79, 80
2, 16988, Note_off_c, 0, 79, 100
2, 16992, Note_on_c, 0, 74, 80
2, 17084, Note_off_c, 0, 74, 100
2, 17088, Note_on_c, 0, 86, 80
2, 17180, Note_off_c, 0, 86, 100
2, 17184, Note_on_c, 0, 88, 80
2, 17276, Note_off_c, 0, 88, 100
2, 17280, Note_on_c, 0, 86, 80
2, 17372, Note_off_c, 0, 86, 100
2, 17376, Note_on_c, 0, 85, 80
2, 17468, Note_off_c, 0, 85, 100
2, 17472, Note_on_c, 0, 86, 80
2, 17564, Note_off_c, 0, 86, 100
2, 17568, Note_on_c, 0, 78, 80
2, 17660, Note_off_c, 0, 78, 100
2, 17664, Note_on_c, 0, 79, 80
2, 17756, Note_off_c, 0, 79, 100
2, 17760, Note_on_c, 0, 81, 80
2, 17852, Note_off_c, 0, 81, 100
2, 17856, Note_on_c, 0, 79, 80
2, 17948, Note_off_c, 0, 79, 100
2, 17952, Note_on_c, 0, 78, 80
2, 18044, Note_off_c, 0, 78, 100
2, 18048, Note_on_c, 0, 79, 80
2, 18140, Note_off_c, 0, 79, 100
2, 18144, Note_on_c, 0, 74, 80
2, 18236, Note_off_c, 0, 74, 100
2, 18240, Note_on_c, 0, 86, 80
2, 18332, Note_off_c, 0, 86, 100
2, 18336, Note_on_c, 0, 88, 80
2, 18428, Note_off_c, 0, 88, 100
2, 18432, Note_on_c, 0, 86, 80
2, 18524, Note_off_c, 0, 86, 100
2, 18528, Note_on_c, 0, 85, 80
2, 18620, Note_off_c, 0, 85, 100
2, 18624, Note_on_c, 0, 86, 80
2, 18716, Note_off_c, 0, 86, 100
2, 18720, Note_on_c, 0, 78, 80
2, 18812, Note_off_c, 0, 78, 100
2, 18816, Note_on_c, 0, 79, 80
2, 18908, Note_off_c, 0, 79, 100
2, 18912, Note_on_c, 0, 81, 80
2, 19004, Note_off_c, 0, 81, 100
2, 19008, Note_on_c, 0, 79, 80
2, 19100, Note_off_c, 0, 79, 100
2, 19104, Note_on_c, 0, 78, 80
2, 19196, Note_off_c, 0, 78, 100
2, 19200, Note_on_c, 0, 79, 80
2, 19292, Note_off_c, 0, 79, 100
2, 19296, Note_on_c, 0, 81, 80
2, 19388, Note_off_c, 0, 81, 100
2, 19392, Note_on_c, 0, 83, 80
2, 19484, Note_off_c, 0, 83, 100
2, 19488, Note_on_c, 0, 84, 80
2, 19580, Note_off_c, 0, 84, 100
2, 19584, Note_on_c, 0, 83, 80
2, 19676, Note_off_c, 0, 83, 100
2, 19680, Note_on_c, 0, 82, 80
2, 19772, Note_off_c, 0, 82, 100
2, 19776, Note_on_c, 0, 83, 80
2, 19868, Note_off_c, 0, 83, 100
2, 19872, Note_on_c, 0, 84, 80
2, 19964, Note_off_c, 0, 84, 100
2, 19968, Note_on_c, 0, 86, 80
2, 20060, Note_off_c, 0, 86, 100
2, 20064, Note_on_c, 0, 88, 80
2, 20156, Note_off_c, 0, 88, 100
2, 20160, Note_on_c, 0, 86, 80
2, 20252, Note_off_c, 0, 86, 100
2, 20256, Note_on_c, 0, 85, 80
2, 20348, Note_off_c, 0, 85, 100
2, 20352, Note_on_c, 0, 86, 80
2, 20444, Note_off_c, 0, 86, 100
2, 20448, Note_on_c, 0, 88, 80
2, 20540, Note_off_c, 0, 88, 100
2, 20544, Note_on_c, 0, 89, 80
2, 20636, Note_off_c, 0, 89, 100
2, 20640, Note_on_c, 0, 86, 80
2, 20732, Note_off_c, 0, 86, 100
2, 20736, Note_on_c, 0, 83, 80
2, 20828, Note_off_c, 0, 83, 100
2, 20832, Note_on_c, 0, 79, 80
2, 20924, Note_off_c, 0, 79, 100
2, 20928, Note_on_c, 0, 77, 80
2, 21020, Note_off_c, 0, 77, 100
2, 21024, Note_on_c, 0, 74, 80
2, 21116, Note_off_c, 0, 74, 100
2, 21120, Note_on_c, 0, 72, 80
2, 21120, Note_on_c, 0, 67, 80
2, 21120, Note_on_c, 0, 64, 80
2, 21308, Note_off_c, 0, 72, 100
2, 21308, Note_off_c, 0, 67, 100
2, 21308, Note_off_c, 0, 64, 100
2, 21312, Note_on_c, 0, 71, 80
2, 21312, Note_on_c, 0, 65, 80
2, 21312, Note_on_c, 0, 62, 80
2, 21500, Note_off_c, 0, 71, 100
2, 21500, Note_off_c, 0, 65, 100
2, 21500, Note_off_c, 0, 62, 100
2, 21504, Note_on_c, 0, 72, 80
2, 21504, Note_on_c, 0, 67, 80
2, 21504, Note_on_c, 0, 64, 80
2, 21692, Note_off_c, 0, 72, 100
2, 21692, Note_off_c, 0, 67, 100
2, 21692, Note_off_c, 0, 64, 100
2, 21696, Note_on_c, 0, 74, 80
2, 21696, Note_on_c, 0, 69, 80
2, 21696, Note_on_c, 0, 65, 80
2, 21884, Note_off_c, 0, 74, 100
2, 21884, Note_off_c, 0, 69, 100
2, 21884, Note_off_c, 0, 65, 100
2, 21888, Note_on_c, 0, 76, 80
2, 21888, Note_on_c, 0, 71, 80
2, 21888, Note_on_c, 0, 67, 80
2, 22076, Note_off_c, 0, 76, 100
2, 22076, Note_off_c, 0, 71, 100
2, 22076, Note_off_c, 0, 67, 100
2, 22080, Note_on_c, 0, 77, 80
2, 22080, Note_on_c, 0, 72, 80
2, 22080, Note_on_c, 0, 69, 80
2, 22268, Note_off_c, 0, 77, 100
2, 22268, Note_off_c, 0, 72, 100
2, 22268, Note_off_c, 0, 69, 100
2, 22272, Note_on_c, 0, 79, 80
2, 22272, Note_on_c, 0, 74, 80
2, 22272, Note_on_c, 0, 71, 80
2, 22460, Note_off_c, 0, 79, 100
2, 22460, Note_off_c, 0, 74, 100
2, 22460, Note_off_c, 0, 71, 100
2, 22464, Note_on_c, 0, 81, 80
2, 22464, Note_on_c, 0, 76, 80
2, 22464, Note_on_c, 0, 72, 80
2, 22652, Note_off_c, 0, 81, 100
2, 22652, Note_off_c, 0, 76, 100
2, 22652, Note_off_c, 0, 72, 100
2, 22656, Note_on_c, 0, 83, 80
2, 22656, Note_on_c, 0, 77, 80
2, 22656, Note_on_c, 0, 74, 80
2, 22844, Note_off_c, 0, 83, 100
2, 22844, Note_off_c, 0, 77, 100
2, 22844, Note_off_c, 0, 74, 100
2, 22848, Note_on_c, 0, 84, 80
2, 22848, Note_on_c, 0, 79, 80
2, 22848, Note_on_c, 0, 76, 80
2, 23036, Note_off_c, 0, 84, 100
2, 23036, Note_off_c, 0, 79, 100
2, 23036, Note_off_c, 0, 76, 100
2, 23040, Note_on_c, 0, 86, 80
2, 23040, Note_on_c, 0, 81, 80
2, 23040, Note_on_c, 0, 77, 80
2, 23228, Note_off_c, 0, 86, 100
2, 23228, Note_off_c, 0, 81, 100
2, 23228, Note_off_c, 0, 77, 100
2, 23232, Note_on_c, 0, 88, 80
2, 23232, Note_on_c, 0, 84, 80
2, 23420, Note_off_c, 0, 88, 100
2, 23420, Note_off_c, 0, 84, 100
2, 23424, Note_on_c, 0, 84, 80
2, 23424, Note_on_c, 0, 89, 80
2, 23804, Note_off_c, 0, 84, 100
2, 23804, Note_off_c, 0, 89, 100
2, 23808, Note_on_c, 0, 88, 80
2, 23808, Note_on_c, 0, 84, 80
2, 23996, Note_off_c, 0, 88, 100
2, 23996, Note_off_c, 0, 84, 100
2, 24000, Note_on_c, 0, 84, 80
2, 24000, Note_on_c, 0, 89, 80
2, 24380, Note_off_c, 0, 84, 100
2, 24380, Note_off_c, 0, 89, 100
2, 24384, Note_on_c, 0, 88, 80
2, 24384, Note_on_c, 0, 84, 80
2, 24572, Note_off_c, 0, 88, 100
2, 24572, Note_off_c, 0, 84, 100
2, 24576, Note_on_c, 0, 87, 80
2, 24576, Note_on_c, 0, 84, 80
2, 24576, Note_on_c, 0, 81, 80
2, 24956, Note_off_c, 0, 87, 100
2, 24956, Note_off_c, 0, 84, 100
2, 24956, Note_off_c, 0, 81, 100
2, 25536, Note_on_c, 0, 83, 80
2, 25724, Note_off_c, 0, 83, 100
2, 25728, Note_on_c, 0, 88, 80
2, 25728, Note_on_c, 0, 76, 80
2, 26108, Note_off_c, 0, 88, 100
2, 26108, Note_off_c, 0, 76, 100
2, 26112, Note_on_c, 0, 75, 80
2, 26112, Note_on_c, 0, 87, 80
2, 26300, Note_off_c, 0, 75, 100
2, 26300, Note_off_c, 0, 87, 100
2, 26304, Note_on_c, 0, 88, 80
2, 26304, Note_on_c, 0, 76, 80
2, 26684, Note_off_c, 0, 88, 100
2, 26684, Note_off_c, 0, 76, 100
2, 26688, Note_on_c, 0, 74, 80
2, 26688, Note_on_c, 0, 86, 80
2, 26876, Note_off_c, 0, 74, 100
2, 26876, Note_off_c, 0, 86, 100
2, 26880, Note_on_c, 0, 73, 80
2, 26880, Note_on_c, 0, 85, 80
2, 27260, Note_off_c, 0, 73, 100
2, 27260, Note_off_c, 0, 85, 100
2, 27840, Note_on_c, 0, 81, 100
2, 27888, Note_on_c, 0, 83, 100
2, 27932, Note_off_c, 0, 81, 100
2, 27936, Note_on_c, 0, 79, 100
2, 27980, Note_off_c, 0, 83, 100
2, 27984, Note_on_c, 0, 81, 100
2, 28028, Note_off_c, 0, 79, 100
2, 28028, Note_off_c, 0, 81, 100
2, 28032, Note_on_c, 0, 74, 110
2, 28032, Note_on_c, 0, 86, 110
2, 28412, Note_off_c, 0, 74, 100
2, 28412, Note_off_c, 0, 86, 100
2, 28416, Note_on_c, 0, 72, 110
2, 28416, Note_on_c, 0, 84, 110
2, 28604, Note_off_c, 0, 72, 100
2, 28604, Note_off_c, 0, 84, 100
2, 28608, Note_on_c, 0, 71, 110
2, 28608, Note_on_c, 0, 83, 110
2, 28988, Note_off_c, 0, 71, 100
2, 28988, Note_off_c, 0, 83, 100
2, 28992, Note_on_c, 0, 81, 110
2, 28992, Note_on_c, 0, 69, 110
2, 29180, Note_off_c, 0, 81, 100
2, 29180, Note_off_c, 0, 69, 100
2, 29184, Note_on_c, 0, 67, 110
2, 29184, Note_on_c, 0, 79, 110
2, 29564, Note_off_c, 0, 67, 100
2, 29564, Note_off_c, 0, 79, 100
2, 29568, Note_on_c, 0, 78, 110
2, 29568, Note_on_c, 0, 66, 110
2, 29756, Note_off_c, 0, 78, 100
2, 29756, Note_off_c, 0, 66, 100
2, 29760, Note_on_c, 0, 64, 110
2, 29760, Note_on_c, 0, 76, 110
2, 30140, Note_off_c, 0, 64, 100
2, 30140, Note_off_c, 0, 76, 100
2, 30144, Note_on_c, 0, 74, 110
2, 30144, Note_on_c, 0, 62, 110
2, 30332, Note_off_c, 0, 74, 100
2, 30332, Note_off_c, 0, 62, 100
2, 30336, Note_on_c, 0, 60, 110
2, 30336, Note_on_c, 0, 72, 110
2, 30716, Note_off_c, 0, 60, 100
2, 30716, Note_off_c, 0, 72, 100
2, 30720, Note_on_c, 0, 71, 110
2, 30720, Note_on_c, 0, 59, 110
2, 30908, Note_off_c, 0, 71, 100
2, 30908, Note_off_c, 0, 59, 100
2, 30912, Note_on_c, 0, 69, 110
2, 30912, Note_on_c, 0, 57, 110
2, 31292, Note_off_c, 0, 69, 100
2, 31292, Note_off_c, 0, 57, 100
2, 31296, Note_on_c, 0, 68, 110
2, 31296, Note_on_c, 0, 56, 110
2, 31484, Note_off_c, 0, 68, 100
2, 31484, Note_off_c, 0, 56, 100
2, 31488, Note_on_c, 0, 69, 110
2, 31488, Note_on_c, 0, 57, 110
2, 31868, Note_off_c, 0, 69, 100
2, 31868, Note_off_c, 0, 57, 100
2, 31872, Note_on_c, 0, 68, 110
2, 31872, Note_on_c, 0, 56, 110
2, 32060, Note_off_c, 0, 68, 100
2, 32060, Note_off_c, 0, 56, 100
2, 32064, Note_on_c, 0, 69, 110
2, 32064, Note_on_c, 0, 57, 110
2, 32444, Note_off_c, 0, 69, 100
2, 32444, Note_off_c, 0, 57, 100
2, 32448, Note_on_c, 0, 67, 110
2, 32448, Note_on_c, 0, 55, 110
2, 32636, Note_off_c, 0, 67, 100
2, 32636, Note_off_c, 0, 55, 100
2, 32640, Note_on_c, 0, 66, 110
2, 33020, Note_off_c, 0, 66, 100
2, 33792, Note_on_c, 0, 72, 90
2, 34556, Note_off_c, 0, 72, 100
2, 34560, Note_on_c, 0, 69, 90
2, 34748, Note_off_c, 0, 69, 100
2, 34752, Note_on_c, 0, 66, 90
2, 34940, Note_off_c, 0, 66, 100
2, 34944, Note_on_c, 0, 74, 90
2, 35324, Note_off_c, 0, 74, 100
2, 35328, Note_on_c, 0, 71, 90
2, 35420, Note_off_c, 0, 71, 100
2, 35424, Note_on_c, 0, 67, 90
2, 35516, Note_off_c, 0, 67, 100
2, 35520, Note_on_c, 0, 74, 90
2, 35900, Note_off_c, 0, 74, 100
2, 35904, Note_on_c, 0, 71, 90
2, 35996, Note_off_c, 0, 71, 100
2, 36000, Note_on_c, 0, 67, 90
2, 36092, Note_off_c, 0, 67, 100
2, 36096, Note_on_c, 0, 72, 90
2, 36860, Note_off_c, 0, 72, 100
2, 36864, Note_on_c, 0, 69, 90
2, 37052, Note_off_c, 0, 69, 100
2, 37056, Note_on_c, 0, 66, 90
2, 37244, Note_off_c, 0, 66, 100
2, 37248, Note_on_c, 0, 74, 105
2, 37628, Note_off_c, 0, 74, 100
2, 37632, Note_on_c, 0, 71, 90
2, 37724, Note_off_c, 0, 71, 100
2, 37728, Note_on_c, 0, 67, 90
2, 37820, Note_off_c, 0, 67, 100
2, 37824, Note_on_c, 0, 74, 107
2, 38204, Note_off_c, 0, 74, 100
2, 38208, Note_on_c, 0, 71, 90
2, 38300, Note_off_c, 0, 71, 100
2, 38304, Note_on_c, 0, 67, 90
2, 38396, Note_off_c, 0, 67, 100
2, 38400, Note_on_c, 0, 72, 90
2, 39164, Note_off_c, 0, 72, 100
2, 39168, Note_on_c, 0, 69, 90
2, 39356, Note_off_c, 0, 69, 100
2, 39360, Note_on_c, 0, 66, 90
2, 39548, Note_off_c, 0, 66, 100
2, 39552, Note_on_c, 0, 74, 80
2, 39740, Note_off_c, 0, 74, 100
2, 39744, Note_on_c, 0, 71, 80
2, 39932, Note_off_c, 0, 71, 100
2, 39936, Note_on_c, 0, 66, 80
2, 40124, Note_off_c, 0, 66, 100
2, 40128, Note_on_c, 0, 67, 80
2, 40316, Note_off_c, 0, 67, 100
2, 40320, Note_on_c, 0, 71, 80
2, 40508, Note_off_c, 0, 71, 100
2, 40512, Note_on_c, 0, 63, 80
2, 40700, Note_off_c, 0, 63, 100
2, 40704, Note_on_c, 0, 64, 80
2, 40892, Note_off_c, 0, 64, 100
2, 40896, Note_on_c, 0, 67, 80
2, 41084, Note_off_c, 0, 67, 100
2, 41088, Note_on_c, 0, 59, 80
2, 41276, Note_off_c, 0, 59, 100
2, 41280, Note_on_c, 0, 60, 80
2, 41468, Note_off_c, 0, 60, 100
2, 41472, Note_on_c, 0, 64, 80
2, 41660, Note_off_c, 0, 64, 100
2, 41664, Note_on_c, 0, 56, 80
2, 41852, Note_off_c, 0, 56, 100
2, 41856, Note_on_c, 0, 57, 80
2, 42044, Note_off_c, 0, 57, 100
2, 42048, Note_on_c, 0, 60, 80
2, 42236, Note_off_c, 0, 60, 100
2, 42240, Note_on_c, 0, 59, 80
2, 42428, Note_off_c, 0, 59, 100
2, 42432, Note_on_c, 0, 57, 80
2, 42620, Note_off_c, 0, 57, 100
2, 42624, Note_on_c, 0, 59, 80
2, 42812, Note_off_c, 0, 59, 100
2, 42816, Note_on_c, 0, 60, 80
2, 43004, Note_off_c, 0, 60, 100
2, 43008, Note_on_c, 0, 62, 80
2, 43196, Note_off_c, 0, 62, 100
2, 43200, Note_on_c, 0, 61, 80
2, 43388, Note_off_c, 0, 61, 100
2, 43392, Note_on_c, 0, 62, 80
2, 43580, Note_off_c, 0, 62, 100
2, 43584, Note_on_c, 0, 50, 80
2, 43772, Note_off_c, 0, 50, 100
2, 43776, Note_on_c, 0, 52, 80
2, 43964, Note_off_c, 0, 52, 100
2, 43968, Note_on_c, 0, 54, 80
2, 44156, Note_off_c, 0, 54, 100
2, 44256, Note_on_c, 0, 55, 80
2, 44348, Note_off_c, 0, 55, 100
2, 44352, Note_on_c, 0, 59, 80
2, 44444, Note_off_c, 0, 59, 100
2, 44448, Note_on_c, 0, 62, 80
2, 44540, Note_off_c, 0, 62, 100
2, 44544, Note_on_c, 0, 66, 80
2, 44636, Note_off_c, 0, 66, 100
2, 44640, Note_on_c, 0, 67, 80
2, 44732, Note_off_c, 0, 67, 100
2, 44736, Note_on_c, 0, 71, 80
2, 44828, Note_off_c, 0, 71, 100
2, 44832, Note_on_c, 0, 74, 80
2, 44924, Note_off_c, 0, 74, 100
2, 44928, Note_on_c, 0, 78, 80
2, 45020, Note_off_c, 0, 78, 100
2, 45024, Note_on_c, 0, 79, 80
2, 45116, Note_off_c, 0, 79, 100
2, 45120, Note_on_c, 0, 81, 80
2, 45212, Note_off_c, 0, 81, 100
2, 45216, Note_on_c, 0, 83, 80
2, 45308, Note_off_c, 0, 83, 100
2, 45312, Note_on_c, 0, 84, 80
2, 46076, Note_off_c, 0, 84, 100
2, 46080, Note_on_c, 0, 81, 80
2, 46268, Note_off_c, 0, 81, 100
2, 46272, Note_on_c, 0, 78, 80
2, 46460, Note_off_c, 0, 78, 100
2, 46464, Note_on_c, 0, 86, 80
2, 46844, Note_off_c, 0, 86, 100
2, 46848, Note_on_c, 0, 83, 80
2, 46940, Note_off_c, 0, 83, 100
2, 46944, Note_on_c, 0, 79, 80
2, 47036, Note_off_c, 0, 79, 100
2, 47040, Note_on_c, 0, 86, 80
2, 47420, Note_off_c, 0, 86, 100
2, 47424, Note_on_c, 0, 83, 80
2, 47516, Note_off_c, 0, 83, 100
2, 47520, Note_on_c, 0, 79, 80
2, 47612, Note_off_c, 0, 79, 100
2, 47616, Note_on_c, 0, 84, 80
2, 48380, Note_off_c, 0, 84, 100
2, 48384, Note_on_c, 0, 81, 80
2, 48572, Note_off_c, 0, 81, 100
2, 48576, Note_on_c, 0, 78, 80
2, 48764, Note_off_c, 0, 78, 100
2, 48768, Note_on_c, 0, 86, 80
2, 49148, Note_off_c, 0, 86, 100
2, 49152, Note_on_c, 0, 82, 80
2, 49244, Note_off_c, 0, 82, 100
2, 49248, Note_on_c, 0, 79, 80
2, 49340, Note_off_c, 0, 79, 100
2, 49344, Note_on_c, 0, 86, 80
2, 49724, Note_off_c, 0, 86, 100
2, 49728, Note_on_c, 0, 82, 80
2, 49820, Note_off_c, 0, 82, 100
2, 49824, Note_on_c, 0, 79, 80
2, 49916, Note_off_c, 0, 79, 100
2, 49920, Note_on_c, 0, 84, 80
2, 50684, Note_off_c, 0, 84, 100
2, 50688, Note_on_c, 0, 81, 80
2, 50876, Note_off_c, 0, 81, 100
2, 50880, Note_on_c, 0, 78, 80
2, 51068, Note_off_c, 0, 78, 100
2, 51072, Note_on_c, 0, 86, 80
2, 51260, Note_off_c, 0, 86, 100
2, 51264, Note_on_c, 0, 82, 80
2, 51452, Note_off_c, 0, 82, 100
2, 51456, Note_on_c, 0, 78, 80
2, 51644, Note_off_c, 0, 78, 100
2, 51648, Note_on_c, 0, 79, 80
2, 51836, Note_off_c, 0, 79, 100
2, 51840, Note_on_c, 0, 82, 80
2, 52028, Note_off_c, 0, 82, 100
2, 52032, Note_on_c, 0, 74, 80
2, 52220, Note_off_c, 0, 74, 100
2, 52224, Note_on_c, 0, 75, 80
2, 52412, Note_off_c, 0, 75, 100
2, 52416, Note_on_c, 0, 79, 80
2, 52604, Note_off_c, 0, 79, 100
2, 52608, Note_on_c, 0, 71, 80
2, 52796, Note_off_c, 0, 71, 100
2, 52800, Note_on_c, 0, 72, 80
2, 52988, Note_off_c, 0, 72, 100
2, 52992, Note_on_c, 0, 75, 80
2, 53180, Note_off_c, 0, 75, 100
2, 53184, Note_on_c, 0, 67, 80
2, 53372, Note_off_c, 0, 67, 100
2, 53376, Note_on_c, 0, 68, 80
2, 53564, Note_off_c, 0, 68, 100
2, 53568, Note_on_c, 0, 84, 80
2, 53756, Note_off_c, 0, 84, 100
2, 53760, Note_on_c, 0, 76, 80
2, 53948, Note_off_c, 0, 76, 100
2, 53952, Note_on_c, 0, 77, 80
2, 54140, Note_off_c, 0, 77, 100
2, 54144, Note_on_c, 0, 80, 80
2, 54332, Note_off_c, 0, 80, 100
2, 54336, Note_on_c, 0, 73, 80
2, 54524, Note_off_c, 0, 73, 100
2, 54528, Note_on_c, 0, 74, 80
2, 54716, Note_off_c, 0, 74, 100
2, 54720, Note_on_c, 0, 77, 80
2, 54908, Note_off_c, 0, 77, 100
2, 54912, Note_on_c, 0, 69, 80
2, 55100, Note_off_c, 0, 69, 100
2, 55104, Note_on_c, 0, 70, 80
2, 55292, Note_off_c, 0, 70, 100
2, 55296, Note_on_c, 0, 74, 80
2, 55484, Note_off_c, 0, 74, 100
2, 55488, Note_on_c, 0, 66, 80
2, 55676, Note_off_c, 0, 66, 100
2, 55680, Note_on_c, 0, 67, 80
2, 55868, Note_off_c, 0, 67, 100
2, 55872, Note_on_c, 0, 82, 80
2, 56060, Note_off_c, 0, 82, 100
2, 56064, Note_on_c, 0, 74, 80
2, 56252, Note_off_c, 0, 74, 100
2, 56256, Note_on_c, 0, 75, 80
2, 56444, Note_off_c, 0, 75, 100
2, 56448, Note_on_c, 0, 79, 80
2, 56636, Note_off_c, 0, 79, 100
2, 56640, Note_on_c, 0, 71, 80
2, 56828, Note_off_c, 0, 71, 100
2, 56832, Note_on_c, 0, 72, 80
2, 57020, Note_off_c, 0, 72, 100
2, 57024, Note_on_c, 0, 75, 80
2, 57212, Note_off_c, 0, 75, 100
2, 57216, Note_on_c, 0, 67, 80
2, 57404, Note_off_c, 0, 67, 100
2, 57408, Note_on_c, 0, 68, 80
2, 57596, Note_off_c, 0, 68, 100
2, 57600, Note_on_c, 0, 72, 80
2, 57788, Note_off_c, 0, 72, 100
2, 57792, Note_on_c, 0, 64, 80
2, 57980, Note_off_c, 0, 64, 100
2, 57984, Note_on_c, 0, 65, 80
2, 58172, Note_off_c, 0, 65, 100
2, 58176, Note_on_c, 0, 68, 80
2, 58364, Note_off_c, 0, 68, 100
2, 58368, Note_on_c, 0, 61, 80
2, 58556, Note_off_c, 0, 61, 100
2, 58560, Note_on_c, 0, 62, 80
2, 58748, Note_off_c, 0, 62, 100
2, 58752, Note_on_c, 0, 65, 80
2, 58940, Note_off_c, 0, 65, 100
2, 58944, Note_on_c, 0, 58, 80
2, 59132, Note_off_c, 0, 58, 100
2, 59136, Note_on_c, 0, 59, 80
2, 59324, Note_off_c, 0, 59, 100
2, 59328, Note_on_c, 0, 62, 80
2, 59516, Note_off_c, 0, 62, 100
2, 59520, Note_on_c, 0, 54, 80
2, 59708, Note_off_c, 0, 54, 100
2, 59712, Note_on_c, 0, 55, 80
2, 59900, Note_off_c, 0, 55, 100
2, 59904, Note_on_c, 0, 59, 80
2, 60092, Note_off_c, 0, 59, 100
2, 60096, Note_on_c, 0, 50, 80
2, 60284, Note_off_c, 0, 50, 100
2, 60288, Note_on_c, 0, 51, 100
2, 60476, Note_off_c, 0, 51, 100
2, 60480, Note_on_c, 0, 55, 100
2, 60668, Note_off_c, 0, 55, 100
2, 60672, Note_on_c, 0, 47, 100
2, 60860, Note_off_c, 0, 47, 100
2, 60864, Note_on_c, 0, 48, 100
2, 61052, Note_off_c, 0, 48, 100
2, 61056, Note_on_c, 0, 51, 100
2, 61244, Note_off_c, 0, 51, 100
2, 61248, Note_on_c, 0, 43, 100
2, 61436, Note_off_c, 0, 43, 100
2, 61440, Note_on_c, 0, 44, 100
2, 61628, Note_off_c, 0, 44, 100
2, 61632, Note_on_c, 0, 48, 100
2, 61820, Note_off_c, 0, 48, 100
2, 61824, Note_on_c, 0, 43, 100
2, 62012, Note_off_c, 0, 43, 100
2, 62016, Note_on_c, 0, 44, 100
2, 62204, Note_off_c, 0, 44, 100
2, 62208, Note_on_c, 0, 48, 100
2, 62396, Note_off_c, 0, 48, 100
2, 62400, Note_on_c, 0, 42, 100
2, 62588, Note_off_c, 0, 42, 100
2, 62592, Note_on_c, 0, 43, 80
2, 62780, Note_off_c, 0, 43, 100
2, 62784, Note_on_c, 0, 47, 80
2, 62972, Note_off_c, 0, 47, 100
2, 62976, Note_on_c, 0, 50, 80
2, 63164, Note_off_c, 0, 50, 100
2, 63168, Note_on_c, 0, 55, 80
2, 63356, Note_off_c, 0, 55, 100
2, 63360, Note_on_c, 0, 57, 80
2, 63548, Note_off_c, 0, 57, 100
2, 63552, Note_on_c, 0, 59, 80
2, 63740, Note_off_c, 0, 59, 100
2, 63744, Note_on_c, 0, 60, 80
2, 63932, Note_off_c, 0, 60, 100
2, 63936, Note_on_c, 0, 55, 80
2, 64124, Note_off_c, 0, 55, 100
2, 64128, Note_on_c, 0, 62, 80
2, 64316, Note_off_c, 0, 62, 100
2, 64320, Note_on_c, 0, 63, 80
2, 64508, Note_off_c, 0, 63, 100
2, 64512, Note_on_c, 0, 55, 80
2, 64700, Note_off_c, 0, 55, 100
2, 64704, Note_on_c, 0, 66, 80
2, 64892, Note_off_c, 0, 66, 100
2, 64896, Note_on_c, 0, 67, 80
2, 64896, Note_on_c, 0, 55, 104
2, 65468, Note_off_c, 0, 67, 100
2, 65472, Note_on_c, 0, 65, 80
2, 66044, Note_off_c, 0, 65, 100
2, 66048, Note_on_c, 0, 63, 80
2, 66620, Note_off_c, 0, 63, 100
2, 66624, Note_on_c, 0, 60, 80
2, 67196, Note_off_c, 0, 55, 100
2, 67196, Note_off_c, 0, 60, 100
2, 67392, Note_on_c, 0, 59, 80
2, 67580, Note_off_c, 0, 59, 100
2, 67584, Note_on_c, 0, 62, 80
2, 67772, Note_off_c, 0, 62, 100
2, 67776, Note_on_c, 0, 67, 80
2, 67964, Note_off_c, 0, 67, 100
2, 67968, Note_on_c, 0, 69, 80
2, 68156, Note_off_c, 0, 69, 100
2, 68160, Note_on_c, 0, 71, 80
2, 68348, Note_off_c, 0, 71, 100
2, 68352, Note_on_c, 0, 72, 80
2, 68540, Note_off_c, 0, 72, 100
2, 68544, Note_on_c, 0, 67, 80
2, 68732, Note_off_c, 0, 67, 100
2, 68736, Note_on_c, 0, 74, 80
2, 68924, Note_off_c, 0, 74, 100
2, 68928, Note_on_c, 0, 75, 80
2, 69116, Note_off_c, 0, 75, 100
2, 69120, Note_on_c, 0, 67, 80
2, 69308, Note_off_c, 0, 67, 100
2, 69312, Note_on_c, 0, 78, 80
2, 69500, Note_off_c, 0, 78, 100
2, 69504, Note_on_c, 0, 79, 80
2, 69504, Note_on_c, 0, 67, 103
2, 70076, Note_off_c, 0, 79, 100
2, 70080, Note_on_c, 0, 77, 80
2, 70652, Note_off_c, 0, 77, 100
2, 70656, Note_on_c, 0, 75, 80
2, 71228, Note_off_c, 0, 75, 100
2, 71232, Note_on_c, 0, 72, 80
2, 71804, Note_off_c, 0, 67, 100
2, 71804, Note_off_c, 0, 72, 100
2, 71808, Note_on_c, 0, 71, 80
2, 71996, Note_off_c, 0, 71, 100
2, 72000, Note_on_c, 0, 66, 80
2, 72188, Note_off_c, 0, 66, 100
2, 72192, Note_on_c, 0, 67, 80
2, 72380, Note_off_c, 0, 67, 100
2, 72384, Note_on_c, 0, 69, 80
2, 72572, Note_off_c, 0, 69, 100
2, 72576, Note_on_c, 0, 71, 80
2, 72764, Note_off_c, 0, 71, 100
2, 72768, Note_on_c, 0, 72, 80
2, 72956, Note_off_c, 0, 72, 100
2, 72960, Note_on_c, 0, 74, 80
2, 73148, Note_off_c, 0, 74, 100
2, 73152, Note_on_c, 0, 76, 80
2, 73340, Note_off_c, 0, 76, 100
2, 73344, Note_on_c, 0, 78, 80
2, 73532, Note_off_c, 0, 78, 100
2, 73536, Note_on_c, 0, 79, 80
2, 73724, Note_off_c, 0, 79, 100
2, 73728, Note_on_c, 0, 81, 80
2, 73916, Note_off_c, 0, 81, 100
2, 73920, Note_on_c, 0, 83, 80
2, 74108, Note_off_c, 0, 83, 100
2, 74112, Note_on_c, 0, 71, 80
2, 74300, Note_off_c, 0, 71, 100
2, 74304, Note_on_c, 0, 69, 80
2, 74492, Note_off_c, 0, 69, 100
2, 74496, Note_on_c, 0, 71, 80
2, 74684, Note_off_c, 0, 71, 100
2, 74688, Note_on_c, 0, 72, 80
2, 74876, Note_off_c, 0, 72, 100
2, 74880, Note_on_c, 0, 74, 80
2, 75068, Note_off_c, 0, 74, 100
2, 75072, Note_on_c, 0, 76, 80
2, 75260, Note_off_c, 0, 76, 100
2, 75264, Note_on_c, 0, 78, 80
2, 75452, Note_off_c, 0, 78, 100
2, 75456, Note_on_c, 0, 79, 80
2, 75644, Note_off_c, 0, 79, 100
2, 75648, Note_on_c, 0, 81, 80
2, 75836, Note_off_c, 0, 81, 100
2, 75840, Note_on_c, 0, 83, 80
2, 76028, Note_off_c, 0, 83, 100
2, 76032, Note_on_c, 0, 84, 80
2, 76220, Note_off_c, 0, 84, 100
2, 76224, Note_on_c, 0, 86, 80
2, 76412, Note_off_c, 0, 86, 100
2, 76800, Note_on_c, 0, 89, 70
2, 76988, Note_off_c, 0, 89, 100
2, 76992, Note_on_c, 0, 88, 70
2, 77180, Note_off_c, 0, 88, 100
2, 77184, Note_on_c, 0, 86, 70
2, 77372, Note_off_c, 0, 86, 100
2, 77376, Note_on_c, 0, 84, 70
2, 77564, Note_off_c, 0, 84, 100
2, 77568, Note_on_c, 0, 83, 70
2, 77756, Note_off_c, 0, 83, 100
2, 77760, Note_on_c, 0, 81, 70
2, 77948, Note_off_c, 0, 81, 100
2, 77952, Note_on_c, 0, 79, 70
2, 78140, Note_off_c, 0, 79, 100
2, 78144, Note_on_c, 0, 77, 70
2, 78332, Note_off_c, 0, 77, 100
2, 78336, Note_on_c, 0, 76, 70
2, 78524, Note_off_c, 0, 76, 100
2, 78528, Note_on_c, 0, 74, 70
2, 78716, Note_off_c, 0, 74, 100
2, 78720, Note_on_c, 0, 72, 80
2, 78720, Note_on_c, 0, 67, 80
2, 78720, Note_on_c, 0, 64, 80
2, 78908, Note_off_c, 0, 72, 100
2, 78908, Note_off_c, 0, 67, 100
2, 78908, Note_off_c, 0, 64, 100
2, 78912, Note_on_c, 0, 71, 80
2, 78912, Note_on_c, 0, 65, 80
2, 78912, Note_on_c, 0, 62, 80
2, 79100, Note_off_c, 0, 71, 100
2, 79100, Note_off_c, 0, 65, 100
2, 79100, Note_off_c, 0, 62, 100
2, 79104, Note_on_c, 0, 72, 80
2, 79104, Note_on_c, 0, 67, 80
2, 79104, Note_on_c, 0, 64, 80
2, 79292, Note_off_c, 0, 72, 100
2, 79292, Note_off_c, 0, 67, 100
2, 79292, Note_off_c, 0, 64, 100
2, 79296, Note_on_c, 0, 74, 80
2, 79296, Note_on_c, 0, 69, 80
2, 79296, Note_on_c, 0, 65, 80
2, 79484, Note_off_c, 0, 74, 100
2, 79484, Note_off_c, 0, 69, 100
2, 79484, Note_off_c, 0, 65, 100
2, 79488, Note_on_c, 0, 76, 80
2, 79488, Note_on_c, 0, 71, 80
2, 79488, Note_on_c, 0, 67, 80
2, 79676, Note_off_c, 0, 76, 100
2, 79676, Note_off_c, 0, 71, 100
2, 79676, Note_off_c, 0, 67, 100
2, 79680, Note_on_c, 0, 77, 80
2, 79680, Note_on_c, 0, 72, 80
2, 79680, Note_on_c, 0, 69, 80
2, 79868, Note_off_c, 0, 77, 100
2, 79868, Note_off_c, 0, 72, 100
2, 79868, Note_off_c, 0, 69, 100
2, 79872, Note_on_c, 0, 79, 80
2, 79872, Note_on_c, 0, 74, 80
2, 79872, Note_on_c, 0, 71, 80
2, 80060, Note_off_c, 0, 79, 100
2, 80060, Note_off_c, 0, 74, 100
2, 80060, Note_off_c, 0, 71, 100
2, 80064, Note_on_c, 0, 81, 80
2, 80064, Note_on_c, 0, 76, 80
2, 80064, Note_on_c, 0, 72, 80
2, 80252, Note_off_c, 0, 81, 100
2, 80252, Note_off_c, 0, 76, 100
2, 80252, Note_off_c, 0, 72, 100
2, 80256, Note_on_c, 0, 83, 80
2, 80256, Note_on_c, 0, 77, 80
2, 80256, Note_on_c, 0, 74, 80
2, 80444, Note_off_c, 0, 83, 100
2, 80444, Note_off_c, 0, 77, 100
2, 80444, Note_off_c, 0, 74, 100
2, 80448, Note_on_c, 0, 84, 80
2, 80448, Note_on_c, 0, 79, 80
2, 80448, Note_on_c, 0, 76, 80
2, 80636, Note_off_c, 0, 84, 100
2, 80636, Note_off_c, 0, 79, 100
2, 80636, Note_off_c, 0, 76, 100
2, 80640, Note_on_c, 0, 86, 80
2, 80640, Note_on_c, 0, 81, 80
2, 80640, Note_on_c, 0, 77, 80
2, 80828, Note_off_c, 0, 86, 100
2, 80828, Note_off_c, 0, 81, 100
2, 80828, Note_off_c, 0, 77, 100
2, 80832, Note_on_c, 0, 88, 80
2, 80832, Note_on_c, 0, 84, 80
2, 81020, Note_off_c, 0, 88, 100
2, 81020, Note_off_c, 0, 84, 100
2, 81024, Note_on_c, 0, 84, 80
2, 81024, Note_on_c, 0, 89, 80
2, 81404, Note_off_c, 0, 84, 100
2, 81404, Note_off_c, 0, 89, 100
2, 81408, Note_on_c, 0, 88, 80
2, 81408, Note_on_c, 0, 84, 80
2, 81596, Note_off_c, 0, 88, 100
2, 81596, Note_off_c, 0, 84, 100
2, 81600, Note_on_c, 0, 84, 80
2, 81600, Note_on_c, 0, 89, 80
2, 81980, Note_off_c, 0, 84, 100
2, 81980, Note_off_c, 0, 89, 100
2, 81984, Note_on_c, 0, 88, 80
2, 81984, Note_on_c, 0, 84, 80
2, 82172, Note_off_c, 0, 88, 100
2, 82172, Note_off_c, 0, 84, 100
2, 82176, Note_on_c, 0, 86, 80
2, 82176, Note_on_c, 0, 84, 80
2, 82556, Note_off_c, 0, 86, 100
2, 82556, Note_off_c, 0, 84, 100
2, 83136, Note_on_c, 0, 62, 80
2, 83324, Note_off_c, 0, 62, 100
2, 83328, Note_on_c, 0, 67, 80
2, 83328, Note_on_c, 0, 62, 80
2, 83328, Note_on_c, 0, 59, 80
2, 83516, Note_off_c, 0, 67, 100
2, 83516, Note_off_c, 0, 62, 100
2, 83516, Note_off_c, 0, 59, 100
2, 83520, Note_on_c, 0, 66, 80
2, 83520, Note_on_c, 0, 60, 80
2, 83520, Note_on_c, 0, 57, 80
2, 83708, Note_off_c, 0, 66, 100
2, 83708, Note_off_c, 0, 60, 100
2, 83708, Note_off_c, 0, 57, 100
2, 83712, Note_on_c, 0, 67, 80
2, 83712, Note_on_c, 0, 62, 80
2, 83712, Note_on_c, 0, 59, 80
2, 83900, Note_off_c, 0, 67, 100
2, 83900, Note_off_c, 0, 62, 100
2, 83900, Note_off_c, 0, 59, 100
2, 83904, Note_on_c, 0, 69, 80
2, 83904, Note_on_c, 0, 64, 80
2, 83904, Note_on_c, 0, 60, 80
2, 84092, Note_off_c, 0, 69, 100
2, 84092, Note_off_c, 0, 64, 100
2, 84092, Note_off_c, 0, 60, 100
2, 84096, Note_on_c, 0, 71, 80
2, 84096, Note_on_c, 0, 65, 80
2, 84096, Note_on_c, 0, 62, 80
2, 84284, Note_off_c, 0, 71, 100
2, 84284, Note_off_c, 0, 65, 100
2, 84284, Note_off_c, 0, 62, 100
2, 84288, Note_on_c, 0, 72, 80
2, 84288, Note_on_c, 0, 67, 80
2, 84288, Note_on_c, 0, 64, 80
2, 84476, Note_off_c, 0, 72, 100
2, 84476, Note_off_c, 0, 67, 100
2, 84476, Note_off_c, 0, 64, 100
2, 84480, Note_on_c, 0, 74, 80
2, 84480, Note_on_c, 0, 69, 80
2, 84480, Note_on_c, 0, 65, 80
2, 84668, Note_off_c, 0, 74, 100
2, 84668, Note_off_c, 0, 69, 100
2, 84668, Note_off_c, 0, 65, 100
2, 84672, Note_on_c, 0, 76, 80
2, 84672, Note_on_c, 0, 71, 80
2, 84672, Note_on_c, 0, 67, 80
2, 84860, Note_off_c, 0, 76, 100
2, 84860, Note_off_c, 0, 71, 100
2, 84860, Note_off_c, 0, 67, 100
2, 84864, Note_on_c, 0, 77, 80
2, 84864, Note_on_c, 0, 72, 80
2, 84864, Note_on_c, 0, 69, 80
2, 85052, Note_off_c, 0, 77, 100
2, 85052, Note_off_c, 0, 72, 100
2, 85052, Note_off_c, 0, 69, 100
2, 85056, Note_on_c, 0, 79, 80
2, 85056, Note_on_c, 0, 74, 80
2, 85056, Note_on_c, 0, 71, 80
2, 85244, Note_off_c, 0, 79, 100
2, 85244, Note_off_c, 0, 74, 100
2, 85244, Note_off_c, 0, 71, 100
2, 85248, Note_on_c, 0, 81, 80
2, 85248, Note_on_c, 0, 76, 80
2, 85248, Note_on_c, 0, 72, 80
2, 85436, Note_off_c, 0, 81, 100
2, 85436, Note_off_c, 0, 76, 100
2, 85436, Note_off_c, 0, 72, 100
2, 85440, Note_on_c, 0, 83, 80
2, 85440, Note_on_c, 0, 77, 80
2, 85440, Note_on_c, 0, 74, 80
2, 85628, Note_off_c, 0, 83, 100
2, 85628, Note_off_c, 0, 77, 100
2, 85628, Note_off_c, 0, 74, 100
2, 85632, Note_on_c, 0, 84, 80
2, 85632, Note_on_c, 0, 79, 80
2, 85632, Note_on_c, 0, 76, 80
2, 86012, Note_off_c, 0, 84, 100
2, 86012, Note_off_c, 0, 79, 100
2, 86012, Note_off_c, 0, 76, 100
2, 86016, Note_on_c, 0, 86, 80
2, 86016, Note_on_c, 0, 79, 80
2, 86016, Note_on_c, 0, 77, 80
2, 86204, Note_off_c, 0, 86, 100
2, 86204, Note_off_c, 0, 79, 100
2, 86204, Note_off_c, 0, 77, 100
2, 86208, Note_on_c, 0, 84, 80
2, 86208, Note_on_c, 0, 79, 80
2, 86208, Note_on_c, 0, 76, 80
2, 86588, Note_off_c, 0, 84, 100
2, 86588, Note_off_c, 0, 79, 100
2, 86588, Note_off_c, 0, 76, 100
2, 86592, Note_on_c, 0, 86, 80
2, 86592, Note_on_c, 0, 79, 80
2, 86592, Note_on_c, 0, 77, 80
2, 86780, Note_off_c, 0, 86, 100
2, 86780, Note_off_c, 0, 79, 100
2, 86780, Note_off_c, 0, 77, 100
2, 86784, Note_on_c, 0, 76, 80
2, 86784, Note_on_c, 0, 79, 80
2, 86784, Note_on_c, 0, 84, 80
2, 87164, Note_off_c, 0, 76, 100
2, 87164, Note_off_c, 0, 79, 100
2, 87164, Note_off_c, 0, 84, 100
2, 87936, Note_on_c, 0, 79, 110
2, 87936, Note_on_c, 0, 76, 110
2, 87936, Note_on_c, 0, 67, 110
2, 89852, Note_off_c, 0, 67, 100
2, 89852, Note_off_c, 0, 76, 100
2, 89852, Note_off_c, 0, 79, 100
2, 89856, Note_on_c, 0, 77, 110
2, 89856, Note_on_c, 0, 67, 110
2, 89856, Note_on_c, 0, 74, 110
2, 90044, Note_off_c, 0, 77, 100
2, 90044, Note_off_c, 0, 67, 100
2, 90044, Note_off_c, 0, 74, 100
2, 90048, Note_on_c, 0, 76, 110
2, 90048, Note_on_c, 0, 67, 110
2, 90048, Note_on_c, 0, 72, 110
2, 90236, Note_off_c, 0, 76, 100
2, 90236, Note_off_c, 0, 67, 100
2, 90236, Note_off_c, 0, 72, 100
2, 90240, Note_on_c, 0, 74, 110
2, 90240, Note_on_c, 0, 71, 110
2, 90240, Note_on_c, 0, 67, 110
2, 90620, Note_off_c, 0, 74, 100
2, 90620, Note_off_c, 0, 71, 100
2, 90620, Note_off_c, 0, 67, 100
2, 90624, Note_on_c, 0, 76, 110
2, 90624, Note_on_c, 0, 72, 110
2, 90624, Note_on_c, 0, 67, 110
2, 90812, Note_off_c, 0, 76, 100
2, 90812, Note_off_c, 0, 72, 100
2, 90812, Note_off_c, 0, 67, 100
2, 90816, Note_on_c, 0, 74, 110
2, 90816, Note_on_c, 0, 71, 110
2, 90816, Note_on_c, 0, 67, 110
2, 91196, Note_off_c, 0, 74, 100
2, 91196, Note_off_c, 0, 71, 100
2, 91196, Note_off_c, 0, 67, 100
2, 91200, Note_on_c, 0, 76, 110
2, 91200, Note_on_c, 0, 73, 110
2, 91200, Note_on_c, 0, 67, 110
2, 91388, Note_off_c, 0, 76, 100
2, 91388, Note_off_c, 0, 73, 100
2, 91388, Note_off_c, 0, 67, 100
2, 91392, Note_on_c, 0, 77, 110
2, 91392, Note_on_c, 0, 74, 110
2, 91392, Note_on_c, 0, 69, 110
2, 91772, Note_off_c, 0, 77, 100
2, 91772, Note_off_c, 0, 74, 100
2, 91772, Note_off_c, 0, 69, 100
2, 92544, Note_on_c, 0, 81, 120
2, 92544, Note_on_c, 0, 77, 120
2, 92544, Note_on_c, 0, 69, 120
2, 94460, Note_off_c, 0, 69, 100
2, 94460, Note_off_c, 0, 77, 100
2, 94460, Note_off_c, 0, 81, 100
2, 94464, Note_on_c, 0, 79, 100
2, 94464, Note_on_c, 0, 69, 100
2, 94464, Note_on_c, 0, 76, 100
2, 94652, Note_off_c, 0, 79, 100
2, 94652, Note_off_c, 0, 69, 100
2, 94652, Note_off_c, 0, 76, 100
2, 94656, Note_on_c, 0, 77, 100
2, 94656, Note_on_c, 0, 69, 100
2, 94656, Note_on_c, 0, 74, 100
2, 94844, Note_off_c, 0, 77, 100
2, 94844, Note_off_c, 0, 69, 100
2, 94844, Note_off_c, 0, 74, 100
2, 94848, Note_on_c, 0, 76, 90
2, 94848, Note_on_c, 0, 73, 90
2, 94848, Note_on_c, 0, 69, 90
2, 95228, Note_off_c, 0, 76, 100
2, 95228, Note_off_c, 0, 73, 100
2, 95228, Note_off_c, 0, 69, 100
2, 95232, Note_on_c, 0, 77, 87
2, 95232, Note_on_c, 0, 74, 87
2, 95232, Note_on_c, 0, 69, 87
2, 95420, Note_off_c, 0, 77, 100
2, 95420, Note_off_c, 0, 74, 100
2, 95420, Note_off_c, 0, 69, 100
2, 95424, Note_on_c, 0, 76, 86
2, 95424, Note_on_c, 0, 73, 86
2, 95424, Note_on_c, 0, 69, 86
2, 95804, Note_off_c, 0, 76, 100
2, 95804, Note_off_c, 0, 73, 100
2, 95804, Note_off_c, 0, 69, 100
2, 95808, Note_on_c, 0, 78, 82
2, 95808, Note_on_c, 0, 75, 82
2, 95808, Note_on_c, 0, 69, 82
2, 95996, Note_off_c, 0, 78, 100
2, 95996, Note_off_c, 0, 75, 100
2, 95996, Note_off_c, 0, 69, 100
2, 96000, Note_on_c, 0, 76, 81
2, 96000, Note_on_c, 0, 79, 81
2, 96000, Note_on_c, 0, 71, 81
2, 96380, Note_off_c, 0, 76, 100
2, 96380, Note_off_c, 0, 79, 100
2, 96380, Note_off_c, 0, 71, 100
2, 97152, Note_on_c, 0, 83, 100
2, 97152, Note_on_c, 0, 79, 100
2, 97152, Note_on_c, 0, 71, 100
2, 99068, Note_off_c, 0, 71, 100
2, 99068, Note_off_c, 0, 79, 100
2, 99068, Note_off_c, 0, 83, 100
2, 99072, Note_on_c, 0, 81, 100
2, 99072, Note_on_c, 0, 78, 100
2, 99072, Note_on_c, 0, 71, 100
2, 99260, Note_off_c, 0, 81, 100
2, 99260, Note_off_c, 0, 78, 100
2, 99260, Note_off_c, 0, 71, 100
2, 99264, Note_on_c, 0, 79, 100
2, 99264, Note_on_c, 0, 76, 100
2, 99264, Note_on_c, 0, 71, 100
2, 99452, Note_off_c, 0, 79, 100
2, 99452, Note_off_c, 0, 76, 100
2, 99452, Note_off_c, 0, 71, 100
2, 99648, Note_on_c, 0, 78, 100
2, 99648, Note_on_c, 0, 75, 100
2, 99836, Note_off_c, 0, 78, 100
2, 99836, Note_off_c, 0, 75, 100
2, 99840, Note_on_c, 0, 79, 100
2, 99840, Note_on_c, 0, 76, 100
2, 100028, Note_off_c, 0, 79, 100
2, 100028, Note_off_c, 0, 76, 100
2, 100224, Note_on_c, 0, 78, 100
2, 100224, Note_on_c, 0, 81, 100
2, 100412, Note_off_c, 0, 78, 100
2, 100412, Note_off_c, 0, 81, 100
2, 100416, Note_on_c, 0, 79, 100
2, 100416, Note_on_c, 0, 83, 100
2, 100604, Note_off_c, 0, 79, 100
2, 100604, Note_off_c, 0, 83, 100
2, 100800, Note_on_c, 0, 84, 100
2, 100800, Note_on_c, 0, 81, 100
2, 100988, Note_off_c, 0, 84, 100
2, 100988, Note_off_c, 0, 81, 100
2, 100992, Note_on_c, 0, 83, 100
2, 100992, Note_on_c, 0, 79, 100
2, 101180, Note_off_c, 0, 83, 100
2, 101180, Note_off_c, 0, 79, 100
2, 101184, Note_on_c, 0, 81, 100
2, 101184, Note_on_c, 0, 78, 100
2, 101372, Note_off_c, 0, 81, 100
2, 101372, Note_off_c, 0, 78, 100
2, 101376, Note_on_c, 0, 79, 100
2, 101376, Note_on_c, 0, 76, 100
2, 101564, Note_off_c, 0, 79, 100
2, 101564, Note_off_c, 0, 76, 100
2, 101568, Note_on_c, 0, 78, 100
2, 101568, Note_on_c, 0, 75, 100
2, 101756, Note_off_c, 0, 78, 100
2, 101756, Note_off_c, 0, 75, 100
2, 101952, Note_on_c, 0, 80, 100
2, 101952, Note_on_c, 0, 83, 100
2, 102140, Note_off_c, 0, 80, 100
2, 102140, Note_off_c, 0, 83, 100
2, 102144, Note_on_c, 0, 81, 100
2, 102144, Note_on_c, 0, 84, 100
2, 102332, Note_off_c, 0, 81, 100
2, 102332, Note_off_c, 0, 84, 100
2, 102528, Note_on_c, 0, 83, 100
2, 102528, Note_on_c, 0, 86, 100
2, 102716, Note_off_c, 0, 83, 100
2, 102716, Note_off_c, 0, 86, 100
2, 102720, Note_on_c, 0, 84, 100
2, 102720, Note_on_c, 0, 88, 100
2, 102908, Note_off_c, 0, 84, 100
2, 102908, Note_off_c, 0, 88, 100
2, 103104, Note_on_c, 0, 89, 100
2, 103104, Note_on_c, 0, 86, 100
2, 103292, Note_off_c, 0, 89, 100
2, 103292, Note_off_c, 0, 86, 100
2, 103296, Note_on_c, 0, 88, 100
2, 103296, Note_on_c, 0, 84, 100
2, 103484, Note_off_c, 0, 88, 100
2, 103484, Note_off_c, 0, 84, 100
2, 103488, Note_on_c, 0, 86, 100
2, 103488, Note_on_c, 0, 83, 100
2, 103676, Note_off_c, 0, 86, 100
2, 103676, Note_off_c, 0, 83, 100
2, 103680, Note_on_c, 0, 84, 100
2, 103680, Note_on_c, 0, 81, 100
2, 103868, Note_off_c, 0, 84, 100
2, 103868, Note_off_c, 0, 81, 100
2, 103872, Note_on_c, 0, 83, 100
2, 103872, Note_on_c, 0, 80, 100
2, 104060, Note_off_c, 0, 83, 100
2, 104060, Note_off_c, 0, 80, 100
2, 104256, Note_on_c, 0, 76, 100
2, 104256, Note_on_c, 0, 73, 100
2, 104444, Note_off_c, 0, 76, 100
2, 104444, Note_off_c, 0, 73, 100
2, 104448, Note_on_c, 0, 77, 100
2, 104448, Note_on_c, 0, 74, 100
2, 104636, Note_off_c, 0, 77, 100
2, 104636, Note_off_c, 0, 74, 100
2, 104832, Note_on_c, 0, 79, 100
2, 104832, Note_on_c, 0, 76, 100
2, 105020, Note_off_c, 0, 79, 100
2, 105020, Note_off_c, 0, 76, 100
2, 105024, Note_on_c, 0, 81, 100
2, 105024, Note_on_c, 0, 77, 100
2, 105212, Note_off_c, 0, 81, 100
2, 105212, Note_off_c, 0, 77, 100
2, 105408, Note_on_c, 0, 79, 100
2, 105408, Note_on_c, 0, 82, 100
2, 105596, Note_off_c, 0, 79, 100
2, 105596, Note_off_c, 0, 82, 100
2, 105600, Note_on_c, 0, 81, 100
2, 105600, Note_on_c, 0, 77, 100
2, 105788, Note_off_c, 0, 81, 100
2, 105788, Note_off_c, 0, 77, 100
2, 105792, Note_on_c, 0, 79, 100
2, 105792, Note_on_c, 0, 76, 100
2, 105980, Note_off_c, 0, 79, 100
2, 105980, Note_off_c, 0, 76, 100
2, 105984, Note_on_c, 0, 77, 100
2, 105984, Note_on_c, 0, 74, 100
2, 106172, Note_off_c, 0, 77, 100
2, 106172, Note_off_c, 0, 74, 100
2, 106176, Note_on_c, 0, 76, 100
2, 106176, Note_on_c, 0, 73, 100
2, 106364, Note_off_c, 0, 76, 100
2, 106364, Note_off_c, 0, 73, 100
2, 106560, Note_on_c, 0, 81, 100
2, 106560, Note_on_c, 0, 77, 100
2, 106748, Note_off_c, 0, 81, 100
2, 106748, Note_off_c, 0, 77, 100
2, 106752, Note_on_c, 0, 79, 100
2, 106752, Note_on_c, 0, 76, 100
2, 106940, Note_off_c, 0, 79, 100
2, 106940, Note_off_c, 0, 76, 100
2, 106944, Note_on_c, 0, 77, 100
2, 106944, Note_on_c, 0, 74, 100
2, 107132, Note_off_c, 0, 77, 100
2, 107132, Note_off_c, 0, 74, 100
2, 107136, Note_on_c, 0, 76, 100
2, 107136, Note_on_c, 0, 73, 100
2, 107324, Note_off_c, 0, 76, 100
2, 107324, Note_off_c, 0, 73, 100
2, 107328, Note_on_c, 0, 74, 100
2, 107516, Note_off_c, 0, 74, 100
2, 107712, Note_on_c, 0, 89, 100
2, 107712, Note_on_c, 0, 86, 100
2, 107900, Note_off_c, 0, 89, 100
2, 107900, Note_off_c, 0, 86, 100
2, 107904, Note_on_c, 0, 88, 100
2, 107904, Note_on_c, 0, 84, 100
2, 108092, Note_off_c, 0, 88, 100
2, 108092, Note_off_c, 0, 84, 100
2, 108096, Note_on_c, 0, 86, 100
2, 108096, Note_on_c, 0, 83, 100
2, 108284, Note_off_c, 0, 86, 100
2, 108284, Note_off_c, 0, 83, 100
2, 108288, Note_on_c, 0, 84, 100
2, 108288, Note_on_c, 0, 81, 100
2, 108476, Note_off_c, 0, 84, 100
2, 108476, Note_off_c, 0, 81, 100
2, 108480, Note_on_c, 0, 83, 100
2, 108480, Note_on_c, 0, 80, 100
2, 108668, Note_off_c, 0, 83, 100
2, 108668, Note_off_c, 0, 80, 100
2, 108864, Note_on_c, 0, 88, 100
2, 108864, Note_on_c, 0, 84, 100
2, 109052, Note_off_c, 0, 88, 100
2, 109052, Note_off_c, 0, 84, 100
2, 109056, Note_on_c, 0, 86, 100
2, 109056, Note_on_c, 0, 83, 100
2, 109244, Note_off_c, 0, 86, 100
2, 109244, Note_off_c, 0, 83, 100
2, 109248, Note_on_c, 0, 84, 100
2, 109248, Note_on_c, 0, 81, 100
2, 109436, Note_off_c, 0, 84, 100
2, 109436, Note_off_c, 0, 81, 100
2, 109440, Note_on_c, 0, 83, 100
2, 109440, Note_on_c, 0, 80, 100
2, 109628, Note_off_c, 0, 83, 100
2, 109628, Note_off_c, 0, 80, 100
2, 109632, Note_on_c, 0, 81, 100
2, 109820, Note_off_c, 0, 81, 100
2, 110016, Note_on_c, 0, 71, 100
2, 110204, Note_off_c, 0, 71, 100
2, 110208, Note_on_c, 0, 86, 100
2, 110396, Note_off_c, 0, 86, 100
2, 110592, Note_on_c, 0, 68, 100
2, 110780, Note_off_c, 0, 68, 100
2, 110784, Note_on_c, 0, 83, 100
2, 110972, Note_off_c, 0, 83, 100
2, 111168, Note_on_c, 0, 69, 100
2, 111356, Note_off_c, 0, 69, 100
2, 111360, Note_on_c, 0, 81, 100
2, 111548, Note_off_c, 0, 81, 100
2, 111744, Note_on_c, 0, 65, 100
2, 111932, Note_off_c, 0, 65, 100
2, 111936, Note_on_c, 0, 77, 100
2, 112124, Note_off_c, 0, 77, 100
2, 112320, Note_on_c, 0, 62, 100
2, 112508, Note_off_c, 0, 62, 100
2, 112512, Note_on_c, 0, 74, 100
2, 112700, Note_off_c, 0, 74, 100
2, 112896, Note_on_c, 0, 59, 100
2, 113084, Note_off_c, 0, 59, 100
2, 113088, Note_on_c, 0, 71, 100
2, 113276, Note_off_c, 0, 71, 100
2, 113472, Note_on_c, 0, 56, 100
2, 113660, Note_off_c, 0, 56, 100
2, 113664, Note_on_c, 0, 68, 100
2, 113852, Note_off_c, 0, 68, 100
2, 114048, Note_on_c, 0, 57, 100
2, 114236, Note_off_c, 0, 57, 100
2, 114240, Note_on_c, 0, 69, 100
2, 114428, Note_off_c, 0, 69, 100
2, 114624, Note_on_c, 0, 51, 100
2, 114812, Note_off_c, 0, 51, 100
2, 114816, Note_on_c, 0, 63, 100
2, 115004, Note_off_c, 0, 63, 100
2, 115200, Note_on_c, 0, 52, 100
2, 115388, Note_off_c, 0, 52, 100
2, 115392, Note_on_c, 0, 64, 100
2, 115580, Note_off_c, 0, 64, 100
2, 115776, Note_on_c, 0, 45, 80
2, 115964, Note_off_c, 0, 45, 100
2, 115968, Note_on_c, 0, 57, 79
2, 116156, Note_off_c, 0, 57, 100
2, 116352, Note_on_c, 0, 46, 77
2, 116540, Note_off_c, 0, 46, 100
2, 116544, Note_on_c, 0, 58, 76
2, 116732, Note_off_c, 0, 58, 100
2, 116928, Note_on_c, 0, 47, 74
2, 117116, Note_off_c, 0, 47, 100
2, 117120, Note_on_c, 0, 59, 73
2, 117308, Note_off_c, 0, 59, 100
2, 117504, Note_on_c, 0, 48, 71
2, 117692, Note_off_c, 0, 48, 100
2, 117696, Note_on_c, 0, 60, 71
2, 117884, Note_off_c, 0, 60, 100
2, 117888, Note_on_c, 0, 65, 80
2, 117888, Note_on_c, 0, 57, 80
2, 117888, Note_on_c, 0, 60, 80
2, 118460, Note_off_c, 0, 65, 100
2, 118460, Note_off_c, 0, 57, 100
2, 118460, Note_off_c, 0, 60, 100
2, 118464, Note_on_c, 0, 69, 80
2, 118464, Note_on_c, 0, 65, 80
2, 118464, Note_on_c, 0, 60, 80
2, 119036, Note_off_c, 0, 69, 100
2, 119036, Note_off_c, 0, 65, 100
2, 119036, Note_off_c, 0, 60, 100
2, 119040, Note_on_c, 0, 72, 80
2, 119040, Note_on_c, 0, 69, 80
2, 119040, Note_on_c, 0, 65, 80
2, 119612, Note_off_c, 0, 72, 100
2, 119612, Note_off_c, 0, 69, 100
2, 119612, Note_off_c, 0, 65, 100
2, 119616, Note_on_c, 0, 69, 80
2, 119616, Note_on_c, 0, 77, 80
2, 119616, Note_on_c, 0, 72, 80
2, 120188, Note_off_c, 0, 69, 100
2, 120188, Note_off_c, 0, 77, 100
2, 120188, Note_off_c, 0, 72, 100
2, 120192, Note_on_c, 0, 76, 80
2, 120192, Note_on_c, 0, 72, 80
2, 120192, Note_on_c, 0, 67, 80
2, 120764, Note_off_c, 0, 76, 100
2, 120764, Note_off_c, 0, 72, 100
2, 120764, Note_off_c, 0, 67, 100
2, 120768, Note_on_c, 0, 74, 80
2, 120768, Note_on_c, 0, 71, 80
2, 120768, Note_on_c, 0, 65, 80
2, 121340, Note_off_c, 0, 74, 100
2, 121340, Note_off_c, 0, 71, 100
2, 121340, Note_off_c, 0, 65, 100
2, 121344, Note_on_c, 0, 72, 80
2, 121344, Note_on_c, 0, 67, 80
2, 121344, Note_on_c, 0, 64, 80
2, 121916, Note_off_c, 0, 72, 100
2, 121916, Note_off_c, 0, 67, 100
2, 121916, Note_off_c, 0, 64, 100
2, 121920, Note_on_c, 0, 70, 80
2, 121920, Note_on_c, 0, 67, 80
2, 121920, Note_on_c, 0, 60, 80
2, 122492, Note_off_c, 0, 70, 100
2, 122492, Note_off_c, 0, 67, 100
2, 122492, Note_off_c, 0, 60, 100
2, 122496, Note_on_c, 0, 69, 80
2, 122496, Note_on_c, 0, 65, 80
2, 122496, Note_on_c, 0, 60, 80
2, 123068, Note_off_c, 0, 69, 100
2, 123068, Note_off_c, 0, 65, 100
2, 123068, Note_off_c, 0, 60, 100
2, 123072, Note_on_c, 0, 67, 80
2, 123072, Note_on_c, 0, 64, 80
2, 123072, Note_on_c, 0, 58, 80
2, 123644, Note_off_c, 0, 67, 100
2, 123644, Note_off_c, 0, 64, 100
2, 123644, Note_off_c, 0, 58, 100
2, 123648, Note_on_c, 0, 65, 80
2, 123648, Note_on_c, 0, 60, 80
2, 123648, Note_on_c, 0, 57, 80
2, 124220, Note_off_c, 0, 65, 100
2, 124220, Note_off_c, 0, 60, 100
2, 124220, Note_off_c, 0, 57, 100
2, 124224, Note_on_c, 0, 67, 80
2, 124224, Note_on_c, 0, 62, 80
2, 124224, Note_on_c, 0, 55, 80
2, 124796, Note_off_c, 0, 67, 100
2, 124796, Note_off_c, 0, 62, 100
2, 124796, Note_off_c, 0, 55, 100
2, 124800, Note_on_c, 0, 64, 80
2, 124800, Note_on_c, 0, 60, 80
2, 124800, Note_on_c, 0, 55, 80
2, 125372, Note_off_c, 0, 64, 100
2, 125372, Note_off_c, 0, 60, 100
2, 125372, Note_off_c, 0, 55, 100
2, 125376, Note_on_c, 0, 62, 80
2, 125376, Note_on_c, 0, 59, 80
2, 125376, Note_on_c, 0, 53, 80
2, 125948, Note_off_c, 0, 62, 100
2, 125948, Note_off_c, 0, 59, 100
2, 125948, Note_off_c, 0, 53, 100
2, 125952, Note_on_c, 0, 60, 80
2, 125952, Note_on_c, 0, 55, 80
2, 125952, Note_on_c, 0, 52, 80
2, 126332, Note_off_c, 0, 60, 100
2, 126332, Note_off_c, 0, 55, 100
2, 126332, Note_off_c, 0, 52, 100
2, 127296, Note_on_c, 0, 81, 80
2, 127484, Note_off_c, 0, 81, 100
2, 127488, Note_on_c, 0, 84, 80
2, 127676, Note_off_c, 0, 84, 100
2, 127872, Note_on_c, 0, 77, 80
2, 128060, Note_off_c, 0, 77, 100
2, 128064, Note_on_c, 0, 81, 80
2, 128252, Note_off_c, 0, 81, 100
2, 128448, Note_on_c, 0, 80, 80
2, 128636, Note_off_c, 0, 80, 100
2, 128640, Note_on_c, 0, 81, 80
2, 128828, Note_off_c, 0, 81, 100
2, 129024, Note_on_c, 0, 72, 80
2, 129212, Note_off_c, 0, 72, 100
2, 129216, Note_on_c, 0, 81, 80
2, 129404, Note_off_c, 0, 81, 100
2, 129600, Note_on_c, 0, 81, 80
2, 129788, Note_off_c, 0, 81, 100
2, 129792, Note_on_c, 0, 79, 80
2, 129980, Note_off_c, 0, 79, 100
2, 130176, Note_on_c, 0, 77, 80
2, 130364, Note_off_c, 0, 77, 100
2, 130368, Note_on_c, 0, 83, 80
2, 130556, Note_off_c, 0, 83, 100
2, 130752, Note_on_c, 0, 76, 80
2, 130940, Note_off_c, 0, 76, 100
2, 130944, Note_on_c, 0, 84, 80
2, 131132, Note_off_c, 0, 84, 100
2, 131328, Note_on_c, 0, 76, 80
2, 131516, Note_off_c, 0, 76, 100
2, 131520, Note_on_c, 0, 86, 80
2, 131708, Note_off_c, 0, 86, 100
2, 131904, Note_on_c, 0, 86, 80
2, 132092, Note_off_c, 0, 86, 100
2, 132096, Note_on_c, 0, 84, 80
2, 132284, Note_off_c, 0, 84, 100
2, 132480, Note_on_c, 0, 82, 80
2, 132668, Note_off_c, 0, 82, 100
2, 132672, Note_on_c, 0, 88, 80
2, 132860, Note_off_c, 0, 88, 100
2, 133056, Note_on_c, 0, 81, 80
2, 133244, Note_off_c, 0, 81, 100
2, 133248, Note_on_c, 0, 89, 80
2, 133436, Note_off_c, 0, 89, 100
2, 133632, Note_on_c, 0, 70, 80
2, 133820, Note_off_c, 0, 70, 100
2, 133824, Note_on_c, 0, 86, 80
2, 134012, Note_off_c, 0, 86, 100
2, 134208, Note_on_c, 0, 69, 80
2, 134396, Note_off_c, 0, 69, 100
2, 134400, Note_on_c, 0, 84, 80
2, 134588, Note_off_c, 0, 84, 100
2, 134784, Note_on_c, 0, 70, 80
2, 134972, Note_off_c, 0, 70, 100
2, 134976, Note_on_c, 0, 76, 80
2, 135164, Note_off_c, 0, 76, 100
2, 135168, Note_on_c, 0, 77, 80
2, 135168, Note_on_c, 0, 69, 80
2, 135548, Note_off_c, 0, 77, 100
2, 135548, Note_off_c, 0, 69, 100
2, 136896, Note_on_c, 0, 70, 100
2, 137276, Note_off_c, 0, 70, 100
2, 137280, Note_on_c, 0, 69, 100
2, 137468, Note_off_c, 0, 69, 100
2, 137472, Note_on_c, 0, 69, 100
2, 137516, Note_off_c, 0, 69, 100
2, 137520, Note_on_c, 0, 67, 100
2, 137660, Note_off_c, 0, 67, 100
2, 137664, Note_on_c, 0, 66, 100
2, 137852, Note_off_c, 0, 66, 100
2, 137856, Note_on_c, 0, 67, 100
2, 138044, Note_off_c, 0, 67, 100
2, 138048, Note_on_c, 0, 70, 100
2, 138092, Note_off_c, 0, 70, 100
2, 138096, Note_on_c, 0, 69, 100
2, 138236, Note_off_c, 0, 69, 100
2, 138240, Note_on_c, 0, 67, 100
2, 138428, Note_off_c, 0, 67, 100
2, 138432, Note_on_c, 0, 69, 100
2, 138620, Note_off_c, 0, 69, 100
2, 138624, Note_on_c, 0, 70, 100
2, 139004, Note_off_c, 0, 70, 100
2, 139200, Note_on_c, 0, 74, 100
2, 139580, Note_off_c, 0, 74, 100
2, 139584, Note_on_c, 0, 72, 100
2, 139772, Note_off_c, 0, 72, 100
2, 139776, Note_on_c, 0, 70, 100
2, 139964, Note_off_c, 0, 70, 100
2, 139968, Note_on_c, 0, 72, 100
2, 140156, Note_off_c, 0, 72, 100
2, 140160, Note_on_c, 0, 70, 100
2, 140348, Note_off_c, 0, 70, 100
2, 140352, Note_on_c, 0, 69, 100
2, 140540, Note_off_c, 0, 69, 100
2, 140544, Note_on_c, 0, 70, 100
2, 140732, Note_off_c, 0, 70, 100
2, 140736, Note_on_c, 0, 69, 100
2, 140924, Note_off_c, 0, 69, 100
2, 140928, Note_on_c, 0, 67, 100
2, 141308, Note_off_c, 0, 67, 100
2, 141504, Note_on_c, 0, 70, 100
2, 141884, Note_off_c, 0, 70, 100
2, 141888, Note_on_c, 0, 69, 100
2, 142076, Note_off_c, 0, 69, 100
2, 142080, Note_on_c, 0, 69, 100
2, 142124, Note_off_c, 0, 69, 100
2, 142128, Note_on_c, 0, 67, 100
2, 142268, Note_off_c, 0, 67, 100
2, 142272, Note_on_c, 0, 66, 100
2, 142460, Note_off_c, 0, 66, 100
2, 142464, Note_on_c, 0, 67, 100
2, 142652, Note_off_c, 0, 67, 100
2, 142656, Note_on_c, 0, 70, 100
2, 142700, Note_off_c, 0, 70, 100
2, 142704, Note_on_c, 0, 69, 100
2, 142844, Note_off_c, 0, 69, 100
2, 142848, Note_on_c, 0, 67, 100
2, 143036, Note_off_c, 0, 67, 100
2, 143040, Note_on_c, 0, 69, 100
2, 143228, Note_off_c, 0, 69, 100
2, 143232, Note_on_c, 0, 70, 100
2, 143612, Note_off_c, 0, 70, 100
2, 143808, Note_on_c, 0, 74, 100
2, 144188, Note_off_c, 0, 74, 100
2, 144192, Note_on_c, 0, 72, 100
2, 144380, Note_off_c, 0, 72, 100
2, 144384, Note_on_c, 0, 70, 100
2, 144572, Note_off_c, 0, 70, 100
2, 144576, Note_on_c, 0, 74, 97
2, 144764, Note_off_c, 0, 74, 100
2, 144768, Note_on_c, 0, 72, 93
2, 144956, Note_off_c, 0, 72, 100
2, 144960, Note_on_c, 0, 70, 89
2, 145148, Note_off_c, 0, 70, 100
2, 145152, Note_on_c, 0, 69, 85
2, 145340, Note_off_c, 0, 69, 100
2, 145344, Note_on_c, 0, 67, 81
2, 145532, Note_off_c, 0, 67, 100
2, 145536, Note_on_c, 0, 65, 80
2, 145536, Note_on_c, 0, 57, 80
2, 145536, Note_on_c, 0, 60, 80
2, 146108, Note_off_c, 0, 65, 100
2, 146108, Note_off_c, 0, 57, 100
2, 146108, Note_off_c, 0, 60, 100
2, 146112, Note_on_c, 0, 69, 80
2, 146112, Note_on_c, 0, 65, 80
2, 146112, Note_on_c, 0, 60, 80
2, 146684, Note_off_c, 0, 69, 100
2, 146684, Note_off_c, 0, 65, 100
2, 146684, Note_off_c, 0, 60, 100
2, 146688, Note_on_c, 0, 72, 80
2, 146688, Note_on_c, 0, 69, 80
2, 146688, Note_on_c, 0, 65, 80
2, 147260, Note_off_c, 0, 72, 100
2, 147260, Note_off_c, 0, 69, 100
2, 147260, Note_off_c, 0, 65, 100
2, 147264, Note_on_c, 0, 69, 80
2, 147264, Note_on_c, 0, 77, 80
2, 147264, Note_on_c, 0, 72, 80
2, 147836, Note_off_c, 0, 69, 100
2, 147836, Note_off_c, 0, 77, 100
2, 147836, Note_off_c, 0, 72, 100
2, 147840, Note_on_c, 0, 76, 80
2, 147840, Note_on_c, 0, 72, 80
2, 147840, Note_on_c, 0, 67, 80
2, 148412, Note_off_c, 0, 76, 100
2, 148412, Note_off_c, 0, 72, 100
2, 148412, Note_off_c, 0, 67, 100
2, 148416, Note_on_c, 0, 74, 80
2, 148416, Note_on_c, 0, 65, 80
2, 148416, Note_on_c, 0, 67, 80
2, 148988, Note_off_c, 0, 74, 100
2, 148988, Note_off_c, 0, 65, 100
2, 148988, Note_off_c, 0, 67, 100
2, 148992, Note_on_c, 0, 72, 80
2, 148992, Note_on_c, 0, 67, 80
2, 148992, Note_on_c, 0, 64, 80
2, 149564, Note_off_c, 0, 72, 100
2, 149564, Note_off_c, 0, 67, 100
2, 149564, Note_off_c, 0, 64, 100
2, 149568, Note_on_c, 0, 70, 80
2, 149568, Note_on_c, 0, 67, 80
2, 149568, Note_on_c, 0, 60, 80
2, 150140, Note_off_c, 0, 70, 100
2, 150140, Note_off_c, 0, 67, 100
2, 150140, Note_off_c, 0, 60, 100
2, 150144, Note_on_c, 0, 69, 80
2, 150144, Note_on_c, 0, 65, 80
2, 150144, Note_on_c, 0, 60, 80
2, 150716, Note_off_c, 0, 69, 100
2, 150716, Note_off_c, 0, 65, 100
2, 150716, Note_off_c, 0, 60, 100
2, 150720, Note_on_c, 0, 67, 80
2, 150720, Note_on_c, 0, 64, 80
2, 150720, Note_on_c, 0, 58, 80
2, 151292, Note_off_c, 0, 67, 100
2, 151292, Note_off_c, 0, 64, 100
2, 151292, Note_off_c, 0, 58, 100
2, 151296, Note_on_c, 0, 65, 80
2, 151296, Note_on_c, 0, 60, 80
2, 151296, Note_on_c, 0, 57, 80
2, 151868, Note_off_c, 0, 65, 100
2, 151868, Note_off_c, 0, 60, 100
2, 151868, Note_off_c, 0, 57, 100
2, 151872, Note_on_c, 0, 67, 80
2, 151872, Note_on_c, 0, 62, 80
2, 151872, Note_on_c, 0, 55, 80
2, 152444, Note_off_c, 0, 67, 100
2, 152444, Note_off_c, 0, 62, 100
2, 152444, Note_off_c, 0, 55, 100
2, 152448, Note_on_c, 0, 57, 80
2, 152448, Note_on_c, 0, 53, 80
2, 152448, Note_on_c, 0, 60, 80
2, 153020, Note_off_c, 0, 57, 100
2, 153020, Note_off_c, 0, 53, 100
2, 153020, Note_off_c, 0, 60, 100
2, 153024, Note_on_c, 0, 64, 80
2, 153024, Note_on_c, 0, 58, 80
2, 153024, Note_on_c, 0, 55, 80
2, 153024, Note_on_c, 0, 60, 80
2, 153596, Note_off_c, 0, 64, 100
2, 153596, Note_off_c, 0, 58, 100
2, 153596, Note_off_c, 0, 55, 100
2, 153596, Note_off_c, 0, 60, 100
2, 153600, Note_on_c, 0, 60, 80
2, 153600, Note_on_c, 0, 65, 80
2, 153600, Note_on_c, 0, 57, 80
2, 153980, Note_off_c, 0, 60, 100
2, 153980, Note_off_c, 0, 65, 100
2, 153980, Note_off_c, 0, 57, 100
2, 155328, Note_on_c, 0, 70, 100
2, 155708, Note_off_c, 0, 70, 100
2, 155712, Note_on_c, 0, 69, 100
2, 155900, Note_off_c, 0, 69, 100
2, 155904, Note_on_c, 0, 69, 100
2, 155948, Note_off_c, 0, 69, 100
2, 155952, Note_on_c, 0, 67, 100
2, 156092, Note_off_c, 0, 67, 100
2, 156096, Note_on_c, 0, 66, 100
2, 156284, Note_off_c, 0, 66, 100
2, 156288, Note_on_c, 0, 67, 100
2, 156476, Note_off_c, 0, 67, 100
2, 156480, Note_on_c, 0, 70, 100
2, 156524, Note_off_c, 0, 70, 100
2, 156528, Note_on_c, 0, 69, 100
2, 156668, Note_off_c, 0, 69, 100
2, 156672, Note_on_c, 0, 67, 100
2, 156860, Note_off_c, 0, 67, 100
2, 156864, Note_on_c, 0, 69, 100
2, 157052, Note_off_c, 0, 69, 100
2, 157056, Note_on_c, 0, 70, 100
2, 157436, Note_off_c, 0, 70, 100
2, 157632, Note_on_c, 0, 74, 100
2, 158012, Note_off_c, 0, 74, 100
2, 158016, Note_on_c, 0, 72, 100
2, 158204, Note_off_c, 0, 72, 100
2, 158208, Note_on_c, 0, 70, 100
2, 158396, Note_off_c, 0, 70, 100
2, 158400, Note_on_c, 0, 72, 100
2, 158588, Note_off_c, 0, 72, 100
2, 158592, Note_on_c, 0, 70, 100
2, 158780, Note_off_c, 0, 70, 100
2, 158784, Note_on_c, 0, 69, 100
2, 158972, Note_off_c, 0, 69, 100
2, 158976, Note_on_c, 0, 70, 100
2, 159164, Note_off_c, 0, 70, 100
2, 159168, Note_on_c, 0, 69, 100
2, 159356, Note_off_c, 0, 69, 100
2, 159360, Note_on_c, 0, 67, 100
2, 159740, Note_off_c, 0, 67, 100
2, 159936, Note_on_c, 0, 70, 100
2, 160316, Note_off_c, 0, 70, 100
2, 160320, Note_on_c, 0, 69, 100
2, 160508, Note_off_c, 0, 69, 100
2, 160512, Note_on_c, 0, 69, 100
2, 160556, Note_off_c, 0, 69, 100
2, 160560, Note_on_c, 0, 67, 100
2, 160700, Note_off_c, 0, 67, 100
2, 160704, Note_on_c, 0, 66, 100
2, 160892, Note_off_c, 0, 66, 100
2, 160896, Note_on_c, 0, 67, 100
2, 161084, Note_off_c, 0, 67, 100
2, 161088, Note_on_c, 0, 70, 100
2, 161132, Note_off_c, 0, 70, 100
2, 161136, Note_on_c, 0, 69, 100
2, 161276, Note_off_c, 0, 69, 100
2, 161280, Note_on_c, 0, 67, 100
2, 161468, Note_off_c, 0, 67, 100
2, 161472, Note_on_c, 0, 69, 100
2, 161660, Note_off_c, 0, 69, 100
2, 161664, Note_on_c, 0, 70, 100
2, 162044, Note_off_c, 0, 70, 100
2, 162240, Note_on_c, 0, 74, 100
2, 162620, Note_off_c, 0, 74, 100
2, 162624, Note_on_c, 0, 72, 100
2, 162812, Note_off_c, 0, 72, 100
2, 162816, Note_on_c, 0, 70, 100
2, 163004, Note_off_c, 0, 70, 100
2, 163008, Note_on_c, 0, 74, 97
2, 163196, Note_off_c, 0, 74, 100
2, 163200, Note_on_c, 0, 72, 93
2, 163388, Note_off_c, 0, 72, 100
2, 163392, Note_on_c, 0, 70, 89
2, 163580, Note_off_c, 0, 70, 100
2, 163584, Note_on_c, 0, 69, 85
2, 163772, Note_off_c, 0, 69, 100
2, 163776, Note_on_c, 0, 67, 81
2, 163964, Note_off_c, 0, 67, 100
2, 163968, Note_on_c, 0, 65, 80
2, 163968, Note_on_c, 0, 57, 80
2, 163968, Note_on_c, 0, 60, 80
2, 164540, Note_off_c, 0, 65, 100
2, 164540, Note_off_c, 0, 57, 100
2, 164540, Note_off_c, 0, 60, 100
2, 164544, Note_on_c, 0, 69, 80
2, 164544, Note_on_c, 0, 65, 80
2, 164544, Note_on_c, 0, 60, 80
2, 165116, Note_off_c, 0, 69, 100
2, 165116, Note_off_c, 0, 65, 100
2, 165116, Note_off_c, 0, 60, 100
2, 165120, Note_on_c, 0, 72, 80
2, 165120, Note_on_c, 0, 69, 80
2, 165120, Note_on_c, 0, 65, 80
2, 165692, Note_off_c, 0, 72, 100
2, 165692, Note_off_c, 0, 69, 100
2, 165692, Note_off_c, 0, 65, 100
2, 165696, Note_on_c, 0, 69, 80
2, 165696, Note_on_c, 0, 77, 80
2, 165696, Note_on_c, 0, 72, 80
2, 166268, Note_off_c, 0, 69, 100
2, 166268, Note_off_c, 0, 77, 100
2, 166268, Note_off_c, 0, 72, 100
2, 166272, Note_on_c, 0, 76, 80
2, 166272, Note_on_c, 0, 72, 80
2, 166272, Note_on_c, 0, 67, 80
2, 166844, Note_off_c, 0, 76, 100
2, 166844, Note_off_c, 0, 72, 100
2, 166844, Note_off_c, 0, 67, 100
2, 166848, Note_on_c, 0, 74, 80
2, 166848, Note_on_c, 0, 65, 80
2, 166848, Note_on_c, 0, 67, 80
2, 167420, Note_off_c, 0, 74, 100
2, 167420, Note_off_c, 0, 65, 100
2, 167420, Note_off_c, 0, 67, 100
2, 167424, Note_on_c, 0, 72, 80
2, 167424, Note_on_c, 0, 67, 80
2, 167424, Note_on_c, 0, 64, 80
2, 167996, Note_off_c, 0, 72, 100
2, 167996, Note_off_c, 0, 67, 100
2, 167996, Note_off_c, 0, 64, 100
2, 168000, Note_on_c, 0, 70, 80
2, 168000, Note_on_c, 0, 67, 80
2, 168000, Note_on_c, 0, 60, 80
2, 168572, Note_off_c, 0, 70, 100
2, 168572, Note_off_c, 0, 67, 100
2, 168572, Note_off_c, 0, 60, 100
2, 168576, Note_on_c, 0, 68, 80
2, 168576, Note_on_c, 0, 65, 80
2, 168576, Note_on_c, 0, 60, 80
2, 168764, Note_off_c, 0, 68, 100
2, 168764, Note_off_c, 0, 65, 100
2, 168764, Note_off_c, 0, 60, 100
2, 168768, Note_on_c, 0, 80, 80
2, 168956, Note_off_c, 0, 80, 100
2, 168960, Note_on_c, 0, 84, 80
2, 169148, Note_off_c, 0, 84, 100
2, 169344, Note_on_c, 0, 77, 80
2, 169532, Note_off_c, 0, 77, 100
2, 169536, Note_on_c, 0, 80, 80
2, 169724, Note_off_c, 0, 80, 100
2, 169920, Note_on_c, 0, 72, 80
2, 170108, Note_off_c, 0, 72, 100
2, 170112, Note_on_c, 0, 77, 80
2, 170300, Note_off_c, 0, 77, 100
2, 170496, Note_on_c, 0, 68, 80
2, 170684, Note_off_c, 0, 68, 100
2, 170688, Note_on_c, 0, 80, 80
2, 170876, Note_off_c, 0, 80, 100
2, 171072, Note_on_c, 0, 80, 80
2, 171260, Note_off_c, 0, 80, 100
2, 171264, Note_on_c, 0, 79, 80
2, 171452, Note_off_c, 0, 79, 100
2, 171648, Note_on_c, 0, 67, 80
2, 171836, Note_off_c, 0, 67, 100
2, 171840, Note_on_c, 0, 77, 80
2, 172028, Note_off_c, 0, 77, 100
2, 172224, Note_on_c, 0, 77, 80
2, 172412, Note_off_c, 0, 77, 100
2, 172416, Note_on_c, 0, 75, 80
2, 172604, Note_off_c, 0, 75, 100
2, 172800, Note_on_c, 0, 73, 80
2, 172988, Note_off_c, 0, 73, 100
2, 172992, Note_on_c, 0, 85, 80
2, 173180, Note_off_c, 0, 85, 100
2, 173376, Note_on_c, 0, 84, 80
2, 173564, Note_off_c, 0, 84, 100
2, 173568, Note_on_c, 0, 87, 80
2, 173756, Note_off_c, 0, 87, 100
2, 173952, Note_on_c, 0, 80, 80
2, 174140, Note_off_c, 0, 80, 100
2, 174144, Note_on_c, 0, 84, 80
2, 174332, Note_off_c, 0, 84, 100
2, 174528, Note_on_c, 0, 75, 80
2, 174716, Note_off_c, 0, 75, 100
2, 174720, Note_on_c, 0, 80, 80
2, 174908, Note_off_c, 0, 80, 100
2, 175104, Note_on_c, 0, 72, 80
2, 175292, Note_off_c, 0, 72, 100
2, 175296, Note_on_c, 0, 84, 80
2, 175484, Note_off_c, 0, 84, 100
2, 175680, Note_on_c, 0, 84, 80
2, 175868, Note_off_c, 0, 84, 100
2, 175872, Note_on_c, 0, 83, 80
2, 176060, Note_off_c, 0, 83, 100
2, 176256, Note_on_c, 0, 71, 80
2, 176444, Note_off_c, 0, 71, 100
2, 176448, Note_on_c, 0, 80, 80
2, 176636, Note_off_c, 0, 80, 100
2, 176832, Note_on_c, 0, 80, 80
2, 177020, Note_off_c, 0, 80, 100
2, 177024, Note_on_c, 0, 79, 80
2, 177212, Note_off_c, 0, 79, 100
2, 177408, Note_on_c, 0, 77, 80
2, 177596, Note_off_c, 0, 77, 100
2, 177600, Note_on_c, 0, 89, 80
2, 177788, Note_off_c, 0, 89, 100
2, 177792, Note_on_c, 0, 75, 80
2, 177792, Note_on_c, 0, 72, 80
2, 177792, Note_on_c, 0, 67, 80
2, 178364, Note_off_c, 0, 75, 100
2, 178364, Note_off_c, 0, 72, 100
2, 178364, Note_off_c, 0, 67, 100
2, 178368, Note_on_c, 0, 72, 80
2, 178368, Note_on_c, 0, 75, 80
2, 178368, Note_on_c, 0, 79, 80
2, 178940, Note_off_c, 0, 72, 100
2, 178940, Note_off_c, 0, 75, 100
2, 178940, Note_off_c, 0, 79, 100
2, 178944, Note_on_c, 0, 75, 80
2, 178944, Note_on_c, 0, 79, 80
2, 178944, Note_on_c, 0, 84, 80
2, 179516, Note_off_c, 0, 75, 100
2, 179516, Note_off_c, 0, 79, 100
2, 179516, Note_off_c, 0, 84, 100
2, 179520, Note_on_c, 0, 72, 80
2, 179520, Note_on_c, 0, 81, 80
2, 179520, Note_on_c, 0, 84, 80
2, 180092, Note_off_c, 0, 72, 100
2, 180092, Note_off_c, 0, 81, 100
2, 180092, Note_off_c, 0, 84, 100
2, 180096, Note_on_c, 0, 83, 80
2, 180096, Note_on_c, 0, 79, 80
2, 180096, Note_on_c, 0, 71, 80
2, 180668, Note_off_c, 0, 83, 100
2, 180668, Note_off_c, 0, 79, 100
2, 180668, Note_off_c, 0, 71, 100
2, 180672, Note_on_c, 0, 69, 80
2, 180672, Note_on_c, 0, 78, 80
2, 180672, Note_on_c, 0, 81, 80
2, 181244, Note_off_c, 0, 69, 100
2, 181244, Note_off_c, 0, 78, 100
2, 181244, Note_off_c, 0, 81, 100
2, 181248, Note_on_c, 0, 79, 80
2, 181248, Note_on_c, 0, 67, 80
2, 181820, Note_off_c, 0, 79, 100
2, 181820, Note_off_c, 0, 67, 100
2, 181824, Note_on_c, 0, 82, 80
2, 181824, Note_on_c, 0, 79, 80
2, 181824, Note_on_c, 0, 70, 80
2, 182396, Note_off_c, 0, 82, 100
2, 182396, Note_off_c, 0, 79, 100
2, 182396, Note_off_c, 0, 70, 100
2, 182400, Note_on_c, 0, 80, 80
2, 182400, Note_on_c, 0, 77, 80
2, 182400, Note_on_c, 0, 68, 80
2, 182972, Note_off_c, 0, 80, 100
2, 182972, Note_off_c, 0, 77, 100
2, 182972, Note_off_c, 0, 68, 100
2, 182976, Note_on_c, 0, 67, 80
2, 182976, Note_on_c, 0, 79, 80
2, 182976, Note_on_c, 0, 76, 80
2, 183548, Note_off_c, 0, 67, 100
2, 183548, Note_off_c, 0, 79, 100
2, 183548, Note_off_c, 0, 76, 100
2, 183552, Note_on_c, 0, 77, 80
2, 183552, Note_on_c, 0, 65, 80
2, 184124, Note_off_c, 0, 77, 100
2, 184124, Note_off_c, 0, 65, 100
2, 184128, Note_on_c, 0, 79, 80
2, 184128, Note_on_c, 0, 74, 80
2, 184128, Note_on_c, 0, 67, 80
2, 184700, Note_off_c, 0, 79, 100
2, 184700, Note_off_c, 0, 74, 100
2, 184700, Note_off_c, 0, 67, 100
2, 184704, Note_on_c, 0, 75, 80
2, 184704, Note_on_c, 0, 72, 80
2, 184704, Note_on_c, 0, 67, 80
2, 185276, Note_off_c, 0, 75, 100
2, 185276, Note_off_c, 0, 72, 100
2, 185276, Note_off_c, 0, 67, 100
2, 185280, Note_on_c, 0, 74, 80
2, 185280, Note_on_c, 0, 71, 80
2, 185280, Note_on_c, 0, 65, 80
2, 185852, Note_off_c, 0, 74, 100
2, 185852, Note_off_c, 0, 71, 100
2, 185852, Note_off_c, 0, 65, 100
2, 185856, Note_on_c, 0, 72, 80
2, 185856, Note_on_c, 0, 67, 80
2, 185856, Note_on_c, 0, 63, 80
2, 186428, Note_off_c, 0, 72, 100
2, 186428, Note_off_c, 0, 67, 100
2, 186428, Note_off_c, 0, 63, 100
2, 186432, Note_on_c, 0, 74, 80
2, 186432, Note_on_c, 0, 69, 80
2, 186432, Note_on_c, 0, 62, 80
2, 187004, Note_off_c, 0, 74, 100
2, 187004, Note_off_c, 0, 69, 100
2, 187004, Note_off_c, 0, 62, 100
2, 187008, Note_on_c, 0, 71, 80
2, 187008, Note_on_c, 0, 67, 80
2, 187008, Note_on_c, 0, 62, 80
2, 187580, Note_off_c, 0, 71, 100
2, 187580, Note_off_c, 0, 67, 100
2, 187580, Note_off_c, 0, 62, 100
2, 187584, Note_on_c, 0, 69, 80
2, 187584, Note_on_c, 0, 66, 80
2, 187584, Note_on_c, 0, 60, 80
2, 188156, Note_off_c, 0, 69, 100
2, 188156, Note_off_c, 0, 66, 100
2, 188156, Note_off_c, 0, 60, 100
2, 188160, Note_on_c, 0, 67, 80
2, 188160, Note_on_c, 0, 62, 80
2, 188160, Note_on_c, 0, 59, 80
2, 188732, Note_off_c, 0, 67, 100
2, 188732, Note_off_c, 0, 62, 100
2, 188732, Note_off_c, 0, 59, 100
2, 188736, Note_on_c, 0, 63, 80
2, 188736, Note_on_c, 0, 60, 80
2, 188736, Note_on_c, 0, 54, 80
2, 189308, Note_off_c, 0, 63, 100
2, 189308, Note_off_c, 0, 60, 100
2, 189308, Note_off_c, 0, 54, 100
2, 189312, Note_on_c, 0, 62, 80
2, 189312, Note_on_c, 0, 59, 80
2, 189312, Note_on_c, 0, 55, 80
2, 189884, Note_off_c, 0, 62, 100
2, 189884, Note_off_c, 0, 59, 100
2, 189884, Note_off_c, 0, 55, 100
2, 189888, Note_on_c, 0, 60, 70
2, 189888, Note_on_c, 0, 54, 70
2, 189888, Note_on_c, 0, 51, 70
2, 190460, Note_off_c, 0, 60, 100
2, 190460, Note_off_c, 0, 54, 100
2, 190460, Note_off_c, 0, 51, 100
2, 190464, Note_on_c, 0, 59, 70
2, 190464, Note_on_c, 0, 55, 70
2, 190464, Note_on_c, 0, 50, 70
2, 191036, Note_off_c, 0, 59, 100
2, 191036, Note_off_c, 0, 55, 100
2, 191036, Note_off_c, 0, 50, 100
2, 191040, Note_on_c, 0, 57, 70
2, 191040, Note_on_c, 0, 54, 70
2, 191040, Note_on_c, 0, 48, 70
2, 191612, Note_off_c, 0, 57, 100
2, 191612, Note_off_c, 0, 54, 100
2, 191612, Note_off_c, 0, 48, 100
2, 191616, Note_on_c, 0, 55, 70
2, 191616, Note_on_c, 0, 47, 70
2, 191996, Note_off_c, 0, 55, 100
2, 191996, Note_off_c, 0, 47, 100
2, 192192, Note_on_c, 0, 62, 101
2, 192572, Note_off_c, 0, 62, 100
2, 192576, Note_on_c, 0, 60, 80
2, 192764, Note_off_c, 0, 60, 100
2, 192768, Note_on_c, 0, 60, 80
2, 192812, Note_off_c, 0, 60, 100
2, 192816, Note_on_c, 0, 59, 80
2, 192956, Note_off_c, 0, 59, 100
2, 192960, Note_on_c, 0, 57, 80
2, 193148, Note_off_c, 0, 57, 100
2, 193152, Note_on_c, 0, 59, 80
2, 193340, Note_off_c, 0, 59, 100
2, 193344, Note_on_c, 0, 62, 80
2, 193388, Note_off_c, 0, 62, 100
2, 193392, Note_on_c, 0, 60, 80
2, 193532, Note_off_c, 0, 60, 100
2, 193536, Note_on_c, 0, 59, 80
2, 193724, Note_off_c, 0, 59, 100
2, 193728, Note_on_c, 0, 60, 80
2, 193916, Note_off_c, 0, 60, 100
2, 193920, Note_on_c, 0, 62, 80
2, 194300, Note_off_c, 0, 62, 100
2, 194496, Note_on_c, 0, 65, 100
2, 194496, Note_on_c, 0, 62, 100
2, 194876, Note_off_c, 0, 65, 100
2, 194876, Note_off_c, 0, 62, 100
2, 194880, Note_on_c, 0, 64, 80
2, 194880, Note_on_c, 0, 60, 80
2, 195068, Note_off_c, 0, 64, 100
2, 195068, Note_off_c, 0, 60, 100
2, 195072, Note_on_c, 0, 64, 80
2, 195072, Note_on_c, 0, 60, 80
2, 195116, Note_off_c, 0, 64, 100
2, 195116, Note_off_c, 0, 60, 100
2, 195120, Note_on_c, 0, 62, 80
2, 195120, Note_on_c, 0, 59, 80
2, 195260, Note_off_c, 0, 62, 100
2, 195260, Note_off_c, 0, 59, 100
2, 195264, Note_on_c, 0, 60, 80
2, 195264, Note_on_c, 0, 57, 80
2, 195452, Note_off_c, 0, 60, 100
2, 195452, Note_off_c, 0, 57, 100
2, 195456, Note_on_c, 0, 62, 80
2, 195456, Note_on_c, 0, 59, 80
2, 195644, Note_off_c, 0, 62, 100
2, 195644, Note_off_c, 0, 59, 100
2, 195648, Note_on_c, 0, 65, 80
2, 195648, Note_on_c, 0, 62, 80
2, 195692, Note_off_c, 0, 65, 100
2, 195692, Note_off_c, 0, 62, 100
2, 195696, Note_on_c, 0, 64, 80
2, 195696, Note_on_c, 0, 60, 80
2, 195836, Note_off_c, 0, 64, 100
2, 195836, Note_off_c, 0, 60, 100
2, 195840, Note_on_c, 0, 62, 80
2, 195840, Note_on_c, 0, 59, 80
2, 196028, Note_off_c, 0, 62, 100
2, 196028, Note_off_c, 0, 59, 100
2, 196032, Note_on_c, 0, 64, 80
2, 196032, Note_on_c, 0, 60, 80
2, 196220, Note_off_c, 0, 64, 100
2, 196220, Note_off_c, 0, 60, 100
2, 196224, Note_on_c, 0, 65, 80
2, 196224, Note_on_c, 0, 62, 80
2, 196604, Note_off_c, 0, 65, 100
2, 196604, Note_off_c, 0, 62, 100
2, 196800, Note_on_c, 0, 69, 100
2, 196800, Note_on_c, 0, 65, 100
2, 197180, Note_off_c, 0, 69, 100
2, 197180, Note_off_c, 0, 65, 100
2, 197184, Note_on_c, 0, 67, 80
2, 197184, Note_on_c, 0, 64, 80
2, 197372, Note_off_c, 0, 67, 100
2, 197372, Note_off_c, 0, 64, 100
2, 197376, Note_on_c, 0, 65, 80
2, 197376, Note_on_c, 0, 62, 80
2, 197564, Note_off_c, 0, 65, 100
2, 197564, Note_off_c, 0, 62, 100
2, 197568, Note_on_c, 0, 67, 80
2, 197568, Note_on_c, 0, 64, 80
2, 197756, Note_off_c, 0, 67, 100
2, 197756, Note_off_c, 0, 64, 100
2, 197760, Note_on_c, 0, 65, 80
2, 197760, Note_on_c, 0, 62, 80
2, 197948, Note_off_c, 0, 65, 100
2, 197948, Note_off_c, 0, 62, 100
2, 197952, Note_on_c, 0, 64, 80
2, 197952, Note_on_c, 0, 60, 80
2, 198140, Note_off_c, 0, 64, 100
2, 198140, Note_off_c, 0, 60, 100
2, 198144, Note_on_c, 0, 65, 80
2, 198144, Note_on_c, 0, 62, 80
2, 198332, Note_off_c, 0, 65, 100
2, 198332, Note_off_c, 0, 62, 100
2, 198336, Note_on_c, 0, 64, 80
2, 198336, Note_on_c, 0, 60, 80
2, 198524, Note_off_c, 0, 64, 100
2, 198524, Note_off_c, 0, 60, 100
2, 198528, Note_on_c, 0, 62, 80
2, 198528, Note_on_c, 0, 59, 80
2, 198908, Note_off_c, 0, 62, 100
2, 198908, Note_off_c, 0, 59, 100
2, 199104, Note_on_c, 0, 69, 100
2, 199104, Note_on_c, 0, 65, 100
2, 199484, Note_off_c, 0, 69, 100
2, 199484, Note_off_c, 0, 65, 100
2, 199488, Note_on_c, 0, 67, 80
2, 199488, Note_on_c, 0, 64, 80
2, 199676, Note_off_c, 0, 67, 100
2, 199676, Note_off_c, 0, 64, 100
2, 199680, Note_on_c, 0, 65, 80
2, 199680, Note_on_c, 0, 62, 80
2, 199868, Note_off_c, 0, 65, 100
2, 199868, Note_off_c, 0, 62, 100
2, 199872, Note_on_c, 0, 67, 80
2, 199872, Note_on_c, 0, 64, 80
2, 200060, Note_off_c, 0, 67, 100
2, 200060, Note_off_c, 0, 64, 100
2, 200064, Note_on_c, 0, 65, 80
2, 200064, Note_on_c, 0, 62, 80
2, 200252, Note_off_c, 0, 65, 100
2, 200252, Note_off_c, 0, 62, 100
2, 200256, Note_on_c, 0, 64, 80
2, 200256, Note_on_c, 0, 60, 80
2, 200444, Note_off_c, 0, 64, 100
2, 200444, Note_off_c, 0, 60, 100
2, 200448, Note_on_c, 0, 65, 80
2, 200448, Note_on_c, 0, 62, 80
2, 200636, Note_off_c, 0, 65, 100
2, 200636, Note_off_c, 0, 62, 100
2, 200640, Note_on_c, 0, 64, 80
2, 200640, Note_on_c, 0, 60, 80
2, 200828, Note_off_c, 0, 64, 100
2, 200828, Note_off_c, 0, 60, 100
2, 200832, Note_on_c, 0, 62, 80
2, 200832, Note_on_c, 0, 59, 80
2, 201024, Note_on_c, 0, 61, 80
2, 201212, Note_off_c, 0, 62, 100
2, 201212, Note_off_c, 0, 59, 100
2, 201212, Note_off_c, 0, 61, 100
2, 201216, Note_on_c, 0, 62, 80
2, 201404, Note_off_c, 0, 62, 100
2, 201408, Note_on_c, 0, 64, 80
2, 201596, Note_off_c, 0, 64, 100
2, 201600, Note_on_c, 0, 65, 80
2, 201788, Note_off_c, 0, 65, 100
2, 201792, Note_on_c, 0, 67, 80
2, 201980, Note_off_c, 0, 67, 100
2, 201984, Note_on_c, 0, 69, 80
2, 202172, Note_off_c, 0, 69, 100
2, 202176, Note_on_c, 0, 71, 80
2, 202364, Note_off_c, 0, 71, 100
2, 202368, Note_on_c, 0, 72, 80
2, 202556, Note_off_c, 0, 72, 100
2, 202560, Note_on_c, 0, 74, 80
2, 202748, Note_off_c, 0, 74, 100
2, 202752, Note_on_c, 0, 75, 80
2, 202940, Note_off_c, 0, 75, 100
2, 202944, Note_on_c, 0, 76, 80
2, 203132, Note_off_c, 0, 76, 100
2, 203136, Note_on_c, 0, 77, 80
2, 203324, Note_off_c, 0, 77, 100
2, 203328, Note_on_c, 0, 73, 80
2, 203516, Note_off_c, 0, 73, 100
2, 203520, Note_on_c, 0, 74, 80
2, 203708, Note_off_c, 0, 74, 100
2, 203712, Note_on_c, 0, 76, 80
2, 203900, Note_off_c, 0, 76, 100
2, 203904, Note_on_c, 0, 77, 80
2, 204092, Note_off_c, 0, 77, 100
2, 204096, Note_on_c, 0, 79, 80
2, 204284, Note_off_c, 0, 79, 100
2, 204288, Note_on_c, 0, 81, 80
2, 204476, Note_off_c, 0, 81, 100
2, 204480, Note_on_c, 0, 83, 80
2, 204668, Note_off_c, 0, 83, 100
2, 204672, Note_on_c, 0, 84, 80
2, 204860, Note_off_c, 0, 84, 100
2, 204864, Note_on_c, 0, 86, 80
2, 205052, Note_off_c, 0, 86, 100
2, 205056, Note_on_c, 0, 87, 80
2, 205244, Note_off_c, 0, 87, 100
2, 205248, Note_on_c, 0, 88, 80
2, 205436, Note_off_c, 0, 88, 100
2, 205440, Note_on_c, 0, 89, 70
2, 205820, Note_off_c, 0, 89, 100
2, 207744, Note_on_c, 0, 72, 80
2, 207744, Note_on_c, 0, 67, 80
2, 207744, Note_on_c, 0, 64, 80
2, 207932, Note_off_c, 0, 72, 100
2, 207932, Note_off_c, 0, 67, 100
2, 207932, Note_off_c, 0, 64, 100
2, 207936, Note_on_c, 0, 71, 80
2, 207936, Note_on_c, 0, 65, 80
2, 207936, Note_on_c, 0, 62, 80
2, 208124, Note_off_c, 0, 71, 100
2, 208124, Note_off_c, 0, 65, 100
2, 208124, Note_off_c, 0, 62, 100
2, 208128, Note_on_c, 0, 72, 80
2, 208128, Note_on_c, 0, 67, 80
2, 208128, Note_on_c, 0, 64, 80
2, 208316, Note_off_c, 0, 72, 100
2, 208316, Note_off_c, 0, 67, 100
2, 208316, Note_off_c, 0, 64, 100
2, 208320, Note_on_c, 0, 74, 80
2, 208320, Note_on_c, 0, 69, 80
2, 208320, Note_on_c, 0, 65, 80
2, 208508, Note_off_c, 0, 74, 100
2, 208508, Note_off_c, 0, 69, 100
2, 208508, Note_off_c, 0, 65, 100
2, 208512, Note_on_c, 0, 76, 80
2, 208512, Note_on_c, 0, 71, 80
2, 208512, Note_on_c, 0, 67, 80
2, 208700, Note_off_c, 0, 76, 100
2, 208700, Note_off_c, 0, 71, 100
2, 208700, Note_off_c, 0, 67, 100
2, 208704, Note_on_c, 0, 77, 80
2, 208704, Note_on_c, 0, 72, 80
2, 208704, Note_on_c, 0, 69, 80
2, 208892, Note_off_c, 0, 77, 100
2, 208892, Note_off_c, 0, 72, 100
2, 208892, Note_off_c, 0, 69, 100
2, 208896, Note_on_c, 0, 79, 80
2, 208896, Note_on_c, 0, 74, 80
2, 208896, Note_on_c, 0, 71, 80
2, 209084, Note_off_c, 0, 79, 100
2, 209084, Note_off_c, 0, 74, 100
2, 209084, Note_off_c, 0, 71, 100
2, 209088, Note_on_c, 0, 81, 80
2, 209088, Note_on_c, 0, 76, 80
2, 209088, Note_on_c, 0, 72, 80
2, 209276, Note_off_c, 0, 81, 100
2, 209276, Note_off_c, 0, 76, 100
2, 209276, Note_off_c, 0, 72, 100
2, 209280, Note_on_c, 0, 83, 80
2, 209280, Note_on_c, 0, 77, 80
2, 209280, Note_on_c, 0, 74, 80
2, 209468, Note_off_c, 0, 83, 100
2, 209468, Note_off_c, 0, 77, 100
2, 209468, Note_off_c, 0, 74, 100
2, 209472, Note_on_c, 0, 84, 80
2, 209472, Note_on_c, 0, 79, 80
2, 209472, Note_on_c, 0, 76, 80
2, 209660, Note_off_c, 0, 84, 100
2, 209660, Note_off_c, 0, 79, 100
2, 209660, Note_off_c, 0, 76, 100
2, 209664, Note_on_c, 0, 86, 80
2, 209664, Note_on_c, 0, 81, 80
2, 209664, Note_on_c, 0, 77, 80
2, 209852, Note_off_c, 0, 86, 100
2, 209852, Note_off_c, 0, 81, 100
2, 209852, Note_off_c, 0, 77, 100
2, 209856, Note_on_c, 0, 88, 80
2, 209856, Note_on_c, 0, 84, 80
2, 210044, Note_off_c, 0, 88, 100
2, 210044, Note_off_c, 0, 84, 100
2, 210048, Note_on_c, 0, 84, 80
2, 210048, Note_on_c, 0, 89, 80
2, 210428, Note_off_c, 0, 84, 100
2, 210428, Note_off_c, 0, 89, 100
2, 210432, Note_on_c, 0, 88, 80
2, 210432, Note_on_c, 0, 84, 80
2, 210620, Note_off_c, 0, 88, 100
2, 210620, Note_off_c, 0, 84, 100
2, 210624, Note_on_c, 0, 84, 80
2, 210624, Note_on_c, 0, 89, 80
2, 211004, Note_off_c, 0, 84, 100
2, 211004, Note_off_c, 0, 89, 100
2, 211008, Note_on_c, 0, 88, 80
2, 211008, Note_on_c, 0, 84, 80
2, 211196, Note_off_c, 0, 88, 100
2, 211196, Note_off_c, 0, 84, 100
2, 211200, Note_on_c, 0, 86, 80
2, 211200, Note_on_c, 0, 84, 80
2, 211580, Note_off_c, 0, 86, 100
2, 211580, Note_off_c, 0, 84, 100
2, 212160, Note_on_c, 0, 62, 80
2, 212348, Note_off_c, 0, 62, 100
2, 212352, Note_on_c, 0, 67, 80
2, 212352, Note_on_c, 0, 62, 80
2, 212352, Note_on_c, 0, 59, 80
2, 212540, Note_off_c, 0, 67, 100
2, 212540, Note_off_c, 0, 62, 100
2, 212540, Note_off_c, 0, 59, 100
2, 212544, Note_on_c, 0, 66, 80
2, 212544, Note_on_c, 0, 60, 80
2, 212544, Note_on_c, 0, 57, 80
2, 212732, Note_off_c, 0, 66, 100
2, 212732, Note_off_c, 0, 60, 100
2, 212732, Note_off_c, 0, 57, 100
2, 212736, Note_on_c, 0, 67, 80
2, 212736, Note_on_c, 0, 62, 80
2, 212736, Note_on_c, 0, 59, 80
2, 212924, Note_off_c, 0, 67, 100
2, 212924, Note_off_c, 0, 62, 100
2, 212924, Note_off_c, 0, 59, 100
2, 212928, Note_on_c, 0, 69, 80
2, 212928, Note_on_c, 0, 64, 80
2, 212928, Note_on_c, 0, 60, 80
2, 213116, Note_off_c, 0, 69, 100
2, 213116, Note_off_c, 0, 64, 100
2, 213116, Note_off_c, 0, 60, 100
2, 213120, Note_on_c, 0, 71, 80
2, 213120, Note_on_c, 0, 65, 80
2, 213120, Note_on_c, 0, 62, 80
2, 213308, Note_off_c, 0, 71, 100
2, 213308, Note_off_c, 0, 65, 100
2, 213308, Note_off_c, 0, 62, 100
2, 213312, Note_on_c, 0, 72, 80
2, 213312, Note_on_c, 0, 67, 80
2, 213312, Note_on_c, 0, 64, 80
2, 213500, Note_off_c, 0, 72, 100
2, 213500, Note_off_c, 0, 67, 100
2, 213500, Note_off_c, 0, 64, 100
2, 213504, Note_on_c, 0, 74, 80
2, 213504, Note_on_c, 0, 69, 80
2, 213504, Note_on_c, 0, 65, 80
2, 213692, Note_off_c, 0, 74, 100
2, 213692, Note_off_c, 0, 69, 100
2, 213692, Note_off_c, 0, 65, 100
2, 213696, Note_on_c, 0, 76, 80
2, 213696, Note_on_c, 0, 71, 80
2, 213696, Note_on_c, 0, 67, 80
2, 213884, Note_off_c, 0, 76, 100
2, 213884, Note_off_c, 0, 71, 100
2, 213884, Note_off_c, 0, 67, 100
2, 213888, Note_on_c, 0, 77, 80
2, 213888, Note_on_c, 0, 72, 80
2, 213888, Note_on_c, 0, 69, 80
2, 214076, Note_off_c, 0, 77, 100
2, 214076, Note_off_c, 0, 72, 100
2, 214076, Note_off_c, 0, 69, 100
2, 214080, Note_on_c, 0, 79, 80
2, 214080, Note_on_c, 0, 74, 80
2, 214080, Note_on_c, 0, 71, 80
2, 214268, Note_off_c, 0, 79, 100
2, 214268, Note_off_c, 0, 74, 100
2, 214268, Note_off_c, 0, 71, 100
2, 214272, Note_on_c, 0, 81, 80
2, 214272, Note_on_c, 0, 76, 80
2, 214272, Note_on_c, 0, 72, 80
2, 214460, Note_off_c, 0, 81, 100
2, 214460, Note_off_c, 0, 76, 100
2, 214460, Note_off_c, 0, 72, 100
2, 214464, Note_on_c, 0, 83, 80
2, 214464, Note_on_c, 0, 77, 80
2, 214464, Note_on_c, 0, 74, 80
2, 214652, Note_off_c, 0, 83, 100
2, 214652, Note_off_c, 0, 77, 100
2, 214652, Note_off_c, 0, 74, 100
2, 214656, Note_on_c, 0, 84, 80
2, 214656, Note_on_c, 0, 79, 80
2, 214656, Note_on_c, 0, 76, 80
2, 215036, Note_off_c, 0, 84, 100
2, 215036, Note_off_c, 0, 79, 100
2, 215036, Note_off_c, 0, 76, 100
2, 215040, Note_on_c, 0, 86, 80
2, 215040, Note_on_c, 0, 79, 80
2, 215040, Note_on_c, 0, 77, 80
2, 215228, Note_off_c, 0, 86, 100
2, 215228, Note_off_c, 0, 79, 100
2, 215228, Note_off_c, 0, 77, 100
2, 215232, Note_on_c, 0, 84, 80
2, 215232, Note_on_c, 0, 79, 80
2, 215232, Note_on_c, 0, 76, 80
2, 215612, Note_off_c, 0, 84, 100
2, 215612, Note_off_c, 0, 79, 100
2, 215612, Note_off_c, 0, 76, 100
2, 215616, Note_on_c, 0, 86, 80
2, 215616, Note_on_c, 0, 79, 80
2, 215616, Note_on_c, 0, 77, 80
2, 215804, Note_off_c, 0, 86, 100
2, 215804, Note_off_c, 0, 79, 100
2, 215804, Note_off_c, 0, 77, 100
2, 215808, Note_on_c, 0, 76, 80
2, 215808, Note_on_c, 0, 79, 80
2, 215808, Note_on_c, 0, 84, 80
2, 216188, Note_off_c, 0, 76, 100
2, 216188, Note_off_c, 0, 79, 100
2, 216188, Note_off_c, 0, 84, 100
2, 216960, Note_on_c, 0, 79, 110
2, 216960, Note_on_c, 0, 76, 110
2, 216960, Note_on_c, 0, 67, 110
2, 218876, Note_off_c, 0, 67, 100
2, 218876, Note_off_c, 0, 76, 100
2, 218876, Note_off_c, 0, 79, 100
2, 218880, Note_on_c, 0, 77, 110
2, 218880, Note_on_c, 0, 67, 110
2, 218880, Note_on_c, 0, 74, 110
2, 219068, Note_off_c, 0, 77, 100
2, 219068, Note_off_c, 0, 67, 100
2, 219068, Note_off_c, 0, 74, 100
2, 219072, Note_on_c, 0, 76, 110
2, 219072, Note_on_c, 0, 67, 110
2, 219072, Note_on_c, 0, 72, 110
2, 219260, Note_off_c, 0, 76, 100
2, 219260, Note_off_c, 0, 67, 100
2, 219260, Note_off_c, 0, 72, 100
2, 219264, Note_on_c, 0, 74, 110
2, 219264, Note_on_c, 0, 71, 110
2, 219264, Note_on_c, 0, 67, 110
2, 219644, Note_off_c, 0, 74, 100
2, 219644, Note_off_c, 0, 71, 100
2, 219644, Note_off_c, 0, 67, 100
2, 219648, Note_on_c, 0, 76, 110
2, 219648, Note_on_c, 0, 72, 110
2, 219648, Note_on_c, 0, 67, 110
2, 219836, Note_off_c, 0, 76, 100
2, 219836, Note_off_c, 0, 72, 100
2, 219836, Note_off_c, 0, 67, 100
2, 219840, Note_on_c, 0, 74, 110
2, 219840, Note_on_c, 0, 71, 110
2, 219840, Note_on_c, 0, 67, 110
2, 220220, Note_off_c, 0, 74, 100
2, 220220, Note_off_c, 0, 71, 100
2, 220220, Note_off_c, 0, 67, 100
2, 220224, Note_on_c, 0, 76, 110
2, 220224, Note_on_c, 0, 72, 110
2, 220224, Note_on_c, 0, 67, 110
2, 220412, Note_off_c, 0, 76, 100
2, 220412, Note_off_c, 0, 72, 100
2, 220412, Note_off_c, 0, 67, 100
2, 220416, Note_on_c, 0, 74, 110
2, 220416, Note_on_c, 0, 71, 110
2, 220416, Note_on_c, 0, 67, 110
2, 220796, Note_off_c, 0, 74, 100
2, 220796, Note_off_c, 0, 71, 100
2, 220796, Note_off_c, 0, 67, 100
2, 221376, Note_on_c, 0, 67, 100
2, 221564, Note_off_c, 0, 67, 100
2, 221568, Note_on_c, 0, 77, 100
2, 221568, Note_on_c, 0, 74, 100
2, 221568, Note_on_c, 0, 67, 100
2, 223484, Note_off_c, 0, 67, 100
2, 223484, Note_off_c, 0, 74, 100
2, 223484, Note_off_c, 0, 77, 100
2, 223488, Note_on_c, 0, 76, 100
2, 223488, Note_on_c, 0, 72, 100
2, 223488, Note_on_c, 0, 67, 100
2, 223676, Note_off_c, 0, 76, 100
2, 223676, Note_off_c, 0, 72, 100
2, 223676, Note_off_c, 0, 67, 100
2, 223680, Note_on_c, 0, 74, 100
2, 223680, Note_on_c, 0, 67, 100
2, 223680, Note_on_c, 0, 65, 100
2, 223868, Note_off_c, 0, 74, 100
2, 223868, Note_off_c, 0, 67, 100
2, 223868, Note_off_c, 0, 65, 100
2, 223872, Note_on_c, 0, 72, 100
2, 223872, Note_on_c, 0, 67, 100
2, 223872, Note_on_c, 0, 64, 100
2, 224252, Note_off_c, 0, 72, 100
2, 224252, Note_off_c, 0, 67, 100
2, 224252, Note_off_c, 0, 64, 100
2, 224256, Note_on_c, 0, 74, 100
2, 224256, Note_on_c, 0, 67, 100
2, 224256, Note_on_c, 0, 65, 100
2, 224444, Note_off_c, 0, 74, 100
2, 224444, Note_off_c, 0, 67, 100
2, 224444, Note_off_c, 0, 65, 100
2, 224448, Note_on_c, 0, 72, 100
2, 224448, Note_on_c, 0, 67, 100
2, 224448, Note_on_c, 0, 64, 100
2, 224828, Note_off_c, 0, 72, 100
2, 224828, Note_off_c, 0, 67, 100
2, 224828, Note_off_c, 0, 64, 100
2, 224832, Note_on_c, 0, 74, 100
2, 224832, Note_on_c, 0, 67, 100
2, 224832, Note_on_c, 0, 65, 100
2, 225020, Note_off_c, 0, 74, 100
2, 225020, Note_off_c, 0, 67, 100
2, 225020, Note_off_c, 0, 65, 100
2, 225024, Note_on_c, 0, 72, 100
2, 225024, Note_on_c, 0, 67, 100
2, 225024, Note_on_c, 0, 64, 100
2, 225404, Note_off_c, 0, 72, 100
2, 225404, Note_off_c, 0, 67, 100
2, 225404, Note_off_c, 0, 64, 100
2, 225600, Note_on_c, 0, 81, 80
2, 225692, Note_off_c, 0, 81, 100
2, 225696, Note_on_c, 0, 79, 80
2, 225788, Note_off_c, 0, 79, 100
2, 225792, Note_on_c, 0, 77, 80
2, 225884, Note_off_c, 0, 77, 100
2, 225888, Note_on_c, 0, 76, 80
2, 225980, Note_off_c, 0, 76, 100
2, 225984, Note_on_c, 0, 74, 80
2, 226076, Note_off_c, 0, 74, 100
2, 226080, Note_on_c, 0, 72, 80
2, 226172, Note_off_c, 0, 72, 100
2, 226176, Note_on_c, 0, 71, 80
2, 226268, Note_off_c, 0, 71, 100
2, 226272, Note_on_c, 0, 72, 80
2, 226364, Note_off_c, 0, 72, 100
2, 226368, Note_on_c, 0, 71, 80
2, 226460, Note_off_c, 0, 71, 100
2, 226464, Note_on_c, 0, 69, 80
2, 226556, Note_off_c, 0, 69, 100
2, 226560, Note_on_c, 0, 71, 80
2, 226652, Note_off_c, 0, 71, 100
2, 226656, Note_on_c, 0, 67, 80
2, 226748, Note_off_c, 0, 67, 100
2, 226752, Note_on_c, 0, 72, 80
2, 226844, Note_off_c, 0, 72, 100
2, 226848, Note_on_c, 0, 74, 80
2, 226940, Note_off_c, 0, 74, 100
2, 226944, Note_on_c, 0, 72, 80
2, 227036, Note_off_c, 0, 72, 100
2, 227040, Note_on_c, 0, 71, 80
2, 227132, Note_off_c, 0, 71, 100
2, 227136, Note_on_c, 0, 72, 80
2, 227228, Note_off_c, 0, 72, 100
2, 227232, Note_on_c, 0, 67, 80
2, 227324, Note_off_c, 0, 67, 100
2, 227328, Note_on_c, 0, 74, 80
2, 227420, Note_off_c, 0, 74, 100
2, 227424, Note_on_c, 0, 76, 80
2, 227516, Note_off_c, 0, 76, 100
2, 227520, Note_on_c, 0, 74, 80
2, 227612, Note_off_c, 0, 74, 100
2, 227616, Note_on_c, 0, 73, 80
2, 227708, Note_off_c, 0, 73, 100
2, 227712, Note_on_c, 0, 74, 80
2, 227804, Note_off_c, 0, 74, 100
2, 227808, Note_on_c, 0, 67, 80
2, 227900, Note_off_c, 0, 67, 100
2, 227904, Note_on_c, 0, 79, 80
2, 227996, Note_off_c, 0, 79, 100
2, 228000, Note_on_c, 0, 77, 80
2, 228092, Note_off_c, 0, 77, 100
2, 228096, Note_on_c, 0, 76, 80
2, 228188, Note_off_c, 0, 76, 100
2, 228192, Note_on_c, 0, 74, 80
2, 228284, Note_off_c, 0, 74, 100
2, 228288, Note_on_c, 0, 72, 80
2, 228380, Note_off_c, 0, 72, 100
2, 228384, Note_on_c, 0, 71, 80
2, 228476, Note_off_c, 0, 71, 100
2, 228480, Note_on_c, 0, 72, 80
2, 228572, Note_off_c, 0, 72, 100
2, 228576, Note_on_c, 0, 74, 80
2, 228668, Note_off_c, 0, 74, 100
2, 228672, Note_on_c, 0, 72, 80
2, 228764, Note_off_c, 0, 72, 100
2, 228768, Note_on_c, 0, 71, 80
2, 228860, Note_off_c, 0, 71, 100
2, 228864, Note_on_c, 0, 72, 80
2, 228956, Note_off_c, 0, 72, 100
2, 228960, Note_on_c, 0, 67, 80
2, 229052, Note_off_c, 0, 67, 100
2, 229056, Note_on_c, 0, 74, 80
2, 229148, Note_off_c, 0, 74, 100
2, 229152, Note_on_c, 0, 76, 80
2, 229244, Note_off_c, 0, 76, 100
2, 229248, Note_on_c, 0, 74, 80
2, 229340, Note_off_c, 0, 74, 100
2, 229344, Note_on_c, 0, 73, 80
2, 229436, Note_off_c, 0, 73, 100
2, 229440, Note_on_c, 0, 74, 80
2, 229532, Note_off_c, 0, 74, 100
2, 229536, Note_on_c, 0, 67, 80
2, 229628, Note_off_c, 0, 67, 100
2, 229632, Note_on_c, 0, 76, 80
2, 229724, Note_off_c, 0, 76, 100
2, 229728, Note_on_c, 0, 77, 80
2, 229820, Note_off_c, 0, 77, 100
2, 229824, Note_on_c, 0, 76, 80
2, 229916, Note_off_c, 0, 76, 100
2, 229920, Note_on_c, 0, 75, 80
2, 230012, Note_off_c, 0, 75, 100
2, 230016, Note_on_c, 0, 76, 80
2, 230108, Note_off_c, 0, 76, 100
2, 230112, Note_on_c, 0, 72, 80
2, 230204, Note_off_c, 0, 72, 100
2, 230208, Note_on_c, 0, 81, 80
2, 230300, Note_off_c, 0, 81, 100
2, 230304, Note_on_c, 0, 79, 80
2, 230396, Note_off_c, 0, 79, 100
2, 230400, Note_on_c, 0, 77, 80
2, 230492, Note_off_c, 0, 77, 100
2, 230496, Note_on_c, 0, 76, 80
2, 230588, Note_off_c, 0, 76, 100
2, 230592, Note_on_c, 0, 74, 80
2, 230684, Note_off_c, 0, 74, 100
2, 230688, Note_on_c, 0, 72, 80
2, 230780, Note_off_c, 0, 72, 100
2, 230784, Note_on_c, 0, 78, 80
2, 230876, Note_off_c, 0, 78, 100
2, 230880, Note_on_c, 0, 79, 80
2, 230972, Note_off_c, 0, 79, 100
2, 230976, Note_on_c, 0, 78, 80
2, 231068, Note_off_c, 0, 78, 100
2, 231072, Note_on_c, 0, 76, 80
2, 231164, Note_off_c, 0, 76, 100
2, 231168, Note_on_c, 0, 78, 80
2, 231260, Note_off_c, 0, 78, 100
2, 231264, Note_on_c, 0, 74, 80
2, 231356, Note_off_c, 0, 74, 100
2, 231360, Note_on_c, 0, 79, 80
2, 231452, Note_off_c, 0, 79, 100
2, 231456, Note_on_c, 0, 81, 80
2, 231548, Note_off_c, 0, 81, 100
2, 231552, Note_on_c, 0, 79, 80
2, 231644, Note_off_c, 0, 79, 100
2, 231648, Note_on_c, 0, 78, 80
2, 231740, Note_off_c, 0, 78, 100
2, 231744, Note_on_c, 0, 79, 80
2, 231836, Note_off_c, 0, 79, 100
2, 231840, Note_on_c, 0, 74, 80
2, 231932, Note_off_c, 0, 74, 100
2, 231936, Note_on_c, 0, 81, 80
2, 232028, Note_off_c, 0, 81, 100
2, 232032, Note_on_c, 0, 83, 80
2, 232124, Note_off_c, 0, 83, 100
2, 232128, Note_on_c, 0, 81, 80
2, 232220, Note_off_c, 0, 81, 100
2, 232224, Note_on_c, 0, 80, 80
2, 232316, Note_off_c, 0, 80, 100
2, 232320, Note_on_c, 0, 81, 80
2, 232412, Note_off_c, 0, 81, 100
2, 232416, Note_on_c, 0, 74, 80
2, 232508, Note_off_c, 0, 74, 100
2, 232512, Note_on_c, 0, 86, 80
2, 232604, Note_off_c, 0, 86, 100
2, 232608, Note_on_c, 0, 84, 80
2, 232700, Note_off_c, 0, 84, 100
2, 232704, Note_on_c, 0, 83, 80
2, 232796, Note_off_c, 0, 83, 100
2, 232800, Note_on_c, 0, 81, 80
2, 232892, Note_off_c, 0, 81, 100
2, 232896, Note_on_c, 0, 79, 80
2, 232988, Note_off_c, 0, 79, 100
2, 232992, Note_on_c, 0, 78, 80
2, 233084, Note_off_c, 0, 78, 100
2, 233088, Note_on_c, 0, 79, 80
2, 233180, Note_off_c, 0, 79, 100
2, 233184, Note_on_c, 0, 81, 80
2, 233276, Note_off_c, 0, 81, 100
2, 233280, Note_on_c, 0, 79, 80
2, 233372, Note_off_c, 0, 79, 100
2, 233376, Note_on_c, 0, 78, 80
2, 233468, Note_off_c, 0, 78, 100
2, 233472, Note_on_c, 0, 79, 80
2, 233564, Note_off_c, 0, 79, 100
2, 233568, Note_on_c, 0, 74, 80
2, 233660, Note_off_c, 0, 74, 100
2, 233664, Note_on_c, 0, 86, 90
2, 233756, Note_off_c, 0, 86, 100
2, 233760, Note_on_c, 0, 88, 90
2, 233852, Note_off_c, 0, 88, 100
2, 233856, Note_on_c, 0, 86, 90
2, 233948, Note_off_c, 0, 86, 100
2, 233952, Note_on_c, 0, 85, 90
2, 234044, Note_off_c, 0, 85, 100
2, 234048, Note_on_c, 0, 86, 90
2, 234140, Note_off_c, 0, 86, 100
2, 234144, Note_on_c, 0, 78, 90
2, 234236, Note_off_c, 0, 78, 100
2, 234240, Note_on_c, 0, 79, 80
2, 234332, Note_off_c, 0, 79, 100
2, 234336, Note_on_c, 0, 81, 80
2, 234428, Note_off_c, 0, 81, 100
2, 234432, Note_on_c, 0, 79, 80
2, 234524, Note_off_c, 0, 79, 100
2, 234528, Note_on_c, 0, 78, 80
2, 234620, Note_off_c, 0, 78, 100
2, 234624, Note_on_c, 0, 79, 80
2, 234716, Note_off_c, 0, 79, 100
2, 234720, Note_on_c, 0, 74, 80
2, 234812, Note_off_c, 0, 74, 100
2, 234816, Note_on_c, 0, 86, 90
2, 234908, Note_off_c, 0, 86, 100
2, 234912, Note_on_c, 0, 88, 90
2, 235004, Note_off_c, 0, 88, 100
2, 235008, Note_on_c, 0, 86, 90
2, 235100, Note_off_c, 0, 86, 100
2, 235104, Note_on_c, 0, 85, 90
2, 235196, Note_off_c, 0, 85, 100
2, 235200, Note_on_c, 0, 86, 90
2, 235292, Note_off_c, 0, 86, 100
2, 235296, Note_on_c, 0, 78, 90
2, 235388, Note_off_c, 0, 78, 100
2, 235392, Note_on_c, 0, 79, 80
2, 235484, Note_off_c, 0, 79, 100
2, 235488, Note_on_c, 0, 81, 80
2, 235580, Note_off_c, 0, 81, 100
2, 235584, Note_on_c, 0, 79, 80
2, 235676, Note_off_c, 0, 79, 100
2, 235680, Note_on_c, 0, 78, 80
2, 235772, Note_off_c, 0, 78, 100
2, 235776, Note_on_c, 0, 79, 80
2, 235868, Note_off_c, 0, 79, 100
2, 235872, Note_on_c, 0, 81, 80
2, 235964, Note_off_c, 0, 81, 100
2, 235968, Note_on_c, 0, 83, 80
2, 236060, Note_off_c, 0, 83, 100
2, 236064, Note_on_c, 0, 84, 80
2, 236156, Note_off_c, 0, 84, 100
2, 236160, Note_on_c, 0, 83, 80
2, 236252, Note_off_c, 0, 83, 100
2, 236256, Note_on_c, 0, 82, 80
2, 236348, Note_off_c, 0, 82, 100
2, 236352, Note_on_c, 0, 83, 80
2, 236444, Note_off_c, 0, 83, 100
2, 236448, Note_on_c, 0, 84, 80
2, 236540, Note_off_c, 0, 84, 100
2, 236544, Note_on_c, 0, 86, 80
2, 236636, Note_off_c, 0, 86, 100
2, 236640, Note_on_c, 0, 88, 80
2, 236732, Note_off_c, 0, 88, 100
2, 236736, Note_on_c, 0, 86, 80
2, 236828, Note_off_c, 0, 86, 100
2, 236832, Note_on_c, 0, 85, 80
2, 236924, Note_off_c, 0, 85, 100
2, 236928, Note_on_c, 0, 86, 80
2, 237020, Note_off_c, 0, 86, 100
2, 237024, Note_on_c, 0, 88, 80
2, 237116, Note_off_c, 0, 88, 100
2, 237120, Note_on_c, 0, 89, 80
2, 237212, Note_off_c, 0, 89, 100
2, 237216, Note_on_c, 0, 86, 80
2, 237308, Note_off_c, 0, 86, 100
2, 237312, Note_on_c, 0, 83, 80
2, 237404, Note_off_c, 0, 83, 100
2, 237408, Note_on_c, 0, 79, 80
2, 237500, Note_off_c, 0, 79, 100
2, 237504, Note_on_c, 0, 77, 80
2, 237596, Note_off_c, 0, 77, 100
2, 237600, Note_on_c, 0, 74, 80
2, 237692, Note_off_c, 0, 74, 100
2, 237696, Note_on_c, 0, 72, 100
2, 237696, Note_on_c, 0, 67, 100
2, 237696, Note_on_c, 0, 64, 100
2, 237884, Note_off_c, 0, 72, 100
2, 237884, Note_off_c, 0, 67, 100
2, 237884, Note_off_c, 0, 64, 100
2, 237888, Note_on_c, 0, 71, 80
2, 237888, Note_on_c, 0, 65, 80
2, 237888, Note_on_c, 0, 62, 80
2, 238076, Note_off_c, 0, 71, 100
2, 238076, Note_off_c, 0, 65, 100
2, 238076, Note_off_c, 0, 62, 100
2, 238080, Note_on_c, 0, 72, 80
2, 238080, Note_on_c, 0, 67, 80
2, 238080, Note_on_c, 0, 64, 80
2, 238268, Note_off_c, 0, 72, 100
2, 238268, Note_off_c, 0, 67, 100
2, 238268, Note_off_c, 0, 64, 100
2, 238272, Note_on_c, 0, 74, 80
2, 238272, Note_on_c, 0, 69, 80
2, 238272, Note_on_c, 0, 65, 80
2, 238460, Note_off_c, 0, 74, 100
2, 238460, Note_off_c, 0, 69, 100
2, 238460, Note_off_c, 0, 65, 100
2, 238464, Note_on_c, 0, 76, 80
2, 238464, Note_on_c, 0, 71, 80
2, 238464, Note_on_c, 0, 67, 80
2, 238652, Note_off_c, 0, 76, 100
2, 238652, Note_off_c, 0, 71, 100
2, 238652, Note_off_c, 0, 67, 100
2, 238656, Note_on_c, 0, 77, 80
2, 238656, Note_on_c, 0, 72, 80
2, 238656, Note_on_c, 0, 69, 80
2, 238844, Note_off_c, 0, 77, 100
2, 238844, Note_off_c, 0, 72, 100
2, 238844, Note_off_c, 0, 69, 100
2, 238848, Note_on_c, 0, 79, 80
2, 238848, Note_on_c, 0, 74, 80
2, 238848, Note_on_c, 0, 71, 80
2, 239036, Note_off_c, 0, 79, 100
2, 239036, Note_off_c, 0, 74, 100
2, 239036, Note_off_c, 0, 71, 100
2, 239040, Note_on_c, 0, 81, 80
2, 239040, Note_on_c, 0, 76, 80
2, 239040, Note_on_c, 0, 72, 80
2, 239228, Note_off_c, 0, 81, 100
2, 239228, Note_off_c, 0, 76, 100
2, 239228, Note_off_c, 0, 72, 100
2, 239232, Note_on_c, 0, 83, 80
2, 239232, Note_on_c, 0, 77, 80
2, 239232, Note_on_c, 0, 74, 80
2, 239420, Note_off_c, 0, 83, 100
2, 239420, Note_off_c, 0, 77, 100
2, 239420, Note_off_c, 0, 74, 100
2, 239424, Note_on_c, 0, 84, 80
2, 239424, Note_on_c, 0, 79, 80
2, 239424, Note_on_c, 0, 76, 80
2, 239612, Note_off_c, 0, 84, 100
2, 239612, Note_off_c, 0, 79, 100
2, 239612, Note_off_c, 0, 76, 100
2, 239616, Note_on_c, 0, 86, 80
2, 239616, Note_on_c, 0, 81, 80
2, 239616, Note_on_c, 0, 77, 80
2, 239804, Note_off_c, 0, 86, 100
2, 239804, Note_off_c, 0, 81, 100
2, 239804, Note_off_c, 0, 77, 100
2, 239808, Note_on_c, 0, 88, 80
2, 239808, Note_on_c, 0, 84, 80
2, 239996, Note_off_c, 0, 88, 100
2, 239996, Note_off_c, 0, 84, 100
2, 240000, Note_on_c, 0, 84, 80
2, 240000, Note_on_c, 0, 89, 80
2, 240380, Note_off_c, 0, 84, 100
2, 240380, Note_off_c, 0, 89, 100
2, 240384, Note_on_c, 0, 88, 80
2, 240384, Note_on_c, 0, 84, 80
2, 240572, Note_off_c, 0, 88, 100
2, 240572, Note_off_c, 0, 84, 100
2, 240576, Note_on_c, 0, 84, 80
2, 240576, Note_on_c, 0, 89, 80
2, 240956, Note_off_c, 0, 84, 100
2, 240956, Note_off_c, 0, 89, 100
2, 240960, Note_on_c, 0, 88, 80
2, 240960, Note_on_c, 0, 84, 80
2, 241148, Note_off_c, 0, 88, 100
2, 241148, Note_off_c, 0, 84, 100
2, 241152, Note_on_c, 0, 86, 80
2, 241152, Note_on_c, 0, 84, 80
2, 241532, Note_off_c, 0, 86, 100
2, 241532, Note_off_c, 0, 84, 100
2, 242304, Note_on_c, 0, 88, 80
2, 242304, Note_on_c, 0, 76, 80
2, 242684, Note_off_c, 0, 88, 100
2, 242684, Note_off_c, 0, 76, 100
2, 242688, Note_on_c, 0, 75, 80
2, 242688, Note_on_c, 0, 87, 80
2, 242876, Note_off_c, 0, 75, 100
2, 242876, Note_off_c, 0, 87, 100
2, 242880, Note_on_c, 0, 88, 80
2, 242880, Note_on_c, 0, 76, 80
2, 243260, Note_off_c, 0, 88, 100
2, 243260, Note_off_c, 0, 76, 100
2, 243264, Note_on_c, 0, 74, 80
2, 243264, Note_on_c, 0, 86, 80
2, 243452, Note_off_c, 0, 74, 100
2, 243452, Note_off_c, 0, 86, 100
2, 243456, Note_on_c, 0, 72, 80
2, 243456, Note_on_c, 0, 84, 80
2, 243836, Note_off_c, 0, 72, 100
2, 243836, Note_off_c, 0, 84, 100
2, 244416, Note_on_c, 0, 84, 120
2, 244464, Note_on_c, 0, 86, 120
2, 244508, Note_off_c, 0, 84, 100
2, 244512, Note_on_c, 0, 83, 120
2, 244556, Note_off_c, 0, 86, 100
2, 244560, Note_on_c, 0, 84, 120
2, 244604, Note_off_c, 0, 83, 100
2, 244604, Note_off_c, 0, 84, 100
2, 244608, Note_on_c, 0, 89, 120
2, 244608, Note_on_c, 0, 77, 120
2, 244988, Note_off_c, 0, 89, 100
2, 244988, Note_off_c, 0, 77, 100
2, 244992, Note_on_c, 0, 88, 120
2, 244992, Note_on_c, 0, 76, 120
2, 245180, Note_off_c, 0, 88, 100
2, 245180, Note_off_c, 0, 76, 100
2, 245184, Note_on_c, 0, 86, 120
2, 245184, Note_on_c, 0, 74, 120
2, 245564, Note_off_c, 0, 86, 100
2, 245564, Note_off_c, 0, 74, 100
2, 245568, Note_on_c, 0, 84, 120
2, 245568, Note_on_c, 0, 72, 120
2, 245756, Note_off_c, 0, 84, 100
2, 245756, Note_off_c, 0, 72, 100
2, 245760, Note_on_c, 0, 83, 120
2, 245760, Note_on_c, 0, 71, 120
2, 246140, Note_off_c, 0, 83, 100
2, 246140, Note_off_c, 0, 71, 100
2, 246144, Note_on_c, 0, 81, 120
2, 246144, Note_on_c, 0, 69, 120
2, 246332, Note_off_c, 0, 81, 100
2, 246332, Note_off_c, 0, 69, 100
2, 246336, Note_on_c, 0, 79, 120
2, 246336, Note_on_c, 0, 67, 120
2, 246716, Note_off_c, 0, 79, 100
2, 246716, Note_off_c, 0, 67, 100
2, 246720, Note_on_c, 0, 77, 120
2, 246720, Note_on_c, 0, 65, 120
2, 246908, Note_off_c, 0, 77, 100
2, 246908, Note_off_c, 0, 65, 100
2, 246912, Note_on_c, 0, 64, 120
2, 246912, Note_on_c, 0, 76, 120
2, 247292, Note_off_c, 0, 64, 100
2, 247292, Note_off_c, 0, 76, 100
2, 247296, Note_on_c, 0, 74, 120
2, 247296, Note_on_c, 0, 62, 120
2, 247484, Note_off_c, 0, 74, 100
2, 247484, Note_off_c, 0, 62, 100
2, 247488, Note_on_c, 0, 72, 120
2, 247488, Note_on_c, 0, 60, 120
2, 247868, Note_off_c, 0, 72, 100
2, 247868, Note_off_c, 0, 60, 100
2, 247872, Note_on_c, 0, 71, 120
2, 247872, Note_on_c, 0, 59, 120
2, 248060, Note_off_c, 0, 71, 100
2, 248060, Note_off_c, 0, 59, 100
2, 248064, Note_on_c, 0, 69, 120
2, 248064, Note_on_c, 0, 57, 120
2, 248444, Note_off_c, 0, 69, 100
2, 248444, Note_off_c, 0, 57, 100
2, 248448, Note_on_c, 0, 68, 120
2, 248448, Note_on_c, 0, 56, 120
2, 248636, Note_off_c, 0, 68, 100
2, 248636, Note_off_c, 0, 56, 100
2, 248640, Note_on_c, 0, 69, 120
2, 248640, Note_on_c, 0, 57, 120
2, 249020, Note_off_c, 0, 69, 100
2, 249020, Note_off_c, 0, 57, 100
2, 249024, Note_on_c, 0, 66, 120
2, 249024, Note_on_c, 0, 54, 120
2, 249212, Note_off_c, 0, 66, 100
2, 249212, Note_off_c, 0, 54, 100
2, 249216, Note_on_c, 0, 67, 120
2, 249216, Note_on_c, 0, 55, 120
2, 249596, Note_off_c, 0, 67, 100
2, 249596, Note_off_c, 0, 55, 100
2, 250368, Note_on_c, 0, 77, 80
2, 251132, Note_off_c, 0, 77, 100
2, 251136, Note_on_c, 0, 74, 80
2, 251324, Note_off_c, 0, 74, 100
2, 251328, Note_on_c, 0, 71, 80
2, 251516, Note_off_c, 0, 71, 100
2, 251520, Note_on_c, 0, 79, 102
2, 251900, Note_off_c, 0, 79, 100
2, 251904, Note_on_c, 0, 76, 80
2, 251996, Note_off_c, 0, 76, 100
2, 252000, Note_on_c, 0, 72, 80
2, 252092, Note_off_c, 0, 72, 100
2, 252096, Note_on_c, 0, 79, 102
2, 252476, Note_off_c, 0, 79, 100
2, 252480, Note_on_c, 0, 76, 80
2, 252572, Note_off_c, 0, 76, 100
2, 252576, Note_on_c, 0, 72, 80
2, 252668, Note_off_c, 0, 72, 100
2, 252672, Note_on_c, 0, 77, 87
2, 253436, Note_off_c, 0, 77, 100
2, 253440, Note_on_c, 0, 74, 80
2, 253628, Note_off_c, 0, 74, 100
2, 253632, Note_on_c, 0, 71, 80
2, 253820, Note_off_c, 0, 71, 100
2, 253824, Note_on_c, 0, 79, 104
2, 254204, Note_off_c, 0, 79, 100
2, 254208, Note_on_c, 0, 76, 80
2, 254300, Note_off_c, 0, 76, 100
2, 254304, Note_on_c, 0, 72, 80
2, 254396, Note_off_c, 0, 72, 100
2, 254400, Note_on_c, 0, 79, 101
2, 254780, Note_off_c, 0, 79, 100
2, 254784, Note_on_c, 0, 76, 80
2, 254876, Note_off_c, 0, 76, 100
2, 254880, Note_on_c, 0, 72, 80
2, 254972, Note_off_c, 0, 72, 100
2, 254976, Note_on_c, 0, 77, 80
2, 255740, Note_off_c, 0, 77, 100
2, 255744, Note_on_c, 0, 74, 80
2, 255932, Note_off_c, 0, 74, 100
2, 255936, Note_on_c, 0, 71, 80
2, 256124, Note_off_c, 0, 71, 100
2, 256128, Note_on_c, 0, 79, 80
2, 256316, Note_off_c, 0, 79, 100
2, 256320, Note_on_c, 0, 76, 80
2, 256508, Note_off_c, 0, 76, 100
2, 256512, Note_on_c, 0, 71, 80
2, 256700, Note_off_c, 0, 71, 100
2, 256704, Note_on_c, 0, 72, 80
2, 256892, Note_off_c, 0, 72, 100
2, 256896, Note_on_c, 0, 76, 80
2, 257084, Note_off_c, 0, 76, 100
2, 257088, Note_on_c, 0, 68, 80
2, 257276, Note_off_c, 0, 68, 100
2, 257280, Note_on_c, 0, 69, 80
2, 257468, Note_off_c, 0, 69, 100
2, 257472, Note_on_c, 0, 72, 80
2, 257660, Note_off_c, 0, 72, 100
2, 257664, Note_on_c, 0, 64, 80
2, 257852, Note_off_c, 0, 64, 100
2, 257856, Note_on_c, 0, 65, 80
2, 258044, Note_off_c, 0, 65, 100
2, 258048, Note_on_c, 0, 69, 80
2, 258236, Note_off_c, 0, 69, 100
2, 258240, Note_on_c, 0, 61, 80
2, 258428, Note_off_c, 0, 61, 100
2, 258432, Note_on_c, 0, 62, 80
2, 258620, Note_off_c, 0, 62, 100
2, 258624, Note_on_c, 0, 65, 80
2, 258812, Note_off_c, 0, 65, 100
2, 258816, Note_on_c, 0, 64, 80
2, 259004, Note_off_c, 0, 64, 100
2, 259008, Note_on_c, 0, 62, 80
2, 259196, Note_off_c, 0, 62, 100
2, 259200, Note_on_c, 0, 64, 80
2, 259388, Note_off_c, 0, 64, 100
2, 259392, Note_on_c, 0, 65, 80
2, 259580, Note_off_c, 0, 65, 100
2, 259584, Note_on_c, 0, 67, 80
2, 259772, Note_off_c, 0, 67, 100
2, 259776, Note_on_c, 0, 66, 80
2, 259964, Note_off_c, 0, 66, 100
2, 259968, Note_on_c, 0, 67, 80
2, 260156, Note_off_c, 0, 67, 100
2, 260160, Note_on_c, 0, 55, 80
2, 260348, Note_off_c, 0, 55, 100
2, 260352, Note_on_c, 0, 57, 80
2, 260540, Note_off_c, 0, 57, 100
2, 260544, Note_on_c, 0, 59, 80
2, 260732, Note_off_c, 0, 59, 100
2, 260736, Note_on_c, 0, 60, 80
2, 260924, Note_off_c, 0, 60, 100
2, 260928, Note_on_c, 0, 64, 80
2, 261116, Note_off_c, 0, 64, 100
2, 261120, Note_on_c, 0, 67, 80
2, 261308, Note_off_c, 0, 67, 100
2, 261312, Note_on_c, 0, 72, 80
2, 261500, Note_off_c, 0, 72, 100
2, 261504, Note_on_c, 0, 74, 80
2, 261692, Note_off_c, 0, 74, 100
2, 261696, Note_on_c, 0, 76, 80
2, 261884, Note_off_c, 0, 76, 100
2, 261888, Note_on_c, 0, 77, 80
2, 262652, Note_off_c, 0, 77, 100
2, 262656, Note_on_c, 0, 74, 80
2, 262844, Note_off_c, 0, 74, 100
2, 262848, Note_on_c, 0, 71, 80
2, 263036, Note_off_c, 0, 71, 100
2, 263040, Note_on_c, 0, 79, 103
2, 263420, Note_off_c, 0, 79, 100
2, 263424, Note_on_c, 0, 75, 80
2, 263516, Note_off_c, 0, 75, 100
2, 263520, Note_on_c, 0, 72, 80
2, 263612, Note_off_c, 0, 72, 100
2, 263616, Note_on_c, 0, 79, 103
2, 263996, Note_off_c, 0, 79, 100
2, 264000, Note_on_c, 0, 75, 80
2, 264092, Note_off_c, 0, 75, 100
2, 264096, Note_on_c, 0, 72, 80
2, 264188, Note_off_c, 0, 72, 100
2, 264192, Note_on_c, 0, 77, 80
2, 264956, Note_off_c, 0, 77, 100
2, 264960, Note_on_c, 0, 74, 80
2, 265148, Note_off_c, 0, 74, 100
2, 265152, Note_on_c, 0, 71, 80
2, 265340, Note_off_c, 0, 71, 100
2, 265344, Note_on_c, 0, 79, 103
2, 265724, Note_off_c, 0, 79, 100
2, 265728, Note_on_c, 0, 75, 80
2, 265820, Note_off_c, 0, 75, 100
2, 265824, Note_on_c, 0, 72, 80
2, 265916, Note_off_c, 0, 72, 100
2, 265920, Note_on_c, 0, 79, 100
2, 266300, Note_off_c, 0, 79, 100
2, 266304, Note_on_c, 0, 75, 80
2, 266396, Note_off_c, 0, 75, 100
2, 266400, Note_on_c, 0, 72, 80
2, 266492, Note_off_c, 0, 72, 100
2, 266496, Note_on_c, 0, 80, 80
2, 267260, Note_off_c, 0, 80, 100
2, 267264, Note_on_c, 0, 77, 80
2, 267452, Note_off_c, 0, 77, 100
2, 267456, Note_on_c, 0, 74, 80
2, 267644, Note_off_c, 0, 74, 100
2, 267648, Note_on_c, 0, 82, 101
2, 268028, Note_off_c, 0, 82, 100
2, 268032, Note_on_c, 0, 79, 80
2, 268124, Note_off_c, 0, 79, 100
2, 268128, Note_on_c, 0, 75, 80
2, 268220, Note_off_c, 0, 75, 100
2, 268224, Note_on_c, 0, 82, 101
2, 268604, Note_off_c, 0, 82, 100
2, 268608, Note_on_c, 0, 79, 80
2, 268700, Note_off_c, 0, 79, 100
2, 268704, Note_on_c, 0, 75, 80
2, 268796, Note_off_c, 0, 75, 100
2, 268800, Note_on_c, 0, 80, 80
2, 269564, Note_off_c, 0, 80, 100
2, 269568, Note_on_c, 0, 77, 80
2, 269756, Note_off_c, 0, 77, 100
2, 269760, Note_on_c, 0, 74, 80
2, 269948, Note_off_c, 0, 74, 100
2, 269952, Note_on_c, 0, 82, 80
2, 270140, Note_off_c, 0, 82, 100
2, 270144, Note_on_c, 0, 79, 80
2, 270332, Note_off_c, 0, 79, 100
2, 270336, Note_on_c, 0, 74, 80
2, 270524, Note_off_c, 0, 74, 100
2, 270528, Note_on_c, 0, 75, 80
2, 270716, Note_off_c, 0, 75, 100
2, 270720, Note_on_c, 0, 79, 80
2, 270908, Note_off_c, 0, 79, 100
2, 270912, Note_on_c, 0, 71, 80
2, 271100, Note_off_c, 0, 71, 100
2, 271104, Note_on_c, 0, 72, 80
2, 271292, Note_off_c, 0, 72, 100
2, 271296, Note_on_c, 0, 75, 80
2, 271484, Note_off_c, 0, 75, 100
2, 271488, Note_on_c, 0, 67, 80
2, 271676, Note_off_c, 0, 67, 100
2, 271680, Note_on_c, 0, 68, 80
2, 271868, Note_off_c, 0, 68, 100
2, 271872, Note_on_c, 0, 72, 80
2, 272060, Note_off_c, 0, 72, 100
2, 272064, Note_on_c, 0, 64, 80
2, 272252, Note_off_c, 0, 64, 100
2, 272256, Note_on_c, 0, 65, 80
2, 272444, Note_off_c, 0, 65, 100
2, 272448, Note_on_c, 0, 84, 80
2, 272636, Note_off_c, 0, 84, 100
2, 272640, Note_on_c, 0, 76, 80
2, 272828, Note_off_c, 0, 76, 100
2, 272832, Note_on_c, 0, 77, 80
2, 273020, Note_off_c, 0, 77, 100
2, 273024, Note_on_c, 0, 80, 80
2, 273212, Note_off_c, 0, 80, 100
2, 273216, Note_on_c, 0, 73, 80
2, 273404, Note_off_c, 0, 73, 100
2, 273408, Note_on_c, 0, 74, 80
2, 273596, Note_off_c, 0, 74, 100
2, 273600, Note_on_c, 0, 77, 80
2, 273788, Note_off_c, 0, 77, 100
2, 273792, Note_on_c, 0, 69, 80
2, 273980, Note_off_c, 0, 69, 100
2, 273984, Note_on_c, 0, 70, 80
2, 274172, Note_off_c, 0, 70, 100
2, 274176, Note_on_c, 0, 74, 80
2, 274364, Note_off_c, 0, 74, 100
2, 274368, Note_on_c, 0, 66, 80
2, 274556, Note_off_c, 0, 66, 100
2, 274560, Note_on_c, 0, 67, 80
2, 274748, Note_off_c, 0, 67, 100
2, 274752, Note_on_c, 0, 86, 80
2, 274940, Note_off_c, 0, 86, 100
2, 274944, Note_on_c, 0, 78, 80
2, 275132, Note_off_c, 0, 78, 100
2, 275136, Note_on_c, 0, 79, 80
2, 275324, Note_off_c, 0, 79, 100
2, 275328, Note_on_c, 0, 82, 80
2, 275516, Note_off_c, 0, 82, 100
2, 275520, Note_on_c, 0, 74, 80
2, 275708, Note_off_c, 0, 74, 100
2, 275712, Note_on_c, 0, 75, 80
2, 275900, Note_off_c, 0, 75, 100
2, 275904, Note_on_c, 0, 79, 80
2, 276092, Note_off_c, 0, 79, 100
2, 276096, Note_on_c, 0, 71, 80
2, 276284, Note_off_c, 0, 71, 100
2, 276288, Note_on_c, 0, 72, 80
2, 276476, Note_off_c, 0, 72, 100
2, 276480, Note_on_c, 0, 75, 80
2, 276668, Note_off_c, 0, 75, 100
2, 276672, Note_on_c, 0, 67, 80
2, 276860, Note_off_c, 0, 67, 100
2, 276864, Note_on_c, 0, 68, 80
2, 277052, Note_off_c, 0, 68, 100
2, 277056, Note_on_c, 0, 72, 80
2, 277244, Note_off_c, 0, 72, 100
2, 277248, Note_on_c, 0, 64, 80
2, 277436, Note_off_c, 0, 64, 100
2, 277440, Note_on_c, 0, 65, 80
2, 277628, Note_off_c, 0, 65, 100
2, 277632, Note_on_c, 0, 68, 80
2, 277820, Note_off_c, 0, 68, 100
2, 277824, Note_on_c, 0, 61, 80
2, 278012, Note_off_c, 0, 61, 100
2, 278016, Note_on_c, 0, 62, 80
2, 278204, Note_off_c, 0, 62, 100
2, 278208, Note_on_c, 0, 65, 80
2, 278396, Note_off_c, 0, 65, 100
2, 278400, Note_on_c, 0, 58, 80
2, 278588, Note_off_c, 0, 58, 100
2, 278592, Note_on_c, 0, 59, 80
2, 278780, Note_off_c, 0, 59, 100
2, 278784, Note_on_c, 0, 62, 80
2, 278972, Note_off_c, 0, 62, 100
2, 278976, Note_on_c, 0, 54, 80
2, 279164, Note_off_c, 0, 54, 100
2, 279168, Note_on_c, 0, 55, 80
2, 279356, Note_off_c, 0, 55, 100
2, 279360, Note_on_c, 0, 59, 80
2, 279548, Note_off_c, 0, 59, 100
2, 279552, Note_on_c, 0, 50, 80
2, 279740, Note_off_c, 0, 50, 100
2, 279744, Note_on_c, 0, 51, 80
2, 279932, Note_off_c, 0, 51, 100
2, 279936, Note_on_c, 0, 55, 80
2, 280124, Note_off_c, 0, 55, 100
2, 280128, Note_on_c, 0, 47, 80
2, 280316, Note_off_c, 0, 47, 100
2, 280320, Note_on_c, 0, 48, 100
2, 280508, Note_off_c, 0, 48, 100
2, 280512, Note_on_c, 0, 51, 100
2, 280700, Note_off_c, 0, 51, 100
2, 280704, Note_on_c, 0, 43, 100
2, 280892, Note_off_c, 0, 43, 100
2, 280896, Note_on_c, 0, 44, 100
2, 281084, Note_off_c, 0, 44, 100
2, 281088, Note_on_c, 0, 48, 100
2, 281276, Note_off_c, 0, 48, 100
2, 281280, Note_on_c, 0, 42, 100
2, 281468, Note_off_c, 0, 42, 100
2, 281472, Note_on_c, 0, 43, 80
2, 281660, Note_off_c, 0, 43, 100
2, 281664, Note_on_c, 0, 47, 80
2, 281852, Note_off_c, 0, 47, 100
2, 281856, Note_on_c, 0, 50, 80
2, 282044, Note_off_c, 0, 50, 100
2, 282048, Note_on_c, 0, 55, 80
2, 282236, Note_off_c, 0, 55, 100
2, 282240, Note_on_c, 0, 57, 80
2, 282428, Note_off_c, 0, 57, 100
2, 282432, Note_on_c, 0, 59, 80
2, 282620, Note_off_c, 0, 59, 100
2, 282624, Note_on_c, 0, 60, 80
2, 282812, Note_off_c, 0, 60, 100
2, 282816, Note_on_c, 0, 55, 80
2, 283004, Note_off_c, 0, 55, 100
2, 283008, Note_on_c, 0, 62, 80
2, 283196, Note_off_c, 0, 62, 100
2, 283200, Note_on_c, 0, 63, 80
2, 283388, Note_off_c, 0, 63, 100
2, 283392, Note_on_c, 0, 55, 80
2, 283580, Note_off_c, 0, 55, 100
2, 283584, Note_on_c, 0, 66, 80
2, 283772, Note_off_c, 0, 66, 100
2, 283776, Note_on_c, 0, 55, 101
2, 283776, Note_on_c, 0, 67, 80
2, 284348, Note_off_c, 0, 67, 100
2, 284352, Note_on_c, 0, 65, 80
2, 284924, Note_off_c, 0, 65, 100
2, 284928, Note_on_c, 0, 63, 80
2, 285500, Note_off_c, 0, 63, 100
2, 285504, Note_on_c, 0, 60, 80
2, 286076, Note_off_c, 0, 55, 100
2, 286076, Note_off_c, 0, 60, 100
2, 286272, Note_on_c, 0, 59, 80
2, 286460, Note_off_c, 0, 59, 100
2, 286464, Note_on_c, 0, 62, 80
2, 286652, Note_off_c, 0, 62, 100
2, 286656, Note_on_c, 0, 67, 80
2, 286844, Note_off_c, 0, 67, 100
2, 286848, Note_on_c, 0, 69, 80
2, 287036, Note_off_c, 0, 69, 100
2, 287040, Note_on_c, 0, 71, 80
2, 287228, Note_off_c, 0, 71, 100
2, 287232, Note_on_c, 0, 72, 80
2, 287420, Note_off_c, 0, 72, 100
2, 287424, Note_on_c, 0, 67, 80
2, 287612, Note_off_c, 0, 67, 100
2, 287616, Note_on_c, 0, 74, 80
2, 287804, Note_off_c, 0, 74, 100
2, 287808, Note_on_c, 0, 75, 80
2, 287996, Note_off_c, 0, 75, 100
2, 288000, Note_on_c, 0, 67, 80
2, 288188, Note_off_c, 0, 67, 100
2, 288192, Note_on_c, 0, 78, 80
2, 288380, Note_off_c, 0, 78, 100
2, 288384, Note_on_c, 0, 67, 102
2, 288384, Note_on_c, 0, 79, 80
2, 288956, Note_off_c, 0, 79, 100
2, 288960, Note_on_c, 0, 77, 80
2, 289532, Note_off_c, 0, 77, 100
2, 289536, Note_on_c, 0, 75, 80
2, 290108, Note_off_c, 0, 75, 100
2, 290112, Note_on_c, 0, 72, 80
2, 290684, Note_off_c, 0, 67, 100
2, 290684, Note_off_c, 0, 72, 100
2, 290688, Note_on_c, 0, 71, 80
2, 290876, Note_off_c, 0, 71, 100
2, 290880, Note_on_c, 0, 54, 80
2, 291068, Note_off_c, 0, 54, 100
2, 291072, Note_on_c, 0, 55, 80
2, 291260, Note_off_c, 0, 55, 100
2, 291264, Note_on_c, 0, 57, 80
2, 291452, Note_off_c, 0, 57, 100
2, 291456, Note_on_c, 0, 59, 80
2, 291644, Note_off_c, 0, 59, 100
2, 291648, Note_on_c, 0, 60, 80
2, 291836, Note_off_c, 0, 60, 100
2, 291840, Note_on_c, 0, 62, 80
2, 292028, Note_off_c, 0, 62, 100
2, 292032, Note_on_c, 0, 64, 80
2, 292220, Note_off_c, 0, 64, 100
2, 292224, Note_on_c, 0, 66, 80
2, 292412, Note_off_c, 0, 66, 100
2, 292416, Note_on_c, 0, 67, 80
2, 292604, Note_off_c, 0, 67, 100
2, 292608, Note_on_c, 0, 69, 80
2, 292796, Note_off_c, 0, 69, 100
2, 292800, Note_on_c, 0, 71, 80
2, 292988, Note_off_c, 0, 71, 100
2, 292992, Note_on_c, 0, 59, 80
2, 293180, Note_off_c, 0, 59, 100
2, 293184, Note_on_c, 0, 57, 80
2, 293372, Note_off_c, 0, 57, 100
2, 293376, Note_on_c, 0, 59, 80
2, 293564, Note_off_c, 0, 59, 100
2, 293568, Note_on_c, 0, 60, 80
2, 293756, Note_off_c, 0, 60, 100
2, 293760, Note_on_c, 0, 62, 80
2, 293948, Note_off_c, 0, 62, 100
2, 293952, Note_on_c, 0, 64, 80
2, 294140, Note_off_c, 0, 64, 100
2, 294144, Note_on_c, 0, 66, 80
2, 294332, Note_off_c, 0, 66, 100
2, 294336, Note_on_c, 0, 67, 80
2, 294524, Note_off_c, 0, 67, 100
2, 294528, Note_on_c, 0, 69, 80
2, 294716, Note_off_c, 0, 69, 100
2, 294720, Note_on_c, 0, 71, 80
2, 294908, Note_off_c, 0, 71, 100
2, 294912, Note_on_c, 0, 72, 80
2, 295100, Note_off_c, 0, 72, 100
2, 295104, Note_on_c, 0, 74, 80
2, 295292, Note_off_c, 0, 74, 100
2, 295296, Note_on_c, 0, 67, 80
2, 295296, Note_on_c, 0, 62, 80
2, 295484, Note_off_c, 0, 67, 100
2, 295484, Note_off_c, 0, 62, 100
2, 295488, Note_on_c, 0, 66, 80
2, 295488, Note_on_c, 0, 60, 80
2, 295676, Note_off_c, 0, 66, 100
2, 295676, Note_off_c, 0, 60, 100
2, 295680, Note_on_c, 0, 67, 80
2, 295680, Note_on_c, 0, 62, 80
2, 295868, Note_off_c, 0, 67, 100
2, 295868, Note_off_c, 0, 62, 100
2, 295872, Note_on_c, 0, 69, 80
2, 295872, Note_on_c, 0, 64, 80
2, 295872, Note_on_c, 0, 60, 80
2, 296060, Note_off_c, 0, 69, 100
2, 296060, Note_off_c, 0, 64, 100
2, 296060, Note_off_c, 0, 60, 100
2, 296064, Note_on_c, 0, 71, 80
2, 296064, Note_on_c, 0, 65, 80
2, 296064, Note_on_c, 0, 62, 80
2, 296252, Note_off_c, 0, 71, 100
2, 296252, Note_off_c, 0, 65, 100
2, 296252, Note_off_c, 0, 62, 100
2, 296256, Note_on_c, 0, 72, 80
2, 296256, Note_on_c, 0, 67, 80
2, 296256, Note_on_c, 0, 64, 80
2, 296444, Note_off_c, 0, 72, 100
2, 296444, Note_off_c, 0, 67, 100
2, 296444, Note_off_c, 0, 64, 100
2, 296448, Note_on_c, 0, 74, 80
2, 296448, Note_on_c, 0, 69, 80
2, 296448, Note_on_c, 0, 65, 80
2, 296636, Note_off_c, 0, 74, 100
2, 296636, Note_off_c, 0, 69, 100
2, 296636, Note_off_c, 0, 65, 100
2, 296640, Note_on_c, 0, 76, 80
2, 296640, Note_on_c, 0, 71, 80
2, 296640, Note_on_c, 0, 67, 80
2, 296828, Note_off_c, 0, 76, 100
2, 296828, Note_off_c, 0, 71, 100
2, 296828, Note_off_c, 0, 67, 100
2, 296832, Note_on_c, 0, 77, 80
2, 296832, Note_on_c, 0, 72, 80
2, 296832, Note_on_c, 0, 69, 80
2, 297020, Note_off_c, 0, 77, 100
2, 297020, Note_off_c, 0, 72, 100
2, 297020, Note_off_c, 0, 69, 100
2, 297024, Note_on_c, 0, 79, 80
2, 297024, Note_on_c, 0, 74, 80
2, 297024, Note_on_c, 0, 71, 80
2, 297212, Note_off_c, 0, 79, 100
2, 297212, Note_off_c, 0, 74, 100
2, 297212, Note_off_c, 0, 71, 100
2, 297216, Note_on_c, 0, 81, 80
2, 297216, Note_on_c, 0, 76, 80
2, 297216, Note_on_c, 0, 72, 80
2, 297216, Note_on_c, 0, 84, 80
2, 297308, Note_off_c, 0, 84, 100
2, 297404, Note_off_c, 0, 81, 100
2, 297404, Note_off_c, 0, 76, 100
2, 297404, Note_off_c, 0, 72, 100
2, 297408, Note_on_c, 0, 83, 80
2, 297408, Note_on_c, 0, 77, 80
2, 297408, Note_on_c, 0, 74, 80
2, 297596, Note_off_c, 0, 83, 100
2, 297596, Note_off_c, 0, 77, 100
2, 297596, Note_off_c, 0, 74, 100
2, 297600, Note_on_c, 0, 84, 110
2, 297648, Note_on_c, 0, 86, 110
2, 297692, Note_off_c, 0, 84, 100
2, 297696, Note_on_c, 0, 84, 110
2, 297740, Note_off_c, 0, 86, 100
2, 297744, Note_on_c, 0, 86, 110
2, 297788, Note_off_c, 0, 84, 100
2, 297792, Note_on_c, 0, 84, 110
2, 297836, Note_off_c, 0, 86, 100
2, 297840, Note_on_c, 0, 86, 110
2, 297884, Note_off_c, 0, 84, 100
2, 297888, Note_on_c, 0, 84, 110
2, 297932, Note_off_c, 0, 86, 100
2, 297936, Note_on_c, 0, 86, 110
2, 297980, Note_off_c, 0, 84, 100
2, 297984, Note_on_c, 0, 84, 110
2, 298028, Note_off_c, 0, 86, 100
2, 298032, Note_on_c, 0, 86, 110
2, 298076, Note_off_c, 0, 84, 100
2, 298080, Note_on_c, 0, 84, 110
2, 298124, Note_off_c, 0, 86, 100
2, 298128, Note_on_c, 0, 86, 110
2, 298172, Note_off_c, 0, 84, 100
2, 298176, Note_on_c, 0, 84, 110
2, 298220, Note_off_c, 0, 86, 100
2, 298224, Note_on_c, 0, 86, 110
2, 298268, Note_off_c, 0, 84, 100
2, 298272, Note_on_c, 0, 84, 110
2, 298316, Note_off_c, 0, 86, 100
2, 298320, Note_on_c, 0, 86, 110
2, 298364, Note_off_c, 0, 84, 100
2, 298368, Note_on_c, 0, 84, 110
2, 298412, Note_off_c, 0, 86, 100
2, 298416, Note_on_c, 0, 86, 110
2, 298460, Note_off_c, 0, 84, 100
2, 298464, Note_on_c, 0, 84, 110
2, 298508, Note_off_c, 0, 86, 100
2, 298512, Note_on_c, 0, 86, 110
2, 298556, Note_off_c, 0, 84, 100
2, 298560, Note_on_c, 0, 84, 110
2, 298604, Note_off_c, 0, 86, 100
2, 298608, Note_on_c, 0, 86, 110
2, 298652, Note_off_c, 0, 84, 100
2, 298656, Note_on_c, 0, 84, 110
2, 298700, Note_off_c, 0, 86, 100
2, 298704, Note_on_c, 0, 86, 110
2, 298748, Note_off_c, 0, 84, 100
2, 298752, Note_on_c, 0, 84, 110
2, 298796, Note_off_c, 0, 86, 100
2, 298800, Note_on_c, 0, 86, 110
2, 298844, Note_off_c, 0, 84, 100
2, 298848, Note_on_c, 0, 84, 110
2, 298892, Note_off_c, 0, 86, 100
2, 298896, Note_on_c, 0, 86, 110
2, 298940, Note_off_c, 0, 84, 100
2, 298944, Note_on_c, 0, 84, 110
2, 298988, Note_off_c, 0, 86, 100
2, 298992, Note_on_c, 0, 86, 110
2, 299036, Note_off_c, 0, 84, 100
2, 299040, Note_on_c, 0, 84, 110
2, 299084, Note_off_c, 0, 86, 100
2, 299088, Note_on_c, 0, 86, 110
2, 299132, Note_off_c, 0, 84, 100
2, 299136, Note_on_c, 0, 84, 110
2, 299180, Note_off_c, 0, 86, 100
2, 299184, Note_on_c, 0, 86, 110
2, 299228, Note_off_c, 0, 84, 100
2, 299232, Note_on_c, 0, 84, 110
2, 299276, Note_off_c, 0, 86, 100
2, 299280, Note_on_c, 0, 86, 110
2, 299324, Note_off_c, 0, 84, 100
2, 299328, Note_on_c, 0, 84, 110
2, 299372, Note_off_c, 0, 86, 100
2, 299376, Note_on_c, 0, 86, 110
2, 299420, Note_off_c, 0, 84, 100
2, 299424, Note_on_c, 0, 84, 110
2, 299468, Note_off_c, 0, 86, 100
2, 299472, Note_on_c, 0, 86, 110
2, 299516, Note_off_c, 0, 84, 100
2, 299520, Note_on_c, 0, 84, 110
2, 299564, Note_off_c, 0, 86, 100
2, 299568, Note_on_c, 0, 86, 110
2, 299612, Note_off_c, 0, 84, 100
2, 299616, Note_on_c, 0, 84, 110
2, 299660, Note_off_c, 0, 86, 100
2, 299664, Note_on_c, 0, 86, 110
2, 299708, Note_off_c, 0, 84, 100
2, 299712, Note_on_c, 0, 84, 110
2, 299756, Note_off_c, 0, 86, 100
2, 299760, Note_on_c, 0, 86, 110
2, 299804, Note_off_c, 0, 84, 100
2, 299808, Note_on_c, 0, 84, 110
2, 299852, Note_off_c, 0, 86, 100
2, 299856, Note_on_c, 0, 86, 110
2, 299900, Note_off_c, 0, 84, 100
2, 299904, Note_on_c, 0, 84, 110
2, 299948, Note_off_c, 0, 86, 100
2, 299952, Note_on_c, 0, 86, 110
2, 299996, Note_off_c, 0, 84, 100
2, 300000, Note_on_c, 0, 84, 110
2, 300044, Note_off_c, 0, 86, 100
2, 300048, Note_on_c, 0, 86, 110
2, 300092, Note_off_c, 0, 84, 100
2, 300096, Note_on_c, 0, 84, 110
2, 300140, Note_off_c, 0, 86, 100
2, 300144, Note_on_c, 0, 86, 110
2, 300188, Note_off_c, 0, 84, 100
2, 300192, Note_on_c, 0, 84, 110
2, 300236, Note_off_c, 0, 86, 100
2, 300240, Note_on_c, 0, 86, 110
2, 300284, Note_off_c, 0, 84, 100
2, 300288, Note_on_c, 0, 84, 110
2, 300332, Note_off_c, 0, 86, 100
2, 300336, Note_on_c, 0, 86, 110
2, 300380, Note_off_c, 0, 84, 100
2, 300384, Note_on_c, 0, 84, 110
2, 300428, Note_off_c, 0, 86, 100
2, 300432, Note_on_c, 0, 86, 110
2, 300476, Note_off_c, 0, 84, 100
2, 300480, Note_on_c, 0, 84, 110
2, 300524, Note_off_c, 0, 86, 100
2, 300528, Note_on_c, 0, 86, 110
2, 300572, Note_off_c, 0, 84, 100
2, 300576, Note_on_c, 0, 84, 110
2, 300620, Note_off_c, 0, 86, 100
2, 300624, Note_on_c, 0, 86, 110
2, 300668, Note_off_c, 0, 84, 100
2, 300672, Note_on_c, 0, 84, 110
2, 300716, Note_off_c, 0, 86, 100
2, 300720, Note_on_c, 0, 86, 110
2, 300764, Note_off_c, 0, 84, 100
2, 300768, Note_on_c, 0, 84, 110
2, 300812, Note_off_c, 0, 86, 100
2, 300816, Note_on_c, 0, 86, 110
2, 300860, Note_off_c, 0, 84, 100
2, 300864, Note_on_c, 0, 84, 110
2, 300908, Note_off_c, 0, 86, 100
2, 300912, Note_on_c, 0, 86, 110
2, 300956, Note_off_c, 0, 84, 100
2, 300960, Note_on_c, 0, 84, 110
2, 301004, Note_off_c, 0, 86, 100
2, 301008, Note_on_c, 0, 86, 110
2, 301052, Note_off_c, 0, 84, 100
2, 301056, Note_on_c, 0, 84, 110
2, 301100, Note_off_c, 0, 86, 100
2, 301104, Note_on_c, 0, 86, 110
2, 301148, Note_off_c, 0, 84, 100
2, 301152, Note_on_c, 0, 84, 110
2, 301196, Note_off_c, 0, 86, 100
2, 301200, Note_on_c, 0, 86, 110
2, 301244, Note_off_c, 0, 84, 100
2, 301248, Note_on_c, 0, 84, 110
2, 301292, Note_off_c, 0, 86, 100
2, 301296, Note_on_c, 0, 86, 110
2, 301340, Note_off_c, 0, 84, 100
2, 301344, Note_on_c, 0, 84, 110
2, 301388, Note_off_c, 0, 86, 100
2, 301392, Note_on_c, 0, 86, 110
2, 301436, Note_off_c, 0, 84, 100
2, 301440, Note_on_c, 0, 84, 110
2, 301484, Note_off_c, 0, 86, 100
2, 301488, Note_on_c, 0, 86, 110
2, 301532, Note_off_c, 0, 84, 100
2, 301536, Note_on_c, 0, 84, 110
2, 301580, Note_off_c, 0, 86, 100
2, 301584, Note_on_c, 0, 86, 110
2, 301628, Note_off_c, 0, 84, 100
2, 301632, Note_on_c, 0, 84, 110
2, 301676, Note_off_c, 0, 86, 100
2, 301680, Note_on_c, 0, 86, 110
2, 301724, Note_off_c, 0, 84, 100
2, 301728, Note_on_c, 0, 84, 110
2, 301772, Note_off_c, 0, 86, 100
2, 301776, Note_on_c, 0, 86, 110
2, 301820, Note_off_c, 0, 84, 100
2, 301824, Note_on_c, 0, 84, 110
2, 301868, Note_off_c, 0, 86, 100
2, 301872, Note_on_c, 0, 86, 110
2, 301916, Note_off_c, 0, 84, 100
2, 301920, Note_on_c, 0, 84, 110
2, 301964, Note_off_c, 0, 86, 100
2, 301968, Note_on_c, 0, 86, 110
2, 302012, Note_off_c, 0, 84, 100
2, 302016, Note_on_c, 0, 84, 110
2, 302060, Note_off_c, 0, 86, 100
2, 302064, Note_on_c, 0, 86, 110
2, 302108, Note_off_c, 0, 84, 100
2, 302112, Note_on_c, 0, 84, 110
2, 302156, Note_off_c, 0, 86, 100
2, 302160, Note_on_c, 0, 86, 110
2, 302204, Note_off_c, 0, 84, 100
2, 302208, Note_on_c, 0, 84, 110
2, 302252, Note_off_c, 0, 86, 100
2, 302256, Note_on_c, 0, 86, 110
2, 302300, Note_off_c, 0, 84, 100
2, 302304, Note_on_c, 0, 84, 110
2, 302348, Note_off_c, 0, 86, 100
2, 302352, Note_on_c, 0, 86, 110
2, 302396, Note_off_c, 0, 84, 100
2, 302400, Note_on_c, 0, 84, 110
2, 302444, Note_off_c, 0, 86, 100
2, 302448, Note_on_c, 0, 86, 110
2, 302492, Note_off_c, 0, 84, 100
2, 302496, Note_on_c, 0, 84, 110
2, 302540, Note_off_c, 0, 86, 100
2, 302544, Note_on_c, 0, 86, 110
2, 302588, Note_off_c, 0, 84, 100
2, 302592, Note_on_c, 0, 84, 110
2, 302636, Note_off_c, 0, 86, 100
2, 302640, Note_on_c, 0, 86, 110
2, 302684, Note_off_c, 0, 84, 100
2, 302688, Note_on_c, 0, 84, 110
2, 302732, Note_off_c, 0, 86, 100
2, 302736, Note_on_c, 0, 86, 110
2, 302780, Note_off_c, 0, 84, 100
2, 302784, Note_on_c, 0, 84, 110
2, 302828, Note_off_c, 0, 86, 100
2, 302832, Note_on_c, 0, 86, 110
2, 302876, Note_off_c, 0, 84, 100
2, 302880, Note_on_c, 0, 84, 110
2, 302924, Note_off_c, 0, 86, 100
2, 302928, Note_on_c, 0, 86, 110
2, 302972, Note_off_c, 0, 84, 100
2, 302976, Note_on_c, 0, 84, 110
2, 303020, Note_off_c, 0, 86, 100
2, 303024, Note_on_c, 0, 86, 110
2, 303068, Note_off_c, 0, 84, 100
2, 303072, Note_on_c, 0, 84, 110
2, 303116, Note_off_c, 0, 86, 100
2, 303120, Note_on_c, 0, 86, 110
2, 303164, Note_off_c, 0, 84, 100
2, 303168, Note_on_c, 0, 84, 110
2, 303212, Note_off_c, 0, 86, 100
2, 303216, Note_on_c, 0, 86, 110
2, 303260, Note_off_c, 0, 84, 100
2, 303264, Note_on_c, 0, 84, 110
2, 303308, Note_off_c, 0, 86, 100
2, 303312, Note_on_c, 0, 86, 110
2, 303356, Note_off_c, 0, 84, 100
2, 303360, Note_on_c, 0, 84, 110
2, 303404, Note_off_c, 0, 86, 100
2, 303408, Note_on_c, 0, 86, 110
2, 303452, Note_off_c, 0, 84, 100
2, 303456, Note_on_c, 0, 84, 110
2, 303500, Note_off_c, 0, 86, 100
2, 303504, Note_on_c, 0, 86, 110
2, 303548, Note_off_c, 0, 84, 100
2, 303552, Note_on_c, 0, 84, 110
2, 303596, Note_off_c, 0, 86, 100
2, 303600, Note_on_c, 0, 86, 110
2, 303644, Note_off_c, 0, 84, 100
2, 303648, Note_on_c, 0, 84, 110
2, 303692, Note_off_c, 0, 86, 100
2, 303696, Note_on_c, 0, 86, 110
2, 303740, Note_off_c, 0, 84, 100
2, 303744, Note_on_c, 0, 84, 110
2, 303788, Note_off_c, 0, 86, 100
2, 303792, Note_on_c, 0, 86, 110
2, 303836, Note_off_c, 0, 84, 100
2, 303840, Note_on_c, 0, 84, 110
2, 303884, Note_off_c, 0, 86, 100
2, 303888, Note_on_c, 0, 86, 110
2, 303932, Note_off_c, 0, 84, 100
2, 303936, Note_on_c, 0, 84, 110
2, 303980, Note_off_c, 0, 86, 100
2, 303984, Note_on_c, 0, 86, 110
2, 304028, Note_off_c, 0, 84, 100
2, 304032, Note_on_c, 0, 84, 110
2, 304076, Note_off_c, 0, 86, 100
2, 304080, Note_on_c, 0, 86, 110
2, 304124, Note_off_c, 0, 84, 100
2, 304128, Note_on_c, 0, 84, 110
2, 304172, Note_off_c, 0, 86, 100
2, 304176, Note_on_c, 0, 86, 110
2, 304220, Note_off_c, 0, 84, 100
2, 304224, Note_on_c, 0, 84, 110
2, 304268, Note_off_c, 0, 86, 100
2, 304272, Note_on_c, 0, 86, 110
2, 304316, Note_off_c, 0, 84, 100
2, 304320, Note_on_c, 0, 84, 110
2, 304364, Note_off_c, 0, 86, 100
2, 304368, Note_on_c, 0, 86, 110
2, 304412, Note_off_c, 0, 84, 100
2, 304416, Note_on_c, 0, 83, 110
2, 304460, Note_off_c, 0, 86, 100
2, 304464, Note_on_c, 0, 84, 110
2, 304508, Note_off_c, 0, 83, 100
2, 304508, Note_off_c, 0, 84, 100
2, 304512, Note_on_c, 0, 81, 120
2, 304512, Note_on_c, 0, 84, 120
2, 304512, Note_on_c, 0, 89, 120
2, 304892, Note_off_c, 0, 81, 100
2, 304892, Note_off_c, 0, 84, 100
2, 304892, Note_off_c, 0, 89, 100
2, 304896, Note_on_c, 0, 88, 120
2, 304896, Note_on_c, 0, 84, 120
2, 304896, Note_on_c, 0, 79, 120
2, 305084, Note_off_c, 0, 88, 100
2, 305084, Note_off_c, 0, 84, 100
2, 305084, Note_off_c, 0, 79, 100
2, 305088, Note_on_c, 0, 81, 120
2, 305088, Note_on_c, 0, 84, 120
2, 305088, Note_on_c, 0, 89, 120
2, 305468, Note_off_c, 0, 81, 100
2, 305468, Note_off_c, 0, 84, 100
2, 305468, Note_off_c, 0, 89, 100
2, 305472, Note_on_c, 0, 88, 120
2, 305472, Note_on_c, 0, 84, 120
2, 305472, Note_on_c, 0, 79, 120
2, 305660, Note_off_c, 0, 88, 100
2, 305660, Note_off_c, 0, 84, 100
2, 305660, Note_off_c, 0, 79, 100
2, 305664, Note_on_c, 0, 87, 120
2, 305664, Note_on_c, 0, 84, 120
2, 305664, Note_on_c, 0, 78, 120
2, 306044, Note_off_c, 0, 87, 100
2, 306044, Note_off_c, 0, 84, 100
2, 306044, Note_off_c, 0, 78, 100
2, 306816, Note_on_c, 0, 79, 120
2, 306816, Note_on_c, 0, 84, 120
2, 306816, Note_on_c, 0, 88, 120
2, 307196, Note_off_c, 0, 79, 100
2, 307196, Note_off_c, 0, 84, 100
2, 307196, Note_off_c, 0, 88, 100
2, 307200, Note_on_c, 0, 78, 120
2, 307200, Note_on_c, 0, 84, 120
2, 307200, Note_on_c, 0, 87, 120
2, 307388, Note_off_c, 0, 78, 100
2, 307388, Note_off_c, 0, 84, 100
2, 307388, Note_off_c, 0, 87, 100
2, 307392, Note_on_c, 0, 79, 120
2, 307392, Note_on_c, 0, 84, 120
2, 307392, Note_on_c, 0, 88, 120
2, 307772, Note_off_c, 0, 79, 100
2, 307772, Note_off_c, 0, 84, 100
2, 307772, Note_off_c, 0, 88, 100
2, 307776, Note_on_c, 0, 77, 120
2, 307776, Note_on_c, 0, 84, 120
2, 307776, Note_on_c, 0, 86, 120
2, 307964, Note_off_c, 0, 77, 100
2, 307964, Note_off_c, 0, 84, 100
2, 307964, Note_off_c, 0, 86, 100
2, 307968, Note_on_c, 0, 76, 120
2, 307968, Note_on_c, 0, 84, 120
2, 308348, Note_off_c, 0, 76, 100
2, 308348, Note_off_c, 0, 84, 100
2, 308928, Note_on_c, 0, 84, 100
2, 309116, Note_off_c, 0, 84, 100
2, 309120, Note_on_c, 0, 89, 120
2, 309120, Note_on_c, 0, 84, 120
2, 309308, Note_off_c, 0, 89, 100
2, 309308, Note_off_c, 0, 84, 100
2, 309312, Note_on_c, 0, 87, 120
2, 309312, Note_on_c, 0, 81, 120
2, 309500, Note_off_c, 0, 87, 100
2, 309500, Note_off_c, 0, 81, 100
2, 309504, Note_on_c, 0, 88, 120
2, 309504, Note_on_c, 0, 83, 120
2, 309692, Note_off_c, 0, 88, 100
2, 309692, Note_off_c, 0, 83, 100
2, 309696, Note_on_c, 0, 85, 120
2, 309696, Note_on_c, 0, 79, 120
2, 309884, Note_off_c, 0, 85, 100
2, 309884, Note_off_c, 0, 79, 100
2, 309888, Note_on_c, 0, 86, 120
2, 309888, Note_on_c, 0, 81, 120
2, 310076, Note_off_c, 0, 86, 100
2, 310076, Note_off_c, 0, 81, 100
2, 310080, Note_on_c, 0, 83, 120
2, 310080, Note_on_c, 0, 77, 120
2, 310268, Note_off_c, 0, 83, 100
2, 310268, Note_off_c, 0, 77, 100
2, 310272, Note_on_c, 0, 84, 120
2, 310272, Note_on_c, 0, 79, 120
2, 310460, Note_off_c, 0, 84, 100
2, 310460, Note_off_c, 0, 79, 100
2, 310464, Note_on_c, 0, 82, 120
2, 310464, Note_on_c, 0, 76, 120
2, 310652, Note_off_c, 0, 82, 100
2, 310652, Note_off_c, 0, 76, 100
2, 310656, Note_on_c, 0, 83, 120
2, 310656, Note_on_c, 0, 77, 120
2, 310844, Note_off_c, 0, 83, 100
2, 310844, Note_off_c, 0, 77, 100
2, 310848, Note_on_c, 0, 80, 120
2, 310848, Note_on_c, 0, 74, 120
2, 311036, Note_off_c, 0, 80, 100
2, 311036, Note_off_c, 0, 74, 100
2, 311040, Note_on_c, 0, 81, 120
2, 311040, Note_on_c, 0, 76, 120
2, 311228, Note_off_c, 0, 81, 100
2, 311228, Note_off_c, 0, 76, 100
2, 311232, Note_on_c, 0, 78, 120
2, 311232, Note_on_c, 0, 72, 120
2, 311420, Note_off_c, 0, 78, 100
2, 311420, Note_off_c, 0, 72, 100
2, 311424, Note_on_c, 0, 79, 120
2, 311424, Note_on_c, 0, 74, 120
2, 311612, Note_off_c, 0, 79, 100
2, 311612, Note_off_c, 0, 74, 100
2, 311616, Note_on_c, 0, 76, 120
2, 311616, Note_on_c, 0, 71, 120
2, 311804, Note_off_c, 0, 76, 100
2, 311804, Note_off_c, 0, 71, 100
2, 311808, Note_on_c, 0, 77, 120
2, 311808, Note_on_c, 0, 72, 120
2, 311996, Note_off_c, 0, 77, 100
2, 311996, Note_off_c, 0, 72, 100
2, 312000, Note_on_c, 0, 75, 120
2, 312000, Note_on_c, 0, 69, 120
2, 312188, Note_off_c, 0, 75, 100
2, 312188, Note_off_c, 0, 69, 100
2, 312192, Note_on_c, 0, 76, 120
2, 312192, Note_on_c, 0, 71, 120
2, 312380, Note_off_c, 0, 76, 100
2, 312380, Note_off_c, 0, 71, 100
2, 312384, Note_on_c, 0, 73, 120
2, 312384, Note_on_c, 0, 67, 120
2, 312572, Note_off_c, 0, 73, 100
2, 312572, Note_off_c, 0, 67, 100
2, 312576, Note_on_c, 0, 74, 120
2, 312576, Note_on_c, 0, 69, 120
2, 312764, Note_off_c, 0, 74, 100
2, 312764, Note_off_c, 0, 69, 100
2, 312768, Note_on_c, 0, 71, 120
2, 312768, Note_on_c, 0, 65, 120
2, 312956, Note_off_c, 0, 71, 100
2, 312956, Note_off_c, 0, 65, 100
2, 312960, Note_on_c, 0, 72, 120
2, 312960, Note_on_c, 0, 67, 120
2, 313148, Note_off_c, 0, 72, 100
2, 313148, Note_off_c, 0, 67, 100
2, 313152, Note_on_c, 0, 70, 120
2, 313152, Note_on_c, 0, 64, 120
2, 313340, Note_off_c, 0, 70, 100
2, 313340, Note_off_c, 0, 64, 100
2, 313344, Note_on_c, 0, 71, 120
2, 313344, Note_on_c, 0, 65, 120
2, 313532, Note_off_c, 0, 71, 100
2, 313532, Note_off_c, 0, 65, 100
2, 313536, Note_on_c, 0, 68, 120
2, 313536, Note_on_c, 0, 62, 120
2, 313724, Note_off_c, 0, 68, 100
2, 313724, Note_off_c, 0, 62, 100
2, 313728, Note_on_c, 0, 69, 110
2, 313728, Note_on_c, 0, 64, 110
2, 313916, Note_off_c, 0, 69, 100
2, 313916, Note_off_c, 0, 64, 100
2, 313920, Note_on_c, 0, 71, 110
2, 313920, Note_on_c, 0, 62, 110
2, 314108, Note_off_c, 0, 71, 100
2, 314108, Note_off_c, 0, 62, 100
2, 314112, Note_on_c, 0, 72, 110
2, 314112, Note_on_c, 0, 60, 110
2, 314300, Note_off_c, 0, 72, 100
2, 314300, Note_off_c, 0, 60, 100
2, 314304, Note_on_c, 0, 71, 110
2, 314304, Note_on_c, 0, 65, 110
2, 314492, Note_off_c, 0, 71, 100
2, 314492, Note_off_c, 0, 65, 100
2, 314496, Note_on_c, 0, 72, 111
2, 314496, Note_on_c, 0, 64, 111
2, 314684, Note_off_c, 0, 72, 100
2, 314684, Note_off_c, 0, 64, 100
2, 314688, Note_on_c, 0, 74, 111
2, 314688, Note_on_c, 0, 62, 111
2, 314876, Note_off_c, 0, 74, 100
2, 314876, Note_off_c, 0, 62, 100
2, 314880, Note_on_c, 0, 72, 111
2, 314880, Note_on_c, 0, 67, 111
2, 315068, Note_off_c, 0, 72, 100
2, 315068, Note_off_c, 0, 67, 100
2, 315072, Note_on_c, 0, 74, 111
2, 315072, Note_on_c, 0, 65, 111
2, 315260, Note_off_c, 0, 74, 100
2, 315260, Note_off_c, 0, 65, 100
2, 315264, Note_on_c, 0, 76, 112
2, 315264, Note_on_c, 0, 64, 112
2, 315452, Note_off_c, 0, 76, 100
2, 315452, Note_off_c, 0, 64, 100
2, 315456, Note_on_c, 0, 74, 112
2, 315456, Note_on_c, 0, 69, 112
2, 315644, Note_off_c, 0, 74, 100
2, 315644, Note_off_c, 0, 69, 100
2, 315648, Note_on_c, 0, 76, 112
2, 315648, Note_on_c, 0, 67, 112
2, 315836, Note_off_c, 0, 76, 100
2, 315836, Note_off_c, 0, 67, 100
2, 315840, Note_on_c, 0, 77, 113
2, 315840, Note_on_c, 0, 65, 113
2, 316028, Note_off_c, 0, 77, 100
2, 316028, Note_off_c, 0, 65, 100
2, 316032, Note_on_c, 0, 76, 113
2, 316032, Note_on_c, 0, 71, 113
2, 316220, Note_off_c, 0, 76, 100
2, 316220, Note_off_c, 0, 71, 100
2, 316224, Note_on_c, 0, 77, 113
2, 316224, Note_on_c, 0, 69, 113
2, 316412, Note_off_c, 0, 77, 100
2, 316412, Note_off_c, 0, 69, 100
2, 316416, Note_on_c, 0, 79, 113
2, 316416, Note_on_c, 0, 67, 113
2, 316604, Note_off_c, 0, 79, 100
2, 316604, Note_off_c, 0, 67, 100
2, 316608, Note_on_c, 0, 77, 114
2, 316608, Note_on_c, 0, 72, 114
2, 316796, Note_off_c, 0, 77, 100
2, 316796, Note_off_c, 0, 72, 100
2, 316800, Note_on_c, 0, 79, 114
2, 316800, Note_on_c, 0, 71, 114
2, 316988, Note_off_c, 0, 79, 100
2, 316988, Note_off_c, 0, 71, 100
2, 316992, Note_on_c, 0, 81, 114
2, 316992, Note_on_c, 0, 69, 114
2, 317180, Note_off_c, 0, 81, 100
2, 317180, Note_off_c, 0, 69, 100
2, 317184, Note_on_c, 0, 79, 115
2, 317184, Note_on_c, 0, 74, 115
2, 317372, Note_off_c, 0, 79, 100
2, 317372, Note_off_c, 0, 74, 100
2, 317376, Note_on_c, 0, 81, 115
2, 317376, Note_on_c, 0, 72, 115
2, 317564, Note_off_c, 0, 81, 100
2, 317564, Note_off_c, 0, 72, 100
2, 317568, Note_on_c, 0, 83, 115
2, 317568, Note_on_c, 0, 71, 115
2, 317756, Note_off_c, 0, 83, 100
2, 317756, Note_off_c, 0, 71, 100
2, 317760, Note_on_c, 0, 81, 115
2, 317760, Note_on_c, 0, 76, 115
2, 317948, Note_off_c, 0, 81, 100
2, 317948, Note_off_c, 0, 76, 100
2, 317952, Note_on_c, 0, 83, 116
2, 317952, Note_on_c, 0, 74, 116
2, 318140, Note_off_c, 0, 83, 100
2, 318140, Note_off_c, 0, 74, 100
2, 318144, Note_on_c, 0, 84, 116
2, 318144, Note_on_c, 0, 72, 116
2, 318332, Note_off_c, 0, 84, 100
2, 318332, Note_off_c, 0, 72, 100
2, 318336, Note_on_c, 0, 83, 116
2, 318336, Note_on_c, 0, 77, 116
2, 318524, Note_off_c, 0, 83, 100
2, 318524, Note_off_c, 0, 77, 100
2, 318528, Note_on_c, 0, 84, 116
2, 318528, Note_on_c, 0, 76, 116
2, 318716, Note_off_c, 0, 84, 100
2, 318716, Note_off_c, 0, 76, 100
2, 318720, Note_on_c, 0, 86, 117
2, 318720, Note_on_c, 0, 74, 117
2, 318908, Note_off_c, 0, 86, 100
2, 318908, Note_off_c, 0, 74, 100
2, 318912, Note_on_c, 0, 84, 117
2, 318912, Note_on_c, 0, 79, 117
2, 319100, Note_off_c, 0, 84, 100
2, 319100, Note_off_c, 0, 79, 100
2, 319104, Note_on_c, 0, 86, 117
2, 319104, Note_on_c, 0, 77, 117
2, 319292, Note_off_c, 0, 86, 100
2, 319292, Note_off_c, 0, 77, 100
2, 319296, Note_on_c, 0, 88, 118
2, 319296, Note_on_c, 0, 76, 118
2, 319484, Note_off_c, 0, 88, 100
2, 319484, Note_off_c, 0, 76, 100
2, 319488, Note_on_c, 0, 84, 118
2, 319488, Note_on_c, 0, 79, 118
2, 319676, Note_off_c, 0, 84, 100
2, 319676, Note_off_c, 0, 79, 100
2, 319680, Note_on_c, 0, 86, 118
2, 319680, Note_on_c, 0, 77, 118
2, 319868, Note_off_c, 0, 86, 100
2, 319868, Note_off_c, 0, 77, 100
2, 319872, Note_on_c, 0, 88, 118
2, 319872, Note_on_c, 0, 76, 118
2, 320060, Note_off_c, 0, 88, 100
2, 320060, Note_off_c, 0, 76, 100
2, 320064, Note_on_c, 0, 84, 119
2, 320064, Note_on_c, 0, 79, 119
2, 320252, Note_off_c, 0, 84, 100
2, 320252, Note_off_c, 0, 79, 100
2, 320256, Note_on_c, 0, 86, 119
2, 320256, Note_on_c, 0, 77, 119
2, 320444, Note_off_c, 0, 86, 100
2, 320444, Note_off_c, 0, 77, 100
2, 320448, Note_on_c, 0, 88, 119
2, 320448, Note_on_c, 0, 76, 119
2, 320636, Note_off_c, 0, 88, 100
2, 320636, Note_off_c, 0, 76, 100
2, 320640, Note_on_c, 0, 86, 120
2, 320640, Note_on_c, 0, 84, 120
2, 320640, Note_on_c, 0, 81, 120
2, 320640, Note_on_c, 0, 74, 120
2, 321404, Note_off_c, 0, 86, 100
2, 321404, Note_off_c, 0, 84, 100
2, 321404, Note_off_c, 0, 81, 100
2, 321404, Note_off_c, 0, 74, 100
2, 321792, Note_on_c, 0, 75, 120
2, 321792, Note_on_c, 0, 78, 120
2, 321792, Note_on_c, 0, 81, 120
2, 321792, Note_on_c, 0, 84, 120
2, 321792, Note_on_c, 0, 87, 120
2, 322556, Note_off_c, 0, 75, 100
2, 322556, Note_off_c, 0, 78, 100
2, 322556, Note_off_c, 0, 81, 100
2, 322556, Note_off_c, 0, 84, 100
2, 322556, Note_off_c, 0, 87, 100
2, 322944, Note_on_c, 0, 76, 120
2, 322944, Note_on_c, 0, 79, 120
2, 322944, Note_on_c, 0, 84, 120
2, 322944, Note_on_c, 0, 88, 120
2, 323324, Note_off_c, 0, 76, 100
2, 323324, Note_off_c, 0, 79, 100
2, 323324, Note_off_c, 0, 84, 100
2, 323324, Note_off_c, 0, 88, 100
2, 323328, Note_on_c, 0, 67, 100
2, 323392, Note_on_c, 0, 69, 100
2, 323452, Note_off_c, 0, 67, 100
2, 323456, Note_on_c, 0, 71, 100
2, 323516, Note_off_c, 0, 69, 100
2, 323520, Note_on_c, 0, 72, 100
2, 323580, Note_off_c, 0, 71, 100
2, 323708, Note_off_c, 0, 72, 100
2, 323712, Note_on_c, 0, 74, 100
2, 323900, Note_off_c, 0, 74, 100
2, 323904, Note_on_c, 0, 76, 99
2, 324092, Note_off_c, 0, 76, 100
2, 324096, Note_on_c, 0, 77, 98
2, 324284, Note_off_c, 0, 77, 100
2, 324288, Note_on_c, 0, 79, 97
2, 324476, Note_off_c, 0, 79, 100
2, 324480, Note_on_c, 0, 81, 96
2, 324668, Note_off_c, 0, 81, 100
2, 324672, Note_on_c, 0, 83, 95
2, 324860, Note_off_c, 0, 83, 100
2, 324864, Note_on_c, 0, 84, 94
2, 325052, Note_off_c, 0, 84, 100
2, 325056, Note_on_c, 0, 86, 93
2, 325244, Note_off_c, 0, 86, 100
2, 325248, Note_on_c, 0, 88, 92
2, 325436, Note_off_c, 0, 88, 100
2, 325440, Note_on_c, 0, 89, 91
2, 325628, Note_off_c, 0, 89, 100
2, 325632, Note_on_c, 0, 86, 80
2, 325820, Note_off_c, 0, 86, 100
2, 325824, Note_on_c, 0, 88, 80
2, 326012, Note_off_c, 0, 88, 100
2, 326016, Note_on_c, 0, 89, 80
2, 326204, Note_off_c, 0, 89, 100
2, 326208, Note_on_c, 0, 86, 80
2, 326396, Note_off_c, 0, 86, 100
2, 326400, Note_on_c, 0, 88, 80
2, 326588, Note_off_c, 0, 88, 100
2, 326592, Note_on_c, 0, 89, 80
2, 326780, Note_off_c, 0, 89, 100
2, 326784, Note_on_c, 0, 86, 80
2, 326972, Note_off_c, 0, 86, 100
2, 326976, Note_on_c, 0, 88, 80
2, 327164, Note_off_c, 0, 88, 100
2, 327168, Note_on_c, 0, 89, 80
2, 327356, Note_off_c, 0, 89, 100
2, 327360, Note_on_c, 0, 86, 80
2, 327548, Note_off_c, 0, 86, 100
2, 327552, Note_on_c, 0, 85, 80
2, 327600, Note_on_c, 0, 86, 80
2, 327644, Note_off_c, 0, 85, 100
2, 327648, Note_on_c, 0, 88, 80
2, 327692, Note_off_c, 0, 86, 100
2, 327696, Note_on_c, 0, 86, 80
2, 327740, Note_off_c, 0, 88, 100
2, 327744, Note_on_c, 0, 88, 80
2, 327788, Note_off_c, 0, 86, 100
2, 327792, Note_on_c, 0, 86, 80
2, 327836, Note_off_c, 0, 88, 100
2, 327840, Note_on_c, 0, 88, 80
2, 327884, Note_off_c, 0, 86, 100
2, 327888, Note_on_c, 0, 86, 80
2, 327932, Note_off_c, 0, 88, 100
2, 327936, Note_on_c, 0, 88, 80
2, 327980, Note_off_c, 0, 86, 100
2, 327984, Note_on_c, 0, 86, 80
2, 328028, Note_off_c, 0, 88, 100
2, 328032, Note_on_c, 0, 88, 80
2, 328076, Note_off_c, 0, 86, 100
2, 328080, Note_on_c, 0, 86, 80
2, 328124, Note_off_c, 0, 88, 100
2, 328128, Note_on_c, 0, 88, 80
2, 328172, Note_off_c, 0, 86, 100
2, 328176, Note_on_c, 0, 86, 80
2, 328220, Note_off_c, 0, 88, 100
2, 328224, Note_on_c, 0, 88, 80
2, 328268, Note_off_c, 0, 86, 100
2, 328272, Note_on_c, 0, 86, 80
2, 328316, Note_off_c, 0, 88, 100
2, 328320, Note_on_c, 0, 88, 80
2, 328364, Note_off_c, 0, 86, 100
2, 328368, Note_on_c, 0, 86, 80
2, 328412, Note_off_c, 0, 88, 100
2, 328416, Note_on_c, 0, 88, 80
2, 328460, Note_off_c, 0, 86, 100
2, 328464, Note_on_c, 0, 86, 80
2, 328508, Note_off_c, 0, 88, 100
2, 328512, Note_on_c, 0, 88, 80
2, 328556, Note_off_c, 0, 86, 100
2, 328560, Note_on_c, 0, 86, 80
2, 328604, Note_off_c, 0, 88, 100
2, 328608, Note_on_c, 0, 88, 80
2, 328652, Note_off_c, 0, 86, 100
2, 328656, Note_on_c, 0, 86, 80
2, 328700, Note_off_c, 0, 88, 100
2, 328704, Note_on_c, 0, 88, 80
2, 328748, Note_off_c, 0, 86, 100
2, 328752, Note_on_c, 0, 86, 80
2, 328796, Note_off_c, 0, 88, 100
2, 328800, Note_on_c, 0, 88, 80
2, 328844, Note_off_c, 0, 86, 100
2, 328848, Note_on_c, 0, 86, 80
2, 328892, Note_off_c, 0, 88, 100
2, 328896, Note_on_c, 0, 88, 80
2, 328940, Note_off_c, 0, 86, 100
2, 328944, Note_on_c, 0, 86, 80
2, 328988, Note_off_c, 0, 88, 100
2, 328992, Note_on_c, 0, 88, 80
2, 329036, Note_off_c, 0, 86, 100
2, 329040, Note_on_c, 0, 86, 80
2, 329084, Note_off_c, 0, 88, 100
2, 329088, Note_on_c, 0, 88, 80
2, 329132, Note_off_c, 0, 86, 100
2, 329136, Note_on_c, 0, 86, 80
2, 329180, Note_off_c, 0, 88, 100
2, 329184, Note_on_c, 0, 88, 80
2, 329228, Note_off_c, 0, 86, 100
2, 329232, Note_on_c, 0, 86, 80
2, 329276, Note_off_c, 0, 88, 100
2, 329280, Note_on_c, 0, 88, 80
2, 329324, Note_off_c, 0, 86, 100
2, 329328, Note_on_c, 0, 86, 80
2, 329372, Note_off_c, 0, 88, 100
2, 329376, Note_on_c, 0, 88, 80
2, 329420, Note_off_c, 0, 86, 100
2, 329424, Note_on_c, 0, 86, 80
2, 329468, Note_off_c, 0, 88, 100
2, 329472, Note_on_c, 0, 88, 80
2, 329516, Note_off_c, 0, 86, 100
2, 329520, Note_on_c, 0, 86, 80
2, 329564, Note_off_c, 0, 88, 100
2, 329568, Note_on_c, 0, 88, 80
2, 329612, Note_off_c, 0, 86, 100
2, 329616, Note_on_c, 0, 86, 80
2, 329660, Note_off_c, 0, 88, 100
2, 329664, Note_on_c, 0, 88, 80
2, 329708, Note_off_c, 0, 86, 100
2, 329712, Note_on_c, 0, 86, 80
2, 329756, Note_off_c, 0, 88, 100
2, 329760, Note_on_c, 0, 88, 80
2, 329804, Note_off_c, 0, 86, 100
2, 329808, Note_on_c, 0, 86, 80
2, 329852, Note_off_c, 0, 88, 100
2, 329856, Note_on_c, 0, 88, 80
2, 329900, Note_off_c, 0, 86, 100
2, 329904, Note_on_c, 0, 86, 80
2, 329948, Note_off_c, 0, 88, 100
2, 329952, Note_on_c, 0, 88, 80
2, 329996, Note_off_c, 0, 86, 100
2, 330000, Note_on_c, 0, 86, 80
2, 330044, Note_off_c, 0, 88, 100
2, 330048, Note_on_c, 0, 88, 80
2, 330092, Note_off_c, 0, 86, 100
2, 330096, Note_on_c, 0, 86, 80
2, 330140, Note_off_c, 0, 88, 100
2, 330144, Note_on_c, 0, 88, 80
2, 330188, Note_off_c, 0, 86, 100
2, 330192, Note_on_c, 0, 86, 80
2, 330236, Note_off_c, 0, 88, 100
2, 330240, Note_on_c, 0, 88, 80
2, 330284, Note_off_c, 0, 86, 100
2, 330288, Note_on_c, 0, 86, 80
2, 330332, Note_off_c, 0, 88, 100
2, 330336, Note_on_c, 0, 88, 80
2, 330380, Note_off_c, 0, 86, 100
2, 330384, Note_on_c, 0, 86, 80
2, 330428, Note_off_c, 0, 88, 100
2, 330432, Note_on_c, 0, 88, 80
2, 330476, Note_off_c, 0, 86, 100
2, 330480, Note_on_c, 0, 86, 80
2, 330524, Note_off_c, 0, 88, 100
2, 330528, Note_on_c, 0, 88, 80
2, 330572, Note_off_c, 0, 86, 100
2, 330576, Note_on_c, 0, 86, 80
2, 330620, Note_off_c, 0, 88, 100
2, 330624, Note_on_c, 0, 88, 80
2, 330668, Note_off_c, 0, 86, 100
2, 330672, Note_on_c, 0, 86, 80
2, 330716, Note_off_c, 0, 88, 100
2, 330720, Note_on_c, 0, 88, 80
2, 330764, Note_off_c, 0, 86, 100
2, 330768, Note_on_c, 0, 86, 80
2, 330812, Note_off_c, 0, 88, 100
2, 330816, Note_on_c, 0, 88, 80
2, 330860, Note_off_c, 0, 86, 100
2, 330864, Note_on_c, 0, 86, 80
2, 330908, Note_off_c, 0, 88, 100
2, 330912, Note_on_c, 0, 88, 80
2, 330956, Note_off_c, 0, 86, 100
2, 330960, Note_on_c, 0, 86, 80
2, 331004, Note_off_c, 0, 88, 100
2, 331008, Note_on_c, 0, 88, 80
2, 331052, Note_off_c, 0, 86, 100
2, 331056, Note_on_c, 0, 86, 80
2, 331100, Note_off_c, 0, 88, 100
2, 331104, Note_on_c, 0, 88, 80
2, 331148, Note_off_c, 0, 86, 100
2, 331152, Note_on_c, 0, 86, 80
2, 331196, Note_off_c, 0, 88, 100
2, 331200, Note_on_c, 0, 88, 80
2, 331244, Note_off_c, 0, 86, 100
2, 331248, Note_on_c, 0, 86, 80
2, 331292, Note_off_c, 0, 88, 100
2, 331296, Note_on_c, 0, 88, 80
2, 331340, Note_off_c, 0, 86, 100
2, 331344, Note_on_c, 0, 86, 80
2, 331388, Note_off_c, 0, 88, 100
2, 331392, Note_on_c, 0, 88, 80
2, 331436, Note_off_c, 0, 86, 100
2, 331440, Note_on_c, 0, 86, 80
2, 331484, Note_off_c, 0, 88, 100
2, 331488, Note_on_c, 0, 88, 80
2, 331532, Note_off_c, 0, 86, 100
2, 331536, Note_on_c, 0, 86, 80
2, 331580, Note_off_c, 0, 88, 100
2, 331584, Note_on_c, 0, 88, 80
2, 331628, Note_off_c, 0, 86, 100
2, 331632, Note_on_c, 0, 86, 80
2, 331676, Note_off_c, 0, 88, 100
2, 331680, Note_on_c, 0, 88, 80
2, 331724, Note_off_c, 0, 86, 100
2, 331728, Note_on_c, 0, 86, 80
2, 331772, Note_off_c, 0, 88, 100
2, 331776, Note_on_c, 0, 88, 80
2, 331820, Note_off_c, 0, 86, 100
2, 331824, Note_on_c, 0, 86, 80
2, 331868, Note_off_c, 0, 88, 100
2, 331872, Note_on_c, 0, 88, 80
2, 331916, Note_off_c, 0, 86, 100
2, 331920, Note_on_c, 0, 86, 80
2, 331964, Note_off_c, 0, 88, 100
2, 331968, Note_on_c, 0, 88, 80
2, 332012, Note_off_c, 0, 86, 100
2, 332016, Note_on_c, 0, 86, 80
2, 332060, Note_off_c, 0, 88, 100
2, 332064, Note_on_c, 0, 88, 80
2, 332108, Note_off_c, 0, 86, 100
2, 332112, Note_on_c, 0, 86, 80
2, 332156, Note_off_c, 0, 88, 100
2, 332160, Note_on_c, 0, 88, 80
2, 332204, Note_off_c, 0, 86, 100
2, 332208, Note_on_c, 0, 86, 80
2, 332252, Note_off_c, 0, 88, 100
2, 332256, Note_on_c, 0, 88, 80
2, 332300, Note_off_c, 0, 86, 100
2, 332304, Note_on_c, 0, 86, 80
2, 332348, Note_off_c, 0, 88, 100
2, 332352, Note_on_c, 0, 88, 80
2, 332396, Note_off_c, 0, 86, 100
2, 332400, Note_on_c, 0, 86, 80
2, 332444, Note_off_c, 0, 88, 100
2, 332448, Note_on_c, 0, 88, 80
2, 332492, Note_off_c, 0, 86, 100
2, 332496, Note_on_c, 0, 86, 80
2, 332540, Note_off_c, 0, 88, 100
2, 332544, Note_on_c, 0, 88, 80
2, 332588, Note_off_c, 0, 86, 100
2, 332592, Note_on_c, 0, 86, 80
2, 332636, Note_off_c, 0, 88, 100
2, 332640, Note_on_c, 0, 88, 80
2, 332684, Note_off_c, 0, 86, 100
2, 332688, Note_on_c, 0, 86, 80
2, 332732, Note_off_c, 0, 88, 100
2, 332736, Note_on_c, 0, 88, 80
2, 332780, Note_off_c, 0, 86, 100
2, 332784, Note_on_c, 0, 86, 80
2, 332828, Note_off_c, 0, 88, 100
2, 332832, Note_on_c, 0, 88, 80
2, 332876, Note_off_c, 0, 86, 100
2, 332880, Note_on_c, 0, 86, 80
2, 332924, Note_off_c, 0, 88, 100
2, 332928, Note_on_c, 0, 88, 80
2, 332972, Note_off_c, 0, 86, 100
2, 332976, Note_on_c, 0, 86, 80
2, 333020, Note_off_c, 0, 88, 100
2, 333024, Note_on_c, 0, 88, 80
2, 333068, Note_off_c, 0, 86, 100
2, 333072, Note_on_c, 0, 86, 80
2, 333116, Note_off_c, 0, 88, 100
2, 333120, Note_on_c, 0, 88, 80
2, 333164, Note_off_c, 0, 86, 100
2, 333168, Note_on_c, 0, 86, 80
2, 333212, Note_off_c, 0, 88, 100
2, 333216, Note_on_c, 0, 88, 80
2, 333260, Note_off_c, 0, 86, 100
2, 333264, Note_on_c, 0, 86, 80
2, 333308, Note_off_c, 0, 88, 100
2, 333312, Note_on_c, 0, 88, 80
2, 333356, Note_off_c, 0, 86, 100
2, 333360, Note_on_c, 0, 86, 80
2, 333404, Note_off_c, 0, 88, 100
2, 333408, Note_on_c, 0, 88, 80
2, 333452, Note_off_c, 0, 86, 100
2, 333456, Note_on_c, 0, 86, 80
2, 333500, Note_off_c, 0, 88, 100
2, 333504, Note_on_c, 0, 88, 80
2, 333548, Note_off_c, 0, 86, 100
2, 333552, Note_on_c, 0, 86, 80
2, 333596, Note_off_c, 0, 88, 100
2, 333600, Note_on_c, 0, 88, 80
2, 333644, Note_off_c, 0, 86, 100
2, 333648, Note_on_c, 0, 86, 80
2, 333692, Note_off_c, 0, 88, 100
2, 333696, Note_on_c, 0, 88, 80
2, 333740, Note_off_c, 0, 86, 100
2, 333744, Note_on_c, 0, 86, 80
2, 333788, Note_off_c, 0, 88, 100
2, 333792, Note_on_c, 0, 88, 80
2, 333836, Note_off_c, 0, 86, 100
2, 333840, Note_on_c, 0, 86, 80
2, 333884, Note_off_c, 0, 88, 100
2, 333888, Note_on_c, 0, 88, 80
2, 333932, Note_off_c, 0, 86, 100
2, 333936, Note_on_c, 0, 86, 80
2, 333980, Note_off_c, 0, 88, 100
2, 333984, Note_on_c, 0, 88, 80
2, 334028, Note_off_c, 0, 86, 100
2, 334032, Note_on_c, 0, 86, 80
2, 334076, Note_off_c, 0, 88, 100
2, 334080, Note_on_c, 0, 88, 80
2, 334124, Note_off_c, 0, 86, 100
2, 334128, Note_on_c, 0, 86, 80
2, 334172, Note_off_c, 0, 88, 100
2, 334176, Note_on_c, 0, 88, 80
2, 334220, Note_off_c, 0, 86, 100
2, 334224, Note_on_c, 0, 86, 80
2, 334268, Note_off_c, 0, 88, 100
2, 334272, Note_on_c, 0, 88, 80
2, 334316, Note_off_c, 0, 86, 100
2, 334320, Note_on_c, 0, 86, 80
2, 334364, Note_off_c, 0, 88, 100
2, 334368, Note_on_c, 0, 88, 80
2, 334412, Note_off_c, 0, 86, 100
2, 334416, Note_on_c, 0, 86, 80
2, 334460, Note_off_c, 0, 88, 100
2, 334464, Note_on_c, 0, 88, 80
2, 334464, Note_on_c, 0, 84, 80
2, 334508, Note_off_c, 0, 86, 100
2, 334512, Note_on_c, 0, 86, 80
2, 334512, Note_on_c, 0, 83, 80
2, 334556, Note_off_c, 0, 88, 100
2, 334556, Note_off_c, 0, 84, 100
2, 334560, Note_on_c, 0, 88, 80
2, 334560, Note_on_c, 0, 84, 80
2, 334604, Note_off_c, 0, 86, 100
2, 334604, Note_off_c, 0, 83, 100
2, 334608, Note_on_c, 0, 86, 80
2, 334608, Note_on_c, 0, 83, 80
2, 334652, Note_off_c, 0, 88, 100
2, 334652, Note_off_c, 0, 84, 100
2, 334656, Note_on_c, 0, 88, 80
2, 334656, Note_on_c, 0, 84, 80
2, 334700, Note_off_c, 0, 86, 100
2, 334700, Note_off_c, 0, 83, 100
2, 334704, Note_on_c, 0, 86, 80
2, 334704, Note_on_c, 0, 83, 80
2, 334748, Note_off_c, 0, 88, 100
2, 334748, Note_off_c, 0, 84, 100
2, 334752, Note_on_c, 0, 88, 80
2, 334752, Note_on_c, 0, 84, 80
2, 334796, Note_off_c, 0, 86, 100
2, 334796, Note_off_c, 0, 83, 100
2, 334800, Note_on_c, 0, 86, 80
2, 334800, Note_on_c, 0, 83, 80
2, 334844, Note_off_c, 0, 88, 100
2, 334844, Note_off_c, 0, 84, 100
2, 334848, Note_on_c, 0, 88, 80
2, 334848, Note_on_c, 0, 84, 80
2, 334892, Note_off_c, 0, 86, 100
2, 334892, Note_off_c, 0, 83, 100
2, 334896, Note_on_c, 0, 86, 80
2, 334896, Note_on_c, 0, 83, 80
2, 334940, Note_off_c, 0, 88, 100
2, 334940, Note_off_c, 0, 84, 100
2, 334944, Note_on_c, 0, 88, 80
2, 334944, Note_on_c, 0, 84, 80
2, 334988, Note_off_c, 0, 86, 100
2, 334988, Note_off_c, 0, 83, 100
2, 334992, Note_on_c, 0, 86, 80
2, 334992, Note_on_c, 0, 83, 80
2, 335036, Note_off_c, 0, 88, 100
2, 335036, Note_off_c, 0, 84, 100
2, 335040, Note_on_c, 0, 88, 80
2, 335040, Note_on_c, 0, 84, 80
2, 335084, Note_off_c, 0, 86, 100
2, 335084, Note_off_c, 0, 83, 100
2, 335088, Note_on_c, 0, 86, 80
2, 335088, Note_on_c, 0, 83, 80
2, 335132, Note_off_c, 0, 88, 100
2, 335132, Note_off_c, 0, 84, 100
2, 335136, Note_on_c, 0, 88, 80
2, 335136, Note_on_c, 0, 84, 80
2, 335180, Note_off_c, 0, 86, 100
2, 335180, Note_off_c, 0, 83, 100
2, 335184, Note_on_c, 0, 86, 80
2, 335184, Note_on_c, 0, 83, 80
2, 335228, Note_off_c, 0, 88, 100
2, 335228, Note_off_c, 0, 84, 100
2, 335232, Note_on_c, 0, 88, 80
2, 335232, Note_on_c, 0, 84, 80
2, 335276, Note_off_c, 0, 86, 100
2, 335276, Note_off_c, 0, 83, 100
2, 335280, Note_on_c, 0, 86, 80
2, 335280, Note_on_c, 0, 83, 80
2, 335324, Note_off_c, 0, 88, 100
2, 335324, Note_off_c, 0, 84, 100
2, 335328, Note_on_c, 0, 88, 80
2, 335328, Note_on_c, 0, 84, 80
2, 335372, Note_off_c, 0, 86, 100
2, 335372, Note_off_c, 0, 83, 100
2, 335376, Note_on_c, 0, 86, 80
2, 335376, Note_on_c, 0, 83, 80
2, 335420, Note_off_c, 0, 88, 100
2, 335420, Note_off_c, 0, 84, 100
2, 335424, Note_on_c, 0, 88, 80
2, 335424, Note_on_c, 0, 84, 80
2, 335468, Note_off_c, 0, 86, 100
2, 335468, Note_off_c, 0, 83, 100
2, 335472, Note_on_c, 0, 86, 80
2, 335472, Note_on_c, 0, 83, 80
2, 335516, Note_off_c, 0, 88, 100
2, 335516, Note_off_c, 0, 84, 100
2, 335520, Note_on_c, 0, 88, 80
2, 335520, Note_on_c, 0, 84, 80
2, 335564, Note_off_c, 0, 86, 100
2, 335564, Note_off_c, 0, 83, 100
2, 335568, Note_on_c, 0, 86, 80
2, 335568, Note_on_c, 0, 83, 80
2, 335612, Note_off_c, 0, 88, 100
2, 335612, Note_off_c, 0, 84, 100
2, 335616, Note_on_c, 0, 88, 80
2, 335616, Note_on_c, 0, 84, 80
2, 335660, Note_off_c, 0, 83, 100
2, 335660, Note_off_c, 0, 86, 100
2, 335664, Note_on_c, 0, 86, 80
2, 335664, Note_on_c, 0, 83, 80
2, 335708, Note_off_c, 0, 88, 100
2, 335708, Note_off_c, 0, 84, 100
2, 335712, Note_on_c, 0, 88, 80
2, 335712, Note_on_c, 0, 84, 80
2, 335756, Note_off_c, 0, 86, 100
2, 335756, Note_off_c, 0, 83, 100
2, 335760, Note_on_c, 0, 86, 80
2, 335760, Note_on_c, 0, 83, 80
2, 335804, Note_off_c, 0, 88, 100
2, 335804, Note_off_c, 0, 84, 100
2, 335808, Note_on_c, 0, 88, 80
2, 335808, Note_on_c, 0, 84, 80
2, 335852, Note_off_c, 0, 86, 100
2, 335852, Note_off_c, 0, 83, 100
2, 335856, Note_on_c, 0, 86, 80
2, 335856, Note_on_c, 0, 83, 80
2, 335900, Note_off_c, 0, 88, 100
2, 335900, Note_off_c, 0, 84, 100
2, 335904, Note_on_c, 0, 88, 80
2, 335904, Note_on_c, 0, 84, 80
2, 335948, Note_off_c, 0, 86, 100
2, 335948, Note_off_c, 0, 83, 100
2, 335952, Note_on_c, 0, 86, 80
2, 335952, Note_on_c, 0, 83, 80
2, 335996, Note_off_c, 0, 88, 100
2, 335996, Note_off_c, 0, 84, 100
2, 336000, Note_on_c, 0, 88, 80
2, 336000, Note_on_c, 0, 84, 80
2, 336044, Note_off_c, 0, 86, 100
2, 336044, Note_off_c, 0, 83, 100
2, 336048, Note_on_c, 0, 86, 80
2, 336048, Note_on_c, 0, 83, 80
2, 336092, Note_off_c, 0, 88, 100
2, 336092, Note_off_c, 0, 84, 100
2, 336096, Note_on_c, 0, 88, 80
2, 336096, Note_on_c, 0, 84, 80
2, 336140, Note_off_c, 0, 86, 100
2, 336140, Note_off_c, 0, 83, 100
2, 336144, Note_on_c, 0, 86, 80
2, 336144, Note_on_c, 0, 83, 80
2, 336188, Note_off_c, 0, 88, 100
2, 336188, Note_off_c, 0, 84, 100
2, 336192, Note_on_c, 0, 88, 80
2, 336192, Note_on_c, 0, 84, 80
2, 336236, Note_off_c, 0, 86, 100
2, 336236, Note_off_c, 0, 83, 100
2, 336240, Note_on_c, 0, 86, 80
2, 336240, Note_on_c, 0, 83, 80
2, 336284, Note_off_c, 0, 88, 100
2, 336284, Note_off_c, 0, 84, 100
2, 336288, Note_on_c, 0, 88, 80
2, 336288, Note_on_c, 0, 84, 80
2, 336332, Note_off_c, 0, 86, 100
2, 336332, Note_off_c, 0, 83, 100
2, 336336, Note_on_c, 0, 86, 80
2, 336336, Note_on_c, 0, 83, 80
2, 336380, Note_off_c, 0, 88, 100
2, 336380, Note_off_c, 0, 84, 100
2, 336384, Note_on_c, 0, 88, 80
2, 336384, Note_on_c, 0, 84, 80
2, 336428, Note_off_c, 0, 86, 100
2, 336428, Note_off_c, 0, 83, 100
2, 336432, Note_on_c, 0, 86, 80
2, 336432, Note_on_c, 0, 83, 80
2, 336476, Note_off_c, 0, 88, 100
2, 336476, Note_off_c, 0, 84, 100
2, 336480, Note_on_c, 0, 88, 80
2, 336480, Note_on_c, 0, 84, 80
2, 336524, Note_off_c, 0, 86, 100
2, 336524, Note_off_c, 0, 83, 100
2, 336528, Note_on_c, 0, 86, 80
2, 336528, Note_on_c, 0, 83, 80
2, 336572, Note_off_c, 0, 88, 100
2, 336572, Note_off_c, 0, 84, 100
2, 336576, Note_on_c, 0, 88, 80
2, 336576, Note_on_c, 0, 84, 80
2, 336620, Note_off_c, 0, 86, 100
2, 336620, Note_off_c, 0, 83, 100
2, 336624, Note_on_c, 0, 86, 80
2, 336624, Note_on_c, 0, 83, 80
2, 336668, Note_off_c, 0, 88, 100
2, 336668, Note_off_c, 0, 84, 100
2, 336672, Note_on_c, 0, 88, 80
2, 336672, Note_on_c, 0, 84, 80
2, 336716, Note_off_c, 0, 86, 100
2, 336716, Note_off_c, 0, 83, 100
2, 336720, Note_on_c, 0, 86, 80
2, 336720, Note_on_c, 0, 83, 80
2, 336764, Note_off_c, 0, 88, 100
2, 336764, Note_off_c, 0, 84, 100
2, 336768, Note_on_c, 0, 88, 80
2, 336812, Note_off_c, 0, 83, 100
2, 336812, Note_off_c, 0, 86, 100
2, 336816, Note_on_c, 0, 86, 80
2, 336860, Note_off_c, 0, 88, 100
2, 336864, Note_on_c, 0, 88, 80
2, 336908, Note_off_c, 0, 86, 100
2, 336912, Note_on_c, 0, 86, 80
2, 336956, Note_off_c, 0, 88, 100
2, 336960, Note_on_c, 0, 88, 80
2, 337004, Note_off_c, 0, 86, 100
2, 337008, Note_on_c, 0, 86, 80
2, 337052, Note_off_c, 0, 88, 100
2, 337056, Note_on_c, 0, 88, 80
2, 337100, Note_off_c, 0, 86, 100
2, 337104, Note_on_c, 0, 86, 80
2, 337148, Note_off_c, 0, 88, 100
2, 337152, Note_on_c, 0, 88, 80
2, 337196, Note_off_c, 0, 86, 100
2, 337200, Note_on_c, 0, 86, 80
2, 337244, Note_off_c, 0, 88, 100
2, 337248, Note_on_c, 0, 88, 80
2, 337292, Note_off_c, 0, 86, 100
2, 337296, Note_on_c, 0, 86, 80
2, 337340, Note_off_c, 0, 88, 100
2, 337344, Note_on_c, 0, 88, 80
2, 337388, Note_off_c, 0, 86, 100
2, 337392, Note_on_c, 0, 86, 80
2, 337436, Note_off_c, 0, 88, 100
2, 337440, Note_on_c, 0, 88, 80
2, 337484, Note_off_c, 0, 86, 100
2, 337488, Note_on_c, 0, 86, 80
2, 337532, Note_off_c, 0, 88, 100
2, 337536, Note_on_c, 0, 88, 80
2, 337580, Note_off_c, 0, 86, 100
2, 337584, Note_on_c, 0, 86, 80
2, 337628, Note_off_c, 0, 88, 100
2, 337632, Note_on_c, 0, 88, 80
2, 337676, Note_off_c, 0, 86, 100
2, 337680, Note_on_c, 0, 86, 80
2, 337724, Note_off_c, 0, 88, 100
2, 337728, Note_on_c, 0, 88, 80
2, 337772, Note_off_c, 0, 86, 100
2, 337776, Note_on_c, 0, 86, 80
2, 337820, Note_off_c, 0, 88, 100
2, 337824, Note_on_c, 0, 88, 80
2, 337868, Note_off_c, 0, 86, 100
2, 337872, Note_on_c, 0, 86, 80
2, 337916, Note_off_c, 0, 88, 100
2, 337920, Note_on_c, 0, 88, 80
2, 337964, Note_off_c, 0, 86, 100
2, 337968, Note_on_c, 0, 86, 80
2, 338012, Note_off_c, 0, 88, 100
2, 338016, Note_on_c, 0, 88, 80
2, 338060, Note_off_c, 0, 86, 100
2, 338064, Note_on_c, 0, 86, 80
2, 338108, Note_off_c, 0, 88, 100
2, 338112, Note_on_c, 0, 88, 80
2, 338156, Note_off_c, 0, 86, 100
2, 338160, Note_on_c, 0, 86, 80
2, 338204, Note_off_c, 0, 88, 100
2, 338208, Note_on_c, 0, 88, 80
2, 338252, Note_off_c, 0, 86, 100
2, 338256, Note_on_c, 0, 86, 80
2, 338300, Note_off_c, 0, 88, 100
2, 338304, Note_on_c, 0, 88, 80
2, 338348, Note_off_c, 0, 86, 100
2, 338352, Note_on_c, 0, 86, 80
2, 338396, Note_off_c, 0, 88, 100
2, 338400, Note_on_c, 0, 88, 80
2, 338444, Note_off_c, 0, 86, 100
2, 338448, Note_on_c, 0, 86, 80
2, 338492, Note_off_c, 0, 88, 100
2, 338496, Note_on_c, 0, 88, 80
2, 338540, Note_off_c, 0, 86, 100
2, 338544, Note_on_c, 0, 86, 80
2, 338588, Note_off_c, 0, 88, 100
2, 338592, Note_on_c, 0, 88, 80
2, 338636, Note_off_c, 0, 86, 100
2, 338640, Note_on_c, 0, 86, 80
2, 338684, Note_off_c, 0, 88, 100
2, 338688, Note_on_c, 0, 88, 80
2, 338732, Note_off_c, 0, 86, 100
2, 338736, Note_on_c, 0, 86, 80
2, 338780, Note_off_c, 0, 88, 100
2, 338784, Note_on_c, 0, 88, 80
2, 338828, Note_off_c, 0, 86, 100
2, 338832, Note_on_c, 0, 86, 80
2, 338876, Note_off_c, 0, 88, 100
2, 338880, Note_on_c, 0, 88, 80
2, 338924, Note_off_c, 0, 86, 100
2, 338928, Note_on_c, 0, 86, 80
2, 338972, Note_off_c, 0, 88, 100
2, 338976, Note_on_c, 0, 88, 80
2, 339020, Note_off_c, 0, 86, 100
2, 339024, Note_on_c, 0, 86, 80
2, 339068, Note_off_c, 0, 88, 100
2, 339072, Note_on_c, 0, 88, 80
2, 339116, Note_off_c, 0, 86, 100
2, 339120, Note_on_c, 0, 87, 80
2, 339164, Note_off_c, 0, 88, 100
2, 339168, Note_on_c, 0, 88, 80
2, 339212, Note_off_c, 0, 87, 100
2, 339216, Note_on_c, 0, 87, 80
2, 339260, Note_off_c, 0, 88, 100
2, 339264, Note_on_c, 0, 88, 80
2, 339308, Note_off_c, 0, 87, 100
2, 339312, Note_on_c, 0, 87, 80
2, 339356, Note_off_c, 0, 88, 100
2, 339360, Note_on_c, 0, 88, 80
2, 339404, Note_off_c, 0, 87, 100
2, 339408, Note_on_c, 0, 87, 80
2, 339452, Note_off_c, 0, 88, 100
2, 339456, Note_on_c, 0, 88, 80
2, 339500, Note_off_c, 0, 87, 100
2, 339504, Note_on_c, 0, 87, 80
2, 339548, Note_off_c, 0, 88, 100
2, 339552, Note_on_c, 0, 88, 80
2, 339596, Note_off_c, 0, 87, 100
2, 339600, Note_on_c, 0, 87, 80
2, 339644, Note_off_c, 0, 88, 100
2, 339648, Note_on_c, 0, 88, 80
2, 339692, Note_off_c, 0, 87, 100
2, 339696, Note_on_c, 0, 87, 80
2, 339740, Note_off_c, 0, 88, 100
2, 339744, Note_on_c, 0, 88, 80
2, 339788, Note_off_c, 0, 87, 100
2, 339792, Note_on_c, 0, 87, 80
2, 339836, Note_off_c, 0, 88, 100
2, 339840, Note_on_c, 0, 88, 80
2, 339884, Note_off_c, 0, 87, 100
2, 339888, Note_on_c, 0, 87, 80
2, 339932, Note_off_c, 0, 88, 100
2, 339936, Note_on_c, 0, 88, 80
2, 339980, Note_off_c, 0, 87, 100
2, 339984, Note_on_c, 0, 87, 80
2, 340028, Note_off_c, 0, 88, 100
2, 340032, Note_on_c, 0, 88, 80
2, 340076, Note_off_c, 0, 87, 100
2, 340080, Note_on_c, 0, 87, 80
2, 340124, Note_off_c, 0, 88, 100
2, 340128, Note_on_c, 0, 88, 80
2, 340172, Note_off_c, 0, 87, 100
2, 340176, Note_on_c, 0, 87, 80
2, 340220, Note_off_c, 0, 88, 100
2, 340224, Note_on_c, 0, 88, 80
2, 340268, Note_off_c, 0, 87, 100
2, 340272, Note_on_c, 0, 87, 80
2, 340316, Note_off_c, 0, 88, 100
2, 340320, Note_on_c, 0, 88, 80
2, 340364, Note_off_c, 0, 87, 100
2, 340368, Note_on_c, 0, 87, 80
2, 340412, Note_off_c, 0, 88, 100
2, 340416, Note_on_c, 0, 88, 80
2, 340460, Note_off_c, 0, 87, 100
2, 340464, Note_on_c, 0, 87, 80
2, 340508, Note_off_c, 0, 88, 100
2, 340512, Note_on_c, 0, 88, 80
2, 340556, Note_off_c, 0, 87, 100
2, 340560, Note_on_c, 0, 87, 80
2, 340604, Note_off_c, 0, 88, 100
2, 340608, Note_on_c, 0, 88, 80
2, 340652, Note_off_c, 0, 87, 100
2, 340656, Note_on_c, 0, 87, 80
2, 340700, Note_off_c, 0, 88, 100
2, 340704, Note_on_c, 0, 88, 80
2, 340748, Note_off_c, 0, 87, 100
2, 340752, Note_on_c, 0, 87, 80
2, 340796, Note_off_c, 0, 88, 100
2, 340800, Note_on_c, 0, 88, 80
2, 340844, Note_off_c, 0, 87, 100
2, 340848, Note_on_c, 0, 87, 80
2, 340892, Note_off_c, 0, 88, 100
2, 340896, Note_on_c, 0, 88, 80
2, 340940, Note_off_c, 0, 87, 100
2, 340944, Note_on_c, 0, 87, 80
2, 340988, Note_off_c, 0, 88, 100
2, 340992, Note_on_c, 0, 88, 80
2, 341036, Note_off_c, 0, 87, 100
2, 341040, Note_on_c, 0, 87, 80
2, 341084, Note_off_c, 0, 88, 100
2, 341088, Note_on_c, 0, 88, 80
2, 341132, Note_off_c, 0, 87, 100
2, 341136, Note_on_c, 0, 87, 80
2, 341136, Note_on_c, 0, 85, 80
2, 341180, Note_off_c, 0, 88, 100
2, 341228, Note_off_c, 0, 87, 100
2, 341280, Note_on_c, 0, 87, 80
2, 341324, Note_off_c, 0, 85, 100
2, 342140, Note_off_c, 0, 87, 100
2, 343680, Note_on_c, 0, 88, 80
2, 343680, Note_on_c, 0, 85, 80
2, 343680, Note_on_c, 0, 76, 80
2, 345596, Note_off_c, 0, 76, 100
2, 345596, Note_off_c, 0, 85, 100
2, 345596, Note_off_c, 0, 88, 100
2, 345600, Note_on_c, 0, 86, 78
2, 345600, Note_on_c, 0, 83, 78
2, 345600, Note_on_c, 0, 76, 78
2, 345788, Note_off_c, 0, 86, 100
2, 345788, Note_off_c, 0, 83, 100
2, 345788, Note_off_c, 0, 76, 100
2, 345792, Note_on_c, 0, 85, 78
2, 345792, Note_on_c, 0, 81, 78
2, 345792, Note_on_c, 0, 76, 78
2, 345980, Note_off_c, 0, 85, 100
2, 345980, Note_off_c, 0, 81, 100
2, 345980, Note_off_c, 0, 76, 100
2, 345984, Note_on_c, 0, 76, 78
2, 345984, Note_on_c, 0, 80, 78
2, 345984, Note_on_c, 0, 83, 78
2, 346364, Note_off_c, 0, 76, 100
2, 346364, Note_off_c, 0, 80, 100
2, 346364, Note_off_c, 0, 83, 100
2, 346368, Note_on_c, 0, 76, 78
2, 346368, Note_on_c, 0, 81, 78
2, 346368, Note_on_c, 0, 85, 78
2, 346556, Note_off_c, 0, 76, 100
2, 346556, Note_off_c, 0, 81, 100
2, 346556, Note_off_c, 0, 85, 100
2, 346560, Note_on_c, 0, 76, 77
2, 346560, Note_on_c, 0, 80, 77
2, 346560, Note_on_c, 0, 83, 77
2, 346940, Note_off_c, 0, 76, 100
2, 346940, Note_off_c, 0, 80, 100
2, 346940, Note_off_c, 0, 83, 100
2, 346944, Note_on_c, 0, 76, 77
2, 346944, Note_on_c, 0, 81, 77
2, 346944, Note_on_c, 0, 85, 77
2, 347132, Note_off_c, 0, 76, 100
2, 347132, Note_off_c, 0, 81, 100
2, 347132, Note_off_c, 0, 85, 100
2, 347136, Note_on_c, 0, 76, 77
2, 347136, Note_on_c, 0, 80, 77
2, 347136, Note_on_c, 0, 83, 77
2, 348284, Note_off_c, 0, 76, 100
2, 348284, Note_off_c, 0, 80, 100
2, 348284, Note_off_c, 0, 83, 100
2, 349248, Note_on_c, 0, 76, 74
2, 349436, Note_off_c, 0, 76, 100
2, 349440, Note_on_c, 0, 76, 74
2, 349440, Note_on_c, 0, 84, 74
2, 349440, Note_on_c, 0, 88, 74
2, 351356, Note_off_c, 0, 76, 100
2, 351356, Note_off_c, 0, 84, 100
2, 351356, Note_off_c, 0, 88, 100
2, 351360, Note_on_c, 0, 86, 72
2, 351360, Note_on_c, 0, 83, 72
2, 351360, Note_on_c, 0, 76, 72
2, 351548, Note_off_c, 0, 86, 100
2, 351548, Note_off_c, 0, 83, 100
2, 351548, Note_off_c, 0, 76, 100
2, 351552, Note_on_c, 0, 84, 72
2, 351552, Note_on_c, 0, 81, 72
2, 351552, Note_on_c, 0, 76, 72
2, 351740, Note_off_c, 0, 84, 100
2, 351740, Note_off_c, 0, 81, 100
2, 351740, Note_off_c, 0, 76, 100
2, 351744, Note_on_c, 0, 83, 72
2, 351744, Note_on_c, 0, 79, 72
2, 351744, Note_on_c, 0, 77, 72
2, 352124, Note_off_c, 0, 83, 100
2, 352124, Note_off_c, 0, 79, 100
2, 352124, Note_off_c, 0, 77, 100
2, 352128, Note_on_c, 0, 79, 71
2, 352128, Note_on_c, 0, 84, 71
2, 352316, Note_off_c, 0, 79, 100
2, 352316, Note_off_c, 0, 84, 100
2, 352320, Note_on_c, 0, 83, 71
2, 352320, Note_on_c, 0, 79, 71
2, 352320, Note_on_c, 0, 77, 71
2, 352700, Note_off_c, 0, 83, 100
2, 352700, Note_off_c, 0, 79, 100
2, 352700, Note_off_c, 0, 77, 100
2, 352704, Note_on_c, 0, 79, 71
2, 352704, Note_on_c, 0, 84, 71
2, 352892, Note_off_c, 0, 79, 100
2, 352892, Note_off_c, 0, 84, 100
2, 352896, Note_on_c, 0, 77, 71
2, 352896, Note_on_c, 0, 79, 71
2, 352896, Note_on_c, 0, 83, 71
2, 354044, Note_off_c, 0, 77, 100
2, 354044, Note_off_c, 0, 79, 100
2, 354044, Note_off_c, 0, 83, 100
2, 355008, Note_on_c, 0, 79, 120
2, 355196, Note_off_c, 0, 79, 100
2, 355200, Note_on_c, 0, 86, 120
2, 355200, Note_on_c, 0, 83, 120
2, 355200, Note_on_c, 0, 79, 120
2, 355200, Note_on_c, 0, 77, 120
2, 355200, Note_on_c, 0, 89, 120
2, 357500, Note_off_c, 0, 77, 100
2, 357500, Note_off_c, 0, 79, 100
2, 357500, Note_off_c, 0, 83, 100
2, 357500, Note_off_c, 0, 86, 100
2, 357500, Note_off_c, 0, 89, 100
2, 357504, Note_on_c, 0, 84, 120
2, 357504, Note_on_c, 0, 79, 120
2, 357504, Note_on_c, 0, 76, 120
2, 357504, Note_on_c, 0, 88, 120
2, 357692, Note_off_c, 0, 84, 100
2, 357692, Note_off_c, 0, 79, 100
2, 357692, Note_off_c, 0, 76, 100
2, 357692, Note_off_c, 0, 88, 100
2, 357696, Note_on_c, 0, 86, 120
2, 357696, Note_on_c, 0, 74, 120
2, 357884, Note_off_c, 0, 86, 100
2, 357884, Note_off_c, 0, 74, 100
2, 357888, Note_on_c, 0, 84, 120
2, 357888, Note_on_c, 0, 72, 120
2, 358076, Note_off_c, 0, 84, 100
2, 358076, Note_off_c, 0, 72, 100
2, 358080, Note_on_c, 0, 83, 120
2, 358080, Note_on_c, 0, 71, 120
2, 358268, Note_off_c, 0, 83, 100
2, 358268, Note_off_c, 0, 71, 100
2, 358272, Note_on_c, 0, 81, 120
2, 358272, Note_on_c, 0, 69, 120
2, 358460, Note_off_c, 0, 81, 100
2, 358460, Note_off_c, 0, 69, 100
2, 358464, Note_on_c, 0, 79, 120
2, 358464, Note_on_c, 0, 67, 120
2, 358652, Note_off_c, 0, 79, 100
2, 358652, Note_off_c, 0, 67, 100
2, 358656, Note_on_c, 0, 77, 120
2, 358656, Note_on_c, 0, 65, 120
2, 358844, Note_off_c, 0, 77, 100
2, 358844, Note_off_c, 0, 65, 100
2, 358848, Note_on_c, 0, 76, 120
2, 358848, Note_on_c, 0, 64, 120
2, 359036, Note_off_c, 0, 76, 100
2, 359036, Note_off_c, 0, 64, 100
2, 359040, Note_on_c, 0, 74, 120
2, 359040, Note_on_c, 0, 62, 120
2, 359228, Note_off_c, 0, 74, 100
2, 359228, Note_off_c, 0, 62, 100
2, 359232, Note_on_c, 0, 72, 120
2, 359232, Note_on_c, 0, 60, 120
2, 359420, Note_off_c, 0, 72, 100
2, 359420, Note_off_c, 0, 60, 100
2, 359424, Note_on_c, 0, 71, 120
2, 359424, Note_on_c, 0, 59, 120
2, 359612, Note_off_c, 0, 71, 100
2, 359612, Note_off_c, 0, 59, 100
2, 359616, Note_on_c, 0, 69, 120
2, 359616, Note_on_c, 0, 57, 120
2, 359804, Note_off_c, 0, 69, 100
2, 359804, Note_off_c, 0, 57, 100
2, 359808, Note_on_c, 0, 55, 120
2, 359808, Note_on_c, 0, 67, 120
2, 360188, Note_off_c, 0, 55, 100
2, 360188, Note_off_c, 0, 67, 100
2, 360960, Note_on_c, 0, 59, 120
2, 360960, Note_on_c, 0, 55, 120
2, 360960, Note_on_c, 0, 53, 120
2, 360960, Note_on_c, 0, 50, 120
2, 361340, Note_off_c, 0, 59, 100
2, 361340, Note_off_c, 0, 55, 100
2, 361340, Note_off_c, 0, 53, 100
2, 361340, Note_off_c, 0, 50, 100
2, 362112, Note_on_c, 0, 60, 120
2, 362112, Note_on_c, 0, 55, 120
2, 362112, Note_on_c, 0, 52, 120
2, 362876, Note_off_c, 0, 60, 100
2, 362876, Note_off_c, 0, 55, 100
2, 362876, Note_off_c, 0, 52, 100
2, 363648, Control_c, 0, 7, 0
2, 364032, Note_on_c, 0, 60, 1
2, 364412, Note_off_c, 0, 60, 100
2, 364412, End_track
3, 0, Start_track
3, 0, Title_t, "Left"
3, 0, Control_c, 1, 0, 0
3, 0, Program_c, 1, 0
3, 0, Control_c, 1, 7, 100
3, 0, Control_c, 1, 10, 54
3, 0, Control_c, 1, 91, 127
3, 0, Key_signature, 0, "major"
3, 384, Note_on_c, 1, 48, 80
3, 384, Note_on_c, 1, 36, 80
3, 764, Note_off_c, 1, 48, 100
3, 764, Note_off_c, 1, 36, 100
3, 2496, Note_on_c, 1, 79, 80
3, 2684, Note_off_c, 1, 79, 100
3, 2688, Note_on_c, 1, 81, 80
3, 3068, Note_off_c, 1, 81, 100
3, 3072, Note_on_c, 1, 79, 80
3, 3260, Note_off_c, 1, 79, 100
3, 3264, Note_on_c, 1, 81, 80
3, 3644, Note_off_c, 1, 81, 100
3, 3648, Note_on_c, 1, 79, 80
3, 3836, Note_off_c, 1, 79, 100
3, 3840, Note_on_c, 1, 78, 80
3, 4220, Note_off_c, 1, 78, 100
3, 4992, Note_on_c, 1, 43, 80
3, 4992, Note_on_c, 1, 31, 80
3, 5372, Note_off_c, 1, 43, 100
3, 5372, Note_off_c, 1, 31, 100
3, 7104, Note_on_c, 1, 67, 80
3, 7292, Note_off_c, 1, 67, 100
3, 7296, Note_on_c, 1, 72, 80
3, 7296, Note_on_c, 1, 60, 80
3, 7676, Note_off_c, 1, 72, 100
3, 7676, Note_off_c, 1, 60, 100
3, 7680, Note_on_c, 1, 71, 80
3, 7680, Note_on_c, 1, 67, 80
3, 7868, Note_off_c, 1, 71, 100
3, 7868, Note_off_c, 1, 67, 100
3, 7872, Note_on_c, 1, 72, 80
3, 7872, Note_on_c, 1, 60, 80
3, 8252, Note_off_c, 1, 72, 100
3, 8252, Note_off_c, 1, 60, 100
3, 8256, Note_on_c, 1, 71, 80
3, 8256, Note_on_c, 1, 67, 80
3, 8444, Note_off_c, 1, 71, 100
3, 8444, Note_off_c, 1, 67, 100
3, 8448, Note_on_c, 1, 60, 80
3, 8448, Note_on_c, 1, 72, 80
3, 8828, Note_off_c, 1, 60, 100
3, 8828, Note_off_c, 1, 72, 100
3, 9600, Note_on_c, 1, 55, 80
3, 9600, Note_on_c, 1, 62, 80
3, 9600, Note_on_c, 1, 65, 80
3, 10172, Note_off_c, 1, 62, 100
3, 10172, Note_off_c, 1, 65, 100
3, 10176, Note_on_c, 1, 60, 80
3, 10176, Note_on_c, 1, 64, 80
3, 10748, Note_off_c, 1, 60, 100
3, 10748, Note_off_c, 1, 64, 100
3, 10752, Note_on_c, 1, 59, 80
3, 10752, Note_on_c, 1, 62, 80
3, 11132, Note_off_c, 1, 55, 100
3, 11132, Note_off_c, 1, 59, 100
3, 11132, Note_off_c, 1, 62, 100
3, 11904, Note_on_c, 1, 55, 80
3, 11904, Note_on_c, 1, 64, 80
3, 11904, Note_on_c, 1, 67, 80
3, 12476, Note_off_c, 1, 64, 100
3, 12476, Note_off_c, 1, 67, 100
3, 12480, Note_on_c, 1, 62, 80
3, 12480, Note_on_c, 1, 65, 80
3, 13052, Note_off_c, 1, 62, 100
3, 13052, Note_off_c, 1, 65, 100
3, 13056, Note_on_c, 1, 60, 80
3, 13056, Note_on_c, 1, 64, 80
3, 13436, Note_off_c, 1, 55, 100
3, 13436, Note_off_c, 1, 60, 100
3, 13436, Note_off_c, 1, 64, 100
3, 14208, Note_on_c, 1, 55, 80
3, 14208, Note_on_c, 1, 60, 80
3, 14208, Note_on_c, 1, 69, 80
3, 14780, Note_off_c, 1, 60, 100
3, 14780, Note_off_c, 1, 69, 100
3, 14784, Note_on_c, 1, 59, 80
3, 14784, Note_on_c, 1, 67, 80
3, 15356, Note_off_c, 1, 59, 100
3, 15356, Note_off_c, 1, 67, 100
3, 15360, Note_on_c, 1, 60, 80
3, 15360, Note_on_c, 1, 66, 80
3, 16508, Note_off_c, 1, 55, 100
3, 16508, Note_off_c, 1, 60, 100
3, 16508, Note_off_c, 1, 66, 100
3, 16512, Note_on_c, 1, 55, 80
3, 16512, Note_on_c, 1, 59, 80
3, 16512, Note_on_c, 1, 67, 80
3, 17084, Note_off_c, 1, 59, 100
3, 17084, Note_off_c, 1, 67, 100
3, 17088, Note_on_c, 1, 60, 80
3, 17088, Note_on_c, 1, 69, 80
3, 17660, Note_off_c, 1, 55, 100
3, 17660, Note_off_c, 1, 60, 100
3, 17660, Note_off_c, 1, 69, 100
3, 17664, Note_on_c, 1, 55, 80
3, 17664, Note_on_c, 1, 59, 80
3, 17664, Note_on_c, 1, 67, 80
3, 18236, Note_off_c, 1, 59, 100
3, 18236, Note_off_c, 1, 67, 100
3, 18240, Note_on_c, 1, 60, 80
3, 18240, Note_on_c, 1, 69, 80
3, 18812, Note_off_c, 1, 55, 100
3, 18812, Note_off_c, 1, 60, 100
3, 18812, Note_off_c, 1, 69, 100
3, 18816, Note_on_c, 1, 67, 80
3, 18816, Note_on_c, 1, 62, 80
3, 18816, Note_on_c, 1, 59, 80
3, 19196, Note_off_c, 1, 67, 100
3, 19196, Note_off_c, 1, 62, 100
3, 19196, Note_off_c, 1, 59, 100
3, 21120, Note_on_c, 1, 48, 80
3, 21120, Note_on_c, 1, 60, 80
3, 21500, Note_off_c, 1, 48, 100
3, 21500, Note_off_c, 1, 60, 100
3, 23232, Note_on_c, 1, 79, 80
3, 23420, Note_off_c, 1, 79, 100
3, 23424, Note_on_c, 1, 81, 80
3, 23804, Note_off_c, 1, 81, 100
3, 23808, Note_on_c, 1, 79, 80
3, 23996, Note_off_c, 1, 79, 100
3, 24000, Note_on_c, 1, 81, 80
3, 24380, Note_off_c, 1, 81, 100
3, 24384, Note_on_c, 1, 79, 80
3, 24572, Note_off_c, 1, 79, 100
3, 24576, Note_on_c, 1, 78, 80
3, 24956, Note_off_c, 1, 78, 100
3, 25728, Note_on_c, 1, 71, 80
3, 25728, Note_on_c, 1, 67, 80
3, 26108, Note_off_c, 1, 71, 100
3, 26108, Note_off_c, 1, 67, 100
3, 26112, Note_on_c, 1, 66, 80
3, 26112, Note_on_c, 1, 69, 80
3, 26300, Note_off_c, 1, 66, 100
3, 26300, Note_off_c, 1, 69, 100
3, 26304, Note_on_c, 1, 71, 80
3, 26304, Note_on_c, 1, 67, 80
3, 26684, Note_off_c, 1, 71, 100
3, 26684, Note_off_c, 1, 67, 100
3, 26688, Note_on_c, 1, 66, 80
3, 26688, Note_on_c, 1, 69, 80
3, 26876, Note_off_c, 1, 66, 100
3, 26876, Note_off_c, 1, 69, 100
3, 26880, Note_on_c, 1, 64, 80
3, 26880, Note_on_c, 1, 67, 80
3, 27260, Note_off_c, 1, 64, 100
3, 27260, Note_off_c, 1, 67, 100
3, 28032, Note_on_c, 1, 66, 110
3, 28032, Note_on_c, 1, 69, 110
3, 28412, Note_off_c, 1, 66, 100
3, 28412, Note_off_c, 1, 69, 100
3, 28416, Note_on_c, 1, 67, 110
3, 28416, Note_on_c, 1, 64, 110
3, 28604, Note_off_c, 1, 67, 100
3, 28604, Note_off_c, 1, 64, 100
3, 28608, Note_on_c, 1, 62, 110
3, 28608, Note_on_c, 1, 66, 110
3, 28988, Note_off_c, 1, 62, 100
3, 28988, Note_off_c, 1, 66, 100
3, 28992, Note_on_c, 1, 64, 110
3, 28992, Note_on_c, 1, 60, 110
3, 29180, Note_off_c, 1, 64, 100
3, 29180, Note_off_c, 1, 60, 100
3, 29184, Note_on_c, 1, 59, 110
3, 29184, Note_on_c, 1, 62, 110
3, 29564, Note_off_c, 1, 59, 100
3, 29564, Note_off_c, 1, 62, 100
3, 29568, Note_on_c, 1, 60, 110
3, 29568, Note_on_c, 1, 57, 110
3, 29756, Note_off_c, 1, 60, 100
3, 29756, Note_off_c, 1, 57, 100
3, 29760, Note_on_c, 1, 55, 110
3, 29760, Note_on_c, 1, 59, 110
3, 30140, Note_off_c, 1, 55, 100
3, 30140, Note_off_c, 1, 59, 100
3, 30144, Note_on_c, 1, 57, 110
3, 30144, Note_on_c, 1, 54, 110
3, 30332, Note_off_c, 1, 57, 100
3, 30332, Note_off_c, 1, 54, 100
3, 30336, Note_on_c, 1, 55, 110
3, 30336, Note_on_c, 1, 52, 110
3, 30716, Note_off_c, 1, 55, 100
3, 30716, Note_off_c, 1, 52, 100
3, 30720, Note_on_c, 1, 54, 110
3, 30720, Note_on_c, 1, 50, 110
3, 30908, Note_off_c, 1, 54, 100
3, 30908, Note_off_c, 1, 50, 100
3, 30912, Note_on_c, 1, 52, 110
3, 30912, Note_on_c, 1, 48, 110
3, 31292, Note_off_c, 1, 52, 100
3, 31292, Note_off_c, 1, 48, 100
3, 31296, Note_on_c, 1, 50, 110
3, 31296, Note_on_c, 1, 47, 110
3, 31484, Note_off_c, 1, 50, 100
3, 31484, Note_off_c, 1, 47, 100
3, 31488, Note_on_c, 1, 52, 110
3, 31488, Note_on_c, 1, 48, 110
3, 31868, Note_off_c, 1, 52, 100
3, 31868, Note_off_c, 1, 48, 100
3, 31872, Note_on_c, 1, 50, 110
3, 31872, Note_on_c, 1, 47, 110
3, 32060, Note_off_c, 1, 50, 100
3, 32060, Note_off_c, 1, 47, 100
3, 32064, Note_on_c, 1, 52, 110
3, 32064, Note_on_c, 1, 48, 110
3, 32444, Note_off_c, 1, 52, 100
3, 32444, Note_off_c, 1, 48, 100
3, 32448, Note_on_c, 1, 52, 110
3, 32448, Note_on_c, 1, 49, 110
3, 32636, Note_off_c, 1, 52, 100
3, 32636, Note_off_c, 1, 49, 100
3, 32640, Note_on_c, 1, 50, 100
3, 32736, Note_on_c, 1, 54, 100
3, 32736, Note_on_c, 1, 57, 100
3, 32784, Note_off_c, 1, 50, 100
3, 32832, Note_on_c, 1, 62, 100
3, 32880, Note_off_c, 1, 54, 100
3, 32908, Note_off_c, 1, 57, 100
3, 32928, Note_on_c, 1, 54, 100
3, 32928, Note_on_c, 1, 57, 100
3, 32996, Note_off_c, 1, 62, 100
3, 33024, Note_on_c, 1, 62, 100
3, 33092, Note_off_c, 1, 54, 100
3, 33108, Note_off_c, 1, 57, 100
3, 33120, Note_on_c, 1, 54, 100
3, 33120, Note_on_c, 1, 57, 100
3, 33188, Note_off_c, 1, 62, 100
3, 33216, Note_on_c, 1, 62, 100
3, 33276, Note_off_c, 1, 54, 100
3, 33284, Note_off_c, 1, 57, 100
3, 33312, Note_on_c, 1, 54, 100
3, 33312, Note_on_c, 1, 57, 100
3, 33384, Note_off_c, 1, 62, 100
3, 33408, Note_on_c, 1, 62, 100
3, 33464, Note_off_c, 1, 54, 100
3, 33472, Note_off_c, 1, 57, 100
3, 33504, Note_on_c, 1, 54, 100
3, 33504, Note_on_c, 1, 57, 100
3, 33564, Note_off_c, 1, 62, 100
3, 33600, Note_on_c, 1, 62, 100
3, 33656, Note_off_c, 1, 54, 100
3, 33660, Note_off_c, 1, 57, 100
3, 33696, Note_on_c, 1, 57, 100
3, 33696, Note_on_c, 1, 54, 100
3, 33764, Note_off_c, 1, 62, 100
3, 33792, Note_on_c, 1, 50, 80
3, 33856, Note_off_c, 1, 57, 100
3, 33876, Note_off_c, 1, 54, 100
3, 33888, Note_on_c, 1, 54, 80
3, 33888, Note_on_c, 1, 57, 80
3, 33980, Note_off_c, 1, 50, 100
3, 33984, Note_on_c, 1, 62, 80
3, 34048, Note_off_c, 1, 54, 100
3, 34060, Note_off_c, 1, 57, 100
3, 34080, Note_on_c, 1, 54, 80
3, 34080, Note_on_c, 1, 57, 80
3, 34144, Note_off_c, 1, 62, 100
3, 34176, Note_on_c, 1, 62, 80
3, 34240, Note_off_c, 1, 54, 100
3, 34248, Note_off_c, 1, 57, 100
3, 34272, Note_on_c, 1, 54, 80
3, 34272, Note_on_c, 1, 57, 80
3, 34352, Note_off_c, 1, 62, 100
3, 34368, Note_on_c, 1, 48, 80
3, 34436, Note_off_c, 1, 57, 100
3, 34456, Note_off_c, 1, 54, 100
3, 34464, Note_on_c, 1, 54, 80
3, 34464, Note_on_c, 1, 57, 80
3, 34528, Note_off_c, 1, 48, 100
3, 34560, Note_on_c, 1, 62, 80
3, 34632, Note_off_c, 1, 54, 100
3, 34636, Note_off_c, 1, 57, 100
3, 34656, Note_on_c, 1, 54, 80
3, 34656, Note_on_c, 1, 57, 80
3, 34736, Note_off_c, 1, 62, 100
3, 34752, Note_on_c, 1, 62, 80
3, 34820, Note_off_c, 1, 57, 100
3, 34828, Note_off_c, 1, 54, 100
3, 34848, Note_on_c, 1, 57, 80
3, 34848, Note_on_c, 1, 54, 80
3, 34932, Note_off_c, 1, 62, 100
3, 34944, Note_on_c, 1, 47, 80
3, 35024, Note_off_c, 1, 54, 100
3, 35024, Note_off_c, 1, 57, 100
3, 35040, Note_on_c, 1, 55, 80
3, 35040, Note_on_c, 1, 59, 80
3, 35100, Note_off_c, 1, 47, 100
3, 35136, Note_on_c, 1, 62, 80
3, 35200, Note_off_c, 1, 59, 100
3, 35212, Note_off_c, 1, 55, 100
3, 35232, Note_on_c, 1, 59, 80
3, 35232, Note_on_c, 1, 55, 80
3, 35296, Note_off_c, 1, 62, 100
3, 35328, Note_on_c, 1, 62, 80
3, 35384, Note_off_c, 1, 55, 100
3, 35388, Note_off_c, 1, 59, 100
3, 35424, Note_on_c, 1, 59, 80
3, 35424, Note_on_c, 1, 55, 80
3, 35480, Note_off_c, 1, 62, 100
3, 35520, Note_on_c, 1, 62, 80
3, 35588, Note_off_c, 1, 59, 100
3, 35596, Note_off_c, 1, 55, 100
3, 35616, Note_on_c, 1, 55, 80
3, 35616, Note_on_c, 1, 59, 80
3, 35684, Note_off_c, 1, 62, 100
3, 35712, Note_on_c, 1, 62, 80
3, 35788, Note_off_c, 1, 55, 100
3, 35792, Note_off_c, 1, 59, 100
3, 35808, Note_on_c, 1, 59, 80
3, 35808, Note_on_c, 1, 55, 80
3, 35884, Note_off_c, 1, 62, 100
3, 35904, Note_on_c, 1, 62, 80
3, 35972, Note_off_c, 1, 55, 100
3, 35984, Note_off_c, 1, 59, 100
3, 36000, Note_on_c, 1, 55, 80
3, 36000, Note_on_c, 1, 59, 80
3, 36076, Note_off_c, 1, 62, 100
3, 36096, Note_on_c, 1, 50, 80
3, 36140, Note_off_c, 1, 55, 100
3, 36152, Note_off_c, 1, 59, 100
3, 36192, Note_on_c, 1, 54, 80
3, 36192, Note_on_c, 1, 57, 80
3, 36264, Note_off_c, 1, 50, 100
3, 36288, Note_on_c, 1, 62, 80
3, 36352, Note_off_c, 1, 54, 100
3, 36360, Note_off_c, 1, 57, 100
3, 36384, Note_on_c, 1, 54, 80
3, 36384, Note_on_c, 1, 57, 80
3, 36452, Note_off_c, 1, 62, 100
3, 36480, Note_on_c, 1, 62, 80
3, 36544, Note_off_c, 1, 54, 100
3, 36556, Note_off_c, 1, 57, 100
3, 36576, Note_on_c, 1, 54, 80
3, 36576, Note_on_c, 1, 57, 80
3, 36636, Note_off_c, 1, 62, 100
3, 36672, Note_on_c, 1, 48, 80
3, 36752, Note_off_c, 1, 57, 100
3, 36756, Note_off_c, 1, 54, 100
3, 36768, Note_on_c, 1, 54, 80
3, 36768, Note_on_c, 1, 57, 80
3, 36840, Note_off_c, 1, 48, 100
3, 36864, Note_on_c, 1, 62, 80
3, 36920, Note_off_c, 1, 54, 100
3, 36924, Note_off_c, 1, 57, 100
3, 36960, Note_on_c, 1, 54, 80
3, 36960, Note_on_c, 1, 57, 80
3, 37040, Note_off_c, 1, 62, 100
3, 37056, Note_on_c, 1, 62, 80
3, 37128, Note_off_c, 1, 54, 100
3, 37132, Note_off_c, 1, 57, 100
3, 37152, Note_on_c, 1, 57, 80
3, 37152, Note_on_c, 1, 54, 80
3, 37236, Note_off_c, 1, 62, 100
3, 37248, Note_on_c, 1, 47, 80
3, 37320, Note_off_c, 1, 57, 100
3, 37336, Note_off_c, 1, 54, 100
3, 37344, Note_on_c, 1, 55, 80
3, 37344, Note_on_c, 1, 59, 80
3, 37432, Note_off_c, 1, 47, 100
3, 37440, Note_on_c, 1, 62, 80
3, 37520, Note_off_c, 1, 59, 100
3, 37528, Note_off_c, 1, 55, 100
3, 37536, Note_on_c, 1, 59, 80
3, 37536, Note_on_c, 1, 55, 80
3, 37612, Note_off_c, 1, 62, 100
3, 37632, Note_on_c, 1, 62, 80
3, 37708, Note_off_c, 1, 59, 100
3, 37720, Note_off_c, 1, 55, 100
3, 37728, Note_on_c, 1, 59, 80
3, 37728, Note_on_c, 1, 55, 80
3, 37812, Note_off_c, 1, 62, 100
3, 37824, Note_on_c, 1, 62, 80
3, 37904, Note_off_c, 1, 59, 100
3, 37908, Note_off_c, 1, 55, 100
3, 37920, Note_on_c, 1, 55, 80
3, 37920, Note_on_c, 1, 59, 80
3, 37972, Note_off_c, 1, 62, 100
3, 38016, Note_on_c, 1, 62, 80
3, 38072, Note_off_c, 1, 59, 100
3, 38096, Note_off_c, 1, 55, 100
3, 38112, Note_on_c, 1, 59, 80
3, 38112, Note_on_c, 1, 55, 80
3, 38188, Note_off_c, 1, 62, 100
3, 38208, Note_on_c, 1, 62, 80
3, 38276, Note_off_c, 1, 59, 100
3, 38276, Note_off_c, 1, 55, 100
3, 38304, Note_on_c, 1, 55, 80
3, 38304, Note_on_c, 1, 59, 80
3, 38376, Note_off_c, 1, 62, 100
3, 38400, Note_on_c, 1, 50, 80
3, 38468, Note_off_c, 1, 59, 100
3, 38480, Note_off_c, 1, 55, 100
3, 38496, Note_on_c, 1, 54, 80
3, 38496, Note_on_c, 1, 57, 80
3, 38568, Note_off_c, 1, 50, 100
3, 38592, Note_on_c, 1, 62, 80
3, 38664, Note_off_c, 1, 57, 100
3, 38668, Note_off_c, 1, 54, 100
3, 38688, Note_on_c, 1, 54, 80
3, 38688, Note_on_c, 1, 57, 80
3, 38780, Note_off_c, 1, 62, 100
3, 38784, Note_on_c, 1, 62, 80
3, 38856, Note_off_c, 1, 54, 100
3, 38856, Note_off_c, 1, 57, 100
3, 38880, Note_on_c, 1, 54, 80
3, 38880, Note_on_c, 1, 57, 80
3, 38948, Note_off_c, 1, 62, 100
3, 38976, Note_on_c, 1, 48, 80
3, 39052, Note_off_c, 1, 57, 100
3, 39064, Note_off_c, 1, 54, 100
3, 39072, Note_on_c, 1, 54, 80
3, 39072, Note_on_c, 1, 57, 80
3, 39136, Note_off_c, 1, 48, 100
3, 39168, Note_on_c, 1, 62, 80
3, 39232, Note_off_c, 1, 54, 100
3, 39232, Note_off_c, 1, 57, 100
3, 39264, Note_on_c, 1, 54, 80
3, 39264, Note_on_c, 1, 57, 80
3, 39356, Note_off_c, 1, 62, 100
3, 39360, Note_on_c, 1, 62, 80
3, 39424, Note_off_c, 1, 54, 100
3, 39432, Note_off_c, 1, 57, 100
3, 39456, Note_on_c, 1, 54, 80
3, 39456, Note_on_c, 1, 57, 80
3, 39524, Note_off_c, 1, 62, 100
3, 39548, Note_off_c, 1, 54, 100
3, 39548, Note_off_c, 1, 57, 100
3, 39552, Note_on_c, 1, 47, 80
3, 39932, Note_off_c, 1, 47, 100
3, 39936, Note_on_c, 1, 54, 80
3, 40124, Note_off_c, 1, 54, 100
3, 40128, Note_on_c, 1, 55, 80
3, 40316, Note_off_c, 1, 55, 100
3, 40320, Note_on_c, 1, 59, 80
3, 40508, Note_off_c, 1, 59, 100
3, 40512, Note_on_c, 1, 51, 80
3, 40700, Note_off_c, 1, 51, 100
3, 40704, Note_on_c, 1, 52, 80
3, 40892, Note_off_c, 1, 52, 100
3, 40896, Note_on_c, 1, 55, 80
3, 41084, Note_off_c, 1, 55, 100
3, 41088, Note_on_c, 1, 47, 80
3, 41276, Note_off_c, 1, 47, 100
3, 41280, Note_on_c, 1, 48, 80
3, 41468, Note_off_c, 1, 48, 100
3, 41472, Note_on_c, 1, 52, 80
3, 41660, Note_off_c, 1, 52, 100
3, 41664, Note_on_c, 1, 44, 80
3, 41852, Note_off_c, 1, 44, 100
3, 41856, Note_on_c, 1, 45, 80
3, 42044, Note_off_c, 1, 45, 100
3, 42048, Note_on_c, 1, 48, 80
3, 42236, Note_off_c, 1, 48, 100
3, 42240, Note_on_c, 1, 47, 80
3, 42428, Note_off_c, 1, 47, 100
3, 42432, Note_on_c, 1, 45, 80
3, 42620, Note_off_c, 1, 45, 100
3, 42624, Note_on_c, 1, 47, 80
3, 42812, Note_off_c, 1, 47, 100
3, 42816, Note_on_c, 1, 48, 80
3, 43004, Note_off_c, 1, 48, 100
3, 43008, Note_on_c, 1, 50, 80
3, 43196, Note_off_c, 1, 50, 100
3, 43200, Note_on_c, 1, 49, 80
3, 43388, Note_off_c, 1, 49, 100
3, 43392, Note_on_c, 1, 50, 80
3, 43580, Note_off_c, 1, 50, 100
3, 43584, Note_on_c, 1, 38, 80
3, 43772, Note_off_c, 1, 38, 100
3, 43776, Note_on_c, 1, 40, 80
3, 43964, Note_off_c, 1, 40, 100
3, 43968, Note_on_c, 1, 42, 80
3, 44156, Note_off_c, 1, 42, 100
3, 44160, Note_on_c, 1, 43, 80
3, 44540, Note_off_c, 1, 43, 100
3, 45312, Note_on_c, 1, 50, 80
3, 45404, Note_off_c, 1, 50, 100
3, 45408, Note_on_c, 1, 54, 80
3, 45408, Note_on_c, 1, 57, 80
3, 45500, Note_off_c, 1, 54, 100
3, 45500, Note_off_c, 1, 57, 100
3, 45504, Note_on_c, 1, 62, 80
3, 45596, Note_off_c, 1, 62, 100
3, 45600, Note_on_c, 1, 54, 80
3, 45600, Note_on_c, 1, 57, 80
3, 45692, Note_off_c, 1, 54, 100
3, 45692, Note_off_c, 1, 57, 100
3, 45696, Note_on_c, 1, 62, 80
3, 45788, Note_off_c, 1, 62, 100
3, 45792, Note_on_c, 1, 54, 80
3, 45792, Note_on_c, 1, 57, 80
3, 45884, Note_off_c, 1, 54, 100
3, 45884, Note_off_c, 1, 57, 100
3, 45888, Note_on_c, 1, 48, 80
3, 45980, Note_off_c, 1, 48, 100
3, 45984, Note_on_c, 1, 54, 80
3, 45984, Note_on_c, 1, 57, 80
3, 46076, Note_off_c, 1, 54, 100
3, 46076, Note_off_c, 1, 57, 100
3, 46080, Note_on_c, 1, 62, 80
3, 46172, Note_off_c, 1, 62, 100
3, 46176, Note_on_c, 1, 54, 80
3, 46176, Note_on_c, 1, 57, 80
3, 46268, Note_off_c, 1, 54, 100
3, 46268, Note_off_c, 1, 57, 100
3, 46272, Note_on_c, 1, 62, 80
3, 46364, Note_off_c, 1, 62, 100
3, 46368, Note_on_c, 1, 54, 80
3, 46368, Note_on_c, 1, 57, 80
3, 46460, Note_off_c, 1, 54, 100
3, 46460, Note_off_c, 1, 57, 100
3, 46464, Note_on_c, 1, 47, 80
3, 46556, Note_off_c, 1, 47, 100
3, 46560, Note_on_c, 1, 55, 80
3, 46560, Note_on_c, 1, 59, 80
3, 46652, Note_off_c, 1, 55, 100
3, 46652, Note_off_c, 1, 59, 100
3, 46656, Note_on_c, 1, 62, 80
3, 46748, Note_off_c, 1, 62, 100
3, 46752, Note_on_c, 1, 59, 80
3, 46752, Note_on_c, 1, 55, 80
3, 46844, Note_off_c, 1, 59, 100
3, 46844, Note_off_c, 1, 55, 100
3, 46848, Note_on_c, 1, 62, 80
3, 46940, Note_off_c, 1, 62, 100
3, 46944, Note_on_c, 1, 59, 80
3, 46944, Note_on_c, 1, 55, 80
3, 47036, Note_off_c, 1, 59, 100
3, 47036, Note_off_c, 1, 55, 100
3, 47040, Note_on_c, 1, 62, 80
3, 47132, Note_off_c, 1, 62, 100
3, 47136, Note_on_c, 1, 55, 80
3, 47136, Note_on_c, 1, 59, 80
3, 47228, Note_off_c, 1, 55, 100
3, 47228, Note_off_c, 1, 59, 100
3, 47232, Note_on_c, 1, 62, 80
3, 47324, Note_off_c, 1, 62, 100
3, 47328, Note_on_c, 1, 59, 80
3, 47328, Note_on_c, 1, 55, 80
3, 47420, Note_off_c, 1, 59, 100
3, 47420, Note_off_c, 1, 55, 100
3, 47424, Note_on_c, 1, 62, 80
3, 47516, Note_off_c, 1, 62, 100
3, 47520, Note_on_c, 1, 59, 80
3, 47520, Note_on_c, 1, 55, 80
3, 47612, Note_off_c, 1, 59, 100
3, 47612, Note_off_c, 1, 55, 100
3, 47616, Note_on_c, 1, 50, 80
3, 47708, Note_off_c, 1, 50, 100
3, 47712, Note_on_c, 1, 54, 80
3, 47712, Note_on_c, 1, 57, 80
3, 47804, Note_off_c, 1, 54, 100
3, 47804, Note_off_c, 1, 57, 100
3, 47808, Note_on_c, 1, 62, 80
3, 47900, Note_off_c, 1, 62, 100
3, 47904, Note_on_c, 1, 54, 80
3, 47904, Note_on_c, 1, 57, 80
3, 47996, Note_off_c, 1, 54, 100
3, 47996, Note_off_c, 1, 57, 100
3, 48000, Note_on_c, 1, 62, 80
3, 48092, Note_off_c, 1, 62, 100
3, 48096, Note_on_c, 1, 54, 80
3, 48096, Note_on_c, 1, 57, 80
3, 48188, Note_off_c, 1, 54, 100
3, 48188, Note_off_c, 1, 57, 100
3, 48192, Note_on_c, 1, 48, 80
3, 48284, Note_off_c, 1, 48, 100
3, 48288, Note_on_c, 1, 54, 80
3, 48288, Note_on_c, 1, 57, 80
3, 48380, Note_off_c, 1, 54, 100
3, 48380, Note_off_c, 1, 57, 100
3, 48384, Note_on_c, 1, 62, 80
3, 48476, Note_off_c, 1, 62, 100
3, 48480, Note_on_c, 1, 54, 80
3, 48480, Note_on_c, 1, 57, 80
3, 48572, Note_off_c, 1, 54, 100
3, 48572, Note_off_c, 1, 57, 100
3, 48576, Note_on_c, 1, 62, 80
3, 48668, Note_off_c, 1, 62, 100
3, 48672, Note_on_c, 1, 54, 80
3, 48672, Note_on_c, 1, 57, 80
3, 48764, Note_off_c, 1, 54, 100
3, 48764, Note_off_c, 1, 57, 100
3, 48768, Note_on_c, 1, 46, 80
3, 48860, Note_off_c, 1, 46, 100
3, 48864, Note_on_c, 1, 55, 80
3, 48864, Note_on_c, 1, 58, 80
3, 48956, Note_off_c, 1, 55, 100
3, 48956, Note_off_c, 1, 58, 100
3, 48960, Note_on_c, 1, 62, 80
3, 49052, Note_off_c, 1, 62, 100
3, 49056, Note_on_c, 1, 58, 80
3, 49056, Note_on_c, 1, 55, 80
3, 49148, Note_off_c, 1, 58, 100
3, 49148, Note_off_c, 1, 55, 100
3, 49152, Note_on_c, 1, 62, 80
3, 49244, Note_off_c, 1, 62, 100
3, 49248, Note_on_c, 1, 58, 80
3, 49248, Note_on_c, 1, 55, 80
3, 49340, Note_off_c, 1, 58, 100
3, 49340, Note_off_c, 1, 55, 100
3, 49344, Note_on_c, 1, 62, 80
3, 49436, Note_off_c, 1, 62, 100
3, 49440, Note_on_c, 1, 55, 80
3, 49440, Note_on_c, 1, 58, 80
3, 49532, Note_off_c, 1, 55, 100
3, 49532, Note_off_c, 1, 58, 100
3, 49536, Note_on_c, 1, 62, 80
3, 49628, Note_off_c, 1, 62, 100
3, 49632, Note_on_c, 1, 58, 80
3, 49632, Note_on_c, 1, 55, 80
3, 49724, Note_off_c, 1, 58, 100
3, 49724, Note_off_c, 1, 55, 100
3, 49728, Note_on_c, 1, 62, 80
3, 49820, Note_off_c, 1, 62, 100
3, 49824, Note_on_c, 1, 58, 80
3, 49824, Note_on_c, 1, 55, 80
3, 49916, Note_off_c, 1, 58, 100
3, 49916, Note_off_c, 1, 55, 100
3, 49920, Note_on_c, 1, 50, 80
3, 50012, Note_off_c, 1, 50, 100
3, 50016, Note_on_c, 1, 54, 80
3, 50016, Note_on_c, 1, 57, 80
3, 50108, Note_off_c, 1, 54, 100
3, 50108, Note_off_c, 1, 57, 100
3, 50112, Note_on_c, 1, 62, 80
3, 50204, Note_off_c, 1, 62, 100
3, 50208, Note_on_c, 1, 54, 80
3, 50208, Note_on_c, 1, 57, 80
3, 50300, Note_off_c, 1, 54, 100
3, 50300, Note_off_c, 1, 57, 100
3, 50304, Note_on_c, 1, 62, 80
3, 50396, Note_off_c, 1, 62, 100
3, 50400, Note_on_c, 1, 54, 80
3, 50400, Note_on_c, 1, 57, 80
3, 50492, Note_off_c, 1, 54, 100
3, 50492, Note_off_c, 1, 57, 100
3, 50496, Note_on_c, 1, 48, 80
3, 50588, Note_off_c, 1, 48, 100
3, 50592, Note_on_c, 1, 54, 80
3, 50592, Note_on_c, 1, 57, 80
3, 50684, Note_off_c, 1, 54, 100
3, 50684, Note_off_c, 1, 57, 100
3, 50688, Note_on_c, 1, 62, 80
3, 50780, Note_off_c, 1, 62, 100
3, 50784, Note_on_c, 1, 54, 80
3, 50784, Note_on_c, 1, 57, 80
3, 50876, Note_off_c, 1, 54, 100
3, 50876, Note_off_c, 1, 57, 100
3, 50880, Note_on_c, 1, 62, 80
3, 50972, Note_off_c, 1, 62, 100
3, 50976, Note_on_c, 1, 54, 80
3, 50976, Note_on_c, 1, 57, 80
3, 51068, Note_off_c, 1, 54, 100
3, 51068, Note_off_c, 1, 57, 100
3, 51072, Note_on_c, 1, 46, 80
3, 51452, Note_off_c, 1, 46, 100
3, 51456, Note_on_c, 1, 66, 80
3, 51644, Note_off_c, 1, 66, 100
3, 51648, Note_on_c, 1, 67, 80
3, 51836, Note_off_c, 1, 67, 100
3, 51840, Note_on_c, 1, 70, 80
3, 52028, Note_off_c, 1, 70, 100
3, 52032, Note_on_c, 1, 62, 80
3, 52220, Note_off_c, 1, 62, 100
3, 52224, Note_on_c, 1, 63, 80
3, 52412, Note_off_c, 1, 63, 100
3, 52416, Note_on_c, 1, 67, 80
3, 52604, Note_off_c, 1, 67, 100
3, 52608, Note_on_c, 1, 59, 80
3, 52796, Note_off_c, 1, 59, 100
3, 52800, Note_on_c, 1, 60, 80
3, 52988, Note_off_c, 1, 60, 100
3, 52992, Note_on_c, 1, 63, 80
3, 53180, Note_off_c, 1, 63, 100
3, 53184, Note_on_c, 1, 55, 80
3, 53372, Note_off_c, 1, 55, 100
3, 53376, Note_on_c, 1, 56, 80
3, 53756, Note_off_c, 1, 56, 100
3, 53760, Note_on_c, 1, 64, 80
3, 53948, Note_off_c, 1, 64, 100
3, 53952, Note_on_c, 1, 65, 80
3, 54140, Note_off_c, 1, 65, 100
3, 54144, Note_on_c, 1, 68, 80
3, 54332, Note_off_c, 1, 68, 100
3, 54336, Note_on_c, 1, 61, 80
3, 54524, Note_off_c, 1, 61, 100
3, 54528, Note_on_c, 1, 62, 80
3, 54716, Note_off_c, 1, 62, 100
3, 54720, Note_on_c, 1, 65, 80
3, 54908, Note_off_c, 1, 65, 100
3, 54912, Note_on_c, 1, 57, 80
3, 55100, Note_off_c, 1, 57, 100
3, 55104, Note_on_c, 1, 58, 80
3, 55292, Note_off_c, 1, 58, 100
3, 55296, Note_on_c, 1, 62, 80
3, 55484, Note_off_c, 1, 62, 100
3, 55488, Note_on_c, 1, 54, 80
3, 55676, Note_off_c, 1, 54, 100
3, 55680, Note_on_c, 1, 55, 80
3, 56060, Note_off_c, 1, 55, 100
3, 56064, Note_on_c, 1, 62, 80
3, 56252, Note_off_c, 1, 62, 100
3, 56256, Note_on_c, 1, 63, 80
3, 56444, Note_off_c, 1, 63, 100
3, 56448, Note_on_c, 1, 67, 80
3, 56636, Note_off_c, 1, 67, 100
3, 56640, Note_on_c, 1, 59, 80
3, 56828, Note_off_c, 1, 59, 100
3, 56832, Note_on_c, 1, 60, 80
3, 57020, Note_off_c, 1, 60, 100
3, 57024, Note_on_c, 1, 63, 80
3, 57212, Note_off_c, 1, 63, 100
3, 57216, Note_on_c, 1, 55, 80
3, 57404, Note_off_c, 1, 55, 100
3, 57408, Note_on_c, 1, 56, 80
3, 57596, Note_off_c, 1, 56, 100
3, 57600, Note_on_c, 1, 60, 80
3, 57788, Note_off_c, 1, 60, 100
3, 57792, Note_on_c, 1, 52, 80
3, 57980, Note_off_c, 1, 52, 100
3, 57984, Note_on_c, 1, 53, 80
3, 58172, Note_off_c, 1, 53, 100
3, 58176, Note_on_c, 1, 56, 80
3, 58364, Note_off_c, 1, 56, 100
3, 58368, Note_on_c, 1, 49, 80
3, 58556, Note_off_c, 1, 49, 100
3, 58560, Note_on_c, 1, 50, 80
3, 58748, Note_off_c, 1, 50, 100
3, 58752, Note_on_c, 1, 53, 80
3, 58940, Note_off_c, 1, 53, 100
3, 58944, Note_on_c, 1, 46, 80
3, 59132, Note_off_c, 1, 46, 100
3, 59136, Note_on_c, 1, 47, 80
3, 59324, Note_off_c, 1, 47, 100
3, 59328, Note_on_c, 1, 50, 80
3, 59516, Note_off_c, 1, 50, 100
3, 59520, Note_on_c, 1, 42, 80
3, 59708, Note_off_c, 1, 42, 100
3, 59712, Note_on_c, 1, 43, 80
3, 59900, Note_off_c, 1, 43, 100
3, 59904, Note_on_c, 1, 47, 80
3, 60092, Note_off_c, 1, 47, 100
3, 60096, Note_on_c, 1, 38, 80
3, 60284, Note_off_c, 1, 38, 100
3, 60288, Note_on_c, 1, 39, 100
3, 60476, Note_off_c, 1, 39, 100
3, 60480, Note_on_c, 1, 43, 100
3, 60668, Note_off_c, 1, 43, 100
3, 60672, Note_on_c, 1, 35, 100
3, 60860, Note_off_c, 1, 35, 100
3, 60864, Note_on_c, 1, 36, 100
3, 61052, Note_off_c, 1, 36, 100
3, 61056, Note_on_c, 1, 39, 100
3, 61244, Note_off_c, 1, 39, 100
3, 61248, Note_on_c, 1, 31, 100
3, 61436, Note_off_c, 1, 31, 100
3, 61440, Note_on_c, 1, 32, 100
3, 61628, Note_off_c, 1, 32, 100
3, 61632, Note_on_c, 1, 36, 100
3, 61820, Note_off_c, 1, 36, 100
3, 61824, Note_on_c, 1, 31, 100
3, 62012, Note_off_c, 1, 31, 100
3, 62016, Note_on_c, 1, 32, 100
3, 62204, Note_off_c, 1, 32, 100
3, 62208, Note_on_c, 1, 36, 100
3, 62396, Note_off_c, 1, 36, 100
3, 62400, Note_on_c, 1, 30, 100
3, 62588, Note_off_c, 1, 30, 100
3, 62592, Note_on_c, 1, 31, 103
3, 63168, Note_on_c, 1, 41, 80
3, 63740, Note_off_c, 1, 41, 100
3, 63744, Note_on_c, 1, 39, 80
3, 64316, Note_off_c, 1, 39, 100
3, 64320, Note_on_c, 1, 36, 80
3, 64892, Note_off_c, 1, 31, 100
3, 64892, Note_off_c, 1, 36, 100
3, 64896, Note_on_c, 1, 31, 80
3, 65084, Note_off_c, 1, 31, 100
3, 65088, Note_on_c, 1, 35, 80
3, 65276, Note_off_c, 1, 35, 100
3, 65280, Note_on_c, 1, 38, 80
3, 65468, Note_off_c, 1, 38, 100
3, 65472, Note_on_c, 1, 43, 80
3, 65660, Note_off_c, 1, 43, 100
3, 65664, Note_on_c, 1, 45, 80
3, 65852, Note_off_c, 1, 45, 100
3, 65856, Note_on_c, 1, 47, 80
3, 66044, Note_off_c, 1, 47, 100
3, 66048, Note_on_c, 1, 48, 80
3, 66236, Note_off_c, 1, 48, 100
3, 66240, Note_on_c, 1, 40, 80
3, 66428, Note_off_c, 1, 40, 100
3, 66432, Note_on_c, 1, 50, 80
3, 66620, Note_off_c, 1, 50, 100
3, 66624, Note_on_c, 1, 51, 80
3, 66812, Note_off_c, 1, 51, 100
3, 66816, Note_on_c, 1, 43, 80
3, 67004, Note_off_c, 1, 43, 100
3, 67008, Note_on_c, 1, 54, 80
3, 67196, Note_off_c, 1, 54, 100
3, 67200, Note_on_c, 1, 43, 103
3, 67200, Note_on_c, 1, 55, 80
3, 67772, Note_off_c, 1, 55, 100
3, 67776, Note_on_c, 1, 53, 80
3, 68348, Note_off_c, 1, 53, 100
3, 68352, Note_on_c, 1, 51, 80
3, 68924, Note_off_c, 1, 51, 100
3, 68928, Note_on_c, 1, 48, 80
3, 69500, Note_off_c, 1, 43, 100
3, 69500, Note_off_c, 1, 48, 100
3, 69504, Note_on_c, 1, 43, 80
3, 69692, Note_off_c, 1, 43, 100
3, 69696, Note_on_c, 1, 47, 80
3, 69884, Note_off_c, 1, 47, 100
3, 69888, Note_on_c, 1, 50, 80
3, 70076, Note_off_c, 1, 50, 100
3, 70080, Note_on_c, 1, 55, 80
3, 70268, Note_off_c, 1, 55, 100
3, 70272, Note_on_c, 1, 57, 80
3, 70460, Note_off_c, 1, 57, 100
3, 70464, Note_on_c, 1, 59, 80
3, 70652, Note_off_c, 1, 59, 100
3, 70656, Note_on_c, 1, 60, 80
3, 70844, Note_off_c, 1, 60, 100
3, 70848, Note_on_c, 1, 52, 80
3, 71036, Note_off_c, 1, 52, 100
3, 71040, Note_on_c, 1, 62, 80
3, 71228, Note_off_c, 1, 62, 100
3, 71232, Note_on_c, 1, 63, 80
3, 71420, Note_off_c, 1, 63, 100
3, 71424, Note_on_c, 1, 55, 80
3, 71612, Note_off_c, 1, 55, 100
3, 71616, Note_on_c, 1, 66, 80
3, 71804, Note_off_c, 1, 66, 100
3, 71808, Note_on_c, 1, 67, 80
3, 72188, Note_off_c, 1, 67, 100
3, 74112, Note_on_c, 1, 47, 80
3, 74300, Note_off_c, 1, 47, 100
3, 74304, Note_on_c, 1, 42, 80
3, 74492, Note_off_c, 1, 42, 100
3, 74496, Note_on_c, 1, 43, 80
3, 74684, Note_off_c, 1, 43, 100
3, 74688, Note_on_c, 1, 45, 80
3, 74876, Note_off_c, 1, 45, 100
3, 74880, Note_on_c, 1, 47, 80
3, 75068, Note_off_c, 1, 47, 100
3, 75072, Note_on_c, 1, 48, 80
3, 75260, Note_off_c, 1, 48, 100
3, 75264, Note_on_c, 1, 50, 80
3, 75452, Note_off_c, 1, 50, 100
3, 75456, Note_on_c, 1, 52, 80
3, 75644, Note_off_c, 1, 52, 100
3, 75648, Note_on_c, 1, 54, 80
3, 75836, Note_off_c, 1, 54, 100
3, 75840, Note_on_c, 1, 55, 80
3, 76028, Note_off_c, 1, 55, 100
3, 76032, Note_on_c, 1, 57, 80
3, 76220, Note_off_c, 1, 57, 100
3, 76224, Note_on_c, 1, 59, 80
3, 76412, Note_off_c, 1, 59, 100
3, 76416, Note_on_c, 1, 55, 80
3, 76604, Note_off_c, 1, 55, 100
3, 76608, Note_on_c, 1, 54, 76
3, 76796, Note_off_c, 1, 54, 100
3, 76800, Note_on_c, 1, 55, 70
3, 76988, Note_off_c, 1, 55, 100
3, 76992, Note_on_c, 1, 57, 70
3, 77180, Note_off_c, 1, 57, 100
3, 77184, Note_on_c, 1, 59, 70
3, 77372, Note_off_c, 1, 59, 100
3, 77376, Note_on_c, 1, 60, 70
3, 77564, Note_off_c, 1, 60, 100
3, 77568, Note_on_c, 1, 62, 70
3, 77756, Note_off_c, 1, 62, 100
3, 77760, Note_on_c, 1, 64, 70
3, 77948, Note_off_c, 1, 64, 100
3, 77952, Note_on_c, 1, 65, 70
3, 78140, Note_off_c, 1, 65, 100
3, 78144, Note_on_c, 1, 67, 70
3, 78332, Note_off_c, 1, 67, 100
3, 78336, Note_on_c, 1, 69, 70
3, 78524, Note_off_c, 1, 69, 100
3, 78528, Note_on_c, 1, 71, 70
3, 78716, Note_off_c, 1, 71, 100
3, 78720, Note_on_c, 1, 48, 80
3, 78720, Note_on_c, 1, 60, 80
3, 79100, Note_off_c, 1, 48, 100
3, 79100, Note_off_c, 1, 60, 100
3, 80832, Note_on_c, 1, 79, 80
3, 81020, Note_off_c, 1, 79, 100
3, 81024, Note_on_c, 1, 81, 80
3, 81404, Note_off_c, 1, 81, 100
3, 81408, Note_on_c, 1, 79, 80
3, 81596, Note_off_c, 1, 79, 100
3, 81600, Note_on_c, 1, 81, 80
3, 81980, Note_off_c, 1, 81, 100
3, 81984, Note_on_c, 1, 79, 80
3, 82172, Note_off_c, 1, 79, 100
3, 82176, Note_on_c, 1, 78, 80
3, 82556, Note_off_c, 1, 78, 100
3, 83328, Note_on_c, 1, 43, 80
3, 83328, Note_on_c, 1, 31, 80
3, 83708, Note_off_c, 1, 43, 100
3, 83708, Note_off_c, 1, 31, 100
3, 85440, Note_on_c, 1, 67, 80
3, 85628, Note_off_c, 1, 67, 100
3, 85632, Note_on_c, 1, 72, 80
3, 85632, Note_on_c, 1, 60, 80
3, 86012, Note_off_c, 1, 72, 100
3, 86012, Note_off_c, 1, 60, 100
3, 86016, Note_on_c, 1, 71, 80
3, 86016, Note_on_c, 1, 67, 80
3, 86204, Note_off_c, 1, 71, 100
3, 86204, Note_off_c, 1, 67, 100
3, 86208, Note_on_c, 1, 72, 80
3, 86208, Note_on_c, 1, 60, 80
3, 86588, Note_off_c, 1, 72, 100
3, 86588, Note_off_c, 1, 60, 100
3, 86592, Note_on_c, 1, 71, 80
3, 86592, Note_on_c, 1, 67, 80
3, 86780, Note_off_c, 1, 71, 100
3, 86780, Note_off_c, 1, 67, 100
3, 86784, Note_on_c, 1, 60, 80
3, 86784, Note_on_c, 1, 72, 80
3, 87164, Note_off_c, 1, 60, 100
3, 87164, Note_off_c, 1, 72, 100
3, 87744, Note_on_c, 1, 43, 100
3, 87932, Note_off_c, 1, 43, 100
3, 87936, Note_on_c, 1, 36, 110
3, 87936, Note_on_c, 1, 48, 110
3, 88124, Note_off_c, 1, 36, 100
3, 88124, Note_off_c, 1, 48, 100
3, 88128, Note_on_c, 1, 35, 110
3, 88128, Note_on_c, 1, 47, 110
3, 88316, Note_off_c, 1, 35, 100
3, 88316, Note_off_c, 1, 47, 100
3, 88320, Note_on_c, 1, 36, 110
3, 88320, Note_on_c, 1, 48, 110
3, 88508, Note_off_c, 1, 36, 100
3, 88508, Note_off_c, 1, 48, 100
3, 88512, Note_on_c, 1, 38, 110
3, 88512, Note_on_c, 1, 50, 110
3, 88700, Note_off_c, 1, 38, 100
3, 88700, Note_off_c, 1, 50, 100
3, 88704, Note_on_c, 1, 40, 110
3, 88704, Note_on_c, 1, 52, 110
3, 88892, Note_off_c, 1, 40, 100
3, 88892, Note_off_c, 1, 52, 100
3, 88896, Note_on_c, 1, 41, 110
3, 88896, Note_on_c, 1, 53, 110
3, 89084, Note_off_c, 1, 41, 100
3, 89084, Note_off_c, 1, 53, 100
3, 89088, Note_on_c, 1, 43, 110
3, 89088, Note_on_c, 1, 55, 110
3, 89276, Note_off_c, 1, 43, 100
3, 89276, Note_off_c, 1, 55, 100
3, 89280, Note_on_c, 1, 45, 110
3, 89280, Note_on_c, 1, 57, 110
3, 89468, Note_off_c, 1, 45, 100
3, 89468, Note_off_c, 1, 57, 100
3, 89472, Note_on_c, 1, 47, 110
3, 89472, Note_on_c, 1, 59, 110
3, 89660, Note_off_c, 1, 47, 100
3, 89660, Note_off_c, 1, 59, 100
3, 89664, Note_on_c, 1, 48, 110
3, 89664, Note_on_c, 1, 60, 110
3, 89852, Note_off_c, 1, 48, 100
3, 89852, Note_off_c, 1, 60, 100
3, 89856, Note_on_c, 1, 50, 110
3, 89856, Note_on_c, 1, 62, 110
3, 90044, Note_off_c, 1, 50, 100
3, 90044, Note_off_c, 1, 62, 100
3, 90048, Note_on_c, 1, 52, 110
3, 90048, Note_on_c, 1, 64, 110
3, 90236, Note_off_c, 1, 52, 100
3, 90236, Note_off_c, 1, 64, 100
3, 90240, Note_on_c, 1, 53, 100
3, 90240, Note_on_c, 1, 65, 100
3, 90620, Note_off_c, 1, 53, 100
3, 90620, Note_off_c, 1, 65, 100
3, 90624, Note_on_c, 1, 52, 110
3, 90624, Note_on_c, 1, 64, 110
3, 90812, Note_off_c, 1, 52, 100
3, 90812, Note_off_c, 1, 64, 100
3, 90816, Note_on_c, 1, 53, 100
3, 90816, Note_on_c, 1, 65, 100
3, 91196, Note_off_c, 1, 53, 100
3, 91196, Note_off_c, 1, 65, 100
3, 91200, Note_on_c, 1, 52, 110
3, 91200, Note_on_c, 1, 64, 110
3, 91388, Note_off_c, 1, 52, 100
3, 91388, Note_off_c, 1, 64, 100
3, 91392, Note_on_c, 1, 50, 110
3, 91392, Note_on_c, 1, 62, 110
3, 91772, Note_off_c, 1, 50, 100
3, 91772, Note_off_c, 1, 62, 100
3, 92352, Note_on_c, 1, 45, 100
3, 92540, Note_off_c, 1, 45, 100
3, 92544, Note_on_c, 1, 38, 120
3, 92544, Note_on_c, 1, 50, 120
3, 92732, Note_off_c, 1, 38, 100
3, 92732, Note_off_c, 1, 50, 100
3, 92736, Note_on_c, 1, 36, 120
3, 92736, Note_on_c, 1, 48, 120
3, 92924, Note_off_c, 1, 36, 100
3, 92924, Note_off_c, 1, 48, 100
3, 92928, Note_on_c, 1, 38, 120
3, 92928, Note_on_c, 1, 50, 120
3, 93116, Note_off_c, 1, 38, 100
3, 93116, Note_off_c, 1, 50, 100
3, 93120, Note_on_c, 1, 40, 120
3, 93120, Note_on_c, 1, 52, 120
3, 93308, Note_off_c, 1, 40, 100
3, 93308, Note_off_c, 1, 52, 100
3, 93312, Note_on_c, 1, 41, 120
3, 93312, Note_on_c, 1, 53, 120
3, 93500, Note_off_c, 1, 41, 100
3, 93500, Note_off_c, 1, 53, 100
3, 93504, Note_on_c, 1, 43, 120
3, 93504, Note_on_c, 1, 55, 120
3, 93692, Note_off_c, 1, 43, 100
3, 93692, Note_off_c, 1, 55, 100
3, 93696, Note_on_c, 1, 45, 120
3, 93696, Note_on_c, 1, 57, 120
3, 93884, Note_off_c, 1, 45, 100
3, 93884, Note_off_c, 1, 57, 100
3, 93888, Note_on_c, 1, 47, 120
3, 93888, Note_on_c, 1, 59, 120
3, 94076, Note_off_c, 1, 47, 100
3, 94076, Note_off_c, 1, 59, 100
3, 94080, Note_on_c, 1, 48, 120
3, 94080, Note_on_c, 1, 60, 120
3, 94268, Note_off_c, 1, 48, 100
3, 94268, Note_off_c, 1, 60, 100
3, 94272, Note_on_c, 1, 50, 120
3, 94272, Note_on_c, 1, 62, 120
3, 94460, Note_off_c, 1, 50, 100
3, 94460, Note_off_c, 1, 62, 100
3, 94464, Note_on_c, 1, 52, 120
3, 94464, Note_on_c, 1, 64, 120
3, 94652, Note_off_c, 1, 52, 100
3, 94652, Note_off_c, 1, 64, 100
3, 94656, Note_on_c, 1, 53, 120
3, 94656, Note_on_c, 1, 65, 120
3, 94844, Note_off_c, 1, 53, 100
3, 94844, Note_off_c, 1, 65, 100
3, 94848, Note_on_c, 1, 55, 90
3, 94848, Note_on_c, 1, 67, 90
3, 95228, Note_off_c, 1, 55, 100
3, 95228, Note_off_c, 1, 67, 100
3, 95232, Note_on_c, 1, 53, 87
3, 95232, Note_on_c, 1, 65, 87
3, 95420, Note_off_c, 1, 53, 100
3, 95420, Note_off_c, 1, 65, 100
3, 95424, Note_on_c, 1, 55, 86
3, 95424, Note_on_c, 1, 67, 86
3, 95804, Note_off_c, 1, 55, 100
3, 95804, Note_off_c, 1, 67, 100
3, 95808, Note_on_c, 1, 54, 82
3, 95808, Note_on_c, 1, 66, 82
3, 95996, Note_off_c, 1, 54, 100
3, 95996, Note_off_c, 1, 66, 100
3, 96000, Note_on_c, 1, 52, 81
3, 96000, Note_on_c, 1, 64, 81
3, 96380, Note_off_c, 1, 52, 100
3, 96380, Note_off_c, 1, 64, 100
3, 96960, Note_on_c, 1, 47, 100
3, 97148, Note_off_c, 1, 47, 100
3, 97152, Note_on_c, 1, 40, 100
3, 97152, Note_on_c, 1, 52, 100
3, 97340, Note_off_c, 1, 40, 100
3, 97340, Note_off_c, 1, 52, 100
3, 97344, Note_on_c, 1, 39, 100
3, 97344, Note_on_c, 1, 51, 100
3, 97532, Note_off_c, 1, 39, 100
3, 97532, Note_off_c, 1, 51, 100
3, 97536, Note_on_c, 1, 40, 100
3, 97536, Note_on_c, 1, 52, 100
3, 97724, Note_off_c, 1, 40, 100
3, 97724, Note_off_c, 1, 52, 100
3, 97728, Note_on_c, 1, 42, 100
3, 97728, Note_on_c, 1, 54, 100
3, 97916, Note_off_c, 1, 42, 100
3, 97916, Note_off_c, 1, 54, 100
3, 97920, Note_on_c, 1, 43, 100
3, 97920, Note_on_c, 1, 55, 100
3, 98108, Note_off_c, 1, 43, 100
3, 98108, Note_off_c, 1, 55, 100
3, 98112, Note_on_c, 1, 45, 100
3, 98112, Note_on_c, 1, 57, 100
3, 98300, Note_off_c, 1, 45, 100
3, 98300, Note_off_c, 1, 57, 100
3, 98304, Note_on_c, 1, 47, 100
3, 98304, Note_on_c, 1, 59, 100
3, 98492, Note_off_c, 1, 47, 100
3, 98492, Note_off_c, 1, 59, 100
3, 98496, Note_on_c, 1, 49, 100
3, 98496, Note_on_c, 1, 61, 100
3, 98684, Note_off_c, 1, 49, 100
3, 98684, Note_off_c, 1, 61, 100
3, 98688, Note_on_c, 1, 51, 100
3, 98688, Note_on_c, 1, 63, 100
3, 98876, Note_off_c, 1, 51, 100
3, 98876, Note_off_c, 1, 63, 100
3, 98880, Note_on_c, 1, 52, 100
3, 98880, Note_on_c, 1, 64, 100
3, 99068, Note_off_c, 1, 52, 100
3, 99068, Note_off_c, 1, 64, 100
3, 99072, Note_on_c, 1, 54, 100
3, 99072, Note_on_c, 1, 66, 100
3, 99260, Note_off_c, 1, 54, 100
3, 99260, Note_off_c, 1, 66, 100
3, 99264, Note_on_c, 1, 55, 100
3, 99264, Note_on_c, 1, 67, 100
3, 99452, Note_off_c, 1, 55, 100
3, 99452, Note_off_c, 1, 67, 100
3, 99456, Note_on_c, 1, 57, 100
3, 99644, Note_off_c, 1, 57, 100
3, 99648, Note_on_c, 1, 69, 100
3, 99648, Note_on_c, 1, 72, 100
3, 99836, Note_off_c, 1, 69, 100
3, 99836, Note_off_c, 1, 72, 100
3, 99840, Note_on_c, 1, 67, 100
3, 99840, Note_on_c, 1, 71, 100
3, 100028, Note_off_c, 1, 67, 100
3, 100028, Note_off_c, 1, 71, 100
3, 100032, Note_on_c, 1, 54, 100
3, 100220, Note_off_c, 1, 54, 100
3, 100224, Note_on_c, 1, 66, 100
3, 100224, Note_on_c, 1, 69, 100
3, 100412, Note_off_c, 1, 66, 100
3, 100412, Note_off_c, 1, 69, 100
3, 100416, Note_on_c, 1, 64, 100
3, 100416, Note_on_c, 1, 67, 100
3, 100604, Note_off_c, 1, 64, 100
3, 100604, Note_off_c, 1, 67, 100
3, 100608, Note_on_c, 1, 51, 100
3, 100796, Note_off_c, 1, 51, 100
3, 100800, Note_on_c, 1, 63, 100
3, 100800, Note_on_c, 1, 66, 100
3, 100988, Note_off_c, 1, 63, 100
3, 100988, Note_off_c, 1, 66, 100
3, 100992, Note_on_c, 1, 64, 100
3, 100992, Note_on_c, 1, 67, 100
3, 101180, Note_off_c, 1, 64, 100
3, 101180, Note_off_c, 1, 67, 100
3, 101184, Note_on_c, 1, 69, 100
3, 101184, Note_on_c, 1, 66, 100
3, 101372, Note_off_c, 1, 69, 100
3, 101372, Note_off_c, 1, 66, 100
3, 101376, Note_on_c, 1, 71, 100
3, 101376, Note_on_c, 1, 67, 100
3, 101564, Note_off_c, 1, 71, 100
3, 101564, Note_off_c, 1, 67, 100
3, 101568, Note_on_c, 1, 72, 100
3, 101568, Note_on_c, 1, 69, 100
3, 101756, Note_off_c, 1, 72, 100
3, 101756, Note_off_c, 1, 69, 100
3, 101760, Note_on_c, 1, 62, 100
3, 101948, Note_off_c, 1, 62, 100
3, 101952, Note_on_c, 1, 77, 100
3, 101952, Note_on_c, 1, 74, 100
3, 102140, Note_off_c, 1, 77, 100
3, 102140, Note_off_c, 1, 74, 100
3, 102144, Note_on_c, 1, 76, 100
3, 102144, Note_on_c, 1, 72, 100
3, 102332, Note_off_c, 1, 76, 100
3, 102332, Note_off_c, 1, 72, 100
3, 102336, Note_on_c, 1, 59, 100
3, 102524, Note_off_c, 1, 59, 100
3, 102528, Note_on_c, 1, 74, 100
3, 102528, Note_on_c, 1, 71, 100
3, 102716, Note_off_c, 1, 74, 100
3, 102716, Note_off_c, 1, 71, 100
3, 102720, Note_on_c, 1, 72, 100
3, 102720, Note_on_c, 1, 69, 100
3, 102908, Note_off_c, 1, 72, 100
3, 102908, Note_off_c, 1, 69, 100
3, 102912, Note_on_c, 1, 56, 100
3, 103100, Note_off_c, 1, 56, 100
3, 103104, Note_on_c, 1, 71, 100
3, 103104, Note_on_c, 1, 68, 100
3, 103292, Note_off_c, 1, 71, 100
3, 103292, Note_off_c, 1, 68, 100
3, 103296, Note_on_c, 1, 72, 100
3, 103296, Note_on_c, 1, 69, 100
3, 103484, Note_off_c, 1, 72, 100
3, 103484, Note_off_c, 1, 69, 100
3, 103488, Note_on_c, 1, 74, 100
3, 103488, Note_on_c, 1, 71, 100
3, 103676, Note_off_c, 1, 74, 100
3, 103676, Note_off_c, 1, 71, 100
3, 103680, Note_on_c, 1, 76, 100
3, 103680, Note_on_c, 1, 72, 100
3, 103868, Note_off_c, 1, 76, 100
3, 103868, Note_off_c, 1, 72, 100
3, 103872, Note_on_c, 1, 77, 100
3, 103872, Note_on_c, 1, 74, 100
3, 104060, Note_off_c, 1, 77, 100
3, 104060, Note_off_c, 1, 74, 100
3, 104064, Note_on_c, 1, 55, 100
3, 104252, Note_off_c, 1, 55, 100
3, 104256, Note_on_c, 1, 70, 100
3, 104256, Note_on_c, 1, 67, 100
3, 104444, Note_off_c, 1, 70, 100
3, 104444, Note_off_c, 1, 67, 100
3, 104448, Note_on_c, 1, 65, 100
3, 104448, Note_on_c, 1, 69, 100
3, 104636, Note_off_c, 1, 65, 100
3, 104636, Note_off_c, 1, 69, 100
3, 104640, Note_on_c, 1, 52, 100
3, 104828, Note_off_c, 1, 52, 100
3, 104832, Note_on_c, 1, 67, 100
3, 104832, Note_on_c, 1, 64, 100
3, 105020, Note_off_c, 1, 67, 100
3, 105020, Note_off_c, 1, 64, 100
3, 105024, Note_on_c, 1, 65, 100
3, 105024, Note_on_c, 1, 62, 100
3, 105212, Note_off_c, 1, 65, 100
3, 105212, Note_off_c, 1, 62, 100
3, 105216, Note_on_c, 1, 49, 100
3, 105404, Note_off_c, 1, 49, 100
3, 105408, Note_on_c, 1, 64, 100
3, 105408, Note_on_c, 1, 61, 100
3, 105596, Note_off_c, 1, 64, 100
3, 105596, Note_off_c, 1, 61, 100
3, 105600, Note_on_c, 1, 65, 100
3, 105600, Note_on_c, 1, 62, 100
3, 105788, Note_off_c, 1, 65, 100
3, 105788, Note_off_c, 1, 62, 100
3, 105792, Note_on_c, 1, 67, 100
3, 105792, Note_on_c, 1, 64, 100
3, 105980, Note_off_c, 1, 67, 100
3, 105980, Note_off_c, 1, 64, 100
3, 105984, Note_on_c, 1, 69, 100
3, 105984, Note_on_c, 1, 65, 100
3, 106172, Note_off_c, 1, 69, 100
3, 106172, Note_off_c, 1, 65, 100
3, 106176, Note_on_c, 1, 70, 100
3, 106176, Note_on_c, 1, 67, 100
3, 106364, Note_off_c, 1, 70, 100
3, 106364, Note_off_c, 1, 67, 100
3, 106368, Note_on_c, 1, 50, 100
3, 106556, Note_off_c, 1, 50, 100
3, 106560, Note_on_c, 1, 62, 100
3, 106748, Note_off_c, 1, 62, 100
3, 106752, Note_on_c, 1, 64, 100
3, 106752, Note_on_c, 1, 61, 100
3, 106940, Note_off_c, 1, 64, 100
3, 106940, Note_off_c, 1, 61, 100
3, 106944, Note_on_c, 1, 65, 100
3, 106944, Note_on_c, 1, 62, 100
3, 107132, Note_off_c, 1, 65, 100
3, 107132, Note_off_c, 1, 62, 100
3, 107136, Note_on_c, 1, 67, 100
3, 107136, Note_on_c, 1, 64, 100
3, 107324, Note_off_c, 1, 67, 100
3, 107324, Note_off_c, 1, 64, 100
3, 107328, Note_on_c, 1, 69, 100
3, 107328, Note_on_c, 1, 65, 100
3, 107516, Note_off_c, 1, 69, 100
3, 107516, Note_off_c, 1, 65, 100
3, 107520, Note_on_c, 1, 44, 100
3, 107708, Note_off_c, 1, 44, 100
3, 107712, Note_on_c, 1, 59, 100
3, 107712, Note_on_c, 1, 56, 100
3, 107900, Note_off_c, 1, 59, 100
3, 107900, Note_off_c, 1, 56, 100
3, 107904, Note_on_c, 1, 60, 100
3, 107904, Note_on_c, 1, 57, 100
3, 108092, Note_off_c, 1, 60, 100
3, 108092, Note_off_c, 1, 57, 100
3, 108096, Note_on_c, 1, 62, 100
3, 108096, Note_on_c, 1, 59, 100
3, 108284, Note_off_c, 1, 62, 100
3, 108284, Note_off_c, 1, 59, 100
3, 108288, Note_on_c, 1, 64, 100
3, 108288, Note_on_c, 1, 60, 100
3, 108476, Note_off_c, 1, 64, 100
3, 108476, Note_off_c, 1, 60, 100
3, 108480, Note_on_c, 1, 65, 100
3, 108480, Note_on_c, 1, 62, 100
3, 108668, Note_off_c, 1, 65, 100
3, 108668, Note_off_c, 1, 62, 100
3, 108672, Note_on_c, 1, 45, 100
3, 108860, Note_off_c, 1, 45, 100
3, 108864, Note_on_c, 1, 57, 100
3, 109052, Note_off_c, 1, 57, 100
3, 109056, Note_on_c, 1, 59, 100
3, 109056, Note_on_c, 1, 56, 100
3, 109244, Note_off_c, 1, 59, 100
3, 109244, Note_off_c, 1, 56, 100
3, 109248, Note_on_c, 1, 60, 100
3, 109248, Note_on_c, 1, 57, 100
3, 109436, Note_off_c, 1, 60, 100
3, 109436, Note_off_c, 1, 57, 100
3, 109440, Note_on_c, 1, 62, 100
3, 109440, Note_on_c, 1, 59, 100
3, 109628, Note_off_c, 1, 62, 100
3, 109628, Note_off_c, 1, 59, 100
3, 109632, Note_on_c, 1, 64, 100
3, 109632, Note_on_c, 1, 60, 100
3, 109820, Note_off_c, 1, 64, 100
3, 109820, Note_off_c, 1, 60, 100
3, 109824, Note_on_c, 1, 50, 100
3, 110204, Note_off_c, 1, 50, 100
3, 110208, Note_on_c, 1, 62, 100
3, 110396, Note_off_c, 1, 62, 100
3, 110400, Note_on_c, 1, 52, 100
3, 110780, Note_off_c, 1, 52, 100
3, 110784, Note_on_c, 1, 64, 100
3, 110972, Note_off_c, 1, 64, 100
3, 110976, Note_on_c, 1, 45, 100
3, 111356, Note_off_c, 1, 45, 100
3, 111360, Note_on_c, 1, 57, 100
3, 111548, Note_off_c, 1, 57, 100
3, 111552, Note_on_c, 1, 41, 100
3, 111932, Note_off_c, 1, 41, 100
3, 111936, Note_on_c, 1, 53, 100
3, 112124, Note_off_c, 1, 53, 100
3, 112128, Note_on_c, 1, 38, 100
3, 112508, Note_off_c, 1, 38, 100
3, 112512, Note_on_c, 1, 50, 100
3, 112700, Note_off_c, 1, 50, 100
3, 112704, Note_on_c, 1, 35, 100
3, 113084, Note_off_c, 1, 35, 100
3, 113088, Note_on_c, 1, 47, 100
3, 113276, Note_off_c, 1, 47, 100
3, 113280, Note_on_c, 1, 32, 100
3, 113660, Note_off_c, 1, 32, 100
3, 113664, Note_on_c, 1, 44, 100
3, 113852, Note_off_c, 1, 44, 100
3, 113856, Note_on_c, 1, 33, 100
3, 114236, Note_off_c, 1, 33, 100
3, 114240, Note_on_c, 1, 45, 100
3, 114428, Note_off_c, 1, 45, 100
3, 114432, Note_on_c, 1, 39, 100
3, 115004, Note_off_c, 1, 39, 100
3, 115008, Note_on_c, 1, 40, 100
3, 115580, Note_off_c, 1, 40, 100
3, 115584, Note_on_c, 1, 33, 80
3, 116156, Note_off_c, 1, 33, 100
3, 116160, Note_on_c, 1, 34, 78
3, 116732, Note_off_c, 1, 34, 100
3, 116736, Note_on_c, 1, 35, 75
3, 117308, Note_off_c, 1, 35, 100
3, 117312, Note_on_c, 1, 36, 72
3, 117884, Note_off_c, 1, 36, 100
3, 117888, Note_on_c, 1, 41, 80
3, 117888, Note_on_c, 1, 29, 80
3, 120188, Note_off_c, 1, 29, 100
3, 120188, Note_off_c, 1, 41, 100
3, 120192, Note_on_c, 1, 36, 80
3, 120192, Note_on_c, 1, 48, 80
3, 121916, Note_off_c, 1, 36, 100
3, 121916, Note_off_c, 1, 48, 100
3, 121920, Note_on_c, 1, 36, 80
3, 122300, Note_off_c, 1, 36, 100
3, 122304, Note_on_c, 1, 38, 80
3, 122396, Note_off_c, 1, 38, 100
3, 122400, Note_on_c, 1, 40, 80
3, 122492, Note_off_c, 1, 40, 100
3, 122496, Note_on_c, 1, 41, 80
3, 122496, Note_on_c, 1, 29, 80
3, 123068, Note_off_c, 1, 41, 100
3, 123068, Note_off_c, 1, 29, 100
3, 123072, Note_on_c, 1, 43, 80
3, 123072, Note_on_c, 1, 31, 80
3, 123644, Note_off_c, 1, 43, 100
3, 123644, Note_off_c, 1, 31, 100
3, 123648, Note_on_c, 1, 45, 80
3, 123648, Note_on_c, 1, 33, 80
3, 124220, Note_off_c, 1, 45, 100
3, 124220, Note_off_c, 1, 33, 100
3, 124224, Note_on_c, 1, 47, 80
3, 124224, Note_on_c, 1, 35, 80
3, 124796, Note_off_c, 1, 47, 100
3, 124796, Note_off_c, 1, 35, 100
3, 124800, Note_on_c, 1, 48, 80
3, 124800, Note_on_c, 1, 36, 80
3, 125372, Note_off_c, 1, 48, 100
3, 125372, Note_off_c, 1, 36, 100
3, 125376, Note_on_c, 1, 43, 80
3, 125948, Note_off_c, 1, 43, 100
3, 125952, Note_on_c, 1, 36, 80
3, 126140, Note_off_c, 1, 36, 100
3, 126144, Note_on_c, 1, 40, 80
3, 126332, Note_off_c, 1, 40, 100
3, 126336, Note_on_c, 1, 43, 80
3, 126524, Note_off_c, 1, 43, 100
3, 126528, Note_on_c, 1, 48, 80
3, 126716, Note_off_c, 1, 48, 100
3, 126720, Note_on_c, 1, 50, 80
3, 126908, Note_off_c, 1, 50, 100
3, 126912, Note_on_c, 1, 52, 80
3, 127100, Note_off_c, 1, 52, 100
3, 127104, Note_on_c, 1, 53, 80
3, 127104, Note_on_c, 1, 41, 80
3, 127676, Note_off_c, 1, 53, 100
3, 127676, Note_off_c, 1, 41, 100
3, 127680, Note_on_c, 1, 45, 80
3, 127680, Note_on_c, 1, 57, 80
3, 128252, Note_off_c, 1, 45, 100
3, 128252, Note_off_c, 1, 57, 100
3, 128256, Note_on_c, 1, 48, 80
3, 128256, Note_on_c, 1, 60, 80
3, 128828, Note_off_c, 1, 48, 100
3, 128828, Note_off_c, 1, 60, 100
3, 128832, Note_on_c, 1, 53, 80
3, 128832, Note_on_c, 1, 65, 80
3, 129404, Note_off_c, 1, 53, 100
3, 129404, Note_off_c, 1, 65, 100
3, 129408, Note_on_c, 1, 52, 80
3, 129408, Note_on_c, 1, 64, 80
3, 129980, Note_off_c, 1, 52, 100
3, 129980, Note_off_c, 1, 64, 100
3, 129984, Note_on_c, 1, 50, 80
3, 129984, Note_on_c, 1, 62, 80
3, 130556, Note_off_c, 1, 50, 100
3, 130556, Note_off_c, 1, 62, 100
3, 130560, Note_on_c, 1, 48, 80
3, 130560, Note_on_c, 1, 60, 80
3, 131132, Note_off_c, 1, 48, 100
3, 131132, Note_off_c, 1, 60, 100
3, 131136, Note_on_c, 1, 58, 80
3, 131136, Note_on_c, 1, 46, 80
3, 131708, Note_off_c, 1, 58, 100
3, 131708, Note_off_c, 1, 46, 100
3, 131712, Note_on_c, 1, 57, 80
3, 131712, Note_on_c, 1, 45, 80
3, 132284, Note_off_c, 1, 57, 100
3, 132284, Note_off_c, 1, 45, 100
3, 132288, Note_on_c, 1, 55, 80
3, 132288, Note_on_c, 1, 43, 80
3, 132860, Note_off_c, 1, 55, 100
3, 132860, Note_off_c, 1, 43, 100
3, 132864, Note_on_c, 1, 53, 80
3, 132864, Note_on_c, 1, 41, 80
3, 133436, Note_off_c, 1, 53, 100
3, 133436, Note_off_c, 1, 41, 100
3, 133440, Note_on_c, 1, 58, 80
3, 133440, Note_on_c, 1, 46, 80
3, 134012, Note_off_c, 1, 58, 100
3, 134012, Note_off_c, 1, 46, 100
3, 134016, Note_on_c, 1, 60, 80
3, 134016, Note_on_c, 1, 48, 80
3, 134588, Note_off_c, 1, 60, 100
3, 134588, Note_off_c, 1, 48, 100
3, 134592, Note_on_c, 1, 48, 80
3, 134592, Note_on_c, 1, 36, 80
3, 135164, Note_off_c, 1, 48, 100
3, 135164, Note_off_c, 1, 36, 100
3, 135168, Note_on_c, 1, 41, 80
3, 135356, Note_off_c, 1, 41, 100
3, 135360, Note_on_c, 1, 45, 80
3, 135548, Note_off_c, 1, 45, 100
3, 135552, Note_on_c, 1, 48, 80
3, 135740, Note_off_c, 1, 48, 100
3, 135744, Note_on_c, 1, 53, 80
3, 135932, Note_off_c, 1, 53, 100
3, 135936, Note_on_c, 1, 55, 80
3, 136124, Note_off_c, 1, 55, 100
3, 136128, Note_on_c, 1, 57, 80
3, 136316, Note_off_c, 1, 57, 100
3, 136320, Note_on_c, 1, 48, 100
3, 136704, Note_on_c, 1, 55, 100
3, 136704, Note_on_c, 1, 58, 100
3, 137276, Note_off_c, 1, 55, 100
3, 137276, Note_off_c, 1, 58, 100
3, 137280, Note_on_c, 1, 53, 100
3, 137280, Note_on_c, 1, 57, 100
3, 137468, Note_off_c, 1, 53, 100
3, 137468, Note_off_c, 1, 57, 100
3, 137472, Note_on_c, 1, 55, 100
3, 137472, Note_on_c, 1, 52, 100
3, 138044, Note_off_c, 1, 55, 100
3, 138044, Note_off_c, 1, 52, 100
3, 138048, Note_on_c, 1, 57, 100
3, 138048, Note_on_c, 1, 53, 100
3, 138620, Note_off_c, 1, 48, 100
3, 138620, Note_off_c, 1, 57, 100
3, 138620, Note_off_c, 1, 53, 100
3, 138624, Note_on_c, 1, 58, 100
3, 138624, Note_on_c, 1, 55, 100
3, 138624, Note_on_c, 1, 48, 100
3, 139004, Note_off_c, 1, 58, 100
3, 139004, Note_off_c, 1, 55, 100
3, 139008, Note_on_c, 1, 58, 100
3, 139008, Note_on_c, 1, 62, 100
3, 139580, Note_off_c, 1, 58, 100
3, 139580, Note_off_c, 1, 62, 100
3, 139584, Note_on_c, 1, 57, 100
3, 139584, Note_on_c, 1, 60, 100
3, 139772, Note_off_c, 1, 57, 100
3, 139772, Note_off_c, 1, 60, 100
3, 139776, Note_on_c, 1, 58, 100
3, 139776, Note_on_c, 1, 55, 100
3, 140348, Note_off_c, 1, 58, 100
3, 140348, Note_off_c, 1, 55, 100
3, 140352, Note_on_c, 1, 57, 100
3, 140352, Note_on_c, 1, 53, 100
3, 140924, Note_off_c, 1, 48, 100
3, 140924, Note_off_c, 1, 57, 100
3, 140924, Note_off_c, 1, 53, 100
3, 140928, Note_on_c, 1, 48, 100
3, 141312, Note_on_c, 1, 55, 100
3, 141312, Note_on_c, 1, 58, 100
3, 141884, Note_off_c, 1, 55, 100
3, 141884, Note_off_c, 1, 58, 100
3, 141888, Note_on_c, 1, 53, 100
3, 141888, Note_on_c, 1, 57, 100
3, 142076, Note_off_c, 1, 53, 100
3, 142076, Note_off_c, 1, 57, 100
3, 142080, Note_on_c, 1, 55, 100
3, 142080, Note_on_c, 1, 52, 100
3, 142652, Note_off_c, 1, 55, 100
3, 142652, Note_off_c, 1, 52, 100
3, 142656, Note_on_c, 1, 57, 100
3, 142656, Note_on_c, 1, 53, 100
3, 143228, Note_off_c, 1, 48, 100
3, 143228, Note_off_c, 1, 57, 100
3, 143228, Note_off_c, 1, 53, 100
3, 143232, Note_on_c, 1, 58, 100
3, 143232, Note_on_c, 1, 55, 100
3, 143232, Note_on_c, 1, 48, 100
3, 143612, Note_off_c, 1, 58, 100
3, 143612, Note_off_c, 1, 55, 100
3, 143616, Note_on_c, 1, 58, 100
3, 143616, Note_on_c, 1, 62, 100
3, 144188, Note_off_c, 1, 58, 100
3, 144188, Note_off_c, 1, 62, 100
3, 144192, Note_on_c, 1, 57, 100
3, 144192, Note_on_c, 1, 60, 100
3, 144380, Note_off_c, 1, 57, 100
3, 144380, Note_off_c, 1, 60, 100
3, 144384, Note_on_c, 1, 58, 100
3, 144384, Note_on_c, 1, 55, 100
3, 144956, Note_off_c, 1, 58, 100
3, 144956, Note_off_c, 1, 55, 100
3, 144960, Note_on_c, 1, 52, 89
3, 144960, Note_on_c, 1, 55, 89
3, 145532, Note_off_c, 1, 48, 100
3, 145532, Note_off_c, 1, 52, 100
3, 145532, Note_off_c, 1, 55, 100
3, 145728, Note_on_c, 1, 53, 80
3, 145916, Note_off_c, 1, 53, 100
3, 145920, Note_on_c, 1, 57, 80
3, 146108, Note_off_c, 1, 57, 100
3, 146304, Note_on_c, 1, 48, 80
3, 146492, Note_off_c, 1, 48, 100
3, 146496, Note_on_c, 1, 53, 80
3, 146684, Note_off_c, 1, 53, 100
3, 146880, Note_on_c, 1, 45, 80
3, 147068, Note_off_c, 1, 45, 100
3, 147072, Note_on_c, 1, 48, 80
3, 147260, Note_off_c, 1, 48, 100
3, 147456, Note_on_c, 1, 41, 80
3, 147644, Note_off_c, 1, 41, 100
3, 147648, Note_on_c, 1, 45, 80
3, 147836, Note_off_c, 1, 45, 100
3, 148032, Note_on_c, 1, 47, 80
3, 148220, Note_off_c, 1, 47, 100
3, 148224, Note_on_c, 1, 48, 80
3, 148412, Note_off_c, 1, 48, 100
3, 148608, Note_on_c, 1, 58, 80
3, 148796, Note_off_c, 1, 58, 100
3, 148800, Note_on_c, 1, 59, 80
3, 148988, Note_off_c, 1, 59, 100
3, 149184, Note_on_c, 1, 59, 80
3, 149372, Note_off_c, 1, 59, 100
3, 149376, Note_on_c, 1, 60, 80
3, 149564, Note_off_c, 1, 60, 100
3, 149760, Note_on_c, 1, 51, 80
3, 149948, Note_off_c, 1, 51, 100
3, 149952, Note_on_c, 1, 52, 80
3, 150140, Note_off_c, 1, 52, 100
3, 150336, Note_on_c, 1, 52, 80
3, 150524, Note_off_c, 1, 52, 100
3, 150528, Note_on_c, 1, 53, 80
3, 150716, Note_off_c, 1, 53, 100
3, 150912, Note_on_c, 1, 42, 80
3, 151100, Note_off_c, 1, 42, 100
3, 151104, Note_on_c, 1, 43, 80
3, 151292, Note_off_c, 1, 43, 100
3, 151488, Note_on_c, 1, 44, 80
3, 151676, Note_off_c, 1, 44, 100
3, 151680, Note_on_c, 1, 45, 80
3, 151868, Note_off_c, 1, 45, 100
3, 152064, Note_on_c, 1, 45, 80
3, 152252, Note_off_c, 1, 45, 100
3, 152256, Note_on_c, 1, 46, 80
3, 152444, Note_off_c, 1, 46, 100
3, 152640, Note_on_c, 1, 47, 80
3, 152828, Note_off_c, 1, 47, 100
3, 152832, Note_on_c, 1, 48, 80
3, 153020, Note_off_c, 1, 48, 100
3, 153216, Note_on_c, 1, 35, 80
3, 153404, Note_off_c, 1, 35, 100
3, 153408, Note_on_c, 1, 36, 80
3, 153596, Note_off_c, 1, 36, 100
3, 153600, Note_on_c, 1, 41, 80
3, 153788, Note_off_c, 1, 41, 100
3, 153792, Note_on_c, 1, 45, 80
3, 153980, Note_off_c, 1, 45, 100
3, 153984, Note_on_c, 1, 48, 80
3, 154172, Note_off_c, 1, 48, 100
3, 154176, Note_on_c, 1, 53, 80
3, 154364, Note_off_c, 1, 53, 100
3, 154368, Note_on_c, 1, 55, 80
3, 154556, Note_off_c, 1, 55, 100
3, 154560, Note_on_c, 1, 57, 80
3, 154748, Note_off_c, 1, 57, 100
3, 154752, Note_on_c, 1, 48, 100
3, 155136, Note_on_c, 1, 55, 100
3, 155136, Note_on_c, 1, 58, 100
3, 155708, Note_off_c, 1, 55, 100
3, 155708, Note_off_c, 1, 58, 100
3, 155712, Note_on_c, 1, 53, 100
3, 155712, Note_on_c, 1, 57, 100
3, 155900, Note_off_c, 1, 53, 100
3, 155900, Note_off_c, 1, 57, 100
3, 155904, Note_on_c, 1, 55, 100
3, 155904, Note_on_c, 1, 52, 100
3, 156476, Note_off_c, 1, 55, 100
3, 156476, Note_off_c, 1, 52, 100
3, 156480, Note_on_c, 1, 57, 100
3, 156480, Note_on_c, 1, 53, 100
3, 157052, Note_off_c, 1, 48, 100
3, 157052, Note_off_c, 1, 57, 100
3, 157052, Note_off_c, 1, 53, 100
3, 157056, Note_on_c, 1, 58, 100
3, 157056, Note_on_c, 1, 55, 100
3, 157056, Note_on_c, 1, 48, 100
3, 157436, Note_off_c, 1, 58, 100
3, 157436, Note_off_c, 1, 55, 100
3, 157440, Note_on_c, 1, 58, 100
3, 157440, Note_on_c, 1, 62, 100
3, 158012, Note_off_c, 1, 58, 100
3, 158012, Note_off_c, 1, 62, 100
3, 158016, Note_on_c, 1, 57, 100
3, 158016, Note_on_c, 1, 60, 100
3, 158204, Note_off_c, 1, 57, 100
3, 158204, Note_off_c, 1, 60, 100
3, 158208, Note_on_c, 1, 58, 100
3, 158208, Note_on_c, 1, 55, 100
3, 158780, Note_off_c, 1, 58, 100
3, 158780, Note_off_c, 1, 55, 100
3, 158784, Note_on_c, 1, 57, 100
3, 158784, Note_on_c, 1, 53, 100
3, 159356, Note_off_c, 1, 48, 100
3, 159356, Note_off_c, 1, 57, 100
3, 159356, Note_off_c, 1, 53, 100
3, 159360, Note_on_c, 1, 48, 100
3, 159744, Note_on_c, 1, 55, 100
3, 159744, Note_on_c, 1, 58, 100
3, 160316, Note_off_c, 1, 55, 100
3, 160316, Note_off_c, 1, 58, 100
3, 160320, Note_on_c, 1, 53, 100
3, 160320, Note_on_c, 1, 57, 100
3, 160508, Note_off_c, 1, 53, 100
3, 160508, Note_off_c, 1, 57, 100
3, 160512, Note_on_c, 1, 55, 100
3, 160512, Note_on_c, 1, 52, 100
3, 161084, Note_off_c, 1, 55, 100
3, 161084, Note_off_c, 1, 52, 100
3, 161088, Note_on_c, 1, 57, 100
3, 161088, Note_on_c, 1, 53, 100
3, 161660, Note_off_c, 1, 48, 100
3, 161660, Note_off_c, 1, 57, 100
3, 161660, Note_off_c, 1, 53, 100
3, 161664, Note_on_c, 1, 58, 100
3, 161664, Note_on_c, 1, 55, 100
3, 161664, Note_on_c, 1, 48, 100
3, 162044, Note_off_c, 1, 58, 100
3, 162044, Note_off_c, 1, 55, 100
3, 162048, Note_on_c, 1, 58, 100
3, 162048, Note_on_c, 1, 62, 100
3, 162620, Note_off_c, 1, 58, 100
3, 162620, Note_off_c, 1, 62, 100
3, 162624, Note_on_c, 1, 57, 100
3, 162624, Note_on_c, 1, 60, 100
3, 162812, Note_off_c, 1, 57, 100
3, 162812, Note_off_c, 1, 60, 100
3, 162816, Note_on_c, 1, 58, 100
3, 162816, Note_on_c, 1, 55, 100
3, 163388, Note_off_c, 1, 58, 100
3, 163388, Note_off_c, 1, 55, 100
3, 163392, Note_on_c, 1, 52, 89
3, 163392, Note_on_c, 1, 55, 89
3, 163964, Note_off_c, 1, 48, 100
3, 163964, Note_off_c, 1, 52, 100
3, 163964, Note_off_c, 1, 55, 100
3, 164160, Note_on_c, 1, 53, 80
3, 164348, Note_off_c, 1, 53, 100
3, 164352, Note_on_c, 1, 57, 80
3, 164540, Note_off_c, 1, 57, 100
3, 164736, Note_on_c, 1, 48, 80
3, 164924, Note_off_c, 1, 48, 100
3, 164928, Note_on_c, 1, 53, 80
3, 165116, Note_off_c, 1, 53, 100
3, 165312, Note_on_c, 1, 45, 80
3, 165500, Note_off_c, 1, 45, 100
3, 165504, Note_on_c, 1, 48, 80
3, 165692, Note_off_c, 1, 48, 100
3, 165888, Note_on_c, 1, 41, 80
3, 166076, Note_off_c, 1, 41, 100
3, 166080, Note_on_c, 1, 45, 80
3, 166268, Note_off_c, 1, 45, 100
3, 166464, Note_on_c, 1, 47, 80
3, 166652, Note_off_c, 1, 47, 100
3, 166656, Note_on_c, 1, 48, 80
3, 166844, Note_off_c, 1, 48, 100
3, 167040, Note_on_c, 1, 58, 80
3, 167228, Note_off_c, 1, 58, 100
3, 167232, Note_on_c, 1, 59, 80
3, 167420, Note_off_c, 1, 59, 100
3, 167616, Note_on_c, 1, 59, 80
3, 167804, Note_off_c, 1, 59, 100
3, 167808, Note_on_c, 1, 60, 80
3, 167996, Note_off_c, 1, 60, 100
3, 168192, Note_on_c, 1, 51, 80
3, 168380, Note_off_c, 1, 51, 100
3, 168384, Note_on_c, 1, 52, 80
3, 168572, Note_off_c, 1, 52, 100
3, 168576, Note_on_c, 1, 53, 80
3, 168576, Note_on_c, 1, 41, 80
3, 169148, Note_off_c, 1, 53, 100
3, 169148, Note_off_c, 1, 41, 100
3, 169152, Note_on_c, 1, 56, 80
3, 169152, Note_on_c, 1, 44, 80
3, 169724, Note_off_c, 1, 56, 100
3, 169724, Note_off_c, 1, 44, 100
3, 169728, Note_on_c, 1, 48, 80
3, 169728, Note_on_c, 1, 60, 80
3, 170300, Note_off_c, 1, 48, 100
3, 170300, Note_off_c, 1, 60, 100
3, 170304, Note_on_c, 1, 53, 80
3, 170304, Note_on_c, 1, 65, 80
3, 170876, Note_off_c, 1, 53, 100
3, 170876, Note_off_c, 1, 65, 100
3, 170880, Note_on_c, 1, 51, 80
3, 170880, Note_on_c, 1, 63, 80
3, 171452, Note_off_c, 1, 51, 100
3, 171452, Note_off_c, 1, 63, 100
3, 171456, Note_on_c, 1, 61, 80
3, 171456, Note_on_c, 1, 49, 80
3, 172028, Note_off_c, 1, 61, 100
3, 172028, Note_off_c, 1, 49, 100
3, 172032, Note_on_c, 1, 48, 80
3, 172032, Note_on_c, 1, 60, 80
3, 172604, Note_off_c, 1, 48, 100
3, 172604, Note_off_c, 1, 60, 100
3, 172608, Note_on_c, 1, 46, 80
3, 172608, Note_on_c, 1, 58, 80
3, 173180, Note_off_c, 1, 46, 100
3, 173180, Note_off_c, 1, 58, 100
3, 173184, Note_on_c, 1, 56, 80
3, 173184, Note_on_c, 1, 44, 80
3, 173756, Note_off_c, 1, 56, 100
3, 173756, Note_off_c, 1, 44, 100
3, 173760, Note_on_c, 1, 60, 80
3, 173760, Note_on_c, 1, 48, 80
3, 174332, Note_off_c, 1, 60, 100
3, 174332, Note_off_c, 1, 48, 100
3, 174336, Note_on_c, 1, 63, 80
3, 174336, Note_on_c, 1, 51, 80
3, 174908, Note_off_c, 1, 63, 100
3, 174908, Note_off_c, 1, 51, 100
3, 174912, Note_on_c, 1, 68, 80
3, 174912, Note_on_c, 1, 56, 80
3, 175484, Note_off_c, 1, 68, 100
3, 175484, Note_off_c, 1, 56, 100
3, 175488, Note_on_c, 1, 55, 80
3, 175488, Note_on_c, 1, 67, 80
3, 176060, Note_off_c, 1, 55, 100
3, 176060, Note_off_c, 1, 67, 100
3, 176064, Note_on_c, 1, 53, 80
3, 176064, Note_on_c, 1, 65, 80
3, 176636, Note_off_c, 1, 53, 100
3, 176636, Note_off_c, 1, 65, 100
3, 176640, Note_on_c, 1, 51, 80
3, 176640, Note_on_c, 1, 63, 80
3, 177212, Note_off_c, 1, 51, 100
3, 177212, Note_off_c, 1, 63, 100
3, 177216, Note_on_c, 1, 50, 80
3, 177216, Note_on_c, 1, 62, 80
3, 177788, Note_off_c, 1, 50, 100
3, 177788, Note_off_c, 1, 62, 100
3, 177984, Note_on_c, 1, 59, 80
3, 178172, Note_off_c, 1, 59, 100
3, 178176, Note_on_c, 1, 60, 80
3, 178364, Note_off_c, 1, 60, 100
3, 178560, Note_on_c, 1, 59, 80
3, 178748, Note_off_c, 1, 59, 100
3, 178752, Note_on_c, 1, 60, 80
3, 178940, Note_off_c, 1, 60, 100
3, 179136, Note_on_c, 1, 59, 80
3, 179324, Note_off_c, 1, 59, 100
3, 179328, Note_on_c, 1, 60, 80
3, 179516, Note_off_c, 1, 60, 100
3, 179712, Note_on_c, 1, 54, 80
3, 179900, Note_off_c, 1, 54, 100
3, 179904, Note_on_c, 1, 63, 80
3, 180092, Note_off_c, 1, 63, 100
3, 180288, Note_on_c, 1, 63, 80
3, 180476, Note_off_c, 1, 63, 100
3, 180480, Note_on_c, 1, 62, 80
3, 180668, Note_off_c, 1, 62, 100
3, 180864, Note_on_c, 1, 50, 80
3, 181052, Note_off_c, 1, 50, 100
3, 181056, Note_on_c, 1, 60, 80
3, 181244, Note_off_c, 1, 60, 100
3, 181440, Note_on_c, 1, 60, 80
3, 181628, Note_off_c, 1, 60, 100
3, 181632, Note_on_c, 1, 59, 80
3, 181820, Note_off_c, 1, 59, 100
3, 182016, Note_on_c, 1, 52, 80
3, 182204, Note_off_c, 1, 52, 100
3, 182208, Note_on_c, 1, 61, 80
3, 182396, Note_off_c, 1, 61, 100
3, 182592, Note_on_c, 1, 61, 80
3, 182780, Note_off_c, 1, 61, 100
3, 182784, Note_on_c, 1, 60, 80
3, 182972, Note_off_c, 1, 60, 100
3, 183168, Note_on_c, 1, 48, 80
3, 183356, Note_off_c, 1, 48, 100
3, 183360, Note_on_c, 1, 58, 80
3, 183548, Note_off_c, 1, 58, 100
3, 183744, Note_on_c, 1, 58, 80
3, 183932, Note_off_c, 1, 58, 100
3, 183936, Note_on_c, 1, 56, 80
3, 184124, Note_off_c, 1, 56, 100
3, 184320, Note_on_c, 1, 47, 80
3, 184508, Note_off_c, 1, 47, 100
3, 184512, Note_on_c, 1, 55, 80
3, 184700, Note_off_c, 1, 55, 100
3, 184896, Note_on_c, 1, 48, 80
3, 185084, Note_off_c, 1, 48, 100
3, 185088, Note_on_c, 1, 55, 80
3, 185276, Note_off_c, 1, 55, 100
3, 185472, Note_on_c, 1, 50, 80
3, 185660, Note_off_c, 1, 50, 100
3, 185664, Note_on_c, 1, 55, 80
3, 185852, Note_off_c, 1, 55, 100
3, 186048, Note_on_c, 1, 51, 80
3, 186236, Note_off_c, 1, 51, 100
3, 186240, Note_on_c, 1, 48, 80
3, 186428, Note_off_c, 1, 48, 100
3, 186624, Note_on_c, 1, 41, 80
3, 186812, Note_off_c, 1, 41, 100
3, 186816, Note_on_c, 1, 42, 80
3, 187004, Note_off_c, 1, 42, 100
3, 187200, Note_on_c, 1, 42, 80
3, 187388, Note_off_c, 1, 42, 100
3, 187392, Note_on_c, 1, 43, 80
3, 187580, Note_off_c, 1, 43, 100
3, 187776, Note_on_c, 1, 31, 80
3, 187964, Note_off_c, 1, 31, 100
3, 187968, Note_on_c, 1, 43, 80
3, 188156, Note_off_c, 1, 43, 100
3, 188352, Note_on_c, 1, 31, 80
3, 188540, Note_off_c, 1, 31, 100
3, 188544, Note_on_c, 1, 43, 80
3, 188732, Note_off_c, 1, 43, 100
3, 188928, Note_on_c, 1, 31, 80
3, 189116, Note_off_c, 1, 31, 100
3, 189120, Note_on_c, 1, 43, 80
3, 189308, Note_off_c, 1, 43, 100
3, 189504, Note_on_c, 1, 31, 80
3, 189692, Note_off_c, 1, 31, 100
3, 189696, Note_on_c, 1, 43, 80
3, 189884, Note_off_c, 1, 43, 100
3, 190080, Note_on_c, 1, 31, 70
3, 190268, Note_off_c, 1, 31, 100
3, 190272, Note_on_c, 1, 43, 70
3, 190460, Note_off_c, 1, 43, 100
3, 190656, Note_on_c, 1, 31, 70
3, 190844, Note_off_c, 1, 31, 100
3, 190848, Note_on_c, 1, 43, 70
3, 191036, Note_off_c, 1, 43, 100
3, 191232, Note_on_c, 1, 31, 70
3, 191420, Note_off_c, 1, 31, 100
3, 191424, Note_on_c, 1, 43, 70
3, 191612, Note_off_c, 1, 43, 100
3, 191616, Note_on_c, 1, 31, 70
3, 191996, Note_off_c, 1, 31, 100
3, 192000, Note_on_c, 1, 43, 99
3, 193916, Note_off_c, 1, 43, 100
3, 193920, Note_on_c, 1, 31, 80
3, 194300, Note_off_c, 1, 31, 100
3, 194304, Note_on_c, 1, 43, 97
3, 196220, Note_off_c, 1, 43, 100
3, 196224, Note_on_c, 1, 31, 80
3, 196604, Note_off_c, 1, 31, 100
3, 196608, Note_on_c, 1, 43, 103
3, 196992, Note_on_c, 1, 47, 80
3, 197180, Note_off_c, 1, 47, 100
3, 197184, Note_on_c, 1, 48, 80
3, 197372, Note_off_c, 1, 48, 100
3, 197376, Note_on_c, 1, 50, 80
3, 197948, Note_off_c, 1, 50, 100
3, 197952, Note_on_c, 1, 52, 80
3, 198524, Note_off_c, 1, 52, 100
3, 198528, Note_on_c, 1, 53, 80
3, 198908, Note_off_c, 1, 43, 100
3, 198908, Note_off_c, 1, 53, 100
3, 198912, Note_on_c, 1, 43, 102
3, 199296, Note_on_c, 1, 47, 80
3, 199484, Note_off_c, 1, 47, 100
3, 199488, Note_on_c, 1, 48, 80
3, 199676, Note_off_c, 1, 48, 100
3, 199680, Note_on_c, 1, 50, 80
3, 200252, Note_off_c, 1, 50, 100
3, 200256, Note_on_c, 1, 52, 80
3, 200444, Note_off_c, 1, 43, 100
3, 200828, Note_off_c, 1, 52, 100
3, 200832, Note_on_c, 1, 53, 80
3, 200832, Note_on_c, 1, 43, 80
3, 201212, Note_off_c, 1, 53, 100
3, 201212, Note_off_c, 1, 43, 100
3, 205440, Note_on_c, 1, 43, 70
3, 205628, Note_off_c, 1, 43, 100
3, 205632, Note_on_c, 1, 42, 70
3, 205820, Note_off_c, 1, 42, 100
3, 205824, Note_on_c, 1, 43, 70
3, 206012, Note_off_c, 1, 43, 100
3, 206016, Note_on_c, 1, 45, 70
3, 206204, Note_off_c, 1, 45, 100
3, 206208, Note_on_c, 1, 47, 70
3, 206396, Note_off_c, 1, 47, 100
3, 206400, Note_on_c, 1, 48, 70
3, 206588, Note_off_c, 1, 48, 100
3, 206592, Note_on_c, 1, 50, 70
3, 206780, Note_off_c, 1, 50, 100
3, 206784, Note_on_c, 1, 52, 70
3, 206972, Note_off_c, 1, 52, 100
3, 206976, Note_on_c, 1, 53, 70
3, 207164, Note_off_c, 1, 53, 100
3, 207168, Note_on_c, 1, 55, 70
3, 207356, Note_off_c, 1, 55, 100
3, 207360, Note_on_c, 1, 57, 70
3, 207548, Note_off_c, 1, 57, 100
3, 207552, Note_on_c, 1, 59, 70
3, 207740, Note_off_c, 1, 59, 100
3, 207744, Note_on_c, 1, 60, 80
3, 208124, Note_off_c, 1, 60, 100
3, 209856, Note_on_c, 1, 79, 80
3, 210044, Note_off_c, 1, 79, 100
3, 210048, Note_on_c, 1, 81, 80
3, 210428, Note_off_c, 1, 81, 100
3, 210432, Note_on_c, 1, 79, 80
3, 210620, Note_off_c, 1, 79, 100
3, 210624, Note_on_c, 1, 81, 80
3, 211004, Note_off_c, 1, 81, 100
3, 211008, Note_on_c, 1, 79, 80
3, 211196, Note_off_c, 1, 79, 100
3, 211200, Note_on_c, 1, 78, 80
3, 211580, Note_off_c, 1, 78, 100
3, 212352, Note_on_c, 1, 43, 80
3, 212352, Note_on_c, 1, 31, 80
3, 212732, Note_off_c, 1, 43, 100
3, 212732, Note_off_c, 1, 31, 100
3, 214464, Note_on_c, 1, 67, 80
3, 214652, Note_off_c, 1, 67, 100
3, 214656, Note_on_c, 1, 72, 80
3, 214656, Note_on_c, 1, 60, 80
3, 215036, Note_off_c, 1, 72, 100
3, 215036, Note_off_c, 1, 60, 100
3, 215040, Note_on_c, 1, 71, 80
3, 215040, Note_on_c, 1, 67, 80
3, 215228, Note_off_c, 1, 71, 100
3, 215228, Note_off_c, 1, 67, 100
3, 215232, Note_on_c, 1, 72, 80
3, 215232, Note_on_c, 1, 60, 80
3, 215612, Note_off_c, 1, 72, 100
3, 215612, Note_off_c, 1, 60, 100
3, 215616, Note_on_c, 1, 71, 80
3, 215616, Note_on_c, 1, 67, 80
3, 215804, Note_off_c, 1, 71, 100
3, 215804, Note_off_c, 1, 67, 100
3, 215808, Note_on_c, 1, 60, 80
3, 215808, Note_on_c, 1, 72, 80
3, 216188, Note_off_c, 1, 60, 100
3, 216188, Note_off_c, 1, 72, 100
3, 216768, Note_on_c, 1, 43, 100
3, 216956, Note_off_c, 1, 43, 100
3, 216960, Note_on_c, 1, 36, 110
3, 216960, Note_on_c, 1, 48, 110
3, 217148, Note_off_c, 1, 36, 100
3, 217148, Note_off_c, 1, 48, 100
3, 217152, Note_on_c, 1, 35, 110
3, 217152, Note_on_c, 1, 47, 110
3, 217340, Note_off_c, 1, 35, 100
3, 217340, Note_off_c, 1, 47, 100
3, 217344, Note_on_c, 1, 36, 110
3, 217344, Note_on_c, 1, 48, 110
3, 217532, Note_off_c, 1, 36, 100
3, 217532, Note_off_c, 1, 48, 100
3, 217536, Note_on_c, 1, 38, 110
3, 217536, Note_on_c, 1, 50, 110
3, 217724, Note_off_c, 1, 38, 100
3, 217724, Note_off_c, 1, 50, 100
3, 217728, Note_on_c, 1, 40, 110
3, 217728, Note_on_c, 1, 52, 110
3, 217916, Note_off_c, 1, 40, 100
3, 217916, Note_off_c, 1, 52, 100
3, 217920, Note_on_c, 1, 41, 110
3, 217920, Note_on_c, 1, 53, 110
3, 218108, Note_off_c, 1, 41, 100
3, 218108, Note_off_c, 1, 53, 100
3, 218112, Note_on_c, 1, 43, 110
3, 218112, Note_on_c, 1, 55, 110
3, 218300, Note_off_c, 1, 43, 100
3, 218300, Note_off_c, 1, 55, 100
3, 218304, Note_on_c, 1, 45, 110
3, 218304, Note_on_c, 1, 57, 110
3, 218492, Note_off_c, 1, 45, 100
3, 218492, Note_off_c, 1, 57, 100
3, 218496, Note_on_c, 1, 47, 110
3, 218496, Note_on_c, 1, 59, 110
3, 218684, Note_off_c, 1, 47, 100
3, 218684, Note_off_c, 1, 59, 100
3, 218688, Note_on_c, 1, 48, 110
3, 218688, Note_on_c, 1, 60, 110
3, 218876, Note_off_c, 1, 48, 100
3, 218876, Note_off_c, 1, 60, 100
3, 218880, Note_on_c, 1, 50, 110
3, 218880, Note_on_c, 1, 62, 110
3, 219068, Note_off_c, 1, 50, 100
3, 219068, Note_off_c, 1, 62, 100
3, 219072, Note_on_c, 1, 52, 110
3, 219072, Note_on_c, 1, 64, 110
3, 219260, Note_off_c, 1, 52, 100
3, 219260, Note_off_c, 1, 64, 100
3, 219264, Note_on_c, 1, 53, 100
3, 219264, Note_on_c, 1, 65, 100
3, 219644, Note_off_c, 1, 53, 100
3, 219644, Note_off_c, 1, 65, 100
3, 219648, Note_on_c, 1, 52, 110
3, 219648, Note_on_c, 1, 64, 110
3, 219836, Note_off_c, 1, 52, 100
3, 219836, Note_off_c, 1, 64, 100
3, 219840, Note_on_c, 1, 53, 100
3, 219840, Note_on_c, 1, 65, 100
3, 220220, Note_off_c, 1, 53, 100
3, 220220, Note_off_c, 1, 65, 100
3, 220224, Note_on_c, 1, 52, 110
3, 220224, Note_on_c, 1, 64, 110
3, 220412, Note_off_c, 1, 52, 100
3, 220412, Note_off_c, 1, 64, 100
3, 220416, Note_on_c, 1, 65, 110
3, 220416, Note_on_c, 1, 53, 110
3, 220796, Note_off_c, 1, 65, 100
3, 220796, Note_off_c, 1, 53, 100
3, 221568, Note_on_c, 1, 43, 100
3, 221568, Note_on_c, 1, 31, 100
3, 221756, Note_off_c, 1, 43, 100
3, 221756, Note_off_c, 1, 31, 100
3, 221760, Note_on_c, 1, 42, 100
3, 221760, Note_on_c, 1, 30, 100
3, 221948, Note_off_c, 1, 42, 100
3, 221948, Note_off_c, 1, 30, 100
3, 221952, Note_on_c, 1, 43, 100
3, 221952, Note_on_c, 1, 31, 100
3, 222140, Note_off_c, 1, 43, 100
3, 222140, Note_off_c, 1, 31, 100
3, 222144, Note_on_c, 1, 45, 100
3, 222144, Note_on_c, 1, 33, 100
3, 222332, Note_off_c, 1, 45, 100
3, 222332, Note_off_c, 1, 33, 100
3, 222336, Note_on_c, 1, 47, 100
3, 222336, Note_on_c, 1, 35, 100
3, 222524, Note_off_c, 1, 47, 100
3, 222524, Note_off_c, 1, 35, 100
3, 222528, Note_on_c, 1, 48, 100
3, 222528, Note_on_c, 1, 36, 100
3, 222716, Note_off_c, 1, 48, 100
3, 222716, Note_off_c, 1, 36, 100
3, 222720, Note_on_c, 1, 50, 100
3, 222720, Note_on_c, 1, 38, 100
3, 222908, Note_off_c, 1, 50, 100
3, 222908, Note_off_c, 1, 38, 100
3, 222912, Note_on_c, 1, 52, 100
3, 222912, Note_on_c, 1, 40, 100
3, 223100, Note_off_c, 1, 52, 100
3, 223100, Note_off_c, 1, 40, 100
3, 223104, Note_on_c, 1, 53, 100
3, 223104, Note_on_c, 1, 41, 100
3, 223292, Note_off_c, 1, 53, 100
3, 223292, Note_off_c, 1, 41, 100
3, 223296, Note_on_c, 1, 55, 100
3, 223296, Note_on_c, 1, 43, 100
3, 223484, Note_off_c, 1, 55, 100
3, 223484, Note_off_c, 1, 43, 100
3, 223488, Note_on_c, 1, 57, 100
3, 223488, Note_on_c, 1, 45, 100
3, 223676, Note_off_c, 1, 57, 100
3, 223676, Note_off_c, 1, 45, 100
3, 223680, Note_on_c, 1, 59, 100
3, 223680, Note_on_c, 1, 47, 100
3, 223868, Note_off_c, 1, 59, 100
3, 223868, Note_off_c, 1, 47, 100
3, 223872, Note_on_c, 1, 60, 100
3, 223872, Note_on_c, 1, 48, 100
3, 224252, Note_off_c, 1, 60, 100
3, 224252, Note_off_c, 1, 48, 100
3, 224256, Note_on_c, 1, 59, 100
3, 224256, Note_on_c, 1, 55, 100
3, 224444, Note_off_c, 1, 59, 100
3, 224444, Note_off_c, 1, 55, 100
3, 224448, Note_on_c, 1, 60, 100
3, 224448, Note_on_c, 1, 48, 100
3, 224828, Note_off_c, 1, 60, 100
3, 224828, Note_off_c, 1, 48, 100
3, 224832, Note_on_c, 1, 59, 100
3, 224832, Note_on_c, 1, 55, 100
3, 225020, Note_off_c, 1, 59, 100
3, 225020, Note_off_c, 1, 55, 100
3, 225024, Note_on_c, 1, 60, 100
3, 225024, Note_on_c, 1, 48, 100
3, 225404, Note_off_c, 1, 60, 100
3, 225404, Note_off_c, 1, 48, 100
3, 226176, Note_on_c, 1, 55, 80
3, 226176, Note_on_c, 1, 62, 80
3, 226176, Note_on_c, 1, 65, 80
3, 226748, Note_off_c, 1, 62, 100
3, 226748, Note_off_c, 1, 65, 100
3, 226752, Note_on_c, 1, 60, 80
3, 226752, Note_on_c, 1, 64, 80
3, 227324, Note_off_c, 1, 60, 100
3, 227324, Note_off_c, 1, 64, 100
3, 227328, Note_on_c, 1, 59, 80
3, 227328, Note_on_c, 1, 62, 80
3, 227708, Note_off_c, 1, 55, 100
3, 227708, Note_off_c, 1, 59, 100
3, 227708, Note_off_c, 1, 62, 100
3, 228480, Note_on_c, 1, 55, 80
3, 228480, Note_on_c, 1, 64, 80
3, 228480, Note_on_c, 1, 67, 80
3, 229052, Note_off_c, 1, 64, 100
3, 229052, Note_off_c, 1, 67, 100
3, 229056, Note_on_c, 1, 62, 80
3, 229056, Note_on_c, 1, 65, 80
3, 229628, Note_off_c, 1, 62, 100
3, 229628, Note_off_c, 1, 65, 100
3, 229632, Note_on_c, 1, 60, 80
3, 229632, Note_on_c, 1, 64, 80
3, 230012, Note_off_c, 1, 55, 100
3, 230012, Note_off_c, 1, 60, 100
3, 230012, Note_off_c, 1, 64, 100
3, 230784, Note_on_c, 1, 55, 80
3, 230784, Note_on_c, 1, 60, 80
3, 230784, Note_on_c, 1, 69, 80
3, 231356, Note_off_c, 1, 60, 100
3, 231356, Note_off_c, 1, 69, 100
3, 231360, Note_on_c, 1, 59, 80
3, 231360, Note_on_c, 1, 67, 80
3, 231932, Note_off_c, 1, 59, 100
3, 231932, Note_off_c, 1, 67, 100
3, 231936, Note_on_c, 1, 60, 80
3, 231936, Note_on_c, 1, 66, 80
3, 233084, Note_off_c, 1, 55, 100
3, 233084, Note_off_c, 1, 60, 100
3, 233084, Note_off_c, 1, 66, 100
3, 233088, Note_on_c, 1, 55, 80
3, 233088, Note_on_c, 1, 59, 80
3, 233088, Note_on_c, 1, 67, 80
3, 233660, Note_off_c, 1, 59, 100
3, 233660, Note_off_c, 1, 67, 100
3, 233664, Note_on_c, 1, 60, 80
3, 233664, Note_on_c, 1, 69, 80
3, 234236, Note_off_c, 1, 55, 100
3, 234236, Note_off_c, 1, 60, 100
3, 234236, Note_off_c, 1, 69, 100
3, 234240, Note_on_c, 1, 55, 80
3, 234240, Note_on_c, 1, 59, 80
3, 234240, Note_on_c, 1, 67, 80
3, 234812, Note_off_c, 1, 59, 100
3, 234812, Note_off_c, 1, 67, 100
3, 234816, Note_on_c, 1, 60, 80
3, 234816, Note_on_c, 1, 69, 80
3, 235388, Note_off_c, 1, 55, 100
3, 235388, Note_off_c, 1, 60, 100
3, 235388, Note_off_c, 1, 69, 100
3, 235392, Note_on_c, 1, 67, 80
3, 235392, Note_on_c, 1, 62, 80
3, 235392, Note_on_c, 1, 59, 80
3, 235772, Note_off_c, 1, 67, 100
3, 235772, Note_off_c, 1, 62, 100
3, 235772, Note_off_c, 1, 59, 100
3, 237696, Note_on_c, 1, 48, 100
3, 237696, Note_on_c, 1, 60, 100
3, 238076, Note_off_c, 1, 48, 100
3, 238076, Note_off_c, 1, 60, 100
3, 239808, Note_on_c, 1, 79, 80
3, 239996, Note_off_c, 1, 79, 100
3, 240000, Note_on_c, 1, 81, 80
3, 240380, Note_off_c, 1, 81, 100
3, 240384, Note_on_c, 1, 79, 80
3, 240572, Note_off_c, 1, 79, 100
3, 240576, Note_on_c, 1, 81, 80
3, 240956, Note_off_c, 1, 81, 100
3, 240960, Note_on_c, 1, 79, 80
3, 241148, Note_off_c, 1, 79, 100
3, 241152, Note_on_c, 1, 78, 80
3, 241532, Note_off_c, 1, 78, 100
3, 242304, Note_on_c, 1, 67, 80
3, 242304, Note_on_c, 1, 72, 80
3, 242684, Note_off_c, 1, 67, 100
3, 242684, Note_off_c, 1, 72, 100
3, 242688, Note_on_c, 1, 66, 80
3, 242688, Note_on_c, 1, 72, 80
3, 242876, Note_off_c, 1, 66, 100
3, 242876, Note_off_c, 1, 72, 100
3, 242880, Note_on_c, 1, 67, 80
3, 242880, Note_on_c, 1, 72, 80
3, 243260, Note_off_c, 1, 67, 100
3, 243260, Note_off_c, 1, 72, 100
3, 243264, Note_on_c, 1, 65, 80
3, 243264, Note_on_c, 1, 72, 80
3, 243452, Note_off_c, 1, 65, 100
3, 243452, Note_off_c, 1, 72, 100
3, 243456, Note_on_c, 1, 64, 80
3, 243456, Note_on_c, 1, 67, 80
3, 243836, Note_off_c, 1, 64, 100
3, 243836, Note_off_c, 1, 67, 100
3, 244608, Note_on_c, 1, 72, 120
3, 244608, Note_on_c, 1, 69, 120
3, 244988, Note_off_c, 1, 72, 100
3, 244988, Note_off_c, 1, 69, 100
3, 244992, Note_on_c, 1, 71, 120
3, 244992, Note_on_c, 1, 67, 120
3, 245180, Note_off_c, 1, 71, 100
3, 245180, Note_off_c, 1, 67, 100
3, 245184, Note_on_c, 1, 69, 120
3, 245184, Note_on_c, 1, 65, 120
3, 245564, Note_off_c, 1, 69, 100
3, 245564, Note_off_c, 1, 65, 100
3, 245568, Note_on_c, 1, 67, 120
3, 245568, Note_on_c, 1, 64, 120
3, 245756, Note_off_c, 1, 67, 100
3, 245756, Note_off_c, 1, 64, 100
3, 245760, Note_on_c, 1, 65, 120
3, 245760, Note_on_c, 1, 62, 120
3, 246140, Note_off_c, 1, 65, 100
3, 246140, Note_off_c, 1, 62, 100
3, 246144, Note_on_c, 1, 64, 120
3, 246144, Note_on_c, 1, 60, 120
3, 246332, Note_off_c, 1, 64, 100
3, 246332, Note_off_c, 1, 60, 100
3, 246336, Note_on_c, 1, 62, 120
3, 246336, Note_on_c, 1, 59, 120
3, 246716, Note_off_c, 1, 62, 100
3, 246716, Note_off_c, 1, 59, 100
3, 246720, Note_on_c, 1, 60, 120
3, 246720, Note_on_c, 1, 57, 120
3, 246908, Note_off_c, 1, 60, 100
3, 246908, Note_off_c, 1, 57, 100
3, 246912, Note_on_c, 1, 59, 120
3, 246912, Note_on_c, 1, 55, 120
3, 247292, Note_off_c, 1, 59, 100
3, 247292, Note_off_c, 1, 55, 100
3, 247296, Note_on_c, 1, 57, 120
3, 247296, Note_on_c, 1, 53, 120
3, 247484, Note_off_c, 1, 57, 100
3, 247484, Note_off_c, 1, 53, 100
3, 247488, Note_on_c, 1, 55, 120
3, 247488, Note_on_c, 1, 52, 120
3, 247868, Note_off_c, 1, 55, 100
3, 247868, Note_off_c, 1, 52, 100
3, 247872, Note_on_c, 1, 53, 120
3, 247872, Note_on_c, 1, 50, 120
3, 248060, Note_off_c, 1, 53, 100
3, 248060, Note_off_c, 1, 50, 100
3, 248064, Note_on_c, 1, 52, 120
3, 248064, Note_on_c, 1, 48, 120
3, 248444, Note_off_c, 1, 52, 100
3, 248444, Note_off_c, 1, 48, 100
3, 248448, Note_on_c, 1, 50, 120
3, 248448, Note_on_c, 1, 47, 120
3, 248636, Note_off_c, 1, 50, 100
3, 248636, Note_off_c, 1, 47, 100
3, 248640, Note_on_c, 1, 52, 120
3, 248640, Note_on_c, 1, 48, 120
3, 249020, Note_off_c, 1, 52, 100
3, 249020, Note_off_c, 1, 48, 100
3, 249024, Note_on_c, 1, 48, 120
3, 249024, Note_on_c, 1, 45, 120
3, 249212, Note_off_c, 1, 48, 100
3, 249212, Note_off_c, 1, 45, 100
3, 249216, Note_on_c, 1, 43, 100
3, 249308, Note_off_c, 1, 43, 100
3, 249312, Note_on_c, 1, 47, 100
3, 249312, Note_on_c, 1, 50, 100
3, 249404, Note_off_c, 1, 47, 100
3, 249404, Note_off_c, 1, 50, 100
3, 249408, Note_on_c, 1, 55, 100
3, 249500, Note_off_c, 1, 55, 100
3, 249504, Note_on_c, 1, 50, 100
3, 249504, Note_on_c, 1, 47, 100
3, 249596, Note_off_c, 1, 50, 100
3, 249596, Note_off_c, 1, 47, 100
3, 249600, Note_on_c, 1, 55, 100
3, 249692, Note_off_c, 1, 55, 100
3, 249696, Note_on_c, 1, 50, 100
3, 249696, Note_on_c, 1, 47, 100
3, 249788, Note_off_c, 1, 50, 100
3, 249788, Note_off_c, 1, 47, 100
3, 249792, Note_on_c, 1, 55, 100
3, 249884, Note_off_c, 1, 55, 100
3, 249888, Note_on_c, 1, 50, 100
3, 249888, Note_on_c, 1, 47, 100
3, 249980, Note_off_c, 1, 50, 100
3, 249980, Note_off_c, 1, 47, 100
3, 249984, Note_on_c, 1, 55, 100
3, 250076, Note_off_c, 1, 55, 100
3, 250080, Note_on_c, 1, 50, 100
3, 250080, Note_on_c, 1, 47, 100
3, 250172, Note_off_c, 1, 50, 100
3, 250172, Note_off_c, 1, 47, 100
3, 250176, Note_on_c, 1, 55, 100
3, 250268, Note_off_c, 1, 55, 100
3, 250272, Note_on_c, 1, 50, 100
3, 250272, Note_on_c, 1, 47, 100
3, 250364, Note_off_c, 1, 50, 100
3, 250364, Note_off_c, 1, 47, 100
3, 250368, Note_on_c, 1, 43, 80
3, 250460, Note_off_c, 1, 43, 100
3, 250464, Note_on_c, 1, 47, 80
3, 250464, Note_on_c, 1, 50, 80
3, 250556, Note_off_c, 1, 47, 100
3, 250556, Note_off_c, 1, 50, 100
3, 250560, Note_on_c, 1, 55, 80
3, 250652, Note_off_c, 1, 55, 100
3, 250656, Note_on_c, 1, 50, 80
3, 250656, Note_on_c, 1, 47, 80
3, 250748, Note_off_c, 1, 50, 100
3, 250748, Note_off_c, 1, 47, 100
3, 250752, Note_on_c, 1, 55, 80
3, 250844, Note_off_c, 1, 55, 100
3, 250848, Note_on_c, 1, 50, 80
3, 250848, Note_on_c, 1, 47, 80
3, 250940, Note_off_c, 1, 50, 100
3, 250940, Note_off_c, 1, 47, 100
3, 250944, Note_on_c, 1, 41, 80
3, 251036, Note_off_c, 1, 41, 100
3, 251040, Note_on_c, 1, 50, 80
3, 251040, Note_on_c, 1, 47, 80
3, 251132, Note_off_c, 1, 50, 100
3, 251132, Note_off_c, 1, 47, 100
3, 251136, Note_on_c, 1, 55, 80
3, 251228, Note_off_c, 1, 55, 100
3, 251232, Note_on_c, 1, 50, 80
3, 251232, Note_on_c, 1, 47, 80
3, 251324, Note_off_c, 1, 50, 100
3, 251324, Note_off_c, 1, 47, 100
3, 251328, Note_on_c, 1, 55, 80
3, 251420, Note_off_c, 1, 55, 100
3, 251424, Note_on_c, 1, 50, 80
3, 251424, Note_on_c, 1, 47, 80
3, 251516, Note_off_c, 1, 50, 100
3, 251516, Note_off_c, 1, 47, 100
3, 251520, Note_on_c, 1, 40, 80
3, 251612, Note_off_c, 1, 40, 100
3, 251616, Note_on_c, 1, 48, 80
3, 251616, Note_on_c, 1, 52, 80
3, 251708, Note_off_c, 1, 48, 100
3, 251708, Note_off_c, 1, 52, 100
3, 251712, Note_on_c, 1, 55, 80
3, 251804, Note_off_c, 1, 55, 100
3, 251808, Note_on_c, 1, 52, 80
3, 251808, Note_on_c, 1, 48, 80
3, 251900, Note_off_c, 1, 52, 100
3, 251900, Note_off_c, 1, 48, 100
3, 251904, Note_on_c, 1, 55, 80
3, 251996, Note_off_c, 1, 55, 100
3, 252000, Note_on_c, 1, 52, 80
3, 252000, Note_on_c, 1, 48, 80
3, 252092, Note_off_c, 1, 52, 100
3, 252092, Note_off_c, 1, 48, 100
3, 252096, Note_on_c, 1, 55, 80
3, 252188, Note_off_c, 1, 55, 100
3, 252192, Note_on_c, 1, 52, 80
3, 252192, Note_on_c, 1, 48, 80
3, 252284, Note_off_c, 1, 52, 100
3, 252284, Note_off_c, 1, 48, 100
3, 252288, Note_on_c, 1, 55, 80
3, 252380, Note_off_c, 1, 55, 100
3, 252384, Note_on_c, 1, 52, 80
3, 252384, Note_on_c, 1, 48, 80
3, 252476, Note_off_c, 1, 52, 100
3, 252476, Note_off_c, 1, 48, 100
3, 252480, Note_on_c, 1, 55, 80
3, 252572, Note_off_c, 1, 55, 100
3, 252576, Note_on_c, 1, 52, 80
3, 252576, Note_on_c, 1, 48, 80
3, 252668, Note_off_c, 1, 52, 100
3, 252668, Note_off_c, 1, 48, 100
3, 252672, Note_on_c, 1, 43, 80
3, 252764, Note_off_c, 1, 43, 100
3, 252768, Note_on_c, 1, 47, 80
3, 252768, Note_on_c, 1, 50, 80
3, 252860, Note_off_c, 1, 47, 100
3, 252860, Note_off_c, 1, 50, 100
3, 252864, Note_on_c, 1, 55, 80
3, 252956, Note_off_c, 1, 55, 100
3, 252960, Note_on_c, 1, 50, 80
3, 252960, Note_on_c, 1, 47, 80
3, 253052, Note_off_c, 1, 50, 100
3, 253052, Note_off_c, 1, 47, 100
3, 253056, Note_on_c, 1, 55, 80
3, 253148, Note_off_c, 1, 55, 100
3, 253152, Note_on_c, 1, 50, 80
3, 253152, Note_on_c, 1, 47, 80
3, 253244, Note_off_c, 1, 50, 100
3, 253244, Note_off_c, 1, 47, 100
3, 253248, Note_on_c, 1, 41, 80
3, 253340, Note_off_c, 1, 41, 100
3, 253344, Note_on_c, 1, 50, 80
3, 253344, Note_on_c, 1, 47, 80
3, 253436, Note_off_c, 1, 50, 100
3, 253436, Note_off_c, 1, 47, 100
3, 253440, Note_on_c, 1, 55, 80
3, 253532, Note_off_c, 1, 55, 100
3, 253536, Note_on_c, 1, 50, 80
3, 253536, Note_on_c, 1, 47, 80
3, 253628, Note_off_c, 1, 50, 100
3, 253628, Note_off_c, 1, 47, 100
3, 253632, Note_on_c, 1, 55, 80
3, 253724, Note_off_c, 1, 55, 100
3, 253728, Note_on_c, 1, 50, 80
3, 253728, Note_on_c, 1, 47, 80
3, 253820, Note_off_c, 1, 50, 100
3, 253820, Note_off_c, 1, 47, 100
3, 253824, Note_on_c, 1, 40, 80
3, 253916, Note_off_c, 1, 40, 100
3, 253920, Note_on_c, 1, 48, 80
3, 253920, Note_on_c, 1, 52, 80
3, 254012, Note_off_c, 1, 48, 100
3, 254012, Note_off_c, 1, 52, 100
3, 254016, Note_on_c, 1, 55, 80
3, 254108, Note_off_c, 1, 55, 100
3, 254112, Note_on_c, 1, 52, 80
3, 254112, Note_on_c, 1, 48, 80
3, 254204, Note_off_c, 1, 52, 100
3, 254204, Note_off_c, 1, 48, 100
3, 254208, Note_on_c, 1, 55, 80
3, 254300, Note_off_c, 1, 55, 100
3, 254304, Note_on_c, 1, 52, 80
3, 254304, Note_on_c, 1, 48, 80
3, 254396, Note_off_c, 1, 52, 100
3, 254396, Note_off_c, 1, 48, 100
3, 254400, Note_on_c, 1, 55, 80
3, 254492, Note_off_c, 1, 55, 100
3, 254496, Note_on_c, 1, 52, 80
3, 254496, Note_on_c, 1, 48, 80
3, 254588, Note_off_c, 1, 52, 100
3, 254588, Note_off_c, 1, 48, 100
3, 254592, Note_on_c, 1, 55, 80
3, 254684, Note_off_c, 1, 55, 100
3, 254688, Note_on_c, 1, 52, 80
3, 254688, Note_on_c, 1, 48, 80
3, 254780, Note_off_c, 1, 52, 100
3, 254780, Note_off_c, 1, 48, 100
3, 254784, Note_on_c, 1, 55, 80
3, 254876, Note_off_c, 1, 55, 100
3, 254880, Note_on_c, 1, 52, 80
3, 254880, Note_on_c, 1, 48, 80
3, 254972, Note_off_c, 1, 52, 100
3, 254972, Note_off_c, 1, 48, 100
3, 254976, Note_on_c, 1, 43, 80
3, 255068, Note_off_c, 1, 43, 100
3, 255072, Note_on_c, 1, 47, 80
3, 255072, Note_on_c, 1, 50, 80
3, 255164, Note_off_c, 1, 47, 100
3, 255164, Note_off_c, 1, 50, 100
3, 255168, Note_on_c, 1, 55, 80
3, 255260, Note_off_c, 1, 55, 100
3, 255264, Note_on_c, 1, 50, 80
3, 255264, Note_on_c, 1, 47, 80
3, 255356, Note_off_c, 1, 50, 100
3, 255356, Note_off_c, 1, 47, 100
3, 255360, Note_on_c, 1, 55, 80
3, 255452, Note_off_c, 1, 55, 100
3, 255456, Note_on_c, 1, 50, 80
3, 255456, Note_on_c, 1, 47, 80
3, 255548, Note_off_c, 1, 50, 100
3, 255548, Note_off_c, 1, 47, 100
3, 255552, Note_on_c, 1, 41, 80
3, 255644, Note_off_c, 1, 41, 100
3, 255648, Note_on_c, 1, 50, 80
3, 255648, Note_on_c, 1, 47, 80
3, 255740, Note_off_c, 1, 50, 100
3, 255740, Note_off_c, 1, 47, 100
3, 255744, Note_on_c, 1, 55, 80
3, 255836, Note_off_c, 1, 55, 100
3, 255840, Note_on_c, 1, 50, 80
3, 255840, Note_on_c, 1, 47, 80
3, 255932, Note_off_c, 1, 50, 100
3, 255932, Note_off_c, 1, 47, 100
3, 255936, Note_on_c, 1, 55, 80
3, 256028, Note_off_c, 1, 55, 100
3, 256032, Note_on_c, 1, 50, 80
3, 256032, Note_on_c, 1, 47, 80
3, 256124, Note_off_c, 1, 50, 100
3, 256124, Note_off_c, 1, 47, 100
3, 256128, Note_on_c, 1, 40, 80
3, 256508, Note_off_c, 1, 40, 100
3, 256512, Note_on_c, 1, 59, 80
3, 256700, Note_off_c, 1, 59, 100
3, 256704, Note_on_c, 1, 60, 80
3, 256892, Note_off_c, 1, 60, 100
3, 256896, Note_on_c, 1, 64, 80
3, 257084, Note_off_c, 1, 64, 100
3, 257088, Note_on_c, 1, 56, 80
3, 257276, Note_off_c, 1, 56, 100
3, 257280, Note_on_c, 1, 57, 80
3, 257468, Note_off_c, 1, 57, 100
3, 257472, Note_on_c, 1, 60, 80
3, 257660, Note_off_c, 1, 60, 100
3, 257664, Note_on_c, 1, 52, 80
3, 257852, Note_off_c, 1, 52, 100
3, 257856, Note_on_c, 1, 53, 80
3, 258044, Note_off_c, 1, 53, 100
3, 258048, Note_on_c, 1, 57, 80
3, 258236, Note_off_c, 1, 57, 100
3, 258240, Note_on_c, 1, 49, 80
3, 258428, Note_off_c, 1, 49, 100
3, 258432, Note_on_c, 1, 50, 80
3, 258620, Note_off_c, 1, 50, 100
3, 258624, Note_on_c, 1, 53, 80
3, 258812, Note_off_c, 1, 53, 100
3, 258816, Note_on_c, 1, 52, 80
3, 259004, Note_off_c, 1, 52, 100
3, 259008, Note_on_c, 1, 50, 80
3, 259196, Note_off_c, 1, 50, 100
3, 259200, Note_on_c, 1, 52, 80
3, 259388, Note_off_c, 1, 52, 100
3, 259392, Note_on_c, 1, 53, 80
3, 259580, Note_off_c, 1, 53, 100
3, 259584, Note_on_c, 1, 55, 80
3, 259772, Note_off_c, 1, 55, 100
3, 259776, Note_on_c, 1, 54, 80
3, 259964, Note_off_c, 1, 54, 100
3, 259968, Note_on_c, 1, 55, 80
3, 260156, Note_off_c, 1, 55, 100
3, 260160, Note_on_c, 1, 43, 80
3, 260348, Note_off_c, 1, 43, 100
3, 260352, Note_on_c, 1, 45, 80
3, 260540, Note_off_c, 1, 45, 100
3, 260544, Note_on_c, 1, 47, 80
3, 260732, Note_off_c, 1, 47, 100
3, 260736, Note_on_c, 1, 48, 80
3, 261116, Note_off_c, 1, 48, 100
3, 261888, Note_on_c, 1, 43, 80
3, 261980, Note_off_c, 1, 43, 100
3, 261984, Note_on_c, 1, 47, 80
3, 261984, Note_on_c, 1, 50, 80
3, 262076, Note_off_c, 1, 47, 100
3, 262076, Note_off_c, 1, 50, 100
3, 262080, Note_on_c, 1, 55, 80
3, 262172, Note_off_c, 1, 55, 100
3, 262176, Note_on_c, 1, 50, 80
3, 262176, Note_on_c, 1, 47, 80
3, 262268, Note_off_c, 1, 50, 100
3, 262268, Note_off_c, 1, 47, 100
3, 262272, Note_on_c, 1, 55, 80
3, 262364, Note_off_c, 1, 55, 100
3, 262368, Note_on_c, 1, 50, 80
3, 262368, Note_on_c, 1, 47, 80
3, 262460, Note_off_c, 1, 50, 100
3, 262460, Note_off_c, 1, 47, 100
3, 262464, Note_on_c, 1, 41, 80
3, 262556, Note_off_c, 1, 41, 100
3, 262560, Note_on_c, 1, 50, 80
3, 262560, Note_on_c, 1, 47, 80
3, 262652, Note_off_c, 1, 50, 100
3, 262652, Note_off_c, 1, 47, 100
3, 262656, Note_on_c, 1, 55, 80
3, 262748, Note_off_c, 1, 55, 100
3, 262752, Note_on_c, 1, 50, 80
3, 262752, Note_on_c, 1, 47, 80
3, 262844, Note_off_c, 1, 50, 100
3, 262844, Note_off_c, 1, 47, 100
3, 262848, Note_on_c, 1, 55, 80
3, 262940, Note_off_c, 1, 55, 100
3, 262944, Note_on_c, 1, 50, 80
3, 262944, Note_on_c, 1, 47, 80
3, 263036, Note_off_c, 1, 50, 100
3, 263036, Note_off_c, 1, 47, 100
3, 263040, Note_on_c, 1, 39, 80
3, 263132, Note_off_c, 1, 39, 100
3, 263136, Note_on_c, 1, 48, 80
3, 263136, Note_on_c, 1, 51, 80
3, 263228, Note_off_c, 1, 48, 100
3, 263228, Note_off_c, 1, 51, 100
3, 263232, Note_on_c, 1, 55, 80
3, 263324, Note_off_c, 1, 55, 100
3, 263328, Note_on_c, 1, 51, 80
3, 263328, Note_on_c, 1, 48, 80
3, 263420, Note_off_c, 1, 51, 100
3, 263420, Note_off_c, 1, 48, 100
3, 263424, Note_on_c, 1, 55, 80
3, 263516, Note_off_c, 1, 55, 100
3, 263520, Note_on_c, 1, 51, 80
3, 263520, Note_on_c, 1, 48, 80
3, 263612, Note_off_c, 1, 51, 100
3, 263612, Note_off_c, 1, 48, 100
3, 263616, Note_on_c, 1, 55, 80
3, 263708, Note_off_c, 1, 55, 100
3, 263712, Note_on_c, 1, 51, 80
3, 263712, Note_on_c, 1, 48, 80
3, 263804, Note_off_c, 1, 51, 100
3, 263804, Note_off_c, 1, 48, 100
3, 263808, Note_on_c, 1, 55, 80
3, 263900, Note_off_c, 1, 55, 100
3, 263904, Note_on_c, 1, 51, 80
3, 263904, Note_on_c, 1, 48, 80
3, 263996, Note_off_c, 1, 51, 100
3, 263996, Note_off_c, 1, 48, 100
3, 264000, Note_on_c, 1, 55, 80
3, 264092, Note_off_c, 1, 55, 100
3, 264096, Note_on_c, 1, 51, 80
3, 264096, Note_on_c, 1, 48, 80
3, 264188, Note_off_c, 1, 51, 100
3, 264188, Note_off_c, 1, 48, 100
3, 264192, Note_on_c, 1, 43, 80
3, 264284, Note_off_c, 1, 43, 100
3, 264288, Note_on_c, 1, 47, 80
3, 264288, Note_on_c, 1, 50, 80
3, 264380, Note_off_c, 1, 47, 100
3, 264380, Note_off_c, 1, 50, 100
3, 264384, Note_on_c, 1, 55, 80
3, 264476, Note_off_c, 1, 55, 100
3, 264480, Note_on_c, 1, 50, 80
3, 264480, Note_on_c, 1, 47, 80
3, 264572, Note_off_c, 1, 50, 100
3, 264572, Note_off_c, 1, 47, 100
3, 264576, Note_on_c, 1, 55, 80
3, 264668, Note_off_c, 1, 55, 100
3, 264672, Note_on_c, 1, 50, 80
3, 264672, Note_on_c, 1, 47, 80
3, 264764, Note_off_c, 1, 50, 100
3, 264764, Note_off_c, 1, 47, 100
3, 264768, Note_on_c, 1, 41, 80
3, 264860, Note_off_c, 1, 41, 100
3, 264864, Note_on_c, 1, 50, 80
3, 264864, Note_on_c, 1, 47, 80
3, 264956, Note_off_c, 1, 50, 100
3, 264956, Note_off_c, 1, 47, 100
3, 264960, Note_on_c, 1, 55, 80
3, 265052, Note_off_c, 1, 55, 100
3, 265056, Note_on_c, 1, 50, 80
3, 265056, Note_on_c, 1, 47, 80
3, 265148, Note_off_c, 1, 50, 100
3, 265148, Note_off_c, 1, 47, 100
3, 265152, Note_on_c, 1, 55, 80
3, 265244, Note_off_c, 1, 55, 100
3, 265248, Note_on_c, 1, 50, 80
3, 265248, Note_on_c, 1, 47, 80
3, 265340, Note_off_c, 1, 50, 100
3, 265340, Note_off_c, 1, 47, 100
3, 265344, Note_on_c, 1, 40, 80
3, 265436, Note_off_c, 1, 40, 100
3, 265440, Note_on_c, 1, 48, 80
3, 265440, Note_on_c, 1, 51, 80
3, 265532, Note_off_c, 1, 48, 100
3, 265532, Note_off_c, 1, 51, 100
3, 265536, Note_on_c, 1, 55, 80
3, 265628, Note_off_c, 1, 55, 100
3, 265632, Note_on_c, 1, 51, 80
3, 265632, Note_on_c, 1, 48, 80
3, 265724, Note_off_c, 1, 51, 100
3, 265724, Note_off_c, 1, 48, 100
3, 265728, Note_on_c, 1, 55, 80
3, 265820, Note_off_c, 1, 55, 100
3, 265824, Note_on_c, 1, 51, 80
3, 265824, Note_on_c, 1, 48, 80
3, 265916, Note_off_c, 1, 51, 100
3, 265916, Note_off_c, 1, 48, 100
3, 265920, Note_on_c, 1, 55, 80
3, 266012, Note_off_c, 1, 55, 100
3, 266016, Note_on_c, 1, 51, 80
3, 266016, Note_on_c, 1, 48, 80
3, 266108, Note_off_c, 1, 51, 100
3, 266108, Note_off_c, 1, 48, 100
3, 266112, Note_on_c, 1, 55, 80
3, 266204, Note_off_c, 1, 55, 100
3, 266208, Note_on_c, 1, 51, 80
3, 266208, Note_on_c, 1, 48, 80
3, 266300, Note_off_c, 1, 51, 100
3, 266300, Note_off_c, 1, 48, 100
3, 266304, Note_on_c, 1, 55, 80
3, 266396, Note_off_c, 1, 55, 100
3, 266400, Note_on_c, 1, 51, 80
3, 266400, Note_on_c, 1, 48, 80
3, 266492, Note_off_c, 1, 51, 100
3, 266492, Note_off_c, 1, 48, 100
3, 266496, Note_on_c, 1, 46, 80
3, 266588, Note_off_c, 1, 46, 100
3, 266592, Note_on_c, 1, 53, 80
3, 266592, Note_on_c, 1, 50, 80
3, 266684, Note_off_c, 1, 53, 100
3, 266684, Note_off_c, 1, 50, 100
3, 266688, Note_on_c, 1, 58, 80
3, 266780, Note_off_c, 1, 58, 100
3, 266784, Note_on_c, 1, 53, 80
3, 266784, Note_on_c, 1, 50, 80
3, 266876, Note_off_c, 1, 53, 100
3, 266876, Note_off_c, 1, 50, 100
3, 266880, Note_on_c, 1, 58, 80
3, 266972, Note_off_c, 1, 58, 100
3, 266976, Note_on_c, 1, 53, 80
3, 266976, Note_on_c, 1, 50, 80
3, 267068, Note_off_c, 1, 53, 100
3, 267068, Note_off_c, 1, 50, 100
3, 267072, Note_on_c, 1, 44, 80
3, 267164, Note_off_c, 1, 44, 100
3, 267168, Note_on_c, 1, 53, 80
3, 267168, Note_on_c, 1, 50, 80
3, 267260, Note_off_c, 1, 53, 100
3, 267260, Note_off_c, 1, 50, 100
3, 267264, Note_on_c, 1, 58, 80
3, 267356, Note_off_c, 1, 58, 100
3, 267360, Note_on_c, 1, 53, 80
3, 267360, Note_on_c, 1, 50, 80
3, 267452, Note_off_c, 1, 53, 100
3, 267452, Note_off_c, 1, 50, 100
3, 267456, Note_on_c, 1, 58, 80
3, 267548, Note_off_c, 1, 58, 100
3, 267552, Note_on_c, 1, 53, 80
3, 267552, Note_on_c, 1, 50, 80
3, 267644, Note_off_c, 1, 53, 100
3, 267644, Note_off_c, 1, 50, 100
3, 267648, Note_on_c, 1, 43, 80
3, 267740, Note_off_c, 1, 43, 100
3, 267744, Note_on_c, 1, 51, 80
3, 267744, Note_on_c, 1, 55, 80
3, 267836, Note_off_c, 1, 51, 100
3, 267836, Note_off_c, 1, 55, 100
3, 267840, Note_on_c, 1, 58, 80
3, 267932, Note_off_c, 1, 58, 100
3, 267936, Note_on_c, 1, 55, 80
3, 267936, Note_on_c, 1, 51, 80
3, 268028, Note_off_c, 1, 55, 100
3, 268028, Note_off_c, 1, 51, 100
3, 268032, Note_on_c, 1, 58, 80
3, 268124, Note_off_c, 1, 58, 100
3, 268128, Note_on_c, 1, 55, 80
3, 268128, Note_on_c, 1, 51, 80
3, 268220, Note_off_c, 1, 55, 100
3, 268220, Note_off_c, 1, 51, 100
3, 268224, Note_on_c, 1, 58, 80
3, 268316, Note_off_c, 1, 58, 100
3, 268320, Note_on_c, 1, 51, 80
3, 268320, Note_on_c, 1, 55, 80
3, 268412, Note_off_c, 1, 51, 100
3, 268412, Note_off_c, 1, 55, 100
3, 268416, Note_on_c, 1, 58, 80
3, 268508, Note_off_c, 1, 58, 100
3, 268512, Note_on_c, 1, 55, 80
3, 268512, Note_on_c, 1, 51, 80
3, 268604, Note_off_c, 1, 55, 100
3, 268604, Note_off_c, 1, 51, 100
3, 268608, Note_on_c, 1, 58, 80
3, 268700, Note_off_c, 1, 58, 100
3, 268704, Note_on_c, 1, 55, 80
3, 268704, Note_on_c, 1, 51, 80
3, 268796, Note_off_c, 1, 55, 100
3, 268796, Note_off_c, 1, 51, 100
3, 268800, Note_on_c, 1, 46, 80
3, 268892, Note_off_c, 1, 46, 100
3, 268896, Note_on_c, 1, 53, 80
3, 268896, Note_on_c, 1, 50, 80
3, 268988, Note_off_c, 1, 53, 100
3, 268988, Note_off_c, 1, 50, 100
3, 268992, Note_on_c, 1, 58, 80
3, 269084, Note_off_c, 1, 58, 100
3, 269088, Note_on_c, 1, 53, 80
3, 269088, Note_on_c, 1, 50, 80
3, 269180, Note_off_c, 1, 53, 100
3, 269180, Note_off_c, 1, 50, 100
3, 269184, Note_on_c, 1, 58, 80
3, 269276, Note_off_c, 1, 58, 100
3, 269280, Note_on_c, 1, 53, 80
3, 269280, Note_on_c, 1, 50, 80
3, 269372, Note_off_c, 1, 53, 100
3, 269372, Note_off_c, 1, 50, 100
3, 269376, Note_on_c, 1, 44, 80
3, 269468, Note_off_c, 1, 44, 100
3, 269472, Note_on_c, 1, 53, 80
3, 269472, Note_on_c, 1, 50, 80
3, 269564, Note_off_c, 1, 53, 100
3, 269564, Note_off_c, 1, 50, 100
3, 269568, Note_on_c, 1, 58, 80
3, 269660, Note_off_c, 1, 58, 100
3, 269664, Note_on_c, 1, 53, 80
3, 269664, Note_on_c, 1, 50, 80
3, 269756, Note_off_c, 1, 53, 100
3, 269756, Note_off_c, 1, 50, 100
3, 269760, Note_on_c, 1, 58, 80
3, 269852, Note_off_c, 1, 58, 100
3, 269856, Note_on_c, 1, 53, 80
3, 269856, Note_on_c, 1, 50, 80
3, 269948, Note_off_c, 1, 53, 100
3, 269948, Note_off_c, 1, 50, 100
3, 269952, Note_on_c, 1, 43, 80
3, 270332, Note_off_c, 1, 43, 100
3, 270336, Note_on_c, 1, 62, 80
3, 270524, Note_off_c, 1, 62, 100
3, 270528, Note_on_c, 1, 63, 80
3, 270716, Note_off_c, 1, 63, 100
3, 270720, Note_on_c, 1, 67, 80
3, 270908, Note_off_c, 1, 67, 100
3, 270912, Note_on_c, 1, 59, 80
3, 271100, Note_off_c, 1, 59, 100
3, 271104, Note_on_c, 1, 60, 80
3, 271292, Note_off_c, 1, 60, 100
3, 271296, Note_on_c, 1, 63, 80
3, 271484, Note_off_c, 1, 63, 100
3, 271488, Note_on_c, 1, 55, 80
3, 271676, Note_off_c, 1, 55, 100
3, 271680, Note_on_c, 1, 56, 80
3, 271868, Note_off_c, 1, 56, 100
3, 271872, Note_on_c, 1, 60, 80
3, 272060, Note_off_c, 1, 60, 100
3, 272064, Note_on_c, 1, 52, 80
3, 272252, Note_off_c, 1, 52, 100
3, 272256, Note_on_c, 1, 53, 80
3, 272636, Note_off_c, 1, 53, 100
3, 272640, Note_on_c, 1, 64, 80
3, 272828, Note_off_c, 1, 64, 100
3, 272832, Note_on_c, 1, 65, 80
3, 273020, Note_off_c, 1, 65, 100
3, 273024, Note_on_c, 1, 68, 80
3, 273212, Note_off_c, 1, 68, 100
3, 273216, Note_on_c, 1, 61, 80
3, 273404, Note_off_c, 1, 61, 100
3, 273408, Note_on_c, 1, 62, 80
3, 273596, Note_off_c, 1, 62, 100
3, 273600, Note_on_c, 1, 65, 80
3, 273788, Note_off_c, 1, 65, 100
3, 273792, Note_on_c, 1, 57, 80
3, 273980, Note_off_c, 1, 57, 100
3, 273984, Note_on_c, 1, 58, 80
3, 274172, Note_off_c, 1, 58, 100
3, 274176, Note_on_c, 1, 62, 80
3, 274364, Note_off_c, 1, 62, 100
3, 274368, Note_on_c, 1, 54, 80
3, 274556, Note_off_c, 1, 54, 100
3, 274560, Note_on_c, 1, 55, 80
3, 274940, Note_off_c, 1, 55, 100
3, 274944, Note_on_c, 1, 66, 80
3, 275132, Note_off_c, 1, 66, 100
3, 275136, Note_on_c, 1, 67, 80
3, 275324, Note_off_c, 1, 67, 100
3, 275328, Note_on_c, 1, 70, 80
3, 275516, Note_off_c, 1, 70, 100
3, 275520, Note_on_c, 1, 62, 80
3, 275708, Note_off_c, 1, 62, 100
3, 275712, Note_on_c, 1, 63, 80
3, 275900, Note_off_c, 1, 63, 100
3, 275904, Note_on_c, 1, 67, 80
3, 276092, Note_off_c, 1, 67, 100
3, 276096, Note_on_c, 1, 59, 80
3, 276284, Note_off_c, 1, 59, 100
3, 276288, Note_on_c, 1, 60, 80
3, 276476, Note_off_c, 1, 60, 100
3, 276480, Note_on_c, 1, 63, 80
3, 276668, Note_off_c, 1, 63, 100
3, 276672, Note_on_c, 1, 55, 80
3, 276860, Note_off_c, 1, 55, 100
3, 276864, Note_on_c, 1, 56, 80
3, 277052, Note_off_c, 1, 56, 100
3, 277056, Note_on_c, 1, 60, 80
3, 277244, Note_off_c, 1, 60, 100
3, 277248, Note_on_c, 1, 52, 80
3, 277436, Note_off_c, 1, 52, 100
3, 277440, Note_on_c, 1, 53, 80
3, 277628, Note_off_c, 1, 53, 100
3, 277632, Note_on_c, 1, 56, 80
3, 277820, Note_off_c, 1, 56, 100
3, 277824, Note_on_c, 1, 49, 80
3, 278012, Note_off_c, 1, 49, 100
3, 278016, Note_on_c, 1, 50, 80
3, 278204, Note_off_c, 1, 50, 100
3, 278208, Note_on_c, 1, 53, 80
3, 278396, Note_off_c, 1, 53, 100
3, 278400, Note_on_c, 1, 46, 80
3, 278588, Note_off_c, 1, 46, 100
3, 278592, Note_on_c, 1, 47, 80
3, 278780, Note_off_c, 1, 47, 100
3, 278784, Note_on_c, 1, 50, 80
3, 278972, Note_off_c, 1, 50, 100
3, 278976, Note_on_c, 1, 42, 80
3, 279164, Note_off_c, 1, 42, 100
3, 279168, Note_on_c, 1, 43, 80
3, 279356, Note_off_c, 1, 43, 100
3, 279360, Note_on_c, 1, 47, 80
3, 279548, Note_off_c, 1, 47, 100
3, 279552, Note_on_c, 1, 38, 80
3, 279740, Note_off_c, 1, 38, 100
3, 279744, Note_on_c, 1, 39, 80
3, 279932, Note_off_c, 1, 39, 100
3, 279936, Note_on_c, 1, 43, 80
3, 280124, Note_off_c, 1, 43, 100
3, 280128, Note_on_c, 1, 35, 80
3, 280316, Note_off_c, 1, 35, 100
3, 280320, Note_on_c, 1, 36, 100
3, 280508, Note_off_c, 1, 36, 100
3, 280512, Note_on_c, 1, 39, 100
3, 280700, Note_off_c, 1, 39, 100
3, 280704, Note_on_c, 1, 31, 100
3, 280892, Note_off_c, 1, 31, 100
3, 280896, Note_on_c, 1, 32, 100
3, 281084, Note_off_c, 1, 32, 100
3, 281088, Note_on_c, 1, 36, 100
3, 281276, Note_off_c, 1, 36, 100
3, 281280, Note_on_c, 1, 30, 100
3, 281468, Note_off_c, 1, 30, 100
3, 281472, Note_on_c, 1, 31, 104
3, 282048, Note_on_c, 1, 41, 80
3, 282620, Note_off_c, 1, 41, 100
3, 282624, Note_on_c, 1, 39, 80
3, 283196, Note_off_c, 1, 39, 100
3, 283200, Note_on_c, 1, 36, 80
3, 283772, Note_off_c, 1, 31, 100
3, 283772, Note_off_c, 1, 36, 100
3, 283776, Note_on_c, 1, 31, 80
3, 283964, Note_off_c, 1, 31, 100
3, 283968, Note_on_c, 1, 35, 80
3, 284156, Note_off_c, 1, 35, 100
3, 284160, Note_on_c, 1, 38, 80
3, 284348, Note_off_c, 1, 38, 100
3, 284352, Note_on_c, 1, 43, 80
3, 284540, Note_off_c, 1, 43, 100
3, 284544, Note_on_c, 1, 45, 80
3, 284732, Note_off_c, 1, 45, 100
3, 284736, Note_on_c, 1, 47, 80
3, 284924, Note_off_c, 1, 47, 100
3, 284928, Note_on_c, 1, 48, 80
3, 285116, Note_off_c, 1, 48, 100
3, 285120, Note_on_c, 1, 43, 80
3, 285308, Note_off_c, 1, 43, 100
3, 285312, Note_on_c, 1, 50, 80
3, 285500, Note_off_c, 1, 50, 100
3, 285504, Note_on_c, 1, 51, 80
3, 285692, Note_off_c, 1, 51, 100
3, 285696, Note_on_c, 1, 43, 80
3, 285884, Note_off_c, 1, 43, 100
3, 285888, Note_on_c, 1, 54, 80
3, 286076, Note_off_c, 1, 54, 100
3, 286080, Note_on_c, 1, 43, 105
3, 286080, Note_on_c, 1, 55, 80
3, 286652, Note_off_c, 1, 55, 100
3, 286656, Note_on_c, 1, 53, 80
3, 287228, Note_off_c, 1, 53, 100
3, 287232, Note_on_c, 1, 51, 80
3, 287804, Note_off_c, 1, 51, 100
3, 287808, Note_on_c, 1, 48, 80
3, 288380, Note_off_c, 1, 43, 100
3, 288380, Note_off_c, 1, 48, 100
3, 288384, Note_on_c, 1, 43, 80
3, 288572, Note_off_c, 1, 43, 100
3, 288576, Note_on_c, 1, 47, 80
3, 288764, Note_off_c, 1, 47, 100
3, 288768, Note_on_c, 1, 50, 80
3, 288956, Note_off_c, 1, 50, 100
3, 288960, Note_on_c, 1, 55, 80
3, 289148, Note_off_c, 1, 55, 100
3, 289152, Note_on_c, 1, 57, 80
3, 289340, Note_off_c, 1, 57, 100
3, 289344, Note_on_c, 1, 59, 80
3, 289532, Note_off_c, 1, 59, 100
3, 289536, Note_on_c, 1, 60, 80
3, 289724, Note_off_c, 1, 60, 100
3, 289728, Note_on_c, 1, 55, 80
3, 289916, Note_off_c, 1, 55, 100
3, 289920, Note_on_c, 1, 62, 80
3, 290108, Note_off_c, 1, 62, 100
3, 290112, Note_on_c, 1, 63, 80
3, 290300, Note_off_c, 1, 63, 100
3, 290304, Note_on_c, 1, 55, 80
3, 290492, Note_off_c, 1, 55, 100
3, 290496, Note_on_c, 1, 66, 80
3, 290684, Note_off_c, 1, 66, 100
3, 290688, Note_on_c, 1, 67, 80
3, 290876, Note_off_c, 1, 67, 100
3, 292992, Note_on_c, 1, 55, 80
3, 293180, Note_off_c, 1, 55, 100
3, 293184, Note_on_c, 1, 54, 80
3, 293372, Note_off_c, 1, 54, 100
3, 293376, Note_on_c, 1, 55, 80
3, 293564, Note_off_c, 1, 55, 100
3, 293568, Note_on_c, 1, 57, 80
3, 293756, Note_off_c, 1, 57, 100
3, 293760, Note_on_c, 1, 59, 80
3, 293948, Note_off_c, 1, 59, 100
3, 293952, Note_on_c, 1, 60, 80
3, 294140, Note_off_c, 1, 60, 100
3, 294144, Note_on_c, 1, 62, 80
3, 294332, Note_off_c, 1, 62, 100
3, 294336, Note_on_c, 1, 64, 80
3, 294524, Note_off_c, 1, 64, 100
3, 294528, Note_on_c, 1, 66, 80
3, 294716, Note_off_c, 1, 66, 100
3, 294720, Note_on_c, 1, 67, 80
3, 294908, Note_off_c, 1, 67, 100
3, 294912, Note_on_c, 1, 69, 80
3, 295100, Note_off_c, 1, 69, 100
3, 295104, Note_on_c, 1, 71, 80
3, 295292, Note_off_c, 1, 71, 100
3, 295296, Note_on_c, 1, 59, 80
3, 295484, Note_off_c, 1, 59, 100
3, 295488, Note_on_c, 1, 57, 80
3, 295676, Note_off_c, 1, 57, 100
3, 295680, Note_on_c, 1, 59, 80
3, 295868, Note_off_c, 1, 59, 100
3, 297600, Note_on_c, 1, 60, 120
3, 297600, Note_on_c, 1, 55, 120
3, 297600, Note_on_c, 1, 52, 120
3, 297788, Note_off_c, 1, 60, 100
3, 297788, Note_off_c, 1, 55, 100
3, 297788, Note_off_c, 1, 52, 100
3, 297792, Note_on_c, 1, 59, 120
3, 297792, Note_on_c, 1, 53, 120
3, 297792, Note_on_c, 1, 50, 120
3, 297980, Note_off_c, 1, 59, 100
3, 297980, Note_off_c, 1, 53, 100
3, 297980, Note_off_c, 1, 50, 100
3, 297984, Note_on_c, 1, 60, 120
3, 297984, Note_on_c, 1, 55, 120
3, 297984, Note_on_c, 1, 52, 120
3, 298172, Note_off_c, 1, 60, 100
3, 298172, Note_off_c, 1, 55, 100
3, 298172, Note_off_c, 1, 52, 100
3, 298176, Note_on_c, 1, 62, 120
3, 298176, Note_on_c, 1, 57, 120
3, 298176, Note_on_c, 1, 53, 120
3, 298364, Note_off_c, 1, 62, 100
3, 298364, Note_off_c, 1, 57, 100
3, 298364, Note_off_c, 1, 53, 100
3, 298368, Note_on_c, 1, 64, 120
3, 298368, Note_on_c, 1, 59, 120
3, 298368, Note_on_c, 1, 55, 120
3, 298556, Note_off_c, 1, 64, 100
3, 298556, Note_off_c, 1, 59, 100
3, 298556, Note_off_c, 1, 55, 100
3, 298560, Note_on_c, 1, 65, 120
3, 298560, Note_on_c, 1, 60, 120
3, 298560, Note_on_c, 1, 57, 120
3, 298748, Note_off_c, 1, 65, 100
3, 298748, Note_off_c, 1, 60, 100
3, 298748, Note_off_c, 1, 57, 100
3, 298752, Note_on_c, 1, 67, 120
3, 298752, Note_on_c, 1, 62, 120
3, 298752, Note_on_c, 1, 59, 120
3, 298940, Note_off_c, 1, 67, 100
3, 298940, Note_off_c, 1, 62, 100
3, 298940, Note_off_c, 1, 59, 100
3, 298944, Note_on_c, 1, 69, 120
3, 298944, Note_on_c, 1, 64, 120
3, 298944, Note_on_c, 1, 60, 120
3, 299132, Note_off_c, 1, 69, 100
3, 299132, Note_off_c, 1, 64, 100
3, 299132, Note_off_c, 1, 60, 100
3, 299136, Note_on_c, 1, 71, 120
3, 299136, Note_on_c, 1, 65, 120
3, 299136, Note_on_c, 1, 62, 120
3, 299324, Note_off_c, 1, 71, 100
3, 299324, Note_off_c, 1, 65, 100
3, 299324, Note_off_c, 1, 62, 100
3, 299328, Note_on_c, 1, 72, 120
3, 299328, Note_on_c, 1, 67, 120
3, 299328, Note_on_c, 1, 64, 120
3, 299516, Note_off_c, 1, 72, 100
3, 299516, Note_off_c, 1, 67, 100
3, 299516, Note_off_c, 1, 64, 100
3, 299520, Note_on_c, 1, 74, 120
3, 299520, Note_on_c, 1, 69, 120
3, 299520, Note_on_c, 1, 65, 120
3, 299708, Note_off_c, 1, 74, 100
3, 299708, Note_off_c, 1, 69, 100
3, 299708, Note_off_c, 1, 65, 100
3, 299712, Note_on_c, 1, 76, 120
3, 299712, Note_on_c, 1, 72, 120
3, 299900, Note_off_c, 1, 76, 100
3, 299900, Note_off_c, 1, 72, 100
3, 299904, Note_on_c, 1, 72, 120
3, 299904, Note_on_c, 1, 77, 120
3, 299904, Note_on_c, 1, 69, 120
3, 300284, Note_off_c, 1, 72, 100
3, 300284, Note_off_c, 1, 77, 100
3, 300284, Note_off_c, 1, 69, 100
3, 300288, Note_on_c, 1, 76, 120
3, 300288, Note_on_c, 1, 72, 120
3, 300288, Note_on_c, 1, 67, 120
3, 300476, Note_off_c, 1, 76, 100
3, 300476, Note_off_c, 1, 72, 100
3, 300476, Note_off_c, 1, 67, 100
3, 300480, Note_on_c, 1, 72, 120
3, 300480, Note_on_c, 1, 77, 120
3, 300480, Note_on_c, 1, 69, 120
3, 300860, Note_off_c, 1, 72, 100
3, 300860, Note_off_c, 1, 77, 100
3, 300860, Note_off_c, 1, 69, 100
3, 300864, Note_on_c, 1, 76, 120
3, 300864, Note_on_c, 1, 72, 120
3, 300864, Note_on_c, 1, 67, 120
3, 301052, Note_off_c, 1, 76, 100
3, 301052, Note_off_c, 1, 72, 100
3, 301052, Note_off_c, 1, 67, 100
3, 301056, Note_on_c, 1, 74, 120
3, 301056, Note_on_c, 1, 72, 120
3, 301056, Note_on_c, 1, 67, 120
3, 301436, Note_off_c, 1, 74, 100
3, 301436, Note_off_c, 1, 72, 100
3, 301436, Note_off_c, 1, 67, 100
3, 302208, Note_on_c, 1, 76, 120
3, 302208, Note_on_c, 1, 72, 120
3, 302208, Note_on_c, 1, 67, 120
3, 302588, Note_off_c, 1, 76, 100
3, 302588, Note_off_c, 1, 72, 100
3, 302588, Note_off_c, 1, 67, 100
3, 302592, Note_on_c, 1, 72, 120
3, 302592, Note_on_c, 1, 74, 120
3, 302592, Note_on_c, 1, 65, 120
3, 302780, Note_off_c, 1, 72, 100
3, 302780, Note_off_c, 1, 74, 100
3, 302780, Note_off_c, 1, 65, 100
3, 302784, Note_on_c, 1, 76, 120
3, 302784, Note_on_c, 1, 72, 120
3, 302784, Note_on_c, 1, 67, 120
3, 303164, Note_off_c, 1, 76, 100
3, 303164, Note_off_c, 1, 72, 100
3, 303164, Note_off_c, 1, 67, 100
3, 303168, Note_on_c, 1, 72, 120
3, 303168, Note_on_c, 1, 74, 120
3, 303168, Note_on_c, 1, 65, 120
3, 303356, Note_off_c, 1, 72, 100
3, 303356, Note_off_c, 1, 74, 100
3, 303356, Note_off_c, 1, 65, 100
3, 303360, Note_on_c, 1, 64, 120
3, 303360, Note_on_c, 1, 72, 120
3, 303740, Note_off_c, 1, 64, 100
3, 303740, Note_off_c, 1, 72, 100
3, 304512, Note_on_c, 1, 72, 110
3, 304560, Note_on_c, 1, 74, 110
3, 304604, Note_off_c, 1, 72, 100
3, 304608, Note_on_c, 1, 72, 110
3, 304652, Note_off_c, 1, 74, 100
3, 304656, Note_on_c, 1, 74, 110
3, 304700, Note_off_c, 1, 72, 100
3, 304704, Note_on_c, 1, 72, 110
3, 304748, Note_off_c, 1, 74, 100
3, 304752, Note_on_c, 1, 74, 110
3, 304796, Note_off_c, 1, 72, 100
3, 304800, Note_on_c, 1, 72, 110
3, 304844, Note_off_c, 1, 74, 100
3, 304848, Note_on_c, 1, 74, 110
3, 304892, Note_off_c, 1, 72, 100
3, 304896, Note_on_c, 1, 72, 110
3, 304940, Note_off_c, 1, 74, 100
3, 304944, Note_on_c, 1, 74, 110
3, 304988, Note_off_c, 1, 72, 100
3, 304992, Note_on_c, 1, 72, 110
3, 305036, Note_off_c, 1, 74, 100
3, 305040, Note_on_c, 1, 74, 110
3, 305084, Note_off_c, 1, 72, 100
3, 305088, Note_on_c, 1, 72, 110
3, 305132, Note_off_c, 1, 74, 100
3, 305136, Note_on_c, 1, 74, 110
3, 305180, Note_off_c, 1, 72, 100
3, 305184, Note_on_c, 1, 72, 110
3, 305228, Note_off_c, 1, 74, 100
3, 305232, Note_on_c, 1, 74, 110
3, 305276, Note_off_c, 1, 72, 100
3, 305280, Note_on_c, 1, 72, 110
3, 305324, Note_off_c, 1, 74, 100
3, 305328, Note_on_c, 1, 74, 110
3, 305372, Note_off_c, 1, 72, 100
3, 305376, Note_on_c, 1, 72, 110
3, 305420, Note_off_c, 1, 74, 100
3, 305424, Note_on_c, 1, 74, 110
3, 305468, Note_off_c, 1, 72, 100
3, 305472, Note_on_c, 1, 72, 110
3, 305516, Note_off_c, 1, 74, 100
3, 305520, Note_on_c, 1, 74, 110
3, 305564, Note_off_c, 1, 72, 100
3, 305568, Note_on_c, 1, 72, 110
3, 305612, Note_off_c, 1, 74, 100
3, 305616, Note_on_c, 1, 74, 110
3, 305660, Note_off_c, 1, 72, 100
3, 305664, Note_on_c, 1, 72, 110
3, 305708, Note_off_c, 1, 74, 100
3, 305712, Note_on_c, 1, 74, 110
3, 305756, Note_off_c, 1, 72, 100
3, 305760, Note_on_c, 1, 72, 110
3, 305804, Note_off_c, 1, 74, 100
3, 305808, Note_on_c, 1, 74, 110
3, 305852, Note_off_c, 1, 72, 100
3, 305856, Note_on_c, 1, 72, 110
3, 305900, Note_off_c, 1, 74, 100
3, 305904, Note_on_c, 1, 74, 110
3, 305948, Note_off_c, 1, 72, 100
3, 305952, Note_on_c, 1, 72, 110
3, 305996, Note_off_c, 1, 74, 100
3, 306000, Note_on_c, 1, 74, 110
3, 306044, Note_off_c, 1, 72, 100
3, 306048, Note_on_c, 1, 72, 110
3, 306092, Note_off_c, 1, 74, 100
3, 306096, Note_on_c, 1, 74, 110
3, 306140, Note_off_c, 1, 72, 100
3, 306144, Note_on_c, 1, 72, 110
3, 306188, Note_off_c, 1, 74, 100
3, 306192, Note_on_c, 1, 74, 110
3, 306236, Note_off_c, 1, 72, 100
3, 306240, Note_on_c, 1, 72, 110
3, 306284, Note_off_c, 1, 74, 100
3, 306288, Note_on_c, 1, 74, 110
3, 306332, Note_off_c, 1, 72, 100
3, 306336, Note_on_c, 1, 72, 110
3, 306380, Note_off_c, 1, 74, 100
3, 306384, Note_on_c, 1, 74, 110
3, 306428, Note_off_c, 1, 72, 100
3, 306432, Note_on_c, 1, 72, 110
3, 306476, Note_off_c, 1, 74, 100
3, 306480, Note_on_c, 1, 74, 110
3, 306524, Note_off_c, 1, 72, 100
3, 306528, Note_on_c, 1, 72, 110
3, 306572, Note_off_c, 1, 74, 100
3, 306576, Note_on_c, 1, 74, 110
3, 306620, Note_off_c, 1, 72, 100
3, 306624, Note_on_c, 1, 72, 110
3, 306668, Note_off_c, 1, 74, 100
3, 306672, Note_on_c, 1, 74, 110
3, 306716, Note_off_c, 1, 72, 100
3, 306720, Note_on_c, 1, 72, 110
3, 306764, Note_off_c, 1, 74, 100
3, 306768, Note_on_c, 1, 74, 110
3, 306812, Note_off_c, 1, 72, 100
3, 306816, Note_on_c, 1, 72, 110
3, 306860, Note_off_c, 1, 74, 100
3, 306864, Note_on_c, 1, 74, 110
3, 306908, Note_off_c, 1, 72, 100
3, 306912, Note_on_c, 1, 72, 110
3, 306956, Note_off_c, 1, 74, 100
3, 306960, Note_on_c, 1, 74, 110
3, 307004, Note_off_c, 1, 72, 100
3, 307008, Note_on_c, 1, 72, 110
3, 307052, Note_off_c, 1, 74, 100
3, 307056, Note_on_c, 1, 74, 110
3, 307100, Note_off_c, 1, 72, 100
3, 307104, Note_on_c, 1, 72, 110
3, 307148, Note_off_c, 1, 74, 100
3, 307152, Note_on_c, 1, 74, 110
3, 307196, Note_off_c, 1, 72, 100
3, 307200, Note_on_c, 1, 72, 110
3, 307244, Note_off_c, 1, 74, 100
3, 307248, Note_on_c, 1, 74, 110
3, 307292, Note_off_c, 1, 72, 100
3, 307296, Note_on_c, 1, 72, 110
3, 307340, Note_off_c, 1, 74, 100
3, 307344, Note_on_c, 1, 74, 110
3, 307388, Note_off_c, 1, 72, 100
3, 307392, Note_on_c, 1, 72, 110
3, 307436, Note_off_c, 1, 74, 100
3, 307440, Note_on_c, 1, 74, 110
3, 307484, Note_off_c, 1, 72, 100
3, 307488, Note_on_c, 1, 72, 110
3, 307532, Note_off_c, 1, 74, 100
3, 307536, Note_on_c, 1, 74, 110
3, 307580, Note_off_c, 1, 72, 100
3, 307584, Note_on_c, 1, 72, 110
3, 307628, Note_off_c, 1, 74, 100
3, 307632, Note_on_c, 1, 74, 110
3, 307676, Note_off_c, 1, 72, 100
3, 307680, Note_on_c, 1, 72, 110
3, 307724, Note_off_c, 1, 74, 100
3, 307728, Note_on_c, 1, 74, 110
3, 307772, Note_off_c, 1, 72, 100
3, 307776, Note_on_c, 1, 72, 110
3, 307820, Note_off_c, 1, 74, 100
3, 307824, Note_on_c, 1, 74, 110
3, 307868, Note_off_c, 1, 72, 100
3, 307872, Note_on_c, 1, 72, 110
3, 307916, Note_off_c, 1, 74, 100
3, 307920, Note_on_c, 1, 74, 110
3, 307964, Note_off_c, 1, 72, 100
3, 307968, Note_on_c, 1, 72, 110
3, 308012, Note_off_c, 1, 74, 100
3, 308016, Note_on_c, 1, 74, 110
3, 308060, Note_off_c, 1, 72, 100
3, 308064, Note_on_c, 1, 72, 110
3, 308108, Note_off_c, 1, 74, 100
3, 308112, Note_on_c, 1, 74, 110
3, 308156, Note_off_c, 1, 72, 100
3, 308160, Note_on_c, 1, 72, 110
3, 308204, Note_off_c, 1, 74, 100
3, 308208, Note_on_c, 1, 74, 110
3, 308252, Note_off_c, 1, 72, 100
3, 308256, Note_on_c, 1, 72, 110
3, 308300, Note_off_c, 1, 74, 100
3, 308304, Note_on_c, 1, 74, 110
3, 308348, Note_off_c, 1, 72, 100
3, 308352, Note_on_c, 1, 72, 110
3, 308396, Note_off_c, 1, 74, 100
3, 308400, Note_on_c, 1, 74, 110
3, 308444, Note_off_c, 1, 72, 100
3, 308448, Note_on_c, 1, 72, 110
3, 308492, Note_off_c, 1, 74, 100
3, 308496, Note_on_c, 1, 74, 110
3, 308540, Note_off_c, 1, 72, 100
3, 308544, Note_on_c, 1, 72, 110
3, 308588, Note_off_c, 1, 74, 100
3, 308592, Note_on_c, 1, 74, 110
3, 308636, Note_off_c, 1, 72, 100
3, 308640, Note_on_c, 1, 72, 110
3, 308684, Note_off_c, 1, 74, 100
3, 308688, Note_on_c, 1, 74, 110
3, 308732, Note_off_c, 1, 72, 100
3, 308736, Note_on_c, 1, 72, 110
3, 308780, Note_off_c, 1, 74, 100
3, 308784, Note_on_c, 1, 74, 110
3, 308828, Note_off_c, 1, 72, 100
3, 308832, Note_on_c, 1, 72, 110
3, 308876, Note_off_c, 1, 74, 100
3, 308880, Note_on_c, 1, 74, 110
3, 308924, Note_off_c, 1, 72, 100
3, 308928, Note_on_c, 1, 72, 110
3, 308972, Note_off_c, 1, 74, 100
3, 308976, Note_on_c, 1, 74, 110
3, 309020, Note_off_c, 1, 72, 100
3, 309024, Note_on_c, 1, 71, 110
3, 309068, Note_off_c, 1, 74, 100
3, 309072, Note_on_c, 1, 72, 110
3, 309116, Note_off_c, 1, 71, 100
3, 309116, Note_off_c, 1, 72, 100
3, 309120, Note_on_c, 1, 81, 120
3, 309308, Note_off_c, 1, 81, 100
3, 309312, Note_on_c, 1, 78, 120
3, 309500, Note_off_c, 1, 78, 100
3, 309504, Note_on_c, 1, 79, 120
3, 309692, Note_off_c, 1, 79, 100
3, 309696, Note_on_c, 1, 76, 120
3, 309884, Note_off_c, 1, 76, 100
3, 309888, Note_on_c, 1, 77, 120
3, 310076, Note_off_c, 1, 77, 100
3, 310080, Note_on_c, 1, 74, 120
3, 310268, Note_off_c, 1, 74, 100
3, 310272, Note_on_c, 1, 76, 120
3, 310460, Note_off_c, 1, 76, 100
3, 310464, Note_on_c, 1, 73, 120
3, 310652, Note_off_c, 1, 73, 100
3, 310656, Note_on_c, 1, 74, 120
3, 310844, Note_off_c, 1, 74, 100
3, 310848, Note_on_c, 1, 71, 120
3, 311036, Note_off_c, 1, 71, 100
3, 311040, Note_on_c, 1, 72, 120
3, 311228, Note_off_c, 1, 72, 100
3, 311232, Note_on_c, 1, 69, 120
3, 311420, Note_off_c, 1, 69, 100
3, 311424, Note_on_c, 1, 71, 120
3, 311612, Note_off_c, 1, 71, 100
3, 311616, Note_on_c, 1, 68, 120
3, 311804, Note_off_c, 1, 68, 100
3, 311808, Note_on_c, 1, 69, 120
3, 311996, Note_off_c, 1, 69, 100
3, 312000, Note_on_c, 1, 66, 120
3, 312188, Note_off_c, 1, 66, 100
3, 312192, Note_on_c, 1, 67, 120
3, 312380, Note_off_c, 1, 67, 100
3, 312384, Note_on_c, 1, 64, 120
3, 312572, Note_off_c, 1, 64, 100
3, 312576, Note_on_c, 1, 65, 120
3, 312764, Note_off_c, 1, 65, 100
3, 312768, Note_on_c, 1, 62, 120
3, 312956, Note_off_c, 1, 62, 100
3, 312960, Note_on_c, 1, 64, 120
3, 313148, Note_off_c, 1, 64, 100
3, 313152, Note_on_c, 1, 61, 120
3, 313340, Note_off_c, 1, 61, 100
3, 313344, Note_on_c, 1, 62, 120
3, 313532, Note_off_c, 1, 62, 100
3, 313536, Note_on_c, 1, 59, 120
3, 313724, Note_off_c, 1, 59, 100
3, 313728, Note_on_c, 1, 60, 110
3, 313916, Note_off_c, 1, 60, 100
3, 313920, Note_on_c, 1, 59, 110
3, 314108, Note_off_c, 1, 59, 100
3, 314112, Note_on_c, 1, 57, 110
3, 314300, Note_off_c, 1, 57, 100
3, 314304, Note_on_c, 1, 62, 110
3, 314492, Note_off_c, 1, 62, 100
3, 314496, Note_on_c, 1, 60, 111
3, 314684, Note_off_c, 1, 60, 100
3, 314688, Note_on_c, 1, 59, 111
3, 314876, Note_off_c, 1, 59, 100
3, 314880, Note_on_c, 1, 64, 111
3, 315068, Note_off_c, 1, 64, 100
3, 315072, Note_on_c, 1, 62, 111
3, 315260, Note_off_c, 1, 62, 100
3, 315264, Note_on_c, 1, 60, 112
3, 315452, Note_off_c, 1, 60, 100
3, 315456, Note_on_c, 1, 65, 112
3, 315644, Note_off_c, 1, 65, 100
3, 315648, Note_on_c, 1, 64, 112
3, 315836, Note_off_c, 1, 64, 100
3, 315840, Note_on_c, 1, 62, 113
3, 316028, Note_off_c, 1, 62, 100
3, 316032, Note_on_c, 1, 67, 113
3, 316220, Note_off_c, 1, 67, 100
3, 316224, Note_on_c, 1, 65, 113
3, 316412, Note_off_c, 1, 65, 100
3, 316416, Note_on_c, 1, 64, 113
3, 316604, Note_off_c, 1, 64, 100
3, 316608, Note_on_c, 1, 69, 114
3, 316796, Note_off_c, 1, 69, 100
3, 316800, Note_on_c, 1, 67, 114
3, 316988, Note_off_c, 1, 67, 100
3, 316992, Note_on_c, 1, 65, 114
3, 317180, Note_off_c, 1, 65, 100
3, 317184, Note_on_c, 1, 71, 115
3, 317372, Note_off_c, 1, 71, 100
3, 317376, Note_on_c, 1, 69, 115
3, 317564, Note_off_c, 1, 69, 100
3, 317568, Note_on_c, 1, 67, 115
3, 317756, Note_off_c, 1, 67, 100
3, 317760, Note_on_c, 1, 72, 115
3, 317948, Note_off_c, 1, 72, 100
3, 317952, Note_on_c, 1, 71, 116
3, 318140, Note_off_c, 1, 71, 100
3, 318144, Note_on_c, 1, 69, 116
3, 318332, Note_off_c, 1, 69, 100
3, 318336, Note_on_c, 1, 74, 116
3, 318524, Note_off_c, 1, 74, 100
3, 318528, Note_on_c, 1, 72, 116
3, 318716, Note_off_c, 1, 72, 100
3, 318720, Note_on_c, 1, 71, 117
3, 318908, Note_off_c, 1, 71, 100
3, 318912, Note_on_c, 1, 76, 117
3, 319100, Note_off_c, 1, 76, 100
3, 319104, Note_on_c, 1, 74, 117
3, 319292, Note_off_c, 1, 74, 100
3, 319296, Note_on_c, 1, 72, 118
3, 319484, Note_off_c, 1, 72, 100
3, 319488, Note_on_c, 1, 76, 118
3, 319676, Note_off_c, 1, 76, 100
3, 319680, Note_on_c, 1, 74, 118
3, 319868, Note_off_c, 1, 74, 100
3, 319872, Note_on_c, 1, 72, 118
3, 320060, Note_off_c, 1, 72, 100
3, 320064, Note_on_c, 1, 76, 119
3, 320252, Note_off_c, 1, 76, 100
3, 320256, Note_on_c, 1, 74, 119
3, 320444, Note_off_c, 1, 74, 100
3, 320448, Note_on_c, 1, 72, 119
3, 320636, Note_off_c, 1, 72, 100
3, 320640, Note_on_c, 1, 65, 120
3, 320640, Note_on_c, 1, 69, 120
3, 320640, Note_on_c, 1, 72, 120
3, 321404, Note_off_c, 1, 65, 100
3, 321404, Note_off_c, 1, 69, 100
3, 321404, Note_off_c, 1, 72, 100
3, 321792, Note_on_c, 1, 66, 120
3, 321792, Note_on_c, 1, 69, 120
3, 321792, Note_on_c, 1, 72, 120
3, 322556, Note_off_c, 1, 66, 100
3, 322556, Note_off_c, 1, 69, 100
3, 322556, Note_off_c, 1, 72, 100
3, 322944, Note_on_c, 1, 55, 120
3, 322944, Note_on_c, 1, 60, 120
3, 322944, Note_on_c, 1, 64, 120
3, 322944, Note_on_c, 1, 67, 120
3, 323324, Note_off_c, 1, 55, 100
3, 323324, Note_off_c, 1, 60, 100
3, 323324, Note_off_c, 1, 64, 100
3, 323324, Note_off_c, 1, 67, 100
3, 327936, Note_on_c, 1, 55, 80
3, 327984, Note_on_c, 1, 57, 80
3, 328028, Note_off_c, 1, 55, 100
3, 328032, Note_on_c, 1, 59, 80
3, 328076, Note_off_c, 1, 57, 100
3, 328080, Note_on_c, 1, 60, 80
3, 328124, Note_off_c, 1, 59, 100
3, 328128, Note_on_c, 1, 62, 80
3, 328172, Note_off_c, 1, 60, 100
3, 328316, Note_off_c, 1, 62, 100
3, 328320, Note_on_c, 1, 64, 80
3, 328508, Note_off_c, 1, 64, 100
3, 328512, Note_on_c, 1, 66, 80
3, 328700, Note_off_c, 1, 66, 100
3, 328704, Note_on_c, 1, 67, 80
3, 328892, Note_off_c, 1, 67, 100
3, 328896, Note_on_c, 1, 69, 80
3, 329084, Note_off_c, 1, 69, 100
3, 329088, Note_on_c, 1, 71, 80
3, 329276, Note_off_c, 1, 71, 100
3, 329280, Note_on_c, 1, 72, 80
3, 329468, Note_off_c, 1, 72, 100
3, 329472, Note_on_c, 1, 74, 80
3, 329660, Note_off_c, 1, 74, 100
3, 329664, Note_on_c, 1, 76, 80
3, 329852, Note_off_c, 1, 76, 100
3, 329856, Note_on_c, 1, 77, 80
3, 330044, Note_off_c, 1, 77, 100
3, 330048, Note_on_c, 1, 79, 80
3, 330236, Note_off_c, 1, 79, 100
3, 330240, Note_on_c, 1, 76, 80
3, 330428, Note_off_c, 1, 76, 100
3, 330432, Note_on_c, 1, 77, 80
3, 330620, Note_off_c, 1, 77, 100
3, 330624, Note_on_c, 1, 79, 80
3, 330812, Note_off_c, 1, 79, 100
3, 330816, Note_on_c, 1, 76, 80
3, 331004, Note_off_c, 1, 76, 100
3, 331008, Note_on_c, 1, 77, 80
3, 331196, Note_off_c, 1, 77, 100
3, 331200, Note_on_c, 1, 79, 80
3, 331388, Note_off_c, 1, 79, 100
3, 331392, Note_on_c, 1, 76, 80
3, 331580, Note_off_c, 1, 76, 100
3, 331584, Note_on_c, 1, 77, 80
3, 331772, Note_off_c, 1, 77, 100
3, 331776, Note_on_c, 1, 79, 80
3, 331964, Note_off_c, 1, 79, 100
3, 331968, Note_on_c, 1, 76, 80
3, 332156, Note_off_c, 1, 76, 100
3, 332160, Note_on_c, 1, 77, 80
3, 332208, Note_on_c, 1, 79, 80
3, 332252, Note_off_c, 1, 77, 100
3, 332256, Note_on_c, 1, 77, 80
3, 332300, Note_off_c, 1, 79, 100
3, 332304, Note_on_c, 1, 79, 80
3, 332348, Note_off_c, 1, 77, 100
3, 332352, Note_on_c, 1, 77, 80
3, 332396, Note_off_c, 1, 79, 100
3, 332400, Note_on_c, 1, 79, 80
3, 332444, Note_off_c, 1, 77, 100
3, 332448, Note_on_c, 1, 77, 80
3, 332492, Note_off_c, 1, 79, 100
3, 332496, Note_on_c, 1, 79, 80
3, 332540, Note_off_c, 1, 77, 100
3, 332544, Note_on_c, 1, 77, 80
3, 332588, Note_off_c, 1, 79, 100
3, 332592, Note_on_c, 1, 79, 80
3, 332636, Note_off_c, 1, 77, 100
3, 332640, Note_on_c, 1, 77, 80
3, 332684, Note_off_c, 1, 79, 100
3, 332688, Note_on_c, 1, 79, 80
3, 332732, Note_off_c, 1, 77, 100
3, 332736, Note_on_c, 1, 77, 80
3, 332780, Note_off_c, 1, 79, 100
3, 332784, Note_on_c, 1, 79, 80
3, 332828, Note_off_c, 1, 77, 100
3, 332832, Note_on_c, 1, 77, 80
3, 332876, Note_off_c, 1, 79, 100
3, 332880, Note_on_c, 1, 79, 80
3, 332924, Note_off_c, 1, 77, 100
3, 332928, Note_on_c, 1, 77, 80
3, 332972, Note_off_c, 1, 79, 100
3, 332976, Note_on_c, 1, 79, 80
3, 333020, Note_off_c, 1, 77, 100
3, 333024, Note_on_c, 1, 77, 80
3, 333068, Note_off_c, 1, 79, 100
3, 333072, Note_on_c, 1, 79, 80
3, 333116, Note_off_c, 1, 77, 100
3, 333120, Note_on_c, 1, 77, 80
3, 333164, Note_off_c, 1, 79, 100
3, 333168, Note_on_c, 1, 79, 80
3, 333212, Note_off_c, 1, 77, 100
3, 333216, Note_on_c, 1, 77, 80
3, 333260, Note_off_c, 1, 79, 100
3, 333264, Note_on_c, 1, 79, 80
3, 333308, Note_off_c, 1, 77, 100
3, 333312, Note_on_c, 1, 77, 80
3, 333356, Note_off_c, 1, 79, 100
3, 333360, Note_on_c, 1, 79, 80
3, 333404, Note_off_c, 1, 77, 100
3, 333408, Note_on_c, 1, 77, 80
3, 333452, Note_off_c, 1, 79, 100
3, 333456, Note_on_c, 1, 79, 80
3, 333500, Note_off_c, 1, 77, 100
3, 333504, Note_on_c, 1, 77, 80
3, 333548, Note_off_c, 1, 79, 100
3, 333552, Note_on_c, 1, 79, 80
3, 333596, Note_off_c, 1, 77, 100
3, 333600, Note_on_c, 1, 77, 80
3, 333644, Note_off_c, 1, 79, 100
3, 333648, Note_on_c, 1, 79, 80
3, 333692, Note_off_c, 1, 77, 100
3, 333696, Note_on_c, 1, 77, 80
3, 333740, Note_off_c, 1, 79, 100
3, 333744, Note_on_c, 1, 79, 80
3, 333788, Note_off_c, 1, 77, 100
3, 333792, Note_on_c, 1, 77, 80
3, 333836, Note_off_c, 1, 79, 100
3, 333840, Note_on_c, 1, 79, 80
3, 333884, Note_off_c, 1, 77, 100
3, 333888, Note_on_c, 1, 77, 80
3, 333932, Note_off_c, 1, 79, 100
3, 333936, Note_on_c, 1, 79, 80
3, 333980, Note_off_c, 1, 77, 100
3, 333984, Note_on_c, 1, 77, 80
3, 334028, Note_off_c, 1, 79, 100
3, 334032, Note_on_c, 1, 79, 80
3, 334076, Note_off_c, 1, 77, 100
3, 334080, Note_on_c, 1, 77, 80
3, 334124, Note_off_c, 1, 79, 100
3, 334128, Note_on_c, 1, 79, 80
3, 334172, Note_off_c, 1, 77, 100
3, 334176, Note_on_c, 1, 77, 80
3, 334220, Note_off_c, 1, 79, 100
3, 334224, Note_on_c, 1, 79, 80
3, 334268, Note_off_c, 1, 77, 100
3, 334272, Note_on_c, 1, 77, 80
3, 334316, Note_off_c, 1, 79, 100
3, 334320, Note_on_c, 1, 79, 80
3, 334364, Note_off_c, 1, 77, 100
3, 334368, Note_on_c, 1, 77, 80
3, 334412, Note_off_c, 1, 79, 100
3, 334416, Note_on_c, 1, 79, 80
3, 334460, Note_off_c, 1, 77, 100
3, 334464, Note_on_c, 1, 77, 80
3, 334508, Note_off_c, 1, 79, 100
3, 334512, Note_on_c, 1, 79, 80
3, 334556, Note_off_c, 1, 77, 100
3, 334560, Note_on_c, 1, 77, 80
3, 334604, Note_off_c, 1, 79, 100
3, 334608, Note_on_c, 1, 79, 80
3, 334652, Note_off_c, 1, 77, 100
3, 334656, Note_on_c, 1, 77, 80
3, 334700, Note_off_c, 1, 79, 100
3, 334704, Note_on_c, 1, 79, 80
3, 334748, Note_off_c, 1, 77, 100
3, 334752, Note_on_c, 1, 77, 80
3, 334796, Note_off_c, 1, 79, 100
3, 334800, Note_on_c, 1, 79, 80
3, 334844, Note_off_c, 1, 77, 100
3, 334848, Note_on_c, 1, 77, 80
3, 334892, Note_off_c, 1, 79, 100
3, 334896, Note_on_c, 1, 79, 80
3, 334940, Note_off_c, 1, 77, 100
3, 334944, Note_on_c, 1, 77, 80
3, 334988, Note_off_c, 1, 79, 100
3, 334992, Note_on_c, 1, 79, 80
3, 335036, Note_off_c, 1, 77, 100
3, 335040, Note_on_c, 1, 77, 80
3, 335084, Note_off_c, 1, 79, 100
3, 335088, Note_on_c, 1, 79, 80
3, 335132, Note_off_c, 1, 77, 100
3, 335136, Note_on_c, 1, 77, 80
3, 335180, Note_off_c, 1, 79, 100
3, 335184, Note_on_c, 1, 79, 80
3, 335228, Note_off_c, 1, 77, 100
3, 335232, Note_on_c, 1, 77, 80
3, 335276, Note_off_c, 1, 79, 100
3, 335280, Note_on_c, 1, 79, 80
3, 335324, Note_off_c, 1, 77, 100
3, 335328, Note_on_c, 1, 77, 80
3, 335372, Note_off_c, 1, 79, 100
3, 335376, Note_on_c, 1, 79, 80
3, 335420, Note_off_c, 1, 77, 100
3, 335424, Note_on_c, 1, 77, 80
3, 335468, Note_off_c, 1, 79, 100
3, 335472, Note_on_c, 1, 79, 80
3, 335516, Note_off_c, 1, 77, 100
3, 335520, Note_on_c, 1, 77, 80
3, 335564, Note_off_c, 1, 79, 100
3, 335568, Note_on_c, 1, 79, 80
3, 335612, Note_off_c, 1, 77, 100
3, 335616, Note_on_c, 1, 77, 80
3, 335660, Note_off_c, 1, 79, 100
3, 335664, Note_on_c, 1, 79, 80
3, 335708, Note_off_c, 1, 77, 100
3, 335712, Note_on_c, 1, 77, 80
3, 335756, Note_off_c, 1, 79, 100
3, 335760, Note_on_c, 1, 79, 80
3, 335804, Note_off_c, 1, 77, 100
3, 335808, Note_on_c, 1, 77, 80
3, 335852, Note_off_c, 1, 79, 100
3, 335856, Note_on_c, 1, 79, 80
3, 335900, Note_off_c, 1, 77, 100
3, 335904, Note_on_c, 1, 77, 80
3, 335948, Note_off_c, 1, 79, 100
3, 335952, Note_on_c, 1, 79, 80
3, 335996, Note_off_c, 1, 77, 100
3, 336000, Note_on_c, 1, 77, 80
3, 336044, Note_off_c, 1, 79, 100
3, 336048, Note_on_c, 1, 79, 80
3, 336092, Note_off_c, 1, 77, 100
3, 336096, Note_on_c, 1, 77, 80
3, 336140, Note_off_c, 1, 79, 100
3, 336144, Note_on_c, 1, 79, 80
3, 336188, Note_off_c, 1, 77, 100
3, 336192, Note_on_c, 1, 77, 80
3, 336236, Note_off_c, 1, 79, 100
3, 336240, Note_on_c, 1, 79, 80
3, 336284, Note_off_c, 1, 77, 100
3, 336288, Note_on_c, 1, 77, 80
3, 336332, Note_off_c, 1, 79, 100
3, 336336, Note_on_c, 1, 79, 80
3, 336380, Note_off_c, 1, 77, 100
3, 336384, Note_on_c, 1, 77, 80
3, 336428, Note_off_c, 1, 79, 100
3, 336432, Note_on_c, 1, 79, 80
3, 336476, Note_off_c, 1, 77, 100
3, 336480, Note_on_c, 1, 77, 80
3, 336524, Note_off_c, 1, 79, 100
3, 336528, Note_on_c, 1, 79, 80
3, 336572, Note_off_c, 1, 77, 100
3, 336576, Note_on_c, 1, 77, 80
3, 336620, Note_off_c, 1, 79, 100
3, 336624, Note_on_c, 1, 79, 80
3, 336668, Note_off_c, 1, 77, 100
3, 336672, Note_on_c, 1, 77, 80
3, 336716, Note_off_c, 1, 79, 100
3, 336720, Note_on_c, 1, 79, 80
3, 336764, Note_off_c, 1, 77, 100
3, 336812, Note_off_c, 1, 79, 100
3, 343680, Note_on_c, 1, 45, 80
3, 343868, Note_off_c, 1, 45, 100
3, 343872, Note_on_c, 1, 44, 80
3, 344060, Note_off_c, 1, 44, 100
3, 344064, Note_on_c, 1, 45, 80
3, 344252, Note_off_c, 1, 45, 100
3, 344256, Note_on_c, 1, 47, 80
3, 344444, Note_off_c, 1, 47, 100
3, 344448, Note_on_c, 1, 49, 80
3, 344636, Note_off_c, 1, 49, 100
3, 344640, Note_on_c, 1, 50, 79
3, 344828, Note_off_c, 1, 50, 100
3, 344832, Note_on_c, 1, 52, 79
3, 345020, Note_off_c, 1, 52, 100
3, 345024, Note_on_c, 1, 54, 79
3, 345212, Note_off_c, 1, 54, 100
3, 345216, Note_on_c, 1, 56, 79
3, 345404, Note_off_c, 1, 56, 100
3, 345408, Note_on_c, 1, 57, 79
3, 345596, Note_off_c, 1, 57, 100
3, 345600, Note_on_c, 1, 59, 78
3, 345788, Note_off_c, 1, 59, 100
3, 345792, Note_on_c, 1, 61, 78
3, 345980, Note_off_c, 1, 61, 100
3, 345984, Note_on_c, 1, 62, 78
3, 346364, Note_off_c, 1, 62, 100
3, 346368, Note_on_c, 1, 61, 78
3, 346556, Note_off_c, 1, 61, 100
3, 346560, Note_on_c, 1, 62, 77
3, 346940, Note_off_c, 1, 62, 100
3, 346944, Note_on_c, 1, 61, 77
3, 347132, Note_off_c, 1, 61, 100
3, 347136, Note_on_c, 1, 62, 77
3, 348284, Note_off_c, 1, 62, 100
3, 349440, Note_on_c, 1, 57, 74
3, 349628, Note_off_c, 1, 57, 100
3, 349632, Note_on_c, 1, 56, 74
3, 349820, Note_off_c, 1, 56, 100
3, 349824, Note_on_c, 1, 57, 74
3, 350012, Note_off_c, 1, 57, 100
3, 350016, Note_on_c, 1, 59, 74
3, 350204, Note_off_c, 1, 59, 100
3, 350208, Note_on_c, 1, 60, 73
3, 350396, Note_off_c, 1, 60, 100
3, 350400, Note_on_c, 1, 62, 73
3, 350588, Note_off_c, 1, 62, 100
3, 350592, Note_on_c, 1, 64, 73
3, 350780, Note_off_c, 1, 64, 100
3, 350784, Note_on_c, 1, 66, 73
3, 350972, Note_off_c, 1, 66, 100
3, 350976, Note_on_c, 1, 68, 73
3, 351164, Note_off_c, 1, 68, 100
3, 351168, Note_on_c, 1, 69, 72
3, 351356, Note_off_c, 1, 69, 100
3, 351360, Note_on_c, 1, 71, 72
3, 351548, Note_off_c, 1, 71, 100
3, 351552, Note_on_c, 1, 72, 72
3, 351740, Note_off_c, 1, 72, 100
3, 351744, Note_on_c, 1, 74, 72
3, 352124, Note_off_c, 1, 74, 100
3, 352128, Note_on_c, 1, 76, 71
3, 352316, Note_off_c, 1, 76, 100
3, 352320, Note_on_c, 1, 74, 71
3, 352700, Note_off_c, 1, 74, 100
3, 352704, Note_on_c, 1, 76, 71
3, 352892, Note_off_c, 1, 76, 100
3, 352896, Note_on_c, 1, 74, 71
3, 354044, Note_off_c, 1, 74, 100
3, 355200, Note_on_c, 1, 43, 120
3, 355200, Note_on_c, 1, 31, 120
3, 355388, Note_off_c, 1, 43, 100
3, 355388, Note_off_c, 1, 31, 100
3, 355392, Note_on_c, 1, 42, 120
3, 355392, Note_on_c, 1, 30, 120
3, 355580, Note_off_c, 1, 42, 100
3, 355580, Note_off_c, 1, 30, 100
3, 355584, Note_on_c, 1, 43, 120
3, 355584, Note_on_c, 1, 31, 120
3, 355772, Note_off_c, 1, 43, 100
3, 355772, Note_off_c, 1, 31, 100
3, 355776, Note_on_c, 1, 45, 120
3, 355776, Note_on_c, 1, 33, 120
3, 355964, Note_off_c, 1, 45, 100
3, 355964, Note_off_c, 1, 33, 100
3, 355968, Note_on_c, 1, 47, 120
3, 355968, Note_on_c, 1, 35, 120
3, 356156, Note_off_c, 1, 47, 100
3, 356156, Note_off_c, 1, 35, 100
3, 356160, Note_on_c, 1, 48, 120
3, 356160, Note_on_c, 1, 36, 120
3, 356348, Note_off_c, 1, 48, 100
3, 356348, Note_off_c, 1, 36, 100
3, 356352, Note_on_c, 1, 50, 120
3, 356352, Note_on_c, 1, 38, 120
3, 356540, Note_off_c, 1, 50, 100
3, 356540, Note_off_c, 1, 38, 100
3, 356544, Note_on_c, 1, 52, 120
3, 356544, Note_on_c, 1, 40, 120
3, 356732, Note_off_c, 1, 52, 100
3, 356732, Note_off_c, 1, 40, 100
3, 356736, Note_on_c, 1, 53, 120
3, 356736, Note_on_c, 1, 41, 120
3, 356924, Note_off_c, 1, 53, 100
3, 356924, Note_off_c, 1, 41, 100
3, 356928, Note_on_c, 1, 55, 120
3, 356928, Note_on_c, 1, 43, 120
3, 357116, Note_off_c, 1, 55, 100
3, 357116, Note_off_c, 1, 43, 100
3, 357120, Note_on_c, 1, 57, 120
3, 357120, Note_on_c, 1, 45, 120
3, 357308, Note_off_c, 1, 57, 100
3, 357308, Note_off_c, 1, 45, 100
3, 357312, Note_on_c, 1, 59, 120
3, 357312, Note_on_c, 1, 47, 120
3, 357500, Note_off_c, 1, 59, 100
3, 357500, Note_off_c, 1, 47, 100
3, 357504, Note_on_c, 1, 60, 120
3, 357504, Note_on_c, 1, 48, 120
3, 358268, Note_off_c, 1, 60, 100
3, 358268, Note_off_c, 1, 48, 100
3, 360960, Note_on_c, 1, 43, 120
3, 360960, Note_on_c, 1, 31, 120
3, 361340, Note_off_c, 1, 43, 100
3, 361340, Note_off_c, 1, 31, 100
3, 362112, Note_on_c, 1, 48, 120
3, 362112, Note_on_c, 1, 36, 120
3, 362876, Note_off_c, 1, 48, 100
3, 362876, Note_off_c, 1, 36, 100
3, 362876, End_track
0, 0, End_of_file
