0, 0, Header, 1, 3, 384
1, 0, Start_track
1, 0, Title_t, "L.v.Beethoven 1mov - Piano Sonata No.3 in C Major Op.2-3\000"
1, 0, Copyright_t, "Copyright(C) 1995-2009, Suzuki Software\000"
1, 0, Sequencer_specific, 9, 67, 123, 0, 88, 70, 48, 50, 0, 1
1, 0, Text_t, "XFhd:2000/03/11:JP:Classical::::L.v.Beethoven:::Kaoru Suzuki\000"
1, 0, Text_t, "XFln:JP:\203s\203A\203m\203\\\203i\203^\221æ3\224Ô\203n\222·\222²\215ì\225i2-3\201`\221æ1\212y\217Í:L.v.\203x\201[\203g\201[\203\224\203F\203\223:::\227é\202¿\202á\202ñ:\227é\202¿\202á\202ñ\000"
1, 0, Time_signature, 4, 2, 96, 8
1, 0, Sequencer_specific, 3, 0, 0, 65
1, 0, Sequencer_specific, 5, 0, 0, 119, 14, 0
1, 0, Tempo, 400000
1, 67968, Tempo, 413793
1, 68352, Tempo, 422535
1, 68736, Tempo, 431654
1, 69120, Tempo, 441176
1, 69504, Tempo, 451127
1, 69888, Tempo, 461538
1, 70272, Tempo, 472440
1, 70656, Tempo, 428571
1, 90624, Tempo, 413793
1, 92160, Tempo, 400000
1, 116736, Tempo, 428571
1, 124416, Tempo, 413793
1, 125952, Tempo, 400000
1, 135168, Tempo, 461538
1, 138240, Tempo, 400000
1, 206208, Tempo, 410958
1, 206592, Tempo, 422535
1, 206976, Tempo, 434782
1, 207360, Tempo, 447761
1, 207744, Tempo, 461538
1, 208128, Tempo, 476190
1, 208512, Tempo, 500000
1, 208896, Tempo, 428571
1, 228864, Tempo, 413793
1, 230400, Tempo, 400000
1, 253440, Tempo, 428571
1, 261888, Tempo, 413793
1, 267264, Tempo, 400000
1, 301440, Tempo, 410958
1, 301824, Tempo, 422535
1, 302208, Tempo, 434782
1, 302592, Tempo, 447761
1, 302976, Tempo, 461538
1, 303360, Tempo, 476190
1, 303744, Tempo, 491803
1, 304128, Tempo, 428571
1, 310272, Tempo, 400000
1, 349440, Tempo, 461538
1, 349824, Tempo, 545454
1, 350208, Tempo, 400000
1, 412032, Tempo, 410958
1, 412416, Tempo, 422535
1, 412800, Tempo, 434782
1, 413184, Tempo, 447761
1, 413568, Tempo, 461538
1, 413952, Tempo, 476190
1, 414336, Tempo, 491803
1, 414720, Tempo, 444444
1, 415488, Tempo, 422535
1, 434688, Tempo, 410958
1, 436224, Tempo, 400000
1, 459264, Tempo, 413793
1, 460800, Tempo, 428571
1, 466944, Tempo, 413793
1, 468480, Tempo, 400000
1, 493824, Tempo, 333333
1, 506880, Tempo, 400000
1, 529920, Tempo, 428571
1, 531456, Tempo, 461538
1, 532992, Tempo, 600000
1, 534528, Tempo, 428571
1, 540672, Tempo, 400000
1, 546048, Tempo, 428571
1, 546816, Tempo, 461538
1, 547584, Tempo, 600000
1, 547584, End_track
2, 0, Start_track
2, 0, Title_t, "Right"
2, 0, Control_c, 0, 0, 0
2, 0, Program_c, 0, 0
2, 0, Control_c, 0, 7, 100
2, 0, Control_c, 0, 10, 78
2, 0, Control_c, 0, 91, 127
2, 0, Key_signature, 0, "major"
2, 0, Note_on_c, 0, 64, 80
2, 0, Note_on_c, 0, 60, 80
2, 764, Note_off_c, 0, 64, 100
2, 764, Note_off_c, 0, 60, 100
2, 768, Note_on_c, 0, 62, 80
2, 768, Note_on_c, 0, 59, 80
2, 860, Note_off_c, 0, 62, 100
2, 860, Note_off_c, 0, 59, 100
2, 864, Note_on_c, 0, 64, 80
2, 864, Note_on_c, 0, 60, 80
2, 956, Note_off_c, 0, 64, 100
2, 956, Note_off_c, 0, 60, 100
2, 960, Note_on_c, 0, 62, 80
2, 960, Note_on_c, 0, 59, 80
2, 1052, Note_off_c, 0, 62, 100
2, 1052, Note_off_c, 0, 59, 100
2, 1056, Note_on_c, 0, 64, 80
2, 1056, Note_on_c, 0, 60, 80
2, 1148, Note_off_c, 0, 64, 100
2, 1148, Note_off_c, 0, 60, 100
2, 1152, Note_on_c, 0, 65, 80
2, 1152, Note_on_c, 0, 62, 80
2, 1340, Note_off_c, 0, 65, 100
2, 1340, Note_off_c, 0, 62, 100
2, 1344, Note_on_c, 0, 64, 80
2, 1344, Note_on_c, 0, 60, 80
2, 1532, Note_off_c, 0, 64, 100
2, 1532, Note_off_c, 0, 60, 100
2, 1536, Note_on_c, 0, 62, 80
2, 1536, Note_on_c, 0, 59, 80
2, 1916, Note_off_c, 0, 62, 100
2, 1916, Note_off_c, 0, 59, 100
2, 1920, Note_on_c, 0, 59, 80
2, 1920, Note_on_c, 0, 67, 80
2, 2300, Note_off_c, 0, 59, 100
2, 2300, Note_off_c, 0, 67, 100
2, 3072, Note_on_c, 0, 65, 80
2, 3072, Note_on_c, 0, 62, 80
2, 3836, Note_off_c, 0, 65, 100
2, 3836, Note_off_c, 0, 62, 100
2, 3840, Note_on_c, 0, 61, 80
2, 3840, Note_on_c, 0, 64, 80
2, 3932, Note_off_c, 0, 61, 100
2, 3932, Note_off_c, 0, 64, 100
2, 3936, Note_on_c, 0, 62, 80
2, 3936, Note_on_c, 0, 65, 80
2, 4028, Note_off_c, 0, 62, 100
2, 4028, Note_off_c, 0, 65, 100
2, 4032, Note_on_c, 0, 61, 80
2, 4032, Note_on_c, 0, 64, 80
2, 4124, Note_off_c, 0, 61, 100
2, 4124, Note_off_c, 0, 64, 100
2, 4128, Note_on_c, 0, 62, 80
2, 4128, Note_on_c, 0, 65, 80
2, 4220, Note_off_c, 0, 62, 100
2, 4220, Note_off_c, 0, 65, 100
2, 4224, Note_on_c, 0, 67, 80
2, 4224, Note_on_c, 0, 64, 80
2, 4412, Note_off_c, 0, 67, 100
2, 4412, Note_off_c, 0, 64, 100
2, 4416, Note_on_c, 0, 65, 80
2, 4416, Note_on_c, 0, 62, 80
2, 4604, Note_off_c, 0, 65, 100
2, 4604, Note_off_c, 0, 62, 100
2, 4608, Note_on_c, 0, 64, 80
2, 4608, Note_on_c, 0, 60, 80
2, 4988, Note_off_c, 0, 64, 100
2, 4988, Note_off_c, 0, 60, 100
2, 4992, Note_on_c, 0, 64, 80
2, 4992, Note_on_c, 0, 72, 80
2, 5372, Note_off_c, 0, 64, 100
2, 5372, Note_off_c, 0, 72, 100
2, 6144, Note_on_c, 0, 72, 80
2, 6144, Note_on_c, 0, 64, 80
2, 6908, Note_off_c, 0, 72, 100
2, 6908, Note_off_c, 0, 64, 100
2, 6912, Note_on_c, 0, 65, 80
2, 6912, Note_on_c, 0, 71, 80
2, 7004, Note_off_c, 0, 71, 100
2, 7008, Note_on_c, 0, 72, 80
2, 7100, Note_off_c, 0, 72, 100
2, 7104, Note_on_c, 0, 71, 80
2, 7196, Note_off_c, 0, 71, 100
2, 7200, Note_on_c, 0, 72, 80
2, 7292, Note_off_c, 0, 72, 100
2, 7296, Note_on_c, 0, 74, 80
2, 7484, Note_off_c, 0, 74, 100
2, 7488, Note_on_c, 0, 71, 80
2, 7676, Note_off_c, 0, 65, 100
2, 7676, Note_off_c, 0, 71, 100
2, 7680, Note_on_c, 0, 67, 80
2, 8060, Note_off_c, 0, 67, 100
2, 8064, Note_on_c, 0, 72, 80
2, 8064, Note_on_c, 0, 64, 80
2, 8444, Note_off_c, 0, 72, 100
2, 8444, Note_off_c, 0, 64, 100
2, 8448, Note_on_c, 0, 65, 80
2, 8448, Note_on_c, 0, 71, 80
2, 8540, Note_off_c, 0, 71, 100
2, 8544, Note_on_c, 0, 72, 80
2, 8636, Note_off_c, 0, 72, 100
2, 8640, Note_on_c, 0, 71, 80
2, 8732, Note_off_c, 0, 71, 100
2, 8736, Note_on_c, 0, 72, 80
2, 8828, Note_off_c, 0, 72, 100
2, 8832, Note_on_c, 0, 74, 80
2, 9020, Note_off_c, 0, 74, 100
2, 9024, Note_on_c, 0, 71, 80
2, 9212, Note_off_c, 0, 65, 100
2, 9212, Note_off_c, 0, 71, 100
2, 9216, Note_on_c, 0, 67, 80
2, 9596, Note_off_c, 0, 67, 100
2, 9600, Note_on_c, 0, 72, 80
2, 9980, Note_off_c, 0, 72, 100
2, 9984, Note_on_c, 0, 62, 80
2, 9984, Note_on_c, 0, 60, 80
2, 10364, Note_off_c, 0, 62, 100
2, 10368, Note_on_c, 0, 69, 80
2, 10748, Note_off_c, 0, 60, 100
2, 10748, Note_off_c, 0, 69, 100
2, 10752, Note_on_c, 0, 62, 80
2, 10752, Note_on_c, 0, 59, 80
2, 11132, Note_off_c, 0, 62, 100
2, 11136, Note_on_c, 0, 67, 80
2, 11516, Note_off_c, 0, 59, 100
2, 11516, Note_off_c, 0, 67, 100
2, 11520, Note_on_c, 0, 64, 80
2, 11520, Note_on_c, 0, 60, 80
2, 11900, Note_off_c, 0, 64, 100
2, 11900, Note_off_c, 0, 60, 100
2, 12672, Note_on_c, 0, 55, 104
2, 12672, Note_on_c, 0, 64, 80
2, 12672, Note_on_c, 0, 67, 80
2, 13052, Note_off_c, 0, 64, 100
2, 13056, Note_on_c, 0, 62, 80
2, 13436, Note_off_c, 0, 67, 100
2, 13436, Note_off_c, 0, 62, 100
2, 13440, Note_on_c, 0, 62, 80
2, 13440, Note_on_c, 0, 65, 80
2, 13820, Note_off_c, 0, 55, 100
2, 13820, Note_off_c, 0, 62, 100
2, 13820, Note_off_c, 0, 65, 100
2, 13824, Note_on_c, 0, 60, 80
2, 13824, Note_on_c, 0, 64, 80
2, 14204, Note_off_c, 0, 60, 100
2, 14204, Note_off_c, 0, 64, 100
2, 14208, Note_on_c, 0, 55, 104
2, 14208, Note_on_c, 0, 64, 80
2, 14208, Note_on_c, 0, 67, 80
2, 14588, Note_off_c, 0, 64, 100
2, 14592, Note_on_c, 0, 62, 80
2, 14972, Note_off_c, 0, 67, 100
2, 14972, Note_off_c, 0, 62, 100
2, 14976, Note_on_c, 0, 62, 80
2, 14976, Note_on_c, 0, 65, 80
2, 15356, Note_off_c, 0, 55, 100
2, 15356, Note_off_c, 0, 62, 100
2, 15356, Note_off_c, 0, 65, 100
2, 15360, Note_on_c, 0, 64, 80
2, 15360, Note_on_c, 0, 60, 80
2, 15360, Note_on_c, 0, 55, 80
2, 15740, Note_off_c, 0, 64, 100
2, 15740, Note_off_c, 0, 60, 100
2, 15740, Note_off_c, 0, 55, 100
2, 16128, Note_on_c, 0, 69, 83
2, 16128, Note_on_c, 0, 64, 83
2, 16128, Note_on_c, 0, 60, 83
2, 16128, Note_on_c, 0, 57, 83
2, 16508, Note_off_c, 0, 69, 100
2, 16508, Note_off_c, 0, 64, 100
2, 16508, Note_off_c, 0, 60, 100
2, 16508, Note_off_c, 0, 57, 100
2, 16896, Note_on_c, 0, 67, 89
2, 16896, Note_on_c, 0, 64, 89
2, 16896, Note_on_c, 0, 60, 89
2, 16896, Note_on_c, 0, 55, 89
2, 17276, Note_off_c, 0, 67, 100
2, 17276, Note_off_c, 0, 64, 100
2, 17276, Note_off_c, 0, 60, 100
2, 17276, Note_off_c, 0, 55, 100
2, 17664, Note_on_c, 0, 59, 96
2, 17664, Note_on_c, 0, 55, 96
2, 17664, Note_on_c, 0, 53, 96
2, 17664, Note_on_c, 0, 50, 96
2, 18044, Note_off_c, 0, 59, 100
2, 18044, Note_off_c, 0, 55, 100
2, 18044, Note_off_c, 0, 53, 100
2, 18044, Note_off_c, 0, 50, 100
2, 18432, Note_on_c, 0, 60, 110
2, 18524, Note_off_c, 0, 60, 100
2, 18528, Note_on_c, 0, 64, 110
2, 18620, Note_off_c, 0, 64, 100
2, 18624, Note_on_c, 0, 67, 110
2, 18716, Note_off_c, 0, 67, 100
2, 18720, Note_on_c, 0, 72, 110
2, 18812, Note_off_c, 0, 72, 100
2, 18816, Note_on_c, 0, 64, 110
2, 18816, Note_on_c, 0, 60, 110
2, 18908, Note_off_c, 0, 64, 100
2, 18912, Note_on_c, 0, 76, 110
2, 19004, Note_off_c, 0, 60, 100
2, 19004, Note_off_c, 0, 76, 100
2, 19008, Note_on_c, 0, 64, 110
2, 19008, Note_on_c, 0, 60, 110
2, 19100, Note_off_c, 0, 64, 100
2, 19104, Note_on_c, 0, 76, 110
2, 19196, Note_off_c, 0, 60, 100
2, 19196, Note_off_c, 0, 76, 100
2, 19200, Note_on_c, 0, 64, 110
2, 19200, Note_on_c, 0, 60, 110
2, 19292, Note_off_c, 0, 64, 100
2, 19296, Note_on_c, 0, 67, 110
2, 19388, Note_off_c, 0, 67, 100
2, 19392, Note_on_c, 0, 72, 110
2, 19484, Note_off_c, 0, 72, 100
2, 19488, Note_on_c, 0, 76, 110
2, 19580, Note_off_c, 0, 60, 100
2, 19580, Note_off_c, 0, 76, 100
2, 19584, Note_on_c, 0, 67, 110
2, 19584, Note_on_c, 0, 64, 110
2, 19676, Note_off_c, 0, 67, 100
2, 19680, Note_on_c, 0, 79, 110
2, 19772, Note_off_c, 0, 64, 100
2, 19772, Note_off_c, 0, 79, 100
2, 19776, Note_on_c, 0, 67, 110
2, 19776, Note_on_c, 0, 64, 110
2, 19868, Note_off_c, 0, 67, 100
2, 19872, Note_on_c, 0, 79, 110
2, 19964, Note_off_c, 0, 64, 100
2, 19964, Note_off_c, 0, 79, 100
2, 19968, Note_on_c, 0, 64, 110
2, 19968, Note_on_c, 0, 67, 110
2, 20060, Note_off_c, 0, 67, 100
2, 20064, Note_on_c, 0, 72, 110
2, 20156, Note_off_c, 0, 72, 100
2, 20160, Note_on_c, 0, 76, 110
2, 20252, Note_off_c, 0, 76, 100
2, 20256, Note_on_c, 0, 79, 110
2, 20348, Note_off_c, 0, 64, 100
2, 20348, Note_off_c, 0, 79, 100
2, 20352, Note_on_c, 0, 67, 110
2, 20352, Note_on_c, 0, 72, 110
2, 20444, Note_off_c, 0, 72, 100
2, 20448, Note_on_c, 0, 84, 110
2, 20540, Note_off_c, 0, 67, 100
2, 20540, Note_off_c, 0, 84, 100
2, 20544, Note_on_c, 0, 67, 110
2, 20544, Note_on_c, 0, 72, 110
2, 20636, Note_off_c, 0, 72, 100
2, 20640, Note_on_c, 0, 84, 110
2, 20732, Note_off_c, 0, 67, 100
2, 20732, Note_off_c, 0, 84, 100
2, 20736, Note_on_c, 0, 67, 110
2, 20736, Note_on_c, 0, 72, 110
2, 20828, Note_off_c, 0, 72, 100
2, 20832, Note_on_c, 0, 76, 110
2, 20924, Note_off_c, 0, 76, 100
2, 20928, Note_on_c, 0, 79, 110
2, 21020, Note_off_c, 0, 79, 100
2, 21024, Note_on_c, 0, 84, 110
2, 21116, Note_off_c, 0, 67, 100
2, 21116, Note_off_c, 0, 84, 100
2, 21120, Note_on_c, 0, 72, 110
2, 21120, Note_on_c, 0, 76, 110
2, 21212, Note_off_c, 0, 76, 100
2, 21216, Note_on_c, 0, 88, 110
2, 21308, Note_off_c, 0, 72, 100
2, 21308, Note_off_c, 0, 88, 100
2, 21312, Note_on_c, 0, 72, 110
2, 21312, Note_on_c, 0, 76, 110
2, 21404, Note_off_c, 0, 76, 100
2, 21408, Note_on_c, 0, 88, 110
2, 21500, Note_off_c, 0, 72, 100
2, 21500, Note_off_c, 0, 88, 100
2, 21504, Note_on_c, 0, 76, 110
2, 21504, Note_on_c, 0, 72, 110
2, 21596, Note_off_c, 0, 76, 100
2, 21600, Note_on_c, 0, 88, 110
2, 21692, Note_off_c, 0, 72, 100
2, 21692, Note_off_c, 0, 88, 100
2, 21696, Note_on_c, 0, 74, 110
2, 21696, Note_on_c, 0, 71, 110
2, 21788, Note_off_c, 0, 74, 100
2, 21792, Note_on_c, 0, 86, 110
2, 21884, Note_off_c, 0, 71, 100
2, 21884, Note_off_c, 0, 86, 100
2, 21888, Note_on_c, 0, 74, 110
2, 21888, Note_on_c, 0, 71, 110
2, 21980, Note_off_c, 0, 74, 100
2, 21984, Note_on_c, 0, 86, 110
2, 22076, Note_off_c, 0, 71, 100
2, 22076, Note_off_c, 0, 86, 100
2, 22080, Note_on_c, 0, 72, 110
2, 22080, Note_on_c, 0, 69, 110
2, 22172, Note_off_c, 0, 72, 100
2, 22176, Note_on_c, 0, 84, 110
2, 22268, Note_off_c, 0, 69, 100
2, 22268, Note_off_c, 0, 84, 100
2, 22272, Note_on_c, 0, 72, 110
2, 22272, Note_on_c, 0, 69, 110
2, 22364, Note_off_c, 0, 72, 100
2, 22368, Note_on_c, 0, 84, 110
2, 22460, Note_off_c, 0, 69, 100
2, 22460, Note_off_c, 0, 84, 100
2, 22464, Note_on_c, 0, 71, 110
2, 22464, Note_on_c, 0, 67, 110
2, 22556, Note_off_c, 0, 71, 100
2, 22560, Note_on_c, 0, 83, 110
2, 22652, Note_off_c, 0, 67, 100
2, 22652, Note_off_c, 0, 83, 100
2, 22656, Note_on_c, 0, 71, 110
2, 22656, Note_on_c, 0, 67, 110
2, 22748, Note_off_c, 0, 71, 100
2, 22752, Note_on_c, 0, 83, 110
2, 22844, Note_off_c, 0, 67, 100
2, 22844, Note_off_c, 0, 83, 100
2, 22848, Note_on_c, 0, 69, 110
2, 22848, Note_on_c, 0, 65, 110
2, 22940, Note_off_c, 0, 69, 100
2, 22944, Note_on_c, 0, 81, 110
2, 23036, Note_off_c, 0, 65, 100
2, 23036, Note_off_c, 0, 81, 100
2, 23040, Note_on_c, 0, 69, 110
2, 23040, Note_on_c, 0, 65, 110
2, 23132, Note_off_c, 0, 69, 100
2, 23136, Note_on_c, 0, 81, 110
2, 23228, Note_off_c, 0, 65, 100
2, 23228, Note_off_c, 0, 81, 100
2, 23232, Note_on_c, 0, 67, 110
2, 23232, Note_on_c, 0, 64, 110
2, 23324, Note_off_c, 0, 67, 100
2, 23328, Note_on_c, 0, 79, 110
2, 23420, Note_off_c, 0, 64, 100
2, 23420, Note_off_c, 0, 79, 100
2, 23424, Note_on_c, 0, 67, 110
2, 23424, Note_on_c, 0, 64, 110
2, 23516, Note_off_c, 0, 67, 100
2, 23520, Note_on_c, 0, 79, 110
2, 23612, Note_off_c, 0, 64, 100
2, 23612, Note_off_c, 0, 79, 100
2, 23616, Note_on_c, 0, 65, 110
2, 23616, Note_on_c, 0, 62, 110
2, 23708, Note_off_c, 0, 65, 100
2, 23712, Note_on_c, 0, 77, 110
2, 23804, Note_off_c, 0, 62, 100
2, 23804, Note_off_c, 0, 77, 100
2, 23808, Note_on_c, 0, 65, 110
2, 23808, Note_on_c, 0, 62, 110
2, 23900, Note_off_c, 0, 65, 100
2, 23904, Note_on_c, 0, 77, 110
2, 23996, Note_off_c, 0, 62, 100
2, 23996, Note_off_c, 0, 77, 100
2, 24000, Note_on_c, 0, 64, 110
2, 24000, Note_on_c, 0, 60, 110
2, 24092, Note_off_c, 0, 64, 100
2, 24096, Note_on_c, 0, 76, 110
2, 24188, Note_off_c, 0, 60, 100
2, 24188, Note_off_c, 0, 76, 100
2, 24192, Note_on_c, 0, 64, 110
2, 24192, Note_on_c, 0, 60, 110
2, 24284, Note_off_c, 0, 64, 100
2, 24288, Note_on_c, 0, 76, 110
2, 24380, Note_off_c, 0, 60, 100
2, 24380, Note_off_c, 0, 76, 100
2, 24384, Note_on_c, 0, 62, 110
2, 24384, Note_on_c, 0, 59, 110
2, 24476, Note_off_c, 0, 62, 100
2, 24480, Note_on_c, 0, 74, 110
2, 24572, Note_off_c, 0, 59, 100
2, 24572, Note_off_c, 0, 74, 100
2, 24576, Note_on_c, 0, 60, 110
2, 24668, Note_off_c, 0, 60, 100
2, 24672, Note_on_c, 0, 64, 110
2, 24764, Note_off_c, 0, 64, 100
2, 24768, Note_on_c, 0, 67, 110
2, 24860, Note_off_c, 0, 67, 100
2, 24864, Note_on_c, 0, 72, 110
2, 24956, Note_off_c, 0, 72, 100
2, 24960, Note_on_c, 0, 64, 110
2, 24960, Note_on_c, 0, 60, 110
2, 25052, Note_off_c, 0, 64, 100
2, 25056, Note_on_c, 0, 76, 110
2, 25148, Note_off_c, 0, 60, 100
2, 25148, Note_off_c, 0, 76, 100
2, 25152, Note_on_c, 0, 64, 110
2, 25152, Note_on_c, 0, 60, 110
2, 25244, Note_off_c, 0, 64, 100
2, 25248, Note_on_c, 0, 76, 110
2, 25340, Note_off_c, 0, 60, 100
2, 25340, Note_off_c, 0, 76, 100
2, 25344, Note_on_c, 0, 64, 110
2, 25344, Note_on_c, 0, 60, 110
2, 25436, Note_off_c, 0, 64, 100
2, 25440, Note_on_c, 0, 67, 110
2, 25532, Note_off_c, 0, 67, 100
2, 25536, Note_on_c, 0, 72, 110
2, 25628, Note_off_c, 0, 72, 100
2, 25632, Note_on_c, 0, 76, 110
2, 25724, Note_off_c, 0, 60, 100
2, 25724, Note_off_c, 0, 76, 100
2, 25728, Note_on_c, 0, 67, 110
2, 25728, Note_on_c, 0, 64, 110
2, 25820, Note_off_c, 0, 67, 100
2, 25824, Note_on_c, 0, 79, 110
2, 25916, Note_off_c, 0, 64, 100
2, 25916, Note_off_c, 0, 79, 100
2, 25920, Note_on_c, 0, 67, 110
2, 25920, Note_on_c, 0, 64, 110
2, 26012, Note_off_c, 0, 67, 100
2, 26016, Note_on_c, 0, 79, 110
2, 26108, Note_off_c, 0, 64, 100
2, 26108, Note_off_c, 0, 79, 100
2, 26112, Note_on_c, 0, 64, 110
2, 26112, Note_on_c, 0, 67, 110
2, 26204, Note_off_c, 0, 67, 100
2, 26208, Note_on_c, 0, 72, 110
2, 26300, Note_off_c, 0, 72, 100
2, 26304, Note_on_c, 0, 76, 110
2, 26396, Note_off_c, 0, 76, 100
2, 26400, Note_on_c, 0, 79, 110
2, 26492, Note_off_c, 0, 64, 100
2, 26492, Note_off_c, 0, 79, 100
2, 26496, Note_on_c, 0, 67, 110
2, 26496, Note_on_c, 0, 72, 110
2, 26588, Note_off_c, 0, 72, 100
2, 26592, Note_on_c, 0, 84, 110
2, 26684, Note_off_c, 0, 67, 100
2, 26684, Note_off_c, 0, 84, 100
2, 26688, Note_on_c, 0, 67, 110
2, 26688, Note_on_c, 0, 72, 110
2, 26780, Note_off_c, 0, 72, 100
2, 26784, Note_on_c, 0, 84, 110
2, 26876, Note_off_c, 0, 67, 100
2, 26876, Note_off_c, 0, 84, 100
2, 26880, Note_on_c, 0, 67, 110
2, 26880, Note_on_c, 0, 72, 110
2, 26972, Note_off_c, 0, 72, 100
2, 26976, Note_on_c, 0, 76, 110
2, 27068, Note_off_c, 0, 76, 100
2, 27072, Note_on_c, 0, 79, 110
2, 27164, Note_off_c, 0, 79, 100
2, 27168, Note_on_c, 0, 84, 110
2, 27260, Note_off_c, 0, 67, 100
2, 27260, Note_off_c, 0, 84, 100
2, 27264, Note_on_c, 0, 72, 110
2, 27264, Note_on_c, 0, 76, 110
2, 27356, Note_off_c, 0, 76, 100
2, 27360, Note_on_c, 0, 88, 110
2, 27452, Note_off_c, 0, 72, 100
2, 27452, Note_off_c, 0, 88, 100
2, 27456, Note_on_c, 0, 72, 110
2, 27456, Note_on_c, 0, 76, 110
2, 27548, Note_off_c, 0, 76, 100
2, 27552, Note_on_c, 0, 88, 110
2, 27644, Note_off_c, 0, 72, 100
2, 27644, Note_off_c, 0, 88, 100
2, 27648, Note_on_c, 0, 76, 110
2, 27648, Note_on_c, 0, 72, 110
2, 27740, Note_off_c, 0, 76, 100
2, 27744, Note_on_c, 0, 88, 110
2, 27836, Note_off_c, 0, 72, 100
2, 27836, Note_off_c, 0, 88, 100
2, 27840, Note_on_c, 0, 74, 110
2, 27840, Note_on_c, 0, 71, 110
2, 27932, Note_off_c, 0, 74, 100
2, 27936, Note_on_c, 0, 86, 110
2, 28028, Note_off_c, 0, 71, 100
2, 28028, Note_off_c, 0, 86, 100
2, 28032, Note_on_c, 0, 74, 110
2, 28032, Note_on_c, 0, 67, 110
2, 28124, Note_off_c, 0, 74, 100
2, 28128, Note_on_c, 0, 86, 110
2, 28220, Note_off_c, 0, 67, 100
2, 28220, Note_off_c, 0, 86, 100
2, 28224, Note_on_c, 0, 72, 110
2, 28224, Note_on_c, 0, 69, 110
2, 28316, Note_off_c, 0, 72, 100
2, 28320, Note_on_c, 0, 84, 110
2, 28412, Note_off_c, 0, 69, 100
2, 28412, Note_off_c, 0, 84, 100
2, 28416, Note_on_c, 0, 71, 110
2, 28416, Note_on_c, 0, 64, 110
2, 28508, Note_off_c, 0, 71, 100
2, 28512, Note_on_c, 0, 83, 110
2, 28604, Note_off_c, 0, 64, 100
2, 28604, Note_off_c, 0, 83, 100
2, 28608, Note_on_c, 0, 69, 110
2, 28608, Note_on_c, 0, 65, 110
2, 28700, Note_off_c, 0, 69, 100
2, 28704, Note_on_c, 0, 81, 110
2, 28796, Note_off_c, 0, 65, 100
2, 28796, Note_off_c, 0, 81, 100
2, 28800, Note_on_c, 0, 69, 110
2, 28800, Note_on_c, 0, 59, 110
2, 28892, Note_off_c, 0, 69, 100
2, 28896, Note_on_c, 0, 81, 110
2, 28988, Note_off_c, 0, 59, 100
2, 28988, Note_off_c, 0, 81, 100
2, 28992, Note_on_c, 0, 67, 110
2, 28992, Note_on_c, 0, 61, 110
2, 29084, Note_off_c, 0, 67, 100
2, 29088, Note_on_c, 0, 79, 110
2, 29180, Note_off_c, 0, 61, 100
2, 29180, Note_off_c, 0, 79, 100
2, 29184, Note_on_c, 0, 62, 110
2, 29184, Note_on_c, 0, 67, 110
2, 29276, Note_off_c, 0, 67, 100
2, 29280, Note_on_c, 0, 79, 110
2, 29372, Note_off_c, 0, 62, 100
2, 29372, Note_off_c, 0, 79, 100
2, 29376, Note_on_c, 0, 65, 110
2, 29468, Note_off_c, 0, 65, 100
2, 29472, Note_on_c, 0, 77, 110
2, 29564, Note_off_c, 0, 77, 100
2, 29568, Note_on_c, 0, 65, 110
2, 29660, Note_off_c, 0, 65, 100
2, 29664, Note_on_c, 0, 77, 110
2, 29756, Note_off_c, 0, 77, 100
2, 29760, Note_on_c, 0, 64, 110
2, 29852, Note_off_c, 0, 64, 100
2, 29856, Note_on_c, 0, 76, 110
2, 29948, Note_off_c, 0, 76, 100
2, 29952, Note_on_c, 0, 64, 110
2, 30044, Note_off_c, 0, 64, 100
2, 30048, Note_on_c, 0, 76, 110
2, 30140, Note_off_c, 0, 76, 100
2, 30144, Note_on_c, 0, 62, 110
2, 30236, Note_off_c, 0, 62, 100
2, 30240, Note_on_c, 0, 74, 110
2, 30332, Note_off_c, 0, 74, 100
2, 30336, Note_on_c, 0, 62, 110
2, 30428, Note_off_c, 0, 62, 100
2, 30432, Note_on_c, 0, 74, 110
2, 30524, Note_off_c, 0, 74, 100
2, 30528, Note_on_c, 0, 60, 110
2, 30620, Note_off_c, 0, 60, 100
2, 30624, Note_on_c, 0, 72, 110
2, 30716, Note_off_c, 0, 72, 100
2, 30720, Note_on_c, 0, 71, 110
2, 30720, Note_on_c, 0, 59, 110
2, 31100, Note_off_c, 0, 71, 100
2, 31100, Note_off_c, 0, 59, 100
2, 31872, Note_on_c, 0, 83, 110
2, 31920, Note_on_c, 0, 84, 110
2, 31964, Note_off_c, 0, 83, 100
2, 31968, Note_on_c, 0, 83, 110
2, 32012, Note_off_c, 0, 84, 100
2, 32016, Note_on_c, 0, 84, 110
2, 32060, Note_off_c, 0, 83, 100
2, 32064, Note_on_c, 0, 83, 110
2, 32108, Note_off_c, 0, 84, 100
2, 32112, Note_on_c, 0, 84, 110
2, 32156, Note_off_c, 0, 83, 100
2, 32160, Note_on_c, 0, 81, 110
2, 32204, Note_off_c, 0, 84, 100
2, 32208, Note_on_c, 0, 83, 110
2, 32252, Note_off_c, 0, 81, 100
2, 32252, Note_off_c, 0, 83, 100
2, 32256, Note_on_c, 0, 84, 110
2, 32828, Note_off_c, 0, 84, 100
2, 32832, Note_on_c, 0, 84, 100
2, 32880, Note_on_c, 0, 83, 100
2, 32924, Note_off_c, 0, 84, 100
2, 32928, Note_on_c, 0, 81, 100
2, 32972, Note_off_c, 0, 83, 100
2, 32976, Note_on_c, 0, 79, 100
2, 33020, Note_off_c, 0, 81, 100
2, 33020, Note_off_c, 0, 79, 100
2, 33024, Note_on_c, 0, 77, 100
2, 33212, Note_off_c, 0, 77, 100
2, 33216, Note_on_c, 0, 77, 100
2, 33216, Note_on_c, 0, 74, 100
2, 33404, Note_off_c, 0, 77, 100
2, 33404, Note_off_c, 0, 74, 100
2, 33408, Note_on_c, 0, 76, 100
2, 33408, Note_on_c, 0, 72, 100
2, 33596, Note_off_c, 0, 76, 100
2, 33596, Note_off_c, 0, 72, 100
2, 33600, Note_on_c, 0, 76, 100
2, 33600, Note_on_c, 0, 72, 100
2, 33788, Note_off_c, 0, 76, 100
2, 33788, Note_off_c, 0, 72, 100
2, 33792, Note_on_c, 0, 74, 110
2, 33792, Note_on_c, 0, 71, 110
2, 34172, Note_off_c, 0, 74, 100
2, 34172, Note_off_c, 0, 71, 100
2, 34944, Note_on_c, 0, 86, 110
2, 34944, Note_on_c, 0, 83, 110
2, 34992, Note_on_c, 0, 88, 110
2, 35036, Note_off_c, 0, 86, 100
2, 35040, Note_on_c, 0, 86, 110
2, 35084, Note_off_c, 0, 88, 100
2, 35088, Note_on_c, 0, 88, 110
2, 35132, Note_off_c, 0, 86, 100
2, 35136, Note_on_c, 0, 86, 110
2, 35180, Note_off_c, 0, 88, 100
2, 35184, Note_on_c, 0, 88, 110
2, 35228, Note_off_c, 0, 83, 100
2, 35228, Note_off_c, 0, 86, 100
2, 35232, Note_on_c, 0, 84, 110
2, 35276, Note_off_c, 0, 88, 100
2, 35280, Note_on_c, 0, 86, 110
2, 35324, Note_off_c, 0, 84, 100
2, 35324, Note_off_c, 0, 86, 100
2, 35328, Note_on_c, 0, 88, 110
2, 35328, Note_on_c, 0, 84, 110
2, 35900, Note_off_c, 0, 88, 100
2, 35900, Note_off_c, 0, 84, 100
2, 35904, Note_on_c, 0, 88, 110
2, 35936, Note_on_c, 0, 86, 110
2, 35964, Note_off_c, 0, 88, 100
2, 35968, Note_on_c, 0, 84, 110
2, 35996, Note_off_c, 0, 86, 100
2, 36000, Note_on_c, 0, 83, 110
2, 36028, Note_off_c, 0, 84, 100
2, 36032, Note_on_c, 0, 81, 110
2, 36060, Note_off_c, 0, 83, 100
2, 36064, Note_on_c, 0, 79, 110
2, 36092, Note_off_c, 0, 81, 100
2, 36096, Note_on_c, 0, 77, 110
2, 36124, Note_off_c, 0, 79, 100
2, 36284, Note_off_c, 0, 77, 100
2, 36288, Note_on_c, 0, 77, 110
2, 36288, Note_on_c, 0, 74, 110
2, 36476, Note_off_c, 0, 77, 100
2, 36476, Note_off_c, 0, 74, 100
2, 36480, Note_on_c, 0, 76, 110
2, 36480, Note_on_c, 0, 72, 110
2, 36668, Note_off_c, 0, 76, 100
2, 36668, Note_off_c, 0, 72, 100
2, 36672, Note_on_c, 0, 76, 110
2, 36672, Note_on_c, 0, 72, 110
2, 36860, Note_off_c, 0, 76, 100
2, 36860, Note_off_c, 0, 72, 100
2, 36864, Note_on_c, 0, 74, 120
2, 36864, Note_on_c, 0, 71, 120
2, 36956, Note_off_c, 0, 74, 100
2, 36956, Note_off_c, 0, 71, 100
2, 36960, Note_on_c, 0, 79, 120
2, 37052, Note_off_c, 0, 79, 100
2, 37056, Note_on_c, 0, 78, 120
2, 37148, Note_off_c, 0, 78, 100
2, 37152, Note_on_c, 0, 76, 120
2, 37244, Note_off_c, 0, 76, 100
2, 37248, Note_on_c, 0, 74, 120
2, 37340, Note_off_c, 0, 74, 100
2, 37344, Note_on_c, 0, 72, 120
2, 37436, Note_off_c, 0, 72, 100
2, 37440, Note_on_c, 0, 71, 120
2, 37532, Note_off_c, 0, 71, 100
2, 37536, Note_on_c, 0, 69, 120
2, 37628, Note_off_c, 0, 69, 100
2, 37632, Note_on_c, 0, 67, 120
2, 37724, Note_off_c, 0, 67, 100
2, 37728, Note_on_c, 0, 67, 120
2, 37820, Note_off_c, 0, 67, 100
2, 37824, Note_on_c, 0, 66, 120
2, 37916, Note_off_c, 0, 66, 100
2, 37920, Note_on_c, 0, 64, 120
2, 38012, Note_off_c, 0, 64, 100
2, 38016, Note_on_c, 0, 62, 120
2, 38108, Note_off_c, 0, 62, 100
2, 38112, Note_on_c, 0, 60, 120
2, 38204, Note_off_c, 0, 60, 100
2, 38208, Note_on_c, 0, 59, 120
2, 38300, Note_off_c, 0, 59, 100
2, 38304, Note_on_c, 0, 57, 120
2, 38396, Note_off_c, 0, 57, 100
2, 38400, Note_on_c, 0, 55, 120
2, 38780, Note_off_c, 0, 55, 100
2, 39936, Note_on_c, 0, 74, 80
2, 40124, Note_off_c, 0, 74, 100
2, 40128, Note_on_c, 0, 76, 80
2, 40176, Note_on_c, 0, 74, 80
2, 40220, Note_off_c, 0, 76, 100
2, 40224, Note_on_c, 0, 73, 80
2, 40268, Note_off_c, 0, 74, 100
2, 40272, Note_on_c, 0, 74, 80
2, 40316, Note_off_c, 0, 73, 100
2, 40316, Note_off_c, 0, 74, 100
2, 40320, Note_on_c, 0, 76, 80
2, 40508, Note_off_c, 0, 76, 100
2, 40512, Note_on_c, 0, 78, 80
2, 40700, Note_off_c, 0, 78, 100
2, 40704, Note_on_c, 0, 79, 80
2, 40892, Note_off_c, 0, 79, 100
2, 40896, Note_on_c, 0, 81, 80
2, 41084, Note_off_c, 0, 81, 100
2, 41088, Note_on_c, 0, 82, 80
2, 41276, Note_off_c, 0, 82, 100
2, 41280, Note_on_c, 0, 74, 80
2, 41468, Note_off_c, 0, 74, 100
2, 41472, Note_on_c, 0, 76, 80
2, 41516, Note_off_c, 0, 76, 100
2, 41520, Note_on_c, 0, 74, 80
2, 41660, Note_off_c, 0, 74, 100
2, 41664, Note_on_c, 0, 73, 80
2, 41852, Note_off_c, 0, 73, 100
2, 41856, Note_on_c, 0, 73, 80
2, 42044, Note_off_c, 0, 73, 100
2, 42048, Note_on_c, 0, 73, 80
2, 42236, Note_off_c, 0, 73, 100
2, 42240, Note_on_c, 0, 73, 80
2, 43004, Note_off_c, 0, 73, 100
2, 43008, Note_on_c, 0, 72, 80
2, 43196, Note_off_c, 0, 72, 100
2, 43200, Note_on_c, 0, 78, 80
2, 43388, Note_off_c, 0, 78, 100
2, 43392, Note_on_c, 0, 81, 80
2, 43580, Note_off_c, 0, 81, 100
2, 43584, Note_on_c, 0, 78, 80
2, 43772, Note_off_c, 0, 78, 100
2, 43776, Note_on_c, 0, 84, 80
2, 43964, Note_off_c, 0, 84, 100
2, 43968, Note_on_c, 0, 81, 80
2, 44156, Note_off_c, 0, 81, 100
2, 44160, Note_on_c, 0, 78, 80
2, 44348, Note_off_c, 0, 78, 100
2, 44352, Note_on_c, 0, 72, 80
2, 44540, Note_off_c, 0, 72, 100
2, 44544, Note_on_c, 0, 71, 80
2, 44732, Note_off_c, 0, 71, 100
2, 44736, Note_on_c, 0, 80, 80
2, 44924, Note_off_c, 0, 80, 100
2, 44928, Note_on_c, 0, 79, 80
2, 45116, Note_off_c, 0, 79, 100
2, 45120, Note_on_c, 0, 77, 80
2, 45308, Note_off_c, 0, 77, 100
2, 45312, Note_on_c, 0, 75, 80
2, 45500, Note_off_c, 0, 75, 100
2, 45504, Note_on_c, 0, 74, 80
2, 45692, Note_off_c, 0, 74, 100
2, 45696, Note_on_c, 0, 72, 80
2, 45884, Note_off_c, 0, 72, 100
2, 45888, Note_on_c, 0, 71, 80
2, 46076, Note_off_c, 0, 71, 100
2, 46080, Note_on_c, 0, 74, 80
2, 46460, Note_off_c, 0, 74, 100
2, 46464, Note_on_c, 0, 72, 100
2, 47228, Note_off_c, 0, 72, 100
2, 47232, Note_on_c, 0, 70, 100
2, 47996, Note_off_c, 0, 70, 100
2, 48000, Note_on_c, 0, 69, 100
2, 48764, Note_off_c, 0, 69, 100
2, 48768, Note_on_c, 0, 79, 80
2, 49148, Note_off_c, 0, 79, 100
2, 49152, Note_on_c, 0, 77, 80
2, 49340, Note_off_c, 0, 77, 100
2, 49344, Note_on_c, 0, 81, 80
2, 49532, Note_off_c, 0, 81, 100
2, 49536, Note_on_c, 0, 83, 80
2, 49724, Note_off_c, 0, 83, 100
2, 49728, Note_on_c, 0, 85, 80
2, 49916, Note_off_c, 0, 85, 100
2, 49920, Note_on_c, 0, 86, 80
2, 50108, Note_off_c, 0, 86, 100
2, 50112, Note_on_c, 0, 88, 80
2, 50300, Note_off_c, 0, 88, 100
2, 50304, Note_on_c, 0, 89, 80
2, 50492, Note_off_c, 0, 89, 100
2, 50496, Note_on_c, 0, 81, 80
2, 50684, Note_off_c, 0, 81, 100
2, 50688, Note_on_c, 0, 83, 80
2, 50732, Note_off_c, 0, 83, 100
2, 50736, Note_on_c, 0, 81, 80
2, 50876, Note_off_c, 0, 81, 100
2, 50880, Note_on_c, 0, 80, 80
2, 51068, Note_off_c, 0, 80, 100
2, 51072, Note_on_c, 0, 80, 80
2, 51260, Note_off_c, 0, 80, 100
2, 51264, Note_on_c, 0, 80, 80
2, 51452, Note_off_c, 0, 80, 100
2, 51456, Note_on_c, 0, 80, 80
2, 52220, Note_off_c, 0, 80, 100
2, 52224, Note_on_c, 0, 79, 80
2, 52412, Note_off_c, 0, 79, 100
2, 52416, Note_on_c, 0, 81, 80
2, 52604, Note_off_c, 0, 81, 100
2, 52608, Note_on_c, 0, 85, 80
2, 52796, Note_off_c, 0, 85, 100
2, 52800, Note_on_c, 0, 81, 80
2, 52988, Note_off_c, 0, 81, 100
2, 52992, Note_on_c, 0, 88, 80
2, 53180, Note_off_c, 0, 88, 100
2, 53184, Note_on_c, 0, 85, 80
2, 53372, Note_off_c, 0, 85, 100
2, 53376, Note_on_c, 0, 81, 80
2, 53564, Note_off_c, 0, 81, 100
2, 53568, Note_on_c, 0, 79, 80
2, 53756, Note_off_c, 0, 79, 100
2, 53760, Note_on_c, 0, 78, 80
2, 53948, Note_off_c, 0, 78, 100
2, 53952, Note_on_c, 0, 87, 80
2, 54140, Note_off_c, 0, 87, 100
2, 54144, Note_on_c, 0, 86, 80
2, 54332, Note_off_c, 0, 86, 100
2, 54336, Note_on_c, 0, 84, 80
2, 54524, Note_off_c, 0, 84, 100
2, 54528, Note_on_c, 0, 82, 80
2, 54716, Note_off_c, 0, 82, 100
2, 54720, Note_on_c, 0, 81, 80
2, 54908, Note_off_c, 0, 81, 100
2, 54912, Note_on_c, 0, 79, 80
2, 55100, Note_off_c, 0, 79, 100
2, 55104, Note_on_c, 0, 78, 80
2, 55292, Note_off_c, 0, 78, 100
2, 55296, Note_on_c, 0, 81, 80
2, 55676, Note_off_c, 0, 81, 100
2, 55680, Note_on_c, 0, 79, 100
2, 56444, Note_off_c, 0, 79, 100
2, 56448, Note_on_c, 0, 77, 100
2, 57212, Note_off_c, 0, 77, 100
2, 57216, Note_on_c, 0, 76, 100
2, 57980, Note_off_c, 0, 76, 100
2, 57984, Note_on_c, 0, 86, 100
2, 58364, Note_off_c, 0, 86, 100
2, 58368, Note_on_c, 0, 84, 110
2, 58748, Note_off_c, 0, 84, 100
2, 58752, Note_on_c, 0, 81, 110
2, 58844, Note_off_c, 0, 81, 100
2, 58848, Note_on_c, 0, 79, 110
2, 58940, Note_off_c, 0, 79, 100
2, 58944, Note_on_c, 0, 77, 110
2, 59036, Note_off_c, 0, 77, 100
2, 59040, Note_on_c, 0, 76, 110
2, 59132, Note_off_c, 0, 76, 100
2, 59136, Note_on_c, 0, 74, 110
2, 59228, Note_off_c, 0, 74, 100
2, 59232, Note_on_c, 0, 72, 110
2, 59324, Note_off_c, 0, 72, 100
2, 59328, Note_on_c, 0, 71, 110
2, 59420, Note_off_c, 0, 71, 100
2, 59424, Note_on_c, 0, 69, 110
2, 59516, Note_off_c, 0, 69, 100
2, 59520, Note_on_c, 0, 68, 110
2, 59612, Note_off_c, 0, 68, 100
2, 59616, Note_on_c, 0, 69, 110
2, 59708, Note_off_c, 0, 69, 100
2, 59712, Note_on_c, 0, 71, 110
2, 59804, Note_off_c, 0, 71, 100
2, 59808, Note_on_c, 0, 68, 110
2, 59900, Note_off_c, 0, 68, 100
2, 59904, Note_on_c, 0, 69, 110
2, 60284, Note_off_c, 0, 69, 100
2, 60672, Note_on_c, 0, 78, 110
2, 60672, Note_on_c, 0, 74, 110
2, 60672, Note_on_c, 0, 72, 110
2, 60672, Note_on_c, 0, 69, 110
2, 60672, Note_on_c, 0, 66, 110
2, 61052, Note_off_c, 0, 78, 100
2, 61052, Note_off_c, 0, 74, 100
2, 61052, Note_off_c, 0, 72, 100
2, 61052, Note_off_c, 0, 69, 100
2, 61052, Note_off_c, 0, 66, 100
2, 61440, Note_on_c, 0, 79, 110
2, 61440, Note_on_c, 0, 74, 110
2, 61440, Note_on_c, 0, 70, 110
2, 61440, Note_on_c, 0, 67, 110
2, 61820, Note_off_c, 0, 79, 100
2, 61820, Note_off_c, 0, 74, 100
2, 61820, Note_off_c, 0, 70, 100
2, 61820, Note_off_c, 0, 67, 100
2, 61824, Note_on_c, 0, 79, 110
2, 61916, Note_off_c, 0, 79, 100
2, 61920, Note_on_c, 0, 77, 110
2, 62012, Note_off_c, 0, 77, 100
2, 62016, Note_on_c, 0, 75, 110
2, 62108, Note_off_c, 0, 75, 100
2, 62112, Note_on_c, 0, 74, 110
2, 62204, Note_off_c, 0, 74, 100
2, 62208, Note_on_c, 0, 72, 110
2, 62300, Note_off_c, 0, 72, 100
2, 62304, Note_on_c, 0, 70, 110
2, 62396, Note_off_c, 0, 70, 100
2, 62400, Note_on_c, 0, 69, 110
2, 62492, Note_off_c, 0, 69, 100
2, 62496, Note_on_c, 0, 67, 110
2, 62588, Note_off_c, 0, 67, 100
2, 62592, Note_on_c, 0, 66, 110
2, 62684, Note_off_c, 0, 66, 100
2, 62688, Note_on_c, 0, 67, 110
2, 62780, Note_off_c, 0, 67, 100
2, 62784, Note_on_c, 0, 69, 110
2, 62876, Note_off_c, 0, 69, 100
2, 62880, Note_on_c, 0, 66, 110
2, 62972, Note_off_c, 0, 66, 100
2, 62976, Note_on_c, 0, 67, 110
2, 63356, Note_off_c, 0, 67, 100
2, 63744, Note_on_c, 0, 85, 110
2, 63744, Note_on_c, 0, 79, 110
2, 63744, Note_on_c, 0, 73, 110
2, 64124, Note_off_c, 0, 85, 100
2, 64124, Note_off_c, 0, 79, 100
2, 64124, Note_off_c, 0, 73, 100
2, 64512, Note_on_c, 0, 86, 110
2, 64512, Note_on_c, 0, 81, 110
2, 64512, Note_on_c, 0, 78, 110
2, 64512, Note_on_c, 0, 74, 110
2, 64892, Note_off_c, 0, 86, 100
2, 64892, Note_off_c, 0, 81, 100
2, 64892, Note_off_c, 0, 78, 100
2, 64892, Note_off_c, 0, 74, 100
2, 64896, Note_on_c, 0, 86, 110
2, 64988, Note_off_c, 0, 86, 100
2, 64992, Note_on_c, 0, 85, 110
2, 65084, Note_off_c, 0, 85, 100
2, 65088, Note_on_c, 0, 83, 110
2, 65180, Note_off_c, 0, 83, 100
2, 65184, Note_on_c, 0, 81, 110
2, 65276, Note_off_c, 0, 81, 100
2, 65280, Note_on_c, 0, 79, 110
2, 65372, Note_off_c, 0, 79, 100
2, 65376, Note_on_c, 0, 78, 110
2, 65468, Note_off_c, 0, 78, 100
2, 65472, Note_on_c, 0, 76, 110
2, 65564, Note_off_c, 0, 76, 100
2, 65568, Note_on_c, 0, 74, 110
2, 65660, Note_off_c, 0, 74, 100
2, 65664, Note_on_c, 0, 73, 110
2, 65756, Note_off_c, 0, 73, 100
2, 65760, Note_on_c, 0, 74, 110
2, 65852, Note_off_c, 0, 74, 100
2, 65856, Note_on_c, 0, 76, 110
2, 65948, Note_off_c, 0, 76, 100
2, 65952, Note_on_c, 0, 73, 110
2, 66044, Note_off_c, 0, 73, 100
2, 66048, Note_on_c, 0, 74, 110
2, 66428, Note_off_c, 0, 74, 100
2, 66432, Note_on_c, 0, 74, 110
2, 66524, Note_off_c, 0, 74, 100
2, 66528, Note_on_c, 0, 73, 110
2, 66620, Note_off_c, 0, 73, 100
2, 66624, Note_on_c, 0, 71, 110
2, 66716, Note_off_c, 0, 71, 100
2, 66720, Note_on_c, 0, 69, 110
2, 66812, Note_off_c, 0, 69, 100
2, 66816, Note_on_c, 0, 67, 110
2, 66908, Note_off_c, 0, 67, 100
2, 66912, Note_on_c, 0, 66, 110
2, 67004, Note_off_c, 0, 66, 100
2, 67008, Note_on_c, 0, 64, 110
2, 67100, Note_off_c, 0, 64, 100
2, 67104, Note_on_c, 0, 62, 110
2, 67196, Note_off_c, 0, 62, 100
2, 67200, Note_on_c, 0, 61, 110
2, 67292, Note_off_c, 0, 61, 100
2, 67296, Note_on_c, 0, 62, 110
2, 67388, Note_off_c, 0, 62, 100
2, 67392, Note_on_c, 0, 64, 110
2, 67484, Note_off_c, 0, 64, 100
2, 67488, Note_on_c, 0, 61, 110
2, 67580, Note_off_c, 0, 61, 100
2, 67584, Note_on_c, 0, 62, 80
2, 67772, Note_off_c, 0, 62, 100
2, 67776, Note_on_c, 0, 64, 80
2, 67836, Note_off_c, 0, 64, 100
2, 67840, Note_on_c, 0, 62, 80
2, 67900, Note_off_c, 0, 62, 100
2, 67904, Note_on_c, 0, 61, 80
2, 67964, Note_off_c, 0, 61, 100
2, 67968, Note_on_c, 0, 62, 80
2, 68156, Note_off_c, 0, 62, 100
2, 68160, Note_on_c, 0, 64, 80
2, 68348, Note_off_c, 0, 64, 100
2, 68352, Note_on_c, 0, 66, 80
2, 68540, Note_off_c, 0, 66, 100
2, 68544, Note_on_c, 0, 67, 80
2, 68608, Note_on_c, 0, 66, 80
2, 68668, Note_off_c, 0, 67, 100
2, 68672, Note_on_c, 0, 64, 80
2, 68732, Note_off_c, 0, 66, 100
2, 68736, Note_on_c, 0, 66, 80
2, 68796, Note_off_c, 0, 64, 100
2, 68924, Note_off_c, 0, 66, 100
2, 68928, Note_on_c, 0, 67, 80
2, 69116, Note_off_c, 0, 67, 100
2, 69120, Note_on_c, 0, 69, 80
2, 69308, Note_off_c, 0, 69, 100
2, 69312, Note_on_c, 0, 71, 80
2, 69376, Note_on_c, 0, 69, 80
2, 69436, Note_off_c, 0, 71, 100
2, 69440, Note_on_c, 0, 68, 80
2, 69500, Note_off_c, 0, 69, 100
2, 69504, Note_on_c, 0, 69, 80
2, 69564, Note_off_c, 0, 68, 100
2, 69692, Note_off_c, 0, 69, 100
2, 69696, Note_on_c, 0, 71, 80
2, 69884, Note_off_c, 0, 71, 100
2, 69888, Note_on_c, 0, 74, 80
2, 70076, Note_off_c, 0, 74, 100
2, 70080, Note_on_c, 0, 72, 80
2, 70268, Note_off_c, 0, 72, 100
2, 70272, Note_on_c, 0, 71, 80
2, 70460, Note_off_c, 0, 71, 100
2, 70464, Note_on_c, 0, 69, 80
2, 70652, Note_off_c, 0, 69, 100
2, 70656, Note_on_c, 0, 67, 80
2, 70844, Note_off_c, 0, 67, 100
2, 70848, Note_on_c, 0, 62, 80
2, 71036, Note_off_c, 0, 62, 100
2, 71040, Note_on_c, 0, 61, 80
2, 71228, Note_off_c, 0, 61, 100
2, 71232, Note_on_c, 0, 62, 80
2, 71420, Note_off_c, 0, 62, 100
2, 71424, Note_on_c, 0, 67, 80
2, 71612, Note_off_c, 0, 67, 100
2, 71616, Note_on_c, 0, 62, 80
2, 71804, Note_off_c, 0, 62, 100
2, 71808, Note_on_c, 0, 71, 80
2, 71996, Note_off_c, 0, 71, 100
2, 72000, Note_on_c, 0, 62, 80
2, 72188, Note_off_c, 0, 62, 100
2, 72192, Note_on_c, 0, 74, 80
2, 72956, Note_off_c, 0, 74, 100
2, 72960, Note_on_c, 0, 71, 80
2, 73340, Note_off_c, 0, 71, 100
2, 73344, Note_on_c, 0, 67, 80
2, 73724, Note_off_c, 0, 67, 100
2, 73728, Note_on_c, 0, 66, 80
2, 73916, Note_off_c, 0, 66, 100
2, 73920, Note_on_c, 0, 62, 80
2, 74108, Note_off_c, 0, 62, 100
2, 74112, Note_on_c, 0, 61, 80
2, 74300, Note_off_c, 0, 61, 100
2, 74304, Note_on_c, 0, 62, 80
2, 74492, Note_off_c, 0, 62, 100
2, 74496, Note_on_c, 0, 66, 80
2, 74684, Note_off_c, 0, 66, 100
2, 74688, Note_on_c, 0, 62, 80
2, 74876, Note_off_c, 0, 62, 100
2, 74880, Note_on_c, 0, 69, 80
2, 75068, Note_off_c, 0, 69, 100
2, 75072, Note_on_c, 0, 62, 80
2, 75260, Note_off_c, 0, 62, 100
2, 75264, Note_on_c, 0, 72, 80
2, 76028, Note_off_c, 0, 72, 100
2, 76032, Note_on_c, 0, 69, 80
2, 76412, Note_off_c, 0, 69, 100
2, 76416, Note_on_c, 0, 66, 80
2, 76796, Note_off_c, 0, 66, 100
2, 76800, Note_on_c, 0, 67, 80
2, 76988, Note_off_c, 0, 67, 100
2, 76992, Note_on_c, 0, 62, 81
2, 77180, Note_off_c, 0, 62, 100
2, 77184, Note_on_c, 0, 61, 83
2, 77372, Note_off_c, 0, 61, 100
2, 77376, Note_on_c, 0, 62, 85
2, 77564, Note_off_c, 0, 62, 100
2, 77568, Note_on_c, 0, 67, 87
2, 77756, Note_off_c, 0, 67, 100
2, 77760, Note_on_c, 0, 62, 89
2, 77948, Note_off_c, 0, 62, 100
2, 77952, Note_on_c, 0, 71, 90
2, 78140, Note_off_c, 0, 71, 100
2, 78144, Note_on_c, 0, 67, 92
2, 78332, Note_off_c, 0, 67, 100
2, 78336, Note_on_c, 0, 74, 94
2, 78524, Note_off_c, 0, 74, 100
2, 78528, Note_on_c, 0, 71, 96
2, 78716, Note_off_c, 0, 71, 100
2, 78720, Note_on_c, 0, 79, 98
2, 78908, Note_off_c, 0, 79, 100
2, 78912, Note_on_c, 0, 74, 99
2, 79100, Note_off_c, 0, 74, 100
2, 79104, Note_on_c, 0, 83, 100
2, 79292, Note_off_c, 0, 83, 100
2, 79296, Note_on_c, 0, 81, 99
2, 79484, Note_off_c, 0, 81, 100
2, 79488, Note_on_c, 0, 79, 98
2, 79676, Note_off_c, 0, 79, 100
2, 79680, Note_on_c, 0, 78, 97
2, 79868, Note_off_c, 0, 78, 100
2, 79872, Note_on_c, 0, 76, 96
2, 80060, Note_off_c, 0, 76, 100
2, 80064, Note_on_c, 0, 74, 95
2, 80252, Note_off_c, 0, 74, 100
2, 80256, Note_on_c, 0, 73, 94
2, 80444, Note_off_c, 0, 73, 100
2, 80448, Note_on_c, 0, 71, 93
2, 80636, Note_off_c, 0, 71, 100
2, 80640, Note_on_c, 0, 69, 92
2, 80828, Note_off_c, 0, 69, 100
2, 80832, Note_on_c, 0, 67, 91
2, 81020, Note_off_c, 0, 67, 100
2, 81024, Note_on_c, 0, 66, 90
2, 81212, Note_off_c, 0, 66, 100
2, 81216, Note_on_c, 0, 64, 89
2, 81404, Note_off_c, 0, 64, 100
2, 81408, Note_on_c, 0, 62, 88
2, 81596, Note_off_c, 0, 62, 100
2, 81600, Note_on_c, 0, 61, 87
2, 81788, Note_off_c, 0, 61, 100
2, 81792, Note_on_c, 0, 62, 86
2, 81980, Note_off_c, 0, 62, 100
2, 81984, Note_on_c, 0, 64, 85
2, 82172, Note_off_c, 0, 64, 100
2, 82176, Note_on_c, 0, 62, 84
2, 82364, Note_off_c, 0, 62, 100
2, 82368, Note_on_c, 0, 60, 83
2, 82556, Note_off_c, 0, 60, 100
2, 82560, Note_on_c, 0, 59, 82
2, 82748, Note_off_c, 0, 59, 100
2, 82752, Note_on_c, 0, 57, 81
2, 82940, Note_off_c, 0, 57, 100
2, 82944, Note_on_c, 0, 55, 80
2, 83324, Note_off_c, 0, 55, 100
2, 84672, Note_on_c, 0, 74, 80
2, 84720, Note_on_c, 0, 76, 80
2, 84764, Note_off_c, 0, 74, 100
2, 84768, Note_on_c, 0, 74, 80
2, 84812, Note_off_c, 0, 76, 100
2, 84860, Note_off_c, 0, 74, 100
2, 84864, Note_on_c, 0, 73, 80
2, 85052, Note_off_c, 0, 73, 100
2, 85056, Note_on_c, 0, 74, 80
2, 85244, Note_off_c, 0, 74, 100
2, 85248, Note_on_c, 0, 79, 80
2, 85436, Note_off_c, 0, 79, 100
2, 85440, Note_on_c, 0, 74, 80
2, 85628, Note_off_c, 0, 74, 100
2, 85632, Note_on_c, 0, 83, 80
2, 85820, Note_off_c, 0, 83, 100
2, 85824, Note_on_c, 0, 74, 80
2, 86012, Note_off_c, 0, 74, 100
2, 86016, Note_on_c, 0, 84, 80
2, 86780, Note_off_c, 0, 84, 100
2, 86784, Note_on_c, 0, 81, 80
2, 87164, Note_off_c, 0, 81, 100
2, 87168, Note_on_c, 0, 78, 80
2, 87548, Note_off_c, 0, 78, 100
2, 87744, Note_on_c, 0, 74, 80
2, 87792, Note_on_c, 0, 76, 80
2, 87836, Note_off_c, 0, 74, 100
2, 87840, Note_on_c, 0, 74, 80
2, 87884, Note_off_c, 0, 76, 100
2, 87932, Note_off_c, 0, 74, 100
2, 87936, Note_on_c, 0, 73, 80
2, 88124, Note_off_c, 0, 73, 100
2, 88128, Note_on_c, 0, 74, 80
2, 88316, Note_off_c, 0, 74, 100
2, 88320, Note_on_c, 0, 78, 80
2, 88508, Note_off_c, 0, 78, 100
2, 88512, Note_on_c, 0, 74, 80
2, 88700, Note_off_c, 0, 74, 100
2, 88704, Note_on_c, 0, 81, 80
2, 88892, Note_off_c, 0, 81, 100
2, 88896, Note_on_c, 0, 74, 80
2, 89084, Note_off_c, 0, 74, 100
2, 89088, Note_on_c, 0, 83, 80
2, 89276, Note_off_c, 0, 83, 100
2, 89280, Note_on_c, 0, 79, 82
2, 89328, Note_on_c, 0, 81, 83
2, 89372, Note_off_c, 0, 79, 100
2, 89376, Note_on_c, 0, 79, 83
2, 89420, Note_off_c, 0, 81, 100
2, 89468, Note_off_c, 0, 79, 100
2, 89472, Note_on_c, 0, 78, 85
2, 89660, Note_off_c, 0, 78, 100
2, 89664, Note_on_c, 0, 79, 87
2, 89852, Note_off_c, 0, 79, 100
2, 89856, Note_on_c, 0, 83, 90
2, 90044, Note_off_c, 0, 83, 100
2, 90048, Note_on_c, 0, 79, 93
2, 90236, Note_off_c, 0, 79, 100
2, 90240, Note_on_c, 0, 86, 95
2, 90428, Note_off_c, 0, 86, 100
2, 90432, Note_on_c, 0, 83, 98
2, 90480, Note_on_c, 0, 84, 99
2, 90524, Note_off_c, 0, 83, 100
2, 90528, Note_on_c, 0, 83, 99
2, 90572, Note_off_c, 0, 84, 100
2, 90576, Note_on_c, 0, 84, 110
2, 90620, Note_off_c, 0, 83, 100
2, 90624, Note_on_c, 0, 89, 110
2, 90668, Note_off_c, 0, 84, 100
2, 90812, Note_off_c, 0, 89, 100
2, 90816, Note_on_c, 0, 86, 110
2, 91004, Note_off_c, 0, 86, 100
2, 91008, Note_on_c, 0, 83, 110
2, 91196, Note_off_c, 0, 83, 100
2, 91200, Note_on_c, 0, 79, 110
2, 91388, Note_off_c, 0, 79, 100
2, 91392, Note_on_c, 0, 77, 110
2, 91580, Note_off_c, 0, 77, 100
2, 91584, Note_on_c, 0, 74, 110
2, 91772, Note_off_c, 0, 74, 100
2, 91776, Note_on_c, 0, 71, 110
2, 91964, Note_off_c, 0, 71, 100
2, 91968, Note_on_c, 0, 65, 110
2, 92156, Note_off_c, 0, 65, 100
2, 92160, Note_on_c, 0, 64, 110
2, 92252, Note_off_c, 0, 64, 100
2, 92256, Note_on_c, 0, 67, 110
2, 92348, Note_off_c, 0, 67, 100
2, 92352, Note_on_c, 0, 72, 110
2, 92444, Note_off_c, 0, 72, 100
2, 92448, Note_on_c, 0, 76, 110
2, 92540, Note_off_c, 0, 76, 100
2, 92544, Note_on_c, 0, 67, 110
2, 92636, Note_off_c, 0, 67, 100
2, 92640, Note_on_c, 0, 79, 110
2, 92732, Note_off_c, 0, 79, 100
2, 92736, Note_on_c, 0, 67, 110
2, 92828, Note_off_c, 0, 67, 100
2, 92832, Note_on_c, 0, 79, 110
2, 92924, Note_off_c, 0, 79, 100
2, 92928, Note_on_c, 0, 67, 110
2, 93020, Note_off_c, 0, 67, 100
2, 93024, Note_on_c, 0, 72, 110
2, 93116, Note_off_c, 0, 72, 100
2, 93120, Note_on_c, 0, 76, 110
2, 93212, Note_off_c, 0, 76, 100
2, 93216, Note_on_c, 0, 79, 110
2, 93308, Note_off_c, 0, 79, 100
2, 93312, Note_on_c, 0, 72, 110
2, 93404, Note_off_c, 0, 72, 100
2, 93408, Note_on_c, 0, 84, 110
2, 93500, Note_off_c, 0, 84, 100
2, 93504, Note_on_c, 0, 72, 110
2, 93596, Note_off_c, 0, 72, 100
2, 93600, Note_on_c, 0, 84, 110
2, 93692, Note_off_c, 0, 84, 100
2, 93696, Note_on_c, 0, 72, 110
2, 93788, Note_off_c, 0, 72, 100
2, 93792, Note_on_c, 0, 76, 110
2, 93884, Note_off_c, 0, 76, 100
2, 93888, Note_on_c, 0, 79, 110
2, 93980, Note_off_c, 0, 79, 100
2, 93984, Note_on_c, 0, 84, 110
2, 94076, Note_off_c, 0, 84, 100
2, 94080, Note_on_c, 0, 76, 110
2, 94172, Note_off_c, 0, 76, 100
2, 94176, Note_on_c, 0, 88, 110
2, 94268, Note_off_c, 0, 88, 100
2, 94272, Note_on_c, 0, 76, 110
2, 94364, Note_off_c, 0, 76, 100
2, 94368, Note_on_c, 0, 88, 110
2, 94460, Note_off_c, 0, 88, 100
2, 94464, Note_on_c, 0, 76, 110
2, 94556, Note_off_c, 0, 76, 100
2, 94560, Note_on_c, 0, 88, 110
2, 94652, Note_off_c, 0, 88, 100
2, 94656, Note_on_c, 0, 84, 110
2, 94748, Note_off_c, 0, 84, 100
2, 94752, Note_on_c, 0, 79, 110
2, 94844, Note_off_c, 0, 79, 100
2, 94848, Note_on_c, 0, 76, 110
2, 94940, Note_off_c, 0, 76, 100
2, 94944, Note_on_c, 0, 72, 110
2, 95036, Note_off_c, 0, 72, 100
2, 95040, Note_on_c, 0, 67, 110
2, 95132, Note_off_c, 0, 67, 100
2, 95136, Note_on_c, 0, 64, 110
2, 95228, Note_off_c, 0, 64, 100
2, 95232, Note_on_c, 0, 66, 110
2, 95324, Note_off_c, 0, 66, 100
2, 95328, Note_on_c, 0, 69, 110
2, 95420, Note_off_c, 0, 69, 100
2, 95424, Note_on_c, 0, 74, 110
2, 95516, Note_off_c, 0, 74, 100
2, 95520, Note_on_c, 0, 78, 110
2, 95612, Note_off_c, 0, 78, 100
2, 95616, Note_on_c, 0, 69, 110
2, 95708, Note_off_c, 0, 69, 100
2, 95712, Note_on_c, 0, 81, 110
2, 95804, Note_off_c, 0, 81, 100
2, 95808, Note_on_c, 0, 69, 110
2, 95900, Note_off_c, 0, 69, 100
2, 95904, Note_on_c, 0, 81, 110
2, 95996, Note_off_c, 0, 81, 100
2, 96000, Note_on_c, 0, 69, 110
2, 96092, Note_off_c, 0, 69, 100
2, 96096, Note_on_c, 0, 74, 110
2, 96188, Note_off_c, 0, 74, 100
2, 96192, Note_on_c, 0, 78, 110
2, 96284, Note_off_c, 0, 78, 100
2, 96288, Note_on_c, 0, 81, 110
2, 96380, Note_off_c, 0, 81, 100
2, 96384, Note_on_c, 0, 74, 110
2, 96476, Note_off_c, 0, 74, 100
2, 96480, Note_on_c, 0, 86, 110
2, 96572, Note_off_c, 0, 86, 100
2, 96576, Note_on_c, 0, 74, 110
2, 96668, Note_off_c, 0, 74, 100
2, 96672, Note_on_c, 0, 86, 110
2, 96764, Note_off_c, 0, 86, 100
2, 96768, Note_on_c, 0, 74, 110
2, 96860, Note_off_c, 0, 74, 100
2, 96864, Note_on_c, 0, 78, 110
2, 96956, Note_off_c, 0, 78, 100
2, 96960, Note_on_c, 0, 81, 110
2, 97052, Note_off_c, 0, 81, 100
2, 97056, Note_on_c, 0, 86, 110
2, 97148, Note_off_c, 0, 86, 100
2, 97152, Note_on_c, 0, 69, 110
2, 97244, Note_off_c, 0, 69, 100
2, 97248, Note_on_c, 0, 81, 110
2, 97340, Note_off_c, 0, 81, 100
2, 97344, Note_on_c, 0, 69, 110
2, 97436, Note_off_c, 0, 69, 100
2, 97440, Note_on_c, 0, 81, 110
2, 97532, Note_off_c, 0, 81, 100
2, 97536, Note_on_c, 0, 69, 110
2, 97628, Note_off_c, 0, 69, 100
2, 97632, Note_on_c, 0, 81, 110
2, 97724, Note_off_c, 0, 81, 100
2, 97728, Note_on_c, 0, 78, 110
2, 97820, Note_off_c, 0, 78, 100
2, 97824, Note_on_c, 0, 74, 110
2, 97916, Note_off_c, 0, 74, 100
2, 97920, Note_on_c, 0, 69, 110
2, 98012, Note_off_c, 0, 69, 100
2, 98016, Note_on_c, 0, 66, 110
2, 98108, Note_off_c, 0, 66, 100
2, 98112, Note_on_c, 0, 62, 110
2, 98204, Note_off_c, 0, 62, 100
2, 98208, Note_on_c, 0, 57, 110
2, 98300, Note_off_c, 0, 57, 100
2, 98304, Note_on_c, 0, 59, 110
2, 98396, Note_off_c, 0, 59, 100
2, 98400, Note_on_c, 0, 62, 110
2, 98492, Note_off_c, 0, 62, 100
2, 98496, Note_on_c, 0, 67, 110
2, 98588, Note_off_c, 0, 67, 100
2, 98592, Note_on_c, 0, 71, 110
2, 98684, Note_off_c, 0, 71, 100
2, 98688, Note_on_c, 0, 62, 110
2, 98780, Note_off_c, 0, 62, 100
2, 98784, Note_on_c, 0, 74, 110
2, 98876, Note_off_c, 0, 74, 100
2, 98880, Note_on_c, 0, 62, 110
2, 98972, Note_off_c, 0, 62, 100
2, 98976, Note_on_c, 0, 74, 110
2, 99068, Note_off_c, 0, 74, 100
2, 99072, Note_on_c, 0, 62, 110
2, 99164, Note_off_c, 0, 62, 100
2, 99168, Note_on_c, 0, 67, 110
2, 99260, Note_off_c, 0, 67, 100
2, 99264, Note_on_c, 0, 71, 110
2, 99356, Note_off_c, 0, 71, 100
2, 99360, Note_on_c, 0, 74, 110
2, 99452, Note_off_c, 0, 74, 100
2, 99456, Note_on_c, 0, 67, 110
2, 99548, Note_off_c, 0, 67, 100
2, 99552, Note_on_c, 0, 79, 110
2, 99644, Note_off_c, 0, 79, 100
2, 99648, Note_on_c, 0, 67, 110
2, 99740, Note_off_c, 0, 67, 100
2, 99744, Note_on_c, 0, 79, 110
2, 99836, Note_off_c, 0, 79, 100
2, 99840, Note_on_c, 0, 67, 110
2, 99932, Note_off_c, 0, 67, 100
2, 99936, Note_on_c, 0, 71, 110
2, 100028, Note_off_c, 0, 71, 100
2, 100032, Note_on_c, 0, 74, 110
2, 100124, Note_off_c, 0, 74, 100
2, 100128, Note_on_c, 0, 79, 110
2, 100220, Note_off_c, 0, 79, 100
2, 100224, Note_on_c, 0, 71, 110
2, 100316, Note_off_c, 0, 71, 100
2, 100320, Note_on_c, 0, 83, 110
2, 100412, Note_off_c, 0, 83, 100
2, 100416, Note_on_c, 0, 71, 110
2, 100508, Note_off_c, 0, 71, 100
2, 100512, Note_on_c, 0, 83, 110
2, 100604, Note_off_c, 0, 83, 100
2, 100608, Note_on_c, 0, 71, 110
2, 100700, Note_off_c, 0, 71, 100
2, 100704, Note_on_c, 0, 74, 110
2, 100796, Note_off_c, 0, 74, 100
2, 100800, Note_on_c, 0, 79, 110
2, 100892, Note_off_c, 0, 79, 100
2, 100896, Note_on_c, 0, 83, 110
2, 100988, Note_off_c, 0, 83, 100
2, 100992, Note_on_c, 0, 74, 110
2, 101084, Note_off_c, 0, 74, 100
2, 101088, Note_on_c, 0, 86, 110
2, 101180, Note_off_c, 0, 86, 100
2, 101184, Note_on_c, 0, 74, 110
2, 101276, Note_off_c, 0, 74, 100
2, 101280, Note_on_c, 0, 86, 110
2, 101372, Note_off_c, 0, 86, 100
2, 101376, Note_on_c, 0, 74, 120
2, 101468, Note_off_c, 0, 74, 100
2, 101472, Note_on_c, 0, 86, 110
2, 101564, Note_off_c, 0, 86, 100
2, 101568, Note_on_c, 0, 73, 110
2, 101660, Note_off_c, 0, 73, 100
2, 101664, Note_on_c, 0, 85, 110
2, 101756, Note_off_c, 0, 85, 100
2, 101760, Note_on_c, 0, 76, 110
2, 101852, Note_off_c, 0, 76, 100
2, 101856, Note_on_c, 0, 88, 110
2, 101948, Note_off_c, 0, 88, 100
2, 101952, Note_on_c, 0, 74, 110
2, 102044, Note_off_c, 0, 74, 100
2, 102048, Note_on_c, 0, 86, 110
2, 102140, Note_off_c, 0, 86, 100
2, 102144, Note_on_c, 0, 74, 121
2, 102236, Note_off_c, 0, 74, 100
2, 102240, Note_on_c, 0, 86, 110
2, 102332, Note_off_c, 0, 86, 100
2, 102336, Note_on_c, 0, 73, 110
2, 102428, Note_off_c, 0, 73, 100
2, 102432, Note_on_c, 0, 85, 110
2, 102524, Note_off_c, 0, 85, 100
2, 102528, Note_on_c, 0, 76, 110
2, 102620, Note_off_c, 0, 76, 100
2, 102624, Note_on_c, 0, 88, 110
2, 102716, Note_off_c, 0, 88, 100
2, 102720, Note_on_c, 0, 74, 110
2, 102812, Note_off_c, 0, 74, 100
2, 102816, Note_on_c, 0, 86, 110
2, 102908, Note_off_c, 0, 86, 100
2, 102912, Note_on_c, 0, 74, 123
2, 103004, Note_off_c, 0, 74, 100
2, 103008, Note_on_c, 0, 86, 110
2, 103100, Note_off_c, 0, 86, 100
2, 103104, Note_on_c, 0, 73, 110
2, 103196, Note_off_c, 0, 73, 100
2, 103200, Note_on_c, 0, 85, 110
2, 103292, Note_off_c, 0, 85, 100
2, 103296, Note_on_c, 0, 76, 110
2, 103388, Note_off_c, 0, 76, 100
2, 103392, Note_on_c, 0, 88, 110
2, 103484, Note_off_c, 0, 88, 100
2, 103488, Note_on_c, 0, 74, 110
2, 103580, Note_off_c, 0, 74, 100
2, 103584, Note_on_c, 0, 86, 110
2, 103676, Note_off_c, 0, 86, 100
2, 103680, Note_on_c, 0, 74, 120
2, 103772, Note_off_c, 0, 74, 100
2, 103776, Note_on_c, 0, 86, 110
2, 103868, Note_off_c, 0, 86, 100
2, 103872, Note_on_c, 0, 73, 110
2, 103964, Note_off_c, 0, 73, 100
2, 103968, Note_on_c, 0, 85, 110
2, 104060, Note_off_c, 0, 85, 100
2, 104064, Note_on_c, 0, 76, 110
2, 104156, Note_off_c, 0, 76, 100
2, 104160, Note_on_c, 0, 88, 110
2, 104252, Note_off_c, 0, 88, 100
2, 104256, Note_on_c, 0, 74, 110
2, 104348, Note_off_c, 0, 74, 100
2, 104352, Note_on_c, 0, 86, 110
2, 104444, Note_off_c, 0, 86, 100
2, 104448, Note_on_c, 0, 86, 110
2, 104448, Note_on_c, 0, 74, 110
2, 104828, Note_off_c, 0, 86, 100
2, 104828, Note_off_c, 0, 74, 100
2, 104832, Note_on_c, 0, 72, 110
2, 104832, Note_on_c, 0, 78, 110
2, 105212, Note_off_c, 0, 72, 100
2, 105212, Note_off_c, 0, 78, 100
2, 105216, Note_on_c, 0, 71, 110
2, 105216, Note_on_c, 0, 83, 110
2, 105596, Note_off_c, 0, 71, 100
2, 105596, Note_off_c, 0, 83, 100
2, 105600, Note_on_c, 0, 69, 110
2, 105600, Note_on_c, 0, 74, 110
2, 105980, Note_off_c, 0, 69, 100
2, 105980, Note_off_c, 0, 74, 100
2, 105984, Note_on_c, 0, 67, 110
2, 105984, Note_on_c, 0, 79, 110
2, 106364, Note_off_c, 0, 67, 100
2, 106364, Note_off_c, 0, 79, 100
2, 106368, Note_on_c, 0, 66, 110
2, 106368, Note_on_c, 0, 71, 110
2, 106748, Note_off_c, 0, 66, 100
2, 106748, Note_off_c, 0, 71, 100
2, 106752, Note_on_c, 0, 76, 110
2, 106752, Note_on_c, 0, 64, 110
2, 107132, Note_off_c, 0, 76, 100
2, 107132, Note_off_c, 0, 64, 100
2, 107136, Note_on_c, 0, 62, 110
2, 107136, Note_on_c, 0, 67, 110
2, 107516, Note_off_c, 0, 62, 100
2, 107516, Note_off_c, 0, 67, 100
2, 107520, Note_on_c, 0, 72, 110
2, 107520, Note_on_c, 0, 60, 110
2, 107900, Note_off_c, 0, 72, 100
2, 107900, Note_off_c, 0, 60, 100
2, 107904, Note_on_c, 0, 59, 110
2, 107904, Note_on_c, 0, 64, 110
2, 108284, Note_off_c, 0, 59, 100
2, 108284, Note_off_c, 0, 64, 100
2, 108288, Note_on_c, 0, 57, 110
2, 108288, Note_on_c, 0, 69, 110
2, 108668, Note_off_c, 0, 57, 100
2, 108668, Note_off_c, 0, 69, 100
2, 108672, Note_on_c, 0, 61, 110
2, 108672, Note_on_c, 0, 55, 110
2, 109052, Note_off_c, 0, 61, 100
2, 109052, Note_off_c, 0, 55, 100
2, 109056, Note_on_c, 0, 62, 110
2, 109056, Note_on_c, 0, 54, 110
2, 109436, Note_off_c, 0, 62, 100
2, 109436, Note_off_c, 0, 54, 100
2, 109440, Note_on_c, 0, 62, 110
2, 109440, Note_on_c, 0, 54, 110
2, 109440, Note_on_c, 0, 50, 110
2, 109820, Note_off_c, 0, 62, 100
2, 109820, Note_off_c, 0, 54, 100
2, 109820, Note_off_c, 0, 50, 100
2, 109824, Note_on_c, 0, 62, 110
2, 109824, Note_on_c, 0, 55, 110
2, 109824, Note_on_c, 0, 52, 110
2, 110204, Note_off_c, 0, 62, 100
2, 110204, Note_off_c, 0, 55, 100
2, 110204, Note_off_c, 0, 52, 100
2, 110208, Note_on_c, 0, 62, 110
2, 110208, Note_on_c, 0, 57, 110
2, 110208, Note_on_c, 0, 54, 110
2, 110588, Note_off_c, 0, 62, 100
2, 110588, Note_off_c, 0, 57, 100
2, 110588, Note_off_c, 0, 54, 100
2, 110592, Note_on_c, 0, 62, 120
2, 110592, Note_on_c, 0, 59, 120
2, 110592, Note_on_c, 0, 55, 120
2, 110972, Note_off_c, 0, 62, 100
2, 110972, Note_off_c, 0, 59, 100
2, 110972, Note_off_c, 0, 55, 100
2, 111360, Note_on_c, 0, 55, 120
2, 111484, Note_off_c, 0, 55, 100
2, 111488, Note_on_c, 0, 59, 120
2, 111612, Note_off_c, 0, 59, 100
2, 111616, Note_on_c, 0, 62, 120
2, 111740, Note_off_c, 0, 62, 100
2, 111744, Note_on_c, 0, 67, 120
2, 111836, Note_off_c, 0, 67, 100
2, 111840, Note_on_c, 0, 71, 120
2, 111932, Note_off_c, 0, 71, 100
2, 111936, Note_on_c, 0, 74, 120
2, 112028, Note_off_c, 0, 74, 100
2, 112032, Note_on_c, 0, 79, 120
2, 112124, Note_off_c, 0, 79, 100
2, 112128, Note_on_c, 0, 67, 120
2, 112508, Note_off_c, 0, 67, 100
2, 112896, Note_on_c, 0, 55, 120
2, 113020, Note_off_c, 0, 55, 100
2, 113024, Note_on_c, 0, 59, 120
2, 113148, Note_off_c, 0, 59, 100
2, 113152, Note_on_c, 0, 63, 120
2, 113276, Note_off_c, 0, 63, 100
2, 113280, Note_on_c, 0, 67, 120
2, 113372, Note_off_c, 0, 67, 100
2, 113376, Note_on_c, 0, 71, 120
2, 113468, Note_off_c, 0, 71, 100
2, 113472, Note_on_c, 0, 75, 120
2, 113564, Note_off_c, 0, 75, 100
2, 113568, Note_on_c, 0, 79, 120
2, 113660, Note_off_c, 0, 79, 100
2, 113664, Note_on_c, 0, 67, 120
2, 114044, Note_off_c, 0, 67, 100
2, 114432, Note_on_c, 0, 55, 120
2, 114556, Note_off_c, 0, 55, 100
2, 114560, Note_on_c, 0, 59, 120
2, 114684, Note_off_c, 0, 59, 100
2, 114688, Note_on_c, 0, 64, 120
2, 114812, Note_off_c, 0, 64, 100
2, 114816, Note_on_c, 0, 67, 120
2, 114908, Note_off_c, 0, 67, 100
2, 114912, Note_on_c, 0, 71, 120
2, 115004, Note_off_c, 0, 71, 100
2, 115008, Note_on_c, 0, 76, 120
2, 115100, Note_off_c, 0, 76, 100
2, 115104, Note_on_c, 0, 79, 120
2, 115196, Note_off_c, 0, 79, 100
2, 115200, Note_on_c, 0, 72, 120
2, 115200, Note_on_c, 0, 60, 120
2, 115580, Note_off_c, 0, 72, 100
2, 115580, Note_off_c, 0, 60, 100
2, 115968, Note_on_c, 0, 74, 120
2, 115968, Note_on_c, 0, 62, 120
2, 116348, Note_off_c, 0, 74, 100
2, 116348, Note_off_c, 0, 62, 100
2, 116736, Note_on_c, 0, 67, 120
2, 116736, Note_on_c, 0, 55, 120
2, 117116, Note_off_c, 0, 67, 100
2, 117116, Note_off_c, 0, 55, 100
2, 117504, Note_on_c, 0, 60, 80
2, 117884, Note_off_c, 0, 60, 100
2, 117888, Note_on_c, 0, 60, 80
2, 118268, Note_off_c, 0, 60, 100
2, 118272, Note_on_c, 0, 62, 80
2, 118320, Note_on_c, 0, 60, 80
2, 118364, Note_off_c, 0, 62, 100
2, 118368, Note_on_c, 0, 62, 80
2, 118412, Note_off_c, 0, 60, 100
2, 118416, Note_on_c, 0, 60, 80
2, 118460, Note_off_c, 0, 62, 100
2, 118464, Note_on_c, 0, 59, 80
2, 118508, Note_off_c, 0, 60, 100
2, 118556, Note_off_c, 0, 59, 100
2, 118560, Note_on_c, 0, 60, 80
2, 118652, Note_off_c, 0, 60, 100
2, 118656, Note_on_c, 0, 57, 80
2, 119036, Note_off_c, 0, 57, 100
2, 119040, Note_on_c, 0, 66, 70
2, 119040, Note_on_c, 0, 60, 70
2, 119804, Note_off_c, 0, 66, 100
2, 119804, Note_off_c, 0, 60, 100
2, 119808, Note_on_c, 0, 67, 70
2, 119808, Note_on_c, 0, 59, 70
2, 120188, Note_off_c, 0, 67, 100
2, 120188, Note_off_c, 0, 59, 100
2, 120576, Note_on_c, 0, 60, 80
2, 120956, Note_off_c, 0, 60, 100
2, 120960, Note_on_c, 0, 60, 80
2, 121340, Note_off_c, 0, 60, 100
2, 121344, Note_on_c, 0, 62, 80
2, 121392, Note_on_c, 0, 60, 80
2, 121436, Note_off_c, 0, 62, 100
2, 121440, Note_on_c, 0, 62, 80
2, 121484, Note_off_c, 0, 60, 100
2, 121488, Note_on_c, 0, 60, 80
2, 121532, Note_off_c, 0, 62, 100
2, 121536, Note_on_c, 0, 59, 80
2, 121580, Note_off_c, 0, 60, 100
2, 121628, Note_off_c, 0, 59, 100
2, 121632, Note_on_c, 0, 60, 80
2, 121724, Note_off_c, 0, 60, 100
2, 121728, Note_on_c, 0, 57, 80
2, 122108, Note_off_c, 0, 57, 100
2, 122112, Note_on_c, 0, 66, 70
2, 122112, Note_on_c, 0, 69, 70
2, 122876, Note_off_c, 0, 66, 100
2, 122876, Note_off_c, 0, 69, 100
2, 122880, Note_on_c, 0, 67, 70
2, 122880, Note_on_c, 0, 71, 70
2, 123260, Note_off_c, 0, 67, 100
2, 123260, Note_off_c, 0, 71, 100
2, 123648, Note_on_c, 0, 60, 110
2, 124028, Note_off_c, 0, 60, 100
2, 124032, Note_on_c, 0, 60, 110
2, 124412, Note_off_c, 0, 60, 100
2, 124416, Note_on_c, 0, 62, 110
2, 124464, Note_on_c, 0, 60, 110
2, 124508, Note_off_c, 0, 62, 100
2, 124512, Note_on_c, 0, 62, 110
2, 124556, Note_off_c, 0, 60, 100
2, 124560, Note_on_c, 0, 60, 110
2, 124604, Note_off_c, 0, 62, 100
2, 124608, Note_on_c, 0, 59, 110
2, 124652, Note_off_c, 0, 60, 100
2, 124700, Note_off_c, 0, 59, 100
2, 124704, Note_on_c, 0, 60, 110
2, 124796, Note_off_c, 0, 60, 100
2, 124800, Note_on_c, 0, 57, 110
2, 125180, Note_off_c, 0, 57, 100
2, 125184, Note_on_c, 0, 67, 110
2, 125232, Note_on_c, 0, 66, 110
2, 125276, Note_off_c, 0, 67, 100
2, 125280, Note_on_c, 0, 67, 110
2, 125324, Note_off_c, 0, 66, 100
2, 125328, Note_on_c, 0, 66, 110
2, 125372, Note_off_c, 0, 67, 100
2, 125376, Note_on_c, 0, 64, 110
2, 125420, Note_off_c, 0, 66, 100
2, 125468, Note_off_c, 0, 64, 100
2, 125472, Note_on_c, 0, 66, 110
2, 125564, Note_off_c, 0, 66, 100
2, 125568, Note_on_c, 0, 62, 110
2, 125948, Note_off_c, 0, 62, 100
2, 125952, Note_on_c, 0, 72, 110
2, 126000, Note_on_c, 0, 71, 110
2, 126044, Note_off_c, 0, 72, 100
2, 126048, Note_on_c, 0, 72, 110
2, 126092, Note_off_c, 0, 71, 100
2, 126096, Note_on_c, 0, 71, 110
2, 126140, Note_off_c, 0, 72, 100
2, 126144, Note_on_c, 0, 69, 110
2, 126188, Note_off_c, 0, 71, 100
2, 126236, Note_off_c, 0, 69, 100
2, 126240, Note_on_c, 0, 71, 110
2, 126332, Note_off_c, 0, 71, 100
2, 126336, Note_on_c, 0, 67, 110
2, 126716, Note_off_c, 0, 67, 100
2, 126720, Note_on_c, 0, 77, 110
2, 126768, Note_on_c, 0, 76, 110
2, 126812, Note_off_c, 0, 77, 100
2, 126816, Note_on_c, 0, 77, 110
2, 126860, Note_off_c, 0, 76, 100
2, 126864, Note_on_c, 0, 76, 110
2, 126908, Note_off_c, 0, 77, 100
2, 126912, Note_on_c, 0, 75, 110
2, 126956, Note_off_c, 0, 76, 100
2, 127004, Note_off_c, 0, 75, 100
2, 127008, Note_on_c, 0, 76, 110
2, 127100, Note_off_c, 0, 76, 100
2, 127104, Note_on_c, 0, 73, 110
2, 127484, Note_off_c, 0, 73, 100
2, 127488, Note_on_c, 0, 74, 110
2, 127868, Note_off_c, 0, 74, 100
2, 128256, Note_on_c, 0, 78, 110
2, 128256, Note_on_c, 0, 74, 110
2, 128256, Note_on_c, 0, 72, 110
2, 128256, Note_on_c, 0, 69, 110
2, 128636, Note_off_c, 0, 78, 100
2, 128636, Note_off_c, 0, 74, 100
2, 128636, Note_off_c, 0, 72, 100
2, 128636, Note_off_c, 0, 69, 100
2, 129024, Note_on_c, 0, 67, 120
2, 129116, Note_off_c, 0, 67, 100
2, 129120, Note_on_c, 0, 79, 120
2, 129212, Note_off_c, 0, 79, 100
2, 129216, Note_on_c, 0, 66, 120
2, 129308, Note_off_c, 0, 66, 100
2, 129312, Note_on_c, 0, 78, 120
2, 129404, Note_off_c, 0, 78, 100
2, 129408, Note_on_c, 0, 67, 120
2, 129500, Note_off_c, 0, 67, 100
2, 129504, Note_on_c, 0, 79, 120
2, 129596, Note_off_c, 0, 79, 100
2, 129600, Note_on_c, 0, 69, 120
2, 129692, Note_off_c, 0, 69, 100
2, 129696, Note_on_c, 0, 81, 120
2, 129788, Note_off_c, 0, 81, 100
2, 129792, Note_on_c, 0, 71, 120
2, 129884, Note_off_c, 0, 71, 100
2, 129888, Note_on_c, 0, 83, 120
2, 129980, Note_off_c, 0, 83, 100
2, 129984, Note_on_c, 0, 72, 120
2, 130076, Note_off_c, 0, 72, 100
2, 130080, Note_on_c, 0, 84, 120
2, 130172, Note_off_c, 0, 84, 100
2, 130176, Note_on_c, 0, 73, 120
2, 130268, Note_off_c, 0, 73, 100
2, 130272, Note_on_c, 0, 85, 120
2, 130364, Note_off_c, 0, 85, 100
2, 130368, Note_on_c, 0, 74, 120
2, 130460, Note_off_c, 0, 74, 100
2, 130464, Note_on_c, 0, 86, 120
2, 130556, Note_off_c, 0, 86, 100
2, 130560, Note_on_c, 0, 76, 120
2, 130652, Note_off_c, 0, 76, 100
2, 130656, Note_on_c, 0, 88, 120
2, 130748, Note_off_c, 0, 88, 100
2, 130752, Note_on_c, 0, 74, 120
2, 130844, Note_off_c, 0, 74, 100
2, 130848, Note_on_c, 0, 86, 120
2, 130940, Note_off_c, 0, 86, 100
2, 130944, Note_on_c, 0, 72, 120
2, 131036, Note_off_c, 0, 72, 100
2, 131040, Note_on_c, 0, 84, 120
2, 131132, Note_off_c, 0, 84, 100
2, 131136, Note_on_c, 0, 71, 120
2, 131228, Note_off_c, 0, 71, 100
2, 131232, Note_on_c, 0, 83, 120
2, 131324, Note_off_c, 0, 83, 100
2, 131328, Note_on_c, 0, 69, 120
2, 131420, Note_off_c, 0, 69, 100
2, 131424, Note_on_c, 0, 81, 120
2, 131516, Note_off_c, 0, 81, 100
2, 131520, Note_on_c, 0, 71, 120
2, 131612, Note_off_c, 0, 71, 100
2, 131616, Note_on_c, 0, 83, 120
2, 131708, Note_off_c, 0, 83, 100
2, 131712, Note_on_c, 0, 72, 120
2, 131804, Note_off_c, 0, 72, 100
2, 131808, Note_on_c, 0, 84, 120
2, 131900, Note_off_c, 0, 84, 100
2, 131904, Note_on_c, 0, 69, 120
2, 131996, Note_off_c, 0, 69, 100
2, 132000, Note_on_c, 0, 81, 120
2, 132092, Note_off_c, 0, 81, 100
2, 132096, Note_on_c, 0, 67, 120
2, 132188, Note_off_c, 0, 67, 100
2, 132192, Note_on_c, 0, 79, 120
2, 132284, Note_off_c, 0, 79, 100
2, 132288, Note_on_c, 0, 66, 120
2, 132380, Note_off_c, 0, 66, 100
2, 132384, Note_on_c, 0, 78, 120
2, 132476, Note_off_c, 0, 78, 100
2, 132480, Note_on_c, 0, 64, 120
2, 132572, Note_off_c, 0, 64, 100
2, 132576, Note_on_c, 0, 76, 120
2, 132668, Note_off_c, 0, 76, 100
2, 132672, Note_on_c, 0, 62, 120
2, 132764, Note_off_c, 0, 62, 100
2, 132768, Note_on_c, 0, 74, 120
2, 132860, Note_off_c, 0, 74, 100
2, 132864, Note_on_c, 0, 60, 120
2, 132956, Note_off_c, 0, 60, 100
2, 132960, Note_on_c, 0, 72, 120
2, 133052, Note_off_c, 0, 72, 100
2, 133056, Note_on_c, 0, 59, 120
2, 133148, Note_off_c, 0, 59, 100
2, 133152, Note_on_c, 0, 71, 120
2, 133244, Note_off_c, 0, 71, 100
2, 133248, Note_on_c, 0, 57, 120
2, 133340, Note_off_c, 0, 57, 100
2, 133344, Note_on_c, 0, 69, 120
2, 133436, Note_off_c, 0, 69, 100
2, 133440, Note_on_c, 0, 55, 120
2, 133532, Note_off_c, 0, 55, 100
2, 133536, Note_on_c, 0, 67, 120
2, 133628, Note_off_c, 0, 67, 100
2, 133632, Note_on_c, 0, 54, 120
2, 133724, Note_off_c, 0, 54, 100
2, 133728, Note_on_c, 0, 66, 120
2, 133820, Note_off_c, 0, 66, 100
2, 133824, Note_on_c, 0, 52, 120
2, 133916, Note_off_c, 0, 52, 100
2, 133920, Note_on_c, 0, 64, 120
2, 134012, Note_off_c, 0, 64, 100
2, 134016, Note_on_c, 0, 50, 120
2, 134108, Note_off_c, 0, 50, 100
2, 134112, Note_on_c, 0, 62, 120
2, 134204, Note_off_c, 0, 62, 100
2, 134208, Note_on_c, 0, 49, 120
2, 134300, Note_off_c, 0, 49, 100
2, 134304, Note_on_c, 0, 61, 120
2, 134396, Note_off_c, 0, 61, 100
2, 134400, Note_on_c, 0, 50, 120
2, 134492, Note_off_c, 0, 50, 100
2, 134496, Note_on_c, 0, 62, 120
2, 134588, Note_off_c, 0, 62, 100
2, 134592, Note_on_c, 0, 48, 120
2, 134684, Note_off_c, 0, 48, 100
2, 134688, Note_on_c, 0, 60, 120
2, 134780, Note_off_c, 0, 60, 100
2, 134784, Note_on_c, 0, 47, 120
2, 134876, Note_off_c, 0, 47, 100
2, 134880, Note_on_c, 0, 59, 120
2, 134972, Note_off_c, 0, 59, 100
2, 134976, Note_on_c, 0, 45, 120
2, 135068, Note_off_c, 0, 45, 100
2, 135072, Note_on_c, 0, 57, 120
2, 135164, Note_off_c, 0, 57, 100
2, 135168, Note_on_c, 0, 43, 120
2, 135168, Note_on_c, 0, 55, 120
2, 135548, Note_off_c, 0, 43, 100
2, 135548, Note_off_c, 0, 55, 100
2, 135936, Note_on_c, 0, 78, 120
2, 135936, Note_on_c, 0, 74, 120
2, 135936, Note_on_c, 0, 72, 120
2, 135936, Note_on_c, 0, 69, 120
2, 135936, Note_on_c, 0, 66, 120
2, 136316, Note_off_c, 0, 78, 100
2, 136316, Note_off_c, 0, 74, 100
2, 136316, Note_off_c, 0, 72, 100
2, 136316, Note_off_c, 0, 69, 100
2, 136316, Note_off_c, 0, 66, 100
2, 136704, Note_on_c, 0, 79, 120
2, 136704, Note_on_c, 0, 74, 120
2, 136704, Note_on_c, 0, 71, 120
2, 136704, Note_on_c, 0, 67, 120
2, 137084, Note_off_c, 0, 79, 100
2, 137084, Note_off_c, 0, 74, 100
2, 137084, Note_off_c, 0, 71, 100
2, 137084, Note_off_c, 0, 67, 100
2, 138240, Note_on_c, 0, 64, 80
2, 138240, Note_on_c, 0, 60, 80
2, 139004, Note_off_c, 0, 64, 100
2, 139004, Note_off_c, 0, 60, 100
2, 139008, Note_on_c, 0, 62, 80
2, 139008, Note_on_c, 0, 59, 80
2, 139100, Note_off_c, 0, 62, 100
2, 139100, Note_off_c, 0, 59, 100
2, 139104, Note_on_c, 0, 64, 80
2, 139104, Note_on_c, 0, 60, 80
2, 139196, Note_off_c, 0, 64, 100
2, 139196, Note_off_c, 0, 60, 100
2, 139200, Note_on_c, 0, 62, 80
2, 139200, Note_on_c, 0, 59, 80
2, 139292, Note_off_c, 0, 62, 100
2, 139292, Note_off_c, 0, 59, 100
2, 139296, Note_on_c, 0, 64, 80
2, 139296, Note_on_c, 0, 60, 80
2, 139388, Note_off_c, 0, 64, 100
2, 139388, Note_off_c, 0, 60, 100
2, 139392, Note_on_c, 0, 65, 80
2, 139392, Note_on_c, 0, 62, 80
2, 139580, Note_off_c, 0, 65, 100
2, 139580, Note_off_c, 0, 62, 100
2, 139584, Note_on_c, 0, 64, 80
2, 139584, Note_on_c, 0, 60, 80
2, 139772, Note_off_c, 0, 64, 100
2, 139772, Note_off_c, 0, 60, 100
2, 139776, Note_on_c, 0, 62, 80
2, 139776, Note_on_c, 0, 59, 80
2, 140156, Note_off_c, 0, 62, 100
2, 140156, Note_off_c, 0, 59, 100
2, 140160, Note_on_c, 0, 59, 80
2, 140160, Note_on_c, 0, 67, 80
2, 140540, Note_off_c, 0, 59, 100
2, 140540, Note_off_c, 0, 67, 100
2, 141312, Note_on_c, 0, 65, 80
2, 141312, Note_on_c, 0, 62, 80
2, 142076, Note_off_c, 0, 65, 100
2, 142076, Note_off_c, 0, 62, 100
2, 142080, Note_on_c, 0, 61, 80
2, 142080, Note_on_c, 0, 64, 80
2, 142172, Note_off_c, 0, 61, 100
2, 142172, Note_off_c, 0, 64, 100
2, 142176, Note_on_c, 0, 62, 80
2, 142176, Note_on_c, 0, 65, 80
2, 142268, Note_off_c, 0, 62, 100
2, 142268, Note_off_c, 0, 65, 100
2, 142272, Note_on_c, 0, 61, 80
2, 142272, Note_on_c, 0, 64, 80
2, 142364, Note_off_c, 0, 61, 100
2, 142364, Note_off_c, 0, 64, 100
2, 142368, Note_on_c, 0, 62, 80
2, 142368, Note_on_c, 0, 65, 80
2, 142460, Note_off_c, 0, 62, 100
2, 142460, Note_off_c, 0, 65, 100
2, 142464, Note_on_c, 0, 67, 80
2, 142464, Note_on_c, 0, 64, 80
2, 142652, Note_off_c, 0, 67, 100
2, 142652, Note_off_c, 0, 64, 100
2, 142656, Note_on_c, 0, 65, 80
2, 142656, Note_on_c, 0, 62, 80
2, 142844, Note_off_c, 0, 65, 100
2, 142844, Note_off_c, 0, 62, 100
2, 142848, Note_on_c, 0, 64, 80
2, 142848, Note_on_c, 0, 60, 80
2, 143228, Note_off_c, 0, 64, 100
2, 143228, Note_off_c, 0, 60, 100
2, 143232, Note_on_c, 0, 64, 80
2, 143232, Note_on_c, 0, 72, 80
2, 143612, Note_off_c, 0, 64, 100
2, 143612, Note_off_c, 0, 72, 100
2, 144384, Note_on_c, 0, 72, 80
2, 144384, Note_on_c, 0, 64, 80
2, 145148, Note_off_c, 0, 72, 100
2, 145148, Note_off_c, 0, 64, 100
2, 145152, Note_on_c, 0, 65, 80
2, 145152, Note_on_c, 0, 71, 80
2, 145244, Note_off_c, 0, 71, 100
2, 145248, Note_on_c, 0, 72, 80
2, 145340, Note_off_c, 0, 72, 100
2, 145344, Note_on_c, 0, 71, 80
2, 145436, Note_off_c, 0, 71, 100
2, 145440, Note_on_c, 0, 72, 80
2, 145532, Note_off_c, 0, 72, 100
2, 145536, Note_on_c, 0, 74, 80
2, 145724, Note_off_c, 0, 74, 100
2, 145728, Note_on_c, 0, 71, 80
2, 145916, Note_off_c, 0, 65, 100
2, 145916, Note_off_c, 0, 71, 100
2, 145920, Note_on_c, 0, 67, 80
2, 146300, Note_off_c, 0, 67, 100
2, 146304, Note_on_c, 0, 72, 80
2, 146304, Note_on_c, 0, 64, 80
2, 146684, Note_off_c, 0, 72, 100
2, 146684, Note_off_c, 0, 64, 100
2, 146688, Note_on_c, 0, 65, 80
2, 146688, Note_on_c, 0, 71, 80
2, 146780, Note_off_c, 0, 71, 100
2, 146784, Note_on_c, 0, 72, 80
2, 146876, Note_off_c, 0, 72, 100
2, 146880, Note_on_c, 0, 71, 80
2, 146972, Note_off_c, 0, 71, 100
2, 146976, Note_on_c, 0, 72, 80
2, 147068, Note_off_c, 0, 72, 100
2, 147072, Note_on_c, 0, 74, 80
2, 147260, Note_off_c, 0, 74, 100
2, 147264, Note_on_c, 0, 71, 80
2, 147452, Note_off_c, 0, 65, 100
2, 147452, Note_off_c, 0, 71, 100
2, 147456, Note_on_c, 0, 67, 80
2, 147836, Note_off_c, 0, 67, 100
2, 147840, Note_on_c, 0, 72, 80
2, 148220, Note_off_c, 0, 72, 100
2, 148224, Note_on_c, 0, 62, 80
2, 148224, Note_on_c, 0, 60, 80
2, 148604, Note_off_c, 0, 62, 100
2, 148608, Note_on_c, 0, 69, 80
2, 148988, Note_off_c, 0, 60, 100
2, 148988, Note_off_c, 0, 69, 100
2, 148992, Note_on_c, 0, 62, 80
2, 148992, Note_on_c, 0, 59, 80
2, 149372, Note_off_c, 0, 62, 100
2, 149376, Note_on_c, 0, 67, 80
2, 149756, Note_off_c, 0, 59, 100
2, 149756, Note_off_c, 0, 67, 100
2, 149760, Note_on_c, 0, 64, 80
2, 149760, Note_on_c, 0, 60, 80
2, 150140, Note_off_c, 0, 64, 100
2, 150140, Note_off_c, 0, 60, 100
2, 150912, Note_on_c, 0, 55, 101
2, 150912, Note_on_c, 0, 64, 80
2, 150912, Note_on_c, 0, 67, 80
2, 151292, Note_off_c, 0, 64, 100
2, 151296, Note_on_c, 0, 62, 80
2, 151676, Note_off_c, 0, 67, 100
2, 151676, Note_off_c, 0, 62, 100
2, 151680, Note_on_c, 0, 62, 80
2, 151680, Note_on_c, 0, 65, 80
2, 152060, Note_off_c, 0, 55, 100
2, 152060, Note_off_c, 0, 62, 100
2, 152060, Note_off_c, 0, 65, 100
2, 152064, Note_on_c, 0, 60, 80
2, 152064, Note_on_c, 0, 64, 80
2, 152444, Note_off_c, 0, 60, 100
2, 152444, Note_off_c, 0, 64, 100
2, 152448, Note_on_c, 0, 55, 103
2, 152448, Note_on_c, 0, 64, 80
2, 152448, Note_on_c, 0, 67, 80
2, 152828, Note_off_c, 0, 64, 100
2, 152832, Note_on_c, 0, 62, 80
2, 153212, Note_off_c, 0, 67, 100
2, 153212, Note_off_c, 0, 62, 100
2, 153216, Note_on_c, 0, 62, 80
2, 153216, Note_on_c, 0, 65, 80
2, 153596, Note_off_c, 0, 55, 100
2, 153596, Note_off_c, 0, 62, 100
2, 153596, Note_off_c, 0, 65, 100
2, 153600, Note_on_c, 0, 64, 80
2, 153600, Note_on_c, 0, 60, 80
2, 153600, Note_on_c, 0, 55, 80
2, 153980, Note_off_c, 0, 64, 100
2, 153980, Note_off_c, 0, 60, 100
2, 153980, Note_off_c, 0, 55, 100
2, 154368, Note_on_c, 0, 69, 84
2, 154368, Note_on_c, 0, 64, 84
2, 154368, Note_on_c, 0, 60, 84
2, 154368, Note_on_c, 0, 57, 84
2, 154748, Note_off_c, 0, 69, 100
2, 154748, Note_off_c, 0, 64, 100
2, 154748, Note_off_c, 0, 60, 100
2, 154748, Note_off_c, 0, 57, 100
2, 155136, Note_on_c, 0, 67, 94
2, 155136, Note_on_c, 0, 64, 94
2, 155136, Note_on_c, 0, 60, 94
2, 155136, Note_on_c, 0, 55, 94
2, 155516, Note_off_c, 0, 67, 100
2, 155516, Note_off_c, 0, 64, 100
2, 155516, Note_off_c, 0, 60, 100
2, 155516, Note_off_c, 0, 55, 100
2, 155904, Note_on_c, 0, 59, 104
2, 155904, Note_on_c, 0, 55, 104
2, 155904, Note_on_c, 0, 53, 104
2, 155904, Note_on_c, 0, 50, 104
2, 156284, Note_off_c, 0, 59, 100
2, 156284, Note_off_c, 0, 55, 100
2, 156284, Note_off_c, 0, 53, 100
2, 156284, Note_off_c, 0, 50, 100
2, 156672, Note_on_c, 0, 60, 110
2, 156764, Note_off_c, 0, 60, 100
2, 156768, Note_on_c, 0, 64, 110
2, 156860, Note_off_c, 0, 64, 100
2, 156864, Note_on_c, 0, 67, 110
2, 156956, Note_off_c, 0, 67, 100
2, 156960, Note_on_c, 0, 72, 110
2, 157052, Note_off_c, 0, 72, 100
2, 157056, Note_on_c, 0, 64, 110
2, 157056, Note_on_c, 0, 60, 110
2, 157148, Note_off_c, 0, 64, 100
2, 157152, Note_on_c, 0, 76, 110
2, 157244, Note_off_c, 0, 60, 100
2, 157244, Note_off_c, 0, 76, 100
2, 157248, Note_on_c, 0, 64, 110
2, 157248, Note_on_c, 0, 60, 110
2, 157340, Note_off_c, 0, 64, 100
2, 157344, Note_on_c, 0, 76, 110
2, 157436, Note_off_c, 0, 60, 100
2, 157436, Note_off_c, 0, 76, 100
2, 157440, Note_on_c, 0, 64, 110
2, 157440, Note_on_c, 0, 60, 110
2, 157532, Note_off_c, 0, 64, 100
2, 157536, Note_on_c, 0, 67, 110
2, 157628, Note_off_c, 0, 67, 100
2, 157632, Note_on_c, 0, 72, 110
2, 157724, Note_off_c, 0, 72, 100
2, 157728, Note_on_c, 0, 76, 110
2, 157820, Note_off_c, 0, 60, 100
2, 157820, Note_off_c, 0, 76, 100
2, 157824, Note_on_c, 0, 67, 110
2, 157824, Note_on_c, 0, 64, 110
2, 157916, Note_off_c, 0, 67, 100
2, 157920, Note_on_c, 0, 79, 110
2, 158012, Note_off_c, 0, 64, 100
2, 158012, Note_off_c, 0, 79, 100
2, 158016, Note_on_c, 0, 67, 110
2, 158016, Note_on_c, 0, 64, 110
2, 158108, Note_off_c, 0, 67, 100
2, 158112, Note_on_c, 0, 79, 110
2, 158204, Note_off_c, 0, 64, 100
2, 158204, Note_off_c, 0, 79, 100
2, 158208, Note_on_c, 0, 64, 110
2, 158208, Note_on_c, 0, 67, 110
2, 158300, Note_off_c, 0, 67, 100
2, 158304, Note_on_c, 0, 72, 110
2, 158396, Note_off_c, 0, 72, 100
2, 158400, Note_on_c, 0, 76, 110
2, 158492, Note_off_c, 0, 76, 100
2, 158496, Note_on_c, 0, 79, 110
2, 158588, Note_off_c, 0, 64, 100
2, 158588, Note_off_c, 0, 79, 100
2, 158592, Note_on_c, 0, 67, 110
2, 158592, Note_on_c, 0, 72, 110
2, 158684, Note_off_c, 0, 72, 100
2, 158688, Note_on_c, 0, 84, 110
2, 158780, Note_off_c, 0, 67, 100
2, 158780, Note_off_c, 0, 84, 100
2, 158784, Note_on_c, 0, 67, 110
2, 158784, Note_on_c, 0, 72, 110
2, 158876, Note_off_c, 0, 72, 100
2, 158880, Note_on_c, 0, 84, 110
2, 158972, Note_off_c, 0, 67, 100
2, 158972, Note_off_c, 0, 84, 100
2, 158976, Note_on_c, 0, 67, 110
2, 158976, Note_on_c, 0, 72, 110
2, 159068, Note_off_c, 0, 72, 100
2, 159072, Note_on_c, 0, 76, 110
2, 159164, Note_off_c, 0, 76, 100
2, 159168, Note_on_c, 0, 79, 110
2, 159260, Note_off_c, 0, 79, 100
2, 159264, Note_on_c, 0, 84, 110
2, 159356, Note_off_c, 0, 67, 100
2, 159356, Note_off_c, 0, 84, 100
2, 159360, Note_on_c, 0, 72, 110
2, 159360, Note_on_c, 0, 76, 110
2, 159452, Note_off_c, 0, 76, 100
2, 159456, Note_on_c, 0, 88, 110
2, 159548, Note_off_c, 0, 72, 100
2, 159548, Note_off_c, 0, 88, 100
2, 159552, Note_on_c, 0, 72, 110
2, 159552, Note_on_c, 0, 76, 110
2, 159644, Note_off_c, 0, 76, 100
2, 159648, Note_on_c, 0, 88, 110
2, 159740, Note_off_c, 0, 72, 100
2, 159740, Note_off_c, 0, 88, 100
2, 159744, Note_on_c, 0, 76, 110
2, 159744, Note_on_c, 0, 72, 110
2, 159836, Note_off_c, 0, 76, 100
2, 159840, Note_on_c, 0, 88, 110
2, 159932, Note_off_c, 0, 72, 100
2, 159932, Note_off_c, 0, 88, 100
2, 159936, Note_on_c, 0, 74, 110
2, 159936, Note_on_c, 0, 71, 110
2, 160028, Note_off_c, 0, 74, 100
2, 160032, Note_on_c, 0, 86, 110
2, 160124, Note_off_c, 0, 71, 100
2, 160124, Note_off_c, 0, 86, 100
2, 160128, Note_on_c, 0, 74, 110
2, 160128, Note_on_c, 0, 71, 110
2, 160220, Note_off_c, 0, 74, 100
2, 160224, Note_on_c, 0, 86, 110
2, 160316, Note_off_c, 0, 71, 100
2, 160316, Note_off_c, 0, 86, 100
2, 160320, Note_on_c, 0, 72, 110
2, 160320, Note_on_c, 0, 69, 110
2, 160412, Note_off_c, 0, 72, 100
2, 160416, Note_on_c, 0, 84, 110
2, 160508, Note_off_c, 0, 69, 100
2, 160508, Note_off_c, 0, 84, 100
2, 160512, Note_on_c, 0, 72, 110
2, 160512, Note_on_c, 0, 69, 110
2, 160604, Note_off_c, 0, 72, 100
2, 160608, Note_on_c, 0, 84, 110
2, 160700, Note_off_c, 0, 69, 100
2, 160700, Note_off_c, 0, 84, 100
2, 160704, Note_on_c, 0, 71, 110
2, 160704, Note_on_c, 0, 67, 110
2, 160796, Note_off_c, 0, 71, 100
2, 160800, Note_on_c, 0, 83, 110
2, 160892, Note_off_c, 0, 67, 100
2, 160892, Note_off_c, 0, 83, 100
2, 160896, Note_on_c, 0, 71, 110
2, 160896, Note_on_c, 0, 67, 110
2, 160988, Note_off_c, 0, 71, 100
2, 160992, Note_on_c, 0, 83, 110
2, 161084, Note_off_c, 0, 67, 100
2, 161084, Note_off_c, 0, 83, 100
2, 161088, Note_on_c, 0, 69, 110
2, 161088, Note_on_c, 0, 65, 110
2, 161180, Note_off_c, 0, 69, 100
2, 161184, Note_on_c, 0, 81, 110
2, 161276, Note_off_c, 0, 65, 100
2, 161276, Note_off_c, 0, 81, 100
2, 161280, Note_on_c, 0, 69, 110
2, 161280, Note_on_c, 0, 65, 110
2, 161372, Note_off_c, 0, 69, 100
2, 161376, Note_on_c, 0, 81, 110
2, 161468, Note_off_c, 0, 65, 100
2, 161468, Note_off_c, 0, 81, 100
2, 161472, Note_on_c, 0, 67, 110
2, 161472, Note_on_c, 0, 64, 110
2, 161564, Note_off_c, 0, 67, 100
2, 161568, Note_on_c, 0, 79, 110
2, 161660, Note_off_c, 0, 64, 100
2, 161660, Note_off_c, 0, 79, 100
2, 161664, Note_on_c, 0, 67, 110
2, 161664, Note_on_c, 0, 64, 110
2, 161756, Note_off_c, 0, 67, 100
2, 161760, Note_on_c, 0, 79, 110
2, 161852, Note_off_c, 0, 64, 100
2, 161852, Note_off_c, 0, 79, 100
2, 161856, Note_on_c, 0, 65, 110
2, 161856, Note_on_c, 0, 62, 110
2, 161948, Note_off_c, 0, 65, 100
2, 161952, Note_on_c, 0, 77, 110
2, 162044, Note_off_c, 0, 62, 100
2, 162044, Note_off_c, 0, 77, 100
2, 162048, Note_on_c, 0, 65, 110
2, 162048, Note_on_c, 0, 62, 110
2, 162140, Note_off_c, 0, 65, 100
2, 162144, Note_on_c, 0, 77, 110
2, 162236, Note_off_c, 0, 62, 100
2, 162236, Note_off_c, 0, 77, 100
2, 162240, Note_on_c, 0, 64, 110
2, 162240, Note_on_c, 0, 60, 110
2, 162332, Note_off_c, 0, 64, 100
2, 162336, Note_on_c, 0, 76, 110
2, 162428, Note_off_c, 0, 60, 100
2, 162428, Note_off_c, 0, 76, 100
2, 162432, Note_on_c, 0, 64, 110
2, 162432, Note_on_c, 0, 60, 110
2, 162524, Note_off_c, 0, 64, 100
2, 162528, Note_on_c, 0, 76, 110
2, 162620, Note_off_c, 0, 60, 100
2, 162620, Note_off_c, 0, 76, 100
2, 162624, Note_on_c, 0, 62, 110
2, 162624, Note_on_c, 0, 59, 110
2, 162716, Note_off_c, 0, 62, 100
2, 162720, Note_on_c, 0, 74, 110
2, 162812, Note_off_c, 0, 59, 100
2, 162812, Note_off_c, 0, 74, 100
2, 162816, Note_on_c, 0, 60, 110
2, 162908, Note_off_c, 0, 60, 100
2, 162912, Note_on_c, 0, 64, 110
2, 163004, Note_off_c, 0, 64, 100
2, 163008, Note_on_c, 0, 67, 110
2, 163100, Note_off_c, 0, 67, 100
2, 163104, Note_on_c, 0, 72, 110
2, 163196, Note_off_c, 0, 72, 100
2, 163200, Note_on_c, 0, 64, 110
2, 163200, Note_on_c, 0, 60, 110
2, 163292, Note_off_c, 0, 64, 100
2, 163296, Note_on_c, 0, 76, 110
2, 163388, Note_off_c, 0, 60, 100
2, 163388, Note_off_c, 0, 76, 100
2, 163392, Note_on_c, 0, 64, 110
2, 163392, Note_on_c, 0, 60, 110
2, 163484, Note_off_c, 0, 64, 100
2, 163488, Note_on_c, 0, 76, 110
2, 163580, Note_off_c, 0, 60, 100
2, 163580, Note_off_c, 0, 76, 100
2, 163584, Note_on_c, 0, 64, 110
2, 163584, Note_on_c, 0, 60, 110
2, 163676, Note_off_c, 0, 64, 100
2, 163680, Note_on_c, 0, 67, 110
2, 163772, Note_off_c, 0, 67, 100
2, 163776, Note_on_c, 0, 72, 110
2, 163868, Note_off_c, 0, 72, 100
2, 163872, Note_on_c, 0, 76, 110
2, 163964, Note_off_c, 0, 60, 100
2, 163964, Note_off_c, 0, 76, 100
2, 163968, Note_on_c, 0, 67, 110
2, 163968, Note_on_c, 0, 64, 110
2, 164060, Note_off_c, 0, 67, 100
2, 164064, Note_on_c, 0, 79, 110
2, 164156, Note_off_c, 0, 64, 100
2, 164156, Note_off_c, 0, 79, 100
2, 164160, Note_on_c, 0, 67, 110
2, 164160, Note_on_c, 0, 64, 110
2, 164252, Note_off_c, 0, 67, 100
2, 164256, Note_on_c, 0, 79, 110
2, 164348, Note_off_c, 0, 64, 100
2, 164348, Note_off_c, 0, 79, 100
2, 164352, Note_on_c, 0, 64, 110
2, 164352, Note_on_c, 0, 67, 110
2, 164444, Note_off_c, 0, 67, 100
2, 164448, Note_on_c, 0, 72, 110
2, 164540, Note_off_c, 0, 72, 100
2, 164544, Note_on_c, 0, 76, 110
2, 164636, Note_off_c, 0, 76, 100
2, 164640, Note_on_c, 0, 79, 110
2, 164732, Note_off_c, 0, 64, 100
2, 164732, Note_off_c, 0, 79, 100
2, 164736, Note_on_c, 0, 67, 110
2, 164736, Note_on_c, 0, 72, 110
2, 164828, Note_off_c, 0, 72, 100
2, 164832, Note_on_c, 0, 84, 110
2, 164924, Note_off_c, 0, 67, 100
2, 164924, Note_off_c, 0, 84, 100
2, 164928, Note_on_c, 0, 67, 110
2, 164928, Note_on_c, 0, 72, 110
2, 165020, Note_off_c, 0, 72, 100
2, 165024, Note_on_c, 0, 84, 110
2, 165116, Note_off_c, 0, 67, 100
2, 165116, Note_off_c, 0, 84, 100
2, 165120, Note_on_c, 0, 67, 110
2, 165120, Note_on_c, 0, 72, 110
2, 165212, Note_off_c, 0, 72, 100
2, 165216, Note_on_c, 0, 76, 110
2, 165308, Note_off_c, 0, 76, 100
2, 165312, Note_on_c, 0, 79, 110
2, 165404, Note_off_c, 0, 79, 100
2, 165408, Note_on_c, 0, 84, 110
2, 165500, Note_off_c, 0, 67, 100
2, 165500, Note_off_c, 0, 84, 100
2, 165504, Note_on_c, 0, 72, 110
2, 165504, Note_on_c, 0, 76, 110
2, 165596, Note_off_c, 0, 76, 100
2, 165600, Note_on_c, 0, 88, 110
2, 165692, Note_off_c, 0, 72, 100
2, 165692, Note_off_c, 0, 88, 100
2, 165696, Note_on_c, 0, 72, 110
2, 165696, Note_on_c, 0, 76, 110
2, 165788, Note_off_c, 0, 76, 100
2, 165792, Note_on_c, 0, 88, 110
2, 165884, Note_off_c, 0, 72, 100
2, 165884, Note_off_c, 0, 88, 100
2, 165888, Note_on_c, 0, 76, 110
2, 165888, Note_on_c, 0, 72, 110
2, 165980, Note_off_c, 0, 76, 100
2, 165984, Note_on_c, 0, 88, 110
2, 166076, Note_off_c, 0, 72, 100
2, 166076, Note_off_c, 0, 88, 100
2, 166080, Note_on_c, 0, 74, 110
2, 166080, Note_on_c, 0, 71, 110
2, 166172, Note_off_c, 0, 74, 100
2, 166176, Note_on_c, 0, 86, 110
2, 166268, Note_off_c, 0, 71, 100
2, 166268, Note_off_c, 0, 86, 100
2, 166272, Note_on_c, 0, 74, 110
2, 166272, Note_on_c, 0, 67, 110
2, 166364, Note_off_c, 0, 74, 100
2, 166368, Note_on_c, 0, 86, 110
2, 166460, Note_off_c, 0, 67, 100
2, 166460, Note_off_c, 0, 86, 100
2, 166464, Note_on_c, 0, 72, 110
2, 166464, Note_on_c, 0, 69, 110
2, 166556, Note_off_c, 0, 72, 100
2, 166560, Note_on_c, 0, 84, 110
2, 166652, Note_off_c, 0, 69, 100
2, 166652, Note_off_c, 0, 84, 100
2, 166656, Note_on_c, 0, 71, 110
2, 166656, Note_on_c, 0, 64, 110
2, 166748, Note_off_c, 0, 71, 100
2, 166752, Note_on_c, 0, 83, 110
2, 166844, Note_off_c, 0, 64, 100
2, 166844, Note_off_c, 0, 83, 100
2, 166848, Note_on_c, 0, 69, 110
2, 166848, Note_on_c, 0, 65, 110
2, 166940, Note_off_c, 0, 69, 100
2, 166944, Note_on_c, 0, 81, 110
2, 167036, Note_off_c, 0, 65, 100
2, 167036, Note_off_c, 0, 81, 100
2, 167040, Note_on_c, 0, 69, 110
2, 167040, Note_on_c, 0, 59, 110
2, 167132, Note_off_c, 0, 69, 100
2, 167136, Note_on_c, 0, 81, 110
2, 167228, Note_off_c, 0, 59, 100
2, 167228, Note_off_c, 0, 81, 100
2, 167232, Note_on_c, 0, 67, 110
2, 167232, Note_on_c, 0, 61, 110
2, 167324, Note_off_c, 0, 67, 100
2, 167328, Note_on_c, 0, 79, 110
2, 167420, Note_off_c, 0, 61, 100
2, 167420, Note_off_c, 0, 79, 100
2, 167424, Note_on_c, 0, 62, 110
2, 167424, Note_on_c, 0, 67, 110
2, 167516, Note_off_c, 0, 67, 100
2, 167520, Note_on_c, 0, 79, 110
2, 167612, Note_off_c, 0, 62, 100
2, 167612, Note_off_c, 0, 79, 100
2, 167616, Note_on_c, 0, 65, 110
2, 167708, Note_off_c, 0, 65, 100
2, 167712, Note_on_c, 0, 77, 110
2, 167804, Note_off_c, 0, 77, 100
2, 167808, Note_on_c, 0, 65, 110
2, 167900, Note_off_c, 0, 65, 100
2, 167904, Note_on_c, 0, 77, 110
2, 167996, Note_off_c, 0, 77, 100
2, 168000, Note_on_c, 0, 64, 110
2, 168092, Note_off_c, 0, 64, 100
2, 168096, Note_on_c, 0, 76, 110
2, 168188, Note_off_c, 0, 76, 100
2, 168192, Note_on_c, 0, 64, 110
2, 168284, Note_off_c, 0, 64, 100
2, 168288, Note_on_c, 0, 76, 110
2, 168380, Note_off_c, 0, 76, 100
2, 168384, Note_on_c, 0, 62, 110
2, 168476, Note_off_c, 0, 62, 100
2, 168480, Note_on_c, 0, 74, 110
2, 168572, Note_off_c, 0, 74, 100
2, 168576, Note_on_c, 0, 62, 110
2, 168668, Note_off_c, 0, 62, 100
2, 168672, Note_on_c, 0, 74, 110
2, 168764, Note_off_c, 0, 74, 100
2, 168768, Note_on_c, 0, 60, 110
2, 168860, Note_off_c, 0, 60, 100
2, 168864, Note_on_c, 0, 72, 110
2, 168956, Note_off_c, 0, 72, 100
2, 168960, Note_on_c, 0, 71, 110
2, 168960, Note_on_c, 0, 59, 110
2, 169340, Note_off_c, 0, 71, 100
2, 169340, Note_off_c, 0, 59, 100
2, 170112, Note_on_c, 0, 83, 110
2, 170160, Note_on_c, 0, 84, 110
2, 170204, Note_off_c, 0, 83, 100
2, 170208, Note_on_c, 0, 83, 110
2, 170252, Note_off_c, 0, 84, 100
2, 170256, Note_on_c, 0, 84, 110
2, 170300, Note_off_c, 0, 83, 100
2, 170304, Note_on_c, 0, 83, 110
2, 170348, Note_off_c, 0, 84, 100
2, 170352, Note_on_c, 0, 84, 110
2, 170396, Note_off_c, 0, 83, 100
2, 170400, Note_on_c, 0, 81, 110
2, 170444, Note_off_c, 0, 84, 100
2, 170448, Note_on_c, 0, 83, 110
2, 170492, Note_off_c, 0, 81, 100
2, 170492, Note_off_c, 0, 83, 100
2, 170496, Note_on_c, 0, 84, 110
2, 171068, Note_off_c, 0, 84, 100
2, 171072, Note_on_c, 0, 84, 100
2, 171120, Note_on_c, 0, 83, 100
2, 171164, Note_off_c, 0, 84, 100
2, 171168, Note_on_c, 0, 81, 100
2, 171212, Note_off_c, 0, 83, 100
2, 171216, Note_on_c, 0, 79, 100
2, 171260, Note_off_c, 0, 81, 100
2, 171260, Note_off_c, 0, 79, 100
2, 171264, Note_on_c, 0, 77, 100
2, 171452, Note_off_c, 0, 77, 100
2, 171456, Note_on_c, 0, 77, 100
2, 171456, Note_on_c, 0, 74, 100
2, 171644, Note_off_c, 0, 77, 100
2, 171644, Note_off_c, 0, 74, 100
2, 171648, Note_on_c, 0, 76, 100
2, 171648, Note_on_c, 0, 72, 100
2, 171836, Note_off_c, 0, 76, 100
2, 171836, Note_off_c, 0, 72, 100
2, 171840, Note_on_c, 0, 76, 100
2, 171840, Note_on_c, 0, 72, 100
2, 172028, Note_off_c, 0, 76, 100
2, 172028, Note_off_c, 0, 72, 100
2, 172032, Note_on_c, 0, 74, 110
2, 172032, Note_on_c, 0, 71, 110
2, 172412, Note_off_c, 0, 74, 100
2, 172412, Note_off_c, 0, 71, 100
2, 173184, Note_on_c, 0, 86, 110
2, 173184, Note_on_c, 0, 83, 110
2, 173232, Note_on_c, 0, 88, 110
2, 173276, Note_off_c, 0, 86, 100
2, 173280, Note_on_c, 0, 86, 110
2, 173324, Note_off_c, 0, 88, 100
2, 173328, Note_on_c, 0, 88, 110
2, 173372, Note_off_c, 0, 86, 100
2, 173376, Note_on_c, 0, 86, 110
2, 173420, Note_off_c, 0, 88, 100
2, 173424, Note_on_c, 0, 88, 110
2, 173468, Note_off_c, 0, 83, 100
2, 173468, Note_off_c, 0, 86, 100
2, 173472, Note_on_c, 0, 84, 110
2, 173516, Note_off_c, 0, 88, 100
2, 173520, Note_on_c, 0, 86, 110
2, 173564, Note_off_c, 0, 84, 100
2, 173564, Note_off_c, 0, 86, 100
2, 173568, Note_on_c, 0, 88, 110
2, 173568, Note_on_c, 0, 84, 110
2, 174140, Note_off_c, 0, 88, 100
2, 174140, Note_off_c, 0, 84, 100
2, 174144, Note_on_c, 0, 88, 110
2, 174176, Note_on_c, 0, 86, 110
2, 174204, Note_off_c, 0, 88, 100
2, 174208, Note_on_c, 0, 84, 110
2, 174236, Note_off_c, 0, 86, 100
2, 174240, Note_on_c, 0, 83, 110
2, 174268, Note_off_c, 0, 84, 100
2, 174272, Note_on_c, 0, 81, 110
2, 174300, Note_off_c, 0, 83, 100
2, 174304, Note_on_c, 0, 79, 110
2, 174332, Note_off_c, 0, 81, 100
2, 174336, Note_on_c, 0, 77, 110
2, 174364, Note_off_c, 0, 79, 100
2, 174524, Note_off_c, 0, 77, 100
2, 174528, Note_on_c, 0, 77, 110
2, 174528, Note_on_c, 0, 74, 110
2, 174716, Note_off_c, 0, 77, 100
2, 174716, Note_off_c, 0, 74, 100
2, 174720, Note_on_c, 0, 76, 110
2, 174720, Note_on_c, 0, 72, 110
2, 174908, Note_off_c, 0, 76, 100
2, 174908, Note_off_c, 0, 72, 100
2, 174912, Note_on_c, 0, 76, 110
2, 174912, Note_on_c, 0, 72, 110
2, 175100, Note_off_c, 0, 76, 100
2, 175100, Note_off_c, 0, 72, 100
2, 175104, Note_on_c, 0, 74, 120
2, 175104, Note_on_c, 0, 71, 120
2, 175196, Note_off_c, 0, 74, 100
2, 175196, Note_off_c, 0, 71, 100
2, 175200, Note_on_c, 0, 79, 120
2, 175292, Note_off_c, 0, 79, 100
2, 175296, Note_on_c, 0, 78, 120
2, 175388, Note_off_c, 0, 78, 100
2, 175392, Note_on_c, 0, 76, 120
2, 175484, Note_off_c, 0, 76, 100
2, 175488, Note_on_c, 0, 74, 120
2, 175580, Note_off_c, 0, 74, 100
2, 175584, Note_on_c, 0, 72, 120
2, 175676, Note_off_c, 0, 72, 100
2, 175680, Note_on_c, 0, 71, 120
2, 175772, Note_off_c, 0, 71, 100
2, 175776, Note_on_c, 0, 69, 120
2, 175868, Note_off_c, 0, 69, 100
2, 175872, Note_on_c, 0, 67, 120
2, 175964, Note_off_c, 0, 67, 100
2, 175968, Note_on_c, 0, 67, 120
2, 176060, Note_off_c, 0, 67, 100
2, 176064, Note_on_c, 0, 66, 120
2, 176156, Note_off_c, 0, 66, 100
2, 176160, Note_on_c, 0, 64, 120
2, 176252, Note_off_c, 0, 64, 100
2, 176256, Note_on_c, 0, 62, 120
2, 176348, Note_off_c, 0, 62, 100
2, 176352, Note_on_c, 0, 60, 120
2, 176444, Note_off_c, 0, 60, 100
2, 176448, Note_on_c, 0, 59, 120
2, 176540, Note_off_c, 0, 59, 100
2, 176544, Note_on_c, 0, 57, 120
2, 176636, Note_off_c, 0, 57, 100
2, 176640, Note_on_c, 0, 55, 120
2, 177020, Note_off_c, 0, 55, 100
2, 178176, Note_on_c, 0, 74, 80
2, 178364, Note_off_c, 0, 74, 100
2, 178368, Note_on_c, 0, 76, 80
2, 178416, Note_on_c, 0, 74, 80
2, 178460, Note_off_c, 0, 76, 100
2, 178464, Note_on_c, 0, 73, 80
2, 178508, Note_off_c, 0, 74, 100
2, 178512, Note_on_c, 0, 74, 80
2, 178556, Note_off_c, 0, 73, 100
2, 178556, Note_off_c, 0, 74, 100
2, 178560, Note_on_c, 0, 76, 80
2, 178748, Note_off_c, 0, 76, 100
2, 178752, Note_on_c, 0, 78, 80
2, 178940, Note_off_c, 0, 78, 100
2, 178944, Note_on_c, 0, 79, 80
2, 179132, Note_off_c, 0, 79, 100
2, 179136, Note_on_c, 0, 81, 80
2, 179324, Note_off_c, 0, 81, 100
2, 179328, Note_on_c, 0, 82, 80
2, 179516, Note_off_c, 0, 82, 100
2, 179520, Note_on_c, 0, 74, 80
2, 179708, Note_off_c, 0, 74, 100
2, 179712, Note_on_c, 0, 76, 80
2, 179756, Note_off_c, 0, 76, 100
2, 179760, Note_on_c, 0, 74, 80
2, 179900, Note_off_c, 0, 74, 100
2, 179904, Note_on_c, 0, 73, 80
2, 180092, Note_off_c, 0, 73, 100
2, 180096, Note_on_c, 0, 73, 80
2, 180284, Note_off_c, 0, 73, 100
2, 180288, Note_on_c, 0, 73, 80
2, 180476, Note_off_c, 0, 73, 100
2, 180480, Note_on_c, 0, 73, 80
2, 181244, Note_off_c, 0, 73, 100
2, 181248, Note_on_c, 0, 72, 80
2, 181436, Note_off_c, 0, 72, 100
2, 181440, Note_on_c, 0, 78, 80
2, 181628, Note_off_c, 0, 78, 100
2, 181632, Note_on_c, 0, 81, 80
2, 181820, Note_off_c, 0, 81, 100
2, 181824, Note_on_c, 0, 78, 80
2, 182012, Note_off_c, 0, 78, 100
2, 182016, Note_on_c, 0, 84, 80
2, 182204, Note_off_c, 0, 84, 100
2, 182208, Note_on_c, 0, 81, 80
2, 182396, Note_off_c, 0, 81, 100
2, 182400, Note_on_c, 0, 78, 80
2, 182588, Note_off_c, 0, 78, 100
2, 182592, Note_on_c, 0, 72, 80
2, 182780, Note_off_c, 0, 72, 100
2, 182784, Note_on_c, 0, 71, 80
2, 182972, Note_off_c, 0, 71, 100
2, 182976, Note_on_c, 0, 80, 80
2, 183164, Note_off_c, 0, 80, 100
2, 183168, Note_on_c, 0, 79, 80
2, 183356, Note_off_c, 0, 79, 100
2, 183360, Note_on_c, 0, 77, 80
2, 183548, Note_off_c, 0, 77, 100
2, 183552, Note_on_c, 0, 75, 80
2, 183740, Note_off_c, 0, 75, 100
2, 183744, Note_on_c, 0, 74, 80
2, 183932, Note_off_c, 0, 74, 100
2, 183936, Note_on_c, 0, 72, 80
2, 184124, Note_off_c, 0, 72, 100
2, 184128, Note_on_c, 0, 71, 80
2, 184316, Note_off_c, 0, 71, 100
2, 184320, Note_on_c, 0, 74, 80
2, 184700, Note_off_c, 0, 74, 100
2, 184704, Note_on_c, 0, 72, 100
2, 185468, Note_off_c, 0, 72, 100
2, 185472, Note_on_c, 0, 70, 100
2, 186236, Note_off_c, 0, 70, 100
2, 186240, Note_on_c, 0, 69, 100
2, 187004, Note_off_c, 0, 69, 100
2, 187008, Note_on_c, 0, 79, 100
2, 187388, Note_off_c, 0, 79, 100
2, 187392, Note_on_c, 0, 77, 80
2, 187580, Note_off_c, 0, 77, 100
2, 187584, Note_on_c, 0, 81, 80
2, 187772, Note_off_c, 0, 81, 100
2, 187776, Note_on_c, 0, 83, 80
2, 187964, Note_off_c, 0, 83, 100
2, 187968, Note_on_c, 0, 85, 80
2, 188156, Note_off_c, 0, 85, 100
2, 188160, Note_on_c, 0, 86, 80
2, 188348, Note_off_c, 0, 86, 100
2, 188352, Note_on_c, 0, 88, 80
2, 188540, Note_off_c, 0, 88, 100
2, 188544, Note_on_c, 0, 89, 80
2, 188732, Note_off_c, 0, 89, 100
2, 188736, Note_on_c, 0, 81, 80
2, 188924, Note_off_c, 0, 81, 100
2, 188928, Note_on_c, 0, 83, 80
2, 188972, Note_off_c, 0, 83, 100
2, 188976, Note_on_c, 0, 81, 80
2, 189116, Note_off_c, 0, 81, 100
2, 189120, Note_on_c, 0, 80, 80
2, 189308, Note_off_c, 0, 80, 100
2, 189312, Note_on_c, 0, 80, 80
2, 189500, Note_off_c, 0, 80, 100
2, 189504, Note_on_c, 0, 80, 80
2, 189692, Note_off_c, 0, 80, 100
2, 189696, Note_on_c, 0, 80, 80
2, 190460, Note_off_c, 0, 80, 100
2, 190464, Note_on_c, 0, 79, 80
2, 190652, Note_off_c, 0, 79, 100
2, 190656, Note_on_c, 0, 81, 80
2, 190844, Note_off_c, 0, 81, 100
2, 190848, Note_on_c, 0, 85, 80
2, 191036, Note_off_c, 0, 85, 100
2, 191040, Note_on_c, 0, 81, 80
2, 191228, Note_off_c, 0, 81, 100
2, 191232, Note_on_c, 0, 88, 80
2, 191420, Note_off_c, 0, 88, 100
2, 191424, Note_on_c, 0, 85, 80
2, 191612, Note_off_c, 0, 85, 100
2, 191616, Note_on_c, 0, 81, 80
2, 191804, Note_off_c, 0, 81, 100
2, 191808, Note_on_c, 0, 79, 80
2, 191996, Note_off_c, 0, 79, 100
2, 192000, Note_on_c, 0, 78, 80
2, 192188, Note_off_c, 0, 78, 100
2, 192192, Note_on_c, 0, 87, 80
2, 192380, Note_off_c, 0, 87, 100
2, 192384, Note_on_c, 0, 86, 80
2, 192572, Note_off_c, 0, 86, 100
2, 192576, Note_on_c, 0, 84, 80
2, 192764, Note_off_c, 0, 84, 100
2, 192768, Note_on_c, 0, 82, 80
2, 192956, Note_off_c, 0, 82, 100
2, 192960, Note_on_c, 0, 81, 80
2, 193148, Note_off_c, 0, 81, 100
2, 193152, Note_on_c, 0, 79, 80
2, 193340, Note_off_c, 0, 79, 100
2, 193344, Note_on_c, 0, 78, 80
2, 193532, Note_off_c, 0, 78, 100
2, 193536, Note_on_c, 0, 81, 80
2, 193916, Note_off_c, 0, 81, 100
2, 193920, Note_on_c, 0, 79, 100
2, 194684, Note_off_c, 0, 79, 100
2, 194688, Note_on_c, 0, 77, 100
2, 195452, Note_off_c, 0, 77, 100
2, 195456, Note_on_c, 0, 76, 100
2, 196220, Note_off_c, 0, 76, 100
2, 196224, Note_on_c, 0, 86, 100
2, 196604, Note_off_c, 0, 86, 100
2, 196608, Note_on_c, 0, 84, 110
2, 196988, Note_off_c, 0, 84, 100
2, 196992, Note_on_c, 0, 81, 110
2, 197084, Note_off_c, 0, 81, 100
2, 197088, Note_on_c, 0, 79, 110
2, 197180, Note_off_c, 0, 79, 100
2, 197184, Note_on_c, 0, 77, 110
2, 197276, Note_off_c, 0, 77, 100
2, 197280, Note_on_c, 0, 76, 110
2, 197372, Note_off_c, 0, 76, 100
2, 197376, Note_on_c, 0, 74, 110
2, 197468, Note_off_c, 0, 74, 100
2, 197472, Note_on_c, 0, 72, 110
2, 197564, Note_off_c, 0, 72, 100
2, 197568, Note_on_c, 0, 71, 110
2, 197660, Note_off_c, 0, 71, 100
2, 197664, Note_on_c, 0, 69, 110
2, 197756, Note_off_c, 0, 69, 100
2, 197760, Note_on_c, 0, 68, 110
2, 197852, Note_off_c, 0, 68, 100
2, 197856, Note_on_c, 0, 69, 110
2, 197948, Note_off_c, 0, 69, 100
2, 197952, Note_on_c, 0, 71, 110
2, 198044, Note_off_c, 0, 71, 100
2, 198048, Note_on_c, 0, 68, 110
2, 198140, Note_off_c, 0, 68, 100
2, 198144, Note_on_c, 0, 69, 110
2, 198524, Note_off_c, 0, 69, 100
2, 198912, Note_on_c, 0, 78, 110
2, 198912, Note_on_c, 0, 74, 110
2, 198912, Note_on_c, 0, 72, 110
2, 198912, Note_on_c, 0, 69, 110
2, 198912, Note_on_c, 0, 66, 110
2, 199292, Note_off_c, 0, 78, 100
2, 199292, Note_off_c, 0, 74, 100
2, 199292, Note_off_c, 0, 72, 100
2, 199292, Note_off_c, 0, 69, 100
2, 199292, Note_off_c, 0, 66, 100
2, 199680, Note_on_c, 0, 79, 110
2, 199680, Note_on_c, 0, 74, 110
2, 199680, Note_on_c, 0, 70, 110
2, 199680, Note_on_c, 0, 67, 110
2, 200060, Note_off_c, 0, 79, 100
2, 200060, Note_off_c, 0, 74, 100
2, 200060, Note_off_c, 0, 70, 100
2, 200060, Note_off_c, 0, 67, 100
2, 200064, Note_on_c, 0, 79, 110
2, 200156, Note_off_c, 0, 79, 100
2, 200160, Note_on_c, 0, 77, 110
2, 200252, Note_off_c, 0, 77, 100
2, 200256, Note_on_c, 0, 75, 110
2, 200348, Note_off_c, 0, 75, 100
2, 200352, Note_on_c, 0, 74, 110
2, 200444, Note_off_c, 0, 74, 100
2, 200448, Note_on_c, 0, 72, 110
2, 200540, Note_off_c, 0, 72, 100
2, 200544, Note_on_c, 0, 70, 110
2, 200636, Note_off_c, 0, 70, 100
2, 200640, Note_on_c, 0, 69, 110
2, 200732, Note_off_c, 0, 69, 100
2, 200736, Note_on_c, 0, 67, 110
2, 200828, Note_off_c, 0, 67, 100
2, 200832, Note_on_c, 0, 66, 110
2, 200924, Note_off_c, 0, 66, 100
2, 200928, Note_on_c, 0, 67, 110
2, 201020, Note_off_c, 0, 67, 100
2, 201024, Note_on_c, 0, 69, 110
2, 201116, Note_off_c, 0, 69, 100
2, 201120, Note_on_c, 0, 66, 110
2, 201212, Note_off_c, 0, 66, 100
2, 201216, Note_on_c, 0, 67, 110
2, 201596, Note_off_c, 0, 67, 100
2, 201984, Note_on_c, 0, 85, 110
2, 201984, Note_on_c, 0, 79, 110
2, 201984, Note_on_c, 0, 73, 110
2, 202364, Note_off_c, 0, 85, 100
2, 202364, Note_off_c, 0, 79, 100
2, 202364, Note_off_c, 0, 73, 100
2, 202752, Note_on_c, 0, 86, 110
2, 202752, Note_on_c, 0, 81, 110
2, 202752, Note_on_c, 0, 78, 110
2, 202752, Note_on_c, 0, 74, 110
2, 203132, Note_off_c, 0, 86, 100
2, 203132, Note_off_c, 0, 81, 100
2, 203132, Note_off_c, 0, 78, 100
2, 203132, Note_off_c, 0, 74, 100
2, 203136, Note_on_c, 0, 86, 110
2, 203228, Note_off_c, 0, 86, 100
2, 203232, Note_on_c, 0, 85, 110
2, 203324, Note_off_c, 0, 85, 100
2, 203328, Note_on_c, 0, 83, 110
2, 203420, Note_off_c, 0, 83, 100
2, 203424, Note_on_c, 0, 81, 110
2, 203516, Note_off_c, 0, 81, 100
2, 203520, Note_on_c, 0, 79, 110
2, 203612, Note_off_c, 0, 79, 100
2, 203616, Note_on_c, 0, 78, 110
2, 203708, Note_off_c, 0, 78, 100
2, 203712, Note_on_c, 0, 76, 110
2, 203804, Note_off_c, 0, 76, 100
2, 203808, Note_on_c, 0, 74, 110
2, 203900, Note_off_c, 0, 74, 100
2, 203904, Note_on_c, 0, 73, 110
2, 203996, Note_off_c, 0, 73, 100
2, 204000, Note_on_c, 0, 74, 110
2, 204092, Note_off_c, 0, 74, 100
2, 204096, Note_on_c, 0, 76, 110
2, 204188, Note_off_c, 0, 76, 100
2, 204192, Note_on_c, 0, 73, 110
2, 204284, Note_off_c, 0, 73, 100
2, 204288, Note_on_c, 0, 74, 110
2, 204668, Note_off_c, 0, 74, 100
2, 204672, Note_on_c, 0, 74, 110
2, 204764, Note_off_c, 0, 74, 100
2, 204768, Note_on_c, 0, 73, 110
2, 204860, Note_off_c, 0, 73, 100
2, 204864, Note_on_c, 0, 71, 110
2, 204956, Note_off_c, 0, 71, 100
2, 204960, Note_on_c, 0, 69, 110
2, 205052, Note_off_c, 0, 69, 100
2, 205056, Note_on_c, 0, 67, 110
2, 205148, Note_off_c, 0, 67, 100
2, 205152, Note_on_c, 0, 66, 110
2, 205244, Note_off_c, 0, 66, 100
2, 205248, Note_on_c, 0, 64, 110
2, 205340, Note_off_c, 0, 64, 100
2, 205344, Note_on_c, 0, 62, 110
2, 205436, Note_off_c, 0, 62, 100
2, 205440, Note_on_c, 0, 61, 110
2, 205532, Note_off_c, 0, 61, 100
2, 205536, Note_on_c, 0, 62, 110
2, 205628, Note_off_c, 0, 62, 100
2, 205632, Note_on_c, 0, 64, 110
2, 205724, Note_off_c, 0, 64, 100
2, 205728, Note_on_c, 0, 61, 110
2, 205820, Note_off_c, 0, 61, 100
2, 205824, Note_on_c, 0, 62, 80
2, 206012, Note_off_c, 0, 62, 100
2, 206016, Note_on_c, 0, 64, 80
2, 206076, Note_off_c, 0, 64, 100
2, 206080, Note_on_c, 0, 62, 80
2, 206140, Note_off_c, 0, 62, 100
2, 206144, Note_on_c, 0, 61, 80
2, 206204, Note_off_c, 0, 61, 100
2, 206208, Note_on_c, 0, 62, 80
2, 206396, Note_off_c, 0, 62, 100
2, 206400, Note_on_c, 0, 64, 80
2, 206588, Note_off_c, 0, 64, 100
2, 206592, Note_on_c, 0, 66, 80
2, 206780, Note_off_c, 0, 66, 100
2, 206784, Note_on_c, 0, 67, 80
2, 206848, Note_on_c, 0, 66, 80
2, 206908, Note_off_c, 0, 67, 100
2, 206912, Note_on_c, 0, 64, 80
2, 206972, Note_off_c, 0, 66, 100
2, 206976, Note_on_c, 0, 66, 80
2, 207036, Note_off_c, 0, 64, 100
2, 207164, Note_off_c, 0, 66, 100
2, 207168, Note_on_c, 0, 67, 80
2, 207356, Note_off_c, 0, 67, 100
2, 207360, Note_on_c, 0, 69, 80
2, 207548, Note_off_c, 0, 69, 100
2, 207552, Note_on_c, 0, 71, 80
2, 207616, Note_on_c, 0, 69, 80
2, 207676, Note_off_c, 0, 71, 100
2, 207680, Note_on_c, 0, 68, 80
2, 207740, Note_off_c, 0, 69, 100
2, 207744, Note_on_c, 0, 69, 80
2, 207804, Note_off_c, 0, 68, 100
2, 207932, Note_off_c, 0, 69, 100
2, 207936, Note_on_c, 0, 71, 80
2, 208124, Note_off_c, 0, 71, 100
2, 208128, Note_on_c, 0, 74, 80
2, 208316, Note_off_c, 0, 74, 100
2, 208320, Note_on_c, 0, 72, 80
2, 208508, Note_off_c, 0, 72, 100
2, 208512, Note_on_c, 0, 71, 80
2, 208700, Note_off_c, 0, 71, 100
2, 208704, Note_on_c, 0, 69, 80
2, 208892, Note_off_c, 0, 69, 100
2, 208896, Note_on_c, 0, 67, 80
2, 209084, Note_off_c, 0, 67, 100
2, 209088, Note_on_c, 0, 62, 80
2, 209276, Note_off_c, 0, 62, 100
2, 209280, Note_on_c, 0, 61, 80
2, 209468, Note_off_c, 0, 61, 100
2, 209472, Note_on_c, 0, 62, 80
2, 209660, Note_off_c, 0, 62, 100
2, 209664, Note_on_c, 0, 67, 80
2, 209852, Note_off_c, 0, 67, 100
2, 209856, Note_on_c, 0, 62, 80
2, 210044, Note_off_c, 0, 62, 100
2, 210048, Note_on_c, 0, 71, 80
2, 210236, Note_off_c, 0, 71, 100
2, 210240, Note_on_c, 0, 62, 80
2, 210428, Note_off_c, 0, 62, 100
2, 210432, Note_on_c, 0, 74, 80
2, 211196, Note_off_c, 0, 74, 100
2, 211200, Note_on_c, 0, 71, 80
2, 211580, Note_off_c, 0, 71, 100
2, 211584, Note_on_c, 0, 67, 80
2, 211964, Note_off_c, 0, 67, 100
2, 211968, Note_on_c, 0, 66, 80
2, 212156, Note_off_c, 0, 66, 100
2, 212160, Note_on_c, 0, 62, 80
2, 212348, Note_off_c, 0, 62, 100
2, 212352, Note_on_c, 0, 61, 80
2, 212540, Note_off_c, 0, 61, 100
2, 212544, Note_on_c, 0, 62, 80
2, 212732, Note_off_c, 0, 62, 100
2, 212736, Note_on_c, 0, 66, 80
2, 212924, Note_off_c, 0, 66, 100
2, 212928, Note_on_c, 0, 62, 80
2, 213116, Note_off_c, 0, 62, 100
2, 213120, Note_on_c, 0, 69, 80
2, 213308, Note_off_c, 0, 69, 100
2, 213312, Note_on_c, 0, 62, 80
2, 213500, Note_off_c, 0, 62, 100
2, 213504, Note_on_c, 0, 72, 80
2, 214268, Note_off_c, 0, 72, 100
2, 214272, Note_on_c, 0, 69, 80
2, 214652, Note_off_c, 0, 69, 100
2, 214656, Note_on_c, 0, 66, 80
2, 215036, Note_off_c, 0, 66, 100
2, 215040, Note_on_c, 0, 67, 80
2, 215228, Note_off_c, 0, 67, 100
2, 215232, Note_on_c, 0, 62, 82
2, 215420, Note_off_c, 0, 62, 100
2, 215424, Note_on_c, 0, 61, 85
2, 215612, Note_off_c, 0, 61, 100
2, 215616, Note_on_c, 0, 62, 88
2, 215804, Note_off_c, 0, 62, 100
2, 215808, Note_on_c, 0, 67, 90
2, 215996, Note_off_c, 0, 67, 100
2, 216000, Note_on_c, 0, 62, 93
2, 216188, Note_off_c, 0, 62, 100
2, 216192, Note_on_c, 0, 71, 96
2, 216380, Note_off_c, 0, 71, 100
2, 216384, Note_on_c, 0, 67, 99
2, 216572, Note_off_c, 0, 67, 100
2, 216576, Note_on_c, 0, 74, 101
2, 216764, Note_off_c, 0, 74, 100
2, 216768, Note_on_c, 0, 71, 104
2, 216956, Note_off_c, 0, 71, 100
2, 216960, Note_on_c, 0, 79, 107
2, 217148, Note_off_c, 0, 79, 100
2, 217152, Note_on_c, 0, 74, 109
2, 217340, Note_off_c, 0, 74, 100
2, 217344, Note_on_c, 0, 83, 100
2, 217532, Note_off_c, 0, 83, 100
2, 217536, Note_on_c, 0, 81, 99
2, 217724, Note_off_c, 0, 81, 100
2, 217728, Note_on_c, 0, 79, 98
2, 217916, Note_off_c, 0, 79, 100
2, 217920, Note_on_c, 0, 78, 97
2, 218108, Note_off_c, 0, 78, 100
2, 218112, Note_on_c, 0, 76, 96
2, 218300, Note_off_c, 0, 76, 100
2, 218304, Note_on_c, 0, 74, 95
2, 218492, Note_off_c, 0, 74, 100
2, 218496, Note_on_c, 0, 73, 94
2, 218684, Note_off_c, 0, 73, 100
2, 218688, Note_on_c, 0, 71, 93
2, 218876, Note_off_c, 0, 71, 100
2, 218880, Note_on_c, 0, 69, 92
2, 219068, Note_off_c, 0, 69, 100
2, 219072, Note_on_c, 0, 67, 91
2, 219260, Note_off_c, 0, 67, 100
2, 219264, Note_on_c, 0, 66, 90
2, 219452, Note_off_c, 0, 66, 100
2, 219456, Note_on_c, 0, 64, 89
2, 219644, Note_off_c, 0, 64, 100
2, 219648, Note_on_c, 0, 62, 88
2, 219836, Note_off_c, 0, 62, 100
2, 219840, Note_on_c, 0, 61, 87
2, 220028, Note_off_c, 0, 61, 100
2, 220032, Note_on_c, 0, 62, 86
2, 220220, Note_off_c, 0, 62, 100
2, 220224, Note_on_c, 0, 64, 85
2, 220412, Note_off_c, 0, 64, 100
2, 220416, Note_on_c, 0, 62, 84
2, 220604, Note_off_c, 0, 62, 100
2, 220608, Note_on_c, 0, 60, 83
2, 220796, Note_off_c, 0, 60, 100
2, 220800, Note_on_c, 0, 59, 82
2, 220988, Note_off_c, 0, 59, 100
2, 220992, Note_on_c, 0, 57, 81
2, 221180, Note_off_c, 0, 57, 100
2, 221184, Note_on_c, 0, 55, 80
2, 221564, Note_off_c, 0, 55, 100
2, 222912, Note_on_c, 0, 74, 80
2, 222960, Note_on_c, 0, 76, 80
2, 223004, Note_off_c, 0, 74, 100
2, 223008, Note_on_c, 0, 74, 80
2, 223052, Note_off_c, 0, 76, 100
2, 223100, Note_off_c, 0, 74, 100
2, 223104, Note_on_c, 0, 73, 80
2, 223292, Note_off_c, 0, 73, 100
2, 223296, Note_on_c, 0, 74, 80
2, 223484, Note_off_c, 0, 74, 100
2, 223488, Note_on_c, 0, 79, 80
2, 223676, Note_off_c, 0, 79, 100
2, 223680, Note_on_c, 0, 74, 80
2, 223868, Note_off_c, 0, 74, 100
2, 223872, Note_on_c, 0, 83, 80
2, 224060, Note_off_c, 0, 83, 100
2, 224064, Note_on_c, 0, 74, 80
2, 224252, Note_off_c, 0, 74, 100
2, 224256, Note_on_c, 0, 84, 80
2, 225020, Note_off_c, 0, 84, 100
2, 225024, Note_on_c, 0, 81, 80
2, 225404, Note_off_c, 0, 81, 100
2, 225408, Note_on_c, 0, 78, 80
2, 225788, Note_off_c, 0, 78, 100
2, 225984, Note_on_c, 0, 74, 80
2, 226032, Note_on_c, 0, 76, 80
2, 226076, Note_off_c, 0, 74, 100
2, 226080, Note_on_c, 0, 74, 80
2, 226124, Note_off_c, 0, 76, 100
2, 226172, Note_off_c, 0, 74, 100
2, 226176, Note_on_c, 0, 73, 80
2, 226364, Note_off_c, 0, 73, 100
2, 226368, Note_on_c, 0, 74, 80
2, 226556, Note_off_c, 0, 74, 100
2, 226560, Note_on_c, 0, 78, 80
2, 226748, Note_off_c, 0, 78, 100
2, 226752, Note_on_c, 0, 74, 80
2, 226940, Note_off_c, 0, 74, 100
2, 226944, Note_on_c, 0, 81, 80
2, 227132, Note_off_c, 0, 81, 100
2, 227136, Note_on_c, 0, 74, 80
2, 227324, Note_off_c, 0, 74, 100
2, 227328, Note_on_c, 0, 83, 80
2, 227516, Note_off_c, 0, 83, 100
2, 227520, Note_on_c, 0, 79, 82
2, 227568, Note_on_c, 0, 81, 83
2, 227612, Note_off_c, 0, 79, 100
2, 227616, Note_on_c, 0, 79, 83
2, 227660, Note_off_c, 0, 81, 100
2, 227708, Note_off_c, 0, 79, 100
2, 227712, Note_on_c, 0, 78, 85
2, 227900, Note_off_c, 0, 78, 100
2, 227904, Note_on_c, 0, 79, 87
2, 228092, Note_off_c, 0, 79, 100
2, 228096, Note_on_c, 0, 83, 90
2, 228284, Note_off_c, 0, 83, 100
2, 228288, Note_on_c, 0, 79, 93
2, 228476, Note_off_c, 0, 79, 100
2, 228480, Note_on_c, 0, 86, 95
2, 228668, Note_off_c, 0, 86, 100
2, 228672, Note_on_c, 0, 83, 98
2, 228720, Note_on_c, 0, 84, 99
2, 228764, Note_off_c, 0, 83, 100
2, 228768, Note_on_c, 0, 83, 99
2, 228812, Note_off_c, 0, 84, 100
2, 228816, Note_on_c, 0, 84, 110
2, 228860, Note_off_c, 0, 83, 100
2, 228864, Note_on_c, 0, 89, 110
2, 228908, Note_off_c, 0, 84, 100
2, 229052, Note_off_c, 0, 89, 100
2, 229056, Note_on_c, 0, 86, 110
2, 229244, Note_off_c, 0, 86, 100
2, 229248, Note_on_c, 0, 83, 110
2, 229436, Note_off_c, 0, 83, 100
2, 229440, Note_on_c, 0, 79, 110
2, 229628, Note_off_c, 0, 79, 100
2, 229632, Note_on_c, 0, 77, 110
2, 229820, Note_off_c, 0, 77, 100
2, 229824, Note_on_c, 0, 74, 110
2, 230012, Note_off_c, 0, 74, 100
2, 230016, Note_on_c, 0, 71, 110
2, 230204, Note_off_c, 0, 71, 100
2, 230208, Note_on_c, 0, 65, 110
2, 230396, Note_off_c, 0, 65, 100
2, 230400, Note_on_c, 0, 64, 110
2, 230492, Note_off_c, 0, 64, 100
2, 230496, Note_on_c, 0, 67, 110
2, 230588, Note_off_c, 0, 67, 100
2, 230592, Note_on_c, 0, 72, 110
2, 230684, Note_off_c, 0, 72, 100
2, 230688, Note_on_c, 0, 76, 110
2, 230780, Note_off_c, 0, 76, 100
2, 230784, Note_on_c, 0, 67, 110
2, 230876, Note_off_c, 0, 67, 100
2, 230880, Note_on_c, 0, 79, 110
2, 230972, Note_off_c, 0, 79, 100
2, 230976, Note_on_c, 0, 67, 110
2, 231068, Note_off_c, 0, 67, 100
2, 231072, Note_on_c, 0, 79, 110
2, 231164, Note_off_c, 0, 79, 100
2, 231168, Note_on_c, 0, 67, 110
2, 231260, Note_off_c, 0, 67, 100
2, 231264, Note_on_c, 0, 72, 110
2, 231356, Note_off_c, 0, 72, 100
2, 231360, Note_on_c, 0, 76, 110
2, 231452, Note_off_c, 0, 76, 100
2, 231456, Note_on_c, 0, 79, 110
2, 231548, Note_off_c, 0, 79, 100
2, 231552, Note_on_c, 0, 72, 110
2, 231644, Note_off_c, 0, 72, 100
2, 231648, Note_on_c, 0, 84, 110
2, 231740, Note_off_c, 0, 84, 100
2, 231744, Note_on_c, 0, 72, 110
2, 231836, Note_off_c, 0, 72, 100
2, 231840, Note_on_c, 0, 84, 110
2, 231932, Note_off_c, 0, 84, 100
2, 231936, Note_on_c, 0, 72, 110
2, 232028, Note_off_c, 0, 72, 100
2, 232032, Note_on_c, 0, 76, 110
2, 232124, Note_off_c, 0, 76, 100
2, 232128, Note_on_c, 0, 79, 110
2, 232220, Note_off_c, 0, 79, 100
2, 232224, Note_on_c, 0, 84, 110
2, 232316, Note_off_c, 0, 84, 100
2, 232320, Note_on_c, 0, 76, 110
2, 232412, Note_off_c, 0, 76, 100
2, 232416, Note_on_c, 0, 88, 110
2, 232508, Note_off_c, 0, 88, 100
2, 232512, Note_on_c, 0, 76, 110
2, 232604, Note_off_c, 0, 76, 100
2, 232608, Note_on_c, 0, 88, 110
2, 232700, Note_off_c, 0, 88, 100
2, 232704, Note_on_c, 0, 76, 110
2, 232796, Note_off_c, 0, 76, 100
2, 232800, Note_on_c, 0, 88, 110
2, 232892, Note_off_c, 0, 88, 100
2, 232896, Note_on_c, 0, 84, 110
2, 232988, Note_off_c, 0, 84, 100
2, 232992, Note_on_c, 0, 79, 110
2, 233084, Note_off_c, 0, 79, 100
2, 233088, Note_on_c, 0, 76, 110
2, 233180, Note_off_c, 0, 76, 100
2, 233184, Note_on_c, 0, 72, 110
2, 233276, Note_off_c, 0, 72, 100
2, 233280, Note_on_c, 0, 67, 110
2, 233372, Note_off_c, 0, 67, 100
2, 233376, Note_on_c, 0, 64, 110
2, 233468, Note_off_c, 0, 64, 100
2, 233472, Note_on_c, 0, 66, 110
2, 233564, Note_off_c, 0, 66, 100
2, 233568, Note_on_c, 0, 69, 110
2, 233660, Note_off_c, 0, 69, 100
2, 233664, Note_on_c, 0, 74, 110
2, 233756, Note_off_c, 0, 74, 100
2, 233760, Note_on_c, 0, 78, 110
2, 233852, Note_off_c, 0, 78, 100
2, 233856, Note_on_c, 0, 69, 110
2, 233948, Note_off_c, 0, 69, 100
2, 233952, Note_on_c, 0, 81, 110
2, 234044, Note_off_c, 0, 81, 100
2, 234048, Note_on_c, 0, 69, 110
2, 234140, Note_off_c, 0, 69, 100
2, 234144, Note_on_c, 0, 81, 110
2, 234236, Note_off_c, 0, 81, 100
2, 234240, Note_on_c, 0, 69, 110
2, 234332, Note_off_c, 0, 69, 100
2, 234336, Note_on_c, 0, 74, 110
2, 234428, Note_off_c, 0, 74, 100
2, 234432, Note_on_c, 0, 78, 110
2, 234524, Note_off_c, 0, 78, 100
2, 234528, Note_on_c, 0, 81, 110
2, 234620, Note_off_c, 0, 81, 100
2, 234624, Note_on_c, 0, 74, 110
2, 234716, Note_off_c, 0, 74, 100
2, 234720, Note_on_c, 0, 86, 110
2, 234812, Note_off_c, 0, 86, 100
2, 234816, Note_on_c, 0, 74, 110
2, 234908, Note_off_c, 0, 74, 100
2, 234912, Note_on_c, 0, 86, 110
2, 235004, Note_off_c, 0, 86, 100
2, 235008, Note_on_c, 0, 74, 110
2, 235100, Note_off_c, 0, 74, 100
2, 235104, Note_on_c, 0, 78, 110
2, 235196, Note_off_c, 0, 78, 100
2, 235200, Note_on_c, 0, 81, 110
2, 235292, Note_off_c, 0, 81, 100
2, 235296, Note_on_c, 0, 86, 110
2, 235388, Note_off_c, 0, 86, 100
2, 235392, Note_on_c, 0, 69, 110
2, 235484, Note_off_c, 0, 69, 100
2, 235488, Note_on_c, 0, 81, 110
2, 235580, Note_off_c, 0, 81, 100
2, 235584, Note_on_c, 0, 69, 110
2, 235676, Note_off_c, 0, 69, 100
2, 235680, Note_on_c, 0, 81, 110
2, 235772, Note_off_c, 0, 81, 100
2, 235776, Note_on_c, 0, 69, 110
2, 235868, Note_off_c, 0, 69, 100
2, 235872, Note_on_c, 0, 81, 110
2, 235964, Note_off_c, 0, 81, 100
2, 235968, Note_on_c, 0, 78, 110
2, 236060, Note_off_c, 0, 78, 100
2, 236064, Note_on_c, 0, 74, 110
2, 236156, Note_off_c, 0, 74, 100
2, 236160, Note_on_c, 0, 69, 110
2, 236252, Note_off_c, 0, 69, 100
2, 236256, Note_on_c, 0, 66, 110
2, 236348, Note_off_c, 0, 66, 100
2, 236352, Note_on_c, 0, 62, 110
2, 236444, Note_off_c, 0, 62, 100
2, 236448, Note_on_c, 0, 57, 110
2, 236540, Note_off_c, 0, 57, 100
2, 236544, Note_on_c, 0, 59, 110
2, 236636, Note_off_c, 0, 59, 100
2, 236640, Note_on_c, 0, 62, 110
2, 236732, Note_off_c, 0, 62, 100
2, 236736, Note_on_c, 0, 67, 110
2, 236828, Note_off_c, 0, 67, 100
2, 236832, Note_on_c, 0, 71, 110
2, 236924, Note_off_c, 0, 71, 100
2, 236928, Note_on_c, 0, 62, 110
2, 237020, Note_off_c, 0, 62, 100
2, 237024, Note_on_c, 0, 74, 110
2, 237116, Note_off_c, 0, 74, 100
2, 237120, Note_on_c, 0, 62, 110
2, 237212, Note_off_c, 0, 62, 100
2, 237216, Note_on_c, 0, 74, 110
2, 237308, Note_off_c, 0, 74, 100
2, 237312, Note_on_c, 0, 62, 110
2, 237404, Note_off_c, 0, 62, 100
2, 237408, Note_on_c, 0, 67, 110
2, 237500, Note_off_c, 0, 67, 100
2, 237504, Note_on_c, 0, 71, 110
2, 237596, Note_off_c, 0, 71, 100
2, 237600, Note_on_c, 0, 74, 110
2, 237692, Note_off_c, 0, 74, 100
2, 237696, Note_on_c, 0, 67, 110
2, 237788, Note_off_c, 0, 67, 100
2, 237792, Note_on_c, 0, 79, 110
2, 237884, Note_off_c, 0, 79, 100
2, 237888, Note_on_c, 0, 67, 110
2, 237980, Note_off_c, 0, 67, 100
2, 237984, Note_on_c, 0, 79, 110
2, 238076, Note_off_c, 0, 79, 100
2, 238080, Note_on_c, 0, 67, 110
2, 238172, Note_off_c, 0, 67, 100
2, 238176, Note_on_c, 0, 71, 110
2, 238268, Note_off_c, 0, 71, 100
2, 238272, Note_on_c, 0, 74, 110
2, 238364, Note_off_c, 0, 74, 100
2, 238368, Note_on_c, 0, 79, 110
2, 238460, Note_off_c, 0, 79, 100
2, 238464, Note_on_c, 0, 71, 110
2, 238556, Note_off_c, 0, 71, 100
2, 238560, Note_on_c, 0, 83, 110
2, 238652, Note_off_c, 0, 83, 100
2, 238656, Note_on_c, 0, 71, 110
2, 238748, Note_off_c, 0, 71, 100
2, 238752, Note_on_c, 0, 83, 110
2, 238844, Note_off_c, 0, 83, 100
2, 238848, Note_on_c, 0, 71, 110
2, 238940, Note_off_c, 0, 71, 100
2, 238944, Note_on_c, 0, 74, 110
2, 239036, Note_off_c, 0, 74, 100
2, 239040, Note_on_c, 0, 79, 110
2, 239132, Note_off_c, 0, 79, 100
2, 239136, Note_on_c, 0, 83, 110
2, 239228, Note_off_c, 0, 83, 100
2, 239232, Note_on_c, 0, 74, 110
2, 239324, Note_off_c, 0, 74, 100
2, 239328, Note_on_c, 0, 86, 110
2, 239420, Note_off_c, 0, 86, 100
2, 239424, Note_on_c, 0, 74, 110
2, 239516, Note_off_c, 0, 74, 100
2, 239520, Note_on_c, 0, 86, 110
2, 239612, Note_off_c, 0, 86, 100
2, 239616, Note_on_c, 0, 74, 110
2, 239708, Note_off_c, 0, 74, 100
2, 239712, Note_on_c, 0, 86, 110
2, 239804, Note_off_c, 0, 86, 100
2, 239808, Note_on_c, 0, 73, 110
2, 239900, Note_off_c, 0, 73, 100
2, 239904, Note_on_c, 0, 85, 110
2, 239996, Note_off_c, 0, 85, 100
2, 240000, Note_on_c, 0, 76, 110
2, 240092, Note_off_c, 0, 76, 100
2, 240096, Note_on_c, 0, 88, 110
2, 240188, Note_off_c, 0, 88, 100
2, 240192, Note_on_c, 0, 74, 110
2, 240284, Note_off_c, 0, 74, 100
2, 240288, Note_on_c, 0, 86, 110
2, 240380, Note_off_c, 0, 86, 100
2, 240384, Note_on_c, 0, 74, 110
2, 240476, Note_off_c, 0, 74, 100
2, 240480, Note_on_c, 0, 86, 110
2, 240572, Note_off_c, 0, 86, 100
2, 240576, Note_on_c, 0, 73, 110
2, 240668, Note_off_c, 0, 73, 100
2, 240672, Note_on_c, 0, 85, 110
2, 240764, Note_off_c, 0, 85, 100
2, 240768, Note_on_c, 0, 76, 110
2, 240860, Note_off_c, 0, 76, 100
2, 240864, Note_on_c, 0, 88, 110
2, 240956, Note_off_c, 0, 88, 100
2, 240960, Note_on_c, 0, 74, 110
2, 241052, Note_off_c, 0, 74, 100
2, 241056, Note_on_c, 0, 86, 110
2, 241148, Note_off_c, 0, 86, 100
2, 241152, Note_on_c, 0, 74, 110
2, 241244, Note_off_c, 0, 74, 100
2, 241248, Note_on_c, 0, 86, 110
2, 241340, Note_off_c, 0, 86, 100
2, 241344, Note_on_c, 0, 73, 110
2, 241436, Note_off_c, 0, 73, 100
2, 241440, Note_on_c, 0, 85, 110
2, 241532, Note_off_c, 0, 85, 100
2, 241536, Note_on_c, 0, 76, 110
2, 241628, Note_off_c, 0, 76, 100
2, 241632, Note_on_c, 0, 88, 110
2, 241724, Note_off_c, 0, 88, 100
2, 241728, Note_on_c, 0, 74, 110
2, 241820, Note_off_c, 0, 74, 100
2, 241824, Note_on_c, 0, 86, 110
2, 241916, Note_off_c, 0, 86, 100
2, 241920, Note_on_c, 0, 74, 110
2, 242012, Note_off_c, 0, 74, 100
2, 242016, Note_on_c, 0, 86, 110
2, 242108, Note_off_c, 0, 86, 100
2, 242112, Note_on_c, 0, 73, 110
2, 242204, Note_off_c, 0, 73, 100
2, 242208, Note_on_c, 0, 85, 110
2, 242300, Note_off_c, 0, 85, 100
2, 242304, Note_on_c, 0, 76, 110
2, 242396, Note_off_c, 0, 76, 100
2, 242400, Note_on_c, 0, 88, 110
2, 242492, Note_off_c, 0, 88, 100
2, 242496, Note_on_c, 0, 74, 110
2, 242588, Note_off_c, 0, 74, 100
2, 242592, Note_on_c, 0, 86, 110
2, 242684, Note_off_c, 0, 86, 100
2, 242688, Note_on_c, 0, 86, 110
2, 242688, Note_on_c, 0, 74, 110
2, 243068, Note_off_c, 0, 86, 100
2, 243068, Note_off_c, 0, 74, 100
2, 243072, Note_on_c, 0, 72, 110
2, 243072, Note_on_c, 0, 78, 110
2, 243452, Note_off_c, 0, 72, 100
2, 243452, Note_off_c, 0, 78, 100
2, 243456, Note_on_c, 0, 71, 110
2, 243456, Note_on_c, 0, 83, 110
2, 243836, Note_off_c, 0, 71, 100
2, 243836, Note_off_c, 0, 83, 100
2, 243840, Note_on_c, 0, 69, 110
2, 243840, Note_on_c, 0, 74, 110
2, 244220, Note_off_c, 0, 69, 100
2, 244220, Note_off_c, 0, 74, 100
2, 244224, Note_on_c, 0, 67, 110
2, 244224, Note_on_c, 0, 79, 110
2, 244604, Note_off_c, 0, 67, 100
2, 244604, Note_off_c, 0, 79, 100
2, 244608, Note_on_c, 0, 66, 110
2, 244608, Note_on_c, 0, 71, 110
2, 244988, Note_off_c, 0, 66, 100
2, 244988, Note_off_c, 0, 71, 100
2, 244992, Note_on_c, 0, 76, 110
2, 244992, Note_on_c, 0, 64, 110
2, 245372, Note_off_c, 0, 76, 100
2, 245372, Note_off_c, 0, 64, 100
2, 245376, Note_on_c, 0, 62, 110
2, 245376, Note_on_c, 0, 67, 110
2, 245756, Note_off_c, 0, 62, 100
2, 245756, Note_off_c, 0, 67, 100
2, 245760, Note_on_c, 0, 72, 110
2, 245760, Note_on_c, 0, 60, 110
2, 246140, Note_off_c, 0, 72, 100
2, 246140, Note_off_c, 0, 60, 100
2, 246144, Note_on_c, 0, 59, 110
2, 246144, Note_on_c, 0, 64, 110
2, 246524, Note_off_c, 0, 59, 100
2, 246524, Note_off_c, 0, 64, 100
2, 246528, Note_on_c, 0, 57, 110
2, 246528, Note_on_c, 0, 69, 110
2, 246908, Note_off_c, 0, 57, 100
2, 246908, Note_off_c, 0, 69, 100
2, 246912, Note_on_c, 0, 61, 110
2, 246912, Note_on_c, 0, 55, 110
2, 247292, Note_off_c, 0, 61, 100
2, 247292, Note_off_c, 0, 55, 100
2, 247296, Note_on_c, 0, 62, 110
2, 247296, Note_on_c, 0, 54, 110
2, 247676, Note_off_c, 0, 62, 100
2, 247676, Note_off_c, 0, 54, 100
2, 247680, Note_on_c, 0, 62, 110
2, 247680, Note_on_c, 0, 54, 110
2, 247680, Note_on_c, 0, 50, 110
2, 248060, Note_off_c, 0, 62, 100
2, 248060, Note_off_c, 0, 54, 100
2, 248060, Note_off_c, 0, 50, 100
2, 248064, Note_on_c, 0, 62, 110
2, 248064, Note_on_c, 0, 55, 110
2, 248064, Note_on_c, 0, 52, 110
2, 248444, Note_off_c, 0, 62, 100
2, 248444, Note_off_c, 0, 55, 100
2, 248444, Note_off_c, 0, 52, 100
2, 248448, Note_on_c, 0, 62, 110
2, 248448, Note_on_c, 0, 57, 110
2, 248448, Note_on_c, 0, 54, 110
2, 248828, Note_off_c, 0, 62, 100
2, 248828, Note_off_c, 0, 57, 100
2, 248828, Note_off_c, 0, 54, 100
2, 248832, Note_on_c, 0, 62, 120
2, 248832, Note_on_c, 0, 59, 120
2, 248832, Note_on_c, 0, 55, 120
2, 249212, Note_off_c, 0, 62, 100
2, 249212, Note_off_c, 0, 59, 100
2, 249212, Note_off_c, 0, 55, 100
2, 249600, Note_on_c, 0, 55, 120
2, 249724, Note_off_c, 0, 55, 100
2, 249728, Note_on_c, 0, 59, 120
2, 249852, Note_off_c, 0, 59, 100
2, 249856, Note_on_c, 0, 62, 120
2, 249980, Note_off_c, 0, 62, 100
2, 249984, Note_on_c, 0, 67, 120
2, 250076, Note_off_c, 0, 67, 100
2, 250080, Note_on_c, 0, 71, 120
2, 250172, Note_off_c, 0, 71, 100
2, 250176, Note_on_c, 0, 74, 120
2, 250268, Note_off_c, 0, 74, 100
2, 250272, Note_on_c, 0, 79, 120
2, 250364, Note_off_c, 0, 79, 100
2, 250368, Note_on_c, 0, 67, 120
2, 250748, Note_off_c, 0, 67, 100
2, 251136, Note_on_c, 0, 55, 120
2, 251260, Note_off_c, 0, 55, 100
2, 251264, Note_on_c, 0, 59, 120
2, 251388, Note_off_c, 0, 59, 100
2, 251392, Note_on_c, 0, 63, 120
2, 251516, Note_off_c, 0, 63, 100
2, 251520, Note_on_c, 0, 67, 120
2, 251612, Note_off_c, 0, 67, 100
2, 251616, Note_on_c, 0, 71, 120
2, 251708, Note_off_c, 0, 71, 100
2, 251712, Note_on_c, 0, 75, 120
2, 251804, Note_off_c, 0, 75, 100
2, 251808, Note_on_c, 0, 79, 120
2, 251900, Note_off_c, 0, 79, 100
2, 251904, Note_on_c, 0, 67, 120
2, 252284, Note_off_c, 0, 67, 100
2, 252672, Note_on_c, 0, 55, 120
2, 252796, Note_off_c, 0, 55, 100
2, 252800, Note_on_c, 0, 59, 120
2, 252924, Note_off_c, 0, 59, 100
2, 252928, Note_on_c, 0, 64, 120
2, 253052, Note_off_c, 0, 64, 100
2, 253056, Note_on_c, 0, 67, 120
2, 253148, Note_off_c, 0, 67, 100
2, 253152, Note_on_c, 0, 71, 120
2, 253244, Note_off_c, 0, 71, 100
2, 253248, Note_on_c, 0, 76, 120
2, 253340, Note_off_c, 0, 76, 100
2, 253344, Note_on_c, 0, 79, 120
2, 253436, Note_off_c, 0, 79, 100
2, 253440, Note_on_c, 0, 72, 120
2, 253440, Note_on_c, 0, 60, 120
2, 253820, Note_off_c, 0, 72, 100
2, 253820, Note_off_c, 0, 60, 100
2, 254208, Note_on_c, 0, 74, 120
2, 254208, Note_on_c, 0, 62, 120
2, 254588, Note_off_c, 0, 74, 100
2, 254588, Note_off_c, 0, 62, 100
2, 254976, Note_on_c, 0, 67, 120
2, 254976, Note_on_c, 0, 55, 120
2, 255356, Note_off_c, 0, 67, 100
2, 255356, Note_off_c, 0, 55, 100
2, 255744, Note_on_c, 0, 60, 80
2, 256124, Note_off_c, 0, 60, 100
2, 256128, Note_on_c, 0, 60, 80
2, 256508, Note_off_c, 0, 60, 100
2, 256512, Note_on_c, 0, 62, 80
2, 256560, Note_on_c, 0, 60, 80
2, 256604, Note_off_c, 0, 62, 100
2, 256608, Note_on_c, 0, 62, 80
2, 256652, Note_off_c, 0, 60, 100
2, 256656, Note_on_c, 0, 60, 80
2, 256700, Note_off_c, 0, 62, 100
2, 256704, Note_on_c, 0, 59, 80
2, 256748, Note_off_c, 0, 60, 100
2, 256796, Note_off_c, 0, 59, 100
2, 256800, Note_on_c, 0, 60, 80
2, 256892, Note_off_c, 0, 60, 100
2, 256896, Note_on_c, 0, 57, 80
2, 257276, Note_off_c, 0, 57, 100
2, 257280, Note_on_c, 0, 66, 70
2, 257280, Note_on_c, 0, 60, 70
2, 258044, Note_off_c, 0, 66, 100
2, 258044, Note_off_c, 0, 60, 100
2, 258048, Note_on_c, 0, 67, 70
2, 258048, Note_on_c, 0, 59, 70
2, 258428, Note_off_c, 0, 67, 100
2, 258428, Note_off_c, 0, 59, 100
2, 258816, Note_on_c, 0, 60, 80
2, 259196, Note_off_c, 0, 60, 100
2, 259200, Note_on_c, 0, 60, 80
2, 259580, Note_off_c, 0, 60, 100
2, 259584, Note_on_c, 0, 62, 80
2, 259632, Note_on_c, 0, 60, 80
2, 259676, Note_off_c, 0, 62, 100
2, 259680, Note_on_c, 0, 62, 80
2, 259724, Note_off_c, 0, 60, 100
2, 259728, Note_on_c, 0, 60, 80
2, 259772, Note_off_c, 0, 62, 100
2, 259776, Note_on_c, 0, 59, 80
2, 259820, Note_off_c, 0, 60, 100
2, 259868, Note_off_c, 0, 59, 100
2, 259872, Note_on_c, 0, 60, 80
2, 259964, Note_off_c, 0, 60, 100
2, 259968, Note_on_c, 0, 57, 80
2, 260348, Note_off_c, 0, 57, 100
2, 260352, Note_on_c, 0, 66, 70
2, 260352, Note_on_c, 0, 69, 70
2, 261116, Note_off_c, 0, 66, 100
2, 261116, Note_off_c, 0, 69, 100
2, 261120, Note_on_c, 0, 67, 70
2, 261120, Note_on_c, 0, 71, 70
2, 261500, Note_off_c, 0, 67, 100
2, 261500, Note_off_c, 0, 71, 100
2, 261888, Note_on_c, 0, 60, 110
2, 262268, Note_off_c, 0, 60, 100
2, 262272, Note_on_c, 0, 60, 110
2, 262652, Note_off_c, 0, 60, 100
2, 262656, Note_on_c, 0, 62, 110
2, 262704, Note_on_c, 0, 60, 110
2, 262748, Note_off_c, 0, 62, 100
2, 262752, Note_on_c, 0, 62, 110
2, 262796, Note_off_c, 0, 60, 100
2, 262800, Note_on_c, 0, 60, 110
2, 262844, Note_off_c, 0, 62, 100
2, 262848, Note_on_c, 0, 59, 110
2, 262892, Note_off_c, 0, 60, 100
2, 262940, Note_off_c, 0, 59, 100
2, 262944, Note_on_c, 0, 60, 110
2, 263036, Note_off_c, 0, 60, 100
2, 263040, Note_on_c, 0, 57, 110
2, 263420, Note_off_c, 0, 57, 100
2, 263424, Note_on_c, 0, 67, 110
2, 263472, Note_on_c, 0, 66, 110
2, 263516, Note_off_c, 0, 67, 100
2, 263520, Note_on_c, 0, 67, 110
2, 263564, Note_off_c, 0, 66, 100
2, 263568, Note_on_c, 0, 66, 110
2, 263612, Note_off_c, 0, 67, 100
2, 263616, Note_on_c, 0, 64, 110
2, 263660, Note_off_c, 0, 66, 100
2, 263708, Note_off_c, 0, 64, 100
2, 263712, Note_on_c, 0, 66, 110
2, 263804, Note_off_c, 0, 66, 100
2, 263808, Note_on_c, 0, 62, 110
2, 264188, Note_off_c, 0, 62, 100
2, 264192, Note_on_c, 0, 72, 110
2, 264240, Note_on_c, 0, 71, 110
2, 264284, Note_off_c, 0, 72, 100
2, 264288, Note_on_c, 0, 72, 110
2, 264332, Note_off_c, 0, 71, 100
2, 264336, Note_on_c, 0, 71, 110
2, 264380, Note_off_c, 0, 72, 100
2, 264384, Note_on_c, 0, 69, 110
2, 264428, Note_off_c, 0, 71, 100
2, 264476, Note_off_c, 0, 69, 100
2, 264480, Note_on_c, 0, 71, 110
2, 264572, Note_off_c, 0, 71, 100
2, 264576, Note_on_c, 0, 67, 110
2, 264956, Note_off_c, 0, 67, 100
2, 264960, Note_on_c, 0, 77, 110
2, 265008, Note_on_c, 0, 76, 110
2, 265052, Note_off_c, 0, 77, 100
2, 265056, Note_on_c, 0, 77, 110
2, 265100, Note_off_c, 0, 76, 100
2, 265104, Note_on_c, 0, 76, 110
2, 265148, Note_off_c, 0, 77, 100
2, 265152, Note_on_c, 0, 75, 110
2, 265196, Note_off_c, 0, 76, 100
2, 265244, Note_off_c, 0, 75, 100
2, 265248, Note_on_c, 0, 76, 110
2, 265340, Note_off_c, 0, 76, 100
2, 265344, Note_on_c, 0, 73, 110
2, 265724, Note_off_c, 0, 73, 100
2, 265728, Note_on_c, 0, 74, 110
2, 266108, Note_off_c, 0, 74, 100
2, 266496, Note_on_c, 0, 78, 110
2, 266496, Note_on_c, 0, 74, 110
2, 266496, Note_on_c, 0, 72, 110
2, 266496, Note_on_c, 0, 69, 110
2, 266876, Note_off_c, 0, 78, 100
2, 266876, Note_off_c, 0, 74, 100
2, 266876, Note_off_c, 0, 72, 100
2, 266876, Note_off_c, 0, 69, 100
2, 267264, Note_on_c, 0, 67, 120
2, 267356, Note_off_c, 0, 67, 100
2, 267360, Note_on_c, 0, 79, 120
2, 267452, Note_off_c, 0, 79, 100
2, 267456, Note_on_c, 0, 66, 120
2, 267548, Note_off_c, 0, 66, 100
2, 267552, Note_on_c, 0, 78, 120
2, 267644, Note_off_c, 0, 78, 100
2, 267648, Note_on_c, 0, 67, 120
2, 267740, Note_off_c, 0, 67, 100
2, 267744, Note_on_c, 0, 79, 120
2, 267836, Note_off_c, 0, 79, 100
2, 267840, Note_on_c, 0, 69, 120
2, 267932, Note_off_c, 0, 69, 100
2, 267936, Note_on_c, 0, 81, 120
2, 268028, Note_off_c, 0, 81, 100
2, 268032, Note_on_c, 0, 71, 120
2, 268124, Note_off_c, 0, 71, 100
2, 268128, Note_on_c, 0, 83, 120
2, 268220, Note_off_c, 0, 83, 100
2, 268224, Note_on_c, 0, 72, 120
2, 268316, Note_off_c, 0, 72, 100
2, 268320, Note_on_c, 0, 84, 120
2, 268412, Note_off_c, 0, 84, 100
2, 268416, Note_on_c, 0, 73, 120
2, 268508, Note_off_c, 0, 73, 100
2, 268512, Note_on_c, 0, 85, 120
2, 268604, Note_off_c, 0, 85, 100
2, 268608, Note_on_c, 0, 74, 120
2, 268700, Note_off_c, 0, 74, 100
2, 268704, Note_on_c, 0, 86, 120
2, 268796, Note_off_c, 0, 86, 100
2, 268800, Note_on_c, 0, 76, 120
2, 268892, Note_off_c, 0, 76, 100
2, 268896, Note_on_c, 0, 88, 120
2, 268988, Note_off_c, 0, 88, 100
2, 268992, Note_on_c, 0, 74, 120
2, 269084, Note_off_c, 0, 74, 100
2, 269088, Note_on_c, 0, 86, 120
2, 269180, Note_off_c, 0, 86, 100
2, 269184, Note_on_c, 0, 72, 120
2, 269276, Note_off_c, 0, 72, 100
2, 269280, Note_on_c, 0, 84, 120
2, 269372, Note_off_c, 0, 84, 100
2, 269376, Note_on_c, 0, 71, 120
2, 269468, Note_off_c, 0, 71, 100
2, 269472, Note_on_c, 0, 83, 120
2, 269564, Note_off_c, 0, 83, 100
2, 269568, Note_on_c, 0, 69, 120
2, 269660, Note_off_c, 0, 69, 100
2, 269664, Note_on_c, 0, 81, 120
2, 269756, Note_off_c, 0, 81, 100
2, 269760, Note_on_c, 0, 71, 120
2, 269852, Note_off_c, 0, 71, 100
2, 269856, Note_on_c, 0, 83, 120
2, 269948, Note_off_c, 0, 83, 100
2, 269952, Note_on_c, 0, 72, 120
2, 270044, Note_off_c, 0, 72, 100
2, 270048, Note_on_c, 0, 84, 120
2, 270140, Note_off_c, 0, 84, 100
2, 270144, Note_on_c, 0, 69, 120
2, 270236, Note_off_c, 0, 69, 100
2, 270240, Note_on_c, 0, 81, 120
2, 270332, Note_off_c, 0, 81, 100
2, 270336, Note_on_c, 0, 67, 120
2, 270428, Note_off_c, 0, 67, 100
2, 270432, Note_on_c, 0, 79, 120
2, 270524, Note_off_c, 0, 79, 100
2, 270528, Note_on_c, 0, 66, 120
2, 270620, Note_off_c, 0, 66, 100
2, 270624, Note_on_c, 0, 78, 120
2, 270716, Note_off_c, 0, 78, 100
2, 270720, Note_on_c, 0, 64, 120
2, 270812, Note_off_c, 0, 64, 100
2, 270816, Note_on_c, 0, 76, 120
2, 270908, Note_off_c, 0, 76, 100
2, 270912, Note_on_c, 0, 62, 120
2, 271004, Note_off_c, 0, 62, 100
2, 271008, Note_on_c, 0, 74, 120
2, 271100, Note_off_c, 0, 74, 100
2, 271104, Note_on_c, 0, 60, 120
2, 271196, Note_off_c, 0, 60, 100
2, 271200, Note_on_c, 0, 72, 120
2, 271292, Note_off_c, 0, 72, 100
2, 271296, Note_on_c, 0, 59, 120
2, 271388, Note_off_c, 0, 59, 100
2, 271392, Note_on_c, 0, 71, 120
2, 271484, Note_off_c, 0, 71, 100
2, 271488, Note_on_c, 0, 57, 120
2, 271580, Note_off_c, 0, 57, 100
2, 271584, Note_on_c, 0, 69, 120
2, 271676, Note_off_c, 0, 69, 100
2, 271680, Note_on_c, 0, 55, 120
2, 271772, Note_off_c, 0, 55, 100
2, 271776, Note_on_c, 0, 67, 120
2, 271868, Note_off_c, 0, 67, 100
2, 271872, Note_on_c, 0, 54, 120
2, 271964, Note_off_c, 0, 54, 100
2, 271968, Note_on_c, 0, 66, 120
2, 272060, Note_off_c, 0, 66, 100
2, 272064, Note_on_c, 0, 52, 120
2, 272156, Note_off_c, 0, 52, 100
2, 272160, Note_on_c, 0, 64, 120
2, 272252, Note_off_c, 0, 64, 100
2, 272256, Note_on_c, 0, 50, 120
2, 272348, Note_off_c, 0, 50, 100
2, 272352, Note_on_c, 0, 62, 120
2, 272444, Note_off_c, 0, 62, 100
2, 272448, Note_on_c, 0, 49, 120
2, 272540, Note_off_c, 0, 49, 100
2, 272544, Note_on_c, 0, 61, 120
2, 272636, Note_off_c, 0, 61, 100
2, 272640, Note_on_c, 0, 50, 120
2, 272732, Note_off_c, 0, 50, 100
2, 272736, Note_on_c, 0, 62, 120
2, 272828, Note_off_c, 0, 62, 100
2, 272832, Note_on_c, 0, 48, 120
2, 272924, Note_off_c, 0, 48, 100
2, 272928, Note_on_c, 0, 60, 120
2, 273020, Note_off_c, 0, 60, 100
2, 273024, Note_on_c, 0, 47, 120
2, 273116, Note_off_c, 0, 47, 100
2, 273120, Note_on_c, 0, 59, 120
2, 273212, Note_off_c, 0, 59, 100
2, 273216, Note_on_c, 0, 45, 120
2, 273308, Note_off_c, 0, 45, 100
2, 273312, Note_on_c, 0, 57, 120
2, 273404, Note_off_c, 0, 57, 100
2, 273408, Note_on_c, 0, 43, 120
2, 273408, Note_on_c, 0, 55, 120
2, 273788, Note_off_c, 0, 43, 100
2, 273788, Note_off_c, 0, 55, 100
2, 274176, Note_on_c, 0, 78, 120
2, 274176, Note_on_c, 0, 74, 120
2, 274176, Note_on_c, 0, 72, 120
2, 274176, Note_on_c, 0, 69, 120
2, 274176, Note_on_c, 0, 66, 120
2, 274556, Note_off_c, 0, 78, 100
2, 274556, Note_off_c, 0, 74, 100
2, 274556, Note_off_c, 0, 72, 100
2, 274556, Note_off_c, 0, 69, 100
2, 274556, Note_off_c, 0, 66, 100
2, 274944, Note_on_c, 0, 79, 120
2, 274944, Note_on_c, 0, 74, 120
2, 274944, Note_on_c, 0, 71, 120
2, 274944, Note_on_c, 0, 67, 120
2, 275324, Note_off_c, 0, 79, 100
2, 275324, Note_off_c, 0, 74, 100
2, 275324, Note_off_c, 0, 71, 100
2, 275324, Note_off_c, 0, 67, 100
2, 275712, Note_on_c, 0, 62, 80
2, 276092, Note_off_c, 0, 62, 100
2, 276096, Note_on_c, 0, 62, 80
2, 276476, Note_off_c, 0, 62, 100
2, 276480, Note_on_c, 0, 64, 80
2, 276528, Note_on_c, 0, 62, 80
2, 276572, Note_off_c, 0, 64, 100
2, 276576, Note_on_c, 0, 64, 80
2, 276620, Note_off_c, 0, 62, 100
2, 276624, Note_on_c, 0, 62, 80
2, 276668, Note_off_c, 0, 64, 100
2, 276672, Note_on_c, 0, 61, 80
2, 276716, Note_off_c, 0, 62, 100
2, 276764, Note_off_c, 0, 61, 100
2, 276768, Note_on_c, 0, 62, 80
2, 276860, Note_off_c, 0, 62, 100
2, 276864, Note_on_c, 0, 59, 80
2, 277244, Note_off_c, 0, 59, 100
2, 277248, Note_on_c, 0, 71, 70
2, 277248, Note_on_c, 0, 62, 70
2, 278012, Note_off_c, 0, 71, 100
2, 278012, Note_off_c, 0, 62, 100
2, 278016, Note_on_c, 0, 72, 70
2, 278016, Note_on_c, 0, 60, 70
2, 278396, Note_off_c, 0, 72, 100
2, 278396, Note_off_c, 0, 60, 100
2, 278784, Note_on_c, 0, 67, 80
2, 279164, Note_off_c, 0, 67, 100
2, 279168, Note_on_c, 0, 67, 80
2, 279548, Note_off_c, 0, 67, 100
2, 279552, Note_on_c, 0, 68, 80
2, 279600, Note_on_c, 0, 67, 80
2, 279644, Note_off_c, 0, 68, 100
2, 279648, Note_on_c, 0, 68, 80
2, 279692, Note_off_c, 0, 67, 100
2, 279696, Note_on_c, 0, 67, 80
2, 279740, Note_off_c, 0, 68, 100
2, 279744, Note_on_c, 0, 65, 80
2, 279788, Note_off_c, 0, 67, 100
2, 279836, Note_off_c, 0, 65, 100
2, 279840, Note_on_c, 0, 67, 80
2, 279932, Note_off_c, 0, 67, 100
2, 279936, Note_on_c, 0, 64, 80
2, 280316, Note_off_c, 0, 64, 100
2, 280320, Note_on_c, 0, 76, 70
2, 280320, Note_on_c, 0, 67, 70
2, 281084, Note_off_c, 0, 76, 100
2, 281084, Note_off_c, 0, 67, 100
2, 281088, Note_on_c, 0, 65, 70
2, 281088, Note_on_c, 0, 77, 70
2, 281468, Note_off_c, 0, 65, 100
2, 281468, Note_off_c, 0, 77, 100
2, 281856, Note_on_c, 0, 68, 110
2, 282236, Note_off_c, 0, 68, 100
2, 282240, Note_on_c, 0, 68, 110
2, 282620, Note_off_c, 0, 68, 100
2, 282624, Note_on_c, 0, 70, 110
2, 282672, Note_on_c, 0, 68, 110
2, 282716, Note_off_c, 0, 70, 100
2, 282720, Note_on_c, 0, 70, 110
2, 282764, Note_off_c, 0, 68, 100
2, 282768, Note_on_c, 0, 68, 110
2, 282812, Note_off_c, 0, 70, 100
2, 282816, Note_on_c, 0, 67, 110
2, 282860, Note_off_c, 0, 68, 100
2, 282908, Note_off_c, 0, 67, 100
2, 282912, Note_on_c, 0, 68, 110
2, 283004, Note_off_c, 0, 68, 100
2, 283008, Note_on_c, 0, 65, 110
2, 283388, Note_off_c, 0, 65, 100
2, 283392, Note_on_c, 0, 75, 110
2, 283440, Note_on_c, 0, 74, 110
2, 283484, Note_off_c, 0, 75, 100
2, 283488, Note_on_c, 0, 75, 110
2, 283532, Note_off_c, 0, 74, 100
2, 283536, Note_on_c, 0, 74, 110
2, 283580, Note_off_c, 0, 75, 100
2, 283584, Note_on_c, 0, 72, 110
2, 283628, Note_off_c, 0, 74, 100
2, 283676, Note_off_c, 0, 72, 100
2, 283680, Note_on_c, 0, 74, 110
2, 283772, Note_off_c, 0, 74, 100
2, 283776, Note_on_c, 0, 70, 110
2, 284156, Note_off_c, 0, 70, 100
2, 284160, Note_on_c, 0, 79, 110
2, 284208, Note_on_c, 0, 77, 110
2, 284252, Note_off_c, 0, 79, 100
2, 284256, Note_on_c, 0, 79, 110
2, 284300, Note_off_c, 0, 77, 100
2, 284304, Note_on_c, 0, 77, 110
2, 284348, Note_off_c, 0, 79, 100
2, 284352, Note_on_c, 0, 76, 110
2, 284396, Note_off_c, 0, 77, 100
2, 284444, Note_off_c, 0, 76, 100
2, 284448, Note_on_c, 0, 77, 110
2, 284540, Note_off_c, 0, 77, 100
2, 284544, Note_on_c, 0, 74, 110
2, 284924, Note_off_c, 0, 74, 100
2, 284928, Note_on_c, 0, 82, 110
2, 284976, Note_on_c, 0, 80, 110
2, 285020, Note_off_c, 0, 82, 100
2, 285024, Note_on_c, 0, 82, 110
2, 285068, Note_off_c, 0, 80, 100
2, 285072, Note_on_c, 0, 80, 110
2, 285116, Note_off_c, 0, 82, 100
2, 285120, Note_on_c, 0, 79, 110
2, 285164, Note_off_c, 0, 80, 100
2, 285212, Note_off_c, 0, 79, 100
2, 285216, Note_on_c, 0, 80, 110
2, 285308, Note_off_c, 0, 80, 100
2, 285312, Note_on_c, 0, 77, 110
2, 285692, Note_off_c, 0, 77, 100
2, 285696, Note_on_c, 0, 77, 120
2, 285792, Note_on_c, 0, 86, 120
2, 285884, Note_off_c, 0, 77, 100
2, 285888, Note_on_c, 0, 80, 120
2, 285980, Note_off_c, 0, 86, 100
2, 285984, Note_on_c, 0, 89, 120
2, 286076, Note_off_c, 0, 80, 100
2, 286080, Note_on_c, 0, 74, 120
2, 286172, Note_off_c, 0, 89, 100
2, 286176, Note_on_c, 0, 80, 120
2, 286268, Note_off_c, 0, 74, 100
2, 286272, Note_on_c, 0, 77, 120
2, 286364, Note_off_c, 0, 80, 100
2, 286368, Note_on_c, 0, 86, 120
2, 286460, Note_off_c, 0, 77, 100
2, 286464, Note_on_c, 0, 68, 120
2, 286556, Note_off_c, 0, 86, 100
2, 286560, Note_on_c, 0, 77, 120
2, 286652, Note_off_c, 0, 68, 100
2, 286656, Note_on_c, 0, 74, 120
2, 286748, Note_off_c, 0, 77, 100
2, 286752, Note_on_c, 0, 80, 120
2, 286844, Note_off_c, 0, 74, 100
2, 286848, Note_on_c, 0, 65, 120
2, 286940, Note_off_c, 0, 80, 100
2, 286944, Note_on_c, 0, 74, 120
2, 287036, Note_off_c, 0, 65, 100
2, 287040, Note_on_c, 0, 68, 120
2, 287132, Note_off_c, 0, 74, 100
2, 287136, Note_on_c, 0, 77, 120
2, 287228, Note_off_c, 0, 68, 100
2, 287232, Note_on_c, 0, 62, 120
2, 287324, Note_off_c, 0, 77, 100
2, 287328, Note_on_c, 0, 68, 120
2, 287420, Note_off_c, 0, 62, 100
2, 287424, Note_on_c, 0, 65, 120
2, 287516, Note_off_c, 0, 68, 100
2, 287520, Note_on_c, 0, 74, 120
2, 287612, Note_off_c, 0, 65, 100
2, 287616, Note_on_c, 0, 56, 120
2, 287708, Note_off_c, 0, 74, 100
2, 287712, Note_on_c, 0, 65, 120
2, 287804, Note_off_c, 0, 56, 100
2, 287808, Note_on_c, 0, 62, 120
2, 287900, Note_off_c, 0, 65, 100
2, 287904, Note_on_c, 0, 68, 120
2, 287996, Note_off_c, 0, 62, 100
2, 288000, Note_on_c, 0, 53, 120
2, 288092, Note_off_c, 0, 68, 100
2, 288096, Note_on_c, 0, 62, 120
2, 288188, Note_off_c, 0, 53, 100
2, 288192, Note_on_c, 0, 56, 120
2, 288284, Note_off_c, 0, 62, 100
2, 288288, Note_on_c, 0, 65, 120
2, 288380, Note_off_c, 0, 56, 100
2, 288384, Note_on_c, 0, 56, 120
2, 288476, Note_off_c, 0, 65, 100
2, 288480, Note_on_c, 0, 65, 120
2, 288572, Note_off_c, 0, 56, 100
2, 288576, Note_on_c, 0, 62, 120
2, 288668, Note_off_c, 0, 65, 100
2, 288672, Note_on_c, 0, 68, 120
2, 288764, Note_off_c, 0, 62, 100
2, 288768, Note_on_c, 0, 53, 120
2, 288860, Note_off_c, 0, 68, 100
2, 288864, Note_on_c, 0, 62, 120
2, 288956, Note_off_c, 0, 53, 100
2, 288960, Note_on_c, 0, 56, 120
2, 289052, Note_off_c, 0, 62, 100
2, 289056, Note_on_c, 0, 65, 120
2, 289148, Note_off_c, 0, 56, 100
2, 289152, Note_on_c, 0, 56, 120
2, 289244, Note_off_c, 0, 65, 100
2, 289248, Note_on_c, 0, 65, 120
2, 289340, Note_off_c, 0, 56, 100
2, 289344, Note_on_c, 0, 62, 120
2, 289436, Note_off_c, 0, 65, 100
2, 289440, Note_on_c, 0, 68, 120
2, 289532, Note_off_c, 0, 62, 100
2, 289536, Note_on_c, 0, 62, 120
2, 289628, Note_off_c, 0, 68, 100
2, 289632, Note_on_c, 0, 68, 120
2, 289724, Note_off_c, 0, 62, 100
2, 289728, Note_on_c, 0, 65, 120
2, 289820, Note_off_c, 0, 68, 100
2, 289824, Note_on_c, 0, 74, 120
2, 289916, Note_off_c, 0, 65, 100
2, 289920, Note_on_c, 0, 65, 120
2, 290012, Note_off_c, 0, 74, 100
2, 290016, Note_on_c, 0, 74, 120
2, 290108, Note_off_c, 0, 65, 100
2, 290112, Note_on_c, 0, 68, 120
2, 290204, Note_off_c, 0, 74, 100
2, 290208, Note_on_c, 0, 77, 120
2, 290300, Note_off_c, 0, 68, 100
2, 290304, Note_on_c, 0, 68, 120
2, 290396, Note_off_c, 0, 77, 100
2, 290400, Note_on_c, 0, 77, 120
2, 290492, Note_off_c, 0, 68, 100
2, 290496, Note_on_c, 0, 74, 120
2, 290588, Note_off_c, 0, 77, 100
2, 290592, Note_on_c, 0, 80, 120
2, 290684, Note_off_c, 0, 74, 100
2, 290688, Note_on_c, 0, 74, 120
2, 290780, Note_off_c, 0, 80, 100
2, 290784, Note_on_c, 0, 80, 120
2, 290876, Note_off_c, 0, 74, 100
2, 290880, Note_on_c, 0, 77, 120
2, 290972, Note_off_c, 0, 80, 100
2, 290976, Note_on_c, 0, 86, 120
2, 291068, Note_off_c, 0, 77, 100
2, 291072, Note_on_c, 0, 77, 120
2, 291164, Note_off_c, 0, 86, 100
2, 291168, Note_on_c, 0, 86, 120
2, 291260, Note_off_c, 0, 77, 100
2, 291264, Note_on_c, 0, 80, 120
2, 291356, Note_off_c, 0, 86, 100
2, 291360, Note_on_c, 0, 89, 120
2, 291452, Note_off_c, 0, 80, 100
2, 291456, Note_on_c, 0, 74, 120
2, 291548, Note_off_c, 0, 89, 100
2, 291552, Note_on_c, 0, 80, 120
2, 291644, Note_off_c, 0, 74, 100
2, 291648, Note_on_c, 0, 77, 120
2, 291740, Note_off_c, 0, 80, 100
2, 291744, Note_on_c, 0, 86, 120
2, 291836, Note_off_c, 0, 77, 100
2, 291836, Note_off_c, 0, 86, 100
2, 291840, Note_on_c, 0, 77, 120
2, 291936, Note_on_c, 0, 84, 120
2, 292028, Note_off_c, 0, 77, 100
2, 292032, Note_on_c, 0, 80, 120
2, 292124, Note_off_c, 0, 84, 100
2, 292128, Note_on_c, 0, 89, 120
2, 292220, Note_off_c, 0, 80, 100
2, 292224, Note_on_c, 0, 72, 120
2, 292316, Note_off_c, 0, 89, 100
2, 292320, Note_on_c, 0, 80, 120
2, 292412, Note_off_c, 0, 72, 100
2, 292416, Note_on_c, 0, 77, 120
2, 292508, Note_off_c, 0, 80, 100
2, 292512, Note_on_c, 0, 84, 120
2, 292604, Note_off_c, 0, 77, 100
2, 292608, Note_on_c, 0, 68, 120
2, 292700, Note_off_c, 0, 84, 100
2, 292704, Note_on_c, 0, 77, 120
2, 292796, Note_off_c, 0, 68, 100
2, 292800, Note_on_c, 0, 72, 120
2, 292892, Note_off_c, 0, 77, 100
2, 292896, Note_on_c, 0, 80, 120
2, 292988, Note_off_c, 0, 72, 100
2, 292992, Note_on_c, 0, 65, 120
2, 293084, Note_off_c, 0, 80, 100
2, 293088, Note_on_c, 0, 72, 120
2, 293180, Note_off_c, 0, 65, 100
2, 293184, Note_on_c, 0, 68, 120
2, 293276, Note_off_c, 0, 72, 100
2, 293280, Note_on_c, 0, 77, 120
2, 293372, Note_off_c, 0, 68, 100
2, 293376, Note_on_c, 0, 60, 120
2, 293468, Note_off_c, 0, 77, 100
2, 293472, Note_on_c, 0, 68, 120
2, 293564, Note_off_c, 0, 60, 100
2, 293568, Note_on_c, 0, 65, 120
2, 293660, Note_off_c, 0, 68, 100
2, 293664, Note_on_c, 0, 72, 120
2, 293756, Note_off_c, 0, 65, 100
2, 293760, Note_on_c, 0, 56, 120
2, 293852, Note_off_c, 0, 72, 100
2, 293856, Note_on_c, 0, 65, 120
2, 293948, Note_off_c, 0, 56, 100
2, 293952, Note_on_c, 0, 60, 120
2, 294044, Note_off_c, 0, 65, 100
2, 294048, Note_on_c, 0, 68, 120
2, 294140, Note_off_c, 0, 60, 100
2, 294144, Note_on_c, 0, 53, 120
2, 294236, Note_off_c, 0, 68, 100
2, 294240, Note_on_c, 0, 60, 120
2, 294332, Note_off_c, 0, 53, 100
2, 294336, Note_on_c, 0, 56, 120
2, 294428, Note_off_c, 0, 60, 100
2, 294432, Note_on_c, 0, 65, 120
2, 294524, Note_off_c, 0, 56, 100
2, 294528, Note_on_c, 0, 56, 120
2, 294620, Note_off_c, 0, 65, 100
2, 294624, Note_on_c, 0, 65, 120
2, 294716, Note_off_c, 0, 56, 100
2, 294720, Note_on_c, 0, 60, 120
2, 294812, Note_off_c, 0, 65, 100
2, 294816, Note_on_c, 0, 68, 120
2, 294908, Note_off_c, 0, 60, 100
2, 294912, Note_on_c, 0, 53, 120
2, 295004, Note_off_c, 0, 68, 100
2, 295008, Note_on_c, 0, 59, 120
2, 295100, Note_off_c, 0, 53, 100
2, 295104, Note_on_c, 0, 56, 120
2, 295196, Note_off_c, 0, 59, 100
2, 295200, Note_on_c, 0, 65, 120
2, 295292, Note_off_c, 0, 56, 100
2, 295296, Note_on_c, 0, 56, 120
2, 295388, Note_off_c, 0, 65, 100
2, 295392, Note_on_c, 0, 65, 120
2, 295484, Note_off_c, 0, 56, 100
2, 295488, Note_on_c, 0, 59, 120
2, 295580, Note_off_c, 0, 65, 100
2, 295584, Note_on_c, 0, 68, 120
2, 295676, Note_off_c, 0, 59, 100
2, 295680, Note_on_c, 0, 59, 120
2, 295772, Note_off_c, 0, 68, 100
2, 295776, Note_on_c, 0, 68, 120
2, 295868, Note_off_c, 0, 59, 100
2, 295872, Note_on_c, 0, 65, 120
2, 295964, Note_off_c, 0, 68, 100
2, 295968, Note_on_c, 0, 71, 120
2, 296060, Note_off_c, 0, 65, 100
2, 296064, Note_on_c, 0, 65, 120
2, 296156, Note_off_c, 0, 71, 100
2, 296160, Note_on_c, 0, 71, 120
2, 296252, Note_off_c, 0, 65, 100
2, 296256, Note_on_c, 0, 68, 120
2, 296348, Note_off_c, 0, 71, 100
2, 296352, Note_on_c, 0, 77, 120
2, 296444, Note_off_c, 0, 68, 100
2, 296448, Note_on_c, 0, 68, 120
2, 296540, Note_off_c, 0, 77, 100
2, 296544, Note_on_c, 0, 77, 120
2, 296636, Note_off_c, 0, 68, 100
2, 296640, Note_on_c, 0, 71, 120
2, 296732, Note_off_c, 0, 77, 100
2, 296736, Note_on_c, 0, 80, 120
2, 296828, Note_off_c, 0, 71, 100
2, 296832, Note_on_c, 0, 71, 120
2, 296924, Note_off_c, 0, 80, 100
2, 296928, Note_on_c, 0, 80, 120
2, 297020, Note_off_c, 0, 71, 100
2, 297024, Note_on_c, 0, 77, 120
2, 297116, Note_off_c, 0, 80, 100
2, 297120, Note_on_c, 0, 83, 120
2, 297212, Note_off_c, 0, 77, 100
2, 297216, Note_on_c, 0, 68, 120
2, 297308, Note_off_c, 0, 83, 100
2, 297312, Note_on_c, 0, 77, 120
2, 297404, Note_off_c, 0, 68, 100
2, 297408, Note_on_c, 0, 71, 120
2, 297500, Note_off_c, 0, 77, 100
2, 297504, Note_on_c, 0, 80, 120
2, 297596, Note_off_c, 0, 71, 100
2, 297600, Note_on_c, 0, 71, 120
2, 297692, Note_off_c, 0, 80, 100
2, 297696, Note_on_c, 0, 80, 120
2, 297788, Note_off_c, 0, 71, 100
2, 297792, Note_on_c, 0, 77, 120
2, 297884, Note_off_c, 0, 80, 100
2, 297888, Note_on_c, 0, 83, 120
2, 297980, Note_off_c, 0, 77, 100
2, 297984, Note_on_c, 0, 69, 110
2, 298076, Note_off_c, 0, 83, 100
2, 298080, Note_on_c, 0, 78, 110
2, 298172, Note_off_c, 0, 69, 100
2, 298176, Note_on_c, 0, 73, 110
2, 298268, Note_off_c, 0, 78, 100
2, 298272, Note_on_c, 0, 81, 110
2, 298364, Note_off_c, 0, 73, 100
2, 298368, Note_on_c, 0, 66, 110
2, 298460, Note_off_c, 0, 81, 100
2, 298464, Note_on_c, 0, 73, 110
2, 298556, Note_off_c, 0, 66, 100
2, 298560, Note_on_c, 0, 69, 110
2, 298652, Note_off_c, 0, 73, 100
2, 298656, Note_on_c, 0, 78, 110
2, 298748, Note_off_c, 0, 69, 100
2, 298752, Note_on_c, 0, 61, 110
2, 298844, Note_off_c, 0, 78, 100
2, 298848, Note_on_c, 0, 69, 110
2, 298940, Note_off_c, 0, 61, 100
2, 298944, Note_on_c, 0, 66, 110
2, 299036, Note_off_c, 0, 69, 100
2, 299040, Note_on_c, 0, 73, 110
2, 299132, Note_off_c, 0, 66, 100
2, 299136, Note_on_c, 0, 57, 110
2, 299228, Note_off_c, 0, 73, 100
2, 299232, Note_on_c, 0, 66, 110
2, 299324, Note_off_c, 0, 57, 100
2, 299328, Note_on_c, 0, 61, 110
2, 299420, Note_off_c, 0, 66, 100
2, 299424, Note_on_c, 0, 69, 110
2, 299516, Note_off_c, 0, 61, 100
2, 299520, Note_on_c, 0, 54, 110
2, 299612, Note_off_c, 0, 69, 100
2, 299616, Note_on_c, 0, 61, 110
2, 299708, Note_off_c, 0, 54, 100
2, 299712, Note_on_c, 0, 57, 110
2, 299804, Note_off_c, 0, 61, 100
2, 299808, Note_on_c, 0, 66, 110
2, 299900, Note_off_c, 0, 57, 100
2, 299904, Note_on_c, 0, 57, 110
2, 299996, Note_off_c, 0, 66, 100
2, 300000, Note_on_c, 0, 66, 110
2, 300092, Note_off_c, 0, 57, 100
2, 300096, Note_on_c, 0, 61, 110
2, 300188, Note_off_c, 0, 66, 100
2, 300192, Note_on_c, 0, 69, 110
2, 300284, Note_off_c, 0, 61, 100
2, 300288, Note_on_c, 0, 54, 110
2, 300380, Note_off_c, 0, 69, 100
2, 300384, Note_on_c, 0, 61, 110
2, 300476, Note_off_c, 0, 54, 100
2, 300480, Note_on_c, 0, 57, 110
2, 300572, Note_off_c, 0, 61, 100
2, 300576, Note_on_c, 0, 66, 110
2, 300668, Note_off_c, 0, 57, 100
2, 300672, Note_on_c, 0, 57, 110
2, 300764, Note_off_c, 0, 66, 100
2, 300768, Note_on_c, 0, 66, 110
2, 300860, Note_off_c, 0, 57, 100
2, 300864, Note_on_c, 0, 61, 110
2, 300956, Note_off_c, 0, 66, 100
2, 300960, Note_on_c, 0, 69, 110
2, 301052, Note_off_c, 0, 61, 100
2, 301056, Note_on_c, 0, 55, 110
2, 301148, Note_off_c, 0, 69, 100
2, 301152, Note_on_c, 0, 57, 109
2, 301244, Note_off_c, 0, 55, 100
2, 301248, Note_on_c, 0, 64, 108
2, 301340, Note_off_c, 0, 57, 100
2, 301344, Note_on_c, 0, 67, 107
2, 301436, Note_off_c, 0, 64, 100
2, 301440, Note_on_c, 0, 54, 105
2, 301532, Note_off_c, 0, 67, 100
2, 301536, Note_on_c, 0, 57, 104
2, 301628, Note_off_c, 0, 54, 100
2, 301632, Note_on_c, 0, 63, 103
2, 301724, Note_off_c, 0, 57, 100
2, 301728, Note_on_c, 0, 66, 101
2, 301820, Note_off_c, 0, 63, 100
2, 301824, Note_on_c, 0, 55, 100
2, 301916, Note_off_c, 0, 66, 100
2, 301920, Note_on_c, 0, 57, 99
2, 302012, Note_off_c, 0, 55, 100
2, 302016, Note_on_c, 0, 64, 98
2, 302108, Note_off_c, 0, 57, 100
2, 302112, Note_on_c, 0, 67, 96
2, 302204, Note_off_c, 0, 64, 100
2, 302208, Note_on_c, 0, 54, 95
2, 302300, Note_off_c, 0, 67, 100
2, 302304, Note_on_c, 0, 57, 94
2, 302396, Note_off_c, 0, 54, 100
2, 302400, Note_on_c, 0, 63, 92
2, 302492, Note_off_c, 0, 57, 100
2, 302496, Note_on_c, 0, 66, 91
2, 302588, Note_off_c, 0, 63, 100
2, 302592, Note_on_c, 0, 55, 90
2, 302684, Note_off_c, 0, 66, 100
2, 302688, Note_on_c, 0, 57, 89
2, 302780, Note_off_c, 0, 55, 100
2, 302784, Note_on_c, 0, 64, 87
2, 302876, Note_off_c, 0, 57, 100
2, 302880, Note_on_c, 0, 67, 86
2, 302972, Note_off_c, 0, 64, 100
2, 302976, Note_on_c, 0, 54, 85
2, 303068, Note_off_c, 0, 67, 100
2, 303072, Note_on_c, 0, 57, 83
2, 303164, Note_off_c, 0, 54, 100
2, 303168, Note_on_c, 0, 63, 82
2, 303260, Note_off_c, 0, 57, 100
2, 303264, Note_on_c, 0, 66, 81
2, 303356, Note_off_c, 0, 63, 100
2, 303360, Note_on_c, 0, 55, 80
2, 303452, Note_off_c, 0, 66, 100
2, 303456, Note_on_c, 0, 57, 78
2, 303548, Note_off_c, 0, 55, 100
2, 303552, Note_on_c, 0, 64, 77
2, 303644, Note_off_c, 0, 57, 100
2, 303648, Note_on_c, 0, 67, 76
2, 303740, Note_off_c, 0, 64, 100
2, 303744, Note_on_c, 0, 55, 74
2, 303836, Note_off_c, 0, 67, 100
2, 303840, Note_on_c, 0, 57, 73
2, 303932, Note_off_c, 0, 55, 100
2, 303936, Note_on_c, 0, 64, 72
2, 304028, Note_off_c, 0, 57, 100
2, 304032, Note_on_c, 0, 67, 71
2, 304124, Note_off_c, 0, 64, 100
2, 304124, Note_off_c, 0, 67, 100
2, 304128, Note_on_c, 0, 66, 70
2, 304128, Note_on_c, 0, 62, 70
2, 304892, Note_off_c, 0, 66, 100
2, 304892, Note_off_c, 0, 62, 100
2, 304896, Note_on_c, 0, 64, 70
2, 304896, Note_on_c, 0, 61, 70
2, 304988, Note_off_c, 0, 64, 100
2, 304988, Note_off_c, 0, 61, 100
2, 304992, Note_on_c, 0, 66, 70
2, 304992, Note_on_c, 0, 62, 70
2, 305084, Note_off_c, 0, 66, 100
2, 305084, Note_off_c, 0, 62, 100
2, 305088, Note_on_c, 0, 64, 70
2, 305088, Note_on_c, 0, 61, 70
2, 305180, Note_off_c, 0, 64, 100
2, 305180, Note_off_c, 0, 61, 100
2, 305184, Note_on_c, 0, 66, 70
2, 305184, Note_on_c, 0, 62, 70
2, 305276, Note_off_c, 0, 66, 100
2, 305276, Note_off_c, 0, 62, 100
2, 305280, Note_on_c, 0, 67, 70
2, 305280, Note_on_c, 0, 64, 70
2, 305468, Note_off_c, 0, 67, 100
2, 305468, Note_off_c, 0, 64, 100
2, 305472, Note_on_c, 0, 66, 70
2, 305472, Note_on_c, 0, 62, 70
2, 305660, Note_off_c, 0, 66, 100
2, 305660, Note_off_c, 0, 62, 100
2, 305664, Note_on_c, 0, 64, 70
2, 305664, Note_on_c, 0, 61, 70
2, 306044, Note_off_c, 0, 64, 100
2, 306044, Note_off_c, 0, 61, 100
2, 306048, Note_on_c, 0, 61, 70
2, 306048, Note_on_c, 0, 69, 70
2, 306428, Note_off_c, 0, 61, 100
2, 306428, Note_off_c, 0, 69, 100
2, 307200, Note_on_c, 0, 67, 70
2, 307200, Note_on_c, 0, 61, 70
2, 307964, Note_off_c, 0, 67, 100
2, 307968, Note_on_c, 0, 66, 70
2, 308060, Note_off_c, 0, 66, 100
2, 308064, Note_on_c, 0, 67, 70
2, 308156, Note_off_c, 0, 67, 100
2, 308160, Note_on_c, 0, 66, 70
2, 308252, Note_off_c, 0, 66, 100
2, 308256, Note_on_c, 0, 67, 70
2, 308348, Note_off_c, 0, 67, 100
2, 308352, Note_on_c, 0, 69, 70
2, 308540, Note_off_c, 0, 69, 100
2, 308544, Note_on_c, 0, 67, 70
2, 308732, Note_off_c, 0, 61, 100
2, 308732, Note_off_c, 0, 67, 100
2, 308736, Note_on_c, 0, 66, 70
2, 308736, Note_on_c, 0, 62, 70
2, 309116, Note_off_c, 0, 66, 100
2, 309116, Note_off_c, 0, 62, 100
2, 309120, Note_on_c, 0, 74, 70
2, 309120, Note_on_c, 0, 66, 70
2, 309500, Note_off_c, 0, 74, 100
2, 309500, Note_off_c, 0, 66, 100
2, 310272, Note_on_c, 0, 74, 120
2, 310272, Note_on_c, 0, 66, 120
2, 311036, Note_off_c, 0, 74, 100
2, 311036, Note_off_c, 0, 66, 100
2, 311040, Note_on_c, 0, 72, 120
2, 311136, Note_on_c, 0, 74, 120
2, 311228, Note_off_c, 0, 72, 100
2, 311232, Note_on_c, 0, 72, 120
2, 311324, Note_off_c, 0, 74, 100
2, 311328, Note_on_c, 0, 74, 120
2, 311420, Note_off_c, 0, 72, 100
2, 311424, Note_on_c, 0, 75, 127
2, 311516, Note_off_c, 0, 74, 100
2, 311612, Note_off_c, 0, 75, 100
2, 311616, Note_on_c, 0, 72, 120
2, 311804, Note_off_c, 0, 72, 100
2, 311808, Note_on_c, 0, 69, 120
2, 311904, Note_on_c, 0, 70, 120
2, 311996, Note_off_c, 0, 69, 100
2, 312000, Note_on_c, 0, 69, 120
2, 312092, Note_off_c, 0, 70, 100
2, 312096, Note_on_c, 0, 70, 120
2, 312188, Note_off_c, 0, 69, 100
2, 312192, Note_on_c, 0, 72, 127
2, 312284, Note_off_c, 0, 70, 100
2, 312380, Note_off_c, 0, 72, 100
2, 312384, Note_on_c, 0, 69, 120
2, 312572, Note_off_c, 0, 69, 100
2, 312576, Note_on_c, 0, 66, 120
2, 312672, Note_on_c, 0, 67, 120
2, 312764, Note_off_c, 0, 66, 100
2, 312768, Note_on_c, 0, 66, 120
2, 312860, Note_off_c, 0, 67, 100
2, 312864, Note_on_c, 0, 67, 120
2, 312956, Note_off_c, 0, 66, 100
2, 312960, Note_on_c, 0, 69, 127
2, 313052, Note_off_c, 0, 67, 100
2, 313148, Note_off_c, 0, 69, 100
2, 313152, Note_on_c, 0, 66, 120
2, 313340, Note_off_c, 0, 66, 100
2, 313344, Note_on_c, 0, 62, 120
2, 313724, Note_off_c, 0, 62, 100
2, 314112, Note_on_c, 0, 75, 120
2, 314112, Note_on_c, 0, 63, 120
2, 314492, Note_off_c, 0, 75, 100
2, 314492, Note_off_c, 0, 63, 100
2, 314496, Note_on_c, 0, 75, 120
2, 314496, Note_on_c, 0, 87, 120
2, 315260, Note_off_c, 0, 75, 100
2, 315260, Note_off_c, 0, 87, 100
2, 315264, Note_on_c, 0, 74, 120
2, 315264, Note_on_c, 0, 86, 120
2, 315644, Note_off_c, 0, 74, 100
2, 315644, Note_off_c, 0, 86, 100
2, 315648, Note_on_c, 0, 72, 120
2, 316028, Note_off_c, 0, 72, 100
2, 316032, Note_on_c, 0, 72, 120
2, 316032, Note_on_c, 0, 84, 120
2, 316412, Note_off_c, 0, 72, 100
2, 316412, Note_off_c, 0, 84, 100
2, 316416, Note_on_c, 0, 83, 120
2, 316416, Note_on_c, 0, 79, 120
2, 316416, Note_on_c, 0, 74, 120
2, 316796, Note_off_c, 0, 83, 100
2, 316796, Note_off_c, 0, 79, 100
2, 316796, Note_off_c, 0, 74, 100
2, 317184, Note_on_c, 0, 77, 120
2, 317280, Note_on_c, 0, 79, 120
2, 317372, Note_off_c, 0, 77, 100
2, 317376, Note_on_c, 0, 77, 120
2, 317468, Note_off_c, 0, 79, 100
2, 317472, Note_on_c, 0, 79, 120
2, 317564, Note_off_c, 0, 77, 100
2, 317568, Note_on_c, 0, 80, 120
2, 317660, Note_off_c, 0, 79, 100
2, 317756, Note_off_c, 0, 80, 100
2, 317760, Note_on_c, 0, 77, 120
2, 317948, Note_off_c, 0, 77, 100
2, 317952, Note_on_c, 0, 74, 120
2, 318048, Note_on_c, 0, 75, 120
2, 318140, Note_off_c, 0, 74, 100
2, 318144, Note_on_c, 0, 74, 120
2, 318236, Note_off_c, 0, 75, 100
2, 318240, Note_on_c, 0, 75, 120
2, 318332, Note_off_c, 0, 74, 100
2, 318336, Note_on_c, 0, 77, 120
2, 318428, Note_off_c, 0, 75, 100
2, 318524, Note_off_c, 0, 77, 100
2, 318528, Note_on_c, 0, 74, 120
2, 318716, Note_off_c, 0, 74, 100
2, 318720, Note_on_c, 0, 71, 120
2, 318816, Note_on_c, 0, 72, 120
2, 318908, Note_off_c, 0, 71, 100
2, 318912, Note_on_c, 0, 71, 120
2, 319004, Note_off_c, 0, 72, 100
2, 319008, Note_on_c, 0, 72, 120
2, 319100, Note_off_c, 0, 71, 100
2, 319104, Note_on_c, 0, 74, 120
2, 319196, Note_off_c, 0, 72, 100
2, 319292, Note_off_c, 0, 74, 100
2, 319296, Note_on_c, 0, 71, 120
2, 319484, Note_off_c, 0, 71, 100
2, 319488, Note_on_c, 0, 67, 120
2, 319868, Note_off_c, 0, 67, 100
2, 320256, Note_on_c, 0, 68, 120
2, 320256, Note_on_c, 0, 56, 120
2, 320636, Note_off_c, 0, 68, 100
2, 320636, Note_off_c, 0, 56, 100
2, 320640, Note_on_c, 0, 68, 120
2, 320640, Note_on_c, 0, 80, 120
2, 321404, Note_off_c, 0, 68, 100
2, 321404, Note_off_c, 0, 80, 100
2, 321408, Note_on_c, 0, 79, 120
2, 321408, Note_on_c, 0, 67, 120
2, 321788, Note_off_c, 0, 79, 100
2, 321788, Note_off_c, 0, 67, 100
2, 321792, Note_on_c, 0, 77, 120
2, 321792, Note_on_c, 0, 65, 120
2, 322172, Note_off_c, 0, 77, 100
2, 322172, Note_off_c, 0, 65, 100
2, 322176, Note_on_c, 0, 77, 120
2, 322176, Note_on_c, 0, 89, 120
2, 322556, Note_off_c, 0, 77, 100
2, 322556, Note_off_c, 0, 89, 100
2, 322560, Note_on_c, 0, 76, 120
2, 322560, Note_on_c, 0, 79, 120
2, 322560, Note_on_c, 0, 84, 120
2, 322560, Note_on_c, 0, 88, 120
2, 322940, Note_off_c, 0, 76, 100
2, 322940, Note_off_c, 0, 79, 100
2, 322940, Note_off_c, 0, 84, 100
2, 322940, Note_off_c, 0, 88, 100
2, 322944, Note_on_c, 0, 72, 120
2, 322944, Note_on_c, 0, 60, 120
2, 323324, Note_off_c, 0, 72, 100
2, 323324, Note_off_c, 0, 60, 100
2, 323328, Note_on_c, 0, 82, 120
2, 323424, Note_on_c, 0, 84, 120
2, 323516, Note_off_c, 0, 82, 100
2, 323520, Note_on_c, 0, 82, 120
2, 323612, Note_off_c, 0, 84, 100
2, 323616, Note_on_c, 0, 84, 120
2, 323708, Note_off_c, 0, 82, 100
2, 323712, Note_on_c, 0, 85, 120
2, 323804, Note_off_c, 0, 84, 100
2, 323900, Note_off_c, 0, 85, 100
2, 323904, Note_on_c, 0, 82, 120
2, 324092, Note_off_c, 0, 82, 100
2, 324096, Note_on_c, 0, 79, 120
2, 324192, Note_on_c, 0, 80, 120
2, 324284, Note_off_c, 0, 79, 100
2, 324288, Note_on_c, 0, 79, 120
2, 324380, Note_off_c, 0, 80, 100
2, 324384, Note_on_c, 0, 80, 120
2, 324476, Note_off_c, 0, 79, 100
2, 324480, Note_on_c, 0, 82, 120
2, 324572, Note_off_c, 0, 80, 100
2, 324668, Note_off_c, 0, 82, 100
2, 324672, Note_on_c, 0, 79, 120
2, 324860, Note_off_c, 0, 79, 100
2, 324864, Note_on_c, 0, 76, 120
2, 324960, Note_on_c, 0, 77, 120
2, 325052, Note_off_c, 0, 76, 100
2, 325056, Note_on_c, 0, 76, 120
2, 325148, Note_off_c, 0, 77, 100
2, 325152, Note_on_c, 0, 77, 120
2, 325244, Note_off_c, 0, 76, 100
2, 325248, Note_on_c, 0, 79, 120
2, 325340, Note_off_c, 0, 77, 100
2, 325436, Note_off_c, 0, 79, 100
2, 325440, Note_on_c, 0, 76, 120
2, 325628, Note_off_c, 0, 76, 100
2, 325632, Note_on_c, 0, 72, 120
2, 326012, Note_off_c, 0, 72, 100
2, 326400, Note_on_c, 0, 73, 119
2, 326400, Note_on_c, 0, 61, 119
2, 326780, Note_off_c, 0, 73, 100
2, 326780, Note_off_c, 0, 61, 100
2, 326784, Note_on_c, 0, 73, 118
2, 326784, Note_on_c, 0, 85, 118
2, 327548, Note_off_c, 0, 73, 100
2, 327548, Note_off_c, 0, 85, 100
2, 327552, Note_on_c, 0, 72, 117
2, 327552, Note_on_c, 0, 84, 117
2, 327932, Note_off_c, 0, 72, 100
2, 327932, Note_off_c, 0, 84, 100
2, 327936, Note_on_c, 0, 70, 116
2, 328316, Note_off_c, 0, 70, 100
2, 328320, Note_on_c, 0, 70, 115
2, 328320, Note_on_c, 0, 82, 115
2, 329084, Note_off_c, 0, 70, 100
2, 329084, Note_off_c, 0, 82, 100
2, 329088, Note_on_c, 0, 68, 114
2, 329088, Note_on_c, 0, 80, 114
2, 329468, Note_off_c, 0, 68, 100
2, 329468, Note_off_c, 0, 80, 100
2, 329472, Note_on_c, 0, 67, 113
2, 329852, Note_off_c, 0, 67, 100
2, 329856, Note_on_c, 0, 67, 112
2, 329856, Note_on_c, 0, 79, 112
2, 330620, Note_off_c, 0, 67, 100
2, 330620, Note_off_c, 0, 79, 100
2, 330624, Note_on_c, 0, 77, 110
2, 330624, Note_on_c, 0, 65, 110
2, 331004, Note_off_c, 0, 77, 100
2, 331004, Note_off_c, 0, 65, 100
2, 331008, Note_on_c, 0, 63, 110
2, 331388, Note_off_c, 0, 63, 100
2, 331392, Note_on_c, 0, 63, 109
2, 331392, Note_on_c, 0, 75, 109
2, 331772, Note_off_c, 0, 63, 100
2, 331772, Note_off_c, 0, 75, 100
2, 331776, Note_on_c, 0, 62, 108
2, 332156, Note_off_c, 0, 62, 100
2, 332160, Note_on_c, 0, 62, 107
2, 332160, Note_on_c, 0, 72, 107
2, 332160, Note_on_c, 0, 74, 107
2, 332540, Note_off_c, 0, 62, 100
2, 332540, Note_off_c, 0, 72, 100
2, 332540, Note_off_c, 0, 74, 100
2, 332544, Note_on_c, 0, 64, 107
2, 332924, Note_off_c, 0, 64, 100
2, 332928, Note_on_c, 0, 64, 106
2, 332928, Note_on_c, 0, 72, 106
2, 332928, Note_on_c, 0, 76, 106
2, 333308, Note_off_c, 0, 64, 100
2, 333308, Note_off_c, 0, 72, 100
2, 333308, Note_off_c, 0, 76, 100
2, 333312, Note_on_c, 0, 65, 105
2, 333692, Note_off_c, 0, 65, 100
2, 333696, Note_on_c, 0, 65, 104
2, 333696, Note_on_c, 0, 72, 104
2, 333696, Note_on_c, 0, 77, 104
2, 334076, Note_off_c, 0, 65, 100
2, 334076, Note_off_c, 0, 72, 100
2, 334076, Note_off_c, 0, 77, 100
2, 334080, Note_on_c, 0, 63, 104
2, 334460, Note_off_c, 0, 63, 100
2, 334464, Note_on_c, 0, 63, 103
2, 334464, Note_on_c, 0, 72, 103
2, 334464, Note_on_c, 0, 75, 103
2, 334844, Note_off_c, 0, 63, 100
2, 334844, Note_off_c, 0, 72, 100
2, 334844, Note_off_c, 0, 75, 100
2, 334848, Note_on_c, 0, 74, 102
2, 334848, Note_on_c, 0, 71, 102
2, 334848, Note_on_c, 0, 62, 102
2, 335228, Note_off_c, 0, 74, 100
2, 335228, Note_off_c, 0, 71, 100
2, 335228, Note_off_c, 0, 62, 100
2, 336000, Note_on_c, 0, 57, 80
2, 336188, Note_off_c, 0, 57, 100
2, 336384, Note_on_c, 0, 60, 80
2, 336384, Note_on_c, 0, 66, 80
2, 337148, Note_off_c, 0, 66, 100
2, 337152, Note_on_c, 0, 66, 80
2, 337244, Note_off_c, 0, 66, 100
2, 337248, Note_on_c, 0, 67, 80
2, 337340, Note_off_c, 0, 67, 100
2, 337344, Note_on_c, 0, 66, 80
2, 337436, Note_off_c, 0, 66, 100
2, 337440, Note_on_c, 0, 67, 80
2, 337532, Note_off_c, 0, 67, 100
2, 337536, Note_on_c, 0, 69, 80
2, 337724, Note_off_c, 0, 69, 100
2, 337728, Note_on_c, 0, 66, 80
2, 337916, Note_off_c, 0, 60, 100
2, 337916, Note_off_c, 0, 66, 100
2, 337920, Note_on_c, 0, 67, 80
2, 337920, Note_on_c, 0, 59, 80
2, 338300, Note_off_c, 0, 67, 100
2, 338300, Note_off_c, 0, 59, 100
2, 338304, Note_on_c, 0, 62, 80
2, 338304, Note_on_c, 0, 71, 80
2, 338684, Note_off_c, 0, 62, 100
2, 338684, Note_off_c, 0, 71, 100
2, 339072, Note_on_c, 0, 57, 80
2, 339260, Note_off_c, 0, 57, 100
2, 339456, Note_on_c, 0, 69, 80
2, 339456, Note_on_c, 0, 66, 80
2, 339456, Note_on_c, 0, 60, 80
2, 340220, Note_off_c, 0, 69, 100
2, 340224, Note_on_c, 0, 69, 80
2, 340316, Note_off_c, 0, 69, 100
2, 340320, Note_on_c, 0, 71, 80
2, 340412, Note_off_c, 0, 71, 100
2, 340416, Note_on_c, 0, 69, 80
2, 340508, Note_off_c, 0, 69, 100
2, 340512, Note_on_c, 0, 71, 80
2, 340604, Note_off_c, 0, 71, 100
2, 340608, Note_on_c, 0, 72, 80
2, 340796, Note_off_c, 0, 72, 100
2, 340800, Note_on_c, 0, 69, 80
2, 340988, Note_off_c, 0, 66, 100
2, 340988, Note_off_c, 0, 60, 100
2, 340988, Note_off_c, 0, 69, 100
2, 340992, Note_on_c, 0, 62, 80
2, 340992, Note_on_c, 0, 67, 80
2, 340992, Note_on_c, 0, 71, 80
2, 341372, Note_off_c, 0, 67, 100
2, 341372, Note_off_c, 0, 71, 100
2, 341376, Note_on_c, 0, 71, 80
2, 341376, Note_on_c, 0, 74, 80
2, 341756, Note_off_c, 0, 62, 100
2, 341756, Note_off_c, 0, 71, 100
2, 341756, Note_off_c, 0, 74, 100
2, 342144, Note_on_c, 0, 57, 80
2, 342332, Note_off_c, 0, 57, 100
2, 342528, Note_on_c, 0, 78, 80
2, 342528, Note_on_c, 0, 72, 80
2, 343292, Note_off_c, 0, 78, 100
2, 343296, Note_on_c, 0, 78, 80
2, 343388, Note_off_c, 0, 78, 100
2, 343392, Note_on_c, 0, 79, 80
2, 343484, Note_off_c, 0, 79, 100
2, 343488, Note_on_c, 0, 78, 80
2, 343580, Note_off_c, 0, 78, 100
2, 343584, Note_on_c, 0, 79, 80
2, 343676, Note_off_c, 0, 79, 100
2, 343680, Note_on_c, 0, 81, 80
2, 343868, Note_off_c, 0, 81, 100
2, 343872, Note_on_c, 0, 78, 80
2, 344060, Note_off_c, 0, 72, 100
2, 344060, Note_off_c, 0, 78, 100
2, 344064, Note_on_c, 0, 77, 120
2, 344160, Note_on_c, 0, 89, 120
2, 344444, Note_off_c, 0, 77, 100
2, 344828, Note_off_c, 0, 89, 100
2, 344832, Note_on_c, 0, 86, 118
2, 344924, Note_off_c, 0, 86, 100
2, 344928, Note_on_c, 0, 88, 118
2, 345020, Note_off_c, 0, 88, 100
2, 345024, Note_on_c, 0, 86, 117
2, 345116, Note_off_c, 0, 86, 100
2, 345120, Note_on_c, 0, 88, 117
2, 345212, Note_off_c, 0, 88, 100
2, 345216, Note_on_c, 0, 89, 117
2, 345404, Note_off_c, 0, 89, 100
2, 345408, Note_on_c, 0, 86, 116
2, 345596, Note_off_c, 0, 86, 100
2, 345600, Note_on_c, 0, 83, 115
2, 345692, Note_off_c, 0, 83, 100
2, 345696, Note_on_c, 0, 84, 115
2, 345788, Note_off_c, 0, 84, 100
2, 345792, Note_on_c, 0, 83, 115
2, 345884, Note_off_c, 0, 83, 100
2, 345888, Note_on_c, 0, 84, 115
2, 345980, Note_off_c, 0, 84, 100
2, 345984, Note_on_c, 0, 86, 114
2, 346172, Note_off_c, 0, 86, 100
2, 346176, Note_on_c, 0, 83, 114
2, 346364, Note_off_c, 0, 83, 100
2, 346368, Note_on_c, 0, 77, 113
2, 346460, Note_off_c, 0, 77, 100
2, 346464, Note_on_c, 0, 79, 113
2, 346556, Note_off_c, 0, 79, 100
2, 346560, Note_on_c, 0, 77, 112
2, 346652, Note_off_c, 0, 77, 100
2, 346656, Note_on_c, 0, 79, 112
2, 346748, Note_off_c, 0, 79, 100
2, 346752, Note_on_c, 0, 81, 112
2, 346940, Note_off_c, 0, 81, 100
2, 346944, Note_on_c, 0, 77, 111
2, 347132, Note_off_c, 0, 77, 100
2, 347136, Note_on_c, 0, 74, 110
2, 347228, Note_off_c, 0, 74, 100
2, 347232, Note_on_c, 0, 76, 110
2, 347324, Note_off_c, 0, 76, 100
2, 347328, Note_on_c, 0, 74, 110
2, 347420, Note_off_c, 0, 74, 100
2, 347424, Note_on_c, 0, 76, 110
2, 347516, Note_off_c, 0, 76, 100
2, 347520, Note_on_c, 0, 77, 109
2, 347708, Note_off_c, 0, 77, 100
2, 347712, Note_on_c, 0, 74, 109
2, 347900, Note_off_c, 0, 74, 100
2, 347904, Note_on_c, 0, 71, 108
2, 347996, Note_off_c, 0, 71, 100
2, 348000, Note_on_c, 0, 72, 108
2, 348092, Note_off_c, 0, 72, 100
2, 348096, Note_on_c, 0, 71, 107
2, 348188, Note_off_c, 0, 71, 100
2, 348192, Note_on_c, 0, 72, 107
2, 348284, Note_off_c, 0, 72, 100
2, 348288, Note_on_c, 0, 74, 107
2, 348476, Note_off_c, 0, 74, 100
2, 348480, Note_on_c, 0, 71, 106
2, 348668, Note_off_c, 0, 71, 100
2, 348672, Note_on_c, 0, 65, 105
2, 348764, Note_off_c, 0, 65, 100
2, 348768, Note_on_c, 0, 67, 105
2, 348860, Note_off_c, 0, 67, 100
2, 348864, Note_on_c, 0, 65, 105
2, 348956, Note_off_c, 0, 65, 100
2, 348960, Note_on_c, 0, 67, 105
2, 349052, Note_off_c, 0, 67, 100
2, 349056, Note_on_c, 0, 69, 104
2, 349244, Note_off_c, 0, 69, 100
2, 349248, Note_on_c, 0, 65, 104
2, 349436, Note_off_c, 0, 65, 100
2, 349440, Note_on_c, 0, 62, 103
2, 349532, Note_off_c, 0, 62, 100
2, 349536, Note_on_c, 0, 64, 103
2, 349628, Note_off_c, 0, 64, 100
2, 349632, Note_on_c, 0, 62, 102
2, 349724, Note_off_c, 0, 62, 100
2, 349728, Note_on_c, 0, 64, 102
2, 349820, Note_off_c, 0, 64, 100
2, 349824, Note_on_c, 0, 65, 102
2, 350012, Note_off_c, 0, 65, 100
2, 350016, Note_on_c, 0, 62, 101
2, 350204, Note_off_c, 0, 62, 100
2, 350208, Note_on_c, 0, 64, 80
2, 350208, Note_on_c, 0, 60, 80
2, 350972, Note_off_c, 0, 64, 100
2, 350972, Note_off_c, 0, 60, 100
2, 350976, Note_on_c, 0, 62, 80
2, 350976, Note_on_c, 0, 59, 80
2, 351068, Note_off_c, 0, 62, 100
2, 351068, Note_off_c, 0, 59, 100
2, 351072, Note_on_c, 0, 64, 80
2, 351072, Note_on_c, 0, 60, 80
2, 351164, Note_off_c, 0, 64, 100
2, 351164, Note_off_c, 0, 60, 100
2, 351168, Note_on_c, 0, 62, 80
2, 351168, Note_on_c, 0, 59, 80
2, 351260, Note_off_c, 0, 62, 100
2, 351260, Note_off_c, 0, 59, 100
2, 351264, Note_on_c, 0, 64, 80
2, 351264, Note_on_c, 0, 60, 80
2, 351356, Note_off_c, 0, 64, 100
2, 351356, Note_off_c, 0, 60, 100
2, 351360, Note_on_c, 0, 65, 80
2, 351360, Note_on_c, 0, 62, 80
2, 351548, Note_off_c, 0, 65, 100
2, 351548, Note_off_c, 0, 62, 100
2, 351552, Note_on_c, 0, 64, 80
2, 351552, Note_on_c, 0, 60, 80
2, 351740, Note_off_c, 0, 64, 100
2, 351740, Note_off_c, 0, 60, 100
2, 351744, Note_on_c, 0, 62, 80
2, 351744, Note_on_c, 0, 59, 80
2, 352124, Note_off_c, 0, 62, 100
2, 352124, Note_off_c, 0, 59, 100
2, 352128, Note_on_c, 0, 59, 80
2, 352128, Note_on_c, 0, 67, 80
2, 352508, Note_off_c, 0, 59, 100
2, 352508, Note_off_c, 0, 67, 100
2, 353280, Note_on_c, 0, 65, 80
2, 353280, Note_on_c, 0, 62, 80
2, 354044, Note_off_c, 0, 65, 100
2, 354044, Note_off_c, 0, 62, 100
2, 354048, Note_on_c, 0, 61, 80
2, 354048, Note_on_c, 0, 64, 80
2, 354140, Note_off_c, 0, 61, 100
2, 354140, Note_off_c, 0, 64, 100
2, 354144, Note_on_c, 0, 62, 80
2, 354144, Note_on_c, 0, 65, 80
2, 354236, Note_off_c, 0, 62, 100
2, 354236, Note_off_c, 0, 65, 100
2, 354240, Note_on_c, 0, 61, 80
2, 354240, Note_on_c, 0, 64, 80
2, 354332, Note_off_c, 0, 61, 100
2, 354332, Note_off_c, 0, 64, 100
2, 354336, Note_on_c, 0, 62, 80
2, 354336, Note_on_c, 0, 65, 80
2, 354428, Note_off_c, 0, 62, 100
2, 354428, Note_off_c, 0, 65, 100
2, 354432, Note_on_c, 0, 67, 80
2, 354432, Note_on_c, 0, 64, 80
2, 354620, Note_off_c, 0, 67, 100
2, 354620, Note_off_c, 0, 64, 100
2, 354624, Note_on_c, 0, 65, 80
2, 354624, Note_on_c, 0, 62, 80
2, 354812, Note_off_c, 0, 65, 100
2, 354812, Note_off_c, 0, 62, 100
2, 354816, Note_on_c, 0, 64, 80
2, 354816, Note_on_c, 0, 60, 80
2, 355196, Note_off_c, 0, 64, 100
2, 355196, Note_off_c, 0, 60, 100
2, 355200, Note_on_c, 0, 64, 80
2, 355200, Note_on_c, 0, 72, 80
2, 355580, Note_off_c, 0, 64, 100
2, 355580, Note_off_c, 0, 72, 100
2, 356352, Note_on_c, 0, 72, 80
2, 356352, Note_on_c, 0, 64, 80
2, 357116, Note_off_c, 0, 72, 100
2, 357116, Note_off_c, 0, 64, 100
2, 357120, Note_on_c, 0, 65, 80
2, 357120, Note_on_c, 0, 71, 80
2, 357212, Note_off_c, 0, 71, 100
2, 357216, Note_on_c, 0, 72, 80
2, 357308, Note_off_c, 0, 72, 100
2, 357312, Note_on_c, 0, 71, 80
2, 357404, Note_off_c, 0, 71, 100
2, 357408, Note_on_c, 0, 72, 80
2, 357500, Note_off_c, 0, 72, 100
2, 357504, Note_on_c, 0, 74, 80
2, 357504, Note_on_c, 0, 62, 80
2, 357692, Note_off_c, 0, 74, 100
2, 357696, Note_on_c, 0, 71, 80
2, 357884, Note_off_c, 0, 65, 100
2, 357884, Note_off_c, 0, 62, 100
2, 357884, Note_off_c, 0, 71, 100
2, 357888, Note_on_c, 0, 67, 80
2, 358268, Note_off_c, 0, 67, 100
2, 358272, Note_on_c, 0, 72, 80
2, 358272, Note_on_c, 0, 64, 80
2, 358652, Note_off_c, 0, 72, 100
2, 358652, Note_off_c, 0, 64, 100
2, 358656, Note_on_c, 0, 65, 80
2, 358656, Note_on_c, 0, 71, 80
2, 358748, Note_off_c, 0, 71, 100
2, 358752, Note_on_c, 0, 72, 80
2, 358844, Note_off_c, 0, 72, 100
2, 358848, Note_on_c, 0, 71, 80
2, 358940, Note_off_c, 0, 71, 100
2, 358944, Note_on_c, 0, 72, 80
2, 359036, Note_off_c, 0, 72, 100
2, 359040, Note_on_c, 0, 74, 80
2, 359040, Note_on_c, 0, 62, 80
2, 359228, Note_off_c, 0, 74, 100
2, 359232, Note_on_c, 0, 71, 80
2, 359420, Note_off_c, 0, 65, 100
2, 359420, Note_off_c, 0, 62, 100
2, 359420, Note_off_c, 0, 71, 100
2, 359424, Note_on_c, 0, 67, 80
2, 359804, Note_off_c, 0, 67, 100
2, 359808, Note_on_c, 0, 72, 80
2, 360188, Note_off_c, 0, 72, 100
2, 360192, Note_on_c, 0, 62, 80
2, 360192, Note_on_c, 0, 60, 80
2, 360572, Note_off_c, 0, 62, 100
2, 360576, Note_on_c, 0, 69, 80
2, 360956, Note_off_c, 0, 60, 100
2, 360956, Note_off_c, 0, 69, 100
2, 360960, Note_on_c, 0, 62, 80
2, 360960, Note_on_c, 0, 59, 80
2, 361340, Note_off_c, 0, 62, 100
2, 361344, Note_on_c, 0, 67, 80
2, 361724, Note_off_c, 0, 59, 100
2, 361724, Note_off_c, 0, 67, 100
2, 361728, Note_on_c, 0, 64, 80
2, 361728, Note_on_c, 0, 60, 80
2, 362108, Note_off_c, 0, 64, 100
2, 362108, Note_off_c, 0, 60, 100
2, 362688, Note_on_c, 0, 76, 80
2, 362688, Note_on_c, 0, 64, 80
2, 363068, Note_off_c, 0, 76, 100
2, 363068, Note_off_c, 0, 64, 100
2, 363072, Note_on_c, 0, 76, 80
2, 363072, Note_on_c, 0, 64, 80
2, 363452, Note_off_c, 0, 76, 100
2, 363452, Note_off_c, 0, 64, 100
2, 363456, Note_on_c, 0, 77, 80
2, 363456, Note_on_c, 0, 65, 80
2, 363836, Note_off_c, 0, 77, 100
2, 363836, Note_off_c, 0, 65, 100
2, 363840, Note_on_c, 0, 66, 80
2, 363840, Note_on_c, 0, 78, 80
2, 364220, Note_off_c, 0, 66, 100
2, 364220, Note_off_c, 0, 78, 100
2, 364224, Note_on_c, 0, 79, 80
2, 364224, Note_on_c, 0, 67, 80
2, 364604, Note_off_c, 0, 79, 100
2, 364604, Note_off_c, 0, 67, 100
2, 364608, Note_on_c, 0, 77, 80
2, 364608, Note_on_c, 0, 65, 80
2, 364796, Note_off_c, 0, 77, 100
2, 364796, Note_off_c, 0, 65, 100
2, 364800, Note_on_c, 0, 77, 80
2, 364800, Note_on_c, 0, 65, 80
2, 364988, Note_off_c, 0, 77, 100
2, 364988, Note_off_c, 0, 65, 100
2, 364992, Note_on_c, 0, 76, 80
2, 364992, Note_on_c, 0, 64, 80
2, 365180, Note_off_c, 0, 76, 100
2, 365180, Note_off_c, 0, 64, 100
2, 365184, Note_on_c, 0, 74, 80
2, 365184, Note_on_c, 0, 62, 80
2, 365372, Note_off_c, 0, 74, 100
2, 365372, Note_off_c, 0, 62, 100
2, 365376, Note_on_c, 0, 72, 80
2, 365376, Note_on_c, 0, 60, 80
2, 365564, Note_off_c, 0, 72, 100
2, 365564, Note_off_c, 0, 60, 100
2, 365760, Note_on_c, 0, 69, 80
2, 365760, Note_on_c, 0, 81, 80
2, 366140, Note_off_c, 0, 69, 100
2, 366140, Note_off_c, 0, 81, 100
2, 366144, Note_on_c, 0, 69, 80
2, 366144, Note_on_c, 0, 81, 80
2, 366524, Note_off_c, 0, 69, 100
2, 366524, Note_off_c, 0, 81, 100
2, 366528, Note_on_c, 0, 70, 80
2, 366528, Note_on_c, 0, 82, 80
2, 366908, Note_off_c, 0, 70, 100
2, 366908, Note_off_c, 0, 82, 100
2, 366912, Note_on_c, 0, 71, 80
2, 366912, Note_on_c, 0, 83, 80
2, 367292, Note_off_c, 0, 71, 100
2, 367292, Note_off_c, 0, 83, 100
2, 367296, Note_on_c, 0, 72, 80
2, 367296, Note_on_c, 0, 84, 80
2, 367676, Note_off_c, 0, 72, 100
2, 367676, Note_off_c, 0, 84, 100
2, 367680, Note_on_c, 0, 70, 80
2, 367680, Note_on_c, 0, 82, 80
2, 367868, Note_off_c, 0, 70, 100
2, 367868, Note_off_c, 0, 82, 100
2, 367872, Note_on_c, 0, 70, 80
2, 367872, Note_on_c, 0, 82, 80
2, 368060, Note_off_c, 0, 70, 100
2, 368060, Note_off_c, 0, 82, 100
2, 368064, Note_on_c, 0, 69, 80
2, 368064, Note_on_c, 0, 81, 80
2, 368252, Note_off_c, 0, 69, 100
2, 368252, Note_off_c, 0, 81, 100
2, 368256, Note_on_c, 0, 67, 80
2, 368256, Note_on_c, 0, 79, 80
2, 368444, Note_off_c, 0, 67, 100
2, 368444, Note_off_c, 0, 79, 100
2, 368448, Note_on_c, 0, 65, 80
2, 368448, Note_on_c, 0, 77, 80
2, 368636, Note_off_c, 0, 65, 100
2, 368636, Note_off_c, 0, 77, 100
2, 368640, Note_on_c, 0, 69, 110
2, 368640, Note_on_c, 0, 81, 110
2, 369020, Note_off_c, 0, 69, 100
2, 369020, Note_off_c, 0, 81, 100
2, 369024, Note_on_c, 0, 74, 110
2, 369024, Note_on_c, 0, 86, 110
2, 369404, Note_off_c, 0, 74, 100
2, 369404, Note_off_c, 0, 86, 100
2, 369408, Note_on_c, 0, 62, 110
2, 369408, Note_on_c, 0, 74, 110
2, 369788, Note_off_c, 0, 62, 100
2, 369788, Note_off_c, 0, 74, 100
2, 369792, Note_on_c, 0, 71, 110
2, 369792, Note_on_c, 0, 83, 110
2, 370172, Note_off_c, 0, 71, 100
2, 370172, Note_off_c, 0, 83, 100
2, 370176, Note_on_c, 0, 61, 110
2, 370176, Note_on_c, 0, 73, 110
2, 370556, Note_off_c, 0, 61, 100
2, 370556, Note_off_c, 0, 73, 100
2, 370560, Note_on_c, 0, 69, 110
2, 370560, Note_on_c, 0, 81, 110
2, 370940, Note_off_c, 0, 69, 100
2, 370940, Note_off_c, 0, 81, 100
2, 370944, Note_on_c, 0, 60, 110
2, 370944, Note_on_c, 0, 72, 110
2, 371324, Note_off_c, 0, 60, 100
2, 371324, Note_off_c, 0, 72, 100
2, 371328, Note_on_c, 0, 69, 110
2, 371328, Note_on_c, 0, 81, 110
2, 371708, Note_off_c, 0, 69, 100
2, 371708, Note_off_c, 0, 81, 100
2, 371712, Note_on_c, 0, 59, 110
2, 371712, Note_on_c, 0, 71, 110
2, 372092, Note_off_c, 0, 59, 100
2, 372092, Note_off_c, 0, 71, 100
2, 372096, Note_on_c, 0, 67, 110
2, 372096, Note_on_c, 0, 79, 110
2, 372476, Note_off_c, 0, 67, 100
2, 372476, Note_off_c, 0, 79, 100
2, 372480, Note_on_c, 0, 58, 110
2, 372480, Note_on_c, 0, 70, 110
2, 372860, Note_off_c, 0, 58, 100
2, 372860, Note_off_c, 0, 70, 100
2, 372864, Note_on_c, 0, 67, 110
2, 372864, Note_on_c, 0, 79, 110
2, 373244, Note_off_c, 0, 67, 100
2, 373244, Note_off_c, 0, 79, 100
2, 373248, Note_on_c, 0, 57, 110
2, 373248, Note_on_c, 0, 69, 110
2, 373628, Note_off_c, 0, 57, 100
2, 373628, Note_off_c, 0, 69, 100
2, 373632, Note_on_c, 0, 65, 110
2, 373632, Note_on_c, 0, 77, 110
2, 374204, Note_off_c, 0, 65, 100
2, 374204, Note_off_c, 0, 77, 100
2, 374208, Note_on_c, 0, 64, 110
2, 374208, Note_on_c, 0, 76, 110
2, 374396, Note_off_c, 0, 64, 100
2, 374396, Note_off_c, 0, 76, 100
2, 374400, Note_on_c, 0, 74, 110
2, 374400, Note_on_c, 0, 62, 110
2, 374588, Note_off_c, 0, 74, 100
2, 374588, Note_off_c, 0, 62, 100
2, 374592, Note_on_c, 0, 72, 110
2, 374592, Note_on_c, 0, 60, 110
2, 374780, Note_off_c, 0, 72, 100
2, 374780, Note_off_c, 0, 60, 100
2, 374784, Note_on_c, 0, 71, 110
2, 374784, Note_on_c, 0, 59, 110
2, 375164, Note_off_c, 0, 71, 100
2, 375164, Note_off_c, 0, 59, 100
2, 375936, Note_on_c, 0, 83, 110
2, 375984, Note_on_c, 0, 84, 110
2, 376028, Note_off_c, 0, 83, 100
2, 376032, Note_on_c, 0, 83, 110
2, 376076, Note_off_c, 0, 84, 100
2, 376080, Note_on_c, 0, 84, 110
2, 376124, Note_off_c, 0, 83, 100
2, 376128, Note_on_c, 0, 83, 110
2, 376172, Note_off_c, 0, 84, 100
2, 376176, Note_on_c, 0, 84, 110
2, 376220, Note_off_c, 0, 83, 100
2, 376224, Note_on_c, 0, 81, 110
2, 376268, Note_off_c, 0, 84, 100
2, 376272, Note_on_c, 0, 83, 110
2, 376316, Note_off_c, 0, 81, 100
2, 376316, Note_off_c, 0, 83, 100
2, 376320, Note_on_c, 0, 84, 110
2, 376892, Note_off_c, 0, 84, 100
2, 376896, Note_on_c, 0, 84, 100
2, 376944, Note_on_c, 0, 83, 100
2, 376988, Note_off_c, 0, 84, 100
2, 376992, Note_on_c, 0, 81, 100
2, 377036, Note_off_c, 0, 83, 100
2, 377040, Note_on_c, 0, 79, 100
2, 377084, Note_off_c, 0, 81, 100
2, 377084, Note_off_c, 0, 79, 100
2, 377088, Note_on_c, 0, 77, 100
2, 377276, Note_off_c, 0, 77, 100
2, 377280, Note_on_c, 0, 77, 100
2, 377280, Note_on_c, 0, 74, 100
2, 377468, Note_off_c, 0, 77, 100
2, 377468, Note_off_c, 0, 74, 100
2, 377472, Note_on_c, 0, 76, 100
2, 377472, Note_on_c, 0, 72, 100
2, 377660, Note_off_c, 0, 76, 100
2, 377660, Note_off_c, 0, 72, 100
2, 377664, Note_on_c, 0, 76, 100
2, 377664, Note_on_c, 0, 72, 100
2, 377852, Note_off_c, 0, 76, 100
2, 377852, Note_off_c, 0, 72, 100
2, 377856, Note_on_c, 0, 74, 110
2, 377856, Note_on_c, 0, 71, 110
2, 378236, Note_off_c, 0, 74, 100
2, 378236, Note_off_c, 0, 71, 100
2, 379008, Note_on_c, 0, 86, 110
2, 379008, Note_on_c, 0, 83, 110
2, 379056, Note_on_c, 0, 88, 110
2, 379100, Note_off_c, 0, 86, 100
2, 379104, Note_on_c, 0, 86, 110
2, 379148, Note_off_c, 0, 88, 100
2, 379152, Note_on_c, 0, 88, 110
2, 379196, Note_off_c, 0, 86, 100
2, 379200, Note_on_c, 0, 86, 110
2, 379244, Note_off_c, 0, 88, 100
2, 379248, Note_on_c, 0, 88, 110
2, 379292, Note_off_c, 0, 83, 100
2, 379292, Note_off_c, 0, 86, 100
2, 379296, Note_on_c, 0, 84, 110
2, 379340, Note_off_c, 0, 88, 100
2, 379344, Note_on_c, 0, 86, 110
2, 379388, Note_off_c, 0, 84, 100
2, 379388, Note_off_c, 0, 86, 100
2, 379392, Note_on_c, 0, 88, 110
2, 379392, Note_on_c, 0, 84, 110
2, 379964, Note_off_c, 0, 88, 100
2, 379964, Note_off_c, 0, 84, 100
2, 379968, Note_on_c, 0, 88, 110
2, 380000, Note_on_c, 0, 86, 110
2, 380028, Note_off_c, 0, 88, 100
2, 380032, Note_on_c, 0, 84, 110
2, 380060, Note_off_c, 0, 86, 100
2, 380064, Note_on_c, 0, 83, 110
2, 380092, Note_off_c, 0, 84, 100
2, 380096, Note_on_c, 0, 81, 110
2, 380124, Note_off_c, 0, 83, 100
2, 380128, Note_on_c, 0, 79, 110
2, 380156, Note_off_c, 0, 81, 100
2, 380160, Note_on_c, 0, 77, 110
2, 380188, Note_off_c, 0, 79, 100
2, 380348, Note_off_c, 0, 77, 100
2, 380352, Note_on_c, 0, 77, 110
2, 380352, Note_on_c, 0, 74, 110
2, 380540, Note_off_c, 0, 77, 100
2, 380540, Note_off_c, 0, 74, 100
2, 380544, Note_on_c, 0, 76, 110
2, 380544, Note_on_c, 0, 72, 110
2, 380732, Note_off_c, 0, 76, 100
2, 380732, Note_off_c, 0, 72, 100
2, 380736, Note_on_c, 0, 76, 110
2, 380736, Note_on_c, 0, 72, 110
2, 380924, Note_off_c, 0, 76, 100
2, 380924, Note_off_c, 0, 72, 100
2, 380928, Note_on_c, 0, 74, 120
2, 380928, Note_on_c, 0, 71, 120
2, 381020, Note_off_c, 0, 74, 100
2, 381020, Note_off_c, 0, 71, 100
2, 381024, Note_on_c, 0, 79, 120
2, 381116, Note_off_c, 0, 79, 100
2, 381120, Note_on_c, 0, 78, 120
2, 381212, Note_off_c, 0, 78, 100
2, 381216, Note_on_c, 0, 76, 120
2, 381308, Note_off_c, 0, 76, 100
2, 381312, Note_on_c, 0, 74, 120
2, 381404, Note_off_c, 0, 74, 100
2, 381408, Note_on_c, 0, 72, 120
2, 381500, Note_off_c, 0, 72, 100
2, 381504, Note_on_c, 0, 71, 120
2, 381596, Note_off_c, 0, 71, 100
2, 381600, Note_on_c, 0, 69, 120
2, 381692, Note_off_c, 0, 69, 100
2, 381696, Note_on_c, 0, 67, 120
2, 381788, Note_off_c, 0, 67, 100
2, 381792, Note_on_c, 0, 67, 120
2, 381884, Note_off_c, 0, 67, 100
2, 381888, Note_on_c, 0, 66, 120
2, 381980, Note_off_c, 0, 66, 100
2, 381984, Note_on_c, 0, 64, 120
2, 382076, Note_off_c, 0, 64, 100
2, 382080, Note_on_c, 0, 62, 120
2, 382172, Note_off_c, 0, 62, 100
2, 382176, Note_on_c, 0, 60, 120
2, 382268, Note_off_c, 0, 60, 100
2, 382272, Note_on_c, 0, 59, 120
2, 382364, Note_off_c, 0, 59, 100
2, 382368, Note_on_c, 0, 57, 120
2, 382460, Note_off_c, 0, 57, 100
2, 382464, Note_on_c, 0, 55, 120
2, 382844, Note_off_c, 0, 55, 100
2, 384000, Note_on_c, 0, 79, 80
2, 384188, Note_off_c, 0, 79, 100
2, 384192, Note_on_c, 0, 81, 80
2, 384240, Note_on_c, 0, 79, 80
2, 384284, Note_off_c, 0, 81, 100
2, 384288, Note_on_c, 0, 78, 80
2, 384332, Note_off_c, 0, 79, 100
2, 384336, Note_on_c, 0, 79, 80
2, 384380, Note_off_c, 0, 78, 100
2, 384384, Note_on_c, 0, 81, 80
2, 384428, Note_off_c, 0, 79, 100
2, 384572, Note_off_c, 0, 81, 100
2, 384576, Note_on_c, 0, 83, 80
2, 384764, Note_off_c, 0, 83, 100
2, 384768, Note_on_c, 0, 84, 80
2, 384956, Note_off_c, 0, 84, 100
2, 384960, Note_on_c, 0, 86, 80
2, 385148, Note_off_c, 0, 86, 100
2, 385152, Note_on_c, 0, 87, 80
2, 385340, Note_off_c, 0, 87, 100
2, 385344, Note_on_c, 0, 79, 80
2, 385532, Note_off_c, 0, 79, 100
2, 385536, Note_on_c, 0, 81, 80
2, 385584, Note_on_c, 0, 79, 80
2, 385628, Note_off_c, 0, 81, 100
2, 385724, Note_off_c, 0, 79, 100
2, 385728, Note_on_c, 0, 78, 80
2, 385916, Note_off_c, 0, 78, 100
2, 385920, Note_on_c, 0, 78, 80
2, 386108, Note_off_c, 0, 78, 100
2, 386112, Note_on_c, 0, 78, 80
2, 386300, Note_off_c, 0, 78, 100
2, 386304, Note_on_c, 0, 78, 80
2, 387068, Note_off_c, 0, 78, 100
2, 387072, Note_on_c, 0, 77, 80
2, 387260, Note_off_c, 0, 77, 100
2, 387264, Note_on_c, 0, 83, 80
2, 387452, Note_off_c, 0, 83, 100
2, 387456, Note_on_c, 0, 86, 80
2, 387644, Note_off_c, 0, 86, 100
2, 387648, Note_on_c, 0, 83, 80
2, 387836, Note_off_c, 0, 83, 100
2, 387840, Note_on_c, 0, 89, 80
2, 388028, Note_off_c, 0, 89, 100
2, 388032, Note_on_c, 0, 86, 80
2, 388220, Note_off_c, 0, 86, 100
2, 388224, Note_on_c, 0, 83, 80
2, 388412, Note_off_c, 0, 83, 100
2, 388416, Note_on_c, 0, 77, 80
2, 388604, Note_off_c, 0, 77, 100
2, 388608, Note_on_c, 0, 76, 80
2, 388796, Note_off_c, 0, 76, 100
2, 388800, Note_on_c, 0, 85, 80
2, 388988, Note_off_c, 0, 85, 100
2, 388992, Note_on_c, 0, 84, 80
2, 389180, Note_off_c, 0, 84, 100
2, 389184, Note_on_c, 0, 82, 80
2, 389372, Note_off_c, 0, 82, 100
2, 389376, Note_on_c, 0, 80, 80
2, 389564, Note_off_c, 0, 80, 100
2, 389568, Note_on_c, 0, 79, 80
2, 389756, Note_off_c, 0, 79, 100
2, 389760, Note_on_c, 0, 77, 80
2, 389948, Note_off_c, 0, 77, 100
2, 389952, Note_on_c, 0, 76, 80
2, 390140, Note_off_c, 0, 76, 100
2, 390144, Note_on_c, 0, 79, 80
2, 390524, Note_off_c, 0, 79, 100
2, 390528, Note_on_c, 0, 77, 100
2, 391292, Note_off_c, 0, 77, 100
2, 391296, Note_on_c, 0, 75, 100
2, 392060, Note_off_c, 0, 75, 100
2, 392064, Note_on_c, 0, 74, 100
2, 392828, Note_off_c, 0, 74, 100
2, 392832, Note_on_c, 0, 84, 80
2, 393212, Note_off_c, 0, 84, 100
2, 393216, Note_on_c, 0, 82, 80
2, 393404, Note_off_c, 0, 82, 100
2, 393408, Note_on_c, 0, 74, 80
2, 393596, Note_off_c, 0, 74, 100
2, 393600, Note_on_c, 0, 76, 80
2, 393788, Note_off_c, 0, 76, 100
2, 393792, Note_on_c, 0, 78, 80
2, 393980, Note_off_c, 0, 78, 100
2, 393984, Note_on_c, 0, 79, 80
2, 394172, Note_off_c, 0, 79, 100
2, 394176, Note_on_c, 0, 81, 80
2, 394364, Note_off_c, 0, 81, 100
2, 394368, Note_on_c, 0, 82, 80
2, 394556, Note_off_c, 0, 82, 100
2, 394560, Note_on_c, 0, 74, 80
2, 394748, Note_off_c, 0, 74, 100
2, 394752, Note_on_c, 0, 76, 80
2, 394800, Note_on_c, 0, 74, 80
2, 394844, Note_off_c, 0, 76, 100
2, 394940, Note_off_c, 0, 74, 100
2, 394944, Note_on_c, 0, 73, 80
2, 395132, Note_off_c, 0, 73, 100
2, 395136, Note_on_c, 0, 73, 80
2, 395324, Note_off_c, 0, 73, 100
2, 395328, Note_on_c, 0, 73, 80
2, 395516, Note_off_c, 0, 73, 100
2, 395520, Note_on_c, 0, 73, 80
2, 396284, Note_off_c, 0, 73, 100
2, 396288, Note_on_c, 0, 72, 80
2, 396476, Note_off_c, 0, 72, 100
2, 396480, Note_on_c, 0, 78, 80
2, 396668, Note_off_c, 0, 78, 100
2, 396672, Note_on_c, 0, 81, 80
2, 396860, Note_off_c, 0, 81, 100
2, 396864, Note_on_c, 0, 78, 80
2, 397052, Note_off_c, 0, 78, 100
2, 397056, Note_on_c, 0, 84, 80
2, 397244, Note_off_c, 0, 84, 100
2, 397248, Note_on_c, 0, 81, 80
2, 397436, Note_off_c, 0, 81, 100
2, 397440, Note_on_c, 0, 78, 80
2, 397628, Note_off_c, 0, 78, 100
2, 397632, Note_on_c, 0, 72, 80
2, 397820, Note_off_c, 0, 72, 100
2, 397824, Note_on_c, 0, 71, 80
2, 398012, Note_off_c, 0, 71, 100
2, 398016, Note_on_c, 0, 80, 80
2, 398204, Note_off_c, 0, 80, 100
2, 398208, Note_on_c, 0, 79, 80
2, 398396, Note_off_c, 0, 79, 100
2, 398400, Note_on_c, 0, 77, 80
2, 398588, Note_off_c, 0, 77, 100
2, 398592, Note_on_c, 0, 75, 80
2, 398780, Note_off_c, 0, 75, 100
2, 398784, Note_on_c, 0, 74, 80
2, 398972, Note_off_c, 0, 74, 100
2, 398976, Note_on_c, 0, 72, 80
2, 399164, Note_off_c, 0, 72, 100
2, 399168, Note_on_c, 0, 71, 80
2, 399356, Note_off_c, 0, 71, 100
2, 399360, Note_on_c, 0, 74, 80
2, 399740, Note_off_c, 0, 74, 100
2, 399744, Note_on_c, 0, 72, 100
2, 400508, Note_off_c, 0, 72, 100
2, 400512, Note_on_c, 0, 70, 100
2, 401276, Note_off_c, 0, 70, 100
2, 401280, Note_on_c, 0, 69, 100
2, 402044, Note_off_c, 0, 69, 100
2, 402048, Note_on_c, 0, 79, 80
2, 402428, Note_off_c, 0, 79, 100
2, 402432, Note_on_c, 0, 77, 110
2, 402812, Note_off_c, 0, 77, 100
2, 402816, Note_on_c, 0, 86, 110
2, 402908, Note_off_c, 0, 86, 100
2, 402912, Note_on_c, 0, 84, 110
2, 403004, Note_off_c, 0, 84, 100
2, 403008, Note_on_c, 0, 82, 110
2, 403100, Note_off_c, 0, 82, 100
2, 403104, Note_on_c, 0, 81, 110
2, 403196, Note_off_c, 0, 81, 100
2, 403200, Note_on_c, 0, 79, 110
2, 403292, Note_off_c, 0, 79, 100
2, 403296, Note_on_c, 0, 77, 110
2, 403388, Note_off_c, 0, 77, 100
2, 403392, Note_on_c, 0, 76, 110
2, 403484, Note_off_c, 0, 76, 100
2, 403488, Note_on_c, 0, 74, 110
2, 403580, Note_off_c, 0, 74, 100
2, 403584, Note_on_c, 0, 73, 110
2, 403676, Note_off_c, 0, 73, 100
2, 403680, Note_on_c, 0, 74, 110
2, 403772, Note_off_c, 0, 74, 100
2, 403776, Note_on_c, 0, 76, 110
2, 403868, Note_off_c, 0, 76, 100
2, 403872, Note_on_c, 0, 73, 110
2, 403964, Note_off_c, 0, 73, 100
2, 403968, Note_on_c, 0, 74, 110
2, 404348, Note_off_c, 0, 74, 100
2, 404736, Note_on_c, 0, 83, 110
2, 404736, Note_on_c, 0, 79, 110
2, 404736, Note_on_c, 0, 77, 110
2, 404736, Note_on_c, 0, 74, 110
2, 404736, Note_on_c, 0, 71, 110
2, 405116, Note_off_c, 0, 83, 100
2, 405116, Note_off_c, 0, 79, 100
2, 405116, Note_off_c, 0, 77, 100
2, 405116, Note_off_c, 0, 74, 100
2, 405116, Note_off_c, 0, 71, 100
2, 405504, Note_on_c, 0, 84, 110
2, 405504, Note_on_c, 0, 79, 110
2, 405504, Note_on_c, 0, 75, 110
2, 405504, Note_on_c, 0, 72, 110
2, 405884, Note_off_c, 0, 84, 100
2, 405884, Note_off_c, 0, 79, 100
2, 405884, Note_off_c, 0, 75, 100
2, 405884, Note_off_c, 0, 72, 100
2, 405888, Note_on_c, 0, 84, 110
2, 405980, Note_off_c, 0, 84, 100
2, 405984, Note_on_c, 0, 82, 110
2, 406076, Note_off_c, 0, 82, 100
2, 406080, Note_on_c, 0, 80, 110
2, 406172, Note_off_c, 0, 80, 100
2, 406176, Note_on_c, 0, 79, 110
2, 406268, Note_off_c, 0, 79, 100
2, 406272, Note_on_c, 0, 77, 110
2, 406364, Note_off_c, 0, 77, 100
2, 406368, Note_on_c, 0, 75, 110
2, 406460, Note_off_c, 0, 75, 100
2, 406464, Note_on_c, 0, 74, 110
2, 406556, Note_off_c, 0, 74, 100
2, 406560, Note_on_c, 0, 72, 110
2, 406652, Note_off_c, 0, 72, 100
2, 406656, Note_on_c, 0, 71, 110
2, 406748, Note_off_c, 0, 71, 100
2, 406752, Note_on_c, 0, 72, 110
2, 406844, Note_off_c, 0, 72, 100
2, 406848, Note_on_c, 0, 74, 110
2, 406940, Note_off_c, 0, 74, 100
2, 406944, Note_on_c, 0, 71, 110
2, 407036, Note_off_c, 0, 71, 100
2, 407040, Note_on_c, 0, 72, 110
2, 407420, Note_off_c, 0, 72, 100
2, 407808, Note_on_c, 0, 78, 110
2, 407808, Note_on_c, 0, 72, 110
2, 407808, Note_on_c, 0, 66, 110
2, 408188, Note_off_c, 0, 78, 100
2, 408188, Note_off_c, 0, 72, 100
2, 408188, Note_off_c, 0, 66, 100
2, 408576, Note_on_c, 0, 79, 110
2, 408576, Note_on_c, 0, 74, 110
2, 408576, Note_on_c, 0, 71, 110
2, 408576, Note_on_c, 0, 67, 110
2, 408956, Note_off_c, 0, 79, 100
2, 408956, Note_off_c, 0, 74, 100
2, 408956, Note_off_c, 0, 71, 100
2, 408956, Note_off_c, 0, 67, 100
2, 408960, Note_on_c, 0, 79, 110
2, 409052, Note_off_c, 0, 79, 100
2, 409056, Note_on_c, 0, 78, 110
2, 409148, Note_off_c, 0, 78, 100
2, 409152, Note_on_c, 0, 76, 110
2, 409244, Note_off_c, 0, 76, 100
2, 409248, Note_on_c, 0, 74, 110
2, 409340, Note_off_c, 0, 74, 100
2, 409344, Note_on_c, 0, 72, 110
2, 409436, Note_off_c, 0, 72, 100
2, 409440, Note_on_c, 0, 71, 110
2, 409532, Note_off_c, 0, 71, 100
2, 409536, Note_on_c, 0, 69, 110
2, 409628, Note_off_c, 0, 69, 100
2, 409632, Note_on_c, 0, 67, 110
2, 409724, Note_off_c, 0, 67, 100
2, 409728, Note_on_c, 0, 66, 110
2, 409820, Note_off_c, 0, 66, 100
2, 409824, Note_on_c, 0, 67, 110
2, 409916, Note_off_c, 0, 67, 100
2, 409920, Note_on_c, 0, 69, 110
2, 410012, Note_off_c, 0, 69, 100
2, 410016, Note_on_c, 0, 66, 110
2, 410108, Note_off_c, 0, 66, 100
2, 410112, Note_on_c, 0, 67, 110
2, 410492, Note_off_c, 0, 67, 100
2, 410496, Note_on_c, 0, 79, 110
2, 410588, Note_off_c, 0, 79, 100
2, 410592, Note_on_c, 0, 78, 110
2, 410684, Note_off_c, 0, 78, 100
2, 410688, Note_on_c, 0, 76, 110
2, 410780, Note_off_c, 0, 76, 100
2, 410784, Note_on_c, 0, 74, 110
2, 410876, Note_off_c, 0, 74, 100
2, 410880, Note_on_c, 0, 72, 110
2, 410972, Note_off_c, 0, 72, 100
2, 410976, Note_on_c, 0, 71, 110
2, 411068, Note_off_c, 0, 71, 100
2, 411072, Note_on_c, 0, 69, 110
2, 411164, Note_off_c, 0, 69, 100
2, 411168, Note_on_c, 0, 67, 110
2, 411260, Note_off_c, 0, 67, 100
2, 411264, Note_on_c, 0, 66, 110
2, 411356, Note_off_c, 0, 66, 100
2, 411360, Note_on_c, 0, 67, 110
2, 411452, Note_off_c, 0, 67, 100
2, 411456, Note_on_c, 0, 69, 110
2, 411548, Note_off_c, 0, 69, 100
2, 411552, Note_on_c, 0, 66, 110
2, 411644, Note_off_c, 0, 66, 100
2, 411648, Note_on_c, 0, 67, 80
2, 411836, Note_off_c, 0, 67, 100
2, 411840, Note_on_c, 0, 69, 80
2, 411904, Note_on_c, 0, 67, 80
2, 411964, Note_off_c, 0, 69, 100
2, 411968, Note_on_c, 0, 66, 80
2, 412028, Note_off_c, 0, 67, 100
2, 412032, Note_on_c, 0, 67, 80
2, 412092, Note_off_c, 0, 66, 100
2, 412220, Note_off_c, 0, 67, 100
2, 412224, Note_on_c, 0, 69, 80
2, 412412, Note_off_c, 0, 69, 100
2, 412416, Note_on_c, 0, 71, 80
2, 412604, Note_off_c, 0, 71, 100
2, 412608, Note_on_c, 0, 72, 80
2, 412672, Note_on_c, 0, 71, 80
2, 412732, Note_off_c, 0, 72, 100
2, 412736, Note_on_c, 0, 70, 80
2, 412796, Note_off_c, 0, 71, 100
2, 412800, Note_on_c, 0, 71, 80
2, 412860, Note_off_c, 0, 70, 100
2, 412988, Note_off_c, 0, 71, 100
2, 412992, Note_on_c, 0, 72, 80
2, 413180, Note_off_c, 0, 72, 100
2, 413184, Note_on_c, 0, 74, 80
2, 413372, Note_off_c, 0, 74, 100
2, 413376, Note_on_c, 0, 76, 80
2, 413440, Note_on_c, 0, 74, 80
2, 413500, Note_off_c, 0, 76, 100
2, 413504, Note_on_c, 0, 73, 80
2, 413564, Note_off_c, 0, 74, 100
2, 413568, Note_on_c, 0, 74, 80
2, 413628, Note_off_c, 0, 73, 100
2, 413756, Note_off_c, 0, 74, 100
2, 413760, Note_on_c, 0, 76, 80
2, 413948, Note_off_c, 0, 76, 100
2, 413952, Note_on_c, 0, 79, 80
2, 414140, Note_off_c, 0, 79, 100
2, 414144, Note_on_c, 0, 77, 80
2, 414332, Note_off_c, 0, 77, 100
2, 414336, Note_on_c, 0, 76, 80
2, 414524, Note_off_c, 0, 76, 100
2, 414528, Note_on_c, 0, 74, 80
2, 414716, Note_off_c, 0, 74, 100
2, 414720, Note_on_c, 0, 72, 80
2, 414908, Note_off_c, 0, 72, 100
2, 414912, Note_on_c, 0, 67, 80
2, 415100, Note_off_c, 0, 67, 100
2, 415104, Note_on_c, 0, 66, 80
2, 415292, Note_off_c, 0, 66, 100
2, 415296, Note_on_c, 0, 67, 80
2, 415484, Note_off_c, 0, 67, 100
2, 415488, Note_on_c, 0, 72, 80
2, 415676, Note_off_c, 0, 72, 100
2, 415680, Note_on_c, 0, 67, 80
2, 415868, Note_off_c, 0, 67, 100
2, 415872, Note_on_c, 0, 76, 80
2, 416060, Note_off_c, 0, 76, 100
2, 416064, Note_on_c, 0, 67, 80
2, 416252, Note_off_c, 0, 67, 100
2, 416256, Note_on_c, 0, 79, 80
2, 417020, Note_off_c, 0, 79, 100
2, 417024, Note_on_c, 0, 76, 80
2, 417404, Note_off_c, 0, 76, 100
2, 417408, Note_on_c, 0, 72, 80
2, 417788, Note_off_c, 0, 72, 100
2, 417792, Note_on_c, 0, 71, 80
2, 417980, Note_off_c, 0, 71, 100
2, 417984, Note_on_c, 0, 67, 80
2, 418172, Note_off_c, 0, 67, 100
2, 418176, Note_on_c, 0, 66, 80
2, 418364, Note_off_c, 0, 66, 100
2, 418368, Note_on_c, 0, 67, 80
2, 418556, Note_off_c, 0, 67, 100
2, 418560, Note_on_c, 0, 71, 80
2, 418748, Note_off_c, 0, 71, 100
2, 418752, Note_on_c, 0, 67, 80
2, 418940, Note_off_c, 0, 67, 100
2, 418944, Note_on_c, 0, 74, 80
2, 419132, Note_off_c, 0, 74, 100
2, 419136, Note_on_c, 0, 67, 80
2, 419324, Note_off_c, 0, 67, 100
2, 419328, Note_on_c, 0, 77, 80
2, 420092, Note_off_c, 0, 77, 100
2, 420096, Note_on_c, 0, 74, 80
2, 420476, Note_off_c, 0, 74, 100
2, 420480, Note_on_c, 0, 71, 80
2, 420860, Note_off_c, 0, 71, 100
2, 420864, Note_on_c, 0, 72, 80
2, 421052, Note_off_c, 0, 72, 100
2, 421056, Note_on_c, 0, 67, 82
2, 421244, Note_off_c, 0, 67, 100
2, 421248, Note_on_c, 0, 66, 85
2, 421436, Note_off_c, 0, 66, 100
2, 421440, Note_on_c, 0, 67, 88
2, 421628, Note_off_c, 0, 67, 100
2, 421632, Note_on_c, 0, 72, 90
2, 421820, Note_off_c, 0, 72, 100
2, 421824, Note_on_c, 0, 67, 93
2, 422012, Note_off_c, 0, 67, 100
2, 422016, Note_on_c, 0, 76, 96
2, 422204, Note_off_c, 0, 76, 100
2, 422208, Note_on_c, 0, 72, 99
2, 422396, Note_off_c, 0, 72, 100
2, 422400, Note_on_c, 0, 79, 101
2, 422588, Note_off_c, 0, 79, 100
2, 422592, Note_on_c, 0, 76, 104
2, 422780, Note_off_c, 0, 76, 100
2, 422784, Note_on_c, 0, 84, 107
2, 422972, Note_off_c, 0, 84, 100
2, 422976, Note_on_c, 0, 79, 109
2, 423164, Note_off_c, 0, 79, 100
2, 423168, Note_on_c, 0, 88, 110
2, 423356, Note_off_c, 0, 88, 100
2, 423360, Note_on_c, 0, 86, 109
2, 423548, Note_off_c, 0, 86, 100
2, 423552, Note_on_c, 0, 84, 107
2, 423740, Note_off_c, 0, 84, 100
2, 423744, Note_on_c, 0, 83, 106
2, 423932, Note_off_c, 0, 83, 100
2, 423936, Note_on_c, 0, 81, 104
2, 424124, Note_off_c, 0, 81, 100
2, 424128, Note_on_c, 0, 79, 103
2, 424316, Note_off_c, 0, 79, 100
2, 424320, Note_on_c, 0, 78, 101
2, 424508, Note_off_c, 0, 78, 100
2, 424512, Note_on_c, 0, 76, 99
2, 424700, Note_off_c, 0, 76, 100
2, 424704, Note_on_c, 0, 74, 98
2, 424892, Note_off_c, 0, 74, 100
2, 424896, Note_on_c, 0, 72, 96
2, 425084, Note_off_c, 0, 72, 100
2, 425088, Note_on_c, 0, 71, 95
2, 425276, Note_off_c, 0, 71, 100
2, 425280, Note_on_c, 0, 69, 93
2, 425468, Note_off_c, 0, 69, 100
2, 425472, Note_on_c, 0, 67, 92
2, 425660, Note_off_c, 0, 67, 100
2, 425664, Note_on_c, 0, 66, 90
2, 425852, Note_off_c, 0, 66, 100
2, 425856, Note_on_c, 0, 67, 88
2, 426044, Note_off_c, 0, 67, 100
2, 426048, Note_on_c, 0, 69, 87
2, 426236, Note_off_c, 0, 69, 100
2, 426240, Note_on_c, 0, 67, 85
2, 426428, Note_off_c, 0, 67, 100
2, 426432, Note_on_c, 0, 65, 84
2, 426620, Note_off_c, 0, 65, 100
2, 426624, Note_on_c, 0, 64, 82
2, 426812, Note_off_c, 0, 64, 100
2, 426816, Note_on_c, 0, 62, 81
2, 427004, Note_off_c, 0, 62, 100
2, 427008, Note_on_c, 0, 60, 80
2, 427388, Note_off_c, 0, 60, 100
2, 428736, Note_on_c, 0, 79, 80
2, 428784, Note_on_c, 0, 81, 80
2, 428828, Note_off_c, 0, 79, 100
2, 428832, Note_on_c, 0, 79, 80
2, 428876, Note_off_c, 0, 81, 100
2, 428924, Note_off_c, 0, 79, 100
2, 428928, Note_on_c, 0, 78, 80
2, 429116, Note_off_c, 0, 78, 100
2, 429120, Note_on_c, 0, 79, 80
2, 429308, Note_off_c, 0, 79, 100
2, 429312, Note_on_c, 0, 84, 80
2, 429500, Note_off_c, 0, 84, 100
2, 429504, Note_on_c, 0, 79, 80
2, 429692, Note_off_c, 0, 79, 100
2, 429696, Note_on_c, 0, 88, 80
2, 429884, Note_off_c, 0, 88, 100
2, 429888, Note_on_c, 0, 79, 80
2, 430076, Note_off_c, 0, 79, 100
2, 430080, Note_on_c, 0, 89, 80
2, 430844, Note_off_c, 0, 89, 100
2, 430848, Note_on_c, 0, 86, 80
2, 431228, Note_off_c, 0, 86, 100
2, 431232, Note_on_c, 0, 83, 80
2, 431612, Note_off_c, 0, 83, 100
2, 431808, Note_on_c, 0, 79, 80
2, 431856, Note_on_c, 0, 81, 80
2, 431900, Note_off_c, 0, 79, 100
2, 431904, Note_on_c, 0, 79, 80
2, 431948, Note_off_c, 0, 81, 100
2, 431996, Note_off_c, 0, 79, 100
2, 432000, Note_on_c, 0, 78, 80
2, 432188, Note_off_c, 0, 78, 100
2, 432192, Note_on_c, 0, 79, 80
2, 432380, Note_off_c, 0, 79, 100
2, 432384, Note_on_c, 0, 83, 80
2, 432572, Note_off_c, 0, 83, 100
2, 432576, Note_on_c, 0, 79, 80
2, 432764, Note_off_c, 0, 79, 100
2, 432768, Note_on_c, 0, 86, 80
2, 432956, Note_off_c, 0, 86, 100
2, 432960, Note_on_c, 0, 79, 80
2, 433148, Note_off_c, 0, 79, 100
2, 433152, Note_on_c, 0, 88, 80
2, 433340, Note_off_c, 0, 88, 100
2, 433344, Note_on_c, 0, 72, 84
2, 433392, Note_on_c, 0, 74, 85
2, 433436, Note_off_c, 0, 72, 100
2, 433440, Note_on_c, 0, 72, 86
2, 433484, Note_off_c, 0, 74, 100
2, 433532, Note_off_c, 0, 72, 100
2, 433536, Note_on_c, 0, 71, 88
2, 433724, Note_off_c, 0, 71, 100
2, 433728, Note_on_c, 0, 72, 92
2, 433916, Note_off_c, 0, 72, 100
2, 433920, Note_on_c, 0, 76, 97
2, 434108, Note_off_c, 0, 76, 100
2, 434112, Note_on_c, 0, 72, 101
2, 434300, Note_off_c, 0, 72, 100
2, 434304, Note_on_c, 0, 79, 105
2, 434492, Note_off_c, 0, 79, 100
2, 434496, Note_on_c, 0, 72, 109
2, 434684, Note_off_c, 0, 72, 100
2, 434688, Note_on_c, 0, 82, 110
2, 434876, Note_off_c, 0, 82, 100
2, 434880, Note_on_c, 0, 79, 110
2, 435068, Note_off_c, 0, 79, 100
2, 435072, Note_on_c, 0, 76, 110
2, 435260, Note_off_c, 0, 76, 100
2, 435264, Note_on_c, 0, 72, 110
2, 435452, Note_off_c, 0, 72, 100
2, 435456, Note_on_c, 0, 70, 110
2, 435644, Note_off_c, 0, 70, 100
2, 435648, Note_on_c, 0, 67, 110
2, 435836, Note_off_c, 0, 67, 100
2, 435840, Note_on_c, 0, 64, 110
2, 436028, Note_off_c, 0, 64, 100
2, 436032, Note_on_c, 0, 58, 110
2, 436220, Note_off_c, 0, 58, 100
2, 436224, Note_on_c, 0, 57, 110
2, 436316, Note_off_c, 0, 57, 100
2, 436320, Note_on_c, 0, 60, 110
2, 436412, Note_off_c, 0, 60, 100
2, 436416, Note_on_c, 0, 65, 110
2, 436508, Note_off_c, 0, 65, 100
2, 436512, Note_on_c, 0, 69, 110
2, 436604, Note_off_c, 0, 69, 100
2, 436608, Note_on_c, 0, 60, 110
2, 436700, Note_off_c, 0, 60, 100
2, 436704, Note_on_c, 0, 72, 110
2, 436796, Note_off_c, 0, 72, 100
2, 436800, Note_on_c, 0, 60, 110
2, 436892, Note_off_c, 0, 60, 100
2, 436896, Note_on_c, 0, 72, 110
2, 436988, Note_off_c, 0, 72, 100
2, 436992, Note_on_c, 0, 60, 110
2, 437084, Note_off_c, 0, 60, 100
2, 437088, Note_on_c, 0, 65, 110
2, 437180, Note_off_c, 0, 65, 100
2, 437184, Note_on_c, 0, 69, 110
2, 437276, Note_off_c, 0, 69, 100
2, 437280, Note_on_c, 0, 72, 110
2, 437372, Note_off_c, 0, 72, 100
2, 437376, Note_on_c, 0, 65, 110
2, 437468, Note_off_c, 0, 65, 100
2, 437472, Note_on_c, 0, 77, 110
2, 437564, Note_off_c, 0, 77, 100
2, 437568, Note_on_c, 0, 65, 110
2, 437660, Note_off_c, 0, 65, 100
2, 437664, Note_on_c, 0, 77, 110
2, 437756, Note_off_c, 0, 77, 100
2, 437760, Note_on_c, 0, 65, 110
2, 437852, Note_off_c, 0, 65, 100
2, 437856, Note_on_c, 0, 69, 110
2, 437948, Note_off_c, 0, 69, 100
2, 437952, Note_on_c, 0, 72, 110
2, 438044, Note_off_c, 0, 72, 100
2, 438048, Note_on_c, 0, 77, 110
2, 438140, Note_off_c, 0, 77, 100
2, 438144, Note_on_c, 0, 69, 110
2, 438236, Note_off_c, 0, 69, 100
2, 438240, Note_on_c, 0, 81, 110
2, 438332, Note_off_c, 0, 81, 100
2, 438336, Note_on_c, 0, 69, 110
2, 438428, Note_off_c, 0, 69, 100
2, 438432, Note_on_c, 0, 81, 110
2, 438524, Note_off_c, 0, 81, 100
2, 438528, Note_on_c, 0, 69, 110
2, 438620, Note_off_c, 0, 69, 100
2, 438624, Note_on_c, 0, 81, 110
2, 438716, Note_off_c, 0, 81, 100
2, 438720, Note_on_c, 0, 77, 110
2, 438812, Note_off_c, 0, 77, 100
2, 438816, Note_on_c, 0, 72, 110
2, 438908, Note_off_c, 0, 72, 100
2, 438912, Note_on_c, 0, 69, 110
2, 439004, Note_off_c, 0, 69, 100
2, 439008, Note_on_c, 0, 65, 110
2, 439100, Note_off_c, 0, 65, 100
2, 439104, Note_on_c, 0, 60, 110
2, 439196, Note_off_c, 0, 60, 100
2, 439200, Note_on_c, 0, 57, 110
2, 439292, Note_off_c, 0, 57, 100
2, 439296, Note_on_c, 0, 59, 110
2, 439388, Note_off_c, 0, 59, 100
2, 439392, Note_on_c, 0, 62, 110
2, 439484, Note_off_c, 0, 62, 100
2, 439488, Note_on_c, 0, 67, 110
2, 439580, Note_off_c, 0, 67, 100
2, 439584, Note_on_c, 0, 71, 110
2, 439676, Note_off_c, 0, 71, 100
2, 439680, Note_on_c, 0, 62, 110
2, 439772, Note_off_c, 0, 62, 100
2, 439776, Note_on_c, 0, 74, 110
2, 439868, Note_off_c, 0, 74, 100
2, 439872, Note_on_c, 0, 62, 110
2, 439964, Note_off_c, 0, 62, 100
2, 439968, Note_on_c, 0, 74, 110
2, 440060, Note_off_c, 0, 74, 100
2, 440064, Note_on_c, 0, 62, 110
2, 440156, Note_off_c, 0, 62, 100
2, 440160, Note_on_c, 0, 67, 110
2, 440252, Note_off_c, 0, 67, 100
2, 440256, Note_on_c, 0, 71, 110
2, 440348, Note_off_c, 0, 71, 100
2, 440352, Note_on_c, 0, 74, 110
2, 440444, Note_off_c, 0, 74, 100
2, 440448, Note_on_c, 0, 67, 110
2, 440540, Note_off_c, 0, 67, 100
2, 440544, Note_on_c, 0, 79, 110
2, 440636, Note_off_c, 0, 79, 100
2, 440640, Note_on_c, 0, 67, 110
2, 440732, Note_off_c, 0, 67, 100
2, 440736, Note_on_c, 0, 79, 110
2, 440828, Note_off_c, 0, 79, 100
2, 440832, Note_on_c, 0, 67, 110
2, 440924, Note_off_c, 0, 67, 100
2, 440928, Note_on_c, 0, 71, 110
2, 441020, Note_off_c, 0, 71, 100
2, 441024, Note_on_c, 0, 74, 110
2, 441116, Note_off_c, 0, 74, 100
2, 441120, Note_on_c, 0, 79, 110
2, 441212, Note_off_c, 0, 79, 100
2, 441216, Note_on_c, 0, 71, 110
2, 441308, Note_off_c, 0, 71, 100
2, 441312, Note_on_c, 0, 83, 110
2, 441404, Note_off_c, 0, 83, 100
2, 441408, Note_on_c, 0, 71, 110
2, 441500, Note_off_c, 0, 71, 100
2, 441504, Note_on_c, 0, 83, 110
2, 441596, Note_off_c, 0, 83, 100
2, 441600, Note_on_c, 0, 71, 110
2, 441692, Note_off_c, 0, 71, 100
2, 441696, Note_on_c, 0, 83, 110
2, 441788, Note_off_c, 0, 83, 100
2, 441792, Note_on_c, 0, 79, 110
2, 441884, Note_off_c, 0, 79, 100
2, 441888, Note_on_c, 0, 74, 110
2, 441980, Note_off_c, 0, 74, 100
2, 441984, Note_on_c, 0, 71, 110
2, 442076, Note_off_c, 0, 71, 100
2, 442080, Note_on_c, 0, 67, 110
2, 442172, Note_off_c, 0, 67, 100
2, 442176, Note_on_c, 0, 62, 110
2, 442268, Note_off_c, 0, 62, 100
2, 442272, Note_on_c, 0, 59, 110
2, 442364, Note_off_c, 0, 59, 100
2, 442368, Note_on_c, 0, 60, 110
2, 442460, Note_off_c, 0, 60, 100
2, 442464, Note_on_c, 0, 64, 110
2, 442556, Note_off_c, 0, 64, 100
2, 442560, Note_on_c, 0, 67, 110
2, 442652, Note_off_c, 0, 67, 100
2, 442656, Note_on_c, 0, 72, 110
2, 442748, Note_off_c, 0, 72, 100
2, 442752, Note_on_c, 0, 64, 110
2, 442844, Note_off_c, 0, 64, 100
2, 442848, Note_on_c, 0, 76, 110
2, 442940, Note_off_c, 0, 76, 100
2, 442944, Note_on_c, 0, 64, 110
2, 443036, Note_off_c, 0, 64, 100
2, 443040, Note_on_c, 0, 76, 110
2, 443132, Note_off_c, 0, 76, 100
2, 443136, Note_on_c, 0, 64, 110
2, 443228, Note_off_c, 0, 64, 100
2, 443232, Note_on_c, 0, 67, 110
2, 443324, Note_off_c, 0, 67, 100
2, 443328, Note_on_c, 0, 72, 110
2, 443420, Note_off_c, 0, 72, 100
2, 443424, Note_on_c, 0, 76, 110
2, 443516, Note_off_c, 0, 76, 100
2, 443520, Note_on_c, 0, 67, 110
2, 443612, Note_off_c, 0, 67, 100
2, 443616, Note_on_c, 0, 79, 110
2, 443708, Note_off_c, 0, 79, 100
2, 443712, Note_on_c, 0, 67, 110
2, 443804, Note_off_c, 0, 67, 100
2, 443808, Note_on_c, 0, 79, 110
2, 443900, Note_off_c, 0, 79, 100
2, 443904, Note_on_c, 0, 67, 110
2, 443996, Note_off_c, 0, 67, 100
2, 444000, Note_on_c, 0, 72, 110
2, 444092, Note_off_c, 0, 72, 100
2, 444096, Note_on_c, 0, 76, 110
2, 444188, Note_off_c, 0, 76, 100
2, 444192, Note_on_c, 0, 79, 110
2, 444284, Note_off_c, 0, 79, 100
2, 444288, Note_on_c, 0, 72, 110
2, 444380, Note_off_c, 0, 72, 100
2, 444384, Note_on_c, 0, 84, 110
2, 444476, Note_off_c, 0, 84, 100
2, 444480, Note_on_c, 0, 72, 110
2, 444572, Note_off_c, 0, 72, 100
2, 444576, Note_on_c, 0, 84, 110
2, 444668, Note_off_c, 0, 84, 100
2, 444672, Note_on_c, 0, 72, 110
2, 444764, Note_off_c, 0, 72, 100
2, 444768, Note_on_c, 0, 76, 110
2, 444860, Note_off_c, 0, 76, 100
2, 444864, Note_on_c, 0, 79, 110
2, 444956, Note_off_c, 0, 79, 100
2, 444960, Note_on_c, 0, 84, 110
2, 445052, Note_off_c, 0, 84, 100
2, 445056, Note_on_c, 0, 76, 110
2, 445148, Note_off_c, 0, 76, 100
2, 445152, Note_on_c, 0, 88, 110
2, 445244, Note_off_c, 0, 88, 100
2, 445248, Note_on_c, 0, 76, 110
2, 445340, Note_off_c, 0, 76, 100
2, 445344, Note_on_c, 0, 88, 110
2, 445436, Note_off_c, 0, 88, 100
2, 445440, Note_on_c, 0, 76, 110
2, 445532, Note_off_c, 0, 76, 100
2, 445536, Note_on_c, 0, 88, 110
2, 445628, Note_off_c, 0, 88, 100
2, 445632, Note_on_c, 0, 75, 110
2, 445724, Note_off_c, 0, 75, 100
2, 445728, Note_on_c, 0, 87, 110
2, 445820, Note_off_c, 0, 87, 100
2, 445824, Note_on_c, 0, 77, 110
2, 445916, Note_off_c, 0, 77, 100
2, 445920, Note_on_c, 0, 89, 110
2, 446012, Note_off_c, 0, 89, 100
2, 446016, Note_on_c, 0, 76, 110
2, 446108, Note_off_c, 0, 76, 100
2, 446112, Note_on_c, 0, 88, 110
2, 446204, Note_off_c, 0, 88, 100
2, 446208, Note_on_c, 0, 76, 110
2, 446300, Note_off_c, 0, 76, 100
2, 446304, Note_on_c, 0, 88, 110
2, 446396, Note_off_c, 0, 88, 100
2, 446400, Note_on_c, 0, 75, 110
2, 446492, Note_off_c, 0, 75, 100
2, 446496, Note_on_c, 0, 87, 110
2, 446588, Note_off_c, 0, 87, 100
2, 446592, Note_on_c, 0, 77, 110
2, 446684, Note_off_c, 0, 77, 100
2, 446688, Note_on_c, 0, 89, 110
2, 446780, Note_off_c, 0, 89, 100
2, 446784, Note_on_c, 0, 76, 110
2, 446876, Note_off_c, 0, 76, 100
2, 446880, Note_on_c, 0, 88, 110
2, 446972, Note_off_c, 0, 88, 100
2, 446976, Note_on_c, 0, 76, 110
2, 447068, Note_off_c, 0, 76, 100
2, 447072, Note_on_c, 0, 88, 110
2, 447164, Note_off_c, 0, 88, 100
2, 447168, Note_on_c, 0, 75, 110
2, 447260, Note_off_c, 0, 75, 100
2, 447264, Note_on_c, 0, 87, 110
2, 447356, Note_off_c, 0, 87, 100
2, 447360, Note_on_c, 0, 77, 110
2, 447452, Note_off_c, 0, 77, 100
2, 447456, Note_on_c, 0, 89, 110
2, 447548, Note_off_c, 0, 89, 100
2, 447552, Note_on_c, 0, 76, 110
2, 447644, Note_off_c, 0, 76, 100
2, 447648, Note_on_c, 0, 88, 110
2, 447740, Note_off_c, 0, 88, 100
2, 447744, Note_on_c, 0, 76, 110
2, 447836, Note_off_c, 0, 76, 100
2, 447840, Note_on_c, 0, 88, 110
2, 447932, Note_off_c, 0, 88, 100
2, 447936, Note_on_c, 0, 75, 110
2, 448028, Note_off_c, 0, 75, 100
2, 448032, Note_on_c, 0, 87, 110
2, 448124, Note_off_c, 0, 87, 100
2, 448128, Note_on_c, 0, 77, 110
2, 448220, Note_off_c, 0, 77, 100
2, 448224, Note_on_c, 0, 89, 110
2, 448316, Note_off_c, 0, 89, 100
2, 448320, Note_on_c, 0, 76, 110
2, 448412, Note_off_c, 0, 76, 100
2, 448416, Note_on_c, 0, 88, 110
2, 448508, Note_off_c, 0, 88, 100
2, 448512, Note_on_c, 0, 76, 110
2, 448512, Note_on_c, 0, 88, 110
2, 448892, Note_off_c, 0, 76, 100
2, 448892, Note_off_c, 0, 88, 100
2, 448896, Note_on_c, 0, 74, 110
2, 448896, Note_on_c, 0, 79, 110
2, 449276, Note_off_c, 0, 74, 100
2, 449276, Note_off_c, 0, 79, 100
2, 449280, Note_on_c, 0, 72, 110
2, 449280, Note_on_c, 0, 84, 110
2, 449660, Note_off_c, 0, 72, 100
2, 449660, Note_off_c, 0, 84, 100
2, 449664, Note_on_c, 0, 71, 110
2, 449664, Note_on_c, 0, 76, 110
2, 450044, Note_off_c, 0, 71, 100
2, 450044, Note_off_c, 0, 76, 100
2, 450048, Note_on_c, 0, 69, 110
2, 450048, Note_on_c, 0, 81, 110
2, 450428, Note_off_c, 0, 69, 100
2, 450428, Note_off_c, 0, 81, 100
2, 450432, Note_on_c, 0, 67, 110
2, 450432, Note_on_c, 0, 72, 110
2, 450812, Note_off_c, 0, 67, 100
2, 450812, Note_off_c, 0, 72, 100
2, 450816, Note_on_c, 0, 65, 110
2, 450816, Note_on_c, 0, 77, 110
2, 451196, Note_off_c, 0, 65, 100
2, 451196, Note_off_c, 0, 77, 100
2, 451200, Note_on_c, 0, 64, 110
2, 451200, Note_on_c, 0, 69, 110
2, 451580, Note_off_c, 0, 64, 100
2, 451580, Note_off_c, 0, 69, 100
2, 451584, Note_on_c, 0, 62, 110
2, 451584, Note_on_c, 0, 74, 110
2, 451964, Note_off_c, 0, 62, 100
2, 451964, Note_off_c, 0, 74, 100
2, 451968, Note_on_c, 0, 60, 110
2, 451968, Note_on_c, 0, 66, 110
2, 452348, Note_off_c, 0, 60, 100
2, 452348, Note_off_c, 0, 66, 100
2, 452352, Note_on_c, 0, 59, 110
2, 452352, Note_on_c, 0, 71, 110
2, 452732, Note_off_c, 0, 59, 100
2, 452732, Note_off_c, 0, 71, 100
2, 452736, Note_on_c, 0, 57, 110
2, 452736, Note_on_c, 0, 62, 110
2, 453116, Note_off_c, 0, 57, 100
2, 453116, Note_off_c, 0, 62, 100
2, 453120, Note_on_c, 0, 55, 110
2, 453120, Note_on_c, 0, 67, 110
2, 453500, Note_off_c, 0, 55, 100
2, 453500, Note_off_c, 0, 67, 100
2, 453504, Note_on_c, 0, 55, 110
2, 453504, Note_on_c, 0, 59, 110
2, 453504, Note_on_c, 0, 53, 110
2, 453884, Note_off_c, 0, 55, 100
2, 453884, Note_off_c, 0, 59, 100
2, 453884, Note_off_c, 0, 53, 100
2, 453888, Note_on_c, 0, 55, 110
2, 453888, Note_on_c, 0, 60, 110
2, 453888, Note_on_c, 0, 52, 110
2, 454268, Note_off_c, 0, 55, 100
2, 454268, Note_off_c, 0, 60, 100
2, 454268, Note_off_c, 0, 52, 100
2, 454272, Note_on_c, 0, 55, 110
2, 454272, Note_on_c, 0, 62, 110
2, 454272, Note_on_c, 0, 50, 110
2, 454652, Note_off_c, 0, 55, 100
2, 454652, Note_off_c, 0, 62, 100
2, 454652, Note_off_c, 0, 50, 100
2, 454656, Note_on_c, 0, 64, 120
2, 454656, Note_on_c, 0, 60, 120
2, 454656, Note_on_c, 0, 55, 120
2, 454656, Note_on_c, 0, 52, 120
2, 455036, Note_off_c, 0, 64, 100
2, 455036, Note_off_c, 0, 60, 100
2, 455036, Note_off_c, 0, 55, 100
2, 455036, Note_off_c, 0, 52, 100
2, 455424, Note_on_c, 0, 60, 120
2, 455548, Note_off_c, 0, 60, 100
2, 455552, Note_on_c, 0, 64, 120
2, 455676, Note_off_c, 0, 64, 100
2, 455680, Note_on_c, 0, 67, 120
2, 455804, Note_off_c, 0, 67, 100
2, 455808, Note_on_c, 0, 72, 120
2, 455900, Note_off_c, 0, 72, 100
2, 455904, Note_on_c, 0, 76, 120
2, 455996, Note_off_c, 0, 76, 100
2, 456000, Note_on_c, 0, 79, 120
2, 456092, Note_off_c, 0, 79, 100
2, 456096, Note_on_c, 0, 84, 120
2, 456188, Note_off_c, 0, 84, 100
2, 456192, Note_on_c, 0, 72, 120
2, 456572, Note_off_c, 0, 72, 100
2, 456960, Note_on_c, 0, 60, 120
2, 457084, Note_off_c, 0, 60, 100
2, 457088, Note_on_c, 0, 64, 120
2, 457212, Note_off_c, 0, 64, 100
2, 457216, Note_on_c, 0, 68, 120
2, 457340, Note_off_c, 0, 68, 100
2, 457344, Note_on_c, 0, 72, 120
2, 457436, Note_off_c, 0, 72, 100
2, 457440, Note_on_c, 0, 76, 120
2, 457532, Note_off_c, 0, 76, 100
2, 457536, Note_on_c, 0, 80, 120
2, 457628, Note_off_c, 0, 80, 100
2, 457632, Note_on_c, 0, 84, 120
2, 457724, Note_off_c, 0, 84, 100
2, 457728, Note_on_c, 0, 72, 120
2, 458108, Note_off_c, 0, 72, 100
2, 458496, Note_on_c, 0, 60, 120
2, 458620, Note_off_c, 0, 60, 100
2, 458624, Note_on_c, 0, 64, 120
2, 458748, Note_off_c, 0, 64, 100
2, 458752, Note_on_c, 0, 69, 120
2, 458876, Note_off_c, 0, 69, 100
2, 458880, Note_on_c, 0, 72, 120
2, 458972, Note_off_c, 0, 72, 100
2, 458976, Note_on_c, 0, 76, 120
2, 459068, Note_off_c, 0, 76, 100
2, 459072, Note_on_c, 0, 81, 120
2, 459164, Note_off_c, 0, 81, 100
2, 459168, Note_on_c, 0, 84, 120
2, 459260, Note_off_c, 0, 84, 100
2, 459264, Note_on_c, 0, 77, 120
2, 459264, Note_on_c, 0, 65, 120
2, 459644, Note_off_c, 0, 77, 100
2, 459644, Note_off_c, 0, 65, 100
2, 460032, Note_on_c, 0, 79, 120
2, 460032, Note_on_c, 0, 67, 120
2, 460412, Note_off_c, 0, 79, 100
2, 460412, Note_off_c, 0, 67, 100
2, 460800, Note_on_c, 0, 72, 120
2, 460800, Note_on_c, 0, 60, 120
2, 461180, Note_off_c, 0, 72, 100
2, 461180, Note_off_c, 0, 60, 100
2, 461568, Note_on_c, 0, 65, 80
2, 461948, Note_off_c, 0, 65, 100
2, 461952, Note_on_c, 0, 65, 80
2, 462332, Note_off_c, 0, 65, 100
2, 462336, Note_on_c, 0, 67, 80
2, 462384, Note_on_c, 0, 65, 80
2, 462428, Note_off_c, 0, 67, 100
2, 462432, Note_on_c, 0, 67, 80
2, 462476, Note_off_c, 0, 65, 100
2, 462480, Note_on_c, 0, 65, 80
2, 462524, Note_off_c, 0, 67, 100
2, 462528, Note_on_c, 0, 64, 80
2, 462572, Note_off_c, 0, 65, 100
2, 462620, Note_off_c, 0, 64, 100
2, 462624, Note_on_c, 0, 65, 80
2, 462716, Note_off_c, 0, 65, 100
2, 462720, Note_on_c, 0, 62, 80
2, 463100, Note_off_c, 0, 62, 100
2, 463104, Note_on_c, 0, 71, 70
2, 463104, Note_on_c, 0, 65, 70
2, 463868, Note_off_c, 0, 71, 100
2, 463868, Note_off_c, 0, 65, 100
2, 463872, Note_on_c, 0, 72, 70
2, 463872, Note_on_c, 0, 64, 70
2, 464252, Note_off_c, 0, 72, 100
2, 464252, Note_off_c, 0, 64, 100
2, 464640, Note_on_c, 0, 65, 80
2, 465020, Note_off_c, 0, 65, 100
2, 465024, Note_on_c, 0, 65, 80
2, 465404, Note_off_c, 0, 65, 100
2, 465408, Note_on_c, 0, 67, 80
2, 465456, Note_on_c, 0, 65, 80
2, 465500, Note_off_c, 0, 67, 100
2, 465504, Note_on_c, 0, 67, 80
2, 465548, Note_off_c, 0, 65, 100
2, 465552, Note_on_c, 0, 65, 80
2, 465596, Note_off_c, 0, 67, 100
2, 465600, Note_on_c, 0, 64, 80
2, 465644, Note_off_c, 0, 65, 100
2, 465692, Note_off_c, 0, 64, 100
2, 465696, Note_on_c, 0, 65, 80
2, 465788, Note_off_c, 0, 65, 100
2, 465792, Note_on_c, 0, 62, 80
2, 466172, Note_off_c, 0, 62, 100
2, 466176, Note_on_c, 0, 74, 70
2, 466176, Note_on_c, 0, 71, 70
2, 466176, Note_on_c, 0, 67, 70
2, 466940, Note_off_c, 0, 74, 100
2, 466940, Note_off_c, 0, 71, 100
2, 466944, Note_on_c, 0, 76, 70
2, 466944, Note_on_c, 0, 72, 70
2, 467324, Note_off_c, 0, 67, 100
2, 467324, Note_off_c, 0, 76, 100
2, 467324, Note_off_c, 0, 72, 100
2, 467712, Note_on_c, 0, 65, 100
2, 468092, Note_off_c, 0, 65, 100
2, 468096, Note_on_c, 0, 65, 100
2, 468476, Note_off_c, 0, 65, 100
2, 468480, Note_on_c, 0, 67, 100
2, 468528, Note_on_c, 0, 65, 100
2, 468572, Note_off_c, 0, 67, 100
2, 468576, Note_on_c, 0, 67, 100
2, 468620, Note_off_c, 0, 65, 100
2, 468624, Note_on_c, 0, 65, 100
2, 468668, Note_off_c, 0, 67, 100
2, 468672, Note_on_c, 0, 64, 100
2, 468716, Note_off_c, 0, 65, 100
2, 468764, Note_off_c, 0, 64, 100
2, 468768, Note_on_c, 0, 65, 100
2, 468860, Note_off_c, 0, 65, 100
2, 468864, Note_on_c, 0, 62, 100
2, 469244, Note_off_c, 0, 62, 100
2, 469248, Note_on_c, 0, 72, 100
2, 469296, Note_on_c, 0, 71, 100
2, 469340, Note_off_c, 0, 72, 100
2, 469344, Note_on_c, 0, 72, 100
2, 469388, Note_off_c, 0, 71, 100
2, 469392, Note_on_c, 0, 71, 100
2, 469436, Note_off_c, 0, 72, 100
2, 469440, Note_on_c, 0, 69, 100
2, 469484, Note_off_c, 0, 71, 100
2, 469532, Note_off_c, 0, 69, 100
2, 469536, Note_on_c, 0, 71, 100
2, 469628, Note_off_c, 0, 71, 100
2, 469632, Note_on_c, 0, 67, 100
2, 470012, Note_off_c, 0, 67, 100
2, 470016, Note_on_c, 0, 79, 100
2, 470064, Note_on_c, 0, 77, 100
2, 470108, Note_off_c, 0, 79, 100
2, 470112, Note_on_c, 0, 79, 100
2, 470156, Note_off_c, 0, 77, 100
2, 470160, Note_on_c, 0, 77, 100
2, 470204, Note_off_c, 0, 79, 100
2, 470208, Note_on_c, 0, 76, 100
2, 470252, Note_off_c, 0, 77, 100
2, 470300, Note_off_c, 0, 76, 100
2, 470304, Note_on_c, 0, 77, 100
2, 470396, Note_off_c, 0, 77, 100
2, 470400, Note_on_c, 0, 74, 100
2, 470780, Note_off_c, 0, 74, 100
2, 470784, Note_on_c, 0, 84, 100
2, 470832, Note_on_c, 0, 83, 100
2, 470876, Note_off_c, 0, 84, 100
2, 470880, Note_on_c, 0, 84, 100
2, 470924, Note_off_c, 0, 83, 100
2, 470928, Note_on_c, 0, 83, 100
2, 470972, Note_off_c, 0, 84, 100
2, 470976, Note_on_c, 0, 81, 100
2, 471020, Note_off_c, 0, 83, 100
2, 471068, Note_off_c, 0, 81, 100
2, 471072, Note_on_c, 0, 83, 100
2, 471164, Note_off_c, 0, 83, 100
2, 471168, Note_on_c, 0, 79, 100
2, 471548, Note_off_c, 0, 79, 100
2, 471552, Note_on_c, 0, 80, 120
2, 471552, Note_on_c, 0, 75, 120
2, 471552, Note_on_c, 0, 72, 120
2, 471552, Note_on_c, 0, 84, 120
2, 472316, Note_off_c, 0, 80, 100
2, 472316, Note_off_c, 0, 75, 100
2, 472316, Note_off_c, 0, 72, 100
2, 472508, Note_off_c, 0, 84, 100
2, 472512, Note_on_c, 0, 84, 80
2, 472700, Note_off_c, 0, 84, 100
2, 472704, Note_on_c, 0, 87, 80
2, 472892, Note_off_c, 0, 87, 100
2, 472896, Note_on_c, 0, 84, 80
2, 473084, Note_off_c, 0, 84, 100
2, 473088, Note_on_c, 0, 80, 80
2, 473276, Note_off_c, 0, 80, 100
2, 473280, Note_on_c, 0, 84, 80
2, 473468, Note_off_c, 0, 84, 100
2, 473472, Note_on_c, 0, 75, 80
2, 473660, Note_off_c, 0, 75, 100
2, 473664, Note_on_c, 0, 80, 80
2, 473852, Note_off_c, 0, 80, 100
2, 473856, Note_on_c, 0, 72, 80
2, 474044, Note_off_c, 0, 72, 100
2, 474048, Note_on_c, 0, 75, 80
2, 474236, Note_off_c, 0, 75, 100
2, 474240, Note_on_c, 0, 68, 80
2, 474428, Note_off_c, 0, 68, 100
2, 474432, Note_on_c, 0, 72, 80
2, 474620, Note_off_c, 0, 72, 100
2, 474624, Note_on_c, 0, 63, 80
2, 474812, Note_off_c, 0, 63, 100
2, 474816, Note_on_c, 0, 68, 80
2, 475004, Note_off_c, 0, 68, 100
2, 475008, Note_on_c, 0, 60, 80
2, 475196, Note_off_c, 0, 60, 100
2, 475200, Note_on_c, 0, 63, 80
2, 475388, Note_off_c, 0, 63, 100
2, 475392, Note_on_c, 0, 56, 80
2, 475580, Note_off_c, 0, 56, 100
2, 475584, Note_on_c, 0, 60, 80
2, 475772, Note_off_c, 0, 60, 100
2, 475776, Note_on_c, 0, 51, 80
2, 475964, Note_off_c, 0, 51, 100
2, 475968, Note_on_c, 0, 56, 80
2, 476156, Note_off_c, 0, 56, 100
2, 476160, Note_on_c, 0, 48, 80
2, 476348, Note_off_c, 0, 48, 100
2, 476352, Note_on_c, 0, 51, 80
2, 476540, Note_off_c, 0, 51, 100
2, 478464, Note_on_c, 0, 48, 70
2, 478656, Note_on_c, 0, 51, 70
2, 478848, Note_on_c, 0, 56, 70
2, 479040, Note_on_c, 0, 60, 70
2, 479228, Note_off_c, 0, 48, 100
2, 479228, Note_off_c, 0, 51, 100
2, 479228, Note_off_c, 0, 56, 100
2, 479232, Note_on_c, 0, 56, 70
2, 479420, Note_off_c, 0, 56, 100
2, 479424, Note_on_c, 0, 51, 70
2, 479616, Note_on_c, 0, 48, 70
2, 479996, Note_off_c, 0, 60, 100
2, 480764, Note_off_c, 0, 51, 100
2, 480764, Note_off_c, 0, 48, 100
2, 481536, Note_on_c, 0, 49, 70
2, 481728, Note_on_c, 0, 52, 70
2, 481920, Note_on_c, 0, 55, 70
2, 482112, Note_on_c, 0, 61, 70
2, 482300, Note_off_c, 0, 49, 100
2, 482300, Note_off_c, 0, 52, 100
2, 482300, Note_off_c, 0, 55, 100
2, 482304, Note_on_c, 0, 55, 70
2, 482496, Note_on_c, 0, 52, 70
2, 482688, Note_on_c, 0, 49, 70
2, 483068, Note_off_c, 0, 61, 100
2, 483068, Note_off_c, 0, 55, 100
2, 483836, Note_off_c, 0, 52, 100
2, 483836, Note_off_c, 0, 49, 100
2, 484608, Note_on_c, 0, 51, 70
2, 484800, Note_on_c, 0, 54, 70
2, 484992, Note_on_c, 0, 57, 70
2, 485184, Note_on_c, 0, 63, 70
2, 485372, Note_off_c, 0, 51, 100
2, 485372, Note_off_c, 0, 54, 100
2, 485372, Note_off_c, 0, 57, 100
2, 485376, Note_on_c, 0, 57, 70
2, 485568, Note_on_c, 0, 54, 70
2, 485760, Note_on_c, 0, 51, 70
2, 486140, Note_off_c, 0, 63, 100
2, 486140, Note_off_c, 0, 57, 100
2, 486908, Note_off_c, 0, 54, 100
2, 486908, Note_off_c, 0, 51, 100
2, 487296, Note_on_c, 0, 53, 72
2, 487420, Note_off_c, 0, 53, 100
2, 487424, Note_on_c, 0, 56, 73
2, 487548, Note_off_c, 0, 56, 100
2, 487552, Note_on_c, 0, 59, 74
2, 487676, Note_off_c, 0, 59, 100
2, 487680, Note_on_c, 0, 65, 75
2, 487808, Note_on_c, 0, 59, 75
2, 487932, Note_off_c, 0, 59, 100
2, 487936, Note_on_c, 0, 56, 76
2, 488060, Note_off_c, 0, 56, 100
2, 488064, Note_on_c, 0, 53, 77
2, 488444, Note_off_c, 0, 65, 100
2, 488444, Note_off_c, 0, 53, 100
2, 488832, Note_on_c, 0, 55, 82
2, 488956, Note_off_c, 0, 55, 100
2, 488960, Note_on_c, 0, 58, 83
2, 489084, Note_off_c, 0, 58, 100
2, 489088, Note_on_c, 0, 61, 84
2, 489212, Note_off_c, 0, 61, 100
2, 489216, Note_on_c, 0, 67, 85
2, 489344, Note_on_c, 0, 61, 86
2, 489468, Note_off_c, 0, 61, 100
2, 489472, Note_on_c, 0, 58, 87
2, 489596, Note_off_c, 0, 58, 100
2, 489600, Note_on_c, 0, 55, 87
2, 489980, Note_off_c, 0, 67, 100
2, 489980, Note_off_c, 0, 55, 100
2, 490368, Note_on_c, 0, 56, 92
2, 490492, Note_off_c, 0, 56, 100
2, 490496, Note_on_c, 0, 59, 93
2, 490620, Note_off_c, 0, 59, 100
2, 490624, Note_on_c, 0, 62, 94
2, 490748, Note_off_c, 0, 62, 100
2, 490752, Note_on_c, 0, 68, 95
2, 490880, Note_on_c, 0, 62, 96
2, 491004, Note_off_c, 0, 62, 100
2, 491008, Note_on_c, 0, 59, 97
2, 491132, Note_off_c, 0, 59, 100
2, 491136, Note_on_c, 0, 56, 98
2, 491516, Note_off_c, 0, 68, 100
2, 491516, Note_off_c, 0, 56, 100
2, 491904, Note_on_c, 0, 57, 103
2, 492028, Note_off_c, 0, 57, 100
2, 492032, Note_on_c, 0, 60, 104
2, 492156, Note_off_c, 0, 60, 100
2, 492160, Note_on_c, 0, 63, 104
2, 492284, Note_off_c, 0, 63, 100
2, 492288, Note_on_c, 0, 69, 105
2, 492416, Note_on_c, 0, 63, 106
2, 492540, Note_off_c, 0, 63, 100
2, 492544, Note_on_c, 0, 60, 107
2, 492668, Note_off_c, 0, 60, 100
2, 492672, Note_on_c, 0, 57, 108
2, 493052, Note_off_c, 0, 69, 100
2, 493052, Note_off_c, 0, 57, 100
2, 493056, Note_on_c, 0, 67, 110
2, 493056, Note_on_c, 0, 64, 110
2, 493056, Note_on_c, 0, 60, 110
2, 493820, Note_off_c, 0, 67, 100
2, 493820, Note_off_c, 0, 64, 100
2, 493820, Note_off_c, 0, 60, 100
2, 493824, Note_on_c, 0, 55, 80
2, 493920, Note_on_c, 0, 54, 80
2, 494012, Note_off_c, 0, 55, 100
2, 494016, Note_on_c, 0, 57, 80
2, 494108, Note_off_c, 0, 54, 100
2, 494112, Note_on_c, 0, 55, 80
2, 494204, Note_off_c, 0, 57, 100
2, 494208, Note_on_c, 0, 60, 80
2, 494300, Note_off_c, 0, 55, 100
2, 494304, Note_on_c, 0, 59, 80
2, 494396, Note_off_c, 0, 60, 100
2, 494400, Note_on_c, 0, 62, 80
2, 494492, Note_off_c, 0, 59, 100
2, 494496, Note_on_c, 0, 60, 80
2, 494588, Note_off_c, 0, 62, 100
2, 494592, Note_on_c, 0, 64, 80
2, 494684, Note_off_c, 0, 60, 100
2, 494688, Note_on_c, 0, 63, 80
2, 494780, Note_off_c, 0, 64, 100
2, 494784, Note_on_c, 0, 65, 80
2, 494876, Note_off_c, 0, 63, 100
2, 494880, Note_on_c, 0, 64, 80
2, 494972, Note_off_c, 0, 65, 100
2, 494976, Note_on_c, 0, 67, 80
2, 495068, Note_off_c, 0, 64, 100
2, 495072, Note_on_c, 0, 66, 80
2, 495164, Note_off_c, 0, 67, 100
2, 495168, Note_on_c, 0, 69, 80
2, 495260, Note_off_c, 0, 66, 100
2, 495264, Note_on_c, 0, 67, 80
2, 495356, Note_off_c, 0, 69, 100
2, 495360, Note_on_c, 0, 72, 80
2, 495452, Note_off_c, 0, 67, 100
2, 495456, Note_on_c, 0, 71, 80
2, 495548, Note_off_c, 0, 72, 100
2, 495552, Note_on_c, 0, 74, 80
2, 495644, Note_off_c, 0, 71, 100
2, 495648, Note_on_c, 0, 72, 80
2, 495740, Note_off_c, 0, 74, 100
2, 495744, Note_on_c, 0, 76, 80
2, 495836, Note_off_c, 0, 72, 100
2, 495840, Note_on_c, 0, 75, 80
2, 495932, Note_off_c, 0, 76, 100
2, 495936, Note_on_c, 0, 77, 80
2, 496028, Note_off_c, 0, 75, 100
2, 496032, Note_on_c, 0, 76, 80
2, 496124, Note_off_c, 0, 77, 100
2, 496128, Note_on_c, 0, 79, 80
2, 496220, Note_off_c, 0, 76, 100
2, 496224, Note_on_c, 0, 78, 80
2, 496316, Note_off_c, 0, 79, 100
2, 496320, Note_on_c, 0, 81, 80
2, 496412, Note_off_c, 0, 78, 100
2, 496416, Note_on_c, 0, 79, 80
2, 496508, Note_off_c, 0, 81, 100
2, 496512, Note_on_c, 0, 84, 80
2, 496604, Note_off_c, 0, 79, 100
2, 496608, Note_on_c, 0, 83, 80
2, 496700, Note_off_c, 0, 84, 100
2, 496704, Note_on_c, 0, 86, 80
2, 496796, Note_off_c, 0, 83, 100
2, 496800, Note_on_c, 0, 84, 80
2, 496892, Note_off_c, 0, 86, 100
2, 496896, Note_on_c, 0, 88, 80
2, 496988, Note_off_c, 0, 84, 100
2, 497664, Note_on_c, 0, 87, 80
2, 497756, Note_off_c, 0, 88, 100
2, 497760, Note_on_c, 0, 88, 80
2, 497852, Note_off_c, 0, 87, 100
2, 497856, Note_on_c, 0, 87, 80
2, 497948, Note_off_c, 0, 88, 100
2, 497952, Note_on_c, 0, 88, 80
2, 498044, Note_off_c, 0, 87, 100
2, 498048, Note_on_c, 0, 89, 80
2, 498140, Note_off_c, 0, 88, 100
2, 498240, Note_on_c, 0, 88, 80
2, 498428, Note_off_c, 0, 89, 100
2, 498432, Note_on_c, 0, 83, 80
2, 498528, Note_on_c, 0, 84, 80
2, 498620, Note_off_c, 0, 88, 100
2, 498620, Note_off_c, 0, 83, 100
2, 498624, Note_on_c, 0, 83, 80
2, 498716, Note_off_c, 0, 84, 100
2, 498720, Note_on_c, 0, 84, 80
2, 498812, Note_off_c, 0, 83, 100
2, 498816, Note_on_c, 0, 86, 80
2, 498908, Note_off_c, 0, 84, 100
2, 499008, Note_on_c, 0, 84, 80
2, 499100, Note_off_c, 0, 86, 100
2, 499200, Note_on_c, 0, 80, 80
2, 499292, Note_off_c, 0, 84, 100
2, 499296, Note_on_c, 0, 81, 80
2, 499388, Note_off_c, 0, 80, 100
2, 499392, Note_on_c, 0, 80, 80
2, 499484, Note_off_c, 0, 81, 100
2, 499488, Note_on_c, 0, 81, 80
2, 499580, Note_off_c, 0, 80, 100
2, 499584, Note_on_c, 0, 83, 80
2, 499676, Note_off_c, 0, 81, 100
2, 499776, Note_on_c, 0, 81, 80
2, 499868, Note_off_c, 0, 83, 100
2, 499968, Note_on_c, 0, 76, 80
2, 500060, Note_off_c, 0, 81, 100
2, 500064, Note_on_c, 0, 77, 80
2, 500156, Note_off_c, 0, 76, 100
2, 500160, Note_on_c, 0, 76, 80
2, 500252, Note_off_c, 0, 77, 100
2, 500256, Note_on_c, 0, 77, 80
2, 500348, Note_off_c, 0, 76, 100
2, 500352, Note_on_c, 0, 79, 80
2, 500444, Note_off_c, 0, 77, 100
2, 500544, Note_on_c, 0, 77, 80
2, 500636, Note_off_c, 0, 79, 100
2, 500736, Note_on_c, 0, 73, 80
2, 500828, Note_off_c, 0, 77, 100
2, 500832, Note_on_c, 0, 74, 80
2, 500924, Note_off_c, 0, 73, 100
2, 500928, Note_on_c, 0, 73, 80
2, 501020, Note_off_c, 0, 74, 100
2, 501024, Note_on_c, 0, 74, 80
2, 501116, Note_off_c, 0, 73, 100
2, 501120, Note_on_c, 0, 76, 80
2, 501212, Note_off_c, 0, 74, 100
2, 501312, Note_on_c, 0, 74, 80
2, 501404, Note_off_c, 0, 76, 100
2, 501504, Note_on_c, 0, 73, 80
2, 501596, Note_off_c, 0, 74, 100
2, 501600, Note_on_c, 0, 74, 80
2, 501692, Note_off_c, 0, 73, 100
2, 501696, Note_on_c, 0, 73, 80
2, 501788, Note_off_c, 0, 74, 100
2, 501792, Note_on_c, 0, 74, 80
2, 501884, Note_off_c, 0, 73, 100
2, 501888, Note_on_c, 0, 77, 80
2, 501980, Note_off_c, 0, 74, 100
2, 502080, Note_on_c, 0, 74, 80
2, 502172, Note_off_c, 0, 77, 100
2, 502272, Note_on_c, 0, 73, 80
2, 502272, Note_on_c, 0, 74, 80
2, 502364, Note_off_c, 0, 74, 100
2, 502368, Note_on_c, 0, 74, 80
2, 502460, Note_off_c, 0, 73, 100
2, 502460, Note_off_c, 0, 74, 100
2, 502464, Note_on_c, 0, 73, 80
2, 502556, Note_off_c, 0, 74, 100
2, 502560, Note_on_c, 0, 74, 80
2, 502652, Note_off_c, 0, 73, 100
2, 502656, Note_on_c, 0, 76, 80
2, 502748, Note_off_c, 0, 74, 100
2, 502848, Note_on_c, 0, 74, 80
2, 502940, Note_off_c, 0, 76, 100
2, 503040, Note_on_c, 0, 73, 80
2, 503132, Note_off_c, 0, 74, 100
2, 503136, Note_on_c, 0, 74, 80
2, 503228, Note_off_c, 0, 73, 100
2, 503232, Note_on_c, 0, 73, 80
2, 503324, Note_off_c, 0, 74, 100
2, 503328, Note_on_c, 0, 74, 80
2, 503420, Note_off_c, 0, 73, 100
2, 503424, Note_on_c, 0, 77, 80
2, 503516, Note_off_c, 0, 74, 100
2, 503616, Note_on_c, 0, 74, 80
2, 503708, Note_off_c, 0, 77, 100
2, 503808, Note_on_c, 0, 73, 80
2, 503900, Note_off_c, 0, 74, 100
2, 503904, Note_on_c, 0, 74, 80
2, 503996, Note_off_c, 0, 73, 100
2, 504000, Note_on_c, 0, 76, 80
2, 504092, Note_off_c, 0, 74, 100
2, 504096, Note_on_c, 0, 74, 80
2, 504188, Note_off_c, 0, 76, 100
2, 504192, Note_on_c, 0, 73, 80
2, 504284, Note_off_c, 0, 74, 100
2, 504288, Note_on_c, 0, 74, 80
2, 504380, Note_off_c, 0, 73, 100
2, 504384, Note_on_c, 0, 77, 80
2, 504476, Note_off_c, 0, 74, 100
2, 504480, Note_on_c, 0, 74, 80
2, 504572, Note_off_c, 0, 77, 100
2, 504576, Note_on_c, 0, 73, 80
2, 504668, Note_off_c, 0, 74, 100
2, 504672, Note_on_c, 0, 74, 80
2, 504764, Note_off_c, 0, 73, 100
2, 504768, Note_on_c, 0, 76, 80
2, 504860, Note_off_c, 0, 74, 100
2, 504864, Note_on_c, 0, 74, 80
2, 504956, Note_off_c, 0, 76, 100
2, 504960, Note_on_c, 0, 73, 80
2, 505052, Note_off_c, 0, 74, 100
2, 505056, Note_on_c, 0, 74, 80
2, 505148, Note_off_c, 0, 73, 100
2, 505152, Note_on_c, 0, 77, 80
2, 505244, Note_off_c, 0, 74, 100
2, 505248, Note_on_c, 0, 74, 80
2, 505340, Note_off_c, 0, 77, 100
2, 505344, Note_on_c, 0, 73, 80
2, 505436, Note_off_c, 0, 74, 100
2, 505440, Note_on_c, 0, 74, 80
2, 505532, Note_off_c, 0, 73, 100
2, 505536, Note_on_c, 0, 73, 80
2, 505628, Note_off_c, 0, 74, 100
2, 505632, Note_on_c, 0, 74, 80
2, 505724, Note_off_c, 0, 73, 100
2, 505728, Note_on_c, 0, 73, 80
2, 505820, Note_off_c, 0, 74, 100
2, 505824, Note_on_c, 0, 74, 80
2, 505916, Note_off_c, 0, 73, 100
2, 505920, Note_on_c, 0, 73, 80
2, 506012, Note_off_c, 0, 74, 100
2, 506016, Note_on_c, 0, 74, 80
2, 506108, Note_off_c, 0, 73, 100
2, 506112, Note_on_c, 0, 73, 80
2, 506204, Note_off_c, 0, 74, 100
2, 506208, Note_on_c, 0, 74, 80
2, 506300, Note_off_c, 0, 73, 100
2, 506304, Note_on_c, 0, 73, 80
2, 506396, Note_off_c, 0, 74, 100
2, 506400, Note_on_c, 0, 74, 80
2, 506492, Note_off_c, 0, 73, 100
2, 506496, Note_on_c, 0, 73, 80
2, 506588, Note_off_c, 0, 74, 100
2, 506592, Note_on_c, 0, 74, 80
2, 506684, Note_off_c, 0, 73, 100
2, 506688, Note_on_c, 0, 73, 80
2, 506780, Note_off_c, 0, 74, 100
2, 506784, Note_on_c, 0, 74, 80
2, 506876, Note_off_c, 0, 73, 100
2, 506876, Note_off_c, 0, 74, 100
2, 506880, Note_on_c, 0, 74, 80
2, 506928, Note_on_c, 0, 76, 80
2, 506972, Note_off_c, 0, 74, 100
2, 506976, Note_on_c, 0, 74, 80
2, 507020, Note_off_c, 0, 76, 100
2, 507024, Note_on_c, 0, 76, 80
2, 507068, Note_off_c, 0, 74, 100
2, 507072, Note_on_c, 0, 74, 80
2, 507116, Note_off_c, 0, 76, 100
2, 507120, Note_on_c, 0, 76, 80
2, 507164, Note_off_c, 0, 74, 100
2, 507168, Note_on_c, 0, 74, 80
2, 507212, Note_off_c, 0, 76, 100
2, 507216, Note_on_c, 0, 76, 80
2, 507260, Note_off_c, 0, 74, 100
2, 507264, Note_on_c, 0, 74, 80
2, 507308, Note_off_c, 0, 76, 100
2, 507312, Note_on_c, 0, 76, 80
2, 507356, Note_off_c, 0, 74, 100
2, 507360, Note_on_c, 0, 74, 80
2, 507404, Note_off_c, 0, 76, 100
2, 507408, Note_on_c, 0, 76, 80
2, 507452, Note_off_c, 0, 74, 100
2, 507456, Note_on_c, 0, 74, 80
2, 507500, Note_off_c, 0, 76, 100
2, 507504, Note_on_c, 0, 76, 80
2, 507548, Note_off_c, 0, 74, 100
2, 507552, Note_on_c, 0, 74, 80
2, 507596, Note_off_c, 0, 76, 100
2, 507600, Note_on_c, 0, 76, 80
2, 507644, Note_off_c, 0, 74, 100
2, 507648, Note_on_c, 0, 74, 80
2, 507692, Note_off_c, 0, 76, 100
2, 507696, Note_on_c, 0, 76, 80
2, 507740, Note_off_c, 0, 74, 100
2, 507744, Note_on_c, 0, 74, 80
2, 507788, Note_off_c, 0, 76, 100
2, 507792, Note_on_c, 0, 76, 80
2, 507836, Note_off_c, 0, 74, 100
2, 507840, Note_on_c, 0, 74, 80
2, 507884, Note_off_c, 0, 76, 100
2, 507888, Note_on_c, 0, 76, 80
2, 507932, Note_off_c, 0, 74, 100
2, 507936, Note_on_c, 0, 74, 80
2, 507980, Note_off_c, 0, 76, 100
2, 507984, Note_on_c, 0, 76, 80
2, 508028, Note_off_c, 0, 74, 100
2, 508032, Note_on_c, 0, 74, 80
2, 508076, Note_off_c, 0, 76, 100
2, 508080, Note_on_c, 0, 76, 80
2, 508124, Note_off_c, 0, 74, 100
2, 508128, Note_on_c, 0, 74, 80
2, 508172, Note_off_c, 0, 76, 100
2, 508176, Note_on_c, 0, 76, 80
2, 508220, Note_off_c, 0, 74, 100
2, 508224, Note_on_c, 0, 74, 80
2, 508268, Note_off_c, 0, 76, 100
2, 508272, Note_on_c, 0, 76, 80
2, 508316, Note_off_c, 0, 74, 100
2, 508320, Note_on_c, 0, 74, 80
2, 508364, Note_off_c, 0, 76, 100
2, 508368, Note_on_c, 0, 76, 80
2, 508412, Note_off_c, 0, 74, 100
2, 508416, Note_on_c, 0, 74, 80
2, 508460, Note_off_c, 0, 76, 100
2, 508464, Note_on_c, 0, 76, 80
2, 508508, Note_off_c, 0, 74, 100
2, 508512, Note_on_c, 0, 74, 80
2, 508556, Note_off_c, 0, 76, 100
2, 508560, Note_on_c, 0, 76, 80
2, 508604, Note_off_c, 0, 74, 100
2, 508608, Note_on_c, 0, 74, 80
2, 508652, Note_off_c, 0, 76, 100
2, 508656, Note_on_c, 0, 76, 80
2, 508700, Note_off_c, 0, 74, 100
2, 508704, Note_on_c, 0, 74, 80
2, 508748, Note_off_c, 0, 76, 100
2, 508752, Note_on_c, 0, 76, 80
2, 508796, Note_off_c, 0, 74, 100
2, 508800, Note_on_c, 0, 74, 80
2, 508844, Note_off_c, 0, 76, 100
2, 508848, Note_on_c, 0, 76, 80
2, 508892, Note_off_c, 0, 74, 100
2, 508896, Note_on_c, 0, 74, 80
2, 508940, Note_off_c, 0, 76, 100
2, 508944, Note_on_c, 0, 76, 80
2, 508988, Note_off_c, 0, 74, 100
2, 508992, Note_on_c, 0, 74, 80
2, 509036, Note_off_c, 0, 76, 100
2, 509040, Note_on_c, 0, 76, 80
2, 509084, Note_off_c, 0, 74, 100
2, 509088, Note_on_c, 0, 73, 80
2, 509132, Note_off_c, 0, 76, 100
2, 509136, Note_on_c, 0, 74, 80
2, 509180, Note_off_c, 0, 73, 100
2, 509184, Note_on_c, 0, 77, 80
2, 509228, Note_off_c, 0, 74, 100
2, 510332, Note_off_c, 0, 77, 100
2, 510336, Note_on_c, 0, 76, 80
2, 510432, Note_on_c, 0, 75, 80
2, 510524, Note_off_c, 0, 76, 100
2, 510528, Note_on_c, 0, 74, 80
2, 510620, Note_off_c, 0, 75, 100
2, 510624, Note_on_c, 0, 73, 80
2, 510716, Note_off_c, 0, 74, 100
2, 510720, Note_on_c, 0, 72, 80
2, 510812, Note_off_c, 0, 73, 100
2, 510816, Note_on_c, 0, 71, 80
2, 510908, Note_off_c, 0, 72, 100
2, 510912, Note_on_c, 0, 70, 80
2, 511004, Note_off_c, 0, 71, 100
2, 511008, Note_on_c, 0, 69, 80
2, 511100, Note_off_c, 0, 70, 100
2, 511104, Note_on_c, 0, 68, 80
2, 511196, Note_off_c, 0, 69, 100
2, 511200, Note_on_c, 0, 67, 80
2, 511292, Note_off_c, 0, 68, 100
2, 511296, Note_on_c, 0, 66, 80
2, 511388, Note_off_c, 0, 67, 100
2, 511392, Note_on_c, 0, 65, 80
2, 511484, Note_off_c, 0, 66, 100
2, 511488, Note_on_c, 0, 64, 80
2, 511488, Note_on_c, 0, 60, 80
2, 511580, Note_off_c, 0, 65, 100
2, 512252, Note_off_c, 0, 64, 100
2, 512252, Note_off_c, 0, 60, 100
2, 512256, Note_on_c, 0, 62, 80
2, 512256, Note_on_c, 0, 59, 80
2, 512348, Note_off_c, 0, 62, 100
2, 512348, Note_off_c, 0, 59, 100
2, 512352, Note_on_c, 0, 64, 80
2, 512352, Note_on_c, 0, 60, 80
2, 512444, Note_off_c, 0, 64, 100
2, 512444, Note_off_c, 0, 60, 100
2, 512448, Note_on_c, 0, 62, 80
2, 512448, Note_on_c, 0, 59, 80
2, 512540, Note_off_c, 0, 62, 100
2, 512540, Note_off_c, 0, 59, 100
2, 512544, Note_on_c, 0, 64, 80
2, 512544, Note_on_c, 0, 60, 80
2, 512636, Note_off_c, 0, 64, 100
2, 512636, Note_off_c, 0, 60, 100
2, 512640, Note_on_c, 0, 65, 80
2, 512640, Note_on_c, 0, 62, 80
2, 512828, Note_off_c, 0, 65, 100
2, 512828, Note_off_c, 0, 62, 100
2, 512832, Note_on_c, 0, 64, 80
2, 512832, Note_on_c, 0, 60, 80
2, 513020, Note_off_c, 0, 64, 100
2, 513020, Note_off_c, 0, 60, 100
2, 513024, Note_on_c, 0, 62, 80
2, 513024, Note_on_c, 0, 59, 80
2, 513404, Note_off_c, 0, 62, 100
2, 513404, Note_off_c, 0, 59, 100
2, 513408, Note_on_c, 0, 59, 80
2, 513408, Note_on_c, 0, 67, 80
2, 513788, Note_off_c, 0, 59, 100
2, 513788, Note_off_c, 0, 67, 100
2, 514560, Note_on_c, 0, 65, 80
2, 514560, Note_on_c, 0, 62, 80
2, 515324, Note_off_c, 0, 65, 100
2, 515324, Note_off_c, 0, 62, 100
2, 515328, Note_on_c, 0, 61, 80
2, 515328, Note_on_c, 0, 64, 80
2, 515420, Note_off_c, 0, 61, 100
2, 515420, Note_off_c, 0, 64, 100
2, 515424, Note_on_c, 0, 62, 80
2, 515424, Note_on_c, 0, 65, 80
2, 515516, Note_off_c, 0, 62, 100
2, 515516, Note_off_c, 0, 65, 100
2, 515520, Note_on_c, 0, 61, 80
2, 515520, Note_on_c, 0, 64, 80
2, 515612, Note_off_c, 0, 61, 100
2, 515612, Note_off_c, 0, 64, 100
2, 515616, Note_on_c, 0, 62, 80
2, 515616, Note_on_c, 0, 65, 80
2, 515708, Note_off_c, 0, 62, 100
2, 515708, Note_off_c, 0, 65, 100
2, 515712, Note_on_c, 0, 67, 80
2, 515712, Note_on_c, 0, 64, 80
2, 515900, Note_off_c, 0, 67, 100
2, 515900, Note_off_c, 0, 64, 100
2, 515904, Note_on_c, 0, 65, 80
2, 515904, Note_on_c, 0, 62, 80
2, 516092, Note_off_c, 0, 65, 100
2, 516092, Note_off_c, 0, 62, 100
2, 516096, Note_on_c, 0, 64, 80
2, 516096, Note_on_c, 0, 60, 80
2, 516476, Note_off_c, 0, 64, 100
2, 516476, Note_off_c, 0, 60, 100
2, 516480, Note_on_c, 0, 64, 80
2, 516480, Note_on_c, 0, 72, 80
2, 516860, Note_off_c, 0, 64, 100
2, 516860, Note_off_c, 0, 72, 100
2, 517632, Note_on_c, 0, 67, 80
2, 518012, Note_off_c, 0, 67, 100
2, 518016, Note_on_c, 0, 72, 101
2, 518400, Note_on_c, 0, 65, 80
2, 518780, Note_off_c, 0, 72, 100
2, 518784, Note_on_c, 0, 71, 80
2, 519164, Note_off_c, 0, 65, 100
2, 519164, Note_off_c, 0, 71, 100
2, 519168, Note_on_c, 0, 67, 80
2, 519168, Note_on_c, 0, 64, 80
2, 519548, Note_off_c, 0, 67, 100
2, 519552, Note_on_c, 0, 72, 103
2, 519932, Note_off_c, 0, 64, 100
2, 519936, Note_on_c, 0, 65, 80
2, 520316, Note_off_c, 0, 72, 100
2, 520320, Note_on_c, 0, 71, 80
2, 520700, Note_off_c, 0, 65, 100
2, 520700, Note_off_c, 0, 71, 100
2, 520704, Note_on_c, 0, 64, 80
2, 520704, Note_on_c, 0, 67, 80
2, 521084, Note_off_c, 0, 67, 100
2, 521088, Note_on_c, 0, 76, 104
2, 521468, Note_off_c, 0, 64, 100
2, 521472, Note_on_c, 0, 67, 80
2, 521852, Note_off_c, 0, 76, 100
2, 521856, Note_on_c, 0, 74, 80
2, 522236, Note_off_c, 0, 74, 100
2, 522240, Note_on_c, 0, 72, 80
2, 522620, Note_off_c, 0, 72, 100
2, 522624, Note_on_c, 0, 79, 104
2, 523388, Note_off_c, 0, 67, 100
2, 523388, Note_off_c, 0, 79, 100
2, 523392, Note_on_c, 0, 77, 80
2, 523772, Note_off_c, 0, 77, 100
2, 523776, Note_on_c, 0, 76, 80
2, 524156, Note_off_c, 0, 76, 100
2, 524160, Note_on_c, 0, 76, 100
2, 524160, Note_on_c, 0, 88, 100
2, 524540, Note_off_c, 0, 76, 100
2, 524540, Note_off_c, 0, 88, 100
2, 524544, Note_on_c, 0, 69, 80
2, 524924, Note_off_c, 0, 69, 100
2, 524928, Note_on_c, 0, 74, 100
2, 524928, Note_on_c, 0, 86, 100
2, 525308, Note_off_c, 0, 74, 100
2, 525308, Note_off_c, 0, 86, 100
2, 525312, Note_on_c, 0, 67, 87
2, 525692, Note_off_c, 0, 67, 100
2, 525696, Note_on_c, 0, 72, 106
2, 525696, Note_on_c, 0, 84, 110
2, 526076, Note_off_c, 0, 72, 100
2, 526076, Note_off_c, 0, 84, 100
2, 526080, Note_on_c, 0, 65, 103
2, 526460, Note_off_c, 0, 65, 100
2, 526464, Note_on_c, 0, 71, 115
2, 526464, Note_on_c, 0, 83, 112
2, 526844, Note_off_c, 0, 71, 100
2, 526844, Note_off_c, 0, 83, 100
2, 526848, Note_on_c, 0, 69, 120
2, 526848, Note_on_c, 0, 81, 120
2, 527036, Note_off_c, 0, 69, 100
2, 527036, Note_off_c, 0, 81, 100
2, 527040, Note_on_c, 0, 76, 120
2, 527228, Note_off_c, 0, 76, 100
2, 527232, Note_on_c, 0, 79, 120
2, 527232, Note_on_c, 0, 67, 120
2, 527420, Note_off_c, 0, 79, 100
2, 527420, Note_off_c, 0, 67, 100
2, 527424, Note_on_c, 0, 74, 120
2, 527612, Note_off_c, 0, 74, 100
2, 527616, Note_on_c, 0, 77, 120
2, 527616, Note_on_c, 0, 65, 120
2, 527804, Note_off_c, 0, 77, 100
2, 527804, Note_off_c, 0, 65, 100
2, 527808, Note_on_c, 0, 72, 120
2, 527996, Note_off_c, 0, 72, 100
2, 528000, Note_on_c, 0, 76, 120
2, 528000, Note_on_c, 0, 64, 120
2, 528188, Note_off_c, 0, 76, 100
2, 528188, Note_off_c, 0, 64, 100
2, 528192, Note_on_c, 0, 71, 120
2, 528380, Note_off_c, 0, 71, 100
2, 528384, Note_on_c, 0, 74, 120
2, 528384, Note_on_c, 0, 62, 120
2, 528572, Note_off_c, 0, 74, 100
2, 528572, Note_off_c, 0, 62, 100
2, 528576, Note_on_c, 0, 69, 120
2, 528764, Note_off_c, 0, 69, 100
2, 528768, Note_on_c, 0, 60, 120
2, 528768, Note_on_c, 0, 72, 120
2, 528956, Note_off_c, 0, 60, 100
2, 528956, Note_off_c, 0, 72, 100
2, 528960, Note_on_c, 0, 67, 120
2, 529148, Note_off_c, 0, 67, 100
2, 529152, Note_on_c, 0, 59, 120
2, 529152, Note_on_c, 0, 71, 120
2, 529340, Note_off_c, 0, 59, 100
2, 529340, Note_off_c, 0, 71, 100
2, 529344, Note_on_c, 0, 65, 120
2, 529532, Note_off_c, 0, 65, 100
2, 529536, Note_on_c, 0, 60, 120
2, 529536, Note_on_c, 0, 72, 120
2, 529724, Note_off_c, 0, 60, 100
2, 529724, Note_off_c, 0, 72, 100
2, 529728, Note_on_c, 0, 64, 120
2, 529916, Note_off_c, 0, 64, 100
2, 529920, Note_on_c, 0, 62, 120
2, 530300, Note_off_c, 0, 62, 100
2, 530304, Note_on_c, 0, 81, 120
2, 530684, Note_off_c, 0, 81, 100
2, 531456, Note_on_c, 0, 59, 80
2, 531836, Note_off_c, 0, 59, 100
2, 531840, Note_on_c, 0, 79, 80
2, 532220, Note_off_c, 0, 79, 100
2, 532992, Note_on_c, 0, 60, 70
2, 533372, Note_off_c, 0, 60, 100
2, 533376, Note_on_c, 0, 84, 70
2, 533756, Note_off_c, 0, 84, 100
2, 536832, Note_on_c, 0, 57, 120
2, 536832, Note_on_c, 0, 60, 120
2, 536832, Note_on_c, 0, 65, 120
2, 536832, Note_on_c, 0, 69, 120
2, 537212, Note_off_c, 0, 57, 100
2, 537212, Note_off_c, 0, 60, 100
2, 537212, Note_off_c, 0, 65, 100
2, 537212, Note_off_c, 0, 69, 100
2, 537216, Note_on_c, 0, 69, 120
2, 537216, Note_on_c, 0, 72, 120
2, 537216, Note_on_c, 0, 81, 120
2, 537216, Note_on_c, 0, 77, 120
2, 537596, Note_off_c, 0, 69, 100
2, 537596, Note_off_c, 0, 72, 100
2, 537596, Note_off_c, 0, 81, 100
2, 537596, Note_off_c, 0, 77, 100
2, 538368, Note_on_c, 0, 55, 120
2, 538368, Note_on_c, 0, 60, 120
2, 538368, Note_on_c, 0, 64, 120
2, 538368, Note_on_c, 0, 67, 120
2, 538748, Note_off_c, 0, 55, 100
2, 538748, Note_off_c, 0, 60, 100
2, 538748, Note_off_c, 0, 64, 100
2, 538748, Note_off_c, 0, 67, 100
2, 538752, Note_on_c, 0, 67, 120
2, 538752, Note_on_c, 0, 72, 120
2, 538752, Note_on_c, 0, 76, 120
2, 538752, Note_on_c, 0, 79, 120
2, 539132, Note_off_c, 0, 67, 100
2, 539132, Note_off_c, 0, 72, 100
2, 539132, Note_off_c, 0, 76, 100
2, 539132, Note_off_c, 0, 79, 100
2, 539904, Note_on_c, 0, 59, 120
2, 539904, Note_on_c, 0, 62, 120
2, 539904, Note_on_c, 0, 65, 120
2, 539904, Note_on_c, 0, 71, 120
2, 540284, Note_off_c, 0, 59, 100
2, 540284, Note_off_c, 0, 62, 100
2, 540284, Note_off_c, 0, 65, 100
2, 540284, Note_off_c, 0, 71, 100
2, 540288, Note_on_c, 0, 71, 120
2, 540288, Note_on_c, 0, 77, 120
2, 540288, Note_on_c, 0, 83, 120
2, 540288, Note_on_c, 0, 74, 120
2, 540668, Note_off_c, 0, 71, 100
2, 540668, Note_off_c, 0, 77, 100
2, 540668, Note_off_c, 0, 83, 100
2, 540668, Note_off_c, 0, 74, 100
2, 540672, Note_on_c, 0, 60, 120
2, 540764, Note_off_c, 0, 60, 100
2, 540768, Note_on_c, 0, 72, 120
2, 540860, Note_off_c, 0, 72, 100
2, 540864, Note_on_c, 0, 59, 120
2, 540956, Note_off_c, 0, 59, 100
2, 540960, Note_on_c, 0, 71, 120
2, 541052, Note_off_c, 0, 71, 100
2, 541056, Note_on_c, 0, 60, 120
2, 541148, Note_off_c, 0, 60, 100
2, 541152, Note_on_c, 0, 72, 120
2, 541244, Note_off_c, 0, 72, 100
2, 541248, Note_on_c, 0, 62, 120
2, 541340, Note_off_c, 0, 62, 100
2, 541344, Note_on_c, 0, 74, 120
2, 541436, Note_off_c, 0, 74, 100
2, 541440, Note_on_c, 0, 64, 120
2, 541532, Note_off_c, 0, 64, 100
2, 541536, Note_on_c, 0, 76, 120
2, 541628, Note_off_c, 0, 76, 100
2, 541632, Note_on_c, 0, 65, 120
2, 541724, Note_off_c, 0, 65, 100
2, 541728, Note_on_c, 0, 77, 120
2, 541820, Note_off_c, 0, 77, 100
2, 541824, Note_on_c, 0, 67, 120
2, 541916, Note_off_c, 0, 67, 100
2, 541920, Note_on_c, 0, 79, 120
2, 542012, Note_off_c, 0, 79, 100
2, 542016, Note_on_c, 0, 69, 120
2, 542108, Note_off_c, 0, 69, 100
2, 542112, Note_on_c, 0, 81, 120
2, 542204, Note_off_c, 0, 81, 100
2, 542208, Note_on_c, 0, 71, 120
2, 542300, Note_off_c, 0, 71, 100
2, 542304, Note_on_c, 0, 83, 120
2, 542396, Note_off_c, 0, 83, 100
2, 542400, Note_on_c, 0, 72, 120
2, 542492, Note_off_c, 0, 72, 100
2, 542496, Note_on_c, 0, 84, 120
2, 542588, Note_off_c, 0, 84, 100
2, 542592, Note_on_c, 0, 74, 120
2, 542684, Note_off_c, 0, 74, 100
2, 542688, Note_on_c, 0, 86, 120
2, 542780, Note_off_c, 0, 86, 100
2, 542784, Note_on_c, 0, 76, 120
2, 542876, Note_off_c, 0, 76, 100
2, 542880, Note_on_c, 0, 88, 120
2, 542972, Note_off_c, 0, 88, 100
2, 542976, Note_on_c, 0, 77, 120
2, 543068, Note_off_c, 0, 77, 100
2, 543072, Note_on_c, 0, 89, 120
2, 543164, Note_off_c, 0, 89, 100
2, 543168, Note_on_c, 0, 76, 120
2, 543260, Note_off_c, 0, 76, 100
2, 543264, Note_on_c, 0, 88, 120
2, 543356, Note_off_c, 0, 88, 100
2, 543360, Note_on_c, 0, 77, 120
2, 543452, Note_off_c, 0, 77, 100
2, 543456, Note_on_c, 0, 89, 120
2, 543548, Note_off_c, 0, 89, 100
2, 543552, Note_on_c, 0, 74, 120
2, 543644, Note_off_c, 0, 74, 100
2, 543648, Note_on_c, 0, 86, 120
2, 543740, Note_off_c, 0, 86, 100
2, 543744, Note_on_c, 0, 72, 120
2, 543836, Note_off_c, 0, 72, 100
2, 543840, Note_on_c, 0, 84, 120
2, 543932, Note_off_c, 0, 84, 100
2, 543936, Note_on_c, 0, 71, 120
2, 544028, Note_off_c, 0, 71, 100
2, 544032, Note_on_c, 0, 83, 120
2, 544124, Note_off_c, 0, 83, 100
2, 544128, Note_on_c, 0, 69, 120
2, 544220, Note_off_c, 0, 69, 100
2, 544224, Note_on_c, 0, 81, 120
2, 544316, Note_off_c, 0, 81, 100
2, 544320, Note_on_c, 0, 67, 120
2, 544412, Note_off_c, 0, 67, 100
2, 544416, Note_on_c, 0, 79, 120
2, 544508, Note_off_c, 0, 79, 100
2, 544512, Note_on_c, 0, 65, 120
2, 544604, Note_off_c, 0, 65, 100
2, 544608, Note_on_c, 0, 77, 120
2, 544700, Note_off_c, 0, 77, 100
2, 544704, Note_on_c, 0, 64, 120
2, 544796, Note_off_c, 0, 64, 100
2, 544800, Note_on_c, 0, 76, 120
2, 544892, Note_off_c, 0, 76, 100
2, 544896, Note_on_c, 0, 62, 120
2, 544988, Note_off_c, 0, 62, 100
2, 544992, Note_on_c, 0, 74, 120
2, 545084, Note_off_c, 0, 74, 100
2, 545088, Note_on_c, 0, 60, 120
2, 545180, Note_off_c, 0, 60, 100
2, 545184, Note_on_c, 0, 72, 120
2, 545276, Note_off_c, 0, 72, 100
2, 545280, Note_on_c, 0, 59, 120
2, 545372, Note_off_c, 0, 59, 100
2, 545376, Note_on_c, 0, 71, 120
2, 545468, Note_off_c, 0, 71, 100
2, 545472, Note_on_c, 0, 57, 120
2, 545564, Note_off_c, 0, 57, 100
2, 545568, Note_on_c, 0, 69, 120
2, 545660, Note_off_c, 0, 69, 100
2, 545664, Note_on_c, 0, 55, 120
2, 545756, Note_off_c, 0, 55, 100
2, 545760, Note_on_c, 0, 67, 120
2, 545852, Note_off_c, 0, 67, 100
2, 545856, Note_on_c, 0, 54, 120
2, 545948, Note_off_c, 0, 54, 100
2, 545952, Note_on_c, 0, 66, 120
2, 546044, Note_off_c, 0, 66, 100
2, 546048, Note_on_c, 0, 55, 120
2, 546140, Note_off_c, 0, 55, 100
2, 546144, Note_on_c, 0, 67, 120
2, 546236, Note_off_c, 0, 67, 100
2, 546240, Note_on_c, 0, 53, 120
2, 546332, Note_off_c, 0, 53, 100
2, 546336, Note_on_c, 0, 65, 120
2, 546428, Note_off_c, 0, 65, 100
2, 546432, Note_on_c, 0, 52, 120
2, 546524, Note_off_c, 0, 52, 100
2, 546528, Note_on_c, 0, 64, 120
2, 546620, Note_off_c, 0, 64, 100
2, 546624, Note_on_c, 0, 50, 120
2, 546716, Note_off_c, 0, 50, 100
2, 546720, Note_on_c, 0, 62, 120
2, 546812, Note_off_c, 0, 62, 100
2, 546816, Note_on_c, 0, 60, 120
2, 546816, Note_on_c, 0, 48, 120
2, 547196, Note_off_c, 0, 60, 100
2, 547196, Note_off_c, 0, 48, 100
2, 547584, Note_on_c, 0, 83, 120
2, 547584, Note_on_c, 0, 79, 120
2, 547584, Note_on_c, 0, 77, 120
2, 547584, Note_on_c, 0, 74, 120
2, 547584, Note_on_c, 0, 71, 120
2, 547964, Note_off_c, 0, 83, 100
2, 547964, Note_off_c, 0, 79, 100
2, 547964, Note_off_c, 0, 77, 100
2, 547964, Note_off_c, 0, 74, 100
2, 547964, Note_off_c, 0, 71, 100
2, 548352, Note_on_c, 0, 84, 120
2, 548352, Note_on_c, 0, 79, 120
2, 548352, Note_on_c, 0, 76, 120
2, 548352, Note_on_c, 0, 72, 120
2, 549116, Note_off_c, 0, 84, 100
2, 549116, Note_off_c, 0, 79, 100
2, 549116, Note_off_c, 0, 76, 100
2, 549116, Note_off_c, 0, 72, 100
2, 549888, Control_c, 0, 7, 0
2, 550272, Note_on_c, 0, 60, 1
2, 550460, Note_off_c, 0, 60, 100
2, 550460, End_track
3, 0, Start_track
3, 0, Title_t, "Left"
3, 0, Control_c, 1, 0, 0
3, 0, Program_c, 1, 0
3, 0, Control_c, 1, 7, 100
3, 0, Control_c, 1, 10, 53
3, 0, Control_c, 1, 91, 127
3, 0, Key_signature, 0, "major"
3, 0, Note_on_c, 1, 55, 80
3, 0, Note_on_c, 1, 48, 80
3, 1532, Note_off_c, 1, 55, 100
3, 1532, Note_off_c, 1, 48, 100
3, 1536, Note_on_c, 1, 55, 80
3, 1536, Note_on_c, 1, 43, 80
3, 1916, Note_off_c, 1, 55, 100
3, 1916, Note_off_c, 1, 43, 100
3, 1920, Note_on_c, 1, 55, 80
3, 1920, Note_on_c, 1, 43, 80
3, 2300, Note_off_c, 1, 55, 100
3, 2300, Note_off_c, 1, 43, 100
3, 3072, Note_on_c, 1, 59, 80
3, 3072, Note_on_c, 1, 43, 80
3, 4604, Note_off_c, 1, 59, 100
3, 4604, Note_off_c, 1, 43, 100
3, 4608, Note_on_c, 1, 55, 80
3, 4608, Note_on_c, 1, 48, 80
3, 4988, Note_off_c, 1, 55, 100
3, 4988, Note_off_c, 1, 48, 100
3, 4992, Note_on_c, 1, 55, 80
3, 4992, Note_on_c, 1, 48, 80
3, 5372, Note_off_c, 1, 55, 100
3, 5372, Note_off_c, 1, 48, 100
3, 6144, Note_on_c, 1, 55, 80
3, 6528, Note_on_c, 1, 48, 80
3, 6908, Note_off_c, 1, 48, 100
3, 6912, Note_on_c, 1, 50, 80
3, 7292, Note_off_c, 1, 50, 100
3, 7296, Note_on_c, 1, 43, 80
3, 7676, Note_off_c, 1, 43, 100
3, 8060, Note_off_c, 1, 55, 100
3, 8064, Note_on_c, 1, 48, 80
3, 8064, Note_on_c, 1, 55, 80
3, 8444, Note_off_c, 1, 48, 100
3, 8448, Note_on_c, 1, 50, 80
3, 8828, Note_off_c, 1, 50, 100
3, 8832, Note_on_c, 1, 43, 80
3, 9212, Note_off_c, 1, 43, 100
3, 9216, Note_on_c, 1, 52, 80
3, 9596, Note_off_c, 1, 52, 100
3, 9600, Note_on_c, 1, 48, 80
3, 9980, Note_off_c, 1, 55, 100
3, 9980, Note_off_c, 1, 48, 100
3, 9984, Note_on_c, 1, 53, 80
3, 9984, Note_on_c, 1, 57, 80
3, 10364, Note_off_c, 1, 53, 100
3, 10368, Note_on_c, 1, 50, 80
3, 10748, Note_off_c, 1, 57, 100
3, 10748, Note_off_c, 1, 50, 100
3, 10752, Note_on_c, 1, 55, 80
3, 11132, Note_off_c, 1, 55, 100
3, 11136, Note_on_c, 1, 43, 80
3, 11516, Note_off_c, 1, 43, 100
3, 11520, Note_on_c, 1, 48, 80
3, 11644, Note_off_c, 1, 48, 100
3, 11648, Note_on_c, 1, 55, 80
3, 11772, Note_off_c, 1, 55, 100
3, 11776, Note_on_c, 1, 54, 80
3, 11900, Note_off_c, 1, 54, 100
3, 11904, Note_on_c, 1, 53, 80
3, 12028, Note_off_c, 1, 53, 100
3, 12032, Note_on_c, 1, 52, 80
3, 12156, Note_off_c, 1, 52, 100
3, 12160, Note_on_c, 1, 50, 80
3, 12284, Note_off_c, 1, 50, 100
3, 12288, Note_on_c, 1, 48, 103
3, 13052, Note_off_c, 1, 48, 100
3, 13056, Note_on_c, 1, 47, 80
3, 13148, Note_off_c, 1, 47, 100
3, 13152, Note_on_c, 1, 48, 80
3, 13244, Note_off_c, 1, 48, 100
3, 13248, Note_on_c, 1, 47, 80
3, 13340, Note_off_c, 1, 47, 100
3, 13344, Note_on_c, 1, 48, 80
3, 13436, Note_off_c, 1, 48, 100
3, 13440, Note_on_c, 1, 50, 80
3, 13628, Note_off_c, 1, 50, 100
3, 13632, Note_on_c, 1, 47, 80
3, 13820, Note_off_c, 1, 47, 100
3, 13824, Note_on_c, 1, 43, 80
3, 14204, Note_off_c, 1, 43, 100
3, 14208, Note_on_c, 1, 48, 103
3, 14588, Note_off_c, 1, 48, 100
3, 14592, Note_on_c, 1, 47, 80
3, 14684, Note_off_c, 1, 47, 100
3, 14688, Note_on_c, 1, 48, 80
3, 14780, Note_off_c, 1, 48, 100
3, 14784, Note_on_c, 1, 47, 80
3, 14876, Note_off_c, 1, 47, 100
3, 14880, Note_on_c, 1, 48, 80
3, 14972, Note_off_c, 1, 48, 100
3, 14976, Note_on_c, 1, 50, 80
3, 15164, Note_off_c, 1, 50, 100
3, 15168, Note_on_c, 1, 47, 80
3, 15356, Note_off_c, 1, 47, 100
3, 15360, Note_on_c, 1, 43, 80
3, 15740, Note_off_c, 1, 43, 100
3, 15744, Note_on_c, 1, 48, 80
3, 16508, Note_off_c, 1, 48, 100
3, 16512, Note_on_c, 1, 41, 86
3, 17276, Note_off_c, 1, 41, 100
3, 17280, Note_on_c, 1, 43, 93
3, 18044, Note_off_c, 1, 43, 100
3, 18048, Note_on_c, 1, 43, 99
3, 18048, Note_on_c, 1, 31, 99
3, 18428, Note_off_c, 1, 43, 100
3, 18428, Note_off_c, 1, 31, 100
3, 18432, Note_on_c, 1, 48, 110
3, 18432, Note_on_c, 1, 43, 110
3, 18432, Note_on_c, 1, 40, 110
3, 18432, Note_on_c, 1, 36, 110
3, 18812, Note_off_c, 1, 48, 100
3, 18812, Note_off_c, 1, 43, 100
3, 18812, Note_off_c, 1, 40, 100
3, 18812, Note_off_c, 1, 36, 100
3, 24576, Note_on_c, 1, 48, 110
3, 24576, Note_on_c, 1, 43, 110
3, 24576, Note_on_c, 1, 40, 110
3, 24576, Note_on_c, 1, 36, 110
3, 24956, Note_off_c, 1, 48, 100
3, 24956, Note_off_c, 1, 43, 100
3, 24956, Note_off_c, 1, 40, 100
3, 24956, Note_off_c, 1, 36, 100
3, 29376, Note_on_c, 1, 50, 110
3, 29756, Note_off_c, 1, 50, 100
3, 29760, Note_on_c, 1, 52, 110
3, 29948, Note_off_c, 1, 52, 100
3, 29952, Note_on_c, 1, 53, 110
3, 30332, Note_off_c, 1, 53, 100
3, 30336, Note_on_c, 1, 54, 110
3, 30716, Note_off_c, 1, 54, 100
3, 30720, Note_on_c, 1, 43, 110
3, 30812, Note_off_c, 1, 43, 100
3, 30816, Note_on_c, 1, 55, 110
3, 30908, Note_off_c, 1, 55, 100
3, 30912, Note_on_c, 1, 54, 110
3, 31004, Note_off_c, 1, 54, 100
3, 31008, Note_on_c, 1, 55, 110
3, 31100, Note_off_c, 1, 55, 100
3, 31104, Note_on_c, 1, 57, 110
3, 31196, Note_off_c, 1, 57, 100
3, 31200, Note_on_c, 1, 55, 110
3, 31292, Note_off_c, 1, 55, 100
3, 31296, Note_on_c, 1, 54, 110
3, 31388, Note_off_c, 1, 54, 100
3, 31392, Note_on_c, 1, 55, 110
3, 31484, Note_off_c, 1, 55, 100
3, 31488, Note_on_c, 1, 53, 110
3, 31580, Note_off_c, 1, 53, 100
3, 31584, Note_on_c, 1, 55, 110
3, 31676, Note_off_c, 1, 55, 100
3, 31680, Note_on_c, 1, 50, 110
3, 31772, Note_off_c, 1, 50, 100
3, 31776, Note_on_c, 1, 55, 110
3, 31868, Note_off_c, 1, 55, 100
3, 31872, Note_on_c, 1, 53, 110
3, 31964, Note_off_c, 1, 53, 100
3, 31968, Note_on_c, 1, 55, 110
3, 32060, Note_off_c, 1, 55, 100
3, 32064, Note_on_c, 1, 50, 110
3, 32156, Note_off_c, 1, 50, 100
3, 32160, Note_on_c, 1, 55, 110
3, 32252, Note_off_c, 1, 55, 100
3, 32256, Note_on_c, 1, 52, 100
3, 32348, Note_off_c, 1, 52, 100
3, 32352, Note_on_c, 1, 55, 100
3, 32444, Note_off_c, 1, 55, 100
3, 32448, Note_on_c, 1, 48, 100
3, 32540, Note_off_c, 1, 48, 100
3, 32544, Note_on_c, 1, 55, 100
3, 32636, Note_off_c, 1, 55, 100
3, 32640, Note_on_c, 1, 52, 100
3, 32732, Note_off_c, 1, 52, 100
3, 32736, Note_on_c, 1, 55, 100
3, 32828, Note_off_c, 1, 55, 100
3, 32832, Note_on_c, 1, 48, 100
3, 32924, Note_off_c, 1, 48, 100
3, 32928, Note_on_c, 1, 55, 100
3, 33020, Note_off_c, 1, 55, 100
3, 33024, Note_on_c, 1, 47, 100
3, 33116, Note_off_c, 1, 47, 100
3, 33120, Note_on_c, 1, 55, 100
3, 33212, Note_off_c, 1, 55, 100
3, 33216, Note_on_c, 1, 54, 100
3, 33308, Note_off_c, 1, 54, 100
3, 33312, Note_on_c, 1, 55, 100
3, 33404, Note_off_c, 1, 55, 100
3, 33408, Note_on_c, 1, 48, 100
3, 33500, Note_off_c, 1, 48, 100
3, 33504, Note_on_c, 1, 55, 100
3, 33596, Note_off_c, 1, 55, 100
3, 33600, Note_on_c, 1, 54, 100
3, 33692, Note_off_c, 1, 54, 100
3, 33696, Note_on_c, 1, 55, 100
3, 33788, Note_off_c, 1, 55, 100
3, 33792, Note_on_c, 1, 43, 110
3, 33884, Note_off_c, 1, 43, 100
3, 33888, Note_on_c, 1, 55, 110
3, 33980, Note_off_c, 1, 55, 100
3, 33984, Note_on_c, 1, 54, 110
3, 34076, Note_off_c, 1, 54, 100
3, 34080, Note_on_c, 1, 55, 110
3, 34172, Note_off_c, 1, 55, 100
3, 34176, Note_on_c, 1, 57, 110
3, 34268, Note_off_c, 1, 57, 100
3, 34272, Note_on_c, 1, 55, 110
3, 34364, Note_off_c, 1, 55, 100
3, 34368, Note_on_c, 1, 54, 110
3, 34460, Note_off_c, 1, 54, 100
3, 34464, Note_on_c, 1, 55, 110
3, 34556, Note_off_c, 1, 55, 100
3, 34560, Note_on_c, 1, 53, 110
3, 34652, Note_off_c, 1, 53, 100
3, 34656, Note_on_c, 1, 55, 110
3, 34748, Note_off_c, 1, 55, 100
3, 34752, Note_on_c, 1, 50, 110
3, 34844, Note_off_c, 1, 50, 100
3, 34848, Note_on_c, 1, 55, 110
3, 34940, Note_off_c, 1, 55, 100
3, 34944, Note_on_c, 1, 53, 110
3, 35036, Note_off_c, 1, 53, 100
3, 35040, Note_on_c, 1, 55, 110
3, 35132, Note_off_c, 1, 55, 100
3, 35136, Note_on_c, 1, 50, 110
3, 35228, Note_off_c, 1, 50, 100
3, 35232, Note_on_c, 1, 55, 110
3, 35324, Note_off_c, 1, 55, 100
3, 35328, Note_on_c, 1, 48, 110
3, 35420, Note_off_c, 1, 48, 100
3, 35424, Note_on_c, 1, 55, 110
3, 35516, Note_off_c, 1, 55, 100
3, 35520, Note_on_c, 1, 52, 110
3, 35612, Note_off_c, 1, 52, 100
3, 35616, Note_on_c, 1, 55, 110
3, 35708, Note_off_c, 1, 55, 100
3, 35712, Note_on_c, 1, 48, 110
3, 35804, Note_off_c, 1, 48, 100
3, 35808, Note_on_c, 1, 55, 110
3, 35900, Note_off_c, 1, 55, 100
3, 35904, Note_on_c, 1, 52, 110
3, 35996, Note_off_c, 1, 52, 100
3, 36000, Note_on_c, 1, 55, 110
3, 36092, Note_off_c, 1, 55, 100
3, 36096, Note_on_c, 1, 47, 110
3, 36188, Note_off_c, 1, 47, 100
3, 36192, Note_on_c, 1, 55, 110
3, 36284, Note_off_c, 1, 55, 100
3, 36288, Note_on_c, 1, 54, 110
3, 36380, Note_off_c, 1, 54, 100
3, 36384, Note_on_c, 1, 55, 110
3, 36476, Note_off_c, 1, 55, 100
3, 36480, Note_on_c, 1, 48, 110
3, 36572, Note_off_c, 1, 48, 100
3, 36576, Note_on_c, 1, 55, 110
3, 36668, Note_off_c, 1, 55, 100
3, 36672, Note_on_c, 1, 54, 110
3, 36764, Note_off_c, 1, 54, 100
3, 36768, Note_on_c, 1, 55, 110
3, 36860, Note_off_c, 1, 55, 100
3, 37728, Note_on_c, 1, 55, 120
3, 37820, Note_off_c, 1, 55, 100
3, 37824, Note_on_c, 1, 54, 120
3, 37916, Note_off_c, 1, 54, 100
3, 37920, Note_on_c, 1, 52, 120
3, 38012, Note_off_c, 1, 52, 100
3, 38016, Note_on_c, 1, 50, 120
3, 38108, Note_off_c, 1, 50, 100
3, 38112, Note_on_c, 1, 48, 120
3, 38204, Note_off_c, 1, 48, 100
3, 38208, Note_on_c, 1, 47, 120
3, 38300, Note_off_c, 1, 47, 100
3, 38304, Note_on_c, 1, 45, 120
3, 38396, Note_off_c, 1, 45, 100
3, 38400, Note_on_c, 1, 43, 120
3, 38780, Note_off_c, 1, 43, 100
3, 39936, Note_on_c, 1, 55, 80
3, 40124, Note_off_c, 1, 55, 100
3, 40128, Note_on_c, 1, 58, 80
3, 40316, Note_off_c, 1, 58, 100
3, 40320, Note_on_c, 1, 62, 80
3, 40508, Note_off_c, 1, 62, 100
3, 40512, Note_on_c, 1, 58, 80
3, 40700, Note_off_c, 1, 58, 100
3, 40704, Note_on_c, 1, 62, 80
3, 40892, Note_off_c, 1, 62, 100
3, 40896, Note_on_c, 1, 58, 80
3, 41084, Note_off_c, 1, 58, 100
3, 41088, Note_on_c, 1, 55, 80
3, 41276, Note_off_c, 1, 55, 100
3, 41280, Note_on_c, 1, 58, 80
3, 41468, Note_off_c, 1, 58, 100
3, 41472, Note_on_c, 1, 55, 80
3, 41660, Note_off_c, 1, 55, 100
3, 41664, Note_on_c, 1, 57, 80
3, 41852, Note_off_c, 1, 57, 100
3, 41856, Note_on_c, 1, 64, 80
3, 42044, Note_off_c, 1, 64, 100
3, 42048, Note_on_c, 1, 57, 80
3, 42236, Note_off_c, 1, 57, 100
3, 42240, Note_on_c, 1, 64, 80
3, 42428, Note_off_c, 1, 64, 100
3, 42432, Note_on_c, 1, 57, 80
3, 42620, Note_off_c, 1, 57, 100
3, 42624, Note_on_c, 1, 55, 80
3, 42812, Note_off_c, 1, 55, 100
3, 42816, Note_on_c, 1, 57, 80
3, 43004, Note_off_c, 1, 57, 100
3, 43008, Note_on_c, 1, 54, 80
3, 43196, Note_off_c, 1, 54, 100
3, 43200, Note_on_c, 1, 57, 80
3, 43388, Note_off_c, 1, 57, 100
3, 43392, Note_on_c, 1, 62, 80
3, 43580, Note_off_c, 1, 62, 100
3, 43584, Note_on_c, 1, 57, 80
3, 43772, Note_off_c, 1, 57, 100
3, 43776, Note_on_c, 1, 62, 80
3, 43964, Note_off_c, 1, 62, 100
3, 43968, Note_on_c, 1, 57, 80
3, 44156, Note_off_c, 1, 57, 100
3, 44160, Note_on_c, 1, 54, 80
3, 44348, Note_off_c, 1, 54, 100
3, 44352, Note_on_c, 1, 57, 80
3, 44540, Note_off_c, 1, 57, 100
3, 44544, Note_on_c, 1, 53, 80
3, 44732, Note_off_c, 1, 53, 100
3, 44736, Note_on_c, 1, 55, 80
3, 44924, Note_off_c, 1, 55, 100
3, 44928, Note_on_c, 1, 62, 80
3, 45116, Note_off_c, 1, 62, 100
3, 45120, Note_on_c, 1, 55, 80
3, 45308, Note_off_c, 1, 55, 100
3, 45312, Note_on_c, 1, 62, 80
3, 45500, Note_off_c, 1, 62, 100
3, 45504, Note_on_c, 1, 55, 80
3, 45692, Note_off_c, 1, 55, 100
3, 45696, Note_on_c, 1, 53, 80
3, 45884, Note_off_c, 1, 53, 100
3, 45888, Note_on_c, 1, 55, 80
3, 46076, Note_off_c, 1, 55, 100
3, 46080, Note_on_c, 1, 51, 80
3, 46268, Note_off_c, 1, 51, 100
3, 46272, Note_on_c, 1, 55, 80
3, 46460, Note_off_c, 1, 55, 100
3, 46464, Note_on_c, 1, 60, 80
3, 46652, Note_off_c, 1, 60, 100
3, 46656, Note_on_c, 1, 55, 80
3, 46844, Note_off_c, 1, 55, 100
3, 46848, Note_on_c, 1, 50, 80
3, 47036, Note_off_c, 1, 50, 100
3, 47040, Note_on_c, 1, 55, 80
3, 47228, Note_off_c, 1, 55, 100
3, 47232, Note_on_c, 1, 58, 80
3, 47420, Note_off_c, 1, 58, 100
3, 47424, Note_on_c, 1, 55, 80
3, 47612, Note_off_c, 1, 55, 100
3, 47616, Note_on_c, 1, 49, 80
3, 47804, Note_off_c, 1, 49, 100
3, 47808, Note_on_c, 1, 52, 80
3, 47996, Note_off_c, 1, 52, 100
3, 48000, Note_on_c, 1, 57, 80
3, 48188, Note_off_c, 1, 57, 100
3, 48192, Note_on_c, 1, 52, 80
3, 48380, Note_off_c, 1, 52, 100
3, 48384, Note_on_c, 1, 57, 80
3, 48572, Note_off_c, 1, 57, 100
3, 48576, Note_on_c, 1, 52, 80
3, 48764, Note_off_c, 1, 52, 100
3, 48768, Note_on_c, 1, 49, 80
3, 48956, Note_off_c, 1, 49, 100
3, 48960, Note_on_c, 1, 52, 80
3, 49148, Note_off_c, 1, 52, 100
3, 49152, Note_on_c, 1, 50, 80
3, 49340, Note_off_c, 1, 50, 100
3, 49344, Note_on_c, 1, 53, 80
3, 49532, Note_off_c, 1, 53, 100
3, 49536, Note_on_c, 1, 57, 80
3, 49724, Note_off_c, 1, 57, 100
3, 49728, Note_on_c, 1, 53, 80
3, 49916, Note_off_c, 1, 53, 100
3, 49920, Note_on_c, 1, 57, 80
3, 50108, Note_off_c, 1, 57, 100
3, 50112, Note_on_c, 1, 53, 80
3, 50300, Note_off_c, 1, 53, 100
3, 50304, Note_on_c, 1, 50, 80
3, 50492, Note_off_c, 1, 50, 100
3, 50496, Note_on_c, 1, 53, 80
3, 50684, Note_off_c, 1, 53, 100
3, 50688, Note_on_c, 1, 50, 80
3, 50876, Note_off_c, 1, 50, 100
3, 50880, Note_on_c, 1, 52, 80
3, 51068, Note_off_c, 1, 52, 100
3, 51072, Note_on_c, 1, 59, 80
3, 51260, Note_off_c, 1, 59, 100
3, 51264, Note_on_c, 1, 52, 80
3, 51452, Note_off_c, 1, 52, 100
3, 51456, Note_on_c, 1, 59, 80
3, 51644, Note_off_c, 1, 59, 100
3, 51648, Note_on_c, 1, 52, 80
3, 51836, Note_off_c, 1, 52, 100
3, 51840, Note_on_c, 1, 50, 80
3, 52028, Note_off_c, 1, 50, 100
3, 52032, Note_on_c, 1, 52, 80
3, 52220, Note_off_c, 1, 52, 100
3, 52224, Note_on_c, 1, 49, 80
3, 52412, Note_off_c, 1, 49, 100
3, 52416, Note_on_c, 1, 52, 80
3, 52604, Note_off_c, 1, 52, 100
3, 52608, Note_on_c, 1, 57, 80
3, 52796, Note_off_c, 1, 57, 100
3, 52800, Note_on_c, 1, 52, 80
3, 52988, Note_off_c, 1, 52, 100
3, 52992, Note_on_c, 1, 57, 80
3, 53180, Note_off_c, 1, 57, 100
3, 53184, Note_on_c, 1, 52, 80
3, 53372, Note_off_c, 1, 52, 100
3, 53376, Note_on_c, 1, 49, 80
3, 53564, Note_off_c, 1, 49, 100
3, 53568, Note_on_c, 1, 52, 80
3, 53756, Note_off_c, 1, 52, 100
3, 53760, Note_on_c, 1, 48, 80
3, 53948, Note_off_c, 1, 48, 100
3, 53952, Note_on_c, 1, 50, 80
3, 54140, Note_off_c, 1, 50, 100
3, 54144, Note_on_c, 1, 57, 80
3, 54332, Note_off_c, 1, 57, 100
3, 54336, Note_on_c, 1, 50, 80
3, 54524, Note_off_c, 1, 50, 100
3, 54528, Note_on_c, 1, 57, 80
3, 54716, Note_off_c, 1, 57, 100
3, 54720, Note_on_c, 1, 50, 80
3, 54908, Note_off_c, 1, 50, 100
3, 54912, Note_on_c, 1, 48, 80
3, 55100, Note_off_c, 1, 48, 100
3, 55104, Note_on_c, 1, 50, 80
3, 55292, Note_off_c, 1, 50, 100
3, 55296, Note_on_c, 1, 46, 80
3, 55484, Note_off_c, 1, 46, 100
3, 55488, Note_on_c, 1, 50, 80
3, 55676, Note_off_c, 1, 50, 100
3, 55680, Note_on_c, 1, 55, 80
3, 55868, Note_off_c, 1, 55, 100
3, 55872, Note_on_c, 1, 50, 80
3, 56060, Note_off_c, 1, 50, 100
3, 56064, Note_on_c, 1, 45, 80
3, 56252, Note_off_c, 1, 45, 100
3, 56256, Note_on_c, 1, 50, 80
3, 56444, Note_off_c, 1, 50, 100
3, 56448, Note_on_c, 1, 53, 80
3, 56636, Note_off_c, 1, 53, 100
3, 56640, Note_on_c, 1, 50, 80
3, 56828, Note_off_c, 1, 50, 100
3, 56832, Note_on_c, 1, 44, 80
3, 57020, Note_off_c, 1, 44, 100
3, 57024, Note_on_c, 1, 47, 80
3, 57212, Note_off_c, 1, 47, 100
3, 57216, Note_on_c, 1, 52, 80
3, 57404, Note_off_c, 1, 52, 100
3, 57408, Note_on_c, 1, 56, 80
3, 57596, Note_off_c, 1, 56, 100
3, 57600, Note_on_c, 1, 59, 80
3, 57788, Note_off_c, 1, 59, 100
3, 57792, Note_on_c, 1, 56, 80
3, 57980, Note_off_c, 1, 56, 100
3, 57984, Note_on_c, 1, 52, 80
3, 58172, Note_off_c, 1, 52, 100
3, 58176, Note_on_c, 1, 56, 80
3, 58364, Note_off_c, 1, 56, 100
3, 58368, Note_on_c, 1, 57, 110
3, 58556, Note_off_c, 1, 57, 100
3, 58560, Note_on_c, 1, 60, 110
3, 58560, Note_on_c, 1, 64, 110
3, 58748, Note_off_c, 1, 60, 100
3, 58748, Note_off_c, 1, 64, 100
3, 58752, Note_on_c, 1, 60, 110
3, 58752, Note_on_c, 1, 64, 110
3, 58940, Note_off_c, 1, 60, 100
3, 58940, Note_off_c, 1, 64, 100
3, 58944, Note_on_c, 1, 60, 110
3, 58944, Note_on_c, 1, 64, 110
3, 59132, Note_off_c, 1, 60, 100
3, 59132, Note_off_c, 1, 64, 100
3, 59136, Note_on_c, 1, 60, 110
3, 59136, Note_on_c, 1, 64, 110
3, 59324, Note_off_c, 1, 60, 100
3, 59324, Note_off_c, 1, 64, 100
3, 59328, Note_on_c, 1, 60, 110
3, 59328, Note_on_c, 1, 64, 110
3, 59516, Note_off_c, 1, 60, 100
3, 59516, Note_off_c, 1, 64, 100
3, 59520, Note_on_c, 1, 62, 110
3, 59520, Note_on_c, 1, 64, 110
3, 59708, Note_off_c, 1, 62, 100
3, 59708, Note_off_c, 1, 64, 100
3, 59712, Note_on_c, 1, 62, 110
3, 59712, Note_on_c, 1, 64, 110
3, 59900, Note_off_c, 1, 62, 100
3, 59900, Note_off_c, 1, 64, 100
3, 59904, Note_on_c, 1, 57, 110
3, 60092, Note_off_c, 1, 57, 100
3, 60096, Note_on_c, 1, 60, 110
3, 60096, Note_on_c, 1, 64, 110
3, 60284, Note_off_c, 1, 60, 100
3, 60284, Note_off_c, 1, 64, 100
3, 60288, Note_on_c, 1, 60, 110
3, 60288, Note_on_c, 1, 64, 110
3, 60476, Note_off_c, 1, 60, 100
3, 60476, Note_off_c, 1, 64, 100
3, 60480, Note_on_c, 1, 60, 110
3, 60480, Note_on_c, 1, 64, 110
3, 60668, Note_off_c, 1, 60, 100
3, 60668, Note_off_c, 1, 64, 100
3, 60672, Note_on_c, 1, 50, 110
3, 60860, Note_off_c, 1, 50, 100
3, 60864, Note_on_c, 1, 60, 110
3, 60864, Note_on_c, 1, 62, 110
3, 61052, Note_off_c, 1, 60, 100
3, 61052, Note_off_c, 1, 62, 100
3, 61056, Note_on_c, 1, 60, 110
3, 61056, Note_on_c, 1, 62, 110
3, 61244, Note_off_c, 1, 60, 100
3, 61244, Note_off_c, 1, 62, 100
3, 61248, Note_on_c, 1, 60, 110
3, 61248, Note_on_c, 1, 62, 110
3, 61436, Note_off_c, 1, 60, 100
3, 61436, Note_off_c, 1, 62, 100
3, 61440, Note_on_c, 1, 55, 110
3, 61628, Note_off_c, 1, 55, 100
3, 61632, Note_on_c, 1, 58, 110
3, 61632, Note_on_c, 1, 62, 110
3, 61820, Note_off_c, 1, 58, 100
3, 61820, Note_off_c, 1, 62, 100
3, 61824, Note_on_c, 1, 58, 110
3, 61824, Note_on_c, 1, 62, 110
3, 62012, Note_off_c, 1, 58, 100
3, 62012, Note_off_c, 1, 62, 100
3, 62016, Note_on_c, 1, 58, 110
3, 62016, Note_on_c, 1, 62, 110
3, 62204, Note_off_c, 1, 58, 100
3, 62204, Note_off_c, 1, 62, 100
3, 62208, Note_on_c, 1, 58, 110
3, 62208, Note_on_c, 1, 62, 110
3, 62396, Note_off_c, 1, 58, 100
3, 62396, Note_off_c, 1, 62, 100
3, 62400, Note_on_c, 1, 58, 110
3, 62400, Note_on_c, 1, 62, 110
3, 62588, Note_off_c, 1, 58, 100
3, 62588, Note_off_c, 1, 62, 100
3, 62592, Note_on_c, 1, 60, 110
3, 62592, Note_on_c, 1, 62, 110
3, 62780, Note_off_c, 1, 60, 100
3, 62780, Note_off_c, 1, 62, 100
3, 62784, Note_on_c, 1, 60, 110
3, 62784, Note_on_c, 1, 62, 110
3, 62972, Note_off_c, 1, 60, 100
3, 62972, Note_off_c, 1, 62, 100
3, 62976, Note_on_c, 1, 55, 110
3, 63164, Note_off_c, 1, 55, 100
3, 63168, Note_on_c, 1, 58, 110
3, 63168, Note_on_c, 1, 62, 110
3, 63356, Note_off_c, 1, 58, 100
3, 63356, Note_off_c, 1, 62, 100
3, 63360, Note_on_c, 1, 58, 110
3, 63360, Note_on_c, 1, 62, 110
3, 63548, Note_off_c, 1, 58, 100
3, 63548, Note_off_c, 1, 62, 100
3, 63552, Note_on_c, 1, 58, 110
3, 63552, Note_on_c, 1, 62, 110
3, 63740, Note_off_c, 1, 58, 100
3, 63740, Note_off_c, 1, 62, 100
3, 63744, Note_on_c, 1, 51, 110
3, 63932, Note_off_c, 1, 51, 100
3, 63936, Note_on_c, 1, 63, 110
3, 64124, Note_off_c, 1, 63, 100
3, 64128, Note_on_c, 1, 63, 110
3, 64316, Note_off_c, 1, 63, 100
3, 64320, Note_on_c, 1, 63, 110
3, 64508, Note_off_c, 1, 63, 100
3, 64512, Note_on_c, 1, 62, 110
3, 64512, Note_on_c, 1, 50, 110
3, 64700, Note_off_c, 1, 62, 100
3, 64700, Note_off_c, 1, 50, 100
3, 64704, Note_on_c, 1, 54, 110
3, 64704, Note_on_c, 1, 57, 110
3, 64892, Note_off_c, 1, 54, 100
3, 64892, Note_off_c, 1, 57, 100
3, 64896, Note_on_c, 1, 57, 110
3, 64896, Note_on_c, 1, 54, 110
3, 65084, Note_off_c, 1, 57, 100
3, 65084, Note_off_c, 1, 54, 100
3, 65088, Note_on_c, 1, 54, 110
3, 65088, Note_on_c, 1, 57, 110
3, 65276, Note_off_c, 1, 54, 100
3, 65276, Note_off_c, 1, 57, 100
3, 65280, Note_on_c, 1, 54, 110
3, 65280, Note_on_c, 1, 57, 110
3, 65468, Note_off_c, 1, 54, 100
3, 65468, Note_off_c, 1, 57, 100
3, 65472, Note_on_c, 1, 54, 110
3, 65472, Note_on_c, 1, 57, 110
3, 65660, Note_off_c, 1, 54, 100
3, 65660, Note_off_c, 1, 57, 100
3, 65664, Note_on_c, 1, 50, 110
3, 65664, Note_on_c, 1, 64, 110
3, 65852, Note_off_c, 1, 50, 100
3, 65852, Note_off_c, 1, 64, 100
3, 65856, Note_on_c, 1, 55, 110
3, 65856, Note_on_c, 1, 57, 110
3, 66044, Note_off_c, 1, 55, 100
3, 66044, Note_off_c, 1, 57, 100
3, 66048, Note_on_c, 1, 62, 110
3, 66048, Note_on_c, 1, 50, 110
3, 66236, Note_off_c, 1, 62, 100
3, 66236, Note_off_c, 1, 50, 100
3, 66240, Note_on_c, 1, 54, 110
3, 66240, Note_on_c, 1, 57, 110
3, 66428, Note_off_c, 1, 54, 100
3, 66428, Note_off_c, 1, 57, 100
3, 66432, Note_on_c, 1, 57, 110
3, 66432, Note_on_c, 1, 54, 110
3, 66620, Note_off_c, 1, 57, 100
3, 66620, Note_off_c, 1, 54, 100
3, 66624, Note_on_c, 1, 54, 110
3, 66624, Note_on_c, 1, 57, 110
3, 66812, Note_off_c, 1, 54, 100
3, 66812, Note_off_c, 1, 57, 100
3, 66816, Note_on_c, 1, 54, 110
3, 66816, Note_on_c, 1, 57, 110
3, 67004, Note_off_c, 1, 54, 100
3, 67004, Note_off_c, 1, 57, 100
3, 67008, Note_on_c, 1, 54, 110
3, 67008, Note_on_c, 1, 57, 110
3, 67196, Note_off_c, 1, 54, 100
3, 67196, Note_off_c, 1, 57, 100
3, 67200, Note_on_c, 1, 50, 110
3, 67388, Note_off_c, 1, 50, 100
3, 67392, Note_on_c, 1, 55, 110
3, 67392, Note_on_c, 1, 57, 110
3, 67580, Note_off_c, 1, 55, 100
3, 67580, Note_off_c, 1, 57, 100
3, 67584, Note_on_c, 1, 57, 80
3, 67584, Note_on_c, 1, 54, 80
3, 67584, Note_on_c, 1, 50, 80
3, 67964, Note_off_c, 1, 57, 100
3, 67964, Note_off_c, 1, 54, 100
3, 67964, Note_off_c, 1, 50, 100
3, 70656, Note_on_c, 1, 50, 80
3, 70656, Note_on_c, 1, 43, 80
3, 72188, Note_off_c, 1, 50, 100
3, 72188, Note_off_c, 1, 43, 100
3, 72192, Note_on_c, 1, 47, 80
3, 72384, Note_on_c, 1, 50, 80
3, 72572, Note_off_c, 1, 50, 100
3, 72576, Note_on_c, 1, 49, 80
3, 72764, Note_off_c, 1, 49, 100
3, 72768, Note_on_c, 1, 50, 80
3, 72956, Note_off_c, 1, 50, 100
3, 72960, Note_on_c, 1, 55, 80
3, 73148, Note_off_c, 1, 55, 100
3, 73152, Note_on_c, 1, 50, 80
3, 73340, Note_off_c, 1, 50, 100
3, 73344, Note_on_c, 1, 59, 80
3, 73532, Note_off_c, 1, 59, 100
3, 73536, Note_on_c, 1, 50, 80
3, 73724, Note_off_c, 1, 47, 100
3, 73724, Note_off_c, 1, 50, 100
3, 73728, Note_on_c, 1, 48, 80
3, 73728, Note_on_c, 1, 60, 80
3, 74492, Note_off_c, 1, 60, 100
3, 74496, Note_on_c, 1, 57, 80
3, 74876, Note_off_c, 1, 57, 100
3, 74880, Note_on_c, 1, 54, 80
3, 75260, Note_off_c, 1, 48, 100
3, 75260, Note_off_c, 1, 54, 100
3, 75264, Note_on_c, 1, 45, 80
3, 75456, Note_on_c, 1, 50, 80
3, 75644, Note_off_c, 1, 50, 100
3, 75648, Note_on_c, 1, 49, 80
3, 75836, Note_off_c, 1, 49, 100
3, 75840, Note_on_c, 1, 50, 80
3, 76028, Note_off_c, 1, 50, 100
3, 76032, Note_on_c, 1, 54, 80
3, 76220, Note_off_c, 1, 54, 100
3, 76224, Note_on_c, 1, 50, 80
3, 76412, Note_off_c, 1, 50, 100
3, 76416, Note_on_c, 1, 57, 80
3, 76604, Note_off_c, 1, 57, 100
3, 76608, Note_on_c, 1, 50, 80
3, 76796, Note_off_c, 1, 45, 100
3, 76796, Note_off_c, 1, 50, 100
3, 76800, Note_on_c, 1, 59, 80
3, 76800, Note_on_c, 1, 47, 80
3, 78332, Note_off_c, 1, 59, 100
3, 78332, Note_off_c, 1, 47, 100
3, 78336, Note_on_c, 1, 55, 94
3, 78336, Note_on_c, 1, 52, 94
3, 78336, Note_on_c, 1, 50, 94
3, 78336, Note_on_c, 1, 43, 94
3, 79868, Note_off_c, 1, 55, 100
3, 79868, Note_off_c, 1, 52, 100
3, 79868, Note_off_c, 1, 50, 100
3, 79868, Note_off_c, 1, 43, 100
3, 79872, Note_on_c, 1, 55, 96
3, 79872, Note_on_c, 1, 52, 96
3, 79872, Note_on_c, 1, 49, 96
3, 79872, Note_on_c, 1, 45, 96
3, 81404, Note_off_c, 1, 55, 100
3, 81404, Note_off_c, 1, 52, 100
3, 81404, Note_off_c, 1, 49, 100
3, 81404, Note_off_c, 1, 45, 100
3, 81408, Note_on_c, 1, 54, 88
3, 81408, Note_on_c, 1, 50, 88
3, 81788, Note_off_c, 1, 54, 100
3, 81788, Note_off_c, 1, 50, 100
3, 82944, Note_on_c, 1, 43, 80
3, 83132, Note_off_c, 1, 43, 100
3, 83136, Note_on_c, 1, 50, 80
3, 83324, Note_off_c, 1, 50, 100
3, 83328, Note_on_c, 1, 49, 80
3, 83516, Note_off_c, 1, 49, 100
3, 83520, Note_on_c, 1, 50, 80
3, 83708, Note_off_c, 1, 50, 100
3, 83712, Note_on_c, 1, 55, 80
3, 83900, Note_off_c, 1, 55, 100
3, 83904, Note_on_c, 1, 50, 80
3, 84092, Note_off_c, 1, 50, 100
3, 84096, Note_on_c, 1, 59, 80
3, 84284, Note_off_c, 1, 59, 100
3, 84288, Note_on_c, 1, 50, 80
3, 84476, Note_off_c, 1, 50, 100
3, 84480, Note_on_c, 1, 62, 80
3, 84480, Note_on_c, 1, 47, 80
3, 85244, Note_off_c, 1, 62, 100
3, 85248, Note_on_c, 1, 59, 80
3, 85628, Note_off_c, 1, 59, 100
3, 85632, Note_on_c, 1, 55, 80
3, 86012, Note_off_c, 1, 47, 100
3, 86012, Note_off_c, 1, 55, 100
3, 86016, Note_on_c, 1, 45, 80
3, 86016, Note_on_c, 1, 54, 80
3, 86204, Note_off_c, 1, 54, 100
3, 86208, Note_on_c, 1, 50, 80
3, 86396, Note_off_c, 1, 50, 100
3, 86400, Note_on_c, 1, 49, 80
3, 86588, Note_off_c, 1, 49, 100
3, 86592, Note_on_c, 1, 50, 80
3, 86780, Note_off_c, 1, 50, 100
3, 86784, Note_on_c, 1, 54, 80
3, 86972, Note_off_c, 1, 54, 100
3, 86976, Note_on_c, 1, 50, 80
3, 87164, Note_off_c, 1, 50, 100
3, 87168, Note_on_c, 1, 57, 80
3, 87356, Note_off_c, 1, 57, 100
3, 87360, Note_on_c, 1, 50, 80
3, 87548, Note_off_c, 1, 45, 100
3, 87548, Note_off_c, 1, 50, 100
3, 87552, Note_on_c, 1, 48, 80
3, 87552, Note_on_c, 1, 60, 80
3, 88316, Note_off_c, 1, 60, 100
3, 88320, Note_on_c, 1, 57, 80
3, 88700, Note_off_c, 1, 57, 100
3, 88704, Note_on_c, 1, 54, 80
3, 89084, Note_off_c, 1, 48, 100
3, 89084, Note_off_c, 1, 54, 100
3, 89088, Note_on_c, 1, 55, 80
3, 89088, Note_on_c, 1, 50, 80
3, 89088, Note_on_c, 1, 47, 80
3, 90620, Note_off_c, 1, 55, 100
3, 90620, Note_off_c, 1, 50, 100
3, 90620, Note_off_c, 1, 47, 100
3, 90624, Note_on_c, 1, 59, 110
3, 90624, Note_on_c, 1, 53, 110
3, 90624, Note_on_c, 1, 50, 110
3, 90624, Note_on_c, 1, 43, 110
3, 92156, Note_off_c, 1, 59, 100
3, 92156, Note_off_c, 1, 53, 100
3, 92156, Note_off_c, 1, 50, 100
3, 92156, Note_off_c, 1, 43, 100
3, 92160, Note_on_c, 1, 60, 110
3, 92160, Note_on_c, 1, 55, 110
3, 92160, Note_on_c, 1, 52, 110
3, 92160, Note_on_c, 1, 48, 110
3, 92540, Note_off_c, 1, 60, 100
3, 92540, Note_off_c, 1, 55, 100
3, 92540, Note_off_c, 1, 52, 100
3, 92540, Note_off_c, 1, 48, 100
3, 92544, Note_on_c, 1, 64, 110
3, 92544, Note_on_c, 1, 60, 110
3, 92732, Note_off_c, 1, 64, 100
3, 92732, Note_off_c, 1, 60, 100
3, 92736, Note_on_c, 1, 64, 110
3, 92736, Note_on_c, 1, 60, 110
3, 92924, Note_off_c, 1, 64, 100
3, 92924, Note_off_c, 1, 60, 100
3, 92928, Note_on_c, 1, 64, 110
3, 92928, Note_on_c, 1, 60, 110
3, 93308, Note_off_c, 1, 64, 100
3, 93308, Note_off_c, 1, 60, 100
3, 93312, Note_on_c, 1, 67, 110
3, 93312, Note_on_c, 1, 64, 110
3, 93500, Note_off_c, 1, 67, 100
3, 93500, Note_off_c, 1, 64, 100
3, 93504, Note_on_c, 1, 67, 110
3, 93504, Note_on_c, 1, 64, 110
3, 93692, Note_off_c, 1, 67, 100
3, 93692, Note_off_c, 1, 64, 100
3, 93696, Note_on_c, 1, 67, 110
3, 93696, Note_on_c, 1, 64, 110
3, 94076, Note_off_c, 1, 67, 100
3, 94076, Note_off_c, 1, 64, 100
3, 94080, Note_on_c, 1, 67, 110
3, 94080, Note_on_c, 1, 72, 110
3, 94268, Note_off_c, 1, 67, 100
3, 94268, Note_off_c, 1, 72, 100
3, 94272, Note_on_c, 1, 67, 110
3, 94272, Note_on_c, 1, 72, 110
3, 94460, Note_off_c, 1, 67, 100
3, 94460, Note_off_c, 1, 72, 100
3, 94464, Note_on_c, 1, 67, 110
3, 94464, Note_on_c, 1, 72, 110
3, 94844, Note_off_c, 1, 67, 100
3, 94844, Note_off_c, 1, 72, 100
3, 95232, Note_on_c, 1, 60, 110
3, 95232, Note_on_c, 1, 57, 110
3, 95232, Note_on_c, 1, 54, 110
3, 95232, Note_on_c, 1, 48, 110
3, 95612, Note_off_c, 1, 60, 100
3, 95612, Note_off_c, 1, 57, 100
3, 95612, Note_off_c, 1, 54, 100
3, 95612, Note_off_c, 1, 48, 100
3, 95616, Note_on_c, 1, 60, 110
3, 95616, Note_on_c, 1, 66, 110
3, 95804, Note_off_c, 1, 60, 100
3, 95804, Note_off_c, 1, 66, 100
3, 95808, Note_on_c, 1, 66, 110
3, 95808, Note_on_c, 1, 60, 110
3, 95996, Note_off_c, 1, 66, 100
3, 95996, Note_off_c, 1, 60, 100
3, 96000, Note_on_c, 1, 60, 110
3, 96000, Note_on_c, 1, 66, 110
3, 96380, Note_off_c, 1, 60, 100
3, 96380, Note_off_c, 1, 66, 100
3, 96384, Note_on_c, 1, 66, 110
3, 96384, Note_on_c, 1, 72, 110
3, 96572, Note_off_c, 1, 66, 100
3, 96572, Note_off_c, 1, 72, 100
3, 96576, Note_on_c, 1, 66, 110
3, 96576, Note_on_c, 1, 72, 110
3, 96764, Note_off_c, 1, 66, 100
3, 96764, Note_off_c, 1, 72, 100
3, 96768, Note_on_c, 1, 66, 110
3, 96768, Note_on_c, 1, 72, 110
3, 97148, Note_off_c, 1, 66, 100
3, 97148, Note_off_c, 1, 72, 100
3, 97152, Note_on_c, 1, 60, 110
3, 97152, Note_on_c, 1, 66, 110
3, 97340, Note_off_c, 1, 60, 100
3, 97340, Note_off_c, 1, 66, 100
3, 97344, Note_on_c, 1, 60, 110
3, 97344, Note_on_c, 1, 66, 110
3, 97532, Note_off_c, 1, 60, 100
3, 97532, Note_off_c, 1, 66, 100
3, 97536, Note_on_c, 1, 60, 110
3, 97536, Note_on_c, 1, 66, 110
3, 97916, Note_off_c, 1, 60, 100
3, 97916, Note_off_c, 1, 66, 100
3, 98304, Note_on_c, 1, 55, 110
3, 98304, Note_on_c, 1, 50, 110
3, 98304, Note_on_c, 1, 47, 110
3, 98684, Note_off_c, 1, 55, 100
3, 98684, Note_off_c, 1, 50, 100
3, 98684, Note_off_c, 1, 47, 100
3, 98688, Note_on_c, 1, 55, 110
3, 98688, Note_on_c, 1, 59, 110
3, 98876, Note_off_c, 1, 55, 100
3, 98876, Note_off_c, 1, 59, 100
3, 98880, Note_on_c, 1, 55, 110
3, 98880, Note_on_c, 1, 59, 110
3, 99068, Note_off_c, 1, 55, 100
3, 99068, Note_off_c, 1, 59, 100
3, 99072, Note_on_c, 1, 55, 110
3, 99072, Note_on_c, 1, 59, 110
3, 99452, Note_off_c, 1, 55, 100
3, 99452, Note_off_c, 1, 59, 100
3, 99456, Note_on_c, 1, 59, 110
3, 99456, Note_on_c, 1, 62, 110
3, 99644, Note_off_c, 1, 59, 100
3, 99644, Note_off_c, 1, 62, 100
3, 99648, Note_on_c, 1, 59, 110
3, 99648, Note_on_c, 1, 62, 110
3, 99836, Note_off_c, 1, 59, 100
3, 99836, Note_off_c, 1, 62, 100
3, 99840, Note_on_c, 1, 59, 110
3, 99840, Note_on_c, 1, 62, 110
3, 100220, Note_off_c, 1, 59, 100
3, 100220, Note_off_c, 1, 62, 100
3, 100224, Note_on_c, 1, 62, 110
3, 100224, Note_on_c, 1, 67, 110
3, 100412, Note_off_c, 1, 62, 100
3, 100412, Note_off_c, 1, 67, 100
3, 100416, Note_on_c, 1, 62, 110
3, 100416, Note_on_c, 1, 67, 110
3, 100604, Note_off_c, 1, 62, 100
3, 100604, Note_off_c, 1, 67, 100
3, 100608, Note_on_c, 1, 62, 110
3, 100608, Note_on_c, 1, 67, 110
3, 100988, Note_off_c, 1, 62, 100
3, 100988, Note_off_c, 1, 67, 100
3, 100992, Note_on_c, 1, 67, 110
3, 100992, Note_on_c, 1, 71, 110
3, 101180, Note_off_c, 1, 67, 100
3, 101180, Note_off_c, 1, 71, 100
3, 101184, Note_on_c, 1, 67, 110
3, 101184, Note_on_c, 1, 71, 110
3, 101372, Note_off_c, 1, 67, 100
3, 101372, Note_off_c, 1, 71, 100
3, 101376, Note_on_c, 1, 67, 121
3, 101376, Note_on_c, 1, 71, 121
3, 101564, Note_off_c, 1, 67, 100
3, 101564, Note_off_c, 1, 71, 100
3, 101568, Note_on_c, 1, 70, 110
3, 101756, Note_off_c, 1, 70, 100
3, 101760, Note_on_c, 1, 72, 110
3, 101948, Note_off_c, 1, 72, 100
3, 101952, Note_on_c, 1, 71, 110
3, 102140, Note_off_c, 1, 71, 100
3, 102144, Note_on_c, 1, 67, 124
3, 102144, Note_on_c, 1, 71, 120
3, 102332, Note_off_c, 1, 67, 100
3, 102332, Note_off_c, 1, 71, 100
3, 102336, Note_on_c, 1, 70, 110
3, 102524, Note_off_c, 1, 70, 100
3, 102528, Note_on_c, 1, 72, 110
3, 102716, Note_off_c, 1, 72, 100
3, 102720, Note_on_c, 1, 71, 110
3, 102908, Note_off_c, 1, 71, 100
3, 102912, Note_on_c, 1, 67, 120
3, 102912, Note_on_c, 1, 71, 122
3, 103100, Note_off_c, 1, 67, 100
3, 103100, Note_off_c, 1, 71, 100
3, 103104, Note_on_c, 1, 70, 110
3, 103292, Note_off_c, 1, 70, 100
3, 103296, Note_on_c, 1, 72, 110
3, 103484, Note_off_c, 1, 72, 100
3, 103488, Note_on_c, 1, 71, 110
3, 103676, Note_off_c, 1, 71, 100
3, 103680, Note_on_c, 1, 67, 120
3, 103680, Note_on_c, 1, 71, 121
3, 103868, Note_off_c, 1, 67, 100
3, 103868, Note_off_c, 1, 71, 100
3, 103872, Note_on_c, 1, 70, 110
3, 104060, Note_off_c, 1, 70, 100
3, 104064, Note_on_c, 1, 72, 110
3, 104252, Note_off_c, 1, 72, 100
3, 104256, Note_on_c, 1, 71, 110
3, 104444, Note_off_c, 1, 71, 100
3, 104640, Note_on_c, 1, 59, 110
3, 104640, Note_on_c, 1, 71, 110
3, 105020, Note_off_c, 1, 59, 100
3, 105020, Note_off_c, 1, 71, 100
3, 105024, Note_on_c, 1, 57, 110
3, 105024, Note_on_c, 1, 69, 110
3, 105404, Note_off_c, 1, 57, 100
3, 105404, Note_off_c, 1, 69, 100
3, 105408, Note_on_c, 1, 55, 110
3, 105408, Note_on_c, 1, 67, 110
3, 105788, Note_off_c, 1, 55, 100
3, 105788, Note_off_c, 1, 67, 100
3, 105792, Note_on_c, 1, 54, 110
3, 105792, Note_on_c, 1, 66, 110
3, 106172, Note_off_c, 1, 54, 100
3, 106172, Note_off_c, 1, 66, 100
3, 106176, Note_on_c, 1, 52, 110
3, 106176, Note_on_c, 1, 64, 110
3, 106556, Note_off_c, 1, 52, 100
3, 106556, Note_off_c, 1, 64, 100
3, 106560, Note_on_c, 1, 50, 110
3, 106560, Note_on_c, 1, 62, 110
3, 106940, Note_off_c, 1, 50, 100
3, 106940, Note_off_c, 1, 62, 100
3, 106944, Note_on_c, 1, 48, 110
3, 106944, Note_on_c, 1, 60, 110
3, 107324, Note_off_c, 1, 48, 100
3, 107324, Note_off_c, 1, 60, 100
3, 107328, Note_on_c, 1, 47, 110
3, 107328, Note_on_c, 1, 59, 110
3, 107708, Note_off_c, 1, 47, 100
3, 107708, Note_off_c, 1, 59, 100
3, 107712, Note_on_c, 1, 45, 110
3, 107712, Note_on_c, 1, 57, 110
3, 108092, Note_off_c, 1, 45, 100
3, 108092, Note_off_c, 1, 57, 100
3, 108096, Note_on_c, 1, 43, 110
3, 108096, Note_on_c, 1, 55, 110
3, 108476, Note_off_c, 1, 43, 100
3, 108476, Note_off_c, 1, 55, 100
3, 108480, Note_on_c, 1, 42, 110
3, 108480, Note_on_c, 1, 54, 110
3, 108860, Note_off_c, 1, 42, 100
3, 108860, Note_off_c, 1, 54, 100
3, 108864, Note_on_c, 1, 40, 110
3, 108864, Note_on_c, 1, 52, 110
3, 109244, Note_off_c, 1, 40, 100
3, 109244, Note_off_c, 1, 52, 100
3, 109248, Note_on_c, 1, 38, 110
3, 109248, Note_on_c, 1, 50, 110
3, 109628, Note_off_c, 1, 38, 100
3, 109628, Note_off_c, 1, 50, 100
3, 109632, Note_on_c, 1, 36, 110
3, 109632, Note_on_c, 1, 48, 110
3, 110012, Note_off_c, 1, 36, 100
3, 110012, Note_off_c, 1, 48, 100
3, 110016, Note_on_c, 1, 47, 110
3, 110016, Note_on_c, 1, 35, 110
3, 110396, Note_off_c, 1, 47, 100
3, 110396, Note_off_c, 1, 35, 100
3, 110400, Note_on_c, 1, 43, 110
3, 110400, Note_on_c, 1, 33, 110
3, 110588, Note_off_c, 1, 43, 100
3, 110588, Note_off_c, 1, 33, 100
3, 110976, Note_on_c, 1, 43, 120
3, 110976, Note_on_c, 1, 31, 120
3, 111356, Note_off_c, 1, 43, 100
3, 111356, Note_off_c, 1, 31, 100
3, 112512, Note_on_c, 1, 51, 120
3, 112512, Note_on_c, 1, 39, 120
3, 112892, Note_off_c, 1, 51, 100
3, 112892, Note_off_c, 1, 39, 100
3, 114048, Note_on_c, 1, 52, 120
3, 114048, Note_on_c, 1, 40, 120
3, 114428, Note_off_c, 1, 52, 100
3, 114428, Note_off_c, 1, 40, 100
3, 115200, Note_on_c, 1, 48, 120
3, 115200, Note_on_c, 1, 36, 120
3, 115580, Note_off_c, 1, 48, 100
3, 115580, Note_off_c, 1, 36, 100
3, 115968, Note_on_c, 1, 50, 120
3, 115968, Note_on_c, 1, 38, 120
3, 116348, Note_off_c, 1, 50, 100
3, 116348, Note_off_c, 1, 38, 100
3, 116736, Note_on_c, 1, 43, 120
3, 116736, Note_on_c, 1, 31, 120
3, 117116, Note_off_c, 1, 43, 100
3, 117116, Note_off_c, 1, 31, 100
3, 117504, Note_on_c, 1, 48, 80
3, 117884, Note_off_c, 1, 48, 100
3, 117888, Note_on_c, 1, 48, 80
3, 118268, Note_off_c, 1, 48, 100
3, 118272, Note_on_c, 1, 50, 80
3, 118320, Note_on_c, 1, 48, 80
3, 118364, Note_off_c, 1, 50, 100
3, 118368, Note_on_c, 1, 50, 80
3, 118412, Note_off_c, 1, 48, 100
3, 118416, Note_on_c, 1, 48, 80
3, 118460, Note_off_c, 1, 50, 100
3, 118464, Note_on_c, 1, 47, 80
3, 118508, Note_off_c, 1, 48, 100
3, 118556, Note_off_c, 1, 47, 100
3, 118560, Note_on_c, 1, 48, 80
3, 118652, Note_off_c, 1, 48, 100
3, 118656, Note_on_c, 1, 45, 80
3, 119036, Note_off_c, 1, 45, 100
3, 119040, Note_on_c, 1, 57, 70
3, 119040, Note_on_c, 1, 50, 70
3, 119804, Note_off_c, 1, 57, 100
3, 119804, Note_off_c, 1, 50, 100
3, 119808, Note_on_c, 1, 55, 70
3, 119808, Note_on_c, 1, 43, 70
3, 120188, Note_off_c, 1, 55, 100
3, 120188, Note_off_c, 1, 43, 100
3, 120576, Note_on_c, 1, 48, 80
3, 120956, Note_off_c, 1, 48, 100
3, 120960, Note_on_c, 1, 48, 80
3, 121340, Note_off_c, 1, 48, 100
3, 121344, Note_on_c, 1, 50, 80
3, 121392, Note_on_c, 1, 48, 80
3, 121436, Note_off_c, 1, 50, 100
3, 121440, Note_on_c, 1, 50, 80
3, 121484, Note_off_c, 1, 48, 100
3, 121488, Note_on_c, 1, 48, 80
3, 121532, Note_off_c, 1, 50, 100
3, 121536, Note_on_c, 1, 47, 80
3, 121580, Note_off_c, 1, 48, 100
3, 121628, Note_off_c, 1, 47, 100
3, 121632, Note_on_c, 1, 48, 80
3, 121724, Note_off_c, 1, 48, 100
3, 121728, Note_on_c, 1, 45, 80
3, 122108, Note_off_c, 1, 45, 100
3, 122112, Note_on_c, 1, 60, 70
3, 122112, Note_on_c, 1, 50, 70
3, 122876, Note_off_c, 1, 60, 100
3, 122876, Note_off_c, 1, 50, 100
3, 122880, Note_on_c, 1, 55, 70
3, 122880, Note_on_c, 1, 59, 70
3, 123260, Note_off_c, 1, 55, 100
3, 123260, Note_off_c, 1, 59, 100
3, 123648, Note_on_c, 1, 48, 110
3, 124028, Note_off_c, 1, 48, 100
3, 124032, Note_on_c, 1, 48, 110
3, 124412, Note_off_c, 1, 48, 100
3, 124416, Note_on_c, 1, 50, 110
3, 124464, Note_on_c, 1, 48, 110
3, 124508, Note_off_c, 1, 50, 100
3, 124512, Note_on_c, 1, 50, 110
3, 124556, Note_off_c, 1, 48, 100
3, 124560, Note_on_c, 1, 48, 110
3, 124604, Note_off_c, 1, 50, 100
3, 124608, Note_on_c, 1, 47, 110
3, 124652, Note_off_c, 1, 48, 100
3, 124700, Note_off_c, 1, 47, 100
3, 124704, Note_on_c, 1, 48, 110
3, 124796, Note_off_c, 1, 48, 100
3, 124800, Note_on_c, 1, 45, 110
3, 125180, Note_off_c, 1, 45, 100
3, 125184, Note_on_c, 1, 55, 110
3, 125232, Note_on_c, 1, 54, 110
3, 125276, Note_off_c, 1, 55, 100
3, 125280, Note_on_c, 1, 55, 110
3, 125324, Note_off_c, 1, 54, 100
3, 125328, Note_on_c, 1, 54, 110
3, 125372, Note_off_c, 1, 55, 100
3, 125376, Note_on_c, 1, 52, 110
3, 125420, Note_off_c, 1, 54, 100
3, 125468, Note_off_c, 1, 52, 100
3, 125472, Note_on_c, 1, 54, 110
3, 125564, Note_off_c, 1, 54, 100
3, 125568, Note_on_c, 1, 50, 110
3, 125948, Note_off_c, 1, 50, 100
3, 125952, Note_on_c, 1, 60, 110
3, 126000, Note_on_c, 1, 59, 110
3, 126044, Note_off_c, 1, 60, 100
3, 126048, Note_on_c, 1, 60, 110
3, 126092, Note_off_c, 1, 59, 100
3, 126096, Note_on_c, 1, 59, 110
3, 126140, Note_off_c, 1, 60, 100
3, 126144, Note_on_c, 1, 57, 110
3, 126188, Note_off_c, 1, 59, 100
3, 126236, Note_off_c, 1, 57, 100
3, 126240, Note_on_c, 1, 59, 110
3, 126332, Note_off_c, 1, 59, 100
3, 126336, Note_on_c, 1, 55, 110
3, 126716, Note_off_c, 1, 55, 100
3, 126720, Note_on_c, 1, 65, 110
3, 126768, Note_on_c, 1, 64, 110
3, 126812, Note_off_c, 1, 65, 100
3, 126816, Note_on_c, 1, 65, 110
3, 126860, Note_off_c, 1, 64, 100
3, 126864, Note_on_c, 1, 64, 110
3, 126908, Note_off_c, 1, 65, 100
3, 126912, Note_on_c, 1, 63, 110
3, 126956, Note_off_c, 1, 64, 100
3, 127004, Note_off_c, 1, 63, 100
3, 127008, Note_on_c, 1, 64, 110
3, 127100, Note_off_c, 1, 64, 100
3, 127104, Note_on_c, 1, 61, 110
3, 127484, Note_off_c, 1, 61, 100
3, 127488, Note_on_c, 1, 62, 110
3, 127868, Note_off_c, 1, 62, 100
3, 128256, Note_on_c, 1, 50, 110
3, 128256, Note_on_c, 1, 45, 110
3, 128256, Note_on_c, 1, 42, 110
3, 128256, Note_on_c, 1, 38, 110
3, 128636, Note_off_c, 1, 50, 100
3, 128636, Note_off_c, 1, 45, 100
3, 128636, Note_off_c, 1, 42, 100
3, 128636, Note_off_c, 1, 38, 100
3, 129024, Note_on_c, 1, 43, 120
3, 129116, Note_off_c, 1, 43, 100
3, 129120, Note_on_c, 1, 55, 120
3, 129212, Note_off_c, 1, 55, 100
3, 129216, Note_on_c, 1, 42, 120
3, 129308, Note_off_c, 1, 42, 100
3, 129312, Note_on_c, 1, 54, 120
3, 129404, Note_off_c, 1, 54, 100
3, 129408, Note_on_c, 1, 43, 120
3, 129500, Note_off_c, 1, 43, 100
3, 129504, Note_on_c, 1, 55, 120
3, 129596, Note_off_c, 1, 55, 100
3, 129600, Note_on_c, 1, 45, 120
3, 129692, Note_off_c, 1, 45, 100
3, 129696, Note_on_c, 1, 57, 120
3, 129788, Note_off_c, 1, 57, 100
3, 129792, Note_on_c, 1, 47, 120
3, 129884, Note_off_c, 1, 47, 100
3, 129888, Note_on_c, 1, 59, 120
3, 129980, Note_off_c, 1, 59, 100
3, 129984, Note_on_c, 1, 48, 120
3, 130076, Note_off_c, 1, 48, 100
3, 130080, Note_on_c, 1, 60, 120
3, 130172, Note_off_c, 1, 60, 100
3, 130176, Note_on_c, 1, 49, 120
3, 130268, Note_off_c, 1, 49, 100
3, 130272, Note_on_c, 1, 61, 120
3, 130364, Note_off_c, 1, 61, 100
3, 130368, Note_on_c, 1, 50, 120
3, 130460, Note_off_c, 1, 50, 100
3, 130464, Note_on_c, 1, 62, 120
3, 130556, Note_off_c, 1, 62, 100
3, 130560, Note_on_c, 1, 52, 120
3, 130652, Note_off_c, 1, 52, 100
3, 130656, Note_on_c, 1, 64, 120
3, 130748, Note_off_c, 1, 64, 100
3, 130752, Note_on_c, 1, 50, 120
3, 130844, Note_off_c, 1, 50, 100
3, 130848, Note_on_c, 1, 62, 120
3, 130940, Note_off_c, 1, 62, 100
3, 130944, Note_on_c, 1, 48, 120
3, 131036, Note_off_c, 1, 48, 100
3, 131040, Note_on_c, 1, 60, 120
3, 131132, Note_off_c, 1, 60, 100
3, 131136, Note_on_c, 1, 47, 120
3, 131228, Note_off_c, 1, 47, 100
3, 131232, Note_on_c, 1, 59, 120
3, 131324, Note_off_c, 1, 59, 100
3, 131328, Note_on_c, 1, 45, 120
3, 131420, Note_off_c, 1, 45, 100
3, 131424, Note_on_c, 1, 57, 120
3, 131516, Note_off_c, 1, 57, 100
3, 131520, Note_on_c, 1, 47, 120
3, 131612, Note_off_c, 1, 47, 100
3, 131616, Note_on_c, 1, 59, 120
3, 131708, Note_off_c, 1, 59, 100
3, 131712, Note_on_c, 1, 48, 120
3, 131804, Note_off_c, 1, 48, 100
3, 131808, Note_on_c, 1, 60, 120
3, 131900, Note_off_c, 1, 60, 100
3, 131904, Note_on_c, 1, 45, 120
3, 131996, Note_off_c, 1, 45, 100
3, 132000, Note_on_c, 1, 57, 120
3, 132092, Note_off_c, 1, 57, 100
3, 132096, Note_on_c, 1, 43, 120
3, 132188, Note_off_c, 1, 43, 100
3, 132192, Note_on_c, 1, 55, 120
3, 132284, Note_off_c, 1, 55, 100
3, 132288, Note_on_c, 1, 42, 120
3, 132380, Note_off_c, 1, 42, 100
3, 132384, Note_on_c, 1, 54, 120
3, 132476, Note_off_c, 1, 54, 100
3, 132480, Note_on_c, 1, 40, 120
3, 132572, Note_off_c, 1, 40, 100
3, 132576, Note_on_c, 1, 52, 120
3, 132668, Note_off_c, 1, 52, 100
3, 132672, Note_on_c, 1, 38, 120
3, 132764, Note_off_c, 1, 38, 100
3, 132768, Note_on_c, 1, 50, 120
3, 132860, Note_off_c, 1, 50, 100
3, 132864, Note_on_c, 1, 36, 120
3, 132956, Note_off_c, 1, 36, 100
3, 132960, Note_on_c, 1, 48, 120
3, 133052, Note_off_c, 1, 48, 100
3, 133056, Note_on_c, 1, 35, 120
3, 133148, Note_off_c, 1, 35, 100
3, 133152, Note_on_c, 1, 47, 120
3, 133244, Note_off_c, 1, 47, 100
3, 133248, Note_on_c, 1, 33, 120
3, 133340, Note_off_c, 1, 33, 100
3, 133344, Note_on_c, 1, 45, 120
3, 133436, Note_off_c, 1, 45, 100
3, 133440, Note_on_c, 1, 31, 120
3, 133532, Note_off_c, 1, 31, 100
3, 133536, Note_on_c, 1, 43, 120
3, 133628, Note_off_c, 1, 43, 100
3, 133632, Note_on_c, 1, 42, 120
3, 133632, Note_on_c, 1, 30, 120
3, 133820, Note_off_c, 1, 42, 100
3, 133820, Note_off_c, 1, 30, 100
3, 133824, Note_on_c, 1, 40, 120
3, 134012, Note_off_c, 1, 40, 100
3, 134016, Note_on_c, 1, 38, 120
3, 134204, Note_off_c, 1, 38, 100
3, 134208, Note_on_c, 1, 37, 120
3, 134396, Note_off_c, 1, 37, 100
3, 134400, Note_on_c, 1, 38, 120
3, 134588, Note_off_c, 1, 38, 100
3, 134592, Note_on_c, 1, 36, 120
3, 134780, Note_off_c, 1, 36, 100
3, 134784, Note_on_c, 1, 35, 120
3, 134972, Note_off_c, 1, 35, 100
3, 134976, Note_on_c, 1, 33, 120
3, 135164, Note_off_c, 1, 33, 100
3, 135168, Note_on_c, 1, 31, 120
3, 135548, Note_off_c, 1, 31, 100
3, 135936, Note_on_c, 1, 50, 120
3, 135936, Note_on_c, 1, 45, 120
3, 135936, Note_on_c, 1, 42, 120
3, 135936, Note_on_c, 1, 38, 120
3, 136316, Note_off_c, 1, 50, 100
3, 136316, Note_off_c, 1, 45, 100
3, 136316, Note_off_c, 1, 42, 100
3, 136316, Note_off_c, 1, 38, 100
3, 136704, Note_on_c, 1, 43, 120
3, 136704, Note_on_c, 1, 38, 120
3, 136704, Note_on_c, 1, 31, 120
3, 136704, Note_on_c, 1, 35, 120
3, 137084, Note_off_c, 1, 43, 100
3, 137084, Note_off_c, 1, 38, 100
3, 137084, Note_off_c, 1, 31, 100
3, 137084, Note_off_c, 1, 35, 100
3, 138240, Note_on_c, 1, 55, 80
3, 138240, Note_on_c, 1, 48, 80
3, 139772, Note_off_c, 1, 55, 100
3, 139772, Note_off_c, 1, 48, 100
3, 139776, Note_on_c, 1, 55, 80
3, 139776, Note_on_c, 1, 43, 80
3, 140156, Note_off_c, 1, 55, 100
3, 140156, Note_off_c, 1, 43, 100
3, 140160, Note_on_c, 1, 55, 80
3, 140160, Note_on_c, 1, 43, 80
3, 140540, Note_off_c, 1, 55, 100
3, 140540, Note_off_c, 1, 43, 100
3, 141312, Note_on_c, 1, 59, 80
3, 141312, Note_on_c, 1, 43, 80
3, 142844, Note_off_c, 1, 59, 100
3, 142844, Note_off_c, 1, 43, 100
3, 142848, Note_on_c, 1, 55, 80
3, 142848, Note_on_c, 1, 48, 80
3, 143228, Note_off_c, 1, 55, 100
3, 143228, Note_off_c, 1, 48, 100
3, 143232, Note_on_c, 1, 55, 80
3, 143232, Note_on_c, 1, 48, 80
3, 143612, Note_off_c, 1, 55, 100
3, 143612, Note_off_c, 1, 48, 100
3, 144384, Note_on_c, 1, 55, 80
3, 144768, Note_on_c, 1, 48, 80
3, 145148, Note_off_c, 1, 48, 100
3, 145152, Note_on_c, 1, 50, 80
3, 145532, Note_off_c, 1, 50, 100
3, 145536, Note_on_c, 1, 43, 80
3, 145916, Note_off_c, 1, 43, 100
3, 146300, Note_off_c, 1, 55, 100
3, 146304, Note_on_c, 1, 48, 80
3, 146304, Note_on_c, 1, 55, 80
3, 146684, Note_off_c, 1, 48, 100
3, 146688, Note_on_c, 1, 50, 80
3, 147068, Note_off_c, 1, 50, 100
3, 147072, Note_on_c, 1, 43, 80
3, 147452, Note_off_c, 1, 43, 100
3, 147456, Note_on_c, 1, 52, 80
3, 147836, Note_off_c, 1, 52, 100
3, 147840, Note_on_c, 1, 48, 80
3, 148220, Note_off_c, 1, 55, 100
3, 148220, Note_off_c, 1, 48, 100
3, 148224, Note_on_c, 1, 53, 80
3, 148224, Note_on_c, 1, 57, 80
3, 148604, Note_off_c, 1, 53, 100
3, 148608, Note_on_c, 1, 50, 80
3, 148988, Note_off_c, 1, 57, 100
3, 148988, Note_off_c, 1, 50, 100
3, 148992, Note_on_c, 1, 55, 80
3, 149372, Note_off_c, 1, 55, 100
3, 149376, Note_on_c, 1, 43, 80
3, 149756, Note_off_c, 1, 43, 100
3, 149760, Note_on_c, 1, 48, 80
3, 149884, Note_off_c, 1, 48, 100
3, 149888, Note_on_c, 1, 55, 80
3, 150012, Note_off_c, 1, 55, 100
3, 150016, Note_on_c, 1, 54, 80
3, 150140, Note_off_c, 1, 54, 100
3, 150144, Note_on_c, 1, 53, 80
3, 150268, Note_off_c, 1, 53, 100
3, 150272, Note_on_c, 1, 52, 80
3, 150396, Note_off_c, 1, 52, 100
3, 150400, Note_on_c, 1, 50, 80
3, 150524, Note_off_c, 1, 50, 100
3, 150528, Note_on_c, 1, 48, 94
3, 151292, Note_off_c, 1, 48, 100
3, 151296, Note_on_c, 1, 47, 80
3, 151388, Note_off_c, 1, 47, 100
3, 151392, Note_on_c, 1, 48, 80
3, 151484, Note_off_c, 1, 48, 100
3, 151488, Note_on_c, 1, 47, 80
3, 151580, Note_off_c, 1, 47, 100
3, 151584, Note_on_c, 1, 48, 80
3, 151676, Note_off_c, 1, 48, 100
3, 151680, Note_on_c, 1, 50, 80
3, 151868, Note_off_c, 1, 50, 100
3, 151872, Note_on_c, 1, 47, 80
3, 152060, Note_off_c, 1, 47, 100
3, 152064, Note_on_c, 1, 43, 80
3, 152444, Note_off_c, 1, 43, 100
3, 152448, Note_on_c, 1, 48, 100
3, 152828, Note_off_c, 1, 48, 100
3, 152832, Note_on_c, 1, 47, 80
3, 152924, Note_off_c, 1, 47, 100
3, 152928, Note_on_c, 1, 48, 80
3, 153020, Note_off_c, 1, 48, 100
3, 153024, Note_on_c, 1, 47, 80
3, 153116, Note_off_c, 1, 47, 100
3, 153120, Note_on_c, 1, 48, 80
3, 153212, Note_off_c, 1, 48, 100
3, 153216, Note_on_c, 1, 50, 80
3, 153404, Note_off_c, 1, 50, 100
3, 153408, Note_on_c, 1, 47, 80
3, 153596, Note_off_c, 1, 47, 100
3, 153600, Note_on_c, 1, 43, 80
3, 153980, Note_off_c, 1, 43, 100
3, 153984, Note_on_c, 1, 48, 80
3, 154748, Note_off_c, 1, 48, 100
3, 154752, Note_on_c, 1, 41, 89
3, 155516, Note_off_c, 1, 41, 100
3, 155520, Note_on_c, 1, 43, 99
3, 156284, Note_off_c, 1, 43, 100
3, 156288, Note_on_c, 1, 43, 109
3, 156288, Note_on_c, 1, 31, 109
3, 156668, Note_off_c, 1, 43, 100
3, 156668, Note_off_c, 1, 31, 100
3, 156672, Note_on_c, 1, 48, 110
3, 156672, Note_on_c, 1, 43, 110
3, 156672, Note_on_c, 1, 40, 110
3, 156672, Note_on_c, 1, 36, 110
3, 157052, Note_off_c, 1, 48, 100
3, 157052, Note_off_c, 1, 43, 100
3, 157052, Note_off_c, 1, 40, 100
3, 157052, Note_off_c, 1, 36, 100
3, 162816, Note_on_c, 1, 48, 110
3, 162816, Note_on_c, 1, 43, 110
3, 162816, Note_on_c, 1, 40, 110
3, 162816, Note_on_c, 1, 36, 110
3, 163196, Note_off_c, 1, 48, 100
3, 163196, Note_off_c, 1, 43, 100
3, 163196, Note_off_c, 1, 40, 100
3, 163196, Note_off_c, 1, 36, 100
3, 167616, Note_on_c, 1, 50, 110
3, 167996, Note_off_c, 1, 50, 100
3, 168000, Note_on_c, 1, 52, 110
3, 168188, Note_off_c, 1, 52, 100
3, 168192, Note_on_c, 1, 53, 110
3, 168572, Note_off_c, 1, 53, 100
3, 168576, Note_on_c, 1, 54, 110
3, 168956, Note_off_c, 1, 54, 100
3, 168960, Note_on_c, 1, 43, 110
3, 169052, Note_off_c, 1, 43, 100
3, 169056, Note_on_c, 1, 55, 110
3, 169148, Note_off_c, 1, 55, 100
3, 169152, Note_on_c, 1, 54, 110
3, 169244, Note_off_c, 1, 54, 100
3, 169248, Note_on_c, 1, 55, 110
3, 169340, Note_off_c, 1, 55, 100
3, 169344, Note_on_c, 1, 57, 110
3, 169436, Note_off_c, 1, 57, 100
3, 169440, Note_on_c, 1, 55, 110
3, 169532, Note_off_c, 1, 55, 100
3, 169536, Note_on_c, 1, 54, 110
3, 169628, Note_off_c, 1, 54, 100
3, 169632, Note_on_c, 1, 55, 110
3, 169724, Note_off_c, 1, 55, 100
3, 169728, Note_on_c, 1, 53, 110
3, 169820, Note_off_c, 1, 53, 100
3, 169824, Note_on_c, 1, 55, 110
3, 169916, Note_off_c, 1, 55, 100
3, 169920, Note_on_c, 1, 50, 110
3, 170012, Note_off_c, 1, 50, 100
3, 170016, Note_on_c, 1, 55, 110
3, 170108, Note_off_c, 1, 55, 100
3, 170112, Note_on_c, 1, 53, 110
3, 170204, Note_off_c, 1, 53, 100
3, 170208, Note_on_c, 1, 55, 110
3, 170300, Note_off_c, 1, 55, 100
3, 170304, Note_on_c, 1, 50, 110
3, 170396, Note_off_c, 1, 50, 100
3, 170400, Note_on_c, 1, 55, 110
3, 170492, Note_off_c, 1, 55, 100
3, 170496, Note_on_c, 1, 52, 100
3, 170588, Note_off_c, 1, 52, 100
3, 170592, Note_on_c, 1, 55, 100
3, 170684, Note_off_c, 1, 55, 100
3, 170688, Note_on_c, 1, 48, 100
3, 170780, Note_off_c, 1, 48, 100
3, 170784, Note_on_c, 1, 55, 100
3, 170876, Note_off_c, 1, 55, 100
3, 170880, Note_on_c, 1, 52, 100
3, 170972, Note_off_c, 1, 52, 100
3, 170976, Note_on_c, 1, 55, 100
3, 171068, Note_off_c, 1, 55, 100
3, 171072, Note_on_c, 1, 48, 100
3, 171164, Note_off_c, 1, 48, 100
3, 171168, Note_on_c, 1, 55, 100
3, 171260, Note_off_c, 1, 55, 100
3, 171264, Note_on_c, 1, 47, 100
3, 171356, Note_off_c, 1, 47, 100
3, 171360, Note_on_c, 1, 55, 100
3, 171452, Note_off_c, 1, 55, 100
3, 171456, Note_on_c, 1, 54, 100
3, 171548, Note_off_c, 1, 54, 100
3, 171552, Note_on_c, 1, 55, 100
3, 171644, Note_off_c, 1, 55, 100
3, 171648, Note_on_c, 1, 48, 100
3, 171740, Note_off_c, 1, 48, 100
3, 171744, Note_on_c, 1, 55, 100
3, 171836, Note_off_c, 1, 55, 100
3, 171840, Note_on_c, 1, 54, 100
3, 171932, Note_off_c, 1, 54, 100
3, 171936, Note_on_c, 1, 55, 100
3, 172028, Note_off_c, 1, 55, 100
3, 172032, Note_on_c, 1, 43, 110
3, 172124, Note_off_c, 1, 43, 100
3, 172128, Note_on_c, 1, 55, 110
3, 172220, Note_off_c, 1, 55, 100
3, 172224, Note_on_c, 1, 54, 110
3, 172316, Note_off_c, 1, 54, 100
3, 172320, Note_on_c, 1, 55, 110
3, 172412, Note_off_c, 1, 55, 100
3, 172416, Note_on_c, 1, 57, 110
3, 172508, Note_off_c, 1, 57, 100
3, 172512, Note_on_c, 1, 55, 110
3, 172604, Note_off_c, 1, 55, 100
3, 172608, Note_on_c, 1, 54, 110
3, 172700, Note_off_c, 1, 54, 100
3, 172704, Note_on_c, 1, 55, 110
3, 172796, Note_off_c, 1, 55, 100
3, 172800, Note_on_c, 1, 53, 110
3, 172892, Note_off_c, 1, 53, 100
3, 172896, Note_on_c, 1, 55, 110
3, 172988, Note_off_c, 1, 55, 100
3, 172992, Note_on_c, 1, 50, 110
3, 173084, Note_off_c, 1, 50, 100
3, 173088, Note_on_c, 1, 55, 110
3, 173180, Note_off_c, 1, 55, 100
3, 173184, Note_on_c, 1, 53, 110
3, 173276, Note_off_c, 1, 53, 100
3, 173280, Note_on_c, 1, 55, 110
3, 173372, Note_off_c, 1, 55, 100
3, 173376, Note_on_c, 1, 50, 110
3, 173468, Note_off_c, 1, 50, 100
3, 173472, Note_on_c, 1, 55, 110
3, 173564, Note_off_c, 1, 55, 100
3, 173568, Note_on_c, 1, 48, 110
3, 173660, Note_off_c, 1, 48, 100
3, 173664, Note_on_c, 1, 55, 110
3, 173756, Note_off_c, 1, 55, 100
3, 173760, Note_on_c, 1, 52, 110
3, 173852, Note_off_c, 1, 52, 100
3, 173856, Note_on_c, 1, 55, 110
3, 173948, Note_off_c, 1, 55, 100
3, 173952, Note_on_c, 1, 48, 110
3, 174044, Note_off_c, 1, 48, 100
3, 174048, Note_on_c, 1, 55, 110
3, 174140, Note_off_c, 1, 55, 100
3, 174144, Note_on_c, 1, 52, 110
3, 174236, Note_off_c, 1, 52, 100
3, 174240, Note_on_c, 1, 55, 110
3, 174332, Note_off_c, 1, 55, 100
3, 174336, Note_on_c, 1, 47, 110
3, 174428, Note_off_c, 1, 47, 100
3, 174432, Note_on_c, 1, 55, 110
3, 174524, Note_off_c, 1, 55, 100
3, 174528, Note_on_c, 1, 54, 110
3, 174620, Note_off_c, 1, 54, 100
3, 174624, Note_on_c, 1, 55, 110
3, 174716, Note_off_c, 1, 55, 100
3, 174720, Note_on_c, 1, 48, 110
3, 174812, Note_off_c, 1, 48, 100
3, 174816, Note_on_c, 1, 55, 110
3, 174908, Note_off_c, 1, 55, 100
3, 174912, Note_on_c, 1, 54, 110
3, 175004, Note_off_c, 1, 54, 100
3, 175008, Note_on_c, 1, 55, 110
3, 175100, Note_off_c, 1, 55, 100
3, 175968, Note_on_c, 1, 55, 120
3, 176060, Note_off_c, 1, 55, 100
3, 176064, Note_on_c, 1, 54, 120
3, 176156, Note_off_c, 1, 54, 100
3, 176160, Note_on_c, 1, 52, 120
3, 176252, Note_off_c, 1, 52, 100
3, 176256, Note_on_c, 1, 50, 120
3, 176348, Note_off_c, 1, 50, 100
3, 176352, Note_on_c, 1, 48, 120
3, 176444, Note_off_c, 1, 48, 100
3, 176448, Note_on_c, 1, 47, 120
3, 176540, Note_off_c, 1, 47, 100
3, 176544, Note_on_c, 1, 45, 120
3, 176636, Note_off_c, 1, 45, 100
3, 176640, Note_on_c, 1, 43, 120
3, 177020, Note_off_c, 1, 43, 100
3, 178176, Note_on_c, 1, 55, 80
3, 178364, Note_off_c, 1, 55, 100
3, 178368, Note_on_c, 1, 58, 80
3, 178556, Note_off_c, 1, 58, 100
3, 178560, Note_on_c, 1, 62, 80
3, 178748, Note_off_c, 1, 62, 100
3, 178752, Note_on_c, 1, 58, 80
3, 178940, Note_off_c, 1, 58, 100
3, 178944, Note_on_c, 1, 62, 80
3, 179132, Note_off_c, 1, 62, 100
3, 179136, Note_on_c, 1, 58, 80
3, 179324, Note_off_c, 1, 58, 100
3, 179328, Note_on_c, 1, 55, 80
3, 179516, Note_off_c, 1, 55, 100
3, 179520, Note_on_c, 1, 58, 80
3, 179708, Note_off_c, 1, 58, 100
3, 179712, Note_on_c, 1, 55, 80
3, 179900, Note_off_c, 1, 55, 100
3, 179904, Note_on_c, 1, 57, 80
3, 180092, Note_off_c, 1, 57, 100
3, 180096, Note_on_c, 1, 64, 80
3, 180284, Note_off_c, 1, 64, 100
3, 180288, Note_on_c, 1, 57, 80
3, 180476, Note_off_c, 1, 57, 100
3, 180480, Note_on_c, 1, 64, 80
3, 180668, Note_off_c, 1, 64, 100
3, 180672, Note_on_c, 1, 57, 80
3, 180860, Note_off_c, 1, 57, 100
3, 180864, Note_on_c, 1, 55, 80
3, 181052, Note_off_c, 1, 55, 100
3, 181056, Note_on_c, 1, 57, 80
3, 181244, Note_off_c, 1, 57, 100
3, 181248, Note_on_c, 1, 54, 80
3, 181436, Note_off_c, 1, 54, 100
3, 181440, Note_on_c, 1, 57, 80
3, 181628, Note_off_c, 1, 57, 100
3, 181632, Note_on_c, 1, 62, 80
3, 181820, Note_off_c, 1, 62, 100
3, 181824, Note_on_c, 1, 57, 80
3, 182012, Note_off_c, 1, 57, 100
3, 182016, Note_on_c, 1, 62, 80
3, 182204, Note_off_c, 1, 62, 100
3, 182208, Note_on_c, 1, 57, 80
3, 182396, Note_off_c, 1, 57, 100
3, 182400, Note_on_c, 1, 54, 80
3, 182588, Note_off_c, 1, 54, 100
3, 182592, Note_on_c, 1, 57, 80
3, 182780, Note_off_c, 1, 57, 100
3, 182784, Note_on_c, 1, 53, 80
3, 182972, Note_off_c, 1, 53, 100
3, 182976, Note_on_c, 1, 55, 80
3, 183164, Note_off_c, 1, 55, 100
3, 183168, Note_on_c, 1, 62, 80
3, 183356, Note_off_c, 1, 62, 100
3, 183360, Note_on_c, 1, 55, 80
3, 183548, Note_off_c, 1, 55, 100
3, 183552, Note_on_c, 1, 62, 80
3, 183740, Note_off_c, 1, 62, 100
3, 183744, Note_on_c, 1, 55, 80
3, 183932, Note_off_c, 1, 55, 100
3, 183936, Note_on_c, 1, 53, 80
3, 184124, Note_off_c, 1, 53, 100
3, 184128, Note_on_c, 1, 55, 80
3, 184316, Note_off_c, 1, 55, 100
3, 184320, Note_on_c, 1, 51, 80
3, 184508, Note_off_c, 1, 51, 100
3, 184512, Note_on_c, 1, 55, 80
3, 184700, Note_off_c, 1, 55, 100
3, 184704, Note_on_c, 1, 60, 80
3, 184892, Note_off_c, 1, 60, 100
3, 184896, Note_on_c, 1, 55, 80
3, 185084, Note_off_c, 1, 55, 100
3, 185088, Note_on_c, 1, 50, 80
3, 185276, Note_off_c, 1, 50, 100
3, 185280, Note_on_c, 1, 55, 80
3, 185468, Note_off_c, 1, 55, 100
3, 185472, Note_on_c, 1, 58, 80
3, 185660, Note_off_c, 1, 58, 100
3, 185664, Note_on_c, 1, 55, 80
3, 185852, Note_off_c, 1, 55, 100
3, 185856, Note_on_c, 1, 49, 80
3, 186044, Note_off_c, 1, 49, 100
3, 186048, Note_on_c, 1, 52, 80
3, 186236, Note_off_c, 1, 52, 100
3, 186240, Note_on_c, 1, 57, 80
3, 186428, Note_off_c, 1, 57, 100
3, 186432, Note_on_c, 1, 52, 80
3, 186620, Note_off_c, 1, 52, 100
3, 186624, Note_on_c, 1, 57, 80
3, 186812, Note_off_c, 1, 57, 100
3, 186816, Note_on_c, 1, 52, 80
3, 187004, Note_off_c, 1, 52, 100
3, 187008, Note_on_c, 1, 49, 80
3, 187196, Note_off_c, 1, 49, 100
3, 187200, Note_on_c, 1, 52, 80
3, 187388, Note_off_c, 1, 52, 100
3, 187392, Note_on_c, 1, 50, 80
3, 187580, Note_off_c, 1, 50, 100
3, 187584, Note_on_c, 1, 53, 80
3, 187772, Note_off_c, 1, 53, 100
3, 187776, Note_on_c, 1, 57, 80
3, 187964, Note_off_c, 1, 57, 100
3, 187968, Note_on_c, 1, 53, 80
3, 188156, Note_off_c, 1, 53, 100
3, 188160, Note_on_c, 1, 57, 80
3, 188348, Note_off_c, 1, 57, 100
3, 188352, Note_on_c, 1, 53, 80
3, 188540, Note_off_c, 1, 53, 100
3, 188544, Note_on_c, 1, 50, 80
3, 188732, Note_off_c, 1, 50, 100
3, 188736, Note_on_c, 1, 53, 80
3, 188924, Note_off_c, 1, 53, 100
3, 188928, Note_on_c, 1, 50, 80
3, 189116, Note_off_c, 1, 50, 100
3, 189120, Note_on_c, 1, 52, 80
3, 189308, Note_off_c, 1, 52, 100
3, 189312, Note_on_c, 1, 59, 80
3, 189500, Note_off_c, 1, 59, 100
3, 189504, Note_on_c, 1, 52, 80
3, 189692, Note_off_c, 1, 52, 100
3, 189696, Note_on_c, 1, 59, 80
3, 189884, Note_off_c, 1, 59, 100
3, 189888, Note_on_c, 1, 52, 80
3, 190076, Note_off_c, 1, 52, 100
3, 190080, Note_on_c, 1, 50, 80
3, 190268, Note_off_c, 1, 50, 100
3, 190272, Note_on_c, 1, 52, 80
3, 190460, Note_off_c, 1, 52, 100
3, 190464, Note_on_c, 1, 49, 80
3, 190652, Note_off_c, 1, 49, 100
3, 190656, Note_on_c, 1, 52, 80
3, 190844, Note_off_c, 1, 52, 100
3, 190848, Note_on_c, 1, 57, 80
3, 191036, Note_off_c, 1, 57, 100
3, 191040, Note_on_c, 1, 52, 80
3, 191228, Note_off_c, 1, 52, 100
3, 191232, Note_on_c, 1, 57, 80
3, 191420, Note_off_c, 1, 57, 100
3, 191424, Note_on_c, 1, 52, 80
3, 191612, Note_off_c, 1, 52, 100
3, 191616, Note_on_c, 1, 49, 80
3, 191804, Note_off_c, 1, 49, 100
3, 191808, Note_on_c, 1, 52, 80
3, 191996, Note_off_c, 1, 52, 100
3, 192000, Note_on_c, 1, 48, 80
3, 192188, Note_off_c, 1, 48, 100
3, 192192, Note_on_c, 1, 50, 80
3, 192380, Note_off_c, 1, 50, 100
3, 192384, Note_on_c, 1, 57, 80
3, 192572, Note_off_c, 1, 57, 100
3, 192576, Note_on_c, 1, 50, 80
3, 192764, Note_off_c, 1, 50, 100
3, 192768, Note_on_c, 1, 57, 80
3, 192956, Note_off_c, 1, 57, 100
3, 192960, Note_on_c, 1, 50, 80
3, 193148, Note_off_c, 1, 50, 100
3, 193152, Note_on_c, 1, 48, 80
3, 193340, Note_off_c, 1, 48, 100
3, 193344, Note_on_c, 1, 50, 80
3, 193532, Note_off_c, 1, 50, 100
3, 193536, Note_on_c, 1, 46, 80
3, 193724, Note_off_c, 1, 46, 100
3, 193728, Note_on_c, 1, 50, 80
3, 193916, Note_off_c, 1, 50, 100
3, 193920, Note_on_c, 1, 55, 80
3, 194108, Note_off_c, 1, 55, 100
3, 194112, Note_on_c, 1, 50, 80
3, 194300, Note_off_c, 1, 50, 100
3, 194304, Note_on_c, 1, 45, 80
3, 194492, Note_off_c, 1, 45, 100
3, 194496, Note_on_c, 1, 50, 80
3, 194684, Note_off_c, 1, 50, 100
3, 194688, Note_on_c, 1, 53, 80
3, 194876, Note_off_c, 1, 53, 100
3, 194880, Note_on_c, 1, 50, 80
3, 195068, Note_off_c, 1, 50, 100
3, 195072, Note_on_c, 1, 44, 80
3, 195260, Note_off_c, 1, 44, 100
3, 195264, Note_on_c, 1, 47, 80
3, 195452, Note_off_c, 1, 47, 100
3, 195456, Note_on_c, 1, 52, 80
3, 195644, Note_off_c, 1, 52, 100
3, 195648, Note_on_c, 1, 56, 80
3, 195836, Note_off_c, 1, 56, 100
3, 195840, Note_on_c, 1, 59, 80
3, 196028, Note_off_c, 1, 59, 100
3, 196032, Note_on_c, 1, 56, 80
3, 196220, Note_off_c, 1, 56, 100
3, 196224, Note_on_c, 1, 52, 80
3, 196412, Note_off_c, 1, 52, 100
3, 196416, Note_on_c, 1, 56, 80
3, 196604, Note_off_c, 1, 56, 100
3, 196608, Note_on_c, 1, 57, 110
3, 196796, Note_off_c, 1, 57, 100
3, 196800, Note_on_c, 1, 60, 110
3, 196800, Note_on_c, 1, 64, 110
3, 196988, Note_off_c, 1, 60, 100
3, 196988, Note_off_c, 1, 64, 100
3, 196992, Note_on_c, 1, 60, 110
3, 196992, Note_on_c, 1, 64, 110
3, 197180, Note_off_c, 1, 60, 100
3, 197180, Note_off_c, 1, 64, 100
3, 197184, Note_on_c, 1, 60, 110
3, 197184, Note_on_c, 1, 64, 110
3, 197372, Note_off_c, 1, 60, 100
3, 197372, Note_off_c, 1, 64, 100
3, 197376, Note_on_c, 1, 60, 110
3, 197376, Note_on_c, 1, 64, 110
3, 197564, Note_off_c, 1, 60, 100
3, 197564, Note_off_c, 1, 64, 100
3, 197568, Note_on_c, 1, 60, 110
3, 197568, Note_on_c, 1, 64, 110
3, 197756, Note_off_c, 1, 60, 100
3, 197756, Note_off_c, 1, 64, 100
3, 197760, Note_on_c, 1, 62, 110
3, 197760, Note_on_c, 1, 64, 110
3, 197948, Note_off_c, 1, 62, 100
3, 197948, Note_off_c, 1, 64, 100
3, 197952, Note_on_c, 1, 62, 110
3, 197952, Note_on_c, 1, 64, 110
3, 198140, Note_off_c, 1, 62, 100
3, 198140, Note_off_c, 1, 64, 100
3, 198144, Note_on_c, 1, 57, 110
3, 198332, Note_off_c, 1, 57, 100
3, 198336, Note_on_c, 1, 60, 110
3, 198336, Note_on_c, 1, 64, 110
3, 198524, Note_off_c, 1, 60, 100
3, 198524, Note_off_c, 1, 64, 100
3, 198528, Note_on_c, 1, 60, 110
3, 198528, Note_on_c, 1, 64, 110
3, 198716, Note_off_c, 1, 60, 100
3, 198716, Note_off_c, 1, 64, 100
3, 198720, Note_on_c, 1, 60, 110
3, 198720, Note_on_c, 1, 64, 110
3, 198908, Note_off_c, 1, 60, 100
3, 198908, Note_off_c, 1, 64, 100
3, 198912, Note_on_c, 1, 50, 110
3, 199100, Note_off_c, 1, 50, 100
3, 199104, Note_on_c, 1, 60, 110
3, 199104, Note_on_c, 1, 62, 110
3, 199292, Note_off_c, 1, 60, 100
3, 199292, Note_off_c, 1, 62, 100
3, 199296, Note_on_c, 1, 60, 110
3, 199296, Note_on_c, 1, 62, 110
3, 199484, Note_off_c, 1, 60, 100
3, 199484, Note_off_c, 1, 62, 100
3, 199488, Note_on_c, 1, 60, 110
3, 199488, Note_on_c, 1, 62, 110
3, 199676, Note_off_c, 1, 60, 100
3, 199676, Note_off_c, 1, 62, 100
3, 199680, Note_on_c, 1, 55, 110
3, 199868, Note_off_c, 1, 55, 100
3, 199872, Note_on_c, 1, 58, 110
3, 199872, Note_on_c, 1, 62, 110
3, 200060, Note_off_c, 1, 58, 100
3, 200060, Note_off_c, 1, 62, 100
3, 200064, Note_on_c, 1, 58, 110
3, 200064, Note_on_c, 1, 62, 110
3, 200252, Note_off_c, 1, 58, 100
3, 200252, Note_off_c, 1, 62, 100
3, 200256, Note_on_c, 1, 58, 110
3, 200256, Note_on_c, 1, 62, 110
3, 200444, Note_off_c, 1, 58, 100
3, 200444, Note_off_c, 1, 62, 100
3, 200448, Note_on_c, 1, 58, 110
3, 200448, Note_on_c, 1, 62, 110
3, 200636, Note_off_c, 1, 58, 100
3, 200636, Note_off_c, 1, 62, 100
3, 200640, Note_on_c, 1, 58, 110
3, 200640, Note_on_c, 1, 62, 110
3, 200828, Note_off_c, 1, 58, 100
3, 200828, Note_off_c, 1, 62, 100
3, 200832, Note_on_c, 1, 60, 110
3, 200832, Note_on_c, 1, 62, 110
3, 201020, Note_off_c, 1, 60, 100
3, 201020, Note_off_c, 1, 62, 100
3, 201024, Note_on_c, 1, 60, 110
3, 201024, Note_on_c, 1, 62, 110
3, 201212, Note_off_c, 1, 60, 100
3, 201212, Note_off_c, 1, 62, 100
3, 201216, Note_on_c, 1, 55, 110
3, 201404, Note_off_c, 1, 55, 100
3, 201408, Note_on_c, 1, 58, 110
3, 201408, Note_on_c, 1, 62, 110
3, 201596, Note_off_c, 1, 58, 100
3, 201596, Note_off_c, 1, 62, 100
3, 201600, Note_on_c, 1, 58, 110
3, 201600, Note_on_c, 1, 62, 110
3, 201788, Note_off_c, 1, 58, 100
3, 201788, Note_off_c, 1, 62, 100
3, 201792, Note_on_c, 1, 58, 110
3, 201792, Note_on_c, 1, 62, 110
3, 201980, Note_off_c, 1, 58, 100
3, 201980, Note_off_c, 1, 62, 100
3, 201984, Note_on_c, 1, 51, 110
3, 202172, Note_off_c, 1, 51, 100
3, 202176, Note_on_c, 1, 63, 110
3, 202364, Note_off_c, 1, 63, 100
3, 202368, Note_on_c, 1, 63, 110
3, 202556, Note_off_c, 1, 63, 100
3, 202560, Note_on_c, 1, 63, 110
3, 202748, Note_off_c, 1, 63, 100
3, 202752, Note_on_c, 1, 62, 110
3, 202752, Note_on_c, 1, 50, 110
3, 202940, Note_off_c, 1, 62, 100
3, 202940, Note_off_c, 1, 50, 100
3, 202944, Note_on_c, 1, 54, 110
3, 202944, Note_on_c, 1, 57, 110
3, 203132, Note_off_c, 1, 54, 100
3, 203132, Note_off_c, 1, 57, 100
3, 203136, Note_on_c, 1, 57, 110
3, 203136, Note_on_c, 1, 54, 110
3, 203324, Note_off_c, 1, 57, 100
3, 203324, Note_off_c, 1, 54, 100
3, 203328, Note_on_c, 1, 54, 110
3, 203328, Note_on_c, 1, 57, 110
3, 203516, Note_off_c, 1, 54, 100
3, 203516, Note_off_c, 1, 57, 100
3, 203520, Note_on_c, 1, 54, 110
3, 203520, Note_on_c, 1, 57, 110
3, 203708, Note_off_c, 1, 54, 100
3, 203708, Note_off_c, 1, 57, 100
3, 203712, Note_on_c, 1, 54, 110
3, 203712, Note_on_c, 1, 57, 110
3, 203900, Note_off_c, 1, 54, 100
3, 203900, Note_off_c, 1, 57, 100
3, 203904, Note_on_c, 1, 50, 110
3, 203904, Note_on_c, 1, 64, 110
3, 204092, Note_off_c, 1, 50, 100
3, 204092, Note_off_c, 1, 64, 100
3, 204096, Note_on_c, 1, 55, 110
3, 204096, Note_on_c, 1, 57, 110
3, 204284, Note_off_c, 1, 55, 100
3, 204284, Note_off_c, 1, 57, 100
3, 204288, Note_on_c, 1, 62, 110
3, 204288, Note_on_c, 1, 50, 110
3, 204476, Note_off_c, 1, 62, 100
3, 204476, Note_off_c, 1, 50, 100
3, 204480, Note_on_c, 1, 54, 110
3, 204480, Note_on_c, 1, 57, 110
3, 204668, Note_off_c, 1, 54, 100
3, 204668, Note_off_c, 1, 57, 100
3, 204672, Note_on_c, 1, 57, 110
3, 204672, Note_on_c, 1, 54, 110
3, 204860, Note_off_c, 1, 57, 100
3, 204860, Note_off_c, 1, 54, 100
3, 204864, Note_on_c, 1, 54, 110
3, 204864, Note_on_c, 1, 57, 110
3, 205052, Note_off_c, 1, 54, 100
3, 205052, Note_off_c, 1, 57, 100
3, 205056, Note_on_c, 1, 54, 110
3, 205056, Note_on_c, 1, 57, 110
3, 205244, Note_off_c, 1, 54, 100
3, 205244, Note_off_c, 1, 57, 100
3, 205248, Note_on_c, 1, 54, 110
3, 205248, Note_on_c, 1, 57, 110
3, 205436, Note_off_c, 1, 54, 100
3, 205436, Note_off_c, 1, 57, 100
3, 205440, Note_on_c, 1, 50, 110
3, 205628, Note_off_c, 1, 50, 100
3, 205632, Note_on_c, 1, 55, 110
3, 205632, Note_on_c, 1, 57, 110
3, 205820, Note_off_c, 1, 55, 100
3, 205820, Note_off_c, 1, 57, 100
3, 205824, Note_on_c, 1, 57, 80
3, 205824, Note_on_c, 1, 54, 80
3, 205824, Note_on_c, 1, 50, 80
3, 206204, Note_off_c, 1, 57, 100
3, 206204, Note_off_c, 1, 54, 100
3, 206204, Note_off_c, 1, 50, 100
3, 208896, Note_on_c, 1, 50, 80
3, 208896, Note_on_c, 1, 43, 80
3, 210428, Note_off_c, 1, 50, 100
3, 210428, Note_off_c, 1, 43, 100
3, 210432, Note_on_c, 1, 47, 80
3, 210624, Note_on_c, 1, 50, 80
3, 210812, Note_off_c, 1, 50, 100
3, 210816, Note_on_c, 1, 49, 80
3, 211004, Note_off_c, 1, 49, 100
3, 211008, Note_on_c, 1, 50, 80
3, 211196, Note_off_c, 1, 50, 100
3, 211200, Note_on_c, 1, 55, 80
3, 211388, Note_off_c, 1, 55, 100
3, 211392, Note_on_c, 1, 50, 80
3, 211580, Note_off_c, 1, 50, 100
3, 211584, Note_on_c, 1, 59, 80
3, 211772, Note_off_c, 1, 59, 100
3, 211776, Note_on_c, 1, 50, 80
3, 211964, Note_off_c, 1, 47, 100
3, 211964, Note_off_c, 1, 50, 100
3, 211968, Note_on_c, 1, 48, 80
3, 211968, Note_on_c, 1, 60, 80
3, 212732, Note_off_c, 1, 60, 100
3, 212736, Note_on_c, 1, 57, 80
3, 213116, Note_off_c, 1, 57, 100
3, 213120, Note_on_c, 1, 54, 80
3, 213500, Note_off_c, 1, 48, 100
3, 213500, Note_off_c, 1, 54, 100
3, 213504, Note_on_c, 1, 45, 80
3, 213696, Note_on_c, 1, 50, 80
3, 213884, Note_off_c, 1, 50, 100
3, 213888, Note_on_c, 1, 49, 80
3, 214076, Note_off_c, 1, 49, 100
3, 214080, Note_on_c, 1, 50, 80
3, 214268, Note_off_c, 1, 50, 100
3, 214272, Note_on_c, 1, 54, 80
3, 214460, Note_off_c, 1, 54, 100
3, 214464, Note_on_c, 1, 50, 80
3, 214652, Note_off_c, 1, 50, 100
3, 214656, Note_on_c, 1, 57, 80
3, 214844, Note_off_c, 1, 57, 100
3, 214848, Note_on_c, 1, 50, 80
3, 215036, Note_off_c, 1, 45, 100
3, 215036, Note_off_c, 1, 50, 100
3, 215040, Note_on_c, 1, 59, 80
3, 215040, Note_on_c, 1, 47, 80
3, 216572, Note_off_c, 1, 59, 100
3, 216572, Note_off_c, 1, 47, 100
3, 216576, Note_on_c, 1, 55, 101
3, 216576, Note_on_c, 1, 52, 101
3, 216576, Note_on_c, 1, 50, 101
3, 216576, Note_on_c, 1, 43, 101
3, 218108, Note_off_c, 1, 55, 100
3, 218108, Note_off_c, 1, 52, 100
3, 218108, Note_off_c, 1, 50, 100
3, 218108, Note_off_c, 1, 43, 100
3, 218112, Note_on_c, 1, 55, 96
3, 218112, Note_on_c, 1, 52, 96
3, 218112, Note_on_c, 1, 49, 96
3, 218112, Note_on_c, 1, 45, 96
3, 219644, Note_off_c, 1, 55, 100
3, 219644, Note_off_c, 1, 52, 100
3, 219644, Note_off_c, 1, 49, 100
3, 219644, Note_off_c, 1, 45, 100
3, 219648, Note_on_c, 1, 54, 88
3, 219648, Note_on_c, 1, 50, 88
3, 220028, Note_off_c, 1, 54, 100
3, 220028, Note_off_c, 1, 50, 100
3, 221184, Note_on_c, 1, 43, 80
3, 221372, Note_off_c, 1, 43, 100
3, 221376, Note_on_c, 1, 50, 80
3, 221564, Note_off_c, 1, 50, 100
3, 221568, Note_on_c, 1, 49, 80
3, 221756, Note_off_c, 1, 49, 100
3, 221760, Note_on_c, 1, 50, 80
3, 221948, Note_off_c, 1, 50, 100
3, 221952, Note_on_c, 1, 55, 80
3, 222140, Note_off_c, 1, 55, 100
3, 222144, Note_on_c, 1, 50, 80
3, 222332, Note_off_c, 1, 50, 100
3, 222336, Note_on_c, 1, 59, 80
3, 222524, Note_off_c, 1, 59, 100
3, 222528, Note_on_c, 1, 50, 80
3, 222716, Note_off_c, 1, 50, 100
3, 222720, Note_on_c, 1, 62, 80
3, 222720, Note_on_c, 1, 47, 80
3, 223484, Note_off_c, 1, 62, 100
3, 223488, Note_on_c, 1, 59, 80
3, 223868, Note_off_c, 1, 59, 100
3, 223872, Note_on_c, 1, 55, 80
3, 224252, Note_off_c, 1, 47, 100
3, 224252, Note_off_c, 1, 55, 100
3, 224256, Note_on_c, 1, 45, 80
3, 224256, Note_on_c, 1, 54, 80
3, 224444, Note_off_c, 1, 54, 100
3, 224448, Note_on_c, 1, 50, 80
3, 224636, Note_off_c, 1, 50, 100
3, 224640, Note_on_c, 1, 49, 80
3, 224828, Note_off_c, 1, 49, 100
3, 224832, Note_on_c, 1, 50, 80
3, 225020, Note_off_c, 1, 50, 100
3, 225024, Note_on_c, 1, 54, 80
3, 225212, Note_off_c, 1, 54, 100
3, 225216, Note_on_c, 1, 50, 80
3, 225404, Note_off_c, 1, 50, 100
3, 225408, Note_on_c, 1, 57, 80
3, 225596, Note_off_c, 1, 57, 100
3, 225600, Note_on_c, 1, 50, 80
3, 225788, Note_off_c, 1, 45, 100
3, 225788, Note_off_c, 1, 50, 100
3, 225792, Note_on_c, 1, 48, 80
3, 225792, Note_on_c, 1, 60, 80
3, 226556, Note_off_c, 1, 60, 100
3, 226560, Note_on_c, 1, 57, 80
3, 226940, Note_off_c, 1, 57, 100
3, 226944, Note_on_c, 1, 54, 80
3, 227324, Note_off_c, 1, 48, 100
3, 227324, Note_off_c, 1, 54, 100
3, 227328, Note_on_c, 1, 55, 80
3, 227328, Note_on_c, 1, 50, 80
3, 227328, Note_on_c, 1, 47, 80
3, 228860, Note_off_c, 1, 55, 100
3, 228860, Note_off_c, 1, 50, 100
3, 228860, Note_off_c, 1, 47, 100
3, 228864, Note_on_c, 1, 59, 110
3, 228864, Note_on_c, 1, 53, 110
3, 228864, Note_on_c, 1, 50, 110
3, 228864, Note_on_c, 1, 43, 110
3, 230396, Note_off_c, 1, 59, 100
3, 230396, Note_off_c, 1, 53, 100
3, 230396, Note_off_c, 1, 50, 100
3, 230396, Note_off_c, 1, 43, 100
3, 230400, Note_on_c, 1, 60, 110
3, 230400, Note_on_c, 1, 55, 110
3, 230400, Note_on_c, 1, 52, 110
3, 230400, Note_on_c, 1, 48, 110
3, 230780, Note_off_c, 1, 60, 100
3, 230780, Note_off_c, 1, 55, 100
3, 230780, Note_off_c, 1, 52, 100
3, 230780, Note_off_c, 1, 48, 100
3, 230784, Note_on_c, 1, 64, 110
3, 230784, Note_on_c, 1, 60, 110
3, 230972, Note_off_c, 1, 64, 100
3, 230972, Note_off_c, 1, 60, 100
3, 230976, Note_on_c, 1, 64, 110
3, 230976, Note_on_c, 1, 60, 110
3, 231164, Note_off_c, 1, 64, 100
3, 231164, Note_off_c, 1, 60, 100
3, 231168, Note_on_c, 1, 64, 110
3, 231168, Note_on_c, 1, 60, 110
3, 231548, Note_off_c, 1, 64, 100
3, 231548, Note_off_c, 1, 60, 100
3, 231552, Note_on_c, 1, 67, 110
3, 231552, Note_on_c, 1, 64, 110
3, 231740, Note_off_c, 1, 67, 100
3, 231740, Note_off_c, 1, 64, 100
3, 231744, Note_on_c, 1, 67, 110
3, 231744, Note_on_c, 1, 64, 110
3, 231932, Note_off_c, 1, 67, 100
3, 231932, Note_off_c, 1, 64, 100
3, 231936, Note_on_c, 1, 67, 110
3, 231936, Note_on_c, 1, 64, 110
3, 232316, Note_off_c, 1, 67, 100
3, 232316, Note_off_c, 1, 64, 100
3, 232320, Note_on_c, 1, 67, 110
3, 232320, Note_on_c, 1, 72, 110
3, 232508, Note_off_c, 1, 67, 100
3, 232508, Note_off_c, 1, 72, 100
3, 232512, Note_on_c, 1, 67, 110
3, 232512, Note_on_c, 1, 72, 110
3, 232700, Note_off_c, 1, 67, 100
3, 232700, Note_off_c, 1, 72, 100
3, 232704, Note_on_c, 1, 67, 110
3, 232704, Note_on_c, 1, 72, 110
3, 233084, Note_off_c, 1, 67, 100
3, 233084, Note_off_c, 1, 72, 100
3, 233472, Note_on_c, 1, 60, 110
3, 233472, Note_on_c, 1, 57, 110
3, 233472, Note_on_c, 1, 54, 110
3, 233472, Note_on_c, 1, 48, 110
3, 233852, Note_off_c, 1, 60, 100
3, 233852, Note_off_c, 1, 57, 100
3, 233852, Note_off_c, 1, 54, 100
3, 233852, Note_off_c, 1, 48, 100
3, 233856, Note_on_c, 1, 60, 110
3, 233856, Note_on_c, 1, 66, 110
3, 234044, Note_off_c, 1, 60, 100
3, 234044, Note_off_c, 1, 66, 100
3, 234048, Note_on_c, 1, 66, 110
3, 234048, Note_on_c, 1, 60, 110
3, 234236, Note_off_c, 1, 66, 100
3, 234236, Note_off_c, 1, 60, 100
3, 234240, Note_on_c, 1, 60, 110
3, 234240, Note_on_c, 1, 66, 110
3, 234620, Note_off_c, 1, 60, 100
3, 234620, Note_off_c, 1, 66, 100
3, 234624, Note_on_c, 1, 66, 110
3, 234624, Note_on_c, 1, 72, 110
3, 234812, Note_off_c, 1, 66, 100
3, 234812, Note_off_c, 1, 72, 100
3, 234816, Note_on_c, 1, 66, 110
3, 234816, Note_on_c, 1, 72, 110
3, 235004, Note_off_c, 1, 66, 100
3, 235004, Note_off_c, 1, 72, 100
3, 235008, Note_on_c, 1, 66, 110
3, 235008, Note_on_c, 1, 72, 110
3, 235388, Note_off_c, 1, 66, 100
3, 235388, Note_off_c, 1, 72, 100
3, 235392, Note_on_c, 1, 60, 110
3, 235392, Note_on_c, 1, 66, 110
3, 235580, Note_off_c, 1, 60, 100
3, 235580, Note_off_c, 1, 66, 100
3, 235584, Note_on_c, 1, 60, 110
3, 235584, Note_on_c, 1, 66, 110
3, 235772, Note_off_c, 1, 60, 100
3, 235772, Note_off_c, 1, 66, 100
3, 235776, Note_on_c, 1, 60, 110
3, 235776, Note_on_c, 1, 66, 110
3, 236156, Note_off_c, 1, 60, 100
3, 236156, Note_off_c, 1, 66, 100
3, 236544, Note_on_c, 1, 55, 110
3, 236544, Note_on_c, 1, 50, 110
3, 236544, Note_on_c, 1, 47, 110
3, 236924, Note_off_c, 1, 55, 100
3, 236924, Note_off_c, 1, 50, 100
3, 236924, Note_off_c, 1, 47, 100
3, 236928, Note_on_c, 1, 55, 110
3, 236928, Note_on_c, 1, 59, 110
3, 237116, Note_off_c, 1, 55, 100
3, 237116, Note_off_c, 1, 59, 100
3, 237120, Note_on_c, 1, 55, 110
3, 237120, Note_on_c, 1, 59, 110
3, 237308, Note_off_c, 1, 55, 100
3, 237308, Note_off_c, 1, 59, 100
3, 237312, Note_on_c, 1, 55, 110
3, 237312, Note_on_c, 1, 59, 110
3, 237692, Note_off_c, 1, 55, 100
3, 237692, Note_off_c, 1, 59, 100
3, 237696, Note_on_c, 1, 59, 110
3, 237696, Note_on_c, 1, 62, 110
3, 237884, Note_off_c, 1, 59, 100
3, 237884, Note_off_c, 1, 62, 100
3, 237888, Note_on_c, 1, 59, 110
3, 237888, Note_on_c, 1, 62, 110
3, 238076, Note_off_c, 1, 59, 100
3, 238076, Note_off_c, 1, 62, 100
3, 238080, Note_on_c, 1, 59, 110
3, 238080, Note_on_c, 1, 62, 110
3, 238460, Note_off_c, 1, 59, 100
3, 238460, Note_off_c, 1, 62, 100
3, 238464, Note_on_c, 1, 62, 110
3, 238464, Note_on_c, 1, 67, 110
3, 238652, Note_off_c, 1, 62, 100
3, 238652, Note_off_c, 1, 67, 100
3, 238656, Note_on_c, 1, 62, 110
3, 238656, Note_on_c, 1, 67, 110
3, 238844, Note_off_c, 1, 62, 100
3, 238844, Note_off_c, 1, 67, 100
3, 238848, Note_on_c, 1, 62, 110
3, 238848, Note_on_c, 1, 67, 110
3, 239228, Note_off_c, 1, 62, 100
3, 239228, Note_off_c, 1, 67, 100
3, 239232, Note_on_c, 1, 67, 110
3, 239232, Note_on_c, 1, 71, 110
3, 239420, Note_off_c, 1, 67, 100
3, 239420, Note_off_c, 1, 71, 100
3, 239424, Note_on_c, 1, 67, 110
3, 239424, Note_on_c, 1, 71, 110
3, 239612, Note_off_c, 1, 67, 100
3, 239612, Note_off_c, 1, 71, 100
3, 239616, Note_on_c, 1, 67, 110
3, 239616, Note_on_c, 1, 71, 110
3, 239804, Note_off_c, 1, 67, 100
3, 239804, Note_off_c, 1, 71, 100
3, 239808, Note_on_c, 1, 70, 110
3, 239996, Note_off_c, 1, 70, 100
3, 240000, Note_on_c, 1, 72, 110
3, 240188, Note_off_c, 1, 72, 100
3, 240192, Note_on_c, 1, 71, 110
3, 240380, Note_off_c, 1, 71, 100
3, 240384, Note_on_c, 1, 67, 110
3, 240384, Note_on_c, 1, 71, 110
3, 240572, Note_off_c, 1, 67, 100
3, 240572, Note_off_c, 1, 71, 100
3, 240576, Note_on_c, 1, 70, 110
3, 240764, Note_off_c, 1, 70, 100
3, 240768, Note_on_c, 1, 72, 110
3, 240956, Note_off_c, 1, 72, 100
3, 240960, Note_on_c, 1, 71, 110
3, 241148, Note_off_c, 1, 71, 100
3, 241152, Note_on_c, 1, 67, 110
3, 241152, Note_on_c, 1, 71, 110
3, 241340, Note_off_c, 1, 67, 100
3, 241340, Note_off_c, 1, 71, 100
3, 241344, Note_on_c, 1, 70, 110
3, 241532, Note_off_c, 1, 70, 100
3, 241536, Note_on_c, 1, 72, 110
3, 241724, Note_off_c, 1, 72, 100
3, 241728, Note_on_c, 1, 71, 110
3, 241916, Note_off_c, 1, 71, 100
3, 241920, Note_on_c, 1, 67, 110
3, 241920, Note_on_c, 1, 71, 110
3, 242108, Note_off_c, 1, 67, 100
3, 242108, Note_off_c, 1, 71, 100
3, 242112, Note_on_c, 1, 70, 110
3, 242300, Note_off_c, 1, 70, 100
3, 242304, Note_on_c, 1, 72, 110
3, 242492, Note_off_c, 1, 72, 100
3, 242496, Note_on_c, 1, 71, 110
3, 242684, Note_off_c, 1, 71, 100
3, 242880, Note_on_c, 1, 59, 110
3, 242880, Note_on_c, 1, 71, 110
3, 243260, Note_off_c, 1, 59, 100
3, 243260, Note_off_c, 1, 71, 100
3, 243264, Note_on_c, 1, 57, 110
3, 243264, Note_on_c, 1, 69, 110
3, 243644, Note_off_c, 1, 57, 100
3, 243644, Note_off_c, 1, 69, 100
3, 243648, Note_on_c, 1, 55, 110
3, 243648, Note_on_c, 1, 67, 110
3, 244028, Note_off_c, 1, 55, 100
3, 244028, Note_off_c, 1, 67, 100
3, 244032, Note_on_c, 1, 54, 110
3, 244032, Note_on_c, 1, 66, 110
3, 244412, Note_off_c, 1, 54, 100
3, 244412, Note_off_c, 1, 66, 100
3, 244416, Note_on_c, 1, 52, 110
3, 244416, Note_on_c, 1, 64, 110
3, 244796, Note_off_c, 1, 52, 100
3, 244796, Note_off_c, 1, 64, 100
3, 244800, Note_on_c, 1, 50, 110
3, 244800, Note_on_c, 1, 62, 110
3, 245180, Note_off_c, 1, 50, 100
3, 245180, Note_off_c, 1, 62, 100
3, 245184, Note_on_c, 1, 48, 110
3, 245184, Note_on_c, 1, 60, 110
3, 245564, Note_off_c, 1, 48, 100
3, 245564, Note_off_c, 1, 60, 100
3, 245568, Note_on_c, 1, 47, 110
3, 245568, Note_on_c, 1, 59, 110
3, 245948, Note_off_c, 1, 47, 100
3, 245948, Note_off_c, 1, 59, 100
3, 245952, Note_on_c, 1, 45, 110
3, 245952, Note_on_c, 1, 57, 110
3, 246332, Note_off_c, 1, 45, 100
3, 246332, Note_off_c, 1, 57, 100
3, 246336, Note_on_c, 1, 43, 110
3, 246336, Note_on_c, 1, 55, 110
3, 246716, Note_off_c, 1, 43, 100
3, 246716, Note_off_c, 1, 55, 100
3, 246720, Note_on_c, 1, 42, 110
3, 246720, Note_on_c, 1, 54, 110
3, 247100, Note_off_c, 1, 42, 100
3, 247100, Note_off_c, 1, 54, 100
3, 247104, Note_on_c, 1, 40, 110
3, 247104, Note_on_c, 1, 52, 110
3, 247484, Note_off_c, 1, 40, 100
3, 247484, Note_off_c, 1, 52, 100
3, 247488, Note_on_c, 1, 38, 110
3, 247488, Note_on_c, 1, 50, 110
3, 247868, Note_off_c, 1, 38, 100
3, 247868, Note_off_c, 1, 50, 100
3, 247872, Note_on_c, 1, 36, 110
3, 247872, Note_on_c, 1, 48, 110
3, 248252, Note_off_c, 1, 36, 100
3, 248252, Note_off_c, 1, 48, 100
3, 248256, Note_on_c, 1, 47, 110
3, 248256, Note_on_c, 1, 35, 110
3, 248636, Note_off_c, 1, 47, 100
3, 248636, Note_off_c, 1, 35, 100
3, 248640, Note_on_c, 1, 43, 110
3, 248640, Note_on_c, 1, 33, 110
3, 248828, Note_off_c, 1, 43, 100
3, 248828, Note_off_c, 1, 33, 100
3, 249216, Note_on_c, 1, 43, 120
3, 249216, Note_on_c, 1, 31, 120
3, 249596, Note_off_c, 1, 43, 100
3, 249596, Note_off_c, 1, 31, 100
3, 250752, Note_on_c, 1, 51, 120
3, 250752, Note_on_c, 1, 39, 120
3, 251132, Note_off_c, 1, 51, 100
3, 251132, Note_off_c, 1, 39, 100
3, 252288, Note_on_c, 1, 52, 120
3, 252288, Note_on_c, 1, 40, 120
3, 252668, Note_off_c, 1, 52, 100
3, 252668, Note_off_c, 1, 40, 100
3, 253440, Note_on_c, 1, 48, 120
3, 253440, Note_on_c, 1, 36, 120
3, 253820, Note_off_c, 1, 48, 100
3, 253820, Note_off_c, 1, 36, 100
3, 254208, Note_on_c, 1, 50, 120
3, 254208, Note_on_c, 1, 38, 120
3, 254588, Note_off_c, 1, 50, 100
3, 254588, Note_off_c, 1, 38, 100
3, 254976, Note_on_c, 1, 43, 120
3, 254976, Note_on_c, 1, 31, 120
3, 255356, Note_off_c, 1, 43, 100
3, 255356, Note_off_c, 1, 31, 100
3, 255744, Note_on_c, 1, 48, 80
3, 256124, Note_off_c, 1, 48, 100
3, 256128, Note_on_c, 1, 48, 80
3, 256508, Note_off_c, 1, 48, 100
3, 256512, Note_on_c, 1, 50, 80
3, 256560, Note_on_c, 1, 48, 80
3, 256604, Note_off_c, 1, 50, 100
3, 256608, Note_on_c, 1, 50, 80
3, 256652, Note_off_c, 1, 48, 100
3, 256656, Note_on_c, 1, 48, 80
3, 256700, Note_off_c, 1, 50, 100
3, 256704, Note_on_c, 1, 47, 80
3, 256748, Note_off_c, 1, 48, 100
3, 256796, Note_off_c, 1, 47, 100
3, 256800, Note_on_c, 1, 48, 80
3, 256892, Note_off_c, 1, 48, 100
3, 256896, Note_on_c, 1, 45, 80
3, 257276, Note_off_c, 1, 45, 100
3, 257280, Note_on_c, 1, 57, 70
3, 257280, Note_on_c, 1, 50, 70
3, 258044, Note_off_c, 1, 57, 100
3, 258044, Note_off_c, 1, 50, 100
3, 258048, Note_on_c, 1, 55, 70
3, 258048, Note_on_c, 1, 43, 70
3, 258428, Note_off_c, 1, 55, 100
3, 258428, Note_off_c, 1, 43, 100
3, 258816, Note_on_c, 1, 48, 80
3, 259196, Note_off_c, 1, 48, 100
3, 259200, Note_on_c, 1, 48, 80
3, 259580, Note_off_c, 1, 48, 100
3, 259584, Note_on_c, 1, 50, 80
3, 259632, Note_on_c, 1, 48, 80
3, 259676, Note_off_c, 1, 50, 100
3, 259680, Note_on_c, 1, 50, 80
3, 259724, Note_off_c, 1, 48, 100
3, 259728, Note_on_c, 1, 48, 80
3, 259772, Note_off_c, 1, 50, 100
3, 259776, Note_on_c, 1, 47, 80
3, 259820, Note_off_c, 1, 48, 100
3, 259868, Note_off_c, 1, 47, 100
3, 259872, Note_on_c, 1, 48, 80
3, 259964, Note_off_c, 1, 48, 100
3, 259968, Note_on_c, 1, 45, 80
3, 260348, Note_off_c, 1, 45, 100
3, 260352, Note_on_c, 1, 60, 70
3, 260352, Note_on_c, 1, 50, 70
3, 261116, Note_off_c, 1, 60, 100
3, 261116, Note_off_c, 1, 50, 100
3, 261120, Note_on_c, 1, 55, 70
3, 261120, Note_on_c, 1, 59, 70
3, 261500, Note_off_c, 1, 55, 100
3, 261500, Note_off_c, 1, 59, 100
3, 261888, Note_on_c, 1, 48, 110
3, 262268, Note_off_c, 1, 48, 100
3, 262272, Note_on_c, 1, 48, 110
3, 262652, Note_off_c, 1, 48, 100
3, 262656, Note_on_c, 1, 50, 110
3, 262704, Note_on_c, 1, 48, 110
3, 262748, Note_off_c, 1, 50, 100
3, 262752, Note_on_c, 1, 50, 110
3, 262796, Note_off_c, 1, 48, 100
3, 262800, Note_on_c, 1, 48, 110
3, 262844, Note_off_c, 1, 50, 100
3, 262848, Note_on_c, 1, 47, 110
3, 262892, Note_off_c, 1, 48, 100
3, 262940, Note_off_c, 1, 47, 100
3, 262944, Note_on_c, 1, 48, 110
3, 263036, Note_off_c, 1, 48, 100
3, 263040, Note_on_c, 1, 45, 110
3, 263420, Note_off_c, 1, 45, 100
3, 263424, Note_on_c, 1, 55, 110
3, 263472, Note_on_c, 1, 54, 110
3, 263516, Note_off_c, 1, 55, 100
3, 263520, Note_on_c, 1, 55, 110
3, 263564, Note_off_c, 1, 54, 100
3, 263568, Note_on_c, 1, 54, 110
3, 263612, Note_off_c, 1, 55, 100
3, 263616, Note_on_c, 1, 52, 110
3, 263660, Note_off_c, 1, 54, 100
3, 263708, Note_off_c, 1, 52, 100
3, 263712, Note_on_c, 1, 54, 110
3, 263804, Note_off_c, 1, 54, 100
3, 263808, Note_on_c, 1, 50, 110
3, 264188, Note_off_c, 1, 50, 100
3, 264192, Note_on_c, 1, 60, 110
3, 264240, Note_on_c, 1, 59, 110
3, 264284, Note_off_c, 1, 60, 100
3, 264288, Note_on_c, 1, 60, 110
3, 264332, Note_off_c, 1, 59, 100
3, 264336, Note_on_c, 1, 59, 110
3, 264380, Note_off_c, 1, 60, 100
3, 264384, Note_on_c, 1, 57, 110
3, 264428, Note_off_c, 1, 59, 100
3, 264476, Note_off_c, 1, 57, 100
3, 264480, Note_on_c, 1, 59, 110
3, 264572, Note_off_c, 1, 59, 100
3, 264576, Note_on_c, 1, 55, 110
3, 264956, Note_off_c, 1, 55, 100
3, 264960, Note_on_c, 1, 65, 110
3, 265008, Note_on_c, 1, 64, 110
3, 265052, Note_off_c, 1, 65, 100
3, 265056, Note_on_c, 1, 65, 110
3, 265100, Note_off_c, 1, 64, 100
3, 265104, Note_on_c, 1, 64, 110
3, 265148, Note_off_c, 1, 65, 100
3, 265152, Note_on_c, 1, 63, 110
3, 265196, Note_off_c, 1, 64, 100
3, 265244, Note_off_c, 1, 63, 100
3, 265248, Note_on_c, 1, 64, 110
3, 265340, Note_off_c, 1, 64, 100
3, 265344, Note_on_c, 1, 61, 110
3, 265724, Note_off_c, 1, 61, 100
3, 265728, Note_on_c, 1, 62, 110
3, 266108, Note_off_c, 1, 62, 100
3, 266496, Note_on_c, 1, 50, 110
3, 266496, Note_on_c, 1, 45, 110
3, 266496, Note_on_c, 1, 42, 110
3, 266496, Note_on_c, 1, 38, 110
3, 266876, Note_off_c, 1, 50, 100
3, 266876, Note_off_c, 1, 45, 100
3, 266876, Note_off_c, 1, 42, 100
3, 266876, Note_off_c, 1, 38, 100
3, 267264, Note_on_c, 1, 43, 120
3, 267356, Note_off_c, 1, 43, 100
3, 267360, Note_on_c, 1, 55, 120
3, 267452, Note_off_c, 1, 55, 100
3, 267456, Note_on_c, 1, 42, 120
3, 267548, Note_off_c, 1, 42, 100
3, 267552, Note_on_c, 1, 54, 120
3, 267644, Note_off_c, 1, 54, 100
3, 267648, Note_on_c, 1, 43, 120
3, 267740, Note_off_c, 1, 43, 100
3, 267744, Note_on_c, 1, 55, 120
3, 267836, Note_off_c, 1, 55, 100
3, 267840, Note_on_c, 1, 45, 120
3, 267932, Note_off_c, 1, 45, 100
3, 267936, Note_on_c, 1, 57, 120
3, 268028, Note_off_c, 1, 57, 100
3, 268032, Note_on_c, 1, 47, 120
3, 268124, Note_off_c, 1, 47, 100
3, 268128, Note_on_c, 1, 59, 120
3, 268220, Note_off_c, 1, 59, 100
3, 268224, Note_on_c, 1, 48, 120
3, 268316, Note_off_c, 1, 48, 100
3, 268320, Note_on_c, 1, 60, 120
3, 268412, Note_off_c, 1, 60, 100
3, 268416, Note_on_c, 1, 49, 120
3, 268508, Note_off_c, 1, 49, 100
3, 268512, Note_on_c, 1, 61, 120
3, 268604, Note_off_c, 1, 61, 100
3, 268608, Note_on_c, 1, 50, 120
3, 268700, Note_off_c, 1, 50, 100
3, 268704, Note_on_c, 1, 62, 120
3, 268796, Note_off_c, 1, 62, 100
3, 268800, Note_on_c, 1, 52, 120
3, 268892, Note_off_c, 1, 52, 100
3, 268896, Note_on_c, 1, 64, 120
3, 268988, Note_off_c, 1, 64, 100
3, 268992, Note_on_c, 1, 50, 120
3, 269084, Note_off_c, 1, 50, 100
3, 269088, Note_on_c, 1, 62, 120
3, 269180, Note_off_c, 1, 62, 100
3, 269184, Note_on_c, 1, 48, 120
3, 269276, Note_off_c, 1, 48, 100
3, 269280, Note_on_c, 1, 60, 120
3, 269372, Note_off_c, 1, 60, 100
3, 269376, Note_on_c, 1, 47, 120
3, 269468, Note_off_c, 1, 47, 100
3, 269472, Note_on_c, 1, 59, 120
3, 269564, Note_off_c, 1, 59, 100
3, 269568, Note_on_c, 1, 45, 120
3, 269660, Note_off_c, 1, 45, 100
3, 269664, Note_on_c, 1, 57, 120
3, 269756, Note_off_c, 1, 57, 100
3, 269760, Note_on_c, 1, 47, 120
3, 269852, Note_off_c, 1, 47, 100
3, 269856, Note_on_c, 1, 59, 120
3, 269948, Note_off_c, 1, 59, 100
3, 269952, Note_on_c, 1, 48, 120
3, 270044, Note_off_c, 1, 48, 100
3, 270048, Note_on_c, 1, 60, 120
3, 270140, Note_off_c, 1, 60, 100
3, 270144, Note_on_c, 1, 45, 120
3, 270236, Note_off_c, 1, 45, 100
3, 270240, Note_on_c, 1, 57, 120
3, 270332, Note_off_c, 1, 57, 100
3, 270336, Note_on_c, 1, 43, 120
3, 270428, Note_off_c, 1, 43, 100
3, 270432, Note_on_c, 1, 55, 120
3, 270524, Note_off_c, 1, 55, 100
3, 270528, Note_on_c, 1, 42, 120
3, 270620, Note_off_c, 1, 42, 100
3, 270624, Note_on_c, 1, 54, 120
3, 270716, Note_off_c, 1, 54, 100
3, 270720, Note_on_c, 1, 40, 120
3, 270812, Note_off_c, 1, 40, 100
3, 270816, Note_on_c, 1, 52, 120
3, 270908, Note_off_c, 1, 52, 100
3, 270912, Note_on_c, 1, 38, 120
3, 271004, Note_off_c, 1, 38, 100
3, 271008, Note_on_c, 1, 50, 120
3, 271100, Note_off_c, 1, 50, 100
3, 271104, Note_on_c, 1, 36, 120
3, 271196, Note_off_c, 1, 36, 100
3, 271200, Note_on_c, 1, 48, 120
3, 271292, Note_off_c, 1, 48, 100
3, 271296, Note_on_c, 1, 35, 120
3, 271388, Note_off_c, 1, 35, 100
3, 271392, Note_on_c, 1, 47, 120
3, 271484, Note_off_c, 1, 47, 100
3, 271488, Note_on_c, 1, 33, 120
3, 271580, Note_off_c, 1, 33, 100
3, 271584, Note_on_c, 1, 45, 120
3, 271676, Note_off_c, 1, 45, 100
3, 271680, Note_on_c, 1, 31, 120
3, 271772, Note_off_c, 1, 31, 100
3, 271776, Note_on_c, 1, 43, 120
3, 271868, Note_off_c, 1, 43, 100
3, 271872, Note_on_c, 1, 42, 120
3, 271872, Note_on_c, 1, 30, 120
3, 272060, Note_off_c, 1, 42, 100
3, 272060, Note_off_c, 1, 30, 100
3, 272064, Note_on_c, 1, 40, 120
3, 272252, Note_off_c, 1, 40, 100
3, 272256, Note_on_c, 1, 38, 120
3, 272444, Note_off_c, 1, 38, 100
3, 272448, Note_on_c, 1, 37, 120
3, 272636, Note_off_c, 1, 37, 100
3, 272640, Note_on_c, 1, 38, 120
3, 272828, Note_off_c, 1, 38, 100
3, 272832, Note_on_c, 1, 36, 120
3, 273020, Note_off_c, 1, 36, 100
3, 273024, Note_on_c, 1, 35, 120
3, 273212, Note_off_c, 1, 35, 100
3, 273216, Note_on_c, 1, 33, 120
3, 273404, Note_off_c, 1, 33, 100
3, 273408, Note_on_c, 1, 31, 120
3, 273788, Note_off_c, 1, 31, 100
3, 274176, Note_on_c, 1, 50, 120
3, 274176, Note_on_c, 1, 45, 120
3, 274176, Note_on_c, 1, 42, 120
3, 274176, Note_on_c, 1, 38, 120
3, 274556, Note_off_c, 1, 50, 100
3, 274556, Note_off_c, 1, 45, 100
3, 274556, Note_off_c, 1, 42, 100
3, 274556, Note_off_c, 1, 38, 100
3, 274944, Note_on_c, 1, 43, 120
3, 274944, Note_on_c, 1, 38, 120
3, 274944, Note_on_c, 1, 31, 120
3, 274944, Note_on_c, 1, 35, 120
3, 275324, Note_off_c, 1, 43, 100
3, 275324, Note_off_c, 1, 38, 100
3, 275324, Note_off_c, 1, 31, 100
3, 275324, Note_off_c, 1, 35, 100
3, 275712, Note_on_c, 1, 50, 80
3, 276092, Note_off_c, 1, 50, 100
3, 276096, Note_on_c, 1, 50, 80
3, 276476, Note_off_c, 1, 50, 100
3, 276480, Note_on_c, 1, 52, 80
3, 276528, Note_on_c, 1, 50, 80
3, 276572, Note_off_c, 1, 52, 100
3, 276576, Note_on_c, 1, 52, 80
3, 276620, Note_off_c, 1, 50, 100
3, 276624, Note_on_c, 1, 50, 80
3, 276668, Note_off_c, 1, 52, 100
3, 276672, Note_on_c, 1, 49, 80
3, 276716, Note_off_c, 1, 50, 100
3, 276764, Note_off_c, 1, 49, 100
3, 276768, Note_on_c, 1, 50, 80
3, 276860, Note_off_c, 1, 50, 100
3, 276864, Note_on_c, 1, 47, 80
3, 277244, Note_off_c, 1, 47, 100
3, 277248, Note_on_c, 1, 55, 70
3, 277248, Note_on_c, 1, 53, 70
3, 278012, Note_off_c, 1, 53, 100
3, 278016, Note_on_c, 1, 51, 70
3, 278396, Note_off_c, 1, 55, 100
3, 278396, Note_off_c, 1, 51, 100
3, 278784, Note_on_c, 1, 55, 80
3, 279164, Note_off_c, 1, 55, 100
3, 279168, Note_on_c, 1, 55, 80
3, 279548, Note_off_c, 1, 55, 100
3, 279552, Note_on_c, 1, 56, 80
3, 279600, Note_on_c, 1, 55, 80
3, 279644, Note_off_c, 1, 56, 100
3, 279648, Note_on_c, 1, 56, 80
3, 279692, Note_off_c, 1, 55, 100
3, 279696, Note_on_c, 1, 55, 80
3, 279740, Note_off_c, 1, 56, 100
3, 279744, Note_on_c, 1, 53, 80
3, 279788, Note_off_c, 1, 55, 100
3, 279836, Note_off_c, 1, 53, 100
3, 279840, Note_on_c, 1, 55, 80
3, 279932, Note_off_c, 1, 55, 100
3, 279936, Note_on_c, 1, 52, 80
3, 280316, Note_off_c, 1, 52, 100
3, 280320, Note_on_c, 1, 58, 70
3, 280320, Note_on_c, 1, 60, 70
3, 281084, Note_off_c, 1, 58, 100
3, 281088, Note_on_c, 1, 56, 70
3, 281468, Note_off_c, 1, 60, 100
3, 281468, Note_off_c, 1, 56, 100
3, 281856, Note_on_c, 1, 56, 110
3, 282236, Note_off_c, 1, 56, 100
3, 282240, Note_on_c, 1, 56, 110
3, 282620, Note_off_c, 1, 56, 100
3, 282624, Note_on_c, 1, 58, 110
3, 282672, Note_on_c, 1, 56, 110
3, 282716, Note_off_c, 1, 58, 100
3, 282720, Note_on_c, 1, 58, 110
3, 282764, Note_off_c, 1, 56, 100
3, 282768, Note_on_c, 1, 56, 110
3, 282812, Note_off_c, 1, 58, 100
3, 282816, Note_on_c, 1, 55, 110
3, 282860, Note_off_c, 1, 56, 100
3, 282908, Note_off_c, 1, 55, 100
3, 282912, Note_on_c, 1, 56, 110
3, 283004, Note_off_c, 1, 56, 100
3, 283008, Note_on_c, 1, 53, 110
3, 283388, Note_off_c, 1, 53, 100
3, 283392, Note_on_c, 1, 63, 110
3, 283440, Note_on_c, 1, 62, 110
3, 283484, Note_off_c, 1, 63, 100
3, 283488, Note_on_c, 1, 63, 110
3, 283532, Note_off_c, 1, 62, 100
3, 283536, Note_on_c, 1, 62, 110
3, 283580, Note_off_c, 1, 63, 100
3, 283584, Note_on_c, 1, 60, 110
3, 283628, Note_off_c, 1, 62, 100
3, 283676, Note_off_c, 1, 60, 100
3, 283680, Note_on_c, 1, 62, 110
3, 283772, Note_off_c, 1, 62, 100
3, 283776, Note_on_c, 1, 58, 110
3, 284156, Note_off_c, 1, 58, 100
3, 284160, Note_on_c, 1, 67, 110
3, 284208, Note_on_c, 1, 65, 110
3, 284252, Note_off_c, 1, 67, 100
3, 284256, Note_on_c, 1, 67, 110
3, 284300, Note_off_c, 1, 65, 100
3, 284304, Note_on_c, 1, 65, 110
3, 284348, Note_off_c, 1, 67, 100
3, 284352, Note_on_c, 1, 64, 110
3, 284396, Note_off_c, 1, 65, 100
3, 284444, Note_off_c, 1, 64, 100
3, 284448, Note_on_c, 1, 65, 110
3, 284540, Note_off_c, 1, 65, 100
3, 284544, Note_on_c, 1, 62, 110
3, 284924, Note_off_c, 1, 62, 100
3, 284928, Note_on_c, 1, 70, 110
3, 284976, Note_on_c, 1, 68, 110
3, 285020, Note_off_c, 1, 70, 100
3, 285024, Note_on_c, 1, 70, 110
3, 285068, Note_off_c, 1, 68, 100
3, 285072, Note_on_c, 1, 68, 110
3, 285116, Note_off_c, 1, 70, 100
3, 285120, Note_on_c, 1, 67, 110
3, 285164, Note_off_c, 1, 68, 100
3, 285212, Note_off_c, 1, 67, 100
3, 285216, Note_on_c, 1, 68, 110
3, 285308, Note_off_c, 1, 68, 100
3, 285312, Note_on_c, 1, 65, 110
3, 285692, Note_off_c, 1, 65, 100
3, 285696, Note_on_c, 1, 46, 120
3, 285696, Note_on_c, 1, 41, 120
3, 285696, Note_on_c, 1, 38, 120
3, 285696, Note_on_c, 1, 34, 120
3, 288764, Note_off_c, 1, 34, 100
3, 288764, Note_off_c, 1, 38, 100
3, 288764, Note_off_c, 1, 41, 100
3, 288764, Note_off_c, 1, 46, 100
3, 288768, Note_on_c, 1, 47, 120
3, 288768, Note_on_c, 1, 41, 120
3, 288768, Note_on_c, 1, 38, 120
3, 288768, Note_on_c, 1, 35, 120
3, 291836, Note_off_c, 1, 35, 100
3, 291836, Note_off_c, 1, 38, 100
3, 291836, Note_off_c, 1, 41, 100
3, 291836, Note_off_c, 1, 47, 100
3, 291840, Note_on_c, 1, 48, 120
3, 291840, Note_on_c, 1, 44, 120
3, 291840, Note_on_c, 1, 41, 120
3, 291840, Note_on_c, 1, 36, 120
3, 294908, Note_off_c, 1, 36, 100
3, 294908, Note_off_c, 1, 41, 100
3, 294908, Note_off_c, 1, 44, 100
3, 294908, Note_off_c, 1, 48, 100
3, 294912, Note_on_c, 1, 49, 120
3, 294912, Note_on_c, 1, 44, 120
3, 294912, Note_on_c, 1, 41, 120
3, 294912, Note_on_c, 1, 37, 120
3, 297980, Note_off_c, 1, 37, 100
3, 297980, Note_off_c, 1, 41, 100
3, 297980, Note_off_c, 1, 44, 100
3, 297980, Note_off_c, 1, 49, 100
3, 297984, Note_on_c, 1, 49, 110
3, 297984, Note_on_c, 1, 45, 110
3, 297984, Note_on_c, 1, 42, 110
3, 297984, Note_on_c, 1, 37, 110
3, 301052, Note_off_c, 1, 37, 100
3, 301052, Note_off_c, 1, 42, 100
3, 301052, Note_off_c, 1, 45, 100
3, 301052, Note_off_c, 1, 49, 100
3, 301056, Note_on_c, 1, 49, 110
3, 301056, Note_on_c, 1, 45, 110
3, 301056, Note_on_c, 1, 40, 110
3, 301056, Note_on_c, 1, 37, 110
3, 304124, Note_off_c, 1, 37, 100
3, 304124, Note_off_c, 1, 40, 100
3, 304124, Note_off_c, 1, 45, 100
3, 304124, Note_off_c, 1, 49, 100
3, 304128, Note_on_c, 1, 57, 70
3, 304128, Note_on_c, 1, 50, 70
3, 305660, Note_off_c, 1, 57, 100
3, 305660, Note_off_c, 1, 50, 100
3, 305664, Note_on_c, 1, 57, 70
3, 305664, Note_on_c, 1, 45, 70
3, 306044, Note_off_c, 1, 57, 100
3, 306044, Note_off_c, 1, 45, 100
3, 306048, Note_on_c, 1, 57, 70
3, 306048, Note_on_c, 1, 45, 70
3, 306428, Note_off_c, 1, 57, 100
3, 306428, Note_off_c, 1, 45, 100
3, 307200, Note_on_c, 1, 57, 70
3, 307200, Note_on_c, 1, 52, 70
3, 307200, Note_on_c, 1, 45, 70
3, 308732, Note_off_c, 1, 57, 100
3, 308732, Note_off_c, 1, 52, 100
3, 308732, Note_off_c, 1, 45, 100
3, 308736, Note_on_c, 1, 57, 70
3, 308736, Note_on_c, 1, 50, 70
3, 309116, Note_off_c, 1, 57, 100
3, 309116, Note_off_c, 1, 50, 100
3, 309120, Note_on_c, 1, 57, 70
3, 309120, Note_on_c, 1, 50, 70
3, 309500, Note_off_c, 1, 57, 100
3, 309500, Note_off_c, 1, 50, 100
3, 310272, Note_on_c, 1, 62, 120
3, 310272, Note_on_c, 1, 57, 120
3, 310272, Note_on_c, 1, 54, 120
3, 310272, Note_on_c, 1, 50, 120
3, 310652, Note_off_c, 1, 62, 100
3, 310652, Note_off_c, 1, 57, 100
3, 310652, Note_off_c, 1, 54, 100
3, 310652, Note_off_c, 1, 50, 100
3, 310656, Note_on_c, 1, 50, 120
3, 310656, Note_on_c, 1, 38, 120
3, 311036, Note_off_c, 1, 50, 100
3, 311036, Note_off_c, 1, 38, 100
3, 313344, Note_on_c, 1, 50, 120
3, 313344, Note_on_c, 1, 38, 120
3, 313724, Note_off_c, 1, 50, 100
3, 313724, Note_off_c, 1, 38, 100
3, 313728, Note_on_c, 1, 62, 120
3, 313728, Note_on_c, 1, 50, 120
3, 314492, Note_off_c, 1, 62, 100
3, 314492, Note_off_c, 1, 50, 100
3, 314496, Note_on_c, 1, 60, 120
3, 314496, Note_on_c, 1, 48, 120
3, 314876, Note_off_c, 1, 60, 100
3, 314876, Note_off_c, 1, 48, 100
3, 314880, Note_on_c, 1, 46, 120
3, 314880, Note_on_c, 1, 58, 120
3, 315260, Note_off_c, 1, 46, 100
3, 315260, Note_off_c, 1, 58, 100
3, 315264, Note_on_c, 1, 70, 120
3, 315264, Note_on_c, 1, 58, 120
3, 316028, Note_off_c, 1, 70, 100
3, 316028, Note_off_c, 1, 58, 100
3, 316032, Note_on_c, 1, 69, 120
3, 316032, Note_on_c, 1, 57, 120
3, 316412, Note_off_c, 1, 69, 100
3, 316412, Note_off_c, 1, 57, 100
3, 316416, Note_on_c, 1, 67, 120
3, 316416, Note_on_c, 1, 55, 120
3, 316796, Note_off_c, 1, 67, 100
3, 316796, Note_off_c, 1, 55, 100
3, 316800, Note_on_c, 1, 55, 120
3, 316800, Note_on_c, 1, 43, 120
3, 317180, Note_off_c, 1, 55, 100
3, 317180, Note_off_c, 1, 43, 100
3, 319488, Note_on_c, 1, 43, 120
3, 319488, Note_on_c, 1, 31, 120
3, 319868, Note_off_c, 1, 43, 100
3, 319868, Note_off_c, 1, 31, 100
3, 319872, Note_on_c, 1, 55, 120
3, 319872, Note_on_c, 1, 43, 120
3, 320636, Note_off_c, 1, 55, 100
3, 320636, Note_off_c, 1, 43, 100
3, 320640, Note_on_c, 1, 53, 120
3, 320640, Note_on_c, 1, 41, 120
3, 321020, Note_off_c, 1, 53, 100
3, 321020, Note_off_c, 1, 41, 100
3, 321024, Note_on_c, 1, 51, 120
3, 321024, Note_on_c, 1, 39, 120
3, 321404, Note_off_c, 1, 51, 100
3, 321404, Note_off_c, 1, 39, 100
3, 321408, Note_on_c, 1, 51, 120
3, 321408, Note_on_c, 1, 63, 120
3, 322172, Note_off_c, 1, 51, 100
3, 322172, Note_off_c, 1, 63, 100
3, 322176, Note_on_c, 1, 50, 120
3, 322176, Note_on_c, 1, 62, 120
3, 322556, Note_off_c, 1, 50, 100
3, 322556, Note_off_c, 1, 62, 100
3, 322560, Note_on_c, 1, 60, 120
3, 322560, Note_on_c, 1, 48, 120
3, 322940, Note_off_c, 1, 60, 100
3, 322940, Note_off_c, 1, 48, 100
3, 325632, Note_on_c, 1, 48, 120
3, 325632, Note_on_c, 1, 36, 120
3, 326012, Note_off_c, 1, 48, 100
3, 326012, Note_off_c, 1, 36, 100
3, 326016, Note_on_c, 1, 60, 120
3, 326016, Note_on_c, 1, 48, 120
3, 326780, Note_off_c, 1, 60, 100
3, 326780, Note_off_c, 1, 48, 100
3, 326784, Note_on_c, 1, 58, 118
3, 326784, Note_on_c, 1, 46, 118
3, 327164, Note_off_c, 1, 58, 100
3, 327164, Note_off_c, 1, 46, 100
3, 327168, Note_on_c, 1, 56, 117
3, 327168, Note_on_c, 1, 44, 117
3, 327548, Note_off_c, 1, 56, 100
3, 327548, Note_off_c, 1, 44, 100
3, 327552, Note_on_c, 1, 56, 117
3, 327552, Note_on_c, 1, 68, 117
3, 328316, Note_off_c, 1, 56, 100
3, 328316, Note_off_c, 1, 68, 100
3, 328320, Note_on_c, 1, 55, 115
3, 328320, Note_on_c, 1, 67, 115
3, 328700, Note_off_c, 1, 55, 100
3, 328700, Note_off_c, 1, 67, 100
3, 328704, Note_on_c, 1, 53, 114
3, 328704, Note_on_c, 1, 41, 114
3, 329084, Note_off_c, 1, 53, 100
3, 329084, Note_off_c, 1, 41, 100
3, 329088, Note_on_c, 1, 53, 114
3, 329088, Note_on_c, 1, 65, 114
3, 329852, Note_off_c, 1, 53, 100
3, 329852, Note_off_c, 1, 65, 100
3, 329856, Note_on_c, 1, 51, 112
3, 329856, Note_on_c, 1, 63, 112
3, 330236, Note_off_c, 1, 51, 100
3, 330236, Note_off_c, 1, 63, 100
3, 330240, Note_on_c, 1, 50, 111
3, 330240, Note_on_c, 1, 38, 111
3, 330620, Note_off_c, 1, 50, 100
3, 330620, Note_off_c, 1, 38, 100
3, 330624, Note_on_c, 1, 50, 110
3, 330624, Note_on_c, 1, 62, 110
3, 331388, Note_off_c, 1, 50, 100
3, 331388, Note_off_c, 1, 62, 100
3, 331392, Note_on_c, 1, 48, 109
3, 331392, Note_on_c, 1, 60, 109
3, 331772, Note_off_c, 1, 48, 100
3, 331772, Note_off_c, 1, 60, 100
3, 332160, Note_on_c, 1, 53, 107
3, 332160, Note_on_c, 1, 48, 107
3, 332160, Note_on_c, 1, 41, 107
3, 332540, Note_off_c, 1, 53, 100
3, 332540, Note_off_c, 1, 48, 100
3, 332540, Note_off_c, 1, 41, 100
3, 332928, Note_on_c, 1, 48, 106
3, 332928, Note_on_c, 1, 55, 106
3, 332928, Note_on_c, 1, 43, 106
3, 333308, Note_off_c, 1, 48, 100
3, 333308, Note_off_c, 1, 55, 100
3, 333308, Note_off_c, 1, 43, 100
3, 333696, Note_on_c, 1, 56, 104
3, 333696, Note_on_c, 1, 48, 104
3, 333696, Note_on_c, 1, 44, 104
3, 334076, Note_off_c, 1, 56, 100
3, 334076, Note_off_c, 1, 48, 100
3, 334076, Note_off_c, 1, 44, 100
3, 334464, Note_on_c, 1, 54, 103
3, 334464, Note_on_c, 1, 42, 103
3, 334464, Note_on_c, 1, 48, 103
3, 334844, Note_off_c, 1, 54, 100
3, 334844, Note_off_c, 1, 42, 100
3, 334844, Note_off_c, 1, 48, 100
3, 334848, Note_on_c, 1, 55, 102
3, 334848, Note_on_c, 1, 43, 100
3, 335612, Note_off_c, 1, 55, 100
3, 335616, Note_on_c, 1, 54, 80
3, 335708, Note_off_c, 1, 54, 100
3, 335712, Note_on_c, 1, 55, 80
3, 335804, Note_off_c, 1, 55, 100
3, 335808, Note_on_c, 1, 54, 80
3, 335900, Note_off_c, 1, 54, 100
3, 335904, Note_on_c, 1, 55, 80
3, 335996, Note_off_c, 1, 55, 100
3, 336192, Note_on_c, 1, 54, 80
3, 336380, Note_off_c, 1, 54, 100
3, 336384, Note_on_c, 1, 51, 80
3, 336764, Note_off_c, 1, 51, 100
3, 336768, Note_on_c, 1, 50, 80
3, 337916, Note_off_c, 1, 43, 100
3, 337916, Note_off_c, 1, 50, 100
3, 337920, Note_on_c, 1, 55, 80
3, 337920, Note_on_c, 1, 43, 80
3, 338684, Note_off_c, 1, 55, 100
3, 338688, Note_on_c, 1, 54, 80
3, 338780, Note_off_c, 1, 54, 100
3, 338784, Note_on_c, 1, 55, 80
3, 338876, Note_off_c, 1, 55, 100
3, 338880, Note_on_c, 1, 54, 80
3, 338972, Note_off_c, 1, 54, 100
3, 338976, Note_on_c, 1, 55, 80
3, 339068, Note_off_c, 1, 55, 100
3, 339264, Note_on_c, 1, 54, 80
3, 339452, Note_off_c, 1, 54, 100
3, 339456, Note_on_c, 1, 51, 80
3, 339836, Note_off_c, 1, 51, 100
3, 339840, Note_on_c, 1, 50, 80
3, 340988, Note_off_c, 1, 43, 100
3, 340988, Note_off_c, 1, 50, 100
3, 340992, Note_on_c, 1, 55, 80
3, 340992, Note_on_c, 1, 43, 80
3, 341756, Note_off_c, 1, 55, 100
3, 341760, Note_on_c, 1, 54, 80
3, 341852, Note_off_c, 1, 54, 100
3, 341856, Note_on_c, 1, 55, 80
3, 341948, Note_off_c, 1, 55, 100
3, 341952, Note_on_c, 1, 54, 80
3, 342044, Note_off_c, 1, 54, 100
3, 342048, Note_on_c, 1, 55, 80
3, 342140, Note_off_c, 1, 55, 100
3, 342336, Note_on_c, 1, 54, 80
3, 342524, Note_off_c, 1, 54, 100
3, 342528, Note_on_c, 1, 51, 80
3, 342908, Note_off_c, 1, 51, 100
3, 342912, Note_on_c, 1, 50, 80
3, 344060, Note_off_c, 1, 43, 100
3, 344060, Note_off_c, 1, 50, 100
3, 344064, Note_on_c, 1, 59, 120
3, 344064, Note_on_c, 1, 53, 120
3, 344064, Note_on_c, 1, 50, 120
3, 344064, Note_on_c, 1, 43, 120
3, 350204, Note_off_c, 1, 43, 100
3, 350204, Note_off_c, 1, 50, 100
3, 350204, Note_off_c, 1, 53, 100
3, 350204, Note_off_c, 1, 59, 100
3, 350208, Note_on_c, 1, 55, 80
3, 350208, Note_on_c, 1, 48, 80
3, 351740, Note_off_c, 1, 55, 100
3, 351740, Note_off_c, 1, 48, 100
3, 351744, Note_on_c, 1, 55, 80
3, 351744, Note_on_c, 1, 43, 80
3, 352124, Note_off_c, 1, 55, 100
3, 352124, Note_off_c, 1, 43, 100
3, 352128, Note_on_c, 1, 55, 80
3, 352128, Note_on_c, 1, 43, 80
3, 352508, Note_off_c, 1, 55, 100
3, 352508, Note_off_c, 1, 43, 100
3, 353280, Note_on_c, 1, 59, 80
3, 353280, Note_on_c, 1, 43, 80
3, 354812, Note_off_c, 1, 59, 100
3, 354812, Note_off_c, 1, 43, 100
3, 354816, Note_on_c, 1, 55, 80
3, 354816, Note_on_c, 1, 48, 80
3, 355196, Note_off_c, 1, 55, 100
3, 355196, Note_off_c, 1, 48, 100
3, 355200, Note_on_c, 1, 55, 80
3, 355200, Note_on_c, 1, 48, 80
3, 355580, Note_off_c, 1, 55, 100
3, 355580, Note_off_c, 1, 48, 100
3, 356352, Note_on_c, 1, 55, 80
3, 356736, Note_on_c, 1, 48, 80
3, 357116, Note_off_c, 1, 48, 100
3, 357120, Note_on_c, 1, 50, 80
3, 357500, Note_off_c, 1, 50, 100
3, 357504, Note_on_c, 1, 53, 80
3, 357884, Note_off_c, 1, 53, 100
3, 358268, Note_off_c, 1, 55, 100
3, 358272, Note_on_c, 1, 48, 80
3, 358272, Note_on_c, 1, 55, 80
3, 358652, Note_off_c, 1, 48, 100
3, 358656, Note_on_c, 1, 50, 80
3, 359036, Note_off_c, 1, 50, 100
3, 359040, Note_on_c, 1, 53, 80
3, 359420, Note_off_c, 1, 55, 100
3, 359420, Note_off_c, 1, 53, 100
3, 359424, Note_on_c, 1, 52, 80
3, 359424, Note_on_c, 1, 55, 80
3, 359804, Note_off_c, 1, 52, 100
3, 359808, Note_on_c, 1, 48, 80
3, 360188, Note_off_c, 1, 55, 100
3, 360188, Note_off_c, 1, 48, 100
3, 360192, Note_on_c, 1, 53, 80
3, 360192, Note_on_c, 1, 57, 80
3, 360572, Note_off_c, 1, 53, 100
3, 360576, Note_on_c, 1, 50, 80
3, 360956, Note_off_c, 1, 57, 100
3, 360956, Note_off_c, 1, 50, 100
3, 360960, Note_on_c, 1, 55, 80
3, 361340, Note_off_c, 1, 55, 100
3, 361344, Note_on_c, 1, 43, 80
3, 361724, Note_off_c, 1, 43, 100
3, 361728, Note_on_c, 1, 48, 80
3, 362108, Note_off_c, 1, 48, 100
3, 362496, Note_on_c, 1, 55, 80
3, 362496, Note_on_c, 1, 43, 80
3, 362876, Note_off_c, 1, 55, 100
3, 362876, Note_off_c, 1, 43, 100
3, 362880, Note_on_c, 1, 48, 80
3, 362880, Note_on_c, 1, 60, 80
3, 363260, Note_off_c, 1, 48, 100
3, 363260, Note_off_c, 1, 60, 100
3, 363264, Note_on_c, 1, 38, 80
3, 363264, Note_on_c, 1, 50, 80
3, 363644, Note_off_c, 1, 38, 100
3, 363644, Note_off_c, 1, 50, 100
3, 363648, Note_on_c, 1, 45, 80
3, 363648, Note_on_c, 1, 57, 80
3, 364028, Note_off_c, 1, 45, 100
3, 364028, Note_off_c, 1, 57, 100
3, 364032, Note_on_c, 1, 35, 80
3, 364032, Note_on_c, 1, 47, 80
3, 364412, Note_off_c, 1, 35, 100
3, 364412, Note_off_c, 1, 47, 100
3, 364416, Note_on_c, 1, 43, 80
3, 364416, Note_on_c, 1, 55, 80
3, 364796, Note_off_c, 1, 43, 100
3, 364796, Note_off_c, 1, 55, 100
3, 364800, Note_on_c, 1, 36, 80
3, 364800, Note_on_c, 1, 48, 80
3, 365180, Note_off_c, 1, 36, 100
3, 365180, Note_off_c, 1, 48, 100
3, 365568, Note_on_c, 1, 48, 80
3, 365568, Note_on_c, 1, 60, 80
3, 365948, Note_off_c, 1, 48, 100
3, 365948, Note_off_c, 1, 60, 100
3, 365952, Note_on_c, 1, 53, 80
3, 365952, Note_on_c, 1, 65, 80
3, 366332, Note_off_c, 1, 53, 100
3, 366332, Note_off_c, 1, 65, 100
3, 366336, Note_on_c, 1, 43, 80
3, 366336, Note_on_c, 1, 55, 80
3, 366716, Note_off_c, 1, 43, 100
3, 366716, Note_off_c, 1, 55, 100
3, 366720, Note_on_c, 1, 50, 80
3, 366720, Note_on_c, 1, 62, 80
3, 367100, Note_off_c, 1, 50, 100
3, 367100, Note_off_c, 1, 62, 100
3, 367104, Note_on_c, 1, 40, 80
3, 367104, Note_on_c, 1, 52, 80
3, 367484, Note_off_c, 1, 40, 100
3, 367484, Note_off_c, 1, 52, 100
3, 367488, Note_on_c, 1, 48, 80
3, 367488, Note_on_c, 1, 60, 80
3, 367868, Note_off_c, 1, 48, 100
3, 367868, Note_off_c, 1, 60, 100
3, 367872, Note_on_c, 1, 41, 80
3, 367872, Note_on_c, 1, 53, 80
3, 368252, Note_off_c, 1, 41, 100
3, 368252, Note_off_c, 1, 53, 100
3, 368832, Note_on_c, 1, 53, 110
3, 368832, Note_on_c, 1, 41, 110
3, 369212, Note_off_c, 1, 53, 100
3, 369212, Note_off_c, 1, 41, 100
3, 369216, Note_on_c, 1, 54, 110
3, 369216, Note_on_c, 1, 42, 110
3, 369596, Note_off_c, 1, 54, 100
3, 369596, Note_off_c, 1, 42, 100
3, 369600, Note_on_c, 1, 55, 110
3, 369600, Note_on_c, 1, 43, 110
3, 369980, Note_off_c, 1, 55, 100
3, 369980, Note_off_c, 1, 43, 100
3, 369984, Note_on_c, 1, 56, 110
3, 369984, Note_on_c, 1, 44, 110
3, 370364, Note_off_c, 1, 44, 100
3, 370364, Note_off_c, 1, 56, 100
3, 370368, Note_on_c, 1, 57, 110
3, 370368, Note_on_c, 1, 45, 110
3, 370748, Note_off_c, 1, 57, 100
3, 370748, Note_off_c, 1, 45, 100
3, 370752, Note_on_c, 1, 55, 110
3, 370752, Note_on_c, 1, 43, 110
3, 370940, Note_off_c, 1, 55, 100
3, 370940, Note_off_c, 1, 43, 100
3, 370944, Note_on_c, 1, 55, 110
3, 370944, Note_on_c, 1, 43, 110
3, 371132, Note_off_c, 1, 55, 100
3, 371132, Note_off_c, 1, 43, 100
3, 371136, Note_on_c, 1, 54, 110
3, 371136, Note_on_c, 1, 42, 110
3, 371324, Note_off_c, 1, 54, 100
3, 371324, Note_off_c, 1, 42, 100
3, 371328, Note_on_c, 1, 52, 110
3, 371328, Note_on_c, 1, 40, 110
3, 371516, Note_off_c, 1, 52, 100
3, 371516, Note_off_c, 1, 40, 100
3, 371520, Note_on_c, 1, 50, 110
3, 371520, Note_on_c, 1, 38, 110
3, 371708, Note_off_c, 1, 50, 100
3, 371708, Note_off_c, 1, 38, 100
3, 371904, Note_on_c, 1, 55, 110
3, 371904, Note_on_c, 1, 43, 110
3, 372284, Note_off_c, 1, 55, 100
3, 372284, Note_off_c, 1, 43, 100
3, 372288, Note_on_c, 1, 41, 110
3, 372288, Note_on_c, 1, 53, 110
3, 372476, Note_off_c, 1, 41, 100
3, 372476, Note_off_c, 1, 53, 100
3, 372480, Note_on_c, 1, 53, 110
3, 372480, Note_on_c, 1, 41, 110
3, 372668, Note_off_c, 1, 53, 100
3, 372668, Note_off_c, 1, 41, 100
3, 372672, Note_on_c, 1, 52, 110
3, 372672, Note_on_c, 1, 40, 110
3, 372860, Note_off_c, 1, 52, 100
3, 372860, Note_off_c, 1, 40, 100
3, 372864, Note_on_c, 1, 50, 110
3, 372864, Note_on_c, 1, 38, 110
3, 373052, Note_off_c, 1, 50, 100
3, 373052, Note_off_c, 1, 38, 100
3, 373056, Note_on_c, 1, 48, 110
3, 373056, Note_on_c, 1, 36, 110
3, 373244, Note_off_c, 1, 48, 100
3, 373244, Note_off_c, 1, 36, 100
3, 373440, Note_on_c, 1, 53, 110
3, 373440, Note_on_c, 1, 41, 110
3, 373820, Note_off_c, 1, 53, 100
3, 373820, Note_off_c, 1, 41, 100
3, 373824, Note_on_c, 1, 52, 110
3, 373824, Note_on_c, 1, 40, 110
3, 374012, Note_off_c, 1, 52, 100
3, 374012, Note_off_c, 1, 40, 100
3, 374016, Note_on_c, 1, 50, 110
3, 374016, Note_on_c, 1, 38, 110
3, 374204, Note_off_c, 1, 50, 100
3, 374204, Note_off_c, 1, 38, 100
3, 374208, Note_on_c, 1, 52, 110
3, 374208, Note_on_c, 1, 40, 110
3, 374396, Note_off_c, 1, 52, 100
3, 374396, Note_off_c, 1, 40, 100
3, 374400, Note_on_c, 1, 53, 110
3, 374400, Note_on_c, 1, 41, 110
3, 374588, Note_off_c, 1, 53, 100
3, 374588, Note_off_c, 1, 41, 100
3, 374592, Note_on_c, 1, 54, 110
3, 374592, Note_on_c, 1, 42, 110
3, 374780, Note_off_c, 1, 54, 100
3, 374780, Note_off_c, 1, 42, 100
3, 374784, Note_on_c, 1, 43, 110
3, 374876, Note_off_c, 1, 43, 100
3, 374880, Note_on_c, 1, 55, 110
3, 374972, Note_off_c, 1, 55, 100
3, 374976, Note_on_c, 1, 54, 110
3, 375068, Note_off_c, 1, 54, 100
3, 375072, Note_on_c, 1, 55, 110
3, 375164, Note_off_c, 1, 55, 100
3, 375168, Note_on_c, 1, 57, 110
3, 375260, Note_off_c, 1, 57, 100
3, 375264, Note_on_c, 1, 55, 110
3, 375356, Note_off_c, 1, 55, 100
3, 375360, Note_on_c, 1, 54, 110
3, 375452, Note_off_c, 1, 54, 100
3, 375456, Note_on_c, 1, 55, 110
3, 375548, Note_off_c, 1, 55, 100
3, 375552, Note_on_c, 1, 53, 110
3, 375644, Note_off_c, 1, 53, 100
3, 375648, Note_on_c, 1, 55, 110
3, 375740, Note_off_c, 1, 55, 100
3, 375744, Note_on_c, 1, 50, 110
3, 375836, Note_off_c, 1, 50, 100
3, 375840, Note_on_c, 1, 55, 110
3, 375932, Note_off_c, 1, 55, 100
3, 375936, Note_on_c, 1, 53, 110
3, 376028, Note_off_c, 1, 53, 100
3, 376032, Note_on_c, 1, 55, 110
3, 376124, Note_off_c, 1, 55, 100
3, 376128, Note_on_c, 1, 50, 110
3, 376220, Note_off_c, 1, 50, 100
3, 376224, Note_on_c, 1, 55, 110
3, 376316, Note_off_c, 1, 55, 100
3, 376320, Note_on_c, 1, 52, 100
3, 376412, Note_off_c, 1, 52, 100
3, 376416, Note_on_c, 1, 55, 100
3, 376508, Note_off_c, 1, 55, 100
3, 376512, Note_on_c, 1, 48, 100
3, 376604, Note_off_c, 1, 48, 100
3, 376608, Note_on_c, 1, 55, 100
3, 376700, Note_off_c, 1, 55, 100
3, 376704, Note_on_c, 1, 52, 100
3, 376796, Note_off_c, 1, 52, 100
3, 376800, Note_on_c, 1, 55, 100
3, 376892, Note_off_c, 1, 55, 100
3, 376896, Note_on_c, 1, 48, 100
3, 376988, Note_off_c, 1, 48, 100
3, 376992, Note_on_c, 1, 55, 100
3, 377084, Note_off_c, 1, 55, 100
3, 377088, Note_on_c, 1, 47, 100
3, 377180, Note_off_c, 1, 47, 100
3, 377184, Note_on_c, 1, 55, 100
3, 377276, Note_off_c, 1, 55, 100
3, 377280, Note_on_c, 1, 54, 100
3, 377372, Note_off_c, 1, 54, 100
3, 377376, Note_on_c, 1, 55, 100
3, 377468, Note_off_c, 1, 55, 100
3, 377472, Note_on_c, 1, 48, 100
3, 377564, Note_off_c, 1, 48, 100
3, 377568, Note_on_c, 1, 55, 100
3, 377660, Note_off_c, 1, 55, 100
3, 377664, Note_on_c, 1, 54, 100
3, 377756, Note_off_c, 1, 54, 100
3, 377760, Note_on_c, 1, 55, 100
3, 377852, Note_off_c, 1, 55, 100
3, 377856, Note_on_c, 1, 43, 110
3, 377948, Note_off_c, 1, 43, 100
3, 377952, Note_on_c, 1, 55, 110
3, 378044, Note_off_c, 1, 55, 100
3, 378048, Note_on_c, 1, 54, 110
3, 378140, Note_off_c, 1, 54, 100
3, 378144, Note_on_c, 1, 55, 110
3, 378236, Note_off_c, 1, 55, 100
3, 378240, Note_on_c, 1, 57, 110
3, 378332, Note_off_c, 1, 57, 100
3, 378336, Note_on_c, 1, 55, 110
3, 378428, Note_off_c, 1, 55, 100
3, 378432, Note_on_c, 1, 54, 110
3, 378524, Note_off_c, 1, 54, 100
3, 378528, Note_on_c, 1, 55, 110
3, 378620, Note_off_c, 1, 55, 100
3, 378624, Note_on_c, 1, 53, 110
3, 378716, Note_off_c, 1, 53, 100
3, 378720, Note_on_c, 1, 55, 110
3, 378812, Note_off_c, 1, 55, 100
3, 378816, Note_on_c, 1, 50, 110
3, 378908, Note_off_c, 1, 50, 100
3, 378912, Note_on_c, 1, 55, 110
3, 379004, Note_off_c, 1, 55, 100
3, 379008, Note_on_c, 1, 53, 110
3, 379100, Note_off_c, 1, 53, 100
3, 379104, Note_on_c, 1, 55, 110
3, 379196, Note_off_c, 1, 55, 100
3, 379200, Note_on_c, 1, 50, 110
3, 379292, Note_off_c, 1, 50, 100
3, 379296, Note_on_c, 1, 55, 110
3, 379388, Note_off_c, 1, 55, 100
3, 379392, Note_on_c, 1, 48, 110
3, 379484, Note_off_c, 1, 48, 100
3, 379488, Note_on_c, 1, 55, 110
3, 379580, Note_off_c, 1, 55, 100
3, 379584, Note_on_c, 1, 52, 110
3, 379676, Note_off_c, 1, 52, 100
3, 379680, Note_on_c, 1, 55, 110
3, 379772, Note_off_c, 1, 55, 100
3, 379776, Note_on_c, 1, 48, 110
3, 379868, Note_off_c, 1, 48, 100
3, 379872, Note_on_c, 1, 55, 110
3, 379964, Note_off_c, 1, 55, 100
3, 379968, Note_on_c, 1, 52, 110
3, 380060, Note_off_c, 1, 52, 100
3, 380064, Note_on_c, 1, 55, 110
3, 380156, Note_off_c, 1, 55, 100
3, 380160, Note_on_c, 1, 47, 110
3, 380252, Note_off_c, 1, 47, 100
3, 380256, Note_on_c, 1, 55, 110
3, 380348, Note_off_c, 1, 55, 100
3, 380352, Note_on_c, 1, 54, 110
3, 380444, Note_off_c, 1, 54, 100
3, 380448, Note_on_c, 1, 55, 110
3, 380540, Note_off_c, 1, 55, 100
3, 380544, Note_on_c, 1, 48, 110
3, 380636, Note_off_c, 1, 48, 100
3, 380640, Note_on_c, 1, 55, 110
3, 380732, Note_off_c, 1, 55, 100
3, 380736, Note_on_c, 1, 54, 110
3, 380828, Note_off_c, 1, 54, 100
3, 380832, Note_on_c, 1, 55, 110
3, 380924, Note_off_c, 1, 55, 100
3, 381792, Note_on_c, 1, 55, 120
3, 381884, Note_off_c, 1, 55, 100
3, 381888, Note_on_c, 1, 54, 120
3, 381980, Note_off_c, 1, 54, 100
3, 381984, Note_on_c, 1, 52, 120
3, 382076, Note_off_c, 1, 52, 100
3, 382080, Note_on_c, 1, 50, 120
3, 382172, Note_off_c, 1, 50, 100
3, 382176, Note_on_c, 1, 48, 120
3, 382268, Note_off_c, 1, 48, 100
3, 382272, Note_on_c, 1, 47, 120
3, 382364, Note_off_c, 1, 47, 100
3, 382368, Note_on_c, 1, 45, 120
3, 382460, Note_off_c, 1, 45, 100
3, 382464, Note_on_c, 1, 43, 120
3, 382844, Note_off_c, 1, 43, 100
3, 384000, Note_on_c, 1, 60, 80
3, 384188, Note_off_c, 1, 60, 100
3, 384192, Note_on_c, 1, 63, 80
3, 384380, Note_off_c, 1, 63, 100
3, 384384, Note_on_c, 1, 67, 80
3, 384572, Note_off_c, 1, 67, 100
3, 384576, Note_on_c, 1, 63, 80
3, 384764, Note_off_c, 1, 63, 100
3, 384768, Note_on_c, 1, 67, 80
3, 384956, Note_off_c, 1, 67, 100
3, 384960, Note_on_c, 1, 63, 80
3, 385148, Note_off_c, 1, 63, 100
3, 385152, Note_on_c, 1, 60, 80
3, 385340, Note_off_c, 1, 60, 100
3, 385344, Note_on_c, 1, 63, 80
3, 385532, Note_off_c, 1, 63, 100
3, 385536, Note_on_c, 1, 60, 80
3, 385724, Note_off_c, 1, 60, 100
3, 385728, Note_on_c, 1, 62, 80
3, 385916, Note_off_c, 1, 62, 100
3, 385920, Note_on_c, 1, 69, 80
3, 386108, Note_off_c, 1, 69, 100
3, 386112, Note_on_c, 1, 62, 80
3, 386300, Note_off_c, 1, 62, 100
3, 386304, Note_on_c, 1, 69, 80
3, 386492, Note_off_c, 1, 69, 100
3, 386496, Note_on_c, 1, 62, 80
3, 386684, Note_off_c, 1, 62, 100
3, 386688, Note_on_c, 1, 60, 80
3, 386876, Note_off_c, 1, 60, 100
3, 386880, Note_on_c, 1, 62, 80
3, 387068, Note_off_c, 1, 62, 100
3, 387072, Note_on_c, 1, 59, 80
3, 387260, Note_off_c, 1, 59, 100
3, 387264, Note_on_c, 1, 62, 80
3, 387452, Note_off_c, 1, 62, 100
3, 387456, Note_on_c, 1, 67, 80
3, 387644, Note_off_c, 1, 67, 100
3, 387648, Note_on_c, 1, 62, 80
3, 387836, Note_off_c, 1, 62, 100
3, 387840, Note_on_c, 1, 67, 80
3, 388028, Note_off_c, 1, 67, 100
3, 388032, Note_on_c, 1, 62, 80
3, 388220, Note_off_c, 1, 62, 100
3, 388224, Note_on_c, 1, 59, 80
3, 388412, Note_off_c, 1, 59, 100
3, 388416, Note_on_c, 1, 62, 80
3, 388604, Note_off_c, 1, 62, 100
3, 388608, Note_on_c, 1, 58, 80
3, 388796, Note_off_c, 1, 58, 100
3, 388800, Note_on_c, 1, 60, 80
3, 388988, Note_off_c, 1, 60, 100
3, 388992, Note_on_c, 1, 67, 80
3, 389180, Note_off_c, 1, 67, 100
3, 389184, Note_on_c, 1, 60, 80
3, 389372, Note_off_c, 1, 60, 100
3, 389376, Note_on_c, 1, 67, 80
3, 389564, Note_off_c, 1, 67, 100
3, 389568, Note_on_c, 1, 60, 80
3, 389756, Note_off_c, 1, 60, 100
3, 389760, Note_on_c, 1, 58, 80
3, 389948, Note_off_c, 1, 58, 100
3, 389952, Note_on_c, 1, 60, 80
3, 390140, Note_off_c, 1, 60, 100
3, 390144, Note_on_c, 1, 56, 80
3, 390332, Note_off_c, 1, 56, 100
3, 390336, Note_on_c, 1, 60, 80
3, 390524, Note_off_c, 1, 60, 100
3, 390528, Note_on_c, 1, 65, 80
3, 390716, Note_off_c, 1, 65, 100
3, 390720, Note_on_c, 1, 60, 80
3, 390908, Note_off_c, 1, 60, 100
3, 390912, Note_on_c, 1, 55, 80
3, 391100, Note_off_c, 1, 55, 100
3, 391104, Note_on_c, 1, 60, 80
3, 391292, Note_off_c, 1, 60, 100
3, 391296, Note_on_c, 1, 63, 80
3, 391484, Note_off_c, 1, 63, 100
3, 391488, Note_on_c, 1, 60, 80
3, 391676, Note_off_c, 1, 60, 100
3, 391680, Note_on_c, 1, 54, 80
3, 391868, Note_off_c, 1, 54, 100
3, 391872, Note_on_c, 1, 57, 80
3, 392060, Note_off_c, 1, 57, 100
3, 392064, Note_on_c, 1, 62, 80
3, 392252, Note_off_c, 1, 62, 100
3, 392256, Note_on_c, 1, 57, 80
3, 392444, Note_off_c, 1, 57, 100
3, 392448, Note_on_c, 1, 54, 80
3, 392636, Note_off_c, 1, 54, 100
3, 392640, Note_on_c, 1, 57, 80
3, 392828, Note_off_c, 1, 57, 100
3, 392832, Note_on_c, 1, 54, 80
3, 393020, Note_off_c, 1, 54, 100
3, 393024, Note_on_c, 1, 50, 80
3, 393212, Note_off_c, 1, 50, 100
3, 393216, Note_on_c, 1, 55, 80
3, 393404, Note_off_c, 1, 55, 100
3, 393408, Note_on_c, 1, 58, 80
3, 393596, Note_off_c, 1, 58, 100
3, 393600, Note_on_c, 1, 62, 80
3, 393788, Note_off_c, 1, 62, 100
3, 393792, Note_on_c, 1, 58, 80
3, 393980, Note_off_c, 1, 58, 100
3, 393984, Note_on_c, 1, 62, 80
3, 394172, Note_off_c, 1, 62, 100
3, 394176, Note_on_c, 1, 58, 80
3, 394364, Note_off_c, 1, 58, 100
3, 394368, Note_on_c, 1, 55, 80
3, 394556, Note_off_c, 1, 55, 100
3, 394560, Note_on_c, 1, 58, 80
3, 394748, Note_off_c, 1, 58, 100
3, 394752, Note_on_c, 1, 55, 80
3, 394940, Note_off_c, 1, 55, 100
3, 394944, Note_on_c, 1, 57, 80
3, 395132, Note_off_c, 1, 57, 100
3, 395136, Note_on_c, 1, 64, 80
3, 395324, Note_off_c, 1, 64, 100
3, 395328, Note_on_c, 1, 57, 80
3, 395516, Note_off_c, 1, 57, 100
3, 395520, Note_on_c, 1, 64, 80
3, 395708, Note_off_c, 1, 64, 100
3, 395712, Note_on_c, 1, 57, 80
3, 395900, Note_off_c, 1, 57, 100
3, 395904, Note_on_c, 1, 55, 80
3, 396092, Note_off_c, 1, 55, 100
3, 396096, Note_on_c, 1, 57, 80
3, 396284, Note_off_c, 1, 57, 100
3, 396288, Note_on_c, 1, 54, 80
3, 396476, Note_off_c, 1, 54, 100
3, 396480, Note_on_c, 1, 57, 80
3, 396668, Note_off_c, 1, 57, 100
3, 396672, Note_on_c, 1, 62, 80
3, 396860, Note_off_c, 1, 62, 100
3, 396864, Note_on_c, 1, 57, 80
3, 397052, Note_off_c, 1, 57, 100
3, 397056, Note_on_c, 1, 62, 80
3, 397244, Note_off_c, 1, 62, 100
3, 397248, Note_on_c, 1, 57, 80
3, 397436, Note_off_c, 1, 57, 100
3, 397440, Note_on_c, 1, 54, 80
3, 397628, Note_off_c, 1, 54, 100
3, 397632, Note_on_c, 1, 57, 80
3, 397820, Note_off_c, 1, 57, 100
3, 397824, Note_on_c, 1, 53, 80
3, 398012, Note_off_c, 1, 53, 100
3, 398016, Note_on_c, 1, 55, 80
3, 398204, Note_off_c, 1, 55, 100
3, 398208, Note_on_c, 1, 62, 80
3, 398396, Note_off_c, 1, 62, 100
3, 398400, Note_on_c, 1, 55, 80
3, 398588, Note_off_c, 1, 55, 100
3, 398592, Note_on_c, 1, 62, 80
3, 398780, Note_off_c, 1, 62, 100
3, 398784, Note_on_c, 1, 55, 80
3, 398972, Note_off_c, 1, 55, 100
3, 398976, Note_on_c, 1, 53, 80
3, 399164, Note_off_c, 1, 53, 100
3, 399168, Note_on_c, 1, 55, 80
3, 399356, Note_off_c, 1, 55, 100
3, 399360, Note_on_c, 1, 51, 80
3, 399548, Note_off_c, 1, 51, 100
3, 399552, Note_on_c, 1, 55, 80
3, 399740, Note_off_c, 1, 55, 100
3, 399744, Note_on_c, 1, 60, 80
3, 399932, Note_off_c, 1, 60, 100
3, 399936, Note_on_c, 1, 55, 80
3, 400124, Note_off_c, 1, 55, 100
3, 400128, Note_on_c, 1, 50, 80
3, 400316, Note_off_c, 1, 50, 100
3, 400320, Note_on_c, 1, 55, 80
3, 400508, Note_off_c, 1, 55, 100
3, 400512, Note_on_c, 1, 58, 80
3, 400700, Note_off_c, 1, 58, 100
3, 400704, Note_on_c, 1, 55, 80
3, 400892, Note_off_c, 1, 55, 100
3, 400896, Note_on_c, 1, 49, 80
3, 401084, Note_off_c, 1, 49, 100
3, 401088, Note_on_c, 1, 52, 80
3, 401276, Note_off_c, 1, 52, 100
3, 401280, Note_on_c, 1, 57, 80
3, 401468, Note_off_c, 1, 57, 100
3, 401472, Note_on_c, 1, 52, 80
3, 401660, Note_off_c, 1, 52, 100
3, 401664, Note_on_c, 1, 49, 80
3, 401852, Note_off_c, 1, 49, 100
3, 401856, Note_on_c, 1, 52, 80
3, 402044, Note_off_c, 1, 52, 100
3, 402048, Note_on_c, 1, 57, 80
3, 402236, Note_off_c, 1, 57, 100
3, 402240, Note_on_c, 1, 61, 100
3, 402428, Note_off_c, 1, 61, 100
3, 402432, Note_on_c, 1, 62, 110
3, 402620, Note_off_c, 1, 62, 100
3, 402624, Note_on_c, 1, 65, 110
3, 402624, Note_on_c, 1, 69, 110
3, 402812, Note_off_c, 1, 65, 100
3, 402812, Note_off_c, 1, 69, 100
3, 402816, Note_on_c, 1, 65, 110
3, 402816, Note_on_c, 1, 69, 110
3, 403004, Note_off_c, 1, 65, 100
3, 403004, Note_off_c, 1, 69, 100
3, 403008, Note_on_c, 1, 65, 110
3, 403008, Note_on_c, 1, 69, 110
3, 403196, Note_off_c, 1, 65, 100
3, 403196, Note_off_c, 1, 69, 100
3, 403200, Note_on_c, 1, 65, 110
3, 403200, Note_on_c, 1, 69, 110
3, 403388, Note_off_c, 1, 65, 100
3, 403388, Note_off_c, 1, 69, 100
3, 403392, Note_on_c, 1, 65, 110
3, 403392, Note_on_c, 1, 69, 110
3, 403580, Note_off_c, 1, 65, 100
3, 403580, Note_off_c, 1, 69, 100
3, 403584, Note_on_c, 1, 67, 110
3, 403584, Note_on_c, 1, 69, 110
3, 403772, Note_off_c, 1, 67, 100
3, 403772, Note_off_c, 1, 69, 100
3, 403776, Note_on_c, 1, 67, 110
3, 403776, Note_on_c, 1, 69, 110
3, 403964, Note_off_c, 1, 67, 100
3, 403964, Note_off_c, 1, 69, 100
3, 403968, Note_on_c, 1, 62, 110
3, 404156, Note_off_c, 1, 62, 100
3, 404160, Note_on_c, 1, 65, 110
3, 404160, Note_on_c, 1, 69, 110
3, 404348, Note_off_c, 1, 65, 100
3, 404348, Note_off_c, 1, 69, 100
3, 404352, Note_on_c, 1, 65, 110
3, 404352, Note_on_c, 1, 69, 110
3, 404540, Note_off_c, 1, 65, 100
3, 404540, Note_off_c, 1, 69, 100
3, 404544, Note_on_c, 1, 65, 110
3, 404544, Note_on_c, 1, 69, 110
3, 404732, Note_off_c, 1, 65, 100
3, 404732, Note_off_c, 1, 69, 100
3, 404736, Note_on_c, 1, 55, 110
3, 404924, Note_off_c, 1, 55, 100
3, 404928, Note_on_c, 1, 65, 110
3, 404928, Note_on_c, 1, 67, 110
3, 405116, Note_off_c, 1, 65, 100
3, 405116, Note_off_c, 1, 67, 100
3, 405120, Note_on_c, 1, 65, 110
3, 405120, Note_on_c, 1, 67, 110
3, 405308, Note_off_c, 1, 65, 100
3, 405308, Note_off_c, 1, 67, 100
3, 405312, Note_on_c, 1, 65, 110
3, 405312, Note_on_c, 1, 67, 110
3, 405500, Note_off_c, 1, 65, 100
3, 405500, Note_off_c, 1, 67, 100
3, 405504, Note_on_c, 1, 60, 110
3, 405692, Note_off_c, 1, 60, 100
3, 405696, Note_on_c, 1, 63, 110
3, 405696, Note_on_c, 1, 67, 110
3, 405884, Note_off_c, 1, 63, 100
3, 405884, Note_off_c, 1, 67, 100
3, 405888, Note_on_c, 1, 63, 110
3, 405888, Note_on_c, 1, 67, 110
3, 406076, Note_off_c, 1, 63, 100
3, 406076, Note_off_c, 1, 67, 100
3, 406080, Note_on_c, 1, 63, 110
3, 406080, Note_on_c, 1, 67, 110
3, 406268, Note_off_c, 1, 63, 100
3, 406268, Note_off_c, 1, 67, 100
3, 406272, Note_on_c, 1, 63, 110
3, 406272, Note_on_c, 1, 67, 110
3, 406460, Note_off_c, 1, 63, 100
3, 406460, Note_off_c, 1, 67, 100
3, 406464, Note_on_c, 1, 63, 110
3, 406464, Note_on_c, 1, 67, 110
3, 406652, Note_off_c, 1, 63, 100
3, 406652, Note_off_c, 1, 67, 100
3, 406656, Note_on_c, 1, 65, 110
3, 406656, Note_on_c, 1, 67, 110
3, 406844, Note_off_c, 1, 65, 100
3, 406844, Note_off_c, 1, 67, 100
3, 406848, Note_on_c, 1, 67, 110
3, 406848, Note_on_c, 1, 65, 110
3, 407036, Note_off_c, 1, 67, 100
3, 407036, Note_off_c, 1, 65, 100
3, 407040, Note_on_c, 1, 60, 110
3, 407228, Note_off_c, 1, 60, 100
3, 407232, Note_on_c, 1, 63, 110
3, 407232, Note_on_c, 1, 67, 110
3, 407420, Note_off_c, 1, 63, 100
3, 407420, Note_off_c, 1, 67, 100
3, 407424, Note_on_c, 1, 63, 110
3, 407424, Note_on_c, 1, 67, 110
3, 407612, Note_off_c, 1, 63, 100
3, 407612, Note_off_c, 1, 67, 100
3, 407616, Note_on_c, 1, 63, 110
3, 407616, Note_on_c, 1, 67, 110
3, 407804, Note_off_c, 1, 63, 100
3, 407804, Note_off_c, 1, 67, 100
3, 407808, Note_on_c, 1, 44, 110
3, 407996, Note_off_c, 1, 44, 100
3, 408000, Note_on_c, 1, 56, 110
3, 408000, Note_on_c, 1, 60, 110
3, 408188, Note_off_c, 1, 56, 100
3, 408188, Note_off_c, 1, 60, 100
3, 408192, Note_on_c, 1, 56, 110
3, 408192, Note_on_c, 1, 60, 110
3, 408380, Note_off_c, 1, 56, 100
3, 408380, Note_off_c, 1, 60, 100
3, 408384, Note_on_c, 1, 56, 110
3, 408384, Note_on_c, 1, 60, 110
3, 408572, Note_off_c, 1, 56, 100
3, 408572, Note_off_c, 1, 60, 100
3, 408576, Note_on_c, 1, 43, 110
3, 408764, Note_off_c, 1, 43, 100
3, 408768, Note_on_c, 1, 59, 110
3, 408768, Note_on_c, 1, 62, 110
3, 408956, Note_off_c, 1, 59, 100
3, 408956, Note_off_c, 1, 62, 100
3, 408960, Note_on_c, 1, 59, 110
3, 408960, Note_on_c, 1, 62, 110
3, 409148, Note_off_c, 1, 59, 100
3, 409148, Note_off_c, 1, 62, 100
3, 409152, Note_on_c, 1, 59, 110
3, 409152, Note_on_c, 1, 62, 110
3, 409340, Note_off_c, 1, 59, 100
3, 409340, Note_off_c, 1, 62, 100
3, 409344, Note_on_c, 1, 62, 110
3, 409344, Note_on_c, 1, 59, 110
3, 409532, Note_off_c, 1, 62, 100
3, 409532, Note_off_c, 1, 59, 100
3, 409536, Note_on_c, 1, 59, 110
3, 409536, Note_on_c, 1, 62, 110
3, 409724, Note_off_c, 1, 59, 100
3, 409724, Note_off_c, 1, 62, 100
3, 409728, Note_on_c, 1, 55, 110
3, 409916, Note_off_c, 1, 55, 100
3, 409920, Note_on_c, 1, 60, 110
3, 409920, Note_on_c, 1, 62, 110
3, 410108, Note_off_c, 1, 60, 100
3, 410108, Note_off_c, 1, 62, 100
3, 410112, Note_on_c, 1, 55, 110
3, 410300, Note_off_c, 1, 55, 100
3, 410304, Note_on_c, 1, 59, 110
3, 410304, Note_on_c, 1, 62, 110
3, 410492, Note_off_c, 1, 59, 100
3, 410492, Note_off_c, 1, 62, 100
3, 410496, Note_on_c, 1, 59, 110
3, 410496, Note_on_c, 1, 62, 110
3, 410684, Note_off_c, 1, 59, 100
3, 410684, Note_off_c, 1, 62, 100
3, 410688, Note_on_c, 1, 59, 110
3, 410688, Note_on_c, 1, 62, 110
3, 410876, Note_off_c, 1, 59, 100
3, 410876, Note_off_c, 1, 62, 100
3, 410880, Note_on_c, 1, 62, 110
3, 410880, Note_on_c, 1, 59, 110
3, 411068, Note_off_c, 1, 62, 100
3, 411068, Note_off_c, 1, 59, 100
3, 411072, Note_on_c, 1, 59, 110
3, 411072, Note_on_c, 1, 62, 110
3, 411260, Note_off_c, 1, 59, 100
3, 411260, Note_off_c, 1, 62, 100
3, 411264, Note_on_c, 1, 55, 110
3, 411452, Note_off_c, 1, 55, 100
3, 411456, Note_on_c, 1, 60, 110
3, 411456, Note_on_c, 1, 62, 110
3, 411644, Note_off_c, 1, 60, 100
3, 411644, Note_off_c, 1, 62, 100
3, 411648, Note_on_c, 1, 62, 80
3, 411648, Note_on_c, 1, 59, 80
3, 411648, Note_on_c, 1, 55, 80
3, 412028, Note_off_c, 1, 62, 100
3, 412028, Note_off_c, 1, 59, 100
3, 412028, Note_off_c, 1, 55, 100
3, 414720, Note_on_c, 1, 60, 80
3, 414720, Note_on_c, 1, 55, 80
3, 414720, Note_on_c, 1, 52, 80
3, 414720, Note_on_c, 1, 48, 80
3, 416252, Note_off_c, 1, 60, 100
3, 416252, Note_off_c, 1, 55, 100
3, 416252, Note_off_c, 1, 52, 100
3, 416252, Note_off_c, 1, 48, 100
3, 416256, Note_on_c, 1, 52, 80
3, 416448, Note_on_c, 1, 55, 80
3, 416636, Note_off_c, 1, 55, 100
3, 416640, Note_on_c, 1, 54, 80
3, 416828, Note_off_c, 1, 54, 100
3, 416832, Note_on_c, 1, 55, 80
3, 417020, Note_off_c, 1, 55, 100
3, 417024, Note_on_c, 1, 60, 80
3, 417212, Note_off_c, 1, 60, 100
3, 417216, Note_on_c, 1, 55, 80
3, 417404, Note_off_c, 1, 55, 100
3, 417408, Note_on_c, 1, 64, 80
3, 417596, Note_off_c, 1, 64, 100
3, 417600, Note_on_c, 1, 55, 80
3, 417788, Note_off_c, 1, 52, 100
3, 417788, Note_off_c, 1, 55, 100
3, 417792, Note_on_c, 1, 53, 80
3, 417792, Note_on_c, 1, 65, 80
3, 418556, Note_off_c, 1, 65, 100
3, 418560, Note_on_c, 1, 62, 80
3, 418940, Note_off_c, 1, 62, 100
3, 418944, Note_on_c, 1, 59, 80
3, 419324, Note_off_c, 1, 53, 100
3, 419324, Note_off_c, 1, 59, 100
3, 419328, Note_on_c, 1, 50, 80
3, 419520, Note_on_c, 1, 55, 80
3, 419708, Note_off_c, 1, 55, 100
3, 419712, Note_on_c, 1, 54, 80
3, 419900, Note_off_c, 1, 54, 100
3, 419904, Note_on_c, 1, 55, 80
3, 420092, Note_off_c, 1, 55, 100
3, 420096, Note_on_c, 1, 59, 80
3, 420284, Note_off_c, 1, 59, 100
3, 420288, Note_on_c, 1, 55, 80
3, 420476, Note_off_c, 1, 55, 100
3, 420480, Note_on_c, 1, 62, 80
3, 420668, Note_off_c, 1, 62, 100
3, 420672, Note_on_c, 1, 55, 100
3, 420860, Note_off_c, 1, 50, 100
3, 420860, Note_off_c, 1, 55, 100
3, 420864, Note_on_c, 1, 55, 80
3, 420864, Note_on_c, 1, 64, 80
3, 421628, Note_off_c, 1, 64, 100
3, 421632, Note_on_c, 1, 60, 90
3, 422012, Note_off_c, 1, 60, 100
3, 422016, Note_on_c, 1, 55, 96
3, 422396, Note_off_c, 1, 55, 100
3, 422396, Note_off_c, 1, 55, 100
3, 422400, Note_on_c, 1, 57, 101
3, 422400, Note_on_c, 1, 55, 101
3, 422400, Note_on_c, 1, 52, 101
3, 422400, Note_on_c, 1, 48, 101
3, 423932, Note_off_c, 1, 57, 100
3, 423932, Note_off_c, 1, 55, 100
3, 423932, Note_off_c, 1, 52, 100
3, 423932, Note_off_c, 1, 48, 100
3, 423936, Note_on_c, 1, 57, 104
3, 423936, Note_on_c, 1, 60, 104
3, 423936, Note_on_c, 1, 54, 104
3, 423936, Note_on_c, 1, 50, 104
3, 425468, Note_off_c, 1, 57, 100
3, 425468, Note_off_c, 1, 60, 100
3, 425468, Note_off_c, 1, 54, 100
3, 425468, Note_off_c, 1, 50, 100
3, 425472, Note_on_c, 1, 55, 92
3, 425472, Note_on_c, 1, 59, 92
3, 425852, Note_off_c, 1, 55, 100
3, 425852, Note_off_c, 1, 59, 100
3, 427008, Note_on_c, 1, 48, 80
3, 427196, Note_off_c, 1, 48, 100
3, 427200, Note_on_c, 1, 55, 80
3, 427388, Note_off_c, 1, 55, 100
3, 427392, Note_on_c, 1, 54, 80
3, 427580, Note_off_c, 1, 54, 100
3, 427584, Note_on_c, 1, 55, 80
3, 427772, Note_off_c, 1, 55, 100
3, 427776, Note_on_c, 1, 60, 80
3, 427964, Note_off_c, 1, 60, 100
3, 427968, Note_on_c, 1, 55, 80
3, 428156, Note_off_c, 1, 55, 100
3, 428160, Note_on_c, 1, 64, 80
3, 428348, Note_off_c, 1, 64, 100
3, 428352, Note_on_c, 1, 55, 80
3, 428540, Note_off_c, 1, 55, 100
3, 428544, Note_on_c, 1, 55, 80
3, 428544, Note_on_c, 1, 67, 80
3, 429308, Note_off_c, 1, 67, 100
3, 429312, Note_on_c, 1, 64, 80
3, 429692, Note_off_c, 1, 64, 100
3, 429696, Note_on_c, 1, 60, 80
3, 430076, Note_off_c, 1, 55, 100
3, 430076, Note_off_c, 1, 60, 100
3, 430080, Note_on_c, 1, 59, 80
3, 430080, Note_on_c, 1, 50, 80
3, 430268, Note_off_c, 1, 59, 100
3, 430272, Note_on_c, 1, 55, 80
3, 430460, Note_off_c, 1, 55, 100
3, 430464, Note_on_c, 1, 54, 80
3, 430652, Note_off_c, 1, 54, 100
3, 430656, Note_on_c, 1, 55, 80
3, 430844, Note_off_c, 1, 55, 100
3, 430848, Note_on_c, 1, 59, 80
3, 431036, Note_off_c, 1, 59, 100
3, 431040, Note_on_c, 1, 55, 80
3, 431228, Note_off_c, 1, 55, 100
3, 431232, Note_on_c, 1, 62, 80
3, 431420, Note_off_c, 1, 62, 100
3, 431424, Note_on_c, 1, 55, 80
3, 431612, Note_off_c, 1, 50, 100
3, 431612, Note_off_c, 1, 55, 100
3, 431616, Note_on_c, 1, 53, 80
3, 431616, Note_on_c, 1, 65, 80
3, 432380, Note_off_c, 1, 65, 100
3, 432384, Note_on_c, 1, 62, 80
3, 432764, Note_off_c, 1, 62, 100
3, 432768, Note_on_c, 1, 59, 80
3, 433148, Note_off_c, 1, 53, 100
3, 433148, Note_off_c, 1, 59, 100
3, 433152, Note_on_c, 1, 60, 80
3, 433152, Note_on_c, 1, 52, 80
3, 433532, Note_off_c, 1, 60, 100
3, 433532, Note_off_c, 1, 52, 100
3, 434688, Note_on_c, 1, 52, 110
3, 434688, Note_on_c, 1, 48, 110
3, 434688, Note_on_c, 1, 43, 110
3, 434688, Note_on_c, 1, 40, 110
3, 436220, Note_off_c, 1, 52, 100
3, 436220, Note_off_c, 1, 48, 100
3, 436220, Note_off_c, 1, 43, 100
3, 436220, Note_off_c, 1, 40, 100
3, 436224, Note_on_c, 1, 53, 110
3, 436224, Note_on_c, 1, 48, 110
3, 436224, Note_on_c, 1, 45, 110
3, 436224, Note_on_c, 1, 41, 110
3, 436604, Note_off_c, 1, 53, 100
3, 436604, Note_off_c, 1, 48, 100
3, 436604, Note_off_c, 1, 45, 100
3, 436604, Note_off_c, 1, 41, 100
3, 436608, Note_on_c, 1, 57, 110
3, 436608, Note_on_c, 1, 53, 110
3, 436796, Note_off_c, 1, 57, 100
3, 436796, Note_off_c, 1, 53, 100
3, 436800, Note_on_c, 1, 53, 110
3, 436800, Note_on_c, 1, 57, 110
3, 436988, Note_off_c, 1, 53, 100
3, 436988, Note_off_c, 1, 57, 100
3, 436992, Note_on_c, 1, 57, 110
3, 436992, Note_on_c, 1, 53, 110
3, 437372, Note_off_c, 1, 57, 100
3, 437372, Note_off_c, 1, 53, 100
3, 437376, Note_on_c, 1, 60, 110
3, 437376, Note_on_c, 1, 57, 110
3, 437564, Note_off_c, 1, 60, 100
3, 437564, Note_off_c, 1, 57, 100
3, 437568, Note_on_c, 1, 57, 110
3, 437568, Note_on_c, 1, 60, 110
3, 437756, Note_off_c, 1, 57, 100
3, 437756, Note_off_c, 1, 60, 100
3, 437760, Note_on_c, 1, 57, 110
3, 437760, Note_on_c, 1, 60, 110
3, 438140, Note_off_c, 1, 57, 100
3, 438140, Note_off_c, 1, 60, 100
3, 438144, Note_on_c, 1, 60, 110
3, 438144, Note_on_c, 1, 65, 110
3, 438332, Note_off_c, 1, 60, 100
3, 438332, Note_off_c, 1, 65, 100
3, 438336, Note_on_c, 1, 65, 110
3, 438336, Note_on_c, 1, 60, 110
3, 438524, Note_off_c, 1, 65, 100
3, 438524, Note_off_c, 1, 60, 100
3, 438528, Note_on_c, 1, 60, 110
3, 438528, Note_on_c, 1, 65, 110
3, 438908, Note_off_c, 1, 60, 100
3, 438908, Note_off_c, 1, 65, 100
3, 439296, Note_on_c, 1, 53, 110
3, 439296, Note_on_c, 1, 50, 110
3, 439296, Note_on_c, 1, 47, 110
3, 439296, Note_on_c, 1, 41, 110
3, 439676, Note_off_c, 1, 53, 100
3, 439676, Note_off_c, 1, 50, 100
3, 439676, Note_off_c, 1, 47, 100
3, 439676, Note_off_c, 1, 41, 100
3, 439680, Note_on_c, 1, 59, 110
3, 439680, Note_on_c, 1, 53, 110
3, 439868, Note_off_c, 1, 59, 100
3, 439868, Note_off_c, 1, 53, 100
3, 439872, Note_on_c, 1, 59, 110
3, 439872, Note_on_c, 1, 53, 110
3, 440060, Note_off_c, 1, 59, 100
3, 440060, Note_off_c, 1, 53, 100
3, 440064, Note_on_c, 1, 59, 110
3, 440064, Note_on_c, 1, 53, 110
3, 440444, Note_off_c, 1, 59, 100
3, 440444, Note_off_c, 1, 53, 100
3, 440448, Note_on_c, 1, 59, 110
3, 440448, Note_on_c, 1, 62, 110
3, 440636, Note_off_c, 1, 59, 100
3, 440636, Note_off_c, 1, 62, 100
3, 440640, Note_on_c, 1, 59, 110
3, 440640, Note_on_c, 1, 62, 110
3, 440828, Note_off_c, 1, 59, 100
3, 440828, Note_off_c, 1, 62, 100
3, 440832, Note_on_c, 1, 59, 110
3, 440832, Note_on_c, 1, 62, 110
3, 441212, Note_off_c, 1, 59, 100
3, 441212, Note_off_c, 1, 62, 100
3, 441216, Note_on_c, 1, 62, 110
3, 441216, Note_on_c, 1, 65, 110
3, 441404, Note_off_c, 1, 62, 100
3, 441404, Note_off_c, 1, 65, 100
3, 441408, Note_on_c, 1, 62, 110
3, 441408, Note_on_c, 1, 65, 110
3, 441596, Note_off_c, 1, 62, 100
3, 441596, Note_off_c, 1, 65, 100
3, 441600, Note_on_c, 1, 62, 110
3, 441600, Note_on_c, 1, 65, 110
3, 441980, Note_off_c, 1, 62, 100
3, 441980, Note_off_c, 1, 65, 100
3, 442368, Note_on_c, 1, 52, 110
3, 442368, Note_on_c, 1, 48, 110
3, 442368, Note_on_c, 1, 43, 110
3, 442368, Note_on_c, 1, 40, 110
3, 442748, Note_off_c, 1, 52, 100
3, 442748, Note_off_c, 1, 48, 100
3, 442748, Note_off_c, 1, 43, 100
3, 442748, Note_off_c, 1, 40, 100
3, 442752, Note_on_c, 1, 55, 110
3, 442752, Note_on_c, 1, 60, 110
3, 442940, Note_off_c, 1, 55, 100
3, 442940, Note_off_c, 1, 60, 100
3, 442944, Note_on_c, 1, 55, 110
3, 442944, Note_on_c, 1, 60, 110
3, 443132, Note_off_c, 1, 55, 100
3, 443132, Note_off_c, 1, 60, 100
3, 443136, Note_on_c, 1, 55, 110
3, 443136, Note_on_c, 1, 60, 110
3, 443516, Note_off_c, 1, 55, 100
3, 443516, Note_off_c, 1, 60, 100
3, 443520, Note_on_c, 1, 60, 110
3, 443520, Note_on_c, 1, 64, 110
3, 443708, Note_off_c, 1, 60, 100
3, 443708, Note_off_c, 1, 64, 100
3, 443712, Note_on_c, 1, 60, 110
3, 443712, Note_on_c, 1, 64, 110
3, 443900, Note_off_c, 1, 60, 100
3, 443900, Note_off_c, 1, 64, 100
3, 443904, Note_on_c, 1, 60, 110
3, 443904, Note_on_c, 1, 64, 110
3, 444284, Note_off_c, 1, 60, 100
3, 444284, Note_off_c, 1, 64, 100
3, 444288, Note_on_c, 1, 64, 110
3, 444288, Note_on_c, 1, 67, 110
3, 444476, Note_off_c, 1, 64, 100
3, 444476, Note_off_c, 1, 67, 100
3, 444480, Note_on_c, 1, 67, 110
3, 444480, Note_on_c, 1, 64, 110
3, 444668, Note_off_c, 1, 67, 100
3, 444668, Note_off_c, 1, 64, 100
3, 444672, Note_on_c, 1, 64, 110
3, 444672, Note_on_c, 1, 67, 110
3, 445052, Note_off_c, 1, 64, 100
3, 445052, Note_off_c, 1, 67, 100
3, 445056, Note_on_c, 1, 67, 110
3, 445056, Note_on_c, 1, 72, 110
3, 445244, Note_off_c, 1, 67, 100
3, 445244, Note_off_c, 1, 72, 100
3, 445248, Note_on_c, 1, 72, 110
3, 445248, Note_on_c, 1, 67, 110
3, 445436, Note_off_c, 1, 72, 100
3, 445436, Note_off_c, 1, 67, 100
3, 445440, Note_on_c, 1, 72, 110
3, 445440, Note_on_c, 1, 67, 110
3, 445628, Note_off_c, 1, 72, 100
3, 445628, Note_off_c, 1, 67, 100
3, 445632, Note_on_c, 1, 72, 110
3, 445632, Note_on_c, 1, 66, 110
3, 445820, Note_off_c, 1, 72, 100
3, 445820, Note_off_c, 1, 66, 100
3, 445824, Note_on_c, 1, 72, 110
3, 445824, Note_on_c, 1, 69, 110
3, 446012, Note_off_c, 1, 72, 100
3, 446012, Note_off_c, 1, 69, 100
3, 446016, Note_on_c, 1, 72, 110
3, 446016, Note_on_c, 1, 67, 110
3, 446204, Note_off_c, 1, 72, 100
3, 446204, Note_off_c, 1, 67, 100
3, 446208, Note_on_c, 1, 72, 110
3, 446208, Note_on_c, 1, 67, 110
3, 446396, Note_off_c, 1, 72, 100
3, 446396, Note_off_c, 1, 67, 100
3, 446400, Note_on_c, 1, 72, 110
3, 446400, Note_on_c, 1, 66, 110
3, 446588, Note_off_c, 1, 72, 100
3, 446588, Note_off_c, 1, 66, 100
3, 446592, Note_on_c, 1, 72, 110
3, 446592, Note_on_c, 1, 69, 110
3, 446780, Note_off_c, 1, 72, 100
3, 446780, Note_off_c, 1, 69, 100
3, 446784, Note_on_c, 1, 72, 110
3, 446784, Note_on_c, 1, 67, 110
3, 446972, Note_off_c, 1, 72, 100
3, 446972, Note_off_c, 1, 67, 100
3, 446976, Note_on_c, 1, 72, 110
3, 446976, Note_on_c, 1, 67, 110
3, 447164, Note_off_c, 1, 72, 100
3, 447164, Note_off_c, 1, 67, 100
3, 447168, Note_on_c, 1, 72, 110
3, 447168, Note_on_c, 1, 66, 110
3, 447356, Note_off_c, 1, 72, 100
3, 447356, Note_off_c, 1, 66, 100
3, 447360, Note_on_c, 1, 72, 110
3, 447360, Note_on_c, 1, 69, 110
3, 447548, Note_off_c, 1, 72, 100
3, 447548, Note_off_c, 1, 69, 100
3, 447552, Note_on_c, 1, 72, 110
3, 447552, Note_on_c, 1, 67, 110
3, 447740, Note_off_c, 1, 72, 100
3, 447740, Note_off_c, 1, 67, 100
3, 447744, Note_on_c, 1, 72, 110
3, 447744, Note_on_c, 1, 67, 110
3, 447932, Note_off_c, 1, 72, 100
3, 447932, Note_off_c, 1, 67, 100
3, 447936, Note_on_c, 1, 72, 110
3, 447936, Note_on_c, 1, 66, 110
3, 448124, Note_off_c, 1, 72, 100
3, 448124, Note_off_c, 1, 66, 100
3, 448128, Note_on_c, 1, 72, 110
3, 448128, Note_on_c, 1, 69, 110
3, 448316, Note_off_c, 1, 72, 100
3, 448316, Note_off_c, 1, 69, 100
3, 448320, Note_on_c, 1, 72, 110
3, 448320, Note_on_c, 1, 67, 110
3, 448508, Note_off_c, 1, 72, 100
3, 448508, Note_off_c, 1, 67, 100
3, 448704, Note_on_c, 1, 60, 110
3, 448704, Note_on_c, 1, 72, 110
3, 449084, Note_off_c, 1, 60, 100
3, 449084, Note_off_c, 1, 72, 100
3, 449088, Note_on_c, 1, 59, 110
3, 449088, Note_on_c, 1, 71, 110
3, 449468, Note_off_c, 1, 59, 100
3, 449468, Note_off_c, 1, 71, 100
3, 449472, Note_on_c, 1, 57, 110
3, 449472, Note_on_c, 1, 69, 110
3, 449852, Note_off_c, 1, 57, 100
3, 449852, Note_off_c, 1, 69, 100
3, 449856, Note_on_c, 1, 55, 110
3, 449856, Note_on_c, 1, 67, 110
3, 450236, Note_off_c, 1, 55, 100
3, 450236, Note_off_c, 1, 67, 100
3, 450240, Note_on_c, 1, 53, 110
3, 450240, Note_on_c, 1, 65, 110
3, 450620, Note_off_c, 1, 53, 100
3, 450620, Note_off_c, 1, 65, 100
3, 450624, Note_on_c, 1, 52, 110
3, 450624, Note_on_c, 1, 64, 110
3, 451004, Note_off_c, 1, 52, 100
3, 451004, Note_off_c, 1, 64, 100
3, 451008, Note_on_c, 1, 50, 110
3, 451008, Note_on_c, 1, 62, 110
3, 451388, Note_off_c, 1, 50, 100
3, 451388, Note_off_c, 1, 62, 100
3, 451392, Note_on_c, 1, 48, 110
3, 451392, Note_on_c, 1, 60, 110
3, 451772, Note_off_c, 1, 48, 100
3, 451772, Note_off_c, 1, 60, 100
3, 451776, Note_on_c, 1, 47, 110
3, 451776, Note_on_c, 1, 59, 110
3, 452156, Note_off_c, 1, 47, 100
3, 452156, Note_off_c, 1, 59, 100
3, 452160, Note_on_c, 1, 45, 110
3, 452160, Note_on_c, 1, 57, 110
3, 452540, Note_off_c, 1, 45, 100
3, 452540, Note_off_c, 1, 57, 100
3, 452544, Note_on_c, 1, 43, 110
3, 452544, Note_on_c, 1, 55, 110
3, 452924, Note_off_c, 1, 43, 100
3, 452924, Note_off_c, 1, 55, 100
3, 452928, Note_on_c, 1, 53, 110
3, 452928, Note_on_c, 1, 41, 110
3, 453308, Note_off_c, 1, 41, 100
3, 453308, Note_off_c, 1, 53, 100
3, 453312, Note_on_c, 1, 40, 110
3, 453312, Note_on_c, 1, 52, 110
3, 453692, Note_off_c, 1, 40, 100
3, 453692, Note_off_c, 1, 52, 100
3, 453696, Note_on_c, 1, 38, 110
3, 453696, Note_on_c, 1, 50, 110
3, 454076, Note_off_c, 1, 38, 100
3, 454076, Note_off_c, 1, 50, 100
3, 454080, Note_on_c, 1, 36, 110
3, 454080, Note_on_c, 1, 48, 110
3, 454460, Note_off_c, 1, 36, 100
3, 454460, Note_off_c, 1, 48, 100
3, 454464, Note_on_c, 1, 35, 110
3, 454464, Note_on_c, 1, 47, 110
3, 454652, Note_off_c, 1, 35, 100
3, 454652, Note_off_c, 1, 47, 100
3, 455040, Note_on_c, 1, 48, 120
3, 455040, Note_on_c, 1, 36, 120
3, 455420, Note_off_c, 1, 48, 100
3, 455420, Note_off_c, 1, 36, 100
3, 456576, Note_on_c, 1, 44, 120
3, 456576, Note_on_c, 1, 32, 120
3, 456956, Note_off_c, 1, 44, 100
3, 456956, Note_off_c, 1, 32, 100
3, 458112, Note_on_c, 1, 45, 120
3, 458112, Note_on_c, 1, 33, 120
3, 458492, Note_off_c, 1, 45, 100
3, 458492, Note_off_c, 1, 33, 100
3, 459264, Note_on_c, 1, 53, 120
3, 459264, Note_on_c, 1, 41, 120
3, 459644, Note_off_c, 1, 53, 100
3, 459644, Note_off_c, 1, 41, 100
3, 460032, Note_on_c, 1, 55, 120
3, 460032, Note_on_c, 1, 43, 120
3, 460412, Note_off_c, 1, 55, 100
3, 460412, Note_off_c, 1, 43, 100
3, 460800, Note_on_c, 1, 48, 120
3, 460800, Note_on_c, 1, 36, 120
3, 461180, Note_off_c, 1, 48, 100
3, 461180, Note_off_c, 1, 36, 100
3, 461568, Note_on_c, 1, 53, 80
3, 461948, Note_off_c, 1, 53, 100
3, 461952, Note_on_c, 1, 53, 80
3, 462332, Note_off_c, 1, 53, 100
3, 462336, Note_on_c, 1, 55, 80
3, 462384, Note_on_c, 1, 53, 80
3, 462428, Note_off_c, 1, 55, 100
3, 462432, Note_on_c, 1, 55, 80
3, 462476, Note_off_c, 1, 53, 100
3, 462480, Note_on_c, 1, 53, 80
3, 462524, Note_off_c, 1, 55, 100
3, 462528, Note_on_c, 1, 52, 80
3, 462572, Note_off_c, 1, 53, 100
3, 462620, Note_off_c, 1, 52, 100
3, 462624, Note_on_c, 1, 53, 80
3, 462716, Note_off_c, 1, 53, 100
3, 462720, Note_on_c, 1, 50, 80
3, 463100, Note_off_c, 1, 50, 100
3, 463104, Note_on_c, 1, 62, 70
3, 463104, Note_on_c, 1, 55, 70
3, 463868, Note_off_c, 1, 62, 100
3, 463868, Note_off_c, 1, 55, 100
3, 463872, Note_on_c, 1, 60, 70
3, 463872, Note_on_c, 1, 48, 70
3, 464252, Note_off_c, 1, 60, 100
3, 464252, Note_off_c, 1, 48, 100
3, 464640, Note_on_c, 1, 53, 80
3, 465020, Note_off_c, 1, 53, 100
3, 465024, Note_on_c, 1, 53, 80
3, 465404, Note_off_c, 1, 53, 100
3, 465408, Note_on_c, 1, 55, 80
3, 465456, Note_on_c, 1, 53, 80
3, 465500, Note_off_c, 1, 55, 100
3, 465504, Note_on_c, 1, 55, 80
3, 465548, Note_off_c, 1, 53, 100
3, 465552, Note_on_c, 1, 53, 80
3, 465596, Note_off_c, 1, 55, 100
3, 465600, Note_on_c, 1, 52, 80
3, 465644, Note_off_c, 1, 53, 100
3, 465692, Note_off_c, 1, 52, 100
3, 465696, Note_on_c, 1, 53, 80
3, 465788, Note_off_c, 1, 53, 100
3, 465792, Note_on_c, 1, 50, 80
3, 466172, Note_off_c, 1, 50, 100
3, 466176, Note_on_c, 1, 65, 70
3, 466176, Note_on_c, 1, 55, 70
3, 466940, Note_off_c, 1, 65, 100
3, 466940, Note_off_c, 1, 55, 100
3, 466944, Note_on_c, 1, 64, 70
3, 466944, Note_on_c, 1, 60, 70
3, 467324, Note_off_c, 1, 64, 100
3, 467324, Note_off_c, 1, 60, 100
3, 467712, Note_on_c, 1, 53, 100
3, 468092, Note_off_c, 1, 53, 100
3, 468096, Note_on_c, 1, 53, 100
3, 468476, Note_off_c, 1, 53, 100
3, 468480, Note_on_c, 1, 55, 100
3, 468528, Note_on_c, 1, 53, 100
3, 468572, Note_off_c, 1, 55, 100
3, 468576, Note_on_c, 1, 55, 100
3, 468620, Note_off_c, 1, 53, 100
3, 468624, Note_on_c, 1, 53, 100
3, 468668, Note_off_c, 1, 55, 100
3, 468672, Note_on_c, 1, 52, 100
3, 468716, Note_off_c, 1, 53, 100
3, 468764, Note_off_c, 1, 52, 100
3, 468768, Note_on_c, 1, 53, 100
3, 468860, Note_off_c, 1, 53, 100
3, 468864, Note_on_c, 1, 50, 100
3, 469244, Note_off_c, 1, 50, 100
3, 469248, Note_on_c, 1, 60, 100
3, 469296, Note_on_c, 1, 59, 100
3, 469340, Note_off_c, 1, 60, 100
3, 469344, Note_on_c, 1, 60, 100
3, 469388, Note_off_c, 1, 59, 100
3, 469392, Note_on_c, 1, 59, 100
3, 469436, Note_off_c, 1, 60, 100
3, 469440, Note_on_c, 1, 57, 100
3, 469484, Note_off_c, 1, 59, 100
3, 469532, Note_off_c, 1, 57, 100
3, 469536, Note_on_c, 1, 59, 100
3, 469628, Note_off_c, 1, 59, 100
3, 469632, Note_on_c, 1, 55, 100
3, 470012, Note_off_c, 1, 55, 100
3, 470016, Note_on_c, 1, 67, 100
3, 470064, Note_on_c, 1, 65, 100
3, 470108, Note_off_c, 1, 67, 100
3, 470112, Note_on_c, 1, 67, 100
3, 470156, Note_off_c, 1, 65, 100
3, 470160, Note_on_c, 1, 65, 100
3, 470204, Note_off_c, 1, 67, 100
3, 470208, Note_on_c, 1, 64, 100
3, 470252, Note_off_c, 1, 65, 100
3, 470300, Note_off_c, 1, 64, 100
3, 470304, Note_on_c, 1, 65, 100
3, 470396, Note_off_c, 1, 65, 100
3, 470400, Note_on_c, 1, 62, 100
3, 470780, Note_off_c, 1, 62, 100
3, 470784, Note_on_c, 1, 72, 100
3, 470832, Note_on_c, 1, 71, 100
3, 470876, Note_off_c, 1, 72, 100
3, 470880, Note_on_c, 1, 72, 100
3, 470924, Note_off_c, 1, 71, 100
3, 470928, Note_on_c, 1, 71, 100
3, 470972, Note_off_c, 1, 72, 100
3, 470976, Note_on_c, 1, 69, 100
3, 471020, Note_off_c, 1, 71, 100
3, 471068, Note_off_c, 1, 69, 100
3, 471072, Note_on_c, 1, 71, 100
3, 471164, Note_off_c, 1, 71, 100
3, 471168, Note_on_c, 1, 67, 100
3, 471548, Note_off_c, 1, 67, 100
3, 471552, Note_on_c, 1, 44, 120
3, 471552, Note_on_c, 1, 39, 120
3, 471552, Note_on_c, 1, 36, 120
3, 471552, Note_on_c, 1, 32, 120
3, 476540, Note_off_c, 1, 32, 100
3, 476540, Note_off_c, 1, 36, 100
3, 476540, Note_off_c, 1, 39, 100
3, 476540, Note_off_c, 1, 44, 100
3, 476544, Note_on_c, 1, 44, 80
3, 476732, Note_off_c, 1, 44, 100
3, 476736, Note_on_c, 1, 48, 80
3, 476924, Note_off_c, 1, 48, 100
3, 476928, Note_on_c, 1, 39, 80
3, 477116, Note_off_c, 1, 39, 100
3, 477120, Note_on_c, 1, 44, 80
3, 477308, Note_off_c, 1, 44, 100
3, 477312, Note_on_c, 1, 36, 80
3, 477500, Note_off_c, 1, 36, 100
3, 477504, Note_on_c, 1, 39, 80
3, 477692, Note_off_c, 1, 39, 100
3, 477696, Note_on_c, 1, 32, 70
3, 477888, Note_on_c, 1, 36, 70
3, 478080, Note_on_c, 1, 39, 70
3, 478272, Note_on_c, 1, 44, 70
3, 479804, Note_off_c, 1, 44, 100
3, 479808, Note_on_c, 1, 44, 70
3, 479996, Note_off_c, 1, 32, 100
3, 479996, Note_off_c, 1, 36, 100
3, 479996, Note_off_c, 1, 39, 100
3, 480000, Note_on_c, 1, 39, 70
3, 480192, Note_on_c, 1, 36, 70
3, 480380, Note_off_c, 1, 39, 100
3, 480384, Note_on_c, 1, 32, 70
3, 480572, Note_off_c, 1, 44, 100
3, 480572, Note_off_c, 1, 36, 100
3, 480576, Note_on_c, 1, 44, 70
3, 480764, Note_off_c, 1, 32, 100
3, 480764, Note_off_c, 1, 44, 100
3, 480768, Note_on_c, 1, 34, 70
3, 480960, Note_on_c, 1, 40, 70
3, 481152, Note_on_c, 1, 43, 70
3, 481344, Note_on_c, 1, 46, 70
3, 482876, Note_off_c, 1, 46, 100
3, 482880, Note_on_c, 1, 46, 70
3, 483068, Note_off_c, 1, 34, 100
3, 483068, Note_off_c, 1, 40, 100
3, 483068, Note_off_c, 1, 43, 100
3, 483072, Note_on_c, 1, 43, 70
3, 483264, Note_on_c, 1, 40, 70
3, 483452, Note_off_c, 1, 43, 100
3, 483456, Note_on_c, 1, 34, 70
3, 483644, Note_off_c, 1, 46, 100
3, 483644, Note_off_c, 1, 40, 100
3, 483648, Note_on_c, 1, 46, 70
3, 483836, Note_off_c, 1, 34, 100
3, 483836, Note_off_c, 1, 46, 100
3, 483840, Note_on_c, 1, 36, 70
3, 484032, Note_on_c, 1, 42, 70
3, 484224, Note_on_c, 1, 45, 70
3, 484416, Note_on_c, 1, 48, 70
3, 485948, Note_off_c, 1, 48, 100
3, 485952, Note_on_c, 1, 48, 70
3, 486140, Note_off_c, 1, 36, 100
3, 486140, Note_off_c, 1, 42, 100
3, 486140, Note_off_c, 1, 45, 100
3, 486140, Note_off_c, 1, 48, 100
3, 486144, Note_on_c, 1, 45, 70
3, 486336, Note_on_c, 1, 42, 70
3, 486524, Note_off_c, 1, 45, 100
3, 486528, Note_on_c, 1, 36, 70
3, 486720, Note_on_c, 1, 48, 70
3, 486908, Note_off_c, 1, 42, 100
3, 486908, Note_off_c, 1, 36, 100
3, 486908, Note_off_c, 1, 48, 100
3, 486912, Note_on_c, 1, 38, 70
3, 487040, Note_on_c, 1, 44, 70
3, 487164, Note_off_c, 1, 44, 100
3, 487168, Note_on_c, 1, 47, 71
3, 487292, Note_off_c, 1, 47, 100
3, 487296, Note_on_c, 1, 50, 72
3, 488188, Note_off_c, 1, 50, 100
3, 488192, Note_on_c, 1, 47, 78
3, 488316, Note_off_c, 1, 47, 100
3, 488320, Note_on_c, 1, 44, 79
3, 488444, Note_off_c, 1, 38, 100
3, 488444, Note_off_c, 1, 44, 100
3, 488448, Note_on_c, 1, 40, 80
3, 488576, Note_on_c, 1, 46, 81
3, 488700, Note_off_c, 1, 46, 100
3, 488704, Note_on_c, 1, 49, 81
3, 488828, Note_off_c, 1, 49, 100
3, 488832, Note_on_c, 1, 52, 82
3, 489724, Note_off_c, 1, 52, 100
3, 489728, Note_on_c, 1, 49, 88
3, 489852, Note_off_c, 1, 49, 100
3, 489856, Note_on_c, 1, 46, 89
3, 489980, Note_off_c, 1, 40, 100
3, 489980, Note_off_c, 1, 46, 100
3, 489984, Note_on_c, 1, 41, 90
3, 490112, Note_on_c, 1, 47, 91
3, 490236, Note_off_c, 1, 47, 100
3, 490240, Note_on_c, 1, 50, 92
3, 490364, Note_off_c, 1, 50, 100
3, 490368, Note_on_c, 1, 53, 92
3, 491260, Note_off_c, 1, 53, 100
3, 491264, Note_on_c, 1, 50, 98
3, 491388, Note_off_c, 1, 50, 100
3, 491392, Note_on_c, 1, 47, 99
3, 491516, Note_off_c, 1, 41, 100
3, 491516, Note_off_c, 1, 47, 100
3, 491520, Note_on_c, 1, 42, 100
3, 491648, Note_on_c, 1, 48, 101
3, 491772, Note_off_c, 1, 48, 100
3, 491776, Note_on_c, 1, 51, 102
3, 491900, Note_off_c, 1, 51, 100
3, 491904, Note_on_c, 1, 54, 103
3, 492796, Note_off_c, 1, 54, 100
3, 492800, Note_on_c, 1, 51, 109
3, 492924, Note_off_c, 1, 51, 100
3, 492928, Note_on_c, 1, 48, 109
3, 493052, Note_off_c, 1, 42, 100
3, 493052, Note_off_c, 1, 48, 100
3, 493056, Note_on_c, 1, 55, 110
3, 493056, Note_on_c, 1, 52, 110
3, 493056, Note_on_c, 1, 48, 110
3, 493056, Note_on_c, 1, 43, 110
3, 493820, Note_off_c, 1, 55, 100
3, 493820, Note_off_c, 1, 52, 100
3, 493820, Note_off_c, 1, 48, 100
3, 493820, Note_off_c, 1, 43, 100
3, 498432, Note_on_c, 1, 75, 80
3, 498528, Note_on_c, 1, 76, 80
3, 498620, Note_off_c, 1, 75, 100
3, 498624, Note_on_c, 1, 75, 80
3, 498716, Note_off_c, 1, 76, 100
3, 498720, Note_on_c, 1, 76, 80
3, 498812, Note_off_c, 1, 75, 100
3, 498816, Note_on_c, 1, 77, 80
3, 498908, Note_off_c, 1, 76, 100
3, 499008, Note_on_c, 1, 76, 80
3, 499100, Note_off_c, 1, 77, 100
3, 499200, Note_on_c, 1, 71, 80
3, 499292, Note_off_c, 1, 76, 100
3, 499296, Note_on_c, 1, 72, 80
3, 499388, Note_off_c, 1, 71, 100
3, 499392, Note_on_c, 1, 71, 80
3, 499484, Note_off_c, 1, 72, 100
3, 499488, Note_on_c, 1, 72, 80
3, 499580, Note_off_c, 1, 71, 100
3, 499584, Note_on_c, 1, 74, 80
3, 499676, Note_off_c, 1, 72, 100
3, 499776, Note_on_c, 1, 72, 80
3, 499868, Note_off_c, 1, 74, 100
3, 499968, Note_on_c, 1, 68, 80
3, 500060, Note_off_c, 1, 72, 100
3, 500064, Note_on_c, 1, 69, 80
3, 500156, Note_off_c, 1, 68, 100
3, 500160, Note_on_c, 1, 68, 80
3, 500252, Note_off_c, 1, 69, 100
3, 500256, Note_on_c, 1, 69, 80
3, 500348, Note_off_c, 1, 68, 100
3, 500352, Note_on_c, 1, 71, 80
3, 500444, Note_off_c, 1, 69, 100
3, 500544, Note_on_c, 1, 69, 80
3, 500636, Note_off_c, 1, 71, 100
3, 500736, Note_on_c, 1, 64, 80
3, 500828, Note_off_c, 1, 69, 100
3, 500832, Note_on_c, 1, 65, 80
3, 500924, Note_off_c, 1, 64, 100
3, 500928, Note_on_c, 1, 64, 80
3, 501020, Note_off_c, 1, 65, 100
3, 501024, Note_on_c, 1, 65, 80
3, 501116, Note_off_c, 1, 64, 100
3, 501120, Note_on_c, 1, 67, 80
3, 501212, Note_off_c, 1, 65, 100
3, 501312, Note_on_c, 1, 65, 80
3, 501404, Note_off_c, 1, 67, 100
3, 501504, Note_on_c, 1, 64, 80
3, 501596, Note_off_c, 1, 65, 100
3, 501600, Note_on_c, 1, 65, 80
3, 501692, Note_off_c, 1, 64, 100
3, 501696, Note_on_c, 1, 64, 80
3, 501788, Note_off_c, 1, 65, 100
3, 501792, Note_on_c, 1, 65, 80
3, 501884, Note_off_c, 1, 64, 100
3, 501888, Note_on_c, 1, 69, 80
3, 501980, Note_off_c, 1, 65, 100
3, 502080, Note_on_c, 1, 65, 80
3, 502172, Note_off_c, 1, 69, 100
3, 502272, Note_on_c, 1, 64, 80
3, 502364, Note_off_c, 1, 65, 100
3, 502368, Note_on_c, 1, 65, 80
3, 502460, Note_off_c, 1, 64, 100
3, 502464, Note_on_c, 1, 64, 80
3, 502556, Note_off_c, 1, 65, 100
3, 502560, Note_on_c, 1, 65, 80
3, 502652, Note_off_c, 1, 64, 100
3, 502656, Note_on_c, 1, 67, 80
3, 502748, Note_off_c, 1, 65, 100
3, 502848, Note_on_c, 1, 65, 80
3, 502940, Note_off_c, 1, 67, 100
3, 503040, Note_on_c, 1, 64, 80
3, 503132, Note_off_c, 1, 65, 100
3, 503136, Note_on_c, 1, 65, 80
3, 503228, Note_off_c, 1, 64, 100
3, 503232, Note_on_c, 1, 64, 80
3, 503324, Note_off_c, 1, 65, 100
3, 503328, Note_on_c, 1, 65, 80
3, 503420, Note_off_c, 1, 64, 100
3, 503424, Note_on_c, 1, 69, 80
3, 503516, Note_off_c, 1, 65, 100
3, 503616, Note_on_c, 1, 65, 80
3, 503708, Note_off_c, 1, 69, 100
3, 503808, Note_on_c, 1, 64, 80
3, 503900, Note_off_c, 1, 65, 100
3, 503904, Note_on_c, 1, 65, 80
3, 503996, Note_off_c, 1, 64, 100
3, 504000, Note_on_c, 1, 67, 80
3, 504092, Note_off_c, 1, 65, 100
3, 504096, Note_on_c, 1, 65, 80
3, 504188, Note_off_c, 1, 67, 100
3, 504192, Note_on_c, 1, 64, 80
3, 504284, Note_off_c, 1, 65, 100
3, 504288, Note_on_c, 1, 65, 80
3, 504380, Note_off_c, 1, 64, 100
3, 504384, Note_on_c, 1, 69, 80
3, 504476, Note_off_c, 1, 65, 100
3, 504480, Note_on_c, 1, 65, 80
3, 504572, Note_off_c, 1, 69, 100
3, 504576, Note_on_c, 1, 64, 80
3, 504668, Note_off_c, 1, 65, 100
3, 504672, Note_on_c, 1, 65, 80
3, 504764, Note_off_c, 1, 64, 100
3, 504768, Note_on_c, 1, 67, 80
3, 504860, Note_off_c, 1, 65, 100
3, 504864, Note_on_c, 1, 65, 80
3, 504956, Note_off_c, 1, 67, 100
3, 504960, Note_on_c, 1, 64, 80
3, 505052, Note_off_c, 1, 65, 100
3, 505056, Note_on_c, 1, 65, 80
3, 505148, Note_off_c, 1, 64, 100
3, 505152, Note_on_c, 1, 69, 80
3, 505244, Note_off_c, 1, 65, 100
3, 505248, Note_on_c, 1, 65, 80
3, 505340, Note_off_c, 1, 69, 100
3, 505344, Note_on_c, 1, 64, 80
3, 505436, Note_off_c, 1, 65, 100
3, 505440, Note_on_c, 1, 65, 80
3, 505532, Note_off_c, 1, 64, 100
3, 505536, Note_on_c, 1, 64, 80
3, 505628, Note_off_c, 1, 65, 100
3, 505632, Note_on_c, 1, 65, 80
3, 505724, Note_off_c, 1, 64, 100
3, 505728, Note_on_c, 1, 64, 80
3, 505820, Note_off_c, 1, 65, 100
3, 505824, Note_on_c, 1, 65, 80
3, 505916, Note_off_c, 1, 64, 100
3, 505920, Note_on_c, 1, 64, 80
3, 506012, Note_off_c, 1, 65, 100
3, 506016, Note_on_c, 1, 65, 80
3, 506108, Note_off_c, 1, 64, 100
3, 506112, Note_on_c, 1, 64, 80
3, 506204, Note_off_c, 1, 65, 100
3, 506208, Note_on_c, 1, 65, 80
3, 506300, Note_off_c, 1, 64, 100
3, 506304, Note_on_c, 1, 64, 80
3, 506396, Note_off_c, 1, 65, 100
3, 506400, Note_on_c, 1, 65, 80
3, 506492, Note_off_c, 1, 64, 100
3, 506496, Note_on_c, 1, 64, 80
3, 506588, Note_off_c, 1, 65, 100
3, 506592, Note_on_c, 1, 65, 80
3, 506684, Note_off_c, 1, 64, 100
3, 506688, Note_on_c, 1, 64, 80
3, 506780, Note_off_c, 1, 65, 100
3, 506784, Note_on_c, 1, 65, 80
3, 506876, Note_off_c, 1, 64, 100
3, 506876, Note_off_c, 1, 65, 100
3, 506880, Note_on_c, 1, 65, 80
3, 506880, Note_on_c, 1, 62, 80
3, 506880, Note_on_c, 1, 59, 80
3, 506880, Note_on_c, 1, 55, 80
3, 511484, Note_off_c, 1, 55, 100
3, 511484, Note_off_c, 1, 59, 100
3, 511484, Note_off_c, 1, 62, 100
3, 511484, Note_off_c, 1, 65, 100
3, 511488, Note_on_c, 1, 55, 80
3, 511488, Note_on_c, 1, 48, 80
3, 513020, Note_off_c, 1, 55, 100
3, 513020, Note_off_c, 1, 48, 100
3, 513024, Note_on_c, 1, 55, 80
3, 513024, Note_on_c, 1, 43, 80
3, 513404, Note_off_c, 1, 55, 100
3, 513404, Note_off_c, 1, 43, 100
3, 513408, Note_on_c, 1, 55, 80
3, 513408, Note_on_c, 1, 43, 80
3, 513788, Note_off_c, 1, 55, 100
3, 513788, Note_off_c, 1, 43, 100
3, 514560, Note_on_c, 1, 59, 80
3, 514560, Note_on_c, 1, 43, 80
3, 516092, Note_off_c, 1, 59, 100
3, 516092, Note_off_c, 1, 43, 100
3, 516096, Note_on_c, 1, 55, 80
3, 516096, Note_on_c, 1, 48, 80
3, 516476, Note_off_c, 1, 55, 100
3, 516476, Note_off_c, 1, 48, 100
3, 516480, Note_on_c, 1, 55, 80
3, 516480, Note_on_c, 1, 48, 80
3, 516860, Note_off_c, 1, 55, 100
3, 516860, Note_off_c, 1, 48, 100
3, 518400, Note_on_c, 1, 55, 80
3, 518400, Note_on_c, 1, 43, 80
3, 518780, Note_off_c, 1, 55, 100
3, 518780, Note_off_c, 1, 43, 100
3, 518784, Note_on_c, 1, 50, 103
3, 518784, Note_on_c, 1, 62, 102
3, 519548, Note_off_c, 1, 50, 100
3, 519548, Note_off_c, 1, 62, 100
3, 519552, Note_on_c, 1, 48, 80
3, 519552, Note_on_c, 1, 60, 80
3, 519932, Note_off_c, 1, 48, 100
3, 519932, Note_off_c, 1, 60, 100
3, 519936, Note_on_c, 1, 43, 80
3, 519936, Note_on_c, 1, 55, 80
3, 520316, Note_off_c, 1, 43, 100
3, 520316, Note_off_c, 1, 55, 100
3, 520320, Note_on_c, 1, 50, 104
3, 520320, Note_on_c, 1, 62, 104
3, 521084, Note_off_c, 1, 50, 100
3, 521084, Note_off_c, 1, 62, 100
3, 521088, Note_on_c, 1, 60, 80
3, 521088, Note_on_c, 1, 48, 80
3, 521468, Note_off_c, 1, 60, 100
3, 521468, Note_off_c, 1, 48, 100
3, 521472, Note_on_c, 1, 47, 80
3, 521472, Note_on_c, 1, 59, 80
3, 521852, Note_off_c, 1, 47, 100
3, 521852, Note_off_c, 1, 59, 100
3, 521856, Note_on_c, 1, 53, 104
3, 521856, Note_on_c, 1, 65, 101
3, 522620, Note_off_c, 1, 53, 100
3, 522620, Note_off_c, 1, 65, 100
3, 522624, Note_on_c, 1, 52, 80
3, 522624, Note_on_c, 1, 64, 80
3, 523004, Note_off_c, 1, 52, 100
3, 523004, Note_off_c, 1, 64, 100
3, 523008, Note_on_c, 1, 50, 80
3, 523008, Note_on_c, 1, 62, 80
3, 523388, Note_off_c, 1, 50, 100
3, 523388, Note_off_c, 1, 62, 100
3, 523392, Note_on_c, 1, 57, 101
3, 523392, Note_on_c, 1, 69, 100
3, 524156, Note_off_c, 1, 57, 100
3, 524156, Note_off_c, 1, 69, 100
3, 524160, Note_on_c, 1, 55, 100
3, 524160, Note_on_c, 1, 67, 100
3, 524924, Note_off_c, 1, 55, 100
3, 524924, Note_off_c, 1, 67, 100
3, 524928, Note_on_c, 1, 53, 100
3, 524928, Note_on_c, 1, 65, 100
3, 525692, Note_off_c, 1, 53, 100
3, 525692, Note_off_c, 1, 65, 100
3, 525696, Note_on_c, 1, 52, 100
3, 525696, Note_on_c, 1, 64, 100
3, 526460, Note_off_c, 1, 52, 100
3, 526460, Note_off_c, 1, 64, 100
3, 526464, Note_on_c, 1, 50, 100
3, 526464, Note_on_c, 1, 62, 100
3, 526844, Note_off_c, 1, 50, 100
3, 526844, Note_off_c, 1, 62, 100
3, 526848, Note_on_c, 1, 48, 120
3, 527036, Note_off_c, 1, 48, 100
3, 527040, Note_on_c, 1, 60, 120
3, 527040, Note_on_c, 1, 64, 120
3, 527228, Note_off_c, 1, 60, 100
3, 527228, Note_off_c, 1, 64, 100
3, 527232, Note_on_c, 1, 47, 120
3, 527420, Note_off_c, 1, 47, 100
3, 527424, Note_on_c, 1, 59, 120
3, 527424, Note_on_c, 1, 62, 120
3, 527612, Note_off_c, 1, 59, 100
3, 527612, Note_off_c, 1, 62, 100
3, 527616, Note_on_c, 1, 45, 120
3, 527804, Note_off_c, 1, 45, 100
3, 527808, Note_on_c, 1, 57, 120
3, 527808, Note_on_c, 1, 60, 120
3, 527996, Note_off_c, 1, 57, 100
3, 527996, Note_off_c, 1, 60, 100
3, 528000, Note_on_c, 1, 43, 120
3, 528188, Note_off_c, 1, 43, 100
3, 528192, Note_on_c, 1, 55, 120
3, 528192, Note_on_c, 1, 59, 120
3, 528380, Note_off_c, 1, 55, 100
3, 528380, Note_off_c, 1, 59, 100
3, 528384, Note_on_c, 1, 41, 120
3, 528572, Note_off_c, 1, 41, 100
3, 528576, Note_on_c, 1, 53, 120
3, 528576, Note_on_c, 1, 57, 120
3, 528764, Note_off_c, 1, 53, 100
3, 528764, Note_off_c, 1, 57, 100
3, 528768, Note_on_c, 1, 40, 120
3, 528956, Note_off_c, 1, 40, 100
3, 528960, Note_on_c, 1, 52, 120
3, 528960, Note_on_c, 1, 55, 120
3, 529148, Note_off_c, 1, 52, 100
3, 529148, Note_off_c, 1, 55, 100
3, 529152, Note_on_c, 1, 38, 120
3, 529340, Note_off_c, 1, 38, 100
3, 529344, Note_on_c, 1, 50, 120
3, 529344, Note_on_c, 1, 53, 120
3, 529532, Note_off_c, 1, 50, 100
3, 529532, Note_off_c, 1, 53, 100
3, 529536, Note_on_c, 1, 36, 120
3, 529724, Note_off_c, 1, 36, 100
3, 529728, Note_on_c, 1, 48, 120
3, 529728, Note_on_c, 1, 52, 120
3, 529916, Note_off_c, 1, 48, 100
3, 529916, Note_off_c, 1, 52, 100
3, 529920, Note_on_c, 1, 50, 120
3, 529920, Note_on_c, 1, 45, 120
3, 529920, Note_on_c, 1, 41, 120
3, 530300, Note_off_c, 1, 50, 100
3, 530300, Note_off_c, 1, 45, 100
3, 530300, Note_off_c, 1, 41, 100
3, 531456, Note_on_c, 1, 53, 80
3, 531456, Note_on_c, 1, 50, 80
3, 531456, Note_on_c, 1, 43, 80
3, 531836, Note_off_c, 1, 53, 100
3, 531836, Note_off_c, 1, 50, 100
3, 531836, Note_off_c, 1, 43, 100
3, 532992, Note_on_c, 1, 52, 70
3, 532992, Note_on_c, 1, 48, 70
3, 532992, Note_on_c, 1, 45, 70
3, 533372, Note_off_c, 1, 52, 100
3, 533372, Note_off_c, 1, 48, 100
3, 533372, Note_off_c, 1, 45, 100
3, 536064, Note_on_c, 1, 41, 120
3, 536064, Note_on_c, 1, 29, 120
3, 536444, Note_off_c, 1, 41, 100
3, 536444, Note_off_c, 1, 29, 100
3, 536448, Note_on_c, 1, 41, 120
3, 536448, Note_on_c, 1, 53, 120
3, 536828, Note_off_c, 1, 41, 100
3, 536828, Note_off_c, 1, 53, 100
3, 537600, Note_on_c, 1, 43, 120
3, 537600, Note_on_c, 1, 31, 120
3, 537980, Note_off_c, 1, 43, 100
3, 537980, Note_off_c, 1, 31, 100
3, 537984, Note_on_c, 1, 43, 120
3, 537984, Note_on_c, 1, 55, 120
3, 538364, Note_off_c, 1, 43, 100
3, 538364, Note_off_c, 1, 55, 100
3, 539136, Note_on_c, 1, 31, 120
3, 539136, Note_on_c, 1, 43, 120
3, 539516, Note_off_c, 1, 31, 100
3, 539516, Note_off_c, 1, 43, 100
3, 539520, Note_on_c, 1, 43, 120
3, 539520, Note_on_c, 1, 55, 120
3, 539900, Note_off_c, 1, 43, 100
3, 539900, Note_off_c, 1, 55, 100
3, 540672, Note_on_c, 1, 36, 120
3, 540764, Note_off_c, 1, 36, 100
3, 540768, Note_on_c, 1, 48, 120
3, 540860, Note_off_c, 1, 48, 100
3, 540864, Note_on_c, 1, 35, 120
3, 540956, Note_off_c, 1, 35, 100
3, 540960, Note_on_c, 1, 47, 120
3, 541052, Note_off_c, 1, 47, 100
3, 541056, Note_on_c, 1, 36, 120
3, 541148, Note_off_c, 1, 36, 100
3, 541152, Note_on_c, 1, 48, 120
3, 541244, Note_off_c, 1, 48, 100
3, 541248, Note_on_c, 1, 38, 120
3, 541340, Note_off_c, 1, 38, 100
3, 541344, Note_on_c, 1, 50, 120
3, 541436, Note_off_c, 1, 50, 100
3, 541440, Note_on_c, 1, 40, 120
3, 541532, Note_off_c, 1, 40, 100
3, 541536, Note_on_c, 1, 52, 120
3, 541628, Note_off_c, 1, 52, 100
3, 541632, Note_on_c, 1, 41, 120
3, 541724, Note_off_c, 1, 41, 100
3, 541728, Note_on_c, 1, 53, 120
3, 541820, Note_off_c, 1, 53, 100
3, 541824, Note_on_c, 1, 43, 120
3, 541916, Note_off_c, 1, 43, 100
3, 541920, Note_on_c, 1, 55, 120
3, 542012, Note_off_c, 1, 55, 100
3, 542016, Note_on_c, 1, 45, 120
3, 542108, Note_off_c, 1, 45, 100
3, 542112, Note_on_c, 1, 57, 120
3, 542204, Note_off_c, 1, 57, 100
3, 542208, Note_on_c, 1, 47, 120
3, 542300, Note_off_c, 1, 47, 100
3, 542304, Note_on_c, 1, 59, 120
3, 542396, Note_off_c, 1, 59, 100
3, 542400, Note_on_c, 1, 48, 120
3, 542492, Note_off_c, 1, 48, 100
3, 542496, Note_on_c, 1, 60, 120
3, 542588, Note_off_c, 1, 60, 100
3, 542592, Note_on_c, 1, 50, 120
3, 542684, Note_off_c, 1, 50, 100
3, 542688, Note_on_c, 1, 62, 120
3, 542780, Note_off_c, 1, 62, 100
3, 542784, Note_on_c, 1, 52, 120
3, 542876, Note_off_c, 1, 52, 100
3, 542880, Note_on_c, 1, 64, 120
3, 542972, Note_off_c, 1, 64, 100
3, 542976, Note_on_c, 1, 53, 120
3, 543068, Note_off_c, 1, 53, 100
3, 543072, Note_on_c, 1, 65, 120
3, 543164, Note_off_c, 1, 65, 100
3, 543168, Note_on_c, 1, 52, 120
3, 543260, Note_off_c, 1, 52, 100
3, 543264, Note_on_c, 1, 64, 120
3, 543356, Note_off_c, 1, 64, 100
3, 543360, Note_on_c, 1, 53, 120
3, 543452, Note_off_c, 1, 53, 100
3, 543456, Note_on_c, 1, 65, 120
3, 543548, Note_off_c, 1, 65, 100
3, 543552, Note_on_c, 1, 50, 120
3, 543644, Note_off_c, 1, 50, 100
3, 543648, Note_on_c, 1, 62, 120
3, 543740, Note_off_c, 1, 62, 100
3, 543744, Note_on_c, 1, 48, 120
3, 543836, Note_off_c, 1, 48, 100
3, 543840, Note_on_c, 1, 60, 120
3, 543932, Note_off_c, 1, 60, 100
3, 543936, Note_on_c, 1, 47, 120
3, 544028, Note_off_c, 1, 47, 100
3, 544032, Note_on_c, 1, 59, 120
3, 544124, Note_off_c, 1, 59, 100
3, 544128, Note_on_c, 1, 45, 120
3, 544220, Note_off_c, 1, 45, 100
3, 544224, Note_on_c, 1, 57, 120
3, 544316, Note_off_c, 1, 57, 100
3, 544320, Note_on_c, 1, 43, 120
3, 544412, Note_off_c, 1, 43, 100
3, 544416, Note_on_c, 1, 55, 120
3, 544508, Note_off_c, 1, 55, 100
3, 544512, Note_on_c, 1, 41, 120
3, 544604, Note_off_c, 1, 41, 100
3, 544608, Note_on_c, 1, 53, 120
3, 544700, Note_off_c, 1, 53, 100
3, 544704, Note_on_c, 1, 40, 120
3, 544796, Note_off_c, 1, 40, 100
3, 544800, Note_on_c, 1, 52, 120
3, 544892, Note_off_c, 1, 52, 100
3, 544896, Note_on_c, 1, 38, 120
3, 544988, Note_off_c, 1, 38, 100
3, 544992, Note_on_c, 1, 50, 120
3, 545084, Note_off_c, 1, 50, 100
3, 545088, Note_on_c, 1, 36, 120
3, 545180, Note_off_c, 1, 36, 100
3, 545184, Note_on_c, 1, 48, 120
3, 545276, Note_off_c, 1, 48, 100
3, 545280, Note_on_c, 1, 35, 120
3, 545372, Note_off_c, 1, 35, 100
3, 545376, Note_on_c, 1, 47, 120
3, 545468, Note_off_c, 1, 47, 100
3, 545472, Note_on_c, 1, 33, 120
3, 545564, Note_off_c, 1, 33, 100
3, 545568, Note_on_c, 1, 45, 120
3, 545660, Note_off_c, 1, 45, 100
3, 545664, Note_on_c, 1, 31, 120
3, 545756, Note_off_c, 1, 31, 100
3, 545760, Note_on_c, 1, 43, 120
3, 545852, Note_off_c, 1, 43, 100
3, 545856, Note_on_c, 1, 30, 120
3, 545948, Note_off_c, 1, 30, 100
3, 545952, Note_on_c, 1, 42, 120
3, 546044, Note_off_c, 1, 42, 100
3, 546048, Note_on_c, 1, 43, 120
3, 546048, Note_on_c, 1, 31, 120
3, 546236, Note_off_c, 1, 43, 100
3, 546236, Note_off_c, 1, 31, 100
3, 546240, Note_on_c, 1, 41, 120
3, 546428, Note_off_c, 1, 41, 100
3, 546432, Note_on_c, 1, 40, 120
3, 546620, Note_off_c, 1, 40, 100
3, 546624, Note_on_c, 1, 38, 120
3, 546812, Note_off_c, 1, 38, 100
3, 546816, Note_on_c, 1, 36, 120
3, 547196, Note_off_c, 1, 36, 100
3, 547584, Note_on_c, 1, 55, 120
3, 547584, Note_on_c, 1, 50, 120
3, 547584, Note_on_c, 1, 47, 120
3, 547584, Note_on_c, 1, 43, 120
3, 547964, Note_off_c, 1, 55, 100
3, 547964, Note_off_c, 1, 50, 100
3, 547964, Note_off_c, 1, 47, 100
3, 547964, Note_off_c, 1, 43, 100
3, 548352, Note_on_c, 1, 48, 120
3, 548352, Note_on_c, 1, 43, 120
3, 548352, Note_on_c, 1, 40, 120
3, 548352, Note_on_c, 1, 36, 120
3, 549116, Note_off_c, 1, 48, 100
3, 549116, Note_off_c, 1, 43, 100
3, 549116, Note_off_c, 1, 40, 100
3, 549116, Note_off_c, 1, 36, 100
3, 549116, End_track
0, 0, End_of_file
