0, 0, Header, 1, 3, 384
1, 0, Start_track
1, 0, Title_t, "L.v.Beethoven 3mov - Piano Sonata No.4 in Eb Major Op.7\000"
1, 0, Copyright_t, "Copyright(C) 1995-2009, Suzuki Software\000"
1, 0, Sequencer_specific, 9, 67, 123, 0, 88, 70, 48, 50, 0, 1
1, 0, Text_t, "XFhd:2000/03/20:JP:Classical::::L.v.Beethoven:::Kaoru Suzuki\000"
1, 0, Text_t, "XFln:JP:\203s\203A\203m\203\\\203i\203^\221æ4\224Ô\225Ï\203z\222·\222²\215ì\225i7\201`\221æ3\212y\217Í:L.v.\203x\201[\203g\201[\203\224\203F\203\223:::\227é\202¿\202á\202ñ:\227é\202¿\202á\202ñ\000"
1, 0, Time_signature, 3, 2, 96, 8
1, 0, Sequencer_specific, 3, 0, 0, 65
1, 0, Sequencer_specific, 5, 0, 0, 119, 14, 0
1, 0, Tempo, 250000
1, 11520, Tempo, 255319
1, 11904, Tempo, 260869
1, 12288, Tempo, 266666
1, 16128, Tempo, 250000
1, 39168, Tempo, 255319
1, 39552, Tempo, 260869
1, 39936, Tempo, 266666
1, 43776, Tempo, 250000
1, 85248, Tempo, 285714
1, 89856, Tempo, 250000
1, 101376, Tempo, 255319
1, 102528, Tempo, 260869
1, 103680, Tempo, 266666
1, 104832, Tempo, 272727
1, 107136, Tempo, 250000
1, 167040, Tempo, 285714
1, 171648, Tempo, 250000
1, 183168, Tempo, 255319
1, 184320, Tempo, 260869
1, 185472, Tempo, 266666
1, 186624, Tempo, 272727
1, 188928, Tempo, 250000
1, 235008, Tempo, 285714
1, 237312, Tempo, 250000
1, 253440, Tempo, 272727
1, 255744, Tempo, 250000
1, 285696, Tempo, 272727
1, 291456, Tempo, 284360
1, 292608, Tempo, 297029
1, 293760, Tempo, 310880
1, 294912, Tempo, 326086
1, 299520, Tempo, 250000
1, 311040, Tempo, 255319
1, 311424, Tempo, 260869
1, 311808, Tempo, 272727
1, 315648, Tempo, 250000
1, 357120, Tempo, 272727
1, 359424, Tempo, 285714
1, 362880, Tempo, 260869
1, 364032, Tempo, 250000
1, 373248, Tempo, 255319
1, 374400, Tempo, 260869
1, 375552, Tempo, 266666
1, 376704, Tempo, 272727
1, 379008, Tempo, 250000
1, 379008, End_track
2, 0, Start_track
2, 0, Title_t, "Right"
2, 0, Control_c, 0, 0, 0
2, 0, Program_c, 0, 0
2, 0, Control_c, 0, 7, 100
2, 0, Control_c, 0, 10, 73
2, 0, Control_c, 0, 91, 127
2, 0, Key_signature, -3, "major"
2, 0, Note_on_c, 0, 70, 80
2, 0, Note_on_c, 0, 67, 80
2, 0, Note_on_c, 0, 63, 80
2, 0, Note_on_c, 0, 58, 80
2, 764, Note_off_c, 0, 70, 100
2, 764, Note_off_c, 0, 67, 100
2, 768, Note_on_c, 0, 67, 80
2, 1148, Note_off_c, 0, 63, 100
2, 1148, Note_off_c, 0, 58, 100
2, 1148, Note_off_c, 0, 67, 100
2, 1152, Note_on_c, 0, 63, 80
2, 1532, Note_off_c, 0, 63, 100
2, 1536, Note_on_c, 0, 67, 80
2, 1920, Note_on_c, 0, 70, 80
2, 2300, Note_off_c, 0, 70, 100
2, 2304, Note_on_c, 0, 75, 80
2, 2684, Note_off_c, 0, 75, 100
2, 2688, Note_on_c, 0, 79, 80
2, 3068, Note_off_c, 0, 67, 100
2, 3068, Note_off_c, 0, 79, 100
2, 3072, Note_on_c, 0, 65, 80
2, 3072, Note_on_c, 0, 77, 80
2, 3260, Note_off_c, 0, 77, 100
2, 3264, Note_on_c, 0, 74, 80
2, 3452, Note_off_c, 0, 65, 100
2, 3452, Note_off_c, 0, 74, 100
2, 3456, Note_on_c, 0, 75, 80
2, 3456, Note_on_c, 0, 67, 80
2, 3644, Note_off_c, 0, 75, 100
2, 3648, Note_on_c, 0, 79, 80
2, 3836, Note_off_c, 0, 67, 100
2, 3836, Note_off_c, 0, 79, 100
2, 3840, Note_on_c, 0, 70, 80
2, 4220, Note_off_c, 0, 70, 100
2, 4608, Note_on_c, 0, 72, 80
2, 4796, Note_off_c, 0, 72, 100
2, 4800, Note_on_c, 0, 75, 80
2, 4988, Note_off_c, 0, 75, 100
2, 4992, Note_on_c, 0, 70, 80
2, 5372, Note_off_c, 0, 70, 100
2, 5760, Note_on_c, 0, 65, 80
2, 5760, Note_on_c, 0, 68, 80
2, 5948, Note_off_c, 0, 68, 100
2, 5952, Note_on_c, 0, 70, 80
2, 6140, Note_off_c, 0, 65, 100
2, 6140, Note_off_c, 0, 70, 100
2, 6144, Note_on_c, 0, 63, 80
2, 6144, Note_on_c, 0, 67, 80
2, 6524, Note_off_c, 0, 63, 100
2, 6524, Note_off_c, 0, 67, 100
2, 6912, Note_on_c, 0, 65, 80
2, 6912, Note_on_c, 0, 62, 80
2, 7292, Note_off_c, 0, 65, 100
2, 7292, Note_off_c, 0, 62, 100
2, 7296, Note_on_c, 0, 68, 80
2, 7296, Note_on_c, 0, 65, 80
2, 7676, Note_off_c, 0, 68, 100
2, 7676, Note_off_c, 0, 65, 100
2, 7680, Note_on_c, 0, 67, 80
2, 7680, Note_on_c, 0, 63, 80
2, 8060, Note_off_c, 0, 67, 100
2, 8060, Note_off_c, 0, 63, 100
2, 8064, Note_on_c, 0, 65, 80
2, 8064, Note_on_c, 0, 62, 80
2, 8444, Note_off_c, 0, 65, 100
2, 8444, Note_off_c, 0, 62, 100
2, 9216, Note_on_c, 0, 70, 80
2, 9216, Note_on_c, 0, 67, 80
2, 9216, Note_on_c, 0, 63, 80
2, 9216, Note_on_c, 0, 58, 80
2, 9980, Note_off_c, 0, 70, 100
2, 9980, Note_off_c, 0, 67, 100
2, 9984, Note_on_c, 0, 67, 80
2, 10364, Note_off_c, 0, 63, 100
2, 10364, Note_off_c, 0, 58, 100
2, 10364, Note_off_c, 0, 67, 100
2, 10368, Note_on_c, 0, 63, 80
2, 10748, Note_off_c, 0, 63, 100
2, 10752, Note_on_c, 0, 67, 80
2, 11136, Note_on_c, 0, 70, 80
2, 11520, Note_on_c, 0, 75, 80
2, 11900, Note_off_c, 0, 75, 100
2, 11904, Note_on_c, 0, 79, 80
2, 12284, Note_off_c, 0, 67, 100
2, 12284, Note_off_c, 0, 70, 100
2, 12284, Note_off_c, 0, 79, 100
2, 12288, Note_on_c, 0, 77, 80
2, 12288, Note_on_c, 0, 68, 80
2, 12288, Note_on_c, 0, 65, 80
2, 12476, Note_off_c, 0, 77, 100
2, 12480, Note_on_c, 0, 74, 80
2, 12668, Note_off_c, 0, 68, 100
2, 12668, Note_off_c, 0, 65, 100
2, 12668, Note_off_c, 0, 74, 100
2, 12672, Note_on_c, 0, 75, 80
2, 12672, Note_on_c, 0, 67, 80
2, 12672, Note_on_c, 0, 63, 80
2, 13052, Note_off_c, 0, 75, 100
2, 13052, Note_off_c, 0, 67, 100
2, 13052, Note_off_c, 0, 63, 100
2, 14208, Note_on_c, 0, 77, 70
2, 14588, Note_off_c, 0, 77, 100
2, 14592, Note_on_c, 0, 65, 70
2, 14592, Note_on_c, 0, 75, 70
2, 14780, Note_off_c, 0, 75, 100
2, 14784, Note_on_c, 0, 72, 70
2, 14972, Note_off_c, 0, 72, 100
2, 14976, Note_on_c, 0, 74, 70
2, 15356, Note_off_c, 0, 65, 100
2, 15356, Note_off_c, 0, 74, 100
2, 16896, Note_on_c, 0, 87, 100
2, 17084, Note_off_c, 0, 87, 100
2, 17088, Note_on_c, 0, 84, 100
2, 17276, Note_off_c, 0, 84, 100
2, 17280, Note_on_c, 0, 86, 100
2, 17468, Note_off_c, 0, 86, 100
2, 17472, Note_on_c, 0, 89, 100
2, 17660, Note_off_c, 0, 89, 100
2, 17664, Note_on_c, 0, 77, 100
2, 18044, Note_off_c, 0, 77, 100
2, 18048, Note_on_c, 0, 87, 100
2, 18236, Note_off_c, 0, 87, 100
2, 18240, Note_on_c, 0, 84, 100
2, 18428, Note_off_c, 0, 84, 100
2, 18432, Note_on_c, 0, 86, 100
2, 18620, Note_off_c, 0, 86, 100
2, 18624, Note_on_c, 0, 89, 100
2, 18812, Note_off_c, 0, 89, 100
2, 18816, Note_on_c, 0, 77, 100
2, 19196, Note_off_c, 0, 77, 100
2, 19200, Note_on_c, 0, 87, 100
2, 19388, Note_off_c, 0, 87, 100
2, 19392, Note_on_c, 0, 84, 100
2, 19580, Note_off_c, 0, 84, 100
2, 19584, Note_on_c, 0, 86, 100
2, 19772, Note_off_c, 0, 86, 100
2, 19776, Note_on_c, 0, 89, 100
2, 19964, Note_off_c, 0, 89, 100
2, 19968, Note_on_c, 0, 77, 100
2, 20348, Note_off_c, 0, 77, 100
2, 20352, Note_on_c, 0, 87, 100
2, 20540, Note_off_c, 0, 87, 100
2, 20544, Note_on_c, 0, 84, 100
2, 20732, Note_off_c, 0, 84, 100
2, 20736, Note_on_c, 0, 86, 100
2, 20924, Note_off_c, 0, 86, 100
2, 20928, Note_on_c, 0, 89, 100
2, 21116, Note_off_c, 0, 89, 100
2, 21120, Note_on_c, 0, 87, 100
2, 21308, Note_off_c, 0, 87, 100
2, 21312, Note_on_c, 0, 86, 100
2, 21500, Note_off_c, 0, 86, 100
2, 21504, Note_on_c, 0, 84, 100
2, 21692, Note_off_c, 0, 84, 100
2, 21696, Note_on_c, 0, 82, 100
2, 21884, Note_off_c, 0, 82, 100
2, 21888, Note_on_c, 0, 81, 100
2, 22076, Note_off_c, 0, 81, 100
2, 22080, Note_on_c, 0, 82, 100
2, 22268, Note_off_c, 0, 82, 100
2, 22272, Note_on_c, 0, 86, 100
2, 22460, Note_off_c, 0, 86, 100
2, 22464, Note_on_c, 0, 77, 100
2, 22652, Note_off_c, 0, 77, 100
2, 22656, Note_on_c, 0, 84, 100
2, 22844, Note_off_c, 0, 84, 100
2, 22848, Note_on_c, 0, 75, 100
2, 23036, Note_off_c, 0, 75, 100
2, 23040, Note_on_c, 0, 82, 100
2, 23040, Note_on_c, 0, 74, 100
2, 23228, Note_off_c, 0, 82, 100
2, 23228, Note_off_c, 0, 74, 100
2, 23232, Note_on_c, 0, 77, 100
2, 23420, Note_off_c, 0, 77, 100
2, 23424, Note_on_c, 0, 75, 100
2, 23612, Note_off_c, 0, 75, 100
2, 23616, Note_on_c, 0, 74, 100
2, 23804, Note_off_c, 0, 74, 100
2, 23808, Note_on_c, 0, 72, 100
2, 23996, Note_off_c, 0, 72, 100
2, 24000, Note_on_c, 0, 70, 100
2, 24188, Note_off_c, 0, 70, 100
2, 24192, Note_on_c, 0, 69, 100
2, 24380, Note_off_c, 0, 69, 100
2, 24384, Note_on_c, 0, 70, 100
2, 24572, Note_off_c, 0, 70, 100
2, 24576, Note_on_c, 0, 74, 100
2, 24764, Note_off_c, 0, 74, 100
2, 24768, Note_on_c, 0, 65, 100
2, 24956, Note_off_c, 0, 65, 100
2, 24960, Note_on_c, 0, 72, 100
2, 25148, Note_off_c, 0, 72, 100
2, 25152, Note_on_c, 0, 63, 100
2, 25340, Note_off_c, 0, 63, 100
2, 25344, Note_on_c, 0, 62, 100
2, 25344, Note_on_c, 0, 70, 100
2, 25532, Note_off_c, 0, 62, 100
2, 25532, Note_off_c, 0, 70, 100
2, 25536, Note_on_c, 0, 65, 100
2, 25724, Note_off_c, 0, 65, 100
2, 25728, Note_on_c, 0, 62, 100
2, 25916, Note_off_c, 0, 62, 100
2, 25920, Note_on_c, 0, 58, 100
2, 26108, Note_off_c, 0, 58, 100
2, 26112, Note_on_c, 0, 53, 100
2, 26300, Note_off_c, 0, 53, 100
2, 26304, Note_on_c, 0, 50, 100
2, 26492, Note_off_c, 0, 50, 100
2, 27648, Note_on_c, 0, 70, 80
2, 27648, Note_on_c, 0, 67, 80
2, 27648, Note_on_c, 0, 63, 80
2, 27648, Note_on_c, 0, 58, 80
2, 28412, Note_off_c, 0, 70, 100
2, 28412, Note_off_c, 0, 67, 100
2, 28416, Note_on_c, 0, 67, 80
2, 28796, Note_off_c, 0, 63, 100
2, 28796, Note_off_c, 0, 58, 100
2, 28796, Note_off_c, 0, 67, 100
2, 28800, Note_on_c, 0, 63, 80
2, 29180, Note_off_c, 0, 63, 100
2, 29184, Note_on_c, 0, 67, 80
2, 29568, Note_on_c, 0, 70, 80
2, 29948, Note_off_c, 0, 70, 100
2, 29952, Note_on_c, 0, 75, 80
2, 30332, Note_off_c, 0, 75, 100
2, 30336, Note_on_c, 0, 79, 80
2, 30716, Note_off_c, 0, 67, 100
2, 30716, Note_off_c, 0, 79, 100
2, 30720, Note_on_c, 0, 65, 80
2, 30720, Note_on_c, 0, 77, 80
2, 30908, Note_off_c, 0, 77, 100
2, 30912, Note_on_c, 0, 74, 80
2, 31100, Note_off_c, 0, 65, 100
2, 31100, Note_off_c, 0, 74, 100
2, 31104, Note_on_c, 0, 75, 80
2, 31104, Note_on_c, 0, 67, 80
2, 31292, Note_off_c, 0, 75, 100
2, 31296, Note_on_c, 0, 79, 80
2, 31484, Note_off_c, 0, 67, 100
2, 31484, Note_off_c, 0, 79, 100
2, 31488, Note_on_c, 0, 70, 80
2, 31868, Note_off_c, 0, 70, 100
2, 32256, Note_on_c, 0, 72, 80
2, 32444, Note_off_c, 0, 72, 100
2, 32448, Note_on_c, 0, 75, 80
2, 32636, Note_off_c, 0, 75, 100
2, 32640, Note_on_c, 0, 70, 80
2, 33020, Note_off_c, 0, 70, 100
2, 33408, Note_on_c, 0, 65, 80
2, 33408, Note_on_c, 0, 68, 80
2, 33596, Note_off_c, 0, 68, 100
2, 33600, Note_on_c, 0, 70, 80
2, 33788, Note_off_c, 0, 65, 100
2, 33788, Note_off_c, 0, 70, 100
2, 33792, Note_on_c, 0, 63, 80
2, 33792, Note_on_c, 0, 67, 80
2, 34172, Note_off_c, 0, 63, 100
2, 34172, Note_off_c, 0, 67, 100
2, 34560, Note_on_c, 0, 65, 80
2, 34560, Note_on_c, 0, 62, 80
2, 34940, Note_off_c, 0, 65, 100
2, 34940, Note_off_c, 0, 62, 100
2, 34944, Note_on_c, 0, 68, 80
2, 34944, Note_on_c, 0, 65, 80
2, 35324, Note_off_c, 0, 68, 100
2, 35324, Note_off_c, 0, 65, 100
2, 35328, Note_on_c, 0, 67, 80
2, 35328, Note_on_c, 0, 63, 80
2, 35708, Note_off_c, 0, 67, 100
2, 35708, Note_off_c, 0, 63, 100
2, 35712, Note_on_c, 0, 65, 80
2, 35712, Note_on_c, 0, 62, 80
2, 36092, Note_off_c, 0, 65, 100
2, 36092, Note_off_c, 0, 62, 100
2, 36864, Note_on_c, 0, 70, 80
2, 36864, Note_on_c, 0, 67, 80
2, 36864, Note_on_c, 0, 63, 80
2, 36864, Note_on_c, 0, 58, 80
2, 37628, Note_off_c, 0, 70, 100
2, 37628, Note_off_c, 0, 67, 100
2, 37632, Note_on_c, 0, 67, 80
2, 38012, Note_off_c, 0, 63, 100
2, 38012, Note_off_c, 0, 58, 100
2, 38012, Note_off_c, 0, 67, 100
2, 38016, Note_on_c, 0, 63, 80
2, 38396, Note_off_c, 0, 63, 100
2, 38400, Note_on_c, 0, 67, 80
2, 38784, Note_on_c, 0, 70, 80
2, 39168, Note_on_c, 0, 75, 80
2, 39548, Note_off_c, 0, 75, 100
2, 39552, Note_on_c, 0, 79, 80
2, 39932, Note_off_c, 0, 67, 100
2, 39932, Note_off_c, 0, 70, 100
2, 39932, Note_off_c, 0, 79, 100
2, 39936, Note_on_c, 0, 77, 80
2, 39936, Note_on_c, 0, 68, 80
2, 39936, Note_on_c, 0, 65, 80
2, 40124, Note_off_c, 0, 77, 100
2, 40128, Note_on_c, 0, 74, 80
2, 40316, Note_off_c, 0, 68, 100
2, 40316, Note_off_c, 0, 65, 100
2, 40316, Note_off_c, 0, 74, 100
2, 40320, Note_on_c, 0, 75, 80
2, 40320, Note_on_c, 0, 67, 80
2, 40320, Note_on_c, 0, 63, 80
2, 40700, Note_off_c, 0, 75, 100
2, 40700, Note_off_c, 0, 67, 100
2, 40700, Note_off_c, 0, 63, 100
2, 41856, Note_on_c, 0, 77, 70
2, 42236, Note_off_c, 0, 77, 100
2, 42240, Note_on_c, 0, 65, 70
2, 42240, Note_on_c, 0, 75, 70
2, 42428, Note_off_c, 0, 75, 100
2, 42432, Note_on_c, 0, 72, 70
2, 42620, Note_off_c, 0, 72, 100
2, 42624, Note_on_c, 0, 74, 70
2, 43004, Note_off_c, 0, 65, 100
2, 43004, Note_off_c, 0, 74, 100
2, 44544, Note_on_c, 0, 87, 100
2, 44732, Note_off_c, 0, 87, 100
2, 44736, Note_on_c, 0, 84, 100
2, 44924, Note_off_c, 0, 84, 100
2, 44928, Note_on_c, 0, 86, 100
2, 45116, Note_off_c, 0, 86, 100
2, 45120, Note_on_c, 0, 89, 100
2, 45308, Note_off_c, 0, 89, 100
2, 45312, Note_on_c, 0, 77, 100
2, 45692, Note_off_c, 0, 77, 100
2, 45696, Note_on_c, 0, 87, 100
2, 45884, Note_off_c, 0, 87, 100
2, 45888, Note_on_c, 0, 84, 100
2, 46076, Note_off_c, 0, 84, 100
2, 46080, Note_on_c, 0, 86, 100
2, 46268, Note_off_c, 0, 86, 100
2, 46272, Note_on_c, 0, 89, 100
2, 46460, Note_off_c, 0, 89, 100
2, 46464, Note_on_c, 0, 77, 100
2, 46844, Note_off_c, 0, 77, 100
2, 46848, Note_on_c, 0, 87, 100
2, 47036, Note_off_c, 0, 87, 100
2, 47040, Note_on_c, 0, 84, 100
2, 47228, Note_off_c, 0, 84, 100
2, 47232, Note_on_c, 0, 86, 100
2, 47420, Note_off_c, 0, 86, 100
2, 47424, Note_on_c, 0, 89, 100
2, 47612, Note_off_c, 0, 89, 100
2, 47616, Note_on_c, 0, 77, 100
2, 47996, Note_off_c, 0, 77, 100
2, 48000, Note_on_c, 0, 87, 100
2, 48188, Note_off_c, 0, 87, 100
2, 48192, Note_on_c, 0, 84, 100
2, 48380, Note_off_c, 0, 84, 100
2, 48384, Note_on_c, 0, 86, 100
2, 48572, Note_off_c, 0, 86, 100
2, 48576, Note_on_c, 0, 89, 100
2, 48764, Note_off_c, 0, 89, 100
2, 48768, Note_on_c, 0, 87, 100
2, 48956, Note_off_c, 0, 87, 100
2, 48960, Note_on_c, 0, 86, 100
2, 49148, Note_off_c, 0, 86, 100
2, 49152, Note_on_c, 0, 84, 100
2, 49340, Note_off_c, 0, 84, 100
2, 49344, Note_on_c, 0, 82, 100
2, 49532, Note_off_c, 0, 82, 100
2, 49536, Note_on_c, 0, 81, 100
2, 49724, Note_off_c, 0, 81, 100
2, 49728, Note_on_c, 0, 82, 100
2, 49916, Note_off_c, 0, 82, 100
2, 49920, Note_on_c, 0, 86, 100
2, 50108, Note_off_c, 0, 86, 100
2, 50112, Note_on_c, 0, 77, 100
2, 50300, Note_off_c, 0, 77, 100
2, 50304, Note_on_c, 0, 84, 100
2, 50492, Note_off_c, 0, 84, 100
2, 50496, Note_on_c, 0, 75, 100
2, 50684, Note_off_c, 0, 75, 100
2, 50688, Note_on_c, 0, 82, 100
2, 50688, Note_on_c, 0, 74, 100
2, 50876, Note_off_c, 0, 82, 100
2, 50876, Note_off_c, 0, 74, 100
2, 50880, Note_on_c, 0, 77, 100
2, 51068, Note_off_c, 0, 77, 100
2, 51072, Note_on_c, 0, 75, 100
2, 51260, Note_off_c, 0, 75, 100
2, 51264, Note_on_c, 0, 74, 100
2, 51452, Note_off_c, 0, 74, 100
2, 51456, Note_on_c, 0, 72, 100
2, 51644, Note_off_c, 0, 72, 100
2, 51648, Note_on_c, 0, 70, 100
2, 51836, Note_off_c, 0, 70, 100
2, 51840, Note_on_c, 0, 69, 100
2, 52028, Note_off_c, 0, 69, 100
2, 52032, Note_on_c, 0, 70, 100
2, 52220, Note_off_c, 0, 70, 100
2, 52224, Note_on_c, 0, 74, 100
2, 52412, Note_off_c, 0, 74, 100
2, 52416, Note_on_c, 0, 65, 100
2, 52604, Note_off_c, 0, 65, 100
2, 52608, Note_on_c, 0, 72, 100
2, 52796, Note_off_c, 0, 72, 100
2, 52800, Note_on_c, 0, 63, 100
2, 52988, Note_off_c, 0, 63, 100
2, 52992, Note_on_c, 0, 62, 100
2, 52992, Note_on_c, 0, 70, 100
2, 53180, Note_off_c, 0, 62, 100
2, 53180, Note_off_c, 0, 70, 100
2, 53184, Note_on_c, 0, 65, 100
2, 53372, Note_off_c, 0, 65, 100
2, 53376, Note_on_c, 0, 62, 100
2, 53564, Note_off_c, 0, 62, 100
2, 53568, Note_on_c, 0, 58, 100
2, 53756, Note_off_c, 0, 58, 100
2, 53760, Note_on_c, 0, 53, 100
2, 53948, Note_off_c, 0, 53, 100
2, 53952, Note_on_c, 0, 50, 100
2, 54140, Note_off_c, 0, 50, 100
2, 56448, Note_on_c, 0, 70, 83
2, 57212, Note_off_c, 0, 70, 100
2, 57216, Note_on_c, 0, 67, 85
2, 57596, Note_off_c, 0, 67, 100
2, 57600, Note_on_c, 0, 64, 87
2, 57980, Note_off_c, 0, 64, 100
2, 57984, Note_on_c, 0, 67, 88
2, 58364, Note_off_c, 0, 67, 100
2, 58368, Note_on_c, 0, 70, 89
2, 58748, Note_off_c, 0, 70, 100
2, 58752, Note_on_c, 0, 73, 90
2, 59516, Note_off_c, 0, 73, 100
2, 59520, Note_on_c, 0, 70, 92
2, 59900, Note_off_c, 0, 70, 100
2, 59904, Note_on_c, 0, 67, 94
2, 60284, Note_off_c, 0, 67, 100
2, 60288, Note_on_c, 0, 70, 95
2, 60668, Note_off_c, 0, 70, 100
2, 60672, Note_on_c, 0, 73, 96
2, 61052, Note_off_c, 0, 73, 100
2, 61056, Note_on_c, 0, 76, 97
2, 61820, Note_off_c, 0, 76, 100
2, 61824, Note_on_c, 0, 73, 99
2, 62204, Note_off_c, 0, 73, 100
2, 62208, Note_on_c, 0, 70, 100
2, 62588, Note_off_c, 0, 70, 100
2, 62592, Note_on_c, 0, 73, 100
2, 62972, Note_off_c, 0, 73, 100
2, 62976, Note_on_c, 0, 76, 100
2, 63356, Note_off_c, 0, 76, 100
2, 63360, Note_on_c, 0, 79, 100
2, 63740, Note_off_c, 0, 79, 100
2, 63744, Note_on_c, 0, 77, 100
2, 64124, Note_off_c, 0, 77, 100
2, 64128, Note_on_c, 0, 76, 100
2, 64508, Note_off_c, 0, 76, 100
2, 64512, Note_on_c, 0, 76, 100
2, 64892, Note_off_c, 0, 76, 100
2, 64896, Note_on_c, 0, 77, 100
2, 65276, Note_off_c, 0, 77, 100
2, 65280, Note_on_c, 0, 77, 100
2, 65376, Note_on_c, 0, 79, 100
2, 65468, Note_off_c, 0, 77, 100
2, 65472, Note_on_c, 0, 76, 100
2, 65564, Note_off_c, 0, 79, 100
2, 65568, Note_on_c, 0, 77, 100
2, 65660, Note_off_c, 0, 76, 100
2, 65664, Note_on_c, 0, 80, 100
2, 65756, Note_off_c, 0, 77, 100
2, 66044, Note_off_c, 0, 80, 100
2, 66048, Note_on_c, 0, 79, 100
2, 66428, Note_off_c, 0, 79, 100
2, 66432, Note_on_c, 0, 77, 100
2, 66812, Note_off_c, 0, 77, 100
2, 67200, Note_on_c, 0, 76, 100
2, 67580, Note_off_c, 0, 76, 100
2, 67584, Note_on_c, 0, 76, 100
2, 67964, Note_off_c, 0, 76, 100
2, 67968, Note_on_c, 0, 76, 100
2, 68028, Note_off_c, 0, 76, 100
2, 68032, Note_on_c, 0, 79, 100
2, 68344, Note_off_c, 0, 79, 100
2, 68352, Note_on_c, 0, 77, 100
2, 68732, Note_off_c, 0, 77, 100
2, 68736, Note_on_c, 0, 76, 100
2, 69116, Note_off_c, 0, 76, 100
2, 69504, Note_on_c, 0, 77, 100
2, 69884, Note_off_c, 0, 77, 100
2, 69888, Note_on_c, 0, 77, 100
2, 70268, Note_off_c, 0, 77, 100
2, 70272, Note_on_c, 0, 77, 100
2, 70332, Note_off_c, 0, 77, 100
2, 70336, Note_on_c, 0, 80, 100
2, 70652, Note_off_c, 0, 80, 100
2, 70656, Note_on_c, 0, 79, 100
2, 71036, Note_off_c, 0, 79, 100
2, 71040, Note_on_c, 0, 77, 100
2, 71420, Note_off_c, 0, 77, 100
2, 71424, Note_on_c, 0, 75, 100
2, 71804, Note_off_c, 0, 75, 100
2, 71808, Note_on_c, 0, 74, 97
2, 72188, Note_off_c, 0, 74, 100
2, 72192, Note_on_c, 0, 74, 93
2, 72572, Note_off_c, 0, 74, 100
2, 72576, Note_on_c, 0, 74, 89
2, 72636, Note_off_c, 0, 74, 100
2, 72640, Note_on_c, 0, 77, 89
2, 72956, Note_off_c, 0, 77, 100
2, 72960, Note_on_c, 0, 75, 86
2, 73340, Note_off_c, 0, 75, 100
2, 73344, Note_on_c, 0, 74, 82
2, 73724, Note_off_c, 0, 74, 100
2, 73728, Note_on_c, 0, 72, 78
2, 74108, Note_off_c, 0, 72, 100
2, 74112, Note_on_c, 0, 70, 74
2, 74492, Note_off_c, 0, 70, 100
2, 74496, Note_on_c, 0, 69, 71
2, 74876, Note_off_c, 0, 69, 100
2, 74880, Note_on_c, 0, 70, 70
2, 75260, Note_off_c, 0, 70, 100
2, 75264, Note_on_c, 0, 72, 70
2, 75644, Note_off_c, 0, 72, 100
2, 75648, Note_on_c, 0, 68, 70
2, 76028, Note_off_c, 0, 68, 100
2, 76032, Note_on_c, 0, 70, 80
2, 76032, Note_on_c, 0, 67, 80
2, 76032, Note_on_c, 0, 63, 80
2, 76032, Note_on_c, 0, 58, 80
2, 76796, Note_off_c, 0, 70, 100
2, 76796, Note_off_c, 0, 67, 100
2, 76800, Note_on_c, 0, 67, 80
2, 77180, Note_off_c, 0, 63, 100
2, 77180, Note_off_c, 0, 58, 100
2, 77180, Note_off_c, 0, 67, 100
2, 77184, Note_on_c, 0, 63, 80
2, 77564, Note_off_c, 0, 63, 100
2, 77568, Note_on_c, 0, 67, 80
2, 77952, Note_on_c, 0, 70, 80
2, 78336, Note_on_c, 0, 75, 80
2, 78716, Note_off_c, 0, 75, 100
2, 78720, Note_on_c, 0, 79, 80
2, 79100, Note_off_c, 0, 67, 100
2, 79100, Note_off_c, 0, 79, 100
2, 79104, Note_on_c, 0, 65, 80
2, 79104, Note_on_c, 0, 77, 80
2, 79292, Note_off_c, 0, 77, 100
2, 79296, Note_on_c, 0, 74, 80
2, 79484, Note_off_c, 0, 70, 64
2, 79484, Note_off_c, 0, 65, 100
2, 79484, Note_off_c, 0, 74, 100
2, 79488, Note_on_c, 0, 75, 80
2, 79488, Note_on_c, 0, 67, 80
2, 79676, Note_off_c, 0, 75, 100
2, 79680, Note_on_c, 0, 79, 80
2, 79868, Note_off_c, 0, 67, 100
2, 79868, Note_off_c, 0, 79, 100
2, 79872, Note_on_c, 0, 70, 80
2, 80252, Note_off_c, 0, 70, 100
2, 80640, Note_on_c, 0, 72, 80
2, 80828, Note_off_c, 0, 72, 100
2, 80832, Note_on_c, 0, 75, 80
2, 81020, Note_off_c, 0, 75, 100
2, 81024, Note_on_c, 0, 70, 80
2, 81404, Note_off_c, 0, 70, 100
2, 81792, Note_on_c, 0, 65, 80
2, 81792, Note_on_c, 0, 68, 80
2, 81980, Note_off_c, 0, 68, 100
2, 81984, Note_on_c, 0, 70, 80
2, 82172, Note_off_c, 0, 65, 100
2, 82172, Note_off_c, 0, 70, 100
2, 82176, Note_on_c, 0, 63, 80
2, 82176, Note_on_c, 0, 67, 80
2, 82556, Note_off_c, 0, 63, 100
2, 82556, Note_off_c, 0, 67, 100
2, 82944, Note_on_c, 0, 65, 80
2, 82944, Note_on_c, 0, 62, 80
2, 83324, Note_off_c, 0, 65, 100
2, 83324, Note_off_c, 0, 62, 100
2, 83328, Note_on_c, 0, 68, 80
2, 83328, Note_on_c, 0, 65, 80
2, 83708, Note_off_c, 0, 68, 100
2, 83708, Note_off_c, 0, 65, 100
2, 83712, Note_on_c, 0, 67, 80
2, 83712, Note_on_c, 0, 63, 80
2, 84092, Note_off_c, 0, 67, 100
2, 84092, Note_off_c, 0, 63, 100
2, 84096, Note_on_c, 0, 65, 80
2, 84096, Note_on_c, 0, 62, 80
2, 84476, Note_off_c, 0, 65, 100
2, 84476, Note_off_c, 0, 62, 100
2, 85248, Note_on_c, 0, 70, 80
2, 85248, Note_on_c, 0, 66, 80
2, 85248, Note_on_c, 0, 63, 80
2, 85248, Note_on_c, 0, 58, 80
2, 86012, Note_off_c, 0, 70, 100
2, 86012, Note_off_c, 0, 66, 100
2, 86016, Note_on_c, 0, 66, 80
2, 86396, Note_off_c, 0, 63, 100
2, 86396, Note_off_c, 0, 58, 100
2, 86396, Note_off_c, 0, 66, 100
2, 86400, Note_on_c, 0, 63, 80
2, 86780, Note_off_c, 0, 63, 100
2, 86784, Note_on_c, 0, 66, 80
2, 87168, Note_on_c, 0, 70, 80
2, 87552, Note_on_c, 0, 75, 80
2, 87932, Note_off_c, 0, 75, 100
2, 87936, Note_on_c, 0, 78, 80
2, 88316, Note_off_c, 0, 66, 100
2, 88316, Note_off_c, 0, 70, 100
2, 88316, Note_off_c, 0, 78, 100
2, 88320, Note_on_c, 0, 68, 80
2, 88320, Note_on_c, 0, 65, 80
2, 88320, Note_on_c, 0, 77, 80
2, 88508, Note_off_c, 0, 77, 100
2, 88512, Note_on_c, 0, 74, 80
2, 88700, Note_off_c, 0, 68, 100
2, 88700, Note_off_c, 0, 65, 100
2, 88700, Note_off_c, 0, 74, 100
2, 88704, Note_on_c, 0, 75, 80
2, 88704, Note_on_c, 0, 66, 80
2, 88704, Note_on_c, 0, 63, 80
2, 89084, Note_off_c, 0, 75, 100
2, 89084, Note_off_c, 0, 66, 100
2, 89084, Note_off_c, 0, 63, 100
2, 90624, Note_on_c, 0, 76, 100
2, 90624, Note_on_c, 0, 66, 100
2, 90812, Note_off_c, 0, 76, 100
2, 90816, Note_on_c, 0, 73, 100
2, 91004, Note_off_c, 0, 73, 100
2, 91008, Note_on_c, 0, 75, 100
2, 91388, Note_off_c, 0, 66, 100
2, 91388, Note_off_c, 0, 75, 100
2, 91776, Note_on_c, 0, 76, 100
2, 91776, Note_on_c, 0, 66, 100
2, 91964, Note_off_c, 0, 76, 100
2, 91968, Note_on_c, 0, 73, 100
2, 92156, Note_off_c, 0, 73, 100
2, 92160, Note_on_c, 0, 75, 100
2, 92540, Note_off_c, 0, 66, 100
2, 92540, Note_off_c, 0, 75, 100
2, 92928, Note_on_c, 0, 76, 100
2, 92928, Note_on_c, 0, 66, 100
2, 93116, Note_off_c, 0, 76, 100
2, 93120, Note_on_c, 0, 73, 100
2, 93308, Note_off_c, 0, 73, 100
2, 93312, Note_on_c, 0, 75, 100
2, 93692, Note_off_c, 0, 66, 100
2, 93692, Note_off_c, 0, 75, 100
2, 93696, Note_on_c, 0, 78, 100
2, 93696, Note_on_c, 0, 66, 100
2, 94460, Note_off_c, 0, 66, 100
2, 94464, Note_on_c, 0, 68, 100
2, 94844, Note_off_c, 0, 78, 100
2, 94848, Note_on_c, 0, 76, 100
2, 95612, Note_off_c, 0, 68, 100
2, 95616, Note_on_c, 0, 70, 100
2, 95996, Note_off_c, 0, 76, 100
2, 95996, Note_off_c, 0, 70, 100
2, 96000, Note_on_c, 0, 75, 100
2, 96000, Note_on_c, 0, 71, 100
2, 96764, Note_off_c, 0, 75, 100
2, 96768, Note_on_c, 0, 73, 100
2, 97148, Note_off_c, 0, 71, 100
2, 97152, Note_on_c, 0, 70, 100
2, 97916, Note_off_c, 0, 73, 100
2, 97916, Note_off_c, 0, 70, 100
2, 97920, Note_on_c, 0, 75, 100
2, 97920, Note_on_c, 0, 71, 100
2, 98300, Note_off_c, 0, 75, 100
2, 98300, Note_off_c, 0, 71, 100
2, 98304, Note_on_c, 0, 66, 100
2, 98304, Note_on_c, 0, 78, 100
2, 99068, Note_off_c, 0, 66, 100
2, 99072, Note_on_c, 0, 68, 100
2, 99452, Note_off_c, 0, 78, 100
2, 99456, Note_on_c, 0, 76, 100
2, 100220, Note_off_c, 0, 68, 100
2, 100224, Note_on_c, 0, 70, 100
2, 100604, Note_off_c, 0, 76, 100
2, 100604, Note_off_c, 0, 70, 100
2, 100608, Note_on_c, 0, 75, 100
2, 100608, Note_on_c, 0, 71, 100
2, 101372, Note_off_c, 0, 71, 100
2, 101376, Note_on_c, 0, 70, 100
2, 101756, Note_off_c, 0, 75, 100
2, 101760, Note_on_c, 0, 73, 100
2, 102524, Note_off_c, 0, 70, 100
2, 102908, Note_off_c, 0, 73, 100
2, 102912, Note_on_c, 0, 71, 92
2, 104060, Note_off_c, 0, 71, 100
2, 104064, Note_on_c, 0, 70, 83
2, 105212, Note_off_c, 0, 70, 100
2, 105216, Note_on_c, 0, 69, 74
2, 105596, Note_off_c, 0, 69, 100
2, 107520, Note_on_c, 0, 70, 100
2, 107900, Note_off_c, 0, 70, 100
2, 107904, Note_on_c, 0, 70, 100
2, 108284, Note_off_c, 0, 70, 100
2, 108288, Note_on_c, 0, 70, 101
2, 108668, Note_off_c, 0, 70, 100
2, 108672, Note_on_c, 0, 70, 101
2, 109052, Note_off_c, 0, 70, 100
2, 109056, Note_on_c, 0, 70, 102
2, 109056, Note_on_c, 0, 80, 102
2, 109244, Note_off_c, 0, 80, 100
2, 109248, Note_on_c, 0, 77, 102
2, 109436, Note_off_c, 0, 70, 100
2, 109436, Note_off_c, 0, 77, 100
2, 109440, Note_on_c, 0, 70, 103
2, 109440, Note_on_c, 0, 79, 103
2, 109820, Note_off_c, 0, 70, 100
2, 109820, Note_off_c, 0, 79, 100
2, 109824, Note_on_c, 0, 70, 103
2, 110204, Note_off_c, 0, 70, 100
2, 110208, Note_on_c, 0, 70, 104
2, 110208, Note_on_c, 0, 77, 104
2, 110396, Note_off_c, 0, 77, 100
2, 110400, Note_on_c, 0, 74, 104
2, 110588, Note_off_c, 0, 70, 100
2, 110588, Note_off_c, 0, 74, 100
2, 110592, Note_on_c, 0, 70, 105
2, 110592, Note_on_c, 0, 75, 105
2, 110972, Note_off_c, 0, 70, 100
2, 110972, Note_off_c, 0, 75, 100
2, 110976, Note_on_c, 0, 70, 105
2, 111356, Note_off_c, 0, 70, 100
2, 111360, Note_on_c, 0, 70, 106
2, 111360, Note_on_c, 0, 80, 106
2, 111548, Note_off_c, 0, 80, 100
2, 111552, Note_on_c, 0, 77, 106
2, 111740, Note_off_c, 0, 70, 100
2, 111740, Note_off_c, 0, 77, 100
2, 111744, Note_on_c, 0, 70, 106
2, 111744, Note_on_c, 0, 79, 106
2, 112124, Note_off_c, 0, 70, 100
2, 112124, Note_off_c, 0, 79, 100
2, 112128, Note_on_c, 0, 70, 107
2, 112508, Note_off_c, 0, 70, 100
2, 112512, Note_on_c, 0, 70, 108
2, 112512, Note_on_c, 0, 77, 108
2, 112700, Note_off_c, 0, 77, 100
2, 112704, Note_on_c, 0, 74, 108
2, 112892, Note_off_c, 0, 70, 100
2, 112892, Note_off_c, 0, 74, 100
2, 112896, Note_on_c, 0, 75, 108
2, 113276, Note_off_c, 0, 75, 100
2, 113280, Note_on_c, 0, 75, 109
2, 113660, Note_off_c, 0, 75, 100
2, 113664, Note_on_c, 0, 75, 110
2, 113664, Note_on_c, 0, 84, 110
2, 113852, Note_off_c, 0, 84, 100
2, 113856, Note_on_c, 0, 80, 110
2, 114044, Note_off_c, 0, 75, 100
2, 114044, Note_off_c, 0, 80, 100
2, 114048, Note_on_c, 0, 75, 110
2, 114048, Note_on_c, 0, 82, 110
2, 114428, Note_off_c, 0, 75, 100
2, 114428, Note_off_c, 0, 82, 100
2, 114432, Note_on_c, 0, 75, 110
2, 114812, Note_off_c, 0, 75, 100
2, 114816, Note_on_c, 0, 75, 110
2, 114816, Note_on_c, 0, 80, 110
2, 115004, Note_off_c, 0, 80, 100
2, 115008, Note_on_c, 0, 78, 110
2, 115196, Note_off_c, 0, 75, 100
2, 115196, Note_off_c, 0, 78, 100
2, 115200, Note_on_c, 0, 75, 110
2, 115200, Note_on_c, 0, 79, 110
2, 115580, Note_off_c, 0, 75, 100
2, 115580, Note_off_c, 0, 79, 100
2, 115584, Note_on_c, 0, 75, 110
2, 115964, Note_off_c, 0, 75, 100
2, 115968, Note_on_c, 0, 75, 110
2, 115968, Note_on_c, 0, 84, 110
2, 116156, Note_off_c, 0, 84, 100
2, 116160, Note_on_c, 0, 80, 110
2, 116348, Note_off_c, 0, 75, 100
2, 116348, Note_off_c, 0, 80, 100
2, 116352, Note_on_c, 0, 75, 110
2, 116352, Note_on_c, 0, 82, 110
2, 116732, Note_off_c, 0, 75, 100
2, 116732, Note_off_c, 0, 82, 100
2, 116736, Note_on_c, 0, 75, 110
2, 117116, Note_off_c, 0, 75, 100
2, 117120, Note_on_c, 0, 75, 110
2, 117120, Note_on_c, 0, 80, 110
2, 117308, Note_off_c, 0, 80, 100
2, 117312, Note_on_c, 0, 78, 110
2, 117500, Note_off_c, 0, 75, 100
2, 117500, Note_off_c, 0, 78, 100
2, 117504, Note_on_c, 0, 75, 110
2, 117504, Note_on_c, 0, 79, 110
2, 117884, Note_off_c, 0, 75, 100
2, 117884, Note_off_c, 0, 79, 100
2, 117888, Note_on_c, 0, 75, 110
2, 118268, Note_off_c, 0, 75, 100
2, 118272, Note_on_c, 0, 75, 120
2, 118272, Note_on_c, 0, 85, 120
2, 118460, Note_off_c, 0, 85, 100
2, 118464, Note_on_c, 0, 82, 120
2, 118652, Note_off_c, 0, 75, 100
2, 118652, Note_off_c, 0, 82, 100
2, 118656, Note_on_c, 0, 84, 120
2, 118844, Note_off_c, 0, 84, 100
2, 118848, Note_on_c, 0, 87, 120
2, 119036, Note_off_c, 0, 87, 100
2, 119040, Note_on_c, 0, 86, 120
2, 119228, Note_off_c, 0, 86, 100
2, 119232, Note_on_c, 0, 84, 120
2, 119420, Note_off_c, 0, 84, 100
2, 119424, Note_on_c, 0, 82, 120
2, 119612, Note_off_c, 0, 82, 100
2, 119616, Note_on_c, 0, 80, 120
2, 119804, Note_off_c, 0, 80, 100
2, 119808, Note_on_c, 0, 79, 120
2, 119996, Note_off_c, 0, 79, 100
2, 120000, Note_on_c, 0, 82, 120
2, 120188, Note_off_c, 0, 82, 100
2, 120192, Note_on_c, 0, 87, 120
2, 120380, Note_off_c, 0, 87, 100
2, 120384, Note_on_c, 0, 79, 120
2, 120572, Note_off_c, 0, 79, 100
2, 120576, Note_on_c, 0, 86, 120
2, 120764, Note_off_c, 0, 86, 100
2, 120768, Note_on_c, 0, 77, 120
2, 120956, Note_off_c, 0, 77, 100
2, 120960, Note_on_c, 0, 87, 120
2, 121148, Note_off_c, 0, 87, 100
2, 121152, Note_on_c, 0, 75, 120
2, 121340, Note_off_c, 0, 75, 100
2, 121344, Note_on_c, 0, 74, 120
2, 121532, Note_off_c, 0, 74, 100
2, 121536, Note_on_c, 0, 72, 120
2, 121724, Note_off_c, 0, 72, 100
2, 121728, Note_on_c, 0, 70, 120
2, 121916, Note_off_c, 0, 70, 100
2, 121920, Note_on_c, 0, 68, 120
2, 122108, Note_off_c, 0, 68, 100
2, 122112, Note_on_c, 0, 67, 120
2, 122300, Note_off_c, 0, 67, 100
2, 122304, Note_on_c, 0, 70, 120
2, 122492, Note_off_c, 0, 70, 100
2, 122496, Note_on_c, 0, 75, 120
2, 122684, Note_off_c, 0, 75, 100
2, 122688, Note_on_c, 0, 67, 120
2, 122876, Note_off_c, 0, 67, 100
2, 122880, Note_on_c, 0, 74, 120
2, 123068, Note_off_c, 0, 74, 100
2, 123072, Note_on_c, 0, 65, 120
2, 123260, Note_off_c, 0, 65, 100
2, 123264, Note_on_c, 0, 75, 120
2, 123452, Note_off_c, 0, 75, 100
2, 123456, Note_on_c, 0, 63, 120
2, 123644, Note_off_c, 0, 63, 100
2, 123648, Note_on_c, 0, 62, 120
2, 123836, Note_off_c, 0, 62, 100
2, 123840, Note_on_c, 0, 60, 120
2, 124028, Note_off_c, 0, 60, 100
2, 124032, Note_on_c, 0, 58, 120
2, 124220, Note_off_c, 0, 58, 100
2, 124224, Note_on_c, 0, 56, 120
2, 124412, Note_off_c, 0, 56, 100
2, 124416, Note_on_c, 0, 55, 120
2, 124604, Note_off_c, 0, 55, 100
2, 124608, Note_on_c, 0, 58, 120
2, 124796, Note_off_c, 0, 58, 100
2, 124800, Note_on_c, 0, 63, 120
2, 124988, Note_off_c, 0, 63, 100
2, 124992, Note_on_c, 0, 55, 120
2, 125180, Note_off_c, 0, 55, 100
2, 125184, Note_on_c, 0, 62, 120
2, 125372, Note_off_c, 0, 62, 100
2, 125376, Note_on_c, 0, 53, 120
2, 125564, Note_off_c, 0, 53, 100
2, 125568, Note_on_c, 0, 63, 120
2, 125568, Note_on_c, 0, 55, 120
2, 125948, Note_off_c, 0, 63, 100
2, 125948, Note_off_c, 0, 55, 100
2, 126720, Note_on_c, 0, 67, 120
2, 126720, Note_on_c, 0, 63, 120
2, 126720, Note_on_c, 0, 58, 120
2, 126720, Note_on_c, 0, 55, 120
2, 127868, Note_off_c, 0, 67, 100
2, 127868, Note_off_c, 0, 63, 100
2, 127868, Note_off_c, 0, 58, 100
2, 127868, Note_off_c, 0, 55, 100
2, 127872, Note_on_c, 0, 68, 120
2, 127872, Note_on_c, 0, 63, 120
2, 127872, Note_on_c, 0, 60, 120
2, 127872, Note_on_c, 0, 56, 120
2, 129020, Note_off_c, 0, 68, 100
2, 129020, Note_off_c, 0, 63, 100
2, 129020, Note_off_c, 0, 60, 100
2, 129020, Note_off_c, 0, 56, 100
2, 129024, Note_on_c, 0, 70, 120
2, 129024, Note_on_c, 0, 62, 120
2, 129024, Note_on_c, 0, 56, 120
2, 130172, Note_off_c, 0, 70, 100
2, 130172, Note_off_c, 0, 62, 100
2, 130172, Note_off_c, 0, 56, 100
2, 130176, Note_on_c, 0, 63, 120
2, 130176, Note_on_c, 0, 55, 120
2, 130556, Note_off_c, 0, 63, 100
2, 130556, Note_off_c, 0, 55, 100
2, 130560, Note_on_c, 0, 75, 120
2, 130940, Note_off_c, 0, 75, 100
2, 130944, Note_on_c, 0, 75, 120
2, 131324, Note_off_c, 0, 75, 100
2, 131328, Note_on_c, 0, 73, 120
2, 131708, Note_off_c, 0, 73, 100
2, 131712, Note_on_c, 0, 75, 120
2, 132092, Note_off_c, 0, 75, 100
2, 132096, Note_on_c, 0, 70, 120
2, 132476, Note_off_c, 0, 70, 100
2, 132480, Note_on_c, 0, 72, 120
2, 132860, Note_off_c, 0, 72, 100
2, 132864, Note_on_c, 0, 75, 120
2, 133244, Note_off_c, 0, 75, 100
2, 133248, Note_on_c, 0, 68, 120
2, 133628, Note_off_c, 0, 68, 100
2, 133632, Note_on_c, 0, 65, 120
2, 133632, Note_on_c, 0, 68, 120
2, 133632, Note_on_c, 0, 74, 120
2, 134012, Note_off_c, 0, 74, 100
2, 134016, Note_on_c, 0, 77, 120
2, 134396, Note_off_c, 0, 77, 100
2, 134400, Note_on_c, 0, 70, 120
2, 134780, Note_off_c, 0, 65, 100
2, 134780, Note_off_c, 0, 68, 100
2, 134780, Note_off_c, 0, 70, 100
2, 134784, Note_on_c, 0, 75, 120
2, 134784, Note_on_c, 0, 67, 120
2, 134972, Note_off_c, 0, 75, 100
2, 134972, Note_off_c, 0, 67, 100
2, 134976, Note_on_c, 0, 70, 120
2, 135164, Note_off_c, 0, 70, 100
2, 135168, Note_on_c, 0, 67, 120
2, 135356, Note_off_c, 0, 67, 100
2, 135360, Note_on_c, 0, 63, 120
2, 135548, Note_off_c, 0, 63, 100
2, 135552, Note_on_c, 0, 58, 120
2, 135740, Note_off_c, 0, 58, 100
2, 135744, Note_on_c, 0, 55, 120
2, 135932, Note_off_c, 0, 55, 100
2, 138240, Note_on_c, 0, 70, 83
2, 139004, Note_off_c, 0, 70, 100
2, 139008, Note_on_c, 0, 67, 85
2, 139388, Note_off_c, 0, 67, 100
2, 139392, Note_on_c, 0, 64, 87
2, 139772, Note_off_c, 0, 64, 100
2, 139776, Note_on_c, 0, 67, 88
2, 140156, Note_off_c, 0, 67, 100
2, 140160, Note_on_c, 0, 70, 89
2, 140540, Note_off_c, 0, 70, 100
2, 140544, Note_on_c, 0, 73, 90
2, 141308, Note_off_c, 0, 73, 100
2, 141312, Note_on_c, 0, 70, 92
2, 141692, Note_off_c, 0, 70, 100
2, 141696, Note_on_c, 0, 67, 94
2, 142076, Note_off_c, 0, 67, 100
2, 142080, Note_on_c, 0, 70, 95
2, 142460, Note_off_c, 0, 70, 100
2, 142464, Note_on_c, 0, 73, 96
2, 142844, Note_off_c, 0, 73, 100
2, 142848, Note_on_c, 0, 76, 97
2, 143612, Note_off_c, 0, 76, 100
2, 143616, Note_on_c, 0, 73, 99
2, 143996, Note_off_c, 0, 73, 100
2, 144000, Note_on_c, 0, 70, 100
2, 144380, Note_off_c, 0, 70, 100
2, 144384, Note_on_c, 0, 73, 100
2, 144764, Note_off_c, 0, 73, 100
2, 144768, Note_on_c, 0, 76, 100
2, 145148, Note_off_c, 0, 76, 100
2, 145152, Note_on_c, 0, 79, 100
2, 145532, Note_off_c, 0, 79, 100
2, 145536, Note_on_c, 0, 77, 100
2, 145916, Note_off_c, 0, 77, 100
2, 145920, Note_on_c, 0, 76, 100
2, 146300, Note_off_c, 0, 76, 100
2, 146304, Note_on_c, 0, 76, 100
2, 146684, Note_off_c, 0, 76, 100
2, 146688, Note_on_c, 0, 77, 100
2, 147068, Note_off_c, 0, 77, 100
2, 147072, Note_on_c, 0, 77, 100
2, 147168, Note_on_c, 0, 79, 100
2, 147260, Note_off_c, 0, 77, 100
2, 147264, Note_on_c, 0, 76, 100
2, 147356, Note_off_c, 0, 79, 100
2, 147360, Note_on_c, 0, 77, 100
2, 147452, Note_off_c, 0, 76, 100
2, 147456, Note_on_c, 0, 80, 100
2, 147548, Note_off_c, 0, 77, 100
2, 147836, Note_off_c, 0, 80, 100
2, 147840, Note_on_c, 0, 79, 100
2, 148220, Note_off_c, 0, 79, 100
2, 148224, Note_on_c, 0, 77, 100
2, 148604, Note_off_c, 0, 77, 100
2, 148992, Note_on_c, 0, 76, 100
2, 149372, Note_off_c, 0, 76, 100
2, 149376, Note_on_c, 0, 76, 100
2, 149756, Note_off_c, 0, 76, 100
2, 149760, Note_on_c, 0, 76, 100
2, 149820, Note_off_c, 0, 76, 100
2, 149824, Note_on_c, 0, 79, 100
2, 150136, Note_off_c, 0, 79, 100
2, 150144, Note_on_c, 0, 77, 100
2, 150524, Note_off_c, 0, 77, 100
2, 150528, Note_on_c, 0, 76, 100
2, 150908, Note_off_c, 0, 76, 100
2, 151296, Note_on_c, 0, 77, 100
2, 151676, Note_off_c, 0, 77, 100
2, 151680, Note_on_c, 0, 77, 100
2, 152060, Note_off_c, 0, 77, 100
2, 152064, Note_on_c, 0, 77, 100
2, 152124, Note_off_c, 0, 77, 100
2, 152128, Note_on_c, 0, 80, 100
2, 152444, Note_off_c, 0, 80, 100
2, 152448, Note_on_c, 0, 79, 100
2, 152828, Note_off_c, 0, 79, 100
2, 152832, Note_on_c, 0, 77, 100
2, 153212, Note_off_c, 0, 77, 100
2, 153216, Note_on_c, 0, 75, 100
2, 153596, Note_off_c, 0, 75, 100
2, 153600, Note_on_c, 0, 74, 97
2, 153980, Note_off_c, 0, 74, 100
2, 153984, Note_on_c, 0, 74, 93
2, 154364, Note_off_c, 0, 74, 100
2, 154368, Note_on_c, 0, 74, 89
2, 154428, Note_off_c, 0, 74, 100
2, 154432, Note_on_c, 0, 77, 89
2, 154748, Note_off_c, 0, 77, 100
2, 154752, Note_on_c, 0, 75, 86
2, 155132, Note_off_c, 0, 75, 100
2, 155136, Note_on_c, 0, 74, 82
2, 155516, Note_off_c, 0, 74, 100
2, 155520, Note_on_c, 0, 72, 78
2, 155900, Note_off_c, 0, 72, 100
2, 155904, Note_on_c, 0, 70, 74
2, 156284, Note_off_c, 0, 70, 100
2, 156288, Note_on_c, 0, 69, 71
2, 156668, Note_off_c, 0, 69, 100
2, 156672, Note_on_c, 0, 70, 70
2, 157052, Note_off_c, 0, 70, 100
2, 157056, Note_on_c, 0, 72, 70
2, 157436, Note_off_c, 0, 72, 100
2, 157440, Note_on_c, 0, 68, 70
2, 157820, Note_off_c, 0, 68, 100
2, 157824, Note_on_c, 0, 70, 80
2, 157824, Note_on_c, 0, 67, 80
2, 157824, Note_on_c, 0, 63, 80
2, 157824, Note_on_c, 0, 58, 80
2, 158588, Note_off_c, 0, 70, 100
2, 158588, Note_off_c, 0, 67, 100
2, 158592, Note_on_c, 0, 67, 80
2, 158972, Note_off_c, 0, 63, 100
2, 158972, Note_off_c, 0, 58, 100
2, 158972, Note_off_c, 0, 67, 100
2, 158976, Note_on_c, 0, 63, 80
2, 159356, Note_off_c, 0, 63, 100
2, 159360, Note_on_c, 0, 67, 80
2, 159744, Note_on_c, 0, 70, 80
2, 160128, Note_on_c, 0, 75, 80
2, 160508, Note_off_c, 0, 75, 100
2, 160512, Note_on_c, 0, 79, 80
2, 160892, Note_off_c, 0, 67, 100
2, 160892, Note_off_c, 0, 79, 100
2, 160896, Note_on_c, 0, 65, 80
2, 160896, Note_on_c, 0, 77, 80
2, 161084, Note_off_c, 0, 77, 100
2, 161088, Note_on_c, 0, 74, 80
2, 161276, Note_off_c, 0, 65, 100
2, 161276, Note_off_c, 0, 74, 100
2, 161280, Note_on_c, 0, 75, 80
2, 161280, Note_on_c, 0, 67, 80
2, 161468, Note_off_c, 0, 75, 100
2, 161472, Note_on_c, 0, 79, 80
2, 161660, Note_off_c, 0, 70, 100
2, 161660, Note_off_c, 0, 67, 100
2, 161660, Note_off_c, 0, 79, 100
2, 161664, Note_on_c, 0, 70, 80
2, 162044, Note_off_c, 0, 70, 100
2, 162432, Note_on_c, 0, 72, 80
2, 162620, Note_off_c, 0, 72, 100
2, 162624, Note_on_c, 0, 75, 80
2, 162812, Note_off_c, 0, 75, 100
2, 162816, Note_on_c, 0, 70, 80
2, 163196, Note_off_c, 0, 70, 100
2, 163584, Note_on_c, 0, 65, 80
2, 163584, Note_on_c, 0, 68, 80
2, 163772, Note_off_c, 0, 68, 100
2, 163776, Note_on_c, 0, 70, 80
2, 163964, Note_off_c, 0, 65, 100
2, 163964, Note_off_c, 0, 70, 100
2, 163968, Note_on_c, 0, 63, 80
2, 163968, Note_on_c, 0, 67, 80
2, 164348, Note_off_c, 0, 63, 100
2, 164348, Note_off_c, 0, 67, 100
2, 164736, Note_on_c, 0, 65, 80
2, 164736, Note_on_c, 0, 62, 80
2, 165116, Note_off_c, 0, 65, 100
2, 165116, Note_off_c, 0, 62, 100
2, 165120, Note_on_c, 0, 68, 80
2, 165120, Note_on_c, 0, 65, 80
2, 165500, Note_off_c, 0, 68, 100
2, 165500, Note_off_c, 0, 65, 100
2, 165504, Note_on_c, 0, 67, 80
2, 165504, Note_on_c, 0, 63, 80
2, 165884, Note_off_c, 0, 67, 100
2, 165884, Note_off_c, 0, 63, 100
2, 165888, Note_on_c, 0, 65, 80
2, 165888, Note_on_c, 0, 62, 80
2, 166268, Note_off_c, 0, 65, 100
2, 166268, Note_off_c, 0, 62, 100
2, 167040, Note_on_c, 0, 70, 80
2, 167040, Note_on_c, 0, 66, 80
2, 167040, Note_on_c, 0, 63, 80
2, 167040, Note_on_c, 0, 58, 80
2, 167804, Note_off_c, 0, 70, 100
2, 167804, Note_off_c, 0, 66, 100
2, 167808, Note_on_c, 0, 66, 80
2, 168188, Note_off_c, 0, 63, 100
2, 168188, Note_off_c, 0, 58, 100
2, 168188, Note_off_c, 0, 66, 100
2, 168192, Note_on_c, 0, 63, 80
2, 168572, Note_off_c, 0, 63, 100
2, 168576, Note_on_c, 0, 66, 80
2, 168960, Note_on_c, 0, 70, 80
2, 169344, Note_on_c, 0, 75, 80
2, 169724, Note_off_c, 0, 75, 100
2, 169728, Note_on_c, 0, 78, 80
2, 170108, Note_off_c, 0, 66, 100
2, 170108, Note_off_c, 0, 70, 100
2, 170108, Note_off_c, 0, 78, 100
2, 170112, Note_on_c, 0, 68, 80
2, 170112, Note_on_c, 0, 65, 80
2, 170112, Note_on_c, 0, 77, 80
2, 170300, Note_off_c, 0, 77, 100
2, 170304, Note_on_c, 0, 74, 80
2, 170492, Note_off_c, 0, 68, 100
2, 170492, Note_off_c, 0, 65, 100
2, 170492, Note_off_c, 0, 74, 100
2, 170496, Note_on_c, 0, 75, 80
2, 170496, Note_on_c, 0, 66, 80
2, 170496, Note_on_c, 0, 63, 80
2, 170876, Note_off_c, 0, 75, 100
2, 170876, Note_off_c, 0, 66, 100
2, 170876, Note_off_c, 0, 63, 100
2, 172416, Note_on_c, 0, 76, 70
2, 172416, Note_on_c, 0, 66, 70
2, 172604, Note_off_c, 0, 76, 100
2, 172608, Note_on_c, 0, 73, 71
2, 172796, Note_off_c, 0, 73, 100
2, 172800, Note_on_c, 0, 75, 72
2, 173180, Note_off_c, 0, 66, 100
2, 173180, Note_off_c, 0, 75, 100
2, 173568, Note_on_c, 0, 76, 76
2, 173568, Note_on_c, 0, 66, 76
2, 173756, Note_off_c, 0, 76, 100
2, 173760, Note_on_c, 0, 73, 78
2, 173948, Note_off_c, 0, 73, 100
2, 173952, Note_on_c, 0, 75, 79
2, 174332, Note_off_c, 0, 66, 100
2, 174332, Note_off_c, 0, 75, 100
2, 174720, Note_on_c, 0, 76, 83
2, 174720, Note_on_c, 0, 66, 83
2, 174908, Note_off_c, 0, 76, 100
2, 174912, Note_on_c, 0, 73, 84
2, 175100, Note_off_c, 0, 73, 100
2, 175104, Note_on_c, 0, 75, 86
2, 175484, Note_off_c, 0, 66, 100
2, 175484, Note_off_c, 0, 75, 100
2, 175488, Note_on_c, 0, 78, 88
2, 175488, Note_on_c, 0, 66, 88
2, 176252, Note_off_c, 0, 66, 100
2, 176256, Note_on_c, 0, 68, 93
2, 176636, Note_off_c, 0, 78, 100
2, 176640, Note_on_c, 0, 76, 95
2, 177404, Note_off_c, 0, 68, 100
2, 177408, Note_on_c, 0, 70, 99
2, 177788, Note_off_c, 0, 76, 100
2, 177788, Note_off_c, 0, 70, 100
2, 177792, Note_on_c, 0, 75, 100
2, 177792, Note_on_c, 0, 71, 100
2, 178556, Note_off_c, 0, 75, 100
2, 178560, Note_on_c, 0, 73, 100
2, 178940, Note_off_c, 0, 71, 100
2, 178944, Note_on_c, 0, 70, 100
2, 179708, Note_off_c, 0, 73, 100
2, 179708, Note_off_c, 0, 70, 100
2, 179712, Note_on_c, 0, 75, 100
2, 179712, Note_on_c, 0, 71, 100
2, 180092, Note_off_c, 0, 75, 100
2, 180092, Note_off_c, 0, 71, 100
2, 180096, Note_on_c, 0, 66, 100
2, 180096, Note_on_c, 0, 78, 100
2, 180860, Note_off_c, 0, 66, 100
2, 180864, Note_on_c, 0, 68, 100
2, 181244, Note_off_c, 0, 78, 100
2, 181248, Note_on_c, 0, 76, 100
2, 182012, Note_off_c, 0, 68, 100
2, 182016, Note_on_c, 0, 70, 100
2, 182396, Note_off_c, 0, 76, 100
2, 182396, Note_off_c, 0, 70, 100
2, 182400, Note_on_c, 0, 75, 100
2, 182400, Note_on_c, 0, 71, 100
2, 183164, Note_off_c, 0, 71, 100
2, 183168, Note_on_c, 0, 70, 100
2, 183548, Note_off_c, 0, 75, 100
2, 183552, Note_on_c, 0, 73, 98
2, 184316, Note_off_c, 0, 70, 100
2, 184700, Note_off_c, 0, 73, 100
2, 184704, Note_on_c, 0, 71, 90
2, 185852, Note_off_c, 0, 71, 100
2, 185856, Note_on_c, 0, 70, 81
2, 187004, Note_off_c, 0, 70, 100
2, 187008, Note_on_c, 0, 69, 73
2, 187388, Note_off_c, 0, 69, 100
2, 189312, Note_on_c, 0, 70, 100
2, 189692, Note_off_c, 0, 70, 100
2, 189696, Note_on_c, 0, 70, 100
2, 190076, Note_off_c, 0, 70, 100
2, 190080, Note_on_c, 0, 70, 101
2, 190460, Note_off_c, 0, 70, 100
2, 190464, Note_on_c, 0, 70, 101
2, 190844, Note_off_c, 0, 70, 100
2, 190848, Note_on_c, 0, 70, 102
2, 190848, Note_on_c, 0, 80, 102
2, 191036, Note_off_c, 0, 80, 100
2, 191040, Note_on_c, 0, 77, 102
2, 191228, Note_off_c, 0, 70, 100
2, 191228, Note_off_c, 0, 77, 100
2, 191232, Note_on_c, 0, 70, 103
2, 191232, Note_on_c, 0, 79, 103
2, 191612, Note_off_c, 0, 70, 100
2, 191612, Note_off_c, 0, 79, 100
2, 191616, Note_on_c, 0, 70, 103
2, 191996, Note_off_c, 0, 70, 100
2, 192000, Note_on_c, 0, 70, 104
2, 192000, Note_on_c, 0, 77, 104
2, 192188, Note_off_c, 0, 77, 100
2, 192192, Note_on_c, 0, 74, 104
2, 192380, Note_off_c, 0, 70, 100
2, 192380, Note_off_c, 0, 74, 100
2, 192384, Note_on_c, 0, 70, 105
2, 192384, Note_on_c, 0, 75, 105
2, 192764, Note_off_c, 0, 70, 100
2, 192764, Note_off_c, 0, 75, 100
2, 192768, Note_on_c, 0, 70, 105
2, 193148, Note_off_c, 0, 70, 100
2, 193152, Note_on_c, 0, 70, 106
2, 193152, Note_on_c, 0, 80, 106
2, 193340, Note_off_c, 0, 80, 100
2, 193344, Note_on_c, 0, 77, 106
2, 193532, Note_off_c, 0, 70, 100
2, 193532, Note_off_c, 0, 77, 100
2, 193536, Note_on_c, 0, 70, 106
2, 193536, Note_on_c, 0, 79, 106
2, 193916, Note_off_c, 0, 70, 100
2, 193916, Note_off_c, 0, 79, 100
2, 193920, Note_on_c, 0, 70, 107
2, 194300, Note_off_c, 0, 70, 100
2, 194304, Note_on_c, 0, 70, 108
2, 194304, Note_on_c, 0, 77, 108
2, 194492, Note_off_c, 0, 77, 100
2, 194496, Note_on_c, 0, 74, 108
2, 194684, Note_off_c, 0, 70, 100
2, 194684, Note_off_c, 0, 74, 100
2, 194688, Note_on_c, 0, 75, 108
2, 195068, Note_off_c, 0, 75, 100
2, 195072, Note_on_c, 0, 75, 109
2, 195452, Note_off_c, 0, 75, 100
2, 195456, Note_on_c, 0, 75, 110
2, 195456, Note_on_c, 0, 84, 110
2, 195644, Note_off_c, 0, 84, 100
2, 195648, Note_on_c, 0, 80, 110
2, 195836, Note_off_c, 0, 75, 100
2, 195836, Note_off_c, 0, 80, 100
2, 195840, Note_on_c, 0, 75, 110
2, 195840, Note_on_c, 0, 82, 110
2, 196220, Note_off_c, 0, 75, 100
2, 196220, Note_off_c, 0, 82, 100
2, 196224, Note_on_c, 0, 75, 110
2, 196604, Note_off_c, 0, 75, 100
2, 196608, Note_on_c, 0, 75, 110
2, 196608, Note_on_c, 0, 80, 110
2, 196796, Note_off_c, 0, 80, 100
2, 196800, Note_on_c, 0, 78, 110
2, 196988, Note_off_c, 0, 75, 100
2, 196988, Note_off_c, 0, 78, 100
2, 196992, Note_on_c, 0, 75, 110
2, 196992, Note_on_c, 0, 79, 110
2, 197372, Note_off_c, 0, 75, 100
2, 197372, Note_off_c, 0, 79, 100
2, 197376, Note_on_c, 0, 75, 110
2, 197756, Note_off_c, 0, 75, 100
2, 197760, Note_on_c, 0, 75, 110
2, 197760, Note_on_c, 0, 84, 110
2, 197948, Note_off_c, 0, 84, 100
2, 197952, Note_on_c, 0, 80, 110
2, 198140, Note_off_c, 0, 75, 100
2, 198140, Note_off_c, 0, 80, 100
2, 198144, Note_on_c, 0, 75, 110
2, 198144, Note_on_c, 0, 82, 110
2, 198524, Note_off_c, 0, 75, 100
2, 198524, Note_off_c, 0, 82, 100
2, 198528, Note_on_c, 0, 75, 110
2, 198908, Note_off_c, 0, 75, 100
2, 198912, Note_on_c, 0, 75, 110
2, 198912, Note_on_c, 0, 80, 110
2, 199100, Note_off_c, 0, 80, 100
2, 199104, Note_on_c, 0, 78, 110
2, 199292, Note_off_c, 0, 75, 100
2, 199292, Note_off_c, 0, 78, 100
2, 199296, Note_on_c, 0, 75, 110
2, 199296, Note_on_c, 0, 79, 110
2, 199676, Note_off_c, 0, 75, 100
2, 199676, Note_off_c, 0, 79, 100
2, 199680, Note_on_c, 0, 75, 110
2, 200060, Note_off_c, 0, 75, 100
2, 200064, Note_on_c, 0, 75, 120
2, 200064, Note_on_c, 0, 85, 120
2, 200252, Note_off_c, 0, 85, 100
2, 200256, Note_on_c, 0, 82, 120
2, 200444, Note_off_c, 0, 75, 100
2, 200444, Note_off_c, 0, 82, 100
2, 200448, Note_on_c, 0, 84, 120
2, 200636, Note_off_c, 0, 84, 100
2, 200640, Note_on_c, 0, 87, 120
2, 200828, Note_off_c, 0, 87, 100
2, 200832, Note_on_c, 0, 86, 120
2, 201020, Note_off_c, 0, 86, 100
2, 201024, Note_on_c, 0, 84, 120
2, 201212, Note_off_c, 0, 84, 100
2, 201216, Note_on_c, 0, 82, 120
2, 201404, Note_off_c, 0, 82, 100
2, 201408, Note_on_c, 0, 80, 120
2, 201596, Note_off_c, 0, 80, 100
2, 201600, Note_on_c, 0, 79, 120
2, 201788, Note_off_c, 0, 79, 100
2, 201792, Note_on_c, 0, 82, 120
2, 201980, Note_off_c, 0, 82, 100
2, 201984, Note_on_c, 0, 87, 120
2, 202172, Note_off_c, 0, 87, 100
2, 202176, Note_on_c, 0, 79, 120
2, 202364, Note_off_c, 0, 79, 100
2, 202368, Note_on_c, 0, 86, 120
2, 202556, Note_off_c, 0, 86, 100
2, 202560, Note_on_c, 0, 77, 120
2, 202748, Note_off_c, 0, 77, 100
2, 202752, Note_on_c, 0, 87, 120
2, 202940, Note_off_c, 0, 87, 100
2, 202944, Note_on_c, 0, 75, 120
2, 203132, Note_off_c, 0, 75, 100
2, 203136, Note_on_c, 0, 74, 120
2, 203324, Note_off_c, 0, 74, 100
2, 203328, Note_on_c, 0, 72, 120
2, 203516, Note_off_c, 0, 72, 100
2, 203520, Note_on_c, 0, 70, 120
2, 203708, Note_off_c, 0, 70, 100
2, 203712, Note_on_c, 0, 68, 120
2, 203900, Note_off_c, 0, 68, 100
2, 203904, Note_on_c, 0, 67, 120
2, 204092, Note_off_c, 0, 67, 100
2, 204096, Note_on_c, 0, 70, 120
2, 204284, Note_off_c, 0, 70, 100
2, 204288, Note_on_c, 0, 75, 120
2, 204476, Note_off_c, 0, 75, 100
2, 204480, Note_on_c, 0, 67, 120
2, 204668, Note_off_c, 0, 67, 100
2, 204672, Note_on_c, 0, 74, 120
2, 204860, Note_off_c, 0, 74, 100
2, 204864, Note_on_c, 0, 65, 120
2, 205052, Note_off_c, 0, 65, 100
2, 205056, Note_on_c, 0, 75, 120
2, 205244, Note_off_c, 0, 75, 100
2, 205248, Note_on_c, 0, 63, 120
2, 205436, Note_off_c, 0, 63, 100
2, 205440, Note_on_c, 0, 62, 120
2, 205628, Note_off_c, 0, 62, 100
2, 205632, Note_on_c, 0, 60, 120
2, 205820, Note_off_c, 0, 60, 100
2, 205824, Note_on_c, 0, 58, 120
2, 206012, Note_off_c, 0, 58, 100
2, 206016, Note_on_c, 0, 56, 120
2, 206204, Note_off_c, 0, 56, 100
2, 206208, Note_on_c, 0, 55, 120
2, 206396, Note_off_c, 0, 55, 100
2, 206400, Note_on_c, 0, 58, 120
2, 206588, Note_off_c, 0, 58, 100
2, 206592, Note_on_c, 0, 63, 120
2, 206780, Note_off_c, 0, 63, 100
2, 206784, Note_on_c, 0, 55, 120
2, 206972, Note_off_c, 0, 55, 100
2, 206976, Note_on_c, 0, 62, 120
2, 207164, Note_off_c, 0, 62, 100
2, 207168, Note_on_c, 0, 53, 120
2, 207356, Note_off_c, 0, 53, 100
2, 207360, Note_on_c, 0, 63, 120
2, 207360, Note_on_c, 0, 55, 120
2, 207740, Note_off_c, 0, 63, 100
2, 207740, Note_off_c, 0, 55, 100
2, 208512, Note_on_c, 0, 67, 120
2, 208512, Note_on_c, 0, 63, 120
2, 208512, Note_on_c, 0, 58, 120
2, 208512, Note_on_c, 0, 55, 120
2, 209660, Note_off_c, 0, 67, 100
2, 209660, Note_off_c, 0, 63, 100
2, 209660, Note_off_c, 0, 58, 100
2, 209660, Note_off_c, 0, 55, 100
2, 209664, Note_on_c, 0, 68, 120
2, 209664, Note_on_c, 0, 63, 120
2, 209664, Note_on_c, 0, 60, 120
2, 209664, Note_on_c, 0, 56, 120
2, 210812, Note_off_c, 0, 68, 100
2, 210812, Note_off_c, 0, 63, 100
2, 210812, Note_off_c, 0, 60, 100
2, 210812, Note_off_c, 0, 56, 100
2, 210816, Note_on_c, 0, 70, 120
2, 210816, Note_on_c, 0, 62, 120
2, 210816, Note_on_c, 0, 56, 120
2, 211964, Note_off_c, 0, 70, 100
2, 211964, Note_off_c, 0, 62, 100
2, 211964, Note_off_c, 0, 56, 100
2, 211968, Note_on_c, 0, 63, 120
2, 211968, Note_on_c, 0, 55, 120
2, 212348, Note_off_c, 0, 63, 100
2, 212348, Note_off_c, 0, 55, 100
2, 212352, Note_on_c, 0, 75, 120
2, 212732, Note_off_c, 0, 75, 100
2, 212736, Note_on_c, 0, 75, 120
2, 213116, Note_off_c, 0, 75, 100
2, 213120, Note_on_c, 0, 73, 120
2, 213500, Note_off_c, 0, 73, 100
2, 213504, Note_on_c, 0, 75, 120
2, 213884, Note_off_c, 0, 75, 100
2, 213888, Note_on_c, 0, 70, 120
2, 214268, Note_off_c, 0, 70, 100
2, 214272, Note_on_c, 0, 72, 120
2, 214652, Note_off_c, 0, 72, 100
2, 214656, Note_on_c, 0, 75, 120
2, 215036, Note_off_c, 0, 75, 100
2, 215040, Note_on_c, 0, 68, 120
2, 215420, Note_off_c, 0, 68, 100
2, 215424, Note_on_c, 0, 65, 120
2, 215424, Note_on_c, 0, 68, 120
2, 215424, Note_on_c, 0, 74, 120
2, 215804, Note_off_c, 0, 74, 100
2, 215808, Note_on_c, 0, 77, 120
2, 216188, Note_off_c, 0, 77, 100
2, 216192, Note_on_c, 0, 70, 120
2, 216572, Note_off_c, 0, 65, 100
2, 216572, Note_off_c, 0, 68, 100
2, 216572, Note_off_c, 0, 70, 100
2, 216576, Note_on_c, 0, 75, 120
2, 216576, Note_on_c, 0, 67, 120
2, 216764, Note_off_c, 0, 75, 100
2, 216764, Note_off_c, 0, 67, 100
2, 216768, Note_on_c, 0, 70, 120
2, 216956, Note_off_c, 0, 70, 100
2, 216960, Note_on_c, 0, 67, 120
2, 217148, Note_off_c, 0, 67, 100
2, 217152, Note_on_c, 0, 63, 120
2, 217340, Note_off_c, 0, 63, 100
2, 217344, Note_on_c, 0, 58, 120
2, 217532, Note_off_c, 0, 58, 100
2, 217536, Note_on_c, 0, 55, 120
2, 217724, Note_off_c, 0, 55, 100
2, 218496, Note_on_c, 0, 58, 100
2, 218876, Note_off_c, 0, 58, 100
2, 218880, Key_signature, -6, "major"
2, 218880, Note_on_c, 0, 54, 70
2, 219008, Note_on_c, 0, 58, 70
2, 219132, Note_off_c, 0, 54, 100
2, 219136, Note_on_c, 0, 66, 70
2, 219260, Note_off_c, 0, 58, 100
2, 219264, Note_on_c, 0, 54, 70
2, 219388, Note_off_c, 0, 66, 100
2, 219392, Note_on_c, 0, 58, 70
2, 219516, Note_off_c, 0, 54, 100
2, 219520, Note_on_c, 0, 66, 70
2, 219644, Note_off_c, 0, 58, 100
2, 219648, Note_on_c, 0, 54, 70
2, 219772, Note_off_c, 0, 66, 100
2, 219776, Note_on_c, 0, 58, 70
2, 219900, Note_off_c, 0, 54, 100
2, 219904, Note_on_c, 0, 66, 70
2, 220028, Note_off_c, 0, 58, 100
2, 220032, Note_on_c, 0, 54, 70
2, 220156, Note_off_c, 0, 66, 100
2, 220160, Note_on_c, 0, 58, 70
2, 220284, Note_off_c, 0, 54, 100
2, 220288, Note_on_c, 0, 66, 70
2, 220412, Note_off_c, 0, 58, 100
2, 220416, Note_on_c, 0, 53, 70
2, 220540, Note_off_c, 0, 66, 100
2, 220544, Note_on_c, 0, 58, 70
2, 220668, Note_off_c, 0, 53, 100
2, 220672, Note_on_c, 0, 65, 70
2, 220796, Note_off_c, 0, 58, 100
2, 220800, Note_on_c, 0, 54, 70
2, 220924, Note_off_c, 0, 65, 100
2, 220928, Note_on_c, 0, 58, 70
2, 221052, Note_off_c, 0, 54, 100
2, 221056, Note_on_c, 0, 66, 70
2, 221180, Note_off_c, 0, 58, 100
2, 221184, Note_on_c, 0, 56, 104
2, 221308, Note_off_c, 0, 66, 100
2, 221312, Note_on_c, 0, 58, 70
2, 221436, Note_off_c, 0, 56, 100
2, 221440, Note_on_c, 0, 68, 70
2, 221564, Note_off_c, 0, 58, 100
2, 221568, Note_on_c, 0, 56, 70
2, 221692, Note_off_c, 0, 68, 100
2, 221696, Note_on_c, 0, 58, 70
2, 221820, Note_off_c, 0, 56, 100
2, 221824, Note_on_c, 0, 68, 70
2, 221948, Note_off_c, 0, 58, 100
2, 221952, Note_on_c, 0, 56, 70
2, 222076, Note_off_c, 0, 68, 100
2, 222080, Note_on_c, 0, 58, 70
2, 222204, Note_off_c, 0, 56, 100
2, 222208, Note_on_c, 0, 68, 80
2, 222332, Note_off_c, 0, 58, 100
2, 222336, Note_on_c, 0, 56, 82
2, 222460, Note_off_c, 0, 68, 100
2, 222464, Note_on_c, 0, 58, 80
2, 222588, Note_off_c, 0, 56, 100
2, 222592, Note_on_c, 0, 68, 80
2, 222716, Note_off_c, 0, 58, 100
2, 222720, Note_on_c, 0, 56, 80
2, 222844, Note_off_c, 0, 68, 100
2, 222848, Note_on_c, 0, 58, 80
2, 222972, Note_off_c, 0, 56, 100
2, 222976, Note_on_c, 0, 68, 80
2, 223100, Note_off_c, 0, 58, 100
2, 223104, Note_on_c, 0, 56, 80
2, 223228, Note_off_c, 0, 68, 100
2, 223232, Note_on_c, 0, 58, 80
2, 223356, Note_off_c, 0, 56, 100
2, 223360, Note_on_c, 0, 68, 80
2, 223484, Note_off_c, 0, 58, 100
2, 223484, Note_off_c, 0, 68, 100
2, 223488, Note_on_c, 0, 54, 80
2, 223616, Note_on_c, 0, 58, 80
2, 223740, Note_off_c, 0, 54, 100
2, 223744, Note_on_c, 0, 66, 80
2, 223868, Note_off_c, 0, 58, 100
2, 223872, Note_on_c, 0, 54, 80
2, 223996, Note_off_c, 0, 66, 100
2, 224000, Note_on_c, 0, 58, 80
2, 224124, Note_off_c, 0, 54, 100
2, 224128, Note_on_c, 0, 66, 80
2, 224252, Note_off_c, 0, 58, 100
2, 224256, Note_on_c, 0, 54, 80
2, 224380, Note_off_c, 0, 66, 100
2, 224384, Note_on_c, 0, 58, 80
2, 224508, Note_off_c, 0, 54, 100
2, 224512, Note_on_c, 0, 66, 80
2, 224636, Note_off_c, 0, 58, 100
2, 224640, Note_on_c, 0, 54, 80
2, 224764, Note_off_c, 0, 66, 100
2, 224768, Note_on_c, 0, 58, 80
2, 224892, Note_off_c, 0, 54, 100
2, 224896, Note_on_c, 0, 66, 80
2, 225020, Note_off_c, 0, 58, 100
2, 225024, Note_on_c, 0, 53, 80
2, 225148, Note_off_c, 0, 66, 100
2, 225152, Note_on_c, 0, 58, 80
2, 225276, Note_off_c, 0, 53, 100
2, 225280, Note_on_c, 0, 65, 80
2, 225404, Note_off_c, 0, 58, 100
2, 225408, Note_on_c, 0, 54, 80
2, 225532, Note_off_c, 0, 65, 100
2, 225536, Note_on_c, 0, 58, 80
2, 225660, Note_off_c, 0, 54, 100
2, 225664, Note_on_c, 0, 66, 80
2, 225788, Note_off_c, 0, 58, 100
2, 225792, Note_on_c, 0, 56, 80
2, 225916, Note_off_c, 0, 66, 100
2, 225920, Note_on_c, 0, 61, 80
2, 226044, Note_off_c, 0, 56, 100
2, 226048, Note_on_c, 0, 68, 80
2, 226172, Note_off_c, 0, 61, 100
2, 226176, Note_on_c, 0, 56, 80
2, 226300, Note_off_c, 0, 68, 100
2, 226304, Note_on_c, 0, 61, 80
2, 226428, Note_off_c, 0, 56, 100
2, 226432, Note_on_c, 0, 68, 80
2, 226556, Note_off_c, 0, 61, 100
2, 226560, Note_on_c, 0, 56, 80
2, 226684, Note_off_c, 0, 68, 100
2, 226688, Note_on_c, 0, 61, 80
2, 226812, Note_off_c, 0, 56, 100
2, 226816, Note_on_c, 0, 68, 80
2, 226940, Note_off_c, 0, 61, 100
2, 226944, Note_on_c, 0, 56, 80
2, 227068, Note_off_c, 0, 68, 100
2, 227072, Note_on_c, 0, 61, 80
2, 227196, Note_off_c, 0, 56, 100
2, 227200, Note_on_c, 0, 68, 80
2, 227324, Note_off_c, 0, 61, 100
2, 227328, Note_on_c, 0, 56, 80
2, 227452, Note_off_c, 0, 68, 100
2, 227456, Note_on_c, 0, 61, 80
2, 227580, Note_off_c, 0, 56, 100
2, 227584, Note_on_c, 0, 68, 80
2, 227708, Note_off_c, 0, 61, 100
2, 227712, Note_on_c, 0, 56, 80
2, 227836, Note_off_c, 0, 68, 100
2, 227840, Note_on_c, 0, 61, 80
2, 227964, Note_off_c, 0, 56, 100
2, 227968, Note_on_c, 0, 68, 80
2, 228092, Note_off_c, 0, 61, 100
2, 228096, Note_on_c, 0, 58, 81
2, 228220, Note_off_c, 0, 68, 100
2, 228224, Note_on_c, 0, 61, 82
2, 228348, Note_off_c, 0, 58, 100
2, 228352, Note_on_c, 0, 70, 83
2, 228476, Note_off_c, 0, 61, 100
2, 228480, Note_on_c, 0, 58, 84
2, 228604, Note_off_c, 0, 70, 100
2, 228608, Note_on_c, 0, 61, 85
2, 228732, Note_off_c, 0, 58, 100
2, 228736, Note_on_c, 0, 70, 86
2, 228860, Note_off_c, 0, 61, 100
2, 228864, Note_on_c, 0, 58, 87
2, 228988, Note_off_c, 0, 70, 100
2, 228992, Note_on_c, 0, 61, 88
2, 229116, Note_off_c, 0, 58, 100
2, 229120, Note_on_c, 0, 70, 89
2, 229244, Note_off_c, 0, 61, 100
2, 229248, Note_on_c, 0, 58, 90
2, 229372, Note_off_c, 0, 70, 100
2, 229376, Note_on_c, 0, 61, 91
2, 229500, Note_off_c, 0, 58, 100
2, 229504, Note_on_c, 0, 70, 92
2, 229628, Note_off_c, 0, 61, 100
2, 229632, Note_on_c, 0, 58, 93
2, 229756, Note_off_c, 0, 70, 100
2, 229760, Note_on_c, 0, 61, 94
2, 229884, Note_off_c, 0, 58, 100
2, 229888, Note_on_c, 0, 70, 95
2, 230012, Note_off_c, 0, 61, 100
2, 230016, Note_on_c, 0, 58, 96
2, 230140, Note_off_c, 0, 70, 100
2, 230144, Note_on_c, 0, 61, 97
2, 230268, Note_off_c, 0, 58, 100
2, 230272, Note_on_c, 0, 70, 98
2, 230396, Note_off_c, 0, 61, 100
2, 230400, Note_on_c, 0, 58, 80
2, 230524, Note_off_c, 0, 70, 100
2, 230528, Note_on_c, 0, 63, 80
2, 230652, Note_off_c, 0, 58, 100
2, 230656, Note_on_c, 0, 70, 80
2, 230780, Note_off_c, 0, 63, 100
2, 230784, Note_on_c, 0, 56, 79
2, 230908, Note_off_c, 0, 70, 100
2, 230912, Note_on_c, 0, 63, 79
2, 231036, Note_off_c, 0, 56, 100
2, 231040, Note_on_c, 0, 68, 79
2, 231164, Note_off_c, 0, 63, 100
2, 231168, Note_on_c, 0, 56, 78
2, 231292, Note_off_c, 0, 68, 100
2, 231296, Note_on_c, 0, 63, 78
2, 231420, Note_off_c, 0, 56, 100
2, 231424, Note_on_c, 0, 68, 77
2, 231548, Note_off_c, 0, 63, 100
2, 231552, Note_on_c, 0, 56, 77
2, 231676, Note_off_c, 0, 68, 100
2, 231680, Note_on_c, 0, 63, 77
2, 231804, Note_off_c, 0, 56, 100
2, 231808, Note_on_c, 0, 68, 76
2, 231932, Note_off_c, 0, 63, 100
2, 231936, Note_on_c, 0, 54, 76
2, 232060, Note_off_c, 0, 68, 100
2, 232064, Note_on_c, 0, 56, 75
2, 232188, Note_off_c, 0, 54, 100
2, 232192, Note_on_c, 0, 66, 75
2, 232316, Note_off_c, 0, 56, 100
2, 232320, Note_on_c, 0, 54, 75
2, 232444, Note_off_c, 0, 66, 100
2, 232448, Note_on_c, 0, 56, 74
2, 232572, Note_off_c, 0, 54, 100
2, 232576, Note_on_c, 0, 66, 74
2, 232700, Note_off_c, 0, 56, 100
2, 232704, Note_on_c, 0, 54, 73
2, 232828, Note_off_c, 0, 66, 100
2, 232832, Note_on_c, 0, 56, 73
2, 232956, Note_off_c, 0, 54, 100
2, 232960, Note_on_c, 0, 66, 73
2, 233084, Note_off_c, 0, 56, 100
2, 233088, Note_on_c, 0, 53, 72
2, 233212, Note_off_c, 0, 66, 100
2, 233216, Note_on_c, 0, 56, 72
2, 233340, Note_off_c, 0, 53, 100
2, 233344, Note_on_c, 0, 65, 71
2, 233468, Note_off_c, 0, 56, 100
2, 233472, Note_on_c, 0, 53, 71
2, 233596, Note_off_c, 0, 65, 100
2, 233600, Note_on_c, 0, 56, 71
2, 233724, Note_off_c, 0, 53, 100
2, 233728, Note_on_c, 0, 65, 70
2, 233852, Note_off_c, 0, 56, 100
2, 233856, Note_on_c, 0, 53, 70
2, 233980, Note_off_c, 0, 65, 100
2, 233984, Note_on_c, 0, 56, 70
2, 234108, Note_off_c, 0, 53, 100
2, 234112, Note_on_c, 0, 65, 69
2, 234236, Note_off_c, 0, 56, 100
2, 234240, Note_on_c, 0, 54, 69
2, 234364, Note_off_c, 0, 65, 100
2, 234368, Note_on_c, 0, 57, 68
2, 234492, Note_off_c, 0, 54, 100
2, 234496, Note_on_c, 0, 66, 68
2, 234620, Note_off_c, 0, 57, 100
2, 234624, Note_on_c, 0, 54, 68
2, 234748, Note_off_c, 0, 66, 100
2, 234752, Note_on_c, 0, 57, 67
2, 234876, Note_off_c, 0, 54, 100
2, 234880, Note_on_c, 0, 63, 67
2, 235004, Note_off_c, 0, 57, 100
2, 235004, Note_off_c, 0, 63, 100
2, 235008, Note_on_c, 0, 62, 66
2, 235008, Note_on_c, 0, 58, 66
2, 235008, Note_on_c, 0, 50, 66
2, 235388, Note_off_c, 0, 62, 100
2, 235388, Note_off_c, 0, 58, 100
2, 235388, Note_off_c, 0, 50, 100
2, 235392, Note_on_c, 0, 65, 65
2, 235392, Note_on_c, 0, 62, 65
2, 235392, Note_on_c, 0, 58, 65
2, 235392, Note_on_c, 0, 53, 65
2, 235772, Note_off_c, 0, 65, 100
2, 235772, Note_off_c, 0, 62, 100
2, 235772, Note_off_c, 0, 58, 100
2, 235772, Note_off_c, 0, 53, 100
2, 235776, Note_on_c, 0, 65, 64
2, 235776, Note_on_c, 0, 62, 64
2, 235776, Note_on_c, 0, 58, 64
2, 235776, Note_on_c, 0, 53, 64
2, 236156, Note_off_c, 0, 65, 100
2, 236156, Note_off_c, 0, 62, 100
2, 236156, Note_off_c, 0, 58, 100
2, 236156, Note_off_c, 0, 53, 100
2, 236160, Note_on_c, 0, 65, 63
2, 236160, Note_on_c, 0, 62, 63
2, 236160, Note_on_c, 0, 58, 63
2, 236160, Note_on_c, 0, 53, 63
2, 236540, Note_off_c, 0, 65, 100
2, 236540, Note_off_c, 0, 62, 100
2, 236540, Note_off_c, 0, 58, 100
2, 236540, Note_off_c, 0, 53, 100
2, 236928, Note_on_c, 0, 58, 61
2, 237308, Note_off_c, 0, 58, 100
2, 237312, Note_on_c, 0, 54, 70
2, 237440, Note_on_c, 0, 58, 70
2, 237564, Note_off_c, 0, 54, 100
2, 237568, Note_on_c, 0, 66, 70
2, 237692, Note_off_c, 0, 58, 100
2, 237696, Note_on_c, 0, 54, 70
2, 237820, Note_off_c, 0, 66, 100
2, 237824, Note_on_c, 0, 58, 70
2, 237948, Note_off_c, 0, 54, 100
2, 237952, Note_on_c, 0, 66, 70
2, 238076, Note_off_c, 0, 58, 100
2, 238080, Note_on_c, 0, 54, 70
2, 238204, Note_off_c, 0, 66, 100
2, 238208, Note_on_c, 0, 58, 70
2, 238332, Note_off_c, 0, 54, 100
2, 238336, Note_on_c, 0, 66, 70
2, 238460, Note_off_c, 0, 58, 100
2, 238464, Note_on_c, 0, 54, 70
2, 238588, Note_off_c, 0, 66, 100
2, 238592, Note_on_c, 0, 58, 70
2, 238716, Note_off_c, 0, 54, 100
2, 238720, Note_on_c, 0, 66, 70
2, 238844, Note_off_c, 0, 58, 100
2, 238848, Note_on_c, 0, 53, 70
2, 238972, Note_off_c, 0, 66, 100
2, 238976, Note_on_c, 0, 58, 70
2, 239100, Note_off_c, 0, 53, 100
2, 239104, Note_on_c, 0, 65, 70
2, 239228, Note_off_c, 0, 58, 100
2, 239232, Note_on_c, 0, 54, 70
2, 239356, Note_off_c, 0, 65, 100
2, 239360, Note_on_c, 0, 58, 70
2, 239484, Note_off_c, 0, 54, 100
2, 239488, Note_on_c, 0, 66, 70
2, 239612, Note_off_c, 0, 58, 100
2, 239616, Note_on_c, 0, 56, 80
2, 239740, Note_off_c, 0, 66, 100
2, 239744, Note_on_c, 0, 58, 80
2, 239868, Note_off_c, 0, 56, 100
2, 239872, Note_on_c, 0, 68, 80
2, 239996, Note_off_c, 0, 58, 100
2, 240000, Note_on_c, 0, 56, 80
2, 240124, Note_off_c, 0, 68, 100
2, 240128, Note_on_c, 0, 58, 80
2, 240252, Note_off_c, 0, 56, 100
2, 240256, Note_on_c, 0, 68, 80
2, 240380, Note_off_c, 0, 58, 100
2, 240384, Note_on_c, 0, 56, 80
2, 240508, Note_off_c, 0, 68, 100
2, 240512, Note_on_c, 0, 58, 80
2, 240636, Note_off_c, 0, 56, 100
2, 240640, Note_on_c, 0, 68, 80
2, 240764, Note_off_c, 0, 58, 100
2, 240768, Note_on_c, 0, 56, 80
2, 240892, Note_off_c, 0, 68, 100
2, 240896, Note_on_c, 0, 58, 80
2, 241020, Note_off_c, 0, 56, 100
2, 241024, Note_on_c, 0, 68, 80
2, 241148, Note_off_c, 0, 58, 100
2, 241152, Note_on_c, 0, 56, 80
2, 241276, Note_off_c, 0, 68, 100
2, 241280, Note_on_c, 0, 58, 80
2, 241404, Note_off_c, 0, 56, 100
2, 241408, Note_on_c, 0, 68, 80
2, 241532, Note_off_c, 0, 58, 100
2, 241536, Note_on_c, 0, 56, 80
2, 241660, Note_off_c, 0, 68, 100
2, 241664, Note_on_c, 0, 58, 80
2, 241788, Note_off_c, 0, 56, 100
2, 241792, Note_on_c, 0, 68, 80
2, 241916, Note_off_c, 0, 58, 100
2, 241916, Note_off_c, 0, 68, 100
2, 241920, Note_on_c, 0, 54, 80
2, 242048, Note_on_c, 0, 58, 80
2, 242172, Note_off_c, 0, 54, 100
2, 242176, Note_on_c, 0, 66, 80
2, 242300, Note_off_c, 0, 58, 100
2, 242304, Note_on_c, 0, 54, 80
2, 242428, Note_off_c, 0, 66, 100
2, 242432, Note_on_c, 0, 58, 80
2, 242556, Note_off_c, 0, 54, 100
2, 242560, Note_on_c, 0, 66, 80
2, 242684, Note_off_c, 0, 58, 100
2, 242688, Note_on_c, 0, 54, 80
2, 242812, Note_off_c, 0, 66, 100
2, 242816, Note_on_c, 0, 58, 80
2, 242940, Note_off_c, 0, 54, 100
2, 242944, Note_on_c, 0, 66, 80
2, 243068, Note_off_c, 0, 58, 100
2, 243072, Note_on_c, 0, 54, 80
2, 243196, Note_off_c, 0, 66, 100
2, 243200, Note_on_c, 0, 58, 80
2, 243324, Note_off_c, 0, 54, 100
2, 243328, Note_on_c, 0, 66, 80
2, 243452, Note_off_c, 0, 58, 100
2, 243456, Note_on_c, 0, 53, 80
2, 243580, Note_off_c, 0, 66, 100
2, 243584, Note_on_c, 0, 58, 80
2, 243708, Note_off_c, 0, 53, 100
2, 243712, Note_on_c, 0, 65, 80
2, 243836, Note_off_c, 0, 58, 100
2, 243840, Note_on_c, 0, 54, 80
2, 243964, Note_off_c, 0, 65, 100
2, 243968, Note_on_c, 0, 58, 80
2, 244092, Note_off_c, 0, 54, 100
2, 244096, Note_on_c, 0, 66, 80
2, 244220, Note_off_c, 0, 58, 100
2, 244224, Note_on_c, 0, 56, 80
2, 244348, Note_off_c, 0, 66, 100
2, 244352, Note_on_c, 0, 61, 80
2, 244476, Note_off_c, 0, 56, 100
2, 244480, Note_on_c, 0, 68, 80
2, 244604, Note_off_c, 0, 61, 100
2, 244608, Note_on_c, 0, 56, 80
2, 244732, Note_off_c, 0, 68, 100
2, 244736, Note_on_c, 0, 61, 80
2, 244860, Note_off_c, 0, 56, 100
2, 244864, Note_on_c, 0, 68, 80
2, 244988, Note_off_c, 0, 61, 100
2, 244992, Note_on_c, 0, 56, 80
2, 245116, Note_off_c, 0, 68, 100
2, 245120, Note_on_c, 0, 61, 80
2, 245244, Note_off_c, 0, 56, 100
2, 245248, Note_on_c, 0, 68, 80
2, 245372, Note_off_c, 0, 61, 100
2, 245376, Note_on_c, 0, 56, 80
2, 245500, Note_off_c, 0, 68, 100
2, 245504, Note_on_c, 0, 61, 80
2, 245628, Note_off_c, 0, 56, 100
2, 245632, Note_on_c, 0, 68, 80
2, 245756, Note_off_c, 0, 61, 100
2, 245760, Note_on_c, 0, 56, 80
2, 245884, Note_off_c, 0, 68, 100
2, 245888, Note_on_c, 0, 61, 80
2, 246012, Note_off_c, 0, 56, 100
2, 246016, Note_on_c, 0, 68, 80
2, 246140, Note_off_c, 0, 61, 100
2, 246144, Note_on_c, 0, 56, 80
2, 246268, Note_off_c, 0, 68, 100
2, 246272, Note_on_c, 0, 61, 80
2, 246396, Note_off_c, 0, 56, 100
2, 246400, Note_on_c, 0, 68, 80
2, 246524, Note_off_c, 0, 61, 100
2, 246528, Note_on_c, 0, 58, 81
2, 246652, Note_off_c, 0, 68, 100
2, 246656, Note_on_c, 0, 61, 82
2, 246780, Note_off_c, 0, 58, 100
2, 246784, Note_on_c, 0, 70, 83
2, 246908, Note_off_c, 0, 61, 100
2, 246912, Note_on_c, 0, 58, 84
2, 247036, Note_off_c, 0, 70, 100
2, 247040, Note_on_c, 0, 61, 85
2, 247164, Note_off_c, 0, 58, 100
2, 247168, Note_on_c, 0, 70, 86
2, 247292, Note_off_c, 0, 61, 100
2, 247296, Note_on_c, 0, 58, 87
2, 247420, Note_off_c, 0, 70, 100
2, 247424, Note_on_c, 0, 61, 88
2, 247548, Note_off_c, 0, 58, 100
2, 247552, Note_on_c, 0, 70, 89
2, 247676, Note_off_c, 0, 61, 100
2, 247680, Note_on_c, 0, 58, 90
2, 247804, Note_off_c, 0, 70, 100
2, 247808, Note_on_c, 0, 61, 91
2, 247932, Note_off_c, 0, 58, 100
2, 247936, Note_on_c, 0, 70, 92
2, 248060, Note_off_c, 0, 61, 100
2, 248064, Note_on_c, 0, 58, 93
2, 248188, Note_off_c, 0, 70, 100
2, 248192, Note_on_c, 0, 61, 94
2, 248316, Note_off_c, 0, 58, 100
2, 248320, Note_on_c, 0, 70, 95
2, 248444, Note_off_c, 0, 61, 100
2, 248448, Note_on_c, 0, 58, 96
2, 248572, Note_off_c, 0, 70, 100
2, 248576, Note_on_c, 0, 61, 97
2, 248700, Note_off_c, 0, 58, 100
2, 248704, Note_on_c, 0, 70, 98
2, 248828, Note_off_c, 0, 61, 100
2, 248832, Note_on_c, 0, 58, 90
2, 248956, Note_off_c, 0, 70, 100
2, 248960, Note_on_c, 0, 63, 90
2, 249084, Note_off_c, 0, 58, 100
2, 249088, Note_on_c, 0, 70, 89
2, 249212, Note_off_c, 0, 63, 100
2, 249216, Note_on_c, 0, 56, 89
2, 249340, Note_off_c, 0, 70, 100
2, 249344, Note_on_c, 0, 63, 88
2, 249468, Note_off_c, 0, 56, 100
2, 249472, Note_on_c, 0, 68, 88
2, 249596, Note_off_c, 0, 63, 100
2, 249600, Note_on_c, 0, 56, 87
2, 249724, Note_off_c, 0, 68, 100
2, 249728, Note_on_c, 0, 63, 87
2, 249852, Note_off_c, 0, 56, 100
2, 249856, Note_on_c, 0, 68, 86
2, 249980, Note_off_c, 0, 63, 100
2, 249984, Note_on_c, 0, 56, 85
2, 250108, Note_off_c, 0, 68, 100
2, 250112, Note_on_c, 0, 63, 85
2, 250236, Note_off_c, 0, 56, 100
2, 250240, Note_on_c, 0, 68, 84
2, 250364, Note_off_c, 0, 63, 100
2, 250368, Note_on_c, 0, 54, 84
2, 250492, Note_off_c, 0, 68, 100
2, 250496, Note_on_c, 0, 56, 83
2, 250620, Note_off_c, 0, 54, 100
2, 250624, Note_on_c, 0, 66, 83
2, 250748, Note_off_c, 0, 56, 100
2, 250752, Note_on_c, 0, 54, 82
2, 250876, Note_off_c, 0, 66, 100
2, 250880, Note_on_c, 0, 56, 81
2, 251004, Note_off_c, 0, 54, 100
2, 251008, Note_on_c, 0, 66, 81
2, 251132, Note_off_c, 0, 56, 100
2, 251136, Note_on_c, 0, 54, 80
2, 251260, Note_off_c, 0, 66, 100
2, 251264, Note_on_c, 0, 56, 80
2, 251388, Note_off_c, 0, 54, 100
2, 251392, Note_on_c, 0, 66, 79
2, 251516, Note_off_c, 0, 56, 100
2, 251520, Note_on_c, 0, 53, 79
2, 251644, Note_off_c, 0, 66, 100
2, 251648, Note_on_c, 0, 56, 78
2, 251772, Note_off_c, 0, 53, 100
2, 251776, Note_on_c, 0, 65, 77
2, 251900, Note_off_c, 0, 56, 100
2, 251904, Note_on_c, 0, 53, 77
2, 252028, Note_off_c, 0, 65, 100
2, 252032, Note_on_c, 0, 56, 76
2, 252156, Note_off_c, 0, 53, 100
2, 252160, Note_on_c, 0, 65, 76
2, 252284, Note_off_c, 0, 56, 100
2, 252288, Note_on_c, 0, 53, 75
2, 252412, Note_off_c, 0, 65, 100
2, 252416, Note_on_c, 0, 56, 75
2, 252540, Note_off_c, 0, 53, 100
2, 252544, Note_on_c, 0, 65, 74
2, 252668, Note_off_c, 0, 56, 100
2, 252672, Note_on_c, 0, 54, 73
2, 252796, Note_off_c, 0, 65, 100
2, 252800, Note_on_c, 0, 57, 73
2, 252924, Note_off_c, 0, 54, 100
2, 252928, Note_on_c, 0, 66, 72
2, 253052, Note_off_c, 0, 57, 100
2, 253056, Note_on_c, 0, 54, 72
2, 253180, Note_off_c, 0, 66, 100
2, 253184, Note_on_c, 0, 57, 71
2, 253308, Note_off_c, 0, 54, 100
2, 253312, Note_on_c, 0, 63, 71
2, 253436, Note_off_c, 0, 57, 100
2, 253436, Note_off_c, 0, 63, 100
2, 253440, Note_on_c, 0, 62, 70
2, 253440, Note_on_c, 0, 58, 70
2, 253440, Note_on_c, 0, 50, 70
2, 253820, Note_off_c, 0, 62, 100
2, 253820, Note_off_c, 0, 58, 100
2, 253820, Note_off_c, 0, 50, 100
2, 253824, Note_on_c, 0, 65, 70
2, 253824, Note_on_c, 0, 62, 70
2, 253824, Note_on_c, 0, 58, 70
2, 253824, Note_on_c, 0, 53, 70
2, 254204, Note_off_c, 0, 65, 100
2, 254204, Note_off_c, 0, 62, 100
2, 254204, Note_off_c, 0, 58, 100
2, 254204, Note_off_c, 0, 53, 100
2, 254208, Note_on_c, 0, 65, 70
2, 254208, Note_on_c, 0, 62, 70
2, 254208, Note_on_c, 0, 58, 70
2, 254208, Note_on_c, 0, 53, 70
2, 254588, Note_off_c, 0, 65, 100
2, 254588, Note_off_c, 0, 62, 100
2, 254588, Note_off_c, 0, 58, 100
2, 254588, Note_off_c, 0, 53, 100
2, 254592, Note_on_c, 0, 65, 70
2, 254592, Note_on_c, 0, 62, 70
2, 254592, Note_on_c, 0, 58, 70
2, 254592, Note_on_c, 0, 53, 70
2, 254972, Note_off_c, 0, 65, 100
2, 254972, Note_off_c, 0, 62, 100
2, 254972, Note_off_c, 0, 58, 100
2, 254972, Note_off_c, 0, 53, 100
2, 255360, Note_on_c, 0, 65, 80
2, 255740, Note_off_c, 0, 65, 100
2, 255744, Note_on_c, 0, 61, 80
2, 255872, Note_on_c, 0, 65, 80
2, 255996, Note_off_c, 0, 61, 100
2, 256000, Note_on_c, 0, 73, 80
2, 256124, Note_off_c, 0, 65, 100
2, 256128, Note_on_c, 0, 61, 80
2, 256252, Note_off_c, 0, 73, 100
2, 256256, Note_on_c, 0, 65, 80
2, 256380, Note_off_c, 0, 61, 100
2, 256384, Note_on_c, 0, 73, 80
2, 256508, Note_off_c, 0, 65, 100
2, 256512, Note_on_c, 0, 61, 80
2, 256636, Note_off_c, 0, 73, 100
2, 256640, Note_on_c, 0, 65, 80
2, 256764, Note_off_c, 0, 61, 100
2, 256768, Note_on_c, 0, 73, 80
2, 256892, Note_off_c, 0, 65, 100
2, 256896, Note_on_c, 0, 61, 80
2, 257020, Note_off_c, 0, 73, 100
2, 257024, Note_on_c, 0, 65, 80
2, 257148, Note_off_c, 0, 61, 100
2, 257152, Note_on_c, 0, 73, 80
2, 257276, Note_off_c, 0, 65, 100
2, 257280, Note_on_c, 0, 60, 80
2, 257404, Note_off_c, 0, 73, 100
2, 257408, Note_on_c, 0, 65, 80
2, 257532, Note_off_c, 0, 60, 100
2, 257536, Note_on_c, 0, 72, 80
2, 257660, Note_off_c, 0, 65, 100
2, 257664, Note_on_c, 0, 61, 80
2, 257788, Note_off_c, 0, 72, 100
2, 257792, Note_on_c, 0, 65, 80
2, 257916, Note_off_c, 0, 61, 100
2, 257920, Note_on_c, 0, 73, 80
2, 258044, Note_off_c, 0, 65, 100
2, 258048, Note_on_c, 0, 63, 80
2, 258172, Note_off_c, 0, 73, 100
2, 258176, Note_on_c, 0, 65, 80
2, 258300, Note_off_c, 0, 63, 100
2, 258304, Note_on_c, 0, 75, 80
2, 258428, Note_off_c, 0, 65, 100
2, 258432, Note_on_c, 0, 63, 80
2, 258556, Note_off_c, 0, 75, 100
2, 258560, Note_on_c, 0, 65, 80
2, 258684, Note_off_c, 0, 63, 100
2, 258688, Note_on_c, 0, 75, 80
2, 258812, Note_off_c, 0, 65, 100
2, 258816, Note_on_c, 0, 63, 80
2, 258940, Note_off_c, 0, 75, 100
2, 258944, Note_on_c, 0, 65, 80
2, 259068, Note_off_c, 0, 63, 100
2, 259072, Note_on_c, 0, 75, 80
2, 259196, Note_off_c, 0, 65, 100
2, 259200, Note_on_c, 0, 63, 80
2, 259324, Note_off_c, 0, 75, 100
2, 259328, Note_on_c, 0, 65, 80
2, 259452, Note_off_c, 0, 63, 100
2, 259456, Note_on_c, 0, 75, 80
2, 259580, Note_off_c, 0, 65, 100
2, 259584, Note_on_c, 0, 63, 80
2, 259708, Note_off_c, 0, 75, 100
2, 259712, Note_on_c, 0, 65, 80
2, 259836, Note_off_c, 0, 63, 100
2, 259840, Note_on_c, 0, 75, 80
2, 259964, Note_off_c, 0, 65, 100
2, 259968, Note_on_c, 0, 63, 80
2, 260092, Note_off_c, 0, 75, 100
2, 260096, Note_on_c, 0, 65, 80
2, 260220, Note_off_c, 0, 63, 100
2, 260224, Note_on_c, 0, 75, 80
2, 260348, Note_off_c, 0, 65, 100
2, 260352, Note_on_c, 0, 61, 80
2, 260476, Note_off_c, 0, 75, 100
2, 260480, Note_on_c, 0, 65, 80
2, 260604, Note_off_c, 0, 61, 100
2, 260608, Note_on_c, 0, 73, 80
2, 260732, Note_off_c, 0, 65, 100
2, 260736, Note_on_c, 0, 61, 80
2, 260860, Note_off_c, 0, 73, 100
2, 260864, Note_on_c, 0, 65, 80
2, 260988, Note_off_c, 0, 61, 100
2, 260992, Note_on_c, 0, 73, 80
2, 261116, Note_off_c, 0, 65, 100
2, 261120, Note_on_c, 0, 61, 80
2, 261244, Note_off_c, 0, 73, 100
2, 261248, Note_on_c, 0, 65, 80
2, 261372, Note_off_c, 0, 61, 100
2, 261376, Note_on_c, 0, 73, 80
2, 261500, Note_off_c, 0, 65, 100
2, 261504, Note_on_c, 0, 61, 80
2, 261628, Note_off_c, 0, 73, 100
2, 261632, Note_on_c, 0, 65, 80
2, 261756, Note_off_c, 0, 61, 100
2, 261760, Note_on_c, 0, 73, 80
2, 261884, Note_off_c, 0, 65, 100
2, 261888, Note_on_c, 0, 60, 80
2, 262012, Note_off_c, 0, 73, 100
2, 262016, Note_on_c, 0, 65, 80
2, 262140, Note_off_c, 0, 60, 100
2, 262144, Note_on_c, 0, 72, 80
2, 262268, Note_off_c, 0, 65, 100
2, 262272, Note_on_c, 0, 61, 80
2, 262396, Note_off_c, 0, 72, 100
2, 262400, Note_on_c, 0, 65, 80
2, 262524, Note_off_c, 0, 61, 100
2, 262528, Note_on_c, 0, 73, 80
2, 262652, Note_off_c, 0, 65, 100
2, 262656, Note_on_c, 0, 62, 80
2, 262780, Note_off_c, 0, 73, 100
2, 262784, Note_on_c, 0, 70, 80
2, 262908, Note_off_c, 0, 62, 100
2, 262912, Note_on_c, 0, 74, 80
2, 263036, Note_off_c, 0, 70, 100
2, 263040, Note_on_c, 0, 62, 80
2, 263164, Note_off_c, 0, 74, 100
2, 263168, Note_on_c, 0, 70, 80
2, 263292, Note_off_c, 0, 62, 100
2, 263296, Note_on_c, 0, 74, 80
2, 263420, Note_off_c, 0, 70, 100
2, 263424, Note_on_c, 0, 62, 80
2, 263548, Note_off_c, 0, 74, 100
2, 263552, Note_on_c, 0, 70, 80
2, 263676, Note_off_c, 0, 62, 100
2, 263680, Note_on_c, 0, 74, 80
2, 263804, Note_off_c, 0, 70, 100
2, 263808, Note_on_c, 0, 62, 80
2, 263932, Note_off_c, 0, 74, 100
2, 263936, Note_on_c, 0, 70, 80
2, 264060, Note_off_c, 0, 62, 100
2, 264064, Note_on_c, 0, 74, 80
2, 264188, Note_off_c, 0, 70, 100
2, 264192, Note_on_c, 0, 62, 80
2, 264316, Note_off_c, 0, 74, 100
2, 264320, Note_on_c, 0, 70, 80
2, 264444, Note_off_c, 0, 62, 100
2, 264448, Note_on_c, 0, 74, 80
2, 264572, Note_off_c, 0, 70, 100
2, 264576, Note_on_c, 0, 62, 80
2, 264700, Note_off_c, 0, 74, 100
2, 264704, Note_on_c, 0, 70, 80
2, 264828, Note_off_c, 0, 62, 100
2, 264832, Note_on_c, 0, 74, 80
2, 264956, Note_off_c, 0, 70, 100
2, 264960, Note_on_c, 0, 63, 81
2, 265084, Note_off_c, 0, 74, 100
2, 265088, Note_on_c, 0, 68, 83
2, 265212, Note_off_c, 0, 63, 100
2, 265216, Note_on_c, 0, 75, 84
2, 265340, Note_off_c, 0, 68, 100
2, 265344, Note_on_c, 0, 63, 86
2, 265468, Note_off_c, 0, 75, 100
2, 265472, Note_on_c, 0, 70, 87
2, 265596, Note_off_c, 0, 63, 100
2, 265600, Note_on_c, 0, 75, 89
2, 265724, Note_off_c, 0, 70, 100
2, 265728, Note_on_c, 0, 65, 91
2, 265852, Note_off_c, 0, 75, 100
2, 265856, Note_on_c, 0, 70, 92
2, 265980, Note_off_c, 0, 65, 100
2, 265984, Note_on_c, 0, 77, 94
2, 266108, Note_off_c, 0, 70, 100
2, 266112, Note_on_c, 0, 66, 95
2, 266236, Note_off_c, 0, 77, 100
2, 266240, Note_on_c, 0, 70, 97
2, 266364, Note_off_c, 0, 66, 100
2, 266368, Note_on_c, 0, 78, 98
2, 266492, Note_off_c, 0, 70, 100
2, 266496, Note_on_c, 0, 66, 100
2, 266620, Note_off_c, 0, 78, 100
2, 266624, Note_on_c, 0, 70, 102
2, 266748, Note_off_c, 0, 66, 100
2, 266752, Note_on_c, 0, 78, 103
2, 266876, Note_off_c, 0, 70, 100
2, 266880, Note_on_c, 0, 69, 105
2, 267004, Note_off_c, 0, 78, 100
2, 267008, Note_on_c, 0, 75, 106
2, 267132, Note_off_c, 0, 69, 100
2, 267136, Note_on_c, 0, 81, 108
2, 267260, Note_off_c, 0, 75, 100
2, 267264, Note_on_c, 0, 70, 109
2, 267388, Note_off_c, 0, 81, 100
2, 267392, Note_on_c, 0, 74, 110
2, 267516, Note_off_c, 0, 70, 100
2, 267520, Note_on_c, 0, 82, 110
2, 267644, Note_off_c, 0, 74, 100
2, 267648, Note_on_c, 0, 68, 110
2, 267772, Note_off_c, 0, 82, 100
2, 267776, Note_on_c, 0, 71, 110
2, 267900, Note_off_c, 0, 68, 100
2, 267904, Note_on_c, 0, 80, 110
2, 268028, Note_off_c, 0, 71, 100
2, 268032, Note_on_c, 0, 66, 110
2, 268156, Note_off_c, 0, 80, 100
2, 268160, Note_on_c, 0, 70, 110
2, 268284, Note_off_c, 0, 66, 100
2, 268288, Note_on_c, 0, 78, 110
2, 268412, Note_off_c, 0, 70, 100
2, 268416, Note_on_c, 0, 65, 110
2, 268540, Note_off_c, 0, 78, 100
2, 268544, Note_on_c, 0, 68, 110
2, 268668, Note_off_c, 0, 65, 100
2, 268672, Note_on_c, 0, 77, 110
2, 268796, Note_off_c, 0, 68, 100
2, 268800, Note_on_c, 0, 63, 110
2, 268924, Note_off_c, 0, 77, 100
2, 268928, Note_on_c, 0, 66, 110
2, 269052, Note_off_c, 0, 63, 100
2, 269056, Note_on_c, 0, 75, 110
2, 269180, Note_off_c, 0, 66, 100
2, 269184, Note_on_c, 0, 62, 110
2, 269308, Note_off_c, 0, 75, 100
2, 269312, Note_on_c, 0, 65, 110
2, 269436, Note_off_c, 0, 62, 100
2, 269440, Note_on_c, 0, 74, 110
2, 269564, Note_off_c, 0, 65, 100
2, 269564, Note_off_c, 0, 74, 100
2, 269568, Note_on_c, 0, 63, 80
2, 269696, Note_on_c, 0, 66, 80
2, 269820, Note_off_c, 0, 63, 100
2, 269824, Note_on_c, 0, 75, 80
2, 269948, Note_off_c, 0, 66, 100
2, 269952, Note_on_c, 0, 54, 80
2, 270076, Note_off_c, 0, 75, 100
2, 270080, Note_on_c, 0, 58, 80
2, 270204, Note_off_c, 0, 54, 100
2, 270208, Note_on_c, 0, 66, 80
2, 270332, Note_off_c, 0, 58, 100
2, 270336, Note_on_c, 0, 54, 80
2, 270460, Note_off_c, 0, 66, 100
2, 270464, Note_on_c, 0, 58, 80
2, 270588, Note_off_c, 0, 54, 100
2, 270592, Note_on_c, 0, 66, 80
2, 270716, Note_off_c, 0, 58, 100
2, 270720, Note_on_c, 0, 54, 80
2, 270844, Note_off_c, 0, 66, 100
2, 270848, Note_on_c, 0, 58, 80
2, 270972, Note_off_c, 0, 54, 100
2, 270976, Note_on_c, 0, 66, 80
2, 271100, Note_off_c, 0, 58, 100
2, 271104, Note_on_c, 0, 53, 80
2, 271228, Note_off_c, 0, 66, 100
2, 271232, Note_on_c, 0, 58, 80
2, 271356, Note_off_c, 0, 53, 100
2, 271360, Note_on_c, 0, 65, 80
2, 271484, Note_off_c, 0, 58, 100
2, 271488, Note_on_c, 0, 54, 80
2, 271612, Note_off_c, 0, 65, 100
2, 271616, Note_on_c, 0, 58, 80
2, 271740, Note_off_c, 0, 54, 100
2, 271744, Note_on_c, 0, 66, 80
2, 271868, Note_off_c, 0, 58, 100
2, 271872, Note_on_c, 0, 56, 80
2, 271996, Note_off_c, 0, 66, 100
2, 272000, Note_on_c, 0, 58, 80
2, 272124, Note_off_c, 0, 56, 100
2, 272128, Note_on_c, 0, 68, 80
2, 272252, Note_off_c, 0, 58, 100
2, 272256, Note_on_c, 0, 56, 80
2, 272380, Note_off_c, 0, 68, 100
2, 272384, Note_on_c, 0, 58, 80
2, 272508, Note_off_c, 0, 56, 100
2, 272512, Note_on_c, 0, 68, 80
2, 272636, Note_off_c, 0, 58, 100
2, 272640, Note_on_c, 0, 56, 80
2, 272764, Note_off_c, 0, 68, 100
2, 272768, Note_on_c, 0, 58, 80
2, 272892, Note_off_c, 0, 56, 100
2, 272896, Note_on_c, 0, 68, 80
2, 273020, Note_off_c, 0, 58, 100
2, 273024, Note_on_c, 0, 56, 80
2, 273148, Note_off_c, 0, 68, 100
2, 273152, Note_on_c, 0, 58, 80
2, 273276, Note_off_c, 0, 56, 100
2, 273280, Note_on_c, 0, 68, 80
2, 273404, Note_off_c, 0, 58, 100
2, 273408, Note_on_c, 0, 56, 80
2, 273532, Note_off_c, 0, 68, 100
2, 273536, Note_on_c, 0, 58, 80
2, 273660, Note_off_c, 0, 56, 100
2, 273664, Note_on_c, 0, 68, 80
2, 273788, Note_off_c, 0, 58, 100
2, 273792, Note_on_c, 0, 56, 80
2, 273916, Note_off_c, 0, 68, 100
2, 273920, Note_on_c, 0, 58, 80
2, 274044, Note_off_c, 0, 56, 100
2, 274048, Note_on_c, 0, 68, 80
2, 274172, Note_off_c, 0, 58, 100
2, 274172, Note_off_c, 0, 68, 100
2, 274176, Note_on_c, 0, 54, 80
2, 274304, Note_on_c, 0, 58, 80
2, 274428, Note_off_c, 0, 54, 100
2, 274432, Note_on_c, 0, 66, 80
2, 274556, Note_off_c, 0, 58, 100
2, 274560, Note_on_c, 0, 54, 80
2, 274684, Note_off_c, 0, 66, 100
2, 274688, Note_on_c, 0, 58, 80
2, 274812, Note_off_c, 0, 54, 100
2, 274816, Note_on_c, 0, 66, 80
2, 274940, Note_off_c, 0, 58, 100
2, 274944, Note_on_c, 0, 54, 80
2, 275068, Note_off_c, 0, 66, 100
2, 275072, Note_on_c, 0, 58, 80
2, 275196, Note_off_c, 0, 54, 100
2, 275200, Note_on_c, 0, 66, 80
2, 275324, Note_off_c, 0, 58, 100
2, 275328, Note_on_c, 0, 54, 80
2, 275452, Note_off_c, 0, 66, 100
2, 275456, Note_on_c, 0, 58, 80
2, 275580, Note_off_c, 0, 54, 100
2, 275584, Note_on_c, 0, 66, 80
2, 275708, Note_off_c, 0, 58, 100
2, 275712, Note_on_c, 0, 53, 80
2, 275836, Note_off_c, 0, 66, 100
2, 275840, Note_on_c, 0, 58, 80
2, 275964, Note_off_c, 0, 53, 100
2, 275968, Note_on_c, 0, 65, 80
2, 276092, Note_off_c, 0, 58, 100
2, 276096, Note_on_c, 0, 54, 80
2, 276220, Note_off_c, 0, 65, 100
2, 276224, Note_on_c, 0, 58, 80
2, 276348, Note_off_c, 0, 54, 100
2, 276352, Note_on_c, 0, 66, 80
2, 276476, Note_off_c, 0, 58, 100
2, 276480, Note_on_c, 0, 56, 80
2, 276604, Note_off_c, 0, 66, 100
2, 276608, Note_on_c, 0, 63, 80
2, 276732, Note_off_c, 0, 56, 100
2, 276736, Note_on_c, 0, 68, 80
2, 276860, Note_off_c, 0, 63, 100
2, 276864, Note_on_c, 0, 56, 80
2, 276988, Note_off_c, 0, 68, 100
2, 276992, Note_on_c, 0, 63, 80
2, 277116, Note_off_c, 0, 56, 100
2, 277120, Note_on_c, 0, 68, 80
2, 277244, Note_off_c, 0, 63, 100
2, 277248, Note_on_c, 0, 56, 80
2, 277372, Note_off_c, 0, 68, 100
2, 277376, Note_on_c, 0, 63, 80
2, 277500, Note_off_c, 0, 56, 100
2, 277504, Note_on_c, 0, 68, 80
2, 277628, Note_off_c, 0, 63, 100
2, 277632, Note_on_c, 0, 56, 80
2, 277756, Note_off_c, 0, 68, 100
2, 277760, Note_on_c, 0, 63, 80
2, 277884, Note_off_c, 0, 56, 100
2, 277888, Note_on_c, 0, 68, 80
2, 278012, Note_off_c, 0, 63, 100
2, 278016, Note_on_c, 0, 56, 80
2, 278140, Note_off_c, 0, 68, 100
2, 278144, Note_on_c, 0, 63, 80
2, 278268, Note_off_c, 0, 56, 100
2, 278272, Note_on_c, 0, 68, 80
2, 278396, Note_off_c, 0, 63, 100
2, 278400, Note_on_c, 0, 59, 80
2, 278524, Note_off_c, 0, 68, 100
2, 278528, Note_on_c, 0, 63, 80
2, 278652, Note_off_c, 0, 59, 100
2, 278656, Note_on_c, 0, 70, 80
2, 278780, Note_off_c, 0, 63, 100
2, 278784, Note_on_c, 0, 59, 80
2, 278908, Note_off_c, 0, 70, 100
2, 278912, Note_on_c, 0, 63, 80
2, 279036, Note_off_c, 0, 59, 100
2, 279040, Note_on_c, 0, 71, 80
2, 279164, Note_off_c, 0, 63, 100
2, 279168, Note_on_c, 0, 59, 80
2, 279292, Note_off_c, 0, 71, 100
2, 279296, Note_on_c, 0, 63, 80
2, 279420, Note_off_c, 0, 59, 100
2, 279424, Note_on_c, 0, 71, 80
2, 279548, Note_off_c, 0, 63, 100
2, 279552, Note_on_c, 0, 59, 80
2, 279676, Note_off_c, 0, 71, 100
2, 279680, Note_on_c, 0, 63, 80
2, 279804, Note_off_c, 0, 59, 100
2, 279808, Note_on_c, 0, 71, 80
2, 279932, Note_off_c, 0, 63, 100
2, 279936, Note_on_c, 0, 62, 80
2, 280060, Note_off_c, 0, 71, 100
2, 280064, Note_on_c, 0, 68, 80
2, 280188, Note_off_c, 0, 62, 100
2, 280192, Note_on_c, 0, 74, 80
2, 280316, Note_off_c, 0, 68, 100
2, 280320, Note_on_c, 0, 62, 80
2, 280444, Note_off_c, 0, 74, 100
2, 280448, Note_on_c, 0, 68, 83
2, 280572, Note_off_c, 0, 62, 100
2, 280576, Note_on_c, 0, 74, 85
2, 280700, Note_off_c, 0, 68, 100
2, 280704, Note_on_c, 0, 62, 86
2, 280828, Note_off_c, 0, 74, 100
2, 280832, Note_on_c, 0, 68, 87
2, 280956, Note_off_c, 0, 62, 100
2, 280960, Note_on_c, 0, 74, 88
2, 281084, Note_off_c, 0, 68, 100
2, 281088, Note_on_c, 0, 63, 90
2, 281212, Note_off_c, 0, 74, 100
2, 281216, Note_on_c, 0, 66, 91
2, 281340, Note_off_c, 0, 63, 100
2, 281344, Note_on_c, 0, 75, 92
2, 281468, Note_off_c, 0, 66, 100
2, 281472, Note_on_c, 0, 63, 93
2, 281596, Note_off_c, 0, 75, 100
2, 281600, Note_on_c, 0, 66, 94
2, 281724, Note_off_c, 0, 63, 100
2, 281728, Note_on_c, 0, 75, 95
2, 281852, Note_off_c, 0, 66, 100
2, 281856, Note_on_c, 0, 65, 96
2, 281980, Note_off_c, 0, 75, 100
2, 281984, Note_on_c, 0, 70, 97
2, 282108, Note_off_c, 0, 65, 100
2, 282112, Note_on_c, 0, 77, 98
2, 282236, Note_off_c, 0, 70, 100
2, 282240, Note_on_c, 0, 66, 99
2, 282364, Note_off_c, 0, 77, 100
2, 282368, Note_on_c, 0, 70, 101
2, 282492, Note_off_c, 0, 66, 100
2, 282496, Note_on_c, 0, 78, 102
2, 282620, Note_off_c, 0, 70, 100
2, 282624, Note_on_c, 0, 66, 106
2, 282748, Note_off_c, 0, 78, 100
2, 282752, Note_on_c, 0, 70, 109
2, 282876, Note_off_c, 0, 66, 100
2, 282880, Note_on_c, 0, 78, 112
2, 283004, Note_off_c, 0, 70, 100
2, 283008, Note_on_c, 0, 69, 113
2, 283132, Note_off_c, 0, 78, 100
2, 283136, Note_on_c, 0, 78, 116
2, 283260, Note_off_c, 0, 69, 100
2, 283264, Note_on_c, 0, 81, 120
2, 283388, Note_off_c, 0, 78, 100
2, 283392, Note_on_c, 0, 70, 120
2, 283516, Note_off_c, 0, 81, 100
2, 283520, Note_on_c, 0, 78, 120
2, 283644, Note_off_c, 0, 70, 100
2, 283648, Note_on_c, 0, 82, 120
2, 283772, Note_off_c, 0, 78, 100
2, 283776, Note_on_c, 0, 70, 120
2, 283900, Note_off_c, 0, 82, 100
2, 283904, Note_on_c, 0, 78, 120
2, 284028, Note_off_c, 0, 70, 100
2, 284032, Note_on_c, 0, 82, 120
2, 284156, Note_off_c, 0, 78, 100
2, 284160, Note_on_c, 0, 70, 120
2, 284284, Note_off_c, 0, 82, 100
2, 284288, Note_on_c, 0, 78, 120
2, 284412, Note_off_c, 0, 70, 100
2, 284416, Note_on_c, 0, 82, 120
2, 284540, Note_off_c, 0, 78, 100
2, 284544, Note_on_c, 0, 74, 120
2, 284668, Note_off_c, 0, 82, 100
2, 284672, Note_on_c, 0, 80, 120
2, 284796, Note_off_c, 0, 74, 100
2, 284800, Note_on_c, 0, 86, 120
2, 284924, Note_off_c, 0, 80, 100
2, 284928, Note_on_c, 0, 74, 120
2, 285052, Note_off_c, 0, 86, 100
2, 285056, Note_on_c, 0, 80, 120
2, 285180, Note_off_c, 0, 74, 100
2, 285184, Note_on_c, 0, 86, 120
2, 285308, Note_off_c, 0, 80, 100
2, 285312, Note_on_c, 0, 74, 120
2, 285436, Note_off_c, 0, 86, 100
2, 285440, Note_on_c, 0, 80, 120
2, 285564, Note_off_c, 0, 74, 100
2, 285568, Note_on_c, 0, 86, 120
2, 285692, Note_off_c, 0, 80, 100
2, 285692, Note_off_c, 0, 86, 100
2, 285696, Note_on_c, 0, 75, 120
2, 285696, Note_on_c, 0, 78, 120
2, 285696, Note_on_c, 0, 87, 120
2, 286076, Note_off_c, 0, 75, 100
2, 286076, Note_off_c, 0, 78, 100
2, 286076, Note_off_c, 0, 87, 100
2, 287232, Note_on_c, 0, 66, 80
2, 287612, Note_off_c, 0, 66, 100
2, 287616, Note_on_c, 0, 65, 80
2, 287996, Note_off_c, 0, 65, 100
2, 288000, Note_on_c, 0, 63, 79
2, 288000, Note_on_c, 0, 56, 79
2, 288000, Note_on_c, 0, 53, 79
2, 288764, Note_off_c, 0, 63, 100
2, 288768, Note_on_c, 0, 62, 78
2, 289148, Note_off_c, 0, 62, 100
2, 289152, Note_on_c, 0, 63, 78
2, 289916, Note_off_c, 0, 63, 100
2, 289920, Note_on_c, 0, 65, 77
2, 290300, Note_off_c, 0, 53, 100
2, 290300, Note_off_c, 0, 56, 100
2, 290300, Note_off_c, 0, 65, 100
2, 290304, Note_on_c, 0, 58, 76
2, 290304, Note_on_c, 0, 54, 76
2, 291836, Note_off_c, 0, 58, 100
2, 291840, Note_on_c, 0, 66, 74
2, 292220, Note_off_c, 0, 66, 100
2, 292224, Note_on_c, 0, 65, 74
2, 292604, Note_off_c, 0, 54, 100
2, 292604, Note_off_c, 0, 65, 100
2, 292608, Note_on_c, 0, 63, 73
2, 292608, Note_on_c, 0, 56, 73
2, 292608, Note_on_c, 0, 53, 73
2, 293372, Note_off_c, 0, 63, 100
2, 293376, Note_on_c, 0, 62, 72
2, 293756, Note_off_c, 0, 62, 100
2, 293760, Note_on_c, 0, 63, 72
2, 294524, Note_off_c, 0, 63, 100
2, 294528, Note_on_c, 0, 65, 71
2, 294908, Note_off_c, 0, 53, 100
2, 294908, Note_off_c, 0, 56, 100
2, 294908, Note_off_c, 0, 65, 100
2, 294912, Note_on_c, 0, 58, 60
2, 297212, Note_off_c, 0, 58, 100
2, 297216, Note_on_c, 0, 63, 60
2, 298364, Note_off_c, 0, 63, 100
2, 298368, Note_on_c, 0, 67, 60
2, 299516, Note_off_c, 0, 67, 100
2, 299520, Key_signature, -3, "major"
2, 299520, Note_on_c, 0, 70, 80
2, 299520, Note_on_c, 0, 67, 80
2, 299520, Note_on_c, 0, 63, 80
2, 299520, Note_on_c, 0, 58, 80
2, 300284, Note_off_c, 0, 70, 100
2, 300284, Note_off_c, 0, 67, 100
2, 300288, Note_on_c, 0, 67, 80
2, 300668, Note_off_c, 0, 63, 100
2, 300668, Note_off_c, 0, 58, 100
2, 300668, Note_off_c, 0, 67, 100
2, 300672, Note_on_c, 0, 63, 80
2, 301052, Note_off_c, 0, 63, 100
2, 301056, Note_on_c, 0, 67, 80
2, 301440, Note_on_c, 0, 70, 80
2, 301820, Note_off_c, 0, 70, 100
2, 301824, Note_on_c, 0, 75, 80
2, 302204, Note_off_c, 0, 75, 100
2, 302208, Note_on_c, 0, 79, 80
2, 302588, Note_off_c, 0, 67, 100
2, 302588, Note_off_c, 0, 79, 100
2, 302592, Note_on_c, 0, 65, 80
2, 302592, Note_on_c, 0, 77, 80
2, 302780, Note_off_c, 0, 77, 100
2, 302784, Note_on_c, 0, 74, 80
2, 302972, Note_off_c, 0, 65, 100
2, 302972, Note_off_c, 0, 74, 100
2, 302976, Note_on_c, 0, 75, 80
2, 302976, Note_on_c, 0, 67, 80
2, 303164, Note_off_c, 0, 75, 100
2, 303168, Note_on_c, 0, 79, 80
2, 303356, Note_off_c, 0, 67, 100
2, 303356, Note_off_c, 0, 79, 100
2, 303360, Note_on_c, 0, 70, 80
2, 303740, Note_off_c, 0, 70, 100
2, 304128, Note_on_c, 0, 72, 80
2, 304316, Note_off_c, 0, 72, 100
2, 304320, Note_on_c, 0, 75, 80
2, 304508, Note_off_c, 0, 75, 100
2, 304512, Note_on_c, 0, 70, 80
2, 304892, Note_off_c, 0, 70, 100
2, 305280, Note_on_c, 0, 65, 80
2, 305280, Note_on_c, 0, 68, 80
2, 305468, Note_off_c, 0, 68, 100
2, 305472, Note_on_c, 0, 70, 80
2, 305660, Note_off_c, 0, 65, 100
2, 305660, Note_off_c, 0, 70, 100
2, 305664, Note_on_c, 0, 63, 80
2, 305664, Note_on_c, 0, 67, 80
2, 306044, Note_off_c, 0, 63, 100
2, 306044, Note_off_c, 0, 67, 100
2, 306432, Note_on_c, 0, 65, 80
2, 306432, Note_on_c, 0, 62, 80
2, 306812, Note_off_c, 0, 65, 100
2, 306812, Note_off_c, 0, 62, 100
2, 306816, Note_on_c, 0, 68, 80
2, 306816, Note_on_c, 0, 65, 80
2, 307196, Note_off_c, 0, 68, 100
2, 307196, Note_off_c, 0, 65, 100
2, 307200, Note_on_c, 0, 67, 80
2, 307200, Note_on_c, 0, 63, 80
2, 307580, Note_off_c, 0, 67, 100
2, 307580, Note_off_c, 0, 63, 100
2, 307584, Note_on_c, 0, 65, 80
2, 307584, Note_on_c, 0, 62, 80
2, 307964, Note_off_c, 0, 65, 100
2, 307964, Note_off_c, 0, 62, 100
2, 308736, Note_on_c, 0, 70, 80
2, 308736, Note_on_c, 0, 67, 80
2, 308736, Note_on_c, 0, 63, 80
2, 308736, Note_on_c, 0, 58, 80
2, 309500, Note_off_c, 0, 70, 100
2, 309500, Note_off_c, 0, 67, 100
2, 309504, Note_on_c, 0, 67, 80
2, 309884, Note_off_c, 0, 63, 100
2, 309884, Note_off_c, 0, 58, 100
2, 309884, Note_off_c, 0, 67, 100
2, 309888, Note_on_c, 0, 63, 80
2, 310268, Note_off_c, 0, 63, 100
2, 310272, Note_on_c, 0, 67, 80
2, 310656, Note_on_c, 0, 70, 80
2, 311040, Note_on_c, 0, 75, 80
2, 311420, Note_off_c, 0, 75, 100
2, 311424, Note_on_c, 0, 79, 80
2, 311804, Note_off_c, 0, 67, 100
2, 311804, Note_off_c, 0, 70, 100
2, 311804, Note_off_c, 0, 79, 100
2, 311808, Note_on_c, 0, 77, 80
2, 311808, Note_on_c, 0, 68, 80
2, 311808, Note_on_c, 0, 65, 80
2, 311996, Note_off_c, 0, 77, 100
2, 312000, Note_on_c, 0, 74, 80
2, 312188, Note_off_c, 0, 68, 100
2, 312188, Note_off_c, 0, 65, 100
2, 312188, Note_off_c, 0, 74, 100
2, 312192, Note_on_c, 0, 75, 80
2, 312192, Note_on_c, 0, 67, 80
2, 312192, Note_on_c, 0, 63, 80
2, 312572, Note_off_c, 0, 75, 100
2, 312572, Note_off_c, 0, 67, 100
2, 312572, Note_off_c, 0, 63, 100
2, 313728, Note_on_c, 0, 77, 70
2, 314108, Note_off_c, 0, 77, 100
2, 314112, Note_on_c, 0, 65, 70
2, 314112, Note_on_c, 0, 75, 70
2, 314300, Note_off_c, 0, 75, 100
2, 314304, Note_on_c, 0, 72, 70
2, 314492, Note_off_c, 0, 72, 100
2, 314496, Note_on_c, 0, 74, 70
2, 314876, Note_off_c, 0, 65, 100
2, 314876, Note_off_c, 0, 74, 100
2, 316416, Note_on_c, 0, 87, 100
2, 316604, Note_off_c, 0, 87, 100
2, 316608, Note_on_c, 0, 84, 100
2, 316796, Note_off_c, 0, 84, 100
2, 316800, Note_on_c, 0, 86, 100
2, 316988, Note_off_c, 0, 86, 100
2, 316992, Note_on_c, 0, 89, 100
2, 317180, Note_off_c, 0, 89, 100
2, 317184, Note_on_c, 0, 77, 100
2, 317564, Note_off_c, 0, 77, 100
2, 317568, Note_on_c, 0, 87, 100
2, 317756, Note_off_c, 0, 87, 100
2, 317760, Note_on_c, 0, 84, 100
2, 317948, Note_off_c, 0, 84, 100
2, 317952, Note_on_c, 0, 86, 100
2, 318140, Note_off_c, 0, 86, 100
2, 318144, Note_on_c, 0, 89, 100
2, 318332, Note_off_c, 0, 89, 100
2, 318336, Note_on_c, 0, 77, 100
2, 318716, Note_off_c, 0, 77, 100
2, 318720, Note_on_c, 0, 87, 100
2, 318908, Note_off_c, 0, 87, 100
2, 318912, Note_on_c, 0, 84, 100
2, 319100, Note_off_c, 0, 84, 100
2, 319104, Note_on_c, 0, 86, 100
2, 319292, Note_off_c, 0, 86, 100
2, 319296, Note_on_c, 0, 89, 100
2, 319484, Note_off_c, 0, 89, 100
2, 319488, Note_on_c, 0, 77, 100
2, 319868, Note_off_c, 0, 77, 100
2, 319872, Note_on_c, 0, 87, 100
2, 320060, Note_off_c, 0, 87, 100
2, 320064, Note_on_c, 0, 84, 100
2, 320252, Note_off_c, 0, 84, 100
2, 320256, Note_on_c, 0, 86, 100
2, 320444, Note_off_c, 0, 86, 100
2, 320448, Note_on_c, 0, 89, 100
2, 320636, Note_off_c, 0, 89, 100
2, 320640, Note_on_c, 0, 87, 100
2, 320828, Note_off_c, 0, 87, 100
2, 320832, Note_on_c, 0, 86, 100
2, 321020, Note_off_c, 0, 86, 100
2, 321024, Note_on_c, 0, 84, 100
2, 321212, Note_off_c, 0, 84, 100
2, 321216, Note_on_c, 0, 82, 100
2, 321404, Note_off_c, 0, 82, 100
2, 321408, Note_on_c, 0, 81, 100
2, 321596, Note_off_c, 0, 81, 100
2, 321600, Note_on_c, 0, 82, 100
2, 321788, Note_off_c, 0, 82, 100
2, 321792, Note_on_c, 0, 86, 100
2, 321980, Note_off_c, 0, 86, 100
2, 321984, Note_on_c, 0, 77, 100
2, 322172, Note_off_c, 0, 77, 100
2, 322176, Note_on_c, 0, 84, 100
2, 322364, Note_off_c, 0, 84, 100
2, 322368, Note_on_c, 0, 75, 100
2, 322556, Note_off_c, 0, 75, 100
2, 322560, Note_on_c, 0, 82, 100
2, 322560, Note_on_c, 0, 74, 100
2, 322748, Note_off_c, 0, 82, 100
2, 322748, Note_off_c, 0, 74, 100
2, 322752, Note_on_c, 0, 77, 100
2, 322940, Note_off_c, 0, 77, 100
2, 322944, Note_on_c, 0, 75, 100
2, 323132, Note_off_c, 0, 75, 100
2, 323136, Note_on_c, 0, 74, 100
2, 323324, Note_off_c, 0, 74, 100
2, 323328, Note_on_c, 0, 72, 100
2, 323516, Note_off_c, 0, 72, 100
2, 323520, Note_on_c, 0, 70, 100
2, 323708, Note_off_c, 0, 70, 100
2, 323712, Note_on_c, 0, 69, 100
2, 323900, Note_off_c, 0, 69, 100
2, 323904, Note_on_c, 0, 70, 100
2, 324092, Note_off_c, 0, 70, 100
2, 324096, Note_on_c, 0, 74, 100
2, 324284, Note_off_c, 0, 74, 100
2, 324288, Note_on_c, 0, 65, 100
2, 324476, Note_off_c, 0, 65, 100
2, 324480, Note_on_c, 0, 72, 100
2, 324668, Note_off_c, 0, 72, 100
2, 324672, Note_on_c, 0, 63, 100
2, 324860, Note_off_c, 0, 63, 100
2, 324864, Note_on_c, 0, 62, 100
2, 324864, Note_on_c, 0, 70, 100
2, 325052, Note_off_c, 0, 62, 100
2, 325052, Note_off_c, 0, 70, 100
2, 325056, Note_on_c, 0, 65, 100
2, 325244, Note_off_c, 0, 65, 100
2, 325248, Note_on_c, 0, 62, 100
2, 325436, Note_off_c, 0, 62, 100
2, 325440, Note_on_c, 0, 58, 100
2, 325628, Note_off_c, 0, 58, 100
2, 325632, Note_on_c, 0, 53, 100
2, 325820, Note_off_c, 0, 53, 100
2, 325824, Note_on_c, 0, 50, 100
2, 326012, Note_off_c, 0, 50, 100
2, 328320, Note_on_c, 0, 70, 83
2, 329084, Note_off_c, 0, 70, 100
2, 329088, Note_on_c, 0, 67, 85
2, 329468, Note_off_c, 0, 67, 100
2, 329472, Note_on_c, 0, 64, 87
2, 329852, Note_off_c, 0, 64, 100
2, 329856, Note_on_c, 0, 67, 88
2, 330236, Note_off_c, 0, 67, 100
2, 330240, Note_on_c, 0, 70, 89
2, 330620, Note_off_c, 0, 70, 100
2, 330624, Note_on_c, 0, 73, 90
2, 331388, Note_off_c, 0, 73, 100
2, 331392, Note_on_c, 0, 70, 92
2, 331772, Note_off_c, 0, 70, 100
2, 331776, Note_on_c, 0, 67, 94
2, 332156, Note_off_c, 0, 67, 100
2, 332160, Note_on_c, 0, 70, 95
2, 332540, Note_off_c, 0, 70, 100
2, 332544, Note_on_c, 0, 73, 96
2, 332924, Note_off_c, 0, 73, 100
2, 332928, Note_on_c, 0, 76, 97
2, 333692, Note_off_c, 0, 76, 100
2, 333696, Note_on_c, 0, 73, 99
2, 334076, Note_off_c, 0, 73, 100
2, 334080, Note_on_c, 0, 70, 100
2, 334460, Note_off_c, 0, 70, 100
2, 334464, Note_on_c, 0, 73, 100
2, 334844, Note_off_c, 0, 73, 100
2, 334848, Note_on_c, 0, 76, 100
2, 335228, Note_off_c, 0, 76, 100
2, 335232, Note_on_c, 0, 79, 100
2, 335612, Note_off_c, 0, 79, 100
2, 335616, Note_on_c, 0, 77, 100
2, 335996, Note_off_c, 0, 77, 100
2, 336000, Note_on_c, 0, 76, 100
2, 336380, Note_off_c, 0, 76, 100
2, 336384, Note_on_c, 0, 76, 100
2, 336764, Note_off_c, 0, 76, 100
2, 336768, Note_on_c, 0, 77, 100
2, 337148, Note_off_c, 0, 77, 100
2, 337152, Note_on_c, 0, 77, 100
2, 337248, Note_on_c, 0, 79, 100
2, 337340, Note_off_c, 0, 77, 100
2, 337344, Note_on_c, 0, 76, 100
2, 337436, Note_off_c, 0, 79, 100
2, 337440, Note_on_c, 0, 77, 100
2, 337532, Note_off_c, 0, 76, 100
2, 337536, Note_on_c, 0, 80, 100
2, 337628, Note_off_c, 0, 77, 100
2, 337916, Note_off_c, 0, 80, 100
2, 337920, Note_on_c, 0, 79, 100
2, 338300, Note_off_c, 0, 79, 100
2, 338304, Note_on_c, 0, 77, 100
2, 338684, Note_off_c, 0, 77, 100
2, 339072, Note_on_c, 0, 76, 100
2, 339452, Note_off_c, 0, 76, 100
2, 339456, Note_on_c, 0, 76, 100
2, 339836, Note_off_c, 0, 76, 100
2, 339840, Note_on_c, 0, 76, 100
2, 339900, Note_off_c, 0, 76, 100
2, 339904, Note_on_c, 0, 79, 100
2, 340216, Note_off_c, 0, 79, 100
2, 340224, Note_on_c, 0, 77, 100
2, 340604, Note_off_c, 0, 77, 100
2, 340608, Note_on_c, 0, 76, 100
2, 340988, Note_off_c, 0, 76, 100
2, 341376, Note_on_c, 0, 77, 100
2, 341756, Note_off_c, 0, 77, 100
2, 341760, Note_on_c, 0, 77, 100
2, 342140, Note_off_c, 0, 77, 100
2, 342144, Note_on_c, 0, 77, 100
2, 342204, Note_off_c, 0, 77, 100
2, 342208, Note_on_c, 0, 80, 100
2, 342524, Note_off_c, 0, 80, 100
2, 342528, Note_on_c, 0, 79, 100
2, 342908, Note_off_c, 0, 79, 100
2, 342912, Note_on_c, 0, 77, 100
2, 343292, Note_off_c, 0, 77, 100
2, 343296, Note_on_c, 0, 75, 100
2, 343676, Note_off_c, 0, 75, 100
2, 343680, Note_on_c, 0, 74, 97
2, 344060, Note_off_c, 0, 74, 100
2, 344064, Note_on_c, 0, 74, 93
2, 344444, Note_off_c, 0, 74, 100
2, 344448, Note_on_c, 0, 74, 89
2, 344508, Note_off_c, 0, 74, 100
2, 344512, Note_on_c, 0, 77, 89
2, 344828, Note_off_c, 0, 77, 100
2, 344832, Note_on_c, 0, 75, 86
2, 345212, Note_off_c, 0, 75, 100
2, 345216, Note_on_c, 0, 74, 82
2, 345596, Note_off_c, 0, 74, 100
2, 345600, Note_on_c, 0, 72, 78
2, 345980, Note_off_c, 0, 72, 100
2, 345984, Note_on_c, 0, 70, 74
2, 346364, Note_off_c, 0, 70, 100
2, 346368, Note_on_c, 0, 69, 71
2, 346748, Note_off_c, 0, 69, 100
2, 346752, Note_on_c, 0, 70, 70
2, 347132, Note_off_c, 0, 70, 100
2, 347136, Note_on_c, 0, 72, 70
2, 347516, Note_off_c, 0, 72, 100
2, 347520, Note_on_c, 0, 68, 70
2, 347900, Note_off_c, 0, 68, 100
2, 347904, Note_on_c, 0, 70, 80
2, 347904, Note_on_c, 0, 67, 80
2, 347904, Note_on_c, 0, 63, 80
2, 347904, Note_on_c, 0, 58, 80
2, 348668, Note_off_c, 0, 70, 100
2, 348668, Note_off_c, 0, 67, 100
2, 348672, Note_on_c, 0, 67, 80
2, 349052, Note_off_c, 0, 63, 100
2, 349052, Note_off_c, 0, 58, 100
2, 349052, Note_off_c, 0, 67, 100
2, 349056, Note_on_c, 0, 63, 80
2, 349436, Note_off_c, 0, 63, 100
2, 349440, Note_on_c, 0, 67, 80
2, 349824, Note_on_c, 0, 70, 80
2, 350208, Note_on_c, 0, 75, 80
2, 350588, Note_off_c, 0, 75, 100
2, 350592, Note_on_c, 0, 79, 80
2, 350972, Note_off_c, 0, 67, 100
2, 350972, Note_off_c, 0, 79, 100
2, 350976, Note_on_c, 0, 65, 80
2, 350976, Note_on_c, 0, 77, 80
2, 351164, Note_off_c, 0, 77, 100
2, 351168, Note_on_c, 0, 74, 80
2, 351356, Note_off_c, 0, 65, 100
2, 351356, Note_off_c, 0, 74, 100
2, 351360, Note_on_c, 0, 75, 80
2, 351360, Note_on_c, 0, 67, 80
2, 351548, Note_off_c, 0, 75, 100
2, 351552, Note_on_c, 0, 79, 80
2, 351740, Note_off_c, 0, 70, 100
2, 351740, Note_off_c, 0, 67, 100
2, 351740, Note_off_c, 0, 79, 100
2, 351744, Note_on_c, 0, 70, 80
2, 352124, Note_off_c, 0, 70, 100
2, 352512, Note_on_c, 0, 72, 80
2, 352700, Note_off_c, 0, 72, 100
2, 352704, Note_on_c, 0, 75, 80
2, 352892, Note_off_c, 0, 75, 100
2, 352896, Note_on_c, 0, 70, 80
2, 353276, Note_off_c, 0, 70, 100
2, 353664, Note_on_c, 0, 65, 80
2, 353664, Note_on_c, 0, 68, 80
2, 353852, Note_off_c, 0, 68, 100
2, 353856, Note_on_c, 0, 70, 80
2, 354044, Note_off_c, 0, 65, 100
2, 354044, Note_off_c, 0, 70, 100
2, 354048, Note_on_c, 0, 63, 80
2, 354048, Note_on_c, 0, 67, 80
2, 354428, Note_off_c, 0, 63, 100
2, 354428, Note_off_c, 0, 67, 100
2, 354816, Note_on_c, 0, 65, 80
2, 354816, Note_on_c, 0, 62, 80
2, 355196, Note_off_c, 0, 65, 100
2, 355196, Note_off_c, 0, 62, 100
2, 355200, Note_on_c, 0, 68, 80
2, 355200, Note_on_c, 0, 65, 80
2, 355580, Note_off_c, 0, 68, 100
2, 355580, Note_off_c, 0, 65, 100
2, 355584, Note_on_c, 0, 67, 80
2, 355584, Note_on_c, 0, 63, 80
2, 355964, Note_off_c, 0, 67, 100
2, 355964, Note_off_c, 0, 63, 100
2, 355968, Note_on_c, 0, 65, 80
2, 355968, Note_on_c, 0, 62, 80
2, 356348, Note_off_c, 0, 65, 100
2, 356348, Note_off_c, 0, 62, 100
2, 357120, Note_on_c, 0, 70, 80
2, 357120, Note_on_c, 0, 66, 80
2, 357120, Note_on_c, 0, 63, 80
2, 357120, Note_on_c, 0, 58, 80
2, 357884, Note_off_c, 0, 70, 100
2, 357884, Note_off_c, 0, 66, 100
2, 357888, Note_on_c, 0, 66, 80
2, 358268, Note_off_c, 0, 63, 100
2, 358268, Note_off_c, 0, 58, 100
2, 358268, Note_off_c, 0, 66, 100
2, 358272, Note_on_c, 0, 63, 80
2, 358652, Note_off_c, 0, 63, 100
2, 358656, Note_on_c, 0, 66, 80
2, 359040, Note_on_c, 0, 70, 80
2, 359424, Note_on_c, 0, 75, 80
2, 359804, Note_off_c, 0, 75, 100
2, 359808, Note_on_c, 0, 78, 80
2, 360188, Note_off_c, 0, 66, 100
2, 360188, Note_off_c, 0, 70, 100
2, 360188, Note_off_c, 0, 78, 100
2, 360192, Note_on_c, 0, 68, 80
2, 360192, Note_on_c, 0, 65, 80
2, 360192, Note_on_c, 0, 77, 80
2, 360380, Note_off_c, 0, 77, 100
2, 360384, Note_on_c, 0, 74, 80
2, 360572, Note_off_c, 0, 68, 100
2, 360572, Note_off_c, 0, 65, 100
2, 360572, Note_off_c, 0, 74, 100
2, 360576, Note_on_c, 0, 75, 80
2, 360576, Note_on_c, 0, 66, 80
2, 360576, Note_on_c, 0, 63, 80
2, 360956, Note_off_c, 0, 75, 100
2, 360956, Note_off_c, 0, 66, 100
2, 360956, Note_off_c, 0, 63, 100
2, 362496, Note_on_c, 0, 76, 70
2, 362496, Note_on_c, 0, 66, 70
2, 362684, Note_off_c, 0, 76, 100
2, 362688, Note_on_c, 0, 73, 71
2, 362876, Note_off_c, 0, 73, 100
2, 362880, Note_on_c, 0, 75, 72
2, 363260, Note_off_c, 0, 66, 100
2, 363260, Note_off_c, 0, 75, 100
2, 363648, Note_on_c, 0, 76, 76
2, 363648, Note_on_c, 0, 66, 76
2, 363836, Note_off_c, 0, 76, 100
2, 363840, Note_on_c, 0, 73, 78
2, 364028, Note_off_c, 0, 73, 100
2, 364032, Note_on_c, 0, 75, 79
2, 364412, Note_off_c, 0, 66, 100
2, 364412, Note_off_c, 0, 75, 100
2, 364800, Note_on_c, 0, 76, 83
2, 364800, Note_on_c, 0, 66, 83
2, 364988, Note_off_c, 0, 76, 100
2, 364992, Note_on_c, 0, 73, 84
2, 365180, Note_off_c, 0, 73, 100
2, 365184, Note_on_c, 0, 75, 86
2, 365564, Note_off_c, 0, 66, 100
2, 365564, Note_off_c, 0, 75, 100
2, 365568, Note_on_c, 0, 78, 88
2, 365568, Note_on_c, 0, 66, 88
2, 366332, Note_off_c, 0, 66, 100
2, 366336, Note_on_c, 0, 68, 93
2, 366716, Note_off_c, 0, 78, 100
2, 366720, Note_on_c, 0, 76, 95
2, 367484, Note_off_c, 0, 68, 100
2, 367488, Note_on_c, 0, 70, 99
2, 367868, Note_off_c, 0, 76, 100
2, 367868, Note_off_c, 0, 70, 100
2, 367872, Note_on_c, 0, 75, 100
2, 367872, Note_on_c, 0, 71, 100
2, 368636, Note_off_c, 0, 75, 100
2, 368640, Note_on_c, 0, 73, 100
2, 369020, Note_off_c, 0, 71, 100
2, 369024, Note_on_c, 0, 70, 100
2, 369788, Note_off_c, 0, 73, 100
2, 369788, Note_off_c, 0, 70, 100
2, 369792, Note_on_c, 0, 75, 100
2, 369792, Note_on_c, 0, 71, 100
2, 370172, Note_off_c, 0, 75, 100
2, 370172, Note_off_c, 0, 71, 100
2, 370176, Note_on_c, 0, 66, 100
2, 370176, Note_on_c, 0, 78, 100
2, 370940, Note_off_c, 0, 66, 100
2, 370944, Note_on_c, 0, 68, 100
2, 371324, Note_off_c, 0, 78, 100
2, 371328, Note_on_c, 0, 76, 100
2, 372092, Note_off_c, 0, 68, 100
2, 372096, Note_on_c, 0, 70, 100
2, 372476, Note_off_c, 0, 76, 100
2, 372476, Note_off_c, 0, 70, 100
2, 372480, Note_on_c, 0, 75, 100
2, 372480, Note_on_c, 0, 71, 100
2, 373244, Note_off_c, 0, 71, 100
2, 373248, Note_on_c, 0, 70, 100
2, 373628, Note_off_c, 0, 75, 100
2, 373632, Note_on_c, 0, 73, 100
2, 374396, Note_off_c, 0, 70, 100
2, 374780, Note_off_c, 0, 73, 100
2, 374784, Note_on_c, 0, 71, 92
2, 375932, Note_off_c, 0, 71, 100
2, 375936, Note_on_c, 0, 70, 83
2, 377084, Note_off_c, 0, 70, 100
2, 377088, Note_on_c, 0, 69, 74
2, 377468, Note_off_c, 0, 69, 100
2, 379392, Note_on_c, 0, 70, 100
2, 379772, Note_off_c, 0, 70, 100
2, 379776, Note_on_c, 0, 70, 100
2, 380156, Note_off_c, 0, 70, 100
2, 380160, Note_on_c, 0, 70, 101
2, 380540, Note_off_c, 0, 70, 100
2, 380544, Note_on_c, 0, 70, 101
2, 380924, Note_off_c, 0, 70, 100
2, 380928, Note_on_c, 0, 70, 102
2, 380928, Note_on_c, 0, 80, 102
2, 381116, Note_off_c, 0, 80, 100
2, 381120, Note_on_c, 0, 77, 102
2, 381308, Note_off_c, 0, 70, 100
2, 381308, Note_off_c, 0, 77, 100
2, 381312, Note_on_c, 0, 70, 103
2, 381312, Note_on_c, 0, 79, 103
2, 381692, Note_off_c, 0, 70, 100
2, 381692, Note_off_c, 0, 79, 100
2, 381696, Note_on_c, 0, 70, 103
2, 382076, Note_off_c, 0, 70, 100
2, 382080, Note_on_c, 0, 70, 104
2, 382080, Note_on_c, 0, 77, 104
2, 382268, Note_off_c, 0, 77, 100
2, 382272, Note_on_c, 0, 74, 104
2, 382460, Note_off_c, 0, 70, 100
2, 382460, Note_off_c, 0, 74, 100
2, 382464, Note_on_c, 0, 70, 105
2, 382464, Note_on_c, 0, 75, 105
2, 382844, Note_off_c, 0, 70, 100
2, 382844, Note_off_c, 0, 75, 100
2, 382848, Note_on_c, 0, 70, 105
2, 383228, Note_off_c, 0, 70, 100
2, 383232, Note_on_c, 0, 70, 106
2, 383232, Note_on_c, 0, 80, 106
2, 383420, Note_off_c, 0, 80, 100
2, 383424, Note_on_c, 0, 77, 106
2, 383612, Note_off_c, 0, 70, 100
2, 383612, Note_off_c, 0, 77, 100
2, 383616, Note_on_c, 0, 70, 106
2, 383616, Note_on_c, 0, 79, 106
2, 383996, Note_off_c, 0, 70, 100
2, 383996, Note_off_c, 0, 79, 100
2, 384000, Note_on_c, 0, 70, 107
2, 384380, Note_off_c, 0, 70, 100
2, 384384, Note_on_c, 0, 70, 108
2, 384384, Note_on_c, 0, 77, 108
2, 384572, Note_off_c, 0, 77, 100
2, 384576, Note_on_c, 0, 74, 108
2, 384764, Note_off_c, 0, 70, 100
2, 384764, Note_off_c, 0, 74, 100
2, 384768, Note_on_c, 0, 75, 108
2, 385148, Note_off_c, 0, 75, 100
2, 385152, Note_on_c, 0, 75, 109
2, 385532, Note_off_c, 0, 75, 100
2, 385536, Note_on_c, 0, 75, 110
2, 385536, Note_on_c, 0, 84, 110
2, 385724, Note_off_c, 0, 84, 100
2, 385728, Note_on_c, 0, 80, 110
2, 385916, Note_off_c, 0, 75, 100
2, 385916, Note_off_c, 0, 80, 100
2, 385920, Note_on_c, 0, 75, 110
2, 385920, Note_on_c, 0, 82, 110
2, 386300, Note_off_c, 0, 75, 100
2, 386300, Note_off_c, 0, 82, 100
2, 386304, Note_on_c, 0, 75, 110
2, 386684, Note_off_c, 0, 75, 100
2, 386688, Note_on_c, 0, 75, 110
2, 386688, Note_on_c, 0, 80, 110
2, 386876, Note_off_c, 0, 80, 100
2, 386880, Note_on_c, 0, 78, 110
2, 387068, Note_off_c, 0, 75, 100
2, 387068, Note_off_c, 0, 78, 100
2, 387072, Note_on_c, 0, 75, 110
2, 387072, Note_on_c, 0, 79, 110
2, 387452, Note_off_c, 0, 75, 100
2, 387452, Note_off_c, 0, 79, 100
2, 387456, Note_on_c, 0, 75, 110
2, 387836, Note_off_c, 0, 75, 100
2, 387840, Note_on_c, 0, 75, 110
2, 387840, Note_on_c, 0, 84, 110
2, 388028, Note_off_c, 0, 84, 100
2, 388032, Note_on_c, 0, 80, 110
2, 388220, Note_off_c, 0, 75, 100
2, 388220, Note_off_c, 0, 80, 100
2, 388224, Note_on_c, 0, 75, 110
2, 388224, Note_on_c, 0, 82, 110
2, 388604, Note_off_c, 0, 75, 100
2, 388604, Note_off_c, 0, 82, 100
2, 388608, Note_on_c, 0, 75, 110
2, 388988, Note_off_c, 0, 75, 100
2, 388992, Note_on_c, 0, 75, 110
2, 388992, Note_on_c, 0, 80, 110
2, 389180, Note_off_c, 0, 80, 100
2, 389184, Note_on_c, 0, 78, 110
2, 389372, Note_off_c, 0, 75, 100
2, 389372, Note_off_c, 0, 78, 100
2, 389376, Note_on_c, 0, 75, 110
2, 389376, Note_on_c, 0, 79, 110
2, 389756, Note_off_c, 0, 75, 100
2, 389756, Note_off_c, 0, 79, 100
2, 389760, Note_on_c, 0, 75, 110
2, 390140, Note_off_c, 0, 75, 100
2, 390144, Note_on_c, 0, 75, 120
2, 390144, Note_on_c, 0, 85, 120
2, 390332, Note_off_c, 0, 85, 100
2, 390336, Note_on_c, 0, 82, 120
2, 390524, Note_off_c, 0, 75, 100
2, 390524, Note_off_c, 0, 82, 100
2, 390528, Note_on_c, 0, 84, 120
2, 390716, Note_off_c, 0, 84, 100
2, 390720, Note_on_c, 0, 87, 120
2, 390908, Note_off_c, 0, 87, 100
2, 390912, Note_on_c, 0, 86, 120
2, 391100, Note_off_c, 0, 86, 100
2, 391104, Note_on_c, 0, 84, 120
2, 391292, Note_off_c, 0, 84, 100
2, 391296, Note_on_c, 0, 82, 120
2, 391484, Note_off_c, 0, 82, 100
2, 391488, Note_on_c, 0, 80, 120
2, 391676, Note_off_c, 0, 80, 100
2, 391680, Note_on_c, 0, 79, 120
2, 391868, Note_off_c, 0, 79, 100
2, 391872, Note_on_c, 0, 82, 120
2, 392060, Note_off_c, 0, 82, 100
2, 392064, Note_on_c, 0, 87, 120
2, 392252, Note_off_c, 0, 87, 100
2, 392256, Note_on_c, 0, 79, 120
2, 392444, Note_off_c, 0, 79, 100
2, 392448, Note_on_c, 0, 86, 120
2, 392636, Note_off_c, 0, 86, 100
2, 392640, Note_on_c, 0, 77, 120
2, 392828, Note_off_c, 0, 77, 100
2, 392832, Note_on_c, 0, 87, 120
2, 393020, Note_off_c, 0, 87, 100
2, 393024, Note_on_c, 0, 75, 120
2, 393212, Note_off_c, 0, 75, 100
2, 393216, Note_on_c, 0, 74, 120
2, 393404, Note_off_c, 0, 74, 100
2, 393408, Note_on_c, 0, 72, 120
2, 393596, Note_off_c, 0, 72, 100
2, 393600, Note_on_c, 0, 70, 120
2, 393788, Note_off_c, 0, 70, 100
2, 393792, Note_on_c, 0, 68, 120
2, 393980, Note_off_c, 0, 68, 100
2, 393984, Note_on_c, 0, 67, 120
2, 394172, Note_off_c, 0, 67, 100
2, 394176, Note_on_c, 0, 70, 120
2, 394364, Note_off_c, 0, 70, 100
2, 394368, Note_on_c, 0, 75, 120
2, 394556, Note_off_c, 0, 75, 100
2, 394560, Note_on_c, 0, 67, 120
2, 394748, Note_off_c, 0, 67, 100
2, 394752, Note_on_c, 0, 74, 120
2, 394940, Note_off_c, 0, 74, 100
2, 394944, Note_on_c, 0, 65, 120
2, 395132, Note_off_c, 0, 65, 100
2, 395136, Note_on_c, 0, 75, 120
2, 395324, Note_off_c, 0, 75, 100
2, 395328, Note_on_c, 0, 63, 120
2, 395516, Note_off_c, 0, 63, 100
2, 395520, Note_on_c, 0, 62, 120
2, 395708, Note_off_c, 0, 62, 100
2, 395712, Note_on_c, 0, 60, 120
2, 395900, Note_off_c, 0, 60, 100
2, 395904, Note_on_c, 0, 58, 120
2, 396092, Note_off_c, 0, 58, 100
2, 396096, Note_on_c, 0, 56, 120
2, 396284, Note_off_c, 0, 56, 100
2, 396288, Note_on_c, 0, 55, 120
2, 396476, Note_off_c, 0, 55, 100
2, 396480, Note_on_c, 0, 58, 120
2, 396668, Note_off_c, 0, 58, 100
2, 396672, Note_on_c, 0, 63, 120
2, 396860, Note_off_c, 0, 63, 100
2, 396864, Note_on_c, 0, 55, 120
2, 397052, Note_off_c, 0, 55, 100
2, 397056, Note_on_c, 0, 62, 120
2, 397244, Note_off_c, 0, 62, 100
2, 397248, Note_on_c, 0, 53, 120
2, 397436, Note_off_c, 0, 53, 100
2, 397440, Note_on_c, 0, 63, 120
2, 397440, Note_on_c, 0, 55, 120
2, 397820, Note_off_c, 0, 63, 100
2, 397820, Note_off_c, 0, 55, 100
2, 398592, Note_on_c, 0, 67, 120
2, 398592, Note_on_c, 0, 63, 120
2, 398592, Note_on_c, 0, 58, 120
2, 398592, Note_on_c, 0, 55, 120
2, 399740, Note_off_c, 0, 67, 100
2, 399740, Note_off_c, 0, 63, 100
2, 399740, Note_off_c, 0, 58, 100
2, 399740, Note_off_c, 0, 55, 100
2, 399744, Note_on_c, 0, 68, 120
2, 399744, Note_on_c, 0, 63, 120
2, 399744, Note_on_c, 0, 60, 120
2, 399744, Note_on_c, 0, 56, 120
2, 400892, Note_off_c, 0, 68, 100
2, 400892, Note_off_c, 0, 63, 100
2, 400892, Note_off_c, 0, 60, 100
2, 400892, Note_off_c, 0, 56, 100
2, 400896, Note_on_c, 0, 70, 120
2, 400896, Note_on_c, 0, 62, 120
2, 400896, Note_on_c, 0, 56, 120
2, 402044, Note_off_c, 0, 70, 100
2, 402044, Note_off_c, 0, 62, 100
2, 402044, Note_off_c, 0, 56, 100
2, 402048, Note_on_c, 0, 63, 120
2, 402048, Note_on_c, 0, 55, 120
2, 402428, Note_off_c, 0, 63, 100
2, 402428, Note_off_c, 0, 55, 100
2, 402432, Note_on_c, 0, 75, 120
2, 402812, Note_off_c, 0, 75, 100
2, 402816, Note_on_c, 0, 75, 120
2, 403196, Note_off_c, 0, 75, 100
2, 403200, Note_on_c, 0, 73, 120
2, 403580, Note_off_c, 0, 73, 100
2, 403584, Note_on_c, 0, 75, 120
2, 403964, Note_off_c, 0, 75, 100
2, 403968, Note_on_c, 0, 70, 120
2, 404348, Note_off_c, 0, 70, 100
2, 404352, Note_on_c, 0, 72, 120
2, 404732, Note_off_c, 0, 72, 100
2, 404736, Note_on_c, 0, 75, 120
2, 405116, Note_off_c, 0, 75, 100
2, 405120, Note_on_c, 0, 68, 120
2, 405500, Note_off_c, 0, 68, 100
2, 405504, Note_on_c, 0, 65, 120
2, 405504, Note_on_c, 0, 68, 120
2, 405504, Note_on_c, 0, 74, 120
2, 405884, Note_off_c, 0, 74, 100
2, 405888, Note_on_c, 0, 77, 120
2, 406268, Note_off_c, 0, 77, 100
2, 406272, Note_on_c, 0, 70, 120
2, 406652, Note_off_c, 0, 65, 100
2, 406652, Note_off_c, 0, 68, 100
2, 406652, Note_off_c, 0, 70, 100
2, 406656, Note_on_c, 0, 75, 120
2, 406656, Note_on_c, 0, 67, 120
2, 406844, Note_off_c, 0, 75, 100
2, 406844, Note_off_c, 0, 67, 100
2, 406848, Note_on_c, 0, 70, 120
2, 407036, Note_off_c, 0, 70, 100
2, 407040, Note_on_c, 0, 67, 120
2, 407228, Note_off_c, 0, 67, 100
2, 407232, Note_on_c, 0, 63, 120
2, 407420, Note_off_c, 0, 63, 100
2, 407424, Note_on_c, 0, 58, 120
2, 407612, Note_off_c, 0, 58, 100
2, 407616, Note_on_c, 0, 55, 120
2, 407804, Note_off_c, 0, 55, 100
2, 407804, End_track
3, 0, Start_track
3, 0, Title_t, "Left"
3, 0, Control_c, 1, 0, 0
3, 0, Program_c, 1, 0
3, 0, Control_c, 1, 7, 100
3, 0, Control_c, 1, 10, 59
3, 0, Control_c, 1, 91, 127
3, 0, Key_signature, -3, "major"
3, 384, Note_on_c, 1, 51, 80
3, 764, Note_off_c, 1, 51, 100
3, 768, Note_on_c, 1, 55, 80
3, 1148, Note_off_c, 1, 55, 100
3, 1152, Note_on_c, 1, 58, 80
3, 1536, Note_on_c, 1, 55, 80
3, 1916, Note_off_c, 1, 55, 100
3, 1920, Note_on_c, 1, 51, 80
3, 2300, Note_off_c, 1, 51, 100
3, 2304, Note_on_c, 1, 46, 80
3, 3068, Note_off_c, 1, 58, 100
3, 3072, Note_on_c, 1, 56, 80
3, 3452, Note_off_c, 1, 46, 100
3, 3452, Note_off_c, 1, 56, 100
3, 3456, Note_on_c, 1, 55, 80
3, 3456, Note_on_c, 1, 51, 80
3, 3836, Note_off_c, 1, 55, 100
3, 3836, Note_off_c, 1, 51, 100
3, 4608, Note_on_c, 1, 63, 80
3, 4608, Note_on_c, 1, 56, 80
3, 4988, Note_off_c, 1, 56, 100
3, 4992, Note_on_c, 1, 55, 80
3, 5372, Note_off_c, 1, 63, 100
3, 5372, Note_off_c, 1, 55, 100
3, 5760, Note_on_c, 1, 58, 80
3, 5760, Note_on_c, 1, 50, 80
3, 6140, Note_off_c, 1, 50, 100
3, 6144, Note_on_c, 1, 51, 80
3, 6524, Note_off_c, 1, 58, 100
3, 6524, Note_off_c, 1, 51, 100
3, 6912, Note_on_c, 1, 58, 80
3, 6912, Note_on_c, 1, 46, 80
3, 7292, Note_off_c, 1, 46, 100
3, 7296, Note_on_c, 1, 50, 80
3, 7676, Note_off_c, 1, 58, 100
3, 7676, Note_off_c, 1, 50, 100
3, 7680, Note_on_c, 1, 58, 80
3, 7680, Note_on_c, 1, 51, 80
3, 8060, Note_off_c, 1, 58, 100
3, 8060, Note_off_c, 1, 51, 100
3, 8064, Note_on_c, 1, 58, 80
3, 8064, Note_on_c, 1, 46, 80
3, 8444, Note_off_c, 1, 58, 100
3, 8444, Note_off_c, 1, 46, 100
3, 9600, Note_on_c, 1, 51, 80
3, 9980, Note_off_c, 1, 51, 100
3, 9984, Note_on_c, 1, 55, 80
3, 10364, Note_off_c, 1, 55, 100
3, 10368, Note_on_c, 1, 58, 80
3, 10752, Note_on_c, 1, 55, 80
3, 11132, Note_off_c, 1, 55, 100
3, 11136, Note_on_c, 1, 51, 80
3, 11516, Note_off_c, 1, 51, 100
3, 11520, Note_on_c, 1, 46, 80
3, 12284, Note_off_c, 1, 58, 100
3, 12284, Note_off_c, 1, 46, 100
3, 12288, Note_on_c, 1, 59, 80
3, 12288, Note_on_c, 1, 47, 80
3, 12668, Note_off_c, 1, 59, 100
3, 12668, Note_off_c, 1, 47, 100
3, 12672, Note_on_c, 1, 60, 80
3, 12672, Note_on_c, 1, 48, 80
3, 13052, Note_off_c, 1, 60, 100
3, 13052, Note_off_c, 1, 48, 100
3, 14592, Note_on_c, 1, 57, 70
3, 14592, Note_on_c, 1, 45, 70
3, 14592, Note_on_c, 1, 53, 70
3, 14972, Note_off_c, 1, 57, 100
3, 14972, Note_off_c, 1, 45, 100
3, 14976, Note_on_c, 1, 58, 70
3, 14976, Note_on_c, 1, 46, 70
3, 15356, Note_off_c, 1, 53, 100
3, 15356, Note_off_c, 1, 58, 100
3, 15356, Note_off_c, 1, 46, 100
3, 16896, Note_on_c, 1, 65, 100
3, 16896, Note_on_c, 1, 60, 100
3, 16896, Note_on_c, 1, 57, 100
3, 17276, Note_off_c, 1, 60, 100
3, 17276, Note_off_c, 1, 57, 100
3, 17280, Note_on_c, 1, 62, 100
3, 17280, Note_on_c, 1, 58, 100
3, 17660, Note_off_c, 1, 65, 100
3, 17660, Note_off_c, 1, 62, 100
3, 17660, Note_off_c, 1, 58, 100
3, 17664, Note_on_c, 1, 65, 111
3, 17664, Note_on_c, 1, 63, 100
3, 17664, Note_on_c, 1, 60, 100
3, 18044, Note_off_c, 1, 63, 100
3, 18044, Note_off_c, 1, 60, 100
3, 18048, Note_on_c, 1, 60, 100
3, 18048, Note_on_c, 1, 57, 100
3, 18428, Note_off_c, 1, 60, 100
3, 18428, Note_off_c, 1, 57, 100
3, 18432, Note_on_c, 1, 62, 100
3, 18432, Note_on_c, 1, 58, 100
3, 18812, Note_off_c, 1, 65, 100
3, 18812, Note_off_c, 1, 62, 100
3, 18812, Note_off_c, 1, 58, 100
3, 18816, Note_on_c, 1, 65, 111
3, 18816, Note_on_c, 1, 63, 100
3, 18816, Note_on_c, 1, 60, 100
3, 19196, Note_off_c, 1, 63, 100
3, 19196, Note_off_c, 1, 60, 100
3, 19200, Note_on_c, 1, 60, 100
3, 19200, Note_on_c, 1, 57, 100
3, 19580, Note_off_c, 1, 60, 100
3, 19580, Note_off_c, 1, 57, 100
3, 19584, Note_on_c, 1, 62, 100
3, 19584, Note_on_c, 1, 58, 100
3, 19964, Note_off_c, 1, 65, 100
3, 19964, Note_off_c, 1, 62, 100
3, 19964, Note_off_c, 1, 58, 100
3, 19968, Note_on_c, 1, 65, 111
3, 19968, Note_on_c, 1, 63, 100
3, 19968, Note_on_c, 1, 60, 100
3, 20348, Note_off_c, 1, 63, 100
3, 20348, Note_off_c, 1, 60, 100
3, 20352, Note_on_c, 1, 60, 100
3, 20352, Note_on_c, 1, 57, 100
3, 20732, Note_off_c, 1, 60, 100
3, 20732, Note_off_c, 1, 57, 100
3, 20736, Note_on_c, 1, 62, 100
3, 20736, Note_on_c, 1, 58, 100
3, 21116, Note_off_c, 1, 65, 100
3, 21116, Note_off_c, 1, 62, 100
3, 21116, Note_off_c, 1, 58, 100
3, 21504, Note_on_c, 1, 52, 100
3, 21884, Note_off_c, 1, 52, 100
3, 21888, Note_on_c, 1, 53, 100
3, 22268, Note_off_c, 1, 53, 100
3, 22656, Note_on_c, 1, 41, 100
3, 23036, Note_off_c, 1, 41, 100
3, 23040, Note_on_c, 1, 46, 100
3, 23420, Note_off_c, 1, 46, 100
3, 23808, Note_on_c, 1, 40, 100
3, 24188, Note_off_c, 1, 40, 100
3, 24192, Note_on_c, 1, 41, 100
3, 24572, Note_off_c, 1, 41, 100
3, 24960, Note_on_c, 1, 41, 100
3, 24960, Note_on_c, 1, 29, 100
3, 25340, Note_off_c, 1, 41, 100
3, 25340, Note_off_c, 1, 29, 100
3, 25344, Note_on_c, 1, 34, 100
3, 25344, Note_on_c, 1, 46, 100
3, 25724, Note_off_c, 1, 34, 100
3, 25724, Note_off_c, 1, 46, 100
3, 26496, Note_on_c, 1, 46, 100
3, 26496, Note_on_c, 1, 34, 100
3, 26876, Note_off_c, 1, 46, 100
3, 26876, Note_off_c, 1, 34, 100
3, 28032, Note_on_c, 1, 51, 80
3, 28412, Note_off_c, 1, 51, 100
3, 28416, Note_on_c, 1, 55, 80
3, 28796, Note_off_c, 1, 55, 100
3, 28800, Note_on_c, 1, 58, 80
3, 29184, Note_on_c, 1, 55, 80
3, 29564, Note_off_c, 1, 55, 100
3, 29568, Note_on_c, 1, 51, 80
3, 29948, Note_off_c, 1, 51, 100
3, 29952, Note_on_c, 1, 46, 80
3, 30716, Note_off_c, 1, 58, 100
3, 30720, Note_on_c, 1, 56, 80
3, 31100, Note_off_c, 1, 46, 100
3, 31100, Note_off_c, 1, 56, 100
3, 31104, Note_on_c, 1, 55, 80
3, 31104, Note_on_c, 1, 51, 80
3, 31484, Note_off_c, 1, 55, 100
3, 31484, Note_off_c, 1, 51, 100
3, 32256, Note_on_c, 1, 63, 80
3, 32256, Note_on_c, 1, 56, 80
3, 32636, Note_off_c, 1, 56, 100
3, 32640, Note_on_c, 1, 55, 80
3, 33020, Note_off_c, 1, 63, 100
3, 33020, Note_off_c, 1, 55, 100
3, 33408, Note_on_c, 1, 58, 80
3, 33408, Note_on_c, 1, 50, 80
3, 33788, Note_off_c, 1, 50, 100
3, 33792, Note_on_c, 1, 51, 80
3, 34172, Note_off_c, 1, 58, 100
3, 34172, Note_off_c, 1, 51, 100
3, 34560, Note_on_c, 1, 58, 80
3, 34560, Note_on_c, 1, 46, 80
3, 34940, Note_off_c, 1, 46, 100
3, 34944, Note_on_c, 1, 50, 80
3, 35324, Note_off_c, 1, 58, 100
3, 35324, Note_off_c, 1, 50, 100
3, 35328, Note_on_c, 1, 58, 80
3, 35328, Note_on_c, 1, 51, 80
3, 35708, Note_off_c, 1, 58, 100
3, 35708, Note_off_c, 1, 51, 100
3, 35712, Note_on_c, 1, 58, 80
3, 35712, Note_on_c, 1, 46, 80
3, 36092, Note_off_c, 1, 58, 100
3, 36092, Note_off_c, 1, 46, 100
3, 37248, Note_on_c, 1, 51, 80
3, 37628, Note_off_c, 1, 51, 100
3, 37632, Note_on_c, 1, 55, 80
3, 38012, Note_off_c, 1, 55, 100
3, 38016, Note_on_c, 1, 58, 80
3, 38400, Note_on_c, 1, 55, 80
3, 38780, Note_off_c, 1, 55, 100
3, 38784, Note_on_c, 1, 51, 80
3, 39164, Note_off_c, 1, 51, 100
3, 39168, Note_on_c, 1, 46, 80
3, 39932, Note_off_c, 1, 58, 100
3, 39932, Note_off_c, 1, 46, 100
3, 39936, Note_on_c, 1, 59, 80
3, 39936, Note_on_c, 1, 47, 80
3, 40316, Note_off_c, 1, 59, 100
3, 40316, Note_off_c, 1, 47, 100
3, 40320, Note_on_c, 1, 60, 80
3, 40320, Note_on_c, 1, 48, 80
3, 40700, Note_off_c, 1, 60, 100
3, 40700, Note_off_c, 1, 48, 100
3, 42240, Note_on_c, 1, 57, 70
3, 42240, Note_on_c, 1, 45, 70
3, 42240, Note_on_c, 1, 53, 70
3, 42620, Note_off_c, 1, 57, 100
3, 42620, Note_off_c, 1, 45, 100
3, 42624, Note_on_c, 1, 58, 70
3, 42624, Note_on_c, 1, 46, 70
3, 43004, Note_off_c, 1, 53, 100
3, 43004, Note_off_c, 1, 58, 100
3, 43004, Note_off_c, 1, 46, 100
3, 44544, Note_on_c, 1, 65, 100
3, 44544, Note_on_c, 1, 60, 100
3, 44544, Note_on_c, 1, 57, 100
3, 44924, Note_off_c, 1, 60, 100
3, 44924, Note_off_c, 1, 57, 100
3, 44928, Note_on_c, 1, 62, 100
3, 44928, Note_on_c, 1, 58, 100
3, 45308, Note_off_c, 1, 65, 100
3, 45308, Note_off_c, 1, 62, 100
3, 45308, Note_off_c, 1, 58, 100
3, 45312, Note_on_c, 1, 65, 111
3, 45312, Note_on_c, 1, 63, 100
3, 45312, Note_on_c, 1, 60, 100
3, 45692, Note_off_c, 1, 63, 100
3, 45692, Note_off_c, 1, 60, 100
3, 45696, Note_on_c, 1, 60, 100
3, 45696, Note_on_c, 1, 57, 100
3, 46076, Note_off_c, 1, 60, 100
3, 46076, Note_off_c, 1, 57, 100
3, 46080, Note_on_c, 1, 62, 100
3, 46080, Note_on_c, 1, 58, 100
3, 46460, Note_off_c, 1, 65, 100
3, 46460, Note_off_c, 1, 62, 100
3, 46460, Note_off_c, 1, 58, 100
3, 46464, Note_on_c, 1, 65, 111
3, 46464, Note_on_c, 1, 63, 100
3, 46464, Note_on_c, 1, 60, 100
3, 46844, Note_off_c, 1, 63, 100
3, 46844, Note_off_c, 1, 60, 100
3, 46848, Note_on_c, 1, 60, 100
3, 46848, Note_on_c, 1, 57, 100
3, 47228, Note_off_c, 1, 60, 100
3, 47228, Note_off_c, 1, 57, 100
3, 47232, Note_on_c, 1, 62, 100
3, 47232, Note_on_c, 1, 58, 100
3, 47612, Note_off_c, 1, 65, 100
3, 47612, Note_off_c, 1, 62, 100
3, 47612, Note_off_c, 1, 58, 100
3, 47616, Note_on_c, 1, 65, 111
3, 47616, Note_on_c, 1, 63, 100
3, 47616, Note_on_c, 1, 60, 100
3, 47996, Note_off_c, 1, 63, 100
3, 47996, Note_off_c, 1, 60, 100
3, 48000, Note_on_c, 1, 60, 100
3, 48000, Note_on_c, 1, 57, 100
3, 48380, Note_off_c, 1, 60, 100
3, 48380, Note_off_c, 1, 57, 100
3, 48384, Note_on_c, 1, 62, 100
3, 48384, Note_on_c, 1, 58, 100
3, 48764, Note_off_c, 1, 65, 100
3, 48764, Note_off_c, 1, 62, 100
3, 48764, Note_off_c, 1, 58, 100
3, 49152, Note_on_c, 1, 52, 100
3, 49532, Note_off_c, 1, 52, 100
3, 49536, Note_on_c, 1, 53, 100
3, 49916, Note_off_c, 1, 53, 100
3, 50304, Note_on_c, 1, 41, 100
3, 50684, Note_off_c, 1, 41, 100
3, 50688, Note_on_c, 1, 46, 100
3, 51068, Note_off_c, 1, 46, 100
3, 51456, Note_on_c, 1, 40, 100
3, 51836, Note_off_c, 1, 40, 100
3, 51840, Note_on_c, 1, 41, 100
3, 52220, Note_off_c, 1, 41, 100
3, 52608, Note_on_c, 1, 41, 100
3, 52608, Note_on_c, 1, 29, 100
3, 52988, Note_off_c, 1, 41, 100
3, 52988, Note_off_c, 1, 29, 100
3, 52992, Note_on_c, 1, 34, 100
3, 52992, Note_on_c, 1, 46, 100
3, 53372, Note_off_c, 1, 34, 100
3, 53372, Note_off_c, 1, 46, 100
3, 54144, Note_on_c, 1, 46, 100
3, 54144, Note_on_c, 1, 34, 100
3, 54524, Note_off_c, 1, 46, 100
3, 54524, Note_off_c, 1, 34, 100
3, 55296, Note_on_c, 1, 58, 80
3, 56060, Note_off_c, 1, 58, 100
3, 56064, Note_on_c, 1, 55, 82
3, 56444, Note_off_c, 1, 55, 100
3, 56448, Note_on_c, 1, 52, 83
3, 56828, Note_off_c, 1, 52, 100
3, 56832, Note_on_c, 1, 55, 84
3, 57212, Note_off_c, 1, 55, 100
3, 57216, Note_on_c, 1, 58, 85
3, 57596, Note_off_c, 1, 58, 100
3, 57600, Note_on_c, 1, 61, 87
3, 58364, Note_off_c, 1, 61, 100
3, 58368, Note_on_c, 1, 58, 89
3, 58748, Note_off_c, 1, 58, 100
3, 58752, Note_on_c, 1, 55, 90
3, 59132, Note_off_c, 1, 55, 100
3, 59136, Note_on_c, 1, 58, 91
3, 59516, Note_off_c, 1, 58, 100
3, 59520, Note_on_c, 1, 61, 92
3, 59900, Note_off_c, 1, 61, 100
3, 59904, Note_on_c, 1, 64, 94
3, 60668, Note_off_c, 1, 64, 100
3, 60672, Note_on_c, 1, 61, 96
3, 61052, Note_off_c, 1, 61, 100
3, 61056, Note_on_c, 1, 58, 97
3, 61436, Note_off_c, 1, 58, 100
3, 61440, Note_on_c, 1, 61, 98
3, 61820, Note_off_c, 1, 61, 100
3, 61824, Note_on_c, 1, 64, 99
3, 62204, Note_off_c, 1, 64, 100
3, 62208, Note_on_c, 1, 67, 100
3, 62208, Note_on_c, 1, 70, 100
3, 64508, Note_off_c, 1, 67, 100
3, 64508, Note_off_c, 1, 70, 100
3, 64512, Note_on_c, 1, 68, 100
3, 64512, Note_on_c, 1, 72, 100
3, 66812, Note_off_c, 1, 68, 100
3, 66812, Note_off_c, 1, 72, 100
3, 66816, Note_on_c, 1, 70, 100
3, 66816, Note_on_c, 1, 73, 100
3, 66816, Note_on_c, 1, 67, 100
3, 69116, Note_off_c, 1, 67, 100
3, 69116, Note_off_c, 1, 70, 100
3, 69116, Note_off_c, 1, 73, 100
3, 69120, Note_on_c, 1, 68, 100
3, 69120, Note_on_c, 1, 72, 100
3, 71420, Note_off_c, 1, 68, 100
3, 71420, Note_off_c, 1, 72, 100
3, 71424, Note_on_c, 1, 65, 100
3, 71424, Note_on_c, 1, 68, 100
3, 73724, Note_off_c, 1, 65, 100
3, 73724, Note_off_c, 1, 68, 100
3, 73728, Note_on_c, 1, 62, 78
3, 73728, Note_on_c, 1, 65, 78
3, 76028, Note_off_c, 1, 62, 100
3, 76028, Note_off_c, 1, 65, 100
3, 76416, Note_on_c, 1, 51, 80
3, 76796, Note_off_c, 1, 51, 100
3, 76800, Note_on_c, 1, 55, 80
3, 77180, Note_off_c, 1, 55, 100
3, 77184, Note_on_c, 1, 58, 80
3, 77568, Note_on_c, 1, 55, 80
3, 77948, Note_off_c, 1, 55, 100
3, 77952, Note_on_c, 1, 51, 80
3, 78332, Note_off_c, 1, 51, 100
3, 78336, Note_on_c, 1, 46, 80
3, 79104, Note_on_c, 1, 44, 80
3, 79484, Note_off_c, 1, 46, 100
3, 79484, Note_off_c, 1, 44, 100
3, 79488, Note_on_c, 1, 43, 80
3, 79868, Note_off_c, 1, 58, 100
3, 79868, Note_off_c, 1, 43, 100
3, 80640, Note_on_c, 1, 63, 80
3, 80640, Note_on_c, 1, 56, 80
3, 81020, Note_off_c, 1, 56, 100
3, 81024, Note_on_c, 1, 55, 80
3, 81404, Note_off_c, 1, 63, 100
3, 81404, Note_off_c, 1, 55, 100
3, 81792, Note_on_c, 1, 58, 80
3, 81792, Note_on_c, 1, 50, 80
3, 82172, Note_off_c, 1, 50, 100
3, 82176, Note_on_c, 1, 51, 80
3, 82556, Note_off_c, 1, 58, 100
3, 82556, Note_off_c, 1, 51, 100
3, 82944, Note_on_c, 1, 58, 80
3, 82944, Note_on_c, 1, 46, 80
3, 83324, Note_off_c, 1, 46, 100
3, 83328, Note_on_c, 1, 50, 80
3, 83708, Note_off_c, 1, 58, 100
3, 83708, Note_off_c, 1, 50, 100
3, 83712, Note_on_c, 1, 58, 80
3, 83712, Note_on_c, 1, 51, 80
3, 84092, Note_off_c, 1, 58, 100
3, 84092, Note_off_c, 1, 51, 100
3, 84096, Note_on_c, 1, 58, 80
3, 84096, Note_on_c, 1, 46, 80
3, 84476, Note_off_c, 1, 58, 100
3, 84476, Note_off_c, 1, 46, 100
3, 85632, Note_on_c, 1, 51, 80
3, 86012, Note_off_c, 1, 51, 100
3, 86016, Note_on_c, 1, 54, 80
3, 86396, Note_off_c, 1, 54, 100
3, 86400, Note_on_c, 1, 58, 80
3, 86784, Note_on_c, 1, 54, 80
3, 87164, Note_off_c, 1, 54, 100
3, 87168, Note_on_c, 1, 51, 80
3, 87548, Note_off_c, 1, 51, 100
3, 87552, Note_on_c, 1, 46, 80
3, 88700, Note_off_c, 1, 58, 100
3, 88700, Note_off_c, 1, 46, 100
3, 88704, Note_on_c, 1, 59, 80
3, 88704, Note_on_c, 1, 47, 80
3, 89084, Note_off_c, 1, 59, 100
3, 89084, Note_off_c, 1, 47, 100
3, 90624, Note_on_c, 1, 54, 100
3, 90624, Note_on_c, 1, 58, 100
3, 90624, Note_on_c, 1, 46, 100
3, 91004, Note_off_c, 1, 58, 100
3, 91004, Note_off_c, 1, 46, 100
3, 91008, Note_on_c, 1, 59, 100
3, 91008, Note_on_c, 1, 47, 100
3, 91388, Note_off_c, 1, 54, 100
3, 91388, Note_off_c, 1, 59, 100
3, 91388, Note_off_c, 1, 47, 100
3, 91776, Note_on_c, 1, 54, 100
3, 91776, Note_on_c, 1, 58, 100
3, 91776, Note_on_c, 1, 46, 100
3, 92156, Note_off_c, 1, 58, 100
3, 92156, Note_off_c, 1, 46, 100
3, 92160, Note_on_c, 1, 59, 100
3, 92160, Note_on_c, 1, 47, 100
3, 92540, Note_off_c, 1, 54, 100
3, 92540, Note_off_c, 1, 59, 100
3, 92540, Note_off_c, 1, 47, 100
3, 92928, Note_on_c, 1, 54, 100
3, 92928, Note_on_c, 1, 58, 100
3, 92928, Note_on_c, 1, 46, 100
3, 93308, Note_off_c, 1, 58, 100
3, 93308, Note_off_c, 1, 46, 100
3, 93312, Note_off_c, 1, 54, 100
3, 93312, Note_on_c, 1, 59, 100
3, 93312, Note_on_c, 1, 47, 100
3, 94076, Note_off_c, 1, 47, 100
3, 94080, Note_on_c, 1, 51, 100
3, 94460, Note_off_c, 1, 51, 100
3, 94464, Note_on_c, 1, 52, 100
3, 95228, Note_off_c, 1, 59, 100
3, 95232, Note_on_c, 1, 61, 100
3, 95612, Note_off_c, 1, 52, 100
3, 95616, Note_on_c, 1, 55, 100
3, 96380, Note_off_c, 1, 61, 100
3, 96384, Note_on_c, 1, 63, 100
3, 96764, Note_off_c, 1, 63, 100
3, 96768, Note_on_c, 1, 64, 100
3, 97148, Note_off_c, 1, 64, 100
3, 97152, Note_on_c, 1, 66, 100
3, 97532, Note_off_c, 1, 66, 100
3, 97536, Note_on_c, 1, 64, 100
3, 97916, Note_off_c, 1, 55, 100
3, 97916, Note_off_c, 1, 64, 100
3, 97920, Note_on_c, 1, 63, 100
3, 97920, Note_on_c, 1, 59, 100
3, 98300, Note_off_c, 1, 63, 100
3, 98688, Note_on_c, 1, 51, 100
3, 99068, Note_off_c, 1, 51, 100
3, 99072, Note_on_c, 1, 52, 100
3, 99836, Note_off_c, 1, 59, 100
3, 99840, Note_on_c, 1, 61, 100
3, 100220, Note_off_c, 1, 52, 100
3, 100224, Note_on_c, 1, 54, 100
3, 100988, Note_off_c, 1, 61, 100
3, 100992, Note_on_c, 1, 63, 100
3, 101372, Note_off_c, 1, 54, 100
3, 101376, Note_on_c, 1, 55, 100
3, 102140, Note_off_c, 1, 63, 100
3, 102144, Note_on_c, 1, 63, 98
3, 102524, Note_off_c, 1, 55, 100
3, 102528, Note_on_c, 1, 56, 95
3, 103292, Note_off_c, 1, 63, 100
3, 103296, Note_on_c, 1, 63, 89
3, 103676, Note_off_c, 1, 56, 100
3, 103680, Note_on_c, 1, 58, 86
3, 104444, Note_off_c, 1, 63, 100
3, 104448, Note_on_c, 1, 63, 80
3, 104828, Note_off_c, 1, 58, 100
3, 104832, Note_on_c, 1, 59, 77
3, 105596, Note_off_c, 1, 63, 100
3, 105600, Note_on_c, 1, 63, 71
3, 105980, Note_off_c, 1, 59, 100
3, 105980, Note_off_c, 1, 63, 100
3, 107136, Note_on_c, 1, 58, 100
3, 107516, Note_off_c, 1, 58, 100
3, 109056, Note_on_c, 1, 65, 102
3, 109244, Note_off_c, 1, 65, 100
3, 109248, Note_on_c, 1, 62, 102
3, 109436, Note_off_c, 1, 62, 100
3, 109440, Note_on_c, 1, 63, 103
3, 109820, Note_off_c, 1, 63, 100
3, 109824, Note_on_c, 1, 58, 103
3, 110204, Note_off_c, 1, 58, 100
3, 110208, Note_on_c, 1, 68, 104
3, 110396, Note_off_c, 1, 68, 100
3, 110400, Note_on_c, 1, 65, 104
3, 110588, Note_off_c, 1, 65, 100
3, 110592, Note_on_c, 1, 67, 105
3, 110972, Note_off_c, 1, 67, 100
3, 110976, Note_on_c, 1, 58, 105
3, 111356, Note_off_c, 1, 58, 100
3, 111360, Note_on_c, 1, 65, 106
3, 111548, Note_off_c, 1, 65, 100
3, 111552, Note_on_c, 1, 62, 106
3, 111740, Note_off_c, 1, 62, 100
3, 111744, Note_on_c, 1, 63, 106
3, 112124, Note_off_c, 1, 63, 100
3, 112128, Note_on_c, 1, 58, 107
3, 112508, Note_off_c, 1, 58, 100
3, 112512, Note_on_c, 1, 68, 108
3, 112700, Note_off_c, 1, 68, 100
3, 112704, Note_on_c, 1, 65, 108
3, 112892, Note_off_c, 1, 65, 100
3, 112896, Note_on_c, 1, 67, 108
3, 113276, Note_off_c, 1, 67, 100
3, 113280, Note_on_c, 1, 63, 109
3, 113660, Note_off_c, 1, 63, 100
3, 113664, Note_on_c, 1, 68, 110
3, 113852, Note_off_c, 1, 68, 100
3, 113856, Note_on_c, 1, 65, 110
3, 114044, Note_off_c, 1, 65, 100
3, 114048, Note_on_c, 1, 67, 110
3, 114428, Note_off_c, 1, 67, 100
3, 114432, Note_on_c, 1, 63, 110
3, 114812, Note_off_c, 1, 63, 100
3, 114816, Note_on_c, 1, 72, 110
3, 115004, Note_off_c, 1, 72, 100
3, 115008, Note_on_c, 1, 69, 110
3, 115196, Note_off_c, 1, 69, 100
3, 115200, Note_on_c, 1, 70, 110
3, 115580, Note_off_c, 1, 70, 100
3, 115584, Note_on_c, 1, 63, 110
3, 115964, Note_off_c, 1, 63, 100
3, 115968, Note_on_c, 1, 68, 110
3, 116156, Note_off_c, 1, 68, 100
3, 116160, Note_on_c, 1, 65, 110
3, 116348, Note_off_c, 1, 65, 100
3, 116352, Note_on_c, 1, 67, 110
3, 116732, Note_off_c, 1, 67, 100
3, 116736, Note_on_c, 1, 63, 110
3, 117116, Note_off_c, 1, 63, 100
3, 117120, Note_on_c, 1, 72, 110
3, 117308, Note_off_c, 1, 72, 100
3, 117312, Note_on_c, 1, 69, 110
3, 117500, Note_off_c, 1, 69, 100
3, 117504, Note_on_c, 1, 70, 110
3, 117884, Note_off_c, 1, 70, 100
3, 117888, Note_on_c, 1, 63, 110
3, 118268, Note_off_c, 1, 63, 100
3, 118272, Note_on_c, 1, 67, 120
3, 118272, Note_on_c, 1, 55, 120
3, 118272, Note_on_c, 1, 63, 120
3, 118652, Note_off_c, 1, 67, 100
3, 118652, Note_off_c, 1, 55, 100
3, 118656, Note_on_c, 1, 68, 120
3, 118656, Note_on_c, 1, 56, 120
3, 119036, Note_off_c, 1, 63, 100
3, 119036, Note_off_c, 1, 68, 100
3, 119036, Note_off_c, 1, 56, 100
3, 119424, Note_on_c, 1, 56, 120
3, 119804, Note_off_c, 1, 56, 100
3, 119808, Note_on_c, 1, 58, 120
3, 120188, Note_off_c, 1, 58, 100
3, 120576, Note_on_c, 1, 65, 120
3, 120576, Note_on_c, 1, 68, 120
3, 120576, Note_on_c, 1, 59, 120
3, 120956, Note_off_c, 1, 65, 100
3, 120956, Note_off_c, 1, 68, 100
3, 120956, Note_off_c, 1, 59, 100
3, 120960, Note_on_c, 1, 60, 120
3, 120960, Note_on_c, 1, 63, 120
3, 120960, Note_on_c, 1, 67, 120
3, 121340, Note_off_c, 1, 60, 100
3, 121340, Note_off_c, 1, 63, 100
3, 121340, Note_off_c, 1, 67, 100
3, 121728, Note_on_c, 1, 44, 120
3, 122108, Note_off_c, 1, 44, 100
3, 122112, Note_on_c, 1, 46, 120
3, 122492, Note_off_c, 1, 46, 100
3, 122880, Note_on_c, 1, 53, 120
3, 122880, Note_on_c, 1, 56, 120
3, 122880, Note_on_c, 1, 47, 120
3, 123260, Note_off_c, 1, 53, 100
3, 123260, Note_off_c, 1, 56, 100
3, 123260, Note_off_c, 1, 47, 100
3, 123264, Note_on_c, 1, 48, 120
3, 123264, Note_on_c, 1, 51, 120
3, 123264, Note_on_c, 1, 55, 120
3, 123644, Note_off_c, 1, 48, 100
3, 123644, Note_off_c, 1, 51, 100
3, 123644, Note_off_c, 1, 55, 100
3, 124032, Note_on_c, 1, 32, 120
3, 124412, Note_off_c, 1, 32, 100
3, 124416, Note_on_c, 1, 34, 120
3, 124796, Note_off_c, 1, 34, 100
3, 124800, Note_on_c, 1, 46, 120
3, 125180, Note_off_c, 1, 46, 100
3, 125184, Note_on_c, 1, 46, 120
3, 125564, Note_off_c, 1, 46, 100
3, 125568, Note_on_c, 1, 39, 120
3, 125952, Note_on_c, 1, 51, 120
3, 126332, Note_off_c, 1, 51, 100
3, 126336, Note_on_c, 1, 51, 120
3, 126716, Note_off_c, 1, 51, 100
3, 126720, Note_on_c, 1, 49, 120
3, 127100, Note_off_c, 1, 49, 100
3, 127104, Note_on_c, 1, 51, 120
3, 127484, Note_off_c, 1, 51, 100
3, 127488, Note_on_c, 1, 46, 120
3, 127868, Note_off_c, 1, 46, 100
3, 127872, Note_on_c, 1, 48, 120
3, 128252, Note_off_c, 1, 48, 100
3, 128256, Note_on_c, 1, 51, 120
3, 128636, Note_off_c, 1, 51, 100
3, 128640, Note_on_c, 1, 44, 120
3, 129020, Note_off_c, 1, 44, 100
3, 129024, Note_on_c, 1, 50, 120
3, 129404, Note_off_c, 1, 50, 100
3, 129408, Note_on_c, 1, 53, 120
3, 129788, Note_off_c, 1, 53, 100
3, 129792, Note_on_c, 1, 46, 120
3, 130172, Note_off_c, 1, 39, 100
3, 130172, Note_off_c, 1, 46, 100
3, 130176, Note_on_c, 1, 51, 120
3, 131328, Note_on_c, 1, 55, 120
3, 131328, Note_on_c, 1, 58, 120
3, 132476, Note_off_c, 1, 55, 100
3, 132476, Note_off_c, 1, 58, 100
3, 132480, Note_on_c, 1, 56, 120
3, 132480, Note_on_c, 1, 60, 120
3, 133628, Note_off_c, 1, 51, 100
3, 133628, Note_off_c, 1, 56, 100
3, 133628, Note_off_c, 1, 60, 100
3, 133632, Note_on_c, 1, 51, 120
3, 133632, Note_on_c, 1, 53, 120
3, 133632, Note_on_c, 1, 56, 120
3, 133632, Note_on_c, 1, 58, 120
3, 133632, Note_on_c, 1, 62, 120
3, 134780, Note_off_c, 1, 51, 100
3, 134780, Note_off_c, 1, 53, 100
3, 134780, Note_off_c, 1, 56, 100
3, 134780, Note_off_c, 1, 58, 100
3, 134780, Note_off_c, 1, 62, 100
3, 134784, Note_on_c, 1, 63, 120
3, 134784, Note_on_c, 1, 58, 120
3, 134784, Note_on_c, 1, 55, 120
3, 134784, Note_on_c, 1, 51, 120
3, 135164, Note_off_c, 1, 63, 100
3, 135164, Note_off_c, 1, 58, 100
3, 135164, Note_off_c, 1, 55, 100
3, 135164, Note_off_c, 1, 51, 100
3, 135936, Note_on_c, 1, 51, 120
3, 135936, Note_on_c, 1, 39, 120
3, 136316, Note_off_c, 1, 51, 100
3, 136316, Note_off_c, 1, 39, 100
3, 137088, Note_on_c, 1, 58, 80
3, 137852, Note_off_c, 1, 58, 100
3, 137856, Note_on_c, 1, 55, 82
3, 138236, Note_off_c, 1, 55, 100
3, 138240, Note_on_c, 1, 52, 83
3, 138620, Note_off_c, 1, 52, 100
3, 138624, Note_on_c, 1, 55, 84
3, 139004, Note_off_c, 1, 55, 100
3, 139008, Note_on_c, 1, 58, 85
3, 139388, Note_off_c, 1, 58, 100
3, 139392, Note_on_c, 1, 61, 87
3, 140156, Note_off_c, 1, 61, 100
3, 140160, Note_on_c, 1, 58, 89
3, 140540, Note_off_c, 1, 58, 100
3, 140544, Note_on_c, 1, 55, 90
3, 140924, Note_off_c, 1, 55, 100
3, 140928, Note_on_c, 1, 58, 91
3, 141308, Note_off_c, 1, 58, 100
3, 141312, Note_on_c, 1, 61, 92
3, 141692, Note_off_c, 1, 61, 100
3, 141696, Note_on_c, 1, 64, 94
3, 142460, Note_off_c, 1, 64, 100
3, 142464, Note_on_c, 1, 61, 96
3, 142844, Note_off_c, 1, 61, 100
3, 142848, Note_on_c, 1, 58, 97
3, 143228, Note_off_c, 1, 58, 100
3, 143232, Note_on_c, 1, 61, 98
3, 143612, Note_off_c, 1, 61, 100
3, 143616, Note_on_c, 1, 64, 99
3, 143996, Note_off_c, 1, 64, 100
3, 144000, Note_on_c, 1, 67, 100
3, 144000, Note_on_c, 1, 70, 100
3, 146300, Note_off_c, 1, 67, 100
3, 146300, Note_off_c, 1, 70, 100
3, 146304, Note_on_c, 1, 68, 100
3, 146304, Note_on_c, 1, 72, 100
3, 148604, Note_off_c, 1, 68, 100
3, 148604, Note_off_c, 1, 72, 100
3, 148608, Note_on_c, 1, 70, 100
3, 148608, Note_on_c, 1, 73, 100
3, 148608, Note_on_c, 1, 67, 100
3, 150908, Note_off_c, 1, 67, 100
3, 150908, Note_off_c, 1, 70, 100
3, 150908, Note_off_c, 1, 73, 100
3, 150912, Note_on_c, 1, 68, 100
3, 150912, Note_on_c, 1, 72, 100
3, 153212, Note_off_c, 1, 68, 100
3, 153212, Note_off_c, 1, 72, 100
3, 153216, Note_on_c, 1, 65, 100
3, 153216, Note_on_c, 1, 68, 100
3, 155516, Note_off_c, 1, 65, 100
3, 155516, Note_off_c, 1, 68, 100
3, 155520, Note_on_c, 1, 62, 78
3, 155520, Note_on_c, 1, 65, 78
3, 157820, Note_off_c, 1, 62, 100
3, 157820, Note_off_c, 1, 65, 100
3, 158208, Note_on_c, 1, 51, 80
3, 158588, Note_off_c, 1, 51, 100
3, 158592, Note_on_c, 1, 55, 80
3, 158972, Note_off_c, 1, 55, 100
3, 158976, Note_on_c, 1, 58, 80
3, 159360, Note_on_c, 1, 55, 80
3, 159740, Note_off_c, 1, 55, 100
3, 159744, Note_on_c, 1, 51, 80
3, 160124, Note_off_c, 1, 51, 100
3, 160128, Note_on_c, 1, 46, 80
3, 160896, Note_on_c, 1, 44, 80
3, 161276, Note_off_c, 1, 46, 100
3, 161276, Note_off_c, 1, 44, 100
3, 161280, Note_on_c, 1, 43, 80
3, 161660, Note_off_c, 1, 58, 100
3, 161660, Note_off_c, 1, 43, 100
3, 162432, Note_on_c, 1, 63, 80
3, 162432, Note_on_c, 1, 56, 80
3, 162812, Note_off_c, 1, 56, 100
3, 162816, Note_on_c, 1, 55, 80
3, 163196, Note_off_c, 1, 63, 100
3, 163196, Note_off_c, 1, 55, 100
3, 163584, Note_on_c, 1, 58, 80
3, 163584, Note_on_c, 1, 50, 80
3, 163964, Note_off_c, 1, 50, 100
3, 163968, Note_on_c, 1, 51, 80
3, 164348, Note_off_c, 1, 58, 100
3, 164348, Note_off_c, 1, 51, 100
3, 164736, Note_on_c, 1, 58, 80
3, 164736, Note_on_c, 1, 46, 80
3, 165116, Note_off_c, 1, 46, 100
3, 165120, Note_on_c, 1, 50, 80
3, 165500, Note_off_c, 1, 58, 100
3, 165500, Note_off_c, 1, 50, 100
3, 165504, Note_on_c, 1, 58, 80
3, 165504, Note_on_c, 1, 51, 80
3, 165884, Note_off_c, 1, 58, 100
3, 165884, Note_off_c, 1, 51, 100
3, 165888, Note_on_c, 1, 58, 80
3, 165888, Note_on_c, 1, 46, 80
3, 166268, Note_off_c, 1, 58, 100
3, 166268, Note_off_c, 1, 46, 100
3, 167424, Note_on_c, 1, 51, 80
3, 167804, Note_off_c, 1, 51, 100
3, 167808, Note_on_c, 1, 54, 80
3, 168188, Note_off_c, 1, 54, 100
3, 168192, Note_on_c, 1, 58, 80
3, 168576, Note_on_c, 1, 54, 80
3, 168956, Note_off_c, 1, 54, 100
3, 168960, Note_on_c, 1, 51, 80
3, 169340, Note_off_c, 1, 51, 100
3, 169344, Note_on_c, 1, 46, 80
3, 170492, Note_off_c, 1, 58, 100
3, 170492, Note_off_c, 1, 46, 100
3, 170496, Note_on_c, 1, 59, 80
3, 170496, Note_on_c, 1, 47, 80
3, 170876, Note_off_c, 1, 59, 100
3, 170876, Note_off_c, 1, 47, 100
3, 172416, Note_on_c, 1, 54, 70
3, 172416, Note_on_c, 1, 58, 70
3, 172416, Note_on_c, 1, 46, 70
3, 172796, Note_off_c, 1, 58, 100
3, 172796, Note_off_c, 1, 46, 100
3, 172800, Note_on_c, 1, 59, 72
3, 172800, Note_on_c, 1, 47, 72
3, 173180, Note_off_c, 1, 54, 100
3, 173180, Note_off_c, 1, 59, 100
3, 173180, Note_off_c, 1, 47, 100
3, 173568, Note_on_c, 1, 54, 76
3, 173568, Note_on_c, 1, 58, 76
3, 173568, Note_on_c, 1, 46, 76
3, 173948, Note_off_c, 1, 58, 100
3, 173948, Note_off_c, 1, 46, 100
3, 173952, Note_on_c, 1, 59, 79
3, 173952, Note_on_c, 1, 47, 79
3, 174332, Note_off_c, 1, 54, 100
3, 174332, Note_off_c, 1, 59, 100
3, 174332, Note_off_c, 1, 47, 100
3, 174720, Note_on_c, 1, 54, 83
3, 174720, Note_on_c, 1, 58, 83
3, 174720, Note_on_c, 1, 46, 83
3, 175100, Note_off_c, 1, 58, 100
3, 175100, Note_off_c, 1, 46, 100
3, 175104, Note_off_c, 1, 54, 100
3, 175104, Note_on_c, 1, 59, 86
3, 175104, Note_on_c, 1, 47, 86
3, 175868, Note_off_c, 1, 47, 100
3, 175872, Note_on_c, 1, 51, 90
3, 176252, Note_off_c, 1, 51, 100
3, 176256, Note_on_c, 1, 52, 93
3, 177020, Note_off_c, 1, 59, 100
3, 177024, Note_on_c, 1, 61, 97
3, 177404, Note_off_c, 1, 52, 100
3, 177408, Note_on_c, 1, 55, 99
3, 178172, Note_off_c, 1, 61, 100
3, 178176, Note_on_c, 1, 63, 100
3, 178556, Note_off_c, 1, 63, 100
3, 178560, Note_on_c, 1, 64, 100
3, 178940, Note_off_c, 1, 64, 100
3, 178944, Note_on_c, 1, 66, 100
3, 179324, Note_off_c, 1, 66, 100
3, 179328, Note_on_c, 1, 64, 100
3, 179708, Note_off_c, 1, 55, 100
3, 179708, Note_off_c, 1, 64, 100
3, 179712, Note_on_c, 1, 63, 100
3, 179712, Note_on_c, 1, 59, 100
3, 180092, Note_off_c, 1, 63, 100
3, 180480, Note_on_c, 1, 51, 100
3, 180860, Note_off_c, 1, 51, 100
3, 180864, Note_on_c, 1, 52, 100
3, 181628, Note_off_c, 1, 59, 100
3, 181632, Note_on_c, 1, 61, 100
3, 182012, Note_off_c, 1, 52, 100
3, 182016, Note_on_c, 1, 54, 100
3, 182780, Note_off_c, 1, 61, 100
3, 182784, Note_on_c, 1, 63, 100
3, 183164, Note_off_c, 1, 54, 100
3, 183168, Note_on_c, 1, 55, 100
3, 183932, Note_off_c, 1, 63, 100
3, 183936, Note_on_c, 1, 63, 95
3, 184316, Note_off_c, 1, 55, 100
3, 184320, Note_on_c, 1, 56, 92
3, 185084, Note_off_c, 1, 63, 100
3, 185088, Note_on_c, 1, 63, 87
3, 185468, Note_off_c, 1, 56, 100
3, 185472, Note_on_c, 1, 58, 84
3, 186236, Note_off_c, 1, 63, 100
3, 186240, Note_on_c, 1, 63, 79
3, 186620, Note_off_c, 1, 58, 100
3, 186624, Note_on_c, 1, 59, 76
3, 187388, Note_off_c, 1, 63, 100
3, 187392, Note_on_c, 1, 63, 71
3, 187772, Note_off_c, 1, 59, 100
3, 187772, Note_off_c, 1, 63, 100
3, 188928, Note_on_c, 1, 58, 100
3, 189308, Note_off_c, 1, 58, 100
3, 190848, Note_on_c, 1, 65, 102
3, 191036, Note_off_c, 1, 65, 100
3, 191040, Note_on_c, 1, 62, 102
3, 191228, Note_off_c, 1, 62, 100
3, 191232, Note_on_c, 1, 63, 103
3, 191612, Note_off_c, 1, 63, 100
3, 191616, Note_on_c, 1, 58, 103
3, 191996, Note_off_c, 1, 58, 100
3, 192000, Note_on_c, 1, 68, 104
3, 192188, Note_off_c, 1, 68, 100
3, 192192, Note_on_c, 1, 65, 104
3, 192380, Note_off_c, 1, 65, 100
3, 192384, Note_on_c, 1, 67, 105
3, 192764, Note_off_c, 1, 67, 100
3, 192768, Note_on_c, 1, 58, 105
3, 193148, Note_off_c, 1, 58, 100
3, 193152, Note_on_c, 1, 65, 106
3, 193340, Note_off_c, 1, 65, 100
3, 193344, Note_on_c, 1, 62, 106
3, 193532, Note_off_c, 1, 62, 100
3, 193536, Note_on_c, 1, 63, 106
3, 193916, Note_off_c, 1, 63, 100
3, 193920, Note_on_c, 1, 58, 107
3, 194300, Note_off_c, 1, 58, 100
3, 194304, Note_on_c, 1, 68, 108
3, 194492, Note_off_c, 1, 68, 100
3, 194496, Note_on_c, 1, 65, 108
3, 194684, Note_off_c, 1, 65, 100
3, 194688, Note_on_c, 1, 67, 108
3, 195068, Note_off_c, 1, 67, 100
3, 195072, Note_on_c, 1, 63, 109
3, 195452, Note_off_c, 1, 63, 100
3, 195456, Note_on_c, 1, 68, 110
3, 195644, Note_off_c, 1, 68, 100
3, 195648, Note_on_c, 1, 65, 110
3, 195836, Note_off_c, 1, 65, 100
3, 195840, Note_on_c, 1, 67, 110
3, 196220, Note_off_c, 1, 67, 100
3, 196224, Note_on_c, 1, 63, 110
3, 196604, Note_off_c, 1, 63, 100
3, 196608, Note_on_c, 1, 72, 110
3, 196796, Note_off_c, 1, 72, 100
3, 196800, Note_on_c, 1, 69, 110
3, 196988, Note_off_c, 1, 69, 100
3, 196992, Note_on_c, 1, 70, 110
3, 197372, Note_off_c, 1, 70, 100
3, 197376, Note_on_c, 1, 63, 110
3, 197756, Note_off_c, 1, 63, 100
3, 197760, Note_on_c, 1, 68, 110
3, 197948, Note_off_c, 1, 68, 100
3, 197952, Note_on_c, 1, 65, 110
3, 198140, Note_off_c, 1, 65, 100
3, 198144, Note_on_c, 1, 67, 110
3, 198524, Note_off_c, 1, 67, 100
3, 198528, Note_on_c, 1, 63, 110
3, 198908, Note_off_c, 1, 63, 100
3, 198912, Note_on_c, 1, 72, 110
3, 199100, Note_off_c, 1, 72, 100
3, 199104, Note_on_c, 1, 69, 110
3, 199292, Note_off_c, 1, 69, 100
3, 199296, Note_on_c, 1, 70, 110
3, 199676, Note_off_c, 1, 70, 100
3, 199680, Note_on_c, 1, 63, 110
3, 200060, Note_off_c, 1, 63, 100
3, 200064, Note_on_c, 1, 67, 120
3, 200064, Note_on_c, 1, 55, 120
3, 200064, Note_on_c, 1, 63, 120
3, 200444, Note_off_c, 1, 67, 100
3, 200444, Note_off_c, 1, 55, 100
3, 200448, Note_on_c, 1, 68, 120
3, 200448, Note_on_c, 1, 56, 120
3, 200828, Note_off_c, 1, 63, 100
3, 200828, Note_off_c, 1, 68, 100
3, 200828, Note_off_c, 1, 56, 100
3, 201216, Note_on_c, 1, 56, 120
3, 201596, Note_off_c, 1, 56, 100
3, 201600, Note_on_c, 1, 58, 120
3, 201980, Note_off_c, 1, 58, 100
3, 202368, Note_on_c, 1, 65, 120
3, 202368, Note_on_c, 1, 68, 120
3, 202368, Note_on_c, 1, 59, 120
3, 202748, Note_off_c, 1, 65, 100
3, 202748, Note_off_c, 1, 68, 100
3, 202748, Note_off_c, 1, 59, 100
3, 202752, Note_on_c, 1, 60, 120
3, 202752, Note_on_c, 1, 63, 120
3, 202752, Note_on_c, 1, 67, 120
3, 203132, Note_off_c, 1, 60, 100
3, 203132, Note_off_c, 1, 63, 100
3, 203132, Note_off_c, 1, 67, 100
3, 203520, Note_on_c, 1, 44, 120
3, 203900, Note_off_c, 1, 44, 100
3, 203904, Note_on_c, 1, 46, 120
3, 204284, Note_off_c, 1, 46, 100
3, 204672, Note_on_c, 1, 53, 120
3, 204672, Note_on_c, 1, 56, 120
3, 204672, Note_on_c, 1, 47, 120
3, 205052, Note_off_c, 1, 53, 100
3, 205052, Note_off_c, 1, 56, 100
3, 205052, Note_off_c, 1, 47, 100
3, 205056, Note_on_c, 1, 48, 120
3, 205056, Note_on_c, 1, 51, 120
3, 205056, Note_on_c, 1, 55, 120
3, 205436, Note_off_c, 1, 48, 100
3, 205436, Note_off_c, 1, 51, 100
3, 205436, Note_off_c, 1, 55, 100
3, 205824, Note_on_c, 1, 32, 120
3, 206204, Note_off_c, 1, 32, 100
3, 206208, Note_on_c, 1, 34, 120
3, 206588, Note_off_c, 1, 34, 100
3, 206592, Note_on_c, 1, 46, 120
3, 206972, Note_off_c, 1, 46, 100
3, 206976, Note_on_c, 1, 46, 120
3, 207356, Note_off_c, 1, 46, 100
3, 207360, Note_on_c, 1, 39, 120
3, 207744, Note_on_c, 1, 51, 120
3, 208124, Note_off_c, 1, 51, 100
3, 208128, Note_on_c, 1, 51, 120
3, 208508, Note_off_c, 1, 51, 100
3, 208512, Note_on_c, 1, 49, 120
3, 208892, Note_off_c, 1, 49, 100
3, 208896, Note_on_c, 1, 51, 120
3, 209276, Note_off_c, 1, 51, 100
3, 209280, Note_on_c, 1, 46, 120
3, 209660, Note_off_c, 1, 46, 100
3, 209664, Note_on_c, 1, 48, 120
3, 210044, Note_off_c, 1, 48, 100
3, 210048, Note_on_c, 1, 51, 120
3, 210428, Note_off_c, 1, 51, 100
3, 210432, Note_on_c, 1, 44, 120
3, 210812, Note_off_c, 1, 44, 100
3, 210816, Note_on_c, 1, 50, 120
3, 211196, Note_off_c, 1, 50, 100
3, 211200, Note_on_c, 1, 53, 120
3, 211580, Note_off_c, 1, 53, 100
3, 211584, Note_on_c, 1, 46, 120
3, 211964, Note_off_c, 1, 39, 100
3, 211964, Note_off_c, 1, 46, 100
3, 211968, Note_on_c, 1, 51, 120
3, 213120, Note_on_c, 1, 55, 120
3, 213120, Note_on_c, 1, 58, 120
3, 214268, Note_off_c, 1, 55, 100
3, 214268, Note_off_c, 1, 58, 100
3, 214272, Note_on_c, 1, 56, 120
3, 214272, Note_on_c, 1, 60, 120
3, 215420, Note_off_c, 1, 51, 100
3, 215420, Note_off_c, 1, 56, 100
3, 215420, Note_off_c, 1, 60, 100
3, 215424, Note_on_c, 1, 51, 120
3, 215424, Note_on_c, 1, 53, 120
3, 215424, Note_on_c, 1, 56, 120
3, 215424, Note_on_c, 1, 58, 120
3, 215424, Note_on_c, 1, 62, 120
3, 216572, Note_off_c, 1, 51, 100
3, 216572, Note_off_c, 1, 53, 100
3, 216572, Note_off_c, 1, 56, 100
3, 216572, Note_off_c, 1, 58, 100
3, 216572, Note_off_c, 1, 62, 100
3, 216576, Note_on_c, 1, 63, 120
3, 216576, Note_on_c, 1, 58, 120
3, 216576, Note_on_c, 1, 55, 120
3, 216576, Note_on_c, 1, 51, 120
3, 216956, Note_off_c, 1, 63, 100
3, 216956, Note_off_c, 1, 58, 100
3, 216956, Note_off_c, 1, 55, 100
3, 216956, Note_off_c, 1, 51, 100
3, 217728, Note_on_c, 1, 51, 120
3, 217728, Note_on_c, 1, 39, 120
3, 218108, Note_off_c, 1, 51, 100
3, 218108, Note_off_c, 1, 39, 100
3, 218880, Key_signature, -6, "major"
3, 218880, Note_on_c, 1, 39, 70
3, 219008, Note_on_c, 1, 46, 70
3, 219132, Note_off_c, 1, 39, 100
3, 219136, Note_on_c, 1, 51, 70
3, 219260, Note_off_c, 1, 46, 100
3, 219264, Note_on_c, 1, 39, 70
3, 219388, Note_off_c, 1, 51, 100
3, 219392, Note_on_c, 1, 46, 70
3, 219516, Note_off_c, 1, 39, 100
3, 219520, Note_on_c, 1, 51, 70
3, 219644, Note_off_c, 1, 46, 100
3, 219648, Note_on_c, 1, 39, 70
3, 219772, Note_off_c, 1, 51, 100
3, 219776, Note_on_c, 1, 46, 70
3, 219900, Note_off_c, 1, 39, 100
3, 219904, Note_on_c, 1, 51, 70
3, 220028, Note_off_c, 1, 46, 100
3, 220032, Note_on_c, 1, 39, 70
3, 220156, Note_off_c, 1, 51, 100
3, 220160, Note_on_c, 1, 46, 70
3, 220284, Note_off_c, 1, 39, 100
3, 220288, Note_on_c, 1, 51, 70
3, 220412, Note_off_c, 1, 46, 100
3, 220416, Note_on_c, 1, 38, 70
3, 220540, Note_off_c, 1, 51, 100
3, 220544, Note_on_c, 1, 46, 70
3, 220668, Note_off_c, 1, 38, 100
3, 220672, Note_on_c, 1, 50, 70
3, 220796, Note_off_c, 1, 46, 100
3, 220800, Note_on_c, 1, 39, 70
3, 220924, Note_off_c, 1, 50, 100
3, 220928, Note_on_c, 1, 46, 70
3, 221052, Note_off_c, 1, 39, 100
3, 221056, Note_on_c, 1, 51, 70
3, 221180, Note_off_c, 1, 46, 100
3, 221184, Note_on_c, 1, 41, 96
3, 221308, Note_off_c, 1, 51, 100
3, 221312, Note_on_c, 1, 46, 70
3, 221436, Note_off_c, 1, 41, 100
3, 221440, Note_on_c, 1, 53, 70
3, 221564, Note_off_c, 1, 46, 100
3, 221568, Note_on_c, 1, 41, 70
3, 221692, Note_off_c, 1, 53, 100
3, 221696, Note_on_c, 1, 46, 70
3, 221820, Note_off_c, 1, 41, 100
3, 221824, Note_on_c, 1, 53, 70
3, 221948, Note_off_c, 1, 46, 100
3, 221952, Note_on_c, 1, 41, 70
3, 222076, Note_off_c, 1, 53, 100
3, 222080, Note_on_c, 1, 46, 70
3, 222204, Note_off_c, 1, 41, 100
3, 222208, Note_on_c, 1, 53, 80
3, 222332, Note_off_c, 1, 46, 100
3, 222336, Note_on_c, 1, 41, 80
3, 222460, Note_off_c, 1, 53, 100
3, 222464, Note_on_c, 1, 46, 80
3, 222588, Note_off_c, 1, 41, 100
3, 222592, Note_on_c, 1, 53, 80
3, 222716, Note_off_c, 1, 46, 100
3, 222720, Note_on_c, 1, 41, 80
3, 222844, Note_off_c, 1, 53, 100
3, 222848, Note_on_c, 1, 46, 80
3, 222972, Note_off_c, 1, 41, 100
3, 222976, Note_on_c, 1, 53, 80
3, 223100, Note_off_c, 1, 46, 100
3, 223104, Note_on_c, 1, 41, 80
3, 223228, Note_off_c, 1, 53, 100
3, 223232, Note_on_c, 1, 46, 80
3, 223356, Note_off_c, 1, 41, 100
3, 223360, Note_on_c, 1, 53, 80
3, 223484, Note_off_c, 1, 46, 100
3, 223484, Note_off_c, 1, 53, 100
3, 223488, Note_on_c, 1, 39, 80
3, 223616, Note_on_c, 1, 46, 80
3, 223740, Note_off_c, 1, 39, 100
3, 223744, Note_on_c, 1, 51, 80
3, 223868, Note_off_c, 1, 46, 100
3, 223872, Note_on_c, 1, 39, 80
3, 223996, Note_off_c, 1, 51, 100
3, 224000, Note_on_c, 1, 46, 80
3, 224124, Note_off_c, 1, 39, 100
3, 224128, Note_on_c, 1, 51, 80
3, 224252, Note_off_c, 1, 46, 100
3, 224256, Note_on_c, 1, 39, 80
3, 224380, Note_off_c, 1, 51, 100
3, 224384, Note_on_c, 1, 46, 80
3, 224508, Note_off_c, 1, 39, 100
3, 224512, Note_on_c, 1, 51, 80
3, 224636, Note_off_c, 1, 46, 100
3, 224640, Note_on_c, 1, 39, 80
3, 224764, Note_off_c, 1, 51, 100
3, 224768, Note_on_c, 1, 46, 80
3, 224892, Note_off_c, 1, 39, 100
3, 224896, Note_on_c, 1, 51, 80
3, 225020, Note_off_c, 1, 46, 100
3, 225024, Note_on_c, 1, 38, 80
3, 225148, Note_off_c, 1, 51, 100
3, 225152, Note_on_c, 1, 46, 80
3, 225276, Note_off_c, 1, 38, 100
3, 225280, Note_on_c, 1, 50, 80
3, 225404, Note_off_c, 1, 46, 100
3, 225408, Note_on_c, 1, 39, 80
3, 225532, Note_off_c, 1, 50, 100
3, 225536, Note_on_c, 1, 46, 80
3, 225660, Note_off_c, 1, 39, 100
3, 225664, Note_on_c, 1, 51, 80
3, 225788, Note_off_c, 1, 46, 100
3, 225792, Note_on_c, 1, 41, 80
3, 225916, Note_off_c, 1, 51, 100
3, 225920, Note_on_c, 1, 49, 80
3, 226044, Note_off_c, 1, 41, 100
3, 226048, Note_on_c, 1, 53, 80
3, 226172, Note_off_c, 1, 49, 100
3, 226176, Note_on_c, 1, 41, 80
3, 226300, Note_off_c, 1, 53, 100
3, 226304, Note_on_c, 1, 49, 80
3, 226428, Note_off_c, 1, 41, 100
3, 226432, Note_on_c, 1, 53, 80
3, 226556, Note_off_c, 1, 49, 100
3, 226560, Note_on_c, 1, 41, 80
3, 226684, Note_off_c, 1, 53, 100
3, 226688, Note_on_c, 1, 49, 80
3, 226812, Note_off_c, 1, 41, 100
3, 226816, Note_on_c, 1, 53, 80
3, 226940, Note_off_c, 1, 49, 100
3, 226944, Note_on_c, 1, 41, 80
3, 227068, Note_off_c, 1, 53, 100
3, 227072, Note_on_c, 1, 49, 80
3, 227196, Note_off_c, 1, 41, 100
3, 227200, Note_on_c, 1, 53, 80
3, 227324, Note_off_c, 1, 49, 100
3, 227328, Note_on_c, 1, 41, 80
3, 227452, Note_off_c, 1, 53, 100
3, 227456, Note_on_c, 1, 49, 80
3, 227580, Note_off_c, 1, 41, 100
3, 227584, Note_on_c, 1, 53, 80
3, 227708, Note_off_c, 1, 49, 100
3, 227712, Note_on_c, 1, 41, 80
3, 227836, Note_off_c, 1, 53, 100
3, 227840, Note_on_c, 1, 49, 80
3, 227964, Note_off_c, 1, 41, 100
3, 227968, Note_on_c, 1, 53, 80
3, 228092, Note_off_c, 1, 49, 100
3, 228096, Note_on_c, 1, 42, 81
3, 228220, Note_off_c, 1, 53, 100
3, 228224, Note_on_c, 1, 49, 82
3, 228348, Note_off_c, 1, 42, 100
3, 228352, Note_on_c, 1, 54, 83
3, 228476, Note_off_c, 1, 49, 100
3, 228480, Note_on_c, 1, 42, 84
3, 228604, Note_off_c, 1, 54, 100
3, 228608, Note_on_c, 1, 49, 85
3, 228732, Note_off_c, 1, 42, 100
3, 228736, Note_on_c, 1, 54, 86
3, 228860, Note_off_c, 1, 49, 100
3, 228864, Note_on_c, 1, 42, 87
3, 228988, Note_off_c, 1, 54, 100
3, 228992, Note_on_c, 1, 49, 88
3, 229116, Note_off_c, 1, 42, 100
3, 229120, Note_on_c, 1, 54, 89
3, 229244, Note_off_c, 1, 49, 100
3, 229248, Note_on_c, 1, 30, 90
3, 229372, Note_off_c, 1, 54, 100
3, 229376, Note_on_c, 1, 37, 91
3, 229500, Note_off_c, 1, 30, 100
3, 229504, Note_on_c, 1, 42, 92
3, 229628, Note_off_c, 1, 37, 100
3, 229632, Note_on_c, 1, 30, 93
3, 229756, Note_off_c, 1, 42, 100
3, 229760, Note_on_c, 1, 37, 94
3, 229884, Note_off_c, 1, 30, 100
3, 229888, Note_on_c, 1, 42, 95
3, 230012, Note_off_c, 1, 37, 100
3, 230016, Note_on_c, 1, 30, 96
3, 230140, Note_off_c, 1, 42, 100
3, 230144, Note_on_c, 1, 37, 97
3, 230268, Note_off_c, 1, 30, 100
3, 230272, Note_on_c, 1, 42, 98
3, 230396, Note_off_c, 1, 37, 100
3, 230400, Note_on_c, 1, 35, 80
3, 230524, Note_off_c, 1, 42, 100
3, 230528, Note_on_c, 1, 39, 80
3, 230652, Note_off_c, 1, 35, 100
3, 230656, Note_on_c, 1, 47, 80
3, 230780, Note_off_c, 1, 39, 100
3, 230784, Note_on_c, 1, 35, 79
3, 230908, Note_off_c, 1, 47, 100
3, 230912, Note_on_c, 1, 39, 79
3, 231036, Note_off_c, 1, 35, 100
3, 231040, Note_on_c, 1, 47, 79
3, 231164, Note_off_c, 1, 39, 100
3, 231168, Note_on_c, 1, 35, 78
3, 231292, Note_off_c, 1, 47, 100
3, 231296, Note_on_c, 1, 39, 78
3, 231420, Note_off_c, 1, 35, 100
3, 231424, Note_on_c, 1, 47, 77
3, 231548, Note_off_c, 1, 39, 100
3, 231552, Note_on_c, 1, 35, 77
3, 231676, Note_off_c, 1, 47, 100
3, 231680, Note_on_c, 1, 39, 77
3, 231804, Note_off_c, 1, 35, 100
3, 231808, Note_on_c, 1, 47, 76
3, 231932, Note_off_c, 1, 39, 100
3, 231936, Note_on_c, 1, 35, 76
3, 232060, Note_off_c, 1, 47, 100
3, 232064, Note_on_c, 1, 39, 75
3, 232188, Note_off_c, 1, 35, 100
3, 232192, Note_on_c, 1, 47, 75
3, 232316, Note_off_c, 1, 39, 100
3, 232320, Note_on_c, 1, 35, 75
3, 232444, Note_off_c, 1, 47, 100
3, 232448, Note_on_c, 1, 39, 74
3, 232572, Note_off_c, 1, 35, 100
3, 232576, Note_on_c, 1, 47, 74
3, 232700, Note_off_c, 1, 39, 100
3, 232704, Note_on_c, 1, 35, 73
3, 232828, Note_off_c, 1, 47, 100
3, 232832, Note_on_c, 1, 39, 73
3, 232956, Note_off_c, 1, 35, 100
3, 232960, Note_on_c, 1, 47, 73
3, 233084, Note_off_c, 1, 39, 100
3, 233088, Note_on_c, 1, 35, 72
3, 233212, Note_off_c, 1, 47, 100
3, 233216, Note_on_c, 1, 39, 72
3, 233340, Note_off_c, 1, 35, 100
3, 233344, Note_on_c, 1, 47, 71
3, 233468, Note_off_c, 1, 39, 100
3, 233472, Note_on_c, 1, 35, 71
3, 233596, Note_off_c, 1, 47, 100
3, 233600, Note_on_c, 1, 39, 71
3, 233724, Note_off_c, 1, 35, 100
3, 233728, Note_on_c, 1, 47, 70
3, 233852, Note_off_c, 1, 39, 100
3, 233856, Note_on_c, 1, 35, 70
3, 233980, Note_off_c, 1, 47, 100
3, 233984, Note_on_c, 1, 39, 70
3, 234108, Note_off_c, 1, 35, 100
3, 234112, Note_on_c, 1, 47, 69
3, 234236, Note_off_c, 1, 39, 100
3, 234240, Note_on_c, 1, 35, 69
3, 234364, Note_off_c, 1, 47, 100
3, 234368, Note_on_c, 1, 39, 68
3, 234492, Note_off_c, 1, 35, 100
3, 234496, Note_on_c, 1, 47, 68
3, 234620, Note_off_c, 1, 39, 100
3, 234624, Note_on_c, 1, 35, 68
3, 234748, Note_off_c, 1, 47, 100
3, 234752, Note_on_c, 1, 39, 67
3, 234876, Note_off_c, 1, 35, 100
3, 234880, Note_on_c, 1, 47, 67
3, 235004, Note_off_c, 1, 39, 100
3, 235004, Note_off_c, 1, 47, 100
3, 235008, Note_on_c, 1, 46, 66
3, 235008, Note_on_c, 1, 34, 66
3, 235388, Note_off_c, 1, 46, 100
3, 235388, Note_off_c, 1, 34, 100
3, 235392, Note_on_c, 1, 46, 65
3, 235772, Note_off_c, 1, 46, 100
3, 235776, Note_on_c, 1, 46, 64
3, 236156, Note_off_c, 1, 46, 100
3, 236160, Note_on_c, 1, 46, 63
3, 236540, Note_off_c, 1, 46, 100
3, 237312, Note_on_c, 1, 39, 70
3, 237440, Note_on_c, 1, 46, 70
3, 237564, Note_off_c, 1, 39, 100
3, 237568, Note_on_c, 1, 51, 70
3, 237692, Note_off_c, 1, 46, 100
3, 237696, Note_on_c, 1, 39, 70
3, 237820, Note_off_c, 1, 51, 100
3, 237824, Note_on_c, 1, 46, 70
3, 237948, Note_off_c, 1, 39, 100
3, 237952, Note_on_c, 1, 51, 70
3, 238076, Note_off_c, 1, 46, 100
3, 238080, Note_on_c, 1, 39, 70
3, 238204, Note_off_c, 1, 51, 100
3, 238208, Note_on_c, 1, 46, 70
3, 238332, Note_off_c, 1, 39, 100
3, 238336, Note_on_c, 1, 51, 70
3, 238460, Note_off_c, 1, 46, 100
3, 238464, Note_on_c, 1, 39, 70
3, 238588, Note_off_c, 1, 51, 100
3, 238592, Note_on_c, 1, 46, 70
3, 238716, Note_off_c, 1, 39, 100
3, 238720, Note_on_c, 1, 51, 70
3, 238844, Note_off_c, 1, 46, 100
3, 238848, Note_on_c, 1, 38, 70
3, 238972, Note_off_c, 1, 51, 100
3, 238976, Note_on_c, 1, 46, 70
3, 239100, Note_off_c, 1, 38, 100
3, 239104, Note_on_c, 1, 50, 70
3, 239228, Note_off_c, 1, 46, 100
3, 239232, Note_on_c, 1, 39, 70
3, 239356, Note_off_c, 1, 50, 100
3, 239360, Note_on_c, 1, 46, 70
3, 239484, Note_off_c, 1, 39, 100
3, 239488, Note_on_c, 1, 51, 70
3, 239612, Note_off_c, 1, 46, 100
3, 239616, Note_on_c, 1, 41, 80
3, 239740, Note_off_c, 1, 51, 100
3, 239744, Note_on_c, 1, 46, 80
3, 239868, Note_off_c, 1, 41, 100
3, 239872, Note_on_c, 1, 53, 80
3, 239996, Note_off_c, 1, 46, 100
3, 240000, Note_on_c, 1, 41, 80
3, 240124, Note_off_c, 1, 53, 100
3, 240128, Note_on_c, 1, 46, 80
3, 240252, Note_off_c, 1, 41, 100
3, 240256, Note_on_c, 1, 53, 80
3, 240380, Note_off_c, 1, 46, 100
3, 240384, Note_on_c, 1, 41, 80
3, 240508, Note_off_c, 1, 53, 100
3, 240512, Note_on_c, 1, 46, 80
3, 240636, Note_off_c, 1, 41, 100
3, 240640, Note_on_c, 1, 53, 80
3, 240764, Note_off_c, 1, 46, 100
3, 240768, Note_on_c, 1, 41, 80
3, 240892, Note_off_c, 1, 53, 100
3, 240896, Note_on_c, 1, 46, 80
3, 241020, Note_off_c, 1, 41, 100
3, 241024, Note_on_c, 1, 53, 80
3, 241148, Note_off_c, 1, 46, 100
3, 241152, Note_on_c, 1, 41, 80
3, 241276, Note_off_c, 1, 53, 100
3, 241280, Note_on_c, 1, 46, 80
3, 241404, Note_off_c, 1, 41, 100
3, 241408, Note_on_c, 1, 53, 80
3, 241532, Note_off_c, 1, 46, 100
3, 241536, Note_on_c, 1, 41, 80
3, 241660, Note_off_c, 1, 53, 100
3, 241664, Note_on_c, 1, 46, 80
3, 241788, Note_off_c, 1, 41, 100
3, 241792, Note_on_c, 1, 53, 80
3, 241916, Note_off_c, 1, 46, 100
3, 241916, Note_off_c, 1, 53, 100
3, 241920, Note_on_c, 1, 39, 80
3, 242048, Note_on_c, 1, 46, 80
3, 242172, Note_off_c, 1, 39, 100
3, 242176, Note_on_c, 1, 51, 80
3, 242300, Note_off_c, 1, 46, 100
3, 242304, Note_on_c, 1, 39, 80
3, 242428, Note_off_c, 1, 51, 100
3, 242432, Note_on_c, 1, 46, 80
3, 242556, Note_off_c, 1, 39, 100
3, 242560, Note_on_c, 1, 51, 80
3, 242684, Note_off_c, 1, 46, 100
3, 242688, Note_on_c, 1, 39, 80
3, 242812, Note_off_c, 1, 51, 100
3, 242816, Note_on_c, 1, 46, 80
3, 242940, Note_off_c, 1, 39, 100
3, 242944, Note_on_c, 1, 51, 80
3, 243068, Note_off_c, 1, 46, 100
3, 243072, Note_on_c, 1, 39, 80
3, 243196, Note_off_c, 1, 51, 100
3, 243200, Note_on_c, 1, 46, 80
3, 243324, Note_off_c, 1, 39, 100
3, 243328, Note_on_c, 1, 51, 80
3, 243452, Note_off_c, 1, 46, 100
3, 243456, Note_on_c, 1, 38, 80
3, 243580, Note_off_c, 1, 51, 100
3, 243584, Note_on_c, 1, 46, 80
3, 243708, Note_off_c, 1, 38, 100
3, 243712, Note_on_c, 1, 50, 80
3, 243836, Note_off_c, 1, 46, 100
3, 243840, Note_on_c, 1, 39, 80
3, 243964, Note_off_c, 1, 50, 100
3, 243968, Note_on_c, 1, 46, 80
3, 244092, Note_off_c, 1, 39, 100
3, 244096, Note_on_c, 1, 51, 80
3, 244220, Note_off_c, 1, 46, 100
3, 244224, Note_on_c, 1, 41, 80
3, 244348, Note_off_c, 1, 51, 100
3, 244352, Note_on_c, 1, 49, 80
3, 244476, Note_off_c, 1, 41, 100
3, 244480, Note_on_c, 1, 53, 80
3, 244604, Note_off_c, 1, 49, 100
3, 244608, Note_on_c, 1, 41, 80
3, 244732, Note_off_c, 1, 53, 100
3, 244736, Note_on_c, 1, 49, 80
3, 244860, Note_off_c, 1, 41, 100
3, 244864, Note_on_c, 1, 53, 80
3, 244988, Note_off_c, 1, 49, 100
3, 244992, Note_on_c, 1, 41, 80
3, 245116, Note_off_c, 1, 53, 100
3, 245120, Note_on_c, 1, 49, 80
3, 245244, Note_off_c, 1, 41, 100
3, 245248, Note_on_c, 1, 53, 80
3, 245372, Note_off_c, 1, 49, 100
3, 245376, Note_on_c, 1, 41, 80
3, 245500, Note_off_c, 1, 53, 100
3, 245504, Note_on_c, 1, 49, 80
3, 245628, Note_off_c, 1, 41, 100
3, 245632, Note_on_c, 1, 53, 80
3, 245756, Note_off_c, 1, 49, 100
3, 245760, Note_on_c, 1, 41, 80
3, 245884, Note_off_c, 1, 53, 100
3, 245888, Note_on_c, 1, 49, 80
3, 246012, Note_off_c, 1, 41, 100
3, 246016, Note_on_c, 1, 53, 80
3, 246140, Note_off_c, 1, 49, 100
3, 246144, Note_on_c, 1, 41, 80
3, 246268, Note_off_c, 1, 53, 100
3, 246272, Note_on_c, 1, 49, 80
3, 246396, Note_off_c, 1, 41, 100
3, 246400, Note_on_c, 1, 53, 80
3, 246524, Note_off_c, 1, 49, 100
3, 246528, Note_on_c, 1, 42, 81
3, 246652, Note_off_c, 1, 53, 100
3, 246656, Note_on_c, 1, 49, 82
3, 246780, Note_off_c, 1, 42, 100
3, 246784, Note_on_c, 1, 54, 83
3, 246908, Note_off_c, 1, 49, 100
3, 246912, Note_on_c, 1, 42, 84
3, 247036, Note_off_c, 1, 54, 100
3, 247040, Note_on_c, 1, 49, 85
3, 247164, Note_off_c, 1, 42, 100
3, 247168, Note_on_c, 1, 54, 86
3, 247292, Note_off_c, 1, 49, 100
3, 247296, Note_on_c, 1, 42, 87
3, 247420, Note_off_c, 1, 54, 100
3, 247424, Note_on_c, 1, 49, 88
3, 247548, Note_off_c, 1, 42, 100
3, 247552, Note_on_c, 1, 54, 89
3, 247676, Note_off_c, 1, 49, 100
3, 247680, Note_on_c, 1, 30, 90
3, 247804, Note_off_c, 1, 54, 100
3, 247808, Note_on_c, 1, 37, 91
3, 247932, Note_off_c, 1, 30, 100
3, 247936, Note_on_c, 1, 42, 92
3, 248060, Note_off_c, 1, 37, 100
3, 248064, Note_on_c, 1, 30, 93
3, 248188, Note_off_c, 1, 42, 100
3, 248192, Note_on_c, 1, 37, 94
3, 248316, Note_off_c, 1, 30, 100
3, 248320, Note_on_c, 1, 42, 95
3, 248444, Note_off_c, 1, 37, 100
3, 248448, Note_on_c, 1, 30, 96
3, 248572, Note_off_c, 1, 42, 100
3, 248576, Note_on_c, 1, 37, 97
3, 248700, Note_off_c, 1, 30, 100
3, 248704, Note_on_c, 1, 42, 98
3, 248828, Note_off_c, 1, 37, 100
3, 248832, Note_on_c, 1, 35, 90
3, 248956, Note_off_c, 1, 42, 100
3, 248960, Note_on_c, 1, 39, 90
3, 249084, Note_off_c, 1, 35, 100
3, 249088, Note_on_c, 1, 47, 89
3, 249212, Note_off_c, 1, 39, 100
3, 249216, Note_on_c, 1, 35, 89
3, 249340, Note_off_c, 1, 47, 100
3, 249344, Note_on_c, 1, 39, 88
3, 249468, Note_off_c, 1, 35, 100
3, 249472, Note_on_c, 1, 47, 88
3, 249596, Note_off_c, 1, 39, 100
3, 249600, Note_on_c, 1, 35, 87
3, 249724, Note_off_c, 1, 47, 100
3, 249728, Note_on_c, 1, 39, 87
3, 249852, Note_off_c, 1, 35, 100
3, 249856, Note_on_c, 1, 47, 86
3, 249980, Note_off_c, 1, 39, 100
3, 249984, Note_on_c, 1, 35, 85
3, 250108, Note_off_c, 1, 47, 100
3, 250112, Note_on_c, 1, 39, 85
3, 250236, Note_off_c, 1, 35, 100
3, 250240, Note_on_c, 1, 47, 84
3, 250364, Note_off_c, 1, 39, 100
3, 250368, Note_on_c, 1, 35, 84
3, 250492, Note_off_c, 1, 47, 100
3, 250496, Note_on_c, 1, 39, 83
3, 250620, Note_off_c, 1, 35, 100
3, 250624, Note_on_c, 1, 47, 83
3, 250748, Note_off_c, 1, 39, 100
3, 250752, Note_on_c, 1, 35, 82
3, 250876, Note_off_c, 1, 47, 100
3, 250880, Note_on_c, 1, 39, 81
3, 251004, Note_off_c, 1, 35, 100
3, 251008, Note_on_c, 1, 47, 81
3, 251132, Note_off_c, 1, 39, 100
3, 251136, Note_on_c, 1, 35, 80
3, 251260, Note_off_c, 1, 47, 100
3, 251264, Note_on_c, 1, 39, 80
3, 251388, Note_off_c, 1, 35, 100
3, 251392, Note_on_c, 1, 47, 79
3, 251516, Note_off_c, 1, 39, 100
3, 251520, Note_on_c, 1, 35, 79
3, 251644, Note_off_c, 1, 47, 100
3, 251648, Note_on_c, 1, 39, 78
3, 251772, Note_off_c, 1, 35, 100
3, 251776, Note_on_c, 1, 47, 77
3, 251900, Note_off_c, 1, 39, 100
3, 251904, Note_on_c, 1, 35, 77
3, 252028, Note_off_c, 1, 47, 100
3, 252032, Note_on_c, 1, 39, 76
3, 252156, Note_off_c, 1, 35, 100
3, 252160, Note_on_c, 1, 47, 76
3, 252284, Note_off_c, 1, 39, 100
3, 252288, Note_on_c, 1, 35, 75
3, 252412, Note_off_c, 1, 47, 100
3, 252416, Note_on_c, 1, 39, 75
3, 252540, Note_off_c, 1, 35, 100
3, 252544, Note_on_c, 1, 47, 74
3, 252668, Note_off_c, 1, 39, 100
3, 252672, Note_on_c, 1, 35, 73
3, 252796, Note_off_c, 1, 47, 100
3, 252800, Note_on_c, 1, 39, 73
3, 252924, Note_off_c, 1, 35, 100
3, 252928, Note_on_c, 1, 47, 72
3, 253052, Note_off_c, 1, 39, 100
3, 253056, Note_on_c, 1, 35, 72
3, 253180, Note_off_c, 1, 47, 100
3, 253184, Note_on_c, 1, 39, 71
3, 253308, Note_off_c, 1, 35, 100
3, 253312, Note_on_c, 1, 47, 71
3, 253436, Note_off_c, 1, 39, 100
3, 253436, Note_off_c, 1, 47, 100
3, 253440, Note_on_c, 1, 46, 70
3, 253440, Note_on_c, 1, 34, 70
3, 253820, Note_off_c, 1, 46, 100
3, 253820, Note_off_c, 1, 34, 100
3, 253824, Note_on_c, 1, 46, 70
3, 254204, Note_off_c, 1, 46, 100
3, 254208, Note_on_c, 1, 46, 70
3, 254588, Note_off_c, 1, 46, 100
3, 254592, Note_on_c, 1, 46, 70
3, 254972, Note_off_c, 1, 46, 100
3, 255744, Note_on_c, 1, 46, 80
3, 255872, Note_on_c, 1, 53, 80
3, 255996, Note_off_c, 1, 46, 100
3, 256000, Note_on_c, 1, 58, 80
3, 256124, Note_off_c, 1, 53, 100
3, 256128, Note_on_c, 1, 46, 80
3, 256252, Note_off_c, 1, 58, 100
3, 256256, Note_on_c, 1, 53, 80
3, 256380, Note_off_c, 1, 46, 100
3, 256384, Note_on_c, 1, 58, 80
3, 256508, Note_off_c, 1, 53, 100
3, 256512, Note_on_c, 1, 46, 80
3, 256636, Note_off_c, 1, 58, 100
3, 256640, Note_on_c, 1, 53, 80
3, 256764, Note_off_c, 1, 46, 100
3, 256768, Note_on_c, 1, 58, 80
3, 256892, Note_off_c, 1, 53, 100
3, 256896, Note_on_c, 1, 46, 80
3, 257020, Note_off_c, 1, 58, 100
3, 257024, Note_on_c, 1, 53, 80
3, 257148, Note_off_c, 1, 46, 100
3, 257152, Note_on_c, 1, 58, 80
3, 257276, Note_off_c, 1, 53, 100
3, 257280, Note_on_c, 1, 45, 80
3, 257404, Note_off_c, 1, 58, 100
3, 257408, Note_on_c, 1, 53, 80
3, 257532, Note_off_c, 1, 45, 100
3, 257536, Note_on_c, 1, 57, 80
3, 257660, Note_off_c, 1, 53, 100
3, 257664, Note_on_c, 1, 46, 80
3, 257788, Note_off_c, 1, 57, 100
3, 257792, Note_on_c, 1, 53, 80
3, 257916, Note_off_c, 1, 46, 100
3, 257920, Note_on_c, 1, 58, 80
3, 258044, Note_off_c, 1, 53, 100
3, 258048, Note_on_c, 1, 48, 80
3, 258172, Note_off_c, 1, 58, 100
3, 258176, Note_on_c, 1, 53, 80
3, 258300, Note_off_c, 1, 48, 100
3, 258304, Note_on_c, 1, 60, 80
3, 258428, Note_off_c, 1, 53, 100
3, 258432, Note_on_c, 1, 48, 80
3, 258556, Note_off_c, 1, 60, 100
3, 258560, Note_on_c, 1, 53, 80
3, 258684, Note_off_c, 1, 48, 100
3, 258688, Note_on_c, 1, 60, 80
3, 258812, Note_off_c, 1, 53, 100
3, 258816, Note_on_c, 1, 48, 80
3, 258940, Note_off_c, 1, 60, 100
3, 258944, Note_on_c, 1, 53, 80
3, 259068, Note_off_c, 1, 48, 100
3, 259072, Note_on_c, 1, 60, 80
3, 259196, Note_off_c, 1, 53, 100
3, 259200, Note_on_c, 1, 48, 80
3, 259324, Note_off_c, 1, 60, 100
3, 259328, Note_on_c, 1, 53, 80
3, 259452, Note_off_c, 1, 48, 100
3, 259456, Note_on_c, 1, 60, 80
3, 259580, Note_off_c, 1, 53, 100
3, 259584, Note_on_c, 1, 48, 80
3, 259708, Note_off_c, 1, 60, 100
3, 259712, Note_on_c, 1, 53, 80
3, 259836, Note_off_c, 1, 48, 100
3, 259840, Note_on_c, 1, 60, 80
3, 259964, Note_off_c, 1, 53, 100
3, 259968, Note_on_c, 1, 48, 80
3, 260092, Note_off_c, 1, 60, 100
3, 260096, Note_on_c, 1, 53, 80
3, 260220, Note_off_c, 1, 48, 100
3, 260224, Note_on_c, 1, 60, 80
3, 260348, Note_off_c, 1, 53, 100
3, 260352, Note_on_c, 1, 46, 80
3, 260476, Note_off_c, 1, 60, 100
3, 260480, Note_on_c, 1, 53, 80
3, 260604, Note_off_c, 1, 46, 100
3, 260608, Note_on_c, 1, 58, 80
3, 260732, Note_off_c, 1, 53, 100
3, 260736, Note_on_c, 1, 46, 80
3, 260860, Note_off_c, 1, 58, 100
3, 260864, Note_on_c, 1, 53, 80
3, 260988, Note_off_c, 1, 46, 100
3, 260992, Note_on_c, 1, 58, 80
3, 261116, Note_off_c, 1, 53, 100
3, 261120, Note_on_c, 1, 46, 80
3, 261244, Note_off_c, 1, 58, 100
3, 261248, Note_on_c, 1, 53, 80
3, 261372, Note_off_c, 1, 46, 100
3, 261376, Note_on_c, 1, 58, 80
3, 261500, Note_off_c, 1, 53, 100
3, 261504, Note_on_c, 1, 46, 80
3, 261628, Note_off_c, 1, 58, 100
3, 261632, Note_on_c, 1, 53, 80
3, 261756, Note_off_c, 1, 46, 100
3, 261760, Note_on_c, 1, 58, 80
3, 261884, Note_off_c, 1, 53, 100
3, 261888, Note_on_c, 1, 45, 80
3, 262012, Note_off_c, 1, 58, 100
3, 262016, Note_on_c, 1, 53, 80
3, 262140, Note_off_c, 1, 45, 100
3, 262144, Note_on_c, 1, 57, 80
3, 262268, Note_off_c, 1, 53, 100
3, 262272, Note_on_c, 1, 46, 80
3, 262396, Note_off_c, 1, 57, 100
3, 262400, Note_on_c, 1, 53, 80
3, 262524, Note_off_c, 1, 46, 100
3, 262528, Note_on_c, 1, 58, 80
3, 262652, Note_off_c, 1, 53, 100
3, 262656, Note_on_c, 1, 44, 80
3, 262780, Note_off_c, 1, 58, 100
3, 262784, Note_on_c, 1, 46, 80
3, 262908, Note_off_c, 1, 44, 100
3, 262912, Note_on_c, 1, 56, 80
3, 263036, Note_off_c, 1, 46, 100
3, 263040, Note_on_c, 1, 44, 80
3, 263164, Note_off_c, 1, 56, 100
3, 263168, Note_on_c, 1, 46, 80
3, 263292, Note_off_c, 1, 44, 100
3, 263296, Note_on_c, 1, 56, 80
3, 263420, Note_off_c, 1, 46, 100
3, 263424, Note_on_c, 1, 44, 80
3, 263548, Note_off_c, 1, 56, 100
3, 263552, Note_on_c, 1, 46, 80
3, 263676, Note_off_c, 1, 44, 100
3, 263680, Note_on_c, 1, 56, 80
3, 263804, Note_off_c, 1, 46, 100
3, 263808, Note_on_c, 1, 44, 80
3, 263932, Note_off_c, 1, 56, 100
3, 263936, Note_on_c, 1, 46, 80
3, 264060, Note_off_c, 1, 44, 100
3, 264064, Note_on_c, 1, 56, 80
3, 264188, Note_off_c, 1, 46, 100
3, 264192, Note_on_c, 1, 44, 80
3, 264316, Note_off_c, 1, 56, 100
3, 264320, Note_on_c, 1, 46, 80
3, 264444, Note_off_c, 1, 44, 100
3, 264448, Note_on_c, 1, 56, 80
3, 264572, Note_off_c, 1, 46, 100
3, 264576, Note_on_c, 1, 44, 80
3, 264700, Note_off_c, 1, 56, 100
3, 264704, Note_on_c, 1, 46, 80
3, 264828, Note_off_c, 1, 44, 100
3, 264832, Note_on_c, 1, 56, 80
3, 264956, Note_off_c, 1, 46, 100
3, 264960, Note_on_c, 1, 42, 81
3, 265084, Note_off_c, 1, 56, 100
3, 265088, Note_on_c, 1, 46, 83
3, 265212, Note_off_c, 1, 42, 100
3, 265216, Note_on_c, 1, 54, 84
3, 265340, Note_off_c, 1, 46, 100
3, 265344, Note_on_c, 1, 42, 86
3, 265468, Note_off_c, 1, 54, 100
3, 265472, Note_on_c, 1, 46, 87
3, 265596, Note_off_c, 1, 42, 100
3, 265600, Note_on_c, 1, 54, 89
3, 265724, Note_off_c, 1, 46, 100
3, 265728, Note_on_c, 1, 38, 91
3, 265852, Note_off_c, 1, 54, 100
3, 265856, Note_on_c, 1, 46, 92
3, 265980, Note_off_c, 1, 38, 100
3, 265984, Note_on_c, 1, 50, 94
3, 266108, Note_off_c, 1, 46, 100
3, 266112, Note_on_c, 1, 39, 95
3, 266236, Note_off_c, 1, 50, 100
3, 266240, Note_on_c, 1, 46, 97
3, 266364, Note_off_c, 1, 39, 100
3, 266368, Note_on_c, 1, 51, 98
3, 266492, Note_off_c, 1, 46, 100
3, 266496, Note_on_c, 1, 39, 100
3, 266620, Note_off_c, 1, 51, 100
3, 266624, Note_on_c, 1, 46, 102
3, 266748, Note_off_c, 1, 39, 100
3, 266752, Note_on_c, 1, 51, 103
3, 266876, Note_off_c, 1, 46, 100
3, 266880, Note_on_c, 1, 35, 105
3, 267004, Note_off_c, 1, 51, 100
3, 267008, Note_on_c, 1, 39, 106
3, 267132, Note_off_c, 1, 35, 100
3, 267136, Note_on_c, 1, 47, 108
3, 267260, Note_off_c, 1, 39, 100
3, 267264, Note_on_c, 1, 46, 109
3, 267264, Note_on_c, 1, 34, 109
3, 267388, Note_off_c, 1, 47, 100
3, 267644, Note_off_c, 1, 46, 100
3, 267644, Note_off_c, 1, 34, 100
3, 269568, Note_on_c, 1, 39, 80
3, 269696, Note_on_c, 1, 46, 80
3, 269820, Note_off_c, 1, 39, 100
3, 269824, Note_on_c, 1, 51, 80
3, 269948, Note_off_c, 1, 46, 100
3, 269952, Note_on_c, 1, 39, 80
3, 270076, Note_off_c, 1, 51, 100
3, 270080, Note_on_c, 1, 46, 80
3, 270204, Note_off_c, 1, 39, 100
3, 270208, Note_on_c, 1, 51, 80
3, 270332, Note_off_c, 1, 46, 100
3, 270336, Note_on_c, 1, 39, 80
3, 270460, Note_off_c, 1, 51, 100
3, 270464, Note_on_c, 1, 46, 80
3, 270588, Note_off_c, 1, 39, 100
3, 270592, Note_on_c, 1, 51, 80
3, 270716, Note_off_c, 1, 46, 100
3, 270720, Note_on_c, 1, 39, 80
3, 270844, Note_off_c, 1, 51, 100
3, 270848, Note_on_c, 1, 46, 80
3, 270972, Note_off_c, 1, 39, 100
3, 270976, Note_on_c, 1, 51, 80
3, 271100, Note_off_c, 1, 46, 100
3, 271104, Note_on_c, 1, 38, 80
3, 271228, Note_off_c, 1, 51, 100
3, 271232, Note_on_c, 1, 46, 80
3, 271356, Note_off_c, 1, 38, 100
3, 271360, Note_on_c, 1, 50, 80
3, 271484, Note_off_c, 1, 46, 100
3, 271488, Note_on_c, 1, 39, 80
3, 271612, Note_off_c, 1, 50, 100
3, 271616, Note_on_c, 1, 46, 80
3, 271740, Note_off_c, 1, 39, 100
3, 271744, Note_on_c, 1, 51, 80
3, 271868, Note_off_c, 1, 46, 100
3, 271872, Note_on_c, 1, 41, 80
3, 271996, Note_off_c, 1, 51, 100
3, 272000, Note_on_c, 1, 46, 80
3, 272124, Note_off_c, 1, 41, 100
3, 272128, Note_on_c, 1, 53, 80
3, 272252, Note_off_c, 1, 46, 100
3, 272256, Note_on_c, 1, 41, 80
3, 272380, Note_off_c, 1, 53, 100
3, 272384, Note_on_c, 1, 46, 80
3, 272508, Note_off_c, 1, 41, 100
3, 272512, Note_on_c, 1, 53, 80
3, 272636, Note_off_c, 1, 46, 100
3, 272640, Note_on_c, 1, 41, 80
3, 272764, Note_off_c, 1, 53, 100
3, 272768, Note_on_c, 1, 46, 80
3, 272892, Note_off_c, 1, 41, 100
3, 272896, Note_on_c, 1, 53, 80
3, 273020, Note_off_c, 1, 46, 100
3, 273024, Note_on_c, 1, 41, 80
3, 273148, Note_off_c, 1, 53, 100
3, 273152, Note_on_c, 1, 46, 80
3, 273276, Note_off_c, 1, 41, 100
3, 273280, Note_on_c, 1, 53, 80
3, 273404, Note_off_c, 1, 46, 100
3, 273408, Note_on_c, 1, 41, 80
3, 273532, Note_off_c, 1, 53, 100
3, 273536, Note_on_c, 1, 46, 80
3, 273660, Note_off_c, 1, 41, 100
3, 273664, Note_on_c, 1, 53, 80
3, 273788, Note_off_c, 1, 46, 100
3, 273792, Note_on_c, 1, 41, 80
3, 273916, Note_off_c, 1, 53, 100
3, 273920, Note_on_c, 1, 46, 80
3, 274044, Note_off_c, 1, 41, 100
3, 274048, Note_on_c, 1, 53, 80
3, 274172, Note_off_c, 1, 46, 100
3, 274172, Note_off_c, 1, 53, 100
3, 274176, Note_on_c, 1, 39, 80
3, 274304, Note_on_c, 1, 46, 80
3, 274428, Note_off_c, 1, 39, 100
3, 274432, Note_on_c, 1, 51, 80
3, 274556, Note_off_c, 1, 46, 100
3, 274560, Note_on_c, 1, 39, 80
3, 274684, Note_off_c, 1, 51, 100
3, 274688, Note_on_c, 1, 46, 80
3, 274812, Note_off_c, 1, 39, 100
3, 274816, Note_on_c, 1, 51, 80
3, 274940, Note_off_c, 1, 46, 100
3, 274944, Note_on_c, 1, 39, 80
3, 275068, Note_off_c, 1, 51, 100
3, 275072, Note_on_c, 1, 46, 80
3, 275196, Note_off_c, 1, 39, 100
3, 275200, Note_on_c, 1, 51, 80
3, 275324, Note_off_c, 1, 46, 100
3, 275328, Note_on_c, 1, 39, 80
3, 275452, Note_off_c, 1, 51, 100
3, 275456, Note_on_c, 1, 46, 80
3, 275580, Note_off_c, 1, 39, 100
3, 275584, Note_on_c, 1, 51, 80
3, 275708, Note_off_c, 1, 46, 100
3, 275712, Note_on_c, 1, 38, 80
3, 275836, Note_off_c, 1, 51, 100
3, 275840, Note_on_c, 1, 46, 80
3, 275964, Note_off_c, 1, 38, 100
3, 275968, Note_on_c, 1, 50, 80
3, 276092, Note_off_c, 1, 46, 100
3, 276096, Note_on_c, 1, 39, 80
3, 276220, Note_off_c, 1, 50, 100
3, 276224, Note_on_c, 1, 46, 80
3, 276348, Note_off_c, 1, 39, 100
3, 276352, Note_on_c, 1, 51, 80
3, 276476, Note_off_c, 1, 46, 100
3, 276480, Note_on_c, 1, 35, 80
3, 276604, Note_off_c, 1, 51, 100
3, 276608, Note_on_c, 1, 39, 80
3, 276732, Note_off_c, 1, 35, 100
3, 276736, Note_on_c, 1, 47, 80
3, 276860, Note_off_c, 1, 39, 100
3, 276864, Note_on_c, 1, 35, 80
3, 276988, Note_off_c, 1, 47, 100
3, 276992, Note_on_c, 1, 39, 80
3, 277116, Note_off_c, 1, 35, 100
3, 277120, Note_on_c, 1, 47, 80
3, 277244, Note_off_c, 1, 39, 100
3, 277248, Note_on_c, 1, 35, 80
3, 277372, Note_off_c, 1, 47, 100
3, 277376, Note_on_c, 1, 39, 80
3, 277500, Note_off_c, 1, 35, 100
3, 277504, Note_on_c, 1, 47, 80
3, 277628, Note_off_c, 1, 39, 100
3, 277632, Note_on_c, 1, 35, 80
3, 277756, Note_off_c, 1, 47, 100
3, 277760, Note_on_c, 1, 39, 80
3, 277884, Note_off_c, 1, 35, 100
3, 277888, Note_on_c, 1, 47, 80
3, 278012, Note_off_c, 1, 39, 100
3, 278016, Note_on_c, 1, 35, 80
3, 278140, Note_off_c, 1, 47, 100
3, 278144, Note_on_c, 1, 39, 80
3, 278268, Note_off_c, 1, 35, 100
3, 278272, Note_on_c, 1, 47, 80
3, 278396, Note_off_c, 1, 39, 100
3, 278400, Note_on_c, 1, 34, 80
3, 278524, Note_off_c, 1, 47, 100
3, 278528, Note_on_c, 1, 39, 80
3, 278652, Note_off_c, 1, 34, 100
3, 278656, Note_on_c, 1, 46, 80
3, 278780, Note_off_c, 1, 39, 100
3, 278784, Note_on_c, 1, 32, 80
3, 278908, Note_off_c, 1, 46, 100
3, 278912, Note_on_c, 1, 39, 80
3, 279036, Note_off_c, 1, 32, 100
3, 279040, Note_on_c, 1, 44, 80
3, 279164, Note_off_c, 1, 39, 100
3, 279168, Note_on_c, 1, 32, 80
3, 279292, Note_off_c, 1, 44, 100
3, 279296, Note_on_c, 1, 39, 80
3, 279420, Note_off_c, 1, 32, 100
3, 279424, Note_on_c, 1, 44, 80
3, 279548, Note_off_c, 1, 39, 100
3, 279552, Note_on_c, 1, 32, 80
3, 279676, Note_off_c, 1, 44, 100
3, 279680, Note_on_c, 1, 39, 80
3, 279804, Note_off_c, 1, 32, 100
3, 279808, Note_on_c, 1, 44, 80
3, 279932, Note_off_c, 1, 39, 100
3, 279936, Note_on_c, 1, 35, 80
3, 280060, Note_off_c, 1, 44, 100
3, 280064, Note_on_c, 1, 41, 80
3, 280188, Note_off_c, 1, 35, 100
3, 280192, Note_on_c, 1, 47, 80
3, 280316, Note_off_c, 1, 41, 100
3, 280320, Note_on_c, 1, 35, 80
3, 280444, Note_off_c, 1, 47, 100
3, 280448, Note_on_c, 1, 41, 81
3, 280572, Note_off_c, 1, 35, 100
3, 280576, Note_on_c, 1, 47, 84
3, 280700, Note_off_c, 1, 41, 100
3, 280704, Note_on_c, 1, 34, 86
3, 280828, Note_off_c, 1, 47, 100
3, 280832, Note_on_c, 1, 41, 86
3, 280956, Note_off_c, 1, 34, 100
3, 280960, Note_on_c, 1, 46, 88
3, 281084, Note_off_c, 1, 41, 100
3, 281088, Note_on_c, 1, 39, 90
3, 281212, Note_off_c, 1, 46, 100
3, 281216, Note_on_c, 1, 46, 91
3, 281340, Note_off_c, 1, 39, 100
3, 281344, Note_on_c, 1, 51, 92
3, 281468, Note_off_c, 1, 46, 100
3, 281472, Note_on_c, 1, 39, 93
3, 281596, Note_off_c, 1, 51, 100
3, 281600, Note_on_c, 1, 46, 94
3, 281724, Note_off_c, 1, 39, 100
3, 281728, Note_on_c, 1, 51, 95
3, 281852, Note_off_c, 1, 46, 100
3, 281856, Note_on_c, 1, 38, 96
3, 281980, Note_off_c, 1, 51, 100
3, 281984, Note_on_c, 1, 46, 97
3, 282108, Note_off_c, 1, 38, 100
3, 282112, Note_on_c, 1, 50, 98
3, 282236, Note_off_c, 1, 46, 100
3, 282240, Note_on_c, 1, 39, 99
3, 282364, Note_off_c, 1, 50, 100
3, 282368, Note_on_c, 1, 46, 101
3, 282492, Note_off_c, 1, 39, 100
3, 282496, Note_on_c, 1, 51, 102
3, 282620, Note_off_c, 1, 46, 100
3, 282624, Note_on_c, 1, 39, 103
3, 282748, Note_off_c, 1, 51, 100
3, 282752, Note_on_c, 1, 46, 104
3, 282876, Note_off_c, 1, 39, 100
3, 282880, Note_on_c, 1, 51, 105
3, 283004, Note_off_c, 1, 46, 100
3, 283008, Note_on_c, 1, 35, 106
3, 283132, Note_off_c, 1, 51, 100
3, 283136, Note_on_c, 1, 39, 107
3, 283260, Note_off_c, 1, 35, 100
3, 283264, Note_on_c, 1, 47, 120
3, 283388, Note_off_c, 1, 39, 100
3, 283392, Note_on_c, 1, 34, 120
3, 283516, Note_off_c, 1, 47, 100
3, 283520, Note_on_c, 1, 39, 120
3, 283644, Note_off_c, 1, 34, 100
3, 283648, Note_on_c, 1, 46, 120
3, 283772, Note_off_c, 1, 39, 100
3, 283776, Note_on_c, 1, 34, 120
3, 283900, Note_off_c, 1, 46, 100
3, 283904, Note_on_c, 1, 39, 120
3, 284028, Note_off_c, 1, 34, 100
3, 284032, Note_on_c, 1, 46, 120
3, 284156, Note_off_c, 1, 39, 100
3, 284160, Note_on_c, 1, 34, 120
3, 284284, Note_off_c, 1, 46, 100
3, 284288, Note_on_c, 1, 39, 120
3, 284412, Note_off_c, 1, 34, 100
3, 284416, Note_on_c, 1, 46, 120
3, 284540, Note_off_c, 1, 39, 100
3, 284544, Note_on_c, 1, 34, 120
3, 284668, Note_off_c, 1, 46, 100
3, 284672, Note_on_c, 1, 41, 120
3, 284796, Note_off_c, 1, 34, 100
3, 284800, Note_on_c, 1, 46, 120
3, 284924, Note_off_c, 1, 41, 100
3, 284928, Note_on_c, 1, 34, 120
3, 285052, Note_off_c, 1, 46, 100
3, 285056, Note_on_c, 1, 41, 120
3, 285180, Note_off_c, 1, 34, 100
3, 285184, Note_on_c, 1, 46, 120
3, 285308, Note_off_c, 1, 41, 100
3, 285312, Note_on_c, 1, 34, 120
3, 285436, Note_off_c, 1, 46, 100
3, 285440, Note_on_c, 1, 41, 120
3, 285564, Note_off_c, 1, 34, 100
3, 285568, Note_on_c, 1, 46, 120
3, 285692, Note_off_c, 1, 41, 100
3, 285692, Note_off_c, 1, 46, 100
3, 285696, Note_on_c, 1, 39, 120
3, 285824, Note_on_c, 1, 46, 117
3, 285948, Note_off_c, 1, 39, 100
3, 285952, Note_on_c, 1, 51, 113
3, 286076, Note_off_c, 1, 46, 100
3, 286080, Note_on_c, 1, 39, 110
3, 286204, Note_off_c, 1, 51, 100
3, 286208, Note_on_c, 1, 46, 106
3, 286332, Note_off_c, 1, 39, 100
3, 286336, Note_on_c, 1, 51, 102
3, 286460, Note_off_c, 1, 46, 100
3, 286464, Note_on_c, 1, 39, 99
3, 286588, Note_off_c, 1, 51, 100
3, 286592, Note_on_c, 1, 46, 95
3, 286716, Note_off_c, 1, 39, 100
3, 286720, Note_on_c, 1, 51, 91
3, 286844, Note_off_c, 1, 46, 100
3, 286844, Note_off_c, 1, 51, 100
3, 286848, Note_on_c, 1, 39, 88
3, 286976, Note_on_c, 1, 46, 84
3, 287100, Note_off_c, 1, 39, 100
3, 287104, Note_on_c, 1, 51, 81
3, 287228, Note_off_c, 1, 46, 100
3, 287232, Note_on_c, 1, 39, 80
3, 287356, Note_off_c, 1, 51, 100
3, 287360, Note_on_c, 1, 46, 80
3, 287484, Note_off_c, 1, 39, 100
3, 287488, Note_on_c, 1, 51, 80
3, 287612, Note_off_c, 1, 46, 100
3, 287616, Note_on_c, 1, 39, 80
3, 287740, Note_off_c, 1, 51, 100
3, 287744, Note_on_c, 1, 46, 80
3, 287868, Note_off_c, 1, 39, 100
3, 287872, Note_on_c, 1, 51, 80
3, 287996, Note_off_c, 1, 46, 100
3, 287996, Note_off_c, 1, 51, 100
3, 288000, Note_on_c, 1, 39, 79
3, 288128, Note_on_c, 1, 47, 79
3, 288252, Note_off_c, 1, 39, 100
3, 288256, Note_on_c, 1, 50, 79
3, 288380, Note_off_c, 1, 47, 100
3, 288384, Note_on_c, 1, 39, 79
3, 288508, Note_off_c, 1, 50, 100
3, 288512, Note_on_c, 1, 47, 79
3, 288636, Note_off_c, 1, 39, 100
3, 288640, Note_on_c, 1, 50, 79
3, 288764, Note_off_c, 1, 47, 100
3, 288768, Note_on_c, 1, 39, 78
3, 288892, Note_off_c, 1, 50, 100
3, 288896, Note_on_c, 1, 47, 78
3, 289020, Note_off_c, 1, 39, 100
3, 289024, Note_on_c, 1, 50, 78
3, 289148, Note_off_c, 1, 47, 100
3, 289148, Note_off_c, 1, 50, 100
3, 289152, Note_on_c, 1, 39, 78
3, 289280, Note_on_c, 1, 47, 78
3, 289404, Note_off_c, 1, 39, 100
3, 289408, Note_on_c, 1, 50, 78
3, 289532, Note_off_c, 1, 47, 100
3, 289536, Note_on_c, 1, 39, 77
3, 289660, Note_off_c, 1, 50, 100
3, 289664, Note_on_c, 1, 47, 77
3, 289788, Note_off_c, 1, 39, 100
3, 289792, Note_on_c, 1, 50, 77
3, 289916, Note_off_c, 1, 47, 100
3, 289920, Note_on_c, 1, 39, 77
3, 290044, Note_off_c, 1, 50, 100
3, 290048, Note_on_c, 1, 47, 77
3, 290172, Note_off_c, 1, 39, 100
3, 290176, Note_on_c, 1, 50, 76
3, 290300, Note_off_c, 1, 47, 100
3, 290300, Note_off_c, 1, 50, 100
3, 290304, Note_on_c, 1, 39, 76
3, 290432, Note_on_c, 1, 46, 76
3, 290556, Note_off_c, 1, 39, 100
3, 290560, Note_on_c, 1, 51, 76
3, 290684, Note_off_c, 1, 46, 100
3, 290688, Note_on_c, 1, 39, 76
3, 290812, Note_off_c, 1, 51, 100
3, 290816, Note_on_c, 1, 46, 76
3, 290940, Note_off_c, 1, 39, 100
3, 290944, Note_on_c, 1, 51, 75
3, 291068, Note_off_c, 1, 46, 100
3, 291072, Note_on_c, 1, 39, 75
3, 291196, Note_off_c, 1, 51, 100
3, 291200, Note_on_c, 1, 46, 75
3, 291324, Note_off_c, 1, 39, 100
3, 291328, Note_on_c, 1, 51, 75
3, 291452, Note_off_c, 1, 46, 100
3, 291452, Note_off_c, 1, 51, 100
3, 291456, Note_on_c, 1, 39, 75
3, 291584, Note_on_c, 1, 46, 75
3, 291708, Note_off_c, 1, 39, 100
3, 291712, Note_on_c, 1, 51, 74
3, 291836, Note_off_c, 1, 46, 100
3, 291840, Note_on_c, 1, 39, 74
3, 291964, Note_off_c, 1, 51, 100
3, 291968, Note_on_c, 1, 46, 74
3, 292092, Note_off_c, 1, 39, 100
3, 292096, Note_on_c, 1, 51, 74
3, 292220, Note_off_c, 1, 46, 100
3, 292224, Note_on_c, 1, 39, 74
3, 292348, Note_off_c, 1, 51, 100
3, 292352, Note_on_c, 1, 46, 73
3, 292476, Note_off_c, 1, 39, 100
3, 292480, Note_on_c, 1, 51, 73
3, 292604, Note_off_c, 1, 46, 100
3, 292604, Note_off_c, 1, 51, 100
3, 292608, Note_on_c, 1, 39, 73
3, 292736, Note_on_c, 1, 47, 73
3, 292860, Note_off_c, 1, 39, 100
3, 292864, Note_on_c, 1, 50, 73
3, 292988, Note_off_c, 1, 47, 100
3, 292992, Note_on_c, 1, 39, 73
3, 293116, Note_off_c, 1, 50, 100
3, 293120, Note_on_c, 1, 47, 72
3, 293244, Note_off_c, 1, 39, 100
3, 293248, Note_on_c, 1, 50, 72
3, 293372, Note_off_c, 1, 47, 100
3, 293376, Note_on_c, 1, 39, 72
3, 293500, Note_off_c, 1, 50, 100
3, 293504, Note_on_c, 1, 47, 72
3, 293628, Note_off_c, 1, 39, 100
3, 293632, Note_on_c, 1, 50, 72
3, 293756, Note_off_c, 1, 47, 100
3, 293756, Note_off_c, 1, 50, 100
3, 293760, Note_on_c, 1, 39, 72
3, 293888, Note_on_c, 1, 47, 71
3, 294012, Note_off_c, 1, 39, 100
3, 294016, Note_on_c, 1, 50, 71
3, 294140, Note_off_c, 1, 47, 100
3, 294144, Note_on_c, 1, 39, 71
3, 294268, Note_off_c, 1, 50, 100
3, 294272, Note_on_c, 1, 47, 71
3, 294396, Note_off_c, 1, 39, 100
3, 294400, Note_on_c, 1, 50, 71
3, 294524, Note_off_c, 1, 47, 100
3, 294528, Note_on_c, 1, 39, 71
3, 294652, Note_off_c, 1, 50, 100
3, 294656, Note_on_c, 1, 47, 69
3, 294780, Note_off_c, 1, 39, 100
3, 294784, Note_on_c, 1, 50, 64
3, 294908, Note_off_c, 1, 47, 100
3, 294908, Note_off_c, 1, 50, 100
3, 294912, Note_on_c, 1, 46, 60
3, 294912, Note_on_c, 1, 39, 60
3, 297212, Note_off_c, 1, 39, 100
3, 297212, Note_off_c, 1, 46, 100
3, 299520, Key_signature, -3, "major"
3, 299904, Note_on_c, 1, 51, 80
3, 300284, Note_off_c, 1, 51, 100
3, 300288, Note_on_c, 1, 55, 80
3, 300668, Note_off_c, 1, 55, 100
3, 300672, Note_on_c, 1, 58, 80
3, 301056, Note_on_c, 1, 55, 80
3, 301436, Note_off_c, 1, 55, 100
3, 301440, Note_on_c, 1, 51, 80
3, 301820, Note_off_c, 1, 51, 100
3, 301824, Note_on_c, 1, 46, 80
3, 302588, Note_off_c, 1, 58, 100
3, 302592, Note_on_c, 1, 56, 80
3, 302972, Note_off_c, 1, 46, 100
3, 302972, Note_off_c, 1, 56, 100
3, 302976, Note_on_c, 1, 55, 80
3, 302976, Note_on_c, 1, 51, 80
3, 303356, Note_off_c, 1, 55, 100
3, 303356, Note_off_c, 1, 51, 100
3, 304128, Note_on_c, 1, 63, 80
3, 304128, Note_on_c, 1, 56, 80
3, 304508, Note_off_c, 1, 56, 100
3, 304512, Note_on_c, 1, 55, 80
3, 304892, Note_off_c, 1, 63, 100
3, 304892, Note_off_c, 1, 55, 100
3, 305280, Note_on_c, 1, 58, 80
3, 305280, Note_on_c, 1, 50, 80
3, 305660, Note_off_c, 1, 50, 100
3, 305664, Note_on_c, 1, 51, 80
3, 306044, Note_off_c, 1, 58, 100
3, 306044, Note_off_c, 1, 51, 100
3, 306432, Note_on_c, 1, 58, 80
3, 306432, Note_on_c, 1, 46, 80
3, 306812, Note_off_c, 1, 46, 100
3, 306816, Note_on_c, 1, 50, 80
3, 307196, Note_off_c, 1, 58, 100
3, 307196, Note_off_c, 1, 50, 100
3, 307200, Note_on_c, 1, 58, 80
3, 307200, Note_on_c, 1, 51, 80
3, 307580, Note_off_c, 1, 58, 100
3, 307580, Note_off_c, 1, 51, 100
3, 307584, Note_on_c, 1, 58, 80
3, 307584, Note_on_c, 1, 46, 80
3, 307964, Note_off_c, 1, 58, 100
3, 307964, Note_off_c, 1, 46, 100
3, 309120, Note_on_c, 1, 51, 80
3, 309500, Note_off_c, 1, 51, 100
3, 309504, Note_on_c, 1, 55, 80
3, 309884, Note_off_c, 1, 55, 100
3, 309888, Note_on_c, 1, 58, 80
3, 310272, Note_on_c, 1, 55, 80
3, 310652, Note_off_c, 1, 55, 100
3, 310656, Note_on_c, 1, 51, 80
3, 311036, Note_off_c, 1, 51, 100
3, 311040, Note_on_c, 1, 46, 80
3, 311804, Note_off_c, 1, 58, 100
3, 311804, Note_off_c, 1, 46, 100
3, 311808, Note_on_c, 1, 59, 80
3, 311808, Note_on_c, 1, 47, 80
3, 312188, Note_off_c, 1, 59, 100
3, 312188, Note_off_c, 1, 47, 100
3, 312192, Note_on_c, 1, 60, 80
3, 312192, Note_on_c, 1, 48, 80
3, 312572, Note_off_c, 1, 60, 100
3, 312572, Note_off_c, 1, 48, 100
3, 314112, Note_on_c, 1, 57, 70
3, 314112, Note_on_c, 1, 45, 70
3, 314112, Note_on_c, 1, 53, 70
3, 314492, Note_off_c, 1, 57, 100
3, 314492, Note_off_c, 1, 45, 100
3, 314496, Note_on_c, 1, 58, 70
3, 314496, Note_on_c, 1, 46, 70
3, 314876, Note_off_c, 1, 53, 100
3, 314876, Note_off_c, 1, 58, 100
3, 314876, Note_off_c, 1, 46, 100
3, 316416, Note_on_c, 1, 65, 100
3, 316416, Note_on_c, 1, 60, 100
3, 316416, Note_on_c, 1, 57, 100
3, 316796, Note_off_c, 1, 60, 100
3, 316796, Note_off_c, 1, 57, 100
3, 316800, Note_on_c, 1, 62, 100
3, 316800, Note_on_c, 1, 58, 100
3, 317180, Note_off_c, 1, 65, 100
3, 317180, Note_off_c, 1, 62, 100
3, 317180, Note_off_c, 1, 58, 100
3, 317184, Note_on_c, 1, 65, 111
3, 317184, Note_on_c, 1, 63, 100
3, 317184, Note_on_c, 1, 60, 100
3, 317564, Note_off_c, 1, 63, 100
3, 317564, Note_off_c, 1, 60, 100
3, 317568, Note_on_c, 1, 60, 100
3, 317568, Note_on_c, 1, 57, 100
3, 317948, Note_off_c, 1, 60, 100
3, 317948, Note_off_c, 1, 57, 100
3, 317952, Note_on_c, 1, 62, 100
3, 317952, Note_on_c, 1, 58, 100
3, 318332, Note_off_c, 1, 65, 100
3, 318332, Note_off_c, 1, 62, 100
3, 318332, Note_off_c, 1, 58, 100
3, 318336, Note_on_c, 1, 65, 111
3, 318336, Note_on_c, 1, 63, 100
3, 318336, Note_on_c, 1, 60, 100
3, 318716, Note_off_c, 1, 63, 100
3, 318716, Note_off_c, 1, 60, 100
3, 318720, Note_on_c, 1, 60, 100
3, 318720, Note_on_c, 1, 57, 100
3, 319100, Note_off_c, 1, 60, 100
3, 319100, Note_off_c, 1, 57, 100
3, 319104, Note_on_c, 1, 62, 100
3, 319104, Note_on_c, 1, 58, 100
3, 319484, Note_off_c, 1, 65, 100
3, 319484, Note_off_c, 1, 62, 100
3, 319484, Note_off_c, 1, 58, 100
3, 319488, Note_on_c, 1, 65, 111
3, 319488, Note_on_c, 1, 63, 100
3, 319488, Note_on_c, 1, 60, 100
3, 319868, Note_off_c, 1, 63, 100
3, 319868, Note_off_c, 1, 60, 100
3, 319872, Note_on_c, 1, 60, 100
3, 319872, Note_on_c, 1, 57, 100
3, 320252, Note_off_c, 1, 60, 100
3, 320252, Note_off_c, 1, 57, 100
3, 320256, Note_on_c, 1, 62, 100
3, 320256, Note_on_c, 1, 58, 100
3, 320636, Note_off_c, 1, 65, 100
3, 320636, Note_off_c, 1, 62, 100
3, 320636, Note_off_c, 1, 58, 100
3, 321024, Note_on_c, 1, 52, 100
3, 321404, Note_off_c, 1, 52, 100
3, 321408, Note_on_c, 1, 53, 100
3, 321788, Note_off_c, 1, 53, 100
3, 322176, Note_on_c, 1, 41, 100
3, 322556, Note_off_c, 1, 41, 100
3, 322560, Note_on_c, 1, 46, 100
3, 322940, Note_off_c, 1, 46, 100
3, 323328, Note_on_c, 1, 40, 100
3, 323708, Note_off_c, 1, 40, 100
3, 323712, Note_on_c, 1, 41, 100
3, 324092, Note_off_c, 1, 41, 100
3, 324480, Note_on_c, 1, 41, 100
3, 324480, Note_on_c, 1, 29, 100
3, 324860, Note_off_c, 1, 41, 100
3, 324860, Note_off_c, 1, 29, 100
3, 324864, Note_on_c, 1, 34, 100
3, 324864, Note_on_c, 1, 46, 100
3, 325244, Note_off_c, 1, 34, 100
3, 325244, Note_off_c, 1, 46, 100
3, 326016, Note_on_c, 1, 46, 100
3, 326016, Note_on_c, 1, 34, 100
3, 326396, Note_off_c, 1, 46, 100
3, 326396, Note_off_c, 1, 34, 100
3, 327168, Note_on_c, 1, 58, 80
3, 327932, Note_off_c, 1, 58, 100
3, 327936, Note_on_c, 1, 55, 82
3, 328316, Note_off_c, 1, 55, 100
3, 328320, Note_on_c, 1, 52, 83
3, 328700, Note_off_c, 1, 52, 100
3, 328704, Note_on_c, 1, 55, 84
3, 329084, Note_off_c, 1, 55, 100
3, 329088, Note_on_c, 1, 58, 85
3, 329468, Note_off_c, 1, 58, 100
3, 329472, Note_on_c, 1, 61, 87
3, 330236, Note_off_c, 1, 61, 100
3, 330240, Note_on_c, 1, 58, 89
3, 330620, Note_off_c, 1, 58, 100
3, 330624, Note_on_c, 1, 55, 90
3, 331004, Note_off_c, 1, 55, 100
3, 331008, Note_on_c, 1, 58, 91
3, 331388, Note_off_c, 1, 58, 100
3, 331392, Note_on_c, 1, 61, 92
3, 331772, Note_off_c, 1, 61, 100
3, 331776, Note_on_c, 1, 64, 94
3, 332540, Note_off_c, 1, 64, 100
3, 332544, Note_on_c, 1, 61, 96
3, 332924, Note_off_c, 1, 61, 100
3, 332928, Note_on_c, 1, 58, 97
3, 333308, Note_off_c, 1, 58, 100
3, 333312, Note_on_c, 1, 61, 98
3, 333692, Note_off_c, 1, 61, 100
3, 333696, Note_on_c, 1, 64, 99
3, 334076, Note_off_c, 1, 64, 100
3, 334080, Note_on_c, 1, 67, 100
3, 334080, Note_on_c, 1, 70, 100
3, 336380, Note_off_c, 1, 67, 100
3, 336380, Note_off_c, 1, 70, 100
3, 336384, Note_on_c, 1, 68, 100
3, 336384, Note_on_c, 1, 72, 100
3, 338684, Note_off_c, 1, 68, 100
3, 338684, Note_off_c, 1, 72, 100
3, 338688, Note_on_c, 1, 70, 100
3, 338688, Note_on_c, 1, 73, 100
3, 338688, Note_on_c, 1, 67, 100
3, 340988, Note_off_c, 1, 67, 100
3, 340988, Note_off_c, 1, 70, 100
3, 340988, Note_off_c, 1, 73, 100
3, 340992, Note_on_c, 1, 68, 100
3, 340992, Note_on_c, 1, 72, 100
3, 343292, Note_off_c, 1, 68, 100
3, 343292, Note_off_c, 1, 72, 100
3, 343296, Note_on_c, 1, 65, 100
3, 343296, Note_on_c, 1, 68, 100
3, 345596, Note_off_c, 1, 65, 100
3, 345596, Note_off_c, 1, 68, 100
3, 345600, Note_on_c, 1, 62, 78
3, 345600, Note_on_c, 1, 65, 78
3, 347900, Note_off_c, 1, 62, 100
3, 347900, Note_off_c, 1, 65, 100
3, 348288, Note_on_c, 1, 51, 80
3, 348668, Note_off_c, 1, 51, 100
3, 348672, Note_on_c, 1, 55, 80
3, 349052, Note_off_c, 1, 55, 100
3, 349056, Note_on_c, 1, 58, 80
3, 349440, Note_on_c, 1, 55, 80
3, 349820, Note_off_c, 1, 55, 100
3, 349824, Note_on_c, 1, 51, 80
3, 350204, Note_off_c, 1, 51, 100
3, 350208, Note_on_c, 1, 46, 80
3, 350976, Note_on_c, 1, 44, 80
3, 351356, Note_off_c, 1, 46, 100
3, 351356, Note_off_c, 1, 44, 100
3, 351360, Note_on_c, 1, 43, 80
3, 351740, Note_off_c, 1, 58, 100
3, 351740, Note_off_c, 1, 43, 100
3, 352512, Note_on_c, 1, 63, 80
3, 352512, Note_on_c, 1, 56, 80
3, 352892, Note_off_c, 1, 56, 100
3, 352896, Note_on_c, 1, 55, 80
3, 353276, Note_off_c, 1, 63, 100
3, 353276, Note_off_c, 1, 55, 100
3, 353664, Note_on_c, 1, 58, 80
3, 353664, Note_on_c, 1, 50, 80
3, 354044, Note_off_c, 1, 50, 100
3, 354048, Note_on_c, 1, 51, 80
3, 354428, Note_off_c, 1, 58, 100
3, 354428, Note_off_c, 1, 51, 100
3, 354816, Note_on_c, 1, 58, 80
3, 354816, Note_on_c, 1, 46, 80
3, 355196, Note_off_c, 1, 46, 100
3, 355200, Note_on_c, 1, 50, 80
3, 355580, Note_off_c, 1, 58, 100
3, 355580, Note_off_c, 1, 50, 100
3, 355584, Note_on_c, 1, 58, 80
3, 355584, Note_on_c, 1, 51, 80
3, 355964, Note_off_c, 1, 58, 100
3, 355964, Note_off_c, 1, 51, 100
3, 355968, Note_on_c, 1, 58, 80
3, 355968, Note_on_c, 1, 46, 80
3, 356348, Note_off_c, 1, 58, 100
3, 356348, Note_off_c, 1, 46, 100
3, 357504, Note_on_c, 1, 51, 80
3, 357884, Note_off_c, 1, 51, 100
3, 357888, Note_on_c, 1, 54, 80
3, 358268, Note_off_c, 1, 54, 100
3, 358272, Note_on_c, 1, 58, 80
3, 358656, Note_on_c, 1, 54, 80
3, 359036, Note_off_c, 1, 54, 100
3, 359040, Note_on_c, 1, 51, 80
3, 359420, Note_off_c, 1, 51, 100
3, 359424, Note_on_c, 1, 46, 80
3, 360572, Note_off_c, 1, 58, 100
3, 360572, Note_off_c, 1, 46, 100
3, 360576, Note_on_c, 1, 59, 80
3, 360576, Note_on_c, 1, 47, 80
3, 360956, Note_off_c, 1, 59, 100
3, 360956, Note_off_c, 1, 47, 100
3, 362496, Note_on_c, 1, 54, 70
3, 362496, Note_on_c, 1, 58, 70
3, 362496, Note_on_c, 1, 46, 70
3, 362876, Note_off_c, 1, 58, 100
3, 362876, Note_off_c, 1, 46, 100
3, 362880, Note_on_c, 1, 59, 72
3, 362880, Note_on_c, 1, 47, 72
3, 363260, Note_off_c, 1, 54, 100
3, 363260, Note_off_c, 1, 59, 100
3, 363260, Note_off_c, 1, 47, 100
3, 363648, Note_on_c, 1, 54, 76
3, 363648, Note_on_c, 1, 58, 76
3, 363648, Note_on_c, 1, 46, 76
3, 364028, Note_off_c, 1, 58, 100
3, 364028, Note_off_c, 1, 46, 100
3, 364032, Note_on_c, 1, 59, 79
3, 364032, Note_on_c, 1, 47, 79
3, 364412, Note_off_c, 1, 54, 100
3, 364412, Note_off_c, 1, 59, 100
3, 364412, Note_off_c, 1, 47, 100
3, 364800, Note_on_c, 1, 54, 83
3, 364800, Note_on_c, 1, 58, 83
3, 364800, Note_on_c, 1, 46, 83
3, 365180, Note_off_c, 1, 58, 100
3, 365180, Note_off_c, 1, 46, 100
3, 365184, Note_off_c, 1, 54, 100
3, 365184, Note_on_c, 1, 59, 86
3, 365184, Note_on_c, 1, 47, 86
3, 365948, Note_off_c, 1, 47, 100
3, 365952, Note_on_c, 1, 51, 90
3, 366332, Note_off_c, 1, 51, 100
3, 366336, Note_on_c, 1, 52, 93
3, 367100, Note_off_c, 1, 59, 100
3, 367104, Note_on_c, 1, 61, 97
3, 367484, Note_off_c, 1, 52, 100
3, 367488, Note_on_c, 1, 55, 99
3, 368252, Note_off_c, 1, 61, 100
3, 368256, Note_on_c, 1, 63, 100
3, 368636, Note_off_c, 1, 63, 100
3, 368640, Note_on_c, 1, 64, 100
3, 369020, Note_off_c, 1, 64, 100
3, 369024, Note_on_c, 1, 66, 100
3, 369404, Note_off_c, 1, 66, 100
3, 369408, Note_on_c, 1, 64, 100
3, 369788, Note_off_c, 1, 55, 100
3, 369788, Note_off_c, 1, 64, 100
3, 369792, Note_on_c, 1, 63, 100
3, 369792, Note_on_c, 1, 59, 100
3, 370172, Note_off_c, 1, 63, 100
3, 370560, Note_on_c, 1, 51, 100
3, 370940, Note_off_c, 1, 51, 100
3, 370944, Note_on_c, 1, 52, 100
3, 371708, Note_off_c, 1, 59, 100
3, 371712, Note_on_c, 1, 61, 100
3, 372092, Note_off_c, 1, 52, 100
3, 372096, Note_on_c, 1, 54, 100
3, 372860, Note_off_c, 1, 61, 100
3, 372864, Note_on_c, 1, 63, 100
3, 373244, Note_off_c, 1, 54, 100
3, 373248, Note_on_c, 1, 55, 100
3, 374012, Note_off_c, 1, 63, 100
3, 374016, Note_on_c, 1, 63, 98
3, 374396, Note_off_c, 1, 55, 100
3, 374400, Note_on_c, 1, 56, 95
3, 375164, Note_off_c, 1, 63, 100
3, 375168, Note_on_c, 1, 63, 89
3, 375548, Note_off_c, 1, 56, 100
3, 375552, Note_on_c, 1, 58, 86
3, 376316, Note_off_c, 1, 63, 100
3, 376320, Note_on_c, 1, 63, 80
3, 376700, Note_off_c, 1, 58, 100
3, 376704, Note_on_c, 1, 59, 77
3, 377468, Note_off_c, 1, 63, 100
3, 377472, Note_on_c, 1, 63, 71
3, 377852, Note_off_c, 1, 59, 100
3, 377852, Note_off_c, 1, 63, 100
3, 379008, Note_on_c, 1, 58, 100
3, 379388, Note_off_c, 1, 58, 100
3, 380928, Note_on_c, 1, 65, 102
3, 381116, Note_off_c, 1, 65, 100
3, 381120, Note_on_c, 1, 62, 102
3, 381308, Note_off_c, 1, 62, 100
3, 381312, Note_on_c, 1, 63, 103
3, 381692, Note_off_c, 1, 63, 100
3, 381696, Note_on_c, 1, 58, 103
3, 382076, Note_off_c, 1, 58, 100
3, 382080, Note_on_c, 1, 68, 104
3, 382268, Note_off_c, 1, 68, 100
3, 382272, Note_on_c, 1, 65, 104
3, 382460, Note_off_c, 1, 65, 100
3, 382464, Note_on_c, 1, 67, 105
3, 382844, Note_off_c, 1, 67, 100
3, 382848, Note_on_c, 1, 58, 105
3, 383228, Note_off_c, 1, 58, 100
3, 383232, Note_on_c, 1, 65, 106
3, 383420, Note_off_c, 1, 65, 100
3, 383424, Note_on_c, 1, 62, 106
3, 383612, Note_off_c, 1, 62, 100
3, 383616, Note_on_c, 1, 63, 106
3, 383996, Note_off_c, 1, 63, 100
3, 384000, Note_on_c, 1, 58, 107
3, 384380, Note_off_c, 1, 58, 100
3, 384384, Note_on_c, 1, 68, 108
3, 384572, Note_off_c, 1, 68, 100
3, 384576, Note_on_c, 1, 65, 108
3, 384764, Note_off_c, 1, 65, 100
3, 384768, Note_on_c, 1, 67, 108
3, 385148, Note_off_c, 1, 67, 100
3, 385152, Note_on_c, 1, 63, 109
3, 385532, Note_off_c, 1, 63, 100
3, 385536, Note_on_c, 1, 68, 110
3, 385724, Note_off_c, 1, 68, 100
3, 385728, Note_on_c, 1, 65, 110
3, 385916, Note_off_c, 1, 65, 100
3, 385920, Note_on_c, 1, 67, 110
3, 386300, Note_off_c, 1, 67, 100
3, 386304, Note_on_c, 1, 63, 110
3, 386684, Note_off_c, 1, 63, 100
3, 386688, Note_on_c, 1, 72, 110
3, 386876, Note_off_c, 1, 72, 100
3, 386880, Note_on_c, 1, 69, 110
3, 387068, Note_off_c, 1, 69, 100
3, 387072, Note_on_c, 1, 70, 110
3, 387452, Note_off_c, 1, 70, 100
3, 387456, Note_on_c, 1, 63, 110
3, 387836, Note_off_c, 1, 63, 100
3, 387840, Note_on_c, 1, 68, 110
3, 388028, Note_off_c, 1, 68, 100
3, 388032, Note_on_c, 1, 65, 110
3, 388220, Note_off_c, 1, 65, 100
3, 388224, Note_on_c, 1, 67, 110
3, 388604, Note_off_c, 1, 67, 100
3, 388608, Note_on_c, 1, 63, 110
3, 388988, Note_off_c, 1, 63, 100
3, 388992, Note_on_c, 1, 72, 110
3, 389180, Note_off_c, 1, 72, 100
3, 389184, Note_on_c, 1, 69, 110
3, 389372, Note_off_c, 1, 69, 100
3, 389376, Note_on_c, 1, 70, 110
3, 389756, Note_off_c, 1, 70, 100
3, 389760, Note_on_c, 1, 63, 110
3, 390140, Note_off_c, 1, 63, 100
3, 390144, Note_on_c, 1, 67, 120
3, 390144, Note_on_c, 1, 55, 120
3, 390144, Note_on_c, 1, 63, 120
3, 390524, Note_off_c, 1, 67, 100
3, 390524, Note_off_c, 1, 55, 100
3, 390528, Note_on_c, 1, 68, 120
3, 390528, Note_on_c, 1, 56, 120
3, 390908, Note_off_c, 1, 63, 100
3, 390908, Note_off_c, 1, 68, 100
3, 390908, Note_off_c, 1, 56, 100
3, 391296, Note_on_c, 1, 56, 120
3, 391676, Note_off_c, 1, 56, 100
3, 391680, Note_on_c, 1, 58, 120
3, 392060, Note_off_c, 1, 58, 100
3, 392448, Note_on_c, 1, 65, 120
3, 392448, Note_on_c, 1, 68, 120
3, 392448, Note_on_c, 1, 59, 120
3, 392828, Note_off_c, 1, 65, 100
3, 392828, Note_off_c, 1, 68, 100
3, 392828, Note_off_c, 1, 59, 100
3, 392832, Note_on_c, 1, 60, 120
3, 392832, Note_on_c, 1, 63, 120
3, 392832, Note_on_c, 1, 67, 120
3, 393212, Note_off_c, 1, 60, 100
3, 393212, Note_off_c, 1, 63, 100
3, 393212, Note_off_c, 1, 67, 100
3, 393600, Note_on_c, 1, 44, 120
3, 393980, Note_off_c, 1, 44, 100
3, 393984, Note_on_c, 1, 46, 120
3, 394364, Note_off_c, 1, 46, 100
3, 394752, Note_on_c, 1, 53, 120
3, 394752, Note_on_c, 1, 56, 120
3, 394752, Note_on_c, 1, 47, 120
3, 395132, Note_off_c, 1, 53, 100
3, 395132, Note_off_c, 1, 56, 100
3, 395132, Note_off_c, 1, 47, 100
3, 395136, Note_on_c, 1, 48, 120
3, 395136, Note_on_c, 1, 51, 120
3, 395136, Note_on_c, 1, 55, 120
3, 395516, Note_off_c, 1, 48, 100
3, 395516, Note_off_c, 1, 51, 100
3, 395516, Note_off_c, 1, 55, 100
3, 395904, Note_on_c, 1, 32, 120
3, 396284, Note_off_c, 1, 32, 100
3, 396288, Note_on_c, 1, 34, 120
3, 396668, Note_off_c, 1, 34, 100
3, 396672, Note_on_c, 1, 46, 120
3, 397052, Note_off_c, 1, 46, 100
3, 397056, Note_on_c, 1, 46, 120
3, 397436, Note_off_c, 1, 46, 100
3, 397440, Note_on_c, 1, 39, 120
3, 397824, Note_on_c, 1, 51, 120
3, 398204, Note_off_c, 1, 51, 100
3, 398208, Note_on_c, 1, 51, 120
3, 398588, Note_off_c, 1, 51, 100
3, 398592, Note_on_c, 1, 49, 120
3, 398972, Note_off_c, 1, 49, 100
3, 398976, Note_on_c, 1, 51, 120
3, 399356, Note_off_c, 1, 51, 100
3, 399360, Note_on_c, 1, 46, 120
3, 399740, Note_off_c, 1, 46, 100
3, 399744, Note_on_c, 1, 48, 120
3, 400124, Note_off_c, 1, 48, 100
3, 400128, Note_on_c, 1, 51, 120
3, 400508, Note_off_c, 1, 51, 100
3, 400512, Note_on_c, 1, 44, 120
3, 400892, Note_off_c, 1, 44, 100
3, 400896, Note_on_c, 1, 50, 120
3, 401276, Note_off_c, 1, 50, 100
3, 401280, Note_on_c, 1, 53, 120
3, 401660, Note_off_c, 1, 53, 100
3, 401664, Note_on_c, 1, 46, 120
3, 402044, Note_off_c, 1, 39, 100
3, 402044, Note_off_c, 1, 46, 100
3, 402048, Note_on_c, 1, 51, 120
3, 403200, Note_on_c, 1, 55, 120
3, 403200, Note_on_c, 1, 58, 120
3, 404348, Note_off_c, 1, 55, 100
3, 404348, Note_off_c, 1, 58, 100
3, 404352, Note_on_c, 1, 56, 120
3, 404352, Note_on_c, 1, 60, 120
3, 405500, Note_off_c, 1, 51, 100
3, 405500, Note_off_c, 1, 56, 100
3, 405500, Note_off_c, 1, 60, 100
3, 405504, Note_on_c, 1, 51, 120
3, 405504, Note_on_c, 1, 53, 120
3, 405504, Note_on_c, 1, 56, 120
3, 405504, Note_on_c, 1, 58, 120
3, 405504, Note_on_c, 1, 62, 120
3, 406652, Note_off_c, 1, 51, 100
3, 406652, Note_off_c, 1, 53, 100
3, 406652, Note_off_c, 1, 56, 100
3, 406652, Note_off_c, 1, 58, 100
3, 406652, Note_off_c, 1, 62, 100
3, 406656, Note_on_c, 1, 63, 120
3, 406656, Note_on_c, 1, 58, 120
3, 406656, Note_on_c, 1, 55, 120
3, 406656, Note_on_c, 1, 51, 120
3, 407036, Note_off_c, 1, 63, 100
3, 407036, Note_off_c, 1, 58, 100
3, 407036, Note_off_c, 1, 55, 100
3, 407036, Note_off_c, 1, 51, 100
3, 407808, Note_on_c, 1, 51, 120
3, 407808, Note_on_c, 1, 39, 120
3, 408572, Note_off_c, 1, 51, 100
3, 408572, Note_off_c, 1, 39, 100
3, 408572, End_track
0, 0, End_of_file
