0, 0, Header, 1, 3, 384
1, 0, Start_track
1, 0, Title_t, "L.v.Beethoven 1mov - Piano Sonata No.4 in Eb Major Op.7\000"
1, 0, Copyright_t, "Copyright(C) 1995-2009, Suzuki Software\000"
1, 0, Sequencer_specific, 9, 67, 123, 0, 88, 70, 48, 50, 0, 1
1, 0, Text_t, "XFhd:2000/03/18:JP:Classical::::L.v.Beethoven:::Kaoru Suzuki\000"
1, 0, Text_t, "XFln:JP:\203s\203A\203m\203\\\203i\203^\221æ4\224Ô\225Ï\203z\222·\222²\215ì\225i7\201`\221æ1\212y\217Í:L.v.\203x\201[\203g\201[\203\224\203F\203\223:::\227é\202¿\202á\202ñ:\227é\202¿\202á\202ñ\000"
1, 0, Time_signature, 3, 2, 96, 8
1, 0, Sequencer_specific, 3, 0, 0, 65
1, 0, Sequencer_specific, 5, 0, 0, 119, 14, 0
1, 0, Tempo, 333333
1, 65856, Tempo, 342857
1, 66048, Tempo, 352941
1, 66240, Tempo, 363636
1, 66432, Tempo, 375000
1, 66624, Tempo, 387096
1, 66816, Tempo, 352941
1, 74880, Tempo, 352941
1, 75072, Tempo, 359281
1, 75264, Tempo, 368098
1, 75456, Tempo, 375000
1, 75648, Tempo, 382165
1, 75840, Tempo, 392156
1, 76416, Tempo, 352941
1, 156672, Tempo, 344827
1, 156864, Tempo, 342857
1, 157056, Tempo, 340909
1, 157248, Tempo, 338983
1, 157440, Tempo, 337078
1, 157632, Tempo, 335195
1, 157824, Tempo, 333333
1, 222528, Tempo, 338983
1, 222720, Tempo, 346820
1, 222912, Tempo, 352941
1, 223104, Tempo, 363636
1, 223296, Tempo, 375000
1, 223488, Tempo, 352941
1, 262656, Tempo, 342857
1, 271872, Tempo, 333333
1, 348288, Tempo, 342857
1, 348672, Tempo, 352941
1, 349056, Tempo, 363636
1, 349440, Tempo, 375000
1, 349824, Tempo, 387096
1, 350208, Tempo, 342857
1, 368640, Tempo, 352941
1, 370944, Tempo, 400000
1, 373248, Tempo, 333333
1, 429696, Tempo, 342857
1, 429888, Tempo, 352941
1, 430080, Tempo, 363636
1, 430272, Tempo, 375000
1, 430464, Tempo, 387096
1, 430656, Tempo, 400000
1, 431232, Tempo, 352941
1, 440448, Tempo, 333333
1, 455232, Tempo, 338983
1, 455424, Tempo, 346820
1, 455616, Tempo, 352941
1, 455808, Tempo, 363636
1, 456000, Tempo, 375000
1, 456192, Tempo, 352941
1, 470016, Tempo, 342857
1, 479232, Tempo, 333333
1, 482688, Tempo, 338983
1, 482880, Tempo, 346820
1, 483072, Tempo, 352941
1, 483264, Tempo, 359281
1, 483456, Tempo, 368098
1, 483648, Tempo, 375000
1, 484224, Tempo, 333333
1, 571008, Tempo, 422535
1, 571008, End_track
2, 0, Start_track
2, 0, Title_t, "Right"
2, 0, Control_c, 0, 0, 0
2, 0, Program_c, 0, 0
2, 0, Control_c, 0, 7, 100
2, 0, Control_c, 0, 10, 72
2, 0, Control_c, 0, 91, 127
2, 0, Key_signature, -3, "major"
2, 0, Note_on_c, 0, 67, 90
2, 0, Note_on_c, 0, 63, 90
2, 0, Note_on_c, 0, 58, 90
2, 1148, Note_off_c, 0, 67, 100
2, 1148, Note_off_c, 0, 63, 100
2, 1148, Note_off_c, 0, 58, 100
2, 1152, Note_on_c, 0, 63, 90
2, 1152, Note_on_c, 0, 58, 90
2, 1152, Note_on_c, 0, 55, 90
2, 1532, Note_off_c, 0, 63, 100
2, 1532, Note_off_c, 0, 58, 100
2, 1532, Note_off_c, 0, 55, 100
2, 2304, Note_on_c, 0, 70, 110
2, 2304, Note_on_c, 0, 67, 110
2, 2304, Note_on_c, 0, 63, 110
2, 2304, Note_on_c, 0, 58, 110
2, 3452, Note_off_c, 0, 70, 100
2, 3452, Note_off_c, 0, 67, 100
2, 3452, Note_off_c, 0, 63, 100
2, 3452, Note_off_c, 0, 58, 100
2, 3456, Note_on_c, 0, 67, 100
2, 3456, Note_on_c, 0, 63, 100
2, 3456, Note_on_c, 0, 58, 100
2, 3456, Note_on_c, 0, 55, 100
2, 3836, Note_off_c, 0, 67, 100
2, 3836, Note_off_c, 0, 63, 100
2, 3836, Note_off_c, 0, 58, 100
2, 3836, Note_off_c, 0, 55, 100
2, 4416, Note_on_c, 0, 70, 80
2, 4604, Note_off_c, 0, 70, 100
2, 4608, Note_on_c, 0, 75, 80
2, 4796, Note_off_c, 0, 75, 100
2, 4800, Note_on_c, 0, 74, 80
2, 4988, Note_off_c, 0, 74, 100
2, 4992, Note_on_c, 0, 77, 80
2, 5180, Note_off_c, 0, 77, 100
2, 5184, Note_on_c, 0, 75, 80
2, 5372, Note_off_c, 0, 75, 100
2, 5376, Note_on_c, 0, 74, 80
2, 5564, Note_off_c, 0, 74, 100
2, 5568, Note_on_c, 0, 77, 80
2, 5756, Note_off_c, 0, 77, 100
2, 5760, Note_on_c, 0, 75, 80
2, 5948, Note_off_c, 0, 75, 100
2, 5952, Note_on_c, 0, 74, 80
2, 6140, Note_off_c, 0, 74, 100
2, 6144, Note_on_c, 0, 77, 80
2, 6332, Note_off_c, 0, 77, 100
2, 6336, Note_on_c, 0, 75, 80
2, 6524, Note_off_c, 0, 75, 100
2, 6528, Note_on_c, 0, 74, 80
2, 6716, Note_off_c, 0, 74, 100
2, 6720, Note_on_c, 0, 72, 80
2, 6908, Note_off_c, 0, 72, 100
2, 6912, Note_on_c, 0, 80, 80
2, 7100, Note_off_c, 0, 80, 100
2, 7104, Note_on_c, 0, 79, 80
2, 7292, Note_off_c, 0, 79, 100
2, 7296, Note_on_c, 0, 82, 80
2, 7484, Note_off_c, 0, 82, 100
2, 7488, Note_on_c, 0, 80, 80
2, 7676, Note_off_c, 0, 80, 100
2, 7680, Note_on_c, 0, 79, 80
2, 7868, Note_off_c, 0, 79, 100
2, 7872, Note_on_c, 0, 82, 80
2, 8060, Note_off_c, 0, 82, 100
2, 8064, Note_on_c, 0, 80, 80
2, 8252, Note_off_c, 0, 80, 100
2, 8256, Note_on_c, 0, 79, 80
2, 8444, Note_off_c, 0, 79, 100
2, 8448, Note_on_c, 0, 82, 80
2, 8636, Note_off_c, 0, 82, 100
2, 8640, Note_on_c, 0, 80, 80
2, 8828, Note_off_c, 0, 80, 100
2, 8832, Note_on_c, 0, 79, 80
2, 9020, Note_off_c, 0, 79, 100
2, 9024, Note_on_c, 0, 77, 80
2, 9212, Note_off_c, 0, 77, 100
2, 9216, Note_on_c, 0, 87, 80
2, 9404, Note_off_c, 0, 87, 100
2, 9408, Note_on_c, 0, 86, 82
2, 9596, Note_off_c, 0, 86, 100
2, 9600, Note_on_c, 0, 89, 84
2, 9788, Note_off_c, 0, 89, 100
2, 9792, Note_on_c, 0, 87, 87
2, 9980, Note_off_c, 0, 87, 100
2, 9984, Note_on_c, 0, 86, 89
2, 10172, Note_off_c, 0, 86, 100
2, 10176, Note_on_c, 0, 89, 92
2, 10364, Note_off_c, 0, 89, 100
2, 10368, Note_on_c, 0, 87, 94
2, 10556, Note_off_c, 0, 87, 100
2, 10560, Note_on_c, 0, 86, 97
2, 10748, Note_off_c, 0, 86, 100
2, 10752, Note_on_c, 0, 89, 99
2, 10940, Note_off_c, 0, 89, 100
2, 10944, Note_on_c, 0, 87, 100
2, 11132, Note_off_c, 0, 87, 100
2, 11136, Note_on_c, 0, 85, 91
2, 11324, Note_off_c, 0, 85, 100
2, 11328, Note_on_c, 0, 84, 81
2, 11516, Note_off_c, 0, 84, 100
2, 11520, Note_on_c, 0, 83, 80
2, 11708, Note_off_c, 0, 83, 100
2, 11712, Note_on_c, 0, 84, 80
2, 11900, Note_off_c, 0, 84, 100
2, 11904, Note_on_c, 0, 82, 80
2, 12092, Note_off_c, 0, 82, 100
2, 12096, Note_on_c, 0, 80, 80
2, 12284, Note_off_c, 0, 80, 100
2, 12288, Note_on_c, 0, 79, 80
2, 12476, Note_off_c, 0, 79, 100
2, 12480, Note_on_c, 0, 77, 80
2, 12668, Note_off_c, 0, 77, 100
2, 12672, Note_on_c, 0, 75, 80
2, 12860, Note_off_c, 0, 75, 100
2, 12864, Note_on_c, 0, 74, 80
2, 13052, Note_off_c, 0, 74, 100
2, 13056, Note_on_c, 0, 77, 80
2, 13244, Note_off_c, 0, 77, 100
2, 13248, Note_on_c, 0, 80, 80
2, 13436, Note_off_c, 0, 80, 100
2, 13440, Note_on_c, 0, 77, 80
2, 13628, Note_off_c, 0, 77, 100
2, 13632, Note_on_c, 0, 74, 80
2, 13820, Note_off_c, 0, 74, 100
2, 13824, Note_on_c, 0, 75, 80
2, 14204, Note_off_c, 0, 75, 100
2, 14400, Note_on_c, 0, 79, 83
2, 14400, Note_on_c, 0, 75, 83
2, 14400, Note_on_c, 0, 67, 83
2, 15548, Note_off_c, 0, 67, 100
2, 15548, Note_off_c, 0, 75, 100
2, 15548, Note_off_c, 0, 79, 100
2, 15552, Note_on_c, 0, 80, 90
2, 15552, Note_on_c, 0, 75, 90
2, 15552, Note_on_c, 0, 68, 90
2, 16124, Note_off_c, 0, 80, 100
2, 16124, Note_off_c, 0, 75, 100
2, 16124, Note_off_c, 0, 68, 100
2, 16128, Note_on_c, 0, 82, 94
2, 16128, Note_on_c, 0, 79, 94
2, 16128, Note_on_c, 0, 75, 94
2, 16128, Note_on_c, 0, 70, 94
2, 17276, Note_off_c, 0, 82, 100
2, 17276, Note_off_c, 0, 79, 100
2, 17276, Note_off_c, 0, 75, 100
2, 17276, Note_off_c, 0, 70, 100
2, 17280, Note_on_c, 0, 74, 110
2, 17280, Note_on_c, 0, 70, 110
2, 17280, Note_on_c, 0, 68, 110
2, 17280, Note_on_c, 0, 62, 110
2, 18428, Note_off_c, 0, 74, 100
2, 18428, Note_off_c, 0, 70, 100
2, 18428, Note_off_c, 0, 68, 100
2, 18428, Note_off_c, 0, 62, 100
2, 18432, Note_on_c, 0, 75, 100
2, 18432, Note_on_c, 0, 70, 100
2, 18432, Note_on_c, 0, 67, 100
2, 18432, Note_on_c, 0, 63, 100
2, 18812, Note_off_c, 0, 75, 100
2, 18812, Note_off_c, 0, 70, 100
2, 18812, Note_off_c, 0, 67, 100
2, 18812, Note_off_c, 0, 63, 100
2, 20160, Note_on_c, 0, 75, 80
2, 20348, Note_off_c, 0, 75, 100
2, 20352, Note_on_c, 0, 77, 80
2, 20540, Note_off_c, 0, 77, 100
2, 20544, Note_on_c, 0, 79, 80
2, 20732, Note_off_c, 0, 79, 100
2, 20736, Note_on_c, 0, 77, 80
2, 20924, Note_off_c, 0, 77, 100
2, 20928, Note_on_c, 0, 75, 80
2, 21116, Note_off_c, 0, 75, 100
2, 21120, Note_on_c, 0, 74, 80
2, 21308, Note_off_c, 0, 74, 100
2, 21312, Note_on_c, 0, 72, 80
2, 21500, Note_off_c, 0, 72, 100
2, 21504, Note_on_c, 0, 70, 80
2, 21692, Note_off_c, 0, 70, 100
2, 21696, Note_on_c, 0, 68, 80
2, 21884, Note_off_c, 0, 68, 100
2, 21888, Note_on_c, 0, 67, 80
2, 22076, Note_off_c, 0, 67, 100
2, 22080, Note_on_c, 0, 68, 80
2, 22268, Note_off_c, 0, 68, 100
2, 22272, Note_on_c, 0, 67, 80
2, 22460, Note_off_c, 0, 67, 100
2, 22464, Note_on_c, 0, 65, 80
2, 22652, Note_off_c, 0, 65, 100
2, 22656, Note_on_c, 0, 63, 80
2, 22844, Note_off_c, 0, 63, 100
2, 22848, Note_on_c, 0, 62, 80
2, 23036, Note_off_c, 0, 62, 100
2, 23040, Note_on_c, 0, 63, 80
2, 23228, Note_off_c, 0, 63, 100
2, 23232, Note_on_c, 0, 65, 81
2, 23420, Note_off_c, 0, 65, 100
2, 23424, Note_on_c, 0, 67, 83
2, 23612, Note_off_c, 0, 67, 100
2, 23616, Note_on_c, 0, 68, 85
2, 23804, Note_off_c, 0, 68, 100
2, 23808, Note_on_c, 0, 70, 87
2, 23996, Note_off_c, 0, 70, 100
2, 24000, Note_on_c, 0, 72, 89
2, 24188, Note_off_c, 0, 72, 100
2, 24192, Note_on_c, 0, 74, 90
2, 24380, Note_off_c, 0, 74, 100
2, 24384, Note_on_c, 0, 75, 92
2, 24572, Note_off_c, 0, 75, 100
2, 24576, Note_on_c, 0, 77, 94
2, 24764, Note_off_c, 0, 77, 100
2, 24768, Note_on_c, 0, 79, 96
2, 24956, Note_off_c, 0, 79, 100
2, 24960, Note_on_c, 0, 80, 98
2, 25148, Note_off_c, 0, 80, 100
2, 25152, Note_on_c, 0, 82, 99
2, 25340, Note_off_c, 0, 82, 100
2, 25344, Note_on_c, 0, 80, 100
2, 25532, Note_off_c, 0, 80, 100
2, 25536, Note_on_c, 0, 79, 100
2, 25724, Note_off_c, 0, 79, 100
2, 25728, Note_on_c, 0, 77, 100
2, 25916, Note_off_c, 0, 77, 100
2, 25920, Note_on_c, 0, 75, 100
2, 26108, Note_off_c, 0, 75, 100
2, 26112, Note_on_c, 0, 74, 100
2, 26300, Note_off_c, 0, 74, 100
2, 26304, Note_on_c, 0, 72, 100
2, 26492, Note_off_c, 0, 72, 100
2, 26496, Note_on_c, 0, 70, 100
2, 26684, Note_off_c, 0, 70, 100
2, 26688, Note_on_c, 0, 72, 100
2, 26876, Note_off_c, 0, 72, 100
2, 26880, Note_on_c, 0, 70, 100
2, 27068, Note_off_c, 0, 70, 100
2, 27072, Note_on_c, 0, 68, 100
2, 27260, Note_off_c, 0, 68, 100
2, 27264, Note_on_c, 0, 67, 100
2, 27452, Note_off_c, 0, 67, 100
2, 27456, Note_on_c, 0, 65, 100
2, 27644, Note_off_c, 0, 65, 100
2, 27648, Note_on_c, 0, 67, 120
2, 27648, Note_on_c, 0, 63, 120
2, 27648, Note_on_c, 0, 58, 120
2, 27648, Note_on_c, 0, 55, 120
2, 28796, Note_off_c, 0, 67, 100
2, 28796, Note_off_c, 0, 63, 100
2, 28796, Note_off_c, 0, 58, 100
2, 28796, Note_off_c, 0, 55, 100
2, 28800, Note_on_c, 0, 63, 120
2, 28800, Note_on_c, 0, 58, 120
2, 28800, Note_on_c, 0, 55, 120
2, 28800, Note_on_c, 0, 51, 120
2, 29180, Note_off_c, 0, 63, 100
2, 29180, Note_off_c, 0, 58, 100
2, 29180, Note_off_c, 0, 55, 100
2, 29180, Note_off_c, 0, 51, 100
2, 29760, Note_on_c, 0, 79, 70
2, 29760, Note_on_c, 0, 67, 70
2, 29948, Note_off_c, 0, 79, 100
2, 29948, Note_off_c, 0, 67, 100
2, 29952, Note_on_c, 0, 80, 70
2, 29952, Note_on_c, 0, 68, 70
2, 30332, Note_off_c, 0, 80, 100
2, 30332, Note_off_c, 0, 68, 100
2, 30336, Note_on_c, 0, 80, 70
2, 30336, Note_on_c, 0, 68, 70
2, 30524, Note_off_c, 0, 80, 100
2, 30524, Note_off_c, 0, 68, 100
2, 30528, Note_on_c, 0, 80, 70
2, 30528, Note_on_c, 0, 68, 70
2, 30908, Note_off_c, 0, 80, 100
2, 30908, Note_off_c, 0, 68, 100
2, 30912, Note_on_c, 0, 72, 70
2, 30912, Note_on_c, 0, 84, 70
2, 31100, Note_off_c, 0, 72, 100
2, 31100, Note_off_c, 0, 84, 100
2, 31104, Note_on_c, 0, 75, 70
2, 31104, Note_on_c, 0, 87, 70
2, 31484, Note_off_c, 0, 75, 100
2, 31484, Note_off_c, 0, 87, 100
2, 32256, Note_on_c, 0, 69, 120
2, 32256, Note_on_c, 0, 66, 120
2, 32256, Note_on_c, 0, 60, 120
2, 32256, Note_on_c, 0, 57, 120
2, 33404, Note_off_c, 0, 69, 100
2, 33404, Note_off_c, 0, 66, 100
2, 33404, Note_off_c, 0, 60, 100
2, 33404, Note_off_c, 0, 57, 100
2, 33408, Note_on_c, 0, 66, 120
2, 33408, Note_on_c, 0, 60, 120
2, 33408, Note_on_c, 0, 57, 120
2, 33788, Note_off_c, 0, 66, 100
2, 33788, Note_off_c, 0, 60, 100
2, 33788, Note_off_c, 0, 57, 100
2, 34368, Note_on_c, 0, 69, 70
2, 34368, Note_on_c, 0, 81, 70
2, 34556, Note_off_c, 0, 69, 100
2, 34556, Note_off_c, 0, 81, 100
2, 34560, Note_on_c, 0, 70, 70
2, 34560, Note_on_c, 0, 82, 70
2, 34940, Note_off_c, 0, 70, 100
2, 34940, Note_off_c, 0, 82, 100
2, 34944, Note_on_c, 0, 82, 70
2, 34944, Note_on_c, 0, 70, 70
2, 35132, Note_off_c, 0, 82, 100
2, 35132, Note_off_c, 0, 70, 100
2, 35136, Note_on_c, 0, 70, 70
2, 35136, Note_on_c, 0, 82, 70
2, 35516, Note_off_c, 0, 70, 100
2, 35516, Note_off_c, 0, 82, 100
2, 35520, Note_on_c, 0, 73, 70
2, 35520, Note_on_c, 0, 85, 70
2, 35708, Note_off_c, 0, 73, 100
2, 35708, Note_off_c, 0, 85, 100
2, 35712, Note_on_c, 0, 77, 70
2, 35712, Note_on_c, 0, 89, 70
2, 36092, Note_off_c, 0, 77, 100
2, 36092, Note_off_c, 0, 89, 100
2, 36864, Note_on_c, 0, 85, 120
2, 36864, Note_on_c, 0, 76, 120
2, 36864, Note_on_c, 0, 73, 120
2, 38012, Note_off_c, 0, 85, 100
2, 38012, Note_off_c, 0, 76, 100
2, 38012, Note_off_c, 0, 73, 100
2, 38016, Note_on_c, 0, 82, 120
2, 38016, Note_on_c, 0, 76, 120
2, 38016, Note_on_c, 0, 70, 120
2, 39164, Note_off_c, 0, 82, 100
2, 39164, Note_off_c, 0, 76, 100
2, 39164, Note_off_c, 0, 70, 100
2, 39168, Note_on_c, 0, 81, 120
2, 39548, Note_off_c, 0, 81, 100
2, 39552, Note_on_c, 0, 84, 80
2, 39740, Note_off_c, 0, 84, 100
2, 39744, Note_on_c, 0, 77, 80
2, 40124, Note_off_c, 0, 77, 100
2, 40128, Note_on_c, 0, 81, 80
2, 40316, Note_off_c, 0, 81, 100
2, 40320, Note_on_c, 0, 82, 80
2, 40700, Note_off_c, 0, 82, 100
2, 40704, Note_on_c, 0, 85, 80
2, 40892, Note_off_c, 0, 85, 100
2, 40896, Note_on_c, 0, 77, 80
2, 41276, Note_off_c, 0, 77, 100
2, 41280, Note_on_c, 0, 82, 80
2, 41468, Note_off_c, 0, 82, 100
2, 41472, Note_on_c, 0, 81, 80
2, 41852, Note_off_c, 0, 81, 100
2, 41856, Note_on_c, 0, 84, 80
2, 42044, Note_off_c, 0, 84, 100
2, 42048, Note_on_c, 0, 81, 80
2, 42428, Note_off_c, 0, 81, 100
2, 42432, Note_on_c, 0, 77, 80
2, 42620, Note_off_c, 0, 77, 100
2, 42624, Note_on_c, 0, 82, 80
2, 43004, Note_off_c, 0, 82, 100
2, 43008, Note_on_c, 0, 85, 80
2, 43196, Note_off_c, 0, 85, 100
2, 43200, Note_on_c, 0, 77, 80
2, 43580, Note_off_c, 0, 77, 100
2, 43584, Note_on_c, 0, 82, 80
2, 43772, Note_off_c, 0, 82, 100
2, 43776, Note_on_c, 0, 81, 80
2, 43964, Note_off_c, 0, 81, 100
2, 43968, Note_on_c, 0, 83, 80
2, 44156, Note_off_c, 0, 83, 100
2, 44160, Note_on_c, 0, 84, 80
2, 44348, Note_off_c, 0, 84, 100
2, 44352, Note_on_c, 0, 77, 80
2, 44540, Note_off_c, 0, 77, 100
2, 44544, Note_on_c, 0, 80, 80
2, 44732, Note_off_c, 0, 80, 100
2, 44736, Note_on_c, 0, 81, 80
2, 44924, Note_off_c, 0, 81, 100
2, 44928, Note_on_c, 0, 72, 80
2, 45116, Note_off_c, 0, 72, 100
2, 45120, Note_on_c, 0, 76, 80
2, 45308, Note_off_c, 0, 76, 100
2, 45312, Note_on_c, 0, 77, 80
2, 45500, Note_off_c, 0, 77, 100
2, 45504, Note_on_c, 0, 69, 80
2, 45692, Note_off_c, 0, 69, 100
2, 45696, Note_on_c, 0, 71, 80
2, 45884, Note_off_c, 0, 71, 100
2, 45888, Note_on_c, 0, 72, 80
2, 46076, Note_off_c, 0, 72, 100
2, 46080, Note_on_c, 0, 65, 80
2, 46268, Note_off_c, 0, 65, 100
2, 46272, Note_on_c, 0, 69, 80
2, 46460, Note_off_c, 0, 69, 100
2, 46464, Note_on_c, 0, 72, 80
2, 46652, Note_off_c, 0, 72, 100
2, 46656, Note_on_c, 0, 77, 80
2, 46844, Note_off_c, 0, 77, 100
2, 46848, Note_on_c, 0, 69, 80
2, 47036, Note_off_c, 0, 69, 100
2, 47040, Note_on_c, 0, 72, 80
2, 47228, Note_off_c, 0, 72, 100
2, 47232, Note_on_c, 0, 65, 80
2, 47420, Note_off_c, 0, 65, 100
2, 47424, Note_on_c, 0, 72, 80
2, 47612, Note_off_c, 0, 72, 100
2, 47616, Note_on_c, 0, 69, 80
2, 47804, Note_off_c, 0, 69, 100
2, 47808, Note_on_c, 0, 70, 80
2, 47996, Note_off_c, 0, 70, 100
2, 48000, Note_on_c, 0, 72, 80
2, 48188, Note_off_c, 0, 72, 100
2, 48192, Note_on_c, 0, 74, 80
2, 48380, Note_off_c, 0, 74, 100
2, 48384, Note_on_c, 0, 65, 80
2, 48572, Note_off_c, 0, 65, 100
2, 48576, Note_on_c, 0, 69, 80
2, 48764, Note_off_c, 0, 69, 100
2, 48768, Note_on_c, 0, 72, 80
2, 48956, Note_off_c, 0, 72, 100
2, 48960, Note_on_c, 0, 77, 80
2, 49148, Note_off_c, 0, 77, 100
2, 49152, Note_on_c, 0, 69, 80
2, 49340, Note_off_c, 0, 69, 100
2, 49344, Note_on_c, 0, 72, 80
2, 49532, Note_off_c, 0, 72, 100
2, 49536, Note_on_c, 0, 65, 80
2, 49724, Note_off_c, 0, 65, 100
2, 49728, Note_on_c, 0, 72, 80
2, 49916, Note_off_c, 0, 72, 100
2, 49920, Note_on_c, 0, 69, 80
2, 50108, Note_off_c, 0, 69, 100
2, 50112, Note_on_c, 0, 70, 80
2, 50300, Note_off_c, 0, 70, 100
2, 50304, Note_on_c, 0, 72, 80
2, 50492, Note_off_c, 0, 72, 100
2, 50496, Note_on_c, 0, 74, 80
2, 50684, Note_off_c, 0, 74, 100
2, 50688, Note_on_c, 0, 66, 80
2, 50876, Note_off_c, 0, 66, 100
2, 50880, Note_on_c, 0, 69, 80
2, 51068, Note_off_c, 0, 69, 100
2, 51072, Note_on_c, 0, 66, 80
2, 51260, Note_off_c, 0, 66, 100
2, 51264, Note_on_c, 0, 67, 80
2, 51452, Note_off_c, 0, 67, 100
2, 51456, Note_on_c, 0, 69, 80
2, 51644, Note_off_c, 0, 69, 100
2, 51648, Note_on_c, 0, 70, 80
2, 51836, Note_off_c, 0, 70, 100
2, 51840, Note_on_c, 0, 62, 80
2, 52028, Note_off_c, 0, 62, 100
2, 52032, Note_on_c, 0, 65, 80
2, 52220, Note_off_c, 0, 65, 100
2, 52224, Note_on_c, 0, 62, 80
2, 52412, Note_off_c, 0, 62, 100
2, 52416, Note_on_c, 0, 63, 80
2, 52604, Note_off_c, 0, 63, 100
2, 52608, Note_on_c, 0, 65, 80
2, 52796, Note_off_c, 0, 65, 100
2, 52800, Note_on_c, 0, 67, 80
2, 52988, Note_off_c, 0, 67, 100
2, 52992, Note_on_c, 0, 59, 80
2, 53180, Note_off_c, 0, 59, 100
2, 53184, Note_on_c, 0, 62, 80
2, 53372, Note_off_c, 0, 62, 100
2, 53376, Note_on_c, 0, 59, 80
2, 53564, Note_off_c, 0, 59, 100
2, 53568, Note_on_c, 0, 60, 80
2, 53756, Note_off_c, 0, 60, 100
2, 53760, Note_on_c, 0, 62, 80
2, 53948, Note_off_c, 0, 62, 100
2, 53952, Note_on_c, 0, 63, 80
2, 54140, Note_off_c, 0, 63, 100
2, 54144, Note_on_c, 0, 58, 80
2, 54332, Note_off_c, 0, 58, 100
2, 54336, Note_on_c, 0, 62, 80
2, 54524, Note_off_c, 0, 62, 100
2, 54528, Note_on_c, 0, 65, 80
2, 54716, Note_off_c, 0, 65, 100
2, 54720, Note_on_c, 0, 63, 80
2, 54908, Note_off_c, 0, 63, 100
2, 54912, Note_on_c, 0, 60, 80
2, 55100, Note_off_c, 0, 60, 100
2, 55104, Note_on_c, 0, 57, 80
2, 55292, Note_off_c, 0, 57, 100
2, 55296, Note_on_c, 0, 58, 80
2, 55676, Note_off_c, 0, 58, 100
2, 57600, Note_on_c, 0, 69, 80
2, 57788, Note_off_c, 0, 69, 100
2, 57792, Note_on_c, 0, 89, 106
2, 59132, Note_off_c, 0, 89, 100
2, 59136, Note_on_c, 0, 69, 80
2, 59324, Note_off_c, 0, 69, 100
2, 59328, Note_on_c, 0, 70, 80
2, 59516, Note_off_c, 0, 70, 100
2, 59520, Note_on_c, 0, 72, 80
2, 59708, Note_off_c, 0, 72, 100
2, 59712, Note_on_c, 0, 74, 80
2, 59900, Note_off_c, 0, 74, 100
2, 59904, Note_on_c, 0, 69, 80
2, 60092, Note_off_c, 0, 69, 100
2, 60096, Note_on_c, 0, 89, 105
2, 61436, Note_off_c, 0, 89, 100
2, 61440, Note_on_c, 0, 69, 80
2, 61628, Note_off_c, 0, 69, 100
2, 61632, Note_on_c, 0, 70, 80
2, 61820, Note_off_c, 0, 70, 100
2, 61824, Note_on_c, 0, 72, 80
2, 62012, Note_off_c, 0, 72, 100
2, 62016, Note_on_c, 0, 74, 80
2, 62204, Note_off_c, 0, 74, 100
2, 62208, Note_on_c, 0, 66, 80
2, 62396, Note_off_c, 0, 66, 100
2, 62400, Note_on_c, 0, 69, 80
2, 62588, Note_off_c, 0, 69, 100
2, 62592, Note_on_c, 0, 66, 80
2, 62780, Note_off_c, 0, 66, 100
2, 62784, Note_on_c, 0, 67, 80
2, 62972, Note_off_c, 0, 67, 100
2, 62976, Note_on_c, 0, 69, 80
2, 63164, Note_off_c, 0, 69, 100
2, 63168, Note_on_c, 0, 70, 80
2, 63356, Note_off_c, 0, 70, 100
2, 63360, Note_on_c, 0, 62, 80
2, 63548, Note_off_c, 0, 62, 100
2, 63552, Note_on_c, 0, 65, 80
2, 63740, Note_off_c, 0, 65, 100
2, 63744, Note_on_c, 0, 62, 80
2, 63932, Note_off_c, 0, 62, 100
2, 63936, Note_on_c, 0, 63, 80
2, 64124, Note_off_c, 0, 63, 100
2, 64128, Note_on_c, 0, 65, 80
2, 64316, Note_off_c, 0, 65, 100
2, 64320, Note_on_c, 0, 67, 80
2, 64508, Note_off_c, 0, 67, 100
2, 64512, Note_on_c, 0, 59, 80
2, 64700, Note_off_c, 0, 59, 100
2, 64704, Note_on_c, 0, 62, 80
2, 64892, Note_off_c, 0, 62, 100
2, 64896, Note_on_c, 0, 59, 80
2, 65084, Note_off_c, 0, 59, 100
2, 65088, Note_on_c, 0, 60, 80
2, 65276, Note_off_c, 0, 60, 100
2, 65280, Note_on_c, 0, 62, 80
2, 65468, Note_off_c, 0, 62, 100
2, 65472, Note_on_c, 0, 63, 80
2, 65660, Note_off_c, 0, 63, 100
2, 65664, Note_on_c, 0, 58, 80
2, 65852, Note_off_c, 0, 58, 100
2, 65856, Note_on_c, 0, 62, 80
2, 66044, Note_off_c, 0, 62, 100
2, 66048, Note_on_c, 0, 65, 80
2, 66236, Note_off_c, 0, 65, 100
2, 66240, Note_on_c, 0, 60, 80
2, 66428, Note_off_c, 0, 60, 100
2, 66432, Note_on_c, 0, 63, 80
2, 66620, Note_off_c, 0, 63, 100
2, 66624, Note_on_c, 0, 69, 80
2, 66812, Note_off_c, 0, 69, 100
2, 66816, Note_on_c, 0, 70, 80
2, 66816, Note_on_c, 0, 65, 80
2, 66816, Note_on_c, 0, 62, 80
2, 67196, Note_off_c, 0, 70, 100
2, 67196, Note_off_c, 0, 65, 100
2, 67196, Note_off_c, 0, 62, 100
2, 67392, Note_on_c, 0, 74, 80
2, 67392, Note_on_c, 0, 62, 80
2, 67964, Note_off_c, 0, 74, 100
2, 67964, Note_off_c, 0, 62, 100
2, 67968, Note_on_c, 0, 63, 80
2, 67968, Note_on_c, 0, 72, 80
2, 68540, Note_off_c, 0, 63, 100
2, 68540, Note_off_c, 0, 72, 100
2, 68544, Note_on_c, 0, 70, 80
2, 68544, Note_on_c, 0, 65, 80
2, 69116, Note_off_c, 0, 70, 100
2, 69116, Note_off_c, 0, 65, 100
2, 69120, Note_on_c, 0, 67, 80
2, 69500, Note_off_c, 0, 67, 100
2, 69696, Note_on_c, 0, 75, 80
2, 69696, Note_on_c, 0, 63, 80
2, 70268, Note_off_c, 0, 75, 100
2, 70268, Note_off_c, 0, 63, 100
2, 70272, Note_on_c, 0, 74, 80
2, 70272, Note_on_c, 0, 65, 80
2, 70844, Note_off_c, 0, 74, 100
2, 70844, Note_off_c, 0, 65, 100
2, 70848, Note_on_c, 0, 72, 80
2, 70848, Note_on_c, 0, 67, 80
2, 71420, Note_off_c, 0, 72, 100
2, 71420, Note_off_c, 0, 67, 100
2, 71424, Note_on_c, 0, 69, 80
2, 71804, Note_off_c, 0, 69, 100
2, 72000, Note_on_c, 0, 81, 80
2, 72000, Note_on_c, 0, 69, 80
2, 72572, Note_off_c, 0, 81, 100
2, 72572, Note_off_c, 0, 69, 100
2, 72576, Note_on_c, 0, 82, 80
2, 72576, Note_on_c, 0, 70, 80
2, 73148, Note_off_c, 0, 82, 100
2, 73148, Note_off_c, 0, 70, 100
2, 73152, Note_on_c, 0, 72, 89
2, 73152, Note_on_c, 0, 84, 89
2, 73724, Note_off_c, 0, 72, 100
2, 73724, Note_off_c, 0, 84, 100
2, 73728, Note_on_c, 0, 86, 99
2, 73728, Note_on_c, 0, 74, 99
2, 74300, Note_off_c, 0, 86, 100
2, 74300, Note_off_c, 0, 74, 100
2, 74304, Note_on_c, 0, 77, 100
2, 74304, Note_on_c, 0, 89, 100
2, 75068, Note_off_c, 0, 77, 100
2, 75072, Note_on_c, 0, 79, 100
2, 75260, Note_off_c, 0, 79, 100
2, 75264, Note_on_c, 0, 77, 96
2, 75452, Note_off_c, 0, 89, 100
2, 75452, Note_off_c, 0, 77, 100
2, 75456, Note_on_c, 0, 89, 91
2, 75456, Note_on_c, 0, 76, 91
2, 75500, Note_off_c, 0, 89, 100
2, 75504, Note_on_c, 0, 88, 89
2, 75644, Note_off_c, 0, 88, 100
2, 75648, Note_on_c, 0, 86, 86
2, 75836, Note_off_c, 0, 86, 100
2, 75840, Note_on_c, 0, 88, 81
2, 76028, Note_off_c, 0, 76, 100
2, 76028, Note_off_c, 0, 88, 100
2, 76032, Note_on_c, 0, 89, 80
2, 76032, Note_on_c, 0, 77, 80
2, 76412, Note_off_c, 0, 89, 100
2, 76412, Note_off_c, 0, 77, 100
2, 76608, Note_on_c, 0, 62, 80
2, 76800, Note_on_c, 0, 74, 80
2, 76988, Note_off_c, 0, 74, 100
2, 76992, Note_on_c, 0, 74, 80
2, 77180, Note_off_c, 0, 62, 100
2, 77180, Note_off_c, 0, 74, 100
2, 77184, Note_on_c, 0, 63, 80
2, 77184, Note_on_c, 0, 74, 80
2, 77372, Note_off_c, 0, 74, 100
2, 77376, Note_on_c, 0, 72, 80
2, 77564, Note_off_c, 0, 72, 100
2, 77568, Note_on_c, 0, 72, 80
2, 77756, Note_off_c, 0, 63, 100
2, 77756, Note_off_c, 0, 72, 100
2, 77760, Note_on_c, 0, 65, 80
2, 77952, Note_on_c, 0, 70, 80
2, 78140, Note_off_c, 0, 70, 100
2, 78144, Note_on_c, 0, 70, 80
2, 78332, Note_off_c, 0, 65, 100
2, 78332, Note_off_c, 0, 70, 100
2, 78336, Note_on_c, 0, 69, 80
2, 78524, Note_off_c, 0, 69, 100
2, 78528, Note_on_c, 0, 67, 80
2, 78716, Note_off_c, 0, 67, 100
2, 78720, Note_on_c, 0, 67, 80
2, 78908, Note_off_c, 0, 67, 100
2, 78912, Note_on_c, 0, 63, 80
2, 79104, Note_on_c, 0, 75, 80
2, 79292, Note_off_c, 0, 75, 100
2, 79296, Note_on_c, 0, 75, 80
2, 79484, Note_off_c, 0, 63, 100
2, 79484, Note_off_c, 0, 75, 100
2, 79488, Note_on_c, 0, 65, 80
2, 79488, Note_on_c, 0, 75, 80
2, 79676, Note_off_c, 0, 75, 100
2, 79680, Note_on_c, 0, 74, 80
2, 79868, Note_off_c, 0, 74, 100
2, 79872, Note_on_c, 0, 74, 80
2, 80060, Note_off_c, 0, 65, 100
2, 80060, Note_off_c, 0, 74, 100
2, 80064, Note_on_c, 0, 67, 80
2, 80256, Note_on_c, 0, 72, 80
2, 80444, Note_off_c, 0, 72, 100
2, 80448, Note_on_c, 0, 72, 80
2, 80636, Note_off_c, 0, 67, 100
2, 80636, Note_off_c, 0, 72, 100
2, 80640, Note_on_c, 0, 70, 80
2, 80828, Note_off_c, 0, 70, 100
2, 80832, Note_on_c, 0, 69, 80
2, 81020, Note_off_c, 0, 69, 100
2, 81024, Note_on_c, 0, 69, 80
2, 81212, Note_off_c, 0, 69, 100
2, 81216, Note_on_c, 0, 81, 80
2, 81216, Note_on_c, 0, 77, 80
2, 81216, Note_on_c, 0, 69, 80
2, 81788, Note_off_c, 0, 81, 100
2, 81788, Note_off_c, 0, 77, 100
2, 81788, Note_off_c, 0, 69, 100
2, 81792, Note_on_c, 0, 79, 80
2, 81792, Note_on_c, 0, 82, 80
2, 81792, Note_on_c, 0, 70, 80
2, 82364, Note_off_c, 0, 79, 100
2, 82364, Note_off_c, 0, 82, 100
2, 82364, Note_off_c, 0, 70, 100
2, 82368, Note_on_c, 0, 72, 80
2, 82368, Note_on_c, 0, 81, 80
2, 82368, Note_on_c, 0, 84, 80
2, 82940, Note_off_c, 0, 72, 100
2, 82940, Note_off_c, 0, 81, 100
2, 82940, Note_off_c, 0, 84, 100
2, 82944, Note_on_c, 0, 86, 80
2, 82944, Note_on_c, 0, 82, 80
2, 82944, Note_on_c, 0, 74, 80
2, 83324, Note_off_c, 0, 86, 100
2, 83324, Note_off_c, 0, 82, 100
2, 83324, Note_off_c, 0, 74, 100
2, 83712, Note_on_c, 0, 82, 80
2, 83712, Note_on_c, 0, 70, 80
2, 83900, Note_off_c, 0, 82, 100
2, 83900, Note_off_c, 0, 70, 100
2, 83904, Note_on_c, 0, 82, 80
2, 83904, Note_on_c, 0, 70, 80
2, 84092, Note_off_c, 0, 82, 100
2, 84092, Note_off_c, 0, 70, 100
2, 84096, Note_on_c, 0, 82, 80
2, 84096, Note_on_c, 0, 70, 80
2, 84284, Note_off_c, 0, 82, 100
2, 84284, Note_off_c, 0, 70, 100
2, 84288, Note_on_c, 0, 81, 80
2, 84288, Note_on_c, 0, 69, 80
2, 84476, Note_off_c, 0, 81, 100
2, 84476, Note_off_c, 0, 69, 100
2, 84480, Note_on_c, 0, 81, 80
2, 84480, Note_on_c, 0, 69, 80
2, 84668, Note_off_c, 0, 81, 100
2, 84668, Note_off_c, 0, 69, 100
2, 84864, Note_on_c, 0, 79, 80
2, 84864, Note_on_c, 0, 67, 80
2, 85052, Note_off_c, 0, 79, 100
2, 85052, Note_off_c, 0, 67, 100
2, 85056, Note_on_c, 0, 79, 80
2, 85056, Note_on_c, 0, 67, 80
2, 85244, Note_off_c, 0, 79, 100
2, 85244, Note_off_c, 0, 67, 100
2, 85248, Note_on_c, 0, 79, 80
2, 85248, Note_on_c, 0, 67, 80
2, 85436, Note_off_c, 0, 79, 100
2, 85436, Note_off_c, 0, 67, 100
2, 85440, Note_on_c, 0, 77, 80
2, 85440, Note_on_c, 0, 65, 80
2, 85628, Note_off_c, 0, 77, 100
2, 85628, Note_off_c, 0, 65, 100
2, 85632, Note_on_c, 0, 77, 80
2, 85632, Note_on_c, 0, 65, 80
2, 85820, Note_off_c, 0, 77, 100
2, 85820, Note_off_c, 0, 65, 100
2, 86016, Note_on_c, 0, 75, 80
2, 86016, Note_on_c, 0, 63, 80
2, 86204, Note_off_c, 0, 75, 100
2, 86204, Note_off_c, 0, 63, 100
2, 86208, Note_on_c, 0, 75, 80
2, 86208, Note_on_c, 0, 63, 80
2, 86396, Note_off_c, 0, 75, 100
2, 86396, Note_off_c, 0, 63, 100
2, 86400, Note_on_c, 0, 75, 80
2, 86400, Note_on_c, 0, 63, 80
2, 86588, Note_off_c, 0, 75, 100
2, 86588, Note_off_c, 0, 63, 100
2, 86592, Note_on_c, 0, 74, 81
2, 86592, Note_on_c, 0, 62, 81
2, 86780, Note_off_c, 0, 74, 100
2, 86780, Note_off_c, 0, 62, 100
2, 86784, Note_on_c, 0, 74, 83
2, 86784, Note_on_c, 0, 62, 83
2, 86972, Note_off_c, 0, 74, 100
2, 86972, Note_off_c, 0, 62, 100
2, 87168, Note_on_c, 0, 72, 87
2, 87168, Note_on_c, 0, 60, 87
2, 87356, Note_off_c, 0, 72, 100
2, 87356, Note_off_c, 0, 60, 100
2, 87360, Note_on_c, 0, 72, 88
2, 87360, Note_on_c, 0, 60, 88
2, 87548, Note_off_c, 0, 72, 100
2, 87548, Note_off_c, 0, 60, 100
2, 87552, Note_on_c, 0, 72, 90
2, 87552, Note_on_c, 0, 60, 90
2, 87740, Note_off_c, 0, 72, 100
2, 87740, Note_off_c, 0, 60, 100
2, 87744, Note_on_c, 0, 70, 92
2, 87744, Note_on_c, 0, 58, 92
2, 87932, Note_off_c, 0, 70, 100
2, 87932, Note_off_c, 0, 58, 100
2, 87936, Note_on_c, 0, 70, 94
2, 87936, Note_on_c, 0, 58, 94
2, 88124, Note_off_c, 0, 70, 100
2, 88124, Note_off_c, 0, 58, 100
2, 88128, Note_on_c, 0, 70, 95
2, 88128, Note_on_c, 0, 58, 95
2, 88316, Note_off_c, 0, 70, 100
2, 88316, Note_off_c, 0, 58, 100
2, 88320, Note_on_c, 0, 69, 97
2, 88320, Note_on_c, 0, 57, 97
2, 88508, Note_off_c, 0, 69, 100
2, 88508, Note_off_c, 0, 57, 100
2, 88512, Note_on_c, 0, 69, 99
2, 88512, Note_on_c, 0, 57, 99
2, 88700, Note_off_c, 0, 69, 100
2, 88700, Note_off_c, 0, 57, 100
2, 88704, Note_on_c, 0, 69, 101
2, 88704, Note_on_c, 0, 57, 101
2, 88892, Note_off_c, 0, 69, 100
2, 88892, Note_off_c, 0, 57, 100
2, 88896, Note_on_c, 0, 67, 102
2, 88896, Note_on_c, 0, 55, 102
2, 89084, Note_off_c, 0, 67, 100
2, 89084, Note_off_c, 0, 55, 100
2, 89088, Note_on_c, 0, 67, 104
2, 89088, Note_on_c, 0, 55, 104
2, 89276, Note_off_c, 0, 67, 100
2, 89276, Note_off_c, 0, 55, 100
2, 89280, Note_on_c, 0, 67, 106
2, 89280, Note_on_c, 0, 55, 106
2, 89468, Note_off_c, 0, 67, 100
2, 89468, Note_off_c, 0, 55, 100
2, 89472, Note_on_c, 0, 65, 108
2, 89472, Note_on_c, 0, 53, 108
2, 89660, Note_off_c, 0, 65, 100
2, 89660, Note_off_c, 0, 53, 100
2, 89664, Note_on_c, 0, 65, 109
2, 89664, Note_on_c, 0, 53, 109
2, 89852, Note_off_c, 0, 65, 100
2, 89852, Note_off_c, 0, 53, 100
2, 89856, Note_on_c, 0, 65, 120
2, 89856, Note_on_c, 0, 53, 120
2, 90044, Note_off_c, 0, 65, 100
2, 90044, Note_off_c, 0, 53, 100
2, 90048, Note_on_c, 0, 63, 120
2, 90048, Note_on_c, 0, 60, 120
2, 90048, Note_on_c, 0, 57, 120
2, 90048, Note_on_c, 0, 51, 120
2, 90236, Note_off_c, 0, 63, 100
2, 90236, Note_off_c, 0, 60, 100
2, 90236, Note_off_c, 0, 57, 100
2, 90236, Note_off_c, 0, 51, 100
2, 90240, Note_on_c, 0, 63, 120
2, 90240, Note_on_c, 0, 60, 120
2, 90240, Note_on_c, 0, 57, 120
2, 90240, Note_on_c, 0, 51, 120
2, 90428, Note_off_c, 0, 63, 100
2, 90428, Note_off_c, 0, 60, 100
2, 90428, Note_off_c, 0, 57, 100
2, 90428, Note_off_c, 0, 51, 100
2, 90432, Note_on_c, 0, 63, 120
2, 90432, Note_on_c, 0, 60, 120
2, 90432, Note_on_c, 0, 57, 120
2, 90432, Note_on_c, 0, 51, 120
2, 90620, Note_off_c, 0, 63, 100
2, 90620, Note_off_c, 0, 60, 100
2, 90620, Note_off_c, 0, 57, 100
2, 90620, Note_off_c, 0, 51, 100
2, 90624, Note_on_c, 0, 63, 120
2, 90624, Note_on_c, 0, 60, 120
2, 90624, Note_on_c, 0, 57, 120
2, 90624, Note_on_c, 0, 51, 120
2, 90812, Note_off_c, 0, 63, 100
2, 90812, Note_off_c, 0, 60, 100
2, 90812, Note_off_c, 0, 57, 100
2, 90812, Note_off_c, 0, 51, 100
2, 90816, Note_on_c, 0, 63, 120
2, 90816, Note_on_c, 0, 60, 120
2, 90816, Note_on_c, 0, 57, 120
2, 90816, Note_on_c, 0, 51, 120
2, 91004, Note_off_c, 0, 63, 100
2, 91004, Note_off_c, 0, 60, 100
2, 91004, Note_off_c, 0, 57, 100
2, 91004, Note_off_c, 0, 51, 100
2, 91008, Note_on_c, 0, 63, 120
2, 91008, Note_on_c, 0, 60, 120
2, 91008, Note_on_c, 0, 57, 120
2, 91008, Note_on_c, 0, 51, 120
2, 91196, Note_off_c, 0, 63, 100
2, 91196, Note_off_c, 0, 60, 100
2, 91196, Note_off_c, 0, 57, 100
2, 91196, Note_off_c, 0, 51, 100
2, 91200, Note_on_c, 0, 63, 120
2, 91200, Note_on_c, 0, 60, 120
2, 91200, Note_on_c, 0, 57, 120
2, 91200, Note_on_c, 0, 51, 120
2, 91388, Note_off_c, 0, 63, 100
2, 91388, Note_off_c, 0, 60, 100
2, 91388, Note_off_c, 0, 57, 100
2, 91388, Note_off_c, 0, 51, 100
2, 91392, Note_on_c, 0, 63, 120
2, 91392, Note_on_c, 0, 60, 120
2, 91392, Note_on_c, 0, 57, 120
2, 91392, Note_on_c, 0, 51, 120
2, 91580, Note_off_c, 0, 63, 100
2, 91580, Note_off_c, 0, 60, 100
2, 91580, Note_off_c, 0, 57, 100
2, 91580, Note_off_c, 0, 51, 100
2, 91584, Note_on_c, 0, 63, 120
2, 91584, Note_on_c, 0, 60, 120
2, 91584, Note_on_c, 0, 57, 120
2, 91584, Note_on_c, 0, 51, 120
2, 91772, Note_off_c, 0, 63, 100
2, 91772, Note_off_c, 0, 60, 100
2, 91772, Note_off_c, 0, 57, 100
2, 91772, Note_off_c, 0, 51, 100
2, 91776, Note_on_c, 0, 63, 120
2, 91776, Note_on_c, 0, 60, 120
2, 91776, Note_on_c, 0, 57, 120
2, 91776, Note_on_c, 0, 51, 120
2, 91964, Note_off_c, 0, 63, 100
2, 91964, Note_off_c, 0, 60, 100
2, 91964, Note_off_c, 0, 57, 100
2, 91964, Note_off_c, 0, 51, 100
2, 91968, Note_on_c, 0, 63, 120
2, 91968, Note_on_c, 0, 60, 120
2, 91968, Note_on_c, 0, 57, 120
2, 91968, Note_on_c, 0, 51, 120
2, 92156, Note_off_c, 0, 63, 100
2, 92156, Note_off_c, 0, 60, 100
2, 92156, Note_off_c, 0, 57, 100
2, 92156, Note_off_c, 0, 51, 100
2, 92160, Note_on_c, 0, 64, 120
2, 92160, Note_on_c, 0, 60, 120
2, 92160, Note_on_c, 0, 55, 120
2, 92160, Note_on_c, 0, 52, 120
2, 92540, Note_off_c, 0, 64, 100
2, 92540, Note_off_c, 0, 60, 100
2, 92540, Note_off_c, 0, 55, 100
2, 92540, Note_off_c, 0, 52, 100
2, 92736, Note_on_c, 0, 55, 70
2, 92736, Note_on_c, 0, 60, 70
2, 93308, Note_off_c, 0, 60, 100
2, 93312, Note_on_c, 0, 59, 70
2, 93884, Note_off_c, 0, 59, 100
2, 93888, Note_on_c, 0, 65, 70
2, 94460, Note_off_c, 0, 65, 100
2, 94464, Note_on_c, 0, 64, 71
2, 95036, Note_off_c, 0, 55, 100
2, 95036, Note_off_c, 0, 64, 100
2, 95040, Note_on_c, 0, 60, 71
2, 95040, Note_on_c, 0, 55, 71
2, 95040, Note_on_c, 0, 67, 71
2, 95612, Note_off_c, 0, 60, 100
2, 95616, Note_on_c, 0, 59, 72
2, 96188, Note_off_c, 0, 59, 100
2, 96192, Note_on_c, 0, 65, 72
2, 96764, Note_off_c, 0, 65, 100
2, 96768, Note_on_c, 0, 64, 73
2, 97148, Note_off_c, 0, 55, 100
2, 97148, Note_off_c, 0, 67, 100
2, 97148, Note_off_c, 0, 64, 100
2, 97344, Note_on_c, 0, 78, 73
2, 97344, Note_on_c, 0, 66, 73
2, 97532, Note_off_c, 0, 78, 100
2, 97532, Note_off_c, 0, 66, 100
2, 97536, Note_on_c, 0, 79, 73
2, 97536, Note_on_c, 0, 67, 73
2, 97724, Note_off_c, 0, 79, 100
2, 97724, Note_off_c, 0, 67, 100
2, 97728, Note_on_c, 0, 81, 73
2, 97728, Note_on_c, 0, 69, 73
2, 97916, Note_off_c, 0, 81, 100
2, 97916, Note_off_c, 0, 69, 100
2, 97920, Note_on_c, 0, 79, 73
2, 97920, Note_on_c, 0, 67, 73
2, 98108, Note_off_c, 0, 79, 100
2, 98108, Note_off_c, 0, 67, 100
2, 98112, Note_on_c, 0, 77, 74
2, 98112, Note_on_c, 0, 65, 74
2, 98300, Note_off_c, 0, 77, 100
2, 98300, Note_off_c, 0, 65, 100
2, 98304, Note_on_c, 0, 76, 74
2, 98304, Note_on_c, 0, 64, 74
2, 98492, Note_off_c, 0, 76, 100
2, 98492, Note_off_c, 0, 64, 100
2, 98496, Note_on_c, 0, 74, 74
2, 98496, Note_on_c, 0, 62, 74
2, 98684, Note_off_c, 0, 74, 100
2, 98684, Note_off_c, 0, 62, 100
2, 98688, Note_on_c, 0, 72, 74
2, 98688, Note_on_c, 0, 60, 74
2, 98876, Note_off_c, 0, 72, 100
2, 98876, Note_off_c, 0, 60, 100
2, 98880, Note_on_c, 0, 71, 74
2, 98880, Note_on_c, 0, 59, 74
2, 99068, Note_off_c, 0, 71, 100
2, 99068, Note_off_c, 0, 59, 100
2, 99072, Note_on_c, 0, 72, 74
2, 99072, Note_on_c, 0, 60, 74
2, 99260, Note_off_c, 0, 72, 100
2, 99260, Note_off_c, 0, 60, 100
2, 99264, Note_on_c, 0, 74, 74
2, 99264, Note_on_c, 0, 62, 74
2, 99452, Note_off_c, 0, 74, 100
2, 99452, Note_off_c, 0, 62, 100
2, 99456, Note_on_c, 0, 76, 75
2, 99456, Note_on_c, 0, 64, 75
2, 99644, Note_off_c, 0, 76, 100
2, 99644, Note_off_c, 0, 64, 100
2, 99648, Note_on_c, 0, 78, 75
2, 99648, Note_on_c, 0, 66, 75
2, 99836, Note_off_c, 0, 78, 100
2, 99836, Note_off_c, 0, 66, 100
2, 99840, Note_on_c, 0, 79, 75
2, 99840, Note_on_c, 0, 67, 75
2, 100028, Note_off_c, 0, 79, 100
2, 100028, Note_off_c, 0, 67, 100
2, 100032, Note_on_c, 0, 81, 75
2, 100032, Note_on_c, 0, 69, 75
2, 100220, Note_off_c, 0, 81, 100
2, 100220, Note_off_c, 0, 69, 100
2, 100224, Note_on_c, 0, 79, 75
2, 100224, Note_on_c, 0, 67, 75
2, 100412, Note_off_c, 0, 79, 100
2, 100412, Note_off_c, 0, 67, 100
2, 100416, Note_on_c, 0, 77, 75
2, 100416, Note_on_c, 0, 65, 75
2, 100604, Note_off_c, 0, 77, 100
2, 100604, Note_off_c, 0, 65, 100
2, 100608, Note_on_c, 0, 76, 76
2, 100608, Note_on_c, 0, 64, 76
2, 100796, Note_off_c, 0, 76, 100
2, 100796, Note_off_c, 0, 64, 100
2, 100800, Note_on_c, 0, 74, 76
2, 100800, Note_on_c, 0, 62, 76
2, 100988, Note_off_c, 0, 74, 100
2, 100988, Note_off_c, 0, 62, 100
2, 100992, Note_on_c, 0, 72, 76
2, 100992, Note_on_c, 0, 60, 76
2, 101180, Note_off_c, 0, 72, 100
2, 101180, Note_off_c, 0, 60, 100
2, 101184, Note_on_c, 0, 71, 76
2, 101184, Note_on_c, 0, 59, 76
2, 101372, Note_off_c, 0, 71, 100
2, 101372, Note_off_c, 0, 59, 100
2, 101376, Note_on_c, 0, 72, 76
2, 101376, Note_on_c, 0, 60, 76
2, 102140, Note_off_c, 0, 72, 100
2, 102140, Note_off_c, 0, 60, 100
2, 102144, Note_on_c, 0, 74, 77
2, 102144, Note_on_c, 0, 62, 77
2, 102332, Note_off_c, 0, 74, 100
2, 102332, Note_off_c, 0, 62, 100
2, 102336, Note_on_c, 0, 76, 77
2, 102336, Note_on_c, 0, 64, 77
2, 102524, Note_off_c, 0, 76, 100
2, 102524, Note_off_c, 0, 64, 100
2, 102528, Note_on_c, 0, 77, 77
2, 102528, Note_on_c, 0, 65, 77
2, 102908, Note_off_c, 0, 77, 100
2, 102908, Note_off_c, 0, 65, 100
2, 102912, Note_on_c, 0, 75, 77
2, 102912, Note_on_c, 0, 63, 77
2, 103100, Note_off_c, 0, 75, 100
2, 103100, Note_off_c, 0, 63, 100
2, 103104, Note_on_c, 0, 74, 77
2, 103104, Note_on_c, 0, 62, 77
2, 103484, Note_off_c, 0, 74, 100
2, 103484, Note_off_c, 0, 62, 100
2, 103488, Note_on_c, 0, 75, 78
2, 103488, Note_on_c, 0, 63, 78
2, 103676, Note_off_c, 0, 75, 100
2, 103676, Note_off_c, 0, 63, 100
2, 103680, Note_on_c, 0, 74, 78
2, 103680, Note_on_c, 0, 62, 78
2, 104060, Note_off_c, 0, 74, 100
2, 104060, Note_off_c, 0, 62, 100
2, 104064, Note_on_c, 0, 72, 78
2, 104064, Note_on_c, 0, 60, 78
2, 104252, Note_off_c, 0, 72, 100
2, 104252, Note_off_c, 0, 60, 100
2, 104256, Note_on_c, 0, 70, 78
2, 104256, Note_on_c, 0, 58, 78
2, 104636, Note_off_c, 0, 70, 100
2, 104636, Note_off_c, 0, 58, 100
2, 104640, Note_on_c, 0, 74, 79
2, 104640, Note_on_c, 0, 62, 79
2, 104828, Note_off_c, 0, 74, 100
2, 104828, Note_off_c, 0, 62, 100
2, 104832, Note_on_c, 0, 72, 79
2, 104832, Note_on_c, 0, 60, 79
2, 105212, Note_off_c, 0, 72, 100
2, 105212, Note_off_c, 0, 60, 100
2, 105216, Note_on_c, 0, 70, 79
2, 105216, Note_on_c, 0, 58, 79
2, 105404, Note_off_c, 0, 70, 100
2, 105404, Note_off_c, 0, 58, 100
2, 105408, Note_on_c, 0, 69, 79
2, 105408, Note_on_c, 0, 57, 79
2, 105788, Note_off_c, 0, 69, 100
2, 105788, Note_off_c, 0, 57, 100
2, 105792, Note_on_c, 0, 72, 79
2, 105792, Note_on_c, 0, 60, 79
2, 105980, Note_off_c, 0, 72, 100
2, 105980, Note_off_c, 0, 60, 100
2, 105984, Note_on_c, 0, 70, 110
2, 105984, Note_on_c, 0, 58, 110
2, 106172, Note_off_c, 0, 70, 100
2, 106172, Note_off_c, 0, 58, 100
2, 106176, Note_on_c, 0, 70, 100
2, 106364, Note_off_c, 0, 70, 100
2, 106368, Note_on_c, 0, 70, 100
2, 106556, Note_off_c, 0, 70, 100
2, 106560, Note_on_c, 0, 70, 100
2, 106748, Note_off_c, 0, 70, 100
2, 106752, Note_on_c, 0, 69, 100
2, 106940, Note_off_c, 0, 69, 100
2, 106944, Note_on_c, 0, 70, 100
2, 107132, Note_off_c, 0, 70, 100
2, 107136, Note_on_c, 0, 74, 110
2, 107136, Note_on_c, 0, 62, 110
2, 107324, Note_off_c, 0, 74, 100
2, 107324, Note_off_c, 0, 62, 100
2, 107328, Note_on_c, 0, 74, 100
2, 107516, Note_off_c, 0, 74, 100
2, 107520, Note_on_c, 0, 74, 100
2, 107708, Note_off_c, 0, 74, 100
2, 107712, Note_on_c, 0, 74, 100
2, 107900, Note_off_c, 0, 74, 100
2, 107904, Note_on_c, 0, 73, 100
2, 108092, Note_off_c, 0, 73, 100
2, 108096, Note_on_c, 0, 74, 100
2, 108284, Note_off_c, 0, 74, 100
2, 108288, Note_on_c, 0, 77, 110
2, 108288, Note_on_c, 0, 65, 110
2, 108476, Note_off_c, 0, 77, 100
2, 108476, Note_off_c, 0, 65, 100
2, 108480, Note_on_c, 0, 77, 100
2, 108668, Note_off_c, 0, 77, 100
2, 108672, Note_on_c, 0, 77, 100
2, 108860, Note_off_c, 0, 77, 100
2, 108864, Note_on_c, 0, 77, 100
2, 109052, Note_off_c, 0, 77, 100
2, 109056, Note_on_c, 0, 76, 100
2, 109244, Note_off_c, 0, 76, 100
2, 109248, Note_on_c, 0, 77, 100
2, 109436, Note_off_c, 0, 77, 100
2, 109440, Note_on_c, 0, 70, 110
2, 109440, Note_on_c, 0, 82, 110
2, 109628, Note_off_c, 0, 70, 100
2, 109628, Note_off_c, 0, 82, 100
2, 109632, Note_on_c, 0, 82, 100
2, 109820, Note_off_c, 0, 82, 100
2, 109824, Note_on_c, 0, 82, 100
2, 110012, Note_off_c, 0, 82, 100
2, 110016, Note_on_c, 0, 82, 100
2, 110204, Note_off_c, 0, 82, 100
2, 110208, Note_on_c, 0, 81, 100
2, 110396, Note_off_c, 0, 81, 100
2, 110400, Note_on_c, 0, 82, 100
2, 110588, Note_off_c, 0, 82, 100
2, 110592, Note_on_c, 0, 70, 110
2, 110684, Note_off_c, 0, 70, 100
2, 110688, Note_on_c, 0, 72, 110
2, 110780, Note_off_c, 0, 72, 100
2, 110784, Note_on_c, 0, 70, 111
2, 110876, Note_off_c, 0, 70, 100
2, 110880, Note_on_c, 0, 69, 112
2, 110972, Note_off_c, 0, 69, 100
2, 110976, Note_on_c, 0, 70, 113
2, 111068, Note_off_c, 0, 70, 100
2, 111072, Note_on_c, 0, 69, 114
2, 111164, Note_off_c, 0, 69, 100
2, 111168, Note_on_c, 0, 70, 115
2, 111260, Note_off_c, 0, 70, 100
2, 111264, Note_on_c, 0, 71, 115
2, 111356, Note_off_c, 0, 71, 100
2, 111360, Note_on_c, 0, 72, 116
2, 111452, Note_off_c, 0, 72, 100
2, 111456, Note_on_c, 0, 73, 117
2, 111548, Note_off_c, 0, 73, 100
2, 111552, Note_on_c, 0, 74, 118
2, 111644, Note_off_c, 0, 74, 100
2, 111648, Note_on_c, 0, 75, 119
2, 111740, Note_off_c, 0, 75, 100
2, 111744, Note_on_c, 0, 76, 120
2, 111824, Note_off_c, 0, 76, 100
2, 111828, Note_on_c, 0, 77, 120
2, 111908, Note_off_c, 0, 77, 100
2, 111912, Note_on_c, 0, 78, 120
2, 111992, Note_off_c, 0, 78, 100
2, 111996, Note_on_c, 0, 79, 120
2, 112076, Note_off_c, 0, 79, 100
2, 112080, Note_on_c, 0, 80, 120
2, 112160, Note_off_c, 0, 80, 100
2, 112164, Note_on_c, 0, 81, 120
2, 112244, Note_off_c, 0, 81, 100
2, 112248, Note_on_c, 0, 82, 120
2, 112316, Note_off_c, 0, 82, 100
2, 112320, Note_on_c, 0, 83, 120
2, 112412, Note_off_c, 0, 83, 100
2, 112416, Note_on_c, 0, 84, 120
2, 112508, Note_off_c, 0, 84, 100
2, 112512, Note_on_c, 0, 85, 120
2, 112604, Note_off_c, 0, 85, 100
2, 112608, Note_on_c, 0, 86, 120
2, 112700, Note_off_c, 0, 86, 100
2, 112704, Note_on_c, 0, 87, 120
2, 112796, Note_off_c, 0, 87, 100
2, 112800, Note_on_c, 0, 88, 120
2, 112892, Note_off_c, 0, 88, 100
2, 112896, Note_on_c, 0, 89, 120
2, 113276, Note_off_c, 0, 89, 100
2, 113472, Note_on_c, 0, 86, 120
2, 113472, Note_on_c, 0, 82, 120
2, 113472, Note_on_c, 0, 74, 120
2, 113852, Note_off_c, 0, 86, 100
2, 113852, Note_off_c, 0, 82, 100
2, 113852, Note_off_c, 0, 74, 100
2, 114048, Note_on_c, 0, 84, 120
2, 114048, Note_on_c, 0, 87, 120
2, 114048, Note_on_c, 0, 75, 120
2, 114428, Note_off_c, 0, 84, 100
2, 114428, Note_off_c, 0, 87, 100
2, 114428, Note_off_c, 0, 75, 100
2, 114624, Note_on_c, 0, 81, 120
2, 114624, Note_on_c, 0, 75, 120
2, 114624, Note_on_c, 0, 72, 120
2, 114624, Note_on_c, 0, 69, 120
2, 115004, Note_off_c, 0, 81, 100
2, 115004, Note_off_c, 0, 75, 100
2, 115004, Note_off_c, 0, 72, 100
2, 115004, Note_off_c, 0, 69, 100
2, 115200, Note_on_c, 0, 58, 120
2, 115292, Note_off_c, 0, 58, 100
2, 115296, Note_on_c, 0, 70, 120
2, 115388, Note_off_c, 0, 70, 100
2, 115392, Note_on_c, 0, 58, 120
2, 115484, Note_off_c, 0, 58, 100
2, 115488, Note_on_c, 0, 70, 120
2, 115580, Note_off_c, 0, 70, 100
2, 115584, Note_on_c, 0, 58, 120
2, 115676, Note_off_c, 0, 58, 100
2, 115680, Note_on_c, 0, 70, 120
2, 115772, Note_off_c, 0, 70, 100
2, 115776, Note_on_c, 0, 58, 120
2, 115868, Note_off_c, 0, 58, 100
2, 115872, Note_on_c, 0, 70, 120
2, 115964, Note_off_c, 0, 70, 100
2, 115968, Note_on_c, 0, 57, 120
2, 116060, Note_off_c, 0, 57, 100
2, 116064, Note_on_c, 0, 69, 120
2, 116156, Note_off_c, 0, 69, 100
2, 116160, Note_on_c, 0, 58, 120
2, 116252, Note_off_c, 0, 58, 100
2, 116256, Note_on_c, 0, 70, 120
2, 116348, Note_off_c, 0, 70, 100
2, 116352, Note_on_c, 0, 62, 120
2, 116444, Note_off_c, 0, 62, 100
2, 116448, Note_on_c, 0, 74, 120
2, 116540, Note_off_c, 0, 74, 100
2, 116544, Note_on_c, 0, 62, 120
2, 116636, Note_off_c, 0, 62, 100
2, 116640, Note_on_c, 0, 74, 120
2, 116732, Note_off_c, 0, 74, 100
2, 116736, Note_on_c, 0, 62, 120
2, 116828, Note_off_c, 0, 62, 100
2, 116832, Note_on_c, 0, 74, 120
2, 116924, Note_off_c, 0, 74, 100
2, 116928, Note_on_c, 0, 62, 120
2, 117020, Note_off_c, 0, 62, 100
2, 117024, Note_on_c, 0, 74, 120
2, 117116, Note_off_c, 0, 74, 100
2, 117120, Note_on_c, 0, 61, 120
2, 117212, Note_off_c, 0, 61, 100
2, 117216, Note_on_c, 0, 73, 120
2, 117308, Note_off_c, 0, 73, 100
2, 117312, Note_on_c, 0, 62, 120
2, 117404, Note_off_c, 0, 62, 100
2, 117408, Note_on_c, 0, 74, 120
2, 117500, Note_off_c, 0, 74, 100
2, 117504, Note_on_c, 0, 65, 120
2, 117596, Note_off_c, 0, 65, 100
2, 117600, Note_on_c, 0, 77, 120
2, 117692, Note_off_c, 0, 77, 100
2, 117696, Note_on_c, 0, 65, 120
2, 117788, Note_off_c, 0, 65, 100
2, 117792, Note_on_c, 0, 77, 120
2, 117884, Note_off_c, 0, 77, 100
2, 117888, Note_on_c, 0, 65, 120
2, 117980, Note_off_c, 0, 65, 100
2, 117984, Note_on_c, 0, 77, 120
2, 118076, Note_off_c, 0, 77, 100
2, 118080, Note_on_c, 0, 65, 120
2, 118172, Note_off_c, 0, 65, 100
2, 118176, Note_on_c, 0, 77, 120
2, 118268, Note_off_c, 0, 77, 100
2, 118272, Note_on_c, 0, 64, 120
2, 118364, Note_off_c, 0, 64, 100
2, 118368, Note_on_c, 0, 76, 120
2, 118460, Note_off_c, 0, 76, 100
2, 118464, Note_on_c, 0, 65, 120
2, 118556, Note_off_c, 0, 65, 100
2, 118560, Note_on_c, 0, 77, 120
2, 118652, Note_off_c, 0, 77, 100
2, 118656, Note_on_c, 0, 70, 120
2, 118748, Note_off_c, 0, 70, 100
2, 118752, Note_on_c, 0, 82, 120
2, 118844, Note_off_c, 0, 82, 100
2, 118848, Note_on_c, 0, 70, 120
2, 118940, Note_off_c, 0, 70, 100
2, 118944, Note_on_c, 0, 82, 120
2, 119036, Note_off_c, 0, 82, 100
2, 119040, Note_on_c, 0, 70, 120
2, 119132, Note_off_c, 0, 70, 100
2, 119136, Note_on_c, 0, 82, 120
2, 119228, Note_off_c, 0, 82, 100
2, 119232, Note_on_c, 0, 70, 120
2, 119324, Note_off_c, 0, 70, 100
2, 119328, Note_on_c, 0, 82, 120
2, 119420, Note_off_c, 0, 82, 100
2, 119424, Note_on_c, 0, 69, 120
2, 119516, Note_off_c, 0, 69, 100
2, 119520, Note_on_c, 0, 81, 120
2, 119612, Note_off_c, 0, 81, 100
2, 119616, Note_on_c, 0, 70, 120
2, 119708, Note_off_c, 0, 70, 100
2, 119712, Note_on_c, 0, 82, 120
2, 119804, Note_off_c, 0, 82, 100
2, 119808, Note_on_c, 0, 58, 100
2, 119900, Note_off_c, 0, 58, 100
2, 119904, Note_on_c, 0, 60, 100
2, 119996, Note_off_c, 0, 60, 100
2, 120000, Note_on_c, 0, 58, 100
2, 120092, Note_off_c, 0, 58, 100
2, 120096, Note_on_c, 0, 57, 101
2, 120188, Note_off_c, 0, 57, 100
2, 120192, Note_on_c, 0, 58, 101
2, 120284, Note_off_c, 0, 58, 100
2, 120288, Note_on_c, 0, 57, 102
2, 120380, Note_off_c, 0, 57, 100
2, 120384, Note_on_c, 0, 58, 102
2, 120476, Note_off_c, 0, 58, 100
2, 120480, Note_on_c, 0, 59, 102
2, 120572, Note_off_c, 0, 59, 100
2, 120576, Note_on_c, 0, 60, 103
2, 120668, Note_off_c, 0, 60, 100
2, 120672, Note_on_c, 0, 61, 103
2, 120764, Note_off_c, 0, 61, 100
2, 120768, Note_on_c, 0, 62, 104
2, 120860, Note_off_c, 0, 62, 100
2, 120864, Note_on_c, 0, 63, 104
2, 120956, Note_off_c, 0, 63, 100
2, 120960, Note_on_c, 0, 64, 105
2, 121052, Note_off_c, 0, 64, 100
2, 121056, Note_on_c, 0, 65, 105
2, 121148, Note_off_c, 0, 65, 100
2, 121152, Note_on_c, 0, 66, 105
2, 121244, Note_off_c, 0, 66, 100
2, 121248, Note_on_c, 0, 67, 106
2, 121340, Note_off_c, 0, 67, 100
2, 121344, Note_on_c, 0, 68, 106
2, 121436, Note_off_c, 0, 68, 100
2, 121440, Note_on_c, 0, 69, 107
2, 121532, Note_off_c, 0, 69, 100
2, 121536, Note_on_c, 0, 70, 107
2, 121628, Note_off_c, 0, 70, 100
2, 121632, Note_on_c, 0, 71, 107
2, 121724, Note_off_c, 0, 71, 100
2, 121728, Note_on_c, 0, 72, 108
2, 121820, Note_off_c, 0, 72, 100
2, 121824, Note_on_c, 0, 73, 108
2, 121916, Note_off_c, 0, 73, 100
2, 121920, Note_on_c, 0, 74, 109
2, 122012, Note_off_c, 0, 74, 100
2, 122016, Note_on_c, 0, 75, 109
2, 122108, Note_off_c, 0, 75, 100
2, 122112, Note_on_c, 0, 76, 110
2, 122204, Note_off_c, 0, 76, 100
2, 122208, Note_on_c, 0, 77, 110
2, 122300, Note_off_c, 0, 77, 100
2, 122304, Note_on_c, 0, 78, 110
2, 122396, Note_off_c, 0, 78, 100
2, 122400, Note_on_c, 0, 79, 111
2, 122492, Note_off_c, 0, 79, 100
2, 122496, Note_on_c, 0, 80, 111
2, 122588, Note_off_c, 0, 80, 100
2, 122592, Note_on_c, 0, 81, 112
2, 122684, Note_off_c, 0, 81, 100
2, 122688, Note_on_c, 0, 82, 112
2, 122780, Note_off_c, 0, 82, 100
2, 122784, Note_on_c, 0, 83, 112
2, 122876, Note_off_c, 0, 83, 100
2, 122880, Note_on_c, 0, 84, 113
2, 122972, Note_off_c, 0, 84, 100
2, 122976, Note_on_c, 0, 85, 113
2, 123068, Note_off_c, 0, 85, 100
2, 123072, Note_on_c, 0, 84, 114
2, 123164, Note_off_c, 0, 84, 100
2, 123168, Note_on_c, 0, 85, 114
2, 123260, Note_off_c, 0, 85, 100
2, 123264, Note_on_c, 0, 84, 115
2, 123356, Note_off_c, 0, 84, 100
2, 123360, Note_on_c, 0, 85, 115
2, 123452, Note_off_c, 0, 85, 100
2, 123456, Note_on_c, 0, 84, 115
2, 123548, Note_off_c, 0, 84, 100
2, 123552, Note_on_c, 0, 85, 116
2, 123644, Note_off_c, 0, 85, 100
2, 123648, Note_on_c, 0, 84, 116
2, 123740, Note_off_c, 0, 84, 100
2, 123744, Note_on_c, 0, 85, 117
2, 123836, Note_off_c, 0, 85, 100
2, 123840, Note_on_c, 0, 84, 117
2, 123932, Note_off_c, 0, 84, 100
2, 123936, Note_on_c, 0, 85, 117
2, 124028, Note_off_c, 0, 85, 100
2, 124032, Note_on_c, 0, 84, 118
2, 124124, Note_off_c, 0, 84, 100
2, 124128, Note_on_c, 0, 85, 118
2, 124220, Note_off_c, 0, 85, 100
2, 124224, Note_on_c, 0, 84, 119
2, 124316, Note_off_c, 0, 84, 100
2, 124320, Note_on_c, 0, 85, 119
2, 124412, Note_off_c, 0, 85, 100
2, 124416, Note_on_c, 0, 86, 115
2, 124464, Note_on_c, 0, 87, 115
2, 124508, Note_off_c, 0, 86, 100
2, 124512, Note_on_c, 0, 86, 115
2, 124556, Note_off_c, 0, 87, 100
2, 124604, Note_off_c, 0, 86, 100
2, 124608, Note_on_c, 0, 84, 115
2, 124796, Note_off_c, 0, 84, 100
2, 124800, Note_on_c, 0, 82, 115
2, 124988, Note_off_c, 0, 82, 100
2, 124992, Note_on_c, 0, 82, 115
2, 125040, Note_on_c, 0, 84, 115
2, 125084, Note_off_c, 0, 82, 100
2, 125088, Note_on_c, 0, 82, 115
2, 125132, Note_off_c, 0, 84, 100
2, 125180, Note_off_c, 0, 82, 100
2, 125184, Note_on_c, 0, 81, 115
2, 125372, Note_off_c, 0, 81, 100
2, 125376, Note_on_c, 0, 79, 115
2, 125564, Note_off_c, 0, 79, 100
2, 125568, Note_on_c, 0, 77, 115
2, 125616, Note_on_c, 0, 79, 115
2, 125660, Note_off_c, 0, 77, 100
2, 125664, Note_on_c, 0, 77, 115
2, 125708, Note_off_c, 0, 79, 100
2, 125756, Note_off_c, 0, 77, 100
2, 125760, Note_on_c, 0, 75, 115
2, 125948, Note_off_c, 0, 75, 100
2, 125952, Note_on_c, 0, 74, 115
2, 126140, Note_off_c, 0, 74, 100
2, 126144, Note_on_c, 0, 72, 115
2, 126332, Note_off_c, 0, 72, 100
2, 126336, Note_on_c, 0, 75, 115
2, 126524, Note_off_c, 0, 75, 100
2, 126528, Note_on_c, 0, 69, 115
2, 126716, Note_off_c, 0, 69, 100
2, 126720, Note_on_c, 0, 70, 100
2, 126816, Note_on_c, 0, 74, 100
2, 126908, Note_off_c, 0, 70, 100
2, 126912, Note_on_c, 0, 82, 100
2, 127004, Note_off_c, 0, 74, 100
2, 127008, Note_on_c, 0, 74, 100
2, 127100, Note_off_c, 0, 82, 100
2, 127104, Note_on_c, 0, 82, 100
2, 127196, Note_off_c, 0, 74, 100
2, 127200, Note_on_c, 0, 74, 100
2, 127292, Note_off_c, 0, 82, 100
2, 127296, Note_on_c, 0, 70, 100
2, 127388, Note_off_c, 0, 74, 100
2, 127392, Note_on_c, 0, 74, 100
2, 127484, Note_off_c, 0, 70, 100
2, 127488, Note_on_c, 0, 82, 100
2, 127580, Note_off_c, 0, 74, 100
2, 127584, Note_on_c, 0, 74, 100
2, 127676, Note_off_c, 0, 82, 100
2, 127680, Note_on_c, 0, 82, 100
2, 127772, Note_off_c, 0, 74, 100
2, 127776, Note_on_c, 0, 74, 100
2, 127868, Note_off_c, 0, 82, 100
2, 127868, Note_off_c, 0, 74, 100
2, 127872, Note_on_c, 0, 71, 100
2, 127968, Note_on_c, 0, 74, 100
2, 128032, Note_off_c, 0, 71, 100
2, 128064, Note_on_c, 0, 80, 100
2, 128116, Note_off_c, 0, 74, 100
2, 128160, Note_on_c, 0, 74, 100
2, 128212, Note_off_c, 0, 80, 100
2, 128256, Note_on_c, 0, 80, 100
2, 128304, Note_off_c, 0, 74, 100
2, 128352, Note_on_c, 0, 74, 100
2, 128400, Note_off_c, 0, 80, 100
2, 128448, Note_on_c, 0, 70, 100
2, 128508, Note_off_c, 0, 74, 100
2, 128544, Note_on_c, 0, 74, 100
2, 128620, Note_off_c, 0, 70, 100
2, 128640, Note_on_c, 0, 82, 100
2, 128696, Note_off_c, 0, 74, 100
2, 128736, Note_on_c, 0, 74, 100
2, 128808, Note_off_c, 0, 82, 100
2, 128832, Note_on_c, 0, 82, 100
2, 128896, Note_off_c, 0, 74, 100
2, 128928, Note_on_c, 0, 74, 100
2, 128980, Note_off_c, 0, 82, 100
2, 129024, Note_on_c, 0, 68, 100
2, 129100, Note_off_c, 0, 74, 100
2, 129120, Note_on_c, 0, 74, 100
2, 129180, Note_off_c, 0, 68, 100
2, 129216, Note_on_c, 0, 83, 100
2, 129284, Note_off_c, 0, 74, 100
2, 129312, Note_on_c, 0, 74, 100
2, 129388, Note_off_c, 0, 83, 100
2, 129408, Note_on_c, 0, 83, 100
2, 129476, Note_off_c, 0, 74, 100
2, 129504, Note_on_c, 0, 74, 100
2, 129560, Note_off_c, 0, 83, 100
2, 129600, Note_on_c, 0, 70, 100
2, 129668, Note_off_c, 0, 74, 100
2, 129696, Note_on_c, 0, 74, 100
2, 129756, Note_off_c, 0, 70, 100
2, 129792, Note_on_c, 0, 82, 100
2, 129864, Note_off_c, 0, 74, 100
2, 129888, Note_on_c, 0, 74, 100
2, 129956, Note_off_c, 0, 82, 100
2, 129984, Note_on_c, 0, 82, 100
2, 130048, Note_off_c, 0, 74, 100
2, 130080, Note_on_c, 0, 74, 100
2, 130160, Note_off_c, 0, 82, 100
2, 130176, Note_on_c, 0, 71, 100
2, 130240, Note_off_c, 0, 74, 100
2, 130272, Note_on_c, 0, 74, 100
2, 130348, Note_off_c, 0, 71, 100
2, 130368, Note_on_c, 0, 80, 100
2, 130448, Note_off_c, 0, 74, 100
2, 130464, Note_on_c, 0, 74, 100
2, 130540, Note_off_c, 0, 80, 100
2, 130560, Note_on_c, 0, 80, 100
2, 130640, Note_off_c, 0, 74, 100
2, 130656, Note_on_c, 0, 74, 100
2, 130724, Note_off_c, 0, 80, 100
2, 130752, Note_on_c, 0, 68, 100
2, 130832, Note_off_c, 0, 74, 100
2, 130848, Note_on_c, 0, 74, 100
2, 130912, Note_off_c, 0, 68, 100
2, 130944, Note_on_c, 0, 83, 100
2, 131008, Note_off_c, 0, 74, 100
2, 131040, Note_on_c, 0, 74, 100
2, 131096, Note_off_c, 0, 83, 100
2, 131136, Note_on_c, 0, 83, 100
2, 131196, Note_off_c, 0, 74, 100
2, 131232, Note_on_c, 0, 74, 100
2, 131324, Note_off_c, 0, 83, 100
2, 131328, Note_on_c, 0, 67, 100
2, 131392, Note_off_c, 0, 74, 100
2, 131424, Note_on_c, 0, 75, 100
2, 131516, Note_off_c, 0, 67, 100
2, 131520, Note_on_c, 0, 82, 100
2, 131612, Note_off_c, 0, 75, 100
2, 131616, Note_on_c, 0, 75, 100
2, 131708, Note_off_c, 0, 82, 100
2, 131712, Note_on_c, 0, 82, 100
2, 131804, Note_off_c, 0, 75, 100
2, 131808, Note_on_c, 0, 75, 100
2, 131900, Note_off_c, 0, 82, 100
2, 131904, Note_on_c, 0, 68, 100
2, 131996, Note_off_c, 0, 75, 100
2, 132000, Note_on_c, 0, 75, 100
2, 132092, Note_off_c, 0, 68, 100
2, 132096, Note_on_c, 0, 80, 100
2, 132188, Note_off_c, 0, 75, 100
2, 132192, Note_on_c, 0, 75, 100
2, 132284, Note_off_c, 0, 80, 100
2, 132288, Note_on_c, 0, 80, 100
2, 132380, Note_off_c, 0, 75, 100
2, 132384, Note_on_c, 0, 75, 100
2, 132476, Note_off_c, 0, 80, 100
2, 132480, Note_on_c, 0, 70, 100
2, 132572, Note_off_c, 0, 75, 100
2, 132576, Note_on_c, 0, 75, 100
2, 132668, Note_off_c, 0, 70, 100
2, 132672, Note_on_c, 0, 79, 100
2, 132764, Note_off_c, 0, 75, 100
2, 132768, Note_on_c, 0, 75, 100
2, 132860, Note_off_c, 0, 79, 100
2, 132864, Note_on_c, 0, 79, 100
2, 132956, Note_off_c, 0, 75, 100
2, 132960, Note_on_c, 0, 75, 100
2, 133052, Note_off_c, 0, 79, 100
2, 133056, Note_on_c, 0, 70, 100
2, 133148, Note_off_c, 0, 75, 100
2, 133152, Note_on_c, 0, 75, 100
2, 133244, Note_off_c, 0, 70, 100
2, 133248, Note_on_c, 0, 78, 100
2, 133340, Note_off_c, 0, 75, 100
2, 133344, Note_on_c, 0, 75, 100
2, 133436, Note_off_c, 0, 78, 100
2, 133440, Note_on_c, 0, 78, 100
2, 133532, Note_off_c, 0, 75, 100
2, 133536, Note_on_c, 0, 75, 100
2, 133628, Note_off_c, 0, 78, 100
2, 133632, Note_on_c, 0, 69, 100
2, 133724, Note_off_c, 0, 75, 100
2, 133728, Note_on_c, 0, 75, 100
2, 133820, Note_off_c, 0, 69, 100
2, 133824, Note_on_c, 0, 78, 100
2, 133916, Note_off_c, 0, 75, 100
2, 133920, Note_on_c, 0, 75, 100
2, 134012, Note_off_c, 0, 78, 100
2, 134016, Note_on_c, 0, 78, 100
2, 134108, Note_off_c, 0, 75, 100
2, 134112, Note_on_c, 0, 75, 100
2, 134204, Note_off_c, 0, 78, 100
2, 134208, Note_on_c, 0, 69, 100
2, 134300, Note_off_c, 0, 75, 100
2, 134304, Note_on_c, 0, 75, 100
2, 134396, Note_off_c, 0, 69, 100
2, 134400, Note_on_c, 0, 77, 100
2, 134492, Note_off_c, 0, 75, 100
2, 134496, Note_on_c, 0, 75, 100
2, 134588, Note_off_c, 0, 77, 100
2, 134592, Note_on_c, 0, 77, 100
2, 134684, Note_off_c, 0, 75, 100
2, 134688, Note_on_c, 0, 75, 100
2, 134780, Note_off_c, 0, 77, 100
2, 134784, Note_on_c, 0, 69, 100
2, 134876, Note_off_c, 0, 75, 100
2, 134880, Note_on_c, 0, 75, 100
2, 134972, Note_off_c, 0, 69, 100
2, 134976, Note_on_c, 0, 77, 100
2, 135068, Note_off_c, 0, 75, 100
2, 135072, Note_on_c, 0, 75, 100
2, 135164, Note_off_c, 0, 77, 100
2, 135168, Note_on_c, 0, 77, 100
2, 135260, Note_off_c, 0, 75, 100
2, 135264, Note_on_c, 0, 75, 100
2, 135356, Note_off_c, 0, 77, 100
2, 135360, Note_on_c, 0, 69, 100
2, 135452, Note_off_c, 0, 75, 100
2, 135456, Note_on_c, 0, 75, 100
2, 135548, Note_off_c, 0, 69, 100
2, 135552, Note_on_c, 0, 77, 100
2, 135644, Note_off_c, 0, 75, 100
2, 135648, Note_on_c, 0, 75, 100
2, 135740, Note_off_c, 0, 77, 100
2, 135744, Note_on_c, 0, 77, 100
2, 135836, Note_off_c, 0, 75, 100
2, 135840, Note_on_c, 0, 75, 100
2, 135932, Note_off_c, 0, 77, 100
2, 135936, Note_on_c, 0, 70, 100
2, 136028, Note_off_c, 0, 75, 100
2, 136032, Note_on_c, 0, 74, 100
2, 136124, Note_off_c, 0, 70, 100
2, 136128, Note_on_c, 0, 77, 100
2, 136220, Note_off_c, 0, 74, 100
2, 136224, Note_on_c, 0, 74, 100
2, 136316, Note_off_c, 0, 77, 100
2, 136320, Note_on_c, 0, 77, 100
2, 136412, Note_off_c, 0, 74, 100
2, 136416, Note_on_c, 0, 74, 100
2, 136508, Note_off_c, 0, 77, 100
2, 136512, Note_on_c, 0, 65, 100
2, 136604, Note_off_c, 0, 74, 100
2, 136608, Note_on_c, 0, 70, 100
2, 136700, Note_off_c, 0, 65, 100
2, 136704, Note_on_c, 0, 74, 100
2, 136796, Note_off_c, 0, 70, 100
2, 136800, Note_on_c, 0, 70, 100
2, 136892, Note_off_c, 0, 74, 100
2, 136896, Note_on_c, 0, 74, 100
2, 136988, Note_off_c, 0, 70, 100
2, 136992, Note_on_c, 0, 70, 100
2, 137084, Note_off_c, 0, 74, 100
2, 137088, Note_on_c, 0, 65, 100
2, 137180, Note_off_c, 0, 70, 100
2, 137184, Note_on_c, 0, 71, 100
2, 137276, Note_off_c, 0, 65, 100
2, 137280, Note_on_c, 0, 74, 100
2, 137372, Note_off_c, 0, 71, 100
2, 137376, Note_on_c, 0, 71, 100
2, 137468, Note_off_c, 0, 74, 100
2, 137472, Note_on_c, 0, 74, 100
2, 137564, Note_off_c, 0, 71, 100
2, 137568, Note_on_c, 0, 71, 100
2, 137660, Note_off_c, 0, 74, 100
2, 137664, Note_on_c, 0, 65, 100
2, 137756, Note_off_c, 0, 71, 100
2, 137760, Note_on_c, 0, 70, 100
2, 137852, Note_off_c, 0, 65, 100
2, 137856, Note_on_c, 0, 74, 100
2, 137948, Note_off_c, 0, 70, 100
2, 137952, Note_on_c, 0, 70, 100
2, 138044, Note_off_c, 0, 74, 100
2, 138048, Note_on_c, 0, 74, 100
2, 138140, Note_off_c, 0, 70, 100
2, 138144, Note_on_c, 0, 70, 100
2, 138236, Note_off_c, 0, 74, 100
2, 138240, Note_on_c, 0, 65, 100
2, 138332, Note_off_c, 0, 70, 100
2, 138336, Note_on_c, 0, 68, 100
2, 138428, Note_off_c, 0, 65, 100
2, 138432, Note_on_c, 0, 74, 100
2, 138524, Note_off_c, 0, 68, 100
2, 138528, Note_on_c, 0, 68, 100
2, 138620, Note_off_c, 0, 74, 100
2, 138624, Note_on_c, 0, 74, 100
2, 138716, Note_off_c, 0, 68, 100
2, 138720, Note_on_c, 0, 68, 100
2, 138812, Note_off_c, 0, 74, 100
2, 138816, Note_on_c, 0, 65, 100
2, 138908, Note_off_c, 0, 68, 100
2, 138912, Note_on_c, 0, 70, 100
2, 139004, Note_off_c, 0, 65, 100
2, 139008, Note_on_c, 0, 74, 100
2, 139100, Note_off_c, 0, 70, 100
2, 139104, Note_on_c, 0, 70, 100
2, 139196, Note_off_c, 0, 74, 100
2, 139200, Note_on_c, 0, 74, 100
2, 139292, Note_off_c, 0, 70, 100
2, 139296, Note_on_c, 0, 70, 100
2, 139388, Note_off_c, 0, 74, 100
2, 139392, Note_on_c, 0, 65, 100
2, 139484, Note_off_c, 0, 70, 100
2, 139488, Note_on_c, 0, 71, 100
2, 139580, Note_off_c, 0, 65, 100
2, 139584, Note_on_c, 0, 74, 100
2, 139676, Note_off_c, 0, 71, 100
2, 139680, Note_on_c, 0, 71, 100
2, 139772, Note_off_c, 0, 74, 100
2, 139776, Note_on_c, 0, 74, 100
2, 139868, Note_off_c, 0, 71, 100
2, 139872, Note_on_c, 0, 71, 100
2, 139964, Note_off_c, 0, 74, 100
2, 139968, Note_on_c, 0, 65, 100
2, 140060, Note_off_c, 0, 71, 100
2, 140064, Note_on_c, 0, 68, 100
2, 140156, Note_off_c, 0, 65, 100
2, 140160, Note_on_c, 0, 74, 100
2, 140252, Note_off_c, 0, 68, 100
2, 140256, Note_on_c, 0, 68, 100
2, 140348, Note_off_c, 0, 74, 100
2, 140352, Note_on_c, 0, 74, 100
2, 140444, Note_off_c, 0, 68, 100
2, 140448, Note_on_c, 0, 68, 100
2, 140540, Note_off_c, 0, 74, 100
2, 140544, Note_on_c, 0, 63, 100
2, 140636, Note_off_c, 0, 68, 100
2, 140640, Note_on_c, 0, 67, 100
2, 140732, Note_off_c, 0, 63, 100
2, 140736, Note_on_c, 0, 75, 100
2, 140828, Note_off_c, 0, 67, 100
2, 140832, Note_on_c, 0, 67, 100
2, 140924, Note_off_c, 0, 75, 100
2, 140928, Note_on_c, 0, 75, 100
2, 141020, Note_off_c, 0, 67, 100
2, 141024, Note_on_c, 0, 67, 100
2, 141116, Note_off_c, 0, 75, 100
2, 141120, Note_on_c, 0, 63, 100
2, 141212, Note_off_c, 0, 67, 100
2, 141216, Note_on_c, 0, 68, 100
2, 141308, Note_off_c, 0, 63, 100
2, 141312, Note_on_c, 0, 75, 100
2, 141404, Note_off_c, 0, 68, 100
2, 141408, Note_on_c, 0, 68, 100
2, 141500, Note_off_c, 0, 75, 100
2, 141504, Note_on_c, 0, 75, 100
2, 141596, Note_off_c, 0, 68, 100
2, 141600, Note_on_c, 0, 68, 100
2, 141692, Note_off_c, 0, 75, 100
2, 141696, Note_on_c, 0, 63, 100
2, 141788, Note_off_c, 0, 68, 100
2, 141792, Note_on_c, 0, 67, 100
2, 141792, Note_on_c, 0, 70, 100
2, 141884, Note_off_c, 0, 63, 100
2, 141888, Note_on_c, 0, 75, 100
2, 141980, Note_off_c, 0, 67, 100
2, 141980, Note_off_c, 0, 70, 100
2, 141984, Note_on_c, 0, 70, 100
2, 141984, Note_on_c, 0, 67, 100
2, 142076, Note_off_c, 0, 75, 100
2, 142080, Note_on_c, 0, 75, 100
2, 142172, Note_off_c, 0, 70, 100
2, 142172, Note_off_c, 0, 67, 100
2, 142176, Note_on_c, 0, 70, 100
2, 142176, Note_on_c, 0, 67, 100
2, 142268, Note_off_c, 0, 75, 100
2, 142272, Note_on_c, 0, 63, 100
2, 142364, Note_off_c, 0, 70, 100
2, 142364, Note_off_c, 0, 67, 100
2, 142368, Note_on_c, 0, 66, 100
2, 142460, Note_off_c, 0, 63, 100
2, 142464, Note_on_c, 0, 70, 100
2, 142556, Note_off_c, 0, 66, 100
2, 142560, Note_on_c, 0, 66, 100
2, 142652, Note_off_c, 0, 70, 100
2, 142656, Note_on_c, 0, 70, 100
2, 142748, Note_off_c, 0, 66, 100
2, 142752, Note_on_c, 0, 66, 100
2, 142844, Note_off_c, 0, 70, 100
2, 142848, Note_on_c, 0, 60, 100
2, 142940, Note_off_c, 0, 66, 100
2, 142944, Note_on_c, 0, 66, 100
2, 143036, Note_off_c, 0, 60, 100
2, 143040, Note_on_c, 0, 70, 100
2, 143132, Note_off_c, 0, 66, 100
2, 143136, Note_on_c, 0, 66, 100
2, 143228, Note_off_c, 0, 70, 100
2, 143232, Note_on_c, 0, 70, 100
2, 143324, Note_off_c, 0, 66, 100
2, 143328, Note_on_c, 0, 66, 100
2, 143420, Note_off_c, 0, 70, 100
2, 143424, Note_on_c, 0, 60, 100
2, 143516, Note_off_c, 0, 66, 100
2, 143520, Note_on_c, 0, 66, 100
2, 143612, Note_off_c, 0, 60, 100
2, 143616, Note_on_c, 0, 69, 100
2, 143708, Note_off_c, 0, 66, 100
2, 143712, Note_on_c, 0, 66, 100
2, 143804, Note_off_c, 0, 69, 100
2, 143808, Note_on_c, 0, 69, 100
2, 143900, Note_off_c, 0, 66, 100
2, 143904, Note_on_c, 0, 66, 100
2, 143996, Note_off_c, 0, 69, 100
2, 144000, Note_on_c, 0, 60, 100
2, 144092, Note_off_c, 0, 66, 100
2, 144096, Note_on_c, 0, 65, 100
2, 144188, Note_off_c, 0, 60, 100
2, 144192, Note_on_c, 0, 69, 100
2, 144284, Note_off_c, 0, 65, 100
2, 144288, Note_on_c, 0, 65, 100
2, 144380, Note_off_c, 0, 69, 100
2, 144384, Note_on_c, 0, 69, 100
2, 144476, Note_off_c, 0, 65, 100
2, 144480, Note_on_c, 0, 65, 100
2, 144572, Note_off_c, 0, 69, 100
2, 144576, Note_on_c, 0, 60, 100
2, 144668, Note_off_c, 0, 65, 100
2, 144672, Note_on_c, 0, 63, 100
2, 144764, Note_off_c, 0, 60, 100
2, 144768, Note_on_c, 0, 69, 100
2, 144860, Note_off_c, 0, 63, 100
2, 144864, Note_on_c, 0, 63, 100
2, 144956, Note_off_c, 0, 69, 100
2, 144960, Note_on_c, 0, 69, 100
2, 145052, Note_off_c, 0, 63, 100
2, 145056, Note_on_c, 0, 63, 100
2, 145148, Note_off_c, 0, 69, 100
2, 145148, Note_off_c, 0, 63, 100
2, 145152, Note_on_c, 0, 70, 100
2, 145152, Note_on_c, 0, 62, 100
2, 145532, Note_off_c, 0, 70, 100
2, 145532, Note_off_c, 0, 62, 100
2, 145536, Note_on_c, 0, 62, 115
2, 146108, Note_off_c, 0, 62, 100
2, 146112, Note_on_c, 0, 58, 100
2, 146300, Note_off_c, 0, 58, 100
2, 146304, Note_on_c, 0, 53, 100
2, 146684, Note_off_c, 0, 53, 100
2, 146688, Note_on_c, 0, 75, 100
2, 146688, Note_on_c, 0, 63, 100
2, 147260, Note_off_c, 0, 75, 100
2, 147264, Note_on_c, 0, 72, 100
2, 147452, Note_off_c, 0, 63, 100
2, 147452, Note_off_c, 0, 72, 100
2, 147456, Note_on_c, 0, 74, 100
2, 147456, Note_on_c, 0, 62, 100
2, 147836, Note_off_c, 0, 74, 100
2, 147836, Note_off_c, 0, 62, 100
2, 147840, Note_on_c, 0, 62, 115
2, 148412, Note_off_c, 0, 62, 100
2, 148416, Note_on_c, 0, 58, 100
2, 148604, Note_off_c, 0, 58, 100
2, 148608, Note_on_c, 0, 53, 100
2, 148988, Note_off_c, 0, 53, 100
2, 148992, Note_on_c, 0, 77, 100
2, 148992, Note_on_c, 0, 75, 100
2, 149564, Note_off_c, 0, 75, 100
2, 149568, Note_on_c, 0, 72, 100
2, 149756, Note_off_c, 0, 72, 100
2, 149760, Note_on_c, 0, 74, 100
2, 150140, Note_off_c, 0, 77, 100
2, 150140, Note_off_c, 0, 74, 100
2, 150144, Note_on_c, 0, 62, 125
2, 150716, Note_off_c, 0, 62, 100
2, 150720, Note_on_c, 0, 58, 110
2, 150908, Note_off_c, 0, 58, 100
2, 150912, Note_on_c, 0, 53, 110
2, 151292, Note_off_c, 0, 53, 100
2, 151296, Note_on_c, 0, 75, 120
2, 151296, Note_on_c, 0, 87, 120
2, 151868, Note_off_c, 0, 75, 100
2, 151868, Note_off_c, 0, 87, 100
2, 151872, Note_on_c, 0, 84, 120
2, 151872, Note_on_c, 0, 72, 120
2, 152060, Note_off_c, 0, 84, 100
2, 152060, Note_off_c, 0, 72, 100
2, 152064, Note_on_c, 0, 82, 120
2, 152064, Note_on_c, 0, 70, 120
2, 152444, Note_off_c, 0, 82, 100
2, 152444, Note_off_c, 0, 70, 100
2, 152448, Note_on_c, 0, 77, 120
2, 152448, Note_on_c, 0, 89, 120
2, 152636, Note_off_c, 0, 77, 100
2, 152636, Note_off_c, 0, 89, 100
2, 152640, Note_on_c, 0, 86, 120
2, 152640, Note_on_c, 0, 74, 120
2, 153020, Note_off_c, 0, 86, 100
2, 153020, Note_off_c, 0, 74, 100
2, 153024, Note_on_c, 0, 70, 120
2, 153024, Note_on_c, 0, 82, 120
2, 153212, Note_off_c, 0, 70, 100
2, 153212, Note_off_c, 0, 82, 100
2, 153216, Note_on_c, 0, 77, 120
2, 153216, Note_on_c, 0, 65, 120
2, 153596, Note_off_c, 0, 77, 100
2, 153596, Note_off_c, 0, 65, 100
2, 153600, Note_on_c, 0, 74, 120
2, 153600, Note_on_c, 0, 62, 120
2, 153788, Note_off_c, 0, 74, 100
2, 153788, Note_off_c, 0, 62, 100
2, 153792, Note_on_c, 0, 70, 120
2, 153792, Note_on_c, 0, 58, 120
2, 154172, Note_off_c, 0, 70, 100
2, 154172, Note_off_c, 0, 58, 100
2, 154176, Note_on_c, 0, 65, 120
2, 154176, Note_on_c, 0, 53, 120
2, 154364, Note_off_c, 0, 65, 100
2, 154364, Note_off_c, 0, 53, 100
2, 154368, Note_on_c, 0, 70, 120
2, 154368, Note_on_c, 0, 58, 120
2, 154748, Note_off_c, 0, 70, 100
2, 154748, Note_off_c, 0, 58, 100
2, 154944, Note_on_c, 0, 58, 120
2, 154944, Note_on_c, 0, 53, 120
2, 154944, Note_on_c, 0, 50, 120
2, 155324, Note_off_c, 0, 58, 100
2, 155324, Note_off_c, 0, 53, 100
2, 155324, Note_off_c, 0, 50, 100
2, 155520, Note_on_c, 0, 58, 120
2, 155520, Note_on_c, 0, 53, 120
2, 155520, Note_on_c, 0, 50, 120
2, 155900, Note_off_c, 0, 58, 100
2, 155900, Note_off_c, 0, 53, 100
2, 155900, Note_off_c, 0, 50, 100
2, 156672, Note_on_c, 0, 67, 80
2, 156672, Note_on_c, 0, 63, 80
2, 156672, Note_on_c, 0, 58, 80
2, 157820, Note_off_c, 0, 67, 100
2, 157820, Note_off_c, 0, 63, 100
2, 157820, Note_off_c, 0, 58, 100
2, 157824, Note_on_c, 0, 63, 80
2, 157824, Note_on_c, 0, 58, 80
2, 157824, Note_on_c, 0, 55, 80
2, 158204, Note_off_c, 0, 63, 100
2, 158204, Note_off_c, 0, 58, 100
2, 158204, Note_off_c, 0, 55, 100
2, 158976, Note_on_c, 0, 70, 110
2, 158976, Note_on_c, 0, 67, 110
2, 158976, Note_on_c, 0, 63, 110
2, 158976, Note_on_c, 0, 58, 110
2, 160124, Note_off_c, 0, 70, 100
2, 160124, Note_off_c, 0, 67, 100
2, 160124, Note_off_c, 0, 63, 100
2, 160124, Note_off_c, 0, 58, 100
2, 160128, Note_on_c, 0, 67, 100
2, 160128, Note_on_c, 0, 63, 100
2, 160128, Note_on_c, 0, 58, 100
2, 160128, Note_on_c, 0, 55, 100
2, 160508, Note_off_c, 0, 67, 100
2, 160508, Note_off_c, 0, 63, 100
2, 160508, Note_off_c, 0, 58, 100
2, 160508, Note_off_c, 0, 55, 100
2, 161088, Note_on_c, 0, 70, 80
2, 161276, Note_off_c, 0, 70, 100
2, 161280, Note_on_c, 0, 75, 80
2, 161468, Note_off_c, 0, 75, 100
2, 161472, Note_on_c, 0, 74, 80
2, 161660, Note_off_c, 0, 74, 100
2, 161664, Note_on_c, 0, 77, 80
2, 161852, Note_off_c, 0, 77, 100
2, 161856, Note_on_c, 0, 75, 80
2, 162044, Note_off_c, 0, 75, 100
2, 162048, Note_on_c, 0, 74, 80
2, 162236, Note_off_c, 0, 74, 100
2, 162240, Note_on_c, 0, 77, 80
2, 162428, Note_off_c, 0, 77, 100
2, 162432, Note_on_c, 0, 75, 80
2, 162620, Note_off_c, 0, 75, 100
2, 162624, Note_on_c, 0, 74, 80
2, 162812, Note_off_c, 0, 74, 100
2, 162816, Note_on_c, 0, 77, 80
2, 163004, Note_off_c, 0, 77, 100
2, 163008, Note_on_c, 0, 75, 80
2, 163196, Note_off_c, 0, 75, 100
2, 163200, Note_on_c, 0, 74, 80
2, 163388, Note_off_c, 0, 74, 100
2, 163392, Note_on_c, 0, 72, 80
2, 163580, Note_off_c, 0, 72, 100
2, 163584, Note_on_c, 0, 80, 80
2, 163772, Note_off_c, 0, 80, 100
2, 163776, Note_on_c, 0, 79, 80
2, 163964, Note_off_c, 0, 79, 100
2, 163968, Note_on_c, 0, 82, 80
2, 164156, Note_off_c, 0, 82, 100
2, 164160, Note_on_c, 0, 80, 80
2, 164348, Note_off_c, 0, 80, 100
2, 164352, Note_on_c, 0, 79, 80
2, 164540, Note_off_c, 0, 79, 100
2, 164544, Note_on_c, 0, 82, 80
2, 164732, Note_off_c, 0, 82, 100
2, 164736, Note_on_c, 0, 80, 80
2, 164924, Note_off_c, 0, 80, 100
2, 164928, Note_on_c, 0, 79, 80
2, 165116, Note_off_c, 0, 79, 100
2, 165120, Note_on_c, 0, 82, 80
2, 165308, Note_off_c, 0, 82, 100
2, 165312, Note_on_c, 0, 80, 80
2, 165500, Note_off_c, 0, 80, 100
2, 165504, Note_on_c, 0, 79, 80
2, 165692, Note_off_c, 0, 79, 100
2, 165696, Note_on_c, 0, 77, 80
2, 165884, Note_off_c, 0, 77, 100
2, 165888, Note_on_c, 0, 87, 80
2, 166076, Note_off_c, 0, 87, 100
2, 166080, Note_on_c, 0, 86, 82
2, 166268, Note_off_c, 0, 86, 100
2, 166272, Note_on_c, 0, 89, 84
2, 166460, Note_off_c, 0, 89, 100
2, 166464, Note_on_c, 0, 87, 87
2, 166652, Note_off_c, 0, 87, 100
2, 166656, Note_on_c, 0, 86, 89
2, 166844, Note_off_c, 0, 86, 100
2, 166848, Note_on_c, 0, 89, 92
2, 167036, Note_off_c, 0, 89, 100
2, 167040, Note_on_c, 0, 87, 94
2, 167228, Note_off_c, 0, 87, 100
2, 167232, Note_on_c, 0, 86, 97
2, 167420, Note_off_c, 0, 86, 100
2, 167424, Note_on_c, 0, 89, 99
2, 167612, Note_off_c, 0, 89, 100
2, 167616, Note_on_c, 0, 87, 111
2, 167804, Note_off_c, 0, 87, 100
2, 167808, Note_on_c, 0, 85, 91
2, 167996, Note_off_c, 0, 85, 100
2, 168000, Note_on_c, 0, 84, 81
2, 168188, Note_off_c, 0, 84, 100
2, 168192, Note_on_c, 0, 83, 80
2, 168380, Note_off_c, 0, 83, 100
2, 168384, Note_on_c, 0, 84, 80
2, 168572, Note_off_c, 0, 84, 100
2, 168576, Note_on_c, 0, 82, 80
2, 168764, Note_off_c, 0, 82, 100
2, 168768, Note_on_c, 0, 80, 80
2, 168956, Note_off_c, 0, 80, 100
2, 168960, Note_on_c, 0, 79, 80
2, 169148, Note_off_c, 0, 79, 100
2, 169152, Note_on_c, 0, 77, 80
2, 169340, Note_off_c, 0, 77, 100
2, 169344, Note_on_c, 0, 75, 80
2, 169532, Note_off_c, 0, 75, 100
2, 169536, Note_on_c, 0, 74, 80
2, 169724, Note_off_c, 0, 74, 100
2, 169728, Note_on_c, 0, 77, 80
2, 169916, Note_off_c, 0, 77, 100
2, 169920, Note_on_c, 0, 80, 80
2, 170108, Note_off_c, 0, 80, 100
2, 170112, Note_on_c, 0, 77, 80
2, 170300, Note_off_c, 0, 77, 100
2, 170304, Note_on_c, 0, 74, 80
2, 170492, Note_off_c, 0, 74, 100
2, 170496, Note_on_c, 0, 75, 80
2, 170876, Note_off_c, 0, 75, 100
2, 171072, Note_on_c, 0, 79, 83
2, 171072, Note_on_c, 0, 75, 83
2, 171072, Note_on_c, 0, 67, 83
2, 172220, Note_off_c, 0, 67, 100
2, 172220, Note_off_c, 0, 75, 100
2, 172220, Note_off_c, 0, 79, 100
2, 172224, Note_on_c, 0, 80, 90
2, 172224, Note_on_c, 0, 75, 90
2, 172224, Note_on_c, 0, 68, 90
2, 172796, Note_off_c, 0, 80, 100
2, 172796, Note_off_c, 0, 75, 100
2, 172796, Note_off_c, 0, 68, 100
2, 172800, Note_on_c, 0, 82, 94
2, 172800, Note_on_c, 0, 79, 94
2, 172800, Note_on_c, 0, 75, 94
2, 172800, Note_on_c, 0, 70, 94
2, 173948, Note_off_c, 0, 82, 100
2, 173948, Note_off_c, 0, 79, 100
2, 173948, Note_off_c, 0, 75, 100
2, 173948, Note_off_c, 0, 70, 100
2, 173952, Note_on_c, 0, 74, 110
2, 173952, Note_on_c, 0, 70, 110
2, 173952, Note_on_c, 0, 68, 110
2, 173952, Note_on_c, 0, 62, 110
2, 175100, Note_off_c, 0, 74, 100
2, 175100, Note_off_c, 0, 70, 100
2, 175100, Note_off_c, 0, 68, 100
2, 175100, Note_off_c, 0, 62, 100
2, 175104, Note_on_c, 0, 75, 100
2, 175104, Note_on_c, 0, 70, 100
2, 175104, Note_on_c, 0, 67, 100
2, 175104, Note_on_c, 0, 63, 100
2, 175484, Note_off_c, 0, 75, 100
2, 175484, Note_off_c, 0, 70, 100
2, 175484, Note_off_c, 0, 67, 100
2, 175484, Note_off_c, 0, 63, 100
2, 176832, Note_on_c, 0, 75, 80
2, 177020, Note_off_c, 0, 75, 100
2, 177024, Note_on_c, 0, 77, 80
2, 177212, Note_off_c, 0, 77, 100
2, 177216, Note_on_c, 0, 79, 80
2, 177404, Note_off_c, 0, 79, 100
2, 177408, Note_on_c, 0, 77, 80
2, 177596, Note_off_c, 0, 77, 100
2, 177600, Note_on_c, 0, 75, 80
2, 177788, Note_off_c, 0, 75, 100
2, 177792, Note_on_c, 0, 74, 80
2, 177980, Note_off_c, 0, 74, 100
2, 177984, Note_on_c, 0, 72, 80
2, 178172, Note_off_c, 0, 72, 100
2, 178176, Note_on_c, 0, 70, 80
2, 178364, Note_off_c, 0, 70, 100
2, 178368, Note_on_c, 0, 68, 80
2, 178556, Note_off_c, 0, 68, 100
2, 178560, Note_on_c, 0, 67, 80
2, 178748, Note_off_c, 0, 67, 100
2, 178752, Note_on_c, 0, 68, 80
2, 178940, Note_off_c, 0, 68, 100
2, 178944, Note_on_c, 0, 67, 80
2, 179132, Note_off_c, 0, 67, 100
2, 179136, Note_on_c, 0, 65, 80
2, 179324, Note_off_c, 0, 65, 100
2, 179328, Note_on_c, 0, 63, 80
2, 179516, Note_off_c, 0, 63, 100
2, 179520, Note_on_c, 0, 62, 80
2, 179708, Note_off_c, 0, 62, 100
2, 179712, Note_on_c, 0, 63, 80
2, 179900, Note_off_c, 0, 63, 100
2, 179904, Note_on_c, 0, 65, 81
2, 180092, Note_off_c, 0, 65, 100
2, 180096, Note_on_c, 0, 67, 83
2, 180284, Note_off_c, 0, 67, 100
2, 180288, Note_on_c, 0, 68, 85
2, 180476, Note_off_c, 0, 68, 100
2, 180480, Note_on_c, 0, 70, 87
2, 180668, Note_off_c, 0, 70, 100
2, 180672, Note_on_c, 0, 72, 89
2, 180860, Note_off_c, 0, 72, 100
2, 180864, Note_on_c, 0, 74, 90
2, 181052, Note_off_c, 0, 74, 100
2, 181056, Note_on_c, 0, 75, 92
2, 181244, Note_off_c, 0, 75, 100
2, 181248, Note_on_c, 0, 77, 94
2, 181436, Note_off_c, 0, 77, 100
2, 181440, Note_on_c, 0, 79, 96
2, 181628, Note_off_c, 0, 79, 100
2, 181632, Note_on_c, 0, 80, 98
2, 181820, Note_off_c, 0, 80, 100
2, 181824, Note_on_c, 0, 82, 99
2, 182012, Note_off_c, 0, 82, 100
2, 182016, Note_on_c, 0, 80, 100
2, 182204, Note_off_c, 0, 80, 100
2, 182208, Note_on_c, 0, 79, 100
2, 182396, Note_off_c, 0, 79, 100
2, 182400, Note_on_c, 0, 77, 100
2, 182588, Note_off_c, 0, 77, 100
2, 182592, Note_on_c, 0, 75, 100
2, 182780, Note_off_c, 0, 75, 100
2, 182784, Note_on_c, 0, 74, 100
2, 182972, Note_off_c, 0, 74, 100
2, 182976, Note_on_c, 0, 72, 100
2, 183164, Note_off_c, 0, 72, 100
2, 183168, Note_on_c, 0, 70, 100
2, 183356, Note_off_c, 0, 70, 100
2, 183360, Note_on_c, 0, 72, 100
2, 183548, Note_off_c, 0, 72, 100
2, 183552, Note_on_c, 0, 70, 100
2, 183740, Note_off_c, 0, 70, 100
2, 183744, Note_on_c, 0, 68, 100
2, 183932, Note_off_c, 0, 68, 100
2, 183936, Note_on_c, 0, 67, 100
2, 184124, Note_off_c, 0, 67, 100
2, 184128, Note_on_c, 0, 65, 100
2, 184316, Note_off_c, 0, 65, 100
2, 184320, Note_on_c, 0, 67, 120
2, 184320, Note_on_c, 0, 63, 120
2, 184320, Note_on_c, 0, 58, 120
2, 184320, Note_on_c, 0, 55, 120
2, 185468, Note_off_c, 0, 67, 100
2, 185468, Note_off_c, 0, 63, 100
2, 185468, Note_off_c, 0, 58, 100
2, 185468, Note_off_c, 0, 55, 100
2, 185472, Note_on_c, 0, 63, 120
2, 185472, Note_on_c, 0, 58, 120
2, 185472, Note_on_c, 0, 55, 120
2, 185472, Note_on_c, 0, 51, 120
2, 185852, Note_off_c, 0, 63, 100
2, 185852, Note_off_c, 0, 58, 100
2, 185852, Note_off_c, 0, 55, 100
2, 185852, Note_off_c, 0, 51, 100
2, 186432, Note_on_c, 0, 79, 70
2, 186432, Note_on_c, 0, 67, 70
2, 186620, Note_off_c, 0, 79, 100
2, 186620, Note_off_c, 0, 67, 100
2, 186624, Note_on_c, 0, 80, 70
2, 186624, Note_on_c, 0, 68, 70
2, 187004, Note_off_c, 0, 80, 100
2, 187004, Note_off_c, 0, 68, 100
2, 187008, Note_on_c, 0, 80, 70
2, 187008, Note_on_c, 0, 68, 70
2, 187196, Note_off_c, 0, 80, 100
2, 187196, Note_off_c, 0, 68, 100
2, 187200, Note_on_c, 0, 80, 70
2, 187200, Note_on_c, 0, 68, 70
2, 187580, Note_off_c, 0, 80, 100
2, 187580, Note_off_c, 0, 68, 100
2, 187584, Note_on_c, 0, 72, 70
2, 187584, Note_on_c, 0, 84, 70
2, 187772, Note_off_c, 0, 72, 100
2, 187772, Note_off_c, 0, 84, 100
2, 187776, Note_on_c, 0, 75, 70
2, 187776, Note_on_c, 0, 87, 70
2, 188156, Note_off_c, 0, 75, 100
2, 188156, Note_off_c, 0, 87, 100
2, 188928, Note_on_c, 0, 69, 120
2, 188928, Note_on_c, 0, 66, 120
2, 188928, Note_on_c, 0, 60, 120
2, 188928, Note_on_c, 0, 57, 120
2, 190076, Note_off_c, 0, 69, 100
2, 190076, Note_off_c, 0, 66, 100
2, 190076, Note_off_c, 0, 60, 100
2, 190076, Note_off_c, 0, 57, 100
2, 190080, Note_on_c, 0, 66, 120
2, 190080, Note_on_c, 0, 60, 120
2, 190080, Note_on_c, 0, 57, 120
2, 190460, Note_off_c, 0, 66, 100
2, 190460, Note_off_c, 0, 60, 100
2, 190460, Note_off_c, 0, 57, 100
2, 191040, Note_on_c, 0, 69, 70
2, 191040, Note_on_c, 0, 81, 70
2, 191228, Note_off_c, 0, 69, 100
2, 191228, Note_off_c, 0, 81, 100
2, 191232, Note_on_c, 0, 70, 70
2, 191232, Note_on_c, 0, 82, 70
2, 191612, Note_off_c, 0, 70, 100
2, 191612, Note_off_c, 0, 82, 100
2, 191616, Note_on_c, 0, 82, 70
2, 191616, Note_on_c, 0, 70, 70
2, 191804, Note_off_c, 0, 82, 100
2, 191804, Note_off_c, 0, 70, 100
2, 191808, Note_on_c, 0, 70, 70
2, 191808, Note_on_c, 0, 82, 70
2, 192188, Note_off_c, 0, 70, 100
2, 192188, Note_off_c, 0, 82, 100
2, 192192, Note_on_c, 0, 73, 70
2, 192192, Note_on_c, 0, 85, 70
2, 192380, Note_off_c, 0, 73, 100
2, 192380, Note_off_c, 0, 85, 100
2, 192384, Note_on_c, 0, 77, 70
2, 192384, Note_on_c, 0, 89, 70
2, 192764, Note_off_c, 0, 77, 100
2, 192764, Note_off_c, 0, 89, 100
2, 193536, Note_on_c, 0, 85, 120
2, 193536, Note_on_c, 0, 76, 120
2, 193536, Note_on_c, 0, 73, 120
2, 194684, Note_off_c, 0, 85, 100
2, 194684, Note_off_c, 0, 76, 100
2, 194684, Note_off_c, 0, 73, 100
2, 194688, Note_on_c, 0, 82, 120
2, 194688, Note_on_c, 0, 76, 120
2, 194688, Note_on_c, 0, 70, 120
2, 195836, Note_off_c, 0, 82, 100
2, 195836, Note_off_c, 0, 76, 100
2, 195836, Note_off_c, 0, 70, 100
2, 195840, Note_on_c, 0, 81, 120
2, 196220, Note_off_c, 0, 81, 100
2, 196224, Note_on_c, 0, 84, 80
2, 196412, Note_off_c, 0, 84, 100
2, 196416, Note_on_c, 0, 77, 80
2, 196796, Note_off_c, 0, 77, 100
2, 196800, Note_on_c, 0, 81, 80
2, 196988, Note_off_c, 0, 81, 100
2, 196992, Note_on_c, 0, 82, 80
2, 197372, Note_off_c, 0, 82, 100
2, 197376, Note_on_c, 0, 85, 80
2, 197564, Note_off_c, 0, 85, 100
2, 197568, Note_on_c, 0, 77, 80
2, 197948, Note_off_c, 0, 77, 100
2, 197952, Note_on_c, 0, 82, 80
2, 198140, Note_off_c, 0, 82, 100
2, 198144, Note_on_c, 0, 81, 80
2, 198524, Note_off_c, 0, 81, 100
2, 198528, Note_on_c, 0, 84, 80
2, 198716, Note_off_c, 0, 84, 100
2, 198720, Note_on_c, 0, 81, 80
2, 199100, Note_off_c, 0, 81, 100
2, 199104, Note_on_c, 0, 77, 80
2, 199292, Note_off_c, 0, 77, 100
2, 199296, Note_on_c, 0, 82, 80
2, 199676, Note_off_c, 0, 82, 100
2, 199680, Note_on_c, 0, 85, 80
2, 199868, Note_off_c, 0, 85, 100
2, 199872, Note_on_c, 0, 77, 80
2, 200252, Note_off_c, 0, 77, 100
2, 200256, Note_on_c, 0, 82, 80
2, 200444, Note_off_c, 0, 82, 100
2, 200448, Note_on_c, 0, 81, 80
2, 200636, Note_off_c, 0, 81, 100
2, 200640, Note_on_c, 0, 83, 80
2, 200828, Note_off_c, 0, 83, 100
2, 200832, Note_on_c, 0, 84, 80
2, 201020, Note_off_c, 0, 84, 100
2, 201024, Note_on_c, 0, 77, 80
2, 201212, Note_off_c, 0, 77, 100
2, 201216, Note_on_c, 0, 80, 80
2, 201404, Note_off_c, 0, 80, 100
2, 201408, Note_on_c, 0, 81, 80
2, 201596, Note_off_c, 0, 81, 100
2, 201600, Note_on_c, 0, 72, 80
2, 201788, Note_off_c, 0, 72, 100
2, 201792, Note_on_c, 0, 76, 80
2, 201980, Note_off_c, 0, 76, 100
2, 201984, Note_on_c, 0, 77, 80
2, 202172, Note_off_c, 0, 77, 100
2, 202176, Note_on_c, 0, 69, 80
2, 202364, Note_off_c, 0, 69, 100
2, 202368, Note_on_c, 0, 71, 80
2, 202556, Note_off_c, 0, 71, 100
2, 202560, Note_on_c, 0, 72, 80
2, 202748, Note_off_c, 0, 72, 100
2, 202752, Note_on_c, 0, 65, 80
2, 202940, Note_off_c, 0, 65, 100
2, 202944, Note_on_c, 0, 69, 80
2, 203132, Note_off_c, 0, 69, 100
2, 203136, Note_on_c, 0, 72, 80
2, 203324, Note_off_c, 0, 72, 100
2, 203328, Note_on_c, 0, 77, 80
2, 203516, Note_off_c, 0, 77, 100
2, 203520, Note_on_c, 0, 69, 80
2, 203708, Note_off_c, 0, 69, 100
2, 203712, Note_on_c, 0, 72, 80
2, 203900, Note_off_c, 0, 72, 100
2, 203904, Note_on_c, 0, 65, 80
2, 204092, Note_off_c, 0, 65, 100
2, 204096, Note_on_c, 0, 72, 80
2, 204284, Note_off_c, 0, 72, 100
2, 204288, Note_on_c, 0, 69, 80
2, 204476, Note_off_c, 0, 69, 100
2, 204480, Note_on_c, 0, 70, 80
2, 204668, Note_off_c, 0, 70, 100
2, 204672, Note_on_c, 0, 72, 80
2, 204860, Note_off_c, 0, 72, 100
2, 204864, Note_on_c, 0, 74, 80
2, 205052, Note_off_c, 0, 74, 100
2, 205056, Note_on_c, 0, 65, 80
2, 205244, Note_off_c, 0, 65, 100
2, 205248, Note_on_c, 0, 69, 80
2, 205436, Note_off_c, 0, 69, 100
2, 205440, Note_on_c, 0, 72, 80
2, 205628, Note_off_c, 0, 72, 100
2, 205632, Note_on_c, 0, 77, 80
2, 205820, Note_off_c, 0, 77, 100
2, 205824, Note_on_c, 0, 69, 80
2, 206012, Note_off_c, 0, 69, 100
2, 206016, Note_on_c, 0, 72, 80
2, 206204, Note_off_c, 0, 72, 100
2, 206208, Note_on_c, 0, 65, 80
2, 206396, Note_off_c, 0, 65, 100
2, 206400, Note_on_c, 0, 72, 80
2, 206588, Note_off_c, 0, 72, 100
2, 206592, Note_on_c, 0, 69, 80
2, 206780, Note_off_c, 0, 69, 100
2, 206784, Note_on_c, 0, 70, 80
2, 206972, Note_off_c, 0, 70, 100
2, 206976, Note_on_c, 0, 72, 80
2, 207164, Note_off_c, 0, 72, 100
2, 207168, Note_on_c, 0, 74, 80
2, 207356, Note_off_c, 0, 74, 100
2, 207360, Note_on_c, 0, 66, 80
2, 207548, Note_off_c, 0, 66, 100
2, 207552, Note_on_c, 0, 69, 80
2, 207740, Note_off_c, 0, 69, 100
2, 207744, Note_on_c, 0, 66, 80
2, 207932, Note_off_c, 0, 66, 100
2, 207936, Note_on_c, 0, 67, 80
2, 208124, Note_off_c, 0, 67, 100
2, 208128, Note_on_c, 0, 69, 80
2, 208316, Note_off_c, 0, 69, 100
2, 208320, Note_on_c, 0, 70, 80
2, 208508, Note_off_c, 0, 70, 100
2, 208512, Note_on_c, 0, 62, 80
2, 208700, Note_off_c, 0, 62, 100
2, 208704, Note_on_c, 0, 65, 80
2, 208892, Note_off_c, 0, 65, 100
2, 208896, Note_on_c, 0, 62, 80
2, 209084, Note_off_c, 0, 62, 100
2, 209088, Note_on_c, 0, 63, 80
2, 209276, Note_off_c, 0, 63, 100
2, 209280, Note_on_c, 0, 65, 80
2, 209468, Note_off_c, 0, 65, 100
2, 209472, Note_on_c, 0, 67, 80
2, 209660, Note_off_c, 0, 67, 100
2, 209664, Note_on_c, 0, 59, 80
2, 209852, Note_off_c, 0, 59, 100
2, 209856, Note_on_c, 0, 62, 80
2, 210044, Note_off_c, 0, 62, 100
2, 210048, Note_on_c, 0, 59, 80
2, 210236, Note_off_c, 0, 59, 100
2, 210240, Note_on_c, 0, 60, 80
2, 210428, Note_off_c, 0, 60, 100
2, 210432, Note_on_c, 0, 62, 80
2, 210620, Note_off_c, 0, 62, 100
2, 210624, Note_on_c, 0, 63, 80
2, 210812, Note_off_c, 0, 63, 100
2, 210816, Note_on_c, 0, 58, 80
2, 211004, Note_off_c, 0, 58, 100
2, 211008, Note_on_c, 0, 62, 80
2, 211196, Note_off_c, 0, 62, 100
2, 211200, Note_on_c, 0, 65, 80
2, 211388, Note_off_c, 0, 65, 100
2, 211392, Note_on_c, 0, 63, 80
2, 211580, Note_off_c, 0, 63, 100
2, 211584, Note_on_c, 0, 60, 80
2, 211772, Note_off_c, 0, 60, 100
2, 211776, Note_on_c, 0, 57, 80
2, 211964, Note_off_c, 0, 57, 100
2, 211968, Note_on_c, 0, 58, 80
2, 212348, Note_off_c, 0, 58, 100
2, 214272, Note_on_c, 0, 69, 80
2, 214460, Note_off_c, 0, 69, 100
2, 214464, Note_on_c, 0, 89, 104
2, 215804, Note_off_c, 0, 89, 100
2, 215808, Note_on_c, 0, 69, 80
2, 215996, Note_off_c, 0, 69, 100
2, 216000, Note_on_c, 0, 70, 80
2, 216188, Note_off_c, 0, 70, 100
2, 216192, Note_on_c, 0, 72, 80
2, 216380, Note_off_c, 0, 72, 100
2, 216384, Note_on_c, 0, 74, 80
2, 216572, Note_off_c, 0, 74, 100
2, 216576, Note_on_c, 0, 69, 80
2, 216764, Note_off_c, 0, 69, 100
2, 216768, Note_on_c, 0, 89, 109
2, 218108, Note_off_c, 0, 89, 100
2, 218112, Note_on_c, 0, 69, 80
2, 218300, Note_off_c, 0, 69, 100
2, 218304, Note_on_c, 0, 70, 80
2, 218492, Note_off_c, 0, 70, 100
2, 218496, Note_on_c, 0, 72, 80
2, 218684, Note_off_c, 0, 72, 100
2, 218688, Note_on_c, 0, 74, 80
2, 218876, Note_off_c, 0, 74, 100
2, 218880, Note_on_c, 0, 66, 80
2, 219068, Note_off_c, 0, 66, 100
2, 219072, Note_on_c, 0, 69, 80
2, 219260, Note_off_c, 0, 69, 100
2, 219264, Note_on_c, 0, 66, 80
2, 219452, Note_off_c, 0, 66, 100
2, 219456, Note_on_c, 0, 67, 80
2, 219644, Note_off_c, 0, 67, 100
2, 219648, Note_on_c, 0, 69, 80
2, 219836, Note_off_c, 0, 69, 100
2, 219840, Note_on_c, 0, 70, 80
2, 220028, Note_off_c, 0, 70, 100
2, 220032, Note_on_c, 0, 62, 80
2, 220220, Note_off_c, 0, 62, 100
2, 220224, Note_on_c, 0, 65, 80
2, 220412, Note_off_c, 0, 65, 100
2, 220416, Note_on_c, 0, 62, 80
2, 220604, Note_off_c, 0, 62, 100
2, 220608, Note_on_c, 0, 63, 80
2, 220796, Note_off_c, 0, 63, 100
2, 220800, Note_on_c, 0, 65, 80
2, 220988, Note_off_c, 0, 65, 100
2, 220992, Note_on_c, 0, 67, 80
2, 221180, Note_off_c, 0, 67, 100
2, 221184, Note_on_c, 0, 59, 80
2, 221372, Note_off_c, 0, 59, 100
2, 221376, Note_on_c, 0, 62, 80
2, 221564, Note_off_c, 0, 62, 100
2, 221568, Note_on_c, 0, 59, 80
2, 221756, Note_off_c, 0, 59, 100
2, 221760, Note_on_c, 0, 60, 80
2, 221948, Note_off_c, 0, 60, 100
2, 221952, Note_on_c, 0, 62, 80
2, 222140, Note_off_c, 0, 62, 100
2, 222144, Note_on_c, 0, 63, 80
2, 222332, Note_off_c, 0, 63, 100
2, 222336, Note_on_c, 0, 58, 80
2, 222524, Note_off_c, 0, 58, 100
2, 222528, Note_on_c, 0, 62, 80
2, 222716, Note_off_c, 0, 62, 100
2, 222720, Note_on_c, 0, 65, 80
2, 222908, Note_off_c, 0, 65, 100
2, 222912, Note_on_c, 0, 60, 80
2, 223100, Note_off_c, 0, 60, 100
2, 223104, Note_on_c, 0, 63, 80
2, 223292, Note_off_c, 0, 63, 100
2, 223296, Note_on_c, 0, 69, 80
2, 223484, Note_off_c, 0, 69, 100
2, 223488, Note_on_c, 0, 70, 80
2, 223488, Note_on_c, 0, 65, 80
2, 223488, Note_on_c, 0, 62, 80
2, 223868, Note_off_c, 0, 70, 100
2, 223868, Note_off_c, 0, 65, 100
2, 223868, Note_off_c, 0, 62, 100
2, 224064, Note_on_c, 0, 74, 80
2, 224064, Note_on_c, 0, 62, 80
2, 224636, Note_off_c, 0, 74, 100
2, 224636, Note_off_c, 0, 62, 100
2, 224640, Note_on_c, 0, 63, 80
2, 224640, Note_on_c, 0, 72, 80
2, 225212, Note_off_c, 0, 63, 100
2, 225212, Note_off_c, 0, 72, 100
2, 225216, Note_on_c, 0, 70, 80
2, 225216, Note_on_c, 0, 65, 80
2, 225788, Note_off_c, 0, 70, 100
2, 225788, Note_off_c, 0, 65, 100
2, 225792, Note_on_c, 0, 67, 80
2, 226172, Note_off_c, 0, 67, 100
2, 226368, Note_on_c, 0, 75, 80
2, 226368, Note_on_c, 0, 63, 80
2, 226940, Note_off_c, 0, 75, 100
2, 226940, Note_off_c, 0, 63, 100
2, 226944, Note_on_c, 0, 74, 80
2, 226944, Note_on_c, 0, 65, 80
2, 227516, Note_off_c, 0, 74, 100
2, 227516, Note_off_c, 0, 65, 100
2, 227520, Note_on_c, 0, 72, 80
2, 227520, Note_on_c, 0, 67, 80
2, 228092, Note_off_c, 0, 72, 100
2, 228092, Note_off_c, 0, 67, 100
2, 228096, Note_on_c, 0, 69, 80
2, 228476, Note_off_c, 0, 69, 100
2, 228672, Note_on_c, 0, 81, 80
2, 228672, Note_on_c, 0, 69, 80
2, 229244, Note_off_c, 0, 81, 100
2, 229244, Note_off_c, 0, 69, 100
2, 229248, Note_on_c, 0, 82, 80
2, 229248, Note_on_c, 0, 70, 80
2, 229820, Note_off_c, 0, 82, 100
2, 229820, Note_off_c, 0, 70, 100
2, 229824, Note_on_c, 0, 72, 87
2, 229824, Note_on_c, 0, 84, 87
2, 230396, Note_off_c, 0, 72, 100
2, 230396, Note_off_c, 0, 84, 100
2, 230400, Note_on_c, 0, 86, 94
2, 230400, Note_on_c, 0, 74, 94
2, 230972, Note_off_c, 0, 86, 100
2, 230972, Note_off_c, 0, 74, 100
2, 230976, Note_on_c, 0, 77, 102
2, 230976, Note_on_c, 0, 89, 102
2, 231740, Note_off_c, 0, 77, 100
2, 231744, Note_on_c, 0, 79, 110
2, 231932, Note_off_c, 0, 79, 100
2, 231936, Note_on_c, 0, 77, 103
2, 232124, Note_off_c, 0, 89, 100
2, 232124, Note_off_c, 0, 77, 100
2, 232128, Note_on_c, 0, 89, 96
2, 232128, Note_on_c, 0, 76, 96
2, 232172, Note_off_c, 0, 89, 100
2, 232176, Note_on_c, 0, 88, 94
2, 232316, Note_off_c, 0, 88, 100
2, 232320, Note_on_c, 0, 86, 88
2, 232508, Note_off_c, 0, 86, 100
2, 232512, Note_on_c, 0, 88, 81
2, 232700, Note_off_c, 0, 76, 100
2, 232700, Note_off_c, 0, 88, 100
2, 232704, Note_on_c, 0, 89, 80
2, 232704, Note_on_c, 0, 77, 80
2, 233084, Note_off_c, 0, 89, 100
2, 233084, Note_off_c, 0, 77, 100
2, 233280, Note_on_c, 0, 62, 80
2, 233472, Note_on_c, 0, 74, 80
2, 233660, Note_off_c, 0, 74, 100
2, 233664, Note_on_c, 0, 74, 80
2, 233852, Note_off_c, 0, 62, 100
2, 233852, Note_off_c, 0, 74, 100
2, 233856, Note_on_c, 0, 63, 80
2, 233856, Note_on_c, 0, 74, 80
2, 234044, Note_off_c, 0, 74, 100
2, 234048, Note_on_c, 0, 72, 80
2, 234236, Note_off_c, 0, 72, 100
2, 234240, Note_on_c, 0, 72, 80
2, 234428, Note_off_c, 0, 63, 100
2, 234428, Note_off_c, 0, 72, 100
2, 234432, Note_on_c, 0, 65, 80
2, 234624, Note_on_c, 0, 70, 80
2, 234812, Note_off_c, 0, 70, 100
2, 234816, Note_on_c, 0, 70, 80
2, 235004, Note_off_c, 0, 65, 100
2, 235004, Note_off_c, 0, 70, 100
2, 235008, Note_on_c, 0, 69, 80
2, 235196, Note_off_c, 0, 69, 100
2, 235200, Note_on_c, 0, 67, 80
2, 235388, Note_off_c, 0, 67, 100
2, 235392, Note_on_c, 0, 67, 80
2, 235580, Note_off_c, 0, 67, 100
2, 235584, Note_on_c, 0, 63, 80
2, 235776, Note_on_c, 0, 75, 80
2, 235964, Note_off_c, 0, 75, 100
2, 235968, Note_on_c, 0, 75, 80
2, 236156, Note_off_c, 0, 63, 100
2, 236156, Note_off_c, 0, 75, 100
2, 236160, Note_on_c, 0, 65, 80
2, 236160, Note_on_c, 0, 75, 80
2, 236348, Note_off_c, 0, 75, 100
2, 236352, Note_on_c, 0, 74, 80
2, 236540, Note_off_c, 0, 74, 100
2, 236544, Note_on_c, 0, 74, 80
2, 236732, Note_off_c, 0, 65, 100
2, 236732, Note_off_c, 0, 74, 100
2, 236736, Note_on_c, 0, 67, 80
2, 236928, Note_on_c, 0, 72, 80
2, 237116, Note_off_c, 0, 72, 100
2, 237120, Note_on_c, 0, 72, 80
2, 237308, Note_off_c, 0, 67, 100
2, 237308, Note_off_c, 0, 72, 100
2, 237312, Note_on_c, 0, 70, 80
2, 237500, Note_off_c, 0, 70, 100
2, 237504, Note_on_c, 0, 69, 80
2, 237692, Note_off_c, 0, 69, 100
2, 237696, Note_on_c, 0, 69, 80
2, 237884, Note_off_c, 0, 69, 100
2, 237888, Note_on_c, 0, 81, 80
2, 237888, Note_on_c, 0, 77, 80
2, 237888, Note_on_c, 0, 69, 80
2, 238460, Note_off_c, 0, 81, 100
2, 238460, Note_off_c, 0, 77, 100
2, 238460, Note_off_c, 0, 69, 100
2, 238464, Note_on_c, 0, 79, 80
2, 238464, Note_on_c, 0, 82, 80
2, 238464, Note_on_c, 0, 70, 80
2, 239036, Note_off_c, 0, 79, 100
2, 239036, Note_off_c, 0, 82, 100
2, 239036, Note_off_c, 0, 70, 100
2, 239040, Note_on_c, 0, 72, 80
2, 239040, Note_on_c, 0, 81, 80
2, 239040, Note_on_c, 0, 84, 80
2, 239612, Note_off_c, 0, 72, 100
2, 239612, Note_off_c, 0, 81, 100
2, 239612, Note_off_c, 0, 84, 100
2, 239616, Note_on_c, 0, 86, 80
2, 239616, Note_on_c, 0, 82, 80
2, 239616, Note_on_c, 0, 74, 80
2, 239996, Note_off_c, 0, 86, 100
2, 239996, Note_off_c, 0, 82, 100
2, 239996, Note_off_c, 0, 74, 100
2, 240384, Note_on_c, 0, 82, 80
2, 240384, Note_on_c, 0, 70, 80
2, 240572, Note_off_c, 0, 82, 100
2, 240572, Note_off_c, 0, 70, 100
2, 240576, Note_on_c, 0, 82, 80
2, 240576, Note_on_c, 0, 70, 80
2, 240764, Note_off_c, 0, 82, 100
2, 240764, Note_off_c, 0, 70, 100
2, 240768, Note_on_c, 0, 82, 80
2, 240768, Note_on_c, 0, 70, 80
2, 240956, Note_off_c, 0, 82, 100
2, 240956, Note_off_c, 0, 70, 100
2, 240960, Note_on_c, 0, 81, 80
2, 240960, Note_on_c, 0, 69, 80
2, 241148, Note_off_c, 0, 81, 100
2, 241148, Note_off_c, 0, 69, 100
2, 241152, Note_on_c, 0, 81, 80
2, 241152, Note_on_c, 0, 69, 80
2, 241340, Note_off_c, 0, 81, 100
2, 241340, Note_off_c, 0, 69, 100
2, 241536, Note_on_c, 0, 79, 80
2, 241536, Note_on_c, 0, 67, 80
2, 241724, Note_off_c, 0, 79, 100
2, 241724, Note_off_c, 0, 67, 100
2, 241728, Note_on_c, 0, 79, 80
2, 241728, Note_on_c, 0, 67, 80
2, 241916, Note_off_c, 0, 79, 100
2, 241916, Note_off_c, 0, 67, 100
2, 241920, Note_on_c, 0, 79, 80
2, 241920, Note_on_c, 0, 67, 80
2, 242108, Note_off_c, 0, 79, 100
2, 242108, Note_off_c, 0, 67, 100
2, 242112, Note_on_c, 0, 77, 80
2, 242112, Note_on_c, 0, 65, 80
2, 242300, Note_off_c, 0, 77, 100
2, 242300, Note_off_c, 0, 65, 100
2, 242304, Note_on_c, 0, 77, 80
2, 242304, Note_on_c, 0, 65, 80
2, 242492, Note_off_c, 0, 77, 100
2, 242492, Note_off_c, 0, 65, 100
2, 242688, Note_on_c, 0, 75, 80
2, 242688, Note_on_c, 0, 63, 80
2, 242876, Note_off_c, 0, 75, 100
2, 242876, Note_off_c, 0, 63, 100
2, 242880, Note_on_c, 0, 75, 80
2, 242880, Note_on_c, 0, 63, 80
2, 243068, Note_off_c, 0, 75, 100
2, 243068, Note_off_c, 0, 63, 100
2, 243072, Note_on_c, 0, 75, 80
2, 243072, Note_on_c, 0, 63, 80
2, 243260, Note_off_c, 0, 75, 100
2, 243260, Note_off_c, 0, 63, 100
2, 243264, Note_on_c, 0, 74, 81
2, 243264, Note_on_c, 0, 62, 81
2, 243452, Note_off_c, 0, 74, 100
2, 243452, Note_off_c, 0, 62, 100
2, 243456, Note_on_c, 0, 74, 83
2, 243456, Note_on_c, 0, 62, 83
2, 243644, Note_off_c, 0, 74, 100
2, 243644, Note_off_c, 0, 62, 100
2, 243840, Note_on_c, 0, 72, 87
2, 243840, Note_on_c, 0, 60, 87
2, 244028, Note_off_c, 0, 72, 100
2, 244028, Note_off_c, 0, 60, 100
2, 244032, Note_on_c, 0, 72, 88
2, 244032, Note_on_c, 0, 60, 88
2, 244220, Note_off_c, 0, 72, 100
2, 244220, Note_off_c, 0, 60, 100
2, 244224, Note_on_c, 0, 72, 90
2, 244224, Note_on_c, 0, 60, 90
2, 244412, Note_off_c, 0, 72, 100
2, 244412, Note_off_c, 0, 60, 100
2, 244416, Note_on_c, 0, 70, 92
2, 244416, Note_on_c, 0, 58, 92
2, 244604, Note_off_c, 0, 70, 100
2, 244604, Note_off_c, 0, 58, 100
2, 244608, Note_on_c, 0, 70, 94
2, 244608, Note_on_c, 0, 58, 94
2, 244796, Note_off_c, 0, 70, 100
2, 244796, Note_off_c, 0, 58, 100
2, 244800, Note_on_c, 0, 70, 95
2, 244800, Note_on_c, 0, 58, 95
2, 244988, Note_off_c, 0, 70, 100
2, 244988, Note_off_c, 0, 58, 100
2, 244992, Note_on_c, 0, 69, 97
2, 244992, Note_on_c, 0, 57, 97
2, 245180, Note_off_c, 0, 69, 100
2, 245180, Note_off_c, 0, 57, 100
2, 245184, Note_on_c, 0, 69, 99
2, 245184, Note_on_c, 0, 57, 99
2, 245372, Note_off_c, 0, 69, 100
2, 245372, Note_off_c, 0, 57, 100
2, 245376, Note_on_c, 0, 69, 101
2, 245376, Note_on_c, 0, 57, 101
2, 245564, Note_off_c, 0, 69, 100
2, 245564, Note_off_c, 0, 57, 100
2, 245568, Note_on_c, 0, 67, 102
2, 245568, Note_on_c, 0, 55, 102
2, 245756, Note_off_c, 0, 67, 100
2, 245756, Note_off_c, 0, 55, 100
2, 245760, Note_on_c, 0, 67, 104
2, 245760, Note_on_c, 0, 55, 104
2, 245948, Note_off_c, 0, 67, 100
2, 245948, Note_off_c, 0, 55, 100
2, 245952, Note_on_c, 0, 67, 106
2, 245952, Note_on_c, 0, 55, 106
2, 246140, Note_off_c, 0, 67, 100
2, 246140, Note_off_c, 0, 55, 100
2, 246144, Note_on_c, 0, 65, 108
2, 246144, Note_on_c, 0, 53, 108
2, 246332, Note_off_c, 0, 65, 100
2, 246332, Note_off_c, 0, 53, 100
2, 246336, Note_on_c, 0, 65, 109
2, 246336, Note_on_c, 0, 53, 109
2, 246524, Note_off_c, 0, 65, 100
2, 246524, Note_off_c, 0, 53, 100
2, 246528, Note_on_c, 0, 65, 120
2, 246528, Note_on_c, 0, 53, 120
2, 246716, Note_off_c, 0, 65, 100
2, 246716, Note_off_c, 0, 53, 100
2, 246720, Note_on_c, 0, 63, 120
2, 246720, Note_on_c, 0, 60, 120
2, 246720, Note_on_c, 0, 57, 120
2, 246720, Note_on_c, 0, 51, 120
2, 246908, Note_off_c, 0, 63, 100
2, 246908, Note_off_c, 0, 60, 100
2, 246908, Note_off_c, 0, 57, 100
2, 246908, Note_off_c, 0, 51, 100
2, 246912, Note_on_c, 0, 63, 120
2, 246912, Note_on_c, 0, 60, 120
2, 246912, Note_on_c, 0, 57, 120
2, 246912, Note_on_c, 0, 51, 120
2, 247100, Note_off_c, 0, 63, 100
2, 247100, Note_off_c, 0, 60, 100
2, 247100, Note_off_c, 0, 57, 100
2, 247100, Note_off_c, 0, 51, 100
2, 247104, Note_on_c, 0, 63, 120
2, 247104, Note_on_c, 0, 60, 120
2, 247104, Note_on_c, 0, 57, 120
2, 247104, Note_on_c, 0, 51, 120
2, 247292, Note_off_c, 0, 63, 100
2, 247292, Note_off_c, 0, 60, 100
2, 247292, Note_off_c, 0, 57, 100
2, 247292, Note_off_c, 0, 51, 100
2, 247296, Note_on_c, 0, 63, 120
2, 247296, Note_on_c, 0, 60, 120
2, 247296, Note_on_c, 0, 57, 120
2, 247296, Note_on_c, 0, 51, 120
2, 247484, Note_off_c, 0, 63, 100
2, 247484, Note_off_c, 0, 60, 100
2, 247484, Note_off_c, 0, 57, 100
2, 247484, Note_off_c, 0, 51, 100
2, 247488, Note_on_c, 0, 63, 120
2, 247488, Note_on_c, 0, 60, 120
2, 247488, Note_on_c, 0, 57, 120
2, 247488, Note_on_c, 0, 51, 120
2, 247676, Note_off_c, 0, 63, 100
2, 247676, Note_off_c, 0, 60, 100
2, 247676, Note_off_c, 0, 57, 100
2, 247676, Note_off_c, 0, 51, 100
2, 247680, Note_on_c, 0, 63, 120
2, 247680, Note_on_c, 0, 60, 120
2, 247680, Note_on_c, 0, 57, 120
2, 247680, Note_on_c, 0, 51, 120
2, 247868, Note_off_c, 0, 63, 100
2, 247868, Note_off_c, 0, 60, 100
2, 247868, Note_off_c, 0, 57, 100
2, 247868, Note_off_c, 0, 51, 100
2, 247872, Note_on_c, 0, 63, 120
2, 247872, Note_on_c, 0, 60, 120
2, 247872, Note_on_c, 0, 57, 120
2, 247872, Note_on_c, 0, 51, 120
2, 248060, Note_off_c, 0, 63, 100
2, 248060, Note_off_c, 0, 60, 100
2, 248060, Note_off_c, 0, 57, 100
2, 248060, Note_off_c, 0, 51, 100
2, 248064, Note_on_c, 0, 63, 120
2, 248064, Note_on_c, 0, 60, 120
2, 248064, Note_on_c, 0, 57, 120
2, 248064, Note_on_c, 0, 51, 120
2, 248252, Note_off_c, 0, 63, 100
2, 248252, Note_off_c, 0, 60, 100
2, 248252, Note_off_c, 0, 57, 100
2, 248252, Note_off_c, 0, 51, 100
2, 248256, Note_on_c, 0, 63, 120
2, 248256, Note_on_c, 0, 60, 120
2, 248256, Note_on_c, 0, 57, 120
2, 248256, Note_on_c, 0, 51, 120
2, 248444, Note_off_c, 0, 63, 100
2, 248444, Note_off_c, 0, 60, 100
2, 248444, Note_off_c, 0, 57, 100
2, 248444, Note_off_c, 0, 51, 100
2, 248448, Note_on_c, 0, 63, 120
2, 248448, Note_on_c, 0, 60, 120
2, 248448, Note_on_c, 0, 57, 120
2, 248448, Note_on_c, 0, 51, 120
2, 248636, Note_off_c, 0, 63, 100
2, 248636, Note_off_c, 0, 60, 100
2, 248636, Note_off_c, 0, 57, 100
2, 248636, Note_off_c, 0, 51, 100
2, 248640, Note_on_c, 0, 63, 120
2, 248640, Note_on_c, 0, 60, 120
2, 248640, Note_on_c, 0, 57, 120
2, 248640, Note_on_c, 0, 51, 120
2, 248828, Note_off_c, 0, 63, 100
2, 248828, Note_off_c, 0, 60, 100
2, 248828, Note_off_c, 0, 57, 100
2, 248828, Note_off_c, 0, 51, 100
2, 248832, Note_on_c, 0, 64, 120
2, 248832, Note_on_c, 0, 60, 120
2, 248832, Note_on_c, 0, 55, 120
2, 248832, Note_on_c, 0, 52, 120
2, 249212, Note_off_c, 0, 64, 100
2, 249212, Note_off_c, 0, 60, 100
2, 249212, Note_off_c, 0, 55, 100
2, 249212, Note_off_c, 0, 52, 100
2, 249408, Note_on_c, 0, 55, 70
2, 249408, Note_on_c, 0, 60, 70
2, 249980, Note_off_c, 0, 60, 100
2, 249984, Note_on_c, 0, 59, 70
2, 250556, Note_off_c, 0, 59, 100
2, 250560, Note_on_c, 0, 65, 70
2, 251132, Note_off_c, 0, 65, 100
2, 251136, Note_on_c, 0, 64, 71
2, 251708, Note_off_c, 0, 55, 100
2, 251708, Note_off_c, 0, 64, 100
2, 251712, Note_on_c, 0, 60, 71
2, 251712, Note_on_c, 0, 55, 71
2, 251712, Note_on_c, 0, 67, 71
2, 252284, Note_off_c, 0, 60, 100
2, 252288, Note_on_c, 0, 59, 72
2, 252860, Note_off_c, 0, 59, 100
2, 252864, Note_on_c, 0, 65, 72
2, 253436, Note_off_c, 0, 65, 100
2, 253440, Note_on_c, 0, 64, 73
2, 253820, Note_off_c, 0, 55, 100
2, 253820, Note_off_c, 0, 67, 100
2, 253820, Note_off_c, 0, 64, 100
2, 254016, Note_on_c, 0, 78, 73
2, 254016, Note_on_c, 0, 66, 73
2, 254204, Note_off_c, 0, 78, 100
2, 254204, Note_off_c, 0, 66, 100
2, 254208, Note_on_c, 0, 79, 73
2, 254208, Note_on_c, 0, 67, 73
2, 254396, Note_off_c, 0, 79, 100
2, 254396, Note_off_c, 0, 67, 100
2, 254400, Note_on_c, 0, 81, 73
2, 254400, Note_on_c, 0, 69, 73
2, 254588, Note_off_c, 0, 81, 100
2, 254588, Note_off_c, 0, 69, 100
2, 254592, Note_on_c, 0, 79, 73
2, 254592, Note_on_c, 0, 67, 73
2, 254780, Note_off_c, 0, 79, 100
2, 254780, Note_off_c, 0, 67, 100
2, 254784, Note_on_c, 0, 77, 74
2, 254784, Note_on_c, 0, 65, 74
2, 254972, Note_off_c, 0, 77, 100
2, 254972, Note_off_c, 0, 65, 100
2, 254976, Note_on_c, 0, 76, 74
2, 254976, Note_on_c, 0, 64, 74
2, 255164, Note_off_c, 0, 76, 100
2, 255164, Note_off_c, 0, 64, 100
2, 255168, Note_on_c, 0, 74, 74
2, 255168, Note_on_c, 0, 62, 74
2, 255356, Note_off_c, 0, 74, 100
2, 255356, Note_off_c, 0, 62, 100
2, 255360, Note_on_c, 0, 72, 74
2, 255360, Note_on_c, 0, 60, 74
2, 255548, Note_off_c, 0, 72, 100
2, 255548, Note_off_c, 0, 60, 100
2, 255552, Note_on_c, 0, 71, 74
2, 255552, Note_on_c, 0, 59, 74
2, 255740, Note_off_c, 0, 71, 100
2, 255740, Note_off_c, 0, 59, 100
2, 255744, Note_on_c, 0, 72, 74
2, 255744, Note_on_c, 0, 60, 74
2, 255932, Note_off_c, 0, 72, 100
2, 255932, Note_off_c, 0, 60, 100
2, 255936, Note_on_c, 0, 74, 74
2, 255936, Note_on_c, 0, 62, 74
2, 256124, Note_off_c, 0, 74, 100
2, 256124, Note_off_c, 0, 62, 100
2, 256128, Note_on_c, 0, 76, 75
2, 256128, Note_on_c, 0, 64, 75
2, 256316, Note_off_c, 0, 76, 100
2, 256316, Note_off_c, 0, 64, 100
2, 256320, Note_on_c, 0, 78, 75
2, 256320, Note_on_c, 0, 66, 75
2, 256508, Note_off_c, 0, 78, 100
2, 256508, Note_off_c, 0, 66, 100
2, 256512, Note_on_c, 0, 79, 75
2, 256512, Note_on_c, 0, 67, 75
2, 256700, Note_off_c, 0, 79, 100
2, 256700, Note_off_c, 0, 67, 100
2, 256704, Note_on_c, 0, 81, 75
2, 256704, Note_on_c, 0, 69, 75
2, 256892, Note_off_c, 0, 81, 100
2, 256892, Note_off_c, 0, 69, 100
2, 256896, Note_on_c, 0, 79, 75
2, 256896, Note_on_c, 0, 67, 75
2, 257084, Note_off_c, 0, 79, 100
2, 257084, Note_off_c, 0, 67, 100
2, 257088, Note_on_c, 0, 77, 75
2, 257088, Note_on_c, 0, 65, 75
2, 257276, Note_off_c, 0, 77, 100
2, 257276, Note_off_c, 0, 65, 100
2, 257280, Note_on_c, 0, 76, 76
2, 257280, Note_on_c, 0, 64, 76
2, 257468, Note_off_c, 0, 76, 100
2, 257468, Note_off_c, 0, 64, 100
2, 257472, Note_on_c, 0, 74, 76
2, 257472, Note_on_c, 0, 62, 76
2, 257660, Note_off_c, 0, 74, 100
2, 257660, Note_off_c, 0, 62, 100
2, 257664, Note_on_c, 0, 72, 76
2, 257664, Note_on_c, 0, 60, 76
2, 257852, Note_off_c, 0, 72, 100
2, 257852, Note_off_c, 0, 60, 100
2, 257856, Note_on_c, 0, 71, 76
2, 257856, Note_on_c, 0, 59, 76
2, 258044, Note_off_c, 0, 71, 100
2, 258044, Note_off_c, 0, 59, 100
2, 258048, Note_on_c, 0, 72, 76
2, 258048, Note_on_c, 0, 60, 76
2, 258812, Note_off_c, 0, 72, 100
2, 258812, Note_off_c, 0, 60, 100
2, 258816, Note_on_c, 0, 74, 77
2, 258816, Note_on_c, 0, 62, 77
2, 259004, Note_off_c, 0, 74, 100
2, 259004, Note_off_c, 0, 62, 100
2, 259008, Note_on_c, 0, 76, 77
2, 259008, Note_on_c, 0, 64, 77
2, 259196, Note_off_c, 0, 76, 100
2, 259196, Note_off_c, 0, 64, 100
2, 259200, Note_on_c, 0, 77, 77
2, 259200, Note_on_c, 0, 65, 77
2, 259580, Note_off_c, 0, 77, 100
2, 259580, Note_off_c, 0, 65, 100
2, 259584, Note_on_c, 0, 75, 77
2, 259584, Note_on_c, 0, 63, 77
2, 259772, Note_off_c, 0, 75, 100
2, 259772, Note_off_c, 0, 63, 100
2, 259776, Note_on_c, 0, 74, 77
2, 259776, Note_on_c, 0, 62, 77
2, 260156, Note_off_c, 0, 74, 100
2, 260156, Note_off_c, 0, 62, 100
2, 260160, Note_on_c, 0, 75, 78
2, 260160, Note_on_c, 0, 63, 78
2, 260348, Note_off_c, 0, 75, 100
2, 260348, Note_off_c, 0, 63, 100
2, 260352, Note_on_c, 0, 74, 78
2, 260352, Note_on_c, 0, 62, 78
2, 260732, Note_off_c, 0, 74, 100
2, 260732, Note_off_c, 0, 62, 100
2, 260736, Note_on_c, 0, 72, 78
2, 260736, Note_on_c, 0, 60, 78
2, 260924, Note_off_c, 0, 72, 100
2, 260924, Note_off_c, 0, 60, 100
2, 260928, Note_on_c, 0, 70, 78
2, 260928, Note_on_c, 0, 58, 78
2, 261308, Note_off_c, 0, 70, 100
2, 261308, Note_off_c, 0, 58, 100
2, 261312, Note_on_c, 0, 74, 79
2, 261312, Note_on_c, 0, 62, 79
2, 261500, Note_off_c, 0, 74, 100
2, 261500, Note_off_c, 0, 62, 100
2, 261504, Note_on_c, 0, 72, 79
2, 261504, Note_on_c, 0, 60, 79
2, 261884, Note_off_c, 0, 72, 100
2, 261884, Note_off_c, 0, 60, 100
2, 261888, Note_on_c, 0, 70, 79
2, 261888, Note_on_c, 0, 58, 79
2, 262076, Note_off_c, 0, 70, 100
2, 262076, Note_off_c, 0, 58, 100
2, 262080, Note_on_c, 0, 69, 79
2, 262080, Note_on_c, 0, 57, 79
2, 262460, Note_off_c, 0, 69, 100
2, 262460, Note_off_c, 0, 57, 100
2, 262464, Note_on_c, 0, 72, 79
2, 262464, Note_on_c, 0, 60, 79
2, 262652, Note_off_c, 0, 72, 100
2, 262652, Note_off_c, 0, 60, 100
2, 262656, Note_on_c, 0, 70, 110
2, 262656, Note_on_c, 0, 58, 110
2, 262844, Note_off_c, 0, 70, 100
2, 262844, Note_off_c, 0, 58, 100
2, 262848, Note_on_c, 0, 70, 100
2, 263036, Note_off_c, 0, 70, 100
2, 263040, Note_on_c, 0, 70, 100
2, 263228, Note_off_c, 0, 70, 100
2, 263232, Note_on_c, 0, 70, 100
2, 263420, Note_off_c, 0, 70, 100
2, 263424, Note_on_c, 0, 69, 100
2, 263612, Note_off_c, 0, 69, 100
2, 263616, Note_on_c, 0, 70, 100
2, 263804, Note_off_c, 0, 70, 100
2, 263808, Note_on_c, 0, 74, 110
2, 263808, Note_on_c, 0, 62, 110
2, 263996, Note_off_c, 0, 74, 100
2, 263996, Note_off_c, 0, 62, 100
2, 264000, Note_on_c, 0, 74, 100
2, 264188, Note_off_c, 0, 74, 100
2, 264192, Note_on_c, 0, 74, 100
2, 264380, Note_off_c, 0, 74, 100
2, 264384, Note_on_c, 0, 74, 100
2, 264572, Note_off_c, 0, 74, 100
2, 264576, Note_on_c, 0, 73, 100
2, 264764, Note_off_c, 0, 73, 100
2, 264768, Note_on_c, 0, 74, 100
2, 264956, Note_off_c, 0, 74, 100
2, 264960, Note_on_c, 0, 77, 110
2, 264960, Note_on_c, 0, 65, 110
2, 265148, Note_off_c, 0, 77, 100
2, 265148, Note_off_c, 0, 65, 100
2, 265152, Note_on_c, 0, 77, 100
2, 265340, Note_off_c, 0, 77, 100
2, 265344, Note_on_c, 0, 77, 100
2, 265532, Note_off_c, 0, 77, 100
2, 265536, Note_on_c, 0, 77, 100
2, 265724, Note_off_c, 0, 77, 100
2, 265728, Note_on_c, 0, 76, 100
2, 265916, Note_off_c, 0, 76, 100
2, 265920, Note_on_c, 0, 77, 100
2, 266108, Note_off_c, 0, 77, 100
2, 266112, Note_on_c, 0, 70, 110
2, 266112, Note_on_c, 0, 82, 110
2, 266300, Note_off_c, 0, 70, 100
2, 266300, Note_off_c, 0, 82, 100
2, 266304, Note_on_c, 0, 82, 100
2, 266492, Note_off_c, 0, 82, 100
2, 266496, Note_on_c, 0, 82, 100
2, 266684, Note_off_c, 0, 82, 100
2, 266688, Note_on_c, 0, 82, 100
2, 266876, Note_off_c, 0, 82, 100
2, 266880, Note_on_c, 0, 81, 100
2, 267068, Note_off_c, 0, 81, 100
2, 267072, Note_on_c, 0, 82, 100
2, 267260, Note_off_c, 0, 82, 100
2, 267264, Note_on_c, 0, 70, 110
2, 267356, Note_off_c, 0, 70, 100
2, 267360, Note_on_c, 0, 72, 110
2, 267452, Note_off_c, 0, 72, 100
2, 267456, Note_on_c, 0, 70, 111
2, 267548, Note_off_c, 0, 70, 100
2, 267552, Note_on_c, 0, 69, 112
2, 267644, Note_off_c, 0, 69, 100
2, 267648, Note_on_c, 0, 70, 113
2, 267740, Note_off_c, 0, 70, 100
2, 267744, Note_on_c, 0, 69, 114
2, 267836, Note_off_c, 0, 69, 100
2, 267840, Note_on_c, 0, 70, 115
2, 267932, Note_off_c, 0, 70, 100
2, 267936, Note_on_c, 0, 71, 115
2, 268028, Note_off_c, 0, 71, 100
2, 268032, Note_on_c, 0, 72, 116
2, 268124, Note_off_c, 0, 72, 100
2, 268128, Note_on_c, 0, 73, 117
2, 268220, Note_off_c, 0, 73, 100
2, 268224, Note_on_c, 0, 74, 118
2, 268316, Note_off_c, 0, 74, 100
2, 268320, Note_on_c, 0, 75, 119
2, 268412, Note_off_c, 0, 75, 100
2, 268416, Note_on_c, 0, 76, 120
2, 268496, Note_off_c, 0, 76, 100
2, 268500, Note_on_c, 0, 77, 120
2, 268580, Note_off_c, 0, 77, 100
2, 268584, Note_on_c, 0, 78, 120
2, 268664, Note_off_c, 0, 78, 100
2, 268668, Note_on_c, 0, 79, 120
2, 268748, Note_off_c, 0, 79, 100
2, 268752, Note_on_c, 0, 80, 120
2, 268832, Note_off_c, 0, 80, 100
2, 268836, Note_on_c, 0, 81, 120
2, 268916, Note_off_c, 0, 81, 100
2, 268920, Note_on_c, 0, 82, 120
2, 268988, Note_off_c, 0, 82, 100
2, 268992, Note_on_c, 0, 83, 120
2, 269084, Note_off_c, 0, 83, 100
2, 269088, Note_on_c, 0, 84, 120
2, 269180, Note_off_c, 0, 84, 100
2, 269184, Note_on_c, 0, 85, 120
2, 269276, Note_off_c, 0, 85, 100
2, 269280, Note_on_c, 0, 86, 120
2, 269372, Note_off_c, 0, 86, 100
2, 269376, Note_on_c, 0, 87, 120
2, 269468, Note_off_c, 0, 87, 100
2, 269472, Note_on_c, 0, 88, 120
2, 269564, Note_off_c, 0, 88, 100
2, 269568, Note_on_c, 0, 89, 120
2, 269948, Note_off_c, 0, 89, 100
2, 270144, Note_on_c, 0, 86, 120
2, 270144, Note_on_c, 0, 82, 120
2, 270144, Note_on_c, 0, 74, 120
2, 270524, Note_off_c, 0, 86, 100
2, 270524, Note_off_c, 0, 82, 100
2, 270524, Note_off_c, 0, 74, 100
2, 270720, Note_on_c, 0, 84, 120
2, 270720, Note_on_c, 0, 87, 120
2, 270720, Note_on_c, 0, 75, 120
2, 271100, Note_off_c, 0, 84, 100
2, 271100, Note_off_c, 0, 87, 100
2, 271100, Note_off_c, 0, 75, 100
2, 271296, Note_on_c, 0, 81, 120
2, 271296, Note_on_c, 0, 75, 120
2, 271296, Note_on_c, 0, 72, 120
2, 271296, Note_on_c, 0, 69, 120
2, 271676, Note_off_c, 0, 81, 100
2, 271676, Note_off_c, 0, 75, 100
2, 271676, Note_off_c, 0, 72, 100
2, 271676, Note_off_c, 0, 69, 100
2, 271872, Note_on_c, 0, 58, 120
2, 271964, Note_off_c, 0, 58, 100
2, 271968, Note_on_c, 0, 70, 120
2, 272060, Note_off_c, 0, 70, 100
2, 272064, Note_on_c, 0, 58, 120
2, 272156, Note_off_c, 0, 58, 100
2, 272160, Note_on_c, 0, 70, 120
2, 272252, Note_off_c, 0, 70, 100
2, 272256, Note_on_c, 0, 58, 120
2, 272348, Note_off_c, 0, 58, 100
2, 272352, Note_on_c, 0, 70, 120
2, 272444, Note_off_c, 0, 70, 100
2, 272448, Note_on_c, 0, 58, 120
2, 272540, Note_off_c, 0, 58, 100
2, 272544, Note_on_c, 0, 70, 120
2, 272636, Note_off_c, 0, 70, 100
2, 272640, Note_on_c, 0, 57, 120
2, 272732, Note_off_c, 0, 57, 100
2, 272736, Note_on_c, 0, 69, 120
2, 272828, Note_off_c, 0, 69, 100
2, 272832, Note_on_c, 0, 58, 120
2, 272924, Note_off_c, 0, 58, 100
2, 272928, Note_on_c, 0, 70, 120
2, 273020, Note_off_c, 0, 70, 100
2, 273024, Note_on_c, 0, 62, 120
2, 273116, Note_off_c, 0, 62, 100
2, 273120, Note_on_c, 0, 74, 120
2, 273212, Note_off_c, 0, 74, 100
2, 273216, Note_on_c, 0, 62, 120
2, 273308, Note_off_c, 0, 62, 100
2, 273312, Note_on_c, 0, 74, 120
2, 273404, Note_off_c, 0, 74, 100
2, 273408, Note_on_c, 0, 62, 120
2, 273500, Note_off_c, 0, 62, 100
2, 273504, Note_on_c, 0, 74, 120
2, 273596, Note_off_c, 0, 74, 100
2, 273600, Note_on_c, 0, 62, 120
2, 273692, Note_off_c, 0, 62, 100
2, 273696, Note_on_c, 0, 74, 120
2, 273788, Note_off_c, 0, 74, 100
2, 273792, Note_on_c, 0, 61, 120
2, 273884, Note_off_c, 0, 61, 100
2, 273888, Note_on_c, 0, 73, 120
2, 273980, Note_off_c, 0, 73, 100
2, 273984, Note_on_c, 0, 62, 120
2, 274076, Note_off_c, 0, 62, 100
2, 274080, Note_on_c, 0, 74, 120
2, 274172, Note_off_c, 0, 74, 100
2, 274176, Note_on_c, 0, 65, 120
2, 274268, Note_off_c, 0, 65, 100
2, 274272, Note_on_c, 0, 77, 120
2, 274364, Note_off_c, 0, 77, 100
2, 274368, Note_on_c, 0, 65, 120
2, 274460, Note_off_c, 0, 65, 100
2, 274464, Note_on_c, 0, 77, 120
2, 274556, Note_off_c, 0, 77, 100
2, 274560, Note_on_c, 0, 65, 120
2, 274652, Note_off_c, 0, 65, 100
2, 274656, Note_on_c, 0, 77, 120
2, 274748, Note_off_c, 0, 77, 100
2, 274752, Note_on_c, 0, 65, 120
2, 274844, Note_off_c, 0, 65, 100
2, 274848, Note_on_c, 0, 77, 120
2, 274940, Note_off_c, 0, 77, 100
2, 274944, Note_on_c, 0, 64, 120
2, 275036, Note_off_c, 0, 64, 100
2, 275040, Note_on_c, 0, 76, 120
2, 275132, Note_off_c, 0, 76, 100
2, 275136, Note_on_c, 0, 65, 120
2, 275228, Note_off_c, 0, 65, 100
2, 275232, Note_on_c, 0, 77, 120
2, 275324, Note_off_c, 0, 77, 100
2, 275328, Note_on_c, 0, 70, 120
2, 275420, Note_off_c, 0, 70, 100
2, 275424, Note_on_c, 0, 82, 120
2, 275516, Note_off_c, 0, 82, 100
2, 275520, Note_on_c, 0, 70, 120
2, 275612, Note_off_c, 0, 70, 100
2, 275616, Note_on_c, 0, 82, 120
2, 275708, Note_off_c, 0, 82, 100
2, 275712, Note_on_c, 0, 70, 120
2, 275804, Note_off_c, 0, 70, 100
2, 275808, Note_on_c, 0, 82, 120
2, 275900, Note_off_c, 0, 82, 100
2, 275904, Note_on_c, 0, 70, 120
2, 275996, Note_off_c, 0, 70, 100
2, 276000, Note_on_c, 0, 82, 120
2, 276092, Note_off_c, 0, 82, 100
2, 276096, Note_on_c, 0, 69, 120
2, 276188, Note_off_c, 0, 69, 100
2, 276192, Note_on_c, 0, 81, 120
2, 276284, Note_off_c, 0, 81, 100
2, 276288, Note_on_c, 0, 70, 120
2, 276380, Note_off_c, 0, 70, 100
2, 276384, Note_on_c, 0, 82, 120
2, 276476, Note_off_c, 0, 82, 100
2, 276480, Note_on_c, 0, 58, 100
2, 276572, Note_off_c, 0, 58, 100
2, 276576, Note_on_c, 0, 60, 100
2, 276668, Note_off_c, 0, 60, 100
2, 276672, Note_on_c, 0, 58, 100
2, 276764, Note_off_c, 0, 58, 100
2, 276768, Note_on_c, 0, 57, 101
2, 276860, Note_off_c, 0, 57, 100
2, 276864, Note_on_c, 0, 58, 101
2, 276956, Note_off_c, 0, 58, 100
2, 276960, Note_on_c, 0, 57, 102
2, 277052, Note_off_c, 0, 57, 100
2, 277056, Note_on_c, 0, 58, 102
2, 277148, Note_off_c, 0, 58, 100
2, 277152, Note_on_c, 0, 59, 102
2, 277244, Note_off_c, 0, 59, 100
2, 277248, Note_on_c, 0, 60, 103
2, 277340, Note_off_c, 0, 60, 100
2, 277344, Note_on_c, 0, 61, 103
2, 277436, Note_off_c, 0, 61, 100
2, 277440, Note_on_c, 0, 62, 104
2, 277532, Note_off_c, 0, 62, 100
2, 277536, Note_on_c, 0, 63, 104
2, 277628, Note_off_c, 0, 63, 100
2, 277632, Note_on_c, 0, 64, 105
2, 277724, Note_off_c, 0, 64, 100
2, 277728, Note_on_c, 0, 65, 105
2, 277820, Note_off_c, 0, 65, 100
2, 277824, Note_on_c, 0, 66, 105
2, 277916, Note_off_c, 0, 66, 100
2, 277920, Note_on_c, 0, 67, 106
2, 278012, Note_off_c, 0, 67, 100
2, 278016, Note_on_c, 0, 68, 106
2, 278108, Note_off_c, 0, 68, 100
2, 278112, Note_on_c, 0, 69, 107
2, 278204, Note_off_c, 0, 69, 100
2, 278208, Note_on_c, 0, 70, 107
2, 278300, Note_off_c, 0, 70, 100
2, 278304, Note_on_c, 0, 71, 107
2, 278396, Note_off_c, 0, 71, 100
2, 278400, Note_on_c, 0, 72, 108
2, 278492, Note_off_c, 0, 72, 100
2, 278496, Note_on_c, 0, 73, 108
2, 278588, Note_off_c, 0, 73, 100
2, 278592, Note_on_c, 0, 74, 109
2, 278684, Note_off_c, 0, 74, 100
2, 278688, Note_on_c, 0, 75, 109
2, 278780, Note_off_c, 0, 75, 100
2, 278784, Note_on_c, 0, 76, 110
2, 278876, Note_off_c, 0, 76, 100
2, 278880, Note_on_c, 0, 77, 110
2, 278972, Note_off_c, 0, 77, 100
2, 278976, Note_on_c, 0, 78, 110
2, 279068, Note_off_c, 0, 78, 100
2, 279072, Note_on_c, 0, 79, 111
2, 279164, Note_off_c, 0, 79, 100
2, 279168, Note_on_c, 0, 80, 111
2, 279260, Note_off_c, 0, 80, 100
2, 279264, Note_on_c, 0, 81, 112
2, 279356, Note_off_c, 0, 81, 100
2, 279360, Note_on_c, 0, 82, 112
2, 279452, Note_off_c, 0, 82, 100
2, 279456, Note_on_c, 0, 83, 112
2, 279548, Note_off_c, 0, 83, 100
2, 279552, Note_on_c, 0, 84, 113
2, 279644, Note_off_c, 0, 84, 100
2, 279648, Note_on_c, 0, 85, 113
2, 279740, Note_off_c, 0, 85, 100
2, 279744, Note_on_c, 0, 84, 114
2, 279836, Note_off_c, 0, 84, 100
2, 279840, Note_on_c, 0, 85, 114
2, 279932, Note_off_c, 0, 85, 100
2, 279936, Note_on_c, 0, 84, 115
2, 280028, Note_off_c, 0, 84, 100
2, 280032, Note_on_c, 0, 85, 115
2, 280124, Note_off_c, 0, 85, 100
2, 280128, Note_on_c, 0, 84, 115
2, 280220, Note_off_c, 0, 84, 100
2, 280224, Note_on_c, 0, 85, 116
2, 280316, Note_off_c, 0, 85, 100
2, 280320, Note_on_c, 0, 84, 116
2, 280412, Note_off_c, 0, 84, 100
2, 280416, Note_on_c, 0, 85, 117
2, 280508, Note_off_c, 0, 85, 100
2, 280512, Note_on_c, 0, 84, 117
2, 280604, Note_off_c, 0, 84, 100
2, 280608, Note_on_c, 0, 85, 117
2, 280700, Note_off_c, 0, 85, 100
2, 280704, Note_on_c, 0, 84, 118
2, 280796, Note_off_c, 0, 84, 100
2, 280800, Note_on_c, 0, 85, 118
2, 280892, Note_off_c, 0, 85, 100
2, 280896, Note_on_c, 0, 84, 119
2, 280988, Note_off_c, 0, 84, 100
2, 280992, Note_on_c, 0, 85, 119
2, 281084, Note_off_c, 0, 85, 100
2, 281088, Note_on_c, 0, 86, 115
2, 281136, Note_on_c, 0, 87, 115
2, 281180, Note_off_c, 0, 86, 100
2, 281184, Note_on_c, 0, 86, 115
2, 281228, Note_off_c, 0, 87, 100
2, 281276, Note_off_c, 0, 86, 100
2, 281280, Note_on_c, 0, 84, 115
2, 281468, Note_off_c, 0, 84, 100
2, 281472, Note_on_c, 0, 82, 115
2, 281660, Note_off_c, 0, 82, 100
2, 281664, Note_on_c, 0, 82, 115
2, 281712, Note_on_c, 0, 84, 115
2, 281756, Note_off_c, 0, 82, 100
2, 281760, Note_on_c, 0, 82, 115
2, 281804, Note_off_c, 0, 84, 100
2, 281852, Note_off_c, 0, 82, 100
2, 281856, Note_on_c, 0, 81, 115
2, 282044, Note_off_c, 0, 81, 100
2, 282048, Note_on_c, 0, 79, 115
2, 282236, Note_off_c, 0, 79, 100
2, 282240, Note_on_c, 0, 77, 115
2, 282288, Note_on_c, 0, 79, 115
2, 282332, Note_off_c, 0, 77, 100
2, 282336, Note_on_c, 0, 77, 115
2, 282380, Note_off_c, 0, 79, 100
2, 282428, Note_off_c, 0, 77, 100
2, 282432, Note_on_c, 0, 75, 115
2, 282620, Note_off_c, 0, 75, 100
2, 282624, Note_on_c, 0, 74, 115
2, 282812, Note_off_c, 0, 74, 100
2, 282816, Note_on_c, 0, 72, 115
2, 283004, Note_off_c, 0, 72, 100
2, 283008, Note_on_c, 0, 75, 115
2, 283196, Note_off_c, 0, 75, 100
2, 283200, Note_on_c, 0, 69, 115
2, 283388, Note_off_c, 0, 69, 100
2, 283392, Note_on_c, 0, 70, 100
2, 283488, Note_on_c, 0, 74, 100
2, 283580, Note_off_c, 0, 70, 100
2, 283584, Note_on_c, 0, 82, 100
2, 283676, Note_off_c, 0, 74, 100
2, 283680, Note_on_c, 0, 74, 100
2, 283772, Note_off_c, 0, 82, 100
2, 283776, Note_on_c, 0, 82, 100
2, 283868, Note_off_c, 0, 74, 100
2, 283872, Note_on_c, 0, 74, 100
2, 283964, Note_off_c, 0, 82, 100
2, 283968, Note_on_c, 0, 70, 100
2, 284060, Note_off_c, 0, 74, 100
2, 284064, Note_on_c, 0, 74, 100
2, 284156, Note_off_c, 0, 70, 100
2, 284160, Note_on_c, 0, 82, 100
2, 284252, Note_off_c, 0, 74, 100
2, 284256, Note_on_c, 0, 74, 100
2, 284348, Note_off_c, 0, 82, 100
2, 284352, Note_on_c, 0, 82, 100
2, 284444, Note_off_c, 0, 74, 100
2, 284448, Note_on_c, 0, 74, 100
2, 284540, Note_off_c, 0, 82, 100
2, 284540, Note_off_c, 0, 74, 100
2, 284544, Note_on_c, 0, 71, 100
2, 284640, Note_on_c, 0, 74, 100
2, 284704, Note_off_c, 0, 71, 100
2, 284736, Note_on_c, 0, 80, 100
2, 284788, Note_off_c, 0, 74, 100
2, 284832, Note_on_c, 0, 74, 100
2, 284884, Note_off_c, 0, 80, 100
2, 284928, Note_on_c, 0, 80, 100
2, 284976, Note_off_c, 0, 74, 100
2, 285024, Note_on_c, 0, 74, 100
2, 285072, Note_off_c, 0, 80, 100
2, 285120, Note_on_c, 0, 70, 100
2, 285180, Note_off_c, 0, 74, 100
2, 285216, Note_on_c, 0, 74, 100
2, 285292, Note_off_c, 0, 70, 100
2, 285312, Note_on_c, 0, 82, 100
2, 285368, Note_off_c, 0, 74, 100
2, 285408, Note_on_c, 0, 74, 100
2, 285480, Note_off_c, 0, 82, 100
2, 285504, Note_on_c, 0, 82, 100
2, 285568, Note_off_c, 0, 74, 100
2, 285600, Note_on_c, 0, 74, 100
2, 285652, Note_off_c, 0, 82, 100
2, 285696, Note_on_c, 0, 68, 100
2, 285772, Note_off_c, 0, 74, 100
2, 285792, Note_on_c, 0, 74, 100
2, 285852, Note_off_c, 0, 68, 100
2, 285888, Note_on_c, 0, 83, 100
2, 285956, Note_off_c, 0, 74, 100
2, 285984, Note_on_c, 0, 74, 100
2, 286060, Note_off_c, 0, 83, 100
2, 286080, Note_on_c, 0, 83, 100
2, 286148, Note_off_c, 0, 74, 100
2, 286176, Note_on_c, 0, 74, 100
2, 286232, Note_off_c, 0, 83, 100
2, 286272, Note_on_c, 0, 70, 100
2, 286340, Note_off_c, 0, 74, 100
2, 286368, Note_on_c, 0, 74, 100
2, 286428, Note_off_c, 0, 70, 100
2, 286464, Note_on_c, 0, 82, 100
2, 286536, Note_off_c, 0, 74, 100
2, 286560, Note_on_c, 0, 74, 100
2, 286628, Note_off_c, 0, 82, 100
2, 286656, Note_on_c, 0, 82, 100
2, 286720, Note_off_c, 0, 74, 100
2, 286752, Note_on_c, 0, 74, 100
2, 286832, Note_off_c, 0, 82, 100
2, 286848, Note_on_c, 0, 71, 100
2, 286912, Note_off_c, 0, 74, 100
2, 286944, Note_on_c, 0, 74, 100
2, 287020, Note_off_c, 0, 71, 100
2, 287040, Note_on_c, 0, 80, 100
2, 287120, Note_off_c, 0, 74, 100
2, 287136, Note_on_c, 0, 74, 100
2, 287212, Note_off_c, 0, 80, 100
2, 287232, Note_on_c, 0, 80, 100
2, 287312, Note_off_c, 0, 74, 100
2, 287328, Note_on_c, 0, 74, 100
2, 287396, Note_off_c, 0, 80, 100
2, 287424, Note_on_c, 0, 68, 100
2, 287504, Note_off_c, 0, 74, 100
2, 287520, Note_on_c, 0, 74, 100
2, 287584, Note_off_c, 0, 68, 100
2, 287616, Note_on_c, 0, 83, 100
2, 287680, Note_off_c, 0, 74, 100
2, 287712, Note_on_c, 0, 74, 100
2, 287768, Note_off_c, 0, 83, 100
2, 287808, Note_on_c, 0, 83, 100
2, 287868, Note_off_c, 0, 74, 100
2, 287904, Note_on_c, 0, 74, 100
2, 287996, Note_off_c, 0, 83, 100
2, 288000, Note_on_c, 0, 67, 100
2, 288064, Note_off_c, 0, 74, 100
2, 288096, Note_on_c, 0, 75, 100
2, 288188, Note_off_c, 0, 67, 100
2, 288192, Note_on_c, 0, 82, 100
2, 288284, Note_off_c, 0, 75, 100
2, 288288, Note_on_c, 0, 75, 100
2, 288380, Note_off_c, 0, 82, 100
2, 288384, Note_on_c, 0, 82, 100
2, 288476, Note_off_c, 0, 75, 100
2, 288480, Note_on_c, 0, 75, 100
2, 288572, Note_off_c, 0, 82, 100
2, 288576, Note_on_c, 0, 68, 100
2, 288668, Note_off_c, 0, 75, 100
2, 288672, Note_on_c, 0, 75, 100
2, 288764, Note_off_c, 0, 68, 100
2, 288768, Note_on_c, 0, 80, 100
2, 288860, Note_off_c, 0, 75, 100
2, 288864, Note_on_c, 0, 75, 100
2, 288956, Note_off_c, 0, 80, 100
2, 288960, Note_on_c, 0, 80, 100
2, 289052, Note_off_c, 0, 75, 100
2, 289056, Note_on_c, 0, 75, 100
2, 289148, Note_off_c, 0, 80, 100
2, 289152, Note_on_c, 0, 70, 100
2, 289244, Note_off_c, 0, 75, 100
2, 289248, Note_on_c, 0, 75, 100
2, 289340, Note_off_c, 0, 70, 100
2, 289344, Note_on_c, 0, 79, 100
2, 289436, Note_off_c, 0, 75, 100
2, 289440, Note_on_c, 0, 75, 100
2, 289532, Note_off_c, 0, 79, 100
2, 289536, Note_on_c, 0, 79, 100
2, 289628, Note_off_c, 0, 75, 100
2, 289632, Note_on_c, 0, 75, 100
2, 289724, Note_off_c, 0, 79, 100
2, 289728, Note_on_c, 0, 70, 100
2, 289820, Note_off_c, 0, 75, 100
2, 289824, Note_on_c, 0, 75, 100
2, 289916, Note_off_c, 0, 70, 100
2, 289920, Note_on_c, 0, 78, 100
2, 290012, Note_off_c, 0, 75, 100
2, 290016, Note_on_c, 0, 75, 100
2, 290108, Note_off_c, 0, 78, 100
2, 290112, Note_on_c, 0, 78, 100
2, 290204, Note_off_c, 0, 75, 100
2, 290208, Note_on_c, 0, 75, 100
2, 290300, Note_off_c, 0, 78, 100
2, 290304, Note_on_c, 0, 69, 100
2, 290396, Note_off_c, 0, 75, 100
2, 290400, Note_on_c, 0, 75, 100
2, 290492, Note_off_c, 0, 69, 100
2, 290496, Note_on_c, 0, 78, 100
2, 290588, Note_off_c, 0, 75, 100
2, 290592, Note_on_c, 0, 75, 100
2, 290684, Note_off_c, 0, 78, 100
2, 290688, Note_on_c, 0, 78, 100
2, 290780, Note_off_c, 0, 75, 100
2, 290784, Note_on_c, 0, 75, 100
2, 290876, Note_off_c, 0, 78, 100
2, 290880, Note_on_c, 0, 69, 100
2, 290972, Note_off_c, 0, 75, 100
2, 290976, Note_on_c, 0, 75, 100
2, 291068, Note_off_c, 0, 69, 100
2, 291072, Note_on_c, 0, 77, 100
2, 291164, Note_off_c, 0, 75, 100
2, 291168, Note_on_c, 0, 75, 100
2, 291260, Note_off_c, 0, 77, 100
2, 291264, Note_on_c, 0, 77, 100
2, 291356, Note_off_c, 0, 75, 100
2, 291360, Note_on_c, 0, 75, 100
2, 291452, Note_off_c, 0, 77, 100
2, 291456, Note_on_c, 0, 69, 100
2, 291548, Note_off_c, 0, 75, 100
2, 291552, Note_on_c, 0, 75, 100
2, 291644, Note_off_c, 0, 69, 100
2, 291648, Note_on_c, 0, 77, 100
2, 291740, Note_off_c, 0, 75, 100
2, 291744, Note_on_c, 0, 75, 100
2, 291836, Note_off_c, 0, 77, 100
2, 291840, Note_on_c, 0, 77, 100
2, 291932, Note_off_c, 0, 75, 100
2, 291936, Note_on_c, 0, 75, 100
2, 292028, Note_off_c, 0, 77, 100
2, 292032, Note_on_c, 0, 69, 100
2, 292124, Note_off_c, 0, 75, 100
2, 292128, Note_on_c, 0, 75, 100
2, 292220, Note_off_c, 0, 69, 100
2, 292224, Note_on_c, 0, 77, 100
2, 292316, Note_off_c, 0, 75, 100
2, 292320, Note_on_c, 0, 75, 100
2, 292412, Note_off_c, 0, 77, 100
2, 292416, Note_on_c, 0, 77, 100
2, 292508, Note_off_c, 0, 75, 100
2, 292512, Note_on_c, 0, 75, 100
2, 292604, Note_off_c, 0, 77, 100
2, 292608, Note_on_c, 0, 70, 100
2, 292700, Note_off_c, 0, 75, 100
2, 292704, Note_on_c, 0, 74, 100
2, 292796, Note_off_c, 0, 70, 100
2, 292800, Note_on_c, 0, 77, 100
2, 292892, Note_off_c, 0, 74, 100
2, 292896, Note_on_c, 0, 74, 100
2, 292988, Note_off_c, 0, 77, 100
2, 292992, Note_on_c, 0, 77, 100
2, 293084, Note_off_c, 0, 74, 100
2, 293088, Note_on_c, 0, 74, 100
2, 293180, Note_off_c, 0, 77, 100
2, 293184, Note_on_c, 0, 65, 100
2, 293276, Note_off_c, 0, 74, 100
2, 293280, Note_on_c, 0, 70, 100
2, 293372, Note_off_c, 0, 65, 100
2, 293376, Note_on_c, 0, 74, 100
2, 293468, Note_off_c, 0, 70, 100
2, 293472, Note_on_c, 0, 70, 100
2, 293564, Note_off_c, 0, 74, 100
2, 293568, Note_on_c, 0, 74, 100
2, 293660, Note_off_c, 0, 70, 100
2, 293664, Note_on_c, 0, 70, 100
2, 293756, Note_off_c, 0, 74, 100
2, 293760, Note_on_c, 0, 65, 100
2, 293852, Note_off_c, 0, 70, 100
2, 293856, Note_on_c, 0, 71, 100
2, 293948, Note_off_c, 0, 65, 100
2, 293952, Note_on_c, 0, 74, 100
2, 294044, Note_off_c, 0, 71, 100
2, 294048, Note_on_c, 0, 71, 100
2, 294140, Note_off_c, 0, 74, 100
2, 294144, Note_on_c, 0, 74, 100
2, 294236, Note_off_c, 0, 71, 100
2, 294240, Note_on_c, 0, 71, 100
2, 294332, Note_off_c, 0, 74, 100
2, 294336, Note_on_c, 0, 65, 100
2, 294428, Note_off_c, 0, 71, 100
2, 294432, Note_on_c, 0, 70, 100
2, 294524, Note_off_c, 0, 65, 100
2, 294528, Note_on_c, 0, 74, 100
2, 294620, Note_off_c, 0, 70, 100
2, 294624, Note_on_c, 0, 70, 100
2, 294716, Note_off_c, 0, 74, 100
2, 294720, Note_on_c, 0, 74, 100
2, 294812, Note_off_c, 0, 70, 100
2, 294816, Note_on_c, 0, 70, 100
2, 294908, Note_off_c, 0, 74, 100
2, 294912, Note_on_c, 0, 65, 100
2, 295004, Note_off_c, 0, 70, 100
2, 295008, Note_on_c, 0, 68, 100
2, 295100, Note_off_c, 0, 65, 100
2, 295104, Note_on_c, 0, 74, 100
2, 295196, Note_off_c, 0, 68, 100
2, 295200, Note_on_c, 0, 68, 100
2, 295292, Note_off_c, 0, 74, 100
2, 295296, Note_on_c, 0, 74, 100
2, 295388, Note_off_c, 0, 68, 100
2, 295392, Note_on_c, 0, 68, 100
2, 295484, Note_off_c, 0, 74, 100
2, 295488, Note_on_c, 0, 65, 100
2, 295580, Note_off_c, 0, 68, 100
2, 295584, Note_on_c, 0, 70, 100
2, 295676, Note_off_c, 0, 65, 100
2, 295680, Note_on_c, 0, 74, 100
2, 295772, Note_off_c, 0, 70, 100
2, 295776, Note_on_c, 0, 70, 100
2, 295868, Note_off_c, 0, 74, 100
2, 295872, Note_on_c, 0, 74, 100
2, 295964, Note_off_c, 0, 70, 100
2, 295968, Note_on_c, 0, 70, 100
2, 296060, Note_off_c, 0, 74, 100
2, 296064, Note_on_c, 0, 65, 100
2, 296156, Note_off_c, 0, 70, 100
2, 296160, Note_on_c, 0, 71, 100
2, 296252, Note_off_c, 0, 65, 100
2, 296256, Note_on_c, 0, 74, 100
2, 296348, Note_off_c, 0, 71, 100
2, 296352, Note_on_c, 0, 71, 100
2, 296444, Note_off_c, 0, 74, 100
2, 296448, Note_on_c, 0, 74, 100
2, 296540, Note_off_c, 0, 71, 100
2, 296544, Note_on_c, 0, 71, 100
2, 296636, Note_off_c, 0, 74, 100
2, 296640, Note_on_c, 0, 65, 100
2, 296732, Note_off_c, 0, 71, 100
2, 296736, Note_on_c, 0, 68, 100
2, 296828, Note_off_c, 0, 65, 100
2, 296832, Note_on_c, 0, 74, 100
2, 296924, Note_off_c, 0, 68, 100
2, 296928, Note_on_c, 0, 68, 100
2, 297020, Note_off_c, 0, 74, 100
2, 297024, Note_on_c, 0, 74, 100
2, 297116, Note_off_c, 0, 68, 100
2, 297120, Note_on_c, 0, 68, 100
2, 297212, Note_off_c, 0, 74, 100
2, 297216, Note_on_c, 0, 63, 100
2, 297308, Note_off_c, 0, 68, 100
2, 297312, Note_on_c, 0, 67, 100
2, 297404, Note_off_c, 0, 63, 100
2, 297408, Note_on_c, 0, 75, 100
2, 297500, Note_off_c, 0, 67, 100
2, 297504, Note_on_c, 0, 67, 100
2, 297596, Note_off_c, 0, 75, 100
2, 297600, Note_on_c, 0, 75, 100
2, 297692, Note_off_c, 0, 67, 100
2, 297696, Note_on_c, 0, 67, 100
2, 297788, Note_off_c, 0, 75, 100
2, 297792, Note_on_c, 0, 63, 100
2, 297884, Note_off_c, 0, 67, 100
2, 297888, Note_on_c, 0, 68, 100
2, 297980, Note_off_c, 0, 63, 100
2, 297984, Note_on_c, 0, 75, 100
2, 298076, Note_off_c, 0, 68, 100
2, 298080, Note_on_c, 0, 68, 100
2, 298172, Note_off_c, 0, 75, 100
2, 298176, Note_on_c, 0, 75, 100
2, 298268, Note_off_c, 0, 68, 100
2, 298272, Note_on_c, 0, 68, 100
2, 298364, Note_off_c, 0, 75, 100
2, 298368, Note_on_c, 0, 63, 100
2, 298460, Note_off_c, 0, 68, 100
2, 298464, Note_on_c, 0, 67, 100
2, 298464, Note_on_c, 0, 70, 100
2, 298556, Note_off_c, 0, 63, 100
2, 298560, Note_on_c, 0, 75, 100
2, 298652, Note_off_c, 0, 67, 100
2, 298652, Note_off_c, 0, 70, 100
2, 298656, Note_on_c, 0, 70, 100
2, 298656, Note_on_c, 0, 67, 100
2, 298748, Note_off_c, 0, 75, 100
2, 298752, Note_on_c, 0, 75, 100
2, 298844, Note_off_c, 0, 70, 100
2, 298844, Note_off_c, 0, 67, 100
2, 298848, Note_on_c, 0, 70, 100
2, 298848, Note_on_c, 0, 67, 100
2, 298940, Note_off_c, 0, 75, 100
2, 298944, Note_on_c, 0, 63, 100
2, 299036, Note_off_c, 0, 70, 100
2, 299036, Note_off_c, 0, 67, 100
2, 299040, Note_on_c, 0, 66, 100
2, 299132, Note_off_c, 0, 63, 100
2, 299136, Note_on_c, 0, 70, 100
2, 299228, Note_off_c, 0, 66, 100
2, 299232, Note_on_c, 0, 66, 100
2, 299324, Note_off_c, 0, 70, 100
2, 299328, Note_on_c, 0, 70, 100
2, 299420, Note_off_c, 0, 66, 100
2, 299424, Note_on_c, 0, 66, 100
2, 299516, Note_off_c, 0, 70, 100
2, 299520, Note_on_c, 0, 60, 100
2, 299612, Note_off_c, 0, 66, 100
2, 299616, Note_on_c, 0, 66, 100
2, 299708, Note_off_c, 0, 60, 100
2, 299712, Note_on_c, 0, 70, 100
2, 299804, Note_off_c, 0, 66, 100
2, 299808, Note_on_c, 0, 66, 100
2, 299900, Note_off_c, 0, 70, 100
2, 299904, Note_on_c, 0, 70, 100
2, 299996, Note_off_c, 0, 66, 100
2, 300000, Note_on_c, 0, 66, 100
2, 300092, Note_off_c, 0, 70, 100
2, 300096, Note_on_c, 0, 60, 100
2, 300188, Note_off_c, 0, 66, 100
2, 300192, Note_on_c, 0, 66, 100
2, 300284, Note_off_c, 0, 60, 100
2, 300288, Note_on_c, 0, 69, 100
2, 300380, Note_off_c, 0, 66, 100
2, 300384, Note_on_c, 0, 66, 100
2, 300476, Note_off_c, 0, 69, 100
2, 300480, Note_on_c, 0, 69, 100
2, 300572, Note_off_c, 0, 66, 100
2, 300576, Note_on_c, 0, 66, 100
2, 300668, Note_off_c, 0, 69, 100
2, 300672, Note_on_c, 0, 60, 100
2, 300764, Note_off_c, 0, 66, 100
2, 300768, Note_on_c, 0, 65, 100
2, 300860, Note_off_c, 0, 60, 100
2, 300864, Note_on_c, 0, 69, 100
2, 300956, Note_off_c, 0, 65, 100
2, 300960, Note_on_c, 0, 65, 100
2, 301052, Note_off_c, 0, 69, 100
2, 301056, Note_on_c, 0, 69, 100
2, 301148, Note_off_c, 0, 65, 100
2, 301152, Note_on_c, 0, 65, 100
2, 301244, Note_off_c, 0, 69, 100
2, 301248, Note_on_c, 0, 60, 100
2, 301340, Note_off_c, 0, 65, 100
2, 301344, Note_on_c, 0, 63, 100
2, 301436, Note_off_c, 0, 60, 100
2, 301440, Note_on_c, 0, 69, 100
2, 301532, Note_off_c, 0, 63, 100
2, 301536, Note_on_c, 0, 63, 100
2, 301628, Note_off_c, 0, 69, 100
2, 301632, Note_on_c, 0, 69, 100
2, 301724, Note_off_c, 0, 63, 100
2, 301728, Note_on_c, 0, 63, 100
2, 301820, Note_off_c, 0, 69, 100
2, 301820, Note_off_c, 0, 63, 100
2, 301824, Note_on_c, 0, 70, 100
2, 301824, Note_on_c, 0, 62, 100
2, 302204, Note_off_c, 0, 70, 100
2, 302204, Note_off_c, 0, 62, 100
2, 302208, Note_on_c, 0, 62, 115
2, 302780, Note_off_c, 0, 62, 100
2, 302784, Note_on_c, 0, 58, 100
2, 302972, Note_off_c, 0, 58, 100
2, 302976, Note_on_c, 0, 53, 100
2, 303356, Note_off_c, 0, 53, 100
2, 303360, Note_on_c, 0, 75, 100
2, 303360, Note_on_c, 0, 63, 100
2, 303932, Note_off_c, 0, 75, 100
2, 303936, Note_on_c, 0, 72, 100
2, 304124, Note_off_c, 0, 63, 100
2, 304124, Note_off_c, 0, 72, 100
2, 304128, Note_on_c, 0, 74, 100
2, 304128, Note_on_c, 0, 62, 100
2, 304508, Note_off_c, 0, 74, 100
2, 304508, Note_off_c, 0, 62, 100
2, 304512, Note_on_c, 0, 62, 115
2, 305084, Note_off_c, 0, 62, 100
2, 305088, Note_on_c, 0, 58, 100
2, 305276, Note_off_c, 0, 58, 100
2, 305280, Note_on_c, 0, 53, 100
2, 305660, Note_off_c, 0, 53, 100
2, 305664, Note_on_c, 0, 77, 100
2, 305664, Note_on_c, 0, 75, 100
2, 306236, Note_off_c, 0, 75, 100
2, 306240, Note_on_c, 0, 72, 100
2, 306428, Note_off_c, 0, 72, 100
2, 306432, Note_on_c, 0, 74, 100
2, 306812, Note_off_c, 0, 77, 100
2, 306812, Note_off_c, 0, 74, 100
2, 306816, Note_on_c, 0, 62, 125
2, 307388, Note_off_c, 0, 62, 100
2, 307392, Note_on_c, 0, 58, 110
2, 307580, Note_off_c, 0, 58, 100
2, 307584, Note_on_c, 0, 53, 110
2, 307964, Note_off_c, 0, 53, 100
2, 307968, Note_on_c, 0, 75, 120
2, 307968, Note_on_c, 0, 87, 120
2, 308540, Note_off_c, 0, 75, 100
2, 308540, Note_off_c, 0, 87, 100
2, 308544, Note_on_c, 0, 84, 120
2, 308544, Note_on_c, 0, 72, 120
2, 308732, Note_off_c, 0, 84, 100
2, 308732, Note_off_c, 0, 72, 100
2, 308736, Note_on_c, 0, 82, 120
2, 308736, Note_on_c, 0, 70, 120
2, 309116, Note_off_c, 0, 82, 100
2, 309116, Note_off_c, 0, 70, 100
2, 309120, Note_on_c, 0, 77, 120
2, 309120, Note_on_c, 0, 89, 120
2, 309308, Note_off_c, 0, 77, 100
2, 309308, Note_off_c, 0, 89, 100
2, 309312, Note_on_c, 0, 86, 120
2, 309312, Note_on_c, 0, 74, 120
2, 309692, Note_off_c, 0, 86, 100
2, 309692, Note_off_c, 0, 74, 100
2, 309696, Note_on_c, 0, 70, 120
2, 309696, Note_on_c, 0, 82, 120
2, 309884, Note_off_c, 0, 70, 100
2, 309884, Note_off_c, 0, 82, 100
2, 309888, Note_on_c, 0, 77, 120
2, 309888, Note_on_c, 0, 65, 120
2, 310268, Note_off_c, 0, 77, 100
2, 310268, Note_off_c, 0, 65, 100
2, 310272, Note_on_c, 0, 74, 120
2, 310272, Note_on_c, 0, 62, 120
2, 310460, Note_off_c, 0, 74, 100
2, 310460, Note_off_c, 0, 62, 100
2, 310464, Note_on_c, 0, 70, 120
2, 310464, Note_on_c, 0, 58, 120
2, 310844, Note_off_c, 0, 70, 100
2, 310844, Note_off_c, 0, 58, 100
2, 310848, Note_on_c, 0, 65, 120
2, 310848, Note_on_c, 0, 53, 120
2, 311036, Note_off_c, 0, 65, 100
2, 311036, Note_off_c, 0, 53, 100
2, 311040, Note_on_c, 0, 70, 120
2, 311040, Note_on_c, 0, 58, 120
2, 311420, Note_off_c, 0, 70, 100
2, 311420, Note_off_c, 0, 58, 100
2, 311616, Note_on_c, 0, 58, 120
2, 311616, Note_on_c, 0, 53, 120
2, 311616, Note_on_c, 0, 50, 120
2, 311996, Note_off_c, 0, 58, 100
2, 311996, Note_off_c, 0, 53, 100
2, 311996, Note_off_c, 0, 50, 100
2, 312192, Note_on_c, 0, 58, 120
2, 312192, Note_on_c, 0, 53, 120
2, 312192, Note_on_c, 0, 50, 120
2, 312572, Note_off_c, 0, 58, 100
2, 312572, Note_off_c, 0, 53, 100
2, 312572, Note_off_c, 0, 50, 100
2, 313344, Note_on_c, 0, 62, 120
2, 313344, Note_on_c, 0, 59, 120
2, 313344, Note_on_c, 0, 53, 120
2, 314492, Note_off_c, 0, 62, 100
2, 314492, Note_off_c, 0, 59, 100
2, 314492, Note_off_c, 0, 53, 100
2, 314496, Note_on_c, 0, 59, 120
2, 314496, Note_on_c, 0, 53, 120
2, 314496, Note_on_c, 0, 50, 120
2, 314876, Note_off_c, 0, 59, 100
2, 314876, Note_off_c, 0, 53, 100
2, 314876, Note_off_c, 0, 50, 100
2, 315648, Note_on_c, 0, 65, 120
2, 315648, Note_on_c, 0, 62, 120
2, 315648, Note_on_c, 0, 59, 120
2, 316796, Note_off_c, 0, 65, 100
2, 316796, Note_off_c, 0, 62, 100
2, 316796, Note_off_c, 0, 59, 100
2, 316800, Note_on_c, 0, 62, 120
2, 316800, Note_on_c, 0, 59, 120
2, 316800, Note_on_c, 0, 53, 120
2, 317180, Note_off_c, 0, 62, 100
2, 317180, Note_off_c, 0, 59, 100
2, 317180, Note_off_c, 0, 53, 100
2, 317952, Note_on_c, 0, 60, 120
2, 317952, Note_on_c, 0, 55, 120
2, 317952, Note_on_c, 0, 51, 120
2, 318332, Note_off_c, 0, 60, 100
2, 318332, Note_off_c, 0, 55, 100
2, 318332, Note_off_c, 0, 51, 100
2, 320256, Note_on_c, 0, 71, 80
2, 320444, Note_off_c, 0, 71, 100
2, 320448, Note_on_c, 0, 72, 80
2, 320636, Note_off_c, 0, 72, 100
2, 320640, Note_on_c, 0, 74, 80
2, 320828, Note_off_c, 0, 74, 100
2, 320832, Note_on_c, 0, 75, 80
2, 321020, Note_off_c, 0, 75, 100
2, 321024, Note_on_c, 0, 77, 80
2, 321212, Note_off_c, 0, 77, 100
2, 321216, Note_on_c, 0, 79, 80
2, 321404, Note_off_c, 0, 79, 100
2, 321408, Note_on_c, 0, 80, 80
2, 321596, Note_off_c, 0, 80, 100
2, 321600, Note_on_c, 0, 83, 80
2, 321788, Note_off_c, 0, 83, 100
2, 321792, Note_on_c, 0, 84, 80
2, 321980, Note_off_c, 0, 84, 100
2, 321984, Note_on_c, 0, 86, 80
2, 322172, Note_off_c, 0, 86, 100
2, 322176, Note_on_c, 0, 87, 80
2, 322364, Note_off_c, 0, 87, 100
2, 322368, Note_on_c, 0, 89, 80
2, 322556, Note_off_c, 0, 89, 100
2, 322560, Note_on_c, 0, 87, 80
2, 322748, Note_off_c, 0, 87, 100
2, 322752, Note_on_c, 0, 85, 80
2, 322940, Note_off_c, 0, 85, 100
2, 322944, Note_on_c, 0, 84, 80
2, 323132, Note_off_c, 0, 84, 100
2, 323136, Note_on_c, 0, 82, 80
2, 323324, Note_off_c, 0, 82, 100
2, 323328, Note_on_c, 0, 80, 80
2, 323516, Note_off_c, 0, 80, 100
2, 323520, Note_on_c, 0, 79, 80
2, 323708, Note_off_c, 0, 79, 100
2, 323712, Note_on_c, 0, 77, 80
2, 323900, Note_off_c, 0, 77, 100
2, 323904, Note_on_c, 0, 75, 80
2, 324092, Note_off_c, 0, 75, 100
2, 324096, Note_on_c, 0, 73, 80
2, 324284, Note_off_c, 0, 73, 100
2, 324288, Note_on_c, 0, 72, 80
2, 324476, Note_off_c, 0, 72, 100
2, 324480, Note_on_c, 0, 70, 80
2, 324668, Note_off_c, 0, 70, 100
2, 324672, Note_on_c, 0, 68, 80
2, 324860, Note_off_c, 0, 68, 100
2, 324864, Note_on_c, 0, 67, 80
2, 325052, Note_off_c, 0, 67, 100
2, 325056, Note_on_c, 0, 68, 80
2, 325244, Note_off_c, 0, 68, 100
2, 325248, Note_on_c, 0, 70, 80
2, 325436, Note_off_c, 0, 70, 100
2, 325440, Note_on_c, 0, 72, 80
2, 325628, Note_off_c, 0, 72, 100
2, 325632, Note_on_c, 0, 73, 80
2, 325820, Note_off_c, 0, 73, 100
2, 325824, Note_on_c, 0, 75, 80
2, 326012, Note_off_c, 0, 75, 100
2, 326016, Note_on_c, 0, 77, 80
2, 326204, Note_off_c, 0, 77, 100
2, 326208, Note_on_c, 0, 79, 80
2, 326396, Note_off_c, 0, 79, 100
2, 326400, Note_on_c, 0, 80, 80
2, 326588, Note_off_c, 0, 80, 100
2, 326592, Note_on_c, 0, 82, 80
2, 326780, Note_off_c, 0, 82, 100
2, 326784, Note_on_c, 0, 84, 80
2, 326972, Note_off_c, 0, 84, 100
2, 326976, Note_on_c, 0, 85, 80
2, 327164, Note_off_c, 0, 85, 100
2, 327168, Note_on_c, 0, 84, 80
2, 327356, Note_off_c, 0, 84, 100
2, 327360, Note_on_c, 0, 82, 80
2, 327548, Note_off_c, 0, 82, 100
2, 327552, Note_on_c, 0, 80, 80
2, 327740, Note_off_c, 0, 80, 100
2, 327744, Note_on_c, 0, 79, 80
2, 327932, Note_off_c, 0, 79, 100
2, 327936, Note_on_c, 0, 77, 80
2, 328124, Note_off_c, 0, 77, 100
2, 328128, Note_on_c, 0, 75, 80
2, 328316, Note_off_c, 0, 75, 100
2, 328320, Note_on_c, 0, 73, 80
2, 328508, Note_off_c, 0, 73, 100
2, 328512, Note_on_c, 0, 72, 80
2, 328700, Note_off_c, 0, 72, 100
2, 328704, Note_on_c, 0, 70, 80
2, 328892, Note_off_c, 0, 70, 100
2, 328896, Note_on_c, 0, 68, 80
2, 329084, Note_off_c, 0, 68, 100
2, 329088, Note_on_c, 0, 67, 80
2, 329276, Note_off_c, 0, 67, 100
2, 329280, Note_on_c, 0, 65, 80
2, 329468, Note_off_c, 0, 65, 100
2, 329472, Note_on_c, 0, 64, 80
2, 329660, Note_off_c, 0, 64, 100
2, 329664, Note_on_c, 0, 65, 81
2, 329852, Note_off_c, 0, 65, 100
2, 329856, Note_on_c, 0, 67, 83
2, 330044, Note_off_c, 0, 67, 100
2, 330048, Note_on_c, 0, 68, 85
2, 330236, Note_off_c, 0, 68, 100
2, 330240, Note_on_c, 0, 70, 87
2, 330428, Note_off_c, 0, 70, 100
2, 330432, Note_on_c, 0, 72, 89
2, 330620, Note_off_c, 0, 72, 100
2, 330624, Note_on_c, 0, 73, 90
2, 330812, Note_off_c, 0, 73, 100
2, 330816, Note_on_c, 0, 76, 92
2, 331004, Note_off_c, 0, 76, 100
2, 331008, Note_on_c, 0, 77, 94
2, 331196, Note_off_c, 0, 77, 100
2, 331200, Note_on_c, 0, 79, 96
2, 331388, Note_off_c, 0, 79, 100
2, 331392, Note_on_c, 0, 80, 98
2, 331580, Note_off_c, 0, 80, 100
2, 331584, Note_on_c, 0, 82, 99
2, 331772, Note_off_c, 0, 82, 100
2, 331776, Note_on_c, 0, 80, 112
2, 332156, Note_off_c, 0, 80, 100
2, 332160, Note_on_c, 0, 56, 110
2, 332732, Note_off_c, 0, 56, 100
2, 332736, Note_on_c, 0, 53, 100
2, 332924, Note_off_c, 0, 53, 100
2, 332928, Note_on_c, 0, 48, 100
2, 333308, Note_off_c, 0, 48, 100
2, 333312, Note_on_c, 0, 73, 110
2, 333312, Note_on_c, 0, 64, 110
2, 333884, Note_off_c, 0, 73, 100
2, 333888, Note_on_c, 0, 70, 100
2, 334076, Note_off_c, 0, 64, 100
2, 334076, Note_off_c, 0, 70, 100
2, 334080, Note_on_c, 0, 68, 100
2, 334080, Note_on_c, 0, 65, 100
2, 334460, Note_off_c, 0, 68, 100
2, 334460, Note_off_c, 0, 65, 100
2, 334464, Note_on_c, 0, 56, 110
2, 335036, Note_off_c, 0, 56, 100
2, 335040, Note_on_c, 0, 53, 100
2, 335228, Note_off_c, 0, 53, 100
2, 335232, Note_on_c, 0, 48, 100
2, 335612, Note_off_c, 0, 48, 100
2, 335616, Note_on_c, 0, 76, 110
2, 335616, Note_on_c, 0, 64, 110
2, 335616, Note_on_c, 0, 73, 110
2, 336188, Note_off_c, 0, 73, 100
2, 336192, Note_on_c, 0, 70, 100
2, 336380, Note_off_c, 0, 76, 100
2, 336380, Note_off_c, 0, 64, 100
2, 336380, Note_off_c, 0, 70, 100
2, 336384, Note_on_c, 0, 77, 100
2, 336384, Note_on_c, 0, 68, 100
2, 336384, Note_on_c, 0, 65, 100
2, 336764, Note_off_c, 0, 77, 100
2, 336764, Note_off_c, 0, 68, 100
2, 336764, Note_off_c, 0, 65, 100
2, 336768, Note_on_c, 0, 56, 110
2, 337340, Note_off_c, 0, 56, 100
2, 337344, Note_on_c, 0, 53, 100
2, 337532, Note_off_c, 0, 53, 100
2, 337536, Note_on_c, 0, 54, 100
2, 337916, Note_off_c, 0, 54, 100
2, 337920, Note_on_c, 0, 63, 110
2, 337920, Note_on_c, 0, 75, 110
2, 338492, Note_off_c, 0, 75, 100
2, 338496, Note_on_c, 0, 72, 100
2, 338684, Note_off_c, 0, 63, 100
2, 338684, Note_off_c, 0, 72, 100
2, 338688, Note_on_c, 0, 70, 100
2, 338688, Note_on_c, 0, 62, 100
2, 339068, Note_off_c, 0, 70, 100
2, 339068, Note_off_c, 0, 62, 100
2, 339072, Note_on_c, 0, 58, 110
2, 339644, Note_off_c, 0, 58, 100
2, 339648, Note_on_c, 0, 55, 100
2, 339836, Note_off_c, 0, 55, 100
2, 339840, Note_on_c, 0, 50, 100
2, 340220, Note_off_c, 0, 50, 100
2, 340224, Note_on_c, 0, 78, 110
2, 340224, Note_on_c, 0, 66, 110
2, 340224, Note_on_c, 0, 75, 110
2, 340796, Note_off_c, 0, 75, 100
2, 340800, Note_on_c, 0, 72, 100
2, 340988, Note_off_c, 0, 78, 100
2, 340988, Note_off_c, 0, 66, 100
2, 340988, Note_off_c, 0, 72, 100
2, 340992, Note_on_c, 0, 79, 100
2, 340992, Note_on_c, 0, 70, 100
2, 340992, Note_on_c, 0, 67, 100
2, 341372, Note_off_c, 0, 79, 100
2, 341372, Note_off_c, 0, 70, 100
2, 341372, Note_off_c, 0, 67, 100
2, 341376, Note_on_c, 0, 58, 110
2, 341948, Note_off_c, 0, 58, 100
2, 341952, Note_on_c, 0, 55, 100
2, 342140, Note_off_c, 0, 55, 100
2, 342144, Note_on_c, 0, 51, 100
2, 342524, Note_off_c, 0, 51, 100
2, 342528, Note_on_c, 0, 85, 110
2, 342528, Note_on_c, 0, 79, 110
2, 342528, Note_on_c, 0, 73, 110
2, 343100, Note_off_c, 0, 85, 100
2, 343100, Note_off_c, 0, 79, 100
2, 343100, Note_off_c, 0, 73, 100
2, 343104, Note_on_c, 0, 85, 110
2, 343104, Note_on_c, 0, 79, 110
2, 343104, Note_on_c, 0, 73, 110
2, 343292, Note_off_c, 0, 85, 100
2, 343292, Note_off_c, 0, 79, 100
2, 343292, Note_off_c, 0, 73, 100
2, 343296, Note_on_c, 0, 86, 110
2, 343296, Note_on_c, 0, 78, 110
2, 343296, Note_on_c, 0, 74, 110
2, 343676, Note_off_c, 0, 86, 100
2, 343676, Note_off_c, 0, 78, 100
2, 343676, Note_off_c, 0, 74, 100
2, 343680, Note_on_c, 0, 62, 110
2, 344252, Note_off_c, 0, 62, 100
2, 344256, Note_on_c, 0, 62, 110
2, 344444, Note_off_c, 0, 62, 100
2, 344448, Note_on_c, 0, 63, 110
2, 344828, Note_off_c, 0, 63, 100
2, 344832, Note_on_c, 0, 85, 120
2, 344832, Note_on_c, 0, 79, 120
2, 344832, Note_on_c, 0, 73, 120
2, 345404, Note_off_c, 0, 85, 100
2, 345404, Note_off_c, 0, 79, 100
2, 345404, Note_off_c, 0, 73, 100
2, 345408, Note_on_c, 0, 85, 120
2, 345408, Note_on_c, 0, 79, 120
2, 345408, Note_on_c, 0, 73, 120
2, 345596, Note_off_c, 0, 85, 100
2, 345596, Note_off_c, 0, 79, 100
2, 345596, Note_off_c, 0, 73, 100
2, 345600, Note_on_c, 0, 86, 120
2, 345600, Note_on_c, 0, 78, 120
2, 345600, Note_on_c, 0, 74, 120
2, 345980, Note_off_c, 0, 86, 100
2, 345980, Note_off_c, 0, 78, 100
2, 345980, Note_off_c, 0, 74, 100
2, 345984, Note_on_c, 0, 74, 100
2, 346556, Note_off_c, 0, 74, 100
2, 346560, Note_on_c, 0, 73, 100
2, 346748, Note_off_c, 0, 73, 100
2, 346752, Note_on_c, 0, 74, 100
2, 347132, Note_off_c, 0, 74, 100
2, 347136, Note_on_c, 0, 74, 100
2, 347708, Note_off_c, 0, 74, 100
2, 347712, Note_on_c, 0, 73, 100
2, 347900, Note_off_c, 0, 73, 100
2, 347904, Note_on_c, 0, 72, 100
2, 348284, Note_off_c, 0, 72, 100
2, 348288, Note_on_c, 0, 72, 99
2, 348860, Note_off_c, 0, 72, 100
2, 348864, Note_on_c, 0, 71, 96
2, 349052, Note_off_c, 0, 71, 100
2, 349056, Note_on_c, 0, 72, 95
2, 349436, Note_off_c, 0, 72, 100
2, 349440, Note_on_c, 0, 72, 94
2, 350012, Note_off_c, 0, 72, 100
2, 350016, Note_on_c, 0, 71, 91
2, 350204, Note_off_c, 0, 71, 100
2, 350208, Note_on_c, 0, 72, 70
2, 350208, Note_on_c, 0, 64, 70
2, 350208, Note_on_c, 0, 60, 70
2, 351356, Note_off_c, 0, 72, 100
2, 351356, Note_off_c, 0, 64, 100
2, 351356, Note_off_c, 0, 60, 100
2, 351360, Note_on_c, 0, 69, 71
2, 351360, Note_on_c, 0, 64, 71
2, 351360, Note_on_c, 0, 60, 71
2, 351740, Note_off_c, 0, 69, 100
2, 351740, Note_off_c, 0, 64, 100
2, 351740, Note_off_c, 0, 60, 100
2, 352512, Note_on_c, 0, 71, 72
2, 352512, Note_on_c, 0, 68, 72
2, 352512, Note_on_c, 0, 64, 72
2, 352512, Note_on_c, 0, 62, 72
2, 352512, Note_on_c, 0, 74, 72
2, 353660, Note_off_c, 0, 71, 100
2, 353660, Note_off_c, 0, 68, 100
2, 353660, Note_off_c, 0, 64, 100
2, 353660, Note_off_c, 0, 62, 100
2, 353660, Note_off_c, 0, 74, 100
2, 353664, Note_on_c, 0, 68, 73
2, 353664, Note_on_c, 0, 64, 73
2, 353664, Note_on_c, 0, 62, 73
2, 354044, Note_off_c, 0, 68, 100
2, 354044, Note_off_c, 0, 64, 100
2, 354044, Note_off_c, 0, 62, 100
2, 354816, Note_on_c, 0, 72, 75
2, 354816, Note_on_c, 0, 60, 75
2, 355772, Note_off_c, 0, 72, 100
2, 355772, Note_off_c, 0, 60, 100
2, 355776, Note_on_c, 0, 76, 76
2, 355776, Note_on_c, 0, 64, 76
2, 355964, Note_off_c, 0, 76, 100
2, 355964, Note_off_c, 0, 64, 100
2, 355968, Note_on_c, 0, 76, 76
2, 355968, Note_on_c, 0, 64, 76
2, 356348, Note_off_c, 0, 76, 100
2, 356348, Note_off_c, 0, 64, 100
2, 356352, Note_on_c, 0, 74, 76
2, 356352, Note_on_c, 0, 62, 76
2, 356540, Note_off_c, 0, 74, 100
2, 356540, Note_off_c, 0, 62, 100
2, 356544, Note_on_c, 0, 72, 77
2, 356544, Note_on_c, 0, 60, 77
2, 356924, Note_off_c, 0, 72, 100
2, 356924, Note_off_c, 0, 60, 100
2, 356928, Note_on_c, 0, 71, 77
2, 356928, Note_on_c, 0, 59, 77
2, 357116, Note_off_c, 0, 71, 100
2, 357116, Note_off_c, 0, 59, 100
2, 357120, Note_on_c, 0, 72, 77
2, 357120, Note_on_c, 0, 60, 77
2, 358076, Note_off_c, 0, 72, 100
2, 358076, Note_off_c, 0, 60, 100
2, 358080, Note_on_c, 0, 76, 78
2, 358080, Note_on_c, 0, 64, 78
2, 358268, Note_off_c, 0, 76, 100
2, 358268, Note_off_c, 0, 64, 100
2, 358272, Note_on_c, 0, 76, 78
2, 358272, Note_on_c, 0, 64, 78
2, 358652, Note_off_c, 0, 76, 100
2, 358652, Note_off_c, 0, 64, 100
2, 358656, Note_on_c, 0, 74, 79
2, 358656, Note_on_c, 0, 62, 79
2, 358844, Note_off_c, 0, 74, 100
2, 358844, Note_off_c, 0, 62, 100
2, 358848, Note_on_c, 0, 72, 79
2, 358848, Note_on_c, 0, 60, 79
2, 359228, Note_off_c, 0, 72, 100
2, 359228, Note_off_c, 0, 60, 100
2, 359232, Note_on_c, 0, 71, 79
2, 359232, Note_on_c, 0, 59, 79
2, 359420, Note_off_c, 0, 71, 100
2, 359420, Note_off_c, 0, 59, 100
2, 359424, Note_on_c, 0, 77, 120
2, 359424, Note_on_c, 0, 69, 120
2, 359424, Note_on_c, 0, 65, 120
2, 359424, Note_on_c, 0, 74, 120
2, 360572, Note_off_c, 0, 77, 100
2, 360572, Note_off_c, 0, 69, 100
2, 360572, Note_off_c, 0, 65, 100
2, 360572, Note_off_c, 0, 74, 100
2, 360576, Note_on_c, 0, 74, 120
2, 360576, Note_on_c, 0, 69, 120
2, 360576, Note_on_c, 0, 65, 120
2, 360956, Note_off_c, 0, 74, 100
2, 360956, Note_off_c, 0, 69, 100
2, 360956, Note_off_c, 0, 65, 100
2, 361728, Note_on_c, 0, 79, 120
2, 361728, Note_on_c, 0, 76, 120
2, 361728, Note_on_c, 0, 73, 120
2, 361728, Note_on_c, 0, 69, 120
2, 361728, Note_on_c, 0, 67, 120
2, 362876, Note_off_c, 0, 79, 100
2, 362876, Note_off_c, 0, 76, 100
2, 362876, Note_off_c, 0, 73, 100
2, 362876, Note_off_c, 0, 69, 100
2, 362876, Note_off_c, 0, 67, 100
2, 362880, Note_on_c, 0, 73, 120
2, 362880, Note_on_c, 0, 69, 120
2, 362880, Note_on_c, 0, 67, 120
2, 363260, Note_off_c, 0, 73, 100
2, 363260, Note_off_c, 0, 69, 100
2, 363260, Note_off_c, 0, 67, 100
2, 364032, Note_on_c, 0, 77, 80
2, 364032, Note_on_c, 0, 65, 80
2, 364988, Note_off_c, 0, 77, 100
2, 364988, Note_off_c, 0, 65, 100
2, 364992, Note_on_c, 0, 81, 80
2, 364992, Note_on_c, 0, 69, 80
2, 365180, Note_off_c, 0, 81, 100
2, 365180, Note_off_c, 0, 69, 100
2, 365184, Note_on_c, 0, 81, 80
2, 365184, Note_on_c, 0, 69, 80
2, 365564, Note_off_c, 0, 81, 100
2, 365564, Note_off_c, 0, 69, 100
2, 365568, Note_on_c, 0, 79, 80
2, 365568, Note_on_c, 0, 67, 80
2, 365756, Note_off_c, 0, 79, 100
2, 365756, Note_off_c, 0, 67, 100
2, 365760, Note_on_c, 0, 77, 80
2, 365760, Note_on_c, 0, 65, 80
2, 366140, Note_off_c, 0, 77, 100
2, 366140, Note_off_c, 0, 65, 100
2, 366144, Note_on_c, 0, 76, 80
2, 366144, Note_on_c, 0, 64, 80
2, 366332, Note_off_c, 0, 76, 100
2, 366332, Note_off_c, 0, 64, 100
2, 366336, Note_on_c, 0, 77, 80
2, 366336, Note_on_c, 0, 65, 80
2, 367292, Note_off_c, 0, 77, 100
2, 367292, Note_off_c, 0, 65, 100
2, 367296, Note_on_c, 0, 81, 80
2, 367296, Note_on_c, 0, 69, 80
2, 367484, Note_off_c, 0, 81, 100
2, 367484, Note_off_c, 0, 69, 100
2, 367488, Note_on_c, 0, 81, 80
2, 367488, Note_on_c, 0, 69, 80
2, 367868, Note_off_c, 0, 81, 100
2, 367868, Note_off_c, 0, 69, 100
2, 367872, Note_on_c, 0, 79, 80
2, 367872, Note_on_c, 0, 67, 80
2, 368060, Note_off_c, 0, 79, 100
2, 368060, Note_off_c, 0, 67, 100
2, 368064, Note_on_c, 0, 77, 80
2, 368064, Note_on_c, 0, 65, 80
2, 368444, Note_off_c, 0, 77, 100
2, 368444, Note_off_c, 0, 65, 100
2, 368448, Note_on_c, 0, 76, 80
2, 368448, Note_on_c, 0, 64, 80
2, 368636, Note_off_c, 0, 76, 100
2, 368636, Note_off_c, 0, 64, 100
2, 368640, Note_on_c, 0, 77, 80
2, 368640, Note_on_c, 0, 65, 80
2, 369788, Note_off_c, 0, 77, 100
2, 369792, Note_on_c, 0, 69, 80
2, 370172, Note_off_c, 0, 65, 100
2, 370172, Note_off_c, 0, 69, 100
2, 370944, Note_on_c, 0, 65, 70
2, 370944, Note_on_c, 0, 77, 70
2, 372092, Note_off_c, 0, 77, 100
2, 372096, Note_on_c, 0, 68, 70
2, 372476, Note_off_c, 0, 65, 100
2, 372476, Note_off_c, 0, 68, 100
2, 373248, Note_on_c, 0, 67, 120
2, 373248, Note_on_c, 0, 63, 120
2, 373248, Note_on_c, 0, 58, 120
2, 373248, Note_on_c, 0, 55, 120
2, 374396, Note_off_c, 0, 67, 100
2, 374396, Note_off_c, 0, 63, 100
2, 374396, Note_off_c, 0, 58, 100
2, 374396, Note_off_c, 0, 55, 100
2, 374400, Note_on_c, 0, 63, 120
2, 374400, Note_on_c, 0, 58, 120
2, 374400, Note_on_c, 0, 55, 120
2, 374780, Note_off_c, 0, 63, 100
2, 374780, Note_off_c, 0, 58, 100
2, 374780, Note_off_c, 0, 55, 100
2, 375552, Note_on_c, 0, 70, 120
2, 375552, Note_on_c, 0, 67, 120
2, 375552, Note_on_c, 0, 63, 120
2, 375552, Note_on_c, 0, 58, 120
2, 376700, Note_off_c, 0, 70, 100
2, 376700, Note_off_c, 0, 67, 100
2, 376700, Note_off_c, 0, 63, 100
2, 376700, Note_off_c, 0, 58, 100
2, 376704, Note_on_c, 0, 67, 120
2, 376704, Note_on_c, 0, 63, 120
2, 376704, Note_on_c, 0, 58, 120
2, 376704, Note_on_c, 0, 55, 120
2, 377084, Note_off_c, 0, 67, 100
2, 377084, Note_off_c, 0, 63, 100
2, 377084, Note_off_c, 0, 58, 100
2, 377084, Note_off_c, 0, 55, 100
2, 377664, Note_on_c, 0, 70, 80
2, 377852, Note_off_c, 0, 70, 100
2, 377856, Note_on_c, 0, 75, 80
2, 378044, Note_off_c, 0, 75, 100
2, 378048, Note_on_c, 0, 74, 80
2, 378236, Note_off_c, 0, 74, 100
2, 378240, Note_on_c, 0, 77, 80
2, 378428, Note_off_c, 0, 77, 100
2, 378432, Note_on_c, 0, 75, 80
2, 378620, Note_off_c, 0, 75, 100
2, 378624, Note_on_c, 0, 74, 80
2, 378812, Note_off_c, 0, 74, 100
2, 378816, Note_on_c, 0, 77, 80
2, 379004, Note_off_c, 0, 77, 100
2, 379008, Note_on_c, 0, 75, 80
2, 379196, Note_off_c, 0, 75, 100
2, 379200, Note_on_c, 0, 74, 80
2, 379388, Note_off_c, 0, 74, 100
2, 379392, Note_on_c, 0, 77, 80
2, 379580, Note_off_c, 0, 77, 100
2, 379584, Note_on_c, 0, 75, 80
2, 379772, Note_off_c, 0, 75, 100
2, 379776, Note_on_c, 0, 74, 80
2, 379964, Note_off_c, 0, 74, 100
2, 379968, Note_on_c, 0, 72, 80
2, 380156, Note_off_c, 0, 72, 100
2, 380160, Note_on_c, 0, 80, 80
2, 380348, Note_off_c, 0, 80, 100
2, 380352, Note_on_c, 0, 79, 80
2, 380540, Note_off_c, 0, 79, 100
2, 380544, Note_on_c, 0, 82, 80
2, 380732, Note_off_c, 0, 82, 100
2, 380736, Note_on_c, 0, 80, 80
2, 380924, Note_off_c, 0, 80, 100
2, 380928, Note_on_c, 0, 79, 80
2, 381116, Note_off_c, 0, 79, 100
2, 381120, Note_on_c, 0, 82, 80
2, 381308, Note_off_c, 0, 82, 100
2, 381312, Note_on_c, 0, 80, 80
2, 381500, Note_off_c, 0, 80, 100
2, 381504, Note_on_c, 0, 79, 80
2, 381692, Note_off_c, 0, 79, 100
2, 381696, Note_on_c, 0, 82, 80
2, 381884, Note_off_c, 0, 82, 100
2, 381888, Note_on_c, 0, 80, 80
2, 382076, Note_off_c, 0, 80, 100
2, 382080, Note_on_c, 0, 79, 80
2, 382268, Note_off_c, 0, 79, 100
2, 382272, Note_on_c, 0, 77, 80
2, 382460, Note_off_c, 0, 77, 100
2, 382464, Note_on_c, 0, 87, 80
2, 382652, Note_off_c, 0, 87, 100
2, 382656, Note_on_c, 0, 86, 82
2, 382844, Note_off_c, 0, 86, 100
2, 382848, Note_on_c, 0, 89, 84
2, 383036, Note_off_c, 0, 89, 100
2, 383040, Note_on_c, 0, 87, 87
2, 383228, Note_off_c, 0, 87, 100
2, 383232, Note_on_c, 0, 86, 89
2, 383420, Note_off_c, 0, 86, 100
2, 383424, Note_on_c, 0, 89, 92
2, 383612, Note_off_c, 0, 89, 100
2, 383616, Note_on_c, 0, 87, 94
2, 383804, Note_off_c, 0, 87, 100
2, 383808, Note_on_c, 0, 86, 97
2, 383996, Note_off_c, 0, 86, 100
2, 384000, Note_on_c, 0, 89, 99
2, 384188, Note_off_c, 0, 89, 100
2, 384192, Note_on_c, 0, 87, 100
2, 384380, Note_off_c, 0, 87, 100
2, 384384, Note_on_c, 0, 85, 91
2, 384572, Note_off_c, 0, 85, 100
2, 384576, Note_on_c, 0, 84, 81
2, 384764, Note_off_c, 0, 84, 100
2, 384768, Note_on_c, 0, 83, 80
2, 384956, Note_off_c, 0, 83, 100
2, 384960, Note_on_c, 0, 84, 80
2, 385148, Note_off_c, 0, 84, 100
2, 385152, Note_on_c, 0, 82, 80
2, 385340, Note_off_c, 0, 82, 100
2, 385344, Note_on_c, 0, 80, 80
2, 385532, Note_off_c, 0, 80, 100
2, 385536, Note_on_c, 0, 79, 80
2, 385724, Note_off_c, 0, 79, 100
2, 385728, Note_on_c, 0, 77, 80
2, 385916, Note_off_c, 0, 77, 100
2, 385920, Note_on_c, 0, 75, 80
2, 386108, Note_off_c, 0, 75, 100
2, 386112, Note_on_c, 0, 74, 80
2, 386300, Note_off_c, 0, 74, 100
2, 386304, Note_on_c, 0, 77, 80
2, 386492, Note_off_c, 0, 77, 100
2, 386496, Note_on_c, 0, 80, 80
2, 386684, Note_off_c, 0, 80, 100
2, 386688, Note_on_c, 0, 77, 80
2, 386876, Note_off_c, 0, 77, 100
2, 386880, Note_on_c, 0, 74, 80
2, 387068, Note_off_c, 0, 74, 100
2, 387072, Note_on_c, 0, 75, 80
2, 387452, Note_off_c, 0, 75, 100
2, 387648, Note_on_c, 0, 79, 80
2, 387648, Note_on_c, 0, 75, 80
2, 387648, Note_on_c, 0, 67, 80
2, 388796, Note_off_c, 0, 67, 100
2, 388796, Note_off_c, 0, 75, 100
2, 388796, Note_off_c, 0, 79, 100
2, 388800, Note_on_c, 0, 80, 88
2, 388800, Note_on_c, 0, 75, 88
2, 388800, Note_on_c, 0, 68, 88
2, 389372, Note_off_c, 0, 80, 100
2, 389372, Note_off_c, 0, 75, 100
2, 389372, Note_off_c, 0, 68, 100
2, 389376, Note_on_c, 0, 82, 93
2, 389376, Note_on_c, 0, 75, 93
2, 389376, Note_on_c, 0, 70, 93
2, 389948, Note_off_c, 0, 82, 100
2, 389948, Note_off_c, 0, 75, 100
2, 389948, Note_off_c, 0, 70, 100
2, 389952, Note_on_c, 0, 84, 97
2, 389952, Note_on_c, 0, 75, 97
2, 389952, Note_on_c, 0, 72, 97
2, 390524, Note_off_c, 0, 84, 100
2, 390524, Note_off_c, 0, 75, 100
2, 390524, Note_off_c, 0, 72, 100
2, 390528, Note_on_c, 0, 85, 102
2, 390528, Note_on_c, 0, 75, 102
2, 390528, Note_on_c, 0, 73, 102
2, 391100, Note_off_c, 0, 85, 100
2, 391100, Note_off_c, 0, 75, 100
2, 391100, Note_off_c, 0, 73, 100
2, 391104, Note_on_c, 0, 87, 106
2, 391104, Note_on_c, 0, 75, 106
2, 391676, Note_off_c, 0, 87, 100
2, 391676, Note_off_c, 0, 75, 100
2, 391680, Note_on_c, 0, 84, 110
2, 391680, Note_on_c, 0, 72, 110
2, 391868, Note_off_c, 0, 84, 100
2, 391868, Note_off_c, 0, 72, 100
2, 391872, Note_on_c, 0, 87, 110
2, 392060, Note_off_c, 0, 87, 100
2, 392064, Note_on_c, 0, 85, 110
2, 392252, Note_off_c, 0, 85, 100
2, 392256, Note_on_c, 0, 84, 110
2, 392444, Note_off_c, 0, 84, 100
2, 392448, Note_on_c, 0, 82, 110
2, 392636, Note_off_c, 0, 82, 100
2, 392640, Note_on_c, 0, 80, 110
2, 392828, Note_off_c, 0, 80, 100
2, 392832, Note_on_c, 0, 79, 110
2, 393020, Note_off_c, 0, 79, 100
2, 393024, Note_on_c, 0, 77, 110
2, 393212, Note_off_c, 0, 77, 100
2, 393216, Note_on_c, 0, 75, 110
2, 393404, Note_off_c, 0, 75, 100
2, 393408, Note_on_c, 0, 73, 110
2, 393596, Note_off_c, 0, 73, 100
2, 393600, Note_on_c, 0, 72, 110
2, 393788, Note_off_c, 0, 72, 100
2, 393792, Note_on_c, 0, 70, 110
2, 393980, Note_off_c, 0, 70, 100
2, 393984, Note_on_c, 0, 68, 110
2, 394172, Note_off_c, 0, 68, 100
2, 394176, Note_on_c, 0, 67, 110
2, 394364, Note_off_c, 0, 67, 100
2, 394368, Note_on_c, 0, 65, 110
2, 394556, Note_off_c, 0, 65, 100
2, 394560, Note_on_c, 0, 63, 110
2, 394748, Note_off_c, 0, 63, 100
2, 394752, Note_on_c, 0, 62, 110
2, 394940, Note_off_c, 0, 62, 100
2, 394944, Note_on_c, 0, 65, 110
2, 395132, Note_off_c, 0, 65, 100
2, 395136, Note_on_c, 0, 63, 110
2, 395324, Note_off_c, 0, 63, 100
2, 395328, Note_on_c, 0, 62, 110
2, 395516, Note_off_c, 0, 62, 100
2, 395520, Note_on_c, 0, 65, 110
2, 395708, Note_off_c, 0, 65, 100
2, 395712, Note_on_c, 0, 63, 110
2, 395900, Note_off_c, 0, 63, 100
2, 395904, Note_on_c, 0, 65, 110
2, 396092, Note_off_c, 0, 65, 100
2, 396096, Note_on_c, 0, 61, 110
2, 396284, Note_off_c, 0, 61, 100
2, 396288, Note_on_c, 0, 60, 110
2, 396476, Note_off_c, 0, 60, 100
2, 396480, Note_on_c, 0, 84, 120
2, 396668, Note_off_c, 0, 84, 100
2, 396672, Note_on_c, 0, 87, 120
2, 396860, Note_off_c, 0, 87, 100
2, 396864, Note_on_c, 0, 85, 120
2, 396912, Note_on_c, 0, 87, 120
2, 396956, Note_off_c, 0, 85, 100
2, 396960, Note_on_c, 0, 85, 120
2, 397004, Note_off_c, 0, 87, 100
2, 397052, Note_off_c, 0, 85, 100
2, 397056, Note_on_c, 0, 84, 120
2, 397244, Note_off_c, 0, 84, 100
2, 397248, Note_on_c, 0, 82, 120
2, 397436, Note_off_c, 0, 82, 100
2, 397440, Note_on_c, 0, 80, 119
2, 397488, Note_on_c, 0, 82, 119
2, 397532, Note_off_c, 0, 80, 100
2, 397536, Note_on_c, 0, 80, 119
2, 397580, Note_off_c, 0, 82, 100
2, 397628, Note_off_c, 0, 80, 100
2, 397632, Note_on_c, 0, 79, 119
2, 397820, Note_off_c, 0, 79, 100
2, 397824, Note_on_c, 0, 77, 119
2, 398012, Note_off_c, 0, 77, 100
2, 398016, Note_on_c, 0, 75, 119
2, 398064, Note_on_c, 0, 77, 118
2, 398108, Note_off_c, 0, 75, 100
2, 398112, Note_on_c, 0, 75, 118
2, 398156, Note_off_c, 0, 77, 100
2, 398204, Note_off_c, 0, 75, 100
2, 398208, Note_on_c, 0, 73, 118
2, 398396, Note_off_c, 0, 73, 100
2, 398400, Note_on_c, 0, 72, 118
2, 398588, Note_off_c, 0, 72, 100
2, 398592, Note_on_c, 0, 70, 118
2, 398640, Note_on_c, 0, 72, 118
2, 398684, Note_off_c, 0, 70, 100
2, 398688, Note_on_c, 0, 70, 118
2, 398732, Note_off_c, 0, 72, 100
2, 398780, Note_off_c, 0, 70, 100
2, 398784, Note_on_c, 0, 68, 118
2, 398972, Note_off_c, 0, 68, 100
2, 398976, Note_on_c, 0, 67, 117
2, 399164, Note_off_c, 0, 67, 100
2, 399168, Note_on_c, 0, 65, 117
2, 399216, Note_on_c, 0, 67, 117
2, 399260, Note_off_c, 0, 65, 100
2, 399264, Note_on_c, 0, 65, 117
2, 399308, Note_off_c, 0, 67, 100
2, 399356, Note_off_c, 0, 65, 100
2, 399360, Note_on_c, 0, 63, 117
2, 399548, Note_off_c, 0, 63, 100
2, 399552, Note_on_c, 0, 62, 117
2, 399740, Note_off_c, 0, 62, 100
2, 399744, Note_on_c, 0, 63, 116
2, 399932, Note_off_c, 0, 63, 100
2, 399936, Note_on_c, 0, 65, 116
2, 400124, Note_off_c, 0, 65, 100
2, 400128, Note_on_c, 0, 62, 116
2, 400316, Note_off_c, 0, 62, 100
2, 400320, Note_on_c, 0, 63, 116
2, 400508, Note_off_c, 0, 63, 100
2, 400512, Note_on_c, 0, 65, 115
2, 400700, Note_off_c, 0, 65, 100
2, 400704, Note_on_c, 0, 61, 115
2, 400892, Note_off_c, 0, 61, 100
2, 400896, Note_on_c, 0, 60, 115
2, 401084, Note_off_c, 0, 60, 100
2, 401088, Note_on_c, 0, 61, 115
2, 401276, Note_off_c, 0, 61, 100
2, 401280, Note_on_c, 0, 59, 114
2, 401468, Note_off_c, 0, 59, 100
2, 401472, Note_on_c, 0, 60, 114
2, 401660, Note_off_c, 0, 60, 100
2, 401664, Note_on_c, 0, 61, 114
2, 401852, Note_off_c, 0, 61, 100
2, 401856, Note_on_c, 0, 62, 114
2, 402044, Note_off_c, 0, 62, 100
2, 402048, Note_on_c, 0, 63, 113
2, 402236, Note_off_c, 0, 63, 100
2, 402240, Note_on_c, 0, 64, 113
2, 402428, Note_off_c, 0, 64, 100
2, 402432, Note_on_c, 0, 65, 113
2, 402620, Note_off_c, 0, 65, 100
2, 402624, Note_on_c, 0, 66, 113
2, 402812, Note_off_c, 0, 66, 100
2, 402816, Note_on_c, 0, 65, 112
2, 403004, Note_off_c, 0, 65, 100
2, 403008, Note_on_c, 0, 63, 112
2, 403196, Note_off_c, 0, 63, 100
2, 403200, Note_on_c, 0, 62, 112
2, 403580, Note_off_c, 0, 62, 100
2, 403584, Note_on_c, 0, 65, 80
2, 403772, Note_off_c, 0, 65, 100
2, 403776, Note_on_c, 0, 62, 80
2, 404156, Note_off_c, 0, 62, 100
2, 404160, Note_on_c, 0, 58, 80
2, 404348, Note_off_c, 0, 58, 100
2, 404352, Note_on_c, 0, 63, 80
2, 404732, Note_off_c, 0, 63, 100
2, 404736, Note_on_c, 0, 66, 80
2, 404924, Note_off_c, 0, 66, 100
2, 404928, Note_on_c, 0, 58, 80
2, 405308, Note_off_c, 0, 58, 100
2, 405312, Note_on_c, 0, 63, 80
2, 405500, Note_off_c, 0, 63, 100
2, 405504, Note_on_c, 0, 62, 80
2, 405884, Note_off_c, 0, 62, 100
2, 405888, Note_on_c, 0, 74, 80
2, 406076, Note_off_c, 0, 74, 100
2, 406080, Note_on_c, 0, 82, 80
2, 406460, Note_off_c, 0, 82, 100
2, 406464, Note_on_c, 0, 80, 80
2, 406652, Note_off_c, 0, 80, 100
2, 406656, Note_on_c, 0, 78, 80
2, 407036, Note_off_c, 0, 78, 100
2, 407040, Note_on_c, 0, 75, 80
2, 407228, Note_off_c, 0, 75, 100
2, 407232, Note_on_c, 0, 78, 80
2, 407612, Note_off_c, 0, 78, 100
2, 407616, Note_on_c, 0, 81, 80
2, 407804, Note_off_c, 0, 81, 100
2, 407808, Note_on_c, 0, 82, 80
2, 407996, Note_off_c, 0, 82, 100
2, 408000, Note_on_c, 0, 88, 80
2, 408188, Note_off_c, 0, 88, 100
2, 408192, Note_on_c, 0, 89, 80
2, 408380, Note_off_c, 0, 89, 100
2, 408384, Note_on_c, 0, 82, 80
2, 408572, Note_off_c, 0, 82, 100
2, 408576, Note_on_c, 0, 85, 80
2, 408764, Note_off_c, 0, 85, 100
2, 408768, Note_on_c, 0, 86, 80
2, 408956, Note_off_c, 0, 86, 100
2, 408960, Note_on_c, 0, 77, 80
2, 409148, Note_off_c, 0, 77, 100
2, 409152, Note_on_c, 0, 81, 80
2, 409340, Note_off_c, 0, 81, 100
2, 409344, Note_on_c, 0, 82, 80
2, 409532, Note_off_c, 0, 82, 100
2, 409536, Note_on_c, 0, 74, 80
2, 409724, Note_off_c, 0, 74, 100
2, 409728, Note_on_c, 0, 76, 80
2, 409916, Note_off_c, 0, 76, 100
2, 409920, Note_on_c, 0, 77, 80
2, 410108, Note_off_c, 0, 77, 100
2, 410112, Note_on_c, 0, 73, 80
2, 410300, Note_off_c, 0, 73, 100
2, 410304, Note_on_c, 0, 74, 80
2, 410492, Note_off_c, 0, 74, 100
2, 410496, Note_on_c, 0, 70, 80
2, 410684, Note_off_c, 0, 70, 100
2, 410688, Note_on_c, 0, 73, 80
2, 410876, Note_off_c, 0, 73, 100
2, 410880, Note_on_c, 0, 74, 80
2, 411068, Note_off_c, 0, 74, 100
2, 411072, Note_on_c, 0, 70, 80
2, 411260, Note_off_c, 0, 70, 100
2, 411264, Note_on_c, 0, 73, 80
2, 411452, Note_off_c, 0, 73, 100
2, 411456, Note_on_c, 0, 74, 80
2, 411644, Note_off_c, 0, 74, 100
2, 411648, Note_on_c, 0, 70, 80
2, 411836, Note_off_c, 0, 70, 100
2, 411840, Note_on_c, 0, 75, 80
2, 412028, Note_off_c, 0, 75, 100
2, 412032, Note_on_c, 0, 77, 80
2, 412220, Note_off_c, 0, 77, 100
2, 412224, Note_on_c, 0, 79, 80
2, 412412, Note_off_c, 0, 79, 100
2, 412416, Note_on_c, 0, 73, 80
2, 412604, Note_off_c, 0, 73, 100
2, 412608, Note_on_c, 0, 74, 80
2, 412796, Note_off_c, 0, 74, 100
2, 412800, Note_on_c, 0, 70, 80
2, 412988, Note_off_c, 0, 70, 100
2, 412992, Note_on_c, 0, 73, 80
2, 413180, Note_off_c, 0, 73, 100
2, 413184, Note_on_c, 0, 74, 80
2, 413372, Note_off_c, 0, 74, 100
2, 413376, Note_on_c, 0, 70, 80
2, 413564, Note_off_c, 0, 70, 100
2, 413568, Note_on_c, 0, 73, 80
2, 413756, Note_off_c, 0, 73, 100
2, 413760, Note_on_c, 0, 74, 80
2, 413948, Note_off_c, 0, 74, 100
2, 413952, Note_on_c, 0, 70, 80
2, 414140, Note_off_c, 0, 70, 100
2, 414144, Note_on_c, 0, 75, 80
2, 414332, Note_off_c, 0, 75, 100
2, 414336, Note_on_c, 0, 77, 80
2, 414524, Note_off_c, 0, 77, 100
2, 414528, Note_on_c, 0, 79, 80
2, 414716, Note_off_c, 0, 79, 100
2, 414720, Note_on_c, 0, 71, 80
2, 414908, Note_off_c, 0, 71, 100
2, 414912, Note_on_c, 0, 74, 80
2, 415100, Note_off_c, 0, 74, 100
2, 415104, Note_on_c, 0, 71, 80
2, 415292, Note_off_c, 0, 71, 100
2, 415296, Note_on_c, 0, 72, 80
2, 415484, Note_off_c, 0, 72, 100
2, 415488, Note_on_c, 0, 74, 80
2, 415676, Note_off_c, 0, 74, 100
2, 415680, Note_on_c, 0, 75, 80
2, 415868, Note_off_c, 0, 75, 100
2, 415872, Note_on_c, 0, 67, 80
2, 416060, Note_off_c, 0, 67, 100
2, 416064, Note_on_c, 0, 70, 80
2, 416252, Note_off_c, 0, 70, 100
2, 416256, Note_on_c, 0, 67, 80
2, 416444, Note_off_c, 0, 67, 100
2, 416448, Note_on_c, 0, 68, 80
2, 416636, Note_off_c, 0, 68, 100
2, 416640, Note_on_c, 0, 70, 80
2, 416828, Note_off_c, 0, 70, 100
2, 416832, Note_on_c, 0, 72, 80
2, 417020, Note_off_c, 0, 72, 100
2, 417024, Note_on_c, 0, 64, 80
2, 417212, Note_off_c, 0, 64, 100
2, 417216, Note_on_c, 0, 67, 80
2, 417404, Note_off_c, 0, 67, 100
2, 417408, Note_on_c, 0, 64, 80
2, 417596, Note_off_c, 0, 64, 100
2, 417600, Note_on_c, 0, 65, 80
2, 417788, Note_off_c, 0, 65, 100
2, 417792, Note_on_c, 0, 67, 80
2, 417980, Note_off_c, 0, 67, 100
2, 417984, Note_on_c, 0, 68, 80
2, 418172, Note_off_c, 0, 68, 100
2, 418176, Note_on_c, 0, 63, 80
2, 418364, Note_off_c, 0, 63, 100
2, 418368, Note_on_c, 0, 67, 80
2, 418556, Note_off_c, 0, 67, 100
2, 418560, Note_on_c, 0, 70, 80
2, 418748, Note_off_c, 0, 70, 100
2, 418752, Note_on_c, 0, 68, 80
2, 418940, Note_off_c, 0, 68, 100
2, 418944, Note_on_c, 0, 65, 80
2, 419132, Note_off_c, 0, 65, 100
2, 419136, Note_on_c, 0, 62, 80
2, 419324, Note_off_c, 0, 62, 100
2, 419328, Note_on_c, 0, 63, 80
2, 419708, Note_off_c, 0, 63, 100
2, 421632, Note_on_c, 0, 62, 80
2, 421820, Note_off_c, 0, 62, 100
2, 421824, Note_on_c, 0, 82, 107
2, 423164, Note_off_c, 0, 82, 100
2, 423168, Note_on_c, 0, 62, 80
2, 423356, Note_off_c, 0, 62, 100
2, 423360, Note_on_c, 0, 63, 80
2, 423548, Note_off_c, 0, 63, 100
2, 423552, Note_on_c, 0, 65, 80
2, 423740, Note_off_c, 0, 65, 100
2, 423744, Note_on_c, 0, 67, 80
2, 423932, Note_off_c, 0, 67, 100
2, 423936, Note_on_c, 0, 62, 80
2, 424124, Note_off_c, 0, 62, 100
2, 424128, Note_on_c, 0, 82, 105
2, 425468, Note_off_c, 0, 82, 100
2, 425472, Note_on_c, 0, 62, 80
2, 425660, Note_off_c, 0, 62, 100
2, 425664, Note_on_c, 0, 63, 80
2, 425852, Note_off_c, 0, 63, 100
2, 425856, Note_on_c, 0, 65, 80
2, 426044, Note_off_c, 0, 65, 100
2, 426048, Note_on_c, 0, 67, 80
2, 426236, Note_off_c, 0, 67, 100
2, 426240, Note_on_c, 0, 65, 80
2, 426428, Note_off_c, 0, 65, 100
2, 426432, Note_on_c, 0, 74, 80
2, 426620, Note_off_c, 0, 74, 100
2, 426624, Note_on_c, 0, 77, 80
2, 426812, Note_off_c, 0, 77, 100
2, 426816, Note_on_c, 0, 75, 80
2, 427004, Note_off_c, 0, 75, 100
2, 427008, Note_on_c, 0, 74, 80
2, 427196, Note_off_c, 0, 74, 100
2, 427200, Note_on_c, 0, 72, 80
2, 427388, Note_off_c, 0, 72, 100
2, 427392, Note_on_c, 0, 73, 80
2, 427580, Note_off_c, 0, 73, 100
2, 427584, Note_on_c, 0, 70, 80
2, 427772, Note_off_c, 0, 70, 100
2, 427776, Note_on_c, 0, 73, 80
2, 427964, Note_off_c, 0, 73, 100
2, 427968, Note_on_c, 0, 72, 80
2, 428156, Note_off_c, 0, 72, 100
2, 428160, Note_on_c, 0, 70, 80
2, 428348, Note_off_c, 0, 70, 100
2, 428352, Note_on_c, 0, 68, 80
2, 428540, Note_off_c, 0, 68, 100
2, 428544, Note_on_c, 0, 70, 80
2, 428732, Note_off_c, 0, 70, 100
2, 428736, Note_on_c, 0, 67, 80
2, 428924, Note_off_c, 0, 67, 100
2, 428928, Note_on_c, 0, 70, 80
2, 429116, Note_off_c, 0, 70, 100
2, 429120, Note_on_c, 0, 68, 80
2, 429308, Note_off_c, 0, 68, 100
2, 429312, Note_on_c, 0, 67, 80
2, 429500, Note_off_c, 0, 67, 100
2, 429504, Note_on_c, 0, 65, 80
2, 429692, Note_off_c, 0, 65, 100
2, 429696, Note_on_c, 0, 63, 80
2, 429884, Note_off_c, 0, 63, 100
2, 429888, Note_on_c, 0, 67, 80
2, 430076, Note_off_c, 0, 67, 100
2, 430080, Note_on_c, 0, 70, 80
2, 430268, Note_off_c, 0, 70, 100
2, 430272, Note_on_c, 0, 65, 80
2, 430460, Note_off_c, 0, 65, 100
2, 430464, Note_on_c, 0, 68, 80
2, 430652, Note_off_c, 0, 68, 100
2, 430656, Note_on_c, 0, 74, 80
2, 430844, Note_off_c, 0, 74, 100
2, 430848, Note_on_c, 0, 75, 80
2, 430848, Note_on_c, 0, 67, 80
2, 431228, Note_off_c, 0, 75, 100
2, 431228, Note_off_c, 0, 67, 100
2, 431424, Note_on_c, 0, 67, 80
2, 431424, Note_on_c, 0, 55, 80
2, 431996, Note_off_c, 0, 67, 100
2, 431996, Note_off_c, 0, 55, 100
2, 432000, Note_on_c, 0, 65, 80
2, 432000, Note_on_c, 0, 56, 80
2, 432572, Note_off_c, 0, 65, 100
2, 432572, Note_off_c, 0, 56, 100
2, 432576, Note_on_c, 0, 63, 80
2, 432576, Note_on_c, 0, 58, 80
2, 433148, Note_off_c, 0, 63, 100
2, 433148, Note_off_c, 0, 58, 100
2, 433152, Note_on_c, 0, 60, 80
2, 433532, Note_off_c, 0, 60, 100
2, 433728, Note_on_c, 0, 68, 80
2, 433728, Note_on_c, 0, 56, 80
2, 434300, Note_off_c, 0, 68, 100
2, 434300, Note_off_c, 0, 56, 100
2, 434304, Note_on_c, 0, 67, 80
2, 434304, Note_on_c, 0, 58, 80
2, 434876, Note_off_c, 0, 67, 100
2, 434876, Note_off_c, 0, 58, 100
2, 434880, Note_on_c, 0, 65, 80
2, 434880, Note_on_c, 0, 60, 80
2, 435452, Note_off_c, 0, 65, 100
2, 435452, Note_off_c, 0, 60, 100
2, 435456, Note_on_c, 0, 62, 80
2, 435836, Note_off_c, 0, 62, 100
2, 436032, Note_on_c, 0, 74, 80
2, 436032, Note_on_c, 0, 70, 80
2, 436604, Note_off_c, 0, 74, 100
2, 436604, Note_off_c, 0, 70, 100
2, 436608, Note_on_c, 0, 75, 86
2, 436608, Note_on_c, 0, 69, 86
2, 437180, Note_off_c, 0, 75, 100
2, 437180, Note_off_c, 0, 69, 100
2, 437184, Note_on_c, 0, 77, 93
2, 437184, Note_on_c, 0, 68, 93
2, 437756, Note_off_c, 0, 77, 100
2, 437756, Note_off_c, 0, 68, 100
2, 437760, Note_on_c, 0, 67, 99
2, 437760, Note_on_c, 0, 79, 99
2, 438332, Note_off_c, 0, 67, 100
2, 438332, Note_off_c, 0, 79, 100
2, 438336, Note_on_c, 0, 70, 100
2, 438336, Note_on_c, 0, 82, 100
2, 439100, Note_off_c, 0, 82, 100
2, 439104, Note_on_c, 0, 84, 110
2, 439292, Note_off_c, 0, 84, 100
2, 439296, Note_on_c, 0, 82, 103
2, 439484, Note_off_c, 0, 70, 100
2, 439484, Note_off_c, 0, 82, 100
2, 439488, Note_on_c, 0, 82, 96
2, 439488, Note_on_c, 0, 70, 96
2, 439532, Note_off_c, 0, 82, 100
2, 439532, Note_off_c, 0, 70, 100
2, 439536, Note_on_c, 0, 81, 94
2, 439536, Note_on_c, 0, 69, 94
2, 439676, Note_off_c, 0, 81, 100
2, 439676, Note_off_c, 0, 69, 100
2, 439680, Note_on_c, 0, 79, 88
2, 439680, Note_on_c, 0, 67, 88
2, 439868, Note_off_c, 0, 79, 100
2, 439868, Note_off_c, 0, 67, 100
2, 439872, Note_on_c, 0, 81, 81
2, 439872, Note_on_c, 0, 69, 81
2, 440060, Note_off_c, 0, 81, 100
2, 440060, Note_off_c, 0, 69, 100
2, 440064, Note_on_c, 0, 82, 80
2, 440064, Note_on_c, 0, 70, 80
2, 440444, Note_off_c, 0, 82, 100
2, 440444, Note_off_c, 0, 70, 100
2, 440640, Note_on_c, 0, 67, 80
2, 440832, Note_on_c, 0, 79, 80
2, 441020, Note_off_c, 0, 79, 100
2, 441024, Note_on_c, 0, 79, 80
2, 441212, Note_off_c, 0, 67, 100
2, 441212, Note_off_c, 0, 79, 100
2, 441216, Note_on_c, 0, 68, 80
2, 441216, Note_on_c, 0, 79, 80
2, 441404, Note_off_c, 0, 79, 100
2, 441408, Note_on_c, 0, 77, 80
2, 441596, Note_off_c, 0, 77, 100
2, 441600, Note_on_c, 0, 77, 80
2, 441788, Note_off_c, 0, 68, 100
2, 441788, Note_off_c, 0, 77, 100
2, 441792, Note_on_c, 0, 70, 80
2, 441984, Note_on_c, 0, 75, 80
2, 442172, Note_off_c, 0, 75, 100
2, 442176, Note_on_c, 0, 75, 80
2, 442364, Note_off_c, 0, 70, 100
2, 442364, Note_off_c, 0, 75, 100
2, 442368, Note_on_c, 0, 74, 80
2, 442556, Note_off_c, 0, 74, 100
2, 442560, Note_on_c, 0, 72, 80
2, 442748, Note_off_c, 0, 72, 100
2, 442752, Note_on_c, 0, 72, 80
2, 442940, Note_off_c, 0, 72, 100
2, 442944, Note_on_c, 0, 68, 80
2, 443136, Note_on_c, 0, 80, 80
2, 443324, Note_off_c, 0, 80, 100
2, 443328, Note_on_c, 0, 80, 80
2, 443516, Note_off_c, 0, 68, 100
2, 443516, Note_off_c, 0, 80, 100
2, 443520, Note_on_c, 0, 70, 80
2, 443520, Note_on_c, 0, 80, 80
2, 443708, Note_off_c, 0, 80, 100
2, 443712, Note_on_c, 0, 79, 80
2, 443900, Note_off_c, 0, 79, 100
2, 443904, Note_on_c, 0, 79, 80
2, 444092, Note_off_c, 0, 70, 100
2, 444092, Note_off_c, 0, 79, 100
2, 444096, Note_on_c, 0, 72, 80
2, 444288, Note_on_c, 0, 77, 80
2, 444476, Note_off_c, 0, 77, 100
2, 444480, Note_on_c, 0, 77, 80
2, 444668, Note_off_c, 0, 72, 100
2, 444668, Note_off_c, 0, 77, 100
2, 444672, Note_on_c, 0, 75, 80
2, 444860, Note_off_c, 0, 75, 100
2, 444864, Note_on_c, 0, 74, 80
2, 445052, Note_off_c, 0, 74, 100
2, 445056, Note_on_c, 0, 74, 80
2, 445244, Note_off_c, 0, 74, 100
2, 445248, Note_on_c, 0, 74, 80
2, 445248, Note_on_c, 0, 82, 80
2, 445820, Note_off_c, 0, 74, 100
2, 445820, Note_off_c, 0, 82, 100
2, 445824, Note_on_c, 0, 75, 80
2, 445824, Note_on_c, 0, 84, 80
2, 446396, Note_off_c, 0, 75, 100
2, 446396, Note_off_c, 0, 84, 100
2, 446400, Note_on_c, 0, 77, 80
2, 446400, Note_on_c, 0, 86, 80
2, 446972, Note_off_c, 0, 77, 100
2, 446972, Note_off_c, 0, 86, 100
2, 446976, Note_on_c, 0, 79, 80
2, 446976, Note_on_c, 0, 87, 80
2, 447356, Note_off_c, 0, 79, 100
2, 447356, Note_off_c, 0, 87, 100
2, 447744, Note_on_c, 0, 87, 80
2, 447744, Note_on_c, 0, 75, 80
2, 447932, Note_off_c, 0, 87, 100
2, 447932, Note_off_c, 0, 75, 100
2, 447936, Note_on_c, 0, 87, 80
2, 447936, Note_on_c, 0, 75, 80
2, 448124, Note_off_c, 0, 87, 100
2, 448124, Note_off_c, 0, 75, 100
2, 448128, Note_on_c, 0, 87, 80
2, 448128, Note_on_c, 0, 75, 80
2, 448316, Note_off_c, 0, 87, 100
2, 448316, Note_off_c, 0, 75, 100
2, 448320, Note_on_c, 0, 86, 80
2, 448320, Note_on_c, 0, 74, 80
2, 448508, Note_off_c, 0, 86, 100
2, 448508, Note_off_c, 0, 74, 100
2, 448512, Note_on_c, 0, 86, 80
2, 448512, Note_on_c, 0, 74, 80
2, 448700, Note_off_c, 0, 86, 100
2, 448700, Note_off_c, 0, 74, 100
2, 448896, Note_on_c, 0, 84, 80
2, 448896, Note_on_c, 0, 72, 80
2, 449084, Note_off_c, 0, 84, 100
2, 449084, Note_off_c, 0, 72, 100
2, 449088, Note_on_c, 0, 84, 80
2, 449088, Note_on_c, 0, 72, 80
2, 449276, Note_off_c, 0, 84, 100
2, 449276, Note_off_c, 0, 72, 100
2, 449280, Note_on_c, 0, 84, 80
2, 449280, Note_on_c, 0, 72, 80
2, 449468, Note_off_c, 0, 84, 100
2, 449468, Note_off_c, 0, 72, 100
2, 449472, Note_on_c, 0, 82, 80
2, 449472, Note_on_c, 0, 70, 80
2, 449660, Note_off_c, 0, 82, 100
2, 449660, Note_off_c, 0, 70, 100
2, 449664, Note_on_c, 0, 82, 80
2, 449664, Note_on_c, 0, 70, 80
2, 449852, Note_off_c, 0, 82, 100
2, 449852, Note_off_c, 0, 70, 100
2, 450048, Note_on_c, 0, 80, 80
2, 450048, Note_on_c, 0, 68, 80
2, 450236, Note_off_c, 0, 80, 100
2, 450236, Note_off_c, 0, 68, 100
2, 450240, Note_on_c, 0, 80, 80
2, 450240, Note_on_c, 0, 68, 80
2, 450428, Note_off_c, 0, 80, 100
2, 450428, Note_off_c, 0, 68, 100
2, 450432, Note_on_c, 0, 80, 80
2, 450432, Note_on_c, 0, 68, 80
2, 450620, Note_off_c, 0, 80, 100
2, 450620, Note_off_c, 0, 68, 100
2, 450624, Note_on_c, 0, 79, 81
2, 450624, Note_on_c, 0, 67, 81
2, 450812, Note_off_c, 0, 79, 100
2, 450812, Note_off_c, 0, 67, 100
2, 450816, Note_on_c, 0, 79, 83
2, 450816, Note_on_c, 0, 67, 83
2, 451004, Note_off_c, 0, 79, 100
2, 451004, Note_off_c, 0, 67, 100
2, 451200, Note_on_c, 0, 77, 87
2, 451200, Note_on_c, 0, 65, 87
2, 451388, Note_off_c, 0, 77, 100
2, 451388, Note_off_c, 0, 65, 100
2, 451392, Note_on_c, 0, 77, 88
2, 451392, Note_on_c, 0, 65, 88
2, 451580, Note_off_c, 0, 77, 100
2, 451580, Note_off_c, 0, 65, 100
2, 451584, Note_on_c, 0, 77, 90
2, 451584, Note_on_c, 0, 65, 90
2, 451772, Note_off_c, 0, 77, 100
2, 451772, Note_off_c, 0, 65, 100
2, 451776, Note_on_c, 0, 75, 92
2, 451776, Note_on_c, 0, 63, 92
2, 451964, Note_off_c, 0, 75, 100
2, 451964, Note_off_c, 0, 63, 100
2, 451968, Note_on_c, 0, 75, 94
2, 451968, Note_on_c, 0, 63, 94
2, 452156, Note_off_c, 0, 75, 100
2, 452156, Note_off_c, 0, 63, 100
2, 452160, Note_on_c, 0, 75, 95
2, 452160, Note_on_c, 0, 63, 95
2, 452348, Note_off_c, 0, 75, 100
2, 452348, Note_off_c, 0, 63, 100
2, 452352, Note_on_c, 0, 74, 97
2, 452352, Note_on_c, 0, 62, 97
2, 452540, Note_off_c, 0, 74, 100
2, 452540, Note_off_c, 0, 62, 100
2, 452544, Note_on_c, 0, 74, 99
2, 452544, Note_on_c, 0, 62, 99
2, 452732, Note_off_c, 0, 74, 100
2, 452732, Note_off_c, 0, 62, 100
2, 452736, Note_on_c, 0, 74, 101
2, 452736, Note_on_c, 0, 62, 101
2, 452924, Note_off_c, 0, 74, 100
2, 452924, Note_off_c, 0, 62, 100
2, 452928, Note_on_c, 0, 72, 102
2, 452928, Note_on_c, 0, 60, 102
2, 453116, Note_off_c, 0, 72, 100
2, 453116, Note_off_c, 0, 60, 100
2, 453120, Note_on_c, 0, 72, 104
2, 453120, Note_on_c, 0, 60, 104
2, 453308, Note_off_c, 0, 72, 100
2, 453308, Note_off_c, 0, 60, 100
2, 453312, Note_on_c, 0, 72, 106
2, 453312, Note_on_c, 0, 60, 106
2, 453500, Note_off_c, 0, 72, 100
2, 453500, Note_off_c, 0, 60, 100
2, 453504, Note_on_c, 0, 70, 108
2, 453504, Note_on_c, 0, 58, 108
2, 453692, Note_off_c, 0, 70, 100
2, 453692, Note_off_c, 0, 58, 100
2, 453696, Note_on_c, 0, 70, 109
2, 453696, Note_on_c, 0, 58, 109
2, 453884, Note_off_c, 0, 70, 100
2, 453884, Note_off_c, 0, 58, 100
2, 453888, Note_on_c, 0, 70, 120
2, 453888, Note_on_c, 0, 58, 120
2, 454076, Note_off_c, 0, 70, 100
2, 454076, Note_off_c, 0, 58, 100
2, 454080, Note_on_c, 0, 68, 120
2, 454080, Note_on_c, 0, 65, 120
2, 454080, Note_on_c, 0, 62, 120
2, 454080, Note_on_c, 0, 56, 120
2, 454268, Note_off_c, 0, 68, 100
2, 454268, Note_off_c, 0, 65, 100
2, 454268, Note_off_c, 0, 62, 100
2, 454268, Note_off_c, 0, 56, 100
2, 454272, Note_on_c, 0, 68, 120
2, 454272, Note_on_c, 0, 65, 120
2, 454272, Note_on_c, 0, 62, 120
2, 454272, Note_on_c, 0, 56, 120
2, 454460, Note_off_c, 0, 68, 100
2, 454460, Note_off_c, 0, 65, 100
2, 454460, Note_off_c, 0, 62, 100
2, 454460, Note_off_c, 0, 56, 100
2, 454464, Note_on_c, 0, 68, 120
2, 454464, Note_on_c, 0, 65, 120
2, 454464, Note_on_c, 0, 62, 120
2, 454464, Note_on_c, 0, 56, 120
2, 454652, Note_off_c, 0, 68, 100
2, 454652, Note_off_c, 0, 65, 100
2, 454652, Note_off_c, 0, 62, 100
2, 454652, Note_off_c, 0, 56, 100
2, 454656, Note_on_c, 0, 68, 120
2, 454656, Note_on_c, 0, 65, 120
2, 454656, Note_on_c, 0, 62, 120
2, 454656, Note_on_c, 0, 56, 120
2, 454844, Note_off_c, 0, 68, 100
2, 454844, Note_off_c, 0, 65, 100
2, 454844, Note_off_c, 0, 62, 100
2, 454844, Note_off_c, 0, 56, 100
2, 454848, Note_on_c, 0, 68, 120
2, 454848, Note_on_c, 0, 65, 120
2, 454848, Note_on_c, 0, 62, 120
2, 454848, Note_on_c, 0, 56, 120
2, 455036, Note_off_c, 0, 68, 100
2, 455036, Note_off_c, 0, 65, 100
2, 455036, Note_off_c, 0, 62, 100
2, 455036, Note_off_c, 0, 56, 100
2, 455040, Note_on_c, 0, 68, 120
2, 455040, Note_on_c, 0, 65, 120
2, 455040, Note_on_c, 0, 62, 120
2, 455040, Note_on_c, 0, 56, 120
2, 455228, Note_off_c, 0, 68, 100
2, 455228, Note_off_c, 0, 65, 100
2, 455228, Note_off_c, 0, 62, 100
2, 455228, Note_off_c, 0, 56, 100
2, 455232, Note_on_c, 0, 68, 120
2, 455232, Note_on_c, 0, 65, 120
2, 455232, Note_on_c, 0, 62, 120
2, 455232, Note_on_c, 0, 56, 120
2, 455420, Note_off_c, 0, 68, 100
2, 455420, Note_off_c, 0, 65, 100
2, 455420, Note_off_c, 0, 62, 100
2, 455420, Note_off_c, 0, 56, 100
2, 455424, Note_on_c, 0, 68, 120
2, 455424, Note_on_c, 0, 65, 120
2, 455424, Note_on_c, 0, 62, 120
2, 455424, Note_on_c, 0, 56, 120
2, 455612, Note_off_c, 0, 68, 100
2, 455612, Note_off_c, 0, 65, 100
2, 455612, Note_off_c, 0, 62, 100
2, 455612, Note_off_c, 0, 56, 100
2, 455616, Note_on_c, 0, 68, 120
2, 455616, Note_on_c, 0, 65, 120
2, 455616, Note_on_c, 0, 62, 120
2, 455616, Note_on_c, 0, 56, 120
2, 455804, Note_off_c, 0, 68, 100
2, 455804, Note_off_c, 0, 65, 100
2, 455804, Note_off_c, 0, 62, 100
2, 455804, Note_off_c, 0, 56, 100
2, 455808, Note_on_c, 0, 68, 120
2, 455808, Note_on_c, 0, 65, 120
2, 455808, Note_on_c, 0, 62, 120
2, 455808, Note_on_c, 0, 56, 120
2, 455996, Note_off_c, 0, 68, 100
2, 455996, Note_off_c, 0, 65, 100
2, 455996, Note_off_c, 0, 62, 100
2, 455996, Note_off_c, 0, 56, 100
2, 456000, Note_on_c, 0, 68, 120
2, 456000, Note_on_c, 0, 65, 120
2, 456000, Note_on_c, 0, 62, 120
2, 456000, Note_on_c, 0, 56, 120
2, 456188, Note_off_c, 0, 68, 100
2, 456188, Note_off_c, 0, 65, 100
2, 456188, Note_off_c, 0, 62, 100
2, 456188, Note_off_c, 0, 56, 100
2, 456192, Note_on_c, 0, 69, 120
2, 456192, Note_on_c, 0, 65, 120
2, 456192, Note_on_c, 0, 60, 120
2, 456192, Note_on_c, 0, 57, 120
2, 456572, Note_off_c, 0, 69, 100
2, 456572, Note_off_c, 0, 65, 100
2, 456572, Note_off_c, 0, 60, 100
2, 456572, Note_off_c, 0, 57, 100
2, 456768, Note_on_c, 0, 65, 70
2, 456768, Note_on_c, 0, 60, 70
2, 457340, Note_off_c, 0, 65, 100
2, 457344, Note_on_c, 0, 64, 70
2, 457916, Note_off_c, 0, 64, 100
2, 457920, Note_on_c, 0, 70, 70
2, 458492, Note_off_c, 0, 70, 100
2, 458496, Note_on_c, 0, 69, 71
2, 459068, Note_off_c, 0, 60, 100
2, 459068, Note_off_c, 0, 69, 100
2, 459072, Note_on_c, 0, 65, 71
2, 459072, Note_on_c, 0, 60, 71
2, 459072, Note_on_c, 0, 72, 71
2, 459644, Note_off_c, 0, 65, 100
2, 459648, Note_on_c, 0, 64, 72
2, 460220, Note_off_c, 0, 64, 100
2, 460224, Note_on_c, 0, 70, 72
2, 460796, Note_off_c, 0, 70, 100
2, 460800, Note_on_c, 0, 69, 73
2, 461180, Note_off_c, 0, 69, 100
2, 461372, Note_off_c, 0, 60, 100
2, 461372, Note_off_c, 0, 72, 100
2, 461376, Note_on_c, 0, 83, 73
2, 461376, Note_on_c, 0, 71, 73
2, 461564, Note_off_c, 0, 83, 100
2, 461564, Note_off_c, 0, 71, 100
2, 461568, Note_on_c, 0, 84, 73
2, 461568, Note_on_c, 0, 72, 73
2, 461756, Note_off_c, 0, 84, 100
2, 461756, Note_off_c, 0, 72, 100
2, 461760, Note_on_c, 0, 86, 73
2, 461760, Note_on_c, 0, 74, 73
2, 461948, Note_off_c, 0, 86, 100
2, 461948, Note_off_c, 0, 74, 100
2, 461952, Note_on_c, 0, 84, 73
2, 461952, Note_on_c, 0, 72, 73
2, 462140, Note_off_c, 0, 84, 100
2, 462140, Note_off_c, 0, 72, 100
2, 462144, Note_on_c, 0, 82, 74
2, 462144, Note_on_c, 0, 70, 74
2, 462332, Note_off_c, 0, 82, 100
2, 462332, Note_off_c, 0, 70, 100
2, 462336, Note_on_c, 0, 81, 74
2, 462336, Note_on_c, 0, 69, 74
2, 462524, Note_off_c, 0, 81, 100
2, 462524, Note_off_c, 0, 69, 100
2, 462528, Note_on_c, 0, 79, 74
2, 462528, Note_on_c, 0, 67, 74
2, 462716, Note_off_c, 0, 79, 100
2, 462716, Note_off_c, 0, 67, 100
2, 462720, Note_on_c, 0, 77, 74
2, 462720, Note_on_c, 0, 65, 74
2, 462908, Note_off_c, 0, 77, 100
2, 462908, Note_off_c, 0, 65, 100
2, 462912, Note_on_c, 0, 76, 74
2, 462912, Note_on_c, 0, 64, 74
2, 463100, Note_off_c, 0, 76, 100
2, 463100, Note_off_c, 0, 64, 100
2, 463104, Note_on_c, 0, 77, 74
2, 463104, Note_on_c, 0, 65, 74
2, 463292, Note_off_c, 0, 77, 100
2, 463292, Note_off_c, 0, 65, 100
2, 463296, Note_on_c, 0, 79, 74
2, 463296, Note_on_c, 0, 67, 74
2, 463484, Note_off_c, 0, 79, 100
2, 463484, Note_off_c, 0, 67, 100
2, 463488, Note_on_c, 0, 81, 75
2, 463488, Note_on_c, 0, 69, 75
2, 463676, Note_off_c, 0, 81, 100
2, 463676, Note_off_c, 0, 69, 100
2, 463680, Note_on_c, 0, 83, 75
2, 463680, Note_on_c, 0, 71, 75
2, 463868, Note_off_c, 0, 83, 100
2, 463868, Note_off_c, 0, 71, 100
2, 463872, Note_on_c, 0, 84, 75
2, 463872, Note_on_c, 0, 72, 75
2, 464060, Note_off_c, 0, 84, 100
2, 464060, Note_off_c, 0, 72, 100
2, 464064, Note_on_c, 0, 86, 75
2, 464064, Note_on_c, 0, 74, 75
2, 464252, Note_off_c, 0, 86, 100
2, 464252, Note_off_c, 0, 74, 100
2, 464256, Note_on_c, 0, 84, 75
2, 464256, Note_on_c, 0, 72, 75
2, 464444, Note_off_c, 0, 84, 100
2, 464444, Note_off_c, 0, 72, 100
2, 464448, Note_on_c, 0, 82, 75
2, 464448, Note_on_c, 0, 70, 75
2, 464636, Note_off_c, 0, 82, 100
2, 464636, Note_off_c, 0, 70, 100
2, 464640, Note_on_c, 0, 81, 76
2, 464640, Note_on_c, 0, 69, 76
2, 464828, Note_off_c, 0, 81, 100
2, 464828, Note_off_c, 0, 69, 100
2, 464832, Note_on_c, 0, 79, 76
2, 464832, Note_on_c, 0, 67, 76
2, 465020, Note_off_c, 0, 79, 100
2, 465020, Note_off_c, 0, 67, 100
2, 465024, Note_on_c, 0, 77, 76
2, 465024, Note_on_c, 0, 65, 76
2, 465212, Note_off_c, 0, 77, 100
2, 465212, Note_off_c, 0, 65, 100
2, 465216, Note_on_c, 0, 76, 76
2, 465216, Note_on_c, 0, 64, 76
2, 465404, Note_off_c, 0, 76, 100
2, 465404, Note_off_c, 0, 64, 100
2, 465408, Note_on_c, 0, 77, 76
2, 465408, Note_on_c, 0, 65, 76
2, 466172, Note_off_c, 0, 77, 100
2, 466172, Note_off_c, 0, 65, 100
2, 466176, Note_on_c, 0, 79, 77
2, 466176, Note_on_c, 0, 67, 77
2, 466364, Note_off_c, 0, 79, 100
2, 466364, Note_off_c, 0, 67, 100
2, 466368, Note_on_c, 0, 81, 77
2, 466368, Note_on_c, 0, 69, 77
2, 466556, Note_off_c, 0, 81, 100
2, 466556, Note_off_c, 0, 69, 100
2, 466560, Note_on_c, 0, 82, 77
2, 466560, Note_on_c, 0, 70, 77
2, 466940, Note_off_c, 0, 82, 100
2, 466940, Note_off_c, 0, 70, 100
2, 466944, Note_on_c, 0, 80, 77
2, 466944, Note_on_c, 0, 68, 77
2, 467132, Note_off_c, 0, 80, 100
2, 467132, Note_off_c, 0, 68, 100
2, 467136, Note_on_c, 0, 79, 77
2, 467136, Note_on_c, 0, 67, 77
2, 467516, Note_off_c, 0, 79, 100
2, 467516, Note_off_c, 0, 67, 100
2, 467520, Note_on_c, 0, 80, 78
2, 467520, Note_on_c, 0, 68, 78
2, 467708, Note_off_c, 0, 80, 100
2, 467708, Note_off_c, 0, 68, 100
2, 467712, Note_on_c, 0, 79, 78
2, 467712, Note_on_c, 0, 67, 78
2, 468092, Note_off_c, 0, 79, 100
2, 468092, Note_off_c, 0, 67, 100
2, 468096, Note_on_c, 0, 77, 78
2, 468096, Note_on_c, 0, 65, 78
2, 468284, Note_off_c, 0, 77, 100
2, 468284, Note_off_c, 0, 65, 100
2, 468288, Note_on_c, 0, 75, 78
2, 468288, Note_on_c, 0, 63, 78
2, 468668, Note_off_c, 0, 75, 100
2, 468668, Note_off_c, 0, 63, 100
2, 468672, Note_on_c, 0, 79, 79
2, 468672, Note_on_c, 0, 67, 79
2, 468860, Note_off_c, 0, 79, 100
2, 468860, Note_off_c, 0, 67, 100
2, 468864, Note_on_c, 0, 77, 79
2, 468864, Note_on_c, 0, 65, 79
2, 469244, Note_off_c, 0, 77, 100
2, 469244, Note_off_c, 0, 65, 100
2, 469248, Note_on_c, 0, 75, 79
2, 469248, Note_on_c, 0, 63, 79
2, 469436, Note_off_c, 0, 75, 100
2, 469436, Note_off_c, 0, 63, 100
2, 469440, Note_on_c, 0, 74, 79
2, 469440, Note_on_c, 0, 62, 79
2, 469820, Note_off_c, 0, 74, 100
2, 469820, Note_off_c, 0, 62, 100
2, 469824, Note_on_c, 0, 77, 79
2, 469824, Note_on_c, 0, 65, 79
2, 470012, Note_off_c, 0, 77, 100
2, 470012, Note_off_c, 0, 65, 100
2, 470016, Note_on_c, 0, 75, 110
2, 470016, Note_on_c, 0, 63, 110
2, 470204, Note_off_c, 0, 75, 100
2, 470204, Note_off_c, 0, 63, 100
2, 470208, Note_on_c, 0, 75, 100
2, 470396, Note_off_c, 0, 75, 100
2, 470400, Note_on_c, 0, 75, 100
2, 470588, Note_off_c, 0, 75, 100
2, 470592, Note_on_c, 0, 75, 100
2, 470780, Note_off_c, 0, 75, 100
2, 470784, Note_on_c, 0, 74, 100
2, 470972, Note_off_c, 0, 74, 100
2, 470976, Note_on_c, 0, 75, 100
2, 471164, Note_off_c, 0, 75, 100
2, 471168, Note_on_c, 0, 79, 110
2, 471168, Note_on_c, 0, 67, 110
2, 471356, Note_off_c, 0, 79, 100
2, 471356, Note_off_c, 0, 67, 100
2, 471360, Note_on_c, 0, 79, 100
2, 471548, Note_off_c, 0, 79, 100
2, 471552, Note_on_c, 0, 79, 100
2, 471740, Note_off_c, 0, 79, 100
2, 471744, Note_on_c, 0, 79, 100
2, 471932, Note_off_c, 0, 79, 100
2, 471936, Note_on_c, 0, 78, 100
2, 472124, Note_off_c, 0, 78, 100
2, 472128, Note_on_c, 0, 79, 100
2, 472316, Note_off_c, 0, 79, 100
2, 472320, Note_on_c, 0, 70, 110
2, 472320, Note_on_c, 0, 82, 110
2, 472508, Note_off_c, 0, 70, 100
2, 472508, Note_off_c, 0, 82, 100
2, 472512, Note_on_c, 0, 82, 100
2, 472700, Note_off_c, 0, 82, 100
2, 472704, Note_on_c, 0, 82, 100
2, 472892, Note_off_c, 0, 82, 100
2, 472896, Note_on_c, 0, 82, 100
2, 473084, Note_off_c, 0, 82, 100
2, 473088, Note_on_c, 0, 81, 100
2, 473276, Note_off_c, 0, 81, 100
2, 473280, Note_on_c, 0, 82, 100
2, 473468, Note_off_c, 0, 82, 100
2, 473472, Note_on_c, 0, 87, 110
2, 473472, Note_on_c, 0, 75, 110
2, 473660, Note_off_c, 0, 87, 100
2, 473660, Note_off_c, 0, 75, 100
2, 473664, Note_on_c, 0, 87, 100
2, 473852, Note_off_c, 0, 87, 100
2, 473856, Note_on_c, 0, 87, 100
2, 474044, Note_off_c, 0, 87, 100
2, 474048, Note_on_c, 0, 87, 100
2, 474236, Note_off_c, 0, 87, 100
2, 474240, Note_on_c, 0, 86, 100
2, 474428, Note_off_c, 0, 86, 100
2, 474432, Note_on_c, 0, 87, 100
2, 474620, Note_off_c, 0, 87, 100
2, 474624, Note_on_c, 0, 63, 110
2, 474716, Note_off_c, 0, 63, 100
2, 474720, Note_on_c, 0, 65, 110
2, 474812, Note_off_c, 0, 65, 100
2, 474816, Note_on_c, 0, 63, 111
2, 474908, Note_off_c, 0, 63, 100
2, 474912, Note_on_c, 0, 62, 112
2, 475004, Note_off_c, 0, 62, 100
2, 475008, Note_on_c, 0, 63, 113
2, 475100, Note_off_c, 0, 63, 100
2, 475104, Note_on_c, 0, 62, 114
2, 475196, Note_off_c, 0, 62, 100
2, 475200, Note_on_c, 0, 63, 115
2, 475292, Note_off_c, 0, 63, 100
2, 475296, Note_on_c, 0, 64, 115
2, 475388, Note_off_c, 0, 64, 100
2, 475392, Note_on_c, 0, 65, 116
2, 475484, Note_off_c, 0, 65, 100
2, 475488, Note_on_c, 0, 66, 117
2, 475580, Note_off_c, 0, 66, 100
2, 475584, Note_on_c, 0, 67, 118
2, 475676, Note_off_c, 0, 67, 100
2, 475680, Note_on_c, 0, 68, 119
2, 475772, Note_off_c, 0, 68, 100
2, 475776, Note_on_c, 0, 69, 120
2, 475852, Note_off_c, 0, 69, 100
2, 475856, Note_on_c, 0, 70, 120
2, 475932, Note_off_c, 0, 70, 100
2, 475936, Note_on_c, 0, 71, 120
2, 476012, Note_off_c, 0, 71, 100
2, 476016, Note_on_c, 0, 72, 120
2, 476092, Note_off_c, 0, 72, 100
2, 476096, Note_on_c, 0, 73, 120
2, 476172, Note_off_c, 0, 73, 100
2, 476176, Note_on_c, 0, 74, 120
2, 476252, Note_off_c, 0, 74, 100
2, 476256, Note_on_c, 0, 75, 120
2, 476348, Note_off_c, 0, 75, 100
2, 476352, Note_on_c, 0, 76, 120
2, 476444, Note_off_c, 0, 76, 100
2, 476448, Note_on_c, 0, 77, 120
2, 476540, Note_off_c, 0, 77, 100
2, 476544, Note_on_c, 0, 78, 120
2, 476636, Note_off_c, 0, 78, 100
2, 476640, Note_on_c, 0, 79, 120
2, 476732, Note_off_c, 0, 79, 100
2, 476736, Note_on_c, 0, 80, 120
2, 476828, Note_off_c, 0, 80, 100
2, 476832, Note_on_c, 0, 81, 120
2, 476924, Note_off_c, 0, 81, 100
2, 476928, Note_on_c, 0, 82, 120
2, 477308, Note_off_c, 0, 82, 100
2, 477504, Note_on_c, 0, 79, 120
2, 477504, Note_on_c, 0, 75, 120
2, 477504, Note_on_c, 0, 67, 120
2, 477884, Note_off_c, 0, 79, 100
2, 477884, Note_off_c, 0, 75, 100
2, 477884, Note_off_c, 0, 67, 100
2, 478080, Note_on_c, 0, 80, 120
2, 478080, Note_on_c, 0, 77, 120
2, 478080, Note_on_c, 0, 68, 120
2, 478460, Note_off_c, 0, 80, 100
2, 478460, Note_off_c, 0, 77, 100
2, 478460, Note_off_c, 0, 68, 100
2, 478656, Note_on_c, 0, 68, 120
2, 478656, Note_on_c, 0, 65, 120
2, 478656, Note_on_c, 0, 74, 120
2, 479036, Note_off_c, 0, 68, 100
2, 479036, Note_off_c, 0, 65, 100
2, 479036, Note_off_c, 0, 74, 100
2, 479232, Note_on_c, 0, 51, 120
2, 479324, Note_off_c, 0, 51, 100
2, 479328, Note_on_c, 0, 63, 120
2, 479420, Note_off_c, 0, 63, 100
2, 479424, Note_on_c, 0, 51, 120
2, 479516, Note_off_c, 0, 51, 100
2, 479520, Note_on_c, 0, 63, 120
2, 479612, Note_off_c, 0, 63, 100
2, 479616, Note_on_c, 0, 51, 120
2, 479708, Note_off_c, 0, 51, 100
2, 479712, Note_on_c, 0, 63, 120
2, 479804, Note_off_c, 0, 63, 100
2, 479808, Note_on_c, 0, 51, 120
2, 479900, Note_off_c, 0, 51, 100
2, 479904, Note_on_c, 0, 63, 120
2, 479996, Note_off_c, 0, 63, 100
2, 480000, Note_on_c, 0, 50, 120
2, 480092, Note_off_c, 0, 50, 100
2, 480096, Note_on_c, 0, 62, 120
2, 480188, Note_off_c, 0, 62, 100
2, 480192, Note_on_c, 0, 51, 120
2, 480284, Note_off_c, 0, 51, 100
2, 480288, Note_on_c, 0, 63, 120
2, 480380, Note_off_c, 0, 63, 100
2, 480384, Note_on_c, 0, 55, 120
2, 480476, Note_off_c, 0, 55, 100
2, 480480, Note_on_c, 0, 67, 120
2, 480572, Note_off_c, 0, 67, 100
2, 480576, Note_on_c, 0, 55, 120
2, 480668, Note_off_c, 0, 55, 100
2, 480672, Note_on_c, 0, 67, 120
2, 480764, Note_off_c, 0, 67, 100
2, 480768, Note_on_c, 0, 55, 120
2, 480860, Note_off_c, 0, 55, 100
2, 480864, Note_on_c, 0, 67, 120
2, 480956, Note_off_c, 0, 67, 100
2, 480960, Note_on_c, 0, 55, 120
2, 481052, Note_off_c, 0, 55, 100
2, 481056, Note_on_c, 0, 67, 120
2, 481148, Note_off_c, 0, 67, 100
2, 481152, Note_on_c, 0, 54, 120
2, 481244, Note_off_c, 0, 54, 100
2, 481248, Note_on_c, 0, 66, 120
2, 481340, Note_off_c, 0, 66, 100
2, 481344, Note_on_c, 0, 55, 120
2, 481436, Note_off_c, 0, 55, 100
2, 481440, Note_on_c, 0, 67, 120
2, 481532, Note_off_c, 0, 67, 100
2, 481536, Note_on_c, 0, 58, 120
2, 481628, Note_off_c, 0, 58, 100
2, 481632, Note_on_c, 0, 70, 120
2, 481724, Note_off_c, 0, 70, 100
2, 481728, Note_on_c, 0, 58, 120
2, 481820, Note_off_c, 0, 58, 100
2, 481824, Note_on_c, 0, 70, 120
2, 481916, Note_off_c, 0, 70, 100
2, 481920, Note_on_c, 0, 58, 120
2, 482012, Note_off_c, 0, 58, 100
2, 482016, Note_on_c, 0, 70, 120
2, 482108, Note_off_c, 0, 70, 100
2, 482112, Note_on_c, 0, 58, 120
2, 482204, Note_off_c, 0, 58, 100
2, 482208, Note_on_c, 0, 70, 120
2, 482300, Note_off_c, 0, 70, 100
2, 482304, Note_on_c, 0, 57, 120
2, 482396, Note_off_c, 0, 57, 100
2, 482400, Note_on_c, 0, 69, 120
2, 482492, Note_off_c, 0, 69, 100
2, 482496, Note_on_c, 0, 58, 120
2, 482588, Note_off_c, 0, 58, 100
2, 482592, Note_on_c, 0, 70, 120
2, 482684, Note_off_c, 0, 70, 100
2, 482688, Note_on_c, 0, 63, 120
2, 482780, Note_off_c, 0, 63, 100
2, 482784, Note_on_c, 0, 75, 120
2, 482876, Note_off_c, 0, 75, 100
2, 482880, Note_on_c, 0, 63, 120
2, 482972, Note_off_c, 0, 63, 100
2, 482976, Note_on_c, 0, 75, 120
2, 483068, Note_off_c, 0, 75, 100
2, 483072, Note_on_c, 0, 63, 120
2, 483164, Note_off_c, 0, 63, 100
2, 483168, Note_on_c, 0, 75, 120
2, 483260, Note_off_c, 0, 75, 100
2, 483264, Note_on_c, 0, 63, 120
2, 483356, Note_off_c, 0, 63, 100
2, 483360, Note_on_c, 0, 75, 120
2, 483452, Note_off_c, 0, 75, 100
2, 483456, Note_on_c, 0, 62, 120
2, 483548, Note_off_c, 0, 62, 100
2, 483552, Note_on_c, 0, 74, 120
2, 483644, Note_off_c, 0, 74, 100
2, 483648, Note_on_c, 0, 63, 120
2, 483740, Note_off_c, 0, 63, 100
2, 483744, Note_on_c, 0, 75, 120
2, 483836, Note_off_c, 0, 75, 100
2, 483840, Note_on_c, 0, 51, 100
2, 483932, Note_off_c, 0, 51, 100
2, 483936, Note_on_c, 0, 53, 100
2, 484028, Note_off_c, 0, 53, 100
2, 484032, Note_on_c, 0, 51, 101
2, 484124, Note_off_c, 0, 51, 100
2, 484128, Note_on_c, 0, 50, 101
2, 484220, Note_off_c, 0, 50, 100
2, 484224, Note_on_c, 0, 51, 102
2, 484316, Note_off_c, 0, 51, 100
2, 484320, Note_on_c, 0, 50, 102
2, 484412, Note_off_c, 0, 50, 100
2, 484416, Note_on_c, 0, 51, 103
2, 484508, Note_off_c, 0, 51, 100
2, 484512, Note_on_c, 0, 52, 103
2, 484604, Note_off_c, 0, 52, 100
2, 484608, Note_on_c, 0, 53, 104
2, 484700, Note_off_c, 0, 53, 100
2, 484704, Note_on_c, 0, 54, 105
2, 484796, Note_off_c, 0, 54, 100
2, 484800, Note_on_c, 0, 55, 105
2, 484892, Note_off_c, 0, 55, 100
2, 484896, Note_on_c, 0, 56, 106
2, 484988, Note_off_c, 0, 56, 100
2, 484992, Note_on_c, 0, 57, 106
2, 485084, Note_off_c, 0, 57, 100
2, 485088, Note_on_c, 0, 58, 107
2, 485180, Note_off_c, 0, 58, 100
2, 485184, Note_on_c, 0, 59, 107
2, 485276, Note_off_c, 0, 59, 100
2, 485280, Note_on_c, 0, 60, 108
2, 485372, Note_off_c, 0, 60, 100
2, 485376, Note_on_c, 0, 61, 108
2, 485468, Note_off_c, 0, 61, 100
2, 485472, Note_on_c, 0, 62, 109
2, 485564, Note_off_c, 0, 62, 100
2, 485568, Note_on_c, 0, 63, 110
2, 485660, Note_off_c, 0, 63, 100
2, 485664, Note_on_c, 0, 64, 110
2, 485756, Note_off_c, 0, 64, 100
2, 485760, Note_on_c, 0, 65, 111
2, 485852, Note_off_c, 0, 65, 100
2, 485856, Note_on_c, 0, 66, 111
2, 485948, Note_off_c, 0, 66, 100
2, 485952, Note_on_c, 0, 67, 112
2, 486044, Note_off_c, 0, 67, 100
2, 486048, Note_on_c, 0, 68, 112
2, 486140, Note_off_c, 0, 68, 100
2, 486144, Note_on_c, 0, 69, 113
2, 486236, Note_off_c, 0, 69, 100
2, 486240, Note_on_c, 0, 70, 113
2, 486332, Note_off_c, 0, 70, 100
2, 486336, Note_on_c, 0, 71, 114
2, 486428, Note_off_c, 0, 71, 100
2, 486432, Note_on_c, 0, 72, 115
2, 486524, Note_off_c, 0, 72, 100
2, 486528, Note_on_c, 0, 73, 115
2, 486620, Note_off_c, 0, 73, 100
2, 486624, Note_on_c, 0, 74, 116
2, 486716, Note_off_c, 0, 74, 100
2, 486720, Note_on_c, 0, 75, 116
2, 486812, Note_off_c, 0, 75, 100
2, 486816, Note_on_c, 0, 76, 117
2, 486908, Note_off_c, 0, 76, 100
2, 486912, Note_on_c, 0, 77, 117
2, 487004, Note_off_c, 0, 77, 100
2, 487008, Note_on_c, 0, 78, 118
2, 487100, Note_off_c, 0, 78, 100
2, 487104, Note_on_c, 0, 77, 118
2, 487196, Note_off_c, 0, 77, 100
2, 487200, Note_on_c, 0, 78, 119
2, 487292, Note_off_c, 0, 78, 100
2, 487296, Note_on_c, 0, 77, 120
2, 487388, Note_off_c, 0, 77, 100
2, 487392, Note_on_c, 0, 78, 120
2, 487484, Note_off_c, 0, 78, 100
2, 487488, Note_on_c, 0, 77, 120
2, 487580, Note_off_c, 0, 77, 100
2, 487584, Note_on_c, 0, 78, 120
2, 487676, Note_off_c, 0, 78, 100
2, 487680, Note_on_c, 0, 77, 120
2, 487772, Note_off_c, 0, 77, 100
2, 487776, Note_on_c, 0, 78, 120
2, 487868, Note_off_c, 0, 78, 100
2, 487872, Note_on_c, 0, 77, 120
2, 487964, Note_off_c, 0, 77, 100
2, 487968, Note_on_c, 0, 78, 120
2, 488060, Note_off_c, 0, 78, 100
2, 488064, Note_on_c, 0, 77, 120
2, 488156, Note_off_c, 0, 77, 100
2, 488160, Note_on_c, 0, 78, 120
2, 488252, Note_off_c, 0, 78, 100
2, 488256, Note_on_c, 0, 77, 120
2, 488348, Note_off_c, 0, 77, 100
2, 488352, Note_on_c, 0, 78, 120
2, 488444, Note_off_c, 0, 78, 100
2, 488448, Note_on_c, 0, 79, 120
2, 488496, Note_on_c, 0, 80, 120
2, 488540, Note_off_c, 0, 79, 100
2, 488544, Note_on_c, 0, 79, 120
2, 488588, Note_off_c, 0, 80, 100
2, 488636, Note_off_c, 0, 79, 100
2, 488640, Note_on_c, 0, 77, 120
2, 488828, Note_off_c, 0, 77, 100
2, 488832, Note_on_c, 0, 75, 120
2, 489020, Note_off_c, 0, 75, 100
2, 489024, Note_on_c, 0, 75, 120
2, 489072, Note_on_c, 0, 77, 120
2, 489116, Note_off_c, 0, 75, 100
2, 489120, Note_on_c, 0, 75, 120
2, 489164, Note_off_c, 0, 77, 100
2, 489212, Note_off_c, 0, 75, 100
2, 489216, Note_on_c, 0, 74, 120
2, 489404, Note_off_c, 0, 74, 100
2, 489408, Note_on_c, 0, 72, 120
2, 489596, Note_off_c, 0, 72, 100
2, 489600, Note_on_c, 0, 70, 120
2, 489648, Note_on_c, 0, 72, 120
2, 489692, Note_off_c, 0, 70, 100
2, 489696, Note_on_c, 0, 70, 120
2, 489740, Note_off_c, 0, 72, 100
2, 489788, Note_off_c, 0, 70, 100
2, 489792, Note_on_c, 0, 68, 120
2, 489980, Note_off_c, 0, 68, 100
2, 489984, Note_on_c, 0, 67, 120
2, 490172, Note_off_c, 0, 67, 100
2, 490176, Note_on_c, 0, 65, 120
2, 490364, Note_off_c, 0, 65, 100
2, 490368, Note_on_c, 0, 68, 120
2, 490556, Note_off_c, 0, 68, 100
2, 490560, Note_on_c, 0, 62, 120
2, 490748, Note_off_c, 0, 62, 100
2, 490752, Note_on_c, 0, 63, 120
2, 490940, Note_off_c, 0, 63, 100
2, 490944, Note_on_c, 0, 87, 100
2, 491040, Note_on_c, 0, 79, 100
2, 491132, Note_off_c, 0, 87, 100
2, 491136, Note_on_c, 0, 87, 100
2, 491228, Note_off_c, 0, 79, 100
2, 491232, Note_on_c, 0, 79, 100
2, 491324, Note_off_c, 0, 87, 100
2, 491328, Note_on_c, 0, 75, 100
2, 491420, Note_off_c, 0, 79, 100
2, 491424, Note_on_c, 0, 79, 100
2, 491516, Note_off_c, 0, 75, 100
2, 491520, Note_on_c, 0, 87, 100
2, 491612, Note_off_c, 0, 79, 100
2, 491616, Note_on_c, 0, 79, 100
2, 491708, Note_off_c, 0, 87, 100
2, 491712, Note_on_c, 0, 87, 100
2, 491804, Note_off_c, 0, 79, 100
2, 491808, Note_on_c, 0, 79, 100
2, 491900, Note_off_c, 0, 87, 100
2, 491904, Note_on_c, 0, 76, 100
2, 491996, Note_off_c, 0, 79, 100
2, 492000, Note_on_c, 0, 79, 100
2, 492092, Note_off_c, 0, 76, 100
2, 492096, Note_on_c, 0, 85, 100
2, 492188, Note_off_c, 0, 79, 100
2, 492192, Note_on_c, 0, 79, 100
2, 492284, Note_off_c, 0, 85, 100
2, 492288, Note_on_c, 0, 85, 100
2, 492380, Note_off_c, 0, 79, 100
2, 492384, Note_on_c, 0, 79, 100
2, 492476, Note_off_c, 0, 85, 100
2, 492480, Note_on_c, 0, 75, 100
2, 492572, Note_off_c, 0, 79, 100
2, 492576, Note_on_c, 0, 79, 100
2, 492668, Note_off_c, 0, 75, 100
2, 492672, Note_on_c, 0, 87, 100
2, 492764, Note_off_c, 0, 79, 100
2, 492768, Note_on_c, 0, 79, 100
2, 492860, Note_off_c, 0, 87, 100
2, 492864, Note_on_c, 0, 87, 100
2, 492956, Note_off_c, 0, 79, 100
2, 492960, Note_on_c, 0, 79, 100
2, 493052, Note_off_c, 0, 87, 100
2, 493056, Note_on_c, 0, 73, 100
2, 493148, Note_off_c, 0, 79, 100
2, 493152, Note_on_c, 0, 79, 100
2, 493244, Note_off_c, 0, 73, 100
2, 493248, Note_on_c, 0, 88, 100
2, 493340, Note_off_c, 0, 79, 100
2, 493344, Note_on_c, 0, 79, 100
2, 493436, Note_off_c, 0, 88, 100
2, 493440, Note_on_c, 0, 88, 100
2, 493532, Note_off_c, 0, 79, 100
2, 493536, Note_on_c, 0, 79, 100
2, 493628, Note_off_c, 0, 88, 100
2, 493632, Note_on_c, 0, 75, 100
2, 493724, Note_off_c, 0, 79, 100
2, 493728, Note_on_c, 0, 79, 100
2, 493820, Note_off_c, 0, 75, 100
2, 493824, Note_on_c, 0, 87, 100
2, 493916, Note_off_c, 0, 79, 100
2, 493920, Note_on_c, 0, 79, 100
2, 494012, Note_off_c, 0, 87, 100
2, 494016, Note_on_c, 0, 87, 100
2, 494108, Note_off_c, 0, 79, 100
2, 494112, Note_on_c, 0, 79, 100
2, 494204, Note_off_c, 0, 87, 100
2, 494208, Note_on_c, 0, 76, 100
2, 494300, Note_off_c, 0, 79, 100
2, 494304, Note_on_c, 0, 79, 100
2, 494396, Note_off_c, 0, 76, 100
2, 494400, Note_on_c, 0, 85, 100
2, 494492, Note_off_c, 0, 79, 100
2, 494496, Note_on_c, 0, 79, 100
2, 494588, Note_off_c, 0, 85, 100
2, 494592, Note_on_c, 0, 85, 100
2, 494684, Note_off_c, 0, 79, 100
2, 494688, Note_on_c, 0, 79, 100
2, 494780, Note_off_c, 0, 85, 100
2, 494784, Note_on_c, 0, 73, 100
2, 494876, Note_off_c, 0, 79, 100
2, 494880, Note_on_c, 0, 79, 100
2, 494972, Note_off_c, 0, 73, 100
2, 494976, Note_on_c, 0, 88, 100
2, 495068, Note_off_c, 0, 79, 100
2, 495072, Note_on_c, 0, 79, 100
2, 495164, Note_off_c, 0, 88, 100
2, 495168, Note_on_c, 0, 88, 100
2, 495260, Note_off_c, 0, 79, 100
2, 495264, Note_on_c, 0, 79, 100
2, 495356, Note_off_c, 0, 88, 100
2, 495360, Note_on_c, 0, 72, 100
2, 495452, Note_off_c, 0, 79, 100
2, 495456, Note_on_c, 0, 80, 100
2, 495548, Note_off_c, 0, 72, 100
2, 495552, Note_on_c, 0, 87, 100
2, 495644, Note_off_c, 0, 80, 100
2, 495648, Note_on_c, 0, 80, 100
2, 495740, Note_off_c, 0, 87, 100
2, 495744, Note_on_c, 0, 87, 100
2, 495836, Note_off_c, 0, 80, 100
2, 495840, Note_on_c, 0, 80, 100
2, 495932, Note_off_c, 0, 87, 100
2, 495936, Note_on_c, 0, 73, 100
2, 496028, Note_off_c, 0, 80, 100
2, 496032, Note_on_c, 0, 80, 100
2, 496124, Note_off_c, 0, 73, 100
2, 496128, Note_on_c, 0, 85, 100
2, 496220, Note_off_c, 0, 80, 100
2, 496224, Note_on_c, 0, 80, 100
2, 496316, Note_off_c, 0, 85, 100
2, 496320, Note_on_c, 0, 85, 100
2, 496412, Note_off_c, 0, 80, 100
2, 496416, Note_on_c, 0, 80, 100
2, 496508, Note_off_c, 0, 85, 100
2, 496512, Note_on_c, 0, 75, 100
2, 496604, Note_off_c, 0, 80, 100
2, 496608, Note_on_c, 0, 80, 100
2, 496700, Note_off_c, 0, 75, 100
2, 496704, Note_on_c, 0, 84, 100
2, 496796, Note_off_c, 0, 80, 100
2, 496800, Note_on_c, 0, 80, 100
2, 496892, Note_off_c, 0, 84, 100
2, 496896, Note_on_c, 0, 84, 100
2, 496988, Note_off_c, 0, 80, 100
2, 496992, Note_on_c, 0, 80, 100
2, 497084, Note_off_c, 0, 84, 100
2, 497088, Note_on_c, 0, 75, 100
2, 497180, Note_off_c, 0, 80, 100
2, 497184, Note_on_c, 0, 80, 100
2, 497276, Note_off_c, 0, 75, 100
2, 497280, Note_on_c, 0, 83, 100
2, 497372, Note_off_c, 0, 80, 100
2, 497376, Note_on_c, 0, 80, 100
2, 497468, Note_off_c, 0, 83, 100
2, 497472, Note_on_c, 0, 83, 100
2, 497564, Note_off_c, 0, 80, 100
2, 497568, Note_on_c, 0, 80, 100
2, 497660, Note_off_c, 0, 83, 100
2, 497664, Note_on_c, 0, 74, 100
2, 497756, Note_off_c, 0, 80, 100
2, 497760, Note_on_c, 0, 80, 100
2, 497852, Note_off_c, 0, 74, 100
2, 497856, Note_on_c, 0, 83, 100
2, 497948, Note_off_c, 0, 80, 100
2, 497952, Note_on_c, 0, 80, 100
2, 498044, Note_off_c, 0, 83, 100
2, 498048, Note_on_c, 0, 83, 100
2, 498140, Note_off_c, 0, 80, 100
2, 498144, Note_on_c, 0, 80, 100
2, 498236, Note_off_c, 0, 83, 100
2, 498240, Note_on_c, 0, 74, 100
2, 498332, Note_off_c, 0, 80, 100
2, 498336, Note_on_c, 0, 80, 100
2, 498428, Note_off_c, 0, 74, 100
2, 498432, Note_on_c, 0, 82, 100
2, 498524, Note_off_c, 0, 80, 100
2, 498528, Note_on_c, 0, 80, 100
2, 498620, Note_off_c, 0, 82, 100
2, 498624, Note_on_c, 0, 82, 100
2, 498716, Note_off_c, 0, 80, 100
2, 498720, Note_on_c, 0, 80, 100
2, 498812, Note_off_c, 0, 82, 100
2, 498816, Note_on_c, 0, 74, 100
2, 498908, Note_off_c, 0, 80, 100
2, 498912, Note_on_c, 0, 80, 100
2, 499004, Note_off_c, 0, 74, 100
2, 499008, Note_on_c, 0, 82, 100
2, 499100, Note_off_c, 0, 80, 100
2, 499104, Note_on_c, 0, 80, 100
2, 499196, Note_off_c, 0, 82, 100
2, 499200, Note_on_c, 0, 82, 100
2, 499292, Note_off_c, 0, 80, 100
2, 499296, Note_on_c, 0, 80, 100
2, 499388, Note_off_c, 0, 82, 100
2, 499392, Note_on_c, 0, 74, 100
2, 499484, Note_off_c, 0, 80, 100
2, 499488, Note_on_c, 0, 80, 100
2, 499580, Note_off_c, 0, 74, 100
2, 499584, Note_on_c, 0, 82, 100
2, 499676, Note_off_c, 0, 80, 100
2, 499680, Note_on_c, 0, 80, 100
2, 499772, Note_off_c, 0, 82, 100
2, 499776, Note_on_c, 0, 82, 100
2, 499868, Note_off_c, 0, 80, 100
2, 499872, Note_on_c, 0, 80, 100
2, 499964, Note_off_c, 0, 82, 100
2, 499968, Note_on_c, 0, 75, 100
2, 500060, Note_off_c, 0, 80, 100
2, 500064, Note_on_c, 0, 79, 100
2, 500156, Note_off_c, 0, 75, 100
2, 500160, Note_on_c, 0, 82, 100
2, 500252, Note_off_c, 0, 79, 100
2, 500256, Note_on_c, 0, 79, 100
2, 500348, Note_off_c, 0, 82, 100
2, 500352, Note_on_c, 0, 82, 100
2, 500444, Note_off_c, 0, 79, 100
2, 500448, Note_on_c, 0, 79, 100
2, 500540, Note_off_c, 0, 82, 100
2, 500544, Note_on_c, 0, 67, 100
2, 500636, Note_off_c, 0, 79, 100
2, 500640, Note_on_c, 0, 75, 100
2, 500732, Note_off_c, 0, 67, 100
2, 500736, Note_on_c, 0, 79, 100
2, 500828, Note_off_c, 0, 75, 100
2, 500832, Note_on_c, 0, 75, 100
2, 500924, Note_off_c, 0, 79, 100
2, 500928, Note_on_c, 0, 79, 100
2, 501020, Note_off_c, 0, 75, 100
2, 501024, Note_on_c, 0, 75, 100
2, 501116, Note_off_c, 0, 79, 100
2, 501120, Note_on_c, 0, 67, 100
2, 501212, Note_off_c, 0, 75, 100
2, 501216, Note_on_c, 0, 76, 100
2, 501308, Note_off_c, 0, 67, 100
2, 501312, Note_on_c, 0, 79, 100
2, 501404, Note_off_c, 0, 76, 100
2, 501408, Note_on_c, 0, 76, 100
2, 501500, Note_off_c, 0, 79, 100
2, 501504, Note_on_c, 0, 79, 100
2, 501596, Note_off_c, 0, 76, 100
2, 501600, Note_on_c, 0, 76, 100
2, 501692, Note_off_c, 0, 79, 100
2, 501696, Note_on_c, 0, 67, 100
2, 501788, Note_off_c, 0, 76, 100
2, 501792, Note_on_c, 0, 75, 100
2, 501884, Note_off_c, 0, 67, 100
2, 501888, Note_on_c, 0, 79, 100
2, 501980, Note_off_c, 0, 75, 100
2, 501984, Note_on_c, 0, 75, 100
2, 502076, Note_off_c, 0, 79, 100
2, 502080, Note_on_c, 0, 79, 100
2, 502172, Note_off_c, 0, 75, 100
2, 502176, Note_on_c, 0, 75, 100
2, 502268, Note_off_c, 0, 79, 100
2, 502272, Note_on_c, 0, 67, 100
2, 502364, Note_off_c, 0, 75, 100
2, 502368, Note_on_c, 0, 73, 100
2, 502460, Note_off_c, 0, 67, 100
2, 502464, Note_on_c, 0, 79, 100
2, 502556, Note_off_c, 0, 73, 100
2, 502560, Note_on_c, 0, 73, 100
2, 502652, Note_off_c, 0, 79, 100
2, 502656, Note_on_c, 0, 79, 100
2, 502748, Note_off_c, 0, 73, 100
2, 502752, Note_on_c, 0, 73, 100
2, 502844, Note_off_c, 0, 79, 100
2, 502848, Note_on_c, 0, 67, 100
2, 502940, Note_off_c, 0, 73, 100
2, 502944, Note_on_c, 0, 75, 100
2, 503036, Note_off_c, 0, 67, 100
2, 503040, Note_on_c, 0, 79, 100
2, 503132, Note_off_c, 0, 75, 100
2, 503136, Note_on_c, 0, 75, 100
2, 503228, Note_off_c, 0, 79, 100
2, 503232, Note_on_c, 0, 79, 100
2, 503324, Note_off_c, 0, 75, 100
2, 503328, Note_on_c, 0, 75, 100
2, 503420, Note_off_c, 0, 79, 100
2, 503424, Note_on_c, 0, 67, 100
2, 503516, Note_off_c, 0, 75, 100
2, 503520, Note_on_c, 0, 76, 100
2, 503612, Note_off_c, 0, 67, 100
2, 503616, Note_on_c, 0, 79, 100
2, 503708, Note_off_c, 0, 76, 100
2, 503712, Note_on_c, 0, 76, 100
2, 503804, Note_off_c, 0, 79, 100
2, 503808, Note_on_c, 0, 79, 100
2, 503900, Note_off_c, 0, 76, 100
2, 503904, Note_on_c, 0, 76, 100
2, 503996, Note_off_c, 0, 79, 100
2, 504000, Note_on_c, 0, 67, 100
2, 504092, Note_off_c, 0, 76, 100
2, 504096, Note_on_c, 0, 73, 100
2, 504188, Note_off_c, 0, 67, 100
2, 504192, Note_on_c, 0, 79, 100
2, 504284, Note_off_c, 0, 73, 100
2, 504288, Note_on_c, 0, 73, 100
2, 504380, Note_off_c, 0, 79, 100
2, 504384, Note_on_c, 0, 79, 100
2, 504476, Note_off_c, 0, 73, 100
2, 504480, Note_on_c, 0, 73, 100
2, 504572, Note_off_c, 0, 79, 100
2, 504576, Note_on_c, 0, 68, 100
2, 504668, Note_off_c, 0, 73, 100
2, 504672, Note_on_c, 0, 72, 100
2, 504764, Note_off_c, 0, 68, 100
2, 504768, Note_on_c, 0, 80, 100
2, 504860, Note_off_c, 0, 72, 100
2, 504864, Note_on_c, 0, 72, 100
2, 504956, Note_off_c, 0, 80, 100
2, 504960, Note_on_c, 0, 80, 100
2, 505052, Note_off_c, 0, 72, 100
2, 505056, Note_on_c, 0, 72, 100
2, 505148, Note_off_c, 0, 80, 100
2, 505152, Note_on_c, 0, 68, 100
2, 505244, Note_off_c, 0, 72, 100
2, 505248, Note_on_c, 0, 71, 100
2, 505340, Note_off_c, 0, 68, 100
2, 505344, Note_on_c, 0, 80, 100
2, 505436, Note_off_c, 0, 71, 100
2, 505440, Note_on_c, 0, 71, 100
2, 505532, Note_off_c, 0, 80, 100
2, 505536, Note_on_c, 0, 80, 100
2, 505628, Note_off_c, 0, 71, 100
2, 505632, Note_on_c, 0, 71, 100
2, 505724, Note_off_c, 0, 80, 100
2, 505728, Note_on_c, 0, 68, 100
2, 505820, Note_off_c, 0, 71, 100
2, 505824, Note_on_c, 0, 70, 100
2, 505916, Note_off_c, 0, 68, 100
2, 505920, Note_on_c, 0, 75, 100
2, 506012, Note_off_c, 0, 70, 100
2, 506016, Note_on_c, 0, 70, 100
2, 506108, Note_off_c, 0, 75, 100
2, 506112, Note_on_c, 0, 75, 100
2, 506204, Note_off_c, 0, 70, 100
2, 506208, Note_on_c, 0, 70, 100
2, 506300, Note_off_c, 0, 75, 100
2, 506304, Note_on_c, 0, 67, 100
2, 506396, Note_off_c, 0, 70, 100
2, 506400, Note_on_c, 0, 70, 100
2, 506492, Note_off_c, 0, 67, 100
2, 506496, Note_on_c, 0, 75, 100
2, 506588, Note_off_c, 0, 70, 100
2, 506592, Note_on_c, 0, 70, 100
2, 506684, Note_off_c, 0, 75, 100
2, 506688, Note_on_c, 0, 75, 100
2, 506780, Note_off_c, 0, 70, 100
2, 506784, Note_on_c, 0, 70, 100
2, 506876, Note_off_c, 0, 75, 100
2, 506880, Note_on_c, 0, 65, 100
2, 506972, Note_off_c, 0, 70, 100
2, 506976, Note_on_c, 0, 68, 100
2, 507068, Note_off_c, 0, 65, 100
2, 507072, Note_on_c, 0, 75, 100
2, 507164, Note_off_c, 0, 68, 100
2, 507168, Note_on_c, 0, 68, 100
2, 507260, Note_off_c, 0, 75, 100
2, 507264, Note_on_c, 0, 75, 100
2, 507356, Note_off_c, 0, 68, 100
2, 507360, Note_on_c, 0, 68, 100
2, 507452, Note_off_c, 0, 75, 100
2, 507456, Note_on_c, 0, 65, 100
2, 507548, Note_off_c, 0, 68, 100
2, 507552, Note_on_c, 0, 68, 100
2, 507644, Note_off_c, 0, 65, 100
2, 507648, Note_on_c, 0, 74, 100
2, 507740, Note_off_c, 0, 68, 100
2, 507744, Note_on_c, 0, 68, 100
2, 507836, Note_off_c, 0, 74, 100
2, 507840, Note_on_c, 0, 74, 100
2, 507932, Note_off_c, 0, 68, 100
2, 507936, Note_on_c, 0, 68, 100
2, 508028, Note_off_c, 0, 74, 100
2, 508032, Note_on_c, 0, 65, 100
2, 508124, Note_off_c, 0, 68, 100
2, 508128, Note_on_c, 0, 70, 100
2, 508220, Note_off_c, 0, 65, 100
2, 508224, Note_on_c, 0, 74, 100
2, 508316, Note_off_c, 0, 70, 100
2, 508320, Note_on_c, 0, 70, 100
2, 508412, Note_off_c, 0, 74, 100
2, 508416, Note_on_c, 0, 74, 100
2, 508508, Note_off_c, 0, 70, 100
2, 508512, Note_on_c, 0, 70, 100
2, 508604, Note_off_c, 0, 74, 100
2, 508608, Note_on_c, 0, 65, 100
2, 508700, Note_off_c, 0, 70, 100
2, 508704, Note_on_c, 0, 68, 100
2, 508704, Note_on_c, 0, 71, 100
2, 508796, Note_off_c, 0, 65, 100
2, 508800, Note_on_c, 0, 74, 100
2, 508892, Note_off_c, 0, 68, 100
2, 508892, Note_off_c, 0, 71, 100
2, 508896, Note_on_c, 0, 71, 100
2, 508896, Note_on_c, 0, 68, 100
2, 508988, Note_off_c, 0, 74, 100
2, 508992, Note_on_c, 0, 74, 100
2, 509084, Note_off_c, 0, 71, 100
2, 509084, Note_off_c, 0, 68, 100
2, 509088, Note_on_c, 0, 71, 100
2, 509088, Note_on_c, 0, 68, 100
2, 509180, Note_off_c, 0, 74, 100
2, 509180, Note_off_c, 0, 71, 100
2, 509180, Note_off_c, 0, 68, 100
2, 509184, Note_on_c, 0, 75, 100
2, 509184, Note_on_c, 0, 70, 100
2, 509184, Note_on_c, 0, 67, 100
2, 509564, Note_off_c, 0, 75, 100
2, 509564, Note_off_c, 0, 70, 100
2, 509564, Note_off_c, 0, 67, 100
2, 509568, Note_on_c, 0, 67, 110
2, 510140, Note_off_c, 0, 67, 100
2, 510144, Note_on_c, 0, 63, 100
2, 510332, Note_off_c, 0, 63, 100
2, 510336, Note_on_c, 0, 58, 100
2, 510716, Note_off_c, 0, 58, 100
2, 510720, Note_on_c, 0, 77, 110
2, 510720, Note_on_c, 0, 68, 110
2, 511292, Note_off_c, 0, 77, 100
2, 511296, Note_on_c, 0, 74, 100
2, 511484, Note_off_c, 0, 68, 100
2, 511484, Note_off_c, 0, 74, 100
2, 511488, Note_on_c, 0, 75, 100
2, 511488, Note_on_c, 0, 67, 100
2, 511868, Note_off_c, 0, 75, 100
2, 511868, Note_off_c, 0, 67, 100
2, 511872, Note_on_c, 0, 67, 110
2, 512444, Note_off_c, 0, 67, 100
2, 512448, Note_on_c, 0, 63, 100
2, 512636, Note_off_c, 0, 63, 100
2, 512640, Note_on_c, 0, 58, 100
2, 513020, Note_off_c, 0, 58, 100
2, 513024, Note_on_c, 0, 68, 110
2, 513024, Note_on_c, 0, 80, 110
2, 513596, Note_off_c, 0, 80, 100
2, 513600, Note_on_c, 0, 77, 100
2, 513788, Note_off_c, 0, 68, 100
2, 513788, Note_off_c, 0, 77, 100
2, 513792, Note_on_c, 0, 67, 100
2, 513792, Note_on_c, 0, 79, 100
2, 514172, Note_off_c, 0, 67, 100
2, 514172, Note_off_c, 0, 79, 100
2, 514176, Note_on_c, 0, 67, 110
2, 514748, Note_off_c, 0, 67, 100
2, 514752, Note_on_c, 0, 63, 100
2, 514940, Note_off_c, 0, 63, 100
2, 514944, Note_on_c, 0, 58, 100
2, 515324, Note_off_c, 0, 58, 100
2, 515328, Note_on_c, 0, 80, 110
2, 515328, Note_on_c, 0, 77, 110
2, 515328, Note_on_c, 0, 89, 110
2, 515900, Note_off_c, 0, 80, 100
2, 515900, Note_off_c, 0, 77, 100
2, 515900, Note_off_c, 0, 89, 100
2, 515904, Note_on_c, 0, 86, 100
2, 515904, Note_on_c, 0, 80, 100
2, 515904, Note_on_c, 0, 77, 100
2, 516092, Note_off_c, 0, 86, 100
2, 516092, Note_off_c, 0, 80, 100
2, 516092, Note_off_c, 0, 77, 100
2, 516096, Note_on_c, 0, 89, 120
2, 516096, Note_on_c, 0, 86, 120
2, 516096, Note_on_c, 0, 80, 120
2, 516096, Note_on_c, 0, 77, 120
2, 517628, Note_off_c, 0, 77, 100
2, 517628, Note_off_c, 0, 80, 100
2, 517628, Note_off_c, 0, 86, 100
2, 517628, Note_off_c, 0, 89, 100
2, 517632, Note_on_c, 0, 86, 117
2, 517632, Note_on_c, 0, 80, 117
2, 517632, Note_on_c, 0, 77, 117
2, 517820, Note_off_c, 0, 86, 100
2, 517820, Note_off_c, 0, 80, 100
2, 517820, Note_off_c, 0, 77, 100
2, 517824, Note_on_c, 0, 89, 117
2, 517824, Note_on_c, 0, 86, 117
2, 517824, Note_on_c, 0, 80, 117
2, 517824, Note_on_c, 0, 77, 117
2, 518204, Note_off_c, 0, 89, 100
2, 518204, Note_off_c, 0, 86, 100
2, 518204, Note_off_c, 0, 80, 100
2, 518204, Note_off_c, 0, 77, 100
2, 518208, Note_on_c, 0, 86, 116
2, 518208, Note_on_c, 0, 80, 116
2, 518208, Note_on_c, 0, 77, 116
2, 518396, Note_off_c, 0, 86, 100
2, 518396, Note_off_c, 0, 80, 100
2, 518396, Note_off_c, 0, 77, 100
2, 518400, Note_on_c, 0, 87, 115
2, 518400, Note_on_c, 0, 84, 115
2, 518400, Note_on_c, 0, 79, 115
2, 518400, Note_on_c, 0, 75, 115
2, 519548, Note_off_c, 0, 87, 100
2, 519548, Note_off_c, 0, 84, 100
2, 519548, Note_off_c, 0, 79, 100
2, 519548, Note_off_c, 0, 75, 100
2, 519552, Note_on_c, 0, 84, 113
2, 519552, Note_on_c, 0, 79, 113
2, 519552, Note_on_c, 0, 75, 113
2, 519552, Note_on_c, 0, 72, 113
2, 519932, Note_off_c, 0, 84, 100
2, 519932, Note_off_c, 0, 79, 100
2, 519932, Note_off_c, 0, 75, 100
2, 519932, Note_off_c, 0, 72, 100
2, 520512, Note_on_c, 0, 79, 111
2, 520512, Note_on_c, 0, 76, 111
2, 520512, Note_on_c, 0, 72, 111
2, 520512, Note_on_c, 0, 70, 111
2, 520700, Note_off_c, 0, 79, 100
2, 520700, Note_off_c, 0, 76, 100
2, 520700, Note_off_c, 0, 72, 100
2, 520700, Note_off_c, 0, 70, 100
2, 520704, Note_on_c, 0, 80, 110
2, 520704, Note_on_c, 0, 77, 110
2, 520704, Note_on_c, 0, 72, 110
2, 520704, Note_on_c, 0, 68, 110
2, 521852, Note_off_c, 0, 80, 100
2, 521852, Note_off_c, 0, 77, 100
2, 521852, Note_off_c, 0, 72, 100
2, 521852, Note_off_c, 0, 68, 100
2, 521856, Note_on_c, 0, 77, 110
2, 521856, Note_on_c, 0, 72, 110
2, 521856, Note_on_c, 0, 68, 110
2, 521856, Note_on_c, 0, 65, 110
2, 522236, Note_off_c, 0, 77, 100
2, 522236, Note_off_c, 0, 72, 100
2, 522236, Note_off_c, 0, 68, 100
2, 522236, Note_off_c, 0, 65, 100
2, 522816, Note_on_c, 0, 77, 110
2, 522816, Note_on_c, 0, 72, 110
2, 522816, Note_on_c, 0, 69, 110
2, 522816, Note_on_c, 0, 65, 110
2, 523004, Note_off_c, 0, 77, 100
2, 523004, Note_off_c, 0, 72, 100
2, 523004, Note_off_c, 0, 69, 100
2, 523004, Note_off_c, 0, 65, 100
2, 523008, Note_on_c, 0, 77, 110
2, 523008, Note_on_c, 0, 70, 110
2, 523008, Note_on_c, 0, 68, 110
2, 523008, Note_on_c, 0, 65, 110
2, 524156, Note_off_c, 0, 77, 100
2, 524156, Note_off_c, 0, 70, 100
2, 524156, Note_off_c, 0, 68, 100
2, 524156, Note_off_c, 0, 65, 100
2, 524160, Note_on_c, 0, 74, 80
2, 524160, Note_on_c, 0, 68, 80
2, 524160, Note_on_c, 0, 65, 80
2, 524540, Note_off_c, 0, 74, 100
2, 524540, Note_off_c, 0, 68, 100
2, 524540, Note_off_c, 0, 65, 100
2, 524736, Note_on_c, 0, 68, 80
2, 524736, Note_on_c, 0, 65, 80
2, 524736, Note_on_c, 0, 62, 80
2, 525116, Note_off_c, 0, 68, 100
2, 525116, Note_off_c, 0, 65, 100
2, 525116, Note_off_c, 0, 62, 100
2, 525312, Note_on_c, 0, 65, 80
2, 525312, Note_on_c, 0, 62, 80
2, 525312, Note_on_c, 0, 56, 80
2, 525692, Note_off_c, 0, 65, 100
2, 525692, Note_off_c, 0, 62, 100
2, 525692, Note_off_c, 0, 56, 100
2, 525888, Note_on_c, 0, 62, 80
2, 525888, Note_on_c, 0, 56, 80
2, 525888, Note_on_c, 0, 53, 80
2, 526268, Note_off_c, 0, 62, 100
2, 526268, Note_off_c, 0, 56, 100
2, 526268, Note_off_c, 0, 53, 100
2, 526464, Note_on_c, 0, 56, 80
2, 526464, Note_on_c, 0, 53, 80
2, 526464, Note_on_c, 0, 50, 80
2, 526844, Note_off_c, 0, 56, 100
2, 526844, Note_off_c, 0, 53, 100
2, 526844, Note_off_c, 0, 50, 100
2, 527040, Note_on_c, 0, 53, 80
2, 527040, Note_on_c, 0, 50, 80
2, 527040, Note_on_c, 0, 44, 80
2, 527420, Note_off_c, 0, 53, 100
2, 527420, Note_off_c, 0, 50, 100
2, 527420, Note_off_c, 0, 44, 100
2, 527616, Note_on_c, 0, 51, 80
2, 527616, Note_on_c, 0, 43, 80
2, 527996, Note_off_c, 0, 51, 100
2, 527996, Note_off_c, 0, 43, 100
2, 528192, Note_on_c, 0, 79, 80
2, 528192, Note_on_c, 0, 67, 80
2, 528764, Note_off_c, 0, 79, 100
2, 528764, Note_off_c, 0, 67, 100
2, 528768, Note_on_c, 0, 77, 80
2, 528768, Note_on_c, 0, 68, 80
2, 529340, Note_off_c, 0, 77, 100
2, 529340, Note_off_c, 0, 68, 100
2, 529344, Note_on_c, 0, 75, 80
2, 529344, Note_on_c, 0, 70, 80
2, 529916, Note_off_c, 0, 75, 100
2, 529916, Note_off_c, 0, 70, 100
2, 529920, Note_on_c, 0, 72, 80
2, 530300, Note_off_c, 0, 72, 100
2, 530496, Note_on_c, 0, 80, 80
2, 530496, Note_on_c, 0, 68, 80
2, 531068, Note_off_c, 0, 80, 100
2, 531068, Note_off_c, 0, 68, 100
2, 531072, Note_on_c, 0, 79, 80
2, 531072, Note_on_c, 0, 70, 80
2, 531644, Note_off_c, 0, 79, 100
2, 531644, Note_off_c, 0, 70, 100
2, 531648, Note_on_c, 0, 77, 80
2, 531648, Note_on_c, 0, 72, 80
2, 532220, Note_off_c, 0, 77, 100
2, 532220, Note_off_c, 0, 72, 100
2, 532224, Note_on_c, 0, 74, 80
2, 532604, Note_off_c, 0, 74, 100
2, 532800, Note_on_c, 0, 70, 80
2, 532992, Note_on_c, 0, 67, 80
2, 533180, Note_off_c, 0, 67, 100
2, 533184, Note_on_c, 0, 67, 80
2, 533372, Note_off_c, 0, 70, 100
2, 533372, Note_off_c, 0, 67, 100
2, 533376, Note_on_c, 0, 74, 80
2, 533376, Note_on_c, 0, 67, 80
2, 533564, Note_off_c, 0, 67, 100
2, 533568, Note_on_c, 0, 65, 80
2, 533756, Note_off_c, 0, 65, 100
2, 533760, Note_on_c, 0, 65, 80
2, 533948, Note_off_c, 0, 74, 100
2, 533948, Note_off_c, 0, 65, 100
2, 533952, Note_on_c, 0, 75, 80
2, 534144, Note_on_c, 0, 63, 80
2, 534332, Note_off_c, 0, 63, 100
2, 534336, Note_on_c, 0, 63, 80
2, 534524, Note_off_c, 0, 75, 100
2, 534524, Note_off_c, 0, 63, 100
2, 534528, Note_on_c, 0, 72, 80
2, 534528, Note_on_c, 0, 62, 80
2, 534716, Note_off_c, 0, 62, 100
2, 534720, Note_on_c, 0, 63, 80
2, 534908, Note_off_c, 0, 72, 100
2, 534908, Note_off_c, 0, 63, 100
2, 534912, Note_on_c, 0, 63, 80
2, 535100, Note_off_c, 0, 63, 100
2, 535104, Note_on_c, 0, 72, 80
2, 535296, Note_on_c, 0, 68, 80
2, 535484, Note_off_c, 0, 68, 100
2, 535488, Note_on_c, 0, 68, 80
2, 535676, Note_off_c, 0, 72, 100
2, 535676, Note_off_c, 0, 68, 100
2, 535680, Note_on_c, 0, 76, 80
2, 535680, Note_on_c, 0, 68, 80
2, 535868, Note_off_c, 0, 68, 100
2, 535872, Note_on_c, 0, 67, 80
2, 536060, Note_off_c, 0, 67, 100
2, 536064, Note_on_c, 0, 67, 80
2, 536252, Note_off_c, 0, 76, 100
2, 536252, Note_off_c, 0, 67, 100
2, 536256, Note_on_c, 0, 77, 80
2, 536448, Note_on_c, 0, 65, 80
2, 536636, Note_off_c, 0, 65, 100
2, 536640, Note_on_c, 0, 65, 80
2, 536828, Note_off_c, 0, 77, 100
2, 536828, Note_off_c, 0, 65, 100
2, 536832, Note_on_c, 0, 74, 80
2, 536832, Note_on_c, 0, 64, 80
2, 537020, Note_off_c, 0, 64, 100
2, 537024, Note_on_c, 0, 65, 80
2, 537212, Note_off_c, 0, 74, 100
2, 537212, Note_off_c, 0, 65, 100
2, 537216, Note_on_c, 0, 65, 80
2, 537404, Note_off_c, 0, 65, 100
2, 537408, Note_on_c, 0, 74, 80
2, 537408, Note_on_c, 0, 70, 80
2, 537980, Note_off_c, 0, 74, 100
2, 537980, Note_off_c, 0, 70, 100
2, 537984, Note_on_c, 0, 75, 83
2, 537984, Note_on_c, 0, 72, 83
2, 538556, Note_off_c, 0, 75, 100
2, 538556, Note_off_c, 0, 72, 100
2, 538560, Note_on_c, 0, 77, 87
2, 538560, Note_on_c, 0, 74, 87
2, 539132, Note_off_c, 0, 77, 100
2, 539132, Note_off_c, 0, 74, 100
2, 539136, Note_on_c, 0, 79, 91
2, 539136, Note_on_c, 0, 75, 91
2, 539516, Note_off_c, 0, 79, 100
2, 539516, Note_off_c, 0, 75, 100
2, 539712, Note_on_c, 0, 87, 95
2, 539712, Note_on_c, 0, 79, 95
2, 539712, Note_on_c, 0, 75, 95
2, 540284, Note_off_c, 0, 87, 100
2, 540284, Note_off_c, 0, 79, 100
2, 540284, Note_off_c, 0, 75, 100
2, 540288, Note_on_c, 0, 87, 99
2, 540288, Note_on_c, 0, 80, 99
2, 540288, Note_on_c, 0, 77, 99
2, 540860, Note_off_c, 0, 87, 100
2, 540860, Note_off_c, 0, 80, 100
2, 540860, Note_off_c, 0, 77, 100
2, 540864, Note_on_c, 0, 87, 103
2, 540864, Note_on_c, 0, 82, 103
2, 540864, Note_on_c, 0, 79, 103
2, 541436, Note_off_c, 0, 87, 100
2, 541436, Note_off_c, 0, 82, 100
2, 541436, Note_off_c, 0, 79, 100
2, 541440, Note_on_c, 0, 87, 107
2, 541440, Note_on_c, 0, 84, 107
2, 541440, Note_on_c, 0, 80, 107
2, 541820, Note_off_c, 0, 87, 100
2, 541820, Note_off_c, 0, 84, 100
2, 541820, Note_off_c, 0, 80, 100
2, 542016, Note_on_c, 0, 87, 100
2, 542016, Note_on_c, 0, 75, 100
2, 542588, Note_off_c, 0, 87, 100
2, 542588, Note_off_c, 0, 75, 100
2, 542592, Note_on_c, 0, 75, 102
2, 542592, Note_on_c, 0, 63, 102
2, 543164, Note_off_c, 0, 75, 100
2, 543164, Note_off_c, 0, 63, 100
2, 543168, Note_on_c, 0, 82, 104
2, 543168, Note_on_c, 0, 70, 104
2, 543740, Note_off_c, 0, 82, 100
2, 543740, Note_off_c, 0, 70, 100
2, 543744, Note_on_c, 0, 70, 106
2, 543744, Note_on_c, 0, 58, 106
2, 544316, Note_off_c, 0, 70, 100
2, 544316, Note_off_c, 0, 58, 100
2, 544320, Note_on_c, 0, 68, 108
2, 544320, Note_on_c, 0, 80, 108
2, 544892, Note_off_c, 0, 68, 100
2, 544892, Note_off_c, 0, 80, 100
2, 546432, Note_on_c, 0, 68, 100
2, 547004, Note_off_c, 0, 68, 100
2, 547008, Note_on_c, 0, 65, 100
2, 547196, Note_off_c, 0, 65, 100
2, 547200, Note_on_c, 0, 62, 100
2, 547580, Note_off_c, 0, 62, 100
2, 547584, Note_on_c, 0, 80, 100
2, 547584, Note_on_c, 0, 68, 100
2, 548156, Note_off_c, 0, 80, 100
2, 548156, Note_off_c, 0, 68, 100
2, 548160, Note_on_c, 0, 77, 100
2, 548160, Note_on_c, 0, 65, 100
2, 548348, Note_off_c, 0, 77, 100
2, 548348, Note_off_c, 0, 65, 100
2, 548352, Note_on_c, 0, 74, 100
2, 548352, Note_on_c, 0, 62, 100
2, 548732, Note_off_c, 0, 74, 100
2, 548732, Note_off_c, 0, 62, 100
2, 548736, Note_on_c, 0, 68, 100
2, 549308, Note_off_c, 0, 68, 100
2, 549312, Note_on_c, 0, 65, 100
2, 549500, Note_off_c, 0, 65, 100
2, 549504, Note_on_c, 0, 62, 100
2, 549884, Note_off_c, 0, 62, 100
2, 549888, Note_on_c, 0, 83, 100
2, 549888, Note_on_c, 0, 71, 100
2, 550460, Note_off_c, 0, 83, 100
2, 550460, Note_off_c, 0, 71, 100
2, 550464, Note_on_c, 0, 80, 100
2, 550464, Note_on_c, 0, 68, 100
2, 550652, Note_off_c, 0, 80, 100
2, 550652, Note_off_c, 0, 68, 100
2, 550656, Note_on_c, 0, 77, 100
2, 550656, Note_on_c, 0, 65, 100
2, 551036, Note_off_c, 0, 77, 100
2, 551036, Note_off_c, 0, 65, 100
2, 551040, Note_on_c, 0, 71, 70
2, 551612, Note_off_c, 0, 71, 100
2, 551616, Note_on_c, 0, 68, 70
2, 551804, Note_off_c, 0, 68, 100
2, 551808, Note_on_c, 0, 65, 70
2, 552188, Note_off_c, 0, 65, 100
2, 552192, Note_on_c, 0, 71, 70
2, 552764, Note_off_c, 0, 71, 100
2, 552768, Note_on_c, 0, 68, 70
2, 552956, Note_off_c, 0, 68, 100
2, 552960, Note_on_c, 0, 65, 70
2, 553340, Note_off_c, 0, 65, 100
2, 553344, Note_on_c, 0, 71, 70
2, 553916, Note_off_c, 0, 71, 100
2, 553920, Note_on_c, 0, 70, 70
2, 554108, Note_off_c, 0, 70, 100
2, 554112, Note_on_c, 0, 69, 70
2, 554492, Note_off_c, 0, 69, 100
2, 554496, Note_on_c, 0, 69, 70
2, 555068, Note_off_c, 0, 69, 100
2, 555072, Note_on_c, 0, 68, 70
2, 555260, Note_off_c, 0, 68, 100
2, 555264, Note_on_c, 0, 67, 70
2, 555644, Note_off_c, 0, 67, 100
2, 555648, Note_on_c, 0, 79, 70
2, 555648, Note_on_c, 0, 67, 70
2, 556220, Note_off_c, 0, 79, 100
2, 556220, Note_off_c, 0, 67, 100
2, 556224, Note_on_c, 0, 78, 70
2, 556224, Note_on_c, 0, 66, 70
2, 556412, Note_off_c, 0, 78, 100
2, 556412, Note_off_c, 0, 66, 100
2, 556416, Note_on_c, 0, 77, 70
2, 556416, Note_on_c, 0, 65, 70
2, 556796, Note_off_c, 0, 77, 100
2, 556796, Note_off_c, 0, 65, 100
2, 556800, Note_on_c, 0, 76, 70
2, 556800, Note_on_c, 0, 64, 70
2, 557372, Note_off_c, 0, 76, 100
2, 557372, Note_off_c, 0, 64, 100
2, 557376, Note_on_c, 0, 69, 70
2, 557376, Note_on_c, 0, 75, 70
2, 557376, Note_on_c, 0, 63, 70
2, 557564, Note_off_c, 0, 69, 100
2, 557568, Note_on_c, 0, 68, 70
2, 558716, Note_off_c, 0, 63, 100
2, 558716, Note_off_c, 0, 75, 100
2, 558716, Note_off_c, 0, 68, 100
2, 558720, Note_on_c, 0, 74, 70
2, 558720, Note_on_c, 0, 68, 70
2, 558720, Note_on_c, 0, 62, 70
2, 559868, Note_off_c, 0, 74, 100
2, 559868, Note_off_c, 0, 68, 100
2, 559868, Note_off_c, 0, 62, 100
2, 559872, Note_on_c, 0, 75, 70
2, 559872, Note_on_c, 0, 67, 70
2, 559872, Note_on_c, 0, 63, 70
2, 560252, Note_off_c, 0, 75, 100
2, 560252, Note_off_c, 0, 67, 100
2, 560252, Note_off_c, 0, 63, 100
2, 561024, Note_on_c, 0, 67, 80
2, 561024, Note_on_c, 0, 63, 80
2, 561024, Note_on_c, 0, 58, 80
2, 562172, Note_off_c, 0, 67, 100
2, 562172, Note_off_c, 0, 63, 100
2, 562172, Note_off_c, 0, 58, 100
2, 562176, Note_on_c, 0, 63, 88
2, 562176, Note_on_c, 0, 58, 88
2, 562176, Note_on_c, 0, 55, 88
2, 562556, Note_off_c, 0, 63, 100
2, 562556, Note_off_c, 0, 58, 100
2, 562556, Note_off_c, 0, 55, 100
2, 563328, Note_on_c, 0, 70, 97
2, 563328, Note_on_c, 0, 67, 97
2, 563328, Note_on_c, 0, 63, 97
2, 563328, Note_on_c, 0, 58, 97
2, 564476, Note_off_c, 0, 70, 100
2, 564476, Note_off_c, 0, 67, 100
2, 564476, Note_off_c, 0, 63, 100
2, 564476, Note_off_c, 0, 58, 100
2, 564480, Note_on_c, 0, 67, 106
2, 564480, Note_on_c, 0, 63, 106
2, 564480, Note_on_c, 0, 58, 106
2, 564480, Note_on_c, 0, 55, 106
2, 564860, Note_off_c, 0, 67, 100
2, 564860, Note_off_c, 0, 63, 100
2, 564860, Note_off_c, 0, 58, 100
2, 564860, Note_off_c, 0, 55, 100
2, 565056, Note_on_c, 0, 75, 110
2, 565056, Note_on_c, 0, 70, 110
2, 565056, Note_on_c, 0, 67, 110
2, 565056, Note_on_c, 0, 63, 110
2, 565436, Note_off_c, 0, 75, 100
2, 565436, Note_off_c, 0, 70, 100
2, 565436, Note_off_c, 0, 67, 100
2, 565436, Note_off_c, 0, 63, 100
2, 565632, Note_on_c, 0, 70, 110
2, 565632, Note_on_c, 0, 67, 110
2, 565632, Note_on_c, 0, 63, 110
2, 565632, Note_on_c, 0, 58, 110
2, 566012, Note_off_c, 0, 70, 100
2, 566012, Note_off_c, 0, 67, 100
2, 566012, Note_off_c, 0, 63, 100
2, 566012, Note_off_c, 0, 58, 100
2, 566208, Note_on_c, 0, 79, 110
2, 566208, Note_on_c, 0, 75, 110
2, 566208, Note_on_c, 0, 70, 110
2, 566208, Note_on_c, 0, 67, 110
2, 566588, Note_off_c, 0, 79, 100
2, 566588, Note_off_c, 0, 75, 100
2, 566588, Note_off_c, 0, 70, 100
2, 566588, Note_off_c, 0, 67, 100
2, 566784, Note_on_c, 0, 75, 110
2, 566784, Note_on_c, 0, 70, 110
2, 566784, Note_on_c, 0, 67, 110
2, 566784, Note_on_c, 0, 63, 110
2, 567164, Note_off_c, 0, 75, 100
2, 567164, Note_off_c, 0, 70, 100
2, 567164, Note_off_c, 0, 67, 100
2, 567164, Note_off_c, 0, 63, 100
2, 567360, Note_on_c, 0, 79, 110
2, 567360, Note_on_c, 0, 82, 110
2, 567360, Note_on_c, 0, 75, 110
2, 567360, Note_on_c, 0, 70, 110
2, 567740, Note_off_c, 0, 79, 100
2, 567740, Note_off_c, 0, 82, 100
2, 567740, Note_off_c, 0, 75, 100
2, 567740, Note_off_c, 0, 70, 100
2, 567936, Note_on_c, 0, 79, 110
2, 567936, Note_on_c, 0, 75, 110
2, 567936, Note_on_c, 0, 70, 110
2, 567936, Note_on_c, 0, 67, 110
2, 568316, Note_off_c, 0, 79, 100
2, 568316, Note_off_c, 0, 75, 100
2, 568316, Note_off_c, 0, 70, 100
2, 568316, Note_off_c, 0, 67, 100
2, 568512, Note_on_c, 0, 87, 110
2, 568512, Note_on_c, 0, 82, 110
2, 568512, Note_on_c, 0, 79, 110
2, 568512, Note_on_c, 0, 75, 110
2, 568892, Note_off_c, 0, 87, 100
2, 568892, Note_off_c, 0, 82, 100
2, 568892, Note_off_c, 0, 79, 100
2, 568892, Note_off_c, 0, 75, 100
2, 569088, Note_on_c, 0, 63, 110
2, 569088, Note_on_c, 0, 58, 110
2, 569088, Note_on_c, 0, 55, 110
2, 569468, Note_off_c, 0, 63, 100
2, 569468, Note_off_c, 0, 58, 100
2, 569468, Note_off_c, 0, 55, 100
2, 569664, Note_on_c, 0, 62, 120
2, 569664, Note_on_c, 0, 58, 120
2, 569664, Note_on_c, 0, 56, 120
2, 569664, Note_on_c, 0, 53, 120
2, 570044, Note_off_c, 0, 62, 100
2, 570044, Note_off_c, 0, 58, 100
2, 570044, Note_off_c, 0, 56, 100
2, 570044, Note_off_c, 0, 53, 100
2, 570240, Note_on_c, 0, 63, 120
2, 570240, Note_on_c, 0, 58, 120
2, 570240, Note_on_c, 0, 55, 120
2, 570620, Note_off_c, 0, 63, 100
2, 570620, Note_off_c, 0, 58, 100
2, 570620, Note_off_c, 0, 55, 100
2, 570816, Note_on_c, 0, 82, 120
2, 570816, Note_on_c, 0, 86, 120
2, 570816, Note_on_c, 0, 80, 120
2, 570816, Note_on_c, 0, 77, 120
2, 570816, Note_on_c, 0, 74, 120
2, 571196, Note_off_c, 0, 82, 100
2, 571196, Note_off_c, 0, 86, 100
2, 571196, Note_off_c, 0, 80, 100
2, 571196, Note_off_c, 0, 77, 100
2, 571196, Note_off_c, 0, 74, 100
2, 571392, Note_on_c, 0, 87, 120
2, 571392, Note_on_c, 0, 82, 120
2, 571392, Note_on_c, 0, 79, 120
2, 571392, Note_on_c, 0, 75, 120
2, 572156, Note_off_c, 0, 87, 100
2, 572156, Note_off_c, 0, 82, 100
2, 572156, Note_off_c, 0, 79, 100
2, 572156, Note_off_c, 0, 75, 100
2, 572544, Control_c, 0, 7, 0
2, 572928, Note_on_c, 0, 63, 1
2, 573116, Note_off_c, 0, 63, 100
2, 573116, End_track
3, 0, Start_track
3, 0, Title_t, "Left"
3, 0, Control_c, 1, 0, 0
3, 0, Program_c, 1, 0
3, 0, Control_c, 1, 7, 100
3, 0, Control_c, 1, 10, 46
3, 0, Control_c, 1, 91, 127
3, 0, Key_signature, -3, "major"
3, 0, Note_on_c, 1, 39, 90
3, 188, Note_off_c, 1, 39, 100
3, 192, Note_on_c, 1, 51, 90
3, 380, Note_off_c, 1, 51, 100
3, 384, Note_on_c, 1, 51, 90
3, 572, Note_off_c, 1, 51, 100
3, 576, Note_on_c, 1, 51, 90
3, 764, Note_off_c, 1, 51, 100
3, 768, Note_on_c, 1, 51, 90
3, 956, Note_off_c, 1, 51, 100
3, 960, Note_on_c, 1, 51, 90
3, 1148, Note_off_c, 1, 51, 100
3, 1152, Note_on_c, 1, 51, 90
3, 1340, Note_off_c, 1, 51, 100
3, 1344, Note_on_c, 1, 51, 90
3, 1532, Note_off_c, 1, 51, 100
3, 1536, Note_on_c, 1, 51, 90
3, 1724, Note_off_c, 1, 51, 100
3, 1728, Note_on_c, 1, 51, 90
3, 1916, Note_off_c, 1, 51, 100
3, 1920, Note_on_c, 1, 51, 90
3, 2108, Note_off_c, 1, 51, 100
3, 2112, Note_on_c, 1, 51, 90
3, 2300, Note_off_c, 1, 51, 100
3, 2304, Note_on_c, 1, 39, 100
3, 2492, Note_off_c, 1, 39, 100
3, 2496, Note_on_c, 1, 51, 100
3, 2684, Note_off_c, 1, 51, 100
3, 2688, Note_on_c, 1, 51, 100
3, 2876, Note_off_c, 1, 51, 100
3, 2880, Note_on_c, 1, 51, 100
3, 3068, Note_off_c, 1, 51, 100
3, 3072, Note_on_c, 1, 51, 100
3, 3260, Note_off_c, 1, 51, 100
3, 3264, Note_on_c, 1, 51, 100
3, 3452, Note_off_c, 1, 51, 100
3, 3456, Note_on_c, 1, 51, 100
3, 3644, Note_off_c, 1, 51, 100
3, 3648, Note_on_c, 1, 51, 100
3, 3836, Note_off_c, 1, 51, 100
3, 3840, Note_on_c, 1, 51, 100
3, 4028, Note_off_c, 1, 51, 100
3, 4032, Note_on_c, 1, 51, 100
3, 4220, Note_off_c, 1, 51, 100
3, 4224, Note_on_c, 1, 51, 100
3, 4412, Note_off_c, 1, 51, 100
3, 4416, Note_on_c, 1, 51, 80
3, 4604, Note_off_c, 1, 51, 100
3, 4608, Note_on_c, 1, 63, 80
3, 4608, Note_on_c, 1, 55, 80
3, 4608, Note_on_c, 1, 51, 80
3, 5180, Note_off_c, 1, 55, 100
3, 5180, Note_off_c, 1, 51, 100
3, 5184, Note_on_c, 1, 56, 80
3, 5184, Note_on_c, 1, 53, 80
3, 5756, Note_off_c, 1, 56, 100
3, 5756, Note_off_c, 1, 53, 100
3, 5760, Note_on_c, 1, 55, 80
3, 5760, Note_on_c, 1, 58, 80
3, 6140, Note_off_c, 1, 63, 100
3, 6140, Note_off_c, 1, 55, 100
3, 6140, Note_off_c, 1, 58, 100
3, 6912, Note_on_c, 1, 70, 80
3, 6912, Note_on_c, 1, 62, 80
3, 6912, Note_on_c, 1, 58, 80
3, 7484, Note_off_c, 1, 62, 100
3, 7484, Note_off_c, 1, 58, 100
3, 7488, Note_on_c, 1, 63, 80
3, 7488, Note_on_c, 1, 60, 80
3, 8060, Note_off_c, 1, 63, 100
3, 8060, Note_off_c, 1, 60, 100
3, 8064, Note_on_c, 1, 65, 80
3, 8064, Note_on_c, 1, 62, 80
3, 8444, Note_off_c, 1, 70, 100
3, 8444, Note_off_c, 1, 65, 100
3, 8444, Note_off_c, 1, 62, 100
3, 9216, Note_on_c, 1, 75, 80
3, 9216, Note_on_c, 1, 67, 80
3, 9216, Note_on_c, 1, 63, 80
3, 9788, Note_off_c, 1, 67, 100
3, 9788, Note_off_c, 1, 63, 100
3, 9792, Note_on_c, 1, 68, 87
3, 9792, Note_on_c, 1, 65, 87
3, 10364, Note_off_c, 1, 68, 100
3, 10364, Note_off_c, 1, 65, 100
3, 10368, Note_on_c, 1, 70, 94
3, 10368, Note_on_c, 1, 67, 94
3, 10940, Note_off_c, 1, 75, 100
3, 10940, Note_off_c, 1, 70, 100
3, 10940, Note_off_c, 1, 67, 100
3, 10944, Note_on_c, 1, 73, 100
3, 10944, Note_on_c, 1, 70, 100
3, 10944, Note_on_c, 1, 67, 100
3, 10944, Note_on_c, 1, 75, 100
3, 11516, Note_off_c, 1, 73, 100
3, 11516, Note_off_c, 1, 70, 100
3, 11516, Note_off_c, 1, 67, 100
3, 11520, Note_on_c, 1, 72, 80
3, 11520, Note_on_c, 1, 68, 80
3, 11900, Note_off_c, 1, 75, 100
3, 11900, Note_off_c, 1, 72, 100
3, 11900, Note_off_c, 1, 68, 100
3, 12672, Note_on_c, 1, 67, 80
3, 12672, Note_on_c, 1, 63, 80
3, 12672, Note_on_c, 1, 58, 80
3, 13052, Note_off_c, 1, 67, 100
3, 13052, Note_off_c, 1, 63, 100
3, 13052, Note_off_c, 1, 58, 100
3, 13248, Note_on_c, 1, 68, 80
3, 13248, Note_on_c, 1, 65, 80
3, 13248, Note_on_c, 1, 58, 80
3, 13628, Note_off_c, 1, 68, 100
3, 13628, Note_off_c, 1, 65, 100
3, 13628, Note_off_c, 1, 58, 100
3, 13824, Note_on_c, 1, 63, 80
3, 14012, Note_off_c, 1, 63, 100
3, 14016, Note_on_c, 1, 62, 81
3, 14204, Note_off_c, 1, 62, 100
3, 14208, Note_on_c, 1, 65, 82
3, 14396, Note_off_c, 1, 65, 100
3, 14400, Note_on_c, 1, 63, 83
3, 14588, Note_off_c, 1, 63, 100
3, 14592, Note_on_c, 1, 62, 84
3, 14780, Note_off_c, 1, 62, 100
3, 14784, Note_on_c, 1, 65, 85
3, 14972, Note_off_c, 1, 65, 100
3, 14976, Note_on_c, 1, 63, 87
3, 15164, Note_off_c, 1, 63, 100
3, 15168, Note_on_c, 1, 62, 88
3, 15356, Note_off_c, 1, 62, 100
3, 15360, Note_on_c, 1, 65, 89
3, 15548, Note_off_c, 1, 65, 100
3, 15552, Note_on_c, 1, 63, 90
3, 15740, Note_off_c, 1, 63, 100
3, 15744, Note_on_c, 1, 62, 91
3, 15932, Note_off_c, 1, 62, 100
3, 15936, Note_on_c, 1, 60, 92
3, 16124, Note_off_c, 1, 60, 100
3, 16128, Note_on_c, 1, 58, 94
3, 16316, Note_off_c, 1, 58, 100
3, 16320, Note_on_c, 1, 57, 95
3, 16508, Note_off_c, 1, 57, 100
3, 16512, Note_on_c, 1, 60, 96
3, 16700, Note_off_c, 1, 60, 100
3, 16704, Note_on_c, 1, 58, 97
3, 16892, Note_off_c, 1, 58, 100
3, 16896, Note_on_c, 1, 56, 98
3, 17084, Note_off_c, 1, 56, 100
3, 17088, Note_on_c, 1, 55, 99
3, 17276, Note_off_c, 1, 55, 100
3, 17280, Note_on_c, 1, 53, 100
3, 17280, Note_on_c, 1, 46, 100
3, 17468, Note_off_c, 1, 53, 100
3, 17472, Note_on_c, 1, 55, 100
3, 17660, Note_off_c, 1, 55, 100
3, 17664, Note_on_c, 1, 56, 100
3, 17852, Note_off_c, 1, 56, 100
3, 17856, Note_on_c, 1, 58, 100
3, 18044, Note_off_c, 1, 58, 100
3, 18048, Note_on_c, 1, 53, 100
3, 18236, Note_off_c, 1, 53, 100
3, 18240, Note_on_c, 1, 56, 100
3, 18428, Note_off_c, 1, 46, 100
3, 18428, Note_off_c, 1, 56, 100
3, 18432, Note_on_c, 1, 51, 100
3, 18432, Note_on_c, 1, 55, 100
3, 18620, Note_off_c, 1, 55, 100
3, 18624, Note_on_c, 1, 53, 80
3, 18812, Note_off_c, 1, 51, 100
3, 18812, Note_off_c, 1, 53, 100
3, 18816, Note_on_c, 1, 55, 80
3, 19004, Note_off_c, 1, 55, 100
3, 19008, Note_on_c, 1, 56, 80
3, 19196, Note_off_c, 1, 56, 100
3, 19200, Note_on_c, 1, 58, 80
3, 19388, Note_off_c, 1, 58, 100
3, 19392, Note_on_c, 1, 60, 80
3, 19580, Note_off_c, 1, 60, 100
3, 19584, Note_on_c, 1, 62, 80
3, 19772, Note_off_c, 1, 62, 100
3, 19776, Note_on_c, 1, 63, 80
3, 19964, Note_off_c, 1, 63, 100
3, 19968, Note_on_c, 1, 65, 80
3, 20156, Note_off_c, 1, 65, 100
3, 20160, Note_on_c, 1, 67, 80
3, 20348, Note_off_c, 1, 67, 100
3, 20352, Note_on_c, 1, 68, 80
3, 20540, Note_off_c, 1, 68, 100
3, 20544, Note_on_c, 1, 70, 80
3, 20732, Note_off_c, 1, 70, 100
3, 20736, Note_on_c, 1, 68, 80
3, 20924, Note_off_c, 1, 68, 100
3, 20928, Note_on_c, 1, 67, 80
3, 21116, Note_off_c, 1, 67, 100
3, 21120, Note_on_c, 1, 65, 80
3, 21308, Note_off_c, 1, 65, 100
3, 21312, Note_on_c, 1, 63, 80
3, 21500, Note_off_c, 1, 63, 100
3, 21504, Note_on_c, 1, 62, 80
3, 21692, Note_off_c, 1, 62, 100
3, 21696, Note_on_c, 1, 60, 80
3, 21884, Note_off_c, 1, 60, 100
3, 21888, Note_on_c, 1, 58, 80
3, 22076, Note_off_c, 1, 58, 100
3, 22080, Note_on_c, 1, 60, 80
3, 22268, Note_off_c, 1, 60, 100
3, 22272, Note_on_c, 1, 58, 80
3, 22460, Note_off_c, 1, 58, 100
3, 22464, Note_on_c, 1, 56, 80
3, 22652, Note_off_c, 1, 56, 100
3, 22656, Note_on_c, 1, 55, 80
3, 22844, Note_off_c, 1, 55, 100
3, 22848, Note_on_c, 1, 53, 80
3, 23036, Note_off_c, 1, 53, 100
3, 23040, Note_on_c, 1, 51, 80
3, 23420, Note_off_c, 1, 51, 100
3, 24768, Note_on_c, 1, 63, 96
3, 24956, Note_off_c, 1, 63, 100
3, 24960, Note_on_c, 1, 65, 98
3, 25148, Note_off_c, 1, 65, 100
3, 25152, Note_on_c, 1, 67, 99
3, 25340, Note_off_c, 1, 67, 100
3, 25344, Note_on_c, 1, 65, 100
3, 25532, Note_off_c, 1, 65, 100
3, 25536, Note_on_c, 1, 63, 100
3, 25724, Note_off_c, 1, 63, 100
3, 25728, Note_on_c, 1, 62, 100
3, 25916, Note_off_c, 1, 62, 100
3, 25920, Note_on_c, 1, 60, 100
3, 26108, Note_off_c, 1, 60, 100
3, 26112, Note_on_c, 1, 58, 100
3, 26300, Note_off_c, 1, 58, 100
3, 26304, Note_on_c, 1, 56, 100
3, 26492, Note_off_c, 1, 56, 100
3, 26496, Note_on_c, 1, 55, 100
3, 26684, Note_off_c, 1, 55, 100
3, 26688, Note_on_c, 1, 56, 100
3, 26876, Note_off_c, 1, 56, 100
3, 26880, Note_on_c, 1, 55, 100
3, 27068, Note_off_c, 1, 55, 100
3, 27072, Note_on_c, 1, 53, 100
3, 27260, Note_off_c, 1, 53, 100
3, 27264, Note_on_c, 1, 51, 100
3, 27452, Note_off_c, 1, 51, 100
3, 27456, Note_on_c, 1, 50, 100
3, 27644, Note_off_c, 1, 50, 100
3, 27648, Note_on_c, 1, 49, 120
3, 27648, Note_on_c, 1, 39, 120
3, 27648, Note_on_c, 1, 37, 120
3, 29180, Note_off_c, 1, 37, 100
3, 29180, Note_off_c, 1, 39, 100
3, 29180, Note_off_c, 1, 49, 100
3, 29760, Note_on_c, 1, 63, 70
3, 29760, Note_on_c, 1, 61, 70
3, 29948, Note_off_c, 1, 63, 100
3, 29948, Note_off_c, 1, 61, 100
3, 29952, Note_on_c, 1, 60, 70
3, 29952, Note_on_c, 1, 63, 70
3, 30332, Note_off_c, 1, 60, 100
3, 30332, Note_off_c, 1, 63, 100
3, 30336, Note_on_c, 1, 60, 70
3, 30336, Note_on_c, 1, 63, 70
3, 30524, Note_off_c, 1, 60, 100
3, 30524, Note_off_c, 1, 63, 100
3, 30528, Note_on_c, 1, 60, 70
3, 30528, Note_on_c, 1, 63, 70
3, 30908, Note_off_c, 1, 60, 100
3, 30908, Note_off_c, 1, 63, 100
3, 30912, Note_on_c, 1, 60, 70
3, 30912, Note_on_c, 1, 63, 70
3, 30912, Note_on_c, 1, 68, 70
3, 31100, Note_off_c, 1, 60, 100
3, 31100, Note_off_c, 1, 63, 100
3, 31100, Note_off_c, 1, 68, 100
3, 31104, Note_on_c, 1, 60, 70
3, 31104, Note_on_c, 1, 63, 70
3, 31104, Note_on_c, 1, 68, 70
3, 31484, Note_off_c, 1, 60, 100
3, 31484, Note_off_c, 1, 63, 100
3, 31484, Note_off_c, 1, 68, 100
3, 32256, Note_on_c, 1, 51, 120
3, 32256, Note_on_c, 1, 39, 120
3, 33788, Note_off_c, 1, 39, 100
3, 33788, Note_off_c, 1, 51, 100
3, 34368, Note_on_c, 1, 63, 70
3, 34368, Note_on_c, 1, 66, 70
3, 34556, Note_off_c, 1, 63, 100
3, 34556, Note_off_c, 1, 66, 100
3, 34560, Note_on_c, 1, 61, 70
3, 34560, Note_on_c, 1, 65, 70
3, 34940, Note_off_c, 1, 61, 100
3, 34940, Note_off_c, 1, 65, 100
3, 34944, Note_on_c, 1, 65, 70
3, 34944, Note_on_c, 1, 61, 70
3, 35132, Note_off_c, 1, 65, 100
3, 35132, Note_off_c, 1, 61, 100
3, 35136, Note_on_c, 1, 61, 70
3, 35136, Note_on_c, 1, 65, 70
3, 35516, Note_off_c, 1, 61, 100
3, 35516, Note_off_c, 1, 65, 100
3, 35520, Note_on_c, 1, 61, 70
3, 35520, Note_on_c, 1, 65, 70
3, 35520, Note_on_c, 1, 70, 70
3, 35708, Note_off_c, 1, 61, 100
3, 35708, Note_off_c, 1, 65, 100
3, 35708, Note_off_c, 1, 70, 100
3, 35712, Note_on_c, 1, 61, 70
3, 35712, Note_on_c, 1, 65, 70
3, 35712, Note_on_c, 1, 70, 70
3, 36092, Note_off_c, 1, 61, 100
3, 36092, Note_off_c, 1, 65, 100
3, 36092, Note_off_c, 1, 70, 100
3, 36864, Note_on_c, 1, 54, 120
3, 36864, Note_on_c, 1, 42, 120
3, 38012, Note_off_c, 1, 54, 100
3, 38012, Note_off_c, 1, 42, 100
3, 38016, Note_on_c, 1, 66, 120
3, 38016, Note_on_c, 1, 54, 120
3, 39164, Note_off_c, 1, 66, 100
3, 39164, Note_off_c, 1, 54, 100
3, 39168, Note_on_c, 1, 53, 120
3, 39168, Note_on_c, 1, 65, 120
3, 39548, Note_off_c, 1, 65, 100
3, 39552, Note_on_c, 1, 60, 80
3, 39740, Note_off_c, 1, 60, 100
3, 39744, Note_on_c, 1, 65, 80
3, 40124, Note_off_c, 1, 65, 100
3, 40128, Note_on_c, 1, 63, 80
3, 40316, Note_off_c, 1, 63, 100
3, 40320, Note_on_c, 1, 61, 80
3, 40700, Note_off_c, 1, 61, 100
3, 40704, Note_on_c, 1, 58, 80
3, 40892, Note_off_c, 1, 58, 100
3, 40896, Note_on_c, 1, 61, 80
3, 41276, Note_off_c, 1, 61, 100
3, 41280, Note_on_c, 1, 64, 80
3, 41468, Note_off_c, 1, 53, 100
3, 41468, Note_off_c, 1, 64, 100
3, 41472, Note_on_c, 1, 53, 80
3, 41472, Note_on_c, 1, 65, 80
3, 41852, Note_off_c, 1, 65, 100
3, 41856, Note_on_c, 1, 60, 80
3, 42044, Note_off_c, 1, 60, 100
3, 42048, Note_on_c, 1, 65, 80
3, 42428, Note_off_c, 1, 65, 100
3, 42432, Note_on_c, 1, 63, 80
3, 42620, Note_off_c, 1, 63, 100
3, 42624, Note_on_c, 1, 61, 80
3, 43004, Note_off_c, 1, 61, 100
3, 43008, Note_on_c, 1, 58, 80
3, 43196, Note_off_c, 1, 58, 100
3, 43200, Note_on_c, 1, 61, 80
3, 43580, Note_off_c, 1, 61, 100
3, 43584, Note_on_c, 1, 64, 80
3, 43772, Note_off_c, 1, 53, 100
3, 43772, Note_off_c, 1, 64, 100
3, 43776, Note_on_c, 1, 53, 80
3, 43776, Note_on_c, 1, 65, 80
3, 44156, Note_off_c, 1, 53, 100
3, 44156, Note_off_c, 1, 65, 100
3, 46080, Note_on_c, 1, 53, 80
3, 46268, Note_off_c, 1, 53, 100
3, 46272, Note_on_c, 1, 63, 107
3, 47804, Note_off_c, 1, 63, 100
3, 47808, Note_on_c, 1, 62, 80
3, 47996, Note_off_c, 1, 62, 100
3, 48000, Note_on_c, 1, 60, 80
3, 48188, Note_off_c, 1, 60, 100
3, 48192, Note_on_c, 1, 58, 80
3, 48380, Note_off_c, 1, 58, 100
3, 48384, Note_on_c, 1, 53, 80
3, 48572, Note_off_c, 1, 53, 100
3, 48576, Note_on_c, 1, 63, 108
3, 50108, Note_off_c, 1, 63, 100
3, 50112, Note_on_c, 1, 62, 80
3, 50300, Note_off_c, 1, 62, 100
3, 50304, Note_on_c, 1, 60, 80
3, 50492, Note_off_c, 1, 60, 100
3, 50496, Note_on_c, 1, 58, 80
3, 50684, Note_off_c, 1, 58, 100
3, 50688, Note_on_c, 1, 60, 80
3, 50876, Note_off_c, 1, 60, 100
3, 50880, Note_on_c, 1, 57, 80
3, 51068, Note_off_c, 1, 57, 100
3, 51072, Note_on_c, 1, 60, 80
3, 51260, Note_off_c, 1, 60, 100
3, 51264, Note_on_c, 1, 58, 80
3, 51452, Note_off_c, 1, 58, 100
3, 51456, Note_on_c, 1, 57, 80
3, 51644, Note_off_c, 1, 57, 100
3, 51648, Note_on_c, 1, 55, 80
3, 51836, Note_off_c, 1, 55, 100
3, 51840, Note_on_c, 1, 56, 80
3, 52028, Note_off_c, 1, 56, 100
3, 52032, Note_on_c, 1, 53, 80
3, 52220, Note_off_c, 1, 53, 100
3, 52224, Note_on_c, 1, 56, 80
3, 52412, Note_off_c, 1, 56, 100
3, 52416, Note_on_c, 1, 55, 80
3, 52604, Note_off_c, 1, 55, 100
3, 52608, Note_on_c, 1, 53, 80
3, 52796, Note_off_c, 1, 53, 100
3, 52800, Note_on_c, 1, 51, 80
3, 52988, Note_off_c, 1, 51, 100
3, 52992, Note_on_c, 1, 53, 80
3, 53180, Note_off_c, 1, 53, 100
3, 53184, Note_on_c, 1, 50, 80
3, 53372, Note_off_c, 1, 50, 100
3, 53376, Note_on_c, 1, 53, 80
3, 53564, Note_off_c, 1, 53, 100
3, 53568, Note_on_c, 1, 51, 80
3, 53756, Note_off_c, 1, 51, 100
3, 53760, Note_on_c, 1, 50, 80
3, 53948, Note_off_c, 1, 50, 100
3, 53952, Note_on_c, 1, 48, 80
3, 54140, Note_off_c, 1, 48, 100
3, 54144, Note_on_c, 1, 53, 80
3, 54144, Note_on_c, 1, 41, 80
3, 54332, Note_off_c, 1, 53, 100
3, 54336, Note_on_c, 1, 50, 80
3, 54524, Note_off_c, 1, 50, 100
3, 54528, Note_on_c, 1, 46, 80
3, 54716, Note_off_c, 1, 41, 100
3, 54716, Note_off_c, 1, 46, 100
3, 54720, Note_on_c, 1, 53, 80
3, 54720, Note_on_c, 1, 41, 80
3, 54908, Note_off_c, 1, 53, 100
3, 54912, Note_on_c, 1, 51, 80
3, 55100, Note_off_c, 1, 51, 100
3, 55104, Note_on_c, 1, 48, 80
3, 55292, Note_off_c, 1, 41, 100
3, 55292, Note_off_c, 1, 48, 100
3, 55296, Note_on_c, 1, 46, 80
3, 55484, Note_off_c, 1, 46, 100
3, 55488, Note_on_c, 1, 58, 80
3, 55676, Note_off_c, 1, 58, 100
3, 55680, Note_on_c, 1, 60, 80
3, 55868, Note_off_c, 1, 60, 100
3, 55872, Note_on_c, 1, 61, 80
3, 56060, Note_off_c, 1, 61, 100
3, 56064, Note_on_c, 1, 62, 80
3, 56252, Note_off_c, 1, 62, 100
3, 56256, Note_on_c, 1, 63, 80
3, 56444, Note_off_c, 1, 63, 100
3, 56448, Note_on_c, 1, 64, 80
3, 56636, Note_off_c, 1, 64, 100
3, 56640, Note_on_c, 1, 65, 80
3, 56828, Note_off_c, 1, 65, 100
3, 56832, Note_on_c, 1, 63, 80
3, 57020, Note_off_c, 1, 63, 100
3, 57024, Note_on_c, 1, 62, 80
3, 57212, Note_off_c, 1, 62, 100
3, 57216, Note_on_c, 1, 60, 80
3, 57404, Note_off_c, 1, 60, 100
3, 57408, Note_on_c, 1, 58, 80
3, 57596, Note_off_c, 1, 58, 100
3, 57600, Note_on_c, 1, 65, 80
3, 57788, Note_off_c, 1, 65, 100
3, 57792, Note_on_c, 1, 64, 80
3, 57980, Note_off_c, 1, 64, 100
3, 57984, Note_on_c, 1, 63, 80
3, 58172, Note_off_c, 1, 63, 100
3, 58176, Note_on_c, 1, 60, 80
3, 58364, Note_off_c, 1, 60, 100
3, 58368, Note_on_c, 1, 57, 80
3, 58556, Note_off_c, 1, 57, 100
3, 58560, Note_on_c, 1, 53, 80
3, 58748, Note_off_c, 1, 53, 100
3, 58752, Note_on_c, 1, 52, 80
3, 58940, Note_off_c, 1, 52, 100
3, 58944, Note_on_c, 1, 53, 80
3, 59132, Note_off_c, 1, 53, 100
3, 59136, Note_on_c, 1, 51, 80
3, 59324, Note_off_c, 1, 51, 100
3, 59328, Note_on_c, 1, 50, 80
3, 59516, Note_off_c, 1, 50, 100
3, 59520, Note_on_c, 1, 48, 80
3, 59708, Note_off_c, 1, 48, 100
3, 59712, Note_on_c, 1, 46, 80
3, 59900, Note_off_c, 1, 46, 100
3, 59904, Note_on_c, 1, 65, 80
3, 60092, Note_off_c, 1, 65, 100
3, 60096, Note_on_c, 1, 64, 80
3, 60284, Note_off_c, 1, 64, 100
3, 60288, Note_on_c, 1, 63, 80
3, 60476, Note_off_c, 1, 63, 100
3, 60480, Note_on_c, 1, 60, 80
3, 60668, Note_off_c, 1, 60, 100
3, 60672, Note_on_c, 1, 57, 80
3, 60860, Note_off_c, 1, 57, 100
3, 60864, Note_on_c, 1, 53, 80
3, 61052, Note_off_c, 1, 53, 100
3, 61056, Note_on_c, 1, 52, 80
3, 61244, Note_off_c, 1, 52, 100
3, 61248, Note_on_c, 1, 53, 80
3, 61436, Note_off_c, 1, 53, 100
3, 61440, Note_on_c, 1, 51, 80
3, 61628, Note_off_c, 1, 51, 100
3, 61632, Note_on_c, 1, 50, 80
3, 61820, Note_off_c, 1, 50, 100
3, 61824, Note_on_c, 1, 48, 80
3, 62012, Note_off_c, 1, 48, 100
3, 62016, Note_on_c, 1, 46, 80
3, 62204, Note_off_c, 1, 46, 100
3, 62208, Note_on_c, 1, 60, 80
3, 62396, Note_off_c, 1, 60, 100
3, 62400, Note_on_c, 1, 57, 80
3, 62588, Note_off_c, 1, 57, 100
3, 62592, Note_on_c, 1, 60, 80
3, 62780, Note_off_c, 1, 60, 100
3, 62784, Note_on_c, 1, 58, 80
3, 62972, Note_off_c, 1, 58, 100
3, 62976, Note_on_c, 1, 57, 80
3, 63164, Note_off_c, 1, 57, 100
3, 63168, Note_on_c, 1, 55, 80
3, 63356, Note_off_c, 1, 55, 100
3, 63360, Note_on_c, 1, 56, 80
3, 63548, Note_off_c, 1, 56, 100
3, 63552, Note_on_c, 1, 53, 80
3, 63740, Note_off_c, 1, 53, 100
3, 63744, Note_on_c, 1, 56, 80
3, 63932, Note_off_c, 1, 56, 100
3, 63936, Note_on_c, 1, 55, 80
3, 64124, Note_off_c, 1, 55, 100
3, 64128, Note_on_c, 1, 53, 80
3, 64316, Note_off_c, 1, 53, 100
3, 64320, Note_on_c, 1, 51, 80
3, 64508, Note_off_c, 1, 51, 100
3, 64512, Note_on_c, 1, 53, 80
3, 64700, Note_off_c, 1, 53, 100
3, 64704, Note_on_c, 1, 50, 80
3, 64892, Note_off_c, 1, 50, 100
3, 64896, Note_on_c, 1, 53, 80
3, 65084, Note_off_c, 1, 53, 100
3, 65088, Note_on_c, 1, 51, 80
3, 65276, Note_off_c, 1, 51, 100
3, 65280, Note_on_c, 1, 50, 80
3, 65468, Note_off_c, 1, 50, 100
3, 65472, Note_on_c, 1, 48, 80
3, 65660, Note_off_c, 1, 48, 100
3, 65664, Note_on_c, 1, 53, 80
3, 65852, Note_off_c, 1, 53, 100
3, 65856, Note_on_c, 1, 50, 80
3, 66044, Note_off_c, 1, 50, 100
3, 66048, Note_on_c, 1, 41, 80
3, 66236, Note_off_c, 1, 41, 100
3, 66240, Note_on_c, 1, 51, 80
3, 66428, Note_off_c, 1, 51, 100
3, 66432, Note_on_c, 1, 48, 80
3, 66620, Note_off_c, 1, 48, 100
3, 66624, Note_on_c, 1, 41, 80
3, 66812, Note_off_c, 1, 41, 100
3, 66816, Note_on_c, 1, 46, 80
3, 66816, Note_on_c, 1, 34, 80
3, 67196, Note_off_c, 1, 46, 100
3, 67196, Note_off_c, 1, 34, 100
3, 67392, Note_on_c, 1, 46, 80
3, 67392, Note_on_c, 1, 53, 80
3, 67964, Note_off_c, 1, 46, 100
3, 67968, Note_on_c, 1, 57, 80
3, 67968, Note_on_c, 1, 48, 80
3, 68540, Note_off_c, 1, 57, 100
3, 68540, Note_off_c, 1, 48, 100
3, 68544, Note_on_c, 1, 58, 80
3, 68544, Note_on_c, 1, 50, 80
3, 69116, Note_off_c, 1, 53, 100
3, 69116, Note_off_c, 1, 58, 100
3, 69116, Note_off_c, 1, 50, 100
3, 69120, Note_on_c, 1, 55, 80
3, 69120, Note_on_c, 1, 51, 80
3, 69500, Note_off_c, 1, 55, 100
3, 69500, Note_off_c, 1, 51, 100
3, 69696, Note_on_c, 1, 48, 80
3, 69696, Note_on_c, 1, 55, 80
3, 70268, Note_off_c, 1, 48, 100
3, 70272, Note_on_c, 1, 50, 80
3, 70272, Note_on_c, 1, 58, 80
3, 70844, Note_off_c, 1, 50, 100
3, 70844, Note_off_c, 1, 58, 100
3, 70848, Note_on_c, 1, 51, 80
3, 70848, Note_on_c, 1, 60, 80
3, 71420, Note_off_c, 1, 55, 100
3, 71420, Note_off_c, 1, 51, 100
3, 71424, Note_on_c, 1, 53, 80
3, 71804, Note_off_c, 1, 60, 100
3, 71804, Note_off_c, 1, 53, 100
3, 72000, Note_on_c, 1, 65, 80
3, 72000, Note_on_c, 1, 53, 80
3, 72572, Note_off_c, 1, 65, 100
3, 72572, Note_off_c, 1, 53, 100
3, 72576, Note_on_c, 1, 55, 80
3, 72576, Note_on_c, 1, 64, 80
3, 73148, Note_off_c, 1, 55, 100
3, 73148, Note_off_c, 1, 64, 100
3, 73152, Note_on_c, 1, 57, 89
3, 73152, Note_on_c, 1, 63, 89
3, 73724, Note_off_c, 1, 57, 100
3, 73724, Note_off_c, 1, 63, 100
3, 73728, Note_on_c, 1, 58, 99
3, 73728, Note_on_c, 1, 62, 99
3, 74300, Note_off_c, 1, 58, 100
3, 74300, Note_off_c, 1, 62, 100
3, 74304, Note_on_c, 1, 60, 100
3, 74304, Note_on_c, 1, 57, 100
3, 74876, Note_off_c, 1, 60, 100
3, 74876, Note_off_c, 1, 57, 100
3, 74880, Note_on_c, 1, 58, 100
3, 74880, Note_on_c, 1, 55, 100
3, 75452, Note_off_c, 1, 58, 100
3, 75452, Note_off_c, 1, 55, 100
3, 75456, Note_on_c, 1, 58, 91
3, 75456, Note_on_c, 1, 48, 91
3, 76028, Note_off_c, 1, 58, 100
3, 76028, Note_off_c, 1, 48, 100
3, 76032, Note_on_c, 1, 57, 80
3, 76032, Note_on_c, 1, 53, 80
3, 76412, Note_off_c, 1, 57, 100
3, 76412, Note_off_c, 1, 53, 100
3, 76608, Note_on_c, 1, 58, 80
3, 76608, Note_on_c, 1, 46, 80
3, 76608, Note_on_c, 1, 53, 80
3, 77180, Note_off_c, 1, 58, 100
3, 77180, Note_off_c, 1, 46, 100
3, 77184, Note_on_c, 1, 57, 80
3, 77184, Note_on_c, 1, 48, 80
3, 77756, Note_off_c, 1, 57, 100
3, 77756, Note_off_c, 1, 48, 100
3, 77760, Note_on_c, 1, 58, 80
3, 77760, Note_on_c, 1, 50, 80
3, 78332, Note_off_c, 1, 53, 100
3, 78332, Note_off_c, 1, 58, 100
3, 78332, Note_off_c, 1, 50, 100
3, 78336, Note_on_c, 1, 55, 80
3, 78336, Note_on_c, 1, 51, 80
3, 78716, Note_off_c, 1, 55, 100
3, 78716, Note_off_c, 1, 51, 100
3, 78912, Note_on_c, 1, 48, 80
3, 78912, Note_on_c, 1, 55, 80
3, 79484, Note_off_c, 1, 48, 100
3, 79488, Note_on_c, 1, 59, 80
3, 79488, Note_on_c, 1, 50, 80
3, 80060, Note_off_c, 1, 59, 100
3, 80060, Note_off_c, 1, 50, 100
3, 80064, Note_on_c, 1, 51, 80
3, 80064, Note_on_c, 1, 60, 80
3, 80636, Note_off_c, 1, 55, 100
3, 80636, Note_off_c, 1, 51, 100
3, 80640, Note_on_c, 1, 53, 80
3, 81020, Note_off_c, 1, 60, 100
3, 81020, Note_off_c, 1, 53, 100
3, 81408, Note_on_c, 1, 65, 80
3, 81596, Note_off_c, 1, 65, 100
3, 81600, Note_on_c, 1, 65, 80
3, 81788, Note_off_c, 1, 65, 100
3, 81792, Note_on_c, 1, 65, 80
3, 81980, Note_off_c, 1, 65, 100
3, 81984, Note_on_c, 1, 64, 80
3, 82172, Note_off_c, 1, 64, 100
3, 82176, Note_on_c, 1, 64, 80
3, 82364, Note_off_c, 1, 64, 100
3, 82560, Note_on_c, 1, 63, 80
3, 82748, Note_off_c, 1, 63, 100
3, 82752, Note_on_c, 1, 63, 80
3, 82940, Note_off_c, 1, 63, 100
3, 82944, Note_on_c, 1, 63, 80
3, 83132, Note_off_c, 1, 63, 100
3, 83136, Note_on_c, 1, 62, 80
3, 83324, Note_off_c, 1, 62, 100
3, 83328, Note_on_c, 1, 62, 80
3, 83516, Note_off_c, 1, 62, 100
3, 83520, Note_on_c, 1, 53, 80
3, 83712, Note_on_c, 1, 62, 80
3, 83712, Note_on_c, 1, 65, 80
3, 83900, Note_off_c, 1, 53, 100
3, 83900, Note_off_c, 1, 62, 100
3, 83900, Note_off_c, 1, 65, 100
3, 83904, Note_on_c, 1, 62, 80
3, 83904, Note_on_c, 1, 65, 80
3, 84092, Note_off_c, 1, 62, 100
3, 84092, Note_off_c, 1, 65, 100
3, 84096, Note_on_c, 1, 41, 80
3, 84288, Note_on_c, 1, 60, 80
3, 84288, Note_on_c, 1, 63, 80
3, 84476, Note_off_c, 1, 41, 100
3, 84476, Note_off_c, 1, 60, 100
3, 84476, Note_off_c, 1, 63, 100
3, 84480, Note_on_c, 1, 60, 80
3, 84480, Note_on_c, 1, 63, 80
3, 84668, Note_off_c, 1, 60, 100
3, 84668, Note_off_c, 1, 63, 100
3, 84672, Note_on_c, 1, 53, 80
3, 84864, Note_on_c, 1, 58, 80
3, 84864, Note_on_c, 1, 62, 80
3, 85052, Note_off_c, 1, 53, 100
3, 85052, Note_off_c, 1, 58, 100
3, 85052, Note_off_c, 1, 62, 100
3, 85056, Note_on_c, 1, 58, 80
3, 85056, Note_on_c, 1, 62, 80
3, 85244, Note_off_c, 1, 58, 100
3, 85244, Note_off_c, 1, 62, 100
3, 85248, Note_on_c, 1, 41, 80
3, 85440, Note_on_c, 1, 57, 80
3, 85440, Note_on_c, 1, 60, 80
3, 85628, Note_off_c, 1, 41, 100
3, 85628, Note_off_c, 1, 57, 100
3, 85628, Note_off_c, 1, 60, 100
3, 85632, Note_on_c, 1, 57, 80
3, 85632, Note_on_c, 1, 60, 80
3, 85820, Note_off_c, 1, 57, 100
3, 85820, Note_off_c, 1, 60, 100
3, 85824, Note_on_c, 1, 53, 80
3, 86016, Note_on_c, 1, 55, 80
3, 86016, Note_on_c, 1, 58, 80
3, 86204, Note_off_c, 1, 53, 100
3, 86204, Note_off_c, 1, 55, 100
3, 86204, Note_off_c, 1, 58, 100
3, 86208, Note_on_c, 1, 55, 80
3, 86208, Note_on_c, 1, 58, 80
3, 86396, Note_off_c, 1, 55, 100
3, 86396, Note_off_c, 1, 58, 100
3, 86400, Note_on_c, 1, 41, 80
3, 86592, Note_on_c, 1, 57, 81
3, 86592, Note_on_c, 1, 53, 81
3, 86780, Note_off_c, 1, 41, 100
3, 86780, Note_off_c, 1, 57, 100
3, 86780, Note_off_c, 1, 53, 100
3, 86784, Note_on_c, 1, 53, 83
3, 86784, Note_on_c, 1, 57, 83
3, 86972, Note_off_c, 1, 53, 100
3, 86972, Note_off_c, 1, 57, 100
3, 86976, Note_on_c, 1, 41, 85
3, 87168, Note_on_c, 1, 51, 87
3, 87168, Note_on_c, 1, 55, 87
3, 87356, Note_off_c, 1, 41, 100
3, 87356, Note_off_c, 1, 51, 100
3, 87356, Note_off_c, 1, 55, 100
3, 87360, Note_on_c, 1, 55, 88
3, 87360, Note_on_c, 1, 51, 88
3, 87548, Note_off_c, 1, 55, 100
3, 87548, Note_off_c, 1, 51, 100
3, 87552, Note_on_c, 1, 41, 90
3, 87744, Note_on_c, 1, 53, 92
3, 87744, Note_on_c, 1, 50, 92
3, 87932, Note_off_c, 1, 41, 100
3, 87932, Note_off_c, 1, 53, 100
3, 87932, Note_off_c, 1, 50, 100
3, 87936, Note_on_c, 1, 50, 94
3, 87936, Note_on_c, 1, 53, 94
3, 88124, Note_off_c, 1, 50, 100
3, 88124, Note_off_c, 1, 53, 100
3, 88128, Note_on_c, 1, 41, 95
3, 88320, Note_on_c, 1, 48, 97
3, 88320, Note_on_c, 1, 51, 97
3, 88508, Note_off_c, 1, 41, 100
3, 88508, Note_off_c, 1, 48, 100
3, 88508, Note_off_c, 1, 51, 100
3, 88512, Note_on_c, 1, 51, 99
3, 88512, Note_on_c, 1, 48, 99
3, 88700, Note_off_c, 1, 51, 100
3, 88700, Note_off_c, 1, 48, 100
3, 88704, Note_on_c, 1, 41, 101
3, 88896, Note_on_c, 1, 46, 102
3, 88896, Note_on_c, 1, 50, 102
3, 89084, Note_off_c, 1, 41, 100
3, 89084, Note_off_c, 1, 46, 100
3, 89084, Note_off_c, 1, 50, 100
3, 89088, Note_on_c, 1, 50, 104
3, 89088, Note_on_c, 1, 46, 104
3, 89276, Note_off_c, 1, 50, 100
3, 89276, Note_off_c, 1, 46, 100
3, 89280, Note_on_c, 1, 41, 106
3, 89472, Note_on_c, 1, 45, 108
3, 89472, Note_on_c, 1, 48, 108
3, 89660, Note_off_c, 1, 41, 100
3, 89660, Note_off_c, 1, 45, 100
3, 89660, Note_off_c, 1, 48, 100
3, 89664, Note_on_c, 1, 48, 109
3, 89664, Note_on_c, 1, 45, 109
3, 89852, Note_off_c, 1, 48, 100
3, 89852, Note_off_c, 1, 45, 100
3, 89856, Note_on_c, 1, 42, 120
3, 89856, Note_on_c, 1, 36, 120
3, 89856, Note_on_c, 1, 30, 120
3, 90044, Note_off_c, 1, 42, 100
3, 90044, Note_off_c, 1, 36, 100
3, 90044, Note_off_c, 1, 30, 100
3, 90048, Note_on_c, 1, 42, 120
3, 90048, Note_on_c, 1, 36, 120
3, 90048, Note_on_c, 1, 30, 120
3, 90236, Note_off_c, 1, 42, 100
3, 90236, Note_off_c, 1, 36, 100
3, 90236, Note_off_c, 1, 30, 100
3, 90240, Note_on_c, 1, 42, 120
3, 90240, Note_on_c, 1, 36, 120
3, 90240, Note_on_c, 1, 30, 120
3, 90428, Note_off_c, 1, 42, 100
3, 90428, Note_off_c, 1, 36, 100
3, 90428, Note_off_c, 1, 30, 100
3, 90432, Note_on_c, 1, 42, 120
3, 90432, Note_on_c, 1, 36, 120
3, 90432, Note_on_c, 1, 30, 120
3, 90620, Note_off_c, 1, 42, 100
3, 90620, Note_off_c, 1, 36, 100
3, 90620, Note_off_c, 1, 30, 100
3, 90624, Note_on_c, 1, 42, 120
3, 90624, Note_on_c, 1, 36, 120
3, 90624, Note_on_c, 1, 30, 120
3, 90812, Note_off_c, 1, 42, 100
3, 90812, Note_off_c, 1, 36, 100
3, 90812, Note_off_c, 1, 30, 100
3, 90816, Note_on_c, 1, 42, 120
3, 90816, Note_on_c, 1, 36, 120
3, 90816, Note_on_c, 1, 30, 120
3, 91004, Note_off_c, 1, 42, 100
3, 91004, Note_off_c, 1, 36, 100
3, 91004, Note_off_c, 1, 30, 100
3, 91008, Note_on_c, 1, 42, 120
3, 91008, Note_on_c, 1, 36, 120
3, 91008, Note_on_c, 1, 30, 120
3, 91196, Note_off_c, 1, 42, 100
3, 91196, Note_off_c, 1, 36, 100
3, 91196, Note_off_c, 1, 30, 100
3, 91200, Note_on_c, 1, 42, 120
3, 91200, Note_on_c, 1, 36, 120
3, 91200, Note_on_c, 1, 30, 120
3, 91388, Note_off_c, 1, 42, 100
3, 91388, Note_off_c, 1, 36, 100
3, 91388, Note_off_c, 1, 30, 100
3, 91392, Note_on_c, 1, 42, 120
3, 91392, Note_on_c, 1, 36, 120
3, 91392, Note_on_c, 1, 30, 120
3, 91580, Note_off_c, 1, 42, 100
3, 91580, Note_off_c, 1, 36, 100
3, 91580, Note_off_c, 1, 30, 100
3, 91584, Note_on_c, 1, 42, 120
3, 91584, Note_on_c, 1, 36, 120
3, 91584, Note_on_c, 1, 30, 120
3, 91772, Note_off_c, 1, 42, 100
3, 91772, Note_off_c, 1, 36, 100
3, 91772, Note_off_c, 1, 30, 100
3, 91776, Note_on_c, 1, 42, 120
3, 91776, Note_on_c, 1, 36, 120
3, 91776, Note_on_c, 1, 30, 120
3, 91964, Note_off_c, 1, 42, 100
3, 91964, Note_off_c, 1, 36, 100
3, 91964, Note_off_c, 1, 30, 100
3, 91968, Note_on_c, 1, 42, 120
3, 91968, Note_on_c, 1, 36, 120
3, 91968, Note_on_c, 1, 30, 120
3, 92156, Note_off_c, 1, 42, 100
3, 92156, Note_off_c, 1, 36, 100
3, 92156, Note_off_c, 1, 30, 100
3, 92160, Note_on_c, 1, 43, 120
3, 92160, Note_on_c, 1, 36, 120
3, 92160, Note_on_c, 1, 31, 120
3, 92540, Note_off_c, 1, 43, 100
3, 92540, Note_off_c, 1, 36, 100
3, 92540, Note_off_c, 1, 31, 100
3, 92736, Note_on_c, 1, 43, 70
3, 92736, Note_on_c, 1, 52, 70
3, 93308, Note_off_c, 1, 52, 100
3, 93312, Note_on_c, 1, 53, 70
3, 93884, Note_off_c, 1, 53, 100
3, 93888, Note_on_c, 1, 47, 70
3, 94460, Note_off_c, 1, 43, 100
3, 94460, Note_off_c, 1, 47, 100
3, 94464, Note_on_c, 1, 43, 71
3, 94464, Note_on_c, 1, 48, 71
3, 95036, Note_off_c, 1, 48, 100
3, 95040, Note_on_c, 1, 52, 71
3, 95612, Note_off_c, 1, 52, 100
3, 95616, Note_on_c, 1, 53, 72
3, 96188, Note_off_c, 1, 53, 100
3, 96192, Note_on_c, 1, 47, 72
3, 96764, Note_off_c, 1, 43, 100
3, 96764, Note_off_c, 1, 47, 100
3, 96768, Note_on_c, 1, 43, 73
3, 96768, Note_on_c, 1, 48, 73
3, 97148, Note_off_c, 1, 48, 100
3, 97344, Note_on_c, 1, 48, 73
3, 97916, Note_off_c, 1, 48, 100
3, 97920, Note_on_c, 1, 47, 73
3, 98492, Note_off_c, 1, 47, 100
3, 98496, Note_on_c, 1, 53, 74
3, 99068, Note_off_c, 1, 43, 100
3, 99068, Note_off_c, 1, 53, 100
3, 99072, Note_on_c, 1, 52, 74
3, 99072, Note_on_c, 1, 43, 74
3, 99644, Note_off_c, 1, 52, 100
3, 99648, Note_on_c, 1, 48, 75
3, 100220, Note_off_c, 1, 48, 100
3, 100224, Note_on_c, 1, 47, 75
3, 100796, Note_off_c, 1, 47, 100
3, 100800, Note_on_c, 1, 53, 76
3, 101372, Note_off_c, 1, 43, 100
3, 101372, Note_off_c, 1, 53, 100
3, 101376, Note_on_c, 1, 52, 76
3, 101376, Note_on_c, 1, 48, 76
3, 101948, Note_off_c, 1, 52, 100
3, 101948, Note_off_c, 1, 48, 100
3, 101952, Note_on_c, 1, 55, 77
3, 101952, Note_on_c, 1, 46, 77
3, 102524, Note_off_c, 1, 55, 100
3, 102524, Note_off_c, 1, 46, 100
3, 102528, Note_on_c, 1, 45, 77
3, 102528, Note_on_c, 1, 53, 77
3, 103100, Note_off_c, 1, 45, 100
3, 103104, Note_on_c, 1, 46, 77
3, 103104, Note_on_c, 1, 58, 77
3, 103676, Note_off_c, 1, 53, 100
3, 103676, Note_off_c, 1, 46, 100
3, 103676, Note_off_c, 1, 58, 100
3, 103680, Note_on_c, 1, 50, 78
3, 103680, Note_on_c, 1, 54, 78
3, 103680, Note_on_c, 1, 42, 78
3, 104252, Note_off_c, 1, 54, 100
3, 104252, Note_off_c, 1, 42, 100
3, 104256, Note_on_c, 1, 55, 78
3, 104256, Note_on_c, 1, 43, 78
3, 104828, Note_off_c, 1, 50, 100
3, 104828, Note_off_c, 1, 55, 100
3, 104828, Note_off_c, 1, 43, 100
3, 104832, Note_on_c, 1, 51, 79
3, 104832, Note_on_c, 1, 39, 79
3, 105212, Note_off_c, 1, 51, 100
3, 105212, Note_off_c, 1, 39, 100
3, 105408, Note_on_c, 1, 53, 79
3, 105408, Note_on_c, 1, 41, 79
3, 105788, Note_off_c, 1, 53, 100
3, 105788, Note_off_c, 1, 41, 100
3, 105984, Note_on_c, 1, 46, 110
3, 105984, Note_on_c, 1, 34, 110
3, 106172, Note_off_c, 1, 46, 100
3, 106172, Note_off_c, 1, 34, 100
3, 106176, Note_on_c, 1, 46, 100
3, 106364, Note_off_c, 1, 46, 100
3, 106368, Note_on_c, 1, 46, 100
3, 106556, Note_off_c, 1, 46, 100
3, 106560, Note_on_c, 1, 46, 100
3, 106748, Note_off_c, 1, 46, 100
3, 106752, Note_on_c, 1, 45, 100
3, 106940, Note_off_c, 1, 45, 100
3, 106944, Note_on_c, 1, 46, 100
3, 107132, Note_off_c, 1, 46, 100
3, 107136, Note_on_c, 1, 50, 110
3, 107136, Note_on_c, 1, 38, 110
3, 107324, Note_off_c, 1, 50, 100
3, 107324, Note_off_c, 1, 38, 100
3, 107328, Note_on_c, 1, 50, 100
3, 107516, Note_off_c, 1, 50, 100
3, 107520, Note_on_c, 1, 50, 100
3, 107708, Note_off_c, 1, 50, 100
3, 107712, Note_on_c, 1, 50, 100
3, 107900, Note_off_c, 1, 50, 100
3, 107904, Note_on_c, 1, 49, 100
3, 108092, Note_off_c, 1, 49, 100
3, 108096, Note_on_c, 1, 50, 100
3, 108284, Note_off_c, 1, 50, 100
3, 108288, Note_on_c, 1, 53, 110
3, 108288, Note_on_c, 1, 41, 110
3, 108476, Note_off_c, 1, 53, 100
3, 108476, Note_off_c, 1, 41, 100
3, 108480, Note_on_c, 1, 53, 100
3, 108668, Note_off_c, 1, 53, 100
3, 108672, Note_on_c, 1, 53, 100
3, 108860, Note_off_c, 1, 53, 100
3, 108864, Note_on_c, 1, 53, 100
3, 109052, Note_off_c, 1, 53, 100
3, 109056, Note_on_c, 1, 52, 100
3, 109244, Note_off_c, 1, 52, 100
3, 109248, Note_on_c, 1, 53, 100
3, 109436, Note_off_c, 1, 53, 100
3, 109440, Note_on_c, 1, 46, 110
3, 109440, Note_on_c, 1, 58, 110
3, 109628, Note_off_c, 1, 46, 100
3, 109628, Note_off_c, 1, 58, 100
3, 109632, Note_on_c, 1, 58, 100
3, 109820, Note_off_c, 1, 58, 100
3, 109824, Note_on_c, 1, 58, 100
3, 110012, Note_off_c, 1, 58, 100
3, 110016, Note_on_c, 1, 58, 100
3, 110204, Note_off_c, 1, 58, 100
3, 110208, Note_on_c, 1, 57, 100
3, 110396, Note_off_c, 1, 57, 100
3, 110400, Note_on_c, 1, 58, 100
3, 110588, Note_off_c, 1, 58, 100
3, 110592, Note_on_c, 1, 58, 110
3, 110592, Note_on_c, 1, 55, 110
3, 111740, Note_off_c, 1, 58, 100
3, 111740, Note_off_c, 1, 55, 100
3, 111744, Note_on_c, 1, 63, 120
3, 111744, Note_on_c, 1, 61, 120
3, 111744, Note_on_c, 1, 58, 120
3, 111744, Note_on_c, 1, 54, 120
3, 112892, Note_off_c, 1, 63, 100
3, 112892, Note_off_c, 1, 61, 100
3, 112892, Note_off_c, 1, 58, 100
3, 112892, Note_off_c, 1, 54, 100
3, 112896, Note_on_c, 1, 53, 120
3, 112896, Note_on_c, 1, 58, 120
3, 112896, Note_on_c, 1, 62, 120
3, 112896, Note_on_c, 1, 65, 120
3, 113084, Note_off_c, 1, 53, 100
3, 113084, Note_off_c, 1, 58, 100
3, 113084, Note_off_c, 1, 62, 100
3, 113084, Note_off_c, 1, 65, 100
3, 113088, Note_on_c, 1, 53, 120
3, 113276, Note_off_c, 1, 53, 100
3, 113280, Note_on_c, 1, 53, 120
3, 113468, Note_off_c, 1, 53, 100
3, 113664, Note_on_c, 1, 53, 120
3, 113852, Note_off_c, 1, 53, 100
3, 113856, Note_on_c, 1, 53, 120
3, 114044, Note_off_c, 1, 53, 100
3, 114240, Note_on_c, 1, 41, 120
3, 114428, Note_off_c, 1, 41, 100
3, 114432, Note_on_c, 1, 41, 120
3, 114620, Note_off_c, 1, 41, 100
3, 114816, Note_on_c, 1, 41, 120
3, 115004, Note_off_c, 1, 41, 100
3, 115008, Note_on_c, 1, 41, 120
3, 115196, Note_off_c, 1, 41, 100
3, 115200, Note_on_c, 1, 34, 120
3, 115388, Note_off_c, 1, 34, 100
3, 115392, Note_on_c, 1, 46, 120
3, 115580, Note_off_c, 1, 46, 100
3, 115584, Note_on_c, 1, 46, 120
3, 115772, Note_off_c, 1, 46, 100
3, 115776, Note_on_c, 1, 46, 120
3, 115964, Note_off_c, 1, 46, 100
3, 115968, Note_on_c, 1, 45, 120
3, 116156, Note_off_c, 1, 45, 100
3, 116160, Note_on_c, 1, 46, 120
3, 116348, Note_off_c, 1, 46, 100
3, 116352, Note_on_c, 1, 38, 120
3, 116540, Note_off_c, 1, 38, 100
3, 116544, Note_on_c, 1, 50, 120
3, 116732, Note_off_c, 1, 50, 100
3, 116736, Note_on_c, 1, 50, 120
3, 116924, Note_off_c, 1, 50, 100
3, 116928, Note_on_c, 1, 50, 120
3, 117116, Note_off_c, 1, 50, 100
3, 117120, Note_on_c, 1, 49, 120
3, 117308, Note_off_c, 1, 49, 100
3, 117312, Note_on_c, 1, 50, 120
3, 117500, Note_off_c, 1, 50, 100
3, 117504, Note_on_c, 1, 41, 120
3, 117692, Note_off_c, 1, 41, 100
3, 117696, Note_on_c, 1, 53, 120
3, 117884, Note_off_c, 1, 53, 100
3, 117888, Note_on_c, 1, 53, 120
3, 118076, Note_off_c, 1, 53, 100
3, 118080, Note_on_c, 1, 53, 120
3, 118268, Note_off_c, 1, 53, 100
3, 118272, Note_on_c, 1, 52, 120
3, 118460, Note_off_c, 1, 52, 100
3, 118464, Note_on_c, 1, 53, 120
3, 118652, Note_off_c, 1, 53, 100
3, 118656, Note_on_c, 1, 46, 120
3, 118844, Note_off_c, 1, 46, 100
3, 118848, Note_on_c, 1, 58, 120
3, 119036, Note_off_c, 1, 58, 100
3, 119040, Note_on_c, 1, 58, 120
3, 119228, Note_off_c, 1, 58, 100
3, 119232, Note_on_c, 1, 58, 120
3, 119420, Note_off_c, 1, 58, 100
3, 119424, Note_on_c, 1, 57, 120
3, 119612, Note_off_c, 1, 57, 100
3, 119616, Note_on_c, 1, 58, 120
3, 119804, Note_off_c, 1, 58, 100
3, 119808, Note_on_c, 1, 55, 100
3, 119808, Note_on_c, 1, 46, 100
3, 119808, Note_on_c, 1, 43, 100
3, 120956, Note_off_c, 1, 55, 100
3, 120956, Note_off_c, 1, 46, 100
3, 120956, Note_off_c, 1, 43, 100
3, 120960, Note_on_c, 1, 54, 105
3, 120960, Note_on_c, 1, 46, 105
3, 120960, Note_on_c, 1, 42, 105
3, 122108, Note_off_c, 1, 54, 100
3, 122108, Note_off_c, 1, 46, 100
3, 122108, Note_off_c, 1, 42, 100
3, 122112, Note_on_c, 1, 53, 110
3, 122112, Note_on_c, 1, 46, 110
3, 122112, Note_on_c, 1, 41, 110
3, 123260, Note_off_c, 1, 53, 100
3, 123260, Note_off_c, 1, 46, 100
3, 123260, Note_off_c, 1, 41, 100
3, 123264, Note_on_c, 1, 52, 115
3, 123264, Note_on_c, 1, 46, 115
3, 123264, Note_on_c, 1, 40, 115
3, 124412, Note_off_c, 1, 52, 100
3, 124412, Note_off_c, 1, 46, 100
3, 124412, Note_off_c, 1, 40, 100
3, 124416, Note_on_c, 1, 53, 115
3, 124416, Note_on_c, 1, 46, 115
3, 124416, Note_on_c, 1, 41, 115
3, 124796, Note_off_c, 1, 53, 100
3, 124796, Note_off_c, 1, 46, 100
3, 124796, Note_off_c, 1, 41, 100
3, 124992, Note_on_c, 1, 58, 115
3, 124992, Note_on_c, 1, 62, 115
3, 124992, Note_on_c, 1, 53, 115
3, 125372, Note_off_c, 1, 58, 100
3, 125372, Note_off_c, 1, 62, 100
3, 125372, Note_off_c, 1, 53, 100
3, 125568, Note_on_c, 1, 53, 115
3, 125568, Note_on_c, 1, 58, 115
3, 125568, Note_on_c, 1, 62, 115
3, 125948, Note_off_c, 1, 53, 100
3, 125948, Note_off_c, 1, 58, 100
3, 125948, Note_off_c, 1, 62, 100
3, 126144, Note_on_c, 1, 63, 115
3, 126144, Note_on_c, 1, 60, 115
3, 126144, Note_on_c, 1, 53, 115
3, 126524, Note_off_c, 1, 63, 100
3, 126524, Note_off_c, 1, 60, 100
3, 126524, Note_off_c, 1, 53, 100
3, 126720, Note_on_c, 1, 58, 100
3, 126720, Note_on_c, 1, 62, 100
3, 127100, Note_off_c, 1, 58, 100
3, 127100, Note_off_c, 1, 62, 100
3, 127296, Note_on_c, 1, 46, 110
3, 129596, Note_off_c, 1, 46, 100
3, 129600, Note_on_c, 1, 58, 110
3, 131900, Note_off_c, 1, 58, 100
3, 131904, Note_on_c, 1, 46, 110
3, 134204, Note_off_c, 1, 46, 100
3, 134208, Note_on_c, 1, 34, 110
3, 136508, Note_off_c, 1, 34, 100
3, 136512, Note_on_c, 1, 46, 110
3, 138812, Note_off_c, 1, 46, 100
3, 138816, Note_on_c, 1, 58, 110
3, 141116, Note_off_c, 1, 58, 100
3, 141120, Note_on_c, 1, 46, 110
3, 143420, Note_off_c, 1, 46, 100
3, 143424, Note_on_c, 1, 34, 110
3, 145532, Note_off_c, 1, 34, 100
3, 145536, Note_on_c, 1, 50, 115
3, 146108, Note_off_c, 1, 50, 100
3, 146112, Note_on_c, 1, 46, 100
3, 146300, Note_off_c, 1, 46, 100
3, 146304, Note_on_c, 1, 41, 100
3, 146684, Note_off_c, 1, 41, 100
3, 146688, Note_on_c, 1, 60, 100
3, 146688, Note_on_c, 1, 53, 100
3, 147260, Note_off_c, 1, 60, 100
3, 147264, Note_on_c, 1, 57, 100
3, 147452, Note_off_c, 1, 53, 100
3, 147452, Note_off_c, 1, 57, 100
3, 147456, Note_on_c, 1, 58, 100
3, 147456, Note_on_c, 1, 46, 100
3, 147836, Note_off_c, 1, 58, 100
3, 147836, Note_off_c, 1, 46, 100
3, 147840, Note_on_c, 1, 50, 115
3, 148412, Note_off_c, 1, 50, 100
3, 148416, Note_on_c, 1, 46, 100
3, 148604, Note_off_c, 1, 46, 100
3, 148608, Note_on_c, 1, 41, 100
3, 148988, Note_off_c, 1, 41, 100
3, 148992, Note_on_c, 1, 60, 100
3, 148992, Note_on_c, 1, 53, 100
3, 149564, Note_off_c, 1, 60, 100
3, 149568, Note_on_c, 1, 57, 100
3, 149756, Note_off_c, 1, 53, 100
3, 149756, Note_off_c, 1, 57, 100
3, 149760, Note_on_c, 1, 58, 100
3, 150140, Note_off_c, 1, 58, 100
3, 150144, Note_on_c, 1, 50, 115
3, 150716, Note_off_c, 1, 50, 100
3, 150720, Note_on_c, 1, 46, 100
3, 150908, Note_off_c, 1, 46, 100
3, 150912, Note_on_c, 1, 41, 100
3, 151292, Note_off_c, 1, 41, 100
3, 151296, Note_on_c, 1, 65, 120
3, 151296, Note_on_c, 1, 63, 120
3, 151296, Note_on_c, 1, 60, 120
3, 151296, Note_on_c, 1, 53, 120
3, 151868, Note_off_c, 1, 65, 100
3, 151868, Note_off_c, 1, 63, 100
3, 151868, Note_off_c, 1, 60, 100
3, 151868, Note_off_c, 1, 53, 100
3, 151872, Note_on_c, 1, 63, 120
3, 151872, Note_on_c, 1, 57, 120
3, 151872, Note_on_c, 1, 53, 120
3, 152060, Note_off_c, 1, 63, 100
3, 152060, Note_off_c, 1, 57, 100
3, 152060, Note_off_c, 1, 53, 100
3, 152064, Note_on_c, 1, 62, 120
3, 152064, Note_on_c, 1, 58, 120
3, 152444, Note_off_c, 1, 62, 100
3, 152444, Note_off_c, 1, 58, 100
3, 152448, Note_on_c, 1, 65, 120
3, 152636, Note_off_c, 1, 65, 100
3, 152640, Note_on_c, 1, 62, 120
3, 153020, Note_off_c, 1, 62, 100
3, 153024, Note_on_c, 1, 58, 120
3, 153212, Note_off_c, 1, 58, 100
3, 153216, Note_on_c, 1, 53, 120
3, 153596, Note_off_c, 1, 53, 100
3, 153600, Note_on_c, 1, 50, 120
3, 153788, Note_off_c, 1, 50, 100
3, 153792, Note_on_c, 1, 46, 120
3, 154172, Note_off_c, 1, 46, 100
3, 154176, Note_on_c, 1, 41, 120
3, 154364, Note_off_c, 1, 41, 100
3, 154368, Note_on_c, 1, 46, 120
3, 154748, Note_off_c, 1, 46, 100
3, 154944, Note_on_c, 1, 46, 120
3, 154944, Note_on_c, 1, 34, 120
3, 155324, Note_off_c, 1, 46, 100
3, 155324, Note_off_c, 1, 34, 100
3, 155520, Note_on_c, 1, 46, 120
3, 155520, Note_on_c, 1, 34, 120
3, 155900, Note_off_c, 1, 46, 100
3, 155900, Note_off_c, 1, 34, 100
3, 156672, Note_on_c, 1, 39, 80
3, 156860, Note_off_c, 1, 39, 100
3, 156864, Note_on_c, 1, 51, 80
3, 157052, Note_off_c, 1, 51, 100
3, 157056, Note_on_c, 1, 51, 80
3, 157244, Note_off_c, 1, 51, 100
3, 157248, Note_on_c, 1, 51, 80
3, 157436, Note_off_c, 1, 51, 100
3, 157440, Note_on_c, 1, 51, 80
3, 157628, Note_off_c, 1, 51, 100
3, 157632, Note_on_c, 1, 51, 80
3, 157820, Note_off_c, 1, 51, 100
3, 157824, Note_on_c, 1, 51, 80
3, 158012, Note_off_c, 1, 51, 100
3, 158016, Note_on_c, 1, 51, 80
3, 158204, Note_off_c, 1, 51, 100
3, 158208, Note_on_c, 1, 51, 80
3, 158396, Note_off_c, 1, 51, 100
3, 158400, Note_on_c, 1, 51, 80
3, 158588, Note_off_c, 1, 51, 100
3, 158592, Note_on_c, 1, 51, 80
3, 158780, Note_off_c, 1, 51, 100
3, 158784, Note_on_c, 1, 51, 80
3, 158972, Note_off_c, 1, 51, 100
3, 158976, Note_on_c, 1, 39, 100
3, 159164, Note_off_c, 1, 39, 100
3, 159168, Note_on_c, 1, 51, 100
3, 159356, Note_off_c, 1, 51, 100
3, 159360, Note_on_c, 1, 51, 100
3, 159548, Note_off_c, 1, 51, 100
3, 159552, Note_on_c, 1, 51, 100
3, 159740, Note_off_c, 1, 51, 100
3, 159744, Note_on_c, 1, 51, 100
3, 159932, Note_off_c, 1, 51, 100
3, 159936, Note_on_c, 1, 51, 100
3, 160124, Note_off_c, 1, 51, 100
3, 160128, Note_on_c, 1, 51, 100
3, 160316, Note_off_c, 1, 51, 100
3, 160320, Note_on_c, 1, 51, 100
3, 160508, Note_off_c, 1, 51, 100
3, 160512, Note_on_c, 1, 51, 100
3, 160700, Note_off_c, 1, 51, 100
3, 160704, Note_on_c, 1, 51, 100
3, 160892, Note_off_c, 1, 51, 100
3, 160896, Note_on_c, 1, 51, 100
3, 161084, Note_off_c, 1, 51, 100
3, 161088, Note_on_c, 1, 51, 80
3, 161276, Note_off_c, 1, 51, 100
3, 161280, Note_on_c, 1, 63, 80
3, 161280, Note_on_c, 1, 55, 80
3, 161280, Note_on_c, 1, 51, 80
3, 161852, Note_off_c, 1, 55, 100
3, 161852, Note_off_c, 1, 51, 100
3, 161856, Note_on_c, 1, 56, 80
3, 161856, Note_on_c, 1, 53, 80
3, 162428, Note_off_c, 1, 56, 100
3, 162428, Note_off_c, 1, 53, 100
3, 162432, Note_on_c, 1, 55, 80
3, 162432, Note_on_c, 1, 58, 80
3, 162812, Note_off_c, 1, 63, 100
3, 162812, Note_off_c, 1, 55, 100
3, 162812, Note_off_c, 1, 58, 100
3, 163584, Note_on_c, 1, 70, 80
3, 163584, Note_on_c, 1, 62, 80
3, 163584, Note_on_c, 1, 58, 80
3, 164156, Note_off_c, 1, 62, 100
3, 164156, Note_off_c, 1, 58, 100
3, 164160, Note_on_c, 1, 63, 80
3, 164160, Note_on_c, 1, 60, 80
3, 164732, Note_off_c, 1, 63, 100
3, 164732, Note_off_c, 1, 60, 100
3, 164736, Note_on_c, 1, 65, 80
3, 164736, Note_on_c, 1, 62, 80
3, 165116, Note_off_c, 1, 70, 100
3, 165116, Note_off_c, 1, 65, 100
3, 165116, Note_off_c, 1, 62, 100
3, 165888, Note_on_c, 1, 75, 80
3, 165888, Note_on_c, 1, 67, 80
3, 165888, Note_on_c, 1, 63, 80
3, 166460, Note_off_c, 1, 67, 100
3, 166460, Note_off_c, 1, 63, 100
3, 166464, Note_on_c, 1, 68, 87
3, 166464, Note_on_c, 1, 65, 87
3, 167036, Note_off_c, 1, 68, 100
3, 167036, Note_off_c, 1, 65, 100
3, 167040, Note_on_c, 1, 70, 94
3, 167040, Note_on_c, 1, 67, 94
3, 167612, Note_off_c, 1, 75, 100
3, 167612, Note_off_c, 1, 70, 100
3, 167612, Note_off_c, 1, 67, 100
3, 167616, Note_on_c, 1, 73, 100
3, 167616, Note_on_c, 1, 70, 100
3, 167616, Note_on_c, 1, 67, 100
3, 167616, Note_on_c, 1, 75, 100
3, 168188, Note_off_c, 1, 73, 100
3, 168188, Note_off_c, 1, 70, 100
3, 168188, Note_off_c, 1, 67, 100
3, 168192, Note_on_c, 1, 72, 80
3, 168192, Note_on_c, 1, 68, 80
3, 168572, Note_off_c, 1, 75, 100
3, 168572, Note_off_c, 1, 72, 100
3, 168572, Note_off_c, 1, 68, 100
3, 169344, Note_on_c, 1, 67, 80
3, 169344, Note_on_c, 1, 63, 80
3, 169344, Note_on_c, 1, 58, 80
3, 169724, Note_off_c, 1, 67, 100
3, 169724, Note_off_c, 1, 63, 100
3, 169724, Note_off_c, 1, 58, 100
3, 169920, Note_on_c, 1, 68, 80
3, 169920, Note_on_c, 1, 65, 80
3, 169920, Note_on_c, 1, 58, 80
3, 170300, Note_off_c, 1, 68, 100
3, 170300, Note_off_c, 1, 65, 100
3, 170300, Note_off_c, 1, 58, 100
3, 170496, Note_on_c, 1, 63, 80
3, 170684, Note_off_c, 1, 63, 100
3, 170688, Note_on_c, 1, 62, 81
3, 170876, Note_off_c, 1, 62, 100
3, 170880, Note_on_c, 1, 65, 82
3, 171068, Note_off_c, 1, 65, 100
3, 171072, Note_on_c, 1, 63, 83
3, 171260, Note_off_c, 1, 63, 100
3, 171264, Note_on_c, 1, 62, 84
3, 171452, Note_off_c, 1, 62, 100
3, 171456, Note_on_c, 1, 65, 85
3, 171644, Note_off_c, 1, 65, 100
3, 171648, Note_on_c, 1, 63, 87
3, 171836, Note_off_c, 1, 63, 100
3, 171840, Note_on_c, 1, 62, 88
3, 172028, Note_off_c, 1, 62, 100
3, 172032, Note_on_c, 1, 65, 89
3, 172220, Note_off_c, 1, 65, 100
3, 172224, Note_on_c, 1, 63, 90
3, 172412, Note_off_c, 1, 63, 100
3, 172416, Note_on_c, 1, 62, 91
3, 172604, Note_off_c, 1, 62, 100
3, 172608, Note_on_c, 1, 60, 92
3, 172796, Note_off_c, 1, 60, 100
3, 172800, Note_on_c, 1, 58, 94
3, 172988, Note_off_c, 1, 58, 100
3, 172992, Note_on_c, 1, 57, 95
3, 173180, Note_off_c, 1, 57, 100
3, 173184, Note_on_c, 1, 60, 96
3, 173372, Note_off_c, 1, 60, 100
3, 173376, Note_on_c, 1, 58, 97
3, 173564, Note_off_c, 1, 58, 100
3, 173568, Note_on_c, 1, 56, 98
3, 173756, Note_off_c, 1, 56, 100
3, 173760, Note_on_c, 1, 55, 99
3, 173948, Note_off_c, 1, 55, 100
3, 173952, Note_on_c, 1, 53, 100
3, 173952, Note_on_c, 1, 46, 100
3, 174140, Note_off_c, 1, 53, 100
3, 174144, Note_on_c, 1, 55, 100
3, 174332, Note_off_c, 1, 55, 100
3, 174336, Note_on_c, 1, 56, 100
3, 174524, Note_off_c, 1, 56, 100
3, 174528, Note_on_c, 1, 58, 100
3, 174716, Note_off_c, 1, 58, 100
3, 174720, Note_on_c, 1, 53, 100
3, 174908, Note_off_c, 1, 53, 100
3, 174912, Note_on_c, 1, 56, 100
3, 175100, Note_off_c, 1, 46, 100
3, 175100, Note_off_c, 1, 56, 100
3, 175104, Note_on_c, 1, 51, 100
3, 175104, Note_on_c, 1, 55, 100
3, 175292, Note_off_c, 1, 55, 100
3, 175296, Note_on_c, 1, 53, 100
3, 175484, Note_off_c, 1, 51, 100
3, 175484, Note_off_c, 1, 53, 100
3, 175488, Note_on_c, 1, 55, 100
3, 175676, Note_off_c, 1, 55, 100
3, 175680, Note_on_c, 1, 56, 80
3, 175868, Note_off_c, 1, 56, 100
3, 175872, Note_on_c, 1, 58, 80
3, 176060, Note_off_c, 1, 58, 100
3, 176064, Note_on_c, 1, 60, 80
3, 176252, Note_off_c, 1, 60, 100
3, 176256, Note_on_c, 1, 62, 80
3, 176444, Note_off_c, 1, 62, 100
3, 176448, Note_on_c, 1, 63, 80
3, 176636, Note_off_c, 1, 63, 100
3, 176640, Note_on_c, 1, 65, 80
3, 176828, Note_off_c, 1, 65, 100
3, 176832, Note_on_c, 1, 67, 80
3, 177020, Note_off_c, 1, 67, 100
3, 177024, Note_on_c, 1, 68, 80
3, 177212, Note_off_c, 1, 68, 100
3, 177216, Note_on_c, 1, 70, 80
3, 177404, Note_off_c, 1, 70, 100
3, 177408, Note_on_c, 1, 68, 80
3, 177596, Note_off_c, 1, 68, 100
3, 177600, Note_on_c, 1, 67, 80
3, 177788, Note_off_c, 1, 67, 100
3, 177792, Note_on_c, 1, 65, 80
3, 177980, Note_off_c, 1, 65, 100
3, 177984, Note_on_c, 1, 63, 80
3, 178172, Note_off_c, 1, 63, 100
3, 178176, Note_on_c, 1, 62, 80
3, 178364, Note_off_c, 1, 62, 100
3, 178368, Note_on_c, 1, 60, 80
3, 178556, Note_off_c, 1, 60, 100
3, 178560, Note_on_c, 1, 58, 80
3, 178748, Note_off_c, 1, 58, 100
3, 178752, Note_on_c, 1, 60, 80
3, 178940, Note_off_c, 1, 60, 100
3, 178944, Note_on_c, 1, 58, 80
3, 179132, Note_off_c, 1, 58, 100
3, 179136, Note_on_c, 1, 56, 80
3, 179324, Note_off_c, 1, 56, 100
3, 179328, Note_on_c, 1, 55, 80
3, 179516, Note_off_c, 1, 55, 100
3, 179520, Note_on_c, 1, 53, 80
3, 179708, Note_off_c, 1, 53, 100
3, 181440, Note_on_c, 1, 63, 96
3, 181628, Note_off_c, 1, 63, 100
3, 181632, Note_on_c, 1, 65, 98
3, 181820, Note_off_c, 1, 65, 100
3, 181824, Note_on_c, 1, 67, 99
3, 182012, Note_off_c, 1, 67, 100
3, 182016, Note_on_c, 1, 65, 100
3, 182204, Note_off_c, 1, 65, 100
3, 182208, Note_on_c, 1, 63, 100
3, 182396, Note_off_c, 1, 63, 100
3, 182400, Note_on_c, 1, 62, 100
3, 182588, Note_off_c, 1, 62, 100
3, 182592, Note_on_c, 1, 60, 100
3, 182780, Note_off_c, 1, 60, 100
3, 182784, Note_on_c, 1, 58, 100
3, 182972, Note_off_c, 1, 58, 100
3, 182976, Note_on_c, 1, 56, 100
3, 183164, Note_off_c, 1, 56, 100
3, 183168, Note_on_c, 1, 55, 100
3, 183356, Note_off_c, 1, 55, 100
3, 183360, Note_on_c, 1, 56, 100
3, 183548, Note_off_c, 1, 56, 100
3, 183552, Note_on_c, 1, 55, 100
3, 183740, Note_off_c, 1, 55, 100
3, 183744, Note_on_c, 1, 53, 100
3, 183932, Note_off_c, 1, 53, 100
3, 183936, Note_on_c, 1, 51, 100
3, 184124, Note_off_c, 1, 51, 100
3, 184128, Note_on_c, 1, 50, 100
3, 184316, Note_off_c, 1, 50, 100
3, 184320, Note_on_c, 1, 49, 120
3, 184320, Note_on_c, 1, 39, 120
3, 184320, Note_on_c, 1, 37, 120
3, 185852, Note_off_c, 1, 37, 100
3, 185852, Note_off_c, 1, 39, 100
3, 185852, Note_off_c, 1, 49, 100
3, 186432, Note_on_c, 1, 63, 70
3, 186432, Note_on_c, 1, 61, 70
3, 186620, Note_off_c, 1, 63, 100
3, 186620, Note_off_c, 1, 61, 100
3, 186624, Note_on_c, 1, 60, 70
3, 186624, Note_on_c, 1, 63, 70
3, 187004, Note_off_c, 1, 60, 100
3, 187004, Note_off_c, 1, 63, 100
3, 187008, Note_on_c, 1, 60, 70
3, 187008, Note_on_c, 1, 63, 70
3, 187196, Note_off_c, 1, 60, 100
3, 187196, Note_off_c, 1, 63, 100
3, 187200, Note_on_c, 1, 60, 70
3, 187200, Note_on_c, 1, 63, 70
3, 187580, Note_off_c, 1, 60, 100
3, 187580, Note_off_c, 1, 63, 100
3, 187584, Note_on_c, 1, 60, 70
3, 187584, Note_on_c, 1, 63, 70
3, 187584, Note_on_c, 1, 68, 70
3, 187772, Note_off_c, 1, 60, 100
3, 187772, Note_off_c, 1, 63, 100
3, 187772, Note_off_c, 1, 68, 100
3, 187776, Note_on_c, 1, 60, 70
3, 187776, Note_on_c, 1, 63, 70
3, 187776, Note_on_c, 1, 68, 70
3, 188156, Note_off_c, 1, 60, 100
3, 188156, Note_off_c, 1, 63, 100
3, 188156, Note_off_c, 1, 68, 100
3, 188928, Note_on_c, 1, 51, 120
3, 188928, Note_on_c, 1, 39, 120
3, 190460, Note_off_c, 1, 39, 100
3, 190460, Note_off_c, 1, 51, 100
3, 191040, Note_on_c, 1, 63, 70
3, 191040, Note_on_c, 1, 66, 70
3, 191228, Note_off_c, 1, 63, 100
3, 191228, Note_off_c, 1, 66, 100
3, 191232, Note_on_c, 1, 61, 70
3, 191232, Note_on_c, 1, 65, 70
3, 191612, Note_off_c, 1, 61, 100
3, 191612, Note_off_c, 1, 65, 100
3, 191616, Note_on_c, 1, 65, 70
3, 191616, Note_on_c, 1, 61, 70
3, 191804, Note_off_c, 1, 65, 100
3, 191804, Note_off_c, 1, 61, 100
3, 191808, Note_on_c, 1, 61, 70
3, 191808, Note_on_c, 1, 65, 70
3, 192188, Note_off_c, 1, 61, 100
3, 192188, Note_off_c, 1, 65, 100
3, 192192, Note_on_c, 1, 61, 70
3, 192192, Note_on_c, 1, 65, 70
3, 192192, Note_on_c, 1, 70, 70
3, 192380, Note_off_c, 1, 61, 100
3, 192380, Note_off_c, 1, 65, 100
3, 192380, Note_off_c, 1, 70, 100
3, 192384, Note_on_c, 1, 61, 70
3, 192384, Note_on_c, 1, 65, 70
3, 192384, Note_on_c, 1, 70, 70
3, 192764, Note_off_c, 1, 61, 100
3, 192764, Note_off_c, 1, 65, 100
3, 192764, Note_off_c, 1, 70, 100
3, 193536, Note_on_c, 1, 54, 120
3, 193536, Note_on_c, 1, 42, 120
3, 194684, Note_off_c, 1, 54, 100
3, 194684, Note_off_c, 1, 42, 100
3, 194688, Note_on_c, 1, 66, 120
3, 194688, Note_on_c, 1, 54, 120
3, 195836, Note_off_c, 1, 66, 100
3, 195836, Note_off_c, 1, 54, 100
3, 195840, Note_on_c, 1, 53, 120
3, 195840, Note_on_c, 1, 65, 120
3, 196220, Note_off_c, 1, 65, 100
3, 196224, Note_on_c, 1, 60, 80
3, 196412, Note_off_c, 1, 60, 100
3, 196416, Note_on_c, 1, 65, 80
3, 196796, Note_off_c, 1, 65, 100
3, 196800, Note_on_c, 1, 63, 80
3, 196988, Note_off_c, 1, 63, 100
3, 196992, Note_on_c, 1, 61, 80
3, 197372, Note_off_c, 1, 61, 100
3, 197376, Note_on_c, 1, 58, 80
3, 197564, Note_off_c, 1, 58, 100
3, 197568, Note_on_c, 1, 61, 80
3, 197948, Note_off_c, 1, 61, 100
3, 197952, Note_on_c, 1, 64, 80
3, 198140, Note_off_c, 1, 53, 100
3, 198140, Note_off_c, 1, 64, 100
3, 198144, Note_on_c, 1, 53, 80
3, 198144, Note_on_c, 1, 65, 80
3, 198524, Note_off_c, 1, 65, 100
3, 198528, Note_on_c, 1, 60, 80
3, 198716, Note_off_c, 1, 60, 100
3, 198720, Note_on_c, 1, 65, 80
3, 199100, Note_off_c, 1, 65, 100
3, 199104, Note_on_c, 1, 63, 80
3, 199292, Note_off_c, 1, 63, 100
3, 199296, Note_on_c, 1, 61, 80
3, 199676, Note_off_c, 1, 61, 100
3, 199680, Note_on_c, 1, 58, 80
3, 199868, Note_off_c, 1, 58, 100
3, 199872, Note_on_c, 1, 61, 80
3, 200252, Note_off_c, 1, 61, 100
3, 200256, Note_on_c, 1, 64, 80
3, 200444, Note_off_c, 1, 53, 100
3, 200444, Note_off_c, 1, 64, 100
3, 200448, Note_on_c, 1, 53, 80
3, 200448, Note_on_c, 1, 65, 80
3, 200828, Note_off_c, 1, 53, 100
3, 200828, Note_off_c, 1, 65, 100
3, 202752, Note_on_c, 1, 53, 80
3, 202940, Note_off_c, 1, 53, 100
3, 202944, Note_on_c, 1, 63, 104
3, 204476, Note_off_c, 1, 63, 100
3, 204480, Note_on_c, 1, 62, 80
3, 204668, Note_off_c, 1, 62, 100
3, 204672, Note_on_c, 1, 60, 80
3, 204860, Note_off_c, 1, 60, 100
3, 204864, Note_on_c, 1, 58, 80
3, 205052, Note_off_c, 1, 58, 100
3, 205056, Note_on_c, 1, 53, 80
3, 205244, Note_off_c, 1, 53, 100
3, 205248, Note_on_c, 1, 63, 104
3, 206780, Note_off_c, 1, 63, 100
3, 206784, Note_on_c, 1, 62, 80
3, 206972, Note_off_c, 1, 62, 100
3, 206976, Note_on_c, 1, 60, 80
3, 207164, Note_off_c, 1, 60, 100
3, 207168, Note_on_c, 1, 58, 80
3, 207356, Note_off_c, 1, 58, 100
3, 207360, Note_on_c, 1, 60, 80
3, 207548, Note_off_c, 1, 60, 100
3, 207552, Note_on_c, 1, 57, 80
3, 207740, Note_off_c, 1, 57, 100
3, 207744, Note_on_c, 1, 60, 80
3, 207932, Note_off_c, 1, 60, 100
3, 207936, Note_on_c, 1, 58, 80
3, 208124, Note_off_c, 1, 58, 100
3, 208128, Note_on_c, 1, 57, 80
3, 208316, Note_off_c, 1, 57, 100
3, 208320, Note_on_c, 1, 55, 80
3, 208508, Note_off_c, 1, 55, 100
3, 208512, Note_on_c, 1, 56, 80
3, 208700, Note_off_c, 1, 56, 100
3, 208704, Note_on_c, 1, 53, 80
3, 208892, Note_off_c, 1, 53, 100
3, 208896, Note_on_c, 1, 56, 80
3, 209084, Note_off_c, 1, 56, 100
3, 209088, Note_on_c, 1, 55, 80
3, 209276, Note_off_c, 1, 55, 100
3, 209280, Note_on_c, 1, 53, 80
3, 209468, Note_off_c, 1, 53, 100
3, 209472, Note_on_c, 1, 51, 80
3, 209660, Note_off_c, 1, 51, 100
3, 209664, Note_on_c, 1, 53, 80
3, 209852, Note_off_c, 1, 53, 100
3, 209856, Note_on_c, 1, 50, 80
3, 210044, Note_off_c, 1, 50, 100
3, 210048, Note_on_c, 1, 53, 80
3, 210236, Note_off_c, 1, 53, 100
3, 210240, Note_on_c, 1, 51, 80
3, 210428, Note_off_c, 1, 51, 100
3, 210432, Note_on_c, 1, 50, 80
3, 210620, Note_off_c, 1, 50, 100
3, 210624, Note_on_c, 1, 48, 80
3, 210812, Note_off_c, 1, 48, 100
3, 210816, Note_on_c, 1, 53, 80
3, 210816, Note_on_c, 1, 41, 80
3, 211004, Note_off_c, 1, 53, 100
3, 211008, Note_on_c, 1, 50, 80
3, 211196, Note_off_c, 1, 50, 100
3, 211200, Note_on_c, 1, 46, 80
3, 211388, Note_off_c, 1, 41, 100
3, 211388, Note_off_c, 1, 46, 100
3, 211392, Note_on_c, 1, 53, 80
3, 211392, Note_on_c, 1, 41, 80
3, 211580, Note_off_c, 1, 53, 100
3, 211584, Note_on_c, 1, 51, 80
3, 211772, Note_off_c, 1, 51, 100
3, 211776, Note_on_c, 1, 48, 80
3, 211964, Note_off_c, 1, 41, 100
3, 211964, Note_off_c, 1, 48, 100
3, 211968, Note_on_c, 1, 46, 80
3, 212156, Note_off_c, 1, 46, 100
3, 212160, Note_on_c, 1, 58, 80
3, 212348, Note_off_c, 1, 58, 100
3, 212352, Note_on_c, 1, 60, 80
3, 212540, Note_off_c, 1, 60, 100
3, 212544, Note_on_c, 1, 61, 80
3, 212732, Note_off_c, 1, 61, 100
3, 212736, Note_on_c, 1, 62, 80
3, 212924, Note_off_c, 1, 62, 100
3, 212928, Note_on_c, 1, 63, 80
3, 213116, Note_off_c, 1, 63, 100
3, 213120, Note_on_c, 1, 64, 80
3, 213308, Note_off_c, 1, 64, 100
3, 213312, Note_on_c, 1, 65, 80
3, 213500, Note_off_c, 1, 65, 100
3, 213504, Note_on_c, 1, 63, 80
3, 213692, Note_off_c, 1, 63, 100
3, 213696, Note_on_c, 1, 62, 80
3, 213884, Note_off_c, 1, 62, 100
3, 213888, Note_on_c, 1, 60, 80
3, 214076, Note_off_c, 1, 60, 100
3, 214080, Note_on_c, 1, 58, 80
3, 214268, Note_off_c, 1, 58, 100
3, 214272, Note_on_c, 1, 65, 80
3, 214460, Note_off_c, 1, 65, 100
3, 214464, Note_on_c, 1, 64, 80
3, 214652, Note_off_c, 1, 64, 100
3, 214656, Note_on_c, 1, 63, 80
3, 214844, Note_off_c, 1, 63, 100
3, 214848, Note_on_c, 1, 60, 80
3, 215036, Note_off_c, 1, 60, 100
3, 215040, Note_on_c, 1, 57, 80
3, 215228, Note_off_c, 1, 57, 100
3, 215232, Note_on_c, 1, 53, 80
3, 215420, Note_off_c, 1, 53, 100
3, 215424, Note_on_c, 1, 52, 80
3, 215612, Note_off_c, 1, 52, 100
3, 215616, Note_on_c, 1, 53, 80
3, 215804, Note_off_c, 1, 53, 100
3, 215808, Note_on_c, 1, 51, 80
3, 215996, Note_off_c, 1, 51, 100
3, 216000, Note_on_c, 1, 50, 80
3, 216188, Note_off_c, 1, 50, 100
3, 216192, Note_on_c, 1, 48, 80
3, 216380, Note_off_c, 1, 48, 100
3, 216384, Note_on_c, 1, 46, 80
3, 216572, Note_off_c, 1, 46, 100
3, 216576, Note_on_c, 1, 65, 80
3, 216764, Note_off_c, 1, 65, 100
3, 216768, Note_on_c, 1, 64, 80
3, 216956, Note_off_c, 1, 64, 100
3, 216960, Note_on_c, 1, 63, 80
3, 217148, Note_off_c, 1, 63, 100
3, 217152, Note_on_c, 1, 60, 80
3, 217340, Note_off_c, 1, 60, 100
3, 217344, Note_on_c, 1, 57, 80
3, 217532, Note_off_c, 1, 57, 100
3, 217536, Note_on_c, 1, 53, 80
3, 217724, Note_off_c, 1, 53, 100
3, 217728, Note_on_c, 1, 52, 80
3, 217916, Note_off_c, 1, 52, 100
3, 217920, Note_on_c, 1, 53, 80
3, 218108, Note_off_c, 1, 53, 100
3, 218112, Note_on_c, 1, 51, 80
3, 218300, Note_off_c, 1, 51, 100
3, 218304, Note_on_c, 1, 50, 80
3, 218492, Note_off_c, 1, 50, 100
3, 218496, Note_on_c, 1, 48, 80
3, 218684, Note_off_c, 1, 48, 100
3, 218688, Note_on_c, 1, 46, 80
3, 218876, Note_off_c, 1, 46, 100
3, 218880, Note_on_c, 1, 60, 80
3, 219068, Note_off_c, 1, 60, 100
3, 219072, Note_on_c, 1, 57, 80
3, 219260, Note_off_c, 1, 57, 100
3, 219264, Note_on_c, 1, 60, 80
3, 219452, Note_off_c, 1, 60, 100
3, 219456, Note_on_c, 1, 58, 80
3, 219644, Note_off_c, 1, 58, 100
3, 219648, Note_on_c, 1, 57, 80
3, 219836, Note_off_c, 1, 57, 100
3, 219840, Note_on_c, 1, 55, 80
3, 220028, Note_off_c, 1, 55, 100
3, 220032, Note_on_c, 1, 56, 80
3, 220220, Note_off_c, 1, 56, 100
3, 220224, Note_on_c, 1, 53, 80
3, 220412, Note_off_c, 1, 53, 100
3, 220416, Note_on_c, 1, 56, 80
3, 220604, Note_off_c, 1, 56, 100
3, 220608, Note_on_c, 1, 55, 80
3, 220796, Note_off_c, 1, 55, 100
3, 220800, Note_on_c, 1, 53, 80
3, 220988, Note_off_c, 1, 53, 100
3, 220992, Note_on_c, 1, 51, 80
3, 221180, Note_off_c, 1, 51, 100
3, 221184, Note_on_c, 1, 53, 80
3, 221372, Note_off_c, 1, 53, 100
3, 221376, Note_on_c, 1, 50, 80
3, 221564, Note_off_c, 1, 50, 100
3, 221568, Note_on_c, 1, 53, 80
3, 221756, Note_off_c, 1, 53, 100
3, 221760, Note_on_c, 1, 51, 80
3, 221948, Note_off_c, 1, 51, 100
3, 221952, Note_on_c, 1, 50, 80
3, 222140, Note_off_c, 1, 50, 100
3, 222144, Note_on_c, 1, 48, 80
3, 222332, Note_off_c, 1, 48, 100
3, 222336, Note_on_c, 1, 53, 80
3, 222524, Note_off_c, 1, 53, 100
3, 222528, Note_on_c, 1, 50, 80
3, 222716, Note_off_c, 1, 50, 100
3, 222720, Note_on_c, 1, 41, 80
3, 222908, Note_off_c, 1, 41, 100
3, 222912, Note_on_c, 1, 51, 80
3, 223100, Note_off_c, 1, 51, 100
3, 223104, Note_on_c, 1, 48, 80
3, 223292, Note_off_c, 1, 48, 100
3, 223296, Note_on_c, 1, 41, 80
3, 223484, Note_off_c, 1, 41, 100
3, 223488, Note_on_c, 1, 46, 80
3, 223488, Note_on_c, 1, 34, 80
3, 223868, Note_off_c, 1, 46, 100
3, 223868, Note_off_c, 1, 34, 100
3, 224064, Note_on_c, 1, 46, 80
3, 224064, Note_on_c, 1, 53, 80
3, 224636, Note_off_c, 1, 46, 100
3, 224640, Note_on_c, 1, 57, 80
3, 224640, Note_on_c, 1, 48, 80
3, 225212, Note_off_c, 1, 57, 100
3, 225212, Note_off_c, 1, 48, 100
3, 225216, Note_on_c, 1, 58, 80
3, 225216, Note_on_c, 1, 50, 80
3, 225788, Note_off_c, 1, 53, 100
3, 225788, Note_off_c, 1, 58, 100
3, 225788, Note_off_c, 1, 50, 100
3, 225792, Note_on_c, 1, 55, 80
3, 225792, Note_on_c, 1, 51, 80
3, 226172, Note_off_c, 1, 55, 100
3, 226172, Note_off_c, 1, 51, 100
3, 226368, Note_on_c, 1, 48, 80
3, 226368, Note_on_c, 1, 55, 80
3, 226940, Note_off_c, 1, 48, 100
3, 226944, Note_on_c, 1, 50, 80
3, 226944, Note_on_c, 1, 58, 80
3, 227516, Note_off_c, 1, 50, 100
3, 227516, Note_off_c, 1, 58, 100
3, 227520, Note_on_c, 1, 51, 80
3, 227520, Note_on_c, 1, 60, 80
3, 228092, Note_off_c, 1, 55, 100
3, 228092, Note_off_c, 1, 51, 100
3, 228096, Note_on_c, 1, 53, 80
3, 228476, Note_off_c, 1, 60, 100
3, 228476, Note_off_c, 1, 53, 100
3, 228672, Note_on_c, 1, 65, 80
3, 228672, Note_on_c, 1, 53, 80
3, 229244, Note_off_c, 1, 65, 100
3, 229244, Note_off_c, 1, 53, 100
3, 229248, Note_on_c, 1, 55, 80
3, 229248, Note_on_c, 1, 64, 80
3, 229820, Note_off_c, 1, 55, 100
3, 229820, Note_off_c, 1, 64, 100
3, 229824, Note_on_c, 1, 57, 87
3, 229824, Note_on_c, 1, 63, 87
3, 230396, Note_off_c, 1, 57, 100
3, 230396, Note_off_c, 1, 63, 100
3, 230400, Note_on_c, 1, 58, 94
3, 230400, Note_on_c, 1, 62, 94
3, 230972, Note_off_c, 1, 58, 100
3, 230972, Note_off_c, 1, 62, 100
3, 230976, Note_on_c, 1, 60, 102
3, 230976, Note_on_c, 1, 57, 102
3, 231548, Note_off_c, 1, 60, 100
3, 231548, Note_off_c, 1, 57, 100
3, 231552, Note_on_c, 1, 58, 109
3, 231552, Note_on_c, 1, 55, 109
3, 232124, Note_off_c, 1, 58, 100
3, 232124, Note_off_c, 1, 55, 100
3, 232128, Note_on_c, 1, 58, 96
3, 232128, Note_on_c, 1, 48, 96
3, 232700, Note_off_c, 1, 58, 100
3, 232700, Note_off_c, 1, 48, 100
3, 232704, Note_on_c, 1, 57, 80
3, 232704, Note_on_c, 1, 53, 80
3, 233084, Note_off_c, 1, 57, 100
3, 233084, Note_off_c, 1, 53, 100
3, 233280, Note_on_c, 1, 58, 80
3, 233280, Note_on_c, 1, 46, 80
3, 233280, Note_on_c, 1, 53, 80
3, 233852, Note_off_c, 1, 58, 100
3, 233852, Note_off_c, 1, 46, 100
3, 233856, Note_on_c, 1, 57, 80
3, 233856, Note_on_c, 1, 48, 80
3, 234428, Note_off_c, 1, 57, 100
3, 234428, Note_off_c, 1, 48, 100
3, 234432, Note_on_c, 1, 58, 80
3, 234432, Note_on_c, 1, 50, 80
3, 235004, Note_off_c, 1, 53, 100
3, 235004, Note_off_c, 1, 58, 100
3, 235004, Note_off_c, 1, 50, 100
3, 235008, Note_on_c, 1, 55, 80
3, 235008, Note_on_c, 1, 51, 80
3, 235388, Note_off_c, 1, 55, 100
3, 235388, Note_off_c, 1, 51, 100
3, 235584, Note_on_c, 1, 48, 80
3, 235584, Note_on_c, 1, 55, 80
3, 236156, Note_off_c, 1, 48, 100
3, 236160, Note_on_c, 1, 59, 80
3, 236160, Note_on_c, 1, 50, 80
3, 236732, Note_off_c, 1, 59, 100
3, 236732, Note_off_c, 1, 50, 100
3, 236736, Note_on_c, 1, 51, 80
3, 236736, Note_on_c, 1, 60, 80
3, 237308, Note_off_c, 1, 55, 100
3, 237308, Note_off_c, 1, 51, 100
3, 237312, Note_on_c, 1, 53, 80
3, 237692, Note_off_c, 1, 60, 100
3, 237692, Note_off_c, 1, 53, 100
3, 238080, Note_on_c, 1, 65, 80
3, 238268, Note_off_c, 1, 65, 100
3, 238272, Note_on_c, 1, 65, 80
3, 238460, Note_off_c, 1, 65, 100
3, 238464, Note_on_c, 1, 65, 80
3, 238652, Note_off_c, 1, 65, 100
3, 238656, Note_on_c, 1, 64, 80
3, 238844, Note_off_c, 1, 64, 100
3, 238848, Note_on_c, 1, 64, 80
3, 239036, Note_off_c, 1, 64, 100
3, 239232, Note_on_c, 1, 63, 80
3, 239420, Note_off_c, 1, 63, 100
3, 239424, Note_on_c, 1, 63, 80
3, 239612, Note_off_c, 1, 63, 100
3, 239616, Note_on_c, 1, 63, 80
3, 239804, Note_off_c, 1, 63, 100
3, 239808, Note_on_c, 1, 62, 80
3, 239996, Note_off_c, 1, 62, 100
3, 240000, Note_on_c, 1, 62, 80
3, 240188, Note_off_c, 1, 62, 100
3, 240192, Note_on_c, 1, 53, 80
3, 240384, Note_on_c, 1, 62, 80
3, 240384, Note_on_c, 1, 65, 80
3, 240572, Note_off_c, 1, 53, 100
3, 240572, Note_off_c, 1, 62, 100
3, 240572, Note_off_c, 1, 65, 100
3, 240576, Note_on_c, 1, 62, 80
3, 240576, Note_on_c, 1, 65, 80
3, 240764, Note_off_c, 1, 62, 100
3, 240764, Note_off_c, 1, 65, 100
3, 240768, Note_on_c, 1, 41, 80
3, 240960, Note_on_c, 1, 60, 80
3, 240960, Note_on_c, 1, 63, 80
3, 241148, Note_off_c, 1, 41, 100
3, 241148, Note_off_c, 1, 60, 100
3, 241148, Note_off_c, 1, 63, 100
3, 241152, Note_on_c, 1, 60, 80
3, 241152, Note_on_c, 1, 63, 80
3, 241340, Note_off_c, 1, 60, 100
3, 241340, Note_off_c, 1, 63, 100
3, 241344, Note_on_c, 1, 53, 80
3, 241536, Note_on_c, 1, 58, 80
3, 241536, Note_on_c, 1, 62, 80
3, 241724, Note_off_c, 1, 53, 100
3, 241724, Note_off_c, 1, 58, 100
3, 241724, Note_off_c, 1, 62, 100
3, 241728, Note_on_c, 1, 58, 80
3, 241728, Note_on_c, 1, 62, 80
3, 241916, Note_off_c, 1, 58, 100
3, 241916, Note_off_c, 1, 62, 100
3, 241920, Note_on_c, 1, 41, 80
3, 242112, Note_on_c, 1, 57, 80
3, 242112, Note_on_c, 1, 60, 80
3, 242300, Note_off_c, 1, 41, 100
3, 242300, Note_off_c, 1, 57, 100
3, 242300, Note_off_c, 1, 60, 100
3, 242304, Note_on_c, 1, 57, 80
3, 242304, Note_on_c, 1, 60, 80
3, 242492, Note_off_c, 1, 57, 100
3, 242492, Note_off_c, 1, 60, 100
3, 242496, Note_on_c, 1, 53, 80
3, 242688, Note_on_c, 1, 55, 80
3, 242688, Note_on_c, 1, 58, 80
3, 242876, Note_off_c, 1, 53, 100
3, 242876, Note_off_c, 1, 55, 100
3, 242876, Note_off_c, 1, 58, 100
3, 242880, Note_on_c, 1, 55, 80
3, 242880, Note_on_c, 1, 58, 80
3, 243068, Note_off_c, 1, 55, 100
3, 243068, Note_off_c, 1, 58, 100
3, 243072, Note_on_c, 1, 41, 80
3, 243264, Note_on_c, 1, 57, 81
3, 243264, Note_on_c, 1, 53, 81
3, 243452, Note_off_c, 1, 41, 100
3, 243452, Note_off_c, 1, 57, 100
3, 243452, Note_off_c, 1, 53, 100
3, 243456, Note_on_c, 1, 53, 83
3, 243456, Note_on_c, 1, 57, 83
3, 243644, Note_off_c, 1, 53, 100
3, 243644, Note_off_c, 1, 57, 100
3, 243648, Note_on_c, 1, 41, 85
3, 243840, Note_on_c, 1, 51, 87
3, 243840, Note_on_c, 1, 55, 87
3, 244028, Note_off_c, 1, 41, 100
3, 244028, Note_off_c, 1, 51, 100
3, 244028, Note_off_c, 1, 55, 100
3, 244032, Note_on_c, 1, 55, 88
3, 244032, Note_on_c, 1, 51, 88
3, 244220, Note_off_c, 1, 55, 100
3, 244220, Note_off_c, 1, 51, 100
3, 244224, Note_on_c, 1, 41, 90
3, 244416, Note_on_c, 1, 53, 92
3, 244416, Note_on_c, 1, 50, 92
3, 244604, Note_off_c, 1, 41, 100
3, 244604, Note_off_c, 1, 53, 100
3, 244604, Note_off_c, 1, 50, 100
3, 244608, Note_on_c, 1, 50, 94
3, 244608, Note_on_c, 1, 53, 94
3, 244796, Note_off_c, 1, 50, 100
3, 244796, Note_off_c, 1, 53, 100
3, 244800, Note_on_c, 1, 41, 95
3, 244992, Note_on_c, 1, 48, 97
3, 244992, Note_on_c, 1, 51, 97
3, 245180, Note_off_c, 1, 41, 100
3, 245180, Note_off_c, 1, 48, 100
3, 245180, Note_off_c, 1, 51, 100
3, 245184, Note_on_c, 1, 51, 99
3, 245184, Note_on_c, 1, 48, 99
3, 245372, Note_off_c, 1, 51, 100
3, 245372, Note_off_c, 1, 48, 100
3, 245376, Note_on_c, 1, 41, 101
3, 245568, Note_on_c, 1, 46, 102
3, 245568, Note_on_c, 1, 50, 102
3, 245756, Note_off_c, 1, 41, 100
3, 245756, Note_off_c, 1, 46, 100
3, 245756, Note_off_c, 1, 50, 100
3, 245760, Note_on_c, 1, 50, 104
3, 245760, Note_on_c, 1, 46, 104
3, 245948, Note_off_c, 1, 50, 100
3, 245948, Note_off_c, 1, 46, 100
3, 245952, Note_on_c, 1, 41, 106
3, 246144, Note_on_c, 1, 45, 108
3, 246144, Note_on_c, 1, 48, 108
3, 246332, Note_off_c, 1, 41, 100
3, 246332, Note_off_c, 1, 45, 100
3, 246332, Note_off_c, 1, 48, 100
3, 246336, Note_on_c, 1, 48, 109
3, 246336, Note_on_c, 1, 45, 109
3, 246524, Note_off_c, 1, 48, 100
3, 246524, Note_off_c, 1, 45, 100
3, 246528, Note_on_c, 1, 42, 120
3, 246528, Note_on_c, 1, 36, 120
3, 246528, Note_on_c, 1, 30, 120
3, 246716, Note_off_c, 1, 42, 100
3, 246716, Note_off_c, 1, 36, 100
3, 246716, Note_off_c, 1, 30, 100
3, 246720, Note_on_c, 1, 42, 120
3, 246720, Note_on_c, 1, 36, 120
3, 246720, Note_on_c, 1, 30, 120
3, 246908, Note_off_c, 1, 42, 100
3, 246908, Note_off_c, 1, 36, 100
3, 246908, Note_off_c, 1, 30, 100
3, 246912, Note_on_c, 1, 42, 120
3, 246912, Note_on_c, 1, 36, 120
3, 246912, Note_on_c, 1, 30, 120
3, 247100, Note_off_c, 1, 42, 100
3, 247100, Note_off_c, 1, 36, 100
3, 247100, Note_off_c, 1, 30, 100
3, 247104, Note_on_c, 1, 42, 120
3, 247104, Note_on_c, 1, 36, 120
3, 247104, Note_on_c, 1, 30, 120
3, 247292, Note_off_c, 1, 42, 100
3, 247292, Note_off_c, 1, 36, 100
3, 247292, Note_off_c, 1, 30, 100
3, 247296, Note_on_c, 1, 42, 120
3, 247296, Note_on_c, 1, 36, 120
3, 247296, Note_on_c, 1, 30, 120
3, 247484, Note_off_c, 1, 42, 100
3, 247484, Note_off_c, 1, 36, 100
3, 247484, Note_off_c, 1, 30, 100
3, 247488, Note_on_c, 1, 42, 120
3, 247488, Note_on_c, 1, 36, 120
3, 247488, Note_on_c, 1, 30, 120
3, 247676, Note_off_c, 1, 42, 100
3, 247676, Note_off_c, 1, 36, 100
3, 247676, Note_off_c, 1, 30, 100
3, 247680, Note_on_c, 1, 42, 120
3, 247680, Note_on_c, 1, 36, 120
3, 247680, Note_on_c, 1, 30, 120
3, 247868, Note_off_c, 1, 42, 100
3, 247868, Note_off_c, 1, 36, 100
3, 247868, Note_off_c, 1, 30, 100
3, 247872, Note_on_c, 1, 42, 120
3, 247872, Note_on_c, 1, 36, 120
3, 247872, Note_on_c, 1, 30, 120
3, 248060, Note_off_c, 1, 42, 100
3, 248060, Note_off_c, 1, 36, 100
3, 248060, Note_off_c, 1, 30, 100
3, 248064, Note_on_c, 1, 42, 120
3, 248064, Note_on_c, 1, 36, 120
3, 248064, Note_on_c, 1, 30, 120
3, 248252, Note_off_c, 1, 42, 100
3, 248252, Note_off_c, 1, 36, 100
3, 248252, Note_off_c, 1, 30, 100
3, 248256, Note_on_c, 1, 42, 120
3, 248256, Note_on_c, 1, 36, 120
3, 248256, Note_on_c, 1, 30, 120
3, 248444, Note_off_c, 1, 42, 100
3, 248444, Note_off_c, 1, 36, 100
3, 248444, Note_off_c, 1, 30, 100
3, 248448, Note_on_c, 1, 42, 120
3, 248448, Note_on_c, 1, 36, 120
3, 248448, Note_on_c, 1, 30, 120
3, 248636, Note_off_c, 1, 42, 100
3, 248636, Note_off_c, 1, 36, 100
3, 248636, Note_off_c, 1, 30, 100
3, 248640, Note_on_c, 1, 42, 120
3, 248640, Note_on_c, 1, 36, 120
3, 248640, Note_on_c, 1, 30, 120
3, 248828, Note_off_c, 1, 42, 100
3, 248828, Note_off_c, 1, 36, 100
3, 248828, Note_off_c, 1, 30, 100
3, 248832, Note_on_c, 1, 43, 120
3, 248832, Note_on_c, 1, 36, 120
3, 248832, Note_on_c, 1, 31, 120
3, 249212, Note_off_c, 1, 43, 100
3, 249212, Note_off_c, 1, 36, 100
3, 249212, Note_off_c, 1, 31, 100
3, 249408, Note_on_c, 1, 43, 70
3, 249408, Note_on_c, 1, 52, 70
3, 249980, Note_off_c, 1, 52, 100
3, 249984, Note_on_c, 1, 53, 70
3, 250556, Note_off_c, 1, 53, 100
3, 250560, Note_on_c, 1, 47, 70
3, 251132, Note_off_c, 1, 43, 100
3, 251132, Note_off_c, 1, 47, 100
3, 251136, Note_on_c, 1, 43, 71
3, 251136, Note_on_c, 1, 48, 71
3, 251708, Note_off_c, 1, 48, 100
3, 251712, Note_on_c, 1, 52, 71
3, 252284, Note_off_c, 1, 52, 100
3, 252288, Note_on_c, 1, 53, 72
3, 252860, Note_off_c, 1, 53, 100
3, 252864, Note_on_c, 1, 47, 72
3, 253436, Note_off_c, 1, 43, 100
3, 253436, Note_off_c, 1, 47, 100
3, 253440, Note_on_c, 1, 43, 73
3, 253440, Note_on_c, 1, 48, 73
3, 253820, Note_off_c, 1, 48, 100
3, 254016, Note_on_c, 1, 48, 73
3, 254588, Note_off_c, 1, 48, 100
3, 254592, Note_on_c, 1, 47, 73
3, 255164, Note_off_c, 1, 47, 100
3, 255168, Note_on_c, 1, 53, 74
3, 255740, Note_off_c, 1, 43, 100
3, 255740, Note_off_c, 1, 53, 100
3, 255744, Note_on_c, 1, 52, 74
3, 255744, Note_on_c, 1, 43, 74
3, 256316, Note_off_c, 1, 52, 100
3, 256320, Note_on_c, 1, 48, 75
3, 256892, Note_off_c, 1, 48, 100
3, 256896, Note_on_c, 1, 47, 75
3, 257468, Note_off_c, 1, 47, 100
3, 257472, Note_on_c, 1, 53, 76
3, 258044, Note_off_c, 1, 43, 100
3, 258044, Note_off_c, 1, 53, 100
3, 258048, Note_on_c, 1, 52, 76
3, 258048, Note_on_c, 1, 48, 76
3, 258620, Note_off_c, 1, 52, 100
3, 258620, Note_off_c, 1, 48, 100
3, 258624, Note_on_c, 1, 55, 77
3, 258624, Note_on_c, 1, 46, 77
3, 259196, Note_off_c, 1, 55, 100
3, 259196, Note_off_c, 1, 46, 100
3, 259200, Note_on_c, 1, 45, 77
3, 259200, Note_on_c, 1, 53, 77
3, 259772, Note_off_c, 1, 45, 100
3, 259776, Note_on_c, 1, 46, 77
3, 259776, Note_on_c, 1, 58, 77
3, 260348, Note_off_c, 1, 53, 100
3, 260348, Note_off_c, 1, 46, 100
3, 260348, Note_off_c, 1, 58, 100
3, 260352, Note_on_c, 1, 50, 78
3, 260352, Note_on_c, 1, 54, 78
3, 260352, Note_on_c, 1, 42, 78
3, 260924, Note_off_c, 1, 54, 100
3, 260924, Note_off_c, 1, 42, 100
3, 260928, Note_on_c, 1, 55, 78
3, 260928, Note_on_c, 1, 43, 78
3, 261500, Note_off_c, 1, 50, 100
3, 261500, Note_off_c, 1, 55, 100
3, 261500, Note_off_c, 1, 43, 100
3, 261504, Note_on_c, 1, 51, 79
3, 261504, Note_on_c, 1, 39, 79
3, 261884, Note_off_c, 1, 51, 100
3, 261884, Note_off_c, 1, 39, 100
3, 262080, Note_on_c, 1, 53, 79
3, 262080, Note_on_c, 1, 41, 79
3, 262460, Note_off_c, 1, 53, 100
3, 262460, Note_off_c, 1, 41, 100
3, 262656, Note_on_c, 1, 46, 110
3, 262656, Note_on_c, 1, 34, 110
3, 262844, Note_off_c, 1, 46, 100
3, 262844, Note_off_c, 1, 34, 100
3, 262848, Note_on_c, 1, 46, 100
3, 263036, Note_off_c, 1, 46, 100
3, 263040, Note_on_c, 1, 46, 100
3, 263228, Note_off_c, 1, 46, 100
3, 263232, Note_on_c, 1, 46, 100
3, 263420, Note_off_c, 1, 46, 100
3, 263424, Note_on_c, 1, 45, 100
3, 263612, Note_off_c, 1, 45, 100
3, 263616, Note_on_c, 1, 46, 100
3, 263804, Note_off_c, 1, 46, 100
3, 263808, Note_on_c, 1, 50, 110
3, 263808, Note_on_c, 1, 38, 110
3, 263996, Note_off_c, 1, 50, 100
3, 263996, Note_off_c, 1, 38, 100
3, 264000, Note_on_c, 1, 50, 100
3, 264188, Note_off_c, 1, 50, 100
3, 264192, Note_on_c, 1, 50, 100
3, 264380, Note_off_c, 1, 50, 100
3, 264384, Note_on_c, 1, 50, 100
3, 264572, Note_off_c, 1, 50, 100
3, 264576, Note_on_c, 1, 49, 100
3, 264764, Note_off_c, 1, 49, 100
3, 264768, Note_on_c, 1, 50, 100
3, 264956, Note_off_c, 1, 50, 100
3, 264960, Note_on_c, 1, 53, 110
3, 264960, Note_on_c, 1, 41, 110
3, 265148, Note_off_c, 1, 53, 100
3, 265148, Note_off_c, 1, 41, 100
3, 265152, Note_on_c, 1, 53, 100
3, 265340, Note_off_c, 1, 53, 100
3, 265344, Note_on_c, 1, 53, 100
3, 265532, Note_off_c, 1, 53, 100
3, 265536, Note_on_c, 1, 53, 100
3, 265724, Note_off_c, 1, 53, 100
3, 265728, Note_on_c, 1, 52, 100
3, 265916, Note_off_c, 1, 52, 100
3, 265920, Note_on_c, 1, 53, 100
3, 266108, Note_off_c, 1, 53, 100
3, 266112, Note_on_c, 1, 46, 110
3, 266112, Note_on_c, 1, 58, 110
3, 266300, Note_off_c, 1, 46, 100
3, 266300, Note_off_c, 1, 58, 100
3, 266304, Note_on_c, 1, 58, 100
3, 266492, Note_off_c, 1, 58, 100
3, 266496, Note_on_c, 1, 58, 100
3, 266684, Note_off_c, 1, 58, 100
3, 266688, Note_on_c, 1, 58, 100
3, 266876, Note_off_c, 1, 58, 100
3, 266880, Note_on_c, 1, 57, 100
3, 267068, Note_off_c, 1, 57, 100
3, 267072, Note_on_c, 1, 58, 100
3, 267260, Note_off_c, 1, 58, 100
3, 267264, Note_on_c, 1, 58, 110
3, 267264, Note_on_c, 1, 55, 110
3, 268412, Note_off_c, 1, 58, 100
3, 268412, Note_off_c, 1, 55, 100
3, 268416, Note_on_c, 1, 63, 120
3, 268416, Note_on_c, 1, 61, 120
3, 268416, Note_on_c, 1, 58, 120
3, 268416, Note_on_c, 1, 54, 120
3, 269564, Note_off_c, 1, 63, 100
3, 269564, Note_off_c, 1, 61, 100
3, 269564, Note_off_c, 1, 58, 100
3, 269564, Note_off_c, 1, 54, 100
3, 269568, Note_on_c, 1, 53, 120
3, 269568, Note_on_c, 1, 58, 120
3, 269568, Note_on_c, 1, 62, 120
3, 269568, Note_on_c, 1, 65, 120
3, 269756, Note_off_c, 1, 53, 100
3, 269756, Note_off_c, 1, 58, 100
3, 269756, Note_off_c, 1, 62, 100
3, 269756, Note_off_c, 1, 65, 100
3, 269760, Note_on_c, 1, 53, 120
3, 269948, Note_off_c, 1, 53, 100
3, 269952, Note_on_c, 1, 53, 120
3, 270140, Note_off_c, 1, 53, 100
3, 270336, Note_on_c, 1, 53, 120
3, 270524, Note_off_c, 1, 53, 100
3, 270528, Note_on_c, 1, 53, 120
3, 270716, Note_off_c, 1, 53, 100
3, 270912, Note_on_c, 1, 41, 120
3, 271100, Note_off_c, 1, 41, 100
3, 271104, Note_on_c, 1, 41, 120
3, 271292, Note_off_c, 1, 41, 100
3, 271488, Note_on_c, 1, 41, 120
3, 271676, Note_off_c, 1, 41, 100
3, 271680, Note_on_c, 1, 41, 120
3, 271868, Note_off_c, 1, 41, 100
3, 271872, Note_on_c, 1, 34, 120
3, 272060, Note_off_c, 1, 34, 100
3, 272064, Note_on_c, 1, 46, 120
3, 272252, Note_off_c, 1, 46, 100
3, 272256, Note_on_c, 1, 46, 120
3, 272444, Note_off_c, 1, 46, 100
3, 272448, Note_on_c, 1, 46, 120
3, 272636, Note_off_c, 1, 46, 100
3, 272640, Note_on_c, 1, 45, 120
3, 272828, Note_off_c, 1, 45, 100
3, 272832, Note_on_c, 1, 46, 120
3, 273020, Note_off_c, 1, 46, 100
3, 273024, Note_on_c, 1, 38, 120
3, 273212, Note_off_c, 1, 38, 100
3, 273216, Note_on_c, 1, 50, 120
3, 273404, Note_off_c, 1, 50, 100
3, 273408, Note_on_c, 1, 50, 120
3, 273596, Note_off_c, 1, 50, 100
3, 273600, Note_on_c, 1, 50, 120
3, 273788, Note_off_c, 1, 50, 100
3, 273792, Note_on_c, 1, 49, 120
3, 273980, Note_off_c, 1, 49, 100
3, 273984, Note_on_c, 1, 50, 120
3, 274172, Note_off_c, 1, 50, 100
3, 274176, Note_on_c, 1, 41, 120
3, 274364, Note_off_c, 1, 41, 100
3, 274368, Note_on_c, 1, 53, 120
3, 274556, Note_off_c, 1, 53, 100
3, 274560, Note_on_c, 1, 53, 120
3, 274748, Note_off_c, 1, 53, 100
3, 274752, Note_on_c, 1, 53, 120
3, 274940, Note_off_c, 1, 53, 100
3, 274944, Note_on_c, 1, 52, 120
3, 275132, Note_off_c, 1, 52, 100
3, 275136, Note_on_c, 1, 53, 120
3, 275324, Note_off_c, 1, 53, 100
3, 275328, Note_on_c, 1, 46, 120
3, 275516, Note_off_c, 1, 46, 100
3, 275520, Note_on_c, 1, 58, 120
3, 275708, Note_off_c, 1, 58, 100
3, 275712, Note_on_c, 1, 58, 120
3, 275900, Note_off_c, 1, 58, 100
3, 275904, Note_on_c, 1, 58, 120
3, 276092, Note_off_c, 1, 58, 100
3, 276096, Note_on_c, 1, 57, 120
3, 276284, Note_off_c, 1, 57, 100
3, 276288, Note_on_c, 1, 58, 120
3, 276476, Note_off_c, 1, 58, 100
3, 276480, Note_on_c, 1, 55, 100
3, 276480, Note_on_c, 1, 46, 100
3, 276480, Note_on_c, 1, 43, 100
3, 277628, Note_off_c, 1, 55, 100
3, 277628, Note_off_c, 1, 46, 100
3, 277628, Note_off_c, 1, 43, 100
3, 277632, Note_on_c, 1, 54, 105
3, 277632, Note_on_c, 1, 46, 105
3, 277632, Note_on_c, 1, 42, 105
3, 278780, Note_off_c, 1, 54, 100
3, 278780, Note_off_c, 1, 46, 100
3, 278780, Note_off_c, 1, 42, 100
3, 278784, Note_on_c, 1, 53, 110
3, 278784, Note_on_c, 1, 46, 110
3, 278784, Note_on_c, 1, 41, 110
3, 279932, Note_off_c, 1, 53, 100
3, 279932, Note_off_c, 1, 46, 100
3, 279932, Note_off_c, 1, 41, 100
3, 279936, Note_on_c, 1, 52, 115
3, 279936, Note_on_c, 1, 46, 115
3, 279936, Note_on_c, 1, 40, 115
3, 281084, Note_off_c, 1, 52, 100
3, 281084, Note_off_c, 1, 46, 100
3, 281084, Note_off_c, 1, 40, 100
3, 281088, Note_on_c, 1, 53, 115
3, 281088, Note_on_c, 1, 46, 115
3, 281088, Note_on_c, 1, 41, 115
3, 281468, Note_off_c, 1, 53, 100
3, 281468, Note_off_c, 1, 46, 100
3, 281468, Note_off_c, 1, 41, 100
3, 281664, Note_on_c, 1, 58, 115
3, 281664, Note_on_c, 1, 62, 115
3, 281664, Note_on_c, 1, 53, 115
3, 282044, Note_off_c, 1, 58, 100
3, 282044, Note_off_c, 1, 62, 100
3, 282044, Note_off_c, 1, 53, 100
3, 282240, Note_on_c, 1, 53, 115
3, 282240, Note_on_c, 1, 58, 115
3, 282240, Note_on_c, 1, 62, 115
3, 282620, Note_off_c, 1, 53, 100
3, 282620, Note_off_c, 1, 58, 100
3, 282620, Note_off_c, 1, 62, 100
3, 282816, Note_on_c, 1, 63, 115
3, 282816, Note_on_c, 1, 60, 115
3, 282816, Note_on_c, 1, 53, 115
3, 283196, Note_off_c, 1, 63, 100
3, 283196, Note_off_c, 1, 60, 100
3, 283196, Note_off_c, 1, 53, 100
3, 283392, Note_on_c, 1, 58, 100
3, 283392, Note_on_c, 1, 62, 100
3, 283772, Note_off_c, 1, 58, 100
3, 283772, Note_off_c, 1, 62, 100
3, 283968, Note_on_c, 1, 46, 110
3, 286268, Note_off_c, 1, 46, 100
3, 286272, Note_on_c, 1, 58, 110
3, 288572, Note_off_c, 1, 58, 100
3, 288576, Note_on_c, 1, 46, 110
3, 290876, Note_off_c, 1, 46, 100
3, 290880, Note_on_c, 1, 34, 110
3, 293180, Note_off_c, 1, 34, 100
3, 293184, Note_on_c, 1, 46, 110
3, 295484, Note_off_c, 1, 46, 100
3, 295488, Note_on_c, 1, 58, 110
3, 297788, Note_off_c, 1, 58, 100
3, 297792, Note_on_c, 1, 46, 110
3, 300092, Note_off_c, 1, 46, 100
3, 300096, Note_on_c, 1, 34, 110
3, 302204, Note_off_c, 1, 34, 100
3, 302208, Note_on_c, 1, 50, 115
3, 302780, Note_off_c, 1, 50, 100
3, 302784, Note_on_c, 1, 46, 100
3, 302972, Note_off_c, 1, 46, 100
3, 302976, Note_on_c, 1, 41, 100
3, 303356, Note_off_c, 1, 41, 100
3, 303360, Note_on_c, 1, 60, 100
3, 303360, Note_on_c, 1, 53, 100
3, 303932, Note_off_c, 1, 60, 100
3, 303936, Note_on_c, 1, 57, 100
3, 304124, Note_off_c, 1, 53, 100
3, 304124, Note_off_c, 1, 57, 100
3, 304128, Note_on_c, 1, 58, 100
3, 304128, Note_on_c, 1, 46, 100
3, 304508, Note_off_c, 1, 58, 100
3, 304508, Note_off_c, 1, 46, 100
3, 304512, Note_on_c, 1, 50, 115
3, 305084, Note_off_c, 1, 50, 100
3, 305088, Note_on_c, 1, 46, 100
3, 305276, Note_off_c, 1, 46, 100
3, 305280, Note_on_c, 1, 41, 100
3, 305660, Note_off_c, 1, 41, 100
3, 305664, Note_on_c, 1, 60, 100
3, 305664, Note_on_c, 1, 53, 100
3, 306236, Note_off_c, 1, 60, 100
3, 306240, Note_on_c, 1, 57, 100
3, 306428, Note_off_c, 1, 53, 100
3, 306428, Note_off_c, 1, 57, 100
3, 306432, Note_on_c, 1, 58, 100
3, 306812, Note_off_c, 1, 58, 100
3, 306816, Note_on_c, 1, 50, 115
3, 307388, Note_off_c, 1, 50, 100
3, 307392, Note_on_c, 1, 46, 100
3, 307580, Note_off_c, 1, 46, 100
3, 307584, Note_on_c, 1, 41, 100
3, 307964, Note_off_c, 1, 41, 100
3, 307968, Note_on_c, 1, 65, 120
3, 307968, Note_on_c, 1, 63, 120
3, 307968, Note_on_c, 1, 60, 120
3, 307968, Note_on_c, 1, 53, 120
3, 308540, Note_off_c, 1, 65, 100
3, 308540, Note_off_c, 1, 63, 100
3, 308540, Note_off_c, 1, 60, 100
3, 308540, Note_off_c, 1, 53, 100
3, 308544, Note_on_c, 1, 63, 120
3, 308544, Note_on_c, 1, 57, 120
3, 308544, Note_on_c, 1, 53, 120
3, 308732, Note_off_c, 1, 63, 100
3, 308732, Note_off_c, 1, 57, 100
3, 308732, Note_off_c, 1, 53, 100
3, 308736, Note_on_c, 1, 62, 120
3, 308736, Note_on_c, 1, 58, 120
3, 309116, Note_off_c, 1, 62, 100
3, 309116, Note_off_c, 1, 58, 100
3, 309120, Note_on_c, 1, 65, 120
3, 309308, Note_off_c, 1, 65, 100
3, 309312, Note_on_c, 1, 62, 120
3, 309692, Note_off_c, 1, 62, 100
3, 309696, Note_on_c, 1, 58, 120
3, 309884, Note_off_c, 1, 58, 100
3, 309888, Note_on_c, 1, 53, 120
3, 310268, Note_off_c, 1, 53, 100
3, 310272, Note_on_c, 1, 50, 120
3, 310460, Note_off_c, 1, 50, 100
3, 310464, Note_on_c, 1, 46, 120
3, 310844, Note_off_c, 1, 46, 100
3, 310848, Note_on_c, 1, 41, 120
3, 311036, Note_off_c, 1, 41, 100
3, 311040, Note_on_c, 1, 46, 120
3, 311420, Note_off_c, 1, 46, 100
3, 311616, Note_on_c, 1, 46, 120
3, 311616, Note_on_c, 1, 34, 120
3, 311996, Note_off_c, 1, 46, 100
3, 311996, Note_off_c, 1, 34, 100
3, 312192, Note_on_c, 1, 46, 120
3, 312192, Note_on_c, 1, 34, 120
3, 312572, Note_off_c, 1, 46, 100
3, 312572, Note_off_c, 1, 34, 100
3, 313344, Note_on_c, 1, 31, 120
3, 313532, Note_off_c, 1, 31, 100
3, 313536, Note_on_c, 1, 43, 120
3, 313724, Note_off_c, 1, 43, 100
3, 313728, Note_on_c, 1, 43, 120
3, 313916, Note_off_c, 1, 43, 100
3, 313920, Note_on_c, 1, 43, 120
3, 314108, Note_off_c, 1, 43, 100
3, 314112, Note_on_c, 1, 43, 120
3, 314300, Note_off_c, 1, 43, 100
3, 314304, Note_on_c, 1, 43, 120
3, 314492, Note_off_c, 1, 43, 100
3, 314496, Note_on_c, 1, 43, 120
3, 314684, Note_off_c, 1, 43, 100
3, 314688, Note_on_c, 1, 43, 120
3, 314876, Note_off_c, 1, 43, 100
3, 314880, Note_on_c, 1, 43, 120
3, 315068, Note_off_c, 1, 43, 100
3, 315072, Note_on_c, 1, 43, 120
3, 315260, Note_off_c, 1, 43, 100
3, 315264, Note_on_c, 1, 43, 120
3, 315452, Note_off_c, 1, 43, 100
3, 315456, Note_on_c, 1, 43, 120
3, 315644, Note_off_c, 1, 43, 100
3, 315648, Note_on_c, 1, 31, 120
3, 315836, Note_off_c, 1, 31, 100
3, 315840, Note_on_c, 1, 43, 120
3, 316028, Note_off_c, 1, 43, 100
3, 316032, Note_on_c, 1, 43, 120
3, 316220, Note_off_c, 1, 43, 100
3, 316224, Note_on_c, 1, 43, 120
3, 316412, Note_off_c, 1, 43, 100
3, 316416, Note_on_c, 1, 43, 120
3, 316604, Note_off_c, 1, 43, 100
3, 316608, Note_on_c, 1, 43, 120
3, 316796, Note_off_c, 1, 43, 100
3, 316800, Note_on_c, 1, 43, 120
3, 316988, Note_off_c, 1, 43, 100
3, 316992, Note_on_c, 1, 43, 120
3, 317180, Note_off_c, 1, 43, 100
3, 317184, Note_on_c, 1, 43, 120
3, 317372, Note_off_c, 1, 43, 100
3, 317376, Note_on_c, 1, 43, 120
3, 317564, Note_off_c, 1, 43, 100
3, 317568, Note_on_c, 1, 43, 120
3, 317756, Note_off_c, 1, 43, 100
3, 317760, Note_on_c, 1, 43, 120
3, 317948, Note_off_c, 1, 43, 100
3, 317952, Note_on_c, 1, 48, 120
3, 317952, Note_on_c, 1, 36, 120
3, 318140, Note_off_c, 1, 48, 100
3, 318140, Note_off_c, 1, 36, 100
3, 318144, Note_on_c, 1, 50, 80
3, 318332, Note_off_c, 1, 50, 100
3, 318336, Note_on_c, 1, 51, 80
3, 318524, Note_off_c, 1, 51, 100
3, 318528, Note_on_c, 1, 53, 80
3, 318716, Note_off_c, 1, 53, 100
3, 318720, Note_on_c, 1, 55, 80
3, 318908, Note_off_c, 1, 55, 100
3, 318912, Note_on_c, 1, 56, 80
3, 319100, Note_off_c, 1, 56, 100
3, 319104, Note_on_c, 1, 59, 80
3, 319292, Note_off_c, 1, 59, 100
3, 319296, Note_on_c, 1, 60, 80
3, 319484, Note_off_c, 1, 60, 100
3, 319488, Note_on_c, 1, 62, 80
3, 319676, Note_off_c, 1, 62, 100
3, 319680, Note_on_c, 1, 63, 80
3, 319868, Note_off_c, 1, 63, 100
3, 319872, Note_on_c, 1, 65, 80
3, 320060, Note_off_c, 1, 65, 100
3, 320064, Note_on_c, 1, 67, 80
3, 320252, Note_off_c, 1, 67, 100
3, 320256, Note_on_c, 1, 65, 80
3, 320444, Note_off_c, 1, 65, 100
3, 320448, Note_on_c, 1, 63, 80
3, 320636, Note_off_c, 1, 63, 100
3, 320640, Note_on_c, 1, 62, 80
3, 320828, Note_off_c, 1, 62, 100
3, 320832, Note_on_c, 1, 60, 80
3, 321020, Note_off_c, 1, 60, 100
3, 321024, Note_on_c, 1, 59, 80
3, 321212, Note_off_c, 1, 59, 100
3, 321216, Note_on_c, 1, 56, 80
3, 321404, Note_off_c, 1, 56, 100
3, 321408, Note_on_c, 1, 55, 80
3, 321596, Note_off_c, 1, 55, 100
3, 321600, Note_on_c, 1, 53, 80
3, 321788, Note_off_c, 1, 53, 100
3, 321792, Note_on_c, 1, 51, 80
3, 321980, Note_off_c, 1, 51, 100
3, 321984, Note_on_c, 1, 50, 80
3, 322172, Note_off_c, 1, 50, 100
3, 322176, Note_on_c, 1, 48, 80
3, 322364, Note_off_c, 1, 48, 100
3, 322368, Note_on_c, 1, 47, 80
3, 322556, Note_off_c, 1, 47, 100
3, 322560, Note_on_c, 1, 48, 80
3, 322940, Note_off_c, 1, 48, 100
3, 324864, Note_on_c, 1, 61, 80
3, 325052, Note_off_c, 1, 61, 100
3, 325056, Note_on_c, 1, 60, 80
3, 325244, Note_off_c, 1, 60, 100
3, 325248, Note_on_c, 1, 58, 80
3, 325436, Note_off_c, 1, 58, 100
3, 325440, Note_on_c, 1, 56, 80
3, 325628, Note_off_c, 1, 56, 100
3, 325632, Note_on_c, 1, 55, 80
3, 325820, Note_off_c, 1, 55, 100
3, 325824, Note_on_c, 1, 53, 80
3, 326012, Note_off_c, 1, 53, 100
3, 326016, Note_on_c, 1, 51, 80
3, 326204, Note_off_c, 1, 51, 100
3, 326208, Note_on_c, 1, 49, 80
3, 326396, Note_off_c, 1, 49, 100
3, 326400, Note_on_c, 1, 48, 80
3, 326588, Note_off_c, 1, 48, 100
3, 326592, Note_on_c, 1, 46, 80
3, 326780, Note_off_c, 1, 46, 100
3, 326784, Note_on_c, 1, 44, 80
3, 326972, Note_off_c, 1, 44, 100
3, 326976, Note_on_c, 1, 43, 80
3, 327164, Note_off_c, 1, 43, 100
3, 327168, Note_on_c, 1, 44, 80
3, 327548, Note_off_c, 1, 44, 100
3, 329472, Note_on_c, 1, 58, 80
3, 329660, Note_off_c, 1, 58, 100
3, 329664, Note_on_c, 1, 56, 81
3, 329852, Note_off_c, 1, 56, 100
3, 329856, Note_on_c, 1, 55, 83
3, 330044, Note_off_c, 1, 55, 100
3, 330048, Note_on_c, 1, 53, 85
3, 330236, Note_off_c, 1, 53, 100
3, 330240, Note_on_c, 1, 52, 87
3, 330428, Note_off_c, 1, 52, 100
3, 330432, Note_on_c, 1, 49, 89
3, 330620, Note_off_c, 1, 49, 100
3, 330624, Note_on_c, 1, 48, 90
3, 330812, Note_off_c, 1, 48, 100
3, 330816, Note_on_c, 1, 46, 92
3, 331004, Note_off_c, 1, 46, 100
3, 331008, Note_on_c, 1, 44, 94
3, 331196, Note_off_c, 1, 44, 100
3, 331200, Note_on_c, 1, 43, 96
3, 331388, Note_off_c, 1, 43, 100
3, 331392, Note_on_c, 1, 41, 98
3, 331580, Note_off_c, 1, 41, 100
3, 331584, Note_on_c, 1, 40, 99
3, 331772, Note_off_c, 1, 40, 100
3, 331776, Note_on_c, 1, 41, 112
3, 332156, Note_off_c, 1, 41, 100
3, 332160, Note_on_c, 1, 44, 110
3, 332732, Note_off_c, 1, 44, 100
3, 332736, Note_on_c, 1, 41, 100
3, 332924, Note_off_c, 1, 41, 100
3, 332928, Note_on_c, 1, 36, 100
3, 333308, Note_off_c, 1, 36, 100
3, 333312, Note_on_c, 1, 58, 110
3, 333312, Note_on_c, 1, 48, 110
3, 333884, Note_off_c, 1, 58, 100
3, 333888, Note_on_c, 1, 55, 100
3, 334076, Note_off_c, 1, 48, 100
3, 334076, Note_off_c, 1, 55, 100
3, 334080, Note_on_c, 1, 56, 100
3, 334080, Note_on_c, 1, 53, 100
3, 334460, Note_off_c, 1, 56, 100
3, 334460, Note_off_c, 1, 53, 100
3, 334464, Note_on_c, 1, 44, 110
3, 335036, Note_off_c, 1, 44, 100
3, 335040, Note_on_c, 1, 41, 100
3, 335228, Note_off_c, 1, 41, 100
3, 335232, Note_on_c, 1, 36, 100
3, 335612, Note_off_c, 1, 36, 100
3, 335616, Note_on_c, 1, 48, 110
3, 335616, Note_on_c, 1, 58, 110
3, 336188, Note_off_c, 1, 58, 100
3, 336192, Note_on_c, 1, 55, 100
3, 336380, Note_off_c, 1, 48, 100
3, 336380, Note_off_c, 1, 55, 100
3, 336384, Note_on_c, 1, 56, 100
3, 336384, Note_on_c, 1, 53, 100
3, 336764, Note_off_c, 1, 56, 100
3, 336764, Note_off_c, 1, 53, 100
3, 336768, Note_on_c, 1, 44, 110
3, 337340, Note_off_c, 1, 44, 100
3, 337344, Note_on_c, 1, 41, 100
3, 337532, Note_off_c, 1, 41, 100
3, 337536, Note_on_c, 1, 42, 100
3, 337916, Note_off_c, 1, 42, 100
3, 337920, Note_on_c, 1, 54, 110
3, 337920, Note_on_c, 1, 60, 110
3, 338492, Note_off_c, 1, 60, 100
3, 338496, Note_on_c, 1, 57, 100
3, 338684, Note_off_c, 1, 54, 100
3, 338684, Note_off_c, 1, 57, 100
3, 338688, Note_on_c, 1, 58, 100
3, 338688, Note_on_c, 1, 55, 100
3, 339068, Note_off_c, 1, 58, 100
3, 339068, Note_off_c, 1, 55, 100
3, 339072, Note_on_c, 1, 46, 110
3, 339644, Note_off_c, 1, 46, 100
3, 339648, Note_on_c, 1, 43, 100
3, 339836, Note_off_c, 1, 43, 100
3, 339840, Note_on_c, 1, 38, 100
3, 340220, Note_off_c, 1, 38, 100
3, 340224, Note_on_c, 1, 50, 110
3, 340224, Note_on_c, 1, 60, 110
3, 340796, Note_off_c, 1, 60, 100
3, 340800, Note_on_c, 1, 56, 100
3, 340988, Note_off_c, 1, 50, 100
3, 340988, Note_off_c, 1, 56, 100
3, 340992, Note_on_c, 1, 58, 100
3, 340992, Note_on_c, 1, 55, 100
3, 341372, Note_off_c, 1, 58, 100
3, 341372, Note_off_c, 1, 55, 100
3, 341376, Note_on_c, 1, 46, 110
3, 341948, Note_off_c, 1, 46, 100
3, 341952, Note_on_c, 1, 43, 100
3, 342140, Note_off_c, 1, 43, 100
3, 342144, Note_on_c, 1, 39, 100
3, 342524, Note_off_c, 1, 39, 100
3, 342528, Note_on_c, 1, 63, 110
3, 342528, Note_on_c, 1, 67, 110
3, 343100, Note_off_c, 1, 63, 100
3, 343100, Note_off_c, 1, 67, 100
3, 343104, Note_on_c, 1, 67, 110
3, 343104, Note_on_c, 1, 63, 110
3, 343292, Note_off_c, 1, 67, 100
3, 343292, Note_off_c, 1, 63, 100
3, 343296, Note_on_c, 1, 62, 110
3, 343296, Note_on_c, 1, 69, 110
3, 343676, Note_off_c, 1, 62, 100
3, 343676, Note_off_c, 1, 69, 100
3, 343680, Note_on_c, 1, 50, 110
3, 343680, Note_on_c, 1, 38, 110
3, 344252, Note_off_c, 1, 50, 100
3, 344252, Note_off_c, 1, 38, 100
3, 344256, Note_on_c, 1, 50, 110
3, 344256, Note_on_c, 1, 38, 110
3, 344444, Note_off_c, 1, 50, 100
3, 344444, Note_off_c, 1, 38, 100
3, 344448, Note_on_c, 1, 51, 110
3, 344448, Note_on_c, 1, 39, 110
3, 344828, Note_off_c, 1, 51, 100
3, 344828, Note_off_c, 1, 39, 100
3, 344832, Note_on_c, 1, 63, 120
3, 344832, Note_on_c, 1, 67, 120
3, 345404, Note_off_c, 1, 63, 100
3, 345404, Note_off_c, 1, 67, 100
3, 345408, Note_on_c, 1, 67, 120
3, 345408, Note_on_c, 1, 63, 120
3, 345596, Note_off_c, 1, 67, 100
3, 345596, Note_off_c, 1, 63, 100
3, 345600, Note_on_c, 1, 62, 120
3, 345600, Note_on_c, 1, 69, 120
3, 345600, Note_on_c, 1, 66, 120
3, 345980, Note_off_c, 1, 62, 100
3, 345980, Note_off_c, 1, 69, 100
3, 345980, Note_off_c, 1, 66, 100
3, 347904, Note_on_c, 1, 60, 100
3, 347904, Note_on_c, 1, 57, 100
3, 347904, Note_on_c, 1, 54, 100
3, 347904, Note_on_c, 1, 51, 100
3, 348284, Note_off_c, 1, 60, 100
3, 348284, Note_off_c, 1, 57, 100
3, 348284, Note_off_c, 1, 54, 100
3, 348284, Note_off_c, 1, 51, 100
3, 350208, Note_on_c, 1, 40, 70
3, 350396, Note_off_c, 1, 40, 100
3, 350400, Note_on_c, 1, 52, 70
3, 350588, Note_off_c, 1, 52, 100
3, 350592, Note_on_c, 1, 52, 70
3, 350780, Note_off_c, 1, 52, 100
3, 350784, Note_on_c, 1, 52, 70
3, 350972, Note_off_c, 1, 52, 100
3, 350976, Note_on_c, 1, 52, 70
3, 351164, Note_off_c, 1, 52, 100
3, 351168, Note_on_c, 1, 52, 71
3, 351356, Note_off_c, 1, 52, 100
3, 351360, Note_on_c, 1, 52, 71
3, 351548, Note_off_c, 1, 52, 100
3, 351552, Note_on_c, 1, 52, 71
3, 351740, Note_off_c, 1, 52, 100
3, 351744, Note_on_c, 1, 52, 71
3, 351932, Note_off_c, 1, 52, 100
3, 351936, Note_on_c, 1, 52, 71
3, 352124, Note_off_c, 1, 52, 100
3, 352128, Note_on_c, 1, 52, 72
3, 352316, Note_off_c, 1, 52, 100
3, 352320, Note_on_c, 1, 52, 72
3, 352508, Note_off_c, 1, 52, 100
3, 352512, Note_on_c, 1, 40, 72
3, 352700, Note_off_c, 1, 40, 100
3, 352704, Note_on_c, 1, 52, 72
3, 352892, Note_off_c, 1, 52, 100
3, 352896, Note_on_c, 1, 52, 72
3, 353084, Note_off_c, 1, 52, 100
3, 353088, Note_on_c, 1, 52, 73
3, 353276, Note_off_c, 1, 52, 100
3, 353280, Note_on_c, 1, 52, 73
3, 353468, Note_off_c, 1, 52, 100
3, 353472, Note_on_c, 1, 52, 73
3, 353660, Note_off_c, 1, 52, 100
3, 353664, Note_on_c, 1, 52, 73
3, 353852, Note_off_c, 1, 52, 100
3, 353856, Note_on_c, 1, 52, 74
3, 354044, Note_off_c, 1, 52, 100
3, 354048, Note_on_c, 1, 52, 74
3, 354236, Note_off_c, 1, 52, 100
3, 354240, Note_on_c, 1, 52, 74
3, 354428, Note_off_c, 1, 52, 100
3, 354432, Note_on_c, 1, 52, 74
3, 354620, Note_off_c, 1, 52, 100
3, 354624, Note_on_c, 1, 52, 74
3, 354812, Note_off_c, 1, 52, 100
3, 354816, Note_on_c, 1, 45, 75
3, 355008, Note_on_c, 1, 52, 75
3, 355196, Note_off_c, 1, 52, 100
3, 355200, Note_on_c, 1, 52, 75
3, 355388, Note_off_c, 1, 45, 100
3, 355388, Note_off_c, 1, 52, 100
3, 355392, Note_on_c, 1, 45, 75
3, 355392, Note_on_c, 1, 48, 75
3, 355584, Note_on_c, 1, 52, 75
3, 355772, Note_off_c, 1, 52, 100
3, 355776, Note_on_c, 1, 52, 76
3, 355964, Note_off_c, 1, 45, 100
3, 355964, Note_off_c, 1, 48, 100
3, 355964, Note_off_c, 1, 52, 100
3, 355968, Note_on_c, 1, 47, 76
3, 356160, Note_on_c, 1, 52, 76
3, 356348, Note_off_c, 1, 52, 100
3, 356352, Note_on_c, 1, 52, 76
3, 356540, Note_off_c, 1, 47, 100
3, 356540, Note_off_c, 1, 52, 100
3, 356544, Note_on_c, 1, 44, 77
3, 356736, Note_on_c, 1, 52, 77
3, 356924, Note_off_c, 1, 52, 100
3, 356928, Note_on_c, 1, 52, 77
3, 357116, Note_off_c, 1, 44, 100
3, 357116, Note_off_c, 1, 52, 100
3, 357120, Note_on_c, 1, 45, 77
3, 357312, Note_on_c, 1, 52, 77
3, 357500, Note_off_c, 1, 52, 100
3, 357504, Note_on_c, 1, 52, 78
3, 357692, Note_off_c, 1, 45, 100
3, 357692, Note_off_c, 1, 52, 100
3, 357696, Note_on_c, 1, 45, 78
3, 357696, Note_on_c, 1, 48, 78
3, 357888, Note_on_c, 1, 52, 78
3, 358076, Note_off_c, 1, 52, 100
3, 358080, Note_on_c, 1, 52, 78
3, 358268, Note_off_c, 1, 45, 100
3, 358268, Note_off_c, 1, 48, 100
3, 358268, Note_off_c, 1, 52, 100
3, 358272, Note_on_c, 1, 47, 78
3, 358464, Note_on_c, 1, 52, 79
3, 358652, Note_off_c, 1, 52, 100
3, 358656, Note_on_c, 1, 52, 79
3, 358844, Note_off_c, 1, 47, 100
3, 358844, Note_off_c, 1, 52, 100
3, 358848, Note_on_c, 1, 44, 79
3, 359040, Note_on_c, 1, 52, 79
3, 359228, Note_off_c, 1, 52, 100
3, 359232, Note_on_c, 1, 52, 79
3, 359420, Note_off_c, 1, 44, 100
3, 359420, Note_off_c, 1, 52, 100
3, 359424, Note_on_c, 1, 45, 120
3, 359612, Note_off_c, 1, 45, 100
3, 359616, Note_on_c, 1, 57, 120
3, 359804, Note_off_c, 1, 57, 100
3, 359808, Note_on_c, 1, 57, 120
3, 359996, Note_off_c, 1, 57, 100
3, 360000, Note_on_c, 1, 57, 120
3, 360188, Note_off_c, 1, 57, 100
3, 360192, Note_on_c, 1, 57, 120
3, 360380, Note_off_c, 1, 57, 100
3, 360384, Note_on_c, 1, 57, 120
3, 360572, Note_off_c, 1, 57, 100
3, 360576, Note_on_c, 1, 57, 120
3, 360764, Note_off_c, 1, 57, 100
3, 360768, Note_on_c, 1, 57, 120
3, 360956, Note_off_c, 1, 57, 100
3, 360960, Note_on_c, 1, 57, 120
3, 361148, Note_off_c, 1, 57, 100
3, 361152, Note_on_c, 1, 57, 120
3, 361340, Note_off_c, 1, 57, 100
3, 361344, Note_on_c, 1, 57, 120
3, 361532, Note_off_c, 1, 57, 100
3, 361536, Note_on_c, 1, 57, 120
3, 361724, Note_off_c, 1, 57, 100
3, 361728, Note_on_c, 1, 45, 120
3, 361916, Note_off_c, 1, 45, 100
3, 361920, Note_on_c, 1, 57, 120
3, 362108, Note_off_c, 1, 57, 100
3, 362112, Note_on_c, 1, 57, 120
3, 362300, Note_off_c, 1, 57, 100
3, 362304, Note_on_c, 1, 57, 120
3, 362492, Note_off_c, 1, 57, 100
3, 362496, Note_on_c, 1, 57, 120
3, 362684, Note_off_c, 1, 57, 100
3, 362688, Note_on_c, 1, 57, 120
3, 362876, Note_off_c, 1, 57, 100
3, 362880, Note_on_c, 1, 57, 120
3, 363068, Note_off_c, 1, 57, 100
3, 363072, Note_on_c, 1, 57, 120
3, 363260, Note_off_c, 1, 57, 100
3, 363264, Note_on_c, 1, 57, 120
3, 363452, Note_off_c, 1, 57, 100
3, 363456, Note_on_c, 1, 57, 120
3, 363644, Note_off_c, 1, 57, 100
3, 363648, Note_on_c, 1, 57, 120
3, 363836, Note_off_c, 1, 57, 100
3, 363840, Note_on_c, 1, 57, 120
3, 364028, Note_off_c, 1, 57, 100
3, 364032, Note_on_c, 1, 50, 80
3, 364224, Note_on_c, 1, 57, 80
3, 364412, Note_off_c, 1, 57, 100
3, 364416, Note_on_c, 1, 57, 80
3, 364604, Note_off_c, 1, 50, 100
3, 364604, Note_off_c, 1, 57, 100
3, 364608, Note_on_c, 1, 50, 80
3, 364608, Note_on_c, 1, 53, 80
3, 364796, Note_off_c, 1, 53, 100
3, 364800, Note_on_c, 1, 57, 80
3, 364988, Note_off_c, 1, 57, 100
3, 364992, Note_on_c, 1, 57, 80
3, 365180, Note_off_c, 1, 50, 100
3, 365180, Note_off_c, 1, 57, 100
3, 365184, Note_on_c, 1, 52, 80
3, 365376, Note_on_c, 1, 57, 80
3, 365564, Note_off_c, 1, 57, 100
3, 365568, Note_on_c, 1, 57, 80
3, 365756, Note_off_c, 1, 52, 100
3, 365756, Note_off_c, 1, 57, 100
3, 365760, Note_on_c, 1, 49, 80
3, 365952, Note_on_c, 1, 57, 80
3, 366140, Note_off_c, 1, 57, 100
3, 366144, Note_on_c, 1, 57, 80
3, 366332, Note_off_c, 1, 49, 100
3, 366332, Note_off_c, 1, 57, 100
3, 366336, Note_on_c, 1, 50, 80
3, 366528, Note_on_c, 1, 57, 80
3, 366716, Note_off_c, 1, 57, 100
3, 366720, Note_on_c, 1, 57, 80
3, 366908, Note_off_c, 1, 50, 100
3, 366908, Note_off_c, 1, 57, 100
3, 366912, Note_on_c, 1, 50, 80
3, 366912, Note_on_c, 1, 53, 80
3, 367100, Note_off_c, 1, 53, 100
3, 367104, Note_on_c, 1, 57, 80
3, 367292, Note_off_c, 1, 57, 100
3, 367296, Note_on_c, 1, 57, 80
3, 367484, Note_off_c, 1, 50, 100
3, 367484, Note_off_c, 1, 57, 100
3, 367488, Note_on_c, 1, 52, 80
3, 367680, Note_on_c, 1, 57, 80
3, 367868, Note_off_c, 1, 57, 100
3, 367872, Note_on_c, 1, 57, 80
3, 368060, Note_off_c, 1, 52, 100
3, 368060, Note_off_c, 1, 57, 100
3, 368064, Note_on_c, 1, 49, 80
3, 368256, Note_on_c, 1, 57, 80
3, 368444, Note_off_c, 1, 57, 100
3, 368448, Note_on_c, 1, 57, 80
3, 368636, Note_off_c, 1, 49, 100
3, 368636, Note_off_c, 1, 57, 100
3, 368640, Note_on_c, 1, 50, 80
3, 368640, Note_on_c, 1, 57, 80
3, 370172, Note_off_c, 1, 50, 100
3, 370172, Note_off_c, 1, 57, 100
3, 370944, Note_on_c, 1, 58, 70
3, 370944, Note_on_c, 1, 50, 70
3, 372476, Note_off_c, 1, 50, 100
3, 372476, Note_off_c, 1, 58, 100
3, 373248, Note_on_c, 1, 39, 120
3, 373436, Note_off_c, 1, 39, 100
3, 373440, Note_on_c, 1, 51, 120
3, 373628, Note_off_c, 1, 51, 100
3, 373632, Note_on_c, 1, 51, 120
3, 373820, Note_off_c, 1, 51, 100
3, 373824, Note_on_c, 1, 51, 120
3, 374012, Note_off_c, 1, 51, 100
3, 374016, Note_on_c, 1, 51, 120
3, 374204, Note_off_c, 1, 51, 100
3, 374208, Note_on_c, 1, 51, 120
3, 374396, Note_off_c, 1, 51, 100
3, 374400, Note_on_c, 1, 51, 120
3, 374588, Note_off_c, 1, 51, 100
3, 374592, Note_on_c, 1, 51, 120
3, 374780, Note_off_c, 1, 51, 100
3, 374784, Note_on_c, 1, 51, 120
3, 374972, Note_off_c, 1, 51, 100
3, 374976, Note_on_c, 1, 51, 120
3, 375164, Note_off_c, 1, 51, 100
3, 375168, Note_on_c, 1, 51, 120
3, 375356, Note_off_c, 1, 51, 100
3, 375360, Note_on_c, 1, 51, 120
3, 375548, Note_off_c, 1, 51, 100
3, 375552, Note_on_c, 1, 39, 120
3, 375740, Note_off_c, 1, 39, 100
3, 375744, Note_on_c, 1, 51, 120
3, 375932, Note_off_c, 1, 51, 100
3, 375936, Note_on_c, 1, 51, 120
3, 376124, Note_off_c, 1, 51, 100
3, 376128, Note_on_c, 1, 51, 120
3, 376316, Note_off_c, 1, 51, 100
3, 376320, Note_on_c, 1, 51, 120
3, 376508, Note_off_c, 1, 51, 100
3, 376512, Note_on_c, 1, 51, 120
3, 376700, Note_off_c, 1, 51, 100
3, 376704, Note_on_c, 1, 51, 120
3, 376892, Note_off_c, 1, 51, 100
3, 376896, Note_on_c, 1, 51, 120
3, 377084, Note_off_c, 1, 51, 100
3, 377088, Note_on_c, 1, 51, 120
3, 377276, Note_off_c, 1, 51, 100
3, 377280, Note_on_c, 1, 51, 120
3, 377468, Note_off_c, 1, 51, 100
3, 377472, Note_on_c, 1, 51, 120
3, 377660, Note_off_c, 1, 51, 100
3, 377664, Note_on_c, 1, 51, 80
3, 377852, Note_off_c, 1, 51, 100
3, 377856, Note_on_c, 1, 63, 80
3, 377856, Note_on_c, 1, 55, 80
3, 377856, Note_on_c, 1, 51, 80
3, 378428, Note_off_c, 1, 55, 100
3, 378428, Note_off_c, 1, 51, 100
3, 378432, Note_on_c, 1, 56, 80
3, 378432, Note_on_c, 1, 53, 80
3, 379004, Note_off_c, 1, 56, 100
3, 379004, Note_off_c, 1, 53, 100
3, 379008, Note_on_c, 1, 55, 80
3, 379008, Note_on_c, 1, 58, 80
3, 379388, Note_off_c, 1, 63, 100
3, 379388, Note_off_c, 1, 55, 100
3, 379388, Note_off_c, 1, 58, 100
3, 380160, Note_on_c, 1, 70, 80
3, 380160, Note_on_c, 1, 62, 80
3, 380160, Note_on_c, 1, 58, 80
3, 380732, Note_off_c, 1, 62, 100
3, 380732, Note_off_c, 1, 58, 100
3, 380736, Note_on_c, 1, 63, 80
3, 380736, Note_on_c, 1, 60, 80
3, 381308, Note_off_c, 1, 63, 100
3, 381308, Note_off_c, 1, 60, 100
3, 381312, Note_on_c, 1, 65, 80
3, 381312, Note_on_c, 1, 62, 80
3, 381692, Note_off_c, 1, 70, 100
3, 381692, Note_off_c, 1, 65, 100
3, 381692, Note_off_c, 1, 62, 100
3, 382464, Note_on_c, 1, 75, 80
3, 382464, Note_on_c, 1, 67, 80
3, 382464, Note_on_c, 1, 63, 80
3, 383036, Note_off_c, 1, 67, 100
3, 383036, Note_off_c, 1, 63, 100
3, 383040, Note_on_c, 1, 68, 87
3, 383040, Note_on_c, 1, 65, 87
3, 383612, Note_off_c, 1, 68, 100
3, 383612, Note_off_c, 1, 65, 100
3, 383616, Note_on_c, 1, 70, 94
3, 383616, Note_on_c, 1, 67, 94
3, 384188, Note_off_c, 1, 75, 100
3, 384188, Note_off_c, 1, 70, 100
3, 384188, Note_off_c, 1, 67, 100
3, 384192, Note_on_c, 1, 73, 100
3, 384192, Note_on_c, 1, 70, 100
3, 384192, Note_on_c, 1, 67, 100
3, 384192, Note_on_c, 1, 75, 100
3, 384764, Note_off_c, 1, 73, 100
3, 384764, Note_off_c, 1, 70, 100
3, 384764, Note_off_c, 1, 67, 100
3, 384768, Note_on_c, 1, 72, 80
3, 384768, Note_on_c, 1, 68, 80
3, 385148, Note_off_c, 1, 75, 100
3, 385148, Note_off_c, 1, 72, 100
3, 385148, Note_off_c, 1, 68, 100
3, 385920, Note_on_c, 1, 67, 80
3, 385920, Note_on_c, 1, 63, 80
3, 385920, Note_on_c, 1, 58, 80
3, 386300, Note_off_c, 1, 67, 100
3, 386300, Note_off_c, 1, 63, 100
3, 386300, Note_off_c, 1, 58, 100
3, 386496, Note_on_c, 1, 68, 80
3, 386496, Note_on_c, 1, 65, 80
3, 386496, Note_on_c, 1, 58, 80
3, 386876, Note_off_c, 1, 68, 100
3, 386876, Note_off_c, 1, 65, 100
3, 386876, Note_off_c, 1, 58, 100
3, 387072, Note_on_c, 1, 63, 80
3, 387260, Note_off_c, 1, 63, 100
3, 387264, Note_on_c, 1, 62, 80
3, 387452, Note_off_c, 1, 62, 100
3, 387456, Note_on_c, 1, 65, 80
3, 387644, Note_off_c, 1, 65, 100
3, 387648, Note_on_c, 1, 63, 80
3, 387836, Note_off_c, 1, 63, 100
3, 387840, Note_on_c, 1, 62, 81
3, 388028, Note_off_c, 1, 62, 100
3, 388032, Note_on_c, 1, 65, 82
3, 388220, Note_off_c, 1, 65, 100
3, 388224, Note_on_c, 1, 63, 84
3, 388412, Note_off_c, 1, 63, 100
3, 388416, Note_on_c, 1, 62, 85
3, 388604, Note_off_c, 1, 62, 100
3, 388608, Note_on_c, 1, 65, 87
3, 388796, Note_off_c, 1, 65, 100
3, 388800, Note_on_c, 1, 63, 88
3, 388988, Note_off_c, 1, 63, 100
3, 388992, Note_on_c, 1, 61, 90
3, 389180, Note_off_c, 1, 61, 100
3, 389184, Note_on_c, 1, 60, 91
3, 389372, Note_off_c, 1, 60, 100
3, 389376, Note_on_c, 1, 58, 93
3, 389564, Note_off_c, 1, 58, 100
3, 389568, Note_on_c, 1, 56, 94
3, 389756, Note_off_c, 1, 56, 100
3, 389760, Note_on_c, 1, 55, 96
3, 389948, Note_off_c, 1, 55, 100
3, 389952, Note_on_c, 1, 53, 97
3, 390140, Note_off_c, 1, 53, 100
3, 390144, Note_on_c, 1, 51, 99
3, 390332, Note_off_c, 1, 51, 100
3, 390336, Note_on_c, 1, 49, 100
3, 390524, Note_off_c, 1, 49, 100
3, 390528, Note_on_c, 1, 48, 102
3, 390716, Note_off_c, 1, 48, 100
3, 390720, Note_on_c, 1, 46, 103
3, 390908, Note_off_c, 1, 46, 100
3, 390912, Note_on_c, 1, 44, 105
3, 391100, Note_off_c, 1, 44, 100
3, 391104, Note_on_c, 1, 43, 106
3, 391292, Note_off_c, 1, 43, 100
3, 391296, Note_on_c, 1, 41, 108
3, 391484, Note_off_c, 1, 41, 100
3, 391488, Note_on_c, 1, 39, 109
3, 391676, Note_off_c, 1, 39, 100
3, 391680, Note_on_c, 1, 44, 110
3, 391680, Note_on_c, 1, 39, 110
3, 391680, Note_on_c, 1, 32, 110
3, 392060, Note_off_c, 1, 44, 100
3, 392060, Note_off_c, 1, 39, 100
3, 392060, Note_off_c, 1, 32, 100
3, 392256, Note_on_c, 1, 46, 110
3, 392256, Note_on_c, 1, 39, 110
3, 392256, Note_on_c, 1, 34, 110
3, 395132, Note_off_c, 1, 34, 100
3, 395132, Note_off_c, 1, 39, 100
3, 395132, Note_off_c, 1, 46, 100
3, 395136, Note_on_c, 1, 43, 110
3, 395136, Note_on_c, 1, 39, 110
3, 395136, Note_on_c, 1, 31, 110
3, 396284, Note_off_c, 1, 43, 100
3, 396284, Note_off_c, 1, 39, 100
3, 396284, Note_off_c, 1, 31, 100
3, 396288, Note_on_c, 1, 44, 110
3, 396288, Note_on_c, 1, 39, 110
3, 396288, Note_on_c, 1, 32, 110
3, 396668, Note_off_c, 1, 44, 100
3, 396668, Note_off_c, 1, 39, 100
3, 396668, Note_off_c, 1, 32, 100
3, 396864, Note_on_c, 1, 46, 120
3, 396864, Note_on_c, 1, 39, 120
3, 396864, Note_on_c, 1, 34, 120
3, 399740, Note_off_c, 1, 34, 100
3, 399740, Note_off_c, 1, 39, 100
3, 399740, Note_off_c, 1, 46, 100
3, 399744, Note_on_c, 1, 43, 116
3, 399744, Note_on_c, 1, 39, 116
3, 399744, Note_on_c, 1, 31, 116
3, 400892, Note_off_c, 1, 43, 100
3, 400892, Note_off_c, 1, 39, 100
3, 400892, Note_off_c, 1, 31, 100
3, 400896, Note_on_c, 1, 44, 115
3, 400896, Note_on_c, 1, 32, 115
3, 402620, Note_off_c, 1, 32, 100
3, 402620, Note_off_c, 1, 44, 100
3, 402624, Note_on_c, 1, 45, 113
3, 402624, Note_on_c, 1, 33, 113
3, 403196, Note_off_c, 1, 45, 100
3, 403196, Note_off_c, 1, 33, 100
3, 403200, Note_on_c, 1, 46, 112
3, 403200, Note_on_c, 1, 34, 112
3, 403580, Note_off_c, 1, 34, 100
3, 404160, Note_on_c, 1, 56, 80
3, 404348, Note_off_c, 1, 56, 100
3, 404352, Note_on_c, 1, 54, 80
3, 404732, Note_off_c, 1, 54, 100
3, 404736, Note_on_c, 1, 51, 80
3, 404924, Note_off_c, 1, 51, 100
3, 404928, Note_on_c, 1, 54, 80
3, 405308, Note_off_c, 1, 54, 100
3, 405312, Note_on_c, 1, 57, 80
3, 405500, Note_off_c, 1, 57, 100
3, 405504, Note_on_c, 1, 58, 80
3, 405884, Note_off_c, 1, 46, 100
3, 405884, Note_off_c, 1, 58, 100
3, 405888, Note_on_c, 1, 65, 80
3, 406076, Note_off_c, 1, 65, 100
3, 406080, Note_on_c, 1, 62, 80
3, 406460, Note_off_c, 1, 62, 100
3, 406464, Note_on_c, 1, 58, 80
3, 406652, Note_off_c, 1, 58, 100
3, 406656, Note_on_c, 1, 63, 80
3, 407036, Note_off_c, 1, 63, 100
3, 407040, Note_on_c, 1, 66, 80
3, 407228, Note_off_c, 1, 66, 100
3, 407232, Note_on_c, 1, 58, 80
3, 407612, Note_off_c, 1, 58, 100
3, 407616, Note_on_c, 1, 63, 80
3, 407804, Note_off_c, 1, 63, 100
3, 407808, Note_on_c, 1, 58, 80
3, 407808, Note_on_c, 1, 62, 80
3, 408188, Note_off_c, 1, 58, 100
3, 408188, Note_off_c, 1, 62, 100
3, 410112, Note_on_c, 1, 58, 80
3, 410300, Note_off_c, 1, 58, 100
3, 410304, Note_on_c, 1, 68, 106
3, 411836, Note_off_c, 1, 68, 100
3, 411840, Note_on_c, 1, 67, 80
3, 412028, Note_off_c, 1, 67, 100
3, 412032, Note_on_c, 1, 65, 80
3, 412220, Note_off_c, 1, 65, 100
3, 412224, Note_on_c, 1, 63, 80
3, 412412, Note_off_c, 1, 63, 100
3, 412416, Note_on_c, 1, 58, 80
3, 412604, Note_off_c, 1, 58, 100
3, 412608, Note_on_c, 1, 68, 105
3, 414140, Note_off_c, 1, 68, 100
3, 414144, Note_on_c, 1, 67, 80
3, 414332, Note_off_c, 1, 67, 100
3, 414336, Note_on_c, 1, 65, 80
3, 414524, Note_off_c, 1, 65, 100
3, 414528, Note_on_c, 1, 63, 80
3, 414716, Note_off_c, 1, 63, 100
3, 414720, Note_on_c, 1, 65, 80
3, 414908, Note_off_c, 1, 65, 100
3, 414912, Note_on_c, 1, 62, 80
3, 415100, Note_off_c, 1, 62, 100
3, 415104, Note_on_c, 1, 65, 80
3, 415292, Note_off_c, 1, 65, 100
3, 415296, Note_on_c, 1, 63, 80
3, 415484, Note_off_c, 1, 63, 100
3, 415488, Note_on_c, 1, 62, 80
3, 415676, Note_off_c, 1, 62, 100
3, 415680, Note_on_c, 1, 60, 80
3, 415868, Note_off_c, 1, 60, 100
3, 415872, Note_on_c, 1, 61, 80
3, 416060, Note_off_c, 1, 61, 100
3, 416064, Note_on_c, 1, 58, 80
3, 416252, Note_off_c, 1, 58, 100
3, 416256, Note_on_c, 1, 61, 80
3, 416444, Note_off_c, 1, 61, 100
3, 416448, Note_on_c, 1, 60, 80
3, 416636, Note_off_c, 1, 60, 100
3, 416640, Note_on_c, 1, 58, 80
3, 416828, Note_off_c, 1, 58, 100
3, 416832, Note_on_c, 1, 56, 80
3, 417020, Note_off_c, 1, 56, 100
3, 417024, Note_on_c, 1, 58, 80
3, 417212, Note_off_c, 1, 58, 100
3, 417216, Note_on_c, 1, 55, 80
3, 417404, Note_off_c, 1, 55, 100
3, 417408, Note_on_c, 1, 58, 80
3, 417596, Note_off_c, 1, 58, 100
3, 417600, Note_on_c, 1, 56, 80
3, 417788, Note_off_c, 1, 56, 100
3, 417792, Note_on_c, 1, 55, 80
3, 417980, Note_off_c, 1, 55, 100
3, 417984, Note_on_c, 1, 53, 80
3, 418172, Note_off_c, 1, 53, 100
3, 418176, Note_on_c, 1, 58, 80
3, 418176, Note_on_c, 1, 46, 80
3, 418364, Note_off_c, 1, 58, 100
3, 418368, Note_on_c, 1, 55, 80
3, 418556, Note_off_c, 1, 55, 100
3, 418560, Note_on_c, 1, 51, 80
3, 418748, Note_off_c, 1, 46, 100
3, 418748, Note_off_c, 1, 51, 100
3, 418752, Note_on_c, 1, 58, 80
3, 418752, Note_on_c, 1, 46, 80
3, 418940, Note_off_c, 1, 58, 100
3, 418944, Note_on_c, 1, 56, 80
3, 419132, Note_off_c, 1, 56, 100
3, 419136, Note_on_c, 1, 53, 80
3, 419324, Note_off_c, 1, 46, 100
3, 419324, Note_off_c, 1, 53, 100
3, 419328, Note_on_c, 1, 55, 80
3, 419328, Note_on_c, 1, 51, 80
3, 419516, Note_off_c, 1, 55, 100
3, 419516, Note_off_c, 1, 51, 100
3, 419520, Note_on_c, 1, 63, 80
3, 419708, Note_off_c, 1, 63, 100
3, 419712, Note_on_c, 1, 65, 80
3, 419900, Note_off_c, 1, 65, 100
3, 419904, Note_on_c, 1, 66, 80
3, 420092, Note_off_c, 1, 66, 100
3, 420096, Note_on_c, 1, 67, 80
3, 420284, Note_off_c, 1, 67, 100
3, 420288, Note_on_c, 1, 65, 80
3, 420476, Note_off_c, 1, 65, 100
3, 420480, Note_on_c, 1, 63, 80
3, 420668, Note_off_c, 1, 63, 100
3, 420672, Note_on_c, 1, 67, 80
3, 420860, Note_off_c, 1, 67, 100
3, 420864, Note_on_c, 1, 65, 80
3, 421052, Note_off_c, 1, 65, 100
3, 421056, Note_on_c, 1, 63, 80
3, 421244, Note_off_c, 1, 63, 100
3, 421248, Note_on_c, 1, 62, 80
3, 421436, Note_off_c, 1, 62, 100
3, 421440, Note_on_c, 1, 60, 80
3, 421628, Note_off_c, 1, 60, 100
3, 421632, Note_on_c, 1, 58, 80
3, 421820, Note_off_c, 1, 58, 100
3, 421824, Note_on_c, 1, 57, 80
3, 422012, Note_off_c, 1, 57, 100
3, 422016, Note_on_c, 1, 56, 80
3, 422204, Note_off_c, 1, 56, 100
3, 422208, Note_on_c, 1, 53, 80
3, 422396, Note_off_c, 1, 53, 100
3, 422400, Note_on_c, 1, 50, 80
3, 422588, Note_off_c, 1, 50, 100
3, 422592, Note_on_c, 1, 46, 80
3, 422780, Note_off_c, 1, 46, 100
3, 422784, Note_on_c, 1, 45, 80
3, 422972, Note_off_c, 1, 45, 100
3, 422976, Note_on_c, 1, 46, 80
3, 423164, Note_off_c, 1, 46, 100
3, 423168, Note_on_c, 1, 44, 80
3, 423356, Note_off_c, 1, 44, 100
3, 423360, Note_on_c, 1, 43, 80
3, 423548, Note_off_c, 1, 43, 100
3, 423552, Note_on_c, 1, 41, 80
3, 423740, Note_off_c, 1, 41, 100
3, 423744, Note_on_c, 1, 39, 80
3, 423932, Note_off_c, 1, 39, 100
3, 423936, Note_on_c, 1, 58, 80
3, 424124, Note_off_c, 1, 58, 100
3, 424128, Note_on_c, 1, 57, 80
3, 424316, Note_off_c, 1, 57, 100
3, 424320, Note_on_c, 1, 56, 80
3, 424508, Note_off_c, 1, 56, 100
3, 424512, Note_on_c, 1, 53, 80
3, 424700, Note_off_c, 1, 53, 100
3, 424704, Note_on_c, 1, 50, 80
3, 424892, Note_off_c, 1, 50, 100
3, 424896, Note_on_c, 1, 46, 80
3, 425084, Note_off_c, 1, 46, 100
3, 425088, Note_on_c, 1, 45, 80
3, 425276, Note_off_c, 1, 45, 100
3, 425280, Note_on_c, 1, 46, 80
3, 425468, Note_off_c, 1, 46, 100
3, 425472, Note_on_c, 1, 44, 80
3, 425660, Note_off_c, 1, 44, 100
3, 425664, Note_on_c, 1, 43, 80
3, 425852, Note_off_c, 1, 43, 100
3, 425856, Note_on_c, 1, 41, 80
3, 426044, Note_off_c, 1, 41, 100
3, 426048, Note_on_c, 1, 39, 80
3, 426236, Note_off_c, 1, 39, 100
3, 426240, Note_on_c, 1, 47, 80
3, 426428, Note_off_c, 1, 47, 100
3, 426432, Note_on_c, 1, 59, 80
3, 426620, Note_off_c, 1, 59, 100
3, 426624, Note_on_c, 1, 62, 80
3, 426812, Note_off_c, 1, 62, 100
3, 426816, Note_on_c, 1, 60, 80
3, 427004, Note_off_c, 1, 60, 100
3, 427008, Note_on_c, 1, 62, 80
3, 427196, Note_off_c, 1, 62, 100
3, 427200, Note_on_c, 1, 63, 80
3, 427388, Note_off_c, 1, 63, 100
3, 427392, Note_on_c, 1, 55, 80
3, 427580, Note_off_c, 1, 55, 100
3, 427584, Note_on_c, 1, 58, 80
3, 427772, Note_off_c, 1, 58, 100
3, 427776, Note_on_c, 1, 55, 80
3, 427964, Note_off_c, 1, 55, 100
3, 427968, Note_on_c, 1, 56, 80
3, 428156, Note_off_c, 1, 56, 100
3, 428160, Note_on_c, 1, 58, 80
3, 428348, Note_off_c, 1, 58, 100
3, 428352, Note_on_c, 1, 60, 80
3, 428540, Note_off_c, 1, 60, 100
3, 428544, Note_on_c, 1, 52, 80
3, 428732, Note_off_c, 1, 52, 100
3, 428736, Note_on_c, 1, 55, 80
3, 428924, Note_off_c, 1, 55, 100
3, 428928, Note_on_c, 1, 52, 80
3, 429116, Note_off_c, 1, 52, 100
3, 429120, Note_on_c, 1, 53, 80
3, 429308, Note_off_c, 1, 53, 100
3, 429312, Note_on_c, 1, 55, 80
3, 429500, Note_off_c, 1, 55, 100
3, 429504, Note_on_c, 1, 56, 80
3, 429692, Note_off_c, 1, 56, 100
3, 429696, Note_on_c, 1, 58, 80
3, 429884, Note_off_c, 1, 58, 100
3, 429888, Note_on_c, 1, 55, 80
3, 430076, Note_off_c, 1, 55, 100
3, 430080, Note_on_c, 1, 46, 80
3, 430268, Note_off_c, 1, 46, 100
3, 430272, Note_on_c, 1, 56, 80
3, 430460, Note_off_c, 1, 56, 100
3, 430464, Note_on_c, 1, 53, 80
3, 430652, Note_off_c, 1, 53, 100
3, 430656, Note_on_c, 1, 44, 80
3, 430844, Note_off_c, 1, 44, 100
3, 430848, Note_on_c, 1, 55, 80
3, 430848, Note_on_c, 1, 51, 80
3, 431228, Note_off_c, 1, 55, 100
3, 431228, Note_off_c, 1, 51, 100
3, 431424, Note_on_c, 1, 51, 80
3, 431424, Note_on_c, 1, 39, 80
3, 431424, Note_on_c, 1, 46, 80
3, 431996, Note_off_c, 1, 51, 100
3, 431996, Note_off_c, 1, 39, 100
3, 432000, Note_on_c, 1, 50, 80
3, 432000, Note_on_c, 1, 41, 80
3, 432572, Note_off_c, 1, 50, 100
3, 432572, Note_off_c, 1, 41, 100
3, 432576, Note_on_c, 1, 51, 80
3, 432576, Note_on_c, 1, 43, 80
3, 433148, Note_off_c, 1, 46, 100
3, 433148, Note_off_c, 1, 51, 100
3, 433148, Note_off_c, 1, 43, 100
3, 433152, Note_on_c, 1, 48, 80
3, 433152, Note_on_c, 1, 44, 80
3, 433532, Note_off_c, 1, 48, 100
3, 433532, Note_off_c, 1, 44, 100
3, 433728, Note_on_c, 1, 53, 80
3, 433728, Note_on_c, 1, 41, 80
3, 433728, Note_on_c, 1, 48, 80
3, 434300, Note_off_c, 1, 53, 100
3, 434300, Note_off_c, 1, 41, 100
3, 434304, Note_on_c, 1, 52, 80
3, 434304, Note_on_c, 1, 43, 80
3, 434876, Note_off_c, 1, 52, 100
3, 434876, Note_off_c, 1, 43, 100
3, 434880, Note_on_c, 1, 44, 80
3, 434880, Note_on_c, 1, 53, 80
3, 435452, Note_off_c, 1, 48, 100
3, 435452, Note_off_c, 1, 44, 100
3, 435456, Note_on_c, 1, 46, 80
3, 435836, Note_off_c, 1, 53, 100
3, 435836, Note_off_c, 1, 46, 100
3, 436032, Note_on_c, 1, 58, 80
3, 436604, Note_off_c, 1, 58, 100
3, 436608, Note_on_c, 1, 60, 86
3, 437180, Note_off_c, 1, 60, 100
3, 437184, Note_on_c, 1, 62, 93
3, 437756, Note_off_c, 1, 62, 100
3, 437760, Note_on_c, 1, 63, 99
3, 438332, Note_off_c, 1, 63, 100
3, 438336, Note_on_c, 1, 62, 100
3, 438336, Note_on_c, 1, 65, 100
3, 438908, Note_off_c, 1, 62, 100
3, 438908, Note_off_c, 1, 65, 100
3, 438912, Note_on_c, 1, 60, 100
3, 438912, Note_on_c, 1, 63, 100
3, 439484, Note_off_c, 1, 60, 100
3, 439484, Note_off_c, 1, 63, 100
3, 439488, Note_on_c, 1, 63, 96
3, 439488, Note_on_c, 1, 53, 96
3, 440060, Note_off_c, 1, 63, 100
3, 440060, Note_off_c, 1, 53, 100
3, 440064, Note_on_c, 1, 58, 80
3, 440064, Note_on_c, 1, 62, 80
3, 440444, Note_off_c, 1, 58, 100
3, 440444, Note_off_c, 1, 62, 100
3, 440640, Note_on_c, 1, 51, 80
3, 440640, Note_on_c, 1, 58, 80
3, 441212, Note_off_c, 1, 51, 100
3, 441216, Note_on_c, 1, 62, 80
3, 441216, Note_on_c, 1, 53, 80
3, 441788, Note_off_c, 1, 62, 100
3, 441788, Note_off_c, 1, 53, 100
3, 441792, Note_on_c, 1, 63, 80
3, 441792, Note_on_c, 1, 55, 80
3, 442364, Note_off_c, 1, 58, 100
3, 442364, Note_off_c, 1, 63, 100
3, 442364, Note_off_c, 1, 55, 100
3, 442368, Note_on_c, 1, 56, 80
3, 442368, Note_on_c, 1, 60, 80
3, 442748, Note_off_c, 1, 56, 100
3, 442748, Note_off_c, 1, 60, 100
3, 442944, Note_on_c, 1, 53, 80
3, 442944, Note_on_c, 1, 60, 80
3, 443516, Note_off_c, 1, 53, 100
3, 443520, Note_on_c, 1, 55, 80
3, 443520, Note_on_c, 1, 64, 80
3, 444092, Note_off_c, 1, 55, 100
3, 444092, Note_off_c, 1, 64, 100
3, 444096, Note_on_c, 1, 56, 80
3, 444096, Note_on_c, 1, 65, 80
3, 444668, Note_off_c, 1, 60, 100
3, 444668, Note_off_c, 1, 56, 100
3, 444672, Note_on_c, 1, 58, 80
3, 445052, Note_off_c, 1, 65, 100
3, 445052, Note_off_c, 1, 58, 100
3, 445440, Note_on_c, 1, 70, 80
3, 445628, Note_off_c, 1, 70, 100
3, 445632, Note_on_c, 1, 70, 80
3, 445820, Note_off_c, 1, 70, 100
3, 445824, Note_on_c, 1, 70, 80
3, 446012, Note_off_c, 1, 70, 100
3, 446016, Note_on_c, 1, 68, 80
3, 446204, Note_off_c, 1, 68, 100
3, 446208, Note_on_c, 1, 68, 80
3, 446396, Note_off_c, 1, 68, 100
3, 446592, Note_on_c, 1, 68, 80
3, 446780, Note_off_c, 1, 68, 100
3, 446784, Note_on_c, 1, 68, 80
3, 446972, Note_off_c, 1, 68, 100
3, 446976, Note_on_c, 1, 68, 80
3, 447164, Note_off_c, 1, 68, 100
3, 447168, Note_on_c, 1, 67, 80
3, 447356, Note_off_c, 1, 67, 100
3, 447360, Note_on_c, 1, 67, 80
3, 447548, Note_off_c, 1, 67, 100
3, 447552, Note_on_c, 1, 58, 80
3, 447744, Note_on_c, 1, 67, 80
3, 447744, Note_on_c, 1, 70, 80
3, 447932, Note_off_c, 1, 58, 100
3, 447932, Note_off_c, 1, 67, 100
3, 447932, Note_off_c, 1, 70, 100
3, 447936, Note_on_c, 1, 67, 80
3, 447936, Note_on_c, 1, 70, 80
3, 448124, Note_off_c, 1, 67, 100
3, 448124, Note_off_c, 1, 70, 100
3, 448128, Note_on_c, 1, 46, 80
3, 448320, Note_on_c, 1, 65, 80
3, 448320, Note_on_c, 1, 68, 80
3, 448508, Note_off_c, 1, 46, 100
3, 448508, Note_off_c, 1, 65, 100
3, 448508, Note_off_c, 1, 68, 100
3, 448512, Note_on_c, 1, 68, 80
3, 448512, Note_on_c, 1, 65, 80
3, 448700, Note_off_c, 1, 68, 100
3, 448700, Note_off_c, 1, 65, 100
3, 448704, Note_on_c, 1, 58, 80
3, 448896, Note_on_c, 1, 63, 80
3, 448896, Note_on_c, 1, 67, 80
3, 449084, Note_off_c, 1, 58, 100
3, 449084, Note_off_c, 1, 63, 100
3, 449084, Note_off_c, 1, 67, 100
3, 449088, Note_on_c, 1, 63, 80
3, 449088, Note_on_c, 1, 67, 80
3, 449276, Note_off_c, 1, 63, 100
3, 449276, Note_off_c, 1, 67, 100
3, 449280, Note_on_c, 1, 46, 80
3, 449472, Note_on_c, 1, 62, 80
3, 449472, Note_on_c, 1, 65, 80
3, 449660, Note_off_c, 1, 46, 100
3, 449660, Note_off_c, 1, 62, 100
3, 449660, Note_off_c, 1, 65, 100
3, 449664, Note_on_c, 1, 62, 80
3, 449664, Note_on_c, 1, 65, 80
3, 449852, Note_off_c, 1, 62, 100
3, 449852, Note_off_c, 1, 65, 100
3, 449856, Note_on_c, 1, 58, 80
3, 450048, Note_on_c, 1, 60, 80
3, 450048, Note_on_c, 1, 63, 80
3, 450236, Note_off_c, 1, 58, 100
3, 450236, Note_off_c, 1, 60, 100
3, 450236, Note_off_c, 1, 63, 100
3, 450240, Note_on_c, 1, 60, 80
3, 450240, Note_on_c, 1, 63, 80
3, 450428, Note_off_c, 1, 60, 100
3, 450428, Note_off_c, 1, 63, 100
3, 450432, Note_on_c, 1, 46, 80
3, 450624, Note_on_c, 1, 58, 81
3, 450624, Note_on_c, 1, 62, 81
3, 450812, Note_off_c, 1, 46, 100
3, 450812, Note_off_c, 1, 58, 100
3, 450812, Note_off_c, 1, 62, 100
3, 450816, Note_on_c, 1, 58, 83
3, 450816, Note_on_c, 1, 62, 83
3, 451004, Note_off_c, 1, 58, 100
3, 451004, Note_off_c, 1, 62, 100
3, 451008, Note_on_c, 1, 46, 85
3, 451200, Note_on_c, 1, 56, 87
3, 451200, Note_on_c, 1, 60, 87
3, 451388, Note_off_c, 1, 46, 100
3, 451388, Note_off_c, 1, 56, 100
3, 451388, Note_off_c, 1, 60, 100
3, 451392, Note_on_c, 1, 56, 88
3, 451392, Note_on_c, 1, 60, 88
3, 451580, Note_off_c, 1, 56, 100
3, 451580, Note_off_c, 1, 60, 100
3, 451584, Note_on_c, 1, 46, 90
3, 451776, Note_on_c, 1, 55, 92
3, 451776, Note_on_c, 1, 58, 92
3, 451964, Note_off_c, 1, 46, 100
3, 451964, Note_off_c, 1, 55, 100
3, 451964, Note_off_c, 1, 58, 100
3, 451968, Note_on_c, 1, 55, 94
3, 451968, Note_on_c, 1, 58, 94
3, 452156, Note_off_c, 1, 55, 100
3, 452156, Note_off_c, 1, 58, 100
3, 452160, Note_on_c, 1, 46, 95
3, 452352, Note_on_c, 1, 53, 97
3, 452352, Note_on_c, 1, 56, 97
3, 452540, Note_off_c, 1, 46, 100
3, 452540, Note_off_c, 1, 53, 100
3, 452540, Note_off_c, 1, 56, 100
3, 452544, Note_on_c, 1, 56, 99
3, 452544, Note_on_c, 1, 53, 99
3, 452732, Note_off_c, 1, 56, 100
3, 452732, Note_off_c, 1, 53, 100
3, 452736, Note_on_c, 1, 46, 101
3, 452928, Note_on_c, 1, 51, 102
3, 452928, Note_on_c, 1, 55, 102
3, 453116, Note_off_c, 1, 46, 100
3, 453116, Note_off_c, 1, 51, 100
3, 453116, Note_off_c, 1, 55, 100
3, 453120, Note_on_c, 1, 51, 104
3, 453120, Note_on_c, 1, 55, 104
3, 453308, Note_off_c, 1, 51, 100
3, 453308, Note_off_c, 1, 55, 100
3, 453312, Note_on_c, 1, 46, 106
3, 453504, Note_on_c, 1, 56, 108
3, 453504, Note_on_c, 1, 53, 108
3, 453692, Note_off_c, 1, 46, 100
3, 453692, Note_off_c, 1, 56, 100
3, 453692, Note_off_c, 1, 53, 100
3, 453696, Note_on_c, 1, 53, 109
3, 453696, Note_on_c, 1, 56, 109
3, 453884, Note_off_c, 1, 53, 100
3, 453884, Note_off_c, 1, 56, 100
3, 453888, Note_on_c, 1, 47, 120
3, 453888, Note_on_c, 1, 41, 120
3, 453888, Note_on_c, 1, 35, 120
3, 454076, Note_off_c, 1, 47, 100
3, 454076, Note_off_c, 1, 41, 100
3, 454076, Note_off_c, 1, 35, 100
3, 454080, Note_on_c, 1, 47, 120
3, 454080, Note_on_c, 1, 41, 120
3, 454080, Note_on_c, 1, 35, 120
3, 454268, Note_off_c, 1, 47, 100
3, 454268, Note_off_c, 1, 41, 100
3, 454268, Note_off_c, 1, 35, 100
3, 454272, Note_on_c, 1, 47, 120
3, 454272, Note_on_c, 1, 41, 120
3, 454272, Note_on_c, 1, 35, 120
3, 454460, Note_off_c, 1, 47, 100
3, 454460, Note_off_c, 1, 41, 100
3, 454460, Note_off_c, 1, 35, 100
3, 454464, Note_on_c, 1, 47, 120
3, 454464, Note_on_c, 1, 41, 120
3, 454464, Note_on_c, 1, 35, 120
3, 454652, Note_off_c, 1, 47, 100
3, 454652, Note_off_c, 1, 41, 100
3, 454652, Note_off_c, 1, 35, 100
3, 454656, Note_on_c, 1, 47, 120
3, 454656, Note_on_c, 1, 41, 120
3, 454656, Note_on_c, 1, 35, 120
3, 454844, Note_off_c, 1, 47, 100
3, 454844, Note_off_c, 1, 41, 100
3, 454844, Note_off_c, 1, 35, 100
3, 454848, Note_on_c, 1, 47, 120
3, 454848, Note_on_c, 1, 41, 120
3, 454848, Note_on_c, 1, 35, 120
3, 455036, Note_off_c, 1, 47, 100
3, 455036, Note_off_c, 1, 41, 100
3, 455036, Note_off_c, 1, 35, 100
3, 455040, Note_on_c, 1, 47, 120
3, 455040, Note_on_c, 1, 41, 120
3, 455040, Note_on_c, 1, 35, 120
3, 455228, Note_off_c, 1, 47, 100
3, 455228, Note_off_c, 1, 41, 100
3, 455228, Note_off_c, 1, 35, 100
3, 455232, Note_on_c, 1, 47, 120
3, 455232, Note_on_c, 1, 41, 120
3, 455232, Note_on_c, 1, 35, 120
3, 455420, Note_off_c, 1, 47, 100
3, 455420, Note_off_c, 1, 41, 100
3, 455420, Note_off_c, 1, 35, 100
3, 455424, Note_on_c, 1, 47, 120
3, 455424, Note_on_c, 1, 41, 120
3, 455424, Note_on_c, 1, 35, 120
3, 455612, Note_off_c, 1, 47, 100
3, 455612, Note_off_c, 1, 41, 100
3, 455612, Note_off_c, 1, 35, 100
3, 455616, Note_on_c, 1, 47, 120
3, 455616, Note_on_c, 1, 41, 120
3, 455616, Note_on_c, 1, 35, 120
3, 455804, Note_off_c, 1, 47, 100
3, 455804, Note_off_c, 1, 41, 100
3, 455804, Note_off_c, 1, 35, 100
3, 455808, Note_on_c, 1, 47, 120
3, 455808, Note_on_c, 1, 41, 120
3, 455808, Note_on_c, 1, 35, 120
3, 455996, Note_off_c, 1, 47, 100
3, 455996, Note_off_c, 1, 41, 100
3, 455996, Note_off_c, 1, 35, 100
3, 456000, Note_on_c, 1, 47, 120
3, 456000, Note_on_c, 1, 41, 120
3, 456000, Note_on_c, 1, 35, 120
3, 456188, Note_off_c, 1, 47, 100
3, 456188, Note_off_c, 1, 41, 100
3, 456188, Note_off_c, 1, 35, 100
3, 456192, Note_on_c, 1, 48, 120
3, 456192, Note_on_c, 1, 41, 120
3, 456192, Note_on_c, 1, 36, 120
3, 456572, Note_off_c, 1, 48, 100
3, 456572, Note_off_c, 1, 41, 100
3, 456572, Note_off_c, 1, 36, 100
3, 456768, Note_on_c, 1, 57, 70
3, 456768, Note_on_c, 1, 48, 70
3, 457340, Note_off_c, 1, 57, 100
3, 457344, Note_on_c, 1, 58, 70
3, 457916, Note_off_c, 1, 58, 100
3, 457920, Note_on_c, 1, 52, 70
3, 458492, Note_off_c, 1, 48, 100
3, 458492, Note_off_c, 1, 52, 100
3, 458496, Note_on_c, 1, 48, 71
3, 458496, Note_on_c, 1, 53, 71
3, 459068, Note_off_c, 1, 53, 100
3, 459072, Note_on_c, 1, 57, 71
3, 459644, Note_off_c, 1, 57, 100
3, 459648, Note_on_c, 1, 58, 72
3, 460220, Note_off_c, 1, 58, 100
3, 460224, Note_on_c, 1, 52, 72
3, 460796, Note_off_c, 1, 48, 100
3, 460796, Note_off_c, 1, 52, 100
3, 460800, Note_on_c, 1, 53, 73
3, 460800, Note_on_c, 1, 48, 73
3, 461180, Note_off_c, 1, 53, 100
3, 461376, Note_on_c, 1, 53, 73
3, 461948, Note_off_c, 1, 53, 100
3, 461952, Note_on_c, 1, 52, 73
3, 462524, Note_off_c, 1, 52, 100
3, 462528, Note_on_c, 1, 58, 74
3, 463100, Note_off_c, 1, 48, 100
3, 463100, Note_off_c, 1, 58, 100
3, 463104, Note_on_c, 1, 48, 74
3, 463104, Note_on_c, 1, 57, 74
3, 463676, Note_off_c, 1, 57, 100
3, 463680, Note_on_c, 1, 53, 75
3, 464252, Note_off_c, 1, 53, 100
3, 464256, Note_on_c, 1, 52, 75
3, 464828, Note_off_c, 1, 52, 100
3, 464832, Note_on_c, 1, 58, 76
3, 465404, Note_off_c, 1, 48, 100
3, 465404, Note_off_c, 1, 58, 100
3, 465408, Note_on_c, 1, 57, 76
3, 465408, Note_on_c, 1, 53, 76
3, 465980, Note_off_c, 1, 53, 100
3, 465984, Note_on_c, 1, 51, 77
3, 466172, Note_off_c, 1, 57, 100
3, 466176, Note_on_c, 1, 58, 77
3, 466364, Note_off_c, 1, 58, 100
3, 466368, Note_on_c, 1, 60, 77
3, 466556, Note_off_c, 1, 51, 100
3, 466556, Note_off_c, 1, 60, 100
3, 466560, Note_on_c, 1, 50, 77
3, 466560, Note_on_c, 1, 58, 77
3, 467132, Note_off_c, 1, 50, 100
3, 467136, Note_on_c, 1, 51, 77
3, 467136, Note_on_c, 1, 63, 77
3, 467708, Note_off_c, 1, 58, 100
3, 467708, Note_off_c, 1, 51, 100
3, 467708, Note_off_c, 1, 63, 100
3, 467712, Note_on_c, 1, 55, 78
3, 467712, Note_on_c, 1, 59, 78
3, 467712, Note_on_c, 1, 47, 78
3, 468284, Note_off_c, 1, 59, 100
3, 468284, Note_off_c, 1, 47, 100
3, 468288, Note_on_c, 1, 60, 78
3, 468288, Note_on_c, 1, 48, 78
3, 468860, Note_off_c, 1, 55, 100
3, 468860, Note_off_c, 1, 60, 100
3, 468860, Note_off_c, 1, 48, 100
3, 468864, Note_on_c, 1, 56, 79
3, 468864, Note_on_c, 1, 44, 79
3, 469244, Note_off_c, 1, 56, 100
3, 469436, Note_off_c, 1, 44, 100
3, 469440, Note_on_c, 1, 58, 79
3, 469440, Note_on_c, 1, 46, 79
3, 469820, Note_off_c, 1, 58, 100
3, 470012, Note_off_c, 1, 46, 100
3, 470016, Note_on_c, 1, 51, 110
3, 470016, Note_on_c, 1, 39, 110
3, 470204, Note_off_c, 1, 51, 100
3, 470204, Note_off_c, 1, 39, 100
3, 470208, Note_on_c, 1, 51, 100
3, 470396, Note_off_c, 1, 51, 100
3, 470400, Note_on_c, 1, 51, 100
3, 470588, Note_off_c, 1, 51, 100
3, 470592, Note_on_c, 1, 51, 100
3, 470780, Note_off_c, 1, 51, 100
3, 470784, Note_on_c, 1, 50, 100
3, 470972, Note_off_c, 1, 50, 100
3, 470976, Note_on_c, 1, 51, 100
3, 471164, Note_off_c, 1, 51, 100
3, 471168, Note_on_c, 1, 55, 110
3, 471168, Note_on_c, 1, 43, 110
3, 471356, Note_off_c, 1, 55, 100
3, 471356, Note_off_c, 1, 43, 100
3, 471360, Note_on_c, 1, 55, 100
3, 471548, Note_off_c, 1, 55, 100
3, 471552, Note_on_c, 1, 55, 100
3, 471740, Note_off_c, 1, 55, 100
3, 471744, Note_on_c, 1, 55, 100
3, 471932, Note_off_c, 1, 55, 100
3, 471936, Note_on_c, 1, 54, 100
3, 472124, Note_off_c, 1, 54, 100
3, 472128, Note_on_c, 1, 55, 100
3, 472316, Note_off_c, 1, 55, 100
3, 472320, Note_on_c, 1, 46, 110
3, 472320, Note_on_c, 1, 58, 110
3, 472508, Note_off_c, 1, 46, 100
3, 472508, Note_off_c, 1, 58, 100
3, 472512, Note_on_c, 1, 58, 100
3, 472700, Note_off_c, 1, 58, 100
3, 472704, Note_on_c, 1, 58, 100
3, 472892, Note_off_c, 1, 58, 100
3, 472896, Note_on_c, 1, 58, 100
3, 473084, Note_off_c, 1, 58, 100
3, 473088, Note_on_c, 1, 57, 100
3, 473276, Note_off_c, 1, 57, 100
3, 473280, Note_on_c, 1, 58, 100
3, 473468, Note_off_c, 1, 58, 100
3, 473472, Note_on_c, 1, 63, 110
3, 473472, Note_on_c, 1, 51, 110
3, 473660, Note_off_c, 1, 63, 100
3, 473660, Note_off_c, 1, 51, 100
3, 473664, Note_on_c, 1, 63, 100
3, 473852, Note_off_c, 1, 63, 100
3, 473856, Note_on_c, 1, 63, 100
3, 474044, Note_off_c, 1, 63, 100
3, 474048, Note_on_c, 1, 63, 100
3, 474236, Note_off_c, 1, 63, 100
3, 474240, Note_on_c, 1, 62, 100
3, 474428, Note_off_c, 1, 62, 100
3, 474432, Note_on_c, 1, 63, 100
3, 474620, Note_off_c, 1, 63, 100
3, 474624, Note_on_c, 1, 51, 110
3, 474624, Note_on_c, 1, 48, 110
3, 475772, Note_off_c, 1, 51, 100
3, 475772, Note_off_c, 1, 48, 100
3, 475776, Note_on_c, 1, 57, 120
3, 475776, Note_on_c, 1, 54, 120
3, 475776, Note_on_c, 1, 51, 120
3, 475776, Note_on_c, 1, 48, 120
3, 476924, Note_off_c, 1, 57, 100
3, 476924, Note_off_c, 1, 54, 100
3, 476924, Note_off_c, 1, 51, 100
3, 476924, Note_off_c, 1, 48, 100
3, 476928, Note_on_c, 1, 58, 120
3, 476928, Note_on_c, 1, 55, 120
3, 476928, Note_on_c, 1, 51, 120
3, 476928, Note_on_c, 1, 46, 120
3, 477116, Note_off_c, 1, 58, 100
3, 477116, Note_off_c, 1, 55, 100
3, 477116, Note_off_c, 1, 51, 100
3, 477116, Note_off_c, 1, 46, 100
3, 477120, Note_on_c, 1, 58, 120
3, 477308, Note_off_c, 1, 58, 100
3, 477312, Note_on_c, 1, 58, 120
3, 477500, Note_off_c, 1, 58, 100
3, 477696, Note_on_c, 1, 58, 120
3, 477884, Note_off_c, 1, 58, 100
3, 477888, Note_on_c, 1, 58, 120
3, 478076, Note_off_c, 1, 58, 100
3, 478272, Note_on_c, 1, 46, 120
3, 478460, Note_off_c, 1, 46, 100
3, 478464, Note_on_c, 1, 46, 120
3, 478652, Note_off_c, 1, 46, 100
3, 478848, Note_on_c, 1, 46, 120
3, 479036, Note_off_c, 1, 46, 100
3, 479040, Note_on_c, 1, 46, 120
3, 479228, Note_off_c, 1, 46, 100
3, 479232, Note_on_c, 1, 27, 120
3, 479420, Note_off_c, 1, 27, 100
3, 479424, Note_on_c, 1, 39, 120
3, 479612, Note_off_c, 1, 39, 100
3, 479616, Note_on_c, 1, 39, 120
3, 479804, Note_off_c, 1, 39, 100
3, 479808, Note_on_c, 1, 39, 120
3, 479996, Note_off_c, 1, 39, 100
3, 480000, Note_on_c, 1, 38, 120
3, 480188, Note_off_c, 1, 38, 100
3, 480192, Note_on_c, 1, 39, 120
3, 480380, Note_off_c, 1, 39, 100
3, 480384, Note_on_c, 1, 31, 120
3, 480572, Note_off_c, 1, 31, 100
3, 480576, Note_on_c, 1, 43, 120
3, 480764, Note_off_c, 1, 43, 100
3, 480768, Note_on_c, 1, 43, 120
3, 480956, Note_off_c, 1, 43, 100
3, 480960, Note_on_c, 1, 43, 120
3, 481148, Note_off_c, 1, 43, 100
3, 481152, Note_on_c, 1, 42, 120
3, 481340, Note_off_c, 1, 42, 100
3, 481344, Note_on_c, 1, 43, 120
3, 481532, Note_off_c, 1, 43, 100
3, 481536, Note_on_c, 1, 34, 120
3, 481724, Note_off_c, 1, 34, 100
3, 481728, Note_on_c, 1, 46, 120
3, 481916, Note_off_c, 1, 46, 100
3, 481920, Note_on_c, 1, 46, 120
3, 482108, Note_off_c, 1, 46, 100
3, 482112, Note_on_c, 1, 46, 120
3, 482300, Note_off_c, 1, 46, 100
3, 482304, Note_on_c, 1, 45, 120
3, 482492, Note_off_c, 1, 45, 100
3, 482496, Note_on_c, 1, 46, 120
3, 482684, Note_off_c, 1, 46, 100
3, 482688, Note_on_c, 1, 39, 120
3, 482876, Note_off_c, 1, 39, 100
3, 482880, Note_on_c, 1, 51, 120
3, 483068, Note_off_c, 1, 51, 100
3, 483072, Note_on_c, 1, 51, 120
3, 483260, Note_off_c, 1, 51, 100
3, 483264, Note_on_c, 1, 51, 120
3, 483452, Note_off_c, 1, 51, 100
3, 483456, Note_on_c, 1, 50, 120
3, 483644, Note_off_c, 1, 50, 100
3, 483648, Note_on_c, 1, 51, 120
3, 483836, Note_off_c, 1, 51, 100
3, 483840, Note_on_c, 1, 48, 100
3, 483840, Note_on_c, 1, 39, 100
3, 483840, Note_on_c, 1, 36, 100
3, 484988, Note_off_c, 1, 48, 100
3, 484988, Note_off_c, 1, 39, 100
3, 484988, Note_off_c, 1, 36, 100
3, 484992, Note_on_c, 1, 47, 106
3, 484992, Note_on_c, 1, 39, 106
3, 484992, Note_on_c, 1, 35, 106
3, 486140, Note_off_c, 1, 47, 100
3, 486140, Note_off_c, 1, 39, 100
3, 486140, Note_off_c, 1, 35, 100
3, 486144, Note_on_c, 1, 46, 113
3, 486144, Note_on_c, 1, 39, 113
3, 486144, Note_on_c, 1, 34, 113
3, 487292, Note_off_c, 1, 46, 100
3, 487292, Note_off_c, 1, 39, 100
3, 487292, Note_off_c, 1, 34, 100
3, 487296, Note_on_c, 1, 45, 120
3, 487296, Note_on_c, 1, 39, 120
3, 487296, Note_on_c, 1, 33, 120
3, 488444, Note_off_c, 1, 45, 100
3, 488444, Note_off_c, 1, 39, 100
3, 488444, Note_off_c, 1, 33, 100
3, 488448, Note_on_c, 1, 46, 120
3, 488448, Note_on_c, 1, 39, 120
3, 488448, Note_on_c, 1, 34, 120
3, 488828, Note_off_c, 1, 46, 100
3, 488828, Note_off_c, 1, 39, 100
3, 488828, Note_off_c, 1, 34, 100
3, 489024, Note_on_c, 1, 55, 120
3, 489024, Note_on_c, 1, 51, 120
3, 489024, Note_on_c, 1, 46, 120
3, 489404, Note_off_c, 1, 55, 100
3, 489404, Note_off_c, 1, 51, 100
3, 489404, Note_off_c, 1, 46, 100
3, 489600, Note_on_c, 1, 55, 120
3, 489600, Note_on_c, 1, 51, 120
3, 489600, Note_on_c, 1, 46, 120
3, 489980, Note_off_c, 1, 55, 100
3, 489980, Note_off_c, 1, 51, 100
3, 489980, Note_off_c, 1, 46, 100
3, 490176, Note_on_c, 1, 56, 120
3, 490176, Note_on_c, 1, 53, 120
3, 490176, Note_on_c, 1, 46, 120
3, 490556, Note_off_c, 1, 56, 100
3, 490556, Note_off_c, 1, 53, 100
3, 490556, Note_off_c, 1, 46, 100
3, 490752, Note_on_c, 1, 55, 120
3, 490752, Note_on_c, 1, 51, 120
3, 491132, Note_off_c, 1, 55, 100
3, 491132, Note_off_c, 1, 51, 100
3, 491328, Note_on_c, 1, 51, 110
3, 493628, Note_off_c, 1, 51, 100
3, 493632, Note_on_c, 1, 63, 110
3, 495932, Note_off_c, 1, 63, 100
3, 495936, Note_on_c, 1, 51, 110
3, 498236, Note_off_c, 1, 51, 100
3, 498240, Note_on_c, 1, 39, 110
3, 500540, Note_off_c, 1, 39, 100
3, 500544, Note_on_c, 1, 51, 110
3, 502844, Note_off_c, 1, 51, 100
3, 502848, Note_on_c, 1, 63, 110
3, 505148, Note_off_c, 1, 63, 100
3, 505152, Note_on_c, 1, 51, 110
3, 507452, Note_off_c, 1, 51, 100
3, 507456, Note_on_c, 1, 39, 110
3, 509180, Note_off_c, 1, 39, 100
3, 509184, Note_on_c, 1, 51, 100
3, 509184, Note_on_c, 1, 41, 100
3, 509564, Note_off_c, 1, 51, 100
3, 509564, Note_off_c, 1, 41, 100
3, 509568, Note_on_c, 1, 55, 110
3, 510140, Note_off_c, 1, 55, 100
3, 510144, Note_on_c, 1, 51, 100
3, 510332, Note_off_c, 1, 51, 100
3, 510336, Note_on_c, 1, 46, 100
3, 510716, Note_off_c, 1, 46, 100
3, 510720, Note_on_c, 1, 62, 110
3, 510720, Note_on_c, 1, 58, 110
3, 511292, Note_off_c, 1, 62, 100
3, 511296, Note_on_c, 1, 65, 100
3, 511484, Note_off_c, 1, 58, 100
3, 511484, Note_off_c, 1, 65, 100
3, 511488, Note_on_c, 1, 63, 100
3, 511488, Note_on_c, 1, 51, 100
3, 511868, Note_off_c, 1, 63, 100
3, 511868, Note_off_c, 1, 51, 100
3, 511872, Note_on_c, 1, 55, 110
3, 512444, Note_off_c, 1, 55, 100
3, 512448, Note_on_c, 1, 51, 100
3, 512636, Note_off_c, 1, 51, 100
3, 512640, Note_on_c, 1, 46, 100
3, 513020, Note_off_c, 1, 46, 100
3, 513024, Note_on_c, 1, 58, 110
3, 513024, Note_on_c, 1, 65, 110
3, 513596, Note_off_c, 1, 65, 100
3, 513600, Note_on_c, 1, 62, 100
3, 513788, Note_off_c, 1, 58, 100
3, 513788, Note_off_c, 1, 62, 100
3, 513792, Note_on_c, 1, 63, 100
3, 513792, Note_on_c, 1, 51, 100
3, 514172, Note_off_c, 1, 63, 100
3, 514172, Note_off_c, 1, 51, 100
3, 514176, Note_on_c, 1, 55, 110
3, 514748, Note_off_c, 1, 55, 100
3, 514752, Note_on_c, 1, 51, 100
3, 514940, Note_off_c, 1, 51, 100
3, 514944, Note_on_c, 1, 46, 100
3, 515324, Note_off_c, 1, 46, 100
3, 515328, Note_on_c, 1, 46, 110
3, 515328, Note_on_c, 1, 34, 110
3, 515900, Note_off_c, 1, 46, 100
3, 515900, Note_off_c, 1, 34, 100
3, 515904, Note_on_c, 1, 46, 100
3, 515904, Note_on_c, 1, 34, 100
3, 516092, Note_off_c, 1, 46, 100
3, 516092, Note_off_c, 1, 34, 100
3, 516096, Note_on_c, 1, 35, 120
3, 516284, Note_off_c, 1, 35, 100
3, 516288, Note_on_c, 1, 47, 120
3, 516476, Note_off_c, 1, 47, 100
3, 516480, Note_on_c, 1, 47, 120
3, 516668, Note_off_c, 1, 47, 100
3, 516672, Note_on_c, 1, 47, 119
3, 516860, Note_off_c, 1, 47, 100
3, 516864, Note_on_c, 1, 47, 119
3, 517052, Note_off_c, 1, 47, 100
3, 517056, Note_on_c, 1, 47, 118
3, 517244, Note_off_c, 1, 47, 100
3, 517248, Note_on_c, 1, 47, 118
3, 517436, Note_off_c, 1, 47, 100
3, 517440, Note_on_c, 1, 47, 118
3, 517628, Note_off_c, 1, 47, 100
3, 517632, Note_on_c, 1, 47, 117
3, 517820, Note_off_c, 1, 47, 100
3, 517824, Note_on_c, 1, 47, 117
3, 518012, Note_off_c, 1, 47, 100
3, 518016, Note_on_c, 1, 47, 116
3, 518204, Note_off_c, 1, 47, 100
3, 518208, Note_on_c, 1, 47, 116
3, 518396, Note_off_c, 1, 47, 100
3, 518400, Note_on_c, 1, 38, 115
3, 518588, Note_off_c, 1, 38, 100
3, 518592, Note_on_c, 1, 48, 115
3, 518780, Note_off_c, 1, 48, 100
3, 518784, Note_on_c, 1, 48, 115
3, 518972, Note_off_c, 1, 48, 100
3, 518976, Note_on_c, 1, 48, 114
3, 519164, Note_off_c, 1, 48, 100
3, 519168, Note_on_c, 1, 48, 114
3, 519356, Note_off_c, 1, 48, 100
3, 519360, Note_on_c, 1, 48, 113
3, 519548, Note_off_c, 1, 48, 100
3, 519552, Note_on_c, 1, 48, 113
3, 519740, Note_off_c, 1, 48, 100
3, 519744, Note_on_c, 1, 48, 113
3, 519932, Note_off_c, 1, 48, 100
3, 519936, Note_on_c, 1, 48, 112
3, 520124, Note_off_c, 1, 48, 100
3, 520128, Note_on_c, 1, 48, 112
3, 520316, Note_off_c, 1, 48, 100
3, 520320, Note_on_c, 1, 48, 111
3, 520508, Note_off_c, 1, 48, 100
3, 520512, Note_on_c, 1, 48, 111
3, 520700, Note_off_c, 1, 48, 100
3, 520704, Note_on_c, 1, 41, 110
3, 520892, Note_off_c, 1, 41, 100
3, 520896, Note_on_c, 1, 53, 110
3, 521084, Note_off_c, 1, 53, 100
3, 521088, Note_on_c, 1, 53, 110
3, 521276, Note_off_c, 1, 53, 100
3, 521280, Note_on_c, 1, 53, 110
3, 521468, Note_off_c, 1, 53, 100
3, 521472, Note_on_c, 1, 53, 110
3, 521660, Note_off_c, 1, 53, 100
3, 521664, Note_on_c, 1, 53, 110
3, 521852, Note_off_c, 1, 53, 100
3, 521856, Note_on_c, 1, 41, 110
3, 522044, Note_off_c, 1, 41, 100
3, 522048, Note_on_c, 1, 53, 110
3, 522236, Note_off_c, 1, 53, 100
3, 522240, Note_on_c, 1, 53, 110
3, 522428, Note_off_c, 1, 53, 100
3, 522432, Note_on_c, 1, 39, 110
3, 522620, Note_off_c, 1, 39, 100
3, 522624, Note_on_c, 1, 51, 110
3, 522812, Note_off_c, 1, 51, 100
3, 522816, Note_on_c, 1, 51, 110
3, 523004, Note_off_c, 1, 51, 100
3, 523008, Note_on_c, 1, 38, 110
3, 523196, Note_off_c, 1, 38, 100
3, 523200, Note_on_c, 1, 50, 110
3, 523388, Note_off_c, 1, 50, 100
3, 523392, Note_on_c, 1, 50, 110
3, 523580, Note_off_c, 1, 50, 100
3, 523584, Note_on_c, 1, 46, 110
3, 523772, Note_off_c, 1, 46, 100
3, 523776, Note_on_c, 1, 58, 110
3, 523964, Note_off_c, 1, 58, 100
3, 523968, Note_on_c, 1, 58, 110
3, 524156, Note_off_c, 1, 58, 100
3, 524160, Note_on_c, 1, 58, 80
3, 524348, Note_off_c, 1, 58, 100
3, 524352, Note_on_c, 1, 58, 80
3, 524540, Note_off_c, 1, 58, 100
3, 524544, Note_on_c, 1, 58, 80
3, 524732, Note_off_c, 1, 58, 100
3, 524736, Note_on_c, 1, 58, 80
3, 524924, Note_off_c, 1, 58, 100
3, 524928, Note_on_c, 1, 58, 80
3, 525116, Note_off_c, 1, 58, 100
3, 525120, Note_on_c, 1, 58, 80
3, 525308, Note_off_c, 1, 58, 100
3, 525312, Note_on_c, 1, 58, 80
3, 525500, Note_off_c, 1, 58, 100
3, 525504, Note_on_c, 1, 58, 80
3, 525692, Note_off_c, 1, 58, 100
3, 525696, Note_on_c, 1, 58, 80
3, 525884, Note_off_c, 1, 58, 100
3, 525888, Note_on_c, 1, 58, 80
3, 526076, Note_off_c, 1, 58, 100
3, 526080, Note_on_c, 1, 58, 80
3, 526268, Note_off_c, 1, 58, 100
3, 526272, Note_on_c, 1, 58, 80
3, 526460, Note_off_c, 1, 58, 100
3, 526464, Note_on_c, 1, 58, 80
3, 526652, Note_off_c, 1, 58, 100
3, 526656, Note_on_c, 1, 58, 80
3, 526844, Note_off_c, 1, 58, 100
3, 526848, Note_on_c, 1, 58, 80
3, 527036, Note_off_c, 1, 58, 100
3, 527040, Note_on_c, 1, 58, 80
3, 527228, Note_off_c, 1, 58, 100
3, 527232, Note_on_c, 1, 58, 80
3, 527420, Note_off_c, 1, 58, 100
3, 527424, Note_on_c, 1, 58, 80
3, 527612, Note_off_c, 1, 58, 100
3, 527616, Note_on_c, 1, 58, 80
3, 527996, Note_off_c, 1, 58, 100
3, 528192, Note_on_c, 1, 51, 80
3, 528192, Note_on_c, 1, 58, 80
3, 528764, Note_off_c, 1, 51, 100
3, 528768, Note_on_c, 1, 62, 80
3, 528768, Note_on_c, 1, 53, 80
3, 529340, Note_off_c, 1, 62, 100
3, 529340, Note_off_c, 1, 53, 100
3, 529344, Note_on_c, 1, 63, 80
3, 529344, Note_on_c, 1, 55, 80
3, 529916, Note_off_c, 1, 58, 100
3, 529916, Note_off_c, 1, 63, 100
3, 529916, Note_off_c, 1, 55, 100
3, 529920, Note_on_c, 1, 56, 80
3, 529920, Note_on_c, 1, 60, 80
3, 530300, Note_off_c, 1, 56, 100
3, 530300, Note_off_c, 1, 60, 100
3, 530496, Note_on_c, 1, 53, 80
3, 530496, Note_on_c, 1, 60, 80
3, 531068, Note_off_c, 1, 53, 100
3, 531072, Note_on_c, 1, 55, 80
3, 531072, Note_on_c, 1, 64, 80
3, 531644, Note_off_c, 1, 55, 100
3, 531644, Note_off_c, 1, 64, 100
3, 531648, Note_on_c, 1, 65, 80
3, 531648, Note_on_c, 1, 56, 80
3, 532220, Note_off_c, 1, 60, 100
3, 532220, Note_off_c, 1, 65, 100
3, 532220, Note_off_c, 1, 56, 100
3, 532224, Note_on_c, 1, 65, 80
3, 532224, Note_on_c, 1, 58, 80
3, 532604, Note_off_c, 1, 65, 100
3, 532604, Note_off_c, 1, 58, 100
3, 532800, Note_on_c, 1, 55, 80
3, 532800, Note_on_c, 1, 51, 80
3, 533372, Note_off_c, 1, 55, 100
3, 533372, Note_off_c, 1, 51, 100
3, 533376, Note_on_c, 1, 56, 80
3, 533376, Note_on_c, 1, 53, 80
3, 533948, Note_off_c, 1, 56, 100
3, 533948, Note_off_c, 1, 53, 100
3, 533952, Note_on_c, 1, 58, 80
3, 533952, Note_on_c, 1, 55, 80
3, 534524, Note_off_c, 1, 58, 100
3, 534524, Note_off_c, 1, 55, 100
3, 534528, Note_on_c, 1, 60, 80
3, 534528, Note_on_c, 1, 56, 80
3, 534908, Note_off_c, 1, 60, 100
3, 534908, Note_off_c, 1, 56, 100
3, 535104, Note_on_c, 1, 56, 80
3, 535104, Note_on_c, 1, 53, 80
3, 535676, Note_off_c, 1, 56, 100
3, 535676, Note_off_c, 1, 53, 100
3, 535680, Note_on_c, 1, 55, 80
3, 535680, Note_on_c, 1, 58, 80
3, 536252, Note_off_c, 1, 55, 100
3, 536252, Note_off_c, 1, 58, 100
3, 536256, Note_on_c, 1, 56, 80
3, 536256, Note_on_c, 1, 60, 80
3, 536828, Note_off_c, 1, 56, 100
3, 536828, Note_off_c, 1, 60, 100
3, 536832, Note_on_c, 1, 58, 80
3, 536832, Note_on_c, 1, 62, 80
3, 537212, Note_off_c, 1, 58, 100
3, 537212, Note_off_c, 1, 62, 100
3, 537600, Note_on_c, 1, 68, 81
3, 537600, Note_on_c, 1, 60, 81
3, 537788, Note_off_c, 1, 68, 100
3, 537788, Note_off_c, 1, 60, 100
3, 537792, Note_on_c, 1, 68, 82
3, 537792, Note_on_c, 1, 60, 82
3, 537980, Note_off_c, 1, 68, 100
3, 537980, Note_off_c, 1, 60, 100
3, 537984, Note_on_c, 1, 68, 83
3, 537984, Note_on_c, 1, 60, 83
3, 538172, Note_off_c, 1, 68, 100
3, 538172, Note_off_c, 1, 60, 100
3, 538176, Note_on_c, 1, 67, 85
3, 538176, Note_on_c, 1, 58, 85
3, 538364, Note_off_c, 1, 67, 100
3, 538364, Note_off_c, 1, 58, 100
3, 538368, Note_on_c, 1, 67, 86
3, 538368, Note_on_c, 1, 58, 86
3, 538556, Note_off_c, 1, 67, 100
3, 538556, Note_off_c, 1, 58, 100
3, 538752, Note_on_c, 1, 65, 89
3, 538752, Note_on_c, 1, 56, 89
3, 538940, Note_off_c, 1, 65, 100
3, 538940, Note_off_c, 1, 56, 100
3, 538944, Note_on_c, 1, 65, 90
3, 538944, Note_on_c, 1, 56, 90
3, 539132, Note_off_c, 1, 65, 100
3, 539132, Note_off_c, 1, 56, 100
3, 539136, Note_on_c, 1, 65, 91
3, 539136, Note_on_c, 1, 56, 91
3, 539324, Note_off_c, 1, 65, 100
3, 539324, Note_off_c, 1, 56, 100
3, 539328, Note_on_c, 1, 63, 93
3, 539328, Note_on_c, 1, 55, 93
3, 539516, Note_off_c, 1, 63, 100
3, 539516, Note_off_c, 1, 55, 100
3, 539520, Note_on_c, 1, 63, 94
3, 539520, Note_on_c, 1, 55, 94
3, 539708, Note_off_c, 1, 63, 100
3, 539708, Note_off_c, 1, 55, 100
3, 539904, Note_on_c, 1, 60, 96
3, 539904, Note_on_c, 1, 51, 96
3, 540092, Note_off_c, 1, 60, 100
3, 540092, Note_off_c, 1, 51, 100
3, 540096, Note_on_c, 1, 60, 98
3, 540096, Note_on_c, 1, 51, 98
3, 540284, Note_off_c, 1, 60, 100
3, 540284, Note_off_c, 1, 51, 100
3, 540288, Note_on_c, 1, 60, 99
3, 540288, Note_on_c, 1, 51, 99
3, 540476, Note_off_c, 1, 60, 100
3, 540476, Note_off_c, 1, 51, 100
3, 540480, Note_on_c, 1, 58, 100
3, 540480, Note_on_c, 1, 49, 100
3, 540668, Note_off_c, 1, 58, 100
3, 540668, Note_off_c, 1, 49, 100
3, 540672, Note_on_c, 1, 58, 102
3, 540672, Note_on_c, 1, 49, 102
3, 540860, Note_off_c, 1, 58, 100
3, 540860, Note_off_c, 1, 49, 100
3, 541056, Note_on_c, 1, 58, 104
3, 541056, Note_on_c, 1, 49, 104
3, 541244, Note_off_c, 1, 58, 100
3, 541244, Note_off_c, 1, 49, 100
3, 541248, Note_on_c, 1, 58, 106
3, 541248, Note_on_c, 1, 49, 106
3, 541436, Note_off_c, 1, 58, 100
3, 541436, Note_off_c, 1, 49, 100
3, 541440, Note_on_c, 1, 58, 107
3, 541440, Note_on_c, 1, 49, 107
3, 541628, Note_off_c, 1, 58, 100
3, 541628, Note_off_c, 1, 49, 100
3, 541632, Note_on_c, 1, 56, 108
3, 541632, Note_on_c, 1, 48, 108
3, 541820, Note_off_c, 1, 56, 100
3, 541820, Note_off_c, 1, 48, 100
3, 541824, Note_on_c, 1, 56, 109
3, 541824, Note_on_c, 1, 48, 109
3, 542012, Note_off_c, 1, 56, 100
3, 542012, Note_off_c, 1, 48, 100
3, 542208, Note_on_c, 1, 55, 100
3, 542208, Note_on_c, 1, 46, 100
3, 542396, Note_off_c, 1, 55, 100
3, 542396, Note_off_c, 1, 46, 100
3, 542400, Note_on_c, 1, 55, 101
3, 542400, Note_on_c, 1, 46, 101
3, 542588, Note_off_c, 1, 55, 100
3, 542588, Note_off_c, 1, 46, 100
3, 542592, Note_on_c, 1, 55, 102
3, 542592, Note_on_c, 1, 46, 102
3, 542780, Note_off_c, 1, 55, 100
3, 542780, Note_off_c, 1, 46, 100
3, 542784, Note_on_c, 1, 44, 102
3, 542784, Note_on_c, 1, 53, 102
3, 542972, Note_off_c, 1, 44, 100
3, 542972, Note_off_c, 1, 53, 100
3, 542976, Note_on_c, 1, 53, 103
3, 542976, Note_on_c, 1, 44, 103
3, 543164, Note_off_c, 1, 53, 100
3, 543164, Note_off_c, 1, 44, 100
3, 543360, Note_on_c, 1, 51, 104
3, 543360, Note_on_c, 1, 43, 104
3, 543548, Note_off_c, 1, 51, 100
3, 543548, Note_off_c, 1, 43, 100
3, 543552, Note_on_c, 1, 51, 105
3, 543552, Note_on_c, 1, 43, 105
3, 543740, Note_off_c, 1, 51, 100
3, 543740, Note_off_c, 1, 43, 100
3, 543744, Note_on_c, 1, 51, 106
3, 543744, Note_on_c, 1, 43, 106
3, 543932, Note_off_c, 1, 51, 100
3, 543932, Note_off_c, 1, 43, 100
3, 543936, Note_on_c, 1, 50, 107
3, 543936, Note_on_c, 1, 41, 107
3, 544124, Note_off_c, 1, 50, 100
3, 544124, Note_off_c, 1, 41, 100
3, 544128, Note_on_c, 1, 50, 107
3, 544128, Note_on_c, 1, 41, 107
3, 544316, Note_off_c, 1, 50, 100
3, 544316, Note_off_c, 1, 41, 100
3, 544512, Note_on_c, 1, 48, 109
3, 544512, Note_on_c, 1, 39, 109
3, 544700, Note_off_c, 1, 48, 100
3, 544700, Note_off_c, 1, 39, 100
3, 544704, Note_on_c, 1, 48, 109
3, 544704, Note_on_c, 1, 39, 109
3, 544892, Note_off_c, 1, 48, 100
3, 544892, Note_off_c, 1, 39, 100
3, 544896, Note_on_c, 1, 56, 110
3, 544896, Note_on_c, 1, 58, 110
3, 545088, Note_on_c, 1, 46, 110
3, 545088, Note_on_c, 1, 38, 110
3, 545276, Note_off_c, 1, 46, 100
3, 545276, Note_off_c, 1, 38, 100
3, 545280, Note_on_c, 1, 46, 110
3, 545280, Note_on_c, 1, 38, 110
3, 545468, Note_off_c, 1, 56, 100
3, 545468, Note_off_c, 1, 58, 100
3, 545468, Note_off_c, 1, 46, 100
3, 545468, Note_off_c, 1, 38, 100
3, 545472, Note_on_c, 1, 51, 110
3, 545472, Note_on_c, 1, 56, 110
3, 545472, Note_on_c, 1, 58, 110
3, 545472, Note_on_c, 1, 63, 110
3, 545664, Note_on_c, 1, 46, 110
3, 545664, Note_on_c, 1, 36, 110
3, 545852, Note_off_c, 1, 46, 100
3, 545852, Note_off_c, 1, 36, 100
3, 545856, Note_on_c, 1, 46, 110
3, 545856, Note_on_c, 1, 36, 110
3, 546044, Note_off_c, 1, 51, 100
3, 546044, Note_off_c, 1, 56, 100
3, 546044, Note_off_c, 1, 58, 100
3, 546044, Note_off_c, 1, 63, 100
3, 546044, Note_off_c, 1, 46, 100
3, 546044, Note_off_c, 1, 36, 100
3, 546048, Note_on_c, 1, 46, 100
3, 546048, Note_on_c, 1, 34, 100
3, 546048, Note_on_c, 1, 50, 100
3, 546048, Note_on_c, 1, 56, 100
3, 546048, Note_on_c, 1, 58, 100
3, 546048, Note_on_c, 1, 62, 100
3, 546428, Note_off_c, 1, 50, 100
3, 546428, Note_off_c, 1, 56, 100
3, 546428, Note_off_c, 1, 58, 100
3, 546428, Note_off_c, 1, 62, 100
3, 547196, Note_off_c, 1, 34, 100
3, 547584, Note_on_c, 1, 60, 100
3, 548156, Note_off_c, 1, 60, 100
3, 548160, Note_on_c, 1, 56, 100
3, 548348, Note_off_c, 1, 56, 100
3, 548352, Note_on_c, 1, 53, 100
3, 548732, Note_off_c, 1, 53, 100
3, 549888, Note_on_c, 1, 56, 100
3, 550460, Note_off_c, 1, 56, 100
3, 550464, Note_on_c, 1, 53, 100
3, 550652, Note_off_c, 1, 53, 100
3, 550656, Note_on_c, 1, 50, 100
3, 551036, Note_off_c, 1, 46, 100
3, 551036, Note_off_c, 1, 50, 100
3, 554496, Note_on_c, 1, 60, 70
3, 555068, Note_off_c, 1, 60, 100
3, 555072, Note_on_c, 1, 59, 70
3, 555260, Note_off_c, 1, 59, 100
3, 555264, Note_on_c, 1, 58, 70
3, 555644, Note_off_c, 1, 58, 100
3, 555648, Note_on_c, 1, 58, 70
3, 556220, Note_off_c, 1, 58, 100
3, 556224, Note_on_c, 1, 57, 70
3, 556412, Note_off_c, 1, 57, 100
3, 556416, Note_on_c, 1, 56, 70
3, 556796, Note_off_c, 1, 56, 100
3, 556800, Note_on_c, 1, 55, 70
3, 557372, Note_off_c, 1, 55, 100
3, 557376, Note_on_c, 1, 54, 70
3, 557564, Note_off_c, 1, 54, 100
3, 557568, Note_on_c, 1, 53, 70
3, 557568, Note_on_c, 1, 46, 70
3, 558720, Note_on_c, 1, 58, 70
3, 559868, Note_off_c, 1, 46, 100
3, 559868, Note_off_c, 1, 53, 100
3, 559868, Note_off_c, 1, 58, 100
3, 559872, Note_on_c, 1, 39, 70
3, 560060, Note_off_c, 1, 39, 100
3, 560064, Note_on_c, 1, 51, 70
3, 560252, Note_off_c, 1, 51, 100
3, 560256, Note_on_c, 1, 51, 70
3, 560444, Note_off_c, 1, 51, 100
3, 560448, Note_on_c, 1, 51, 70
3, 560636, Note_off_c, 1, 51, 100
3, 560640, Note_on_c, 1, 51, 70
3, 560828, Note_off_c, 1, 51, 100
3, 560832, Note_on_c, 1, 51, 70
3, 561020, Note_off_c, 1, 51, 100
3, 561024, Note_on_c, 1, 51, 80
3, 561212, Note_off_c, 1, 51, 100
3, 561216, Note_on_c, 1, 51, 81
3, 561404, Note_off_c, 1, 51, 100
3, 561408, Note_on_c, 1, 51, 82
3, 561596, Note_off_c, 1, 51, 100
3, 561600, Note_on_c, 1, 51, 84
3, 561788, Note_off_c, 1, 51, 100
3, 561792, Note_on_c, 1, 51, 85
3, 561980, Note_off_c, 1, 51, 100
3, 561984, Note_on_c, 1, 51, 87
3, 562172, Note_off_c, 1, 51, 100
3, 562176, Note_on_c, 1, 39, 88
3, 562364, Note_off_c, 1, 39, 100
3, 562368, Note_on_c, 1, 51, 90
3, 562556, Note_off_c, 1, 51, 100
3, 562560, Note_on_c, 1, 51, 91
3, 562748, Note_off_c, 1, 51, 100
3, 562752, Note_on_c, 1, 51, 93
3, 562940, Note_off_c, 1, 51, 100
3, 562944, Note_on_c, 1, 51, 94
3, 563132, Note_off_c, 1, 51, 100
3, 563136, Note_on_c, 1, 51, 96
3, 563324, Note_off_c, 1, 51, 100
3, 563328, Note_on_c, 1, 51, 97
3, 563516, Note_off_c, 1, 51, 100
3, 563520, Note_on_c, 1, 51, 99
3, 563708, Note_off_c, 1, 51, 100
3, 563712, Note_on_c, 1, 51, 100
3, 563900, Note_off_c, 1, 51, 100
3, 563904, Note_on_c, 1, 51, 101
3, 564092, Note_off_c, 1, 51, 100
3, 564096, Note_on_c, 1, 51, 103
3, 564284, Note_off_c, 1, 51, 100
3, 564288, Note_on_c, 1, 51, 104
3, 564476, Note_off_c, 1, 51, 100
3, 564480, Note_on_c, 1, 39, 106
3, 564572, Note_off_c, 1, 39, 100
3, 564576, Note_on_c, 1, 51, 107
3, 564668, Note_off_c, 1, 51, 100
3, 564672, Note_on_c, 1, 50, 107
3, 564764, Note_off_c, 1, 50, 100
3, 564768, Note_on_c, 1, 51, 108
3, 564860, Note_off_c, 1, 51, 100
3, 564864, Note_on_c, 1, 50, 109
3, 564956, Note_off_c, 1, 50, 100
3, 564960, Note_on_c, 1, 51, 109
3, 565052, Note_off_c, 1, 51, 100
3, 565056, Note_on_c, 1, 50, 110
3, 565148, Note_off_c, 1, 50, 100
3, 565152, Note_on_c, 1, 51, 110
3, 565244, Note_off_c, 1, 51, 100
3, 565248, Note_on_c, 1, 50, 110
3, 565340, Note_off_c, 1, 50, 100
3, 565344, Note_on_c, 1, 51, 110
3, 565436, Note_off_c, 1, 51, 100
3, 565440, Note_on_c, 1, 50, 110
3, 565532, Note_off_c, 1, 50, 100
3, 565536, Note_on_c, 1, 51, 110
3, 565628, Note_off_c, 1, 51, 100
3, 565632, Note_on_c, 1, 39, 110
3, 565724, Note_off_c, 1, 39, 100
3, 565728, Note_on_c, 1, 51, 110
3, 565820, Note_off_c, 1, 51, 100
3, 565824, Note_on_c, 1, 50, 110
3, 565916, Note_off_c, 1, 50, 100
3, 565920, Note_on_c, 1, 51, 110
3, 566012, Note_off_c, 1, 51, 100
3, 566016, Note_on_c, 1, 50, 110
3, 566108, Note_off_c, 1, 50, 100
3, 566112, Note_on_c, 1, 51, 110
3, 566204, Note_off_c, 1, 51, 100
3, 566208, Note_on_c, 1, 50, 110
3, 566300, Note_off_c, 1, 50, 100
3, 566304, Note_on_c, 1, 51, 110
3, 566396, Note_off_c, 1, 51, 100
3, 566400, Note_on_c, 1, 50, 110
3, 566492, Note_off_c, 1, 50, 100
3, 566496, Note_on_c, 1, 51, 110
3, 566588, Note_off_c, 1, 51, 100
3, 566592, Note_on_c, 1, 50, 110
3, 566684, Note_off_c, 1, 50, 100
3, 566688, Note_on_c, 1, 51, 110
3, 566780, Note_off_c, 1, 51, 100
3, 566784, Note_on_c, 1, 39, 110
3, 566876, Note_off_c, 1, 39, 100
3, 566880, Note_on_c, 1, 51, 110
3, 566972, Note_off_c, 1, 51, 100
3, 566976, Note_on_c, 1, 50, 110
3, 567068, Note_off_c, 1, 50, 100
3, 567072, Note_on_c, 1, 51, 110
3, 567164, Note_off_c, 1, 51, 100
3, 567168, Note_on_c, 1, 50, 110
3, 567260, Note_off_c, 1, 50, 100
3, 567264, Note_on_c, 1, 51, 110
3, 567356, Note_off_c, 1, 51, 100
3, 567360, Note_on_c, 1, 50, 110
3, 567452, Note_off_c, 1, 50, 100
3, 567456, Note_on_c, 1, 51, 110
3, 567548, Note_off_c, 1, 51, 100
3, 567552, Note_on_c, 1, 50, 110
3, 567644, Note_off_c, 1, 50, 100
3, 567648, Note_on_c, 1, 51, 110
3, 567740, Note_off_c, 1, 51, 100
3, 567744, Note_on_c, 1, 50, 110
3, 567836, Note_off_c, 1, 50, 100
3, 567840, Note_on_c, 1, 51, 110
3, 567932, Note_off_c, 1, 51, 100
3, 567936, Note_on_c, 1, 46, 110
3, 568028, Note_off_c, 1, 46, 100
3, 568032, Note_on_c, 1, 51, 110
3, 568124, Note_off_c, 1, 51, 100
3, 568128, Note_on_c, 1, 50, 110
3, 568220, Note_off_c, 1, 50, 100
3, 568224, Note_on_c, 1, 51, 110
3, 568316, Note_off_c, 1, 51, 100
3, 568320, Note_on_c, 1, 50, 110
3, 568412, Note_off_c, 1, 50, 100
3, 568416, Note_on_c, 1, 51, 110
3, 568508, Note_off_c, 1, 51, 100
3, 568512, Note_on_c, 1, 43, 110
3, 568604, Note_off_c, 1, 43, 100
3, 568608, Note_on_c, 1, 51, 110
3, 568700, Note_off_c, 1, 51, 100
3, 568704, Note_on_c, 1, 50, 110
3, 568796, Note_off_c, 1, 50, 100
3, 568800, Note_on_c, 1, 51, 110
3, 568892, Note_off_c, 1, 51, 100
3, 568896, Note_on_c, 1, 50, 110
3, 568988, Note_off_c, 1, 50, 100
3, 568992, Note_on_c, 1, 51, 110
3, 569084, Note_off_c, 1, 51, 100
3, 569088, Note_on_c, 1, 39, 110
3, 569468, Note_off_c, 1, 39, 100
3, 569664, Note_on_c, 1, 46, 120
3, 569664, Note_on_c, 1, 34, 120
3, 570044, Note_off_c, 1, 46, 100
3, 570044, Note_off_c, 1, 34, 100
3, 570240, Note_on_c, 1, 51, 120
3, 570240, Note_on_c, 1, 39, 120
3, 570620, Note_off_c, 1, 51, 100
3, 570620, Note_off_c, 1, 39, 100
3, 570816, Note_on_c, 1, 46, 120
3, 570816, Note_on_c, 1, 34, 120
3, 571196, Note_off_c, 1, 46, 100
3, 571196, Note_off_c, 1, 34, 100
3, 571392, Note_on_c, 1, 51, 120
3, 571392, Note_on_c, 1, 39, 120
3, 572156, Note_off_c, 1, 51, 100
3, 572156, Note_off_c, 1, 39, 100
3, 572156, End_track
0, 0, End_of_file
