0, 0, Header, 1, 3, 384
1, 0, Start_track
1, 0, Title_t, "L.v.Beethoven 4mov - Piano Sonata No.4 in Eb Major Op.7\000"
1, 0, Copyright_t, "Copyright(C) 1995-2009, Suzuki Software\000"
1, 0, Sequencer_specific, 9, 67, 123, 0, 88, 70, 48, 50, 0, 1
1, 0, Text_t, "XFhd:2000/03/24:JP:Classical::::L.v.Beethoven:::Kaoru Suzuki\000"
1, 0, Text_t, "XFln:JP:\203s\203A\203m\203\\\203i\203^\221æ4\224Ô\225Ï\203z\222·\222²\215ì\225i7\201`\221æ4\212y\217Í:L.v.\203x\201[\203g\201[\203\224\203F\203\223:::\227é\202¿\202á\202ñ:\227é\202¿\202á\202ñ\000"
1, 0, Time_signature, 1, 2, 96, 8
1, 0, Sequencer_specific, 3, 0, 0, 65
1, 0, Sequencer_specific, 5, 0, 0, 119, 14, 0
1, 0, Tempo, 857142
1, 384, Time_signature, 2, 2, 96, 8
1, 8448, Tempo, 895522
1, 8544, Tempo, 952380
1, 8640, Tempo, 1000000
1, 8736, Tempo, 1052631
1, 9600, Tempo, 857142
1, 37248, Tempo, 895522
1, 37632, Tempo, 952380
1, 38016, Tempo, 1000000
1, 38400, Tempo, 1052631
1, 39936, Tempo, 857142
1, 47616, Tempo, 895522
1, 47712, Tempo, 952380
1, 47808, Tempo, 1000000
1, 47904, Tempo, 1052631
1, 49536, Tempo, 857142
1, 89472, Tempo, 923076
1, 90240, Tempo, 1000000
1, 91008, Tempo, 1090909
1, 91776, Tempo, 1000000
1, 91968, Tempo, 923076
1, 92160, Tempo, 857142
1, 99840, Tempo, 895522
1, 99936, Tempo, 952380
1, 100032, Tempo, 1000000
1, 100128, Tempo, 1052631
1, 101376, Tempo, 857142
1, 138240, Tempo, 895522
1, 138336, Tempo, 952380
1, 138432, Tempo, 1000000
1, 138528, Tempo, 1090909
1, 139392, Tempo, 909090
1, 157824, Tempo, 937500
1, 158592, Tempo, 967741
1, 159360, Tempo, 1000000
1, 160128, Tempo, 1052631
1, 160512, Tempo, 1132075
1, 160704, Tempo, 1500000
1, 160704, End_track
2, 0, Start_track
2, 0, Title_t, "Right"
2, 0, Control_c, 0, 0, 0
2, 0, Program_c, 0, 0
2, 0, Control_c, 0, 7, 100
2, 0, Control_c, 0, 10, 78
2, 0, Control_c, 0, 91, 127
2, 0, Key_signature, -3, "minor"
2, 0, Note_on_c, 0, 77, 80
2, 284, Note_off_c, 0, 77, 100
2, 288, Note_on_c, 0, 75, 80
2, 380, Note_off_c, 0, 75, 100
2, 384, Note_on_c, 0, 75, 80
2, 384, Note_on_c, 0, 68, 80
2, 384, Note_on_c, 0, 65, 80
2, 572, Note_off_c, 0, 75, 100
2, 576, Note_on_c, 0, 74, 80
2, 860, Note_off_c, 0, 74, 100
2, 864, Note_on_c, 0, 77, 80
2, 956, Note_off_c, 0, 68, 100
2, 956, Note_off_c, 0, 65, 100
2, 956, Note_off_c, 0, 77, 100
2, 960, Note_on_c, 0, 75, 80
2, 960, Note_on_c, 0, 67, 80
2, 1052, Note_off_c, 0, 75, 100
2, 1056, Note_on_c, 0, 72, 80
2, 1148, Note_off_c, 0, 67, 100
2, 1148, Note_off_c, 0, 72, 100
2, 1152, Note_on_c, 0, 72, 80
2, 1152, Note_on_c, 0, 65, 80
2, 1340, Note_off_c, 0, 72, 100
2, 1344, Note_on_c, 0, 70, 80
2, 1532, Note_off_c, 0, 65, 100
2, 1628, Note_off_c, 0, 70, 100
2, 1632, Note_on_c, 0, 71, 80
2, 1724, Note_off_c, 0, 71, 100
2, 1728, Note_on_c, 0, 72, 80
2, 1728, Note_on_c, 0, 65, 80
2, 1820, Note_off_c, 0, 72, 100
2, 1824, Note_on_c, 0, 68, 80
2, 1916, Note_off_c, 0, 65, 100
2, 1916, Note_off_c, 0, 68, 100
2, 1920, Note_on_c, 0, 68, 80
2, 2012, Note_off_c, 0, 68, 100
2, 2016, Note_on_c, 0, 67, 80
2, 2108, Note_off_c, 0, 67, 100
2, 2112, Note_on_c, 0, 70, 80
2, 2204, Note_off_c, 0, 70, 100
2, 2208, Note_on_c, 0, 63, 80
2, 2300, Note_off_c, 0, 63, 100
2, 2304, Note_on_c, 0, 63, 80
2, 2396, Note_off_c, 0, 63, 100
2, 2400, Note_on_c, 0, 62, 80
2, 2492, Note_off_c, 0, 62, 100
2, 2496, Note_on_c, 0, 65, 80
2, 2588, Note_off_c, 0, 65, 100
2, 2592, Note_on_c, 0, 63, 80
2, 2688, Note_on_c, 0, 67, 80
2, 2876, Note_off_c, 0, 63, 100
2, 2876, Note_off_c, 0, 67, 100
2, 2880, Note_on_c, 0, 65, 80
2, 2880, Note_on_c, 0, 62, 80
2, 3068, Note_off_c, 0, 65, 100
2, 3068, Note_off_c, 0, 62, 100
2, 3072, Note_on_c, 0, 77, 80
2, 3356, Note_off_c, 0, 77, 100
2, 3360, Note_on_c, 0, 75, 80
2, 3452, Note_off_c, 0, 75, 100
2, 3456, Note_on_c, 0, 74, 80
2, 3476, Note_off_c, 0, 74, 100
2, 3480, Note_on_c, 0, 75, 80
2, 3500, Note_off_c, 0, 75, 100
2, 3504, Note_on_c, 0, 77, 80
2, 3524, Note_off_c, 0, 77, 100
2, 3528, Note_on_c, 0, 75, 80
2, 3644, Note_off_c, 0, 75, 100
2, 3648, Note_on_c, 0, 74, 80
2, 3932, Note_off_c, 0, 74, 100
2, 3936, Note_on_c, 0, 77, 80
2, 4028, Note_off_c, 0, 77, 100
2, 4032, Note_on_c, 0, 75, 80
2, 4124, Note_off_c, 0, 75, 100
2, 4128, Note_on_c, 0, 72, 80
2, 4220, Note_off_c, 0, 72, 100
2, 4224, Note_on_c, 0, 69, 80
2, 4412, Note_off_c, 0, 69, 100
2, 4416, Note_on_c, 0, 70, 80
2, 4700, Note_off_c, 0, 70, 100
2, 4704, Note_on_c, 0, 71, 80
2, 4796, Note_off_c, 0, 71, 100
2, 4800, Note_on_c, 0, 72, 80
2, 4800, Note_on_c, 0, 65, 80
2, 4892, Note_off_c, 0, 72, 100
2, 4896, Note_on_c, 0, 68, 80
2, 4988, Note_off_c, 0, 65, 100
2, 4988, Note_off_c, 0, 68, 100
2, 4992, Note_on_c, 0, 63, 80
2, 4992, Note_on_c, 0, 67, 80
2, 5084, Note_off_c, 0, 67, 100
2, 5088, Note_on_c, 0, 70, 80
2, 5180, Note_off_c, 0, 63, 100
2, 5180, Note_off_c, 0, 70, 100
2, 5184, Note_on_c, 0, 60, 80
2, 5184, Note_on_c, 0, 68, 80
2, 5276, Note_off_c, 0, 68, 100
2, 5280, Note_on_c, 0, 65, 80
2, 5372, Note_off_c, 0, 60, 100
2, 5372, Note_off_c, 0, 65, 100
2, 5376, Note_on_c, 0, 63, 80
2, 5376, Note_on_c, 0, 55, 80
2, 5564, Note_off_c, 0, 63, 100
2, 5564, Note_off_c, 0, 55, 100
2, 5568, Note_on_c, 0, 62, 80
2, 5568, Note_on_c, 0, 56, 80
2, 5568, Note_on_c, 0, 67, 80
2, 5660, Note_off_c, 0, 67, 100
2, 5664, Note_on_c, 0, 65, 80
2, 5756, Note_off_c, 0, 62, 100
2, 5756, Note_off_c, 0, 56, 100
2, 5756, Note_off_c, 0, 65, 100
2, 5760, Note_on_c, 0, 63, 80
2, 5760, Note_on_c, 0, 55, 80
2, 5948, Note_off_c, 0, 63, 100
2, 5948, Note_off_c, 0, 55, 100
2, 6144, Note_on_c, 0, 55, 80
2, 6188, Note_off_c, 0, 55, 100
2, 6192, Note_on_c, 0, 58, 80
2, 6236, Note_off_c, 0, 58, 100
2, 6240, Note_on_c, 0, 63, 80
2, 6284, Note_off_c, 0, 63, 100
2, 6288, Note_on_c, 0, 67, 81
2, 6332, Note_off_c, 0, 67, 100
2, 6336, Note_on_c, 0, 70, 81
2, 6380, Note_off_c, 0, 70, 100
2, 6384, Note_on_c, 0, 75, 82
2, 6428, Note_off_c, 0, 75, 100
2, 6432, Note_on_c, 0, 79, 82
2, 6476, Note_off_c, 0, 79, 100
2, 6480, Note_on_c, 0, 77, 82
2, 6524, Note_off_c, 0, 77, 100
2, 6528, Note_on_c, 0, 75, 83
2, 6716, Note_off_c, 0, 75, 100
2, 6720, Note_on_c, 0, 74, 84
2, 6908, Note_off_c, 0, 74, 100
2, 6912, Note_on_c, 0, 75, 86
2, 7004, Note_off_c, 0, 75, 100
2, 7008, Note_on_c, 0, 77, 87
2, 7100, Note_off_c, 0, 77, 100
2, 7104, Note_on_c, 0, 79, 88
2, 7196, Note_off_c, 0, 79, 100
2, 7200, Note_on_c, 0, 81, 89
2, 7292, Note_off_c, 0, 81, 100
2, 7296, Note_on_c, 0, 84, 89
2, 7484, Note_off_c, 0, 84, 100
2, 7488, Note_on_c, 0, 82, 91
2, 7676, Note_off_c, 0, 82, 100
2, 7680, Note_on_c, 0, 55, 93
2, 7724, Note_off_c, 0, 55, 100
2, 7728, Note_on_c, 0, 58, 93
2, 7772, Note_off_c, 0, 58, 100
2, 7776, Note_on_c, 0, 63, 94
2, 7820, Note_off_c, 0, 63, 100
2, 7824, Note_on_c, 0, 67, 94
2, 7868, Note_off_c, 0, 67, 100
2, 7872, Note_on_c, 0, 70, 94
2, 7916, Note_off_c, 0, 70, 100
2, 7920, Note_on_c, 0, 75, 95
2, 7964, Note_off_c, 0, 75, 100
2, 7968, Note_on_c, 0, 79, 95
2, 8012, Note_off_c, 0, 79, 100
2, 8016, Note_on_c, 0, 77, 96
2, 8060, Note_off_c, 0, 77, 100
2, 8064, Note_on_c, 0, 75, 96
2, 8252, Note_off_c, 0, 75, 100
2, 8256, Note_on_c, 0, 74, 98
2, 8300, Note_off_c, 0, 74, 100
2, 8304, Note_on_c, 0, 75, 98
2, 8348, Note_off_c, 0, 75, 100
2, 8352, Note_on_c, 0, 72, 99
2, 8396, Note_off_c, 0, 72, 100
2, 8400, Note_on_c, 0, 74, 99
2, 8444, Note_off_c, 0, 74, 100
2, 8448, Note_on_c, 0, 75, 99
2, 8540, Note_off_c, 0, 75, 100
2, 8544, Note_on_c, 0, 77, 100
2, 8544, Note_on_c, 0, 65, 100
2, 8636, Note_off_c, 0, 77, 100
2, 8636, Note_off_c, 0, 65, 100
2, 8640, Note_on_c, 0, 79, 101
2, 8640, Note_on_c, 0, 67, 101
2, 8732, Note_off_c, 0, 79, 100
2, 8732, Note_off_c, 0, 67, 100
2, 8736, Note_on_c, 0, 81, 102
2, 8736, Note_on_c, 0, 69, 102
2, 8828, Note_off_c, 0, 81, 100
2, 8828, Note_off_c, 0, 69, 100
2, 8832, Note_on_c, 0, 82, 103
2, 8832, Note_on_c, 0, 70, 103
2, 9980, Note_off_c, 0, 70, 100
2, 9980, Note_off_c, 0, 82, 100
2, 9984, Note_on_c, 0, 77, 80
2, 9984, Note_on_c, 0, 89, 80
2, 10268, Note_off_c, 0, 77, 100
2, 10268, Note_off_c, 0, 89, 100
2, 10272, Note_on_c, 0, 75, 81
2, 10272, Note_on_c, 0, 87, 81
2, 10364, Note_off_c, 0, 75, 100
2, 10364, Note_off_c, 0, 87, 100
2, 10368, Note_on_c, 0, 75, 82
2, 10368, Note_on_c, 0, 87, 82
2, 10556, Note_off_c, 0, 75, 100
2, 10556, Note_off_c, 0, 87, 100
2, 10560, Note_on_c, 0, 74, 83
2, 10560, Note_on_c, 0, 86, 83
2, 10844, Note_off_c, 0, 74, 100
2, 10844, Note_off_c, 0, 86, 100
2, 10848, Note_on_c, 0, 77, 85
2, 10848, Note_on_c, 0, 89, 85
2, 10940, Note_off_c, 0, 77, 100
2, 10940, Note_off_c, 0, 89, 100
2, 10944, Note_on_c, 0, 75, 86
2, 10944, Note_on_c, 0, 87, 86
2, 11036, Note_off_c, 0, 75, 100
2, 11036, Note_off_c, 0, 87, 100
2, 11040, Note_on_c, 0, 72, 87
2, 11040, Note_on_c, 0, 84, 87
2, 11132, Note_off_c, 0, 72, 100
2, 11132, Note_off_c, 0, 84, 100
2, 11136, Note_on_c, 0, 69, 87
2, 11136, Note_on_c, 0, 81, 87
2, 11324, Note_off_c, 0, 69, 100
2, 11324, Note_off_c, 0, 81, 100
2, 11328, Note_on_c, 0, 70, 89
2, 11328, Note_on_c, 0, 82, 89
2, 11612, Note_off_c, 0, 70, 100
2, 11612, Note_off_c, 0, 82, 100
2, 11616, Note_on_c, 0, 71, 91
2, 11616, Note_on_c, 0, 83, 91
2, 11708, Note_off_c, 0, 71, 100
2, 11708, Note_off_c, 0, 83, 100
2, 11712, Note_on_c, 0, 72, 91
2, 11712, Note_on_c, 0, 84, 91
2, 11804, Note_off_c, 0, 72, 100
2, 11804, Note_off_c, 0, 84, 100
2, 11808, Note_on_c, 0, 68, 92
2, 11808, Note_on_c, 0, 80, 92
2, 11900, Note_off_c, 0, 68, 100
2, 11900, Note_off_c, 0, 80, 100
2, 11904, Note_on_c, 0, 67, 93
2, 11904, Note_on_c, 0, 79, 93
2, 11996, Note_off_c, 0, 67, 100
2, 11996, Note_off_c, 0, 79, 100
2, 12000, Note_on_c, 0, 70, 93
2, 12000, Note_on_c, 0, 82, 93
2, 12092, Note_off_c, 0, 70, 100
2, 12092, Note_off_c, 0, 82, 100
2, 12096, Note_on_c, 0, 68, 94
2, 12096, Note_on_c, 0, 80, 94
2, 12188, Note_off_c, 0, 68, 100
2, 12188, Note_off_c, 0, 80, 100
2, 12192, Note_on_c, 0, 77, 95
2, 12192, Note_on_c, 0, 65, 95
2, 12284, Note_off_c, 0, 77, 100
2, 12284, Note_off_c, 0, 65, 100
2, 12288, Note_on_c, 0, 67, 95
2, 12288, Note_on_c, 0, 75, 95
2, 12380, Note_off_c, 0, 75, 100
2, 12384, Note_on_c, 0, 77, 96
2, 12408, Note_on_c, 0, 75, 96
2, 12428, Note_off_c, 0, 77, 100
2, 12432, Note_on_c, 0, 74, 96
2, 12452, Note_off_c, 0, 75, 100
2, 12456, Note_on_c, 0, 75, 97
2, 12476, Note_off_c, 0, 67, 100
2, 12476, Note_off_c, 0, 74, 100
2, 12476, Note_off_c, 0, 75, 100
2, 12480, Note_on_c, 0, 68, 97
2, 12480, Note_on_c, 0, 74, 97
2, 12480, Note_on_c, 0, 79, 97
2, 12572, Note_off_c, 0, 79, 100
2, 12576, Note_on_c, 0, 77, 97
2, 12668, Note_off_c, 0, 68, 100
2, 12668, Note_off_c, 0, 74, 100
2, 12668, Note_off_c, 0, 77, 100
2, 12672, Note_on_c, 0, 75, 98
2, 12672, Note_on_c, 0, 67, 98
2, 12860, Note_off_c, 0, 75, 100
2, 12860, Note_off_c, 0, 67, 100
2, 14016, Note_on_c, 0, 75, 100
2, 14204, Note_off_c, 0, 75, 100
2, 14208, Note_on_c, 0, 75, 100
2, 14396, Note_off_c, 0, 75, 100
2, 14400, Note_on_c, 0, 74, 100
2, 14588, Note_off_c, 0, 74, 100
2, 15552, Note_on_c, 0, 74, 100
2, 15740, Note_off_c, 0, 74, 100
2, 15744, Note_on_c, 0, 74, 100
2, 15932, Note_off_c, 0, 74, 100
2, 15936, Note_on_c, 0, 75, 100
2, 16124, Note_off_c, 0, 75, 100
2, 17088, Note_on_c, 0, 84, 100
2, 17276, Note_off_c, 0, 84, 100
2, 17280, Note_on_c, 0, 84, 100
2, 17468, Note_off_c, 0, 84, 100
2, 17472, Note_on_c, 0, 83, 100
2, 17660, Note_off_c, 0, 83, 100
2, 18624, Note_on_c, 0, 82, 100
2, 18812, Note_off_c, 0, 82, 100
2, 18816, Note_on_c, 0, 82, 100
2, 19004, Note_off_c, 0, 82, 100
2, 19008, Note_on_c, 0, 81, 100
2, 19196, Note_off_c, 0, 81, 100
2, 20064, Note_on_c, 0, 82, 110
2, 20156, Note_off_c, 0, 82, 100
2, 20160, Note_on_c, 0, 82, 110
2, 20252, Note_off_c, 0, 82, 100
2, 20256, Note_on_c, 0, 82, 110
2, 20348, Note_off_c, 0, 82, 100
2, 20352, Note_on_c, 0, 81, 110
2, 20400, Note_on_c, 0, 82, 110
2, 20424, Note_off_c, 0, 81, 100
2, 20448, Note_on_c, 0, 84, 110
2, 20480, Note_off_c, 0, 82, 100
2, 20496, Note_on_c, 0, 82, 110
2, 20532, Note_off_c, 0, 84, 100
2, 20544, Note_on_c, 0, 81, 110
2, 20580, Note_off_c, 0, 82, 100
2, 20732, Note_off_c, 0, 81, 100
2, 21888, Note_on_c, 0, 69, 110
2, 21936, Note_on_c, 0, 70, 110
2, 21968, Note_off_c, 0, 69, 100
2, 21984, Note_on_c, 0, 72, 110
2, 22028, Note_off_c, 0, 70, 100
2, 22032, Note_on_c, 0, 70, 110
2, 22064, Note_off_c, 0, 72, 100
2, 22080, Note_on_c, 0, 69, 110
2, 22108, Note_off_c, 0, 70, 100
2, 22172, Note_off_c, 0, 69, 100
2, 22176, Note_on_c, 0, 65, 110
2, 22268, Note_off_c, 0, 65, 100
2, 22272, Note_on_c, 0, 70, 110
2, 22316, Note_off_c, 0, 70, 100
2, 22320, Note_on_c, 0, 72, 110
2, 22364, Note_off_c, 0, 72, 100
2, 22368, Note_on_c, 0, 74, 110
2, 22412, Note_off_c, 0, 74, 100
2, 22416, Note_on_c, 0, 72, 110
2, 22460, Note_off_c, 0, 72, 100
2, 22464, Note_on_c, 0, 70, 110
2, 22556, Note_off_c, 0, 70, 100
2, 22560, Note_on_c, 0, 65, 110
2, 22652, Note_off_c, 0, 65, 100
2, 22656, Note_on_c, 0, 75, 110
2, 22656, Note_on_c, 0, 65, 110
2, 22656, Note_on_c, 0, 63, 110
2, 23036, Note_off_c, 0, 75, 100
2, 23036, Note_off_c, 0, 65, 100
2, 23036, Note_off_c, 0, 63, 100
2, 23040, Note_on_c, 0, 74, 110
2, 23040, Note_on_c, 0, 65, 110
2, 23040, Note_on_c, 0, 62, 110
2, 23324, Note_off_c, 0, 74, 100
2, 23324, Note_off_c, 0, 65, 100
2, 23324, Note_off_c, 0, 62, 100
2, 23328, Note_on_c, 0, 65, 110
2, 23420, Note_off_c, 0, 65, 100
2, 23424, Note_on_c, 0, 69, 110
2, 23472, Note_on_c, 0, 70, 110
2, 23492, Note_off_c, 0, 69, 100
2, 23520, Note_on_c, 0, 72, 110
2, 23548, Note_off_c, 0, 70, 100
2, 23568, Note_on_c, 0, 70, 110
2, 23596, Note_off_c, 0, 72, 100
2, 23616, Note_on_c, 0, 69, 110
2, 23648, Note_off_c, 0, 70, 100
2, 23708, Note_off_c, 0, 69, 100
2, 23712, Note_on_c, 0, 65, 110
2, 23804, Note_off_c, 0, 65, 100
2, 23808, Note_on_c, 0, 70, 110
2, 23856, Note_on_c, 0, 72, 110
2, 23888, Note_off_c, 0, 70, 100
2, 23904, Note_on_c, 0, 74, 110
2, 23940, Note_off_c, 0, 72, 100
2, 23952, Note_on_c, 0, 72, 110
2, 23980, Note_off_c, 0, 74, 100
2, 24000, Note_on_c, 0, 70, 110
2, 24036, Note_off_c, 0, 72, 100
2, 24092, Note_off_c, 0, 70, 100
2, 24096, Note_on_c, 0, 71, 110
2, 24188, Note_off_c, 0, 71, 100
2, 24192, Note_on_c, 0, 72, 110
2, 24236, Note_off_c, 0, 72, 100
2, 24240, Note_on_c, 0, 74, 110
2, 24284, Note_off_c, 0, 74, 100
2, 24288, Note_on_c, 0, 75, 110
2, 24332, Note_off_c, 0, 75, 100
2, 24336, Note_on_c, 0, 74, 110
2, 24380, Note_off_c, 0, 74, 100
2, 24384, Note_on_c, 0, 72, 110
2, 24476, Note_off_c, 0, 72, 100
2, 24480, Note_on_c, 0, 79, 110
2, 24572, Note_off_c, 0, 79, 100
2, 24576, Note_on_c, 0, 75, 110
2, 24668, Note_off_c, 0, 75, 100
2, 24672, Note_on_c, 0, 84, 110
2, 24764, Note_off_c, 0, 84, 100
2, 24768, Note_on_c, 0, 79, 110
2, 24860, Note_off_c, 0, 79, 100
2, 24864, Note_on_c, 0, 87, 110
2, 24956, Note_off_c, 0, 87, 100
2, 24960, Note_on_c, 0, 72, 100
2, 25004, Note_off_c, 0, 72, 100
2, 25008, Note_on_c, 0, 74, 100
2, 25052, Note_off_c, 0, 74, 100
2, 25056, Note_on_c, 0, 75, 100
2, 25100, Note_off_c, 0, 75, 100
2, 25104, Note_on_c, 0, 74, 100
2, 25148, Note_off_c, 0, 74, 100
2, 25152, Note_on_c, 0, 72, 100
2, 25244, Note_off_c, 0, 72, 100
2, 25248, Note_on_c, 0, 81, 100
2, 25340, Note_off_c, 0, 81, 100
2, 25344, Note_on_c, 0, 75, 100
2, 25436, Note_off_c, 0, 75, 100
2, 25440, Note_on_c, 0, 84, 100
2, 25532, Note_off_c, 0, 84, 100
2, 25536, Note_on_c, 0, 81, 100
2, 25628, Note_off_c, 0, 81, 100
2, 25632, Note_on_c, 0, 87, 100
2, 25724, Note_off_c, 0, 87, 100
2, 25728, Note_on_c, 0, 72, 100
2, 25772, Note_off_c, 0, 72, 100
2, 25776, Note_on_c, 0, 74, 100
2, 25820, Note_off_c, 0, 74, 100
2, 25824, Note_on_c, 0, 75, 100
2, 25868, Note_off_c, 0, 75, 100
2, 25872, Note_on_c, 0, 74, 100
2, 25916, Note_off_c, 0, 74, 100
2, 25920, Note_on_c, 0, 72, 100
2, 26012, Note_off_c, 0, 72, 100
2, 26016, Note_on_c, 0, 81, 100
2, 26108, Note_off_c, 0, 81, 100
2, 26112, Note_on_c, 0, 75, 100
2, 26204, Note_off_c, 0, 75, 100
2, 26208, Note_on_c, 0, 84, 100
2, 26300, Note_off_c, 0, 84, 100
2, 26304, Note_on_c, 0, 81, 100
2, 26396, Note_off_c, 0, 81, 100
2, 26400, Note_on_c, 0, 87, 100
2, 26492, Note_off_c, 0, 87, 100
2, 26496, Note_on_c, 0, 86, 100
2, 26588, Note_off_c, 0, 86, 100
2, 26592, Note_on_c, 0, 81, 100
2, 26684, Note_off_c, 0, 81, 100
2, 26688, Note_on_c, 0, 82, 100
2, 26780, Note_off_c, 0, 82, 100
2, 26784, Note_on_c, 0, 78, 100
2, 26876, Note_off_c, 0, 78, 100
2, 26880, Note_on_c, 0, 79, 100
2, 26972, Note_off_c, 0, 79, 100
2, 26976, Note_on_c, 0, 74, 100
2, 27068, Note_off_c, 0, 74, 100
2, 27072, Note_on_c, 0, 75, 100
2, 27164, Note_off_c, 0, 75, 100
2, 27168, Note_on_c, 0, 72, 100
2, 27260, Note_off_c, 0, 72, 100
2, 27264, Note_on_c, 0, 77, 100
2, 27356, Note_off_c, 0, 77, 100
2, 27360, Note_on_c, 0, 73, 100
2, 27452, Note_off_c, 0, 73, 100
2, 27456, Note_on_c, 0, 74, 100
2, 27548, Note_off_c, 0, 74, 100
2, 27552, Note_on_c, 0, 70, 100
2, 27644, Note_off_c, 0, 70, 100
2, 27648, Note_on_c, 0, 75, 100
2, 27740, Note_off_c, 0, 75, 100
2, 27744, Note_on_c, 0, 71, 100
2, 27836, Note_off_c, 0, 71, 100
2, 27840, Note_on_c, 0, 72, 100
2, 27932, Note_off_c, 0, 72, 100
2, 27936, Note_on_c, 0, 69, 100
2, 28028, Note_off_c, 0, 69, 100
2, 28032, Note_on_c, 0, 70, 100
2, 28032, Note_on_c, 0, 62, 100
2, 28412, Note_off_c, 0, 70, 100
2, 28412, Note_off_c, 0, 62, 100
2, 28608, Note_on_c, 0, 74, 100
2, 28608, Note_on_c, 0, 71, 100
2, 28796, Note_off_c, 0, 74, 100
2, 28796, Note_off_c, 0, 71, 100
2, 28800, Note_on_c, 0, 75, 100
2, 28800, Note_on_c, 0, 72, 100
2, 28988, Note_off_c, 0, 75, 100
2, 28988, Note_off_c, 0, 72, 100
2, 28992, Note_on_c, 0, 79, 100
2, 28992, Note_on_c, 0, 75, 100
2, 29180, Note_off_c, 0, 79, 100
2, 29180, Note_off_c, 0, 75, 100
2, 29376, Note_on_c, 0, 72, 100
2, 29376, Note_on_c, 0, 69, 100
2, 29564, Note_off_c, 0, 72, 100
2, 29564, Note_off_c, 0, 69, 100
2, 29568, Note_on_c, 0, 74, 100
2, 29568, Note_on_c, 0, 70, 100
2, 29756, Note_off_c, 0, 74, 100
2, 29756, Note_off_c, 0, 70, 100
2, 29760, Note_on_c, 0, 77, 100
2, 29760, Note_on_c, 0, 74, 100
2, 29948, Note_off_c, 0, 77, 100
2, 29948, Note_off_c, 0, 74, 100
2, 29952, Note_on_c, 0, 77, 100
2, 30140, Note_off_c, 0, 77, 100
2, 30144, Note_on_c, 0, 77, 100
2, 30168, Note_on_c, 0, 79, 100
2, 30188, Note_off_c, 0, 77, 100
2, 30192, Note_on_c, 0, 77, 100
2, 30212, Note_off_c, 0, 79, 100
2, 30216, Note_on_c, 0, 79, 100
2, 30236, Note_off_c, 0, 77, 100
2, 30240, Note_on_c, 0, 77, 100
2, 30260, Note_off_c, 0, 79, 100
2, 30264, Note_on_c, 0, 79, 100
2, 30284, Note_off_c, 0, 77, 100
2, 30288, Note_on_c, 0, 76, 100
2, 30308, Note_off_c, 0, 79, 100
2, 30312, Note_on_c, 0, 77, 100
2, 30332, Note_off_c, 0, 76, 100
2, 30332, Note_off_c, 0, 77, 100
2, 30336, Note_on_c, 0, 75, 100
2, 30428, Note_off_c, 0, 75, 100
2, 30432, Note_on_c, 0, 74, 100
2, 30524, Note_off_c, 0, 74, 100
2, 30528, Note_on_c, 0, 72, 100
2, 30620, Note_off_c, 0, 72, 100
2, 30624, Note_on_c, 0, 70, 100
2, 30716, Note_off_c, 0, 70, 100
2, 30720, Note_on_c, 0, 69, 100
2, 30812, Note_off_c, 0, 69, 100
2, 30816, Note_on_c, 0, 70, 100
2, 30908, Note_off_c, 0, 70, 100
2, 30912, Note_on_c, 0, 71, 100
2, 31004, Note_off_c, 0, 71, 100
2, 31008, Note_on_c, 0, 72, 100
2, 31100, Note_off_c, 0, 72, 100
2, 31104, Note_on_c, 0, 65, 100
2, 31292, Note_off_c, 0, 65, 100
2, 31680, Note_on_c, 0, 67, 100
2, 31680, Note_on_c, 0, 74, 100
2, 31680, Note_on_c, 0, 71, 100
2, 31868, Note_off_c, 0, 67, 100
2, 31868, Note_off_c, 0, 74, 100
2, 31868, Note_off_c, 0, 71, 100
2, 31872, Note_on_c, 0, 79, 100
2, 32060, Note_off_c, 0, 79, 100
2, 32064, Note_on_c, 0, 79, 100
2, 32088, Note_on_c, 0, 80, 100
2, 32108, Note_off_c, 0, 79, 100
2, 32112, Note_on_c, 0, 79, 100
2, 32132, Note_off_c, 0, 80, 100
2, 32136, Note_on_c, 0, 80, 100
2, 32156, Note_off_c, 0, 79, 100
2, 32160, Note_on_c, 0, 79, 100
2, 32180, Note_off_c, 0, 80, 100
2, 32184, Note_on_c, 0, 80, 100
2, 32204, Note_off_c, 0, 79, 100
2, 32208, Note_on_c, 0, 78, 100
2, 32228, Note_off_c, 0, 80, 100
2, 32232, Note_on_c, 0, 79, 100
2, 32252, Note_off_c, 0, 78, 100
2, 32252, Note_off_c, 0, 79, 100
2, 32448, Note_on_c, 0, 72, 100
2, 32448, Note_on_c, 0, 69, 100
2, 32448, Note_on_c, 0, 65, 100
2, 32636, Note_off_c, 0, 72, 100
2, 32636, Note_off_c, 0, 69, 100
2, 32636, Note_off_c, 0, 65, 100
2, 32640, Note_on_c, 0, 77, 100
2, 32828, Note_off_c, 0, 77, 100
2, 32832, Note_on_c, 0, 77, 100
2, 32856, Note_on_c, 0, 79, 100
2, 32876, Note_off_c, 0, 77, 100
2, 32880, Note_on_c, 0, 77, 100
2, 32900, Note_off_c, 0, 79, 100
2, 32904, Note_on_c, 0, 79, 100
2, 32924, Note_off_c, 0, 77, 100
2, 32928, Note_on_c, 0, 77, 100
2, 32948, Note_off_c, 0, 79, 100
2, 32952, Note_on_c, 0, 79, 100
2, 32972, Note_off_c, 0, 77, 100
2, 32976, Note_on_c, 0, 76, 100
2, 32996, Note_off_c, 0, 79, 100
2, 33000, Note_on_c, 0, 77, 100
2, 33020, Note_off_c, 0, 76, 100
2, 33020, Note_off_c, 0, 77, 100
2, 33024, Note_on_c, 0, 89, 100
2, 33116, Note_off_c, 0, 89, 100
2, 33216, Note_on_c, 0, 88, 100
2, 33260, Note_off_c, 0, 88, 100
2, 33264, Note_on_c, 0, 89, 100
2, 33308, Note_off_c, 0, 89, 100
2, 33312, Note_on_c, 0, 88, 100
2, 33356, Note_off_c, 0, 88, 100
2, 33360, Note_on_c, 0, 89, 100
2, 33404, Note_off_c, 0, 89, 100
2, 33408, Note_on_c, 0, 87, 80
2, 33500, Note_off_c, 0, 87, 100
2, 33504, Note_on_c, 0, 86, 80
2, 33596, Note_off_c, 0, 86, 100
2, 33600, Note_on_c, 0, 84, 80
2, 33624, Note_on_c, 0, 86, 80
2, 33644, Note_off_c, 0, 84, 100
2, 33648, Note_on_c, 0, 84, 80
2, 33668, Note_off_c, 0, 86, 100
2, 33692, Note_off_c, 0, 84, 100
2, 33696, Note_on_c, 0, 82, 80
2, 33788, Note_off_c, 0, 82, 100
2, 33792, Note_on_c, 0, 82, 80
2, 33816, Note_on_c, 0, 84, 80
2, 33836, Note_off_c, 0, 82, 100
2, 33840, Note_on_c, 0, 82, 80
2, 33860, Note_off_c, 0, 84, 100
2, 33884, Note_off_c, 0, 82, 100
2, 33888, Note_on_c, 0, 81, 80
2, 33980, Note_off_c, 0, 81, 100
2, 33984, Note_on_c, 0, 79, 80
2, 34008, Note_on_c, 0, 81, 80
2, 34028, Note_off_c, 0, 79, 100
2, 34032, Note_on_c, 0, 79, 80
2, 34052, Note_off_c, 0, 81, 100
2, 34076, Note_off_c, 0, 79, 100
2, 34080, Note_on_c, 0, 77, 80
2, 34172, Note_off_c, 0, 77, 100
2, 34176, Note_on_c, 0, 77, 80
2, 34268, Note_off_c, 0, 77, 100
2, 34272, Note_on_c, 0, 79, 80
2, 34316, Note_off_c, 0, 79, 100
2, 34320, Note_on_c, 0, 81, 80
2, 34364, Note_off_c, 0, 81, 100
2, 34368, Note_on_c, 0, 82, 80
2, 34412, Note_off_c, 0, 82, 100
2, 34416, Note_on_c, 0, 84, 80
2, 34460, Note_off_c, 0, 84, 100
2, 34464, Note_on_c, 0, 86, 80
2, 34508, Note_off_c, 0, 86, 100
2, 34512, Note_on_c, 0, 87, 100
2, 34556, Note_off_c, 0, 87, 100
2, 34560, Note_on_c, 0, 89, 110
2, 34652, Note_off_c, 0, 89, 100
2, 34656, Note_on_c, 0, 88, 110
2, 34700, Note_off_c, 0, 88, 100
2, 34704, Note_on_c, 0, 89, 110
2, 34748, Note_off_c, 0, 89, 100
2, 34752, Note_on_c, 0, 88, 110
2, 34796, Note_off_c, 0, 88, 100
2, 34800, Note_on_c, 0, 89, 110
2, 34844, Note_off_c, 0, 89, 100
2, 34848, Note_on_c, 0, 88, 110
2, 34892, Note_off_c, 0, 88, 100
2, 34896, Note_on_c, 0, 89, 110
2, 34940, Note_off_c, 0, 89, 100
2, 35040, Note_on_c, 0, 87, 81
2, 35084, Note_off_c, 0, 87, 100
2, 35088, Note_on_c, 0, 86, 82
2, 35132, Note_off_c, 0, 86, 100
2, 35232, Note_on_c, 0, 84, 85
2, 35276, Note_off_c, 0, 84, 100
2, 35280, Note_on_c, 0, 82, 86
2, 35324, Note_off_c, 0, 82, 100
2, 35424, Note_on_c, 0, 82, 89
2, 35468, Note_off_c, 0, 82, 100
2, 35472, Note_on_c, 0, 81, 89
2, 35516, Note_off_c, 0, 81, 100
2, 35616, Note_on_c, 0, 79, 92
2, 35660, Note_off_c, 0, 79, 100
2, 35664, Note_on_c, 0, 77, 93
2, 35708, Note_off_c, 0, 77, 100
2, 35712, Note_on_c, 0, 76, 94
2, 35756, Note_off_c, 0, 76, 100
2, 35760, Note_on_c, 0, 77, 95
2, 35804, Note_off_c, 0, 77, 100
2, 35808, Note_on_c, 0, 79, 96
2, 35852, Note_off_c, 0, 79, 100
2, 35856, Note_on_c, 0, 81, 97
2, 35900, Note_off_c, 0, 81, 100
2, 35904, Note_on_c, 0, 82, 98
2, 35948, Note_off_c, 0, 82, 100
2, 35952, Note_on_c, 0, 84, 99
2, 35996, Note_off_c, 0, 84, 100
2, 36000, Note_on_c, 0, 86, 99
2, 36044, Note_off_c, 0, 86, 100
2, 36048, Note_on_c, 0, 87, 100
2, 36092, Note_off_c, 0, 87, 100
2, 36096, Note_on_c, 0, 88, 110
2, 36144, Note_on_c, 0, 89, 110
2, 36168, Note_off_c, 0, 88, 100
2, 36192, Note_on_c, 0, 88, 110
2, 36224, Note_off_c, 0, 89, 100
2, 36240, Note_on_c, 0, 89, 110
2, 36280, Note_off_c, 0, 88, 100
2, 36288, Note_on_c, 0, 88, 110
2, 36324, Note_off_c, 0, 89, 100
2, 36336, Note_on_c, 0, 89, 110
2, 36376, Note_off_c, 0, 88, 100
2, 36384, Note_on_c, 0, 88, 110
2, 36428, Note_off_c, 0, 89, 100
2, 36432, Note_on_c, 0, 89, 110
2, 36464, Note_off_c, 0, 88, 100
2, 36480, Note_on_c, 0, 87, 110
2, 36524, Note_off_c, 0, 89, 100
2, 36528, Note_on_c, 0, 86, 110
2, 36560, Note_off_c, 0, 87, 100
2, 36576, Note_on_c, 0, 84, 110
2, 36604, Note_off_c, 0, 86, 100
2, 36624, Note_on_c, 0, 82, 110
2, 36664, Note_off_c, 0, 84, 100
2, 36672, Note_on_c, 0, 82, 110
2, 36704, Note_off_c, 0, 82, 100
2, 36720, Note_on_c, 0, 81, 110
2, 36748, Note_off_c, 0, 82, 100
2, 36768, Note_on_c, 0, 79, 110
2, 36804, Note_off_c, 0, 81, 100
2, 36816, Note_on_c, 0, 77, 110
2, 36852, Note_off_c, 0, 79, 100
2, 36864, Note_on_c, 0, 77, 110
2, 36888, Note_off_c, 0, 77, 100
2, 36912, Note_on_c, 0, 75, 110
2, 36952, Note_off_c, 0, 77, 100
2, 36960, Note_on_c, 0, 74, 110
2, 36996, Note_off_c, 0, 75, 100
2, 37008, Note_on_c, 0, 72, 110
2, 37040, Note_off_c, 0, 74, 100
2, 37056, Note_on_c, 0, 74, 110
2, 37084, Note_off_c, 0, 72, 100
2, 37104, Note_on_c, 0, 72, 110
2, 37136, Note_off_c, 0, 74, 100
2, 37152, Note_on_c, 0, 70, 110
2, 37180, Note_off_c, 0, 72, 100
2, 37200, Note_on_c, 0, 69, 100
2, 37236, Note_off_c, 0, 70, 100
2, 37248, Note_on_c, 0, 72, 100
2, 37284, Note_off_c, 0, 69, 100
2, 37308, Note_off_c, 0, 72, 100
2, 37312, Note_on_c, 0, 70, 99
2, 37372, Note_off_c, 0, 70, 100
2, 37376, Note_on_c, 0, 69, 97
2, 37436, Note_off_c, 0, 69, 100
2, 37440, Note_on_c, 0, 72, 96
2, 37500, Note_off_c, 0, 72, 100
2, 37504, Note_on_c, 0, 70, 95
2, 37564, Note_off_c, 0, 70, 100
2, 37568, Note_on_c, 0, 69, 94
2, 37628, Note_off_c, 0, 69, 100
2, 37632, Note_on_c, 0, 72, 93
2, 37692, Note_off_c, 0, 72, 100
2, 37696, Note_on_c, 0, 70, 92
2, 37756, Note_off_c, 0, 70, 100
2, 37760, Note_on_c, 0, 69, 91
2, 37820, Note_off_c, 0, 69, 100
2, 37824, Note_on_c, 0, 72, 90
2, 37884, Note_off_c, 0, 72, 100
2, 37888, Note_on_c, 0, 70, 88
2, 37948, Note_off_c, 0, 70, 100
2, 37952, Note_on_c, 0, 69, 87
2, 38012, Note_off_c, 0, 69, 100
2, 38016, Note_on_c, 0, 72, 86
2, 38076, Note_off_c, 0, 72, 100
2, 38080, Note_on_c, 0, 70, 85
2, 38140, Note_off_c, 0, 70, 100
2, 38144, Note_on_c, 0, 69, 84
2, 38204, Note_off_c, 0, 69, 100
2, 38208, Note_on_c, 0, 72, 83
2, 38268, Note_off_c, 0, 72, 100
2, 38272, Note_on_c, 0, 70, 82
2, 38332, Note_off_c, 0, 70, 100
2, 38336, Note_on_c, 0, 69, 81
2, 38396, Note_off_c, 0, 69, 100
2, 38400, Note_on_c, 0, 72, 80
2, 38448, Note_on_c, 0, 70, 82
2, 38476, Note_off_c, 0, 72, 100
2, 38496, Note_on_c, 0, 69, 85
2, 38528, Note_off_c, 0, 70, 100
2, 38544, Note_on_c, 0, 70, 88
2, 38572, Note_off_c, 0, 69, 100
2, 38592, Note_on_c, 0, 71, 90
2, 38624, Note_off_c, 0, 70, 100
2, 38624, Note_on_c, 0, 72, 92
2, 38656, Note_on_c, 0, 73, 94
2, 38672, Note_off_c, 0, 71, 100
2, 38688, Note_on_c, 0, 74, 96
2, 38696, Note_off_c, 0, 72, 100
2, 38720, Note_on_c, 0, 75, 97
2, 38740, Note_off_c, 0, 73, 100
2, 38752, Note_on_c, 0, 76, 99
2, 38764, Note_off_c, 0, 74, 100
2, 38780, Note_off_c, 0, 75, 100
2, 38780, Note_off_c, 0, 76, 100
2, 38784, Note_on_c, 0, 77, 100
2, 39168, Note_on_c, 0, 68, 100
2, 39168, Note_on_c, 0, 65, 100
2, 39452, Note_off_c, 0, 77, 100
2, 39456, Note_on_c, 0, 75, 100
2, 39548, Note_off_c, 0, 75, 100
2, 39552, Note_on_c, 0, 75, 80
2, 39740, Note_off_c, 0, 75, 100
2, 39744, Note_on_c, 0, 74, 80
2, 40028, Note_off_c, 0, 74, 100
2, 40032, Note_on_c, 0, 77, 80
2, 40124, Note_off_c, 0, 65, 100
2, 40124, Note_off_c, 0, 68, 100
2, 40124, Note_off_c, 0, 77, 100
2, 40128, Note_on_c, 0, 75, 80
2, 40128, Note_on_c, 0, 67, 80
2, 40220, Note_off_c, 0, 75, 100
2, 40224, Note_on_c, 0, 72, 80
2, 40316, Note_off_c, 0, 67, 100
2, 40316, Note_off_c, 0, 72, 100
2, 40320, Note_on_c, 0, 72, 80
2, 40320, Note_on_c, 0, 65, 80
2, 40508, Note_off_c, 0, 72, 100
2, 40512, Note_on_c, 0, 70, 80
2, 40700, Note_off_c, 0, 65, 100
2, 40796, Note_off_c, 0, 70, 100
2, 40800, Note_on_c, 0, 71, 80
2, 40892, Note_off_c, 0, 71, 100
2, 40896, Note_on_c, 0, 72, 80
2, 40896, Note_on_c, 0, 65, 80
2, 40988, Note_off_c, 0, 72, 100
2, 40992, Note_on_c, 0, 68, 80
2, 41084, Note_off_c, 0, 65, 100
2, 41084, Note_off_c, 0, 68, 100
2, 41088, Note_on_c, 0, 68, 80
2, 41180, Note_off_c, 0, 68, 100
2, 41184, Note_on_c, 0, 67, 80
2, 41276, Note_off_c, 0, 67, 100
2, 41280, Note_on_c, 0, 70, 80
2, 41372, Note_off_c, 0, 70, 100
2, 41376, Note_on_c, 0, 63, 80
2, 41468, Note_off_c, 0, 63, 100
2, 41472, Note_on_c, 0, 63, 80
2, 41564, Note_off_c, 0, 63, 100
2, 41568, Note_on_c, 0, 62, 80
2, 41660, Note_off_c, 0, 62, 100
2, 41664, Note_on_c, 0, 65, 80
2, 41756, Note_off_c, 0, 65, 100
2, 41760, Note_on_c, 0, 63, 80
2, 41856, Note_on_c, 0, 67, 80
2, 42044, Note_off_c, 0, 63, 100
2, 42044, Note_off_c, 0, 67, 100
2, 42048, Note_on_c, 0, 65, 80
2, 42048, Note_on_c, 0, 62, 80
2, 42236, Note_off_c, 0, 65, 100
2, 42236, Note_off_c, 0, 62, 100
2, 42240, Note_on_c, 0, 77, 80
2, 42524, Note_off_c, 0, 77, 100
2, 42528, Note_on_c, 0, 75, 80
2, 42620, Note_off_c, 0, 75, 100
2, 42624, Note_on_c, 0, 74, 80
2, 42644, Note_off_c, 0, 74, 100
2, 42648, Note_on_c, 0, 75, 80
2, 42668, Note_off_c, 0, 75, 100
2, 42672, Note_on_c, 0, 77, 80
2, 42692, Note_off_c, 0, 77, 100
2, 42696, Note_on_c, 0, 75, 80
2, 42812, Note_off_c, 0, 75, 100
2, 42816, Note_on_c, 0, 74, 80
2, 43100, Note_off_c, 0, 74, 100
2, 43104, Note_on_c, 0, 77, 80
2, 43196, Note_off_c, 0, 77, 100
2, 43200, Note_on_c, 0, 75, 80
2, 43292, Note_off_c, 0, 75, 100
2, 43296, Note_on_c, 0, 72, 80
2, 43388, Note_off_c, 0, 72, 100
2, 43392, Note_on_c, 0, 69, 80
2, 43580, Note_off_c, 0, 69, 100
2, 43584, Note_on_c, 0, 70, 80
2, 43868, Note_off_c, 0, 70, 100
2, 43872, Note_on_c, 0, 71, 80
2, 43964, Note_off_c, 0, 71, 100
2, 43968, Note_on_c, 0, 72, 80
2, 43968, Note_on_c, 0, 65, 80
2, 44060, Note_off_c, 0, 72, 100
2, 44064, Note_on_c, 0, 68, 80
2, 44156, Note_off_c, 0, 65, 100
2, 44156, Note_off_c, 0, 68, 100
2, 44160, Note_on_c, 0, 63, 80
2, 44160, Note_on_c, 0, 67, 80
2, 44252, Note_off_c, 0, 67, 100
2, 44256, Note_on_c, 0, 70, 80
2, 44348, Note_off_c, 0, 63, 100
2, 44348, Note_off_c, 0, 70, 100
2, 44352, Note_on_c, 0, 60, 80
2, 44352, Note_on_c, 0, 68, 80
2, 44444, Note_off_c, 0, 68, 100
2, 44448, Note_on_c, 0, 65, 80
2, 44540, Note_off_c, 0, 60, 100
2, 44540, Note_off_c, 0, 65, 100
2, 44544, Note_on_c, 0, 63, 80
2, 44544, Note_on_c, 0, 55, 80
2, 44732, Note_off_c, 0, 63, 100
2, 44732, Note_off_c, 0, 55, 100
2, 44736, Note_on_c, 0, 62, 80
2, 44736, Note_on_c, 0, 56, 80
2, 44736, Note_on_c, 0, 67, 80
2, 44828, Note_off_c, 0, 67, 100
2, 44832, Note_on_c, 0, 65, 80
2, 44924, Note_off_c, 0, 62, 100
2, 44924, Note_off_c, 0, 56, 100
2, 44924, Note_off_c, 0, 65, 100
2, 44928, Note_on_c, 0, 63, 80
2, 44928, Note_on_c, 0, 55, 80
2, 45116, Note_off_c, 0, 63, 100
2, 45116, Note_off_c, 0, 55, 100
2, 45312, Note_on_c, 0, 55, 100
2, 45356, Note_off_c, 0, 55, 100
2, 45360, Note_on_c, 0, 58, 100
2, 45404, Note_off_c, 0, 58, 100
2, 45408, Note_on_c, 0, 63, 100
2, 45452, Note_off_c, 0, 63, 100
2, 45456, Note_on_c, 0, 67, 100
2, 45500, Note_off_c, 0, 67, 100
2, 45504, Note_on_c, 0, 70, 100
2, 45548, Note_off_c, 0, 70, 100
2, 45552, Note_on_c, 0, 75, 100
2, 45596, Note_off_c, 0, 75, 100
2, 45600, Note_on_c, 0, 79, 100
2, 45644, Note_off_c, 0, 79, 100
2, 45648, Note_on_c, 0, 77, 100
2, 45692, Note_off_c, 0, 77, 100
2, 45696, Note_on_c, 0, 75, 100
2, 45884, Note_off_c, 0, 75, 100
2, 45888, Note_on_c, 0, 74, 100
2, 46076, Note_off_c, 0, 74, 100
2, 46080, Note_on_c, 0, 75, 100
2, 46172, Note_off_c, 0, 75, 100
2, 46176, Note_on_c, 0, 77, 100
2, 46268, Note_off_c, 0, 77, 100
2, 46272, Note_on_c, 0, 79, 100
2, 46364, Note_off_c, 0, 79, 100
2, 46368, Note_on_c, 0, 81, 100
2, 46460, Note_off_c, 0, 81, 100
2, 46464, Note_on_c, 0, 84, 100
2, 46652, Note_off_c, 0, 84, 100
2, 46656, Note_on_c, 0, 82, 100
2, 46844, Note_off_c, 0, 82, 100
2, 46848, Note_on_c, 0, 55, 100
2, 46892, Note_off_c, 0, 55, 100
2, 46896, Note_on_c, 0, 58, 100
2, 46940, Note_off_c, 0, 58, 100
2, 46944, Note_on_c, 0, 63, 100
2, 46988, Note_off_c, 0, 63, 100
2, 46992, Note_on_c, 0, 67, 100
2, 47036, Note_off_c, 0, 67, 100
2, 47040, Note_on_c, 0, 70, 100
2, 47084, Note_off_c, 0, 70, 100
2, 47088, Note_on_c, 0, 75, 100
2, 47132, Note_off_c, 0, 75, 100
2, 47136, Note_on_c, 0, 79, 100
2, 47180, Note_off_c, 0, 79, 100
2, 47184, Note_on_c, 0, 77, 100
2, 47228, Note_off_c, 0, 77, 100
2, 47232, Note_on_c, 0, 75, 100
2, 47276, Note_off_c, 0, 75, 100
2, 47280, Note_on_c, 0, 74, 100
2, 47324, Note_off_c, 0, 74, 100
2, 47328, Note_on_c, 0, 72, 100
2, 47372, Note_off_c, 0, 72, 100
2, 47376, Note_on_c, 0, 70, 100
2, 47420, Note_off_c, 0, 70, 100
2, 47424, Note_on_c, 0, 69, 100
2, 47468, Note_off_c, 0, 69, 100
2, 47472, Note_on_c, 0, 70, 100
2, 47516, Note_off_c, 0, 70, 100
2, 47520, Note_on_c, 0, 72, 100
2, 47564, Note_off_c, 0, 72, 100
2, 47568, Note_on_c, 0, 74, 100
2, 47612, Note_off_c, 0, 74, 100
2, 47616, Note_on_c, 0, 75, 100
2, 47708, Note_off_c, 0, 75, 100
2, 47712, Note_on_c, 0, 77, 100
2, 47804, Note_off_c, 0, 77, 100
2, 47808, Note_on_c, 0, 79, 100
2, 47900, Note_off_c, 0, 79, 100
2, 47904, Note_on_c, 0, 81, 100
2, 47996, Note_off_c, 0, 81, 100
2, 48000, Note_on_c, 0, 82, 80
2, 48000, Note_on_c, 0, 70, 80
2, 48764, Note_off_c, 0, 82, 100
2, 48764, Note_off_c, 0, 70, 100
2, 48768, Note_on_c, 0, 83, 110
2, 48768, Note_on_c, 0, 71, 110
2, 49532, Note_off_c, 0, 83, 100
2, 49532, Note_off_c, 0, 71, 100
2, 49536, Note_on_c, 0, 84, 120
2, 49536, Note_on_c, 0, 72, 120
2, 49916, Note_off_c, 0, 84, 100
2, 49916, Note_off_c, 0, 72, 100
2, 50112, Note_on_c, 0, 75, 110
2, 50112, Note_on_c, 0, 72, 110
2, 50112, Note_on_c, 0, 67, 110
2, 50112, Note_on_c, 0, 63, 110
2, 50300, Note_off_c, 0, 75, 100
2, 50300, Note_off_c, 0, 72, 100
2, 50300, Note_off_c, 0, 67, 100
2, 50300, Note_off_c, 0, 63, 100
2, 50304, Note_on_c, 0, 79, 110
2, 50304, Note_on_c, 0, 75, 110
2, 50304, Note_on_c, 0, 72, 110
2, 50304, Note_on_c, 0, 67, 110
2, 50684, Note_off_c, 0, 79, 100
2, 50684, Note_off_c, 0, 75, 100
2, 50684, Note_off_c, 0, 72, 100
2, 50684, Note_off_c, 0, 67, 100
2, 50880, Note_on_c, 0, 79, 110
2, 50880, Note_on_c, 0, 75, 110
2, 50880, Note_on_c, 0, 72, 110
2, 50880, Note_on_c, 0, 84, 110
2, 51068, Note_off_c, 0, 79, 100
2, 51068, Note_off_c, 0, 75, 100
2, 51068, Note_off_c, 0, 72, 100
2, 51068, Note_off_c, 0, 84, 100
2, 51072, Note_on_c, 0, 74, 110
2, 51072, Note_on_c, 0, 71, 110
2, 51072, Note_on_c, 0, 67, 110
2, 51072, Note_on_c, 0, 62, 110
2, 51452, Note_off_c, 0, 74, 100
2, 51452, Note_off_c, 0, 71, 100
2, 51452, Note_off_c, 0, 67, 100
2, 51452, Note_off_c, 0, 62, 100
2, 51648, Note_on_c, 0, 79, 110
2, 51648, Note_on_c, 0, 74, 110
2, 51648, Note_on_c, 0, 71, 110
2, 51648, Note_on_c, 0, 67, 110
2, 51836, Note_off_c, 0, 79, 100
2, 51836, Note_off_c, 0, 74, 100
2, 51836, Note_off_c, 0, 71, 100
2, 51836, Note_off_c, 0, 67, 100
2, 51840, Note_on_c, 0, 86, 110
2, 51840, Note_on_c, 0, 83, 110
2, 51840, Note_on_c, 0, 79, 110
2, 51840, Note_on_c, 0, 74, 110
2, 52220, Note_off_c, 0, 86, 100
2, 52220, Note_off_c, 0, 83, 100
2, 52220, Note_off_c, 0, 79, 100
2, 52220, Note_off_c, 0, 74, 100
2, 52416, Note_on_c, 0, 86, 110
2, 52416, Note_on_c, 0, 83, 110
2, 52416, Note_on_c, 0, 79, 110
2, 52416, Note_on_c, 0, 74, 110
2, 52604, Note_off_c, 0, 86, 100
2, 52604, Note_off_c, 0, 83, 100
2, 52604, Note_off_c, 0, 79, 100
2, 52604, Note_off_c, 0, 74, 100
2, 52608, Note_on_c, 0, 75, 110
2, 52656, Note_on_c, 0, 79, 110
2, 52700, Note_off_c, 0, 75, 100
2, 52704, Note_on_c, 0, 84, 110
2, 52748, Note_off_c, 0, 79, 100
2, 52752, Note_on_c, 0, 87, 110
2, 52796, Note_off_c, 0, 84, 100
2, 52800, Note_on_c, 0, 89, 110
2, 52844, Note_off_c, 0, 87, 100
2, 52848, Note_on_c, 0, 87, 110
2, 52892, Note_off_c, 0, 89, 100
2, 52896, Note_on_c, 0, 86, 110
2, 52940, Note_off_c, 0, 87, 100
2, 52944, Note_on_c, 0, 87, 110
2, 52988, Note_off_c, 0, 86, 100
2, 52992, Note_on_c, 0, 75, 110
2, 53036, Note_off_c, 0, 87, 100
2, 53040, Note_on_c, 0, 79, 110
2, 53084, Note_off_c, 0, 75, 100
2, 53088, Note_on_c, 0, 84, 110
2, 53132, Note_off_c, 0, 79, 100
2, 53136, Note_on_c, 0, 87, 110
2, 53180, Note_off_c, 0, 84, 100
2, 53184, Note_on_c, 0, 89, 110
2, 53228, Note_off_c, 0, 87, 100
2, 53232, Note_on_c, 0, 87, 110
2, 53276, Note_off_c, 0, 89, 100
2, 53280, Note_on_c, 0, 86, 110
2, 53324, Note_off_c, 0, 87, 100
2, 53328, Note_on_c, 0, 87, 110
2, 53372, Note_off_c, 0, 86, 100
2, 53376, Note_on_c, 0, 75, 110
2, 53420, Note_off_c, 0, 87, 100
2, 53424, Note_on_c, 0, 80, 110
2, 53468, Note_off_c, 0, 75, 100
2, 53472, Note_on_c, 0, 84, 110
2, 53516, Note_off_c, 0, 80, 100
2, 53520, Note_on_c, 0, 87, 110
2, 53564, Note_off_c, 0, 84, 100
2, 53568, Note_on_c, 0, 89, 110
2, 53612, Note_off_c, 0, 87, 100
2, 53616, Note_on_c, 0, 87, 110
2, 53660, Note_off_c, 0, 89, 100
2, 53664, Note_on_c, 0, 86, 110
2, 53708, Note_off_c, 0, 87, 100
2, 53712, Note_on_c, 0, 87, 110
2, 53756, Note_off_c, 0, 86, 100
2, 53760, Note_on_c, 0, 76, 110
2, 53804, Note_off_c, 0, 87, 100
2, 53808, Note_on_c, 0, 82, 110
2, 53852, Note_off_c, 0, 76, 100
2, 53856, Note_on_c, 0, 85, 110
2, 53900, Note_off_c, 0, 82, 100
2, 53904, Note_on_c, 0, 88, 110
2, 53948, Note_off_c, 0, 85, 100
2, 53952, Note_on_c, 0, 89, 110
2, 53996, Note_off_c, 0, 88, 100
2, 54000, Note_on_c, 0, 88, 110
2, 54044, Note_off_c, 0, 89, 100
2, 54048, Note_on_c, 0, 86, 110
2, 54092, Note_off_c, 0, 88, 100
2, 54096, Note_on_c, 0, 88, 110
2, 54140, Note_off_c, 0, 86, 100
2, 54188, Note_off_c, 0, 88, 100
2, 54192, Note_on_c, 0, 89, 110
2, 54240, Note_on_c, 0, 84, 110
2, 54284, Note_off_c, 0, 89, 100
2, 54288, Note_on_c, 0, 80, 110
2, 54332, Note_off_c, 0, 84, 100
2, 54380, Note_off_c, 0, 80, 100
2, 54384, Note_on_c, 0, 89, 110
2, 54432, Note_on_c, 0, 84, 110
2, 54476, Note_off_c, 0, 89, 100
2, 54480, Note_on_c, 0, 80, 110
2, 54524, Note_off_c, 0, 84, 100
2, 54572, Note_off_c, 0, 80, 100
2, 54576, Note_on_c, 0, 86, 110
2, 54624, Note_on_c, 0, 80, 110
2, 54668, Note_off_c, 0, 86, 100
2, 54672, Note_on_c, 0, 77, 110
2, 54716, Note_off_c, 0, 80, 100
2, 54764, Note_off_c, 0, 77, 100
2, 54768, Note_on_c, 0, 86, 110
2, 54816, Note_on_c, 0, 80, 110
2, 54860, Note_off_c, 0, 86, 100
2, 54864, Note_on_c, 0, 77, 110
2, 54908, Note_off_c, 0, 80, 100
2, 54956, Note_off_c, 0, 77, 100
2, 54960, Note_on_c, 0, 87, 110
2, 55008, Note_on_c, 0, 82, 110
2, 55052, Note_off_c, 0, 87, 100
2, 55056, Note_on_c, 0, 79, 110
2, 55100, Note_off_c, 0, 82, 100
2, 55104, Note_on_c, 0, 75, 110
2, 55148, Note_off_c, 0, 79, 100
2, 55152, Note_on_c, 0, 70, 110
2, 55196, Note_off_c, 0, 75, 100
2, 55200, Note_on_c, 0, 67, 110
2, 55244, Note_off_c, 0, 70, 100
2, 55248, Note_on_c, 0, 63, 110
2, 55292, Note_off_c, 0, 67, 100
2, 55340, Note_off_c, 0, 63, 100
2, 55344, Note_on_c, 0, 58, 110
2, 55392, Note_on_c, 0, 67, 110
2, 55436, Note_off_c, 0, 58, 100
2, 55440, Note_on_c, 0, 70, 110
2, 55484, Note_off_c, 0, 67, 100
2, 55532, Note_off_c, 0, 70, 100
2, 55536, Note_on_c, 0, 59, 110
2, 55584, Note_on_c, 0, 65, 110
2, 55628, Note_off_c, 0, 59, 100
2, 55632, Note_on_c, 0, 71, 110
2, 55676, Note_off_c, 0, 65, 100
2, 55676, Note_off_c, 0, 71, 100
2, 55680, Note_on_c, 0, 72, 110
2, 55680, Note_on_c, 0, 67, 110
2, 55680, Note_on_c, 0, 63, 110
2, 55680, Note_on_c, 0, 60, 110
2, 56060, Note_off_c, 0, 72, 100
2, 56060, Note_off_c, 0, 67, 100
2, 56060, Note_off_c, 0, 63, 100
2, 56060, Note_off_c, 0, 60, 100
2, 56256, Note_on_c, 0, 75, 110
2, 56256, Note_on_c, 0, 72, 110
2, 56256, Note_on_c, 0, 67, 110
2, 56256, Note_on_c, 0, 63, 110
2, 56444, Note_off_c, 0, 75, 100
2, 56444, Note_off_c, 0, 72, 100
2, 56444, Note_off_c, 0, 67, 100
2, 56444, Note_off_c, 0, 63, 100
2, 56448, Note_on_c, 0, 79, 110
2, 56448, Note_on_c, 0, 75, 110
2, 56448, Note_on_c, 0, 72, 110
2, 56448, Note_on_c, 0, 67, 110
2, 56828, Note_off_c, 0, 79, 100
2, 56828, Note_off_c, 0, 75, 100
2, 56828, Note_off_c, 0, 72, 100
2, 56828, Note_off_c, 0, 67, 100
2, 57024, Note_on_c, 0, 79, 110
2, 57024, Note_on_c, 0, 75, 110
2, 57024, Note_on_c, 0, 72, 110
2, 57024, Note_on_c, 0, 84, 110
2, 57212, Note_off_c, 0, 79, 100
2, 57212, Note_off_c, 0, 75, 100
2, 57212, Note_off_c, 0, 72, 100
2, 57212, Note_off_c, 0, 84, 100
2, 57216, Note_on_c, 0, 74, 110
2, 57216, Note_on_c, 0, 71, 110
2, 57216, Note_on_c, 0, 67, 110
2, 57216, Note_on_c, 0, 62, 110
2, 57596, Note_off_c, 0, 74, 100
2, 57596, Note_off_c, 0, 71, 100
2, 57596, Note_off_c, 0, 67, 100
2, 57596, Note_off_c, 0, 62, 100
2, 57792, Note_on_c, 0, 79, 110
2, 57792, Note_on_c, 0, 74, 110
2, 57792, Note_on_c, 0, 71, 110
2, 57792, Note_on_c, 0, 67, 110
2, 57980, Note_off_c, 0, 79, 100
2, 57980, Note_off_c, 0, 74, 100
2, 57980, Note_off_c, 0, 71, 100
2, 57980, Note_off_c, 0, 67, 100
2, 57984, Note_on_c, 0, 86, 110
2, 57984, Note_on_c, 0, 83, 110
2, 57984, Note_on_c, 0, 79, 110
2, 57984, Note_on_c, 0, 74, 110
2, 58364, Note_off_c, 0, 86, 100
2, 58364, Note_off_c, 0, 83, 100
2, 58364, Note_off_c, 0, 79, 100
2, 58364, Note_off_c, 0, 74, 100
2, 58560, Note_on_c, 0, 86, 110
2, 58560, Note_on_c, 0, 83, 110
2, 58560, Note_on_c, 0, 79, 110
2, 58560, Note_on_c, 0, 74, 110
2, 58748, Note_off_c, 0, 86, 100
2, 58748, Note_off_c, 0, 83, 100
2, 58748, Note_off_c, 0, 79, 100
2, 58748, Note_off_c, 0, 74, 100
2, 58752, Note_on_c, 0, 75, 110
2, 58800, Note_on_c, 0, 79, 110
2, 58844, Note_off_c, 0, 75, 100
2, 58848, Note_on_c, 0, 84, 110
2, 58892, Note_off_c, 0, 79, 100
2, 58896, Note_on_c, 0, 87, 110
2, 58940, Note_off_c, 0, 84, 100
2, 58944, Note_on_c, 0, 89, 110
2, 58988, Note_off_c, 0, 87, 100
2, 58992, Note_on_c, 0, 87, 110
2, 59036, Note_off_c, 0, 89, 100
2, 59040, Note_on_c, 0, 86, 110
2, 59084, Note_off_c, 0, 87, 100
2, 59088, Note_on_c, 0, 87, 110
2, 59132, Note_off_c, 0, 86, 100
2, 59136, Note_on_c, 0, 75, 110
2, 59180, Note_off_c, 0, 87, 100
2, 59184, Note_on_c, 0, 79, 110
2, 59228, Note_off_c, 0, 75, 100
2, 59232, Note_on_c, 0, 84, 110
2, 59276, Note_off_c, 0, 79, 100
2, 59280, Note_on_c, 0, 87, 110
2, 59324, Note_off_c, 0, 84, 100
2, 59328, Note_on_c, 0, 89, 110
2, 59372, Note_off_c, 0, 87, 100
2, 59376, Note_on_c, 0, 87, 110
2, 59420, Note_off_c, 0, 89, 100
2, 59424, Note_on_c, 0, 86, 110
2, 59468, Note_off_c, 0, 87, 100
2, 59472, Note_on_c, 0, 87, 110
2, 59516, Note_off_c, 0, 86, 100
2, 59520, Note_on_c, 0, 75, 110
2, 59564, Note_off_c, 0, 87, 100
2, 59568, Note_on_c, 0, 80, 110
2, 59612, Note_off_c, 0, 75, 100
2, 59616, Note_on_c, 0, 84, 110
2, 59660, Note_off_c, 0, 80, 100
2, 59664, Note_on_c, 0, 87, 110
2, 59708, Note_off_c, 0, 84, 100
2, 59712, Note_on_c, 0, 89, 110
2, 59756, Note_off_c, 0, 87, 100
2, 59760, Note_on_c, 0, 87, 110
2, 59804, Note_off_c, 0, 89, 100
2, 59808, Note_on_c, 0, 86, 110
2, 59852, Note_off_c, 0, 87, 100
2, 59856, Note_on_c, 0, 87, 110
2, 59900, Note_off_c, 0, 86, 100
2, 59904, Note_on_c, 0, 76, 110
2, 59948, Note_off_c, 0, 87, 100
2, 59952, Note_on_c, 0, 82, 110
2, 59996, Note_off_c, 0, 76, 100
2, 60000, Note_on_c, 0, 85, 110
2, 60044, Note_off_c, 0, 82, 100
2, 60048, Note_on_c, 0, 88, 110
2, 60092, Note_off_c, 0, 85, 100
2, 60096, Note_on_c, 0, 89, 110
2, 60140, Note_off_c, 0, 88, 100
2, 60144, Note_on_c, 0, 88, 110
2, 60188, Note_off_c, 0, 89, 100
2, 60192, Note_on_c, 0, 86, 110
2, 60236, Note_off_c, 0, 88, 100
2, 60240, Note_on_c, 0, 88, 110
2, 60284, Note_off_c, 0, 86, 100
2, 60332, Note_off_c, 0, 88, 100
2, 60336, Note_on_c, 0, 89, 110
2, 60384, Note_on_c, 0, 84, 110
2, 60428, Note_off_c, 0, 89, 100
2, 60432, Note_on_c, 0, 80, 110
2, 60476, Note_off_c, 0, 84, 100
2, 60524, Note_off_c, 0, 80, 100
2, 60528, Note_on_c, 0, 89, 110
2, 60576, Note_on_c, 0, 84, 110
2, 60620, Note_off_c, 0, 89, 100
2, 60624, Note_on_c, 0, 80, 110
2, 60668, Note_off_c, 0, 84, 100
2, 60716, Note_off_c, 0, 80, 100
2, 60720, Note_on_c, 0, 86, 110
2, 60768, Note_on_c, 0, 80, 110
2, 60812, Note_off_c, 0, 86, 100
2, 60816, Note_on_c, 0, 77, 110
2, 60860, Note_off_c, 0, 80, 100
2, 60908, Note_off_c, 0, 77, 100
2, 60912, Note_on_c, 0, 86, 110
2, 60960, Note_on_c, 0, 80, 110
2, 61004, Note_off_c, 0, 86, 100
2, 61008, Note_on_c, 0, 77, 110
2, 61052, Note_off_c, 0, 80, 100
2, 61100, Note_off_c, 0, 77, 100
2, 61104, Note_on_c, 0, 87, 110
2, 61152, Note_on_c, 0, 82, 110
2, 61196, Note_off_c, 0, 87, 100
2, 61200, Note_on_c, 0, 79, 110
2, 61244, Note_off_c, 0, 82, 100
2, 61248, Note_on_c, 0, 75, 110
2, 61292, Note_off_c, 0, 79, 100
2, 61296, Note_on_c, 0, 70, 110
2, 61340, Note_off_c, 0, 75, 100
2, 61344, Note_on_c, 0, 67, 110
2, 61388, Note_off_c, 0, 70, 100
2, 61392, Note_on_c, 0, 63, 110
2, 61436, Note_off_c, 0, 67, 100
2, 61484, Note_off_c, 0, 63, 100
2, 61488, Note_on_c, 0, 58, 110
2, 61536, Note_on_c, 0, 67, 110
2, 61580, Note_off_c, 0, 58, 100
2, 61584, Note_on_c, 0, 70, 110
2, 61628, Note_off_c, 0, 67, 100
2, 61676, Note_off_c, 0, 70, 100
2, 61680, Note_on_c, 0, 58, 110
2, 61728, Note_on_c, 0, 65, 110
2, 61772, Note_off_c, 0, 58, 100
2, 61776, Note_on_c, 0, 70, 110
2, 61820, Note_off_c, 0, 65, 100
2, 61820, Note_off_c, 0, 70, 100
2, 61824, Note_on_c, 0, 64, 120
2, 61824, Note_on_c, 0, 58, 120
2, 61824, Note_on_c, 0, 55, 120
2, 62204, Note_off_c, 0, 64, 100
2, 62204, Note_off_c, 0, 58, 100
2, 62204, Note_off_c, 0, 55, 100
2, 62400, Note_on_c, 0, 70, 120
2, 62400, Note_on_c, 0, 67, 120
2, 62400, Note_on_c, 0, 64, 120
2, 62400, Note_on_c, 0, 58, 120
2, 62588, Note_off_c, 0, 70, 100
2, 62588, Note_off_c, 0, 67, 100
2, 62588, Note_off_c, 0, 64, 100
2, 62588, Note_off_c, 0, 58, 100
2, 62592, Note_on_c, 0, 76, 120
2, 62592, Note_on_c, 0, 70, 120
2, 62592, Note_on_c, 0, 67, 120
2, 62592, Note_on_c, 0, 64, 120
2, 62972, Note_off_c, 0, 76, 100
2, 62972, Note_off_c, 0, 70, 100
2, 62972, Note_off_c, 0, 67, 100
2, 62972, Note_off_c, 0, 64, 100
2, 63168, Note_on_c, 0, 82, 120
2, 63168, Note_on_c, 0, 79, 120
2, 63168, Note_on_c, 0, 76, 120
2, 63168, Note_on_c, 0, 70, 120
2, 63356, Note_off_c, 0, 82, 100
2, 63356, Note_off_c, 0, 79, 100
2, 63356, Note_off_c, 0, 76, 100
2, 63356, Note_off_c, 0, 70, 100
2, 63360, Note_on_c, 0, 80, 120
2, 63360, Note_on_c, 0, 77, 120
2, 63360, Note_on_c, 0, 72, 120
2, 63360, Note_on_c, 0, 68, 120
2, 63740, Note_off_c, 0, 80, 100
2, 63740, Note_off_c, 0, 77, 100
2, 63740, Note_off_c, 0, 72, 100
2, 63740, Note_off_c, 0, 68, 100
2, 63936, Note_on_c, 0, 84, 120
2, 63936, Note_on_c, 0, 80, 120
2, 63936, Note_on_c, 0, 77, 120
2, 63936, Note_on_c, 0, 72, 120
2, 64124, Note_off_c, 0, 84, 100
2, 64124, Note_off_c, 0, 80, 100
2, 64124, Note_off_c, 0, 77, 100
2, 64124, Note_off_c, 0, 72, 100
2, 64128, Note_on_c, 0, 84, 120
2, 64128, Note_on_c, 0, 81, 120
2, 64128, Note_on_c, 0, 75, 120
2, 64128, Note_on_c, 0, 72, 120
2, 64508, Note_off_c, 0, 84, 100
2, 64508, Note_off_c, 0, 81, 100
2, 64508, Note_off_c, 0, 75, 100
2, 64508, Note_off_c, 0, 72, 100
2, 64704, Note_on_c, 0, 72, 120
2, 64704, Note_on_c, 0, 69, 120
2, 64704, Note_on_c, 0, 63, 120
2, 64704, Note_on_c, 0, 60, 120
2, 64892, Note_off_c, 0, 72, 100
2, 64892, Note_off_c, 0, 69, 100
2, 64892, Note_off_c, 0, 63, 100
2, 64892, Note_off_c, 0, 60, 100
2, 64896, Note_on_c, 0, 59, 110
2, 64944, Note_on_c, 0, 62, 110
2, 64988, Note_off_c, 0, 59, 100
2, 64992, Note_on_c, 0, 67, 110
2, 65036, Note_off_c, 0, 62, 100
2, 65040, Note_on_c, 0, 71, 110
2, 65084, Note_off_c, 0, 67, 100
2, 65088, Note_on_c, 0, 72, 110
2, 65132, Note_off_c, 0, 71, 100
2, 65136, Note_on_c, 0, 71, 110
2, 65180, Note_off_c, 0, 72, 100
2, 65184, Note_on_c, 0, 70, 110
2, 65228, Note_off_c, 0, 71, 100
2, 65232, Note_on_c, 0, 71, 110
2, 65276, Note_off_c, 0, 70, 100
2, 65280, Note_on_c, 0, 65, 110
2, 65324, Note_off_c, 0, 71, 100
2, 65328, Note_on_c, 0, 71, 110
2, 65372, Note_off_c, 0, 65, 100
2, 65376, Note_on_c, 0, 74, 110
2, 65420, Note_off_c, 0, 71, 100
2, 65424, Note_on_c, 0, 77, 110
2, 65468, Note_off_c, 0, 74, 100
2, 65472, Note_on_c, 0, 79, 110
2, 65516, Note_off_c, 0, 77, 100
2, 65520, Note_on_c, 0, 77, 110
2, 65564, Note_off_c, 0, 79, 100
2, 65568, Note_on_c, 0, 76, 110
2, 65612, Note_off_c, 0, 77, 100
2, 65616, Note_on_c, 0, 77, 110
2, 65660, Note_off_c, 0, 76, 100
2, 65664, Note_on_c, 0, 63, 110
2, 65708, Note_off_c, 0, 77, 100
2, 65712, Note_on_c, 0, 67, 110
2, 65756, Note_off_c, 0, 63, 100
2, 65760, Note_on_c, 0, 72, 110
2, 65804, Note_off_c, 0, 67, 100
2, 65808, Note_on_c, 0, 75, 110
2, 65852, Note_off_c, 0, 72, 100
2, 65856, Note_on_c, 0, 77, 110
2, 65900, Note_off_c, 0, 75, 100
2, 65904, Note_on_c, 0, 75, 110
2, 65948, Note_off_c, 0, 77, 100
2, 65952, Note_on_c, 0, 74, 110
2, 65996, Note_off_c, 0, 75, 100
2, 66000, Note_on_c, 0, 75, 110
2, 66044, Note_off_c, 0, 74, 100
2, 66048, Note_on_c, 0, 72, 110
2, 66092, Note_off_c, 0, 75, 100
2, 66096, Note_on_c, 0, 75, 110
2, 66140, Note_off_c, 0, 72, 100
2, 66144, Note_on_c, 0, 79, 110
2, 66188, Note_off_c, 0, 75, 100
2, 66192, Note_on_c, 0, 84, 110
2, 66236, Note_off_c, 0, 79, 100
2, 66240, Note_on_c, 0, 86, 110
2, 66284, Note_off_c, 0, 84, 100
2, 66288, Note_on_c, 0, 84, 110
2, 66332, Note_off_c, 0, 86, 100
2, 66336, Note_on_c, 0, 83, 110
2, 66380, Note_off_c, 0, 84, 100
2, 66384, Note_on_c, 0, 84, 110
2, 66428, Note_off_c, 0, 83, 100
2, 66432, Note_on_c, 0, 71, 110
2, 66476, Note_off_c, 0, 84, 100
2, 66480, Note_on_c, 0, 74, 110
2, 66524, Note_off_c, 0, 71, 100
2, 66528, Note_on_c, 0, 79, 110
2, 66572, Note_off_c, 0, 74, 100
2, 66576, Note_on_c, 0, 83, 110
2, 66620, Note_off_c, 0, 79, 100
2, 66624, Note_on_c, 0, 84, 110
2, 66668, Note_off_c, 0, 83, 100
2, 66672, Note_on_c, 0, 83, 110
2, 66716, Note_off_c, 0, 84, 100
2, 66720, Note_on_c, 0, 82, 110
2, 66764, Note_off_c, 0, 83, 100
2, 66768, Note_on_c, 0, 83, 110
2, 66812, Note_off_c, 0, 82, 100
2, 66816, Note_on_c, 0, 77, 110
2, 66860, Note_off_c, 0, 83, 100
2, 66864, Note_on_c, 0, 83, 110
2, 66908, Note_off_c, 0, 77, 100
2, 66912, Note_on_c, 0, 86, 110
2, 66956, Note_off_c, 0, 83, 100
2, 66960, Note_on_c, 0, 89, 110
2, 67004, Note_off_c, 0, 86, 100
2, 67008, Note_on_c, 0, 91, 110
2, 67052, Note_off_c, 0, 89, 100
2, 67056, Note_on_c, 0, 89, 110
2, 67100, Note_off_c, 0, 91, 100
2, 67104, Note_on_c, 0, 88, 110
2, 67148, Note_off_c, 0, 89, 100
2, 67152, Note_on_c, 0, 89, 110
2, 67196, Note_off_c, 0, 88, 100
2, 67200, Note_on_c, 0, 75, 110
2, 67244, Note_off_c, 0, 89, 100
2, 67248, Note_on_c, 0, 79, 110
2, 67292, Note_off_c, 0, 75, 100
2, 67296, Note_on_c, 0, 84, 110
2, 67340, Note_off_c, 0, 79, 100
2, 67344, Note_on_c, 0, 87, 110
2, 67388, Note_off_c, 0, 84, 100
2, 67392, Note_on_c, 0, 89, 110
2, 67436, Note_off_c, 0, 87, 100
2, 67440, Note_on_c, 0, 87, 110
2, 67484, Note_off_c, 0, 89, 100
2, 67488, Note_on_c, 0, 86, 110
2, 67532, Note_off_c, 0, 87, 100
2, 67536, Note_on_c, 0, 87, 110
2, 67580, Note_off_c, 0, 86, 100
2, 67584, Note_on_c, 0, 72, 110
2, 67628, Note_off_c, 0, 87, 100
2, 67632, Note_on_c, 0, 75, 110
2, 67676, Note_off_c, 0, 72, 100
2, 67680, Note_on_c, 0, 79, 110
2, 67724, Note_off_c, 0, 75, 100
2, 67728, Note_on_c, 0, 84, 110
2, 67772, Note_off_c, 0, 79, 100
2, 67776, Note_on_c, 0, 86, 110
2, 67820, Note_off_c, 0, 84, 100
2, 67824, Note_on_c, 0, 84, 110
2, 67868, Note_off_c, 0, 86, 100
2, 67872, Note_on_c, 0, 83, 110
2, 67916, Note_off_c, 0, 84, 100
2, 67920, Note_on_c, 0, 84, 110
2, 67964, Note_off_c, 0, 83, 100
2, 67968, Note_on_c, 0, 83, 110
2, 68012, Note_off_c, 0, 84, 100
2, 68016, Note_on_c, 0, 86, 110
2, 68060, Note_off_c, 0, 83, 100
2, 68064, Note_on_c, 0, 84, 110
2, 68108, Note_off_c, 0, 86, 100
2, 68112, Note_on_c, 0, 83, 110
2, 68156, Note_off_c, 0, 84, 100
2, 68160, Note_on_c, 0, 80, 110
2, 68204, Note_off_c, 0, 83, 100
2, 68208, Note_on_c, 0, 79, 110
2, 68252, Note_off_c, 0, 80, 100
2, 68256, Note_on_c, 0, 77, 110
2, 68300, Note_off_c, 0, 79, 100
2, 68304, Note_on_c, 0, 75, 110
2, 68348, Note_off_c, 0, 77, 100
2, 68352, Note_on_c, 0, 74, 110
2, 68396, Note_off_c, 0, 75, 100
2, 68400, Note_on_c, 0, 72, 110
2, 68444, Note_off_c, 0, 74, 100
2, 68448, Note_on_c, 0, 71, 110
2, 68492, Note_off_c, 0, 72, 100
2, 68496, Note_on_c, 0, 68, 110
2, 68540, Note_off_c, 0, 71, 100
2, 68544, Note_on_c, 0, 67, 110
2, 68588, Note_off_c, 0, 68, 100
2, 68592, Note_on_c, 0, 65, 110
2, 68636, Note_off_c, 0, 67, 100
2, 68640, Note_on_c, 0, 63, 110
2, 68684, Note_off_c, 0, 65, 100
2, 68688, Note_on_c, 0, 62, 110
2, 68732, Note_off_c, 0, 63, 100
2, 68732, Note_off_c, 0, 62, 100
2, 68736, Note_on_c, 0, 60, 120
2, 68736, Note_on_c, 0, 55, 120
2, 68736, Note_on_c, 0, 51, 120
2, 69116, Note_off_c, 0, 60, 100
2, 69116, Note_off_c, 0, 55, 100
2, 69116, Note_off_c, 0, 51, 100
2, 69312, Note_on_c, 0, 75, 120
2, 69312, Note_on_c, 0, 72, 120
2, 69312, Note_on_c, 0, 67, 120
2, 69312, Note_on_c, 0, 63, 120
2, 69500, Note_off_c, 0, 75, 100
2, 69500, Note_off_c, 0, 72, 100
2, 69500, Note_off_c, 0, 67, 100
2, 69500, Note_off_c, 0, 63, 100
2, 69504, Note_on_c, 0, 79, 120
2, 69504, Note_on_c, 0, 75, 120
2, 69504, Note_on_c, 0, 72, 120
2, 69504, Note_on_c, 0, 67, 120
2, 69884, Note_off_c, 0, 79, 100
2, 69884, Note_off_c, 0, 75, 100
2, 69884, Note_off_c, 0, 72, 100
2, 69884, Note_off_c, 0, 67, 100
2, 70080, Note_on_c, 0, 84, 120
2, 70080, Note_on_c, 0, 79, 120
2, 70080, Note_on_c, 0, 75, 120
2, 70080, Note_on_c, 0, 72, 120
2, 70268, Note_off_c, 0, 84, 100
2, 70268, Note_off_c, 0, 79, 100
2, 70268, Note_off_c, 0, 75, 100
2, 70268, Note_off_c, 0, 72, 100
2, 70272, Note_on_c, 0, 60, 110
2, 70320, Note_on_c, 0, 64, 110
2, 70364, Note_off_c, 0, 60, 100
2, 70368, Note_on_c, 0, 67, 110
2, 70412, Note_off_c, 0, 64, 100
2, 70416, Note_on_c, 0, 72, 110
2, 70460, Note_off_c, 0, 67, 100
2, 70464, Note_on_c, 0, 73, 110
2, 70508, Note_off_c, 0, 72, 100
2, 70512, Note_on_c, 0, 72, 110
2, 70556, Note_off_c, 0, 73, 100
2, 70560, Note_on_c, 0, 71, 110
2, 70604, Note_off_c, 0, 72, 100
2, 70608, Note_on_c, 0, 72, 110
2, 70652, Note_off_c, 0, 71, 100
2, 70656, Note_on_c, 0, 64, 110
2, 70700, Note_off_c, 0, 72, 100
2, 70704, Note_on_c, 0, 67, 110
2, 70748, Note_off_c, 0, 64, 100
2, 70752, Note_on_c, 0, 72, 110
2, 70796, Note_off_c, 0, 67, 100
2, 70800, Note_on_c, 0, 76, 110
2, 70844, Note_off_c, 0, 72, 100
2, 70848, Note_on_c, 0, 77, 110
2, 70892, Note_off_c, 0, 76, 100
2, 70896, Note_on_c, 0, 76, 110
2, 70940, Note_off_c, 0, 77, 100
2, 70944, Note_on_c, 0, 75, 110
2, 70988, Note_off_c, 0, 76, 100
2, 70992, Note_on_c, 0, 76, 110
2, 71036, Note_off_c, 0, 75, 100
2, 71040, Note_on_c, 0, 67, 110
2, 71084, Note_off_c, 0, 76, 100
2, 71088, Note_on_c, 0, 72, 110
2, 71132, Note_off_c, 0, 67, 100
2, 71136, Note_on_c, 0, 76, 110
2, 71180, Note_off_c, 0, 72, 100
2, 71184, Note_on_c, 0, 79, 110
2, 71228, Note_off_c, 0, 76, 100
2, 71232, Note_on_c, 0, 80, 110
2, 71276, Note_off_c, 0, 79, 100
2, 71280, Note_on_c, 0, 79, 110
2, 71324, Note_off_c, 0, 80, 100
2, 71328, Note_on_c, 0, 78, 110
2, 71372, Note_off_c, 0, 79, 100
2, 71376, Note_on_c, 0, 79, 110
2, 71420, Note_off_c, 0, 78, 100
2, 71424, Note_on_c, 0, 72, 110
2, 71468, Note_off_c, 0, 79, 100
2, 71472, Note_on_c, 0, 76, 110
2, 71516, Note_off_c, 0, 72, 100
2, 71520, Note_on_c, 0, 79, 110
2, 71564, Note_off_c, 0, 76, 100
2, 71568, Note_on_c, 0, 84, 110
2, 71612, Note_off_c, 0, 79, 100
2, 71616, Note_on_c, 0, 85, 110
2, 71660, Note_off_c, 0, 84, 100
2, 71664, Note_on_c, 0, 84, 110
2, 71708, Note_off_c, 0, 85, 100
2, 71712, Note_on_c, 0, 83, 110
2, 71756, Note_off_c, 0, 84, 100
2, 71760, Note_on_c, 0, 84, 110
2, 71804, Note_off_c, 0, 83, 100
2, 71808, Note_on_c, 0, 72, 110
2, 71852, Note_off_c, 0, 84, 100
2, 71856, Note_on_c, 0, 77, 110
2, 71900, Note_off_c, 0, 72, 100
2, 71904, Note_on_c, 0, 80, 110
2, 71948, Note_off_c, 0, 77, 100
2, 71952, Note_on_c, 0, 84, 110
2, 71996, Note_off_c, 0, 80, 100
2, 72000, Note_on_c, 0, 86, 110
2, 72044, Note_off_c, 0, 84, 100
2, 72048, Note_on_c, 0, 84, 110
2, 72092, Note_off_c, 0, 86, 100
2, 72096, Note_on_c, 0, 83, 110
2, 72140, Note_off_c, 0, 84, 100
2, 72144, Note_on_c, 0, 84, 110
2, 72188, Note_off_c, 0, 83, 100
2, 72192, Note_on_c, 0, 68, 110
2, 72236, Note_off_c, 0, 84, 100
2, 72240, Note_on_c, 0, 72, 110
2, 72284, Note_off_c, 0, 68, 100
2, 72288, Note_on_c, 0, 77, 110
2, 72332, Note_off_c, 0, 72, 100
2, 72336, Note_on_c, 0, 80, 110
2, 72380, Note_off_c, 0, 77, 100
2, 72384, Note_on_c, 0, 82, 110
2, 72428, Note_off_c, 0, 80, 100
2, 72432, Note_on_c, 0, 80, 110
2, 72476, Note_off_c, 0, 82, 100
2, 72480, Note_on_c, 0, 79, 110
2, 72524, Note_off_c, 0, 80, 100
2, 72528, Note_on_c, 0, 80, 110
2, 72572, Note_off_c, 0, 79, 100
2, 72576, Note_on_c, 0, 65, 110
2, 72620, Note_off_c, 0, 80, 100
2, 72624, Note_on_c, 0, 71, 110
2, 72668, Note_off_c, 0, 65, 100
2, 72672, Note_on_c, 0, 74, 110
2, 72716, Note_off_c, 0, 71, 100
2, 72720, Note_on_c, 0, 77, 110
2, 72764, Note_off_c, 0, 74, 100
2, 72768, Note_on_c, 0, 79, 110
2, 72812, Note_off_c, 0, 77, 100
2, 72816, Note_on_c, 0, 77, 110
2, 72860, Note_off_c, 0, 79, 100
2, 72864, Note_on_c, 0, 76, 110
2, 72908, Note_off_c, 0, 77, 100
2, 72912, Note_on_c, 0, 77, 110
2, 72956, Note_off_c, 0, 76, 100
2, 72960, Note_on_c, 0, 62, 110
2, 73004, Note_off_c, 0, 77, 100
2, 73008, Note_on_c, 0, 67, 110
2, 73052, Note_off_c, 0, 62, 100
2, 73056, Note_on_c, 0, 71, 110
2, 73100, Note_off_c, 0, 67, 100
2, 73104, Note_on_c, 0, 74, 110
2, 73148, Note_off_c, 0, 71, 100
2, 73152, Note_on_c, 0, 75, 110
2, 73196, Note_off_c, 0, 74, 100
2, 73200, Note_on_c, 0, 74, 110
2, 73244, Note_off_c, 0, 75, 100
2, 73248, Note_on_c, 0, 73, 110
2, 73292, Note_off_c, 0, 74, 100
2, 73296, Note_on_c, 0, 74, 110
2, 73340, Note_off_c, 0, 73, 100
2, 73388, Note_off_c, 0, 74, 100
2, 73392, Note_on_c, 0, 67, 110
2, 73440, Note_on_c, 0, 72, 110
2, 73484, Note_off_c, 0, 67, 100
2, 73488, Note_on_c, 0, 75, 110
2, 73532, Note_off_c, 0, 72, 100
2, 73580, Note_off_c, 0, 75, 100
2, 73584, Note_on_c, 0, 68, 110
2, 73632, Note_on_c, 0, 74, 110
2, 73676, Note_off_c, 0, 68, 100
2, 73680, Note_on_c, 0, 77, 110
2, 73724, Note_off_c, 0, 74, 100
2, 73772, Note_off_c, 0, 77, 100
2, 73776, Note_on_c, 0, 67, 110
2, 73824, Note_on_c, 0, 72, 110
2, 73868, Note_off_c, 0, 67, 100
2, 73872, Note_on_c, 0, 75, 110
2, 73916, Note_off_c, 0, 72, 100
2, 73964, Note_off_c, 0, 75, 100
2, 73968, Note_on_c, 0, 65, 110
2, 74016, Note_on_c, 0, 71, 110
2, 74060, Note_off_c, 0, 65, 100
2, 74064, Note_on_c, 0, 74, 110
2, 74108, Note_off_c, 0, 71, 100
2, 74156, Note_off_c, 0, 74, 100
2, 74160, Note_on_c, 0, 72, 110
2, 74208, Note_on_c, 0, 71, 110
2, 74252, Note_off_c, 0, 72, 100
2, 74256, Note_on_c, 0, 72, 110
2, 74300, Note_off_c, 0, 71, 100
2, 74304, Note_on_c, 0, 71, 110
2, 74348, Note_off_c, 0, 72, 100
2, 74352, Note_on_c, 0, 72, 110
2, 74396, Note_off_c, 0, 71, 100
2, 74400, Note_on_c, 0, 67, 110
2, 74444, Note_off_c, 0, 72, 100
2, 74448, Note_on_c, 0, 63, 110
2, 74492, Note_off_c, 0, 67, 100
2, 74492, Note_off_c, 0, 63, 100
2, 74496, Note_on_c, 0, 60, 110
2, 74684, Note_off_c, 0, 60, 100
2, 74880, Note_on_c, 0, 64, 120
2, 74880, Note_on_c, 0, 58, 120
2, 74880, Note_on_c, 0, 55, 120
2, 75260, Note_off_c, 0, 64, 100
2, 75260, Note_off_c, 0, 58, 100
2, 75260, Note_off_c, 0, 55, 100
2, 75456, Note_on_c, 0, 70, 120
2, 75456, Note_on_c, 0, 67, 120
2, 75456, Note_on_c, 0, 64, 120
2, 75456, Note_on_c, 0, 58, 120
2, 75644, Note_off_c, 0, 70, 100
2, 75644, Note_off_c, 0, 67, 100
2, 75644, Note_off_c, 0, 64, 100
2, 75644, Note_off_c, 0, 58, 100
2, 75648, Note_on_c, 0, 76, 120
2, 75648, Note_on_c, 0, 70, 120
2, 75648, Note_on_c, 0, 67, 120
2, 75648, Note_on_c, 0, 64, 120
2, 76028, Note_off_c, 0, 76, 100
2, 76028, Note_off_c, 0, 70, 100
2, 76028, Note_off_c, 0, 67, 100
2, 76028, Note_off_c, 0, 64, 100
2, 76224, Note_on_c, 0, 82, 120
2, 76224, Note_on_c, 0, 79, 120
2, 76224, Note_on_c, 0, 76, 120
2, 76224, Note_on_c, 0, 70, 120
2, 76412, Note_off_c, 0, 82, 100
2, 76412, Note_off_c, 0, 79, 100
2, 76412, Note_off_c, 0, 76, 100
2, 76412, Note_off_c, 0, 70, 100
2, 76416, Note_on_c, 0, 80, 120
2, 76416, Note_on_c, 0, 77, 120
2, 76416, Note_on_c, 0, 72, 120
2, 76416, Note_on_c, 0, 68, 120
2, 76796, Note_off_c, 0, 80, 100
2, 76796, Note_off_c, 0, 77, 100
2, 76796, Note_off_c, 0, 72, 100
2, 76796, Note_off_c, 0, 68, 100
2, 76992, Note_on_c, 0, 84, 120
2, 76992, Note_on_c, 0, 80, 120
2, 76992, Note_on_c, 0, 77, 120
2, 76992, Note_on_c, 0, 72, 120
2, 77180, Note_off_c, 0, 84, 100
2, 77180, Note_off_c, 0, 80, 100
2, 77180, Note_off_c, 0, 77, 100
2, 77180, Note_off_c, 0, 72, 100
2, 77184, Note_on_c, 0, 84, 120
2, 77184, Note_on_c, 0, 81, 120
2, 77184, Note_on_c, 0, 75, 120
2, 77184, Note_on_c, 0, 72, 120
2, 77564, Note_off_c, 0, 84, 100
2, 77564, Note_off_c, 0, 81, 100
2, 77564, Note_off_c, 0, 75, 100
2, 77564, Note_off_c, 0, 72, 100
2, 77760, Note_on_c, 0, 72, 120
2, 77760, Note_on_c, 0, 69, 120
2, 77760, Note_on_c, 0, 63, 120
2, 77760, Note_on_c, 0, 60, 120
2, 77948, Note_off_c, 0, 72, 100
2, 77948, Note_off_c, 0, 69, 100
2, 77948, Note_off_c, 0, 63, 100
2, 77948, Note_off_c, 0, 60, 100
2, 77952, Note_on_c, 0, 59, 110
2, 78000, Note_on_c, 0, 62, 110
2, 78044, Note_off_c, 0, 59, 100
2, 78048, Note_on_c, 0, 67, 110
2, 78092, Note_off_c, 0, 62, 100
2, 78096, Note_on_c, 0, 71, 110
2, 78140, Note_off_c, 0, 67, 100
2, 78144, Note_on_c, 0, 72, 110
2, 78188, Note_off_c, 0, 71, 100
2, 78192, Note_on_c, 0, 71, 110
2, 78236, Note_off_c, 0, 72, 100
2, 78240, Note_on_c, 0, 70, 110
2, 78284, Note_off_c, 0, 71, 100
2, 78288, Note_on_c, 0, 71, 110
2, 78332, Note_off_c, 0, 70, 100
2, 78336, Note_on_c, 0, 65, 110
2, 78380, Note_off_c, 0, 71, 100
2, 78384, Note_on_c, 0, 71, 110
2, 78428, Note_off_c, 0, 65, 100
2, 78432, Note_on_c, 0, 74, 110
2, 78476, Note_off_c, 0, 71, 100
2, 78480, Note_on_c, 0, 77, 110
2, 78524, Note_off_c, 0, 74, 100
2, 78528, Note_on_c, 0, 79, 110
2, 78572, Note_off_c, 0, 77, 100
2, 78576, Note_on_c, 0, 77, 110
2, 78620, Note_off_c, 0, 79, 100
2, 78624, Note_on_c, 0, 76, 110
2, 78668, Note_off_c, 0, 77, 100
2, 78672, Note_on_c, 0, 77, 110
2, 78716, Note_off_c, 0, 76, 100
2, 78720, Note_on_c, 0, 63, 110
2, 78764, Note_off_c, 0, 77, 100
2, 78768, Note_on_c, 0, 67, 110
2, 78812, Note_off_c, 0, 63, 100
2, 78816, Note_on_c, 0, 72, 110
2, 78860, Note_off_c, 0, 67, 100
2, 78864, Note_on_c, 0, 75, 110
2, 78908, Note_off_c, 0, 72, 100
2, 78912, Note_on_c, 0, 77, 110
2, 78956, Note_off_c, 0, 75, 100
2, 78960, Note_on_c, 0, 75, 110
2, 79004, Note_off_c, 0, 77, 100
2, 79008, Note_on_c, 0, 74, 110
2, 79052, Note_off_c, 0, 75, 100
2, 79056, Note_on_c, 0, 75, 110
2, 79100, Note_off_c, 0, 74, 100
2, 79104, Note_on_c, 0, 72, 110
2, 79148, Note_off_c, 0, 75, 100
2, 79152, Note_on_c, 0, 75, 110
2, 79196, Note_off_c, 0, 72, 100
2, 79200, Note_on_c, 0, 79, 110
2, 79244, Note_off_c, 0, 75, 100
2, 79248, Note_on_c, 0, 84, 110
2, 79292, Note_off_c, 0, 79, 100
2, 79296, Note_on_c, 0, 86, 110
2, 79340, Note_off_c, 0, 84, 100
2, 79344, Note_on_c, 0, 84, 110
2, 79388, Note_off_c, 0, 86, 100
2, 79392, Note_on_c, 0, 83, 110
2, 79436, Note_off_c, 0, 84, 100
2, 79440, Note_on_c, 0, 84, 110
2, 79484, Note_off_c, 0, 83, 100
2, 79488, Note_on_c, 0, 71, 110
2, 79532, Note_off_c, 0, 84, 100
2, 79536, Note_on_c, 0, 74, 110
2, 79580, Note_off_c, 0, 71, 100
2, 79584, Note_on_c, 0, 79, 110
2, 79628, Note_off_c, 0, 74, 100
2, 79632, Note_on_c, 0, 83, 110
2, 79676, Note_off_c, 0, 79, 100
2, 79680, Note_on_c, 0, 84, 110
2, 79724, Note_off_c, 0, 83, 100
2, 79728, Note_on_c, 0, 83, 110
2, 79772, Note_off_c, 0, 84, 100
2, 79776, Note_on_c, 0, 82, 110
2, 79820, Note_off_c, 0, 83, 100
2, 79824, Note_on_c, 0, 83, 110
2, 79868, Note_off_c, 0, 82, 100
2, 79872, Note_on_c, 0, 77, 110
2, 79916, Note_off_c, 0, 83, 100
2, 79920, Note_on_c, 0, 83, 110
2, 79964, Note_off_c, 0, 77, 100
2, 79968, Note_on_c, 0, 86, 110
2, 80012, Note_off_c, 0, 83, 100
2, 80016, Note_on_c, 0, 89, 110
2, 80060, Note_off_c, 0, 86, 100
2, 80064, Note_on_c, 0, 91, 110
2, 80108, Note_off_c, 0, 89, 100
2, 80112, Note_on_c, 0, 89, 110
2, 80156, Note_off_c, 0, 91, 100
2, 80160, Note_on_c, 0, 88, 110
2, 80204, Note_off_c, 0, 89, 100
2, 80208, Note_on_c, 0, 89, 110
2, 80252, Note_off_c, 0, 88, 100
2, 80256, Note_on_c, 0, 75, 110
2, 80300, Note_off_c, 0, 89, 100
2, 80304, Note_on_c, 0, 79, 110
2, 80348, Note_off_c, 0, 75, 100
2, 80352, Note_on_c, 0, 84, 110
2, 80396, Note_off_c, 0, 79, 100
2, 80400, Note_on_c, 0, 87, 110
2, 80444, Note_off_c, 0, 84, 100
2, 80448, Note_on_c, 0, 89, 110
2, 80492, Note_off_c, 0, 87, 100
2, 80496, Note_on_c, 0, 87, 110
2, 80540, Note_off_c, 0, 89, 100
2, 80544, Note_on_c, 0, 86, 110
2, 80588, Note_off_c, 0, 87, 100
2, 80592, Note_on_c, 0, 87, 110
2, 80636, Note_off_c, 0, 86, 100
2, 80640, Note_on_c, 0, 72, 110
2, 80684, Note_off_c, 0, 87, 100
2, 80688, Note_on_c, 0, 75, 110
2, 80732, Note_off_c, 0, 72, 100
2, 80736, Note_on_c, 0, 79, 110
2, 80780, Note_off_c, 0, 75, 100
2, 80784, Note_on_c, 0, 84, 110
2, 80828, Note_off_c, 0, 79, 100
2, 80832, Note_on_c, 0, 86, 110
2, 80876, Note_off_c, 0, 84, 100
2, 80880, Note_on_c, 0, 84, 110
2, 80924, Note_off_c, 0, 86, 100
2, 80928, Note_on_c, 0, 83, 110
2, 80972, Note_off_c, 0, 84, 100
2, 80976, Note_on_c, 0, 84, 110
2, 81020, Note_off_c, 0, 83, 100
2, 81024, Note_on_c, 0, 83, 110
2, 81068, Note_off_c, 0, 84, 100
2, 81072, Note_on_c, 0, 86, 110
2, 81116, Note_off_c, 0, 83, 100
2, 81120, Note_on_c, 0, 84, 110
2, 81164, Note_off_c, 0, 86, 100
2, 81168, Note_on_c, 0, 83, 110
2, 81212, Note_off_c, 0, 84, 100
2, 81216, Note_on_c, 0, 80, 110
2, 81260, Note_off_c, 0, 83, 100
2, 81264, Note_on_c, 0, 79, 110
2, 81308, Note_off_c, 0, 80, 100
2, 81312, Note_on_c, 0, 77, 110
2, 81356, Note_off_c, 0, 79, 100
2, 81360, Note_on_c, 0, 75, 110
2, 81404, Note_off_c, 0, 77, 100
2, 81408, Note_on_c, 0, 74, 110
2, 81452, Note_off_c, 0, 75, 100
2, 81456, Note_on_c, 0, 72, 110
2, 81500, Note_off_c, 0, 74, 100
2, 81504, Note_on_c, 0, 71, 110
2, 81548, Note_off_c, 0, 72, 100
2, 81552, Note_on_c, 0, 68, 110
2, 81596, Note_off_c, 0, 71, 100
2, 81600, Note_on_c, 0, 67, 110
2, 81644, Note_off_c, 0, 68, 100
2, 81648, Note_on_c, 0, 65, 110
2, 81692, Note_off_c, 0, 67, 100
2, 81696, Note_on_c, 0, 63, 110
2, 81740, Note_off_c, 0, 65, 100
2, 81744, Note_on_c, 0, 62, 110
2, 81788, Note_off_c, 0, 63, 100
2, 81788, Note_off_c, 0, 62, 100
2, 81792, Note_on_c, 0, 60, 120
2, 81792, Note_on_c, 0, 55, 120
2, 81792, Note_on_c, 0, 51, 120
2, 82172, Note_off_c, 0, 60, 100
2, 82172, Note_off_c, 0, 55, 100
2, 82172, Note_off_c, 0, 51, 100
2, 82368, Note_on_c, 0, 75, 120
2, 82368, Note_on_c, 0, 72, 120
2, 82368, Note_on_c, 0, 67, 120
2, 82368, Note_on_c, 0, 63, 120
2, 82556, Note_off_c, 0, 75, 100
2, 82556, Note_off_c, 0, 72, 100
2, 82556, Note_off_c, 0, 67, 100
2, 82556, Note_off_c, 0, 63, 100
2, 82560, Note_on_c, 0, 79, 120
2, 82560, Note_on_c, 0, 75, 120
2, 82560, Note_on_c, 0, 72, 120
2, 82560, Note_on_c, 0, 67, 120
2, 82940, Note_off_c, 0, 79, 100
2, 82940, Note_off_c, 0, 75, 100
2, 82940, Note_off_c, 0, 72, 100
2, 82940, Note_off_c, 0, 67, 100
2, 83136, Note_on_c, 0, 84, 120
2, 83136, Note_on_c, 0, 79, 120
2, 83136, Note_on_c, 0, 75, 120
2, 83136, Note_on_c, 0, 72, 120
2, 83324, Note_off_c, 0, 84, 100
2, 83324, Note_off_c, 0, 79, 100
2, 83324, Note_off_c, 0, 75, 100
2, 83324, Note_off_c, 0, 72, 100
2, 83328, Note_on_c, 0, 60, 110
2, 83376, Note_on_c, 0, 64, 110
2, 83420, Note_off_c, 0, 60, 100
2, 83424, Note_on_c, 0, 67, 110
2, 83468, Note_off_c, 0, 64, 100
2, 83472, Note_on_c, 0, 72, 110
2, 83516, Note_off_c, 0, 67, 100
2, 83520, Note_on_c, 0, 73, 110
2, 83564, Note_off_c, 0, 72, 100
2, 83568, Note_on_c, 0, 72, 110
2, 83612, Note_off_c, 0, 73, 100
2, 83616, Note_on_c, 0, 71, 110
2, 83660, Note_off_c, 0, 72, 100
2, 83664, Note_on_c, 0, 72, 110
2, 83708, Note_off_c, 0, 71, 100
2, 83712, Note_on_c, 0, 64, 110
2, 83756, Note_off_c, 0, 72, 100
2, 83760, Note_on_c, 0, 67, 110
2, 83804, Note_off_c, 0, 64, 100
2, 83808, Note_on_c, 0, 72, 110
2, 83852, Note_off_c, 0, 67, 100
2, 83856, Note_on_c, 0, 76, 110
2, 83900, Note_off_c, 0, 72, 100
2, 83904, Note_on_c, 0, 77, 110
2, 83948, Note_off_c, 0, 76, 100
2, 83952, Note_on_c, 0, 76, 110
2, 83996, Note_off_c, 0, 77, 100
2, 84000, Note_on_c, 0, 75, 110
2, 84044, Note_off_c, 0, 76, 100
2, 84048, Note_on_c, 0, 76, 110
2, 84092, Note_off_c, 0, 75, 100
2, 84096, Note_on_c, 0, 67, 110
2, 84140, Note_off_c, 0, 76, 100
2, 84144, Note_on_c, 0, 72, 110
2, 84188, Note_off_c, 0, 67, 100
2, 84192, Note_on_c, 0, 76, 110
2, 84236, Note_off_c, 0, 72, 100
2, 84240, Note_on_c, 0, 79, 110
2, 84284, Note_off_c, 0, 76, 100
2, 84288, Note_on_c, 0, 80, 110
2, 84332, Note_off_c, 0, 79, 100
2, 84336, Note_on_c, 0, 79, 110
2, 84380, Note_off_c, 0, 80, 100
2, 84384, Note_on_c, 0, 78, 110
2, 84428, Note_off_c, 0, 79, 100
2, 84432, Note_on_c, 0, 79, 110
2, 84476, Note_off_c, 0, 78, 100
2, 84480, Note_on_c, 0, 72, 110
2, 84524, Note_off_c, 0, 79, 100
2, 84528, Note_on_c, 0, 76, 110
2, 84572, Note_off_c, 0, 72, 100
2, 84576, Note_on_c, 0, 79, 110
2, 84620, Note_off_c, 0, 76, 100
2, 84624, Note_on_c, 0, 84, 110
2, 84668, Note_off_c, 0, 79, 100
2, 84672, Note_on_c, 0, 85, 110
2, 84716, Note_off_c, 0, 84, 100
2, 84720, Note_on_c, 0, 84, 110
2, 84764, Note_off_c, 0, 85, 100
2, 84768, Note_on_c, 0, 83, 110
2, 84812, Note_off_c, 0, 84, 100
2, 84816, Note_on_c, 0, 84, 110
2, 84860, Note_off_c, 0, 83, 100
2, 84864, Note_on_c, 0, 72, 110
2, 84908, Note_off_c, 0, 84, 100
2, 84912, Note_on_c, 0, 77, 110
2, 84956, Note_off_c, 0, 72, 100
2, 84960, Note_on_c, 0, 80, 110
2, 85004, Note_off_c, 0, 77, 100
2, 85008, Note_on_c, 0, 84, 110
2, 85052, Note_off_c, 0, 80, 100
2, 85056, Note_on_c, 0, 86, 110
2, 85100, Note_off_c, 0, 84, 100
2, 85104, Note_on_c, 0, 84, 110
2, 85148, Note_off_c, 0, 86, 100
2, 85152, Note_on_c, 0, 83, 110
2, 85196, Note_off_c, 0, 84, 100
2, 85200, Note_on_c, 0, 84, 110
2, 85244, Note_off_c, 0, 83, 100
2, 85248, Note_on_c, 0, 68, 110
2, 85292, Note_off_c, 0, 84, 100
2, 85296, Note_on_c, 0, 72, 110
2, 85340, Note_off_c, 0, 68, 100
2, 85344, Note_on_c, 0, 77, 110
2, 85388, Note_off_c, 0, 72, 100
2, 85392, Note_on_c, 0, 80, 110
2, 85436, Note_off_c, 0, 77, 100
2, 85440, Note_on_c, 0, 82, 110
2, 85484, Note_off_c, 0, 80, 100
2, 85488, Note_on_c, 0, 80, 110
2, 85532, Note_off_c, 0, 82, 100
2, 85536, Note_on_c, 0, 79, 110
2, 85580, Note_off_c, 0, 80, 100
2, 85584, Note_on_c, 0, 80, 110
2, 85628, Note_off_c, 0, 79, 100
2, 85632, Note_on_c, 0, 65, 110
2, 85676, Note_off_c, 0, 80, 100
2, 85680, Note_on_c, 0, 71, 110
2, 85724, Note_off_c, 0, 65, 100
2, 85728, Note_on_c, 0, 74, 110
2, 85772, Note_off_c, 0, 71, 100
2, 85776, Note_on_c, 0, 77, 110
2, 85820, Note_off_c, 0, 74, 100
2, 85824, Note_on_c, 0, 79, 110
2, 85868, Note_off_c, 0, 77, 100
2, 85872, Note_on_c, 0, 77, 110
2, 85916, Note_off_c, 0, 79, 100
2, 85920, Note_on_c, 0, 76, 110
2, 85964, Note_off_c, 0, 77, 100
2, 85968, Note_on_c, 0, 77, 110
2, 86012, Note_off_c, 0, 76, 100
2, 86016, Note_on_c, 0, 62, 110
2, 86060, Note_off_c, 0, 77, 100
2, 86064, Note_on_c, 0, 67, 110
2, 86108, Note_off_c, 0, 62, 100
2, 86112, Note_on_c, 0, 71, 110
2, 86156, Note_off_c, 0, 67, 100
2, 86160, Note_on_c, 0, 74, 110
2, 86204, Note_off_c, 0, 71, 100
2, 86208, Note_on_c, 0, 75, 110
2, 86252, Note_off_c, 0, 74, 100
2, 86256, Note_on_c, 0, 74, 110
2, 86300, Note_off_c, 0, 75, 100
2, 86304, Note_on_c, 0, 73, 110
2, 86348, Note_off_c, 0, 74, 100
2, 86352, Note_on_c, 0, 74, 110
2, 86396, Note_off_c, 0, 73, 100
2, 86444, Note_off_c, 0, 74, 100
2, 86448, Note_on_c, 0, 67, 110
2, 86496, Note_on_c, 0, 72, 110
2, 86540, Note_off_c, 0, 67, 100
2, 86544, Note_on_c, 0, 75, 110
2, 86588, Note_off_c, 0, 72, 100
2, 86636, Note_off_c, 0, 75, 100
2, 86640, Note_on_c, 0, 68, 110
2, 86688, Note_on_c, 0, 74, 110
2, 86732, Note_off_c, 0, 68, 100
2, 86736, Note_on_c, 0, 77, 110
2, 86780, Note_off_c, 0, 74, 100
2, 86828, Note_off_c, 0, 77, 100
2, 86832, Note_on_c, 0, 67, 110
2, 86880, Note_on_c, 0, 72, 110
2, 86924, Note_off_c, 0, 67, 100
2, 86928, Note_on_c, 0, 75, 110
2, 86972, Note_off_c, 0, 72, 100
2, 87020, Note_off_c, 0, 75, 100
2, 87024, Note_on_c, 0, 65, 110
2, 87072, Note_on_c, 0, 71, 110
2, 87116, Note_off_c, 0, 65, 100
2, 87120, Note_on_c, 0, 74, 110
2, 87164, Note_off_c, 0, 71, 100
2, 87168, Note_on_c, 0, 60, 110
2, 87212, Note_off_c, 0, 74, 100
2, 87216, Note_on_c, 0, 63, 110
2, 87260, Note_off_c, 0, 60, 100
2, 87264, Note_on_c, 0, 67, 110
2, 87308, Note_off_c, 0, 63, 100
2, 87312, Note_on_c, 0, 72, 110
2, 87356, Note_off_c, 0, 67, 100
2, 87360, Note_on_c, 0, 74, 110
2, 87404, Note_off_c, 0, 72, 100
2, 87408, Note_on_c, 0, 72, 110
2, 87452, Note_off_c, 0, 74, 100
2, 87456, Note_on_c, 0, 71, 110
2, 87500, Note_off_c, 0, 72, 100
2, 87504, Note_on_c, 0, 72, 110
2, 87548, Note_off_c, 0, 71, 100
2, 87552, Note_on_c, 0, 72, 110
2, 87596, Note_off_c, 0, 72, 100
2, 87600, Note_on_c, 0, 77, 110
2, 87644, Note_off_c, 0, 72, 100
2, 87648, Note_on_c, 0, 80, 110
2, 87692, Note_off_c, 0, 77, 100
2, 87696, Note_on_c, 0, 84, 110
2, 87740, Note_off_c, 0, 80, 100
2, 87744, Note_on_c, 0, 86, 110
2, 87788, Note_off_c, 0, 84, 100
2, 87792, Note_on_c, 0, 84, 110
2, 87836, Note_off_c, 0, 86, 100
2, 87840, Note_on_c, 0, 83, 110
2, 87884, Note_off_c, 0, 84, 100
2, 87888, Note_on_c, 0, 84, 110
2, 87932, Note_off_c, 0, 83, 100
2, 87936, Note_on_c, 0, 68, 110
2, 87980, Note_off_c, 0, 84, 100
2, 87984, Note_on_c, 0, 72, 110
2, 88028, Note_off_c, 0, 68, 100
2, 88032, Note_on_c, 0, 77, 110
2, 88076, Note_off_c, 0, 72, 100
2, 88080, Note_on_c, 0, 80, 110
2, 88124, Note_off_c, 0, 77, 100
2, 88128, Note_on_c, 0, 82, 110
2, 88172, Note_off_c, 0, 80, 100
2, 88176, Note_on_c, 0, 80, 110
2, 88220, Note_off_c, 0, 82, 100
2, 88224, Note_on_c, 0, 79, 110
2, 88268, Note_off_c, 0, 80, 100
2, 88272, Note_on_c, 0, 80, 110
2, 88316, Note_off_c, 0, 79, 100
2, 88320, Note_on_c, 0, 65, 110
2, 88364, Note_off_c, 0, 80, 100
2, 88368, Note_on_c, 0, 71, 110
2, 88412, Note_off_c, 0, 65, 100
2, 88416, Note_on_c, 0, 74, 110
2, 88460, Note_off_c, 0, 71, 100
2, 88464, Note_on_c, 0, 77, 110
2, 88508, Note_off_c, 0, 74, 100
2, 88512, Note_on_c, 0, 79, 110
2, 88556, Note_off_c, 0, 77, 100
2, 88560, Note_on_c, 0, 77, 110
2, 88604, Note_off_c, 0, 79, 100
2, 88608, Note_on_c, 0, 76, 110
2, 88652, Note_off_c, 0, 77, 100
2, 88656, Note_on_c, 0, 77, 110
2, 88700, Note_off_c, 0, 76, 100
2, 88704, Note_on_c, 0, 65, 110
2, 88748, Note_off_c, 0, 77, 100
2, 88752, Note_on_c, 0, 68, 109
2, 88796, Note_off_c, 0, 65, 100
2, 88800, Note_on_c, 0, 73, 108
2, 88844, Note_off_c, 0, 68, 100
2, 88848, Note_on_c, 0, 74, 108
2, 88892, Note_off_c, 0, 73, 100
2, 88896, Note_on_c, 0, 75, 107
2, 88940, Note_off_c, 0, 74, 100
2, 88944, Note_on_c, 0, 74, 106
2, 88988, Note_off_c, 0, 75, 100
2, 88992, Note_on_c, 0, 73, 105
2, 89036, Note_off_c, 0, 74, 100
2, 89040, Note_on_c, 0, 74, 105
2, 89084, Note_off_c, 0, 73, 100
2, 89088, Note_on_c, 0, 65, 104
2, 89132, Note_off_c, 0, 74, 100
2, 89136, Note_on_c, 0, 68, 103
2, 89180, Note_off_c, 0, 65, 100
2, 89184, Note_on_c, 0, 73, 103
2, 89228, Note_off_c, 0, 68, 100
2, 89232, Note_on_c, 0, 74, 102
2, 89276, Note_off_c, 0, 73, 100
2, 89280, Note_on_c, 0, 75, 101
2, 89324, Note_off_c, 0, 74, 100
2, 89328, Note_on_c, 0, 74, 100
2, 89372, Note_off_c, 0, 75, 100
2, 89376, Note_on_c, 0, 73, 100
2, 89420, Note_off_c, 0, 74, 100
2, 89424, Note_on_c, 0, 74, 99
2, 89468, Note_off_c, 0, 73, 100
2, 89472, Note_on_c, 0, 65, 98
2, 89516, Note_off_c, 0, 74, 100
2, 89520, Note_on_c, 0, 68, 97
2, 89564, Note_off_c, 0, 65, 100
2, 89568, Note_on_c, 0, 73, 97
2, 89612, Note_off_c, 0, 68, 100
2, 89616, Note_on_c, 0, 74, 96
2, 89660, Note_off_c, 0, 73, 100
2, 89664, Note_on_c, 0, 75, 95
2, 89708, Note_off_c, 0, 74, 100
2, 89712, Note_on_c, 0, 74, 95
2, 89756, Note_off_c, 0, 75, 100
2, 89760, Note_on_c, 0, 73, 94
2, 89804, Note_off_c, 0, 74, 100
2, 89808, Note_on_c, 0, 74, 93
2, 89852, Note_off_c, 0, 73, 100
2, 89856, Note_on_c, 0, 65, 92
2, 89900, Note_off_c, 0, 74, 100
2, 89904, Note_on_c, 0, 68, 92
2, 89948, Note_off_c, 0, 65, 100
2, 89952, Note_on_c, 0, 73, 91
2, 89996, Note_off_c, 0, 68, 100
2, 90000, Note_on_c, 0, 74, 90
2, 90044, Note_off_c, 0, 73, 100
2, 90048, Note_on_c, 0, 75, 89
2, 90092, Note_off_c, 0, 74, 100
2, 90096, Note_on_c, 0, 74, 89
2, 90140, Note_off_c, 0, 75, 100
2, 90144, Note_on_c, 0, 73, 88
2, 90188, Note_off_c, 0, 74, 100
2, 90192, Note_on_c, 0, 74, 87
2, 90236, Note_off_c, 0, 73, 100
2, 90240, Note_on_c, 0, 65, 87
2, 90284, Note_off_c, 0, 74, 100
2, 90288, Note_on_c, 0, 68, 86
2, 90332, Note_off_c, 0, 65, 100
2, 90336, Note_on_c, 0, 73, 85
2, 90380, Note_off_c, 0, 68, 100
2, 90384, Note_on_c, 0, 74, 84
2, 90428, Note_off_c, 0, 73, 100
2, 90432, Note_on_c, 0, 75, 84
2, 90476, Note_off_c, 0, 74, 100
2, 90480, Note_on_c, 0, 74, 83
2, 90524, Note_off_c, 0, 75, 100
2, 90528, Note_on_c, 0, 73, 82
2, 90572, Note_off_c, 0, 74, 100
2, 90576, Note_on_c, 0, 74, 81
2, 90620, Note_off_c, 0, 73, 100
2, 90624, Note_on_c, 0, 65, 81
2, 90668, Note_off_c, 0, 74, 100
2, 90672, Note_on_c, 0, 68, 80
2, 90716, Note_off_c, 0, 65, 100
2, 90720, Note_on_c, 0, 73, 79
2, 90764, Note_off_c, 0, 68, 100
2, 90768, Note_on_c, 0, 74, 79
2, 90812, Note_off_c, 0, 73, 100
2, 90816, Note_on_c, 0, 75, 78
2, 90860, Note_off_c, 0, 74, 100
2, 90864, Note_on_c, 0, 74, 77
2, 90908, Note_off_c, 0, 75, 100
2, 90912, Note_on_c, 0, 73, 76
2, 90956, Note_off_c, 0, 74, 100
2, 90960, Note_on_c, 0, 74, 76
2, 91004, Note_off_c, 0, 73, 100
2, 91008, Note_on_c, 0, 65, 75
2, 91052, Note_off_c, 0, 74, 100
2, 91056, Note_on_c, 0, 68, 74
2, 91100, Note_off_c, 0, 65, 100
2, 91104, Note_on_c, 0, 73, 73
2, 91148, Note_off_c, 0, 68, 100
2, 91152, Note_on_c, 0, 74, 73
2, 91196, Note_off_c, 0, 73, 100
2, 91200, Note_on_c, 0, 75, 72
2, 91244, Note_off_c, 0, 74, 100
2, 91248, Note_on_c, 0, 74, 71
2, 91292, Note_off_c, 0, 75, 100
2, 91296, Note_on_c, 0, 73, 71
2, 91340, Note_off_c, 0, 74, 100
2, 91344, Note_on_c, 0, 74, 70
2, 91388, Note_off_c, 0, 73, 100
2, 91388, Note_off_c, 0, 74, 100
2, 91392, Note_on_c, 0, 77, 70
2, 91676, Note_off_c, 0, 77, 100
2, 91680, Note_on_c, 0, 75, 70
2, 91772, Note_off_c, 0, 75, 100
2, 91776, Note_on_c, 0, 75, 80
2, 91776, Note_on_c, 0, 68, 80
2, 91776, Note_on_c, 0, 65, 80
2, 91964, Note_off_c, 0, 75, 100
2, 91968, Note_on_c, 0, 74, 80
2, 92252, Note_off_c, 0, 74, 100
2, 92256, Note_on_c, 0, 77, 80
2, 92348, Note_off_c, 0, 68, 100
2, 92348, Note_off_c, 0, 65, 100
2, 92348, Note_off_c, 0, 77, 100
2, 92352, Note_on_c, 0, 75, 80
2, 92352, Note_on_c, 0, 67, 80
2, 92444, Note_off_c, 0, 75, 100
2, 92448, Note_on_c, 0, 72, 80
2, 92540, Note_off_c, 0, 67, 100
2, 92540, Note_off_c, 0, 72, 100
2, 92544, Note_on_c, 0, 72, 80
2, 92544, Note_on_c, 0, 65, 80
2, 92732, Note_off_c, 0, 72, 100
2, 92736, Note_on_c, 0, 70, 80
2, 92924, Note_off_c, 0, 65, 100
2, 93020, Note_off_c, 0, 70, 100
2, 93024, Note_on_c, 0, 71, 80
2, 93116, Note_off_c, 0, 71, 100
2, 93120, Note_on_c, 0, 72, 80
2, 93120, Note_on_c, 0, 65, 80
2, 93212, Note_off_c, 0, 72, 100
2, 93216, Note_on_c, 0, 68, 80
2, 93308, Note_off_c, 0, 65, 100
2, 93308, Note_off_c, 0, 68, 100
2, 93312, Note_on_c, 0, 68, 80
2, 93404, Note_off_c, 0, 68, 100
2, 93408, Note_on_c, 0, 67, 80
2, 93500, Note_off_c, 0, 67, 100
2, 93504, Note_on_c, 0, 70, 80
2, 93596, Note_off_c, 0, 70, 100
2, 93600, Note_on_c, 0, 63, 80
2, 93692, Note_off_c, 0, 63, 100
2, 93696, Note_on_c, 0, 63, 80
2, 93788, Note_off_c, 0, 63, 100
2, 93792, Note_on_c, 0, 62, 80
2, 93884, Note_off_c, 0, 62, 100
2, 93888, Note_on_c, 0, 65, 80
2, 93980, Note_off_c, 0, 65, 100
2, 93984, Note_on_c, 0, 63, 80
2, 94080, Note_on_c, 0, 67, 80
2, 94268, Note_off_c, 0, 63, 100
2, 94268, Note_off_c, 0, 67, 100
2, 94272, Note_on_c, 0, 65, 80
2, 94272, Note_on_c, 0, 62, 80
2, 94460, Note_off_c, 0, 65, 100
2, 94460, Note_off_c, 0, 62, 100
2, 94464, Note_on_c, 0, 77, 80
2, 94748, Note_off_c, 0, 77, 100
2, 94752, Note_on_c, 0, 75, 80
2, 94844, Note_off_c, 0, 75, 100
2, 94848, Note_on_c, 0, 74, 80
2, 94868, Note_off_c, 0, 74, 100
2, 94872, Note_on_c, 0, 75, 80
2, 94892, Note_off_c, 0, 75, 100
2, 94896, Note_on_c, 0, 77, 80
2, 94916, Note_off_c, 0, 77, 100
2, 94920, Note_on_c, 0, 75, 80
2, 95036, Note_off_c, 0, 75, 100
2, 95040, Note_on_c, 0, 74, 80
2, 95292, Note_off_c, 0, 74, 100
2, 95296, Note_on_c, 0, 75, 80
2, 95356, Note_off_c, 0, 75, 100
2, 95360, Note_on_c, 0, 74, 80
2, 95420, Note_off_c, 0, 74, 100
2, 95424, Note_on_c, 0, 77, 80
2, 95484, Note_off_c, 0, 77, 100
2, 95488, Note_on_c, 0, 75, 80
2, 95548, Note_off_c, 0, 75, 100
2, 95552, Note_on_c, 0, 72, 80
2, 95612, Note_off_c, 0, 72, 100
2, 95616, Note_on_c, 0, 69, 80
2, 95804, Note_off_c, 0, 69, 100
2, 95808, Note_on_c, 0, 70, 80
2, 96060, Note_off_c, 0, 70, 100
2, 96064, Note_on_c, 0, 72, 80
2, 96124, Note_off_c, 0, 72, 100
2, 96128, Note_on_c, 0, 71, 80
2, 96188, Note_off_c, 0, 71, 100
2, 96192, Note_on_c, 0, 74, 80
2, 96252, Note_off_c, 0, 74, 100
2, 96256, Note_on_c, 0, 72, 80
2, 96316, Note_off_c, 0, 72, 100
2, 96320, Note_on_c, 0, 68, 80
2, 96380, Note_off_c, 0, 68, 100
2, 96384, Note_on_c, 0, 67, 80
2, 96444, Note_off_c, 0, 67, 100
2, 96448, Note_on_c, 0, 68, 80
2, 96508, Note_off_c, 0, 68, 100
2, 96512, Note_on_c, 0, 67, 80
2, 96572, Note_off_c, 0, 67, 100
2, 96576, Note_on_c, 0, 70, 80
2, 96576, Note_on_c, 0, 60, 80
2, 96636, Note_off_c, 0, 70, 100
2, 96640, Note_on_c, 0, 68, 80
2, 96700, Note_off_c, 0, 68, 100
2, 96704, Note_on_c, 0, 65, 80
2, 96764, Note_off_c, 0, 60, 100
2, 96764, Note_off_c, 0, 65, 100
2, 96768, Note_on_c, 0, 55, 80
2, 96768, Note_on_c, 0, 63, 80
2, 96860, Note_off_c, 0, 63, 100
2, 96864, Note_on_c, 0, 65, 80
2, 96888, Note_on_c, 0, 63, 80
2, 96908, Note_off_c, 0, 65, 100
2, 96912, Note_on_c, 0, 62, 80
2, 96932, Note_off_c, 0, 63, 100
2, 96936, Note_on_c, 0, 63, 80
2, 96956, Note_off_c, 0, 55, 100
2, 96956, Note_off_c, 0, 62, 100
2, 96956, Note_off_c, 0, 63, 100
2, 96960, Note_on_c, 0, 62, 80
2, 96960, Note_on_c, 0, 56, 80
2, 96960, Note_on_c, 0, 67, 80
2, 97052, Note_off_c, 0, 67, 100
2, 97056, Note_on_c, 0, 65, 80
2, 97148, Note_off_c, 0, 62, 100
2, 97148, Note_off_c, 0, 56, 100
2, 97148, Note_off_c, 0, 65, 100
2, 97152, Note_on_c, 0, 63, 80
2, 97152, Note_on_c, 0, 55, 80
2, 97340, Note_off_c, 0, 63, 100
2, 97340, Note_off_c, 0, 55, 100
2, 97536, Note_on_c, 0, 55, 80
2, 97580, Note_off_c, 0, 55, 100
2, 97584, Note_on_c, 0, 58, 80
2, 97628, Note_off_c, 0, 58, 100
2, 97632, Note_on_c, 0, 63, 80
2, 97676, Note_off_c, 0, 63, 100
2, 97680, Note_on_c, 0, 67, 81
2, 97724, Note_off_c, 0, 67, 100
2, 97728, Note_on_c, 0, 70, 81
2, 97772, Note_off_c, 0, 70, 100
2, 97776, Note_on_c, 0, 75, 82
2, 97820, Note_off_c, 0, 75, 100
2, 97824, Note_on_c, 0, 79, 82
2, 97868, Note_off_c, 0, 79, 100
2, 97872, Note_on_c, 0, 77, 83
2, 97916, Note_off_c, 0, 77, 100
2, 97920, Note_on_c, 0, 75, 83
2, 98108, Note_off_c, 0, 75, 100
2, 98112, Note_on_c, 0, 74, 85
2, 98300, Note_off_c, 0, 74, 100
2, 98304, Note_on_c, 0, 75, 87
2, 98396, Note_off_c, 0, 75, 100
2, 98400, Note_on_c, 0, 77, 88
2, 98492, Note_off_c, 0, 77, 100
2, 98496, Note_on_c, 0, 79, 89
2, 98588, Note_off_c, 0, 79, 100
2, 98592, Note_on_c, 0, 81, 90
2, 98684, Note_off_c, 0, 81, 100
2, 98688, Note_on_c, 0, 84, 91
2, 98876, Note_off_c, 0, 84, 100
2, 98880, Note_on_c, 0, 82, 93
2, 99068, Note_off_c, 0, 82, 100
2, 99072, Note_on_c, 0, 55, 95
2, 99116, Note_off_c, 0, 55, 100
2, 99120, Note_on_c, 0, 58, 96
2, 99164, Note_off_c, 0, 58, 100
2, 99168, Note_on_c, 0, 63, 96
2, 99212, Note_off_c, 0, 63, 100
2, 99216, Note_on_c, 0, 67, 96
2, 99260, Note_off_c, 0, 67, 100
2, 99264, Note_on_c, 0, 70, 97
2, 99308, Note_off_c, 0, 70, 100
2, 99312, Note_on_c, 0, 75, 97
2, 99356, Note_off_c, 0, 75, 100
2, 99360, Note_on_c, 0, 79, 98
2, 99404, Note_off_c, 0, 79, 100
2, 99408, Note_on_c, 0, 77, 98
2, 99452, Note_off_c, 0, 77, 100
2, 99456, Note_on_c, 0, 75, 99
2, 99644, Note_off_c, 0, 75, 100
2, 99648, Note_on_c, 0, 74, 101
2, 99692, Note_off_c, 0, 74, 100
2, 99696, Note_on_c, 0, 75, 101
2, 99740, Note_off_c, 0, 75, 100
2, 99744, Note_on_c, 0, 72, 102
2, 99788, Note_off_c, 0, 72, 100
2, 99792, Note_on_c, 0, 74, 102
2, 99836, Note_off_c, 0, 74, 100
2, 99840, Note_on_c, 0, 75, 103
2, 99932, Note_off_c, 0, 75, 100
2, 99936, Note_on_c, 0, 77, 104
2, 99936, Note_on_c, 0, 65, 104
2, 100028, Note_off_c, 0, 77, 100
2, 100028, Note_off_c, 0, 65, 100
2, 100032, Note_on_c, 0, 79, 105
2, 100032, Note_on_c, 0, 67, 105
2, 100124, Note_off_c, 0, 79, 100
2, 100124, Note_off_c, 0, 67, 100
2, 100128, Note_on_c, 0, 81, 106
2, 100128, Note_on_c, 0, 69, 106
2, 100220, Note_off_c, 0, 81, 100
2, 100220, Note_off_c, 0, 69, 100
2, 100224, Note_on_c, 0, 82, 107
2, 100224, Note_on_c, 0, 70, 107
2, 101372, Note_off_c, 0, 70, 100
2, 101372, Note_off_c, 0, 82, 100
2, 101376, Note_on_c, 0, 77, 100
2, 101376, Note_on_c, 0, 89, 100
2, 101660, Note_off_c, 0, 77, 100
2, 101660, Note_off_c, 0, 89, 100
2, 101664, Note_on_c, 0, 75, 100
2, 101664, Note_on_c, 0, 87, 100
2, 101756, Note_off_c, 0, 75, 100
2, 101756, Note_off_c, 0, 87, 100
2, 101760, Note_on_c, 0, 75, 100
2, 101760, Note_on_c, 0, 87, 100
2, 101948, Note_off_c, 0, 75, 100
2, 101948, Note_off_c, 0, 87, 100
2, 101952, Note_on_c, 0, 74, 100
2, 101952, Note_on_c, 0, 86, 100
2, 102236, Note_off_c, 0, 74, 100
2, 102236, Note_off_c, 0, 86, 100
2, 102240, Note_on_c, 0, 77, 100
2, 102240, Note_on_c, 0, 89, 100
2, 102332, Note_off_c, 0, 77, 100
2, 102332, Note_off_c, 0, 89, 100
2, 102336, Note_on_c, 0, 75, 100
2, 102336, Note_on_c, 0, 87, 100
2, 102428, Note_off_c, 0, 75, 100
2, 102428, Note_off_c, 0, 87, 100
2, 102432, Note_on_c, 0, 72, 100
2, 102432, Note_on_c, 0, 84, 100
2, 102524, Note_off_c, 0, 72, 100
2, 102524, Note_off_c, 0, 84, 100
2, 102528, Note_on_c, 0, 69, 100
2, 102528, Note_on_c, 0, 81, 100
2, 102716, Note_off_c, 0, 69, 100
2, 102716, Note_off_c, 0, 81, 100
2, 102720, Note_on_c, 0, 70, 100
2, 102720, Note_on_c, 0, 82, 100
2, 103004, Note_off_c, 0, 70, 100
2, 103004, Note_off_c, 0, 82, 100
2, 103008, Note_on_c, 0, 71, 100
2, 103008, Note_on_c, 0, 83, 100
2, 103100, Note_off_c, 0, 71, 100
2, 103100, Note_off_c, 0, 83, 100
2, 103104, Note_on_c, 0, 72, 100
2, 103104, Note_on_c, 0, 84, 100
2, 103196, Note_off_c, 0, 72, 100
2, 103196, Note_off_c, 0, 84, 100
2, 103200, Note_on_c, 0, 68, 100
2, 103200, Note_on_c, 0, 80, 100
2, 103292, Note_off_c, 0, 68, 100
2, 103292, Note_off_c, 0, 80, 100
2, 103296, Note_on_c, 0, 67, 100
2, 103296, Note_on_c, 0, 79, 100
2, 103388, Note_off_c, 0, 67, 100
2, 103388, Note_off_c, 0, 79, 100
2, 103392, Note_on_c, 0, 70, 100
2, 103392, Note_on_c, 0, 82, 100
2, 103484, Note_off_c, 0, 70, 100
2, 103484, Note_off_c, 0, 82, 100
2, 103488, Note_on_c, 0, 68, 100
2, 103488, Note_on_c, 0, 80, 100
2, 103580, Note_off_c, 0, 68, 100
2, 103580, Note_off_c, 0, 80, 100
2, 103584, Note_on_c, 0, 77, 100
2, 103584, Note_on_c, 0, 65, 100
2, 103676, Note_off_c, 0, 77, 100
2, 103676, Note_off_c, 0, 65, 100
2, 103680, Note_on_c, 0, 67, 100
2, 103680, Note_on_c, 0, 75, 100
2, 103772, Note_off_c, 0, 75, 100
2, 103776, Note_on_c, 0, 77, 100
2, 103800, Note_on_c, 0, 75, 100
2, 103820, Note_off_c, 0, 77, 100
2, 103824, Note_on_c, 0, 74, 100
2, 103844, Note_off_c, 0, 75, 100
2, 103848, Note_on_c, 0, 75, 100
2, 103868, Note_off_c, 0, 67, 100
2, 103868, Note_off_c, 0, 74, 100
2, 103868, Note_off_c, 0, 75, 100
2, 103872, Note_on_c, 0, 68, 100
2, 103872, Note_on_c, 0, 74, 100
2, 103872, Note_on_c, 0, 79, 100
2, 103964, Note_off_c, 0, 79, 100
2, 103968, Note_on_c, 0, 77, 100
2, 104060, Note_off_c, 0, 68, 100
2, 104060, Note_off_c, 0, 74, 100
2, 104060, Note_off_c, 0, 77, 100
2, 104064, Note_on_c, 0, 75, 100
2, 104064, Note_on_c, 0, 67, 100
2, 104252, Note_off_c, 0, 75, 100
2, 104252, Note_off_c, 0, 67, 100
2, 105408, Note_on_c, 0, 75, 100
2, 105596, Note_off_c, 0, 75, 100
2, 105600, Note_on_c, 0, 75, 100
2, 105788, Note_off_c, 0, 75, 100
2, 105792, Note_on_c, 0, 74, 100
2, 105980, Note_off_c, 0, 74, 100
2, 106944, Note_on_c, 0, 75, 100
2, 107132, Note_off_c, 0, 75, 100
2, 107136, Note_on_c, 0, 76, 100
2, 107324, Note_off_c, 0, 76, 100
2, 107328, Note_on_c, 0, 77, 100
2, 107516, Note_off_c, 0, 77, 100
2, 108480, Note_on_c, 0, 77, 100
2, 108668, Note_off_c, 0, 77, 100
2, 108672, Note_on_c, 0, 77, 100
2, 108860, Note_off_c, 0, 77, 100
2, 108864, Note_on_c, 0, 76, 100
2, 109052, Note_off_c, 0, 76, 100
2, 109920, Note_on_c, 0, 77, 100
2, 110012, Note_off_c, 0, 77, 100
2, 110016, Note_on_c, 0, 77, 100
2, 110108, Note_off_c, 0, 77, 100
2, 110112, Note_on_c, 0, 77, 100
2, 110204, Note_off_c, 0, 77, 100
2, 110208, Note_on_c, 0, 76, 100
2, 110256, Note_on_c, 0, 77, 100
2, 110296, Note_off_c, 0, 76, 100
2, 110304, Note_on_c, 0, 79, 100
2, 110340, Note_off_c, 0, 77, 100
2, 110352, Note_on_c, 0, 77, 100
2, 110388, Note_off_c, 0, 79, 100
2, 110400, Note_on_c, 0, 76, 100
2, 110440, Note_off_c, 0, 77, 100
2, 110588, Note_off_c, 0, 76, 100
2, 111456, Note_on_c, 0, 75, 110
2, 111548, Note_off_c, 0, 75, 100
2, 111552, Note_on_c, 0, 75, 110
2, 111644, Note_off_c, 0, 75, 100
2, 111648, Note_on_c, 0, 75, 110
2, 111740, Note_off_c, 0, 75, 100
2, 111744, Note_on_c, 0, 74, 110
2, 111792, Note_on_c, 0, 75, 110
2, 111836, Note_off_c, 0, 74, 100
2, 111840, Note_on_c, 0, 77, 110
2, 111872, Note_off_c, 0, 75, 100
2, 111888, Note_on_c, 0, 75, 110
2, 111920, Note_off_c, 0, 77, 100
2, 111936, Note_on_c, 0, 74, 110
2, 111980, Note_off_c, 0, 75, 100
2, 112124, Note_off_c, 0, 74, 100
2, 112512, Note_on_c, 0, 68, 110
2, 112512, Note_on_c, 0, 58, 110
2, 112512, Note_on_c, 0, 56, 110
2, 112892, Note_off_c, 0, 68, 100
2, 112892, Note_off_c, 0, 58, 100
2, 112892, Note_off_c, 0, 56, 100
2, 112896, Note_on_c, 0, 67, 110
2, 112896, Note_on_c, 0, 58, 110
2, 112896, Note_on_c, 0, 55, 110
2, 113276, Note_off_c, 0, 67, 100
2, 113276, Note_off_c, 0, 58, 100
2, 113276, Note_off_c, 0, 55, 100
2, 113280, Note_on_c, 0, 62, 110
2, 113328, Note_on_c, 0, 63, 110
2, 113356, Note_off_c, 0, 62, 100
2, 113376, Note_on_c, 0, 65, 110
2, 113412, Note_off_c, 0, 63, 100
2, 113424, Note_on_c, 0, 63, 110
2, 113452, Note_off_c, 0, 65, 100
2, 113472, Note_on_c, 0, 62, 110
2, 113500, Note_off_c, 0, 63, 100
2, 113564, Note_off_c, 0, 62, 100
2, 113568, Note_on_c, 0, 58, 110
2, 113660, Note_off_c, 0, 58, 100
2, 113664, Note_on_c, 0, 63, 110
2, 113712, Note_on_c, 0, 65, 110
2, 113744, Note_off_c, 0, 63, 100
2, 113760, Note_on_c, 0, 67, 110
2, 113792, Note_off_c, 0, 65, 100
2, 113808, Note_on_c, 0, 65, 110
2, 113832, Note_off_c, 0, 67, 100
2, 113856, Note_on_c, 0, 63, 110
2, 113888, Note_off_c, 0, 65, 100
2, 113948, Note_off_c, 0, 63, 100
2, 113952, Note_on_c, 0, 58, 110
2, 113952, Note_on_c, 0, 70, 110
2, 114044, Note_off_c, 0, 58, 100
2, 114044, Note_off_c, 0, 70, 100
2, 114048, Note_on_c, 0, 80, 110
2, 114048, Note_on_c, 0, 70, 110
2, 114048, Note_on_c, 0, 68, 110
2, 114428, Note_off_c, 0, 80, 100
2, 114428, Note_off_c, 0, 70, 100
2, 114428, Note_off_c, 0, 68, 100
2, 114432, Note_on_c, 0, 79, 110
2, 114432, Note_on_c, 0, 70, 110
2, 114432, Note_on_c, 0, 67, 110
2, 114716, Note_off_c, 0, 79, 100
2, 114716, Note_off_c, 0, 70, 100
2, 114716, Note_off_c, 0, 67, 100
2, 114720, Note_on_c, 0, 70, 110
2, 114812, Note_off_c, 0, 70, 100
2, 114816, Note_on_c, 0, 74, 110
2, 114864, Note_on_c, 0, 75, 110
2, 114892, Note_off_c, 0, 74, 100
2, 114912, Note_on_c, 0, 77, 110
2, 114952, Note_off_c, 0, 75, 100
2, 114960, Note_on_c, 0, 75, 110
2, 114996, Note_off_c, 0, 77, 100
2, 115008, Note_on_c, 0, 74, 110
2, 115044, Note_off_c, 0, 75, 100
2, 115100, Note_off_c, 0, 74, 100
2, 115104, Note_on_c, 0, 70, 110
2, 115196, Note_off_c, 0, 70, 100
2, 115200, Note_on_c, 0, 75, 110
2, 115248, Note_on_c, 0, 77, 110
2, 115280, Note_off_c, 0, 75, 100
2, 115296, Note_on_c, 0, 79, 110
2, 115328, Note_off_c, 0, 77, 100
2, 115344, Note_on_c, 0, 77, 110
2, 115376, Note_off_c, 0, 79, 100
2, 115392, Note_on_c, 0, 75, 110
2, 115420, Note_off_c, 0, 77, 100
2, 115484, Note_off_c, 0, 75, 100
2, 115488, Note_on_c, 0, 76, 110
2, 115488, Note_on_c, 0, 64, 110
2, 115580, Note_off_c, 0, 76, 100
2, 115580, Note_off_c, 0, 64, 100
2, 115584, Note_on_c, 0, 77, 100
2, 115584, Note_on_c, 0, 65, 100
2, 115632, Note_on_c, 0, 67, 80
2, 115664, Note_off_c, 0, 77, 100
2, 115668, Note_off_c, 0, 65, 100
2, 115680, Note_on_c, 0, 68, 80
2, 115712, Note_off_c, 0, 67, 100
2, 115728, Note_on_c, 0, 67, 80
2, 115760, Note_off_c, 0, 68, 100
2, 115776, Note_on_c, 0, 65, 80
2, 115816, Note_off_c, 0, 67, 100
2, 115868, Note_off_c, 0, 65, 100
2, 115872, Note_on_c, 0, 72, 80
2, 115964, Note_off_c, 0, 72, 100
2, 115968, Note_on_c, 0, 68, 80
2, 116060, Note_off_c, 0, 68, 100
2, 116064, Note_on_c, 0, 77, 80
2, 116156, Note_off_c, 0, 77, 100
2, 116160, Note_on_c, 0, 72, 80
2, 116252, Note_off_c, 0, 72, 100
2, 116256, Note_on_c, 0, 80, 80
2, 116348, Note_off_c, 0, 80, 100
2, 116352, Note_on_c, 0, 65, 100
2, 116400, Note_on_c, 0, 67, 80
2, 116444, Note_off_c, 0, 65, 100
2, 116448, Note_on_c, 0, 68, 80
2, 116484, Note_off_c, 0, 67, 100
2, 116496, Note_on_c, 0, 67, 80
2, 116528, Note_off_c, 0, 68, 100
2, 116544, Note_on_c, 0, 65, 80
2, 116576, Note_off_c, 0, 67, 100
2, 116636, Note_off_c, 0, 65, 100
2, 116640, Note_on_c, 0, 72, 80
2, 116732, Note_off_c, 0, 72, 100
2, 116736, Note_on_c, 0, 68, 80
2, 116828, Note_off_c, 0, 68, 100
2, 116832, Note_on_c, 0, 77, 80
2, 116924, Note_off_c, 0, 77, 100
2, 116928, Note_on_c, 0, 72, 80
2, 117020, Note_off_c, 0, 72, 100
2, 117024, Note_on_c, 0, 80, 80
2, 117116, Note_off_c, 0, 80, 100
2, 117120, Note_on_c, 0, 74, 70
2, 117168, Note_on_c, 0, 75, 70
2, 117208, Note_off_c, 0, 74, 100
2, 117216, Note_on_c, 0, 77, 70
2, 117252, Note_off_c, 0, 75, 100
2, 117264, Note_on_c, 0, 75, 70
2, 117296, Note_off_c, 0, 77, 100
2, 117312, Note_on_c, 0, 74, 70
2, 117344, Note_off_c, 0, 75, 100
2, 117404, Note_off_c, 0, 74, 100
2, 117408, Note_on_c, 0, 80, 70
2, 117500, Note_off_c, 0, 80, 100
2, 117504, Note_on_c, 0, 77, 70
2, 117596, Note_off_c, 0, 77, 100
2, 117600, Note_on_c, 0, 86, 70
2, 117692, Note_off_c, 0, 86, 100
2, 117696, Note_on_c, 0, 80, 70
2, 117788, Note_off_c, 0, 80, 100
2, 117792, Note_on_c, 0, 89, 70
2, 117884, Note_off_c, 0, 89, 100
2, 117888, Note_on_c, 0, 87, 70
2, 117980, Note_off_c, 0, 87, 100
2, 117984, Note_on_c, 0, 86, 70
2, 118076, Note_off_c, 0, 86, 100
2, 118080, Note_on_c, 0, 87, 70
2, 118172, Note_off_c, 0, 87, 100
2, 118176, Note_on_c, 0, 83, 70
2, 118268, Note_off_c, 0, 83, 100
2, 118272, Note_on_c, 0, 84, 70
2, 118364, Note_off_c, 0, 84, 100
2, 118368, Note_on_c, 0, 79, 70
2, 118460, Note_off_c, 0, 79, 100
2, 118464, Note_on_c, 0, 80, 70
2, 118556, Note_off_c, 0, 80, 100
2, 118560, Note_on_c, 0, 77, 70
2, 118652, Note_off_c, 0, 77, 100
2, 118656, Note_on_c, 0, 82, 70
2, 118748, Note_off_c, 0, 82, 100
2, 118752, Note_on_c, 0, 78, 70
2, 118844, Note_off_c, 0, 78, 100
2, 118848, Note_on_c, 0, 79, 70
2, 118940, Note_off_c, 0, 79, 100
2, 118944, Note_on_c, 0, 75, 70
2, 119036, Note_off_c, 0, 75, 100
2, 119040, Note_on_c, 0, 80, 70
2, 119132, Note_off_c, 0, 80, 100
2, 119136, Note_on_c, 0, 76, 70
2, 119228, Note_off_c, 0, 76, 100
2, 119232, Note_on_c, 0, 77, 70
2, 119324, Note_off_c, 0, 77, 100
2, 119328, Note_on_c, 0, 74, 70
2, 119420, Note_off_c, 0, 74, 100
2, 119424, Note_on_c, 0, 75, 70
2, 119804, Note_off_c, 0, 75, 100
2, 120000, Note_on_c, 0, 79, 100
2, 120000, Note_on_c, 0, 76, 100
2, 120188, Note_off_c, 0, 79, 100
2, 120188, Note_off_c, 0, 76, 100
2, 120192, Note_on_c, 0, 77, 100
2, 120192, Note_on_c, 0, 80, 100
2, 120380, Note_off_c, 0, 77, 100
2, 120380, Note_off_c, 0, 80, 100
2, 120384, Note_on_c, 0, 80, 100
2, 120384, Note_on_c, 0, 84, 100
2, 120572, Note_off_c, 0, 80, 100
2, 120572, Note_off_c, 0, 84, 100
2, 120768, Note_on_c, 0, 77, 100
2, 120768, Note_on_c, 0, 74, 100
2, 120956, Note_off_c, 0, 77, 100
2, 120956, Note_off_c, 0, 74, 100
2, 120960, Note_on_c, 0, 75, 100
2, 120960, Note_on_c, 0, 79, 100
2, 121148, Note_off_c, 0, 75, 100
2, 121148, Note_off_c, 0, 79, 100
2, 121152, Note_on_c, 0, 79, 100
2, 121152, Note_on_c, 0, 82, 100
2, 121340, Note_off_c, 0, 79, 100
2, 121340, Note_off_c, 0, 82, 100
2, 121344, Note_on_c, 0, 82, 100
2, 121532, Note_off_c, 0, 82, 100
2, 121536, Note_on_c, 0, 82, 100
2, 121560, Note_on_c, 0, 84, 100
2, 121580, Note_off_c, 0, 82, 100
2, 121584, Note_on_c, 0, 82, 100
2, 121604, Note_off_c, 0, 84, 100
2, 121608, Note_on_c, 0, 84, 100
2, 121628, Note_off_c, 0, 82, 100
2, 121632, Note_on_c, 0, 82, 100
2, 121652, Note_off_c, 0, 84, 100
2, 121656, Note_on_c, 0, 84, 100
2, 121676, Note_off_c, 0, 82, 100
2, 121680, Note_on_c, 0, 81, 100
2, 121700, Note_off_c, 0, 84, 100
2, 121704, Note_on_c, 0, 82, 100
2, 121724, Note_off_c, 0, 81, 100
2, 121724, Note_off_c, 0, 82, 100
2, 121728, Note_on_c, 0, 80, 100
2, 121820, Note_off_c, 0, 80, 100
2, 121824, Note_on_c, 0, 79, 100
2, 121916, Note_off_c, 0, 79, 100
2, 121920, Note_on_c, 0, 77, 100
2, 122012, Note_off_c, 0, 77, 100
2, 122016, Note_on_c, 0, 75, 100
2, 122108, Note_off_c, 0, 75, 100
2, 122112, Note_on_c, 0, 74, 100
2, 122204, Note_off_c, 0, 74, 100
2, 122208, Note_on_c, 0, 75, 100
2, 122300, Note_off_c, 0, 75, 100
2, 122304, Note_on_c, 0, 76, 100
2, 122396, Note_off_c, 0, 76, 100
2, 122400, Note_on_c, 0, 77, 100
2, 122492, Note_off_c, 0, 77, 100
2, 122496, Note_on_c, 0, 70, 100
2, 122684, Note_off_c, 0, 70, 100
2, 123072, Note_on_c, 0, 76, 110
2, 123072, Note_on_c, 0, 72, 110
2, 123072, Note_on_c, 0, 67, 110
2, 123260, Note_off_c, 0, 76, 100
2, 123260, Note_off_c, 0, 72, 100
2, 123260, Note_off_c, 0, 67, 100
2, 123264, Note_on_c, 0, 84, 110
2, 123452, Note_off_c, 0, 84, 100
2, 123456, Note_on_c, 0, 84, 110
2, 123480, Note_on_c, 0, 85, 110
2, 123500, Note_off_c, 0, 84, 100
2, 123504, Note_on_c, 0, 84, 110
2, 123524, Note_off_c, 0, 85, 100
2, 123528, Note_on_c, 0, 85, 110
2, 123548, Note_off_c, 0, 84, 100
2, 123552, Note_on_c, 0, 84, 110
2, 123572, Note_off_c, 0, 85, 100
2, 123576, Note_on_c, 0, 85, 110
2, 123596, Note_off_c, 0, 84, 100
2, 123600, Note_on_c, 0, 83, 110
2, 123620, Note_off_c, 0, 85, 100
2, 123624, Note_on_c, 0, 84, 110
2, 123644, Note_off_c, 0, 83, 100
2, 123644, Note_off_c, 0, 84, 100
2, 123840, Note_on_c, 0, 74, 110
2, 123840, Note_on_c, 0, 70, 110
2, 123840, Note_on_c, 0, 65, 110
2, 124028, Note_off_c, 0, 74, 100
2, 124028, Note_off_c, 0, 70, 100
2, 124028, Note_off_c, 0, 65, 100
2, 124032, Note_on_c, 0, 82, 110
2, 124220, Note_off_c, 0, 82, 100
2, 124224, Note_on_c, 0, 82, 110
2, 124248, Note_on_c, 0, 84, 110
2, 124268, Note_off_c, 0, 82, 100
2, 124272, Note_on_c, 0, 82, 110
2, 124292, Note_off_c, 0, 84, 100
2, 124296, Note_on_c, 0, 84, 110
2, 124316, Note_off_c, 0, 82, 100
2, 124320, Note_on_c, 0, 82, 110
2, 124340, Note_off_c, 0, 84, 100
2, 124344, Note_on_c, 0, 84, 110
2, 124364, Note_off_c, 0, 82, 100
2, 124368, Note_on_c, 0, 81, 110
2, 124388, Note_off_c, 0, 84, 100
2, 124392, Note_on_c, 0, 82, 110
2, 124412, Note_off_c, 0, 81, 100
2, 124412, Note_off_c, 0, 82, 100
2, 124608, Note_on_c, 0, 82, 110
2, 124632, Note_on_c, 0, 84, 110
2, 124652, Note_off_c, 0, 82, 100
2, 124656, Note_on_c, 0, 82, 110
2, 124676, Note_off_c, 0, 84, 100
2, 124680, Note_on_c, 0, 84, 110
2, 124700, Note_off_c, 0, 82, 100
2, 124704, Note_on_c, 0, 82, 110
2, 124724, Note_off_c, 0, 84, 100
2, 124728, Note_on_c, 0, 84, 110
2, 124748, Note_off_c, 0, 82, 100
2, 124752, Note_on_c, 0, 81, 110
2, 124772, Note_off_c, 0, 84, 100
2, 124776, Note_on_c, 0, 82, 110
2, 124796, Note_off_c, 0, 81, 100
2, 124796, Note_off_c, 0, 82, 100
2, 124800, Note_on_c, 0, 80, 80
2, 124892, Note_off_c, 0, 80, 100
2, 124896, Note_on_c, 0, 79, 80
2, 124988, Note_off_c, 0, 79, 100
2, 124992, Note_on_c, 0, 77, 80
2, 125016, Note_on_c, 0, 79, 80
2, 125036, Note_off_c, 0, 77, 100
2, 125040, Note_on_c, 0, 77, 80
2, 125060, Note_off_c, 0, 79, 100
2, 125084, Note_off_c, 0, 77, 100
2, 125088, Note_on_c, 0, 75, 80
2, 125180, Note_off_c, 0, 75, 100
2, 125184, Note_on_c, 0, 75, 80
2, 125208, Note_on_c, 0, 77, 80
2, 125228, Note_off_c, 0, 75, 100
2, 125232, Note_on_c, 0, 75, 80
2, 125252, Note_off_c, 0, 77, 100
2, 125276, Note_off_c, 0, 75, 100
2, 125280, Note_on_c, 0, 74, 80
2, 125372, Note_off_c, 0, 74, 100
2, 125376, Note_on_c, 0, 72, 80
2, 125400, Note_on_c, 0, 74, 80
2, 125420, Note_off_c, 0, 72, 100
2, 125424, Note_on_c, 0, 72, 80
2, 125444, Note_off_c, 0, 74, 100
2, 125468, Note_off_c, 0, 72, 100
2, 125472, Note_on_c, 0, 70, 80
2, 125564, Note_off_c, 0, 70, 100
2, 125568, Note_on_c, 0, 70, 80
2, 125660, Note_off_c, 0, 70, 100
2, 125664, Note_on_c, 0, 72, 80
2, 125708, Note_off_c, 0, 72, 100
2, 125712, Note_on_c, 0, 74, 80
2, 125756, Note_off_c, 0, 74, 100
2, 125760, Note_on_c, 0, 75, 80
2, 125804, Note_off_c, 0, 75, 100
2, 125808, Note_on_c, 0, 77, 80
2, 125852, Note_off_c, 0, 77, 100
2, 125856, Note_on_c, 0, 79, 80
2, 125900, Note_off_c, 0, 79, 100
2, 125904, Note_on_c, 0, 80, 80
2, 125948, Note_off_c, 0, 80, 100
2, 125952, Note_on_c, 0, 82, 110
2, 126044, Note_off_c, 0, 82, 100
2, 126048, Note_on_c, 0, 81, 110
2, 126092, Note_off_c, 0, 81, 100
2, 126096, Note_on_c, 0, 82, 110
2, 126140, Note_off_c, 0, 82, 100
2, 126144, Note_on_c, 0, 81, 110
2, 126188, Note_off_c, 0, 81, 100
2, 126192, Note_on_c, 0, 82, 110
2, 126236, Note_off_c, 0, 82, 100
2, 126240, Note_on_c, 0, 84, 110
2, 126284, Note_off_c, 0, 84, 100
2, 126288, Note_on_c, 0, 82, 110
2, 126332, Note_off_c, 0, 82, 100
2, 126432, Note_on_c, 0, 80, 80
2, 126476, Note_off_c, 0, 80, 100
2, 126480, Note_on_c, 0, 79, 80
2, 126524, Note_off_c, 0, 79, 100
2, 126624, Note_on_c, 0, 77, 80
2, 126668, Note_off_c, 0, 77, 100
2, 126672, Note_on_c, 0, 75, 80
2, 126716, Note_off_c, 0, 75, 100
2, 126816, Note_on_c, 0, 75, 80
2, 126860, Note_off_c, 0, 75, 100
2, 126864, Note_on_c, 0, 74, 80
2, 126908, Note_off_c, 0, 74, 100
2, 127008, Note_on_c, 0, 72, 80
2, 127052, Note_off_c, 0, 72, 100
2, 127056, Note_on_c, 0, 70, 80
2, 127100, Note_off_c, 0, 70, 100
2, 127104, Note_on_c, 0, 69, 80
2, 127148, Note_off_c, 0, 69, 100
2, 127152, Note_on_c, 0, 70, 80
2, 127196, Note_off_c, 0, 70, 100
2, 127200, Note_on_c, 0, 72, 80
2, 127244, Note_off_c, 0, 72, 100
2, 127248, Note_on_c, 0, 74, 80
2, 127292, Note_off_c, 0, 74, 100
2, 127296, Note_on_c, 0, 75, 80
2, 127340, Note_off_c, 0, 75, 100
2, 127344, Note_on_c, 0, 77, 80
2, 127388, Note_off_c, 0, 77, 100
2, 127392, Note_on_c, 0, 79, 80
2, 127436, Note_off_c, 0, 79, 100
2, 127440, Note_on_c, 0, 80, 80
2, 127484, Note_off_c, 0, 80, 100
2, 127488, Note_on_c, 0, 81, 110
2, 127536, Note_on_c, 0, 82, 110
2, 127572, Note_off_c, 0, 81, 100
2, 127584, Note_on_c, 0, 81, 110
2, 127628, Note_off_c, 0, 82, 100
2, 127632, Note_on_c, 0, 82, 110
2, 127664, Note_off_c, 0, 81, 100
2, 127680, Note_on_c, 0, 81, 110
2, 127716, Note_off_c, 0, 82, 100
2, 127728, Note_on_c, 0, 82, 110
2, 127764, Note_off_c, 0, 81, 100
2, 127776, Note_on_c, 0, 84, 110
2, 127812, Note_off_c, 0, 82, 100
2, 127824, Note_on_c, 0, 82, 110
2, 127868, Note_off_c, 0, 84, 100
2, 127872, Note_on_c, 0, 80, 110
2, 127912, Note_off_c, 0, 82, 100
2, 127920, Note_on_c, 0, 79, 110
2, 127960, Note_off_c, 0, 80, 100
2, 127968, Note_on_c, 0, 77, 110
2, 128004, Note_off_c, 0, 79, 100
2, 128016, Note_on_c, 0, 75, 110
2, 128048, Note_off_c, 0, 77, 100
2, 128064, Note_on_c, 0, 74, 110
2, 128096, Note_off_c, 0, 75, 100
2, 128112, Note_on_c, 0, 75, 110
2, 128152, Note_off_c, 0, 74, 100
2, 128160, Note_on_c, 0, 77, 110
2, 128200, Note_off_c, 0, 75, 100
2, 128208, Note_on_c, 0, 75, 110
2, 128236, Note_off_c, 0, 77, 100
2, 128256, Note_on_c, 0, 74, 110
2, 128284, Note_off_c, 0, 75, 100
2, 128304, Note_on_c, 0, 72, 110
2, 128328, Note_off_c, 0, 74, 100
2, 128352, Note_on_c, 0, 70, 110
2, 128388, Note_off_c, 0, 72, 100
2, 128400, Note_on_c, 0, 69, 110
2, 128440, Note_off_c, 0, 70, 100
2, 128448, Note_on_c, 0, 75, 110
2, 128480, Note_off_c, 0, 69, 100
2, 128496, Note_on_c, 0, 69, 110
2, 128532, Note_off_c, 0, 75, 100
2, 128544, Note_on_c, 0, 75, 110
2, 128580, Note_off_c, 0, 69, 100
2, 128592, Note_on_c, 0, 69, 110
2, 128636, Note_off_c, 0, 75, 100
2, 128640, Note_on_c, 0, 72, 80
2, 128684, Note_off_c, 0, 69, 100
2, 128688, Note_on_c, 0, 70, 80
2, 128728, Note_off_c, 0, 72, 100
2, 128736, Note_on_c, 0, 69, 80
2, 128768, Note_off_c, 0, 70, 100
2, 128784, Note_on_c, 0, 70, 80
2, 128820, Note_off_c, 0, 69, 100
2, 128832, Note_on_c, 0, 71, 79
2, 128868, Note_off_c, 0, 70, 100
2, 128880, Note_on_c, 0, 72, 79
2, 128916, Note_off_c, 0, 71, 100
2, 128928, Note_on_c, 0, 73, 79
2, 128964, Note_off_c, 0, 72, 100
2, 128976, Note_on_c, 0, 74, 78
2, 129008, Note_off_c, 0, 73, 100
2, 129024, Note_on_c, 0, 75, 78
2, 129068, Note_off_c, 0, 74, 100
2, 129072, Note_on_c, 0, 76, 78
2, 129108, Note_off_c, 0, 75, 100
2, 129120, Note_on_c, 0, 77, 77
2, 129164, Note_off_c, 0, 76, 100
2, 129168, Note_on_c, 0, 78, 77
2, 129200, Note_off_c, 0, 77, 100
2, 129216, Note_on_c, 0, 79, 77
2, 129248, Note_off_c, 0, 78, 100
2, 129264, Note_on_c, 0, 80, 76
2, 129296, Note_off_c, 0, 79, 100
2, 129312, Note_on_c, 0, 81, 76
2, 129344, Note_off_c, 0, 80, 100
2, 129360, Note_on_c, 0, 82, 76
2, 129388, Note_off_c, 0, 81, 100
2, 129408, Note_on_c, 0, 83, 75
2, 129436, Note_off_c, 0, 82, 100
2, 129472, Note_on_c, 0, 84, 75
2, 129516, Note_off_c, 0, 83, 100
2, 129536, Note_on_c, 0, 85, 74
2, 129592, Note_off_c, 0, 84, 100
2, 129600, Note_on_c, 0, 86, 74
2, 129648, Note_off_c, 0, 85, 100
2, 129664, Note_on_c, 0, 87, 73
2, 129716, Note_off_c, 0, 86, 100
2, 129728, Note_on_c, 0, 88, 73
2, 129764, Note_off_c, 0, 87, 100
2, 129788, Note_off_c, 0, 88, 100
2, 129792, Note_on_c, 0, 89, 73
2, 130076, Note_off_c, 0, 89, 100
2, 130080, Note_on_c, 0, 87, 71
2, 130172, Note_off_c, 0, 87, 100
2, 130176, Note_on_c, 0, 86, 80
2, 130200, Note_on_c, 0, 87, 80
2, 130220, Note_off_c, 0, 86, 100
2, 130224, Note_on_c, 0, 89, 80
2, 130244, Note_off_c, 0, 87, 100
2, 130248, Note_on_c, 0, 87, 80
2, 130268, Note_off_c, 0, 89, 100
2, 130364, Note_off_c, 0, 87, 100
2, 130368, Note_on_c, 0, 86, 80
2, 130652, Note_off_c, 0, 86, 100
2, 130656, Note_on_c, 0, 89, 80
2, 130748, Note_off_c, 0, 89, 100
2, 130752, Note_on_c, 0, 87, 80
2, 130844, Note_off_c, 0, 87, 100
2, 130848, Note_on_c, 0, 84, 80
2, 130940, Note_off_c, 0, 84, 100
2, 130944, Note_on_c, 0, 83, 80
2, 130968, Note_on_c, 0, 84, 80
2, 130988, Note_off_c, 0, 83, 100
2, 130992, Note_on_c, 0, 86, 80
2, 131012, Note_off_c, 0, 84, 100
2, 131016, Note_on_c, 0, 84, 80
2, 131036, Note_off_c, 0, 86, 100
2, 131132, Note_off_c, 0, 84, 100
2, 131136, Note_on_c, 0, 82, 80
2, 131420, Note_off_c, 0, 82, 100
2, 131424, Note_on_c, 0, 83, 80
2, 131516, Note_off_c, 0, 83, 100
2, 131520, Note_on_c, 0, 84, 80
2, 131612, Note_off_c, 0, 84, 100
2, 131616, Note_on_c, 0, 80, 80
2, 131708, Note_off_c, 0, 80, 100
2, 131712, Note_on_c, 0, 80, 80
2, 131804, Note_off_c, 0, 80, 100
2, 131808, Note_on_c, 0, 79, 80
2, 131900, Note_off_c, 0, 79, 100
2, 131904, Note_on_c, 0, 82, 80
2, 131904, Note_on_c, 0, 70, 80
2, 131996, Note_off_c, 0, 82, 100
2, 132000, Note_on_c, 0, 75, 80
2, 132092, Note_off_c, 0, 70, 100
2, 132092, Note_off_c, 0, 75, 100
2, 132096, Note_on_c, 0, 75, 80
2, 132096, Note_on_c, 0, 68, 80
2, 132188, Note_off_c, 0, 75, 100
2, 132192, Note_on_c, 0, 74, 80
2, 132284, Note_off_c, 0, 68, 100
2, 132284, Note_off_c, 0, 74, 100
2, 132288, Note_on_c, 0, 77, 80
2, 132288, Note_on_c, 0, 65, 80
2, 132380, Note_off_c, 0, 77, 100
2, 132384, Note_on_c, 0, 75, 80
2, 132476, Note_off_c, 0, 65, 100
2, 132476, Note_off_c, 0, 75, 100
2, 132480, Note_on_c, 0, 75, 80
2, 132480, Note_on_c, 0, 79, 80
2, 132668, Note_off_c, 0, 75, 100
2, 132668, Note_off_c, 0, 79, 100
2, 132672, Note_on_c, 0, 77, 80
2, 132672, Note_on_c, 0, 74, 80
2, 132860, Note_off_c, 0, 77, 100
2, 132860, Note_off_c, 0, 74, 100
2, 132960, Note_on_c, 0, 77, 80
2, 132960, Note_on_c, 0, 89, 80
2, 133148, Note_off_c, 0, 77, 100
2, 133148, Note_off_c, 0, 89, 100
2, 133152, Note_on_c, 0, 76, 82
2, 133152, Note_on_c, 0, 88, 82
2, 133340, Note_off_c, 0, 76, 100
2, 133340, Note_off_c, 0, 88, 100
2, 133344, Note_on_c, 0, 75, 84
2, 133344, Note_on_c, 0, 87, 84
2, 133532, Note_off_c, 0, 75, 100
2, 133532, Note_off_c, 0, 87, 100
2, 133536, Note_on_c, 0, 74, 86
2, 133536, Note_on_c, 0, 86, 86
2, 133724, Note_off_c, 0, 74, 100
2, 133724, Note_off_c, 0, 86, 100
2, 133728, Note_on_c, 0, 73, 88
2, 133728, Note_on_c, 0, 85, 88
2, 133916, Note_off_c, 0, 73, 100
2, 133916, Note_off_c, 0, 85, 100
2, 133920, Note_on_c, 0, 72, 90
2, 133920, Note_on_c, 0, 84, 90
2, 134108, Note_off_c, 0, 72, 100
2, 134108, Note_off_c, 0, 84, 100
2, 134112, Note_on_c, 0, 71, 92
2, 134112, Note_on_c, 0, 83, 92
2, 134300, Note_off_c, 0, 71, 100
2, 134300, Note_off_c, 0, 83, 100
2, 134304, Note_on_c, 0, 70, 94
2, 134304, Note_on_c, 0, 82, 94
2, 134492, Note_off_c, 0, 70, 100
2, 134492, Note_off_c, 0, 82, 100
2, 134496, Note_on_c, 0, 69, 96
2, 134496, Note_on_c, 0, 81, 96
2, 134684, Note_off_c, 0, 69, 100
2, 134684, Note_off_c, 0, 81, 100
2, 134688, Note_on_c, 0, 68, 98
2, 134688, Note_on_c, 0, 80, 98
2, 134876, Note_off_c, 0, 68, 100
2, 134876, Note_off_c, 0, 80, 100
2, 134880, Note_on_c, 0, 79, 80
2, 134880, Note_on_c, 0, 67, 80
2, 134972, Note_off_c, 0, 79, 100
2, 134972, Note_off_c, 0, 67, 100
2, 134976, Note_on_c, 0, 72, 80
2, 134976, Note_on_c, 0, 82, 80
2, 135036, Note_off_c, 0, 82, 100
2, 135040, Note_on_c, 0, 80, 81
2, 135100, Note_off_c, 0, 80, 100
2, 135104, Note_on_c, 0, 77, 81
2, 135164, Note_off_c, 0, 72, 100
2, 135164, Note_off_c, 0, 77, 100
2, 135168, Note_on_c, 0, 75, 82
2, 135168, Note_on_c, 0, 67, 82
2, 135260, Note_off_c, 0, 75, 100
2, 135264, Note_on_c, 0, 77, 83
2, 135288, Note_on_c, 0, 75, 83
2, 135308, Note_off_c, 0, 77, 100
2, 135312, Note_on_c, 0, 74, 83
2, 135332, Note_off_c, 0, 75, 100
2, 135336, Note_on_c, 0, 75, 83
2, 135356, Note_off_c, 0, 67, 100
2, 135356, Note_off_c, 0, 74, 100
2, 135360, Note_on_c, 0, 74, 83
2, 135360, Note_on_c, 0, 68, 83
2, 135360, Note_on_c, 0, 79, 83
2, 135380, Note_off_c, 0, 75, 100
2, 135452, Note_off_c, 0, 79, 100
2, 135456, Note_on_c, 0, 77, 84
2, 135548, Note_off_c, 0, 74, 100
2, 135548, Note_off_c, 0, 68, 100
2, 135548, Note_off_c, 0, 77, 100
2, 135552, Note_on_c, 0, 75, 85
2, 135552, Note_on_c, 0, 67, 85
2, 135740, Note_off_c, 0, 75, 100
2, 135740, Note_off_c, 0, 67, 100
2, 135936, Note_on_c, 0, 55, 88
2, 135980, Note_off_c, 0, 55, 100
2, 135984, Note_on_c, 0, 58, 89
2, 136028, Note_off_c, 0, 58, 100
2, 136032, Note_on_c, 0, 63, 89
2, 136076, Note_off_c, 0, 63, 100
2, 136080, Note_on_c, 0, 67, 89
2, 136124, Note_off_c, 0, 67, 100
2, 136128, Note_on_c, 0, 70, 90
2, 136172, Note_off_c, 0, 70, 100
2, 136176, Note_on_c, 0, 75, 90
2, 136220, Note_off_c, 0, 75, 100
2, 136224, Note_on_c, 0, 79, 91
2, 136268, Note_off_c, 0, 79, 100
2, 136272, Note_on_c, 0, 77, 91
2, 136316, Note_off_c, 0, 77, 100
2, 136320, Note_on_c, 0, 75, 91
2, 136508, Note_off_c, 0, 75, 100
2, 136512, Note_on_c, 0, 74, 93
2, 136700, Note_off_c, 0, 74, 100
2, 136704, Note_on_c, 0, 75, 94
2, 136796, Note_off_c, 0, 75, 100
2, 136800, Note_on_c, 0, 77, 95
2, 136892, Note_off_c, 0, 77, 100
2, 136896, Note_on_c, 0, 79, 96
2, 136988, Note_off_c, 0, 79, 100
2, 136992, Note_on_c, 0, 81, 97
2, 137084, Note_off_c, 0, 81, 100
2, 137088, Note_on_c, 0, 84, 98
2, 137276, Note_off_c, 0, 84, 100
2, 137280, Note_on_c, 0, 82, 99
2, 137468, Note_off_c, 0, 82, 100
2, 137472, Note_on_c, 0, 55, 101
2, 137516, Note_off_c, 0, 55, 100
2, 137520, Note_on_c, 0, 58, 101
2, 137564, Note_off_c, 0, 58, 100
2, 137568, Note_on_c, 0, 63, 102
2, 137612, Note_off_c, 0, 63, 100
2, 137616, Note_on_c, 0, 67, 102
2, 137660, Note_off_c, 0, 67, 100
2, 137664, Note_on_c, 0, 70, 102
2, 137708, Note_off_c, 0, 70, 100
2, 137712, Note_on_c, 0, 75, 103
2, 137756, Note_off_c, 0, 75, 100
2, 137760, Note_on_c, 0, 79, 103
2, 137804, Note_off_c, 0, 79, 100
2, 137808, Note_on_c, 0, 77, 104
2, 137852, Note_off_c, 0, 77, 100
2, 137856, Note_on_c, 0, 75, 104
2, 137900, Note_off_c, 0, 75, 100
2, 137904, Note_on_c, 0, 74, 104
2, 137948, Note_off_c, 0, 74, 100
2, 137952, Note_on_c, 0, 72, 105
2, 137996, Note_off_c, 0, 72, 100
2, 138000, Note_on_c, 0, 70, 105
2, 138044, Note_off_c, 0, 70, 100
2, 138048, Note_on_c, 0, 69, 106
2, 138092, Note_off_c, 0, 69, 100
2, 138096, Note_on_c, 0, 70, 106
2, 138140, Note_off_c, 0, 70, 100
2, 138144, Note_on_c, 0, 72, 106
2, 138188, Note_off_c, 0, 72, 100
2, 138192, Note_on_c, 0, 74, 107
2, 138236, Note_off_c, 0, 74, 100
2, 138240, Note_on_c, 0, 75, 107
2, 138332, Note_off_c, 0, 75, 100
2, 138336, Note_on_c, 0, 77, 108
2, 138336, Note_on_c, 0, 65, 108
2, 138428, Note_off_c, 0, 77, 100
2, 138428, Note_off_c, 0, 65, 100
2, 138432, Note_on_c, 0, 79, 109
2, 138432, Note_on_c, 0, 67, 109
2, 138524, Note_off_c, 0, 79, 100
2, 138524, Note_off_c, 0, 67, 100
2, 138528, Note_on_c, 0, 81, 109
2, 138528, Note_on_c, 0, 69, 109
2, 138620, Note_off_c, 0, 81, 100
2, 138620, Note_off_c, 0, 69, 100
2, 138624, Note_on_c, 0, 82, 110
2, 138624, Note_on_c, 0, 70, 110
2, 139388, Note_off_c, 0, 82, 100
2, 139388, Note_off_c, 0, 70, 100
2, 139392, Note_on_c, 0, 83, 70
2, 139392, Note_on_c, 0, 71, 70
2, 139772, Note_off_c, 0, 83, 100
2, 139772, Note_off_c, 0, 71, 100
2, 140544, Note_on_c, 0, 69, 70
2, 140544, Note_on_c, 0, 66, 70
2, 140544, Note_on_c, 0, 78, 70
2, 140828, Note_off_c, 0, 78, 100
2, 140832, Note_on_c, 0, 76, 70
2, 140924, Note_off_c, 0, 76, 100
2, 140928, Note_on_c, 0, 76, 70
2, 141116, Note_off_c, 0, 76, 100
2, 141120, Note_on_c, 0, 75, 70
2, 141404, Note_off_c, 0, 75, 100
2, 141408, Note_on_c, 0, 78, 70
2, 141500, Note_off_c, 0, 66, 100
2, 141500, Note_off_c, 0, 69, 100
2, 141500, Note_off_c, 0, 78, 100
2, 141504, Note_on_c, 0, 76, 70
2, 141504, Note_on_c, 0, 68, 70
2, 141596, Note_off_c, 0, 76, 100
2, 141600, Note_on_c, 0, 73, 70
2, 141692, Note_off_c, 0, 68, 100
2, 141692, Note_off_c, 0, 73, 100
2, 141696, Note_on_c, 0, 73, 70
2, 141696, Note_on_c, 0, 66, 70
2, 141884, Note_off_c, 0, 73, 100
2, 141888, Note_on_c, 0, 71, 70
2, 142076, Note_off_c, 0, 66, 100
2, 142172, Note_off_c, 0, 71, 100
2, 142176, Note_on_c, 0, 72, 70
2, 142268, Note_off_c, 0, 72, 100
2, 142272, Note_on_c, 0, 66, 70
2, 142272, Note_on_c, 0, 73, 70
2, 142364, Note_off_c, 0, 73, 100
2, 142368, Note_on_c, 0, 69, 70
2, 142460, Note_off_c, 0, 66, 100
2, 142460, Note_off_c, 0, 69, 100
2, 142464, Note_on_c, 0, 69, 70
2, 142556, Note_off_c, 0, 69, 100
2, 142560, Note_on_c, 0, 68, 70
2, 142652, Note_off_c, 0, 68, 100
2, 142656, Note_on_c, 0, 71, 70
2, 142748, Note_off_c, 0, 71, 100
2, 142752, Note_on_c, 0, 64, 70
2, 142844, Note_off_c, 0, 64, 100
2, 142848, Note_on_c, 0, 64, 70
2, 142940, Note_off_c, 0, 64, 100
2, 142944, Note_on_c, 0, 63, 70
2, 143036, Note_off_c, 0, 63, 100
2, 143040, Note_on_c, 0, 66, 70
2, 143132, Note_off_c, 0, 66, 100
2, 143136, Note_on_c, 0, 64, 70
2, 143228, Note_off_c, 0, 64, 100
2, 143232, Note_on_c, 0, 68, 70
2, 143324, Note_off_c, 0, 68, 100
2, 143328, Note_on_c, 0, 66, 70
2, 143420, Note_off_c, 0, 66, 100
2, 143424, Note_on_c, 0, 71, 70
2, 143516, Note_off_c, 0, 71, 100
2, 143520, Note_on_c, 0, 64, 70
2, 143612, Note_off_c, 0, 64, 100
2, 143616, Note_on_c, 0, 64, 70
2, 143708, Note_off_c, 0, 64, 100
2, 143712, Note_on_c, 0, 63, 70
2, 143804, Note_off_c, 0, 63, 100
2, 143808, Note_on_c, 0, 66, 70
2, 143900, Note_off_c, 0, 66, 100
2, 143904, Note_on_c, 0, 64, 70
2, 143996, Note_off_c, 0, 64, 100
2, 144384, Note_on_c, 0, 68, 110
2, 144384, Note_on_c, 0, 80, 110
2, 144860, Note_off_c, 0, 68, 100
2, 144860, Note_off_c, 0, 80, 100
2, 144864, Note_on_c, 0, 79, 80
2, 144864, Note_on_c, 0, 67, 80
2, 144956, Note_off_c, 0, 79, 100
2, 144956, Note_off_c, 0, 67, 100
2, 144960, Note_on_c, 0, 82, 81
2, 144960, Note_on_c, 0, 70, 81
2, 145052, Note_off_c, 0, 82, 100
2, 145052, Note_off_c, 0, 70, 100
2, 145056, Note_on_c, 0, 75, 82
2, 145056, Note_on_c, 0, 63, 82
2, 145148, Note_off_c, 0, 75, 100
2, 145148, Note_off_c, 0, 63, 100
2, 145152, Note_on_c, 0, 75, 84
2, 145152, Note_on_c, 0, 63, 84
2, 145244, Note_off_c, 0, 75, 100
2, 145244, Note_off_c, 0, 63, 100
2, 145248, Note_on_c, 0, 74, 85
2, 145248, Note_on_c, 0, 62, 85
2, 145340, Note_off_c, 0, 74, 100
2, 145340, Note_off_c, 0, 62, 100
2, 145344, Note_on_c, 0, 77, 86
2, 145344, Note_on_c, 0, 65, 86
2, 145436, Note_off_c, 0, 77, 100
2, 145436, Note_off_c, 0, 65, 100
2, 145440, Note_on_c, 0, 75, 88
2, 145440, Note_on_c, 0, 63, 88
2, 145532, Note_off_c, 0, 75, 100
2, 145532, Note_off_c, 0, 63, 100
2, 145536, Note_on_c, 0, 79, 89
2, 145536, Note_on_c, 0, 67, 89
2, 145628, Note_off_c, 0, 79, 100
2, 145628, Note_off_c, 0, 67, 100
2, 145632, Note_on_c, 0, 77, 90
2, 145632, Note_on_c, 0, 65, 90
2, 145724, Note_off_c, 0, 77, 100
2, 145724, Note_off_c, 0, 65, 100
2, 145728, Note_on_c, 0, 82, 92
2, 145728, Note_on_c, 0, 70, 92
2, 145820, Note_off_c, 0, 82, 100
2, 145820, Note_off_c, 0, 70, 100
2, 145824, Note_on_c, 0, 75, 93
2, 145824, Note_on_c, 0, 63, 93
2, 145916, Note_off_c, 0, 75, 100
2, 145916, Note_off_c, 0, 63, 100
2, 145920, Note_on_c, 0, 75, 94
2, 145920, Note_on_c, 0, 63, 94
2, 146012, Note_off_c, 0, 75, 100
2, 146012, Note_off_c, 0, 63, 100
2, 146016, Note_on_c, 0, 74, 96
2, 146016, Note_on_c, 0, 62, 96
2, 146108, Note_off_c, 0, 74, 100
2, 146108, Note_off_c, 0, 62, 100
2, 146112, Note_on_c, 0, 77, 97
2, 146112, Note_on_c, 0, 65, 97
2, 146204, Note_off_c, 0, 77, 100
2, 146204, Note_off_c, 0, 65, 100
2, 146208, Note_on_c, 0, 75, 99
2, 146208, Note_on_c, 0, 63, 99
2, 146300, Note_off_c, 0, 75, 100
2, 146300, Note_off_c, 0, 63, 100
2, 146304, Note_on_c, 0, 79, 100
2, 146304, Note_on_c, 0, 67, 100
2, 146396, Note_off_c, 0, 79, 100
2, 146396, Note_off_c, 0, 67, 100
2, 146400, Note_on_c, 0, 77, 101
2, 146400, Note_on_c, 0, 65, 101
2, 146492, Note_off_c, 0, 77, 100
2, 146492, Note_off_c, 0, 65, 100
2, 146496, Note_on_c, 0, 80, 103
2, 146496, Note_on_c, 0, 68, 103
2, 146588, Note_off_c, 0, 80, 100
2, 146588, Note_off_c, 0, 68, 100
2, 146592, Note_on_c, 0, 79, 104
2, 146592, Note_on_c, 0, 67, 104
2, 146684, Note_off_c, 0, 79, 100
2, 146684, Note_off_c, 0, 67, 100
2, 146688, Note_on_c, 0, 82, 105
2, 146688, Note_on_c, 0, 70, 105
2, 146780, Note_off_c, 0, 82, 100
2, 146780, Note_off_c, 0, 70, 100
2, 146784, Note_on_c, 0, 80, 107
2, 146784, Note_on_c, 0, 68, 107
2, 146876, Note_off_c, 0, 80, 100
2, 146876, Note_off_c, 0, 68, 100
2, 146880, Note_on_c, 0, 84, 108
2, 146880, Note_on_c, 0, 72, 108
2, 146972, Note_off_c, 0, 84, 100
2, 146972, Note_off_c, 0, 72, 100
2, 146976, Note_on_c, 0, 83, 109
2, 146976, Note_on_c, 0, 71, 109
2, 147068, Note_off_c, 0, 83, 100
2, 147068, Note_off_c, 0, 71, 100
2, 147072, Note_on_c, 0, 86, 100
2, 147072, Note_on_c, 0, 74, 100
2, 147164, Note_off_c, 0, 86, 100
2, 147164, Note_off_c, 0, 74, 100
2, 147168, Note_on_c, 0, 84, 98
2, 147168, Note_on_c, 0, 72, 98
2, 147260, Note_off_c, 0, 84, 100
2, 147260, Note_off_c, 0, 72, 100
2, 147264, Note_on_c, 0, 82, 95
2, 147264, Note_on_c, 0, 70, 95
2, 147356, Note_off_c, 0, 82, 100
2, 147356, Note_off_c, 0, 70, 100
2, 147360, Note_on_c, 0, 80, 92
2, 147360, Note_on_c, 0, 68, 92
2, 147452, Note_off_c, 0, 80, 100
2, 147452, Note_off_c, 0, 68, 100
2, 147456, Note_on_c, 0, 79, 89
2, 147456, Note_on_c, 0, 67, 89
2, 147548, Note_off_c, 0, 79, 100
2, 147548, Note_off_c, 0, 67, 100
2, 147552, Note_on_c, 0, 77, 86
2, 147552, Note_on_c, 0, 65, 86
2, 147644, Note_off_c, 0, 77, 100
2, 147644, Note_off_c, 0, 65, 100
2, 147648, Note_on_c, 0, 80, 83
2, 147648, Note_on_c, 0, 68, 83
2, 147740, Note_off_c, 0, 80, 100
2, 147740, Note_off_c, 0, 68, 100
2, 147744, Note_on_c, 0, 74, 81
2, 147744, Note_on_c, 0, 62, 81
2, 147836, Note_off_c, 0, 74, 100
2, 147836, Note_off_c, 0, 62, 100
2, 147840, Note_on_c, 0, 75, 80
2, 147840, Note_on_c, 0, 63, 80
2, 148220, Note_off_c, 0, 75, 100
2, 148220, Note_off_c, 0, 63, 100
2, 148416, Note_on_c, 0, 67, 80
2, 148460, Note_off_c, 0, 67, 100
2, 148464, Note_on_c, 0, 79, 80
2, 148604, Note_off_c, 0, 79, 100
2, 148608, Note_on_c, 0, 70, 80
2, 148652, Note_off_c, 0, 70, 100
2, 148656, Note_on_c, 0, 82, 80
2, 148988, Note_off_c, 0, 82, 100
2, 149184, Note_on_c, 0, 75, 80
2, 149228, Note_off_c, 0, 75, 100
2, 149232, Note_on_c, 0, 87, 80
2, 149372, Note_off_c, 0, 87, 100
2, 149376, Note_on_c, 0, 53, 80
2, 149420, Note_off_c, 0, 53, 100
2, 149424, Note_on_c, 0, 65, 80
2, 149756, Note_off_c, 0, 65, 100
2, 149952, Note_on_c, 0, 72, 80
2, 149996, Note_off_c, 0, 72, 100
2, 150000, Note_on_c, 0, 84, 80
2, 150140, Note_off_c, 0, 84, 100
2, 150144, Note_on_c, 0, 70, 80
2, 150144, Note_on_c, 0, 82, 80
2, 150620, Note_off_c, 0, 70, 100
2, 150620, Note_off_c, 0, 82, 100
2, 150624, Note_on_c, 0, 69, 80
2, 150624, Note_on_c, 0, 81, 80
2, 150716, Note_off_c, 0, 69, 100
2, 150716, Note_off_c, 0, 81, 100
2, 150720, Note_on_c, 0, 68, 80
2, 150720, Note_on_c, 0, 80, 80
2, 150812, Note_off_c, 0, 68, 100
2, 150812, Note_off_c, 0, 80, 100
2, 150816, Note_on_c, 0, 77, 80
2, 150816, Note_on_c, 0, 65, 80
2, 150908, Note_off_c, 0, 77, 100
2, 150908, Note_off_c, 0, 65, 100
2, 150912, Note_on_c, 0, 75, 80
2, 150912, Note_on_c, 0, 63, 80
2, 151292, Note_off_c, 0, 75, 100
2, 151292, Note_off_c, 0, 63, 100
2, 151488, Note_on_c, 0, 67, 86
2, 151532, Note_off_c, 0, 67, 100
2, 151536, Note_on_c, 0, 79, 86
2, 151676, Note_off_c, 0, 79, 100
2, 151680, Note_on_c, 0, 70, 88
2, 151724, Note_off_c, 0, 70, 100
2, 151728, Note_on_c, 0, 82, 88
2, 152060, Note_off_c, 0, 82, 100
2, 152256, Note_on_c, 0, 75, 93
2, 152300, Note_off_c, 0, 75, 100
2, 152304, Note_on_c, 0, 87, 94
2, 152444, Note_off_c, 0, 87, 100
2, 152448, Note_on_c, 0, 56, 95
2, 152492, Note_off_c, 0, 56, 100
2, 152496, Note_on_c, 0, 68, 96
2, 152828, Note_off_c, 0, 68, 100
2, 153024, Note_on_c, 0, 75, 101
2, 153068, Note_off_c, 0, 75, 100
2, 153072, Note_on_c, 0, 87, 101
2, 153212, Note_off_c, 0, 87, 100
2, 153216, Note_on_c, 0, 57, 103
2, 153260, Note_off_c, 0, 57, 100
2, 153264, Note_on_c, 0, 69, 103
2, 153596, Note_off_c, 0, 69, 100
2, 153792, Note_on_c, 0, 75, 109
2, 153836, Note_off_c, 0, 75, 100
2, 153840, Note_on_c, 0, 87, 109
2, 153980, Note_off_c, 0, 87, 100
2, 153984, Note_on_c, 0, 58, 110
2, 153984, Note_on_c, 0, 70, 110
2, 154172, Note_off_c, 0, 58, 100
2, 154172, Note_off_c, 0, 70, 100
2, 154176, Note_on_c, 0, 70, 107
2, 154176, Note_on_c, 0, 82, 107
2, 154556, Note_off_c, 0, 70, 100
2, 154556, Note_off_c, 0, 82, 100
2, 154560, Note_on_c, 0, 68, 102
2, 154560, Note_on_c, 0, 80, 102
2, 154652, Note_off_c, 0, 68, 100
2, 154652, Note_off_c, 0, 80, 100
2, 154656, Note_on_c, 0, 79, 101
2, 154656, Note_on_c, 0, 67, 101
2, 154748, Note_off_c, 0, 79, 100
2, 154748, Note_off_c, 0, 67, 100
2, 154752, Note_on_c, 0, 79, 90
2, 154752, Note_on_c, 0, 67, 90
2, 155228, Note_off_c, 0, 79, 100
2, 155228, Note_off_c, 0, 67, 100
2, 155232, Note_on_c, 0, 77, 83
2, 155232, Note_on_c, 0, 65, 83
2, 155324, Note_off_c, 0, 77, 100
2, 155324, Note_off_c, 0, 65, 100
2, 155328, Note_on_c, 0, 80, 82
2, 155328, Note_on_c, 0, 68, 82
2, 155420, Note_off_c, 0, 80, 100
2, 155420, Note_off_c, 0, 68, 100
2, 155424, Note_on_c, 0, 74, 81
2, 155424, Note_on_c, 0, 62, 81
2, 155516, Note_off_c, 0, 74, 100
2, 155516, Note_off_c, 0, 62, 100
2, 155520, Note_on_c, 0, 75, 80
2, 155520, Note_on_c, 0, 63, 80
2, 155900, Note_off_c, 0, 75, 100
2, 155900, Note_off_c, 0, 63, 100
2, 156096, Note_on_c, 0, 67, 79
2, 156096, Note_on_c, 0, 79, 79
2, 156476, Note_off_c, 0, 67, 100
2, 156476, Note_off_c, 0, 79, 100
2, 156480, Note_on_c, 0, 65, 78
2, 156480, Note_on_c, 0, 77, 78
2, 156668, Note_off_c, 0, 65, 100
2, 156668, Note_off_c, 0, 77, 100
2, 156864, Note_on_c, 0, 70, 77
2, 156908, Note_off_c, 0, 70, 100
2, 156912, Note_on_c, 0, 82, 77
2, 157052, Note_off_c, 0, 82, 100
2, 157056, Note_on_c, 0, 75, 77
2, 157100, Note_off_c, 0, 75, 100
2, 157104, Note_on_c, 0, 87, 77
2, 157436, Note_off_c, 0, 87, 100
2, 157632, Note_on_c, 0, 67, 76
2, 157632, Note_on_c, 0, 79, 76
2, 158012, Note_off_c, 0, 67, 100
2, 158012, Note_off_c, 0, 79, 100
2, 158016, Note_on_c, 0, 77, 75
2, 158016, Note_on_c, 0, 65, 75
2, 158204, Note_off_c, 0, 77, 100
2, 158204, Note_off_c, 0, 65, 100
2, 158400, Note_on_c, 0, 70, 74
2, 158444, Note_off_c, 0, 70, 100
2, 158448, Note_on_c, 0, 82, 74
2, 158588, Note_off_c, 0, 82, 100
2, 158592, Note_on_c, 0, 63, 74
2, 158636, Note_off_c, 0, 63, 100
2, 158640, Note_on_c, 0, 75, 74
2, 158972, Note_off_c, 0, 75, 100
2, 159168, Note_on_c, 0, 67, 72
2, 159212, Note_off_c, 0, 67, 100
2, 159216, Note_on_c, 0, 79, 72
2, 159356, Note_off_c, 0, 79, 100
2, 159360, Note_on_c, 0, 70, 72
2, 159404, Note_off_c, 0, 70, 100
2, 159408, Note_on_c, 0, 82, 72
2, 159548, Note_off_c, 0, 82, 100
2, 159936, Note_on_c, 0, 75, 71
2, 159980, Note_off_c, 0, 75, 100
2, 159984, Note_on_c, 0, 87, 71
2, 160124, Note_off_c, 0, 87, 100
2, 160128, Note_on_c, 0, 55, 70
2, 160128, Note_on_c, 0, 63, 70
2, 160316, Note_off_c, 0, 55, 100
2, 160316, Note_off_c, 0, 63, 100
2, 160512, Note_on_c, 0, 63, 70
2, 160512, Note_on_c, 0, 58, 70
2, 160512, Note_on_c, 0, 55, 70
2, 160700, Note_off_c, 0, 63, 100
2, 160700, Note_off_c, 0, 58, 100
2, 160700, Note_off_c, 0, 55, 100
2, 160992, Note_on_c, 0, 63, 70
2, 160992, Note_on_c, 0, 58, 70
2, 160992, Note_on_c, 0, 55, 70
2, 161756, Note_off_c, 0, 55, 100
2, 161756, Note_off_c, 0, 58, 100
2, 161756, Note_off_c, 0, 63, 100
2, 162048, Control_c, 0, 7, 0
2, 162240, Note_on_c, 0, 63, 1
2, 162428, Note_off_c, 0, 63, 100
2, 162428, End_track
3, 0, Start_track
3, 0, Title_t, "Left"
3, 0, Control_c, 1, 0, 0
3, 0, Program_c, 1, 0
3, 0, Control_c, 1, 7, 100
3, 0, Control_c, 1, 10, 54
3, 0, Control_c, 1, 91, 127
3, 0, Key_signature, -3, "minor"
3, 384, Note_on_c, 1, 46, 80
3, 476, Note_off_c, 1, 46, 100
3, 480, Note_on_c, 1, 58, 80
3, 572, Note_off_c, 1, 58, 100
3, 576, Note_on_c, 1, 58, 80
3, 668, Note_off_c, 1, 58, 100
3, 672, Note_on_c, 1, 58, 80
3, 764, Note_off_c, 1, 58, 100
3, 768, Note_on_c, 1, 58, 80
3, 860, Note_off_c, 1, 58, 100
3, 864, Note_on_c, 1, 58, 80
3, 956, Note_off_c, 1, 58, 100
3, 960, Note_on_c, 1, 63, 80
3, 1056, Note_on_c, 1, 58, 80
3, 1148, Note_off_c, 1, 63, 100
3, 1148, Note_off_c, 1, 58, 100
3, 1152, Note_on_c, 1, 62, 80
3, 1248, Note_on_c, 1, 58, 80
3, 1340, Note_off_c, 1, 58, 100
3, 1344, Note_on_c, 1, 58, 80
3, 1436, Note_off_c, 1, 58, 100
3, 1440, Note_on_c, 1, 58, 80
3, 1532, Note_off_c, 1, 62, 100
3, 1532, Note_off_c, 1, 58, 100
3, 1536, Note_on_c, 1, 58, 80
3, 1628, Note_off_c, 1, 58, 100
3, 1632, Note_on_c, 1, 58, 80
3, 1724, Note_off_c, 1, 58, 100
3, 1728, Note_on_c, 1, 50, 80
3, 1820, Note_off_c, 1, 50, 100
3, 1824, Note_on_c, 1, 58, 80
3, 1916, Note_off_c, 1, 58, 100
3, 1920, Note_on_c, 1, 51, 80
3, 2012, Note_off_c, 1, 51, 100
3, 2016, Note_on_c, 1, 58, 80
3, 2108, Note_off_c, 1, 58, 100
3, 2112, Note_on_c, 1, 55, 80
3, 2204, Note_off_c, 1, 55, 100
3, 2208, Note_on_c, 1, 58, 80
3, 2300, Note_off_c, 1, 58, 100
3, 2304, Note_on_c, 1, 53, 80
3, 2304, Note_on_c, 1, 56, 80
3, 2396, Note_off_c, 1, 53, 100
3, 2396, Note_off_c, 1, 56, 100
3, 2400, Note_on_c, 1, 58, 80
3, 2492, Note_off_c, 1, 58, 100
3, 2496, Note_on_c, 1, 55, 80
3, 2496, Note_on_c, 1, 51, 80
3, 2588, Note_off_c, 1, 55, 100
3, 2588, Note_off_c, 1, 51, 100
3, 2592, Note_on_c, 1, 58, 80
3, 2684, Note_off_c, 1, 58, 100
3, 2688, Note_on_c, 1, 46, 80
3, 2780, Note_off_c, 1, 46, 100
3, 2784, Note_on_c, 1, 58, 80
3, 2876, Note_off_c, 1, 58, 100
3, 2880, Note_on_c, 1, 58, 80
3, 2972, Note_off_c, 1, 58, 100
3, 2976, Note_on_c, 1, 58, 80
3, 3068, Note_off_c, 1, 58, 100
3, 3072, Note_on_c, 1, 72, 80
3, 3072, Note_on_c, 1, 68, 80
3, 3164, Note_off_c, 1, 72, 100
3, 3164, Note_off_c, 1, 68, 100
3, 3168, Note_on_c, 1, 58, 80
3, 3260, Note_off_c, 1, 58, 100
3, 3264, Note_on_c, 1, 67, 80
3, 3264, Note_on_c, 1, 70, 80
3, 3356, Note_off_c, 1, 67, 100
3, 3356, Note_off_c, 1, 70, 100
3, 3360, Note_on_c, 1, 58, 80
3, 3452, Note_off_c, 1, 58, 100
3, 3456, Note_on_c, 1, 65, 80
3, 3456, Note_on_c, 1, 68, 80
3, 3548, Note_off_c, 1, 65, 100
3, 3552, Note_on_c, 1, 58, 80
3, 3644, Note_off_c, 1, 58, 100
3, 3648, Note_on_c, 1, 58, 80
3, 3740, Note_off_c, 1, 58, 100
3, 3744, Note_on_c, 1, 58, 80
3, 3836, Note_off_c, 1, 68, 100
3, 3836, Note_off_c, 1, 58, 100
3, 3840, Note_on_c, 1, 65, 80
3, 3840, Note_on_c, 1, 68, 80
3, 3932, Note_off_c, 1, 65, 100
3, 3936, Note_on_c, 1, 58, 80
3, 4028, Note_off_c, 1, 68, 100
3, 4028, Note_off_c, 1, 58, 100
3, 4032, Note_on_c, 1, 63, 80
3, 4032, Note_on_c, 1, 67, 80
3, 4124, Note_off_c, 1, 63, 100
3, 4128, Note_on_c, 1, 58, 80
3, 4220, Note_off_c, 1, 67, 100
3, 4220, Note_off_c, 1, 58, 100
3, 4224, Note_on_c, 1, 65, 80
3, 4224, Note_on_c, 1, 62, 80
3, 4316, Note_off_c, 1, 62, 100
3, 4320, Note_on_c, 1, 58, 80
3, 4412, Note_off_c, 1, 58, 100
3, 4416, Note_on_c, 1, 58, 80
3, 4508, Note_off_c, 1, 58, 100
3, 4512, Note_on_c, 1, 58, 80
3, 4604, Note_off_c, 1, 65, 100
3, 4604, Note_off_c, 1, 58, 100
3, 4608, Note_on_c, 1, 58, 80
3, 4700, Note_off_c, 1, 58, 100
3, 4704, Note_on_c, 1, 58, 80
3, 4796, Note_off_c, 1, 58, 100
3, 4800, Note_on_c, 1, 50, 80
3, 4892, Note_off_c, 1, 50, 100
3, 4896, Note_on_c, 1, 58, 80
3, 4988, Note_off_c, 1, 58, 100
3, 4992, Note_on_c, 1, 51, 80
3, 5084, Note_off_c, 1, 51, 100
3, 5088, Note_on_c, 1, 55, 80
3, 5180, Note_off_c, 1, 55, 100
3, 5184, Note_on_c, 1, 44, 80
3, 5276, Note_off_c, 1, 44, 100
3, 5280, Note_on_c, 1, 56, 80
3, 5372, Note_off_c, 1, 56, 100
3, 5376, Note_on_c, 1, 46, 80
3, 5468, Note_off_c, 1, 46, 100
3, 5472, Note_on_c, 1, 46, 80
3, 5564, Note_off_c, 1, 46, 100
3, 5568, Note_on_c, 1, 34, 80
3, 5660, Note_off_c, 1, 34, 100
3, 5664, Note_on_c, 1, 46, 80
3, 5756, Note_off_c, 1, 46, 100
3, 5760, Note_on_c, 1, 39, 80
3, 5948, Note_off_c, 1, 39, 100
3, 5952, Note_on_c, 1, 51, 80
3, 6140, Note_off_c, 1, 51, 100
3, 6240, Note_on_c, 1, 58, 80
3, 6332, Note_off_c, 1, 58, 100
3, 6336, Note_on_c, 1, 55, 81
3, 6432, Note_on_c, 1, 58, 82
3, 6524, Note_off_c, 1, 55, 100
3, 6524, Note_off_c, 1, 58, 100
3, 6528, Note_on_c, 1, 56, 83
3, 6624, Note_on_c, 1, 58, 84
3, 6716, Note_off_c, 1, 56, 100
3, 6716, Note_off_c, 1, 58, 100
3, 6720, Note_on_c, 1, 53, 84
3, 6816, Note_on_c, 1, 58, 85
3, 6908, Note_off_c, 1, 53, 100
3, 6908, Note_off_c, 1, 58, 100
3, 6912, Note_on_c, 1, 55, 86
3, 7008, Note_on_c, 1, 58, 87
3, 7100, Note_off_c, 1, 55, 100
3, 7100, Note_off_c, 1, 58, 100
3, 7104, Note_on_c, 1, 51, 88
3, 7200, Note_on_c, 1, 58, 89
3, 7292, Note_off_c, 1, 51, 100
3, 7292, Note_off_c, 1, 58, 100
3, 7296, Note_on_c, 1, 46, 89
3, 7388, Note_off_c, 1, 46, 100
3, 7392, Note_on_c, 1, 58, 90
3, 7484, Note_off_c, 1, 58, 100
3, 7488, Note_on_c, 1, 58, 91
3, 7580, Note_off_c, 1, 58, 100
3, 7584, Note_on_c, 1, 58, 92
3, 7676, Note_off_c, 1, 58, 100
3, 7776, Note_on_c, 1, 58, 94
3, 7868, Note_off_c, 1, 58, 100
3, 7872, Note_on_c, 1, 55, 94
3, 7968, Note_on_c, 1, 58, 95
3, 8060, Note_off_c, 1, 55, 100
3, 8060, Note_off_c, 1, 58, 100
3, 8064, Note_on_c, 1, 56, 96
3, 8160, Note_on_c, 1, 58, 97
3, 8252, Note_off_c, 1, 56, 100
3, 8252, Note_off_c, 1, 58, 100
3, 8256, Note_on_c, 1, 53, 98
3, 8352, Note_on_c, 1, 58, 99
3, 8444, Note_off_c, 1, 53, 100
3, 8444, Note_off_c, 1, 58, 100
3, 8448, Note_on_c, 1, 55, 99
3, 8544, Note_on_c, 1, 58, 100
3, 8636, Note_off_c, 1, 55, 100
3, 8636, Note_off_c, 1, 58, 100
3, 8640, Note_on_c, 1, 51, 101
3, 8736, Note_on_c, 1, 58, 102
3, 8828, Note_off_c, 1, 51, 100
3, 8828, Note_off_c, 1, 58, 100
3, 8832, Note_on_c, 1, 58, 103
3, 8832, Note_on_c, 1, 46, 103
3, 9980, Note_off_c, 1, 46, 100
3, 9980, Note_off_c, 1, 58, 100
3, 9984, Note_on_c, 1, 72, 80
3, 9984, Note_on_c, 1, 68, 80
3, 10076, Note_off_c, 1, 72, 100
3, 10076, Note_off_c, 1, 68, 100
3, 10080, Note_on_c, 1, 58, 80
3, 10172, Note_off_c, 1, 58, 100
3, 10176, Note_on_c, 1, 67, 81
3, 10176, Note_on_c, 1, 70, 81
3, 10268, Note_off_c, 1, 67, 100
3, 10268, Note_off_c, 1, 70, 100
3, 10272, Note_on_c, 1, 58, 81
3, 10364, Note_off_c, 1, 58, 100
3, 10368, Note_on_c, 1, 65, 82
3, 10368, Note_on_c, 1, 68, 82
3, 10460, Note_off_c, 1, 65, 100
3, 10464, Note_on_c, 1, 58, 83
3, 10556, Note_off_c, 1, 58, 100
3, 10560, Note_on_c, 1, 58, 83
3, 10652, Note_off_c, 1, 58, 100
3, 10656, Note_on_c, 1, 58, 84
3, 10748, Note_off_c, 1, 68, 100
3, 10748, Note_off_c, 1, 58, 100
3, 10752, Note_on_c, 1, 65, 85
3, 10752, Note_on_c, 1, 68, 85
3, 10844, Note_off_c, 1, 65, 100
3, 10848, Note_on_c, 1, 58, 85
3, 10940, Note_off_c, 1, 68, 100
3, 10940, Note_off_c, 1, 58, 100
3, 10944, Note_on_c, 1, 63, 86
3, 10944, Note_on_c, 1, 67, 86
3, 11036, Note_off_c, 1, 63, 100
3, 11040, Note_on_c, 1, 58, 87
3, 11132, Note_off_c, 1, 67, 100
3, 11132, Note_off_c, 1, 58, 100
3, 11136, Note_on_c, 1, 65, 87
3, 11136, Note_on_c, 1, 62, 87
3, 11228, Note_off_c, 1, 62, 100
3, 11232, Note_on_c, 1, 58, 88
3, 11324, Note_off_c, 1, 58, 100
3, 11328, Note_on_c, 1, 58, 89
3, 11420, Note_off_c, 1, 58, 100
3, 11424, Note_on_c, 1, 58, 89
3, 11516, Note_off_c, 1, 65, 100
3, 11516, Note_off_c, 1, 58, 100
3, 11520, Note_on_c, 1, 58, 90
3, 11612, Note_off_c, 1, 58, 100
3, 11616, Note_on_c, 1, 58, 91
3, 11708, Note_off_c, 1, 58, 100
3, 11712, Note_on_c, 1, 50, 91
3, 11712, Note_on_c, 1, 62, 91
3, 11804, Note_off_c, 1, 50, 100
3, 11804, Note_off_c, 1, 62, 100
3, 11808, Note_on_c, 1, 58, 92
3, 11900, Note_off_c, 1, 58, 100
3, 11904, Note_on_c, 1, 51, 93
3, 11904, Note_on_c, 1, 63, 93
3, 11996, Note_off_c, 1, 51, 100
3, 11996, Note_off_c, 1, 63, 100
3, 12000, Note_on_c, 1, 55, 93
3, 12092, Note_off_c, 1, 55, 100
3, 12096, Note_on_c, 1, 44, 94
3, 12188, Note_off_c, 1, 44, 100
3, 12192, Note_on_c, 1, 56, 95
3, 12284, Note_off_c, 1, 56, 100
3, 12288, Note_on_c, 1, 46, 95
3, 12380, Note_off_c, 1, 46, 100
3, 12384, Note_on_c, 1, 58, 96
3, 12476, Note_off_c, 1, 58, 100
3, 12480, Note_on_c, 1, 34, 97
3, 12572, Note_off_c, 1, 34, 100
3, 12576, Note_on_c, 1, 46, 97
3, 12668, Note_off_c, 1, 46, 100
3, 12672, Note_on_c, 1, 39, 98
3, 12860, Note_off_c, 1, 39, 100
3, 12864, Note_on_c, 1, 51, 99
3, 13052, Note_off_c, 1, 51, 100
3, 13056, Note_on_c, 1, 31, 111
3, 13104, Note_on_c, 1, 34, 111
3, 13132, Note_off_c, 1, 31, 100
3, 13152, Note_on_c, 1, 58, 100
3, 13152, Note_on_c, 1, 39, 111
3, 13188, Note_off_c, 1, 34, 100
3, 13200, Note_on_c, 1, 43, 112
3, 13236, Note_off_c, 1, 39, 100
3, 13244, Note_off_c, 1, 58, 100
3, 13248, Note_on_c, 1, 58, 100
3, 13248, Note_on_c, 1, 46, 110
3, 13284, Note_off_c, 1, 43, 100
3, 13296, Note_on_c, 1, 51, 110
3, 13320, Note_off_c, 1, 46, 100
3, 13340, Note_off_c, 1, 58, 100
3, 13344, Note_on_c, 1, 58, 100
3, 13344, Note_on_c, 1, 55, 111
3, 13376, Note_off_c, 1, 51, 100
3, 13392, Note_on_c, 1, 53, 110
3, 13428, Note_off_c, 1, 55, 100
3, 13436, Note_off_c, 1, 58, 100
3, 13440, Note_on_c, 1, 51, 110
3, 13440, Note_on_c, 1, 56, 100
3, 13440, Note_on_c, 1, 58, 100
3, 13472, Note_off_c, 1, 53, 100
3, 13532, Note_off_c, 1, 56, 100
3, 13532, Note_off_c, 1, 58, 100
3, 13536, Note_on_c, 1, 56, 100
3, 13536, Note_on_c, 1, 58, 100
3, 13628, Note_off_c, 1, 51, 100
3, 13628, Note_off_c, 1, 56, 100
3, 13628, Note_off_c, 1, 58, 100
3, 13632, Note_on_c, 1, 50, 110
3, 13632, Note_on_c, 1, 56, 100
3, 13632, Note_on_c, 1, 58, 100
3, 13724, Note_off_c, 1, 56, 100
3, 13724, Note_off_c, 1, 58, 100
3, 13728, Note_on_c, 1, 56, 100
3, 13728, Note_on_c, 1, 58, 100
3, 13820, Note_off_c, 1, 50, 100
3, 13820, Note_off_c, 1, 56, 100
3, 13820, Note_off_c, 1, 58, 100
3, 13824, Note_on_c, 1, 55, 100
3, 13824, Note_on_c, 1, 58, 100
3, 13916, Note_off_c, 1, 55, 100
3, 13916, Note_off_c, 1, 58, 100
3, 13920, Note_on_c, 1, 55, 100
3, 13920, Note_on_c, 1, 58, 100
3, 14012, Note_off_c, 1, 55, 100
3, 14012, Note_off_c, 1, 58, 100
3, 14016, Note_on_c, 1, 55, 100
3, 14016, Note_on_c, 1, 58, 100
3, 14108, Note_off_c, 1, 55, 100
3, 14108, Note_off_c, 1, 58, 100
3, 14112, Note_on_c, 1, 55, 100
3, 14112, Note_on_c, 1, 58, 100
3, 14204, Note_off_c, 1, 55, 100
3, 14204, Note_off_c, 1, 58, 100
3, 14208, Note_on_c, 1, 56, 100
3, 14208, Note_on_c, 1, 58, 100
3, 14300, Note_off_c, 1, 56, 100
3, 14300, Note_off_c, 1, 58, 100
3, 14304, Note_on_c, 1, 56, 100
3, 14304, Note_on_c, 1, 58, 100
3, 14396, Note_off_c, 1, 56, 100
3, 14396, Note_off_c, 1, 58, 100
3, 14400, Note_on_c, 1, 56, 100
3, 14400, Note_on_c, 1, 58, 100
3, 14492, Note_off_c, 1, 56, 100
3, 14492, Note_off_c, 1, 58, 100
3, 14496, Note_on_c, 1, 56, 100
3, 14496, Note_on_c, 1, 58, 100
3, 14588, Note_off_c, 1, 56, 100
3, 14588, Note_off_c, 1, 58, 100
3, 14592, Note_on_c, 1, 55, 100
3, 14592, Note_on_c, 1, 58, 100
3, 14592, Note_on_c, 1, 31, 112
3, 14640, Note_on_c, 1, 34, 110
3, 14668, Note_off_c, 1, 31, 100
3, 14684, Note_off_c, 1, 55, 100
3, 14684, Note_off_c, 1, 58, 100
3, 14688, Note_on_c, 1, 55, 100
3, 14688, Note_on_c, 1, 58, 100
3, 14688, Note_on_c, 1, 39, 112
3, 14732, Note_off_c, 1, 34, 100
3, 14736, Note_on_c, 1, 43, 111
3, 14760, Note_off_c, 1, 39, 100
3, 14780, Note_off_c, 1, 55, 100
3, 14780, Note_off_c, 1, 58, 100
3, 14784, Note_on_c, 1, 55, 100
3, 14784, Note_on_c, 1, 58, 100
3, 14784, Note_on_c, 1, 46, 111
3, 14812, Note_off_c, 1, 43, 100
3, 14832, Note_on_c, 1, 51, 110
3, 14868, Note_off_c, 1, 46, 100
3, 14876, Note_off_c, 1, 55, 100
3, 14876, Note_off_c, 1, 58, 100
3, 14880, Note_on_c, 1, 55, 110
3, 14880, Note_on_c, 1, 58, 100
3, 14916, Note_off_c, 1, 51, 100
3, 14928, Note_on_c, 1, 53, 110
3, 14972, Note_off_c, 1, 55, 100
3, 14972, Note_off_c, 1, 58, 100
3, 14972, Note_off_c, 1, 53, 100
3, 14976, Note_on_c, 1, 56, 100
3, 14976, Note_on_c, 1, 58, 100
3, 14976, Note_on_c, 1, 51, 111
3, 15068, Note_off_c, 1, 56, 100
3, 15068, Note_off_c, 1, 58, 100
3, 15072, Note_on_c, 1, 56, 100
3, 15072, Note_on_c, 1, 58, 100
3, 15164, Note_off_c, 1, 51, 100
3, 15164, Note_off_c, 1, 56, 100
3, 15164, Note_off_c, 1, 58, 100
3, 15168, Note_on_c, 1, 56, 100
3, 15168, Note_on_c, 1, 58, 100
3, 15168, Note_on_c, 1, 50, 110
3, 15260, Note_off_c, 1, 56, 100
3, 15260, Note_off_c, 1, 58, 100
3, 15264, Note_on_c, 1, 56, 100
3, 15264, Note_on_c, 1, 58, 100
3, 15356, Note_off_c, 1, 50, 100
3, 15356, Note_off_c, 1, 56, 100
3, 15356, Note_off_c, 1, 58, 100
3, 15360, Note_on_c, 1, 53, 100
3, 15360, Note_on_c, 1, 56, 100
3, 15360, Note_on_c, 1, 59, 100
3, 15452, Note_off_c, 1, 53, 100
3, 15452, Note_off_c, 1, 56, 100
3, 15452, Note_off_c, 1, 59, 100
3, 15456, Note_on_c, 1, 53, 100
3, 15456, Note_on_c, 1, 56, 100
3, 15456, Note_on_c, 1, 59, 100
3, 15548, Note_off_c, 1, 53, 100
3, 15548, Note_off_c, 1, 56, 100
3, 15548, Note_off_c, 1, 59, 100
3, 15552, Note_on_c, 1, 53, 100
3, 15552, Note_on_c, 1, 56, 100
3, 15552, Note_on_c, 1, 59, 100
3, 15644, Note_off_c, 1, 53, 100
3, 15644, Note_off_c, 1, 56, 100
3, 15644, Note_off_c, 1, 59, 100
3, 15648, Note_on_c, 1, 53, 100
3, 15648, Note_on_c, 1, 56, 100
3, 15648, Note_on_c, 1, 59, 100
3, 15740, Note_off_c, 1, 53, 100
3, 15740, Note_off_c, 1, 56, 100
3, 15740, Note_off_c, 1, 59, 100
3, 15744, Note_on_c, 1, 53, 100
3, 15744, Note_on_c, 1, 55, 100
3, 15744, Note_on_c, 1, 59, 100
3, 15836, Note_off_c, 1, 53, 100
3, 15836, Note_off_c, 1, 55, 100
3, 15836, Note_off_c, 1, 59, 100
3, 15840, Note_on_c, 1, 53, 100
3, 15840, Note_on_c, 1, 55, 100
3, 15840, Note_on_c, 1, 59, 100
3, 15932, Note_off_c, 1, 53, 100
3, 15932, Note_off_c, 1, 55, 100
3, 15932, Note_off_c, 1, 59, 100
3, 15936, Note_on_c, 1, 55, 100
3, 15936, Note_on_c, 1, 60, 100
3, 16028, Note_off_c, 1, 55, 100
3, 16028, Note_off_c, 1, 60, 100
3, 16032, Note_on_c, 1, 55, 100
3, 16032, Note_on_c, 1, 60, 100
3, 16124, Note_off_c, 1, 55, 100
3, 16124, Note_off_c, 1, 60, 100
3, 16128, Note_on_c, 1, 55, 100
3, 16128, Note_on_c, 1, 60, 100
3, 16128, Note_on_c, 1, 63, 100
3, 16176, Note_on_c, 1, 31, 111
3, 16220, Note_off_c, 1, 55, 100
3, 16220, Note_off_c, 1, 60, 100
3, 16220, Note_off_c, 1, 63, 100
3, 16224, Note_on_c, 1, 55, 100
3, 16224, Note_on_c, 1, 60, 100
3, 16224, Note_on_c, 1, 63, 100
3, 16224, Note_on_c, 1, 36, 112
3, 16264, Note_off_c, 1, 31, 100
3, 16272, Note_on_c, 1, 39, 111
3, 16308, Note_off_c, 1, 36, 100
3, 16316, Note_off_c, 1, 55, 100
3, 16316, Note_off_c, 1, 60, 100
3, 16316, Note_off_c, 1, 63, 100
3, 16320, Note_on_c, 1, 55, 100
3, 16320, Note_on_c, 1, 60, 100
3, 16320, Note_on_c, 1, 63, 100
3, 16320, Note_on_c, 1, 43, 110
3, 16360, Note_off_c, 1, 39, 100
3, 16368, Note_on_c, 1, 48, 110
3, 16396, Note_off_c, 1, 43, 100
3, 16412, Note_off_c, 1, 55, 100
3, 16412, Note_off_c, 1, 60, 100
3, 16412, Note_off_c, 1, 63, 100
3, 16416, Note_on_c, 1, 55, 100
3, 16416, Note_on_c, 1, 60, 100
3, 16416, Note_on_c, 1, 63, 100
3, 16416, Note_on_c, 1, 51, 111
3, 16456, Note_off_c, 1, 48, 100
3, 16464, Note_on_c, 1, 50, 110
3, 16504, Note_off_c, 1, 51, 100
3, 16508, Note_off_c, 1, 55, 100
3, 16508, Note_off_c, 1, 60, 100
3, 16508, Note_off_c, 1, 63, 100
3, 16508, Note_off_c, 1, 50, 100
3, 16512, Note_on_c, 1, 48, 110
3, 16512, Note_on_c, 1, 55, 100
3, 16512, Note_on_c, 1, 62, 100
3, 16512, Note_on_c, 1, 65, 100
3, 16604, Note_off_c, 1, 55, 100
3, 16604, Note_off_c, 1, 62, 100
3, 16604, Note_off_c, 1, 65, 100
3, 16608, Note_on_c, 1, 55, 100
3, 16608, Note_on_c, 1, 62, 100
3, 16608, Note_on_c, 1, 65, 100
3, 16700, Note_off_c, 1, 48, 100
3, 16700, Note_off_c, 1, 55, 100
3, 16700, Note_off_c, 1, 62, 100
3, 16700, Note_off_c, 1, 65, 100
3, 16704, Note_on_c, 1, 47, 110
3, 16704, Note_on_c, 1, 55, 100
3, 16704, Note_on_c, 1, 62, 100
3, 16704, Note_on_c, 1, 65, 100
3, 16796, Note_off_c, 1, 55, 100
3, 16796, Note_off_c, 1, 62, 100
3, 16796, Note_off_c, 1, 65, 100
3, 16800, Note_on_c, 1, 55, 100
3, 16800, Note_on_c, 1, 62, 100
3, 16800, Note_on_c, 1, 65, 100
3, 16892, Note_off_c, 1, 47, 100
3, 16892, Note_off_c, 1, 55, 100
3, 16892, Note_off_c, 1, 62, 100
3, 16892, Note_off_c, 1, 65, 100
3, 16896, Note_on_c, 1, 55, 100
3, 16896, Note_on_c, 1, 60, 100
3, 16896, Note_on_c, 1, 63, 100
3, 16988, Note_off_c, 1, 55, 100
3, 16988, Note_off_c, 1, 60, 100
3, 16988, Note_off_c, 1, 63, 100
3, 16992, Note_on_c, 1, 55, 100
3, 16992, Note_on_c, 1, 60, 100
3, 16992, Note_on_c, 1, 63, 100
3, 17084, Note_off_c, 1, 55, 100
3, 17084, Note_off_c, 1, 60, 100
3, 17084, Note_off_c, 1, 63, 100
3, 17088, Note_on_c, 1, 55, 100
3, 17088, Note_on_c, 1, 60, 100
3, 17088, Note_on_c, 1, 63, 100
3, 17180, Note_off_c, 1, 55, 100
3, 17180, Note_off_c, 1, 60, 100
3, 17180, Note_off_c, 1, 63, 100
3, 17184, Note_on_c, 1, 55, 100
3, 17184, Note_on_c, 1, 60, 100
3, 17184, Note_on_c, 1, 63, 100
3, 17276, Note_off_c, 1, 55, 100
3, 17276, Note_off_c, 1, 60, 100
3, 17276, Note_off_c, 1, 63, 100
3, 17280, Note_on_c, 1, 55, 100
3, 17280, Note_on_c, 1, 62, 100
3, 17280, Note_on_c, 1, 65, 100
3, 17372, Note_off_c, 1, 55, 100
3, 17372, Note_off_c, 1, 62, 100
3, 17372, Note_off_c, 1, 65, 100
3, 17376, Note_on_c, 1, 55, 100
3, 17376, Note_on_c, 1, 62, 100
3, 17376, Note_on_c, 1, 65, 100
3, 17468, Note_off_c, 1, 55, 100
3, 17468, Note_off_c, 1, 62, 100
3, 17468, Note_off_c, 1, 65, 100
3, 17472, Note_on_c, 1, 55, 100
3, 17472, Note_on_c, 1, 62, 100
3, 17472, Note_on_c, 1, 65, 100
3, 17564, Note_off_c, 1, 55, 100
3, 17564, Note_off_c, 1, 62, 100
3, 17564, Note_off_c, 1, 65, 100
3, 17568, Note_on_c, 1, 55, 100
3, 17568, Note_on_c, 1, 62, 100
3, 17568, Note_on_c, 1, 65, 100
3, 17660, Note_off_c, 1, 55, 100
3, 17660, Note_off_c, 1, 62, 100
3, 17660, Note_off_c, 1, 65, 100
3, 17664, Note_on_c, 1, 55, 100
3, 17664, Note_on_c, 1, 60, 100
3, 17664, Note_on_c, 1, 63, 100
3, 17756, Note_off_c, 1, 55, 100
3, 17756, Note_off_c, 1, 60, 100
3, 17756, Note_off_c, 1, 63, 100
3, 17760, Note_on_c, 1, 55, 100
3, 17760, Note_on_c, 1, 60, 100
3, 17760, Note_on_c, 1, 63, 100
3, 17852, Note_off_c, 1, 55, 100
3, 17852, Note_off_c, 1, 60, 100
3, 17852, Note_off_c, 1, 63, 100
3, 17856, Note_on_c, 1, 48, 110
3, 17856, Note_on_c, 1, 36, 110
3, 17856, Note_on_c, 1, 55, 100
3, 17856, Note_on_c, 1, 60, 100
3, 17856, Note_on_c, 1, 63, 100
3, 17948, Note_off_c, 1, 55, 100
3, 17948, Note_off_c, 1, 60, 100
3, 17948, Note_off_c, 1, 63, 100
3, 17952, Note_on_c, 1, 55, 100
3, 17952, Note_on_c, 1, 60, 100
3, 17952, Note_on_c, 1, 63, 100
3, 18044, Note_off_c, 1, 48, 100
3, 18044, Note_off_c, 1, 36, 100
3, 18044, Note_off_c, 1, 55, 100
3, 18044, Note_off_c, 1, 60, 100
3, 18044, Note_off_c, 1, 63, 100
3, 18048, Note_on_c, 1, 46, 110
3, 18048, Note_on_c, 1, 34, 110
3, 18048, Note_on_c, 1, 53, 100
3, 18048, Note_on_c, 1, 60, 100
3, 18048, Note_on_c, 1, 63, 100
3, 18140, Note_off_c, 1, 53, 100
3, 18140, Note_off_c, 1, 60, 100
3, 18140, Note_off_c, 1, 63, 100
3, 18144, Note_on_c, 1, 53, 100
3, 18144, Note_on_c, 1, 60, 100
3, 18144, Note_on_c, 1, 63, 100
3, 18236, Note_off_c, 1, 46, 100
3, 18236, Note_off_c, 1, 34, 100
3, 18236, Note_off_c, 1, 53, 100
3, 18236, Note_off_c, 1, 60, 100
3, 18236, Note_off_c, 1, 63, 100
3, 18240, Note_on_c, 1, 33, 110
3, 18240, Note_on_c, 1, 45, 110
3, 18240, Note_on_c, 1, 53, 100
3, 18240, Note_on_c, 1, 60, 100
3, 18240, Note_on_c, 1, 63, 100
3, 18332, Note_off_c, 1, 53, 100
3, 18332, Note_off_c, 1, 60, 100
3, 18332, Note_off_c, 1, 63, 100
3, 18336, Note_on_c, 1, 53, 100
3, 18336, Note_on_c, 1, 60, 100
3, 18336, Note_on_c, 1, 63, 100
3, 18428, Note_off_c, 1, 33, 100
3, 18428, Note_off_c, 1, 45, 100
3, 18428, Note_off_c, 1, 53, 100
3, 18428, Note_off_c, 1, 60, 100
3, 18428, Note_off_c, 1, 63, 100
3, 18432, Note_on_c, 1, 53, 100
3, 18432, Note_on_c, 1, 62, 100
3, 18432, Note_on_c, 1, 58, 100
3, 18524, Note_off_c, 1, 53, 100
3, 18524, Note_off_c, 1, 62, 100
3, 18524, Note_off_c, 1, 58, 100
3, 18528, Note_on_c, 1, 53, 100
3, 18528, Note_on_c, 1, 62, 100
3, 18528, Note_on_c, 1, 58, 100
3, 18620, Note_off_c, 1, 53, 100
3, 18620, Note_off_c, 1, 62, 100
3, 18620, Note_off_c, 1, 58, 100
3, 18624, Note_on_c, 1, 53, 100
3, 18624, Note_on_c, 1, 62, 100
3, 18624, Note_on_c, 1, 58, 100
3, 18716, Note_off_c, 1, 53, 100
3, 18716, Note_off_c, 1, 62, 100
3, 18716, Note_off_c, 1, 58, 100
3, 18720, Note_on_c, 1, 53, 100
3, 18720, Note_on_c, 1, 62, 100
3, 18720, Note_on_c, 1, 58, 100
3, 18812, Note_off_c, 1, 53, 100
3, 18812, Note_off_c, 1, 62, 100
3, 18812, Note_off_c, 1, 58, 100
3, 18816, Note_on_c, 1, 53, 100
3, 18816, Note_on_c, 1, 60, 100
3, 18816, Note_on_c, 1, 63, 100
3, 18908, Note_off_c, 1, 53, 100
3, 18908, Note_off_c, 1, 60, 100
3, 18908, Note_off_c, 1, 63, 100
3, 18912, Note_on_c, 1, 53, 100
3, 18912, Note_on_c, 1, 60, 100
3, 18912, Note_on_c, 1, 63, 100
3, 19004, Note_off_c, 1, 53, 100
3, 19004, Note_off_c, 1, 60, 100
3, 19004, Note_off_c, 1, 63, 100
3, 19008, Note_on_c, 1, 53, 100
3, 19008, Note_on_c, 1, 60, 100
3, 19008, Note_on_c, 1, 63, 100
3, 19100, Note_off_c, 1, 53, 100
3, 19100, Note_off_c, 1, 60, 100
3, 19100, Note_off_c, 1, 63, 100
3, 19104, Note_on_c, 1, 53, 100
3, 19104, Note_on_c, 1, 60, 100
3, 19104, Note_on_c, 1, 63, 100
3, 19196, Note_off_c, 1, 53, 100
3, 19196, Note_off_c, 1, 60, 100
3, 19196, Note_off_c, 1, 63, 100
3, 19200, Note_on_c, 1, 53, 100
3, 19200, Note_on_c, 1, 58, 100
3, 19200, Note_on_c, 1, 62, 100
3, 19292, Note_off_c, 1, 53, 100
3, 19292, Note_off_c, 1, 58, 100
3, 19292, Note_off_c, 1, 62, 100
3, 19296, Note_on_c, 1, 53, 100
3, 19296, Note_on_c, 1, 58, 100
3, 19296, Note_on_c, 1, 62, 100
3, 19296, Note_on_c, 1, 46, 100
3, 19388, Note_off_c, 1, 53, 100
3, 19388, Note_off_c, 1, 58, 100
3, 19388, Note_off_c, 1, 62, 100
3, 19388, Note_off_c, 1, 46, 100
3, 19392, Note_on_c, 1, 53, 100
3, 19392, Note_on_c, 1, 58, 100
3, 19392, Note_on_c, 1, 62, 100
3, 19392, Note_on_c, 1, 46, 100
3, 19484, Note_off_c, 1, 53, 100
3, 19484, Note_off_c, 1, 58, 100
3, 19484, Note_off_c, 1, 62, 100
3, 19484, Note_off_c, 1, 46, 100
3, 19488, Note_on_c, 1, 53, 100
3, 19488, Note_on_c, 1, 58, 100
3, 19488, Note_on_c, 1, 62, 100
3, 19488, Note_on_c, 1, 46, 100
3, 19580, Note_off_c, 1, 53, 100
3, 19580, Note_off_c, 1, 58, 100
3, 19580, Note_off_c, 1, 62, 100
3, 19580, Note_off_c, 1, 46, 100
3, 19584, Note_on_c, 1, 53, 100
3, 19584, Note_on_c, 1, 60, 100
3, 19584, Note_on_c, 1, 63, 100
3, 19584, Note_on_c, 1, 45, 100
3, 19628, Note_off_c, 1, 45, 100
3, 19632, Note_on_c, 1, 46, 100
3, 19676, Note_off_c, 1, 53, 100
3, 19676, Note_off_c, 1, 60, 100
3, 19676, Note_off_c, 1, 63, 100
3, 19676, Note_off_c, 1, 46, 100
3, 19680, Note_on_c, 1, 53, 100
3, 19680, Note_on_c, 1, 60, 100
3, 19680, Note_on_c, 1, 63, 100
3, 19680, Note_on_c, 1, 48, 100
3, 19724, Note_off_c, 1, 48, 100
3, 19728, Note_on_c, 1, 46, 100
3, 19772, Note_off_c, 1, 53, 100
3, 19772, Note_off_c, 1, 60, 100
3, 19772, Note_off_c, 1, 63, 100
3, 19772, Note_off_c, 1, 46, 100
3, 19776, Note_on_c, 1, 53, 100
3, 19776, Note_on_c, 1, 60, 100
3, 19776, Note_on_c, 1, 63, 100
3, 19776, Note_on_c, 1, 45, 100
3, 19868, Note_off_c, 1, 53, 100
3, 19868, Note_off_c, 1, 60, 100
3, 19868, Note_off_c, 1, 63, 100
3, 19872, Note_on_c, 1, 53, 100
3, 19872, Note_on_c, 1, 60, 100
3, 19872, Note_on_c, 1, 63, 100
3, 19964, Note_off_c, 1, 45, 100
3, 19964, Note_off_c, 1, 53, 100
3, 19964, Note_off_c, 1, 60, 100
3, 19964, Note_off_c, 1, 63, 100
3, 19968, Note_on_c, 1, 53, 100
3, 19968, Note_on_c, 1, 58, 100
3, 19968, Note_on_c, 1, 62, 100
3, 20060, Note_off_c, 1, 53, 100
3, 20060, Note_off_c, 1, 58, 100
3, 20060, Note_off_c, 1, 62, 100
3, 20064, Note_on_c, 1, 53, 100
3, 20064, Note_on_c, 1, 58, 100
3, 20064, Note_on_c, 1, 62, 100
3, 20156, Note_off_c, 1, 53, 100
3, 20156, Note_off_c, 1, 58, 100
3, 20156, Note_off_c, 1, 62, 100
3, 20160, Note_on_c, 1, 53, 100
3, 20160, Note_on_c, 1, 58, 100
3, 20160, Note_on_c, 1, 62, 100
3, 20252, Note_off_c, 1, 53, 100
3, 20252, Note_off_c, 1, 58, 100
3, 20252, Note_off_c, 1, 62, 100
3, 20256, Note_on_c, 1, 53, 100
3, 20256, Note_on_c, 1, 58, 100
3, 20256, Note_on_c, 1, 62, 100
3, 20348, Note_off_c, 1, 53, 100
3, 20348, Note_off_c, 1, 58, 100
3, 20348, Note_off_c, 1, 62, 100
3, 20352, Note_on_c, 1, 53, 100
3, 20352, Note_on_c, 1, 60, 100
3, 20352, Note_on_c, 1, 63, 100
3, 20444, Note_off_c, 1, 53, 100
3, 20444, Note_off_c, 1, 60, 100
3, 20444, Note_off_c, 1, 63, 100
3, 20448, Note_on_c, 1, 53, 100
3, 20448, Note_on_c, 1, 60, 100
3, 20448, Note_on_c, 1, 63, 100
3, 20540, Note_off_c, 1, 53, 100
3, 20540, Note_off_c, 1, 60, 100
3, 20540, Note_off_c, 1, 63, 100
3, 20544, Note_on_c, 1, 53, 100
3, 20544, Note_on_c, 1, 60, 100
3, 20544, Note_on_c, 1, 63, 100
3, 20636, Note_off_c, 1, 53, 100
3, 20636, Note_off_c, 1, 60, 100
3, 20636, Note_off_c, 1, 63, 100
3, 20640, Note_on_c, 1, 53, 100
3, 20640, Note_on_c, 1, 60, 100
3, 20640, Note_on_c, 1, 63, 100
3, 20732, Note_off_c, 1, 53, 100
3, 20732, Note_off_c, 1, 60, 100
3, 20732, Note_off_c, 1, 63, 100
3, 20736, Note_on_c, 1, 53, 110
3, 20736, Note_on_c, 1, 58, 110
3, 20736, Note_on_c, 1, 62, 110
3, 20828, Note_off_c, 1, 53, 100
3, 20828, Note_off_c, 1, 58, 100
3, 20828, Note_off_c, 1, 62, 100
3, 20832, Note_on_c, 1, 53, 110
3, 20832, Note_on_c, 1, 58, 110
3, 20832, Note_on_c, 1, 62, 110
3, 20832, Note_on_c, 1, 46, 110
3, 20924, Note_off_c, 1, 53, 100
3, 20924, Note_off_c, 1, 58, 100
3, 20924, Note_off_c, 1, 62, 100
3, 20924, Note_off_c, 1, 46, 100
3, 20928, Note_on_c, 1, 53, 110
3, 20928, Note_on_c, 1, 58, 110
3, 20928, Note_on_c, 1, 62, 110
3, 20928, Note_on_c, 1, 46, 110
3, 21020, Note_off_c, 1, 53, 100
3, 21020, Note_off_c, 1, 58, 100
3, 21020, Note_off_c, 1, 62, 100
3, 21020, Note_off_c, 1, 46, 100
3, 21024, Note_on_c, 1, 53, 110
3, 21024, Note_on_c, 1, 58, 110
3, 21024, Note_on_c, 1, 62, 110
3, 21024, Note_on_c, 1, 46, 110
3, 21116, Note_off_c, 1, 53, 100
3, 21116, Note_off_c, 1, 58, 100
3, 21116, Note_off_c, 1, 62, 100
3, 21116, Note_off_c, 1, 46, 100
3, 21120, Note_on_c, 1, 63, 110
3, 21120, Note_on_c, 1, 60, 110
3, 21120, Note_on_c, 1, 53, 110
3, 21120, Note_on_c, 1, 45, 110
3, 21168, Note_on_c, 1, 46, 110
3, 21196, Note_off_c, 1, 45, 100
3, 21216, Note_on_c, 1, 48, 110
3, 21248, Note_off_c, 1, 46, 100
3, 21264, Note_on_c, 1, 46, 110
3, 21300, Note_off_c, 1, 48, 100
3, 21312, Note_on_c, 1, 45, 110
3, 21352, Note_off_c, 1, 46, 100
3, 21404, Note_off_c, 1, 45, 100
3, 21408, Note_on_c, 1, 41, 110
3, 21500, Note_off_c, 1, 63, 100
3, 21500, Note_off_c, 1, 60, 100
3, 21500, Note_off_c, 1, 53, 100
3, 21500, Note_off_c, 1, 41, 100
3, 21504, Note_on_c, 1, 62, 110
3, 21504, Note_on_c, 1, 58, 110
3, 21504, Note_on_c, 1, 53, 110
3, 21504, Note_on_c, 1, 46, 110
3, 21552, Note_on_c, 1, 48, 110
3, 21580, Note_off_c, 1, 46, 100
3, 21600, Note_on_c, 1, 50, 110
3, 21632, Note_off_c, 1, 48, 100
3, 21648, Note_on_c, 1, 48, 110
3, 21684, Note_off_c, 1, 50, 100
3, 21696, Note_on_c, 1, 46, 110
3, 21732, Note_off_c, 1, 48, 100
3, 21788, Note_off_c, 1, 46, 100
3, 21792, Note_on_c, 1, 41, 110
3, 21884, Note_off_c, 1, 62, 100
3, 21884, Note_off_c, 1, 58, 100
3, 21884, Note_off_c, 1, 53, 100
3, 21884, Note_off_c, 1, 41, 100
3, 21888, Note_on_c, 1, 53, 110
3, 21888, Note_on_c, 1, 51, 110
3, 21888, Note_on_c, 1, 48, 110
3, 22172, Note_off_c, 1, 51, 100
3, 22172, Note_off_c, 1, 48, 100
3, 22176, Note_on_c, 1, 41, 110
3, 22268, Note_off_c, 1, 53, 100
3, 22268, Note_off_c, 1, 41, 100
3, 22272, Note_on_c, 1, 53, 110
3, 22272, Note_on_c, 1, 50, 110
3, 22556, Note_off_c, 1, 50, 100
3, 22560, Note_on_c, 1, 41, 110
3, 22652, Note_off_c, 1, 53, 100
3, 22652, Note_off_c, 1, 41, 100
3, 22656, Note_on_c, 1, 45, 110
3, 22704, Note_on_c, 1, 46, 110
3, 22732, Note_off_c, 1, 45, 100
3, 22752, Note_on_c, 1, 48, 110
3, 22784, Note_off_c, 1, 46, 100
3, 22800, Note_on_c, 1, 46, 110
3, 22832, Note_off_c, 1, 48, 100
3, 22848, Note_on_c, 1, 45, 110
3, 22884, Note_off_c, 1, 46, 100
3, 22940, Note_off_c, 1, 45, 100
3, 22944, Note_on_c, 1, 41, 110
3, 23036, Note_off_c, 1, 41, 100
3, 23040, Note_on_c, 1, 46, 110
3, 23088, Note_on_c, 1, 48, 110
3, 23116, Note_off_c, 1, 46, 100
3, 23136, Note_on_c, 1, 50, 110
3, 23172, Note_off_c, 1, 48, 100
3, 23184, Note_on_c, 1, 48, 110
3, 23212, Note_off_c, 1, 50, 100
3, 23232, Note_on_c, 1, 46, 110
3, 23272, Note_off_c, 1, 48, 100
3, 23324, Note_off_c, 1, 46, 100
3, 23328, Note_on_c, 1, 41, 110
3, 23420, Note_off_c, 1, 41, 100
3, 23424, Note_on_c, 1, 53, 110
3, 23424, Note_on_c, 1, 51, 110
3, 23424, Note_on_c, 1, 48, 110
3, 23708, Note_off_c, 1, 53, 100
3, 23708, Note_off_c, 1, 51, 100
3, 23708, Note_off_c, 1, 48, 100
3, 23712, Note_on_c, 1, 41, 110
3, 23804, Note_off_c, 1, 41, 100
3, 23808, Note_on_c, 1, 53, 110
3, 23808, Note_on_c, 1, 50, 110
3, 24092, Note_off_c, 1, 53, 100
3, 24092, Note_off_c, 1, 50, 100
3, 24096, Note_on_c, 1, 56, 110
3, 24096, Note_on_c, 1, 53, 110
3, 24096, Note_on_c, 1, 50, 110
3, 24188, Note_off_c, 1, 56, 100
3, 24188, Note_off_c, 1, 53, 100
3, 24188, Note_off_c, 1, 50, 100
3, 24192, Note_on_c, 1, 55, 110
3, 24192, Note_on_c, 1, 51, 110
3, 24380, Note_off_c, 1, 55, 100
3, 24380, Note_off_c, 1, 51, 100
3, 24960, Note_on_c, 1, 63, 110
3, 24960, Note_on_c, 1, 60, 110
3, 24960, Note_on_c, 1, 57, 110
3, 24960, Note_on_c, 1, 53, 110
3, 25148, Note_off_c, 1, 63, 100
3, 25148, Note_off_c, 1, 60, 100
3, 25148, Note_off_c, 1, 57, 100
3, 25148, Note_off_c, 1, 53, 100
3, 25728, Note_on_c, 1, 63, 110
3, 25728, Note_on_c, 1, 60, 110
3, 25728, Note_on_c, 1, 57, 110
3, 25728, Note_on_c, 1, 54, 110
3, 25916, Note_off_c, 1, 63, 100
3, 25916, Note_off_c, 1, 60, 100
3, 25916, Note_off_c, 1, 57, 100
3, 25916, Note_off_c, 1, 54, 100
3, 26496, Note_on_c, 1, 62, 100
3, 26496, Note_on_c, 1, 58, 100
3, 26496, Note_on_c, 1, 55, 100
3, 26684, Note_off_c, 1, 62, 100
3, 26684, Note_off_c, 1, 58, 100
3, 26684, Note_off_c, 1, 55, 100
3, 26880, Note_on_c, 1, 51, 100
3, 26880, Note_on_c, 1, 55, 100
3, 26880, Note_on_c, 1, 60, 100
3, 27068, Note_off_c, 1, 51, 100
3, 27068, Note_off_c, 1, 55, 100
3, 27068, Note_off_c, 1, 60, 100
3, 27264, Note_on_c, 1, 53, 100
3, 27264, Note_on_c, 1, 58, 100
3, 27264, Note_on_c, 1, 62, 100
3, 27452, Note_off_c, 1, 53, 100
3, 27452, Note_off_c, 1, 58, 100
3, 27452, Note_off_c, 1, 62, 100
3, 27648, Note_on_c, 1, 53, 100
3, 27648, Note_on_c, 1, 60, 100
3, 27648, Note_on_c, 1, 63, 100
3, 27836, Note_off_c, 1, 53, 100
3, 27836, Note_off_c, 1, 60, 100
3, 27836, Note_off_c, 1, 63, 100
3, 28032, Note_on_c, 1, 58, 100
3, 28032, Note_on_c, 1, 46, 100
3, 28412, Note_off_c, 1, 58, 100
3, 28412, Note_off_c, 1, 46, 100
3, 28416, Note_on_c, 1, 67, 100
3, 28604, Note_off_c, 1, 67, 100
3, 28608, Note_on_c, 1, 67, 100
3, 28632, Note_on_c, 1, 68, 100
3, 28652, Note_off_c, 1, 67, 100
3, 28656, Note_on_c, 1, 67, 100
3, 28676, Note_off_c, 1, 68, 100
3, 28680, Note_on_c, 1, 68, 100
3, 28700, Note_off_c, 1, 67, 100
3, 28704, Note_on_c, 1, 67, 100
3, 28724, Note_off_c, 1, 68, 100
3, 28728, Note_on_c, 1, 68, 100
3, 28748, Note_off_c, 1, 67, 100
3, 28752, Note_on_c, 1, 66, 100
3, 28772, Note_off_c, 1, 68, 100
3, 28776, Note_on_c, 1, 67, 100
3, 28796, Note_off_c, 1, 66, 100
3, 28796, Note_off_c, 1, 67, 100
3, 28800, Note_on_c, 1, 63, 100
3, 28988, Note_off_c, 1, 63, 100
3, 28992, Note_on_c, 1, 60, 100
3, 29180, Note_off_c, 1, 60, 100
3, 29184, Note_on_c, 1, 65, 100
3, 29372, Note_off_c, 1, 65, 100
3, 29376, Note_on_c, 1, 65, 100
3, 29400, Note_on_c, 1, 67, 100
3, 29420, Note_off_c, 1, 65, 100
3, 29424, Note_on_c, 1, 65, 100
3, 29444, Note_off_c, 1, 67, 100
3, 29448, Note_on_c, 1, 67, 100
3, 29468, Note_off_c, 1, 65, 100
3, 29472, Note_on_c, 1, 65, 100
3, 29492, Note_off_c, 1, 67, 100
3, 29496, Note_on_c, 1, 67, 100
3, 29516, Note_off_c, 1, 65, 100
3, 29520, Note_on_c, 1, 64, 100
3, 29540, Note_off_c, 1, 67, 100
3, 29544, Note_on_c, 1, 65, 100
3, 29564, Note_off_c, 1, 64, 100
3, 29564, Note_off_c, 1, 65, 100
3, 29568, Note_on_c, 1, 62, 100
3, 29756, Note_off_c, 1, 62, 100
3, 29760, Note_on_c, 1, 58, 100
3, 29948, Note_off_c, 1, 58, 100
3, 29952, Note_on_c, 1, 63, 100
3, 29952, Note_on_c, 1, 60, 100
3, 29952, Note_on_c, 1, 57, 100
3, 30140, Note_off_c, 1, 63, 100
3, 30140, Note_off_c, 1, 60, 100
3, 30140, Note_off_c, 1, 57, 100
3, 30144, Note_on_c, 1, 63, 100
3, 30144, Note_on_c, 1, 60, 100
3, 30144, Note_on_c, 1, 53, 100
3, 30332, Note_off_c, 1, 63, 100
3, 30332, Note_off_c, 1, 60, 100
3, 30332, Note_off_c, 1, 53, 100
3, 30336, Note_on_c, 1, 62, 100
3, 30336, Note_on_c, 1, 58, 100
3, 30716, Note_off_c, 1, 62, 100
3, 30716, Note_off_c, 1, 58, 100
3, 30720, Note_on_c, 1, 55, 100
3, 30720, Note_on_c, 1, 58, 100
3, 30720, Note_on_c, 1, 64, 100
3, 31100, Note_off_c, 1, 55, 100
3, 31100, Note_off_c, 1, 58, 100
3, 31100, Note_off_c, 1, 64, 100
3, 31104, Note_on_c, 1, 57, 100
3, 31104, Note_on_c, 1, 53, 100
3, 31292, Note_off_c, 1, 57, 100
3, 31292, Note_off_c, 1, 53, 100
3, 31488, Note_on_c, 1, 53, 100
3, 31676, Note_off_c, 1, 53, 100
3, 31680, Note_on_c, 1, 53, 100
3, 31704, Note_on_c, 1, 55, 100
3, 31724, Note_off_c, 1, 53, 100
3, 31728, Note_on_c, 1, 53, 100
3, 31748, Note_off_c, 1, 55, 100
3, 31752, Note_on_c, 1, 55, 100
3, 31772, Note_off_c, 1, 53, 100
3, 31776, Note_on_c, 1, 53, 100
3, 31796, Note_off_c, 1, 55, 100
3, 31800, Note_on_c, 1, 55, 100
3, 31820, Note_off_c, 1, 53, 100
3, 31824, Note_on_c, 1, 52, 100
3, 31844, Note_off_c, 1, 55, 100
3, 31848, Note_on_c, 1, 53, 100
3, 31868, Note_off_c, 1, 52, 100
3, 31868, Note_off_c, 1, 53, 100
3, 31872, Note_on_c, 1, 51, 100
3, 32060, Note_off_c, 1, 51, 100
3, 32064, Note_on_c, 1, 48, 100
3, 32252, Note_off_c, 1, 48, 100
3, 32256, Note_on_c, 1, 51, 100
3, 32444, Note_off_c, 1, 51, 100
3, 32448, Note_on_c, 1, 51, 100
3, 32472, Note_on_c, 1, 53, 100
3, 32492, Note_off_c, 1, 51, 100
3, 32496, Note_on_c, 1, 51, 100
3, 32516, Note_off_c, 1, 53, 100
3, 32520, Note_on_c, 1, 53, 100
3, 32540, Note_off_c, 1, 51, 100
3, 32544, Note_on_c, 1, 51, 100
3, 32564, Note_off_c, 1, 53, 100
3, 32568, Note_on_c, 1, 53, 100
3, 32588, Note_off_c, 1, 51, 100
3, 32592, Note_on_c, 1, 50, 100
3, 32612, Note_off_c, 1, 53, 100
3, 32616, Note_on_c, 1, 51, 100
3, 32636, Note_off_c, 1, 50, 100
3, 32636, Note_off_c, 1, 51, 100
3, 32640, Note_on_c, 1, 50, 100
3, 32828, Note_off_c, 1, 50, 100
3, 32832, Note_on_c, 1, 46, 100
3, 33020, Note_off_c, 1, 46, 100
3, 33024, Note_on_c, 1, 45, 100
3, 33024, Note_on_c, 1, 48, 100
3, 33024, Note_on_c, 1, 51, 100
3, 33024, Note_on_c, 1, 53, 100
3, 33212, Note_off_c, 1, 45, 100
3, 33216, Note_on_c, 1, 41, 100
3, 33404, Note_off_c, 1, 48, 100
3, 33404, Note_off_c, 1, 51, 100
3, 33404, Note_off_c, 1, 53, 100
3, 33404, Note_off_c, 1, 41, 100
3, 33408, Note_on_c, 1, 53, 80
3, 33408, Note_on_c, 1, 50, 80
3, 33408, Note_on_c, 1, 46, 80
3, 33596, Note_off_c, 1, 53, 100
3, 33596, Note_off_c, 1, 50, 100
3, 33596, Note_off_c, 1, 46, 100
3, 33600, Note_on_c, 1, 58, 80
3, 33600, Note_on_c, 1, 53, 80
3, 33600, Note_on_c, 1, 50, 80
3, 33788, Note_off_c, 1, 58, 100
3, 33788, Note_off_c, 1, 53, 100
3, 33788, Note_off_c, 1, 50, 100
3, 33792, Note_on_c, 1, 60, 80
3, 33792, Note_on_c, 1, 57, 80
3, 33792, Note_on_c, 1, 53, 80
3, 33980, Note_off_c, 1, 60, 100
3, 33980, Note_off_c, 1, 57, 100
3, 33980, Note_off_c, 1, 53, 100
3, 33984, Note_on_c, 1, 60, 80
3, 33984, Note_on_c, 1, 57, 80
3, 33984, Note_on_c, 1, 53, 80
3, 33984, Note_on_c, 1, 51, 80
3, 34172, Note_off_c, 1, 60, 100
3, 34172, Note_off_c, 1, 57, 100
3, 34172, Note_off_c, 1, 53, 100
3, 34172, Note_off_c, 1, 51, 100
3, 34176, Note_on_c, 1, 58, 80
3, 34176, Note_on_c, 1, 53, 80
3, 34176, Note_on_c, 1, 50, 80
3, 34364, Note_off_c, 1, 58, 100
3, 34364, Note_off_c, 1, 53, 100
3, 34364, Note_off_c, 1, 50, 100
3, 34560, Note_on_c, 1, 45, 110
3, 34560, Note_on_c, 1, 48, 110
3, 34560, Note_on_c, 1, 51, 110
3, 34560, Note_on_c, 1, 53, 110
3, 34748, Note_off_c, 1, 45, 100
3, 34752, Note_on_c, 1, 41, 110
3, 34940, Note_off_c, 1, 48, 100
3, 34940, Note_off_c, 1, 51, 100
3, 34940, Note_off_c, 1, 53, 100
3, 34940, Note_off_c, 1, 41, 100
3, 34944, Note_on_c, 1, 53, 80
3, 34944, Note_on_c, 1, 50, 80
3, 34944, Note_on_c, 1, 46, 80
3, 35132, Note_off_c, 1, 53, 100
3, 35132, Note_off_c, 1, 50, 100
3, 35132, Note_off_c, 1, 46, 100
3, 35136, Note_on_c, 1, 58, 83
3, 35136, Note_on_c, 1, 53, 83
3, 35136, Note_on_c, 1, 50, 83
3, 35324, Note_off_c, 1, 58, 100
3, 35324, Note_off_c, 1, 53, 100
3, 35324, Note_off_c, 1, 50, 100
3, 35328, Note_on_c, 1, 60, 87
3, 35328, Note_on_c, 1, 57, 87
3, 35328, Note_on_c, 1, 53, 87
3, 35516, Note_off_c, 1, 60, 100
3, 35516, Note_off_c, 1, 57, 100
3, 35516, Note_off_c, 1, 53, 100
3, 35520, Note_on_c, 1, 60, 90
3, 35520, Note_on_c, 1, 57, 90
3, 35520, Note_on_c, 1, 53, 90
3, 35520, Note_on_c, 1, 51, 90
3, 35708, Note_off_c, 1, 60, 100
3, 35708, Note_off_c, 1, 57, 100
3, 35708, Note_off_c, 1, 53, 100
3, 35708, Note_off_c, 1, 51, 100
3, 35712, Note_on_c, 1, 58, 94
3, 35712, Note_on_c, 1, 53, 94
3, 35712, Note_on_c, 1, 50, 94
3, 35900, Note_off_c, 1, 58, 100
3, 35900, Note_off_c, 1, 53, 100
3, 35900, Note_off_c, 1, 50, 100
3, 36096, Note_on_c, 1, 45, 110
3, 36096, Note_on_c, 1, 33, 110
3, 36284, Note_off_c, 1, 45, 100
3, 36284, Note_off_c, 1, 33, 100
3, 36288, Note_on_c, 1, 41, 110
3, 36288, Note_on_c, 1, 29, 110
3, 36476, Note_off_c, 1, 41, 100
3, 36476, Note_off_c, 1, 29, 100
3, 36480, Note_on_c, 1, 46, 110
3, 36480, Note_on_c, 1, 34, 110
3, 36668, Note_off_c, 1, 46, 100
3, 36668, Note_off_c, 1, 34, 100
3, 36672, Note_on_c, 1, 50, 110
3, 36672, Note_on_c, 1, 38, 110
3, 36860, Note_off_c, 1, 50, 100
3, 36860, Note_off_c, 1, 38, 100
3, 36864, Note_on_c, 1, 53, 110
3, 36864, Note_on_c, 1, 41, 110
3, 37052, Note_off_c, 1, 53, 100
3, 37052, Note_off_c, 1, 41, 100
3, 37056, Note_on_c, 1, 41, 110
3, 37244, Note_off_c, 1, 41, 100
3, 37248, Note_on_c, 1, 46, 100
3, 37628, Note_off_c, 1, 46, 100
3, 39552, Note_on_c, 1, 46, 80
3, 39644, Note_off_c, 1, 46, 100
3, 39648, Note_on_c, 1, 58, 80
3, 39740, Note_off_c, 1, 58, 100
3, 39744, Note_on_c, 1, 58, 80
3, 39836, Note_off_c, 1, 58, 100
3, 39840, Note_on_c, 1, 58, 80
3, 39932, Note_off_c, 1, 58, 100
3, 39936, Note_on_c, 1, 58, 80
3, 40028, Note_off_c, 1, 58, 100
3, 40032, Note_on_c, 1, 58, 80
3, 40124, Note_off_c, 1, 58, 100
3, 40128, Note_on_c, 1, 63, 80
3, 40224, Note_on_c, 1, 58, 80
3, 40316, Note_off_c, 1, 63, 100
3, 40316, Note_off_c, 1, 58, 100
3, 40320, Note_on_c, 1, 62, 80
3, 40416, Note_on_c, 1, 58, 80
3, 40508, Note_off_c, 1, 58, 100
3, 40512, Note_on_c, 1, 58, 80
3, 40604, Note_off_c, 1, 58, 100
3, 40608, Note_on_c, 1, 58, 80
3, 40700, Note_off_c, 1, 62, 100
3, 40700, Note_off_c, 1, 58, 100
3, 40704, Note_on_c, 1, 58, 80
3, 40796, Note_off_c, 1, 58, 100
3, 40800, Note_on_c, 1, 58, 80
3, 40892, Note_off_c, 1, 58, 100
3, 40896, Note_on_c, 1, 50, 80
3, 40988, Note_off_c, 1, 50, 100
3, 40992, Note_on_c, 1, 58, 80
3, 41084, Note_off_c, 1, 58, 100
3, 41088, Note_on_c, 1, 51, 80
3, 41180, Note_off_c, 1, 51, 100
3, 41184, Note_on_c, 1, 58, 80
3, 41276, Note_off_c, 1, 58, 100
3, 41280, Note_on_c, 1, 55, 80
3, 41372, Note_off_c, 1, 55, 100
3, 41376, Note_on_c, 1, 58, 80
3, 41468, Note_off_c, 1, 58, 100
3, 41472, Note_on_c, 1, 53, 80
3, 41472, Note_on_c, 1, 56, 80
3, 41564, Note_off_c, 1, 53, 100
3, 41564, Note_off_c, 1, 56, 100
3, 41568, Note_on_c, 1, 58, 80
3, 41660, Note_off_c, 1, 58, 100
3, 41664, Note_on_c, 1, 55, 80
3, 41664, Note_on_c, 1, 51, 80
3, 41756, Note_off_c, 1, 55, 100
3, 41756, Note_off_c, 1, 51, 100
3, 41760, Note_on_c, 1, 58, 80
3, 41852, Note_off_c, 1, 58, 100
3, 41856, Note_on_c, 1, 46, 80
3, 41948, Note_off_c, 1, 46, 100
3, 41952, Note_on_c, 1, 58, 80
3, 42044, Note_off_c, 1, 58, 100
3, 42048, Note_on_c, 1, 58, 80
3, 42140, Note_off_c, 1, 58, 100
3, 42144, Note_on_c, 1, 58, 80
3, 42236, Note_off_c, 1, 58, 100
3, 42240, Note_on_c, 1, 72, 80
3, 42240, Note_on_c, 1, 68, 80
3, 42332, Note_off_c, 1, 72, 100
3, 42332, Note_off_c, 1, 68, 100
3, 42336, Note_on_c, 1, 58, 80
3, 42428, Note_off_c, 1, 58, 100
3, 42432, Note_on_c, 1, 67, 80
3, 42432, Note_on_c, 1, 70, 80
3, 42524, Note_off_c, 1, 67, 100
3, 42524, Note_off_c, 1, 70, 100
3, 42528, Note_on_c, 1, 58, 80
3, 42620, Note_off_c, 1, 58, 100
3, 42624, Note_on_c, 1, 65, 80
3, 42624, Note_on_c, 1, 68, 80
3, 42716, Note_off_c, 1, 65, 100
3, 42720, Note_on_c, 1, 58, 80
3, 42812, Note_off_c, 1, 58, 100
3, 42816, Note_on_c, 1, 58, 80
3, 42908, Note_off_c, 1, 58, 100
3, 42912, Note_on_c, 1, 58, 80
3, 43004, Note_off_c, 1, 68, 100
3, 43004, Note_off_c, 1, 58, 100
3, 43008, Note_on_c, 1, 65, 80
3, 43008, Note_on_c, 1, 68, 80
3, 43100, Note_off_c, 1, 65, 100
3, 43104, Note_on_c, 1, 58, 80
3, 43196, Note_off_c, 1, 68, 100
3, 43196, Note_off_c, 1, 58, 100
3, 43200, Note_on_c, 1, 63, 80
3, 43200, Note_on_c, 1, 67, 80
3, 43292, Note_off_c, 1, 63, 100
3, 43296, Note_on_c, 1, 58, 80
3, 43388, Note_off_c, 1, 67, 100
3, 43388, Note_off_c, 1, 58, 100
3, 43392, Note_on_c, 1, 65, 80
3, 43392, Note_on_c, 1, 62, 80
3, 43484, Note_off_c, 1, 62, 100
3, 43488, Note_on_c, 1, 58, 80
3, 43580, Note_off_c, 1, 58, 100
3, 43584, Note_on_c, 1, 58, 80
3, 43676, Note_off_c, 1, 58, 100
3, 43680, Note_on_c, 1, 58, 80
3, 43772, Note_off_c, 1, 65, 100
3, 43772, Note_off_c, 1, 58, 100
3, 43776, Note_on_c, 1, 58, 80
3, 43868, Note_off_c, 1, 58, 100
3, 43872, Note_on_c, 1, 58, 80
3, 43964, Note_off_c, 1, 58, 100
3, 43968, Note_on_c, 1, 50, 80
3, 44060, Note_off_c, 1, 50, 100
3, 44064, Note_on_c, 1, 58, 80
3, 44156, Note_off_c, 1, 58, 100
3, 44160, Note_on_c, 1, 51, 80
3, 44252, Note_off_c, 1, 51, 100
3, 44256, Note_on_c, 1, 55, 80
3, 44348, Note_off_c, 1, 55, 100
3, 44352, Note_on_c, 1, 44, 80
3, 44444, Note_off_c, 1, 44, 100
3, 44448, Note_on_c, 1, 56, 80
3, 44540, Note_off_c, 1, 56, 100
3, 44544, Note_on_c, 1, 46, 80
3, 44636, Note_off_c, 1, 46, 100
3, 44640, Note_on_c, 1, 46, 80
3, 44732, Note_off_c, 1, 46, 100
3, 44736, Note_on_c, 1, 34, 80
3, 44828, Note_off_c, 1, 34, 100
3, 44832, Note_on_c, 1, 46, 80
3, 44924, Note_off_c, 1, 46, 100
3, 44928, Note_on_c, 1, 39, 80
3, 45116, Note_off_c, 1, 39, 100
3, 45120, Note_on_c, 1, 51, 80
3, 45308, Note_off_c, 1, 51, 100
3, 45408, Note_on_c, 1, 58, 100
3, 45500, Note_off_c, 1, 58, 100
3, 45504, Note_on_c, 1, 55, 100
3, 45600, Note_on_c, 1, 58, 100
3, 45692, Note_off_c, 1, 55, 100
3, 45692, Note_off_c, 1, 58, 100
3, 45696, Note_on_c, 1, 56, 100
3, 45792, Note_on_c, 1, 58, 100
3, 45884, Note_off_c, 1, 56, 100
3, 45884, Note_off_c, 1, 58, 100
3, 45888, Note_on_c, 1, 53, 100
3, 45984, Note_on_c, 1, 58, 100
3, 46076, Note_off_c, 1, 53, 100
3, 46076, Note_off_c, 1, 58, 100
3, 46080, Note_on_c, 1, 55, 100
3, 46176, Note_on_c, 1, 58, 100
3, 46268, Note_off_c, 1, 55, 100
3, 46268, Note_off_c, 1, 58, 100
3, 46272, Note_on_c, 1, 51, 100
3, 46368, Note_on_c, 1, 58, 100
3, 46460, Note_off_c, 1, 51, 100
3, 46460, Note_off_c, 1, 58, 100
3, 46464, Note_on_c, 1, 46, 100
3, 46556, Note_off_c, 1, 46, 100
3, 46560, Note_on_c, 1, 58, 100
3, 46652, Note_off_c, 1, 58, 100
3, 46656, Note_on_c, 1, 58, 100
3, 46748, Note_off_c, 1, 58, 100
3, 46752, Note_on_c, 1, 58, 100
3, 46844, Note_off_c, 1, 58, 100
3, 46944, Note_on_c, 1, 58, 100
3, 47036, Note_off_c, 1, 58, 100
3, 47040, Note_on_c, 1, 55, 100
3, 47136, Note_on_c, 1, 58, 100
3, 47228, Note_off_c, 1, 55, 100
3, 47228, Note_off_c, 1, 58, 100
3, 47232, Note_on_c, 1, 56, 100
3, 47328, Note_on_c, 1, 58, 100
3, 47420, Note_off_c, 1, 56, 100
3, 47420, Note_off_c, 1, 58, 100
3, 47424, Note_on_c, 1, 53, 100
3, 47520, Note_on_c, 1, 58, 100
3, 47612, Note_off_c, 1, 53, 100
3, 47612, Note_off_c, 1, 58, 100
3, 47616, Note_on_c, 1, 55, 100
3, 47712, Note_on_c, 1, 58, 100
3, 47804, Note_off_c, 1, 55, 100
3, 47804, Note_off_c, 1, 58, 100
3, 47808, Note_on_c, 1, 51, 100
3, 47904, Note_on_c, 1, 58, 100
3, 47996, Note_off_c, 1, 51, 100
3, 47996, Note_off_c, 1, 58, 100
3, 48000, Note_on_c, 1, 58, 80
3, 48000, Note_on_c, 1, 46, 80
3, 48764, Note_off_c, 1, 58, 100
3, 48764, Note_off_c, 1, 46, 100
3, 48768, Note_on_c, 1, 59, 110
3, 48768, Note_on_c, 1, 47, 110
3, 49532, Note_off_c, 1, 59, 100
3, 49532, Note_off_c, 1, 47, 100
3, 49536, Note_on_c, 1, 48, 110
3, 49584, Note_on_c, 1, 51, 110
3, 49628, Note_off_c, 1, 48, 100
3, 49632, Note_on_c, 1, 55, 110
3, 49676, Note_off_c, 1, 51, 100
3, 49680, Note_on_c, 1, 60, 110
3, 49724, Note_off_c, 1, 55, 100
3, 49728, Note_on_c, 1, 56, 110
3, 49772, Note_off_c, 1, 60, 100
3, 49776, Note_on_c, 1, 55, 110
3, 49820, Note_off_c, 1, 56, 100
3, 49824, Note_on_c, 1, 54, 110
3, 49868, Note_off_c, 1, 55, 100
3, 49872, Note_on_c, 1, 55, 110
3, 49916, Note_off_c, 1, 54, 100
3, 49920, Note_on_c, 1, 48, 110
3, 49964, Note_off_c, 1, 55, 100
3, 49968, Note_on_c, 1, 51, 110
3, 50012, Note_off_c, 1, 48, 100
3, 50016, Note_on_c, 1, 55, 110
3, 50060, Note_off_c, 1, 51, 100
3, 50064, Note_on_c, 1, 60, 110
3, 50108, Note_off_c, 1, 55, 100
3, 50112, Note_on_c, 1, 56, 110
3, 50156, Note_off_c, 1, 60, 100
3, 50160, Note_on_c, 1, 55, 110
3, 50204, Note_off_c, 1, 56, 100
3, 50208, Note_on_c, 1, 54, 110
3, 50252, Note_off_c, 1, 55, 100
3, 50256, Note_on_c, 1, 55, 110
3, 50300, Note_off_c, 1, 54, 100
3, 50304, Note_on_c, 1, 48, 110
3, 50348, Note_off_c, 1, 55, 100
3, 50352, Note_on_c, 1, 51, 110
3, 50396, Note_off_c, 1, 48, 100
3, 50400, Note_on_c, 1, 55, 110
3, 50444, Note_off_c, 1, 51, 100
3, 50448, Note_on_c, 1, 60, 110
3, 50492, Note_off_c, 1, 55, 100
3, 50496, Note_on_c, 1, 56, 110
3, 50540, Note_off_c, 1, 60, 100
3, 50544, Note_on_c, 1, 55, 110
3, 50588, Note_off_c, 1, 56, 100
3, 50592, Note_on_c, 1, 54, 110
3, 50636, Note_off_c, 1, 55, 100
3, 50640, Note_on_c, 1, 55, 110
3, 50684, Note_off_c, 1, 54, 100
3, 50688, Note_on_c, 1, 48, 110
3, 50732, Note_off_c, 1, 55, 100
3, 50736, Note_on_c, 1, 51, 110
3, 50780, Note_off_c, 1, 48, 100
3, 50784, Note_on_c, 1, 55, 110
3, 50828, Note_off_c, 1, 51, 100
3, 50832, Note_on_c, 1, 60, 110
3, 50876, Note_off_c, 1, 55, 100
3, 50880, Note_on_c, 1, 56, 110
3, 50924, Note_off_c, 1, 60, 100
3, 50928, Note_on_c, 1, 55, 110
3, 50972, Note_off_c, 1, 56, 100
3, 50976, Note_on_c, 1, 54, 110
3, 51020, Note_off_c, 1, 55, 100
3, 51024, Note_on_c, 1, 55, 110
3, 51068, Note_off_c, 1, 54, 100
3, 51072, Note_on_c, 1, 47, 110
3, 51116, Note_off_c, 1, 55, 100
3, 51120, Note_on_c, 1, 50, 110
3, 51164, Note_off_c, 1, 47, 100
3, 51168, Note_on_c, 1, 55, 110
3, 51212, Note_off_c, 1, 50, 100
3, 51216, Note_on_c, 1, 59, 110
3, 51260, Note_off_c, 1, 55, 100
3, 51264, Note_on_c, 1, 56, 110
3, 51308, Note_off_c, 1, 59, 100
3, 51312, Note_on_c, 1, 55, 110
3, 51356, Note_off_c, 1, 56, 100
3, 51360, Note_on_c, 1, 54, 110
3, 51404, Note_off_c, 1, 55, 100
3, 51408, Note_on_c, 1, 55, 110
3, 51452, Note_off_c, 1, 54, 100
3, 51456, Note_on_c, 1, 47, 110
3, 51500, Note_off_c, 1, 55, 100
3, 51504, Note_on_c, 1, 50, 110
3, 51548, Note_off_c, 1, 47, 100
3, 51552, Note_on_c, 1, 55, 110
3, 51596, Note_off_c, 1, 50, 100
3, 51600, Note_on_c, 1, 59, 110
3, 51644, Note_off_c, 1, 55, 100
3, 51648, Note_on_c, 1, 56, 110
3, 51692, Note_off_c, 1, 59, 100
3, 51696, Note_on_c, 1, 55, 110
3, 51740, Note_off_c, 1, 56, 100
3, 51744, Note_on_c, 1, 54, 110
3, 51788, Note_off_c, 1, 55, 100
3, 51792, Note_on_c, 1, 55, 110
3, 51836, Note_off_c, 1, 54, 100
3, 51840, Note_on_c, 1, 47, 110
3, 51884, Note_off_c, 1, 55, 100
3, 51888, Note_on_c, 1, 50, 110
3, 51932, Note_off_c, 1, 47, 100
3, 51936, Note_on_c, 1, 55, 110
3, 51980, Note_off_c, 1, 50, 100
3, 51984, Note_on_c, 1, 59, 110
3, 52028, Note_off_c, 1, 55, 100
3, 52032, Note_on_c, 1, 56, 110
3, 52076, Note_off_c, 1, 59, 100
3, 52080, Note_on_c, 1, 55, 110
3, 52124, Note_off_c, 1, 56, 100
3, 52128, Note_on_c, 1, 54, 110
3, 52172, Note_off_c, 1, 55, 100
3, 52176, Note_on_c, 1, 55, 110
3, 52220, Note_off_c, 1, 54, 100
3, 52224, Note_on_c, 1, 47, 110
3, 52268, Note_off_c, 1, 55, 100
3, 52272, Note_on_c, 1, 50, 110
3, 52316, Note_off_c, 1, 47, 100
3, 52320, Note_on_c, 1, 55, 110
3, 52364, Note_off_c, 1, 50, 100
3, 52368, Note_on_c, 1, 59, 110
3, 52412, Note_off_c, 1, 55, 100
3, 52416, Note_on_c, 1, 56, 110
3, 52460, Note_off_c, 1, 59, 100
3, 52464, Note_on_c, 1, 55, 110
3, 52508, Note_off_c, 1, 56, 100
3, 52512, Note_on_c, 1, 54, 110
3, 52556, Note_off_c, 1, 55, 100
3, 52560, Note_on_c, 1, 55, 110
3, 52604, Note_off_c, 1, 54, 100
3, 52608, Note_on_c, 1, 48, 110
3, 52652, Note_off_c, 1, 55, 100
3, 52796, Note_off_c, 1, 48, 100
3, 52800, Note_on_c, 1, 60, 110
3, 52800, Note_on_c, 1, 63, 110
3, 52988, Note_off_c, 1, 60, 100
3, 52988, Note_off_c, 1, 63, 100
3, 52992, Note_on_c, 1, 46, 110
3, 53180, Note_off_c, 1, 46, 100
3, 53184, Note_on_c, 1, 58, 110
3, 53184, Note_on_c, 1, 61, 110
3, 53184, Note_on_c, 1, 63, 110
3, 53372, Note_off_c, 1, 58, 100
3, 53372, Note_off_c, 1, 61, 100
3, 53372, Note_off_c, 1, 63, 100
3, 53376, Note_on_c, 1, 48, 110
3, 53564, Note_off_c, 1, 48, 100
3, 53568, Note_on_c, 1, 60, 110
3, 53568, Note_on_c, 1, 63, 110
3, 53568, Note_on_c, 1, 56, 110
3, 53756, Note_off_c, 1, 60, 100
3, 53756, Note_off_c, 1, 63, 100
3, 53756, Note_off_c, 1, 56, 100
3, 53760, Note_on_c, 1, 46, 110
3, 53948, Note_off_c, 1, 46, 100
3, 53952, Note_on_c, 1, 58, 110
3, 53952, Note_on_c, 1, 61, 110
3, 53952, Note_on_c, 1, 64, 110
3, 53952, Note_on_c, 1, 55, 110
3, 54140, Note_off_c, 1, 58, 100
3, 54140, Note_off_c, 1, 61, 100
3, 54140, Note_off_c, 1, 64, 100
3, 54140, Note_off_c, 1, 55, 100
3, 54144, Note_on_c, 1, 44, 110
3, 54332, Note_off_c, 1, 44, 100
3, 54336, Note_on_c, 1, 56, 110
3, 54336, Note_on_c, 1, 60, 110
3, 54336, Note_on_c, 1, 65, 110
3, 54524, Note_off_c, 1, 56, 100
3, 54524, Note_off_c, 1, 60, 100
3, 54524, Note_off_c, 1, 65, 100
3, 54528, Note_on_c, 1, 46, 110
3, 54716, Note_off_c, 1, 46, 100
3, 54720, Note_on_c, 1, 58, 110
3, 54720, Note_on_c, 1, 65, 110
3, 54720, Note_on_c, 1, 68, 110
3, 54908, Note_off_c, 1, 58, 100
3, 54908, Note_off_c, 1, 65, 100
3, 54908, Note_off_c, 1, 68, 100
3, 54912, Note_on_c, 1, 51, 110
3, 55100, Note_off_c, 1, 51, 100
3, 55296, Note_on_c, 1, 51, 110
3, 55296, Note_on_c, 1, 39, 110
3, 55484, Note_off_c, 1, 51, 100
3, 55484, Note_off_c, 1, 39, 100
3, 55488, Note_on_c, 1, 50, 110
3, 55488, Note_on_c, 1, 38, 110
3, 55676, Note_off_c, 1, 50, 100
3, 55676, Note_off_c, 1, 38, 100
3, 55680, Note_on_c, 1, 48, 110
3, 55728, Note_on_c, 1, 51, 110
3, 55772, Note_off_c, 1, 48, 100
3, 55776, Note_on_c, 1, 55, 110
3, 55820, Note_off_c, 1, 51, 100
3, 55824, Note_on_c, 1, 60, 110
3, 55868, Note_off_c, 1, 55, 100
3, 55872, Note_on_c, 1, 56, 110
3, 55916, Note_off_c, 1, 60, 100
3, 55920, Note_on_c, 1, 55, 110
3, 55964, Note_off_c, 1, 56, 100
3, 55968, Note_on_c, 1, 54, 110
3, 56012, Note_off_c, 1, 55, 100
3, 56016, Note_on_c, 1, 55, 110
3, 56060, Note_off_c, 1, 54, 100
3, 56064, Note_on_c, 1, 48, 110
3, 56108, Note_off_c, 1, 55, 100
3, 56112, Note_on_c, 1, 51, 110
3, 56156, Note_off_c, 1, 48, 100
3, 56160, Note_on_c, 1, 55, 110
3, 56204, Note_off_c, 1, 51, 100
3, 56208, Note_on_c, 1, 60, 110
3, 56252, Note_off_c, 1, 55, 100
3, 56256, Note_on_c, 1, 56, 110
3, 56300, Note_off_c, 1, 60, 100
3, 56304, Note_on_c, 1, 55, 110
3, 56348, Note_off_c, 1, 56, 100
3, 56352, Note_on_c, 1, 54, 110
3, 56396, Note_off_c, 1, 55, 100
3, 56400, Note_on_c, 1, 55, 110
3, 56444, Note_off_c, 1, 54, 100
3, 56448, Note_on_c, 1, 48, 110
3, 56492, Note_off_c, 1, 55, 100
3, 56496, Note_on_c, 1, 51, 110
3, 56540, Note_off_c, 1, 48, 100
3, 56544, Note_on_c, 1, 55, 110
3, 56588, Note_off_c, 1, 51, 100
3, 56592, Note_on_c, 1, 60, 110
3, 56636, Note_off_c, 1, 55, 100
3, 56640, Note_on_c, 1, 56, 110
3, 56684, Note_off_c, 1, 60, 100
3, 56688, Note_on_c, 1, 55, 110
3, 56732, Note_off_c, 1, 56, 100
3, 56736, Note_on_c, 1, 54, 110
3, 56780, Note_off_c, 1, 55, 100
3, 56784, Note_on_c, 1, 55, 110
3, 56828, Note_off_c, 1, 54, 100
3, 56832, Note_on_c, 1, 48, 110
3, 56876, Note_off_c, 1, 55, 100
3, 56880, Note_on_c, 1, 51, 110
3, 56924, Note_off_c, 1, 48, 100
3, 56928, Note_on_c, 1, 55, 110
3, 56972, Note_off_c, 1, 51, 100
3, 56976, Note_on_c, 1, 60, 110
3, 57020, Note_off_c, 1, 55, 100
3, 57024, Note_on_c, 1, 56, 110
3, 57068, Note_off_c, 1, 60, 100
3, 57072, Note_on_c, 1, 55, 110
3, 57116, Note_off_c, 1, 56, 100
3, 57120, Note_on_c, 1, 54, 110
3, 57164, Note_off_c, 1, 55, 100
3, 57168, Note_on_c, 1, 55, 110
3, 57212, Note_off_c, 1, 54, 100
3, 57216, Note_on_c, 1, 47, 110
3, 57260, Note_off_c, 1, 55, 100
3, 57264, Note_on_c, 1, 50, 110
3, 57308, Note_off_c, 1, 47, 100
3, 57312, Note_on_c, 1, 55, 110
3, 57356, Note_off_c, 1, 50, 100
3, 57360, Note_on_c, 1, 59, 110
3, 57404, Note_off_c, 1, 55, 100
3, 57408, Note_on_c, 1, 56, 110
3, 57452, Note_off_c, 1, 59, 100
3, 57456, Note_on_c, 1, 55, 110
3, 57500, Note_off_c, 1, 56, 100
3, 57504, Note_on_c, 1, 54, 110
3, 57548, Note_off_c, 1, 55, 100
3, 57552, Note_on_c, 1, 55, 110
3, 57596, Note_off_c, 1, 54, 100
3, 57600, Note_on_c, 1, 47, 110
3, 57644, Note_off_c, 1, 55, 100
3, 57648, Note_on_c, 1, 50, 110
3, 57692, Note_off_c, 1, 47, 100
3, 57696, Note_on_c, 1, 55, 110
3, 57740, Note_off_c, 1, 50, 100
3, 57744, Note_on_c, 1, 59, 110
3, 57788, Note_off_c, 1, 55, 100
3, 57792, Note_on_c, 1, 56, 110
3, 57836, Note_off_c, 1, 59, 100
3, 57840, Note_on_c, 1, 55, 110
3, 57884, Note_off_c, 1, 56, 100
3, 57888, Note_on_c, 1, 54, 110
3, 57932, Note_off_c, 1, 55, 100
3, 57936, Note_on_c, 1, 55, 110
3, 57980, Note_off_c, 1, 54, 100
3, 57984, Note_on_c, 1, 47, 110
3, 58028, Note_off_c, 1, 55, 100
3, 58032, Note_on_c, 1, 50, 110
3, 58076, Note_off_c, 1, 47, 100
3, 58080, Note_on_c, 1, 55, 110
3, 58124, Note_off_c, 1, 50, 100
3, 58128, Note_on_c, 1, 59, 110
3, 58172, Note_off_c, 1, 55, 100
3, 58176, Note_on_c, 1, 56, 110
3, 58220, Note_off_c, 1, 59, 100
3, 58224, Note_on_c, 1, 55, 110
3, 58268, Note_off_c, 1, 56, 100
3, 58272, Note_on_c, 1, 54, 110
3, 58316, Note_off_c, 1, 55, 100
3, 58320, Note_on_c, 1, 55, 110
3, 58364, Note_off_c, 1, 54, 100
3, 58368, Note_on_c, 1, 47, 110
3, 58412, Note_off_c, 1, 55, 100
3, 58416, Note_on_c, 1, 50, 110
3, 58460, Note_off_c, 1, 47, 100
3, 58464, Note_on_c, 1, 55, 110
3, 58508, Note_off_c, 1, 50, 100
3, 58512, Note_on_c, 1, 59, 110
3, 58556, Note_off_c, 1, 55, 100
3, 58560, Note_on_c, 1, 56, 110
3, 58604, Note_off_c, 1, 59, 100
3, 58608, Note_on_c, 1, 55, 110
3, 58652, Note_off_c, 1, 56, 100
3, 58656, Note_on_c, 1, 54, 110
3, 58700, Note_off_c, 1, 55, 100
3, 58704, Note_on_c, 1, 55, 110
3, 58748, Note_off_c, 1, 54, 100
3, 58752, Note_on_c, 1, 48, 110
3, 58796, Note_off_c, 1, 55, 100
3, 58940, Note_off_c, 1, 48, 100
3, 58944, Note_on_c, 1, 60, 110
3, 58944, Note_on_c, 1, 63, 110
3, 59132, Note_off_c, 1, 60, 100
3, 59132, Note_off_c, 1, 63, 100
3, 59136, Note_on_c, 1, 46, 110
3, 59324, Note_off_c, 1, 46, 100
3, 59328, Note_on_c, 1, 58, 110
3, 59328, Note_on_c, 1, 61, 110
3, 59328, Note_on_c, 1, 63, 110
3, 59516, Note_off_c, 1, 58, 100
3, 59516, Note_off_c, 1, 61, 100
3, 59516, Note_off_c, 1, 63, 100
3, 59520, Note_on_c, 1, 48, 110
3, 59708, Note_off_c, 1, 48, 100
3, 59712, Note_on_c, 1, 60, 110
3, 59712, Note_on_c, 1, 63, 110
3, 59712, Note_on_c, 1, 56, 110
3, 59900, Note_off_c, 1, 60, 100
3, 59900, Note_off_c, 1, 63, 100
3, 59900, Note_off_c, 1, 56, 100
3, 59904, Note_on_c, 1, 46, 110
3, 60092, Note_off_c, 1, 46, 100
3, 60096, Note_on_c, 1, 58, 110
3, 60096, Note_on_c, 1, 61, 110
3, 60096, Note_on_c, 1, 64, 110
3, 60096, Note_on_c, 1, 55, 110
3, 60284, Note_off_c, 1, 58, 100
3, 60284, Note_off_c, 1, 61, 100
3, 60284, Note_off_c, 1, 64, 100
3, 60284, Note_off_c, 1, 55, 100
3, 60288, Note_on_c, 1, 44, 110
3, 60476, Note_off_c, 1, 44, 100
3, 60480, Note_on_c, 1, 56, 110
3, 60480, Note_on_c, 1, 60, 110
3, 60480, Note_on_c, 1, 65, 110
3, 60668, Note_off_c, 1, 56, 100
3, 60668, Note_off_c, 1, 60, 100
3, 60668, Note_off_c, 1, 65, 100
3, 60672, Note_on_c, 1, 46, 110
3, 60860, Note_off_c, 1, 46, 100
3, 60864, Note_on_c, 1, 58, 110
3, 60864, Note_on_c, 1, 65, 110
3, 60864, Note_on_c, 1, 68, 110
3, 61052, Note_off_c, 1, 58, 100
3, 61052, Note_off_c, 1, 65, 100
3, 61052, Note_off_c, 1, 68, 100
3, 61056, Note_on_c, 1, 51, 110
3, 61244, Note_off_c, 1, 51, 100
3, 61440, Note_on_c, 1, 51, 110
3, 61440, Note_on_c, 1, 39, 110
3, 61628, Note_off_c, 1, 51, 100
3, 61628, Note_off_c, 1, 39, 100
3, 61632, Note_on_c, 1, 49, 110
3, 61632, Note_on_c, 1, 37, 110
3, 61820, Note_off_c, 1, 49, 100
3, 61820, Note_off_c, 1, 37, 100
3, 61824, Note_on_c, 1, 36, 110
3, 61872, Note_on_c, 1, 40, 110
3, 61916, Note_off_c, 1, 36, 100
3, 61920, Note_on_c, 1, 43, 110
3, 61964, Note_off_c, 1, 40, 100
3, 61968, Note_on_c, 1, 48, 110
3, 62012, Note_off_c, 1, 43, 100
3, 62016, Note_on_c, 1, 49, 110
3, 62060, Note_off_c, 1, 48, 100
3, 62064, Note_on_c, 1, 48, 110
3, 62108, Note_off_c, 1, 49, 100
3, 62112, Note_on_c, 1, 47, 110
3, 62156, Note_off_c, 1, 48, 100
3, 62160, Note_on_c, 1, 48, 110
3, 62204, Note_off_c, 1, 47, 100
3, 62208, Note_on_c, 1, 36, 110
3, 62252, Note_off_c, 1, 48, 100
3, 62256, Note_on_c, 1, 40, 110
3, 62300, Note_off_c, 1, 36, 100
3, 62304, Note_on_c, 1, 43, 110
3, 62348, Note_off_c, 1, 40, 100
3, 62352, Note_on_c, 1, 48, 110
3, 62396, Note_off_c, 1, 43, 100
3, 62400, Note_on_c, 1, 49, 110
3, 62444, Note_off_c, 1, 48, 100
3, 62448, Note_on_c, 1, 48, 110
3, 62492, Note_off_c, 1, 49, 100
3, 62496, Note_on_c, 1, 47, 110
3, 62540, Note_off_c, 1, 48, 100
3, 62544, Note_on_c, 1, 48, 110
3, 62588, Note_off_c, 1, 47, 100
3, 62592, Note_on_c, 1, 36, 110
3, 62636, Note_off_c, 1, 48, 100
3, 62640, Note_on_c, 1, 40, 110
3, 62684, Note_off_c, 1, 36, 100
3, 62688, Note_on_c, 1, 43, 110
3, 62732, Note_off_c, 1, 40, 100
3, 62736, Note_on_c, 1, 48, 110
3, 62780, Note_off_c, 1, 43, 100
3, 62784, Note_on_c, 1, 49, 110
3, 62828, Note_off_c, 1, 48, 100
3, 62832, Note_on_c, 1, 48, 110
3, 62876, Note_off_c, 1, 49, 100
3, 62880, Note_on_c, 1, 47, 110
3, 62924, Note_off_c, 1, 48, 100
3, 62928, Note_on_c, 1, 48, 110
3, 62972, Note_off_c, 1, 47, 100
3, 62976, Note_on_c, 1, 36, 110
3, 63020, Note_off_c, 1, 48, 100
3, 63024, Note_on_c, 1, 40, 110
3, 63068, Note_off_c, 1, 36, 100
3, 63072, Note_on_c, 1, 43, 110
3, 63116, Note_off_c, 1, 40, 100
3, 63120, Note_on_c, 1, 48, 110
3, 63164, Note_off_c, 1, 43, 100
3, 63168, Note_on_c, 1, 49, 110
3, 63212, Note_off_c, 1, 48, 100
3, 63216, Note_on_c, 1, 48, 110
3, 63260, Note_off_c, 1, 49, 100
3, 63264, Note_on_c, 1, 47, 110
3, 63308, Note_off_c, 1, 48, 100
3, 63312, Note_on_c, 1, 48, 110
3, 63356, Note_off_c, 1, 47, 100
3, 63360, Note_on_c, 1, 41, 110
3, 63404, Note_off_c, 1, 48, 100
3, 63408, Note_on_c, 1, 44, 110
3, 63452, Note_off_c, 1, 41, 100
3, 63456, Note_on_c, 1, 48, 110
3, 63500, Note_off_c, 1, 44, 100
3, 63504, Note_on_c, 1, 53, 110
3, 63548, Note_off_c, 1, 48, 100
3, 63552, Note_on_c, 1, 55, 110
3, 63596, Note_off_c, 1, 53, 100
3, 63600, Note_on_c, 1, 53, 110
3, 63644, Note_off_c, 1, 55, 100
3, 63648, Note_on_c, 1, 52, 110
3, 63692, Note_off_c, 1, 53, 100
3, 63696, Note_on_c, 1, 53, 110
3, 63740, Note_off_c, 1, 52, 100
3, 63744, Note_on_c, 1, 41, 110
3, 63788, Note_off_c, 1, 53, 100
3, 63792, Note_on_c, 1, 44, 110
3, 63836, Note_off_c, 1, 41, 100
3, 63840, Note_on_c, 1, 48, 110
3, 63884, Note_off_c, 1, 44, 100
3, 63888, Note_on_c, 1, 53, 110
3, 63932, Note_off_c, 1, 48, 100
3, 63936, Note_on_c, 1, 55, 110
3, 63980, Note_off_c, 1, 53, 100
3, 63984, Note_on_c, 1, 53, 110
3, 64028, Note_off_c, 1, 55, 100
3, 64032, Note_on_c, 1, 52, 110
3, 64076, Note_off_c, 1, 53, 100
3, 64080, Note_on_c, 1, 53, 110
3, 64124, Note_off_c, 1, 52, 100
3, 64128, Note_on_c, 1, 42, 110
3, 64172, Note_off_c, 1, 53, 100
3, 64176, Note_on_c, 1, 45, 110
3, 64220, Note_off_c, 1, 42, 100
3, 64224, Note_on_c, 1, 48, 110
3, 64268, Note_off_c, 1, 45, 100
3, 64272, Note_on_c, 1, 54, 110
3, 64316, Note_off_c, 1, 48, 100
3, 64320, Note_on_c, 1, 55, 110
3, 64364, Note_off_c, 1, 54, 100
3, 64368, Note_on_c, 1, 54, 110
3, 64412, Note_off_c, 1, 55, 100
3, 64416, Note_on_c, 1, 55, 110
3, 64460, Note_off_c, 1, 54, 100
3, 64464, Note_on_c, 1, 54, 110
3, 64508, Note_off_c, 1, 55, 100
3, 64512, Note_on_c, 1, 42, 110
3, 64556, Note_off_c, 1, 54, 100
3, 64560, Note_on_c, 1, 45, 110
3, 64604, Note_off_c, 1, 42, 100
3, 64608, Note_on_c, 1, 48, 110
3, 64652, Note_off_c, 1, 45, 100
3, 64656, Note_on_c, 1, 54, 110
3, 64700, Note_off_c, 1, 48, 100
3, 64704, Note_on_c, 1, 55, 110
3, 64748, Note_off_c, 1, 54, 100
3, 64752, Note_on_c, 1, 54, 110
3, 64796, Note_off_c, 1, 55, 100
3, 64800, Note_on_c, 1, 55, 110
3, 64844, Note_off_c, 1, 54, 100
3, 64848, Note_on_c, 1, 54, 110
3, 64892, Note_off_c, 1, 55, 100
3, 64896, Note_on_c, 1, 43, 110
3, 64940, Note_off_c, 1, 54, 100
3, 65084, Note_off_c, 1, 43, 100
3, 65088, Note_on_c, 1, 55, 110
3, 65472, Note_on_c, 1, 62, 110
3, 65660, Note_off_c, 1, 62, 100
3, 65664, Note_on_c, 1, 60, 110
3, 65852, Note_off_c, 1, 60, 100
3, 65856, Note_on_c, 1, 67, 110
3, 66044, Note_off_c, 1, 67, 100
3, 66048, Note_on_c, 1, 63, 110
3, 66236, Note_off_c, 1, 63, 100
3, 66240, Note_on_c, 1, 60, 110
3, 66428, Note_off_c, 1, 55, 100
3, 66428, Note_off_c, 1, 60, 100
3, 66432, Note_on_c, 1, 43, 110
3, 66624, Note_on_c, 1, 55, 110
3, 67008, Note_on_c, 1, 47, 110
3, 67388, Note_off_c, 1, 47, 100
3, 67388, Note_off_c, 1, 55, 100
3, 67392, Note_on_c, 1, 55, 110
3, 67584, Note_on_c, 1, 51, 110
3, 67772, Note_off_c, 1, 51, 100
3, 67776, Note_on_c, 1, 48, 110
3, 67964, Note_off_c, 1, 43, 100
3, 67964, Note_off_c, 1, 48, 100
3, 67968, Note_on_c, 1, 43, 110
3, 68156, Note_off_c, 1, 55, 100
3, 68156, Note_off_c, 1, 43, 100
3, 68736, Note_on_c, 1, 36, 110
3, 68784, Note_on_c, 1, 39, 110
3, 68828, Note_off_c, 1, 36, 100
3, 68832, Note_on_c, 1, 43, 110
3, 68876, Note_off_c, 1, 39, 100
3, 68880, Note_on_c, 1, 48, 110
3, 68924, Note_off_c, 1, 43, 100
3, 68928, Note_on_c, 1, 50, 110
3, 68972, Note_off_c, 1, 48, 100
3, 68976, Note_on_c, 1, 48, 110
3, 69020, Note_off_c, 1, 50, 100
3, 69024, Note_on_c, 1, 47, 110
3, 69068, Note_off_c, 1, 48, 100
3, 69072, Note_on_c, 1, 48, 110
3, 69116, Note_off_c, 1, 47, 100
3, 69120, Note_on_c, 1, 36, 110
3, 69164, Note_off_c, 1, 48, 100
3, 69168, Note_on_c, 1, 39, 110
3, 69212, Note_off_c, 1, 36, 100
3, 69216, Note_on_c, 1, 43, 110
3, 69260, Note_off_c, 1, 39, 100
3, 69264, Note_on_c, 1, 48, 110
3, 69308, Note_off_c, 1, 43, 100
3, 69312, Note_on_c, 1, 50, 110
3, 69356, Note_off_c, 1, 48, 100
3, 69360, Note_on_c, 1, 48, 110
3, 69404, Note_off_c, 1, 50, 100
3, 69408, Note_on_c, 1, 47, 110
3, 69452, Note_off_c, 1, 48, 100
3, 69456, Note_on_c, 1, 48, 110
3, 69500, Note_off_c, 1, 47, 100
3, 69504, Note_on_c, 1, 36, 110
3, 69548, Note_off_c, 1, 48, 100
3, 69552, Note_on_c, 1, 39, 110
3, 69596, Note_off_c, 1, 36, 100
3, 69600, Note_on_c, 1, 43, 110
3, 69644, Note_off_c, 1, 39, 100
3, 69648, Note_on_c, 1, 48, 110
3, 69692, Note_off_c, 1, 43, 100
3, 69696, Note_on_c, 1, 50, 110
3, 69740, Note_off_c, 1, 48, 100
3, 69744, Note_on_c, 1, 48, 110
3, 69788, Note_off_c, 1, 50, 100
3, 69792, Note_on_c, 1, 47, 110
3, 69836, Note_off_c, 1, 48, 100
3, 69840, Note_on_c, 1, 48, 110
3, 69884, Note_off_c, 1, 47, 100
3, 69888, Note_on_c, 1, 36, 110
3, 69932, Note_off_c, 1, 48, 100
3, 69936, Note_on_c, 1, 39, 110
3, 69980, Note_off_c, 1, 36, 100
3, 69984, Note_on_c, 1, 43, 110
3, 70028, Note_off_c, 1, 39, 100
3, 70032, Note_on_c, 1, 48, 110
3, 70076, Note_off_c, 1, 43, 100
3, 70080, Note_on_c, 1, 50, 110
3, 70124, Note_off_c, 1, 48, 100
3, 70128, Note_on_c, 1, 48, 110
3, 70172, Note_off_c, 1, 50, 100
3, 70176, Note_on_c, 1, 47, 110
3, 70220, Note_off_c, 1, 48, 100
3, 70224, Note_on_c, 1, 48, 110
3, 70268, Note_off_c, 1, 47, 100
3, 70272, Note_on_c, 1, 46, 120
3, 70272, Note_on_c, 1, 34, 120
3, 70316, Note_off_c, 1, 48, 100
3, 70652, Note_off_c, 1, 46, 100
3, 70652, Note_off_c, 1, 34, 100
3, 70848, Note_on_c, 1, 58, 120
3, 70848, Note_on_c, 1, 55, 120
3, 70848, Note_on_c, 1, 52, 120
3, 70848, Note_on_c, 1, 46, 120
3, 71036, Note_off_c, 1, 58, 100
3, 71036, Note_off_c, 1, 55, 100
3, 71036, Note_off_c, 1, 52, 100
3, 71036, Note_off_c, 1, 46, 100
3, 71040, Note_on_c, 1, 46, 120
3, 71040, Note_on_c, 1, 34, 120
3, 71420, Note_off_c, 1, 46, 100
3, 71420, Note_off_c, 1, 34, 100
3, 71616, Note_on_c, 1, 58, 120
3, 71616, Note_on_c, 1, 55, 120
3, 71616, Note_on_c, 1, 52, 120
3, 71616, Note_on_c, 1, 46, 120
3, 71804, Note_off_c, 1, 58, 100
3, 71804, Note_off_c, 1, 55, 100
3, 71804, Note_off_c, 1, 52, 100
3, 71804, Note_off_c, 1, 46, 100
3, 71808, Note_on_c, 1, 56, 120
3, 71808, Note_on_c, 1, 53, 120
3, 71808, Note_on_c, 1, 48, 120
3, 71808, Note_on_c, 1, 44, 120
3, 71996, Note_off_c, 1, 56, 100
3, 71996, Note_off_c, 1, 53, 100
3, 71996, Note_off_c, 1, 48, 100
3, 71996, Note_off_c, 1, 44, 100
3, 72192, Note_on_c, 1, 53, 110
3, 72240, Note_on_c, 1, 56, 110
3, 72284, Note_off_c, 1, 53, 100
3, 72288, Note_on_c, 1, 60, 110
3, 72332, Note_off_c, 1, 56, 100
3, 72336, Note_on_c, 1, 65, 110
3, 72380, Note_off_c, 1, 60, 100
3, 72384, Note_on_c, 1, 67, 110
3, 72428, Note_off_c, 1, 65, 100
3, 72432, Note_on_c, 1, 65, 110
3, 72476, Note_off_c, 1, 67, 100
3, 72480, Note_on_c, 1, 64, 110
3, 72524, Note_off_c, 1, 65, 100
3, 72528, Note_on_c, 1, 65, 110
3, 72572, Note_off_c, 1, 64, 100
3, 72576, Note_on_c, 1, 50, 110
3, 72620, Note_off_c, 1, 65, 100
3, 72624, Note_on_c, 1, 53, 110
3, 72668, Note_off_c, 1, 50, 100
3, 72672, Note_on_c, 1, 59, 110
3, 72716, Note_off_c, 1, 53, 100
3, 72720, Note_on_c, 1, 62, 110
3, 72764, Note_off_c, 1, 59, 100
3, 72768, Note_on_c, 1, 63, 110
3, 72812, Note_off_c, 1, 62, 100
3, 72816, Note_on_c, 1, 62, 110
3, 72860, Note_off_c, 1, 63, 100
3, 72864, Note_on_c, 1, 61, 110
3, 72908, Note_off_c, 1, 62, 100
3, 72912, Note_on_c, 1, 62, 110
3, 72956, Note_off_c, 1, 61, 100
3, 72960, Note_on_c, 1, 47, 110
3, 73004, Note_off_c, 1, 62, 100
3, 73008, Note_on_c, 1, 50, 110
3, 73052, Note_off_c, 1, 47, 100
3, 73056, Note_on_c, 1, 55, 110
3, 73100, Note_off_c, 1, 50, 100
3, 73104, Note_on_c, 1, 59, 110
3, 73148, Note_off_c, 1, 55, 100
3, 73152, Note_on_c, 1, 60, 110
3, 73196, Note_off_c, 1, 59, 100
3, 73200, Note_on_c, 1, 59, 110
3, 73244, Note_off_c, 1, 60, 100
3, 73248, Note_on_c, 1, 58, 110
3, 73292, Note_off_c, 1, 59, 100
3, 73296, Note_on_c, 1, 59, 110
3, 73340, Note_off_c, 1, 58, 100
3, 73344, Note_on_c, 1, 60, 110
3, 73344, Note_on_c, 1, 55, 110
3, 73344, Note_on_c, 1, 51, 110
3, 73344, Note_on_c, 1, 48, 110
3, 73388, Note_off_c, 1, 59, 100
3, 73532, Note_off_c, 1, 60, 100
3, 73532, Note_off_c, 1, 55, 100
3, 73532, Note_off_c, 1, 51, 100
3, 73532, Note_off_c, 1, 48, 100
3, 73536, Note_on_c, 1, 62, 110
3, 73536, Note_on_c, 1, 53, 110
3, 73536, Note_on_c, 1, 56, 110
3, 73724, Note_off_c, 1, 62, 100
3, 73724, Note_off_c, 1, 53, 100
3, 73724, Note_off_c, 1, 56, 100
3, 73728, Note_on_c, 1, 63, 110
3, 73728, Note_on_c, 1, 60, 110
3, 73728, Note_on_c, 1, 55, 110
3, 73916, Note_off_c, 1, 63, 100
3, 73916, Note_off_c, 1, 60, 100
3, 73916, Note_off_c, 1, 55, 100
3, 73920, Note_on_c, 1, 55, 110
3, 73920, Note_on_c, 1, 59, 110
3, 73920, Note_on_c, 1, 62, 110
3, 74108, Note_off_c, 1, 55, 100
3, 74108, Note_off_c, 1, 59, 100
3, 74108, Note_off_c, 1, 62, 100
3, 74112, Note_on_c, 1, 60, 110
3, 74112, Note_on_c, 1, 55, 110
3, 74112, Note_on_c, 1, 51, 110
3, 74112, Note_on_c, 1, 48, 110
3, 74300, Note_off_c, 1, 60, 100
3, 74300, Note_off_c, 1, 55, 100
3, 74300, Note_off_c, 1, 51, 100
3, 74300, Note_off_c, 1, 48, 100
3, 74592, Note_on_c, 1, 47, 110
3, 74640, Note_on_c, 1, 48, 110
3, 74684, Note_off_c, 1, 47, 100
3, 74688, Note_on_c, 1, 47, 110
3, 74732, Note_off_c, 1, 48, 100
3, 74736, Note_on_c, 1, 48, 110
3, 74780, Note_off_c, 1, 47, 100
3, 74784, Note_on_c, 1, 47, 110
3, 74828, Note_off_c, 1, 48, 100
3, 74832, Note_on_c, 1, 48, 110
3, 74876, Note_off_c, 1, 47, 100
3, 74876, Note_off_c, 1, 48, 100
3, 74880, Note_on_c, 1, 36, 110
3, 74928, Note_on_c, 1, 40, 110
3, 74972, Note_off_c, 1, 36, 100
3, 74976, Note_on_c, 1, 43, 110
3, 75020, Note_off_c, 1, 40, 100
3, 75024, Note_on_c, 1, 48, 110
3, 75068, Note_off_c, 1, 43, 100
3, 75072, Note_on_c, 1, 49, 110
3, 75116, Note_off_c, 1, 48, 100
3, 75120, Note_on_c, 1, 48, 110
3, 75164, Note_off_c, 1, 49, 100
3, 75168, Note_on_c, 1, 47, 110
3, 75212, Note_off_c, 1, 48, 100
3, 75216, Note_on_c, 1, 48, 110
3, 75260, Note_off_c, 1, 47, 100
3, 75264, Note_on_c, 1, 36, 110
3, 75308, Note_off_c, 1, 48, 100
3, 75312, Note_on_c, 1, 40, 110
3, 75356, Note_off_c, 1, 36, 100
3, 75360, Note_on_c, 1, 43, 110
3, 75404, Note_off_c, 1, 40, 100
3, 75408, Note_on_c, 1, 48, 110
3, 75452, Note_off_c, 1, 43, 100
3, 75456, Note_on_c, 1, 49, 110
3, 75500, Note_off_c, 1, 48, 100
3, 75504, Note_on_c, 1, 48, 110
3, 75548, Note_off_c, 1, 49, 100
3, 75552, Note_on_c, 1, 47, 110
3, 75596, Note_off_c, 1, 48, 100
3, 75600, Note_on_c, 1, 48, 110
3, 75644, Note_off_c, 1, 47, 100
3, 75648, Note_on_c, 1, 36, 110
3, 75692, Note_off_c, 1, 48, 100
3, 75696, Note_on_c, 1, 40, 110
3, 75740, Note_off_c, 1, 36, 100
3, 75744, Note_on_c, 1, 43, 110
3, 75788, Note_off_c, 1, 40, 100
3, 75792, Note_on_c, 1, 48, 110
3, 75836, Note_off_c, 1, 43, 100
3, 75840, Note_on_c, 1, 49, 110
3, 75884, Note_off_c, 1, 48, 100
3, 75888, Note_on_c, 1, 48, 110
3, 75932, Note_off_c, 1, 49, 100
3, 75936, Note_on_c, 1, 47, 110
3, 75980, Note_off_c, 1, 48, 100
3, 75984, Note_on_c, 1, 48, 110
3, 76028, Note_off_c, 1, 47, 100
3, 76032, Note_on_c, 1, 36, 110
3, 76076, Note_off_c, 1, 48, 100
3, 76080, Note_on_c, 1, 40, 110
3, 76124, Note_off_c, 1, 36, 100
3, 76128, Note_on_c, 1, 43, 110
3, 76172, Note_off_c, 1, 40, 100
3, 76176, Note_on_c, 1, 48, 110
3, 76220, Note_off_c, 1, 43, 100
3, 76224, Note_on_c, 1, 49, 110
3, 76268, Note_off_c, 1, 48, 100
3, 76272, Note_on_c, 1, 48, 110
3, 76316, Note_off_c, 1, 49, 100
3, 76320, Note_on_c, 1, 47, 110
3, 76364, Note_off_c, 1, 48, 100
3, 76368, Note_on_c, 1, 48, 110
3, 76412, Note_off_c, 1, 47, 100
3, 76416, Note_on_c, 1, 41, 110
3, 76460, Note_off_c, 1, 48, 100
3, 76464, Note_on_c, 1, 44, 110
3, 76508, Note_off_c, 1, 41, 100
3, 76512, Note_on_c, 1, 48, 110
3, 76556, Note_off_c, 1, 44, 100
3, 76560, Note_on_c, 1, 53, 110
3, 76604, Note_off_c, 1, 48, 100
3, 76608, Note_on_c, 1, 55, 110
3, 76652, Note_off_c, 1, 53, 100
3, 76656, Note_on_c, 1, 53, 110
3, 76700, Note_off_c, 1, 55, 100
3, 76704, Note_on_c, 1, 52, 110
3, 76748, Note_off_c, 1, 53, 100
3, 76752, Note_on_c, 1, 53, 110
3, 76796, Note_off_c, 1, 52, 100
3, 76800, Note_on_c, 1, 41, 110
3, 76844, Note_off_c, 1, 53, 100
3, 76848, Note_on_c, 1, 44, 110
3, 76892, Note_off_c, 1, 41, 100
3, 76896, Note_on_c, 1, 48, 110
3, 76940, Note_off_c, 1, 44, 100
3, 76944, Note_on_c, 1, 53, 110
3, 76988, Note_off_c, 1, 48, 100
3, 76992, Note_on_c, 1, 55, 110
3, 77036, Note_off_c, 1, 53, 100
3, 77040, Note_on_c, 1, 53, 110
3, 77084, Note_off_c, 1, 55, 100
3, 77088, Note_on_c, 1, 52, 110
3, 77132, Note_off_c, 1, 53, 100
3, 77136, Note_on_c, 1, 53, 110
3, 77180, Note_off_c, 1, 52, 100
3, 77184, Note_on_c, 1, 42, 110
3, 77228, Note_off_c, 1, 53, 100
3, 77232, Note_on_c, 1, 45, 110
3, 77276, Note_off_c, 1, 42, 100
3, 77280, Note_on_c, 1, 48, 110
3, 77324, Note_off_c, 1, 45, 100
3, 77328, Note_on_c, 1, 54, 110
3, 77372, Note_off_c, 1, 48, 100
3, 77376, Note_on_c, 1, 55, 110
3, 77420, Note_off_c, 1, 54, 100
3, 77424, Note_on_c, 1, 54, 110
3, 77468, Note_off_c, 1, 55, 100
3, 77472, Note_on_c, 1, 55, 110
3, 77516, Note_off_c, 1, 54, 100
3, 77520, Note_on_c, 1, 54, 110
3, 77564, Note_off_c, 1, 55, 100
3, 77568, Note_on_c, 1, 42, 110
3, 77612, Note_off_c, 1, 54, 100
3, 77616, Note_on_c, 1, 45, 110
3, 77660, Note_off_c, 1, 42, 100
3, 77664, Note_on_c, 1, 48, 110
3, 77708, Note_off_c, 1, 45, 100
3, 77712, Note_on_c, 1, 54, 110
3, 77756, Note_off_c, 1, 48, 100
3, 77760, Note_on_c, 1, 55, 110
3, 77804, Note_off_c, 1, 54, 100
3, 77808, Note_on_c, 1, 54, 110
3, 77852, Note_off_c, 1, 55, 100
3, 77856, Note_on_c, 1, 55, 110
3, 77900, Note_off_c, 1, 54, 100
3, 77904, Note_on_c, 1, 54, 110
3, 77948, Note_off_c, 1, 55, 100
3, 77952, Note_on_c, 1, 43, 110
3, 77996, Note_off_c, 1, 54, 100
3, 78140, Note_off_c, 1, 43, 100
3, 78144, Note_on_c, 1, 55, 110
3, 78528, Note_on_c, 1, 62, 110
3, 78716, Note_off_c, 1, 62, 100
3, 78720, Note_on_c, 1, 60, 110
3, 78908, Note_off_c, 1, 60, 100
3, 78912, Note_on_c, 1, 67, 110
3, 79100, Note_off_c, 1, 67, 100
3, 79104, Note_on_c, 1, 63, 110
3, 79292, Note_off_c, 1, 63, 100
3, 79296, Note_on_c, 1, 60, 110
3, 79484, Note_off_c, 1, 55, 100
3, 79484, Note_off_c, 1, 60, 100
3, 79488, Note_on_c, 1, 43, 110
3, 79680, Note_on_c, 1, 55, 110
3, 80064, Note_on_c, 1, 47, 110
3, 80444, Note_off_c, 1, 47, 100
3, 80444, Note_off_c, 1, 55, 100
3, 80448, Note_on_c, 1, 55, 110
3, 80640, Note_on_c, 1, 51, 110
3, 80828, Note_off_c, 1, 51, 100
3, 80832, Note_on_c, 1, 48, 110
3, 81020, Note_off_c, 1, 43, 100
3, 81020, Note_off_c, 1, 48, 100
3, 81024, Note_on_c, 1, 43, 110
3, 81212, Note_off_c, 1, 55, 100
3, 81212, Note_off_c, 1, 43, 100
3, 81792, Note_on_c, 1, 36, 110
3, 81840, Note_on_c, 1, 39, 110
3, 81884, Note_off_c, 1, 36, 100
3, 81888, Note_on_c, 1, 43, 110
3, 81932, Note_off_c, 1, 39, 100
3, 81936, Note_on_c, 1, 48, 110
3, 81980, Note_off_c, 1, 43, 100
3, 81984, Note_on_c, 1, 50, 110
3, 82028, Note_off_c, 1, 48, 100
3, 82032, Note_on_c, 1, 48, 110
3, 82076, Note_off_c, 1, 50, 100
3, 82080, Note_on_c, 1, 47, 110
3, 82124, Note_off_c, 1, 48, 100
3, 82128, Note_on_c, 1, 48, 110
3, 82172, Note_off_c, 1, 47, 100
3, 82176, Note_on_c, 1, 36, 110
3, 82220, Note_off_c, 1, 48, 100
3, 82224, Note_on_c, 1, 39, 110
3, 82268, Note_off_c, 1, 36, 100
3, 82272, Note_on_c, 1, 43, 110
3, 82316, Note_off_c, 1, 39, 100
3, 82320, Note_on_c, 1, 48, 110
3, 82364, Note_off_c, 1, 43, 100
3, 82368, Note_on_c, 1, 50, 110
3, 82412, Note_off_c, 1, 48, 100
3, 82416, Note_on_c, 1, 48, 110
3, 82460, Note_off_c, 1, 50, 100
3, 82464, Note_on_c, 1, 47, 110
3, 82508, Note_off_c, 1, 48, 100
3, 82512, Note_on_c, 1, 48, 110
3, 82556, Note_off_c, 1, 47, 100
3, 82560, Note_on_c, 1, 36, 110
3, 82604, Note_off_c, 1, 48, 100
3, 82608, Note_on_c, 1, 39, 110
3, 82652, Note_off_c, 1, 36, 100
3, 82656, Note_on_c, 1, 43, 110
3, 82700, Note_off_c, 1, 39, 100
3, 82704, Note_on_c, 1, 48, 110
3, 82748, Note_off_c, 1, 43, 100
3, 82752, Note_on_c, 1, 50, 110
3, 82796, Note_off_c, 1, 48, 100
3, 82800, Note_on_c, 1, 48, 110
3, 82844, Note_off_c, 1, 50, 100
3, 82848, Note_on_c, 1, 47, 110
3, 82892, Note_off_c, 1, 48, 100
3, 82896, Note_on_c, 1, 48, 110
3, 82940, Note_off_c, 1, 47, 100
3, 82944, Note_on_c, 1, 36, 110
3, 82988, Note_off_c, 1, 48, 100
3, 82992, Note_on_c, 1, 39, 110
3, 83036, Note_off_c, 1, 36, 100
3, 83040, Note_on_c, 1, 43, 110
3, 83084, Note_off_c, 1, 39, 100
3, 83088, Note_on_c, 1, 48, 110
3, 83132, Note_off_c, 1, 43, 100
3, 83136, Note_on_c, 1, 50, 110
3, 83180, Note_off_c, 1, 48, 100
3, 83184, Note_on_c, 1, 48, 110
3, 83228, Note_off_c, 1, 50, 100
3, 83232, Note_on_c, 1, 47, 110
3, 83276, Note_off_c, 1, 48, 100
3, 83280, Note_on_c, 1, 48, 110
3, 83324, Note_off_c, 1, 47, 100
3, 83328, Note_on_c, 1, 46, 120
3, 83328, Note_on_c, 1, 34, 120
3, 83372, Note_off_c, 1, 48, 100
3, 83708, Note_off_c, 1, 46, 100
3, 83708, Note_off_c, 1, 34, 100
3, 83904, Note_on_c, 1, 58, 120
3, 83904, Note_on_c, 1, 55, 120
3, 83904, Note_on_c, 1, 52, 120
3, 83904, Note_on_c, 1, 46, 120
3, 84092, Note_off_c, 1, 58, 100
3, 84092, Note_off_c, 1, 55, 100
3, 84092, Note_off_c, 1, 52, 100
3, 84092, Note_off_c, 1, 46, 100
3, 84096, Note_on_c, 1, 46, 120
3, 84096, Note_on_c, 1, 34, 120
3, 84476, Note_off_c, 1, 46, 100
3, 84476, Note_off_c, 1, 34, 100
3, 84672, Note_on_c, 1, 58, 120
3, 84672, Note_on_c, 1, 55, 120
3, 84672, Note_on_c, 1, 52, 120
3, 84672, Note_on_c, 1, 46, 120
3, 84860, Note_off_c, 1, 58, 100
3, 84860, Note_off_c, 1, 55, 100
3, 84860, Note_off_c, 1, 52, 100
3, 84860, Note_off_c, 1, 46, 100
3, 84864, Note_on_c, 1, 56, 120
3, 84864, Note_on_c, 1, 53, 120
3, 84864, Note_on_c, 1, 48, 120
3, 84864, Note_on_c, 1, 44, 120
3, 85052, Note_off_c, 1, 56, 100
3, 85052, Note_off_c, 1, 53, 100
3, 85052, Note_off_c, 1, 48, 100
3, 85052, Note_off_c, 1, 44, 100
3, 85248, Note_on_c, 1, 53, 110
3, 85296, Note_on_c, 1, 56, 110
3, 85340, Note_off_c, 1, 53, 100
3, 85344, Note_on_c, 1, 60, 110
3, 85388, Note_off_c, 1, 56, 100
3, 85392, Note_on_c, 1, 65, 110
3, 85436, Note_off_c, 1, 60, 100
3, 85440, Note_on_c, 1, 67, 110
3, 85484, Note_off_c, 1, 65, 100
3, 85488, Note_on_c, 1, 65, 110
3, 85532, Note_off_c, 1, 67, 100
3, 85536, Note_on_c, 1, 64, 110
3, 85580, Note_off_c, 1, 65, 100
3, 85584, Note_on_c, 1, 65, 110
3, 85628, Note_off_c, 1, 64, 100
3, 85632, Note_on_c, 1, 50, 110
3, 85676, Note_off_c, 1, 65, 100
3, 85680, Note_on_c, 1, 53, 110
3, 85724, Note_off_c, 1, 50, 100
3, 85728, Note_on_c, 1, 59, 110
3, 85772, Note_off_c, 1, 53, 100
3, 85776, Note_on_c, 1, 62, 110
3, 85820, Note_off_c, 1, 59, 100
3, 85824, Note_on_c, 1, 63, 110
3, 85868, Note_off_c, 1, 62, 100
3, 85872, Note_on_c, 1, 62, 110
3, 85916, Note_off_c, 1, 63, 100
3, 85920, Note_on_c, 1, 61, 110
3, 85964, Note_off_c, 1, 62, 100
3, 85968, Note_on_c, 1, 62, 110
3, 86012, Note_off_c, 1, 61, 100
3, 86016, Note_on_c, 1, 47, 110
3, 86060, Note_off_c, 1, 62, 100
3, 86064, Note_on_c, 1, 50, 110
3, 86108, Note_off_c, 1, 47, 100
3, 86112, Note_on_c, 1, 55, 110
3, 86156, Note_off_c, 1, 50, 100
3, 86160, Note_on_c, 1, 59, 110
3, 86204, Note_off_c, 1, 55, 100
3, 86208, Note_on_c, 1, 60, 110
3, 86252, Note_off_c, 1, 59, 100
3, 86256, Note_on_c, 1, 59, 110
3, 86300, Note_off_c, 1, 60, 100
3, 86304, Note_on_c, 1, 58, 110
3, 86348, Note_off_c, 1, 59, 100
3, 86352, Note_on_c, 1, 59, 110
3, 86396, Note_off_c, 1, 58, 100
3, 86400, Note_on_c, 1, 60, 110
3, 86400, Note_on_c, 1, 55, 110
3, 86400, Note_on_c, 1, 51, 110
3, 86400, Note_on_c, 1, 48, 110
3, 86444, Note_off_c, 1, 59, 100
3, 86588, Note_off_c, 1, 60, 100
3, 86588, Note_off_c, 1, 55, 100
3, 86588, Note_off_c, 1, 51, 100
3, 86588, Note_off_c, 1, 48, 100
3, 86592, Note_on_c, 1, 62, 110
3, 86592, Note_on_c, 1, 53, 110
3, 86592, Note_on_c, 1, 56, 110
3, 86780, Note_off_c, 1, 62, 100
3, 86780, Note_off_c, 1, 53, 100
3, 86780, Note_off_c, 1, 56, 100
3, 86784, Note_on_c, 1, 63, 110
3, 86784, Note_on_c, 1, 60, 110
3, 86784, Note_on_c, 1, 55, 110
3, 86972, Note_off_c, 1, 63, 100
3, 86972, Note_off_c, 1, 60, 100
3, 86972, Note_off_c, 1, 55, 100
3, 86976, Note_on_c, 1, 55, 110
3, 86976, Note_on_c, 1, 59, 110
3, 86976, Note_on_c, 1, 62, 110
3, 87164, Note_off_c, 1, 55, 100
3, 87164, Note_off_c, 1, 59, 100
3, 87164, Note_off_c, 1, 62, 100
3, 87552, Note_on_c, 1, 56, 110
3, 87600, Note_on_c, 1, 60, 110
3, 87644, Note_off_c, 1, 56, 100
3, 87648, Note_on_c, 1, 65, 110
3, 87692, Note_off_c, 1, 60, 100
3, 87696, Note_on_c, 1, 68, 110
3, 87740, Note_off_c, 1, 65, 100
3, 87744, Note_on_c, 1, 70, 110
3, 87788, Note_off_c, 1, 68, 100
3, 87792, Note_on_c, 1, 68, 110
3, 87836, Note_off_c, 1, 70, 100
3, 87840, Note_on_c, 1, 67, 110
3, 87884, Note_off_c, 1, 68, 100
3, 87888, Note_on_c, 1, 68, 110
3, 87932, Note_off_c, 1, 67, 100
3, 87936, Note_on_c, 1, 53, 110
3, 87980, Note_off_c, 1, 68, 100
3, 87984, Note_on_c, 1, 56, 110
3, 88028, Note_off_c, 1, 53, 100
3, 88032, Note_on_c, 1, 60, 110
3, 88076, Note_off_c, 1, 56, 100
3, 88080, Note_on_c, 1, 65, 110
3, 88124, Note_off_c, 1, 60, 100
3, 88128, Note_on_c, 1, 67, 110
3, 88172, Note_off_c, 1, 65, 100
3, 88176, Note_on_c, 1, 65, 110
3, 88220, Note_off_c, 1, 67, 100
3, 88224, Note_on_c, 1, 64, 110
3, 88268, Note_off_c, 1, 65, 100
3, 88272, Note_on_c, 1, 65, 110
3, 88316, Note_off_c, 1, 64, 100
3, 88320, Note_on_c, 1, 50, 110
3, 88364, Note_off_c, 1, 65, 100
3, 88368, Note_on_c, 1, 53, 110
3, 88412, Note_off_c, 1, 50, 100
3, 88416, Note_on_c, 1, 59, 110
3, 88460, Note_off_c, 1, 53, 100
3, 88464, Note_on_c, 1, 62, 110
3, 88508, Note_off_c, 1, 59, 100
3, 88512, Note_on_c, 1, 63, 110
3, 88556, Note_off_c, 1, 62, 100
3, 88560, Note_on_c, 1, 62, 110
3, 88604, Note_off_c, 1, 63, 100
3, 88608, Note_on_c, 1, 61, 110
3, 88652, Note_off_c, 1, 62, 100
3, 88656, Note_on_c, 1, 62, 110
3, 88700, Note_off_c, 1, 61, 100
3, 88704, Note_on_c, 1, 47, 110
3, 88748, Note_off_c, 1, 62, 100
3, 88892, Note_off_c, 1, 47, 100
3, 90240, Note_on_c, 1, 46, 87
3, 90240, Note_on_c, 1, 34, 87
3, 90428, Note_off_c, 1, 46, 100
3, 90428, Note_off_c, 1, 34, 100
3, 91776, Note_on_c, 1, 46, 80
3, 91868, Note_off_c, 1, 46, 100
3, 91872, Note_on_c, 1, 58, 80
3, 91964, Note_off_c, 1, 58, 100
3, 91968, Note_on_c, 1, 58, 80
3, 92060, Note_off_c, 1, 58, 100
3, 92064, Note_on_c, 1, 58, 80
3, 92156, Note_off_c, 1, 58, 100
3, 92160, Note_on_c, 1, 58, 80
3, 92252, Note_off_c, 1, 58, 100
3, 92256, Note_on_c, 1, 58, 80
3, 92348, Note_off_c, 1, 58, 100
3, 92352, Note_on_c, 1, 63, 80
3, 92448, Note_on_c, 1, 58, 80
3, 92540, Note_off_c, 1, 63, 100
3, 92540, Note_off_c, 1, 58, 100
3, 92544, Note_on_c, 1, 62, 80
3, 92640, Note_on_c, 1, 58, 80
3, 92732, Note_off_c, 1, 58, 100
3, 92736, Note_on_c, 1, 58, 80
3, 92828, Note_off_c, 1, 58, 100
3, 92832, Note_on_c, 1, 58, 80
3, 92924, Note_off_c, 1, 62, 100
3, 92924, Note_off_c, 1, 58, 100
3, 92928, Note_on_c, 1, 58, 80
3, 93020, Note_off_c, 1, 58, 100
3, 93024, Note_on_c, 1, 58, 80
3, 93116, Note_off_c, 1, 58, 100
3, 93120, Note_on_c, 1, 50, 80
3, 93212, Note_off_c, 1, 50, 100
3, 93216, Note_on_c, 1, 58, 80
3, 93308, Note_off_c, 1, 58, 100
3, 93312, Note_on_c, 1, 51, 80
3, 93404, Note_off_c, 1, 51, 100
3, 93408, Note_on_c, 1, 58, 80
3, 93500, Note_off_c, 1, 58, 100
3, 93504, Note_on_c, 1, 55, 80
3, 93596, Note_off_c, 1, 55, 100
3, 93600, Note_on_c, 1, 58, 80
3, 93692, Note_off_c, 1, 58, 100
3, 93696, Note_on_c, 1, 53, 80
3, 93696, Note_on_c, 1, 56, 80
3, 93788, Note_off_c, 1, 53, 100
3, 93788, Note_off_c, 1, 56, 100
3, 93792, Note_on_c, 1, 58, 80
3, 93884, Note_off_c, 1, 58, 100
3, 93888, Note_on_c, 1, 55, 80
3, 93888, Note_on_c, 1, 51, 80
3, 93980, Note_off_c, 1, 55, 100
3, 93980, Note_off_c, 1, 51, 100
3, 93984, Note_on_c, 1, 58, 80
3, 94076, Note_off_c, 1, 58, 100
3, 94080, Note_on_c, 1, 46, 80
3, 94172, Note_off_c, 1, 46, 100
3, 94176, Note_on_c, 1, 58, 80
3, 94268, Note_off_c, 1, 58, 100
3, 94272, Note_on_c, 1, 58, 80
3, 94364, Note_off_c, 1, 58, 100
3, 94368, Note_on_c, 1, 58, 80
3, 94460, Note_off_c, 1, 58, 100
3, 94464, Note_on_c, 1, 72, 80
3, 94464, Note_on_c, 1, 68, 80
3, 94556, Note_off_c, 1, 72, 100
3, 94556, Note_off_c, 1, 68, 100
3, 94560, Note_on_c, 1, 58, 80
3, 94652, Note_off_c, 1, 58, 100
3, 94656, Note_on_c, 1, 67, 80
3, 94656, Note_on_c, 1, 70, 80
3, 94748, Note_off_c, 1, 67, 100
3, 94748, Note_off_c, 1, 70, 100
3, 94752, Note_on_c, 1, 58, 80
3, 94844, Note_off_c, 1, 58, 100
3, 94848, Note_on_c, 1, 65, 80
3, 94848, Note_on_c, 1, 68, 80
3, 94940, Note_off_c, 1, 65, 100
3, 94944, Note_on_c, 1, 58, 80
3, 95036, Note_off_c, 1, 58, 100
3, 95040, Note_on_c, 1, 58, 80
3, 95132, Note_off_c, 1, 58, 100
3, 95136, Note_on_c, 1, 58, 80
3, 95228, Note_off_c, 1, 68, 100
3, 95228, Note_off_c, 1, 58, 100
3, 95232, Note_on_c, 1, 65, 80
3, 95232, Note_on_c, 1, 68, 80
3, 95324, Note_off_c, 1, 65, 100
3, 95328, Note_on_c, 1, 58, 80
3, 95420, Note_off_c, 1, 68, 100
3, 95420, Note_off_c, 1, 58, 100
3, 95424, Note_on_c, 1, 63, 80
3, 95424, Note_on_c, 1, 67, 80
3, 95516, Note_off_c, 1, 63, 100
3, 95520, Note_on_c, 1, 58, 80
3, 95612, Note_off_c, 1, 67, 100
3, 95612, Note_off_c, 1, 58, 100
3, 95616, Note_on_c, 1, 65, 80
3, 95616, Note_on_c, 1, 62, 80
3, 95708, Note_off_c, 1, 62, 100
3, 95712, Note_on_c, 1, 58, 80
3, 95804, Note_off_c, 1, 58, 100
3, 95808, Note_on_c, 1, 58, 80
3, 95900, Note_off_c, 1, 58, 100
3, 95904, Note_on_c, 1, 58, 80
3, 95996, Note_off_c, 1, 65, 100
3, 95996, Note_off_c, 1, 58, 100
3, 96000, Note_on_c, 1, 58, 80
3, 96092, Note_off_c, 1, 58, 100
3, 96096, Note_on_c, 1, 58, 80
3, 96188, Note_off_c, 1, 58, 100
3, 96192, Note_on_c, 1, 50, 80
3, 96284, Note_off_c, 1, 50, 100
3, 96288, Note_on_c, 1, 58, 80
3, 96380, Note_off_c, 1, 58, 100
3, 96384, Note_on_c, 1, 51, 80
3, 96476, Note_off_c, 1, 51, 100
3, 96480, Note_on_c, 1, 55, 80
3, 96572, Note_off_c, 1, 55, 100
3, 96576, Note_on_c, 1, 44, 80
3, 96668, Note_off_c, 1, 44, 100
3, 96672, Note_on_c, 1, 56, 80
3, 96764, Note_off_c, 1, 56, 100
3, 96768, Note_on_c, 1, 46, 80
3, 96860, Note_off_c, 1, 46, 100
3, 96864, Note_on_c, 1, 46, 80
3, 96956, Note_off_c, 1, 46, 100
3, 96960, Note_on_c, 1, 34, 80
3, 97052, Note_off_c, 1, 34, 100
3, 97056, Note_on_c, 1, 46, 80
3, 97148, Note_off_c, 1, 46, 100
3, 97152, Note_on_c, 1, 39, 80
3, 97340, Note_off_c, 1, 39, 100
3, 97344, Note_on_c, 1, 51, 80
3, 97532, Note_off_c, 1, 51, 100
3, 97632, Note_on_c, 1, 58, 80
3, 97724, Note_off_c, 1, 58, 100
3, 97728, Note_on_c, 1, 55, 81
3, 97824, Note_on_c, 1, 58, 82
3, 97916, Note_off_c, 1, 55, 100
3, 97916, Note_off_c, 1, 58, 100
3, 97920, Note_on_c, 1, 56, 83
3, 98016, Note_on_c, 1, 58, 84
3, 98108, Note_off_c, 1, 56, 100
3, 98108, Note_off_c, 1, 58, 100
3, 98112, Note_on_c, 1, 53, 85
3, 98208, Note_on_c, 1, 58, 86
3, 98300, Note_off_c, 1, 53, 100
3, 98300, Note_off_c, 1, 58, 100
3, 98304, Note_on_c, 1, 55, 87
3, 98400, Note_on_c, 1, 58, 88
3, 98492, Note_off_c, 1, 55, 100
3, 98492, Note_off_c, 1, 58, 100
3, 98496, Note_on_c, 1, 51, 89
3, 98592, Note_on_c, 1, 58, 90
3, 98684, Note_off_c, 1, 51, 100
3, 98684, Note_off_c, 1, 58, 100
3, 98688, Note_on_c, 1, 46, 91
3, 98780, Note_off_c, 1, 46, 100
3, 98784, Note_on_c, 1, 58, 92
3, 98876, Note_off_c, 1, 58, 100
3, 98880, Note_on_c, 1, 58, 93
3, 98972, Note_off_c, 1, 58, 100
3, 98976, Note_on_c, 1, 58, 94
3, 99068, Note_off_c, 1, 58, 100
3, 99168, Note_on_c, 1, 58, 96
3, 99260, Note_off_c, 1, 58, 100
3, 99264, Note_on_c, 1, 55, 97
3, 99360, Note_on_c, 1, 58, 98
3, 99452, Note_off_c, 1, 55, 100
3, 99452, Note_off_c, 1, 58, 100
3, 99456, Note_on_c, 1, 56, 99
3, 99552, Note_on_c, 1, 58, 100
3, 99644, Note_off_c, 1, 56, 100
3, 99644, Note_off_c, 1, 58, 100
3, 99648, Note_on_c, 1, 53, 101
3, 99744, Note_on_c, 1, 58, 102
3, 99836, Note_off_c, 1, 53, 100
3, 99836, Note_off_c, 1, 58, 100
3, 99840, Note_on_c, 1, 55, 103
3, 99936, Note_on_c, 1, 58, 104
3, 100028, Note_off_c, 1, 55, 100
3, 100028, Note_off_c, 1, 58, 100
3, 100032, Note_on_c, 1, 51, 105
3, 100128, Note_on_c, 1, 58, 106
3, 100220, Note_off_c, 1, 51, 100
3, 100220, Note_off_c, 1, 58, 100
3, 100224, Note_on_c, 1, 58, 107
3, 100224, Note_on_c, 1, 46, 107
3, 101372, Note_off_c, 1, 46, 100
3, 101372, Note_off_c, 1, 58, 100
3, 101376, Note_on_c, 1, 72, 100
3, 101376, Note_on_c, 1, 68, 100
3, 101468, Note_off_c, 1, 72, 100
3, 101468, Note_off_c, 1, 68, 100
3, 101472, Note_on_c, 1, 58, 100
3, 101564, Note_off_c, 1, 58, 100
3, 101568, Note_on_c, 1, 67, 100
3, 101568, Note_on_c, 1, 70, 100
3, 101660, Note_off_c, 1, 67, 100
3, 101660, Note_off_c, 1, 70, 100
3, 101664, Note_on_c, 1, 58, 100
3, 101756, Note_off_c, 1, 58, 100
3, 101760, Note_on_c, 1, 65, 100
3, 101760, Note_on_c, 1, 68, 100
3, 101852, Note_off_c, 1, 65, 100
3, 101856, Note_on_c, 1, 58, 100
3, 101948, Note_off_c, 1, 58, 100
3, 101952, Note_on_c, 1, 58, 100
3, 102044, Note_off_c, 1, 58, 100
3, 102048, Note_on_c, 1, 58, 100
3, 102140, Note_off_c, 1, 68, 100
3, 102140, Note_off_c, 1, 58, 100
3, 102144, Note_on_c, 1, 65, 100
3, 102144, Note_on_c, 1, 68, 100
3, 102236, Note_off_c, 1, 65, 100
3, 102240, Note_on_c, 1, 58, 100
3, 102332, Note_off_c, 1, 68, 100
3, 102332, Note_off_c, 1, 58, 100
3, 102336, Note_on_c, 1, 63, 100
3, 102336, Note_on_c, 1, 67, 100
3, 102428, Note_off_c, 1, 63, 100
3, 102432, Note_on_c, 1, 58, 100
3, 102524, Note_off_c, 1, 67, 100
3, 102524, Note_off_c, 1, 58, 100
3, 102528, Note_on_c, 1, 65, 100
3, 102528, Note_on_c, 1, 62, 100
3, 102620, Note_off_c, 1, 62, 100
3, 102624, Note_on_c, 1, 58, 100
3, 102716, Note_off_c, 1, 58, 100
3, 102720, Note_on_c, 1, 58, 100
3, 102812, Note_off_c, 1, 58, 100
3, 102816, Note_on_c, 1, 58, 100
3, 102908, Note_off_c, 1, 65, 100
3, 102908, Note_off_c, 1, 58, 100
3, 102912, Note_on_c, 1, 58, 100
3, 103004, Note_off_c, 1, 58, 100
3, 103008, Note_on_c, 1, 58, 100
3, 103100, Note_off_c, 1, 58, 100
3, 103104, Note_on_c, 1, 50, 100
3, 103104, Note_on_c, 1, 62, 100
3, 103196, Note_off_c, 1, 50, 100
3, 103196, Note_off_c, 1, 62, 100
3, 103200, Note_on_c, 1, 58, 100
3, 103292, Note_off_c, 1, 58, 100
3, 103296, Note_on_c, 1, 51, 100
3, 103296, Note_on_c, 1, 63, 100
3, 103388, Note_off_c, 1, 51, 100
3, 103388, Note_off_c, 1, 63, 100
3, 103392, Note_on_c, 1, 55, 100
3, 103484, Note_off_c, 1, 55, 100
3, 103488, Note_on_c, 1, 44, 100
3, 103580, Note_off_c, 1, 44, 100
3, 103584, Note_on_c, 1, 56, 100
3, 103676, Note_off_c, 1, 56, 100
3, 103680, Note_on_c, 1, 46, 100
3, 103772, Note_off_c, 1, 46, 100
3, 103776, Note_on_c, 1, 58, 100
3, 103868, Note_off_c, 1, 58, 100
3, 103872, Note_on_c, 1, 34, 100
3, 103964, Note_off_c, 1, 34, 100
3, 103968, Note_on_c, 1, 46, 100
3, 104060, Note_off_c, 1, 46, 100
3, 104064, Note_on_c, 1, 39, 100
3, 104252, Note_off_c, 1, 39, 100
3, 104256, Note_on_c, 1, 51, 100
3, 104444, Note_off_c, 1, 51, 100
3, 104448, Note_on_c, 1, 31, 111
3, 104496, Note_on_c, 1, 34, 111
3, 104520, Note_off_c, 1, 31, 100
3, 104544, Note_on_c, 1, 58, 100
3, 104544, Note_on_c, 1, 39, 111
3, 104568, Note_off_c, 1, 34, 100
3, 104592, Note_on_c, 1, 43, 112
3, 104620, Note_off_c, 1, 39, 100
3, 104636, Note_off_c, 1, 58, 100
3, 104640, Note_on_c, 1, 58, 100
3, 104640, Note_on_c, 1, 46, 110
3, 104672, Note_off_c, 1, 43, 100
3, 104688, Note_on_c, 1, 51, 110
3, 104712, Note_off_c, 1, 46, 100
3, 104732, Note_off_c, 1, 58, 100
3, 104736, Note_on_c, 1, 58, 100
3, 104736, Note_on_c, 1, 55, 111
3, 104764, Note_off_c, 1, 51, 100
3, 104784, Note_on_c, 1, 53, 110
3, 104816, Note_off_c, 1, 55, 100
3, 104828, Note_off_c, 1, 58, 100
3, 104828, Note_off_c, 1, 53, 100
3, 104832, Note_on_c, 1, 51, 110
3, 104832, Note_on_c, 1, 56, 100
3, 104832, Note_on_c, 1, 58, 100
3, 104924, Note_off_c, 1, 56, 100
3, 104924, Note_off_c, 1, 58, 100
3, 104928, Note_on_c, 1, 56, 100
3, 104928, Note_on_c, 1, 58, 100
3, 105020, Note_off_c, 1, 51, 100
3, 105020, Note_off_c, 1, 56, 100
3, 105020, Note_off_c, 1, 58, 100
3, 105024, Note_on_c, 1, 50, 110
3, 105024, Note_on_c, 1, 56, 100
3, 105024, Note_on_c, 1, 58, 100
3, 105116, Note_off_c, 1, 56, 100
3, 105116, Note_off_c, 1, 58, 100
3, 105120, Note_on_c, 1, 56, 100
3, 105120, Note_on_c, 1, 58, 100
3, 105212, Note_off_c, 1, 50, 100
3, 105212, Note_off_c, 1, 56, 100
3, 105212, Note_off_c, 1, 58, 100
3, 105216, Note_on_c, 1, 55, 100
3, 105216, Note_on_c, 1, 58, 100
3, 105308, Note_off_c, 1, 55, 100
3, 105308, Note_off_c, 1, 58, 100
3, 105312, Note_on_c, 1, 55, 100
3, 105312, Note_on_c, 1, 58, 100
3, 105404, Note_off_c, 1, 55, 100
3, 105404, Note_off_c, 1, 58, 100
3, 105408, Note_on_c, 1, 55, 100
3, 105408, Note_on_c, 1, 58, 100
3, 105500, Note_off_c, 1, 55, 100
3, 105500, Note_off_c, 1, 58, 100
3, 105504, Note_on_c, 1, 55, 100
3, 105504, Note_on_c, 1, 58, 100
3, 105596, Note_off_c, 1, 55, 100
3, 105596, Note_off_c, 1, 58, 100
3, 105600, Note_on_c, 1, 56, 100
3, 105600, Note_on_c, 1, 58, 100
3, 105692, Note_off_c, 1, 56, 100
3, 105692, Note_off_c, 1, 58, 100
3, 105696, Note_on_c, 1, 56, 100
3, 105696, Note_on_c, 1, 58, 100
3, 105788, Note_off_c, 1, 56, 100
3, 105788, Note_off_c, 1, 58, 100
3, 105792, Note_on_c, 1, 56, 100
3, 105792, Note_on_c, 1, 58, 100
3, 105884, Note_off_c, 1, 56, 100
3, 105884, Note_off_c, 1, 58, 100
3, 105888, Note_on_c, 1, 56, 100
3, 105888, Note_on_c, 1, 58, 100
3, 105980, Note_off_c, 1, 56, 100
3, 105980, Note_off_c, 1, 58, 100
3, 105984, Note_on_c, 1, 55, 100
3, 105984, Note_on_c, 1, 58, 100
3, 105984, Note_on_c, 1, 31, 112
3, 106032, Note_on_c, 1, 34, 110
3, 106064, Note_off_c, 1, 31, 100
3, 106076, Note_off_c, 1, 55, 100
3, 106076, Note_off_c, 1, 58, 100
3, 106080, Note_on_c, 1, 55, 100
3, 106080, Note_on_c, 1, 58, 100
3, 106080, Note_on_c, 1, 39, 112
3, 106116, Note_off_c, 1, 34, 100
3, 106128, Note_on_c, 1, 43, 111
3, 106156, Note_off_c, 1, 39, 100
3, 106172, Note_off_c, 1, 55, 100
3, 106172, Note_off_c, 1, 58, 100
3, 106176, Note_on_c, 1, 55, 100
3, 106176, Note_on_c, 1, 58, 100
3, 106176, Note_on_c, 1, 46, 111
3, 106212, Note_off_c, 1, 43, 100
3, 106224, Note_on_c, 1, 51, 110
3, 106252, Note_off_c, 1, 46, 100
3, 106268, Note_off_c, 1, 55, 100
3, 106268, Note_off_c, 1, 58, 100
3, 106272, Note_on_c, 1, 55, 110
3, 106272, Note_on_c, 1, 58, 100
3, 106304, Note_off_c, 1, 51, 100
3, 106320, Note_on_c, 1, 53, 110
3, 106364, Note_off_c, 1, 55, 100
3, 106364, Note_off_c, 1, 58, 100
3, 106364, Note_off_c, 1, 53, 100
3, 106368, Note_on_c, 1, 56, 100
3, 106368, Note_on_c, 1, 58, 100
3, 106368, Note_on_c, 1, 51, 111
3, 106460, Note_off_c, 1, 56, 100
3, 106460, Note_off_c, 1, 58, 100
3, 106464, Note_on_c, 1, 56, 100
3, 106464, Note_on_c, 1, 58, 100
3, 106556, Note_off_c, 1, 51, 100
3, 106556, Note_off_c, 1, 56, 100
3, 106556, Note_off_c, 1, 58, 100
3, 106560, Note_on_c, 1, 56, 100
3, 106560, Note_on_c, 1, 58, 100
3, 106560, Note_on_c, 1, 50, 110
3, 106652, Note_off_c, 1, 56, 100
3, 106652, Note_off_c, 1, 58, 100
3, 106656, Note_on_c, 1, 56, 100
3, 106656, Note_on_c, 1, 58, 100
3, 106748, Note_off_c, 1, 50, 100
3, 106748, Note_off_c, 1, 56, 100
3, 106748, Note_off_c, 1, 58, 100
3, 106752, Note_on_c, 1, 55, 100
3, 106752, Note_on_c, 1, 58, 100
3, 106844, Note_off_c, 1, 55, 100
3, 106844, Note_off_c, 1, 58, 100
3, 106848, Note_on_c, 1, 55, 100
3, 106848, Note_on_c, 1, 58, 100
3, 106940, Note_off_c, 1, 55, 100
3, 106940, Note_off_c, 1, 58, 100
3, 106944, Note_on_c, 1, 55, 100
3, 106944, Note_on_c, 1, 58, 100
3, 107036, Note_off_c, 1, 55, 100
3, 107036, Note_off_c, 1, 58, 100
3, 107040, Note_on_c, 1, 55, 100
3, 107040, Note_on_c, 1, 58, 100
3, 107132, Note_off_c, 1, 55, 100
3, 107132, Note_off_c, 1, 58, 100
3, 107136, Note_on_c, 1, 55, 100
3, 107136, Note_on_c, 1, 58, 100
3, 107136, Note_on_c, 1, 60, 100
3, 107228, Note_off_c, 1, 55, 100
3, 107228, Note_off_c, 1, 58, 100
3, 107228, Note_off_c, 1, 60, 100
3, 107232, Note_on_c, 1, 55, 100
3, 107232, Note_on_c, 1, 58, 100
3, 107232, Note_on_c, 1, 60, 100
3, 107324, Note_off_c, 1, 55, 100
3, 107324, Note_off_c, 1, 58, 100
3, 107324, Note_off_c, 1, 60, 100
3, 107328, Note_on_c, 1, 56, 100
3, 107328, Note_on_c, 1, 60, 100
3, 107420, Note_off_c, 1, 56, 100
3, 107420, Note_off_c, 1, 60, 100
3, 107424, Note_on_c, 1, 56, 100
3, 107424, Note_on_c, 1, 60, 100
3, 107516, Note_off_c, 1, 56, 100
3, 107516, Note_off_c, 1, 60, 100
3, 107520, Note_on_c, 1, 56, 100
3, 107520, Note_on_c, 1, 60, 100
3, 107568, Note_on_c, 1, 36, 110
3, 107612, Note_off_c, 1, 56, 100
3, 107612, Note_off_c, 1, 60, 100
3, 107616, Note_on_c, 1, 41, 110
3, 107616, Note_on_c, 1, 56, 100
3, 107616, Note_on_c, 1, 60, 100
3, 107644, Note_off_c, 1, 36, 100
3, 107664, Note_on_c, 1, 44, 110
3, 107688, Note_off_c, 1, 41, 100
3, 107708, Note_off_c, 1, 56, 100
3, 107708, Note_off_c, 1, 60, 100
3, 107712, Note_on_c, 1, 48, 110
3, 107712, Note_on_c, 1, 56, 100
3, 107712, Note_on_c, 1, 60, 100
3, 107748, Note_off_c, 1, 44, 100
3, 107760, Note_on_c, 1, 53, 110
3, 107796, Note_off_c, 1, 48, 100
3, 107804, Note_off_c, 1, 56, 100
3, 107804, Note_off_c, 1, 60, 100
3, 107808, Note_on_c, 1, 56, 110
3, 107808, Note_on_c, 1, 60, 100
3, 107852, Note_off_c, 1, 53, 100
3, 107856, Note_on_c, 1, 55, 110
3, 107900, Note_off_c, 1, 56, 100
3, 107900, Note_off_c, 1, 60, 100
3, 107900, Note_off_c, 1, 55, 100
3, 107904, Note_on_c, 1, 53, 110
3, 107904, Note_on_c, 1, 58, 100
3, 107904, Note_on_c, 1, 60, 100
3, 107996, Note_off_c, 1, 58, 100
3, 107996, Note_off_c, 1, 60, 100
3, 108000, Note_on_c, 1, 58, 100
3, 108000, Note_on_c, 1, 60, 100
3, 108092, Note_off_c, 1, 53, 100
3, 108092, Note_off_c, 1, 58, 100
3, 108092, Note_off_c, 1, 60, 100
3, 108096, Note_on_c, 1, 52, 110
3, 108096, Note_on_c, 1, 58, 100
3, 108096, Note_on_c, 1, 60, 100
3, 108188, Note_off_c, 1, 58, 100
3, 108188, Note_off_c, 1, 60, 100
3, 108192, Note_on_c, 1, 58, 100
3, 108192, Note_on_c, 1, 60, 100
3, 108284, Note_off_c, 1, 52, 100
3, 108284, Note_off_c, 1, 58, 100
3, 108284, Note_off_c, 1, 60, 100
3, 108288, Note_on_c, 1, 56, 100
3, 108288, Note_on_c, 1, 60, 100
3, 108380, Note_off_c, 1, 56, 100
3, 108380, Note_off_c, 1, 60, 100
3, 108384, Note_on_c, 1, 56, 100
3, 108384, Note_on_c, 1, 60, 100
3, 108476, Note_off_c, 1, 56, 100
3, 108476, Note_off_c, 1, 60, 100
3, 108480, Note_on_c, 1, 56, 100
3, 108480, Note_on_c, 1, 60, 100
3, 108572, Note_off_c, 1, 56, 100
3, 108572, Note_off_c, 1, 60, 100
3, 108576, Note_on_c, 1, 56, 100
3, 108576, Note_on_c, 1, 60, 100
3, 108668, Note_off_c, 1, 56, 100
3, 108668, Note_off_c, 1, 60, 100
3, 108672, Note_on_c, 1, 58, 100
3, 108672, Note_on_c, 1, 60, 100
3, 108764, Note_off_c, 1, 58, 100
3, 108764, Note_off_c, 1, 60, 100
3, 108768, Note_on_c, 1, 58, 100
3, 108768, Note_on_c, 1, 60, 100
3, 108860, Note_off_c, 1, 58, 100
3, 108860, Note_off_c, 1, 60, 100
3, 108864, Note_on_c, 1, 58, 100
3, 108864, Note_on_c, 1, 60, 100
3, 108956, Note_off_c, 1, 58, 100
3, 108956, Note_off_c, 1, 60, 100
3, 108960, Note_on_c, 1, 58, 100
3, 108960, Note_on_c, 1, 60, 100
3, 109052, Note_off_c, 1, 58, 100
3, 109052, Note_off_c, 1, 60, 100
3, 109056, Note_on_c, 1, 56, 100
3, 109056, Note_on_c, 1, 60, 100
3, 109148, Note_off_c, 1, 56, 100
3, 109148, Note_off_c, 1, 60, 100
3, 109152, Note_on_c, 1, 56, 100
3, 109152, Note_on_c, 1, 60, 100
3, 109152, Note_on_c, 1, 41, 100
3, 109244, Note_off_c, 1, 56, 100
3, 109244, Note_off_c, 1, 60, 100
3, 109244, Note_off_c, 1, 41, 100
3, 109248, Note_on_c, 1, 56, 100
3, 109248, Note_on_c, 1, 60, 100
3, 109248, Note_on_c, 1, 41, 100
3, 109340, Note_off_c, 1, 56, 100
3, 109340, Note_off_c, 1, 60, 100
3, 109340, Note_off_c, 1, 41, 100
3, 109344, Note_on_c, 1, 56, 100
3, 109344, Note_on_c, 1, 60, 100
3, 109344, Note_on_c, 1, 41, 100
3, 109436, Note_off_c, 1, 56, 100
3, 109436, Note_off_c, 1, 60, 100
3, 109436, Note_off_c, 1, 41, 100
3, 109440, Note_on_c, 1, 58, 100
3, 109440, Note_on_c, 1, 60, 100
3, 109440, Note_on_c, 1, 40, 100
3, 109484, Note_off_c, 1, 40, 100
3, 109488, Note_on_c, 1, 41, 100
3, 109532, Note_off_c, 1, 58, 100
3, 109532, Note_off_c, 1, 60, 100
3, 109532, Note_off_c, 1, 41, 100
3, 109536, Note_on_c, 1, 58, 100
3, 109536, Note_on_c, 1, 60, 100
3, 109536, Note_on_c, 1, 43, 100
3, 109580, Note_off_c, 1, 43, 100
3, 109584, Note_on_c, 1, 41, 100
3, 109628, Note_off_c, 1, 58, 100
3, 109628, Note_off_c, 1, 60, 100
3, 109628, Note_off_c, 1, 41, 100
3, 109632, Note_on_c, 1, 58, 100
3, 109632, Note_on_c, 1, 60, 100
3, 109632, Note_on_c, 1, 40, 100
3, 109724, Note_off_c, 1, 58, 100
3, 109724, Note_off_c, 1, 60, 100
3, 109728, Note_on_c, 1, 58, 100
3, 109728, Note_on_c, 1, 60, 100
3, 109820, Note_off_c, 1, 40, 100
3, 109820, Note_off_c, 1, 58, 100
3, 109820, Note_off_c, 1, 60, 100
3, 109824, Note_on_c, 1, 56, 100
3, 109824, Note_on_c, 1, 60, 100
3, 109916, Note_off_c, 1, 56, 100
3, 109916, Note_off_c, 1, 60, 100
3, 109920, Note_on_c, 1, 56, 100
3, 109920, Note_on_c, 1, 60, 100
3, 109920, Note_on_c, 1, 65, 100
3, 110012, Note_off_c, 1, 56, 100
3, 110012, Note_off_c, 1, 60, 100
3, 110012, Note_off_c, 1, 65, 100
3, 110016, Note_on_c, 1, 56, 100
3, 110016, Note_on_c, 1, 60, 100
3, 110016, Note_on_c, 1, 65, 100
3, 110108, Note_off_c, 1, 56, 100
3, 110108, Note_off_c, 1, 60, 100
3, 110108, Note_off_c, 1, 65, 100
3, 110112, Note_on_c, 1, 56, 100
3, 110112, Note_on_c, 1, 60, 100
3, 110112, Note_on_c, 1, 65, 100
3, 110204, Note_off_c, 1, 56, 100
3, 110204, Note_off_c, 1, 60, 100
3, 110204, Note_off_c, 1, 65, 100
3, 110208, Note_on_c, 1, 58, 100
3, 110208, Note_on_c, 1, 60, 100
3, 110208, Note_on_c, 1, 67, 100
3, 110300, Note_off_c, 1, 58, 100
3, 110300, Note_off_c, 1, 60, 100
3, 110300, Note_off_c, 1, 67, 100
3, 110304, Note_on_c, 1, 58, 100
3, 110304, Note_on_c, 1, 60, 100
3, 110304, Note_on_c, 1, 67, 100
3, 110396, Note_off_c, 1, 58, 100
3, 110396, Note_off_c, 1, 60, 100
3, 110396, Note_off_c, 1, 67, 100
3, 110400, Note_on_c, 1, 58, 100
3, 110400, Note_on_c, 1, 60, 100
3, 110400, Note_on_c, 1, 67, 100
3, 110492, Note_off_c, 1, 58, 100
3, 110492, Note_off_c, 1, 60, 100
3, 110492, Note_off_c, 1, 67, 100
3, 110496, Note_on_c, 1, 58, 100
3, 110496, Note_on_c, 1, 60, 100
3, 110496, Note_on_c, 1, 67, 100
3, 110588, Note_off_c, 1, 58, 100
3, 110588, Note_off_c, 1, 60, 100
3, 110588, Note_off_c, 1, 67, 100
3, 110592, Note_on_c, 1, 56, 100
3, 110592, Note_on_c, 1, 60, 100
3, 110592, Note_on_c, 1, 65, 100
3, 110684, Note_off_c, 1, 56, 100
3, 110684, Note_off_c, 1, 60, 100
3, 110684, Note_off_c, 1, 65, 100
3, 110688, Note_on_c, 1, 56, 100
3, 110688, Note_on_c, 1, 60, 100
3, 110688, Note_on_c, 1, 65, 100
3, 110688, Note_on_c, 1, 41, 100
3, 110780, Note_off_c, 1, 56, 100
3, 110780, Note_off_c, 1, 60, 100
3, 110780, Note_off_c, 1, 65, 100
3, 110780, Note_off_c, 1, 41, 100
3, 110784, Note_on_c, 1, 56, 100
3, 110784, Note_on_c, 1, 60, 100
3, 110784, Note_on_c, 1, 65, 100
3, 110784, Note_on_c, 1, 41, 100
3, 110876, Note_off_c, 1, 56, 100
3, 110876, Note_off_c, 1, 60, 100
3, 110876, Note_off_c, 1, 65, 100
3, 110876, Note_off_c, 1, 41, 100
3, 110880, Note_on_c, 1, 56, 100
3, 110880, Note_on_c, 1, 60, 100
3, 110880, Note_on_c, 1, 65, 100
3, 110880, Note_on_c, 1, 41, 100
3, 110972, Note_off_c, 1, 56, 100
3, 110972, Note_off_c, 1, 60, 100
3, 110972, Note_off_c, 1, 65, 100
3, 110972, Note_off_c, 1, 41, 100
3, 110976, Note_on_c, 1, 38, 100
3, 110976, Note_on_c, 1, 56, 100
3, 110976, Note_on_c, 1, 58, 100
3, 110976, Note_on_c, 1, 65, 100
3, 111024, Note_on_c, 1, 39, 100
3, 111068, Note_off_c, 1, 38, 100
3, 111068, Note_off_c, 1, 56, 100
3, 111068, Note_off_c, 1, 58, 100
3, 111068, Note_off_c, 1, 65, 100
3, 111072, Note_on_c, 1, 41, 100
3, 111072, Note_on_c, 1, 56, 100
3, 111072, Note_on_c, 1, 58, 100
3, 111072, Note_on_c, 1, 65, 100
3, 111116, Note_off_c, 1, 39, 100
3, 111120, Note_on_c, 1, 39, 100
3, 111160, Note_off_c, 1, 41, 100
3, 111164, Note_off_c, 1, 56, 100
3, 111164, Note_off_c, 1, 58, 100
3, 111164, Note_off_c, 1, 65, 100
3, 111168, Note_on_c, 1, 38, 100
3, 111168, Note_on_c, 1, 56, 100
3, 111168, Note_on_c, 1, 58, 100
3, 111168, Note_on_c, 1, 65, 100
3, 111204, Note_off_c, 1, 39, 100
3, 111260, Note_off_c, 1, 56, 100
3, 111260, Note_off_c, 1, 58, 100
3, 111260, Note_off_c, 1, 65, 100
3, 111264, Note_on_c, 1, 56, 100
3, 111264, Note_on_c, 1, 58, 100
3, 111264, Note_on_c, 1, 65, 100
3, 111356, Note_off_c, 1, 38, 100
3, 111356, Note_off_c, 1, 56, 100
3, 111356, Note_off_c, 1, 58, 100
3, 111356, Note_off_c, 1, 65, 100
3, 111360, Note_on_c, 1, 55, 100
3, 111360, Note_on_c, 1, 58, 100
3, 111360, Note_on_c, 1, 63, 100
3, 111452, Note_off_c, 1, 55, 100
3, 111452, Note_off_c, 1, 58, 100
3, 111452, Note_off_c, 1, 63, 100
3, 111456, Note_on_c, 1, 55, 100
3, 111456, Note_on_c, 1, 58, 100
3, 111456, Note_on_c, 1, 63, 100
3, 111548, Note_off_c, 1, 55, 100
3, 111548, Note_off_c, 1, 58, 100
3, 111548, Note_off_c, 1, 63, 100
3, 111552, Note_on_c, 1, 55, 100
3, 111552, Note_on_c, 1, 58, 100
3, 111552, Note_on_c, 1, 63, 100
3, 111644, Note_off_c, 1, 55, 100
3, 111644, Note_off_c, 1, 58, 100
3, 111644, Note_off_c, 1, 63, 100
3, 111648, Note_on_c, 1, 55, 100
3, 111648, Note_on_c, 1, 58, 100
3, 111648, Note_on_c, 1, 63, 100
3, 111740, Note_off_c, 1, 55, 100
3, 111740, Note_off_c, 1, 58, 100
3, 111740, Note_off_c, 1, 63, 100
3, 111744, Note_on_c, 1, 56, 100
3, 111744, Note_on_c, 1, 58, 100
3, 111744, Note_on_c, 1, 65, 100
3, 111836, Note_off_c, 1, 56, 100
3, 111836, Note_off_c, 1, 58, 100
3, 111836, Note_off_c, 1, 65, 100
3, 111840, Note_on_c, 1, 56, 100
3, 111840, Note_on_c, 1, 58, 100
3, 111840, Note_on_c, 1, 65, 100
3, 111932, Note_off_c, 1, 56, 100
3, 111932, Note_off_c, 1, 58, 100
3, 111932, Note_off_c, 1, 65, 100
3, 111936, Note_on_c, 1, 56, 100
3, 111936, Note_on_c, 1, 58, 100
3, 111936, Note_on_c, 1, 65, 100
3, 112028, Note_off_c, 1, 56, 100
3, 112028, Note_off_c, 1, 58, 100
3, 112028, Note_off_c, 1, 65, 100
3, 112032, Note_on_c, 1, 56, 100
3, 112032, Note_on_c, 1, 58, 100
3, 112032, Note_on_c, 1, 65, 100
3, 112124, Note_off_c, 1, 56, 100
3, 112124, Note_off_c, 1, 58, 100
3, 112124, Note_off_c, 1, 65, 100
3, 112128, Note_on_c, 1, 55, 110
3, 112128, Note_on_c, 1, 58, 110
3, 112128, Note_on_c, 1, 63, 110
3, 112220, Note_off_c, 1, 55, 100
3, 112220, Note_off_c, 1, 58, 100
3, 112220, Note_off_c, 1, 63, 100
3, 112224, Note_on_c, 1, 55, 110
3, 112224, Note_on_c, 1, 58, 110
3, 112224, Note_on_c, 1, 63, 110
3, 112224, Note_on_c, 1, 39, 110
3, 112316, Note_off_c, 1, 55, 100
3, 112316, Note_off_c, 1, 58, 100
3, 112316, Note_off_c, 1, 63, 100
3, 112316, Note_off_c, 1, 39, 100
3, 112320, Note_on_c, 1, 55, 110
3, 112320, Note_on_c, 1, 58, 110
3, 112320, Note_on_c, 1, 63, 110
3, 112320, Note_on_c, 1, 39, 110
3, 112412, Note_off_c, 1, 55, 100
3, 112412, Note_off_c, 1, 58, 100
3, 112412, Note_off_c, 1, 63, 100
3, 112412, Note_off_c, 1, 39, 100
3, 112416, Note_on_c, 1, 55, 110
3, 112416, Note_on_c, 1, 58, 110
3, 112416, Note_on_c, 1, 63, 110
3, 112416, Note_on_c, 1, 39, 110
3, 112508, Note_off_c, 1, 55, 100
3, 112508, Note_off_c, 1, 58, 100
3, 112508, Note_off_c, 1, 63, 100
3, 112508, Note_off_c, 1, 39, 100
3, 112512, Note_on_c, 1, 38, 110
3, 112560, Note_on_c, 1, 39, 110
3, 112588, Note_off_c, 1, 38, 100
3, 112608, Note_on_c, 1, 41, 110
3, 112652, Note_off_c, 1, 39, 100
3, 112656, Note_on_c, 1, 39, 110
3, 112692, Note_off_c, 1, 41, 100
3, 112704, Note_on_c, 1, 38, 110
3, 112744, Note_off_c, 1, 39, 100
3, 112796, Note_off_c, 1, 38, 100
3, 112800, Note_on_c, 1, 34, 110
3, 112892, Note_off_c, 1, 34, 100
3, 112896, Note_on_c, 1, 39, 110
3, 112944, Note_on_c, 1, 41, 110
3, 112988, Note_off_c, 1, 39, 100
3, 112992, Note_on_c, 1, 43, 110
3, 113024, Note_off_c, 1, 41, 100
3, 113040, Note_on_c, 1, 41, 110
3, 113072, Note_off_c, 1, 43, 100
3, 113088, Note_on_c, 1, 39, 110
3, 113132, Note_off_c, 1, 41, 100
3, 113180, Note_off_c, 1, 39, 100
3, 113184, Note_on_c, 1, 34, 110
3, 113276, Note_off_c, 1, 34, 100
3, 113280, Note_on_c, 1, 50, 110
3, 113280, Note_on_c, 1, 46, 110
3, 113280, Note_on_c, 1, 44, 110
3, 113280, Note_on_c, 1, 41, 110
3, 113660, Note_off_c, 1, 50, 100
3, 113660, Note_off_c, 1, 46, 100
3, 113660, Note_off_c, 1, 44, 100
3, 113660, Note_off_c, 1, 41, 100
3, 113664, Note_on_c, 1, 51, 110
3, 113664, Note_on_c, 1, 46, 110
3, 113664, Note_on_c, 1, 43, 110
3, 113948, Note_off_c, 1, 51, 100
3, 113948, Note_off_c, 1, 46, 100
3, 113948, Note_off_c, 1, 43, 100
3, 113952, Note_on_c, 1, 46, 110
3, 114044, Note_off_c, 1, 46, 100
3, 114048, Note_on_c, 1, 50, 110
3, 114096, Note_on_c, 1, 51, 110
3, 114128, Note_off_c, 1, 50, 100
3, 114144, Note_on_c, 1, 53, 110
3, 114188, Note_off_c, 1, 51, 100
3, 114192, Note_on_c, 1, 51, 110
3, 114224, Note_off_c, 1, 53, 100
3, 114240, Note_on_c, 1, 50, 110
3, 114260, Note_off_c, 1, 51, 100
3, 114332, Note_off_c, 1, 50, 100
3, 114336, Note_on_c, 1, 46, 110
3, 114428, Note_off_c, 1, 46, 100
3, 114432, Note_on_c, 1, 51, 110
3, 114480, Note_on_c, 1, 53, 110
3, 114520, Note_off_c, 1, 51, 100
3, 114528, Note_on_c, 1, 55, 110
3, 114564, Note_off_c, 1, 53, 100
3, 114576, Note_on_c, 1, 53, 110
3, 114612, Note_off_c, 1, 55, 100
3, 114624, Note_on_c, 1, 51, 110
3, 114660, Note_off_c, 1, 53, 100
3, 114716, Note_off_c, 1, 51, 100
3, 114720, Note_on_c, 1, 46, 110
3, 114812, Note_off_c, 1, 46, 100
3, 114816, Note_on_c, 1, 62, 110
3, 114816, Note_on_c, 1, 58, 110
3, 114816, Note_on_c, 1, 56, 110
3, 114816, Note_on_c, 1, 53, 110
3, 115196, Note_off_c, 1, 62, 100
3, 115196, Note_off_c, 1, 58, 100
3, 115196, Note_off_c, 1, 56, 100
3, 115196, Note_off_c, 1, 53, 100
3, 115200, Note_on_c, 1, 63, 110
3, 115200, Note_on_c, 1, 58, 110
3, 115200, Note_on_c, 1, 55, 110
3, 115484, Note_off_c, 1, 63, 100
3, 115484, Note_off_c, 1, 58, 100
3, 115484, Note_off_c, 1, 55, 100
3, 115488, Note_on_c, 1, 61, 110
3, 115488, Note_on_c, 1, 58, 110
3, 115488, Note_on_c, 1, 55, 110
3, 115580, Note_off_c, 1, 61, 100
3, 115580, Note_off_c, 1, 58, 100
3, 115580, Note_off_c, 1, 55, 100
3, 115584, Note_on_c, 1, 60, 110
3, 115584, Note_on_c, 1, 56, 110
3, 115772, Note_off_c, 1, 60, 100
3, 115772, Note_off_c, 1, 56, 100
3, 116352, Note_on_c, 1, 58, 100
3, 116352, Note_on_c, 1, 62, 100
3, 116540, Note_off_c, 1, 58, 100
3, 116540, Note_off_c, 1, 62, 100
3, 117120, Note_on_c, 1, 59, 70
3, 117120, Note_on_c, 1, 62, 70
3, 117120, Note_on_c, 1, 65, 70
3, 117120, Note_on_c, 1, 68, 70
3, 117308, Note_off_c, 1, 59, 100
3, 117308, Note_off_c, 1, 62, 100
3, 117308, Note_off_c, 1, 65, 100
3, 117308, Note_off_c, 1, 68, 100
3, 117888, Note_on_c, 1, 60, 70
3, 117888, Note_on_c, 1, 63, 70
3, 117888, Note_on_c, 1, 67, 70
3, 118076, Note_off_c, 1, 60, 100
3, 118076, Note_off_c, 1, 63, 100
3, 118076, Note_off_c, 1, 67, 100
3, 118272, Note_on_c, 1, 56, 70
3, 118272, Note_on_c, 1, 60, 70
3, 118272, Note_on_c, 1, 65, 70
3, 118460, Note_off_c, 1, 56, 100
3, 118460, Note_off_c, 1, 60, 100
3, 118460, Note_off_c, 1, 65, 100
3, 118656, Note_on_c, 1, 67, 70
3, 118656, Note_on_c, 1, 63, 70
3, 118656, Note_on_c, 1, 58, 70
3, 118844, Note_off_c, 1, 67, 100
3, 118844, Note_off_c, 1, 63, 100
3, 118844, Note_off_c, 1, 58, 100
3, 119040, Note_on_c, 1, 58, 70
3, 119040, Note_on_c, 1, 46, 70
3, 119228, Note_off_c, 1, 58, 100
3, 119228, Note_off_c, 1, 46, 100
3, 119232, Note_on_c, 1, 72, 70
3, 119276, Note_off_c, 1, 72, 100
3, 119424, Note_on_c, 1, 51, 70
3, 119424, Note_on_c, 1, 39, 70
3, 119804, Note_off_c, 1, 51, 100
3, 119804, Note_off_c, 1, 39, 100
3, 119808, Note_on_c, 1, 72, 100
3, 119996, Note_off_c, 1, 72, 100
3, 120000, Note_on_c, 1, 72, 100
3, 120024, Note_on_c, 1, 73, 100
3, 120044, Note_off_c, 1, 72, 100
3, 120048, Note_on_c, 1, 72, 100
3, 120068, Note_off_c, 1, 73, 100
3, 120072, Note_on_c, 1, 73, 100
3, 120092, Note_off_c, 1, 72, 100
3, 120096, Note_on_c, 1, 72, 100
3, 120116, Note_off_c, 1, 73, 100
3, 120120, Note_on_c, 1, 73, 100
3, 120140, Note_off_c, 1, 72, 100
3, 120144, Note_on_c, 1, 71, 100
3, 120164, Note_off_c, 1, 73, 100
3, 120168, Note_on_c, 1, 72, 100
3, 120188, Note_off_c, 1, 71, 100
3, 120188, Note_off_c, 1, 72, 100
3, 120192, Note_on_c, 1, 68, 100
3, 120380, Note_off_c, 1, 68, 100
3, 120384, Note_on_c, 1, 65, 100
3, 120572, Note_off_c, 1, 65, 100
3, 120576, Note_on_c, 1, 70, 100
3, 120764, Note_off_c, 1, 70, 100
3, 120768, Note_on_c, 1, 70, 100
3, 120792, Note_on_c, 1, 72, 100
3, 120812, Note_off_c, 1, 70, 100
3, 120816, Note_on_c, 1, 70, 100
3, 120836, Note_off_c, 1, 72, 100
3, 120840, Note_on_c, 1, 72, 100
3, 120860, Note_off_c, 1, 70, 100
3, 120864, Note_on_c, 1, 70, 100
3, 120884, Note_off_c, 1, 72, 100
3, 120888, Note_on_c, 1, 72, 100
3, 120908, Note_off_c, 1, 70, 100
3, 120912, Note_on_c, 1, 69, 100
3, 120932, Note_off_c, 1, 72, 100
3, 120936, Note_on_c, 1, 70, 100
3, 120956, Note_off_c, 1, 69, 100
3, 120956, Note_off_c, 1, 70, 100
3, 120960, Note_on_c, 1, 67, 100
3, 121148, Note_off_c, 1, 67, 100
3, 121152, Note_on_c, 1, 63, 100
3, 121340, Note_off_c, 1, 63, 100
3, 121344, Note_on_c, 1, 68, 100
3, 121344, Note_on_c, 1, 65, 100
3, 121344, Note_on_c, 1, 62, 100
3, 121532, Note_off_c, 1, 68, 100
3, 121532, Note_off_c, 1, 65, 100
3, 121532, Note_off_c, 1, 62, 100
3, 121536, Note_on_c, 1, 68, 100
3, 121536, Note_on_c, 1, 65, 100
3, 121536, Note_on_c, 1, 58, 100
3, 121724, Note_off_c, 1, 68, 100
3, 121724, Note_off_c, 1, 65, 100
3, 121724, Note_off_c, 1, 58, 100
3, 121728, Note_on_c, 1, 63, 100
3, 121728, Note_on_c, 1, 67, 100
3, 122108, Note_off_c, 1, 63, 100
3, 122108, Note_off_c, 1, 67, 100
3, 122112, Note_on_c, 1, 60, 100
3, 122112, Note_on_c, 1, 63, 100
3, 122112, Note_on_c, 1, 69, 100
3, 122492, Note_off_c, 1, 60, 100
3, 122492, Note_off_c, 1, 63, 100
3, 122492, Note_off_c, 1, 69, 100
3, 122496, Note_on_c, 1, 58, 100
3, 122496, Note_on_c, 1, 62, 100
3, 122684, Note_off_c, 1, 58, 100
3, 122684, Note_off_c, 1, 62, 100
3, 122880, Note_on_c, 1, 58, 110
3, 123068, Note_off_c, 1, 58, 100
3, 123072, Note_on_c, 1, 58, 110
3, 123096, Note_on_c, 1, 60, 110
3, 123116, Note_off_c, 1, 58, 100
3, 123120, Note_on_c, 1, 58, 110
3, 123140, Note_off_c, 1, 60, 100
3, 123144, Note_on_c, 1, 60, 110
3, 123164, Note_off_c, 1, 58, 100
3, 123168, Note_on_c, 1, 58, 110
3, 123188, Note_off_c, 1, 60, 100
3, 123192, Note_on_c, 1, 60, 110
3, 123212, Note_off_c, 1, 58, 100
3, 123216, Note_on_c, 1, 57, 110
3, 123236, Note_off_c, 1, 60, 100
3, 123240, Note_on_c, 1, 58, 110
3, 123260, Note_off_c, 1, 57, 100
3, 123260, Note_off_c, 1, 58, 100
3, 123264, Note_on_c, 1, 56, 110
3, 123452, Note_off_c, 1, 56, 100
3, 123456, Note_on_c, 1, 53, 110
3, 123644, Note_off_c, 1, 53, 100
3, 123648, Note_on_c, 1, 56, 110
3, 123836, Note_off_c, 1, 56, 100
3, 123840, Note_on_c, 1, 56, 110
3, 123864, Note_on_c, 1, 58, 110
3, 123884, Note_off_c, 1, 56, 100
3, 123888, Note_on_c, 1, 56, 110
3, 123908, Note_off_c, 1, 58, 100
3, 123912, Note_on_c, 1, 58, 110
3, 123932, Note_off_c, 1, 56, 100
3, 123936, Note_on_c, 1, 56, 110
3, 123956, Note_off_c, 1, 58, 100
3, 123960, Note_on_c, 1, 58, 110
3, 123980, Note_off_c, 1, 56, 100
3, 123984, Note_on_c, 1, 55, 110
3, 124004, Note_off_c, 1, 58, 100
3, 124008, Note_on_c, 1, 56, 110
3, 124028, Note_off_c, 1, 55, 100
3, 124028, Note_off_c, 1, 56, 100
3, 124032, Note_on_c, 1, 55, 110
3, 124220, Note_off_c, 1, 55, 100
3, 124224, Note_on_c, 1, 51, 110
3, 124412, Note_off_c, 1, 51, 100
3, 124416, Note_on_c, 1, 50, 110
3, 124416, Note_on_c, 1, 53, 110
3, 124416, Note_on_c, 1, 56, 110
3, 124416, Note_on_c, 1, 58, 110
3, 124604, Note_off_c, 1, 50, 100
3, 124608, Note_on_c, 1, 46, 110
3, 124796, Note_off_c, 1, 53, 100
3, 124796, Note_off_c, 1, 56, 100
3, 124796, Note_off_c, 1, 58, 100
3, 124796, Note_off_c, 1, 46, 100
3, 124800, Note_on_c, 1, 51, 80
3, 124800, Note_on_c, 1, 55, 80
3, 124800, Note_on_c, 1, 58, 80
3, 124988, Note_off_c, 1, 51, 100
3, 124988, Note_off_c, 1, 55, 100
3, 124988, Note_off_c, 1, 58, 100
3, 124992, Note_on_c, 1, 55, 80
3, 124992, Note_on_c, 1, 58, 80
3, 124992, Note_on_c, 1, 63, 80
3, 125180, Note_off_c, 1, 55, 100
3, 125180, Note_off_c, 1, 58, 100
3, 125180, Note_off_c, 1, 63, 100
3, 125184, Note_on_c, 1, 58, 80
3, 125184, Note_on_c, 1, 65, 80
3, 125184, Note_on_c, 1, 62, 80
3, 125372, Note_off_c, 1, 58, 100
3, 125372, Note_off_c, 1, 65, 100
3, 125372, Note_off_c, 1, 62, 100
3, 125376, Note_on_c, 1, 56, 80
3, 125376, Note_on_c, 1, 58, 80
3, 125376, Note_on_c, 1, 62, 80
3, 125376, Note_on_c, 1, 65, 80
3, 125564, Note_off_c, 1, 56, 100
3, 125564, Note_off_c, 1, 58, 100
3, 125564, Note_off_c, 1, 62, 100
3, 125564, Note_off_c, 1, 65, 100
3, 125568, Note_on_c, 1, 63, 80
3, 125568, Note_on_c, 1, 58, 80
3, 125568, Note_on_c, 1, 55, 80
3, 125756, Note_off_c, 1, 63, 100
3, 125756, Note_off_c, 1, 58, 100
3, 125756, Note_off_c, 1, 55, 100
3, 125952, Note_on_c, 1, 50, 110
3, 125952, Note_on_c, 1, 53, 110
3, 125952, Note_on_c, 1, 56, 110
3, 125952, Note_on_c, 1, 58, 110
3, 126140, Note_off_c, 1, 50, 100
3, 126144, Note_on_c, 1, 46, 110
3, 126332, Note_off_c, 1, 53, 100
3, 126332, Note_off_c, 1, 56, 100
3, 126332, Note_off_c, 1, 58, 100
3, 126332, Note_off_c, 1, 46, 100
3, 126336, Note_on_c, 1, 51, 80
3, 126336, Note_on_c, 1, 55, 80
3, 126336, Note_on_c, 1, 58, 80
3, 126524, Note_off_c, 1, 51, 100
3, 126524, Note_off_c, 1, 55, 100
3, 126524, Note_off_c, 1, 58, 100
3, 126528, Note_on_c, 1, 55, 80
3, 126528, Note_on_c, 1, 58, 80
3, 126528, Note_on_c, 1, 63, 80
3, 126716, Note_off_c, 1, 55, 100
3, 126716, Note_off_c, 1, 58, 100
3, 126716, Note_off_c, 1, 63, 100
3, 126720, Note_on_c, 1, 58, 80
3, 126720, Note_on_c, 1, 62, 80
3, 126720, Note_on_c, 1, 65, 80
3, 126908, Note_off_c, 1, 58, 100
3, 126908, Note_off_c, 1, 62, 100
3, 126908, Note_off_c, 1, 65, 100
3, 126912, Note_on_c, 1, 56, 80
3, 126912, Note_on_c, 1, 58, 80
3, 126912, Note_on_c, 1, 62, 80
3, 126912, Note_on_c, 1, 65, 80
3, 127100, Note_off_c, 1, 56, 100
3, 127100, Note_off_c, 1, 58, 100
3, 127100, Note_off_c, 1, 62, 100
3, 127100, Note_off_c, 1, 65, 100
3, 127104, Note_on_c, 1, 58, 80
3, 127104, Note_on_c, 1, 55, 80
3, 127104, Note_on_c, 1, 63, 80
3, 127292, Note_off_c, 1, 58, 100
3, 127292, Note_off_c, 1, 55, 100
3, 127292, Note_off_c, 1, 63, 100
3, 127488, Note_on_c, 1, 50, 110
3, 127488, Note_on_c, 1, 38, 110
3, 127676, Note_off_c, 1, 50, 100
3, 127676, Note_off_c, 1, 38, 100
3, 127680, Note_on_c, 1, 46, 110
3, 127680, Note_on_c, 1, 34, 110
3, 127868, Note_off_c, 1, 46, 100
3, 127868, Note_off_c, 1, 34, 100
3, 127872, Note_on_c, 1, 39, 110
3, 127872, Note_on_c, 1, 51, 110
3, 128252, Note_off_c, 1, 39, 100
3, 128252, Note_off_c, 1, 51, 100
3, 128256, Note_on_c, 1, 48, 110
3, 128256, Note_on_c, 1, 36, 110
3, 128636, Note_off_c, 1, 48, 100
3, 128636, Note_off_c, 1, 36, 100
3, 130176, Note_on_c, 1, 68, 80
3, 130176, Note_on_c, 1, 65, 80
3, 130268, Note_off_c, 1, 65, 100
3, 130272, Note_on_c, 1, 58, 80
3, 130364, Note_off_c, 1, 58, 100
3, 130368, Note_on_c, 1, 58, 80
3, 130460, Note_off_c, 1, 58, 100
3, 130464, Note_on_c, 1, 58, 80
3, 130556, Note_off_c, 1, 68, 100
3, 130556, Note_off_c, 1, 58, 100
3, 130560, Note_on_c, 1, 65, 80
3, 130560, Note_on_c, 1, 68, 80
3, 130652, Note_off_c, 1, 65, 100
3, 130656, Note_on_c, 1, 58, 80
3, 130748, Note_off_c, 1, 68, 100
3, 130748, Note_off_c, 1, 58, 100
3, 130752, Note_on_c, 1, 63, 80
3, 130752, Note_on_c, 1, 67, 80
3, 130844, Note_off_c, 1, 63, 100
3, 130848, Note_on_c, 1, 58, 80
3, 130940, Note_off_c, 1, 67, 100
3, 130940, Note_off_c, 1, 58, 100
3, 130944, Note_on_c, 1, 65, 80
3, 130944, Note_on_c, 1, 62, 80
3, 131036, Note_off_c, 1, 62, 100
3, 131040, Note_on_c, 1, 58, 80
3, 131132, Note_off_c, 1, 58, 100
3, 131136, Note_on_c, 1, 58, 80
3, 131228, Note_off_c, 1, 58, 100
3, 131232, Note_on_c, 1, 58, 80
3, 131324, Note_off_c, 1, 58, 100
3, 131328, Note_on_c, 1, 58, 80
3, 131420, Note_off_c, 1, 58, 100
3, 131424, Note_on_c, 1, 58, 80
3, 131516, Note_off_c, 1, 65, 100
3, 131516, Note_off_c, 1, 58, 100
3, 131520, Note_on_c, 1, 62, 80
3, 131520, Note_on_c, 1, 50, 80
3, 131612, Note_off_c, 1, 62, 100
3, 131616, Note_on_c, 1, 58, 80
3, 131708, Note_off_c, 1, 50, 100
3, 131708, Note_off_c, 1, 58, 100
3, 131712, Note_on_c, 1, 63, 80
3, 131712, Note_on_c, 1, 51, 80
3, 131804, Note_off_c, 1, 63, 100
3, 131808, Note_on_c, 1, 58, 80
3, 131900, Note_off_c, 1, 51, 100
3, 131900, Note_off_c, 1, 58, 100
3, 131904, Note_on_c, 1, 67, 80
3, 131904, Note_on_c, 1, 55, 80
3, 131996, Note_off_c, 1, 67, 100
3, 132000, Note_on_c, 1, 58, 80
3, 132092, Note_off_c, 1, 55, 100
3, 132092, Note_off_c, 1, 58, 100
3, 132096, Note_on_c, 1, 65, 80
3, 132096, Note_on_c, 1, 53, 80
3, 132188, Note_off_c, 1, 65, 100
3, 132192, Note_on_c, 1, 58, 80
3, 132284, Note_off_c, 1, 53, 100
3, 132284, Note_off_c, 1, 58, 100
3, 132288, Note_on_c, 1, 63, 80
3, 132288, Note_on_c, 1, 51, 80
3, 132380, Note_off_c, 1, 63, 100
3, 132384, Note_on_c, 1, 58, 80
3, 132476, Note_off_c, 1, 51, 100
3, 132476, Note_off_c, 1, 58, 100
3, 132480, Note_on_c, 1, 46, 80
3, 132572, Note_off_c, 1, 46, 100
3, 132576, Note_on_c, 1, 58, 80
3, 132668, Note_off_c, 1, 58, 100
3, 132672, Note_on_c, 1, 58, 80
3, 132764, Note_off_c, 1, 58, 100
3, 132768, Note_on_c, 1, 58, 80
3, 132860, Note_off_c, 1, 58, 100
3, 132864, Note_on_c, 1, 68, 80
3, 132864, Note_on_c, 1, 72, 80
3, 132956, Note_off_c, 1, 68, 100
3, 132956, Note_off_c, 1, 72, 100
3, 132960, Note_on_c, 1, 58, 80
3, 133052, Note_off_c, 1, 58, 100
3, 133056, Note_on_c, 1, 67, 81
3, 133056, Note_on_c, 1, 70, 81
3, 133148, Note_off_c, 1, 67, 100
3, 133148, Note_off_c, 1, 70, 100
3, 133152, Note_on_c, 1, 58, 82
3, 133244, Note_off_c, 1, 58, 100
3, 133248, Note_on_c, 1, 66, 83
3, 133248, Note_on_c, 1, 69, 83
3, 133340, Note_off_c, 1, 66, 100
3, 133340, Note_off_c, 1, 69, 100
3, 133344, Note_on_c, 1, 58, 84
3, 133436, Note_off_c, 1, 58, 100
3, 133440, Note_on_c, 1, 65, 85
3, 133440, Note_on_c, 1, 68, 85
3, 133532, Note_off_c, 1, 65, 100
3, 133532, Note_off_c, 1, 68, 100
3, 133536, Note_on_c, 1, 58, 86
3, 133628, Note_off_c, 1, 58, 100
3, 133632, Note_on_c, 1, 64, 87
3, 133632, Note_on_c, 1, 67, 87
3, 133724, Note_off_c, 1, 64, 100
3, 133724, Note_off_c, 1, 67, 100
3, 133728, Note_on_c, 1, 58, 88
3, 133820, Note_off_c, 1, 58, 100
3, 133824, Note_on_c, 1, 63, 89
3, 133824, Note_on_c, 1, 66, 89
3, 133916, Note_off_c, 1, 63, 100
3, 133916, Note_off_c, 1, 66, 100
3, 133920, Note_on_c, 1, 58, 90
3, 134012, Note_off_c, 1, 58, 100
3, 134016, Note_on_c, 1, 62, 91
3, 134016, Note_on_c, 1, 65, 91
3, 134108, Note_off_c, 1, 62, 100
3, 134108, Note_off_c, 1, 65, 100
3, 134112, Note_on_c, 1, 58, 92
3, 134204, Note_off_c, 1, 58, 100
3, 134208, Note_on_c, 1, 61, 93
3, 134208, Note_on_c, 1, 64, 93
3, 134300, Note_off_c, 1, 61, 100
3, 134300, Note_off_c, 1, 64, 100
3, 134304, Note_on_c, 1, 58, 94
3, 134396, Note_off_c, 1, 58, 100
3, 134400, Note_on_c, 1, 60, 95
3, 134400, Note_on_c, 1, 63, 95
3, 134492, Note_off_c, 1, 60, 100
3, 134492, Note_off_c, 1, 63, 100
3, 134496, Note_on_c, 1, 58, 96
3, 134588, Note_off_c, 1, 58, 100
3, 134592, Note_on_c, 1, 62, 97
3, 134592, Note_on_c, 1, 65, 97
3, 134684, Note_off_c, 1, 62, 100
3, 134684, Note_off_c, 1, 65, 100
3, 134688, Note_on_c, 1, 58, 98
3, 134780, Note_off_c, 1, 58, 100
3, 134784, Note_on_c, 1, 51, 99
3, 134876, Note_off_c, 1, 51, 100
3, 134880, Note_on_c, 1, 63, 80
3, 134972, Note_off_c, 1, 63, 100
3, 134976, Note_on_c, 1, 44, 80
3, 135068, Note_off_c, 1, 44, 100
3, 135072, Note_on_c, 1, 56, 81
3, 135164, Note_off_c, 1, 56, 100
3, 135168, Note_on_c, 1, 46, 82
3, 135260, Note_off_c, 1, 46, 100
3, 135264, Note_on_c, 1, 58, 83
3, 135356, Note_off_c, 1, 58, 100
3, 135360, Note_on_c, 1, 34, 83
3, 135452, Note_off_c, 1, 34, 100
3, 135456, Note_on_c, 1, 46, 84
3, 135548, Note_off_c, 1, 46, 100
3, 135552, Note_on_c, 1, 39, 85
3, 135552, Note_on_c, 1, 51, 85
3, 135644, Note_off_c, 1, 51, 100
3, 135648, Note_on_c, 1, 46, 86
3, 135740, Note_off_c, 1, 39, 100
3, 135740, Note_off_c, 1, 46, 100
3, 135744, Note_on_c, 1, 46, 87
3, 135836, Note_off_c, 1, 46, 100
3, 135840, Note_on_c, 1, 46, 87
3, 135932, Note_off_c, 1, 46, 100
3, 135936, Note_on_c, 1, 46, 88
3, 136028, Note_off_c, 1, 46, 100
3, 136032, Note_on_c, 1, 46, 89
3, 136124, Note_off_c, 1, 46, 100
3, 136128, Note_on_c, 1, 55, 90
3, 136128, Note_on_c, 1, 43, 90
3, 136220, Note_off_c, 1, 55, 100
3, 136224, Note_on_c, 1, 46, 91
3, 136316, Note_off_c, 1, 43, 100
3, 136316, Note_off_c, 1, 46, 100
3, 136320, Note_on_c, 1, 56, 91
3, 136320, Note_on_c, 1, 44, 91
3, 136412, Note_off_c, 1, 56, 100
3, 136416, Note_on_c, 1, 46, 92
3, 136508, Note_off_c, 1, 44, 100
3, 136508, Note_off_c, 1, 46, 100
3, 136512, Note_on_c, 1, 53, 93
3, 136512, Note_on_c, 1, 41, 93
3, 136604, Note_off_c, 1, 53, 100
3, 136608, Note_on_c, 1, 46, 94
3, 136700, Note_off_c, 1, 41, 100
3, 136700, Note_off_c, 1, 46, 100
3, 136704, Note_on_c, 1, 55, 94
3, 136704, Note_on_c, 1, 43, 94
3, 136796, Note_off_c, 1, 55, 100
3, 136800, Note_on_c, 1, 46, 95
3, 136892, Note_off_c, 1, 43, 100
3, 136892, Note_off_c, 1, 46, 100
3, 136896, Note_on_c, 1, 51, 96
3, 136896, Note_on_c, 1, 39, 96
3, 136988, Note_off_c, 1, 51, 100
3, 136992, Note_on_c, 1, 46, 97
3, 137084, Note_off_c, 1, 39, 100
3, 137084, Note_off_c, 1, 46, 100
3, 137088, Note_on_c, 1, 34, 98
3, 137184, Note_on_c, 1, 46, 98
3, 137276, Note_off_c, 1, 34, 100
3, 137276, Note_off_c, 1, 46, 100
3, 137280, Note_on_c, 1, 46, 99
3, 137372, Note_off_c, 1, 46, 100
3, 137376, Note_on_c, 1, 46, 100
3, 137468, Note_off_c, 1, 46, 100
3, 137472, Note_on_c, 1, 46, 101
3, 137564, Note_off_c, 1, 46, 100
3, 137568, Note_on_c, 1, 46, 102
3, 137660, Note_off_c, 1, 46, 100
3, 137664, Note_on_c, 1, 55, 102
3, 137664, Note_on_c, 1, 43, 102
3, 137756, Note_off_c, 1, 55, 100
3, 137760, Note_on_c, 1, 46, 103
3, 137852, Note_off_c, 1, 43, 100
3, 137852, Note_off_c, 1, 46, 100
3, 137856, Note_on_c, 1, 56, 104
3, 137856, Note_on_c, 1, 44, 104
3, 137948, Note_off_c, 1, 56, 100
3, 137952, Note_on_c, 1, 46, 105
3, 138044, Note_off_c, 1, 44, 100
3, 138044, Note_off_c, 1, 46, 100
3, 138048, Note_on_c, 1, 53, 106
3, 138048, Note_on_c, 1, 41, 106
3, 138140, Note_off_c, 1, 53, 100
3, 138144, Note_on_c, 1, 46, 106
3, 138236, Note_off_c, 1, 41, 100
3, 138236, Note_off_c, 1, 46, 100
3, 138240, Note_on_c, 1, 55, 107
3, 138240, Note_on_c, 1, 43, 107
3, 138332, Note_off_c, 1, 55, 100
3, 138336, Note_on_c, 1, 46, 108
3, 138428, Note_off_c, 1, 43, 100
3, 138428, Note_off_c, 1, 46, 100
3, 138432, Note_on_c, 1, 51, 109
3, 138432, Note_on_c, 1, 39, 109
3, 138524, Note_off_c, 1, 51, 100
3, 138528, Note_on_c, 1, 46, 109
3, 138620, Note_off_c, 1, 39, 100
3, 138620, Note_off_c, 1, 46, 100
3, 138624, Note_on_c, 1, 46, 110
3, 138624, Note_on_c, 1, 34, 110
3, 139388, Note_off_c, 1, 46, 100
3, 139388, Note_off_c, 1, 34, 100
3, 139392, Note_on_c, 1, 47, 80
3, 139392, Note_on_c, 1, 35, 80
3, 139484, Note_off_c, 1, 47, 100
3, 139484, Note_off_c, 1, 35, 100
3, 139488, Note_on_c, 1, 59, 80
3, 139580, Note_off_c, 1, 59, 100
3, 139584, Note_on_c, 1, 59, 80
3, 139676, Note_off_c, 1, 59, 100
3, 139680, Note_on_c, 1, 59, 80
3, 139772, Note_off_c, 1, 59, 100
3, 139776, Note_on_c, 1, 59, 80
3, 139868, Note_off_c, 1, 59, 100
3, 139872, Note_on_c, 1, 59, 80
3, 139964, Note_off_c, 1, 59, 100
3, 139968, Note_on_c, 1, 59, 80
3, 140060, Note_off_c, 1, 59, 100
3, 140064, Note_on_c, 1, 59, 80
3, 140156, Note_off_c, 1, 59, 100
3, 140160, Note_on_c, 1, 59, 80
3, 140252, Note_off_c, 1, 59, 100
3, 140256, Note_on_c, 1, 59, 80
3, 140348, Note_off_c, 1, 59, 100
3, 140352, Note_on_c, 1, 59, 80
3, 140444, Note_off_c, 1, 59, 100
3, 140448, Note_on_c, 1, 59, 80
3, 140540, Note_off_c, 1, 59, 100
3, 140544, Note_on_c, 1, 59, 80
3, 140636, Note_off_c, 1, 59, 100
3, 140640, Note_on_c, 1, 59, 80
3, 140732, Note_off_c, 1, 59, 100
3, 140736, Note_on_c, 1, 59, 80
3, 140828, Note_off_c, 1, 59, 100
3, 140832, Note_on_c, 1, 59, 80
3, 140924, Note_off_c, 1, 59, 100
3, 140928, Note_on_c, 1, 47, 80
3, 141020, Note_off_c, 1, 47, 100
3, 141024, Note_on_c, 1, 59, 80
3, 141116, Note_off_c, 1, 59, 100
3, 141120, Note_on_c, 1, 59, 80
3, 141212, Note_off_c, 1, 59, 100
3, 141216, Note_on_c, 1, 59, 80
3, 141308, Note_off_c, 1, 59, 100
3, 141312, Note_on_c, 1, 59, 80
3, 141404, Note_off_c, 1, 59, 100
3, 141408, Note_on_c, 1, 59, 80
3, 141500, Note_off_c, 1, 59, 100
3, 141504, Note_on_c, 1, 64, 80
3, 141600, Note_on_c, 1, 59, 80
3, 141692, Note_off_c, 1, 64, 100
3, 141692, Note_off_c, 1, 59, 100
3, 141696, Note_on_c, 1, 63, 80
3, 141792, Note_on_c, 1, 59, 80
3, 141884, Note_off_c, 1, 59, 100
3, 141888, Note_on_c, 1, 59, 80
3, 141980, Note_off_c, 1, 59, 100
3, 141984, Note_on_c, 1, 59, 80
3, 142076, Note_off_c, 1, 63, 100
3, 142076, Note_off_c, 1, 59, 100
3, 142080, Note_on_c, 1, 59, 80
3, 142172, Note_off_c, 1, 59, 100
3, 142176, Note_on_c, 1, 59, 80
3, 142268, Note_off_c, 1, 59, 100
3, 142272, Note_on_c, 1, 51, 80
3, 142364, Note_off_c, 1, 51, 100
3, 142368, Note_on_c, 1, 59, 80
3, 142460, Note_off_c, 1, 59, 100
3, 142464, Note_on_c, 1, 52, 80
3, 142556, Note_off_c, 1, 52, 100
3, 142560, Note_on_c, 1, 59, 80
3, 142652, Note_off_c, 1, 59, 100
3, 142656, Note_on_c, 1, 56, 80
3, 142748, Note_off_c, 1, 56, 100
3, 142752, Note_on_c, 1, 59, 80
3, 142844, Note_off_c, 1, 59, 100
3, 142848, Note_on_c, 1, 57, 80
3, 142848, Note_on_c, 1, 54, 80
3, 142940, Note_off_c, 1, 57, 100
3, 142940, Note_off_c, 1, 54, 100
3, 142944, Note_on_c, 1, 59, 80
3, 143036, Note_off_c, 1, 59, 100
3, 143040, Note_on_c, 1, 52, 80
3, 143040, Note_on_c, 1, 56, 80
3, 143132, Note_off_c, 1, 52, 100
3, 143132, Note_off_c, 1, 56, 100
3, 143136, Note_on_c, 1, 59, 80
3, 143228, Note_off_c, 1, 59, 100
3, 143232, Note_on_c, 1, 54, 80
3, 143232, Note_on_c, 1, 51, 80
3, 143324, Note_off_c, 1, 54, 100
3, 143324, Note_off_c, 1, 51, 100
3, 143328, Note_on_c, 1, 59, 80
3, 143420, Note_off_c, 1, 59, 100
3, 143424, Note_on_c, 1, 56, 80
3, 143516, Note_off_c, 1, 56, 100
3, 143520, Note_on_c, 1, 59, 80
3, 143612, Note_off_c, 1, 59, 100
3, 143616, Note_on_c, 1, 57, 80
3, 143616, Note_on_c, 1, 54, 80
3, 143708, Note_off_c, 1, 57, 100
3, 143708, Note_off_c, 1, 54, 100
3, 143712, Note_on_c, 1, 59, 80
3, 143804, Note_off_c, 1, 59, 100
3, 143808, Note_on_c, 1, 56, 80
3, 143808, Note_on_c, 1, 52, 80
3, 143900, Note_off_c, 1, 56, 100
3, 143900, Note_off_c, 1, 52, 100
3, 143904, Note_on_c, 1, 59, 80
3, 143996, Note_off_c, 1, 59, 100
3, 144000, Note_on_c, 1, 51, 80
3, 144000, Note_on_c, 1, 54, 80
3, 144092, Note_off_c, 1, 54, 100
3, 144096, Note_on_c, 1, 59, 80
3, 144188, Note_off_c, 1, 51, 100
3, 144188, Note_off_c, 1, 59, 100
3, 144192, Note_on_c, 1, 50, 100
3, 144192, Note_on_c, 1, 53, 100
3, 144288, Note_on_c, 1, 59, 80
3, 144476, Note_off_c, 1, 59, 100
3, 144480, Note_on_c, 1, 59, 80
3, 144572, Note_off_c, 1, 50, 100
3, 144572, Note_off_c, 1, 53, 100
3, 144572, Note_off_c, 1, 59, 100
3, 144576, Note_on_c, 1, 50, 80
3, 144576, Note_on_c, 1, 53, 80
3, 144668, Note_off_c, 1, 53, 100
3, 144672, Note_on_c, 1, 58, 80
3, 144764, Note_off_c, 1, 50, 100
3, 144764, Note_off_c, 1, 58, 100
3, 144768, Note_on_c, 1, 51, 80
3, 144860, Note_off_c, 1, 51, 100
3, 144864, Note_on_c, 1, 58, 80
3, 144956, Note_off_c, 1, 58, 100
3, 144960, Note_on_c, 1, 55, 81
3, 145052, Note_off_c, 1, 55, 100
3, 145056, Note_on_c, 1, 58, 82
3, 145148, Note_off_c, 1, 58, 100
3, 145152, Note_on_c, 1, 56, 84
3, 145152, Note_on_c, 1, 53, 84
3, 145244, Note_off_c, 1, 56, 100
3, 145244, Note_off_c, 1, 53, 100
3, 145248, Note_on_c, 1, 58, 85
3, 145340, Note_off_c, 1, 58, 100
3, 145344, Note_on_c, 1, 55, 86
3, 145344, Note_on_c, 1, 51, 86
3, 145436, Note_off_c, 1, 55, 100
3, 145436, Note_off_c, 1, 51, 100
3, 145440, Note_on_c, 1, 58, 88
3, 145532, Note_off_c, 1, 58, 100
3, 145536, Note_on_c, 1, 53, 89
3, 145536, Note_on_c, 1, 50, 89
3, 145628, Note_off_c, 1, 53, 100
3, 145628, Note_off_c, 1, 50, 100
3, 145632, Note_on_c, 1, 58, 90
3, 145724, Note_off_c, 1, 58, 100
3, 145728, Note_on_c, 1, 55, 92
3, 145820, Note_off_c, 1, 55, 100
3, 145824, Note_on_c, 1, 58, 93
3, 145916, Note_off_c, 1, 58, 100
3, 145920, Note_on_c, 1, 56, 94
3, 145920, Note_on_c, 1, 53, 94
3, 146012, Note_off_c, 1, 56, 100
3, 146012, Note_off_c, 1, 53, 100
3, 146016, Note_on_c, 1, 58, 96
3, 146108, Note_off_c, 1, 58, 100
3, 146112, Note_on_c, 1, 55, 97
3, 146112, Note_on_c, 1, 51, 97
3, 146204, Note_off_c, 1, 55, 100
3, 146204, Note_off_c, 1, 51, 100
3, 146208, Note_on_c, 1, 58, 99
3, 146300, Note_off_c, 1, 58, 100
3, 146304, Note_on_c, 1, 53, 100
3, 146304, Note_on_c, 1, 50, 100
3, 146396, Note_off_c, 1, 53, 100
3, 146396, Note_off_c, 1, 50, 100
3, 146400, Note_on_c, 1, 58, 101
3, 146492, Note_off_c, 1, 58, 100
3, 146496, Note_on_c, 1, 51, 103
3, 146496, Note_on_c, 1, 49, 103
3, 146588, Note_off_c, 1, 51, 100
3, 146588, Note_off_c, 1, 49, 100
3, 146592, Note_on_c, 1, 58, 104
3, 146684, Note_off_c, 1, 58, 100
3, 146688, Note_on_c, 1, 51, 105
3, 146688, Note_on_c, 1, 48, 105
3, 146780, Note_off_c, 1, 51, 100
3, 146780, Note_off_c, 1, 48, 100
3, 146784, Note_on_c, 1, 60, 107
3, 146876, Note_off_c, 1, 60, 100
3, 146880, Note_on_c, 1, 51, 108
3, 146880, Note_on_c, 1, 43, 108
3, 146972, Note_off_c, 1, 51, 100
3, 146972, Note_off_c, 1, 43, 100
3, 146976, Note_on_c, 1, 55, 109
3, 147068, Note_off_c, 1, 55, 100
3, 147072, Note_on_c, 1, 44, 100
3, 147164, Note_off_c, 1, 44, 100
3, 147168, Note_on_c, 1, 48, 98
3, 147260, Note_off_c, 1, 48, 100
3, 147264, Note_on_c, 1, 53, 95
3, 147356, Note_off_c, 1, 53, 100
3, 147360, Note_on_c, 1, 56, 92
3, 147452, Note_off_c, 1, 56, 100
3, 147456, Note_on_c, 1, 46, 89
3, 147548, Note_off_c, 1, 46, 100
3, 147552, Note_on_c, 1, 53, 86
3, 147552, Note_on_c, 1, 56, 86
3, 147644, Note_off_c, 1, 53, 100
3, 147644, Note_off_c, 1, 56, 100
3, 147648, Note_on_c, 1, 58, 83
3, 147740, Note_off_c, 1, 58, 100
3, 147744, Note_on_c, 1, 56, 81
3, 147744, Note_on_c, 1, 53, 81
3, 147836, Note_off_c, 1, 56, 100
3, 147836, Note_off_c, 1, 53, 100
3, 147840, Note_on_c, 1, 51, 80
3, 147888, Note_on_c, 1, 55, 80
3, 147932, Note_off_c, 1, 51, 100
3, 147936, Note_on_c, 1, 58, 80
3, 147980, Note_off_c, 1, 55, 100
3, 147984, Note_on_c, 1, 63, 80
3, 148028, Note_off_c, 1, 58, 100
3, 148032, Note_on_c, 1, 58, 80
3, 148076, Note_off_c, 1, 63, 100
3, 148080, Note_on_c, 1, 63, 80
3, 148124, Note_off_c, 1, 58, 100
3, 148128, Note_on_c, 1, 58, 80
3, 148172, Note_off_c, 1, 63, 100
3, 148176, Note_on_c, 1, 55, 80
3, 148220, Note_off_c, 1, 58, 100
3, 148224, Note_on_c, 1, 51, 80
3, 148268, Note_off_c, 1, 55, 100
3, 148272, Note_on_c, 1, 55, 80
3, 148316, Note_off_c, 1, 51, 100
3, 148320, Note_on_c, 1, 58, 80
3, 148364, Note_off_c, 1, 55, 100
3, 148368, Note_on_c, 1, 63, 80
3, 148412, Note_off_c, 1, 58, 100
3, 148416, Note_on_c, 1, 58, 80
3, 148460, Note_off_c, 1, 63, 100
3, 148464, Note_on_c, 1, 63, 80
3, 148508, Note_off_c, 1, 58, 100
3, 148512, Note_on_c, 1, 58, 80
3, 148556, Note_off_c, 1, 63, 100
3, 148560, Note_on_c, 1, 55, 80
3, 148604, Note_off_c, 1, 58, 100
3, 148608, Note_on_c, 1, 43, 80
3, 148652, Note_off_c, 1, 55, 100
3, 148656, Note_on_c, 1, 46, 80
3, 148700, Note_off_c, 1, 43, 100
3, 148704, Note_on_c, 1, 51, 80
3, 148748, Note_off_c, 1, 46, 100
3, 148752, Note_on_c, 1, 55, 80
3, 148796, Note_off_c, 1, 51, 100
3, 148800, Note_on_c, 1, 51, 80
3, 148844, Note_off_c, 1, 55, 100
3, 148848, Note_on_c, 1, 55, 80
3, 148892, Note_off_c, 1, 51, 100
3, 148896, Note_on_c, 1, 51, 80
3, 148940, Note_off_c, 1, 55, 100
3, 148944, Note_on_c, 1, 46, 80
3, 148988, Note_off_c, 1, 51, 100
3, 148992, Note_on_c, 1, 43, 80
3, 149036, Note_off_c, 1, 46, 100
3, 149040, Note_on_c, 1, 46, 80
3, 149084, Note_off_c, 1, 43, 100
3, 149088, Note_on_c, 1, 51, 80
3, 149132, Note_off_c, 1, 46, 100
3, 149136, Note_on_c, 1, 55, 80
3, 149180, Note_off_c, 1, 51, 100
3, 149184, Note_on_c, 1, 51, 80
3, 149228, Note_off_c, 1, 55, 100
3, 149232, Note_on_c, 1, 55, 80
3, 149276, Note_off_c, 1, 51, 100
3, 149280, Note_on_c, 1, 51, 80
3, 149324, Note_off_c, 1, 55, 100
3, 149328, Note_on_c, 1, 46, 80
3, 149372, Note_off_c, 1, 51, 100
3, 149376, Note_on_c, 1, 44, 80
3, 149420, Note_off_c, 1, 46, 100
3, 149424, Note_on_c, 1, 48, 80
3, 149468, Note_off_c, 1, 44, 100
3, 149472, Note_on_c, 1, 51, 80
3, 149516, Note_off_c, 1, 48, 100
3, 149520, Note_on_c, 1, 53, 80
3, 149564, Note_off_c, 1, 51, 100
3, 149568, Note_on_c, 1, 51, 80
3, 149612, Note_off_c, 1, 53, 100
3, 149616, Note_on_c, 1, 53, 80
3, 149660, Note_off_c, 1, 51, 100
3, 149664, Note_on_c, 1, 51, 80
3, 149708, Note_off_c, 1, 53, 100
3, 149712, Note_on_c, 1, 48, 80
3, 149756, Note_off_c, 1, 51, 100
3, 149760, Note_on_c, 1, 44, 80
3, 149804, Note_off_c, 1, 48, 100
3, 149808, Note_on_c, 1, 48, 80
3, 149852, Note_off_c, 1, 44, 100
3, 149856, Note_on_c, 1, 51, 80
3, 149900, Note_off_c, 1, 48, 100
3, 149904, Note_on_c, 1, 53, 80
3, 149948, Note_off_c, 1, 51, 100
3, 149952, Note_on_c, 1, 51, 80
3, 149996, Note_off_c, 1, 53, 100
3, 150000, Note_on_c, 1, 53, 80
3, 150044, Note_off_c, 1, 51, 100
3, 150048, Note_on_c, 1, 51, 80
3, 150092, Note_off_c, 1, 53, 100
3, 150096, Note_on_c, 1, 53, 80
3, 150140, Note_off_c, 1, 51, 100
3, 150144, Note_on_c, 1, 46, 80
3, 150188, Note_off_c, 1, 53, 100
3, 150192, Note_on_c, 1, 56, 80
3, 150236, Note_off_c, 1, 46, 100
3, 150240, Note_on_c, 1, 50, 80
3, 150284, Note_off_c, 1, 56, 100
3, 150288, Note_on_c, 1, 56, 80
3, 150332, Note_off_c, 1, 50, 100
3, 150336, Note_on_c, 1, 53, 80
3, 150380, Note_off_c, 1, 56, 100
3, 150384, Note_on_c, 1, 56, 80
3, 150428, Note_off_c, 1, 53, 100
3, 150432, Note_on_c, 1, 51, 80
3, 150476, Note_off_c, 1, 56, 100
3, 150480, Note_on_c, 1, 56, 80
3, 150524, Note_off_c, 1, 51, 100
3, 150528, Note_on_c, 1, 46, 80
3, 150572, Note_off_c, 1, 56, 100
3, 150576, Note_on_c, 1, 56, 80
3, 150620, Note_off_c, 1, 46, 100
3, 150624, Note_on_c, 1, 50, 80
3, 150668, Note_off_c, 1, 56, 100
3, 150672, Note_on_c, 1, 56, 80
3, 150716, Note_off_c, 1, 50, 100
3, 150720, Note_on_c, 1, 53, 80
3, 150764, Note_off_c, 1, 56, 100
3, 150768, Note_on_c, 1, 56, 80
3, 150812, Note_off_c, 1, 53, 100
3, 150816, Note_on_c, 1, 51, 80
3, 150860, Note_off_c, 1, 56, 100
3, 150864, Note_on_c, 1, 56, 80
3, 150908, Note_off_c, 1, 51, 100
3, 150912, Note_on_c, 1, 51, 80
3, 150956, Note_off_c, 1, 56, 100
3, 150960, Note_on_c, 1, 55, 80
3, 151004, Note_off_c, 1, 51, 100
3, 151008, Note_on_c, 1, 58, 81
3, 151052, Note_off_c, 1, 55, 100
3, 151056, Note_on_c, 1, 63, 81
3, 151100, Note_off_c, 1, 58, 100
3, 151104, Note_on_c, 1, 58, 82
3, 151148, Note_off_c, 1, 63, 100
3, 151152, Note_on_c, 1, 63, 82
3, 151196, Note_off_c, 1, 58, 100
3, 151200, Note_on_c, 1, 58, 83
3, 151244, Note_off_c, 1, 63, 100
3, 151248, Note_on_c, 1, 55, 83
3, 151292, Note_off_c, 1, 58, 100
3, 151296, Note_on_c, 1, 51, 84
3, 151340, Note_off_c, 1, 55, 100
3, 151344, Note_on_c, 1, 55, 84
3, 151388, Note_off_c, 1, 51, 100
3, 151392, Note_on_c, 1, 58, 85
3, 151436, Note_off_c, 1, 55, 100
3, 151440, Note_on_c, 1, 63, 85
3, 151484, Note_off_c, 1, 58, 100
3, 151488, Note_on_c, 1, 58, 86
3, 151532, Note_off_c, 1, 63, 100
3, 151536, Note_on_c, 1, 63, 86
3, 151580, Note_off_c, 1, 58, 100
3, 151584, Note_on_c, 1, 58, 87
3, 151628, Note_off_c, 1, 63, 100
3, 151632, Note_on_c, 1, 55, 87
3, 151676, Note_off_c, 1, 58, 100
3, 151680, Note_on_c, 1, 43, 88
3, 151724, Note_off_c, 1, 55, 100
3, 151728, Note_on_c, 1, 46, 88
3, 151772, Note_off_c, 1, 43, 100
3, 151776, Note_on_c, 1, 51, 89
3, 151820, Note_off_c, 1, 46, 100
3, 151824, Note_on_c, 1, 55, 89
3, 151868, Note_off_c, 1, 51, 100
3, 151872, Note_on_c, 1, 51, 89
3, 151916, Note_off_c, 1, 55, 100
3, 151920, Note_on_c, 1, 55, 90
3, 151964, Note_off_c, 1, 51, 100
3, 151968, Note_on_c, 1, 51, 90
3, 152012, Note_off_c, 1, 55, 100
3, 152016, Note_on_c, 1, 46, 91
3, 152060, Note_off_c, 1, 51, 100
3, 152064, Note_on_c, 1, 43, 91
3, 152108, Note_off_c, 1, 46, 100
3, 152112, Note_on_c, 1, 46, 92
3, 152156, Note_off_c, 1, 43, 100
3, 152160, Note_on_c, 1, 51, 92
3, 152204, Note_off_c, 1, 46, 100
3, 152208, Note_on_c, 1, 55, 93
3, 152252, Note_off_c, 1, 51, 100
3, 152256, Note_on_c, 1, 51, 93
3, 152300, Note_off_c, 1, 55, 100
3, 152304, Note_on_c, 1, 55, 94
3, 152348, Note_off_c, 1, 51, 100
3, 152352, Note_on_c, 1, 51, 94
3, 152396, Note_off_c, 1, 55, 100
3, 152400, Note_on_c, 1, 46, 95
3, 152444, Note_off_c, 1, 51, 100
3, 152448, Note_on_c, 1, 44, 95
3, 152492, Note_off_c, 1, 46, 100
3, 152496, Note_on_c, 1, 48, 96
3, 152540, Note_off_c, 1, 44, 100
3, 152544, Note_on_c, 1, 51, 96
3, 152588, Note_off_c, 1, 48, 100
3, 152592, Note_on_c, 1, 53, 97
3, 152636, Note_off_c, 1, 51, 100
3, 152640, Note_on_c, 1, 51, 97
3, 152684, Note_off_c, 1, 53, 100
3, 152688, Note_on_c, 1, 53, 98
3, 152732, Note_off_c, 1, 51, 100
3, 152736, Note_on_c, 1, 51, 98
3, 152780, Note_off_c, 1, 53, 100
3, 152784, Note_on_c, 1, 48, 99
3, 152828, Note_off_c, 1, 51, 100
3, 152832, Note_on_c, 1, 44, 99
3, 152876, Note_off_c, 1, 48, 100
3, 152880, Note_on_c, 1, 48, 99
3, 152924, Note_off_c, 1, 44, 100
3, 152928, Note_on_c, 1, 51, 100
3, 152972, Note_off_c, 1, 48, 100
3, 152976, Note_on_c, 1, 53, 100
3, 153020, Note_off_c, 1, 51, 100
3, 153024, Note_on_c, 1, 51, 101
3, 153068, Note_off_c, 1, 53, 100
3, 153072, Note_on_c, 1, 53, 101
3, 153116, Note_off_c, 1, 51, 100
3, 153120, Note_on_c, 1, 48, 102
3, 153164, Note_off_c, 1, 53, 100
3, 153212, Note_off_c, 1, 48, 100
3, 153216, Note_on_c, 1, 45, 103
3, 153264, Note_on_c, 1, 48, 103
3, 153308, Note_off_c, 1, 45, 100
3, 153312, Note_on_c, 1, 51, 104
3, 153356, Note_off_c, 1, 48, 100
3, 153360, Note_on_c, 1, 53, 104
3, 153404, Note_off_c, 1, 51, 100
3, 153408, Note_on_c, 1, 51, 105
3, 153452, Note_off_c, 1, 53, 100
3, 153456, Note_on_c, 1, 53, 105
3, 153500, Note_off_c, 1, 51, 100
3, 153504, Note_on_c, 1, 51, 106
3, 153548, Note_off_c, 1, 53, 100
3, 153552, Note_on_c, 1, 48, 106
3, 153596, Note_off_c, 1, 51, 100
3, 153600, Note_on_c, 1, 45, 107
3, 153644, Note_off_c, 1, 48, 100
3, 153648, Note_on_c, 1, 48, 107
3, 153692, Note_off_c, 1, 45, 100
3, 153696, Note_on_c, 1, 51, 108
3, 153740, Note_off_c, 1, 48, 100
3, 153744, Note_on_c, 1, 53, 108
3, 153788, Note_off_c, 1, 51, 100
3, 153792, Note_on_c, 1, 51, 109
3, 153836, Note_off_c, 1, 53, 100
3, 153840, Note_on_c, 1, 53, 109
3, 153884, Note_off_c, 1, 51, 100
3, 153888, Note_on_c, 1, 51, 109
3, 153932, Note_off_c, 1, 53, 100
3, 153936, Note_on_c, 1, 48, 110
3, 153980, Note_off_c, 1, 51, 100
3, 153984, Note_on_c, 1, 46, 110
3, 154028, Note_off_c, 1, 48, 100
3, 154032, Note_on_c, 1, 51, 109
3, 154076, Note_off_c, 1, 46, 100
3, 154080, Note_on_c, 1, 55, 109
3, 154124, Note_off_c, 1, 51, 100
3, 154128, Note_on_c, 1, 58, 108
3, 154172, Note_off_c, 1, 55, 100
3, 154176, Note_on_c, 1, 55, 107
3, 154220, Note_off_c, 1, 58, 100
3, 154224, Note_on_c, 1, 58, 107
3, 154268, Note_off_c, 1, 55, 100
3, 154272, Note_on_c, 1, 55, 106
3, 154316, Note_off_c, 1, 58, 100
3, 154320, Note_on_c, 1, 51, 105
3, 154364, Note_off_c, 1, 55, 100
3, 154368, Note_on_c, 1, 46, 105
3, 154412, Note_off_c, 1, 51, 100
3, 154416, Note_on_c, 1, 51, 104
3, 154460, Note_off_c, 1, 46, 100
3, 154464, Note_on_c, 1, 55, 103
3, 154508, Note_off_c, 1, 51, 100
3, 154512, Note_on_c, 1, 58, 103
3, 154556, Note_off_c, 1, 55, 100
3, 154560, Note_on_c, 1, 55, 102
3, 154604, Note_off_c, 1, 58, 100
3, 154608, Note_on_c, 1, 58, 101
3, 154652, Note_off_c, 1, 55, 100
3, 154656, Note_on_c, 1, 55, 101
3, 154700, Note_off_c, 1, 58, 100
3, 154704, Note_on_c, 1, 51, 90
3, 154748, Note_off_c, 1, 55, 100
3, 154752, Note_on_c, 1, 46, 90
3, 154796, Note_off_c, 1, 51, 100
3, 154800, Note_on_c, 1, 56, 89
3, 154844, Note_off_c, 1, 46, 100
3, 154848, Note_on_c, 1, 58, 89
3, 154892, Note_off_c, 1, 56, 100
3, 154896, Note_on_c, 1, 56, 88
3, 154940, Note_off_c, 1, 58, 100
3, 154944, Note_on_c, 1, 58, 87
3, 154988, Note_off_c, 1, 56, 100
3, 154992, Note_on_c, 1, 56, 87
3, 155036, Note_off_c, 1, 58, 100
3, 155040, Note_on_c, 1, 58, 86
3, 155084, Note_off_c, 1, 56, 100
3, 155088, Note_on_c, 1, 56, 85
3, 155132, Note_off_c, 1, 58, 100
3, 155136, Note_on_c, 1, 46, 85
3, 155180, Note_off_c, 1, 56, 100
3, 155184, Note_on_c, 1, 56, 84
3, 155228, Note_off_c, 1, 46, 100
3, 155232, Note_on_c, 1, 58, 83
3, 155276, Note_off_c, 1, 56, 100
3, 155280, Note_on_c, 1, 56, 83
3, 155324, Note_off_c, 1, 58, 100
3, 155328, Note_on_c, 1, 58, 82
3, 155372, Note_off_c, 1, 56, 100
3, 155376, Note_on_c, 1, 56, 81
3, 155420, Note_off_c, 1, 58, 100
3, 155424, Note_on_c, 1, 58, 81
3, 155468, Note_off_c, 1, 56, 100
3, 155472, Note_on_c, 1, 56, 80
3, 155516, Note_off_c, 1, 58, 100
3, 155520, Note_on_c, 1, 51, 80
3, 155564, Note_off_c, 1, 56, 100
3, 155568, Note_on_c, 1, 55, 80
3, 155612, Note_off_c, 1, 51, 100
3, 155616, Note_on_c, 1, 58, 80
3, 155660, Note_off_c, 1, 55, 100
3, 155664, Note_on_c, 1, 63, 80
3, 155708, Note_off_c, 1, 58, 100
3, 155712, Note_on_c, 1, 58, 80
3, 155756, Note_off_c, 1, 63, 100
3, 155760, Note_on_c, 1, 63, 80
3, 155804, Note_off_c, 1, 58, 100
3, 155808, Note_on_c, 1, 58, 80
3, 155852, Note_off_c, 1, 63, 100
3, 155856, Note_on_c, 1, 55, 80
3, 155900, Note_off_c, 1, 58, 100
3, 155904, Note_on_c, 1, 51, 80
3, 155948, Note_off_c, 1, 55, 100
3, 155952, Note_on_c, 1, 55, 79
3, 155996, Note_off_c, 1, 51, 100
3, 156000, Note_on_c, 1, 58, 79
3, 156044, Note_off_c, 1, 55, 100
3, 156048, Note_on_c, 1, 63, 79
3, 156092, Note_off_c, 1, 58, 100
3, 156096, Note_on_c, 1, 58, 79
3, 156140, Note_off_c, 1, 63, 100
3, 156144, Note_on_c, 1, 63, 79
3, 156188, Note_off_c, 1, 58, 100
3, 156192, Note_on_c, 1, 58, 79
3, 156236, Note_off_c, 1, 63, 100
3, 156240, Note_on_c, 1, 55, 79
3, 156284, Note_off_c, 1, 58, 100
3, 156288, Note_on_c, 1, 51, 79
3, 156332, Note_off_c, 1, 55, 100
3, 156336, Note_on_c, 1, 56, 79
3, 156380, Note_off_c, 1, 51, 100
3, 156384, Note_on_c, 1, 58, 79
3, 156428, Note_off_c, 1, 56, 100
3, 156432, Note_on_c, 1, 62, 78
3, 156476, Note_off_c, 1, 58, 100
3, 156480, Note_on_c, 1, 58, 78
3, 156524, Note_off_c, 1, 62, 100
3, 156528, Note_on_c, 1, 62, 78
3, 156572, Note_off_c, 1, 58, 100
3, 156576, Note_on_c, 1, 58, 78
3, 156620, Note_off_c, 1, 62, 100
3, 156624, Note_on_c, 1, 56, 78
3, 156668, Note_off_c, 1, 58, 100
3, 156672, Note_on_c, 1, 51, 78
3, 156716, Note_off_c, 1, 56, 100
3, 156720, Note_on_c, 1, 56, 78
3, 156764, Note_off_c, 1, 51, 100
3, 156768, Note_on_c, 1, 58, 78
3, 156812, Note_off_c, 1, 56, 100
3, 156816, Note_on_c, 1, 62, 78
3, 156860, Note_off_c, 1, 58, 100
3, 156864, Note_on_c, 1, 58, 77
3, 156908, Note_off_c, 1, 62, 100
3, 156912, Note_on_c, 1, 62, 77
3, 156956, Note_off_c, 1, 58, 100
3, 156960, Note_on_c, 1, 58, 77
3, 157004, Note_off_c, 1, 62, 100
3, 157008, Note_on_c, 1, 56, 77
3, 157052, Note_off_c, 1, 58, 100
3, 157056, Note_on_c, 1, 51, 77
3, 157100, Note_off_c, 1, 56, 100
3, 157104, Note_on_c, 1, 55, 77
3, 157148, Note_off_c, 1, 51, 100
3, 157152, Note_on_c, 1, 58, 77
3, 157196, Note_off_c, 1, 55, 100
3, 157200, Note_on_c, 1, 63, 77
3, 157244, Note_off_c, 1, 58, 100
3, 157248, Note_on_c, 1, 58, 77
3, 157292, Note_off_c, 1, 63, 100
3, 157296, Note_on_c, 1, 63, 77
3, 157340, Note_off_c, 1, 58, 100
3, 157344, Note_on_c, 1, 58, 76
3, 157388, Note_off_c, 1, 63, 100
3, 157392, Note_on_c, 1, 55, 76
3, 157436, Note_off_c, 1, 58, 100
3, 157440, Note_on_c, 1, 51, 76
3, 157484, Note_off_c, 1, 55, 100
3, 157488, Note_on_c, 1, 55, 76
3, 157532, Note_off_c, 1, 51, 100
3, 157536, Note_on_c, 1, 58, 76
3, 157580, Note_off_c, 1, 55, 100
3, 157584, Note_on_c, 1, 63, 76
3, 157628, Note_off_c, 1, 58, 100
3, 157632, Note_on_c, 1, 58, 76
3, 157676, Note_off_c, 1, 63, 100
3, 157680, Note_on_c, 1, 63, 76
3, 157724, Note_off_c, 1, 58, 100
3, 157728, Note_on_c, 1, 58, 76
3, 157772, Note_off_c, 1, 63, 100
3, 157776, Note_on_c, 1, 55, 76
3, 157820, Note_off_c, 1, 58, 100
3, 157824, Note_on_c, 1, 51, 75
3, 157868, Note_off_c, 1, 55, 100
3, 157872, Note_on_c, 1, 56, 75
3, 157916, Note_off_c, 1, 51, 100
3, 157920, Note_on_c, 1, 58, 75
3, 157964, Note_off_c, 1, 56, 100
3, 157968, Note_on_c, 1, 62, 75
3, 158012, Note_off_c, 1, 58, 100
3, 158016, Note_on_c, 1, 58, 75
3, 158060, Note_off_c, 1, 62, 100
3, 158064, Note_on_c, 1, 62, 75
3, 158108, Note_off_c, 1, 58, 100
3, 158112, Note_on_c, 1, 58, 75
3, 158156, Note_off_c, 1, 62, 100
3, 158160, Note_on_c, 1, 56, 75
3, 158204, Note_off_c, 1, 58, 100
3, 158208, Note_on_c, 1, 51, 75
3, 158252, Note_off_c, 1, 56, 100
3, 158256, Note_on_c, 1, 56, 74
3, 158300, Note_off_c, 1, 51, 100
3, 158304, Note_on_c, 1, 58, 74
3, 158348, Note_off_c, 1, 56, 100
3, 158352, Note_on_c, 1, 62, 74
3, 158396, Note_off_c, 1, 58, 100
3, 158400, Note_on_c, 1, 58, 74
3, 158444, Note_off_c, 1, 62, 100
3, 158448, Note_on_c, 1, 62, 74
3, 158492, Note_off_c, 1, 58, 100
3, 158496, Note_on_c, 1, 58, 74
3, 158540, Note_off_c, 1, 62, 100
3, 158544, Note_on_c, 1, 56, 74
3, 158588, Note_off_c, 1, 58, 100
3, 158592, Note_on_c, 1, 51, 74
3, 158636, Note_off_c, 1, 56, 100
3, 158640, Note_on_c, 1, 55, 74
3, 158684, Note_off_c, 1, 51, 100
3, 158688, Note_on_c, 1, 58, 74
3, 158732, Note_off_c, 1, 55, 100
3, 158736, Note_on_c, 1, 63, 73
3, 158780, Note_off_c, 1, 58, 100
3, 158784, Note_on_c, 1, 58, 73
3, 158828, Note_off_c, 1, 63, 100
3, 158832, Note_on_c, 1, 63, 73
3, 158876, Note_off_c, 1, 58, 100
3, 158880, Note_on_c, 1, 58, 73
3, 158924, Note_off_c, 1, 63, 100
3, 158928, Note_on_c, 1, 55, 73
3, 158972, Note_off_c, 1, 58, 100
3, 158976, Note_on_c, 1, 51, 73
3, 159020, Note_off_c, 1, 55, 100
3, 159024, Note_on_c, 1, 55, 73
3, 159068, Note_off_c, 1, 51, 100
3, 159072, Note_on_c, 1, 58, 73
3, 159116, Note_off_c, 1, 55, 100
3, 159120, Note_on_c, 1, 63, 73
3, 159164, Note_off_c, 1, 58, 100
3, 159168, Note_on_c, 1, 58, 72
3, 159212, Note_off_c, 1, 63, 100
3, 159216, Note_on_c, 1, 63, 72
3, 159260, Note_off_c, 1, 58, 100
3, 159264, Note_on_c, 1, 58, 72
3, 159308, Note_off_c, 1, 63, 100
3, 159312, Note_on_c, 1, 55, 72
3, 159356, Note_off_c, 1, 58, 100
3, 159360, Note_on_c, 1, 43, 72
3, 159404, Note_off_c, 1, 55, 100
3, 159408, Note_on_c, 1, 46, 72
3, 159452, Note_off_c, 1, 43, 100
3, 159456, Note_on_c, 1, 51, 72
3, 159500, Note_off_c, 1, 46, 100
3, 159504, Note_on_c, 1, 55, 72
3, 159548, Note_off_c, 1, 51, 100
3, 159552, Note_on_c, 1, 51, 72
3, 159596, Note_off_c, 1, 55, 100
3, 159600, Note_on_c, 1, 55, 72
3, 159644, Note_off_c, 1, 51, 100
3, 159648, Note_on_c, 1, 51, 71
3, 159692, Note_off_c, 1, 55, 100
3, 159696, Note_on_c, 1, 46, 71
3, 159740, Note_off_c, 1, 51, 100
3, 159744, Note_on_c, 1, 39, 71
3, 159788, Note_off_c, 1, 46, 100
3, 159792, Note_on_c, 1, 43, 71
3, 159836, Note_off_c, 1, 39, 100
3, 159840, Note_on_c, 1, 46, 71
3, 159884, Note_off_c, 1, 43, 100
3, 159888, Note_on_c, 1, 51, 71
3, 159932, Note_off_c, 1, 46, 100
3, 159936, Note_on_c, 1, 46, 71
3, 159980, Note_off_c, 1, 51, 100
3, 159984, Note_on_c, 1, 51, 71
3, 160028, Note_off_c, 1, 46, 100
3, 160032, Note_on_c, 1, 46, 71
3, 160076, Note_off_c, 1, 51, 100
3, 160080, Note_on_c, 1, 43, 71
3, 160124, Note_off_c, 1, 46, 100
3, 160124, Note_off_c, 1, 43, 100
3, 160128, Note_on_c, 1, 39, 70
3, 160176, Note_on_c, 1, 43, 70
3, 160220, Note_off_c, 1, 39, 100
3, 160224, Note_on_c, 1, 46, 70
3, 160268, Note_off_c, 1, 43, 100
3, 160272, Note_on_c, 1, 51, 70
3, 160316, Note_off_c, 1, 46, 100
3, 160320, Note_on_c, 1, 46, 70
3, 160364, Note_off_c, 1, 51, 100
3, 160368, Note_on_c, 1, 51, 70
3, 160412, Note_off_c, 1, 46, 100
3, 160416, Note_on_c, 1, 46, 70
3, 160460, Note_off_c, 1, 51, 100
3, 160464, Note_on_c, 1, 43, 70
3, 160508, Note_off_c, 1, 46, 100
3, 160508, Note_off_c, 1, 43, 100
3, 160512, Note_on_c, 1, 39, 70
3, 160560, Note_on_c, 1, 43, 70
3, 160604, Note_off_c, 1, 39, 100
3, 160608, Note_on_c, 1, 46, 70
3, 160652, Note_off_c, 1, 43, 100
3, 160656, Note_on_c, 1, 51, 70
3, 160700, Note_off_c, 1, 46, 100
3, 160704, Note_on_c, 1, 46, 70
3, 160748, Note_off_c, 1, 51, 100
3, 160752, Note_on_c, 1, 51, 70
3, 160796, Note_off_c, 1, 46, 100
3, 160800, Note_on_c, 1, 46, 70
3, 160844, Note_off_c, 1, 51, 100
3, 160848, Note_on_c, 1, 43, 70
3, 160892, Note_off_c, 1, 46, 100
3, 160992, Note_on_c, 1, 39, 70
3, 161036, Note_off_c, 1, 43, 100
3, 161756, Note_off_c, 1, 39, 100
3, 161756, End_track
0, 0, End_of_file
