0, 0, Header, 1, 3, 384
1, 0, Start_track
1, 0, Title_t, "L.v.Beethoven 2mov - Piano Sonata No.4 in Eb Major Op.7\000"
1, 0, Copyright_t, "Copyright(C) 1995-2009, Suzuki Software\000"
1, 0, Sequencer_specific, 9, 67, 123, 0, 88, 70, 48, 50, 0, 1
1, 0, Text_t, "XFhd:2000/03/18:JP:Classical::::L.v.Beethoven:::Kaoru Suzuki\000"
1, 0, Text_t, "XFln:JP:\203s\203A\203m\203\\\203i\203^\221æ4\224Ô\225Ï\203z\222·\222²\215ì\225i7\201`\221æ2\212y\217Í:L.v.\203x\201[\203g\201[\203\224\203F\203\223:::\227é\202¿\202á\202ñ:\227é\202¿\202á\202ñ\000"
1, 0, Time_signature, 3, 2, 96, 8
1, 0, Sequencer_specific, 3, 0, 0, 65
1, 0, Sequencer_specific, 5, 0, 0, 119, 14, 0
1, 0, Tempo, 1200000
1, 88320, Tempo, 1250000
1, 88416, Tempo, 1304347
1, 88512, Tempo, 1363636
1, 88608, Tempo, 1500000
1, 88704, Tempo, 1200000
1, 97920, Tempo, 1276595
1, 102384, Tempo, 1500000
1, 102432, Tempo, 1621621
1, 102480, Tempo, 2000000
1, 102480, End_track
2, 0, Start_track
2, 0, Title_t, "Right"
2, 0, Control_c, 0, 0, 0
2, 0, Program_c, 0, 0
2, 0, Control_c, 0, 7, 100
2, 0, Control_c, 0, 10, 78
2, 0, Control_c, 0, 91, 127
2, 0, Key_signature, 0, "major"
2, 0, Note_on_c, 0, 64, 80
2, 0, Note_on_c, 0, 60, 80
2, 0, Note_on_c, 0, 55, 80
2, 380, Note_off_c, 0, 64, 100
2, 380, Note_off_c, 0, 60, 100
2, 380, Note_off_c, 0, 55, 100
2, 384, Note_on_c, 0, 65, 80
2, 384, Note_on_c, 0, 62, 80
2, 384, Note_on_c, 0, 55, 80
2, 572, Note_off_c, 0, 65, 100
2, 572, Note_off_c, 0, 62, 100
2, 572, Note_off_c, 0, 55, 100
2, 1152, Note_on_c, 0, 67, 80
2, 1152, Note_on_c, 0, 55, 80
2, 1436, Note_off_c, 0, 67, 100
2, 1440, Note_on_c, 0, 62, 80
2, 1532, Note_off_c, 0, 55, 100
2, 1532, Note_off_c, 0, 62, 100
2, 1536, Note_on_c, 0, 64, 80
2, 1536, Note_on_c, 0, 55, 80
2, 1724, Note_off_c, 0, 64, 100
2, 1724, Note_off_c, 0, 55, 100
2, 2304, Note_on_c, 0, 64, 80
2, 2304, Note_on_c, 0, 60, 80
2, 2304, Note_on_c, 0, 55, 80
2, 2304, Note_on_c, 0, 52, 80
2, 2684, Note_off_c, 0, 64, 100
2, 2684, Note_off_c, 0, 60, 100
2, 2684, Note_off_c, 0, 55, 100
2, 2684, Note_off_c, 0, 52, 100
2, 2688, Note_on_c, 0, 62, 80
2, 2688, Note_on_c, 0, 57, 80
2, 2688, Note_on_c, 0, 50, 80
2, 2876, Note_off_c, 0, 62, 100
2, 2876, Note_off_c, 0, 57, 100
2, 2876, Note_off_c, 0, 50, 100
2, 3456, Note_on_c, 0, 62, 80
2, 3456, Note_on_c, 0, 50, 80
2, 3740, Note_off_c, 0, 62, 100
2, 3744, Note_on_c, 0, 57, 80
2, 3836, Note_off_c, 0, 50, 100
2, 3836, Note_off_c, 0, 57, 100
2, 3840, Note_on_c, 0, 55, 91
2, 3840, Note_on_c, 0, 50, 91
2, 3840, Note_on_c, 0, 60, 92
2, 4412, Note_off_c, 0, 60, 100
2, 4416, Note_on_c, 0, 59, 80
2, 4604, Note_off_c, 0, 55, 100
2, 4604, Note_off_c, 0, 50, 100
2, 4604, Note_off_c, 0, 59, 100
2, 4608, Note_on_c, 0, 60, 80
2, 4608, Note_on_c, 0, 55, 80
2, 4608, Note_on_c, 0, 52, 80
2, 4988, Note_off_c, 0, 60, 100
2, 4988, Note_off_c, 0, 55, 100
2, 4988, Note_off_c, 0, 52, 100
2, 4992, Note_on_c, 0, 62, 80
2, 4992, Note_on_c, 0, 59, 80
2, 4992, Note_on_c, 0, 55, 80
2, 4992, Note_on_c, 0, 53, 80
2, 5372, Note_off_c, 0, 62, 100
2, 5372, Note_off_c, 0, 59, 100
2, 5372, Note_off_c, 0, 55, 100
2, 5372, Note_off_c, 0, 53, 100
2, 5376, Note_on_c, 0, 64, 80
2, 5376, Note_on_c, 0, 60, 80
2, 5376, Note_on_c, 0, 55, 80
2, 5756, Note_off_c, 0, 64, 100
2, 5756, Note_off_c, 0, 60, 100
2, 5756, Note_off_c, 0, 55, 100
2, 5760, Note_on_c, 0, 64, 80
2, 5760, Note_on_c, 0, 55, 80
2, 5760, Note_on_c, 0, 57, 80
2, 6140, Note_off_c, 0, 64, 100
2, 6140, Note_off_c, 0, 55, 100
2, 6144, Note_on_c, 0, 62, 80
2, 6144, Note_on_c, 0, 53, 80
2, 6524, Note_off_c, 0, 57, 100
2, 6524, Note_off_c, 0, 62, 100
2, 6524, Note_off_c, 0, 53, 100
2, 6528, Note_on_c, 0, 60, 80
2, 6528, Note_on_c, 0, 57, 80
2, 6528, Note_on_c, 0, 52, 80
2, 6908, Note_off_c, 0, 60, 100
2, 6908, Note_off_c, 0, 57, 100
2, 6908, Note_off_c, 0, 52, 100
2, 6912, Note_on_c, 0, 59, 80
2, 6912, Note_on_c, 0, 50, 80
2, 6912, Note_on_c, 0, 57, 80
2, 7292, Note_off_c, 0, 57, 100
2, 7296, Note_on_c, 0, 55, 80
2, 7484, Note_off_c, 0, 55, 100
2, 7488, Note_on_c, 0, 56, 94
2, 7676, Note_off_c, 0, 56, 100
2, 7680, Note_on_c, 0, 55, 80
2, 7868, Note_off_c, 0, 59, 100
2, 7868, Note_off_c, 0, 50, 100
2, 7868, Note_off_c, 0, 55, 100
2, 7872, Note_on_c, 0, 59, 80
2, 7872, Note_on_c, 0, 53, 80
2, 7872, Note_on_c, 0, 50, 80
2, 8060, Note_off_c, 0, 59, 100
2, 8060, Note_off_c, 0, 53, 100
2, 8060, Note_off_c, 0, 50, 100
2, 8064, Note_on_c, 0, 62, 80
2, 8064, Note_on_c, 0, 59, 80
2, 8064, Note_on_c, 0, 53, 80
2, 8444, Note_off_c, 0, 62, 100
2, 8444, Note_off_c, 0, 59, 100
2, 8444, Note_off_c, 0, 53, 100
2, 8448, Note_on_c, 0, 60, 80
2, 8448, Note_on_c, 0, 52, 80
2, 8636, Note_off_c, 0, 60, 100
2, 8636, Note_off_c, 0, 52, 100
2, 9120, Note_on_c, 0, 60, 80
2, 9212, Note_off_c, 0, 60, 100
2, 9216, Note_on_c, 0, 67, 80
2, 9500, Note_off_c, 0, 67, 100
2, 9504, Note_on_c, 0, 66, 80
2, 9596, Note_off_c, 0, 66, 100
2, 9600, Note_on_c, 0, 74, 80
2, 9600, Note_on_c, 0, 66, 80
2, 9600, Note_on_c, 0, 60, 80
2, 9980, Note_off_c, 0, 74, 100
2, 9980, Note_off_c, 0, 66, 100
2, 9980, Note_off_c, 0, 60, 100
2, 9984, Note_on_c, 0, 74, 80
2, 9984, Note_on_c, 0, 66, 80
2, 9984, Note_on_c, 0, 60, 80
2, 10364, Note_off_c, 0, 74, 100
2, 10364, Note_off_c, 0, 66, 100
2, 10364, Note_off_c, 0, 60, 100
2, 10368, Note_on_c, 0, 74, 80
2, 10368, Note_on_c, 0, 71, 80
2, 10368, Note_on_c, 0, 67, 80
2, 10368, Note_on_c, 0, 62, 80
2, 10556, Note_off_c, 0, 74, 100
2, 10560, Note_on_c, 0, 76, 80
2, 10608, Note_on_c, 0, 74, 80
2, 10652, Note_off_c, 0, 76, 100
2, 10656, Note_on_c, 0, 73, 80
2, 10700, Note_off_c, 0, 74, 100
2, 10704, Note_on_c, 0, 74, 80
2, 10748, Note_off_c, 0, 71, 100
2, 10748, Note_off_c, 0, 67, 100
2, 10748, Note_off_c, 0, 62, 100
2, 10748, Note_off_c, 0, 73, 100
2, 10752, Note_on_c, 0, 79, 99
2, 10796, Note_off_c, 0, 74, 100
2, 11036, Note_off_c, 0, 79, 100
2, 11040, Note_on_c, 0, 71, 80
2, 11132, Note_off_c, 0, 71, 100
2, 11136, Note_on_c, 0, 72, 80
2, 11228, Note_off_c, 0, 72, 100
2, 11232, Note_on_c, 0, 73, 80
2, 11324, Note_off_c, 0, 73, 100
2, 11328, Note_on_c, 0, 76, 80
2, 11420, Note_off_c, 0, 76, 100
2, 11424, Note_on_c, 0, 74, 80
2, 11516, Note_off_c, 0, 74, 100
2, 11520, Note_on_c, 0, 67, 80
2, 11804, Note_off_c, 0, 67, 100
2, 11808, Note_on_c, 0, 66, 80
2, 11900, Note_off_c, 0, 66, 100
2, 11904, Note_on_c, 0, 74, 80
2, 11904, Note_on_c, 0, 66, 80
2, 11904, Note_on_c, 0, 60, 80
2, 12284, Note_off_c, 0, 74, 100
2, 12284, Note_off_c, 0, 66, 100
2, 12284, Note_off_c, 0, 60, 100
2, 12288, Note_on_c, 0, 74, 80
2, 12288, Note_on_c, 0, 66, 80
2, 12288, Note_on_c, 0, 60, 80
2, 12668, Note_off_c, 0, 74, 100
2, 12668, Note_off_c, 0, 66, 100
2, 12668, Note_off_c, 0, 60, 100
2, 12672, Note_on_c, 0, 74, 80
2, 12672, Note_on_c, 0, 71, 80
2, 12672, Note_on_c, 0, 67, 80
2, 12672, Note_on_c, 0, 62, 80
2, 12860, Note_off_c, 0, 74, 100
2, 12864, Note_on_c, 0, 76, 80
2, 12912, Note_on_c, 0, 74, 80
2, 12956, Note_off_c, 0, 76, 100
2, 12960, Note_on_c, 0, 73, 80
2, 13004, Note_off_c, 0, 74, 100
2, 13008, Note_on_c, 0, 74, 80
2, 13052, Note_off_c, 0, 71, 100
2, 13052, Note_off_c, 0, 67, 100
2, 13052, Note_off_c, 0, 62, 100
2, 13052, Note_off_c, 0, 73, 100
2, 13056, Note_on_c, 0, 83, 101
2, 13100, Note_off_c, 0, 74, 100
2, 13340, Note_off_c, 0, 83, 100
2, 13344, Note_on_c, 0, 79, 80
2, 13436, Note_off_c, 0, 79, 100
2, 13440, Note_on_c, 0, 78, 80
2, 13488, Note_on_c, 0, 79, 80
2, 13532, Note_off_c, 0, 78, 100
2, 13536, Note_on_c, 0, 81, 80
2, 13580, Note_off_c, 0, 79, 100
2, 13584, Note_on_c, 0, 79, 80
2, 13628, Note_off_c, 0, 81, 100
2, 13632, Note_on_c, 0, 73, 80
2, 13676, Note_off_c, 0, 79, 100
2, 13680, Note_on_c, 0, 74, 80
2, 13724, Note_off_c, 0, 73, 100
2, 13728, Note_on_c, 0, 76, 80
2, 13772, Note_off_c, 0, 74, 100
2, 13776, Note_on_c, 0, 74, 80
2, 13820, Note_off_c, 0, 76, 100
2, 13824, Note_on_c, 0, 67, 80
2, 13868, Note_off_c, 0, 74, 100
2, 14108, Note_off_c, 0, 67, 100
2, 14112, Note_on_c, 0, 66, 85
2, 14204, Note_off_c, 0, 66, 100
2, 14208, Note_on_c, 0, 74, 87
2, 14208, Note_on_c, 0, 66, 87
2, 14208, Note_on_c, 0, 60, 87
2, 14396, Note_off_c, 0, 74, 100
2, 14400, Note_on_c, 0, 74, 90
2, 14588, Note_off_c, 0, 66, 100
2, 14588, Note_off_c, 0, 60, 100
2, 14592, Note_on_c, 0, 65, 93
2, 14592, Note_on_c, 0, 60, 93
2, 14780, Note_off_c, 0, 74, 100
2, 14784, Note_on_c, 0, 74, 96
2, 14972, Note_off_c, 0, 65, 100
2, 14972, Note_off_c, 0, 60, 100
2, 15120, Note_on_c, 0, 74, 95
2, 15144, Note_on_c, 0, 76, 100
2, 15164, Note_off_c, 0, 74, 100
2, 15164, Note_off_c, 0, 74, 100
2, 15168, Note_on_c, 0, 77, 101
2, 15188, Note_off_c, 0, 76, 100
2, 15452, Note_off_c, 0, 77, 100
2, 15504, Note_on_c, 0, 76, 80
2, 15548, Note_off_c, 0, 76, 100
2, 15552, Note_on_c, 0, 74, 80
2, 15644, Note_off_c, 0, 74, 100
2, 15696, Note_on_c, 0, 72, 80
2, 15740, Note_off_c, 0, 72, 100
2, 15744, Note_on_c, 0, 71, 80
2, 15836, Note_off_c, 0, 71, 100
2, 15888, Note_on_c, 0, 69, 80
2, 15932, Note_off_c, 0, 69, 100
2, 15936, Note_on_c, 0, 67, 80
2, 16028, Note_off_c, 0, 67, 100
2, 16080, Note_on_c, 0, 65, 80
2, 16124, Note_off_c, 0, 65, 100
2, 16128, Note_on_c, 0, 64, 80
2, 16128, Note_on_c, 0, 55, 80
2, 16508, Note_off_c, 0, 64, 100
2, 16508, Note_off_c, 0, 55, 100
2, 16512, Note_on_c, 0, 65, 80
2, 16512, Note_on_c, 0, 55, 80
2, 16700, Note_off_c, 0, 65, 100
2, 16700, Note_off_c, 0, 55, 100
2, 17280, Note_on_c, 0, 67, 80
2, 17280, Note_on_c, 0, 55, 80
2, 17564, Note_off_c, 0, 67, 100
2, 17568, Note_on_c, 0, 62, 80
2, 17660, Note_off_c, 0, 55, 100
2, 17660, Note_off_c, 0, 62, 100
2, 17664, Note_on_c, 0, 64, 80
2, 17664, Note_on_c, 0, 55, 80
2, 17852, Note_off_c, 0, 64, 100
2, 17852, Note_off_c, 0, 55, 100
2, 18432, Note_on_c, 0, 69, 80
2, 18432, Note_on_c, 0, 57, 80
2, 18716, Note_off_c, 0, 69, 100
2, 18720, Note_on_c, 0, 64, 80
2, 18812, Note_off_c, 0, 57, 100
2, 18812, Note_off_c, 0, 64, 100
2, 18816, Note_on_c, 0, 65, 80
2, 18816, Note_on_c, 0, 57, 80
2, 19004, Note_off_c, 0, 57, 100
2, 19100, Note_off_c, 0, 65, 100
2, 19104, Note_on_c, 0, 70, 80
2, 19148, Note_off_c, 0, 70, 100
2, 19152, Note_on_c, 0, 69, 80
2, 19196, Note_off_c, 0, 69, 100
2, 19200, Note_on_c, 0, 67, 80
2, 19484, Note_off_c, 0, 67, 100
2, 19488, Note_on_c, 0, 72, 80
2, 19532, Note_off_c, 0, 72, 100
2, 19536, Note_on_c, 0, 70, 80
2, 19580, Note_off_c, 0, 70, 100
2, 19584, Note_on_c, 0, 69, 80
2, 19868, Note_off_c, 0, 69, 100
2, 19872, Note_on_c, 0, 74, 80
2, 19916, Note_off_c, 0, 74, 100
2, 19920, Note_on_c, 0, 72, 80
2, 19964, Note_off_c, 0, 72, 100
2, 19968, Note_on_c, 0, 71, 80
2, 20156, Note_off_c, 0, 71, 100
2, 20160, Note_on_c, 0, 77, 80
2, 20160, Note_on_c, 0, 65, 80
2, 20540, Note_off_c, 0, 77, 100
2, 20540, Note_off_c, 0, 65, 100
2, 20544, Note_on_c, 0, 76, 80
2, 20544, Note_on_c, 0, 64, 80
2, 20732, Note_off_c, 0, 76, 100
2, 20732, Note_off_c, 0, 64, 100
2, 20736, Note_on_c, 0, 62, 80
2, 20736, Note_on_c, 0, 60, 80
2, 21072, Note_on_c, 0, 69, 80
2, 21116, Note_off_c, 0, 62, 100
2, 21116, Note_off_c, 0, 60, 100
2, 21116, Note_off_c, 0, 69, 100
2, 21120, Note_on_c, 0, 64, 80
2, 21120, Note_on_c, 0, 60, 80
2, 21120, Note_on_c, 0, 67, 80
2, 21452, Note_off_c, 0, 67, 100
2, 21456, Note_on_c, 0, 67, 80
2, 21500, Note_off_c, 0, 64, 100
2, 21500, Note_off_c, 0, 60, 100
2, 21500, Note_off_c, 0, 67, 100
2, 21504, Note_on_c, 0, 62, 80
2, 21504, Note_on_c, 0, 59, 80
2, 21504, Note_on_c, 0, 53, 80
2, 21504, Note_on_c, 0, 67, 80
2, 21836, Note_off_c, 0, 67, 100
2, 21840, Note_on_c, 0, 67, 80
2, 21884, Note_off_c, 0, 62, 100
2, 21884, Note_off_c, 0, 59, 100
2, 21884, Note_off_c, 0, 53, 100
2, 21884, Note_off_c, 0, 67, 100
2, 21888, Note_on_c, 0, 61, 80
2, 21888, Note_on_c, 0, 55, 80
2, 21888, Note_on_c, 0, 52, 80
2, 22268, Note_off_c, 0, 61, 100
2, 22268, Note_off_c, 0, 55, 100
2, 22268, Note_off_c, 0, 52, 100
2, 22464, Note_on_c, 0, 61, 110
2, 22464, Note_on_c, 0, 55, 110
2, 22464, Note_on_c, 0, 52, 110
2, 22556, Note_off_c, 0, 61, 100
2, 22556, Note_off_c, 0, 55, 100
2, 22556, Note_off_c, 0, 52, 100
2, 22656, Note_on_c, 0, 62, 110
2, 22656, Note_on_c, 0, 57, 110
2, 22656, Note_on_c, 0, 53, 110
2, 22748, Note_off_c, 0, 62, 100
2, 22748, Note_off_c, 0, 57, 100
2, 22748, Note_off_c, 0, 53, 100
2, 22848, Note_on_c, 0, 64, 110
2, 22848, Note_on_c, 0, 57, 110
2, 22848, Note_on_c, 0, 52, 110
2, 22940, Note_off_c, 0, 64, 100
2, 22940, Note_off_c, 0, 57, 100
2, 22940, Note_off_c, 0, 52, 100
2, 23616, Note_on_c, 0, 64, 110
2, 23616, Note_on_c, 0, 57, 110
2, 23616, Note_on_c, 0, 52, 110
2, 23708, Note_off_c, 0, 64, 100
2, 23708, Note_off_c, 0, 57, 100
2, 23708, Note_off_c, 0, 52, 100
2, 23808, Note_on_c, 0, 65, 110
2, 23808, Note_on_c, 0, 62, 110
2, 23808, Note_on_c, 0, 57, 110
2, 23808, Note_on_c, 0, 53, 110
2, 23900, Note_off_c, 0, 65, 100
2, 23900, Note_off_c, 0, 62, 100
2, 23900, Note_off_c, 0, 57, 100
2, 23900, Note_off_c, 0, 53, 100
2, 24000, Note_on_c, 0, 67, 110
2, 24000, Note_on_c, 0, 64, 110
2, 24000, Note_on_c, 0, 60, 110
2, 24000, Note_on_c, 0, 55, 110
2, 24092, Note_off_c, 0, 67, 100
2, 24092, Note_off_c, 0, 64, 100
2, 24092, Note_off_c, 0, 60, 100
2, 24092, Note_off_c, 0, 55, 100
2, 24768, Note_on_c, 0, 67, 80
2, 24768, Note_on_c, 0, 64, 80
2, 24768, Note_on_c, 0, 60, 80
2, 24768, Note_on_c, 0, 55, 80
2, 24956, Note_off_c, 0, 67, 100
2, 24956, Note_off_c, 0, 64, 100
2, 24956, Note_off_c, 0, 60, 100
2, 24956, Note_off_c, 0, 55, 100
2, 24960, Note_on_c, 0, 69, 81
2, 24960, Note_on_c, 0, 65, 81
2, 24960, Note_on_c, 0, 60, 81
2, 24960, Note_on_c, 0, 57, 81
2, 25148, Note_off_c, 0, 69, 100
2, 25148, Note_off_c, 0, 65, 100
2, 25148, Note_off_c, 0, 60, 100
2, 25148, Note_off_c, 0, 57, 100
2, 25152, Note_on_c, 0, 67, 83
2, 25152, Note_on_c, 0, 64, 83
2, 25152, Note_on_c, 0, 60, 83
2, 25340, Note_off_c, 0, 67, 100
2, 25340, Note_off_c, 0, 64, 100
2, 25340, Note_off_c, 0, 60, 100
2, 25344, Note_on_c, 0, 66, 84
2, 25344, Note_on_c, 0, 62, 84
2, 25344, Note_on_c, 0, 60, 84
2, 25724, Note_off_c, 0, 66, 100
2, 25724, Note_off_c, 0, 62, 100
2, 25724, Note_off_c, 0, 60, 100
2, 25728, Note_on_c, 0, 67, 87
2, 25728, Note_on_c, 0, 64, 87
2, 25728, Note_on_c, 0, 60, 87
2, 26060, Note_off_c, 0, 67, 100
2, 26064, Note_on_c, 0, 67, 90
2, 26108, Note_off_c, 0, 64, 100
2, 26108, Note_off_c, 0, 60, 100
2, 26108, Note_off_c, 0, 67, 100
2, 26112, Note_on_c, 0, 62, 91
2, 26112, Note_on_c, 0, 59, 91
2, 26112, Note_on_c, 0, 53, 91
2, 26112, Note_on_c, 0, 67, 91
2, 26444, Note_off_c, 0, 67, 100
2, 26448, Note_on_c, 0, 67, 93
2, 26492, Note_off_c, 0, 62, 100
2, 26492, Note_off_c, 0, 59, 100
2, 26492, Note_off_c, 0, 53, 100
2, 26492, Note_off_c, 0, 67, 100
2, 26496, Note_on_c, 0, 55, 94
2, 26496, Note_on_c, 0, 52, 94
2, 26496, Note_on_c, 0, 60, 94
2, 26780, Note_off_c, 0, 60, 100
2, 26784, Note_on_c, 0, 60, 96
2, 26876, Note_off_c, 0, 55, 100
2, 26876, Note_off_c, 0, 52, 100
2, 26876, Note_off_c, 0, 60, 100
2, 26880, Note_on_c, 0, 59, 97
2, 26972, Note_off_c, 0, 59, 100
2, 26976, Note_on_c, 0, 60, 98
2, 27068, Note_off_c, 0, 60, 100
2, 27072, Note_on_c, 0, 59, 99
2, 27164, Note_off_c, 0, 59, 100
2, 27168, Note_on_c, 0, 60, 99
2, 27260, Note_off_c, 0, 60, 100
2, 27264, Note_on_c, 0, 63, 100
2, 27356, Note_off_c, 0, 63, 100
2, 27360, Note_on_c, 0, 61, 94
2, 27452, Note_off_c, 0, 61, 100
2, 27456, Note_on_c, 0, 60, 87
2, 27548, Note_off_c, 0, 60, 100
2, 27552, Note_on_c, 0, 58, 81
2, 27644, Note_off_c, 0, 58, 100
2, 27648, Note_on_c, 0, 63, 80
2, 27648, Note_on_c, 0, 60, 80
2, 27648, Note_on_c, 0, 56, 80
2, 27648, Note_on_c, 0, 51, 80
2, 28220, Note_off_c, 0, 63, 100
2, 28220, Note_off_c, 0, 60, 100
2, 28220, Note_off_c, 0, 56, 100
2, 28220, Note_off_c, 0, 51, 100
2, 28224, Note_on_c, 0, 63, 80
2, 28224, Note_on_c, 0, 60, 80
2, 28224, Note_on_c, 0, 56, 80
2, 28224, Note_on_c, 0, 51, 80
2, 28412, Note_off_c, 0, 63, 100
2, 28412, Note_off_c, 0, 60, 100
2, 28412, Note_off_c, 0, 56, 100
2, 28412, Note_off_c, 0, 51, 100
2, 28416, Note_on_c, 0, 63, 80
2, 28416, Note_on_c, 0, 60, 80
2, 28416, Note_on_c, 0, 56, 80
2, 28416, Note_on_c, 0, 51, 80
2, 28604, Note_off_c, 0, 63, 100
2, 28604, Note_off_c, 0, 60, 100
2, 28604, Note_off_c, 0, 56, 100
2, 28604, Note_off_c, 0, 51, 100
2, 28608, Note_on_c, 0, 68, 80
2, 28608, Note_on_c, 0, 63, 80
2, 28608, Note_on_c, 0, 60, 80
2, 28608, Note_on_c, 0, 56, 80
2, 28796, Note_off_c, 0, 68, 100
2, 28796, Note_off_c, 0, 63, 100
2, 28796, Note_off_c, 0, 60, 100
2, 28796, Note_off_c, 0, 56, 100
2, 28800, Note_on_c, 0, 68, 80
2, 28800, Note_on_c, 0, 56, 80
2, 28800, Note_on_c, 0, 63, 80
2, 28800, Note_on_c, 0, 61, 80
2, 29180, Note_off_c, 0, 68, 100
2, 29180, Note_off_c, 0, 56, 100
2, 29184, Note_on_c, 0, 67, 80
2, 29184, Note_on_c, 0, 55, 80
2, 29564, Note_off_c, 0, 63, 100
2, 29564, Note_off_c, 0, 61, 100
2, 29564, Note_off_c, 0, 67, 100
2, 29564, Note_off_c, 0, 55, 100
2, 29568, Note_on_c, 0, 69, 80
2, 29568, Note_on_c, 0, 66, 80
2, 29568, Note_on_c, 0, 63, 80
2, 29568, Note_on_c, 0, 57, 80
2, 29900, Note_off_c, 0, 69, 100
2, 29900, Note_off_c, 0, 66, 100
2, 29900, Note_off_c, 0, 63, 100
2, 29900, Note_off_c, 0, 57, 100
2, 29904, Note_on_c, 0, 69, 80
2, 29904, Note_on_c, 0, 66, 80
2, 29904, Note_on_c, 0, 63, 80
2, 29904, Note_on_c, 0, 57, 80
2, 29948, Note_off_c, 0, 69, 100
2, 29948, Note_off_c, 0, 66, 100
2, 29948, Note_off_c, 0, 63, 100
2, 29948, Note_off_c, 0, 57, 100
2, 29952, Note_on_c, 0, 65, 94
2, 29952, Note_on_c, 0, 69, 95
2, 29952, Note_on_c, 0, 57, 95
2, 30284, Note_off_c, 0, 69, 100
2, 30284, Note_off_c, 0, 57, 100
2, 30336, Note_on_c, 0, 70, 80
2, 30336, Note_on_c, 0, 58, 80
2, 30668, Note_off_c, 0, 65, 100
2, 30668, Note_off_c, 0, 70, 100
2, 30668, Note_off_c, 0, 58, 100
2, 30672, Note_on_c, 0, 70, 80
2, 30672, Note_on_c, 0, 58, 80
2, 30716, Note_off_c, 0, 70, 100
2, 30716, Note_off_c, 0, 58, 100
2, 30720, Note_on_c, 0, 73, 80
2, 30720, Note_on_c, 0, 63, 80
2, 30720, Note_on_c, 0, 61, 80
2, 31052, Note_off_c, 0, 73, 100
2, 31052, Note_off_c, 0, 63, 100
2, 31052, Note_off_c, 0, 61, 100
2, 31056, Note_on_c, 0, 67, 80
2, 31056, Note_on_c, 0, 63, 80
2, 31056, Note_on_c, 0, 61, 80
2, 31100, Note_off_c, 0, 67, 100
2, 31100, Note_off_c, 0, 63, 100
2, 31100, Note_off_c, 0, 61, 100
2, 31104, Note_on_c, 0, 70, 80
2, 31104, Note_on_c, 0, 63, 80
2, 31104, Note_on_c, 0, 61, 80
2, 31484, Note_off_c, 0, 70, 100
2, 31484, Note_off_c, 0, 61, 100
2, 31488, Note_on_c, 0, 68, 80
2, 31488, Note_on_c, 0, 60, 80
2, 31676, Note_off_c, 0, 63, 100
2, 31676, Note_off_c, 0, 68, 100
2, 31676, Note_off_c, 0, 60, 100
2, 32256, Note_on_c, 0, 72, 80
2, 32256, Note_on_c, 0, 67, 80
2, 32256, Note_on_c, 0, 64, 80
2, 32256, Note_on_c, 0, 60, 80
2, 32828, Note_off_c, 0, 72, 100
2, 32828, Note_off_c, 0, 67, 100
2, 32828, Note_off_c, 0, 64, 100
2, 32828, Note_off_c, 0, 60, 100
2, 32832, Note_on_c, 0, 72, 80
2, 32832, Note_on_c, 0, 67, 80
2, 32832, Note_on_c, 0, 64, 80
2, 32832, Note_on_c, 0, 60, 80
2, 33020, Note_off_c, 0, 72, 100
2, 33020, Note_off_c, 0, 67, 100
2, 33020, Note_off_c, 0, 64, 100
2, 33020, Note_off_c, 0, 60, 100
2, 33024, Note_on_c, 0, 72, 80
2, 33024, Note_on_c, 0, 67, 80
2, 33024, Note_on_c, 0, 64, 80
2, 33024, Note_on_c, 0, 60, 80
2, 33212, Note_off_c, 0, 72, 100
2, 33212, Note_off_c, 0, 67, 100
2, 33212, Note_off_c, 0, 64, 100
2, 33212, Note_off_c, 0, 60, 100
2, 33216, Note_on_c, 0, 72, 80
2, 33216, Note_on_c, 0, 67, 80
2, 33216, Note_on_c, 0, 64, 80
2, 33216, Note_on_c, 0, 60, 80
2, 33404, Note_off_c, 0, 72, 100
2, 33404, Note_off_c, 0, 67, 100
2, 33404, Note_off_c, 0, 64, 100
2, 33404, Note_off_c, 0, 60, 100
2, 33408, Note_on_c, 0, 76, 98
2, 33408, Note_on_c, 0, 73, 97
2, 33408, Note_on_c, 0, 67, 93
2, 33408, Note_on_c, 0, 64, 97
2, 33788, Note_off_c, 0, 76, 100
2, 33788, Note_off_c, 0, 73, 100
2, 33788, Note_off_c, 0, 67, 100
2, 33788, Note_off_c, 0, 64, 100
2, 33792, Note_on_c, 0, 77, 80
2, 33792, Note_on_c, 0, 72, 80
2, 33792, Note_on_c, 0, 68, 80
2, 33792, Note_on_c, 0, 65, 80
2, 33980, Note_off_c, 0, 77, 100
2, 33980, Note_off_c, 0, 72, 100
2, 33980, Note_off_c, 0, 68, 100
2, 33980, Note_off_c, 0, 65, 100
2, 34512, Note_on_c, 0, 65, 80
2, 34512, Note_on_c, 0, 53, 80
2, 34556, Note_off_c, 0, 65, 100
2, 34556, Note_off_c, 0, 53, 100
2, 34560, Note_on_c, 0, 67, 110
2, 34560, Note_on_c, 0, 65, 110
2, 34560, Note_on_c, 0, 55, 110
2, 34896, Note_on_c, 0, 67, 110
2, 34896, Note_on_c, 0, 65, 110
2, 34896, Note_on_c, 0, 55, 110
2, 34940, Note_off_c, 0, 67, 100
2, 34940, Note_off_c, 0, 65, 100
2, 34940, Note_off_c, 0, 55, 100
2, 34940, Note_off_c, 0, 67, 100
2, 34940, Note_off_c, 0, 65, 100
2, 34940, Note_off_c, 0, 55, 100
2, 34944, Note_on_c, 0, 68, 110
2, 34944, Note_on_c, 0, 65, 110
2, 34944, Note_on_c, 0, 60, 110
2, 34944, Note_on_c, 0, 56, 110
2, 35280, Note_on_c, 0, 68, 110
2, 35280, Note_on_c, 0, 65, 110
2, 35280, Note_on_c, 0, 60, 110
2, 35280, Note_on_c, 0, 56, 110
2, 35324, Note_off_c, 0, 68, 100
2, 35324, Note_off_c, 0, 65, 100
2, 35324, Note_off_c, 0, 60, 100
2, 35324, Note_off_c, 0, 56, 100
2, 35324, Note_off_c, 0, 68, 100
2, 35324, Note_off_c, 0, 65, 100
2, 35324, Note_off_c, 0, 60, 100
2, 35324, Note_off_c, 0, 56, 100
2, 35328, Note_on_c, 0, 70, 110
2, 35328, Note_on_c, 0, 64, 110
2, 35328, Note_on_c, 0, 60, 110
2, 35328, Note_on_c, 0, 58, 110
2, 35664, Note_on_c, 0, 67, 110
2, 35664, Note_on_c, 0, 64, 110
2, 35664, Note_on_c, 0, 60, 110
2, 35664, Note_on_c, 0, 58, 110
2, 35708, Note_off_c, 0, 70, 100
2, 35708, Note_off_c, 0, 64, 100
2, 35708, Note_off_c, 0, 60, 100
2, 35708, Note_off_c, 0, 58, 100
2, 35708, Note_off_c, 0, 67, 100
2, 35708, Note_off_c, 0, 64, 100
2, 35708, Note_off_c, 0, 60, 100
2, 35708, Note_off_c, 0, 58, 100
2, 35712, Note_on_c, 0, 65, 110
2, 35712, Note_on_c, 0, 60, 110
2, 35712, Note_on_c, 0, 56, 110
2, 36092, Note_off_c, 0, 65, 100
2, 36092, Note_off_c, 0, 60, 100
2, 36092, Note_off_c, 0, 56, 100
2, 36864, Note_on_c, 0, 68, 70
2, 36864, Note_on_c, 0, 65, 70
2, 36864, Note_on_c, 0, 61, 70
2, 36864, Note_on_c, 0, 56, 70
2, 37436, Note_off_c, 0, 68, 100
2, 37436, Note_off_c, 0, 65, 100
2, 37436, Note_off_c, 0, 61, 100
2, 37436, Note_off_c, 0, 56, 100
2, 37440, Note_on_c, 0, 68, 79
2, 37440, Note_on_c, 0, 65, 79
2, 37440, Note_on_c, 0, 61, 79
2, 37440, Note_on_c, 0, 56, 79
2, 37628, Note_off_c, 0, 68, 100
2, 37628, Note_off_c, 0, 65, 100
2, 37628, Note_off_c, 0, 61, 100
2, 37628, Note_off_c, 0, 56, 100
2, 37632, Note_on_c, 0, 68, 82
2, 37632, Note_on_c, 0, 65, 82
2, 37632, Note_on_c, 0, 61, 82
2, 37632, Note_on_c, 0, 56, 82
2, 37820, Note_off_c, 0, 68, 100
2, 37820, Note_off_c, 0, 65, 100
2, 37820, Note_off_c, 0, 61, 100
2, 37820, Note_off_c, 0, 56, 100
2, 37824, Note_on_c, 0, 73, 85
2, 37824, Note_on_c, 0, 68, 85
2, 37824, Note_on_c, 0, 65, 85
2, 37824, Note_on_c, 0, 61, 85
2, 38012, Note_off_c, 0, 73, 100
2, 38012, Note_off_c, 0, 68, 100
2, 38012, Note_off_c, 0, 65, 100
2, 38012, Note_off_c, 0, 61, 100
2, 38016, Note_on_c, 0, 68, 88
2, 38016, Note_on_c, 0, 66, 88
2, 38016, Note_on_c, 0, 73, 88
2, 38016, Note_on_c, 0, 61, 88
2, 38396, Note_off_c, 0, 73, 100
2, 38396, Note_off_c, 0, 61, 100
2, 38400, Note_on_c, 0, 72, 95
2, 38400, Note_on_c, 0, 60, 95
2, 38780, Note_off_c, 0, 68, 100
2, 38780, Note_off_c, 0, 66, 100
2, 38780, Note_off_c, 0, 72, 100
2, 38780, Note_off_c, 0, 60, 100
2, 38784, Note_on_c, 0, 74, 100
2, 38784, Note_on_c, 0, 71, 100
2, 38784, Note_on_c, 0, 68, 100
2, 38784, Note_on_c, 0, 62, 100
2, 39116, Note_off_c, 0, 74, 100
2, 39116, Note_off_c, 0, 71, 100
2, 39116, Note_off_c, 0, 68, 100
2, 39116, Note_off_c, 0, 62, 100
2, 39120, Note_on_c, 0, 74, 100
2, 39120, Note_on_c, 0, 71, 100
2, 39120, Note_on_c, 0, 68, 100
2, 39120, Note_on_c, 0, 62, 100
2, 39164, Note_off_c, 0, 74, 100
2, 39164, Note_off_c, 0, 71, 100
2, 39164, Note_off_c, 0, 68, 100
2, 39164, Note_off_c, 0, 62, 100
2, 39168, Note_on_c, 0, 70, 100
2, 39168, Note_on_c, 0, 74, 100
2, 39168, Note_on_c, 0, 62, 100
2, 39548, Note_off_c, 0, 74, 100
2, 39548, Note_off_c, 0, 62, 100
2, 39552, Note_on_c, 0, 75, 103
2, 39552, Note_on_c, 0, 63, 103
2, 39932, Note_off_c, 0, 70, 100
2, 39932, Note_off_c, 0, 75, 100
2, 39932, Note_off_c, 0, 63, 100
2, 39936, Note_on_c, 0, 76, 106
2, 39936, Note_on_c, 0, 73, 106
2, 39936, Note_on_c, 0, 70, 106
2, 39936, Note_on_c, 0, 64, 106
2, 40268, Note_off_c, 0, 76, 100
2, 40268, Note_off_c, 0, 73, 100
2, 40268, Note_off_c, 0, 70, 100
2, 40268, Note_off_c, 0, 64, 100
2, 40272, Note_on_c, 0, 76, 109
2, 40272, Note_on_c, 0, 73, 109
2, 40272, Note_on_c, 0, 70, 109
2, 40272, Note_on_c, 0, 64, 109
2, 40316, Note_off_c, 0, 76, 100
2, 40316, Note_off_c, 0, 73, 100
2, 40316, Note_off_c, 0, 70, 100
2, 40316, Note_off_c, 0, 64, 100
2, 40320, Note_on_c, 0, 72, 110
2, 40320, Note_on_c, 0, 76, 110
2, 40320, Note_on_c, 0, 64, 110
2, 40508, Note_off_c, 0, 76, 100
2, 40508, Note_off_c, 0, 64, 100
2, 40512, Note_on_c, 0, 77, 111
2, 40512, Note_on_c, 0, 65, 111
2, 40892, Note_off_c, 0, 72, 100
2, 40892, Note_off_c, 0, 77, 100
2, 40892, Note_off_c, 0, 65, 100
2, 40896, Note_on_c, 0, 75, 110
2, 40896, Note_on_c, 0, 66, 110
2, 40896, Note_on_c, 0, 63, 110
2, 41084, Note_off_c, 0, 75, 100
2, 41084, Note_off_c, 0, 66, 100
2, 41084, Note_off_c, 0, 63, 100
2, 41088, Note_on_c, 0, 74, 110
2, 41088, Note_on_c, 0, 66, 110
2, 41088, Note_on_c, 0, 62, 110
2, 41276, Note_off_c, 0, 74, 100
2, 41276, Note_off_c, 0, 66, 100
2, 41276, Note_off_c, 0, 62, 100
2, 41280, Note_on_c, 0, 72, 110
2, 41280, Note_on_c, 0, 66, 110
2, 41280, Note_on_c, 0, 60, 110
2, 41468, Note_off_c, 0, 72, 100
2, 41468, Note_off_c, 0, 66, 100
2, 41468, Note_off_c, 0, 60, 100
2, 41472, Note_on_c, 0, 67, 110
2, 41472, Note_on_c, 0, 55, 110
2, 42236, Note_off_c, 0, 67, 100
2, 42236, Note_off_c, 0, 55, 100
2, 42240, Note_on_c, 0, 67, 110
2, 42240, Note_on_c, 0, 55, 110
2, 42524, Note_off_c, 0, 67, 100
2, 42524, Note_off_c, 0, 55, 100
2, 42528, Note_on_c, 0, 67, 110
2, 42528, Note_on_c, 0, 55, 110
2, 42620, Note_off_c, 0, 67, 100
2, 42620, Note_off_c, 0, 55, 100
2, 42624, Note_on_c, 0, 66, 110
2, 42624, Note_on_c, 0, 54, 110
2, 43004, Note_off_c, 0, 66, 100
2, 43004, Note_off_c, 0, 54, 100
2, 43008, Note_on_c, 0, 84, 80
2, 43056, Note_on_c, 0, 86, 80
2, 43100, Note_off_c, 0, 84, 100
2, 43104, Note_on_c, 0, 87, 80
2, 43148, Note_off_c, 0, 86, 100
2, 43196, Note_off_c, 0, 87, 100
2, 43392, Note_on_c, 0, 84, 80
2, 43440, Note_on_c, 0, 86, 80
2, 43484, Note_off_c, 0, 84, 100
2, 43488, Note_on_c, 0, 87, 80
2, 43532, Note_off_c, 0, 86, 100
2, 43580, Note_off_c, 0, 87, 100
2, 43776, Note_on_c, 0, 67, 70
2, 43776, Note_on_c, 0, 55, 70
2, 44540, Note_off_c, 0, 67, 100
2, 44540, Note_off_c, 0, 55, 100
2, 44544, Note_on_c, 0, 68, 100
2, 44544, Note_on_c, 0, 56, 100
2, 44828, Note_off_c, 0, 68, 100
2, 44828, Note_off_c, 0, 56, 100
2, 44832, Note_on_c, 0, 67, 70
2, 44832, Note_on_c, 0, 55, 70
2, 44924, Note_off_c, 0, 67, 100
2, 44924, Note_off_c, 0, 55, 100
2, 44928, Note_on_c, 0, 66, 70
2, 44928, Note_on_c, 0, 54, 70
2, 45308, Note_off_c, 0, 66, 100
2, 45308, Note_off_c, 0, 54, 100
2, 45312, Note_on_c, 0, 84, 70
2, 45360, Note_on_c, 0, 86, 70
2, 45404, Note_off_c, 0, 84, 100
2, 45408, Note_on_c, 0, 87, 70
2, 45452, Note_off_c, 0, 86, 100
2, 45500, Note_off_c, 0, 87, 100
2, 45696, Note_on_c, 0, 84, 70
2, 45744, Note_on_c, 0, 86, 70
2, 45788, Note_off_c, 0, 84, 100
2, 45792, Note_on_c, 0, 87, 70
2, 45836, Note_off_c, 0, 86, 100
2, 45884, Note_off_c, 0, 87, 100
2, 46464, Note_on_c, 0, 84, 70
2, 46512, Note_on_c, 0, 86, 70
2, 46556, Note_off_c, 0, 84, 100
2, 46560, Note_on_c, 0, 87, 70
2, 46604, Note_off_c, 0, 86, 100
2, 46840, Note_off_c, 0, 87, 100
2, 46848, Note_on_c, 0, 84, 70
2, 46896, Note_on_c, 0, 86, 70
2, 46940, Note_off_c, 0, 84, 100
2, 46944, Note_on_c, 0, 87, 70
2, 46988, Note_off_c, 0, 86, 100
2, 47224, Note_off_c, 0, 87, 100
2, 47232, Note_on_c, 0, 74, 70
2, 47232, Note_on_c, 0, 86, 70
2, 47612, Note_off_c, 0, 74, 100
2, 47612, Note_off_c, 0, 86, 100
2, 47616, Note_on_c, 0, 75, 70
2, 47616, Note_on_c, 0, 87, 70
2, 47804, Note_off_c, 0, 75, 100
2, 47804, Note_off_c, 0, 87, 100
2, 48384, Note_on_c, 0, 75, 70
2, 48384, Note_on_c, 0, 89, 70
2, 48668, Note_off_c, 0, 89, 100
2, 48672, Note_on_c, 0, 84, 70
2, 48764, Note_off_c, 0, 75, 100
2, 48764, Note_off_c, 0, 84, 100
2, 48768, Note_on_c, 0, 74, 70
2, 48768, Note_on_c, 0, 86, 70
2, 48956, Note_off_c, 0, 74, 100
2, 48956, Note_off_c, 0, 86, 100
2, 49536, Note_on_c, 0, 79, 70
2, 49536, Note_on_c, 0, 91, 70
2, 49820, Note_off_c, 0, 91, 100
2, 49824, Note_on_c, 0, 86, 70
2, 49916, Note_off_c, 0, 79, 100
2, 49916, Note_off_c, 0, 86, 100
2, 49920, Note_on_c, 0, 79, 70
2, 49920, Note_on_c, 0, 87, 70
2, 50108, Note_off_c, 0, 79, 100
2, 50108, Note_off_c, 0, 87, 100
2, 51072, Note_on_c, 0, 79, 90
2, 51072, Note_on_c, 0, 91, 90
2, 51404, Note_off_c, 0, 79, 100
2, 51404, Note_off_c, 0, 91, 100
2, 51408, Note_on_c, 0, 86, 80
2, 51408, Note_on_c, 0, 74, 80
2, 51452, Note_off_c, 0, 86, 100
2, 51452, Note_off_c, 0, 74, 100
2, 51456, Note_on_c, 0, 75, 90
2, 51456, Note_on_c, 0, 87, 90
2, 51788, Note_off_c, 0, 75, 100
2, 51788, Note_off_c, 0, 87, 100
2, 51792, Note_on_c, 0, 71, 80
2, 51792, Note_on_c, 0, 83, 80
2, 51836, Note_off_c, 0, 71, 100
2, 51836, Note_off_c, 0, 83, 100
2, 51840, Note_on_c, 0, 84, 90
2, 51840, Note_on_c, 0, 72, 90
2, 52172, Note_off_c, 0, 84, 100
2, 52172, Note_off_c, 0, 72, 100
2, 52176, Note_on_c, 0, 79, 80
2, 52176, Note_on_c, 0, 67, 80
2, 52220, Note_off_c, 0, 79, 100
2, 52220, Note_off_c, 0, 67, 100
2, 52224, Note_on_c, 0, 68, 90
2, 52224, Note_on_c, 0, 80, 90
2, 52556, Note_off_c, 0, 68, 100
2, 52556, Note_off_c, 0, 80, 100
2, 52560, Note_on_c, 0, 80, 80
2, 52560, Note_on_c, 0, 68, 80
2, 52604, Note_off_c, 0, 80, 100
2, 52604, Note_off_c, 0, 68, 100
2, 52608, Note_on_c, 0, 68, 90
2, 52608, Note_on_c, 0, 80, 90
2, 52940, Note_off_c, 0, 68, 100
2, 52940, Note_off_c, 0, 80, 100
2, 52944, Note_on_c, 0, 80, 80
2, 52944, Note_on_c, 0, 68, 80
2, 52988, Note_off_c, 0, 80, 100
2, 52988, Note_off_c, 0, 68, 100
2, 52992, Note_on_c, 0, 68, 90
2, 52992, Note_on_c, 0, 80, 90
2, 53180, Note_off_c, 0, 68, 100
2, 53276, Note_off_c, 0, 80, 100
2, 53280, Note_on_c, 0, 77, 80
2, 53372, Note_off_c, 0, 77, 100
2, 53376, Note_on_c, 0, 74, 80
2, 53468, Note_off_c, 0, 74, 100
2, 53568, Note_on_c, 0, 71, 80
2, 53660, Note_off_c, 0, 71, 100
2, 53760, Note_on_c, 0, 68, 80
2, 53852, Note_off_c, 0, 68, 100
2, 53952, Note_on_c, 0, 65, 80
2, 54044, Note_off_c, 0, 65, 100
2, 54144, Note_on_c, 0, 62, 80
2, 54236, Note_off_c, 0, 62, 100
2, 54336, Note_on_c, 0, 59, 80
2, 54428, Note_off_c, 0, 59, 100
2, 54528, Note_on_c, 0, 56, 80
2, 54620, Note_off_c, 0, 56, 100
2, 55488, Note_on_c, 0, 53, 80
2, 55676, Note_off_c, 0, 53, 100
2, 55680, Note_on_c, 0, 50, 80
2, 55868, Note_off_c, 0, 50, 100
2, 55872, Note_on_c, 0, 47, 80
2, 56060, Note_off_c, 0, 47, 100
2, 56064, Note_on_c, 0, 44, 80
2, 56252, Note_off_c, 0, 44, 100
2, 56256, Note_on_c, 0, 43, 80
2, 56444, Note_off_c, 0, 43, 100
2, 56640, Note_on_c, 0, 69, 70
2, 56640, Note_on_c, 0, 62, 70
2, 56640, Note_on_c, 0, 60, 70
2, 56828, Note_off_c, 0, 69, 100
2, 56828, Note_off_c, 0, 62, 100
2, 56828, Note_off_c, 0, 60, 100
2, 57024, Note_on_c, 0, 67, 70
2, 57024, Note_on_c, 0, 62, 70
2, 57024, Note_on_c, 0, 60, 70
2, 57212, Note_off_c, 0, 67, 100
2, 57212, Note_off_c, 0, 62, 100
2, 57212, Note_off_c, 0, 60, 100
2, 57408, Note_on_c, 0, 65, 70
2, 57408, Note_on_c, 0, 62, 70
2, 57408, Note_on_c, 0, 59, 70
2, 57596, Note_off_c, 0, 65, 100
2, 57596, Note_off_c, 0, 62, 100
2, 57596, Note_off_c, 0, 59, 100
2, 57600, Note_on_c, 0, 64, 70
2, 57600, Note_on_c, 0, 60, 70
2, 57600, Note_on_c, 0, 55, 70
2, 57980, Note_off_c, 0, 64, 100
2, 57980, Note_off_c, 0, 60, 100
2, 57980, Note_off_c, 0, 55, 100
2, 57984, Note_on_c, 0, 65, 70
2, 57984, Note_on_c, 0, 62, 70
2, 57984, Note_on_c, 0, 55, 70
2, 58172, Note_off_c, 0, 65, 100
2, 58172, Note_off_c, 0, 62, 100
2, 58172, Note_off_c, 0, 55, 100
2, 58752, Note_on_c, 0, 67, 70
2, 58752, Note_on_c, 0, 55, 70
2, 59036, Note_off_c, 0, 67, 100
2, 59040, Note_on_c, 0, 62, 70
2, 59132, Note_off_c, 0, 55, 100
2, 59132, Note_off_c, 0, 62, 100
2, 59136, Note_on_c, 0, 64, 70
2, 59136, Note_on_c, 0, 55, 70
2, 59324, Note_off_c, 0, 64, 100
2, 59324, Note_off_c, 0, 55, 100
2, 59904, Note_on_c, 0, 64, 70
2, 59904, Note_on_c, 0, 60, 70
2, 59904, Note_on_c, 0, 55, 70
2, 59904, Note_on_c, 0, 52, 70
2, 60284, Note_off_c, 0, 64, 100
2, 60284, Note_off_c, 0, 60, 100
2, 60284, Note_off_c, 0, 55, 100
2, 60284, Note_off_c, 0, 52, 100
2, 60288, Note_on_c, 0, 62, 70
2, 60288, Note_on_c, 0, 57, 70
2, 60288, Note_on_c, 0, 50, 70
2, 60476, Note_off_c, 0, 62, 100
2, 60476, Note_off_c, 0, 57, 100
2, 60476, Note_off_c, 0, 50, 100
2, 61056, Note_on_c, 0, 62, 70
2, 61056, Note_on_c, 0, 50, 70
2, 61340, Note_off_c, 0, 62, 100
2, 61344, Note_on_c, 0, 57, 71
2, 61436, Note_off_c, 0, 50, 100
2, 61436, Note_off_c, 0, 57, 100
2, 61440, Note_on_c, 0, 55, 72
2, 61440, Note_on_c, 0, 50, 72
2, 61440, Note_on_c, 0, 60, 72
2, 62012, Note_off_c, 0, 60, 100
2, 62016, Note_on_c, 0, 59, 76
2, 62204, Note_off_c, 0, 55, 100
2, 62204, Note_off_c, 0, 50, 100
2, 62204, Note_off_c, 0, 59, 100
2, 62208, Note_on_c, 0, 60, 77
2, 62208, Note_on_c, 0, 55, 77
2, 62208, Note_on_c, 0, 52, 77
2, 62588, Note_off_c, 0, 60, 100
2, 62588, Note_off_c, 0, 55, 100
2, 62588, Note_off_c, 0, 52, 100
2, 62592, Note_on_c, 0, 62, 79
2, 62592, Note_on_c, 0, 59, 79
2, 62592, Note_on_c, 0, 55, 79
2, 62592, Note_on_c, 0, 53, 79
2, 62972, Note_off_c, 0, 62, 100
2, 62972, Note_off_c, 0, 59, 100
2, 62972, Note_off_c, 0, 55, 100
2, 62972, Note_off_c, 0, 53, 100
2, 62976, Note_on_c, 0, 64, 82
2, 62976, Note_on_c, 0, 60, 82
2, 62976, Note_on_c, 0, 55, 82
2, 63356, Note_off_c, 0, 64, 100
2, 63356, Note_off_c, 0, 60, 100
2, 63356, Note_off_c, 0, 55, 100
2, 63360, Note_on_c, 0, 64, 84
2, 63360, Note_on_c, 0, 55, 84
2, 63360, Note_on_c, 0, 57, 84
2, 63740, Note_off_c, 0, 64, 100
2, 63740, Note_off_c, 0, 55, 100
2, 63744, Note_on_c, 0, 62, 87
2, 63744, Note_on_c, 0, 53, 87
2, 64124, Note_off_c, 0, 57, 100
2, 64124, Note_off_c, 0, 62, 100
2, 64124, Note_off_c, 0, 53, 100
2, 64128, Note_on_c, 0, 60, 89
2, 64128, Note_on_c, 0, 57, 89
2, 64128, Note_on_c, 0, 52, 89
2, 64508, Note_off_c, 0, 60, 100
2, 64508, Note_off_c, 0, 57, 100
2, 64508, Note_off_c, 0, 52, 100
2, 64512, Note_on_c, 0, 59, 90
2, 64512, Note_on_c, 0, 50, 90
2, 64512, Note_on_c, 0, 57, 90
2, 64704, Note_on_c, 0, 56, 89
2, 64892, Note_off_c, 0, 57, 100
2, 65084, Note_off_c, 0, 56, 100
2, 65088, Note_on_c, 0, 55, 87
2, 65276, Note_off_c, 0, 55, 100
2, 65280, Note_on_c, 0, 54, 86
2, 65280, Note_on_c, 0, 59, 86
2, 65468, Note_off_c, 0, 59, 100
2, 65468, Note_off_c, 0, 50, 100
2, 65468, Note_off_c, 0, 54, 100
2, 65468, Note_off_c, 0, 59, 100
2, 65472, Note_on_c, 0, 59, 84
2, 65472, Note_on_c, 0, 53, 84
2, 65472, Note_on_c, 0, 50, 84
2, 65660, Note_off_c, 0, 59, 100
2, 65660, Note_off_c, 0, 53, 100
2, 65660, Note_off_c, 0, 50, 100
2, 65664, Note_on_c, 0, 62, 83
2, 65664, Note_on_c, 0, 59, 83
2, 65664, Note_on_c, 0, 53, 83
2, 66044, Note_off_c, 0, 62, 100
2, 66044, Note_off_c, 0, 59, 100
2, 66044, Note_off_c, 0, 53, 100
2, 66048, Note_on_c, 0, 60, 81
2, 66048, Note_on_c, 0, 52, 81
2, 66236, Note_off_c, 0, 60, 100
2, 66236, Note_off_c, 0, 52, 100
2, 66720, Note_on_c, 0, 60, 100
2, 66812, Note_off_c, 0, 60, 100
2, 66816, Note_on_c, 0, 67, 100
2, 67100, Note_off_c, 0, 67, 100
2, 67104, Note_on_c, 0, 66, 100
2, 67196, Note_off_c, 0, 66, 100
2, 67200, Note_on_c, 0, 74, 100
2, 67200, Note_on_c, 0, 66, 100
2, 67200, Note_on_c, 0, 60, 100
2, 67580, Note_off_c, 0, 74, 100
2, 67580, Note_off_c, 0, 66, 100
2, 67580, Note_off_c, 0, 60, 100
2, 67584, Note_on_c, 0, 74, 100
2, 67584, Note_on_c, 0, 66, 100
2, 67584, Note_on_c, 0, 60, 100
2, 67964, Note_off_c, 0, 74, 100
2, 67964, Note_off_c, 0, 66, 100
2, 67964, Note_off_c, 0, 60, 100
2, 67968, Note_on_c, 0, 74, 100
2, 67968, Note_on_c, 0, 71, 100
2, 67968, Note_on_c, 0, 67, 100
2, 67968, Note_on_c, 0, 62, 100
2, 68156, Note_off_c, 0, 74, 100
2, 68160, Note_on_c, 0, 76, 100
2, 68208, Note_on_c, 0, 74, 100
2, 68252, Note_off_c, 0, 76, 100
2, 68256, Note_on_c, 0, 73, 100
2, 68300, Note_off_c, 0, 74, 100
2, 68304, Note_on_c, 0, 74, 100
2, 68348, Note_off_c, 0, 71, 100
2, 68348, Note_off_c, 0, 67, 100
2, 68348, Note_off_c, 0, 62, 100
2, 68348, Note_off_c, 0, 73, 100
2, 68352, Note_on_c, 0, 79, 109
2, 68396, Note_off_c, 0, 74, 100
2, 68636, Note_off_c, 0, 79, 100
2, 68640, Note_on_c, 0, 73, 100
2, 68732, Note_off_c, 0, 73, 100
2, 68736, Note_on_c, 0, 76, 100
2, 68796, Note_off_c, 0, 76, 100
2, 68800, Note_on_c, 0, 74, 100
2, 68860, Note_off_c, 0, 74, 100
2, 68864, Note_on_c, 0, 70, 100
2, 68924, Note_off_c, 0, 70, 100
2, 68928, Note_on_c, 0, 72, 100
2, 68988, Note_off_c, 0, 72, 100
2, 68992, Note_on_c, 0, 71, 100
2, 69052, Note_off_c, 0, 71, 100
2, 69056, Note_on_c, 0, 67, 100
2, 69116, Note_off_c, 0, 67, 100
2, 69120, Note_on_c, 0, 66, 100
2, 69152, Note_on_c, 0, 67, 100
2, 69168, Note_off_c, 0, 66, 100
2, 69184, Note_on_c, 0, 69, 100
2, 69200, Note_off_c, 0, 67, 100
2, 69216, Note_on_c, 0, 67, 100
2, 69232, Note_off_c, 0, 69, 100
2, 69404, Note_off_c, 0, 67, 100
2, 69408, Note_on_c, 0, 66, 100
2, 69500, Note_off_c, 0, 66, 100
2, 69504, Note_on_c, 0, 74, 100
2, 69504, Note_on_c, 0, 66, 100
2, 69504, Note_on_c, 0, 60, 100
2, 69884, Note_off_c, 0, 74, 100
2, 69884, Note_off_c, 0, 66, 100
2, 69884, Note_off_c, 0, 60, 100
2, 69888, Note_on_c, 0, 74, 100
2, 69888, Note_on_c, 0, 66, 100
2, 69888, Note_on_c, 0, 60, 100
2, 70268, Note_off_c, 0, 74, 100
2, 70268, Note_off_c, 0, 66, 100
2, 70268, Note_off_c, 0, 60, 100
2, 70272, Note_on_c, 0, 74, 100
2, 70272, Note_on_c, 0, 71, 100
2, 70272, Note_on_c, 0, 67, 100
2, 70272, Note_on_c, 0, 62, 100
2, 70460, Note_off_c, 0, 74, 100
2, 70464, Note_on_c, 0, 76, 100
2, 70512, Note_on_c, 0, 74, 100
2, 70556, Note_off_c, 0, 76, 100
2, 70560, Note_on_c, 0, 73, 100
2, 70604, Note_off_c, 0, 74, 100
2, 70608, Note_on_c, 0, 74, 100
2, 70652, Note_off_c, 0, 71, 100
2, 70652, Note_off_c, 0, 67, 100
2, 70652, Note_off_c, 0, 62, 100
2, 70652, Note_off_c, 0, 73, 100
2, 70656, Note_on_c, 0, 83, 110
2, 70700, Note_off_c, 0, 74, 100
2, 70940, Note_off_c, 0, 83, 100
2, 70944, Note_on_c, 0, 78, 100
2, 71036, Note_off_c, 0, 78, 100
2, 71040, Note_on_c, 0, 81, 100
2, 71104, Note_on_c, 0, 79, 100
2, 71128, Note_off_c, 0, 81, 100
2, 71168, Note_on_c, 0, 73, 100
2, 71192, Note_off_c, 0, 79, 100
2, 71232, Note_on_c, 0, 76, 100
2, 71252, Note_off_c, 0, 73, 100
2, 71264, Note_on_c, 0, 74, 100
2, 71280, Note_off_c, 0, 76, 100
2, 71296, Note_on_c, 0, 70, 100
2, 71316, Note_off_c, 0, 74, 100
2, 71328, Note_on_c, 0, 72, 100
2, 71332, Note_off_c, 0, 70, 100
2, 71360, Note_on_c, 0, 71, 100
2, 71372, Note_off_c, 0, 72, 100
2, 71392, Note_on_c, 0, 67, 100
2, 71400, Note_off_c, 0, 71, 100
2, 71420, Note_off_c, 0, 67, 100
2, 71424, Note_on_c, 0, 66, 100
2, 71456, Note_on_c, 0, 67, 100
2, 71468, Note_off_c, 0, 66, 100
2, 71488, Note_on_c, 0, 69, 100
2, 71504, Note_off_c, 0, 67, 100
2, 71520, Note_on_c, 0, 67, 100
2, 71536, Note_off_c, 0, 69, 100
2, 71708, Note_off_c, 0, 67, 100
2, 71712, Note_on_c, 0, 66, 100
2, 71804, Note_off_c, 0, 66, 100
2, 71808, Note_on_c, 0, 74, 100
2, 71808, Note_on_c, 0, 66, 100
2, 71808, Note_on_c, 0, 60, 100
2, 71996, Note_off_c, 0, 74, 100
2, 72000, Note_on_c, 0, 74, 100
2, 72188, Note_off_c, 0, 66, 100
2, 72188, Note_off_c, 0, 60, 100
2, 72192, Note_on_c, 0, 65, 100
2, 72192, Note_on_c, 0, 60, 100
2, 72380, Note_off_c, 0, 74, 100
2, 72384, Note_on_c, 0, 74, 100
2, 72572, Note_off_c, 0, 65, 100
2, 72572, Note_off_c, 0, 60, 100
2, 72720, Note_on_c, 0, 74, 100
2, 72744, Note_on_c, 0, 76, 100
2, 72764, Note_off_c, 0, 74, 100
2, 72764, Note_off_c, 0, 74, 100
2, 72768, Note_on_c, 0, 77, 100
2, 72788, Note_off_c, 0, 76, 100
2, 73052, Note_off_c, 0, 77, 100
2, 73104, Note_on_c, 0, 77, 80
2, 73128, Note_on_c, 0, 76, 80
2, 73148, Note_off_c, 0, 77, 100
2, 73152, Note_on_c, 0, 74, 80
2, 73172, Note_off_c, 0, 76, 100
2, 73244, Note_off_c, 0, 74, 100
2, 73296, Note_on_c, 0, 74, 80
2, 73320, Note_on_c, 0, 72, 80
2, 73340, Note_off_c, 0, 74, 100
2, 73344, Note_on_c, 0, 71, 80
2, 73364, Note_off_c, 0, 72, 100
2, 73436, Note_off_c, 0, 71, 100
2, 73488, Note_on_c, 0, 71, 80
2, 73512, Note_on_c, 0, 69, 80
2, 73532, Note_off_c, 0, 71, 100
2, 73536, Note_on_c, 0, 67, 80
2, 73556, Note_off_c, 0, 69, 100
2, 73628, Note_off_c, 0, 67, 100
2, 73680, Note_on_c, 0, 67, 80
2, 73704, Note_on_c, 0, 65, 80
2, 73724, Note_off_c, 0, 67, 100
2, 73724, Note_off_c, 0, 65, 100
2, 73728, Note_on_c, 0, 64, 80
2, 73728, Note_on_c, 0, 55, 80
2, 74108, Note_off_c, 0, 64, 100
2, 74108, Note_off_c, 0, 55, 100
2, 74112, Note_on_c, 0, 65, 80
2, 74112, Note_on_c, 0, 55, 80
2, 74300, Note_off_c, 0, 65, 100
2, 74300, Note_off_c, 0, 55, 100
2, 74400, Note_on_c, 0, 79, 100
2, 74492, Note_off_c, 0, 79, 100
2, 74496, Note_on_c, 0, 78, 100
2, 74588, Note_off_c, 0, 78, 100
2, 74592, Note_on_c, 0, 79, 100
2, 74684, Note_off_c, 0, 79, 100
2, 74688, Note_on_c, 0, 81, 100
2, 74780, Note_off_c, 0, 81, 100
2, 74784, Note_on_c, 0, 79, 100
2, 74876, Note_off_c, 0, 79, 100
2, 74880, Note_on_c, 0, 55, 80
2, 74880, Note_on_c, 0, 67, 80
2, 75164, Note_off_c, 0, 67, 100
2, 75168, Note_on_c, 0, 62, 80
2, 75260, Note_off_c, 0, 55, 100
2, 75260, Note_off_c, 0, 62, 100
2, 75264, Note_on_c, 0, 64, 80
2, 75264, Note_on_c, 0, 55, 80
2, 75452, Note_off_c, 0, 64, 100
2, 75452, Note_off_c, 0, 55, 100
2, 75552, Note_on_c, 0, 79, 100
2, 75552, Note_on_c, 0, 67, 100
2, 75644, Note_off_c, 0, 79, 100
2, 75644, Note_off_c, 0, 67, 100
2, 75648, Note_on_c, 0, 78, 100
2, 75648, Note_on_c, 0, 66, 100
2, 75740, Note_off_c, 0, 78, 100
2, 75740, Note_off_c, 0, 66, 100
2, 75744, Note_on_c, 0, 79, 100
2, 75744, Note_on_c, 0, 67, 100
2, 75836, Note_off_c, 0, 79, 100
2, 75836, Note_off_c, 0, 67, 100
2, 75840, Note_on_c, 0, 81, 100
2, 75840, Note_on_c, 0, 69, 100
2, 75932, Note_off_c, 0, 81, 100
2, 75932, Note_off_c, 0, 69, 100
2, 75936, Note_on_c, 0, 79, 100
2, 75936, Note_on_c, 0, 67, 100
2, 76028, Note_off_c, 0, 79, 100
2, 76028, Note_off_c, 0, 67, 100
2, 76032, Note_on_c, 0, 69, 100
2, 76032, Note_on_c, 0, 57, 100
2, 76316, Note_off_c, 0, 69, 100
2, 76320, Note_on_c, 0, 64, 100
2, 76412, Note_off_c, 0, 57, 100
2, 76412, Note_off_c, 0, 64, 100
2, 76416, Note_on_c, 0, 65, 100
2, 76700, Note_off_c, 0, 65, 100
2, 76704, Note_on_c, 0, 70, 100
2, 76748, Note_off_c, 0, 70, 100
2, 76752, Note_on_c, 0, 69, 100
2, 76796, Note_off_c, 0, 69, 100
2, 76800, Note_on_c, 0, 67, 100
2, 77084, Note_off_c, 0, 67, 100
2, 77088, Note_on_c, 0, 72, 100
2, 77132, Note_off_c, 0, 72, 100
2, 77136, Note_on_c, 0, 70, 100
2, 77180, Note_off_c, 0, 70, 100
2, 77184, Note_on_c, 0, 69, 100
2, 77468, Note_off_c, 0, 69, 100
2, 77472, Note_on_c, 0, 74, 100
2, 77516, Note_off_c, 0, 74, 100
2, 77520, Note_on_c, 0, 72, 100
2, 77564, Note_off_c, 0, 72, 100
2, 77568, Note_on_c, 0, 71, 100
2, 77756, Note_off_c, 0, 71, 100
2, 77760, Note_on_c, 0, 77, 100
2, 77760, Note_on_c, 0, 65, 100
2, 78140, Note_off_c, 0, 77, 100
2, 78140, Note_off_c, 0, 65, 100
2, 78144, Note_on_c, 0, 76, 100
2, 78144, Note_on_c, 0, 64, 100
2, 78332, Note_off_c, 0, 76, 100
2, 78332, Note_off_c, 0, 64, 100
2, 78336, Note_on_c, 0, 62, 100
2, 78336, Note_on_c, 0, 60, 100
2, 78672, Note_on_c, 0, 69, 100
2, 78716, Note_off_c, 0, 62, 100
2, 78716, Note_off_c, 0, 60, 100
2, 78716, Note_off_c, 0, 69, 100
2, 78720, Note_on_c, 0, 64, 100
2, 78720, Note_on_c, 0, 60, 100
2, 78720, Note_on_c, 0, 67, 100
2, 79052, Note_off_c, 0, 67, 100
2, 79056, Note_on_c, 0, 67, 100
2, 79100, Note_off_c, 0, 64, 100
2, 79100, Note_off_c, 0, 60, 100
2, 79100, Note_off_c, 0, 67, 100
2, 79104, Note_on_c, 0, 62, 100
2, 79104, Note_on_c, 0, 59, 100
2, 79104, Note_on_c, 0, 53, 100
2, 79104, Note_on_c, 0, 67, 100
2, 79436, Note_off_c, 0, 67, 100
2, 79440, Note_on_c, 0, 67, 100
2, 79484, Note_off_c, 0, 62, 100
2, 79484, Note_off_c, 0, 59, 100
2, 79484, Note_off_c, 0, 53, 100
2, 79484, Note_off_c, 0, 67, 100
2, 79488, Note_on_c, 0, 61, 100
2, 79488, Note_on_c, 0, 55, 100
2, 79488, Note_on_c, 0, 52, 100
2, 79868, Note_off_c, 0, 61, 100
2, 79868, Note_off_c, 0, 55, 100
2, 79868, Note_off_c, 0, 52, 100
2, 80064, Note_on_c, 0, 61, 110
2, 80064, Note_on_c, 0, 55, 110
2, 80064, Note_on_c, 0, 52, 110
2, 80156, Note_off_c, 0, 61, 100
2, 80156, Note_off_c, 0, 55, 100
2, 80156, Note_off_c, 0, 52, 100
2, 80256, Note_on_c, 0, 62, 110
2, 80256, Note_on_c, 0, 57, 110
2, 80256, Note_on_c, 0, 53, 110
2, 80348, Note_off_c, 0, 62, 100
2, 80348, Note_off_c, 0, 57, 100
2, 80348, Note_off_c, 0, 53, 100
2, 80448, Note_on_c, 0, 64, 110
2, 80448, Note_on_c, 0, 57, 110
2, 80448, Note_on_c, 0, 52, 110
2, 80540, Note_off_c, 0, 64, 100
2, 80540, Note_off_c, 0, 57, 100
2, 80540, Note_off_c, 0, 52, 100
2, 81216, Note_on_c, 0, 64, 110
2, 81216, Note_on_c, 0, 57, 110
2, 81216, Note_on_c, 0, 52, 110
2, 81308, Note_off_c, 0, 64, 100
2, 81308, Note_off_c, 0, 57, 100
2, 81308, Note_off_c, 0, 52, 100
2, 81408, Note_on_c, 0, 65, 110
2, 81408, Note_on_c, 0, 62, 110
2, 81408, Note_on_c, 0, 57, 110
2, 81408, Note_on_c, 0, 53, 110
2, 81500, Note_off_c, 0, 65, 100
2, 81500, Note_off_c, 0, 62, 100
2, 81500, Note_off_c, 0, 57, 100
2, 81500, Note_off_c, 0, 53, 100
2, 81600, Note_on_c, 0, 67, 110
2, 81600, Note_on_c, 0, 64, 110
2, 81600, Note_on_c, 0, 60, 110
2, 81600, Note_on_c, 0, 55, 110
2, 81692, Note_off_c, 0, 67, 100
2, 81692, Note_off_c, 0, 64, 100
2, 81692, Note_off_c, 0, 60, 100
2, 81692, Note_off_c, 0, 55, 100
2, 82368, Note_on_c, 0, 67, 70
2, 82368, Note_on_c, 0, 64, 70
2, 82368, Note_on_c, 0, 60, 70
2, 82368, Note_on_c, 0, 55, 70
2, 82556, Note_off_c, 0, 67, 100
2, 82556, Note_off_c, 0, 64, 100
2, 82556, Note_off_c, 0, 60, 100
2, 82556, Note_off_c, 0, 55, 100
2, 82560, Note_on_c, 0, 69, 77
2, 82560, Note_on_c, 0, 65, 77
2, 82560, Note_on_c, 0, 60, 77
2, 82560, Note_on_c, 0, 57, 77
2, 82748, Note_off_c, 0, 69, 100
2, 82748, Note_off_c, 0, 65, 100
2, 82748, Note_off_c, 0, 60, 100
2, 82748, Note_off_c, 0, 57, 100
2, 82752, Note_on_c, 0, 67, 84
2, 82752, Note_on_c, 0, 64, 84
2, 82752, Note_on_c, 0, 60, 84
2, 82940, Note_off_c, 0, 67, 100
2, 82940, Note_off_c, 0, 64, 100
2, 82940, Note_off_c, 0, 60, 100
2, 82944, Note_on_c, 0, 66, 92
2, 82944, Note_on_c, 0, 60, 92
2, 83132, Note_off_c, 0, 66, 100
2, 83132, Note_off_c, 0, 60, 100
2, 83136, Note_on_c, 0, 60, 99
2, 83136, Note_on_c, 0, 66, 99
2, 83136, Note_on_c, 0, 74, 99
2, 83324, Note_off_c, 0, 60, 100
2, 83324, Note_off_c, 0, 66, 100
2, 83324, Note_off_c, 0, 74, 100
2, 83328, Note_on_c, 0, 60, 100
2, 83352, Note_on_c, 0, 67, 100
2, 83372, Note_off_c, 0, 60, 100
2, 83376, Note_on_c, 0, 76, 100
2, 83396, Note_off_c, 0, 67, 100
2, 83516, Note_off_c, 0, 76, 100
2, 83520, Note_on_c, 0, 77, 100
2, 83568, Note_on_c, 0, 76, 100
2, 83612, Note_off_c, 0, 77, 100
2, 83616, Note_on_c, 0, 74, 100
2, 83660, Note_off_c, 0, 76, 100
2, 83664, Note_on_c, 0, 76, 100
2, 83708, Note_off_c, 0, 74, 100
2, 83712, Note_on_c, 0, 79, 100
2, 83756, Note_off_c, 0, 76, 100
2, 83804, Note_off_c, 0, 79, 100
2, 83808, Note_on_c, 0, 77, 100
2, 83900, Note_off_c, 0, 77, 100
2, 83904, Note_on_c, 0, 74, 100
2, 83996, Note_off_c, 0, 74, 100
2, 84000, Note_on_c, 0, 71, 91
2, 84092, Note_off_c, 0, 71, 100
2, 84096, Note_on_c, 0, 72, 80
2, 84188, Note_off_c, 0, 72, 100
2, 84192, Note_on_c, 0, 67, 81
2, 84284, Note_off_c, 0, 67, 100
2, 84288, Note_on_c, 0, 79, 83
2, 84380, Note_off_c, 0, 79, 100
2, 84384, Note_on_c, 0, 79, 85
2, 84476, Note_off_c, 0, 79, 100
2, 84576, Note_on_c, 0, 67, 89
2, 84668, Note_off_c, 0, 67, 100
2, 84672, Note_on_c, 0, 79, 90
2, 84764, Note_off_c, 0, 79, 100
2, 84768, Note_on_c, 0, 79, 92
2, 84860, Note_off_c, 0, 79, 100
2, 84960, Note_on_c, 0, 67, 96
2, 85052, Note_off_c, 0, 67, 100
2, 85056, Note_on_c, 0, 79, 98
2, 85148, Note_off_c, 0, 79, 100
2, 85152, Note_on_c, 0, 79, 99
2, 85244, Note_off_c, 0, 79, 100
2, 85344, Note_on_c, 0, 67, 110
2, 85436, Note_off_c, 0, 67, 100
2, 85440, Note_on_c, 0, 79, 110
2, 85532, Note_off_c, 0, 79, 100
2, 85536, Note_on_c, 0, 79, 110
2, 85628, Note_off_c, 0, 79, 100
2, 85728, Note_on_c, 0, 67, 110
2, 85820, Note_off_c, 0, 67, 100
2, 85824, Note_on_c, 0, 79, 110
2, 85916, Note_off_c, 0, 79, 100
2, 85920, Note_on_c, 0, 79, 110
2, 86012, Note_off_c, 0, 79, 100
2, 86112, Note_on_c, 0, 67, 110
2, 86112, Note_on_c, 0, 69, 110
2, 86204, Note_off_c, 0, 67, 100
2, 86204, Note_off_c, 0, 69, 100
2, 86208, Note_on_c, 0, 79, 110
2, 86208, Note_on_c, 0, 81, 110
2, 86300, Note_off_c, 0, 79, 100
2, 86300, Note_off_c, 0, 81, 100
2, 86304, Note_on_c, 0, 79, 110
2, 86304, Note_on_c, 0, 81, 110
2, 86396, Note_off_c, 0, 79, 100
2, 86396, Note_off_c, 0, 81, 100
2, 86496, Note_on_c, 0, 69, 110
2, 86588, Note_off_c, 0, 69, 100
2, 86592, Note_on_c, 0, 81, 111
2, 86684, Note_off_c, 0, 81, 100
2, 86688, Note_on_c, 0, 81, 111
2, 86780, Note_off_c, 0, 81, 100
2, 86880, Note_on_c, 0, 69, 113
2, 86976, Note_on_c, 0, 81, 113
2, 87068, Note_off_c, 0, 69, 100
2, 87068, Note_off_c, 0, 81, 100
2, 87072, Note_on_c, 0, 82, 114
2, 87072, Note_on_c, 0, 70, 114
2, 87164, Note_off_c, 0, 82, 100
2, 87164, Note_off_c, 0, 70, 100
2, 87264, Note_on_c, 0, 72, 115
2, 87356, Note_off_c, 0, 72, 100
2, 87360, Note_on_c, 0, 84, 116
2, 87360, Note_on_c, 0, 82, 116
2, 87452, Note_off_c, 0, 84, 100
2, 87452, Note_off_c, 0, 82, 100
2, 87456, Note_on_c, 0, 82, 116
2, 87456, Note_on_c, 0, 84, 116
2, 87548, Note_off_c, 0, 82, 100
2, 87548, Note_off_c, 0, 84, 100
2, 87648, Note_on_c, 0, 72, 118
2, 87740, Note_off_c, 0, 72, 100
2, 87744, Note_on_c, 0, 84, 118
2, 87836, Note_off_c, 0, 84, 100
2, 87840, Note_on_c, 0, 84, 119
2, 87932, Note_off_c, 0, 84, 100
2, 88032, Note_on_c, 0, 72, 120
2, 88032, Note_on_c, 0, 74, 120
2, 88124, Note_off_c, 0, 72, 100
2, 88124, Note_off_c, 0, 74, 100
2, 88128, Note_on_c, 0, 84, 120
2, 88128, Note_on_c, 0, 86, 120
2, 88220, Note_off_c, 0, 84, 100
2, 88220, Note_off_c, 0, 86, 100
2, 88224, Note_on_c, 0, 84, 120
2, 88224, Note_on_c, 0, 86, 120
2, 88316, Note_off_c, 0, 84, 100
2, 88316, Note_off_c, 0, 86, 100
2, 88416, Note_on_c, 0, 72, 120
2, 88416, Note_on_c, 0, 74, 120
2, 88508, Note_off_c, 0, 72, 100
2, 88508, Note_off_c, 0, 74, 100
2, 88512, Note_on_c, 0, 84, 120
2, 88512, Note_on_c, 0, 86, 120
2, 88604, Note_off_c, 0, 84, 100
2, 88604, Note_off_c, 0, 86, 100
2, 88608, Note_on_c, 0, 84, 120
2, 88608, Note_on_c, 0, 86, 120
2, 88700, Note_off_c, 0, 84, 100
2, 88700, Note_off_c, 0, 86, 100
2, 88704, Note_on_c, 0, 83, 120
2, 88704, Note_on_c, 0, 86, 120
2, 88892, Note_off_c, 0, 83, 100
2, 88892, Note_off_c, 0, 86, 100
2, 88896, Note_on_c, 0, 67, 80
2, 89084, Note_off_c, 0, 67, 100
2, 89088, Note_on_c, 0, 67, 80
2, 89276, Note_off_c, 0, 67, 100
2, 89280, Note_on_c, 0, 67, 80
2, 89468, Note_off_c, 0, 67, 100
2, 89472, Note_on_c, 0, 67, 80
2, 89660, Note_off_c, 0, 67, 100
2, 89664, Note_on_c, 0, 67, 80
2, 89852, Note_off_c, 0, 67, 100
2, 89856, Note_on_c, 0, 67, 80
2, 89856, Note_on_c, 0, 71, 80
2, 90044, Note_off_c, 0, 67, 100
2, 90048, Note_on_c, 0, 67, 80
2, 90140, Note_off_c, 0, 71, 100
2, 90144, Note_on_c, 0, 74, 80
2, 90236, Note_off_c, 0, 67, 100
2, 90236, Note_off_c, 0, 74, 100
2, 90240, Note_on_c, 0, 67, 80
2, 90240, Note_on_c, 0, 72, 80
2, 90428, Note_off_c, 0, 67, 100
2, 90428, Note_off_c, 0, 72, 100
2, 90432, Note_on_c, 0, 67, 80
2, 90620, Note_off_c, 0, 67, 100
2, 90624, Note_on_c, 0, 67, 80
2, 90812, Note_off_c, 0, 67, 100
2, 90816, Note_on_c, 0, 67, 80
2, 91004, Note_off_c, 0, 67, 100
2, 91008, Note_on_c, 0, 67, 80
2, 91008, Note_on_c, 0, 77, 80
2, 91196, Note_off_c, 0, 67, 100
2, 91200, Note_on_c, 0, 67, 80
2, 91292, Note_off_c, 0, 77, 100
2, 91296, Note_on_c, 0, 74, 80
2, 91388, Note_off_c, 0, 67, 100
2, 91388, Note_off_c, 0, 74, 100
2, 91392, Note_on_c, 0, 67, 80
2, 91392, Note_on_c, 0, 76, 80
2, 91580, Note_off_c, 0, 67, 100
2, 91580, Note_off_c, 0, 76, 100
2, 92160, Note_on_c, 0, 71, 80
2, 92160, Note_on_c, 0, 83, 80
2, 92444, Note_off_c, 0, 71, 100
2, 92444, Note_off_c, 0, 83, 100
2, 92448, Note_on_c, 0, 74, 80
2, 92448, Note_on_c, 0, 86, 80
2, 92540, Note_off_c, 0, 74, 100
2, 92540, Note_off_c, 0, 86, 100
2, 92544, Note_on_c, 0, 72, 80
2, 92544, Note_on_c, 0, 84, 80
2, 92732, Note_off_c, 0, 72, 100
2, 92732, Note_off_c, 0, 84, 100
2, 93312, Note_on_c, 0, 77, 80
2, 93312, Note_on_c, 0, 89, 80
2, 93596, Note_off_c, 0, 77, 100
2, 93596, Note_off_c, 0, 89, 100
2, 93600, Note_on_c, 0, 86, 80
2, 93600, Note_on_c, 0, 74, 80
2, 93692, Note_off_c, 0, 86, 100
2, 93692, Note_off_c, 0, 74, 100
2, 93696, Note_on_c, 0, 76, 80
2, 93696, Note_on_c, 0, 88, 80
2, 93884, Note_off_c, 0, 76, 100
2, 93884, Note_off_c, 0, 88, 100
2, 93888, Note_on_c, 0, 72, 80
2, 93888, Note_on_c, 0, 84, 80
2, 94076, Note_off_c, 0, 72, 100
2, 94076, Note_off_c, 0, 84, 100
2, 94272, Note_on_c, 0, 69, 70
2, 94272, Note_on_c, 0, 81, 70
2, 94460, Note_off_c, 0, 69, 100
2, 94460, Note_off_c, 0, 81, 100
2, 94656, Note_on_c, 0, 80, 70
2, 94656, Note_on_c, 0, 68, 70
2, 94844, Note_off_c, 0, 80, 100
2, 94844, Note_off_c, 0, 68, 100
2, 95040, Note_on_c, 0, 79, 70
2, 95040, Note_on_c, 0, 67, 70
2, 95228, Note_off_c, 0, 79, 100
2, 95228, Note_off_c, 0, 67, 100
2, 95424, Note_on_c, 0, 71, 70
2, 95424, Note_on_c, 0, 65, 70
2, 95424, Note_on_c, 0, 62, 70
2, 95612, Note_off_c, 0, 71, 100
2, 95612, Note_off_c, 0, 65, 100
2, 95612, Note_off_c, 0, 62, 100
2, 95616, Note_on_c, 0, 64, 70
2, 95616, Note_on_c, 0, 72, 70
2, 95804, Note_off_c, 0, 64, 100
2, 95804, Note_off_c, 0, 72, 100
2, 95808, Note_on_c, 0, 88, 70
2, 96000, Note_on_c, 0, 79, 70
2, 96188, Note_off_c, 0, 88, 100
2, 96188, Note_off_c, 0, 79, 100
2, 96192, Note_on_c, 0, 76, 70
2, 96192, Note_on_c, 0, 86, 70
2, 96284, Note_off_c, 0, 86, 100
2, 96288, Note_on_c, 0, 84, 70
2, 96380, Note_off_c, 0, 76, 100
2, 96380, Note_off_c, 0, 84, 100
2, 96384, Note_on_c, 0, 77, 70
2, 96384, Note_on_c, 0, 84, 70
2, 96476, Note_off_c, 0, 84, 100
2, 96480, Note_on_c, 0, 83, 70
2, 96572, Note_off_c, 0, 77, 100
2, 96572, Note_off_c, 0, 83, 100
2, 96576, Note_on_c, 0, 74, 70
2, 96576, Note_on_c, 0, 81, 70
2, 96668, Note_off_c, 0, 81, 100
2, 96672, Note_on_c, 0, 83, 70
2, 96764, Note_off_c, 0, 74, 100
2, 96764, Note_off_c, 0, 83, 100
2, 96768, Note_on_c, 0, 84, 70
2, 96860, Note_off_c, 0, 84, 100
2, 96864, Note_on_c, 0, 86, 70
2, 96888, Note_on_c, 0, 84, 70
2, 96908, Note_off_c, 0, 86, 100
2, 96912, Note_on_c, 0, 83, 70
2, 96932, Note_off_c, 0, 84, 100
2, 96936, Note_on_c, 0, 84, 70
2, 96956, Note_off_c, 0, 83, 100
2, 96960, Note_on_c, 0, 88, 70
2, 96980, Note_off_c, 0, 84, 100
2, 97152, Note_on_c, 0, 79, 70
2, 97340, Note_off_c, 0, 88, 100
2, 97340, Note_off_c, 0, 79, 100
2, 97344, Note_on_c, 0, 76, 70
2, 97344, Note_on_c, 0, 86, 70
2, 97436, Note_off_c, 0, 86, 100
2, 97440, Note_on_c, 0, 84, 70
2, 97532, Note_off_c, 0, 76, 100
2, 97532, Note_off_c, 0, 84, 100
2, 97536, Note_on_c, 0, 77, 70
2, 97536, Note_on_c, 0, 84, 70
2, 97628, Note_off_c, 0, 84, 100
2, 97632, Note_on_c, 0, 83, 70
2, 97724, Note_off_c, 0, 77, 100
2, 97724, Note_off_c, 0, 83, 100
2, 97728, Note_on_c, 0, 74, 70
2, 97728, Note_on_c, 0, 81, 70
2, 97820, Note_off_c, 0, 81, 100
2, 97824, Note_on_c, 0, 83, 70
2, 97916, Note_off_c, 0, 74, 100
2, 97916, Note_off_c, 0, 83, 100
2, 97920, Note_on_c, 0, 86, 70
2, 97920, Note_on_c, 0, 74, 70
2, 98300, Note_off_c, 0, 86, 100
2, 98300, Note_off_c, 0, 74, 100
2, 98304, Note_on_c, 0, 72, 70
2, 98304, Note_on_c, 0, 84, 70
2, 98492, Note_off_c, 0, 72, 100
2, 98492, Note_off_c, 0, 84, 100
2, 99072, Note_on_c, 0, 64, 70
2, 99072, Note_on_c, 0, 61, 70
2, 99072, Note_on_c, 0, 55, 70
2, 99452, Note_off_c, 0, 64, 100
2, 99452, Note_off_c, 0, 61, 100
2, 99452, Note_off_c, 0, 55, 100
2, 99456, Note_on_c, 0, 65, 70
2, 99456, Note_on_c, 0, 62, 70
2, 99456, Note_on_c, 0, 53, 70
2, 99644, Note_off_c, 0, 65, 100
2, 99644, Note_off_c, 0, 62, 100
2, 99644, Note_off_c, 0, 53, 100
2, 100224, Note_on_c, 0, 62, 70
2, 100224, Note_on_c, 0, 53, 70
2, 100224, Note_on_c, 0, 67, 70
2, 100508, Note_off_c, 0, 67, 100
2, 100512, Note_on_c, 0, 62, 70
2, 100604, Note_off_c, 0, 62, 100
2, 100604, Note_off_c, 0, 53, 100
2, 100604, Note_off_c, 0, 62, 100
2, 100608, Note_on_c, 0, 64, 70
2, 100608, Note_on_c, 0, 60, 70
2, 100608, Note_on_c, 0, 52, 70
2, 100796, Note_off_c, 0, 64, 100
2, 100796, Note_off_c, 0, 60, 100
2, 100796, Note_off_c, 0, 52, 100
2, 101376, Note_on_c, 0, 57, 100
2, 101376, Note_on_c, 0, 64, 100
2, 101376, Note_on_c, 0, 52, 100
2, 101756, Note_off_c, 0, 64, 100
2, 101756, Note_off_c, 0, 52, 100
2, 101760, Note_on_c, 0, 62, 70
2, 101760, Note_on_c, 0, 50, 70
2, 102240, Note_on_c, 0, 64, 70
2, 102264, Note_on_c, 0, 62, 70
2, 102284, Note_off_c, 0, 64, 100
2, 102288, Note_on_c, 0, 61, 70
2, 102308, Note_off_c, 0, 62, 100
2, 102312, Note_on_c, 0, 62, 70
2, 102332, Note_off_c, 0, 57, 100
2, 102332, Note_off_c, 0, 50, 100
2, 102332, Note_off_c, 0, 62, 100
2, 102332, Note_off_c, 0, 61, 100
2, 102332, Note_off_c, 0, 62, 100
2, 102336, Note_on_c, 0, 62, 70
2, 102380, Note_off_c, 0, 62, 100
2, 102384, Note_on_c, 0, 69, 70
2, 102428, Note_off_c, 0, 69, 100
2, 102432, Note_on_c, 0, 65, 70
2, 102476, Note_off_c, 0, 65, 100
2, 102480, Note_on_c, 0, 62, 70
2, 102524, Note_off_c, 0, 62, 100
2, 102528, Note_on_c, 0, 53, 70
2, 102528, Note_on_c, 0, 50, 70
2, 102528, Note_on_c, 0, 59, 70
2, 102716, Note_off_c, 0, 53, 100
2, 102716, Note_off_c, 0, 50, 100
2, 102716, Note_off_c, 0, 59, 100
2, 102912, Note_on_c, 0, 60, 70
2, 102912, Note_on_c, 0, 52, 70
2, 103292, Note_off_c, 0, 60, 100
2, 103292, Note_off_c, 0, 52, 100
2, 103680, Control_c, 0, 7, 0
2, 103872, Note_on_c, 0, 65, 100
2, 104060, Note_off_c, 0, 65, 100
2, 104060, End_track
3, 0, Start_track
3, 0, Title_t, "Left"
3, 0, Control_c, 1, 0, 0
3, 0, Program_c, 1, 0
3, 0, Control_c, 1, 7, 100
3, 0, Control_c, 1, 10, 54
3, 0, Control_c, 1, 91, 127
3, 0, Key_signature, 0, "major"
3, 0, Note_on_c, 1, 48, 80
3, 0, Note_on_c, 1, 43, 80
3, 0, Note_on_c, 1, 36, 80
3, 380, Note_off_c, 1, 48, 100
3, 380, Note_off_c, 1, 43, 100
3, 380, Note_off_c, 1, 36, 100
3, 384, Note_on_c, 1, 47, 80
3, 384, Note_on_c, 1, 43, 80
3, 384, Note_on_c, 1, 35, 80
3, 572, Note_off_c, 1, 47, 100
3, 572, Note_off_c, 1, 43, 100
3, 572, Note_off_c, 1, 35, 100
3, 1152, Note_on_c, 1, 47, 80
3, 1152, Note_on_c, 1, 43, 80
3, 1152, Note_on_c, 1, 35, 80
3, 1532, Note_off_c, 1, 47, 100
3, 1532, Note_off_c, 1, 43, 100
3, 1532, Note_off_c, 1, 35, 100
3, 1536, Note_on_c, 1, 48, 80
3, 1536, Note_on_c, 1, 43, 80
3, 1536, Note_on_c, 1, 36, 80
3, 1724, Note_off_c, 1, 48, 100
3, 1724, Note_off_c, 1, 43, 100
3, 1724, Note_off_c, 1, 36, 100
3, 2304, Note_on_c, 1, 48, 80
3, 2304, Note_on_c, 1, 36, 80
3, 2684, Note_off_c, 1, 48, 100
3, 2684, Note_off_c, 1, 36, 100
3, 2688, Note_on_c, 1, 42, 80
3, 2688, Note_on_c, 1, 30, 80
3, 2876, Note_off_c, 1, 42, 100
3, 2876, Note_off_c, 1, 30, 100
3, 3456, Note_on_c, 1, 42, 80
3, 3456, Note_on_c, 1, 30, 80
3, 3836, Note_off_c, 1, 42, 100
3, 3836, Note_off_c, 1, 30, 100
3, 3840, Note_on_c, 1, 41, 80
3, 3840, Note_on_c, 1, 29, 80
3, 4604, Note_off_c, 1, 41, 100
3, 4604, Note_off_c, 1, 29, 100
3, 4608, Note_on_c, 1, 40, 80
3, 4988, Note_off_c, 1, 40, 100
3, 4992, Note_on_c, 1, 50, 80
3, 4992, Note_on_c, 1, 38, 80
3, 5372, Note_off_c, 1, 50, 100
3, 5372, Note_off_c, 1, 38, 100
3, 5376, Note_on_c, 1, 48, 80
3, 5376, Note_on_c, 1, 36, 80
3, 5756, Note_off_c, 1, 48, 100
3, 5756, Note_off_c, 1, 36, 100
3, 5760, Note_on_c, 1, 41, 80
3, 5760, Note_on_c, 1, 29, 80
3, 6908, Note_off_c, 1, 41, 100
3, 6908, Note_off_c, 1, 29, 100
3, 6912, Note_on_c, 1, 43, 80
3, 6912, Note_on_c, 1, 31, 80
3, 7676, Note_off_c, 1, 43, 100
3, 7676, Note_off_c, 1, 31, 100
3, 7680, Note_on_c, 1, 43, 80
3, 7680, Note_on_c, 1, 31, 80
3, 8060, Note_off_c, 1, 43, 100
3, 8060, Note_off_c, 1, 31, 100
3, 8064, Note_on_c, 1, 43, 80
3, 8064, Note_on_c, 1, 36, 80
3, 8444, Note_off_c, 1, 43, 100
3, 8448, Note_on_c, 1, 48, 80
3, 8636, Note_off_c, 1, 36, 100
3, 8636, Note_off_c, 1, 48, 100
3, 9600, Note_on_c, 1, 57, 80
3, 9600, Note_on_c, 1, 50, 80
3, 9600, Note_on_c, 1, 45, 80
3, 9980, Note_off_c, 1, 57, 100
3, 9980, Note_off_c, 1, 50, 100
3, 9980, Note_off_c, 1, 45, 100
3, 9984, Note_on_c, 1, 50, 80
3, 9984, Note_on_c, 1, 45, 80
3, 9984, Note_on_c, 1, 57, 80
3, 10364, Note_off_c, 1, 50, 100
3, 10364, Note_off_c, 1, 45, 100
3, 10364, Note_off_c, 1, 57, 100
3, 10368, Note_on_c, 1, 59, 80
3, 10368, Note_on_c, 1, 50, 80
3, 10368, Note_on_c, 1, 43, 80
3, 11132, Note_off_c, 1, 59, 100
3, 11132, Note_off_c, 1, 50, 100
3, 11132, Note_off_c, 1, 43, 100
3, 11904, Note_on_c, 1, 57, 80
3, 11904, Note_on_c, 1, 50, 80
3, 11904, Note_on_c, 1, 45, 80
3, 12284, Note_off_c, 1, 57, 100
3, 12284, Note_off_c, 1, 50, 100
3, 12284, Note_off_c, 1, 45, 100
3, 12288, Note_on_c, 1, 50, 80
3, 12288, Note_on_c, 1, 45, 80
3, 12288, Note_on_c, 1, 57, 80
3, 12668, Note_off_c, 1, 50, 100
3, 12668, Note_off_c, 1, 45, 100
3, 12668, Note_off_c, 1, 57, 100
3, 12672, Note_on_c, 1, 59, 80
3, 12672, Note_on_c, 1, 50, 80
3, 12672, Note_on_c, 1, 43, 80
3, 13436, Note_off_c, 1, 59, 100
3, 13436, Note_off_c, 1, 50, 100
3, 13436, Note_off_c, 1, 43, 100
3, 14208, Note_on_c, 1, 57, 87
3, 14208, Note_on_c, 1, 50, 87
3, 14208, Note_on_c, 1, 45, 87
3, 14588, Note_off_c, 1, 57, 100
3, 14588, Note_off_c, 1, 50, 100
3, 14588, Note_off_c, 1, 45, 100
3, 14592, Note_on_c, 1, 56, 93
3, 14592, Note_on_c, 1, 50, 93
3, 14592, Note_on_c, 1, 44, 93
3, 14972, Note_off_c, 1, 56, 100
3, 14972, Note_off_c, 1, 50, 100
3, 14972, Note_off_c, 1, 44, 100
3, 14976, Note_on_c, 1, 43, 99
3, 15000, Note_on_c, 1, 47, 100
3, 15024, Note_on_c, 1, 50, 100
3, 15048, Note_on_c, 1, 53, 80
3, 15072, Note_on_c, 1, 55, 80
3, 15164, Note_off_c, 1, 43, 100
3, 15164, Note_off_c, 1, 47, 100
3, 15164, Note_off_c, 1, 50, 100
3, 15164, Note_off_c, 1, 53, 100
3, 15164, Note_off_c, 1, 55, 100
3, 15360, Note_on_c, 1, 55, 80
3, 15384, Note_on_c, 1, 59, 80
3, 15408, Note_on_c, 1, 62, 80
3, 15432, Note_on_c, 1, 65, 80
3, 15548, Note_off_c, 1, 55, 100
3, 15548, Note_off_c, 1, 59, 100
3, 15548, Note_off_c, 1, 62, 100
3, 15548, Note_off_c, 1, 65, 100
3, 16128, Note_on_c, 1, 48, 80
3, 16128, Note_on_c, 1, 36, 80
3, 16508, Note_off_c, 1, 48, 100
3, 16508, Note_off_c, 1, 36, 100
3, 16512, Note_on_c, 1, 50, 80
3, 16512, Note_on_c, 1, 35, 80
3, 16700, Note_off_c, 1, 50, 100
3, 16700, Note_off_c, 1, 35, 100
3, 17280, Note_on_c, 1, 47, 80
3, 17280, Note_on_c, 1, 43, 80
3, 17280, Note_on_c, 1, 35, 80
3, 17660, Note_off_c, 1, 47, 100
3, 17660, Note_off_c, 1, 43, 100
3, 17660, Note_off_c, 1, 35, 100
3, 17664, Note_on_c, 1, 48, 80
3, 17664, Note_on_c, 1, 43, 80
3, 17664, Note_on_c, 1, 36, 80
3, 17852, Note_off_c, 1, 48, 100
3, 17852, Note_off_c, 1, 43, 100
3, 17852, Note_off_c, 1, 36, 100
3, 18432, Note_on_c, 1, 49, 80
3, 18432, Note_on_c, 1, 45, 80
3, 18432, Note_on_c, 1, 37, 80
3, 18812, Note_off_c, 1, 49, 100
3, 18812, Note_off_c, 1, 45, 100
3, 18812, Note_off_c, 1, 37, 100
3, 18816, Note_on_c, 1, 50, 80
3, 18816, Note_on_c, 1, 38, 80
3, 19004, Note_off_c, 1, 38, 100
3, 19008, Note_on_c, 1, 53, 80
3, 19008, Note_on_c, 1, 58, 80
3, 19196, Note_off_c, 1, 50, 100
3, 19196, Note_off_c, 1, 53, 100
3, 19200, Note_on_c, 1, 55, 80
3, 19200, Note_on_c, 1, 52, 80
3, 19388, Note_off_c, 1, 58, 100
3, 19392, Note_on_c, 1, 60, 80
3, 19580, Note_off_c, 1, 55, 100
3, 19580, Note_off_c, 1, 52, 100
3, 19584, Note_on_c, 1, 57, 80
3, 19584, Note_on_c, 1, 53, 80
3, 19772, Note_off_c, 1, 60, 100
3, 19772, Note_off_c, 1, 53, 100
3, 19776, Note_on_c, 1, 62, 80
3, 19776, Note_on_c, 1, 54, 80
3, 19964, Note_off_c, 1, 57, 100
3, 19964, Note_off_c, 1, 54, 100
3, 19968, Note_on_c, 1, 55, 80
3, 19968, Note_on_c, 1, 59, 80
3, 20156, Note_off_c, 1, 62, 100
3, 20156, Note_off_c, 1, 55, 100
3, 20156, Note_off_c, 1, 59, 100
3, 20160, Note_on_c, 1, 62, 80
3, 20160, Note_on_c, 1, 59, 80
3, 20160, Note_on_c, 1, 56, 80
3, 20348, Note_off_c, 1, 56, 100
3, 20352, Note_on_c, 1, 57, 80
3, 20540, Note_off_c, 1, 62, 100
3, 20540, Note_off_c, 1, 59, 100
3, 20544, Note_on_c, 1, 60, 80
3, 20732, Note_off_c, 1, 57, 100
3, 20732, Note_off_c, 1, 60, 100
3, 20736, Note_on_c, 1, 54, 80
3, 21116, Note_off_c, 1, 54, 100
3, 21120, Note_on_c, 1, 55, 80
3, 21500, Note_off_c, 1, 55, 100
3, 21504, Note_on_c, 1, 43, 80
3, 21504, Note_on_c, 1, 31, 80
3, 21884, Note_off_c, 1, 43, 100
3, 21884, Note_off_c, 1, 31, 100
3, 21888, Note_on_c, 1, 34, 80
3, 21888, Note_on_c, 1, 46, 80
3, 22268, Note_off_c, 1, 34, 100
3, 22268, Note_off_c, 1, 46, 100
3, 22464, Note_on_c, 1, 45, 110
3, 22464, Note_on_c, 1, 33, 110
3, 22556, Note_off_c, 1, 45, 100
3, 22556, Note_off_c, 1, 33, 100
3, 22656, Note_on_c, 1, 50, 110
3, 22656, Note_on_c, 1, 45, 110
3, 22656, Note_on_c, 1, 38, 110
3, 22748, Note_off_c, 1, 50, 100
3, 22748, Note_off_c, 1, 45, 100
3, 22748, Note_off_c, 1, 38, 100
3, 22848, Note_on_c, 1, 49, 110
3, 22848, Note_on_c, 1, 45, 110
3, 22848, Note_on_c, 1, 37, 110
3, 22940, Note_off_c, 1, 49, 100
3, 22940, Note_off_c, 1, 45, 100
3, 22940, Note_off_c, 1, 37, 100
3, 23616, Note_on_c, 1, 49, 110
3, 23616, Note_on_c, 1, 45, 110
3, 23616, Note_on_c, 1, 37, 110
3, 23708, Note_off_c, 1, 49, 100
3, 23708, Note_off_c, 1, 45, 100
3, 23708, Note_off_c, 1, 37, 100
3, 23808, Note_on_c, 1, 50, 110
3, 23808, Note_on_c, 1, 45, 110
3, 23808, Note_on_c, 1, 38, 110
3, 23900, Note_off_c, 1, 50, 100
3, 23900, Note_off_c, 1, 45, 100
3, 23900, Note_off_c, 1, 38, 100
3, 24000, Note_on_c, 1, 48, 110
3, 24000, Note_on_c, 1, 36, 110
3, 24092, Note_off_c, 1, 48, 100
3, 24092, Note_off_c, 1, 36, 100
3, 24768, Note_on_c, 1, 48, 80
3, 24768, Note_on_c, 1, 36, 80
3, 24956, Note_off_c, 1, 48, 100
3, 24956, Note_off_c, 1, 36, 100
3, 24960, Note_on_c, 1, 53, 81
3, 24960, Note_on_c, 1, 41, 81
3, 24960, Note_on_c, 1, 48, 81
3, 25148, Note_off_c, 1, 53, 100
3, 25148, Note_off_c, 1, 41, 100
3, 25148, Note_off_c, 1, 48, 100
3, 25152, Note_on_c, 1, 55, 83
3, 25152, Note_on_c, 1, 43, 83
3, 25152, Note_on_c, 1, 48, 83
3, 25340, Note_off_c, 1, 55, 100
3, 25340, Note_off_c, 1, 43, 100
3, 25340, Note_off_c, 1, 48, 100
3, 25344, Note_on_c, 1, 57, 84
3, 25344, Note_on_c, 1, 48, 84
3, 25344, Note_on_c, 1, 45, 84
3, 25724, Note_off_c, 1, 57, 100
3, 25724, Note_off_c, 1, 48, 100
3, 25724, Note_off_c, 1, 45, 100
3, 25728, Note_on_c, 1, 55, 87
3, 25728, Note_on_c, 1, 48, 87
3, 25728, Note_on_c, 1, 43, 87
3, 26108, Note_off_c, 1, 55, 100
3, 26108, Note_off_c, 1, 48, 100
3, 26108, Note_off_c, 1, 43, 100
3, 26112, Note_on_c, 1, 43, 91
3, 26112, Note_on_c, 1, 31, 91
3, 26492, Note_off_c, 1, 43, 100
3, 26492, Note_off_c, 1, 31, 100
3, 26496, Note_on_c, 1, 48, 94
3, 26496, Note_on_c, 1, 36, 94
3, 26780, Note_off_c, 1, 48, 100
3, 26780, Note_off_c, 1, 36, 100
3, 26784, Note_on_c, 1, 48, 96
3, 26876, Note_off_c, 1, 48, 100
3, 26880, Note_on_c, 1, 47, 97
3, 26972, Note_off_c, 1, 47, 100
3, 26976, Note_on_c, 1, 48, 98
3, 27068, Note_off_c, 1, 48, 100
3, 27072, Note_on_c, 1, 47, 99
3, 27164, Note_off_c, 1, 47, 100
3, 27168, Note_on_c, 1, 48, 99
3, 27260, Note_off_c, 1, 48, 100
3, 27264, Note_on_c, 1, 51, 100
3, 27356, Note_off_c, 1, 51, 100
3, 27360, Note_on_c, 1, 49, 94
3, 27452, Note_off_c, 1, 49, 100
3, 27456, Note_on_c, 1, 48, 87
3, 27548, Note_off_c, 1, 48, 100
3, 27552, Note_on_c, 1, 46, 81
3, 27644, Note_off_c, 1, 46, 100
3, 27648, Note_on_c, 1, 32, 80
3, 27740, Note_off_c, 1, 32, 100
3, 27744, Note_on_c, 1, 44, 80
3, 27836, Note_off_c, 1, 44, 100
3, 27840, Note_on_c, 1, 48, 80
3, 27932, Note_off_c, 1, 48, 100
3, 27936, Note_on_c, 1, 44, 80
3, 28028, Note_off_c, 1, 44, 100
3, 28032, Note_on_c, 1, 32, 80
3, 28124, Note_off_c, 1, 32, 100
3, 28128, Note_on_c, 1, 44, 80
3, 28220, Note_off_c, 1, 44, 100
3, 28224, Note_on_c, 1, 48, 80
3, 28316, Note_off_c, 1, 48, 100
3, 28320, Note_on_c, 1, 44, 80
3, 28412, Note_off_c, 1, 44, 100
3, 28416, Note_on_c, 1, 32, 80
3, 28508, Note_off_c, 1, 32, 100
3, 28512, Note_on_c, 1, 44, 80
3, 28604, Note_off_c, 1, 44, 100
3, 28608, Note_on_c, 1, 48, 80
3, 28700, Note_off_c, 1, 48, 100
3, 28704, Note_on_c, 1, 44, 80
3, 28796, Note_off_c, 1, 44, 100
3, 28800, Note_on_c, 1, 34, 80
3, 28892, Note_off_c, 1, 34, 100
3, 28896, Note_on_c, 1, 46, 80
3, 28988, Note_off_c, 1, 46, 100
3, 28992, Note_on_c, 1, 49, 80
3, 29084, Note_off_c, 1, 49, 100
3, 29088, Note_on_c, 1, 46, 80
3, 29180, Note_off_c, 1, 46, 100
3, 29184, Note_on_c, 1, 34, 80
3, 29276, Note_off_c, 1, 34, 100
3, 29280, Note_on_c, 1, 46, 80
3, 29372, Note_off_c, 1, 46, 100
3, 29376, Note_on_c, 1, 49, 80
3, 29468, Note_off_c, 1, 49, 100
3, 29472, Note_on_c, 1, 46, 80
3, 29564, Note_off_c, 1, 46, 100
3, 29568, Note_on_c, 1, 36, 80
3, 29660, Note_off_c, 1, 36, 100
3, 29664, Note_on_c, 1, 48, 80
3, 29756, Note_off_c, 1, 48, 100
3, 29760, Note_on_c, 1, 51, 80
3, 29852, Note_off_c, 1, 51, 100
3, 29856, Note_on_c, 1, 48, 80
3, 29948, Note_off_c, 1, 48, 100
3, 29952, Note_on_c, 1, 37, 80
3, 30044, Note_off_c, 1, 37, 100
3, 30048, Note_on_c, 1, 49, 80
3, 30140, Note_off_c, 1, 49, 100
3, 30144, Note_on_c, 1, 53, 80
3, 30236, Note_off_c, 1, 53, 100
3, 30240, Note_on_c, 1, 49, 80
3, 30332, Note_off_c, 1, 49, 100
3, 30336, Note_on_c, 1, 37, 80
3, 30428, Note_off_c, 1, 37, 100
3, 30432, Note_on_c, 1, 49, 80
3, 30524, Note_off_c, 1, 49, 100
3, 30528, Note_on_c, 1, 53, 80
3, 30620, Note_off_c, 1, 53, 100
3, 30624, Note_on_c, 1, 49, 80
3, 30716, Note_off_c, 1, 49, 100
3, 30720, Note_on_c, 1, 39, 80
3, 30812, Note_off_c, 1, 39, 100
3, 30816, Note_on_c, 1, 51, 80
3, 30908, Note_off_c, 1, 51, 100
3, 30912, Note_on_c, 1, 55, 80
3, 31004, Note_off_c, 1, 55, 100
3, 31008, Note_on_c, 1, 51, 80
3, 31100, Note_off_c, 1, 51, 100
3, 31104, Note_on_c, 1, 44, 80
3, 31196, Note_off_c, 1, 44, 100
3, 31200, Note_on_c, 1, 51, 80
3, 31292, Note_off_c, 1, 51, 100
3, 31296, Note_on_c, 1, 55, 80
3, 31388, Note_off_c, 1, 55, 100
3, 31392, Note_on_c, 1, 51, 80
3, 31484, Note_off_c, 1, 51, 100
3, 31488, Note_on_c, 1, 44, 80
3, 31580, Note_off_c, 1, 44, 100
3, 31584, Note_on_c, 1, 56, 80
3, 31676, Note_off_c, 1, 56, 100
3, 31680, Note_on_c, 1, 48, 80
3, 31772, Note_off_c, 1, 48, 100
3, 31776, Note_on_c, 1, 60, 80
3, 31868, Note_off_c, 1, 60, 100
3, 31872, Note_on_c, 1, 44, 80
3, 31964, Note_off_c, 1, 44, 100
3, 31968, Note_on_c, 1, 56, 80
3, 32060, Note_off_c, 1, 56, 100
3, 32064, Note_on_c, 1, 41, 80
3, 32156, Note_off_c, 1, 41, 100
3, 32160, Note_on_c, 1, 53, 80
3, 32252, Note_off_c, 1, 53, 100
3, 32256, Note_on_c, 1, 40, 80
3, 32348, Note_off_c, 1, 40, 100
3, 32352, Note_on_c, 1, 52, 80
3, 32444, Note_off_c, 1, 52, 100
3, 32448, Note_on_c, 1, 55, 80
3, 32540, Note_off_c, 1, 55, 100
3, 32544, Note_on_c, 1, 52, 80
3, 32636, Note_off_c, 1, 52, 100
3, 32640, Note_on_c, 1, 40, 80
3, 32732, Note_off_c, 1, 40, 100
3, 32736, Note_on_c, 1, 52, 80
3, 32828, Note_off_c, 1, 52, 100
3, 32832, Note_on_c, 1, 43, 80
3, 32924, Note_off_c, 1, 43, 100
3, 32928, Note_on_c, 1, 55, 80
3, 33020, Note_off_c, 1, 55, 100
3, 33024, Note_on_c, 1, 40, 80
3, 33116, Note_off_c, 1, 40, 100
3, 33120, Note_on_c, 1, 52, 80
3, 33212, Note_off_c, 1, 52, 100
3, 33216, Note_on_c, 1, 36, 80
3, 33308, Note_off_c, 1, 36, 100
3, 33312, Note_on_c, 1, 48, 80
3, 33404, Note_off_c, 1, 48, 100
3, 33408, Note_on_c, 1, 34, 80
3, 33500, Note_off_c, 1, 34, 100
3, 33504, Note_on_c, 1, 46, 80
3, 33596, Note_off_c, 1, 46, 100
3, 33600, Note_on_c, 1, 49, 80
3, 33692, Note_off_c, 1, 49, 100
3, 33696, Note_on_c, 1, 46, 80
3, 33788, Note_off_c, 1, 46, 100
3, 33792, Note_on_c, 1, 32, 80
3, 33884, Note_off_c, 1, 32, 100
3, 33888, Note_on_c, 1, 44, 80
3, 33980, Note_off_c, 1, 44, 100
3, 33984, Note_on_c, 1, 36, 80
3, 34076, Note_off_c, 1, 36, 100
3, 34080, Note_on_c, 1, 48, 80
3, 34172, Note_off_c, 1, 48, 100
3, 34176, Note_on_c, 1, 32, 80
3, 34268, Note_off_c, 1, 32, 100
3, 34272, Note_on_c, 1, 44, 80
3, 34364, Note_off_c, 1, 44, 100
3, 34368, Note_on_c, 1, 29, 80
3, 34460, Note_off_c, 1, 29, 100
3, 34464, Note_on_c, 1, 41, 80
3, 34556, Note_off_c, 1, 41, 100
3, 34560, Note_on_c, 1, 38, 110
3, 34652, Note_off_c, 1, 38, 100
3, 34656, Note_on_c, 1, 50, 110
3, 34748, Note_off_c, 1, 50, 100
3, 34752, Note_on_c, 1, 35, 110
3, 34844, Note_off_c, 1, 35, 100
3, 34848, Note_on_c, 1, 47, 110
3, 34940, Note_off_c, 1, 47, 100
3, 34944, Note_on_c, 1, 36, 110
3, 35036, Note_off_c, 1, 36, 100
3, 35040, Note_on_c, 1, 48, 110
3, 35132, Note_off_c, 1, 48, 100
3, 35136, Note_on_c, 1, 53, 110
3, 35228, Note_off_c, 1, 53, 100
3, 35232, Note_on_c, 1, 48, 110
3, 35324, Note_off_c, 1, 48, 100
3, 35328, Note_on_c, 1, 36, 110
3, 35420, Note_off_c, 1, 36, 100
3, 35424, Note_on_c, 1, 48, 110
3, 35516, Note_off_c, 1, 48, 100
3, 35520, Note_on_c, 1, 53, 110
3, 35612, Note_off_c, 1, 53, 100
3, 35616, Note_on_c, 1, 48, 110
3, 35708, Note_off_c, 1, 48, 100
3, 35712, Note_on_c, 1, 41, 110
3, 35804, Note_off_c, 1, 41, 100
3, 35808, Note_on_c, 1, 53, 90
3, 35900, Note_off_c, 1, 53, 100
3, 35904, Note_on_c, 1, 42, 89
3, 35996, Note_off_c, 1, 42, 100
3, 36000, Note_on_c, 1, 54, 87
3, 36092, Note_off_c, 1, 54, 100
3, 36096, Note_on_c, 1, 43, 85
3, 36188, Note_off_c, 1, 43, 100
3, 36192, Note_on_c, 1, 55, 83
3, 36284, Note_off_c, 1, 55, 100
3, 36288, Note_on_c, 1, 44, 81
3, 36380, Note_off_c, 1, 44, 100
3, 36384, Note_on_c, 1, 56, 79
3, 36476, Note_off_c, 1, 56, 100
3, 36480, Note_on_c, 1, 42, 77
3, 36572, Note_off_c, 1, 42, 100
3, 36576, Note_on_c, 1, 54, 75
3, 36668, Note_off_c, 1, 54, 100
3, 36672, Note_on_c, 1, 39, 73
3, 36764, Note_off_c, 1, 39, 100
3, 36768, Note_on_c, 1, 51, 71
3, 36860, Note_off_c, 1, 51, 100
3, 36864, Note_on_c, 1, 37, 70
3, 36956, Note_off_c, 1, 37, 100
3, 36960, Note_on_c, 1, 49, 71
3, 37052, Note_off_c, 1, 49, 100
3, 37056, Note_on_c, 1, 53, 73
3, 37148, Note_off_c, 1, 53, 100
3, 37152, Note_on_c, 1, 49, 74
3, 37244, Note_off_c, 1, 49, 100
3, 37248, Note_on_c, 1, 37, 76
3, 37340, Note_off_c, 1, 37, 100
3, 37344, Note_on_c, 1, 49, 77
3, 37436, Note_off_c, 1, 49, 100
3, 37440, Note_on_c, 1, 53, 79
3, 37532, Note_off_c, 1, 53, 100
3, 37536, Note_on_c, 1, 49, 81
3, 37628, Note_off_c, 1, 49, 100
3, 37632, Note_on_c, 1, 37, 82
3, 37724, Note_off_c, 1, 37, 100
3, 37728, Note_on_c, 1, 49, 84
3, 37820, Note_off_c, 1, 49, 100
3, 37824, Note_on_c, 1, 53, 85
3, 37916, Note_off_c, 1, 53, 100
3, 37920, Note_on_c, 1, 49, 87
3, 38012, Note_off_c, 1, 49, 100
3, 38016, Note_on_c, 1, 39, 88
3, 38108, Note_off_c, 1, 39, 100
3, 38112, Note_on_c, 1, 51, 90
3, 38204, Note_off_c, 1, 51, 100
3, 38208, Note_on_c, 1, 54, 92
3, 38300, Note_off_c, 1, 54, 100
3, 38304, Note_on_c, 1, 51, 93
3, 38396, Note_off_c, 1, 51, 100
3, 38400, Note_on_c, 1, 39, 95
3, 38492, Note_off_c, 1, 39, 100
3, 38496, Note_on_c, 1, 51, 96
3, 38588, Note_off_c, 1, 51, 100
3, 38592, Note_on_c, 1, 54, 98
3, 38684, Note_off_c, 1, 54, 100
3, 38688, Note_on_c, 1, 51, 99
3, 38780, Note_off_c, 1, 51, 100
3, 38784, Note_on_c, 1, 41, 100
3, 38876, Note_off_c, 1, 41, 100
3, 38880, Note_on_c, 1, 53, 100
3, 38972, Note_off_c, 1, 53, 100
3, 38976, Note_on_c, 1, 56, 100
3, 39068, Note_off_c, 1, 56, 100
3, 39072, Note_on_c, 1, 53, 100
3, 39164, Note_off_c, 1, 53, 100
3, 39168, Note_on_c, 1, 42, 100
3, 39260, Note_off_c, 1, 42, 100
3, 39264, Note_on_c, 1, 54, 100
3, 39356, Note_off_c, 1, 54, 100
3, 39360, Note_on_c, 1, 58, 101
3, 39452, Note_off_c, 1, 58, 100
3, 39456, Note_on_c, 1, 54, 102
3, 39548, Note_off_c, 1, 54, 100
3, 39552, Note_on_c, 1, 42, 103
3, 39644, Note_off_c, 1, 42, 100
3, 39648, Note_on_c, 1, 54, 104
3, 39740, Note_off_c, 1, 54, 100
3, 39744, Note_on_c, 1, 58, 105
3, 39836, Note_off_c, 1, 58, 100
3, 39840, Note_on_c, 1, 54, 105
3, 39932, Note_off_c, 1, 54, 100
3, 39936, Note_on_c, 1, 43, 106
3, 40028, Note_off_c, 1, 43, 100
3, 40032, Note_on_c, 1, 55, 107
3, 40124, Note_off_c, 1, 55, 100
3, 40128, Note_on_c, 1, 58, 108
3, 40220, Note_off_c, 1, 58, 100
3, 40224, Note_on_c, 1, 55, 109
3, 40316, Note_off_c, 1, 55, 100
3, 40320, Note_on_c, 1, 44, 110
3, 40412, Note_off_c, 1, 44, 100
3, 40416, Note_on_c, 1, 56, 110
3, 40508, Note_off_c, 1, 56, 100
3, 40512, Note_on_c, 1, 60, 111
3, 40604, Note_off_c, 1, 60, 100
3, 40608, Note_on_c, 1, 56, 112
3, 40700, Note_off_c, 1, 56, 100
3, 40704, Note_on_c, 1, 44, 113
3, 40796, Note_off_c, 1, 44, 100
3, 40800, Note_on_c, 1, 56, 114
3, 40892, Note_off_c, 1, 56, 100
3, 40896, Note_on_c, 1, 60, 110
3, 40988, Note_off_c, 1, 60, 100
3, 40992, Note_on_c, 1, 56, 110
3, 41084, Note_off_c, 1, 56, 100
3, 41088, Note_on_c, 1, 44, 110
3, 41180, Note_off_c, 1, 44, 100
3, 41184, Note_on_c, 1, 56, 110
3, 41276, Note_off_c, 1, 56, 100
3, 41280, Note_on_c, 1, 44, 110
3, 41372, Note_off_c, 1, 44, 100
3, 41376, Note_on_c, 1, 56, 110
3, 41468, Note_off_c, 1, 56, 100
3, 41472, Note_on_c, 1, 43, 110
3, 41472, Note_on_c, 1, 31, 110
3, 42236, Note_off_c, 1, 43, 100
3, 42236, Note_off_c, 1, 31, 100
3, 42240, Note_on_c, 1, 43, 110
3, 42240, Note_on_c, 1, 31, 110
3, 42524, Note_off_c, 1, 43, 100
3, 42524, Note_off_c, 1, 31, 100
3, 42528, Note_on_c, 1, 43, 110
3, 42528, Note_on_c, 1, 31, 110
3, 42620, Note_off_c, 1, 43, 100
3, 42620, Note_off_c, 1, 31, 100
3, 42624, Note_on_c, 1, 42, 110
3, 42624, Note_on_c, 1, 30, 110
3, 43004, Note_off_c, 1, 42, 100
3, 43004, Note_off_c, 1, 30, 100
3, 43776, Note_on_c, 1, 43, 70
3, 43776, Note_on_c, 1, 31, 70
3, 44540, Note_off_c, 1, 43, 100
3, 44540, Note_off_c, 1, 31, 100
3, 44544, Note_on_c, 1, 44, 100
3, 44544, Note_on_c, 1, 32, 100
3, 44828, Note_off_c, 1, 44, 100
3, 44828, Note_off_c, 1, 32, 100
3, 44832, Note_on_c, 1, 43, 70
3, 44832, Note_on_c, 1, 31, 70
3, 44924, Note_off_c, 1, 43, 100
3, 44924, Note_off_c, 1, 31, 100
3, 44928, Note_on_c, 1, 42, 70
3, 44928, Note_on_c, 1, 30, 70
3, 45308, Note_off_c, 1, 42, 100
3, 45308, Note_off_c, 1, 30, 100
3, 46080, Note_on_c, 1, 41, 70
3, 46080, Note_on_c, 1, 29, 70
3, 46460, Note_off_c, 1, 41, 100
3, 46460, Note_off_c, 1, 29, 100
3, 47232, Note_on_c, 1, 58, 70
3, 47232, Note_on_c, 1, 65, 70
3, 47232, Note_on_c, 1, 70, 70
3, 47612, Note_off_c, 1, 58, 100
3, 47612, Note_off_c, 1, 65, 100
3, 47612, Note_off_c, 1, 70, 100
3, 47616, Note_on_c, 1, 60, 70
3, 47616, Note_on_c, 1, 65, 70
3, 47616, Note_on_c, 1, 69, 70
3, 47804, Note_off_c, 1, 60, 100
3, 47804, Note_off_c, 1, 65, 100
3, 47804, Note_off_c, 1, 69, 100
3, 48384, Note_on_c, 1, 57, 70
3, 48384, Note_on_c, 1, 65, 70
3, 48384, Note_on_c, 1, 69, 70
3, 48764, Note_off_c, 1, 57, 100
3, 48764, Note_off_c, 1, 65, 100
3, 48764, Note_off_c, 1, 69, 100
3, 48768, Note_on_c, 1, 58, 70
3, 48768, Note_on_c, 1, 65, 70
3, 48768, Note_on_c, 1, 70, 70
3, 48956, Note_off_c, 1, 58, 100
3, 48956, Note_off_c, 1, 65, 100
3, 48956, Note_off_c, 1, 70, 100
3, 49536, Note_on_c, 1, 67, 70
3, 49536, Note_on_c, 1, 62, 70
3, 49536, Note_on_c, 1, 59, 70
3, 49916, Note_off_c, 1, 62, 100
3, 49916, Note_off_c, 1, 59, 100
3, 49920, Note_on_c, 1, 63, 70
3, 49920, Note_on_c, 1, 60, 70
3, 50108, Note_off_c, 1, 67, 100
3, 50108, Note_off_c, 1, 63, 100
3, 50108, Note_off_c, 1, 60, 100
3, 50688, Note_on_c, 1, 79, 93
3, 51020, Note_off_c, 1, 79, 100
3, 51024, Note_on_c, 1, 74, 80
3, 51068, Note_off_c, 1, 74, 100
3, 51072, Note_on_c, 1, 75, 90
3, 51404, Note_off_c, 1, 75, 100
3, 51408, Note_on_c, 1, 71, 80
3, 51452, Note_off_c, 1, 71, 100
3, 51456, Note_on_c, 1, 72, 90
3, 51788, Note_off_c, 1, 72, 100
3, 51792, Note_on_c, 1, 67, 80
3, 51836, Note_off_c, 1, 67, 100
3, 51840, Note_on_c, 1, 68, 90
3, 52172, Note_off_c, 1, 68, 100
3, 52176, Note_on_c, 1, 64, 80
3, 52220, Note_off_c, 1, 64, 100
3, 52224, Note_on_c, 1, 65, 90
3, 52556, Note_off_c, 1, 65, 100
3, 52560, Note_on_c, 1, 63, 80
3, 52560, Note_on_c, 1, 65, 80
3, 52604, Note_off_c, 1, 63, 100
3, 52604, Note_off_c, 1, 65, 100
3, 52608, Note_on_c, 1, 65, 90
3, 52608, Note_on_c, 1, 62, 90
3, 52940, Note_off_c, 1, 65, 100
3, 52940, Note_off_c, 1, 62, 100
3, 52944, Note_on_c, 1, 60, 80
3, 52944, Note_on_c, 1, 63, 80
3, 52988, Note_off_c, 1, 60, 100
3, 52988, Note_off_c, 1, 63, 100
3, 52992, Note_on_c, 1, 59, 90
3, 52992, Note_on_c, 1, 62, 90
3, 53180, Note_off_c, 1, 59, 100
3, 53180, Note_off_c, 1, 62, 100
3, 54720, Note_on_c, 1, 53, 80
3, 54812, Note_off_c, 1, 53, 100
3, 54912, Note_on_c, 1, 50, 80
3, 55004, Note_off_c, 1, 50, 100
3, 55104, Note_on_c, 1, 47, 80
3, 55196, Note_off_c, 1, 47, 100
3, 55296, Note_on_c, 1, 44, 80
3, 55388, Note_off_c, 1, 44, 100
3, 55488, Note_on_c, 1, 41, 80
3, 55676, Note_off_c, 1, 41, 100
3, 55680, Note_on_c, 1, 38, 80
3, 55868, Note_off_c, 1, 38, 100
3, 55872, Note_on_c, 1, 35, 80
3, 56060, Note_off_c, 1, 35, 100
3, 56064, Note_on_c, 1, 32, 80
3, 56252, Note_off_c, 1, 32, 100
3, 56256, Note_on_c, 1, 31, 80
3, 56444, Note_off_c, 1, 31, 100
3, 56448, Note_on_c, 1, 42, 70
3, 56448, Note_on_c, 1, 30, 70
3, 56828, Note_off_c, 1, 42, 100
3, 56828, Note_off_c, 1, 30, 100
3, 56832, Note_on_c, 1, 43, 70
3, 56832, Note_on_c, 1, 31, 70
3, 57212, Note_off_c, 1, 43, 100
3, 57212, Note_off_c, 1, 31, 100
3, 57216, Note_on_c, 1, 43, 70
3, 57216, Note_on_c, 1, 31, 70
3, 57596, Note_off_c, 1, 43, 100
3, 57596, Note_off_c, 1, 31, 100
3, 57600, Note_on_c, 1, 48, 70
3, 57600, Note_on_c, 1, 43, 70
3, 57600, Note_on_c, 1, 36, 70
3, 57980, Note_off_c, 1, 48, 100
3, 57980, Note_off_c, 1, 43, 100
3, 57980, Note_off_c, 1, 36, 100
3, 57984, Note_on_c, 1, 47, 70
3, 57984, Note_on_c, 1, 43, 70
3, 57984, Note_on_c, 1, 35, 70
3, 58172, Note_off_c, 1, 47, 100
3, 58172, Note_off_c, 1, 43, 100
3, 58172, Note_off_c, 1, 35, 100
3, 58752, Note_on_c, 1, 47, 70
3, 58752, Note_on_c, 1, 43, 70
3, 58752, Note_on_c, 1, 35, 70
3, 59132, Note_off_c, 1, 47, 100
3, 59132, Note_off_c, 1, 43, 100
3, 59132, Note_off_c, 1, 35, 100
3, 59136, Note_on_c, 1, 48, 70
3, 59136, Note_on_c, 1, 43, 70
3, 59136, Note_on_c, 1, 36, 70
3, 59324, Note_off_c, 1, 48, 100
3, 59324, Note_off_c, 1, 43, 100
3, 59324, Note_off_c, 1, 36, 100
3, 59904, Note_on_c, 1, 48, 70
3, 59904, Note_on_c, 1, 36, 70
3, 60284, Note_off_c, 1, 48, 100
3, 60284, Note_off_c, 1, 36, 100
3, 60288, Note_on_c, 1, 42, 70
3, 60288, Note_on_c, 1, 30, 70
3, 60476, Note_off_c, 1, 42, 100
3, 60476, Note_off_c, 1, 30, 100
3, 61056, Note_on_c, 1, 42, 70
3, 61056, Note_on_c, 1, 30, 70
3, 61436, Note_off_c, 1, 42, 100
3, 61436, Note_off_c, 1, 30, 100
3, 61440, Note_on_c, 1, 41, 72
3, 61440, Note_on_c, 1, 29, 72
3, 62204, Note_off_c, 1, 41, 100
3, 62204, Note_off_c, 1, 29, 100
3, 62208, Note_on_c, 1, 40, 77
3, 62588, Note_off_c, 1, 40, 100
3, 62592, Note_on_c, 1, 50, 79
3, 62592, Note_on_c, 1, 38, 79
3, 62972, Note_off_c, 1, 50, 100
3, 62972, Note_off_c, 1, 38, 100
3, 62976, Note_on_c, 1, 48, 82
3, 62976, Note_on_c, 1, 36, 82
3, 63356, Note_off_c, 1, 48, 100
3, 63356, Note_off_c, 1, 36, 100
3, 63360, Note_on_c, 1, 41, 84
3, 63360, Note_on_c, 1, 29, 84
3, 64508, Note_off_c, 1, 41, 100
3, 64508, Note_off_c, 1, 29, 100
3, 64512, Note_on_c, 1, 43, 90
3, 64512, Note_on_c, 1, 31, 90
3, 65660, Note_off_c, 1, 43, 100
3, 65660, Note_off_c, 1, 31, 100
3, 65664, Note_on_c, 1, 43, 83
3, 65664, Note_on_c, 1, 36, 83
3, 66044, Note_off_c, 1, 43, 100
3, 66048, Note_on_c, 1, 48, 81
3, 66236, Note_off_c, 1, 36, 100
3, 66236, Note_off_c, 1, 48, 100
3, 67200, Note_on_c, 1, 57, 100
3, 67200, Note_on_c, 1, 50, 100
3, 67200, Note_on_c, 1, 45, 100
3, 67580, Note_off_c, 1, 57, 100
3, 67580, Note_off_c, 1, 50, 100
3, 67580, Note_off_c, 1, 45, 100
3, 67584, Note_on_c, 1, 50, 100
3, 67584, Note_on_c, 1, 45, 100
3, 67584, Note_on_c, 1, 57, 100
3, 67964, Note_off_c, 1, 50, 100
3, 67964, Note_off_c, 1, 45, 100
3, 67964, Note_off_c, 1, 57, 100
3, 67968, Note_on_c, 1, 59, 100
3, 67968, Note_on_c, 1, 50, 100
3, 67968, Note_on_c, 1, 43, 100
3, 68732, Note_off_c, 1, 59, 100
3, 68732, Note_off_c, 1, 50, 100
3, 68732, Note_off_c, 1, 43, 100
3, 69504, Note_on_c, 1, 57, 100
3, 69504, Note_on_c, 1, 50, 100
3, 69504, Note_on_c, 1, 45, 100
3, 69884, Note_off_c, 1, 57, 100
3, 69884, Note_off_c, 1, 50, 100
3, 69884, Note_off_c, 1, 45, 100
3, 69888, Note_on_c, 1, 50, 100
3, 69888, Note_on_c, 1, 45, 100
3, 69888, Note_on_c, 1, 57, 100
3, 70268, Note_off_c, 1, 50, 100
3, 70268, Note_off_c, 1, 45, 100
3, 70268, Note_off_c, 1, 57, 100
3, 70272, Note_on_c, 1, 59, 100
3, 70272, Note_on_c, 1, 50, 100
3, 70272, Note_on_c, 1, 43, 100
3, 71036, Note_off_c, 1, 59, 100
3, 71036, Note_off_c, 1, 50, 100
3, 71036, Note_off_c, 1, 43, 100
3, 71808, Note_on_c, 1, 57, 100
3, 71808, Note_on_c, 1, 50, 100
3, 71808, Note_on_c, 1, 45, 100
3, 72188, Note_off_c, 1, 57, 100
3, 72188, Note_off_c, 1, 50, 100
3, 72188, Note_off_c, 1, 45, 100
3, 72192, Note_on_c, 1, 56, 100
3, 72192, Note_on_c, 1, 50, 100
3, 72192, Note_on_c, 1, 44, 100
3, 72572, Note_off_c, 1, 56, 100
3, 72572, Note_off_c, 1, 50, 100
3, 72572, Note_off_c, 1, 44, 100
3, 72576, Note_on_c, 1, 43, 100
3, 72600, Note_on_c, 1, 47, 100
3, 72624, Note_on_c, 1, 50, 100
3, 72648, Note_on_c, 1, 53, 100
3, 72672, Note_on_c, 1, 55, 100
3, 72764, Note_off_c, 1, 43, 100
3, 72764, Note_off_c, 1, 47, 100
3, 72764, Note_off_c, 1, 50, 100
3, 72764, Note_off_c, 1, 53, 100
3, 72764, Note_off_c, 1, 55, 100
3, 72960, Note_on_c, 1, 55, 80
3, 72984, Note_on_c, 1, 59, 80
3, 73008, Note_on_c, 1, 62, 80
3, 73032, Note_on_c, 1, 65, 80
3, 73148, Note_off_c, 1, 55, 100
3, 73148, Note_off_c, 1, 59, 100
3, 73148, Note_off_c, 1, 62, 100
3, 73148, Note_off_c, 1, 65, 100
3, 73728, Note_on_c, 1, 48, 80
3, 73728, Note_on_c, 1, 36, 80
3, 74108, Note_off_c, 1, 48, 100
3, 74108, Note_off_c, 1, 36, 100
3, 74112, Note_on_c, 1, 50, 80
3, 74112, Note_on_c, 1, 35, 80
3, 74300, Note_off_c, 1, 50, 100
3, 74300, Note_off_c, 1, 35, 100
3, 74880, Note_on_c, 1, 47, 80
3, 74880, Note_on_c, 1, 43, 80
3, 74880, Note_on_c, 1, 35, 80
3, 75260, Note_off_c, 1, 47, 100
3, 75260, Note_off_c, 1, 43, 100
3, 75260, Note_off_c, 1, 35, 100
3, 75264, Note_on_c, 1, 48, 80
3, 75264, Note_on_c, 1, 43, 80
3, 75264, Note_on_c, 1, 36, 80
3, 75452, Note_off_c, 1, 48, 100
3, 75452, Note_off_c, 1, 43, 100
3, 75452, Note_off_c, 1, 36, 100
3, 76032, Note_on_c, 1, 49, 100
3, 76032, Note_on_c, 1, 45, 100
3, 76032, Note_on_c, 1, 37, 100
3, 76412, Note_off_c, 1, 49, 100
3, 76412, Note_off_c, 1, 45, 100
3, 76412, Note_off_c, 1, 37, 100
3, 76416, Note_on_c, 1, 50, 100
3, 76560, Note_on_c, 1, 53, 100
3, 76604, Note_off_c, 1, 53, 100
3, 76608, Note_on_c, 1, 58, 100
3, 76796, Note_off_c, 1, 50, 100
3, 76800, Note_on_c, 1, 52, 100
3, 76940, Note_off_c, 1, 58, 100
3, 76944, Note_on_c, 1, 55, 100
3, 76988, Note_off_c, 1, 55, 100
3, 76992, Note_on_c, 1, 60, 100
3, 77180, Note_off_c, 1, 52, 100
3, 77184, Note_on_c, 1, 53, 100
3, 77324, Note_off_c, 1, 60, 100
3, 77328, Note_on_c, 1, 57, 100
3, 77372, Note_off_c, 1, 53, 100
3, 77372, Note_off_c, 1, 57, 100
3, 77376, Note_on_c, 1, 62, 100
3, 77376, Note_on_c, 1, 54, 100
3, 77564, Note_off_c, 1, 54, 100
3, 77568, Note_on_c, 1, 55, 100
3, 77708, Note_off_c, 1, 62, 100
3, 77712, Note_on_c, 1, 60, 100
3, 77756, Note_off_c, 1, 55, 100
3, 77756, Note_off_c, 1, 60, 100
3, 77760, Note_on_c, 1, 59, 100
3, 77760, Note_on_c, 1, 56, 100
3, 77900, Note_off_c, 1, 59, 100
3, 77904, Note_on_c, 1, 60, 100
3, 77948, Note_off_c, 1, 60, 100
3, 77952, Note_on_c, 1, 62, 100
3, 78092, Note_off_c, 1, 62, 100
3, 78096, Note_on_c, 1, 59, 100
3, 78140, Note_off_c, 1, 56, 100
3, 78140, Note_off_c, 1, 59, 100
3, 78144, Note_on_c, 1, 60, 100
3, 78144, Note_on_c, 1, 57, 100
3, 78284, Note_off_c, 1, 60, 100
3, 78288, Note_on_c, 1, 60, 100
3, 78332, Note_off_c, 1, 57, 100
3, 78332, Note_off_c, 1, 60, 100
3, 78336, Note_on_c, 1, 54, 100
3, 78716, Note_off_c, 1, 54, 100
3, 78720, Note_on_c, 1, 55, 100
3, 79100, Note_off_c, 1, 55, 100
3, 79104, Note_on_c, 1, 43, 100
3, 79104, Note_on_c, 1, 31, 100
3, 79484, Note_off_c, 1, 43, 100
3, 79484, Note_off_c, 1, 31, 100
3, 79488, Note_on_c, 1, 46, 100
3, 79488, Note_on_c, 1, 34, 100
3, 79868, Note_off_c, 1, 46, 100
3, 79868, Note_off_c, 1, 34, 100
3, 80064, Note_on_c, 1, 45, 110
3, 80064, Note_on_c, 1, 33, 110
3, 80156, Note_off_c, 1, 45, 100
3, 80156, Note_off_c, 1, 33, 100
3, 80256, Note_on_c, 1, 50, 110
3, 80256, Note_on_c, 1, 45, 110
3, 80256, Note_on_c, 1, 38, 110
3, 80348, Note_off_c, 1, 50, 100
3, 80348, Note_off_c, 1, 45, 100
3, 80348, Note_off_c, 1, 38, 100
3, 80448, Note_on_c, 1, 49, 110
3, 80448, Note_on_c, 1, 45, 110
3, 80448, Note_on_c, 1, 37, 110
3, 80540, Note_off_c, 1, 49, 100
3, 80540, Note_off_c, 1, 45, 100
3, 80540, Note_off_c, 1, 37, 100
3, 81216, Note_on_c, 1, 49, 110
3, 81216, Note_on_c, 1, 45, 110
3, 81216, Note_on_c, 1, 37, 110
3, 81308, Note_off_c, 1, 49, 100
3, 81308, Note_off_c, 1, 45, 100
3, 81308, Note_off_c, 1, 37, 100
3, 81408, Note_on_c, 1, 50, 110
3, 81408, Note_on_c, 1, 45, 110
3, 81408, Note_on_c, 1, 38, 110
3, 81500, Note_off_c, 1, 50, 100
3, 81500, Note_off_c, 1, 45, 100
3, 81500, Note_off_c, 1, 38, 100
3, 81600, Note_on_c, 1, 48, 110
3, 81600, Note_on_c, 1, 36, 110
3, 81692, Note_off_c, 1, 48, 100
3, 81692, Note_off_c, 1, 36, 100
3, 82368, Note_on_c, 1, 48, 70
3, 82368, Note_on_c, 1, 36, 70
3, 82556, Note_off_c, 1, 48, 100
3, 82556, Note_off_c, 1, 36, 100
3, 82560, Note_on_c, 1, 53, 77
3, 82560, Note_on_c, 1, 41, 77
3, 82560, Note_on_c, 1, 48, 77
3, 82748, Note_off_c, 1, 53, 100
3, 82748, Note_off_c, 1, 41, 100
3, 82748, Note_off_c, 1, 48, 100
3, 82752, Note_on_c, 1, 55, 84
3, 82752, Note_on_c, 1, 43, 84
3, 82752, Note_on_c, 1, 48, 84
3, 82940, Note_off_c, 1, 55, 100
3, 82940, Note_off_c, 1, 43, 100
3, 82940, Note_off_c, 1, 48, 100
3, 82944, Note_on_c, 1, 57, 92
3, 82944, Note_on_c, 1, 48, 92
3, 82944, Note_on_c, 1, 45, 92
3, 83132, Note_off_c, 1, 57, 100
3, 83132, Note_off_c, 1, 48, 100
3, 83132, Note_off_c, 1, 45, 100
3, 83136, Note_on_c, 1, 56, 99
3, 83136, Note_on_c, 1, 48, 99
3, 83136, Note_on_c, 1, 44, 99
3, 83324, Note_off_c, 1, 56, 100
3, 83324, Note_off_c, 1, 48, 100
3, 83324, Note_off_c, 1, 44, 100
3, 83328, Note_on_c, 1, 43, 100
3, 83328, Note_on_c, 1, 55, 100
3, 83328, Note_on_c, 1, 52, 100
3, 83328, Note_on_c, 1, 48, 100
3, 83516, Note_off_c, 1, 55, 100
3, 83516, Note_off_c, 1, 52, 100
3, 83516, Note_off_c, 1, 48, 100
3, 83520, Note_on_c, 1, 55, 100
3, 83520, Note_on_c, 1, 52, 100
3, 83520, Note_on_c, 1, 48, 100
3, 83708, Note_off_c, 1, 43, 100
3, 83708, Note_off_c, 1, 55, 100
3, 83708, Note_off_c, 1, 52, 100
3, 83708, Note_off_c, 1, 48, 100
3, 83712, Note_on_c, 1, 43, 100
3, 83712, Note_on_c, 1, 53, 100
3, 83712, Note_on_c, 1, 50, 100
3, 83712, Note_on_c, 1, 55, 100
3, 83900, Note_off_c, 1, 53, 100
3, 83900, Note_off_c, 1, 50, 100
3, 83900, Note_off_c, 1, 55, 100
3, 83904, Note_on_c, 1, 53, 100
3, 83904, Note_on_c, 1, 50, 100
3, 83904, Note_on_c, 1, 55, 100
3, 84092, Note_off_c, 1, 43, 100
3, 84092, Note_off_c, 1, 53, 100
3, 84092, Note_off_c, 1, 50, 100
3, 84092, Note_off_c, 1, 55, 100
3, 84096, Note_on_c, 1, 55, 80
3, 84096, Note_on_c, 1, 52, 80
3, 84096, Note_on_c, 1, 48, 80
3, 84476, Note_off_c, 1, 48, 100
3, 84480, Note_on_c, 1, 48, 87
3, 84668, Note_off_c, 1, 55, 100
3, 84668, Note_off_c, 1, 52, 100
3, 84672, Note_on_c, 1, 55, 90
3, 84672, Note_on_c, 1, 52, 90
3, 84860, Note_off_c, 1, 48, 100
3, 84860, Note_off_c, 1, 55, 100
3, 84860, Note_off_c, 1, 52, 100
3, 84864, Note_on_c, 1, 48, 94
3, 84864, Note_on_c, 1, 52, 94
3, 84864, Note_on_c, 1, 55, 94
3, 85052, Note_off_c, 1, 55, 100
3, 85056, Note_on_c, 1, 60, 98
3, 85244, Note_off_c, 1, 48, 100
3, 85244, Note_off_c, 1, 52, 100
3, 85244, Note_off_c, 1, 60, 100
3, 85248, Note_on_c, 1, 55, 110
3, 85248, Note_on_c, 1, 53, 110
3, 85248, Note_on_c, 1, 50, 110
3, 85248, Note_on_c, 1, 60, 110
3, 85628, Note_off_c, 1, 60, 100
3, 85632, Note_on_c, 1, 59, 110
3, 86012, Note_off_c, 1, 55, 100
3, 86012, Note_off_c, 1, 53, 100
3, 86012, Note_off_c, 1, 50, 100
3, 86012, Note_off_c, 1, 59, 100
3, 86016, Note_on_c, 1, 55, 110
3, 86016, Note_on_c, 1, 52, 110
3, 86016, Note_on_c, 1, 61, 110
3, 86300, Note_off_c, 1, 61, 100
3, 86304, Note_on_c, 1, 64, 110
3, 86396, Note_off_c, 1, 55, 100
3, 86396, Note_off_c, 1, 52, 100
3, 86396, Note_off_c, 1, 64, 100
3, 86400, Note_on_c, 1, 57, 110
3, 86400, Note_on_c, 1, 53, 110
3, 86400, Note_on_c, 1, 61, 110
3, 86400, Note_on_c, 1, 64, 110
3, 86780, Note_off_c, 1, 61, 100
3, 86780, Note_off_c, 1, 64, 100
3, 86784, Note_on_c, 1, 62, 112
3, 87164, Note_off_c, 1, 57, 100
3, 87164, Note_off_c, 1, 53, 100
3, 87164, Note_off_c, 1, 62, 100
3, 87168, Note_on_c, 1, 55, 115
3, 87168, Note_on_c, 1, 60, 115
3, 87168, Note_on_c, 1, 58, 115
3, 87168, Note_on_c, 1, 64, 115
3, 87452, Note_off_c, 1, 64, 100
3, 87456, Note_on_c, 1, 67, 116
3, 87548, Note_off_c, 1, 55, 100
3, 87548, Note_off_c, 1, 60, 100
3, 87548, Note_off_c, 1, 58, 100
3, 87548, Note_off_c, 1, 67, 100
3, 87552, Note_on_c, 1, 67, 117
3, 87552, Note_on_c, 1, 60, 117
3, 87552, Note_on_c, 1, 57, 117
3, 87932, Note_off_c, 1, 67, 100
3, 87932, Note_off_c, 1, 60, 100
3, 87932, Note_off_c, 1, 57, 100
3, 87936, Note_on_c, 1, 65, 120
3, 87936, Note_on_c, 1, 60, 120
3, 87936, Note_on_c, 1, 56, 120
3, 88268, Note_off_c, 1, 65, 100
3, 88268, Note_off_c, 1, 60, 100
3, 88268, Note_off_c, 1, 56, 100
3, 88272, Note_on_c, 1, 65, 120
3, 88272, Note_on_c, 1, 60, 120
3, 88272, Note_on_c, 1, 56, 120
3, 88316, Note_off_c, 1, 65, 100
3, 88316, Note_off_c, 1, 60, 100
3, 88316, Note_off_c, 1, 56, 100
3, 88320, Note_on_c, 1, 66, 120
3, 88320, Note_on_c, 1, 62, 120
3, 88320, Note_on_c, 1, 60, 120
3, 88320, Note_on_c, 1, 56, 120
3, 88652, Note_off_c, 1, 66, 100
3, 88652, Note_off_c, 1, 62, 100
3, 88652, Note_off_c, 1, 60, 100
3, 88652, Note_off_c, 1, 56, 100
3, 88656, Note_on_c, 1, 66, 120
3, 88656, Note_on_c, 1, 62, 120
3, 88656, Note_on_c, 1, 60, 120
3, 88656, Note_on_c, 1, 56, 120
3, 88700, Note_off_c, 1, 66, 100
3, 88700, Note_off_c, 1, 62, 100
3, 88700, Note_off_c, 1, 60, 100
3, 88700, Note_off_c, 1, 56, 100
3, 88704, Note_on_c, 1, 67, 120
3, 88704, Note_on_c, 1, 62, 120
3, 88704, Note_on_c, 1, 59, 120
3, 88704, Note_on_c, 1, 55, 120
3, 88892, Note_off_c, 1, 67, 100
3, 88892, Note_off_c, 1, 62, 100
3, 88892, Note_off_c, 1, 59, 100
3, 88892, Note_off_c, 1, 55, 100
3, 89856, Note_on_c, 1, 65, 80
3, 90140, Note_off_c, 1, 65, 100
3, 90144, Note_on_c, 1, 62, 80
3, 90236, Note_off_c, 1, 62, 100
3, 90240, Note_on_c, 1, 64, 80
3, 90428, Note_off_c, 1, 64, 100
3, 91008, Note_on_c, 1, 62, 80
3, 91292, Note_off_c, 1, 62, 100
3, 91296, Note_on_c, 1, 59, 80
3, 91388, Note_off_c, 1, 59, 100
3, 91392, Note_on_c, 1, 60, 80
3, 91580, Note_off_c, 1, 60, 100
3, 91584, Note_on_c, 1, 55, 80
3, 91772, Note_off_c, 1, 55, 100
3, 91776, Note_on_c, 1, 55, 80
3, 91964, Note_off_c, 1, 55, 100
3, 91968, Note_on_c, 1, 55, 80
3, 92156, Note_off_c, 1, 55, 100
3, 92160, Note_on_c, 1, 55, 80
3, 92160, Note_on_c, 1, 53, 80
3, 92348, Note_off_c, 1, 55, 100
3, 92352, Note_on_c, 1, 55, 80
3, 92444, Note_off_c, 1, 53, 100
3, 92448, Note_on_c, 1, 50, 80
3, 92540, Note_off_c, 1, 55, 100
3, 92540, Note_off_c, 1, 50, 100
3, 92544, Note_on_c, 1, 55, 80
3, 92544, Note_on_c, 1, 52, 80
3, 92732, Note_off_c, 1, 55, 100
3, 92732, Note_off_c, 1, 52, 100
3, 92736, Note_on_c, 1, 55, 80
3, 92924, Note_off_c, 1, 55, 100
3, 92928, Note_on_c, 1, 55, 80
3, 93116, Note_off_c, 1, 55, 100
3, 93120, Note_on_c, 1, 55, 80
3, 93308, Note_off_c, 1, 55, 100
3, 93312, Note_on_c, 1, 55, 80
3, 93312, Note_on_c, 1, 50, 80
3, 93500, Note_off_c, 1, 55, 100
3, 93504, Note_on_c, 1, 55, 80
3, 93596, Note_off_c, 1, 50, 100
3, 93600, Note_on_c, 1, 47, 80
3, 93692, Note_off_c, 1, 55, 100
3, 93692, Note_off_c, 1, 47, 100
3, 93696, Note_on_c, 1, 55, 80
3, 93696, Note_on_c, 1, 48, 80
3, 93884, Note_off_c, 1, 55, 100
3, 93884, Note_off_c, 1, 48, 100
3, 94080, Note_on_c, 1, 57, 70
3, 94080, Note_on_c, 1, 45, 70
3, 94268, Note_off_c, 1, 57, 100
3, 94268, Note_off_c, 1, 45, 100
3, 94464, Note_on_c, 1, 56, 70
3, 94464, Note_on_c, 1, 44, 70
3, 94652, Note_off_c, 1, 56, 100
3, 94652, Note_off_c, 1, 44, 100
3, 94848, Note_on_c, 1, 55, 70
3, 94848, Note_on_c, 1, 43, 70
3, 95036, Note_off_c, 1, 55, 100
3, 95036, Note_off_c, 1, 43, 100
3, 95232, Note_on_c, 1, 43, 70
3, 95232, Note_on_c, 1, 31, 70
3, 95420, Note_off_c, 1, 43, 100
3, 95420, Note_off_c, 1, 31, 100
3, 95616, Note_on_c, 1, 43, 70
3, 95616, Note_on_c, 1, 36, 70
3, 95804, Note_off_c, 1, 43, 100
3, 95804, Note_off_c, 1, 36, 100
3, 95808, Note_on_c, 1, 48, 70
3, 96000, Note_on_c, 1, 55, 70
3, 96000, Note_on_c, 1, 52, 70
3, 96188, Note_off_c, 1, 55, 100
3, 96188, Note_off_c, 1, 52, 100
3, 96192, Note_on_c, 1, 60, 70
3, 96380, Note_off_c, 1, 48, 100
3, 96380, Note_off_c, 1, 60, 100
3, 96384, Note_on_c, 1, 62, 70
3, 96384, Note_on_c, 1, 55, 70
3, 96572, Note_off_c, 1, 62, 100
3, 96576, Note_on_c, 1, 65, 70
3, 96764, Note_off_c, 1, 55, 100
3, 96764, Note_off_c, 1, 65, 100
3, 96768, Note_on_c, 1, 43, 70
3, 96768, Note_on_c, 1, 36, 70
3, 96956, Note_off_c, 1, 43, 100
3, 96956, Note_off_c, 1, 36, 100
3, 96960, Note_on_c, 1, 48, 70
3, 97152, Note_on_c, 1, 55, 70
3, 97152, Note_on_c, 1, 52, 70
3, 97340, Note_off_c, 1, 55, 100
3, 97340, Note_off_c, 1, 52, 100
3, 97344, Note_on_c, 1, 60, 70
3, 97532, Note_off_c, 1, 48, 100
3, 97532, Note_off_c, 1, 60, 100
3, 97536, Note_on_c, 1, 62, 70
3, 97536, Note_on_c, 1, 55, 70
3, 97724, Note_off_c, 1, 62, 100
3, 97728, Note_on_c, 1, 65, 70
3, 97916, Note_off_c, 1, 55, 100
3, 97916, Note_off_c, 1, 65, 100
3, 97920, Note_on_c, 1, 65, 70
3, 97920, Note_on_c, 1, 60, 70
3, 98300, Note_off_c, 1, 65, 100
3, 98304, Note_on_c, 1, 64, 70
3, 98492, Note_off_c, 1, 60, 100
3, 98492, Note_off_c, 1, 64, 100
3, 98496, Note_on_c, 1, 48, 70
3, 98496, Note_on_c, 1, 36, 70
3, 98684, Note_off_c, 1, 48, 100
3, 98684, Note_off_c, 1, 36, 100
3, 98688, Note_on_c, 1, 47, 70
3, 98688, Note_on_c, 1, 35, 70
3, 98876, Note_off_c, 1, 47, 100
3, 98876, Note_off_c, 1, 35, 100
3, 98880, Note_on_c, 1, 46, 70
3, 98880, Note_on_c, 1, 34, 70
3, 99068, Note_off_c, 1, 46, 100
3, 99068, Note_off_c, 1, 34, 100
3, 99072, Note_on_c, 1, 45, 70
3, 99072, Note_on_c, 1, 33, 70
3, 99836, Note_off_c, 1, 45, 100
3, 99836, Note_off_c, 1, 33, 100
3, 99840, Note_on_c, 1, 44, 70
3, 99840, Note_on_c, 1, 32, 70
3, 100220, Note_off_c, 1, 44, 100
3, 100220, Note_off_c, 1, 32, 100
3, 100224, Note_on_c, 1, 43, 70
3, 100224, Note_on_c, 1, 31, 70
3, 100988, Note_off_c, 1, 43, 100
3, 100988, Note_off_c, 1, 31, 100
3, 100992, Note_on_c, 1, 42, 100
3, 100992, Note_on_c, 1, 30, 100
3, 102140, Note_off_c, 1, 30, 100
3, 102140, Note_off_c, 1, 42, 100
3, 102144, Note_on_c, 1, 41, 70
3, 102144, Note_on_c, 1, 29, 70
3, 102524, Note_off_c, 1, 41, 100
3, 102524, Note_off_c, 1, 29, 100
3, 102528, Note_on_c, 1, 43, 70
3, 102528, Note_on_c, 1, 31, 70
3, 102716, Note_off_c, 1, 43, 100
3, 102716, Note_off_c, 1, 31, 100
3, 102912, Note_on_c, 1, 48, 70
3, 102912, Note_on_c, 1, 36, 70
3, 103292, Note_off_c, 1, 48, 100
3, 103292, Note_off_c, 1, 36, 100
3, 103292, End_track
0, 0, End_of_file
