0, 0, Header, 1, 3, 384
1, 0, Start_track
1, 0, Title_t, "L.v.Beethoven 3mov - Piano Sonata No.5 in C minor Op.10-1\000"
1, 0, Copyright_t, "Copyright(C) 1995-2009, Suzuki Software\000"
1, 0, Sequencer_specific, 9, 67, 123, 0, 88, 70, 48, 50, 0, 1
1, 0, Text_t, "XFhd:2000/04/01:JP:Classical::::L.v.Beethoven:::Kaoru Suzuki\000"
1, 0, Text_t, "XFln:JP:\203s\203A\203m\203\\\203i\203^\221æ5\224Ô\203n\222Z\222²\215ì\225i10-1\201`\221æ3\212y\217Í:L.v.\203x\201[\203g\201[\203\224\203F\203\223:::\227é\202¿\202á\202ñ:\227é\202¿\202á\202ñ\000"
1, 0, Time_signature, 3, 2, 96, 8
1, 0, Sequencer_specific, 3, 0, 0, 65
1, 0, Sequencer_specific, 5, 0, 0, 119, 14, 0
1, 0, Tempo, 333333
1, 1152, Time_signature, 4, 2, 96, 8
1, 4992, Tempo, 375000
1, 6528, Tempo, 333333
1, 11136, Tempo, 375000
1, 12288, Tempo, 333333
1, 22656, Tempo, 342857
1, 23040, Tempo, 352941
1, 23808, Tempo, 375000
1, 28800, Tempo, 428571
1, 29568, Tempo, 375000
1, 31872, Tempo, 428571
1, 32640, Tempo, 375000
1, 39552, Tempo, 363636
1, 42624, Tempo, 352941
1, 53376, Tempo, 342857
1, 67200, Tempo, 333333
1, 77184, Tempo, 375000
1, 78720, Tempo, 333333
1, 83328, Tempo, 375000
1, 84480, Tempo, 333333
1, 94848, Tempo, 342857
1, 95616, Tempo, 352941
1, 96000, Tempo, 375000
1, 100992, Tempo, 428571
1, 101760, Tempo, 375000
1, 104064, Tempo, 428571
1, 104832, Tempo, 375000
1, 111744, Tempo, 363636
1, 114816, Tempo, 352941
1, 122496, Tempo, 342857
1, 139392, Tempo, 333333
1, 159360, Tempo, 375000
1, 160128, Tempo, 428571
1, 163200, Tempo, 333333
1, 167808, Tempo, 375000
1, 168960, Tempo, 333333
1, 185472, Tempo, 342857
1, 185856, Tempo, 352941
1, 186240, Tempo, 375000
1, 186624, Tempo, 428571
1, 186816, Tempo, 500000
1, 188544, Tempo, 375000
1, 200832, Tempo, 363636
1, 205056, Tempo, 352941
1, 213120, Tempo, 342857
1, 230016, Tempo, 333333
1, 240768, Tempo, 352941
1, 242304, Tempo, 375000
1, 243840, Tempo, 400000
1, 245376, Tempo, 428571
1, 246912, Tempo, 461538
1, 248448, Tempo, 500000
1, 249984, Tempo, 750000
1, 254160, Tempo, 333333
1, 263808, Tempo, 352941
1, 265344, Tempo, 375000
1, 265728, Tempo, 400000
1, 266112, Tempo, 428571
1, 266496, Tempo, 500000
1, 266496, End_track
2, 0, Start_track
2, 0, Title_t, "Right"
2, 0, Control_c, 0, 0, 0
2, 0, Program_c, 0, 0
2, 0, Control_c, 0, 7, 100
2, 0, Control_c, 0, 10, 77
2, 0, Control_c, 0, 91, 127
2, 0, Key_signature, -3, "minor"
2, 192, Note_on_c, 0, 60, 80
2, 380, Note_off_c, 0, 60, 100
2, 384, Note_on_c, 0, 59, 80
2, 572, Note_off_c, 0, 59, 100
2, 576, Note_on_c, 0, 60, 80
2, 764, Note_off_c, 0, 60, 100
2, 768, Note_on_c, 0, 65, 80
2, 956, Note_off_c, 0, 65, 100
2, 960, Note_on_c, 0, 65, 80
2, 1148, Note_off_c, 0, 65, 100
2, 1152, Note_on_c, 0, 63, 80
2, 1532, Note_off_c, 0, 63, 100
2, 1728, Note_on_c, 0, 60, 80
2, 1916, Note_off_c, 0, 60, 100
2, 1920, Note_on_c, 0, 59, 80
2, 2108, Note_off_c, 0, 59, 100
2, 2112, Note_on_c, 0, 60, 80
2, 2300, Note_off_c, 0, 60, 100
2, 2304, Note_on_c, 0, 68, 80
2, 2492, Note_off_c, 0, 68, 100
2, 2496, Note_on_c, 0, 68, 80
2, 2684, Note_off_c, 0, 68, 100
2, 2688, Note_on_c, 0, 67, 80
2, 3068, Note_off_c, 0, 67, 100
2, 3264, Note_on_c, 0, 60, 80
2, 3452, Note_off_c, 0, 60, 100
2, 3456, Note_on_c, 0, 59, 80
2, 3644, Note_off_c, 0, 59, 100
2, 3648, Note_on_c, 0, 60, 80
2, 3836, Note_off_c, 0, 60, 100
2, 3840, Note_on_c, 0, 72, 80
2, 4028, Note_off_c, 0, 72, 100
2, 4032, Note_on_c, 0, 72, 80
2, 4220, Note_off_c, 0, 72, 100
2, 4224, Note_on_c, 0, 72, 80
2, 4412, Note_off_c, 0, 72, 100
2, 4416, Note_on_c, 0, 74, 80
2, 4464, Note_on_c, 0, 72, 80
2, 4508, Note_off_c, 0, 74, 100
2, 4512, Note_on_c, 0, 71, 80
2, 4556, Note_off_c, 0, 72, 100
2, 4560, Note_on_c, 0, 72, 80
2, 4604, Note_off_c, 0, 71, 100
2, 4604, Note_off_c, 0, 72, 100
2, 4608, Note_on_c, 0, 75, 80
2, 4796, Note_off_c, 0, 75, 100
2, 4800, Note_on_c, 0, 74, 80
2, 4988, Note_off_c, 0, 74, 100
2, 4992, Note_on_c, 0, 77, 80
2, 5180, Note_off_c, 0, 77, 100
2, 5184, Note_on_c, 0, 75, 80
2, 5372, Note_off_c, 0, 75, 100
2, 5376, Note_on_c, 0, 74, 80
2, 5564, Note_off_c, 0, 74, 100
2, 5568, Note_on_c, 0, 72, 80
2, 5756, Note_off_c, 0, 72, 100
2, 5760, Note_on_c, 0, 71, 80
2, 6140, Note_off_c, 0, 71, 100
2, 6336, Note_on_c, 0, 55, 80
2, 6524, Note_off_c, 0, 55, 100
2, 6528, Note_on_c, 0, 54, 80
2, 6716, Note_off_c, 0, 54, 100
2, 6720, Note_on_c, 0, 55, 80
2, 6908, Note_off_c, 0, 55, 100
2, 6912, Note_on_c, 0, 60, 80
2, 7100, Note_off_c, 0, 60, 100
2, 7104, Note_on_c, 0, 60, 80
2, 7292, Note_off_c, 0, 60, 100
2, 7296, Note_on_c, 0, 59, 80
2, 7676, Note_off_c, 0, 59, 100
2, 7872, Note_on_c, 0, 55, 80
2, 8060, Note_off_c, 0, 55, 100
2, 8064, Note_on_c, 0, 54, 80
2, 8252, Note_off_c, 0, 54, 100
2, 8256, Note_on_c, 0, 55, 80
2, 8444, Note_off_c, 0, 55, 100
2, 8448, Note_on_c, 0, 63, 80
2, 8636, Note_off_c, 0, 63, 100
2, 8640, Note_on_c, 0, 63, 80
2, 8828, Note_off_c, 0, 63, 100
2, 8832, Note_on_c, 0, 62, 80
2, 9212, Note_off_c, 0, 62, 100
2, 9408, Note_on_c, 0, 55, 80
2, 9596, Note_off_c, 0, 55, 100
2, 9600, Note_on_c, 0, 59, 80
2, 9788, Note_off_c, 0, 59, 100
2, 9792, Note_on_c, 0, 62, 80
2, 9980, Note_off_c, 0, 62, 100
2, 9984, Note_on_c, 0, 65, 80
2, 10172, Note_off_c, 0, 65, 100
2, 10176, Note_on_c, 0, 68, 80
2, 10364, Note_off_c, 0, 68, 100
2, 10368, Note_on_c, 0, 71, 80
2, 10556, Note_off_c, 0, 71, 100
2, 10560, Note_on_c, 0, 74, 80
2, 10748, Note_off_c, 0, 74, 100
2, 10752, Note_on_c, 0, 77, 80
2, 10940, Note_off_c, 0, 77, 100
2, 10944, Note_on_c, 0, 80, 80
2, 11132, Note_off_c, 0, 80, 100
2, 11136, Note_on_c, 0, 79, 80
2, 11324, Note_off_c, 0, 79, 100
2, 11328, Note_on_c, 0, 77, 80
2, 11516, Note_off_c, 0, 77, 100
2, 11520, Note_on_c, 0, 75, 80
2, 11708, Note_off_c, 0, 75, 100
2, 11712, Note_on_c, 0, 74, 80
2, 11900, Note_off_c, 0, 74, 100
2, 11904, Note_on_c, 0, 72, 80
2, 12284, Note_off_c, 0, 72, 100
2, 12480, Note_on_c, 0, 72, 80
2, 12668, Note_off_c, 0, 72, 100
2, 12672, Note_on_c, 0, 71, 80
2, 12860, Note_off_c, 0, 71, 100
2, 12864, Note_on_c, 0, 72, 80
2, 13052, Note_off_c, 0, 72, 100
2, 13056, Note_on_c, 0, 84, 80
2, 13244, Note_off_c, 0, 84, 100
2, 13248, Note_on_c, 0, 84, 80
2, 13436, Note_off_c, 0, 84, 100
2, 13440, Note_on_c, 0, 84, 80
2, 13820, Note_off_c, 0, 84, 100
2, 14016, Note_on_c, 0, 89, 80
2, 14204, Note_off_c, 0, 89, 100
2, 14208, Note_on_c, 0, 87, 80
2, 14396, Note_off_c, 0, 87, 100
2, 14400, Note_on_c, 0, 86, 80
2, 14588, Note_off_c, 0, 86, 100
2, 14592, Note_on_c, 0, 84, 80
2, 14780, Note_off_c, 0, 84, 100
2, 14784, Note_on_c, 0, 83, 80
2, 14972, Note_off_c, 0, 83, 100
2, 14976, Note_on_c, 0, 86, 80
2, 15164, Note_off_c, 0, 86, 100
2, 15168, Note_on_c, 0, 84, 80
2, 15356, Note_off_c, 0, 84, 100
2, 15552, Note_on_c, 0, 72, 80
2, 15740, Note_off_c, 0, 72, 100
2, 15744, Note_on_c, 0, 71, 80
2, 15932, Note_off_c, 0, 71, 100
2, 15936, Note_on_c, 0, 72, 80
2, 16124, Note_off_c, 0, 72, 100
2, 16128, Note_on_c, 0, 84, 80
2, 16316, Note_off_c, 0, 84, 100
2, 16320, Note_on_c, 0, 84, 80
2, 16508, Note_off_c, 0, 84, 100
2, 16512, Note_on_c, 0, 84, 80
2, 16700, Note_off_c, 0, 84, 100
2, 16704, Note_on_c, 0, 86, 80
2, 16764, Note_off_c, 0, 86, 100
2, 16768, Note_on_c, 0, 84, 80
2, 16828, Note_off_c, 0, 84, 100
2, 16832, Note_on_c, 0, 83, 80
2, 16892, Note_off_c, 0, 83, 100
2, 16896, Note_on_c, 0, 84, 80
2, 17084, Note_off_c, 0, 84, 100
2, 17088, Note_on_c, 0, 89, 80
2, 17276, Note_off_c, 0, 89, 100
2, 17280, Note_on_c, 0, 87, 80
2, 17468, Note_off_c, 0, 87, 100
2, 17472, Note_on_c, 0, 86, 80
2, 17660, Note_off_c, 0, 86, 100
2, 17664, Note_on_c, 0, 84, 80
2, 17852, Note_off_c, 0, 84, 100
2, 17856, Note_on_c, 0, 83, 80
2, 18044, Note_off_c, 0, 83, 100
2, 18048, Note_on_c, 0, 84, 80
2, 18140, Note_off_c, 0, 84, 100
2, 18144, Note_on_c, 0, 86, 80
2, 18236, Note_off_c, 0, 86, 100
2, 18240, Note_on_c, 0, 84, 81
2, 18332, Note_off_c, 0, 84, 100
2, 18336, Note_on_c, 0, 83, 81
2, 18428, Note_off_c, 0, 83, 100
2, 18432, Note_on_c, 0, 84, 82
2, 18524, Note_off_c, 0, 84, 100
2, 18528, Note_on_c, 0, 87, 82
2, 18620, Note_off_c, 0, 87, 100
2, 18624, Note_on_c, 0, 86, 83
2, 18716, Note_off_c, 0, 86, 100
2, 18720, Note_on_c, 0, 84, 83
2, 18812, Note_off_c, 0, 84, 100
2, 18816, Note_on_c, 0, 83, 84
2, 18908, Note_off_c, 0, 83, 100
2, 18912, Note_on_c, 0, 84, 84
2, 19004, Note_off_c, 0, 84, 100
2, 19008, Note_on_c, 0, 83, 85
2, 19100, Note_off_c, 0, 83, 100
2, 19104, Note_on_c, 0, 80, 85
2, 19196, Note_off_c, 0, 80, 100
2, 19200, Note_on_c, 0, 79, 86
2, 19292, Note_off_c, 0, 79, 100
2, 19296, Note_on_c, 0, 77, 86
2, 19388, Note_off_c, 0, 77, 100
2, 19392, Note_on_c, 0, 75, 87
2, 19484, Note_off_c, 0, 75, 100
2, 19488, Note_on_c, 0, 74, 87
2, 19580, Note_off_c, 0, 74, 100
2, 19584, Note_on_c, 0, 72, 88
2, 19676, Note_off_c, 0, 72, 100
2, 19680, Note_on_c, 0, 74, 88
2, 19772, Note_off_c, 0, 74, 100
2, 19776, Note_on_c, 0, 72, 89
2, 19868, Note_off_c, 0, 72, 100
2, 19872, Note_on_c, 0, 71, 89
2, 19964, Note_off_c, 0, 71, 100
2, 19968, Note_on_c, 0, 72, 90
2, 20060, Note_off_c, 0, 72, 100
2, 20064, Note_on_c, 0, 75, 90
2, 20156, Note_off_c, 0, 75, 100
2, 20160, Note_on_c, 0, 74, 91
2, 20252, Note_off_c, 0, 74, 100
2, 20256, Note_on_c, 0, 72, 91
2, 20348, Note_off_c, 0, 72, 100
2, 20352, Note_on_c, 0, 71, 92
2, 20444, Note_off_c, 0, 71, 100
2, 20448, Note_on_c, 0, 72, 92
2, 20540, Note_off_c, 0, 72, 100
2, 20544, Note_on_c, 0, 71, 93
2, 20636, Note_off_c, 0, 71, 100
2, 20640, Note_on_c, 0, 68, 93
2, 20732, Note_off_c, 0, 68, 100
2, 20736, Note_on_c, 0, 67, 94
2, 20828, Note_off_c, 0, 67, 100
2, 20832, Note_on_c, 0, 65, 94
2, 20924, Note_off_c, 0, 65, 100
2, 20928, Note_on_c, 0, 63, 95
2, 21020, Note_off_c, 0, 63, 100
2, 21024, Note_on_c, 0, 62, 95
2, 21116, Note_off_c, 0, 62, 100
2, 21120, Note_on_c, 0, 60, 96
2, 21212, Note_off_c, 0, 60, 100
2, 21216, Note_on_c, 0, 62, 96
2, 21308, Note_off_c, 0, 62, 100
2, 21312, Note_on_c, 0, 60, 97
2, 21404, Note_off_c, 0, 60, 100
2, 21408, Note_on_c, 0, 59, 97
2, 21500, Note_off_c, 0, 59, 100
2, 21504, Note_on_c, 0, 60, 98
2, 21596, Note_off_c, 0, 60, 100
2, 21600, Note_on_c, 0, 63, 98
2, 21692, Note_off_c, 0, 63, 100
2, 21696, Note_on_c, 0, 62, 99
2, 21788, Note_off_c, 0, 62, 100
2, 21792, Note_on_c, 0, 60, 99
2, 21884, Note_off_c, 0, 60, 100
2, 21888, Note_on_c, 0, 59, 110
2, 21980, Note_off_c, 0, 59, 100
2, 21984, Note_on_c, 0, 67, 110
2, 22076, Note_off_c, 0, 67, 100
2, 22080, Note_on_c, 0, 62, 110
2, 22172, Note_off_c, 0, 62, 100
2, 22176, Note_on_c, 0, 59, 110
2, 22268, Note_off_c, 0, 59, 100
2, 22272, Note_on_c, 0, 55, 110
2, 22364, Note_off_c, 0, 55, 100
2, 22368, Note_on_c, 0, 67, 110
2, 22460, Note_off_c, 0, 67, 100
2, 22464, Note_on_c, 0, 63, 110
2, 22556, Note_off_c, 0, 63, 100
2, 22560, Note_on_c, 0, 60, 110
2, 22652, Note_off_c, 0, 60, 100
2, 22656, Note_on_c, 0, 55, 110
2, 22748, Note_off_c, 0, 55, 100
2, 22752, Note_on_c, 0, 67, 110
2, 22844, Note_off_c, 0, 67, 100
2, 22848, Note_on_c, 0, 62, 110
2, 22940, Note_off_c, 0, 62, 100
2, 22944, Note_on_c, 0, 59, 110
2, 23036, Note_off_c, 0, 59, 100
2, 23040, Note_on_c, 0, 55, 110
2, 23132, Note_off_c, 0, 55, 100
2, 23136, Note_on_c, 0, 67, 110
2, 23228, Note_off_c, 0, 67, 100
2, 23232, Note_on_c, 0, 63, 110
2, 23324, Note_off_c, 0, 63, 100
2, 23328, Note_on_c, 0, 60, 110
2, 23420, Note_off_c, 0, 60, 100
2, 23424, Note_on_c, 0, 55, 110
2, 23516, Note_off_c, 0, 55, 100
2, 23520, Note_on_c, 0, 67, 110
2, 23612, Note_off_c, 0, 67, 100
2, 23616, Note_on_c, 0, 62, 110
2, 23708, Note_off_c, 0, 62, 100
2, 23712, Note_on_c, 0, 59, 110
2, 23804, Note_off_c, 0, 59, 100
2, 23808, Note_on_c, 0, 55, 110
2, 23900, Note_off_c, 0, 55, 100
2, 23904, Note_on_c, 0, 67, 110
2, 23996, Note_off_c, 0, 67, 100
2, 24000, Note_on_c, 0, 63, 110
2, 24092, Note_off_c, 0, 63, 100
2, 24096, Note_on_c, 0, 60, 110
2, 24188, Note_off_c, 0, 60, 100
2, 24192, Note_on_c, 0, 67, 120
2, 24192, Note_on_c, 0, 62, 120
2, 24192, Note_on_c, 0, 59, 120
2, 24192, Note_on_c, 0, 55, 120
2, 26492, Note_off_c, 0, 55, 100
2, 26492, Note_off_c, 0, 59, 100
2, 26492, Note_off_c, 0, 62, 100
2, 26492, Note_off_c, 0, 67, 100
2, 26688, Note_on_c, 0, 58, 80
2, 26876, Note_off_c, 0, 58, 100
2, 26880, Note_on_c, 0, 60, 80
2, 27068, Note_off_c, 0, 60, 100
2, 27072, Note_on_c, 0, 62, 80
2, 27260, Note_off_c, 0, 62, 100
2, 27264, Note_on_c, 0, 63, 80
2, 27264, Note_on_c, 0, 58, 80
2, 27264, Note_on_c, 0, 55, 80
2, 27452, Note_off_c, 0, 63, 100
2, 27456, Note_on_c, 0, 65, 80
2, 27644, Note_off_c, 0, 65, 100
2, 27648, Note_on_c, 0, 67, 80
2, 28028, Note_off_c, 0, 58, 100
2, 28028, Note_off_c, 0, 55, 100
2, 28028, Note_off_c, 0, 67, 100
2, 28032, Note_on_c, 0, 65, 80
2, 28032, Note_on_c, 0, 62, 80
2, 28032, Note_on_c, 0, 58, 80
2, 28412, Note_off_c, 0, 65, 100
2, 28412, Note_off_c, 0, 62, 100
2, 28412, Note_off_c, 0, 58, 100
2, 28416, Note_on_c, 0, 63, 80
2, 28416, Note_on_c, 0, 58, 80
2, 28796, Note_off_c, 0, 63, 100
2, 28796, Note_off_c, 0, 58, 100
2, 28800, Note_on_c, 0, 68, 80
2, 28800, Note_on_c, 0, 62, 80
2, 28800, Note_on_c, 0, 58, 80
2, 28800, Note_on_c, 0, 56, 80
2, 29564, Note_off_c, 0, 68, 100
2, 29564, Note_off_c, 0, 62, 100
2, 29564, Note_off_c, 0, 58, 100
2, 29564, Note_off_c, 0, 56, 100
2, 29760, Note_on_c, 0, 58, 80
2, 29948, Note_off_c, 0, 58, 100
2, 29952, Note_on_c, 0, 60, 80
2, 30140, Note_off_c, 0, 60, 100
2, 30144, Note_on_c, 0, 62, 80
2, 30332, Note_off_c, 0, 62, 100
2, 30336, Note_on_c, 0, 63, 80
2, 30336, Note_on_c, 0, 58, 80
2, 30336, Note_on_c, 0, 55, 80
2, 30524, Note_off_c, 0, 63, 100
2, 30528, Note_on_c, 0, 65, 80
2, 30716, Note_off_c, 0, 65, 100
2, 30720, Note_on_c, 0, 67, 80
2, 31100, Note_off_c, 0, 58, 100
2, 31100, Note_off_c, 0, 55, 100
2, 31100, Note_off_c, 0, 67, 100
2, 31104, Note_on_c, 0, 65, 80
2, 31104, Note_on_c, 0, 60, 80
2, 31104, Note_on_c, 0, 53, 80
2, 31484, Note_off_c, 0, 65, 100
2, 31484, Note_off_c, 0, 60, 100
2, 31484, Note_off_c, 0, 53, 100
2, 31488, Note_on_c, 0, 63, 80
2, 31488, Note_on_c, 0, 60, 80
2, 31488, Note_on_c, 0, 53, 80
2, 31868, Note_off_c, 0, 63, 100
2, 31868, Note_off_c, 0, 60, 100
2, 31868, Note_off_c, 0, 53, 100
2, 31872, Note_on_c, 0, 58, 80
2, 31872, Note_on_c, 0, 53, 80
2, 31872, Note_on_c, 0, 50, 80
2, 32636, Note_off_c, 0, 58, 100
2, 32636, Note_off_c, 0, 53, 100
2, 32636, Note_off_c, 0, 50, 100
2, 32832, Note_on_c, 0, 58, 80
2, 33020, Note_off_c, 0, 58, 100
2, 33024, Note_on_c, 0, 60, 80
2, 33212, Note_off_c, 0, 60, 100
2, 33216, Note_on_c, 0, 62, 80
2, 33404, Note_off_c, 0, 62, 100
2, 33408, Note_on_c, 0, 63, 80
2, 33596, Note_off_c, 0, 63, 100
2, 33600, Note_on_c, 0, 65, 80
2, 33788, Note_off_c, 0, 65, 100
2, 33792, Note_on_c, 0, 67, 80
2, 34172, Note_off_c, 0, 67, 100
2, 34176, Note_on_c, 0, 65, 80
2, 34176, Note_on_c, 0, 62, 80
2, 34176, Note_on_c, 0, 58, 80
2, 34556, Note_off_c, 0, 65, 100
2, 34556, Note_off_c, 0, 62, 100
2, 34556, Note_off_c, 0, 58, 100
2, 34560, Note_on_c, 0, 63, 80
2, 34560, Note_on_c, 0, 58, 80
2, 34940, Note_off_c, 0, 63, 100
2, 34940, Note_off_c, 0, 58, 100
2, 34944, Note_on_c, 0, 60, 100
2, 34992, Note_on_c, 0, 63, 100
2, 35040, Note_on_c, 0, 68, 100
2, 35084, Note_off_c, 0, 60, 100
2, 35084, Note_off_c, 0, 63, 100
2, 35084, Note_off_c, 0, 68, 100
2, 35088, Note_on_c, 0, 72, 100
2, 35900, Note_off_c, 0, 72, 100
2, 35904, Note_on_c, 0, 72, 80
2, 36092, Note_off_c, 0, 72, 100
2, 36096, Note_on_c, 0, 70, 80
2, 36284, Note_off_c, 0, 70, 100
2, 36288, Note_on_c, 0, 68, 80
2, 36476, Note_off_c, 0, 68, 100
2, 36480, Note_on_c, 0, 67, 104
2, 36668, Note_off_c, 0, 67, 100
2, 36672, Note_on_c, 0, 65, 80
2, 36860, Note_off_c, 0, 65, 100
2, 36864, Note_on_c, 0, 63, 80
2, 37052, Note_off_c, 0, 63, 100
2, 37056, Note_on_c, 0, 62, 80
2, 37244, Note_off_c, 0, 62, 100
2, 37248, Note_on_c, 0, 60, 80
2, 37248, Note_on_c, 0, 56, 80
2, 37248, Note_on_c, 0, 53, 80
2, 37628, Note_off_c, 0, 60, 100
2, 37632, Note_on_c, 0, 58, 80
2, 38012, Note_off_c, 0, 56, 100
2, 38012, Note_off_c, 0, 53, 100
2, 38012, Note_off_c, 0, 58, 100
2, 38016, Note_on_c, 0, 58, 80
2, 38016, Note_on_c, 0, 55, 80
2, 38016, Note_on_c, 0, 51, 80
2, 38780, Note_off_c, 0, 58, 100
2, 38780, Note_off_c, 0, 55, 100
2, 38780, Note_off_c, 0, 51, 100
2, 38976, Note_on_c, 0, 70, 80
2, 39164, Note_off_c, 0, 70, 100
2, 39168, Note_on_c, 0, 68, 80
2, 39356, Note_off_c, 0, 68, 100
2, 39360, Note_on_c, 0, 67, 80
2, 39548, Note_off_c, 0, 67, 100
2, 39552, Note_on_c, 0, 67, 104
2, 39740, Note_off_c, 0, 67, 100
2, 39744, Note_on_c, 0, 65, 80
2, 39932, Note_off_c, 0, 65, 100
2, 39936, Note_on_c, 0, 63, 80
2, 40124, Note_off_c, 0, 63, 100
2, 40128, Note_on_c, 0, 62, 80
2, 40316, Note_off_c, 0, 62, 100
2, 40320, Note_on_c, 0, 60, 80
2, 40320, Note_on_c, 0, 56, 80
2, 40320, Note_on_c, 0, 53, 80
2, 40700, Note_off_c, 0, 60, 100
2, 40704, Note_on_c, 0, 58, 80
2, 41084, Note_off_c, 0, 56, 100
2, 41084, Note_off_c, 0, 53, 100
2, 41084, Note_off_c, 0, 58, 100
2, 41088, Note_on_c, 0, 58, 80
2, 41088, Note_on_c, 0, 55, 80
2, 41088, Note_on_c, 0, 51, 80
2, 41852, Note_off_c, 0, 58, 100
2, 41852, Note_off_c, 0, 55, 100
2, 41852, Note_off_c, 0, 51, 100
2, 42048, Note_on_c, 0, 70, 80
2, 42048, Note_on_c, 0, 82, 80
2, 42236, Note_off_c, 0, 70, 100
2, 42236, Note_off_c, 0, 82, 100
2, 42240, Note_on_c, 0, 68, 80
2, 42240, Note_on_c, 0, 80, 80
2, 42428, Note_off_c, 0, 68, 100
2, 42428, Note_off_c, 0, 80, 100
2, 42432, Note_on_c, 0, 67, 80
2, 42432, Note_on_c, 0, 79, 80
2, 42620, Note_off_c, 0, 67, 100
2, 42620, Note_off_c, 0, 79, 100
2, 42624, Note_on_c, 0, 79, 80
2, 42624, Note_on_c, 0, 67, 80
2, 42812, Note_off_c, 0, 79, 100
2, 42812, Note_off_c, 0, 67, 100
2, 42816, Note_on_c, 0, 77, 80
2, 42816, Note_on_c, 0, 65, 80
2, 43004, Note_off_c, 0, 77, 100
2, 43004, Note_off_c, 0, 65, 100
2, 43008, Note_on_c, 0, 75, 80
2, 43008, Note_on_c, 0, 63, 80
2, 43196, Note_off_c, 0, 75, 100
2, 43196, Note_off_c, 0, 63, 100
2, 43200, Note_on_c, 0, 74, 80
2, 43200, Note_on_c, 0, 62, 80
2, 43388, Note_off_c, 0, 74, 100
2, 43388, Note_off_c, 0, 62, 100
2, 43392, Note_on_c, 0, 72, 80
2, 43392, Note_on_c, 0, 60, 80
2, 43580, Note_off_c, 0, 72, 100
2, 43580, Note_off_c, 0, 60, 100
2, 43584, Note_on_c, 0, 70, 80
2, 43584, Note_on_c, 0, 58, 80
2, 43772, Note_off_c, 0, 70, 100
2, 43772, Note_off_c, 0, 58, 100
2, 43776, Note_on_c, 0, 72, 80
2, 43776, Note_on_c, 0, 60, 80
2, 43964, Note_off_c, 0, 72, 100
2, 43964, Note_off_c, 0, 60, 100
2, 43968, Note_on_c, 0, 74, 80
2, 43968, Note_on_c, 0, 62, 80
2, 44156, Note_off_c, 0, 74, 100
2, 44156, Note_off_c, 0, 62, 100
2, 44160, Note_on_c, 0, 63, 80
2, 44252, Note_off_c, 0, 63, 100
2, 44256, Note_on_c, 0, 75, 80
2, 44348, Note_off_c, 0, 75, 100
2, 44352, Note_on_c, 0, 63, 81
2, 44444, Note_off_c, 0, 63, 100
2, 44448, Note_on_c, 0, 75, 81
2, 44540, Note_off_c, 0, 75, 100
2, 44544, Note_on_c, 0, 63, 82
2, 44636, Note_off_c, 0, 63, 100
2, 44640, Note_on_c, 0, 75, 83
2, 44732, Note_off_c, 0, 75, 100
2, 44736, Note_on_c, 0, 63, 83
2, 44828, Note_off_c, 0, 63, 100
2, 44832, Note_on_c, 0, 75, 84
2, 44924, Note_off_c, 0, 75, 100
2, 44928, Note_on_c, 0, 63, 85
2, 45020, Note_off_c, 0, 63, 100
2, 45024, Note_on_c, 0, 75, 85
2, 45116, Note_off_c, 0, 75, 100
2, 45120, Note_on_c, 0, 63, 86
2, 45212, Note_off_c, 0, 63, 100
2, 45216, Note_on_c, 0, 75, 86
2, 45308, Note_off_c, 0, 75, 100
2, 45312, Note_on_c, 0, 63, 87
2, 45404, Note_off_c, 0, 63, 100
2, 45408, Note_on_c, 0, 75, 88
2, 45500, Note_off_c, 0, 75, 100
2, 45504, Note_on_c, 0, 63, 88
2, 45596, Note_off_c, 0, 63, 100
2, 45600, Note_on_c, 0, 75, 89
2, 45692, Note_off_c, 0, 75, 100
2, 45696, Note_on_c, 0, 63, 90
2, 45788, Note_off_c, 0, 63, 100
2, 45792, Note_on_c, 0, 75, 90
2, 45884, Note_off_c, 0, 75, 100
2, 45888, Note_on_c, 0, 63, 91
2, 45980, Note_off_c, 0, 63, 100
2, 45984, Note_on_c, 0, 75, 91
2, 46076, Note_off_c, 0, 75, 100
2, 46080, Note_on_c, 0, 63, 92
2, 46172, Note_off_c, 0, 63, 100
2, 46176, Note_on_c, 0, 75, 93
2, 46268, Note_off_c, 0, 75, 100
2, 46272, Note_on_c, 0, 63, 93
2, 46364, Note_off_c, 0, 63, 100
2, 46368, Note_on_c, 0, 75, 94
2, 46460, Note_off_c, 0, 75, 100
2, 46464, Note_on_c, 0, 63, 95
2, 46556, Note_off_c, 0, 63, 100
2, 46560, Note_on_c, 0, 75, 95
2, 46652, Note_off_c, 0, 75, 100
2, 46656, Note_on_c, 0, 63, 96
2, 46748, Note_off_c, 0, 63, 100
2, 46752, Note_on_c, 0, 75, 96
2, 46844, Note_off_c, 0, 75, 100
2, 46848, Note_on_c, 0, 63, 97
2, 46940, Note_off_c, 0, 63, 100
2, 46944, Note_on_c, 0, 75, 98
2, 47036, Note_off_c, 0, 75, 100
2, 47040, Note_on_c, 0, 63, 98
2, 47132, Note_off_c, 0, 63, 100
2, 47136, Note_on_c, 0, 75, 99
2, 47228, Note_off_c, 0, 75, 100
2, 47232, Note_on_c, 0, 75, 100
2, 47232, Note_on_c, 0, 63, 100
2, 47612, Note_off_c, 0, 75, 100
2, 47612, Note_off_c, 0, 63, 100
2, 47808, Note_on_c, 0, 75, 103
2, 47996, Note_off_c, 0, 75, 100
2, 48000, Note_on_c, 0, 74, 105
2, 48188, Note_off_c, 0, 74, 100
2, 48192, Note_on_c, 0, 75, 106
2, 48380, Note_off_c, 0, 75, 100
2, 48384, Note_on_c, 0, 80, 107
2, 48384, Note_on_c, 0, 84, 107
2, 48572, Note_off_c, 0, 80, 100
2, 48572, Note_off_c, 0, 84, 100
2, 48576, Note_on_c, 0, 80, 108
2, 48576, Note_on_c, 0, 84, 108
2, 48764, Note_off_c, 0, 80, 100
2, 48764, Note_off_c, 0, 84, 100
2, 48768, Note_on_c, 0, 80, 120
2, 48768, Note_on_c, 0, 84, 120
2, 49148, Note_off_c, 0, 80, 100
2, 49244, Note_off_c, 0, 84, 100
2, 49248, Note_on_c, 0, 82, 120
2, 49340, Note_off_c, 0, 82, 100
2, 49344, Note_on_c, 0, 80, 120
2, 49436, Note_off_c, 0, 80, 100
2, 49440, Note_on_c, 0, 79, 120
2, 49532, Note_off_c, 0, 79, 100
2, 49536, Note_on_c, 0, 77, 120
2, 49628, Note_off_c, 0, 77, 100
2, 49632, Note_on_c, 0, 75, 120
2, 49724, Note_off_c, 0, 75, 100
2, 49728, Note_on_c, 0, 74, 120
2, 49820, Note_off_c, 0, 74, 100
2, 49824, Note_on_c, 0, 72, 120
2, 49916, Note_off_c, 0, 72, 100
2, 49920, Note_on_c, 0, 71, 120
2, 50012, Note_off_c, 0, 71, 100
2, 50016, Note_on_c, 0, 70, 120
2, 50108, Note_off_c, 0, 70, 100
2, 50112, Note_on_c, 0, 69, 120
2, 50204, Note_off_c, 0, 69, 100
2, 50208, Note_on_c, 0, 68, 120
2, 50300, Note_off_c, 0, 68, 100
2, 50304, Note_on_c, 0, 67, 120
2, 50428, Note_off_c, 0, 67, 100
2, 50432, Note_on_c, 0, 68, 120
2, 50556, Note_off_c, 0, 68, 100
2, 50560, Note_on_c, 0, 70, 120
2, 50684, Note_off_c, 0, 70, 100
2, 50688, Note_on_c, 0, 68, 120
2, 50812, Note_off_c, 0, 68, 100
2, 50816, Note_on_c, 0, 67, 120
2, 50940, Note_off_c, 0, 67, 100
2, 50944, Note_on_c, 0, 65, 120
2, 51068, Note_off_c, 0, 65, 100
2, 51072, Note_on_c, 0, 63, 120
2, 51196, Note_off_c, 0, 63, 100
2, 51200, Note_on_c, 0, 62, 120
2, 51324, Note_off_c, 0, 62, 100
2, 51328, Note_on_c, 0, 60, 120
2, 51452, Note_off_c, 0, 60, 100
2, 51456, Note_on_c, 0, 58, 120
2, 51580, Note_off_c, 0, 58, 100
2, 51584, Note_on_c, 0, 56, 120
2, 51708, Note_off_c, 0, 56, 100
2, 51712, Note_on_c, 0, 55, 120
2, 51836, Note_off_c, 0, 55, 100
2, 51936, Note_on_c, 0, 53, 120
2, 52028, Note_off_c, 0, 53, 100
2, 52032, Note_on_c, 0, 56, 120
2, 52124, Note_off_c, 0, 56, 100
2, 52128, Note_on_c, 0, 60, 120
2, 52220, Note_off_c, 0, 60, 100
2, 52224, Note_on_c, 0, 65, 120
2, 52604, Note_off_c, 0, 65, 100
2, 52704, Note_on_c, 0, 53, 120
2, 52796, Note_off_c, 0, 53, 100
2, 52800, Note_on_c, 0, 56, 120
2, 52892, Note_off_c, 0, 56, 100
2, 52896, Note_on_c, 0, 58, 120
2, 52988, Note_off_c, 0, 58, 100
2, 52992, Note_on_c, 0, 62, 120
2, 53372, Note_off_c, 0, 62, 100
2, 53376, Note_on_c, 0, 74, 120
2, 53468, Note_off_c, 0, 74, 100
2, 53472, Note_on_c, 0, 86, 120
2, 53564, Note_off_c, 0, 86, 100
2, 53568, Note_on_c, 0, 74, 120
2, 53660, Note_off_c, 0, 74, 100
2, 53664, Note_on_c, 0, 86, 120
2, 53756, Note_off_c, 0, 86, 100
2, 53760, Note_on_c, 0, 74, 120
2, 53852, Note_off_c, 0, 74, 100
2, 53856, Note_on_c, 0, 86, 120
2, 53948, Note_off_c, 0, 86, 100
2, 53952, Note_on_c, 0, 74, 120
2, 54044, Note_off_c, 0, 74, 100
2, 54048, Note_on_c, 0, 86, 120
2, 54140, Note_off_c, 0, 86, 100
2, 54144, Note_on_c, 0, 74, 120
2, 54236, Note_off_c, 0, 74, 100
2, 54240, Note_on_c, 0, 86, 120
2, 54332, Note_off_c, 0, 86, 100
2, 54336, Note_on_c, 0, 74, 120
2, 54428, Note_off_c, 0, 74, 100
2, 54432, Note_on_c, 0, 86, 120
2, 54524, Note_off_c, 0, 86, 100
2, 54528, Note_on_c, 0, 74, 120
2, 54620, Note_off_c, 0, 74, 100
2, 54624, Note_on_c, 0, 86, 120
2, 54716, Note_off_c, 0, 86, 100
2, 54720, Note_on_c, 0, 74, 120
2, 54812, Note_off_c, 0, 74, 100
2, 54816, Note_on_c, 0, 86, 120
2, 54908, Note_off_c, 0, 86, 100
2, 54912, Note_on_c, 0, 75, 120
2, 55004, Note_off_c, 0, 75, 100
2, 55008, Note_on_c, 0, 87, 120
2, 55100, Note_off_c, 0, 87, 100
2, 55104, Note_on_c, 0, 75, 120
2, 55196, Note_off_c, 0, 75, 100
2, 55200, Note_on_c, 0, 87, 120
2, 55292, Note_off_c, 0, 87, 100
2, 55296, Note_on_c, 0, 75, 120
2, 55388, Note_off_c, 0, 75, 100
2, 55392, Note_on_c, 0, 87, 120
2, 55484, Note_off_c, 0, 87, 100
2, 55488, Note_on_c, 0, 75, 120
2, 55580, Note_off_c, 0, 75, 100
2, 55584, Note_on_c, 0, 87, 120
2, 55676, Note_off_c, 0, 87, 100
2, 55680, Note_on_c, 0, 75, 120
2, 55772, Note_off_c, 0, 75, 100
2, 55776, Note_on_c, 0, 87, 120
2, 55868, Note_off_c, 0, 87, 100
2, 55872, Note_on_c, 0, 75, 120
2, 55964, Note_off_c, 0, 75, 100
2, 55968, Note_on_c, 0, 87, 120
2, 56060, Note_off_c, 0, 87, 100
2, 56064, Note_on_c, 0, 76, 120
2, 56156, Note_off_c, 0, 76, 100
2, 56160, Note_on_c, 0, 88, 120
2, 56252, Note_off_c, 0, 88, 100
2, 56256, Note_on_c, 0, 76, 120
2, 56348, Note_off_c, 0, 76, 100
2, 56352, Note_on_c, 0, 88, 120
2, 56444, Note_off_c, 0, 88, 100
2, 56544, Note_on_c, 0, 77, 120
2, 56636, Note_off_c, 0, 77, 100
2, 56640, Note_on_c, 0, 80, 120
2, 56732, Note_off_c, 0, 80, 100
2, 56736, Note_on_c, 0, 84, 120
2, 56828, Note_off_c, 0, 84, 100
2, 56832, Note_on_c, 0, 89, 120
2, 57212, Note_off_c, 0, 89, 100
2, 57312, Note_on_c, 0, 74, 120
2, 57404, Note_off_c, 0, 74, 100
2, 57408, Note_on_c, 0, 77, 120
2, 57500, Note_off_c, 0, 77, 100
2, 57504, Note_on_c, 0, 80, 120
2, 57596, Note_off_c, 0, 80, 100
2, 57600, Note_on_c, 0, 86, 120
2, 57980, Note_off_c, 0, 86, 100
2, 57984, Note_on_c, 0, 87, 120
2, 57984, Note_on_c, 0, 82, 120
2, 57984, Note_on_c, 0, 79, 120
2, 57984, Note_on_c, 0, 75, 120
2, 58364, Note_off_c, 0, 87, 100
2, 58364, Note_off_c, 0, 82, 100
2, 58364, Note_off_c, 0, 79, 100
2, 58364, Note_off_c, 0, 75, 100
2, 58368, Note_on_c, 0, 82, 120
2, 58556, Note_off_c, 0, 82, 100
2, 58560, Note_on_c, 0, 82, 120
2, 58748, Note_off_c, 0, 82, 100
2, 58752, Note_on_c, 0, 82, 120
2, 59132, Note_off_c, 0, 82, 100
2, 59136, Note_on_c, 0, 82, 120
2, 59324, Note_off_c, 0, 82, 100
2, 59328, Note_on_c, 0, 82, 120
2, 59516, Note_off_c, 0, 82, 100
2, 59520, Note_on_c, 0, 82, 120
2, 59900, Note_off_c, 0, 82, 100
2, 59904, Note_on_c, 0, 62, 120
2, 59904, Note_on_c, 0, 56, 120
2, 59904, Note_on_c, 0, 53, 120
2, 60284, Note_off_c, 0, 62, 100
2, 60284, Note_off_c, 0, 56, 100
2, 60284, Note_off_c, 0, 53, 100
2, 60672, Note_on_c, 0, 62, 80
2, 60672, Note_on_c, 0, 56, 80
2, 60672, Note_on_c, 0, 53, 80
2, 61052, Note_off_c, 0, 62, 100
2, 61052, Note_off_c, 0, 56, 100
2, 61052, Note_off_c, 0, 53, 100
2, 61056, Note_on_c, 0, 63, 80
2, 61056, Note_on_c, 0, 55, 80
2, 61056, Note_on_c, 0, 51, 80
2, 61436, Note_off_c, 0, 63, 100
2, 61436, Note_off_c, 0, 55, 100
2, 61436, Note_off_c, 0, 51, 100
2, 61440, Note_on_c, 0, 65, 80
2, 61440, Note_on_c, 0, 63, 80
2, 61440, Note_on_c, 0, 60, 80
2, 61820, Note_off_c, 0, 65, 100
2, 61820, Note_off_c, 0, 63, 100
2, 61820, Note_off_c, 0, 60, 100
2, 61824, Note_on_c, 0, 67, 80
2, 61824, Note_on_c, 0, 63, 80
2, 61824, Note_on_c, 0, 58, 80
2, 62204, Note_off_c, 0, 67, 100
2, 62204, Note_off_c, 0, 63, 100
2, 62204, Note_off_c, 0, 58, 100
2, 62208, Note_on_c, 0, 65, 80
2, 62208, Note_on_c, 0, 56, 80
2, 62588, Note_off_c, 0, 65, 100
2, 62588, Note_off_c, 0, 56, 100
2, 62592, Note_on_c, 0, 63, 80
2, 62592, Note_on_c, 0, 55, 80
2, 62972, Note_off_c, 0, 63, 100
2, 62972, Note_off_c, 0, 55, 100
2, 62976, Note_on_c, 0, 82, 120
2, 63068, Note_off_c, 0, 82, 100
2, 63072, Note_on_c, 0, 84, 120
2, 63164, Note_off_c, 0, 84, 100
2, 63168, Note_on_c, 0, 82, 120
2, 63260, Note_off_c, 0, 82, 100
2, 63264, Note_on_c, 0, 81, 120
2, 63356, Note_off_c, 0, 81, 100
2, 63360, Note_on_c, 0, 82, 120
2, 63740, Note_off_c, 0, 82, 100
2, 63744, Note_on_c, 0, 82, 120
2, 63836, Note_off_c, 0, 82, 100
2, 63840, Note_on_c, 0, 84, 120
2, 63932, Note_off_c, 0, 84, 100
2, 63936, Note_on_c, 0, 82, 120
2, 64028, Note_off_c, 0, 82, 100
2, 64032, Note_on_c, 0, 81, 120
2, 64124, Note_off_c, 0, 81, 100
2, 64128, Note_on_c, 0, 82, 120
2, 64508, Note_off_c, 0, 82, 100
2, 64512, Note_on_c, 0, 62, 120
2, 64512, Note_on_c, 0, 56, 120
2, 64512, Note_on_c, 0, 53, 120
2, 64892, Note_off_c, 0, 62, 100
2, 64892, Note_off_c, 0, 56, 100
2, 64892, Note_off_c, 0, 53, 100
2, 65280, Note_on_c, 0, 63, 120
2, 65280, Note_on_c, 0, 57, 120
2, 65280, Note_on_c, 0, 54, 120
2, 65280, Note_on_c, 0, 51, 120
2, 66044, Note_off_c, 0, 51, 100
2, 66044, Note_off_c, 0, 54, 100
2, 66044, Note_off_c, 0, 57, 100
2, 66044, Note_off_c, 0, 63, 100
2, 66048, Note_on_c, 0, 65, 80
2, 66048, Note_on_c, 0, 63, 80
2, 66048, Note_on_c, 0, 60, 80
2, 66428, Note_off_c, 0, 65, 100
2, 66428, Note_off_c, 0, 63, 100
2, 66428, Note_off_c, 0, 60, 100
2, 66432, Note_on_c, 0, 67, 80
2, 66432, Note_on_c, 0, 63, 80
2, 66432, Note_on_c, 0, 58, 80
2, 66812, Note_off_c, 0, 67, 100
2, 66812, Note_off_c, 0, 63, 100
2, 66812, Note_off_c, 0, 58, 100
2, 66816, Note_on_c, 0, 65, 80
2, 66816, Note_on_c, 0, 62, 80
2, 66816, Note_on_c, 0, 56, 80
2, 67196, Note_off_c, 0, 65, 100
2, 67196, Note_off_c, 0, 62, 100
2, 67196, Note_off_c, 0, 56, 100
2, 67200, Note_on_c, 0, 63, 80
2, 67200, Note_on_c, 0, 55, 80
2, 67580, Note_off_c, 0, 63, 100
2, 67580, Note_off_c, 0, 55, 100
2, 67584, Note_on_c, 0, 68, 80
2, 67584, Note_on_c, 0, 62, 80
2, 67772, Note_off_c, 0, 68, 100
2, 67772, Note_off_c, 0, 62, 100
2, 67776, Note_on_c, 0, 67, 80
2, 67776, Note_on_c, 0, 63, 80
2, 67964, Note_off_c, 0, 67, 100
2, 67964, Note_off_c, 0, 63, 100
2, 68352, Note_on_c, 0, 74, 80
2, 68352, Note_on_c, 0, 68, 80
2, 68540, Note_off_c, 0, 74, 100
2, 68540, Note_off_c, 0, 68, 100
2, 68544, Note_on_c, 0, 75, 80
2, 68544, Note_on_c, 0, 67, 80
2, 68732, Note_off_c, 0, 75, 100
2, 68732, Note_off_c, 0, 67, 100
2, 69120, Note_on_c, 0, 80, 80
2, 69120, Note_on_c, 0, 74, 80
2, 69308, Note_off_c, 0, 80, 100
2, 69308, Note_off_c, 0, 74, 100
2, 69312, Note_on_c, 0, 75, 80
2, 69312, Note_on_c, 0, 79, 80
2, 69500, Note_off_c, 0, 75, 100
2, 69500, Note_off_c, 0, 79, 100
2, 69888, Note_on_c, 0, 80, 80
2, 69888, Note_on_c, 0, 86, 80
2, 70076, Note_off_c, 0, 80, 100
2, 70076, Note_off_c, 0, 86, 100
2, 70080, Note_on_c, 0, 79, 80
2, 70080, Note_on_c, 0, 87, 80
2, 70268, Note_off_c, 0, 79, 100
2, 70268, Note_off_c, 0, 87, 100
2, 70656, Note_on_c, 0, 63, 80
2, 70656, Note_on_c, 0, 58, 80
2, 70656, Note_on_c, 0, 55, 80
2, 71036, Note_off_c, 0, 63, 100
2, 71036, Note_off_c, 0, 58, 100
2, 71036, Note_off_c, 0, 55, 100
2, 72384, Note_on_c, 0, 60, 80
2, 72572, Note_off_c, 0, 60, 100
2, 72576, Note_on_c, 0, 59, 80
2, 72764, Note_off_c, 0, 59, 100
2, 72768, Note_on_c, 0, 60, 80
2, 72956, Note_off_c, 0, 60, 100
2, 72960, Note_on_c, 0, 65, 80
2, 73148, Note_off_c, 0, 65, 100
2, 73152, Note_on_c, 0, 65, 80
2, 73340, Note_off_c, 0, 65, 100
2, 73344, Note_on_c, 0, 63, 80
2, 73724, Note_off_c, 0, 63, 100
2, 73920, Note_on_c, 0, 60, 80
2, 74108, Note_off_c, 0, 60, 100
2, 74112, Note_on_c, 0, 59, 80
2, 74300, Note_off_c, 0, 59, 100
2, 74304, Note_on_c, 0, 60, 80
2, 74492, Note_off_c, 0, 60, 100
2, 74496, Note_on_c, 0, 68, 80
2, 74684, Note_off_c, 0, 68, 100
2, 74688, Note_on_c, 0, 68, 80
2, 74876, Note_off_c, 0, 68, 100
2, 74880, Note_on_c, 0, 67, 80
2, 75260, Note_off_c, 0, 67, 100
2, 75456, Note_on_c, 0, 60, 80
2, 75644, Note_off_c, 0, 60, 100
2, 75648, Note_on_c, 0, 59, 80
2, 75836, Note_off_c, 0, 59, 100
2, 75840, Note_on_c, 0, 60, 80
2, 76028, Note_off_c, 0, 60, 100
2, 76032, Note_on_c, 0, 72, 80
2, 76220, Note_off_c, 0, 72, 100
2, 76224, Note_on_c, 0, 72, 80
2, 76412, Note_off_c, 0, 72, 100
2, 76416, Note_on_c, 0, 72, 80
2, 76604, Note_off_c, 0, 72, 100
2, 76608, Note_on_c, 0, 74, 80
2, 76656, Note_on_c, 0, 72, 80
2, 76700, Note_off_c, 0, 74, 100
2, 76704, Note_on_c, 0, 71, 80
2, 76748, Note_off_c, 0, 72, 100
2, 76752, Note_on_c, 0, 72, 80
2, 76796, Note_off_c, 0, 71, 100
2, 76796, Note_off_c, 0, 72, 100
2, 76800, Note_on_c, 0, 75, 80
2, 76988, Note_off_c, 0, 75, 100
2, 76992, Note_on_c, 0, 74, 80
2, 77180, Note_off_c, 0, 74, 100
2, 77184, Note_on_c, 0, 77, 80
2, 77372, Note_off_c, 0, 77, 100
2, 77376, Note_on_c, 0, 75, 80
2, 77564, Note_off_c, 0, 75, 100
2, 77568, Note_on_c, 0, 74, 80
2, 77756, Note_off_c, 0, 74, 100
2, 77760, Note_on_c, 0, 72, 80
2, 77948, Note_off_c, 0, 72, 100
2, 77952, Note_on_c, 0, 71, 80
2, 78332, Note_off_c, 0, 71, 100
2, 78528, Note_on_c, 0, 55, 80
2, 78716, Note_off_c, 0, 55, 100
2, 78720, Note_on_c, 0, 54, 80
2, 78908, Note_off_c, 0, 54, 100
2, 78912, Note_on_c, 0, 55, 80
2, 79100, Note_off_c, 0, 55, 100
2, 79104, Note_on_c, 0, 60, 80
2, 79292, Note_off_c, 0, 60, 100
2, 79296, Note_on_c, 0, 60, 80
2, 79484, Note_off_c, 0, 60, 100
2, 79488, Note_on_c, 0, 59, 80
2, 79868, Note_off_c, 0, 59, 100
2, 80064, Note_on_c, 0, 55, 80
2, 80252, Note_off_c, 0, 55, 100
2, 80256, Note_on_c, 0, 54, 80
2, 80444, Note_off_c, 0, 54, 100
2, 80448, Note_on_c, 0, 55, 80
2, 80636, Note_off_c, 0, 55, 100
2, 80640, Note_on_c, 0, 63, 80
2, 80828, Note_off_c, 0, 63, 100
2, 80832, Note_on_c, 0, 63, 80
2, 81020, Note_off_c, 0, 63, 100
2, 81024, Note_on_c, 0, 62, 80
2, 81404, Note_off_c, 0, 62, 100
2, 81600, Note_on_c, 0, 55, 80
2, 81788, Note_off_c, 0, 55, 100
2, 81792, Note_on_c, 0, 59, 80
2, 81980, Note_off_c, 0, 59, 100
2, 81984, Note_on_c, 0, 62, 80
2, 82172, Note_off_c, 0, 62, 100
2, 82176, Note_on_c, 0, 65, 80
2, 82364, Note_off_c, 0, 65, 100
2, 82368, Note_on_c, 0, 68, 80
2, 82556, Note_off_c, 0, 68, 100
2, 82560, Note_on_c, 0, 71, 80
2, 82748, Note_off_c, 0, 71, 100
2, 82752, Note_on_c, 0, 74, 80
2, 82940, Note_off_c, 0, 74, 100
2, 82944, Note_on_c, 0, 77, 80
2, 83132, Note_off_c, 0, 77, 100
2, 83136, Note_on_c, 0, 80, 80
2, 83324, Note_off_c, 0, 80, 100
2, 83328, Note_on_c, 0, 79, 80
2, 83516, Note_off_c, 0, 79, 100
2, 83520, Note_on_c, 0, 77, 80
2, 83708, Note_off_c, 0, 77, 100
2, 83712, Note_on_c, 0, 75, 80
2, 83900, Note_off_c, 0, 75, 100
2, 83904, Note_on_c, 0, 74, 80
2, 84092, Note_off_c, 0, 74, 100
2, 84096, Note_on_c, 0, 72, 80
2, 84476, Note_off_c, 0, 72, 100
2, 84672, Note_on_c, 0, 72, 80
2, 84860, Note_off_c, 0, 72, 100
2, 84864, Note_on_c, 0, 71, 80
2, 85052, Note_off_c, 0, 71, 100
2, 85056, Note_on_c, 0, 72, 80
2, 85244, Note_off_c, 0, 72, 100
2, 85248, Note_on_c, 0, 84, 80
2, 85436, Note_off_c, 0, 84, 100
2, 85440, Note_on_c, 0, 84, 80
2, 85628, Note_off_c, 0, 84, 100
2, 85632, Note_on_c, 0, 84, 80
2, 86012, Note_off_c, 0, 84, 100
2, 86208, Note_on_c, 0, 89, 80
2, 86396, Note_off_c, 0, 89, 100
2, 86400, Note_on_c, 0, 87, 80
2, 86588, Note_off_c, 0, 87, 100
2, 86592, Note_on_c, 0, 86, 80
2, 86780, Note_off_c, 0, 86, 100
2, 86784, Note_on_c, 0, 84, 80
2, 86972, Note_off_c, 0, 84, 100
2, 86976, Note_on_c, 0, 83, 80
2, 87164, Note_off_c, 0, 83, 100
2, 87168, Note_on_c, 0, 86, 80
2, 87356, Note_off_c, 0, 86, 100
2, 87360, Note_on_c, 0, 84, 80
2, 87548, Note_off_c, 0, 84, 100
2, 87744, Note_on_c, 0, 72, 80
2, 87932, Note_off_c, 0, 72, 100
2, 87936, Note_on_c, 0, 71, 80
2, 88124, Note_off_c, 0, 71, 100
2, 88128, Note_on_c, 0, 72, 80
2, 88316, Note_off_c, 0, 72, 100
2, 88320, Note_on_c, 0, 84, 80
2, 88508, Note_off_c, 0, 84, 100
2, 88512, Note_on_c, 0, 84, 80
2, 88700, Note_off_c, 0, 84, 100
2, 88704, Note_on_c, 0, 84, 80
2, 88892, Note_off_c, 0, 84, 100
2, 88896, Note_on_c, 0, 86, 80
2, 88956, Note_off_c, 0, 86, 100
2, 88960, Note_on_c, 0, 84, 80
2, 89020, Note_off_c, 0, 84, 100
2, 89024, Note_on_c, 0, 83, 80
2, 89084, Note_off_c, 0, 83, 100
2, 89088, Note_on_c, 0, 84, 80
2, 89276, Note_off_c, 0, 84, 100
2, 89280, Note_on_c, 0, 89, 80
2, 89468, Note_off_c, 0, 89, 100
2, 89472, Note_on_c, 0, 87, 80
2, 89660, Note_off_c, 0, 87, 100
2, 89664, Note_on_c, 0, 86, 80
2, 89852, Note_off_c, 0, 86, 100
2, 89856, Note_on_c, 0, 84, 80
2, 90044, Note_off_c, 0, 84, 100
2, 90048, Note_on_c, 0, 83, 80
2, 90236, Note_off_c, 0, 83, 100
2, 90240, Note_on_c, 0, 84, 80
2, 90332, Note_off_c, 0, 84, 100
2, 90336, Note_on_c, 0, 86, 80
2, 90428, Note_off_c, 0, 86, 100
2, 90432, Note_on_c, 0, 84, 81
2, 90524, Note_off_c, 0, 84, 100
2, 90528, Note_on_c, 0, 83, 82
2, 90620, Note_off_c, 0, 83, 100
2, 90624, Note_on_c, 0, 84, 83
2, 90716, Note_off_c, 0, 84, 100
2, 90720, Note_on_c, 0, 87, 83
2, 90812, Note_off_c, 0, 87, 100
2, 90816, Note_on_c, 0, 86, 84
2, 90908, Note_off_c, 0, 86, 100
2, 90912, Note_on_c, 0, 84, 85
2, 91004, Note_off_c, 0, 84, 100
2, 91008, Note_on_c, 0, 83, 86
2, 91100, Note_off_c, 0, 83, 100
2, 91104, Note_on_c, 0, 84, 87
2, 91196, Note_off_c, 0, 84, 100
2, 91200, Note_on_c, 0, 83, 87
2, 91292, Note_off_c, 0, 83, 100
2, 91296, Note_on_c, 0, 80, 88
2, 91388, Note_off_c, 0, 80, 100
2, 91392, Note_on_c, 0, 79, 89
2, 91484, Note_off_c, 0, 79, 100
2, 91488, Note_on_c, 0, 77, 90
2, 91580, Note_off_c, 0, 77, 100
2, 91584, Note_on_c, 0, 75, 91
2, 91676, Note_off_c, 0, 75, 100
2, 91680, Note_on_c, 0, 74, 91
2, 91772, Note_off_c, 0, 74, 100
2, 91776, Note_on_c, 0, 72, 92
2, 91868, Note_off_c, 0, 72, 100
2, 91872, Note_on_c, 0, 74, 93
2, 91964, Note_off_c, 0, 74, 100
2, 91968, Note_on_c, 0, 72, 94
2, 92060, Note_off_c, 0, 72, 100
2, 92064, Note_on_c, 0, 71, 94
2, 92156, Note_off_c, 0, 71, 100
2, 92160, Note_on_c, 0, 72, 95
2, 92252, Note_off_c, 0, 72, 100
2, 92256, Note_on_c, 0, 75, 96
2, 92348, Note_off_c, 0, 75, 100
2, 92352, Note_on_c, 0, 74, 97
2, 92444, Note_off_c, 0, 74, 100
2, 92448, Note_on_c, 0, 72, 98
2, 92540, Note_off_c, 0, 72, 100
2, 92544, Note_on_c, 0, 71, 98
2, 92636, Note_off_c, 0, 71, 100
2, 92640, Note_on_c, 0, 72, 99
2, 92732, Note_off_c, 0, 72, 100
2, 92736, Note_on_c, 0, 71, 100
2, 92828, Note_off_c, 0, 71, 100
2, 92832, Note_on_c, 0, 68, 101
2, 92924, Note_off_c, 0, 68, 100
2, 92928, Note_on_c, 0, 67, 102
2, 93020, Note_off_c, 0, 67, 100
2, 93024, Note_on_c, 0, 65, 102
2, 93116, Note_off_c, 0, 65, 100
2, 93120, Note_on_c, 0, 63, 103
2, 93212, Note_off_c, 0, 63, 100
2, 93216, Note_on_c, 0, 62, 104
2, 93308, Note_off_c, 0, 62, 100
2, 93312, Note_on_c, 0, 60, 105
2, 93404, Note_off_c, 0, 60, 100
2, 93408, Note_on_c, 0, 62, 106
2, 93500, Note_off_c, 0, 62, 100
2, 93504, Note_on_c, 0, 60, 106
2, 93596, Note_off_c, 0, 60, 100
2, 93600, Note_on_c, 0, 59, 107
2, 93692, Note_off_c, 0, 59, 100
2, 93696, Note_on_c, 0, 60, 108
2, 93788, Note_off_c, 0, 60, 100
2, 93792, Note_on_c, 0, 63, 109
2, 93884, Note_off_c, 0, 63, 100
2, 93888, Note_on_c, 0, 62, 109
2, 93980, Note_off_c, 0, 62, 100
2, 93984, Note_on_c, 0, 60, 110
2, 94076, Note_off_c, 0, 60, 100
2, 94080, Note_on_c, 0, 59, 110
2, 94172, Note_off_c, 0, 59, 100
2, 94176, Note_on_c, 0, 67, 110
2, 94268, Note_off_c, 0, 67, 100
2, 94272, Note_on_c, 0, 62, 110
2, 94364, Note_off_c, 0, 62, 100
2, 94368, Note_on_c, 0, 59, 110
2, 94460, Note_off_c, 0, 59, 100
2, 94464, Note_on_c, 0, 55, 110
2, 94556, Note_off_c, 0, 55, 100
2, 94560, Note_on_c, 0, 67, 110
2, 94652, Note_off_c, 0, 67, 100
2, 94656, Note_on_c, 0, 63, 110
2, 94748, Note_off_c, 0, 63, 100
2, 94752, Note_on_c, 0, 60, 110
2, 94844, Note_off_c, 0, 60, 100
2, 94848, Note_on_c, 0, 55, 110
2, 94940, Note_off_c, 0, 55, 100
2, 94944, Note_on_c, 0, 67, 110
2, 95036, Note_off_c, 0, 67, 100
2, 95040, Note_on_c, 0, 62, 110
2, 95132, Note_off_c, 0, 62, 100
2, 95136, Note_on_c, 0, 59, 110
2, 95228, Note_off_c, 0, 59, 100
2, 95232, Note_on_c, 0, 55, 110
2, 95324, Note_off_c, 0, 55, 100
2, 95328, Note_on_c, 0, 67, 110
2, 95420, Note_off_c, 0, 67, 100
2, 95424, Note_on_c, 0, 63, 110
2, 95516, Note_off_c, 0, 63, 100
2, 95520, Note_on_c, 0, 60, 110
2, 95612, Note_off_c, 0, 60, 100
2, 95616, Note_on_c, 0, 55, 110
2, 95708, Note_off_c, 0, 55, 100
2, 95712, Note_on_c, 0, 67, 110
2, 95804, Note_off_c, 0, 67, 100
2, 95808, Note_on_c, 0, 62, 110
2, 95900, Note_off_c, 0, 62, 100
2, 95904, Note_on_c, 0, 59, 110
2, 95996, Note_off_c, 0, 59, 100
2, 96000, Note_on_c, 0, 55, 110
2, 96092, Note_off_c, 0, 55, 100
2, 96096, Note_on_c, 0, 67, 110
2, 96188, Note_off_c, 0, 67, 100
2, 96192, Note_on_c, 0, 63, 110
2, 96284, Note_off_c, 0, 63, 100
2, 96288, Note_on_c, 0, 60, 110
2, 96380, Note_off_c, 0, 60, 100
2, 96384, Note_on_c, 0, 67, 120
2, 96384, Note_on_c, 0, 62, 120
2, 96384, Note_on_c, 0, 59, 120
2, 96384, Note_on_c, 0, 55, 120
2, 98684, Note_off_c, 0, 55, 100
2, 98684, Note_off_c, 0, 59, 100
2, 98684, Note_off_c, 0, 62, 100
2, 98684, Note_off_c, 0, 67, 100
2, 98880, Note_on_c, 0, 58, 80
2, 99068, Note_off_c, 0, 58, 100
2, 99072, Note_on_c, 0, 60, 80
2, 99260, Note_off_c, 0, 60, 100
2, 99264, Note_on_c, 0, 62, 80
2, 99452, Note_off_c, 0, 62, 100
2, 99456, Note_on_c, 0, 63, 80
2, 99456, Note_on_c, 0, 58, 80
2, 99456, Note_on_c, 0, 55, 80
2, 99644, Note_off_c, 0, 63, 100
2, 99648, Note_on_c, 0, 65, 80
2, 99836, Note_off_c, 0, 65, 100
2, 99840, Note_on_c, 0, 67, 80
2, 100220, Note_off_c, 0, 58, 100
2, 100220, Note_off_c, 0, 55, 100
2, 100220, Note_off_c, 0, 67, 100
2, 100224, Note_on_c, 0, 65, 80
2, 100224, Note_on_c, 0, 62, 80
2, 100224, Note_on_c, 0, 58, 80
2, 100604, Note_off_c, 0, 65, 100
2, 100604, Note_off_c, 0, 62, 100
2, 100604, Note_off_c, 0, 58, 100
2, 100608, Note_on_c, 0, 63, 80
2, 100608, Note_on_c, 0, 58, 80
2, 100988, Note_off_c, 0, 63, 100
2, 100988, Note_off_c, 0, 58, 100
2, 100992, Note_on_c, 0, 68, 80
2, 100992, Note_on_c, 0, 62, 80
2, 100992, Note_on_c, 0, 58, 80
2, 100992, Note_on_c, 0, 56, 80
2, 101756, Note_off_c, 0, 68, 100
2, 101756, Note_off_c, 0, 62, 100
2, 101756, Note_off_c, 0, 58, 100
2, 101756, Note_off_c, 0, 56, 100
2, 101952, Note_on_c, 0, 58, 80
2, 102140, Note_off_c, 0, 58, 100
2, 102144, Note_on_c, 0, 60, 80
2, 102332, Note_off_c, 0, 60, 100
2, 102336, Note_on_c, 0, 62, 80
2, 102524, Note_off_c, 0, 62, 100
2, 102528, Note_on_c, 0, 63, 80
2, 102528, Note_on_c, 0, 58, 80
2, 102528, Note_on_c, 0, 55, 80
2, 102716, Note_off_c, 0, 63, 100
2, 102720, Note_on_c, 0, 65, 80
2, 102908, Note_off_c, 0, 65, 100
2, 102912, Note_on_c, 0, 67, 80
2, 103292, Note_off_c, 0, 58, 100
2, 103292, Note_off_c, 0, 55, 100
2, 103292, Note_off_c, 0, 67, 100
2, 103296, Note_on_c, 0, 65, 80
2, 103296, Note_on_c, 0, 60, 80
2, 103296, Note_on_c, 0, 53, 80
2, 103676, Note_off_c, 0, 65, 100
2, 103676, Note_off_c, 0, 60, 100
2, 103676, Note_off_c, 0, 53, 100
2, 103680, Note_on_c, 0, 63, 80
2, 103680, Note_on_c, 0, 60, 80
2, 103680, Note_on_c, 0, 53, 80
2, 104060, Note_off_c, 0, 63, 100
2, 104060, Note_off_c, 0, 60, 100
2, 104060, Note_off_c, 0, 53, 100
2, 104064, Note_on_c, 0, 58, 80
2, 104064, Note_on_c, 0, 53, 80
2, 104064, Note_on_c, 0, 50, 80
2, 104828, Note_off_c, 0, 58, 100
2, 104828, Note_off_c, 0, 53, 100
2, 104828, Note_off_c, 0, 50, 100
2, 105024, Note_on_c, 0, 58, 80
2, 105212, Note_off_c, 0, 58, 100
2, 105216, Note_on_c, 0, 60, 80
2, 105404, Note_off_c, 0, 60, 100
2, 105408, Note_on_c, 0, 62, 80
2, 105596, Note_off_c, 0, 62, 100
2, 105600, Note_on_c, 0, 63, 80
2, 105788, Note_off_c, 0, 63, 100
2, 105792, Note_on_c, 0, 65, 80
2, 105980, Note_off_c, 0, 65, 100
2, 105984, Note_on_c, 0, 67, 80
2, 106364, Note_off_c, 0, 67, 100
2, 106368, Note_on_c, 0, 65, 80
2, 106368, Note_on_c, 0, 62, 80
2, 106368, Note_on_c, 0, 58, 80
2, 106748, Note_off_c, 0, 65, 100
2, 106748, Note_off_c, 0, 62, 100
2, 106748, Note_off_c, 0, 58, 100
2, 106752, Note_on_c, 0, 63, 80
2, 106752, Note_on_c, 0, 58, 80
2, 107132, Note_off_c, 0, 63, 100
2, 107132, Note_off_c, 0, 58, 100
2, 107136, Note_on_c, 0, 60, 110
2, 107184, Note_on_c, 0, 63, 110
2, 107232, Note_on_c, 0, 68, 110
2, 107276, Note_off_c, 0, 60, 100
2, 107276, Note_off_c, 0, 63, 100
2, 107276, Note_off_c, 0, 68, 100
2, 107280, Note_on_c, 0, 72, 110
2, 108092, Note_off_c, 0, 72, 100
2, 108096, Note_on_c, 0, 72, 80
2, 108284, Note_off_c, 0, 72, 100
2, 108288, Note_on_c, 0, 70, 80
2, 108476, Note_off_c, 0, 70, 100
2, 108480, Note_on_c, 0, 68, 80
2, 108668, Note_off_c, 0, 68, 100
2, 108672, Note_on_c, 0, 67, 102
2, 108860, Note_off_c, 0, 67, 100
2, 108864, Note_on_c, 0, 65, 80
2, 109052, Note_off_c, 0, 65, 100
2, 109056, Note_on_c, 0, 63, 80
2, 109244, Note_off_c, 0, 63, 100
2, 109248, Note_on_c, 0, 62, 80
2, 109436, Note_off_c, 0, 62, 100
2, 109440, Note_on_c, 0, 60, 80
2, 109440, Note_on_c, 0, 56, 80
2, 109440, Note_on_c, 0, 53, 80
2, 109820, Note_off_c, 0, 60, 100
2, 109824, Note_on_c, 0, 58, 80
2, 110204, Note_off_c, 0, 56, 100
2, 110204, Note_off_c, 0, 53, 100
2, 110204, Note_off_c, 0, 58, 100
2, 110208, Note_on_c, 0, 58, 80
2, 110208, Note_on_c, 0, 55, 80
2, 110208, Note_on_c, 0, 51, 80
2, 110972, Note_off_c, 0, 58, 100
2, 110972, Note_off_c, 0, 55, 100
2, 110972, Note_off_c, 0, 51, 100
2, 111168, Note_on_c, 0, 70, 80
2, 111356, Note_off_c, 0, 70, 100
2, 111360, Note_on_c, 0, 68, 80
2, 111548, Note_off_c, 0, 68, 100
2, 111552, Note_on_c, 0, 67, 80
2, 111740, Note_off_c, 0, 67, 100
2, 111744, Note_on_c, 0, 67, 103
2, 111932, Note_off_c, 0, 67, 100
2, 111936, Note_on_c, 0, 65, 80
2, 112124, Note_off_c, 0, 65, 100
2, 112128, Note_on_c, 0, 63, 80
2, 112316, Note_off_c, 0, 63, 100
2, 112320, Note_on_c, 0, 62, 80
2, 112508, Note_off_c, 0, 62, 100
2, 112512, Note_on_c, 0, 60, 80
2, 112512, Note_on_c, 0, 56, 80
2, 112512, Note_on_c, 0, 53, 80
2, 112892, Note_off_c, 0, 60, 100
2, 112896, Note_on_c, 0, 58, 80
2, 113276, Note_off_c, 0, 56, 100
2, 113276, Note_off_c, 0, 53, 100
2, 113276, Note_off_c, 0, 58, 100
2, 113280, Note_on_c, 0, 58, 80
2, 113280, Note_on_c, 0, 55, 80
2, 113280, Note_on_c, 0, 51, 80
2, 114044, Note_off_c, 0, 58, 100
2, 114044, Note_off_c, 0, 55, 100
2, 114044, Note_off_c, 0, 51, 100
2, 114240, Note_on_c, 0, 70, 80
2, 114240, Note_on_c, 0, 82, 80
2, 114428, Note_off_c, 0, 70, 100
2, 114428, Note_off_c, 0, 82, 100
2, 114432, Note_on_c, 0, 68, 80
2, 114432, Note_on_c, 0, 80, 80
2, 114620, Note_off_c, 0, 68, 100
2, 114620, Note_off_c, 0, 80, 100
2, 114624, Note_on_c, 0, 67, 80
2, 114624, Note_on_c, 0, 79, 80
2, 114812, Note_off_c, 0, 67, 100
2, 114812, Note_off_c, 0, 79, 100
2, 114816, Note_on_c, 0, 79, 80
2, 114816, Note_on_c, 0, 67, 80
2, 115004, Note_off_c, 0, 79, 100
2, 115004, Note_off_c, 0, 67, 100
2, 115008, Note_on_c, 0, 77, 80
2, 115008, Note_on_c, 0, 65, 80
2, 115196, Note_off_c, 0, 77, 100
2, 115196, Note_off_c, 0, 65, 100
2, 115200, Note_on_c, 0, 75, 80
2, 115200, Note_on_c, 0, 63, 80
2, 115388, Note_off_c, 0, 75, 100
2, 115388, Note_off_c, 0, 63, 100
2, 115392, Note_on_c, 0, 74, 80
2, 115392, Note_on_c, 0, 62, 80
2, 115580, Note_off_c, 0, 74, 100
2, 115580, Note_off_c, 0, 62, 100
2, 115584, Note_on_c, 0, 72, 80
2, 115584, Note_on_c, 0, 60, 80
2, 115772, Note_off_c, 0, 72, 100
2, 115772, Note_off_c, 0, 60, 100
2, 115776, Note_on_c, 0, 70, 80
2, 115776, Note_on_c, 0, 58, 80
2, 115964, Note_off_c, 0, 70, 100
2, 115964, Note_off_c, 0, 58, 100
2, 115968, Note_on_c, 0, 72, 80
2, 115968, Note_on_c, 0, 60, 80
2, 116156, Note_off_c, 0, 72, 100
2, 116156, Note_off_c, 0, 60, 100
2, 116160, Note_on_c, 0, 74, 80
2, 116160, Note_on_c, 0, 62, 80
2, 116348, Note_off_c, 0, 74, 100
2, 116348, Note_off_c, 0, 62, 100
2, 116352, Note_on_c, 0, 63, 80
2, 116444, Note_off_c, 0, 63, 100
2, 116448, Note_on_c, 0, 75, 80
2, 116540, Note_off_c, 0, 75, 100
2, 116544, Note_on_c, 0, 63, 81
2, 116636, Note_off_c, 0, 63, 100
2, 116640, Note_on_c, 0, 75, 81
2, 116732, Note_off_c, 0, 75, 100
2, 116736, Note_on_c, 0, 63, 82
2, 116828, Note_off_c, 0, 63, 100
2, 116832, Note_on_c, 0, 75, 83
2, 116924, Note_off_c, 0, 75, 100
2, 116928, Note_on_c, 0, 63, 83
2, 117020, Note_off_c, 0, 63, 100
2, 117024, Note_on_c, 0, 75, 84
2, 117116, Note_off_c, 0, 75, 100
2, 117120, Note_on_c, 0, 63, 85
2, 117212, Note_off_c, 0, 63, 100
2, 117216, Note_on_c, 0, 75, 85
2, 117308, Note_off_c, 0, 75, 100
2, 117312, Note_on_c, 0, 63, 86
2, 117404, Note_off_c, 0, 63, 100
2, 117408, Note_on_c, 0, 75, 87
2, 117500, Note_off_c, 0, 75, 100
2, 117504, Note_on_c, 0, 63, 87
2, 117596, Note_off_c, 0, 63, 100
2, 117600, Note_on_c, 0, 75, 88
2, 117692, Note_off_c, 0, 75, 100
2, 117696, Note_on_c, 0, 63, 88
2, 117788, Note_off_c, 0, 63, 100
2, 117792, Note_on_c, 0, 75, 89
2, 117884, Note_off_c, 0, 75, 100
2, 117888, Note_on_c, 0, 63, 90
2, 117980, Note_off_c, 0, 63, 100
2, 117984, Note_on_c, 0, 75, 90
2, 118076, Note_off_c, 0, 75, 100
2, 118080, Note_on_c, 0, 63, 91
2, 118172, Note_off_c, 0, 63, 100
2, 118176, Note_on_c, 0, 75, 92
2, 118268, Note_off_c, 0, 75, 100
2, 118272, Note_on_c, 0, 63, 92
2, 118364, Note_off_c, 0, 63, 100
2, 118368, Note_on_c, 0, 75, 93
2, 118460, Note_off_c, 0, 75, 100
2, 118464, Note_on_c, 0, 63, 94
2, 118556, Note_off_c, 0, 63, 100
2, 118560, Note_on_c, 0, 75, 94
2, 118652, Note_off_c, 0, 75, 100
2, 118656, Note_on_c, 0, 63, 95
2, 118748, Note_off_c, 0, 63, 100
2, 118752, Note_on_c, 0, 75, 95
2, 118844, Note_off_c, 0, 75, 100
2, 118848, Note_on_c, 0, 63, 96
2, 118940, Note_off_c, 0, 63, 100
2, 118944, Note_on_c, 0, 75, 97
2, 119036, Note_off_c, 0, 75, 100
2, 119040, Note_on_c, 0, 63, 97
2, 119132, Note_off_c, 0, 63, 100
2, 119136, Note_on_c, 0, 75, 98
2, 119228, Note_off_c, 0, 75, 100
2, 119232, Note_on_c, 0, 63, 99
2, 119324, Note_off_c, 0, 63, 100
2, 119328, Note_on_c, 0, 75, 99
2, 119420, Note_off_c, 0, 75, 100
2, 119424, Note_on_c, 0, 75, 100
2, 119424, Note_on_c, 0, 63, 100
2, 119804, Note_off_c, 0, 75, 100
2, 119804, Note_off_c, 0, 63, 100
2, 120000, Note_on_c, 0, 75, 104
2, 120188, Note_off_c, 0, 75, 100
2, 120192, Note_on_c, 0, 74, 105
2, 120380, Note_off_c, 0, 74, 100
2, 120384, Note_on_c, 0, 75, 106
2, 120572, Note_off_c, 0, 75, 100
2, 120576, Note_on_c, 0, 80, 108
2, 120576, Note_on_c, 0, 84, 108
2, 120764, Note_off_c, 0, 80, 100
2, 120764, Note_off_c, 0, 84, 100
2, 120768, Note_on_c, 0, 80, 109
2, 120768, Note_on_c, 0, 84, 109
2, 120956, Note_off_c, 0, 80, 100
2, 120956, Note_off_c, 0, 84, 100
2, 120960, Note_on_c, 0, 80, 120
2, 120960, Note_on_c, 0, 84, 120
2, 121340, Note_off_c, 0, 80, 100
2, 121436, Note_off_c, 0, 84, 100
2, 121440, Note_on_c, 0, 82, 120
2, 121532, Note_off_c, 0, 82, 100
2, 121536, Note_on_c, 0, 80, 120
2, 121628, Note_off_c, 0, 80, 100
2, 121632, Note_on_c, 0, 79, 120
2, 121724, Note_off_c, 0, 79, 100
2, 121728, Note_on_c, 0, 77, 120
2, 121820, Note_off_c, 0, 77, 100
2, 121824, Note_on_c, 0, 75, 120
2, 121916, Note_off_c, 0, 75, 100
2, 121920, Note_on_c, 0, 74, 120
2, 122012, Note_off_c, 0, 74, 100
2, 122016, Note_on_c, 0, 72, 120
2, 122108, Note_off_c, 0, 72, 100
2, 122112, Note_on_c, 0, 71, 120
2, 122204, Note_off_c, 0, 71, 100
2, 122208, Note_on_c, 0, 70, 120
2, 122300, Note_off_c, 0, 70, 100
2, 122304, Note_on_c, 0, 69, 120
2, 122396, Note_off_c, 0, 69, 100
2, 122400, Note_on_c, 0, 68, 120
2, 122492, Note_off_c, 0, 68, 100
2, 122496, Note_on_c, 0, 67, 120
2, 122620, Note_off_c, 0, 67, 100
2, 122624, Note_on_c, 0, 68, 120
2, 122748, Note_off_c, 0, 68, 100
2, 122752, Note_on_c, 0, 70, 120
2, 122876, Note_off_c, 0, 70, 100
2, 122880, Note_on_c, 0, 68, 120
2, 123004, Note_off_c, 0, 68, 100
2, 123008, Note_on_c, 0, 67, 120
2, 123132, Note_off_c, 0, 67, 100
2, 123136, Note_on_c, 0, 65, 120
2, 123260, Note_off_c, 0, 65, 100
2, 123264, Note_on_c, 0, 63, 120
2, 123388, Note_off_c, 0, 63, 100
2, 123392, Note_on_c, 0, 62, 120
2, 123516, Note_off_c, 0, 62, 100
2, 123520, Note_on_c, 0, 60, 120
2, 123644, Note_off_c, 0, 60, 100
2, 123648, Note_on_c, 0, 58, 120
2, 123772, Note_off_c, 0, 58, 100
2, 123776, Note_on_c, 0, 56, 120
2, 123900, Note_off_c, 0, 56, 100
2, 123904, Note_on_c, 0, 55, 120
2, 124028, Note_off_c, 0, 55, 100
2, 124128, Note_on_c, 0, 53, 120
2, 124220, Note_off_c, 0, 53, 100
2, 124224, Note_on_c, 0, 56, 120
2, 124316, Note_off_c, 0, 56, 100
2, 124320, Note_on_c, 0, 60, 120
2, 124412, Note_off_c, 0, 60, 100
2, 124416, Note_on_c, 0, 65, 120
2, 124796, Note_off_c, 0, 65, 100
2, 124896, Note_on_c, 0, 53, 120
2, 124988, Note_off_c, 0, 53, 100
2, 124992, Note_on_c, 0, 56, 120
2, 125084, Note_off_c, 0, 56, 100
2, 125088, Note_on_c, 0, 58, 120
2, 125180, Note_off_c, 0, 58, 100
2, 125184, Note_on_c, 0, 62, 120
2, 125564, Note_off_c, 0, 62, 100
2, 125568, Note_on_c, 0, 74, 120
2, 125660, Note_off_c, 0, 74, 100
2, 125664, Note_on_c, 0, 86, 120
2, 125756, Note_off_c, 0, 86, 100
2, 125760, Note_on_c, 0, 74, 120
2, 125852, Note_off_c, 0, 74, 100
2, 125856, Note_on_c, 0, 86, 120
2, 125948, Note_off_c, 0, 86, 100
2, 125952, Note_on_c, 0, 74, 120
2, 126044, Note_off_c, 0, 74, 100
2, 126048, Note_on_c, 0, 86, 120
2, 126140, Note_off_c, 0, 86, 100
2, 126144, Note_on_c, 0, 74, 120
2, 126236, Note_off_c, 0, 74, 100
2, 126240, Note_on_c, 0, 86, 120
2, 126332, Note_off_c, 0, 86, 100
2, 126336, Note_on_c, 0, 74, 120
2, 126428, Note_off_c, 0, 74, 100
2, 126432, Note_on_c, 0, 86, 120
2, 126524, Note_off_c, 0, 86, 100
2, 126528, Note_on_c, 0, 74, 120
2, 126620, Note_off_c, 0, 74, 100
2, 126624, Note_on_c, 0, 86, 120
2, 126716, Note_off_c, 0, 86, 100
2, 126720, Note_on_c, 0, 74, 120
2, 126812, Note_off_c, 0, 74, 100
2, 126816, Note_on_c, 0, 86, 120
2, 126908, Note_off_c, 0, 86, 100
2, 126912, Note_on_c, 0, 74, 120
2, 127004, Note_off_c, 0, 74, 100
2, 127008, Note_on_c, 0, 86, 120
2, 127100, Note_off_c, 0, 86, 100
2, 127104, Note_on_c, 0, 75, 120
2, 127196, Note_off_c, 0, 75, 100
2, 127200, Note_on_c, 0, 87, 120
2, 127292, Note_off_c, 0, 87, 100
2, 127296, Note_on_c, 0, 75, 120
2, 127388, Note_off_c, 0, 75, 100
2, 127392, Note_on_c, 0, 87, 120
2, 127484, Note_off_c, 0, 87, 100
2, 127488, Note_on_c, 0, 75, 120
2, 127580, Note_off_c, 0, 75, 100
2, 127584, Note_on_c, 0, 87, 120
2, 127676, Note_off_c, 0, 87, 100
2, 127680, Note_on_c, 0, 75, 120
2, 127772, Note_off_c, 0, 75, 100
2, 127776, Note_on_c, 0, 87, 120
2, 127868, Note_off_c, 0, 87, 100
2, 127872, Note_on_c, 0, 75, 120
2, 127964, Note_off_c, 0, 75, 100
2, 127968, Note_on_c, 0, 87, 120
2, 128060, Note_off_c, 0, 87, 100
2, 128064, Note_on_c, 0, 75, 120
2, 128156, Note_off_c, 0, 75, 100
2, 128160, Note_on_c, 0, 87, 120
2, 128252, Note_off_c, 0, 87, 100
2, 128256, Note_on_c, 0, 76, 120
2, 128348, Note_off_c, 0, 76, 100
2, 128352, Note_on_c, 0, 88, 120
2, 128444, Note_off_c, 0, 88, 100
2, 128448, Note_on_c, 0, 76, 120
2, 128540, Note_off_c, 0, 76, 100
2, 128544, Note_on_c, 0, 88, 120
2, 128636, Note_off_c, 0, 88, 100
2, 128736, Note_on_c, 0, 77, 120
2, 128828, Note_off_c, 0, 77, 100
2, 128832, Note_on_c, 0, 80, 120
2, 128924, Note_off_c, 0, 80, 100
2, 128928, Note_on_c, 0, 84, 120
2, 129020, Note_off_c, 0, 84, 100
2, 129024, Note_on_c, 0, 89, 120
2, 129404, Note_off_c, 0, 89, 100
2, 129504, Note_on_c, 0, 74, 120
2, 129596, Note_off_c, 0, 74, 100
2, 129600, Note_on_c, 0, 77, 120
2, 129692, Note_off_c, 0, 77, 100
2, 129696, Note_on_c, 0, 80, 120
2, 129788, Note_off_c, 0, 80, 100
2, 129792, Note_on_c, 0, 86, 120
2, 130172, Note_off_c, 0, 86, 100
2, 130176, Note_on_c, 0, 87, 120
2, 130176, Note_on_c, 0, 82, 120
2, 130176, Note_on_c, 0, 79, 120
2, 130176, Note_on_c, 0, 75, 120
2, 130556, Note_off_c, 0, 87, 100
2, 130556, Note_off_c, 0, 82, 100
2, 130556, Note_off_c, 0, 79, 100
2, 130556, Note_off_c, 0, 75, 100
2, 130560, Note_on_c, 0, 82, 120
2, 130748, Note_off_c, 0, 82, 100
2, 130752, Note_on_c, 0, 82, 120
2, 130940, Note_off_c, 0, 82, 100
2, 130944, Note_on_c, 0, 82, 120
2, 131324, Note_off_c, 0, 82, 100
2, 131328, Note_on_c, 0, 82, 120
2, 131516, Note_off_c, 0, 82, 100
2, 131520, Note_on_c, 0, 82, 120
2, 131708, Note_off_c, 0, 82, 100
2, 131712, Note_on_c, 0, 82, 120
2, 132092, Note_off_c, 0, 82, 100
2, 132096, Note_on_c, 0, 62, 120
2, 132096, Note_on_c, 0, 56, 120
2, 132096, Note_on_c, 0, 53, 120
2, 132476, Note_off_c, 0, 62, 100
2, 132476, Note_off_c, 0, 56, 100
2, 132476, Note_off_c, 0, 53, 100
2, 132864, Note_on_c, 0, 62, 80
2, 132864, Note_on_c, 0, 56, 80
2, 132864, Note_on_c, 0, 53, 80
2, 133244, Note_off_c, 0, 62, 100
2, 133244, Note_off_c, 0, 56, 100
2, 133244, Note_off_c, 0, 53, 100
2, 133248, Note_on_c, 0, 63, 80
2, 133248, Note_on_c, 0, 55, 80
2, 133248, Note_on_c, 0, 51, 80
2, 133628, Note_off_c, 0, 63, 100
2, 133628, Note_off_c, 0, 55, 100
2, 133628, Note_off_c, 0, 51, 100
2, 133632, Note_on_c, 0, 65, 80
2, 133632, Note_on_c, 0, 63, 80
2, 133632, Note_on_c, 0, 60, 80
2, 134012, Note_off_c, 0, 65, 100
2, 134012, Note_off_c, 0, 63, 100
2, 134012, Note_off_c, 0, 60, 100
2, 134016, Note_on_c, 0, 67, 80
2, 134016, Note_on_c, 0, 63, 80
2, 134016, Note_on_c, 0, 58, 80
2, 134396, Note_off_c, 0, 67, 100
2, 134396, Note_off_c, 0, 63, 100
2, 134396, Note_off_c, 0, 58, 100
2, 134400, Note_on_c, 0, 65, 80
2, 134400, Note_on_c, 0, 56, 80
2, 134780, Note_off_c, 0, 65, 100
2, 134780, Note_off_c, 0, 56, 100
2, 134784, Note_on_c, 0, 63, 80
2, 134784, Note_on_c, 0, 55, 80
2, 135164, Note_off_c, 0, 63, 100
2, 135164, Note_off_c, 0, 55, 100
2, 135168, Note_on_c, 0, 82, 120
2, 135260, Note_off_c, 0, 82, 100
2, 135264, Note_on_c, 0, 84, 120
2, 135356, Note_off_c, 0, 84, 100
2, 135360, Note_on_c, 0, 82, 120
2, 135452, Note_off_c, 0, 82, 100
2, 135456, Note_on_c, 0, 81, 120
2, 135548, Note_off_c, 0, 81, 100
2, 135552, Note_on_c, 0, 82, 120
2, 135932, Note_off_c, 0, 82, 100
2, 135936, Note_on_c, 0, 82, 120
2, 136028, Note_off_c, 0, 82, 100
2, 136032, Note_on_c, 0, 84, 120
2, 136124, Note_off_c, 0, 84, 100
2, 136128, Note_on_c, 0, 82, 120
2, 136220, Note_off_c, 0, 82, 100
2, 136224, Note_on_c, 0, 81, 120
2, 136316, Note_off_c, 0, 81, 100
2, 136320, Note_on_c, 0, 82, 120
2, 136700, Note_off_c, 0, 82, 100
2, 136704, Note_on_c, 0, 62, 120
2, 136704, Note_on_c, 0, 56, 120
2, 136704, Note_on_c, 0, 53, 120
2, 137084, Note_off_c, 0, 62, 100
2, 137084, Note_off_c, 0, 56, 100
2, 137084, Note_off_c, 0, 53, 100
2, 137472, Note_on_c, 0, 63, 120
2, 137472, Note_on_c, 0, 57, 120
2, 137472, Note_on_c, 0, 54, 120
2, 137472, Note_on_c, 0, 51, 120
2, 138236, Note_off_c, 0, 51, 100
2, 138236, Note_off_c, 0, 54, 100
2, 138236, Note_off_c, 0, 57, 100
2, 138236, Note_off_c, 0, 63, 100
2, 138240, Note_on_c, 0, 65, 80
2, 138240, Note_on_c, 0, 63, 80
2, 138240, Note_on_c, 0, 60, 80
2, 138620, Note_off_c, 0, 65, 100
2, 138620, Note_off_c, 0, 63, 100
2, 138620, Note_off_c, 0, 60, 100
2, 138624, Note_on_c, 0, 67, 80
2, 138624, Note_on_c, 0, 63, 80
2, 138624, Note_on_c, 0, 58, 80
2, 139004, Note_off_c, 0, 67, 100
2, 139004, Note_off_c, 0, 63, 100
2, 139004, Note_off_c, 0, 58, 100
2, 139008, Note_on_c, 0, 65, 80
2, 139008, Note_on_c, 0, 62, 80
2, 139008, Note_on_c, 0, 56, 80
2, 139388, Note_off_c, 0, 65, 100
2, 139388, Note_off_c, 0, 62, 100
2, 139388, Note_off_c, 0, 56, 100
2, 139392, Note_on_c, 0, 63, 80
2, 139392, Note_on_c, 0, 55, 80
2, 139772, Note_off_c, 0, 63, 100
2, 139772, Note_off_c, 0, 55, 100
2, 139776, Note_on_c, 0, 68, 80
2, 139776, Note_on_c, 0, 62, 80
2, 139964, Note_off_c, 0, 68, 100
2, 139964, Note_off_c, 0, 62, 100
2, 139968, Note_on_c, 0, 67, 80
2, 139968, Note_on_c, 0, 63, 80
2, 140156, Note_off_c, 0, 67, 100
2, 140156, Note_off_c, 0, 63, 100
2, 140544, Note_on_c, 0, 74, 80
2, 140544, Note_on_c, 0, 68, 80
2, 140732, Note_off_c, 0, 74, 100
2, 140732, Note_off_c, 0, 68, 100
2, 140736, Note_on_c, 0, 75, 80
2, 140736, Note_on_c, 0, 67, 80
2, 140924, Note_off_c, 0, 75, 100
2, 140924, Note_off_c, 0, 67, 100
2, 141312, Note_on_c, 0, 80, 80
2, 141312, Note_on_c, 0, 74, 80
2, 141500, Note_off_c, 0, 80, 100
2, 141500, Note_off_c, 0, 74, 100
2, 141504, Note_on_c, 0, 75, 80
2, 141504, Note_on_c, 0, 79, 80
2, 141692, Note_off_c, 0, 75, 100
2, 141692, Note_off_c, 0, 79, 100
2, 142080, Note_on_c, 0, 80, 80
2, 142080, Note_on_c, 0, 86, 80
2, 142268, Note_off_c, 0, 80, 100
2, 142268, Note_off_c, 0, 86, 100
2, 142272, Note_on_c, 0, 79, 80
2, 142272, Note_on_c, 0, 87, 80
2, 142460, Note_off_c, 0, 79, 100
2, 142460, Note_off_c, 0, 87, 100
2, 142848, Note_on_c, 0, 63, 80
2, 142848, Note_on_c, 0, 58, 80
2, 142848, Note_on_c, 0, 55, 80
2, 143228, Note_off_c, 0, 63, 100
2, 143228, Note_off_c, 0, 58, 100
2, 143228, Note_off_c, 0, 55, 100
2, 146112, Note_on_c, 0, 63, 80
2, 146300, Note_off_c, 0, 63, 100
2, 146304, Note_on_c, 0, 62, 80
2, 146492, Note_off_c, 0, 62, 100
2, 146496, Note_on_c, 0, 63, 80
2, 146684, Note_off_c, 0, 63, 100
2, 146688, Note_on_c, 0, 70, 80
2, 146876, Note_off_c, 0, 70, 100
2, 146880, Note_on_c, 0, 70, 80
2, 147068, Note_off_c, 0, 70, 100
2, 147072, Note_on_c, 0, 61, 80
2, 147260, Note_off_c, 0, 61, 100
2, 147264, Note_on_c, 0, 62, 80
2, 147452, Note_off_c, 0, 62, 100
2, 147456, Note_on_c, 0, 70, 80
2, 147644, Note_off_c, 0, 70, 100
2, 147648, Note_on_c, 0, 70, 80
2, 147836, Note_off_c, 0, 70, 100
2, 149184, Note_on_c, 0, 65, 80
2, 149372, Note_off_c, 0, 65, 100
2, 149376, Note_on_c, 0, 64, 80
2, 149564, Note_off_c, 0, 64, 100
2, 149568, Note_on_c, 0, 65, 80
2, 149756, Note_off_c, 0, 65, 100
2, 149760, Note_on_c, 0, 70, 80
2, 149948, Note_off_c, 0, 70, 100
2, 149952, Note_on_c, 0, 70, 80
2, 150140, Note_off_c, 0, 70, 100
2, 150144, Note_on_c, 0, 63, 80
2, 150332, Note_off_c, 0, 63, 100
2, 150336, Note_on_c, 0, 64, 80
2, 150524, Note_off_c, 0, 64, 100
2, 150528, Note_on_c, 0, 70, 80
2, 150716, Note_off_c, 0, 70, 100
2, 150720, Note_on_c, 0, 70, 80
2, 150908, Note_off_c, 0, 70, 100
2, 150912, Note_on_c, 0, 64, 80
2, 151100, Note_off_c, 0, 64, 100
2, 151104, Note_on_c, 0, 65, 80
2, 151292, Note_off_c, 0, 65, 100
2, 151296, Note_on_c, 0, 73, 80
2, 151484, Note_off_c, 0, 73, 100
2, 151488, Note_on_c, 0, 73, 80
2, 151676, Note_off_c, 0, 73, 100
2, 151680, Note_on_c, 0, 66, 80
2, 151868, Note_off_c, 0, 66, 100
2, 151872, Note_on_c, 0, 67, 80
2, 152060, Note_off_c, 0, 67, 100
2, 152064, Note_on_c, 0, 73, 80
2, 152252, Note_off_c, 0, 73, 100
2, 152256, Note_on_c, 0, 73, 80
2, 152444, Note_off_c, 0, 73, 100
2, 152448, Note_on_c, 0, 72, 80
2, 152636, Note_off_c, 0, 72, 100
2, 152640, Note_on_c, 0, 70, 80
2, 152828, Note_off_c, 0, 70, 100
2, 152832, Note_on_c, 0, 69, 80
2, 153020, Note_off_c, 0, 69, 100
2, 153024, Note_on_c, 0, 70, 80
2, 153212, Note_off_c, 0, 70, 100
2, 153216, Note_on_c, 0, 67, 80
2, 153404, Note_off_c, 0, 67, 100
2, 153408, Note_on_c, 0, 68, 81
2, 153596, Note_off_c, 0, 68, 100
2, 153600, Note_on_c, 0, 77, 83
2, 153788, Note_off_c, 0, 77, 100
2, 153792, Note_on_c, 0, 77, 85
2, 153980, Note_off_c, 0, 77, 100
2, 153984, Note_on_c, 0, 71, 87
2, 154172, Note_off_c, 0, 71, 100
2, 154176, Note_on_c, 0, 72, 89
2, 154364, Note_off_c, 0, 72, 100
2, 154368, Note_on_c, 0, 80, 91
2, 154556, Note_off_c, 0, 80, 100
2, 154560, Note_on_c, 0, 80, 93
2, 154748, Note_off_c, 0, 80, 100
2, 154752, Note_on_c, 0, 76, 95
2, 154940, Note_off_c, 0, 76, 100
2, 154944, Note_on_c, 0, 77, 97
2, 155132, Note_off_c, 0, 77, 100
2, 155136, Note_on_c, 0, 83, 99
2, 155324, Note_off_c, 0, 83, 100
2, 155328, Note_on_c, 0, 83, 101
2, 155516, Note_off_c, 0, 83, 100
2, 155520, Note_on_c, 0, 79, 103
2, 155708, Note_off_c, 0, 79, 100
2, 155712, Note_on_c, 0, 80, 105
2, 155900, Note_off_c, 0, 80, 100
2, 155904, Note_on_c, 0, 86, 107
2, 156092, Note_off_c, 0, 86, 100
2, 156096, Note_on_c, 0, 86, 109
2, 156284, Note_off_c, 0, 86, 100
2, 156288, Note_on_c, 0, 85, 120
2, 156476, Note_off_c, 0, 85, 100
2, 156480, Note_on_c, 0, 86, 120
2, 156668, Note_off_c, 0, 86, 100
2, 156672, Note_on_c, 0, 89, 120
2, 156860, Note_off_c, 0, 89, 100
2, 156864, Note_on_c, 0, 89, 120
2, 157052, Note_off_c, 0, 89, 100
2, 157056, Note_on_c, 0, 89, 120
2, 157820, Note_off_c, 0, 89, 100
2, 158016, Note_on_c, 0, 68, 120
2, 158204, Note_off_c, 0, 68, 100
2, 158208, Note_on_c, 0, 68, 120
2, 158396, Note_off_c, 0, 68, 100
2, 158400, Note_on_c, 0, 68, 120
2, 158588, Note_off_c, 0, 68, 100
2, 158592, Note_on_c, 0, 59, 120
2, 159356, Note_off_c, 0, 59, 100
2, 159552, Note_on_c, 0, 44, 120
2, 159740, Note_off_c, 0, 44, 100
2, 159744, Note_on_c, 0, 44, 120
2, 159932, Note_off_c, 0, 44, 100
2, 159936, Note_on_c, 0, 44, 120
2, 160124, Note_off_c, 0, 44, 100
2, 160128, Note_on_c, 0, 35, 120
2, 160316, Note_off_c, 0, 35, 100
2, 160320, Note_on_c, 0, 44, 120
2, 160508, Note_off_c, 0, 44, 100
2, 160512, Note_on_c, 0, 44, 120
2, 160700, Note_off_c, 0, 44, 100
2, 160704, Note_on_c, 0, 44, 120
2, 160892, Note_off_c, 0, 44, 100
2, 160896, Note_on_c, 0, 35, 120
2, 163004, Note_off_c, 0, 35, 100
2, 163008, Note_on_c, 0, 60, 80
2, 163196, Note_off_c, 0, 60, 100
2, 163200, Note_on_c, 0, 59, 80
2, 163388, Note_off_c, 0, 59, 100
2, 163392, Note_on_c, 0, 60, 80
2, 163580, Note_off_c, 0, 60, 100
2, 163584, Note_on_c, 0, 65, 80
2, 163772, Note_off_c, 0, 65, 100
2, 163776, Note_on_c, 0, 65, 80
2, 163964, Note_off_c, 0, 65, 100
2, 163968, Note_on_c, 0, 63, 80
2, 164348, Note_off_c, 0, 63, 100
2, 164544, Note_on_c, 0, 60, 80
2, 164732, Note_off_c, 0, 60, 100
2, 164736, Note_on_c, 0, 59, 80
2, 164924, Note_off_c, 0, 59, 100
2, 164928, Note_on_c, 0, 60, 80
2, 165116, Note_off_c, 0, 60, 100
2, 165120, Note_on_c, 0, 68, 80
2, 165308, Note_off_c, 0, 68, 100
2, 165312, Note_on_c, 0, 68, 80
2, 165500, Note_off_c, 0, 68, 100
2, 165504, Note_on_c, 0, 67, 80
2, 165884, Note_off_c, 0, 67, 100
2, 166080, Note_on_c, 0, 60, 80
2, 166268, Note_off_c, 0, 60, 100
2, 166272, Note_on_c, 0, 59, 80
2, 166460, Note_off_c, 0, 59, 100
2, 166464, Note_on_c, 0, 60, 80
2, 166652, Note_off_c, 0, 60, 100
2, 166656, Note_on_c, 0, 72, 80
2, 166844, Note_off_c, 0, 72, 100
2, 166848, Note_on_c, 0, 72, 80
2, 167036, Note_off_c, 0, 72, 100
2, 167040, Note_on_c, 0, 72, 80
2, 167228, Note_off_c, 0, 72, 100
2, 167232, Note_on_c, 0, 74, 80
2, 167280, Note_on_c, 0, 72, 80
2, 167324, Note_off_c, 0, 74, 100
2, 167328, Note_on_c, 0, 71, 80
2, 167372, Note_off_c, 0, 72, 100
2, 167376, Note_on_c, 0, 72, 80
2, 167420, Note_off_c, 0, 71, 100
2, 167420, Note_off_c, 0, 72, 100
2, 167424, Note_on_c, 0, 75, 80
2, 167612, Note_off_c, 0, 75, 100
2, 167616, Note_on_c, 0, 74, 80
2, 167804, Note_off_c, 0, 74, 100
2, 167808, Note_on_c, 0, 77, 80
2, 167996, Note_off_c, 0, 77, 100
2, 168000, Note_on_c, 0, 75, 80
2, 168188, Note_off_c, 0, 75, 100
2, 168192, Note_on_c, 0, 74, 80
2, 168380, Note_off_c, 0, 74, 100
2, 168384, Note_on_c, 0, 72, 80
2, 168572, Note_off_c, 0, 72, 100
2, 168576, Note_on_c, 0, 71, 80
2, 168956, Note_off_c, 0, 71, 100
2, 169152, Note_on_c, 0, 55, 80
2, 169340, Note_off_c, 0, 55, 100
2, 169344, Note_on_c, 0, 54, 80
2, 169532, Note_off_c, 0, 54, 100
2, 169536, Note_on_c, 0, 55, 80
2, 169724, Note_off_c, 0, 55, 100
2, 169728, Note_on_c, 0, 60, 80
2, 169916, Note_off_c, 0, 60, 100
2, 169920, Note_on_c, 0, 60, 80
2, 170108, Note_off_c, 0, 60, 100
2, 170112, Note_on_c, 0, 59, 80
2, 170492, Note_off_c, 0, 59, 100
2, 170688, Note_on_c, 0, 55, 80
2, 170876, Note_off_c, 0, 55, 100
2, 170880, Note_on_c, 0, 54, 80
2, 171068, Note_off_c, 0, 54, 100
2, 171072, Note_on_c, 0, 55, 80
2, 171260, Note_off_c, 0, 55, 100
2, 171264, Note_on_c, 0, 63, 80
2, 171452, Note_off_c, 0, 63, 100
2, 171456, Note_on_c, 0, 63, 80
2, 171644, Note_off_c, 0, 63, 100
2, 171648, Note_on_c, 0, 62, 80
2, 172028, Note_off_c, 0, 62, 100
2, 172224, Note_on_c, 0, 55, 80
2, 172412, Note_off_c, 0, 55, 100
2, 172416, Note_on_c, 0, 59, 80
2, 172604, Note_off_c, 0, 59, 100
2, 172608, Note_on_c, 0, 62, 80
2, 172796, Note_off_c, 0, 62, 100
2, 172800, Note_on_c, 0, 65, 80
2, 172988, Note_off_c, 0, 65, 100
2, 172992, Note_on_c, 0, 68, 80
2, 173180, Note_off_c, 0, 68, 100
2, 173184, Note_on_c, 0, 71, 80
2, 173372, Note_off_c, 0, 71, 100
2, 173376, Note_on_c, 0, 74, 80
2, 173564, Note_off_c, 0, 74, 100
2, 173568, Note_on_c, 0, 77, 80
2, 173756, Note_off_c, 0, 77, 100
2, 173760, Note_on_c, 0, 80, 80
2, 173948, Note_off_c, 0, 80, 100
2, 173952, Note_on_c, 0, 79, 80
2, 174140, Note_off_c, 0, 79, 100
2, 174144, Note_on_c, 0, 77, 80
2, 174332, Note_off_c, 0, 77, 100
2, 174336, Note_on_c, 0, 75, 80
2, 174524, Note_off_c, 0, 75, 100
2, 174528, Note_on_c, 0, 74, 80
2, 174716, Note_off_c, 0, 74, 100
2, 174720, Note_on_c, 0, 72, 80
2, 175100, Note_off_c, 0, 72, 100
2, 175296, Note_on_c, 0, 72, 80
2, 175484, Note_off_c, 0, 72, 100
2, 175488, Note_on_c, 0, 71, 80
2, 175676, Note_off_c, 0, 71, 100
2, 175680, Note_on_c, 0, 72, 80
2, 175868, Note_off_c, 0, 72, 100
2, 175872, Note_on_c, 0, 84, 80
2, 176060, Note_off_c, 0, 84, 100
2, 176064, Note_on_c, 0, 84, 80
2, 176252, Note_off_c, 0, 84, 100
2, 176256, Note_on_c, 0, 84, 80
2, 176636, Note_off_c, 0, 84, 100
2, 176832, Note_on_c, 0, 89, 80
2, 177020, Note_off_c, 0, 89, 100
2, 177024, Note_on_c, 0, 87, 80
2, 177212, Note_off_c, 0, 87, 100
2, 177216, Note_on_c, 0, 86, 80
2, 177404, Note_off_c, 0, 86, 100
2, 177408, Note_on_c, 0, 84, 80
2, 177596, Note_off_c, 0, 84, 100
2, 177600, Note_on_c, 0, 83, 80
2, 177788, Note_off_c, 0, 83, 100
2, 177792, Note_on_c, 0, 86, 80
2, 177980, Note_off_c, 0, 86, 100
2, 177984, Note_on_c, 0, 84, 80
2, 178172, Note_off_c, 0, 84, 100
2, 178368, Note_on_c, 0, 72, 80
2, 178556, Note_off_c, 0, 72, 100
2, 178560, Note_on_c, 0, 71, 80
2, 178636, Note_on_c, 0, 72, 80
2, 178652, Note_off_c, 0, 71, 100
2, 178712, Note_on_c, 0, 73, 80
2, 178728, Note_off_c, 0, 72, 100
2, 178788, Note_on_c, 0, 74, 80
2, 178804, Note_off_c, 0, 73, 100
2, 178860, Note_on_c, 0, 75, 80
2, 178880, Note_off_c, 0, 74, 100
2, 178944, Note_on_c, 0, 76, 80
2, 178952, Note_off_c, 0, 75, 100
2, 179036, Note_off_c, 0, 76, 100
2, 179040, Note_on_c, 0, 77, 80
2, 179132, Note_off_c, 0, 77, 100
2, 179136, Note_on_c, 0, 78, 80
2, 179228, Note_off_c, 0, 78, 100
2, 179232, Note_on_c, 0, 79, 80
2, 179324, Note_off_c, 0, 79, 100
2, 179328, Note_on_c, 0, 80, 80
2, 179420, Note_off_c, 0, 80, 100
2, 179424, Note_on_c, 0, 81, 80
2, 179516, Note_off_c, 0, 81, 100
2, 179520, Note_on_c, 0, 82, 80
2, 179612, Note_off_c, 0, 82, 100
2, 179616, Note_on_c, 0, 83, 80
2, 179708, Note_off_c, 0, 83, 100
2, 179712, Note_on_c, 0, 84, 80
2, 179900, Note_off_c, 0, 84, 100
2, 179904, Note_on_c, 0, 89, 80
2, 180092, Note_off_c, 0, 89, 100
2, 180096, Note_on_c, 0, 87, 80
2, 180284, Note_off_c, 0, 87, 100
2, 180288, Note_on_c, 0, 86, 80
2, 180476, Note_off_c, 0, 86, 100
2, 180480, Note_on_c, 0, 84, 80
2, 180668, Note_off_c, 0, 84, 100
2, 180672, Note_on_c, 0, 83, 80
2, 180860, Note_off_c, 0, 83, 100
2, 180864, Note_on_c, 0, 84, 80
2, 180956, Note_off_c, 0, 84, 100
2, 180960, Note_on_c, 0, 86, 80
2, 181052, Note_off_c, 0, 86, 100
2, 181056, Note_on_c, 0, 84, 81
2, 181148, Note_off_c, 0, 84, 100
2, 181152, Note_on_c, 0, 83, 82
2, 181244, Note_off_c, 0, 83, 100
2, 181248, Note_on_c, 0, 84, 83
2, 181340, Note_off_c, 0, 84, 100
2, 181344, Note_on_c, 0, 87, 83
2, 181436, Note_off_c, 0, 87, 100
2, 181440, Note_on_c, 0, 86, 84
2, 181532, Note_off_c, 0, 86, 100
2, 181536, Note_on_c, 0, 84, 85
2, 181628, Note_off_c, 0, 84, 100
2, 181632, Note_on_c, 0, 83, 86
2, 181724, Note_off_c, 0, 83, 100
2, 181728, Note_on_c, 0, 84, 86
2, 181820, Note_off_c, 0, 84, 100
2, 181824, Note_on_c, 0, 83, 87
2, 181916, Note_off_c, 0, 83, 100
2, 181920, Note_on_c, 0, 80, 88
2, 182012, Note_off_c, 0, 80, 100
2, 182016, Note_on_c, 0, 79, 89
2, 182108, Note_off_c, 0, 79, 100
2, 182112, Note_on_c, 0, 77, 89
2, 182204, Note_off_c, 0, 77, 100
2, 182208, Note_on_c, 0, 75, 90
2, 182300, Note_off_c, 0, 75, 100
2, 182304, Note_on_c, 0, 74, 91
2, 182396, Note_off_c, 0, 74, 100
2, 182400, Note_on_c, 0, 72, 92
2, 182492, Note_off_c, 0, 72, 100
2, 182496, Note_on_c, 0, 74, 93
2, 182588, Note_off_c, 0, 74, 100
2, 182592, Note_on_c, 0, 72, 93
2, 182684, Note_off_c, 0, 72, 100
2, 182688, Note_on_c, 0, 71, 94
2, 182780, Note_off_c, 0, 71, 100
2, 182784, Note_on_c, 0, 72, 95
2, 182876, Note_off_c, 0, 72, 100
2, 182880, Note_on_c, 0, 75, 96
2, 182972, Note_off_c, 0, 75, 100
2, 182976, Note_on_c, 0, 74, 96
2, 183068, Note_off_c, 0, 74, 100
2, 183072, Note_on_c, 0, 72, 97
2, 183164, Note_off_c, 0, 72, 100
2, 183168, Note_on_c, 0, 71, 98
2, 183260, Note_off_c, 0, 71, 100
2, 183264, Note_on_c, 0, 72, 99
2, 183356, Note_off_c, 0, 72, 100
2, 183360, Note_on_c, 0, 71, 99
2, 183452, Note_off_c, 0, 71, 100
2, 183456, Note_on_c, 0, 68, 100
2, 183548, Note_off_c, 0, 68, 100
2, 183552, Note_on_c, 0, 67, 101
2, 183644, Note_off_c, 0, 67, 100
2, 183648, Note_on_c, 0, 65, 102
2, 183740, Note_off_c, 0, 65, 100
2, 183744, Note_on_c, 0, 63, 103
2, 183836, Note_off_c, 0, 63, 100
2, 183840, Note_on_c, 0, 62, 103
2, 183932, Note_off_c, 0, 62, 100
2, 183936, Note_on_c, 0, 60, 104
2, 184028, Note_off_c, 0, 60, 100
2, 184032, Note_on_c, 0, 62, 105
2, 184124, Note_off_c, 0, 62, 100
2, 184128, Note_on_c, 0, 60, 106
2, 184220, Note_off_c, 0, 60, 100
2, 184224, Note_on_c, 0, 59, 106
2, 184316, Note_off_c, 0, 59, 100
2, 184320, Note_on_c, 0, 60, 107
2, 184412, Note_off_c, 0, 60, 100
2, 184416, Note_on_c, 0, 63, 108
2, 184508, Note_off_c, 0, 63, 100
2, 184512, Note_on_c, 0, 62, 109
2, 184604, Note_off_c, 0, 62, 100
2, 184608, Note_on_c, 0, 60, 109
2, 184700, Note_off_c, 0, 60, 100
2, 184704, Note_on_c, 0, 59, 110
2, 184800, Note_on_c, 0, 67, 110
2, 184856, Note_off_c, 0, 59, 100
2, 184896, Note_on_c, 0, 62, 110
2, 184952, Note_off_c, 0, 67, 100
2, 184992, Note_on_c, 0, 59, 110
2, 185040, Note_off_c, 0, 62, 100
2, 185088, Note_on_c, 0, 55, 110
2, 185172, Note_off_c, 0, 59, 100
2, 185184, Note_on_c, 0, 67, 110
2, 185252, Note_off_c, 0, 55, 100
2, 185280, Note_on_c, 0, 63, 110
2, 185360, Note_off_c, 0, 67, 100
2, 185376, Note_on_c, 0, 60, 110
2, 185432, Note_off_c, 0, 63, 100
2, 185472, Note_on_c, 0, 55, 110
2, 185544, Note_off_c, 0, 60, 100
2, 185568, Note_on_c, 0, 67, 110
2, 185636, Note_off_c, 0, 55, 100
2, 185664, Note_on_c, 0, 62, 110
2, 185728, Note_off_c, 0, 67, 100
2, 185760, Note_on_c, 0, 59, 110
2, 185820, Note_off_c, 0, 62, 100
2, 185856, Note_on_c, 0, 55, 110
2, 185916, Note_off_c, 0, 59, 100
2, 185952, Note_on_c, 0, 67, 110
2, 186016, Note_off_c, 0, 55, 100
2, 186048, Note_on_c, 0, 63, 110
2, 186108, Note_off_c, 0, 67, 100
2, 186144, Note_on_c, 0, 60, 110
2, 186212, Note_off_c, 0, 63, 100
2, 186240, Note_on_c, 0, 55, 110
2, 186300, Note_off_c, 0, 60, 100
2, 186336, Note_on_c, 0, 67, 110
2, 186404, Note_off_c, 0, 55, 100
2, 186432, Note_on_c, 0, 62, 110
2, 186504, Note_off_c, 0, 67, 100
2, 186528, Note_on_c, 0, 59, 110
2, 186592, Note_off_c, 0, 62, 100
2, 186624, Note_on_c, 0, 55, 110
2, 186684, Note_off_c, 0, 59, 100
2, 186720, Note_on_c, 0, 67, 110
2, 186796, Note_off_c, 0, 55, 100
2, 186816, Note_on_c, 0, 63, 110
2, 186880, Note_off_c, 0, 67, 100
2, 186912, Note_on_c, 0, 60, 110
2, 186972, Note_off_c, 0, 63, 100
2, 187004, Note_off_c, 0, 60, 100
2, 187008, Note_on_c, 0, 67, 120
2, 187008, Note_on_c, 0, 62, 120
2, 187008, Note_on_c, 0, 59, 120
2, 187008, Note_on_c, 0, 55, 120
2, 189308, Note_off_c, 0, 55, 100
2, 189308, Note_off_c, 0, 59, 100
2, 189308, Note_off_c, 0, 62, 100
2, 189308, Note_off_c, 0, 67, 100
2, 189504, Note_on_c, 0, 67, 80
2, 189692, Note_off_c, 0, 67, 100
2, 189696, Note_on_c, 0, 69, 80
2, 189884, Note_off_c, 0, 69, 100
2, 189888, Note_on_c, 0, 71, 80
2, 190076, Note_off_c, 0, 71, 100
2, 190080, Note_on_c, 0, 72, 80
2, 190080, Note_on_c, 0, 67, 80
2, 190080, Note_on_c, 0, 64, 80
2, 190268, Note_off_c, 0, 72, 100
2, 190272, Note_on_c, 0, 74, 80
2, 190460, Note_off_c, 0, 74, 100
2, 190464, Note_on_c, 0, 76, 80
2, 190844, Note_off_c, 0, 67, 100
2, 190844, Note_off_c, 0, 64, 100
2, 190844, Note_off_c, 0, 76, 100
2, 190848, Note_on_c, 0, 74, 80
2, 190848, Note_on_c, 0, 67, 80
2, 190848, Note_on_c, 0, 62, 80
2, 191228, Note_off_c, 0, 74, 100
2, 191228, Note_off_c, 0, 67, 100
2, 191228, Note_off_c, 0, 62, 100
2, 191232, Note_on_c, 0, 72, 80
2, 191232, Note_on_c, 0, 67, 80
2, 191232, Note_on_c, 0, 64, 80
2, 191612, Note_off_c, 0, 72, 100
2, 191612, Note_off_c, 0, 67, 100
2, 191612, Note_off_c, 0, 64, 100
2, 191616, Note_on_c, 0, 77, 80
2, 191616, Note_on_c, 0, 71, 80
2, 191616, Note_on_c, 0, 67, 80
2, 191616, Note_on_c, 0, 65, 80
2, 192380, Note_off_c, 0, 77, 100
2, 192380, Note_off_c, 0, 71, 100
2, 192380, Note_off_c, 0, 67, 100
2, 192380, Note_off_c, 0, 65, 100
2, 192576, Note_on_c, 0, 67, 80
2, 192764, Note_off_c, 0, 67, 100
2, 192768, Note_on_c, 0, 69, 80
2, 192956, Note_off_c, 0, 69, 100
2, 192960, Note_on_c, 0, 71, 80
2, 193148, Note_off_c, 0, 71, 100
2, 193152, Note_on_c, 0, 72, 80
2, 193152, Note_on_c, 0, 67, 80
2, 193152, Note_on_c, 0, 64, 80
2, 193340, Note_off_c, 0, 72, 100
2, 193344, Note_on_c, 0, 74, 80
2, 193532, Note_off_c, 0, 74, 100
2, 193536, Note_on_c, 0, 76, 80
2, 193916, Note_off_c, 0, 67, 100
2, 193916, Note_off_c, 0, 64, 100
2, 193916, Note_off_c, 0, 76, 100
2, 193920, Note_on_c, 0, 74, 80
2, 193920, Note_on_c, 0, 69, 80
2, 193920, Note_on_c, 0, 62, 80
2, 194300, Note_off_c, 0, 74, 100
2, 194300, Note_off_c, 0, 69, 100
2, 194300, Note_off_c, 0, 62, 100
2, 194304, Note_on_c, 0, 72, 80
2, 194304, Note_on_c, 0, 69, 80
2, 194304, Note_on_c, 0, 62, 80
2, 194684, Note_off_c, 0, 72, 100
2, 194684, Note_off_c, 0, 69, 100
2, 194684, Note_off_c, 0, 62, 100
2, 194688, Note_on_c, 0, 67, 80
2, 194688, Note_on_c, 0, 62, 80
2, 194688, Note_on_c, 0, 59, 80
2, 195452, Note_off_c, 0, 67, 100
2, 195452, Note_off_c, 0, 62, 100
2, 195452, Note_off_c, 0, 59, 100
2, 195648, Note_on_c, 0, 67, 80
2, 195836, Note_off_c, 0, 67, 100
2, 195840, Note_on_c, 0, 69, 80
2, 196028, Note_off_c, 0, 69, 100
2, 196032, Note_on_c, 0, 71, 80
2, 196220, Note_off_c, 0, 71, 100
2, 196224, Note_on_c, 0, 72, 80
2, 196224, Note_on_c, 0, 67, 80
2, 196224, Note_on_c, 0, 64, 80
2, 196412, Note_off_c, 0, 72, 100
2, 196416, Note_on_c, 0, 74, 80
2, 196604, Note_off_c, 0, 74, 100
2, 196608, Note_on_c, 0, 76, 80
2, 196988, Note_off_c, 0, 67, 100
2, 196988, Note_off_c, 0, 64, 100
2, 196988, Note_off_c, 0, 76, 100
2, 196992, Note_on_c, 0, 74, 80
2, 196992, Note_on_c, 0, 67, 80
2, 196992, Note_on_c, 0, 62, 80
2, 197372, Note_off_c, 0, 74, 100
2, 197372, Note_off_c, 0, 67, 100
2, 197372, Note_off_c, 0, 62, 100
2, 197376, Note_on_c, 0, 72, 80
2, 197376, Note_on_c, 0, 67, 80
2, 197376, Note_on_c, 0, 64, 80
2, 197756, Note_off_c, 0, 72, 100
2, 197756, Note_off_c, 0, 67, 100
2, 197756, Note_off_c, 0, 64, 100
2, 197760, Note_on_c, 0, 69, 110
2, 197808, Note_on_c, 0, 72, 110
2, 197856, Note_on_c, 0, 77, 110
2, 197900, Note_off_c, 0, 69, 100
2, 197900, Note_off_c, 0, 72, 100
2, 197900, Note_off_c, 0, 77, 100
2, 197904, Note_on_c, 0, 81, 110
2, 198716, Note_off_c, 0, 81, 100
2, 198720, Note_on_c, 0, 81, 80
2, 198908, Note_off_c, 0, 81, 100
2, 198912, Note_on_c, 0, 79, 80
2, 199100, Note_off_c, 0, 79, 100
2, 199104, Note_on_c, 0, 77, 80
2, 199292, Note_off_c, 0, 77, 100
2, 199296, Note_on_c, 0, 76, 80
2, 199484, Note_off_c, 0, 76, 100
2, 199488, Note_on_c, 0, 74, 80
2, 199676, Note_off_c, 0, 74, 100
2, 199680, Note_on_c, 0, 72, 80
2, 199868, Note_off_c, 0, 72, 100
2, 199872, Note_on_c, 0, 71, 80
2, 200060, Note_off_c, 0, 71, 100
2, 200064, Note_on_c, 0, 65, 80
2, 200064, Note_on_c, 0, 62, 80
2, 200064, Note_on_c, 0, 69, 80
2, 200444, Note_off_c, 0, 69, 100
2, 200448, Note_on_c, 0, 67, 80
2, 200828, Note_off_c, 0, 65, 100
2, 200828, Note_off_c, 0, 62, 100
2, 200828, Note_off_c, 0, 67, 100
2, 200832, Note_on_c, 0, 67, 80
2, 200832, Note_on_c, 0, 64, 80
2, 200832, Note_on_c, 0, 60, 80
2, 201596, Note_off_c, 0, 67, 100
2, 201596, Note_off_c, 0, 64, 100
2, 201596, Note_off_c, 0, 60, 100
2, 201792, Note_on_c, 0, 79, 80
2, 201980, Note_off_c, 0, 79, 100
2, 201984, Note_on_c, 0, 77, 80
2, 202172, Note_off_c, 0, 77, 100
2, 202176, Note_on_c, 0, 76, 80
2, 202364, Note_off_c, 0, 76, 100
2, 202368, Note_on_c, 0, 76, 80
2, 202556, Note_off_c, 0, 76, 100
2, 202560, Note_on_c, 0, 74, 80
2, 202748, Note_off_c, 0, 74, 100
2, 202752, Note_on_c, 0, 72, 80
2, 202940, Note_off_c, 0, 72, 100
2, 202944, Note_on_c, 0, 71, 80
2, 203132, Note_off_c, 0, 71, 100
2, 203136, Note_on_c, 0, 65, 80
2, 203136, Note_on_c, 0, 62, 80
2, 203136, Note_on_c, 0, 68, 80
2, 203516, Note_off_c, 0, 68, 100
2, 203520, Note_on_c, 0, 67, 80
2, 203900, Note_off_c, 0, 65, 100
2, 203900, Note_off_c, 0, 62, 100
2, 203900, Note_off_c, 0, 67, 100
2, 203904, Note_on_c, 0, 67, 80
2, 203904, Note_on_c, 0, 63, 80
2, 203904, Note_on_c, 0, 60, 80
2, 204668, Note_off_c, 0, 67, 100
2, 204668, Note_off_c, 0, 63, 100
2, 204668, Note_off_c, 0, 60, 100
2, 204864, Note_on_c, 0, 79, 80
2, 204864, Note_on_c, 0, 67, 80
2, 205052, Note_off_c, 0, 79, 100
2, 205052, Note_off_c, 0, 67, 100
2, 205056, Note_on_c, 0, 77, 80
2, 205056, Note_on_c, 0, 65, 80
2, 205244, Note_off_c, 0, 77, 100
2, 205244, Note_off_c, 0, 65, 100
2, 205248, Note_on_c, 0, 75, 80
2, 205248, Note_on_c, 0, 63, 80
2, 205436, Note_off_c, 0, 75, 100
2, 205436, Note_off_c, 0, 63, 100
2, 205440, Note_on_c, 0, 75, 80
2, 205440, Note_on_c, 0, 63, 80
2, 205628, Note_off_c, 0, 75, 100
2, 205628, Note_off_c, 0, 63, 100
2, 205632, Note_on_c, 0, 74, 80
2, 205632, Note_on_c, 0, 62, 80
2, 205820, Note_off_c, 0, 74, 100
2, 205820, Note_off_c, 0, 62, 100
2, 205824, Note_on_c, 0, 72, 80
2, 205824, Note_on_c, 0, 60, 80
2, 206012, Note_off_c, 0, 72, 100
2, 206012, Note_off_c, 0, 60, 100
2, 206016, Note_on_c, 0, 71, 80
2, 206016, Note_on_c, 0, 59, 80
2, 206204, Note_off_c, 0, 71, 100
2, 206204, Note_off_c, 0, 59, 100
2, 206208, Note_on_c, 0, 68, 80
2, 206208, Note_on_c, 0, 56, 80
2, 206396, Note_off_c, 0, 68, 100
2, 206396, Note_off_c, 0, 56, 100
2, 206400, Note_on_c, 0, 67, 80
2, 206400, Note_on_c, 0, 55, 80
2, 206588, Note_off_c, 0, 67, 100
2, 206588, Note_off_c, 0, 55, 100
2, 206592, Note_on_c, 0, 69, 80
2, 206592, Note_on_c, 0, 57, 80
2, 206780, Note_off_c, 0, 69, 100
2, 206780, Note_off_c, 0, 57, 100
2, 206784, Note_on_c, 0, 71, 80
2, 206784, Note_on_c, 0, 59, 80
2, 206972, Note_off_c, 0, 71, 100
2, 206972, Note_off_c, 0, 59, 100
2, 206976, Note_on_c, 0, 72, 80
2, 206976, Note_on_c, 0, 60, 80
2, 207356, Note_off_c, 0, 72, 100
2, 207356, Note_off_c, 0, 60, 100
2, 207552, Note_on_c, 0, 72, 85
2, 207740, Note_off_c, 0, 72, 100
2, 207744, Note_on_c, 0, 71, 87
2, 207932, Note_off_c, 0, 71, 100
2, 207936, Note_on_c, 0, 72, 89
2, 208124, Note_off_c, 0, 72, 100
2, 208128, Note_on_c, 0, 74, 91
2, 208128, Note_on_c, 0, 77, 91
2, 208316, Note_off_c, 0, 74, 100
2, 208316, Note_off_c, 0, 77, 100
2, 208320, Note_on_c, 0, 77, 93
2, 208320, Note_on_c, 0, 74, 93
2, 208508, Note_off_c, 0, 77, 100
2, 208508, Note_off_c, 0, 74, 100
2, 208512, Note_on_c, 0, 72, 95
2, 208512, Note_on_c, 0, 75, 95
2, 208892, Note_off_c, 0, 72, 100
2, 208892, Note_off_c, 0, 75, 100
2, 209088, Note_on_c, 0, 72, 101
2, 209276, Note_off_c, 0, 72, 100
2, 209280, Note_on_c, 0, 71, 103
2, 209468, Note_off_c, 0, 71, 100
2, 209472, Note_on_c, 0, 72, 105
2, 209660, Note_off_c, 0, 72, 100
2, 209664, Note_on_c, 0, 77, 107
2, 209664, Note_on_c, 0, 80, 107
2, 209852, Note_off_c, 0, 77, 100
2, 209852, Note_off_c, 0, 80, 100
2, 209856, Note_on_c, 0, 77, 109
2, 209856, Note_on_c, 0, 80, 109
2, 210044, Note_off_c, 0, 77, 100
2, 210044, Note_off_c, 0, 80, 100
2, 210048, Note_on_c, 0, 79, 120
2, 210048, Note_on_c, 0, 75, 120
2, 210428, Note_off_c, 0, 79, 100
2, 210428, Note_off_c, 0, 75, 100
2, 210624, Note_on_c, 0, 84, 120
2, 210812, Note_off_c, 0, 84, 100
2, 210816, Note_on_c, 0, 83, 120
2, 211004, Note_off_c, 0, 83, 100
2, 211008, Note_on_c, 0, 84, 120
2, 211196, Note_off_c, 0, 84, 100
2, 211200, Note_on_c, 0, 86, 120
2, 211200, Note_on_c, 0, 89, 120
2, 211388, Note_off_c, 0, 86, 100
2, 211388, Note_off_c, 0, 89, 100
2, 211392, Note_on_c, 0, 86, 120
2, 211392, Note_on_c, 0, 89, 120
2, 211580, Note_off_c, 0, 86, 100
2, 211580, Note_off_c, 0, 89, 100
2, 211584, Note_on_c, 0, 89, 120
2, 211584, Note_on_c, 0, 86, 120
2, 211964, Note_off_c, 0, 86, 100
2, 212060, Note_off_c, 0, 89, 100
2, 212064, Note_on_c, 0, 87, 120
2, 212156, Note_off_c, 0, 87, 100
2, 212160, Note_on_c, 0, 86, 120
2, 212252, Note_off_c, 0, 86, 100
2, 212256, Note_on_c, 0, 84, 120
2, 212348, Note_off_c, 0, 84, 100
2, 212352, Note_on_c, 0, 83, 120
2, 212444, Note_off_c, 0, 83, 100
2, 212448, Note_on_c, 0, 84, 120
2, 212540, Note_off_c, 0, 84, 100
2, 212544, Note_on_c, 0, 86, 120
2, 212636, Note_off_c, 0, 86, 100
2, 212640, Note_on_c, 0, 84, 120
2, 212732, Note_off_c, 0, 84, 100
2, 212736, Note_on_c, 0, 83, 120
2, 212828, Note_off_c, 0, 83, 100
2, 212832, Note_on_c, 0, 80, 120
2, 212924, Note_off_c, 0, 80, 100
2, 212928, Note_on_c, 0, 79, 120
2, 213020, Note_off_c, 0, 79, 100
2, 213024, Note_on_c, 0, 77, 120
2, 213116, Note_off_c, 0, 77, 100
2, 213120, Note_on_c, 0, 75, 120
2, 213244, Note_off_c, 0, 75, 100
2, 213248, Note_on_c, 0, 77, 120
2, 213372, Note_off_c, 0, 77, 100
2, 213376, Note_on_c, 0, 79, 120
2, 213500, Note_off_c, 0, 79, 100
2, 213504, Note_on_c, 0, 77, 120
2, 213628, Note_off_c, 0, 77, 100
2, 213632, Note_on_c, 0, 75, 120
2, 213756, Note_off_c, 0, 75, 100
2, 213760, Note_on_c, 0, 74, 120
2, 213884, Note_off_c, 0, 74, 100
2, 213888, Note_on_c, 0, 72, 120
2, 214012, Note_off_c, 0, 72, 100
2, 214016, Note_on_c, 0, 70, 120
2, 214140, Note_off_c, 0, 70, 100
2, 214144, Note_on_c, 0, 68, 120
2, 214268, Note_off_c, 0, 68, 100
2, 214272, Note_on_c, 0, 67, 120
2, 214396, Note_off_c, 0, 67, 100
2, 214400, Note_on_c, 0, 65, 120
2, 214524, Note_off_c, 0, 65, 100
2, 214528, Note_on_c, 0, 63, 120
2, 214652, Note_off_c, 0, 63, 100
2, 214752, Note_on_c, 0, 62, 120
2, 214844, Note_off_c, 0, 62, 100
2, 214848, Note_on_c, 0, 65, 120
2, 214940, Note_off_c, 0, 65, 100
2, 214944, Note_on_c, 0, 68, 120
2, 215036, Note_off_c, 0, 68, 100
2, 215040, Note_on_c, 0, 74, 120
2, 215420, Note_off_c, 0, 74, 100
2, 215520, Note_on_c, 0, 59, 120
2, 215612, Note_off_c, 0, 59, 100
2, 215616, Note_on_c, 0, 62, 120
2, 215708, Note_off_c, 0, 62, 100
2, 215712, Note_on_c, 0, 65, 120
2, 215804, Note_off_c, 0, 65, 100
2, 215808, Note_on_c, 0, 71, 120
2, 216188, Note_off_c, 0, 71, 100
2, 216192, Note_on_c, 0, 71, 120
2, 216284, Note_off_c, 0, 71, 100
2, 216288, Note_on_c, 0, 83, 120
2, 216380, Note_off_c, 0, 83, 100
2, 216384, Note_on_c, 0, 71, 120
2, 216476, Note_off_c, 0, 71, 100
2, 216480, Note_on_c, 0, 83, 120
2, 216572, Note_off_c, 0, 83, 100
2, 216576, Note_on_c, 0, 71, 120
2, 216668, Note_off_c, 0, 71, 100
2, 216672, Note_on_c, 0, 83, 120
2, 216764, Note_off_c, 0, 83, 100
2, 216768, Note_on_c, 0, 71, 120
2, 216860, Note_off_c, 0, 71, 100
2, 216864, Note_on_c, 0, 83, 120
2, 216956, Note_off_c, 0, 83, 100
2, 216960, Note_on_c, 0, 71, 120
2, 217052, Note_off_c, 0, 71, 100
2, 217056, Note_on_c, 0, 83, 120
2, 217148, Note_off_c, 0, 83, 100
2, 217152, Note_on_c, 0, 71, 120
2, 217244, Note_off_c, 0, 71, 100
2, 217248, Note_on_c, 0, 83, 120
2, 217340, Note_off_c, 0, 83, 100
2, 217344, Note_on_c, 0, 71, 120
2, 217436, Note_off_c, 0, 71, 100
2, 217440, Note_on_c, 0, 83, 120
2, 217532, Note_off_c, 0, 83, 100
2, 217536, Note_on_c, 0, 71, 120
2, 217628, Note_off_c, 0, 71, 100
2, 217632, Note_on_c, 0, 83, 120
2, 217724, Note_off_c, 0, 83, 100
2, 217728, Note_on_c, 0, 72, 120
2, 217820, Note_off_c, 0, 72, 100
2, 217824, Note_on_c, 0, 84, 120
2, 217916, Note_off_c, 0, 84, 100
2, 217920, Note_on_c, 0, 72, 120
2, 218012, Note_off_c, 0, 72, 100
2, 218016, Note_on_c, 0, 84, 120
2, 218108, Note_off_c, 0, 84, 100
2, 218112, Note_on_c, 0, 72, 120
2, 218204, Note_off_c, 0, 72, 100
2, 218208, Note_on_c, 0, 84, 120
2, 218300, Note_off_c, 0, 84, 100
2, 218304, Note_on_c, 0, 72, 120
2, 218396, Note_off_c, 0, 72, 100
2, 218400, Note_on_c, 0, 84, 120
2, 218492, Note_off_c, 0, 84, 100
2, 218496, Note_on_c, 0, 72, 120
2, 218588, Note_off_c, 0, 72, 100
2, 218592, Note_on_c, 0, 84, 120
2, 218684, Note_off_c, 0, 84, 100
2, 218688, Note_on_c, 0, 72, 120
2, 218780, Note_off_c, 0, 72, 100
2, 218784, Note_on_c, 0, 84, 120
2, 218876, Note_off_c, 0, 84, 100
2, 218880, Note_on_c, 0, 72, 120
2, 218972, Note_off_c, 0, 72, 100
2, 218976, Note_on_c, 0, 84, 120
2, 219068, Note_off_c, 0, 84, 100
2, 219072, Note_on_c, 0, 72, 120
2, 219164, Note_off_c, 0, 72, 100
2, 219168, Note_on_c, 0, 84, 120
2, 219260, Note_off_c, 0, 84, 100
2, 219360, Note_on_c, 0, 77, 120
2, 219452, Note_off_c, 0, 77, 100
2, 219456, Note_on_c, 0, 80, 120
2, 219548, Note_off_c, 0, 80, 100
2, 219552, Note_on_c, 0, 86, 120
2, 219644, Note_off_c, 0, 86, 100
2, 219648, Note_on_c, 0, 89, 120
2, 220028, Note_off_c, 0, 89, 100
2, 220128, Note_on_c, 0, 74, 120
2, 220220, Note_off_c, 0, 74, 100
2, 220224, Note_on_c, 0, 77, 120
2, 220316, Note_off_c, 0, 77, 100
2, 220320, Note_on_c, 0, 83, 120
2, 220412, Note_off_c, 0, 83, 100
2, 220416, Note_on_c, 0, 86, 120
2, 220796, Note_off_c, 0, 86, 100
2, 220800, Note_on_c, 0, 84, 120
2, 220800, Note_on_c, 0, 79, 120
2, 220800, Note_on_c, 0, 75, 120
2, 220800, Note_on_c, 0, 72, 120
2, 221180, Note_off_c, 0, 84, 100
2, 221180, Note_off_c, 0, 79, 100
2, 221180, Note_off_c, 0, 75, 100
2, 221180, Note_off_c, 0, 72, 100
2, 221184, Note_on_c, 0, 79, 120
2, 221372, Note_off_c, 0, 79, 100
2, 221376, Note_on_c, 0, 79, 120
2, 221564, Note_off_c, 0, 79, 100
2, 221568, Note_on_c, 0, 79, 120
2, 221948, Note_off_c, 0, 79, 100
2, 221952, Note_on_c, 0, 79, 120
2, 222140, Note_off_c, 0, 79, 100
2, 222144, Note_on_c, 0, 79, 120
2, 222332, Note_off_c, 0, 79, 100
2, 222336, Note_on_c, 0, 79, 120
2, 222716, Note_off_c, 0, 79, 100
2, 222720, Note_on_c, 0, 59, 120
2, 222720, Note_on_c, 0, 53, 120
2, 222720, Note_on_c, 0, 50, 120
2, 223100, Note_off_c, 0, 59, 100
2, 223100, Note_off_c, 0, 53, 100
2, 223100, Note_off_c, 0, 50, 100
2, 223488, Note_on_c, 0, 59, 80
2, 223488, Note_on_c, 0, 53, 80
2, 223488, Note_on_c, 0, 50, 80
2, 223868, Note_off_c, 0, 59, 100
2, 223868, Note_off_c, 0, 53, 100
2, 223868, Note_off_c, 0, 50, 100
2, 223872, Note_on_c, 0, 60, 80
2, 223872, Note_on_c, 0, 51, 80
2, 223872, Note_on_c, 0, 48, 80
2, 224252, Note_off_c, 0, 60, 100
2, 224252, Note_off_c, 0, 51, 100
2, 224252, Note_off_c, 0, 48, 100
2, 224256, Note_on_c, 0, 62, 80
2, 224256, Note_on_c, 0, 60, 80
2, 224256, Note_on_c, 0, 57, 80
2, 224636, Note_off_c, 0, 62, 100
2, 224636, Note_off_c, 0, 60, 100
2, 224636, Note_off_c, 0, 57, 100
2, 224640, Note_on_c, 0, 63, 80
2, 224640, Note_on_c, 0, 60, 80
2, 224640, Note_on_c, 0, 55, 80
2, 225020, Note_off_c, 0, 63, 100
2, 225020, Note_off_c, 0, 60, 100
2, 225020, Note_off_c, 0, 55, 100
2, 225024, Note_on_c, 0, 62, 80
2, 225024, Note_on_c, 0, 59, 80
2, 225024, Note_on_c, 0, 53, 80
2, 225404, Note_off_c, 0, 62, 100
2, 225404, Note_off_c, 0, 59, 100
2, 225404, Note_off_c, 0, 53, 100
2, 225408, Note_on_c, 0, 60, 80
2, 225408, Note_on_c, 0, 55, 80
2, 225408, Note_on_c, 0, 51, 80
2, 225788, Note_off_c, 0, 60, 100
2, 225788, Note_off_c, 0, 55, 100
2, 225788, Note_off_c, 0, 51, 100
2, 225792, Note_on_c, 0, 79, 120
2, 225884, Note_off_c, 0, 79, 100
2, 225888, Note_on_c, 0, 80, 120
2, 225980, Note_off_c, 0, 80, 100
2, 225984, Note_on_c, 0, 79, 120
2, 226076, Note_off_c, 0, 79, 100
2, 226080, Note_on_c, 0, 78, 120
2, 226172, Note_off_c, 0, 78, 100
2, 226176, Note_on_c, 0, 79, 120
2, 226556, Note_off_c, 0, 79, 100
2, 226560, Note_on_c, 0, 79, 120
2, 226652, Note_off_c, 0, 79, 100
2, 226656, Note_on_c, 0, 80, 120
2, 226748, Note_off_c, 0, 80, 100
2, 226752, Note_on_c, 0, 79, 120
2, 226844, Note_off_c, 0, 79, 100
2, 226848, Note_on_c, 0, 78, 120
2, 226940, Note_off_c, 0, 78, 100
2, 226944, Note_on_c, 0, 79, 120
2, 227324, Note_off_c, 0, 79, 100
2, 227328, Note_on_c, 0, 59, 120
2, 227328, Note_on_c, 0, 53, 120
2, 227328, Note_on_c, 0, 50, 120
2, 227708, Note_off_c, 0, 59, 100
2, 227708, Note_off_c, 0, 53, 100
2, 227708, Note_off_c, 0, 50, 100
2, 228096, Note_on_c, 0, 60, 120
2, 228096, Note_on_c, 0, 54, 120
2, 228096, Note_on_c, 0, 51, 120
2, 228096, Note_on_c, 0, 48, 120
2, 228860, Note_off_c, 0, 48, 100
2, 228860, Note_off_c, 0, 51, 100
2, 228860, Note_off_c, 0, 54, 100
2, 228860, Note_off_c, 0, 60, 100
2, 228864, Note_on_c, 0, 62, 80
2, 228864, Note_on_c, 0, 60, 80
2, 228864, Note_on_c, 0, 57, 80
2, 229244, Note_off_c, 0, 62, 100
2, 229244, Note_off_c, 0, 60, 100
2, 229244, Note_off_c, 0, 57, 100
2, 229248, Note_on_c, 0, 63, 80
2, 229248, Note_on_c, 0, 60, 80
2, 229248, Note_on_c, 0, 55, 80
2, 229628, Note_off_c, 0, 63, 100
2, 229628, Note_off_c, 0, 60, 100
2, 229628, Note_off_c, 0, 55, 100
2, 229632, Note_on_c, 0, 62, 80
2, 229632, Note_on_c, 0, 59, 80
2, 229632, Note_on_c, 0, 53, 80
2, 230012, Note_off_c, 0, 62, 100
2, 230012, Note_off_c, 0, 59, 100
2, 230012, Note_off_c, 0, 53, 100
2, 230016, Note_on_c, 0, 60, 80
2, 230016, Note_on_c, 0, 55, 80
2, 230016, Note_on_c, 0, 51, 80
2, 230396, Note_off_c, 0, 60, 100
2, 230396, Note_off_c, 0, 55, 100
2, 230396, Note_off_c, 0, 51, 100
2, 230400, Note_on_c, 0, 65, 80
2, 230400, Note_on_c, 0, 59, 80
2, 230588, Note_off_c, 0, 65, 100
2, 230588, Note_off_c, 0, 59, 100
2, 230592, Note_on_c, 0, 63, 80
2, 230592, Note_on_c, 0, 60, 80
2, 230780, Note_off_c, 0, 63, 100
2, 230780, Note_off_c, 0, 60, 100
2, 231168, Note_on_c, 0, 71, 80
2, 231168, Note_on_c, 0, 65, 80
2, 231356, Note_off_c, 0, 71, 100
2, 231356, Note_off_c, 0, 65, 100
2, 231360, Note_on_c, 0, 72, 80
2, 231360, Note_on_c, 0, 63, 80
2, 231548, Note_off_c, 0, 72, 100
2, 231548, Note_off_c, 0, 63, 100
2, 231936, Note_on_c, 0, 77, 80
2, 231936, Note_on_c, 0, 71, 80
2, 232124, Note_off_c, 0, 77, 100
2, 232124, Note_off_c, 0, 71, 100
2, 232128, Note_on_c, 0, 75, 80
2, 232128, Note_on_c, 0, 72, 80
2, 232316, Note_off_c, 0, 75, 100
2, 232316, Note_off_c, 0, 72, 100
2, 232704, Note_on_c, 0, 83, 80
2, 232704, Note_on_c, 0, 77, 80
2, 232892, Note_off_c, 0, 83, 100
2, 232892, Note_off_c, 0, 77, 100
2, 232896, Note_on_c, 0, 84, 80
2, 232896, Note_on_c, 0, 75, 80
2, 233084, Note_off_c, 0, 84, 100
2, 233084, Note_off_c, 0, 75, 100
2, 233472, Note_on_c, 0, 66, 83
2, 233472, Note_on_c, 0, 60, 83
2, 233660, Note_off_c, 0, 66, 100
2, 233660, Note_off_c, 0, 60, 100
2, 233664, Note_on_c, 0, 65, 85
2, 233664, Note_on_c, 0, 61, 85
2, 233852, Note_off_c, 0, 65, 100
2, 233852, Note_off_c, 0, 61, 100
2, 234240, Note_on_c, 0, 73, 91
2, 234240, Note_on_c, 0, 65, 91
2, 234428, Note_off_c, 0, 73, 100
2, 234428, Note_off_c, 0, 65, 100
2, 234432, Note_on_c, 0, 72, 93
2, 234432, Note_on_c, 0, 66, 93
2, 234620, Note_off_c, 0, 72, 100
2, 234620, Note_off_c, 0, 66, 100
2, 235008, Note_on_c, 0, 77, 99
2, 235008, Note_on_c, 0, 73, 99
2, 235196, Note_off_c, 0, 77, 100
2, 235196, Note_off_c, 0, 73, 100
2, 235200, Note_on_c, 0, 78, 101
2, 235200, Note_on_c, 0, 72, 101
2, 235388, Note_off_c, 0, 78, 100
2, 235388, Note_off_c, 0, 72, 100
2, 235776, Note_on_c, 0, 85, 107
2, 235776, Note_on_c, 0, 77, 107
2, 235964, Note_off_c, 0, 85, 100
2, 235964, Note_off_c, 0, 77, 100
2, 235968, Note_on_c, 0, 84, 109
2, 235968, Note_on_c, 0, 78, 109
2, 236156, Note_off_c, 0, 84, 100
2, 236156, Note_off_c, 0, 78, 100
2, 236160, Note_on_c, 0, 87, 120
2, 236160, Note_on_c, 0, 78, 120
2, 237692, Note_off_c, 0, 87, 100
2, 237692, Note_off_c, 0, 78, 100
2, 237696, Note_on_c, 0, 75, 100
2, 237696, Note_on_c, 0, 85, 100
2, 238076, Note_off_c, 0, 85, 100
2, 238080, Note_on_c, 0, 84, 94
2, 238460, Note_off_c, 0, 75, 100
2, 238460, Note_off_c, 0, 84, 100
2, 238464, Note_on_c, 0, 72, 87
2, 238464, Note_on_c, 0, 82, 87
2, 238844, Note_off_c, 0, 82, 100
2, 238848, Note_on_c, 0, 80, 81
2, 239228, Note_off_c, 0, 80, 100
2, 239232, Note_on_c, 0, 77, 74
2, 239324, Note_off_c, 0, 77, 100
2, 239328, Note_on_c, 0, 78, 72
2, 239420, Note_off_c, 0, 78, 100
2, 239424, Note_on_c, 0, 80, 71
2, 239612, Note_off_c, 0, 80, 100
2, 239616, Note_on_c, 0, 78, 80
2, 241532, Note_off_c, 0, 72, 100
2, 241532, Note_off_c, 0, 78, 100
2, 241728, Note_on_c, 0, 56, 80
2, 241916, Note_off_c, 0, 56, 100
2, 241920, Note_on_c, 0, 58, 80
2, 242108, Note_off_c, 0, 58, 100
2, 242112, Note_on_c, 0, 60, 80
2, 242300, Note_off_c, 0, 60, 100
2, 242304, Note_on_c, 0, 61, 80
2, 242304, Note_on_c, 0, 56, 80
2, 242304, Note_on_c, 0, 53, 80
2, 242492, Note_off_c, 0, 61, 100
2, 242496, Note_on_c, 0, 63, 80
2, 242684, Note_off_c, 0, 63, 100
2, 242688, Note_on_c, 0, 65, 80
2, 243068, Note_off_c, 0, 56, 100
2, 243068, Note_off_c, 0, 53, 100
2, 243068, Note_off_c, 0, 65, 100
2, 243072, Note_on_c, 0, 63, 80
2, 243072, Note_on_c, 0, 56, 80
2, 243452, Note_off_c, 0, 63, 100
2, 243452, Note_off_c, 0, 56, 100
2, 243456, Note_on_c, 0, 61, 80
2, 243456, Note_on_c, 0, 56, 80
2, 243836, Note_off_c, 0, 61, 100
2, 243836, Note_off_c, 0, 56, 100
2, 243840, Note_on_c, 0, 66, 80
2, 243840, Note_on_c, 0, 60, 80
2, 243840, Note_on_c, 0, 56, 80
2, 243840, Note_on_c, 0, 54, 80
2, 244796, Note_off_c, 0, 66, 100
2, 244796, Note_off_c, 0, 60, 100
2, 244796, Note_off_c, 0, 56, 100
2, 244796, Note_off_c, 0, 54, 100
2, 244800, Note_on_c, 0, 56, 80
2, 244988, Note_off_c, 0, 56, 100
2, 244992, Note_on_c, 0, 58, 80
2, 245180, Note_off_c, 0, 58, 100
2, 245184, Note_on_c, 0, 60, 80
2, 245372, Note_off_c, 0, 60, 100
2, 245376, Note_on_c, 0, 61, 80
2, 245376, Note_on_c, 0, 56, 80
2, 245376, Note_on_c, 0, 53, 80
2, 245564, Note_off_c, 0, 61, 100
2, 245568, Note_on_c, 0, 63, 80
2, 245756, Note_off_c, 0, 63, 100
2, 245760, Note_on_c, 0, 65, 80
2, 246140, Note_off_c, 0, 56, 100
2, 246140, Note_off_c, 0, 53, 100
2, 246140, Note_off_c, 0, 65, 100
2, 246144, Note_on_c, 0, 63, 80
2, 246144, Note_on_c, 0, 58, 80
2, 246144, Note_on_c, 0, 51, 80
2, 246524, Note_off_c, 0, 63, 100
2, 246524, Note_off_c, 0, 58, 100
2, 246524, Note_off_c, 0, 51, 100
2, 246528, Note_on_c, 0, 61, 80
2, 246528, Note_on_c, 0, 58, 80
2, 246528, Note_on_c, 0, 51, 80
2, 246908, Note_off_c, 0, 61, 100
2, 246908, Note_off_c, 0, 58, 100
2, 246908, Note_off_c, 0, 51, 100
2, 246912, Note_on_c, 0, 51, 80
2, 246912, Note_on_c, 0, 56, 80
2, 246912, Note_on_c, 0, 48, 80
2, 247676, Note_off_c, 0, 51, 100
2, 247676, Note_off_c, 0, 56, 100
2, 247676, Note_off_c, 0, 48, 100
2, 247872, Note_on_c, 0, 56, 80
2, 248060, Note_off_c, 0, 56, 100
2, 248064, Note_on_c, 0, 58, 80
2, 248252, Note_off_c, 0, 58, 100
2, 248256, Note_on_c, 0, 60, 80
2, 248444, Note_off_c, 0, 60, 100
2, 248448, Note_on_c, 0, 61, 80
2, 248448, Note_on_c, 0, 56, 80
2, 248448, Note_on_c, 0, 53, 80
2, 248636, Note_off_c, 0, 61, 100
2, 248640, Note_on_c, 0, 63, 80
2, 248828, Note_off_c, 0, 63, 100
2, 248832, Note_on_c, 0, 65, 80
2, 249212, Note_off_c, 0, 56, 100
2, 249212, Note_off_c, 0, 53, 100
2, 249212, Note_off_c, 0, 65, 100
2, 249216, Note_on_c, 0, 63, 80
2, 249216, Note_on_c, 0, 56, 80
2, 249596, Note_off_c, 0, 63, 100
2, 249596, Note_off_c, 0, 56, 100
2, 249600, Note_on_c, 0, 61, 80
2, 249600, Note_on_c, 0, 56, 80
2, 249980, Note_off_c, 0, 61, 100
2, 249980, Note_off_c, 0, 56, 100
2, 249984, Note_on_c, 0, 66, 80
2, 249984, Note_on_c, 0, 56, 80
2, 249984, Note_on_c, 0, 54, 80
2, 249984, Note_on_c, 0, 60, 80
2, 250556, Note_off_c, 0, 66, 100
2, 250560, Note_on_c, 0, 63, 80
2, 250748, Note_off_c, 0, 60, 100
2, 250748, Note_off_c, 0, 63, 100
2, 250752, Note_on_c, 0, 60, 80
2, 251516, Note_off_c, 0, 56, 100
2, 251516, Note_off_c, 0, 54, 100
2, 251516, Note_off_c, 0, 60, 100
2, 251856, Note_on_c, 0, 54, 80
2, 251904, Note_on_c, 0, 57, 80
2, 251948, Note_off_c, 0, 54, 100
2, 251952, Note_on_c, 0, 60, 80
2, 252000, Note_on_c, 0, 66, 80
2, 252044, Note_off_c, 0, 60, 100
2, 252668, Note_off_c, 0, 66, 100
2, 252672, Note_on_c, 0, 63, 80
2, 253052, Note_off_c, 0, 63, 100
2, 253056, Note_on_c, 0, 60, 80
2, 254124, Note_off_c, 0, 57, 100
2, 254124, Note_off_c, 0, 60, 100
2, 254448, Note_on_c, 0, 55, 120
2, 254496, Note_on_c, 0, 60, 120
2, 254540, Note_off_c, 0, 55, 100
2, 254544, Note_on_c, 0, 63, 120
2, 254588, Note_off_c, 0, 60, 100
2, 254592, Note_on_c, 0, 67, 120
2, 254636, Note_off_c, 0, 63, 100
2, 254780, Note_off_c, 0, 67, 100
2, 254784, Note_on_c, 0, 63, 120
2, 254972, Note_off_c, 0, 63, 100
2, 254976, Note_on_c, 0, 60, 120
2, 255164, Note_off_c, 0, 60, 100
2, 255168, Note_on_c, 0, 55, 120
2, 255356, Note_off_c, 0, 55, 100
2, 255360, Note_on_c, 0, 51, 120
2, 255548, Note_off_c, 0, 51, 100
2, 255552, Note_on_c, 0, 48, 120
2, 255740, Note_off_c, 0, 48, 100
2, 255744, Note_on_c, 0, 47, 120
2, 255932, Note_off_c, 0, 47, 100
2, 255936, Note_on_c, 0, 50, 120
2, 256124, Note_off_c, 0, 50, 100
2, 256128, Note_on_c, 0, 48, 120
2, 256316, Note_off_c, 0, 48, 100
2, 257088, Note_on_c, 0, 60, 80
2, 257276, Note_off_c, 0, 60, 100
2, 257280, Note_on_c, 0, 62, 80
2, 257468, Note_off_c, 0, 62, 100
2, 257472, Note_on_c, 0, 64, 80
2, 257660, Note_off_c, 0, 64, 100
2, 257664, Note_on_c, 0, 65, 80
2, 257852, Note_off_c, 0, 65, 100
2, 257856, Note_on_c, 0, 67, 80
2, 258044, Note_off_c, 0, 67, 100
2, 258048, Note_on_c, 0, 68, 80
2, 258236, Note_off_c, 0, 68, 100
2, 258240, Note_on_c, 0, 84, 80
2, 258428, Note_off_c, 0, 84, 100
2, 258432, Note_on_c, 0, 83, 80
2, 258620, Note_off_c, 0, 83, 100
2, 258624, Note_on_c, 0, 84, 80
2, 258812, Note_off_c, 0, 84, 100
2, 258816, Note_on_c, 0, 89, 80
2, 259004, Note_off_c, 0, 89, 100
2, 259008, Note_on_c, 0, 89, 80
2, 259196, Note_off_c, 0, 89, 100
2, 259200, Note_on_c, 0, 88, 80
2, 259580, Note_off_c, 0, 88, 100
2, 260160, Note_on_c, 0, 60, 80
2, 260348, Note_off_c, 0, 60, 100
2, 260352, Note_on_c, 0, 62, 80
2, 260540, Note_off_c, 0, 62, 100
2, 260544, Note_on_c, 0, 64, 80
2, 260732, Note_off_c, 0, 64, 100
2, 260736, Note_on_c, 0, 65, 80
2, 260924, Note_off_c, 0, 65, 100
2, 260928, Note_on_c, 0, 67, 80
2, 261116, Note_off_c, 0, 67, 100
2, 261120, Note_on_c, 0, 68, 80
2, 261308, Note_off_c, 0, 68, 100
2, 261312, Note_on_c, 0, 84, 80
2, 261500, Note_off_c, 0, 84, 100
2, 261504, Note_on_c, 0, 83, 80
2, 261692, Note_off_c, 0, 83, 100
2, 261696, Note_on_c, 0, 84, 80
2, 261884, Note_off_c, 0, 84, 100
2, 261888, Note_on_c, 0, 89, 80
2, 262076, Note_off_c, 0, 89, 100
2, 262080, Note_on_c, 0, 89, 80
2, 262268, Note_off_c, 0, 89, 100
2, 262272, Note_on_c, 0, 88, 80
2, 262652, Note_off_c, 0, 88, 100
2, 262848, Note_on_c, 0, 72, 80
2, 263036, Note_off_c, 0, 72, 100
2, 263040, Note_on_c, 0, 71, 80
2, 263228, Note_off_c, 0, 71, 100
2, 263232, Note_on_c, 0, 72, 80
2, 263420, Note_off_c, 0, 72, 100
2, 263424, Note_on_c, 0, 77, 80
2, 263612, Note_off_c, 0, 77, 100
2, 263616, Note_on_c, 0, 77, 79
2, 263804, Note_off_c, 0, 77, 100
2, 263808, Note_on_c, 0, 76, 79
2, 264188, Note_off_c, 0, 76, 100
2, 264384, Note_on_c, 0, 60, 77
2, 264572, Note_off_c, 0, 60, 100
2, 264576, Note_on_c, 0, 59, 77
2, 264764, Note_off_c, 0, 59, 100
2, 264768, Note_on_c, 0, 60, 76
2, 264956, Note_off_c, 0, 60, 100
2, 264960, Note_on_c, 0, 65, 76
2, 265148, Note_off_c, 0, 65, 100
2, 265152, Note_on_c, 0, 65, 75
2, 265340, Note_off_c, 0, 65, 100
2, 265344, Note_on_c, 0, 64, 75
2, 265724, Note_off_c, 0, 64, 100
2, 265920, Note_on_c, 0, 36, 73
2, 266108, Note_off_c, 0, 36, 100
2, 266112, Note_on_c, 0, 36, 73
2, 266492, Note_off_c, 0, 36, 100
2, 266688, Note_on_c, 0, 36, 71
2, 266972, Note_off_c, 0, 36, 100
2, 266976, Note_on_c, 0, 36, 71
2, 267740, Note_off_c, 0, 36, 100
2, 268416, Control_c, 0, 7, 0
2, 268800, Note_on_c, 0, 60, 1
2, 268988, Note_off_c, 0, 60, 100
2, 268988, End_track
3, 0, Start_track
3, 0, Title_t, "Left"
3, 0, Control_c, 1, 0, 0
3, 0, Program_c, 1, 0
3, 0, Control_c, 1, 7, 100
3, 0, Control_c, 1, 10, 57
3, 0, Control_c, 1, 91, 127
3, 0, Key_signature, -3, "minor"
3, 192, Note_on_c, 1, 48, 80
3, 380, Note_off_c, 1, 48, 100
3, 384, Note_on_c, 1, 47, 80
3, 572, Note_off_c, 1, 47, 100
3, 576, Note_on_c, 1, 48, 80
3, 764, Note_off_c, 1, 48, 100
3, 768, Note_on_c, 1, 53, 80
3, 956, Note_off_c, 1, 53, 100
3, 960, Note_on_c, 1, 53, 80
3, 1148, Note_off_c, 1, 53, 100
3, 1152, Note_on_c, 1, 51, 80
3, 1532, Note_off_c, 1, 51, 100
3, 1728, Note_on_c, 1, 48, 80
3, 1916, Note_off_c, 1, 48, 100
3, 1920, Note_on_c, 1, 47, 80
3, 2108, Note_off_c, 1, 47, 100
3, 2112, Note_on_c, 1, 48, 80
3, 2300, Note_off_c, 1, 48, 100
3, 2304, Note_on_c, 1, 56, 80
3, 2492, Note_off_c, 1, 56, 100
3, 2496, Note_on_c, 1, 56, 80
3, 2684, Note_off_c, 1, 56, 100
3, 2688, Note_on_c, 1, 55, 80
3, 3068, Note_off_c, 1, 55, 100
3, 4224, Note_on_c, 1, 66, 80
3, 4224, Note_on_c, 1, 60, 80
3, 4224, Note_on_c, 1, 56, 80
3, 5756, Note_off_c, 1, 66, 100
3, 5756, Note_off_c, 1, 60, 100
3, 5756, Note_off_c, 1, 56, 100
3, 5760, Note_on_c, 1, 67, 80
3, 5760, Note_on_c, 1, 62, 80
3, 5760, Note_on_c, 1, 55, 80
3, 6140, Note_off_c, 1, 67, 100
3, 6140, Note_off_c, 1, 62, 100
3, 6140, Note_off_c, 1, 55, 100
3, 6336, Note_on_c, 1, 43, 80
3, 6524, Note_off_c, 1, 43, 100
3, 6528, Note_on_c, 1, 42, 80
3, 6716, Note_off_c, 1, 42, 100
3, 6720, Note_on_c, 1, 43, 80
3, 6908, Note_off_c, 1, 43, 100
3, 6912, Note_on_c, 1, 48, 80
3, 7100, Note_off_c, 1, 48, 100
3, 7104, Note_on_c, 1, 48, 80
3, 7292, Note_off_c, 1, 48, 100
3, 7296, Note_on_c, 1, 47, 80
3, 7676, Note_off_c, 1, 47, 100
3, 7872, Note_on_c, 1, 43, 80
3, 8060, Note_off_c, 1, 43, 100
3, 8064, Note_on_c, 1, 42, 80
3, 8252, Note_off_c, 1, 42, 100
3, 8256, Note_on_c, 1, 43, 80
3, 8444, Note_off_c, 1, 43, 100
3, 8448, Note_on_c, 1, 51, 80
3, 8636, Note_off_c, 1, 51, 100
3, 8640, Note_on_c, 1, 51, 80
3, 8828, Note_off_c, 1, 51, 100
3, 8832, Note_on_c, 1, 50, 80
3, 9212, Note_off_c, 1, 50, 100
3, 9408, Note_on_c, 1, 43, 80
3, 9596, Note_off_c, 1, 43, 100
3, 9600, Note_on_c, 1, 47, 80
3, 9788, Note_off_c, 1, 47, 100
3, 9792, Note_on_c, 1, 50, 80
3, 9980, Note_off_c, 1, 50, 100
3, 9984, Note_on_c, 1, 53, 80
3, 10172, Note_off_c, 1, 53, 100
3, 10176, Note_on_c, 1, 56, 80
3, 10364, Note_off_c, 1, 56, 100
3, 10368, Note_on_c, 1, 59, 80
3, 10556, Note_off_c, 1, 59, 100
3, 10560, Note_on_c, 1, 62, 80
3, 10748, Note_off_c, 1, 62, 100
3, 10752, Note_on_c, 1, 65, 80
3, 10940, Note_off_c, 1, 65, 100
3, 10944, Note_on_c, 1, 68, 80
3, 11132, Note_off_c, 1, 68, 100
3, 11136, Note_on_c, 1, 67, 80
3, 11324, Note_off_c, 1, 67, 100
3, 11328, Note_on_c, 1, 65, 80
3, 11516, Note_off_c, 1, 65, 100
3, 11520, Note_on_c, 1, 63, 80
3, 11708, Note_off_c, 1, 63, 100
3, 11712, Note_on_c, 1, 62, 80
3, 11900, Note_off_c, 1, 62, 100
3, 11904, Note_on_c, 1, 60, 80
3, 12092, Note_off_c, 1, 60, 100
3, 12096, Note_on_c, 1, 63, 80
3, 12096, Note_on_c, 1, 67, 80
3, 12284, Note_off_c, 1, 63, 100
3, 12284, Note_off_c, 1, 67, 100
3, 12288, Note_on_c, 1, 63, 80
3, 12288, Note_on_c, 1, 67, 80
3, 12476, Note_off_c, 1, 63, 100
3, 12476, Note_off_c, 1, 67, 100
3, 12480, Note_on_c, 1, 63, 80
3, 12480, Note_on_c, 1, 67, 80
3, 12668, Note_off_c, 1, 63, 100
3, 12668, Note_off_c, 1, 67, 100
3, 12672, Note_on_c, 1, 60, 80
3, 12860, Note_off_c, 1, 60, 100
3, 12864, Note_on_c, 1, 64, 80
3, 12864, Note_on_c, 1, 67, 80
3, 12864, Note_on_c, 1, 70, 80
3, 13052, Note_off_c, 1, 64, 100
3, 13052, Note_off_c, 1, 67, 100
3, 13052, Note_off_c, 1, 70, 100
3, 13056, Note_on_c, 1, 64, 80
3, 13056, Note_on_c, 1, 70, 80
3, 13056, Note_on_c, 1, 67, 80
3, 13244, Note_off_c, 1, 64, 100
3, 13244, Note_off_c, 1, 70, 100
3, 13244, Note_off_c, 1, 67, 100
3, 13248, Note_on_c, 1, 64, 80
3, 13248, Note_on_c, 1, 67, 80
3, 13248, Note_on_c, 1, 70, 80
3, 13436, Note_off_c, 1, 64, 100
3, 13436, Note_off_c, 1, 67, 100
3, 13436, Note_off_c, 1, 70, 100
3, 13440, Note_on_c, 1, 60, 80
3, 13628, Note_off_c, 1, 60, 100
3, 13632, Note_on_c, 1, 65, 80
3, 13632, Note_on_c, 1, 68, 80
3, 13820, Note_off_c, 1, 65, 100
3, 13820, Note_off_c, 1, 68, 100
3, 13824, Note_on_c, 1, 65, 80
3, 13824, Note_on_c, 1, 68, 80
3, 14012, Note_off_c, 1, 65, 100
3, 14012, Note_off_c, 1, 68, 100
3, 14016, Note_on_c, 1, 65, 80
3, 14016, Note_on_c, 1, 68, 80
3, 14204, Note_off_c, 1, 65, 100
3, 14204, Note_off_c, 1, 68, 100
3, 14208, Note_on_c, 1, 60, 80
3, 14396, Note_off_c, 1, 60, 100
3, 14400, Note_on_c, 1, 65, 80
3, 14400, Note_on_c, 1, 68, 80
3, 14400, Note_on_c, 1, 71, 80
3, 14588, Note_off_c, 1, 65, 100
3, 14588, Note_off_c, 1, 68, 100
3, 14588, Note_off_c, 1, 71, 100
3, 14592, Note_on_c, 1, 65, 80
3, 14592, Note_on_c, 1, 68, 80
3, 14592, Note_on_c, 1, 71, 80
3, 14780, Note_off_c, 1, 65, 100
3, 14780, Note_off_c, 1, 68, 100
3, 14780, Note_off_c, 1, 71, 100
3, 14784, Note_on_c, 1, 65, 80
3, 14784, Note_on_c, 1, 68, 80
3, 14784, Note_on_c, 1, 71, 80
3, 14972, Note_off_c, 1, 65, 100
3, 14972, Note_off_c, 1, 68, 100
3, 14972, Note_off_c, 1, 71, 100
3, 14976, Note_on_c, 1, 60, 80
3, 15164, Note_off_c, 1, 60, 100
3, 15168, Note_on_c, 1, 63, 80
3, 15168, Note_on_c, 1, 67, 80
3, 15356, Note_off_c, 1, 63, 100
3, 15356, Note_off_c, 1, 67, 100
3, 15360, Note_on_c, 1, 63, 80
3, 15360, Note_on_c, 1, 67, 80
3, 15548, Note_off_c, 1, 63, 100
3, 15548, Note_off_c, 1, 67, 100
3, 15552, Note_on_c, 1, 63, 80
3, 15552, Note_on_c, 1, 67, 80
3, 15740, Note_off_c, 1, 63, 100
3, 15740, Note_off_c, 1, 67, 100
3, 15744, Note_on_c, 1, 60, 80
3, 15932, Note_off_c, 1, 60, 100
3, 15936, Note_on_c, 1, 64, 80
3, 15936, Note_on_c, 1, 67, 80
3, 15936, Note_on_c, 1, 70, 80
3, 16124, Note_off_c, 1, 64, 100
3, 16124, Note_off_c, 1, 67, 100
3, 16124, Note_off_c, 1, 70, 100
3, 16128, Note_on_c, 1, 64, 80
3, 16128, Note_on_c, 1, 70, 80
3, 16128, Note_on_c, 1, 67, 80
3, 16316, Note_off_c, 1, 64, 100
3, 16316, Note_off_c, 1, 70, 100
3, 16316, Note_off_c, 1, 67, 100
3, 16320, Note_on_c, 1, 64, 80
3, 16320, Note_on_c, 1, 67, 80
3, 16320, Note_on_c, 1, 70, 80
3, 16508, Note_off_c, 1, 64, 100
3, 16508, Note_off_c, 1, 67, 100
3, 16508, Note_off_c, 1, 70, 100
3, 16512, Note_on_c, 1, 60, 80
3, 16700, Note_off_c, 1, 60, 100
3, 16704, Note_on_c, 1, 65, 80
3, 16704, Note_on_c, 1, 68, 80
3, 16892, Note_off_c, 1, 65, 100
3, 16892, Note_off_c, 1, 68, 100
3, 16896, Note_on_c, 1, 65, 80
3, 16896, Note_on_c, 1, 68, 80
3, 17084, Note_off_c, 1, 65, 100
3, 17084, Note_off_c, 1, 68, 100
3, 17088, Note_on_c, 1, 65, 80
3, 17088, Note_on_c, 1, 68, 80
3, 17276, Note_off_c, 1, 65, 100
3, 17276, Note_off_c, 1, 68, 100
3, 17280, Note_on_c, 1, 60, 80
3, 17468, Note_off_c, 1, 60, 100
3, 17472, Note_on_c, 1, 65, 80
3, 17472, Note_on_c, 1, 68, 80
3, 17472, Note_on_c, 1, 71, 80
3, 17660, Note_off_c, 1, 65, 100
3, 17660, Note_off_c, 1, 68, 100
3, 17660, Note_off_c, 1, 71, 100
3, 17664, Note_on_c, 1, 65, 80
3, 17664, Note_on_c, 1, 68, 80
3, 17664, Note_on_c, 1, 71, 80
3, 17852, Note_off_c, 1, 65, 100
3, 17852, Note_off_c, 1, 68, 100
3, 17852, Note_off_c, 1, 71, 100
3, 17856, Note_on_c, 1, 65, 80
3, 17856, Note_on_c, 1, 68, 80
3, 17856, Note_on_c, 1, 71, 80
3, 18044, Note_off_c, 1, 65, 100
3, 18044, Note_off_c, 1, 68, 100
3, 18044, Note_off_c, 1, 71, 100
3, 18048, Note_on_c, 1, 72, 80
3, 18048, Note_on_c, 1, 67, 80
3, 18048, Note_on_c, 1, 63, 80
3, 18048, Note_on_c, 1, 60, 80
3, 18428, Note_off_c, 1, 72, 100
3, 18428, Note_off_c, 1, 67, 100
3, 18428, Note_off_c, 1, 63, 100
3, 18428, Note_off_c, 1, 60, 100
3, 18624, Note_on_c, 1, 66, 83
3, 18812, Note_off_c, 1, 66, 100
3, 18816, Note_on_c, 1, 67, 84
3, 19196, Note_off_c, 1, 67, 100
3, 19392, Note_on_c, 1, 59, 87
3, 19580, Note_off_c, 1, 59, 100
3, 19584, Note_on_c, 1, 60, 88
3, 19964, Note_off_c, 1, 60, 100
3, 20160, Note_on_c, 1, 54, 91
3, 20348, Note_off_c, 1, 54, 100
3, 20352, Note_on_c, 1, 55, 92
3, 20732, Note_off_c, 1, 55, 100
3, 20928, Note_on_c, 1, 47, 95
3, 21116, Note_off_c, 1, 47, 100
3, 21120, Note_on_c, 1, 48, 96
3, 21500, Note_off_c, 1, 48, 100
3, 21696, Note_on_c, 1, 42, 99
3, 21884, Note_off_c, 1, 42, 100
3, 21888, Note_on_c, 1, 43, 110
3, 22268, Note_off_c, 1, 43, 100
3, 22272, Note_on_c, 1, 48, 110
3, 22272, Note_on_c, 1, 36, 110
3, 22652, Note_off_c, 1, 48, 100
3, 22652, Note_off_c, 1, 36, 100
3, 22656, Note_on_c, 1, 43, 110
3, 22656, Note_on_c, 1, 31, 110
3, 23036, Note_off_c, 1, 43, 100
3, 23036, Note_off_c, 1, 31, 100
3, 23040, Note_on_c, 1, 48, 110
3, 23040, Note_on_c, 1, 36, 110
3, 23420, Note_off_c, 1, 48, 100
3, 23420, Note_off_c, 1, 36, 100
3, 23424, Note_on_c, 1, 43, 110
3, 23424, Note_on_c, 1, 31, 110
3, 23804, Note_off_c, 1, 43, 100
3, 23804, Note_off_c, 1, 31, 100
3, 23808, Note_on_c, 1, 48, 110
3, 23808, Note_on_c, 1, 36, 110
3, 24188, Note_off_c, 1, 48, 100
3, 24188, Note_off_c, 1, 36, 100
3, 24192, Note_on_c, 1, 43, 120
3, 24192, Note_on_c, 1, 38, 120
3, 24192, Note_on_c, 1, 35, 120
3, 24192, Note_on_c, 1, 31, 120
3, 26492, Note_off_c, 1, 31, 100
3, 26492, Note_off_c, 1, 35, 100
3, 26492, Note_off_c, 1, 38, 100
3, 26492, Note_off_c, 1, 43, 100
3, 27264, Note_on_c, 1, 51, 80
3, 27264, Note_on_c, 1, 39, 80
3, 28028, Note_off_c, 1, 51, 100
3, 28028, Note_off_c, 1, 39, 100
3, 28032, Note_on_c, 1, 56, 80
3, 28032, Note_on_c, 1, 44, 80
3, 28412, Note_off_c, 1, 56, 100
3, 28412, Note_off_c, 1, 44, 100
3, 28416, Note_on_c, 1, 55, 80
3, 28416, Note_on_c, 1, 43, 80
3, 28796, Note_off_c, 1, 55, 100
3, 28796, Note_off_c, 1, 43, 100
3, 28800, Note_on_c, 1, 53, 80
3, 28800, Note_on_c, 1, 46, 80
3, 28800, Note_on_c, 1, 41, 80
3, 29564, Note_off_c, 1, 53, 100
3, 29564, Note_off_c, 1, 46, 100
3, 29564, Note_off_c, 1, 41, 100
3, 30336, Note_on_c, 1, 51, 80
3, 30336, Note_on_c, 1, 39, 80
3, 31100, Note_off_c, 1, 51, 100
3, 31100, Note_off_c, 1, 39, 100
3, 31104, Note_on_c, 1, 44, 80
3, 31104, Note_on_c, 1, 32, 80
3, 31484, Note_off_c, 1, 44, 100
3, 31484, Note_off_c, 1, 32, 100
3, 31488, Note_on_c, 1, 45, 80
3, 31488, Note_on_c, 1, 33, 80
3, 31868, Note_off_c, 1, 45, 100
3, 31868, Note_off_c, 1, 33, 100
3, 31872, Note_on_c, 1, 46, 80
3, 31872, Note_on_c, 1, 34, 80
3, 32636, Note_off_c, 1, 46, 100
3, 32636, Note_off_c, 1, 34, 100
3, 33408, Note_on_c, 1, 51, 80
3, 33408, Note_on_c, 1, 39, 80
3, 34172, Note_off_c, 1, 51, 100
3, 34172, Note_off_c, 1, 39, 100
3, 34176, Note_on_c, 1, 56, 80
3, 34176, Note_on_c, 1, 44, 80
3, 34556, Note_off_c, 1, 56, 100
3, 34556, Note_off_c, 1, 44, 100
3, 34560, Note_on_c, 1, 55, 80
3, 34560, Note_on_c, 1, 43, 80
3, 34940, Note_off_c, 1, 55, 100
3, 34940, Note_off_c, 1, 43, 100
3, 34944, Note_on_c, 1, 44, 100
3, 34992, Note_on_c, 1, 48, 100
3, 35040, Note_on_c, 1, 51, 100
3, 35088, Note_on_c, 1, 56, 100
3, 35324, Note_off_c, 1, 44, 100
3, 35324, Note_off_c, 1, 48, 100
3, 35324, Note_off_c, 1, 51, 100
3, 35324, Note_off_c, 1, 56, 100
3, 36480, Note_on_c, 1, 46, 80
3, 37440, Note_on_c, 1, 34, 80
3, 37628, Note_off_c, 1, 34, 100
3, 37632, Note_on_c, 1, 36, 80
3, 37820, Note_off_c, 1, 36, 100
3, 37824, Note_on_c, 1, 38, 80
3, 38012, Note_off_c, 1, 38, 100
3, 38016, Note_on_c, 1, 39, 80
3, 38204, Note_off_c, 1, 39, 100
3, 38208, Note_on_c, 1, 41, 80
3, 38396, Note_off_c, 1, 41, 100
3, 38400, Note_on_c, 1, 43, 80
3, 38780, Note_off_c, 1, 43, 100
3, 38784, Note_on_c, 1, 41, 80
3, 39164, Note_off_c, 1, 41, 100
3, 39168, Note_on_c, 1, 39, 80
3, 39548, Note_off_c, 1, 46, 100
3, 39548, Note_off_c, 1, 39, 100
3, 39552, Note_on_c, 1, 46, 80
3, 40512, Note_on_c, 1, 34, 80
3, 40700, Note_off_c, 1, 34, 100
3, 40704, Note_on_c, 1, 36, 80
3, 40892, Note_off_c, 1, 36, 100
3, 40896, Note_on_c, 1, 38, 80
3, 41084, Note_off_c, 1, 38, 100
3, 41088, Note_on_c, 1, 39, 80
3, 41276, Note_off_c, 1, 39, 100
3, 41280, Note_on_c, 1, 41, 80
3, 41468, Note_off_c, 1, 41, 100
3, 41472, Note_on_c, 1, 43, 80
3, 41852, Note_off_c, 1, 43, 100
3, 41856, Note_on_c, 1, 41, 80
3, 42236, Note_off_c, 1, 41, 100
3, 42240, Note_on_c, 1, 39, 80
3, 42620, Note_off_c, 1, 46, 100
3, 42620, Note_off_c, 1, 39, 100
3, 42624, Note_on_c, 1, 53, 80
3, 42624, Note_on_c, 1, 48, 80
3, 42624, Note_on_c, 1, 43, 80
3, 43004, Note_off_c, 1, 53, 100
3, 43004, Note_off_c, 1, 48, 100
3, 43004, Note_off_c, 1, 43, 100
3, 43392, Note_on_c, 1, 56, 80
3, 43392, Note_on_c, 1, 53, 80
3, 43392, Note_on_c, 1, 46, 80
3, 43772, Note_off_c, 1, 56, 100
3, 43772, Note_off_c, 1, 53, 100
3, 43772, Note_off_c, 1, 46, 100
3, 44160, Note_on_c, 1, 55, 80
3, 44160, Note_on_c, 1, 51, 80
3, 44540, Note_off_c, 1, 55, 100
3, 44540, Note_off_c, 1, 51, 100
3, 44736, Note_on_c, 1, 51, 83
3, 44924, Note_off_c, 1, 51, 100
3, 44928, Note_on_c, 1, 50, 85
3, 45116, Note_off_c, 1, 50, 100
3, 45120, Note_on_c, 1, 51, 86
3, 45308, Note_off_c, 1, 51, 100
3, 45312, Note_on_c, 1, 56, 87
3, 45312, Note_on_c, 1, 48, 87
3, 45500, Note_off_c, 1, 56, 100
3, 45500, Note_off_c, 1, 48, 100
3, 45504, Note_on_c, 1, 56, 88
3, 45504, Note_on_c, 1, 48, 88
3, 45692, Note_off_c, 1, 56, 100
3, 45692, Note_off_c, 1, 48, 100
3, 45696, Note_on_c, 1, 55, 90
3, 45696, Note_on_c, 1, 46, 90
3, 46076, Note_off_c, 1, 55, 100
3, 46076, Note_off_c, 1, 46, 100
3, 46272, Note_on_c, 1, 51, 93
3, 46460, Note_off_c, 1, 51, 100
3, 46464, Note_on_c, 1, 50, 95
3, 46652, Note_off_c, 1, 50, 100
3, 46656, Note_on_c, 1, 51, 96
3, 46844, Note_off_c, 1, 51, 100
3, 46848, Note_on_c, 1, 56, 97
3, 46848, Note_on_c, 1, 60, 97
3, 47036, Note_off_c, 1, 56, 100
3, 47036, Note_off_c, 1, 60, 100
3, 47040, Note_on_c, 1, 56, 98
3, 47040, Note_on_c, 1, 60, 98
3, 47228, Note_off_c, 1, 56, 100
3, 47228, Note_off_c, 1, 60, 100
3, 47232, Note_on_c, 1, 58, 100
3, 47232, Note_on_c, 1, 55, 100
3, 47420, Note_off_c, 1, 58, 100
3, 47420, Note_off_c, 1, 55, 100
3, 47424, Note_on_c, 1, 51, 101
3, 47516, Note_off_c, 1, 51, 100
3, 47520, Note_on_c, 1, 63, 101
3, 47612, Note_off_c, 1, 63, 100
3, 47616, Note_on_c, 1, 51, 102
3, 47708, Note_off_c, 1, 51, 100
3, 47712, Note_on_c, 1, 63, 103
3, 47804, Note_off_c, 1, 63, 100
3, 47808, Note_on_c, 1, 51, 103
3, 47900, Note_off_c, 1, 51, 100
3, 47904, Note_on_c, 1, 63, 104
3, 47996, Note_off_c, 1, 63, 100
3, 48000, Note_on_c, 1, 51, 105
3, 48092, Note_off_c, 1, 51, 100
3, 48096, Note_on_c, 1, 63, 105
3, 48188, Note_off_c, 1, 63, 100
3, 48192, Note_on_c, 1, 51, 106
3, 48284, Note_off_c, 1, 51, 100
3, 48288, Note_on_c, 1, 63, 106
3, 48380, Note_off_c, 1, 63, 100
3, 48384, Note_on_c, 1, 51, 107
3, 48476, Note_off_c, 1, 51, 100
3, 48480, Note_on_c, 1, 63, 108
3, 48572, Note_off_c, 1, 63, 100
3, 48576, Note_on_c, 1, 51, 108
3, 48668, Note_off_c, 1, 51, 100
3, 48672, Note_on_c, 1, 63, 109
3, 48764, Note_off_c, 1, 63, 100
3, 48768, Note_on_c, 1, 62, 120
3, 48768, Note_on_c, 1, 58, 120
3, 48768, Note_on_c, 1, 56, 120
3, 48768, Note_on_c, 1, 53, 120
3, 48768, Note_on_c, 1, 51, 120
3, 50300, Note_off_c, 1, 62, 100
3, 50300, Note_off_c, 1, 58, 100
3, 50300, Note_off_c, 1, 56, 100
3, 50300, Note_off_c, 1, 53, 100
3, 50300, Note_off_c, 1, 51, 100
3, 50304, Note_on_c, 1, 63, 120
3, 50304, Note_on_c, 1, 58, 120
3, 50304, Note_on_c, 1, 55, 120
3, 50304, Note_on_c, 1, 51, 120
3, 50684, Note_off_c, 1, 63, 100
3, 50684, Note_off_c, 1, 58, 100
3, 50684, Note_off_c, 1, 55, 100
3, 50684, Note_off_c, 1, 51, 100
3, 51840, Note_on_c, 1, 44, 120
3, 51840, Note_on_c, 1, 32, 120
3, 52220, Note_off_c, 1, 44, 100
3, 52220, Note_off_c, 1, 32, 100
3, 52416, Note_on_c, 1, 44, 120
3, 52416, Note_on_c, 1, 32, 120
3, 52604, Note_off_c, 1, 44, 100
3, 52604, Note_off_c, 1, 32, 100
3, 52608, Note_on_c, 1, 46, 120
3, 52608, Note_on_c, 1, 34, 120
3, 52988, Note_off_c, 1, 46, 100
3, 52988, Note_off_c, 1, 34, 100
3, 53184, Note_on_c, 1, 46, 120
3, 53184, Note_on_c, 1, 34, 120
3, 53372, Note_off_c, 1, 46, 100
3, 53372, Note_off_c, 1, 34, 100
3, 53568, Note_on_c, 1, 68, 120
3, 53660, Note_off_c, 1, 68, 100
3, 53664, Note_on_c, 1, 70, 120
3, 53756, Note_off_c, 1, 70, 100
3, 53760, Note_on_c, 1, 72, 120
3, 53852, Note_off_c, 1, 72, 100
3, 53856, Note_on_c, 1, 70, 120
3, 53948, Note_off_c, 1, 70, 100
3, 53952, Note_on_c, 1, 68, 120
3, 54044, Note_off_c, 1, 68, 100
3, 54048, Note_on_c, 1, 67, 120
3, 54140, Note_off_c, 1, 67, 100
3, 54144, Note_on_c, 1, 65, 120
3, 54268, Note_off_c, 1, 65, 100
3, 54272, Note_on_c, 1, 63, 120
3, 54396, Note_off_c, 1, 63, 100
3, 54400, Note_on_c, 1, 62, 120
3, 54524, Note_off_c, 1, 62, 100
3, 54528, Note_on_c, 1, 60, 120
3, 54652, Note_off_c, 1, 60, 100
3, 54656, Note_on_c, 1, 58, 120
3, 54780, Note_off_c, 1, 58, 100
3, 54784, Note_on_c, 1, 56, 120
3, 54908, Note_off_c, 1, 56, 100
3, 54912, Note_on_c, 1, 55, 120
3, 55036, Note_off_c, 1, 55, 100
3, 55040, Note_on_c, 1, 56, 120
3, 55164, Note_off_c, 1, 56, 100
3, 55168, Note_on_c, 1, 58, 120
3, 55292, Note_off_c, 1, 58, 100
3, 55296, Note_on_c, 1, 56, 120
3, 55420, Note_off_c, 1, 56, 100
3, 55424, Note_on_c, 1, 55, 120
3, 55548, Note_off_c, 1, 55, 100
3, 55552, Note_on_c, 1, 53, 120
3, 55676, Note_off_c, 1, 53, 100
3, 55680, Note_on_c, 1, 51, 120
3, 55804, Note_off_c, 1, 51, 100
3, 55808, Note_on_c, 1, 50, 120
3, 55932, Note_off_c, 1, 50, 100
3, 55936, Note_on_c, 1, 48, 120
3, 56060, Note_off_c, 1, 48, 100
3, 56064, Note_on_c, 1, 46, 120
3, 56188, Note_off_c, 1, 46, 100
3, 56192, Note_on_c, 1, 44, 120
3, 56316, Note_off_c, 1, 44, 100
3, 56320, Note_on_c, 1, 43, 120
3, 56444, Note_off_c, 1, 43, 100
3, 56448, Note_on_c, 1, 44, 120
3, 56448, Note_on_c, 1, 32, 120
3, 56828, Note_off_c, 1, 44, 100
3, 56828, Note_off_c, 1, 32, 100
3, 57024, Note_on_c, 1, 44, 120
3, 57024, Note_on_c, 1, 32, 120
3, 57212, Note_off_c, 1, 44, 100
3, 57212, Note_off_c, 1, 32, 100
3, 57216, Note_on_c, 1, 46, 120
3, 57216, Note_on_c, 1, 34, 120
3, 57596, Note_off_c, 1, 46, 100
3, 57596, Note_off_c, 1, 34, 100
3, 57792, Note_on_c, 1, 46, 120
3, 57792, Note_on_c, 1, 34, 120
3, 57980, Note_off_c, 1, 46, 100
3, 57980, Note_off_c, 1, 34, 100
3, 57984, Note_on_c, 1, 51, 120
3, 57984, Note_on_c, 1, 46, 120
3, 57984, Note_on_c, 1, 43, 120
3, 57984, Note_on_c, 1, 39, 120
3, 58364, Note_off_c, 1, 51, 100
3, 58364, Note_off_c, 1, 46, 100
3, 58364, Note_off_c, 1, 43, 100
3, 58364, Note_off_c, 1, 39, 100
3, 58368, Note_on_c, 1, 64, 120
3, 58368, Note_on_c, 1, 67, 120
3, 58556, Note_off_c, 1, 64, 100
3, 58556, Note_off_c, 1, 67, 100
3, 58560, Note_on_c, 1, 64, 120
3, 58560, Note_on_c, 1, 67, 120
3, 58748, Note_off_c, 1, 64, 100
3, 58748, Note_off_c, 1, 67, 100
3, 58752, Note_on_c, 1, 65, 120
3, 58752, Note_on_c, 1, 68, 120
3, 59132, Note_off_c, 1, 65, 100
3, 59132, Note_off_c, 1, 68, 100
3, 59136, Note_on_c, 1, 67, 120
3, 59136, Note_on_c, 1, 64, 120
3, 59324, Note_off_c, 1, 67, 100
3, 59324, Note_off_c, 1, 64, 100
3, 59328, Note_on_c, 1, 67, 120
3, 59328, Note_on_c, 1, 64, 120
3, 59516, Note_off_c, 1, 67, 100
3, 59516, Note_off_c, 1, 64, 100
3, 59520, Note_on_c, 1, 65, 120
3, 59520, Note_on_c, 1, 68, 120
3, 59900, Note_off_c, 1, 65, 100
3, 59900, Note_off_c, 1, 68, 100
3, 59904, Note_on_c, 1, 46, 120
3, 59904, Note_on_c, 1, 34, 120
3, 60284, Note_off_c, 1, 46, 100
3, 60284, Note_off_c, 1, 34, 100
3, 60672, Note_on_c, 1, 47, 80
3, 60672, Note_on_c, 1, 35, 80
3, 61052, Note_off_c, 1, 47, 100
3, 61052, Note_off_c, 1, 35, 100
3, 61056, Note_on_c, 1, 48, 80
3, 61056, Note_on_c, 1, 36, 80
3, 61436, Note_off_c, 1, 48, 100
3, 61436, Note_off_c, 1, 36, 100
3, 61440, Note_on_c, 1, 45, 80
3, 61440, Note_on_c, 1, 33, 80
3, 61820, Note_off_c, 1, 45, 100
3, 61820, Note_off_c, 1, 33, 100
3, 61824, Note_on_c, 1, 46, 80
3, 61824, Note_on_c, 1, 34, 80
3, 62204, Note_off_c, 1, 46, 100
3, 62204, Note_off_c, 1, 34, 100
3, 62208, Note_on_c, 1, 46, 80
3, 62208, Note_on_c, 1, 34, 80
3, 62588, Note_off_c, 1, 46, 100
3, 62588, Note_off_c, 1, 34, 100
3, 62592, Note_on_c, 1, 51, 80
3, 62592, Note_on_c, 1, 39, 80
3, 62972, Note_off_c, 1, 51, 100
3, 62972, Note_off_c, 1, 39, 100
3, 62976, Note_on_c, 1, 64, 120
3, 62976, Note_on_c, 1, 67, 120
3, 63164, Note_off_c, 1, 64, 100
3, 63164, Note_off_c, 1, 67, 100
3, 63168, Note_on_c, 1, 64, 120
3, 63168, Note_on_c, 1, 67, 120
3, 63356, Note_off_c, 1, 64, 100
3, 63356, Note_off_c, 1, 67, 100
3, 63360, Note_on_c, 1, 65, 120
3, 63360, Note_on_c, 1, 68, 120
3, 63740, Note_off_c, 1, 65, 100
3, 63740, Note_off_c, 1, 68, 100
3, 63744, Note_on_c, 1, 64, 120
3, 63744, Note_on_c, 1, 67, 120
3, 63932, Note_off_c, 1, 64, 100
3, 63932, Note_off_c, 1, 67, 100
3, 63936, Note_on_c, 1, 64, 120
3, 63936, Note_on_c, 1, 67, 120
3, 64124, Note_off_c, 1, 64, 100
3, 64124, Note_off_c, 1, 67, 100
3, 64128, Note_on_c, 1, 65, 120
3, 64128, Note_on_c, 1, 68, 120
3, 64508, Note_off_c, 1, 65, 100
3, 64508, Note_off_c, 1, 68, 100
3, 64512, Note_on_c, 1, 46, 120
3, 64512, Note_on_c, 1, 34, 120
3, 64892, Note_off_c, 1, 46, 100
3, 64892, Note_off_c, 1, 34, 100
3, 65280, Note_on_c, 1, 47, 120
3, 65280, Note_on_c, 1, 42, 120
3, 65280, Note_on_c, 1, 39, 120
3, 65280, Note_on_c, 1, 35, 120
3, 66044, Note_off_c, 1, 35, 100
3, 66044, Note_off_c, 1, 39, 100
3, 66044, Note_off_c, 1, 42, 100
3, 66044, Note_off_c, 1, 47, 100
3, 66048, Note_on_c, 1, 45, 80
3, 66048, Note_on_c, 1, 33, 80
3, 66428, Note_off_c, 1, 45, 100
3, 66428, Note_off_c, 1, 33, 100
3, 66432, Note_on_c, 1, 46, 80
3, 66432, Note_on_c, 1, 34, 80
3, 66812, Note_off_c, 1, 46, 100
3, 66812, Note_off_c, 1, 34, 100
3, 66816, Note_on_c, 1, 46, 80
3, 66816, Note_on_c, 1, 34, 80
3, 67196, Note_off_c, 1, 46, 100
3, 67196, Note_off_c, 1, 34, 100
3, 67200, Note_on_c, 1, 39, 80
3, 67388, Note_off_c, 1, 39, 100
3, 67392, Note_on_c, 1, 51, 80
3, 67580, Note_off_c, 1, 51, 100
3, 67968, Note_on_c, 1, 39, 80
3, 68156, Note_off_c, 1, 39, 100
3, 68160, Note_on_c, 1, 51, 80
3, 68348, Note_off_c, 1, 51, 100
3, 68736, Note_on_c, 1, 39, 80
3, 68924, Note_off_c, 1, 39, 100
3, 68928, Note_on_c, 1, 51, 80
3, 69116, Note_off_c, 1, 51, 100
3, 69504, Note_on_c, 1, 39, 80
3, 69692, Note_off_c, 1, 39, 100
3, 69696, Note_on_c, 1, 51, 80
3, 69884, Note_off_c, 1, 51, 100
3, 70272, Note_on_c, 1, 39, 80
3, 70652, Note_off_c, 1, 39, 100
3, 72384, Note_on_c, 1, 48, 80
3, 72572, Note_off_c, 1, 48, 100
3, 72576, Note_on_c, 1, 47, 80
3, 72764, Note_off_c, 1, 47, 100
3, 72768, Note_on_c, 1, 48, 80
3, 72956, Note_off_c, 1, 48, 100
3, 72960, Note_on_c, 1, 53, 80
3, 73148, Note_off_c, 1, 53, 100
3, 73152, Note_on_c, 1, 53, 80
3, 73340, Note_off_c, 1, 53, 100
3, 73344, Note_on_c, 1, 51, 80
3, 73724, Note_off_c, 1, 51, 100
3, 73920, Note_on_c, 1, 48, 80
3, 74108, Note_off_c, 1, 48, 100
3, 74112, Note_on_c, 1, 47, 80
3, 74300, Note_off_c, 1, 47, 100
3, 74304, Note_on_c, 1, 48, 80
3, 74492, Note_off_c, 1, 48, 100
3, 74496, Note_on_c, 1, 56, 80
3, 74684, Note_off_c, 1, 56, 100
3, 74688, Note_on_c, 1, 56, 80
3, 74876, Note_off_c, 1, 56, 100
3, 74880, Note_on_c, 1, 55, 80
3, 75260, Note_off_c, 1, 55, 100
3, 76416, Note_on_c, 1, 66, 80
3, 76416, Note_on_c, 1, 60, 80
3, 76416, Note_on_c, 1, 56, 80
3, 77948, Note_off_c, 1, 66, 100
3, 77948, Note_off_c, 1, 60, 100
3, 77948, Note_off_c, 1, 56, 100
3, 77952, Note_on_c, 1, 67, 80
3, 77952, Note_on_c, 1, 62, 80
3, 77952, Note_on_c, 1, 55, 80
3, 78332, Note_off_c, 1, 67, 100
3, 78332, Note_off_c, 1, 62, 100
3, 78332, Note_off_c, 1, 55, 100
3, 78528, Note_on_c, 1, 43, 80
3, 78716, Note_off_c, 1, 43, 100
3, 78720, Note_on_c, 1, 42, 80
3, 78908, Note_off_c, 1, 42, 100
3, 78912, Note_on_c, 1, 43, 80
3, 79100, Note_off_c, 1, 43, 100
3, 79104, Note_on_c, 1, 48, 80
3, 79292, Note_off_c, 1, 48, 100
3, 79296, Note_on_c, 1, 48, 80
3, 79484, Note_off_c, 1, 48, 100
3, 79488, Note_on_c, 1, 47, 80
3, 79868, Note_off_c, 1, 47, 100
3, 80064, Note_on_c, 1, 43, 80
3, 80252, Note_off_c, 1, 43, 100
3, 80256, Note_on_c, 1, 42, 80
3, 80444, Note_off_c, 1, 42, 100
3, 80448, Note_on_c, 1, 43, 80
3, 80636, Note_off_c, 1, 43, 100
3, 80640, Note_on_c, 1, 51, 80
3, 80828, Note_off_c, 1, 51, 100
3, 80832, Note_on_c, 1, 51, 80
3, 81020, Note_off_c, 1, 51, 100
3, 81024, Note_on_c, 1, 50, 80
3, 81404, Note_off_c, 1, 50, 100
3, 81600, Note_on_c, 1, 43, 80
3, 81788, Note_off_c, 1, 43, 100
3, 81792, Note_on_c, 1, 47, 80
3, 81980, Note_off_c, 1, 47, 100
3, 81984, Note_on_c, 1, 50, 80
3, 82172, Note_off_c, 1, 50, 100
3, 82176, Note_on_c, 1, 53, 80
3, 82364, Note_off_c, 1, 53, 100
3, 82368, Note_on_c, 1, 56, 80
3, 82556, Note_off_c, 1, 56, 100
3, 82560, Note_on_c, 1, 59, 80
3, 82748, Note_off_c, 1, 59, 100
3, 82752, Note_on_c, 1, 62, 80
3, 82940, Note_off_c, 1, 62, 100
3, 82944, Note_on_c, 1, 65, 80
3, 83132, Note_off_c, 1, 65, 100
3, 83136, Note_on_c, 1, 68, 80
3, 83324, Note_off_c, 1, 68, 100
3, 83328, Note_on_c, 1, 67, 80
3, 83516, Note_off_c, 1, 67, 100
3, 83520, Note_on_c, 1, 65, 80
3, 83708, Note_off_c, 1, 65, 100
3, 83712, Note_on_c, 1, 63, 80
3, 83900, Note_off_c, 1, 63, 100
3, 83904, Note_on_c, 1, 62, 80
3, 84092, Note_off_c, 1, 62, 100
3, 84096, Note_on_c, 1, 60, 80
3, 84284, Note_off_c, 1, 60, 100
3, 84288, Note_on_c, 1, 63, 80
3, 84288, Note_on_c, 1, 67, 80
3, 84476, Note_off_c, 1, 63, 100
3, 84476, Note_off_c, 1, 67, 100
3, 84480, Note_on_c, 1, 63, 80
3, 84480, Note_on_c, 1, 67, 80
3, 84668, Note_off_c, 1, 63, 100
3, 84668, Note_off_c, 1, 67, 100
3, 84672, Note_on_c, 1, 63, 80
3, 84672, Note_on_c, 1, 67, 80
3, 84860, Note_off_c, 1, 63, 100
3, 84860, Note_off_c, 1, 67, 100
3, 84864, Note_on_c, 1, 60, 80
3, 85052, Note_off_c, 1, 60, 100
3, 85056, Note_on_c, 1, 64, 80
3, 85056, Note_on_c, 1, 67, 80
3, 85056, Note_on_c, 1, 70, 80
3, 85244, Note_off_c, 1, 64, 100
3, 85244, Note_off_c, 1, 67, 100
3, 85244, Note_off_c, 1, 70, 100
3, 85248, Note_on_c, 1, 64, 80
3, 85248, Note_on_c, 1, 70, 80
3, 85248, Note_on_c, 1, 67, 80
3, 85436, Note_off_c, 1, 64, 100
3, 85436, Note_off_c, 1, 70, 100
3, 85436, Note_off_c, 1, 67, 100
3, 85440, Note_on_c, 1, 64, 80
3, 85440, Note_on_c, 1, 67, 80
3, 85440, Note_on_c, 1, 70, 80
3, 85628, Note_off_c, 1, 64, 100
3, 85628, Note_off_c, 1, 67, 100
3, 85628, Note_off_c, 1, 70, 100
3, 85632, Note_on_c, 1, 60, 80
3, 85820, Note_off_c, 1, 60, 100
3, 85824, Note_on_c, 1, 65, 80
3, 85824, Note_on_c, 1, 68, 80
3, 86012, Note_off_c, 1, 65, 100
3, 86012, Note_off_c, 1, 68, 100
3, 86016, Note_on_c, 1, 65, 80
3, 86016, Note_on_c, 1, 68, 80
3, 86204, Note_off_c, 1, 65, 100
3, 86204, Note_off_c, 1, 68, 100
3, 86208, Note_on_c, 1, 65, 80
3, 86208, Note_on_c, 1, 68, 80
3, 86396, Note_off_c, 1, 65, 100
3, 86396, Note_off_c, 1, 68, 100
3, 86400, Note_on_c, 1, 60, 80
3, 86588, Note_off_c, 1, 60, 100
3, 86592, Note_on_c, 1, 65, 80
3, 86592, Note_on_c, 1, 68, 80
3, 86592, Note_on_c, 1, 71, 80
3, 86780, Note_off_c, 1, 65, 100
3, 86780, Note_off_c, 1, 68, 100
3, 86780, Note_off_c, 1, 71, 100
3, 86784, Note_on_c, 1, 65, 80
3, 86784, Note_on_c, 1, 68, 80
3, 86784, Note_on_c, 1, 71, 80
3, 86972, Note_off_c, 1, 65, 100
3, 86972, Note_off_c, 1, 68, 100
3, 86972, Note_off_c, 1, 71, 100
3, 86976, Note_on_c, 1, 65, 80
3, 86976, Note_on_c, 1, 68, 80
3, 86976, Note_on_c, 1, 71, 80
3, 87164, Note_off_c, 1, 65, 100
3, 87164, Note_off_c, 1, 68, 100
3, 87164, Note_off_c, 1, 71, 100
3, 87168, Note_on_c, 1, 60, 80
3, 87356, Note_off_c, 1, 60, 100
3, 87360, Note_on_c, 1, 63, 80
3, 87360, Note_on_c, 1, 67, 80
3, 87548, Note_off_c, 1, 63, 100
3, 87548, Note_off_c, 1, 67, 100
3, 87552, Note_on_c, 1, 63, 80
3, 87552, Note_on_c, 1, 67, 80
3, 87740, Note_off_c, 1, 63, 100
3, 87740, Note_off_c, 1, 67, 100
3, 87744, Note_on_c, 1, 63, 80
3, 87744, Note_on_c, 1, 67, 80
3, 87932, Note_off_c, 1, 63, 100
3, 87932, Note_off_c, 1, 67, 100
3, 87936, Note_on_c, 1, 60, 80
3, 88124, Note_off_c, 1, 60, 100
3, 88128, Note_on_c, 1, 64, 80
3, 88128, Note_on_c, 1, 67, 80
3, 88128, Note_on_c, 1, 70, 80
3, 88316, Note_off_c, 1, 64, 100
3, 88316, Note_off_c, 1, 67, 100
3, 88316, Note_off_c, 1, 70, 100
3, 88320, Note_on_c, 1, 64, 80
3, 88320, Note_on_c, 1, 70, 80
3, 88320, Note_on_c, 1, 67, 80
3, 88508, Note_off_c, 1, 64, 100
3, 88508, Note_off_c, 1, 70, 100
3, 88508, Note_off_c, 1, 67, 100
3, 88512, Note_on_c, 1, 64, 80
3, 88512, Note_on_c, 1, 67, 80
3, 88512, Note_on_c, 1, 70, 80
3, 88700, Note_off_c, 1, 64, 100
3, 88700, Note_off_c, 1, 67, 100
3, 88700, Note_off_c, 1, 70, 100
3, 88704, Note_on_c, 1, 60, 80
3, 88892, Note_off_c, 1, 60, 100
3, 88896, Note_on_c, 1, 65, 80
3, 88896, Note_on_c, 1, 68, 80
3, 89084, Note_off_c, 1, 65, 100
3, 89084, Note_off_c, 1, 68, 100
3, 89088, Note_on_c, 1, 65, 80
3, 89088, Note_on_c, 1, 68, 80
3, 89276, Note_off_c, 1, 65, 100
3, 89276, Note_off_c, 1, 68, 100
3, 89280, Note_on_c, 1, 65, 80
3, 89280, Note_on_c, 1, 68, 80
3, 89468, Note_off_c, 1, 65, 100
3, 89468, Note_off_c, 1, 68, 100
3, 89472, Note_on_c, 1, 60, 80
3, 89660, Note_off_c, 1, 60, 100
3, 89664, Note_on_c, 1, 65, 80
3, 89664, Note_on_c, 1, 68, 80
3, 89664, Note_on_c, 1, 71, 80
3, 89852, Note_off_c, 1, 65, 100
3, 89852, Note_off_c, 1, 68, 100
3, 89852, Note_off_c, 1, 71, 100
3, 89856, Note_on_c, 1, 65, 80
3, 89856, Note_on_c, 1, 68, 80
3, 89856, Note_on_c, 1, 71, 80
3, 90044, Note_off_c, 1, 65, 100
3, 90044, Note_off_c, 1, 68, 100
3, 90044, Note_off_c, 1, 71, 100
3, 90048, Note_on_c, 1, 65, 80
3, 90048, Note_on_c, 1, 68, 80
3, 90048, Note_on_c, 1, 71, 80
3, 90236, Note_off_c, 1, 65, 100
3, 90236, Note_off_c, 1, 68, 100
3, 90236, Note_off_c, 1, 71, 100
3, 90240, Note_on_c, 1, 72, 80
3, 90240, Note_on_c, 1, 67, 80
3, 90240, Note_on_c, 1, 63, 80
3, 90240, Note_on_c, 1, 60, 80
3, 90620, Note_off_c, 1, 72, 100
3, 90620, Note_off_c, 1, 67, 100
3, 90620, Note_off_c, 1, 63, 100
3, 90620, Note_off_c, 1, 60, 100
3, 90816, Note_on_c, 1, 66, 84
3, 91004, Note_off_c, 1, 66, 100
3, 91008, Note_on_c, 1, 67, 86
3, 91388, Note_off_c, 1, 67, 100
3, 91584, Note_on_c, 1, 59, 91
3, 91772, Note_off_c, 1, 59, 100
3, 91776, Note_on_c, 1, 60, 92
3, 92156, Note_off_c, 1, 60, 100
3, 92352, Note_on_c, 1, 54, 97
3, 92540, Note_off_c, 1, 54, 100
3, 92544, Note_on_c, 1, 55, 98
3, 92924, Note_off_c, 1, 55, 100
3, 93120, Note_on_c, 1, 47, 103
3, 93308, Note_off_c, 1, 47, 100
3, 93312, Note_on_c, 1, 48, 105
3, 93692, Note_off_c, 1, 48, 100
3, 93888, Note_on_c, 1, 42, 109
3, 94076, Note_off_c, 1, 42, 100
3, 94080, Note_on_c, 1, 43, 110
3, 94460, Note_off_c, 1, 43, 100
3, 94464, Note_on_c, 1, 48, 110
3, 94464, Note_on_c, 1, 36, 110
3, 94844, Note_off_c, 1, 48, 100
3, 94844, Note_off_c, 1, 36, 100
3, 94848, Note_on_c, 1, 43, 110
3, 94848, Note_on_c, 1, 31, 110
3, 95228, Note_off_c, 1, 43, 100
3, 95228, Note_off_c, 1, 31, 100
3, 95232, Note_on_c, 1, 48, 110
3, 95232, Note_on_c, 1, 36, 110
3, 95612, Note_off_c, 1, 48, 100
3, 95612, Note_off_c, 1, 36, 100
3, 95616, Note_on_c, 1, 43, 110
3, 95616, Note_on_c, 1, 31, 110
3, 95996, Note_off_c, 1, 43, 100
3, 95996, Note_off_c, 1, 31, 100
3, 96000, Note_on_c, 1, 48, 110
3, 96000, Note_on_c, 1, 36, 110
3, 96380, Note_off_c, 1, 48, 100
3, 96380, Note_off_c, 1, 36, 100
3, 96384, Note_on_c, 1, 43, 120
3, 96384, Note_on_c, 1, 38, 120
3, 96384, Note_on_c, 1, 35, 120
3, 96384, Note_on_c, 1, 31, 120
3, 98684, Note_off_c, 1, 31, 100
3, 98684, Note_off_c, 1, 35, 100
3, 98684, Note_off_c, 1, 38, 100
3, 98684, Note_off_c, 1, 43, 100
3, 99456, Note_on_c, 1, 51, 80
3, 99456, Note_on_c, 1, 39, 80
3, 100220, Note_off_c, 1, 51, 100
3, 100220, Note_off_c, 1, 39, 100
3, 100224, Note_on_c, 1, 56, 80
3, 100224, Note_on_c, 1, 44, 80
3, 100604, Note_off_c, 1, 56, 100
3, 100604, Note_off_c, 1, 44, 100
3, 100608, Note_on_c, 1, 55, 80
3, 100608, Note_on_c, 1, 43, 80
3, 100988, Note_off_c, 1, 55, 100
3, 100988, Note_off_c, 1, 43, 100
3, 100992, Note_on_c, 1, 53, 80
3, 100992, Note_on_c, 1, 46, 80
3, 100992, Note_on_c, 1, 41, 80
3, 101756, Note_off_c, 1, 53, 100
3, 101756, Note_off_c, 1, 46, 100
3, 101756, Note_off_c, 1, 41, 100
3, 102528, Note_on_c, 1, 51, 80
3, 102528, Note_on_c, 1, 39, 80
3, 103292, Note_off_c, 1, 51, 100
3, 103292, Note_off_c, 1, 39, 100
3, 103296, Note_on_c, 1, 44, 80
3, 103296, Note_on_c, 1, 32, 80
3, 103676, Note_off_c, 1, 44, 100
3, 103676, Note_off_c, 1, 32, 100
3, 103680, Note_on_c, 1, 45, 80
3, 103680, Note_on_c, 1, 33, 80
3, 104060, Note_off_c, 1, 45, 100
3, 104060, Note_off_c, 1, 33, 100
3, 104064, Note_on_c, 1, 46, 80
3, 104064, Note_on_c, 1, 34, 80
3, 104828, Note_off_c, 1, 46, 100
3, 104828, Note_off_c, 1, 34, 100
3, 105600, Note_on_c, 1, 51, 80
3, 105600, Note_on_c, 1, 39, 80
3, 106364, Note_off_c, 1, 51, 100
3, 106364, Note_off_c, 1, 39, 100
3, 106368, Note_on_c, 1, 56, 80
3, 106368, Note_on_c, 1, 44, 80
3, 106748, Note_off_c, 1, 56, 100
3, 106748, Note_off_c, 1, 44, 100
3, 106752, Note_on_c, 1, 55, 80
3, 106752, Note_on_c, 1, 43, 80
3, 107132, Note_off_c, 1, 55, 100
3, 107132, Note_off_c, 1, 43, 100
3, 107136, Note_on_c, 1, 44, 110
3, 107184, Note_on_c, 1, 48, 110
3, 107232, Note_on_c, 1, 51, 110
3, 107280, Note_on_c, 1, 56, 110
3, 107516, Note_off_c, 1, 44, 100
3, 107516, Note_off_c, 1, 48, 100
3, 107516, Note_off_c, 1, 51, 100
3, 107516, Note_off_c, 1, 56, 100
3, 108672, Note_on_c, 1, 46, 80
3, 109632, Note_on_c, 1, 34, 80
3, 109820, Note_off_c, 1, 34, 100
3, 109824, Note_on_c, 1, 36, 80
3, 110012, Note_off_c, 1, 36, 100
3, 110016, Note_on_c, 1, 38, 80
3, 110204, Note_off_c, 1, 38, 100
3, 110208, Note_on_c, 1, 39, 80
3, 110396, Note_off_c, 1, 39, 100
3, 110400, Note_on_c, 1, 41, 80
3, 110588, Note_off_c, 1, 41, 100
3, 110592, Note_on_c, 1, 43, 80
3, 110972, Note_off_c, 1, 43, 100
3, 110976, Note_on_c, 1, 41, 80
3, 111356, Note_off_c, 1, 41, 100
3, 111360, Note_on_c, 1, 39, 80
3, 111740, Note_off_c, 1, 46, 100
3, 111740, Note_off_c, 1, 39, 100
3, 111744, Note_on_c, 1, 46, 80
3, 112704, Note_on_c, 1, 34, 80
3, 112892, Note_off_c, 1, 34, 100
3, 112896, Note_on_c, 1, 36, 80
3, 113084, Note_off_c, 1, 36, 100
3, 113088, Note_on_c, 1, 38, 80
3, 113276, Note_off_c, 1, 38, 100
3, 113280, Note_on_c, 1, 39, 80
3, 113468, Note_off_c, 1, 39, 100
3, 113472, Note_on_c, 1, 41, 80
3, 113660, Note_off_c, 1, 41, 100
3, 113664, Note_on_c, 1, 43, 80
3, 114044, Note_off_c, 1, 43, 100
3, 114048, Note_on_c, 1, 41, 80
3, 114428, Note_off_c, 1, 41, 100
3, 114432, Note_on_c, 1, 39, 80
3, 114812, Note_off_c, 1, 46, 100
3, 114812, Note_off_c, 1, 39, 100
3, 114816, Note_on_c, 1, 53, 80
3, 114816, Note_on_c, 1, 48, 80
3, 114816, Note_on_c, 1, 43, 80
3, 115196, Note_off_c, 1, 53, 100
3, 115196, Note_off_c, 1, 48, 100
3, 115196, Note_off_c, 1, 43, 100
3, 115584, Note_on_c, 1, 56, 80
3, 115584, Note_on_c, 1, 53, 80
3, 115584, Note_on_c, 1, 46, 80
3, 115964, Note_off_c, 1, 56, 100
3, 115964, Note_off_c, 1, 53, 100
3, 115964, Note_off_c, 1, 46, 100
3, 116352, Note_on_c, 1, 55, 80
3, 116352, Note_on_c, 1, 51, 80
3, 116732, Note_off_c, 1, 55, 100
3, 116732, Note_off_c, 1, 51, 100
3, 116928, Note_on_c, 1, 51, 83
3, 117116, Note_off_c, 1, 51, 100
3, 117120, Note_on_c, 1, 50, 85
3, 117308, Note_off_c, 1, 50, 100
3, 117312, Note_on_c, 1, 51, 86
3, 117500, Note_off_c, 1, 51, 100
3, 117504, Note_on_c, 1, 56, 87
3, 117504, Note_on_c, 1, 48, 87
3, 117692, Note_off_c, 1, 56, 100
3, 117692, Note_off_c, 1, 48, 100
3, 117696, Note_on_c, 1, 56, 88
3, 117696, Note_on_c, 1, 48, 88
3, 117884, Note_off_c, 1, 56, 100
3, 117884, Note_off_c, 1, 48, 100
3, 117888, Note_on_c, 1, 55, 90
3, 117888, Note_on_c, 1, 46, 90
3, 118268, Note_off_c, 1, 55, 100
3, 118268, Note_off_c, 1, 46, 100
3, 118464, Note_on_c, 1, 51, 94
3, 118652, Note_off_c, 1, 51, 100
3, 118656, Note_on_c, 1, 50, 95
3, 118844, Note_off_c, 1, 50, 100
3, 118848, Note_on_c, 1, 51, 96
3, 119036, Note_off_c, 1, 51, 100
3, 119040, Note_on_c, 1, 56, 97
3, 119040, Note_on_c, 1, 60, 97
3, 119228, Note_off_c, 1, 56, 100
3, 119228, Note_off_c, 1, 60, 100
3, 119232, Note_on_c, 1, 56, 99
3, 119232, Note_on_c, 1, 60, 99
3, 119420, Note_off_c, 1, 56, 100
3, 119420, Note_off_c, 1, 60, 100
3, 119424, Note_on_c, 1, 58, 100
3, 119424, Note_on_c, 1, 55, 100
3, 119612, Note_off_c, 1, 58, 100
3, 119612, Note_off_c, 1, 55, 100
3, 119616, Note_on_c, 1, 51, 101
3, 119708, Note_off_c, 1, 51, 100
3, 119712, Note_on_c, 1, 63, 102
3, 119804, Note_off_c, 1, 63, 100
3, 119808, Note_on_c, 1, 51, 102
3, 119900, Note_off_c, 1, 51, 100
3, 119904, Note_on_c, 1, 63, 103
3, 119996, Note_off_c, 1, 63, 100
3, 120000, Note_on_c, 1, 51, 104
3, 120092, Note_off_c, 1, 51, 100
3, 120096, Note_on_c, 1, 63, 104
3, 120188, Note_off_c, 1, 63, 100
3, 120192, Note_on_c, 1, 51, 105
3, 120284, Note_off_c, 1, 51, 100
3, 120288, Note_on_c, 1, 63, 106
3, 120380, Note_off_c, 1, 63, 100
3, 120384, Note_on_c, 1, 51, 106
3, 120476, Note_off_c, 1, 51, 100
3, 120480, Note_on_c, 1, 63, 107
3, 120572, Note_off_c, 1, 63, 100
3, 120576, Note_on_c, 1, 51, 108
3, 120668, Note_off_c, 1, 51, 100
3, 120672, Note_on_c, 1, 63, 108
3, 120764, Note_off_c, 1, 63, 100
3, 120768, Note_on_c, 1, 51, 109
3, 120860, Note_off_c, 1, 51, 100
3, 120864, Note_on_c, 1, 63, 109
3, 120956, Note_off_c, 1, 63, 100
3, 120960, Note_on_c, 1, 62, 120
3, 120960, Note_on_c, 1, 58, 120
3, 120960, Note_on_c, 1, 56, 120
3, 120960, Note_on_c, 1, 53, 120
3, 120960, Note_on_c, 1, 51, 120
3, 122492, Note_off_c, 1, 62, 100
3, 122492, Note_off_c, 1, 58, 100
3, 122492, Note_off_c, 1, 56, 100
3, 122492, Note_off_c, 1, 53, 100
3, 122492, Note_off_c, 1, 51, 100
3, 122496, Note_on_c, 1, 63, 120
3, 122496, Note_on_c, 1, 58, 120
3, 122496, Note_on_c, 1, 55, 120
3, 122496, Note_on_c, 1, 51, 120
3, 122876, Note_off_c, 1, 63, 100
3, 122876, Note_off_c, 1, 58, 100
3, 122876, Note_off_c, 1, 55, 100
3, 122876, Note_off_c, 1, 51, 100
3, 124032, Note_on_c, 1, 44, 120
3, 124032, Note_on_c, 1, 32, 120
3, 124412, Note_off_c, 1, 44, 100
3, 124412, Note_off_c, 1, 32, 100
3, 124608, Note_on_c, 1, 44, 120
3, 124608, Note_on_c, 1, 32, 120
3, 124796, Note_off_c, 1, 44, 100
3, 124796, Note_off_c, 1, 32, 100
3, 124800, Note_on_c, 1, 46, 120
3, 124800, Note_on_c, 1, 34, 120
3, 125180, Note_off_c, 1, 46, 100
3, 125180, Note_off_c, 1, 34, 100
3, 125376, Note_on_c, 1, 46, 120
3, 125376, Note_on_c, 1, 34, 120
3, 125564, Note_off_c, 1, 46, 100
3, 125564, Note_off_c, 1, 34, 100
3, 125760, Note_on_c, 1, 68, 120
3, 125852, Note_off_c, 1, 68, 100
3, 125856, Note_on_c, 1, 70, 120
3, 125948, Note_off_c, 1, 70, 100
3, 125952, Note_on_c, 1, 72, 120
3, 126044, Note_off_c, 1, 72, 100
3, 126048, Note_on_c, 1, 70, 120
3, 126140, Note_off_c, 1, 70, 100
3, 126144, Note_on_c, 1, 68, 120
3, 126236, Note_off_c, 1, 68, 100
3, 126240, Note_on_c, 1, 67, 120
3, 126332, Note_off_c, 1, 67, 100
3, 126336, Note_on_c, 1, 65, 120
3, 126460, Note_off_c, 1, 65, 100
3, 126464, Note_on_c, 1, 63, 120
3, 126588, Note_off_c, 1, 63, 100
3, 126592, Note_on_c, 1, 62, 120
3, 126716, Note_off_c, 1, 62, 100
3, 126720, Note_on_c, 1, 60, 120
3, 126844, Note_off_c, 1, 60, 100
3, 126848, Note_on_c, 1, 58, 120
3, 126972, Note_off_c, 1, 58, 100
3, 126976, Note_on_c, 1, 56, 120
3, 127100, Note_off_c, 1, 56, 100
3, 127104, Note_on_c, 1, 55, 120
3, 127228, Note_off_c, 1, 55, 100
3, 127232, Note_on_c, 1, 56, 120
3, 127356, Note_off_c, 1, 56, 100
3, 127360, Note_on_c, 1, 58, 120
3, 127484, Note_off_c, 1, 58, 100
3, 127488, Note_on_c, 1, 56, 120
3, 127612, Note_off_c, 1, 56, 100
3, 127616, Note_on_c, 1, 55, 120
3, 127740, Note_off_c, 1, 55, 100
3, 127744, Note_on_c, 1, 53, 120
3, 127868, Note_off_c, 1, 53, 100
3, 127872, Note_on_c, 1, 51, 120
3, 127996, Note_off_c, 1, 51, 100
3, 128000, Note_on_c, 1, 50, 120
3, 128124, Note_off_c, 1, 50, 100
3, 128128, Note_on_c, 1, 48, 120
3, 128252, Note_off_c, 1, 48, 100
3, 128256, Note_on_c, 1, 46, 120
3, 128380, Note_off_c, 1, 46, 100
3, 128384, Note_on_c, 1, 44, 120
3, 128508, Note_off_c, 1, 44, 100
3, 128512, Note_on_c, 1, 43, 120
3, 128636, Note_off_c, 1, 43, 100
3, 128640, Note_on_c, 1, 44, 120
3, 128640, Note_on_c, 1, 32, 120
3, 129020, Note_off_c, 1, 44, 100
3, 129020, Note_off_c, 1, 32, 100
3, 129216, Note_on_c, 1, 44, 120
3, 129216, Note_on_c, 1, 32, 120
3, 129404, Note_off_c, 1, 44, 100
3, 129404, Note_off_c, 1, 32, 100
3, 129408, Note_on_c, 1, 46, 120
3, 129408, Note_on_c, 1, 34, 120
3, 129788, Note_off_c, 1, 46, 100
3, 129788, Note_off_c, 1, 34, 100
3, 129984, Note_on_c, 1, 46, 120
3, 129984, Note_on_c, 1, 34, 120
3, 130172, Note_off_c, 1, 46, 100
3, 130172, Note_off_c, 1, 34, 100
3, 130176, Note_on_c, 1, 51, 120
3, 130176, Note_on_c, 1, 46, 120
3, 130176, Note_on_c, 1, 43, 120
3, 130176, Note_on_c, 1, 39, 120
3, 130556, Note_off_c, 1, 51, 100
3, 130556, Note_off_c, 1, 46, 100
3, 130556, Note_off_c, 1, 43, 100
3, 130556, Note_off_c, 1, 39, 100
3, 130560, Note_on_c, 1, 64, 120
3, 130560, Note_on_c, 1, 67, 120
3, 130748, Note_off_c, 1, 64, 100
3, 130748, Note_off_c, 1, 67, 100
3, 130752, Note_on_c, 1, 64, 120
3, 130752, Note_on_c, 1, 67, 120
3, 130940, Note_off_c, 1, 64, 100
3, 130940, Note_off_c, 1, 67, 100
3, 130944, Note_on_c, 1, 65, 120
3, 130944, Note_on_c, 1, 68, 120
3, 131324, Note_off_c, 1, 65, 100
3, 131324, Note_off_c, 1, 68, 100
3, 131328, Note_on_c, 1, 67, 120
3, 131328, Note_on_c, 1, 64, 120
3, 131516, Note_off_c, 1, 67, 100
3, 131516, Note_off_c, 1, 64, 100
3, 131520, Note_on_c, 1, 67, 120
3, 131520, Note_on_c, 1, 64, 120
3, 131708, Note_off_c, 1, 67, 100
3, 131708, Note_off_c, 1, 64, 100
3, 131712, Note_on_c, 1, 65, 120
3, 131712, Note_on_c, 1, 68, 120
3, 132092, Note_off_c, 1, 65, 100
3, 132092, Note_off_c, 1, 68, 100
3, 132096, Note_on_c, 1, 46, 120
3, 132096, Note_on_c, 1, 34, 120
3, 132476, Note_off_c, 1, 46, 100
3, 132476, Note_off_c, 1, 34, 100
3, 132864, Note_on_c, 1, 47, 80
3, 132864, Note_on_c, 1, 35, 80
3, 133244, Note_off_c, 1, 47, 100
3, 133244, Note_off_c, 1, 35, 100
3, 133248, Note_on_c, 1, 48, 80
3, 133248, Note_on_c, 1, 36, 80
3, 133628, Note_off_c, 1, 48, 100
3, 133628, Note_off_c, 1, 36, 100
3, 133632, Note_on_c, 1, 45, 80
3, 133632, Note_on_c, 1, 33, 80
3, 134012, Note_off_c, 1, 45, 100
3, 134012, Note_off_c, 1, 33, 100
3, 134016, Note_on_c, 1, 46, 80
3, 134016, Note_on_c, 1, 34, 80
3, 134396, Note_off_c, 1, 46, 100
3, 134396, Note_off_c, 1, 34, 100
3, 134400, Note_on_c, 1, 46, 80
3, 134400, Note_on_c, 1, 34, 80
3, 134780, Note_off_c, 1, 46, 100
3, 134780, Note_off_c, 1, 34, 100
3, 134784, Note_on_c, 1, 51, 80
3, 134784, Note_on_c, 1, 39, 80
3, 135164, Note_off_c, 1, 51, 100
3, 135164, Note_off_c, 1, 39, 100
3, 135168, Note_on_c, 1, 64, 120
3, 135168, Note_on_c, 1, 67, 120
3, 135356, Note_off_c, 1, 64, 100
3, 135356, Note_off_c, 1, 67, 100
3, 135360, Note_on_c, 1, 64, 120
3, 135360, Note_on_c, 1, 67, 120
3, 135548, Note_off_c, 1, 64, 100
3, 135548, Note_off_c, 1, 67, 100
3, 135552, Note_on_c, 1, 65, 120
3, 135552, Note_on_c, 1, 68, 120
3, 135932, Note_off_c, 1, 65, 100
3, 135932, Note_off_c, 1, 68, 100
3, 135936, Note_on_c, 1, 64, 120
3, 135936, Note_on_c, 1, 67, 120
3, 136124, Note_off_c, 1, 64, 100
3, 136124, Note_off_c, 1, 67, 100
3, 136128, Note_on_c, 1, 64, 120
3, 136128, Note_on_c, 1, 67, 120
3, 136316, Note_off_c, 1, 64, 100
3, 136316, Note_off_c, 1, 67, 100
3, 136320, Note_on_c, 1, 65, 120
3, 136320, Note_on_c, 1, 68, 120
3, 136700, Note_off_c, 1, 65, 100
3, 136700, Note_off_c, 1, 68, 100
3, 136704, Note_on_c, 1, 46, 120
3, 136704, Note_on_c, 1, 34, 120
3, 137084, Note_off_c, 1, 46, 100
3, 137084, Note_off_c, 1, 34, 100
3, 137472, Note_on_c, 1, 47, 120
3, 137472, Note_on_c, 1, 42, 120
3, 137472, Note_on_c, 1, 39, 120
3, 137472, Note_on_c, 1, 35, 120
3, 138236, Note_off_c, 1, 35, 100
3, 138236, Note_off_c, 1, 39, 100
3, 138236, Note_off_c, 1, 42, 100
3, 138236, Note_off_c, 1, 47, 100
3, 138240, Note_on_c, 1, 45, 80
3, 138240, Note_on_c, 1, 33, 80
3, 138620, Note_off_c, 1, 45, 100
3, 138620, Note_off_c, 1, 33, 100
3, 138624, Note_on_c, 1, 46, 80
3, 138624, Note_on_c, 1, 34, 80
3, 139004, Note_off_c, 1, 46, 100
3, 139004, Note_off_c, 1, 34, 100
3, 139008, Note_on_c, 1, 46, 80
3, 139008, Note_on_c, 1, 34, 80
3, 139388, Note_off_c, 1, 46, 100
3, 139388, Note_off_c, 1, 34, 100
3, 139392, Note_on_c, 1, 39, 80
3, 139580, Note_off_c, 1, 39, 100
3, 139584, Note_on_c, 1, 51, 80
3, 139772, Note_off_c, 1, 51, 100
3, 140160, Note_on_c, 1, 39, 80
3, 140348, Note_off_c, 1, 39, 100
3, 140352, Note_on_c, 1, 51, 80
3, 140540, Note_off_c, 1, 51, 100
3, 140928, Note_on_c, 1, 39, 80
3, 141116, Note_off_c, 1, 39, 100
3, 141120, Note_on_c, 1, 51, 80
3, 141308, Note_off_c, 1, 51, 100
3, 141696, Note_on_c, 1, 39, 80
3, 141884, Note_off_c, 1, 39, 100
3, 141888, Note_on_c, 1, 51, 80
3, 142076, Note_off_c, 1, 51, 100
3, 142464, Note_on_c, 1, 39, 80
3, 142844, Note_off_c, 1, 39, 100
3, 144576, Note_on_c, 1, 46, 80
3, 144764, Note_off_c, 1, 46, 100
3, 144768, Note_on_c, 1, 45, 80
3, 144956, Note_off_c, 1, 45, 100
3, 144960, Note_on_c, 1, 46, 80
3, 145148, Note_off_c, 1, 46, 100
3, 145152, Note_on_c, 1, 55, 80
3, 145152, Note_on_c, 1, 58, 80
3, 145340, Note_off_c, 1, 55, 100
3, 145340, Note_off_c, 1, 58, 100
3, 145344, Note_on_c, 1, 58, 80
3, 145344, Note_on_c, 1, 55, 80
3, 145532, Note_off_c, 1, 58, 100
3, 145532, Note_off_c, 1, 55, 100
3, 145536, Note_on_c, 1, 55, 80
3, 145536, Note_on_c, 1, 58, 80
3, 147068, Note_off_c, 1, 55, 100
3, 147068, Note_off_c, 1, 58, 100
3, 147072, Note_on_c, 1, 58, 80
3, 147072, Note_on_c, 1, 56, 80
3, 147452, Note_off_c, 1, 58, 100
3, 147452, Note_off_c, 1, 56, 100
3, 147648, Note_on_c, 1, 46, 80
3, 147836, Note_off_c, 1, 46, 100
3, 147840, Note_on_c, 1, 45, 80
3, 148028, Note_off_c, 1, 45, 100
3, 148032, Note_on_c, 1, 46, 80
3, 148220, Note_off_c, 1, 46, 100
3, 148224, Note_on_c, 1, 56, 80
3, 148224, Note_on_c, 1, 58, 80
3, 148412, Note_off_c, 1, 56, 100
3, 148412, Note_off_c, 1, 58, 100
3, 148416, Note_on_c, 1, 56, 80
3, 148416, Note_on_c, 1, 58, 80
3, 148604, Note_off_c, 1, 56, 100
3, 148604, Note_off_c, 1, 58, 100
3, 148608, Note_on_c, 1, 58, 80
3, 148608, Note_on_c, 1, 56, 80
3, 150140, Note_off_c, 1, 58, 100
3, 150140, Note_off_c, 1, 56, 100
3, 150144, Note_on_c, 1, 58, 80
3, 150144, Note_on_c, 1, 55, 80
3, 150524, Note_off_c, 1, 58, 100
3, 150524, Note_off_c, 1, 55, 100
3, 150912, Note_on_c, 1, 61, 80
3, 150912, Note_on_c, 1, 58, 80
3, 150912, Note_on_c, 1, 53, 80
3, 151292, Note_off_c, 1, 61, 100
3, 151292, Note_off_c, 1, 58, 100
3, 151292, Note_off_c, 1, 53, 100
3, 151680, Note_on_c, 1, 60, 80
3, 151680, Note_on_c, 1, 58, 80
3, 151680, Note_on_c, 1, 55, 80
3, 151680, Note_on_c, 1, 52, 80
3, 152060, Note_off_c, 1, 60, 100
3, 152060, Note_off_c, 1, 58, 100
3, 152060, Note_off_c, 1, 55, 100
3, 152060, Note_off_c, 1, 52, 100
3, 153216, Note_on_c, 1, 60, 80
3, 153216, Note_on_c, 1, 56, 80
3, 153216, Note_on_c, 1, 53, 80
3, 153596, Note_off_c, 1, 60, 100
3, 153596, Note_off_c, 1, 56, 100
3, 153596, Note_off_c, 1, 53, 100
3, 153984, Note_on_c, 1, 60, 87
3, 153984, Note_on_c, 1, 56, 87
3, 153984, Note_on_c, 1, 53, 87
3, 153984, Note_on_c, 1, 51, 87
3, 154364, Note_off_c, 1, 60, 100
3, 154364, Note_off_c, 1, 56, 100
3, 154364, Note_off_c, 1, 53, 100
3, 154364, Note_off_c, 1, 51, 100
3, 154752, Note_on_c, 1, 59, 95
3, 154752, Note_on_c, 1, 56, 95
3, 154752, Note_on_c, 1, 53, 95
3, 154752, Note_on_c, 1, 50, 95
3, 155132, Note_off_c, 1, 59, 100
3, 155132, Note_off_c, 1, 56, 100
3, 155132, Note_off_c, 1, 53, 100
3, 155132, Note_off_c, 1, 50, 100
3, 155520, Note_on_c, 1, 56, 103
3, 155520, Note_on_c, 1, 53, 103
3, 155520, Note_on_c, 1, 50, 103
3, 155520, Note_on_c, 1, 48, 103
3, 155900, Note_off_c, 1, 56, 100
3, 155900, Note_off_c, 1, 53, 100
3, 155900, Note_off_c, 1, 50, 100
3, 155900, Note_off_c, 1, 48, 100
3, 156288, Note_on_c, 1, 56, 120
3, 156288, Note_on_c, 1, 53, 120
3, 156288, Note_on_c, 1, 50, 120
3, 156288, Note_on_c, 1, 47, 120
3, 156668, Note_off_c, 1, 56, 100
3, 156668, Note_off_c, 1, 53, 100
3, 156668, Note_off_c, 1, 50, 100
3, 156668, Note_off_c, 1, 47, 100
3, 157248, Note_on_c, 1, 80, 120
3, 157436, Note_off_c, 1, 80, 100
3, 157440, Note_on_c, 1, 80, 120
3, 157628, Note_off_c, 1, 80, 100
3, 157632, Note_on_c, 1, 80, 120
3, 157820, Note_off_c, 1, 80, 100
3, 157824, Note_on_c, 1, 71, 120
3, 158588, Note_off_c, 1, 71, 100
3, 158784, Note_on_c, 1, 56, 120
3, 158972, Note_off_c, 1, 56, 100
3, 158976, Note_on_c, 1, 56, 120
3, 159164, Note_off_c, 1, 56, 100
3, 159168, Note_on_c, 1, 56, 120
3, 159356, Note_off_c, 1, 56, 100
3, 159360, Note_on_c, 1, 47, 120
3, 159548, Note_off_c, 1, 47, 100
3, 159552, Note_on_c, 1, 56, 120
3, 159740, Note_off_c, 1, 56, 100
3, 159744, Note_on_c, 1, 56, 120
3, 159932, Note_off_c, 1, 56, 100
3, 159936, Note_on_c, 1, 56, 120
3, 160124, Note_off_c, 1, 56, 100
3, 160128, Note_on_c, 1, 47, 120
3, 160316, Note_off_c, 1, 47, 100
3, 160320, Note_on_c, 1, 56, 120
3, 160508, Note_off_c, 1, 56, 100
3, 160512, Note_on_c, 1, 56, 120
3, 160700, Note_off_c, 1, 56, 100
3, 160704, Note_on_c, 1, 56, 120
3, 160892, Note_off_c, 1, 56, 100
3, 160896, Note_on_c, 1, 47, 120
3, 163004, Note_off_c, 1, 47, 100
3, 163008, Note_on_c, 1, 48, 80
3, 163196, Note_off_c, 1, 48, 100
3, 163200, Note_on_c, 1, 47, 80
3, 163388, Note_off_c, 1, 47, 100
3, 163392, Note_on_c, 1, 48, 80
3, 163580, Note_off_c, 1, 48, 100
3, 163584, Note_on_c, 1, 53, 80
3, 163772, Note_off_c, 1, 53, 100
3, 163776, Note_on_c, 1, 53, 80
3, 163964, Note_off_c, 1, 53, 100
3, 163968, Note_on_c, 1, 51, 80
3, 164348, Note_off_c, 1, 51, 100
3, 164544, Note_on_c, 1, 48, 80
3, 164732, Note_off_c, 1, 48, 100
3, 164736, Note_on_c, 1, 47, 80
3, 164924, Note_off_c, 1, 47, 100
3, 164928, Note_on_c, 1, 48, 80
3, 165116, Note_off_c, 1, 48, 100
3, 165120, Note_on_c, 1, 56, 80
3, 165308, Note_off_c, 1, 56, 100
3, 165312, Note_on_c, 1, 56, 80
3, 165500, Note_off_c, 1, 56, 100
3, 165504, Note_on_c, 1, 55, 80
3, 165884, Note_off_c, 1, 55, 100
3, 167040, Note_on_c, 1, 66, 80
3, 167040, Note_on_c, 1, 60, 80
3, 167040, Note_on_c, 1, 56, 80
3, 168572, Note_off_c, 1, 66, 100
3, 168572, Note_off_c, 1, 60, 100
3, 168572, Note_off_c, 1, 56, 100
3, 168576, Note_on_c, 1, 67, 80
3, 168576, Note_on_c, 1, 62, 80
3, 168576, Note_on_c, 1, 55, 80
3, 168956, Note_off_c, 1, 67, 100
3, 168956, Note_off_c, 1, 62, 100
3, 168956, Note_off_c, 1, 55, 100
3, 169152, Note_on_c, 1, 43, 80
3, 169340, Note_off_c, 1, 43, 100
3, 169344, Note_on_c, 1, 42, 80
3, 169532, Note_off_c, 1, 42, 100
3, 169536, Note_on_c, 1, 43, 80
3, 169724, Note_off_c, 1, 43, 100
3, 169728, Note_on_c, 1, 48, 80
3, 169916, Note_off_c, 1, 48, 100
3, 169920, Note_on_c, 1, 48, 80
3, 170108, Note_off_c, 1, 48, 100
3, 170112, Note_on_c, 1, 47, 80
3, 170492, Note_off_c, 1, 47, 100
3, 170688, Note_on_c, 1, 43, 80
3, 170876, Note_off_c, 1, 43, 100
3, 170880, Note_on_c, 1, 42, 80
3, 171068, Note_off_c, 1, 42, 100
3, 171072, Note_on_c, 1, 43, 80
3, 171260, Note_off_c, 1, 43, 100
3, 171264, Note_on_c, 1, 51, 80
3, 171452, Note_off_c, 1, 51, 100
3, 171456, Note_on_c, 1, 51, 80
3, 171644, Note_off_c, 1, 51, 100
3, 171648, Note_on_c, 1, 50, 80
3, 172028, Note_off_c, 1, 50, 100
3, 172224, Note_on_c, 1, 43, 80
3, 172412, Note_off_c, 1, 43, 100
3, 172416, Note_on_c, 1, 47, 80
3, 172604, Note_off_c, 1, 47, 100
3, 172608, Note_on_c, 1, 50, 80
3, 172796, Note_off_c, 1, 50, 100
3, 172800, Note_on_c, 1, 53, 80
3, 172988, Note_off_c, 1, 53, 100
3, 172992, Note_on_c, 1, 56, 80
3, 173180, Note_off_c, 1, 56, 100
3, 173184, Note_on_c, 1, 59, 80
3, 173372, Note_off_c, 1, 59, 100
3, 173376, Note_on_c, 1, 62, 80
3, 173564, Note_off_c, 1, 62, 100
3, 173568, Note_on_c, 1, 65, 80
3, 173756, Note_off_c, 1, 65, 100
3, 173760, Note_on_c, 1, 68, 80
3, 173948, Note_off_c, 1, 68, 100
3, 173952, Note_on_c, 1, 67, 80
3, 174140, Note_off_c, 1, 67, 100
3, 174144, Note_on_c, 1, 65, 80
3, 174332, Note_off_c, 1, 65, 100
3, 174336, Note_on_c, 1, 63, 80
3, 174524, Note_off_c, 1, 63, 100
3, 174528, Note_on_c, 1, 62, 80
3, 174716, Note_off_c, 1, 62, 100
3, 174720, Note_on_c, 1, 60, 80
3, 174908, Note_off_c, 1, 60, 100
3, 174912, Note_on_c, 1, 63, 80
3, 174912, Note_on_c, 1, 67, 80
3, 175100, Note_off_c, 1, 63, 100
3, 175100, Note_off_c, 1, 67, 100
3, 175104, Note_on_c, 1, 63, 80
3, 175104, Note_on_c, 1, 67, 80
3, 175292, Note_off_c, 1, 63, 100
3, 175292, Note_off_c, 1, 67, 100
3, 175296, Note_on_c, 1, 63, 80
3, 175296, Note_on_c, 1, 67, 80
3, 175484, Note_off_c, 1, 63, 100
3, 175484, Note_off_c, 1, 67, 100
3, 175488, Note_on_c, 1, 60, 80
3, 175676, Note_off_c, 1, 60, 100
3, 175680, Note_on_c, 1, 64, 80
3, 175680, Note_on_c, 1, 67, 80
3, 175680, Note_on_c, 1, 70, 80
3, 175868, Note_off_c, 1, 64, 100
3, 175868, Note_off_c, 1, 67, 100
3, 175868, Note_off_c, 1, 70, 100
3, 175872, Note_on_c, 1, 64, 80
3, 175872, Note_on_c, 1, 70, 80
3, 175872, Note_on_c, 1, 67, 80
3, 176060, Note_off_c, 1, 64, 100
3, 176060, Note_off_c, 1, 70, 100
3, 176060, Note_off_c, 1, 67, 100
3, 176064, Note_on_c, 1, 64, 80
3, 176064, Note_on_c, 1, 67, 80
3, 176064, Note_on_c, 1, 70, 80
3, 176252, Note_off_c, 1, 64, 100
3, 176252, Note_off_c, 1, 67, 100
3, 176252, Note_off_c, 1, 70, 100
3, 176256, Note_on_c, 1, 60, 80
3, 176444, Note_off_c, 1, 60, 100
3, 176448, Note_on_c, 1, 65, 80
3, 176448, Note_on_c, 1, 68, 80
3, 176636, Note_off_c, 1, 65, 100
3, 176636, Note_off_c, 1, 68, 100
3, 176640, Note_on_c, 1, 65, 80
3, 176640, Note_on_c, 1, 68, 80
3, 176828, Note_off_c, 1, 65, 100
3, 176828, Note_off_c, 1, 68, 100
3, 176832, Note_on_c, 1, 65, 80
3, 176832, Note_on_c, 1, 68, 80
3, 177020, Note_off_c, 1, 65, 100
3, 177020, Note_off_c, 1, 68, 100
3, 177024, Note_on_c, 1, 60, 80
3, 177212, Note_off_c, 1, 60, 100
3, 177216, Note_on_c, 1, 65, 80
3, 177216, Note_on_c, 1, 68, 80
3, 177216, Note_on_c, 1, 71, 80
3, 177404, Note_off_c, 1, 65, 100
3, 177404, Note_off_c, 1, 68, 100
3, 177404, Note_off_c, 1, 71, 100
3, 177408, Note_on_c, 1, 65, 80
3, 177408, Note_on_c, 1, 68, 80
3, 177408, Note_on_c, 1, 71, 80
3, 177596, Note_off_c, 1, 65, 100
3, 177596, Note_off_c, 1, 68, 100
3, 177596, Note_off_c, 1, 71, 100
3, 177600, Note_on_c, 1, 65, 80
3, 177600, Note_on_c, 1, 68, 80
3, 177600, Note_on_c, 1, 71, 80
3, 177788, Note_off_c, 1, 65, 100
3, 177788, Note_off_c, 1, 68, 100
3, 177788, Note_off_c, 1, 71, 100
3, 177792, Note_on_c, 1, 60, 80
3, 177980, Note_off_c, 1, 60, 100
3, 177984, Note_on_c, 1, 63, 80
3, 177984, Note_on_c, 1, 67, 80
3, 178172, Note_off_c, 1, 63, 100
3, 178172, Note_off_c, 1, 67, 100
3, 178176, Note_on_c, 1, 63, 80
3, 178176, Note_on_c, 1, 67, 80
3, 178364, Note_off_c, 1, 63, 100
3, 178364, Note_off_c, 1, 67, 100
3, 178368, Note_on_c, 1, 63, 80
3, 178368, Note_on_c, 1, 67, 80
3, 178556, Note_off_c, 1, 63, 100
3, 178556, Note_off_c, 1, 67, 100
3, 178560, Note_on_c, 1, 60, 80
3, 178748, Note_off_c, 1, 60, 100
3, 178752, Note_on_c, 1, 64, 80
3, 178752, Note_on_c, 1, 67, 80
3, 178752, Note_on_c, 1, 70, 80
3, 178940, Note_off_c, 1, 64, 100
3, 178940, Note_off_c, 1, 67, 100
3, 178940, Note_off_c, 1, 70, 100
3, 178944, Note_on_c, 1, 64, 80
3, 178944, Note_on_c, 1, 70, 80
3, 178944, Note_on_c, 1, 67, 80
3, 179132, Note_off_c, 1, 64, 100
3, 179132, Note_off_c, 1, 70, 100
3, 179132, Note_off_c, 1, 67, 100
3, 179136, Note_on_c, 1, 64, 80
3, 179136, Note_on_c, 1, 67, 80
3, 179136, Note_on_c, 1, 70, 80
3, 179324, Note_off_c, 1, 64, 100
3, 179324, Note_off_c, 1, 67, 100
3, 179324, Note_off_c, 1, 70, 100
3, 179328, Note_on_c, 1, 60, 80
3, 179516, Note_off_c, 1, 60, 100
3, 179520, Note_on_c, 1, 65, 80
3, 179520, Note_on_c, 1, 68, 80
3, 179708, Note_off_c, 1, 65, 100
3, 179708, Note_off_c, 1, 68, 100
3, 179712, Note_on_c, 1, 65, 80
3, 179712, Note_on_c, 1, 68, 80
3, 179900, Note_off_c, 1, 65, 100
3, 179900, Note_off_c, 1, 68, 100
3, 179904, Note_on_c, 1, 65, 80
3, 179904, Note_on_c, 1, 68, 80
3, 180092, Note_off_c, 1, 65, 100
3, 180092, Note_off_c, 1, 68, 100
3, 180096, Note_on_c, 1, 60, 80
3, 180284, Note_off_c, 1, 60, 100
3, 180288, Note_on_c, 1, 65, 80
3, 180288, Note_on_c, 1, 68, 80
3, 180288, Note_on_c, 1, 71, 80
3, 180476, Note_off_c, 1, 65, 100
3, 180476, Note_off_c, 1, 68, 100
3, 180476, Note_off_c, 1, 71, 100
3, 180480, Note_on_c, 1, 65, 80
3, 180480, Note_on_c, 1, 68, 80
3, 180480, Note_on_c, 1, 71, 80
3, 180668, Note_off_c, 1, 65, 100
3, 180668, Note_off_c, 1, 68, 100
3, 180668, Note_off_c, 1, 71, 100
3, 180672, Note_on_c, 1, 65, 80
3, 180672, Note_on_c, 1, 68, 80
3, 180672, Note_on_c, 1, 71, 80
3, 180860, Note_off_c, 1, 65, 100
3, 180860, Note_off_c, 1, 68, 100
3, 180860, Note_off_c, 1, 71, 100
3, 180864, Note_on_c, 1, 72, 80
3, 180864, Note_on_c, 1, 67, 80
3, 180864, Note_on_c, 1, 63, 80
3, 180864, Note_on_c, 1, 60, 80
3, 181244, Note_off_c, 1, 72, 100
3, 181244, Note_off_c, 1, 67, 100
3, 181244, Note_off_c, 1, 63, 100
3, 181244, Note_off_c, 1, 60, 100
3, 181440, Note_on_c, 1, 66, 84
3, 181628, Note_off_c, 1, 66, 100
3, 181632, Note_on_c, 1, 67, 86
3, 182012, Note_off_c, 1, 67, 100
3, 182208, Note_on_c, 1, 59, 90
3, 182396, Note_off_c, 1, 59, 100
3, 182400, Note_on_c, 1, 60, 92
3, 182780, Note_off_c, 1, 60, 100
3, 182976, Note_on_c, 1, 54, 96
3, 183164, Note_off_c, 1, 54, 100
3, 183168, Note_on_c, 1, 55, 98
3, 183548, Note_off_c, 1, 55, 100
3, 183744, Note_on_c, 1, 47, 103
3, 183932, Note_off_c, 1, 47, 100
3, 183936, Note_on_c, 1, 48, 104
3, 184316, Note_off_c, 1, 48, 100
3, 184512, Note_on_c, 1, 42, 109
3, 184700, Note_off_c, 1, 42, 100
3, 184704, Note_on_c, 1, 43, 110
3, 185084, Note_off_c, 1, 43, 100
3, 185088, Note_on_c, 1, 48, 110
3, 185088, Note_on_c, 1, 36, 110
3, 185468, Note_off_c, 1, 48, 100
3, 185468, Note_off_c, 1, 36, 100
3, 185472, Note_on_c, 1, 43, 110
3, 185472, Note_on_c, 1, 31, 110
3, 185852, Note_off_c, 1, 43, 100
3, 185852, Note_off_c, 1, 31, 100
3, 185856, Note_on_c, 1, 48, 110
3, 185856, Note_on_c, 1, 36, 110
3, 186236, Note_off_c, 1, 48, 100
3, 186236, Note_off_c, 1, 36, 100
3, 186240, Note_on_c, 1, 43, 110
3, 186240, Note_on_c, 1, 31, 110
3, 186620, Note_off_c, 1, 43, 100
3, 186620, Note_off_c, 1, 31, 100
3, 186624, Note_on_c, 1, 48, 110
3, 186624, Note_on_c, 1, 36, 110
3, 187004, Note_off_c, 1, 48, 100
3, 187004, Note_off_c, 1, 36, 100
3, 187008, Note_on_c, 1, 43, 120
3, 187008, Note_on_c, 1, 38, 120
3, 187008, Note_on_c, 1, 35, 120
3, 187008, Note_on_c, 1, 31, 120
3, 189308, Note_off_c, 1, 31, 100
3, 189308, Note_off_c, 1, 35, 100
3, 189308, Note_off_c, 1, 38, 100
3, 189308, Note_off_c, 1, 43, 100
3, 190080, Note_on_c, 1, 60, 80
3, 190080, Note_on_c, 1, 55, 80
3, 190080, Note_on_c, 1, 48, 80
3, 190844, Note_off_c, 1, 60, 100
3, 190844, Note_off_c, 1, 55, 100
3, 190844, Note_off_c, 1, 48, 100
3, 190848, Note_on_c, 1, 59, 80
3, 190848, Note_on_c, 1, 55, 80
3, 190848, Note_on_c, 1, 53, 80
3, 191228, Note_off_c, 1, 59, 100
3, 191228, Note_off_c, 1, 55, 100
3, 191228, Note_off_c, 1, 53, 100
3, 191232, Note_on_c, 1, 60, 80
3, 191232, Note_on_c, 1, 55, 80
3, 191232, Note_on_c, 1, 52, 80
3, 191612, Note_off_c, 1, 60, 100
3, 191612, Note_off_c, 1, 55, 100
3, 191612, Note_off_c, 1, 52, 100
3, 191616, Note_on_c, 1, 62, 80
3, 191616, Note_on_c, 1, 55, 80
3, 191616, Note_on_c, 1, 50, 80
3, 192380, Note_off_c, 1, 62, 100
3, 192380, Note_off_c, 1, 55, 100
3, 192380, Note_off_c, 1, 50, 100
3, 193152, Note_on_c, 1, 60, 80
3, 193152, Note_on_c, 1, 55, 80
3, 193152, Note_on_c, 1, 48, 80
3, 193916, Note_off_c, 1, 60, 100
3, 193916, Note_off_c, 1, 55, 100
3, 193916, Note_off_c, 1, 48, 100
3, 193920, Note_on_c, 1, 57, 80
3, 193920, Note_on_c, 1, 53, 80
3, 194300, Note_off_c, 1, 57, 100
3, 194300, Note_off_c, 1, 53, 100
3, 194304, Note_on_c, 1, 57, 80
3, 194304, Note_on_c, 1, 54, 80
3, 194684, Note_off_c, 1, 57, 100
3, 194684, Note_off_c, 1, 54, 100
3, 194688, Note_on_c, 1, 55, 80
3, 194688, Note_on_c, 1, 43, 80
3, 195452, Note_off_c, 1, 55, 100
3, 195452, Note_off_c, 1, 43, 100
3, 196224, Note_on_c, 1, 60, 80
3, 196224, Note_on_c, 1, 48, 80
3, 196224, Note_on_c, 1, 55, 80
3, 196988, Note_off_c, 1, 60, 100
3, 196988, Note_off_c, 1, 48, 100
3, 196988, Note_off_c, 1, 55, 100
3, 196992, Note_on_c, 1, 59, 80
3, 196992, Note_on_c, 1, 55, 80
3, 196992, Note_on_c, 1, 53, 80
3, 197372, Note_off_c, 1, 59, 100
3, 197372, Note_off_c, 1, 55, 100
3, 197372, Note_off_c, 1, 53, 100
3, 197376, Note_on_c, 1, 60, 80
3, 197376, Note_on_c, 1, 55, 80
3, 197376, Note_on_c, 1, 52, 80
3, 197756, Note_off_c, 1, 60, 100
3, 197756, Note_off_c, 1, 55, 100
3, 197756, Note_off_c, 1, 52, 100
3, 197760, Note_on_c, 1, 53, 110
3, 197808, Note_on_c, 1, 57, 110
3, 197856, Note_on_c, 1, 60, 110
3, 197904, Note_on_c, 1, 65, 110
3, 198140, Note_off_c, 1, 53, 100
3, 198140, Note_off_c, 1, 57, 100
3, 198140, Note_off_c, 1, 60, 100
3, 198140, Note_off_c, 1, 65, 100
3, 199296, Note_on_c, 1, 55, 80
3, 200256, Note_on_c, 1, 43, 80
3, 200444, Note_off_c, 1, 43, 100
3, 200448, Note_on_c, 1, 45, 80
3, 200636, Note_off_c, 1, 45, 100
3, 200640, Note_on_c, 1, 47, 80
3, 200828, Note_off_c, 1, 47, 100
3, 200832, Note_on_c, 1, 48, 80
3, 201020, Note_off_c, 1, 48, 100
3, 201024, Note_on_c, 1, 50, 80
3, 201212, Note_off_c, 1, 50, 100
3, 201216, Note_on_c, 1, 52, 80
3, 201596, Note_off_c, 1, 52, 100
3, 201600, Note_on_c, 1, 50, 80
3, 201980, Note_off_c, 1, 50, 100
3, 201984, Note_on_c, 1, 48, 80
3, 202364, Note_off_c, 1, 55, 100
3, 202364, Note_off_c, 1, 48, 100
3, 202368, Note_on_c, 1, 55, 80
3, 203328, Note_on_c, 1, 43, 80
3, 203516, Note_off_c, 1, 43, 100
3, 203520, Note_on_c, 1, 45, 80
3, 203708, Note_off_c, 1, 45, 100
3, 203712, Note_on_c, 1, 47, 80
3, 203900, Note_off_c, 1, 47, 100
3, 203904, Note_on_c, 1, 48, 80
3, 204092, Note_off_c, 1, 48, 100
3, 204096, Note_on_c, 1, 50, 80
3, 204284, Note_off_c, 1, 50, 100
3, 204288, Note_on_c, 1, 51, 80
3, 204668, Note_off_c, 1, 51, 100
3, 204672, Note_on_c, 1, 50, 80
3, 205052, Note_off_c, 1, 50, 100
3, 205056, Note_on_c, 1, 48, 80
3, 205436, Note_off_c, 1, 55, 100
3, 205436, Note_off_c, 1, 48, 100
3, 205440, Note_on_c, 1, 53, 80
3, 205440, Note_on_c, 1, 50, 80
3, 205440, Note_on_c, 1, 44, 80
3, 205440, Note_on_c, 1, 41, 80
3, 205820, Note_off_c, 1, 53, 100
3, 205820, Note_off_c, 1, 50, 100
3, 205820, Note_off_c, 1, 44, 100
3, 205820, Note_off_c, 1, 41, 100
3, 206208, Note_on_c, 1, 53, 80
3, 206208, Note_on_c, 1, 50, 80
3, 206208, Note_on_c, 1, 43, 80
3, 206208, Note_on_c, 1, 47, 80
3, 206588, Note_off_c, 1, 53, 100
3, 206588, Note_off_c, 1, 50, 100
3, 206588, Note_off_c, 1, 43, 100
3, 206588, Note_off_c, 1, 47, 100
3, 206976, Note_on_c, 1, 51, 80
3, 206976, Note_on_c, 1, 48, 80
3, 207164, Note_off_c, 1, 51, 100
3, 207164, Note_off_c, 1, 48, 100
3, 207168, Note_on_c, 1, 55, 81
3, 207356, Note_off_c, 1, 55, 100
3, 207360, Note_on_c, 1, 55, 83
3, 207548, Note_off_c, 1, 55, 100
3, 207552, Note_on_c, 1, 55, 85
3, 207740, Note_off_c, 1, 55, 100
3, 207744, Note_on_c, 1, 55, 87
3, 207932, Note_off_c, 1, 55, 100
3, 207936, Note_on_c, 1, 55, 89
3, 208124, Note_off_c, 1, 55, 100
3, 208128, Note_on_c, 1, 47, 91
3, 208316, Note_off_c, 1, 47, 100
3, 208320, Note_on_c, 1, 55, 93
3, 208508, Note_off_c, 1, 55, 100
3, 208512, Note_on_c, 1, 48, 95
3, 208700, Note_off_c, 1, 48, 100
3, 208704, Note_on_c, 1, 55, 97
3, 208892, Note_off_c, 1, 55, 100
3, 208896, Note_on_c, 1, 55, 99
3, 209084, Note_off_c, 1, 55, 100
3, 209088, Note_on_c, 1, 55, 101
3, 209276, Note_off_c, 1, 55, 100
3, 209280, Note_on_c, 1, 55, 103
3, 209468, Note_off_c, 1, 55, 100
3, 209472, Note_on_c, 1, 55, 105
3, 209660, Note_off_c, 1, 55, 100
3, 209664, Note_on_c, 1, 47, 107
3, 209852, Note_off_c, 1, 47, 100
3, 209856, Note_on_c, 1, 55, 109
3, 210044, Note_off_c, 1, 55, 100
3, 210048, Note_on_c, 1, 48, 120
3, 210236, Note_off_c, 1, 48, 100
3, 210240, Note_on_c, 1, 55, 120
3, 210428, Note_off_c, 1, 55, 100
3, 210432, Note_on_c, 1, 55, 120
3, 210620, Note_off_c, 1, 55, 100
3, 210624, Note_on_c, 1, 55, 120
3, 210812, Note_off_c, 1, 55, 100
3, 210816, Note_on_c, 1, 55, 120
3, 211004, Note_off_c, 1, 55, 100
3, 211008, Note_on_c, 1, 55, 120
3, 211196, Note_off_c, 1, 55, 100
3, 211200, Note_on_c, 1, 47, 120
3, 211200, Note_on_c, 1, 55, 120
3, 211200, Note_on_c, 1, 53, 120
3, 211200, Note_on_c, 1, 50, 120
3, 211388, Note_off_c, 1, 47, 100
3, 211388, Note_off_c, 1, 55, 100
3, 211388, Note_off_c, 1, 53, 100
3, 211388, Note_off_c, 1, 50, 100
3, 211392, Note_on_c, 1, 55, 120
3, 211392, Note_on_c, 1, 50, 120
3, 211392, Note_on_c, 1, 53, 120
3, 211392, Note_on_c, 1, 47, 120
3, 211580, Note_off_c, 1, 55, 100
3, 211580, Note_off_c, 1, 50, 100
3, 211580, Note_off_c, 1, 53, 100
3, 211580, Note_off_c, 1, 47, 100
3, 211584, Note_on_c, 1, 55, 120
3, 211584, Note_on_c, 1, 53, 120
3, 211584, Note_on_c, 1, 50, 120
3, 211584, Note_on_c, 1, 47, 120
3, 213116, Note_off_c, 1, 55, 100
3, 213116, Note_off_c, 1, 53, 100
3, 213116, Note_off_c, 1, 50, 100
3, 213116, Note_off_c, 1, 47, 100
3, 213120, Note_on_c, 1, 55, 120
3, 213120, Note_on_c, 1, 51, 120
3, 213120, Note_on_c, 1, 48, 120
3, 213500, Note_off_c, 1, 55, 100
3, 213500, Note_off_c, 1, 51, 100
3, 213500, Note_off_c, 1, 48, 100
3, 214656, Note_on_c, 1, 41, 120
3, 215036, Note_off_c, 1, 41, 100
3, 215232, Note_on_c, 1, 53, 120
3, 215420, Note_off_c, 1, 53, 100
3, 215424, Note_on_c, 1, 43, 120
3, 215804, Note_off_c, 1, 43, 100
3, 216000, Note_on_c, 1, 55, 120
3, 216188, Note_off_c, 1, 55, 100
3, 216384, Note_on_c, 1, 65, 120
3, 216476, Note_off_c, 1, 65, 100
3, 216480, Note_on_c, 1, 67, 120
3, 216572, Note_off_c, 1, 67, 100
3, 216576, Note_on_c, 1, 68, 120
3, 216668, Note_off_c, 1, 68, 100
3, 216672, Note_on_c, 1, 67, 120
3, 216764, Note_off_c, 1, 67, 100
3, 216768, Note_on_c, 1, 65, 120
3, 216860, Note_off_c, 1, 65, 100
3, 216864, Note_on_c, 1, 63, 120
3, 216956, Note_off_c, 1, 63, 100
3, 216960, Note_on_c, 1, 62, 120
3, 217084, Note_off_c, 1, 62, 100
3, 217088, Note_on_c, 1, 60, 120
3, 217212, Note_off_c, 1, 60, 100
3, 217216, Note_on_c, 1, 59, 120
3, 217340, Note_off_c, 1, 59, 100
3, 217344, Note_on_c, 1, 56, 120
3, 217468, Note_off_c, 1, 56, 100
3, 217472, Note_on_c, 1, 55, 120
3, 217596, Note_off_c, 1, 55, 100
3, 217600, Note_on_c, 1, 53, 120
3, 217724, Note_off_c, 1, 53, 100
3, 217728, Note_on_c, 1, 51, 120
3, 217852, Note_off_c, 1, 51, 100
3, 217856, Note_on_c, 1, 53, 120
3, 217980, Note_off_c, 1, 53, 100
3, 217984, Note_on_c, 1, 55, 120
3, 218108, Note_off_c, 1, 55, 100
3, 218112, Note_on_c, 1, 53, 120
3, 218236, Note_off_c, 1, 53, 100
3, 218240, Note_on_c, 1, 51, 120
3, 218364, Note_off_c, 1, 51, 100
3, 218368, Note_on_c, 1, 50, 120
3, 218492, Note_off_c, 1, 50, 100
3, 218496, Note_on_c, 1, 48, 120
3, 218620, Note_off_c, 1, 48, 100
3, 218624, Note_on_c, 1, 46, 120
3, 218748, Note_off_c, 1, 46, 100
3, 218752, Note_on_c, 1, 44, 120
3, 218876, Note_off_c, 1, 44, 100
3, 218880, Note_on_c, 1, 43, 120
3, 219004, Note_off_c, 1, 43, 100
3, 219008, Note_on_c, 1, 41, 120
3, 219132, Note_off_c, 1, 41, 100
3, 219136, Note_on_c, 1, 39, 120
3, 219260, Note_off_c, 1, 39, 100
3, 219264, Note_on_c, 1, 41, 120
3, 219264, Note_on_c, 1, 29, 120
3, 219644, Note_off_c, 1, 41, 100
3, 219644, Note_off_c, 1, 29, 100
3, 219840, Note_on_c, 1, 41, 120
3, 219840, Note_on_c, 1, 29, 120
3, 220028, Note_off_c, 1, 41, 100
3, 220028, Note_off_c, 1, 29, 100
3, 220032, Note_on_c, 1, 43, 120
3, 220032, Note_on_c, 1, 31, 120
3, 220412, Note_off_c, 1, 43, 100
3, 220412, Note_off_c, 1, 31, 100
3, 220608, Note_on_c, 1, 43, 120
3, 220608, Note_on_c, 1, 31, 120
3, 220796, Note_off_c, 1, 43, 100
3, 220796, Note_off_c, 1, 31, 100
3, 220800, Note_on_c, 1, 48, 120
3, 220800, Note_on_c, 1, 43, 120
3, 220800, Note_on_c, 1, 39, 120
3, 220800, Note_on_c, 1, 36, 120
3, 221180, Note_off_c, 1, 48, 100
3, 221180, Note_off_c, 1, 43, 100
3, 221180, Note_off_c, 1, 39, 100
3, 221180, Note_off_c, 1, 36, 100
3, 221184, Note_on_c, 1, 64, 120
3, 221184, Note_on_c, 1, 61, 120
3, 221372, Note_off_c, 1, 64, 100
3, 221372, Note_off_c, 1, 61, 100
3, 221376, Note_on_c, 1, 61, 120
3, 221376, Note_on_c, 1, 64, 120
3, 221564, Note_off_c, 1, 61, 100
3, 221564, Note_off_c, 1, 64, 100
3, 221568, Note_on_c, 1, 62, 120
3, 221568, Note_on_c, 1, 65, 120
3, 221948, Note_off_c, 1, 62, 100
3, 221948, Note_off_c, 1, 65, 100
3, 221952, Note_on_c, 1, 64, 120
3, 221952, Note_on_c, 1, 61, 120
3, 222140, Note_off_c, 1, 64, 100
3, 222140, Note_off_c, 1, 61, 100
3, 222144, Note_on_c, 1, 61, 120
3, 222144, Note_on_c, 1, 64, 120
3, 222332, Note_off_c, 1, 61, 100
3, 222332, Note_off_c, 1, 64, 100
3, 222336, Note_on_c, 1, 62, 120
3, 222336, Note_on_c, 1, 65, 120
3, 222716, Note_off_c, 1, 62, 100
3, 222716, Note_off_c, 1, 65, 100
3, 222720, Note_on_c, 1, 43, 120
3, 222720, Note_on_c, 1, 31, 120
3, 223100, Note_off_c, 1, 43, 100
3, 223100, Note_off_c, 1, 31, 100
3, 223488, Note_on_c, 1, 43, 80
3, 223488, Note_on_c, 1, 31, 80
3, 223868, Note_off_c, 1, 43, 100
3, 223868, Note_off_c, 1, 31, 100
3, 223872, Note_on_c, 1, 44, 80
3, 223872, Note_on_c, 1, 32, 80
3, 224252, Note_off_c, 1, 44, 100
3, 224252, Note_off_c, 1, 32, 100
3, 224256, Note_on_c, 1, 42, 80
3, 224256, Note_on_c, 1, 30, 80
3, 224636, Note_off_c, 1, 42, 100
3, 224636, Note_off_c, 1, 30, 100
3, 224640, Note_on_c, 1, 43, 80
3, 224640, Note_on_c, 1, 31, 80
3, 225020, Note_off_c, 1, 43, 100
3, 225020, Note_off_c, 1, 31, 100
3, 225024, Note_on_c, 1, 43, 80
3, 225024, Note_on_c, 1, 31, 80
3, 225404, Note_off_c, 1, 43, 100
3, 225404, Note_off_c, 1, 31, 100
3, 225408, Note_on_c, 1, 48, 80
3, 225408, Note_on_c, 1, 36, 80
3, 225788, Note_off_c, 1, 48, 100
3, 225788, Note_off_c, 1, 36, 100
3, 225792, Note_on_c, 1, 64, 120
3, 225792, Note_on_c, 1, 61, 120
3, 225980, Note_off_c, 1, 64, 100
3, 225980, Note_off_c, 1, 61, 100
3, 225984, Note_on_c, 1, 61, 120
3, 225984, Note_on_c, 1, 64, 120
3, 226172, Note_off_c, 1, 61, 100
3, 226172, Note_off_c, 1, 64, 100
3, 226176, Note_on_c, 1, 62, 120
3, 226176, Note_on_c, 1, 65, 120
3, 226556, Note_off_c, 1, 62, 100
3, 226556, Note_off_c, 1, 65, 100
3, 226560, Note_on_c, 1, 64, 120
3, 226560, Note_on_c, 1, 61, 120
3, 226748, Note_off_c, 1, 64, 100
3, 226748, Note_off_c, 1, 61, 100
3, 226752, Note_on_c, 1, 61, 120
3, 226752, Note_on_c, 1, 64, 120
3, 226940, Note_off_c, 1, 61, 100
3, 226940, Note_off_c, 1, 64, 100
3, 226944, Note_on_c, 1, 62, 120
3, 226944, Note_on_c, 1, 65, 120
3, 227324, Note_off_c, 1, 62, 100
3, 227324, Note_off_c, 1, 65, 100
3, 227328, Note_on_c, 1, 43, 120
3, 227328, Note_on_c, 1, 31, 120
3, 227708, Note_off_c, 1, 43, 100
3, 227708, Note_off_c, 1, 31, 100
3, 228096, Note_on_c, 1, 44, 120
3, 228096, Note_on_c, 1, 39, 120
3, 228096, Note_on_c, 1, 36, 120
3, 228096, Note_on_c, 1, 32, 120
3, 228860, Note_off_c, 1, 32, 100
3, 228860, Note_off_c, 1, 36, 100
3, 228860, Note_off_c, 1, 39, 100
3, 228860, Note_off_c, 1, 44, 100
3, 228864, Note_on_c, 1, 42, 80
3, 228864, Note_on_c, 1, 30, 80
3, 229244, Note_off_c, 1, 42, 100
3, 229244, Note_off_c, 1, 30, 100
3, 229248, Note_on_c, 1, 43, 80
3, 229248, Note_on_c, 1, 31, 80
3, 229628, Note_off_c, 1, 43, 100
3, 229628, Note_off_c, 1, 31, 100
3, 229632, Note_on_c, 1, 43, 80
3, 229632, Note_on_c, 1, 31, 80
3, 230012, Note_off_c, 1, 43, 100
3, 230012, Note_off_c, 1, 31, 100
3, 230016, Note_on_c, 1, 36, 80
3, 230204, Note_off_c, 1, 36, 100
3, 230208, Note_on_c, 1, 48, 80
3, 230396, Note_off_c, 1, 48, 100
3, 230784, Note_on_c, 1, 36, 80
3, 230972, Note_off_c, 1, 36, 100
3, 230976, Note_on_c, 1, 48, 80
3, 231164, Note_off_c, 1, 48, 100
3, 231552, Note_on_c, 1, 36, 80
3, 231740, Note_off_c, 1, 36, 100
3, 231744, Note_on_c, 1, 48, 80
3, 231932, Note_off_c, 1, 48, 100
3, 232320, Note_on_c, 1, 36, 80
3, 232508, Note_off_c, 1, 36, 100
3, 232512, Note_on_c, 1, 48, 80
3, 232700, Note_off_c, 1, 48, 100
3, 233088, Note_on_c, 1, 32, 80
3, 233276, Note_off_c, 1, 32, 100
3, 233280, Note_on_c, 1, 44, 81
3, 233468, Note_off_c, 1, 44, 100
3, 233856, Note_on_c, 1, 32, 87
3, 234044, Note_off_c, 1, 32, 100
3, 234048, Note_on_c, 1, 44, 89
3, 234236, Note_off_c, 1, 44, 100
3, 234624, Note_on_c, 1, 32, 95
3, 234812, Note_off_c, 1, 32, 100
3, 234816, Note_on_c, 1, 44, 97
3, 235004, Note_off_c, 1, 44, 100
3, 235392, Note_on_c, 1, 32, 103
3, 235580, Note_off_c, 1, 32, 100
3, 235584, Note_on_c, 1, 44, 105
3, 235772, Note_off_c, 1, 44, 100
3, 236160, Note_on_c, 1, 32, 120
3, 236160, Note_on_c, 1, 44, 120
3, 241532, Note_off_c, 1, 32, 100
3, 241532, Note_off_c, 1, 44, 100
3, 242304, Note_on_c, 1, 49, 80
3, 242304, Note_on_c, 1, 37, 80
3, 243068, Note_off_c, 1, 49, 100
3, 243068, Note_off_c, 1, 37, 100
3, 243072, Note_on_c, 1, 48, 80
3, 243072, Note_on_c, 1, 42, 80
3, 243452, Note_off_c, 1, 48, 100
3, 243452, Note_off_c, 1, 42, 100
3, 243456, Note_on_c, 1, 49, 80
3, 243456, Note_on_c, 1, 41, 80
3, 243836, Note_off_c, 1, 49, 100
3, 243836, Note_off_c, 1, 41, 100
3, 243840, Note_on_c, 1, 51, 80
3, 243840, Note_on_c, 1, 44, 80
3, 244796, Note_off_c, 1, 51, 100
3, 244796, Note_off_c, 1, 44, 100
3, 245376, Note_on_c, 1, 49, 80
3, 245376, Note_on_c, 1, 37, 80
3, 246140, Note_off_c, 1, 49, 100
3, 246140, Note_off_c, 1, 37, 100
3, 246144, Note_on_c, 1, 42, 80
3, 246144, Note_on_c, 1, 30, 80
3, 246524, Note_off_c, 1, 42, 100
3, 246524, Note_off_c, 1, 30, 100
3, 246528, Note_on_c, 1, 43, 80
3, 246528, Note_on_c, 1, 31, 80
3, 246908, Note_off_c, 1, 43, 100
3, 246908, Note_off_c, 1, 31, 100
3, 246912, Note_on_c, 1, 44, 80
3, 246912, Note_on_c, 1, 32, 80
3, 247676, Note_off_c, 1, 44, 100
3, 247676, Note_off_c, 1, 32, 100
3, 248448, Note_on_c, 1, 49, 80
3, 248448, Note_on_c, 1, 37, 80
3, 249212, Note_off_c, 1, 49, 100
3, 249212, Note_off_c, 1, 37, 100
3, 249216, Note_on_c, 1, 48, 80
3, 249216, Note_on_c, 1, 42, 80
3, 249596, Note_off_c, 1, 48, 100
3, 249596, Note_off_c, 1, 42, 100
3, 249600, Note_on_c, 1, 49, 80
3, 249600, Note_on_c, 1, 41, 80
3, 249980, Note_off_c, 1, 49, 100
3, 249980, Note_off_c, 1, 41, 100
3, 249984, Note_on_c, 1, 48, 80
3, 249984, Note_on_c, 1, 44, 80
3, 249984, Note_on_c, 1, 51, 80
3, 251516, Note_off_c, 1, 48, 100
3, 251516, Note_off_c, 1, 44, 100
3, 251516, Note_off_c, 1, 51, 100
3, 251520, Note_on_c, 1, 33, 80
3, 251568, Note_on_c, 1, 36, 80
3, 251612, Note_off_c, 1, 33, 100
3, 251616, Note_on_c, 1, 39, 80
3, 251660, Note_off_c, 1, 36, 100
3, 251664, Note_on_c, 1, 42, 80
3, 251708, Note_off_c, 1, 39, 100
3, 251712, Note_on_c, 1, 45, 80
3, 251756, Note_off_c, 1, 42, 100
3, 251760, Note_on_c, 1, 48, 80
3, 251808, Note_on_c, 1, 51, 80
3, 254124, Note_off_c, 1, 45, 100
3, 254124, Note_off_c, 1, 48, 100
3, 254124, Note_off_c, 1, 51, 100
3, 254160, Note_on_c, 1, 31, 80
3, 254208, Note_on_c, 1, 36, 80
3, 254252, Note_off_c, 1, 31, 100
3, 254256, Note_on_c, 1, 39, 120
3, 254300, Note_off_c, 1, 36, 100
3, 254304, Note_on_c, 1, 43, 120
3, 254348, Note_off_c, 1, 39, 100
3, 254352, Note_on_c, 1, 48, 120
3, 254396, Note_off_c, 1, 43, 100
3, 254400, Note_on_c, 1, 51, 120
3, 254444, Note_off_c, 1, 48, 100
3, 254492, Note_off_c, 1, 51, 100
3, 255744, Note_on_c, 1, 43, 120
3, 255744, Note_on_c, 1, 31, 120
3, 256124, Note_off_c, 1, 43, 100
3, 256124, Note_off_c, 1, 31, 100
3, 256128, Note_on_c, 1, 36, 120
3, 256316, Note_off_c, 1, 36, 100
3, 256320, Note_on_c, 1, 48, 120
3, 256508, Note_off_c, 1, 48, 100
3, 256512, Note_on_c, 1, 48, 120
3, 256700, Note_off_c, 1, 48, 100
3, 256704, Note_on_c, 1, 48, 120
3, 256892, Note_off_c, 1, 48, 100
3, 256896, Note_on_c, 1, 48, 120
3, 257084, Note_off_c, 1, 48, 100
3, 257088, Note_on_c, 1, 55, 80
3, 257088, Note_on_c, 1, 58, 80
3, 257276, Note_off_c, 1, 55, 100
3, 257276, Note_off_c, 1, 58, 100
3, 257280, Note_on_c, 1, 55, 80
3, 257280, Note_on_c, 1, 58, 80
3, 257468, Note_off_c, 1, 55, 100
3, 257468, Note_off_c, 1, 58, 100
3, 257472, Note_on_c, 1, 55, 80
3, 257472, Note_on_c, 1, 58, 80
3, 257660, Note_off_c, 1, 55, 100
3, 257660, Note_off_c, 1, 58, 100
3, 257664, Note_on_c, 1, 48, 80
3, 257852, Note_off_c, 1, 48, 100
3, 257856, Note_on_c, 1, 53, 80
3, 257856, Note_on_c, 1, 56, 80
3, 258044, Note_off_c, 1, 53, 100
3, 258044, Note_off_c, 1, 56, 100
3, 258048, Note_on_c, 1, 53, 80
3, 258048, Note_on_c, 1, 56, 80
3, 258236, Note_off_c, 1, 53, 100
3, 258236, Note_off_c, 1, 56, 100
3, 258240, Note_on_c, 1, 53, 80
3, 258240, Note_on_c, 1, 56, 80
3, 258428, Note_off_c, 1, 53, 100
3, 258428, Note_off_c, 1, 56, 100
3, 258432, Note_on_c, 1, 48, 80
3, 258620, Note_off_c, 1, 48, 100
3, 258624, Note_on_c, 1, 53, 80
3, 258624, Note_on_c, 1, 56, 80
3, 258624, Note_on_c, 1, 59, 80
3, 258812, Note_off_c, 1, 53, 100
3, 258812, Note_off_c, 1, 56, 100
3, 258812, Note_off_c, 1, 59, 100
3, 258816, Note_on_c, 1, 53, 80
3, 258816, Note_on_c, 1, 56, 80
3, 258816, Note_on_c, 1, 59, 80
3, 259004, Note_off_c, 1, 53, 100
3, 259004, Note_off_c, 1, 56, 100
3, 259004, Note_off_c, 1, 59, 100
3, 259008, Note_on_c, 1, 53, 80
3, 259008, Note_on_c, 1, 56, 80
3, 259008, Note_on_c, 1, 59, 80
3, 259196, Note_off_c, 1, 53, 100
3, 259196, Note_off_c, 1, 56, 100
3, 259196, Note_off_c, 1, 59, 100
3, 259200, Note_on_c, 1, 48, 80
3, 259388, Note_off_c, 1, 48, 100
3, 259392, Note_on_c, 1, 52, 80
3, 259392, Note_on_c, 1, 55, 80
3, 259392, Note_on_c, 1, 60, 80
3, 259580, Note_off_c, 1, 52, 100
3, 259580, Note_off_c, 1, 55, 100
3, 259580, Note_off_c, 1, 60, 100
3, 259584, Note_on_c, 1, 52, 80
3, 259584, Note_on_c, 1, 55, 80
3, 259584, Note_on_c, 1, 60, 80
3, 259772, Note_off_c, 1, 52, 100
3, 259772, Note_off_c, 1, 55, 100
3, 259772, Note_off_c, 1, 60, 100
3, 259776, Note_on_c, 1, 52, 80
3, 259776, Note_on_c, 1, 55, 80
3, 259776, Note_on_c, 1, 60, 80
3, 259964, Note_off_c, 1, 52, 100
3, 259964, Note_off_c, 1, 55, 100
3, 259964, Note_off_c, 1, 60, 100
3, 259968, Note_on_c, 1, 48, 80
3, 260156, Note_off_c, 1, 48, 100
3, 260160, Note_on_c, 1, 55, 80
3, 260160, Note_on_c, 1, 58, 80
3, 260348, Note_off_c, 1, 55, 100
3, 260348, Note_off_c, 1, 58, 100
3, 260352, Note_on_c, 1, 55, 80
3, 260352, Note_on_c, 1, 58, 80
3, 260540, Note_off_c, 1, 55, 100
3, 260540, Note_off_c, 1, 58, 100
3, 260544, Note_on_c, 1, 55, 80
3, 260544, Note_on_c, 1, 58, 80
3, 260732, Note_off_c, 1, 55, 100
3, 260732, Note_off_c, 1, 58, 100
3, 260736, Note_on_c, 1, 48, 80
3, 260924, Note_off_c, 1, 48, 100
3, 260928, Note_on_c, 1, 53, 80
3, 260928, Note_on_c, 1, 56, 80
3, 261116, Note_off_c, 1, 53, 100
3, 261116, Note_off_c, 1, 56, 100
3, 261120, Note_on_c, 1, 53, 80
3, 261120, Note_on_c, 1, 56, 80
3, 261308, Note_off_c, 1, 53, 100
3, 261308, Note_off_c, 1, 56, 100
3, 261312, Note_on_c, 1, 53, 80
3, 261312, Note_on_c, 1, 56, 80
3, 261500, Note_off_c, 1, 53, 100
3, 261500, Note_off_c, 1, 56, 100
3, 261504, Note_on_c, 1, 48, 80
3, 261692, Note_off_c, 1, 48, 100
3, 261696, Note_on_c, 1, 53, 80
3, 261696, Note_on_c, 1, 56, 80
3, 261696, Note_on_c, 1, 59, 80
3, 261884, Note_off_c, 1, 53, 100
3, 261884, Note_off_c, 1, 56, 100
3, 261884, Note_off_c, 1, 59, 100
3, 261888, Note_on_c, 1, 53, 80
3, 261888, Note_on_c, 1, 56, 80
3, 261888, Note_on_c, 1, 59, 80
3, 262076, Note_off_c, 1, 53, 100
3, 262076, Note_off_c, 1, 56, 100
3, 262076, Note_off_c, 1, 59, 100
3, 262080, Note_on_c, 1, 53, 80
3, 262080, Note_on_c, 1, 56, 80
3, 262080, Note_on_c, 1, 59, 80
3, 262268, Note_off_c, 1, 53, 100
3, 262268, Note_off_c, 1, 56, 100
3, 262268, Note_off_c, 1, 59, 100
3, 262272, Note_on_c, 1, 48, 80
3, 262460, Note_off_c, 1, 48, 100
3, 262464, Note_on_c, 1, 52, 80
3, 262464, Note_on_c, 1, 55, 80
3, 262464, Note_on_c, 1, 60, 80
3, 262652, Note_off_c, 1, 52, 100
3, 262652, Note_off_c, 1, 55, 100
3, 262652, Note_off_c, 1, 60, 100
3, 262656, Note_on_c, 1, 52, 80
3, 262656, Note_on_c, 1, 55, 80
3, 262656, Note_on_c, 1, 60, 80
3, 262844, Note_off_c, 1, 52, 100
3, 262844, Note_off_c, 1, 55, 100
3, 262844, Note_off_c, 1, 60, 100
3, 262848, Note_on_c, 1, 52, 80
3, 262848, Note_on_c, 1, 55, 80
3, 262848, Note_on_c, 1, 60, 80
3, 263036, Note_off_c, 1, 52, 100
3, 263036, Note_off_c, 1, 55, 100
3, 263036, Note_off_c, 1, 60, 100
3, 263040, Note_on_c, 1, 48, 80
3, 263228, Note_off_c, 1, 48, 100
3, 263232, Note_on_c, 1, 55, 80
3, 263232, Note_on_c, 1, 58, 80
3, 263420, Note_off_c, 1, 55, 100
3, 263420, Note_off_c, 1, 58, 100
3, 263424, Note_on_c, 1, 55, 80
3, 263424, Note_on_c, 1, 58, 80
3, 263612, Note_off_c, 1, 55, 100
3, 263612, Note_off_c, 1, 58, 100
3, 263616, Note_on_c, 1, 55, 79
3, 263616, Note_on_c, 1, 58, 79
3, 263804, Note_off_c, 1, 55, 100
3, 263804, Note_off_c, 1, 58, 100
3, 263808, Note_on_c, 1, 48, 79
3, 263996, Note_off_c, 1, 48, 100
3, 264000, Note_on_c, 1, 52, 78
3, 264000, Note_on_c, 1, 55, 78
3, 264000, Note_on_c, 1, 60, 78
3, 264188, Note_off_c, 1, 52, 100
3, 264188, Note_off_c, 1, 55, 100
3, 264188, Note_off_c, 1, 60, 100
3, 264192, Note_on_c, 1, 52, 78
3, 264192, Note_on_c, 1, 55, 78
3, 264192, Note_on_c, 1, 60, 78
3, 264380, Note_off_c, 1, 52, 100
3, 264380, Note_off_c, 1, 55, 100
3, 264380, Note_off_c, 1, 60, 100
3, 264384, Note_on_c, 1, 52, 77
3, 264384, Note_on_c, 1, 55, 77
3, 264384, Note_on_c, 1, 60, 77
3, 264572, Note_off_c, 1, 52, 100
3, 264572, Note_off_c, 1, 55, 100
3, 264572, Note_off_c, 1, 60, 100
3, 264576, Note_on_c, 1, 48, 77
3, 264764, Note_off_c, 1, 48, 100
3, 264768, Note_on_c, 1, 55, 76
3, 264768, Note_on_c, 1, 58, 76
3, 264956, Note_off_c, 1, 55, 100
3, 264956, Note_off_c, 1, 58, 100
3, 264960, Note_on_c, 1, 55, 76
3, 264960, Note_on_c, 1, 58, 76
3, 265148, Note_off_c, 1, 55, 100
3, 265148, Note_off_c, 1, 58, 100
3, 265152, Note_on_c, 1, 55, 75
3, 265152, Note_on_c, 1, 58, 75
3, 265340, Note_off_c, 1, 55, 100
3, 265340, Note_off_c, 1, 58, 100
3, 265344, Note_on_c, 1, 48, 75
3, 265532, Note_off_c, 1, 48, 100
3, 265536, Note_on_c, 1, 52, 74
3, 265536, Note_on_c, 1, 55, 74
3, 265536, Note_on_c, 1, 60, 74
3, 265724, Note_off_c, 1, 52, 100
3, 265724, Note_off_c, 1, 55, 100
3, 265724, Note_off_c, 1, 60, 100
3, 265728, Note_on_c, 1, 52, 74
3, 265728, Note_on_c, 1, 55, 74
3, 265728, Note_on_c, 1, 60, 74
3, 265916, Note_off_c, 1, 52, 100
3, 265916, Note_off_c, 1, 55, 100
3, 265916, Note_off_c, 1, 60, 100
3, 265920, Note_on_c, 1, 52, 73
3, 265920, Note_on_c, 1, 55, 73
3, 265920, Note_on_c, 1, 60, 73
3, 266108, Note_off_c, 1, 52, 100
3, 266108, Note_off_c, 1, 55, 100
3, 266108, Note_off_c, 1, 60, 100
3, 266112, Note_on_c, 1, 48, 73
3, 266300, Note_off_c, 1, 48, 100
3, 266304, Note_on_c, 1, 52, 72
3, 266304, Note_on_c, 1, 55, 72
3, 266304, Note_on_c, 1, 60, 72
3, 266492, Note_off_c, 1, 52, 100
3, 266492, Note_off_c, 1, 55, 100
3, 266492, Note_off_c, 1, 60, 100
3, 266496, Note_on_c, 1, 52, 72
3, 266496, Note_on_c, 1, 55, 72
3, 266496, Note_on_c, 1, 60, 72
3, 266684, Note_off_c, 1, 52, 100
3, 266684, Note_off_c, 1, 55, 100
3, 266684, Note_off_c, 1, 60, 100
3, 266688, Note_on_c, 1, 60, 71
3, 266688, Note_on_c, 1, 55, 71
3, 266688, Note_on_c, 1, 52, 71
3, 266972, Note_off_c, 1, 52, 100
3, 266972, Note_off_c, 1, 55, 100
3, 266972, Note_off_c, 1, 60, 100
3, 266976, Note_on_c, 1, 55, 71
3, 266976, Note_on_c, 1, 52, 71
3, 266976, Note_on_c, 1, 48, 71
3, 267740, Note_off_c, 1, 55, 100
3, 267740, Note_off_c, 1, 52, 100
3, 267740, Note_off_c, 1, 48, 100
3, 267740, End_track
0, 0, End_of_file
