0, 0, Header, 1, 3, 384
1, 0, Start_track
1, 0, Title_t, "L.v.Beethoven 2mov - Piano Sonata No.5 in C minor Op.10-1\000"
1, 0, Copyright_t, "Copyright(C) 1995-2009, Suzuki Software\000"
1, 0, Sequencer_specific, 9, 67, 123, 0, 88, 70, 48, 50, 0, 1
1, 0, Text_t, "XFhd:2000/03/30:JP:Classical::::L.v.Beethoven:::Kaoru Suzuki\000"
1, 0, Text_t, "XFln:JP:\203s\203A\203m\203\\\203i\203^\221æ5\224Ô\203n\222Z\222²\215ì\225i10-1\201`\221æ2\212y\217Í:L.v.\203x\201[\203g\201[\203\224\203F\203\223:::\227é\202¿\202á\202ñ:\227é\202¿\202á\202ñ\000"
1, 0, Time_signature, 2, 2, 96, 8
1, 0, Sequencer_specific, 3, 0, 0, 65
1, 0, Sequencer_specific, 5, 0, 0, 119, 14, 0
1, 0, Tempo, 1764705
1, 192, Tempo, 1250000
1, 11520, Tempo, 1500000
1, 12288, Tempo, 1250000
1, 23040, Time_signature, 1, 2, 96, 8
1, 23424, Time_signature, 2, 2, 96, 8
1, 51072, Tempo, 1333333
1, 51840, Tempo, 1395348
1, 52224, Tempo, 1500000
1, 53184, Tempo, 1250000
1, 59520, Time_signature, 1, 2, 96, 8
1, 59904, Time_signature, 2, 2, 96, 8
1, 80640, Tempo, 1304347
1, 81408, Tempo, 1333333
1, 82176, Tempo, 1363636
1, 85248, Tempo, 1500000
1, 85248, End_track
2, 0, Start_track
2, 0, Title_t, "Right"
2, 0, Control_c, 0, 0, 0
2, 0, Program_c, 0, 0
2, 0, Control_c, 0, 7, 100
2, 0, Control_c, 0, 10, 77
2, 0, Control_c, 0, 91, 127
2, 0, Key_signature, -4, "major"
2, 0, Note_on_c, 0, 60, 80
2, 0, Note_on_c, 0, 68, 80
2, 188, Note_off_c, 0, 68, 100
2, 192, Note_on_c, 0, 70, 80
2, 240, Note_on_c, 0, 68, 80
2, 284, Note_off_c, 0, 70, 100
2, 288, Note_on_c, 0, 67, 80
2, 332, Note_off_c, 0, 68, 100
2, 336, Note_on_c, 0, 68, 80
2, 380, Note_off_c, 0, 60, 100
2, 380, Note_off_c, 0, 67, 100
2, 384, Note_on_c, 0, 61, 80
2, 384, Note_on_c, 0, 72, 80
2, 428, Note_off_c, 0, 68, 100
2, 668, Note_off_c, 0, 72, 100
2, 672, Note_on_c, 0, 70, 80
2, 764, Note_off_c, 0, 61, 100
2, 764, Note_off_c, 0, 70, 100
2, 768, Note_on_c, 0, 68, 80
2, 768, Note_on_c, 0, 60, 80
2, 1340, Note_off_c, 0, 68, 100
2, 1340, Note_off_c, 0, 60, 100
2, 1344, Note_on_c, 0, 69, 80
2, 1532, Note_off_c, 0, 69, 100
2, 1536, Note_on_c, 0, 63, 80
2, 1536, Note_on_c, 0, 70, 80
2, 1724, Note_off_c, 0, 70, 100
2, 1728, Note_on_c, 0, 72, 80
2, 1776, Note_on_c, 0, 70, 80
2, 1820, Note_off_c, 0, 72, 100
2, 1824, Note_on_c, 0, 69, 80
2, 1868, Note_off_c, 0, 70, 100
2, 1872, Note_on_c, 0, 70, 80
2, 1916, Note_off_c, 0, 63, 100
2, 1916, Note_off_c, 0, 69, 100
2, 1920, Note_on_c, 0, 63, 80
2, 1920, Note_on_c, 0, 73, 80
2, 1964, Note_off_c, 0, 70, 100
2, 2108, Note_off_c, 0, 63, 100
2, 2112, Note_on_c, 0, 68, 80
2, 2204, Note_off_c, 0, 73, 100
2, 2208, Note_on_c, 0, 72, 80
2, 2300, Note_off_c, 0, 68, 100
2, 2300, Note_off_c, 0, 72, 100
2, 2304, Note_on_c, 0, 70, 80
2, 2304, Note_on_c, 0, 67, 80
2, 2876, Note_off_c, 0, 70, 100
2, 2876, Note_off_c, 0, 67, 100
2, 2880, Note_on_c, 0, 71, 80
2, 3068, Note_off_c, 0, 71, 100
2, 3072, Note_on_c, 0, 72, 80
2, 3072, Note_on_c, 0, 63, 80
2, 3404, Note_off_c, 0, 72, 100
2, 3408, Note_on_c, 0, 68, 84
2, 3452, Note_off_c, 0, 63, 100
2, 3452, Note_off_c, 0, 68, 100
2, 3456, Note_on_c, 0, 75, 84
2, 3456, Note_on_c, 0, 63, 84
2, 3456, Note_on_c, 0, 68, 84
2, 3788, Note_off_c, 0, 75, 100
2, 3792, Note_on_c, 0, 72, 89
2, 3836, Note_off_c, 0, 63, 100
2, 3836, Note_off_c, 0, 68, 100
2, 3836, Note_off_c, 0, 72, 100
2, 3840, Note_on_c, 0, 77, 89
2, 3840, Note_on_c, 0, 68, 89
2, 3840, Note_on_c, 0, 65, 89
2, 4172, Note_off_c, 0, 77, 100
2, 4176, Note_on_c, 0, 73, 94
2, 4220, Note_off_c, 0, 68, 100
2, 4220, Note_off_c, 0, 65, 100
2, 4220, Note_off_c, 0, 73, 100
2, 4320, Note_on_c, 0, 68, 80
2, 4344, Note_on_c, 0, 73, 80
2, 4368, Note_on_c, 0, 77, 80
2, 4392, Note_on_c, 0, 80, 80
2, 4604, Note_off_c, 0, 77, 100
2, 4700, Note_off_c, 0, 80, 100
2, 4704, Note_on_c, 0, 79, 80
2, 4796, Note_off_c, 0, 79, 100
2, 4800, Note_on_c, 0, 77, 80
2, 4892, Note_off_c, 0, 77, 100
2, 4896, Note_on_c, 0, 75, 80
2, 4988, Note_off_c, 0, 68, 100
2, 4988, Note_off_c, 0, 73, 100
2, 4988, Note_off_c, 0, 75, 100
2, 4992, Note_on_c, 0, 73, 80
2, 4992, Note_on_c, 0, 70, 80
2, 5180, Note_off_c, 0, 73, 100
2, 5180, Note_off_c, 0, 70, 100
2, 5184, Note_on_c, 0, 72, 80
2, 5184, Note_on_c, 0, 68, 80
2, 5372, Note_off_c, 0, 72, 100
2, 5372, Note_off_c, 0, 68, 100
2, 5376, Note_on_c, 0, 75, 80
2, 5376, Note_on_c, 0, 63, 80
2, 5564, Note_off_c, 0, 63, 100
2, 5568, Note_on_c, 0, 63, 80
2, 5660, Note_off_c, 0, 75, 100
2, 5664, Note_on_c, 0, 72, 80
2, 5756, Note_off_c, 0, 63, 100
2, 5756, Note_off_c, 0, 72, 100
2, 5760, Note_on_c, 0, 63, 80
2, 5760, Note_on_c, 0, 70, 80
2, 5784, Note_on_c, 0, 72, 80
2, 5804, Note_off_c, 0, 70, 100
2, 5808, Note_on_c, 0, 69, 80
2, 5828, Note_off_c, 0, 72, 100
2, 5832, Note_on_c, 0, 70, 80
2, 5852, Note_off_c, 0, 69, 100
2, 5856, Note_on_c, 0, 73, 80
2, 5876, Note_off_c, 0, 70, 100
2, 5900, Note_off_c, 0, 73, 100
2, 5904, Note_on_c, 0, 72, 80
2, 5948, Note_off_c, 0, 63, 100
2, 5948, Note_off_c, 0, 72, 100
2, 5952, Note_on_c, 0, 75, 80
2, 5996, Note_off_c, 0, 75, 100
2, 6000, Note_on_c, 0, 73, 80
2, 6044, Note_off_c, 0, 73, 100
2, 6048, Note_on_c, 0, 72, 80
2, 6076, Note_off_c, 0, 72, 100
2, 6080, Note_on_c, 0, 73, 80
2, 6108, Note_off_c, 0, 73, 100
2, 6112, Note_on_c, 0, 70, 80
2, 6140, Note_off_c, 0, 70, 100
2, 6144, Note_on_c, 0, 68, 80
2, 6144, Note_on_c, 0, 60, 80
2, 6332, Note_off_c, 0, 68, 100
2, 6336, Note_on_c, 0, 70, 80
2, 6384, Note_on_c, 0, 68, 80
2, 6428, Note_off_c, 0, 70, 100
2, 6432, Note_on_c, 0, 67, 80
2, 6476, Note_off_c, 0, 68, 100
2, 6480, Note_on_c, 0, 68, 80
2, 6524, Note_off_c, 0, 60, 100
2, 6524, Note_off_c, 0, 67, 100
2, 6528, Note_on_c, 0, 61, 80
2, 6528, Note_on_c, 0, 72, 80
2, 6572, Note_off_c, 0, 68, 100
2, 6812, Note_off_c, 0, 72, 100
2, 6816, Note_on_c, 0, 70, 80
2, 6908, Note_off_c, 0, 61, 100
2, 6908, Note_off_c, 0, 70, 100
2, 6912, Note_on_c, 0, 68, 80
2, 6912, Note_on_c, 0, 60, 80
2, 7292, Note_off_c, 0, 68, 100
2, 7292, Note_off_c, 0, 60, 100
2, 7680, Note_on_c, 0, 70, 80
2, 7868, Note_off_c, 0, 70, 100
2, 7872, Note_on_c, 0, 72, 80
2, 7920, Note_on_c, 0, 70, 80
2, 7964, Note_off_c, 0, 72, 100
2, 7968, Note_on_c, 0, 69, 80
2, 8012, Note_off_c, 0, 70, 100
2, 8016, Note_on_c, 0, 70, 80
2, 8060, Note_off_c, 0, 69, 100
2, 8064, Note_on_c, 0, 73, 80
2, 8064, Note_on_c, 0, 68, 80
2, 8108, Note_off_c, 0, 70, 100
2, 8348, Note_off_c, 0, 73, 100
2, 8352, Note_on_c, 0, 72, 80
2, 8444, Note_off_c, 0, 68, 100
2, 8444, Note_off_c, 0, 72, 100
2, 8448, Note_on_c, 0, 70, 80
2, 8448, Note_on_c, 0, 67, 80
2, 8828, Note_off_c, 0, 70, 100
2, 8828, Note_off_c, 0, 67, 100
2, 9216, Note_on_c, 0, 63, 80
2, 9260, Note_off_c, 0, 63, 100
2, 9264, Note_on_c, 0, 72, 81
2, 9548, Note_off_c, 0, 72, 100
2, 9552, Note_on_c, 0, 68, 89
2, 9596, Note_off_c, 0, 68, 100
2, 9600, Note_on_c, 0, 63, 90
2, 9644, Note_off_c, 0, 63, 100
2, 9648, Note_on_c, 0, 75, 91
2, 9932, Note_off_c, 0, 75, 100
2, 9936, Note_on_c, 0, 72, 99
2, 9980, Note_off_c, 0, 72, 100
2, 9984, Note_on_c, 0, 65, 100
2, 10028, Note_off_c, 0, 65, 100
2, 10032, Note_on_c, 0, 77, 99
2, 10556, Note_off_c, 0, 77, 100
2, 10560, Note_on_c, 0, 75, 83
2, 10560, Note_on_c, 0, 69, 83
2, 10652, Note_off_c, 0, 75, 100
2, 10652, Note_off_c, 0, 69, 100
2, 10656, Note_on_c, 0, 73, 81
2, 10656, Note_on_c, 0, 70, 81
2, 10748, Note_off_c, 0, 73, 100
2, 10748, Note_off_c, 0, 70, 100
2, 10752, Note_on_c, 0, 68, 80
2, 10752, Note_on_c, 0, 72, 80
2, 10940, Note_off_c, 0, 72, 100
2, 10944, Note_on_c, 0, 75, 80
2, 11132, Note_off_c, 0, 68, 100
2, 11132, Note_off_c, 0, 75, 100
2, 11136, Note_on_c, 0, 67, 80
2, 11136, Note_on_c, 0, 73, 80
2, 11324, Note_off_c, 0, 73, 100
2, 11328, Note_on_c, 0, 70, 80
2, 11516, Note_off_c, 0, 67, 100
2, 11516, Note_off_c, 0, 70, 100
2, 11520, Note_on_c, 0, 70, 80
2, 11520, Note_on_c, 0, 61, 80
2, 11708, Note_off_c, 0, 61, 100
2, 11712, Note_on_c, 0, 60, 80
2, 11760, Note_on_c, 0, 61, 80
2, 11804, Note_off_c, 0, 60, 100
2, 11808, Note_on_c, 0, 63, 80
2, 11852, Note_off_c, 0, 61, 100
2, 11856, Note_on_c, 0, 61, 80
2, 11900, Note_off_c, 0, 70, 100
2, 11900, Note_off_c, 0, 63, 100
2, 11904, Note_on_c, 0, 60, 80
2, 11904, Note_on_c, 0, 68, 80
2, 11948, Note_off_c, 0, 61, 100
2, 12092, Note_off_c, 0, 60, 100
2, 12092, Note_off_c, 0, 68, 100
2, 12288, Note_on_c, 0, 77, 110
2, 12312, Note_on_c, 0, 89, 110
2, 12332, Note_off_c, 0, 77, 100
2, 12500, Note_off_c, 0, 89, 100
2, 12504, Note_on_c, 0, 87, 110
2, 12528, Note_on_c, 0, 84, 110
2, 12548, Note_off_c, 0, 87, 100
2, 12552, Note_on_c, 0, 81, 110
2, 12572, Note_off_c, 0, 84, 100
2, 12576, Note_on_c, 0, 77, 110
2, 12596, Note_off_c, 0, 81, 100
2, 12600, Note_on_c, 0, 75, 110
2, 12620, Note_off_c, 0, 77, 100
2, 12624, Note_on_c, 0, 72, 110
2, 12644, Note_off_c, 0, 75, 100
2, 12648, Note_on_c, 0, 69, 110
2, 12668, Note_off_c, 0, 72, 100
2, 12672, Note_on_c, 0, 65, 110
2, 12692, Note_off_c, 0, 69, 100
2, 12860, Note_off_c, 0, 65, 100
2, 13008, Note_on_c, 0, 63, 80
2, 13008, Note_on_c, 0, 60, 80
2, 13052, Note_off_c, 0, 63, 100
2, 13052, Note_off_c, 0, 60, 100
2, 13056, Note_on_c, 0, 63, 80
2, 13056, Note_on_c, 0, 60, 80
2, 13436, Note_off_c, 0, 63, 100
2, 13436, Note_off_c, 0, 60, 100
2, 13440, Note_on_c, 0, 61, 80
2, 13440, Note_on_c, 0, 58, 80
2, 13628, Note_off_c, 0, 61, 100
2, 13628, Note_off_c, 0, 58, 100
2, 13824, Note_on_c, 0, 75, 110
2, 13848, Note_on_c, 0, 87, 110
2, 13868, Note_off_c, 0, 75, 100
2, 14036, Note_off_c, 0, 87, 100
2, 14040, Note_on_c, 0, 85, 110
2, 14064, Note_on_c, 0, 82, 110
2, 14084, Note_off_c, 0, 85, 100
2, 14088, Note_on_c, 0, 79, 110
2, 14108, Note_off_c, 0, 82, 100
2, 14112, Note_on_c, 0, 75, 110
2, 14132, Note_off_c, 0, 79, 100
2, 14136, Note_on_c, 0, 73, 110
2, 14156, Note_off_c, 0, 75, 100
2, 14160, Note_on_c, 0, 70, 110
2, 14180, Note_off_c, 0, 73, 100
2, 14184, Note_on_c, 0, 67, 110
2, 14204, Note_off_c, 0, 70, 100
2, 14208, Note_on_c, 0, 63, 110
2, 14228, Note_off_c, 0, 67, 100
2, 14396, Note_off_c, 0, 63, 100
2, 14544, Note_on_c, 0, 61, 80
2, 14544, Note_on_c, 0, 58, 80
2, 14588, Note_off_c, 0, 61, 100
2, 14588, Note_off_c, 0, 58, 100
2, 14592, Note_on_c, 0, 61, 80
2, 14592, Note_on_c, 0, 58, 80
2, 14972, Note_off_c, 0, 61, 100
2, 14972, Note_off_c, 0, 58, 100
2, 14976, Note_on_c, 0, 60, 80
2, 14976, Note_on_c, 0, 56, 80
2, 15164, Note_off_c, 0, 60, 100
2, 15164, Note_off_c, 0, 56, 100
2, 16080, Note_on_c, 0, 63, 120
2, 16080, Note_on_c, 0, 56, 120
2, 16080, Note_on_c, 0, 51, 120
2, 16124, Note_off_c, 0, 63, 100
2, 16124, Note_off_c, 0, 56, 100
2, 16124, Note_off_c, 0, 51, 100
2, 16128, Note_on_c, 0, 56, 120
2, 16128, Note_on_c, 0, 53, 120
2, 16128, Note_on_c, 0, 63, 120
2, 16508, Note_off_c, 0, 63, 100
2, 16512, Note_on_c, 0, 62, 80
2, 16604, Note_off_c, 0, 62, 100
2, 16608, Note_on_c, 0, 64, 80
2, 16700, Note_off_c, 0, 56, 100
2, 16700, Note_off_c, 0, 53, 100
2, 16700, Note_off_c, 0, 64, 100
2, 16704, Note_on_c, 0, 65, 80
2, 16796, Note_off_c, 0, 65, 100
2, 16800, Note_on_c, 0, 69, 80
2, 16892, Note_off_c, 0, 69, 100
2, 16896, Note_on_c, 0, 70, 80
2, 16988, Note_off_c, 0, 70, 100
2, 16992, Note_on_c, 0, 73, 80
2, 17084, Note_off_c, 0, 73, 100
2, 17088, Note_on_c, 0, 74, 80
2, 17180, Note_off_c, 0, 74, 100
2, 17184, Note_on_c, 0, 76, 80
2, 17276, Note_off_c, 0, 76, 100
2, 17280, Note_on_c, 0, 77, 80
2, 17372, Note_off_c, 0, 77, 100
2, 17376, Note_on_c, 0, 79, 80
2, 17468, Note_off_c, 0, 79, 100
2, 17472, Note_on_c, 0, 80, 80
2, 17564, Note_off_c, 0, 80, 100
2, 17568, Note_on_c, 0, 77, 80
2, 17660, Note_off_c, 0, 77, 100
2, 17664, Note_on_c, 0, 74, 70
2, 18140, Note_off_c, 0, 74, 100
2, 18144, Note_on_c, 0, 75, 70
2, 18168, Note_on_c, 0, 74, 70
2, 18188, Note_off_c, 0, 75, 100
2, 18192, Note_on_c, 0, 72, 70
2, 18212, Note_off_c, 0, 74, 100
2, 18216, Note_on_c, 0, 74, 70
2, 18236, Note_off_c, 0, 72, 100
2, 18240, Note_on_c, 0, 75, 70
2, 18260, Note_off_c, 0, 74, 100
2, 18380, Note_off_c, 0, 75, 100
2, 18384, Note_on_c, 0, 77, 70
2, 18428, Note_off_c, 0, 77, 100
2, 18432, Note_on_c, 0, 77, 70
2, 18620, Note_off_c, 0, 77, 100
2, 18624, Note_on_c, 0, 75, 70
2, 19004, Note_off_c, 0, 75, 100
2, 19008, Note_on_c, 0, 76, 70
2, 19196, Note_off_c, 0, 76, 100
2, 19200, Note_on_c, 0, 77, 70
2, 19676, Note_off_c, 0, 77, 100
2, 19680, Note_on_c, 0, 79, 70
2, 19704, Note_on_c, 0, 77, 70
2, 19724, Note_off_c, 0, 79, 100
2, 19728, Note_on_c, 0, 76, 70
2, 19748, Note_off_c, 0, 77, 100
2, 19752, Note_on_c, 0, 77, 70
2, 19772, Note_off_c, 0, 76, 100
2, 19776, Note_on_c, 0, 79, 70
2, 19796, Note_off_c, 0, 77, 100
2, 19916, Note_off_c, 0, 79, 100
2, 19920, Note_on_c, 0, 80, 70
2, 19964, Note_off_c, 0, 80, 100
2, 19968, Note_on_c, 0, 80, 70
2, 20156, Note_off_c, 0, 80, 100
2, 20160, Note_on_c, 0, 79, 70
2, 20252, Note_off_c, 0, 79, 100
2, 20760, Note_on_c, 0, 62, 80
2, 20784, Note_on_c, 0, 63, 80
2, 20804, Note_off_c, 0, 62, 100
2, 20808, Note_on_c, 0, 65, 80
2, 20828, Note_off_c, 0, 63, 100
2, 20832, Note_on_c, 0, 63, 80
2, 20852, Note_off_c, 0, 65, 100
2, 20856, Note_on_c, 0, 62, 80
2, 20876, Note_off_c, 0, 63, 100
2, 20880, Note_on_c, 0, 68, 80
2, 20900, Note_off_c, 0, 62, 100
2, 20904, Note_on_c, 0, 67, 80
2, 20924, Note_off_c, 0, 68, 100
2, 20928, Note_on_c, 0, 65, 80
2, 20948, Note_off_c, 0, 67, 100
2, 20952, Note_on_c, 0, 74, 80
2, 20972, Note_off_c, 0, 65, 100
2, 20976, Note_on_c, 0, 72, 80
2, 20996, Note_off_c, 0, 74, 100
2, 21000, Note_on_c, 0, 70, 80
2, 21020, Note_off_c, 0, 72, 100
2, 21024, Note_on_c, 0, 77, 80
2, 21044, Note_off_c, 0, 70, 100
2, 21048, Note_on_c, 0, 75, 80
2, 21068, Note_off_c, 0, 77, 100
2, 21072, Note_on_c, 0, 74, 80
2, 21092, Note_off_c, 0, 75, 100
2, 21096, Note_on_c, 0, 80, 80
2, 21116, Note_off_c, 0, 74, 100
2, 21120, Note_on_c, 0, 79, 80
2, 21140, Note_off_c, 0, 80, 100
2, 21144, Note_on_c, 0, 77, 80
2, 21164, Note_off_c, 0, 79, 100
2, 21168, Note_on_c, 0, 84, 80
2, 21188, Note_off_c, 0, 77, 100
2, 21552, Note_on_c, 0, 84, 80
2, 21572, Note_on_c, 0, 82, 80
2, 21592, Note_on_c, 0, 80, 80
2, 21596, Note_off_c, 0, 84, 100
2, 21596, Note_off_c, 0, 84, 100
2, 21612, Note_on_c, 0, 79, 80
2, 21616, Note_off_c, 0, 82, 100
2, 21632, Note_on_c, 0, 77, 80
2, 21636, Note_off_c, 0, 80, 100
2, 21652, Note_on_c, 0, 75, 80
2, 21656, Note_off_c, 0, 79, 100
2, 21672, Note_on_c, 0, 74, 80
2, 21676, Note_off_c, 0, 77, 100
2, 21696, Note_off_c, 0, 75, 100
2, 21696, Note_on_c, 0, 77, 80
2, 21716, Note_off_c, 0, 74, 100
2, 21836, Note_off_c, 0, 77, 100
2, 21840, Note_on_c, 0, 75, 80
2, 21864, Note_on_c, 0, 74, 80
2, 21884, Note_off_c, 0, 75, 100
2, 21932, Note_off_c, 0, 74, 100
2, 21960, Note_on_c, 0, 75, 80
2, 21980, Note_off_c, 0, 75, 100
2, 21984, Note_on_c, 0, 77, 80
2, 22052, Note_off_c, 0, 77, 100
2, 22056, Note_on_c, 0, 75, 80
2, 22076, Note_off_c, 0, 75, 100
2, 22080, Note_on_c, 0, 63, 80
2, 22268, Note_off_c, 0, 63, 100
2, 22488, Note_on_c, 0, 65, 80
2, 22512, Note_on_c, 0, 67, 80
2, 22532, Note_off_c, 0, 65, 100
2, 22536, Note_on_c, 0, 68, 80
2, 22556, Note_off_c, 0, 67, 100
2, 22560, Note_on_c, 0, 67, 80
2, 22580, Note_off_c, 0, 68, 100
2, 22584, Note_on_c, 0, 65, 80
2, 22604, Note_off_c, 0, 67, 100
2, 22608, Note_on_c, 0, 74, 80
2, 22628, Note_off_c, 0, 65, 100
2, 22632, Note_on_c, 0, 72, 80
2, 22652, Note_off_c, 0, 74, 100
2, 22656, Note_on_c, 0, 70, 80
2, 22676, Note_off_c, 0, 72, 100
2, 22680, Note_on_c, 0, 77, 80
2, 22700, Note_off_c, 0, 70, 100
2, 22704, Note_on_c, 0, 75, 80
2, 22724, Note_off_c, 0, 77, 100
2, 22728, Note_on_c, 0, 74, 80
2, 22748, Note_off_c, 0, 75, 100
2, 22752, Note_on_c, 0, 80, 80
2, 22772, Note_off_c, 0, 74, 100
2, 22776, Note_on_c, 0, 79, 80
2, 22796, Note_off_c, 0, 80, 100
2, 22800, Note_on_c, 0, 77, 80
2, 22820, Note_off_c, 0, 79, 100
2, 22824, Note_on_c, 0, 86, 80
2, 22844, Note_off_c, 0, 77, 100
2, 22848, Note_on_c, 0, 84, 80
2, 22868, Note_off_c, 0, 86, 100
2, 22872, Note_on_c, 0, 82, 80
2, 22892, Note_off_c, 0, 84, 100
2, 22896, Note_on_c, 0, 89, 80
2, 22916, Note_off_c, 0, 82, 100
2, 23228, Note_off_c, 0, 89, 100
2, 23232, Note_on_c, 0, 89, 80
2, 23264, Note_on_c, 0, 87, 80
2, 23292, Note_off_c, 0, 89, 100
2, 23296, Note_on_c, 0, 86, 80
2, 23324, Note_off_c, 0, 87, 100
2, 23328, Note_on_c, 0, 84, 80
2, 23356, Note_off_c, 0, 86, 100
2, 23360, Note_on_c, 0, 82, 80
2, 23388, Note_off_c, 0, 84, 100
2, 23392, Note_on_c, 0, 80, 80
2, 23420, Note_off_c, 0, 82, 100
2, 23420, Note_off_c, 0, 80, 100
2, 23424, Note_on_c, 0, 79, 80
2, 23708, Note_off_c, 0, 79, 100
2, 23760, Note_on_c, 0, 79, 84
2, 23804, Note_off_c, 0, 79, 100
2, 23808, Note_on_c, 0, 80, 85
2, 24092, Note_off_c, 0, 80, 100
2, 24144, Note_on_c, 0, 80, 89
2, 24188, Note_off_c, 0, 80, 100
2, 24192, Note_on_c, 0, 82, 90
2, 24476, Note_off_c, 0, 82, 100
2, 24528, Note_on_c, 0, 82, 94
2, 24572, Note_off_c, 0, 82, 100
2, 24576, Note_on_c, 0, 83, 95
2, 24860, Note_off_c, 0, 83, 100
2, 24912, Note_on_c, 0, 83, 99
2, 24956, Note_off_c, 0, 83, 100
2, 24960, Note_on_c, 0, 84, 100
2, 25244, Note_off_c, 0, 84, 100
2, 25296, Note_on_c, 0, 84, 104
2, 25340, Note_off_c, 0, 84, 100
2, 25344, Note_on_c, 0, 86, 105
2, 25628, Note_off_c, 0, 86, 100
2, 25680, Note_on_c, 0, 86, 109
2, 25724, Note_off_c, 0, 86, 100
2, 25728, Note_on_c, 0, 87, 111
2, 26012, Note_off_c, 0, 87, 100
2, 26016, Note_on_c, 0, 89, 114
2, 26040, Note_on_c, 0, 87, 114
2, 26060, Note_off_c, 0, 89, 100
2, 26064, Note_on_c, 0, 86, 114
2, 26084, Note_off_c, 0, 87, 100
2, 26088, Note_on_c, 0, 87, 114
2, 26108, Note_off_c, 0, 86, 100
2, 26112, Note_on_c, 0, 89, 114
2, 26132, Note_off_c, 0, 87, 100
2, 26204, Note_off_c, 0, 89, 100
2, 26208, Note_on_c, 0, 87, 100
2, 26300, Note_off_c, 0, 87, 100
2, 26304, Note_on_c, 0, 86, 100
2, 26396, Note_off_c, 0, 86, 100
2, 26400, Note_on_c, 0, 84, 100
2, 26492, Note_off_c, 0, 84, 100
2, 26496, Note_on_c, 0, 82, 90
2, 26588, Note_off_c, 0, 82, 100
2, 26592, Note_on_c, 0, 81, 89
2, 26684, Note_off_c, 0, 81, 100
2, 26688, Note_on_c, 0, 84, 88
2, 26780, Note_off_c, 0, 84, 100
2, 26784, Note_on_c, 0, 82, 86
2, 26876, Note_off_c, 0, 82, 100
2, 26880, Note_on_c, 0, 80, 85
2, 26972, Note_off_c, 0, 80, 100
2, 26976, Note_on_c, 0, 79, 83
2, 27068, Note_off_c, 0, 79, 100
2, 27072, Note_on_c, 0, 77, 82
2, 27164, Note_off_c, 0, 77, 100
2, 27168, Note_on_c, 0, 82, 81
2, 27260, Note_off_c, 0, 82, 100
2, 27264, Note_on_c, 0, 78, 70
2, 27324, Note_off_c, 0, 78, 100
2, 27328, Note_on_c, 0, 79, 70
2, 27388, Note_off_c, 0, 79, 100
2, 27392, Note_on_c, 0, 67, 70
2, 27452, Note_off_c, 0, 67, 100
2, 27520, Note_on_c, 0, 79, 70
2, 27580, Note_off_c, 0, 79, 100
2, 27584, Note_on_c, 0, 67, 70
2, 27644, Note_off_c, 0, 67, 100
2, 27648, Note_on_c, 0, 79, 70
2, 27708, Note_off_c, 0, 79, 100
2, 27712, Note_on_c, 0, 80, 70
2, 27772, Note_off_c, 0, 80, 100
2, 27776, Note_on_c, 0, 68, 70
2, 27836, Note_off_c, 0, 68, 100
2, 27904, Note_on_c, 0, 80, 70
2, 27964, Note_off_c, 0, 80, 100
2, 27968, Note_on_c, 0, 68, 70
2, 28028, Note_off_c, 0, 68, 100
2, 28032, Note_on_c, 0, 81, 70
2, 28092, Note_off_c, 0, 81, 100
2, 28096, Note_on_c, 0, 82, 71
2, 28156, Note_off_c, 0, 82, 100
2, 28160, Note_on_c, 0, 70, 73
2, 28220, Note_off_c, 0, 70, 100
2, 28288, Note_on_c, 0, 82, 76
2, 28348, Note_off_c, 0, 82, 100
2, 28352, Note_on_c, 0, 70, 78
2, 28412, Note_off_c, 0, 70, 100
2, 28416, Note_on_c, 0, 82, 80
2, 28476, Note_off_c, 0, 82, 100
2, 28480, Note_on_c, 0, 83, 82
2, 28540, Note_off_c, 0, 83, 100
2, 28544, Note_on_c, 0, 71, 83
2, 28604, Note_off_c, 0, 71, 100
2, 28672, Note_on_c, 0, 83, 87
2, 28732, Note_off_c, 0, 83, 100
2, 28736, Note_on_c, 0, 71, 89
2, 28796, Note_off_c, 0, 71, 100
2, 28800, Note_on_c, 0, 83, 90
2, 28860, Note_off_c, 0, 83, 100
2, 28864, Note_on_c, 0, 84, 92
2, 28924, Note_off_c, 0, 84, 100
2, 28928, Note_on_c, 0, 72, 94
2, 28988, Note_off_c, 0, 72, 100
2, 29056, Note_on_c, 0, 84, 97
2, 29116, Note_off_c, 0, 84, 100
2, 29120, Note_on_c, 0, 72, 99
2, 29180, Note_off_c, 0, 72, 100
2, 29184, Note_on_c, 0, 85, 101
2, 29244, Note_off_c, 0, 85, 100
2, 29248, Note_on_c, 0, 86, 102
2, 29308, Note_off_c, 0, 86, 100
2, 29312, Note_on_c, 0, 74, 104
2, 29372, Note_off_c, 0, 74, 100
2, 29440, Note_on_c, 0, 86, 108
2, 29500, Note_off_c, 0, 86, 100
2, 29504, Note_on_c, 0, 74, 109
2, 29564, Note_off_c, 0, 74, 100
2, 29568, Note_on_c, 0, 86, 110
2, 29628, Note_off_c, 0, 86, 100
2, 29632, Note_on_c, 0, 87, 110
2, 29692, Note_off_c, 0, 87, 100
2, 29696, Note_on_c, 0, 75, 110
2, 29756, Note_off_c, 0, 75, 100
2, 29824, Note_on_c, 0, 87, 110
2, 29884, Note_off_c, 0, 87, 100
2, 29888, Note_on_c, 0, 75, 110
2, 29948, Note_off_c, 0, 75, 100
2, 29952, Note_on_c, 0, 87, 110
2, 30012, Note_off_c, 0, 87, 100
2, 30016, Note_on_c, 0, 78, 110
2, 30076, Note_off_c, 0, 78, 100
2, 30080, Note_on_c, 0, 87, 110
2, 30140, Note_off_c, 0, 87, 100
2, 30144, Note_on_c, 0, 81, 110
2, 30204, Note_off_c, 0, 81, 100
2, 30208, Note_on_c, 0, 87, 110
2, 30268, Note_off_c, 0, 87, 100
2, 30272, Note_on_c, 0, 81, 110
2, 30332, Note_off_c, 0, 81, 100
2, 30336, Note_on_c, 0, 82, 110
2, 30780, Note_off_c, 0, 82, 100
2, 30784, Note_on_c, 0, 81, 96
2, 30844, Note_off_c, 0, 81, 100
2, 30848, Note_on_c, 0, 84, 94
2, 30908, Note_off_c, 0, 84, 100
2, 30912, Note_on_c, 0, 82, 93
2, 30972, Note_off_c, 0, 82, 100
2, 30976, Note_on_c, 0, 80, 92
2, 31036, Note_off_c, 0, 80, 100
2, 31040, Note_on_c, 0, 79, 91
2, 31100, Note_off_c, 0, 79, 100
2, 31104, Note_on_c, 0, 75, 110
2, 31104, Note_on_c, 0, 77, 110
2, 31388, Note_off_c, 0, 77, 100
2, 31392, Note_on_c, 0, 77, 110
2, 31416, Note_on_c, 0, 79, 110
2, 31436, Note_off_c, 0, 77, 100
2, 31440, Note_on_c, 0, 76, 110
2, 31460, Note_off_c, 0, 79, 100
2, 31464, Note_on_c, 0, 77, 110
2, 31484, Note_off_c, 0, 75, 100
2, 31484, Note_off_c, 0, 76, 100
2, 31488, Note_on_c, 0, 74, 110
2, 31488, Note_on_c, 0, 82, 110
2, 31508, Note_off_c, 0, 77, 100
2, 31820, Note_off_c, 0, 82, 100
2, 31824, Note_on_c, 0, 82, 110
2, 31868, Note_off_c, 0, 74, 100
2, 31868, Note_off_c, 0, 82, 100
2, 31872, Note_on_c, 0, 75, 110
2, 31872, Note_on_c, 0, 67, 110
2, 32060, Note_off_c, 0, 75, 100
2, 32060, Note_off_c, 0, 67, 100
2, 32320, Note_on_c, 0, 69, 110
2, 32380, Note_off_c, 0, 69, 100
2, 32384, Note_on_c, 0, 72, 110
2, 32444, Note_off_c, 0, 72, 100
2, 32448, Note_on_c, 0, 70, 110
2, 32508, Note_off_c, 0, 70, 100
2, 32512, Note_on_c, 0, 68, 110
2, 32572, Note_off_c, 0, 68, 100
2, 32576, Note_on_c, 0, 67, 110
2, 32636, Note_off_c, 0, 67, 100
2, 32640, Note_on_c, 0, 63, 110
2, 32640, Note_on_c, 0, 65, 110
2, 32924, Note_off_c, 0, 65, 100
2, 32928, Note_on_c, 0, 65, 110
2, 32952, Note_on_c, 0, 67, 110
2, 32972, Note_off_c, 0, 65, 100
2, 32976, Note_on_c, 0, 64, 110
2, 32996, Note_off_c, 0, 67, 100
2, 33000, Note_on_c, 0, 65, 110
2, 33020, Note_off_c, 0, 63, 100
2, 33020, Note_off_c, 0, 64, 100
2, 33024, Note_on_c, 0, 62, 110
2, 33024, Note_on_c, 0, 70, 110
2, 33044, Note_off_c, 0, 65, 100
2, 33356, Note_off_c, 0, 70, 100
2, 33360, Note_on_c, 0, 70, 100
2, 33404, Note_off_c, 0, 62, 100
2, 33404, Note_off_c, 0, 70, 100
2, 33408, Note_on_c, 0, 63, 100
2, 33596, Note_off_c, 0, 63, 100
2, 34272, Note_on_c, 0, 55, 100
2, 34296, Note_on_c, 0, 58, 100
2, 34320, Note_on_c, 0, 61, 100
2, 34344, Note_on_c, 0, 63, 100
2, 34368, Note_on_c, 0, 67, 100
2, 34532, Note_off_c, 0, 58, 100
2, 34556, Note_off_c, 0, 55, 100
2, 34556, Note_off_c, 0, 61, 100
2, 34556, Note_off_c, 0, 63, 100
2, 34556, Note_off_c, 0, 67, 100
2, 34944, Note_on_c, 0, 68, 80
2, 34944, Note_on_c, 0, 60, 80
2, 35132, Note_off_c, 0, 68, 100
2, 35136, Note_on_c, 0, 70, 80
2, 35184, Note_on_c, 0, 68, 80
2, 35228, Note_off_c, 0, 70, 100
2, 35232, Note_on_c, 0, 67, 80
2, 35276, Note_off_c, 0, 68, 100
2, 35280, Note_on_c, 0, 68, 80
2, 35324, Note_off_c, 0, 60, 100
2, 35324, Note_off_c, 0, 67, 100
2, 35328, Note_on_c, 0, 72, 80
2, 35328, Note_on_c, 0, 61, 80
2, 35372, Note_off_c, 0, 68, 100
2, 35612, Note_off_c, 0, 72, 100
2, 35616, Note_on_c, 0, 70, 80
2, 35708, Note_off_c, 0, 61, 100
2, 35708, Note_off_c, 0, 70, 100
2, 35712, Note_on_c, 0, 60, 80
2, 35712, Note_on_c, 0, 68, 80
2, 36092, Note_off_c, 0, 60, 100
2, 36188, Note_off_c, 0, 68, 100
2, 36192, Note_on_c, 0, 67, 80
2, 36284, Note_off_c, 0, 67, 100
2, 36288, Note_on_c, 0, 68, 80
2, 36380, Note_off_c, 0, 68, 100
2, 36384, Note_on_c, 0, 69, 80
2, 36476, Note_off_c, 0, 69, 100
2, 36480, Note_on_c, 0, 63, 80
2, 36480, Note_on_c, 0, 70, 80
2, 36668, Note_off_c, 0, 70, 100
2, 36672, Note_on_c, 0, 72, 80
2, 36720, Note_on_c, 0, 70, 80
2, 36764, Note_off_c, 0, 72, 100
2, 36768, Note_on_c, 0, 69, 80
2, 36812, Note_off_c, 0, 70, 100
2, 36816, Note_on_c, 0, 70, 80
2, 36860, Note_off_c, 0, 63, 100
2, 36860, Note_off_c, 0, 69, 100
2, 36864, Note_on_c, 0, 63, 80
2, 36864, Note_on_c, 0, 73, 80
2, 36908, Note_off_c, 0, 70, 100
2, 37052, Note_off_c, 0, 63, 100
2, 37056, Note_on_c, 0, 68, 80
2, 37148, Note_off_c, 0, 73, 100
2, 37152, Note_on_c, 0, 72, 80
2, 37244, Note_off_c, 0, 68, 100
2, 37244, Note_off_c, 0, 72, 100
2, 37248, Note_on_c, 0, 70, 80
2, 37248, Note_on_c, 0, 67, 80
2, 37628, Note_off_c, 0, 67, 100
2, 37692, Note_off_c, 0, 70, 100
2, 37696, Note_on_c, 0, 77, 80
2, 37756, Note_off_c, 0, 77, 100
2, 37760, Note_on_c, 0, 75, 80
2, 37820, Note_off_c, 0, 75, 100
2, 37824, Note_on_c, 0, 73, 80
2, 37884, Note_off_c, 0, 73, 100
2, 37888, Note_on_c, 0, 72, 80
2, 37948, Note_off_c, 0, 72, 100
2, 37952, Note_on_c, 0, 71, 80
2, 38012, Note_off_c, 0, 71, 100
2, 38016, Note_on_c, 0, 72, 80
2, 38348, Note_off_c, 0, 72, 100
2, 38352, Note_on_c, 0, 68, 89
2, 38396, Note_off_c, 0, 68, 100
2, 38400, Note_on_c, 0, 75, 90
2, 38732, Note_off_c, 0, 75, 100
2, 38736, Note_on_c, 0, 72, 99
2, 38780, Note_off_c, 0, 72, 100
2, 38784, Note_on_c, 0, 77, 110
2, 39116, Note_off_c, 0, 77, 100
2, 39120, Note_on_c, 0, 73, 101
2, 39164, Note_off_c, 0, 73, 100
2, 39168, Note_on_c, 0, 80, 100
2, 39552, Note_on_c, 0, 68, 89
2, 39644, Note_off_c, 0, 80, 100
2, 39648, Note_on_c, 0, 79, 86
2, 39740, Note_off_c, 0, 79, 100
2, 39744, Note_on_c, 0, 77, 83
2, 39836, Note_off_c, 0, 77, 100
2, 39840, Note_on_c, 0, 75, 81
2, 39932, Note_off_c, 0, 68, 100
2, 39932, Note_off_c, 0, 75, 100
2, 39936, Note_on_c, 0, 75, 100
2, 39936, Note_on_c, 0, 63, 100
2, 40028, Note_off_c, 0, 75, 100
2, 40032, Note_on_c, 0, 73, 100
2, 40124, Note_off_c, 0, 63, 100
2, 40124, Note_off_c, 0, 73, 100
2, 40128, Note_on_c, 0, 73, 100
2, 40128, Note_on_c, 0, 63, 100
2, 40220, Note_off_c, 0, 73, 100
2, 40224, Note_on_c, 0, 72, 100
2, 40316, Note_off_c, 0, 63, 100
2, 40316, Note_off_c, 0, 72, 100
2, 40320, Note_on_c, 0, 75, 100
2, 40320, Note_on_c, 0, 63, 100
2, 40508, Note_off_c, 0, 63, 100
2, 40512, Note_on_c, 0, 63, 100
2, 40604, Note_off_c, 0, 75, 100
2, 40608, Note_on_c, 0, 72, 100
2, 40700, Note_off_c, 0, 63, 100
2, 40700, Note_off_c, 0, 72, 100
2, 40704, Note_on_c, 0, 63, 100
2, 40704, Note_on_c, 0, 70, 100
2, 40728, Note_on_c, 0, 72, 100
2, 40748, Note_off_c, 0, 70, 100
2, 40752, Note_on_c, 0, 69, 100
2, 40772, Note_off_c, 0, 72, 100
2, 40776, Note_on_c, 0, 70, 100
2, 40796, Note_off_c, 0, 69, 100
2, 40800, Note_on_c, 0, 73, 100
2, 40820, Note_off_c, 0, 70, 100
2, 40844, Note_off_c, 0, 73, 100
2, 40848, Note_on_c, 0, 72, 100
2, 40892, Note_off_c, 0, 63, 100
2, 40892, Note_off_c, 0, 72, 100
2, 40896, Note_on_c, 0, 75, 100
2, 40940, Note_off_c, 0, 75, 100
2, 40944, Note_on_c, 0, 73, 100
2, 40988, Note_off_c, 0, 73, 100
2, 40992, Note_on_c, 0, 72, 100
2, 41016, Note_on_c, 0, 75, 100
2, 41036, Note_off_c, 0, 72, 100
2, 41040, Note_on_c, 0, 73, 100
2, 41060, Note_off_c, 0, 75, 100
2, 41064, Note_on_c, 0, 70, 100
2, 41084, Note_off_c, 0, 73, 100
2, 41084, Note_off_c, 0, 70, 100
2, 41088, Note_on_c, 0, 68, 100
2, 41088, Note_on_c, 0, 60, 100
2, 41276, Note_off_c, 0, 68, 100
2, 41280, Note_on_c, 0, 70, 100
2, 41328, Note_on_c, 0, 68, 100
2, 41372, Note_off_c, 0, 70, 100
2, 41376, Note_on_c, 0, 67, 100
2, 41420, Note_off_c, 0, 68, 100
2, 41424, Note_on_c, 0, 68, 100
2, 41468, Note_off_c, 0, 60, 100
2, 41468, Note_off_c, 0, 67, 100
2, 41472, Note_on_c, 0, 72, 100
2, 41472, Note_on_c, 0, 61, 100
2, 41516, Note_off_c, 0, 68, 100
2, 41756, Note_off_c, 0, 72, 100
2, 41760, Note_on_c, 0, 70, 100
2, 41852, Note_off_c, 0, 61, 100
2, 41852, Note_off_c, 0, 70, 100
2, 41856, Note_on_c, 0, 68, 100
2, 41856, Note_on_c, 0, 60, 100
2, 42236, Note_off_c, 0, 68, 100
2, 42236, Note_off_c, 0, 60, 100
2, 42624, Note_on_c, 0, 63, 100
2, 42624, Note_on_c, 0, 70, 100
2, 42812, Note_off_c, 0, 70, 100
2, 42816, Note_on_c, 0, 72, 100
2, 42864, Note_on_c, 0, 70, 100
2, 42908, Note_off_c, 0, 72, 100
2, 42912, Note_on_c, 0, 69, 100
2, 42956, Note_off_c, 0, 70, 100
2, 42960, Note_on_c, 0, 70, 100
2, 43004, Note_off_c, 0, 63, 100
2, 43004, Note_off_c, 0, 69, 100
2, 43008, Note_on_c, 0, 63, 100
2, 43008, Note_on_c, 0, 68, 100
2, 43008, Note_on_c, 0, 73, 100
2, 43052, Note_off_c, 0, 70, 100
2, 43292, Note_off_c, 0, 73, 100
2, 43296, Note_on_c, 0, 72, 100
2, 43388, Note_off_c, 0, 63, 100
2, 43388, Note_off_c, 0, 68, 100
2, 43388, Note_off_c, 0, 72, 100
2, 43392, Note_on_c, 0, 70, 100
2, 43392, Note_on_c, 0, 67, 100
2, 43392, Note_on_c, 0, 63, 100
2, 43772, Note_off_c, 0, 70, 100
2, 43772, Note_off_c, 0, 67, 100
2, 43772, Note_off_c, 0, 63, 100
2, 44160, Note_on_c, 0, 63, 100
2, 44180, Note_off_c, 0, 63, 100
2, 44184, Note_on_c, 0, 72, 100
2, 44492, Note_off_c, 0, 72, 100
2, 44496, Note_on_c, 0, 68, 106
2, 44540, Note_off_c, 0, 68, 100
2, 44544, Note_on_c, 0, 63, 107
2, 44564, Note_off_c, 0, 63, 100
2, 44568, Note_on_c, 0, 75, 108
2, 44876, Note_off_c, 0, 75, 100
2, 44880, Note_on_c, 0, 72, 114
2, 44924, Note_off_c, 0, 72, 100
2, 44928, Note_on_c, 0, 65, 110
2, 44976, Note_on_c, 0, 77, 110
2, 45564, Note_off_c, 0, 65, 100
2, 45564, Note_off_c, 0, 77, 100
2, 45568, Note_on_c, 0, 75, 83
2, 45568, Note_on_c, 0, 69, 83
2, 45628, Note_off_c, 0, 75, 100
2, 45628, Note_off_c, 0, 69, 100
2, 45632, Note_on_c, 0, 73, 81
2, 45632, Note_on_c, 0, 70, 81
2, 45692, Note_off_c, 0, 73, 100
2, 45692, Note_off_c, 0, 70, 100
2, 45696, Note_on_c, 0, 68, 80
2, 45696, Note_on_c, 0, 72, 80
2, 45884, Note_off_c, 0, 72, 100
2, 45888, Note_on_c, 0, 75, 80
2, 46076, Note_off_c, 0, 68, 100
2, 46076, Note_off_c, 0, 75, 100
2, 46080, Note_on_c, 0, 67, 80
2, 46080, Note_on_c, 0, 73, 80
2, 46268, Note_off_c, 0, 73, 100
2, 46272, Note_on_c, 0, 70, 80
2, 46460, Note_off_c, 0, 67, 100
2, 46460, Note_off_c, 0, 70, 100
2, 46464, Note_on_c, 0, 70, 80
2, 46464, Note_on_c, 0, 61, 80
2, 46700, Note_off_c, 0, 61, 100
2, 46704, Note_on_c, 0, 60, 80
2, 46728, Note_on_c, 0, 61, 80
2, 46748, Note_off_c, 0, 60, 100
2, 46752, Note_on_c, 0, 63, 80
2, 46772, Note_off_c, 0, 61, 100
2, 46776, Note_on_c, 0, 61, 80
2, 46796, Note_off_c, 0, 63, 100
2, 46800, Note_on_c, 0, 60, 80
2, 46820, Note_off_c, 0, 61, 100
2, 46824, Note_on_c, 0, 61, 80
2, 46844, Note_off_c, 0, 70, 100
2, 46844, Note_off_c, 0, 60, 100
2, 46848, Note_on_c, 0, 60, 80
2, 46848, Note_on_c, 0, 68, 80
2, 46868, Note_off_c, 0, 61, 100
2, 47036, Note_off_c, 0, 60, 100
2, 47036, Note_off_c, 0, 68, 100
2, 47232, Note_on_c, 0, 77, 120
2, 47276, Note_off_c, 0, 77, 100
2, 47280, Note_on_c, 0, 89, 120
2, 47444, Note_off_c, 0, 89, 100
2, 47448, Note_on_c, 0, 87, 120
2, 47472, Note_on_c, 0, 84, 120
2, 47492, Note_off_c, 0, 87, 100
2, 47496, Note_on_c, 0, 81, 120
2, 47516, Note_off_c, 0, 84, 100
2, 47520, Note_on_c, 0, 77, 120
2, 47540, Note_off_c, 0, 81, 100
2, 47544, Note_on_c, 0, 75, 120
2, 47564, Note_off_c, 0, 77, 100
2, 47568, Note_on_c, 0, 72, 120
2, 47588, Note_off_c, 0, 75, 100
2, 47592, Note_on_c, 0, 69, 120
2, 47612, Note_off_c, 0, 72, 100
2, 47616, Note_on_c, 0, 65, 120
2, 47636, Note_off_c, 0, 69, 100
2, 47804, Note_off_c, 0, 65, 100
2, 47952, Note_on_c, 0, 60, 80
2, 47952, Note_on_c, 0, 63, 80
2, 47996, Note_off_c, 0, 60, 100
2, 47996, Note_off_c, 0, 63, 100
2, 48000, Note_on_c, 0, 63, 80
2, 48000, Note_on_c, 0, 60, 80
2, 48380, Note_off_c, 0, 63, 100
2, 48380, Note_off_c, 0, 60, 100
2, 48384, Note_on_c, 0, 61, 80
2, 48384, Note_on_c, 0, 58, 80
2, 48572, Note_off_c, 0, 61, 100
2, 48572, Note_off_c, 0, 58, 100
2, 48768, Note_on_c, 0, 75, 120
2, 48812, Note_off_c, 0, 75, 100
2, 48816, Note_on_c, 0, 87, 120
2, 48980, Note_off_c, 0, 87, 100
2, 48984, Note_on_c, 0, 85, 120
2, 49008, Note_on_c, 0, 82, 120
2, 49028, Note_off_c, 0, 85, 100
2, 49032, Note_on_c, 0, 79, 120
2, 49052, Note_off_c, 0, 82, 100
2, 49056, Note_on_c, 0, 75, 120
2, 49076, Note_off_c, 0, 79, 100
2, 49080, Note_on_c, 0, 73, 120
2, 49100, Note_off_c, 0, 75, 100
2, 49104, Note_on_c, 0, 70, 120
2, 49124, Note_off_c, 0, 73, 100
2, 49128, Note_on_c, 0, 67, 120
2, 49148, Note_off_c, 0, 70, 100
2, 49152, Note_on_c, 0, 63, 120
2, 49172, Note_off_c, 0, 67, 100
2, 49340, Note_off_c, 0, 63, 100
2, 49488, Note_on_c, 0, 61, 80
2, 49488, Note_on_c, 0, 58, 80
2, 49532, Note_off_c, 0, 61, 100
2, 49532, Note_off_c, 0, 58, 100
2, 49536, Note_on_c, 0, 61, 80
2, 49536, Note_on_c, 0, 58, 80
2, 49916, Note_off_c, 0, 61, 100
2, 49916, Note_off_c, 0, 58, 100
2, 49920, Note_on_c, 0, 59, 80
2, 49920, Note_on_c, 0, 56, 80
2, 50108, Note_off_c, 0, 59, 100
2, 50108, Note_off_c, 0, 56, 100
2, 51024, Note_on_c, 0, 64, 100
2, 51024, Note_on_c, 0, 56, 100
2, 51024, Note_on_c, 0, 52, 100
2, 51068, Note_off_c, 0, 64, 100
2, 51068, Note_off_c, 0, 56, 100
2, 51068, Note_off_c, 0, 52, 100
2, 51072, Note_on_c, 0, 57, 100
2, 51072, Note_on_c, 0, 54, 100
2, 51072, Note_on_c, 0, 64, 100
2, 51452, Note_off_c, 0, 64, 100
2, 51456, Note_on_c, 0, 63, 100
2, 51644, Note_off_c, 0, 57, 100
2, 51644, Note_off_c, 0, 54, 100
2, 51644, Note_off_c, 0, 63, 100
2, 51792, Note_on_c, 0, 63, 100
2, 51792, Note_on_c, 0, 56, 100
2, 51792, Note_on_c, 0, 53, 100
2, 51836, Note_off_c, 0, 63, 100
2, 51836, Note_off_c, 0, 56, 100
2, 51836, Note_off_c, 0, 53, 100
2, 51840, Note_on_c, 0, 63, 100
2, 51840, Note_on_c, 0, 56, 100
2, 51840, Note_on_c, 0, 53, 100
2, 52220, Note_off_c, 0, 63, 100
2, 52224, Note_on_c, 0, 62, 100
2, 52412, Note_off_c, 0, 56, 100
2, 52412, Note_off_c, 0, 53, 100
2, 52412, Note_off_c, 0, 62, 100
2, 52560, Note_on_c, 0, 62, 100
2, 52560, Note_on_c, 0, 56, 100
2, 52560, Note_on_c, 0, 53, 100
2, 52604, Note_off_c, 0, 62, 100
2, 52604, Note_off_c, 0, 56, 100
2, 52604, Note_off_c, 0, 53, 100
2, 52608, Note_on_c, 0, 62, 100
2, 52608, Note_on_c, 0, 56, 100
2, 52608, Note_on_c, 0, 53, 100
2, 52988, Note_off_c, 0, 62, 100
2, 52988, Note_off_c, 0, 56, 100
2, 52988, Note_off_c, 0, 53, 100
2, 52992, Note_on_c, 0, 61, 80
2, 52992, Note_on_c, 0, 58, 80
2, 52992, Note_on_c, 0, 55, 80
2, 53084, Note_off_c, 0, 61, 100
2, 53084, Note_off_c, 0, 58, 100
2, 53084, Note_off_c, 0, 55, 100
2, 53088, Note_on_c, 0, 69, 80
2, 53180, Note_off_c, 0, 69, 100
2, 53184, Note_on_c, 0, 70, 80
2, 53276, Note_off_c, 0, 70, 100
2, 53280, Note_on_c, 0, 72, 80
2, 53372, Note_off_c, 0, 72, 100
2, 53376, Note_on_c, 0, 73, 80
2, 53468, Note_off_c, 0, 73, 100
2, 53472, Note_on_c, 0, 78, 80
2, 53564, Note_off_c, 0, 78, 100
2, 53568, Note_on_c, 0, 79, 80
2, 53660, Note_off_c, 0, 79, 100
2, 53664, Note_on_c, 0, 81, 80
2, 53756, Note_off_c, 0, 81, 100
2, 53760, Note_on_c, 0, 82, 80
2, 53852, Note_off_c, 0, 82, 100
2, 53856, Note_on_c, 0, 84, 80
2, 53948, Note_off_c, 0, 84, 100
2, 53952, Note_on_c, 0, 85, 80
2, 54044, Note_off_c, 0, 85, 100
2, 54048, Note_on_c, 0, 82, 80
2, 54140, Note_off_c, 0, 82, 100
2, 54144, Note_on_c, 0, 79, 70
2, 54620, Note_off_c, 0, 79, 100
2, 54624, Note_on_c, 0, 80, 70
2, 54648, Note_on_c, 0, 79, 70
2, 54668, Note_off_c, 0, 80, 100
2, 54672, Note_on_c, 0, 77, 70
2, 54692, Note_off_c, 0, 79, 100
2, 54696, Note_on_c, 0, 79, 70
2, 54716, Note_off_c, 0, 77, 100
2, 54720, Note_on_c, 0, 80, 70
2, 54740, Note_off_c, 0, 79, 100
2, 54860, Note_off_c, 0, 80, 100
2, 54864, Note_on_c, 0, 82, 70
2, 54908, Note_off_c, 0, 82, 100
2, 54912, Note_on_c, 0, 82, 70
2, 55100, Note_off_c, 0, 82, 100
2, 55104, Note_on_c, 0, 80, 70
2, 55484, Note_off_c, 0, 80, 100
2, 55488, Note_on_c, 0, 81, 70
2, 55676, Note_off_c, 0, 81, 100
2, 55680, Note_on_c, 0, 82, 70
2, 56156, Note_off_c, 0, 82, 100
2, 56160, Note_on_c, 0, 84, 70
2, 56184, Note_on_c, 0, 82, 70
2, 56204, Note_off_c, 0, 84, 100
2, 56208, Note_on_c, 0, 81, 70
2, 56228, Note_off_c, 0, 82, 100
2, 56232, Note_on_c, 0, 82, 70
2, 56252, Note_off_c, 0, 81, 100
2, 56256, Note_on_c, 0, 84, 70
2, 56276, Note_off_c, 0, 82, 100
2, 56396, Note_off_c, 0, 84, 100
2, 56400, Note_on_c, 0, 85, 70
2, 56444, Note_off_c, 0, 85, 100
2, 56448, Note_on_c, 0, 85, 70
2, 56636, Note_off_c, 0, 85, 100
2, 56640, Note_on_c, 0, 84, 70
2, 56732, Note_off_c, 0, 84, 100
2, 57240, Note_on_c, 0, 67, 70
2, 57264, Note_on_c, 0, 68, 70
2, 57284, Note_off_c, 0, 67, 100
2, 57288, Note_on_c, 0, 70, 70
2, 57308, Note_off_c, 0, 68, 100
2, 57312, Note_on_c, 0, 68, 70
2, 57332, Note_off_c, 0, 70, 100
2, 57336, Note_on_c, 0, 67, 70
2, 57356, Note_off_c, 0, 68, 100
2, 57360, Note_on_c, 0, 73, 70
2, 57380, Note_off_c, 0, 67, 100
2, 57384, Note_on_c, 0, 72, 70
2, 57404, Note_off_c, 0, 73, 100
2, 57408, Note_on_c, 0, 70, 70
2, 57428, Note_off_c, 0, 72, 100
2, 57432, Note_on_c, 0, 77, 70
2, 57452, Note_off_c, 0, 70, 100
2, 57456, Note_on_c, 0, 75, 70
2, 57476, Note_off_c, 0, 77, 100
2, 57480, Note_on_c, 0, 73, 70
2, 57500, Note_off_c, 0, 75, 100
2, 57504, Note_on_c, 0, 82, 70
2, 57524, Note_off_c, 0, 73, 100
2, 57528, Note_on_c, 0, 80, 70
2, 57548, Note_off_c, 0, 82, 100
2, 57552, Note_on_c, 0, 79, 70
2, 57572, Note_off_c, 0, 80, 100
2, 57576, Note_on_c, 0, 85, 70
2, 57596, Note_off_c, 0, 79, 100
2, 57600, Note_on_c, 0, 84, 70
2, 57620, Note_off_c, 0, 85, 100
2, 57624, Note_on_c, 0, 82, 70
2, 57644, Note_off_c, 0, 84, 100
2, 57648, Note_on_c, 0, 89, 70
2, 57668, Note_off_c, 0, 82, 100
2, 58028, Note_off_c, 0, 89, 100
2, 58056, Note_on_c, 0, 89, 70
2, 58080, Note_on_c, 0, 87, 70
2, 58100, Note_off_c, 0, 89, 100
2, 58104, Note_on_c, 0, 85, 70
2, 58124, Note_off_c, 0, 87, 100
2, 58128, Note_on_c, 0, 84, 70
2, 58148, Note_off_c, 0, 85, 100
2, 58152, Note_on_c, 0, 82, 70
2, 58172, Note_off_c, 0, 84, 100
2, 58176, Note_on_c, 0, 80, 70
2, 58196, Note_off_c, 0, 82, 100
2, 58200, Note_on_c, 0, 79, 70
2, 58220, Note_off_c, 0, 80, 100
2, 58220, Note_off_c, 0, 79, 100
2, 58224, Note_on_c, 0, 82, 70
2, 58320, Note_on_c, 0, 80, 70
2, 58364, Note_off_c, 0, 82, 100
2, 58364, Note_off_c, 0, 80, 100
2, 58368, Note_on_c, 0, 79, 70
2, 58436, Note_off_c, 0, 79, 100
2, 58440, Note_on_c, 0, 80, 70
2, 58464, Note_on_c, 0, 82, 70
2, 58472, Note_off_c, 0, 80, 100
2, 58532, Note_off_c, 0, 82, 100
2, 58536, Note_on_c, 0, 80, 70
2, 58556, Note_off_c, 0, 80, 100
2, 58560, Note_on_c, 0, 68, 70
2, 58748, Note_off_c, 0, 68, 100
2, 58968, Note_on_c, 0, 70, 70
2, 58992, Note_on_c, 0, 72, 70
2, 59012, Note_off_c, 0, 70, 100
2, 59016, Note_on_c, 0, 73, 70
2, 59036, Note_off_c, 0, 72, 100
2, 59040, Note_on_c, 0, 72, 70
2, 59060, Note_off_c, 0, 73, 100
2, 59064, Note_on_c, 0, 70, 70
2, 59084, Note_off_c, 0, 72, 100
2, 59088, Note_on_c, 0, 77, 70
2, 59108, Note_off_c, 0, 70, 100
2, 59112, Note_on_c, 0, 75, 70
2, 59132, Note_off_c, 0, 77, 100
2, 59136, Note_on_c, 0, 73, 70
2, 59156, Note_off_c, 0, 75, 100
2, 59160, Note_on_c, 0, 82, 70
2, 59180, Note_off_c, 0, 73, 100
2, 59184, Note_on_c, 0, 80, 70
2, 59204, Note_off_c, 0, 82, 100
2, 59208, Note_on_c, 0, 79, 70
2, 59228, Note_off_c, 0, 80, 100
2, 59232, Note_on_c, 0, 85, 70
2, 59252, Note_off_c, 0, 79, 100
2, 59636, Note_off_c, 0, 85, 100
2, 59640, Note_on_c, 0, 84, 70
2, 59664, Note_on_c, 0, 85, 70
2, 59684, Note_off_c, 0, 84, 100
2, 59688, Note_on_c, 0, 87, 70
2, 59708, Note_off_c, 0, 85, 100
2, 59712, Note_on_c, 0, 85, 70
2, 59732, Note_off_c, 0, 87, 100
2, 59736, Note_on_c, 0, 84, 70
2, 59756, Note_off_c, 0, 85, 100
2, 59760, Note_on_c, 0, 82, 70
2, 59780, Note_off_c, 0, 84, 100
2, 59784, Note_on_c, 0, 80, 70
2, 59804, Note_off_c, 0, 82, 100
2, 59808, Note_on_c, 0, 79, 70
2, 59828, Note_off_c, 0, 80, 100
2, 59832, Note_on_c, 0, 77, 70
2, 59852, Note_off_c, 0, 79, 100
2, 59856, Note_on_c, 0, 75, 70
2, 59876, Note_off_c, 0, 77, 100
2, 59880, Note_on_c, 0, 73, 70
2, 59900, Note_off_c, 0, 75, 100
2, 59900, Note_off_c, 0, 73, 100
2, 59904, Note_on_c, 0, 72, 70
2, 60188, Note_off_c, 0, 72, 100
2, 60240, Note_on_c, 0, 72, 70
2, 60284, Note_off_c, 0, 72, 100
2, 60288, Note_on_c, 0, 73, 70
2, 60572, Note_off_c, 0, 73, 100
2, 60624, Note_on_c, 0, 73, 70
2, 60668, Note_off_c, 0, 73, 100
2, 60672, Note_on_c, 0, 75, 80
2, 60956, Note_off_c, 0, 75, 100
2, 61008, Note_on_c, 0, 75, 86
2, 61052, Note_off_c, 0, 75, 100
2, 61056, Note_on_c, 0, 76, 87
2, 61340, Note_off_c, 0, 76, 100
2, 61392, Note_on_c, 0, 76, 94
2, 61436, Note_off_c, 0, 76, 100
2, 61440, Note_on_c, 0, 77, 95
2, 61724, Note_off_c, 0, 77, 100
2, 61776, Note_on_c, 0, 77, 102
2, 61820, Note_off_c, 0, 77, 100
2, 61824, Note_on_c, 0, 79, 103
2, 62108, Note_off_c, 0, 79, 100
2, 62160, Note_on_c, 0, 79, 109
2, 62204, Note_off_c, 0, 79, 100
2, 62208, Note_on_c, 0, 80, 100
2, 62492, Note_off_c, 0, 80, 100
2, 62496, Note_on_c, 0, 82, 110
2, 62520, Note_on_c, 0, 80, 110
2, 62540, Note_off_c, 0, 82, 100
2, 62544, Note_on_c, 0, 79, 110
2, 62564, Note_off_c, 0, 80, 100
2, 62568, Note_on_c, 0, 80, 110
2, 62588, Note_off_c, 0, 79, 100
2, 62592, Note_on_c, 0, 82, 110
2, 62612, Note_off_c, 0, 80, 100
2, 62684, Note_off_c, 0, 82, 100
2, 62688, Note_on_c, 0, 80, 100
2, 62780, Note_off_c, 0, 80, 100
2, 62784, Note_on_c, 0, 79, 91
2, 62876, Note_off_c, 0, 79, 100
2, 62880, Note_on_c, 0, 77, 81
2, 62972, Note_off_c, 0, 77, 100
2, 62976, Note_on_c, 0, 75, 80
2, 63068, Note_off_c, 0, 75, 100
2, 63072, Note_on_c, 0, 74, 80
2, 63164, Note_off_c, 0, 74, 100
2, 63168, Note_on_c, 0, 77, 80
2, 63260, Note_off_c, 0, 77, 100
2, 63264, Note_on_c, 0, 75, 80
2, 63356, Note_off_c, 0, 75, 100
2, 63360, Note_on_c, 0, 73, 80
2, 63452, Note_off_c, 0, 73, 100
2, 63456, Note_on_c, 0, 72, 80
2, 63548, Note_off_c, 0, 72, 100
2, 63552, Note_on_c, 0, 70, 80
2, 63644, Note_off_c, 0, 70, 100
2, 63648, Note_on_c, 0, 75, 80
2, 63740, Note_off_c, 0, 75, 100
2, 63744, Note_on_c, 0, 71, 70
2, 63804, Note_off_c, 0, 71, 100
2, 63808, Note_on_c, 0, 72, 70
2, 63868, Note_off_c, 0, 72, 100
2, 63872, Note_on_c, 0, 60, 70
2, 63932, Note_off_c, 0, 60, 100
2, 64000, Note_on_c, 0, 72, 70
2, 64060, Note_off_c, 0, 72, 100
2, 64064, Note_on_c, 0, 60, 70
2, 64124, Note_off_c, 0, 60, 100
2, 64128, Note_on_c, 0, 72, 70
2, 64188, Note_off_c, 0, 72, 100
2, 64192, Note_on_c, 0, 73, 70
2, 64252, Note_off_c, 0, 73, 100
2, 64256, Note_on_c, 0, 61, 70
2, 64316, Note_off_c, 0, 61, 100
2, 64384, Note_on_c, 0, 73, 70
2, 64444, Note_off_c, 0, 73, 100
2, 64448, Note_on_c, 0, 61, 70
2, 64508, Note_off_c, 0, 61, 100
2, 64512, Note_on_c, 0, 74, 70
2, 64572, Note_off_c, 0, 74, 100
2, 64576, Note_on_c, 0, 75, 71
2, 64636, Note_off_c, 0, 75, 100
2, 64640, Note_on_c, 0, 63, 73
2, 64700, Note_off_c, 0, 63, 100
2, 64768, Note_on_c, 0, 75, 76
2, 64828, Note_off_c, 0, 75, 100
2, 64832, Note_on_c, 0, 63, 78
2, 64892, Note_off_c, 0, 63, 100
2, 64896, Note_on_c, 0, 75, 80
2, 64956, Note_off_c, 0, 75, 100
2, 64960, Note_on_c, 0, 76, 82
2, 65020, Note_off_c, 0, 76, 100
2, 65024, Note_on_c, 0, 64, 83
2, 65084, Note_off_c, 0, 64, 100
2, 65152, Note_on_c, 0, 76, 87
2, 65212, Note_off_c, 0, 76, 100
2, 65216, Note_on_c, 0, 64, 89
2, 65276, Note_off_c, 0, 64, 100
2, 65280, Note_on_c, 0, 76, 90
2, 65340, Note_off_c, 0, 76, 100
2, 65344, Note_on_c, 0, 77, 92
2, 65404, Note_off_c, 0, 77, 100
2, 65408, Note_on_c, 0, 65, 94
2, 65468, Note_off_c, 0, 65, 100
2, 65536, Note_on_c, 0, 77, 97
2, 65596, Note_off_c, 0, 77, 100
2, 65600, Note_on_c, 0, 65, 99
2, 65660, Note_off_c, 0, 65, 100
2, 65664, Note_on_c, 0, 78, 101
2, 65724, Note_off_c, 0, 78, 100
2, 65728, Note_on_c, 0, 79, 102
2, 65788, Note_off_c, 0, 79, 100
2, 65792, Note_on_c, 0, 67, 104
2, 65852, Note_off_c, 0, 67, 100
2, 65920, Note_on_c, 0, 79, 108
2, 65980, Note_off_c, 0, 79, 100
2, 65984, Note_on_c, 0, 67, 109
2, 66044, Note_off_c, 0, 67, 100
2, 66048, Note_on_c, 0, 79, 110
2, 66108, Note_off_c, 0, 79, 100
2, 66112, Note_on_c, 0, 80, 110
2, 66172, Note_off_c, 0, 80, 100
2, 66176, Note_on_c, 0, 68, 110
2, 66236, Note_off_c, 0, 68, 100
2, 66304, Note_on_c, 0, 80, 111
2, 66364, Note_off_c, 0, 80, 100
2, 66368, Note_on_c, 0, 68, 112
2, 66428, Note_off_c, 0, 68, 100
2, 66432, Note_on_c, 0, 83, 112
2, 66492, Note_off_c, 0, 83, 100
2, 66496, Note_on_c, 0, 71, 112
2, 66556, Note_off_c, 0, 71, 100
2, 66560, Note_on_c, 0, 83, 113
2, 66620, Note_off_c, 0, 83, 100
2, 66624, Note_on_c, 0, 68, 113
2, 66684, Note_off_c, 0, 68, 100
2, 66688, Note_on_c, 0, 80, 114
2, 66748, Note_off_c, 0, 80, 100
2, 66752, Note_on_c, 0, 68, 114
2, 66812, Note_off_c, 0, 68, 100
2, 66816, Note_on_c, 0, 75, 100
2, 67004, Note_off_c, 0, 75, 100
2, 67264, Note_on_c, 0, 86, 100
2, 67324, Note_off_c, 0, 86, 100
2, 67328, Note_on_c, 0, 89, 100
2, 67388, Note_off_c, 0, 89, 100
2, 67392, Note_on_c, 0, 87, 100
2, 67452, Note_off_c, 0, 87, 100
2, 67456, Note_on_c, 0, 85, 100
2, 67516, Note_off_c, 0, 85, 100
2, 67520, Note_on_c, 0, 84, 100
2, 67580, Note_off_c, 0, 84, 100
2, 67584, Note_on_c, 0, 80, 100
2, 67584, Note_on_c, 0, 82, 100
2, 67868, Note_off_c, 0, 82, 100
2, 67872, Note_on_c, 0, 82, 100
2, 67896, Note_on_c, 0, 84, 100
2, 67916, Note_off_c, 0, 82, 100
2, 67920, Note_on_c, 0, 81, 100
2, 67940, Note_off_c, 0, 84, 100
2, 67944, Note_on_c, 0, 82, 100
2, 67964, Note_off_c, 0, 80, 100
2, 67964, Note_off_c, 0, 81, 100
2, 67968, Note_on_c, 0, 79, 100
2, 67968, Note_on_c, 0, 87, 100
2, 67988, Note_off_c, 0, 82, 100
2, 68300, Note_off_c, 0, 87, 100
2, 68304, Note_on_c, 0, 87, 100
2, 68348, Note_off_c, 0, 79, 100
2, 68348, Note_off_c, 0, 87, 100
2, 68352, Note_on_c, 0, 72, 100
2, 68352, Note_on_c, 0, 80, 100
2, 68540, Note_off_c, 0, 72, 100
2, 68540, Note_off_c, 0, 80, 100
2, 68800, Note_on_c, 0, 74, 100
2, 68860, Note_off_c, 0, 74, 100
2, 68864, Note_on_c, 0, 77, 100
2, 68924, Note_off_c, 0, 77, 100
2, 68928, Note_on_c, 0, 75, 100
2, 68988, Note_off_c, 0, 75, 100
2, 68992, Note_on_c, 0, 73, 100
2, 69052, Note_off_c, 0, 73, 100
2, 69056, Note_on_c, 0, 72, 100
2, 69116, Note_off_c, 0, 72, 100
2, 69120, Note_on_c, 0, 68, 100
2, 69120, Note_on_c, 0, 70, 100
2, 69404, Note_off_c, 0, 70, 100
2, 69408, Note_on_c, 0, 70, 100
2, 69432, Note_on_c, 0, 72, 100
2, 69452, Note_off_c, 0, 70, 100
2, 69456, Note_on_c, 0, 69, 100
2, 69476, Note_off_c, 0, 72, 100
2, 69480, Note_on_c, 0, 70, 100
2, 69500, Note_off_c, 0, 68, 100
2, 69500, Note_off_c, 0, 69, 100
2, 69504, Note_on_c, 0, 67, 100
2, 69504, Note_on_c, 0, 75, 100
2, 69524, Note_off_c, 0, 70, 100
2, 69836, Note_off_c, 0, 75, 100
2, 69840, Note_on_c, 0, 75, 100
2, 69884, Note_off_c, 0, 67, 100
2, 69884, Note_off_c, 0, 75, 100
2, 69888, Note_on_c, 0, 63, 100
2, 69888, Note_on_c, 0, 60, 100
2, 69888, Note_on_c, 0, 68, 100
2, 69980, Note_off_c, 0, 63, 100
2, 69980, Note_off_c, 0, 60, 100
2, 69984, Note_on_c, 0, 63, 80
2, 69984, Note_on_c, 0, 60, 80
2, 70172, Note_off_c, 0, 63, 100
2, 70172, Note_off_c, 0, 60, 100
2, 70176, Note_on_c, 0, 63, 80
2, 70176, Note_on_c, 0, 60, 80
2, 70268, Note_off_c, 0, 68, 100
2, 70268, Note_off_c, 0, 63, 100
2, 70268, Note_off_c, 0, 60, 100
2, 70272, Note_on_c, 0, 63, 80
2, 70272, Note_on_c, 0, 61, 80
2, 70272, Note_on_c, 0, 72, 80
2, 70364, Note_off_c, 0, 63, 100
2, 70364, Note_off_c, 0, 61, 100
2, 70368, Note_on_c, 0, 63, 80
2, 70368, Note_on_c, 0, 61, 80
2, 70556, Note_off_c, 0, 72, 100
2, 70556, Note_off_c, 0, 63, 100
2, 70556, Note_off_c, 0, 61, 100
2, 70560, Note_on_c, 0, 63, 80
2, 70560, Note_on_c, 0, 61, 80
2, 70560, Note_on_c, 0, 70, 80
2, 70652, Note_off_c, 0, 63, 100
2, 70652, Note_off_c, 0, 61, 100
2, 70652, Note_off_c, 0, 70, 100
2, 70656, Note_on_c, 0, 63, 80
2, 70656, Note_on_c, 0, 60, 80
2, 70656, Note_on_c, 0, 68, 80
2, 70748, Note_off_c, 0, 63, 100
2, 70748, Note_off_c, 0, 60, 100
2, 70752, Note_on_c, 0, 63, 80
2, 70752, Note_on_c, 0, 60, 80
2, 70940, Note_off_c, 0, 63, 100
2, 70940, Note_off_c, 0, 60, 100
2, 70944, Note_on_c, 0, 63, 80
2, 70944, Note_on_c, 0, 60, 80
2, 71132, Note_off_c, 0, 63, 100
2, 71132, Note_off_c, 0, 60, 100
2, 71136, Note_on_c, 0, 63, 80
2, 71136, Note_on_c, 0, 60, 80
2, 71324, Note_off_c, 0, 68, 100
2, 71324, Note_off_c, 0, 63, 100
2, 71324, Note_off_c, 0, 60, 100
2, 71328, Note_on_c, 0, 63, 80
2, 71328, Note_on_c, 0, 60, 80
2, 71328, Note_on_c, 0, 69, 80
2, 71420, Note_off_c, 0, 63, 100
2, 71420, Note_off_c, 0, 60, 100
2, 71420, Note_off_c, 0, 69, 100
2, 71424, Note_on_c, 0, 70, 80
2, 71424, Note_on_c, 0, 63, 80
2, 71424, Note_on_c, 0, 61, 80
2, 71516, Note_off_c, 0, 63, 100
2, 71516, Note_off_c, 0, 61, 100
2, 71520, Note_on_c, 0, 63, 80
2, 71612, Note_off_c, 0, 70, 100
2, 71616, Note_on_c, 0, 72, 80
2, 71664, Note_on_c, 0, 70, 80
2, 71708, Note_off_c, 0, 63, 100
2, 71708, Note_off_c, 0, 72, 100
2, 71712, Note_on_c, 0, 69, 80
2, 71712, Note_on_c, 0, 63, 80
2, 71756, Note_off_c, 0, 70, 100
2, 71760, Note_on_c, 0, 70, 80
2, 71804, Note_off_c, 0, 69, 100
2, 71808, Note_on_c, 0, 73, 80
2, 71808, Note_on_c, 0, 68, 80
2, 71852, Note_off_c, 0, 70, 100
2, 71900, Note_off_c, 0, 63, 100
2, 71904, Note_on_c, 0, 63, 80
2, 72092, Note_off_c, 0, 73, 100
2, 72092, Note_off_c, 0, 68, 100
2, 72092, Note_off_c, 0, 63, 100
2, 72096, Note_on_c, 0, 72, 80
2, 72096, Note_on_c, 0, 68, 80
2, 72096, Note_on_c, 0, 63, 80
2, 72188, Note_off_c, 0, 72, 100
2, 72188, Note_off_c, 0, 68, 100
2, 72192, Note_on_c, 0, 70, 80
2, 72192, Note_on_c, 0, 67, 80
2, 72284, Note_off_c, 0, 63, 100
2, 72288, Note_on_c, 0, 63, 80
2, 72476, Note_off_c, 0, 63, 100
2, 72480, Note_on_c, 0, 63, 80
2, 72668, Note_off_c, 0, 63, 100
2, 72672, Note_on_c, 0, 63, 80
2, 72860, Note_off_c, 0, 63, 100
2, 72864, Note_on_c, 0, 63, 80
2, 72956, Note_off_c, 0, 70, 100
2, 72956, Note_off_c, 0, 67, 100
2, 72960, Note_on_c, 0, 75, 80
2, 73052, Note_off_c, 0, 63, 100
2, 73056, Note_on_c, 0, 63, 80
2, 73244, Note_off_c, 0, 63, 100
2, 73248, Note_on_c, 0, 63, 80
2, 73340, Note_off_c, 0, 75, 100
2, 73344, Note_on_c, 0, 73, 80
2, 73436, Note_off_c, 0, 63, 100
2, 73440, Note_on_c, 0, 63, 80
2, 73628, Note_off_c, 0, 63, 100
2, 73632, Note_on_c, 0, 63, 80
2, 73724, Note_off_c, 0, 73, 100
2, 73728, Note_on_c, 0, 72, 80
2, 73820, Note_off_c, 0, 63, 100
2, 73824, Note_on_c, 0, 63, 80
2, 74012, Note_off_c, 0, 63, 100
2, 74016, Note_on_c, 0, 64, 80
2, 74108, Note_off_c, 0, 72, 100
2, 74112, Note_on_c, 0, 70, 80
2, 74204, Note_off_c, 0, 64, 100
2, 74208, Note_on_c, 0, 65, 80
2, 74300, Note_off_c, 0, 70, 100
2, 74304, Note_on_c, 0, 73, 80
2, 74396, Note_off_c, 0, 65, 100
2, 74400, Note_on_c, 0, 65, 80
2, 74444, Note_off_c, 0, 73, 100
2, 74448, Note_on_c, 0, 70, 80
2, 74492, Note_off_c, 0, 70, 100
2, 74496, Note_on_c, 0, 68, 80
2, 74588, Note_off_c, 0, 65, 100
2, 74592, Note_on_c, 0, 63, 80
2, 74780, Note_off_c, 0, 63, 100
2, 74784, Note_on_c, 0, 63, 80
2, 74876, Note_off_c, 0, 68, 100
2, 74880, Note_on_c, 0, 69, 80
2, 74972, Note_off_c, 0, 63, 100
2, 74976, Note_on_c, 0, 63, 80
2, 75068, Note_off_c, 0, 69, 100
2, 75072, Note_on_c, 0, 70, 80
2, 75164, Note_off_c, 0, 63, 100
2, 75168, Note_on_c, 0, 63, 80
2, 75260, Note_off_c, 0, 70, 100
2, 75264, Note_on_c, 0, 71, 80
2, 75356, Note_off_c, 0, 63, 100
2, 75360, Note_on_c, 0, 63, 80
2, 75452, Note_off_c, 0, 71, 100
2, 75456, Note_on_c, 0, 72, 80
2, 75456, Note_on_c, 0, 60, 80
2, 75548, Note_off_c, 0, 63, 100
2, 75552, Note_on_c, 0, 63, 80
2, 75644, Note_off_c, 0, 72, 100
2, 75644, Note_off_c, 0, 60, 100
2, 75648, Note_on_c, 0, 73, 80
2, 75648, Note_on_c, 0, 61, 80
2, 75740, Note_off_c, 0, 63, 100
2, 75744, Note_on_c, 0, 63, 80
2, 75836, Note_off_c, 0, 73, 100
2, 75836, Note_off_c, 0, 61, 100
2, 75840, Note_on_c, 0, 74, 80
2, 75840, Note_on_c, 0, 62, 80
2, 75932, Note_off_c, 0, 63, 100
2, 75936, Note_on_c, 0, 63, 80
2, 76028, Note_off_c, 0, 74, 100
2, 76028, Note_off_c, 0, 62, 100
2, 76028, Note_off_c, 0, 63, 100
2, 76032, Note_on_c, 0, 75, 80
2, 76032, Note_on_c, 0, 63, 80
2, 76220, Note_off_c, 0, 63, 100
2, 76224, Note_on_c, 0, 63, 80
2, 76412, Note_off_c, 0, 75, 100
2, 76412, Note_off_c, 0, 63, 100
2, 76416, Note_on_c, 0, 73, 80
2, 76416, Note_on_c, 0, 63, 80
2, 76416, Note_on_c, 0, 61, 80
2, 76604, Note_off_c, 0, 63, 100
2, 76604, Note_off_c, 0, 61, 100
2, 76608, Note_on_c, 0, 63, 80
2, 76608, Note_on_c, 0, 61, 80
2, 76796, Note_off_c, 0, 73, 100
2, 76796, Note_off_c, 0, 63, 100
2, 76796, Note_off_c, 0, 61, 100
2, 76800, Note_on_c, 0, 72, 80
2, 76800, Note_on_c, 0, 63, 80
2, 76800, Note_on_c, 0, 60, 80
2, 76988, Note_off_c, 0, 63, 100
2, 76988, Note_off_c, 0, 60, 100
2, 76992, Note_on_c, 0, 64, 80
2, 76992, Note_on_c, 0, 60, 80
2, 77180, Note_off_c, 0, 72, 100
2, 77180, Note_off_c, 0, 64, 100
2, 77180, Note_off_c, 0, 60, 100
2, 77184, Note_on_c, 0, 65, 80
2, 77184, Note_on_c, 0, 70, 80
2, 77276, Note_off_c, 0, 70, 100
2, 77280, Note_on_c, 0, 72, 80
2, 77372, Note_off_c, 0, 72, 100
2, 77376, Note_on_c, 0, 73, 80
2, 77468, Note_off_c, 0, 65, 100
2, 77472, Note_on_c, 0, 65, 80
2, 77516, Note_off_c, 0, 73, 100
2, 77520, Note_on_c, 0, 70, 80
2, 77564, Note_off_c, 0, 65, 100
2, 77564, Note_off_c, 0, 70, 100
2, 77568, Note_on_c, 0, 63, 80
2, 77568, Note_on_c, 0, 68, 80
2, 77664, Note_on_c, 0, 75, 80
2, 77756, Note_off_c, 0, 68, 100
2, 77760, Note_on_c, 0, 69, 80
2, 77852, Note_off_c, 0, 75, 100
2, 77856, Note_on_c, 0, 75, 80
2, 77948, Note_off_c, 0, 69, 100
2, 77952, Note_on_c, 0, 70, 80
2, 78044, Note_off_c, 0, 75, 100
2, 78048, Note_on_c, 0, 75, 80
2, 78140, Note_off_c, 0, 63, 100
2, 78140, Note_off_c, 0, 70, 100
2, 78144, Note_on_c, 0, 67, 80
2, 78144, Note_on_c, 0, 63, 80
2, 78236, Note_off_c, 0, 75, 100
2, 78240, Note_on_c, 0, 75, 80
2, 78332, Note_off_c, 0, 67, 100
2, 78332, Note_off_c, 0, 63, 100
2, 78332, Note_off_c, 0, 75, 100
2, 78336, Note_on_c, 0, 63, 80
2, 78336, Note_on_c, 0, 60, 80
2, 78336, Note_on_c, 0, 68, 80
2, 78428, Note_off_c, 0, 63, 100
2, 78428, Note_off_c, 0, 60, 100
2, 78432, Note_on_c, 0, 63, 70
2, 78524, Note_off_c, 0, 68, 100
2, 78620, Note_off_c, 0, 63, 100
2, 78624, Note_on_c, 0, 63, 70
2, 78812, Note_off_c, 0, 63, 100
2, 78816, Note_on_c, 0, 63, 70
2, 79004, Note_off_c, 0, 63, 100
2, 79008, Note_on_c, 0, 63, 70
2, 79104, Note_on_c, 0, 73, 70
2, 79104, Note_on_c, 0, 70, 70
2, 79196, Note_off_c, 0, 63, 100
2, 79200, Note_on_c, 0, 63, 70
2, 79388, Note_off_c, 0, 63, 100
2, 79392, Note_on_c, 0, 63, 70
2, 79484, Note_off_c, 0, 73, 100
2, 79484, Note_off_c, 0, 70, 100
2, 79488, Note_on_c, 0, 73, 70
2, 79488, Note_on_c, 0, 70, 70
2, 79580, Note_off_c, 0, 63, 100
2, 79584, Note_on_c, 0, 63, 70
2, 79772, Note_off_c, 0, 63, 100
2, 79776, Note_on_c, 0, 63, 70
2, 79868, Note_off_c, 0, 73, 100
2, 79868, Note_off_c, 0, 70, 100
2, 79872, Note_on_c, 0, 72, 70
2, 79872, Note_on_c, 0, 68, 70
2, 79964, Note_off_c, 0, 63, 100
2, 79968, Note_on_c, 0, 63, 70
2, 80060, Note_off_c, 0, 72, 100
2, 80060, Note_off_c, 0, 68, 100
2, 80156, Note_off_c, 0, 63, 100
2, 80160, Note_on_c, 0, 63, 70
2, 80348, Note_off_c, 0, 63, 100
2, 80352, Note_on_c, 0, 63, 70
2, 80540, Note_off_c, 0, 63, 100
2, 80544, Note_on_c, 0, 63, 70
2, 80640, Note_on_c, 0, 70, 70
2, 80640, Note_on_c, 0, 61, 70
2, 80732, Note_off_c, 0, 63, 100
2, 80736, Note_on_c, 0, 63, 70
2, 80924, Note_off_c, 0, 63, 100
2, 80928, Note_on_c, 0, 63, 70
2, 81020, Note_off_c, 0, 70, 100
2, 81020, Note_off_c, 0, 61, 100
2, 81024, Note_on_c, 0, 70, 70
2, 81024, Note_on_c, 0, 61, 70
2, 81116, Note_off_c, 0, 63, 100
2, 81120, Note_on_c, 0, 63, 70
2, 81308, Note_off_c, 0, 63, 100
2, 81312, Note_on_c, 0, 63, 70
2, 81404, Note_off_c, 0, 70, 100
2, 81404, Note_off_c, 0, 61, 100
2, 81404, Note_off_c, 0, 63, 100
2, 81408, Note_on_c, 0, 68, 70
2, 81408, Note_on_c, 0, 60, 70
2, 81500, Note_off_c, 0, 68, 100
2, 81500, Note_off_c, 0, 60, 100
2, 81504, Note_on_c, 0, 63, 70
2, 81504, Note_on_c, 0, 51, 70
2, 81692, Note_off_c, 0, 63, 100
2, 81692, Note_off_c, 0, 51, 100
2, 81696, Note_on_c, 0, 63, 70
2, 81696, Note_on_c, 0, 51, 70
2, 81884, Note_off_c, 0, 63, 100
2, 81884, Note_off_c, 0, 51, 100
2, 81888, Note_on_c, 0, 63, 70
2, 81888, Note_on_c, 0, 51, 70
2, 81984, Note_on_c, 0, 60, 70
2, 81984, Note_on_c, 0, 56, 70
2, 82076, Note_off_c, 0, 63, 100
2, 82076, Note_off_c, 0, 51, 100
2, 82080, Note_on_c, 0, 63, 70
2, 82080, Note_on_c, 0, 51, 70
2, 82172, Note_off_c, 0, 60, 100
2, 82172, Note_off_c, 0, 56, 100
2, 82176, Note_on_c, 0, 58, 70
2, 82176, Note_on_c, 0, 61, 70
2, 82268, Note_off_c, 0, 51, 100
2, 82268, Note_off_c, 0, 63, 100
2, 82272, Note_on_c, 0, 63, 70
2, 82272, Note_on_c, 0, 51, 70
2, 82460, Note_off_c, 0, 63, 100
2, 82460, Note_off_c, 0, 51, 100
2, 82464, Note_on_c, 0, 63, 70
2, 82464, Note_on_c, 0, 51, 70
2, 82556, Note_off_c, 0, 58, 100
2, 82556, Note_off_c, 0, 61, 100
2, 82560, Note_on_c, 0, 58, 70
2, 82560, Note_on_c, 0, 61, 70
2, 82652, Note_off_c, 0, 63, 100
2, 82652, Note_off_c, 0, 51, 100
2, 82656, Note_on_c, 0, 63, 70
2, 82656, Note_on_c, 0, 51, 70
2, 82844, Note_off_c, 0, 63, 100
2, 82844, Note_off_c, 0, 51, 100
2, 82848, Note_on_c, 0, 63, 70
2, 82848, Note_on_c, 0, 51, 70
2, 82940, Note_off_c, 0, 58, 100
2, 82940, Note_off_c, 0, 61, 100
2, 82944, Control_c, 0, 64, 127
2, 82944, Note_on_c, 0, 60, 70
2, 82944, Note_on_c, 0, 56, 70
2, 83036, Note_off_c, 0, 51, 100
2, 83036, Note_off_c, 0, 63, 100
2, 83036, Note_off_c, 0, 60, 100
2, 83036, Note_off_c, 0, 56, 100
2, 83040, Note_on_c, 0, 63, 70
2, 83040, Note_on_c, 0, 60, 70
2, 83040, Note_on_c, 0, 56, 70
2, 83040, Note_on_c, 0, 51, 70
2, 83228, Note_off_c, 0, 63, 100
2, 83228, Note_off_c, 0, 60, 100
2, 83228, Note_off_c, 0, 56, 100
2, 83228, Note_off_c, 0, 51, 100
2, 83232, Note_on_c, 0, 63, 70
2, 83232, Note_on_c, 0, 60, 70
2, 83232, Note_on_c, 0, 56, 70
2, 83232, Note_on_c, 0, 51, 70
2, 83420, Note_off_c, 0, 63, 100
2, 83420, Note_off_c, 0, 60, 100
2, 83420, Note_off_c, 0, 56, 100
2, 83420, Note_off_c, 0, 51, 100
2, 83424, Note_on_c, 0, 63, 69
2, 83424, Note_on_c, 0, 60, 69
2, 83424, Note_on_c, 0, 56, 69
2, 83424, Note_on_c, 0, 51, 69
2, 83612, Note_off_c, 0, 63, 100
2, 83612, Note_off_c, 0, 60, 100
2, 83612, Note_off_c, 0, 56, 100
2, 83612, Note_off_c, 0, 51, 100
2, 83616, Note_on_c, 0, 63, 68
2, 83616, Note_on_c, 0, 60, 68
2, 83616, Note_on_c, 0, 56, 68
2, 83616, Note_on_c, 0, 51, 68
2, 83804, Note_off_c, 0, 51, 100
2, 83804, Note_off_c, 0, 56, 100
2, 83804, Note_off_c, 0, 60, 100
2, 83804, Note_off_c, 0, 63, 100
2, 83808, Note_on_c, 0, 60, 67
2, 83808, Note_on_c, 0, 56, 67
2, 83808, Note_on_c, 0, 51, 67
2, 83996, Note_off_c, 0, 60, 100
2, 83996, Note_off_c, 0, 56, 100
2, 83996, Note_off_c, 0, 51, 100
2, 84000, Note_on_c, 0, 60, 66
2, 84000, Note_on_c, 0, 56, 66
2, 84000, Note_on_c, 0, 51, 66
2, 84188, Note_off_c, 0, 60, 100
2, 84188, Note_off_c, 0, 56, 100
2, 84188, Note_off_c, 0, 51, 100
2, 84192, Note_on_c, 0, 60, 65
2, 84192, Note_on_c, 0, 56, 65
2, 84192, Note_on_c, 0, 51, 65
2, 84380, Note_off_c, 0, 60, 100
2, 84380, Note_off_c, 0, 56, 100
2, 84380, Note_off_c, 0, 51, 100
2, 84384, Note_on_c, 0, 60, 64
2, 84384, Note_on_c, 0, 56, 64
2, 84384, Note_on_c, 0, 51, 64
2, 84572, Note_off_c, 0, 51, 100
2, 84572, Note_off_c, 0, 56, 100
2, 84572, Note_off_c, 0, 60, 100
2, 84576, Note_on_c, 0, 56, 64
2, 84576, Note_on_c, 0, 51, 64
2, 84576, Note_on_c, 0, 48, 64
2, 84764, Note_off_c, 0, 56, 100
2, 84764, Note_off_c, 0, 51, 100
2, 84764, Note_off_c, 0, 48, 100
2, 84768, Note_on_c, 0, 56, 63
2, 84768, Note_on_c, 0, 51, 63
2, 84768, Note_on_c, 0, 48, 63
2, 84956, Note_off_c, 0, 56, 100
2, 84956, Note_off_c, 0, 51, 100
2, 84956, Note_off_c, 0, 48, 100
2, 84960, Note_on_c, 0, 56, 62
2, 84960, Note_on_c, 0, 51, 62
2, 84960, Note_on_c, 0, 48, 62
2, 85148, Note_off_c, 0, 56, 100
2, 85148, Note_off_c, 0, 51, 100
2, 85148, Note_off_c, 0, 48, 100
2, 85152, Note_on_c, 0, 56, 61
2, 85152, Note_on_c, 0, 51, 61
2, 85152, Note_on_c, 0, 48, 61
2, 85436, Note_off_c, 0, 48, 100
2, 85436, Note_off_c, 0, 51, 100
2, 85436, Note_off_c, 0, 56, 100
2, 85632, Note_on_c, 0, 51, 60
2, 85632, Note_on_c, 0, 48, 60
2, 86012, Note_off_c, 0, 51, 100
2, 86012, Note_off_c, 0, 48, 100
2, 86016, Note_on_c, 0, 48, 60
2, 86016, Note_on_c, 0, 44, 60
2, 86776, Control_c, 0, 64, 0
2, 86780, Note_off_c, 0, 48, 100
2, 86780, Note_off_c, 0, 44, 100
2, 86976, Control_c, 0, 7, 0
2, 87168, Note_on_c, 0, 56, 1
2, 87356, Note_off_c, 0, 56, 100
2, 87356, End_track
3, 0, Start_track
3, 0, Title_t, "Left"
3, 0, Control_c, 1, 0, 0
3, 0, Program_c, 1, 0
3, 0, Control_c, 1, 7, 100
3, 0, Control_c, 1, 10, 45
3, 0, Control_c, 1, 91, 127
3, 0, Key_signature, -4, "major"
3, 0, Note_on_c, 1, 56, 80
3, 0, Note_on_c, 1, 51, 80
3, 0, Note_on_c, 1, 44, 80
3, 380, Note_off_c, 1, 56, 100
3, 380, Note_off_c, 1, 51, 100
3, 380, Note_off_c, 1, 44, 100
3, 384, Note_on_c, 1, 55, 80
3, 384, Note_on_c, 1, 51, 80
3, 384, Note_on_c, 1, 43, 80
3, 764, Note_off_c, 1, 55, 100
3, 764, Note_off_c, 1, 51, 100
3, 764, Note_off_c, 1, 43, 100
3, 768, Note_on_c, 1, 56, 80
3, 768, Note_on_c, 1, 51, 80
3, 768, Note_on_c, 1, 44, 80
3, 1340, Note_off_c, 1, 56, 100
3, 1340, Note_off_c, 1, 51, 100
3, 1340, Note_off_c, 1, 44, 100
3, 1536, Note_on_c, 1, 55, 80
3, 1536, Note_on_c, 1, 61, 80
3, 1724, Note_off_c, 1, 61, 100
3, 1728, Note_on_c, 1, 58, 80
3, 1916, Note_off_c, 1, 55, 100
3, 1916, Note_off_c, 1, 58, 100
3, 1920, Note_on_c, 1, 56, 80
3, 2112, Note_on_c, 1, 60, 80
3, 2300, Note_off_c, 1, 56, 100
3, 2300, Note_off_c, 1, 60, 100
3, 2304, Note_on_c, 1, 51, 80
3, 2304, Note_on_c, 1, 63, 80
3, 2876, Note_off_c, 1, 51, 100
3, 2876, Note_off_c, 1, 63, 100
3, 3072, Note_on_c, 1, 56, 80
3, 3452, Note_off_c, 1, 56, 100
3, 3456, Note_on_c, 1, 60, 84
3, 3456, Note_on_c, 1, 56, 84
3, 3456, Note_on_c, 1, 48, 84
3, 3836, Note_off_c, 1, 60, 100
3, 3836, Note_off_c, 1, 56, 100
3, 3836, Note_off_c, 1, 48, 100
3, 3840, Note_on_c, 1, 61, 89
3, 3840, Note_on_c, 1, 56, 89
3, 3840, Note_on_c, 1, 49, 89
3, 4220, Note_off_c, 1, 61, 100
3, 4220, Note_off_c, 1, 56, 100
3, 4220, Note_off_c, 1, 49, 100
3, 4224, Note_on_c, 1, 53, 94
3, 4248, Note_on_c, 1, 56, 95
3, 4272, Note_on_c, 1, 61, 95
3, 4296, Note_on_c, 1, 65, 95
3, 4988, Note_off_c, 1, 53, 100
3, 4988, Note_off_c, 1, 56, 100
3, 4988, Note_off_c, 1, 61, 100
3, 4988, Note_off_c, 1, 65, 100
3, 4992, Note_on_c, 1, 63, 80
3, 4992, Note_on_c, 1, 55, 80
3, 5180, Note_off_c, 1, 63, 100
3, 5180, Note_off_c, 1, 55, 100
3, 5184, Note_on_c, 1, 63, 80
3, 5184, Note_on_c, 1, 56, 80
3, 5372, Note_off_c, 1, 63, 100
3, 5372, Note_off_c, 1, 56, 100
3, 5376, Note_on_c, 1, 60, 80
3, 5376, Note_on_c, 1, 51, 80
3, 5660, Note_off_c, 1, 60, 100
3, 5664, Note_on_c, 1, 56, 80
3, 5756, Note_off_c, 1, 51, 100
3, 5756, Note_off_c, 1, 56, 100
3, 5760, Note_on_c, 1, 55, 80
3, 5760, Note_on_c, 1, 51, 80
3, 5948, Note_off_c, 1, 55, 100
3, 5948, Note_off_c, 1, 51, 100
3, 6144, Note_on_c, 1, 44, 80
3, 6240, Note_on_c, 1, 51, 80
3, 6332, Note_off_c, 1, 51, 100
3, 6336, Note_on_c, 1, 51, 80
3, 6428, Note_off_c, 1, 51, 100
3, 6432, Note_on_c, 1, 51, 80
3, 6524, Note_off_c, 1, 44, 100
3, 6524, Note_off_c, 1, 51, 100
3, 6528, Note_on_c, 1, 43, 80
3, 6624, Note_on_c, 1, 51, 80
3, 6716, Note_off_c, 1, 51, 100
3, 6720, Note_on_c, 1, 51, 80
3, 6812, Note_off_c, 1, 51, 100
3, 6816, Note_on_c, 1, 51, 80
3, 6908, Note_off_c, 1, 43, 100
3, 6908, Note_off_c, 1, 51, 100
3, 6912, Note_on_c, 1, 44, 80
3, 7004, Note_off_c, 1, 44, 100
3, 7008, Note_on_c, 1, 51, 80
3, 7100, Note_off_c, 1, 51, 100
3, 7104, Note_on_c, 1, 48, 80
3, 7196, Note_off_c, 1, 48, 100
3, 7200, Note_on_c, 1, 56, 80
3, 7292, Note_off_c, 1, 56, 100
3, 7296, Note_on_c, 1, 51, 80
3, 7388, Note_off_c, 1, 51, 100
3, 7392, Note_on_c, 1, 60, 80
3, 7484, Note_off_c, 1, 60, 100
3, 7488, Note_on_c, 1, 56, 80
3, 7580, Note_off_c, 1, 56, 100
3, 7584, Note_on_c, 1, 63, 80
3, 7676, Note_off_c, 1, 63, 100
3, 7680, Note_on_c, 1, 55, 80
3, 7776, Note_on_c, 1, 63, 80
3, 7868, Note_off_c, 1, 63, 100
3, 7872, Note_on_c, 1, 63, 80
3, 7964, Note_off_c, 1, 63, 100
3, 7968, Note_on_c, 1, 63, 80
3, 8060, Note_off_c, 1, 55, 100
3, 8060, Note_off_c, 1, 63, 100
3, 8064, Note_on_c, 1, 56, 80
3, 8160, Note_on_c, 1, 63, 80
3, 8252, Note_off_c, 1, 63, 100
3, 8256, Note_on_c, 1, 63, 80
3, 8348, Note_off_c, 1, 63, 100
3, 8352, Note_on_c, 1, 63, 80
3, 8444, Note_off_c, 1, 56, 100
3, 8444, Note_off_c, 1, 63, 100
3, 8448, Note_on_c, 1, 51, 80
3, 8540, Note_off_c, 1, 51, 100
3, 8544, Note_on_c, 1, 63, 80
3, 8636, Note_off_c, 1, 63, 100
3, 8640, Note_on_c, 1, 62, 80
3, 8732, Note_off_c, 1, 62, 100
3, 8736, Note_on_c, 1, 63, 80
3, 8828, Note_off_c, 1, 63, 100
3, 8832, Note_on_c, 1, 62, 80
3, 8924, Note_off_c, 1, 62, 100
3, 8928, Note_on_c, 1, 63, 80
3, 9020, Note_off_c, 1, 63, 100
3, 9024, Note_on_c, 1, 65, 80
3, 9116, Note_off_c, 1, 65, 100
3, 9120, Note_on_c, 1, 61, 82
3, 9212, Note_off_c, 1, 61, 100
3, 9312, Note_on_c, 1, 56, 82
3, 9404, Note_off_c, 1, 56, 100
3, 9408, Note_on_c, 1, 60, 85
3, 9500, Note_off_c, 1, 60, 100
3, 9504, Note_on_c, 1, 63, 87
3, 9596, Note_off_c, 1, 63, 100
3, 9696, Note_on_c, 1, 48, 93
3, 9788, Note_off_c, 1, 48, 100
3, 9792, Note_on_c, 1, 51, 95
3, 9884, Note_off_c, 1, 51, 100
3, 9888, Note_on_c, 1, 56, 98
3, 9980, Note_off_c, 1, 56, 100
3, 10080, Note_on_c, 1, 49, 98
3, 10080, Note_on_c, 1, 53, 98
3, 10172, Note_off_c, 1, 53, 100
3, 10176, Note_on_c, 1, 55, 95
3, 10268, Note_off_c, 1, 55, 100
3, 10272, Note_on_c, 1, 56, 92
3, 10364, Note_off_c, 1, 56, 100
3, 10368, Note_on_c, 1, 57, 89
3, 10460, Note_off_c, 1, 57, 100
3, 10464, Note_on_c, 1, 58, 86
3, 10556, Note_off_c, 1, 58, 100
3, 10560, Note_on_c, 1, 60, 83
3, 10652, Note_off_c, 1, 60, 100
3, 10656, Note_on_c, 1, 61, 81
3, 10748, Note_off_c, 1, 49, 100
3, 10748, Note_off_c, 1, 61, 100
3, 10752, Note_on_c, 1, 51, 80
3, 10752, Note_on_c, 1, 63, 80
3, 10844, Note_off_c, 1, 63, 100
3, 10848, Note_on_c, 1, 62, 80
3, 10940, Note_off_c, 1, 62, 100
3, 10944, Note_on_c, 1, 61, 80
3, 11036, Note_off_c, 1, 61, 100
3, 11040, Note_on_c, 1, 60, 80
3, 11132, Note_off_c, 1, 51, 100
3, 11132, Note_off_c, 1, 60, 100
3, 11136, Note_on_c, 1, 51, 80
3, 11136, Note_on_c, 1, 58, 80
3, 11228, Note_off_c, 1, 58, 100
3, 11232, Note_on_c, 1, 60, 80
3, 11324, Note_off_c, 1, 60, 100
3, 11328, Note_on_c, 1, 61, 80
3, 11420, Note_off_c, 1, 61, 100
3, 11424, Note_on_c, 1, 55, 80
3, 11516, Note_off_c, 1, 51, 100
3, 11516, Note_off_c, 1, 55, 100
3, 11520, Note_on_c, 1, 55, 80
3, 11520, Note_on_c, 1, 44, 80
3, 11900, Note_off_c, 1, 55, 100
3, 11904, Note_on_c, 1, 56, 80
3, 12092, Note_off_c, 1, 44, 100
3, 12092, Note_off_c, 1, 56, 100
3, 12288, Note_on_c, 1, 60, 110
3, 12288, Note_on_c, 1, 63, 110
3, 12288, Note_on_c, 1, 65, 110
3, 12288, Note_on_c, 1, 57, 110
3, 12668, Note_off_c, 1, 60, 100
3, 12668, Note_off_c, 1, 63, 100
3, 12668, Note_off_c, 1, 65, 100
3, 12668, Note_off_c, 1, 57, 100
3, 13008, Note_on_c, 1, 53, 80
3, 13008, Note_on_c, 1, 45, 80
3, 13052, Note_off_c, 1, 53, 100
3, 13052, Note_off_c, 1, 45, 100
3, 13056, Note_on_c, 1, 53, 80
3, 13056, Note_on_c, 1, 46, 80
3, 13628, Note_off_c, 1, 53, 100
3, 13628, Note_off_c, 1, 46, 100
3, 13824, Note_on_c, 1, 63, 110
3, 13824, Note_on_c, 1, 61, 110
3, 13824, Note_on_c, 1, 58, 110
3, 13824, Note_on_c, 1, 55, 110
3, 14204, Note_off_c, 1, 63, 100
3, 14204, Note_off_c, 1, 61, 100
3, 14204, Note_off_c, 1, 58, 100
3, 14204, Note_off_c, 1, 55, 100
3, 14544, Note_on_c, 1, 51, 80
3, 14544, Note_on_c, 1, 43, 80
3, 14588, Note_off_c, 1, 51, 100
3, 14588, Note_off_c, 1, 43, 100
3, 14592, Note_on_c, 1, 51, 80
3, 14592, Note_on_c, 1, 44, 80
3, 15164, Note_off_c, 1, 51, 100
3, 15164, Note_off_c, 1, 44, 100
3, 15360, Note_on_c, 1, 47, 120
3, 15384, Note_on_c, 1, 59, 120
3, 15404, Note_off_c, 1, 47, 100
3, 15596, Note_off_c, 1, 59, 100
3, 15600, Note_on_c, 1, 59, 120
3, 15624, Note_on_c, 1, 56, 120
3, 15644, Note_off_c, 1, 59, 100
3, 15648, Note_on_c, 1, 51, 120
3, 15668, Note_off_c, 1, 56, 100
3, 15672, Note_on_c, 1, 47, 120
3, 15692, Note_off_c, 1, 51, 100
3, 15696, Note_on_c, 1, 44, 120
3, 15716, Note_off_c, 1, 47, 100
3, 15720, Note_on_c, 1, 39, 120
3, 15740, Note_off_c, 1, 44, 100
3, 15744, Note_on_c, 1, 35, 120
3, 15764, Note_off_c, 1, 39, 100
3, 15932, Note_off_c, 1, 35, 100
3, 16080, Note_on_c, 1, 47, 120
3, 16080, Note_on_c, 1, 35, 120
3, 16124, Note_off_c, 1, 47, 100
3, 16124, Note_off_c, 1, 35, 100
3, 16128, Note_on_c, 1, 46, 120
3, 16128, Note_on_c, 1, 34, 120
3, 16700, Note_off_c, 1, 46, 100
3, 16700, Note_off_c, 1, 34, 100
3, 17664, Note_on_c, 1, 58, 70
3, 17664, Note_on_c, 1, 56, 70
3, 17852, Note_off_c, 1, 58, 100
3, 17852, Note_off_c, 1, 56, 100
3, 17856, Note_on_c, 1, 58, 70
3, 17856, Note_on_c, 1, 56, 70
3, 18044, Note_off_c, 1, 58, 100
3, 18044, Note_off_c, 1, 56, 100
3, 18048, Note_on_c, 1, 58, 70
3, 18048, Note_on_c, 1, 56, 70
3, 18236, Note_off_c, 1, 58, 100
3, 18236, Note_off_c, 1, 56, 100
3, 18240, Note_on_c, 1, 58, 70
3, 18240, Note_on_c, 1, 56, 70
3, 18428, Note_off_c, 1, 58, 100
3, 18428, Note_off_c, 1, 56, 100
3, 18432, Note_on_c, 1, 58, 70
3, 18432, Note_on_c, 1, 55, 70
3, 18620, Note_off_c, 1, 58, 100
3, 18620, Note_off_c, 1, 55, 100
3, 18624, Note_on_c, 1, 58, 70
3, 18624, Note_on_c, 1, 55, 70
3, 18812, Note_off_c, 1, 58, 100
3, 18812, Note_off_c, 1, 55, 100
3, 18816, Note_on_c, 1, 58, 70
3, 18816, Note_on_c, 1, 55, 70
3, 19004, Note_off_c, 1, 58, 100
3, 19004, Note_off_c, 1, 55, 100
3, 19008, Note_on_c, 1, 58, 70
3, 19008, Note_on_c, 1, 55, 70
3, 19196, Note_off_c, 1, 58, 100
3, 19196, Note_off_c, 1, 55, 100
3, 19200, Note_on_c, 1, 58, 70
3, 19200, Note_on_c, 1, 56, 70
3, 19200, Note_on_c, 1, 50, 70
3, 19388, Note_off_c, 1, 58, 100
3, 19388, Note_off_c, 1, 56, 100
3, 19388, Note_off_c, 1, 50, 100
3, 19392, Note_on_c, 1, 58, 70
3, 19392, Note_on_c, 1, 56, 70
3, 19392, Note_on_c, 1, 50, 70
3, 19580, Note_off_c, 1, 58, 100
3, 19580, Note_off_c, 1, 56, 100
3, 19580, Note_off_c, 1, 50, 100
3, 19584, Note_on_c, 1, 58, 70
3, 19584, Note_on_c, 1, 56, 70
3, 19584, Note_on_c, 1, 50, 70
3, 19772, Note_off_c, 1, 58, 100
3, 19772, Note_off_c, 1, 56, 100
3, 19772, Note_off_c, 1, 50, 100
3, 19776, Note_on_c, 1, 58, 70
3, 19776, Note_on_c, 1, 50, 70
3, 19776, Note_on_c, 1, 55, 70
3, 19916, Note_off_c, 1, 55, 100
3, 19920, Note_on_c, 1, 53, 70
3, 19964, Note_off_c, 1, 58, 100
3, 19964, Note_off_c, 1, 50, 100
3, 19964, Note_off_c, 1, 53, 100
3, 19968, Note_on_c, 1, 58, 70
3, 19968, Note_on_c, 1, 51, 70
3, 19968, Note_on_c, 1, 54, 70
3, 20156, Note_off_c, 1, 58, 100
3, 20156, Note_off_c, 1, 51, 100
3, 20156, Note_off_c, 1, 54, 100
3, 20160, Note_on_c, 1, 58, 70
3, 20160, Note_on_c, 1, 55, 70
3, 20160, Note_on_c, 1, 51, 70
3, 20348, Note_off_c, 1, 58, 100
3, 20348, Note_off_c, 1, 55, 100
3, 20348, Note_off_c, 1, 51, 100
3, 20352, Note_on_c, 1, 58, 70
3, 20352, Note_on_c, 1, 55, 70
3, 20352, Note_on_c, 1, 51, 70
3, 20540, Note_off_c, 1, 58, 100
3, 20540, Note_off_c, 1, 55, 100
3, 20540, Note_off_c, 1, 51, 100
3, 20544, Note_on_c, 1, 58, 70
3, 20544, Note_on_c, 1, 55, 70
3, 20544, Note_on_c, 1, 51, 70
3, 20732, Note_off_c, 1, 58, 100
3, 20732, Note_off_c, 1, 55, 100
3, 20732, Note_off_c, 1, 51, 100
3, 20736, Note_on_c, 1, 58, 80
3, 20736, Note_on_c, 1, 56, 80
3, 21020, Note_off_c, 1, 58, 100
3, 21020, Note_off_c, 1, 56, 100
3, 21024, Note_on_c, 1, 56, 80
3, 21024, Note_on_c, 1, 58, 80
3, 21308, Note_off_c, 1, 56, 100
3, 21308, Note_off_c, 1, 58, 100
3, 21312, Note_on_c, 1, 58, 80
3, 21312, Note_on_c, 1, 56, 80
3, 21500, Note_off_c, 1, 58, 100
3, 21500, Note_off_c, 1, 56, 100
3, 21504, Note_on_c, 1, 58, 80
3, 21504, Note_on_c, 1, 56, 80
3, 21692, Note_off_c, 1, 58, 100
3, 21692, Note_off_c, 1, 56, 100
3, 21888, Note_on_c, 1, 55, 80
3, 21888, Note_on_c, 1, 58, 80
3, 22076, Note_off_c, 1, 55, 100
3, 22076, Note_off_c, 1, 58, 100
3, 22080, Note_on_c, 1, 58, 80
3, 22080, Note_on_c, 1, 55, 80
3, 22268, Note_off_c, 1, 58, 100
3, 22268, Note_off_c, 1, 55, 100
3, 22272, Note_on_c, 1, 55, 80
3, 22272, Note_on_c, 1, 58, 80
3, 22460, Note_off_c, 1, 55, 100
3, 22460, Note_off_c, 1, 58, 100
3, 22464, Note_on_c, 1, 58, 80
3, 22464, Note_on_c, 1, 56, 80
3, 22464, Note_on_c, 1, 50, 80
3, 22748, Note_off_c, 1, 58, 100
3, 22748, Note_off_c, 1, 56, 100
3, 22748, Note_off_c, 1, 50, 100
3, 22752, Note_on_c, 1, 58, 80
3, 22752, Note_on_c, 1, 56, 80
3, 22752, Note_on_c, 1, 50, 80
3, 23036, Note_off_c, 1, 58, 100
3, 23036, Note_off_c, 1, 56, 100
3, 23036, Note_off_c, 1, 50, 100
3, 23040, Note_on_c, 1, 58, 80
3, 23040, Note_on_c, 1, 56, 80
3, 23040, Note_on_c, 1, 50, 80
3, 23228, Note_off_c, 1, 58, 100
3, 23228, Note_off_c, 1, 56, 100
3, 23228, Note_off_c, 1, 50, 100
3, 23232, Note_on_c, 1, 58, 80
3, 23232, Note_on_c, 1, 56, 80
3, 23232, Note_on_c, 1, 50, 80
3, 23420, Note_off_c, 1, 58, 100
3, 23420, Note_off_c, 1, 56, 100
3, 23420, Note_off_c, 1, 50, 100
3, 23616, Note_on_c, 1, 58, 82
3, 23616, Note_on_c, 1, 55, 82
3, 23616, Note_on_c, 1, 51, 82
3, 23804, Note_off_c, 1, 58, 100
3, 23804, Note_off_c, 1, 55, 100
3, 23804, Note_off_c, 1, 51, 100
3, 24000, Note_on_c, 1, 62, 87
3, 24000, Note_on_c, 1, 58, 87
3, 24000, Note_on_c, 1, 56, 87
3, 24000, Note_on_c, 1, 53, 87
3, 24188, Note_off_c, 1, 62, 100
3, 24188, Note_off_c, 1, 58, 100
3, 24188, Note_off_c, 1, 56, 100
3, 24188, Note_off_c, 1, 53, 100
3, 24384, Note_on_c, 1, 63, 92
3, 24384, Note_on_c, 1, 58, 92
3, 24384, Note_on_c, 1, 55, 92
3, 24572, Note_off_c, 1, 63, 100
3, 24572, Note_off_c, 1, 58, 100
3, 24572, Note_off_c, 1, 55, 100
3, 24768, Note_on_c, 1, 63, 97
3, 24768, Note_on_c, 1, 59, 97
3, 24768, Note_on_c, 1, 55, 97
3, 24956, Note_off_c, 1, 63, 100
3, 24956, Note_off_c, 1, 59, 100
3, 24956, Note_off_c, 1, 55, 100
3, 25152, Note_on_c, 1, 63, 102
3, 25152, Note_on_c, 1, 60, 102
3, 25152, Note_on_c, 1, 56, 102
3, 25340, Note_off_c, 1, 63, 100
3, 25340, Note_off_c, 1, 60, 100
3, 25340, Note_off_c, 1, 56, 100
3, 25536, Note_on_c, 1, 65, 108
3, 25536, Note_on_c, 1, 62, 108
3, 25536, Note_on_c, 1, 59, 108
3, 25536, Note_on_c, 1, 56, 108
3, 25724, Note_off_c, 1, 65, 100
3, 25724, Note_off_c, 1, 62, 100
3, 25724, Note_off_c, 1, 59, 100
3, 25724, Note_off_c, 1, 56, 100
3, 25920, Note_on_c, 1, 66, 113
3, 25920, Note_on_c, 1, 63, 113
3, 25920, Note_on_c, 1, 60, 113
3, 25920, Note_on_c, 1, 57, 113
3, 26108, Note_off_c, 1, 66, 100
3, 26108, Note_off_c, 1, 63, 100
3, 26108, Note_off_c, 1, 60, 100
3, 26108, Note_off_c, 1, 57, 100
3, 26688, Note_on_c, 1, 67, 88
3, 26688, Note_on_c, 1, 63, 88
3, 26688, Note_on_c, 1, 58, 88
3, 26876, Note_off_c, 1, 67, 100
3, 26876, Note_off_c, 1, 63, 100
3, 26876, Note_off_c, 1, 58, 100
3, 27072, Note_on_c, 1, 68, 82
3, 27072, Note_on_c, 1, 62, 82
3, 27072, Note_on_c, 1, 58, 82
3, 27260, Note_off_c, 1, 68, 100
3, 27260, Note_off_c, 1, 62, 100
3, 27260, Note_off_c, 1, 58, 100
3, 27392, Note_on_c, 1, 63, 70
3, 27452, Note_off_c, 1, 63, 100
3, 27456, Note_on_c, 1, 58, 70
3, 27516, Note_off_c, 1, 58, 100
3, 27520, Note_on_c, 1, 55, 70
3, 27580, Note_off_c, 1, 55, 100
3, 27584, Note_on_c, 1, 51, 70
3, 27644, Note_off_c, 1, 51, 100
3, 27776, Note_on_c, 1, 65, 70
3, 27836, Note_off_c, 1, 65, 100
3, 27840, Note_on_c, 1, 62, 70
3, 27900, Note_off_c, 1, 62, 100
3, 27904, Note_on_c, 1, 58, 70
3, 27964, Note_off_c, 1, 58, 100
3, 27968, Note_on_c, 1, 53, 70
3, 28028, Note_off_c, 1, 53, 100
3, 28160, Note_on_c, 1, 67, 73
3, 28220, Note_off_c, 1, 67, 100
3, 28224, Note_on_c, 1, 63, 75
3, 28284, Note_off_c, 1, 63, 100
3, 28288, Note_on_c, 1, 58, 76
3, 28348, Note_off_c, 1, 58, 100
3, 28352, Note_on_c, 1, 55, 78
3, 28412, Note_off_c, 1, 55, 100
3, 28544, Note_on_c, 1, 67, 83
3, 28604, Note_off_c, 1, 67, 100
3, 28608, Note_on_c, 1, 63, 85
3, 28668, Note_off_c, 1, 63, 100
3, 28672, Note_on_c, 1, 59, 87
3, 28732, Note_off_c, 1, 59, 100
3, 28736, Note_on_c, 1, 55, 89
3, 28796, Note_off_c, 1, 55, 100
3, 28928, Note_on_c, 1, 68, 94
3, 28988, Note_off_c, 1, 68, 100
3, 28992, Note_on_c, 1, 63, 96
3, 29052, Note_off_c, 1, 63, 100
3, 29056, Note_on_c, 1, 60, 97
3, 29116, Note_off_c, 1, 60, 100
3, 29120, Note_on_c, 1, 56, 99
3, 29180, Note_off_c, 1, 56, 100
3, 29312, Note_on_c, 1, 68, 104
3, 29372, Note_off_c, 1, 68, 100
3, 29376, Note_on_c, 1, 65, 106
3, 29436, Note_off_c, 1, 65, 100
3, 29440, Note_on_c, 1, 62, 108
3, 29500, Note_off_c, 1, 62, 100
3, 29504, Note_on_c, 1, 58, 109
3, 29564, Note_off_c, 1, 58, 100
3, 29696, Note_on_c, 1, 69, 110
3, 29760, Note_on_c, 1, 66, 110
3, 29824, Note_on_c, 1, 63, 110
3, 29888, Note_on_c, 1, 59, 110
3, 30332, Note_off_c, 1, 69, 100
3, 30332, Note_off_c, 1, 66, 100
3, 30332, Note_off_c, 1, 63, 100
3, 30332, Note_off_c, 1, 59, 100
3, 30400, Note_on_c, 1, 46, 110
3, 30460, Note_off_c, 1, 46, 100
3, 30464, Note_on_c, 1, 51, 110
3, 30524, Note_off_c, 1, 51, 100
3, 30528, Note_on_c, 1, 55, 100
3, 30588, Note_off_c, 1, 55, 100
3, 30592, Note_on_c, 1, 58, 99
3, 30652, Note_off_c, 1, 58, 100
3, 30656, Note_on_c, 1, 63, 98
3, 30716, Note_off_c, 1, 63, 100
3, 30720, Note_on_c, 1, 67, 97
3, 30780, Note_off_c, 1, 67, 100
3, 30784, Note_on_c, 1, 66, 96
3, 30844, Note_off_c, 1, 66, 100
3, 30848, Note_on_c, 1, 68, 94
3, 30908, Note_off_c, 1, 68, 100
3, 30912, Note_on_c, 1, 67, 93
3, 30972, Note_off_c, 1, 67, 100
3, 30976, Note_on_c, 1, 65, 92
3, 31036, Note_off_c, 1, 65, 100
3, 31040, Note_on_c, 1, 63, 91
3, 31100, Note_off_c, 1, 63, 100
3, 31104, Note_on_c, 1, 58, 110
3, 31104, Note_on_c, 1, 68, 110
3, 31868, Note_off_c, 1, 58, 100
3, 31868, Note_off_c, 1, 68, 100
3, 31936, Note_on_c, 1, 34, 110
3, 31996, Note_off_c, 1, 34, 100
3, 32000, Note_on_c, 1, 39, 110
3, 32060, Note_off_c, 1, 39, 100
3, 32064, Note_on_c, 1, 43, 110
3, 32124, Note_off_c, 1, 43, 100
3, 32128, Note_on_c, 1, 46, 110
3, 32188, Note_off_c, 1, 46, 100
3, 32192, Note_on_c, 1, 51, 110
3, 32252, Note_off_c, 1, 51, 100
3, 32256, Note_on_c, 1, 55, 110
3, 32316, Note_off_c, 1, 55, 100
3, 32320, Note_on_c, 1, 54, 110
3, 32380, Note_off_c, 1, 54, 100
3, 32384, Note_on_c, 1, 56, 110
3, 32444, Note_off_c, 1, 56, 100
3, 32448, Note_on_c, 1, 55, 110
3, 32508, Note_off_c, 1, 55, 100
3, 32512, Note_on_c, 1, 53, 110
3, 32572, Note_off_c, 1, 53, 100
3, 32576, Note_on_c, 1, 51, 110
3, 32636, Note_off_c, 1, 51, 100
3, 32640, Note_on_c, 1, 46, 110
3, 32640, Note_on_c, 1, 56, 110
3, 33404, Note_off_c, 1, 46, 100
3, 33404, Note_off_c, 1, 56, 100
3, 33408, Note_on_c, 1, 55, 100
3, 33408, Note_on_c, 1, 51, 100
3, 33596, Note_off_c, 1, 55, 100
3, 33596, Note_off_c, 1, 51, 100
3, 34176, Note_on_c, 1, 39, 100
3, 34200, Note_on_c, 1, 46, 100
3, 34224, Note_on_c, 1, 49, 100
3, 34248, Note_on_c, 1, 51, 100
3, 34556, Note_off_c, 1, 39, 100
3, 34556, Note_off_c, 1, 46, 100
3, 34556, Note_off_c, 1, 49, 100
3, 34556, Note_off_c, 1, 51, 100
3, 34944, Note_on_c, 1, 44, 80
3, 35132, Note_off_c, 1, 44, 100
3, 35136, Note_on_c, 1, 51, 80
3, 35324, Note_off_c, 1, 51, 100
3, 35328, Note_on_c, 1, 43, 80
3, 35516, Note_off_c, 1, 43, 100
3, 35520, Note_on_c, 1, 51, 80
3, 35708, Note_off_c, 1, 51, 100
3, 35712, Note_on_c, 1, 44, 80
3, 35900, Note_off_c, 1, 44, 100
3, 35904, Note_on_c, 1, 51, 80
3, 36092, Note_off_c, 1, 51, 100
3, 36096, Note_on_c, 1, 56, 80
3, 36284, Note_off_c, 1, 56, 100
3, 36288, Note_on_c, 1, 60, 80
3, 36476, Note_off_c, 1, 60, 100
3, 36480, Note_on_c, 1, 61, 80
3, 36480, Note_on_c, 1, 55, 80
3, 36668, Note_off_c, 1, 61, 100
3, 36672, Note_on_c, 1, 58, 80
3, 36860, Note_off_c, 1, 55, 100
3, 36860, Note_off_c, 1, 58, 100
3, 36864, Note_on_c, 1, 56, 80
3, 37056, Note_on_c, 1, 60, 80
3, 37244, Note_off_c, 1, 56, 100
3, 37244, Note_off_c, 1, 60, 100
3, 37248, Note_on_c, 1, 63, 80
3, 37248, Note_on_c, 1, 51, 80
3, 37440, Note_on_c, 1, 61, 80
3, 37628, Note_off_c, 1, 61, 100
3, 37632, Note_on_c, 1, 58, 80
3, 37820, Note_off_c, 1, 58, 100
3, 37824, Note_on_c, 1, 55, 80
3, 38012, Note_off_c, 1, 63, 100
3, 38012, Note_off_c, 1, 51, 100
3, 38012, Note_off_c, 1, 55, 100
3, 38160, Note_on_c, 1, 56, 83
3, 38204, Note_off_c, 1, 56, 100
3, 38208, Note_on_c, 1, 63, 85
3, 38396, Note_off_c, 1, 63, 100
3, 38544, Note_on_c, 1, 48, 94
3, 38588, Note_off_c, 1, 48, 100
3, 38592, Note_on_c, 1, 56, 95
3, 38780, Note_off_c, 1, 56, 100
3, 38928, Note_on_c, 1, 49, 106
3, 38972, Note_off_c, 1, 49, 100
3, 38976, Note_on_c, 1, 56, 105
3, 39116, Note_off_c, 1, 56, 100
3, 39120, Note_on_c, 1, 53, 101
3, 39168, Note_on_c, 1, 61, 100
3, 39308, Note_off_c, 1, 61, 100
3, 39312, Note_on_c, 1, 56, 96
3, 39356, Note_off_c, 1, 56, 100
3, 39360, Note_on_c, 1, 65, 94
3, 39500, Note_off_c, 1, 65, 100
3, 39504, Note_on_c, 1, 61, 90
3, 39548, Note_off_c, 1, 61, 100
3, 39552, Note_on_c, 1, 56, 89
3, 39740, Note_off_c, 1, 53, 100
3, 39740, Note_off_c, 1, 56, 100
3, 39744, Note_on_c, 1, 56, 83
3, 39744, Note_on_c, 1, 53, 83
3, 39932, Note_off_c, 1, 56, 100
3, 39932, Note_off_c, 1, 53, 100
3, 39936, Note_on_c, 1, 55, 100
3, 39936, Note_on_c, 1, 58, 100
3, 40124, Note_off_c, 1, 55, 100
3, 40124, Note_off_c, 1, 58, 100
3, 40128, Note_on_c, 1, 56, 100
3, 40128, Note_on_c, 1, 60, 100
3, 40316, Note_off_c, 1, 56, 100
3, 40316, Note_off_c, 1, 60, 100
3, 40320, Note_on_c, 1, 60, 100
3, 40320, Note_on_c, 1, 51, 100
3, 40604, Note_off_c, 1, 60, 100
3, 40608, Note_on_c, 1, 56, 100
3, 40700, Note_off_c, 1, 51, 100
3, 40700, Note_off_c, 1, 56, 100
3, 40704, Note_on_c, 1, 55, 100
3, 40704, Note_on_c, 1, 51, 100
3, 40892, Note_off_c, 1, 55, 100
3, 40892, Note_off_c, 1, 51, 100
3, 41088, Note_on_c, 1, 44, 100
3, 41184, Note_on_c, 1, 51, 100
3, 41276, Note_off_c, 1, 51, 100
3, 41280, Note_on_c, 1, 51, 100
3, 41372, Note_off_c, 1, 51, 100
3, 41376, Note_on_c, 1, 51, 100
3, 41468, Note_off_c, 1, 44, 100
3, 41468, Note_off_c, 1, 51, 100
3, 41472, Note_on_c, 1, 43, 100
3, 41568, Note_on_c, 1, 51, 100
3, 41660, Note_off_c, 1, 51, 100
3, 41664, Note_on_c, 1, 51, 100
3, 41756, Note_off_c, 1, 51, 100
3, 41760, Note_on_c, 1, 51, 100
3, 41852, Note_off_c, 1, 43, 100
3, 41852, Note_off_c, 1, 51, 100
3, 41856, Note_on_c, 1, 44, 100
3, 41916, Note_off_c, 1, 44, 100
3, 41920, Note_on_c, 1, 51, 100
3, 41980, Note_off_c, 1, 51, 100
3, 41984, Note_on_c, 1, 48, 100
3, 42044, Note_off_c, 1, 48, 100
3, 42048, Note_on_c, 1, 56, 100
3, 42108, Note_off_c, 1, 56, 100
3, 42112, Note_on_c, 1, 51, 100
3, 42172, Note_off_c, 1, 51, 100
3, 42176, Note_on_c, 1, 60, 100
3, 42236, Note_off_c, 1, 60, 100
3, 42240, Note_on_c, 1, 56, 100
3, 42300, Note_off_c, 1, 56, 100
3, 42304, Note_on_c, 1, 63, 100
3, 42364, Note_off_c, 1, 63, 100
3, 42368, Note_on_c, 1, 61, 100
3, 42428, Note_off_c, 1, 61, 100
3, 42432, Note_on_c, 1, 60, 100
3, 42492, Note_off_c, 1, 60, 100
3, 42496, Note_on_c, 1, 58, 100
3, 42556, Note_off_c, 1, 58, 100
3, 42560, Note_on_c, 1, 56, 100
3, 42620, Note_off_c, 1, 56, 100
3, 42624, Note_on_c, 1, 55, 100
3, 42720, Note_on_c, 1, 51, 100
3, 42812, Note_off_c, 1, 51, 100
3, 42816, Note_on_c, 1, 51, 100
3, 42908, Note_off_c, 1, 51, 100
3, 42912, Note_on_c, 1, 51, 100
3, 43004, Note_off_c, 1, 55, 100
3, 43004, Note_off_c, 1, 51, 100
3, 43008, Note_on_c, 1, 56, 100
3, 43104, Note_on_c, 1, 51, 100
3, 43196, Note_off_c, 1, 51, 100
3, 43200, Note_on_c, 1, 51, 100
3, 43292, Note_off_c, 1, 51, 100
3, 43296, Note_on_c, 1, 51, 100
3, 43388, Note_off_c, 1, 56, 100
3, 43388, Note_off_c, 1, 51, 100
3, 43392, Note_on_c, 1, 39, 100
3, 43452, Note_off_c, 1, 39, 100
3, 43456, Note_on_c, 1, 43, 100
3, 43516, Note_off_c, 1, 43, 100
3, 43520, Note_on_c, 1, 46, 100
3, 43580, Note_off_c, 1, 46, 100
3, 43584, Note_on_c, 1, 51, 100
3, 43644, Note_off_c, 1, 51, 100
3, 43648, Note_on_c, 1, 55, 100
3, 43708, Note_off_c, 1, 55, 100
3, 43712, Note_on_c, 1, 58, 100
3, 43772, Note_off_c, 1, 58, 100
3, 43776, Note_on_c, 1, 61, 100
3, 43836, Note_off_c, 1, 61, 100
3, 43840, Note_on_c, 1, 65, 100
3, 43900, Note_off_c, 1, 65, 100
3, 43904, Note_on_c, 1, 63, 100
3, 43964, Note_off_c, 1, 63, 100
3, 43968, Note_on_c, 1, 61, 100
3, 44028, Note_off_c, 1, 61, 100
3, 44032, Note_on_c, 1, 60, 100
3, 44092, Note_off_c, 1, 60, 100
3, 44096, Note_on_c, 1, 58, 100
3, 44156, Note_off_c, 1, 58, 100
3, 44160, Note_on_c, 1, 56, 100
3, 44220, Note_off_c, 1, 56, 100
3, 44224, Note_on_c, 1, 63, 101
3, 44284, Note_off_c, 1, 63, 100
3, 44288, Note_on_c, 1, 60, 102
3, 44348, Note_off_c, 1, 60, 100
3, 44352, Note_on_c, 1, 56, 103
3, 44412, Note_off_c, 1, 56, 100
3, 44416, Note_on_c, 1, 51, 105
3, 44476, Note_off_c, 1, 51, 100
3, 44480, Note_on_c, 1, 48, 106
3, 44540, Note_off_c, 1, 48, 100
3, 44608, Note_on_c, 1, 60, 108
3, 44668, Note_off_c, 1, 60, 100
3, 44672, Note_on_c, 1, 56, 110
3, 44732, Note_off_c, 1, 56, 100
3, 44736, Note_on_c, 1, 51, 111
3, 44796, Note_off_c, 1, 51, 100
3, 44800, Note_on_c, 1, 48, 112
3, 44860, Note_off_c, 1, 48, 100
3, 44864, Note_on_c, 1, 44, 113
3, 44924, Note_off_c, 1, 44, 100
3, 44992, Note_on_c, 1, 49, 100
3, 45056, Note_on_c, 1, 51, 100
3, 45116, Note_off_c, 1, 51, 100
3, 45120, Note_on_c, 1, 53, 100
3, 45180, Note_off_c, 1, 53, 100
3, 45184, Note_on_c, 1, 54, 98
3, 45244, Note_off_c, 1, 54, 100
3, 45248, Note_on_c, 1, 55, 96
3, 45308, Note_off_c, 1, 55, 100
3, 45312, Note_on_c, 1, 56, 93
3, 45372, Note_off_c, 1, 56, 100
3, 45376, Note_on_c, 1, 57, 91
3, 45436, Note_off_c, 1, 57, 100
3, 45440, Note_on_c, 1, 58, 88
3, 45500, Note_off_c, 1, 58, 100
3, 45504, Note_on_c, 1, 59, 86
3, 45564, Note_off_c, 1, 59, 100
3, 45568, Note_on_c, 1, 60, 83
3, 45628, Note_off_c, 1, 60, 100
3, 45632, Note_on_c, 1, 61, 81
3, 45692, Note_off_c, 1, 49, 100
3, 45692, Note_off_c, 1, 61, 100
3, 45696, Note_on_c, 1, 51, 80
3, 45760, Note_on_c, 1, 63, 80
3, 45820, Note_off_c, 1, 63, 100
3, 45824, Note_on_c, 1, 62, 80
3, 45884, Note_off_c, 1, 62, 100
3, 45952, Note_on_c, 1, 61, 80
3, 46012, Note_off_c, 1, 61, 100
3, 46016, Note_on_c, 1, 60, 80
3, 46076, Note_off_c, 1, 51, 100
3, 46076, Note_off_c, 1, 60, 100
3, 46080, Note_on_c, 1, 51, 80
3, 46144, Note_on_c, 1, 58, 80
3, 46204, Note_off_c, 1, 58, 100
3, 46208, Note_on_c, 1, 60, 80
3, 46268, Note_off_c, 1, 60, 100
3, 46336, Note_on_c, 1, 61, 80
3, 46396, Note_off_c, 1, 61, 100
3, 46400, Note_on_c, 1, 55, 80
3, 46460, Note_off_c, 1, 51, 100
3, 46460, Note_off_c, 1, 55, 100
3, 46464, Note_on_c, 1, 55, 80
3, 46464, Note_on_c, 1, 44, 80
3, 46844, Note_off_c, 1, 55, 100
3, 46848, Note_on_c, 1, 56, 80
3, 47036, Note_off_c, 1, 44, 100
3, 47036, Note_off_c, 1, 56, 100
3, 47232, Note_on_c, 1, 65, 120
3, 47232, Note_on_c, 1, 63, 120
3, 47232, Note_on_c, 1, 60, 120
3, 47232, Note_on_c, 1, 57, 120
3, 47612, Note_off_c, 1, 65, 100
3, 47612, Note_off_c, 1, 63, 100
3, 47612, Note_off_c, 1, 60, 100
3, 47612, Note_off_c, 1, 57, 100
3, 47952, Note_on_c, 1, 53, 80
3, 47952, Note_on_c, 1, 45, 80
3, 47996, Note_off_c, 1, 53, 100
3, 47996, Note_off_c, 1, 45, 100
3, 48000, Note_on_c, 1, 53, 80
3, 48000, Note_on_c, 1, 46, 80
3, 48572, Note_off_c, 1, 53, 100
3, 48572, Note_off_c, 1, 46, 100
3, 48768, Note_on_c, 1, 63, 120
3, 48768, Note_on_c, 1, 61, 120
3, 48768, Note_on_c, 1, 58, 120
3, 48768, Note_on_c, 1, 55, 120
3, 49148, Note_off_c, 1, 63, 100
3, 49148, Note_off_c, 1, 61, 100
3, 49148, Note_off_c, 1, 58, 100
3, 49148, Note_off_c, 1, 55, 100
3, 49488, Note_on_c, 1, 51, 80
3, 49488, Note_on_c, 1, 43, 80
3, 49532, Note_off_c, 1, 51, 100
3, 49532, Note_off_c, 1, 43, 100
3, 49536, Note_on_c, 1, 51, 80
3, 49536, Note_on_c, 1, 44, 80
3, 50108, Note_off_c, 1, 51, 100
3, 50108, Note_off_c, 1, 44, 100
3, 50304, Note_on_c, 1, 47, 100
3, 50348, Note_off_c, 1, 47, 100
3, 50352, Note_on_c, 1, 59, 100
3, 50540, Note_off_c, 1, 59, 100
3, 50544, Note_on_c, 1, 59, 100
3, 50568, Note_on_c, 1, 56, 100
3, 50588, Note_off_c, 1, 59, 100
3, 50592, Note_on_c, 1, 52, 100
3, 50612, Note_off_c, 1, 56, 100
3, 50616, Note_on_c, 1, 47, 100
3, 50636, Note_off_c, 1, 52, 100
3, 50640, Note_on_c, 1, 44, 100
3, 50660, Note_off_c, 1, 47, 100
3, 50664, Note_on_c, 1, 40, 100
3, 50684, Note_off_c, 1, 44, 100
3, 50688, Note_on_c, 1, 35, 100
3, 50708, Note_off_c, 1, 40, 100
3, 50876, Note_off_c, 1, 35, 100
3, 51024, Note_on_c, 1, 47, 100
3, 51024, Note_on_c, 1, 35, 100
3, 51068, Note_off_c, 1, 47, 100
3, 51068, Note_off_c, 1, 35, 100
3, 51072, Note_on_c, 1, 47, 100
3, 51072, Note_on_c, 1, 35, 100
3, 51644, Note_off_c, 1, 47, 100
3, 51644, Note_off_c, 1, 35, 100
3, 51792, Note_on_c, 1, 47, 100
3, 51792, Note_on_c, 1, 35, 100
3, 51836, Note_off_c, 1, 47, 100
3, 51836, Note_off_c, 1, 35, 100
3, 51840, Note_on_c, 1, 47, 100
3, 51840, Note_on_c, 1, 35, 100
3, 52220, Note_off_c, 1, 47, 100
3, 52220, Note_off_c, 1, 35, 100
3, 52224, Note_on_c, 1, 46, 100
3, 52224, Note_on_c, 1, 34, 100
3, 52412, Note_off_c, 1, 46, 100
3, 52412, Note_off_c, 1, 34, 100
3, 52560, Note_on_c, 1, 46, 100
3, 52560, Note_on_c, 1, 34, 100
3, 52604, Note_off_c, 1, 46, 100
3, 52604, Note_off_c, 1, 34, 100
3, 52608, Note_on_c, 1, 34, 100
3, 52608, Note_on_c, 1, 46, 100
3, 52988, Note_off_c, 1, 34, 100
3, 52988, Note_off_c, 1, 46, 100
3, 52992, Note_on_c, 1, 51, 80
3, 52992, Note_on_c, 1, 39, 80
3, 53180, Note_off_c, 1, 51, 100
3, 53180, Note_off_c, 1, 39, 100
3, 54144, Note_on_c, 1, 63, 70
3, 54144, Note_on_c, 1, 61, 70
3, 54332, Note_off_c, 1, 63, 100
3, 54332, Note_off_c, 1, 61, 100
3, 54336, Note_on_c, 1, 63, 70
3, 54336, Note_on_c, 1, 61, 70
3, 54524, Note_off_c, 1, 63, 100
3, 54524, Note_off_c, 1, 61, 100
3, 54528, Note_on_c, 1, 63, 70
3, 54528, Note_on_c, 1, 61, 70
3, 54716, Note_off_c, 1, 63, 100
3, 54716, Note_off_c, 1, 61, 100
3, 54720, Note_on_c, 1, 63, 70
3, 54720, Note_on_c, 1, 61, 70
3, 54908, Note_off_c, 1, 63, 100
3, 54908, Note_off_c, 1, 61, 100
3, 54912, Note_on_c, 1, 63, 70
3, 54912, Note_on_c, 1, 60, 70
3, 55100, Note_off_c, 1, 63, 100
3, 55100, Note_off_c, 1, 60, 100
3, 55104, Note_on_c, 1, 63, 70
3, 55104, Note_on_c, 1, 60, 70
3, 55292, Note_off_c, 1, 63, 100
3, 55292, Note_off_c, 1, 60, 100
3, 55296, Note_on_c, 1, 63, 70
3, 55296, Note_on_c, 1, 60, 70
3, 55484, Note_off_c, 1, 63, 100
3, 55484, Note_off_c, 1, 60, 100
3, 55488, Note_on_c, 1, 63, 70
3, 55488, Note_on_c, 1, 60, 70
3, 55676, Note_off_c, 1, 63, 100
3, 55676, Note_off_c, 1, 60, 100
3, 55680, Note_on_c, 1, 55, 70
3, 55680, Note_on_c, 1, 61, 70
3, 55680, Note_on_c, 1, 63, 70
3, 55868, Note_off_c, 1, 55, 100
3, 55868, Note_off_c, 1, 61, 100
3, 55868, Note_off_c, 1, 63, 100
3, 55872, Note_on_c, 1, 55, 70
3, 55872, Note_on_c, 1, 61, 70
3, 55872, Note_on_c, 1, 63, 70
3, 56060, Note_off_c, 1, 55, 100
3, 56060, Note_off_c, 1, 61, 100
3, 56060, Note_off_c, 1, 63, 100
3, 56064, Note_on_c, 1, 55, 70
3, 56064, Note_on_c, 1, 61, 70
3, 56064, Note_on_c, 1, 63, 70
3, 56252, Note_off_c, 1, 55, 100
3, 56252, Note_off_c, 1, 61, 100
3, 56252, Note_off_c, 1, 63, 100
3, 56256, Note_on_c, 1, 55, 70
3, 56256, Note_on_c, 1, 63, 70
3, 56256, Note_on_c, 1, 60, 70
3, 56396, Note_off_c, 1, 60, 100
3, 56400, Note_on_c, 1, 58, 70
3, 56444, Note_off_c, 1, 55, 100
3, 56444, Note_off_c, 1, 63, 100
3, 56444, Note_off_c, 1, 58, 100
3, 56448, Note_on_c, 1, 63, 70
3, 56448, Note_on_c, 1, 56, 70
3, 56448, Note_on_c, 1, 59, 70
3, 56636, Note_off_c, 1, 63, 100
3, 56636, Note_off_c, 1, 56, 100
3, 56636, Note_off_c, 1, 59, 100
3, 56640, Note_on_c, 1, 63, 70
3, 56640, Note_on_c, 1, 60, 70
3, 56640, Note_on_c, 1, 56, 70
3, 56828, Note_off_c, 1, 63, 100
3, 56828, Note_off_c, 1, 60, 100
3, 56828, Note_off_c, 1, 56, 100
3, 56832, Note_on_c, 1, 63, 70
3, 56832, Note_on_c, 1, 60, 70
3, 56832, Note_on_c, 1, 56, 70
3, 57020, Note_off_c, 1, 63, 100
3, 57020, Note_off_c, 1, 60, 100
3, 57020, Note_off_c, 1, 56, 100
3, 57024, Note_on_c, 1, 63, 70
3, 57024, Note_on_c, 1, 60, 70
3, 57024, Note_on_c, 1, 56, 70
3, 57212, Note_off_c, 1, 63, 100
3, 57212, Note_off_c, 1, 60, 100
3, 57212, Note_off_c, 1, 56, 100
3, 57216, Note_on_c, 1, 61, 70
3, 57216, Note_on_c, 1, 63, 70
3, 57500, Note_off_c, 1, 61, 100
3, 57500, Note_off_c, 1, 63, 100
3, 57504, Note_on_c, 1, 61, 70
3, 57504, Note_on_c, 1, 63, 70
3, 57788, Note_off_c, 1, 61, 100
3, 57788, Note_off_c, 1, 63, 100
3, 57792, Note_on_c, 1, 61, 70
3, 57792, Note_on_c, 1, 63, 70
3, 57980, Note_off_c, 1, 61, 100
3, 57980, Note_off_c, 1, 63, 100
3, 57984, Note_on_c, 1, 61, 70
3, 57984, Note_on_c, 1, 63, 70
3, 58172, Note_off_c, 1, 61, 100
3, 58172, Note_off_c, 1, 63, 100
3, 58368, Note_on_c, 1, 60, 70
3, 58368, Note_on_c, 1, 63, 70
3, 58556, Note_off_c, 1, 60, 100
3, 58556, Note_off_c, 1, 63, 100
3, 58560, Note_on_c, 1, 60, 70
3, 58560, Note_on_c, 1, 63, 70
3, 58748, Note_off_c, 1, 60, 100
3, 58748, Note_off_c, 1, 63, 100
3, 58752, Note_on_c, 1, 60, 70
3, 58752, Note_on_c, 1, 63, 70
3, 58940, Note_off_c, 1, 60, 100
3, 58940, Note_off_c, 1, 63, 100
3, 58944, Note_on_c, 1, 63, 70
3, 58944, Note_on_c, 1, 61, 70
3, 58944, Note_on_c, 1, 55, 70
3, 59228, Note_off_c, 1, 63, 100
3, 59228, Note_off_c, 1, 61, 100
3, 59228, Note_off_c, 1, 55, 100
3, 59232, Note_on_c, 1, 63, 70
3, 59232, Note_on_c, 1, 61, 70
3, 59232, Note_on_c, 1, 55, 70
3, 59420, Note_off_c, 1, 63, 100
3, 59420, Note_off_c, 1, 61, 100
3, 59420, Note_off_c, 1, 55, 100
3, 59424, Note_on_c, 1, 63, 70
3, 59424, Note_on_c, 1, 61, 70
3, 59424, Note_on_c, 1, 58, 70
3, 59424, Note_on_c, 1, 55, 70
3, 59612, Note_off_c, 1, 55, 100
3, 59612, Note_off_c, 1, 58, 100
3, 59612, Note_off_c, 1, 61, 100
3, 59612, Note_off_c, 1, 63, 100
3, 59616, Note_on_c, 1, 63, 70
3, 59616, Note_on_c, 1, 61, 70
3, 59616, Note_on_c, 1, 58, 70
3, 59616, Note_on_c, 1, 55, 70
3, 59900, Note_off_c, 1, 63, 100
3, 59900, Note_off_c, 1, 61, 100
3, 59900, Note_off_c, 1, 58, 100
3, 59900, Note_off_c, 1, 55, 100
3, 60096, Note_on_c, 1, 56, 70
3, 60096, Note_on_c, 1, 60, 70
3, 60096, Note_on_c, 1, 63, 70
3, 60284, Note_off_c, 1, 56, 100
3, 60284, Note_off_c, 1, 60, 100
3, 60284, Note_off_c, 1, 63, 100
3, 60480, Note_on_c, 1, 58, 70
3, 60480, Note_on_c, 1, 61, 70
3, 60480, Note_on_c, 1, 63, 70
3, 60480, Note_on_c, 1, 67, 70
3, 60668, Note_off_c, 1, 58, 100
3, 60668, Note_off_c, 1, 61, 100
3, 60668, Note_off_c, 1, 63, 100
3, 60668, Note_off_c, 1, 67, 100
3, 60864, Note_on_c, 1, 60, 83
3, 60864, Note_on_c, 1, 63, 83
3, 60864, Note_on_c, 1, 68, 83
3, 61052, Note_off_c, 1, 60, 100
3, 61052, Note_off_c, 1, 63, 100
3, 61052, Note_off_c, 1, 68, 100
3, 61248, Note_on_c, 1, 60, 91
3, 61248, Note_on_c, 1, 64, 91
3, 61248, Note_on_c, 1, 68, 91
3, 61436, Note_off_c, 1, 60, 100
3, 61436, Note_off_c, 1, 64, 100
3, 61436, Note_off_c, 1, 68, 100
3, 61632, Note_on_c, 1, 61, 99
3, 61632, Note_on_c, 1, 65, 99
3, 61632, Note_on_c, 1, 68, 99
3, 61820, Note_off_c, 1, 61, 100
3, 61820, Note_off_c, 1, 65, 100
3, 61820, Note_off_c, 1, 68, 100
3, 62016, Note_on_c, 1, 61, 107
3, 62016, Note_on_c, 1, 64, 107
3, 62016, Note_on_c, 1, 67, 107
3, 62016, Note_on_c, 1, 70, 107
3, 62204, Note_off_c, 1, 61, 100
3, 62204, Note_off_c, 1, 64, 100
3, 62204, Note_off_c, 1, 67, 100
3, 62204, Note_off_c, 1, 70, 100
3, 62400, Note_on_c, 1, 62, 100
3, 62400, Note_on_c, 1, 65, 100
3, 62400, Note_on_c, 1, 68, 100
3, 62400, Note_on_c, 1, 71, 100
3, 62588, Note_off_c, 1, 62, 100
3, 62588, Note_off_c, 1, 65, 100
3, 62588, Note_off_c, 1, 68, 100
3, 62588, Note_off_c, 1, 71, 100
3, 63168, Note_on_c, 1, 60, 80
3, 63168, Note_on_c, 1, 56, 80
3, 63168, Note_on_c, 1, 51, 80
3, 63356, Note_off_c, 1, 60, 100
3, 63356, Note_off_c, 1, 56, 100
3, 63356, Note_off_c, 1, 51, 100
3, 63552, Note_on_c, 1, 61, 80
3, 63552, Note_on_c, 1, 55, 80
3, 63552, Note_on_c, 1, 51, 80
3, 63740, Note_off_c, 1, 61, 100
3, 63740, Note_off_c, 1, 55, 100
3, 63740, Note_off_c, 1, 51, 100
3, 63872, Note_on_c, 1, 56, 70
3, 63932, Note_off_c, 1, 56, 100
3, 63936, Note_on_c, 1, 51, 70
3, 63996, Note_off_c, 1, 51, 100
3, 64000, Note_on_c, 1, 48, 70
3, 64060, Note_off_c, 1, 48, 100
3, 64064, Note_on_c, 1, 44, 70
3, 64124, Note_off_c, 1, 44, 100
3, 64256, Note_on_c, 1, 58, 70
3, 64316, Note_off_c, 1, 58, 100
3, 64320, Note_on_c, 1, 55, 70
3, 64380, Note_off_c, 1, 55, 100
3, 64384, Note_on_c, 1, 51, 70
3, 64444, Note_off_c, 1, 51, 100
3, 64448, Note_on_c, 1, 46, 70
3, 64508, Note_off_c, 1, 46, 100
3, 64640, Note_on_c, 1, 60, 73
3, 64700, Note_off_c, 1, 60, 100
3, 64704, Note_on_c, 1, 56, 75
3, 64764, Note_off_c, 1, 56, 100
3, 64768, Note_on_c, 1, 51, 76
3, 64828, Note_off_c, 1, 51, 100
3, 64832, Note_on_c, 1, 48, 78
3, 64892, Note_off_c, 1, 48, 100
3, 65024, Note_on_c, 1, 60, 83
3, 65084, Note_off_c, 1, 60, 100
3, 65088, Note_on_c, 1, 56, 85
3, 65148, Note_off_c, 1, 56, 100
3, 65152, Note_on_c, 1, 52, 87
3, 65212, Note_off_c, 1, 52, 100
3, 65216, Note_on_c, 1, 48, 89
3, 65276, Note_off_c, 1, 48, 100
3, 65408, Note_on_c, 1, 61, 94
3, 65468, Note_off_c, 1, 61, 100
3, 65472, Note_on_c, 1, 56, 96
3, 65532, Note_off_c, 1, 56, 100
3, 65536, Note_on_c, 1, 53, 97
3, 65596, Note_off_c, 1, 53, 100
3, 65600, Note_on_c, 1, 49, 99
3, 65660, Note_off_c, 1, 49, 100
3, 65792, Note_on_c, 1, 61, 104
3, 65852, Note_off_c, 1, 61, 100
3, 65856, Note_on_c, 1, 58, 106
3, 65916, Note_off_c, 1, 58, 100
3, 65920, Note_on_c, 1, 55, 108
3, 65980, Note_off_c, 1, 55, 100
3, 65984, Note_on_c, 1, 51, 109
3, 66044, Note_off_c, 1, 51, 100
3, 66176, Note_on_c, 1, 62, 110
3, 66240, Note_on_c, 1, 59, 111
3, 66304, Note_on_c, 1, 56, 111
3, 66368, Note_on_c, 1, 52, 112
3, 66812, Note_off_c, 1, 62, 100
3, 66812, Note_off_c, 1, 59, 100
3, 66812, Note_off_c, 1, 56, 100
3, 66812, Note_off_c, 1, 52, 100
3, 66880, Note_on_c, 1, 51, 100
3, 66940, Note_off_c, 1, 51, 100
3, 66944, Note_on_c, 1, 56, 100
3, 67004, Note_off_c, 1, 56, 100
3, 67008, Note_on_c, 1, 60, 100
3, 67068, Note_off_c, 1, 60, 100
3, 67072, Note_on_c, 1, 63, 100
3, 67132, Note_off_c, 1, 63, 100
3, 67136, Note_on_c, 1, 68, 100
3, 67196, Note_off_c, 1, 68, 100
3, 67200, Note_on_c, 1, 72, 100
3, 67260, Note_off_c, 1, 72, 100
3, 67264, Note_on_c, 1, 71, 100
3, 67324, Note_off_c, 1, 71, 100
3, 67328, Note_on_c, 1, 73, 100
3, 67388, Note_off_c, 1, 73, 100
3, 67392, Note_on_c, 1, 72, 100
3, 67452, Note_off_c, 1, 72, 100
3, 67456, Note_on_c, 1, 70, 100
3, 67516, Note_off_c, 1, 70, 100
3, 67520, Note_on_c, 1, 68, 100
3, 67580, Note_off_c, 1, 68, 100
3, 67584, Note_on_c, 1, 73, 100
3, 67584, Note_on_c, 1, 61, 100
3, 68348, Note_off_c, 1, 73, 100
3, 68348, Note_off_c, 1, 61, 100
3, 68416, Note_on_c, 1, 39, 100
3, 68476, Note_off_c, 1, 39, 100
3, 68480, Note_on_c, 1, 44, 100
3, 68540, Note_off_c, 1, 44, 100
3, 68544, Note_on_c, 1, 48, 100
3, 68604, Note_off_c, 1, 48, 100
3, 68608, Note_on_c, 1, 51, 100
3, 68668, Note_off_c, 1, 51, 100
3, 68672, Note_on_c, 1, 56, 100
3, 68732, Note_off_c, 1, 56, 100
3, 68736, Note_on_c, 1, 60, 100
3, 68796, Note_off_c, 1, 60, 100
3, 68800, Note_on_c, 1, 59, 100
3, 68860, Note_off_c, 1, 59, 100
3, 68864, Note_on_c, 1, 61, 100
3, 68924, Note_off_c, 1, 61, 100
3, 68928, Note_on_c, 1, 60, 100
3, 68988, Note_off_c, 1, 60, 100
3, 68992, Note_on_c, 1, 58, 100
3, 69052, Note_off_c, 1, 58, 100
3, 69056, Note_on_c, 1, 56, 100
3, 69116, Note_off_c, 1, 56, 100
3, 69120, Note_on_c, 1, 61, 100
3, 69120, Note_on_c, 1, 49, 100
3, 69884, Note_off_c, 1, 61, 100
3, 69884, Note_off_c, 1, 49, 100
3, 69888, Note_on_c, 1, 56, 100
3, 70076, Note_off_c, 1, 56, 100
3, 70080, Note_on_c, 1, 51, 80
3, 70268, Note_off_c, 1, 51, 100
3, 70272, Note_on_c, 1, 55, 80
3, 70460, Note_off_c, 1, 55, 100
3, 70464, Note_on_c, 1, 51, 80
3, 70652, Note_off_c, 1, 51, 100
3, 70656, Note_on_c, 1, 56, 80
3, 70844, Note_off_c, 1, 56, 100
3, 70848, Note_on_c, 1, 51, 80
3, 71036, Note_off_c, 1, 51, 100
3, 71040, Note_on_c, 1, 48, 80
3, 71228, Note_off_c, 1, 48, 100
3, 71232, Note_on_c, 1, 44, 80
3, 71420, Note_off_c, 1, 44, 100
3, 71424, Note_on_c, 1, 43, 80
3, 71612, Note_off_c, 1, 43, 100
3, 71616, Note_on_c, 1, 39, 80
3, 71804, Note_off_c, 1, 39, 100
3, 71808, Note_on_c, 1, 44, 80
3, 71996, Note_off_c, 1, 44, 100
3, 72000, Note_on_c, 1, 48, 80
3, 72188, Note_off_c, 1, 48, 100
3, 72192, Note_on_c, 1, 51, 80
3, 72380, Note_off_c, 1, 51, 100
3, 72384, Note_on_c, 1, 53, 80
3, 72572, Note_off_c, 1, 53, 100
3, 72576, Note_on_c, 1, 51, 80
3, 72768, Note_on_c, 1, 49, 80
3, 72956, Note_off_c, 1, 49, 100
3, 72960, Note_on_c, 1, 48, 80
3, 73148, Note_off_c, 1, 51, 100
3, 73152, Note_on_c, 1, 56, 80
3, 73340, Note_off_c, 1, 48, 100
3, 73344, Note_on_c, 1, 46, 80
3, 73532, Note_off_c, 1, 56, 100
3, 73536, Note_on_c, 1, 55, 80
3, 73724, Note_off_c, 1, 46, 100
3, 73728, Note_on_c, 1, 44, 80
3, 73916, Note_off_c, 1, 55, 100
3, 73920, Note_on_c, 1, 56, 80
3, 74108, Note_off_c, 1, 44, 100
3, 74112, Note_on_c, 1, 49, 80
3, 74300, Note_off_c, 1, 56, 100
3, 74304, Note_on_c, 1, 58, 80
3, 74396, Note_off_c, 1, 58, 100
3, 74400, Note_on_c, 1, 61, 80
3, 74492, Note_off_c, 1, 49, 100
3, 74492, Note_off_c, 1, 61, 100
3, 74496, Note_on_c, 1, 51, 80
3, 74688, Note_on_c, 1, 60, 80
3, 74876, Note_off_c, 1, 51, 100
3, 74880, Note_on_c, 1, 51, 80
3, 75068, Note_off_c, 1, 60, 100
3, 75072, Note_on_c, 1, 55, 80
3, 75260, Note_off_c, 1, 51, 100
3, 75264, Note_on_c, 1, 51, 80
3, 75264, Note_on_c, 1, 44, 80
3, 75452, Note_off_c, 1, 55, 100
3, 75456, Note_on_c, 1, 56, 80
3, 75644, Note_off_c, 1, 51, 100
3, 75644, Note_off_c, 1, 44, 100
3, 75644, Note_off_c, 1, 56, 100
3, 75648, Note_on_c, 1, 58, 80
3, 75648, Note_on_c, 1, 51, 80
3, 75648, Note_on_c, 1, 46, 80
3, 75836, Note_off_c, 1, 58, 100
3, 75836, Note_off_c, 1, 51, 100
3, 75836, Note_off_c, 1, 46, 100
3, 75840, Note_on_c, 1, 59, 80
3, 75840, Note_on_c, 1, 51, 80
3, 75840, Note_on_c, 1, 47, 80
3, 76028, Note_off_c, 1, 59, 100
3, 76028, Note_off_c, 1, 51, 100
3, 76028, Note_off_c, 1, 47, 100
3, 76032, Note_on_c, 1, 60, 80
3, 76032, Note_on_c, 1, 51, 80
3, 76032, Note_on_c, 1, 48, 80
3, 76124, Note_off_c, 1, 60, 100
3, 76128, Note_on_c, 1, 56, 80
3, 76316, Note_off_c, 1, 56, 100
3, 76320, Note_on_c, 1, 56, 80
3, 76412, Note_off_c, 1, 51, 100
3, 76412, Note_off_c, 1, 48, 100
3, 76416, Note_on_c, 1, 51, 80
3, 76416, Note_on_c, 1, 46, 80
3, 76508, Note_off_c, 1, 56, 100
3, 76512, Note_on_c, 1, 55, 80
3, 76700, Note_off_c, 1, 55, 100
3, 76704, Note_on_c, 1, 55, 80
3, 76796, Note_off_c, 1, 51, 100
3, 76796, Note_off_c, 1, 46, 100
3, 76800, Note_on_c, 1, 44, 80
3, 76892, Note_off_c, 1, 55, 100
3, 76896, Note_on_c, 1, 56, 80
3, 77084, Note_off_c, 1, 56, 100
3, 77088, Note_on_c, 1, 56, 80
3, 77180, Note_off_c, 1, 44, 100
3, 77184, Note_on_c, 1, 49, 80
3, 77276, Note_off_c, 1, 56, 100
3, 77280, Note_on_c, 1, 57, 80
3, 77372, Note_off_c, 1, 57, 100
3, 77376, Note_on_c, 1, 58, 80
3, 77468, Note_off_c, 1, 58, 100
3, 77472, Note_on_c, 1, 61, 80
3, 77564, Note_off_c, 1, 49, 100
3, 77568, Note_on_c, 1, 51, 80
3, 77756, Note_off_c, 1, 61, 100
3, 77760, Note_on_c, 1, 60, 80
3, 77948, Note_off_c, 1, 51, 100
3, 77948, Note_off_c, 1, 60, 100
3, 77952, Note_on_c, 1, 61, 80
3, 77952, Note_on_c, 1, 51, 80
3, 78140, Note_off_c, 1, 61, 100
3, 78144, Note_on_c, 1, 61, 80
3, 78144, Note_on_c, 1, 58, 80
3, 78332, Note_off_c, 1, 51, 100
3, 78332, Note_off_c, 1, 61, 100
3, 78332, Note_off_c, 1, 58, 100
3, 78336, Note_on_c, 1, 56, 80
3, 78336, Note_on_c, 1, 44, 80
3, 78524, Note_off_c, 1, 56, 100
3, 78524, Note_off_c, 1, 44, 100
3, 78528, Note_on_c, 1, 48, 70
3, 78716, Note_off_c, 1, 48, 100
3, 78720, Note_on_c, 1, 51, 70
3, 78908, Note_off_c, 1, 51, 100
3, 78912, Note_on_c, 1, 56, 70
3, 79100, Note_off_c, 1, 56, 100
3, 79104, Note_on_c, 1, 55, 70
3, 79292, Note_off_c, 1, 55, 100
3, 79296, Note_on_c, 1, 53, 70
3, 79484, Note_off_c, 1, 53, 100
3, 79488, Note_on_c, 1, 51, 70
3, 79676, Note_off_c, 1, 51, 100
3, 79680, Note_on_c, 1, 55, 70
3, 79868, Note_off_c, 1, 55, 100
3, 79872, Note_on_c, 1, 56, 70
3, 80060, Note_off_c, 1, 56, 100
3, 80064, Note_on_c, 1, 51, 70
3, 80252, Note_off_c, 1, 51, 100
3, 80256, Note_on_c, 1, 48, 70
3, 80444, Note_off_c, 1, 48, 100
3, 80448, Note_on_c, 1, 44, 70
3, 80636, Note_off_c, 1, 44, 100
3, 80640, Note_on_c, 1, 43, 70
3, 80828, Note_off_c, 1, 43, 100
3, 80832, Note_on_c, 1, 41, 70
3, 81020, Note_off_c, 1, 41, 100
3, 81024, Note_on_c, 1, 39, 70
3, 81212, Note_off_c, 1, 39, 100
3, 81216, Note_on_c, 1, 43, 70
3, 81404, Note_off_c, 1, 43, 100
3, 81408, Note_on_c, 1, 44, 70
3, 81596, Note_off_c, 1, 44, 100
3, 81600, Note_on_c, 1, 39, 70
3, 81788, Note_off_c, 1, 39, 100
3, 81792, Note_on_c, 1, 36, 70
3, 81980, Note_off_c, 1, 36, 100
3, 81984, Note_on_c, 1, 32, 70
3, 81984, Note_on_c, 1, 44, 70
3, 82172, Note_off_c, 1, 32, 100
3, 82172, Note_off_c, 1, 44, 100
3, 82176, Note_on_c, 1, 43, 70
3, 82176, Note_on_c, 1, 31, 70
3, 82364, Note_off_c, 1, 43, 100
3, 82364, Note_off_c, 1, 31, 100
3, 82368, Note_on_c, 1, 41, 70
3, 82368, Note_on_c, 1, 29, 70
3, 82556, Note_off_c, 1, 41, 100
3, 82556, Note_off_c, 1, 29, 100
3, 82560, Note_on_c, 1, 43, 70
3, 82560, Note_on_c, 1, 31, 70
3, 82748, Note_off_c, 1, 43, 100
3, 82748, Note_off_c, 1, 31, 100
3, 82752, Note_on_c, 1, 39, 70
3, 82752, Note_on_c, 1, 27, 70
3, 82940, Note_off_c, 1, 39, 100
3, 82940, Note_off_c, 1, 27, 100
3, 82944, Control_c, 1, 64, 127
3, 82944, Note_on_c, 1, 32, 70
3, 83136, Note_on_c, 1, 44, 70
3, 83324, Note_off_c, 1, 32, 100
3, 83328, Note_on_c, 1, 39, 69
3, 83516, Note_off_c, 1, 44, 100
3, 83520, Note_on_c, 1, 36, 68
3, 83708, Note_off_c, 1, 39, 100
3, 83712, Note_on_c, 1, 32, 66
3, 83900, Note_off_c, 1, 36, 100
3, 83904, Note_on_c, 1, 44, 67
3, 84092, Note_off_c, 1, 32, 100
3, 84096, Note_on_c, 1, 39, 66
3, 84288, Note_on_c, 1, 36, 65
3, 84476, Note_off_c, 1, 44, 100
3, 84480, Note_on_c, 1, 32, 64
3, 84668, Note_off_c, 1, 39, 100
3, 84672, Note_on_c, 1, 44, 63
3, 84860, Note_off_c, 1, 36, 100
3, 84864, Note_on_c, 1, 39, 62
3, 85052, Note_off_c, 1, 32, 100
3, 85056, Note_on_c, 1, 36, 61
3, 85244, Note_off_c, 1, 44, 100
3, 85248, Note_on_c, 1, 32, 61
3, 85436, Note_off_c, 1, 39, 100
3, 85628, Note_off_c, 1, 36, 100
3, 85628, Note_off_c, 1, 32, 100
3, 85632, Note_on_c, 1, 36, 60
3, 86012, Note_off_c, 1, 36, 100
3, 86016, Note_on_c, 1, 32, 60
3, 86776, Control_c, 1, 64, 0
3, 86780, Note_off_c, 1, 32, 100
3, 86780, End_track
0, 0, End_of_file
