0, 0, Header, 1, 3, 384
1, 0, Start_track
1, 0, Title_t, "L.v.Beethoven 1mov - Piano Sonata No.5 in C minor Op.10-1\000"
1, 0, Copyright_t, "Copyright(C) 1995-2009, Suzuki Software\000"
1, 0, Sequencer_specific, 9, 67, 123, 0, 88, 70, 48, 50, 0, 1
1, 0, Text_t, "XFhd:2000/03/26:JP:Classical::::L.v.Beethoven:::Kaoru Suzuki\000"
1, 0, Text_t, "XFln:JP:\203s\203A\203m\203\\\203i\203^\221æ5\224Ô\203n\222Z\222²\215ì\225i10-1\201`\221æ1\212y\217Í:L.v.\203x\201[\203g\201[\203\224\203F\203\223:::\227é\202¿\202á\202ñ:\227é\202¿\202á\202ñ\000"
1, 0, Time_signature, 3, 2, 96, 8
1, 0, Sequencer_specific, 3, 0, 0, 65
1, 0, Sequencer_specific, 5, 0, 0, 119, 14, 0
1, 0, Tempo, 285714
1, 62208, Tempo, 315789
1, 63744, Tempo, 285714
1, 118656, Tempo, 300000
1, 120960, Tempo, 285714
1, 137088, Tempo, 300000
1, 138240, Tempo, 315789
1, 139392, Tempo, 300000
1, 141696, Tempo, 285714
1, 239616, Tempo, 315789
1, 241920, Tempo, 285714
1, 329472, Tempo, 300000
1, 330624, Tempo, 315789
1, 331776, Tempo, 300000
1, 336384, Tempo, 285714
1, 442368, Tempo, 315789
1, 443520, Tempo, 333333
1, 444672, Tempo, 348837
1, 444672, End_track
2, 0, Start_track
2, 0, Title_t, "Right"
2, 0, Control_c, 0, 0, 0
2, 0, Program_c, 0, 0
2, 0, Control_c, 0, 7, 100
2, 0, Control_c, 0, 10, 78
2, 0, Control_c, 0, 91, 127
2, 0, Key_signature, -3, "minor"
2, 0, Note_on_c, 0, 72, 110
2, 0, Note_on_c, 0, 67, 110
2, 0, Note_on_c, 0, 63, 110
2, 572, Note_off_c, 0, 72, 100
2, 572, Note_off_c, 0, 67, 100
2, 572, Note_off_c, 0, 63, 100
2, 672, Note_on_c, 0, 67, 110
2, 764, Note_off_c, 0, 67, 100
2, 768, Note_on_c, 0, 75, 110
2, 1052, Note_off_c, 0, 75, 100
2, 1056, Note_on_c, 0, 72, 110
2, 1148, Note_off_c, 0, 72, 100
2, 1152, Note_on_c, 0, 79, 110
2, 1436, Note_off_c, 0, 79, 100
2, 1440, Note_on_c, 0, 75, 110
2, 1532, Note_off_c, 0, 75, 100
2, 1536, Note_on_c, 0, 84, 110
2, 1820, Note_off_c, 0, 84, 100
2, 1824, Note_on_c, 0, 79, 110
2, 1916, Note_off_c, 0, 79, 100
2, 1920, Note_on_c, 0, 87, 110
2, 2300, Note_off_c, 0, 87, 100
2, 2304, Note_on_c, 0, 87, 110
2, 2684, Note_off_c, 0, 87, 100
2, 3072, Note_on_c, 0, 72, 80
2, 3072, Note_on_c, 0, 67, 80
2, 3452, Note_off_c, 0, 72, 100
2, 3452, Note_off_c, 0, 67, 100
2, 3456, Note_on_c, 0, 67, 80
2, 3456, Note_on_c, 0, 72, 80
2, 4220, Note_off_c, 0, 67, 100
2, 4220, Note_off_c, 0, 72, 100
2, 4224, Note_on_c, 0, 71, 80
2, 4224, Note_on_c, 0, 67, 80
2, 4604, Note_off_c, 0, 71, 100
2, 4604, Note_off_c, 0, 67, 100
2, 4608, Note_on_c, 0, 71, 110
2, 4608, Note_on_c, 0, 68, 110
2, 4608, Note_on_c, 0, 65, 110
2, 5180, Note_off_c, 0, 71, 100
2, 5180, Note_off_c, 0, 68, 100
2, 5180, Note_off_c, 0, 65, 100
2, 5280, Note_on_c, 0, 71, 110
2, 5372, Note_off_c, 0, 71, 100
2, 5376, Note_on_c, 0, 77, 110
2, 5660, Note_off_c, 0, 77, 100
2, 5664, Note_on_c, 0, 74, 110
2, 5756, Note_off_c, 0, 74, 100
2, 5760, Note_on_c, 0, 83, 110
2, 6044, Note_off_c, 0, 83, 100
2, 6048, Note_on_c, 0, 77, 110
2, 6140, Note_off_c, 0, 77, 100
2, 6144, Note_on_c, 0, 86, 110
2, 6428, Note_off_c, 0, 86, 100
2, 6432, Note_on_c, 0, 83, 110
2, 6524, Note_off_c, 0, 83, 100
2, 6528, Note_on_c, 0, 89, 110
2, 6908, Note_off_c, 0, 89, 100
2, 6912, Note_on_c, 0, 89, 110
2, 7292, Note_off_c, 0, 89, 100
2, 7680, Note_on_c, 0, 74, 80
2, 7680, Note_on_c, 0, 71, 80
2, 8060, Note_off_c, 0, 74, 100
2, 8060, Note_off_c, 0, 71, 100
2, 8064, Note_on_c, 0, 74, 81
2, 8064, Note_on_c, 0, 71, 81
2, 8828, Note_off_c, 0, 74, 100
2, 8828, Note_off_c, 0, 71, 100
2, 8832, Note_on_c, 0, 72, 83
2, 9212, Note_off_c, 0, 72, 100
2, 9216, Note_on_c, 0, 72, 85
2, 9264, Note_on_c, 0, 75, 85
2, 9308, Note_off_c, 0, 72, 100
2, 9308, Note_off_c, 0, 75, 100
2, 9312, Note_on_c, 0, 79, 85
2, 9788, Note_off_c, 0, 79, 100
2, 9792, Note_on_c, 0, 77, 87
2, 9980, Note_off_c, 0, 77, 100
2, 9984, Note_on_c, 0, 75, 87
2, 10364, Note_off_c, 0, 75, 100
2, 10368, Note_on_c, 0, 74, 89
2, 11132, Note_off_c, 0, 74, 100
2, 11136, Note_on_c, 0, 72, 91
2, 11516, Note_off_c, 0, 72, 100
2, 11520, Note_on_c, 0, 67, 93
2, 11568, Note_on_c, 0, 72, 93
2, 11612, Note_off_c, 0, 67, 100
2, 11616, Note_on_c, 0, 75, 93
2, 11660, Note_off_c, 0, 72, 100
2, 11660, Note_off_c, 0, 75, 100
2, 11664, Note_on_c, 0, 79, 93
2, 12092, Note_off_c, 0, 79, 100
2, 12096, Note_on_c, 0, 77, 95
2, 12284, Note_off_c, 0, 77, 100
2, 12288, Note_on_c, 0, 75, 95
2, 12668, Note_off_c, 0, 75, 100
2, 12672, Note_on_c, 0, 74, 97
2, 12672, Note_on_c, 0, 71, 97
2, 13436, Note_off_c, 0, 74, 100
2, 13436, Note_off_c, 0, 71, 100
2, 13440, Note_on_c, 0, 72, 99
2, 13820, Note_off_c, 0, 72, 100
2, 13824, Note_on_c, 0, 67, 100
2, 13872, Note_on_c, 0, 72, 100
2, 13916, Note_off_c, 0, 67, 100
2, 13920, Note_on_c, 0, 75, 100
2, 13964, Note_off_c, 0, 72, 100
2, 13964, Note_off_c, 0, 75, 100
2, 13968, Note_on_c, 0, 79, 110
2, 13968, Note_on_c, 0, 67, 113
2, 14396, Note_off_c, 0, 79, 100
2, 14396, Note_off_c, 0, 67, 100
2, 14400, Note_on_c, 0, 77, 100
2, 14400, Note_on_c, 0, 65, 100
2, 14588, Note_off_c, 0, 77, 100
2, 14588, Note_off_c, 0, 65, 100
2, 14592, Note_on_c, 0, 75, 100
2, 14592, Note_on_c, 0, 63, 100
2, 15356, Note_off_c, 0, 63, 100
2, 15356, Note_off_c, 0, 75, 100
2, 15360, Note_on_c, 0, 74, 100
2, 15360, Note_on_c, 0, 62, 100
2, 15740, Note_off_c, 0, 74, 100
2, 15740, Note_off_c, 0, 62, 100
2, 15744, Note_on_c, 0, 72, 100
2, 15744, Note_on_c, 0, 60, 100
2, 16508, Note_off_c, 0, 60, 100
2, 16508, Note_off_c, 0, 72, 100
2, 16512, Note_on_c, 0, 71, 100
2, 16512, Note_on_c, 0, 59, 100
2, 16892, Note_off_c, 0, 71, 100
2, 16892, Note_off_c, 0, 59, 100
2, 16896, Note_on_c, 0, 68, 100
2, 16896, Note_on_c, 0, 56, 100
2, 17660, Note_off_c, 0, 56, 100
2, 17660, Note_off_c, 0, 68, 100
2, 17664, Note_on_c, 0, 67, 100
2, 17664, Note_on_c, 0, 55, 100
2, 18044, Note_off_c, 0, 67, 100
2, 18044, Note_off_c, 0, 55, 100
2, 18816, Note_on_c, 0, 59, 70
2, 18940, Note_off_c, 0, 59, 100
2, 18944, Note_on_c, 0, 62, 70
2, 19068, Note_off_c, 0, 62, 100
2, 19072, Note_on_c, 0, 65, 70
2, 19196, Note_off_c, 0, 65, 100
2, 19200, Note_on_c, 0, 68, 70
2, 19324, Note_off_c, 0, 68, 100
2, 19328, Note_on_c, 0, 67, 70
2, 19452, Note_off_c, 0, 67, 100
2, 19456, Note_on_c, 0, 65, 70
2, 19580, Note_off_c, 0, 65, 100
2, 19584, Note_on_c, 0, 63, 70
2, 19964, Note_off_c, 0, 63, 100
2, 21120, Note_on_c, 0, 53, 70
2, 21244, Note_off_c, 0, 53, 100
2, 21248, Note_on_c, 0, 56, 70
2, 21372, Note_off_c, 0, 56, 100
2, 21376, Note_on_c, 0, 60, 70
2, 21500, Note_off_c, 0, 60, 100
2, 21504, Note_on_c, 0, 65, 70
2, 21628, Note_off_c, 0, 65, 100
2, 21632, Note_on_c, 0, 63, 70
2, 21756, Note_off_c, 0, 63, 100
2, 21760, Note_on_c, 0, 62, 70
2, 21884, Note_off_c, 0, 62, 100
2, 21888, Note_on_c, 0, 60, 70
2, 22268, Note_off_c, 0, 60, 100
2, 23424, Note_on_c, 0, 55, 120
2, 23548, Note_off_c, 0, 55, 100
2, 23552, Note_on_c, 0, 59, 120
2, 23676, Note_off_c, 0, 59, 100
2, 23680, Note_on_c, 0, 62, 120
2, 23804, Note_off_c, 0, 62, 100
2, 23808, Note_on_c, 0, 65, 120
2, 23932, Note_off_c, 0, 65, 100
2, 23936, Note_on_c, 0, 62, 120
2, 24060, Note_off_c, 0, 62, 100
2, 24064, Note_on_c, 0, 59, 120
2, 24188, Note_off_c, 0, 59, 100
2, 24192, Note_on_c, 0, 60, 120
2, 24192, Note_on_c, 0, 55, 120
2, 24192, Note_on_c, 0, 51, 120
2, 24764, Note_off_c, 0, 60, 100
2, 24764, Note_off_c, 0, 55, 100
2, 24764, Note_off_c, 0, 51, 100
2, 24864, Note_on_c, 0, 60, 120
2, 24956, Note_off_c, 0, 60, 100
2, 24960, Note_on_c, 0, 67, 120
2, 25244, Note_off_c, 0, 67, 100
2, 25248, Note_on_c, 0, 63, 120
2, 25340, Note_off_c, 0, 63, 100
2, 25344, Note_on_c, 0, 72, 120
2, 25628, Note_off_c, 0, 72, 100
2, 25632, Note_on_c, 0, 67, 120
2, 25724, Note_off_c, 0, 67, 100
2, 25728, Note_on_c, 0, 75, 120
2, 26012, Note_off_c, 0, 75, 100
2, 26016, Note_on_c, 0, 72, 120
2, 26108, Note_off_c, 0, 72, 100
2, 26112, Note_on_c, 0, 79, 120
2, 26112, Note_on_c, 0, 67, 120
2, 26492, Note_off_c, 0, 79, 100
2, 26492, Note_off_c, 0, 67, 100
2, 26496, Note_on_c, 0, 79, 120
2, 26496, Note_on_c, 0, 67, 120
2, 26876, Note_off_c, 0, 79, 100
2, 26876, Note_off_c, 0, 67, 100
2, 27168, Note_on_c, 0, 59, 120
2, 27260, Note_off_c, 0, 59, 100
2, 27264, Note_on_c, 0, 67, 120
2, 27548, Note_off_c, 0, 67, 100
2, 27552, Note_on_c, 0, 62, 120
2, 27644, Note_off_c, 0, 62, 100
2, 27648, Note_on_c, 0, 71, 120
2, 27932, Note_off_c, 0, 71, 100
2, 27936, Note_on_c, 0, 67, 120
2, 28028, Note_off_c, 0, 67, 100
2, 28032, Note_on_c, 0, 74, 120
2, 28316, Note_off_c, 0, 74, 100
2, 28320, Note_on_c, 0, 71, 120
2, 28412, Note_off_c, 0, 71, 100
2, 28416, Note_on_c, 0, 79, 120
2, 28416, Note_on_c, 0, 67, 120
2, 28796, Note_off_c, 0, 79, 100
2, 28796, Note_off_c, 0, 67, 100
2, 28800, Note_on_c, 0, 79, 120
2, 28800, Note_on_c, 0, 67, 120
2, 29180, Note_off_c, 0, 79, 100
2, 29180, Note_off_c, 0, 67, 100
2, 29472, Note_on_c, 0, 63, 120
2, 29564, Note_off_c, 0, 63, 100
2, 29568, Note_on_c, 0, 67, 120
2, 29852, Note_off_c, 0, 67, 100
2, 29856, Note_on_c, 0, 63, 120
2, 29948, Note_off_c, 0, 63, 100
2, 29952, Note_on_c, 0, 72, 120
2, 30236, Note_off_c, 0, 72, 100
2, 30240, Note_on_c, 0, 67, 120
2, 30332, Note_off_c, 0, 67, 100
2, 30336, Note_on_c, 0, 75, 120
2, 30620, Note_off_c, 0, 75, 100
2, 30624, Note_on_c, 0, 72, 120
2, 30716, Note_off_c, 0, 72, 100
2, 30720, Note_on_c, 0, 79, 120
2, 31004, Note_off_c, 0, 79, 100
2, 31008, Note_on_c, 0, 75, 120
2, 31100, Note_off_c, 0, 75, 100
2, 31104, Note_on_c, 0, 74, 120
2, 31484, Note_off_c, 0, 74, 100
2, 31488, Note_on_c, 0, 89, 120
2, 31868, Note_off_c, 0, 89, 100
2, 32256, Note_on_c, 0, 71, 120
2, 32636, Note_off_c, 0, 71, 100
2, 32640, Note_on_c, 0, 86, 120
2, 33020, Note_off_c, 0, 86, 100
2, 33408, Note_on_c, 0, 72, 120
2, 33788, Note_off_c, 0, 72, 100
2, 33792, Note_on_c, 0, 84, 120
2, 34172, Note_off_c, 0, 84, 100
2, 37248, Note_on_c, 0, 67, 80
2, 37632, Note_on_c, 0, 75, 80
2, 38012, Note_off_c, 0, 67, 100
2, 38012, Note_off_c, 0, 75, 100
2, 38016, Note_on_c, 0, 68, 80
2, 38016, Note_on_c, 0, 75, 80
2, 38780, Note_off_c, 0, 75, 100
2, 38784, Note_on_c, 0, 75, 80
2, 39164, Note_off_c, 0, 68, 100
2, 39168, Note_on_c, 0, 67, 80
2, 39548, Note_off_c, 0, 75, 100
2, 39552, Note_on_c, 0, 77, 80
2, 39932, Note_off_c, 0, 77, 100
2, 39936, Note_on_c, 0, 73, 80
2, 40316, Note_off_c, 0, 67, 100
2, 40320, Note_on_c, 0, 68, 80
2, 40700, Note_off_c, 0, 73, 100
2, 40704, Note_on_c, 0, 71, 80
2, 41084, Note_off_c, 0, 71, 100
2, 41088, Note_on_c, 0, 72, 80
2, 41468, Note_off_c, 0, 68, 100
2, 41468, Note_off_c, 0, 72, 100
2, 41856, Note_on_c, 0, 76, 80
2, 42240, Note_on_c, 0, 84, 80
2, 42620, Note_off_c, 0, 76, 100
2, 42620, Note_off_c, 0, 84, 100
2, 42624, Note_on_c, 0, 77, 80
2, 42624, Note_on_c, 0, 84, 80
2, 43388, Note_off_c, 0, 84, 100
2, 43392, Note_on_c, 0, 84, 80
2, 43772, Note_off_c, 0, 77, 100
2, 43776, Note_on_c, 0, 76, 80
2, 44156, Note_off_c, 0, 84, 100
2, 44160, Note_on_c, 0, 85, 80
2, 44540, Note_off_c, 0, 85, 100
2, 44544, Note_on_c, 0, 82, 80
2, 44924, Note_off_c, 0, 76, 100
2, 44928, Note_on_c, 0, 72, 80
2, 45308, Note_off_c, 0, 82, 100
2, 45312, Note_on_c, 0, 79, 80
2, 45692, Note_off_c, 0, 79, 100
2, 45696, Note_on_c, 0, 80, 80
2, 46076, Note_off_c, 0, 72, 100
2, 46076, Note_off_c, 0, 80, 100
2, 46464, Note_on_c, 0, 72, 80
2, 46848, Note_on_c, 0, 80, 80
2, 47228, Note_off_c, 0, 72, 100
2, 47228, Note_off_c, 0, 80, 100
2, 47232, Note_on_c, 0, 73, 80
2, 47232, Note_on_c, 0, 80, 80
2, 47996, Note_off_c, 0, 80, 100
2, 48000, Note_on_c, 0, 80, 80
2, 48380, Note_off_c, 0, 73, 100
2, 48384, Note_on_c, 0, 72, 80
2, 48764, Note_off_c, 0, 80, 100
2, 48768, Note_on_c, 0, 82, 80
2, 49148, Note_off_c, 0, 82, 100
2, 49152, Note_on_c, 0, 78, 80
2, 49532, Note_off_c, 0, 72, 100
2, 49536, Note_on_c, 0, 68, 80
2, 49916, Note_off_c, 0, 78, 100
2, 49920, Note_on_c, 0, 76, 80
2, 50300, Note_off_c, 0, 76, 100
2, 50304, Note_on_c, 0, 77, 80
2, 50684, Note_off_c, 0, 68, 100
2, 50688, Note_on_c, 0, 69, 80
2, 51068, Note_off_c, 0, 77, 100
2, 51072, Note_on_c, 0, 78, 80
2, 51452, Note_off_c, 0, 78, 100
2, 51456, Note_on_c, 0, 75, 80
2, 51836, Note_off_c, 0, 69, 100
2, 51840, Note_on_c, 0, 65, 80
2, 52220, Note_off_c, 0, 75, 100
2, 52224, Note_on_c, 0, 75, 80
2, 52604, Note_off_c, 0, 75, 100
2, 52608, Note_on_c, 0, 74, 80
2, 52988, Note_off_c, 0, 65, 100
2, 52992, Note_on_c, 0, 66, 80
2, 53372, Note_off_c, 0, 74, 100
2, 53376, Note_on_c, 0, 75, 80
2, 53756, Note_off_c, 0, 75, 100
2, 53760, Note_on_c, 0, 66, 80
2, 53760, Note_on_c, 0, 63, 80
2, 54140, Note_off_c, 0, 66, 100
2, 54140, Note_off_c, 0, 66, 100
2, 54140, Note_off_c, 0, 63, 100
2, 54144, Note_on_c, 0, 65, 80
2, 54144, Note_on_c, 0, 62, 80
2, 54524, Note_off_c, 0, 65, 100
2, 54524, Note_off_c, 0, 62, 100
2, 55680, Note_on_c, 0, 72, 80
2, 56060, Note_off_c, 0, 72, 100
2, 56064, Note_on_c, 0, 72, 80
2, 56444, Note_off_c, 0, 72, 100
2, 56448, Note_on_c, 0, 72, 80
2, 56828, Note_off_c, 0, 72, 100
2, 56832, Note_on_c, 0, 70, 80
2, 57212, Note_off_c, 0, 70, 100
2, 57984, Note_on_c, 0, 68, 80
2, 58364, Note_off_c, 0, 68, 100
2, 58368, Note_on_c, 0, 68, 80
2, 58748, Note_off_c, 0, 68, 100
2, 58752, Note_on_c, 0, 68, 80
2, 59132, Note_off_c, 0, 68, 100
2, 59136, Note_on_c, 0, 67, 80
2, 59516, Note_off_c, 0, 67, 100
2, 60096, Note_on_c, 0, 72, 80
2, 60284, Note_off_c, 0, 72, 100
2, 60288, Note_on_c, 0, 71, 80
2, 60476, Note_off_c, 0, 71, 100
2, 60480, Note_on_c, 0, 72, 80
2, 60668, Note_off_c, 0, 72, 100
2, 60672, Note_on_c, 0, 74, 80
2, 60860, Note_off_c, 0, 74, 100
2, 60864, Note_on_c, 0, 72, 80
2, 61052, Note_off_c, 0, 72, 100
2, 61248, Note_on_c, 0, 70, 80
2, 61436, Note_off_c, 0, 70, 100
2, 61440, Note_on_c, 0, 69, 80
2, 61628, Note_off_c, 0, 69, 100
2, 61632, Note_on_c, 0, 70, 80
2, 61820, Note_off_c, 0, 70, 100
2, 61824, Note_on_c, 0, 72, 80
2, 62012, Note_off_c, 0, 72, 100
2, 62016, Note_on_c, 0, 70, 80
2, 62204, Note_off_c, 0, 70, 100
2, 62400, Note_on_c, 0, 68, 80
2, 62588, Note_off_c, 0, 68, 100
2, 62592, Note_on_c, 0, 67, 80
2, 62780, Note_off_c, 0, 67, 100
2, 62784, Note_on_c, 0, 68, 80
2, 62972, Note_off_c, 0, 68, 100
2, 62976, Note_on_c, 0, 70, 80
2, 63164, Note_off_c, 0, 70, 100
2, 63168, Note_on_c, 0, 68, 80
2, 63356, Note_off_c, 0, 68, 100
2, 63360, Note_on_c, 0, 67, 80
2, 65084, Note_off_c, 0, 67, 100
2, 65088, Note_on_c, 0, 70, 80
2, 65276, Note_off_c, 0, 70, 100
2, 65280, Note_on_c, 0, 75, 80
2, 65660, Note_off_c, 0, 75, 100
2, 65664, Note_on_c, 0, 75, 80
2, 66812, Note_off_c, 0, 75, 100
2, 66816, Note_on_c, 0, 74, 80
2, 67196, Note_off_c, 0, 74, 100
2, 67968, Note_on_c, 0, 70, 80
2, 69116, Note_off_c, 0, 70, 100
2, 69120, Note_on_c, 0, 70, 80
2, 69212, Note_off_c, 0, 70, 100
2, 69216, Note_on_c, 0, 72, 80
2, 69308, Note_off_c, 0, 72, 100
2, 69312, Note_on_c, 0, 70, 80
2, 69404, Note_off_c, 0, 70, 100
2, 69408, Note_on_c, 0, 69, 80
2, 69500, Note_off_c, 0, 69, 100
2, 69504, Note_on_c, 0, 70, 80
2, 69692, Note_off_c, 0, 70, 100
2, 69696, Note_on_c, 0, 77, 80
2, 69884, Note_off_c, 0, 77, 100
2, 69888, Note_on_c, 0, 80, 94
2, 70268, Note_off_c, 0, 80, 100
2, 70272, Note_on_c, 0, 80, 80
2, 71420, Note_off_c, 0, 80, 100
2, 71424, Note_on_c, 0, 79, 80
2, 71804, Note_off_c, 0, 79, 100
2, 72576, Note_on_c, 0, 67, 80
2, 72764, Note_off_c, 0, 67, 100
2, 72768, Note_on_c, 0, 68, 80
2, 72956, Note_off_c, 0, 68, 100
2, 72960, Note_on_c, 0, 70, 80
2, 73148, Note_off_c, 0, 70, 100
2, 73152, Note_on_c, 0, 72, 80
2, 73340, Note_off_c, 0, 72, 100
2, 73344, Note_on_c, 0, 74, 80
2, 73532, Note_off_c, 0, 74, 100
2, 73536, Note_on_c, 0, 75, 80
2, 73724, Note_off_c, 0, 75, 100
2, 73728, Note_on_c, 0, 77, 80
2, 73916, Note_off_c, 0, 77, 100
2, 73920, Note_on_c, 0, 79, 80
2, 74108, Note_off_c, 0, 79, 100
2, 74112, Note_on_c, 0, 80, 80
2, 74300, Note_off_c, 0, 80, 100
2, 74304, Note_on_c, 0, 82, 80
2, 74492, Note_off_c, 0, 82, 100
2, 74496, Note_on_c, 0, 84, 80
2, 74684, Note_off_c, 0, 84, 100
2, 74688, Note_on_c, 0, 86, 80
2, 74876, Note_off_c, 0, 86, 100
2, 74880, Note_on_c, 0, 87, 106
2, 76028, Note_off_c, 0, 87, 100
2, 76032, Note_on_c, 0, 86, 80
2, 76412, Note_off_c, 0, 86, 100
2, 77184, Note_on_c, 0, 58, 80
2, 77372, Note_off_c, 0, 58, 100
2, 77376, Note_on_c, 0, 60, 80
2, 77564, Note_off_c, 0, 60, 100
2, 77568, Note_on_c, 0, 62, 80
2, 77756, Note_off_c, 0, 62, 100
2, 77760, Note_on_c, 0, 63, 80
2, 77948, Note_off_c, 0, 63, 100
2, 77952, Note_on_c, 0, 65, 80
2, 78140, Note_off_c, 0, 65, 100
2, 78144, Note_on_c, 0, 67, 80
2, 78332, Note_off_c, 0, 67, 100
2, 78336, Note_on_c, 0, 68, 80
2, 78524, Note_off_c, 0, 68, 100
2, 78528, Note_on_c, 0, 70, 80
2, 78716, Note_off_c, 0, 70, 100
2, 78720, Note_on_c, 0, 72, 80
2, 78908, Note_off_c, 0, 72, 100
2, 78912, Note_on_c, 0, 74, 80
2, 79100, Note_off_c, 0, 74, 100
2, 79104, Note_on_c, 0, 75, 80
2, 79292, Note_off_c, 0, 75, 100
2, 79296, Note_on_c, 0, 77, 80
2, 79484, Note_off_c, 0, 77, 100
2, 79488, Note_on_c, 0, 79, 80
2, 80636, Note_off_c, 0, 79, 100
2, 80640, Note_on_c, 0, 87, 85
2, 81404, Note_off_c, 0, 87, 100
2, 81408, Note_on_c, 0, 55, 88
2, 81788, Note_off_c, 0, 55, 100
2, 81792, Note_on_c, 0, 56, 90
2, 82940, Note_off_c, 0, 56, 100
2, 82944, Note_on_c, 0, 57, 95
2, 84092, Note_off_c, 0, 57, 100
2, 84096, Note_on_c, 0, 58, 110
2, 85244, Note_off_c, 0, 58, 100
2, 85248, Note_on_c, 0, 56, 110
2, 85344, Note_on_c, 0, 58, 110
2, 85436, Note_off_c, 0, 56, 100
2, 85440, Note_on_c, 0, 56, 110
2, 85532, Note_off_c, 0, 58, 100
2, 85536, Note_on_c, 0, 58, 110
2, 85628, Note_off_c, 0, 56, 100
2, 85632, Note_on_c, 0, 56, 110
2, 85724, Note_off_c, 0, 58, 100
2, 85728, Note_on_c, 0, 58, 110
2, 85820, Note_off_c, 0, 56, 100
2, 85824, Note_on_c, 0, 56, 110
2, 85916, Note_off_c, 0, 58, 100
2, 85920, Note_on_c, 0, 58, 110
2, 86012, Note_off_c, 0, 56, 100
2, 86016, Note_on_c, 0, 56, 110
2, 86108, Note_off_c, 0, 58, 100
2, 86112, Note_on_c, 0, 58, 110
2, 86204, Note_off_c, 0, 56, 100
2, 86208, Note_on_c, 0, 55, 110
2, 86300, Note_off_c, 0, 58, 100
2, 86304, Note_on_c, 0, 56, 110
2, 86396, Note_off_c, 0, 55, 100
2, 86396, Note_off_c, 0, 56, 100
2, 86400, Note_on_c, 0, 55, 100
2, 86588, Note_off_c, 0, 55, 100
2, 86592, Note_on_c, 0, 58, 100
2, 86780, Note_off_c, 0, 58, 100
2, 86784, Note_on_c, 0, 63, 100
2, 86972, Note_off_c, 0, 63, 100
2, 86976, Note_on_c, 0, 58, 100
2, 87164, Note_off_c, 0, 58, 100
2, 87168, Note_on_c, 0, 63, 100
2, 87356, Note_off_c, 0, 63, 100
2, 87360, Note_on_c, 0, 67, 100
2, 87548, Note_off_c, 0, 67, 100
2, 87552, Note_on_c, 0, 70, 100
2, 87740, Note_off_c, 0, 70, 100
2, 87744, Note_on_c, 0, 67, 100
2, 87932, Note_off_c, 0, 67, 100
2, 87936, Note_on_c, 0, 70, 100
2, 88124, Note_off_c, 0, 70, 100
2, 88128, Note_on_c, 0, 75, 100
2, 88316, Note_off_c, 0, 75, 100
2, 88320, Note_on_c, 0, 79, 100
2, 88508, Note_off_c, 0, 79, 100
2, 88512, Note_on_c, 0, 82, 100
2, 88700, Note_off_c, 0, 82, 100
2, 88704, Note_on_c, 0, 87, 110
2, 89084, Note_off_c, 0, 87, 100
2, 89472, Note_on_c, 0, 63, 120
2, 90620, Note_off_c, 0, 63, 100
2, 90624, Note_on_c, 0, 55, 110
2, 91004, Note_off_c, 0, 55, 100
2, 91008, Note_on_c, 0, 56, 110
2, 91772, Note_off_c, 0, 56, 100
2, 91776, Note_on_c, 0, 63, 120
2, 92156, Note_off_c, 0, 63, 100
2, 92160, Note_on_c, 0, 57, 110
2, 92924, Note_off_c, 0, 57, 100
2, 92928, Note_on_c, 0, 63, 120
2, 93308, Note_off_c, 0, 63, 100
2, 93312, Note_on_c, 0, 58, 110
2, 93500, Note_off_c, 0, 58, 100
2, 93504, Note_on_c, 0, 63, 110
2, 93692, Note_off_c, 0, 63, 100
2, 93696, Note_on_c, 0, 62, 111
2, 93884, Note_off_c, 0, 62, 100
2, 93888, Note_on_c, 0, 63, 112
2, 94076, Note_off_c, 0, 63, 100
2, 94080, Note_on_c, 0, 59, 113
2, 94268, Note_off_c, 0, 59, 100
2, 94272, Note_on_c, 0, 63, 114
2, 94460, Note_off_c, 0, 63, 100
2, 94464, Note_on_c, 0, 60, 115
2, 94652, Note_off_c, 0, 60, 100
2, 94656, Note_on_c, 0, 63, 115
2, 94844, Note_off_c, 0, 63, 100
2, 94848, Note_on_c, 0, 62, 116
2, 95036, Note_off_c, 0, 62, 100
2, 95040, Note_on_c, 0, 63, 117
2, 95228, Note_off_c, 0, 63, 100
2, 95232, Note_on_c, 0, 57, 118
2, 95420, Note_off_c, 0, 57, 100
2, 95424, Note_on_c, 0, 63, 119
2, 95612, Note_off_c, 0, 63, 100
2, 95616, Note_on_c, 0, 58, 120
2, 95804, Note_off_c, 0, 58, 100
2, 95808, Note_on_c, 0, 63, 120
2, 95996, Note_off_c, 0, 63, 100
2, 96000, Note_on_c, 0, 61, 120
2, 96188, Note_off_c, 0, 61, 100
2, 96192, Note_on_c, 0, 63, 120
2, 96380, Note_off_c, 0, 63, 100
2, 96384, Note_on_c, 0, 59, 120
2, 96572, Note_off_c, 0, 59, 100
2, 96576, Note_on_c, 0, 63, 120
2, 96764, Note_off_c, 0, 63, 100
2, 96768, Note_on_c, 0, 60, 120
2, 96956, Note_off_c, 0, 60, 100
2, 96960, Note_on_c, 0, 63, 120
2, 97148, Note_off_c, 0, 63, 100
2, 97152, Note_on_c, 0, 62, 120
2, 97340, Note_off_c, 0, 62, 100
2, 97344, Note_on_c, 0, 63, 120
2, 97532, Note_off_c, 0, 63, 100
2, 97536, Note_on_c, 0, 57, 120
2, 97724, Note_off_c, 0, 57, 100
2, 97728, Note_on_c, 0, 63, 120
2, 97916, Note_off_c, 0, 63, 100
2, 97920, Note_on_c, 0, 58, 120
2, 98300, Note_off_c, 0, 58, 100
2, 98592, Note_on_c, 0, 63, 120
2, 98684, Note_off_c, 0, 63, 100
2, 98688, Note_on_c, 0, 70, 120
2, 98972, Note_off_c, 0, 70, 100
2, 98976, Note_on_c, 0, 67, 120
2, 99068, Note_off_c, 0, 67, 100
2, 99072, Note_on_c, 0, 75, 120
2, 99452, Note_off_c, 0, 75, 100
2, 99744, Note_on_c, 0, 63, 120
2, 99836, Note_off_c, 0, 63, 100
2, 99840, Note_on_c, 0, 69, 120
2, 100124, Note_off_c, 0, 69, 100
2, 100128, Note_on_c, 0, 66, 120
2, 100220, Note_off_c, 0, 66, 100
2, 100224, Note_on_c, 0, 75, 120
2, 100604, Note_off_c, 0, 75, 100
2, 100896, Note_on_c, 0, 63, 120
2, 100988, Note_off_c, 0, 63, 100
2, 100992, Note_on_c, 0, 70, 120
2, 101276, Note_off_c, 0, 70, 100
2, 101280, Note_on_c, 0, 67, 120
2, 101372, Note_off_c, 0, 67, 100
2, 101376, Note_on_c, 0, 75, 120
2, 101756, Note_off_c, 0, 75, 100
2, 102048, Note_on_c, 0, 72, 120
2, 102140, Note_off_c, 0, 72, 100
2, 102144, Note_on_c, 0, 78, 120
2, 102428, Note_off_c, 0, 78, 100
2, 102432, Note_on_c, 0, 75, 120
2, 102524, Note_off_c, 0, 75, 100
2, 102528, Note_on_c, 0, 79, 120
2, 103100, Note_off_c, 0, 79, 100
2, 103104, Note_on_c, 0, 75, 120
2, 103292, Note_off_c, 0, 75, 100
2, 103296, Note_on_c, 0, 75, 120
2, 103484, Note_off_c, 0, 75, 100
2, 103488, Note_on_c, 0, 70, 120
2, 103676, Note_off_c, 0, 70, 100
2, 103680, Note_on_c, 0, 70, 120
2, 103868, Note_off_c, 0, 70, 100
2, 103872, Note_on_c, 0, 67, 120
2, 104060, Note_off_c, 0, 67, 100
2, 104064, Note_on_c, 0, 67, 120
2, 104252, Note_off_c, 0, 67, 100
2, 104256, Note_on_c, 0, 63, 120
2, 104444, Note_off_c, 0, 63, 100
2, 104448, Note_on_c, 0, 63, 120
2, 104636, Note_off_c, 0, 63, 100
2, 104640, Note_on_c, 0, 58, 120
2, 104828, Note_off_c, 0, 58, 100
2, 104832, Note_on_c, 0, 58, 120
2, 105020, Note_off_c, 0, 58, 100
2, 105024, Note_on_c, 0, 55, 120
2, 105212, Note_off_c, 0, 55, 100
2, 105216, Note_on_c, 0, 55, 120
2, 105404, Note_off_c, 0, 55, 100
2, 105408, Note_on_c, 0, 51, 120
2, 105596, Note_off_c, 0, 51, 100
2, 105600, Note_on_c, 0, 51, 120
2, 105788, Note_off_c, 0, 51, 100
2, 105792, Note_on_c, 0, 46, 120
2, 105980, Note_off_c, 0, 46, 100
2, 106752, Note_on_c, 0, 62, 120
2, 106752, Note_on_c, 0, 58, 120
2, 106752, Note_on_c, 0, 56, 120
2, 106752, Note_on_c, 0, 53, 120
2, 107132, Note_off_c, 0, 62, 100
2, 107132, Note_off_c, 0, 58, 100
2, 107132, Note_off_c, 0, 56, 100
2, 107132, Note_off_c, 0, 53, 100
2, 107136, Note_on_c, 0, 63, 120
2, 107136, Note_on_c, 0, 58, 120
2, 107136, Note_on_c, 0, 55, 120
2, 107516, Note_off_c, 0, 63, 100
2, 107516, Note_off_c, 0, 58, 100
2, 107516, Note_off_c, 0, 55, 100
2, 108672, Note_on_c, 0, 70, 100
2, 108672, Note_on_c, 0, 68, 100
2, 108672, Note_on_c, 0, 65, 100
2, 108672, Note_on_c, 0, 62, 100
2, 109052, Note_off_c, 0, 70, 100
2, 109052, Note_off_c, 0, 68, 100
2, 109052, Note_off_c, 0, 65, 100
2, 109052, Note_off_c, 0, 62, 100
2, 109056, Note_on_c, 0, 70, 100
2, 109056, Note_on_c, 0, 68, 100
2, 109056, Note_on_c, 0, 65, 100
2, 109056, Note_on_c, 0, 62, 100
2, 109436, Note_off_c, 0, 70, 100
2, 109436, Note_off_c, 0, 68, 100
2, 109436, Note_off_c, 0, 65, 100
2, 109436, Note_off_c, 0, 62, 100
2, 109440, Note_on_c, 0, 72, 100
2, 109440, Note_on_c, 0, 67, 100
2, 109440, Note_on_c, 0, 63, 100
2, 109820, Note_off_c, 0, 72, 100
2, 109824, Note_on_c, 0, 70, 100
2, 110204, Note_off_c, 0, 67, 100
2, 110204, Note_off_c, 0, 63, 100
2, 110204, Note_off_c, 0, 70, 100
2, 110976, Note_on_c, 0, 74, 100
2, 110976, Note_on_c, 0, 68, 100
2, 110976, Note_on_c, 0, 65, 100
2, 111356, Note_off_c, 0, 74, 100
2, 111356, Note_off_c, 0, 68, 100
2, 111356, Note_off_c, 0, 65, 100
2, 111360, Note_on_c, 0, 74, 100
2, 111360, Note_on_c, 0, 68, 100
2, 111360, Note_on_c, 0, 65, 100
2, 111740, Note_off_c, 0, 74, 100
2, 111740, Note_off_c, 0, 68, 100
2, 111740, Note_off_c, 0, 65, 100
2, 111744, Note_on_c, 0, 77, 100
2, 111744, Note_on_c, 0, 70, 100
2, 111744, Note_on_c, 0, 67, 100
2, 112124, Note_off_c, 0, 77, 100
2, 112128, Note_on_c, 0, 75, 100
2, 112508, Note_off_c, 0, 70, 100
2, 112508, Note_off_c, 0, 67, 100
2, 112508, Note_off_c, 0, 75, 100
2, 113280, Note_on_c, 0, 70, 100
2, 113280, Note_on_c, 0, 68, 100
2, 113280, Note_on_c, 0, 65, 100
2, 113280, Note_on_c, 0, 62, 100
2, 113660, Note_off_c, 0, 70, 100
2, 113660, Note_off_c, 0, 68, 100
2, 113660, Note_off_c, 0, 65, 100
2, 113660, Note_off_c, 0, 62, 100
2, 113664, Note_on_c, 0, 70, 100
2, 113664, Note_on_c, 0, 68, 100
2, 113664, Note_on_c, 0, 65, 100
2, 113664, Note_on_c, 0, 62, 100
2, 114044, Note_off_c, 0, 70, 100
2, 114044, Note_off_c, 0, 68, 100
2, 114044, Note_off_c, 0, 65, 100
2, 114044, Note_off_c, 0, 62, 100
2, 114048, Note_on_c, 0, 72, 100
2, 114048, Note_on_c, 0, 67, 100
2, 114048, Note_on_c, 0, 63, 100
2, 114428, Note_off_c, 0, 72, 100
2, 114432, Note_on_c, 0, 70, 100
2, 114812, Note_off_c, 0, 67, 100
2, 114812, Note_off_c, 0, 63, 100
2, 114812, Note_off_c, 0, 70, 100
2, 115584, Note_on_c, 0, 62, 80
2, 115584, Note_on_c, 0, 56, 80
2, 115584, Note_on_c, 0, 53, 80
2, 115964, Note_off_c, 0, 62, 100
2, 115964, Note_off_c, 0, 56, 100
2, 115964, Note_off_c, 0, 53, 100
2, 115968, Note_on_c, 0, 62, 80
2, 115968, Note_on_c, 0, 56, 80
2, 115968, Note_on_c, 0, 53, 80
2, 116348, Note_off_c, 0, 62, 100
2, 116348, Note_off_c, 0, 56, 100
2, 116348, Note_off_c, 0, 53, 100
2, 116352, Note_on_c, 0, 65, 79
2, 116352, Note_on_c, 0, 58, 79
2, 116352, Note_on_c, 0, 55, 79
2, 116732, Note_off_c, 0, 65, 100
2, 116736, Note_on_c, 0, 63, 78
2, 117116, Note_off_c, 0, 58, 100
2, 117116, Note_off_c, 0, 55, 100
2, 117116, Note_off_c, 0, 63, 100
2, 117888, Note_on_c, 0, 62, 75
2, 117888, Note_on_c, 0, 56, 75
2, 117888, Note_on_c, 0, 53, 75
2, 118268, Note_off_c, 0, 62, 100
2, 118268, Note_off_c, 0, 56, 100
2, 118268, Note_off_c, 0, 53, 100
2, 118272, Note_on_c, 0, 62, 74
2, 118272, Note_on_c, 0, 56, 74
2, 118272, Note_on_c, 0, 53, 74
2, 118652, Note_off_c, 0, 62, 100
2, 118652, Note_off_c, 0, 56, 100
2, 118652, Note_off_c, 0, 53, 100
2, 118656, Note_on_c, 0, 65, 73
2, 118656, Note_on_c, 0, 62, 73
2, 118656, Note_on_c, 0, 56, 73
2, 119804, Note_off_c, 0, 65, 100
2, 119804, Note_off_c, 0, 62, 100
2, 119804, Note_off_c, 0, 56, 100
2, 119808, Note_on_c, 0, 63, 71
2, 119808, Note_on_c, 0, 58, 71
2, 119808, Note_on_c, 0, 55, 71
2, 120188, Note_off_c, 0, 63, 100
2, 120188, Note_off_c, 0, 58, 100
2, 120188, Note_off_c, 0, 55, 100
2, 120960, Note_on_c, 0, 72, 110
2, 120960, Note_on_c, 0, 67, 110
2, 120960, Note_on_c, 0, 63, 110
2, 121532, Note_off_c, 0, 72, 100
2, 121532, Note_off_c, 0, 67, 100
2, 121532, Note_off_c, 0, 63, 100
2, 121632, Note_on_c, 0, 67, 110
2, 121724, Note_off_c, 0, 67, 100
2, 121728, Note_on_c, 0, 75, 110
2, 122012, Note_off_c, 0, 75, 100
2, 122016, Note_on_c, 0, 72, 110
2, 122108, Note_off_c, 0, 72, 100
2, 122112, Note_on_c, 0, 79, 110
2, 122396, Note_off_c, 0, 79, 100
2, 122400, Note_on_c, 0, 75, 110
2, 122492, Note_off_c, 0, 75, 100
2, 122496, Note_on_c, 0, 84, 110
2, 122780, Note_off_c, 0, 84, 100
2, 122784, Note_on_c, 0, 79, 110
2, 122876, Note_off_c, 0, 79, 100
2, 122880, Note_on_c, 0, 87, 110
2, 123260, Note_off_c, 0, 87, 100
2, 123264, Note_on_c, 0, 87, 110
2, 123644, Note_off_c, 0, 87, 100
2, 124032, Note_on_c, 0, 72, 80
2, 124032, Note_on_c, 0, 67, 80
2, 124412, Note_off_c, 0, 72, 100
2, 124412, Note_off_c, 0, 67, 100
2, 124416, Note_on_c, 0, 67, 80
2, 124416, Note_on_c, 0, 72, 80
2, 125180, Note_off_c, 0, 67, 100
2, 125180, Note_off_c, 0, 72, 100
2, 125184, Note_on_c, 0, 71, 80
2, 125184, Note_on_c, 0, 67, 80
2, 125564, Note_off_c, 0, 71, 100
2, 125564, Note_off_c, 0, 67, 100
2, 125568, Note_on_c, 0, 71, 110
2, 125568, Note_on_c, 0, 68, 110
2, 125568, Note_on_c, 0, 65, 110
2, 126140, Note_off_c, 0, 71, 100
2, 126140, Note_off_c, 0, 68, 100
2, 126140, Note_off_c, 0, 65, 100
2, 126240, Note_on_c, 0, 71, 110
2, 126332, Note_off_c, 0, 71, 100
2, 126336, Note_on_c, 0, 77, 110
2, 126620, Note_off_c, 0, 77, 100
2, 126624, Note_on_c, 0, 74, 110
2, 126716, Note_off_c, 0, 74, 100
2, 126720, Note_on_c, 0, 83, 110
2, 127004, Note_off_c, 0, 83, 100
2, 127008, Note_on_c, 0, 77, 110
2, 127100, Note_off_c, 0, 77, 100
2, 127104, Note_on_c, 0, 86, 110
2, 127388, Note_off_c, 0, 86, 100
2, 127392, Note_on_c, 0, 83, 110
2, 127484, Note_off_c, 0, 83, 100
2, 127488, Note_on_c, 0, 89, 110
2, 127868, Note_off_c, 0, 89, 100
2, 127872, Note_on_c, 0, 89, 110
2, 128252, Note_off_c, 0, 89, 100
2, 128640, Note_on_c, 0, 74, 80
2, 128640, Note_on_c, 0, 71, 80
2, 129020, Note_off_c, 0, 74, 100
2, 129020, Note_off_c, 0, 71, 100
2, 129024, Note_on_c, 0, 74, 81
2, 129024, Note_on_c, 0, 71, 81
2, 129788, Note_off_c, 0, 74, 100
2, 129788, Note_off_c, 0, 71, 100
2, 129792, Note_on_c, 0, 72, 83
2, 130172, Note_off_c, 0, 72, 100
2, 130176, Note_on_c, 0, 72, 85
2, 130224, Note_on_c, 0, 75, 85
2, 130268, Note_off_c, 0, 72, 100
2, 130268, Note_off_c, 0, 75, 100
2, 130272, Note_on_c, 0, 79, 85
2, 130748, Note_off_c, 0, 79, 100
2, 130752, Note_on_c, 0, 77, 87
2, 130940, Note_off_c, 0, 77, 100
2, 130944, Note_on_c, 0, 75, 87
2, 131324, Note_off_c, 0, 75, 100
2, 131328, Note_on_c, 0, 74, 89
2, 132092, Note_off_c, 0, 74, 100
2, 132096, Note_on_c, 0, 72, 91
2, 132476, Note_off_c, 0, 72, 100
2, 132480, Note_on_c, 0, 67, 93
2, 132528, Note_on_c, 0, 72, 93
2, 132572, Note_off_c, 0, 67, 100
2, 132576, Note_on_c, 0, 75, 93
2, 132620, Note_off_c, 0, 72, 100
2, 132620, Note_off_c, 0, 75, 100
2, 132624, Note_on_c, 0, 79, 93
2, 133052, Note_off_c, 0, 79, 100
2, 133056, Note_on_c, 0, 77, 95
2, 133244, Note_off_c, 0, 77, 100
2, 133248, Note_on_c, 0, 75, 95
2, 133628, Note_off_c, 0, 75, 100
2, 133632, Note_on_c, 0, 74, 97
2, 133632, Note_on_c, 0, 71, 97
2, 134396, Note_off_c, 0, 74, 100
2, 134396, Note_off_c, 0, 71, 100
2, 134400, Note_on_c, 0, 72, 99
2, 134780, Note_off_c, 0, 72, 100
2, 134784, Note_on_c, 0, 67, 100
2, 134832, Note_on_c, 0, 72, 100
2, 134876, Note_off_c, 0, 67, 100
2, 134880, Note_on_c, 0, 75, 100
2, 134924, Note_off_c, 0, 72, 100
2, 134924, Note_off_c, 0, 75, 100
2, 134928, Note_on_c, 0, 79, 110
2, 134928, Note_on_c, 0, 67, 113
2, 135356, Note_off_c, 0, 79, 100
2, 135356, Note_off_c, 0, 67, 100
2, 135360, Note_on_c, 0, 77, 100
2, 135360, Note_on_c, 0, 65, 100
2, 135548, Note_off_c, 0, 77, 100
2, 135548, Note_off_c, 0, 65, 100
2, 135552, Note_on_c, 0, 75, 100
2, 135552, Note_on_c, 0, 63, 100
2, 136316, Note_off_c, 0, 63, 100
2, 136316, Note_off_c, 0, 75, 100
2, 136320, Note_on_c, 0, 74, 100
2, 136320, Note_on_c, 0, 62, 100
2, 136700, Note_off_c, 0, 74, 100
2, 136700, Note_off_c, 0, 62, 100
2, 136704, Note_on_c, 0, 72, 100
2, 136704, Note_on_c, 0, 60, 100
2, 137468, Note_off_c, 0, 60, 100
2, 137468, Note_off_c, 0, 72, 100
2, 137472, Note_on_c, 0, 71, 100
2, 137472, Note_on_c, 0, 59, 100
2, 137852, Note_off_c, 0, 71, 100
2, 137852, Note_off_c, 0, 59, 100
2, 137856, Note_on_c, 0, 68, 100
2, 137856, Note_on_c, 0, 56, 100
2, 138620, Note_off_c, 0, 56, 100
2, 138620, Note_off_c, 0, 68, 100
2, 138624, Note_on_c, 0, 67, 100
2, 138624, Note_on_c, 0, 55, 100
2, 139004, Note_off_c, 0, 67, 100
2, 139004, Note_off_c, 0, 55, 100
2, 139776, Note_on_c, 0, 59, 70
2, 139900, Note_off_c, 0, 59, 100
2, 139904, Note_on_c, 0, 62, 70
2, 140028, Note_off_c, 0, 62, 100
2, 140032, Note_on_c, 0, 65, 70
2, 140156, Note_off_c, 0, 65, 100
2, 140160, Note_on_c, 0, 68, 70
2, 140284, Note_off_c, 0, 68, 100
2, 140288, Note_on_c, 0, 67, 70
2, 140412, Note_off_c, 0, 67, 100
2, 140416, Note_on_c, 0, 65, 70
2, 140540, Note_off_c, 0, 65, 100
2, 140544, Note_on_c, 0, 63, 70
2, 140924, Note_off_c, 0, 63, 100
2, 142080, Note_on_c, 0, 53, 70
2, 142204, Note_off_c, 0, 53, 100
2, 142208, Note_on_c, 0, 56, 70
2, 142332, Note_off_c, 0, 56, 100
2, 142336, Note_on_c, 0, 60, 70
2, 142460, Note_off_c, 0, 60, 100
2, 142464, Note_on_c, 0, 65, 70
2, 142588, Note_off_c, 0, 65, 100
2, 142592, Note_on_c, 0, 63, 70
2, 142716, Note_off_c, 0, 63, 100
2, 142720, Note_on_c, 0, 62, 70
2, 142844, Note_off_c, 0, 62, 100
2, 142848, Note_on_c, 0, 60, 70
2, 143228, Note_off_c, 0, 60, 100
2, 144384, Note_on_c, 0, 55, 120
2, 144508, Note_off_c, 0, 55, 100
2, 144512, Note_on_c, 0, 59, 120
2, 144636, Note_off_c, 0, 59, 100
2, 144640, Note_on_c, 0, 62, 120
2, 144764, Note_off_c, 0, 62, 100
2, 144768, Note_on_c, 0, 65, 120
2, 144892, Note_off_c, 0, 65, 100
2, 144896, Note_on_c, 0, 62, 120
2, 145020, Note_off_c, 0, 62, 100
2, 145024, Note_on_c, 0, 59, 120
2, 145148, Note_off_c, 0, 59, 100
2, 145152, Note_on_c, 0, 60, 120
2, 145152, Note_on_c, 0, 55, 120
2, 145152, Note_on_c, 0, 51, 120
2, 145724, Note_off_c, 0, 60, 100
2, 145724, Note_off_c, 0, 55, 100
2, 145724, Note_off_c, 0, 51, 100
2, 145824, Note_on_c, 0, 60, 120
2, 145916, Note_off_c, 0, 60, 100
2, 145920, Note_on_c, 0, 67, 120
2, 146204, Note_off_c, 0, 67, 100
2, 146208, Note_on_c, 0, 63, 120
2, 146300, Note_off_c, 0, 63, 100
2, 146304, Note_on_c, 0, 72, 120
2, 146588, Note_off_c, 0, 72, 100
2, 146592, Note_on_c, 0, 67, 120
2, 146684, Note_off_c, 0, 67, 100
2, 146688, Note_on_c, 0, 75, 120
2, 146972, Note_off_c, 0, 75, 100
2, 146976, Note_on_c, 0, 72, 120
2, 147068, Note_off_c, 0, 72, 100
2, 147072, Note_on_c, 0, 79, 120
2, 147072, Note_on_c, 0, 67, 120
2, 147452, Note_off_c, 0, 79, 100
2, 147452, Note_off_c, 0, 67, 100
2, 147456, Note_on_c, 0, 79, 120
2, 147456, Note_on_c, 0, 67, 120
2, 147836, Note_off_c, 0, 79, 100
2, 147836, Note_off_c, 0, 67, 100
2, 148128, Note_on_c, 0, 59, 120
2, 148220, Note_off_c, 0, 59, 100
2, 148224, Note_on_c, 0, 67, 120
2, 148508, Note_off_c, 0, 67, 100
2, 148512, Note_on_c, 0, 62, 120
2, 148604, Note_off_c, 0, 62, 100
2, 148608, Note_on_c, 0, 71, 120
2, 148892, Note_off_c, 0, 71, 100
2, 148896, Note_on_c, 0, 67, 120
2, 148988, Note_off_c, 0, 67, 100
2, 148992, Note_on_c, 0, 74, 120
2, 149276, Note_off_c, 0, 74, 100
2, 149280, Note_on_c, 0, 71, 120
2, 149372, Note_off_c, 0, 71, 100
2, 149376, Note_on_c, 0, 79, 120
2, 149376, Note_on_c, 0, 67, 120
2, 149756, Note_off_c, 0, 79, 100
2, 149756, Note_off_c, 0, 67, 100
2, 149760, Note_on_c, 0, 79, 120
2, 149760, Note_on_c, 0, 67, 120
2, 150140, Note_off_c, 0, 79, 100
2, 150140, Note_off_c, 0, 67, 100
2, 150432, Note_on_c, 0, 63, 120
2, 150524, Note_off_c, 0, 63, 100
2, 150528, Note_on_c, 0, 67, 120
2, 150812, Note_off_c, 0, 67, 100
2, 150816, Note_on_c, 0, 63, 120
2, 150908, Note_off_c, 0, 63, 100
2, 150912, Note_on_c, 0, 72, 120
2, 151196, Note_off_c, 0, 72, 100
2, 151200, Note_on_c, 0, 67, 120
2, 151292, Note_off_c, 0, 67, 100
2, 151296, Note_on_c, 0, 75, 120
2, 151580, Note_off_c, 0, 75, 100
2, 151584, Note_on_c, 0, 72, 120
2, 151676, Note_off_c, 0, 72, 100
2, 151680, Note_on_c, 0, 79, 120
2, 151964, Note_off_c, 0, 79, 100
2, 151968, Note_on_c, 0, 75, 120
2, 152060, Note_off_c, 0, 75, 100
2, 152064, Note_on_c, 0, 74, 120
2, 152444, Note_off_c, 0, 74, 100
2, 152448, Note_on_c, 0, 89, 120
2, 152828, Note_off_c, 0, 89, 100
2, 153216, Note_on_c, 0, 71, 120
2, 153596, Note_off_c, 0, 71, 100
2, 153600, Note_on_c, 0, 86, 120
2, 153980, Note_off_c, 0, 86, 100
2, 154368, Note_on_c, 0, 72, 120
2, 154748, Note_off_c, 0, 72, 100
2, 154752, Note_on_c, 0, 84, 120
2, 155132, Note_off_c, 0, 84, 100
2, 158208, Note_on_c, 0, 67, 80
2, 158592, Note_on_c, 0, 75, 80
2, 158972, Note_off_c, 0, 67, 100
2, 158972, Note_off_c, 0, 75, 100
2, 158976, Note_on_c, 0, 68, 80
2, 158976, Note_on_c, 0, 75, 80
2, 159740, Note_off_c, 0, 75, 100
2, 159744, Note_on_c, 0, 75, 80
2, 160124, Note_off_c, 0, 68, 100
2, 160128, Note_on_c, 0, 67, 80
2, 160508, Note_off_c, 0, 75, 100
2, 160512, Note_on_c, 0, 77, 80
2, 160892, Note_off_c, 0, 77, 100
2, 160896, Note_on_c, 0, 73, 80
2, 161276, Note_off_c, 0, 67, 100
2, 161280, Note_on_c, 0, 68, 80
2, 161660, Note_off_c, 0, 73, 100
2, 161664, Note_on_c, 0, 71, 80
2, 162044, Note_off_c, 0, 71, 100
2, 162048, Note_on_c, 0, 72, 80
2, 162428, Note_off_c, 0, 68, 100
2, 162428, Note_off_c, 0, 72, 100
2, 162816, Note_on_c, 0, 76, 80
2, 163200, Note_on_c, 0, 84, 80
2, 163580, Note_off_c, 0, 76, 100
2, 163580, Note_off_c, 0, 84, 100
2, 163584, Note_on_c, 0, 77, 80
2, 163584, Note_on_c, 0, 84, 80
2, 164348, Note_off_c, 0, 84, 100
2, 164352, Note_on_c, 0, 84, 80
2, 164732, Note_off_c, 0, 77, 100
2, 164736, Note_on_c, 0, 76, 80
2, 165116, Note_off_c, 0, 84, 100
2, 165120, Note_on_c, 0, 85, 80
2, 165500, Note_off_c, 0, 85, 100
2, 165504, Note_on_c, 0, 82, 80
2, 165884, Note_off_c, 0, 76, 100
2, 165888, Note_on_c, 0, 72, 80
2, 166268, Note_off_c, 0, 82, 100
2, 166272, Note_on_c, 0, 79, 80
2, 166652, Note_off_c, 0, 79, 100
2, 166656, Note_on_c, 0, 80, 80
2, 167036, Note_off_c, 0, 72, 100
2, 167036, Note_off_c, 0, 80, 100
2, 167424, Note_on_c, 0, 72, 80
2, 167808, Note_on_c, 0, 80, 80
2, 168188, Note_off_c, 0, 72, 100
2, 168188, Note_off_c, 0, 80, 100
2, 168192, Note_on_c, 0, 73, 80
2, 168192, Note_on_c, 0, 80, 80
2, 168956, Note_off_c, 0, 80, 100
2, 168960, Note_on_c, 0, 80, 80
2, 169340, Note_off_c, 0, 73, 100
2, 169344, Note_on_c, 0, 72, 80
2, 169724, Note_off_c, 0, 80, 100
2, 169728, Note_on_c, 0, 82, 80
2, 170108, Note_off_c, 0, 82, 100
2, 170112, Note_on_c, 0, 78, 80
2, 170492, Note_off_c, 0, 72, 100
2, 170496, Note_on_c, 0, 68, 80
2, 170876, Note_off_c, 0, 78, 100
2, 170880, Note_on_c, 0, 76, 80
2, 171260, Note_off_c, 0, 76, 100
2, 171264, Note_on_c, 0, 77, 80
2, 171644, Note_off_c, 0, 68, 100
2, 171648, Note_on_c, 0, 69, 80
2, 172028, Note_off_c, 0, 77, 100
2, 172032, Note_on_c, 0, 78, 80
2, 172412, Note_off_c, 0, 78, 100
2, 172416, Note_on_c, 0, 75, 80
2, 172796, Note_off_c, 0, 69, 100
2, 172800, Note_on_c, 0, 65, 80
2, 173180, Note_off_c, 0, 75, 100
2, 173184, Note_on_c, 0, 75, 80
2, 173564, Note_off_c, 0, 75, 100
2, 173568, Note_on_c, 0, 74, 80
2, 173948, Note_off_c, 0, 65, 100
2, 173952, Note_on_c, 0, 66, 80
2, 174332, Note_off_c, 0, 74, 100
2, 174336, Note_on_c, 0, 75, 80
2, 174716, Note_off_c, 0, 75, 100
2, 174720, Note_on_c, 0, 66, 80
2, 174720, Note_on_c, 0, 63, 80
2, 175100, Note_off_c, 0, 66, 100
2, 175100, Note_off_c, 0, 66, 100
2, 175100, Note_off_c, 0, 63, 100
2, 175104, Note_on_c, 0, 65, 80
2, 175104, Note_on_c, 0, 62, 80
2, 175484, Note_off_c, 0, 65, 100
2, 175484, Note_off_c, 0, 62, 100
2, 176640, Note_on_c, 0, 72, 80
2, 177020, Note_off_c, 0, 72, 100
2, 177024, Note_on_c, 0, 72, 80
2, 177404, Note_off_c, 0, 72, 100
2, 177408, Note_on_c, 0, 72, 80
2, 177788, Note_off_c, 0, 72, 100
2, 177792, Note_on_c, 0, 70, 80
2, 178172, Note_off_c, 0, 70, 100
2, 178944, Note_on_c, 0, 68, 80
2, 179324, Note_off_c, 0, 68, 100
2, 179328, Note_on_c, 0, 68, 80
2, 179708, Note_off_c, 0, 68, 100
2, 179712, Note_on_c, 0, 68, 80
2, 180092, Note_off_c, 0, 68, 100
2, 180096, Note_on_c, 0, 67, 80
2, 180476, Note_off_c, 0, 67, 100
2, 181056, Note_on_c, 0, 72, 80
2, 181244, Note_off_c, 0, 72, 100
2, 181248, Note_on_c, 0, 71, 80
2, 181436, Note_off_c, 0, 71, 100
2, 181440, Note_on_c, 0, 72, 80
2, 181628, Note_off_c, 0, 72, 100
2, 181632, Note_on_c, 0, 74, 80
2, 181820, Note_off_c, 0, 74, 100
2, 181824, Note_on_c, 0, 72, 80
2, 182012, Note_off_c, 0, 72, 100
2, 182208, Note_on_c, 0, 70, 80
2, 182396, Note_off_c, 0, 70, 100
2, 182400, Note_on_c, 0, 69, 80
2, 182588, Note_off_c, 0, 69, 100
2, 182592, Note_on_c, 0, 70, 80
2, 182780, Note_off_c, 0, 70, 100
2, 182784, Note_on_c, 0, 72, 80
2, 182972, Note_off_c, 0, 72, 100
2, 182976, Note_on_c, 0, 70, 80
2, 183164, Note_off_c, 0, 70, 100
2, 183360, Note_on_c, 0, 68, 80
2, 183548, Note_off_c, 0, 68, 100
2, 183552, Note_on_c, 0, 67, 80
2, 183740, Note_off_c, 0, 67, 100
2, 183744, Note_on_c, 0, 68, 80
2, 183932, Note_off_c, 0, 68, 100
2, 183936, Note_on_c, 0, 70, 80
2, 184124, Note_off_c, 0, 70, 100
2, 184128, Note_on_c, 0, 68, 80
2, 184316, Note_off_c, 0, 68, 100
2, 184320, Note_on_c, 0, 67, 80
2, 186044, Note_off_c, 0, 67, 100
2, 186048, Note_on_c, 0, 70, 80
2, 186236, Note_off_c, 0, 70, 100
2, 186240, Note_on_c, 0, 75, 80
2, 186620, Note_off_c, 0, 75, 100
2, 186624, Note_on_c, 0, 75, 80
2, 187772, Note_off_c, 0, 75, 100
2, 187776, Note_on_c, 0, 74, 80
2, 188156, Note_off_c, 0, 74, 100
2, 188928, Note_on_c, 0, 70, 80
2, 190076, Note_off_c, 0, 70, 100
2, 190080, Note_on_c, 0, 70, 80
2, 190172, Note_off_c, 0, 70, 100
2, 190176, Note_on_c, 0, 72, 80
2, 190268, Note_off_c, 0, 72, 100
2, 190272, Note_on_c, 0, 70, 80
2, 190364, Note_off_c, 0, 70, 100
2, 190368, Note_on_c, 0, 69, 80
2, 190460, Note_off_c, 0, 69, 100
2, 190464, Note_on_c, 0, 70, 80
2, 190652, Note_off_c, 0, 70, 100
2, 190656, Note_on_c, 0, 77, 80
2, 190844, Note_off_c, 0, 77, 100
2, 190848, Note_on_c, 0, 80, 95
2, 191228, Note_off_c, 0, 80, 100
2, 191232, Note_on_c, 0, 80, 80
2, 192380, Note_off_c, 0, 80, 100
2, 192384, Note_on_c, 0, 79, 80
2, 192764, Note_off_c, 0, 79, 100
2, 193536, Note_on_c, 0, 67, 80
2, 193724, Note_off_c, 0, 67, 100
2, 193728, Note_on_c, 0, 68, 80
2, 193916, Note_off_c, 0, 68, 100
2, 193920, Note_on_c, 0, 70, 80
2, 194108, Note_off_c, 0, 70, 100
2, 194112, Note_on_c, 0, 72, 80
2, 194300, Note_off_c, 0, 72, 100
2, 194304, Note_on_c, 0, 74, 80
2, 194492, Note_off_c, 0, 74, 100
2, 194496, Note_on_c, 0, 75, 80
2, 194684, Note_off_c, 0, 75, 100
2, 194688, Note_on_c, 0, 77, 80
2, 194876, Note_off_c, 0, 77, 100
2, 194880, Note_on_c, 0, 79, 80
2, 195068, Note_off_c, 0, 79, 100
2, 195072, Note_on_c, 0, 80, 80
2, 195260, Note_off_c, 0, 80, 100
2, 195264, Note_on_c, 0, 82, 80
2, 195452, Note_off_c, 0, 82, 100
2, 195456, Note_on_c, 0, 84, 80
2, 195644, Note_off_c, 0, 84, 100
2, 195648, Note_on_c, 0, 86, 80
2, 195836, Note_off_c, 0, 86, 100
2, 195840, Note_on_c, 0, 87, 104
2, 196988, Note_off_c, 0, 87, 100
2, 196992, Note_on_c, 0, 86, 80
2, 197372, Note_off_c, 0, 86, 100
2, 198144, Note_on_c, 0, 58, 80
2, 198332, Note_off_c, 0, 58, 100
2, 198336, Note_on_c, 0, 60, 80
2, 198524, Note_off_c, 0, 60, 100
2, 198528, Note_on_c, 0, 62, 80
2, 198716, Note_off_c, 0, 62, 100
2, 198720, Note_on_c, 0, 63, 80
2, 198908, Note_off_c, 0, 63, 100
2, 198912, Note_on_c, 0, 65, 80
2, 199100, Note_off_c, 0, 65, 100
2, 199104, Note_on_c, 0, 67, 80
2, 199292, Note_off_c, 0, 67, 100
2, 199296, Note_on_c, 0, 68, 80
2, 199484, Note_off_c, 0, 68, 100
2, 199488, Note_on_c, 0, 70, 80
2, 199676, Note_off_c, 0, 70, 100
2, 199680, Note_on_c, 0, 72, 80
2, 199868, Note_off_c, 0, 72, 100
2, 199872, Note_on_c, 0, 74, 80
2, 200060, Note_off_c, 0, 74, 100
2, 200064, Note_on_c, 0, 75, 80
2, 200252, Note_off_c, 0, 75, 100
2, 200256, Note_on_c, 0, 77, 80
2, 200444, Note_off_c, 0, 77, 100
2, 200448, Note_on_c, 0, 79, 80
2, 201596, Note_off_c, 0, 79, 100
2, 201600, Note_on_c, 0, 87, 85
2, 202364, Note_off_c, 0, 87, 100
2, 202368, Note_on_c, 0, 55, 88
2, 202748, Note_off_c, 0, 55, 100
2, 202752, Note_on_c, 0, 56, 90
2, 203900, Note_off_c, 0, 56, 100
2, 203904, Note_on_c, 0, 57, 95
2, 205052, Note_off_c, 0, 57, 100
2, 205056, Note_on_c, 0, 58, 110
2, 206204, Note_off_c, 0, 58, 100
2, 206208, Note_on_c, 0, 56, 110
2, 206304, Note_on_c, 0, 58, 110
2, 206396, Note_off_c, 0, 56, 100
2, 206400, Note_on_c, 0, 56, 110
2, 206492, Note_off_c, 0, 58, 100
2, 206496, Note_on_c, 0, 58, 110
2, 206588, Note_off_c, 0, 56, 100
2, 206592, Note_on_c, 0, 56, 110
2, 206684, Note_off_c, 0, 58, 100
2, 206688, Note_on_c, 0, 58, 110
2, 206780, Note_off_c, 0, 56, 100
2, 206784, Note_on_c, 0, 56, 110
2, 206876, Note_off_c, 0, 58, 100
2, 206880, Note_on_c, 0, 58, 110
2, 206972, Note_off_c, 0, 56, 100
2, 206976, Note_on_c, 0, 56, 110
2, 207068, Note_off_c, 0, 58, 100
2, 207072, Note_on_c, 0, 58, 110
2, 207164, Note_off_c, 0, 56, 100
2, 207168, Note_on_c, 0, 55, 110
2, 207260, Note_off_c, 0, 58, 100
2, 207264, Note_on_c, 0, 56, 110
2, 207356, Note_off_c, 0, 55, 100
2, 207356, Note_off_c, 0, 56, 100
2, 207360, Note_on_c, 0, 55, 100
2, 207548, Note_off_c, 0, 55, 100
2, 207552, Note_on_c, 0, 58, 100
2, 207740, Note_off_c, 0, 58, 100
2, 207744, Note_on_c, 0, 63, 100
2, 207932, Note_off_c, 0, 63, 100
2, 207936, Note_on_c, 0, 58, 100
2, 208124, Note_off_c, 0, 58, 100
2, 208128, Note_on_c, 0, 63, 100
2, 208316, Note_off_c, 0, 63, 100
2, 208320, Note_on_c, 0, 67, 100
2, 208508, Note_off_c, 0, 67, 100
2, 208512, Note_on_c, 0, 70, 100
2, 208700, Note_off_c, 0, 70, 100
2, 208704, Note_on_c, 0, 67, 100
2, 208892, Note_off_c, 0, 67, 100
2, 208896, Note_on_c, 0, 70, 100
2, 209084, Note_off_c, 0, 70, 100
2, 209088, Note_on_c, 0, 75, 100
2, 209276, Note_off_c, 0, 75, 100
2, 209280, Note_on_c, 0, 79, 100
2, 209468, Note_off_c, 0, 79, 100
2, 209472, Note_on_c, 0, 82, 100
2, 209660, Note_off_c, 0, 82, 100
2, 209664, Note_on_c, 0, 87, 110
2, 210044, Note_off_c, 0, 87, 100
2, 210432, Note_on_c, 0, 63, 120
2, 211580, Note_off_c, 0, 63, 100
2, 211584, Note_on_c, 0, 55, 110
2, 211964, Note_off_c, 0, 55, 100
2, 211968, Note_on_c, 0, 56, 110
2, 212732, Note_off_c, 0, 56, 100
2, 212736, Note_on_c, 0, 63, 120
2, 213116, Note_off_c, 0, 63, 100
2, 213120, Note_on_c, 0, 57, 110
2, 213884, Note_off_c, 0, 57, 100
2, 213888, Note_on_c, 0, 63, 120
2, 214268, Note_off_c, 0, 63, 100
2, 214272, Note_on_c, 0, 58, 110
2, 214460, Note_off_c, 0, 58, 100
2, 214464, Note_on_c, 0, 63, 110
2, 214652, Note_off_c, 0, 63, 100
2, 214656, Note_on_c, 0, 62, 111
2, 214844, Note_off_c, 0, 62, 100
2, 214848, Note_on_c, 0, 63, 112
2, 215036, Note_off_c, 0, 63, 100
2, 215040, Note_on_c, 0, 59, 113
2, 215228, Note_off_c, 0, 59, 100
2, 215232, Note_on_c, 0, 63, 114
2, 215420, Note_off_c, 0, 63, 100
2, 215424, Note_on_c, 0, 60, 115
2, 215612, Note_off_c, 0, 60, 100
2, 215616, Note_on_c, 0, 63, 115
2, 215804, Note_off_c, 0, 63, 100
2, 215808, Note_on_c, 0, 62, 116
2, 215996, Note_off_c, 0, 62, 100
2, 216000, Note_on_c, 0, 63, 117
2, 216188, Note_off_c, 0, 63, 100
2, 216192, Note_on_c, 0, 57, 118
2, 216380, Note_off_c, 0, 57, 100
2, 216384, Note_on_c, 0, 63, 119
2, 216572, Note_off_c, 0, 63, 100
2, 216576, Note_on_c, 0, 58, 120
2, 216764, Note_off_c, 0, 58, 100
2, 216768, Note_on_c, 0, 63, 120
2, 216956, Note_off_c, 0, 63, 100
2, 216960, Note_on_c, 0, 61, 120
2, 217148, Note_off_c, 0, 61, 100
2, 217152, Note_on_c, 0, 63, 120
2, 217340, Note_off_c, 0, 63, 100
2, 217344, Note_on_c, 0, 59, 120
2, 217532, Note_off_c, 0, 59, 100
2, 217536, Note_on_c, 0, 63, 120
2, 217724, Note_off_c, 0, 63, 100
2, 217728, Note_on_c, 0, 60, 120
2, 217916, Note_off_c, 0, 60, 100
2, 217920, Note_on_c, 0, 63, 120
2, 218108, Note_off_c, 0, 63, 100
2, 218112, Note_on_c, 0, 62, 120
2, 218300, Note_off_c, 0, 62, 100
2, 218304, Note_on_c, 0, 63, 120
2, 218492, Note_off_c, 0, 63, 100
2, 218496, Note_on_c, 0, 57, 120
2, 218684, Note_off_c, 0, 57, 100
2, 218688, Note_on_c, 0, 63, 120
2, 218876, Note_off_c, 0, 63, 100
2, 218880, Note_on_c, 0, 58, 120
2, 219260, Note_off_c, 0, 58, 100
2, 219552, Note_on_c, 0, 63, 120
2, 219644, Note_off_c, 0, 63, 100
2, 219648, Note_on_c, 0, 70, 120
2, 219932, Note_off_c, 0, 70, 100
2, 219936, Note_on_c, 0, 67, 120
2, 220028, Note_off_c, 0, 67, 100
2, 220032, Note_on_c, 0, 75, 120
2, 220412, Note_off_c, 0, 75, 100
2, 220704, Note_on_c, 0, 63, 120
2, 220796, Note_off_c, 0, 63, 100
2, 220800, Note_on_c, 0, 69, 120
2, 221084, Note_off_c, 0, 69, 100
2, 221088, Note_on_c, 0, 66, 120
2, 221180, Note_off_c, 0, 66, 100
2, 221184, Note_on_c, 0, 75, 120
2, 221564, Note_off_c, 0, 75, 100
2, 221856, Note_on_c, 0, 63, 120
2, 221948, Note_off_c, 0, 63, 100
2, 221952, Note_on_c, 0, 70, 120
2, 222236, Note_off_c, 0, 70, 100
2, 222240, Note_on_c, 0, 67, 120
2, 222332, Note_off_c, 0, 67, 100
2, 222336, Note_on_c, 0, 75, 120
2, 222716, Note_off_c, 0, 75, 100
2, 223008, Note_on_c, 0, 72, 120
2, 223100, Note_off_c, 0, 72, 100
2, 223104, Note_on_c, 0, 78, 120
2, 223388, Note_off_c, 0, 78, 100
2, 223392, Note_on_c, 0, 75, 120
2, 223484, Note_off_c, 0, 75, 100
2, 223488, Note_on_c, 0, 79, 120
2, 224060, Note_off_c, 0, 79, 100
2, 224064, Note_on_c, 0, 75, 120
2, 224252, Note_off_c, 0, 75, 100
2, 224256, Note_on_c, 0, 75, 120
2, 224444, Note_off_c, 0, 75, 100
2, 224448, Note_on_c, 0, 70, 120
2, 224636, Note_off_c, 0, 70, 100
2, 224640, Note_on_c, 0, 70, 120
2, 224828, Note_off_c, 0, 70, 100
2, 224832, Note_on_c, 0, 67, 120
2, 225020, Note_off_c, 0, 67, 100
2, 225024, Note_on_c, 0, 67, 120
2, 225212, Note_off_c, 0, 67, 100
2, 225216, Note_on_c, 0, 63, 120
2, 225404, Note_off_c, 0, 63, 100
2, 225408, Note_on_c, 0, 63, 120
2, 225596, Note_off_c, 0, 63, 100
2, 225600, Note_on_c, 0, 58, 120
2, 225788, Note_off_c, 0, 58, 100
2, 225792, Note_on_c, 0, 58, 120
2, 225980, Note_off_c, 0, 58, 100
2, 225984, Note_on_c, 0, 55, 120
2, 226172, Note_off_c, 0, 55, 100
2, 226176, Note_on_c, 0, 55, 120
2, 226364, Note_off_c, 0, 55, 100
2, 226368, Note_on_c, 0, 51, 120
2, 226556, Note_off_c, 0, 51, 100
2, 226560, Note_on_c, 0, 51, 120
2, 226748, Note_off_c, 0, 51, 100
2, 226752, Note_on_c, 0, 46, 120
2, 226940, Note_off_c, 0, 46, 100
2, 227712, Note_on_c, 0, 62, 120
2, 227712, Note_on_c, 0, 58, 120
2, 227712, Note_on_c, 0, 56, 120
2, 227712, Note_on_c, 0, 53, 120
2, 228092, Note_off_c, 0, 62, 100
2, 228092, Note_off_c, 0, 58, 100
2, 228092, Note_off_c, 0, 56, 100
2, 228092, Note_off_c, 0, 53, 100
2, 228096, Note_on_c, 0, 63, 120
2, 228096, Note_on_c, 0, 58, 120
2, 228096, Note_on_c, 0, 55, 120
2, 228476, Note_off_c, 0, 63, 100
2, 228476, Note_off_c, 0, 58, 100
2, 228476, Note_off_c, 0, 55, 100
2, 229632, Note_on_c, 0, 70, 100
2, 229632, Note_on_c, 0, 68, 100
2, 229632, Note_on_c, 0, 65, 100
2, 229632, Note_on_c, 0, 62, 100
2, 230012, Note_off_c, 0, 70, 100
2, 230012, Note_off_c, 0, 68, 100
2, 230012, Note_off_c, 0, 65, 100
2, 230012, Note_off_c, 0, 62, 100
2, 230016, Note_on_c, 0, 70, 100
2, 230016, Note_on_c, 0, 68, 100
2, 230016, Note_on_c, 0, 65, 100
2, 230016, Note_on_c, 0, 62, 100
2, 230396, Note_off_c, 0, 70, 100
2, 230396, Note_off_c, 0, 68, 100
2, 230396, Note_off_c, 0, 65, 100
2, 230396, Note_off_c, 0, 62, 100
2, 230400, Note_on_c, 0, 72, 100
2, 230400, Note_on_c, 0, 67, 100
2, 230400, Note_on_c, 0, 63, 100
2, 230780, Note_off_c, 0, 72, 100
2, 230784, Note_on_c, 0, 70, 100
2, 231164, Note_off_c, 0, 67, 100
2, 231164, Note_off_c, 0, 63, 100
2, 231164, Note_off_c, 0, 70, 100
2, 231936, Note_on_c, 0, 74, 100
2, 231936, Note_on_c, 0, 68, 100
2, 231936, Note_on_c, 0, 65, 100
2, 232316, Note_off_c, 0, 74, 100
2, 232316, Note_off_c, 0, 68, 100
2, 232316, Note_off_c, 0, 65, 100
2, 232320, Note_on_c, 0, 74, 100
2, 232320, Note_on_c, 0, 68, 100
2, 232320, Note_on_c, 0, 65, 100
2, 232700, Note_off_c, 0, 74, 100
2, 232700, Note_off_c, 0, 68, 100
2, 232700, Note_off_c, 0, 65, 100
2, 232704, Note_on_c, 0, 77, 100
2, 232704, Note_on_c, 0, 70, 100
2, 232704, Note_on_c, 0, 67, 100
2, 233084, Note_off_c, 0, 77, 100
2, 233088, Note_on_c, 0, 75, 100
2, 233468, Note_off_c, 0, 70, 100
2, 233468, Note_off_c, 0, 67, 100
2, 233468, Note_off_c, 0, 75, 100
2, 234240, Note_on_c, 0, 70, 100
2, 234240, Note_on_c, 0, 68, 100
2, 234240, Note_on_c, 0, 65, 100
2, 234240, Note_on_c, 0, 62, 100
2, 234620, Note_off_c, 0, 70, 100
2, 234620, Note_off_c, 0, 68, 100
2, 234620, Note_off_c, 0, 65, 100
2, 234620, Note_off_c, 0, 62, 100
2, 234624, Note_on_c, 0, 70, 100
2, 234624, Note_on_c, 0, 68, 100
2, 234624, Note_on_c, 0, 65, 100
2, 234624, Note_on_c, 0, 62, 100
2, 235004, Note_off_c, 0, 70, 100
2, 235004, Note_off_c, 0, 68, 100
2, 235004, Note_off_c, 0, 65, 100
2, 235004, Note_off_c, 0, 62, 100
2, 235008, Note_on_c, 0, 72, 100
2, 235008, Note_on_c, 0, 67, 100
2, 235008, Note_on_c, 0, 63, 100
2, 235388, Note_off_c, 0, 72, 100
2, 235392, Note_on_c, 0, 70, 100
2, 235772, Note_off_c, 0, 67, 100
2, 235772, Note_off_c, 0, 63, 100
2, 235772, Note_off_c, 0, 70, 100
2, 236544, Note_on_c, 0, 62, 80
2, 236544, Note_on_c, 0, 56, 80
2, 236544, Note_on_c, 0, 53, 80
2, 236924, Note_off_c, 0, 62, 100
2, 236924, Note_off_c, 0, 56, 100
2, 236924, Note_off_c, 0, 53, 100
2, 236928, Note_on_c, 0, 62, 80
2, 236928, Note_on_c, 0, 56, 80
2, 236928, Note_on_c, 0, 53, 80
2, 237308, Note_off_c, 0, 62, 100
2, 237308, Note_off_c, 0, 56, 100
2, 237308, Note_off_c, 0, 53, 100
2, 237312, Note_on_c, 0, 65, 79
2, 237312, Note_on_c, 0, 58, 79
2, 237312, Note_on_c, 0, 55, 79
2, 237692, Note_off_c, 0, 65, 100
2, 237696, Note_on_c, 0, 63, 78
2, 238076, Note_off_c, 0, 58, 100
2, 238076, Note_off_c, 0, 55, 100
2, 238076, Note_off_c, 0, 63, 100
2, 238848, Note_on_c, 0, 62, 75
2, 238848, Note_on_c, 0, 56, 75
2, 238848, Note_on_c, 0, 53, 75
2, 239228, Note_off_c, 0, 62, 100
2, 239228, Note_off_c, 0, 56, 100
2, 239228, Note_off_c, 0, 53, 100
2, 239232, Note_on_c, 0, 62, 74
2, 239232, Note_on_c, 0, 56, 74
2, 239232, Note_on_c, 0, 53, 74
2, 239612, Note_off_c, 0, 62, 100
2, 239612, Note_off_c, 0, 56, 100
2, 239612, Note_off_c, 0, 53, 100
2, 239616, Note_on_c, 0, 65, 73
2, 239616, Note_on_c, 0, 62, 73
2, 239616, Note_on_c, 0, 56, 73
2, 240764, Note_off_c, 0, 65, 100
2, 240764, Note_off_c, 0, 62, 100
2, 240764, Note_off_c, 0, 56, 100
2, 240768, Note_on_c, 0, 63, 71
2, 240768, Note_on_c, 0, 58, 71
2, 240768, Note_on_c, 0, 55, 71
2, 241148, Note_off_c, 0, 63, 100
2, 241148, Note_off_c, 0, 58, 100
2, 241148, Note_off_c, 0, 55, 100
2, 241920, Note_on_c, 0, 72, 110
2, 241920, Note_on_c, 0, 67, 110
2, 241920, Note_on_c, 0, 64, 110
2, 242492, Note_off_c, 0, 72, 100
2, 242492, Note_off_c, 0, 67, 100
2, 242492, Note_off_c, 0, 64, 100
2, 242592, Note_on_c, 0, 67, 110
2, 242684, Note_off_c, 0, 67, 100
2, 242688, Note_on_c, 0, 76, 110
2, 242972, Note_off_c, 0, 76, 100
2, 242976, Note_on_c, 0, 72, 110
2, 243068, Note_off_c, 0, 72, 100
2, 243072, Note_on_c, 0, 79, 110
2, 243356, Note_off_c, 0, 79, 100
2, 243360, Note_on_c, 0, 76, 110
2, 243452, Note_off_c, 0, 76, 100
2, 243456, Note_on_c, 0, 84, 110
2, 243740, Note_off_c, 0, 84, 100
2, 243744, Note_on_c, 0, 79, 110
2, 243836, Note_off_c, 0, 79, 100
2, 243840, Note_on_c, 0, 88, 110
2, 244220, Note_off_c, 0, 88, 100
2, 244224, Note_on_c, 0, 88, 110
2, 244604, Note_off_c, 0, 88, 100
2, 244992, Note_on_c, 0, 76, 80
2, 244992, Note_on_c, 0, 72, 80
2, 245372, Note_off_c, 0, 76, 100
2, 245372, Note_off_c, 0, 72, 100
2, 245376, Note_on_c, 0, 76, 80
2, 245376, Note_on_c, 0, 72, 80
2, 246140, Note_off_c, 0, 76, 100
2, 246140, Note_off_c, 0, 72, 100
2, 246144, Note_on_c, 0, 74, 80
2, 246144, Note_on_c, 0, 71, 80
2, 246524, Note_off_c, 0, 74, 100
2, 246524, Note_off_c, 0, 71, 100
2, 246528, Note_on_c, 0, 74, 110
2, 246528, Note_on_c, 0, 71, 110
2, 247100, Note_off_c, 0, 74, 100
2, 247100, Note_off_c, 0, 71, 100
2, 247200, Note_on_c, 0, 71, 110
2, 247292, Note_off_c, 0, 71, 100
2, 247296, Note_on_c, 0, 77, 110
2, 247580, Note_off_c, 0, 77, 100
2, 247584, Note_on_c, 0, 74, 110
2, 247676, Note_off_c, 0, 74, 100
2, 247680, Note_on_c, 0, 83, 110
2, 247964, Note_off_c, 0, 83, 100
2, 247968, Note_on_c, 0, 77, 110
2, 248060, Note_off_c, 0, 77, 100
2, 248064, Note_on_c, 0, 86, 110
2, 248348, Note_off_c, 0, 86, 100
2, 248352, Note_on_c, 0, 83, 110
2, 248444, Note_off_c, 0, 83, 100
2, 248448, Note_on_c, 0, 89, 110
2, 248828, Note_off_c, 0, 89, 100
2, 248832, Note_on_c, 0, 89, 110
2, 249212, Note_off_c, 0, 89, 100
2, 249600, Note_on_c, 0, 77, 80
2, 249600, Note_on_c, 0, 74, 80
2, 249980, Note_off_c, 0, 77, 100
2, 249980, Note_off_c, 0, 74, 100
2, 249984, Note_on_c, 0, 77, 80
2, 249984, Note_on_c, 0, 74, 80
2, 250748, Note_off_c, 0, 77, 100
2, 250748, Note_off_c, 0, 74, 100
2, 250752, Note_on_c, 0, 76, 80
2, 250752, Note_on_c, 0, 73, 80
2, 251132, Note_off_c, 0, 76, 100
2, 251132, Note_off_c, 0, 73, 100
2, 251136, Note_on_c, 0, 76, 110
2, 251136, Note_on_c, 0, 73, 110
2, 251708, Note_off_c, 0, 76, 100
2, 251708, Note_off_c, 0, 73, 100
2, 251808, Note_on_c, 0, 70, 110
2, 251900, Note_off_c, 0, 70, 100
2, 251904, Note_on_c, 0, 76, 110
2, 252188, Note_off_c, 0, 76, 100
2, 252192, Note_on_c, 0, 73, 110
2, 252284, Note_off_c, 0, 73, 100
2, 252288, Note_on_c, 0, 79, 110
2, 252572, Note_off_c, 0, 79, 100
2, 252576, Note_on_c, 0, 76, 110
2, 252668, Note_off_c, 0, 76, 100
2, 252672, Note_on_c, 0, 82, 110
2, 252956, Note_off_c, 0, 82, 100
2, 252960, Note_on_c, 0, 79, 110
2, 253052, Note_off_c, 0, 79, 100
2, 253056, Note_on_c, 0, 85, 110
2, 253436, Note_off_c, 0, 85, 100
2, 253440, Note_on_c, 0, 67, 110
2, 253820, Note_off_c, 0, 67, 100
2, 253824, Note_on_c, 0, 82, 110
2, 254204, Note_off_c, 0, 82, 100
2, 254592, Note_on_c, 0, 64, 110
2, 254972, Note_off_c, 0, 64, 100
2, 254976, Note_on_c, 0, 79, 110
2, 255356, Note_off_c, 0, 79, 100
2, 255744, Note_on_c, 0, 77, 80
2, 255744, Note_on_c, 0, 65, 80
2, 256892, Note_off_c, 0, 77, 100
2, 256892, Note_off_c, 0, 65, 100
2, 256896, Note_on_c, 0, 72, 80
2, 256896, Note_on_c, 0, 84, 80
2, 257660, Note_off_c, 0, 72, 100
2, 257660, Note_off_c, 0, 84, 100
2, 257664, Note_on_c, 0, 72, 80
2, 257664, Note_on_c, 0, 84, 80
2, 258044, Note_off_c, 0, 72, 100
2, 258044, Note_off_c, 0, 84, 100
2, 258048, Note_on_c, 0, 72, 80
2, 258048, Note_on_c, 0, 84, 80
2, 258428, Note_off_c, 0, 72, 100
2, 258428, Note_off_c, 0, 84, 100
2, 258432, Note_on_c, 0, 71, 80
2, 258432, Note_on_c, 0, 83, 80
2, 258812, Note_off_c, 0, 71, 100
2, 258812, Note_off_c, 0, 83, 100
2, 258816, Note_on_c, 0, 73, 80
2, 258816, Note_on_c, 0, 85, 80
2, 259196, Note_off_c, 0, 73, 100
2, 259196, Note_off_c, 0, 85, 100
2, 259200, Note_on_c, 0, 72, 80
2, 259200, Note_on_c, 0, 84, 80
2, 259580, Note_off_c, 0, 72, 100
2, 259580, Note_off_c, 0, 84, 100
2, 259584, Note_on_c, 0, 70, 80
2, 259584, Note_on_c, 0, 82, 80
2, 259964, Note_off_c, 0, 70, 100
2, 259964, Note_off_c, 0, 82, 100
2, 259968, Note_on_c, 0, 79, 80
2, 259968, Note_on_c, 0, 67, 80
2, 260348, Note_off_c, 0, 79, 100
2, 260348, Note_off_c, 0, 67, 100
2, 260352, Note_on_c, 0, 76, 80
2, 260352, Note_on_c, 0, 64, 80
2, 261116, Note_off_c, 0, 76, 100
2, 261116, Note_off_c, 0, 64, 100
2, 261120, Note_on_c, 0, 79, 95
2, 261120, Note_on_c, 0, 67, 95
2, 261500, Note_off_c, 0, 79, 100
2, 261500, Note_off_c, 0, 67, 100
2, 261504, Note_on_c, 0, 72, 100
2, 261504, Note_on_c, 0, 84, 100
2, 262268, Note_off_c, 0, 72, 100
2, 262268, Note_off_c, 0, 84, 100
2, 262272, Note_on_c, 0, 79, 85
2, 262272, Note_on_c, 0, 67, 85
2, 262652, Note_off_c, 0, 79, 100
2, 262652, Note_off_c, 0, 67, 100
2, 262656, Note_on_c, 0, 70, 80
2, 262656, Note_on_c, 0, 82, 80
2, 263804, Note_off_c, 0, 70, 100
2, 263804, Note_off_c, 0, 82, 100
2, 263808, Note_on_c, 0, 80, 80
2, 263808, Note_on_c, 0, 68, 80
2, 264188, Note_off_c, 0, 80, 100
2, 264188, Note_off_c, 0, 68, 100
2, 264576, Note_on_c, 0, 81, 80
2, 264576, Note_on_c, 0, 69, 80
2, 264956, Note_off_c, 0, 81, 100
2, 264956, Note_off_c, 0, 69, 100
2, 264960, Note_on_c, 0, 70, 80
2, 264960, Note_on_c, 0, 82, 80
2, 266108, Note_off_c, 0, 70, 100
2, 266108, Note_off_c, 0, 82, 100
2, 266112, Note_on_c, 0, 77, 90
2, 266112, Note_on_c, 0, 89, 90
2, 266876, Note_off_c, 0, 77, 100
2, 266876, Note_off_c, 0, 89, 100
2, 266880, Note_on_c, 0, 77, 98
2, 266880, Note_on_c, 0, 89, 98
2, 267260, Note_off_c, 0, 77, 100
2, 267260, Note_off_c, 0, 89, 100
2, 267264, Note_on_c, 0, 77, 100
2, 267264, Note_on_c, 0, 89, 100
2, 267644, Note_off_c, 0, 77, 100
2, 267644, Note_off_c, 0, 89, 100
2, 267648, Note_on_c, 0, 76, 97
2, 267648, Note_on_c, 0, 88, 97
2, 268028, Note_off_c, 0, 76, 100
2, 268028, Note_off_c, 0, 88, 100
2, 268032, Note_on_c, 0, 78, 93
2, 268032, Note_on_c, 0, 90, 93
2, 268412, Note_off_c, 0, 78, 100
2, 268412, Note_off_c, 0, 90, 100
2, 268416, Note_on_c, 0, 77, 90
2, 268416, Note_on_c, 0, 89, 90
2, 268796, Note_off_c, 0, 77, 100
2, 268796, Note_off_c, 0, 89, 100
2, 268800, Note_on_c, 0, 75, 86
2, 268800, Note_on_c, 0, 87, 86
2, 269180, Note_off_c, 0, 75, 100
2, 269180, Note_off_c, 0, 87, 100
2, 269184, Note_on_c, 0, 72, 82
2, 269184, Note_on_c, 0, 84, 82
2, 269564, Note_off_c, 0, 72, 100
2, 269564, Note_off_c, 0, 84, 100
2, 269568, Note_on_c, 0, 69, 80
2, 269568, Note_on_c, 0, 81, 80
2, 270332, Note_off_c, 0, 69, 100
2, 270332, Note_off_c, 0, 81, 100
2, 270336, Note_on_c, 0, 72, 80
2, 270336, Note_on_c, 0, 84, 80
2, 270716, Note_off_c, 0, 72, 100
2, 270716, Note_off_c, 0, 84, 100
2, 270720, Note_on_c, 0, 77, 80
2, 270720, Note_on_c, 0, 89, 80
2, 271484, Note_off_c, 0, 77, 100
2, 271484, Note_off_c, 0, 89, 100
2, 271488, Note_on_c, 0, 72, 80
2, 271488, Note_on_c, 0, 84, 80
2, 271868, Note_off_c, 0, 72, 100
2, 271868, Note_off_c, 0, 84, 100
2, 271872, Note_on_c, 0, 75, 80
2, 271872, Note_on_c, 0, 87, 80
2, 273020, Note_off_c, 0, 75, 100
2, 273020, Note_off_c, 0, 87, 100
2, 273024, Note_on_c, 0, 73, 80
2, 273024, Note_on_c, 0, 85, 80
2, 273404, Note_off_c, 0, 73, 100
2, 273404, Note_off_c, 0, 85, 100
2, 273792, Note_on_c, 0, 73, 80
2, 274172, Note_off_c, 0, 73, 100
2, 274176, Note_on_c, 0, 72, 100
2, 274940, Note_off_c, 0, 72, 100
2, 274944, Note_on_c, 0, 77, 100
2, 275040, Note_on_c, 0, 75, 100
2, 275132, Note_off_c, 0, 77, 100
2, 275136, Note_on_c, 0, 74, 100
2, 275228, Note_off_c, 0, 75, 100
2, 275232, Note_on_c, 0, 75, 100
2, 275324, Note_off_c, 0, 74, 100
2, 275324, Note_off_c, 0, 75, 100
2, 275328, Note_on_c, 0, 80, 100
2, 276092, Note_off_c, 0, 80, 100
2, 276096, Note_on_c, 0, 75, 100
2, 276476, Note_off_c, 0, 75, 100
2, 276480, Note_on_c, 0, 77, 100
2, 276860, Note_off_c, 0, 77, 100
2, 276864, Note_on_c, 0, 76, 100
2, 277244, Note_off_c, 0, 76, 100
2, 277248, Note_on_c, 0, 78, 100
2, 277628, Note_off_c, 0, 78, 100
2, 277632, Note_on_c, 0, 77, 100
2, 278012, Note_off_c, 0, 77, 100
2, 278016, Note_on_c, 0, 75, 100
2, 278396, Note_off_c, 0, 75, 100
2, 278400, Note_on_c, 0, 72, 100
2, 278780, Note_off_c, 0, 72, 100
2, 278784, Note_on_c, 0, 80, 100
2, 279164, Note_off_c, 0, 80, 100
2, 279168, Note_on_c, 0, 79, 100
2, 279548, Note_off_c, 0, 79, 100
2, 279552, Note_on_c, 0, 82, 100
2, 279932, Note_off_c, 0, 82, 100
2, 279936, Note_on_c, 0, 80, 100
2, 280316, Note_off_c, 0, 80, 100
2, 280320, Note_on_c, 0, 78, 100
2, 280700, Note_off_c, 0, 78, 100
2, 280704, Note_on_c, 0, 75, 100
2, 281084, Note_off_c, 0, 75, 100
2, 281088, Note_on_c, 0, 77, 100
2, 281468, Note_off_c, 0, 77, 100
2, 281472, Note_on_c, 0, 76, 100
2, 281852, Note_off_c, 0, 76, 100
2, 281856, Note_on_c, 0, 78, 100
2, 282236, Note_off_c, 0, 78, 100
2, 282240, Note_on_c, 0, 77, 100
2, 282620, Note_off_c, 0, 77, 100
2, 282624, Note_on_c, 0, 75, 100
2, 283004, Note_off_c, 0, 75, 100
2, 283008, Note_on_c, 0, 72, 100
2, 283388, Note_off_c, 0, 72, 100
2, 283392, Note_on_c, 0, 73, 100
2, 284540, Note_off_c, 0, 73, 100
2, 284544, Note_on_c, 0, 73, 100
2, 284544, Note_on_c, 0, 82, 100
2, 285308, Note_off_c, 0, 73, 100
2, 285308, Note_off_c, 0, 82, 100
2, 285312, Note_on_c, 0, 73, 100
2, 285312, Note_on_c, 0, 82, 100
2, 285692, Note_off_c, 0, 73, 100
2, 285692, Note_off_c, 0, 82, 100
2, 285696, Note_on_c, 0, 82, 117
2, 285696, Note_on_c, 0, 72, 116
2, 287612, Note_off_c, 0, 72, 100
2, 287612, Note_off_c, 0, 82, 100
2, 287616, Note_on_c, 0, 70, 100
2, 287616, Note_on_c, 0, 67, 100
2, 287996, Note_off_c, 0, 70, 100
2, 287996, Note_off_c, 0, 67, 100
2, 288000, Note_on_c, 0, 68, 100
2, 288000, Note_on_c, 0, 65, 100
2, 289148, Note_off_c, 0, 68, 100
2, 289148, Note_off_c, 0, 65, 100
2, 289152, Note_on_c, 0, 77, 105
2, 289152, Note_on_c, 0, 80, 105
2, 289916, Note_off_c, 0, 77, 100
2, 289916, Note_off_c, 0, 80, 100
2, 289920, Note_on_c, 0, 77, 108
2, 289920, Note_on_c, 0, 80, 108
2, 290300, Note_off_c, 0, 77, 100
2, 290300, Note_off_c, 0, 80, 100
2, 290304, Note_on_c, 0, 79, 120
2, 290304, Note_on_c, 0, 77, 121
2, 292220, Note_off_c, 0, 77, 100
2, 292220, Note_off_c, 0, 79, 100
2, 292224, Note_on_c, 0, 65, 110
2, 292224, Note_on_c, 0, 62, 110
2, 292604, Note_off_c, 0, 65, 100
2, 292604, Note_off_c, 0, 62, 100
2, 292608, Note_on_c, 0, 63, 110
2, 292608, Note_on_c, 0, 60, 110
2, 292988, Note_off_c, 0, 63, 100
2, 292988, Note_off_c, 0, 60, 100
2, 293760, Note_on_c, 0, 84, 110
2, 293760, Note_on_c, 0, 75, 110
2, 293760, Note_on_c, 0, 72, 110
2, 294524, Note_off_c, 0, 84, 100
2, 294524, Note_off_c, 0, 75, 100
2, 294524, Note_off_c, 0, 72, 100
2, 294528, Note_on_c, 0, 84, 110
2, 294528, Note_on_c, 0, 75, 110
2, 294528, Note_on_c, 0, 72, 110
2, 294908, Note_off_c, 0, 84, 100
2, 294908, Note_off_c, 0, 75, 100
2, 294908, Note_off_c, 0, 72, 100
2, 294912, Note_on_c, 0, 84, 110
2, 294912, Note_on_c, 0, 80, 110
2, 294912, Note_on_c, 0, 72, 110
2, 296060, Note_off_c, 0, 84, 100
2, 296060, Note_off_c, 0, 80, 100
2, 296060, Note_off_c, 0, 72, 100
2, 296064, Note_on_c, 0, 89, 110
2, 296064, Note_on_c, 0, 80, 110
2, 296064, Note_on_c, 0, 77, 110
2, 296828, Note_off_c, 0, 89, 100
2, 296828, Note_off_c, 0, 80, 100
2, 296828, Note_off_c, 0, 77, 100
2, 296832, Note_on_c, 0, 89, 110
2, 296832, Note_on_c, 0, 80, 110
2, 296832, Note_on_c, 0, 77, 110
2, 297212, Note_off_c, 0, 89, 100
2, 297212, Note_off_c, 0, 80, 100
2, 297212, Note_off_c, 0, 77, 100
2, 297216, Note_on_c, 0, 89, 120
2, 297216, Note_on_c, 0, 86, 120
2, 297216, Note_on_c, 0, 79, 120
2, 297216, Note_on_c, 0, 77, 120
2, 299132, Note_off_c, 0, 77, 100
2, 299132, Note_off_c, 0, 79, 100
2, 299132, Note_off_c, 0, 86, 100
2, 299132, Note_off_c, 0, 89, 100
2, 299136, Note_on_c, 0, 77, 120
2, 299136, Note_on_c, 0, 74, 120
2, 299516, Note_off_c, 0, 77, 100
2, 299516, Note_off_c, 0, 74, 100
2, 299520, Note_on_c, 0, 75, 120
2, 299520, Note_on_c, 0, 72, 120
2, 300284, Note_off_c, 0, 75, 100
2, 300284, Note_off_c, 0, 72, 100
2, 300288, Note_on_c, 0, 75, 120
2, 300288, Note_on_c, 0, 67, 120
2, 300672, Note_on_c, 0, 68, 120
2, 301052, Note_off_c, 0, 67, 100
2, 301052, Note_off_c, 0, 75, 100
2, 301056, Note_on_c, 0, 74, 120
2, 301056, Note_on_c, 0, 65, 120
2, 301436, Note_off_c, 0, 68, 100
2, 301436, Note_off_c, 0, 74, 100
2, 301436, Note_off_c, 0, 65, 100
2, 301440, Note_on_c, 0, 72, 120
2, 301440, Note_on_c, 0, 69, 120
2, 301440, Note_on_c, 0, 63, 120
2, 301820, Note_off_c, 0, 72, 100
2, 301820, Note_off_c, 0, 69, 100
2, 301820, Note_off_c, 0, 63, 100
2, 301824, Note_on_c, 0, 71, 120
2, 301824, Note_on_c, 0, 67, 120
2, 301824, Note_on_c, 0, 62, 120
2, 302204, Note_off_c, 0, 71, 100
2, 302204, Note_off_c, 0, 67, 100
2, 302204, Note_off_c, 0, 62, 100
2, 302592, Note_on_c, 0, 79, 80
2, 302592, Note_on_c, 0, 74, 80
2, 302592, Note_on_c, 0, 71, 80
2, 302972, Note_off_c, 0, 79, 100
2, 302972, Note_off_c, 0, 74, 100
2, 302972, Note_off_c, 0, 71, 100
2, 302976, Note_on_c, 0, 77, 80
2, 302976, Note_on_c, 0, 72, 80
2, 302976, Note_on_c, 0, 68, 80
2, 303356, Note_off_c, 0, 77, 100
2, 303356, Note_off_c, 0, 72, 100
2, 303356, Note_off_c, 0, 68, 100
2, 303744, Note_on_c, 0, 75, 80
2, 303744, Note_on_c, 0, 70, 80
2, 303744, Note_on_c, 0, 67, 80
2, 304124, Note_off_c, 0, 75, 100
2, 304124, Note_off_c, 0, 70, 100
2, 304124, Note_off_c, 0, 67, 100
2, 304128, Note_on_c, 0, 74, 80
2, 304128, Note_on_c, 0, 68, 80
2, 304128, Note_on_c, 0, 65, 80
2, 304508, Note_off_c, 0, 74, 100
2, 304508, Note_off_c, 0, 68, 100
2, 304508, Note_off_c, 0, 65, 100
2, 304896, Note_on_c, 0, 72, 80
2, 304896, Note_on_c, 0, 67, 80
2, 304896, Note_on_c, 0, 63, 80
2, 305276, Note_off_c, 0, 72, 100
2, 305276, Note_off_c, 0, 67, 100
2, 305276, Note_off_c, 0, 63, 100
2, 305280, Note_on_c, 0, 71, 80
2, 305280, Note_on_c, 0, 65, 80
2, 305280, Note_on_c, 0, 62, 80
2, 305660, Note_off_c, 0, 71, 100
2, 305660, Note_off_c, 0, 65, 100
2, 305660, Note_off_c, 0, 62, 100
2, 306048, Note_on_c, 0, 68, 80
2, 306048, Note_on_c, 0, 63, 80
2, 306048, Note_on_c, 0, 60, 80
2, 306428, Note_off_c, 0, 68, 100
2, 306428, Note_off_c, 0, 63, 100
2, 306428, Note_off_c, 0, 60, 100
2, 306432, Note_on_c, 0, 67, 80
2, 306432, Note_on_c, 0, 62, 80
2, 306432, Note_on_c, 0, 59, 80
2, 306812, Note_off_c, 0, 67, 100
2, 306812, Note_off_c, 0, 62, 100
2, 306812, Note_off_c, 0, 59, 100
2, 307200, Note_on_c, 0, 79, 80
2, 307200, Note_on_c, 0, 74, 80
2, 307200, Note_on_c, 0, 71, 80
2, 307580, Note_off_c, 0, 79, 100
2, 307580, Note_off_c, 0, 74, 100
2, 307580, Note_off_c, 0, 71, 100
2, 307584, Note_on_c, 0, 77, 79
2, 307584, Note_on_c, 0, 72, 79
2, 307584, Note_on_c, 0, 68, 79
2, 307964, Note_off_c, 0, 77, 100
2, 307964, Note_off_c, 0, 72, 100
2, 307964, Note_off_c, 0, 68, 100
2, 308352, Note_on_c, 0, 75, 78
2, 308352, Note_on_c, 0, 70, 78
2, 308352, Note_on_c, 0, 67, 78
2, 308732, Note_off_c, 0, 75, 100
2, 308732, Note_off_c, 0, 70, 100
2, 308732, Note_off_c, 0, 67, 100
2, 308736, Note_on_c, 0, 74, 77
2, 308736, Note_on_c, 0, 68, 77
2, 308736, Note_on_c, 0, 65, 77
2, 309116, Note_off_c, 0, 74, 100
2, 309116, Note_off_c, 0, 68, 100
2, 309116, Note_off_c, 0, 65, 100
2, 309504, Note_on_c, 0, 72, 76
2, 309504, Note_on_c, 0, 67, 76
2, 309504, Note_on_c, 0, 63, 76
2, 309884, Note_off_c, 0, 72, 100
2, 309884, Note_off_c, 0, 67, 100
2, 309884, Note_off_c, 0, 63, 100
2, 309888, Note_on_c, 0, 71, 76
2, 309888, Note_on_c, 0, 65, 76
2, 309888, Note_on_c, 0, 62, 76
2, 310268, Note_off_c, 0, 71, 100
2, 310268, Note_off_c, 0, 65, 100
2, 310268, Note_off_c, 0, 62, 100
2, 310656, Note_on_c, 0, 68, 74
2, 310656, Note_on_c, 0, 63, 74
2, 310656, Note_on_c, 0, 60, 74
2, 311036, Note_off_c, 0, 68, 100
2, 311036, Note_off_c, 0, 63, 100
2, 311036, Note_off_c, 0, 60, 100
2, 311040, Note_on_c, 0, 67, 74
2, 311040, Note_on_c, 0, 62, 74
2, 311040, Note_on_c, 0, 59, 74
2, 311420, Note_off_c, 0, 67, 100
2, 311420, Note_off_c, 0, 62, 100
2, 311420, Note_off_c, 0, 59, 100
2, 311808, Note_on_c, 0, 65, 72
2, 311808, Note_on_c, 0, 60, 72
2, 311808, Note_on_c, 0, 56, 72
2, 312188, Note_off_c, 0, 65, 100
2, 312188, Note_off_c, 0, 60, 100
2, 312188, Note_off_c, 0, 56, 100
2, 312192, Note_on_c, 0, 63, 72
2, 312192, Note_on_c, 0, 60, 72
2, 312192, Note_on_c, 0, 55, 72
2, 312572, Note_off_c, 0, 63, 100
2, 312572, Note_off_c, 0, 60, 100
2, 312572, Note_off_c, 0, 55, 100
2, 312960, Note_on_c, 0, 62, 71
2, 312960, Note_on_c, 0, 59, 71
2, 312960, Note_on_c, 0, 53, 71
2, 313340, Note_off_c, 0, 62, 100
2, 313340, Note_off_c, 0, 59, 100
2, 313340, Note_off_c, 0, 53, 100
2, 313344, Note_on_c, 0, 60, 110
2, 313344, Note_on_c, 0, 55, 110
2, 313344, Note_on_c, 0, 51, 110
2, 313916, Note_off_c, 0, 60, 100
2, 313916, Note_off_c, 0, 55, 100
2, 313916, Note_off_c, 0, 51, 100
2, 314016, Note_on_c, 0, 67, 110
2, 314108, Note_off_c, 0, 67, 100
2, 314112, Note_on_c, 0, 75, 110
2, 314396, Note_off_c, 0, 75, 100
2, 314400, Note_on_c, 0, 72, 110
2, 314492, Note_off_c, 0, 72, 100
2, 314496, Note_on_c, 0, 79, 110
2, 314780, Note_off_c, 0, 79, 100
2, 314784, Note_on_c, 0, 75, 110
2, 314876, Note_off_c, 0, 75, 100
2, 314880, Note_on_c, 0, 84, 110
2, 315164, Note_off_c, 0, 84, 100
2, 315168, Note_on_c, 0, 79, 110
2, 315260, Note_off_c, 0, 79, 100
2, 315264, Note_on_c, 0, 87, 110
2, 315644, Note_off_c, 0, 87, 100
2, 315648, Note_on_c, 0, 87, 110
2, 316028, Note_off_c, 0, 87, 100
2, 316416, Note_on_c, 0, 72, 80
2, 316416, Note_on_c, 0, 67, 80
2, 316796, Note_off_c, 0, 72, 100
2, 316796, Note_off_c, 0, 67, 100
2, 316800, Note_on_c, 0, 67, 80
2, 316800, Note_on_c, 0, 72, 80
2, 317564, Note_off_c, 0, 67, 100
2, 317564, Note_off_c, 0, 72, 100
2, 317568, Note_on_c, 0, 71, 80
2, 317568, Note_on_c, 0, 67, 80
2, 317948, Note_off_c, 0, 71, 100
2, 317948, Note_off_c, 0, 67, 100
2, 317952, Note_on_c, 0, 71, 110
2, 317952, Note_on_c, 0, 68, 110
2, 317952, Note_on_c, 0, 65, 110
2, 318524, Note_off_c, 0, 71, 100
2, 318524, Note_off_c, 0, 68, 100
2, 318524, Note_off_c, 0, 65, 100
2, 318624, Note_on_c, 0, 71, 110
2, 318716, Note_off_c, 0, 71, 100
2, 318720, Note_on_c, 0, 77, 110
2, 319004, Note_off_c, 0, 77, 100
2, 319008, Note_on_c, 0, 74, 110
2, 319100, Note_off_c, 0, 74, 100
2, 319104, Note_on_c, 0, 83, 110
2, 319388, Note_off_c, 0, 83, 100
2, 319392, Note_on_c, 0, 77, 110
2, 319484, Note_off_c, 0, 77, 100
2, 319488, Note_on_c, 0, 86, 110
2, 319772, Note_off_c, 0, 86, 100
2, 319776, Note_on_c, 0, 83, 110
2, 319868, Note_off_c, 0, 83, 100
2, 319872, Note_on_c, 0, 89, 110
2, 320252, Note_off_c, 0, 89, 100
2, 320256, Note_on_c, 0, 89, 110
2, 320636, Note_off_c, 0, 89, 100
2, 321024, Note_on_c, 0, 74, 80
2, 321024, Note_on_c, 0, 71, 80
2, 321404, Note_off_c, 0, 74, 100
2, 321404, Note_off_c, 0, 71, 100
2, 321408, Note_on_c, 0, 74, 80
2, 321408, Note_on_c, 0, 71, 80
2, 322172, Note_off_c, 0, 74, 100
2, 322172, Note_off_c, 0, 71, 100
2, 322176, Note_on_c, 0, 72, 81
2, 322556, Note_off_c, 0, 72, 100
2, 322560, Note_on_c, 0, 72, 82
2, 322608, Note_on_c, 0, 75, 82
2, 322652, Note_off_c, 0, 72, 100
2, 322652, Note_off_c, 0, 75, 100
2, 322656, Note_on_c, 0, 79, 82
2, 323132, Note_off_c, 0, 79, 100
2, 323136, Note_on_c, 0, 77, 83
2, 323324, Note_off_c, 0, 77, 100
2, 323328, Note_on_c, 0, 75, 83
2, 323708, Note_off_c, 0, 75, 100
2, 323712, Note_on_c, 0, 74, 84
2, 324476, Note_off_c, 0, 74, 100
2, 324480, Note_on_c, 0, 72, 85
2, 324860, Note_off_c, 0, 72, 100
2, 324864, Note_on_c, 0, 67, 86
2, 324912, Note_on_c, 0, 72, 86
2, 324956, Note_off_c, 0, 67, 100
2, 324960, Note_on_c, 0, 75, 86
2, 325004, Note_off_c, 0, 72, 100
2, 325004, Note_off_c, 0, 75, 100
2, 325008, Note_on_c, 0, 79, 86
2, 325436, Note_off_c, 0, 79, 100
2, 325440, Note_on_c, 0, 77, 87
2, 325628, Note_off_c, 0, 77, 100
2, 325632, Note_on_c, 0, 75, 87
2, 326012, Note_off_c, 0, 75, 100
2, 326016, Note_on_c, 0, 74, 88
2, 326016, Note_on_c, 0, 71, 88
2, 326780, Note_off_c, 0, 74, 100
2, 326780, Note_off_c, 0, 71, 100
2, 326784, Note_on_c, 0, 72, 89
2, 327164, Note_off_c, 0, 72, 100
2, 327168, Note_on_c, 0, 67, 100
2, 327216, Note_on_c, 0, 72, 100
2, 327260, Note_off_c, 0, 67, 100
2, 327264, Note_on_c, 0, 75, 100
2, 327308, Note_off_c, 0, 72, 100
2, 327308, Note_off_c, 0, 75, 100
2, 327312, Note_on_c, 0, 79, 110
2, 327312, Note_on_c, 0, 67, 113
2, 327740, Note_off_c, 0, 79, 100
2, 327740, Note_off_c, 0, 67, 100
2, 327744, Note_on_c, 0, 77, 100
2, 327744, Note_on_c, 0, 65, 100
2, 327932, Note_off_c, 0, 77, 100
2, 327932, Note_off_c, 0, 65, 100
2, 327936, Note_on_c, 0, 75, 100
2, 327936, Note_on_c, 0, 63, 100
2, 328700, Note_off_c, 0, 63, 100
2, 328700, Note_off_c, 0, 75, 100
2, 328704, Note_on_c, 0, 74, 100
2, 328704, Note_on_c, 0, 62, 100
2, 329084, Note_off_c, 0, 74, 100
2, 329084, Note_off_c, 0, 62, 100
2, 329088, Note_on_c, 0, 72, 100
2, 329088, Note_on_c, 0, 60, 100
2, 329852, Note_off_c, 0, 60, 100
2, 329852, Note_off_c, 0, 72, 100
2, 329856, Note_on_c, 0, 71, 100
2, 329856, Note_on_c, 0, 59, 100
2, 330236, Note_off_c, 0, 71, 100
2, 330236, Note_off_c, 0, 59, 100
2, 330240, Note_on_c, 0, 68, 100
2, 330240, Note_on_c, 0, 56, 100
2, 331004, Note_off_c, 0, 56, 100
2, 331004, Note_off_c, 0, 68, 100
2, 331008, Note_on_c, 0, 67, 100
2, 331008, Note_on_c, 0, 55, 100
2, 331388, Note_off_c, 0, 67, 100
2, 331388, Note_off_c, 0, 55, 100
2, 332160, Note_on_c, 0, 59, 80
2, 332284, Note_off_c, 0, 59, 100
2, 332288, Note_on_c, 0, 62, 80
2, 332412, Note_off_c, 0, 62, 100
2, 332416, Note_on_c, 0, 65, 80
2, 332540, Note_off_c, 0, 65, 100
2, 332544, Note_on_c, 0, 68, 80
2, 332668, Note_off_c, 0, 68, 100
2, 332672, Note_on_c, 0, 67, 80
2, 332796, Note_off_c, 0, 67, 100
2, 332800, Note_on_c, 0, 65, 80
2, 332924, Note_off_c, 0, 65, 100
2, 332928, Note_on_c, 0, 63, 80
2, 333308, Note_off_c, 0, 63, 100
2, 334464, Note_on_c, 0, 53, 80
2, 334588, Note_off_c, 0, 53, 100
2, 334592, Note_on_c, 0, 56, 80
2, 334716, Note_off_c, 0, 56, 100
2, 334720, Note_on_c, 0, 60, 80
2, 334844, Note_off_c, 0, 60, 100
2, 334848, Note_on_c, 0, 65, 80
2, 334972, Note_off_c, 0, 65, 100
2, 334976, Note_on_c, 0, 63, 80
2, 335100, Note_off_c, 0, 63, 100
2, 335104, Note_on_c, 0, 62, 80
2, 335228, Note_off_c, 0, 62, 100
2, 335232, Note_on_c, 0, 60, 80
2, 335612, Note_off_c, 0, 60, 100
2, 336768, Note_on_c, 0, 55, 120
2, 336892, Note_off_c, 0, 55, 100
2, 336896, Note_on_c, 0, 59, 120
2, 337020, Note_off_c, 0, 59, 100
2, 337024, Note_on_c, 0, 62, 120
2, 337148, Note_off_c, 0, 62, 100
2, 337152, Note_on_c, 0, 65, 120
2, 337276, Note_off_c, 0, 65, 100
2, 337280, Note_on_c, 0, 62, 120
2, 337404, Note_off_c, 0, 62, 100
2, 337408, Note_on_c, 0, 59, 120
2, 337532, Note_off_c, 0, 59, 100
2, 337536, Note_on_c, 0, 60, 120
2, 337916, Note_off_c, 0, 60, 100
2, 341376, Note_on_c, 0, 65, 80
2, 341760, Note_on_c, 0, 73, 80
2, 342140, Note_off_c, 0, 65, 100
2, 342140, Note_off_c, 0, 73, 100
2, 342144, Note_on_c, 0, 73, 80
2, 342144, Note_on_c, 0, 66, 80
2, 342908, Note_off_c, 0, 73, 100
2, 342912, Note_on_c, 0, 73, 80
2, 343292, Note_off_c, 0, 66, 100
2, 343296, Note_on_c, 0, 65, 80
2, 343676, Note_off_c, 0, 73, 100
2, 343680, Note_on_c, 0, 75, 80
2, 344060, Note_off_c, 0, 75, 100
2, 344064, Note_on_c, 0, 71, 80
2, 344444, Note_off_c, 0, 65, 100
2, 344448, Note_on_c, 0, 66, 80
2, 344828, Note_off_c, 0, 71, 100
2, 344832, Note_on_c, 0, 69, 80
2, 345212, Note_off_c, 0, 69, 100
2, 345216, Note_on_c, 0, 70, 80
2, 345596, Note_off_c, 0, 66, 100
2, 345596, Note_off_c, 0, 70, 100
2, 345984, Note_on_c, 0, 77, 80
2, 346368, Note_on_c, 0, 85, 80
2, 346748, Note_off_c, 0, 77, 100
2, 346748, Note_off_c, 0, 85, 100
2, 346752, Note_on_c, 0, 85, 80
2, 346752, Note_on_c, 0, 78, 80
2, 347516, Note_off_c, 0, 85, 100
2, 347520, Note_on_c, 0, 85, 80
2, 347900, Note_off_c, 0, 78, 100
2, 347904, Note_on_c, 0, 77, 80
2, 348284, Note_off_c, 0, 85, 100
2, 348288, Note_on_c, 0, 87, 80
2, 348668, Note_off_c, 0, 87, 100
2, 348672, Note_on_c, 0, 83, 80
2, 349052, Note_off_c, 0, 77, 100
2, 349056, Note_on_c, 0, 78, 80
2, 349436, Note_off_c, 0, 83, 100
2, 349440, Note_on_c, 0, 81, 80
2, 349820, Note_off_c, 0, 81, 100
2, 349824, Note_on_c, 0, 82, 80
2, 350204, Note_off_c, 0, 78, 100
2, 350204, Note_off_c, 0, 82, 100
2, 350592, Note_on_c, 0, 74, 80
2, 350976, Note_on_c, 0, 82, 80
2, 351356, Note_off_c, 0, 74, 100
2, 351356, Note_off_c, 0, 82, 100
2, 351360, Note_on_c, 0, 82, 80
2, 351360, Note_on_c, 0, 75, 80
2, 352124, Note_off_c, 0, 82, 100
2, 352128, Note_on_c, 0, 82, 80
2, 352508, Note_off_c, 0, 75, 100
2, 352512, Note_on_c, 0, 74, 80
2, 352892, Note_off_c, 0, 82, 100
2, 352896, Note_on_c, 0, 83, 80
2, 353276, Note_off_c, 0, 83, 100
2, 353280, Note_on_c, 0, 80, 80
2, 353660, Note_off_c, 0, 74, 100
2, 353664, Note_on_c, 0, 70, 80
2, 354044, Note_off_c, 0, 80, 100
2, 354048, Note_on_c, 0, 77, 80
2, 354428, Note_off_c, 0, 77, 100
2, 354432, Note_on_c, 0, 78, 80
2, 354812, Note_off_c, 0, 70, 100
2, 354816, Note_on_c, 0, 71, 80
2, 355196, Note_off_c, 0, 78, 100
2, 355200, Note_on_c, 0, 80, 80
2, 355580, Note_off_c, 0, 80, 100
2, 355584, Note_on_c, 0, 77, 80
2, 355964, Note_off_c, 0, 71, 100
2, 355968, Note_on_c, 0, 72, 80
2, 356348, Note_off_c, 0, 77, 100
2, 356352, Note_on_c, 0, 77, 80
2, 356732, Note_off_c, 0, 77, 100
2, 356736, Note_on_c, 0, 76, 80
2, 357116, Note_off_c, 0, 72, 100
2, 357120, Note_on_c, 0, 68, 80
2, 357500, Note_off_c, 0, 76, 100
2, 357504, Note_on_c, 0, 77, 80
2, 357884, Note_off_c, 0, 77, 100
2, 357888, Note_on_c, 0, 68, 80
2, 357888, Note_on_c, 0, 65, 80
2, 358268, Note_off_c, 0, 68, 100
2, 358268, Note_off_c, 0, 68, 100
2, 358268, Note_off_c, 0, 65, 100
2, 358272, Note_on_c, 0, 67, 80
2, 358272, Note_on_c, 0, 64, 80
2, 358652, Note_off_c, 0, 67, 100
2, 358652, Note_off_c, 0, 64, 100
2, 359808, Note_on_c, 0, 73, 80
2, 360188, Note_off_c, 0, 73, 100
2, 360192, Note_on_c, 0, 73, 80
2, 360572, Note_off_c, 0, 73, 100
2, 360576, Note_on_c, 0, 73, 80
2, 360956, Note_off_c, 0, 73, 100
2, 360960, Note_on_c, 0, 72, 80
2, 361340, Note_off_c, 0, 72, 100
2, 362112, Note_on_c, 0, 70, 80
2, 362492, Note_off_c, 0, 70, 100
2, 362496, Note_on_c, 0, 70, 80
2, 362876, Note_off_c, 0, 70, 100
2, 362880, Note_on_c, 0, 70, 80
2, 363260, Note_off_c, 0, 70, 100
2, 363264, Note_on_c, 0, 69, 80
2, 363644, Note_off_c, 0, 69, 100
2, 364224, Note_on_c, 0, 74, 80
2, 364412, Note_off_c, 0, 74, 100
2, 364416, Note_on_c, 0, 73, 80
2, 364604, Note_off_c, 0, 73, 100
2, 364608, Note_on_c, 0, 74, 80
2, 364796, Note_off_c, 0, 74, 100
2, 364800, Note_on_c, 0, 76, 80
2, 364988, Note_off_c, 0, 76, 100
2, 364992, Note_on_c, 0, 74, 80
2, 365180, Note_off_c, 0, 74, 100
2, 365376, Note_on_c, 0, 72, 80
2, 365564, Note_off_c, 0, 72, 100
2, 365568, Note_on_c, 0, 71, 80
2, 365756, Note_off_c, 0, 71, 100
2, 365760, Note_on_c, 0, 72, 80
2, 365948, Note_off_c, 0, 72, 100
2, 365952, Note_on_c, 0, 74, 80
2, 366140, Note_off_c, 0, 74, 100
2, 366144, Note_on_c, 0, 72, 80
2, 366332, Note_off_c, 0, 72, 100
2, 366528, Note_on_c, 0, 70, 80
2, 366716, Note_off_c, 0, 70, 100
2, 366720, Note_on_c, 0, 69, 80
2, 366908, Note_off_c, 0, 69, 100
2, 366912, Note_on_c, 0, 70, 80
2, 367100, Note_off_c, 0, 70, 100
2, 367104, Note_on_c, 0, 72, 80
2, 367292, Note_off_c, 0, 72, 100
2, 367296, Note_on_c, 0, 70, 80
2, 367484, Note_off_c, 0, 70, 100
2, 367488, Note_on_c, 0, 69, 80
2, 369212, Note_off_c, 0, 69, 100
2, 369216, Note_on_c, 0, 72, 80
2, 369404, Note_off_c, 0, 72, 100
2, 369408, Note_on_c, 0, 77, 80
2, 369788, Note_off_c, 0, 77, 100
2, 369792, Note_on_c, 0, 77, 80
2, 370940, Note_off_c, 0, 77, 100
2, 370944, Note_on_c, 0, 76, 80
2, 371324, Note_off_c, 0, 76, 100
2, 372096, Note_on_c, 0, 72, 80
2, 373244, Note_off_c, 0, 72, 100
2, 373248, Note_on_c, 0, 72, 80
2, 373344, Note_on_c, 0, 74, 80
2, 373436, Note_off_c, 0, 72, 100
2, 373440, Note_on_c, 0, 72, 80
2, 373532, Note_off_c, 0, 74, 100
2, 373536, Note_on_c, 0, 71, 80
2, 373628, Note_off_c, 0, 72, 100
2, 373632, Note_on_c, 0, 72, 80
2, 373724, Note_off_c, 0, 71, 100
2, 373820, Note_off_c, 0, 72, 100
2, 373824, Note_on_c, 0, 79, 80
2, 374012, Note_off_c, 0, 79, 100
2, 374016, Note_on_c, 0, 82, 105
2, 374396, Note_off_c, 0, 82, 100
2, 374400, Note_on_c, 0, 82, 80
2, 375548, Note_off_c, 0, 82, 100
2, 375552, Note_on_c, 0, 81, 80
2, 375932, Note_off_c, 0, 81, 100
2, 376704, Note_on_c, 0, 69, 80
2, 376892, Note_off_c, 0, 69, 100
2, 376896, Note_on_c, 0, 70, 80
2, 377084, Note_off_c, 0, 70, 100
2, 377088, Note_on_c, 0, 72, 80
2, 377276, Note_off_c, 0, 72, 100
2, 377280, Note_on_c, 0, 74, 80
2, 377468, Note_off_c, 0, 74, 100
2, 377472, Note_on_c, 0, 76, 80
2, 377660, Note_off_c, 0, 76, 100
2, 377664, Note_on_c, 0, 77, 80
2, 377852, Note_off_c, 0, 77, 100
2, 377856, Note_on_c, 0, 79, 80
2, 378044, Note_off_c, 0, 79, 100
2, 378048, Note_on_c, 0, 81, 80
2, 378236, Note_off_c, 0, 81, 100
2, 378240, Note_on_c, 0, 82, 80
2, 378428, Note_off_c, 0, 82, 100
2, 378432, Note_on_c, 0, 84, 80
2, 378620, Note_off_c, 0, 84, 100
2, 378624, Note_on_c, 0, 86, 80
2, 378812, Note_off_c, 0, 86, 100
2, 378816, Note_on_c, 0, 88, 80
2, 379004, Note_off_c, 0, 88, 100
2, 379008, Note_on_c, 0, 89, 103
2, 380156, Note_off_c, 0, 89, 100
2, 380160, Note_on_c, 0, 88, 80
2, 380540, Note_off_c, 0, 88, 100
2, 381312, Note_on_c, 0, 60, 80
2, 381500, Note_off_c, 0, 60, 100
2, 381504, Note_on_c, 0, 62, 80
2, 381692, Note_off_c, 0, 62, 100
2, 381696, Note_on_c, 0, 64, 80
2, 381884, Note_off_c, 0, 64, 100
2, 381888, Note_on_c, 0, 65, 80
2, 382076, Note_off_c, 0, 65, 100
2, 382080, Note_on_c, 0, 67, 80
2, 382268, Note_off_c, 0, 67, 100
2, 382272, Note_on_c, 0, 69, 80
2, 382460, Note_off_c, 0, 69, 100
2, 382464, Note_on_c, 0, 70, 80
2, 382652, Note_off_c, 0, 70, 100
2, 382656, Note_on_c, 0, 72, 80
2, 382844, Note_off_c, 0, 72, 100
2, 382848, Note_on_c, 0, 74, 80
2, 383036, Note_off_c, 0, 74, 100
2, 383040, Note_on_c, 0, 76, 80
2, 383228, Note_off_c, 0, 76, 100
2, 383232, Note_on_c, 0, 77, 80
2, 383420, Note_off_c, 0, 77, 100
2, 383424, Note_on_c, 0, 79, 80
2, 383612, Note_off_c, 0, 79, 100
2, 383616, Note_on_c, 0, 80, 104
2, 385148, Note_off_c, 0, 80, 100
2, 385152, Note_on_c, 0, 79, 80
2, 385532, Note_off_c, 0, 79, 100
2, 385536, Note_on_c, 0, 77, 80
2, 385916, Note_off_c, 0, 77, 100
2, 385920, Note_on_c, 0, 75, 80
2, 386688, Note_on_c, 0, 77, 80
2, 386784, Note_on_c, 0, 75, 80
2, 386876, Note_off_c, 0, 77, 100
2, 386880, Note_on_c, 0, 74, 80
2, 386972, Note_off_c, 0, 75, 100
2, 386976, Note_on_c, 0, 75, 80
2, 387068, Note_off_c, 0, 75, 100
2, 387068, Note_off_c, 0, 74, 100
2, 387068, Note_off_c, 0, 75, 100
2, 387072, Note_on_c, 0, 79, 80
2, 387452, Note_off_c, 0, 79, 100
2, 387456, Note_on_c, 0, 77, 80
2, 387836, Note_off_c, 0, 77, 100
2, 387840, Note_on_c, 0, 74, 80
2, 388220, Note_off_c, 0, 74, 100
2, 388224, Note_on_c, 0, 75, 110
2, 388224, Note_on_c, 0, 63, 110
2, 389948, Note_off_c, 0, 63, 100
2, 389948, Note_off_c, 0, 75, 100
2, 389952, Note_on_c, 0, 67, 110
2, 389952, Note_on_c, 0, 79, 110
2, 390140, Note_off_c, 0, 67, 100
2, 390140, Note_off_c, 0, 79, 100
2, 390144, Note_on_c, 0, 84, 110
2, 390144, Note_on_c, 0, 72, 110
2, 390524, Note_off_c, 0, 84, 100
2, 390524, Note_off_c, 0, 72, 100
2, 390528, Note_on_c, 0, 84, 110
2, 390528, Note_on_c, 0, 72, 110
2, 391676, Note_off_c, 0, 84, 100
2, 391676, Note_off_c, 0, 72, 100
2, 391680, Note_on_c, 0, 71, 110
2, 391680, Note_on_c, 0, 83, 110
2, 392060, Note_off_c, 0, 71, 100
2, 392060, Note_off_c, 0, 83, 100
2, 392832, Note_on_c, 0, 79, 110
2, 392832, Note_on_c, 0, 67, 110
2, 394556, Note_off_c, 0, 67, 100
2, 394556, Note_off_c, 0, 79, 100
2, 394560, Note_on_c, 0, 74, 110
2, 394560, Note_on_c, 0, 86, 110
2, 394748, Note_off_c, 0, 74, 100
2, 394748, Note_off_c, 0, 86, 100
2, 394752, Note_on_c, 0, 77, 110
2, 394752, Note_on_c, 0, 89, 110
2, 395132, Note_off_c, 0, 77, 100
2, 395132, Note_off_c, 0, 89, 100
2, 395136, Note_on_c, 0, 77, 110
2, 395136, Note_on_c, 0, 89, 110
2, 396284, Note_off_c, 0, 77, 100
2, 396284, Note_off_c, 0, 89, 100
2, 396288, Note_on_c, 0, 75, 110
2, 396288, Note_on_c, 0, 87, 110
2, 396668, Note_off_c, 0, 75, 100
2, 396668, Note_off_c, 0, 87, 100
2, 397440, Note_on_c, 0, 63, 100
2, 397628, Note_off_c, 0, 63, 100
2, 397632, Note_on_c, 0, 67, 100
2, 397820, Note_off_c, 0, 67, 100
2, 397824, Note_on_c, 0, 72, 100
2, 398012, Note_off_c, 0, 72, 100
2, 398016, Note_on_c, 0, 67, 100
2, 398204, Note_off_c, 0, 67, 100
2, 398208, Note_on_c, 0, 72, 100
2, 398396, Note_off_c, 0, 72, 100
2, 398400, Note_on_c, 0, 75, 100
2, 398588, Note_off_c, 0, 75, 100
2, 398592, Note_on_c, 0, 72, 100
2, 398780, Note_off_c, 0, 72, 100
2, 398784, Note_on_c, 0, 75, 100
2, 398972, Note_off_c, 0, 75, 100
2, 398976, Note_on_c, 0, 79, 100
2, 399164, Note_off_c, 0, 79, 100
2, 399168, Note_on_c, 0, 75, 100
2, 399356, Note_off_c, 0, 75, 100
2, 399360, Note_on_c, 0, 79, 100
2, 399548, Note_off_c, 0, 79, 100
2, 399552, Note_on_c, 0, 84, 100
2, 399740, Note_off_c, 0, 84, 100
2, 399744, Note_on_c, 0, 84, 100
2, 400892, Note_off_c, 0, 84, 100
2, 400896, Note_on_c, 0, 83, 100
2, 401276, Note_off_c, 0, 83, 100
2, 402048, Note_on_c, 0, 55, 100
2, 402236, Note_off_c, 0, 55, 100
2, 402240, Note_on_c, 0, 59, 100
2, 402428, Note_off_c, 0, 59, 100
2, 402432, Note_on_c, 0, 62, 100
2, 402620, Note_off_c, 0, 62, 100
2, 402624, Note_on_c, 0, 59, 100
2, 402812, Note_off_c, 0, 59, 100
2, 402816, Note_on_c, 0, 62, 100
2, 403004, Note_off_c, 0, 62, 100
2, 403008, Note_on_c, 0, 67, 100
2, 403196, Note_off_c, 0, 67, 100
2, 403200, Note_on_c, 0, 62, 100
2, 403388, Note_off_c, 0, 62, 100
2, 403392, Note_on_c, 0, 67, 100
2, 403580, Note_off_c, 0, 67, 100
2, 403584, Note_on_c, 0, 71, 100
2, 403772, Note_off_c, 0, 71, 100
2, 403776, Note_on_c, 0, 67, 100
2, 403964, Note_off_c, 0, 67, 100
2, 403968, Note_on_c, 0, 71, 100
2, 404156, Note_off_c, 0, 71, 100
2, 404160, Note_on_c, 0, 74, 100
2, 404348, Note_off_c, 0, 74, 100
2, 404352, Note_on_c, 0, 75, 100
2, 404732, Note_off_c, 0, 75, 100
2, 405120, Note_on_c, 0, 84, 103
2, 406268, Note_off_c, 0, 84, 100
2, 406272, Note_on_c, 0, 52, 108
2, 406652, Note_off_c, 0, 52, 100
2, 406656, Note_on_c, 0, 53, 120
2, 407804, Note_off_c, 0, 53, 100
2, 407808, Note_on_c, 0, 54, 120
2, 408956, Note_off_c, 0, 54, 100
2, 408960, Note_on_c, 0, 55, 120
2, 410108, Note_off_c, 0, 55, 100
2, 410112, Note_on_c, 0, 53, 110
2, 410208, Note_on_c, 0, 55, 110
2, 410300, Note_off_c, 0, 53, 100
2, 410304, Note_on_c, 0, 53, 110
2, 410396, Note_off_c, 0, 55, 100
2, 410400, Note_on_c, 0, 55, 110
2, 410492, Note_off_c, 0, 53, 100
2, 410496, Note_on_c, 0, 53, 110
2, 410588, Note_off_c, 0, 55, 100
2, 410592, Note_on_c, 0, 55, 110
2, 410684, Note_off_c, 0, 53, 100
2, 410688, Note_on_c, 0, 53, 110
2, 410780, Note_off_c, 0, 55, 100
2, 410784, Note_on_c, 0, 55, 110
2, 410876, Note_off_c, 0, 53, 100
2, 410880, Note_on_c, 0, 53, 110
2, 410972, Note_off_c, 0, 55, 100
2, 410976, Note_on_c, 0, 55, 110
2, 411068, Note_off_c, 0, 53, 100
2, 411072, Note_on_c, 0, 52, 110
2, 411164, Note_off_c, 0, 55, 100
2, 411168, Note_on_c, 0, 53, 110
2, 411260, Note_off_c, 0, 52, 100
2, 411264, Note_on_c, 0, 51, 100
2, 411356, Note_off_c, 0, 53, 100
2, 411452, Note_off_c, 0, 51, 100
2, 411456, Note_on_c, 0, 55, 100
2, 411644, Note_off_c, 0, 55, 100
2, 411648, Note_on_c, 0, 60, 100
2, 411836, Note_off_c, 0, 60, 100
2, 411840, Note_on_c, 0, 55, 100
2, 412028, Note_off_c, 0, 55, 100
2, 412032, Note_on_c, 0, 60, 100
2, 412220, Note_off_c, 0, 60, 100
2, 412224, Note_on_c, 0, 63, 100
2, 412412, Note_off_c, 0, 63, 100
2, 412416, Note_on_c, 0, 67, 100
2, 412604, Note_off_c, 0, 67, 100
2, 412608, Note_on_c, 0, 63, 100
2, 412796, Note_off_c, 0, 63, 100
2, 412800, Note_on_c, 0, 67, 100
2, 412988, Note_off_c, 0, 67, 100
2, 412992, Note_on_c, 0, 72, 100
2, 413180, Note_off_c, 0, 72, 100
2, 413184, Note_on_c, 0, 75, 100
2, 413372, Note_off_c, 0, 75, 100
2, 413376, Note_on_c, 0, 79, 100
2, 413564, Note_off_c, 0, 79, 100
2, 413568, Note_on_c, 0, 84, 100
2, 413948, Note_off_c, 0, 84, 100
2, 414336, Note_on_c, 0, 60, 100
2, 415484, Note_off_c, 0, 60, 100
2, 415488, Note_on_c, 0, 52, 100
2, 415868, Note_off_c, 0, 52, 100
2, 415872, Note_on_c, 0, 53, 110
2, 416636, Note_off_c, 0, 53, 100
2, 416640, Note_on_c, 0, 60, 110
2, 417020, Note_off_c, 0, 60, 100
2, 417024, Note_on_c, 0, 54, 110
2, 417788, Note_off_c, 0, 54, 100
2, 417792, Note_on_c, 0, 60, 110
2, 418172, Note_off_c, 0, 60, 100
2, 418176, Note_on_c, 0, 55, 110
2, 418364, Note_off_c, 0, 55, 100
2, 418368, Note_on_c, 0, 60, 110
2, 418556, Note_off_c, 0, 60, 100
2, 418560, Note_on_c, 0, 59, 110
2, 418748, Note_off_c, 0, 59, 100
2, 418752, Note_on_c, 0, 60, 110
2, 418940, Note_off_c, 0, 60, 100
2, 418944, Note_on_c, 0, 55, 110
2, 419132, Note_off_c, 0, 55, 100
2, 419136, Note_on_c, 0, 60, 110
2, 419324, Note_off_c, 0, 60, 100
2, 419328, Note_on_c, 0, 56, 110
2, 419516, Note_off_c, 0, 56, 100
2, 419520, Note_on_c, 0, 60, 110
2, 419708, Note_off_c, 0, 60, 100
2, 419712, Note_on_c, 0, 59, 110
2, 419900, Note_off_c, 0, 59, 100
2, 419904, Note_on_c, 0, 60, 110
2, 420092, Note_off_c, 0, 60, 100
2, 420096, Note_on_c, 0, 54, 110
2, 420284, Note_off_c, 0, 54, 100
2, 420288, Note_on_c, 0, 60, 110
2, 420476, Note_off_c, 0, 60, 100
2, 420480, Note_on_c, 0, 55, 110
2, 420668, Note_off_c, 0, 55, 100
2, 420672, Note_on_c, 0, 60, 110
2, 420860, Note_off_c, 0, 60, 100
2, 420864, Note_on_c, 0, 59, 110
2, 421052, Note_off_c, 0, 59, 100
2, 421056, Note_on_c, 0, 60, 110
2, 421244, Note_off_c, 0, 60, 100
2, 421248, Note_on_c, 0, 52, 110
2, 421436, Note_off_c, 0, 52, 100
2, 421440, Note_on_c, 0, 60, 110
2, 421628, Note_off_c, 0, 60, 100
2, 421632, Note_on_c, 0, 53, 110
2, 421820, Note_off_c, 0, 53, 100
2, 421824, Note_on_c, 0, 60, 110
2, 422012, Note_off_c, 0, 60, 100
2, 422016, Note_on_c, 0, 56, 110
2, 422204, Note_off_c, 0, 56, 100
2, 422208, Note_on_c, 0, 60, 110
2, 422396, Note_off_c, 0, 60, 100
2, 422400, Note_on_c, 0, 54, 110
2, 422588, Note_off_c, 0, 54, 100
2, 422592, Note_on_c, 0, 60, 110
2, 422780, Note_off_c, 0, 60, 100
2, 422784, Note_on_c, 0, 55, 110
2, 423164, Note_off_c, 0, 55, 100
2, 423456, Note_on_c, 0, 67, 110
2, 423548, Note_off_c, 0, 67, 100
2, 423552, Note_on_c, 0, 75, 110
2, 423836, Note_off_c, 0, 75, 100
2, 423840, Note_on_c, 0, 72, 110
2, 423932, Note_off_c, 0, 72, 100
2, 423936, Note_on_c, 0, 78, 120
2, 424316, Note_off_c, 0, 78, 100
2, 424608, Note_on_c, 0, 66, 110
2, 424700, Note_off_c, 0, 66, 100
2, 424704, Note_on_c, 0, 75, 110
2, 424988, Note_off_c, 0, 75, 100
2, 424992, Note_on_c, 0, 72, 110
2, 425084, Note_off_c, 0, 72, 100
2, 425088, Note_on_c, 0, 79, 120
2, 425468, Note_off_c, 0, 79, 100
2, 425760, Note_on_c, 0, 67, 110
2, 425852, Note_off_c, 0, 67, 100
2, 425856, Note_on_c, 0, 75, 110
2, 426140, Note_off_c, 0, 75, 100
2, 426144, Note_on_c, 0, 72, 110
2, 426236, Note_off_c, 0, 72, 100
2, 426240, Note_on_c, 0, 81, 120
2, 426620, Note_off_c, 0, 81, 100
2, 426912, Note_on_c, 0, 69, 110
2, 427004, Note_off_c, 0, 69, 100
2, 427008, Note_on_c, 0, 75, 110
2, 427292, Note_off_c, 0, 75, 100
2, 427296, Note_on_c, 0, 72, 110
2, 427388, Note_off_c, 0, 72, 100
2, 427392, Note_on_c, 0, 79, 120
2, 427964, Note_off_c, 0, 79, 100
2, 427968, Note_on_c, 0, 75, 120
2, 428156, Note_off_c, 0, 75, 100
2, 428160, Note_on_c, 0, 75, 120
2, 428348, Note_off_c, 0, 75, 100
2, 428352, Note_on_c, 0, 72, 120
2, 428540, Note_off_c, 0, 72, 100
2, 428544, Note_on_c, 0, 72, 120
2, 428732, Note_off_c, 0, 72, 100
2, 428736, Note_on_c, 0, 67, 120
2, 428924, Note_off_c, 0, 67, 100
2, 428928, Note_on_c, 0, 67, 120
2, 429116, Note_off_c, 0, 67, 100
2, 429120, Note_on_c, 0, 63, 120
2, 429308, Note_off_c, 0, 63, 100
2, 429312, Note_on_c, 0, 63, 120
2, 429500, Note_off_c, 0, 63, 100
2, 429504, Note_on_c, 0, 60, 120
2, 429692, Note_off_c, 0, 60, 100
2, 429696, Note_on_c, 0, 60, 120
2, 429884, Note_off_c, 0, 60, 100
2, 429888, Note_on_c, 0, 55, 120
2, 430076, Note_off_c, 0, 55, 100
2, 430080, Note_on_c, 0, 55, 120
2, 430268, Note_off_c, 0, 55, 100
2, 430272, Note_on_c, 0, 51, 120
2, 430460, Note_off_c, 0, 51, 100
2, 430464, Note_on_c, 0, 51, 120
2, 430652, Note_off_c, 0, 51, 100
2, 430656, Note_on_c, 0, 48, 120
2, 430844, Note_off_c, 0, 48, 100
2, 431616, Note_on_c, 0, 59, 110
2, 431616, Note_on_c, 0, 55, 110
2, 431616, Note_on_c, 0, 53, 110
2, 431616, Note_on_c, 0, 50, 110
2, 431996, Note_off_c, 0, 59, 100
2, 431996, Note_off_c, 0, 55, 100
2, 431996, Note_off_c, 0, 53, 100
2, 431996, Note_off_c, 0, 50, 100
2, 432000, Note_on_c, 0, 60, 110
2, 432000, Note_on_c, 0, 55, 110
2, 432000, Note_on_c, 0, 51, 110
2, 432380, Note_off_c, 0, 60, 100
2, 432380, Note_off_c, 0, 55, 100
2, 432380, Note_off_c, 0, 51, 100
2, 433536, Note_on_c, 0, 67, 100
2, 433536, Note_on_c, 0, 65, 100
2, 433536, Note_on_c, 0, 62, 100
2, 433536, Note_on_c, 0, 59, 100
2, 433916, Note_off_c, 0, 67, 100
2, 433916, Note_off_c, 0, 65, 100
2, 433916, Note_off_c, 0, 62, 100
2, 433916, Note_off_c, 0, 59, 100
2, 433920, Note_on_c, 0, 67, 100
2, 433920, Note_on_c, 0, 65, 100
2, 433920, Note_on_c, 0, 62, 100
2, 433920, Note_on_c, 0, 59, 100
2, 434300, Note_off_c, 0, 67, 100
2, 434300, Note_off_c, 0, 65, 100
2, 434300, Note_off_c, 0, 62, 100
2, 434300, Note_off_c, 0, 59, 100
2, 434304, Note_on_c, 0, 68, 100
2, 434304, Note_on_c, 0, 63, 100
2, 434304, Note_on_c, 0, 60, 100
2, 434684, Note_off_c, 0, 68, 100
2, 434688, Note_on_c, 0, 67, 100
2, 435068, Note_off_c, 0, 63, 100
2, 435068, Note_off_c, 0, 60, 100
2, 435068, Note_off_c, 0, 67, 100
2, 435840, Note_on_c, 0, 71, 100
2, 435840, Note_on_c, 0, 65, 100
2, 435840, Note_on_c, 0, 62, 100
2, 436220, Note_off_c, 0, 71, 100
2, 436220, Note_off_c, 0, 65, 100
2, 436220, Note_off_c, 0, 62, 100
2, 436224, Note_on_c, 0, 71, 100
2, 436224, Note_on_c, 0, 65, 100
2, 436224, Note_on_c, 0, 62, 100
2, 436604, Note_off_c, 0, 71, 100
2, 436604, Note_off_c, 0, 65, 100
2, 436604, Note_off_c, 0, 62, 100
2, 436608, Note_on_c, 0, 67, 100
2, 436608, Note_on_c, 0, 63, 100
2, 436608, Note_on_c, 0, 74, 100
2, 436988, Note_off_c, 0, 74, 100
2, 436992, Note_on_c, 0, 72, 100
2, 437372, Note_off_c, 0, 67, 100
2, 437372, Note_off_c, 0, 63, 100
2, 437372, Note_off_c, 0, 72, 100
2, 438144, Note_on_c, 0, 67, 89
2, 438144, Note_on_c, 0, 65, 89
2, 438144, Note_on_c, 0, 62, 89
2, 438144, Note_on_c, 0, 59, 89
2, 438524, Note_off_c, 0, 67, 100
2, 438524, Note_off_c, 0, 65, 100
2, 438524, Note_off_c, 0, 62, 100
2, 438524, Note_off_c, 0, 59, 100
2, 438528, Note_on_c, 0, 67, 89
2, 438528, Note_on_c, 0, 65, 89
2, 438528, Note_on_c, 0, 62, 89
2, 438528, Note_on_c, 0, 59, 89
2, 438908, Note_off_c, 0, 67, 100
2, 438908, Note_off_c, 0, 65, 100
2, 438908, Note_off_c, 0, 62, 100
2, 438908, Note_off_c, 0, 59, 100
2, 438912, Note_on_c, 0, 68, 88
2, 438912, Note_on_c, 0, 63, 88
2, 438912, Note_on_c, 0, 60, 88
2, 439292, Note_off_c, 0, 68, 100
2, 439296, Note_on_c, 0, 67, 87
2, 439676, Note_off_c, 0, 63, 100
2, 439676, Note_off_c, 0, 60, 100
2, 439676, Note_off_c, 0, 67, 100
2, 440448, Note_on_c, 0, 59, 86
2, 440448, Note_on_c, 0, 53, 86
2, 440448, Note_on_c, 0, 50, 86
2, 440828, Note_off_c, 0, 59, 100
2, 440828, Note_off_c, 0, 53, 100
2, 440828, Note_off_c, 0, 50, 100
2, 440832, Note_on_c, 0, 59, 85
2, 440832, Note_on_c, 0, 53, 85
2, 440832, Note_on_c, 0, 50, 85
2, 441212, Note_off_c, 0, 59, 100
2, 441212, Note_off_c, 0, 53, 100
2, 441212, Note_off_c, 0, 50, 100
2, 441216, Note_on_c, 0, 55, 84
2, 441216, Note_on_c, 0, 51, 84
2, 441216, Note_on_c, 0, 62, 84
2, 441596, Note_off_c, 0, 62, 100
2, 441600, Note_on_c, 0, 60, 84
2, 441980, Note_off_c, 0, 55, 100
2, 441980, Note_off_c, 0, 51, 100
2, 441980, Note_off_c, 0, 60, 100
2, 442752, Note_on_c, 0, 59, 82
2, 442752, Note_on_c, 0, 53, 82
2, 442752, Note_on_c, 0, 50, 82
2, 443132, Note_off_c, 0, 59, 100
2, 443132, Note_off_c, 0, 53, 100
2, 443132, Note_off_c, 0, 50, 100
2, 443136, Note_on_c, 0, 59, 81
2, 443136, Note_on_c, 0, 53, 81
2, 443136, Note_on_c, 0, 50, 81
2, 443516, Note_off_c, 0, 59, 100
2, 443516, Note_off_c, 0, 53, 100
2, 443516, Note_off_c, 0, 50, 100
2, 443520, Note_on_c, 0, 60, 81
2, 443520, Note_on_c, 0, 55, 81
2, 443520, Note_on_c, 0, 51, 81
2, 443900, Note_off_c, 0, 60, 100
2, 443900, Note_off_c, 0, 55, 100
2, 443900, Note_off_c, 0, 51, 100
2, 444672, Note_on_c, 0, 79, 120
2, 444672, Note_on_c, 0, 74, 120
2, 444672, Note_on_c, 0, 71, 120
2, 444672, Note_on_c, 0, 67, 120
2, 445052, Note_off_c, 0, 79, 100
2, 445052, Note_off_c, 0, 74, 100
2, 445052, Note_off_c, 0, 71, 100
2, 445052, Note_off_c, 0, 67, 100
2, 445824, Note_on_c, 0, 72, 120
2, 445824, Note_on_c, 0, 67, 120
2, 445824, Note_on_c, 0, 63, 120
2, 445824, Note_on_c, 0, 60, 120
2, 446588, Note_off_c, 0, 72, 100
2, 446588, Note_off_c, 0, 67, 100
2, 446588, Note_off_c, 0, 63, 100
2, 446588, Note_off_c, 0, 60, 100
2, 446976, Control_c, 0, 7, 0
2, 447360, Note_on_c, 0, 60, 1
2, 447548, Note_off_c, 0, 60, 100
2, 447548, End_track
3, 0, Start_track
3, 0, Title_t, "Left"
3, 0, Control_c, 1, 0, 0
3, 0, Program_c, 1, 0
3, 0, Control_c, 1, 7, 100
3, 0, Control_c, 1, 10, 54
3, 0, Control_c, 1, 91, 127
3, 0, Key_signature, -3, "minor"
3, 0, Note_on_c, 1, 60, 110
3, 0, Note_on_c, 1, 55, 110
3, 0, Note_on_c, 1, 51, 110
3, 0, Note_on_c, 1, 48, 110
3, 572, Note_off_c, 1, 60, 100
3, 572, Note_off_c, 1, 55, 100
3, 572, Note_off_c, 1, 51, 100
3, 572, Note_off_c, 1, 48, 100
3, 3072, Note_on_c, 1, 60, 80
3, 3072, Note_on_c, 1, 63, 80
3, 3452, Note_off_c, 1, 60, 100
3, 3452, Note_off_c, 1, 63, 100
3, 3456, Note_on_c, 1, 60, 80
3, 3456, Note_on_c, 1, 63, 80
3, 4220, Note_off_c, 1, 60, 100
3, 4220, Note_off_c, 1, 63, 100
3, 4224, Note_on_c, 1, 62, 80
3, 4224, Note_on_c, 1, 65, 80
3, 4604, Note_off_c, 1, 62, 100
3, 4604, Note_off_c, 1, 65, 100
3, 4608, Note_on_c, 1, 62, 110
3, 4608, Note_on_c, 1, 59, 110
3, 4608, Note_on_c, 1, 56, 110
3, 4608, Note_on_c, 1, 53, 110
3, 4608, Note_on_c, 1, 50, 110
3, 5180, Note_off_c, 1, 62, 100
3, 5180, Note_off_c, 1, 59, 100
3, 5180, Note_off_c, 1, 56, 100
3, 5180, Note_off_c, 1, 53, 100
3, 5180, Note_off_c, 1, 50, 100
3, 7680, Note_on_c, 1, 68, 80
3, 7680, Note_on_c, 1, 65, 80
3, 7680, Note_on_c, 1, 62, 80
3, 8060, Note_off_c, 1, 68, 100
3, 8060, Note_off_c, 1, 65, 100
3, 8060, Note_off_c, 1, 62, 100
3, 8064, Note_on_c, 1, 62, 81
3, 8064, Note_on_c, 1, 65, 81
3, 8064, Note_on_c, 1, 68, 81
3, 8828, Note_off_c, 1, 62, 100
3, 8828, Note_off_c, 1, 65, 100
3, 8828, Note_off_c, 1, 68, 100
3, 8832, Note_on_c, 1, 63, 83
3, 8832, Note_on_c, 1, 67, 83
3, 9212, Note_off_c, 1, 63, 100
3, 9212, Note_off_c, 1, 67, 100
3, 9984, Note_on_c, 1, 60, 87
3, 9984, Note_on_c, 1, 55, 87
3, 9984, Note_on_c, 1, 51, 87
3, 10364, Note_off_c, 1, 60, 100
3, 10364, Note_off_c, 1, 55, 100
3, 10364, Note_off_c, 1, 51, 100
3, 10368, Note_on_c, 1, 59, 89
3, 10368, Note_on_c, 1, 56, 89
3, 10368, Note_on_c, 1, 53, 89
3, 11132, Note_off_c, 1, 59, 100
3, 11132, Note_off_c, 1, 56, 100
3, 11132, Note_off_c, 1, 53, 100
3, 11136, Note_on_c, 1, 60, 91
3, 11136, Note_on_c, 1, 55, 91
3, 11136, Note_on_c, 1, 51, 91
3, 11516, Note_off_c, 1, 60, 100
3, 11516, Note_off_c, 1, 55, 100
3, 11516, Note_off_c, 1, 51, 100
3, 12288, Note_on_c, 1, 60, 95
3, 12288, Note_on_c, 1, 63, 95
3, 12668, Note_off_c, 1, 60, 100
3, 12668, Note_off_c, 1, 63, 100
3, 12672, Note_on_c, 1, 62, 97
3, 12672, Note_on_c, 1, 65, 97
3, 13436, Note_off_c, 1, 62, 100
3, 13436, Note_off_c, 1, 65, 100
3, 13440, Note_on_c, 1, 60, 99
3, 13440, Note_on_c, 1, 63, 99
3, 13820, Note_off_c, 1, 60, 100
3, 13820, Note_off_c, 1, 63, 100
3, 14592, Note_on_c, 1, 60, 100
3, 14592, Note_on_c, 1, 55, 100
3, 14592, Note_on_c, 1, 51, 100
3, 14972, Note_off_c, 1, 60, 100
3, 14972, Note_off_c, 1, 55, 100
3, 14972, Note_off_c, 1, 51, 100
3, 14976, Note_on_c, 1, 59, 100
3, 14976, Note_on_c, 1, 56, 100
3, 14976, Note_on_c, 1, 53, 100
3, 15740, Note_off_c, 1, 59, 100
3, 15740, Note_off_c, 1, 56, 100
3, 15740, Note_off_c, 1, 53, 100
3, 15744, Note_on_c, 1, 55, 100
3, 15744, Note_on_c, 1, 51, 100
3, 16124, Note_off_c, 1, 55, 100
3, 16124, Note_off_c, 1, 51, 100
3, 16128, Note_on_c, 1, 53, 100
3, 16128, Note_on_c, 1, 50, 100
3, 16892, Note_off_c, 1, 53, 100
3, 16892, Note_off_c, 1, 50, 100
3, 16896, Note_on_c, 1, 51, 100
3, 16896, Note_on_c, 1, 48, 100
3, 17276, Note_off_c, 1, 51, 100
3, 17276, Note_off_c, 1, 48, 100
3, 17280, Note_on_c, 1, 50, 100
3, 17280, Note_on_c, 1, 47, 100
3, 17660, Note_off_c, 1, 50, 100
3, 17660, Note_off_c, 1, 47, 100
3, 19200, Note_on_c, 1, 56, 70
3, 19200, Note_on_c, 1, 53, 70
3, 19200, Note_on_c, 1, 50, 70
3, 19200, Note_on_c, 1, 46, 70
3, 19580, Note_off_c, 1, 56, 100
3, 19580, Note_off_c, 1, 53, 100
3, 19580, Note_off_c, 1, 50, 100
3, 19580, Note_off_c, 1, 46, 100
3, 19584, Note_on_c, 1, 55, 70
3, 19584, Note_on_c, 1, 51, 70
3, 19584, Note_on_c, 1, 48, 70
3, 19964, Note_off_c, 1, 55, 100
3, 19964, Note_off_c, 1, 51, 100
3, 19964, Note_off_c, 1, 48, 100
3, 21504, Note_on_c, 1, 50, 70
3, 21504, Note_on_c, 1, 44, 70
3, 21504, Note_on_c, 1, 41, 70
3, 21884, Note_off_c, 1, 50, 100
3, 21884, Note_off_c, 1, 44, 100
3, 21884, Note_off_c, 1, 41, 100
3, 21888, Note_on_c, 1, 51, 70
3, 21888, Note_on_c, 1, 48, 70
3, 21888, Note_on_c, 1, 43, 70
3, 22268, Note_off_c, 1, 51, 100
3, 22268, Note_off_c, 1, 48, 100
3, 22268, Note_off_c, 1, 43, 100
3, 23808, Note_on_c, 1, 43, 120
3, 23808, Note_on_c, 1, 31, 120
3, 24188, Note_off_c, 1, 43, 100
3, 24188, Note_off_c, 1, 31, 100
3, 24192, Note_on_c, 1, 48, 120
3, 24192, Note_on_c, 1, 43, 120
3, 24192, Note_on_c, 1, 39, 120
3, 24192, Note_on_c, 1, 36, 120
3, 24764, Note_off_c, 1, 48, 100
3, 24764, Note_off_c, 1, 43, 100
3, 24764, Note_off_c, 1, 39, 100
3, 24764, Note_off_c, 1, 36, 100
3, 26112, Note_on_c, 1, 55, 120
3, 26112, Note_on_c, 1, 51, 120
3, 26112, Note_on_c, 1, 48, 120
3, 26492, Note_off_c, 1, 55, 100
3, 26492, Note_off_c, 1, 51, 100
3, 26492, Note_off_c, 1, 48, 100
3, 26496, Note_on_c, 1, 55, 120
3, 26496, Note_on_c, 1, 50, 120
3, 26496, Note_on_c, 1, 47, 120
3, 26876, Note_off_c, 1, 55, 100
3, 26876, Note_off_c, 1, 50, 100
3, 26876, Note_off_c, 1, 47, 100
3, 28416, Note_on_c, 1, 55, 120
3, 28416, Note_on_c, 1, 50, 120
3, 28416, Note_on_c, 1, 47, 120
3, 28796, Note_off_c, 1, 55, 100
3, 28796, Note_off_c, 1, 50, 100
3, 28796, Note_off_c, 1, 47, 100
3, 28800, Note_on_c, 1, 55, 120
3, 28800, Note_on_c, 1, 51, 120
3, 28800, Note_on_c, 1, 48, 120
3, 29180, Note_off_c, 1, 55, 100
3, 29180, Note_off_c, 1, 51, 100
3, 29180, Note_off_c, 1, 48, 100
3, 30720, Note_on_c, 1, 55, 120
3, 30720, Note_on_c, 1, 51, 120
3, 30720, Note_on_c, 1, 60, 120
3, 31100, Note_off_c, 1, 55, 100
3, 31100, Note_off_c, 1, 51, 100
3, 31100, Note_off_c, 1, 60, 100
3, 31104, Note_on_c, 1, 62, 120
3, 31104, Note_on_c, 1, 56, 120
3, 31104, Note_on_c, 1, 53, 120
3, 31484, Note_off_c, 1, 62, 100
3, 31484, Note_off_c, 1, 56, 100
3, 31484, Note_off_c, 1, 53, 100
3, 32256, Note_on_c, 1, 55, 120
3, 32256, Note_on_c, 1, 59, 120
3, 32256, Note_on_c, 1, 62, 120
3, 32636, Note_off_c, 1, 55, 100
3, 32636, Note_off_c, 1, 59, 100
3, 32636, Note_off_c, 1, 62, 100
3, 33408, Note_on_c, 1, 60, 120
3, 33408, Note_on_c, 1, 55, 120
3, 33408, Note_on_c, 1, 51, 120
3, 33408, Note_on_c, 1, 48, 120
3, 33788, Note_off_c, 1, 60, 100
3, 33788, Note_off_c, 1, 55, 100
3, 33788, Note_off_c, 1, 51, 100
3, 33788, Note_off_c, 1, 48, 100
3, 35712, Note_on_c, 1, 63, 105
3, 36864, Note_on_c, 1, 61, 80
3, 38012, Note_off_c, 1, 61, 100
3, 38016, Note_on_c, 1, 60, 80
3, 39164, Note_off_c, 1, 63, 100
3, 39164, Note_off_c, 1, 60, 100
3, 39168, Note_on_c, 1, 61, 80
3, 39168, Note_on_c, 1, 58, 80
3, 40316, Note_off_c, 1, 61, 100
3, 40316, Note_off_c, 1, 58, 100
3, 40320, Note_on_c, 1, 56, 80
3, 40320, Note_on_c, 1, 63, 80
3, 41468, Note_off_c, 1, 56, 100
3, 41468, Note_off_c, 1, 63, 100
3, 41472, Note_on_c, 1, 70, 102
3, 41472, Note_on_c, 1, 72, 100
3, 42620, Note_off_c, 1, 70, 100
3, 42624, Note_on_c, 1, 68, 80
3, 43772, Note_off_c, 1, 72, 100
3, 43772, Note_off_c, 1, 68, 100
3, 43776, Note_on_c, 1, 67, 80
3, 43776, Note_on_c, 1, 70, 80
3, 44924, Note_off_c, 1, 67, 100
3, 44924, Note_off_c, 1, 70, 100
3, 44928, Note_on_c, 1, 65, 80
3, 44928, Note_on_c, 1, 68, 80
3, 46076, Note_off_c, 1, 65, 100
3, 46076, Note_off_c, 1, 68, 100
3, 46080, Note_on_c, 1, 68, 102
3, 46080, Note_on_c, 1, 66, 100
3, 47228, Note_off_c, 1, 66, 100
3, 47232, Note_on_c, 1, 65, 80
3, 48380, Note_off_c, 1, 68, 100
3, 48380, Note_off_c, 1, 65, 100
3, 48384, Note_on_c, 1, 63, 80
3, 48384, Note_on_c, 1, 66, 80
3, 49532, Note_off_c, 1, 63, 100
3, 49532, Note_off_c, 1, 66, 100
3, 49536, Note_on_c, 1, 61, 80
3, 49536, Note_on_c, 1, 65, 80
3, 50684, Note_off_c, 1, 61, 100
3, 50684, Note_off_c, 1, 65, 100
3, 50688, Note_on_c, 1, 59, 80
3, 50688, Note_on_c, 1, 63, 80
3, 51836, Note_off_c, 1, 59, 100
3, 51836, Note_off_c, 1, 63, 100
3, 51840, Note_on_c, 1, 58, 80
3, 52988, Note_off_c, 1, 58, 100
3, 52992, Note_on_c, 1, 57, 80
3, 54140, Note_off_c, 1, 57, 100
3, 54144, Note_on_c, 1, 46, 80
3, 54528, Note_on_c, 1, 53, 80
3, 54908, Note_off_c, 1, 53, 100
3, 54912, Note_on_c, 1, 55, 80
3, 55292, Note_off_c, 1, 55, 100
3, 55296, Note_on_c, 1, 56, 80
3, 55676, Note_off_c, 1, 56, 100
3, 55680, Note_on_c, 1, 52, 80
3, 56060, Note_off_c, 1, 52, 100
3, 56064, Note_on_c, 1, 53, 80
3, 56444, Note_off_c, 1, 46, 100
3, 56444, Note_off_c, 1, 53, 100
3, 56448, Note_on_c, 1, 46, 80
3, 56448, Note_on_c, 1, 55, 80
3, 56828, Note_off_c, 1, 55, 100
3, 56832, Note_on_c, 1, 50, 80
3, 57212, Note_off_c, 1, 50, 100
3, 57216, Note_on_c, 1, 51, 80
3, 57596, Note_off_c, 1, 51, 100
3, 57600, Note_on_c, 1, 53, 80
3, 57980, Note_off_c, 1, 53, 100
3, 57984, Note_on_c, 1, 48, 80
3, 58364, Note_off_c, 1, 48, 100
3, 58368, Note_on_c, 1, 50, 80
3, 58748, Note_off_c, 1, 46, 100
3, 58748, Note_off_c, 1, 50, 100
3, 58752, Note_on_c, 1, 51, 80
3, 58752, Note_on_c, 1, 46, 80
3, 59132, Note_off_c, 1, 51, 100
3, 59136, Note_on_c, 1, 53, 80
3, 59516, Note_off_c, 1, 53, 100
3, 59520, Note_on_c, 1, 55, 80
3, 59900, Note_off_c, 1, 55, 100
3, 59904, Note_on_c, 1, 56, 80
3, 60284, Note_off_c, 1, 56, 100
3, 60288, Note_on_c, 1, 52, 80
3, 60668, Note_off_c, 1, 52, 100
3, 60672, Note_on_c, 1, 53, 80
3, 61052, Note_off_c, 1, 46, 100
3, 61052, Note_off_c, 1, 53, 100
3, 61056, Note_on_c, 1, 46, 80
3, 61056, Note_on_c, 1, 55, 80
3, 61436, Note_off_c, 1, 55, 100
3, 61440, Note_on_c, 1, 50, 80
3, 61820, Note_off_c, 1, 50, 100
3, 61824, Note_on_c, 1, 51, 80
3, 62204, Note_off_c, 1, 51, 100
3, 62208, Note_on_c, 1, 53, 80
3, 62588, Note_off_c, 1, 53, 100
3, 62592, Note_on_c, 1, 48, 80
3, 62972, Note_off_c, 1, 48, 100
3, 62976, Note_on_c, 1, 50, 80
3, 63356, Note_off_c, 1, 46, 100
3, 63356, Note_off_c, 1, 50, 100
3, 63360, Note_on_c, 1, 51, 80
3, 63548, Note_off_c, 1, 51, 100
3, 63552, Note_on_c, 1, 58, 80
3, 63740, Note_off_c, 1, 58, 100
3, 63744, Note_on_c, 1, 55, 80
3, 63932, Note_off_c, 1, 55, 100
3, 63936, Note_on_c, 1, 58, 80
3, 64124, Note_off_c, 1, 58, 100
3, 64128, Note_on_c, 1, 53, 80
3, 64316, Note_off_c, 1, 53, 100
3, 64320, Note_on_c, 1, 58, 80
3, 64508, Note_off_c, 1, 58, 100
3, 64512, Note_on_c, 1, 51, 80
3, 64700, Note_off_c, 1, 51, 100
3, 64704, Note_on_c, 1, 58, 80
3, 64892, Note_off_c, 1, 58, 100
3, 64896, Note_on_c, 1, 53, 80
3, 65084, Note_off_c, 1, 53, 100
3, 65088, Note_on_c, 1, 58, 80
3, 65276, Note_off_c, 1, 58, 100
3, 65280, Note_on_c, 1, 55, 80
3, 65468, Note_off_c, 1, 55, 100
3, 65472, Note_on_c, 1, 58, 80
3, 65660, Note_off_c, 1, 58, 100
3, 65664, Note_on_c, 1, 53, 80
3, 65852, Note_off_c, 1, 53, 100
3, 65856, Note_on_c, 1, 58, 80
3, 66044, Note_off_c, 1, 58, 100
3, 66048, Note_on_c, 1, 55, 80
3, 66236, Note_off_c, 1, 55, 100
3, 66240, Note_on_c, 1, 58, 80
3, 66428, Note_off_c, 1, 58, 100
3, 66432, Note_on_c, 1, 56, 80
3, 66620, Note_off_c, 1, 56, 100
3, 66624, Note_on_c, 1, 58, 80
3, 66812, Note_off_c, 1, 58, 100
3, 66816, Note_on_c, 1, 53, 80
3, 67004, Note_off_c, 1, 53, 100
3, 67008, Note_on_c, 1, 58, 80
3, 67196, Note_off_c, 1, 58, 100
3, 67200, Note_on_c, 1, 55, 80
3, 67388, Note_off_c, 1, 55, 100
3, 67392, Note_on_c, 1, 58, 80
3, 67580, Note_off_c, 1, 58, 100
3, 67584, Note_on_c, 1, 56, 80
3, 67772, Note_off_c, 1, 56, 100
3, 67776, Note_on_c, 1, 58, 80
3, 67964, Note_off_c, 1, 58, 100
3, 67968, Note_on_c, 1, 50, 80
3, 68156, Note_off_c, 1, 50, 100
3, 68160, Note_on_c, 1, 58, 80
3, 68348, Note_off_c, 1, 58, 100
3, 68352, Note_on_c, 1, 53, 80
3, 68540, Note_off_c, 1, 53, 100
3, 68544, Note_on_c, 1, 58, 80
3, 68732, Note_off_c, 1, 58, 100
3, 68736, Note_on_c, 1, 51, 80
3, 68924, Note_off_c, 1, 51, 100
3, 68928, Note_on_c, 1, 58, 80
3, 69116, Note_off_c, 1, 58, 100
3, 69120, Note_on_c, 1, 50, 80
3, 69308, Note_off_c, 1, 50, 100
3, 69312, Note_on_c, 1, 58, 80
3, 69500, Note_off_c, 1, 58, 100
3, 69504, Note_on_c, 1, 51, 80
3, 69692, Note_off_c, 1, 51, 100
3, 69696, Note_on_c, 1, 58, 80
3, 69884, Note_off_c, 1, 58, 100
3, 69888, Note_on_c, 1, 53, 80
3, 70076, Note_off_c, 1, 53, 100
3, 70080, Note_on_c, 1, 58, 80
3, 70268, Note_off_c, 1, 58, 100
3, 70272, Note_on_c, 1, 51, 80
3, 70460, Note_off_c, 1, 51, 100
3, 70464, Note_on_c, 1, 58, 80
3, 70652, Note_off_c, 1, 58, 100
3, 70656, Note_on_c, 1, 53, 80
3, 70844, Note_off_c, 1, 53, 100
3, 70848, Note_on_c, 1, 58, 80
3, 71036, Note_off_c, 1, 58, 100
3, 71040, Note_on_c, 1, 55, 80
3, 71228, Note_off_c, 1, 55, 100
3, 71232, Note_on_c, 1, 58, 80
3, 71420, Note_off_c, 1, 58, 100
3, 71424, Note_on_c, 1, 51, 80
3, 71612, Note_off_c, 1, 51, 100
3, 71616, Note_on_c, 1, 58, 80
3, 71804, Note_off_c, 1, 58, 100
3, 71808, Note_on_c, 1, 53, 80
3, 71996, Note_off_c, 1, 53, 100
3, 72000, Note_on_c, 1, 58, 80
3, 72188, Note_off_c, 1, 58, 100
3, 72192, Note_on_c, 1, 55, 80
3, 72380, Note_off_c, 1, 55, 100
3, 72384, Note_on_c, 1, 58, 80
3, 72572, Note_off_c, 1, 58, 100
3, 72576, Note_on_c, 1, 51, 80
3, 72764, Note_off_c, 1, 51, 100
3, 72768, Note_on_c, 1, 58, 80
3, 72956, Note_off_c, 1, 58, 100
3, 72960, Note_on_c, 1, 55, 80
3, 73148, Note_off_c, 1, 55, 100
3, 73152, Note_on_c, 1, 58, 80
3, 73340, Note_off_c, 1, 58, 100
3, 73344, Note_on_c, 1, 51, 80
3, 73532, Note_off_c, 1, 51, 100
3, 73536, Note_on_c, 1, 58, 80
3, 73724, Note_off_c, 1, 58, 100
3, 73728, Note_on_c, 1, 51, 80
3, 73916, Note_off_c, 1, 51, 100
3, 73920, Note_on_c, 1, 58, 80
3, 74108, Note_off_c, 1, 58, 100
3, 74112, Note_on_c, 1, 55, 80
3, 74300, Note_off_c, 1, 55, 100
3, 74304, Note_on_c, 1, 58, 80
3, 74492, Note_off_c, 1, 58, 100
3, 74496, Note_on_c, 1, 51, 80
3, 74684, Note_off_c, 1, 51, 100
3, 74688, Note_on_c, 1, 58, 80
3, 74876, Note_off_c, 1, 58, 100
3, 74880, Note_on_c, 1, 53, 80
3, 75068, Note_off_c, 1, 53, 100
3, 75072, Note_on_c, 1, 58, 80
3, 75260, Note_off_c, 1, 58, 100
3, 75264, Note_on_c, 1, 56, 80
3, 75452, Note_off_c, 1, 56, 100
3, 75456, Note_on_c, 1, 58, 80
3, 75644, Note_off_c, 1, 58, 100
3, 75648, Note_on_c, 1, 53, 80
3, 75836, Note_off_c, 1, 53, 100
3, 75840, Note_on_c, 1, 58, 80
3, 76028, Note_off_c, 1, 58, 100
3, 76032, Note_on_c, 1, 53, 80
3, 76220, Note_off_c, 1, 53, 100
3, 76224, Note_on_c, 1, 58, 80
3, 76412, Note_off_c, 1, 58, 100
3, 76416, Note_on_c, 1, 56, 80
3, 76604, Note_off_c, 1, 56, 100
3, 76608, Note_on_c, 1, 58, 80
3, 76796, Note_off_c, 1, 58, 100
3, 76800, Note_on_c, 1, 53, 80
3, 76988, Note_off_c, 1, 53, 100
3, 76992, Note_on_c, 1, 58, 80
3, 77180, Note_off_c, 1, 58, 100
3, 77184, Note_on_c, 1, 50, 80
3, 77372, Note_off_c, 1, 50, 100
3, 77376, Note_on_c, 1, 58, 80
3, 77564, Note_off_c, 1, 58, 100
3, 77568, Note_on_c, 1, 53, 80
3, 77756, Note_off_c, 1, 53, 100
3, 77760, Note_on_c, 1, 58, 80
3, 77948, Note_off_c, 1, 58, 100
3, 77952, Note_on_c, 1, 50, 80
3, 78140, Note_off_c, 1, 50, 100
3, 78144, Note_on_c, 1, 58, 80
3, 78332, Note_off_c, 1, 58, 100
3, 78336, Note_on_c, 1, 50, 80
3, 78524, Note_off_c, 1, 50, 100
3, 78528, Note_on_c, 1, 58, 80
3, 78716, Note_off_c, 1, 58, 100
3, 78720, Note_on_c, 1, 53, 80
3, 78908, Note_off_c, 1, 53, 100
3, 78912, Note_on_c, 1, 58, 80
3, 79100, Note_off_c, 1, 58, 100
3, 79104, Note_on_c, 1, 50, 80
3, 79292, Note_off_c, 1, 50, 100
3, 79296, Note_on_c, 1, 58, 80
3, 79484, Note_off_c, 1, 58, 100
3, 79680, Note_on_c, 1, 51, 80
3, 79868, Note_off_c, 1, 51, 100
3, 79872, Note_on_c, 1, 50, 81
3, 80060, Note_off_c, 1, 50, 100
3, 80064, Note_on_c, 1, 51, 82
3, 80252, Note_off_c, 1, 51, 100
3, 80256, Note_on_c, 1, 50, 83
3, 80444, Note_off_c, 1, 50, 100
3, 80448, Note_on_c, 1, 51, 84
3, 80636, Note_off_c, 1, 51, 100
3, 80640, Note_on_c, 1, 43, 85
3, 80828, Note_off_c, 1, 43, 100
3, 80832, Note_on_c, 1, 51, 86
3, 81020, Note_off_c, 1, 51, 100
3, 81024, Note_on_c, 1, 44, 86
3, 81212, Note_off_c, 1, 44, 100
3, 81216, Note_on_c, 1, 51, 87
3, 81404, Note_off_c, 1, 51, 100
3, 81408, Note_on_c, 1, 46, 88
3, 81596, Note_off_c, 1, 46, 100
3, 81600, Note_on_c, 1, 51, 89
3, 81788, Note_off_c, 1, 51, 100
3, 81792, Note_on_c, 1, 44, 90
3, 81980, Note_off_c, 1, 44, 100
3, 81984, Note_on_c, 1, 51, 91
3, 82172, Note_off_c, 1, 51, 100
3, 82176, Note_on_c, 1, 46, 92
3, 82364, Note_off_c, 1, 46, 100
3, 82368, Note_on_c, 1, 51, 93
3, 82556, Note_off_c, 1, 51, 100
3, 82560, Note_on_c, 1, 48, 93
3, 82748, Note_off_c, 1, 48, 100
3, 82752, Note_on_c, 1, 51, 94
3, 82940, Note_off_c, 1, 51, 100
3, 82944, Note_on_c, 1, 45, 95
3, 83132, Note_off_c, 1, 45, 100
3, 83136, Note_on_c, 1, 51, 96
3, 83324, Note_off_c, 1, 51, 100
3, 83328, Note_on_c, 1, 46, 97
3, 83516, Note_off_c, 1, 46, 100
3, 83520, Note_on_c, 1, 51, 98
3, 83708, Note_off_c, 1, 51, 100
3, 83712, Note_on_c, 1, 48, 99
3, 83900, Note_off_c, 1, 48, 100
3, 83904, Note_on_c, 1, 51, 99
3, 84092, Note_off_c, 1, 51, 100
3, 84096, Note_on_c, 1, 46, 110
3, 84284, Note_off_c, 1, 46, 100
3, 84288, Note_on_c, 1, 55, 110
3, 84476, Note_off_c, 1, 55, 100
3, 84480, Note_on_c, 1, 51, 110
3, 84668, Note_off_c, 1, 51, 100
3, 84672, Note_on_c, 1, 55, 110
3, 84860, Note_off_c, 1, 55, 100
3, 84864, Note_on_c, 1, 46, 110
3, 85052, Note_off_c, 1, 46, 100
3, 85056, Note_on_c, 1, 55, 110
3, 85244, Note_off_c, 1, 55, 100
3, 85248, Note_on_c, 1, 46, 110
3, 85436, Note_off_c, 1, 46, 100
3, 85440, Note_on_c, 1, 53, 110
3, 85628, Note_off_c, 1, 53, 100
3, 85632, Note_on_c, 1, 50, 110
3, 85820, Note_off_c, 1, 50, 100
3, 85824, Note_on_c, 1, 53, 110
3, 86012, Note_off_c, 1, 53, 100
3, 86016, Note_on_c, 1, 46, 110
3, 86204, Note_off_c, 1, 46, 100
3, 86208, Note_on_c, 1, 53, 110
3, 86396, Note_off_c, 1, 53, 100
3, 86400, Note_on_c, 1, 51, 100
3, 86400, Note_on_c, 1, 39, 100
3, 86780, Note_off_c, 1, 51, 100
3, 86780, Note_off_c, 1, 39, 100
3, 88704, Note_on_c, 1, 43, 110
3, 88892, Note_off_c, 1, 43, 100
3, 88896, Note_on_c, 1, 51, 110
3, 89084, Note_off_c, 1, 51, 100
3, 89088, Note_on_c, 1, 44, 110
3, 89276, Note_off_c, 1, 44, 100
3, 89280, Note_on_c, 1, 51, 110
3, 89468, Note_off_c, 1, 51, 100
3, 89472, Note_on_c, 1, 46, 110
3, 89660, Note_off_c, 1, 46, 100
3, 89664, Note_on_c, 1, 51, 110
3, 89852, Note_off_c, 1, 51, 100
3, 89856, Note_on_c, 1, 43, 110
3, 90044, Note_off_c, 1, 43, 100
3, 90048, Note_on_c, 1, 51, 110
3, 90236, Note_off_c, 1, 51, 100
3, 90240, Note_on_c, 1, 44, 110
3, 90428, Note_off_c, 1, 44, 100
3, 90432, Note_on_c, 1, 51, 110
3, 90620, Note_off_c, 1, 51, 100
3, 90624, Note_on_c, 1, 46, 110
3, 90812, Note_off_c, 1, 46, 100
3, 90816, Note_on_c, 1, 51, 110
3, 91004, Note_off_c, 1, 51, 100
3, 91008, Note_on_c, 1, 44, 110
3, 91196, Note_off_c, 1, 44, 100
3, 91200, Note_on_c, 1, 51, 110
3, 91388, Note_off_c, 1, 51, 100
3, 91392, Note_on_c, 1, 46, 110
3, 91580, Note_off_c, 1, 46, 100
3, 91584, Note_on_c, 1, 51, 110
3, 91772, Note_off_c, 1, 51, 100
3, 91776, Note_on_c, 1, 48, 110
3, 91964, Note_off_c, 1, 48, 100
3, 91968, Note_on_c, 1, 51, 110
3, 92156, Note_off_c, 1, 51, 100
3, 92160, Note_on_c, 1, 45, 110
3, 92348, Note_off_c, 1, 45, 100
3, 92352, Note_on_c, 1, 51, 110
3, 92540, Note_off_c, 1, 51, 100
3, 92544, Note_on_c, 1, 46, 110
3, 92732, Note_off_c, 1, 46, 100
3, 92736, Note_on_c, 1, 51, 110
3, 92924, Note_off_c, 1, 51, 100
3, 92928, Note_on_c, 1, 48, 110
3, 93116, Note_off_c, 1, 48, 100
3, 93120, Note_on_c, 1, 51, 110
3, 93308, Note_off_c, 1, 51, 100
3, 93312, Note_on_c, 1, 46, 110
3, 93500, Note_off_c, 1, 46, 100
3, 93504, Note_on_c, 1, 51, 110
3, 93692, Note_off_c, 1, 51, 100
3, 93696, Note_on_c, 1, 50, 111
3, 93884, Note_off_c, 1, 50, 100
3, 93888, Note_on_c, 1, 51, 112
3, 94076, Note_off_c, 1, 51, 100
3, 94080, Note_on_c, 1, 47, 113
3, 94268, Note_off_c, 1, 47, 100
3, 94272, Note_on_c, 1, 51, 114
3, 94460, Note_off_c, 1, 51, 100
3, 94464, Note_on_c, 1, 48, 115
3, 94652, Note_off_c, 1, 48, 100
3, 94656, Note_on_c, 1, 51, 115
3, 94844, Note_off_c, 1, 51, 100
3, 94848, Note_on_c, 1, 50, 116
3, 95036, Note_off_c, 1, 50, 100
3, 95040, Note_on_c, 1, 51, 117
3, 95228, Note_off_c, 1, 51, 100
3, 95232, Note_on_c, 1, 45, 118
3, 95420, Note_off_c, 1, 45, 100
3, 95424, Note_on_c, 1, 51, 119
3, 95612, Note_off_c, 1, 51, 100
3, 95616, Note_on_c, 1, 46, 120
3, 95804, Note_off_c, 1, 46, 100
3, 95808, Note_on_c, 1, 51, 120
3, 95996, Note_off_c, 1, 51, 100
3, 96000, Note_on_c, 1, 49, 120
3, 96188, Note_off_c, 1, 49, 100
3, 96192, Note_on_c, 1, 51, 120
3, 96380, Note_off_c, 1, 51, 100
3, 96384, Note_on_c, 1, 47, 120
3, 96572, Note_off_c, 1, 47, 100
3, 96576, Note_on_c, 1, 51, 120
3, 96764, Note_off_c, 1, 51, 100
3, 96768, Note_on_c, 1, 48, 120
3, 96956, Note_off_c, 1, 48, 100
3, 96960, Note_on_c, 1, 51, 120
3, 97148, Note_off_c, 1, 51, 100
3, 97152, Note_on_c, 1, 50, 120
3, 97340, Note_off_c, 1, 50, 100
3, 97344, Note_on_c, 1, 51, 120
3, 97532, Note_off_c, 1, 51, 100
3, 97536, Note_on_c, 1, 45, 120
3, 97724, Note_off_c, 1, 45, 100
3, 97728, Note_on_c, 1, 51, 120
3, 97916, Note_off_c, 1, 51, 100
3, 97920, Note_on_c, 1, 46, 120
3, 98300, Note_off_c, 1, 46, 100
3, 98304, Note_on_c, 1, 55, 120
3, 98304, Note_on_c, 1, 51, 120
3, 98304, Note_on_c, 1, 46, 120
3, 98684, Note_off_c, 1, 55, 100
3, 98684, Note_off_c, 1, 51, 100
3, 98684, Note_off_c, 1, 46, 100
3, 99456, Note_on_c, 1, 54, 120
3, 99456, Note_on_c, 1, 51, 120
3, 99456, Note_on_c, 1, 48, 120
3, 99836, Note_off_c, 1, 54, 100
3, 99836, Note_off_c, 1, 51, 100
3, 99836, Note_off_c, 1, 48, 100
3, 100608, Note_on_c, 1, 55, 120
3, 100608, Note_on_c, 1, 51, 120
3, 100608, Note_on_c, 1, 46, 120
3, 100988, Note_off_c, 1, 55, 100
3, 100988, Note_off_c, 1, 51, 100
3, 100988, Note_off_c, 1, 46, 100
3, 101760, Note_on_c, 1, 57, 120
3, 101760, Note_on_c, 1, 54, 120
3, 101760, Note_on_c, 1, 51, 120
3, 101760, Note_on_c, 1, 45, 120
3, 102140, Note_off_c, 1, 57, 100
3, 102140, Note_off_c, 1, 54, 100
3, 102140, Note_off_c, 1, 51, 100
3, 102140, Note_off_c, 1, 45, 100
3, 102912, Note_on_c, 1, 58, 120
3, 102912, Note_on_c, 1, 55, 120
3, 102912, Note_on_c, 1, 51, 120
3, 102912, Note_on_c, 1, 46, 120
3, 103292, Note_off_c, 1, 58, 100
3, 103292, Note_off_c, 1, 55, 100
3, 103292, Note_off_c, 1, 51, 100
3, 103292, Note_off_c, 1, 46, 100
3, 105984, Note_on_c, 1, 46, 120
3, 105984, Note_on_c, 1, 34, 120
3, 107132, Note_off_c, 1, 46, 100
3, 107132, Note_off_c, 1, 34, 100
3, 107136, Note_on_c, 1, 39, 120
3, 107516, Note_off_c, 1, 39, 100
3, 107520, Note_on_c, 1, 46, 120
3, 107904, Note_on_c, 1, 45, 100
3, 108284, Note_off_c, 1, 45, 100
3, 108288, Note_on_c, 1, 44, 100
3, 108668, Note_off_c, 1, 44, 100
3, 108672, Note_on_c, 1, 43, 100
3, 109052, Note_off_c, 1, 43, 100
3, 109056, Note_on_c, 1, 41, 100
3, 109436, Note_off_c, 1, 46, 100
3, 109436, Note_off_c, 1, 41, 100
3, 109440, Note_on_c, 1, 39, 100
3, 109820, Note_off_c, 1, 39, 100
3, 109824, Note_on_c, 1, 43, 100
3, 110204, Note_off_c, 1, 43, 100
3, 110208, Note_on_c, 1, 46, 100
3, 110588, Note_off_c, 1, 46, 100
3, 110592, Note_on_c, 1, 34, 100
3, 110972, Note_off_c, 1, 34, 100
3, 110976, Note_on_c, 1, 41, 100
3, 111356, Note_off_c, 1, 41, 100
3, 111360, Note_on_c, 1, 46, 100
3, 111740, Note_off_c, 1, 46, 100
3, 111744, Note_on_c, 1, 39, 100
3, 112124, Note_off_c, 1, 39, 100
3, 112128, Note_on_c, 1, 46, 115
3, 112512, Note_on_c, 1, 45, 100
3, 112892, Note_off_c, 1, 45, 100
3, 112896, Note_on_c, 1, 44, 100
3, 113276, Note_off_c, 1, 44, 100
3, 113280, Note_on_c, 1, 43, 100
3, 113660, Note_off_c, 1, 43, 100
3, 113664, Note_on_c, 1, 41, 100
3, 114044, Note_off_c, 1, 46, 100
3, 114044, Note_off_c, 1, 41, 100
3, 114048, Note_on_c, 1, 39, 100
3, 114428, Note_off_c, 1, 39, 100
3, 114432, Note_on_c, 1, 43, 100
3, 114812, Note_off_c, 1, 43, 100
3, 114816, Note_on_c, 1, 46, 100
3, 115196, Note_off_c, 1, 46, 100
3, 115200, Note_on_c, 1, 34, 100
3, 115580, Note_off_c, 1, 34, 100
3, 115584, Note_on_c, 1, 41, 80
3, 115964, Note_off_c, 1, 41, 100
3, 115968, Note_on_c, 1, 46, 80
3, 116348, Note_off_c, 1, 46, 100
3, 116352, Note_on_c, 1, 39, 79
3, 116732, Note_off_c, 1, 39, 100
3, 116736, Note_on_c, 1, 43, 78
3, 117116, Note_off_c, 1, 43, 100
3, 117120, Note_on_c, 1, 46, 77
3, 117500, Note_off_c, 1, 46, 100
3, 117504, Note_on_c, 1, 34, 76
3, 117884, Note_off_c, 1, 34, 100
3, 117888, Note_on_c, 1, 41, 75
3, 118268, Note_off_c, 1, 41, 100
3, 118272, Note_on_c, 1, 46, 74
3, 118652, Note_off_c, 1, 46, 100
3, 118656, Note_on_c, 1, 39, 73
3, 119036, Note_off_c, 1, 39, 100
3, 119040, Note_on_c, 1, 43, 72
3, 119420, Note_off_c, 1, 43, 100
3, 119424, Note_on_c, 1, 46, 71
3, 119804, Note_off_c, 1, 46, 100
3, 119808, Note_on_c, 1, 51, 71
3, 120188, Note_off_c, 1, 51, 100
3, 120960, Note_on_c, 1, 60, 110
3, 120960, Note_on_c, 1, 55, 110
3, 120960, Note_on_c, 1, 51, 110
3, 120960, Note_on_c, 1, 48, 110
3, 121532, Note_off_c, 1, 60, 100
3, 121532, Note_off_c, 1, 55, 100
3, 121532, Note_off_c, 1, 51, 100
3, 121532, Note_off_c, 1, 48, 100
3, 124032, Note_on_c, 1, 60, 80
3, 124032, Note_on_c, 1, 63, 80
3, 124412, Note_off_c, 1, 60, 100
3, 124412, Note_off_c, 1, 63, 100
3, 124416, Note_on_c, 1, 60, 80
3, 124416, Note_on_c, 1, 63, 80
3, 125180, Note_off_c, 1, 60, 100
3, 125180, Note_off_c, 1, 63, 100
3, 125184, Note_on_c, 1, 62, 80
3, 125184, Note_on_c, 1, 65, 80
3, 125564, Note_off_c, 1, 62, 100
3, 125564, Note_off_c, 1, 65, 100
3, 125568, Note_on_c, 1, 62, 110
3, 125568, Note_on_c, 1, 59, 110
3, 125568, Note_on_c, 1, 56, 110
3, 125568, Note_on_c, 1, 53, 110
3, 125568, Note_on_c, 1, 50, 110
3, 126140, Note_off_c, 1, 62, 100
3, 126140, Note_off_c, 1, 59, 100
3, 126140, Note_off_c, 1, 56, 100
3, 126140, Note_off_c, 1, 53, 100
3, 126140, Note_off_c, 1, 50, 100
3, 128640, Note_on_c, 1, 68, 80
3, 128640, Note_on_c, 1, 65, 80
3, 128640, Note_on_c, 1, 62, 80
3, 129020, Note_off_c, 1, 68, 100
3, 129020, Note_off_c, 1, 65, 100
3, 129020, Note_off_c, 1, 62, 100
3, 129024, Note_on_c, 1, 62, 81
3, 129024, Note_on_c, 1, 65, 81
3, 129024, Note_on_c, 1, 68, 81
3, 129788, Note_off_c, 1, 62, 100
3, 129788, Note_off_c, 1, 65, 100
3, 129788, Note_off_c, 1, 68, 100
3, 129792, Note_on_c, 1, 63, 83
3, 129792, Note_on_c, 1, 67, 83
3, 130172, Note_off_c, 1, 63, 100
3, 130172, Note_off_c, 1, 67, 100
3, 130944, Note_on_c, 1, 60, 87
3, 130944, Note_on_c, 1, 55, 87
3, 130944, Note_on_c, 1, 51, 87
3, 131324, Note_off_c, 1, 60, 100
3, 131324, Note_off_c, 1, 55, 100
3, 131324, Note_off_c, 1, 51, 100
3, 131328, Note_on_c, 1, 59, 89
3, 131328, Note_on_c, 1, 56, 89
3, 131328, Note_on_c, 1, 53, 89
3, 132092, Note_off_c, 1, 59, 100
3, 132092, Note_off_c, 1, 56, 100
3, 132092, Note_off_c, 1, 53, 100
3, 132096, Note_on_c, 1, 60, 91
3, 132096, Note_on_c, 1, 55, 91
3, 132096, Note_on_c, 1, 51, 91
3, 132476, Note_off_c, 1, 60, 100
3, 132476, Note_off_c, 1, 55, 100
3, 132476, Note_off_c, 1, 51, 100
3, 133248, Note_on_c, 1, 60, 95
3, 133248, Note_on_c, 1, 63, 95
3, 133628, Note_off_c, 1, 60, 100
3, 133628, Note_off_c, 1, 63, 100
3, 133632, Note_on_c, 1, 62, 97
3, 133632, Note_on_c, 1, 65, 97
3, 134396, Note_off_c, 1, 62, 100
3, 134396, Note_off_c, 1, 65, 100
3, 134400, Note_on_c, 1, 60, 99
3, 134400, Note_on_c, 1, 63, 99
3, 134780, Note_off_c, 1, 60, 100
3, 134780, Note_off_c, 1, 63, 100
3, 135552, Note_on_c, 1, 60, 100
3, 135552, Note_on_c, 1, 55, 100
3, 135552, Note_on_c, 1, 51, 100
3, 135932, Note_off_c, 1, 60, 100
3, 135932, Note_off_c, 1, 55, 100
3, 135932, Note_off_c, 1, 51, 100
3, 135936, Note_on_c, 1, 59, 100
3, 135936, Note_on_c, 1, 56, 100
3, 135936, Note_on_c, 1, 53, 100
3, 136700, Note_off_c, 1, 59, 100
3, 136700, Note_off_c, 1, 56, 100
3, 136700, Note_off_c, 1, 53, 100
3, 136704, Note_on_c, 1, 55, 100
3, 136704, Note_on_c, 1, 51, 100
3, 137084, Note_off_c, 1, 55, 100
3, 137084, Note_off_c, 1, 51, 100
3, 137088, Note_on_c, 1, 53, 100
3, 137088, Note_on_c, 1, 50, 100
3, 137852, Note_off_c, 1, 53, 100
3, 137852, Note_off_c, 1, 50, 100
3, 137856, Note_on_c, 1, 51, 100
3, 137856, Note_on_c, 1, 48, 100
3, 138236, Note_off_c, 1, 51, 100
3, 138236, Note_off_c, 1, 48, 100
3, 138240, Note_on_c, 1, 50, 100
3, 138240, Note_on_c, 1, 47, 100
3, 138620, Note_off_c, 1, 50, 100
3, 138620, Note_off_c, 1, 47, 100
3, 140160, Note_on_c, 1, 56, 70
3, 140160, Note_on_c, 1, 53, 70
3, 140160, Note_on_c, 1, 50, 70
3, 140160, Note_on_c, 1, 46, 70
3, 140540, Note_off_c, 1, 56, 100
3, 140540, Note_off_c, 1, 53, 100
3, 140540, Note_off_c, 1, 50, 100
3, 140540, Note_off_c, 1, 46, 100
3, 140544, Note_on_c, 1, 55, 70
3, 140544, Note_on_c, 1, 51, 70
3, 140544, Note_on_c, 1, 48, 70
3, 140924, Note_off_c, 1, 55, 100
3, 140924, Note_off_c, 1, 51, 100
3, 140924, Note_off_c, 1, 48, 100
3, 142464, Note_on_c, 1, 50, 70
3, 142464, Note_on_c, 1, 44, 70
3, 142464, Note_on_c, 1, 41, 70
3, 142844, Note_off_c, 1, 50, 100
3, 142844, Note_off_c, 1, 44, 100
3, 142844, Note_off_c, 1, 41, 100
3, 142848, Note_on_c, 1, 51, 70
3, 142848, Note_on_c, 1, 48, 70
3, 142848, Note_on_c, 1, 43, 70
3, 143228, Note_off_c, 1, 51, 100
3, 143228, Note_off_c, 1, 48, 100
3, 143228, Note_off_c, 1, 43, 100
3, 144768, Note_on_c, 1, 43, 120
3, 144768, Note_on_c, 1, 31, 120
3, 145148, Note_off_c, 1, 43, 100
3, 145148, Note_off_c, 1, 31, 100
3, 145152, Note_on_c, 1, 48, 120
3, 145152, Note_on_c, 1, 43, 120
3, 145152, Note_on_c, 1, 39, 120
3, 145152, Note_on_c, 1, 36, 120
3, 145724, Note_off_c, 1, 48, 100
3, 145724, Note_off_c, 1, 43, 100
3, 145724, Note_off_c, 1, 39, 100
3, 145724, Note_off_c, 1, 36, 100
3, 147072, Note_on_c, 1, 55, 120
3, 147072, Note_on_c, 1, 51, 120
3, 147072, Note_on_c, 1, 48, 120
3, 147452, Note_off_c, 1, 55, 100
3, 147452, Note_off_c, 1, 51, 100
3, 147452, Note_off_c, 1, 48, 100
3, 147456, Note_on_c, 1, 55, 120
3, 147456, Note_on_c, 1, 50, 120
3, 147456, Note_on_c, 1, 47, 120
3, 147836, Note_off_c, 1, 55, 100
3, 147836, Note_off_c, 1, 50, 100
3, 147836, Note_off_c, 1, 47, 100
3, 149376, Note_on_c, 1, 55, 120
3, 149376, Note_on_c, 1, 50, 120
3, 149376, Note_on_c, 1, 47, 120
3, 149756, Note_off_c, 1, 55, 100
3, 149756, Note_off_c, 1, 50, 100
3, 149756, Note_off_c, 1, 47, 100
3, 149760, Note_on_c, 1, 55, 120
3, 149760, Note_on_c, 1, 51, 120
3, 149760, Note_on_c, 1, 48, 120
3, 150140, Note_off_c, 1, 55, 100
3, 150140, Note_off_c, 1, 51, 100
3, 150140, Note_off_c, 1, 48, 100
3, 151680, Note_on_c, 1, 55, 120
3, 151680, Note_on_c, 1, 51, 120
3, 151680, Note_on_c, 1, 60, 120
3, 152060, Note_off_c, 1, 55, 100
3, 152060, Note_off_c, 1, 51, 100
3, 152060, Note_off_c, 1, 60, 100
3, 152064, Note_on_c, 1, 62, 120
3, 152064, Note_on_c, 1, 56, 120
3, 152064, Note_on_c, 1, 53, 120
3, 152444, Note_off_c, 1, 62, 100
3, 152444, Note_off_c, 1, 56, 100
3, 152444, Note_off_c, 1, 53, 100
3, 153216, Note_on_c, 1, 55, 120
3, 153216, Note_on_c, 1, 59, 120
3, 153216, Note_on_c, 1, 62, 120
3, 153596, Note_off_c, 1, 55, 100
3, 153596, Note_off_c, 1, 59, 100
3, 153596, Note_off_c, 1, 62, 100
3, 154368, Note_on_c, 1, 60, 120
3, 154368, Note_on_c, 1, 55, 120
3, 154368, Note_on_c, 1, 51, 120
3, 154368, Note_on_c, 1, 48, 120
3, 154748, Note_off_c, 1, 60, 100
3, 154748, Note_off_c, 1, 55, 100
3, 154748, Note_off_c, 1, 51, 100
3, 154748, Note_off_c, 1, 48, 100
3, 156672, Note_on_c, 1, 63, 101
3, 157824, Note_on_c, 1, 61, 80
3, 158972, Note_off_c, 1, 61, 100
3, 158976, Note_on_c, 1, 60, 80
3, 160124, Note_off_c, 1, 63, 100
3, 160124, Note_off_c, 1, 60, 100
3, 160128, Note_on_c, 1, 61, 80
3, 160128, Note_on_c, 1, 58, 80
3, 161276, Note_off_c, 1, 61, 100
3, 161276, Note_off_c, 1, 58, 100
3, 161280, Note_on_c, 1, 56, 80
3, 161280, Note_on_c, 1, 63, 80
3, 162428, Note_off_c, 1, 56, 100
3, 162428, Note_off_c, 1, 63, 100
3, 162432, Note_on_c, 1, 70, 101
3, 162432, Note_on_c, 1, 72, 103
3, 163580, Note_off_c, 1, 70, 100
3, 163584, Note_on_c, 1, 68, 80
3, 164732, Note_off_c, 1, 72, 100
3, 164732, Note_off_c, 1, 68, 100
3, 164736, Note_on_c, 1, 67, 80
3, 164736, Note_on_c, 1, 70, 80
3, 165884, Note_off_c, 1, 67, 100
3, 165884, Note_off_c, 1, 70, 100
3, 165888, Note_on_c, 1, 65, 80
3, 165888, Note_on_c, 1, 68, 80
3, 167036, Note_off_c, 1, 65, 100
3, 167036, Note_off_c, 1, 68, 100
3, 167040, Note_on_c, 1, 68, 101
3, 167040, Note_on_c, 1, 66, 101
3, 168188, Note_off_c, 1, 66, 100
3, 168192, Note_on_c, 1, 65, 80
3, 169340, Note_off_c, 1, 68, 100
3, 169340, Note_off_c, 1, 65, 100
3, 169344, Note_on_c, 1, 63, 80
3, 169344, Note_on_c, 1, 66, 80
3, 170492, Note_off_c, 1, 63, 100
3, 170492, Note_off_c, 1, 66, 100
3, 170496, Note_on_c, 1, 61, 80
3, 170496, Note_on_c, 1, 65, 80
3, 171644, Note_off_c, 1, 61, 100
3, 171644, Note_off_c, 1, 65, 100
3, 171648, Note_on_c, 1, 59, 80
3, 171648, Note_on_c, 1, 63, 80
3, 172796, Note_off_c, 1, 59, 100
3, 172796, Note_off_c, 1, 63, 100
3, 172800, Note_on_c, 1, 58, 80
3, 173948, Note_off_c, 1, 58, 100
3, 173952, Note_on_c, 1, 57, 80
3, 175100, Note_off_c, 1, 57, 100
3, 175104, Note_on_c, 1, 46, 80
3, 175488, Note_on_c, 1, 53, 80
3, 175868, Note_off_c, 1, 53, 100
3, 175872, Note_on_c, 1, 55, 80
3, 176252, Note_off_c, 1, 55, 100
3, 176256, Note_on_c, 1, 56, 80
3, 176636, Note_off_c, 1, 56, 100
3, 176640, Note_on_c, 1, 52, 80
3, 177020, Note_off_c, 1, 52, 100
3, 177024, Note_on_c, 1, 53, 80
3, 177404, Note_off_c, 1, 46, 100
3, 177404, Note_off_c, 1, 53, 100
3, 177408, Note_on_c, 1, 46, 80
3, 177408, Note_on_c, 1, 55, 80
3, 177788, Note_off_c, 1, 55, 100
3, 177792, Note_on_c, 1, 50, 80
3, 178172, Note_off_c, 1, 50, 100
3, 178176, Note_on_c, 1, 51, 80
3, 178556, Note_off_c, 1, 51, 100
3, 178560, Note_on_c, 1, 53, 80
3, 178940, Note_off_c, 1, 53, 100
3, 178944, Note_on_c, 1, 48, 80
3, 179324, Note_off_c, 1, 48, 100
3, 179328, Note_on_c, 1, 50, 80
3, 179708, Note_off_c, 1, 46, 100
3, 179708, Note_off_c, 1, 50, 100
3, 179712, Note_on_c, 1, 51, 80
3, 179712, Note_on_c, 1, 46, 80
3, 180092, Note_off_c, 1, 51, 100
3, 180096, Note_on_c, 1, 53, 80
3, 180476, Note_off_c, 1, 53, 100
3, 180480, Note_on_c, 1, 55, 80
3, 180860, Note_off_c, 1, 55, 100
3, 180864, Note_on_c, 1, 56, 80
3, 181244, Note_off_c, 1, 56, 100
3, 181248, Note_on_c, 1, 52, 80
3, 181628, Note_off_c, 1, 52, 100
3, 181632, Note_on_c, 1, 53, 80
3, 182012, Note_off_c, 1, 46, 100
3, 182012, Note_off_c, 1, 53, 100
3, 182016, Note_on_c, 1, 46, 80
3, 182016, Note_on_c, 1, 55, 80
3, 182396, Note_off_c, 1, 55, 100
3, 182400, Note_on_c, 1, 50, 80
3, 182780, Note_off_c, 1, 50, 100
3, 182784, Note_on_c, 1, 51, 80
3, 183164, Note_off_c, 1, 51, 100
3, 183168, Note_on_c, 1, 53, 80
3, 183548, Note_off_c, 1, 53, 100
3, 183552, Note_on_c, 1, 48, 80
3, 183932, Note_off_c, 1, 48, 100
3, 183936, Note_on_c, 1, 50, 80
3, 184316, Note_off_c, 1, 46, 100
3, 184316, Note_off_c, 1, 50, 100
3, 184320, Note_on_c, 1, 51, 80
3, 184508, Note_off_c, 1, 51, 100
3, 184512, Note_on_c, 1, 58, 80
3, 184700, Note_off_c, 1, 58, 100
3, 184704, Note_on_c, 1, 55, 80
3, 184892, Note_off_c, 1, 55, 100
3, 184896, Note_on_c, 1, 58, 80
3, 185084, Note_off_c, 1, 58, 100
3, 185088, Note_on_c, 1, 53, 80
3, 185276, Note_off_c, 1, 53, 100
3, 185280, Note_on_c, 1, 58, 80
3, 185468, Note_off_c, 1, 58, 100
3, 185472, Note_on_c, 1, 51, 80
3, 185660, Note_off_c, 1, 51, 100
3, 185664, Note_on_c, 1, 58, 80
3, 185852, Note_off_c, 1, 58, 100
3, 185856, Note_on_c, 1, 53, 80
3, 186044, Note_off_c, 1, 53, 100
3, 186048, Note_on_c, 1, 58, 80
3, 186236, Note_off_c, 1, 58, 100
3, 186240, Note_on_c, 1, 55, 80
3, 186428, Note_off_c, 1, 55, 100
3, 186432, Note_on_c, 1, 58, 80
3, 186620, Note_off_c, 1, 58, 100
3, 186624, Note_on_c, 1, 53, 80
3, 186812, Note_off_c, 1, 53, 100
3, 186816, Note_on_c, 1, 58, 80
3, 187004, Note_off_c, 1, 58, 100
3, 187008, Note_on_c, 1, 55, 80
3, 187196, Note_off_c, 1, 55, 100
3, 187200, Note_on_c, 1, 58, 80
3, 187388, Note_off_c, 1, 58, 100
3, 187392, Note_on_c, 1, 56, 80
3, 187580, Note_off_c, 1, 56, 100
3, 187584, Note_on_c, 1, 58, 80
3, 187772, Note_off_c, 1, 58, 100
3, 187776, Note_on_c, 1, 53, 80
3, 187964, Note_off_c, 1, 53, 100
3, 187968, Note_on_c, 1, 58, 80
3, 188156, Note_off_c, 1, 58, 100
3, 188160, Note_on_c, 1, 55, 80
3, 188348, Note_off_c, 1, 55, 100
3, 188352, Note_on_c, 1, 58, 80
3, 188540, Note_off_c, 1, 58, 100
3, 188544, Note_on_c, 1, 56, 80
3, 188732, Note_off_c, 1, 56, 100
3, 188736, Note_on_c, 1, 58, 80
3, 188924, Note_off_c, 1, 58, 100
3, 188928, Note_on_c, 1, 50, 80
3, 189116, Note_off_c, 1, 50, 100
3, 189120, Note_on_c, 1, 58, 80
3, 189308, Note_off_c, 1, 58, 100
3, 189312, Note_on_c, 1, 53, 80
3, 189500, Note_off_c, 1, 53, 100
3, 189504, Note_on_c, 1, 58, 80
3, 189692, Note_off_c, 1, 58, 100
3, 189696, Note_on_c, 1, 51, 80
3, 189884, Note_off_c, 1, 51, 100
3, 189888, Note_on_c, 1, 58, 80
3, 190076, Note_off_c, 1, 58, 100
3, 190080, Note_on_c, 1, 50, 80
3, 190268, Note_off_c, 1, 50, 100
3, 190272, Note_on_c, 1, 58, 80
3, 190460, Note_off_c, 1, 58, 100
3, 190464, Note_on_c, 1, 51, 80
3, 190652, Note_off_c, 1, 51, 100
3, 190656, Note_on_c, 1, 58, 80
3, 190844, Note_off_c, 1, 58, 100
3, 190848, Note_on_c, 1, 53, 80
3, 191036, Note_off_c, 1, 53, 100
3, 191040, Note_on_c, 1, 58, 80
3, 191228, Note_off_c, 1, 58, 100
3, 191232, Note_on_c, 1, 51, 80
3, 191420, Note_off_c, 1, 51, 100
3, 191424, Note_on_c, 1, 58, 80
3, 191612, Note_off_c, 1, 58, 100
3, 191616, Note_on_c, 1, 53, 80
3, 191804, Note_off_c, 1, 53, 100
3, 191808, Note_on_c, 1, 58, 80
3, 191996, Note_off_c, 1, 58, 100
3, 192000, Note_on_c, 1, 55, 80
3, 192188, Note_off_c, 1, 55, 100
3, 192192, Note_on_c, 1, 58, 80
3, 192380, Note_off_c, 1, 58, 100
3, 192384, Note_on_c, 1, 51, 80
3, 192572, Note_off_c, 1, 51, 100
3, 192576, Note_on_c, 1, 58, 80
3, 192764, Note_off_c, 1, 58, 100
3, 192768, Note_on_c, 1, 53, 80
3, 192956, Note_off_c, 1, 53, 100
3, 192960, Note_on_c, 1, 58, 80
3, 193148, Note_off_c, 1, 58, 100
3, 193152, Note_on_c, 1, 55, 80
3, 193340, Note_off_c, 1, 55, 100
3, 193344, Note_on_c, 1, 58, 80
3, 193532, Note_off_c, 1, 58, 100
3, 193536, Note_on_c, 1, 51, 80
3, 193724, Note_off_c, 1, 51, 100
3, 193728, Note_on_c, 1, 58, 80
3, 193916, Note_off_c, 1, 58, 100
3, 193920, Note_on_c, 1, 55, 80
3, 194108, Note_off_c, 1, 55, 100
3, 194112, Note_on_c, 1, 58, 80
3, 194300, Note_off_c, 1, 58, 100
3, 194304, Note_on_c, 1, 51, 80
3, 194492, Note_off_c, 1, 51, 100
3, 194496, Note_on_c, 1, 58, 80
3, 194684, Note_off_c, 1, 58, 100
3, 194688, Note_on_c, 1, 51, 80
3, 194876, Note_off_c, 1, 51, 100
3, 194880, Note_on_c, 1, 58, 80
3, 195068, Note_off_c, 1, 58, 100
3, 195072, Note_on_c, 1, 55, 80
3, 195260, Note_off_c, 1, 55, 100
3, 195264, Note_on_c, 1, 58, 80
3, 195452, Note_off_c, 1, 58, 100
3, 195456, Note_on_c, 1, 51, 80
3, 195644, Note_off_c, 1, 51, 100
3, 195648, Note_on_c, 1, 58, 80
3, 195836, Note_off_c, 1, 58, 100
3, 195840, Note_on_c, 1, 53, 80
3, 196028, Note_off_c, 1, 53, 100
3, 196032, Note_on_c, 1, 58, 80
3, 196220, Note_off_c, 1, 58, 100
3, 196224, Note_on_c, 1, 56, 80
3, 196412, Note_off_c, 1, 56, 100
3, 196416, Note_on_c, 1, 58, 80
3, 196604, Note_off_c, 1, 58, 100
3, 196608, Note_on_c, 1, 53, 80
3, 196796, Note_off_c, 1, 53, 100
3, 196800, Note_on_c, 1, 58, 80
3, 196988, Note_off_c, 1, 58, 100
3, 196992, Note_on_c, 1, 53, 80
3, 197180, Note_off_c, 1, 53, 100
3, 197184, Note_on_c, 1, 58, 80
3, 197372, Note_off_c, 1, 58, 100
3, 197376, Note_on_c, 1, 56, 80
3, 197564, Note_off_c, 1, 56, 100
3, 197568, Note_on_c, 1, 58, 80
3, 197756, Note_off_c, 1, 58, 100
3, 197760, Note_on_c, 1, 53, 80
3, 197948, Note_off_c, 1, 53, 100
3, 197952, Note_on_c, 1, 58, 80
3, 198140, Note_off_c, 1, 58, 100
3, 198144, Note_on_c, 1, 50, 80
3, 198332, Note_off_c, 1, 50, 100
3, 198336, Note_on_c, 1, 58, 80
3, 198524, Note_off_c, 1, 58, 100
3, 198528, Note_on_c, 1, 53, 80
3, 198716, Note_off_c, 1, 53, 100
3, 198720, Note_on_c, 1, 58, 80
3, 198908, Note_off_c, 1, 58, 100
3, 198912, Note_on_c, 1, 50, 80
3, 199100, Note_off_c, 1, 50, 100
3, 199104, Note_on_c, 1, 58, 80
3, 199292, Note_off_c, 1, 58, 100
3, 199296, Note_on_c, 1, 50, 80
3, 199484, Note_off_c, 1, 50, 100
3, 199488, Note_on_c, 1, 58, 80
3, 199676, Note_off_c, 1, 58, 100
3, 199680, Note_on_c, 1, 53, 80
3, 199868, Note_off_c, 1, 53, 100
3, 199872, Note_on_c, 1, 58, 80
3, 200060, Note_off_c, 1, 58, 100
3, 200064, Note_on_c, 1, 50, 80
3, 200252, Note_off_c, 1, 50, 100
3, 200256, Note_on_c, 1, 58, 80
3, 200444, Note_off_c, 1, 58, 100
3, 200640, Note_on_c, 1, 51, 80
3, 200828, Note_off_c, 1, 51, 100
3, 200832, Note_on_c, 1, 50, 81
3, 201020, Note_off_c, 1, 50, 100
3, 201024, Note_on_c, 1, 51, 82
3, 201212, Note_off_c, 1, 51, 100
3, 201216, Note_on_c, 1, 50, 83
3, 201404, Note_off_c, 1, 50, 100
3, 201408, Note_on_c, 1, 51, 84
3, 201596, Note_off_c, 1, 51, 100
3, 201600, Note_on_c, 1, 43, 85
3, 201788, Note_off_c, 1, 43, 100
3, 201792, Note_on_c, 1, 51, 86
3, 201980, Note_off_c, 1, 51, 100
3, 201984, Note_on_c, 1, 44, 86
3, 202172, Note_off_c, 1, 44, 100
3, 202176, Note_on_c, 1, 51, 87
3, 202364, Note_off_c, 1, 51, 100
3, 202368, Note_on_c, 1, 46, 88
3, 202556, Note_off_c, 1, 46, 100
3, 202560, Note_on_c, 1, 51, 89
3, 202748, Note_off_c, 1, 51, 100
3, 202752, Note_on_c, 1, 44, 90
3, 202940, Note_off_c, 1, 44, 100
3, 202944, Note_on_c, 1, 51, 91
3, 203132, Note_off_c, 1, 51, 100
3, 203136, Note_on_c, 1, 46, 92
3, 203324, Note_off_c, 1, 46, 100
3, 203328, Note_on_c, 1, 51, 93
3, 203516, Note_off_c, 1, 51, 100
3, 203520, Note_on_c, 1, 48, 93
3, 203708, Note_off_c, 1, 48, 100
3, 203712, Note_on_c, 1, 51, 94
3, 203900, Note_off_c, 1, 51, 100
3, 203904, Note_on_c, 1, 45, 95
3, 204092, Note_off_c, 1, 45, 100
3, 204096, Note_on_c, 1, 51, 96
3, 204284, Note_off_c, 1, 51, 100
3, 204288, Note_on_c, 1, 46, 97
3, 204476, Note_off_c, 1, 46, 100
3, 204480, Note_on_c, 1, 51, 98
3, 204668, Note_off_c, 1, 51, 100
3, 204672, Note_on_c, 1, 48, 99
3, 204860, Note_off_c, 1, 48, 100
3, 204864, Note_on_c, 1, 51, 99
3, 205052, Note_off_c, 1, 51, 100
3, 205056, Note_on_c, 1, 46, 110
3, 205244, Note_off_c, 1, 46, 100
3, 205248, Note_on_c, 1, 55, 110
3, 205436, Note_off_c, 1, 55, 100
3, 205440, Note_on_c, 1, 51, 110
3, 205628, Note_off_c, 1, 51, 100
3, 205632, Note_on_c, 1, 55, 110
3, 205820, Note_off_c, 1, 55, 100
3, 205824, Note_on_c, 1, 46, 110
3, 206012, Note_off_c, 1, 46, 100
3, 206016, Note_on_c, 1, 55, 110
3, 206204, Note_off_c, 1, 55, 100
3, 206208, Note_on_c, 1, 46, 110
3, 206396, Note_off_c, 1, 46, 100
3, 206400, Note_on_c, 1, 53, 110
3, 206588, Note_off_c, 1, 53, 100
3, 206592, Note_on_c, 1, 50, 110
3, 206780, Note_off_c, 1, 50, 100
3, 206784, Note_on_c, 1, 53, 110
3, 206972, Note_off_c, 1, 53, 100
3, 206976, Note_on_c, 1, 46, 110
3, 207164, Note_off_c, 1, 46, 100
3, 207168, Note_on_c, 1, 53, 110
3, 207356, Note_off_c, 1, 53, 100
3, 207360, Note_on_c, 1, 51, 100
3, 207360, Note_on_c, 1, 39, 100
3, 207740, Note_off_c, 1, 51, 100
3, 207740, Note_off_c, 1, 39, 100
3, 209664, Note_on_c, 1, 43, 110
3, 209852, Note_off_c, 1, 43, 100
3, 209856, Note_on_c, 1, 51, 110
3, 210044, Note_off_c, 1, 51, 100
3, 210048, Note_on_c, 1, 44, 110
3, 210236, Note_off_c, 1, 44, 100
3, 210240, Note_on_c, 1, 51, 110
3, 210428, Note_off_c, 1, 51, 100
3, 210432, Note_on_c, 1, 46, 110
3, 210620, Note_off_c, 1, 46, 100
3, 210624, Note_on_c, 1, 51, 110
3, 210812, Note_off_c, 1, 51, 100
3, 210816, Note_on_c, 1, 43, 110
3, 211004, Note_off_c, 1, 43, 100
3, 211008, Note_on_c, 1, 51, 110
3, 211196, Note_off_c, 1, 51, 100
3, 211200, Note_on_c, 1, 44, 110
3, 211388, Note_off_c, 1, 44, 100
3, 211392, Note_on_c, 1, 51, 110
3, 211580, Note_off_c, 1, 51, 100
3, 211584, Note_on_c, 1, 46, 110
3, 211772, Note_off_c, 1, 46, 100
3, 211776, Note_on_c, 1, 51, 110
3, 211964, Note_off_c, 1, 51, 100
3, 211968, Note_on_c, 1, 44, 110
3, 212156, Note_off_c, 1, 44, 100
3, 212160, Note_on_c, 1, 51, 110
3, 212348, Note_off_c, 1, 51, 100
3, 212352, Note_on_c, 1, 46, 110
3, 212540, Note_off_c, 1, 46, 100
3, 212544, Note_on_c, 1, 51, 110
3, 212732, Note_off_c, 1, 51, 100
3, 212736, Note_on_c, 1, 48, 110
3, 212924, Note_off_c, 1, 48, 100
3, 212928, Note_on_c, 1, 51, 110
3, 213116, Note_off_c, 1, 51, 100
3, 213120, Note_on_c, 1, 45, 110
3, 213308, Note_off_c, 1, 45, 100
3, 213312, Note_on_c, 1, 51, 110
3, 213500, Note_off_c, 1, 51, 100
3, 213504, Note_on_c, 1, 46, 110
3, 213692, Note_off_c, 1, 46, 100
3, 213696, Note_on_c, 1, 51, 110
3, 213884, Note_off_c, 1, 51, 100
3, 213888, Note_on_c, 1, 48, 110
3, 214076, Note_off_c, 1, 48, 100
3, 214080, Note_on_c, 1, 51, 110
3, 214268, Note_off_c, 1, 51, 100
3, 214272, Note_on_c, 1, 46, 110
3, 214460, Note_off_c, 1, 46, 100
3, 214464, Note_on_c, 1, 51, 110
3, 214652, Note_off_c, 1, 51, 100
3, 214656, Note_on_c, 1, 50, 111
3, 214844, Note_off_c, 1, 50, 100
3, 214848, Note_on_c, 1, 51, 112
3, 215036, Note_off_c, 1, 51, 100
3, 215040, Note_on_c, 1, 47, 113
3, 215228, Note_off_c, 1, 47, 100
3, 215232, Note_on_c, 1, 51, 114
3, 215420, Note_off_c, 1, 51, 100
3, 215424, Note_on_c, 1, 48, 115
3, 215612, Note_off_c, 1, 48, 100
3, 215616, Note_on_c, 1, 51, 115
3, 215804, Note_off_c, 1, 51, 100
3, 215808, Note_on_c, 1, 50, 116
3, 215996, Note_off_c, 1, 50, 100
3, 216000, Note_on_c, 1, 51, 117
3, 216188, Note_off_c, 1, 51, 100
3, 216192, Note_on_c, 1, 45, 118
3, 216380, Note_off_c, 1, 45, 100
3, 216384, Note_on_c, 1, 51, 119
3, 216572, Note_off_c, 1, 51, 100
3, 216576, Note_on_c, 1, 46, 120
3, 216764, Note_off_c, 1, 46, 100
3, 216768, Note_on_c, 1, 51, 120
3, 216956, Note_off_c, 1, 51, 100
3, 216960, Note_on_c, 1, 49, 120
3, 217148, Note_off_c, 1, 49, 100
3, 217152, Note_on_c, 1, 51, 120
3, 217340, Note_off_c, 1, 51, 100
3, 217344, Note_on_c, 1, 47, 120
3, 217532, Note_off_c, 1, 47, 100
3, 217536, Note_on_c, 1, 51, 120
3, 217724, Note_off_c, 1, 51, 100
3, 217728, Note_on_c, 1, 48, 120
3, 217916, Note_off_c, 1, 48, 100
3, 217920, Note_on_c, 1, 51, 120
3, 218108, Note_off_c, 1, 51, 100
3, 218112, Note_on_c, 1, 50, 120
3, 218300, Note_off_c, 1, 50, 100
3, 218304, Note_on_c, 1, 51, 120
3, 218492, Note_off_c, 1, 51, 100
3, 218496, Note_on_c, 1, 45, 120
3, 218684, Note_off_c, 1, 45, 100
3, 218688, Note_on_c, 1, 51, 120
3, 218876, Note_off_c, 1, 51, 100
3, 218880, Note_on_c, 1, 46, 120
3, 219260, Note_off_c, 1, 46, 100
3, 219264, Note_on_c, 1, 55, 120
3, 219264, Note_on_c, 1, 51, 120
3, 219264, Note_on_c, 1, 46, 120
3, 219644, Note_off_c, 1, 55, 100
3, 219644, Note_off_c, 1, 51, 100
3, 219644, Note_off_c, 1, 46, 100
3, 220416, Note_on_c, 1, 54, 120
3, 220416, Note_on_c, 1, 51, 120
3, 220416, Note_on_c, 1, 48, 120
3, 220796, Note_off_c, 1, 54, 100
3, 220796, Note_off_c, 1, 51, 100
3, 220796, Note_off_c, 1, 48, 100
3, 221568, Note_on_c, 1, 55, 120
3, 221568, Note_on_c, 1, 51, 120
3, 221568, Note_on_c, 1, 46, 120
3, 221948, Note_off_c, 1, 55, 100
3, 221948, Note_off_c, 1, 51, 100
3, 221948, Note_off_c, 1, 46, 100
3, 222720, Note_on_c, 1, 57, 120
3, 222720, Note_on_c, 1, 54, 120
3, 222720, Note_on_c, 1, 51, 120
3, 222720, Note_on_c, 1, 45, 120
3, 223100, Note_off_c, 1, 57, 100
3, 223100, Note_off_c, 1, 54, 100
3, 223100, Note_off_c, 1, 51, 100
3, 223100, Note_off_c, 1, 45, 100
3, 223872, Note_on_c, 1, 58, 120
3, 223872, Note_on_c, 1, 55, 120
3, 223872, Note_on_c, 1, 51, 120
3, 223872, Note_on_c, 1, 46, 120
3, 224252, Note_off_c, 1, 58, 100
3, 224252, Note_off_c, 1, 55, 100
3, 224252, Note_off_c, 1, 51, 100
3, 224252, Note_off_c, 1, 46, 100
3, 226944, Note_on_c, 1, 46, 120
3, 226944, Note_on_c, 1, 34, 120
3, 228092, Note_off_c, 1, 46, 100
3, 228092, Note_off_c, 1, 34, 100
3, 228096, Note_on_c, 1, 39, 120
3, 228476, Note_off_c, 1, 39, 100
3, 228480, Note_on_c, 1, 46, 120
3, 228864, Note_on_c, 1, 45, 100
3, 229244, Note_off_c, 1, 45, 100
3, 229248, Note_on_c, 1, 44, 100
3, 229628, Note_off_c, 1, 44, 100
3, 229632, Note_on_c, 1, 43, 100
3, 230012, Note_off_c, 1, 43, 100
3, 230016, Note_on_c, 1, 41, 100
3, 230396, Note_off_c, 1, 46, 100
3, 230396, Note_off_c, 1, 41, 100
3, 230400, Note_on_c, 1, 39, 100
3, 230780, Note_off_c, 1, 39, 100
3, 230784, Note_on_c, 1, 43, 100
3, 231164, Note_off_c, 1, 43, 100
3, 231168, Note_on_c, 1, 46, 100
3, 231548, Note_off_c, 1, 46, 100
3, 231552, Note_on_c, 1, 34, 100
3, 231932, Note_off_c, 1, 34, 100
3, 231936, Note_on_c, 1, 41, 100
3, 232316, Note_off_c, 1, 41, 100
3, 232320, Note_on_c, 1, 46, 100
3, 232700, Note_off_c, 1, 46, 100
3, 232704, Note_on_c, 1, 39, 100
3, 233084, Note_off_c, 1, 39, 100
3, 233088, Note_on_c, 1, 46, 115
3, 233472, Note_on_c, 1, 45, 100
3, 233852, Note_off_c, 1, 45, 100
3, 233856, Note_on_c, 1, 44, 100
3, 234236, Note_off_c, 1, 44, 100
3, 234240, Note_on_c, 1, 43, 100
3, 234620, Note_off_c, 1, 43, 100
3, 234624, Note_on_c, 1, 41, 100
3, 235004, Note_off_c, 1, 46, 100
3, 235004, Note_off_c, 1, 41, 100
3, 235008, Note_on_c, 1, 39, 100
3, 235388, Note_off_c, 1, 39, 100
3, 235392, Note_on_c, 1, 43, 100
3, 235772, Note_off_c, 1, 43, 100
3, 235776, Note_on_c, 1, 46, 100
3, 236156, Note_off_c, 1, 46, 100
3, 236160, Note_on_c, 1, 34, 100
3, 236540, Note_off_c, 1, 34, 100
3, 236544, Note_on_c, 1, 41, 80
3, 236924, Note_off_c, 1, 41, 100
3, 236928, Note_on_c, 1, 46, 80
3, 237308, Note_off_c, 1, 46, 100
3, 237312, Note_on_c, 1, 39, 79
3, 237692, Note_off_c, 1, 39, 100
3, 237696, Note_on_c, 1, 43, 78
3, 238076, Note_off_c, 1, 43, 100
3, 238080, Note_on_c, 1, 46, 77
3, 238460, Note_off_c, 1, 46, 100
3, 238464, Note_on_c, 1, 34, 76
3, 238844, Note_off_c, 1, 34, 100
3, 238848, Note_on_c, 1, 41, 75
3, 239228, Note_off_c, 1, 41, 100
3, 239232, Note_on_c, 1, 46, 74
3, 239612, Note_off_c, 1, 46, 100
3, 239616, Note_on_c, 1, 39, 73
3, 239996, Note_off_c, 1, 39, 100
3, 240000, Note_on_c, 1, 43, 72
3, 240380, Note_off_c, 1, 43, 100
3, 240384, Note_on_c, 1, 46, 71
3, 240764, Note_off_c, 1, 46, 100
3, 240768, Note_on_c, 1, 51, 71
3, 241148, Note_off_c, 1, 51, 100
3, 241920, Note_on_c, 1, 60, 110
3, 241920, Note_on_c, 1, 55, 110
3, 241920, Note_on_c, 1, 52, 110
3, 241920, Note_on_c, 1, 48, 110
3, 242492, Note_off_c, 1, 60, 100
3, 242492, Note_off_c, 1, 55, 100
3, 242492, Note_off_c, 1, 52, 100
3, 242492, Note_off_c, 1, 48, 100
3, 244992, Note_on_c, 1, 64, 80
3, 244992, Note_on_c, 1, 67, 80
3, 245372, Note_off_c, 1, 64, 100
3, 245372, Note_off_c, 1, 67, 100
3, 245376, Note_on_c, 1, 64, 80
3, 245376, Note_on_c, 1, 67, 80
3, 246140, Note_off_c, 1, 64, 100
3, 246140, Note_off_c, 1, 67, 100
3, 246144, Note_on_c, 1, 65, 80
3, 246144, Note_on_c, 1, 68, 80
3, 246524, Note_off_c, 1, 65, 100
3, 246524, Note_off_c, 1, 68, 100
3, 246528, Note_on_c, 1, 65, 110
3, 246528, Note_on_c, 1, 68, 110
3, 247100, Note_off_c, 1, 65, 100
3, 247100, Note_off_c, 1, 68, 100
3, 249600, Note_on_c, 1, 65, 80
3, 249600, Note_on_c, 1, 68, 80
3, 249980, Note_off_c, 1, 65, 100
3, 249980, Note_off_c, 1, 68, 100
3, 249984, Note_on_c, 1, 65, 80
3, 249984, Note_on_c, 1, 68, 80
3, 250748, Note_off_c, 1, 65, 100
3, 250748, Note_off_c, 1, 68, 100
3, 250752, Note_on_c, 1, 67, 80
3, 250752, Note_on_c, 1, 70, 80
3, 251132, Note_off_c, 1, 67, 100
3, 251132, Note_off_c, 1, 70, 100
3, 251136, Note_on_c, 1, 67, 110
3, 251136, Note_on_c, 1, 70, 110
3, 251708, Note_off_c, 1, 67, 100
3, 251708, Note_off_c, 1, 70, 100
3, 255744, Note_on_c, 1, 53, 80
3, 255932, Note_off_c, 1, 53, 100
3, 255936, Note_on_c, 1, 60, 80
3, 256124, Note_off_c, 1, 60, 100
3, 256128, Note_on_c, 1, 56, 80
3, 256316, Note_off_c, 1, 56, 100
3, 256320, Note_on_c, 1, 60, 80
3, 256508, Note_off_c, 1, 60, 100
3, 256512, Note_on_c, 1, 53, 80
3, 256700, Note_off_c, 1, 53, 100
3, 256704, Note_on_c, 1, 60, 80
3, 256892, Note_off_c, 1, 60, 100
3, 256896, Note_on_c, 1, 53, 80
3, 257084, Note_off_c, 1, 53, 100
3, 257088, Note_on_c, 1, 60, 80
3, 257276, Note_off_c, 1, 60, 100
3, 257280, Note_on_c, 1, 56, 80
3, 257468, Note_off_c, 1, 56, 100
3, 257472, Note_on_c, 1, 60, 80
3, 257660, Note_off_c, 1, 60, 100
3, 257664, Note_on_c, 1, 53, 80
3, 257852, Note_off_c, 1, 53, 100
3, 257856, Note_on_c, 1, 60, 80
3, 258044, Note_off_c, 1, 60, 100
3, 258048, Note_on_c, 1, 55, 80
3, 258236, Note_off_c, 1, 55, 100
3, 258240, Note_on_c, 1, 60, 80
3, 258428, Note_off_c, 1, 60, 100
3, 258432, Note_on_c, 1, 58, 80
3, 258620, Note_off_c, 1, 58, 100
3, 258624, Note_on_c, 1, 60, 80
3, 258812, Note_off_c, 1, 60, 100
3, 258816, Note_on_c, 1, 55, 80
3, 259004, Note_off_c, 1, 55, 100
3, 259008, Note_on_c, 1, 60, 80
3, 259196, Note_off_c, 1, 60, 100
3, 259200, Note_on_c, 1, 52, 80
3, 259388, Note_off_c, 1, 52, 100
3, 259392, Note_on_c, 1, 60, 80
3, 259580, Note_off_c, 1, 60, 100
3, 259584, Note_on_c, 1, 55, 80
3, 259772, Note_off_c, 1, 55, 100
3, 259776, Note_on_c, 1, 60, 80
3, 259964, Note_off_c, 1, 60, 100
3, 259968, Note_on_c, 1, 52, 80
3, 260156, Note_off_c, 1, 52, 100
3, 260160, Note_on_c, 1, 60, 80
3, 260348, Note_off_c, 1, 60, 100
3, 260352, Note_on_c, 1, 48, 80
3, 260540, Note_off_c, 1, 48, 100
3, 260544, Note_on_c, 1, 60, 83
3, 260732, Note_off_c, 1, 60, 100
3, 260736, Note_on_c, 1, 52, 87
3, 260924, Note_off_c, 1, 52, 100
3, 260928, Note_on_c, 1, 60, 91
3, 261116, Note_off_c, 1, 60, 100
3, 261120, Note_on_c, 1, 55, 95
3, 261308, Note_off_c, 1, 55, 100
3, 261312, Note_on_c, 1, 60, 99
3, 261500, Note_off_c, 1, 60, 100
3, 261504, Note_on_c, 1, 52, 100
3, 261692, Note_off_c, 1, 52, 100
3, 261696, Note_on_c, 1, 60, 97
3, 261884, Note_off_c, 1, 60, 100
3, 261888, Note_on_c, 1, 55, 93
3, 262076, Note_off_c, 1, 55, 100
3, 262080, Note_on_c, 1, 60, 89
3, 262268, Note_off_c, 1, 60, 100
3, 262272, Note_on_c, 1, 58, 85
3, 262460, Note_off_c, 1, 58, 100
3, 262464, Note_on_c, 1, 60, 81
3, 262652, Note_off_c, 1, 60, 100
3, 262656, Note_on_c, 1, 53, 80
3, 262844, Note_off_c, 1, 53, 100
3, 262848, Note_on_c, 1, 60, 80
3, 263036, Note_off_c, 1, 60, 100
3, 263040, Note_on_c, 1, 56, 80
3, 263228, Note_off_c, 1, 56, 100
3, 263232, Note_on_c, 1, 60, 80
3, 263420, Note_off_c, 1, 60, 100
3, 263424, Note_on_c, 1, 53, 80
3, 263612, Note_off_c, 1, 53, 100
3, 263616, Note_on_c, 1, 60, 80
3, 263804, Note_off_c, 1, 60, 100
3, 263808, Note_on_c, 1, 53, 80
3, 263996, Note_off_c, 1, 53, 100
3, 264000, Note_on_c, 1, 60, 80
3, 264188, Note_off_c, 1, 60, 100
3, 264192, Note_on_c, 1, 52, 80
3, 264380, Note_off_c, 1, 52, 100
3, 264384, Note_on_c, 1, 53, 80
3, 264572, Note_off_c, 1, 53, 100
3, 264576, Note_on_c, 1, 51, 80
3, 264764, Note_off_c, 1, 51, 100
3, 264768, Note_on_c, 1, 53, 80
3, 264956, Note_off_c, 1, 53, 100
3, 264960, Note_on_c, 1, 49, 80
3, 265148, Note_off_c, 1, 49, 100
3, 265152, Note_on_c, 1, 53, 81
3, 265340, Note_off_c, 1, 53, 100
3, 265344, Note_on_c, 1, 48, 83
3, 265532, Note_off_c, 1, 48, 100
3, 265536, Note_on_c, 1, 53, 85
3, 265724, Note_off_c, 1, 53, 100
3, 265728, Note_on_c, 1, 49, 87
3, 265916, Note_off_c, 1, 49, 100
3, 265920, Note_on_c, 1, 53, 89
3, 266108, Note_off_c, 1, 53, 100
3, 266112, Note_on_c, 1, 46, 90
3, 266300, Note_off_c, 1, 46, 100
3, 266304, Note_on_c, 1, 53, 92
3, 266492, Note_off_c, 1, 53, 100
3, 266496, Note_on_c, 1, 48, 94
3, 266684, Note_off_c, 1, 48, 100
3, 266688, Note_on_c, 1, 53, 96
3, 266876, Note_off_c, 1, 53, 100
3, 266880, Note_on_c, 1, 49, 98
3, 267068, Note_off_c, 1, 49, 100
3, 267072, Note_on_c, 1, 53, 99
3, 267260, Note_off_c, 1, 53, 100
3, 267264, Note_on_c, 1, 48, 100
3, 267452, Note_off_c, 1, 48, 100
3, 267456, Note_on_c, 1, 53, 99
3, 267644, Note_off_c, 1, 53, 100
3, 267648, Note_on_c, 1, 51, 97
3, 267836, Note_off_c, 1, 51, 100
3, 267840, Note_on_c, 1, 53, 95
3, 268028, Note_off_c, 1, 53, 100
3, 268032, Note_on_c, 1, 48, 93
3, 268220, Note_off_c, 1, 48, 100
3, 268224, Note_on_c, 1, 53, 91
3, 268412, Note_off_c, 1, 53, 100
3, 268416, Note_on_c, 1, 45, 90
3, 268604, Note_off_c, 1, 45, 100
3, 268608, Note_on_c, 1, 53, 88
3, 268796, Note_off_c, 1, 53, 100
3, 268800, Note_on_c, 1, 48, 86
3, 268988, Note_off_c, 1, 48, 100
3, 268992, Note_on_c, 1, 53, 84
3, 269180, Note_off_c, 1, 53, 100
3, 269184, Note_on_c, 1, 45, 82
3, 269372, Note_off_c, 1, 45, 100
3, 269376, Note_on_c, 1, 53, 81
3, 269564, Note_off_c, 1, 53, 100
3, 269568, Note_on_c, 1, 41, 80
3, 269756, Note_off_c, 1, 41, 100
3, 269760, Note_on_c, 1, 53, 80
3, 269948, Note_off_c, 1, 53, 100
3, 269952, Note_on_c, 1, 45, 80
3, 270140, Note_off_c, 1, 45, 100
3, 270144, Note_on_c, 1, 53, 80
3, 270332, Note_off_c, 1, 53, 100
3, 270336, Note_on_c, 1, 48, 80
3, 270524, Note_off_c, 1, 48, 100
3, 270528, Note_on_c, 1, 53, 80
3, 270716, Note_off_c, 1, 53, 100
3, 270720, Note_on_c, 1, 45, 80
3, 270908, Note_off_c, 1, 45, 100
3, 270912, Note_on_c, 1, 53, 80
3, 271100, Note_off_c, 1, 53, 100
3, 271104, Note_on_c, 1, 48, 80
3, 271292, Note_off_c, 1, 48, 100
3, 271296, Note_on_c, 1, 53, 80
3, 271484, Note_off_c, 1, 53, 100
3, 271488, Note_on_c, 1, 51, 80
3, 271676, Note_off_c, 1, 51, 100
3, 271680, Note_on_c, 1, 53, 80
3, 271868, Note_off_c, 1, 53, 100
3, 271872, Note_on_c, 1, 46, 80
3, 272060, Note_off_c, 1, 46, 100
3, 272064, Note_on_c, 1, 53, 80
3, 272252, Note_off_c, 1, 53, 100
3, 272256, Note_on_c, 1, 49, 80
3, 272444, Note_off_c, 1, 49, 100
3, 272448, Note_on_c, 1, 53, 80
3, 272636, Note_off_c, 1, 53, 100
3, 272640, Note_on_c, 1, 46, 80
3, 272828, Note_off_c, 1, 46, 100
3, 272832, Note_on_c, 1, 53, 80
3, 273020, Note_off_c, 1, 53, 100
3, 273024, Note_on_c, 1, 46, 80
3, 273212, Note_off_c, 1, 46, 100
3, 273216, Note_on_c, 1, 53, 80
3, 273404, Note_off_c, 1, 53, 100
3, 273408, Note_on_c, 1, 49, 80
3, 273596, Note_off_c, 1, 49, 100
3, 273600, Note_on_c, 1, 53, 80
3, 273788, Note_off_c, 1, 53, 100
3, 273792, Note_on_c, 1, 46, 80
3, 273980, Note_off_c, 1, 46, 100
3, 273984, Note_on_c, 1, 53, 80
3, 274172, Note_off_c, 1, 53, 100
3, 274176, Note_on_c, 1, 44, 100
3, 274364, Note_off_c, 1, 44, 100
3, 274368, Note_on_c, 1, 54, 100
3, 274556, Note_off_c, 1, 54, 100
3, 274560, Note_on_c, 1, 51, 100
3, 274748, Note_off_c, 1, 51, 100
3, 274752, Note_on_c, 1, 54, 100
3, 274940, Note_off_c, 1, 54, 100
3, 274944, Note_on_c, 1, 44, 100
3, 275132, Note_off_c, 1, 44, 100
3, 275136, Note_on_c, 1, 54, 100
3, 275324, Note_off_c, 1, 54, 100
3, 275328, Note_on_c, 1, 44, 100
3, 275516, Note_off_c, 1, 44, 100
3, 275520, Note_on_c, 1, 54, 100
3, 275708, Note_off_c, 1, 54, 100
3, 275712, Note_on_c, 1, 48, 100
3, 275900, Note_off_c, 1, 48, 100
3, 275904, Note_on_c, 1, 54, 100
3, 276092, Note_off_c, 1, 54, 100
3, 276096, Note_on_c, 1, 44, 100
3, 276284, Note_off_c, 1, 44, 100
3, 276288, Note_on_c, 1, 54, 100
3, 276476, Note_off_c, 1, 54, 100
3, 276480, Note_on_c, 1, 53, 100
3, 276480, Note_on_c, 1, 49, 100
3, 276860, Note_off_c, 1, 53, 100
3, 276860, Note_off_c, 1, 49, 100
3, 277632, Note_on_c, 1, 68, 100
3, 278012, Note_off_c, 1, 68, 100
3, 278016, Note_on_c, 1, 66, 100
3, 278396, Note_off_c, 1, 66, 100
3, 278400, Note_on_c, 1, 63, 100
3, 278780, Note_off_c, 1, 63, 100
3, 278784, Note_on_c, 1, 65, 100
3, 279164, Note_off_c, 1, 65, 100
3, 279168, Note_on_c, 1, 64, 100
3, 279548, Note_off_c, 1, 64, 100
3, 279552, Note_on_c, 1, 66, 100
3, 279932, Note_off_c, 1, 66, 100
3, 279936, Note_on_c, 1, 65, 100
3, 280316, Note_off_c, 1, 65, 100
3, 280320, Note_on_c, 1, 63, 100
3, 280700, Note_off_c, 1, 63, 100
3, 280704, Note_on_c, 1, 60, 100
3, 281084, Note_off_c, 1, 60, 100
3, 281088, Note_on_c, 1, 61, 100
3, 281468, Note_off_c, 1, 61, 100
3, 281472, Note_on_c, 1, 60, 100
3, 281852, Note_off_c, 1, 60, 100
3, 281856, Note_on_c, 1, 63, 100
3, 282236, Note_off_c, 1, 63, 100
3, 282240, Note_on_c, 1, 61, 100
3, 282620, Note_off_c, 1, 61, 100
3, 282624, Note_on_c, 1, 60, 100
3, 283004, Note_off_c, 1, 60, 100
3, 283008, Note_on_c, 1, 57, 100
3, 283388, Note_off_c, 1, 57, 100
3, 283392, Note_on_c, 1, 58, 100
3, 283772, Note_off_c, 1, 58, 100
3, 283776, Note_on_c, 1, 61, 100
3, 284156, Note_off_c, 1, 61, 100
3, 284160, Note_on_c, 1, 56, 100
3, 284540, Note_off_c, 1, 56, 100
3, 284544, Note_on_c, 1, 55, 100
3, 284924, Note_off_c, 1, 55, 100
3, 284928, Note_on_c, 1, 56, 100
3, 285308, Note_off_c, 1, 56, 100
3, 285312, Note_on_c, 1, 53, 100
3, 285692, Note_off_c, 1, 53, 100
3, 285696, Note_on_c, 1, 52, 100
3, 286076, Note_off_c, 1, 52, 100
3, 286080, Note_on_c, 1, 55, 100
3, 286460, Note_off_c, 1, 55, 100
3, 286464, Note_on_c, 1, 50, 100
3, 286844, Note_off_c, 1, 50, 100
3, 286848, Note_on_c, 1, 48, 100
3, 287228, Note_off_c, 1, 48, 100
3, 287232, Note_on_c, 1, 50, 100
3, 287612, Note_off_c, 1, 50, 100
3, 287616, Note_on_c, 1, 52, 100
3, 287996, Note_off_c, 1, 52, 100
3, 288000, Note_on_c, 1, 53, 100
3, 288380, Note_off_c, 1, 53, 100
3, 288384, Note_on_c, 1, 56, 101
3, 288764, Note_off_c, 1, 56, 100
3, 288768, Note_on_c, 1, 51, 103
3, 289148, Note_off_c, 1, 51, 100
3, 289152, Note_on_c, 1, 50, 105
3, 289532, Note_off_c, 1, 50, 100
3, 289536, Note_on_c, 1, 53, 106
3, 289916, Note_off_c, 1, 53, 100
3, 289920, Note_on_c, 1, 48, 108
3, 290300, Note_off_c, 1, 48, 100
3, 290304, Note_on_c, 1, 47, 110
3, 290684, Note_off_c, 1, 47, 100
3, 290688, Note_on_c, 1, 50, 110
3, 291068, Note_off_c, 1, 50, 100
3, 291072, Note_on_c, 1, 45, 110
3, 291452, Note_off_c, 1, 45, 100
3, 291456, Note_on_c, 1, 43, 110
3, 291836, Note_off_c, 1, 43, 100
3, 291840, Note_on_c, 1, 45, 110
3, 292220, Note_off_c, 1, 45, 100
3, 292224, Note_on_c, 1, 47, 110
3, 292604, Note_off_c, 1, 47, 100
3, 292608, Note_on_c, 1, 48, 110
3, 292988, Note_off_c, 1, 48, 100
3, 292992, Note_on_c, 1, 51, 110
3, 293372, Note_off_c, 1, 51, 100
3, 293376, Note_on_c, 1, 46, 110
3, 293756, Note_off_c, 1, 46, 100
3, 293760, Note_on_c, 1, 44, 110
3, 294140, Note_off_c, 1, 44, 100
3, 294144, Note_on_c, 1, 48, 110
3, 294524, Note_off_c, 1, 48, 100
3, 294528, Note_on_c, 1, 43, 110
3, 294908, Note_off_c, 1, 43, 100
3, 294912, Note_on_c, 1, 41, 110
3, 295292, Note_off_c, 1, 41, 100
3, 295296, Note_on_c, 1, 44, 110
3, 295676, Note_off_c, 1, 44, 100
3, 295680, Note_on_c, 1, 39, 110
3, 296060, Note_off_c, 1, 39, 100
3, 296064, Note_on_c, 1, 38, 110
3, 296444, Note_off_c, 1, 38, 100
3, 296448, Note_on_c, 1, 41, 110
3, 296828, Note_off_c, 1, 41, 100
3, 296832, Note_on_c, 1, 36, 110
3, 297212, Note_off_c, 1, 36, 100
3, 297216, Note_on_c, 1, 35, 120
3, 297596, Note_off_c, 1, 35, 100
3, 297600, Note_on_c, 1, 38, 120
3, 297980, Note_off_c, 1, 38, 100
3, 297984, Note_on_c, 1, 33, 120
3, 298364, Note_off_c, 1, 33, 100
3, 298368, Note_on_c, 1, 31, 120
3, 298748, Note_off_c, 1, 31, 100
3, 298752, Note_on_c, 1, 33, 120
3, 299132, Note_off_c, 1, 33, 100
3, 299136, Note_on_c, 1, 35, 120
3, 299516, Note_off_c, 1, 35, 100
3, 299520, Note_on_c, 1, 36, 120
3, 299900, Note_off_c, 1, 36, 100
3, 299904, Note_on_c, 1, 38, 120
3, 300284, Note_off_c, 1, 38, 100
3, 300288, Note_on_c, 1, 39, 120
3, 300668, Note_off_c, 1, 39, 100
3, 300672, Note_on_c, 1, 41, 120
3, 301436, Note_off_c, 1, 41, 100
3, 301440, Note_on_c, 1, 42, 120
3, 301820, Note_off_c, 1, 42, 100
3, 301824, Note_on_c, 1, 43, 120
3, 302204, Note_off_c, 1, 43, 100
3, 302208, Note_on_c, 1, 55, 80
3, 302588, Note_off_c, 1, 55, 100
3, 303360, Note_on_c, 1, 55, 80
3, 303740, Note_off_c, 1, 55, 100
3, 304512, Note_on_c, 1, 55, 80
3, 304892, Note_off_c, 1, 55, 100
3, 305664, Note_on_c, 1, 55, 80
3, 306044, Note_off_c, 1, 55, 100
3, 306816, Note_on_c, 1, 43, 80
3, 307196, Note_off_c, 1, 43, 100
3, 307968, Note_on_c, 1, 43, 79
3, 308348, Note_off_c, 1, 43, 100
3, 309120, Note_on_c, 1, 43, 77
3, 309500, Note_off_c, 1, 43, 100
3, 310272, Note_on_c, 1, 43, 75
3, 310652, Note_off_c, 1, 43, 100
3, 311424, Note_on_c, 1, 43, 73
3, 311424, Note_on_c, 1, 31, 73
3, 311804, Note_off_c, 1, 43, 100
3, 311804, Note_off_c, 1, 31, 100
3, 312576, Note_on_c, 1, 43, 71
3, 312576, Note_on_c, 1, 31, 71
3, 312956, Note_off_c, 1, 43, 100
3, 312956, Note_off_c, 1, 31, 100
3, 313344, Note_on_c, 1, 48, 110
3, 313344, Note_on_c, 1, 43, 110
3, 313344, Note_on_c, 1, 39, 110
3, 313344, Note_on_c, 1, 36, 110
3, 313916, Note_off_c, 1, 48, 100
3, 313916, Note_off_c, 1, 43, 100
3, 313916, Note_off_c, 1, 39, 100
3, 313916, Note_off_c, 1, 36, 100
3, 316416, Note_on_c, 1, 60, 80
3, 316416, Note_on_c, 1, 63, 80
3, 316796, Note_off_c, 1, 60, 100
3, 316796, Note_off_c, 1, 63, 100
3, 316800, Note_on_c, 1, 60, 80
3, 316800, Note_on_c, 1, 63, 80
3, 317564, Note_off_c, 1, 60, 100
3, 317564, Note_off_c, 1, 63, 100
3, 317568, Note_on_c, 1, 62, 80
3, 317568, Note_on_c, 1, 65, 80
3, 317948, Note_off_c, 1, 62, 100
3, 317948, Note_off_c, 1, 65, 100
3, 317952, Note_on_c, 1, 62, 110
3, 317952, Note_on_c, 1, 59, 110
3, 317952, Note_on_c, 1, 56, 110
3, 317952, Note_on_c, 1, 53, 110
3, 317952, Note_on_c, 1, 50, 110
3, 318524, Note_off_c, 1, 62, 100
3, 318524, Note_off_c, 1, 59, 100
3, 318524, Note_off_c, 1, 56, 100
3, 318524, Note_off_c, 1, 53, 100
3, 318524, Note_off_c, 1, 50, 100
3, 321024, Note_on_c, 1, 68, 80
3, 321024, Note_on_c, 1, 65, 80
3, 321024, Note_on_c, 1, 62, 80
3, 321404, Note_off_c, 1, 68, 100
3, 321404, Note_off_c, 1, 65, 100
3, 321404, Note_off_c, 1, 62, 100
3, 321408, Note_on_c, 1, 62, 80
3, 321408, Note_on_c, 1, 65, 80
3, 321408, Note_on_c, 1, 68, 80
3, 322172, Note_off_c, 1, 62, 100
3, 322172, Note_off_c, 1, 65, 100
3, 322172, Note_off_c, 1, 68, 100
3, 322176, Note_on_c, 1, 63, 81
3, 322176, Note_on_c, 1, 67, 81
3, 322556, Note_off_c, 1, 63, 100
3, 322556, Note_off_c, 1, 67, 100
3, 323328, Note_on_c, 1, 60, 83
3, 323328, Note_on_c, 1, 55, 83
3, 323328, Note_on_c, 1, 51, 83
3, 323708, Note_off_c, 1, 60, 100
3, 323708, Note_off_c, 1, 55, 100
3, 323708, Note_off_c, 1, 51, 100
3, 323712, Note_on_c, 1, 59, 84
3, 323712, Note_on_c, 1, 56, 84
3, 323712, Note_on_c, 1, 53, 84
3, 324476, Note_off_c, 1, 59, 100
3, 324476, Note_off_c, 1, 56, 100
3, 324476, Note_off_c, 1, 53, 100
3, 324480, Note_on_c, 1, 60, 85
3, 324480, Note_on_c, 1, 55, 85
3, 324480, Note_on_c, 1, 51, 85
3, 324860, Note_off_c, 1, 60, 100
3, 324860, Note_off_c, 1, 55, 100
3, 324860, Note_off_c, 1, 51, 100
3, 325632, Note_on_c, 1, 60, 87
3, 325632, Note_on_c, 1, 63, 87
3, 326012, Note_off_c, 1, 60, 100
3, 326012, Note_off_c, 1, 63, 100
3, 326016, Note_on_c, 1, 62, 88
3, 326016, Note_on_c, 1, 65, 88
3, 326780, Note_off_c, 1, 62, 100
3, 326780, Note_off_c, 1, 65, 100
3, 326784, Note_on_c, 1, 60, 89
3, 326784, Note_on_c, 1, 63, 89
3, 327164, Note_off_c, 1, 60, 100
3, 327164, Note_off_c, 1, 63, 100
3, 327936, Note_on_c, 1, 60, 100
3, 327936, Note_on_c, 1, 55, 100
3, 327936, Note_on_c, 1, 51, 100
3, 328316, Note_off_c, 1, 60, 100
3, 328316, Note_off_c, 1, 55, 100
3, 328316, Note_off_c, 1, 51, 100
3, 328320, Note_on_c, 1, 59, 100
3, 328320, Note_on_c, 1, 56, 100
3, 328320, Note_on_c, 1, 53, 100
3, 329084, Note_off_c, 1, 59, 100
3, 329084, Note_off_c, 1, 56, 100
3, 329084, Note_off_c, 1, 53, 100
3, 329088, Note_on_c, 1, 55, 100
3, 329088, Note_on_c, 1, 51, 100
3, 329468, Note_off_c, 1, 55, 100
3, 329468, Note_off_c, 1, 51, 100
3, 329472, Note_on_c, 1, 53, 100
3, 329472, Note_on_c, 1, 50, 100
3, 330236, Note_off_c, 1, 53, 100
3, 330236, Note_off_c, 1, 50, 100
3, 330240, Note_on_c, 1, 51, 100
3, 330240, Note_on_c, 1, 48, 100
3, 330620, Note_off_c, 1, 51, 100
3, 330620, Note_off_c, 1, 48, 100
3, 330624, Note_on_c, 1, 50, 100
3, 330624, Note_on_c, 1, 47, 100
3, 331004, Note_off_c, 1, 50, 100
3, 331004, Note_off_c, 1, 47, 100
3, 332544, Note_on_c, 1, 56, 80
3, 332544, Note_on_c, 1, 53, 80
3, 332544, Note_on_c, 1, 50, 80
3, 332544, Note_on_c, 1, 46, 80
3, 332924, Note_off_c, 1, 56, 100
3, 332924, Note_off_c, 1, 53, 100
3, 332924, Note_off_c, 1, 50, 100
3, 332924, Note_off_c, 1, 46, 100
3, 332928, Note_on_c, 1, 55, 80
3, 332928, Note_on_c, 1, 51, 80
3, 332928, Note_on_c, 1, 48, 80
3, 333308, Note_off_c, 1, 55, 100
3, 333308, Note_off_c, 1, 51, 100
3, 333308, Note_off_c, 1, 48, 100
3, 334848, Note_on_c, 1, 50, 80
3, 334848, Note_on_c, 1, 44, 80
3, 334848, Note_on_c, 1, 41, 80
3, 335228, Note_off_c, 1, 50, 100
3, 335228, Note_off_c, 1, 44, 100
3, 335228, Note_off_c, 1, 41, 100
3, 335232, Note_on_c, 1, 51, 80
3, 335232, Note_on_c, 1, 48, 80
3, 335232, Note_on_c, 1, 43, 80
3, 335612, Note_off_c, 1, 51, 100
3, 335612, Note_off_c, 1, 48, 100
3, 335612, Note_off_c, 1, 43, 100
3, 337152, Note_on_c, 1, 43, 120
3, 337152, Note_on_c, 1, 31, 120
3, 337532, Note_off_c, 1, 43, 100
3, 337532, Note_off_c, 1, 31, 100
3, 337536, Note_on_c, 1, 48, 120
3, 337536, Note_on_c, 1, 36, 120
3, 337916, Note_off_c, 1, 48, 100
3, 337916, Note_off_c, 1, 36, 100
3, 339840, Note_on_c, 1, 61, 103
3, 340992, Note_on_c, 1, 59, 80
3, 342140, Note_off_c, 1, 59, 100
3, 342144, Note_on_c, 1, 58, 80
3, 343292, Note_off_c, 1, 61, 100
3, 343292, Note_off_c, 1, 58, 100
3, 343296, Note_on_c, 1, 56, 80
3, 343296, Note_on_c, 1, 59, 80
3, 344444, Note_off_c, 1, 56, 100
3, 344444, Note_off_c, 1, 59, 100
3, 344448, Note_on_c, 1, 54, 80
3, 344448, Note_on_c, 1, 61, 80
3, 345596, Note_off_c, 1, 54, 100
3, 345596, Note_off_c, 1, 61, 100
3, 345600, Note_on_c, 1, 71, 102
3, 345600, Note_on_c, 1, 73, 101
3, 346748, Note_off_c, 1, 71, 100
3, 346752, Note_on_c, 1, 70, 80
3, 347900, Note_off_c, 1, 73, 100
3, 347900, Note_off_c, 1, 70, 100
3, 347904, Note_on_c, 1, 68, 80
3, 347904, Note_on_c, 1, 71, 80
3, 349052, Note_off_c, 1, 68, 100
3, 349052, Note_off_c, 1, 71, 100
3, 349056, Note_on_c, 1, 66, 80
3, 349056, Note_on_c, 1, 73, 80
3, 350204, Note_off_c, 1, 66, 100
3, 350204, Note_off_c, 1, 73, 100
3, 350208, Note_on_c, 1, 70, 101
3, 350208, Note_on_c, 1, 68, 104
3, 351356, Note_off_c, 1, 68, 100
3, 351360, Note_on_c, 1, 66, 80
3, 352508, Note_off_c, 1, 70, 100
3, 352508, Note_off_c, 1, 66, 100
3, 352512, Note_on_c, 1, 65, 80
3, 352512, Note_on_c, 1, 68, 80
3, 353660, Note_off_c, 1, 65, 100
3, 353660, Note_off_c, 1, 68, 100
3, 353664, Note_on_c, 1, 63, 80
3, 353664, Note_on_c, 1, 66, 80
3, 354812, Note_off_c, 1, 63, 100
3, 354812, Note_off_c, 1, 66, 100
3, 354816, Note_on_c, 1, 61, 80
3, 354816, Note_on_c, 1, 65, 80
3, 355964, Note_off_c, 1, 61, 100
3, 355964, Note_off_c, 1, 65, 100
3, 355968, Note_on_c, 1, 60, 80
3, 355968, Note_on_c, 1, 67, 80
3, 357116, Note_off_c, 1, 60, 100
3, 357116, Note_off_c, 1, 67, 100
3, 357120, Note_on_c, 1, 59, 80
3, 358268, Note_off_c, 1, 59, 100
3, 358272, Note_on_c, 1, 48, 80
3, 358272, Note_on_c, 1, 60, 80
3, 358652, Note_off_c, 1, 60, 100
3, 358656, Note_on_c, 1, 55, 80
3, 359036, Note_off_c, 1, 55, 100
3, 359040, Note_on_c, 1, 56, 80
3, 359420, Note_off_c, 1, 56, 100
3, 359424, Note_on_c, 1, 58, 80
3, 359804, Note_off_c, 1, 58, 100
3, 359808, Note_on_c, 1, 53, 80
3, 360188, Note_off_c, 1, 53, 100
3, 360192, Note_on_c, 1, 55, 80
3, 360572, Note_off_c, 1, 48, 100
3, 360572, Note_off_c, 1, 55, 100
3, 360576, Note_on_c, 1, 56, 80
3, 360576, Note_on_c, 1, 48, 80
3, 360956, Note_off_c, 1, 56, 100
3, 360960, Note_on_c, 1, 52, 80
3, 361340, Note_off_c, 1, 52, 100
3, 361344, Note_on_c, 1, 53, 80
3, 361724, Note_off_c, 1, 53, 100
3, 361728, Note_on_c, 1, 55, 80
3, 362108, Note_off_c, 1, 55, 100
3, 362112, Note_on_c, 1, 50, 80
3, 362492, Note_off_c, 1, 50, 100
3, 362496, Note_on_c, 1, 52, 80
3, 362876, Note_off_c, 1, 48, 100
3, 362876, Note_off_c, 1, 52, 100
3, 362880, Note_on_c, 1, 48, 80
3, 362880, Note_on_c, 1, 53, 80
3, 363260, Note_off_c, 1, 53, 100
3, 363264, Note_on_c, 1, 55, 80
3, 363644, Note_off_c, 1, 55, 100
3, 363648, Note_on_c, 1, 57, 80
3, 364028, Note_off_c, 1, 57, 100
3, 364032, Note_on_c, 1, 58, 80
3, 364412, Note_off_c, 1, 58, 100
3, 364416, Note_on_c, 1, 54, 80
3, 364796, Note_off_c, 1, 54, 100
3, 364800, Note_on_c, 1, 55, 80
3, 365180, Note_off_c, 1, 48, 100
3, 365180, Note_off_c, 1, 55, 100
3, 365184, Note_on_c, 1, 48, 80
3, 365184, Note_on_c, 1, 57, 80
3, 365564, Note_off_c, 1, 57, 100
3, 365568, Note_on_c, 1, 52, 80
3, 365948, Note_off_c, 1, 52, 100
3, 365952, Note_on_c, 1, 53, 80
3, 366332, Note_off_c, 1, 53, 100
3, 366336, Note_on_c, 1, 55, 80
3, 366716, Note_off_c, 1, 55, 100
3, 366720, Note_on_c, 1, 50, 80
3, 367100, Note_off_c, 1, 50, 100
3, 367104, Note_on_c, 1, 52, 80
3, 367484, Note_off_c, 1, 48, 100
3, 367484, Note_off_c, 1, 52, 100
3, 367488, Note_on_c, 1, 53, 80
3, 367676, Note_off_c, 1, 53, 100
3, 367680, Note_on_c, 1, 60, 80
3, 367868, Note_off_c, 1, 60, 100
3, 367872, Note_on_c, 1, 57, 80
3, 368060, Note_off_c, 1, 57, 100
3, 368064, Note_on_c, 1, 60, 80
3, 368252, Note_off_c, 1, 60, 100
3, 368256, Note_on_c, 1, 53, 80
3, 368444, Note_off_c, 1, 53, 100
3, 368448, Note_on_c, 1, 60, 80
3, 368636, Note_off_c, 1, 60, 100
3, 368640, Note_on_c, 1, 53, 80
3, 368828, Note_off_c, 1, 53, 100
3, 368832, Note_on_c, 1, 60, 80
3, 369020, Note_off_c, 1, 60, 100
3, 369024, Note_on_c, 1, 55, 80
3, 369212, Note_off_c, 1, 55, 100
3, 369216, Note_on_c, 1, 60, 80
3, 369404, Note_off_c, 1, 60, 100
3, 369408, Note_on_c, 1, 57, 80
3, 369596, Note_off_c, 1, 57, 100
3, 369600, Note_on_c, 1, 60, 80
3, 369788, Note_off_c, 1, 60, 100
3, 369792, Note_on_c, 1, 55, 80
3, 369980, Note_off_c, 1, 55, 100
3, 369984, Note_on_c, 1, 60, 80
3, 370172, Note_off_c, 1, 60, 100
3, 370176, Note_on_c, 1, 57, 80
3, 370364, Note_off_c, 1, 57, 100
3, 370368, Note_on_c, 1, 60, 80
3, 370556, Note_off_c, 1, 60, 100
3, 370560, Note_on_c, 1, 58, 80
3, 370748, Note_off_c, 1, 58, 100
3, 370752, Note_on_c, 1, 60, 80
3, 370940, Note_off_c, 1, 60, 100
3, 370944, Note_on_c, 1, 55, 80
3, 371132, Note_off_c, 1, 55, 100
3, 371136, Note_on_c, 1, 60, 80
3, 371324, Note_off_c, 1, 60, 100
3, 371328, Note_on_c, 1, 57, 80
3, 371516, Note_off_c, 1, 57, 100
3, 371520, Note_on_c, 1, 60, 80
3, 371708, Note_off_c, 1, 60, 100
3, 371712, Note_on_c, 1, 58, 80
3, 371900, Note_off_c, 1, 58, 100
3, 371904, Note_on_c, 1, 60, 80
3, 372092, Note_off_c, 1, 60, 100
3, 372096, Note_on_c, 1, 52, 80
3, 372284, Note_off_c, 1, 52, 100
3, 372288, Note_on_c, 1, 60, 80
3, 372476, Note_off_c, 1, 60, 100
3, 372480, Note_on_c, 1, 55, 80
3, 372668, Note_off_c, 1, 55, 100
3, 372672, Note_on_c, 1, 60, 80
3, 372860, Note_off_c, 1, 60, 100
3, 372864, Note_on_c, 1, 53, 80
3, 373052, Note_off_c, 1, 53, 100
3, 373056, Note_on_c, 1, 60, 80
3, 373244, Note_off_c, 1, 60, 100
3, 373248, Note_on_c, 1, 52, 80
3, 373436, Note_off_c, 1, 52, 100
3, 373440, Note_on_c, 1, 60, 80
3, 373628, Note_off_c, 1, 60, 100
3, 373632, Note_on_c, 1, 53, 80
3, 373820, Note_off_c, 1, 53, 100
3, 373824, Note_on_c, 1, 60, 80
3, 374012, Note_off_c, 1, 60, 100
3, 374016, Note_on_c, 1, 55, 80
3, 374204, Note_off_c, 1, 55, 100
3, 374208, Note_on_c, 1, 60, 80
3, 374396, Note_off_c, 1, 60, 100
3, 374400, Note_on_c, 1, 53, 80
3, 374588, Note_off_c, 1, 53, 100
3, 374592, Note_on_c, 1, 60, 80
3, 374780, Note_off_c, 1, 60, 100
3, 374784, Note_on_c, 1, 55, 80
3, 374972, Note_off_c, 1, 55, 100
3, 374976, Note_on_c, 1, 60, 80
3, 375164, Note_off_c, 1, 60, 100
3, 375168, Note_on_c, 1, 57, 80
3, 375356, Note_off_c, 1, 57, 100
3, 375360, Note_on_c, 1, 60, 80
3, 375548, Note_off_c, 1, 60, 100
3, 375552, Note_on_c, 1, 53, 80
3, 375740, Note_off_c, 1, 53, 100
3, 375744, Note_on_c, 1, 60, 80
3, 375932, Note_off_c, 1, 60, 100
3, 375936, Note_on_c, 1, 55, 80
3, 376124, Note_off_c, 1, 55, 100
3, 376128, Note_on_c, 1, 60, 80
3, 376316, Note_off_c, 1, 60, 100
3, 376320, Note_on_c, 1, 57, 80
3, 376508, Note_off_c, 1, 57, 100
3, 376512, Note_on_c, 1, 60, 80
3, 376700, Note_off_c, 1, 60, 100
3, 376704, Note_on_c, 1, 53, 80
3, 376892, Note_off_c, 1, 53, 100
3, 376896, Note_on_c, 1, 60, 80
3, 377084, Note_off_c, 1, 60, 100
3, 377088, Note_on_c, 1, 57, 80
3, 377276, Note_off_c, 1, 57, 100
3, 377280, Note_on_c, 1, 60, 80
3, 377468, Note_off_c, 1, 60, 100
3, 377472, Note_on_c, 1, 53, 80
3, 377660, Note_off_c, 1, 53, 100
3, 377664, Note_on_c, 1, 60, 80
3, 377852, Note_off_c, 1, 60, 100
3, 377856, Note_on_c, 1, 53, 80
3, 378044, Note_off_c, 1, 53, 100
3, 378048, Note_on_c, 1, 60, 80
3, 378236, Note_off_c, 1, 60, 100
3, 378240, Note_on_c, 1, 57, 80
3, 378428, Note_off_c, 1, 57, 100
3, 378432, Note_on_c, 1, 60, 80
3, 378620, Note_off_c, 1, 60, 100
3, 378624, Note_on_c, 1, 53, 80
3, 378812, Note_off_c, 1, 53, 100
3, 378816, Note_on_c, 1, 60, 80
3, 379004, Note_off_c, 1, 60, 100
3, 379008, Note_on_c, 1, 55, 80
3, 379196, Note_off_c, 1, 55, 100
3, 379200, Note_on_c, 1, 60, 80
3, 379388, Note_off_c, 1, 60, 100
3, 379392, Note_on_c, 1, 58, 80
3, 379580, Note_off_c, 1, 58, 100
3, 379584, Note_on_c, 1, 60, 80
3, 379772, Note_off_c, 1, 60, 100
3, 379776, Note_on_c, 1, 55, 80
3, 379964, Note_off_c, 1, 55, 100
3, 379968, Note_on_c, 1, 60, 80
3, 380156, Note_off_c, 1, 60, 100
3, 380160, Note_on_c, 1, 55, 80
3, 380348, Note_off_c, 1, 55, 100
3, 380352, Note_on_c, 1, 60, 80
3, 380540, Note_off_c, 1, 60, 100
3, 380544, Note_on_c, 1, 58, 80
3, 380732, Note_off_c, 1, 58, 100
3, 380736, Note_on_c, 1, 60, 80
3, 380924, Note_off_c, 1, 60, 100
3, 380928, Note_on_c, 1, 55, 80
3, 381116, Note_off_c, 1, 55, 100
3, 381120, Note_on_c, 1, 60, 80
3, 381308, Note_off_c, 1, 60, 100
3, 381312, Note_on_c, 1, 52, 80
3, 381500, Note_off_c, 1, 52, 100
3, 381504, Note_on_c, 1, 60, 80
3, 381692, Note_off_c, 1, 60, 100
3, 381696, Note_on_c, 1, 55, 80
3, 381884, Note_off_c, 1, 55, 100
3, 381888, Note_on_c, 1, 60, 80
3, 382076, Note_off_c, 1, 60, 100
3, 382080, Note_on_c, 1, 52, 80
3, 382268, Note_off_c, 1, 52, 100
3, 382272, Note_on_c, 1, 60, 80
3, 382460, Note_off_c, 1, 60, 100
3, 382464, Note_on_c, 1, 52, 80
3, 382652, Note_off_c, 1, 52, 100
3, 382656, Note_on_c, 1, 60, 80
3, 382844, Note_off_c, 1, 60, 100
3, 382848, Note_on_c, 1, 55, 80
3, 383036, Note_off_c, 1, 55, 100
3, 383040, Note_on_c, 1, 60, 80
3, 383228, Note_off_c, 1, 60, 100
3, 383232, Note_on_c, 1, 52, 80
3, 383420, Note_off_c, 1, 52, 100
3, 383424, Note_on_c, 1, 60, 80
3, 383612, Note_off_c, 1, 60, 100
3, 383616, Note_on_c, 1, 53, 80
3, 383804, Note_off_c, 1, 53, 100
3, 383808, Note_on_c, 1, 60, 80
3, 383996, Note_off_c, 1, 60, 100
3, 384000, Note_on_c, 1, 55, 80
3, 384188, Note_off_c, 1, 55, 100
3, 384192, Note_on_c, 1, 60, 80
3, 384380, Note_off_c, 1, 60, 100
3, 384384, Note_on_c, 1, 56, 80
3, 384572, Note_off_c, 1, 56, 100
3, 384576, Note_on_c, 1, 60, 80
3, 384764, Note_off_c, 1, 60, 100
3, 384768, Note_on_c, 1, 53, 80
3, 384956, Note_off_c, 1, 53, 100
3, 384960, Note_on_c, 1, 60, 80
3, 385148, Note_off_c, 1, 60, 100
3, 385152, Note_on_c, 1, 55, 80
3, 385340, Note_off_c, 1, 55, 100
3, 385344, Note_on_c, 1, 60, 80
3, 385532, Note_off_c, 1, 60, 100
3, 385536, Note_on_c, 1, 56, 80
3, 385724, Note_off_c, 1, 56, 100
3, 385728, Note_on_c, 1, 60, 80
3, 385916, Note_off_c, 1, 60, 100
3, 385920, Note_on_c, 1, 55, 80
3, 386108, Note_off_c, 1, 55, 100
3, 386112, Note_on_c, 1, 63, 80
3, 386300, Note_off_c, 1, 63, 100
3, 386304, Note_on_c, 1, 60, 80
3, 386492, Note_off_c, 1, 60, 100
3, 386496, Note_on_c, 1, 63, 80
3, 386684, Note_off_c, 1, 63, 100
3, 386688, Note_on_c, 1, 55, 80
3, 386876, Note_off_c, 1, 55, 100
3, 386880, Note_on_c, 1, 63, 80
3, 387068, Note_off_c, 1, 63, 100
3, 387072, Note_on_c, 1, 55, 80
3, 387260, Note_off_c, 1, 55, 100
3, 387264, Note_on_c, 1, 62, 80
3, 387452, Note_off_c, 1, 62, 100
3, 387456, Note_on_c, 1, 59, 80
3, 387644, Note_off_c, 1, 59, 100
3, 387648, Note_on_c, 1, 62, 80
3, 387836, Note_off_c, 1, 62, 100
3, 387840, Note_on_c, 1, 55, 80
3, 388028, Note_off_c, 1, 55, 100
3, 388032, Note_on_c, 1, 62, 80
3, 388220, Note_off_c, 1, 62, 100
3, 388224, Note_on_c, 1, 48, 110
3, 388412, Note_off_c, 1, 48, 100
3, 388416, Note_on_c, 1, 55, 110
3, 388604, Note_off_c, 1, 55, 100
3, 388608, Note_on_c, 1, 51, 110
3, 388796, Note_off_c, 1, 51, 100
3, 388800, Note_on_c, 1, 55, 110
3, 388988, Note_off_c, 1, 55, 100
3, 388992, Note_on_c, 1, 50, 110
3, 389180, Note_off_c, 1, 50, 100
3, 389184, Note_on_c, 1, 55, 110
3, 389372, Note_off_c, 1, 55, 100
3, 389376, Note_on_c, 1, 48, 110
3, 389564, Note_off_c, 1, 48, 100
3, 389568, Note_on_c, 1, 55, 110
3, 389756, Note_off_c, 1, 55, 100
3, 389760, Note_on_c, 1, 51, 110
3, 389948, Note_off_c, 1, 51, 100
3, 389952, Note_on_c, 1, 55, 110
3, 390140, Note_off_c, 1, 55, 100
3, 390144, Note_on_c, 1, 50, 110
3, 390332, Note_off_c, 1, 50, 100
3, 390336, Note_on_c, 1, 55, 110
3, 390524, Note_off_c, 1, 55, 100
3, 390528, Note_on_c, 1, 50, 110
3, 390716, Note_off_c, 1, 50, 100
3, 390720, Note_on_c, 1, 55, 110
3, 390908, Note_off_c, 1, 55, 100
3, 390912, Note_on_c, 1, 51, 110
3, 391100, Note_off_c, 1, 51, 100
3, 391104, Note_on_c, 1, 55, 110
3, 391292, Note_off_c, 1, 55, 100
3, 391296, Note_on_c, 1, 53, 110
3, 391484, Note_off_c, 1, 53, 100
3, 391488, Note_on_c, 1, 55, 110
3, 391676, Note_off_c, 1, 55, 100
3, 391680, Note_on_c, 1, 50, 110
3, 391868, Note_off_c, 1, 50, 100
3, 391872, Note_on_c, 1, 55, 110
3, 392060, Note_off_c, 1, 55, 100
3, 392064, Note_on_c, 1, 51, 110
3, 392252, Note_off_c, 1, 51, 100
3, 392256, Note_on_c, 1, 55, 110
3, 392444, Note_off_c, 1, 55, 100
3, 392448, Note_on_c, 1, 53, 110
3, 392636, Note_off_c, 1, 53, 100
3, 392640, Note_on_c, 1, 55, 110
3, 392828, Note_off_c, 1, 55, 100
3, 392832, Note_on_c, 1, 47, 110
3, 393020, Note_off_c, 1, 47, 100
3, 393024, Note_on_c, 1, 55, 110
3, 393212, Note_off_c, 1, 55, 100
3, 393216, Note_on_c, 1, 50, 110
3, 393404, Note_off_c, 1, 50, 100
3, 393408, Note_on_c, 1, 55, 110
3, 393596, Note_off_c, 1, 55, 100
3, 393600, Note_on_c, 1, 48, 110
3, 393788, Note_off_c, 1, 48, 100
3, 393792, Note_on_c, 1, 55, 110
3, 393980, Note_off_c, 1, 55, 100
3, 393984, Note_on_c, 1, 47, 110
3, 394172, Note_off_c, 1, 47, 100
3, 394176, Note_on_c, 1, 55, 110
3, 394364, Note_off_c, 1, 55, 100
3, 394368, Note_on_c, 1, 50, 110
3, 394556, Note_off_c, 1, 50, 100
3, 394560, Note_on_c, 1, 55, 110
3, 394748, Note_off_c, 1, 55, 100
3, 394752, Note_on_c, 1, 48, 110
3, 394940, Note_off_c, 1, 48, 100
3, 394944, Note_on_c, 1, 55, 110
3, 395132, Note_off_c, 1, 55, 100
3, 395136, Note_on_c, 1, 48, 110
3, 395324, Note_off_c, 1, 48, 100
3, 395328, Note_on_c, 1, 55, 110
3, 395516, Note_off_c, 1, 55, 100
3, 395520, Note_on_c, 1, 50, 110
3, 395708, Note_off_c, 1, 50, 100
3, 395712, Note_on_c, 1, 55, 110
3, 395900, Note_off_c, 1, 55, 100
3, 395904, Note_on_c, 1, 51, 110
3, 396092, Note_off_c, 1, 51, 100
3, 396096, Note_on_c, 1, 55, 110
3, 396284, Note_off_c, 1, 55, 100
3, 396288, Note_on_c, 1, 48, 110
3, 396476, Note_off_c, 1, 48, 100
3, 396480, Note_on_c, 1, 55, 110
3, 396668, Note_off_c, 1, 55, 100
3, 396672, Note_on_c, 1, 50, 110
3, 396860, Note_off_c, 1, 50, 100
3, 396864, Note_on_c, 1, 55, 110
3, 397052, Note_off_c, 1, 55, 100
3, 397056, Note_on_c, 1, 51, 110
3, 397244, Note_off_c, 1, 51, 100
3, 397248, Note_on_c, 1, 55, 110
3, 397436, Note_off_c, 1, 55, 100
3, 397440, Note_on_c, 1, 48, 100
3, 397628, Note_off_c, 1, 48, 100
3, 397632, Note_on_c, 1, 55, 100
3, 397820, Note_off_c, 1, 55, 100
3, 397824, Note_on_c, 1, 51, 100
3, 398012, Note_off_c, 1, 51, 100
3, 398016, Note_on_c, 1, 55, 100
3, 398204, Note_off_c, 1, 55, 100
3, 398208, Note_on_c, 1, 48, 100
3, 398396, Note_off_c, 1, 48, 100
3, 398400, Note_on_c, 1, 55, 100
3, 398588, Note_off_c, 1, 55, 100
3, 398592, Note_on_c, 1, 48, 100
3, 398780, Note_off_c, 1, 48, 100
3, 398784, Note_on_c, 1, 55, 100
3, 398972, Note_off_c, 1, 55, 100
3, 398976, Note_on_c, 1, 51, 100
3, 399164, Note_off_c, 1, 51, 100
3, 399168, Note_on_c, 1, 55, 100
3, 399356, Note_off_c, 1, 55, 100
3, 399360, Note_on_c, 1, 48, 100
3, 399548, Note_off_c, 1, 48, 100
3, 399552, Note_on_c, 1, 55, 100
3, 399740, Note_off_c, 1, 55, 100
3, 399744, Note_on_c, 1, 50, 100
3, 399932, Note_off_c, 1, 50, 100
3, 399936, Note_on_c, 1, 55, 100
3, 400124, Note_off_c, 1, 55, 100
3, 400128, Note_on_c, 1, 53, 100
3, 400316, Note_off_c, 1, 53, 100
3, 400320, Note_on_c, 1, 55, 100
3, 400508, Note_off_c, 1, 55, 100
3, 400512, Note_on_c, 1, 50, 100
3, 400700, Note_off_c, 1, 50, 100
3, 400704, Note_on_c, 1, 55, 100
3, 400892, Note_off_c, 1, 55, 100
3, 400896, Note_on_c, 1, 50, 100
3, 401084, Note_off_c, 1, 50, 100
3, 401088, Note_on_c, 1, 55, 100
3, 401276, Note_off_c, 1, 55, 100
3, 401280, Note_on_c, 1, 53, 100
3, 401468, Note_off_c, 1, 53, 100
3, 401472, Note_on_c, 1, 55, 100
3, 401660, Note_off_c, 1, 55, 100
3, 401664, Note_on_c, 1, 50, 100
3, 401852, Note_off_c, 1, 50, 100
3, 401856, Note_on_c, 1, 55, 100
3, 402044, Note_off_c, 1, 55, 100
3, 402048, Note_on_c, 1, 47, 100
3, 402236, Note_off_c, 1, 47, 100
3, 402240, Note_on_c, 1, 55, 100
3, 402428, Note_off_c, 1, 55, 100
3, 402432, Note_on_c, 1, 50, 100
3, 402620, Note_off_c, 1, 50, 100
3, 402624, Note_on_c, 1, 55, 100
3, 402812, Note_off_c, 1, 55, 100
3, 402816, Note_on_c, 1, 47, 100
3, 403004, Note_off_c, 1, 47, 100
3, 403008, Note_on_c, 1, 55, 100
3, 403196, Note_off_c, 1, 55, 100
3, 403200, Note_on_c, 1, 47, 100
3, 403388, Note_off_c, 1, 47, 100
3, 403392, Note_on_c, 1, 55, 100
3, 403580, Note_off_c, 1, 55, 100
3, 403584, Note_on_c, 1, 50, 100
3, 403772, Note_off_c, 1, 50, 100
3, 403776, Note_on_c, 1, 55, 100
3, 403964, Note_off_c, 1, 55, 100
3, 403968, Note_on_c, 1, 47, 100
3, 404156, Note_off_c, 1, 47, 100
3, 404160, Note_on_c, 1, 55, 100
3, 404348, Note_off_c, 1, 55, 100
3, 404544, Note_on_c, 1, 48, 100
3, 404732, Note_off_c, 1, 48, 100
3, 404736, Note_on_c, 1, 47, 101
3, 404924, Note_off_c, 1, 47, 100
3, 404928, Note_on_c, 1, 48, 102
3, 405116, Note_off_c, 1, 48, 100
3, 405120, Note_on_c, 1, 47, 103
3, 405308, Note_off_c, 1, 47, 100
3, 405312, Note_on_c, 1, 48, 104
3, 405500, Note_off_c, 1, 48, 100
3, 405504, Note_on_c, 1, 40, 105
3, 405692, Note_off_c, 1, 40, 100
3, 405696, Note_on_c, 1, 48, 105
3, 405884, Note_off_c, 1, 48, 100
3, 405888, Note_on_c, 1, 41, 106
3, 406076, Note_off_c, 1, 41, 100
3, 406080, Note_on_c, 1, 48, 107
3, 406268, Note_off_c, 1, 48, 100
3, 406272, Note_on_c, 1, 43, 108
3, 406460, Note_off_c, 1, 43, 100
3, 406464, Note_on_c, 1, 48, 109
3, 406652, Note_off_c, 1, 48, 100
3, 406656, Note_on_c, 1, 41, 110
3, 406844, Note_off_c, 1, 41, 100
3, 406848, Note_on_c, 1, 48, 110
3, 407036, Note_off_c, 1, 48, 100
3, 407040, Note_on_c, 1, 43, 110
3, 407228, Note_off_c, 1, 43, 100
3, 407232, Note_on_c, 1, 48, 110
3, 407420, Note_off_c, 1, 48, 100
3, 407424, Note_on_c, 1, 44, 110
3, 407612, Note_off_c, 1, 44, 100
3, 407616, Note_on_c, 1, 48, 110
3, 407804, Note_off_c, 1, 48, 100
3, 407808, Note_on_c, 1, 42, 110
3, 407996, Note_off_c, 1, 42, 100
3, 408000, Note_on_c, 1, 48, 110
3, 408188, Note_off_c, 1, 48, 100
3, 408192, Note_on_c, 1, 43, 110
3, 408380, Note_off_c, 1, 43, 100
3, 408384, Note_on_c, 1, 48, 110
3, 408572, Note_off_c, 1, 48, 100
3, 408576, Note_on_c, 1, 45, 110
3, 408764, Note_off_c, 1, 45, 100
3, 408768, Note_on_c, 1, 48, 110
3, 408956, Note_off_c, 1, 48, 100
3, 408960, Note_on_c, 1, 43, 110
3, 409148, Note_off_c, 1, 43, 100
3, 409152, Note_on_c, 1, 51, 110
3, 409340, Note_off_c, 1, 51, 100
3, 409344, Note_on_c, 1, 48, 110
3, 409532, Note_off_c, 1, 48, 100
3, 409536, Note_on_c, 1, 51, 110
3, 409724, Note_off_c, 1, 51, 100
3, 409728, Note_on_c, 1, 43, 110
3, 409916, Note_off_c, 1, 43, 100
3, 409920, Note_on_c, 1, 51, 110
3, 410108, Note_off_c, 1, 51, 100
3, 410112, Note_on_c, 1, 43, 110
3, 410300, Note_off_c, 1, 43, 100
3, 410304, Note_on_c, 1, 50, 110
3, 410492, Note_off_c, 1, 50, 100
3, 410496, Note_on_c, 1, 47, 110
3, 410684, Note_off_c, 1, 47, 100
3, 410688, Note_on_c, 1, 50, 110
3, 410876, Note_off_c, 1, 50, 100
3, 410880, Note_on_c, 1, 43, 110
3, 411068, Note_off_c, 1, 43, 100
3, 411072, Note_on_c, 1, 50, 110
3, 411260, Note_off_c, 1, 50, 100
3, 411264, Note_on_c, 1, 48, 100
3, 411264, Note_on_c, 1, 36, 100
3, 411644, Note_off_c, 1, 48, 100
3, 411644, Note_off_c, 1, 36, 100
3, 413568, Note_on_c, 1, 39, 100
3, 413756, Note_off_c, 1, 39, 100
3, 413760, Note_on_c, 1, 48, 100
3, 413948, Note_off_c, 1, 48, 100
3, 413952, Note_on_c, 1, 41, 100
3, 414140, Note_off_c, 1, 41, 100
3, 414144, Note_on_c, 1, 48, 102
3, 414332, Note_off_c, 1, 48, 100
3, 414336, Note_on_c, 1, 43, 100
3, 414524, Note_off_c, 1, 43, 100
3, 414528, Note_on_c, 1, 48, 104
3, 414716, Note_off_c, 1, 48, 100
3, 414720, Note_on_c, 1, 40, 100
3, 414908, Note_off_c, 1, 40, 100
3, 414912, Note_on_c, 1, 48, 100
3, 415100, Note_off_c, 1, 48, 100
3, 415104, Note_on_c, 1, 41, 100
3, 415292, Note_off_c, 1, 41, 100
3, 415296, Note_on_c, 1, 48, 102
3, 415484, Note_off_c, 1, 48, 100
3, 415488, Note_on_c, 1, 43, 100
3, 415676, Note_off_c, 1, 43, 100
3, 415680, Note_on_c, 1, 48, 104
3, 415868, Note_off_c, 1, 48, 100
3, 415872, Note_on_c, 1, 41, 110
3, 416060, Note_off_c, 1, 41, 100
3, 416064, Note_on_c, 1, 48, 110
3, 416252, Note_off_c, 1, 48, 100
3, 416256, Note_on_c, 1, 43, 110
3, 416444, Note_off_c, 1, 43, 100
3, 416448, Note_on_c, 1, 48, 110
3, 416636, Note_off_c, 1, 48, 100
3, 416640, Note_on_c, 1, 44, 110
3, 416828, Note_off_c, 1, 44, 100
3, 416832, Note_on_c, 1, 48, 110
3, 417020, Note_off_c, 1, 48, 100
3, 417024, Note_on_c, 1, 42, 110
3, 417212, Note_off_c, 1, 42, 100
3, 417216, Note_on_c, 1, 48, 110
3, 417404, Note_off_c, 1, 48, 100
3, 417408, Note_on_c, 1, 43, 110
3, 417596, Note_off_c, 1, 43, 100
3, 417600, Note_on_c, 1, 48, 110
3, 417788, Note_off_c, 1, 48, 100
3, 417792, Note_on_c, 1, 45, 110
3, 417980, Note_off_c, 1, 45, 100
3, 417984, Note_on_c, 1, 48, 110
3, 418172, Note_off_c, 1, 48, 100
3, 418176, Note_on_c, 1, 43, 110
3, 418364, Note_off_c, 1, 43, 100
3, 418368, Note_on_c, 1, 48, 110
3, 418556, Note_off_c, 1, 48, 100
3, 418560, Note_on_c, 1, 47, 110
3, 418748, Note_off_c, 1, 47, 100
3, 418752, Note_on_c, 1, 48, 110
3, 418940, Note_off_c, 1, 48, 100
3, 418944, Note_on_c, 1, 43, 110
3, 419132, Note_off_c, 1, 43, 100
3, 419136, Note_on_c, 1, 48, 110
3, 419324, Note_off_c, 1, 48, 100
3, 419328, Note_on_c, 1, 44, 110
3, 419516, Note_off_c, 1, 44, 100
3, 419520, Note_on_c, 1, 48, 110
3, 419708, Note_off_c, 1, 48, 100
3, 419712, Note_on_c, 1, 47, 110
3, 419900, Note_off_c, 1, 47, 100
3, 419904, Note_on_c, 1, 48, 110
3, 420092, Note_off_c, 1, 48, 100
3, 420096, Note_on_c, 1, 42, 110
3, 420284, Note_off_c, 1, 42, 100
3, 420288, Note_on_c, 1, 48, 110
3, 420476, Note_off_c, 1, 48, 100
3, 420480, Note_on_c, 1, 43, 110
3, 420668, Note_off_c, 1, 43, 100
3, 420672, Note_on_c, 1, 48, 110
3, 420860, Note_off_c, 1, 48, 100
3, 420864, Note_on_c, 1, 47, 110
3, 421052, Note_off_c, 1, 47, 100
3, 421056, Note_on_c, 1, 48, 110
3, 421244, Note_off_c, 1, 48, 100
3, 421248, Note_on_c, 1, 40, 110
3, 421436, Note_off_c, 1, 40, 100
3, 421440, Note_on_c, 1, 48, 110
3, 421628, Note_off_c, 1, 48, 100
3, 421632, Note_on_c, 1, 41, 110
3, 421820, Note_off_c, 1, 41, 100
3, 421824, Note_on_c, 1, 48, 110
3, 422012, Note_off_c, 1, 48, 100
3, 422016, Note_on_c, 1, 44, 110
3, 422204, Note_off_c, 1, 44, 100
3, 422208, Note_on_c, 1, 48, 110
3, 422396, Note_off_c, 1, 48, 100
3, 422400, Note_on_c, 1, 42, 110
3, 422588, Note_off_c, 1, 42, 100
3, 422592, Note_on_c, 1, 48, 110
3, 422780, Note_off_c, 1, 48, 100
3, 422784, Note_on_c, 1, 43, 110
3, 423164, Note_off_c, 1, 43, 100
3, 423168, Note_on_c, 1, 60, 110
3, 423168, Note_on_c, 1, 63, 110
3, 423168, Note_on_c, 1, 55, 110
3, 423548, Note_off_c, 1, 60, 100
3, 423548, Note_off_c, 1, 63, 100
3, 423548, Note_off_c, 1, 55, 100
3, 424320, Note_on_c, 1, 63, 110
3, 424320, Note_on_c, 1, 60, 110
3, 424320, Note_on_c, 1, 56, 110
3, 424700, Note_off_c, 1, 63, 100
3, 424700, Note_off_c, 1, 60, 100
3, 424700, Note_off_c, 1, 56, 100
3, 425472, Note_on_c, 1, 63, 110
3, 425472, Note_on_c, 1, 60, 110
3, 425472, Note_on_c, 1, 55, 110
3, 425852, Note_off_c, 1, 63, 100
3, 425852, Note_off_c, 1, 60, 100
3, 425852, Note_off_c, 1, 55, 100
3, 426624, Note_on_c, 1, 63, 110
3, 426624, Note_on_c, 1, 60, 110
3, 426624, Note_on_c, 1, 54, 110
3, 427004, Note_off_c, 1, 63, 100
3, 427004, Note_off_c, 1, 60, 100
3, 427004, Note_off_c, 1, 54, 100
3, 427776, Note_on_c, 1, 60, 120
3, 427776, Note_on_c, 1, 63, 120
3, 427776, Note_on_c, 1, 55, 120
3, 428156, Note_off_c, 1, 60, 100
3, 428156, Note_off_c, 1, 63, 100
3, 428156, Note_off_c, 1, 55, 100
3, 430848, Note_on_c, 1, 43, 120
3, 430848, Note_on_c, 1, 31, 120
3, 431996, Note_off_c, 1, 43, 100
3, 431996, Note_off_c, 1, 31, 100
3, 432000, Note_on_c, 1, 36, 110
3, 432380, Note_off_c, 1, 36, 100
3, 432384, Note_on_c, 1, 43, 115
3, 432768, Note_on_c, 1, 42, 100
3, 433148, Note_off_c, 1, 42, 100
3, 433152, Note_on_c, 1, 41, 100
3, 433532, Note_off_c, 1, 41, 100
3, 433536, Note_on_c, 1, 39, 100
3, 433916, Note_off_c, 1, 39, 100
3, 433920, Note_on_c, 1, 38, 100
3, 434300, Note_off_c, 1, 43, 100
3, 434300, Note_off_c, 1, 38, 100
3, 434304, Note_on_c, 1, 36, 100
3, 434684, Note_off_c, 1, 36, 100
3, 434688, Note_on_c, 1, 39, 100
3, 435068, Note_off_c, 1, 39, 100
3, 435072, Note_on_c, 1, 43, 100
3, 435452, Note_off_c, 1, 43, 100
3, 435456, Note_on_c, 1, 31, 100
3, 435836, Note_off_c, 1, 31, 100
3, 435840, Note_on_c, 1, 38, 100
3, 436220, Note_off_c, 1, 38, 100
3, 436224, Note_on_c, 1, 43, 100
3, 436604, Note_off_c, 1, 43, 100
3, 436608, Note_on_c, 1, 36, 110
3, 436988, Note_off_c, 1, 36, 100
3, 436992, Note_on_c, 1, 43, 117
3, 437376, Note_on_c, 1, 42, 90
3, 437756, Note_off_c, 1, 42, 100
3, 437760, Note_on_c, 1, 41, 90
3, 438140, Note_off_c, 1, 41, 100
3, 438144, Note_on_c, 1, 39, 89
3, 438524, Note_off_c, 1, 39, 100
3, 438528, Note_on_c, 1, 38, 89
3, 438908, Note_off_c, 1, 43, 100
3, 438908, Note_off_c, 1, 38, 100
3, 438912, Note_on_c, 1, 36, 88
3, 439292, Note_off_c, 1, 36, 100
3, 439296, Note_on_c, 1, 39, 87
3, 439676, Note_off_c, 1, 39, 100
3, 439680, Note_on_c, 1, 43, 87
3, 440060, Note_off_c, 1, 43, 100
3, 440064, Note_on_c, 1, 31, 86
3, 440444, Note_off_c, 1, 31, 100
3, 440448, Note_on_c, 1, 38, 86
3, 440828, Note_off_c, 1, 38, 100
3, 440832, Note_on_c, 1, 43, 85
3, 441212, Note_off_c, 1, 43, 100
3, 441216, Note_on_c, 1, 36, 84
3, 441596, Note_off_c, 1, 36, 100
3, 441600, Note_on_c, 1, 39, 84
3, 441980, Note_off_c, 1, 39, 100
3, 441984, Note_on_c, 1, 43, 83
3, 442364, Note_off_c, 1, 43, 100
3, 442368, Note_on_c, 1, 31, 82
3, 442748, Note_off_c, 1, 31, 100
3, 442752, Note_on_c, 1, 38, 82
3, 443132, Note_off_c, 1, 38, 100
3, 443136, Note_on_c, 1, 43, 81
3, 443516, Note_off_c, 1, 43, 100
3, 443520, Note_on_c, 1, 36, 81
3, 443900, Note_off_c, 1, 36, 100
3, 444672, Note_on_c, 1, 43, 120
3, 444672, Note_on_c, 1, 38, 120
3, 444672, Note_on_c, 1, 35, 120
3, 444672, Note_on_c, 1, 31, 120
3, 445052, Note_off_c, 1, 43, 100
3, 445052, Note_off_c, 1, 38, 100
3, 445052, Note_off_c, 1, 35, 100
3, 445052, Note_off_c, 1, 31, 100
3, 445824, Note_on_c, 1, 48, 120
3, 445824, Note_on_c, 1, 43, 120
3, 445824, Note_on_c, 1, 39, 120
3, 445824, Note_on_c, 1, 36, 120
3, 446588, Note_off_c, 1, 48, 100
3, 446588, Note_off_c, 1, 43, 100
3, 446588, Note_off_c, 1, 39, 100
3, 446588, Note_off_c, 1, 36, 100
3, 446588, End_track
0, 0, End_of_file
