0, 0, Header, 1, 3, 384
1, 0, Start_track
1, 0, Title_t, "L.v.Beethoven 3mov - Piano Sonata No.6 in F Major Op.10-2\000"
1, 0, Copyright_t, "Copyright(C) 1995-2009, Suzuki Software\000"
1, 0, Sequencer_specific, 9, 67, 123, 0, 88, 70, 48, 50, 0, 1
1, 0, Text_t, "XFhd:2000/04/03:JP:Classical::::L.v.Beethoven:::Kaoru Suzuki\000"
1, 0, Text_t, "XFln:JP:\203s\203A\203m\203\\\203i\203^\221æ6\224Ô\203w\222·\222²\215ì\225i10-2\201`\221æ3\212y\217Í:L.v.\203x\201[\203g\201[\203\224\203F\203\223:::\227é\202¿\202á\202ñ:\227é\202¿\202á\202ñ\000"
1, 0, Time_signature, 1, 2, 96, 8
1, 0, Sequencer_specific, 3, 0, 0, 65
1, 0, Sequencer_specific, 5, 0, 0, 119, 14, 0
1, 0, Tempo, 361445
1, 384, Time_signature, 2, 2, 96, 8
1, 74112, Tempo, 375000
1, 74880, Tempo, 387096
1, 75840, Tempo, 361445
1, 119424, Tempo, 375000
1, 119808, Tempo, 387096
1, 120384, Tempo, 361445
1, 137088, Tempo, 400000
1, 137856, Tempo, 428571
1, 138240, Tempo, 461538
1, 138432, Tempo, 666666
1, 138432, End_track
2, 0, Start_track
2, 0, Title_t, "Right"
2, 0, Control_c, 0, 0, 0
2, 0, Program_c, 0, 0
2, 0, Control_c, 0, 7, 100
2, 0, Control_c, 0, 10, 78
2, 0, Control_c, 0, 91, 127
2, 0, Key_signature, -1, "major"
2, 3264, Note_on_c, 0, 60, 100
2, 3452, Note_off_c, 0, 60, 100
2, 3456, Note_on_c, 0, 65, 100
2, 3644, Note_off_c, 0, 65, 100
2, 3648, Note_on_c, 0, 65, 100
2, 3836, Note_off_c, 0, 65, 100
2, 3840, Note_on_c, 0, 65, 100
2, 4028, Note_off_c, 0, 65, 100
2, 4032, Note_on_c, 0, 60, 100
2, 4220, Note_off_c, 0, 60, 100
2, 4224, Note_on_c, 0, 69, 100
2, 4412, Note_off_c, 0, 69, 100
2, 4416, Note_on_c, 0, 69, 100
2, 4604, Note_off_c, 0, 69, 100
2, 4608, Note_on_c, 0, 69, 100
2, 4796, Note_off_c, 0, 69, 100
2, 4800, Note_on_c, 0, 65, 100
2, 4988, Note_off_c, 0, 65, 100
2, 4992, Note_on_c, 0, 72, 100
2, 5180, Note_off_c, 0, 72, 100
2, 5184, Note_on_c, 0, 72, 100
2, 5372, Note_off_c, 0, 72, 100
2, 5376, Note_on_c, 0, 72, 100
2, 5468, Note_off_c, 0, 72, 100
2, 5472, Note_on_c, 0, 74, 100
2, 5564, Note_off_c, 0, 74, 100
2, 5568, Note_on_c, 0, 72, 100
2, 5660, Note_off_c, 0, 72, 100
2, 5664, Note_on_c, 0, 70, 100
2, 5756, Note_off_c, 0, 70, 100
2, 5760, Note_on_c, 0, 69, 100
2, 5948, Note_off_c, 0, 69, 100
2, 5952, Note_on_c, 0, 69, 100
2, 6140, Note_off_c, 0, 69, 100
2, 6144, Note_on_c, 0, 67, 100
2, 6236, Note_off_c, 0, 67, 100
2, 6240, Note_on_c, 0, 69, 100
2, 6332, Note_off_c, 0, 69, 100
2, 6336, Note_on_c, 0, 67, 100
2, 6432, Note_on_c, 0, 65, 100
2, 6524, Note_off_c, 0, 67, 100
2, 6524, Note_off_c, 0, 65, 100
2, 6528, Note_on_c, 0, 72, 100
2, 6716, Note_off_c, 0, 72, 100
2, 6720, Note_on_c, 0, 72, 100
2, 6908, Note_off_c, 0, 72, 100
2, 6912, Note_on_c, 0, 72, 100
2, 7100, Note_off_c, 0, 72, 100
2, 7104, Note_on_c, 0, 67, 100
2, 7292, Note_off_c, 0, 67, 100
2, 7296, Note_on_c, 0, 76, 100
2, 7484, Note_off_c, 0, 76, 100
2, 7488, Note_on_c, 0, 76, 100
2, 7676, Note_off_c, 0, 76, 100
2, 7680, Note_on_c, 0, 76, 100
2, 7868, Note_off_c, 0, 76, 100
2, 7872, Note_on_c, 0, 72, 100
2, 8060, Note_off_c, 0, 72, 100
2, 8064, Note_on_c, 0, 79, 100
2, 8252, Note_off_c, 0, 79, 100
2, 8256, Note_on_c, 0, 79, 100
2, 8444, Note_off_c, 0, 79, 100
2, 8448, Note_on_c, 0, 79, 100
2, 8540, Note_off_c, 0, 79, 100
2, 8544, Note_on_c, 0, 81, 100
2, 8636, Note_off_c, 0, 81, 100
2, 8640, Note_on_c, 0, 79, 100
2, 8732, Note_off_c, 0, 79, 100
2, 8736, Note_on_c, 0, 77, 100
2, 8828, Note_off_c, 0, 77, 100
2, 8832, Note_on_c, 0, 76, 100
2, 9020, Note_off_c, 0, 76, 100
2, 9024, Note_on_c, 0, 76, 100
2, 9212, Note_off_c, 0, 76, 100
2, 9216, Note_on_c, 0, 76, 100
2, 9308, Note_off_c, 0, 76, 100
2, 9312, Note_on_c, 0, 74, 100
2, 9404, Note_off_c, 0, 74, 100
2, 9408, Note_on_c, 0, 76, 100
2, 9500, Note_off_c, 0, 76, 100
2, 9504, Note_on_c, 0, 72, 100
2, 9596, Note_off_c, 0, 72, 100
2, 9600, Note_on_c, 0, 81, 100
2, 9788, Note_off_c, 0, 81, 100
2, 9792, Note_on_c, 0, 81, 100
2, 9980, Note_off_c, 0, 81, 100
2, 9984, Note_on_c, 0, 81, 100
2, 10076, Note_off_c, 0, 81, 100
2, 10080, Note_on_c, 0, 82, 100
2, 10172, Note_off_c, 0, 82, 100
2, 10176, Note_on_c, 0, 81, 100
2, 10268, Note_off_c, 0, 81, 100
2, 10272, Note_on_c, 0, 79, 100
2, 10364, Note_off_c, 0, 79, 100
2, 10368, Note_on_c, 0, 77, 100
2, 10556, Note_off_c, 0, 77, 100
2, 10560, Note_on_c, 0, 77, 100
2, 10748, Note_off_c, 0, 77, 100
2, 10752, Note_on_c, 0, 77, 100
2, 10844, Note_off_c, 0, 77, 100
2, 10848, Note_on_c, 0, 76, 100
2, 10940, Note_off_c, 0, 76, 100
2, 10944, Note_on_c, 0, 77, 100
2, 11036, Note_off_c, 0, 77, 100
2, 11040, Note_on_c, 0, 74, 100
2, 11132, Note_off_c, 0, 74, 100
2, 11136, Note_on_c, 0, 89, 110
2, 11324, Note_off_c, 0, 89, 100
2, 11328, Note_on_c, 0, 89, 100
2, 11516, Note_off_c, 0, 89, 100
2, 11520, Note_on_c, 0, 88, 100
2, 11612, Note_off_c, 0, 88, 100
2, 11616, Note_on_c, 0, 87, 100
2, 11708, Note_off_c, 0, 87, 100
2, 11712, Note_on_c, 0, 88, 100
2, 11804, Note_off_c, 0, 88, 100
2, 11808, Note_on_c, 0, 84, 100
2, 11900, Note_off_c, 0, 84, 100
2, 11904, Note_on_c, 0, 89, 110
2, 12092, Note_off_c, 0, 89, 100
2, 12096, Note_on_c, 0, 89, 100
2, 12284, Note_off_c, 0, 89, 100
2, 12288, Note_on_c, 0, 88, 100
2, 12380, Note_off_c, 0, 88, 100
2, 12384, Note_on_c, 0, 87, 100
2, 12476, Note_off_c, 0, 87, 100
2, 12480, Note_on_c, 0, 88, 100
2, 12572, Note_off_c, 0, 88, 100
2, 12576, Note_on_c, 0, 84, 100
2, 12668, Note_off_c, 0, 84, 100
2, 12672, Note_on_c, 0, 86, 100
2, 12764, Note_off_c, 0, 86, 100
2, 12768, Note_on_c, 0, 84, 100
2, 12860, Note_off_c, 0, 84, 100
2, 12864, Note_on_c, 0, 83, 100
2, 12956, Note_off_c, 0, 83, 100
2, 12960, Note_on_c, 0, 81, 100
2, 13052, Note_off_c, 0, 81, 100
2, 13056, Note_on_c, 0, 79, 100
2, 13148, Note_off_c, 0, 79, 100
2, 13152, Note_on_c, 0, 77, 100
2, 13244, Note_off_c, 0, 77, 100
2, 13248, Note_on_c, 0, 76, 100
2, 13340, Note_off_c, 0, 76, 100
2, 13344, Note_on_c, 0, 74, 100
2, 13436, Note_off_c, 0, 74, 100
2, 13440, Note_on_c, 0, 72, 100
2, 13532, Note_off_c, 0, 72, 100
2, 13536, Note_on_c, 0, 71, 100
2, 13628, Note_off_c, 0, 71, 100
2, 13632, Note_on_c, 0, 72, 100
2, 13724, Note_off_c, 0, 72, 100
2, 13728, Note_on_c, 0, 74, 100
2, 13820, Note_off_c, 0, 74, 100
2, 13824, Note_on_c, 0, 76, 100
2, 13916, Note_off_c, 0, 76, 100
2, 13920, Note_on_c, 0, 77, 100
2, 14012, Note_off_c, 0, 77, 100
2, 14016, Note_on_c, 0, 79, 100
2, 14108, Note_off_c, 0, 79, 100
2, 14112, Note_on_c, 0, 76, 100
2, 14204, Note_off_c, 0, 76, 100
2, 14208, Note_on_c, 0, 77, 110
2, 14300, Note_off_c, 0, 77, 100
2, 14304, Note_on_c, 0, 74, 110
2, 14396, Note_off_c, 0, 74, 100
2, 14400, Note_on_c, 0, 77, 110
2, 14492, Note_off_c, 0, 77, 100
2, 14496, Note_on_c, 0, 74, 110
2, 14588, Note_off_c, 0, 74, 100
2, 14592, Note_on_c, 0, 76, 100
2, 14684, Note_off_c, 0, 76, 100
2, 14688, Note_on_c, 0, 75, 100
2, 14780, Note_off_c, 0, 75, 100
2, 14784, Note_on_c, 0, 76, 100
2, 14876, Note_off_c, 0, 76, 100
2, 14880, Note_on_c, 0, 72, 100
2, 14972, Note_off_c, 0, 72, 100
2, 14976, Note_on_c, 0, 77, 110
2, 15068, Note_off_c, 0, 77, 100
2, 15072, Note_on_c, 0, 74, 110
2, 15164, Note_off_c, 0, 74, 100
2, 15168, Note_on_c, 0, 77, 110
2, 15260, Note_off_c, 0, 77, 100
2, 15264, Note_on_c, 0, 74, 110
2, 15356, Note_off_c, 0, 74, 100
2, 15360, Note_on_c, 0, 76, 100
2, 15452, Note_off_c, 0, 76, 100
2, 15456, Note_on_c, 0, 75, 100
2, 15548, Note_off_c, 0, 75, 100
2, 15552, Note_on_c, 0, 76, 100
2, 15644, Note_off_c, 0, 76, 100
2, 15648, Note_on_c, 0, 72, 100
2, 15740, Note_off_c, 0, 72, 100
2, 15744, Note_on_c, 0, 81, 110
2, 15836, Note_off_c, 0, 81, 100
2, 15840, Note_on_c, 0, 80, 110
2, 15932, Note_off_c, 0, 80, 100
2, 15936, Note_on_c, 0, 81, 110
2, 16028, Note_off_c, 0, 81, 100
2, 16032, Note_on_c, 0, 80, 110
2, 16124, Note_off_c, 0, 80, 100
2, 16128, Note_on_c, 0, 81, 110
2, 16220, Note_off_c, 0, 81, 100
2, 16224, Note_on_c, 0, 79, 110
2, 16316, Note_off_c, 0, 79, 100
2, 16320, Note_on_c, 0, 77, 110
2, 16412, Note_off_c, 0, 77, 100
2, 16416, Note_on_c, 0, 76, 110
2, 16508, Note_off_c, 0, 76, 100
2, 16512, Note_on_c, 0, 74, 110
2, 16604, Note_off_c, 0, 74, 100
2, 16608, Note_on_c, 0, 72, 110
2, 16700, Note_off_c, 0, 72, 100
2, 16704, Note_on_c, 0, 71, 110
2, 16796, Note_off_c, 0, 71, 100
2, 16800, Note_on_c, 0, 69, 110
2, 16892, Note_off_c, 0, 69, 100
2, 16896, Note_on_c, 0, 67, 110
2, 16988, Note_off_c, 0, 67, 100
2, 16992, Note_on_c, 0, 65, 110
2, 17084, Note_off_c, 0, 65, 100
2, 17088, Note_on_c, 0, 64, 110
2, 17180, Note_off_c, 0, 64, 100
2, 17184, Note_on_c, 0, 62, 110
2, 17276, Note_off_c, 0, 62, 100
2, 17280, Note_on_c, 0, 60, 110
2, 17468, Note_off_c, 0, 60, 100
2, 17472, Note_on_c, 0, 55, 80
2, 17472, Note_on_c, 0, 52, 80
2, 17660, Note_off_c, 0, 55, 100
2, 17660, Note_off_c, 0, 52, 100
2, 17664, Note_on_c, 0, 55, 80
2, 17664, Note_on_c, 0, 52, 80
2, 17852, Note_off_c, 0, 55, 100
2, 17852, Note_off_c, 0, 52, 100
2, 17856, Note_on_c, 0, 60, 80
2, 17856, Note_on_c, 0, 52, 80
2, 18044, Note_off_c, 0, 60, 100
2, 18044, Note_off_c, 0, 52, 100
2, 18048, Note_on_c, 0, 55, 80
2, 18048, Note_on_c, 0, 52, 80
2, 18236, Note_off_c, 0, 55, 100
2, 18236, Note_off_c, 0, 52, 100
2, 18240, Note_on_c, 0, 55, 80
2, 18240, Note_on_c, 0, 52, 80
2, 18428, Note_off_c, 0, 55, 100
2, 18428, Note_off_c, 0, 52, 100
2, 18432, Note_on_c, 0, 55, 80
2, 18432, Note_on_c, 0, 52, 80
2, 18620, Note_off_c, 0, 55, 100
2, 18620, Note_off_c, 0, 52, 100
2, 18624, Note_on_c, 0, 60, 80
2, 18624, Note_on_c, 0, 52, 80
2, 18812, Note_off_c, 0, 60, 100
2, 18812, Note_off_c, 0, 52, 100
2, 18816, Note_on_c, 0, 53, 80
2, 18816, Note_on_c, 0, 55, 80
2, 19004, Note_off_c, 0, 53, 100
2, 19004, Note_off_c, 0, 55, 100
2, 19008, Note_on_c, 0, 62, 80
2, 19008, Note_on_c, 0, 53, 80
2, 19196, Note_off_c, 0, 62, 100
2, 19196, Note_off_c, 0, 53, 100
2, 19200, Note_on_c, 0, 62, 80
2, 19200, Note_on_c, 0, 53, 80
2, 19388, Note_off_c, 0, 62, 100
2, 19388, Note_off_c, 0, 53, 100
2, 19392, Note_on_c, 0, 62, 80
2, 19392, Note_on_c, 0, 53, 80
2, 19580, Note_off_c, 0, 62, 100
2, 19580, Note_off_c, 0, 53, 100
2, 19584, Note_on_c, 0, 62, 80
2, 19584, Note_on_c, 0, 53, 80
2, 19772, Note_off_c, 0, 62, 100
2, 19772, Note_off_c, 0, 53, 100
2, 19776, Note_on_c, 0, 62, 80
2, 19776, Note_on_c, 0, 53, 80
2, 19964, Note_off_c, 0, 62, 100
2, 19964, Note_off_c, 0, 53, 100
2, 19968, Note_on_c, 0, 62, 80
2, 19968, Note_on_c, 0, 53, 80
2, 20060, Note_off_c, 0, 62, 100
2, 20060, Note_off_c, 0, 53, 100
2, 20064, Note_on_c, 0, 64, 80
2, 20156, Note_off_c, 0, 64, 100
2, 20160, Note_on_c, 0, 62, 80
2, 20160, Note_on_c, 0, 53, 80
2, 20252, Note_off_c, 0, 62, 100
2, 20252, Note_off_c, 0, 53, 100
2, 20256, Note_on_c, 0, 64, 80
2, 20348, Note_off_c, 0, 64, 100
2, 20352, Note_on_c, 0, 60, 80
2, 20540, Note_off_c, 0, 60, 100
2, 20544, Note_on_c, 0, 55, 80
2, 20544, Note_on_c, 0, 52, 80
2, 20732, Note_off_c, 0, 55, 100
2, 20732, Note_off_c, 0, 52, 100
2, 20736, Note_on_c, 0, 55, 80
2, 20736, Note_on_c, 0, 52, 80
2, 20924, Note_off_c, 0, 55, 100
2, 20924, Note_off_c, 0, 52, 100
2, 20928, Note_on_c, 0, 60, 80
2, 20928, Note_on_c, 0, 52, 80
2, 21116, Note_off_c, 0, 60, 100
2, 21116, Note_off_c, 0, 52, 100
2, 21120, Note_on_c, 0, 52, 80
2, 21120, Note_on_c, 0, 55, 80
2, 21308, Note_off_c, 0, 52, 100
2, 21308, Note_off_c, 0, 55, 100
2, 21312, Note_on_c, 0, 55, 80
2, 21312, Note_on_c, 0, 52, 80
2, 21500, Note_off_c, 0, 55, 100
2, 21500, Note_off_c, 0, 52, 100
2, 21504, Note_on_c, 0, 55, 80
2, 21504, Note_on_c, 0, 52, 80
2, 21692, Note_off_c, 0, 55, 100
2, 21692, Note_off_c, 0, 52, 100
2, 21696, Note_on_c, 0, 60, 80
2, 21696, Note_on_c, 0, 52, 80
2, 21884, Note_off_c, 0, 60, 100
2, 21884, Note_off_c, 0, 52, 100
2, 21888, Note_on_c, 0, 53, 80
2, 21888, Note_on_c, 0, 55, 80
2, 22076, Note_off_c, 0, 53, 100
2, 22076, Note_off_c, 0, 55, 100
2, 22080, Note_on_c, 0, 62, 80
2, 22080, Note_on_c, 0, 53, 80
2, 22268, Note_off_c, 0, 62, 100
2, 22268, Note_off_c, 0, 53, 100
2, 22272, Note_on_c, 0, 62, 80
2, 22272, Note_on_c, 0, 53, 80
2, 22460, Note_off_c, 0, 62, 100
2, 22460, Note_off_c, 0, 53, 100
2, 22464, Note_on_c, 0, 62, 80
2, 22464, Note_on_c, 0, 53, 80
2, 22652, Note_off_c, 0, 62, 100
2, 22652, Note_off_c, 0, 53, 100
2, 22656, Note_on_c, 0, 62, 80
2, 22656, Note_on_c, 0, 53, 80
2, 22844, Note_off_c, 0, 62, 100
2, 22844, Note_off_c, 0, 53, 100
2, 22848, Note_on_c, 0, 62, 80
2, 22848, Note_on_c, 0, 53, 80
2, 23036, Note_off_c, 0, 62, 100
2, 23036, Note_off_c, 0, 53, 100
2, 23040, Note_on_c, 0, 62, 80
2, 23040, Note_on_c, 0, 53, 80
2, 23132, Note_off_c, 0, 62, 100
2, 23132, Note_off_c, 0, 53, 100
2, 23136, Note_on_c, 0, 64, 80
2, 23228, Note_off_c, 0, 64, 100
2, 23232, Note_on_c, 0, 62, 80
2, 23232, Note_on_c, 0, 53, 80
2, 23324, Note_off_c, 0, 62, 100
2, 23324, Note_off_c, 0, 53, 100
2, 23328, Note_on_c, 0, 64, 80
2, 23420, Note_off_c, 0, 64, 100
2, 23424, Note_on_c, 0, 60, 80
2, 23424, Note_on_c, 0, 52, 80
2, 23612, Note_off_c, 0, 60, 100
2, 23612, Note_off_c, 0, 52, 100
2, 23616, Note_on_c, 0, 55, 80
2, 23804, Note_off_c, 0, 55, 100
2, 23808, Note_on_c, 0, 60, 80
2, 23808, Note_on_c, 0, 52, 80
2, 23996, Note_off_c, 0, 60, 100
2, 23996, Note_off_c, 0, 52, 100
2, 24000, Note_on_c, 0, 55, 80
2, 24188, Note_off_c, 0, 55, 100
2, 24192, Note_on_c, 0, 60, 80
2, 24192, Note_on_c, 0, 52, 80
2, 24572, Note_off_c, 0, 60, 100
2, 24572, Note_off_c, 0, 52, 100
2, 27840, Note_on_c, 0, 60, 100
2, 28028, Note_off_c, 0, 60, 100
2, 28032, Note_on_c, 0, 65, 100
2, 28220, Note_off_c, 0, 65, 100
2, 28224, Note_on_c, 0, 65, 100
2, 28412, Note_off_c, 0, 65, 100
2, 28416, Note_on_c, 0, 65, 100
2, 28604, Note_off_c, 0, 65, 100
2, 28608, Note_on_c, 0, 60, 100
2, 28796, Note_off_c, 0, 60, 100
2, 28800, Note_on_c, 0, 69, 100
2, 28988, Note_off_c, 0, 69, 100
2, 28992, Note_on_c, 0, 69, 100
2, 29180, Note_off_c, 0, 69, 100
2, 29184, Note_on_c, 0, 69, 100
2, 29372, Note_off_c, 0, 69, 100
2, 29376, Note_on_c, 0, 65, 100
2, 29564, Note_off_c, 0, 65, 100
2, 29568, Note_on_c, 0, 72, 100
2, 29756, Note_off_c, 0, 72, 100
2, 29760, Note_on_c, 0, 72, 100
2, 29948, Note_off_c, 0, 72, 100
2, 29952, Note_on_c, 0, 72, 100
2, 30044, Note_off_c, 0, 72, 100
2, 30048, Note_on_c, 0, 74, 100
2, 30140, Note_off_c, 0, 74, 100
2, 30144, Note_on_c, 0, 72, 100
2, 30236, Note_off_c, 0, 72, 100
2, 30240, Note_on_c, 0, 70, 100
2, 30332, Note_off_c, 0, 70, 100
2, 30336, Note_on_c, 0, 69, 100
2, 30524, Note_off_c, 0, 69, 100
2, 30528, Note_on_c, 0, 69, 100
2, 30716, Note_off_c, 0, 69, 100
2, 30720, Note_on_c, 0, 67, 100
2, 30812, Note_off_c, 0, 67, 100
2, 30816, Note_on_c, 0, 69, 100
2, 30908, Note_off_c, 0, 69, 100
2, 30912, Note_on_c, 0, 67, 100
2, 31008, Note_on_c, 0, 65, 100
2, 31100, Note_off_c, 0, 67, 100
2, 31100, Note_off_c, 0, 65, 100
2, 31104, Note_on_c, 0, 72, 100
2, 31292, Note_off_c, 0, 72, 100
2, 31296, Note_on_c, 0, 72, 100
2, 31484, Note_off_c, 0, 72, 100
2, 31488, Note_on_c, 0, 72, 100
2, 31676, Note_off_c, 0, 72, 100
2, 31680, Note_on_c, 0, 67, 100
2, 31868, Note_off_c, 0, 67, 100
2, 31872, Note_on_c, 0, 76, 100
2, 32060, Note_off_c, 0, 76, 100
2, 32064, Note_on_c, 0, 76, 100
2, 32252, Note_off_c, 0, 76, 100
2, 32256, Note_on_c, 0, 76, 100
2, 32444, Note_off_c, 0, 76, 100
2, 32448, Note_on_c, 0, 72, 100
2, 32636, Note_off_c, 0, 72, 100
2, 32640, Note_on_c, 0, 79, 100
2, 32828, Note_off_c, 0, 79, 100
2, 32832, Note_on_c, 0, 79, 100
2, 33020, Note_off_c, 0, 79, 100
2, 33024, Note_on_c, 0, 79, 100
2, 33116, Note_off_c, 0, 79, 100
2, 33120, Note_on_c, 0, 81, 100
2, 33212, Note_off_c, 0, 81, 100
2, 33216, Note_on_c, 0, 79, 100
2, 33308, Note_off_c, 0, 79, 100
2, 33312, Note_on_c, 0, 77, 100
2, 33404, Note_off_c, 0, 77, 100
2, 33408, Note_on_c, 0, 76, 100
2, 33596, Note_off_c, 0, 76, 100
2, 33600, Note_on_c, 0, 76, 100
2, 33788, Note_off_c, 0, 76, 100
2, 33792, Note_on_c, 0, 76, 100
2, 33884, Note_off_c, 0, 76, 100
2, 33888, Note_on_c, 0, 74, 100
2, 33980, Note_off_c, 0, 74, 100
2, 33984, Note_on_c, 0, 76, 100
2, 34076, Note_off_c, 0, 76, 100
2, 34080, Note_on_c, 0, 72, 100
2, 34172, Note_off_c, 0, 72, 100
2, 34176, Note_on_c, 0, 81, 100
2, 34364, Note_off_c, 0, 81, 100
2, 34368, Note_on_c, 0, 81, 100
2, 34556, Note_off_c, 0, 81, 100
2, 34560, Note_on_c, 0, 81, 100
2, 34652, Note_off_c, 0, 81, 100
2, 34656, Note_on_c, 0, 82, 100
2, 34748, Note_off_c, 0, 82, 100
2, 34752, Note_on_c, 0, 81, 100
2, 34844, Note_off_c, 0, 81, 100
2, 34848, Note_on_c, 0, 79, 100
2, 34940, Note_off_c, 0, 79, 100
2, 34944, Note_on_c, 0, 77, 100
2, 35132, Note_off_c, 0, 77, 100
2, 35136, Note_on_c, 0, 77, 100
2, 35324, Note_off_c, 0, 77, 100
2, 35328, Note_on_c, 0, 77, 100
2, 35420, Note_off_c, 0, 77, 100
2, 35424, Note_on_c, 0, 76, 100
2, 35516, Note_off_c, 0, 76, 100
2, 35520, Note_on_c, 0, 77, 100
2, 35612, Note_off_c, 0, 77, 100
2, 35616, Note_on_c, 0, 74, 100
2, 35708, Note_off_c, 0, 74, 100
2, 35712, Note_on_c, 0, 89, 110
2, 35900, Note_off_c, 0, 89, 100
2, 35904, Note_on_c, 0, 89, 100
2, 36092, Note_off_c, 0, 89, 100
2, 36096, Note_on_c, 0, 88, 100
2, 36188, Note_off_c, 0, 88, 100
2, 36192, Note_on_c, 0, 87, 100
2, 36284, Note_off_c, 0, 87, 100
2, 36288, Note_on_c, 0, 88, 100
2, 36380, Note_off_c, 0, 88, 100
2, 36384, Note_on_c, 0, 84, 100
2, 36476, Note_off_c, 0, 84, 100
2, 36480, Note_on_c, 0, 89, 110
2, 36668, Note_off_c, 0, 89, 100
2, 36672, Note_on_c, 0, 89, 100
2, 36860, Note_off_c, 0, 89, 100
2, 36864, Note_on_c, 0, 88, 100
2, 36956, Note_off_c, 0, 88, 100
2, 36960, Note_on_c, 0, 87, 100
2, 37052, Note_off_c, 0, 87, 100
2, 37056, Note_on_c, 0, 88, 100
2, 37148, Note_off_c, 0, 88, 100
2, 37152, Note_on_c, 0, 84, 100
2, 37244, Note_off_c, 0, 84, 100
2, 37248, Note_on_c, 0, 86, 100
2, 37340, Note_off_c, 0, 86, 100
2, 37344, Note_on_c, 0, 84, 100
2, 37436, Note_off_c, 0, 84, 100
2, 37440, Note_on_c, 0, 83, 100
2, 37532, Note_off_c, 0, 83, 100
2, 37536, Note_on_c, 0, 81, 100
2, 37628, Note_off_c, 0, 81, 100
2, 37632, Note_on_c, 0, 79, 100
2, 37724, Note_off_c, 0, 79, 100
2, 37728, Note_on_c, 0, 77, 100
2, 37820, Note_off_c, 0, 77, 100
2, 37824, Note_on_c, 0, 76, 100
2, 37916, Note_off_c, 0, 76, 100
2, 37920, Note_on_c, 0, 74, 100
2, 38012, Note_off_c, 0, 74, 100
2, 38016, Note_on_c, 0, 72, 100
2, 38108, Note_off_c, 0, 72, 100
2, 38112, Note_on_c, 0, 71, 100
2, 38204, Note_off_c, 0, 71, 100
2, 38208, Note_on_c, 0, 72, 100
2, 38300, Note_off_c, 0, 72, 100
2, 38304, Note_on_c, 0, 74, 100
2, 38396, Note_off_c, 0, 74, 100
2, 38400, Note_on_c, 0, 76, 100
2, 38492, Note_off_c, 0, 76, 100
2, 38496, Note_on_c, 0, 77, 100
2, 38588, Note_off_c, 0, 77, 100
2, 38592, Note_on_c, 0, 79, 100
2, 38684, Note_off_c, 0, 79, 100
2, 38688, Note_on_c, 0, 76, 100
2, 38780, Note_off_c, 0, 76, 100
2, 38784, Note_on_c, 0, 77, 110
2, 38876, Note_off_c, 0, 77, 100
2, 38880, Note_on_c, 0, 74, 110
2, 38972, Note_off_c, 0, 74, 100
2, 38976, Note_on_c, 0, 77, 110
2, 39068, Note_off_c, 0, 77, 100
2, 39072, Note_on_c, 0, 74, 110
2, 39164, Note_off_c, 0, 74, 100
2, 39168, Note_on_c, 0, 76, 100
2, 39260, Note_off_c, 0, 76, 100
2, 39264, Note_on_c, 0, 75, 100
2, 39356, Note_off_c, 0, 75, 100
2, 39360, Note_on_c, 0, 76, 100
2, 39452, Note_off_c, 0, 76, 100
2, 39456, Note_on_c, 0, 72, 100
2, 39548, Note_off_c, 0, 72, 100
2, 39552, Note_on_c, 0, 77, 110
2, 39644, Note_off_c, 0, 77, 100
2, 39648, Note_on_c, 0, 74, 110
2, 39740, Note_off_c, 0, 74, 100
2, 39744, Note_on_c, 0, 77, 110
2, 39836, Note_off_c, 0, 77, 100
2, 39840, Note_on_c, 0, 74, 110
2, 39932, Note_off_c, 0, 74, 100
2, 39936, Note_on_c, 0, 76, 100
2, 40028, Note_off_c, 0, 76, 100
2, 40032, Note_on_c, 0, 75, 100
2, 40124, Note_off_c, 0, 75, 100
2, 40128, Note_on_c, 0, 76, 100
2, 40220, Note_off_c, 0, 76, 100
2, 40224, Note_on_c, 0, 72, 100
2, 40316, Note_off_c, 0, 72, 100
2, 40320, Note_on_c, 0, 81, 110
2, 40412, Note_off_c, 0, 81, 100
2, 40416, Note_on_c, 0, 80, 110
2, 40508, Note_off_c, 0, 80, 100
2, 40512, Note_on_c, 0, 81, 110
2, 40604, Note_off_c, 0, 81, 100
2, 40608, Note_on_c, 0, 80, 110
2, 40700, Note_off_c, 0, 80, 100
2, 40704, Note_on_c, 0, 81, 110
2, 40796, Note_off_c, 0, 81, 100
2, 40800, Note_on_c, 0, 79, 110
2, 40892, Note_off_c, 0, 79, 100
2, 40896, Note_on_c, 0, 77, 110
2, 40988, Note_off_c, 0, 77, 100
2, 40992, Note_on_c, 0, 76, 110
2, 41084, Note_off_c, 0, 76, 100
2, 41088, Note_on_c, 0, 74, 110
2, 41180, Note_off_c, 0, 74, 100
2, 41184, Note_on_c, 0, 72, 110
2, 41276, Note_off_c, 0, 72, 100
2, 41280, Note_on_c, 0, 71, 110
2, 41372, Note_off_c, 0, 71, 100
2, 41376, Note_on_c, 0, 69, 110
2, 41468, Note_off_c, 0, 69, 100
2, 41472, Note_on_c, 0, 67, 110
2, 41564, Note_off_c, 0, 67, 100
2, 41568, Note_on_c, 0, 65, 110
2, 41660, Note_off_c, 0, 65, 100
2, 41664, Note_on_c, 0, 64, 110
2, 41756, Note_off_c, 0, 64, 100
2, 41760, Note_on_c, 0, 62, 110
2, 41852, Note_off_c, 0, 62, 100
2, 41856, Note_on_c, 0, 60, 110
2, 42044, Note_off_c, 0, 60, 100
2, 42048, Note_on_c, 0, 55, 80
2, 42048, Note_on_c, 0, 52, 80
2, 42236, Note_off_c, 0, 55, 100
2, 42236, Note_off_c, 0, 52, 100
2, 42240, Note_on_c, 0, 55, 80
2, 42240, Note_on_c, 0, 52, 80
2, 42428, Note_off_c, 0, 55, 100
2, 42428, Note_off_c, 0, 52, 100
2, 42432, Note_on_c, 0, 60, 80
2, 42432, Note_on_c, 0, 52, 80
2, 42620, Note_off_c, 0, 60, 100
2, 42620, Note_off_c, 0, 52, 100
2, 42624, Note_on_c, 0, 55, 80
2, 42624, Note_on_c, 0, 52, 80
2, 42812, Note_off_c, 0, 55, 100
2, 42812, Note_off_c, 0, 52, 100
2, 42816, Note_on_c, 0, 55, 80
2, 42816, Note_on_c, 0, 52, 80
2, 43004, Note_off_c, 0, 55, 100
2, 43004, Note_off_c, 0, 52, 100
2, 43008, Note_on_c, 0, 55, 80
2, 43008, Note_on_c, 0, 52, 80
2, 43196, Note_off_c, 0, 55, 100
2, 43196, Note_off_c, 0, 52, 100
2, 43200, Note_on_c, 0, 60, 80
2, 43200, Note_on_c, 0, 52, 80
2, 43388, Note_off_c, 0, 60, 100
2, 43388, Note_off_c, 0, 52, 100
2, 43392, Note_on_c, 0, 53, 80
2, 43392, Note_on_c, 0, 55, 80
2, 43580, Note_off_c, 0, 53, 100
2, 43580, Note_off_c, 0, 55, 100
2, 43584, Note_on_c, 0, 62, 80
2, 43584, Note_on_c, 0, 53, 80
2, 43772, Note_off_c, 0, 62, 100
2, 43772, Note_off_c, 0, 53, 100
2, 43776, Note_on_c, 0, 62, 80
2, 43776, Note_on_c, 0, 53, 80
2, 43964, Note_off_c, 0, 62, 100
2, 43964, Note_off_c, 0, 53, 100
2, 43968, Note_on_c, 0, 62, 80
2, 43968, Note_on_c, 0, 53, 80
2, 44156, Note_off_c, 0, 62, 100
2, 44156, Note_off_c, 0, 53, 100
2, 44160, Note_on_c, 0, 62, 80
2, 44160, Note_on_c, 0, 53, 80
2, 44348, Note_off_c, 0, 62, 100
2, 44348, Note_off_c, 0, 53, 100
2, 44352, Note_on_c, 0, 62, 80
2, 44352, Note_on_c, 0, 53, 80
2, 44540, Note_off_c, 0, 62, 100
2, 44540, Note_off_c, 0, 53, 100
2, 44544, Note_on_c, 0, 62, 80
2, 44544, Note_on_c, 0, 53, 80
2, 44636, Note_off_c, 0, 62, 100
2, 44636, Note_off_c, 0, 53, 100
2, 44640, Note_on_c, 0, 64, 80
2, 44732, Note_off_c, 0, 64, 100
2, 44736, Note_on_c, 0, 62, 80
2, 44736, Note_on_c, 0, 53, 80
2, 44828, Note_off_c, 0, 62, 100
2, 44828, Note_off_c, 0, 53, 100
2, 44832, Note_on_c, 0, 64, 80
2, 44924, Note_off_c, 0, 64, 100
2, 44928, Note_on_c, 0, 60, 80
2, 45116, Note_off_c, 0, 60, 100
2, 45120, Note_on_c, 0, 55, 80
2, 45120, Note_on_c, 0, 52, 80
2, 45308, Note_off_c, 0, 55, 100
2, 45308, Note_off_c, 0, 52, 100
2, 45312, Note_on_c, 0, 55, 80
2, 45312, Note_on_c, 0, 52, 80
2, 45500, Note_off_c, 0, 55, 100
2, 45500, Note_off_c, 0, 52, 100
2, 45504, Note_on_c, 0, 60, 80
2, 45504, Note_on_c, 0, 52, 80
2, 45692, Note_off_c, 0, 60, 100
2, 45692, Note_off_c, 0, 52, 100
2, 45696, Note_on_c, 0, 52, 80
2, 45696, Note_on_c, 0, 55, 80
2, 45884, Note_off_c, 0, 52, 100
2, 45884, Note_off_c, 0, 55, 100
2, 45888, Note_on_c, 0, 55, 80
2, 45888, Note_on_c, 0, 52, 80
2, 46076, Note_off_c, 0, 55, 100
2, 46076, Note_off_c, 0, 52, 100
2, 46080, Note_on_c, 0, 55, 80
2, 46080, Note_on_c, 0, 52, 80
2, 46268, Note_off_c, 0, 55, 100
2, 46268, Note_off_c, 0, 52, 100
2, 46272, Note_on_c, 0, 60, 80
2, 46272, Note_on_c, 0, 52, 80
2, 46460, Note_off_c, 0, 60, 100
2, 46460, Note_off_c, 0, 52, 100
2, 46464, Note_on_c, 0, 53, 80
2, 46464, Note_on_c, 0, 55, 80
2, 46652, Note_off_c, 0, 53, 100
2, 46652, Note_off_c, 0, 55, 100
2, 46656, Note_on_c, 0, 62, 80
2, 46656, Note_on_c, 0, 53, 80
2, 46844, Note_off_c, 0, 62, 100
2, 46844, Note_off_c, 0, 53, 100
2, 46848, Note_on_c, 0, 62, 80
2, 46848, Note_on_c, 0, 53, 80
2, 47036, Note_off_c, 0, 62, 100
2, 47036, Note_off_c, 0, 53, 100
2, 47040, Note_on_c, 0, 62, 80
2, 47040, Note_on_c, 0, 53, 80
2, 47228, Note_off_c, 0, 62, 100
2, 47228, Note_off_c, 0, 53, 100
2, 47232, Note_on_c, 0, 62, 80
2, 47232, Note_on_c, 0, 53, 80
2, 47420, Note_off_c, 0, 62, 100
2, 47420, Note_off_c, 0, 53, 100
2, 47424, Note_on_c, 0, 62, 80
2, 47424, Note_on_c, 0, 53, 80
2, 47612, Note_off_c, 0, 62, 100
2, 47612, Note_off_c, 0, 53, 100
2, 47616, Note_on_c, 0, 62, 80
2, 47616, Note_on_c, 0, 53, 80
2, 47708, Note_off_c, 0, 62, 100
2, 47708, Note_off_c, 0, 53, 100
2, 47712, Note_on_c, 0, 64, 80
2, 47804, Note_off_c, 0, 64, 100
2, 47808, Note_on_c, 0, 62, 80
2, 47808, Note_on_c, 0, 53, 80
2, 47900, Note_off_c, 0, 62, 100
2, 47900, Note_off_c, 0, 53, 100
2, 47904, Note_on_c, 0, 64, 80
2, 47996, Note_off_c, 0, 64, 100
2, 48000, Note_on_c, 0, 60, 80
2, 48000, Note_on_c, 0, 52, 80
2, 48188, Note_off_c, 0, 60, 100
2, 48188, Note_off_c, 0, 52, 100
2, 48192, Note_on_c, 0, 55, 80
2, 48380, Note_off_c, 0, 55, 100
2, 48384, Note_on_c, 0, 60, 80
2, 48384, Note_on_c, 0, 52, 80
2, 48572, Note_off_c, 0, 60, 100
2, 48572, Note_off_c, 0, 52, 100
2, 48576, Note_on_c, 0, 55, 80
2, 48764, Note_off_c, 0, 55, 100
2, 48768, Note_on_c, 0, 60, 80
2, 48768, Note_on_c, 0, 52, 80
2, 49148, Note_off_c, 0, 60, 100
2, 49148, Note_off_c, 0, 52, 100
2, 49344, Note_on_c, 0, 51, 110
2, 49532, Note_off_c, 0, 51, 100
2, 49536, Note_on_c, 0, 56, 110
2, 49724, Note_off_c, 0, 56, 100
2, 49728, Note_on_c, 0, 56, 110
2, 49916, Note_off_c, 0, 56, 100
2, 49920, Note_on_c, 0, 58, 110
2, 49964, Note_off_c, 0, 58, 100
2, 49968, Note_on_c, 0, 56, 110
2, 50012, Note_off_c, 0, 56, 100
2, 50016, Note_on_c, 0, 55, 110
2, 50108, Note_off_c, 0, 55, 100
2, 50112, Note_on_c, 0, 56, 110
2, 50204, Note_off_c, 0, 56, 100
2, 50208, Note_on_c, 0, 58, 110
2, 50300, Note_off_c, 0, 58, 100
2, 50304, Note_on_c, 0, 60, 110
2, 50492, Note_off_c, 0, 60, 100
2, 50496, Note_on_c, 0, 60, 110
2, 50684, Note_off_c, 0, 60, 100
2, 50688, Note_on_c, 0, 61, 110
2, 50732, Note_off_c, 0, 61, 100
2, 50736, Note_on_c, 0, 60, 110
2, 50780, Note_off_c, 0, 60, 100
2, 50784, Note_on_c, 0, 59, 110
2, 50876, Note_off_c, 0, 59, 100
2, 50880, Note_on_c, 0, 60, 110
2, 50972, Note_off_c, 0, 60, 100
2, 50976, Note_on_c, 0, 61, 110
2, 51068, Note_off_c, 0, 61, 100
2, 51072, Note_on_c, 0, 63, 110
2, 51260, Note_off_c, 0, 63, 100
2, 51264, Note_on_c, 0, 63, 110
2, 51452, Note_off_c, 0, 63, 100
2, 51456, Note_on_c, 0, 65, 110
2, 51500, Note_off_c, 0, 65, 100
2, 51504, Note_on_c, 0, 63, 110
2, 51548, Note_off_c, 0, 63, 100
2, 51552, Note_on_c, 0, 62, 110
2, 51644, Note_off_c, 0, 62, 100
2, 51648, Note_on_c, 0, 63, 110
2, 51740, Note_off_c, 0, 63, 100
2, 51744, Note_on_c, 0, 65, 110
2, 51836, Note_off_c, 0, 65, 100
2, 51840, Note_on_c, 0, 67, 110
2, 52028, Note_off_c, 0, 67, 100
2, 52032, Note_on_c, 0, 67, 110
2, 52220, Note_off_c, 0, 67, 100
2, 52224, Note_on_c, 0, 67, 110
2, 52316, Note_off_c, 0, 67, 100
2, 52320, Note_on_c, 0, 63, 110
2, 52412, Note_off_c, 0, 63, 100
2, 52416, Note_on_c, 0, 65, 110
2, 52508, Note_off_c, 0, 65, 100
2, 52512, Note_on_c, 0, 67, 110
2, 52604, Note_off_c, 0, 67, 100
2, 52608, Note_on_c, 0, 68, 110
2, 52796, Note_off_c, 0, 68, 100
2, 52800, Note_on_c, 0, 68, 100
2, 52988, Note_off_c, 0, 68, 100
2, 52992, Note_on_c, 0, 68, 100
2, 53180, Note_off_c, 0, 68, 100
2, 53184, Note_on_c, 0, 63, 100
2, 53372, Note_off_c, 0, 63, 100
2, 53376, Note_on_c, 0, 72, 100
2, 53564, Note_off_c, 0, 72, 100
2, 53568, Note_on_c, 0, 72, 100
2, 53756, Note_off_c, 0, 72, 100
2, 53760, Note_on_c, 0, 72, 100
2, 53948, Note_off_c, 0, 72, 100
2, 53952, Note_on_c, 0, 68, 100
2, 54140, Note_off_c, 0, 68, 100
2, 54144, Note_on_c, 0, 75, 100
2, 54332, Note_off_c, 0, 75, 100
2, 54336, Note_on_c, 0, 75, 100
2, 54524, Note_off_c, 0, 75, 100
2, 54528, Note_on_c, 0, 75, 100
2, 54620, Note_off_c, 0, 75, 100
2, 54624, Note_on_c, 0, 77, 100
2, 54716, Note_off_c, 0, 77, 100
2, 54720, Note_on_c, 0, 75, 100
2, 54812, Note_off_c, 0, 75, 100
2, 54816, Note_on_c, 0, 74, 100
2, 54908, Note_off_c, 0, 74, 100
2, 54912, Note_on_c, 0, 75, 100
2, 55100, Note_off_c, 0, 75, 100
2, 55104, Note_on_c, 0, 75, 100
2, 55292, Note_off_c, 0, 75, 100
2, 55296, Note_on_c, 0, 75, 100
2, 55388, Note_off_c, 0, 75, 100
2, 55392, Note_on_c, 0, 77, 100
2, 55484, Note_off_c, 0, 77, 100
2, 55488, Note_on_c, 0, 75, 100
2, 55580, Note_off_c, 0, 75, 100
2, 55584, Note_on_c, 0, 73, 100
2, 55676, Note_off_c, 0, 73, 100
2, 55680, Note_on_c, 0, 80, 100
2, 55680, Note_on_c, 0, 72, 100
2, 55868, Note_off_c, 0, 80, 100
2, 55868, Note_off_c, 0, 72, 100
2, 55872, Note_on_c, 0, 80, 100
2, 56060, Note_off_c, 0, 80, 100
2, 56064, Note_on_c, 0, 80, 100
2, 56252, Note_off_c, 0, 80, 100
2, 56256, Note_on_c, 0, 75, 100
2, 56444, Note_off_c, 0, 75, 100
2, 56448, Note_on_c, 0, 84, 100
2, 56636, Note_off_c, 0, 84, 100
2, 56640, Note_on_c, 0, 84, 100
2, 56828, Note_off_c, 0, 84, 100
2, 56832, Note_on_c, 0, 84, 100
2, 57020, Note_off_c, 0, 84, 100
2, 57024, Note_on_c, 0, 80, 100
2, 57212, Note_off_c, 0, 80, 100
2, 57216, Note_on_c, 0, 87, 100
2, 57404, Note_off_c, 0, 87, 100
2, 57408, Note_on_c, 0, 87, 100
2, 57596, Note_off_c, 0, 87, 100
2, 57600, Note_on_c, 0, 87, 100
2, 57692, Note_off_c, 0, 87, 100
2, 57696, Note_on_c, 0, 89, 100
2, 57788, Note_off_c, 0, 89, 100
2, 57792, Note_on_c, 0, 87, 100
2, 57884, Note_off_c, 0, 87, 100
2, 57888, Note_on_c, 0, 85, 100
2, 57980, Note_off_c, 0, 85, 100
2, 57984, Note_on_c, 0, 84, 100
2, 58172, Note_off_c, 0, 84, 100
2, 58176, Note_on_c, 0, 84, 100
2, 58364, Note_off_c, 0, 84, 100
2, 58368, Note_on_c, 0, 84, 100
2, 58460, Note_off_c, 0, 84, 100
2, 58464, Note_on_c, 0, 85, 100
2, 58556, Note_off_c, 0, 85, 100
2, 58560, Note_on_c, 0, 84, 100
2, 58652, Note_off_c, 0, 84, 100
2, 58656, Note_on_c, 0, 82, 100
2, 58748, Note_off_c, 0, 82, 100
2, 58752, Note_on_c, 0, 81, 110
2, 58752, Note_on_c, 0, 75, 110
2, 58940, Note_off_c, 0, 81, 100
2, 58940, Note_off_c, 0, 75, 100
2, 58944, Note_on_c, 0, 81, 110
2, 58944, Note_on_c, 0, 75, 110
2, 59132, Note_off_c, 0, 81, 100
2, 59132, Note_off_c, 0, 75, 100
2, 59136, Note_on_c, 0, 81, 110
2, 59136, Note_on_c, 0, 75, 110
2, 59228, Note_off_c, 0, 75, 100
2, 59232, Note_on_c, 0, 77, 110
2, 59324, Note_off_c, 0, 81, 100
2, 59324, Note_off_c, 0, 77, 100
2, 59328, Note_on_c, 0, 82, 110
2, 59328, Note_on_c, 0, 75, 110
2, 59420, Note_off_c, 0, 75, 100
2, 59424, Note_on_c, 0, 73, 110
2, 59516, Note_off_c, 0, 82, 100
2, 59516, Note_off_c, 0, 73, 100
2, 59520, Note_on_c, 0, 84, 110
2, 59520, Note_on_c, 0, 72, 110
2, 59900, Note_off_c, 0, 84, 100
2, 59900, Note_off_c, 0, 72, 100
2, 60288, Note_on_c, 0, 85, 110
2, 60476, Note_off_c, 0, 85, 100
2, 60480, Note_on_c, 0, 85, 110
2, 60668, Note_off_c, 0, 85, 100
2, 60672, Note_on_c, 0, 85, 110
2, 60764, Note_off_c, 0, 85, 100
2, 60768, Note_on_c, 0, 87, 110
2, 60860, Note_off_c, 0, 87, 100
2, 60864, Note_on_c, 0, 85, 110
2, 60956, Note_off_c, 0, 85, 100
2, 60960, Note_on_c, 0, 84, 110
2, 61052, Note_off_c, 0, 84, 100
2, 61056, Note_on_c, 0, 82, 110
2, 61244, Note_off_c, 0, 82, 100
2, 61248, Note_on_c, 0, 82, 110
2, 61436, Note_off_c, 0, 82, 100
2, 61440, Note_on_c, 0, 82, 110
2, 61532, Note_off_c, 0, 82, 100
2, 61536, Note_on_c, 0, 84, 110
2, 61628, Note_off_c, 0, 84, 100
2, 61632, Note_on_c, 0, 82, 110
2, 61724, Note_off_c, 0, 82, 100
2, 61728, Note_on_c, 0, 80, 110
2, 61820, Note_off_c, 0, 80, 100
2, 61824, Note_on_c, 0, 79, 110
2, 61824, Note_on_c, 0, 76, 110
2, 62012, Note_off_c, 0, 79, 100
2, 62012, Note_off_c, 0, 76, 100
2, 62016, Note_on_c, 0, 79, 110
2, 62016, Note_on_c, 0, 76, 110
2, 62204, Note_off_c, 0, 79, 100
2, 62204, Note_off_c, 0, 76, 100
2, 62208, Note_on_c, 0, 76, 110
2, 62208, Note_on_c, 0, 79, 110
2, 62396, Note_off_c, 0, 76, 100
2, 62396, Note_off_c, 0, 79, 100
2, 62400, Note_on_c, 0, 77, 110
2, 62400, Note_on_c, 0, 80, 110
2, 62588, Note_off_c, 0, 77, 100
2, 62588, Note_off_c, 0, 80, 100
2, 62592, Note_on_c, 0, 79, 110
2, 62592, Note_on_c, 0, 82, 110
2, 63356, Note_off_c, 0, 79, 100
2, 63356, Note_off_c, 0, 82, 100
2, 63360, Note_on_c, 0, 80, 110
2, 63548, Note_off_c, 0, 80, 100
2, 63552, Note_on_c, 0, 80, 110
2, 63740, Note_off_c, 0, 80, 100
2, 63744, Note_on_c, 0, 80, 110
2, 63836, Note_off_c, 0, 80, 100
2, 63840, Note_on_c, 0, 79, 110
2, 63932, Note_off_c, 0, 79, 100
2, 63936, Note_on_c, 0, 80, 110
2, 64028, Note_off_c, 0, 80, 100
2, 64032, Note_on_c, 0, 77, 110
2, 64124, Note_off_c, 0, 77, 100
2, 64128, Note_on_c, 0, 77, 110
2, 64128, Note_on_c, 0, 83, 110
2, 64316, Note_off_c, 0, 77, 100
2, 64320, Note_on_c, 0, 77, 110
2, 64508, Note_off_c, 0, 77, 100
2, 64512, Note_on_c, 0, 77, 110
2, 64604, Note_off_c, 0, 77, 100
2, 64608, Note_on_c, 0, 75, 110
2, 64700, Note_off_c, 0, 75, 100
2, 64704, Note_on_c, 0, 77, 110
2, 64796, Note_off_c, 0, 77, 100
2, 64800, Note_on_c, 0, 74, 110
2, 64892, Note_off_c, 0, 83, 100
2, 64892, Note_off_c, 0, 74, 100
2, 64896, Note_on_c, 0, 75, 110
2, 64896, Note_on_c, 0, 84, 110
2, 65084, Note_off_c, 0, 84, 100
2, 65088, Note_on_c, 0, 84, 110
2, 65276, Note_off_c, 0, 75, 100
2, 65276, Note_off_c, 0, 84, 100
2, 65280, Note_on_c, 0, 84, 110
2, 65372, Note_off_c, 0, 84, 100
2, 65376, Note_on_c, 0, 83, 110
2, 65468, Note_off_c, 0, 83, 100
2, 65472, Note_on_c, 0, 84, 110
2, 65564, Note_off_c, 0, 84, 100
2, 65568, Note_on_c, 0, 87, 110
2, 65660, Note_off_c, 0, 87, 100
2, 65664, Note_on_c, 0, 78, 110
2, 65664, Note_on_c, 0, 72, 110
2, 65852, Note_off_c, 0, 72, 100
2, 65856, Note_on_c, 0, 72, 110
2, 66044, Note_off_c, 0, 72, 100
2, 66048, Note_on_c, 0, 72, 110
2, 66140, Note_off_c, 0, 72, 100
2, 66144, Note_on_c, 0, 71, 110
2, 66236, Note_off_c, 0, 71, 100
2, 66240, Note_on_c, 0, 72, 110
2, 66332, Note_off_c, 0, 72, 100
2, 66336, Note_on_c, 0, 69, 110
2, 66428, Note_off_c, 0, 78, 100
2, 66428, Note_off_c, 0, 69, 100
2, 66432, Note_on_c, 0, 79, 110
2, 66432, Note_on_c, 0, 70, 110
2, 66620, Note_off_c, 0, 70, 100
2, 66624, Note_on_c, 0, 70, 110
2, 66812, Note_off_c, 0, 79, 100
2, 66812, Note_off_c, 0, 70, 100
2, 66816, Note_on_c, 0, 70, 110
2, 66908, Note_off_c, 0, 70, 100
2, 66912, Note_on_c, 0, 69, 110
2, 67004, Note_off_c, 0, 69, 100
2, 67008, Note_on_c, 0, 70, 110
2, 67100, Note_off_c, 0, 70, 100
2, 67104, Note_on_c, 0, 67, 110
2, 67196, Note_off_c, 0, 67, 100
2, 67200, Note_on_c, 0, 72, 110
2, 67200, Note_on_c, 0, 78, 110
2, 67388, Note_off_c, 0, 78, 100
2, 67392, Note_on_c, 0, 78, 110
2, 67580, Note_off_c, 0, 78, 100
2, 67584, Note_on_c, 0, 78, 110
2, 67676, Note_off_c, 0, 78, 100
2, 67680, Note_on_c, 0, 76, 110
2, 67772, Note_off_c, 0, 76, 100
2, 67776, Note_on_c, 0, 78, 110
2, 67868, Note_off_c, 0, 78, 100
2, 67872, Note_on_c, 0, 74, 110
2, 67964, Note_off_c, 0, 72, 100
2, 67964, Note_off_c, 0, 74, 100
2, 67968, Note_on_c, 0, 70, 110
2, 67968, Note_on_c, 0, 79, 110
2, 68156, Note_off_c, 0, 79, 100
2, 68160, Note_on_c, 0, 79, 110
2, 68348, Note_off_c, 0, 70, 100
2, 68348, Note_off_c, 0, 79, 100
2, 68352, Note_on_c, 0, 79, 110
2, 68444, Note_off_c, 0, 79, 100
2, 68448, Note_on_c, 0, 78, 110
2, 68540, Note_off_c, 0, 78, 100
2, 68544, Note_on_c, 0, 79, 110
2, 68636, Note_off_c, 0, 79, 100
2, 68640, Note_on_c, 0, 82, 110
2, 68732, Note_off_c, 0, 82, 100
2, 68736, Note_on_c, 0, 73, 110
2, 68736, Note_on_c, 0, 67, 110
2, 68924, Note_off_c, 0, 67, 100
2, 68928, Note_on_c, 0, 67, 110
2, 69116, Note_off_c, 0, 67, 100
2, 69120, Note_on_c, 0, 67, 110
2, 69212, Note_off_c, 0, 67, 100
2, 69216, Note_on_c, 0, 65, 110
2, 69308, Note_off_c, 0, 65, 100
2, 69312, Note_on_c, 0, 67, 110
2, 69404, Note_off_c, 0, 67, 100
2, 69408, Note_on_c, 0, 64, 110
2, 69500, Note_off_c, 0, 73, 100
2, 69500, Note_off_c, 0, 64, 100
2, 69504, Note_on_c, 0, 74, 110
2, 69504, Note_on_c, 0, 65, 110
2, 69692, Note_off_c, 0, 65, 100
2, 69696, Note_on_c, 0, 65, 110
2, 69884, Note_off_c, 0, 74, 100
2, 69884, Note_off_c, 0, 65, 100
2, 69888, Note_on_c, 0, 65, 110
2, 69980, Note_off_c, 0, 65, 100
2, 69984, Note_on_c, 0, 64, 110
2, 70076, Note_off_c, 0, 64, 100
2, 70080, Note_on_c, 0, 65, 110
2, 70172, Note_off_c, 0, 65, 100
2, 70176, Note_on_c, 0, 62, 110
2, 70268, Note_off_c, 0, 62, 100
2, 70272, Note_on_c, 0, 73, 110
2, 70272, Note_on_c, 0, 67, 110
2, 70460, Note_off_c, 0, 73, 100
2, 70464, Note_on_c, 0, 73, 110
2, 70652, Note_off_c, 0, 73, 100
2, 70656, Note_on_c, 0, 73, 110
2, 70748, Note_off_c, 0, 73, 100
2, 70752, Note_on_c, 0, 71, 110
2, 70844, Note_off_c, 0, 71, 100
2, 70848, Note_on_c, 0, 73, 110
2, 70940, Note_off_c, 0, 73, 100
2, 70944, Note_on_c, 0, 69, 110
2, 71036, Note_off_c, 0, 67, 100
2, 71036, Note_off_c, 0, 69, 100
2, 71040, Note_on_c, 0, 65, 110
2, 71040, Note_on_c, 0, 74, 110
2, 71228, Note_off_c, 0, 74, 100
2, 71232, Note_on_c, 0, 74, 110
2, 71420, Note_off_c, 0, 65, 100
2, 71420, Note_off_c, 0, 74, 100
2, 71424, Note_on_c, 0, 74, 110
2, 71516, Note_off_c, 0, 74, 100
2, 71520, Note_on_c, 0, 73, 110
2, 71612, Note_off_c, 0, 73, 100
2, 71616, Note_on_c, 0, 74, 110
2, 71708, Note_off_c, 0, 74, 100
2, 71712, Note_on_c, 0, 76, 110
2, 71804, Note_off_c, 0, 76, 100
2, 71808, Note_on_c, 0, 68, 110
2, 71808, Note_on_c, 0, 65, 110
2, 71996, Note_off_c, 0, 65, 100
2, 72000, Note_on_c, 0, 65, 110
2, 72188, Note_off_c, 0, 65, 100
2, 72192, Note_on_c, 0, 65, 110
2, 72284, Note_off_c, 0, 65, 100
2, 72288, Note_on_c, 0, 64, 110
2, 72380, Note_off_c, 0, 64, 100
2, 72384, Note_on_c, 0, 65, 110
2, 72476, Note_off_c, 0, 65, 100
2, 72480, Note_on_c, 0, 62, 110
2, 72572, Note_off_c, 0, 68, 100
2, 72572, Note_off_c, 0, 62, 100
2, 72576, Note_on_c, 0, 69, 110
2, 72576, Note_on_c, 0, 61, 110
2, 72764, Note_off_c, 0, 61, 100
2, 72768, Note_on_c, 0, 61, 110
2, 72956, Note_off_c, 0, 61, 100
2, 72960, Note_on_c, 0, 61, 110
2, 73052, Note_off_c, 0, 61, 100
2, 73056, Note_on_c, 0, 59, 110
2, 73148, Note_off_c, 0, 59, 100
2, 73152, Note_on_c, 0, 61, 110
2, 73244, Note_off_c, 0, 61, 100
2, 73248, Note_on_c, 0, 57, 110
2, 73340, Note_off_c, 0, 69, 100
2, 73340, Note_off_c, 0, 57, 100
2, 73344, Note_on_c, 0, 68, 110
2, 73344, Note_on_c, 0, 62, 110
2, 73532, Note_off_c, 0, 62, 100
2, 73536, Note_on_c, 0, 62, 110
2, 73724, Note_off_c, 0, 62, 100
2, 73728, Note_on_c, 0, 62, 110
2, 73820, Note_off_c, 0, 62, 100
2, 73824, Note_on_c, 0, 61, 110
2, 73916, Note_off_c, 0, 61, 100
2, 73920, Note_on_c, 0, 62, 110
2, 74012, Note_off_c, 0, 62, 100
2, 74016, Note_on_c, 0, 59, 110
2, 74108, Note_off_c, 0, 68, 100
2, 74108, Note_off_c, 0, 59, 100
2, 74112, Note_on_c, 0, 69, 110
2, 74112, Note_on_c, 0, 61, 110
2, 74300, Note_off_c, 0, 61, 100
2, 74304, Note_on_c, 0, 61, 110
2, 74492, Note_off_c, 0, 61, 100
2, 74496, Note_on_c, 0, 61, 110
2, 74588, Note_off_c, 0, 61, 100
2, 74592, Note_on_c, 0, 59, 110
2, 74684, Note_off_c, 0, 59, 100
2, 74688, Note_on_c, 0, 61, 110
2, 74780, Note_off_c, 0, 61, 100
2, 74784, Note_on_c, 0, 57, 110
2, 74876, Note_off_c, 0, 69, 100
2, 74876, Note_off_c, 0, 57, 100
2, 74880, Note_on_c, 0, 68, 110
2, 74880, Note_on_c, 0, 62, 110
2, 75068, Note_off_c, 0, 62, 100
2, 75072, Note_on_c, 0, 62, 110
2, 75260, Note_off_c, 0, 62, 100
2, 75264, Note_on_c, 0, 62, 110
2, 75356, Note_off_c, 0, 62, 100
2, 75360, Note_on_c, 0, 61, 110
2, 75452, Note_off_c, 0, 61, 100
2, 75456, Note_on_c, 0, 62, 110
2, 75548, Note_off_c, 0, 62, 100
2, 75552, Note_on_c, 0, 59, 110
2, 75644, Note_off_c, 0, 68, 100
2, 75644, Note_off_c, 0, 59, 100
2, 75648, Note_on_c, 0, 69, 110
2, 75648, Note_on_c, 0, 61, 110
2, 75836, Note_off_c, 0, 69, 100
2, 75836, Note_off_c, 0, 61, 100
2, 75840, Note_on_c, 0, 81, 80
2, 75932, Note_off_c, 0, 81, 100
2, 75936, Note_on_c, 0, 80, 80
2, 76028, Note_off_c, 0, 80, 100
2, 76032, Note_on_c, 0, 81, 80
2, 76124, Note_off_c, 0, 81, 100
2, 76128, Note_on_c, 0, 80, 80
2, 76220, Note_off_c, 0, 80, 100
2, 76224, Note_on_c, 0, 81, 80
2, 76316, Note_off_c, 0, 81, 100
2, 76320, Note_on_c, 0, 80, 80
2, 76412, Note_off_c, 0, 80, 100
2, 76416, Note_on_c, 0, 81, 80
2, 76508, Note_off_c, 0, 81, 100
2, 76512, Note_on_c, 0, 80, 80
2, 76604, Note_off_c, 0, 80, 100
2, 76608, Note_on_c, 0, 81, 80
2, 76700, Note_off_c, 0, 81, 100
2, 76704, Note_on_c, 0, 80, 80
2, 76796, Note_off_c, 0, 80, 100
2, 76800, Note_on_c, 0, 81, 80
2, 76892, Note_off_c, 0, 81, 100
2, 76896, Note_on_c, 0, 80, 80
2, 76988, Note_off_c, 0, 80, 100
2, 76992, Note_on_c, 0, 81, 80
2, 77084, Note_off_c, 0, 81, 100
2, 77088, Note_on_c, 0, 80, 80
2, 77180, Note_off_c, 0, 80, 100
2, 77184, Note_on_c, 0, 81, 80
2, 77184, Note_on_c, 0, 78, 80
2, 77184, Note_on_c, 0, 69, 80
2, 77372, Note_off_c, 0, 81, 100
2, 77372, Note_off_c, 0, 78, 100
2, 77372, Note_off_c, 0, 69, 100
2, 77376, Note_on_c, 0, 81, 80
2, 77376, Note_on_c, 0, 78, 80
2, 77376, Note_on_c, 0, 69, 80
2, 77564, Note_off_c, 0, 81, 100
2, 77564, Note_off_c, 0, 78, 100
2, 77564, Note_off_c, 0, 69, 100
2, 77568, Note_on_c, 0, 81, 80
2, 77568, Note_on_c, 0, 78, 80
2, 77568, Note_on_c, 0, 69, 80
2, 77756, Note_off_c, 0, 81, 100
2, 77756, Note_off_c, 0, 78, 100
2, 77756, Note_off_c, 0, 69, 100
2, 77760, Note_on_c, 0, 81, 80
2, 77760, Note_on_c, 0, 78, 80
2, 77760, Note_on_c, 0, 74, 80
2, 77948, Note_off_c, 0, 81, 100
2, 77948, Note_off_c, 0, 78, 100
2, 77948, Note_off_c, 0, 74, 100
2, 77952, Note_on_c, 0, 81, 80
2, 77952, Note_on_c, 0, 78, 80
2, 77952, Note_on_c, 0, 69, 80
2, 78140, Note_off_c, 0, 81, 100
2, 78140, Note_off_c, 0, 78, 100
2, 78140, Note_off_c, 0, 69, 100
2, 78144, Note_on_c, 0, 81, 80
2, 78144, Note_on_c, 0, 78, 80
2, 78144, Note_on_c, 0, 69, 80
2, 78332, Note_off_c, 0, 81, 100
2, 78332, Note_off_c, 0, 78, 100
2, 78332, Note_off_c, 0, 69, 100
2, 78336, Note_on_c, 0, 81, 80
2, 78336, Note_on_c, 0, 78, 80
2, 78336, Note_on_c, 0, 69, 80
2, 78524, Note_off_c, 0, 81, 100
2, 78524, Note_off_c, 0, 78, 100
2, 78524, Note_off_c, 0, 69, 100
2, 78528, Note_on_c, 0, 81, 80
2, 78528, Note_on_c, 0, 78, 80
2, 78528, Note_on_c, 0, 74, 80
2, 78716, Note_off_c, 0, 81, 100
2, 78716, Note_off_c, 0, 78, 100
2, 78716, Note_off_c, 0, 74, 100
2, 78720, Note_on_c, 0, 81, 80
2, 78720, Note_on_c, 0, 79, 80
2, 78908, Note_off_c, 0, 81, 100
2, 78908, Note_off_c, 0, 79, 100
2, 78912, Note_on_c, 0, 83, 82
2, 78912, Note_on_c, 0, 79, 82
2, 78912, Note_on_c, 0, 81, 82
2, 79100, Note_off_c, 0, 83, 100
2, 79100, Note_off_c, 0, 79, 100
2, 79100, Note_off_c, 0, 81, 100
2, 79104, Note_on_c, 0, 85, 84
2, 79104, Note_on_c, 0, 79, 84
2, 79104, Note_on_c, 0, 81, 84
2, 79292, Note_off_c, 0, 85, 100
2, 79292, Note_off_c, 0, 79, 100
2, 79292, Note_off_c, 0, 81, 100
2, 79296, Note_on_c, 0, 86, 87
2, 79296, Note_on_c, 0, 79, 87
2, 79296, Note_on_c, 0, 81, 87
2, 79484, Note_off_c, 0, 86, 100
2, 79484, Note_off_c, 0, 79, 100
2, 79484, Note_off_c, 0, 81, 100
2, 79488, Note_on_c, 0, 88, 90
2, 79488, Note_on_c, 0, 79, 90
2, 79488, Note_on_c, 0, 81, 90
2, 79676, Note_off_c, 0, 88, 100
2, 79676, Note_off_c, 0, 79, 100
2, 79676, Note_off_c, 0, 81, 100
2, 79680, Note_on_c, 0, 85, 87
2, 79680, Note_on_c, 0, 81, 87
2, 79680, Note_on_c, 0, 79, 87
2, 79868, Note_off_c, 0, 85, 100
2, 79868, Note_off_c, 0, 81, 100
2, 79868, Note_off_c, 0, 79, 100
2, 79872, Note_on_c, 0, 86, 84
2, 79872, Note_on_c, 0, 79, 84
2, 79872, Note_on_c, 0, 81, 84
2, 80060, Note_off_c, 0, 86, 100
2, 80060, Note_off_c, 0, 79, 100
2, 80060, Note_off_c, 0, 81, 100
2, 80064, Note_on_c, 0, 88, 81
2, 80064, Note_on_c, 0, 79, 81
2, 80064, Note_on_c, 0, 81, 81
2, 80252, Note_off_c, 0, 88, 100
2, 80252, Note_off_c, 0, 79, 100
2, 80252, Note_off_c, 0, 81, 100
2, 80256, Note_on_c, 0, 81, 80
2, 80256, Note_on_c, 0, 78, 80
2, 80256, Note_on_c, 0, 69, 80
2, 80444, Note_off_c, 0, 81, 100
2, 80444, Note_off_c, 0, 78, 100
2, 80444, Note_off_c, 0, 69, 100
2, 80448, Note_on_c, 0, 81, 80
2, 80448, Note_on_c, 0, 78, 80
2, 80448, Note_on_c, 0, 69, 80
2, 80636, Note_off_c, 0, 81, 100
2, 80636, Note_off_c, 0, 78, 100
2, 80636, Note_off_c, 0, 69, 100
2, 80640, Note_on_c, 0, 81, 80
2, 80640, Note_on_c, 0, 78, 80
2, 80640, Note_on_c, 0, 69, 80
2, 80828, Note_off_c, 0, 81, 100
2, 80828, Note_off_c, 0, 78, 100
2, 80828, Note_off_c, 0, 69, 100
2, 80832, Note_on_c, 0, 81, 80
2, 80832, Note_on_c, 0, 78, 80
2, 80832, Note_on_c, 0, 74, 80
2, 81020, Note_off_c, 0, 81, 100
2, 81020, Note_off_c, 0, 78, 100
2, 81020, Note_off_c, 0, 74, 100
2, 81024, Note_on_c, 0, 81, 80
2, 81024, Note_on_c, 0, 78, 80
2, 81024, Note_on_c, 0, 69, 80
2, 81212, Note_off_c, 0, 81, 100
2, 81212, Note_off_c, 0, 78, 100
2, 81212, Note_off_c, 0, 69, 100
2, 81216, Note_on_c, 0, 81, 80
2, 81216, Note_on_c, 0, 78, 80
2, 81216, Note_on_c, 0, 69, 80
2, 81404, Note_off_c, 0, 81, 100
2, 81404, Note_off_c, 0, 78, 100
2, 81404, Note_off_c, 0, 69, 100
2, 81408, Note_on_c, 0, 81, 80
2, 81408, Note_on_c, 0, 78, 80
2, 81408, Note_on_c, 0, 69, 80
2, 81596, Note_off_c, 0, 81, 100
2, 81596, Note_off_c, 0, 78, 100
2, 81596, Note_off_c, 0, 69, 100
2, 81600, Note_on_c, 0, 81, 80
2, 81600, Note_on_c, 0, 78, 80
2, 81600, Note_on_c, 0, 74, 80
2, 81788, Note_off_c, 0, 81, 100
2, 81788, Note_off_c, 0, 78, 100
2, 81788, Note_off_c, 0, 74, 100
2, 81792, Note_on_c, 0, 81, 80
2, 81792, Note_on_c, 0, 79, 80
2, 81980, Note_off_c, 0, 81, 100
2, 81980, Note_off_c, 0, 79, 100
2, 81984, Note_on_c, 0, 83, 82
2, 81984, Note_on_c, 0, 79, 82
2, 81984, Note_on_c, 0, 81, 82
2, 82172, Note_off_c, 0, 83, 100
2, 82172, Note_off_c, 0, 79, 100
2, 82172, Note_off_c, 0, 81, 100
2, 82176, Note_on_c, 0, 85, 84
2, 82176, Note_on_c, 0, 79, 84
2, 82176, Note_on_c, 0, 81, 84
2, 82364, Note_off_c, 0, 85, 100
2, 82364, Note_off_c, 0, 79, 100
2, 82364, Note_off_c, 0, 81, 100
2, 82368, Note_on_c, 0, 86, 87
2, 82368, Note_on_c, 0, 79, 87
2, 82368, Note_on_c, 0, 81, 87
2, 82556, Note_off_c, 0, 86, 100
2, 82556, Note_off_c, 0, 79, 100
2, 82556, Note_off_c, 0, 81, 100
2, 82560, Note_on_c, 0, 88, 90
2, 82560, Note_on_c, 0, 79, 90
2, 82560, Note_on_c, 0, 81, 90
2, 82748, Note_off_c, 0, 88, 100
2, 82748, Note_off_c, 0, 79, 100
2, 82748, Note_off_c, 0, 81, 100
2, 82752, Note_on_c, 0, 85, 87
2, 82752, Note_on_c, 0, 81, 87
2, 82752, Note_on_c, 0, 79, 87
2, 82940, Note_off_c, 0, 85, 100
2, 82940, Note_off_c, 0, 81, 100
2, 82940, Note_off_c, 0, 79, 100
2, 82944, Note_on_c, 0, 86, 84
2, 82944, Note_on_c, 0, 79, 84
2, 82944, Note_on_c, 0, 81, 84
2, 83132, Note_off_c, 0, 86, 100
2, 83132, Note_off_c, 0, 79, 100
2, 83132, Note_off_c, 0, 81, 100
2, 83136, Note_on_c, 0, 88, 81
2, 83136, Note_on_c, 0, 79, 81
2, 83136, Note_on_c, 0, 81, 81
2, 83324, Note_off_c, 0, 88, 100
2, 83324, Note_off_c, 0, 79, 100
2, 83324, Note_off_c, 0, 81, 100
2, 83328, Note_on_c, 0, 78, 80
2, 83328, Note_on_c, 0, 81, 80
2, 83516, Note_off_c, 0, 78, 100
2, 83516, Note_off_c, 0, 81, 100
2, 83520, Note_on_c, 0, 78, 80
2, 83520, Note_on_c, 0, 81, 80
2, 83708, Note_off_c, 0, 78, 100
2, 83708, Note_off_c, 0, 81, 100
2, 83712, Note_on_c, 0, 78, 80
2, 83712, Note_on_c, 0, 83, 80
2, 83900, Note_off_c, 0, 78, 100
2, 83900, Note_off_c, 0, 83, 100
2, 83904, Note_on_c, 0, 78, 80
2, 83904, Note_on_c, 0, 84, 80
2, 84092, Note_off_c, 0, 78, 100
2, 84092, Note_off_c, 0, 84, 100
2, 84096, Note_on_c, 0, 77, 80
2, 84096, Note_on_c, 0, 86, 80
2, 84284, Note_off_c, 0, 77, 100
2, 84284, Note_off_c, 0, 86, 100
2, 84288, Note_on_c, 0, 77, 80
2, 84288, Note_on_c, 0, 83, 80
2, 84476, Note_off_c, 0, 77, 100
2, 84476, Note_off_c, 0, 83, 100
2, 84480, Note_on_c, 0, 77, 80
2, 84480, Note_on_c, 0, 84, 80
2, 84668, Note_off_c, 0, 77, 100
2, 84668, Note_off_c, 0, 84, 100
2, 84672, Note_on_c, 0, 77, 80
2, 84672, Note_on_c, 0, 86, 80
2, 84860, Note_off_c, 0, 77, 100
2, 84860, Note_off_c, 0, 86, 100
2, 84864, Note_on_c, 0, 79, 80
2, 84864, Note_on_c, 0, 76, 80
2, 85052, Note_off_c, 0, 79, 100
2, 85052, Note_off_c, 0, 76, 100
2, 85056, Note_on_c, 0, 79, 80
2, 85056, Note_on_c, 0, 76, 80
2, 85244, Note_off_c, 0, 79, 100
2, 85244, Note_off_c, 0, 76, 100
2, 85248, Note_on_c, 0, 81, 80
2, 85248, Note_on_c, 0, 76, 80
2, 85436, Note_off_c, 0, 81, 100
2, 85436, Note_off_c, 0, 76, 100
2, 85440, Note_on_c, 0, 82, 80
2, 85440, Note_on_c, 0, 76, 80
2, 85628, Note_off_c, 0, 82, 100
2, 85628, Note_off_c, 0, 76, 100
2, 85632, Note_on_c, 0, 84, 80
2, 85632, Note_on_c, 0, 75, 80
2, 85820, Note_off_c, 0, 84, 100
2, 85820, Note_off_c, 0, 75, 100
2, 85824, Note_on_c, 0, 81, 80
2, 85824, Note_on_c, 0, 75, 80
2, 86012, Note_off_c, 0, 81, 100
2, 86012, Note_off_c, 0, 75, 100
2, 86016, Note_on_c, 0, 82, 80
2, 86016, Note_on_c, 0, 75, 80
2, 86204, Note_off_c, 0, 82, 100
2, 86204, Note_off_c, 0, 75, 100
2, 86208, Note_on_c, 0, 84, 80
2, 86208, Note_on_c, 0, 75, 80
2, 86396, Note_off_c, 0, 84, 100
2, 86396, Note_off_c, 0, 75, 100
2, 86400, Note_on_c, 0, 77, 100
2, 86400, Note_on_c, 0, 74, 100
2, 86588, Note_off_c, 0, 77, 100
2, 86588, Note_off_c, 0, 74, 100
2, 86592, Note_on_c, 0, 77, 100
2, 86592, Note_on_c, 0, 74, 100
2, 86780, Note_off_c, 0, 77, 100
2, 86780, Note_off_c, 0, 74, 100
2, 86784, Note_on_c, 0, 79, 100
2, 86784, Note_on_c, 0, 76, 100
2, 86972, Note_off_c, 0, 79, 100
2, 86972, Note_off_c, 0, 76, 100
2, 86976, Note_on_c, 0, 81, 100
2, 86976, Note_on_c, 0, 77, 100
2, 87164, Note_off_c, 0, 81, 100
2, 87164, Note_off_c, 0, 77, 100
2, 87168, Note_on_c, 0, 82, 100
2, 87168, Note_on_c, 0, 79, 100
2, 87356, Note_off_c, 0, 82, 100
2, 87356, Note_off_c, 0, 79, 100
2, 87360, Note_on_c, 0, 82, 100
2, 87360, Note_on_c, 0, 79, 100
2, 87548, Note_off_c, 0, 82, 100
2, 87548, Note_off_c, 0, 79, 100
2, 87552, Note_on_c, 0, 82, 101
2, 87552, Note_on_c, 0, 79, 101
2, 87740, Note_off_c, 0, 82, 100
2, 87740, Note_off_c, 0, 79, 100
2, 87744, Note_on_c, 0, 82, 102
2, 87744, Note_on_c, 0, 79, 102
2, 87932, Note_off_c, 0, 82, 100
2, 87932, Note_off_c, 0, 79, 100
2, 87936, Note_on_c, 0, 82, 103
2, 87936, Note_on_c, 0, 79, 103
2, 88124, Note_off_c, 0, 82, 100
2, 88124, Note_off_c, 0, 79, 100
2, 88128, Note_on_c, 0, 79, 104
2, 88128, Note_on_c, 0, 82, 104
2, 88316, Note_off_c, 0, 79, 100
2, 88316, Note_off_c, 0, 82, 100
2, 88320, Note_on_c, 0, 79, 105
2, 88320, Note_on_c, 0, 82, 105
2, 88508, Note_off_c, 0, 79, 100
2, 88508, Note_off_c, 0, 82, 100
2, 88512, Note_on_c, 0, 79, 105
2, 88512, Note_on_c, 0, 82, 105
2, 88700, Note_off_c, 0, 79, 100
2, 88700, Note_off_c, 0, 82, 100
2, 88704, Note_on_c, 0, 79, 106
2, 88704, Note_on_c, 0, 82, 106
2, 88892, Note_off_c, 0, 79, 100
2, 88892, Note_off_c, 0, 82, 100
2, 88896, Note_on_c, 0, 81, 107
2, 88896, Note_on_c, 0, 82, 107
2, 89084, Note_off_c, 0, 81, 100
2, 89084, Note_off_c, 0, 82, 100
2, 89088, Note_on_c, 0, 79, 108
2, 89088, Note_on_c, 0, 82, 108
2, 89276, Note_off_c, 0, 79, 100
2, 89276, Note_off_c, 0, 82, 100
2, 89280, Note_on_c, 0, 77, 109
2, 89280, Note_on_c, 0, 82, 109
2, 89468, Note_off_c, 0, 77, 100
2, 89468, Note_off_c, 0, 82, 100
2, 89472, Note_on_c, 0, 76, 110
2, 89472, Note_on_c, 0, 82, 110
2, 89564, Note_off_c, 0, 76, 100
2, 89564, Note_off_c, 0, 82, 100
2, 89568, Note_on_c, 0, 84, 110
2, 89660, Note_off_c, 0, 84, 100
2, 89664, Note_on_c, 0, 86, 110
2, 89756, Note_off_c, 0, 86, 100
2, 89760, Note_on_c, 0, 84, 110
2, 89852, Note_off_c, 0, 84, 100
2, 89856, Note_on_c, 0, 82, 110
2, 89948, Note_off_c, 0, 82, 100
2, 89952, Note_on_c, 0, 81, 110
2, 90044, Note_off_c, 0, 81, 100
2, 90048, Note_on_c, 0, 79, 110
2, 90140, Note_off_c, 0, 79, 100
2, 90144, Note_on_c, 0, 77, 110
2, 90236, Note_off_c, 0, 77, 100
2, 90240, Note_on_c, 0, 76, 110
2, 90332, Note_off_c, 0, 76, 100
2, 90336, Note_on_c, 0, 77, 110
2, 90428, Note_off_c, 0, 77, 100
2, 90432, Note_on_c, 0, 79, 110
2, 90524, Note_off_c, 0, 79, 100
2, 90528, Note_on_c, 0, 77, 110
2, 90620, Note_off_c, 0, 77, 100
2, 90624, Note_on_c, 0, 76, 110
2, 90716, Note_off_c, 0, 76, 100
2, 90720, Note_on_c, 0, 74, 110
2, 90812, Note_off_c, 0, 74, 100
2, 90816, Note_on_c, 0, 72, 120
2, 90908, Note_off_c, 0, 72, 100
2, 90912, Note_on_c, 0, 70, 120
2, 91004, Note_off_c, 0, 70, 100
2, 91008, Note_on_c, 0, 69, 120
2, 91196, Note_off_c, 0, 69, 100
2, 91200, Note_on_c, 0, 84, 120
2, 91292, Note_off_c, 0, 84, 100
2, 91296, Note_on_c, 0, 82, 120
2, 91388, Note_off_c, 0, 82, 100
2, 91392, Note_on_c, 0, 81, 120
2, 91484, Note_off_c, 0, 81, 100
2, 91488, Note_on_c, 0, 79, 120
2, 91580, Note_off_c, 0, 79, 100
2, 91584, Note_on_c, 0, 77, 120
2, 91676, Note_off_c, 0, 77, 100
2, 91680, Note_on_c, 0, 76, 120
2, 91772, Note_off_c, 0, 76, 100
2, 91776, Note_on_c, 0, 77, 120
2, 91868, Note_off_c, 0, 77, 100
2, 91872, Note_on_c, 0, 76, 120
2, 91964, Note_off_c, 0, 76, 100
2, 91968, Note_on_c, 0, 74, 120
2, 92060, Note_off_c, 0, 74, 100
2, 92064, Note_on_c, 0, 72, 120
2, 92156, Note_off_c, 0, 72, 100
2, 92160, Note_on_c, 0, 70, 120
2, 92252, Note_off_c, 0, 70, 100
2, 92256, Note_on_c, 0, 69, 120
2, 92348, Note_off_c, 0, 69, 100
2, 92352, Note_on_c, 0, 67, 120
2, 92444, Note_off_c, 0, 67, 100
2, 92448, Note_on_c, 0, 65, 120
2, 92540, Note_off_c, 0, 65, 100
2, 92544, Note_on_c, 0, 64, 120
2, 92636, Note_off_c, 0, 64, 100
2, 92640, Note_on_c, 0, 65, 120
2, 92732, Note_off_c, 0, 65, 100
2, 92736, Note_on_c, 0, 67, 120
2, 92828, Note_off_c, 0, 67, 100
2, 92832, Note_on_c, 0, 65, 120
2, 92924, Note_off_c, 0, 65, 100
2, 92928, Note_on_c, 0, 64, 120
2, 93020, Note_off_c, 0, 64, 100
2, 93024, Note_on_c, 0, 60, 120
2, 93116, Note_off_c, 0, 60, 100
2, 93120, Note_on_c, 0, 62, 120
2, 93212, Note_off_c, 0, 62, 100
2, 93216, Note_on_c, 0, 64, 120
2, 93308, Note_off_c, 0, 64, 100
2, 93312, Note_on_c, 0, 65, 110
2, 93404, Note_off_c, 0, 65, 100
2, 93408, Note_on_c, 0, 60, 110
2, 93500, Note_off_c, 0, 60, 100
2, 93504, Note_on_c, 0, 65, 110
2, 93596, Note_off_c, 0, 65, 100
2, 93600, Note_on_c, 0, 60, 110
2, 93692, Note_off_c, 0, 60, 100
2, 93696, Note_on_c, 0, 65, 110
2, 93788, Note_off_c, 0, 65, 100
2, 93792, Note_on_c, 0, 60, 110
2, 93884, Note_off_c, 0, 60, 100
2, 93888, Note_on_c, 0, 67, 110
2, 93980, Note_off_c, 0, 67, 100
2, 93984, Note_on_c, 0, 60, 110
2, 94076, Note_off_c, 0, 60, 100
2, 94080, Note_on_c, 0, 69, 110
2, 94268, Note_off_c, 0, 69, 100
2, 94272, Note_on_c, 0, 65, 110
2, 94460, Note_off_c, 0, 65, 100
2, 94464, Note_on_c, 0, 65, 110
2, 94652, Note_off_c, 0, 65, 100
2, 94656, Note_on_c, 0, 60, 110
2, 94844, Note_off_c, 0, 60, 100
2, 94848, Note_on_c, 0, 69, 110
2, 95036, Note_off_c, 0, 69, 100
2, 95040, Note_on_c, 0, 69, 110
2, 95228, Note_off_c, 0, 69, 100
2, 95232, Note_on_c, 0, 69, 110
2, 95420, Note_off_c, 0, 69, 100
2, 95424, Note_on_c, 0, 65, 110
2, 95612, Note_off_c, 0, 65, 100
2, 95616, Note_on_c, 0, 72, 110
2, 95804, Note_off_c, 0, 72, 100
2, 95808, Note_on_c, 0, 72, 110
2, 95996, Note_off_c, 0, 72, 100
2, 96000, Note_on_c, 0, 72, 110
2, 96092, Note_off_c, 0, 72, 100
2, 96096, Note_on_c, 0, 74, 110
2, 96188, Note_off_c, 0, 74, 100
2, 96192, Note_on_c, 0, 72, 110
2, 96284, Note_off_c, 0, 72, 100
2, 96288, Note_on_c, 0, 70, 110
2, 96380, Note_off_c, 0, 70, 100
2, 96384, Note_on_c, 0, 69, 110
2, 96476, Note_off_c, 0, 69, 100
2, 96480, Note_on_c, 0, 72, 110
2, 96572, Note_off_c, 0, 72, 100
2, 96576, Note_on_c, 0, 67, 110
2, 96668, Note_off_c, 0, 67, 100
2, 96672, Note_on_c, 0, 73, 110
2, 96764, Note_off_c, 0, 73, 100
2, 96768, Note_on_c, 0, 66, 110
2, 96860, Note_off_c, 0, 66, 100
2, 96864, Note_on_c, 0, 74, 110
2, 96956, Note_off_c, 0, 74, 100
2, 96960, Note_on_c, 0, 69, 110
2, 97052, Note_off_c, 0, 69, 100
2, 97056, Note_on_c, 0, 72, 110
2, 97148, Note_off_c, 0, 72, 100
2, 97152, Note_on_c, 0, 70, 110
2, 97340, Note_off_c, 0, 70, 100
2, 97344, Note_on_c, 0, 86, 110
2, 97436, Note_off_c, 0, 86, 100
2, 97440, Note_on_c, 0, 84, 110
2, 97532, Note_off_c, 0, 84, 100
2, 97536, Note_on_c, 0, 82, 110
2, 97628, Note_off_c, 0, 82, 100
2, 97632, Note_on_c, 0, 81, 110
2, 97724, Note_off_c, 0, 81, 100
2, 97728, Note_on_c, 0, 79, 110
2, 97820, Note_off_c, 0, 79, 100
2, 97824, Note_on_c, 0, 78, 110
2, 97916, Note_off_c, 0, 78, 100
2, 97920, Note_on_c, 0, 79, 110
2, 98012, Note_off_c, 0, 79, 100
2, 98016, Note_on_c, 0, 77, 110
2, 98108, Note_off_c, 0, 77, 100
2, 98112, Note_on_c, 0, 75, 110
2, 98204, Note_off_c, 0, 75, 100
2, 98208, Note_on_c, 0, 74, 110
2, 98300, Note_off_c, 0, 74, 100
2, 98304, Note_on_c, 0, 72, 110
2, 98396, Note_off_c, 0, 72, 100
2, 98400, Note_on_c, 0, 70, 110
2, 98492, Note_off_c, 0, 70, 100
2, 98496, Note_on_c, 0, 69, 110
2, 98588, Note_off_c, 0, 69, 100
2, 98592, Note_on_c, 0, 67, 110
2, 98684, Note_off_c, 0, 67, 100
2, 98688, Note_on_c, 0, 66, 110
2, 98780, Note_off_c, 0, 66, 100
2, 98784, Note_on_c, 0, 67, 110
2, 98876, Note_off_c, 0, 67, 100
2, 98880, Note_on_c, 0, 69, 110
2, 98972, Note_off_c, 0, 69, 100
2, 98976, Note_on_c, 0, 67, 110
2, 99068, Note_off_c, 0, 67, 100
2, 99072, Note_on_c, 0, 66, 110
2, 99164, Note_off_c, 0, 66, 100
2, 99168, Note_on_c, 0, 62, 110
2, 99260, Note_off_c, 0, 62, 100
2, 99264, Note_on_c, 0, 64, 110
2, 99356, Note_off_c, 0, 64, 100
2, 99360, Note_on_c, 0, 66, 110
2, 99452, Note_off_c, 0, 66, 100
2, 99456, Note_on_c, 0, 67, 110
2, 99548, Note_off_c, 0, 67, 100
2, 99552, Note_on_c, 0, 62, 110
2, 99644, Note_off_c, 0, 62, 100
2, 99648, Note_on_c, 0, 67, 110
2, 99740, Note_off_c, 0, 67, 100
2, 99744, Note_on_c, 0, 62, 110
2, 99836, Note_off_c, 0, 62, 100
2, 99840, Note_on_c, 0, 67, 110
2, 99932, Note_off_c, 0, 67, 100
2, 99936, Note_on_c, 0, 62, 110
2, 100028, Note_off_c, 0, 62, 100
2, 100032, Note_on_c, 0, 69, 110
2, 100124, Note_off_c, 0, 69, 100
2, 100128, Note_on_c, 0, 62, 110
2, 100220, Note_off_c, 0, 62, 100
2, 100224, Note_on_c, 0, 70, 110
2, 100412, Note_off_c, 0, 70, 100
2, 100416, Note_on_c, 0, 67, 110
2, 100604, Note_off_c, 0, 67, 100
2, 100608, Note_on_c, 0, 67, 110
2, 100796, Note_off_c, 0, 67, 100
2, 100800, Note_on_c, 0, 62, 110
2, 100988, Note_off_c, 0, 62, 100
2, 100992, Note_on_c, 0, 70, 110
2, 101180, Note_off_c, 0, 70, 100
2, 101184, Note_on_c, 0, 70, 110
2, 101372, Note_off_c, 0, 70, 100
2, 101376, Note_on_c, 0, 70, 110
2, 101564, Note_off_c, 0, 70, 100
2, 101568, Note_on_c, 0, 67, 110
2, 101756, Note_off_c, 0, 67, 100
2, 101760, Note_on_c, 0, 74, 110
2, 101948, Note_off_c, 0, 74, 100
2, 101952, Note_on_c, 0, 74, 110
2, 102140, Note_off_c, 0, 74, 100
2, 102144, Note_on_c, 0, 74, 110
2, 102236, Note_off_c, 0, 74, 100
2, 102240, Note_on_c, 0, 75, 110
2, 102332, Note_off_c, 0, 75, 100
2, 102336, Note_on_c, 0, 74, 110
2, 102428, Note_off_c, 0, 74, 100
2, 102432, Note_on_c, 0, 72, 110
2, 102524, Note_off_c, 0, 72, 100
2, 102528, Note_on_c, 0, 70, 110
2, 102620, Note_off_c, 0, 70, 100
2, 102624, Note_on_c, 0, 74, 110
2, 102716, Note_off_c, 0, 74, 100
2, 102720, Note_on_c, 0, 76, 110
2, 102812, Note_off_c, 0, 76, 100
2, 102816, Note_on_c, 0, 70, 110
2, 102908, Note_off_c, 0, 70, 100
2, 102912, Note_on_c, 0, 77, 110
2, 103004, Note_off_c, 0, 77, 100
2, 103008, Note_on_c, 0, 69, 110
2, 103100, Note_off_c, 0, 69, 100
2, 103104, Note_on_c, 0, 75, 110
2, 103196, Note_off_c, 0, 75, 100
2, 103200, Note_on_c, 0, 72, 110
2, 103292, Note_off_c, 0, 72, 100
2, 103296, Note_on_c, 0, 74, 110
2, 103484, Note_off_c, 0, 74, 100
2, 103488, Note_on_c, 0, 89, 110
2, 103580, Note_off_c, 0, 89, 100
2, 103584, Note_on_c, 0, 87, 110
2, 103676, Note_off_c, 0, 87, 100
2, 103680, Note_on_c, 0, 86, 110
2, 103772, Note_off_c, 0, 86, 100
2, 103776, Note_on_c, 0, 84, 110
2, 103868, Note_off_c, 0, 84, 100
2, 103872, Note_on_c, 0, 82, 110
2, 103964, Note_off_c, 0, 82, 100
2, 103968, Note_on_c, 0, 81, 110
2, 104060, Note_off_c, 0, 81, 100
2, 104064, Note_on_c, 0, 82, 110
2, 104156, Note_off_c, 0, 82, 100
2, 104160, Note_on_c, 0, 81, 110
2, 104252, Note_off_c, 0, 81, 100
2, 104256, Note_on_c, 0, 79, 110
2, 104348, Note_off_c, 0, 79, 100
2, 104352, Note_on_c, 0, 77, 110
2, 104444, Note_off_c, 0, 77, 100
2, 104448, Note_on_c, 0, 75, 110
2, 104540, Note_off_c, 0, 75, 100
2, 104544, Note_on_c, 0, 74, 110
2, 104636, Note_off_c, 0, 74, 100
2, 104640, Note_on_c, 0, 72, 110
2, 104732, Note_off_c, 0, 72, 100
2, 104736, Note_on_c, 0, 70, 110
2, 104828, Note_off_c, 0, 70, 100
2, 104832, Note_on_c, 0, 69, 110
2, 104924, Note_off_c, 0, 69, 100
2, 104928, Note_on_c, 0, 70, 110
2, 105020, Note_off_c, 0, 70, 100
2, 105024, Note_on_c, 0, 72, 110
2, 105116, Note_off_c, 0, 72, 100
2, 105120, Note_on_c, 0, 70, 110
2, 105212, Note_off_c, 0, 70, 100
2, 105216, Note_on_c, 0, 69, 110
2, 105308, Note_off_c, 0, 69, 100
2, 105312, Note_on_c, 0, 65, 110
2, 105404, Note_off_c, 0, 65, 100
2, 105408, Note_on_c, 0, 67, 110
2, 105500, Note_off_c, 0, 67, 100
2, 105504, Note_on_c, 0, 69, 110
2, 105596, Note_off_c, 0, 69, 100
2, 105600, Note_on_c, 0, 70, 110
2, 105692, Note_off_c, 0, 70, 100
2, 105696, Note_on_c, 0, 65, 110
2, 105788, Note_off_c, 0, 65, 100
2, 105792, Note_on_c, 0, 70, 110
2, 105884, Note_off_c, 0, 70, 100
2, 105888, Note_on_c, 0, 65, 110
2, 105980, Note_off_c, 0, 65, 100
2, 105984, Note_on_c, 0, 70, 110
2, 106076, Note_off_c, 0, 70, 100
2, 106080, Note_on_c, 0, 65, 110
2, 106172, Note_off_c, 0, 65, 100
2, 106176, Note_on_c, 0, 72, 110
2, 106268, Note_off_c, 0, 72, 100
2, 106272, Note_on_c, 0, 65, 110
2, 106364, Note_off_c, 0, 65, 100
2, 106368, Note_on_c, 0, 73, 110
2, 106556, Note_off_c, 0, 73, 100
2, 106560, Note_on_c, 0, 70, 80
2, 106652, Note_off_c, 0, 70, 100
2, 106656, Note_on_c, 0, 82, 80
2, 106748, Note_off_c, 0, 82, 100
2, 106752, Note_on_c, 0, 70, 80
2, 106844, Note_off_c, 0, 70, 100
2, 106848, Note_on_c, 0, 82, 80
2, 106940, Note_off_c, 0, 82, 100
2, 106944, Note_on_c, 0, 65, 80
2, 107036, Note_off_c, 0, 65, 100
2, 107040, Note_on_c, 0, 77, 80
2, 107132, Note_off_c, 0, 77, 100
2, 107136, Note_on_c, 0, 73, 80
2, 107228, Note_off_c, 0, 73, 100
2, 107232, Note_on_c, 0, 85, 80
2, 107324, Note_off_c, 0, 85, 100
2, 107328, Note_on_c, 0, 73, 80
2, 107420, Note_off_c, 0, 73, 100
2, 107424, Note_on_c, 0, 85, 80
2, 107516, Note_off_c, 0, 85, 100
2, 107520, Note_on_c, 0, 73, 80
2, 107612, Note_off_c, 0, 73, 100
2, 107616, Note_on_c, 0, 85, 80
2, 107708, Note_off_c, 0, 85, 100
2, 107712, Note_on_c, 0, 70, 80
2, 107804, Note_off_c, 0, 70, 100
2, 107808, Note_on_c, 0, 82, 80
2, 107900, Note_off_c, 0, 82, 100
2, 107904, Note_on_c, 0, 77, 80
2, 107996, Note_off_c, 0, 77, 100
2, 108000, Note_on_c, 0, 89, 80
2, 108092, Note_off_c, 0, 89, 100
2, 108096, Note_on_c, 0, 77, 81
2, 108188, Note_off_c, 0, 77, 100
2, 108192, Note_on_c, 0, 89, 81
2, 108284, Note_off_c, 0, 89, 100
2, 108288, Note_on_c, 0, 77, 82
2, 108380, Note_off_c, 0, 77, 100
2, 108384, Note_on_c, 0, 89, 83
2, 108476, Note_off_c, 0, 89, 100
2, 108480, Note_on_c, 0, 75, 83
2, 108572, Note_off_c, 0, 75, 100
2, 108576, Note_on_c, 0, 87, 84
2, 108668, Note_off_c, 0, 87, 100
2, 108672, Note_on_c, 0, 73, 85
2, 108764, Note_off_c, 0, 73, 100
2, 108768, Note_on_c, 0, 85, 85
2, 108860, Note_off_c, 0, 85, 100
2, 108864, Note_on_c, 0, 73, 86
2, 108956, Note_off_c, 0, 73, 100
2, 108960, Note_on_c, 0, 85, 87
2, 109052, Note_off_c, 0, 85, 100
2, 109056, Note_on_c, 0, 73, 87
2, 109148, Note_off_c, 0, 73, 100
2, 109152, Note_on_c, 0, 85, 88
2, 109244, Note_off_c, 0, 85, 100
2, 109248, Note_on_c, 0, 70, 88
2, 109340, Note_off_c, 0, 70, 100
2, 109344, Note_on_c, 0, 82, 89
2, 109436, Note_off_c, 0, 82, 100
2, 109440, Note_on_c, 0, 77, 90
2, 109532, Note_off_c, 0, 77, 100
2, 109536, Note_on_c, 0, 89, 90
2, 109628, Note_off_c, 0, 89, 100
2, 109632, Note_on_c, 0, 77, 91
2, 109724, Note_off_c, 0, 77, 100
2, 109728, Note_on_c, 0, 89, 92
2, 109820, Note_off_c, 0, 89, 100
2, 109824, Note_on_c, 0, 77, 92
2, 109916, Note_off_c, 0, 77, 100
2, 109920, Note_on_c, 0, 89, 93
2, 110012, Note_off_c, 0, 89, 100
2, 110016, Note_on_c, 0, 75, 94
2, 110108, Note_off_c, 0, 75, 100
2, 110112, Note_on_c, 0, 87, 94
2, 110204, Note_off_c, 0, 87, 100
2, 110208, Note_on_c, 0, 73, 95
2, 110300, Note_off_c, 0, 73, 100
2, 110304, Note_on_c, 0, 85, 95
2, 110396, Note_off_c, 0, 85, 100
2, 110400, Note_on_c, 0, 73, 96
2, 110492, Note_off_c, 0, 73, 100
2, 110496, Note_on_c, 0, 85, 97
2, 110588, Note_off_c, 0, 85, 100
2, 110592, Note_on_c, 0, 73, 97
2, 110684, Note_off_c, 0, 73, 100
2, 110688, Note_on_c, 0, 85, 98
2, 110780, Note_off_c, 0, 85, 100
2, 110784, Note_on_c, 0, 72, 99
2, 110876, Note_off_c, 0, 72, 100
2, 110880, Note_on_c, 0, 84, 99
2, 110972, Note_off_c, 0, 84, 100
2, 110976, Note_on_c, 0, 70, 100
2, 111068, Note_off_c, 0, 70, 100
2, 111072, Note_on_c, 0, 82, 101
2, 111164, Note_off_c, 0, 82, 100
2, 111168, Note_on_c, 0, 70, 101
2, 111260, Note_off_c, 0, 70, 100
2, 111264, Note_on_c, 0, 82, 102
2, 111356, Note_off_c, 0, 82, 100
2, 111360, Note_on_c, 0, 70, 102
2, 111452, Note_off_c, 0, 70, 100
2, 111456, Note_on_c, 0, 82, 103
2, 111548, Note_off_c, 0, 82, 100
2, 111552, Note_on_c, 0, 68, 104
2, 111644, Note_off_c, 0, 68, 100
2, 111648, Note_on_c, 0, 80, 104
2, 111740, Note_off_c, 0, 80, 100
2, 111744, Note_on_c, 0, 66, 105
2, 111836, Note_off_c, 0, 66, 100
2, 111840, Note_on_c, 0, 78, 106
2, 111932, Note_off_c, 0, 78, 100
2, 111936, Note_on_c, 0, 66, 106
2, 112028, Note_off_c, 0, 66, 100
2, 112032, Note_on_c, 0, 78, 107
2, 112124, Note_off_c, 0, 78, 100
2, 112128, Note_on_c, 0, 66, 108
2, 112220, Note_off_c, 0, 66, 100
2, 112224, Note_on_c, 0, 78, 108
2, 112316, Note_off_c, 0, 78, 100
2, 112320, Note_on_c, 0, 65, 109
2, 112412, Note_off_c, 0, 65, 100
2, 112416, Note_on_c, 0, 77, 109
2, 112508, Note_off_c, 0, 77, 100
2, 112512, Note_on_c, 0, 64, 110
2, 112604, Note_off_c, 0, 64, 100
2, 112608, Note_on_c, 0, 76, 110
2, 112700, Note_off_c, 0, 76, 100
2, 112704, Note_on_c, 0, 64, 110
2, 112796, Note_off_c, 0, 64, 100
2, 112800, Note_on_c, 0, 76, 110
2, 112892, Note_off_c, 0, 76, 100
2, 112896, Note_on_c, 0, 64, 110
2, 112988, Note_off_c, 0, 64, 100
2, 112992, Note_on_c, 0, 76, 110
2, 113084, Note_off_c, 0, 76, 100
2, 113088, Note_on_c, 0, 67, 110
2, 113180, Note_off_c, 0, 67, 100
2, 113184, Note_on_c, 0, 79, 110
2, 113276, Note_off_c, 0, 79, 100
2, 113280, Note_on_c, 0, 65, 110
2, 113372, Note_off_c, 0, 65, 100
2, 113376, Note_on_c, 0, 77, 110
2, 113468, Note_off_c, 0, 77, 100
2, 113472, Note_on_c, 0, 68, 110
2, 113564, Note_off_c, 0, 68, 100
2, 113568, Note_on_c, 0, 80, 110
2, 113660, Note_off_c, 0, 80, 100
2, 113664, Note_on_c, 0, 67, 110
2, 113756, Note_off_c, 0, 67, 100
2, 113760, Note_on_c, 0, 79, 110
2, 113852, Note_off_c, 0, 79, 100
2, 113856, Note_on_c, 0, 70, 110
2, 113948, Note_off_c, 0, 70, 100
2, 113952, Note_on_c, 0, 82, 110
2, 114044, Note_off_c, 0, 82, 100
2, 114048, Note_on_c, 0, 68, 110
2, 114140, Note_off_c, 0, 68, 100
2, 114144, Note_on_c, 0, 80, 110
2, 114236, Note_off_c, 0, 80, 100
2, 114240, Note_on_c, 0, 72, 110
2, 114332, Note_off_c, 0, 72, 100
2, 114336, Note_on_c, 0, 84, 110
2, 114428, Note_off_c, 0, 84, 100
2, 114432, Note_on_c, 0, 69, 110
2, 114524, Note_off_c, 0, 69, 100
2, 114528, Note_on_c, 0, 81, 110
2, 114620, Note_off_c, 0, 81, 100
2, 114624, Note_on_c, 0, 72, 110
2, 114716, Note_off_c, 0, 72, 100
2, 114720, Note_on_c, 0, 84, 110
2, 114812, Note_off_c, 0, 84, 100
2, 114816, Note_on_c, 0, 70, 110
2, 114908, Note_off_c, 0, 70, 100
2, 114912, Note_on_c, 0, 82, 110
2, 115004, Note_off_c, 0, 82, 100
2, 115008, Note_on_c, 0, 73, 110
2, 115100, Note_off_c, 0, 73, 100
2, 115104, Note_on_c, 0, 85, 110
2, 115196, Note_off_c, 0, 85, 100
2, 115200, Note_on_c, 0, 72, 110
2, 115292, Note_off_c, 0, 72, 100
2, 115296, Note_on_c, 0, 84, 110
2, 115388, Note_off_c, 0, 84, 100
2, 115392, Note_on_c, 0, 75, 110
2, 115484, Note_off_c, 0, 75, 100
2, 115488, Note_on_c, 0, 87, 110
2, 115580, Note_off_c, 0, 87, 100
2, 115584, Note_on_c, 0, 73, 120
2, 115676, Note_off_c, 0, 73, 100
2, 115680, Note_on_c, 0, 85, 120
2, 115772, Note_off_c, 0, 85, 100
2, 115776, Note_on_c, 0, 73, 120
2, 115868, Note_off_c, 0, 73, 100
2, 115872, Note_on_c, 0, 85, 120
2, 115964, Note_off_c, 0, 85, 100
2, 115968, Note_on_c, 0, 73, 120
2, 116060, Note_off_c, 0, 73, 100
2, 116064, Note_on_c, 0, 85, 120
2, 116156, Note_off_c, 0, 85, 100
2, 116160, Note_on_c, 0, 72, 120
2, 116252, Note_off_c, 0, 72, 100
2, 116256, Note_on_c, 0, 84, 120
2, 116348, Note_off_c, 0, 84, 100
2, 116352, Note_on_c, 0, 71, 120
2, 116444, Note_off_c, 0, 71, 100
2, 116448, Note_on_c, 0, 83, 120
2, 116540, Note_off_c, 0, 83, 100
2, 116544, Note_on_c, 0, 71, 120
2, 116636, Note_off_c, 0, 71, 100
2, 116640, Note_on_c, 0, 83, 120
2, 116732, Note_off_c, 0, 83, 100
2, 116736, Note_on_c, 0, 71, 120
2, 116828, Note_off_c, 0, 71, 100
2, 116832, Note_on_c, 0, 83, 120
2, 116924, Note_off_c, 0, 83, 100
2, 116928, Note_on_c, 0, 77, 120
2, 117020, Note_off_c, 0, 77, 100
2, 117024, Note_on_c, 0, 89, 120
2, 117116, Note_off_c, 0, 89, 100
2, 117120, Note_on_c, 0, 76, 120
2, 117212, Note_off_c, 0, 76, 100
2, 117216, Note_on_c, 0, 88, 120
2, 117308, Note_off_c, 0, 88, 100
2, 117312, Note_on_c, 0, 76, 120
2, 117404, Note_off_c, 0, 76, 100
2, 117408, Note_on_c, 0, 88, 120
2, 117500, Note_off_c, 0, 88, 100
2, 117504, Note_on_c, 0, 76, 120
2, 117596, Note_off_c, 0, 76, 100
2, 117600, Note_on_c, 0, 88, 120
2, 117692, Note_off_c, 0, 88, 100
2, 117696, Note_on_c, 0, 70, 120
2, 117788, Note_off_c, 0, 70, 100
2, 117792, Note_on_c, 0, 82, 120
2, 117884, Note_off_c, 0, 82, 100
2, 117888, Note_on_c, 0, 69, 120
2, 117980, Note_off_c, 0, 69, 100
2, 117984, Note_on_c, 0, 81, 120
2, 118076, Note_off_c, 0, 81, 100
2, 118080, Note_on_c, 0, 69, 120
2, 118172, Note_off_c, 0, 69, 100
2, 118176, Note_on_c, 0, 81, 120
2, 118268, Note_off_c, 0, 81, 100
2, 118272, Note_on_c, 0, 69, 120
2, 118364, Note_off_c, 0, 69, 100
2, 118368, Note_on_c, 0, 81, 120
2, 118460, Note_off_c, 0, 81, 100
2, 118464, Note_on_c, 0, 75, 120
2, 118556, Note_off_c, 0, 75, 100
2, 118560, Note_on_c, 0, 87, 120
2, 118652, Note_off_c, 0, 87, 100
2, 118656, Note_on_c, 0, 74, 110
2, 118844, Note_off_c, 0, 74, 100
2, 118848, Note_on_c, 0, 86, 110
2, 118940, Note_off_c, 0, 86, 100
2, 118944, Note_on_c, 0, 85, 110
2, 119036, Note_off_c, 0, 85, 100
2, 119040, Note_on_c, 0, 86, 110
2, 119132, Note_off_c, 0, 86, 100
2, 119136, Note_on_c, 0, 84, 110
2, 119228, Note_off_c, 0, 84, 100
2, 119232, Note_on_c, 0, 82, 110
2, 119324, Note_off_c, 0, 82, 100
2, 119328, Note_on_c, 0, 81, 110
2, 119420, Note_off_c, 0, 81, 100
2, 119424, Note_on_c, 0, 79, 110
2, 119516, Note_off_c, 0, 79, 100
2, 119520, Note_on_c, 0, 77, 110
2, 119612, Note_off_c, 0, 77, 100
2, 119616, Note_on_c, 0, 76, 110
2, 119708, Note_off_c, 0, 76, 100
2, 119712, Note_on_c, 0, 74, 110
2, 119804, Note_off_c, 0, 74, 100
2, 119808, Note_on_c, 0, 72, 110
2, 119900, Note_off_c, 0, 72, 100
2, 119904, Note_on_c, 0, 70, 110
2, 119996, Note_off_c, 0, 70, 100
2, 120000, Note_on_c, 0, 69, 110
2, 120092, Note_off_c, 0, 69, 100
2, 120096, Note_on_c, 0, 67, 110
2, 120188, Note_off_c, 0, 67, 100
2, 120192, Note_on_c, 0, 65, 110
2, 120380, Note_off_c, 0, 65, 100
2, 120384, Note_on_c, 0, 60, 80
2, 120384, Note_on_c, 0, 57, 80
2, 120572, Note_off_c, 0, 60, 100
2, 120572, Note_off_c, 0, 57, 100
2, 120576, Note_on_c, 0, 60, 80
2, 120576, Note_on_c, 0, 57, 80
2, 120764, Note_off_c, 0, 60, 100
2, 120764, Note_off_c, 0, 57, 100
2, 120768, Note_on_c, 0, 57, 80
2, 120768, Note_on_c, 0, 65, 80
2, 120956, Note_off_c, 0, 57, 100
2, 120956, Note_off_c, 0, 65, 100
2, 120960, Note_on_c, 0, 60, 80
2, 120960, Note_on_c, 0, 57, 80
2, 121148, Note_off_c, 0, 60, 100
2, 121148, Note_off_c, 0, 57, 100
2, 121152, Note_on_c, 0, 60, 80
2, 121152, Note_on_c, 0, 57, 80
2, 121340, Note_off_c, 0, 60, 100
2, 121340, Note_off_c, 0, 57, 100
2, 121344, Note_on_c, 0, 60, 80
2, 121344, Note_on_c, 0, 57, 80
2, 121532, Note_off_c, 0, 60, 100
2, 121532, Note_off_c, 0, 57, 100
2, 121536, Note_on_c, 0, 57, 80
2, 121536, Note_on_c, 0, 65, 80
2, 121724, Note_off_c, 0, 57, 100
2, 121724, Note_off_c, 0, 65, 100
2, 121728, Note_on_c, 0, 60, 80
2, 121728, Note_on_c, 0, 58, 80
2, 121916, Note_off_c, 0, 60, 100
2, 121916, Note_off_c, 0, 58, 100
2, 121920, Note_on_c, 0, 67, 80
2, 121920, Note_on_c, 0, 58, 80
2, 122108, Note_off_c, 0, 67, 100
2, 122108, Note_off_c, 0, 58, 100
2, 122112, Note_on_c, 0, 67, 80
2, 122112, Note_on_c, 0, 58, 80
2, 122300, Note_off_c, 0, 67, 100
2, 122300, Note_off_c, 0, 58, 100
2, 122304, Note_on_c, 0, 67, 80
2, 122304, Note_on_c, 0, 58, 80
2, 122492, Note_off_c, 0, 67, 100
2, 122492, Note_off_c, 0, 58, 100
2, 122496, Note_on_c, 0, 67, 80
2, 122496, Note_on_c, 0, 58, 80
2, 122684, Note_off_c, 0, 67, 100
2, 122684, Note_off_c, 0, 58, 100
2, 122688, Note_on_c, 0, 67, 80
2, 122688, Note_on_c, 0, 58, 80
2, 122876, Note_off_c, 0, 67, 100
2, 122876, Note_off_c, 0, 58, 100
2, 122880, Note_on_c, 0, 67, 80
2, 122880, Note_on_c, 0, 58, 80
2, 122972, Note_off_c, 0, 67, 100
2, 122972, Note_off_c, 0, 58, 100
2, 122976, Note_on_c, 0, 69, 80
2, 123068, Note_off_c, 0, 69, 100
2, 123072, Note_on_c, 0, 67, 80
2, 123072, Note_on_c, 0, 58, 80
2, 123164, Note_off_c, 0, 67, 100
2, 123164, Note_off_c, 0, 58, 100
2, 123168, Note_on_c, 0, 69, 80
2, 123260, Note_off_c, 0, 69, 100
2, 123264, Note_on_c, 0, 65, 80
2, 123452, Note_off_c, 0, 65, 100
2, 123456, Note_on_c, 0, 60, 80
2, 123456, Note_on_c, 0, 57, 80
2, 123644, Note_off_c, 0, 60, 100
2, 123644, Note_off_c, 0, 57, 100
2, 123648, Note_on_c, 0, 60, 80
2, 123648, Note_on_c, 0, 57, 80
2, 123836, Note_off_c, 0, 60, 100
2, 123836, Note_off_c, 0, 57, 100
2, 123840, Note_on_c, 0, 57, 80
2, 123840, Note_on_c, 0, 65, 80
2, 124028, Note_off_c, 0, 57, 100
2, 124028, Note_off_c, 0, 65, 100
2, 124032, Note_on_c, 0, 60, 80
2, 124032, Note_on_c, 0, 57, 80
2, 124220, Note_off_c, 0, 60, 100
2, 124220, Note_off_c, 0, 57, 100
2, 124224, Note_on_c, 0, 60, 80
2, 124224, Note_on_c, 0, 57, 80
2, 124412, Note_off_c, 0, 60, 100
2, 124412, Note_off_c, 0, 57, 100
2, 124416, Note_on_c, 0, 60, 80
2, 124416, Note_on_c, 0, 57, 80
2, 124604, Note_off_c, 0, 60, 100
2, 124604, Note_off_c, 0, 57, 100
2, 124608, Note_on_c, 0, 57, 80
2, 124608, Note_on_c, 0, 65, 80
2, 124796, Note_off_c, 0, 57, 100
2, 124796, Note_off_c, 0, 65, 100
2, 124800, Note_on_c, 0, 60, 80
2, 124800, Note_on_c, 0, 58, 80
2, 124988, Note_off_c, 0, 60, 100
2, 124988, Note_off_c, 0, 58, 100
2, 124992, Note_on_c, 0, 67, 80
2, 124992, Note_on_c, 0, 58, 80
2, 125180, Note_off_c, 0, 67, 100
2, 125180, Note_off_c, 0, 58, 100
2, 125184, Note_on_c, 0, 67, 80
2, 125184, Note_on_c, 0, 58, 80
2, 125372, Note_off_c, 0, 67, 100
2, 125372, Note_off_c, 0, 58, 100
2, 125376, Note_on_c, 0, 67, 80
2, 125376, Note_on_c, 0, 58, 80
2, 125564, Note_off_c, 0, 67, 100
2, 125564, Note_off_c, 0, 58, 100
2, 125568, Note_on_c, 0, 67, 80
2, 125568, Note_on_c, 0, 58, 80
2, 125756, Note_off_c, 0, 67, 100
2, 125756, Note_off_c, 0, 58, 100
2, 125760, Note_on_c, 0, 67, 80
2, 125760, Note_on_c, 0, 58, 80
2, 125948, Note_off_c, 0, 67, 100
2, 125948, Note_off_c, 0, 58, 100
2, 125952, Note_on_c, 0, 67, 80
2, 125952, Note_on_c, 0, 58, 80
2, 126044, Note_off_c, 0, 67, 100
2, 126044, Note_off_c, 0, 58, 100
2, 126048, Note_on_c, 0, 69, 80
2, 126140, Note_off_c, 0, 69, 100
2, 126144, Note_on_c, 0, 67, 80
2, 126144, Note_on_c, 0, 58, 80
2, 126236, Note_off_c, 0, 67, 100
2, 126236, Note_off_c, 0, 58, 100
2, 126240, Note_on_c, 0, 69, 80
2, 126332, Note_off_c, 0, 69, 100
2, 126336, Note_on_c, 0, 65, 80
2, 126336, Note_on_c, 0, 57, 80
2, 126524, Note_off_c, 0, 65, 100
2, 126524, Note_off_c, 0, 57, 100
2, 126528, Note_on_c, 0, 72, 80
2, 126528, Note_on_c, 0, 84, 80
2, 126528, Note_on_c, 0, 81, 80
2, 126716, Note_off_c, 0, 72, 100
2, 126716, Note_off_c, 0, 84, 100
2, 126716, Note_off_c, 0, 81, 100
2, 126720, Note_on_c, 0, 72, 80
2, 126720, Note_on_c, 0, 81, 80
2, 126720, Note_on_c, 0, 84, 80
2, 126908, Note_off_c, 0, 72, 100
2, 126908, Note_off_c, 0, 81, 100
2, 126908, Note_off_c, 0, 84, 100
2, 126912, Note_on_c, 0, 77, 80
2, 126912, Note_on_c, 0, 81, 80
2, 126912, Note_on_c, 0, 84, 80
2, 127100, Note_off_c, 0, 77, 100
2, 127100, Note_off_c, 0, 81, 100
2, 127100, Note_off_c, 0, 84, 100
2, 127104, Note_on_c, 0, 72, 80
2, 127104, Note_on_c, 0, 81, 80
2, 127104, Note_on_c, 0, 84, 80
2, 127292, Note_off_c, 0, 72, 100
2, 127292, Note_off_c, 0, 81, 100
2, 127292, Note_off_c, 0, 84, 100
2, 127296, Note_on_c, 0, 72, 80
2, 127296, Note_on_c, 0, 84, 80
2, 127296, Note_on_c, 0, 81, 80
2, 127484, Note_off_c, 0, 72, 100
2, 127484, Note_off_c, 0, 84, 100
2, 127484, Note_off_c, 0, 81, 100
2, 127488, Note_on_c, 0, 72, 80
2, 127488, Note_on_c, 0, 81, 80
2, 127488, Note_on_c, 0, 84, 80
2, 127676, Note_off_c, 0, 72, 100
2, 127676, Note_off_c, 0, 81, 100
2, 127676, Note_off_c, 0, 84, 100
2, 127680, Note_on_c, 0, 77, 80
2, 127680, Note_on_c, 0, 81, 80
2, 127680, Note_on_c, 0, 84, 80
2, 127868, Note_off_c, 0, 77, 100
2, 127868, Note_off_c, 0, 81, 100
2, 127868, Note_off_c, 0, 84, 100
2, 127872, Note_on_c, 0, 82, 80
2, 127872, Note_on_c, 0, 84, 80
2, 127872, Note_on_c, 0, 72, 80
2, 128060, Note_off_c, 0, 82, 100
2, 128060, Note_off_c, 0, 84, 100
2, 128060, Note_off_c, 0, 72, 100
2, 128064, Note_on_c, 0, 82, 84
2, 128064, Note_on_c, 0, 84, 84
2, 128064, Note_on_c, 0, 74, 84
2, 128252, Note_off_c, 0, 82, 100
2, 128252, Note_off_c, 0, 84, 100
2, 128252, Note_off_c, 0, 74, 100
2, 128256, Note_on_c, 0, 82, 89
2, 128256, Note_on_c, 0, 84, 89
2, 128256, Note_on_c, 0, 76, 89
2, 128444, Note_off_c, 0, 82, 100
2, 128444, Note_off_c, 0, 84, 100
2, 128444, Note_off_c, 0, 76, 100
2, 128448, Note_on_c, 0, 82, 94
2, 128448, Note_on_c, 0, 84, 94
2, 128448, Note_on_c, 0, 77, 94
2, 128636, Note_off_c, 0, 82, 100
2, 128636, Note_off_c, 0, 84, 100
2, 128636, Note_off_c, 0, 77, 100
2, 128640, Note_on_c, 0, 82, 90
2, 128640, Note_on_c, 0, 84, 90
2, 128640, Note_on_c, 0, 79, 90
2, 128828, Note_off_c, 0, 82, 100
2, 128828, Note_off_c, 0, 84, 100
2, 128828, Note_off_c, 0, 79, 100
2, 128832, Note_on_c, 0, 82, 87
2, 128832, Note_on_c, 0, 84, 87
2, 128832, Note_on_c, 0, 76, 87
2, 129020, Note_off_c, 0, 82, 100
2, 129020, Note_off_c, 0, 84, 100
2, 129020, Note_off_c, 0, 76, 100
2, 129024, Note_on_c, 0, 82, 84
2, 129024, Note_on_c, 0, 84, 84
2, 129024, Note_on_c, 0, 77, 84
2, 129212, Note_off_c, 0, 82, 100
2, 129212, Note_off_c, 0, 84, 100
2, 129212, Note_off_c, 0, 77, 100
2, 129216, Note_on_c, 0, 82, 81
2, 129216, Note_on_c, 0, 84, 81
2, 129216, Note_on_c, 0, 79, 81
2, 129404, Note_off_c, 0, 82, 100
2, 129404, Note_off_c, 0, 84, 100
2, 129404, Note_off_c, 0, 79, 100
2, 129408, Note_on_c, 0, 72, 80
2, 129408, Note_on_c, 0, 81, 80
2, 129408, Note_on_c, 0, 84, 80
2, 129596, Note_off_c, 0, 72, 100
2, 129596, Note_off_c, 0, 81, 100
2, 129596, Note_off_c, 0, 84, 100
2, 129600, Note_on_c, 0, 72, 80
2, 129600, Note_on_c, 0, 84, 80
2, 129600, Note_on_c, 0, 81, 80
2, 129788, Note_off_c, 0, 72, 100
2, 129788, Note_off_c, 0, 84, 100
2, 129788, Note_off_c, 0, 81, 100
2, 129792, Note_on_c, 0, 72, 80
2, 129792, Note_on_c, 0, 81, 80
2, 129792, Note_on_c, 0, 84, 80
2, 129980, Note_off_c, 0, 72, 100
2, 129980, Note_off_c, 0, 81, 100
2, 129980, Note_off_c, 0, 84, 100
2, 129984, Note_on_c, 0, 77, 80
2, 129984, Note_on_c, 0, 81, 80
2, 129984, Note_on_c, 0, 84, 80
2, 130172, Note_off_c, 0, 77, 100
2, 130172, Note_off_c, 0, 81, 100
2, 130172, Note_off_c, 0, 84, 100
2, 130176, Note_on_c, 0, 72, 80
2, 130176, Note_on_c, 0, 81, 80
2, 130176, Note_on_c, 0, 84, 80
2, 130364, Note_off_c, 0, 72, 100
2, 130364, Note_off_c, 0, 81, 100
2, 130364, Note_off_c, 0, 84, 100
2, 130368, Note_on_c, 0, 72, 80
2, 130368, Note_on_c, 0, 84, 80
2, 130368, Note_on_c, 0, 81, 80
2, 130556, Note_off_c, 0, 72, 100
2, 130556, Note_off_c, 0, 84, 100
2, 130556, Note_off_c, 0, 81, 100
2, 130560, Note_on_c, 0, 72, 80
2, 130560, Note_on_c, 0, 81, 80
2, 130560, Note_on_c, 0, 84, 80
2, 130748, Note_off_c, 0, 72, 100
2, 130748, Note_off_c, 0, 81, 100
2, 130748, Note_off_c, 0, 84, 100
2, 130752, Note_on_c, 0, 77, 80
2, 130752, Note_on_c, 0, 81, 80
2, 130752, Note_on_c, 0, 84, 80
2, 130940, Note_off_c, 0, 77, 100
2, 130940, Note_off_c, 0, 81, 100
2, 130940, Note_off_c, 0, 84, 100
2, 130944, Note_on_c, 0, 82, 80
2, 130944, Note_on_c, 0, 84, 80
2, 130944, Note_on_c, 0, 72, 80
2, 131132, Note_off_c, 0, 82, 100
2, 131132, Note_off_c, 0, 84, 100
2, 131132, Note_off_c, 0, 72, 100
2, 131136, Note_on_c, 0, 82, 84
2, 131136, Note_on_c, 0, 84, 84
2, 131136, Note_on_c, 0, 74, 84
2, 131324, Note_off_c, 0, 82, 100
2, 131324, Note_off_c, 0, 84, 100
2, 131324, Note_off_c, 0, 74, 100
2, 131328, Note_on_c, 0, 82, 89
2, 131328, Note_on_c, 0, 84, 89
2, 131328, Note_on_c, 0, 76, 89
2, 131516, Note_off_c, 0, 82, 100
2, 131516, Note_off_c, 0, 84, 100
2, 131516, Note_off_c, 0, 76, 100
2, 131520, Note_on_c, 0, 82, 94
2, 131520, Note_on_c, 0, 84, 94
2, 131520, Note_on_c, 0, 77, 94
2, 131708, Note_off_c, 0, 82, 100
2, 131708, Note_off_c, 0, 84, 100
2, 131708, Note_off_c, 0, 77, 100
2, 131712, Note_on_c, 0, 82, 90
2, 131712, Note_on_c, 0, 84, 90
2, 131712, Note_on_c, 0, 79, 90
2, 131900, Note_off_c, 0, 82, 100
2, 131900, Note_off_c, 0, 84, 100
2, 131900, Note_off_c, 0, 79, 100
2, 131904, Note_on_c, 0, 82, 87
2, 131904, Note_on_c, 0, 84, 87
2, 131904, Note_on_c, 0, 76, 87
2, 132092, Note_off_c, 0, 82, 100
2, 132092, Note_off_c, 0, 84, 100
2, 132092, Note_off_c, 0, 76, 100
2, 132096, Note_on_c, 0, 82, 84
2, 132096, Note_on_c, 0, 84, 84
2, 132096, Note_on_c, 0, 77, 84
2, 132284, Note_off_c, 0, 82, 100
2, 132284, Note_off_c, 0, 84, 100
2, 132284, Note_off_c, 0, 77, 100
2, 132288, Note_on_c, 0, 82, 81
2, 132288, Note_on_c, 0, 84, 81
2, 132288, Note_on_c, 0, 79, 81
2, 132476, Note_off_c, 0, 82, 100
2, 132476, Note_off_c, 0, 84, 100
2, 132476, Note_off_c, 0, 79, 100
2, 132480, Note_on_c, 0, 81, 80
2, 132480, Note_on_c, 0, 84, 80
2, 132480, Note_on_c, 0, 77, 80
2, 132668, Note_off_c, 0, 81, 100
2, 132668, Note_off_c, 0, 84, 100
2, 132668, Note_off_c, 0, 77, 100
2, 132672, Note_on_c, 0, 81, 80
2, 132672, Note_on_c, 0, 84, 80
2, 132860, Note_off_c, 0, 81, 100
2, 132860, Note_off_c, 0, 84, 100
2, 132864, Note_on_c, 0, 81, 80
2, 132864, Note_on_c, 0, 84, 80
2, 133052, Note_off_c, 0, 81, 100
2, 133052, Note_off_c, 0, 84, 100
2, 133056, Note_on_c, 0, 81, 80
2, 133056, Note_on_c, 0, 84, 80
2, 133244, Note_off_c, 0, 81, 100
2, 133244, Note_off_c, 0, 84, 100
2, 133248, Note_on_c, 0, 76, 80
2, 133248, Note_on_c, 0, 79, 80
2, 133248, Note_on_c, 0, 84, 80
2, 133436, Note_off_c, 0, 76, 100
2, 133436, Note_off_c, 0, 79, 100
2, 133436, Note_off_c, 0, 84, 100
2, 133440, Note_on_c, 0, 76, 80
2, 133440, Note_on_c, 0, 79, 80
2, 133440, Note_on_c, 0, 84, 80
2, 133628, Note_off_c, 0, 76, 100
2, 133628, Note_off_c, 0, 79, 100
2, 133628, Note_off_c, 0, 84, 100
2, 133632, Note_on_c, 0, 76, 80
2, 133632, Note_on_c, 0, 79, 80
2, 133632, Note_on_c, 0, 86, 80
2, 133820, Note_off_c, 0, 76, 100
2, 133820, Note_off_c, 0, 79, 100
2, 133820, Note_off_c, 0, 86, 100
2, 133824, Note_on_c, 0, 76, 80
2, 133824, Note_on_c, 0, 79, 80
2, 133824, Note_on_c, 0, 88, 80
2, 134012, Note_off_c, 0, 76, 100
2, 134012, Note_off_c, 0, 79, 100
2, 134012, Note_off_c, 0, 88, 100
2, 134016, Note_on_c, 0, 89, 80
2, 134016, Note_on_c, 0, 81, 80
2, 134016, Note_on_c, 0, 77, 80
2, 134204, Note_off_c, 0, 89, 100
2, 134204, Note_off_c, 0, 81, 100
2, 134204, Note_off_c, 0, 77, 100
2, 134208, Note_on_c, 0, 84, 81
2, 134208, Note_on_c, 0, 81, 81
2, 134208, Note_on_c, 0, 72, 81
2, 134396, Note_off_c, 0, 84, 100
2, 134396, Note_off_c, 0, 81, 100
2, 134396, Note_off_c, 0, 72, 100
2, 134400, Note_on_c, 0, 84, 83
2, 134400, Note_on_c, 0, 81, 83
2, 134400, Note_on_c, 0, 72, 83
2, 134588, Note_off_c, 0, 84, 100
2, 134588, Note_off_c, 0, 81, 100
2, 134588, Note_off_c, 0, 72, 100
2, 134592, Note_on_c, 0, 84, 85
2, 134592, Note_on_c, 0, 81, 85
2, 134592, Note_on_c, 0, 72, 85
2, 134780, Note_off_c, 0, 84, 100
2, 134780, Note_off_c, 0, 81, 100
2, 134780, Note_off_c, 0, 72, 100
2, 134784, Note_on_c, 0, 82, 87
2, 134784, Note_on_c, 0, 84, 87
2, 134784, Note_on_c, 0, 72, 87
2, 134972, Note_off_c, 0, 82, 100
2, 134972, Note_off_c, 0, 84, 100
2, 134972, Note_off_c, 0, 72, 100
2, 134976, Note_on_c, 0, 82, 89
2, 134976, Note_on_c, 0, 84, 89
2, 134976, Note_on_c, 0, 72, 89
2, 135164, Note_off_c, 0, 82, 100
2, 135164, Note_off_c, 0, 84, 100
2, 135164, Note_off_c, 0, 72, 100
2, 135168, Note_on_c, 0, 82, 91
2, 135168, Note_on_c, 0, 84, 91
2, 135168, Note_on_c, 0, 74, 91
2, 135356, Note_off_c, 0, 82, 100
2, 135356, Note_off_c, 0, 84, 100
2, 135356, Note_off_c, 0, 74, 100
2, 135360, Note_on_c, 0, 82, 93
2, 135360, Note_on_c, 0, 84, 93
2, 135360, Note_on_c, 0, 76, 93
2, 135548, Note_off_c, 0, 82, 100
2, 135548, Note_off_c, 0, 84, 100
2, 135548, Note_off_c, 0, 76, 100
2, 135552, Note_on_c, 0, 89, 95
2, 135552, Note_on_c, 0, 77, 95
2, 135740, Note_off_c, 0, 89, 100
2, 135740, Note_off_c, 0, 77, 100
2, 135744, Note_on_c, 0, 88, 97
2, 135744, Note_on_c, 0, 76, 97
2, 135932, Note_off_c, 0, 88, 100
2, 135932, Note_off_c, 0, 76, 100
2, 135936, Note_on_c, 0, 86, 99
2, 135936, Note_on_c, 0, 74, 99
2, 136124, Note_off_c, 0, 86, 100
2, 136124, Note_off_c, 0, 74, 100
2, 136128, Note_on_c, 0, 84, 101
2, 136128, Note_on_c, 0, 72, 101
2, 136316, Note_off_c, 0, 84, 100
2, 136316, Note_off_c, 0, 72, 100
2, 136320, Note_on_c, 0, 82, 103
2, 136320, Note_on_c, 0, 70, 103
2, 136508, Note_off_c, 0, 82, 100
2, 136508, Note_off_c, 0, 70, 100
2, 136512, Note_on_c, 0, 81, 105
2, 136512, Note_on_c, 0, 69, 105
2, 136700, Note_off_c, 0, 81, 100
2, 136700, Note_off_c, 0, 69, 100
2, 136704, Note_on_c, 0, 79, 107
2, 136704, Note_on_c, 0, 67, 107
2, 136892, Note_off_c, 0, 79, 100
2, 136892, Note_off_c, 0, 67, 100
2, 136896, Note_on_c, 0, 84, 109
2, 136896, Note_on_c, 0, 72, 109
2, 137084, Note_off_c, 0, 84, 100
2, 137084, Note_off_c, 0, 72, 100
2, 137088, Note_on_c, 0, 77, 120
2, 137088, Note_on_c, 0, 65, 120
2, 137276, Note_off_c, 0, 77, 100
2, 137276, Note_off_c, 0, 65, 100
2, 137280, Note_on_c, 0, 76, 120
2, 137280, Note_on_c, 0, 64, 120
2, 137468, Note_off_c, 0, 76, 100
2, 137468, Note_off_c, 0, 64, 100
2, 137472, Note_on_c, 0, 74, 120
2, 137472, Note_on_c, 0, 62, 120
2, 137660, Note_off_c, 0, 74, 100
2, 137660, Note_off_c, 0, 62, 100
2, 137664, Note_on_c, 0, 72, 120
2, 137664, Note_on_c, 0, 60, 120
2, 137852, Note_off_c, 0, 72, 100
2, 137852, Note_off_c, 0, 60, 100
2, 137856, Note_on_c, 0, 70, 120
2, 137856, Note_on_c, 0, 58, 120
2, 138044, Note_off_c, 0, 70, 100
2, 138044, Note_off_c, 0, 58, 100
2, 138048, Note_on_c, 0, 69, 120
2, 138048, Note_on_c, 0, 57, 120
2, 138236, Note_off_c, 0, 69, 100
2, 138236, Note_off_c, 0, 57, 100
2, 138240, Note_on_c, 0, 67, 120
2, 138240, Note_on_c, 0, 55, 120
2, 138428, Note_off_c, 0, 67, 100
2, 138428, Note_off_c, 0, 55, 100
2, 138432, Note_on_c, 0, 72, 120
2, 138432, Note_on_c, 0, 60, 120
2, 138620, Note_off_c, 0, 72, 100
2, 138620, Note_off_c, 0, 60, 100
2, 138624, Note_on_c, 0, 65, 120
2, 138624, Note_on_c, 0, 53, 120
2, 139196, Note_off_c, 0, 65, 100
2, 139196, Note_off_c, 0, 53, 100
2, 139584, Control_c, 0, 7, 0
2, 139776, Note_on_c, 0, 65, 1
2, 139964, Note_off_c, 0, 65, 100
2, 139964, End_track
3, 0, Start_track
3, 0, Title_t, "Left"
3, 0, Control_c, 1, 0, 0
3, 0, Program_c, 1, 0
3, 0, Control_c, 1, 7, 100
3, 0, Control_c, 1, 10, 55
3, 0, Control_c, 1, 91, 127
3, 0, Key_signature, -1, "major"
3, 192, Note_on_c, 1, 48, 100
3, 380, Note_off_c, 1, 48, 100
3, 384, Note_on_c, 1, 53, 100
3, 572, Note_off_c, 1, 53, 100
3, 576, Note_on_c, 1, 53, 100
3, 764, Note_off_c, 1, 53, 100
3, 768, Note_on_c, 1, 53, 100
3, 956, Note_off_c, 1, 53, 100
3, 960, Note_on_c, 1, 48, 100
3, 1148, Note_off_c, 1, 48, 100
3, 1152, Note_on_c, 1, 57, 100
3, 1340, Note_off_c, 1, 57, 100
3, 1344, Note_on_c, 1, 57, 100
3, 1532, Note_off_c, 1, 57, 100
3, 1536, Note_on_c, 1, 57, 100
3, 1724, Note_off_c, 1, 57, 100
3, 1728, Note_on_c, 1, 53, 100
3, 1916, Note_off_c, 1, 53, 100
3, 1920, Note_on_c, 1, 60, 100
3, 2108, Note_off_c, 1, 60, 100
3, 2112, Note_on_c, 1, 60, 100
3, 2300, Note_off_c, 1, 60, 100
3, 2304, Note_on_c, 1, 60, 100
3, 2396, Note_off_c, 1, 60, 100
3, 2400, Note_on_c, 1, 62, 100
3, 2492, Note_off_c, 1, 62, 100
3, 2496, Note_on_c, 1, 60, 100
3, 2588, Note_off_c, 1, 60, 100
3, 2592, Note_on_c, 1, 58, 100
3, 2684, Note_off_c, 1, 58, 100
3, 2688, Note_on_c, 1, 57, 100
3, 2876, Note_off_c, 1, 57, 100
3, 2880, Note_on_c, 1, 57, 100
3, 3068, Note_off_c, 1, 57, 100
3, 3072, Note_on_c, 1, 57, 100
3, 3164, Note_off_c, 1, 57, 100
3, 3168, Note_on_c, 1, 58, 100
3, 3260, Note_off_c, 1, 58, 100
3, 3264, Note_on_c, 1, 57, 100
3, 3356, Note_off_c, 1, 57, 100
3, 3360, Note_on_c, 1, 55, 100
3, 3452, Note_off_c, 1, 55, 100
3, 3456, Note_on_c, 1, 57, 100
3, 3644, Note_off_c, 1, 57, 100
3, 3648, Note_on_c, 1, 60, 100
3, 3740, Note_off_c, 1, 60, 100
3, 3744, Note_on_c, 1, 58, 100
3, 3836, Note_off_c, 1, 58, 100
3, 3840, Note_on_c, 1, 57, 100
3, 4028, Note_off_c, 1, 57, 100
3, 4032, Note_on_c, 1, 55, 100
3, 4220, Note_off_c, 1, 55, 100
3, 4224, Note_on_c, 1, 53, 100
3, 4412, Note_off_c, 1, 53, 100
3, 4416, Note_on_c, 1, 52, 100
3, 4604, Note_off_c, 1, 52, 100
3, 4608, Note_on_c, 1, 53, 100
3, 4796, Note_off_c, 1, 53, 100
3, 4800, Note_on_c, 1, 50, 100
3, 4988, Note_off_c, 1, 50, 100
3, 4992, Note_on_c, 1, 52, 100
3, 5180, Note_off_c, 1, 52, 100
3, 5184, Note_on_c, 1, 48, 100
3, 5372, Note_off_c, 1, 48, 100
3, 5376, Note_on_c, 1, 50, 100
3, 5564, Note_off_c, 1, 50, 100
3, 5568, Note_on_c, 1, 52, 100
3, 5756, Note_off_c, 1, 52, 100
3, 5760, Note_on_c, 1, 53, 100
3, 5948, Note_off_c, 1, 53, 100
3, 5952, Note_on_c, 1, 55, 100
3, 6140, Note_off_c, 1, 55, 100
3, 6144, Note_on_c, 1, 57, 100
3, 6332, Note_off_c, 1, 57, 100
3, 6336, Note_on_c, 1, 58, 100
3, 6524, Note_off_c, 1, 58, 100
3, 6528, Note_on_c, 1, 64, 100
3, 6528, Note_on_c, 1, 60, 100
3, 6716, Note_off_c, 1, 64, 100
3, 6716, Note_off_c, 1, 60, 100
3, 6720, Note_on_c, 1, 65, 100
3, 6720, Note_on_c, 1, 62, 100
3, 6908, Note_off_c, 1, 65, 100
3, 6908, Note_off_c, 1, 62, 100
3, 6912, Note_on_c, 1, 67, 100
3, 6912, Note_on_c, 1, 64, 100
3, 7100, Note_off_c, 1, 67, 100
3, 7100, Note_off_c, 1, 64, 100
3, 7104, Note_on_c, 1, 65, 100
3, 7104, Note_on_c, 1, 62, 100
3, 7292, Note_off_c, 1, 65, 100
3, 7292, Note_off_c, 1, 62, 100
3, 7296, Note_on_c, 1, 64, 100
3, 7296, Note_on_c, 1, 60, 100
3, 7484, Note_off_c, 1, 64, 100
3, 7484, Note_off_c, 1, 60, 100
3, 7488, Note_on_c, 1, 62, 100
3, 7488, Note_on_c, 1, 59, 100
3, 7676, Note_off_c, 1, 62, 100
3, 7676, Note_off_c, 1, 59, 100
3, 7680, Note_on_c, 1, 64, 100
3, 7680, Note_on_c, 1, 60, 100
3, 7868, Note_off_c, 1, 64, 100
3, 7868, Note_off_c, 1, 60, 100
3, 7872, Note_on_c, 1, 60, 100
3, 7872, Note_on_c, 1, 57, 100
3, 8060, Note_off_c, 1, 60, 100
3, 8060, Note_off_c, 1, 57, 100
3, 8064, Note_on_c, 1, 62, 100
3, 8064, Note_on_c, 1, 59, 100
3, 8252, Note_off_c, 1, 62, 100
3, 8252, Note_off_c, 1, 59, 100
3, 8256, Note_on_c, 1, 59, 100
3, 8256, Note_on_c, 1, 55, 100
3, 8444, Note_off_c, 1, 59, 100
3, 8444, Note_off_c, 1, 55, 100
3, 8448, Note_on_c, 1, 60, 100
3, 8448, Note_on_c, 1, 57, 100
3, 8636, Note_off_c, 1, 60, 100
3, 8636, Note_off_c, 1, 57, 100
3, 8640, Note_on_c, 1, 62, 100
3, 8640, Note_on_c, 1, 59, 100
3, 8828, Note_off_c, 1, 62, 100
3, 8828, Note_off_c, 1, 59, 100
3, 8832, Note_on_c, 1, 64, 100
3, 8832, Note_on_c, 1, 60, 100
3, 9020, Note_off_c, 1, 64, 100
3, 9020, Note_off_c, 1, 60, 100
3, 9024, Note_on_c, 1, 65, 100
3, 9024, Note_on_c, 1, 62, 100
3, 9212, Note_off_c, 1, 65, 100
3, 9212, Note_off_c, 1, 62, 100
3, 9216, Note_on_c, 1, 67, 100
3, 9216, Note_on_c, 1, 64, 100
3, 9404, Note_off_c, 1, 67, 100
3, 9404, Note_off_c, 1, 64, 100
3, 9408, Note_on_c, 1, 64, 100
3, 9408, Note_on_c, 1, 60, 100
3, 9596, Note_off_c, 1, 64, 100
3, 9596, Note_off_c, 1, 60, 100
3, 9600, Note_on_c, 1, 64, 100
3, 9600, Note_on_c, 1, 61, 100
3, 9788, Note_off_c, 1, 64, 100
3, 9788, Note_off_c, 1, 61, 100
3, 9792, Note_on_c, 1, 61, 100
3, 9792, Note_on_c, 1, 57, 100
3, 9980, Note_off_c, 1, 61, 100
3, 9980, Note_off_c, 1, 57, 100
3, 9984, Note_on_c, 1, 62, 100
3, 9984, Note_on_c, 1, 59, 100
3, 10172, Note_off_c, 1, 62, 100
3, 10172, Note_off_c, 1, 59, 100
3, 10176, Note_on_c, 1, 64, 100
3, 10176, Note_on_c, 1, 61, 100
3, 10364, Note_off_c, 1, 64, 100
3, 10364, Note_off_c, 1, 61, 100
3, 10368, Note_on_c, 1, 65, 100
3, 10368, Note_on_c, 1, 62, 100
3, 10556, Note_off_c, 1, 65, 100
3, 10556, Note_off_c, 1, 62, 100
3, 10560, Note_on_c, 1, 67, 100
3, 10560, Note_on_c, 1, 64, 100
3, 10748, Note_off_c, 1, 67, 100
3, 10748, Note_off_c, 1, 64, 100
3, 10752, Note_on_c, 1, 69, 100
3, 10752, Note_on_c, 1, 65, 100
3, 10940, Note_off_c, 1, 69, 100
3, 10940, Note_off_c, 1, 65, 100
3, 10944, Note_on_c, 1, 65, 100
3, 10944, Note_on_c, 1, 62, 100
3, 11132, Note_off_c, 1, 65, 100
3, 11132, Note_off_c, 1, 62, 100
3, 11136, Note_on_c, 1, 67, 100
3, 11136, Note_on_c, 1, 62, 100
3, 11136, Note_on_c, 1, 59, 100
3, 11324, Note_off_c, 1, 67, 100
3, 11324, Note_off_c, 1, 62, 100
3, 11324, Note_off_c, 1, 59, 100
3, 11328, Note_on_c, 1, 67, 100
3, 11328, Note_on_c, 1, 62, 100
3, 11328, Note_on_c, 1, 59, 100
3, 11516, Note_off_c, 1, 67, 100
3, 11516, Note_off_c, 1, 62, 100
3, 11516, Note_off_c, 1, 59, 100
3, 11520, Note_on_c, 1, 67, 100
3, 11520, Note_on_c, 1, 64, 100
3, 11520, Note_on_c, 1, 60, 100
3, 11708, Note_off_c, 1, 67, 100
3, 11708, Note_off_c, 1, 64, 100
3, 11708, Note_off_c, 1, 60, 100
3, 11904, Note_on_c, 1, 67, 100
3, 11904, Note_on_c, 1, 62, 100
3, 11904, Note_on_c, 1, 59, 100
3, 12092, Note_off_c, 1, 67, 100
3, 12092, Note_off_c, 1, 62, 100
3, 12092, Note_off_c, 1, 59, 100
3, 12096, Note_on_c, 1, 67, 100
3, 12096, Note_on_c, 1, 62, 100
3, 12096, Note_on_c, 1, 59, 100
3, 12284, Note_off_c, 1, 67, 100
3, 12284, Note_off_c, 1, 62, 100
3, 12284, Note_off_c, 1, 59, 100
3, 12288, Note_on_c, 1, 67, 100
3, 12288, Note_on_c, 1, 64, 100
3, 12288, Note_on_c, 1, 60, 100
3, 12476, Note_off_c, 1, 67, 100
3, 12476, Note_off_c, 1, 64, 100
3, 12476, Note_off_c, 1, 60, 100
3, 12672, Note_on_c, 1, 53, 100
3, 12672, Note_on_c, 1, 57, 100
3, 12672, Note_on_c, 1, 62, 100
3, 12860, Note_off_c, 1, 53, 100
3, 12860, Note_off_c, 1, 57, 100
3, 12860, Note_off_c, 1, 62, 100
3, 13056, Note_on_c, 1, 62, 100
3, 13056, Note_on_c, 1, 59, 100
3, 13056, Note_on_c, 1, 55, 100
3, 13244, Note_off_c, 1, 62, 100
3, 13244, Note_off_c, 1, 59, 100
3, 13244, Note_off_c, 1, 55, 100
3, 13440, Note_on_c, 1, 60, 100
3, 13440, Note_on_c, 1, 55, 100
3, 13440, Note_on_c, 1, 52, 100
3, 13440, Note_on_c, 1, 48, 100
3, 13820, Note_off_c, 1, 60, 100
3, 13820, Note_off_c, 1, 55, 100
3, 13820, Note_off_c, 1, 52, 100
3, 13820, Note_off_c, 1, 48, 100
3, 14208, Note_on_c, 1, 55, 100
3, 14208, Note_on_c, 1, 53, 100
3, 14208, Note_on_c, 1, 50, 100
3, 14208, Note_on_c, 1, 47, 100
3, 14396, Note_off_c, 1, 55, 100
3, 14396, Note_off_c, 1, 53, 100
3, 14396, Note_off_c, 1, 50, 100
3, 14396, Note_off_c, 1, 47, 100
3, 14400, Note_on_c, 1, 55, 100
3, 14400, Note_on_c, 1, 53, 100
3, 14400, Note_on_c, 1, 50, 100
3, 14400, Note_on_c, 1, 47, 100
3, 14588, Note_off_c, 1, 55, 100
3, 14588, Note_off_c, 1, 53, 100
3, 14588, Note_off_c, 1, 50, 100
3, 14588, Note_off_c, 1, 47, 100
3, 14592, Note_on_c, 1, 55, 100
3, 14592, Note_on_c, 1, 52, 100
3, 14592, Note_on_c, 1, 48, 100
3, 14780, Note_off_c, 1, 55, 100
3, 14780, Note_off_c, 1, 52, 100
3, 14780, Note_off_c, 1, 48, 100
3, 14976, Note_on_c, 1, 55, 100
3, 14976, Note_on_c, 1, 53, 100
3, 14976, Note_on_c, 1, 50, 100
3, 14976, Note_on_c, 1, 47, 100
3, 15164, Note_off_c, 1, 55, 100
3, 15164, Note_off_c, 1, 53, 100
3, 15164, Note_off_c, 1, 50, 100
3, 15164, Note_off_c, 1, 47, 100
3, 15168, Note_on_c, 1, 55, 100
3, 15168, Note_on_c, 1, 53, 100
3, 15168, Note_on_c, 1, 50, 100
3, 15168, Note_on_c, 1, 47, 100
3, 15356, Note_off_c, 1, 55, 100
3, 15356, Note_off_c, 1, 53, 100
3, 15356, Note_off_c, 1, 50, 100
3, 15356, Note_off_c, 1, 47, 100
3, 15360, Note_on_c, 1, 55, 100
3, 15360, Note_on_c, 1, 52, 100
3, 15360, Note_on_c, 1, 48, 100
3, 15548, Note_off_c, 1, 55, 100
3, 15548, Note_off_c, 1, 52, 100
3, 15548, Note_off_c, 1, 48, 100
3, 15744, Note_on_c, 1, 41, 110
3, 15932, Note_off_c, 1, 41, 100
3, 15936, Note_on_c, 1, 53, 110
3, 16124, Note_off_c, 1, 53, 100
3, 16128, Note_on_c, 1, 53, 110
3, 16316, Note_off_c, 1, 53, 100
3, 16320, Note_on_c, 1, 53, 110
3, 16508, Note_off_c, 1, 53, 100
3, 16512, Note_on_c, 1, 43, 110
3, 16700, Note_off_c, 1, 43, 100
3, 16704, Note_on_c, 1, 55, 110
3, 16892, Note_off_c, 1, 55, 100
3, 16896, Note_on_c, 1, 55, 110
3, 17084, Note_off_c, 1, 55, 100
3, 17088, Note_on_c, 1, 55, 110
3, 17276, Note_off_c, 1, 55, 100
3, 17280, Note_on_c, 1, 48, 110
3, 17280, Note_on_c, 1, 36, 110
3, 17468, Note_off_c, 1, 48, 100
3, 17472, Note_on_c, 1, 48, 80
3, 17660, Note_off_c, 1, 48, 100
3, 17664, Note_on_c, 1, 48, 80
3, 17852, Note_off_c, 1, 48, 100
3, 17856, Note_on_c, 1, 43, 80
3, 18044, Note_off_c, 1, 36, 100
3, 18044, Note_off_c, 1, 43, 100
3, 18048, Note_on_c, 1, 48, 80
3, 18048, Note_on_c, 1, 36, 80
3, 18236, Note_off_c, 1, 48, 100
3, 18240, Note_on_c, 1, 48, 80
3, 18428, Note_off_c, 1, 48, 100
3, 18432, Note_on_c, 1, 48, 80
3, 18620, Note_off_c, 1, 48, 100
3, 18624, Note_on_c, 1, 43, 80
3, 18812, Note_off_c, 1, 36, 100
3, 18812, Note_off_c, 1, 43, 100
3, 18816, Note_on_c, 1, 36, 80
3, 18816, Note_on_c, 1, 50, 80
3, 19004, Note_off_c, 1, 50, 100
3, 19008, Note_on_c, 1, 48, 80
3, 19196, Note_off_c, 1, 48, 100
3, 19200, Note_on_c, 1, 47, 80
3, 19388, Note_off_c, 1, 47, 100
3, 19392, Note_on_c, 1, 45, 80
3, 19580, Note_off_c, 1, 45, 100
3, 19584, Note_on_c, 1, 43, 80
3, 19772, Note_off_c, 1, 43, 100
3, 19776, Note_on_c, 1, 45, 80
3, 19964, Note_off_c, 1, 45, 100
3, 19968, Note_on_c, 1, 47, 80
3, 20156, Note_off_c, 1, 47, 100
3, 20160, Note_on_c, 1, 43, 80
3, 20348, Note_off_c, 1, 36, 100
3, 20348, Note_off_c, 1, 43, 100
3, 20352, Note_on_c, 1, 48, 80
3, 20352, Note_on_c, 1, 36, 80
3, 20540, Note_off_c, 1, 48, 100
3, 20544, Note_on_c, 1, 48, 80
3, 20732, Note_off_c, 1, 48, 100
3, 20736, Note_on_c, 1, 48, 80
3, 20924, Note_off_c, 1, 48, 100
3, 20928, Note_on_c, 1, 43, 80
3, 21116, Note_off_c, 1, 36, 100
3, 21116, Note_off_c, 1, 43, 100
3, 21120, Note_on_c, 1, 48, 80
3, 21120, Note_on_c, 1, 36, 80
3, 21308, Note_off_c, 1, 48, 100
3, 21312, Note_on_c, 1, 48, 80
3, 21500, Note_off_c, 1, 48, 100
3, 21504, Note_on_c, 1, 48, 80
3, 21692, Note_off_c, 1, 48, 100
3, 21696, Note_on_c, 1, 43, 80
3, 21884, Note_off_c, 1, 36, 100
3, 21884, Note_off_c, 1, 43, 100
3, 21888, Note_on_c, 1, 36, 80
3, 21888, Note_on_c, 1, 50, 80
3, 22076, Note_off_c, 1, 50, 100
3, 22080, Note_on_c, 1, 48, 80
3, 22268, Note_off_c, 1, 48, 100
3, 22272, Note_on_c, 1, 47, 80
3, 22460, Note_off_c, 1, 47, 100
3, 22464, Note_on_c, 1, 45, 80
3, 22652, Note_off_c, 1, 45, 100
3, 22656, Note_on_c, 1, 43, 80
3, 22844, Note_off_c, 1, 43, 100
3, 22848, Note_on_c, 1, 45, 80
3, 23036, Note_off_c, 1, 45, 100
3, 23040, Note_on_c, 1, 47, 80
3, 23228, Note_off_c, 1, 47, 100
3, 23232, Note_on_c, 1, 43, 80
3, 23420, Note_off_c, 1, 36, 100
3, 23420, Note_off_c, 1, 43, 100
3, 23424, Note_on_c, 1, 48, 80
3, 23424, Note_on_c, 1, 36, 80
3, 23612, Note_off_c, 1, 48, 100
3, 23612, Note_off_c, 1, 36, 100
3, 23616, Note_on_c, 1, 43, 80
3, 23804, Note_off_c, 1, 43, 100
3, 23808, Note_on_c, 1, 48, 80
3, 23808, Note_on_c, 1, 36, 80
3, 23996, Note_off_c, 1, 48, 100
3, 23996, Note_off_c, 1, 36, 100
3, 24000, Note_on_c, 1, 43, 80
3, 24188, Note_off_c, 1, 43, 100
3, 24192, Note_on_c, 1, 48, 80
3, 24192, Note_on_c, 1, 36, 80
3, 24572, Note_off_c, 1, 48, 100
3, 24572, Note_off_c, 1, 36, 100
3, 24768, Note_on_c, 1, 48, 100
3, 24956, Note_off_c, 1, 48, 100
3, 24960, Note_on_c, 1, 53, 100
3, 25148, Note_off_c, 1, 53, 100
3, 25152, Note_on_c, 1, 53, 100
3, 25340, Note_off_c, 1, 53, 100
3, 25344, Note_on_c, 1, 53, 100
3, 25532, Note_off_c, 1, 53, 100
3, 25536, Note_on_c, 1, 48, 100
3, 25724, Note_off_c, 1, 48, 100
3, 25728, Note_on_c, 1, 57, 100
3, 25916, Note_off_c, 1, 57, 100
3, 25920, Note_on_c, 1, 57, 100
3, 26108, Note_off_c, 1, 57, 100
3, 26112, Note_on_c, 1, 57, 100
3, 26300, Note_off_c, 1, 57, 100
3, 26304, Note_on_c, 1, 53, 100
3, 26492, Note_off_c, 1, 53, 100
3, 26496, Note_on_c, 1, 60, 100
3, 26684, Note_off_c, 1, 60, 100
3, 26688, Note_on_c, 1, 60, 100
3, 26876, Note_off_c, 1, 60, 100
3, 26880, Note_on_c, 1, 60, 100
3, 26972, Note_off_c, 1, 60, 100
3, 26976, Note_on_c, 1, 62, 100
3, 27068, Note_off_c, 1, 62, 100
3, 27072, Note_on_c, 1, 60, 100
3, 27164, Note_off_c, 1, 60, 100
3, 27168, Note_on_c, 1, 58, 100
3, 27260, Note_off_c, 1, 58, 100
3, 27264, Note_on_c, 1, 57, 100
3, 27452, Note_off_c, 1, 57, 100
3, 27456, Note_on_c, 1, 57, 100
3, 27644, Note_off_c, 1, 57, 100
3, 27648, Note_on_c, 1, 57, 100
3, 27740, Note_off_c, 1, 57, 100
3, 27744, Note_on_c, 1, 58, 100
3, 27836, Note_off_c, 1, 58, 100
3, 27840, Note_on_c, 1, 57, 100
3, 27932, Note_off_c, 1, 57, 100
3, 27936, Note_on_c, 1, 55, 100
3, 28028, Note_off_c, 1, 55, 100
3, 28032, Note_on_c, 1, 57, 100
3, 28220, Note_off_c, 1, 57, 100
3, 28224, Note_on_c, 1, 60, 100
3, 28316, Note_off_c, 1, 60, 100
3, 28320, Note_on_c, 1, 58, 100
3, 28412, Note_off_c, 1, 58, 100
3, 28416, Note_on_c, 1, 57, 100
3, 28604, Note_off_c, 1, 57, 100
3, 28608, Note_on_c, 1, 55, 100
3, 28796, Note_off_c, 1, 55, 100
3, 28800, Note_on_c, 1, 53, 100
3, 28988, Note_off_c, 1, 53, 100
3, 28992, Note_on_c, 1, 52, 100
3, 29180, Note_off_c, 1, 52, 100
3, 29184, Note_on_c, 1, 53, 100
3, 29372, Note_off_c, 1, 53, 100
3, 29376, Note_on_c, 1, 50, 100
3, 29564, Note_off_c, 1, 50, 100
3, 29568, Note_on_c, 1, 52, 100
3, 29756, Note_off_c, 1, 52, 100
3, 29760, Note_on_c, 1, 48, 100
3, 29948, Note_off_c, 1, 48, 100
3, 29952, Note_on_c, 1, 50, 100
3, 30140, Note_off_c, 1, 50, 100
3, 30144, Note_on_c, 1, 52, 100
3, 30332, Note_off_c, 1, 52, 100
3, 30336, Note_on_c, 1, 53, 100
3, 30524, Note_off_c, 1, 53, 100
3, 30528, Note_on_c, 1, 55, 100
3, 30716, Note_off_c, 1, 55, 100
3, 30720, Note_on_c, 1, 57, 100
3, 30908, Note_off_c, 1, 57, 100
3, 30912, Note_on_c, 1, 58, 100
3, 31100, Note_off_c, 1, 58, 100
3, 31104, Note_on_c, 1, 64, 100
3, 31104, Note_on_c, 1, 60, 100
3, 31292, Note_off_c, 1, 64, 100
3, 31292, Note_off_c, 1, 60, 100
3, 31296, Note_on_c, 1, 65, 100
3, 31296, Note_on_c, 1, 62, 100
3, 31484, Note_off_c, 1, 65, 100
3, 31484, Note_off_c, 1, 62, 100
3, 31488, Note_on_c, 1, 67, 100
3, 31488, Note_on_c, 1, 64, 100
3, 31676, Note_off_c, 1, 67, 100
3, 31676, Note_off_c, 1, 64, 100
3, 31680, Note_on_c, 1, 65, 100
3, 31680, Note_on_c, 1, 62, 100
3, 31868, Note_off_c, 1, 65, 100
3, 31868, Note_off_c, 1, 62, 100
3, 31872, Note_on_c, 1, 64, 100
3, 31872, Note_on_c, 1, 60, 100
3, 32060, Note_off_c, 1, 64, 100
3, 32060, Note_off_c, 1, 60, 100
3, 32064, Note_on_c, 1, 62, 100
3, 32064, Note_on_c, 1, 59, 100
3, 32252, Note_off_c, 1, 62, 100
3, 32252, Note_off_c, 1, 59, 100
3, 32256, Note_on_c, 1, 64, 100
3, 32256, Note_on_c, 1, 60, 100
3, 32444, Note_off_c, 1, 64, 100
3, 32444, Note_off_c, 1, 60, 100
3, 32448, Note_on_c, 1, 60, 100
3, 32448, Note_on_c, 1, 57, 100
3, 32636, Note_off_c, 1, 60, 100
3, 32636, Note_off_c, 1, 57, 100
3, 32640, Note_on_c, 1, 62, 100
3, 32640, Note_on_c, 1, 59, 100
3, 32828, Note_off_c, 1, 62, 100
3, 32828, Note_off_c, 1, 59, 100
3, 32832, Note_on_c, 1, 59, 100
3, 32832, Note_on_c, 1, 55, 100
3, 33020, Note_off_c, 1, 59, 100
3, 33020, Note_off_c, 1, 55, 100
3, 33024, Note_on_c, 1, 60, 100
3, 33024, Note_on_c, 1, 57, 100
3, 33212, Note_off_c, 1, 60, 100
3, 33212, Note_off_c, 1, 57, 100
3, 33216, Note_on_c, 1, 62, 100
3, 33216, Note_on_c, 1, 59, 100
3, 33404, Note_off_c, 1, 62, 100
3, 33404, Note_off_c, 1, 59, 100
3, 33408, Note_on_c, 1, 64, 100
3, 33408, Note_on_c, 1, 60, 100
3, 33596, Note_off_c, 1, 64, 100
3, 33596, Note_off_c, 1, 60, 100
3, 33600, Note_on_c, 1, 65, 100
3, 33600, Note_on_c, 1, 62, 100
3, 33788, Note_off_c, 1, 65, 100
3, 33788, Note_off_c, 1, 62, 100
3, 33792, Note_on_c, 1, 67, 100
3, 33792, Note_on_c, 1, 64, 100
3, 33980, Note_off_c, 1, 67, 100
3, 33980, Note_off_c, 1, 64, 100
3, 33984, Note_on_c, 1, 64, 100
3, 33984, Note_on_c, 1, 60, 100
3, 34172, Note_off_c, 1, 64, 100
3, 34172, Note_off_c, 1, 60, 100
3, 34176, Note_on_c, 1, 64, 100
3, 34176, Note_on_c, 1, 61, 100
3, 34364, Note_off_c, 1, 64, 100
3, 34364, Note_off_c, 1, 61, 100
3, 34368, Note_on_c, 1, 61, 100
3, 34368, Note_on_c, 1, 57, 100
3, 34556, Note_off_c, 1, 61, 100
3, 34556, Note_off_c, 1, 57, 100
3, 34560, Note_on_c, 1, 62, 100
3, 34560, Note_on_c, 1, 59, 100
3, 34748, Note_off_c, 1, 62, 100
3, 34748, Note_off_c, 1, 59, 100
3, 34752, Note_on_c, 1, 64, 100
3, 34752, Note_on_c, 1, 61, 100
3, 34940, Note_off_c, 1, 64, 100
3, 34940, Note_off_c, 1, 61, 100
3, 34944, Note_on_c, 1, 65, 100
3, 34944, Note_on_c, 1, 62, 100
3, 35132, Note_off_c, 1, 65, 100
3, 35132, Note_off_c, 1, 62, 100
3, 35136, Note_on_c, 1, 67, 100
3, 35136, Note_on_c, 1, 64, 100
3, 35324, Note_off_c, 1, 67, 100
3, 35324, Note_off_c, 1, 64, 100
3, 35328, Note_on_c, 1, 69, 100
3, 35328, Note_on_c, 1, 65, 100
3, 35516, Note_off_c, 1, 69, 100
3, 35516, Note_off_c, 1, 65, 100
3, 35520, Note_on_c, 1, 65, 100
3, 35520, Note_on_c, 1, 62, 100
3, 35708, Note_off_c, 1, 65, 100
3, 35708, Note_off_c, 1, 62, 100
3, 35712, Note_on_c, 1, 67, 100
3, 35712, Note_on_c, 1, 62, 100
3, 35712, Note_on_c, 1, 59, 100
3, 35900, Note_off_c, 1, 67, 100
3, 35900, Note_off_c, 1, 62, 100
3, 35900, Note_off_c, 1, 59, 100
3, 35904, Note_on_c, 1, 67, 100
3, 35904, Note_on_c, 1, 62, 100
3, 35904, Note_on_c, 1, 59, 100
3, 36092, Note_off_c, 1, 67, 100
3, 36092, Note_off_c, 1, 62, 100
3, 36092, Note_off_c, 1, 59, 100
3, 36096, Note_on_c, 1, 67, 100
3, 36096, Note_on_c, 1, 64, 100
3, 36096, Note_on_c, 1, 60, 100
3, 36284, Note_off_c, 1, 67, 100
3, 36284, Note_off_c, 1, 64, 100
3, 36284, Note_off_c, 1, 60, 100
3, 36480, Note_on_c, 1, 67, 100
3, 36480, Note_on_c, 1, 62, 100
3, 36480, Note_on_c, 1, 59, 100
3, 36668, Note_off_c, 1, 67, 100
3, 36668, Note_off_c, 1, 62, 100
3, 36668, Note_off_c, 1, 59, 100
3, 36672, Note_on_c, 1, 67, 100
3, 36672, Note_on_c, 1, 62, 100
3, 36672, Note_on_c, 1, 59, 100
3, 36860, Note_off_c, 1, 67, 100
3, 36860, Note_off_c, 1, 62, 100
3, 36860, Note_off_c, 1, 59, 100
3, 36864, Note_on_c, 1, 67, 100
3, 36864, Note_on_c, 1, 64, 100
3, 36864, Note_on_c, 1, 60, 100
3, 37052, Note_off_c, 1, 67, 100
3, 37052, Note_off_c, 1, 64, 100
3, 37052, Note_off_c, 1, 60, 100
3, 37248, Note_on_c, 1, 53, 100
3, 37248, Note_on_c, 1, 57, 100
3, 37248, Note_on_c, 1, 62, 100
3, 37436, Note_off_c, 1, 53, 100
3, 37436, Note_off_c, 1, 57, 100
3, 37436, Note_off_c, 1, 62, 100
3, 37632, Note_on_c, 1, 62, 100
3, 37632, Note_on_c, 1, 59, 100
3, 37632, Note_on_c, 1, 55, 100
3, 37820, Note_off_c, 1, 62, 100
3, 37820, Note_off_c, 1, 59, 100
3, 37820, Note_off_c, 1, 55, 100
3, 38016, Note_on_c, 1, 60, 100
3, 38016, Note_on_c, 1, 55, 100
3, 38016, Note_on_c, 1, 52, 100
3, 38016, Note_on_c, 1, 48, 100
3, 38396, Note_off_c, 1, 60, 100
3, 38396, Note_off_c, 1, 55, 100
3, 38396, Note_off_c, 1, 52, 100
3, 38396, Note_off_c, 1, 48, 100
3, 38784, Note_on_c, 1, 55, 100
3, 38784, Note_on_c, 1, 53, 100
3, 38784, Note_on_c, 1, 50, 100
3, 38784, Note_on_c, 1, 47, 100
3, 38972, Note_off_c, 1, 55, 100
3, 38972, Note_off_c, 1, 53, 100
3, 38972, Note_off_c, 1, 50, 100
3, 38972, Note_off_c, 1, 47, 100
3, 38976, Note_on_c, 1, 55, 100
3, 38976, Note_on_c, 1, 53, 100
3, 38976, Note_on_c, 1, 50, 100
3, 38976, Note_on_c, 1, 47, 100
3, 39164, Note_off_c, 1, 55, 100
3, 39164, Note_off_c, 1, 53, 100
3, 39164, Note_off_c, 1, 50, 100
3, 39164, Note_off_c, 1, 47, 100
3, 39168, Note_on_c, 1, 55, 100
3, 39168, Note_on_c, 1, 52, 100
3, 39168, Note_on_c, 1, 48, 100
3, 39356, Note_off_c, 1, 55, 100
3, 39356, Note_off_c, 1, 52, 100
3, 39356, Note_off_c, 1, 48, 100
3, 39552, Note_on_c, 1, 55, 100
3, 39552, Note_on_c, 1, 53, 100
3, 39552, Note_on_c, 1, 50, 100
3, 39552, Note_on_c, 1, 47, 100
3, 39740, Note_off_c, 1, 55, 100
3, 39740, Note_off_c, 1, 53, 100
3, 39740, Note_off_c, 1, 50, 100
3, 39740, Note_off_c, 1, 47, 100
3, 39744, Note_on_c, 1, 55, 100
3, 39744, Note_on_c, 1, 53, 100
3, 39744, Note_on_c, 1, 50, 100
3, 39744, Note_on_c, 1, 47, 100
3, 39932, Note_off_c, 1, 55, 100
3, 39932, Note_off_c, 1, 53, 100
3, 39932, Note_off_c, 1, 50, 100
3, 39932, Note_off_c, 1, 47, 100
3, 39936, Note_on_c, 1, 55, 100
3, 39936, Note_on_c, 1, 52, 100
3, 39936, Note_on_c, 1, 48, 100
3, 40124, Note_off_c, 1, 55, 100
3, 40124, Note_off_c, 1, 52, 100
3, 40124, Note_off_c, 1, 48, 100
3, 40320, Note_on_c, 1, 41, 110
3, 40508, Note_off_c, 1, 41, 100
3, 40512, Note_on_c, 1, 53, 110
3, 40700, Note_off_c, 1, 53, 100
3, 40704, Note_on_c, 1, 53, 110
3, 40892, Note_off_c, 1, 53, 100
3, 40896, Note_on_c, 1, 53, 110
3, 41084, Note_off_c, 1, 53, 100
3, 41088, Note_on_c, 1, 43, 110
3, 41276, Note_off_c, 1, 43, 100
3, 41280, Note_on_c, 1, 55, 110
3, 41468, Note_off_c, 1, 55, 100
3, 41472, Note_on_c, 1, 55, 110
3, 41660, Note_off_c, 1, 55, 100
3, 41664, Note_on_c, 1, 55, 110
3, 41852, Note_off_c, 1, 55, 100
3, 41856, Note_on_c, 1, 48, 110
3, 41856, Note_on_c, 1, 36, 110
3, 42044, Note_off_c, 1, 48, 100
3, 42048, Note_on_c, 1, 48, 80
3, 42236, Note_off_c, 1, 48, 100
3, 42240, Note_on_c, 1, 48, 80
3, 42428, Note_off_c, 1, 48, 100
3, 42432, Note_on_c, 1, 43, 80
3, 42620, Note_off_c, 1, 36, 100
3, 42620, Note_off_c, 1, 43, 100
3, 42624, Note_on_c, 1, 48, 80
3, 42624, Note_on_c, 1, 36, 80
3, 42812, Note_off_c, 1, 48, 100
3, 42816, Note_on_c, 1, 48, 80
3, 43004, Note_off_c, 1, 48, 100
3, 43008, Note_on_c, 1, 48, 80
3, 43196, Note_off_c, 1, 48, 100
3, 43200, Note_on_c, 1, 43, 80
3, 43388, Note_off_c, 1, 36, 100
3, 43388, Note_off_c, 1, 43, 100
3, 43392, Note_on_c, 1, 36, 80
3, 43392, Note_on_c, 1, 50, 80
3, 43580, Note_off_c, 1, 50, 100
3, 43584, Note_on_c, 1, 48, 80
3, 43772, Note_off_c, 1, 48, 100
3, 43776, Note_on_c, 1, 47, 80
3, 43964, Note_off_c, 1, 47, 100
3, 43968, Note_on_c, 1, 45, 80
3, 44156, Note_off_c, 1, 45, 100
3, 44160, Note_on_c, 1, 43, 80
3, 44348, Note_off_c, 1, 43, 100
3, 44352, Note_on_c, 1, 45, 80
3, 44540, Note_off_c, 1, 45, 100
3, 44544, Note_on_c, 1, 47, 80
3, 44732, Note_off_c, 1, 47, 100
3, 44736, Note_on_c, 1, 43, 80
3, 44924, Note_off_c, 1, 36, 100
3, 44924, Note_off_c, 1, 43, 100
3, 44928, Note_on_c, 1, 48, 80
3, 44928, Note_on_c, 1, 36, 80
3, 45116, Note_off_c, 1, 48, 100
3, 45120, Note_on_c, 1, 48, 80
3, 45308, Note_off_c, 1, 48, 100
3, 45312, Note_on_c, 1, 48, 80
3, 45500, Note_off_c, 1, 48, 100
3, 45504, Note_on_c, 1, 43, 80
3, 45692, Note_off_c, 1, 36, 100
3, 45692, Note_off_c, 1, 43, 100
3, 45696, Note_on_c, 1, 48, 80
3, 45696, Note_on_c, 1, 36, 80
3, 45884, Note_off_c, 1, 48, 100
3, 45888, Note_on_c, 1, 48, 80
3, 46076, Note_off_c, 1, 48, 100
3, 46080, Note_on_c, 1, 48, 80
3, 46268, Note_off_c, 1, 48, 100
3, 46272, Note_on_c, 1, 43, 80
3, 46460, Note_off_c, 1, 36, 100
3, 46460, Note_off_c, 1, 43, 100
3, 46464, Note_on_c, 1, 36, 80
3, 46464, Note_on_c, 1, 50, 80
3, 46652, Note_off_c, 1, 50, 100
3, 46656, Note_on_c, 1, 48, 80
3, 46844, Note_off_c, 1, 48, 100
3, 46848, Note_on_c, 1, 47, 80
3, 47036, Note_off_c, 1, 47, 100
3, 47040, Note_on_c, 1, 45, 80
3, 47228, Note_off_c, 1, 45, 100
3, 47232, Note_on_c, 1, 43, 80
3, 47420, Note_off_c, 1, 43, 100
3, 47424, Note_on_c, 1, 45, 80
3, 47612, Note_off_c, 1, 45, 100
3, 47616, Note_on_c, 1, 47, 80
3, 47804, Note_off_c, 1, 47, 100
3, 47808, Note_on_c, 1, 43, 80
3, 47996, Note_off_c, 1, 36, 100
3, 47996, Note_off_c, 1, 43, 100
3, 48000, Note_on_c, 1, 48, 80
3, 48000, Note_on_c, 1, 36, 80
3, 48188, Note_off_c, 1, 48, 100
3, 48188, Note_off_c, 1, 36, 100
3, 48192, Note_on_c, 1, 43, 80
3, 48380, Note_off_c, 1, 43, 100
3, 48384, Note_on_c, 1, 48, 80
3, 48384, Note_on_c, 1, 36, 80
3, 48572, Note_off_c, 1, 48, 100
3, 48572, Note_off_c, 1, 36, 100
3, 48576, Note_on_c, 1, 43, 80
3, 48764, Note_off_c, 1, 43, 100
3, 48768, Note_on_c, 1, 48, 80
3, 48768, Note_on_c, 1, 36, 80
3, 49148, Note_off_c, 1, 48, 100
3, 49148, Note_off_c, 1, 36, 100
3, 49344, Note_on_c, 1, 39, 110
3, 49532, Note_off_c, 1, 39, 100
3, 49536, Note_on_c, 1, 44, 110
3, 49724, Note_off_c, 1, 44, 100
3, 49728, Note_on_c, 1, 44, 110
3, 49916, Note_off_c, 1, 44, 100
3, 49920, Note_on_c, 1, 46, 110
3, 49964, Note_off_c, 1, 46, 100
3, 49968, Note_on_c, 1, 44, 110
3, 50012, Note_off_c, 1, 44, 100
3, 50016, Note_on_c, 1, 43, 110
3, 50108, Note_off_c, 1, 43, 100
3, 50112, Note_on_c, 1, 44, 110
3, 50204, Note_off_c, 1, 44, 100
3, 50208, Note_on_c, 1, 46, 110
3, 50300, Note_off_c, 1, 46, 100
3, 50304, Note_on_c, 1, 48, 110
3, 50492, Note_off_c, 1, 48, 100
3, 50496, Note_on_c, 1, 48, 110
3, 50684, Note_off_c, 1, 48, 100
3, 50688, Note_on_c, 1, 49, 110
3, 50732, Note_off_c, 1, 49, 100
3, 50736, Note_on_c, 1, 48, 110
3, 50780, Note_off_c, 1, 48, 100
3, 50784, Note_on_c, 1, 47, 110
3, 50876, Note_off_c, 1, 47, 100
3, 50880, Note_on_c, 1, 48, 110
3, 50972, Note_off_c, 1, 48, 100
3, 50976, Note_on_c, 1, 49, 110
3, 51068, Note_off_c, 1, 49, 100
3, 51072, Note_on_c, 1, 51, 110
3, 51260, Note_off_c, 1, 51, 100
3, 51264, Note_on_c, 1, 51, 110
3, 51452, Note_off_c, 1, 51, 100
3, 51456, Note_on_c, 1, 53, 110
3, 51500, Note_off_c, 1, 53, 100
3, 51504, Note_on_c, 1, 51, 110
3, 51548, Note_off_c, 1, 51, 100
3, 51552, Note_on_c, 1, 50, 110
3, 51644, Note_off_c, 1, 50, 100
3, 51648, Note_on_c, 1, 51, 110
3, 51740, Note_off_c, 1, 51, 100
3, 51744, Note_on_c, 1, 53, 110
3, 51836, Note_off_c, 1, 53, 100
3, 51840, Note_on_c, 1, 55, 110
3, 52028, Note_off_c, 1, 55, 100
3, 52032, Note_on_c, 1, 55, 110
3, 52220, Note_off_c, 1, 55, 100
3, 52224, Note_on_c, 1, 55, 110
3, 52316, Note_off_c, 1, 55, 100
3, 52320, Note_on_c, 1, 51, 110
3, 52412, Note_off_c, 1, 51, 100
3, 52416, Note_on_c, 1, 53, 110
3, 52508, Note_off_c, 1, 53, 100
3, 52512, Note_on_c, 1, 55, 110
3, 52604, Note_off_c, 1, 55, 100
3, 52608, Note_on_c, 1, 56, 110
3, 52700, Note_off_c, 1, 56, 100
3, 52704, Note_on_c, 1, 60, 100
3, 52796, Note_off_c, 1, 60, 100
3, 52800, Note_on_c, 1, 56, 110
3, 52892, Note_off_c, 1, 56, 100
3, 52896, Note_on_c, 1, 60, 100
3, 52988, Note_off_c, 1, 60, 100
3, 52992, Note_on_c, 1, 56, 110
3, 53084, Note_off_c, 1, 56, 100
3, 53088, Note_on_c, 1, 60, 100
3, 53180, Note_off_c, 1, 60, 100
3, 53184, Note_on_c, 1, 56, 110
3, 53276, Note_off_c, 1, 56, 100
3, 53280, Note_on_c, 1, 60, 100
3, 53372, Note_off_c, 1, 60, 100
3, 53376, Note_on_c, 1, 56, 100
3, 53468, Note_off_c, 1, 56, 100
3, 53472, Note_on_c, 1, 60, 100
3, 53564, Note_off_c, 1, 60, 100
3, 53568, Note_on_c, 1, 56, 100
3, 53660, Note_off_c, 1, 56, 100
3, 53664, Note_on_c, 1, 60, 100
3, 53756, Note_off_c, 1, 60, 100
3, 53760, Note_on_c, 1, 56, 100
3, 53852, Note_off_c, 1, 56, 100
3, 53856, Note_on_c, 1, 60, 100
3, 53948, Note_off_c, 1, 60, 100
3, 53952, Note_on_c, 1, 56, 100
3, 54044, Note_off_c, 1, 56, 100
3, 54048, Note_on_c, 1, 60, 100
3, 54140, Note_off_c, 1, 60, 100
3, 54144, Note_on_c, 1, 56, 100
3, 54236, Note_off_c, 1, 56, 100
3, 54240, Note_on_c, 1, 58, 100
3, 54332, Note_off_c, 1, 58, 100
3, 54336, Note_on_c, 1, 56, 100
3, 54428, Note_off_c, 1, 56, 100
3, 54432, Note_on_c, 1, 58, 100
3, 54524, Note_off_c, 1, 58, 100
3, 54528, Note_on_c, 1, 56, 100
3, 54620, Note_off_c, 1, 56, 100
3, 54624, Note_on_c, 1, 58, 100
3, 54716, Note_off_c, 1, 58, 100
3, 54720, Note_on_c, 1, 56, 100
3, 54812, Note_off_c, 1, 56, 100
3, 54816, Note_on_c, 1, 58, 100
3, 54908, Note_off_c, 1, 58, 100
3, 54912, Note_on_c, 1, 55, 100
3, 54912, Note_on_c, 1, 51, 100
3, 55004, Note_off_c, 1, 55, 100
3, 55004, Note_off_c, 1, 51, 100
3, 55008, Note_on_c, 1, 58, 100
3, 55100, Note_off_c, 1, 58, 100
3, 55104, Note_on_c, 1, 55, 100
3, 55104, Note_on_c, 1, 51, 100
3, 55196, Note_off_c, 1, 55, 100
3, 55196, Note_off_c, 1, 51, 100
3, 55200, Note_on_c, 1, 58, 100
3, 55292, Note_off_c, 1, 58, 100
3, 55296, Note_on_c, 1, 55, 100
3, 55296, Note_on_c, 1, 51, 100
3, 55388, Note_off_c, 1, 55, 100
3, 55388, Note_off_c, 1, 51, 100
3, 55392, Note_on_c, 1, 58, 100
3, 55484, Note_off_c, 1, 58, 100
3, 55488, Note_on_c, 1, 55, 100
3, 55488, Note_on_c, 1, 51, 100
3, 55580, Note_off_c, 1, 55, 100
3, 55580, Note_off_c, 1, 51, 100
3, 55584, Note_on_c, 1, 58, 100
3, 55676, Note_off_c, 1, 58, 100
3, 55680, Note_on_c, 1, 56, 100
3, 56060, Note_off_c, 1, 56, 100
3, 56256, Note_on_c, 1, 60, 100
3, 56444, Note_off_c, 1, 60, 100
3, 56448, Note_on_c, 1, 68, 100
3, 56636, Note_off_c, 1, 68, 100
3, 56640, Note_on_c, 1, 68, 100
3, 56828, Note_off_c, 1, 68, 100
3, 56832, Note_on_c, 1, 68, 100
3, 57020, Note_off_c, 1, 68, 100
3, 57024, Note_on_c, 1, 63, 100
3, 57212, Note_off_c, 1, 63, 100
3, 57216, Note_on_c, 1, 72, 100
3, 57404, Note_off_c, 1, 72, 100
3, 57408, Note_on_c, 1, 72, 100
3, 57596, Note_off_c, 1, 72, 100
3, 57600, Note_on_c, 1, 72, 100
3, 57692, Note_off_c, 1, 72, 100
3, 57696, Note_on_c, 1, 73, 100
3, 57788, Note_off_c, 1, 73, 100
3, 57792, Note_on_c, 1, 72, 100
3, 57884, Note_off_c, 1, 72, 100
3, 57888, Note_on_c, 1, 70, 100
3, 57980, Note_off_c, 1, 70, 100
3, 57984, Note_on_c, 1, 69, 100
3, 58172, Note_off_c, 1, 69, 100
3, 58176, Note_on_c, 1, 75, 100
3, 58364, Note_off_c, 1, 75, 100
3, 58368, Note_on_c, 1, 75, 100
3, 58460, Note_off_c, 1, 75, 100
3, 58464, Note_on_c, 1, 77, 100
3, 58556, Note_off_c, 1, 77, 100
3, 58560, Note_on_c, 1, 75, 100
3, 58652, Note_off_c, 1, 75, 100
3, 58656, Note_on_c, 1, 73, 100
3, 58748, Note_off_c, 1, 73, 100
3, 58752, Note_on_c, 1, 72, 110
3, 58940, Note_off_c, 1, 72, 100
3, 58944, Note_on_c, 1, 72, 110
3, 59132, Note_off_c, 1, 72, 100
3, 59136, Note_on_c, 1, 72, 110
3, 59228, Note_off_c, 1, 72, 100
3, 59232, Note_on_c, 1, 73, 110
3, 59324, Note_off_c, 1, 73, 100
3, 59328, Note_on_c, 1, 72, 110
3, 59420, Note_off_c, 1, 72, 100
3, 59424, Note_on_c, 1, 70, 110
3, 59516, Note_off_c, 1, 70, 100
3, 59520, Note_on_c, 1, 69, 110
3, 59708, Note_off_c, 1, 69, 100
3, 59712, Note_on_c, 1, 69, 110
3, 59900, Note_off_c, 1, 69, 100
3, 59904, Note_on_c, 1, 69, 110
3, 59996, Note_off_c, 1, 69, 100
3, 60000, Note_on_c, 1, 70, 110
3, 60092, Note_off_c, 1, 70, 100
3, 60096, Note_on_c, 1, 69, 110
3, 60188, Note_off_c, 1, 69, 100
3, 60192, Note_on_c, 1, 65, 110
3, 60284, Note_off_c, 1, 65, 100
3, 60288, Note_on_c, 1, 70, 110
3, 60668, Note_off_c, 1, 70, 100
3, 61056, Note_on_c, 1, 73, 110
3, 61244, Note_off_c, 1, 73, 100
3, 61248, Note_on_c, 1, 73, 110
3, 61436, Note_off_c, 1, 73, 100
3, 61440, Note_on_c, 1, 73, 110
3, 61532, Note_off_c, 1, 73, 100
3, 61536, Note_on_c, 1, 75, 110
3, 61628, Note_off_c, 1, 75, 100
3, 61632, Note_on_c, 1, 73, 110
3, 61724, Note_off_c, 1, 73, 100
3, 61728, Note_on_c, 1, 72, 110
3, 61820, Note_off_c, 1, 72, 100
3, 61824, Note_on_c, 1, 70, 110
3, 62012, Note_off_c, 1, 70, 100
3, 62016, Note_on_c, 1, 70, 110
3, 62204, Note_off_c, 1, 70, 100
3, 62208, Note_on_c, 1, 70, 110
3, 62300, Note_off_c, 1, 70, 100
3, 62304, Note_on_c, 1, 72, 110
3, 62396, Note_off_c, 1, 72, 100
3, 62400, Note_on_c, 1, 70, 110
3, 62492, Note_off_c, 1, 70, 100
3, 62496, Note_on_c, 1, 68, 110
3, 62588, Note_off_c, 1, 68, 100
3, 62592, Note_on_c, 1, 67, 110
3, 62684, Note_off_c, 1, 67, 100
3, 62688, Note_on_c, 1, 68, 110
3, 62780, Note_off_c, 1, 68, 100
3, 62784, Note_on_c, 1, 67, 110
3, 62876, Note_off_c, 1, 67, 100
3, 62880, Note_on_c, 1, 65, 110
3, 62972, Note_off_c, 1, 65, 100
3, 62976, Note_on_c, 1, 64, 110
3, 63068, Note_off_c, 1, 64, 100
3, 63072, Note_on_c, 1, 62, 110
3, 63164, Note_off_c, 1, 62, 100
3, 63168, Note_on_c, 1, 64, 110
3, 63260, Note_off_c, 1, 64, 100
3, 63264, Note_on_c, 1, 60, 110
3, 63356, Note_off_c, 1, 60, 100
3, 63360, Note_on_c, 1, 65, 110
3, 64124, Note_off_c, 1, 65, 100
3, 64128, Note_on_c, 1, 67, 110
3, 64892, Note_off_c, 1, 67, 100
3, 64896, Note_on_c, 1, 60, 110
3, 65660, Note_off_c, 1, 60, 100
3, 65664, Note_on_c, 1, 62, 110
3, 66428, Note_off_c, 1, 62, 100
3, 66432, Note_on_c, 1, 55, 110
3, 67196, Note_off_c, 1, 55, 100
3, 67200, Note_on_c, 1, 62, 110
3, 67200, Note_on_c, 1, 50, 110
3, 67964, Note_off_c, 1, 62, 100
3, 67964, Note_off_c, 1, 50, 100
3, 67968, Note_on_c, 1, 55, 110
3, 67968, Note_on_c, 1, 43, 110
3, 68732, Note_off_c, 1, 55, 100
3, 68732, Note_off_c, 1, 43, 100
3, 68736, Note_on_c, 1, 57, 110
3, 68736, Note_on_c, 1, 45, 110
3, 69500, Note_off_c, 1, 57, 100
3, 69500, Note_off_c, 1, 45, 100
3, 69504, Note_on_c, 1, 50, 110
3, 69504, Note_on_c, 1, 38, 110
3, 70268, Note_off_c, 1, 50, 100
3, 70268, Note_off_c, 1, 38, 100
3, 70272, Note_on_c, 1, 57, 110
3, 70272, Note_on_c, 1, 45, 110
3, 71036, Note_off_c, 1, 57, 100
3, 71036, Note_off_c, 1, 45, 100
3, 71040, Note_on_c, 1, 50, 110
3, 71040, Note_on_c, 1, 38, 110
3, 71804, Note_off_c, 1, 50, 100
3, 71804, Note_off_c, 1, 38, 100
3, 71808, Note_on_c, 1, 46, 110
3, 71808, Note_on_c, 1, 34, 110
3, 72572, Note_off_c, 1, 46, 100
3, 72572, Note_off_c, 1, 34, 100
3, 72576, Note_on_c, 1, 45, 110
3, 72576, Note_on_c, 1, 33, 110
3, 72764, Note_off_c, 1, 45, 100
3, 72764, Note_off_c, 1, 33, 100
3, 72768, Note_on_c, 1, 52, 110
3, 72956, Note_off_c, 1, 52, 100
3, 72960, Note_on_c, 1, 52, 110
3, 73052, Note_off_c, 1, 52, 100
3, 73056, Note_on_c, 1, 51, 110
3, 73148, Note_off_c, 1, 51, 100
3, 73152, Note_on_c, 1, 52, 110
3, 73244, Note_off_c, 1, 52, 100
3, 73248, Note_on_c, 1, 49, 110
3, 73340, Note_off_c, 1, 49, 100
3, 73344, Note_on_c, 1, 53, 110
3, 73344, Note_on_c, 1, 45, 110
3, 73532, Note_off_c, 1, 53, 100
3, 73536, Note_on_c, 1, 53, 110
3, 73724, Note_off_c, 1, 53, 100
3, 73728, Note_on_c, 1, 53, 110
3, 73820, Note_off_c, 1, 53, 100
3, 73824, Note_on_c, 1, 52, 110
3, 73916, Note_off_c, 1, 52, 100
3, 73920, Note_on_c, 1, 53, 110
3, 74012, Note_off_c, 1, 53, 100
3, 74016, Note_on_c, 1, 50, 110
3, 74108, Note_off_c, 1, 45, 100
3, 74108, Note_off_c, 1, 50, 100
3, 74112, Note_on_c, 1, 52, 110
3, 74112, Note_on_c, 1, 45, 110
3, 74300, Note_off_c, 1, 52, 100
3, 74304, Note_on_c, 1, 52, 110
3, 74492, Note_off_c, 1, 52, 100
3, 74496, Note_on_c, 1, 52, 110
3, 74588, Note_off_c, 1, 52, 100
3, 74592, Note_on_c, 1, 51, 110
3, 74684, Note_off_c, 1, 51, 100
3, 74688, Note_on_c, 1, 52, 110
3, 74780, Note_off_c, 1, 52, 100
3, 74784, Note_on_c, 1, 49, 110
3, 74876, Note_off_c, 1, 45, 100
3, 74876, Note_off_c, 1, 49, 100
3, 74880, Note_on_c, 1, 53, 110
3, 74880, Note_on_c, 1, 45, 110
3, 75068, Note_off_c, 1, 53, 100
3, 75072, Note_on_c, 1, 53, 110
3, 75260, Note_off_c, 1, 53, 100
3, 75264, Note_on_c, 1, 53, 110
3, 75356, Note_off_c, 1, 53, 100
3, 75360, Note_on_c, 1, 52, 110
3, 75452, Note_off_c, 1, 52, 100
3, 75456, Note_on_c, 1, 53, 110
3, 75548, Note_off_c, 1, 53, 100
3, 75552, Note_on_c, 1, 50, 110
3, 75644, Note_off_c, 1, 45, 100
3, 75644, Note_off_c, 1, 50, 100
3, 75648, Note_on_c, 1, 52, 110
3, 75648, Note_on_c, 1, 45, 110
3, 76028, Note_off_c, 1, 52, 100
3, 76028, Note_off_c, 1, 45, 100
3, 77184, Note_on_c, 1, 62, 80
3, 77184, Note_on_c, 1, 50, 80
3, 77372, Note_off_c, 1, 62, 100
3, 77376, Note_on_c, 1, 62, 80
3, 77564, Note_off_c, 1, 62, 100
3, 77568, Note_on_c, 1, 62, 80
3, 77756, Note_off_c, 1, 62, 100
3, 77760, Note_on_c, 1, 57, 80
3, 77948, Note_off_c, 1, 50, 100
3, 77948, Note_off_c, 1, 57, 100
3, 77952, Note_on_c, 1, 62, 80
3, 77952, Note_on_c, 1, 50, 80
3, 78140, Note_off_c, 1, 62, 100
3, 78144, Note_on_c, 1, 62, 80
3, 78332, Note_off_c, 1, 62, 100
3, 78336, Note_on_c, 1, 62, 80
3, 78524, Note_off_c, 1, 62, 100
3, 78528, Note_on_c, 1, 57, 80
3, 78716, Note_off_c, 1, 50, 100
3, 78716, Note_off_c, 1, 57, 100
3, 78720, Note_on_c, 1, 50, 80
3, 78720, Note_on_c, 1, 64, 80
3, 78908, Note_off_c, 1, 64, 100
3, 78912, Note_on_c, 1, 62, 82
3, 79100, Note_off_c, 1, 62, 100
3, 79104, Note_on_c, 1, 61, 84
3, 79292, Note_off_c, 1, 61, 100
3, 79296, Note_on_c, 1, 59, 87
3, 79484, Note_off_c, 1, 59, 100
3, 79488, Note_on_c, 1, 57, 90
3, 79676, Note_off_c, 1, 57, 100
3, 79680, Note_on_c, 1, 61, 87
3, 79868, Note_off_c, 1, 61, 100
3, 79872, Note_on_c, 1, 59, 84
3, 80060, Note_off_c, 1, 59, 100
3, 80064, Note_on_c, 1, 57, 81
3, 80252, Note_off_c, 1, 50, 100
3, 80252, Note_off_c, 1, 57, 100
3, 80256, Note_on_c, 1, 62, 80
3, 80256, Note_on_c, 1, 50, 80
3, 80444, Note_off_c, 1, 62, 100
3, 80448, Note_on_c, 1, 62, 80
3, 80636, Note_off_c, 1, 62, 100
3, 80640, Note_on_c, 1, 62, 80
3, 80828, Note_off_c, 1, 62, 100
3, 80832, Note_on_c, 1, 57, 80
3, 81020, Note_off_c, 1, 50, 100
3, 81020, Note_off_c, 1, 57, 100
3, 81024, Note_on_c, 1, 62, 80
3, 81024, Note_on_c, 1, 50, 80
3, 81212, Note_off_c, 1, 62, 100
3, 81216, Note_on_c, 1, 62, 80
3, 81404, Note_off_c, 1, 62, 100
3, 81408, Note_on_c, 1, 62, 80
3, 81596, Note_off_c, 1, 62, 100
3, 81600, Note_on_c, 1, 57, 80
3, 81788, Note_off_c, 1, 50, 100
3, 81788, Note_off_c, 1, 57, 100
3, 81792, Note_on_c, 1, 50, 80
3, 81792, Note_on_c, 1, 64, 80
3, 81980, Note_off_c, 1, 64, 100
3, 81984, Note_on_c, 1, 62, 82
3, 82172, Note_off_c, 1, 62, 100
3, 82176, Note_on_c, 1, 61, 84
3, 82364, Note_off_c, 1, 61, 100
3, 82368, Note_on_c, 1, 59, 87
3, 82556, Note_off_c, 1, 59, 100
3, 82560, Note_on_c, 1, 57, 90
3, 82748, Note_off_c, 1, 57, 100
3, 82752, Note_on_c, 1, 61, 87
3, 82940, Note_off_c, 1, 61, 100
3, 82944, Note_on_c, 1, 59, 84
3, 83132, Note_off_c, 1, 59, 100
3, 83136, Note_on_c, 1, 57, 81
3, 83324, Note_off_c, 1, 50, 100
3, 83324, Note_off_c, 1, 57, 100
3, 83328, Note_on_c, 1, 74, 80
3, 83516, Note_off_c, 1, 74, 100
3, 83520, Note_on_c, 1, 72, 80
3, 83708, Note_off_c, 1, 72, 100
3, 83712, Note_on_c, 1, 71, 80
3, 83900, Note_off_c, 1, 71, 100
3, 83904, Note_on_c, 1, 69, 80
3, 84092, Note_off_c, 1, 69, 100
3, 84096, Note_on_c, 1, 67, 80
3, 84284, Note_off_c, 1, 67, 100
3, 84288, Note_on_c, 1, 71, 80
3, 84476, Note_off_c, 1, 71, 100
3, 84480, Note_on_c, 1, 69, 80
3, 84668, Note_off_c, 1, 69, 100
3, 84672, Note_on_c, 1, 67, 80
3, 84860, Note_off_c, 1, 67, 100
3, 84864, Note_on_c, 1, 72, 80
3, 85052, Note_off_c, 1, 72, 100
3, 85056, Note_on_c, 1, 70, 80
3, 85244, Note_off_c, 1, 70, 100
3, 85248, Note_on_c, 1, 69, 80
3, 85436, Note_off_c, 1, 69, 100
3, 85440, Note_on_c, 1, 67, 80
3, 85628, Note_off_c, 1, 67, 100
3, 85632, Note_on_c, 1, 65, 80
3, 85820, Note_off_c, 1, 65, 100
3, 85824, Note_on_c, 1, 69, 80
3, 86012, Note_off_c, 1, 69, 100
3, 86016, Note_on_c, 1, 67, 80
3, 86204, Note_off_c, 1, 67, 100
3, 86208, Note_on_c, 1, 65, 80
3, 86396, Note_off_c, 1, 65, 100
3, 86400, Note_on_c, 1, 70, 100
3, 86588, Note_off_c, 1, 70, 100
3, 86592, Note_on_c, 1, 72, 100
3, 86780, Note_off_c, 1, 72, 100
3, 86784, Note_on_c, 1, 70, 100
3, 86972, Note_off_c, 1, 70, 100
3, 86976, Note_on_c, 1, 69, 100
3, 87164, Note_off_c, 1, 69, 100
3, 87168, Note_on_c, 1, 67, 100
3, 87356, Note_off_c, 1, 67, 100
3, 87360, Note_on_c, 1, 65, 100
3, 87548, Note_off_c, 1, 65, 100
3, 87552, Note_on_c, 1, 64, 101
3, 87740, Note_off_c, 1, 64, 100
3, 87744, Note_on_c, 1, 62, 102
3, 87932, Note_off_c, 1, 62, 100
3, 87936, Note_on_c, 1, 60, 103
3, 88124, Note_off_c, 1, 60, 100
3, 88128, Note_on_c, 1, 59, 104
3, 88316, Note_off_c, 1, 59, 100
3, 88320, Note_on_c, 1, 58, 105
3, 88508, Note_off_c, 1, 58, 100
3, 88512, Note_on_c, 1, 57, 105
3, 88700, Note_off_c, 1, 57, 100
3, 88704, Note_on_c, 1, 55, 106
3, 88892, Note_off_c, 1, 55, 100
3, 88896, Note_on_c, 1, 53, 107
3, 89084, Note_off_c, 1, 53, 100
3, 89088, Note_on_c, 1, 52, 108
3, 89276, Note_off_c, 1, 52, 100
3, 89280, Note_on_c, 1, 50, 109
3, 89468, Note_off_c, 1, 50, 100
3, 89472, Note_on_c, 1, 48, 110
3, 89852, Note_off_c, 1, 48, 100
3, 90816, Note_on_c, 1, 36, 120
3, 90876, Note_off_c, 1, 36, 100
3, 90880, Note_on_c, 1, 38, 120
3, 90940, Note_off_c, 1, 38, 100
3, 90944, Note_on_c, 1, 40, 120
3, 91004, Note_off_c, 1, 40, 100
3, 91008, Note_on_c, 1, 41, 120
3, 91196, Note_off_c, 1, 41, 100
3, 91200, Note_on_c, 1, 41, 120
3, 91388, Note_off_c, 1, 41, 100
3, 91392, Note_on_c, 1, 41, 120
3, 91580, Note_off_c, 1, 41, 100
3, 91584, Note_on_c, 1, 36, 120
3, 91772, Note_off_c, 1, 36, 100
3, 91776, Note_on_c, 1, 45, 120
3, 91964, Note_off_c, 1, 45, 100
3, 91968, Note_on_c, 1, 45, 120
3, 92156, Note_off_c, 1, 45, 100
3, 92160, Note_on_c, 1, 45, 120
3, 92348, Note_off_c, 1, 45, 100
3, 92352, Note_on_c, 1, 41, 120
3, 92540, Note_off_c, 1, 41, 100
3, 92544, Note_on_c, 1, 48, 120
3, 92732, Note_off_c, 1, 48, 100
3, 92736, Note_on_c, 1, 48, 120
3, 92924, Note_off_c, 1, 48, 100
3, 92928, Note_on_c, 1, 48, 120
3, 93020, Note_off_c, 1, 48, 100
3, 93024, Note_on_c, 1, 50, 120
3, 93116, Note_off_c, 1, 50, 100
3, 93120, Note_on_c, 1, 48, 120
3, 93212, Note_off_c, 1, 48, 100
3, 93216, Note_on_c, 1, 46, 120
3, 93308, Note_off_c, 1, 46, 100
3, 93312, Note_on_c, 1, 45, 110
3, 93500, Note_off_c, 1, 45, 100
3, 93504, Note_on_c, 1, 45, 110
3, 93692, Note_off_c, 1, 45, 100
3, 93696, Note_on_c, 1, 45, 110
3, 93788, Note_off_c, 1, 45, 100
3, 93792, Note_on_c, 1, 46, 110
3, 93884, Note_off_c, 1, 46, 100
3, 93888, Note_on_c, 1, 45, 110
3, 93980, Note_off_c, 1, 45, 100
3, 93984, Note_on_c, 1, 43, 110
3, 94076, Note_off_c, 1, 43, 100
3, 94080, Note_on_c, 1, 41, 110
3, 94268, Note_off_c, 1, 41, 100
3, 94272, Note_on_c, 1, 60, 110
3, 94364, Note_off_c, 1, 60, 100
3, 94368, Note_on_c, 1, 58, 110
3, 94460, Note_off_c, 1, 58, 100
3, 94464, Note_on_c, 1, 57, 110
3, 94556, Note_off_c, 1, 57, 100
3, 94560, Note_on_c, 1, 55, 110
3, 94652, Note_off_c, 1, 55, 100
3, 94656, Note_on_c, 1, 53, 110
3, 94748, Note_off_c, 1, 53, 100
3, 94752, Note_on_c, 1, 52, 110
3, 94844, Note_off_c, 1, 52, 100
3, 94848, Note_on_c, 1, 53, 110
3, 94940, Note_off_c, 1, 53, 100
3, 94944, Note_on_c, 1, 52, 110
3, 95036, Note_off_c, 1, 52, 100
3, 95040, Note_on_c, 1, 50, 110
3, 95132, Note_off_c, 1, 50, 100
3, 95136, Note_on_c, 1, 48, 110
3, 95228, Note_off_c, 1, 48, 100
3, 95232, Note_on_c, 1, 46, 110
3, 95324, Note_off_c, 1, 46, 100
3, 95328, Note_on_c, 1, 45, 110
3, 95420, Note_off_c, 1, 45, 100
3, 95424, Note_on_c, 1, 43, 110
3, 95516, Note_off_c, 1, 43, 100
3, 95520, Note_on_c, 1, 41, 110
3, 95612, Note_off_c, 1, 41, 100
3, 95616, Note_on_c, 1, 40, 110
3, 95708, Note_off_c, 1, 40, 100
3, 95712, Note_on_c, 1, 41, 110
3, 95804, Note_off_c, 1, 41, 100
3, 95808, Note_on_c, 1, 43, 110
3, 95900, Note_off_c, 1, 43, 100
3, 95904, Note_on_c, 1, 41, 110
3, 95996, Note_off_c, 1, 41, 100
3, 96000, Note_on_c, 1, 40, 110
3, 96092, Note_off_c, 1, 40, 100
3, 96096, Note_on_c, 1, 36, 110
3, 96188, Note_off_c, 1, 36, 100
3, 96192, Note_on_c, 1, 38, 110
3, 96284, Note_off_c, 1, 38, 100
3, 96288, Note_on_c, 1, 40, 110
3, 96380, Note_off_c, 1, 40, 100
3, 96384, Note_on_c, 1, 41, 110
3, 96572, Note_off_c, 1, 41, 100
3, 96576, Note_on_c, 1, 39, 110
3, 96764, Note_off_c, 1, 39, 100
3, 96768, Note_on_c, 1, 38, 110
3, 96956, Note_off_c, 1, 38, 100
3, 96960, Note_on_c, 1, 42, 110
3, 97148, Note_off_c, 1, 42, 100
3, 97152, Note_on_c, 1, 43, 110
3, 97340, Note_off_c, 1, 43, 100
3, 97344, Note_on_c, 1, 43, 110
3, 97532, Note_off_c, 1, 43, 100
3, 97536, Note_on_c, 1, 43, 110
3, 97724, Note_off_c, 1, 43, 100
3, 97728, Note_on_c, 1, 38, 110
3, 97916, Note_off_c, 1, 38, 100
3, 97920, Note_on_c, 1, 46, 110
3, 98108, Note_off_c, 1, 46, 100
3, 98112, Note_on_c, 1, 46, 110
3, 98300, Note_off_c, 1, 46, 100
3, 98304, Note_on_c, 1, 46, 110
3, 98492, Note_off_c, 1, 46, 100
3, 98496, Note_on_c, 1, 43, 110
3, 98684, Note_off_c, 1, 43, 100
3, 98688, Note_on_c, 1, 50, 110
3, 98876, Note_off_c, 1, 50, 100
3, 98880, Note_on_c, 1, 50, 110
3, 99068, Note_off_c, 1, 50, 100
3, 99072, Note_on_c, 1, 50, 110
3, 99164, Note_off_c, 1, 50, 100
3, 99168, Note_on_c, 1, 51, 110
3, 99260, Note_off_c, 1, 51, 100
3, 99264, Note_on_c, 1, 50, 110
3, 99356, Note_off_c, 1, 50, 100
3, 99360, Note_on_c, 1, 48, 110
3, 99452, Note_off_c, 1, 48, 100
3, 99456, Note_on_c, 1, 46, 110
3, 99644, Note_off_c, 1, 46, 100
3, 99648, Note_on_c, 1, 46, 110
3, 99836, Note_off_c, 1, 46, 100
3, 99840, Note_on_c, 1, 46, 110
3, 99932, Note_off_c, 1, 46, 100
3, 99936, Note_on_c, 1, 48, 110
3, 100028, Note_off_c, 1, 48, 100
3, 100032, Note_on_c, 1, 46, 110
3, 100124, Note_off_c, 1, 46, 100
3, 100128, Note_on_c, 1, 45, 110
3, 100220, Note_off_c, 1, 45, 100
3, 100224, Note_on_c, 1, 43, 110
3, 100412, Note_off_c, 1, 43, 100
3, 100416, Note_on_c, 1, 62, 110
3, 100508, Note_off_c, 1, 62, 100
3, 100512, Note_on_c, 1, 60, 110
3, 100604, Note_off_c, 1, 60, 100
3, 100608, Note_on_c, 1, 58, 110
3, 100700, Note_off_c, 1, 58, 100
3, 100704, Note_on_c, 1, 57, 110
3, 100796, Note_off_c, 1, 57, 100
3, 100800, Note_on_c, 1, 55, 110
3, 100892, Note_off_c, 1, 55, 100
3, 100896, Note_on_c, 1, 54, 110
3, 100988, Note_off_c, 1, 54, 100
3, 100992, Note_on_c, 1, 55, 110
3, 101084, Note_off_c, 1, 55, 100
3, 101088, Note_on_c, 1, 53, 110
3, 101180, Note_off_c, 1, 53, 100
3, 101184, Note_on_c, 1, 51, 110
3, 101276, Note_off_c, 1, 51, 100
3, 101280, Note_on_c, 1, 50, 110
3, 101372, Note_off_c, 1, 50, 100
3, 101376, Note_on_c, 1, 48, 110
3, 101468, Note_off_c, 1, 48, 100
3, 101472, Note_on_c, 1, 46, 110
3, 101564, Note_off_c, 1, 46, 100
3, 101568, Note_on_c, 1, 45, 110
3, 101660, Note_off_c, 1, 45, 100
3, 101664, Note_on_c, 1, 43, 110
3, 101756, Note_off_c, 1, 43, 100
3, 101760, Note_on_c, 1, 42, 110
3, 101852, Note_off_c, 1, 42, 100
3, 101856, Note_on_c, 1, 43, 110
3, 101948, Note_off_c, 1, 43, 100
3, 101952, Note_on_c, 1, 45, 110
3, 102044, Note_off_c, 1, 45, 100
3, 102048, Note_on_c, 1, 43, 110
3, 102140, Note_off_c, 1, 43, 100
3, 102144, Note_on_c, 1, 42, 110
3, 102236, Note_off_c, 1, 42, 100
3, 102240, Note_on_c, 1, 38, 110
3, 102332, Note_off_c, 1, 38, 100
3, 102336, Note_on_c, 1, 40, 110
3, 102428, Note_off_c, 1, 40, 100
3, 102432, Note_on_c, 1, 42, 110
3, 102524, Note_off_c, 1, 42, 100
3, 102528, Note_on_c, 1, 43, 110
3, 102716, Note_off_c, 1, 43, 100
3, 102720, Note_on_c, 1, 42, 110
3, 102908, Note_off_c, 1, 42, 100
3, 102912, Note_on_c, 1, 41, 110
3, 103100, Note_off_c, 1, 41, 100
3, 103104, Note_on_c, 1, 45, 110
3, 103292, Note_off_c, 1, 45, 100
3, 103296, Note_on_c, 1, 46, 110
3, 103484, Note_off_c, 1, 46, 100
3, 103488, Note_on_c, 1, 46, 110
3, 103676, Note_off_c, 1, 46, 100
3, 103680, Note_on_c, 1, 46, 110
3, 103868, Note_off_c, 1, 46, 100
3, 103872, Note_on_c, 1, 41, 110
3, 104060, Note_off_c, 1, 41, 100
3, 104064, Note_on_c, 1, 50, 110
3, 104252, Note_off_c, 1, 50, 100
3, 104256, Note_on_c, 1, 50, 110
3, 104444, Note_off_c, 1, 50, 100
3, 104448, Note_on_c, 1, 50, 110
3, 104636, Note_off_c, 1, 50, 100
3, 104640, Note_on_c, 1, 46, 110
3, 104828, Note_off_c, 1, 46, 100
3, 104832, Note_on_c, 1, 53, 110
3, 105020, Note_off_c, 1, 53, 100
3, 105024, Note_on_c, 1, 53, 110
3, 105212, Note_off_c, 1, 53, 100
3, 105216, Note_on_c, 1, 53, 110
3, 105308, Note_off_c, 1, 53, 100
3, 105312, Note_on_c, 1, 55, 110
3, 105404, Note_off_c, 1, 55, 100
3, 105408, Note_on_c, 1, 53, 110
3, 105500, Note_off_c, 1, 53, 100
3, 105504, Note_on_c, 1, 51, 110
3, 105596, Note_off_c, 1, 51, 100
3, 105600, Note_on_c, 1, 50, 110
3, 105788, Note_off_c, 1, 50, 100
3, 105792, Note_on_c, 1, 50, 110
3, 105980, Note_off_c, 1, 50, 100
3, 105984, Note_on_c, 1, 50, 110
3, 106076, Note_off_c, 1, 50, 100
3, 106080, Note_on_c, 1, 51, 110
3, 106172, Note_off_c, 1, 51, 100
3, 106176, Note_on_c, 1, 50, 110
3, 106268, Note_off_c, 1, 50, 100
3, 106272, Note_on_c, 1, 48, 110
3, 106364, Note_off_c, 1, 48, 100
3, 106368, Note_on_c, 1, 46, 110
3, 106556, Note_off_c, 1, 46, 100
3, 106560, Note_on_c, 1, 58, 80
3, 106652, Note_off_c, 1, 58, 100
3, 106656, Note_on_c, 1, 61, 80
3, 106748, Note_off_c, 1, 61, 100
3, 106752, Note_on_c, 1, 58, 80
3, 106844, Note_off_c, 1, 58, 100
3, 106848, Note_on_c, 1, 61, 80
3, 106940, Note_off_c, 1, 61, 100
3, 106944, Note_on_c, 1, 58, 80
3, 107036, Note_off_c, 1, 58, 100
3, 107040, Note_on_c, 1, 61, 80
3, 107132, Note_off_c, 1, 61, 100
3, 107136, Note_on_c, 1, 58, 80
3, 107228, Note_off_c, 1, 58, 100
3, 107232, Note_on_c, 1, 61, 80
3, 107324, Note_off_c, 1, 61, 100
3, 107328, Note_on_c, 1, 58, 80
3, 107420, Note_off_c, 1, 58, 100
3, 107424, Note_on_c, 1, 61, 80
3, 107516, Note_off_c, 1, 61, 100
3, 107520, Note_on_c, 1, 58, 80
3, 107612, Note_off_c, 1, 58, 100
3, 107616, Note_on_c, 1, 61, 80
3, 107708, Note_off_c, 1, 61, 100
3, 107712, Note_on_c, 1, 58, 80
3, 107804, Note_off_c, 1, 58, 100
3, 107808, Note_on_c, 1, 61, 80
3, 107900, Note_off_c, 1, 61, 100
3, 107904, Note_on_c, 1, 53, 80
3, 107996, Note_off_c, 1, 53, 100
3, 108000, Note_on_c, 1, 60, 80
3, 108092, Note_off_c, 1, 60, 100
3, 108096, Note_on_c, 1, 57, 81
3, 108188, Note_off_c, 1, 57, 100
3, 108192, Note_on_c, 1, 60, 81
3, 108284, Note_off_c, 1, 60, 100
3, 108288, Note_on_c, 1, 57, 82
3, 108380, Note_off_c, 1, 57, 100
3, 108384, Note_on_c, 1, 60, 83
3, 108476, Note_off_c, 1, 60, 100
3, 108480, Note_on_c, 1, 57, 83
3, 108572, Note_off_c, 1, 57, 100
3, 108576, Note_on_c, 1, 60, 84
3, 108668, Note_off_c, 1, 60, 100
3, 108672, Note_on_c, 1, 58, 85
3, 108764, Note_off_c, 1, 58, 100
3, 108768, Note_on_c, 1, 61, 85
3, 108860, Note_off_c, 1, 61, 100
3, 108864, Note_on_c, 1, 58, 86
3, 108956, Note_off_c, 1, 58, 100
3, 108960, Note_on_c, 1, 61, 87
3, 109052, Note_off_c, 1, 61, 100
3, 109056, Note_on_c, 1, 58, 87
3, 109148, Note_off_c, 1, 58, 100
3, 109152, Note_on_c, 1, 61, 88
3, 109244, Note_off_c, 1, 61, 100
3, 109248, Note_on_c, 1, 58, 88
3, 109340, Note_off_c, 1, 58, 100
3, 109344, Note_on_c, 1, 61, 89
3, 109436, Note_off_c, 1, 61, 100
3, 109440, Note_on_c, 1, 53, 90
3, 109532, Note_off_c, 1, 53, 100
3, 109536, Note_on_c, 1, 60, 90
3, 109628, Note_off_c, 1, 60, 100
3, 109632, Note_on_c, 1, 57, 91
3, 109724, Note_off_c, 1, 57, 100
3, 109728, Note_on_c, 1, 60, 92
3, 109820, Note_off_c, 1, 60, 100
3, 109824, Note_on_c, 1, 57, 92
3, 109916, Note_off_c, 1, 57, 100
3, 109920, Note_on_c, 1, 60, 93
3, 110012, Note_off_c, 1, 60, 100
3, 110016, Note_on_c, 1, 57, 94
3, 110108, Note_off_c, 1, 57, 100
3, 110112, Note_on_c, 1, 60, 94
3, 110204, Note_off_c, 1, 60, 100
3, 110208, Note_on_c, 1, 58, 95
3, 110300, Note_off_c, 1, 58, 100
3, 110304, Note_on_c, 1, 61, 95
3, 110396, Note_off_c, 1, 61, 100
3, 110400, Note_on_c, 1, 58, 96
3, 110492, Note_off_c, 1, 58, 100
3, 110496, Note_on_c, 1, 61, 97
3, 110588, Note_off_c, 1, 61, 100
3, 110592, Note_on_c, 1, 58, 97
3, 110684, Note_off_c, 1, 58, 100
3, 110688, Note_on_c, 1, 61, 98
3, 110780, Note_off_c, 1, 61, 100
3, 110784, Note_on_c, 1, 60, 99
3, 110876, Note_off_c, 1, 60, 100
3, 110880, Note_on_c, 1, 63, 99
3, 110972, Note_off_c, 1, 63, 100
3, 110976, Note_on_c, 1, 61, 100
3, 111068, Note_off_c, 1, 61, 100
3, 111072, Note_on_c, 1, 65, 101
3, 111164, Note_off_c, 1, 65, 100
3, 111168, Note_on_c, 1, 61, 101
3, 111260, Note_off_c, 1, 61, 100
3, 111264, Note_on_c, 1, 65, 102
3, 111356, Note_off_c, 1, 65, 100
3, 111360, Note_on_c, 1, 61, 102
3, 111452, Note_off_c, 1, 61, 100
3, 111456, Note_on_c, 1, 65, 103
3, 111548, Note_off_c, 1, 65, 100
3, 111552, Note_on_c, 1, 60, 104
3, 111644, Note_off_c, 1, 60, 100
3, 111648, Note_on_c, 1, 63, 104
3, 111740, Note_off_c, 1, 63, 100
3, 111744, Note_on_c, 1, 58, 105
3, 111836, Note_off_c, 1, 58, 100
3, 111840, Note_on_c, 1, 61, 106
3, 111932, Note_off_c, 1, 61, 100
3, 111936, Note_on_c, 1, 58, 106
3, 112028, Note_off_c, 1, 58, 100
3, 112032, Note_on_c, 1, 61, 107
3, 112124, Note_off_c, 1, 61, 100
3, 112128, Note_on_c, 1, 58, 108
3, 112220, Note_off_c, 1, 58, 100
3, 112224, Note_on_c, 1, 61, 108
3, 112316, Note_off_c, 1, 61, 100
3, 112320, Note_on_c, 1, 56, 109
3, 112412, Note_off_c, 1, 56, 100
3, 112416, Note_on_c, 1, 60, 109
3, 112508, Note_off_c, 1, 60, 100
3, 112512, Note_on_c, 1, 55, 110
3, 112604, Note_off_c, 1, 55, 100
3, 112608, Note_on_c, 1, 58, 110
3, 112700, Note_off_c, 1, 58, 100
3, 112704, Note_on_c, 1, 55, 110
3, 112796, Note_off_c, 1, 55, 100
3, 112800, Note_on_c, 1, 58, 110
3, 112892, Note_off_c, 1, 58, 100
3, 112896, Note_on_c, 1, 55, 110
3, 112988, Note_off_c, 1, 55, 100
3, 112992, Note_on_c, 1, 58, 110
3, 113084, Note_off_c, 1, 58, 100
3, 113088, Note_on_c, 1, 55, 110
3, 113180, Note_off_c, 1, 55, 100
3, 113184, Note_on_c, 1, 58, 110
3, 113276, Note_off_c, 1, 58, 100
3, 113280, Note_on_c, 1, 56, 110
3, 113372, Note_off_c, 1, 56, 100
3, 113376, Note_on_c, 1, 60, 110
3, 113468, Note_off_c, 1, 60, 100
3, 113472, Note_on_c, 1, 56, 110
3, 113564, Note_off_c, 1, 56, 100
3, 113568, Note_on_c, 1, 60, 110
3, 113660, Note_off_c, 1, 60, 100
3, 113664, Note_on_c, 1, 52, 110
3, 113756, Note_off_c, 1, 52, 100
3, 113760, Note_on_c, 1, 60, 110
3, 113852, Note_off_c, 1, 60, 100
3, 113856, Note_on_c, 1, 52, 110
3, 113948, Note_off_c, 1, 52, 100
3, 113952, Note_on_c, 1, 60, 110
3, 114044, Note_off_c, 1, 60, 100
3, 114048, Note_on_c, 1, 53, 110
3, 114140, Note_off_c, 1, 53, 100
3, 114144, Note_on_c, 1, 60, 110
3, 114236, Note_off_c, 1, 60, 100
3, 114240, Note_on_c, 1, 53, 110
3, 114332, Note_off_c, 1, 53, 100
3, 114336, Note_on_c, 1, 60, 110
3, 114428, Note_off_c, 1, 60, 100
3, 114432, Note_on_c, 1, 51, 110
3, 114524, Note_off_c, 1, 51, 100
3, 114528, Note_on_c, 1, 53, 110
3, 114620, Note_off_c, 1, 53, 100
3, 114624, Note_on_c, 1, 51, 110
3, 114716, Note_off_c, 1, 51, 100
3, 114720, Note_on_c, 1, 53, 110
3, 114812, Note_off_c, 1, 53, 100
3, 114816, Note_on_c, 1, 49, 110
3, 114908, Note_off_c, 1, 49, 100
3, 114912, Note_on_c, 1, 53, 110
3, 115004, Note_off_c, 1, 53, 100
3, 115008, Note_on_c, 1, 49, 110
3, 115100, Note_off_c, 1, 49, 100
3, 115104, Note_on_c, 1, 53, 110
3, 115196, Note_off_c, 1, 53, 100
3, 115200, Note_on_c, 1, 45, 110
3, 115292, Note_off_c, 1, 45, 100
3, 115296, Note_on_c, 1, 53, 110
3, 115388, Note_off_c, 1, 53, 100
3, 115392, Note_on_c, 1, 45, 110
3, 115484, Note_off_c, 1, 45, 100
3, 115488, Note_on_c, 1, 53, 110
3, 115580, Note_off_c, 1, 53, 100
3, 115584, Note_on_c, 1, 46, 120
3, 115676, Note_off_c, 1, 46, 100
3, 115680, Note_on_c, 1, 53, 120
3, 115772, Note_off_c, 1, 53, 100
3, 115776, Note_on_c, 1, 46, 120
3, 115868, Note_off_c, 1, 46, 100
3, 115872, Note_on_c, 1, 53, 120
3, 115964, Note_off_c, 1, 53, 100
3, 115968, Note_on_c, 1, 46, 120
3, 116060, Note_off_c, 1, 46, 100
3, 116064, Note_on_c, 1, 53, 120
3, 116156, Note_off_c, 1, 53, 100
3, 116160, Note_on_c, 1, 48, 120
3, 116252, Note_off_c, 1, 48, 100
3, 116256, Note_on_c, 1, 53, 120
3, 116348, Note_off_c, 1, 53, 100
3, 116352, Note_on_c, 1, 49, 120
3, 116444, Note_off_c, 1, 49, 100
3, 116448, Note_on_c, 1, 53, 120
3, 116540, Note_off_c, 1, 53, 100
3, 116544, Note_on_c, 1, 49, 120
3, 116636, Note_off_c, 1, 49, 100
3, 116640, Note_on_c, 1, 53, 120
3, 116732, Note_off_c, 1, 53, 100
3, 116736, Note_on_c, 1, 49, 120
3, 116828, Note_off_c, 1, 49, 100
3, 116832, Note_on_c, 1, 53, 120
3, 116924, Note_off_c, 1, 53, 100
3, 116928, Note_on_c, 1, 37, 120
3, 117020, Note_off_c, 1, 37, 100
3, 117024, Note_on_c, 1, 49, 120
3, 117116, Note_off_c, 1, 49, 100
3, 117120, Note_on_c, 1, 36, 120
3, 117212, Note_off_c, 1, 36, 100
3, 117216, Note_on_c, 1, 48, 120
3, 117308, Note_off_c, 1, 48, 100
3, 117312, Note_on_c, 1, 36, 120
3, 117404, Note_off_c, 1, 36, 100
3, 117408, Note_on_c, 1, 48, 120
3, 117500, Note_off_c, 1, 48, 100
3, 117504, Note_on_c, 1, 36, 120
3, 117596, Note_off_c, 1, 36, 100
3, 117600, Note_on_c, 1, 48, 120
3, 117692, Note_off_c, 1, 48, 100
3, 117696, Note_on_c, 1, 40, 120
3, 117788, Note_off_c, 1, 40, 100
3, 117792, Note_on_c, 1, 52, 120
3, 117884, Note_off_c, 1, 52, 100
3, 117888, Note_on_c, 1, 41, 120
3, 117980, Note_off_c, 1, 41, 100
3, 117984, Note_on_c, 1, 53, 120
3, 118076, Note_off_c, 1, 53, 100
3, 118080, Note_on_c, 1, 41, 120
3, 118172, Note_off_c, 1, 41, 100
3, 118176, Note_on_c, 1, 53, 120
3, 118268, Note_off_c, 1, 53, 100
3, 118272, Note_on_c, 1, 41, 120
3, 118364, Note_off_c, 1, 41, 100
3, 118368, Note_on_c, 1, 53, 120
3, 118460, Note_off_c, 1, 53, 100
3, 118464, Note_on_c, 1, 33, 120
3, 118556, Note_off_c, 1, 33, 100
3, 118560, Note_on_c, 1, 45, 120
3, 118652, Note_off_c, 1, 45, 100
3, 118656, Note_on_c, 1, 34, 110
3, 118748, Note_off_c, 1, 34, 100
3, 118752, Note_on_c, 1, 46, 110
3, 118844, Note_off_c, 1, 46, 100
3, 118848, Note_on_c, 1, 34, 110
3, 118940, Note_off_c, 1, 34, 100
3, 118944, Note_on_c, 1, 46, 110
3, 119036, Note_off_c, 1, 46, 100
3, 119040, Note_on_c, 1, 34, 110
3, 119132, Note_off_c, 1, 34, 100
3, 119136, Note_on_c, 1, 46, 110
3, 119228, Note_off_c, 1, 46, 100
3, 119232, Note_on_c, 1, 35, 110
3, 119324, Note_off_c, 1, 35, 100
3, 119328, Note_on_c, 1, 47, 110
3, 119420, Note_off_c, 1, 47, 100
3, 119424, Note_on_c, 1, 36, 110
3, 119516, Note_off_c, 1, 36, 100
3, 119520, Note_on_c, 1, 48, 110
3, 119612, Note_off_c, 1, 48, 100
3, 119616, Note_on_c, 1, 36, 110
3, 119708, Note_off_c, 1, 36, 100
3, 119712, Note_on_c, 1, 48, 110
3, 119804, Note_off_c, 1, 48, 100
3, 119808, Note_on_c, 1, 36, 110
3, 119900, Note_off_c, 1, 36, 100
3, 119904, Note_on_c, 1, 48, 110
3, 119996, Note_off_c, 1, 48, 100
3, 120000, Note_on_c, 1, 36, 110
3, 120092, Note_off_c, 1, 36, 100
3, 120096, Note_on_c, 1, 48, 110
3, 120188, Note_off_c, 1, 48, 100
3, 120192, Note_on_c, 1, 53, 110
3, 120192, Note_on_c, 1, 41, 110
3, 120380, Note_off_c, 1, 53, 100
3, 120384, Note_on_c, 1, 53, 80
3, 120572, Note_off_c, 1, 53, 100
3, 120576, Note_on_c, 1, 53, 80
3, 120764, Note_off_c, 1, 53, 100
3, 120768, Note_on_c, 1, 48, 80
3, 120956, Note_off_c, 1, 41, 100
3, 120956, Note_off_c, 1, 48, 100
3, 120960, Note_on_c, 1, 53, 80
3, 120960, Note_on_c, 1, 41, 80
3, 121148, Note_off_c, 1, 53, 100
3, 121152, Note_on_c, 1, 53, 80
3, 121340, Note_off_c, 1, 53, 100
3, 121344, Note_on_c, 1, 53, 80
3, 121532, Note_off_c, 1, 53, 100
3, 121536, Note_on_c, 1, 48, 80
3, 121724, Note_off_c, 1, 41, 100
3, 121724, Note_off_c, 1, 48, 100
3, 121728, Note_on_c, 1, 41, 80
3, 121728, Note_on_c, 1, 55, 80
3, 121916, Note_off_c, 1, 55, 100
3, 121920, Note_on_c, 1, 53, 80
3, 122108, Note_off_c, 1, 53, 100
3, 122112, Note_on_c, 1, 52, 80
3, 122300, Note_off_c, 1, 52, 100
3, 122304, Note_on_c, 1, 50, 80
3, 122492, Note_off_c, 1, 50, 100
3, 122496, Note_on_c, 1, 48, 80
3, 122684, Note_off_c, 1, 48, 100
3, 122688, Note_on_c, 1, 50, 80
3, 122876, Note_off_c, 1, 50, 100
3, 122880, Note_on_c, 1, 52, 80
3, 123068, Note_off_c, 1, 52, 100
3, 123072, Note_on_c, 1, 48, 80
3, 123260, Note_off_c, 1, 41, 100
3, 123260, Note_off_c, 1, 48, 100
3, 123264, Note_on_c, 1, 53, 80
3, 123264, Note_on_c, 1, 41, 80
3, 123452, Note_off_c, 1, 53, 100
3, 123456, Note_on_c, 1, 53, 80
3, 123644, Note_off_c, 1, 53, 100
3, 123648, Note_on_c, 1, 53, 80
3, 123836, Note_off_c, 1, 53, 100
3, 123840, Note_on_c, 1, 48, 80
3, 124028, Note_off_c, 1, 41, 100
3, 124028, Note_off_c, 1, 48, 100
3, 124032, Note_on_c, 1, 53, 80
3, 124032, Note_on_c, 1, 41, 80
3, 124220, Note_off_c, 1, 53, 100
3, 124224, Note_on_c, 1, 53, 80
3, 124412, Note_off_c, 1, 53, 100
3, 124416, Note_on_c, 1, 53, 80
3, 124604, Note_off_c, 1, 53, 100
3, 124608, Note_on_c, 1, 48, 80
3, 124796, Note_off_c, 1, 41, 100
3, 124796, Note_off_c, 1, 48, 100
3, 124800, Note_on_c, 1, 41, 80
3, 124800, Note_on_c, 1, 55, 80
3, 124988, Note_off_c, 1, 55, 100
3, 124992, Note_on_c, 1, 53, 80
3, 125180, Note_off_c, 1, 53, 100
3, 125184, Note_on_c, 1, 52, 80
3, 125372, Note_off_c, 1, 52, 100
3, 125376, Note_on_c, 1, 50, 80
3, 125564, Note_off_c, 1, 50, 100
3, 125568, Note_on_c, 1, 48, 80
3, 125756, Note_off_c, 1, 48, 100
3, 125760, Note_on_c, 1, 50, 80
3, 125948, Note_off_c, 1, 50, 100
3, 125952, Note_on_c, 1, 52, 80
3, 126140, Note_off_c, 1, 52, 100
3, 126144, Note_on_c, 1, 48, 80
3, 126332, Note_off_c, 1, 41, 100
3, 126332, Note_off_c, 1, 48, 100
3, 126336, Note_on_c, 1, 53, 80
3, 126528, Note_on_c, 1, 65, 80
3, 126716, Note_off_c, 1, 65, 100
3, 126720, Note_on_c, 1, 65, 80
3, 126908, Note_off_c, 1, 65, 100
3, 126912, Note_on_c, 1, 60, 80
3, 127100, Note_off_c, 1, 53, 100
3, 127100, Note_off_c, 1, 60, 100
3, 127104, Note_on_c, 1, 53, 80
3, 127104, Note_on_c, 1, 65, 80
3, 127292, Note_off_c, 1, 65, 100
3, 127296, Note_on_c, 1, 65, 80
3, 127484, Note_off_c, 1, 65, 100
3, 127488, Note_on_c, 1, 65, 80
3, 127676, Note_off_c, 1, 65, 100
3, 127680, Note_on_c, 1, 60, 80
3, 127868, Note_off_c, 1, 53, 100
3, 127868, Note_off_c, 1, 60, 100
3, 127872, Note_on_c, 1, 53, 80
3, 127872, Note_on_c, 1, 67, 80
3, 128060, Note_off_c, 1, 67, 100
3, 128064, Note_on_c, 1, 65, 84
3, 128252, Note_off_c, 1, 65, 100
3, 128256, Note_on_c, 1, 64, 89
3, 128444, Note_off_c, 1, 64, 100
3, 128448, Note_on_c, 1, 62, 94
3, 128636, Note_off_c, 1, 62, 100
3, 128640, Note_on_c, 1, 60, 90
3, 128828, Note_off_c, 1, 60, 100
3, 128832, Note_on_c, 1, 64, 87
3, 129020, Note_off_c, 1, 64, 100
3, 129024, Note_on_c, 1, 62, 84
3, 129212, Note_off_c, 1, 62, 100
3, 129216, Note_on_c, 1, 60, 81
3, 129404, Note_off_c, 1, 53, 100
3, 129404, Note_off_c, 1, 60, 100
3, 129408, Note_on_c, 1, 53, 80
3, 129408, Note_on_c, 1, 65, 80
3, 129596, Note_off_c, 1, 65, 100
3, 129600, Note_on_c, 1, 65, 80
3, 129788, Note_off_c, 1, 65, 100
3, 129792, Note_on_c, 1, 65, 80
3, 129980, Note_off_c, 1, 65, 100
3, 129984, Note_on_c, 1, 60, 80
3, 130172, Note_off_c, 1, 53, 100
3, 130172, Note_off_c, 1, 60, 100
3, 130176, Note_on_c, 1, 53, 80
3, 130176, Note_on_c, 1, 65, 80
3, 130364, Note_off_c, 1, 65, 100
3, 130368, Note_on_c, 1, 65, 80
3, 130556, Note_off_c, 1, 65, 100
3, 130560, Note_on_c, 1, 65, 80
3, 130748, Note_off_c, 1, 65, 100
3, 130752, Note_on_c, 1, 60, 80
3, 130940, Note_off_c, 1, 53, 100
3, 130940, Note_off_c, 1, 60, 100
3, 130944, Note_on_c, 1, 53, 80
3, 130944, Note_on_c, 1, 67, 80
3, 131132, Note_off_c, 1, 67, 100
3, 131136, Note_on_c, 1, 65, 84
3, 131324, Note_off_c, 1, 65, 100
3, 131328, Note_on_c, 1, 64, 89
3, 131516, Note_off_c, 1, 64, 100
3, 131520, Note_on_c, 1, 62, 94
3, 131708, Note_off_c, 1, 62, 100
3, 131712, Note_on_c, 1, 60, 90
3, 131900, Note_off_c, 1, 60, 100
3, 131904, Note_on_c, 1, 64, 87
3, 132092, Note_off_c, 1, 64, 100
3, 132096, Note_on_c, 1, 62, 84
3, 132284, Note_off_c, 1, 62, 100
3, 132288, Note_on_c, 1, 60, 81
3, 132476, Note_off_c, 1, 53, 100
3, 132476, Note_off_c, 1, 60, 100
3, 132480, Note_on_c, 1, 65, 80
3, 132668, Note_off_c, 1, 65, 100
3, 132672, Note_on_c, 1, 76, 80
3, 132860, Note_off_c, 1, 76, 100
3, 132864, Note_on_c, 1, 74, 80
3, 133052, Note_off_c, 1, 74, 100
3, 133056, Note_on_c, 1, 72, 80
3, 133244, Note_off_c, 1, 72, 100
3, 133248, Note_on_c, 1, 70, 80
3, 133436, Note_off_c, 1, 70, 100
3, 133440, Note_on_c, 1, 69, 80
3, 133628, Note_off_c, 1, 69, 100
3, 133632, Note_on_c, 1, 67, 80
3, 133820, Note_off_c, 1, 67, 100
3, 133824, Note_on_c, 1, 72, 80
3, 134012, Note_off_c, 1, 72, 100
3, 134016, Note_on_c, 1, 65, 80
3, 134204, Note_off_c, 1, 65, 100
3, 134208, Note_on_c, 1, 64, 81
3, 134396, Note_off_c, 1, 64, 100
3, 134400, Note_on_c, 1, 62, 83
3, 134588, Note_off_c, 1, 62, 100
3, 134592, Note_on_c, 1, 60, 85
3, 134780, Note_off_c, 1, 60, 100
3, 134784, Note_on_c, 1, 58, 87
3, 134972, Note_off_c, 1, 58, 100
3, 134976, Note_on_c, 1, 57, 89
3, 135164, Note_off_c, 1, 57, 100
3, 135168, Note_on_c, 1, 55, 91
3, 135356, Note_off_c, 1, 55, 100
3, 135360, Note_on_c, 1, 60, 93
3, 135548, Note_off_c, 1, 60, 100
3, 135552, Note_on_c, 1, 57, 95
3, 135552, Note_on_c, 1, 53, 95
3, 135740, Note_off_c, 1, 57, 100
3, 135740, Note_off_c, 1, 53, 100
3, 135744, Note_on_c, 1, 57, 97
3, 135744, Note_on_c, 1, 53, 97
3, 135932, Note_off_c, 1, 57, 100
3, 135932, Note_off_c, 1, 53, 100
3, 135936, Note_on_c, 1, 57, 99
3, 135936, Note_on_c, 1, 53, 99
3, 136124, Note_off_c, 1, 57, 100
3, 136124, Note_off_c, 1, 53, 100
3, 136128, Note_on_c, 1, 57, 101
3, 136128, Note_on_c, 1, 53, 101
3, 136316, Note_off_c, 1, 57, 100
3, 136316, Note_off_c, 1, 53, 100
3, 136320, Note_on_c, 1, 55, 103
3, 136320, Note_on_c, 1, 53, 103
3, 136508, Note_off_c, 1, 55, 100
3, 136508, Note_off_c, 1, 53, 100
3, 136512, Note_on_c, 1, 55, 105
3, 136512, Note_on_c, 1, 53, 105
3, 136700, Note_off_c, 1, 55, 100
3, 136700, Note_off_c, 1, 53, 100
3, 136704, Note_on_c, 1, 55, 107
3, 136704, Note_on_c, 1, 52, 107
3, 136892, Note_off_c, 1, 55, 100
3, 136892, Note_off_c, 1, 52, 100
3, 136896, Note_on_c, 1, 55, 109
3, 136896, Note_on_c, 1, 52, 109
3, 137084, Note_off_c, 1, 55, 100
3, 137084, Note_off_c, 1, 52, 100
3, 137088, Note_on_c, 1, 53, 120
3, 137276, Note_off_c, 1, 53, 100
3, 137280, Note_on_c, 1, 36, 120
3, 137468, Note_off_c, 1, 36, 100
3, 137472, Note_on_c, 1, 36, 120
3, 137660, Note_off_c, 1, 36, 100
3, 137664, Note_on_c, 1, 36, 120
3, 137852, Note_off_c, 1, 36, 100
3, 137856, Note_on_c, 1, 36, 120
3, 138044, Note_off_c, 1, 36, 100
3, 138048, Note_on_c, 1, 36, 120
3, 138236, Note_off_c, 1, 36, 100
3, 138240, Note_on_c, 1, 38, 120
3, 138428, Note_off_c, 1, 38, 100
3, 138432, Note_on_c, 1, 40, 120
3, 138620, Note_off_c, 1, 40, 100
3, 138624, Note_on_c, 1, 41, 120
3, 138624, Note_on_c, 1, 29, 120
3, 139196, Note_off_c, 1, 41, 100
3, 139196, Note_off_c, 1, 29, 100
3, 139196, End_track
0, 0, End_of_file
