0, 0, Header, 1, 3, 384
1, 0, Start_track
1, 0, Title_t, "L.v.Beethoven 1mov - Piano Sonata No.6 in F Major Op.10-2\000"
1, 0, Copyright_t, "Copyright(C) 1995-2009, Suzuki Software\000"
1, 0, Sequencer_specific, 9, 67, 123, 0, 88, 70, 48, 50, 0, 1
1, 0, Text_t, "XFhd:2000/04/02:JP:Classical::::L.v.Beethoven:::Kaoru Suzuki\000"
1, 0, Text_t, "XFln:JP:\203s\203A\203m\203\\\203i\203^\221æ6\224Ô\203w\222·\222²\215ì\225i10-2\201`\221æ1\212y\217Í:L.v.\203x\201[\203g\201[\203\224\203F\203\223:::\227é\202¿\202á\202ñ:\227é\202¿\202á\202ñ\000"
1, 0, Time_signature, 1, 2, 96, 8
1, 0, Sequencer_specific, 3, 0, 0, 65
1, 0, Sequencer_specific, 5, 0, 0, 119, 14, 0
1, 0, Tempo, 600000
1, 384, Time_signature, 2, 2, 96, 8
1, 5472, Tempo, 750000
1, 6528, Tempo, 600000
1, 28032, Tempo, 631578
1, 28416, Tempo, 666666
1, 28608, Tempo, 705882
1, 28992, Tempo, 631578
1, 31104, Tempo, 750000
1, 31872, Tempo, 600000
1, 33408, Tempo, 666666
1, 35904, Tempo, 600000
1, 56064, Tempo, 697674
1, 57216, Tempo, 600000
1, 58752, Tempo, 631578
1, 63360, Tempo, 600000
1, 78720, Tempo, 631578
1, 79104, Tempo, 666666
1, 80256, Tempo, 631578
1, 81024, Tempo, 666666
1, 81408, Tempo, 750000
1, 82460, Tempo, 600000
1, 84096, Tempo, 631578
1, 84864, Tempo, 666666
1, 86592, Tempo, 600000
1, 101760, Tempo, 666666
1, 106368, Tempo, 600000
1, 123264, Tempo, 666666
1, 126336, Tempo, 600000
1, 138624, Tempo, 631578
1, 139392, Tempo, 666666
1, 139776, Tempo, 750000
1, 139968, Tempo, 1000000
1, 140160, Tempo, 600000
1, 146688, Tempo, 631578
1, 146880, Tempo, 666666
1, 147072, Tempo, 750000
1, 147840, Tempo, 600000
1, 154752, Tempo, 666666
1, 155136, Tempo, 750000
1, 155328, Tempo, 857142
1, 156288, Tempo, 600000
1, 158208, Tempo, 666666
1, 158400, Tempo, 750000
1, 159360, Tempo, 631578
1, 161856, Tempo, 600000
1, 180864, Tempo, 631578
1, 181248, Tempo, 666666
1, 181440, Tempo, 750000
1, 181632, Tempo, 666666
1, 184512, Tempo, 600000
1, 187008, Tempo, 705882
1, 188736, Tempo, 600000
1, 205440, Tempo, 666666
1, 205824, Tempo, 750000
1, 205824, End_track
2, 0, Start_track
2, 0, Title_t, "Right"
2, 0, Control_c, 0, 0, 0
2, 0, Program_c, 0, 0
2, 0, Control_c, 0, 7, 100
2, 0, Control_c, 0, 10, 70
2, 0, Control_c, 0, 91, 127
2, 0, Key_signature, -1, "major"
2, 192, Note_on_c, 0, 69, 80
2, 192, Note_on_c, 0, 65, 80
2, 192, Note_on_c, 0, 60, 80
2, 192, Note_on_c, 0, 57, 80
2, 380, Note_off_c, 0, 69, 100
2, 380, Note_off_c, 0, 65, 100
2, 380, Note_off_c, 0, 60, 100
2, 380, Note_off_c, 0, 57, 100
2, 384, Note_on_c, 0, 72, 80
2, 384, Note_on_c, 0, 69, 80
2, 384, Note_on_c, 0, 65, 80
2, 384, Note_on_c, 0, 60, 80
2, 764, Note_off_c, 0, 72, 100
2, 764, Note_off_c, 0, 69, 100
2, 764, Note_off_c, 0, 65, 100
2, 764, Note_off_c, 0, 60, 100
2, 960, Note_on_c, 0, 72, 80
2, 1020, Note_off_c, 0, 72, 100
2, 1024, Note_on_c, 0, 71, 80
2, 1084, Note_off_c, 0, 71, 100
2, 1088, Note_on_c, 0, 74, 80
2, 1148, Note_off_c, 0, 74, 100
2, 1152, Note_on_c, 0, 72, 80
2, 1532, Note_off_c, 0, 72, 100
2, 1728, Note_on_c, 0, 69, 80
2, 1728, Note_on_c, 0, 65, 80
2, 1728, Note_on_c, 0, 60, 80
2, 1916, Note_off_c, 0, 69, 100
2, 1916, Note_off_c, 0, 65, 100
2, 1916, Note_off_c, 0, 60, 100
2, 1920, Note_on_c, 0, 67, 80
2, 1920, Note_on_c, 0, 60, 80
2, 1920, Note_on_c, 0, 70, 80
2, 2300, Note_off_c, 0, 67, 100
2, 2300, Note_off_c, 0, 60, 100
2, 2300, Note_off_c, 0, 70, 100
2, 2496, Note_on_c, 0, 70, 80
2, 2556, Note_off_c, 0, 70, 100
2, 2560, Note_on_c, 0, 69, 80
2, 2620, Note_off_c, 0, 69, 100
2, 2624, Note_on_c, 0, 72, 80
2, 2684, Note_off_c, 0, 72, 100
2, 2688, Note_on_c, 0, 70, 80
2, 3068, Note_off_c, 0, 70, 100
2, 3264, Note_on_c, 0, 70, 80
2, 3452, Note_off_c, 0, 70, 100
2, 3456, Note_on_c, 0, 69, 80
2, 3596, Note_off_c, 0, 69, 100
2, 3600, Note_on_c, 0, 72, 82
2, 3644, Note_off_c, 0, 72, 100
2, 3648, Note_on_c, 0, 77, 83
2, 4028, Note_off_c, 0, 77, 100
2, 4032, Note_on_c, 0, 76, 91
2, 4220, Note_off_c, 0, 76, 100
2, 4224, Note_on_c, 0, 77, 95
2, 4412, Note_off_c, 0, 77, 100
2, 4416, Note_on_c, 0, 81, 99
2, 4796, Note_off_c, 0, 81, 100
2, 4800, Note_on_c, 0, 79, 90
2, 5180, Note_off_c, 0, 79, 100
2, 5184, Note_on_c, 0, 81, 80
2, 5564, Note_off_c, 0, 81, 100
2, 5568, Note_on_c, 0, 82, 80
2, 5660, Note_off_c, 0, 82, 100
2, 5664, Note_on_c, 0, 84, 80
2, 5756, Note_off_c, 0, 84, 100
2, 5760, Note_on_c, 0, 84, 80
2, 5948, Note_off_c, 0, 84, 100
2, 5952, Note_on_c, 0, 82, 80
2, 6140, Note_off_c, 0, 82, 100
2, 6528, Note_on_c, 0, 82, 80
2, 6576, Note_on_c, 0, 84, 80
2, 6620, Note_off_c, 0, 82, 100
2, 6624, Note_on_c, 0, 81, 80
2, 6668, Note_off_c, 0, 84, 100
2, 6672, Note_on_c, 0, 82, 80
2, 6716, Note_off_c, 0, 81, 100
2, 6720, Note_on_c, 0, 86, 80
2, 6764, Note_off_c, 0, 82, 100
2, 7100, Note_off_c, 0, 86, 100
2, 7104, Note_on_c, 0, 84, 80
2, 7196, Note_off_c, 0, 84, 100
2, 7200, Note_on_c, 0, 82, 80
2, 7292, Note_off_c, 0, 82, 100
2, 7296, Note_on_c, 0, 81, 80
2, 7344, Note_on_c, 0, 82, 80
2, 7388, Note_off_c, 0, 81, 100
2, 7392, Note_on_c, 0, 84, 80
2, 7436, Note_off_c, 0, 82, 100
2, 7440, Note_on_c, 0, 82, 80
2, 7484, Note_off_c, 0, 84, 100
2, 7488, Note_on_c, 0, 81, 80
2, 7532, Note_off_c, 0, 82, 100
2, 7820, Note_off_c, 0, 81, 100
2, 7824, Note_on_c, 0, 79, 80
2, 7868, Note_off_c, 0, 79, 100
2, 7872, Note_on_c, 0, 82, 80
2, 8012, Note_off_c, 0, 82, 100
2, 8016, Note_on_c, 0, 79, 80
2, 8060, Note_off_c, 0, 79, 100
2, 8064, Note_on_c, 0, 79, 80
2, 8252, Note_off_c, 0, 79, 100
2, 8256, Note_on_c, 0, 77, 80
2, 8588, Note_off_c, 0, 77, 100
2, 8592, Note_on_c, 0, 76, 80
2, 8636, Note_off_c, 0, 76, 100
2, 8640, Note_on_c, 0, 79, 80
2, 8780, Note_off_c, 0, 79, 100
2, 8784, Note_on_c, 0, 76, 80
2, 8828, Note_off_c, 0, 76, 100
2, 8832, Note_on_c, 0, 77, 80
2, 9212, Note_off_c, 0, 77, 100
2, 9408, Note_on_c, 0, 69, 80
2, 9408, Note_on_c, 0, 65, 80
2, 9408, Note_on_c, 0, 60, 80
2, 9408, Note_on_c, 0, 57, 80
2, 9596, Note_off_c, 0, 69, 100
2, 9596, Note_off_c, 0, 65, 100
2, 9596, Note_off_c, 0, 60, 100
2, 9596, Note_off_c, 0, 57, 100
2, 9600, Note_on_c, 0, 72, 80
2, 9600, Note_on_c, 0, 69, 80
2, 9600, Note_on_c, 0, 65, 80
2, 9600, Note_on_c, 0, 60, 80
2, 9980, Note_off_c, 0, 72, 100
2, 9980, Note_off_c, 0, 69, 100
2, 9980, Note_off_c, 0, 65, 100
2, 9980, Note_off_c, 0, 60, 100
2, 10176, Note_on_c, 0, 72, 80
2, 10236, Note_off_c, 0, 72, 100
2, 10240, Note_on_c, 0, 71, 80
2, 10300, Note_off_c, 0, 71, 100
2, 10304, Note_on_c, 0, 74, 80
2, 10364, Note_off_c, 0, 74, 100
2, 10368, Note_on_c, 0, 72, 80
2, 10748, Note_off_c, 0, 72, 100
2, 10944, Note_on_c, 0, 69, 80
2, 10944, Note_on_c, 0, 63, 80
2, 10944, Note_on_c, 0, 60, 80
2, 10944, Note_on_c, 0, 57, 80
2, 11132, Note_off_c, 0, 69, 100
2, 11132, Note_off_c, 0, 63, 100
2, 11132, Note_off_c, 0, 60, 100
2, 11132, Note_off_c, 0, 57, 100
2, 11136, Note_on_c, 0, 72, 80
2, 11136, Note_on_c, 0, 69, 80
2, 11136, Note_on_c, 0, 63, 80
2, 11136, Note_on_c, 0, 60, 80
2, 11516, Note_off_c, 0, 72, 100
2, 11516, Note_off_c, 0, 69, 100
2, 11516, Note_off_c, 0, 63, 100
2, 11516, Note_off_c, 0, 60, 100
2, 11712, Note_on_c, 0, 72, 80
2, 11772, Note_off_c, 0, 72, 100
2, 11776, Note_on_c, 0, 71, 80
2, 11836, Note_off_c, 0, 71, 100
2, 11840, Note_on_c, 0, 74, 80
2, 11900, Note_off_c, 0, 74, 100
2, 11904, Note_on_c, 0, 72, 80
2, 12284, Note_off_c, 0, 72, 100
2, 12480, Note_on_c, 0, 72, 110
2, 12480, Note_on_c, 0, 63, 110
2, 12540, Note_off_c, 0, 72, 100
2, 12544, Note_on_c, 0, 71, 110
2, 12604, Note_off_c, 0, 71, 100
2, 12608, Note_on_c, 0, 69, 110
2, 12668, Note_off_c, 0, 63, 100
2, 12668, Note_off_c, 0, 69, 100
2, 12672, Note_on_c, 0, 76, 110
2, 12672, Note_on_c, 0, 64, 110
2, 12860, Note_off_c, 0, 76, 100
2, 12860, Note_off_c, 0, 64, 100
2, 12864, Note_on_c, 0, 72, 110
2, 12864, Note_on_c, 0, 63, 110
2, 12924, Note_off_c, 0, 72, 100
2, 12928, Note_on_c, 0, 71, 110
2, 12988, Note_off_c, 0, 71, 100
2, 12992, Note_on_c, 0, 69, 110
2, 13052, Note_off_c, 0, 63, 100
2, 13052, Note_off_c, 0, 69, 100
2, 13056, Note_on_c, 0, 76, 110
2, 13056, Note_on_c, 0, 64, 110
2, 13244, Note_off_c, 0, 76, 100
2, 13244, Note_off_c, 0, 64, 100
2, 13248, Note_on_c, 0, 72, 110
2, 13248, Note_on_c, 0, 63, 110
2, 13308, Note_off_c, 0, 72, 100
2, 13312, Note_on_c, 0, 71, 110
2, 13372, Note_off_c, 0, 71, 100
2, 13376, Note_on_c, 0, 69, 110
2, 13436, Note_off_c, 0, 63, 100
2, 13436, Note_off_c, 0, 69, 100
2, 13440, Note_on_c, 0, 76, 110
2, 13440, Note_on_c, 0, 64, 110
2, 13820, Note_off_c, 0, 76, 100
2, 13820, Note_off_c, 0, 64, 100
2, 14016, Note_on_c, 0, 67, 80
2, 14016, Note_on_c, 0, 55, 80
2, 14204, Note_off_c, 0, 67, 100
2, 14204, Note_off_c, 0, 55, 100
2, 14208, Note_on_c, 0, 64, 80
2, 14208, Note_on_c, 0, 52, 80
2, 14588, Note_off_c, 0, 64, 100
2, 14588, Note_off_c, 0, 52, 100
2, 14592, Note_on_c, 0, 55, 84
2, 14592, Note_on_c, 0, 60, 84
2, 14592, Note_on_c, 0, 64, 84
2, 14592, Note_on_c, 0, 67, 84
2, 14972, Note_off_c, 0, 55, 100
2, 14972, Note_off_c, 0, 60, 100
2, 14972, Note_off_c, 0, 64, 100
2, 14972, Note_off_c, 0, 67, 100
2, 14976, Note_on_c, 0, 72, 89
2, 14976, Note_on_c, 0, 67, 89
2, 14976, Note_on_c, 0, 64, 89
2, 14976, Note_on_c, 0, 60, 89
2, 15548, Note_off_c, 0, 72, 100
2, 15548, Note_off_c, 0, 67, 100
2, 15548, Note_off_c, 0, 64, 100
2, 15548, Note_off_c, 0, 60, 100
2, 15552, Note_on_c, 0, 76, 96
2, 15552, Note_on_c, 0, 64, 96
2, 15740, Note_off_c, 0, 76, 100
2, 15740, Note_off_c, 0, 64, 100
2, 15744, Note_on_c, 0, 79, 98
2, 15744, Note_on_c, 0, 67, 98
2, 15932, Note_off_c, 0, 79, 100
2, 15932, Note_off_c, 0, 67, 100
2, 15936, Note_on_c, 0, 72, 110
2, 15936, Note_on_c, 0, 84, 110
2, 16316, Note_off_c, 0, 72, 100
2, 16316, Note_off_c, 0, 84, 100
2, 16320, Note_on_c, 0, 88, 110
2, 16320, Note_on_c, 0, 76, 110
2, 16412, Note_off_c, 0, 88, 100
2, 16412, Note_off_c, 0, 76, 100
2, 16416, Note_on_c, 0, 74, 100
2, 16416, Note_on_c, 0, 86, 100
2, 16508, Note_off_c, 0, 74, 100
2, 16508, Note_off_c, 0, 86, 100
2, 16512, Note_on_c, 0, 72, 98
2, 16512, Note_on_c, 0, 84, 98
2, 16892, Note_off_c, 0, 72, 100
2, 16892, Note_off_c, 0, 84, 100
2, 16896, Note_on_c, 0, 71, 88
2, 16896, Note_on_c, 0, 83, 88
2, 17084, Note_off_c, 0, 71, 100
2, 17084, Note_off_c, 0, 83, 100
2, 17280, Note_on_c, 0, 71, 80
2, 17280, Note_on_c, 0, 65, 80
2, 17280, Note_on_c, 0, 62, 80
2, 17280, Note_on_c, 0, 59, 80
2, 17660, Note_off_c, 0, 71, 100
2, 17660, Note_off_c, 0, 65, 100
2, 17660, Note_off_c, 0, 62, 100
2, 17660, Note_off_c, 0, 59, 100
2, 17664, Note_on_c, 0, 74, 84
2, 17664, Note_on_c, 0, 71, 84
2, 17664, Note_on_c, 0, 65, 84
2, 17664, Note_on_c, 0, 62, 84
2, 18044, Note_off_c, 0, 74, 100
2, 18044, Note_off_c, 0, 71, 100
2, 18044, Note_off_c, 0, 65, 100
2, 18044, Note_off_c, 0, 62, 100
2, 18048, Note_on_c, 0, 77, 89
2, 18048, Note_on_c, 0, 74, 89
2, 18048, Note_on_c, 0, 71, 89
2, 18048, Note_on_c, 0, 65, 89
2, 18620, Note_off_c, 0, 77, 100
2, 18620, Note_off_c, 0, 74, 100
2, 18620, Note_off_c, 0, 71, 100
2, 18620, Note_off_c, 0, 65, 100
2, 18624, Note_on_c, 0, 71, 96
2, 18624, Note_on_c, 0, 83, 96
2, 18812, Note_off_c, 0, 71, 100
2, 18812, Note_off_c, 0, 83, 100
2, 18816, Note_on_c, 0, 74, 98
2, 18816, Note_on_c, 0, 86, 98
2, 19004, Note_off_c, 0, 74, 100
2, 19004, Note_off_c, 0, 86, 100
2, 19008, Note_on_c, 0, 77, 110
2, 19008, Note_on_c, 0, 89, 110
2, 19388, Note_off_c, 0, 77, 100
2, 19388, Note_off_c, 0, 89, 100
2, 19392, Note_on_c, 0, 76, 110
2, 19392, Note_on_c, 0, 88, 110
2, 19580, Note_off_c, 0, 76, 100
2, 19580, Note_off_c, 0, 88, 100
2, 19584, Note_on_c, 0, 74, 100
2, 19584, Note_on_c, 0, 86, 100
2, 19964, Note_off_c, 0, 74, 100
2, 19964, Note_off_c, 0, 86, 100
2, 19968, Note_on_c, 0, 72, 89
2, 19968, Note_on_c, 0, 84, 89
2, 20156, Note_off_c, 0, 72, 100
2, 20156, Note_off_c, 0, 84, 100
2, 20352, Note_on_c, 0, 76, 120
2, 20352, Note_on_c, 0, 72, 120
2, 20352, Note_on_c, 0, 67, 120
2, 20352, Note_on_c, 0, 64, 120
2, 20732, Note_off_c, 0, 76, 100
2, 20732, Note_off_c, 0, 72, 100
2, 20732, Note_off_c, 0, 67, 100
2, 20732, Note_off_c, 0, 64, 100
2, 20736, Note_on_c, 0, 67, 120
2, 20736, Note_on_c, 0, 72, 120
2, 20736, Note_on_c, 0, 76, 120
2, 20736, Note_on_c, 0, 79, 120
2, 21116, Note_off_c, 0, 67, 100
2, 21116, Note_off_c, 0, 72, 100
2, 21116, Note_off_c, 0, 76, 100
2, 21116, Note_off_c, 0, 79, 100
2, 21120, Note_on_c, 0, 72, 120
2, 21120, Note_on_c, 0, 84, 120
2, 21692, Note_off_c, 0, 72, 100
2, 21692, Note_off_c, 0, 84, 100
2, 21696, Note_on_c, 0, 73, 120
2, 21696, Note_on_c, 0, 85, 120
2, 22076, Note_off_c, 0, 73, 100
2, 22076, Note_off_c, 0, 85, 100
2, 22080, Note_on_c, 0, 74, 120
2, 22080, Note_on_c, 0, 86, 120
2, 22460, Note_off_c, 0, 74, 100
2, 22460, Note_off_c, 0, 86, 100
2, 22464, Note_on_c, 0, 72, 120
2, 22464, Note_on_c, 0, 84, 120
2, 22652, Note_off_c, 0, 72, 100
2, 22652, Note_off_c, 0, 84, 100
2, 22656, Note_on_c, 0, 72, 120
2, 22656, Note_on_c, 0, 84, 120
2, 22844, Note_off_c, 0, 72, 100
2, 22844, Note_off_c, 0, 84, 100
2, 22848, Note_on_c, 0, 71, 120
2, 22848, Note_on_c, 0, 83, 120
2, 23036, Note_off_c, 0, 71, 100
2, 23036, Note_off_c, 0, 83, 100
2, 23232, Note_on_c, 0, 78, 100
2, 23232, Note_on_c, 0, 72, 100
2, 23420, Note_off_c, 0, 78, 100
2, 23420, Note_off_c, 0, 72, 100
2, 23424, Note_on_c, 0, 79, 100
2, 23424, Note_on_c, 0, 72, 100
2, 23612, Note_off_c, 0, 72, 100
2, 23616, Note_on_c, 0, 71, 100
2, 23804, Note_off_c, 0, 79, 100
2, 23804, Note_off_c, 0, 71, 100
2, 24000, Note_on_c, 0, 84, 100
2, 24188, Note_off_c, 0, 84, 100
2, 24192, Note_on_c, 0, 84, 100
2, 24284, Note_off_c, 0, 84, 100
2, 24288, Note_on_c, 0, 83, 100
2, 24380, Note_off_c, 0, 83, 100
2, 24384, Note_on_c, 0, 81, 100
2, 24476, Note_off_c, 0, 81, 100
2, 24480, Note_on_c, 0, 79, 100
2, 24572, Note_off_c, 0, 79, 100
2, 24768, Note_on_c, 0, 78, 100
2, 24768, Note_on_c, 0, 72, 100
2, 24956, Note_off_c, 0, 78, 100
2, 24956, Note_off_c, 0, 72, 100
2, 24960, Note_on_c, 0, 79, 100
2, 24960, Note_on_c, 0, 72, 100
2, 25052, Note_off_c, 0, 72, 100
2, 25056, Note_on_c, 0, 71, 100
2, 25148, Note_off_c, 0, 71, 100
2, 25152, Note_on_c, 0, 69, 100
2, 25244, Note_off_c, 0, 69, 100
2, 25248, Note_on_c, 0, 67, 100
2, 25340, Note_off_c, 0, 79, 100
2, 25340, Note_off_c, 0, 67, 100
2, 25536, Note_on_c, 0, 84, 117
2, 25724, Note_off_c, 0, 84, 100
2, 25728, Note_on_c, 0, 84, 100
2, 25820, Note_off_c, 0, 84, 100
2, 25824, Note_on_c, 0, 83, 100
2, 25916, Note_off_c, 0, 83, 100
2, 25920, Note_on_c, 0, 81, 100
2, 26012, Note_off_c, 0, 81, 100
2, 26016, Note_on_c, 0, 79, 100
2, 26108, Note_off_c, 0, 79, 100
2, 26304, Note_on_c, 0, 84, 117
2, 26492, Note_off_c, 0, 84, 100
2, 26496, Note_on_c, 0, 84, 100
2, 26588, Note_off_c, 0, 84, 100
2, 26592, Note_on_c, 0, 83, 100
2, 26684, Note_off_c, 0, 83, 100
2, 26688, Note_on_c, 0, 81, 100
2, 26780, Note_off_c, 0, 81, 100
2, 26784, Note_on_c, 0, 79, 100
2, 26876, Note_off_c, 0, 79, 100
2, 27072, Note_on_c, 0, 84, 121
2, 27260, Note_off_c, 0, 84, 100
2, 27264, Note_on_c, 0, 84, 80
2, 27356, Note_off_c, 0, 84, 100
2, 27360, Note_on_c, 0, 83, 80
2, 27452, Note_off_c, 0, 83, 100
2, 27456, Note_on_c, 0, 81, 80
2, 27548, Note_off_c, 0, 81, 100
2, 27552, Note_on_c, 0, 79, 80
2, 27644, Note_off_c, 0, 79, 100
2, 27648, Note_on_c, 0, 78, 80
2, 27740, Note_off_c, 0, 78, 100
2, 27744, Note_on_c, 0, 79, 80
2, 27836, Note_off_c, 0, 79, 100
2, 27840, Note_on_c, 0, 81, 80
2, 27932, Note_off_c, 0, 81, 100
2, 27936, Note_on_c, 0, 79, 80
2, 28028, Note_off_c, 0, 79, 100
2, 28032, Note_on_c, 0, 78, 80
2, 28124, Note_off_c, 0, 78, 100
2, 28128, Note_on_c, 0, 79, 80
2, 28220, Note_off_c, 0, 79, 100
2, 28224, Note_on_c, 0, 81, 80
2, 28316, Note_off_c, 0, 81, 100
2, 28320, Note_on_c, 0, 79, 80
2, 28412, Note_off_c, 0, 79, 100
2, 28416, Note_on_c, 0, 78, 80
2, 28508, Note_off_c, 0, 78, 100
2, 28512, Note_on_c, 0, 79, 80
2, 28604, Note_off_c, 0, 79, 100
2, 28608, Note_on_c, 0, 80, 80
2, 28700, Note_off_c, 0, 80, 100
2, 28704, Note_on_c, 0, 81, 80
2, 28796, Note_off_c, 0, 81, 100
2, 28800, Note_on_c, 0, 81, 80
2, 28988, Note_off_c, 0, 81, 100
2, 28992, Note_on_c, 0, 77, 80
2, 29180, Note_off_c, 0, 77, 100
2, 29184, Note_on_c, 0, 74, 80
2, 29372, Note_off_c, 0, 74, 100
2, 29376, Note_on_c, 0, 77, 80
2, 29424, Note_on_c, 0, 76, 80
2, 29468, Note_off_c, 0, 77, 100
2, 29472, Note_on_c, 0, 74, 80
2, 29516, Note_off_c, 0, 76, 100
2, 29520, Note_on_c, 0, 76, 80
2, 29564, Note_off_c, 0, 74, 100
2, 29564, Note_off_c, 0, 76, 100
2, 29568, Note_on_c, 0, 81, 80
2, 29756, Note_off_c, 0, 81, 100
2, 29760, Note_on_c, 0, 77, 80
2, 29948, Note_off_c, 0, 77, 100
2, 29952, Note_on_c, 0, 74, 80
2, 30140, Note_off_c, 0, 74, 100
2, 30144, Note_on_c, 0, 77, 80
2, 30192, Note_on_c, 0, 76, 80
2, 30236, Note_off_c, 0, 77, 100
2, 30240, Note_on_c, 0, 74, 80
2, 30284, Note_off_c, 0, 76, 100
2, 30288, Note_on_c, 0, 76, 80
2, 30332, Note_off_c, 0, 74, 100
2, 30332, Note_off_c, 0, 76, 100
2, 30336, Note_on_c, 0, 77, 80
2, 30336, Note_on_c, 0, 74, 80
2, 30336, Note_on_c, 0, 69, 80
2, 30524, Note_off_c, 0, 77, 100
2, 30524, Note_off_c, 0, 74, 100
2, 30524, Note_off_c, 0, 69, 100
2, 30720, Note_on_c, 0, 67, 80
2, 30720, Note_on_c, 0, 71, 80
2, 30720, Note_on_c, 0, 74, 80
2, 30908, Note_off_c, 0, 67, 100
2, 30908, Note_off_c, 0, 71, 100
2, 30908, Note_off_c, 0, 74, 100
2, 31104, Note_on_c, 0, 76, 80
2, 31104, Note_on_c, 0, 72, 80
2, 31104, Note_on_c, 0, 64, 80
2, 31104, Note_on_c, 0, 67, 80
2, 31484, Note_off_c, 0, 76, 100
2, 31484, Note_off_c, 0, 72, 100
2, 31484, Note_off_c, 0, 64, 100
2, 31484, Note_off_c, 0, 67, 100
2, 31728, Note_on_c, 0, 79, 120
2, 31776, Note_on_c, 0, 76, 120
2, 31820, Note_off_c, 0, 79, 100
2, 31824, Note_on_c, 0, 67, 120
2, 31868, Note_off_c, 0, 76, 100
2, 31916, Note_off_c, 0, 67, 100
2, 31920, Note_on_c, 0, 80, 120
2, 31968, Note_on_c, 0, 77, 120
2, 32012, Note_off_c, 0, 80, 100
2, 32016, Note_on_c, 0, 67, 120
2, 32060, Note_off_c, 0, 77, 100
2, 32108, Note_off_c, 0, 67, 100
2, 32112, Note_on_c, 0, 77, 120
2, 32160, Note_on_c, 0, 74, 120
2, 32204, Note_off_c, 0, 77, 100
2, 32208, Note_on_c, 0, 67, 120
2, 32252, Note_off_c, 0, 74, 100
2, 32300, Note_off_c, 0, 67, 100
2, 32304, Note_on_c, 0, 74, 120
2, 32352, Note_on_c, 0, 71, 120
2, 32396, Note_off_c, 0, 74, 100
2, 32400, Note_on_c, 0, 67, 120
2, 32444, Note_off_c, 0, 71, 100
2, 32492, Note_off_c, 0, 67, 100
2, 32496, Note_on_c, 0, 75, 120
2, 32544, Note_on_c, 0, 72, 120
2, 32588, Note_off_c, 0, 75, 100
2, 32592, Note_on_c, 0, 67, 120
2, 32636, Note_off_c, 0, 72, 100
2, 32684, Note_off_c, 0, 67, 100
2, 32688, Note_on_c, 0, 80, 120
2, 32736, Note_on_c, 0, 77, 120
2, 32780, Note_off_c, 0, 80, 100
2, 32784, Note_on_c, 0, 67, 120
2, 32828, Note_off_c, 0, 77, 100
2, 32876, Note_off_c, 0, 67, 100
2, 32880, Note_on_c, 0, 77, 120
2, 32928, Note_on_c, 0, 74, 120
2, 32972, Note_off_c, 0, 77, 100
2, 32976, Note_on_c, 0, 67, 120
2, 33020, Note_off_c, 0, 74, 100
2, 33068, Note_off_c, 0, 67, 100
2, 33072, Note_on_c, 0, 74, 120
2, 33120, Note_on_c, 0, 71, 120
2, 33164, Note_off_c, 0, 74, 100
2, 33168, Note_on_c, 0, 67, 120
2, 33212, Note_off_c, 0, 71, 100
2, 33260, Note_off_c, 0, 67, 100
2, 33264, Note_on_c, 0, 75, 120
2, 33312, Note_on_c, 0, 72, 120
2, 33356, Note_off_c, 0, 75, 100
2, 33360, Note_on_c, 0, 67, 100
2, 33404, Note_off_c, 0, 72, 100
2, 33408, Note_on_c, 0, 74, 100
2, 33408, Note_on_c, 0, 68, 100
2, 33408, Note_on_c, 0, 77, 100
2, 33452, Note_off_c, 0, 67, 100
2, 33596, Note_off_c, 0, 74, 100
2, 33596, Note_off_c, 0, 68, 100
2, 33596, Note_off_c, 0, 77, 100
2, 33792, Note_on_c, 0, 74, 100
2, 33792, Note_on_c, 0, 71, 100
2, 33792, Note_on_c, 0, 65, 100
2, 33980, Note_off_c, 0, 74, 100
2, 33980, Note_off_c, 0, 71, 100
2, 33980, Note_off_c, 0, 65, 100
2, 34176, Note_on_c, 0, 72, 100
2, 34176, Note_on_c, 0, 68, 100
2, 34176, Note_on_c, 0, 63, 100
2, 34364, Note_off_c, 0, 72, 100
2, 34364, Note_off_c, 0, 68, 100
2, 34364, Note_off_c, 0, 63, 100
2, 34944, Note_on_c, 0, 72, 70
2, 34944, Note_on_c, 0, 69, 70
2, 34944, Note_on_c, 0, 63, 70
2, 35132, Note_off_c, 0, 72, 100
2, 35132, Note_off_c, 0, 69, 100
2, 35132, Note_off_c, 0, 63, 100
2, 35808, Note_on_c, 0, 71, 80
2, 35808, Note_on_c, 0, 62, 80
2, 35996, Note_off_c, 0, 71, 100
2, 35996, Note_off_c, 0, 62, 100
2, 36000, Note_on_c, 0, 65, 81
2, 36000, Note_on_c, 0, 74, 81
2, 36188, Note_off_c, 0, 65, 100
2, 36188, Note_off_c, 0, 74, 100
2, 36192, Note_on_c, 0, 72, 83
2, 36192, Note_on_c, 0, 64, 83
2, 36380, Note_off_c, 0, 72, 100
2, 36380, Note_off_c, 0, 64, 100
2, 36384, Note_on_c, 0, 72, 84
2, 36384, Note_on_c, 0, 76, 84
2, 36572, Note_off_c, 0, 72, 100
2, 36572, Note_off_c, 0, 76, 100
2, 36576, Note_on_c, 0, 71, 85
2, 36576, Note_on_c, 0, 77, 85
2, 36764, Note_off_c, 0, 71, 100
2, 36764, Note_off_c, 0, 77, 100
2, 36768, Note_on_c, 0, 77, 87
2, 36768, Note_on_c, 0, 83, 87
2, 36956, Note_off_c, 0, 77, 100
2, 36956, Note_off_c, 0, 83, 100
2, 36960, Note_on_c, 0, 76, 88
2, 36960, Note_on_c, 0, 84, 88
2, 37148, Note_off_c, 0, 76, 100
2, 37148, Note_off_c, 0, 84, 100
2, 37152, Note_on_c, 0, 84, 89
2, 37152, Note_on_c, 0, 88, 89
2, 37340, Note_off_c, 0, 84, 100
2, 37340, Note_off_c, 0, 88, 100
2, 37344, Note_on_c, 0, 83, 90
2, 37344, Note_on_c, 0, 89, 90
2, 37532, Note_off_c, 0, 83, 100
2, 37532, Note_off_c, 0, 89, 100
2, 37536, Note_on_c, 0, 74, 92
2, 37536, Note_on_c, 0, 83, 92
2, 37724, Note_off_c, 0, 74, 100
2, 37724, Note_off_c, 0, 83, 100
2, 37728, Note_on_c, 0, 76, 93
2, 37728, Note_on_c, 0, 84, 93
2, 37916, Note_off_c, 0, 76, 100
2, 37916, Note_off_c, 0, 84, 100
2, 37920, Note_on_c, 0, 79, 94
2, 37920, Note_on_c, 0, 88, 94
2, 38108, Note_off_c, 0, 79, 100
2, 38108, Note_off_c, 0, 88, 100
2, 38112, Note_on_c, 0, 89, 96
2, 38112, Note_on_c, 0, 77, 96
2, 38300, Note_off_c, 0, 89, 100
2, 38300, Note_off_c, 0, 77, 100
2, 38304, Note_on_c, 0, 74, 97
2, 38304, Note_on_c, 0, 83, 97
2, 38492, Note_off_c, 0, 74, 100
2, 38492, Note_off_c, 0, 83, 100
2, 38496, Note_on_c, 0, 76, 98
2, 38496, Note_on_c, 0, 84, 98
2, 38684, Note_off_c, 0, 76, 100
2, 38684, Note_off_c, 0, 84, 100
2, 38688, Note_on_c, 0, 79, 99
2, 38688, Note_on_c, 0, 88, 99
2, 38784, Note_off_c, 0, 79, 100
2, 38784, Note_off_c, 0, 88, 100
2, 38976, Note_on_c, 0, 86, 110
2, 39036, Note_off_c, 0, 86, 100
2, 39040, Note_on_c, 0, 85, 110
2, 39100, Note_off_c, 0, 85, 100
2, 39104, Note_on_c, 0, 88, 110
2, 39164, Note_off_c, 0, 88, 100
2, 39168, Note_on_c, 0, 86, 110
2, 39356, Note_off_c, 0, 86, 100
2, 39360, Note_on_c, 0, 81, 110
2, 39420, Note_off_c, 0, 81, 100
2, 39424, Note_on_c, 0, 80, 110
2, 39484, Note_off_c, 0, 80, 100
2, 39488, Note_on_c, 0, 83, 110
2, 39548, Note_off_c, 0, 83, 100
2, 39552, Note_on_c, 0, 81, 110
2, 39740, Note_off_c, 0, 81, 100
2, 39744, Note_on_c, 0, 77, 110
2, 39804, Note_off_c, 0, 77, 100
2, 39808, Note_on_c, 0, 76, 110
2, 39868, Note_off_c, 0, 76, 100
2, 39872, Note_on_c, 0, 79, 110
2, 39932, Note_off_c, 0, 79, 100
2, 39936, Note_on_c, 0, 77, 110
2, 40124, Note_off_c, 0, 77, 100
2, 40128, Note_on_c, 0, 74, 110
2, 40188, Note_off_c, 0, 74, 100
2, 40192, Note_on_c, 0, 73, 110
2, 40252, Note_off_c, 0, 73, 100
2, 40256, Note_on_c, 0, 76, 110
2, 40316, Note_off_c, 0, 76, 100
2, 40320, Note_on_c, 0, 74, 110
2, 40508, Note_off_c, 0, 74, 100
2, 40512, Note_on_c, 0, 74, 110
2, 40892, Note_off_c, 0, 74, 100
2, 40896, Note_on_c, 0, 76, 110
2, 40988, Note_off_c, 0, 76, 100
2, 40992, Note_on_c, 0, 77, 110
2, 41084, Note_off_c, 0, 77, 100
2, 41088, Note_on_c, 0, 79, 110
2, 41532, Note_off_c, 0, 79, 100
2, 41536, Note_on_c, 0, 81, 110
2, 41596, Note_off_c, 0, 81, 100
2, 41600, Note_on_c, 0, 79, 110
2, 41660, Note_off_c, 0, 79, 100
2, 41664, Note_on_c, 0, 77, 110
2, 41724, Note_off_c, 0, 77, 100
2, 41728, Note_on_c, 0, 76, 110
2, 41788, Note_off_c, 0, 76, 100
2, 41792, Note_on_c, 0, 74, 110
2, 41852, Note_off_c, 0, 74, 100
2, 41856, Note_on_c, 0, 72, 110
2, 42044, Note_off_c, 0, 72, 100
2, 42240, Note_on_c, 0, 79, 80
2, 42428, Note_off_c, 0, 79, 100
2, 42432, Note_on_c, 0, 79, 80
2, 42620, Note_off_c, 0, 79, 100
2, 42624, Note_on_c, 0, 76, 80
2, 42812, Note_off_c, 0, 76, 100
2, 43008, Note_on_c, 0, 72, 80
2, 43008, Note_on_c, 0, 84, 80
2, 43196, Note_off_c, 0, 72, 100
2, 43196, Note_off_c, 0, 84, 100
2, 43200, Note_on_c, 0, 72, 80
2, 43200, Note_on_c, 0, 84, 80
2, 43388, Note_off_c, 0, 72, 100
2, 43388, Note_off_c, 0, 84, 100
2, 43392, Note_on_c, 0, 69, 80
2, 43392, Note_on_c, 0, 81, 80
2, 43580, Note_off_c, 0, 69, 100
2, 43580, Note_off_c, 0, 81, 100
2, 43776, Note_on_c, 0, 42, 110
2, 43964, Note_off_c, 0, 42, 100
2, 43968, Note_on_c, 0, 42, 110
2, 44156, Note_off_c, 0, 42, 100
2, 44160, Note_on_c, 0, 42, 110
2, 44208, Note_on_c, 0, 43, 110
2, 44252, Note_off_c, 0, 42, 100
2, 44256, Note_on_c, 0, 45, 110
2, 44300, Note_off_c, 0, 43, 100
2, 44304, Note_on_c, 0, 43, 110
2, 44348, Note_off_c, 0, 45, 100
2, 44352, Note_on_c, 0, 45, 110
2, 44396, Note_off_c, 0, 43, 100
2, 44400, Note_on_c, 0, 43, 110
2, 44444, Note_off_c, 0, 45, 100
2, 44448, Note_on_c, 0, 45, 110
2, 44492, Note_off_c, 0, 43, 100
2, 44496, Note_on_c, 0, 43, 110
2, 44540, Note_off_c, 0, 45, 100
2, 44544, Note_on_c, 0, 45, 110
2, 44588, Note_off_c, 0, 43, 100
2, 44592, Note_on_c, 0, 43, 110
2, 44636, Note_off_c, 0, 45, 100
2, 44640, Note_on_c, 0, 45, 110
2, 44684, Note_off_c, 0, 43, 100
2, 44688, Note_on_c, 0, 43, 110
2, 44732, Note_off_c, 0, 45, 100
2, 44736, Note_on_c, 0, 45, 110
2, 44780, Note_off_c, 0, 43, 100
2, 44784, Note_on_c, 0, 43, 110
2, 44828, Note_off_c, 0, 45, 100
2, 44832, Note_on_c, 0, 42, 110
2, 44876, Note_off_c, 0, 43, 100
2, 44924, Note_off_c, 0, 42, 100
2, 44928, Note_on_c, 0, 36, 110
2, 45308, Note_off_c, 0, 36, 100
2, 45312, Note_on_c, 0, 67, 80
2, 45356, Note_off_c, 0, 67, 100
2, 45360, Note_on_c, 0, 79, 80
2, 45500, Note_off_c, 0, 79, 100
2, 45504, Note_on_c, 0, 67, 80
2, 45548, Note_off_c, 0, 67, 100
2, 45552, Note_on_c, 0, 79, 80
2, 45692, Note_off_c, 0, 79, 100
2, 45696, Note_on_c, 0, 64, 80
2, 45740, Note_off_c, 0, 64, 100
2, 45744, Note_on_c, 0, 76, 80
2, 45884, Note_off_c, 0, 76, 100
2, 46080, Note_on_c, 0, 72, 80
2, 46124, Note_off_c, 0, 72, 100
2, 46128, Note_on_c, 0, 84, 80
2, 46268, Note_off_c, 0, 84, 100
2, 46272, Note_on_c, 0, 72, 80
2, 46316, Note_off_c, 0, 72, 100
2, 46320, Note_on_c, 0, 84, 80
2, 46460, Note_off_c, 0, 84, 100
2, 46464, Note_on_c, 0, 69, 80
2, 46508, Note_off_c, 0, 69, 100
2, 46512, Note_on_c, 0, 81, 80
2, 46652, Note_off_c, 0, 81, 100
2, 46848, Note_on_c, 0, 42, 110
2, 47036, Note_off_c, 0, 42, 100
2, 47040, Note_on_c, 0, 42, 110
2, 47228, Note_off_c, 0, 42, 100
2, 47232, Note_on_c, 0, 42, 111
2, 47280, Note_on_c, 0, 43, 111
2, 47324, Note_off_c, 0, 42, 100
2, 47328, Note_on_c, 0, 45, 111
2, 47372, Note_off_c, 0, 43, 100
2, 47376, Note_on_c, 0, 43, 112
2, 47420, Note_off_c, 0, 45, 100
2, 47424, Note_on_c, 0, 45, 112
2, 47468, Note_off_c, 0, 43, 100
2, 47472, Note_on_c, 0, 43, 112
2, 47516, Note_off_c, 0, 45, 100
2, 47520, Note_on_c, 0, 45, 112
2, 47564, Note_off_c, 0, 43, 100
2, 47568, Note_on_c, 0, 43, 112
2, 47612, Note_off_c, 0, 45, 100
2, 47616, Note_on_c, 0, 45, 113
2, 47660, Note_off_c, 0, 43, 100
2, 47664, Note_on_c, 0, 43, 113
2, 47708, Note_off_c, 0, 45, 100
2, 47712, Note_on_c, 0, 45, 113
2, 47756, Note_off_c, 0, 43, 100
2, 47760, Note_on_c, 0, 43, 113
2, 47804, Note_off_c, 0, 45, 100
2, 47808, Note_on_c, 0, 45, 113
2, 47852, Note_off_c, 0, 43, 100
2, 47856, Note_on_c, 0, 43, 113
2, 47900, Note_off_c, 0, 45, 100
2, 47904, Note_on_c, 0, 42, 114
2, 47948, Note_off_c, 0, 43, 100
2, 47996, Note_off_c, 0, 42, 100
2, 48000, Note_on_c, 0, 36, 114
2, 48380, Note_off_c, 0, 36, 100
2, 48384, Note_on_c, 0, 78, 115
2, 48572, Note_off_c, 0, 78, 100
2, 48576, Note_on_c, 0, 78, 116
2, 48764, Note_off_c, 0, 78, 100
2, 48768, Note_on_c, 0, 78, 117
2, 48816, Note_on_c, 0, 79, 117
2, 48860, Note_off_c, 0, 78, 100
2, 48864, Note_on_c, 0, 81, 117
2, 48908, Note_off_c, 0, 79, 100
2, 48912, Note_on_c, 0, 79, 117
2, 48956, Note_off_c, 0, 81, 100
2, 48960, Note_on_c, 0, 81, 118
2, 49004, Note_off_c, 0, 79, 100
2, 49008, Note_on_c, 0, 79, 118
2, 49052, Note_off_c, 0, 81, 100
2, 49056, Note_on_c, 0, 81, 118
2, 49100, Note_off_c, 0, 79, 100
2, 49104, Note_on_c, 0, 79, 118
2, 49148, Note_off_c, 0, 81, 100
2, 49152, Note_on_c, 0, 81, 118
2, 49196, Note_off_c, 0, 79, 100
2, 49200, Note_on_c, 0, 79, 118
2, 49244, Note_off_c, 0, 81, 100
2, 49248, Note_on_c, 0, 81, 119
2, 49292, Note_off_c, 0, 79, 100
2, 49296, Note_on_c, 0, 79, 119
2, 49340, Note_off_c, 0, 81, 100
2, 49344, Note_on_c, 0, 81, 119
2, 49388, Note_off_c, 0, 79, 100
2, 49392, Note_on_c, 0, 79, 119
2, 49436, Note_off_c, 0, 81, 100
2, 49440, Note_on_c, 0, 78, 119
2, 49484, Note_off_c, 0, 79, 100
2, 49488, Note_on_c, 0, 79, 120
2, 49532, Note_off_c, 0, 78, 100
2, 49536, Note_on_c, 0, 84, 120
2, 49536, Note_on_c, 0, 72, 120
2, 49580, Note_off_c, 0, 79, 100
2, 49724, Note_off_c, 0, 84, 100
2, 49724, Note_off_c, 0, 72, 100
2, 49920, Note_on_c, 0, 79, 120
2, 49920, Note_on_c, 0, 67, 120
2, 50108, Note_off_c, 0, 79, 100
2, 50108, Note_off_c, 0, 67, 100
2, 50304, Note_on_c, 0, 72, 120
2, 50304, Note_on_c, 0, 60, 120
2, 50684, Note_off_c, 0, 72, 100
2, 50684, Note_off_c, 0, 60, 100
2, 50880, Note_on_c, 0, 69, 80
2, 50880, Note_on_c, 0, 65, 80
2, 50880, Note_on_c, 0, 60, 80
2, 50880, Note_on_c, 0, 57, 80
2, 51068, Note_off_c, 0, 69, 100
2, 51068, Note_off_c, 0, 65, 100
2, 51068, Note_off_c, 0, 60, 100
2, 51068, Note_off_c, 0, 57, 100
2, 51072, Note_on_c, 0, 72, 80
2, 51072, Note_on_c, 0, 69, 80
2, 51072, Note_on_c, 0, 65, 80
2, 51072, Note_on_c, 0, 60, 80
2, 51452, Note_off_c, 0, 72, 100
2, 51452, Note_off_c, 0, 69, 100
2, 51452, Note_off_c, 0, 65, 100
2, 51452, Note_off_c, 0, 60, 100
2, 51648, Note_on_c, 0, 72, 80
2, 51708, Note_off_c, 0, 72, 100
2, 51712, Note_on_c, 0, 71, 80
2, 51772, Note_off_c, 0, 71, 100
2, 51776, Note_on_c, 0, 74, 80
2, 51836, Note_off_c, 0, 74, 100
2, 51840, Note_on_c, 0, 72, 80
2, 52220, Note_off_c, 0, 72, 100
2, 52416, Note_on_c, 0, 69, 80
2, 52416, Note_on_c, 0, 65, 80
2, 52416, Note_on_c, 0, 60, 80
2, 52604, Note_off_c, 0, 69, 100
2, 52604, Note_off_c, 0, 65, 100
2, 52604, Note_off_c, 0, 60, 100
2, 52608, Note_on_c, 0, 67, 80
2, 52608, Note_on_c, 0, 60, 80
2, 52608, Note_on_c, 0, 70, 80
2, 52988, Note_off_c, 0, 67, 100
2, 52988, Note_off_c, 0, 60, 100
2, 52988, Note_off_c, 0, 70, 100
2, 53184, Note_on_c, 0, 70, 80
2, 53244, Note_off_c, 0, 70, 100
2, 53248, Note_on_c, 0, 69, 80
2, 53308, Note_off_c, 0, 69, 100
2, 53312, Note_on_c, 0, 72, 80
2, 53372, Note_off_c, 0, 72, 100
2, 53376, Note_on_c, 0, 70, 80
2, 53756, Note_off_c, 0, 70, 100
2, 53952, Note_on_c, 0, 70, 80
2, 54140, Note_off_c, 0, 70, 100
2, 54144, Note_on_c, 0, 69, 80
2, 54284, Note_off_c, 0, 69, 100
2, 54288, Note_on_c, 0, 72, 82
2, 54332, Note_off_c, 0, 72, 100
2, 54336, Note_on_c, 0, 77, 83
2, 54716, Note_off_c, 0, 77, 100
2, 54720, Note_on_c, 0, 76, 91
2, 54908, Note_off_c, 0, 76, 100
2, 54912, Note_on_c, 0, 77, 95
2, 55100, Note_off_c, 0, 77, 100
2, 55104, Note_on_c, 0, 81, 99
2, 55484, Note_off_c, 0, 81, 100
2, 55488, Note_on_c, 0, 79, 120
2, 55868, Note_off_c, 0, 79, 100
2, 55872, Note_on_c, 0, 81, 110
2, 56252, Note_off_c, 0, 81, 100
2, 56256, Note_on_c, 0, 82, 96
2, 56348, Note_off_c, 0, 82, 100
2, 56352, Note_on_c, 0, 84, 92
2, 56444, Note_off_c, 0, 84, 100
2, 56448, Note_on_c, 0, 84, 88
2, 56636, Note_off_c, 0, 84, 100
2, 56640, Note_on_c, 0, 82, 81
2, 56828, Note_off_c, 0, 82, 100
2, 57216, Note_on_c, 0, 82, 80
2, 57264, Note_on_c, 0, 84, 80
2, 57308, Note_off_c, 0, 82, 100
2, 57312, Note_on_c, 0, 81, 80
2, 57356, Note_off_c, 0, 84, 100
2, 57360, Note_on_c, 0, 82, 80
2, 57404, Note_off_c, 0, 81, 100
2, 57408, Note_on_c, 0, 86, 80
2, 57452, Note_off_c, 0, 82, 100
2, 57788, Note_off_c, 0, 86, 100
2, 57792, Note_on_c, 0, 84, 80
2, 57884, Note_off_c, 0, 84, 100
2, 57888, Note_on_c, 0, 82, 80
2, 57980, Note_off_c, 0, 82, 100
2, 57984, Note_on_c, 0, 81, 80
2, 58032, Note_on_c, 0, 82, 80
2, 58076, Note_off_c, 0, 81, 100
2, 58080, Note_on_c, 0, 84, 80
2, 58124, Note_off_c, 0, 82, 100
2, 58128, Note_on_c, 0, 82, 80
2, 58172, Note_off_c, 0, 84, 100
2, 58176, Note_on_c, 0, 81, 80
2, 58220, Note_off_c, 0, 82, 100
2, 58508, Note_off_c, 0, 81, 100
2, 58512, Note_on_c, 0, 79, 80
2, 58556, Note_off_c, 0, 79, 100
2, 58560, Note_on_c, 0, 82, 80
2, 58700, Note_off_c, 0, 82, 100
2, 58704, Note_on_c, 0, 79, 80
2, 58748, Note_off_c, 0, 79, 100
2, 58752, Note_on_c, 0, 79, 80
2, 58940, Note_off_c, 0, 79, 100
2, 58944, Note_on_c, 0, 77, 80
2, 59276, Note_off_c, 0, 77, 100
2, 59280, Note_on_c, 0, 76, 80
2, 59324, Note_off_c, 0, 76, 100
2, 59328, Note_on_c, 0, 79, 80
2, 59468, Note_off_c, 0, 79, 100
2, 59472, Note_on_c, 0, 76, 80
2, 59516, Note_off_c, 0, 76, 100
2, 59520, Note_on_c, 0, 77, 80
2, 59900, Note_off_c, 0, 77, 100
2, 60096, Note_on_c, 0, 69, 80
2, 60096, Note_on_c, 0, 65, 80
2, 60096, Note_on_c, 0, 60, 80
2, 60096, Note_on_c, 0, 57, 80
2, 60284, Note_off_c, 0, 69, 100
2, 60284, Note_off_c, 0, 65, 100
2, 60284, Note_off_c, 0, 60, 100
2, 60284, Note_off_c, 0, 57, 100
2, 60288, Note_on_c, 0, 72, 80
2, 60288, Note_on_c, 0, 69, 80
2, 60288, Note_on_c, 0, 65, 80
2, 60288, Note_on_c, 0, 60, 80
2, 60668, Note_off_c, 0, 72, 100
2, 60668, Note_off_c, 0, 69, 100
2, 60668, Note_off_c, 0, 65, 100
2, 60668, Note_off_c, 0, 60, 100
2, 60864, Note_on_c, 0, 72, 80
2, 60924, Note_off_c, 0, 72, 100
2, 60928, Note_on_c, 0, 71, 80
2, 60988, Note_off_c, 0, 71, 100
2, 60992, Note_on_c, 0, 74, 80
2, 61052, Note_off_c, 0, 74, 100
2, 61056, Note_on_c, 0, 72, 80
2, 61436, Note_off_c, 0, 72, 100
2, 61632, Note_on_c, 0, 69, 80
2, 61632, Note_on_c, 0, 63, 80
2, 61632, Note_on_c, 0, 60, 80
2, 61632, Note_on_c, 0, 57, 80
2, 61820, Note_off_c, 0, 69, 100
2, 61820, Note_off_c, 0, 63, 100
2, 61820, Note_off_c, 0, 60, 100
2, 61820, Note_off_c, 0, 57, 100
2, 61824, Note_on_c, 0, 72, 80
2, 61824, Note_on_c, 0, 69, 80
2, 61824, Note_on_c, 0, 63, 80
2, 61824, Note_on_c, 0, 60, 80
2, 62204, Note_off_c, 0, 72, 100
2, 62204, Note_off_c, 0, 69, 100
2, 62204, Note_off_c, 0, 63, 100
2, 62204, Note_off_c, 0, 60, 100
2, 62400, Note_on_c, 0, 72, 80
2, 62460, Note_off_c, 0, 72, 100
2, 62464, Note_on_c, 0, 71, 80
2, 62524, Note_off_c, 0, 71, 100
2, 62528, Note_on_c, 0, 74, 80
2, 62588, Note_off_c, 0, 74, 100
2, 62592, Note_on_c, 0, 72, 80
2, 62972, Note_off_c, 0, 72, 100
2, 63168, Note_on_c, 0, 72, 110
2, 63168, Note_on_c, 0, 63, 110
2, 63228, Note_off_c, 0, 72, 100
2, 63232, Note_on_c, 0, 71, 110
2, 63292, Note_off_c, 0, 71, 100
2, 63296, Note_on_c, 0, 69, 110
2, 63356, Note_off_c, 0, 63, 100
2, 63356, Note_off_c, 0, 69, 100
2, 63360, Note_on_c, 0, 76, 110
2, 63360, Note_on_c, 0, 64, 110
2, 63548, Note_off_c, 0, 76, 100
2, 63548, Note_off_c, 0, 64, 100
2, 63552, Note_on_c, 0, 72, 110
2, 63552, Note_on_c, 0, 63, 110
2, 63612, Note_off_c, 0, 72, 100
2, 63616, Note_on_c, 0, 71, 110
2, 63676, Note_off_c, 0, 71, 100
2, 63680, Note_on_c, 0, 69, 110
2, 63740, Note_off_c, 0, 63, 100
2, 63740, Note_off_c, 0, 69, 100
2, 63744, Note_on_c, 0, 76, 110
2, 63744, Note_on_c, 0, 64, 110
2, 63932, Note_off_c, 0, 76, 100
2, 63932, Note_off_c, 0, 64, 100
2, 63936, Note_on_c, 0, 72, 110
2, 63936, Note_on_c, 0, 63, 110
2, 63996, Note_off_c, 0, 72, 100
2, 64000, Note_on_c, 0, 71, 110
2, 64060, Note_off_c, 0, 71, 100
2, 64064, Note_on_c, 0, 69, 110
2, 64124, Note_off_c, 0, 63, 100
2, 64124, Note_off_c, 0, 69, 100
2, 64128, Note_on_c, 0, 76, 110
2, 64128, Note_on_c, 0, 64, 110
2, 64508, Note_off_c, 0, 76, 100
2, 64508, Note_off_c, 0, 64, 100
2, 64704, Note_on_c, 0, 67, 80
2, 64704, Note_on_c, 0, 55, 80
2, 64892, Note_off_c, 0, 67, 100
2, 64892, Note_off_c, 0, 55, 100
2, 64896, Note_on_c, 0, 64, 80
2, 64896, Note_on_c, 0, 52, 80
2, 65276, Note_off_c, 0, 64, 100
2, 65276, Note_off_c, 0, 52, 100
2, 65280, Note_on_c, 0, 55, 87
2, 65280, Note_on_c, 0, 60, 87
2, 65280, Note_on_c, 0, 64, 87
2, 65280, Note_on_c, 0, 67, 87
2, 65660, Note_off_c, 0, 55, 100
2, 65660, Note_off_c, 0, 60, 100
2, 65660, Note_off_c, 0, 64, 100
2, 65660, Note_off_c, 0, 67, 100
2, 65664, Note_on_c, 0, 72, 94
2, 65664, Note_on_c, 0, 67, 94
2, 65664, Note_on_c, 0, 64, 94
2, 65664, Note_on_c, 0, 60, 94
2, 66236, Note_off_c, 0, 72, 100
2, 66236, Note_off_c, 0, 67, 100
2, 66236, Note_off_c, 0, 64, 100
2, 66236, Note_off_c, 0, 60, 100
2, 66240, Note_on_c, 0, 76, 104
2, 66240, Note_on_c, 0, 64, 104
2, 66428, Note_off_c, 0, 76, 100
2, 66428, Note_off_c, 0, 64, 100
2, 66432, Note_on_c, 0, 79, 108
2, 66432, Note_on_c, 0, 67, 108
2, 66620, Note_off_c, 0, 79, 100
2, 66620, Note_off_c, 0, 67, 100
2, 66624, Note_on_c, 0, 72, 110
2, 66624, Note_on_c, 0, 84, 110
2, 67004, Note_off_c, 0, 72, 100
2, 67004, Note_off_c, 0, 84, 100
2, 67008, Note_on_c, 0, 88, 110
2, 67008, Note_on_c, 0, 76, 110
2, 67100, Note_off_c, 0, 88, 100
2, 67100, Note_off_c, 0, 76, 100
2, 67104, Note_on_c, 0, 74, 110
2, 67104, Note_on_c, 0, 86, 110
2, 67196, Note_off_c, 0, 74, 100
2, 67196, Note_off_c, 0, 86, 100
2, 67200, Note_on_c, 0, 72, 110
2, 67200, Note_on_c, 0, 84, 110
2, 67580, Note_off_c, 0, 72, 100
2, 67580, Note_off_c, 0, 84, 100
2, 67584, Note_on_c, 0, 71, 93
2, 67584, Note_on_c, 0, 83, 93
2, 67772, Note_off_c, 0, 71, 100
2, 67772, Note_off_c, 0, 83, 100
2, 67968, Note_on_c, 0, 71, 80
2, 67968, Note_on_c, 0, 65, 80
2, 67968, Note_on_c, 0, 62, 80
2, 67968, Note_on_c, 0, 59, 80
2, 68348, Note_off_c, 0, 71, 100
2, 68348, Note_off_c, 0, 65, 100
2, 68348, Note_off_c, 0, 62, 100
2, 68348, Note_off_c, 0, 59, 100
2, 68352, Note_on_c, 0, 74, 87
2, 68352, Note_on_c, 0, 71, 87
2, 68352, Note_on_c, 0, 65, 87
2, 68352, Note_on_c, 0, 62, 87
2, 68732, Note_off_c, 0, 74, 100
2, 68732, Note_off_c, 0, 71, 100
2, 68732, Note_off_c, 0, 65, 100
2, 68732, Note_off_c, 0, 62, 100
2, 68736, Note_on_c, 0, 77, 94
2, 68736, Note_on_c, 0, 74, 94
2, 68736, Note_on_c, 0, 71, 94
2, 68736, Note_on_c, 0, 65, 94
2, 69308, Note_off_c, 0, 77, 100
2, 69308, Note_off_c, 0, 74, 100
2, 69308, Note_off_c, 0, 71, 100
2, 69308, Note_off_c, 0, 65, 100
2, 69312, Note_on_c, 0, 71, 104
2, 69312, Note_on_c, 0, 83, 104
2, 69500, Note_off_c, 0, 71, 100
2, 69500, Note_off_c, 0, 83, 100
2, 69504, Note_on_c, 0, 74, 108
2, 69504, Note_on_c, 0, 86, 108
2, 69692, Note_off_c, 0, 74, 100
2, 69692, Note_off_c, 0, 86, 100
2, 69696, Note_on_c, 0, 77, 110
2, 69696, Note_on_c, 0, 89, 110
2, 70076, Note_off_c, 0, 77, 100
2, 70076, Note_off_c, 0, 89, 100
2, 70080, Note_on_c, 0, 76, 110
2, 70080, Note_on_c, 0, 88, 110
2, 70268, Note_off_c, 0, 76, 100
2, 70268, Note_off_c, 0, 88, 100
2, 70272, Note_on_c, 0, 74, 110
2, 70272, Note_on_c, 0, 86, 110
2, 70652, Note_off_c, 0, 74, 100
2, 70652, Note_off_c, 0, 86, 100
2, 70656, Note_on_c, 0, 72, 93
2, 70656, Note_on_c, 0, 84, 93
2, 70844, Note_off_c, 0, 72, 100
2, 70844, Note_off_c, 0, 84, 100
2, 71040, Note_on_c, 0, 76, 120
2, 71040, Note_on_c, 0, 72, 120
2, 71040, Note_on_c, 0, 67, 120
2, 71040, Note_on_c, 0, 64, 120
2, 71420, Note_off_c, 0, 76, 100
2, 71420, Note_off_c, 0, 72, 100
2, 71420, Note_off_c, 0, 67, 100
2, 71420, Note_off_c, 0, 64, 100
2, 71424, Note_on_c, 0, 67, 118
2, 71424, Note_on_c, 0, 72, 118
2, 71424, Note_on_c, 0, 76, 118
2, 71424, Note_on_c, 0, 79, 118
2, 71804, Note_off_c, 0, 67, 100
2, 71804, Note_off_c, 0, 72, 100
2, 71804, Note_off_c, 0, 76, 100
2, 71804, Note_off_c, 0, 79, 100
2, 71808, Note_on_c, 0, 72, 115
2, 71808, Note_on_c, 0, 84, 115
2, 72380, Note_off_c, 0, 72, 100
2, 72380, Note_off_c, 0, 84, 100
2, 72384, Note_on_c, 0, 73, 111
2, 72384, Note_on_c, 0, 85, 111
2, 72764, Note_off_c, 0, 73, 100
2, 72764, Note_off_c, 0, 85, 100
2, 72768, Note_on_c, 0, 74, 108
2, 72768, Note_on_c, 0, 86, 108
2, 73148, Note_off_c, 0, 74, 100
2, 73148, Note_off_c, 0, 86, 100
2, 73152, Note_on_c, 0, 72, 106
2, 73152, Note_on_c, 0, 84, 106
2, 73340, Note_off_c, 0, 72, 100
2, 73340, Note_off_c, 0, 84, 100
2, 73344, Note_on_c, 0, 72, 104
2, 73344, Note_on_c, 0, 84, 104
2, 73532, Note_off_c, 0, 72, 100
2, 73532, Note_off_c, 0, 84, 100
2, 73536, Note_on_c, 0, 71, 103
2, 73536, Note_on_c, 0, 83, 103
2, 73724, Note_off_c, 0, 71, 100
2, 73724, Note_off_c, 0, 83, 100
2, 73920, Note_on_c, 0, 78, 80
2, 73920, Note_on_c, 0, 72, 80
2, 74108, Note_off_c, 0, 78, 100
2, 74108, Note_off_c, 0, 72, 100
2, 74112, Note_on_c, 0, 79, 80
2, 74112, Note_on_c, 0, 72, 80
2, 74300, Note_off_c, 0, 72, 100
2, 74304, Note_on_c, 0, 71, 80
2, 74492, Note_off_c, 0, 79, 100
2, 74492, Note_off_c, 0, 71, 100
2, 74688, Note_on_c, 0, 84, 112
2, 74876, Note_off_c, 0, 84, 100
2, 74880, Note_on_c, 0, 84, 90
2, 74972, Note_off_c, 0, 84, 100
2, 74976, Note_on_c, 0, 83, 90
2, 75068, Note_off_c, 0, 83, 100
2, 75072, Note_on_c, 0, 81, 90
2, 75164, Note_off_c, 0, 81, 100
2, 75168, Note_on_c, 0, 79, 90
2, 75260, Note_off_c, 0, 79, 100
2, 75456, Note_on_c, 0, 78, 108
2, 75456, Note_on_c, 0, 72, 90
2, 75644, Note_off_c, 0, 78, 100
2, 75644, Note_off_c, 0, 72, 100
2, 75648, Note_on_c, 0, 79, 90
2, 75648, Note_on_c, 0, 72, 90
2, 75740, Note_off_c, 0, 72, 100
2, 75744, Note_on_c, 0, 71, 90
2, 75836, Note_off_c, 0, 71, 100
2, 75840, Note_on_c, 0, 69, 90
2, 75932, Note_off_c, 0, 69, 100
2, 75936, Note_on_c, 0, 67, 90
2, 76028, Note_off_c, 0, 79, 100
2, 76028, Note_off_c, 0, 67, 100
2, 76224, Note_on_c, 0, 84, 104
2, 76412, Note_off_c, 0, 84, 100
2, 76416, Note_on_c, 0, 84, 90
2, 76508, Note_off_c, 0, 84, 100
2, 76512, Note_on_c, 0, 83, 90
2, 76604, Note_off_c, 0, 83, 100
2, 76608, Note_on_c, 0, 81, 90
2, 76700, Note_off_c, 0, 81, 100
2, 76704, Note_on_c, 0, 79, 90
2, 76796, Note_off_c, 0, 79, 100
2, 76992, Note_on_c, 0, 84, 106
2, 77180, Note_off_c, 0, 84, 100
2, 77184, Note_on_c, 0, 84, 90
2, 77276, Note_off_c, 0, 84, 100
2, 77280, Note_on_c, 0, 83, 90
2, 77372, Note_off_c, 0, 83, 100
2, 77376, Note_on_c, 0, 81, 90
2, 77468, Note_off_c, 0, 81, 100
2, 77472, Note_on_c, 0, 79, 90
2, 77564, Note_off_c, 0, 79, 100
2, 77760, Note_on_c, 0, 84, 107
2, 77948, Note_off_c, 0, 84, 100
2, 77952, Note_on_c, 0, 84, 80
2, 78044, Note_off_c, 0, 84, 100
2, 78048, Note_on_c, 0, 83, 80
2, 78140, Note_off_c, 0, 83, 100
2, 78144, Note_on_c, 0, 81, 80
2, 78236, Note_off_c, 0, 81, 100
2, 78240, Note_on_c, 0, 79, 80
2, 78332, Note_off_c, 0, 79, 100
2, 78336, Note_on_c, 0, 78, 80
2, 78428, Note_off_c, 0, 78, 100
2, 78432, Note_on_c, 0, 79, 80
2, 78524, Note_off_c, 0, 79, 100
2, 78528, Note_on_c, 0, 81, 80
2, 78620, Note_off_c, 0, 81, 100
2, 78624, Note_on_c, 0, 79, 80
2, 78716, Note_off_c, 0, 79, 100
2, 78720, Note_on_c, 0, 78, 80
2, 78812, Note_off_c, 0, 78, 100
2, 78816, Note_on_c, 0, 79, 80
2, 78908, Note_off_c, 0, 79, 100
2, 78912, Note_on_c, 0, 81, 80
2, 79004, Note_off_c, 0, 81, 100
2, 79008, Note_on_c, 0, 79, 80
2, 79100, Note_off_c, 0, 79, 100
2, 79104, Note_on_c, 0, 78, 80
2, 79196, Note_off_c, 0, 78, 100
2, 79200, Note_on_c, 0, 79, 80
2, 79292, Note_off_c, 0, 79, 100
2, 79296, Note_on_c, 0, 80, 80
2, 79388, Note_off_c, 0, 80, 100
2, 79392, Note_on_c, 0, 81, 80
2, 79484, Note_off_c, 0, 81, 100
2, 79488, Note_on_c, 0, 81, 80
2, 79676, Note_off_c, 0, 81, 100
2, 79680, Note_on_c, 0, 77, 80
2, 79868, Note_off_c, 0, 77, 100
2, 79872, Note_on_c, 0, 74, 80
2, 80060, Note_off_c, 0, 74, 100
2, 80064, Note_on_c, 0, 77, 80
2, 80112, Note_on_c, 0, 76, 80
2, 80156, Note_off_c, 0, 77, 100
2, 80160, Note_on_c, 0, 74, 80
2, 80204, Note_off_c, 0, 76, 100
2, 80208, Note_on_c, 0, 76, 80
2, 80252, Note_off_c, 0, 74, 100
2, 80252, Note_off_c, 0, 76, 100
2, 80256, Note_on_c, 0, 81, 80
2, 80444, Note_off_c, 0, 81, 100
2, 80448, Note_on_c, 0, 77, 80
2, 80636, Note_off_c, 0, 77, 100
2, 80640, Note_on_c, 0, 74, 80
2, 80828, Note_off_c, 0, 74, 100
2, 80832, Note_on_c, 0, 77, 80
2, 80880, Note_on_c, 0, 76, 80
2, 80924, Note_off_c, 0, 77, 100
2, 80928, Note_on_c, 0, 74, 80
2, 80972, Note_off_c, 0, 76, 100
2, 80976, Note_on_c, 0, 76, 80
2, 81020, Note_off_c, 0, 74, 100
2, 81020, Note_off_c, 0, 76, 100
2, 81024, Note_on_c, 0, 77, 80
2, 81024, Note_on_c, 0, 74, 80
2, 81024, Note_on_c, 0, 69, 80
2, 81212, Note_off_c, 0, 77, 100
2, 81212, Note_off_c, 0, 74, 100
2, 81212, Note_off_c, 0, 69, 100
2, 81408, Note_on_c, 0, 67, 80
2, 81408, Note_on_c, 0, 71, 80
2, 81408, Note_on_c, 0, 74, 80
2, 81596, Note_off_c, 0, 67, 100
2, 81596, Note_off_c, 0, 71, 100
2, 81596, Note_off_c, 0, 74, 100
2, 81792, Note_on_c, 0, 76, 80
2, 81792, Note_on_c, 0, 72, 80
2, 81792, Note_on_c, 0, 64, 80
2, 81792, Note_on_c, 0, 67, 80
2, 82172, Note_off_c, 0, 76, 100
2, 82172, Note_off_c, 0, 72, 100
2, 82172, Note_off_c, 0, 64, 100
2, 82172, Note_off_c, 0, 67, 100
2, 82416, Note_on_c, 0, 79, 120
2, 82464, Note_on_c, 0, 76, 120
2, 82508, Note_off_c, 0, 79, 100
2, 82512, Note_on_c, 0, 67, 120
2, 82556, Note_off_c, 0, 76, 100
2, 82604, Note_off_c, 0, 67, 100
2, 82608, Note_on_c, 0, 80, 120
2, 82656, Note_on_c, 0, 77, 120
2, 82700, Note_off_c, 0, 80, 100
2, 82704, Note_on_c, 0, 67, 120
2, 82748, Note_off_c, 0, 77, 100
2, 82796, Note_off_c, 0, 67, 100
2, 82800, Note_on_c, 0, 77, 120
2, 82848, Note_on_c, 0, 74, 120
2, 82892, Note_off_c, 0, 77, 100
2, 82896, Note_on_c, 0, 67, 120
2, 82940, Note_off_c, 0, 74, 100
2, 82988, Note_off_c, 0, 67, 100
2, 82992, Note_on_c, 0, 74, 120
2, 83040, Note_on_c, 0, 71, 120
2, 83084, Note_off_c, 0, 74, 100
2, 83088, Note_on_c, 0, 67, 120
2, 83132, Note_off_c, 0, 71, 100
2, 83180, Note_off_c, 0, 67, 100
2, 83184, Note_on_c, 0, 75, 120
2, 83232, Note_on_c, 0, 72, 120
2, 83276, Note_off_c, 0, 75, 100
2, 83280, Note_on_c, 0, 67, 120
2, 83324, Note_off_c, 0, 72, 100
2, 83372, Note_off_c, 0, 67, 100
2, 83376, Note_on_c, 0, 80, 120
2, 83424, Note_on_c, 0, 77, 120
2, 83468, Note_off_c, 0, 80, 100
2, 83472, Note_on_c, 0, 67, 120
2, 83516, Note_off_c, 0, 77, 100
2, 83564, Note_off_c, 0, 67, 100
2, 83568, Note_on_c, 0, 77, 120
2, 83616, Note_on_c, 0, 74, 120
2, 83660, Note_off_c, 0, 77, 100
2, 83664, Note_on_c, 0, 67, 120
2, 83708, Note_off_c, 0, 74, 100
2, 83756, Note_off_c, 0, 67, 100
2, 83760, Note_on_c, 0, 74, 120
2, 83808, Note_on_c, 0, 71, 120
2, 83852, Note_off_c, 0, 74, 100
2, 83856, Note_on_c, 0, 67, 120
2, 83900, Note_off_c, 0, 71, 100
2, 83948, Note_off_c, 0, 67, 100
2, 83952, Note_on_c, 0, 75, 120
2, 84000, Note_on_c, 0, 72, 120
2, 84044, Note_off_c, 0, 75, 100
2, 84048, Note_on_c, 0, 67, 100
2, 84092, Note_off_c, 0, 72, 100
2, 84096, Note_on_c, 0, 74, 100
2, 84096, Note_on_c, 0, 68, 100
2, 84096, Note_on_c, 0, 77, 100
2, 84140, Note_off_c, 0, 67, 100
2, 84284, Note_off_c, 0, 74, 100
2, 84284, Note_off_c, 0, 68, 100
2, 84284, Note_off_c, 0, 77, 100
2, 84480, Note_on_c, 0, 74, 100
2, 84480, Note_on_c, 0, 71, 100
2, 84480, Note_on_c, 0, 65, 100
2, 84668, Note_off_c, 0, 74, 100
2, 84668, Note_off_c, 0, 71, 100
2, 84668, Note_off_c, 0, 65, 100
2, 84864, Note_on_c, 0, 72, 100
2, 84864, Note_on_c, 0, 68, 100
2, 84864, Note_on_c, 0, 63, 100
2, 85052, Note_off_c, 0, 72, 100
2, 85052, Note_off_c, 0, 68, 100
2, 85052, Note_off_c, 0, 63, 100
2, 85632, Note_on_c, 0, 72, 70
2, 85632, Note_on_c, 0, 69, 70
2, 85632, Note_on_c, 0, 63, 70
2, 85820, Note_off_c, 0, 72, 100
2, 85820, Note_off_c, 0, 69, 100
2, 85820, Note_off_c, 0, 63, 100
2, 86496, Note_on_c, 0, 71, 80
2, 86496, Note_on_c, 0, 62, 80
2, 86684, Note_off_c, 0, 71, 100
2, 86684, Note_off_c, 0, 62, 100
2, 86688, Note_on_c, 0, 65, 82
2, 86688, Note_on_c, 0, 74, 82
2, 86876, Note_off_c, 0, 65, 100
2, 86876, Note_off_c, 0, 74, 100
2, 86880, Note_on_c, 0, 72, 84
2, 86880, Note_on_c, 0, 64, 84
2, 87068, Note_off_c, 0, 72, 100
2, 87068, Note_off_c, 0, 64, 100
2, 87072, Note_on_c, 0, 72, 86
2, 87072, Note_on_c, 0, 76, 86
2, 87260, Note_off_c, 0, 72, 100
2, 87260, Note_off_c, 0, 76, 100
2, 87264, Note_on_c, 0, 71, 88
2, 87264, Note_on_c, 0, 77, 88
2, 87452, Note_off_c, 0, 71, 100
2, 87452, Note_off_c, 0, 77, 100
2, 87456, Note_on_c, 0, 77, 90
2, 87456, Note_on_c, 0, 83, 90
2, 87644, Note_off_c, 0, 77, 100
2, 87644, Note_off_c, 0, 83, 100
2, 87648, Note_on_c, 0, 76, 92
2, 87648, Note_on_c, 0, 84, 92
2, 87836, Note_off_c, 0, 76, 100
2, 87836, Note_off_c, 0, 84, 100
2, 87840, Note_on_c, 0, 84, 94
2, 87840, Note_on_c, 0, 88, 94
2, 88028, Note_off_c, 0, 84, 100
2, 88028, Note_off_c, 0, 88, 100
2, 88032, Note_on_c, 0, 83, 96
2, 88032, Note_on_c, 0, 89, 96
2, 88220, Note_off_c, 0, 83, 100
2, 88220, Note_off_c, 0, 89, 100
2, 88224, Note_on_c, 0, 74, 98
2, 88224, Note_on_c, 0, 83, 98
2, 88412, Note_off_c, 0, 74, 100
2, 88412, Note_off_c, 0, 83, 100
2, 88416, Note_on_c, 0, 76, 100
2, 88416, Note_on_c, 0, 84, 100
2, 88604, Note_off_c, 0, 76, 100
2, 88604, Note_off_c, 0, 84, 100
2, 88608, Note_on_c, 0, 79, 102
2, 88608, Note_on_c, 0, 88, 102
2, 88796, Note_off_c, 0, 79, 100
2, 88796, Note_off_c, 0, 88, 100
2, 88800, Note_on_c, 0, 89, 104
2, 88800, Note_on_c, 0, 77, 104
2, 88988, Note_off_c, 0, 89, 100
2, 88988, Note_off_c, 0, 77, 100
2, 88992, Note_on_c, 0, 74, 106
2, 88992, Note_on_c, 0, 83, 106
2, 89180, Note_off_c, 0, 74, 100
2, 89180, Note_off_c, 0, 83, 100
2, 89184, Note_on_c, 0, 76, 108
2, 89184, Note_on_c, 0, 84, 108
2, 89372, Note_off_c, 0, 76, 100
2, 89372, Note_off_c, 0, 84, 100
2, 89376, Note_on_c, 0, 79, 109
2, 89376, Note_on_c, 0, 88, 109
2, 89472, Note_off_c, 0, 79, 100
2, 89472, Note_off_c, 0, 88, 100
2, 89664, Note_on_c, 0, 86, 100
2, 89724, Note_off_c, 0, 86, 100
2, 89728, Note_on_c, 0, 85, 100
2, 89788, Note_off_c, 0, 85, 100
2, 89792, Note_on_c, 0, 88, 100
2, 89852, Note_off_c, 0, 88, 100
2, 89856, Note_on_c, 0, 86, 100
2, 90044, Note_off_c, 0, 86, 100
2, 90048, Note_on_c, 0, 81, 100
2, 90108, Note_off_c, 0, 81, 100
2, 90112, Note_on_c, 0, 80, 100
2, 90172, Note_off_c, 0, 80, 100
2, 90176, Note_on_c, 0, 83, 100
2, 90236, Note_off_c, 0, 83, 100
2, 90240, Note_on_c, 0, 81, 100
2, 90428, Note_off_c, 0, 81, 100
2, 90432, Note_on_c, 0, 77, 100
2, 90492, Note_off_c, 0, 77, 100
2, 90496, Note_on_c, 0, 76, 100
2, 90556, Note_off_c, 0, 76, 100
2, 90560, Note_on_c, 0, 79, 100
2, 90620, Note_off_c, 0, 79, 100
2, 90624, Note_on_c, 0, 77, 100
2, 90812, Note_off_c, 0, 77, 100
2, 90816, Note_on_c, 0, 74, 100
2, 90876, Note_off_c, 0, 74, 100
2, 90880, Note_on_c, 0, 73, 100
2, 90940, Note_off_c, 0, 73, 100
2, 90944, Note_on_c, 0, 76, 100
2, 91004, Note_off_c, 0, 76, 100
2, 91008, Note_on_c, 0, 74, 100
2, 91196, Note_off_c, 0, 74, 100
2, 91200, Note_on_c, 0, 74, 100
2, 91580, Note_off_c, 0, 74, 100
2, 91584, Note_on_c, 0, 76, 100
2, 91676, Note_off_c, 0, 76, 100
2, 91680, Note_on_c, 0, 77, 100
2, 91772, Note_off_c, 0, 77, 100
2, 91776, Note_on_c, 0, 79, 100
2, 92220, Note_off_c, 0, 79, 100
2, 92224, Note_on_c, 0, 81, 100
2, 92284, Note_off_c, 0, 81, 100
2, 92288, Note_on_c, 0, 79, 100
2, 92348, Note_off_c, 0, 79, 100
2, 92352, Note_on_c, 0, 77, 100
2, 92412, Note_off_c, 0, 77, 100
2, 92416, Note_on_c, 0, 76, 100
2, 92476, Note_off_c, 0, 76, 100
2, 92480, Note_on_c, 0, 74, 100
2, 92540, Note_off_c, 0, 74, 100
2, 92544, Note_on_c, 0, 72, 100
2, 92732, Note_off_c, 0, 72, 100
2, 92928, Note_on_c, 0, 79, 80
2, 93116, Note_off_c, 0, 79, 100
2, 93120, Note_on_c, 0, 79, 80
2, 93308, Note_off_c, 0, 79, 100
2, 93312, Note_on_c, 0, 76, 80
2, 93500, Note_off_c, 0, 76, 100
2, 93696, Note_on_c, 0, 72, 80
2, 93696, Note_on_c, 0, 84, 80
2, 93884, Note_off_c, 0, 72, 100
2, 93884, Note_off_c, 0, 84, 100
2, 93888, Note_on_c, 0, 72, 80
2, 93888, Note_on_c, 0, 84, 80
2, 94076, Note_off_c, 0, 72, 100
2, 94076, Note_off_c, 0, 84, 100
2, 94080, Note_on_c, 0, 69, 80
2, 94080, Note_on_c, 0, 81, 80
2, 94268, Note_off_c, 0, 69, 100
2, 94268, Note_off_c, 0, 81, 100
2, 94464, Note_on_c, 0, 42, 100
2, 94652, Note_off_c, 0, 42, 100
2, 94656, Note_on_c, 0, 42, 100
2, 94844, Note_off_c, 0, 42, 100
2, 94848, Note_on_c, 0, 42, 100
2, 94896, Note_on_c, 0, 43, 100
2, 94940, Note_off_c, 0, 42, 100
2, 94944, Note_on_c, 0, 45, 100
2, 94988, Note_off_c, 0, 43, 100
2, 94992, Note_on_c, 0, 43, 100
2, 95036, Note_off_c, 0, 45, 100
2, 95040, Note_on_c, 0, 45, 100
2, 95084, Note_off_c, 0, 43, 100
2, 95088, Note_on_c, 0, 43, 100
2, 95132, Note_off_c, 0, 45, 100
2, 95136, Note_on_c, 0, 45, 100
2, 95180, Note_off_c, 0, 43, 100
2, 95184, Note_on_c, 0, 43, 100
2, 95228, Note_off_c, 0, 45, 100
2, 95232, Note_on_c, 0, 45, 100
2, 95276, Note_off_c, 0, 43, 100
2, 95280, Note_on_c, 0, 43, 100
2, 95324, Note_off_c, 0, 45, 100
2, 95328, Note_on_c, 0, 45, 100
2, 95372, Note_off_c, 0, 43, 100
2, 95376, Note_on_c, 0, 43, 100
2, 95420, Note_off_c, 0, 45, 100
2, 95424, Note_on_c, 0, 45, 100
2, 95468, Note_off_c, 0, 43, 100
2, 95472, Note_on_c, 0, 43, 100
2, 95516, Note_off_c, 0, 45, 100
2, 95520, Note_on_c, 0, 42, 100
2, 95564, Note_off_c, 0, 43, 100
2, 95612, Note_off_c, 0, 42, 100
2, 95616, Note_on_c, 0, 36, 100
2, 95996, Note_off_c, 0, 36, 100
2, 96000, Note_on_c, 0, 67, 80
2, 96044, Note_off_c, 0, 67, 100
2, 96048, Note_on_c, 0, 79, 80
2, 96188, Note_off_c, 0, 79, 100
2, 96192, Note_on_c, 0, 67, 80
2, 96236, Note_off_c, 0, 67, 100
2, 96240, Note_on_c, 0, 79, 80
2, 96380, Note_off_c, 0, 79, 100
2, 96384, Note_on_c, 0, 64, 80
2, 96428, Note_off_c, 0, 64, 100
2, 96432, Note_on_c, 0, 76, 80
2, 96572, Note_off_c, 0, 76, 100
2, 96768, Note_on_c, 0, 72, 80
2, 96812, Note_off_c, 0, 72, 100
2, 96816, Note_on_c, 0, 84, 80
2, 96956, Note_off_c, 0, 84, 100
2, 96960, Note_on_c, 0, 72, 80
2, 97004, Note_off_c, 0, 72, 100
2, 97008, Note_on_c, 0, 84, 80
2, 97148, Note_off_c, 0, 84, 100
2, 97152, Note_on_c, 0, 69, 80
2, 97196, Note_off_c, 0, 69, 100
2, 97200, Note_on_c, 0, 81, 80
2, 97340, Note_off_c, 0, 81, 100
2, 97536, Note_on_c, 0, 42, 100
2, 97724, Note_off_c, 0, 42, 100
2, 97728, Note_on_c, 0, 42, 101
2, 97916, Note_off_c, 0, 42, 100
2, 97920, Note_on_c, 0, 42, 103
2, 97968, Note_on_c, 0, 43, 103
2, 98012, Note_off_c, 0, 42, 100
2, 98016, Note_on_c, 0, 45, 103
2, 98060, Note_off_c, 0, 43, 100
2, 98064, Note_on_c, 0, 43, 104
2, 98108, Note_off_c, 0, 45, 100
2, 98112, Note_on_c, 0, 45, 104
2, 98156, Note_off_c, 0, 43, 100
2, 98160, Note_on_c, 0, 43, 104
2, 98204, Note_off_c, 0, 45, 100
2, 98208, Note_on_c, 0, 45, 105
2, 98252, Note_off_c, 0, 43, 100
2, 98256, Note_on_c, 0, 43, 105
2, 98300, Note_off_c, 0, 45, 100
2, 98304, Note_on_c, 0, 45, 106
2, 98348, Note_off_c, 0, 43, 100
2, 98352, Note_on_c, 0, 43, 106
2, 98396, Note_off_c, 0, 45, 100
2, 98400, Note_on_c, 0, 45, 106
2, 98444, Note_off_c, 0, 43, 100
2, 98448, Note_on_c, 0, 43, 107
2, 98492, Note_off_c, 0, 45, 100
2, 98496, Note_on_c, 0, 45, 107
2, 98540, Note_off_c, 0, 43, 100
2, 98544, Note_on_c, 0, 43, 107
2, 98588, Note_off_c, 0, 45, 100
2, 98592, Note_on_c, 0, 42, 108
2, 98636, Note_off_c, 0, 43, 100
2, 98684, Note_off_c, 0, 42, 100
2, 98688, Note_on_c, 0, 36, 108
2, 99068, Note_off_c, 0, 36, 100
2, 99072, Note_on_c, 0, 78, 111
2, 99260, Note_off_c, 0, 78, 100
2, 99264, Note_on_c, 0, 78, 113
2, 99452, Note_off_c, 0, 78, 100
2, 99456, Note_on_c, 0, 78, 114
2, 99504, Note_on_c, 0, 79, 114
2, 99548, Note_off_c, 0, 78, 100
2, 99552, Note_on_c, 0, 81, 115
2, 99596, Note_off_c, 0, 79, 100
2, 99600, Note_on_c, 0, 79, 115
2, 99644, Note_off_c, 0, 81, 100
2, 99648, Note_on_c, 0, 81, 116
2, 99692, Note_off_c, 0, 79, 100
2, 99696, Note_on_c, 0, 79, 116
2, 99740, Note_off_c, 0, 81, 100
2, 99744, Note_on_c, 0, 81, 116
2, 99788, Note_off_c, 0, 79, 100
2, 99792, Note_on_c, 0, 79, 117
2, 99836, Note_off_c, 0, 81, 100
2, 99840, Note_on_c, 0, 81, 117
2, 99884, Note_off_c, 0, 79, 100
2, 99888, Note_on_c, 0, 79, 117
2, 99932, Note_off_c, 0, 81, 100
2, 99936, Note_on_c, 0, 81, 118
2, 99980, Note_off_c, 0, 79, 100
2, 99984, Note_on_c, 0, 79, 118
2, 100028, Note_off_c, 0, 81, 100
2, 100032, Note_on_c, 0, 81, 118
2, 100076, Note_off_c, 0, 79, 100
2, 100080, Note_on_c, 0, 79, 119
2, 100124, Note_off_c, 0, 81, 100
2, 100128, Note_on_c, 0, 78, 119
2, 100172, Note_off_c, 0, 79, 100
2, 100176, Note_on_c, 0, 79, 120
2, 100220, Note_off_c, 0, 78, 100
2, 100224, Note_on_c, 0, 84, 120
2, 100224, Note_on_c, 0, 72, 120
2, 100268, Note_off_c, 0, 79, 100
2, 100412, Note_off_c, 0, 84, 100
2, 100412, Note_off_c, 0, 72, 100
2, 100608, Note_on_c, 0, 79, 120
2, 100608, Note_on_c, 0, 67, 120
2, 100796, Note_off_c, 0, 79, 100
2, 100796, Note_off_c, 0, 67, 100
2, 100992, Note_on_c, 0, 72, 120
2, 100992, Note_on_c, 0, 60, 120
2, 101372, Note_off_c, 0, 72, 100
2, 101372, Note_off_c, 0, 60, 100
2, 101760, Note_on_c, 0, 81, 80
2, 101760, Note_on_c, 0, 69, 80
2, 101948, Note_off_c, 0, 81, 100
2, 101948, Note_off_c, 0, 69, 100
2, 102144, Note_on_c, 0, 64, 80
2, 102144, Note_on_c, 0, 76, 80
2, 102332, Note_off_c, 0, 64, 100
2, 102332, Note_off_c, 0, 76, 100
2, 102528, Note_on_c, 0, 69, 80
2, 102528, Note_on_c, 0, 57, 80
2, 102716, Note_off_c, 0, 69, 100
2, 102716, Note_off_c, 0, 57, 100
2, 103360, Note_on_c, 0, 74, 80
2, 103420, Note_off_c, 0, 74, 100
2, 103424, Note_on_c, 0, 76, 80
2, 103484, Note_off_c, 0, 76, 100
2, 103488, Note_on_c, 0, 77, 80
2, 103548, Note_off_c, 0, 77, 100
2, 103552, Note_on_c, 0, 76, 80
2, 103612, Note_off_c, 0, 76, 100
2, 103616, Note_on_c, 0, 74, 80
2, 103676, Note_off_c, 0, 74, 100
2, 103744, Note_on_c, 0, 81, 80
2, 103804, Note_off_c, 0, 81, 100
2, 103808, Note_on_c, 0, 83, 80
2, 103868, Note_off_c, 0, 83, 100
2, 103872, Note_on_c, 0, 85, 80
2, 103932, Note_off_c, 0, 85, 100
2, 103936, Note_on_c, 0, 83, 80
2, 103996, Note_off_c, 0, 83, 100
2, 104000, Note_on_c, 0, 81, 80
2, 104060, Note_off_c, 0, 81, 100
2, 104160, Note_on_c, 0, 86, 80
2, 104252, Note_off_c, 0, 86, 100
2, 104256, Note_on_c, 0, 85, 80
2, 104348, Note_off_c, 0, 85, 100
2, 104352, Note_on_c, 0, 86, 80
2, 104444, Note_off_c, 0, 86, 100
2, 104448, Note_on_c, 0, 88, 80
2, 104540, Note_off_c, 0, 88, 100
2, 104544, Note_on_c, 0, 86, 80
2, 104636, Note_off_c, 0, 86, 100
2, 104640, Note_on_c, 0, 89, 80
2, 104732, Note_off_c, 0, 89, 100
2, 104736, Note_on_c, 0, 86, 80
2, 104828, Note_off_c, 0, 86, 100
2, 104896, Note_on_c, 0, 85, 80
2, 104956, Note_off_c, 0, 85, 100
2, 104960, Note_on_c, 0, 86, 80
2, 105020, Note_off_c, 0, 86, 100
2, 105024, Note_on_c, 0, 88, 80
2, 105084, Note_off_c, 0, 88, 100
2, 105088, Note_on_c, 0, 86, 80
2, 105148, Note_off_c, 0, 86, 100
2, 105152, Note_on_c, 0, 85, 80
2, 105212, Note_off_c, 0, 85, 100
2, 105280, Note_on_c, 0, 85, 80
2, 105340, Note_off_c, 0, 85, 100
2, 105344, Note_on_c, 0, 86, 80
2, 105404, Note_off_c, 0, 86, 100
2, 105408, Note_on_c, 0, 88, 80
2, 105468, Note_off_c, 0, 88, 100
2, 105472, Note_on_c, 0, 86, 80
2, 105532, Note_off_c, 0, 86, 100
2, 105536, Note_on_c, 0, 85, 80
2, 105596, Note_off_c, 0, 85, 100
2, 105696, Note_on_c, 0, 86, 80
2, 105720, Note_on_c, 0, 85, 80
2, 105740, Note_off_c, 0, 86, 100
2, 105744, Note_on_c, 0, 83, 80
2, 105764, Note_off_c, 0, 85, 100
2, 105768, Note_on_c, 0, 85, 80
2, 105788, Note_off_c, 0, 83, 100
2, 105788, Note_off_c, 0, 85, 100
2, 105792, Note_on_c, 0, 88, 80
2, 105884, Note_off_c, 0, 88, 100
2, 105888, Note_on_c, 0, 86, 80
2, 105980, Note_off_c, 0, 86, 100
2, 105984, Note_on_c, 0, 85, 80
2, 106076, Note_off_c, 0, 85, 100
2, 106080, Note_on_c, 0, 82, 80
2, 106172, Note_off_c, 0, 82, 100
2, 106176, Note_on_c, 0, 81, 80
2, 106268, Note_off_c, 0, 81, 100
2, 106272, Note_on_c, 0, 79, 80
2, 106364, Note_off_c, 0, 79, 100
2, 106368, Note_on_c, 0, 81, 110
2, 106368, Note_on_c, 0, 77, 110
2, 106368, Note_on_c, 0, 74, 110
2, 106368, Note_on_c, 0, 86, 110
2, 106556, Note_off_c, 0, 81, 100
2, 106556, Note_off_c, 0, 77, 100
2, 106556, Note_off_c, 0, 74, 100
2, 106556, Note_off_c, 0, 86, 100
2, 106752, Note_on_c, 0, 81, 110
2, 106752, Note_on_c, 0, 76, 110
2, 106752, Note_on_c, 0, 73, 110
2, 106752, Note_on_c, 0, 69, 110
2, 106940, Note_off_c, 0, 81, 100
2, 106940, Note_off_c, 0, 76, 100
2, 106940, Note_off_c, 0, 73, 100
2, 106940, Note_off_c, 0, 69, 100
2, 107136, Note_on_c, 0, 74, 110
2, 107136, Note_on_c, 0, 69, 110
2, 107136, Note_on_c, 0, 65, 110
2, 107136, Note_on_c, 0, 62, 110
2, 107324, Note_off_c, 0, 74, 100
2, 107324, Note_off_c, 0, 69, 100
2, 107324, Note_off_c, 0, 65, 100
2, 107324, Note_off_c, 0, 62, 100
2, 107904, Note_on_c, 0, 81, 110
2, 107904, Note_on_c, 0, 76, 110
2, 107904, Note_on_c, 0, 73, 110
2, 107904, Note_on_c, 0, 69, 110
2, 108092, Note_off_c, 0, 81, 100
2, 108092, Note_off_c, 0, 76, 100
2, 108092, Note_off_c, 0, 73, 100
2, 108092, Note_off_c, 0, 69, 100
2, 108288, Note_on_c, 0, 76, 110
2, 108288, Note_on_c, 0, 71, 110
2, 108288, Note_on_c, 0, 68, 110
2, 108288, Note_on_c, 0, 64, 110
2, 108476, Note_off_c, 0, 76, 100
2, 108476, Note_off_c, 0, 71, 100
2, 108476, Note_off_c, 0, 68, 100
2, 108476, Note_off_c, 0, 64, 100
2, 108672, Note_on_c, 0, 64, 110
2, 108672, Note_on_c, 0, 61, 110
2, 108672, Note_on_c, 0, 69, 110
2, 108860, Note_off_c, 0, 64, 100
2, 108860, Note_off_c, 0, 61, 100
2, 108860, Note_off_c, 0, 69, 100
2, 109504, Note_on_c, 0, 65, 80
2, 109564, Note_off_c, 0, 65, 100
2, 109568, Note_on_c, 0, 77, 80
2, 109628, Note_off_c, 0, 77, 100
2, 109696, Note_on_c, 0, 68, 80
2, 109756, Note_off_c, 0, 68, 100
2, 109760, Note_on_c, 0, 80, 80
2, 109820, Note_off_c, 0, 80, 100
2, 109888, Note_on_c, 0, 69, 80
2, 109948, Note_off_c, 0, 69, 100
2, 109952, Note_on_c, 0, 81, 80
2, 110012, Note_off_c, 0, 81, 100
2, 110080, Note_on_c, 0, 62, 80
2, 110140, Note_off_c, 0, 62, 100
2, 110144, Note_on_c, 0, 74, 80
2, 110204, Note_off_c, 0, 74, 100
2, 110272, Note_on_c, 0, 62, 80
2, 110332, Note_off_c, 0, 62, 100
2, 110336, Note_on_c, 0, 74, 80
2, 110396, Note_off_c, 0, 74, 100
2, 110464, Note_on_c, 0, 61, 80
2, 110524, Note_off_c, 0, 61, 100
2, 110528, Note_on_c, 0, 73, 80
2, 110588, Note_off_c, 0, 73, 100
2, 110656, Note_on_c, 0, 61, 80
2, 110716, Note_off_c, 0, 61, 100
2, 110720, Note_on_c, 0, 73, 80
2, 110780, Note_off_c, 0, 73, 100
2, 110848, Note_on_c, 0, 64, 80
2, 110908, Note_off_c, 0, 64, 100
2, 110912, Note_on_c, 0, 76, 80
2, 110972, Note_off_c, 0, 76, 100
2, 111040, Note_on_c, 0, 64, 80
2, 111100, Note_off_c, 0, 64, 100
2, 111104, Note_on_c, 0, 76, 80
2, 111164, Note_off_c, 0, 76, 100
2, 111232, Note_on_c, 0, 62, 80
2, 111292, Note_off_c, 0, 62, 100
2, 111296, Note_on_c, 0, 74, 80
2, 111356, Note_off_c, 0, 74, 100
2, 111424, Note_on_c, 0, 62, 80
2, 111484, Note_off_c, 0, 62, 100
2, 111488, Note_on_c, 0, 74, 80
2, 111548, Note_off_c, 0, 74, 100
2, 111616, Note_on_c, 0, 65, 80
2, 111676, Note_off_c, 0, 65, 100
2, 111680, Note_on_c, 0, 77, 80
2, 111740, Note_off_c, 0, 77, 100
2, 111808, Note_on_c, 0, 65, 80
2, 111868, Note_off_c, 0, 65, 100
2, 111872, Note_on_c, 0, 77, 80
2, 111932, Note_off_c, 0, 77, 100
2, 112000, Note_on_c, 0, 64, 80
2, 112060, Note_off_c, 0, 64, 100
2, 112064, Note_on_c, 0, 76, 80
2, 112124, Note_off_c, 0, 76, 100
2, 112192, Note_on_c, 0, 64, 80
2, 112252, Note_off_c, 0, 64, 100
2, 112256, Note_on_c, 0, 76, 80
2, 112316, Note_off_c, 0, 76, 100
2, 112384, Note_on_c, 0, 67, 80
2, 112444, Note_off_c, 0, 67, 100
2, 112448, Note_on_c, 0, 79, 80
2, 112508, Note_off_c, 0, 79, 100
2, 112576, Note_on_c, 0, 67, 80
2, 112636, Note_off_c, 0, 67, 100
2, 112640, Note_on_c, 0, 79, 81
2, 112700, Note_off_c, 0, 79, 100
2, 112768, Note_on_c, 0, 65, 83
2, 112828, Note_off_c, 0, 65, 100
2, 112832, Note_on_c, 0, 77, 84
2, 112892, Note_off_c, 0, 77, 100
2, 112960, Note_on_c, 0, 67, 85
2, 113020, Note_off_c, 0, 67, 100
2, 113024, Note_on_c, 0, 79, 86
2, 113084, Note_off_c, 0, 79, 100
2, 113152, Note_on_c, 0, 66, 88
2, 113212, Note_off_c, 0, 66, 100
2, 113216, Note_on_c, 0, 78, 89
2, 113276, Note_off_c, 0, 78, 100
2, 113344, Note_on_c, 0, 69, 90
2, 113404, Note_off_c, 0, 69, 100
2, 113408, Note_on_c, 0, 81, 91
2, 113468, Note_off_c, 0, 81, 100
2, 113536, Note_on_c, 0, 67, 93
2, 113596, Note_off_c, 0, 67, 100
2, 113600, Note_on_c, 0, 79, 94
2, 113660, Note_off_c, 0, 79, 100
2, 113728, Note_on_c, 0, 70, 95
2, 113788, Note_off_c, 0, 70, 100
2, 113792, Note_on_c, 0, 82, 96
2, 113852, Note_off_c, 0, 82, 100
2, 113920, Note_on_c, 0, 69, 98
2, 113980, Note_off_c, 0, 69, 100
2, 113984, Note_on_c, 0, 81, 99
2, 114044, Note_off_c, 0, 81, 100
2, 114112, Note_on_c, 0, 72, 80
2, 114172, Note_off_c, 0, 72, 100
2, 114176, Note_on_c, 0, 84, 80
2, 114236, Note_off_c, 0, 84, 100
2, 114304, Note_on_c, 0, 70, 80
2, 114364, Note_off_c, 0, 70, 100
2, 114368, Note_on_c, 0, 82, 80
2, 114428, Note_off_c, 0, 82, 100
2, 114496, Note_on_c, 0, 74, 80
2, 114556, Note_off_c, 0, 74, 100
2, 114560, Note_on_c, 0, 86, 80
2, 114620, Note_off_c, 0, 86, 100
2, 114688, Note_on_c, 0, 67, 80
2, 114748, Note_off_c, 0, 67, 100
2, 114752, Note_on_c, 0, 79, 80
2, 114812, Note_off_c, 0, 79, 100
2, 114880, Note_on_c, 0, 67, 80
2, 114940, Note_off_c, 0, 67, 100
2, 114944, Note_on_c, 0, 79, 80
2, 115004, Note_off_c, 0, 79, 100
2, 115072, Note_on_c, 0, 64, 80
2, 115132, Note_off_c, 0, 64, 100
2, 115136, Note_on_c, 0, 76, 80
2, 115196, Note_off_c, 0, 76, 100
2, 115264, Note_on_c, 0, 66, 80
2, 115324, Note_off_c, 0, 66, 100
2, 115328, Note_on_c, 0, 78, 80
2, 115388, Note_off_c, 0, 78, 100
2, 115456, Note_on_c, 0, 69, 80
2, 115516, Note_off_c, 0, 69, 100
2, 115520, Note_on_c, 0, 81, 80
2, 115580, Note_off_c, 0, 81, 100
2, 115648, Note_on_c, 0, 69, 80
2, 115708, Note_off_c, 0, 69, 100
2, 115712, Note_on_c, 0, 81, 80
2, 115772, Note_off_c, 0, 81, 100
2, 115840, Note_on_c, 0, 66, 80
2, 115900, Note_off_c, 0, 66, 100
2, 115904, Note_on_c, 0, 78, 80
2, 115964, Note_off_c, 0, 78, 100
2, 116032, Note_on_c, 0, 67, 80
2, 116092, Note_off_c, 0, 67, 100
2, 116096, Note_on_c, 0, 79, 80
2, 116156, Note_off_c, 0, 79, 100
2, 116224, Note_on_c, 0, 70, 80
2, 116284, Note_off_c, 0, 70, 100
2, 116288, Note_on_c, 0, 82, 80
2, 116348, Note_off_c, 0, 82, 100
2, 116416, Note_on_c, 0, 70, 80
2, 116476, Note_off_c, 0, 70, 100
2, 116480, Note_on_c, 0, 82, 80
2, 116540, Note_off_c, 0, 82, 100
2, 116608, Note_on_c, 0, 68, 80
2, 116668, Note_off_c, 0, 68, 100
2, 116672, Note_on_c, 0, 80, 80
2, 116732, Note_off_c, 0, 80, 100
2, 116800, Note_on_c, 0, 69, 80
2, 116860, Note_off_c, 0, 69, 100
2, 116864, Note_on_c, 0, 81, 80
2, 116924, Note_off_c, 0, 81, 100
2, 116992, Note_on_c, 0, 72, 80
2, 117052, Note_off_c, 0, 72, 100
2, 117056, Note_on_c, 0, 84, 80
2, 117116, Note_off_c, 0, 84, 100
2, 117184, Note_on_c, 0, 72, 81
2, 117244, Note_off_c, 0, 72, 100
2, 117248, Note_on_c, 0, 84, 82
2, 117308, Note_off_c, 0, 84, 100
2, 117376, Note_on_c, 0, 70, 85
2, 117436, Note_off_c, 0, 70, 100
2, 117440, Note_on_c, 0, 82, 86
2, 117500, Note_off_c, 0, 82, 100
2, 117568, Note_on_c, 0, 72, 89
2, 117628, Note_off_c, 0, 72, 100
2, 117632, Note_on_c, 0, 84, 90
2, 117692, Note_off_c, 0, 84, 100
2, 117760, Note_on_c, 0, 71, 93
2, 117820, Note_off_c, 0, 71, 100
2, 117824, Note_on_c, 0, 83, 94
2, 117884, Note_off_c, 0, 83, 100
2, 117952, Note_on_c, 0, 74, 96
2, 118012, Note_off_c, 0, 74, 100
2, 118016, Note_on_c, 0, 86, 98
2, 118076, Note_off_c, 0, 86, 100
2, 118144, Note_on_c, 0, 72, 100
2, 118204, Note_off_c, 0, 72, 100
2, 118208, Note_on_c, 0, 84, 102
2, 118268, Note_off_c, 0, 84, 100
2, 118336, Note_on_c, 0, 75, 104
2, 118396, Note_off_c, 0, 75, 100
2, 118400, Note_on_c, 0, 87, 106
2, 118460, Note_off_c, 0, 87, 100
2, 118528, Note_on_c, 0, 74, 108
2, 118588, Note_off_c, 0, 74, 100
2, 118592, Note_on_c, 0, 86, 109
2, 118652, Note_off_c, 0, 86, 100
2, 118720, Note_on_c, 0, 77, 120
2, 118780, Note_off_c, 0, 77, 100
2, 118784, Note_on_c, 0, 89, 120
2, 118844, Note_off_c, 0, 89, 100
2, 118912, Note_on_c, 0, 75, 120
2, 118972, Note_off_c, 0, 75, 100
2, 118976, Note_on_c, 0, 87, 120
2, 119036, Note_off_c, 0, 87, 100
2, 119104, Note_on_c, 0, 77, 120
2, 119164, Note_off_c, 0, 77, 100
2, 119168, Note_on_c, 0, 89, 120
2, 119228, Note_off_c, 0, 89, 100
2, 119296, Note_on_c, 0, 76, 120
2, 119356, Note_off_c, 0, 76, 100
2, 119360, Note_on_c, 0, 88, 120
2, 119420, Note_off_c, 0, 88, 100
2, 119488, Note_on_c, 0, 77, 120
2, 119548, Note_off_c, 0, 77, 100
2, 119552, Note_on_c, 0, 89, 120
2, 119612, Note_off_c, 0, 89, 100
2, 119680, Note_on_c, 0, 72, 120
2, 119740, Note_off_c, 0, 72, 100
2, 119744, Note_on_c, 0, 84, 120
2, 119804, Note_off_c, 0, 84, 100
2, 119872, Note_on_c, 0, 77, 120
2, 119932, Note_off_c, 0, 77, 100
2, 119936, Note_on_c, 0, 89, 120
2, 119996, Note_off_c, 0, 89, 100
2, 120064, Note_on_c, 0, 75, 120
2, 120124, Note_off_c, 0, 75, 100
2, 120128, Note_on_c, 0, 87, 120
2, 120188, Note_off_c, 0, 87, 100
2, 120256, Note_on_c, 0, 75, 80
2, 120316, Note_off_c, 0, 75, 100
2, 120320, Note_on_c, 0, 87, 80
2, 120380, Note_off_c, 0, 87, 100
2, 120448, Note_on_c, 0, 74, 80
2, 120508, Note_off_c, 0, 74, 100
2, 120512, Note_on_c, 0, 86, 80
2, 120572, Note_off_c, 0, 86, 100
2, 120640, Note_on_c, 0, 77, 80
2, 120700, Note_off_c, 0, 77, 100
2, 120704, Note_on_c, 0, 89, 80
2, 120764, Note_off_c, 0, 89, 100
2, 120832, Note_on_c, 0, 70, 80
2, 120892, Note_off_c, 0, 70, 100
2, 120896, Note_on_c, 0, 82, 80
2, 120956, Note_off_c, 0, 82, 100
2, 121024, Note_on_c, 0, 70, 80
2, 121084, Note_off_c, 0, 70, 100
2, 121088, Note_on_c, 0, 82, 80
2, 121148, Note_off_c, 0, 82, 100
2, 121216, Note_on_c, 0, 68, 80
2, 121276, Note_off_c, 0, 68, 100
2, 121280, Note_on_c, 0, 80, 80
2, 121340, Note_off_c, 0, 80, 100
2, 121408, Note_on_c, 0, 69, 80
2, 121468, Note_off_c, 0, 69, 100
2, 121472, Note_on_c, 0, 81, 80
2, 121532, Note_off_c, 0, 81, 100
2, 121600, Note_on_c, 0, 72, 80
2, 121660, Note_off_c, 0, 72, 100
2, 121664, Note_on_c, 0, 84, 80
2, 121724, Note_off_c, 0, 84, 100
2, 121792, Note_on_c, 0, 72, 80
2, 121852, Note_off_c, 0, 72, 100
2, 121856, Note_on_c, 0, 84, 81
2, 121916, Note_off_c, 0, 84, 100
2, 121984, Note_on_c, 0, 69, 83
2, 122044, Note_off_c, 0, 69, 100
2, 122048, Note_on_c, 0, 81, 84
2, 122108, Note_off_c, 0, 81, 100
2, 122176, Note_on_c, 0, 70, 86
2, 122236, Note_off_c, 0, 70, 100
2, 122240, Note_on_c, 0, 82, 86
2, 122300, Note_off_c, 0, 82, 100
2, 122368, Note_on_c, 0, 74, 88
2, 122428, Note_off_c, 0, 74, 100
2, 122432, Note_on_c, 0, 86, 89
2, 122492, Note_off_c, 0, 86, 100
2, 122560, Note_on_c, 0, 74, 91
2, 122620, Note_off_c, 0, 74, 100
2, 122624, Note_on_c, 0, 86, 92
2, 122684, Note_off_c, 0, 86, 100
2, 122752, Note_on_c, 0, 71, 93
2, 122812, Note_off_c, 0, 71, 100
2, 122816, Note_on_c, 0, 83, 94
2, 122876, Note_off_c, 0, 83, 100
2, 122944, Note_on_c, 0, 72, 96
2, 123004, Note_off_c, 0, 72, 100
2, 123008, Note_on_c, 0, 84, 97
2, 123068, Note_off_c, 0, 84, 100
2, 123136, Note_on_c, 0, 75, 99
2, 123196, Note_off_c, 0, 75, 100
2, 123200, Note_on_c, 0, 87, 99
2, 123260, Note_off_c, 0, 87, 100
2, 123328, Note_on_c, 0, 86, 80
2, 123388, Note_off_c, 0, 86, 100
2, 123392, Note_on_c, 0, 87, 80
2, 123452, Note_off_c, 0, 87, 100
2, 123456, Note_on_c, 0, 89, 80
2, 123516, Note_off_c, 0, 89, 100
2, 123520, Note_on_c, 0, 87, 80
2, 123580, Note_off_c, 0, 87, 100
2, 123584, Note_on_c, 0, 86, 80
2, 123644, Note_off_c, 0, 86, 100
2, 123712, Note_on_c, 0, 86, 80
2, 123772, Note_off_c, 0, 86, 100
2, 123776, Note_on_c, 0, 87, 80
2, 123836, Note_off_c, 0, 87, 100
2, 123840, Note_on_c, 0, 89, 80
2, 123900, Note_off_c, 0, 89, 100
2, 123904, Note_on_c, 0, 87, 80
2, 123964, Note_off_c, 0, 87, 100
2, 123968, Note_on_c, 0, 86, 80
2, 124028, Note_off_c, 0, 86, 100
2, 124096, Note_on_c, 0, 86, 80
2, 124156, Note_off_c, 0, 86, 100
2, 124160, Note_on_c, 0, 87, 80
2, 124220, Note_off_c, 0, 87, 100
2, 124224, Note_on_c, 0, 89, 80
2, 124284, Note_off_c, 0, 89, 100
2, 124288, Note_on_c, 0, 87, 80
2, 124348, Note_off_c, 0, 87, 100
2, 124352, Note_on_c, 0, 86, 80
2, 124412, Note_off_c, 0, 86, 100
2, 124416, Note_on_c, 0, 88, 80
2, 124508, Note_off_c, 0, 88, 100
2, 124512, Note_on_c, 0, 89, 80
2, 124604, Note_off_c, 0, 89, 100
2, 124608, Note_on_c, 0, 86, 80
2, 124700, Note_off_c, 0, 86, 100
2, 124704, Note_on_c, 0, 82, 80
2, 124796, Note_off_c, 0, 82, 100
2, 124864, Note_on_c, 0, 81, 80
2, 124924, Note_off_c, 0, 81, 100
2, 124928, Note_on_c, 0, 82, 80
2, 124988, Note_off_c, 0, 82, 100
2, 124992, Note_on_c, 0, 84, 80
2, 125052, Note_off_c, 0, 84, 100
2, 125056, Note_on_c, 0, 82, 80
2, 125116, Note_off_c, 0, 82, 100
2, 125120, Note_on_c, 0, 81, 80
2, 125180, Note_off_c, 0, 81, 100
2, 125248, Note_on_c, 0, 81, 80
2, 125308, Note_off_c, 0, 81, 100
2, 125312, Note_on_c, 0, 82, 80
2, 125372, Note_off_c, 0, 82, 100
2, 125376, Note_on_c, 0, 84, 80
2, 125436, Note_off_c, 0, 84, 100
2, 125440, Note_on_c, 0, 82, 80
2, 125500, Note_off_c, 0, 82, 100
2, 125504, Note_on_c, 0, 81, 80
2, 125564, Note_off_c, 0, 81, 100
2, 125632, Note_on_c, 0, 81, 80
2, 125692, Note_off_c, 0, 81, 100
2, 125696, Note_on_c, 0, 82, 80
2, 125756, Note_off_c, 0, 82, 100
2, 125760, Note_on_c, 0, 84, 80
2, 125820, Note_off_c, 0, 84, 100
2, 125824, Note_on_c, 0, 82, 80
2, 125884, Note_off_c, 0, 82, 100
2, 125888, Note_on_c, 0, 81, 80
2, 125948, Note_off_c, 0, 81, 100
2, 125952, Note_on_c, 0, 87, 80
2, 126044, Note_off_c, 0, 87, 100
2, 126048, Note_on_c, 0, 84, 80
2, 126140, Note_off_c, 0, 84, 100
2, 126144, Note_on_c, 0, 81, 80
2, 126236, Note_off_c, 0, 81, 100
2, 126240, Note_on_c, 0, 75, 80
2, 126332, Note_off_c, 0, 75, 100
2, 126336, Note_on_c, 0, 82, 80
2, 126336, Note_on_c, 0, 77, 80
2, 126336, Note_on_c, 0, 73, 80
2, 126336, Note_on_c, 0, 70, 80
2, 126524, Note_off_c, 0, 82, 100
2, 126524, Note_off_c, 0, 77, 100
2, 126524, Note_off_c, 0, 73, 100
2, 126524, Note_off_c, 0, 70, 100
2, 126720, Note_on_c, 0, 77, 85
2, 126720, Note_on_c, 0, 73, 85
2, 126720, Note_on_c, 0, 65, 85
2, 126720, Note_on_c, 0, 70, 85
2, 126908, Note_off_c, 0, 77, 100
2, 126908, Note_off_c, 0, 73, 100
2, 126908, Note_off_c, 0, 65, 100
2, 126908, Note_off_c, 0, 70, 100
2, 127104, Note_on_c, 0, 73, 90
2, 127104, Note_on_c, 0, 70, 90
2, 127104, Note_on_c, 0, 65, 90
2, 127104, Note_on_c, 0, 61, 90
2, 127292, Note_off_c, 0, 73, 100
2, 127292, Note_off_c, 0, 70, 100
2, 127292, Note_off_c, 0, 65, 100
2, 127292, Note_off_c, 0, 61, 100
2, 127872, Note_on_c, 0, 75, 110
2, 127872, Note_on_c, 0, 69, 110
2, 127872, Note_on_c, 0, 65, 110
2, 127872, Note_on_c, 0, 63, 110
2, 128060, Note_off_c, 0, 75, 100
2, 128060, Note_off_c, 0, 69, 100
2, 128060, Note_off_c, 0, 65, 100
2, 128060, Note_off_c, 0, 63, 100
2, 128256, Note_on_c, 0, 69, 110
2, 128256, Note_on_c, 0, 72, 110
2, 128256, Note_on_c, 0, 63, 110
2, 128256, Note_on_c, 0, 65, 110
2, 128444, Note_off_c, 0, 69, 100
2, 128444, Note_off_c, 0, 72, 100
2, 128444, Note_off_c, 0, 63, 100
2, 128444, Note_off_c, 0, 65, 100
2, 128640, Note_on_c, 0, 69, 110
2, 128640, Note_on_c, 0, 65, 110
2, 128640, Note_on_c, 0, 63, 110
2, 128640, Note_on_c, 0, 60, 110
2, 128828, Note_off_c, 0, 69, 100
2, 128828, Note_off_c, 0, 65, 100
2, 128828, Note_off_c, 0, 63, 100
2, 128828, Note_off_c, 0, 60, 100
2, 129472, Note_on_c, 0, 70, 80
2, 129532, Note_off_c, 0, 70, 100
2, 129536, Note_on_c, 0, 72, 80
2, 129596, Note_off_c, 0, 72, 100
2, 129600, Note_on_c, 0, 73, 80
2, 129660, Note_off_c, 0, 73, 100
2, 129664, Note_on_c, 0, 72, 80
2, 129724, Note_off_c, 0, 72, 100
2, 129728, Note_on_c, 0, 70, 80
2, 129788, Note_off_c, 0, 70, 100
2, 129856, Note_on_c, 0, 70, 80
2, 129916, Note_off_c, 0, 70, 100
2, 129920, Note_on_c, 0, 72, 80
2, 129980, Note_off_c, 0, 72, 100
2, 129984, Note_on_c, 0, 73, 80
2, 130044, Note_off_c, 0, 73, 100
2, 130048, Note_on_c, 0, 72, 80
2, 130108, Note_off_c, 0, 72, 100
2, 130112, Note_on_c, 0, 70, 80
2, 130172, Note_off_c, 0, 70, 100
2, 130240, Note_on_c, 0, 70, 80
2, 130300, Note_off_c, 0, 70, 100
2, 130304, Note_on_c, 0, 72, 80
2, 130364, Note_off_c, 0, 72, 100
2, 130368, Note_on_c, 0, 73, 80
2, 130428, Note_off_c, 0, 73, 100
2, 130432, Note_on_c, 0, 72, 80
2, 130492, Note_off_c, 0, 72, 100
2, 130496, Note_on_c, 0, 70, 80
2, 130556, Note_off_c, 0, 70, 100
2, 130560, Note_on_c, 0, 82, 80
2, 130652, Note_off_c, 0, 82, 100
2, 130656, Note_on_c, 0, 77, 80
2, 130748, Note_off_c, 0, 77, 100
2, 130752, Note_on_c, 0, 85, 80
2, 130844, Note_off_c, 0, 85, 100
2, 130848, Note_on_c, 0, 77, 80
2, 130940, Note_off_c, 0, 77, 100
2, 131008, Note_on_c, 0, 76, 80
2, 131068, Note_off_c, 0, 76, 100
2, 131072, Note_on_c, 0, 77, 80
2, 131132, Note_off_c, 0, 77, 100
2, 131136, Note_on_c, 0, 79, 80
2, 131196, Note_off_c, 0, 79, 100
2, 131200, Note_on_c, 0, 77, 80
2, 131260, Note_off_c, 0, 77, 100
2, 131264, Note_on_c, 0, 76, 80
2, 131324, Note_off_c, 0, 76, 100
2, 131392, Note_on_c, 0, 76, 80
2, 131452, Note_off_c, 0, 76, 100
2, 131456, Note_on_c, 0, 77, 80
2, 131516, Note_off_c, 0, 77, 100
2, 131520, Note_on_c, 0, 79, 80
2, 131580, Note_off_c, 0, 79, 100
2, 131584, Note_on_c, 0, 77, 80
2, 131644, Note_off_c, 0, 77, 100
2, 131648, Note_on_c, 0, 76, 80
2, 131708, Note_off_c, 0, 76, 100
2, 131776, Note_on_c, 0, 76, 80
2, 131836, Note_off_c, 0, 76, 100
2, 131840, Note_on_c, 0, 77, 80
2, 131900, Note_off_c, 0, 77, 100
2, 131904, Note_on_c, 0, 79, 80
2, 131964, Note_off_c, 0, 79, 100
2, 131968, Note_on_c, 0, 77, 80
2, 132028, Note_off_c, 0, 77, 100
2, 132032, Note_on_c, 0, 76, 80
2, 132092, Note_off_c, 0, 76, 100
2, 132096, Note_on_c, 0, 82, 80
2, 132188, Note_off_c, 0, 82, 100
2, 132192, Note_on_c, 0, 79, 80
2, 132284, Note_off_c, 0, 79, 100
2, 132288, Note_on_c, 0, 76, 80
2, 132380, Note_off_c, 0, 76, 100
2, 132384, Note_on_c, 0, 70, 80
2, 132476, Note_off_c, 0, 70, 100
2, 132544, Note_on_c, 0, 68, 80
2, 132604, Note_off_c, 0, 68, 100
2, 132608, Note_on_c, 0, 70, 81
2, 132668, Note_off_c, 0, 70, 100
2, 132672, Note_on_c, 0, 72, 82
2, 132732, Note_off_c, 0, 72, 100
2, 132736, Note_on_c, 0, 70, 83
2, 132796, Note_off_c, 0, 70, 100
2, 132800, Note_on_c, 0, 68, 84
2, 132860, Note_off_c, 0, 68, 100
2, 132928, Note_on_c, 0, 68, 86
2, 132988, Note_off_c, 0, 68, 100
2, 132992, Note_on_c, 0, 70, 87
2, 133052, Note_off_c, 0, 70, 100
2, 133056, Note_on_c, 0, 72, 87
2, 133116, Note_off_c, 0, 72, 100
2, 133120, Note_on_c, 0, 70, 88
2, 133180, Note_off_c, 0, 70, 100
2, 133184, Note_on_c, 0, 68, 89
2, 133244, Note_off_c, 0, 68, 100
2, 133312, Note_on_c, 0, 68, 91
2, 133372, Note_off_c, 0, 68, 100
2, 133376, Note_on_c, 0, 70, 92
2, 133436, Note_off_c, 0, 70, 100
2, 133440, Note_on_c, 0, 72, 93
2, 133500, Note_off_c, 0, 72, 100
2, 133504, Note_on_c, 0, 70, 94
2, 133564, Note_off_c, 0, 70, 100
2, 133568, Note_on_c, 0, 68, 95
2, 133628, Note_off_c, 0, 68, 100
2, 133632, Note_on_c, 0, 77, 95
2, 133724, Note_off_c, 0, 77, 100
2, 133728, Note_on_c, 0, 68, 97
2, 133820, Note_off_c, 0, 68, 100
2, 133824, Note_on_c, 0, 80, 98
2, 133916, Note_off_c, 0, 80, 100
2, 133920, Note_on_c, 0, 68, 99
2, 134012, Note_off_c, 0, 68, 100
2, 134080, Note_on_c, 0, 77, 110
2, 134140, Note_off_c, 0, 77, 100
2, 134144, Note_on_c, 0, 79, 110
2, 134204, Note_off_c, 0, 79, 100
2, 134208, Note_on_c, 0, 80, 110
2, 134268, Note_off_c, 0, 80, 100
2, 134272, Note_on_c, 0, 79, 110
2, 134332, Note_off_c, 0, 79, 100
2, 134336, Note_on_c, 0, 77, 110
2, 134396, Note_off_c, 0, 77, 100
2, 134464, Note_on_c, 0, 77, 110
2, 134524, Note_off_c, 0, 77, 100
2, 134528, Note_on_c, 0, 79, 110
2, 134588, Note_off_c, 0, 79, 100
2, 134592, Note_on_c, 0, 80, 110
2, 134652, Note_off_c, 0, 80, 100
2, 134656, Note_on_c, 0, 79, 110
2, 134716, Note_off_c, 0, 79, 100
2, 134720, Note_on_c, 0, 77, 110
2, 134780, Note_off_c, 0, 77, 100
2, 134848, Note_on_c, 0, 77, 110
2, 134908, Note_off_c, 0, 77, 100
2, 134912, Note_on_c, 0, 79, 110
2, 134972, Note_off_c, 0, 79, 100
2, 134976, Note_on_c, 0, 80, 110
2, 135036, Note_off_c, 0, 80, 100
2, 135040, Note_on_c, 0, 79, 110
2, 135100, Note_off_c, 0, 79, 100
2, 135104, Note_on_c, 0, 77, 110
2, 135164, Note_off_c, 0, 77, 100
2, 135168, Note_on_c, 0, 80, 110
2, 135260, Note_off_c, 0, 80, 100
2, 135264, Note_on_c, 0, 77, 110
2, 135356, Note_off_c, 0, 77, 100
2, 135360, Note_on_c, 0, 89, 110
2, 135452, Note_off_c, 0, 89, 100
2, 135456, Note_on_c, 0, 77, 110
2, 135548, Note_off_c, 0, 77, 100
2, 135616, Note_on_c, 0, 77, 120
2, 135676, Note_off_c, 0, 77, 100
2, 135680, Note_on_c, 0, 79, 120
2, 135740, Note_off_c, 0, 79, 100
2, 135744, Note_on_c, 0, 80, 120
2, 135804, Note_off_c, 0, 80, 100
2, 135808, Note_on_c, 0, 79, 120
2, 135868, Note_off_c, 0, 79, 100
2, 135872, Note_on_c, 0, 77, 120
2, 135932, Note_off_c, 0, 77, 100
2, 135936, Note_on_c, 0, 86, 120
2, 136028, Note_off_c, 0, 86, 100
2, 136032, Note_on_c, 0, 77, 120
2, 136124, Note_off_c, 0, 77, 100
2, 136128, Note_on_c, 0, 86, 120
2, 136220, Note_off_c, 0, 86, 100
2, 136224, Note_on_c, 0, 77, 120
2, 136316, Note_off_c, 0, 77, 100
2, 136384, Note_on_c, 0, 77, 120
2, 136444, Note_off_c, 0, 77, 100
2, 136448, Note_on_c, 0, 79, 120
2, 136508, Note_off_c, 0, 79, 100
2, 136512, Note_on_c, 0, 80, 120
2, 136572, Note_off_c, 0, 80, 100
2, 136576, Note_on_c, 0, 79, 120
2, 136636, Note_off_c, 0, 79, 100
2, 136640, Note_on_c, 0, 77, 120
2, 136700, Note_off_c, 0, 77, 100
2, 136704, Note_on_c, 0, 86, 120
2, 136796, Note_off_c, 0, 86, 100
2, 136800, Note_on_c, 0, 77, 120
2, 136892, Note_off_c, 0, 77, 100
2, 136896, Note_on_c, 0, 86, 120
2, 136988, Note_off_c, 0, 86, 100
2, 136992, Note_on_c, 0, 77, 120
2, 137084, Note_off_c, 0, 77, 100
2, 137152, Note_on_c, 0, 77, 120
2, 137212, Note_off_c, 0, 77, 100
2, 137216, Note_on_c, 0, 79, 120
2, 137276, Note_off_c, 0, 79, 100
2, 137280, Note_on_c, 0, 81, 120
2, 137340, Note_off_c, 0, 81, 100
2, 137344, Note_on_c, 0, 79, 120
2, 137404, Note_off_c, 0, 79, 100
2, 137408, Note_on_c, 0, 77, 120
2, 137468, Note_off_c, 0, 77, 100
2, 137472, Note_on_c, 0, 86, 110
2, 137564, Note_off_c, 0, 86, 100
2, 137568, Note_on_c, 0, 77, 108
2, 137660, Note_off_c, 0, 77, 100
2, 137664, Note_on_c, 0, 86, 105
2, 137756, Note_off_c, 0, 86, 100
2, 137760, Note_on_c, 0, 77, 102
2, 137852, Note_off_c, 0, 77, 100
2, 137856, Note_on_c, 0, 86, 100
2, 137948, Note_off_c, 0, 86, 100
2, 137952, Note_on_c, 0, 77, 97
2, 138044, Note_off_c, 0, 77, 100
2, 138048, Note_on_c, 0, 86, 94
2, 138140, Note_off_c, 0, 86, 100
2, 138144, Note_on_c, 0, 77, 91
2, 138236, Note_off_c, 0, 77, 100
2, 138240, Note_on_c, 0, 86, 89
2, 138332, Note_off_c, 0, 86, 100
2, 138336, Note_on_c, 0, 77, 86
2, 138428, Note_off_c, 0, 77, 100
2, 138432, Note_on_c, 0, 86, 83
2, 138524, Note_off_c, 0, 86, 100
2, 138528, Note_on_c, 0, 77, 81
2, 138620, Note_off_c, 0, 77, 100
2, 138720, Note_on_c, 0, 76, 80
2, 138812, Note_off_c, 0, 76, 100
2, 138816, Note_on_c, 0, 86, 80
2, 138908, Note_off_c, 0, 86, 100
2, 138912, Note_on_c, 0, 76, 80
2, 139004, Note_off_c, 0, 76, 100
2, 139008, Note_on_c, 0, 86, 80
2, 139100, Note_off_c, 0, 86, 100
2, 139104, Note_on_c, 0, 76, 80
2, 139196, Note_off_c, 0, 76, 100
2, 139200, Note_on_c, 0, 86, 80
2, 139292, Note_off_c, 0, 86, 100
2, 139296, Note_on_c, 0, 76, 80
2, 139388, Note_off_c, 0, 76, 100
2, 139488, Note_on_c, 0, 76, 70
2, 139580, Note_off_c, 0, 76, 100
2, 139584, Note_on_c, 0, 85, 70
2, 139676, Note_off_c, 0, 85, 100
2, 139680, Note_on_c, 0, 76, 70
2, 139772, Note_off_c, 0, 76, 100
2, 139776, Note_on_c, 0, 85, 70
2, 139868, Note_off_c, 0, 85, 100
2, 139872, Note_on_c, 0, 76, 70
2, 139964, Note_off_c, 0, 76, 100
2, 139968, Note_on_c, 0, 85, 70
2, 140060, Note_off_c, 0, 85, 100
2, 140064, Note_on_c, 0, 76, 70
2, 140156, Note_off_c, 0, 76, 100
2, 140928, Key_signature, 2, "major"
2, 141504, Note_on_c, 0, 62, 80
2, 141504, Note_on_c, 0, 66, 80
2, 141692, Note_off_c, 0, 62, 100
2, 141692, Note_off_c, 0, 66, 100
2, 141696, Note_on_c, 0, 69, 80
2, 141696, Note_on_c, 0, 66, 80
2, 141696, Note_on_c, 0, 62, 80
2, 142076, Note_off_c, 0, 69, 100
2, 142076, Note_off_c, 0, 66, 100
2, 142076, Note_off_c, 0, 62, 100
2, 142272, Note_on_c, 0, 81, 80
2, 142332, Note_off_c, 0, 81, 100
2, 142336, Note_on_c, 0, 80, 80
2, 142396, Note_off_c, 0, 80, 100
2, 142400, Note_on_c, 0, 83, 80
2, 142460, Note_off_c, 0, 83, 100
2, 142464, Note_on_c, 0, 81, 80
2, 142844, Note_off_c, 0, 81, 100
2, 143040, Note_on_c, 0, 66, 80
2, 143040, Note_on_c, 0, 62, 80
2, 143228, Note_off_c, 0, 66, 100
2, 143228, Note_off_c, 0, 62, 100
2, 143232, Note_on_c, 0, 67, 80
2, 143232, Note_on_c, 0, 64, 80
2, 143612, Note_off_c, 0, 67, 100
2, 143612, Note_off_c, 0, 64, 100
2, 143808, Note_on_c, 0, 81, 80
2, 143868, Note_off_c, 0, 81, 100
2, 143872, Note_on_c, 0, 80, 80
2, 143932, Note_off_c, 0, 80, 100
2, 143936, Note_on_c, 0, 83, 80
2, 143996, Note_off_c, 0, 83, 100
2, 144000, Note_on_c, 0, 81, 80
2, 144380, Note_off_c, 0, 81, 100
2, 144576, Note_on_c, 0, 67, 80
2, 144764, Note_off_c, 0, 67, 100
2, 144768, Note_on_c, 0, 66, 80
2, 144908, Note_off_c, 0, 66, 100
2, 144912, Note_on_c, 0, 69, 80
2, 144956, Note_off_c, 0, 69, 100
2, 144960, Note_on_c, 0, 74, 80
2, 145340, Note_off_c, 0, 74, 100
2, 145344, Note_on_c, 0, 73, 80
2, 145532, Note_off_c, 0, 73, 100
2, 145536, Note_on_c, 0, 74, 80
2, 145724, Note_off_c, 0, 74, 100
2, 145728, Note_on_c, 0, 78, 80
2, 146108, Note_off_c, 0, 78, 100
2, 146112, Note_on_c, 0, 76, 80
2, 146492, Note_off_c, 0, 76, 100
2, 146496, Note_on_c, 0, 78, 80
2, 146876, Note_off_c, 0, 78, 100
2, 146880, Note_on_c, 0, 79, 80
2, 146972, Note_off_c, 0, 79, 100
2, 146976, Note_on_c, 0, 81, 80
2, 147068, Note_off_c, 0, 81, 100
2, 147072, Note_on_c, 0, 81, 80
2, 147260, Note_off_c, 0, 81, 100
2, 147264, Note_on_c, 0, 79, 80
2, 147452, Note_off_c, 0, 79, 100
2, 147840, Note_on_c, 0, 79, 80
2, 147888, Note_on_c, 0, 81, 80
2, 147932, Note_off_c, 0, 79, 100
2, 147936, Note_on_c, 0, 78, 80
2, 147980, Note_off_c, 0, 81, 100
2, 147984, Note_on_c, 0, 79, 80
2, 148028, Note_off_c, 0, 78, 100
2, 148028, Note_off_c, 0, 79, 100
2, 148032, Note_on_c, 0, 83, 80
2, 148412, Note_off_c, 0, 83, 100
2, 148416, Note_on_c, 0, 81, 80
2, 148508, Note_off_c, 0, 81, 100
2, 148512, Note_on_c, 0, 79, 80
2, 148604, Note_off_c, 0, 79, 100
2, 148608, Note_on_c, 0, 78, 80
2, 148656, Note_on_c, 0, 79, 80
2, 148700, Note_off_c, 0, 78, 100
2, 148704, Note_on_c, 0, 81, 80
2, 148748, Note_off_c, 0, 79, 100
2, 148752, Note_on_c, 0, 79, 80
2, 148796, Note_off_c, 0, 81, 100
2, 148796, Note_off_c, 0, 79, 100
2, 148800, Note_on_c, 0, 78, 80
2, 149132, Note_off_c, 0, 78, 100
2, 149136, Note_on_c, 0, 76, 80
2, 149180, Note_off_c, 0, 76, 100
2, 149184, Note_on_c, 0, 79, 80
2, 149324, Note_off_c, 0, 79, 100
2, 149328, Note_on_c, 0, 76, 80
2, 149372, Note_off_c, 0, 76, 100
2, 149376, Note_on_c, 0, 76, 80
2, 149564, Note_off_c, 0, 76, 100
2, 149568, Note_on_c, 0, 74, 80
2, 149900, Note_off_c, 0, 74, 100
2, 149904, Note_on_c, 0, 73, 80
2, 149948, Note_off_c, 0, 73, 100
2, 149952, Note_on_c, 0, 76, 80
2, 150092, Note_off_c, 0, 76, 100
2, 150096, Note_on_c, 0, 73, 80
2, 150140, Note_off_c, 0, 73, 100
2, 150144, Note_on_c, 0, 74, 80
2, 150524, Note_off_c, 0, 74, 100
2, 151488, Note_on_c, 0, 69, 70
2, 151488, Note_on_c, 0, 66, 70
2, 151676, Note_off_c, 0, 69, 100
2, 151676, Note_off_c, 0, 66, 100
2, 151680, Note_on_c, 0, 70, 70
2, 151680, Note_on_c, 0, 67, 70
2, 152060, Note_off_c, 0, 70, 100
2, 152060, Note_off_c, 0, 67, 100
2, 152256, Note_on_c, 0, 82, 70
2, 152316, Note_off_c, 0, 82, 100
2, 152320, Note_on_c, 0, 81, 70
2, 152380, Note_off_c, 0, 81, 100
2, 152384, Note_on_c, 0, 84, 70
2, 152444, Note_off_c, 0, 84, 100
2, 152448, Note_on_c, 0, 82, 70
2, 152828, Note_off_c, 0, 82, 100
2, 153024, Note_on_c, 0, 67, 70
2, 153024, Note_on_c, 0, 70, 70
2, 153212, Note_off_c, 0, 67, 100
2, 153212, Note_off_c, 0, 70, 100
2, 153216, Note_on_c, 0, 70, 70
2, 153216, Note_on_c, 0, 64, 70
2, 153596, Note_off_c, 0, 70, 100
2, 153596, Note_off_c, 0, 64, 100
2, 153792, Note_on_c, 0, 82, 70
2, 153852, Note_off_c, 0, 82, 100
2, 153856, Note_on_c, 0, 81, 70
2, 153916, Note_off_c, 0, 81, 100
2, 153920, Note_on_c, 0, 84, 70
2, 153980, Note_off_c, 0, 84, 100
2, 153984, Note_on_c, 0, 82, 70
2, 154364, Note_off_c, 0, 82, 100
2, 154560, Note_on_c, 0, 82, 70
2, 154620, Note_off_c, 0, 82, 100
2, 154624, Note_on_c, 0, 81, 70
2, 154684, Note_off_c, 0, 81, 100
2, 154688, Note_on_c, 0, 84, 70
2, 154748, Note_off_c, 0, 84, 100
2, 154752, Note_on_c, 0, 82, 70
2, 154940, Note_off_c, 0, 82, 100
2, 154944, Note_on_c, 0, 82, 70
2, 155004, Note_off_c, 0, 82, 100
2, 155008, Note_on_c, 0, 81, 70
2, 155068, Note_off_c, 0, 81, 100
2, 155072, Note_on_c, 0, 84, 70
2, 155132, Note_off_c, 0, 84, 100
2, 155136, Note_on_c, 0, 82, 70
2, 155324, Note_off_c, 0, 82, 100
2, 155328, Note_on_c, 0, 82, 70
2, 155388, Note_off_c, 0, 82, 100
2, 155392, Note_on_c, 0, 81, 70
2, 155452, Note_off_c, 0, 81, 100
2, 155456, Note_on_c, 0, 84, 70
2, 155516, Note_off_c, 0, 84, 100
2, 155520, Key_signature, -1, "major"
2, 155520, Note_on_c, 0, 82, 70
2, 155900, Note_off_c, 0, 82, 100
2, 156096, Note_on_c, 0, 70, 80
2, 156284, Note_off_c, 0, 70, 100
2, 156288, Note_on_c, 0, 69, 80
2, 156428, Note_off_c, 0, 69, 100
2, 156432, Note_on_c, 0, 72, 81
2, 156476, Note_off_c, 0, 72, 100
2, 156480, Note_on_c, 0, 77, 82
2, 156860, Note_off_c, 0, 77, 100
2, 156864, Note_on_c, 0, 76, 87
2, 157052, Note_off_c, 0, 76, 100
2, 157056, Note_on_c, 0, 77, 89
2, 157244, Note_off_c, 0, 77, 100
2, 157248, Note_on_c, 0, 81, 92
2, 157628, Note_off_c, 0, 81, 100
2, 157632, Note_on_c, 0, 79, 97
2, 158012, Note_off_c, 0, 79, 100
2, 158016, Note_on_c, 0, 81, 100
2, 158396, Note_off_c, 0, 81, 100
2, 158400, Note_on_c, 0, 82, 96
2, 158492, Note_off_c, 0, 82, 100
2, 158496, Note_on_c, 0, 84, 94
2, 158588, Note_off_c, 0, 84, 100
2, 158592, Note_on_c, 0, 84, 93
2, 158780, Note_off_c, 0, 84, 100
2, 158784, Note_on_c, 0, 82, 91
2, 158972, Note_off_c, 0, 82, 100
2, 159360, Note_on_c, 0, 82, 80
2, 159408, Note_on_c, 0, 84, 80
2, 159452, Note_off_c, 0, 82, 100
2, 159456, Note_on_c, 0, 81, 80
2, 159500, Note_off_c, 0, 84, 100
2, 159504, Note_on_c, 0, 82, 80
2, 159548, Note_off_c, 0, 81, 100
2, 159552, Note_on_c, 0, 86, 80
2, 159596, Note_off_c, 0, 82, 100
2, 159932, Note_off_c, 0, 86, 100
2, 159936, Note_on_c, 0, 84, 80
2, 160028, Note_off_c, 0, 84, 100
2, 160032, Note_on_c, 0, 82, 80
2, 160124, Note_off_c, 0, 82, 100
2, 160128, Note_on_c, 0, 81, 80
2, 160176, Note_on_c, 0, 82, 80
2, 160220, Note_off_c, 0, 81, 100
2, 160224, Note_on_c, 0, 84, 80
2, 160268, Note_off_c, 0, 82, 100
2, 160272, Note_on_c, 0, 82, 80
2, 160316, Note_off_c, 0, 84, 100
2, 160320, Note_on_c, 0, 81, 80
2, 160364, Note_off_c, 0, 82, 100
2, 160652, Note_off_c, 0, 81, 100
2, 160656, Note_on_c, 0, 79, 80
2, 160700, Note_off_c, 0, 79, 100
2, 160704, Note_on_c, 0, 82, 80
2, 160844, Note_off_c, 0, 82, 100
2, 160848, Note_on_c, 0, 79, 80
2, 160892, Note_off_c, 0, 79, 100
2, 160896, Note_on_c, 0, 79, 80
2, 161084, Note_off_c, 0, 79, 100
2, 161088, Note_on_c, 0, 77, 80
2, 161420, Note_off_c, 0, 77, 100
2, 161424, Note_on_c, 0, 76, 80
2, 161468, Note_off_c, 0, 76, 100
2, 161472, Note_on_c, 0, 79, 80
2, 161612, Note_off_c, 0, 79, 100
2, 161616, Note_on_c, 0, 76, 80
2, 161660, Note_off_c, 0, 76, 100
2, 161664, Note_on_c, 0, 77, 80
2, 162044, Note_off_c, 0, 77, 100
2, 162240, Note_on_c, 0, 65, 87
2, 162240, Note_on_c, 0, 53, 87
2, 162428, Note_off_c, 0, 65, 100
2, 162428, Note_off_c, 0, 53, 100
2, 162432, Note_on_c, 0, 69, 89
2, 162432, Note_on_c, 0, 65, 89
2, 162432, Note_on_c, 0, 60, 89
2, 162432, Note_on_c, 0, 57, 89
2, 162812, Note_off_c, 0, 69, 100
2, 162812, Note_off_c, 0, 65, 100
2, 162812, Note_off_c, 0, 60, 100
2, 162812, Note_off_c, 0, 57, 100
2, 162816, Note_on_c, 0, 72, 94
2, 162816, Note_on_c, 0, 69, 94
2, 162816, Note_on_c, 0, 65, 94
2, 162816, Note_on_c, 0, 60, 94
2, 163196, Note_off_c, 0, 72, 100
2, 163196, Note_off_c, 0, 69, 100
2, 163196, Note_off_c, 0, 65, 100
2, 163196, Note_off_c, 0, 60, 100
2, 163200, Note_on_c, 0, 77, 99
2, 163200, Note_on_c, 0, 72, 99
2, 163200, Note_on_c, 0, 69, 99
2, 163200, Note_on_c, 0, 65, 99
2, 163772, Note_off_c, 0, 77, 100
2, 163772, Note_off_c, 0, 72, 100
2, 163772, Note_off_c, 0, 69, 100
2, 163772, Note_off_c, 0, 65, 100
2, 163776, Note_on_c, 0, 81, 106
2, 163776, Note_on_c, 0, 77, 106
2, 163776, Note_on_c, 0, 72, 106
2, 163776, Note_on_c, 0, 69, 106
2, 163964, Note_off_c, 0, 81, 100
2, 163964, Note_off_c, 0, 77, 100
2, 163964, Note_off_c, 0, 72, 100
2, 163964, Note_off_c, 0, 69, 100
2, 163968, Note_on_c, 0, 84, 108
2, 163968, Note_on_c, 0, 81, 108
2, 163968, Note_on_c, 0, 77, 108
2, 163968, Note_on_c, 0, 72, 108
2, 164156, Note_off_c, 0, 84, 100
2, 164156, Note_off_c, 0, 81, 100
2, 164156, Note_off_c, 0, 77, 100
2, 164156, Note_off_c, 0, 72, 100
2, 164160, Note_on_c, 0, 89, 110
2, 164160, Note_on_c, 0, 84, 110
2, 164160, Note_on_c, 0, 81, 110
2, 164160, Note_on_c, 0, 77, 110
2, 164540, Note_off_c, 0, 89, 100
2, 164540, Note_off_c, 0, 84, 100
2, 164540, Note_off_c, 0, 81, 100
2, 164540, Note_off_c, 0, 77, 100
2, 164544, Note_on_c, 0, 89, 110
2, 164544, Note_on_c, 0, 84, 110
2, 164544, Note_on_c, 0, 81, 110
2, 164544, Note_on_c, 0, 77, 110
2, 164732, Note_off_c, 0, 89, 100
2, 164732, Note_off_c, 0, 84, 100
2, 164732, Note_off_c, 0, 81, 100
2, 164732, Note_off_c, 0, 77, 100
2, 164736, Note_on_c, 0, 89, 100
2, 164736, Note_on_c, 0, 77, 100
2, 164736, Note_on_c, 0, 84, 100
2, 164736, Note_on_c, 0, 82, 100
2, 165116, Note_off_c, 0, 89, 100
2, 165116, Note_off_c, 0, 77, 100
2, 165120, Note_on_c, 0, 88, 89
2, 165120, Note_on_c, 0, 76, 89
2, 165308, Note_off_c, 0, 84, 100
2, 165308, Note_off_c, 0, 82, 100
2, 165308, Note_off_c, 0, 88, 100
2, 165308, Note_off_c, 0, 76, 100
2, 165504, Note_on_c, 0, 64, 80
2, 165504, Note_on_c, 0, 58, 80
2, 165504, Note_on_c, 0, 55, 80
2, 165504, Note_on_c, 0, 52, 80
2, 165884, Note_off_c, 0, 64, 100
2, 165884, Note_off_c, 0, 58, 100
2, 165884, Note_off_c, 0, 55, 100
2, 165884, Note_off_c, 0, 52, 100
2, 165888, Note_on_c, 0, 67, 84
2, 165888, Note_on_c, 0, 64, 84
2, 165888, Note_on_c, 0, 58, 84
2, 165888, Note_on_c, 0, 55, 84
2, 166268, Note_off_c, 0, 67, 100
2, 166268, Note_off_c, 0, 64, 100
2, 166268, Note_off_c, 0, 58, 100
2, 166268, Note_off_c, 0, 55, 100
2, 166272, Note_on_c, 0, 70, 89
2, 166272, Note_on_c, 0, 64, 89
2, 166272, Note_on_c, 0, 58, 89
2, 166272, Note_on_c, 0, 67, 89
2, 166844, Note_off_c, 0, 70, 100
2, 166844, Note_off_c, 0, 64, 100
2, 166844, Note_off_c, 0, 58, 100
2, 166844, Note_off_c, 0, 67, 100
2, 166848, Note_on_c, 0, 76, 96
2, 166848, Note_on_c, 0, 64, 96
2, 167036, Note_off_c, 0, 76, 100
2, 167036, Note_off_c, 0, 64, 100
2, 167040, Note_on_c, 0, 67, 98
2, 167040, Note_on_c, 0, 79, 98
2, 167228, Note_off_c, 0, 67, 100
2, 167228, Note_off_c, 0, 79, 100
2, 167232, Note_on_c, 0, 70, 110
2, 167232, Note_on_c, 0, 82, 110
2, 167612, Note_off_c, 0, 70, 100
2, 167612, Note_off_c, 0, 82, 100
2, 167616, Note_on_c, 0, 69, 110
2, 167616, Note_on_c, 0, 81, 110
2, 167804, Note_off_c, 0, 69, 100
2, 167804, Note_off_c, 0, 81, 100
2, 167808, Note_on_c, 0, 79, 100
2, 167808, Note_on_c, 0, 67, 100
2, 168188, Note_off_c, 0, 79, 100
2, 168188, Note_off_c, 0, 67, 100
2, 168192, Note_on_c, 0, 65, 89
2, 168192, Note_on_c, 0, 77, 89
2, 168380, Note_off_c, 0, 65, 100
2, 168380, Note_off_c, 0, 77, 100
2, 168576, Note_on_c, 0, 65, 80
2, 168668, Note_off_c, 0, 65, 100
2, 168672, Note_on_c, 0, 68, 80
2, 168764, Note_off_c, 0, 68, 100
2, 168768, Note_on_c, 0, 60, 80
2, 168860, Note_off_c, 0, 60, 100
2, 168864, Note_on_c, 0, 64, 80
2, 168956, Note_off_c, 0, 64, 100
2, 168960, Note_on_c, 0, 65, 80
2, 169052, Note_off_c, 0, 65, 100
2, 169056, Note_on_c, 0, 68, 80
2, 169148, Note_off_c, 0, 68, 100
2, 169152, Note_on_c, 0, 60, 80
2, 169244, Note_off_c, 0, 60, 100
2, 169248, Note_on_c, 0, 64, 80
2, 169340, Note_off_c, 0, 64, 100
2, 169344, Note_on_c, 0, 65, 80
2, 169436, Note_off_c, 0, 65, 100
2, 169440, Note_on_c, 0, 68, 80
2, 169532, Note_off_c, 0, 68, 100
2, 169536, Note_on_c, 0, 60, 80
2, 169628, Note_off_c, 0, 60, 100
2, 169632, Note_on_c, 0, 64, 80
2, 169724, Note_off_c, 0, 64, 100
2, 169728, Note_on_c, 0, 65, 80
2, 169820, Note_off_c, 0, 65, 100
2, 169824, Note_on_c, 0, 68, 80
2, 169916, Note_off_c, 0, 68, 100
2, 169920, Note_on_c, 0, 60, 80
2, 170012, Note_off_c, 0, 60, 100
2, 170016, Note_on_c, 0, 64, 80
2, 170108, Note_off_c, 0, 64, 100
2, 170112, Note_on_c, 0, 65, 80
2, 170204, Note_off_c, 0, 65, 100
2, 170208, Note_on_c, 0, 68, 80
2, 170300, Note_off_c, 0, 68, 100
2, 170304, Note_on_c, 0, 60, 80
2, 170396, Note_off_c, 0, 60, 100
2, 170400, Note_on_c, 0, 64, 80
2, 170492, Note_off_c, 0, 64, 100
2, 170496, Note_on_c, 0, 65, 80
2, 170588, Note_off_c, 0, 65, 100
2, 170592, Note_on_c, 0, 67, 80
2, 170684, Note_off_c, 0, 67, 100
2, 170688, Note_on_c, 0, 68, 80
2, 170780, Note_off_c, 0, 68, 100
2, 170784, Note_on_c, 0, 65, 80
2, 170876, Note_off_c, 0, 65, 100
2, 170880, Note_on_c, 0, 67, 80
2, 170972, Note_off_c, 0, 67, 100
2, 170976, Note_on_c, 0, 70, 80
2, 171068, Note_off_c, 0, 70, 100
2, 171072, Note_on_c, 0, 63, 80
2, 171164, Note_off_c, 0, 63, 100
2, 171168, Note_on_c, 0, 66, 80
2, 171260, Note_off_c, 0, 66, 100
2, 171264, Note_on_c, 0, 67, 80
2, 171356, Note_off_c, 0, 67, 100
2, 171360, Note_on_c, 0, 70, 80
2, 171452, Note_off_c, 0, 70, 100
2, 171456, Note_on_c, 0, 63, 80
2, 171548, Note_off_c, 0, 63, 100
2, 171552, Note_on_c, 0, 66, 80
2, 171644, Note_off_c, 0, 66, 100
2, 171648, Note_on_c, 0, 67, 80
2, 171740, Note_off_c, 0, 67, 100
2, 171744, Note_on_c, 0, 70, 80
2, 171836, Note_off_c, 0, 70, 100
2, 171840, Note_on_c, 0, 63, 80
2, 171932, Note_off_c, 0, 63, 100
2, 171936, Note_on_c, 0, 66, 80
2, 172028, Note_off_c, 0, 66, 100
2, 172032, Note_on_c, 0, 67, 80
2, 172124, Note_off_c, 0, 67, 100
2, 172128, Note_on_c, 0, 70, 80
2, 172220, Note_off_c, 0, 70, 100
2, 172224, Note_on_c, 0, 63, 80
2, 172316, Note_off_c, 0, 63, 100
2, 172320, Note_on_c, 0, 66, 80
2, 172412, Note_off_c, 0, 66, 100
2, 172416, Note_on_c, 0, 67, 80
2, 172508, Note_off_c, 0, 67, 100
2, 172512, Note_on_c, 0, 70, 80
2, 172604, Note_off_c, 0, 70, 100
2, 172608, Note_on_c, 0, 63, 80
2, 172700, Note_off_c, 0, 63, 100
2, 172704, Note_on_c, 0, 66, 80
2, 172796, Note_off_c, 0, 66, 100
2, 172800, Note_on_c, 0, 67, 80
2, 172892, Note_off_c, 0, 67, 100
2, 172896, Note_on_c, 0, 70, 80
2, 172988, Note_off_c, 0, 70, 100
2, 172992, Note_on_c, 0, 63, 80
2, 173084, Note_off_c, 0, 63, 100
2, 173088, Note_on_c, 0, 66, 80
2, 173180, Note_off_c, 0, 66, 100
2, 173184, Note_on_c, 0, 67, 80
2, 173276, Note_off_c, 0, 67, 100
2, 173280, Note_on_c, 0, 70, 80
2, 173372, Note_off_c, 0, 70, 100
2, 173376, Note_on_c, 0, 63, 80
2, 173468, Note_off_c, 0, 63, 100
2, 173472, Note_on_c, 0, 66, 80
2, 173564, Note_off_c, 0, 66, 100
2, 173568, Note_on_c, 0, 67, 80
2, 173660, Note_off_c, 0, 67, 100
2, 173664, Note_on_c, 0, 70, 80
2, 173756, Note_off_c, 0, 70, 100
2, 173760, Note_on_c, 0, 63, 80
2, 173852, Note_off_c, 0, 63, 100
2, 173856, Note_on_c, 0, 67, 80
2, 173948, Note_off_c, 0, 67, 100
2, 173952, Note_on_c, 0, 68, 80
2, 174044, Note_off_c, 0, 68, 100
2, 174048, Note_on_c, 0, 72, 80
2, 174140, Note_off_c, 0, 72, 100
2, 174144, Note_on_c, 0, 63, 80
2, 174236, Note_off_c, 0, 63, 100
2, 174240, Note_on_c, 0, 67, 80
2, 174332, Note_off_c, 0, 67, 100
2, 174336, Note_on_c, 0, 69, 80
2, 174428, Note_off_c, 0, 69, 100
2, 174432, Note_on_c, 0, 72, 80
2, 174524, Note_off_c, 0, 72, 100
2, 174528, Note_on_c, 0, 65, 80
2, 174620, Note_off_c, 0, 65, 100
2, 174624, Note_on_c, 0, 69, 80
2, 174716, Note_off_c, 0, 69, 100
2, 174720, Note_on_c, 0, 70, 80
2, 174812, Note_off_c, 0, 70, 100
2, 174816, Note_on_c, 0, 77, 80
2, 174908, Note_off_c, 0, 77, 100
2, 174912, Note_on_c, 0, 65, 80
2, 175004, Note_off_c, 0, 65, 100
2, 175008, Note_on_c, 0, 69, 80
2, 175100, Note_off_c, 0, 69, 100
2, 175104, Note_on_c, 0, 71, 80
2, 175196, Note_off_c, 0, 71, 100
2, 175200, Note_on_c, 0, 67, 80
2, 175292, Note_off_c, 0, 67, 100
2, 175296, Note_on_c, 0, 77, 80
2, 175388, Note_off_c, 0, 77, 100
2, 175392, Note_on_c, 0, 71, 80
2, 175484, Note_off_c, 0, 71, 100
2, 175488, Note_on_c, 0, 72, 80
2, 175868, Note_off_c, 0, 72, 100
2, 176064, Note_on_c, 0, 89, 80
2, 176252, Note_off_c, 0, 89, 100
2, 176256, Note_on_c, 0, 89, 80
2, 176444, Note_off_c, 0, 89, 100
2, 176448, Note_on_c, 0, 88, 80
2, 176636, Note_off_c, 0, 88, 100
2, 176832, Note_on_c, 0, 77, 80
2, 176832, Note_on_c, 0, 83, 80
2, 177020, Note_off_c, 0, 77, 100
2, 177020, Note_off_c, 0, 83, 100
2, 177024, Note_on_c, 0, 84, 80
2, 177024, Note_on_c, 0, 77, 80
2, 177212, Note_off_c, 0, 77, 100
2, 177216, Note_on_c, 0, 76, 80
2, 177404, Note_off_c, 0, 84, 100
2, 177404, Note_off_c, 0, 76, 100
2, 177600, Note_on_c, 0, 89, 101
2, 177788, Note_off_c, 0, 89, 100
2, 177792, Note_on_c, 0, 89, 80
2, 177884, Note_off_c, 0, 89, 100
2, 177888, Note_on_c, 0, 88, 80
2, 177980, Note_off_c, 0, 88, 100
2, 177984, Note_on_c, 0, 86, 80
2, 178076, Note_off_c, 0, 86, 100
2, 178080, Note_on_c, 0, 84, 80
2, 178172, Note_off_c, 0, 84, 100
2, 178368, Note_on_c, 0, 77, 100
2, 178368, Note_on_c, 0, 83, 100
2, 178556, Note_off_c, 0, 77, 100
2, 178556, Note_off_c, 0, 83, 100
2, 178560, Note_on_c, 0, 84, 80
2, 178560, Note_on_c, 0, 77, 80
2, 178652, Note_off_c, 0, 77, 100
2, 178656, Note_on_c, 0, 76, 80
2, 178748, Note_off_c, 0, 76, 100
2, 178752, Note_on_c, 0, 74, 80
2, 178844, Note_off_c, 0, 74, 100
2, 178848, Note_on_c, 0, 72, 80
2, 178940, Note_off_c, 0, 84, 100
2, 178940, Note_off_c, 0, 72, 100
2, 179136, Note_on_c, 0, 77, 100
2, 179136, Note_on_c, 0, 83, 100
2, 179324, Note_off_c, 0, 77, 100
2, 179324, Note_off_c, 0, 83, 100
2, 179328, Note_on_c, 0, 84, 80
2, 179328, Note_on_c, 0, 77, 80
2, 179420, Note_off_c, 0, 77, 100
2, 179424, Note_on_c, 0, 76, 80
2, 179516, Note_off_c, 0, 76, 100
2, 179520, Note_on_c, 0, 74, 80
2, 179612, Note_off_c, 0, 74, 100
2, 179616, Note_on_c, 0, 72, 80
2, 179708, Note_off_c, 0, 84, 100
2, 179708, Note_off_c, 0, 72, 100
2, 179904, Note_on_c, 0, 77, 100
2, 179904, Note_on_c, 0, 83, 100
2, 180092, Note_off_c, 0, 77, 100
2, 180092, Note_off_c, 0, 83, 100
2, 180096, Note_on_c, 0, 84, 80
2, 180096, Note_on_c, 0, 77, 80
2, 180188, Note_off_c, 0, 77, 100
2, 180192, Note_on_c, 0, 76, 80
2, 180284, Note_off_c, 0, 76, 100
2, 180288, Note_on_c, 0, 74, 80
2, 180380, Note_off_c, 0, 74, 100
2, 180384, Note_on_c, 0, 72, 80
2, 180476, Note_off_c, 0, 84, 100
2, 180476, Note_off_c, 0, 72, 100
2, 180480, Note_on_c, 0, 71, 80
2, 180572, Note_off_c, 0, 71, 100
2, 180576, Note_on_c, 0, 72, 80
2, 180668, Note_off_c, 0, 72, 100
2, 180672, Note_on_c, 0, 74, 80
2, 180764, Note_off_c, 0, 74, 100
2, 180768, Note_on_c, 0, 72, 80
2, 180860, Note_off_c, 0, 72, 100
2, 180864, Note_on_c, 0, 71, 80
2, 180956, Note_off_c, 0, 71, 100
2, 180960, Note_on_c, 0, 72, 80
2, 181052, Note_off_c, 0, 72, 100
2, 181056, Note_on_c, 0, 74, 80
2, 181148, Note_off_c, 0, 74, 100
2, 181152, Note_on_c, 0, 72, 80
2, 181244, Note_off_c, 0, 72, 100
2, 181248, Note_on_c, 0, 71, 80
2, 181340, Note_off_c, 0, 71, 100
2, 181344, Note_on_c, 0, 72, 80
2, 181436, Note_off_c, 0, 72, 100
2, 181440, Note_on_c, 0, 73, 80
2, 181532, Note_off_c, 0, 73, 100
2, 181536, Note_on_c, 0, 74, 80
2, 181628, Note_off_c, 0, 74, 100
2, 181632, Note_on_c, 0, 74, 80
2, 181820, Note_off_c, 0, 74, 100
2, 181824, Note_on_c, 0, 70, 80
2, 182012, Note_off_c, 0, 70, 100
2, 182016, Note_on_c, 0, 67, 80
2, 182204, Note_off_c, 0, 67, 100
2, 182208, Note_on_c, 0, 70, 80
2, 182256, Note_on_c, 0, 69, 80
2, 182300, Note_off_c, 0, 70, 100
2, 182304, Note_on_c, 0, 67, 80
2, 182348, Note_off_c, 0, 69, 100
2, 182352, Note_on_c, 0, 69, 80
2, 182396, Note_off_c, 0, 67, 100
2, 182396, Note_off_c, 0, 69, 100
2, 182400, Note_on_c, 0, 74, 80
2, 182588, Note_off_c, 0, 74, 100
2, 182592, Note_on_c, 0, 70, 80
2, 182780, Note_off_c, 0, 70, 100
2, 182784, Note_on_c, 0, 67, 80
2, 182972, Note_off_c, 0, 67, 100
2, 182976, Note_on_c, 0, 70, 80
2, 183024, Note_on_c, 0, 69, 80
2, 183068, Note_off_c, 0, 70, 100
2, 183072, Note_on_c, 0, 67, 80
2, 183116, Note_off_c, 0, 69, 100
2, 183120, Note_on_c, 0, 69, 80
2, 183164, Note_off_c, 0, 67, 100
2, 183164, Note_off_c, 0, 69, 100
2, 183168, Note_on_c, 0, 70, 80
2, 183168, Note_on_c, 0, 67, 80
2, 183168, Note_on_c, 0, 62, 80
2, 183356, Note_off_c, 0, 70, 100
2, 183356, Note_off_c, 0, 67, 100
2, 183356, Note_off_c, 0, 62, 100
2, 183552, Note_on_c, 0, 67, 80
2, 183552, Note_on_c, 0, 64, 80
2, 183552, Note_on_c, 0, 60, 80
2, 183740, Note_off_c, 0, 67, 100
2, 183740, Note_off_c, 0, 64, 100
2, 183740, Note_off_c, 0, 60, 100
2, 183936, Note_on_c, 0, 69, 80
2, 183936, Note_on_c, 0, 65, 80
2, 183936, Note_on_c, 0, 60, 80
2, 184316, Note_off_c, 0, 69, 100
2, 184316, Note_off_c, 0, 65, 100
2, 184316, Note_off_c, 0, 60, 100
2, 184560, Note_on_c, 0, 84, 120
2, 184608, Note_on_c, 0, 80, 120
2, 184652, Note_off_c, 0, 84, 100
2, 184656, Note_on_c, 0, 72, 120
2, 184700, Note_off_c, 0, 80, 100
2, 184748, Note_off_c, 0, 72, 100
2, 184752, Note_on_c, 0, 85, 120
2, 184800, Note_on_c, 0, 82, 120
2, 184844, Note_off_c, 0, 85, 100
2, 184848, Note_on_c, 0, 72, 120
2, 184892, Note_off_c, 0, 82, 100
2, 184940, Note_off_c, 0, 72, 100
2, 184944, Note_on_c, 0, 82, 120
2, 184992, Note_on_c, 0, 79, 120
2, 185036, Note_off_c, 0, 82, 100
2, 185040, Note_on_c, 0, 72, 120
2, 185084, Note_off_c, 0, 79, 100
2, 185132, Note_off_c, 0, 72, 100
2, 185136, Note_on_c, 0, 79, 120
2, 185184, Note_on_c, 0, 76, 120
2, 185228, Note_off_c, 0, 79, 100
2, 185232, Note_on_c, 0, 72, 120
2, 185276, Note_off_c, 0, 76, 100
2, 185324, Note_off_c, 0, 72, 100
2, 185328, Note_on_c, 0, 80, 120
2, 185376, Note_on_c, 0, 77, 120
2, 185420, Note_off_c, 0, 80, 100
2, 185424, Note_on_c, 0, 72, 120
2, 185468, Note_off_c, 0, 77, 100
2, 185516, Note_off_c, 0, 72, 100
2, 185520, Note_on_c, 0, 85, 120
2, 185568, Note_on_c, 0, 82, 120
2, 185612, Note_off_c, 0, 85, 100
2, 185616, Note_on_c, 0, 72, 120
2, 185660, Note_off_c, 0, 82, 100
2, 185708, Note_off_c, 0, 72, 100
2, 185712, Note_on_c, 0, 82, 120
2, 185760, Note_on_c, 0, 79, 120
2, 185804, Note_off_c, 0, 82, 100
2, 185808, Note_on_c, 0, 72, 120
2, 185852, Note_off_c, 0, 79, 100
2, 185900, Note_off_c, 0, 72, 100
2, 185904, Note_on_c, 0, 79, 120
2, 185952, Note_on_c, 0, 76, 120
2, 185996, Note_off_c, 0, 79, 100
2, 186000, Note_on_c, 0, 72, 120
2, 186044, Note_off_c, 0, 76, 100
2, 186092, Note_off_c, 0, 72, 100
2, 186096, Note_on_c, 0, 80, 120
2, 186144, Note_on_c, 0, 77, 120
2, 186188, Note_off_c, 0, 80, 100
2, 186192, Note_on_c, 0, 72, 120
2, 186236, Note_off_c, 0, 77, 100
2, 186236, Note_off_c, 0, 72, 100
2, 186240, Note_on_c, 0, 82, 110
2, 186240, Note_on_c, 0, 79, 110
2, 186240, Note_on_c, 0, 73, 110
2, 186428, Note_off_c, 0, 82, 100
2, 186428, Note_off_c, 0, 79, 100
2, 186428, Note_off_c, 0, 73, 100
2, 186624, Note_on_c, 0, 79, 110
2, 186624, Note_on_c, 0, 76, 110
2, 186624, Note_on_c, 0, 70, 110
2, 186812, Note_off_c, 0, 79, 100
2, 186812, Note_off_c, 0, 76, 100
2, 186812, Note_off_c, 0, 70, 100
2, 187008, Note_on_c, 0, 77, 110
2, 187008, Note_on_c, 0, 73, 110
2, 187008, Note_on_c, 0, 68, 110
2, 187196, Note_off_c, 0, 77, 100
2, 187196, Note_off_c, 0, 73, 100
2, 187196, Note_off_c, 0, 68, 100
2, 187776, Note_on_c, 0, 65, 70
2, 187776, Note_on_c, 0, 62, 70
2, 187776, Note_on_c, 0, 56, 70
2, 187964, Note_off_c, 0, 65, 100
2, 187964, Note_off_c, 0, 62, 100
2, 187964, Note_off_c, 0, 56, 100
2, 188640, Note_on_c, 0, 64, 80
2, 188640, Note_on_c, 0, 55, 80
2, 188828, Note_off_c, 0, 64, 100
2, 188828, Note_off_c, 0, 55, 100
2, 188832, Note_on_c, 0, 67, 82
2, 188832, Note_on_c, 0, 58, 82
2, 189020, Note_off_c, 0, 67, 100
2, 189020, Note_off_c, 0, 58, 100
2, 189024, Note_on_c, 0, 65, 84
2, 189024, Note_on_c, 0, 57, 84
2, 189212, Note_off_c, 0, 65, 100
2, 189212, Note_off_c, 0, 57, 100
2, 189216, Note_on_c, 0, 69, 86
2, 189216, Note_on_c, 0, 65, 86
2, 189404, Note_off_c, 0, 65, 100
2, 189404, Note_off_c, 0, 69, 100
2, 189408, Note_on_c, 0, 70, 88
2, 189408, Note_on_c, 0, 64, 88
2, 189596, Note_off_c, 0, 70, 100
2, 189596, Note_off_c, 0, 64, 100
2, 189600, Note_on_c, 0, 76, 90
2, 189600, Note_on_c, 0, 70, 90
2, 189788, Note_off_c, 0, 76, 100
2, 189788, Note_off_c, 0, 70, 100
2, 189792, Note_on_c, 0, 77, 92
2, 189792, Note_on_c, 0, 69, 92
2, 189980, Note_off_c, 0, 77, 100
2, 189980, Note_off_c, 0, 69, 100
2, 189984, Note_on_c, 0, 77, 94
2, 189984, Note_on_c, 0, 81, 94
2, 190172, Note_off_c, 0, 77, 100
2, 190172, Note_off_c, 0, 81, 100
2, 190176, Note_on_c, 0, 76, 96
2, 190176, Note_on_c, 0, 82, 96
2, 190364, Note_off_c, 0, 76, 100
2, 190364, Note_off_c, 0, 82, 100
2, 190368, Note_on_c, 0, 76, 98
2, 190368, Note_on_c, 0, 79, 98
2, 190368, Note_on_c, 0, 84, 98
2, 190556, Note_off_c, 0, 76, 100
2, 190556, Note_off_c, 0, 79, 100
2, 190556, Note_off_c, 0, 84, 100
2, 190560, Note_on_c, 0, 77, 100
2, 190560, Note_on_c, 0, 81, 100
2, 190560, Note_on_c, 0, 84, 100
2, 190748, Note_off_c, 0, 77, 100
2, 190748, Note_off_c, 0, 81, 100
2, 190748, Note_off_c, 0, 84, 100
2, 190752, Note_on_c, 0, 81, 102
2, 190752, Note_on_c, 0, 84, 102
2, 190752, Note_on_c, 0, 89, 102
2, 190940, Note_off_c, 0, 81, 100
2, 190940, Note_off_c, 0, 84, 100
2, 190940, Note_off_c, 0, 89, 100
2, 190944, Note_on_c, 0, 79, 104
2, 190944, Note_on_c, 0, 84, 104
2, 190944, Note_on_c, 0, 88, 104
2, 191132, Note_off_c, 0, 79, 100
2, 191132, Note_off_c, 0, 84, 100
2, 191132, Note_off_c, 0, 88, 100
2, 191136, Note_on_c, 0, 76, 106
2, 191136, Note_on_c, 0, 79, 106
2, 191136, Note_on_c, 0, 84, 106
2, 191324, Note_off_c, 0, 76, 100
2, 191324, Note_off_c, 0, 79, 100
2, 191324, Note_off_c, 0, 84, 100
2, 191328, Note_on_c, 0, 77, 108
2, 191328, Note_on_c, 0, 81, 108
2, 191328, Note_on_c, 0, 84, 108
2, 191516, Note_off_c, 0, 77, 100
2, 191516, Note_off_c, 0, 81, 100
2, 191516, Note_off_c, 0, 84, 100
2, 191520, Note_on_c, 0, 81, 109
2, 191520, Note_on_c, 0, 84, 109
2, 191520, Note_on_c, 0, 89, 109
2, 191612, Note_off_c, 0, 81, 100
2, 191612, Note_off_c, 0, 84, 100
2, 191612, Note_off_c, 0, 89, 100
2, 191808, Note_on_c, 0, 86, 110
2, 191868, Note_off_c, 0, 86, 100
2, 191872, Note_on_c, 0, 85, 110
2, 191932, Note_off_c, 0, 85, 100
2, 191936, Note_on_c, 0, 88, 110
2, 191996, Note_off_c, 0, 88, 100
2, 192000, Note_on_c, 0, 86, 110
2, 192188, Note_off_c, 0, 86, 100
2, 192192, Note_on_c, 0, 82, 110
2, 192252, Note_off_c, 0, 82, 100
2, 192256, Note_on_c, 0, 81, 110
2, 192316, Note_off_c, 0, 81, 100
2, 192320, Note_on_c, 0, 84, 110
2, 192380, Note_off_c, 0, 84, 100
2, 192384, Note_on_c, 0, 82, 110
2, 192572, Note_off_c, 0, 82, 100
2, 192576, Note_on_c, 0, 79, 110
2, 192636, Note_off_c, 0, 79, 100
2, 192640, Note_on_c, 0, 78, 110
2, 192700, Note_off_c, 0, 78, 100
2, 192704, Note_on_c, 0, 81, 110
2, 192764, Note_off_c, 0, 81, 100
2, 192768, Note_on_c, 0, 79, 110
2, 192956, Note_off_c, 0, 79, 100
2, 192960, Note_on_c, 0, 74, 110
2, 193020, Note_off_c, 0, 74, 100
2, 193024, Note_on_c, 0, 73, 110
2, 193084, Note_off_c, 0, 73, 100
2, 193088, Note_on_c, 0, 76, 110
2, 193148, Note_off_c, 0, 76, 100
2, 193152, Note_on_c, 0, 74, 110
2, 193340, Note_off_c, 0, 74, 100
2, 193344, Note_on_c, 0, 67, 110
2, 193724, Note_off_c, 0, 67, 100
2, 193728, Note_on_c, 0, 69, 110
2, 193820, Note_off_c, 0, 69, 100
2, 193824, Note_on_c, 0, 70, 110
2, 193916, Note_off_c, 0, 70, 100
2, 193920, Note_on_c, 0, 72, 110
2, 194364, Note_off_c, 0, 72, 100
2, 194368, Note_on_c, 0, 74, 110
2, 194428, Note_off_c, 0, 74, 100
2, 194432, Note_on_c, 0, 72, 110
2, 194492, Note_off_c, 0, 72, 100
2, 194496, Note_on_c, 0, 70, 110
2, 194556, Note_off_c, 0, 70, 100
2, 194560, Note_on_c, 0, 69, 110
2, 194620, Note_off_c, 0, 69, 100
2, 194624, Note_on_c, 0, 67, 110
2, 194684, Note_off_c, 0, 67, 100
2, 194688, Note_on_c, 0, 65, 110
2, 194876, Note_off_c, 0, 65, 100
2, 194880, Note_on_c, 0, 79, 120
2, 194880, Note_on_c, 0, 77, 120
2, 195260, Note_off_c, 0, 79, 100
2, 195264, Note_on_c, 0, 81, 120
2, 195356, Note_off_c, 0, 81, 100
2, 195360, Note_on_c, 0, 83, 120
2, 195452, Note_off_c, 0, 77, 100
2, 195452, Note_off_c, 0, 83, 100
2, 195456, Note_on_c, 0, 84, 120
2, 195884, Note_off_c, 0, 84, 100
2, 195888, Note_on_c, 0, 86, 110
2, 195932, Note_off_c, 0, 86, 100
2, 195936, Note_on_c, 0, 84, 109
2, 195980, Note_off_c, 0, 84, 100
2, 195984, Note_on_c, 0, 83, 108
2, 196028, Note_off_c, 0, 83, 100
2, 196032, Note_on_c, 0, 84, 108
2, 196092, Note_off_c, 0, 84, 100
2, 196096, Note_on_c, 0, 86, 107
2, 196156, Note_off_c, 0, 86, 100
2, 196160, Note_on_c, 0, 88, 106
2, 196220, Note_off_c, 0, 88, 100
2, 196224, Note_on_c, 0, 89, 105
2, 196412, Note_off_c, 0, 89, 100
2, 196608, Note_on_c, 0, 72, 80
2, 196608, Note_on_c, 0, 84, 80
2, 196796, Note_off_c, 0, 72, 100
2, 196796, Note_off_c, 0, 84, 100
2, 196800, Note_on_c, 0, 84, 80
2, 196800, Note_on_c, 0, 72, 80
2, 196988, Note_off_c, 0, 84, 100
2, 196988, Note_off_c, 0, 72, 100
2, 196992, Note_on_c, 0, 81, 80
2, 196992, Note_on_c, 0, 69, 80
2, 197180, Note_off_c, 0, 81, 100
2, 197180, Note_off_c, 0, 69, 100
2, 197376, Note_on_c, 0, 77, 80
2, 197376, Note_on_c, 0, 89, 80
2, 197564, Note_off_c, 0, 77, 100
2, 197564, Note_off_c, 0, 89, 100
2, 197568, Note_on_c, 0, 77, 80
2, 197568, Note_on_c, 0, 89, 80
2, 197756, Note_off_c, 0, 77, 100
2, 197756, Note_off_c, 0, 89, 100
2, 197760, Note_on_c, 0, 86, 80
2, 197760, Note_on_c, 0, 74, 80
2, 197948, Note_off_c, 0, 86, 100
2, 197948, Note_off_c, 0, 74, 100
2, 198144, Note_on_c, 0, 47, 100
2, 198332, Note_off_c, 0, 47, 100
2, 198336, Note_on_c, 0, 47, 100
2, 198524, Note_off_c, 0, 47, 100
2, 198528, Note_on_c, 0, 47, 100
2, 198576, Note_on_c, 0, 48, 100
2, 198620, Note_off_c, 0, 47, 100
2, 198624, Note_on_c, 0, 50, 100
2, 198668, Note_off_c, 0, 48, 100
2, 198672, Note_on_c, 0, 48, 100
2, 198716, Note_off_c, 0, 50, 100
2, 198720, Note_on_c, 0, 50, 100
2, 198764, Note_off_c, 0, 48, 100
2, 198768, Note_on_c, 0, 48, 100
2, 198812, Note_off_c, 0, 50, 100
2, 198816, Note_on_c, 0, 50, 100
2, 198860, Note_off_c, 0, 48, 100
2, 198864, Note_on_c, 0, 48, 100
2, 198908, Note_off_c, 0, 50, 100
2, 198912, Note_on_c, 0, 50, 100
2, 198956, Note_off_c, 0, 48, 100
2, 198960, Note_on_c, 0, 48, 100
2, 199004, Note_off_c, 0, 50, 100
2, 199008, Note_on_c, 0, 50, 100
2, 199052, Note_off_c, 0, 48, 100
2, 199056, Note_on_c, 0, 48, 100
2, 199100, Note_off_c, 0, 50, 100
2, 199104, Note_on_c, 0, 50, 100
2, 199148, Note_off_c, 0, 48, 100
2, 199152, Note_on_c, 0, 48, 100
2, 199196, Note_off_c, 0, 50, 100
2, 199200, Note_on_c, 0, 47, 100
2, 199244, Note_off_c, 0, 48, 100
2, 199248, Note_on_c, 0, 48, 100
2, 199292, Note_off_c, 0, 47, 100
2, 199292, Note_off_c, 0, 48, 100
2, 199296, Note_on_c, 0, 41, 100
2, 199676, Note_off_c, 0, 41, 100
2, 199680, Note_on_c, 0, 72, 80
2, 199724, Note_off_c, 0, 72, 100
2, 199728, Note_on_c, 0, 84, 80
2, 199868, Note_off_c, 0, 84, 100
2, 199872, Note_on_c, 0, 72, 80
2, 199916, Note_off_c, 0, 72, 100
2, 199920, Note_on_c, 0, 84, 80
2, 200060, Note_off_c, 0, 84, 100
2, 200064, Note_on_c, 0, 69, 80
2, 200108, Note_off_c, 0, 69, 100
2, 200112, Note_on_c, 0, 81, 80
2, 200252, Note_off_c, 0, 81, 100
2, 200448, Note_on_c, 0, 77, 80
2, 200492, Note_off_c, 0, 77, 100
2, 200496, Note_on_c, 0, 89, 80
2, 200636, Note_off_c, 0, 89, 100
2, 200640, Note_on_c, 0, 77, 80
2, 200684, Note_off_c, 0, 77, 100
2, 200688, Note_on_c, 0, 89, 80
2, 200828, Note_off_c, 0, 89, 100
2, 200832, Note_on_c, 0, 74, 80
2, 200876, Note_off_c, 0, 74, 100
2, 200880, Note_on_c, 0, 86, 80
2, 201020, Note_off_c, 0, 86, 100
2, 201216, Note_on_c, 0, 47, 100
2, 201404, Note_off_c, 0, 47, 100
2, 201408, Note_on_c, 0, 47, 100
2, 201596, Note_off_c, 0, 47, 100
2, 201600, Note_on_c, 0, 47, 100
2, 201648, Note_on_c, 0, 48, 100
2, 201692, Note_off_c, 0, 47, 100
2, 201696, Note_on_c, 0, 50, 100
2, 201740, Note_off_c, 0, 48, 100
2, 201744, Note_on_c, 0, 48, 100
2, 201788, Note_off_c, 0, 50, 100
2, 201792, Note_on_c, 0, 50, 100
2, 201836, Note_off_c, 0, 48, 100
2, 201840, Note_on_c, 0, 48, 100
2, 201884, Note_off_c, 0, 50, 100
2, 201888, Note_on_c, 0, 50, 100
2, 201932, Note_off_c, 0, 48, 100
2, 201936, Note_on_c, 0, 48, 100
2, 201980, Note_off_c, 0, 50, 100
2, 201984, Note_on_c, 0, 50, 100
2, 202028, Note_off_c, 0, 48, 100
2, 202032, Note_on_c, 0, 48, 100
2, 202076, Note_off_c, 0, 50, 100
2, 202080, Note_on_c, 0, 50, 100
2, 202124, Note_off_c, 0, 48, 100
2, 202128, Note_on_c, 0, 48, 100
2, 202172, Note_off_c, 0, 50, 100
2, 202176, Note_on_c, 0, 50, 100
2, 202220, Note_off_c, 0, 48, 100
2, 202224, Note_on_c, 0, 48, 100
2, 202268, Note_off_c, 0, 50, 100
2, 202272, Note_on_c, 0, 47, 100
2, 202316, Note_off_c, 0, 48, 100
2, 202320, Note_on_c, 0, 48, 100
2, 202364, Note_off_c, 0, 47, 100
2, 202364, Note_off_c, 0, 48, 100
2, 202368, Note_on_c, 0, 41, 100
2, 202748, Note_off_c, 0, 41, 100
2, 202752, Note_on_c, 0, 83, 120
2, 202940, Note_off_c, 0, 83, 100
2, 202944, Note_on_c, 0, 83, 120
2, 203132, Note_off_c, 0, 83, 100
2, 203136, Note_on_c, 0, 83, 120
2, 203184, Note_on_c, 0, 84, 120
2, 203228, Note_off_c, 0, 83, 100
2, 203232, Note_on_c, 0, 86, 120
2, 203276, Note_off_c, 0, 84, 100
2, 203280, Note_on_c, 0, 84, 121
2, 203324, Note_off_c, 0, 86, 100
2, 203328, Note_on_c, 0, 86, 121
2, 203372, Note_off_c, 0, 84, 100
2, 203376, Note_on_c, 0, 84, 121
2, 203420, Note_off_c, 0, 86, 100
2, 203424, Note_on_c, 0, 86, 121
2, 203468, Note_off_c, 0, 84, 100
2, 203472, Note_on_c, 0, 84, 121
2, 203516, Note_off_c, 0, 86, 100
2, 203520, Note_on_c, 0, 86, 121
2, 203564, Note_off_c, 0, 84, 100
2, 203568, Note_on_c, 0, 84, 121
2, 203612, Note_off_c, 0, 86, 100
2, 203616, Note_on_c, 0, 86, 121
2, 203660, Note_off_c, 0, 84, 100
2, 203664, Note_on_c, 0, 84, 121
2, 203708, Note_off_c, 0, 86, 100
2, 203712, Note_on_c, 0, 86, 121
2, 203756, Note_off_c, 0, 84, 100
2, 203760, Note_on_c, 0, 84, 121
2, 203804, Note_off_c, 0, 86, 100
2, 203808, Note_on_c, 0, 83, 122
2, 203852, Note_off_c, 0, 84, 100
2, 203856, Note_on_c, 0, 84, 122
2, 203900, Note_off_c, 0, 83, 100
2, 203900, Note_off_c, 0, 84, 100
2, 203904, Note_on_c, 0, 77, 122
2, 203904, Note_on_c, 0, 89, 122
2, 204284, Note_off_c, 0, 77, 100
2, 204284, Note_off_c, 0, 89, 100
2, 204288, Note_on_c, 0, 71, 122
2, 204476, Note_off_c, 0, 71, 100
2, 204480, Note_on_c, 0, 71, 123
2, 204668, Note_off_c, 0, 71, 100
2, 204672, Note_on_c, 0, 71, 123
2, 204720, Note_on_c, 0, 72, 123
2, 204764, Note_off_c, 0, 71, 100
2, 204768, Note_on_c, 0, 74, 123
2, 204812, Note_off_c, 0, 72, 100
2, 204816, Note_on_c, 0, 72, 123
2, 204860, Note_off_c, 0, 74, 100
2, 204864, Note_on_c, 0, 74, 123
2, 204908, Note_off_c, 0, 72, 100
2, 204912, Note_on_c, 0, 72, 124
2, 204956, Note_off_c, 0, 74, 100
2, 204960, Note_on_c, 0, 74, 124
2, 205004, Note_off_c, 0, 72, 100
2, 205008, Note_on_c, 0, 72, 124
2, 205052, Note_off_c, 0, 74, 100
2, 205056, Note_on_c, 0, 74, 124
2, 205100, Note_off_c, 0, 72, 100
2, 205104, Note_on_c, 0, 72, 124
2, 205148, Note_off_c, 0, 74, 100
2, 205152, Note_on_c, 0, 74, 124
2, 205196, Note_off_c, 0, 72, 100
2, 205200, Note_on_c, 0, 72, 124
2, 205244, Note_off_c, 0, 74, 100
2, 205248, Note_on_c, 0, 74, 124
2, 205292, Note_off_c, 0, 72, 100
2, 205296, Note_on_c, 0, 72, 124
2, 205340, Note_off_c, 0, 74, 100
2, 205344, Note_on_c, 0, 71, 124
2, 205388, Note_off_c, 0, 72, 100
2, 205392, Note_on_c, 0, 72, 124
2, 205436, Note_off_c, 0, 71, 100
2, 205436, Note_off_c, 0, 72, 100
2, 205440, Note_on_c, 0, 65, 120
2, 205440, Note_on_c, 0, 77, 120
2, 205628, Note_off_c, 0, 65, 100
2, 205628, Note_off_c, 0, 77, 100
2, 205824, Note_on_c, 0, 72, 120
2, 205824, Note_on_c, 0, 60, 120
2, 206012, Note_off_c, 0, 72, 100
2, 206012, Note_off_c, 0, 60, 100
2, 206208, Note_on_c, 0, 65, 120
2, 206208, Note_on_c, 0, 53, 120
2, 206588, Note_off_c, 0, 65, 100
2, 206588, Note_off_c, 0, 53, 100
2, 206976, Control_c, 0, 7, 0
2, 207168, Note_on_c, 0, 65, 1
2, 207356, Note_off_c, 0, 65, 100
2, 207356, End_track
3, 0, Start_track
3, 0, Title_t, "Left"
3, 0, Control_c, 1, 0, 0
3, 0, Program_c, 1, 0
3, 0, Control_c, 1, 7, 100
3, 0, Control_c, 1, 10, 58
3, 0, Control_c, 1, 91, 127
3, 0, Key_signature, -1, "major"
3, 192, Note_on_c, 1, 53, 80
3, 192, Note_on_c, 1, 48, 80
3, 192, Note_on_c, 1, 41, 80
3, 380, Note_off_c, 1, 53, 100
3, 380, Note_off_c, 1, 48, 100
3, 380, Note_off_c, 1, 41, 100
3, 384, Note_on_c, 1, 53, 80
3, 384, Note_on_c, 1, 48, 80
3, 384, Note_on_c, 1, 41, 80
3, 764, Note_off_c, 1, 53, 100
3, 764, Note_off_c, 1, 48, 100
3, 764, Note_off_c, 1, 41, 100
3, 1728, Note_on_c, 1, 53, 80
3, 1728, Note_on_c, 1, 48, 80
3, 1728, Note_on_c, 1, 41, 80
3, 1916, Note_off_c, 1, 53, 100
3, 1916, Note_off_c, 1, 48, 100
3, 1916, Note_off_c, 1, 41, 100
3, 1920, Note_on_c, 1, 52, 80
3, 1920, Note_on_c, 1, 48, 80
3, 1920, Note_on_c, 1, 40, 80
3, 2300, Note_off_c, 1, 52, 100
3, 2300, Note_off_c, 1, 48, 100
3, 2300, Note_off_c, 1, 40, 100
3, 3456, Note_on_c, 1, 60, 80
3, 3456, Note_on_c, 1, 57, 80
3, 3456, Note_on_c, 1, 53, 80
3, 3836, Note_off_c, 1, 60, 100
3, 3836, Note_off_c, 1, 57, 100
3, 3836, Note_off_c, 1, 53, 100
3, 3840, Note_on_c, 1, 60, 87
3, 3840, Note_on_c, 1, 58, 87
3, 3840, Note_on_c, 1, 55, 87
3, 4220, Note_off_c, 1, 60, 100
3, 4220, Note_off_c, 1, 58, 100
3, 4220, Note_off_c, 1, 55, 100
3, 4224, Note_on_c, 1, 60, 95
3, 4224, Note_on_c, 1, 57, 95
3, 4224, Note_on_c, 1, 65, 95
3, 4604, Note_off_c, 1, 60, 100
3, 4604, Note_off_c, 1, 57, 100
3, 4604, Note_off_c, 1, 65, 100
3, 4608, Note_on_c, 1, 67, 90
3, 4608, Note_on_c, 1, 65, 90
3, 4608, Note_on_c, 1, 62, 90
3, 4608, Note_on_c, 1, 58, 90
3, 4988, Note_off_c, 1, 67, 100
3, 4988, Note_off_c, 1, 65, 100
3, 4988, Note_off_c, 1, 62, 100
3, 4988, Note_off_c, 1, 58, 100
3, 4992, Note_on_c, 1, 69, 90
3, 4992, Note_on_c, 1, 65, 90
3, 4992, Note_on_c, 1, 60, 90
3, 5372, Note_off_c, 1, 69, 100
3, 5372, Note_off_c, 1, 65, 100
3, 5372, Note_off_c, 1, 60, 100
3, 5376, Note_on_c, 1, 63, 80
3, 5376, Note_on_c, 1, 65, 80
3, 5376, Note_on_c, 1, 69, 80
3, 5376, Note_on_c, 1, 72, 80
3, 5756, Note_off_c, 1, 63, 100
3, 5756, Note_off_c, 1, 65, 100
3, 5756, Note_off_c, 1, 69, 100
3, 5756, Note_off_c, 1, 72, 100
3, 5760, Note_on_c, 1, 70, 80
3, 5760, Note_on_c, 1, 65, 80
3, 5760, Note_on_c, 1, 62, 80
3, 6140, Note_off_c, 1, 70, 100
3, 6140, Note_off_c, 1, 65, 100
3, 6140, Note_off_c, 1, 62, 100
3, 6528, Note_on_c, 1, 62, 80
3, 6528, Note_on_c, 1, 65, 80
3, 6528, Note_on_c, 1, 70, 80
3, 6908, Note_off_c, 1, 62, 100
3, 6908, Note_off_c, 1, 65, 100
3, 6908, Note_off_c, 1, 70, 100
3, 6912, Note_on_c, 1, 64, 80
3, 6912, Note_on_c, 1, 67, 80
3, 6912, Note_on_c, 1, 72, 80
3, 7292, Note_off_c, 1, 64, 100
3, 7292, Note_off_c, 1, 67, 100
3, 7292, Note_off_c, 1, 72, 100
3, 7296, Note_on_c, 1, 65, 80
3, 7296, Note_on_c, 1, 69, 80
3, 7296, Note_on_c, 1, 72, 80
3, 7676, Note_off_c, 1, 65, 100
3, 7676, Note_off_c, 1, 69, 100
3, 7676, Note_off_c, 1, 72, 100
3, 7680, Note_on_c, 1, 58, 80
3, 7680, Note_on_c, 1, 62, 80
3, 7680, Note_on_c, 1, 67, 80
3, 8060, Note_off_c, 1, 58, 100
3, 8060, Note_off_c, 1, 62, 100
3, 8060, Note_off_c, 1, 67, 100
3, 8064, Note_on_c, 1, 60, 80
3, 8064, Note_on_c, 1, 65, 80
3, 8064, Note_on_c, 1, 69, 80
3, 8444, Note_off_c, 1, 60, 100
3, 8444, Note_off_c, 1, 65, 100
3, 8444, Note_off_c, 1, 69, 100
3, 8448, Note_on_c, 1, 60, 80
3, 8448, Note_on_c, 1, 67, 80
3, 8448, Note_on_c, 1, 70, 80
3, 8828, Note_off_c, 1, 60, 100
3, 8828, Note_off_c, 1, 67, 100
3, 8828, Note_off_c, 1, 70, 100
3, 8832, Note_on_c, 1, 65, 80
3, 8832, Note_on_c, 1, 69, 80
3, 9212, Note_off_c, 1, 65, 100
3, 9212, Note_off_c, 1, 69, 100
3, 9408, Note_on_c, 1, 48, 80
3, 9408, Note_on_c, 1, 41, 80
3, 9408, Note_on_c, 1, 53, 80
3, 9596, Note_off_c, 1, 48, 100
3, 9596, Note_off_c, 1, 41, 100
3, 9596, Note_off_c, 1, 53, 100
3, 9600, Note_on_c, 1, 53, 80
3, 9600, Note_on_c, 1, 48, 80
3, 9600, Note_on_c, 1, 41, 80
3, 9980, Note_off_c, 1, 53, 100
3, 9980, Note_off_c, 1, 48, 100
3, 9980, Note_off_c, 1, 41, 100
3, 10944, Note_on_c, 1, 51, 80
3, 10944, Note_on_c, 1, 48, 80
3, 10944, Note_on_c, 1, 41, 80
3, 11132, Note_off_c, 1, 51, 100
3, 11132, Note_off_c, 1, 48, 100
3, 11132, Note_off_c, 1, 41, 100
3, 11136, Note_on_c, 1, 51, 80
3, 11136, Note_on_c, 1, 48, 80
3, 11136, Note_on_c, 1, 41, 80
3, 11516, Note_off_c, 1, 51, 100
3, 11516, Note_off_c, 1, 48, 100
3, 11516, Note_off_c, 1, 41, 100
3, 12480, Note_on_c, 1, 57, 110
3, 12480, Note_on_c, 1, 53, 110
3, 12540, Note_off_c, 1, 57, 100
3, 12544, Note_on_c, 1, 59, 110
3, 12604, Note_off_c, 1, 59, 100
3, 12608, Note_on_c, 1, 60, 110
3, 12668, Note_off_c, 1, 53, 100
3, 12668, Note_off_c, 1, 60, 100
3, 12672, Note_on_c, 1, 56, 110
3, 12672, Note_on_c, 1, 52, 110
3, 12860, Note_off_c, 1, 56, 100
3, 12860, Note_off_c, 1, 52, 100
3, 12864, Note_on_c, 1, 57, 110
3, 12864, Note_on_c, 1, 53, 110
3, 12924, Note_off_c, 1, 57, 100
3, 12928, Note_on_c, 1, 59, 110
3, 12988, Note_off_c, 1, 59, 100
3, 12992, Note_on_c, 1, 60, 110
3, 13052, Note_off_c, 1, 53, 100
3, 13052, Note_off_c, 1, 60, 100
3, 13056, Note_on_c, 1, 56, 110
3, 13056, Note_on_c, 1, 52, 110
3, 13244, Note_off_c, 1, 56, 100
3, 13244, Note_off_c, 1, 52, 100
3, 13248, Note_on_c, 1, 57, 110
3, 13248, Note_on_c, 1, 53, 110
3, 13308, Note_off_c, 1, 57, 100
3, 13312, Note_on_c, 1, 59, 110
3, 13372, Note_off_c, 1, 59, 100
3, 13376, Note_on_c, 1, 60, 110
3, 13436, Note_off_c, 1, 53, 100
3, 13436, Note_off_c, 1, 60, 100
3, 13440, Note_on_c, 1, 56, 110
3, 13440, Note_on_c, 1, 52, 110
3, 13820, Note_off_c, 1, 56, 100
3, 13820, Note_off_c, 1, 52, 100
3, 14016, Note_on_c, 1, 43, 80
3, 14108, Note_off_c, 1, 43, 100
3, 14112, Note_on_c, 1, 47, 80
3, 14204, Note_off_c, 1, 47, 100
3, 14208, Note_on_c, 1, 48, 80
3, 14300, Note_off_c, 1, 48, 100
3, 14304, Note_on_c, 1, 52, 81
3, 14396, Note_off_c, 1, 52, 100
3, 14400, Note_on_c, 1, 43, 82
3, 14492, Note_off_c, 1, 43, 100
3, 14496, Note_on_c, 1, 47, 83
3, 14588, Note_off_c, 1, 47, 100
3, 14592, Note_on_c, 1, 48, 84
3, 14684, Note_off_c, 1, 48, 100
3, 14688, Note_on_c, 1, 52, 85
3, 14780, Note_off_c, 1, 52, 100
3, 14784, Note_on_c, 1, 43, 87
3, 14876, Note_off_c, 1, 43, 100
3, 14880, Note_on_c, 1, 47, 88
3, 14972, Note_off_c, 1, 47, 100
3, 14976, Note_on_c, 1, 48, 89
3, 15068, Note_off_c, 1, 48, 100
3, 15072, Note_on_c, 1, 52, 90
3, 15164, Note_off_c, 1, 52, 100
3, 15168, Note_on_c, 1, 43, 91
3, 15260, Note_off_c, 1, 43, 100
3, 15264, Note_on_c, 1, 47, 92
3, 15356, Note_off_c, 1, 47, 100
3, 15360, Note_on_c, 1, 48, 94
3, 15452, Note_off_c, 1, 48, 100
3, 15456, Note_on_c, 1, 52, 95
3, 15548, Note_off_c, 1, 52, 100
3, 15552, Note_on_c, 1, 43, 96
3, 15644, Note_off_c, 1, 43, 100
3, 15648, Note_on_c, 1, 47, 97
3, 15740, Note_off_c, 1, 47, 100
3, 15744, Note_on_c, 1, 48, 98
3, 15836, Note_off_c, 1, 48, 100
3, 15840, Note_on_c, 1, 52, 99
3, 15932, Note_off_c, 1, 52, 100
3, 15936, Note_on_c, 1, 43, 110
3, 16028, Note_off_c, 1, 43, 100
3, 16032, Note_on_c, 1, 47, 110
3, 16124, Note_off_c, 1, 47, 100
3, 16128, Note_on_c, 1, 48, 110
3, 16220, Note_off_c, 1, 48, 100
3, 16224, Note_on_c, 1, 52, 110
3, 16316, Note_off_c, 1, 52, 100
3, 16320, Note_on_c, 1, 43, 110
3, 16412, Note_off_c, 1, 43, 100
3, 16416, Note_on_c, 1, 48, 100
3, 16508, Note_off_c, 1, 48, 100
3, 16512, Note_on_c, 1, 50, 98
3, 16604, Note_off_c, 1, 50, 100
3, 16608, Note_on_c, 1, 53, 96
3, 16700, Note_off_c, 1, 53, 100
3, 16704, Note_on_c, 1, 43, 93
3, 16796, Note_off_c, 1, 43, 100
3, 16800, Note_on_c, 1, 49, 91
3, 16892, Note_off_c, 1, 49, 100
3, 16896, Note_on_c, 1, 50, 88
3, 16988, Note_off_c, 1, 50, 100
3, 16992, Note_on_c, 1, 53, 86
3, 17084, Note_off_c, 1, 53, 100
3, 17088, Note_on_c, 1, 43, 83
3, 17180, Note_off_c, 1, 43, 100
3, 17184, Note_on_c, 1, 49, 81
3, 17276, Note_off_c, 1, 49, 100
3, 17280, Note_on_c, 1, 50, 80
3, 17372, Note_off_c, 1, 50, 100
3, 17376, Note_on_c, 1, 53, 81
3, 17468, Note_off_c, 1, 53, 100
3, 17472, Note_on_c, 1, 43, 82
3, 17564, Note_off_c, 1, 43, 100
3, 17568, Note_on_c, 1, 49, 83
3, 17660, Note_off_c, 1, 49, 100
3, 17664, Note_on_c, 1, 50, 84
3, 17756, Note_off_c, 1, 50, 100
3, 17760, Note_on_c, 1, 53, 85
3, 17852, Note_off_c, 1, 53, 100
3, 17856, Note_on_c, 1, 43, 87
3, 17948, Note_off_c, 1, 43, 100
3, 17952, Note_on_c, 1, 49, 88
3, 18044, Note_off_c, 1, 49, 100
3, 18048, Note_on_c, 1, 50, 89
3, 18140, Note_off_c, 1, 50, 100
3, 18144, Note_on_c, 1, 53, 90
3, 18236, Note_off_c, 1, 53, 100
3, 18240, Note_on_c, 1, 43, 91
3, 18332, Note_off_c, 1, 43, 100
3, 18336, Note_on_c, 1, 49, 92
3, 18428, Note_off_c, 1, 49, 100
3, 18432, Note_on_c, 1, 50, 94
3, 18524, Note_off_c, 1, 50, 100
3, 18528, Note_on_c, 1, 53, 95
3, 18620, Note_off_c, 1, 53, 100
3, 18624, Note_on_c, 1, 43, 96
3, 18716, Note_off_c, 1, 43, 100
3, 18720, Note_on_c, 1, 49, 97
3, 18812, Note_off_c, 1, 49, 100
3, 18816, Note_on_c, 1, 50, 98
3, 18908, Note_off_c, 1, 50, 100
3, 18912, Note_on_c, 1, 53, 99
3, 19004, Note_off_c, 1, 53, 100
3, 19008, Note_on_c, 1, 43, 110
3, 19100, Note_off_c, 1, 43, 100
3, 19104, Note_on_c, 1, 49, 110
3, 19196, Note_off_c, 1, 49, 100
3, 19200, Note_on_c, 1, 50, 110
3, 19292, Note_off_c, 1, 50, 100
3, 19296, Note_on_c, 1, 53, 110
3, 19388, Note_off_c, 1, 53, 100
3, 19392, Note_on_c, 1, 43, 110
3, 19484, Note_off_c, 1, 43, 100
3, 19488, Note_on_c, 1, 50, 110
3, 19580, Note_off_c, 1, 50, 100
3, 19584, Note_on_c, 1, 52, 100
3, 19676, Note_off_c, 1, 52, 100
3, 19680, Note_on_c, 1, 55, 98
3, 19772, Note_off_c, 1, 55, 100
3, 19776, Note_on_c, 1, 48, 95
3, 19868, Note_off_c, 1, 48, 100
3, 19872, Note_on_c, 1, 51, 92
3, 19964, Note_off_c, 1, 51, 100
3, 19968, Note_on_c, 1, 52, 89
3, 20060, Note_off_c, 1, 52, 100
3, 20064, Note_on_c, 1, 55, 86
3, 20156, Note_off_c, 1, 55, 100
3, 20160, Note_on_c, 1, 52, 83
3, 20252, Note_off_c, 1, 52, 100
3, 20256, Note_on_c, 1, 50, 81
3, 20348, Note_off_c, 1, 50, 100
3, 20352, Note_on_c, 1, 48, 120
3, 20444, Note_off_c, 1, 48, 100
3, 20448, Note_on_c, 1, 60, 120
3, 20540, Note_off_c, 1, 60, 100
3, 20544, Note_on_c, 1, 64, 120
3, 20636, Note_off_c, 1, 64, 100
3, 20640, Note_on_c, 1, 62, 120
3, 20732, Note_off_c, 1, 62, 100
3, 20736, Note_on_c, 1, 60, 120
3, 20828, Note_off_c, 1, 60, 100
3, 20832, Note_on_c, 1, 64, 120
3, 20924, Note_off_c, 1, 64, 100
3, 20928, Note_on_c, 1, 60, 120
3, 21020, Note_off_c, 1, 60, 100
3, 21024, Note_on_c, 1, 59, 120
3, 21116, Note_off_c, 1, 59, 100
3, 21120, Note_on_c, 1, 57, 120
3, 21212, Note_off_c, 1, 57, 100
3, 21216, Note_on_c, 1, 60, 120
3, 21308, Note_off_c, 1, 60, 100
3, 21312, Note_on_c, 1, 57, 120
3, 21404, Note_off_c, 1, 57, 100
3, 21408, Note_on_c, 1, 55, 120
3, 21500, Note_off_c, 1, 55, 100
3, 21504, Note_on_c, 1, 54, 120
3, 21596, Note_off_c, 1, 54, 100
3, 21600, Note_on_c, 1, 57, 120
3, 21692, Note_off_c, 1, 57, 100
3, 21696, Note_on_c, 1, 54, 120
3, 21788, Note_off_c, 1, 54, 100
3, 21792, Note_on_c, 1, 52, 120
3, 21884, Note_off_c, 1, 52, 100
3, 21888, Note_on_c, 1, 50, 120
3, 21980, Note_off_c, 1, 50, 100
3, 21984, Note_on_c, 1, 52, 120
3, 22076, Note_off_c, 1, 52, 100
3, 22080, Note_on_c, 1, 54, 120
3, 22172, Note_off_c, 1, 54, 100
3, 22176, Note_on_c, 1, 55, 120
3, 22268, Note_off_c, 1, 55, 100
3, 22272, Note_on_c, 1, 57, 120
3, 22364, Note_off_c, 1, 57, 100
3, 22368, Note_on_c, 1, 50, 120
3, 22460, Note_off_c, 1, 50, 100
3, 22464, Note_on_c, 1, 52, 120
3, 22556, Note_off_c, 1, 52, 100
3, 22560, Note_on_c, 1, 54, 120
3, 22652, Note_off_c, 1, 54, 100
3, 22656, Note_on_c, 1, 55, 120
3, 22720, Note_on_c, 1, 59, 120
3, 22780, Note_off_c, 1, 59, 100
3, 22784, Note_on_c, 1, 62, 120
3, 22844, Note_off_c, 1, 62, 100
3, 22848, Note_on_c, 1, 59, 120
3, 22908, Note_off_c, 1, 59, 100
3, 22912, Note_on_c, 1, 62, 120
3, 22972, Note_off_c, 1, 62, 100
3, 22976, Note_on_c, 1, 59, 120
3, 23036, Note_off_c, 1, 55, 100
3, 23036, Note_off_c, 1, 59, 100
3, 23040, Note_on_c, 1, 55, 120
3, 23104, Note_on_c, 1, 60, 120
3, 23164, Note_off_c, 1, 60, 100
3, 23168, Note_on_c, 1, 62, 120
3, 23228, Note_off_c, 1, 62, 100
3, 23232, Note_on_c, 1, 60, 100
3, 23292, Note_off_c, 1, 60, 100
3, 23296, Note_on_c, 1, 62, 100
3, 23356, Note_off_c, 1, 62, 100
3, 23360, Note_on_c, 1, 60, 100
3, 23420, Note_off_c, 1, 55, 100
3, 23420, Note_off_c, 1, 60, 100
3, 23424, Note_on_c, 1, 55, 100
3, 23488, Note_on_c, 1, 59, 100
3, 23548, Note_off_c, 1, 59, 100
3, 23552, Note_on_c, 1, 62, 100
3, 23612, Note_off_c, 1, 62, 100
3, 23616, Note_on_c, 1, 59, 100
3, 23676, Note_off_c, 1, 59, 100
3, 23680, Note_on_c, 1, 62, 100
3, 23740, Note_off_c, 1, 62, 100
3, 23744, Note_on_c, 1, 59, 100
3, 23804, Note_off_c, 1, 55, 100
3, 23804, Note_off_c, 1, 59, 100
3, 23808, Note_on_c, 1, 54, 100
3, 23872, Note_on_c, 1, 57, 100
3, 23932, Note_off_c, 1, 57, 100
3, 23936, Note_on_c, 1, 62, 100
3, 23996, Note_off_c, 1, 62, 100
3, 24000, Note_on_c, 1, 57, 100
3, 24060, Note_off_c, 1, 57, 100
3, 24064, Note_on_c, 1, 62, 100
3, 24124, Note_off_c, 1, 62, 100
3, 24128, Note_on_c, 1, 57, 100
3, 24188, Note_off_c, 1, 54, 100
3, 24188, Note_off_c, 1, 57, 100
3, 24192, Note_on_c, 1, 55, 100
3, 24256, Note_on_c, 1, 59, 100
3, 24316, Note_off_c, 1, 59, 100
3, 24320, Note_on_c, 1, 62, 100
3, 24380, Note_off_c, 1, 62, 100
3, 24384, Note_on_c, 1, 59, 100
3, 24444, Note_off_c, 1, 59, 100
3, 24448, Note_on_c, 1, 62, 100
3, 24508, Note_off_c, 1, 62, 100
3, 24512, Note_on_c, 1, 59, 100
3, 24572, Note_off_c, 1, 55, 100
3, 24572, Note_off_c, 1, 59, 100
3, 24576, Note_on_c, 1, 55, 100
3, 24640, Note_on_c, 1, 60, 100
3, 24700, Note_off_c, 1, 60, 100
3, 24704, Note_on_c, 1, 62, 100
3, 24764, Note_off_c, 1, 62, 100
3, 24768, Note_on_c, 1, 60, 100
3, 24828, Note_off_c, 1, 60, 100
3, 24832, Note_on_c, 1, 62, 100
3, 24892, Note_off_c, 1, 62, 100
3, 24896, Note_on_c, 1, 60, 100
3, 24956, Note_off_c, 1, 55, 100
3, 24956, Note_off_c, 1, 60, 100
3, 24960, Note_on_c, 1, 55, 100
3, 25024, Note_on_c, 1, 59, 100
3, 25084, Note_off_c, 1, 59, 100
3, 25088, Note_on_c, 1, 62, 100
3, 25148, Note_off_c, 1, 62, 100
3, 25152, Note_on_c, 1, 59, 100
3, 25212, Note_off_c, 1, 59, 100
3, 25216, Note_on_c, 1, 62, 100
3, 25276, Note_off_c, 1, 62, 100
3, 25280, Note_on_c, 1, 59, 100
3, 25340, Note_off_c, 1, 55, 100
3, 25340, Note_off_c, 1, 59, 100
3, 25344, Note_on_c, 1, 54, 100
3, 25408, Note_on_c, 1, 57, 100
3, 25468, Note_off_c, 1, 57, 100
3, 25472, Note_on_c, 1, 62, 100
3, 25532, Note_off_c, 1, 62, 100
3, 25536, Note_on_c, 1, 57, 100
3, 25596, Note_off_c, 1, 57, 100
3, 25600, Note_on_c, 1, 62, 100
3, 25660, Note_off_c, 1, 62, 100
3, 25664, Note_on_c, 1, 57, 100
3, 25724, Note_off_c, 1, 54, 100
3, 25724, Note_off_c, 1, 57, 100
3, 25728, Note_on_c, 1, 55, 100
3, 25792, Note_on_c, 1, 59, 100
3, 25852, Note_off_c, 1, 59, 100
3, 25856, Note_on_c, 1, 62, 100
3, 25916, Note_off_c, 1, 62, 100
3, 25920, Note_on_c, 1, 59, 100
3, 25980, Note_off_c, 1, 59, 100
3, 25984, Note_on_c, 1, 62, 100
3, 26044, Note_off_c, 1, 62, 100
3, 26048, Note_on_c, 1, 59, 100
3, 26108, Note_off_c, 1, 55, 100
3, 26108, Note_off_c, 1, 59, 100
3, 26112, Note_on_c, 1, 54, 100
3, 26176, Note_on_c, 1, 57, 100
3, 26236, Note_off_c, 1, 57, 100
3, 26240, Note_on_c, 1, 62, 100
3, 26300, Note_off_c, 1, 62, 100
3, 26304, Note_on_c, 1, 57, 100
3, 26364, Note_off_c, 1, 57, 100
3, 26368, Note_on_c, 1, 62, 100
3, 26428, Note_off_c, 1, 62, 100
3, 26432, Note_on_c, 1, 57, 100
3, 26492, Note_off_c, 1, 54, 100
3, 26492, Note_off_c, 1, 57, 100
3, 26496, Note_on_c, 1, 55, 100
3, 26560, Note_on_c, 1, 59, 100
3, 26620, Note_off_c, 1, 59, 100
3, 26624, Note_on_c, 1, 62, 100
3, 26684, Note_off_c, 1, 62, 100
3, 26688, Note_on_c, 1, 59, 100
3, 26748, Note_off_c, 1, 59, 100
3, 26752, Note_on_c, 1, 62, 100
3, 26812, Note_off_c, 1, 62, 100
3, 26816, Note_on_c, 1, 59, 100
3, 26876, Note_off_c, 1, 55, 100
3, 26876, Note_off_c, 1, 59, 100
3, 26880, Note_on_c, 1, 54, 100
3, 26944, Note_on_c, 1, 57, 100
3, 27004, Note_off_c, 1, 57, 100
3, 27008, Note_on_c, 1, 62, 100
3, 27068, Note_off_c, 1, 62, 100
3, 27072, Note_on_c, 1, 57, 100
3, 27132, Note_off_c, 1, 57, 100
3, 27136, Note_on_c, 1, 62, 100
3, 27196, Note_off_c, 1, 62, 100
3, 27200, Note_on_c, 1, 57, 100
3, 27260, Note_off_c, 1, 54, 100
3, 27260, Note_off_c, 1, 57, 100
3, 27264, Note_on_c, 1, 62, 80
3, 27264, Note_on_c, 1, 59, 80
3, 27264, Note_on_c, 1, 55, 80
3, 27452, Note_off_c, 1, 62, 100
3, 27452, Note_off_c, 1, 59, 100
3, 27452, Note_off_c, 1, 55, 100
3, 28800, Note_on_c, 1, 65, 80
3, 28800, Note_on_c, 1, 67, 80
3, 28988, Note_off_c, 1, 65, 100
3, 28992, Note_on_c, 1, 62, 80
3, 29180, Note_off_c, 1, 67, 100
3, 29180, Note_off_c, 1, 62, 100
3, 29184, Note_on_c, 1, 67, 80
3, 29184, Note_on_c, 1, 59, 80
3, 29372, Note_off_c, 1, 67, 100
3, 29372, Note_off_c, 1, 59, 100
3, 29376, Note_on_c, 1, 67, 80
3, 29376, Note_on_c, 1, 60, 80
3, 29564, Note_off_c, 1, 67, 100
3, 29564, Note_off_c, 1, 60, 100
3, 29568, Note_on_c, 1, 65, 80
3, 29568, Note_on_c, 1, 67, 80
3, 29756, Note_off_c, 1, 65, 100
3, 29760, Note_on_c, 1, 62, 80
3, 29948, Note_off_c, 1, 67, 100
3, 29948, Note_off_c, 1, 62, 100
3, 29952, Note_on_c, 1, 67, 80
3, 29952, Note_on_c, 1, 59, 80
3, 30140, Note_off_c, 1, 67, 100
3, 30140, Note_off_c, 1, 59, 100
3, 30144, Note_on_c, 1, 67, 80
3, 30144, Note_on_c, 1, 60, 80
3, 30332, Note_off_c, 1, 67, 100
3, 30332, Note_off_c, 1, 60, 100
3, 30336, Note_on_c, 1, 65, 80
3, 30336, Note_on_c, 1, 53, 80
3, 30524, Note_off_c, 1, 65, 100
3, 30524, Note_off_c, 1, 53, 100
3, 30720, Note_on_c, 1, 55, 80
3, 30720, Note_on_c, 1, 59, 80
3, 30720, Note_on_c, 1, 62, 80
3, 30908, Note_off_c, 1, 55, 100
3, 30908, Note_off_c, 1, 59, 100
3, 30908, Note_off_c, 1, 62, 100
3, 31104, Note_on_c, 1, 60, 80
3, 31104, Note_on_c, 1, 55, 80
3, 31104, Note_on_c, 1, 52, 80
3, 31104, Note_on_c, 1, 48, 80
3, 31484, Note_off_c, 1, 60, 100
3, 31484, Note_off_c, 1, 55, 100
3, 31484, Note_off_c, 1, 52, 100
3, 31484, Note_off_c, 1, 48, 100
3, 31680, Note_on_c, 1, 64, 120
3, 31680, Note_on_c, 1, 67, 120
3, 31868, Note_off_c, 1, 64, 100
3, 31868, Note_off_c, 1, 67, 100
3, 31872, Note_on_c, 1, 65, 120
3, 31872, Note_on_c, 1, 68, 120
3, 32060, Note_off_c, 1, 65, 100
3, 32060, Note_off_c, 1, 68, 100
3, 32064, Note_on_c, 1, 62, 120
3, 32064, Note_on_c, 1, 65, 120
3, 32252, Note_off_c, 1, 62, 100
3, 32252, Note_off_c, 1, 65, 100
3, 32256, Note_on_c, 1, 59, 120
3, 32256, Note_on_c, 1, 62, 120
3, 32444, Note_off_c, 1, 59, 100
3, 32444, Note_off_c, 1, 62, 100
3, 32448, Note_on_c, 1, 60, 120
3, 32448, Note_on_c, 1, 63, 120
3, 32636, Note_off_c, 1, 60, 100
3, 32636, Note_off_c, 1, 63, 100
3, 32640, Note_on_c, 1, 65, 120
3, 32640, Note_on_c, 1, 68, 120
3, 32828, Note_off_c, 1, 65, 100
3, 32828, Note_off_c, 1, 68, 100
3, 32832, Note_on_c, 1, 62, 120
3, 32832, Note_on_c, 1, 65, 120
3, 33020, Note_off_c, 1, 62, 100
3, 33020, Note_off_c, 1, 65, 100
3, 33024, Note_on_c, 1, 59, 120
3, 33024, Note_on_c, 1, 62, 120
3, 33212, Note_off_c, 1, 59, 100
3, 33212, Note_off_c, 1, 62, 100
3, 33216, Note_on_c, 1, 60, 120
3, 33216, Note_on_c, 1, 63, 120
3, 33404, Note_off_c, 1, 60, 100
3, 33404, Note_off_c, 1, 63, 100
3, 33408, Note_on_c, 1, 62, 100
3, 33408, Note_on_c, 1, 56, 100
3, 33408, Note_on_c, 1, 53, 100
3, 33596, Note_off_c, 1, 62, 100
3, 33596, Note_off_c, 1, 56, 100
3, 33596, Note_off_c, 1, 53, 100
3, 33792, Note_on_c, 1, 62, 100
3, 33792, Note_on_c, 1, 59, 100
3, 33792, Note_on_c, 1, 55, 100
3, 33980, Note_off_c, 1, 62, 100
3, 33980, Note_off_c, 1, 59, 100
3, 33980, Note_off_c, 1, 55, 100
3, 34176, Note_on_c, 1, 60, 100
3, 34176, Note_on_c, 1, 56, 100
3, 34364, Note_off_c, 1, 60, 100
3, 34364, Note_off_c, 1, 56, 100
3, 34944, Note_on_c, 1, 60, 70
3, 34944, Note_on_c, 1, 57, 70
3, 34944, Note_on_c, 1, 54, 70
3, 35132, Note_off_c, 1, 60, 100
3, 35132, Note_off_c, 1, 57, 100
3, 35132, Note_off_c, 1, 54, 100
3, 35712, Note_on_c, 1, 55, 80
3, 35712, Note_on_c, 1, 53, 80
3, 35900, Note_off_c, 1, 55, 100
3, 35900, Note_off_c, 1, 53, 100
3, 35904, Note_on_c, 1, 55, 81
3, 35904, Note_on_c, 1, 47, 81
3, 36092, Note_off_c, 1, 55, 100
3, 36092, Note_off_c, 1, 47, 100
3, 36096, Note_on_c, 1, 48, 82
3, 36096, Note_on_c, 1, 55, 82
3, 36284, Note_off_c, 1, 48, 100
3, 36284, Note_off_c, 1, 55, 100
3, 36288, Note_on_c, 1, 55, 83
3, 36288, Note_on_c, 1, 43, 83
3, 36476, Note_off_c, 1, 55, 100
3, 36476, Note_off_c, 1, 43, 100
3, 36480, Note_on_c, 1, 55, 85
3, 36480, Note_on_c, 1, 50, 85
3, 36668, Note_off_c, 1, 55, 100
3, 36668, Note_off_c, 1, 50, 100
3, 36672, Note_on_c, 1, 55, 86
3, 36672, Note_on_c, 1, 43, 86
3, 36860, Note_off_c, 1, 55, 100
3, 36860, Note_off_c, 1, 43, 100
3, 36864, Note_on_c, 1, 55, 87
3, 36864, Note_on_c, 1, 48, 87
3, 37052, Note_off_c, 1, 55, 100
3, 37052, Note_off_c, 1, 48, 100
3, 37056, Note_on_c, 1, 55, 89
3, 37056, Note_on_c, 1, 43, 89
3, 37244, Note_off_c, 1, 55, 100
3, 37244, Note_off_c, 1, 43, 100
3, 37248, Note_on_c, 1, 55, 90
3, 37248, Note_on_c, 1, 50, 90
3, 37436, Note_off_c, 1, 55, 100
3, 37436, Note_off_c, 1, 50, 100
3, 37440, Note_on_c, 1, 55, 91
3, 37440, Note_on_c, 1, 53, 91
3, 37628, Note_off_c, 1, 55, 100
3, 37628, Note_off_c, 1, 53, 100
3, 37632, Note_on_c, 1, 55, 92
3, 37632, Note_on_c, 1, 52, 92
3, 37820, Note_off_c, 1, 55, 100
3, 37820, Note_off_c, 1, 52, 100
3, 37824, Note_on_c, 1, 55, 94
3, 37824, Note_on_c, 1, 48, 94
3, 38012, Note_off_c, 1, 55, 100
3, 38012, Note_off_c, 1, 48, 100
3, 38016, Note_on_c, 1, 55, 95
3, 38016, Note_on_c, 1, 50, 95
3, 38204, Note_off_c, 1, 55, 100
3, 38204, Note_off_c, 1, 50, 100
3, 38208, Note_on_c, 1, 55, 96
3, 38208, Note_on_c, 1, 53, 96
3, 38396, Note_off_c, 1, 55, 100
3, 38396, Note_off_c, 1, 53, 100
3, 38400, Note_on_c, 1, 55, 98
3, 38400, Note_on_c, 1, 52, 98
3, 38588, Note_off_c, 1, 55, 100
3, 38588, Note_off_c, 1, 52, 100
3, 38592, Note_on_c, 1, 55, 99
3, 38592, Note_on_c, 1, 48, 99
3, 38780, Note_off_c, 1, 55, 100
3, 38780, Note_off_c, 1, 48, 100
3, 38784, Note_on_c, 1, 50, 110
3, 38784, Note_on_c, 1, 45, 110
3, 38784, Note_on_c, 1, 41, 110
3, 38972, Note_off_c, 1, 50, 100
3, 38972, Note_off_c, 1, 45, 100
3, 38972, Note_off_c, 1, 41, 100
3, 39168, Note_on_c, 1, 62, 110
3, 39168, Note_on_c, 1, 57, 110
3, 39168, Note_on_c, 1, 53, 110
3, 39356, Note_off_c, 1, 62, 100
3, 39356, Note_off_c, 1, 57, 100
3, 39356, Note_off_c, 1, 53, 100
3, 40512, Note_on_c, 1, 62, 110
3, 40892, Note_off_c, 1, 62, 100
3, 40896, Note_on_c, 1, 64, 110
3, 40988, Note_off_c, 1, 64, 100
3, 40992, Note_on_c, 1, 65, 110
3, 41084, Note_off_c, 1, 65, 100
3, 41088, Note_on_c, 1, 67, 110
3, 41468, Note_off_c, 1, 67, 100
3, 41472, Note_on_c, 1, 55, 110
3, 41472, Note_on_c, 1, 59, 110
3, 41472, Note_on_c, 1, 62, 110
3, 41472, Note_on_c, 1, 65, 110
3, 41852, Note_off_c, 1, 55, 100
3, 41852, Note_off_c, 1, 59, 100
3, 41852, Note_off_c, 1, 62, 100
3, 41852, Note_off_c, 1, 65, 100
3, 41856, Note_on_c, 1, 60, 110
3, 41916, Note_off_c, 1, 60, 100
3, 41920, Note_on_c, 1, 64, 110
3, 41980, Note_off_c, 1, 64, 100
3, 41984, Note_on_c, 1, 67, 110
3, 42044, Note_off_c, 1, 67, 100
3, 42048, Note_on_c, 1, 60, 110
3, 42108, Note_off_c, 1, 60, 100
3, 42112, Note_on_c, 1, 64, 110
3, 42172, Note_off_c, 1, 64, 100
3, 42176, Note_on_c, 1, 67, 110
3, 42236, Note_off_c, 1, 67, 100
3, 42240, Note_on_c, 1, 60, 80
3, 42300, Note_off_c, 1, 60, 100
3, 42304, Note_on_c, 1, 64, 80
3, 42364, Note_off_c, 1, 64, 100
3, 42368, Note_on_c, 1, 67, 80
3, 42428, Note_off_c, 1, 67, 100
3, 42432, Note_on_c, 1, 60, 80
3, 42492, Note_off_c, 1, 60, 100
3, 42496, Note_on_c, 1, 64, 80
3, 42556, Note_off_c, 1, 64, 100
3, 42560, Note_on_c, 1, 67, 80
3, 42620, Note_off_c, 1, 67, 100
3, 42624, Note_on_c, 1, 60, 80
3, 42684, Note_off_c, 1, 60, 100
3, 42688, Note_on_c, 1, 64, 80
3, 42748, Note_off_c, 1, 64, 100
3, 42752, Note_on_c, 1, 67, 80
3, 42812, Note_off_c, 1, 67, 100
3, 42816, Note_on_c, 1, 60, 80
3, 42876, Note_off_c, 1, 60, 100
3, 42880, Note_on_c, 1, 64, 80
3, 42940, Note_off_c, 1, 64, 100
3, 42944, Note_on_c, 1, 67, 80
3, 43004, Note_off_c, 1, 67, 100
3, 43008, Note_on_c, 1, 60, 80
3, 43068, Note_off_c, 1, 60, 100
3, 43072, Note_on_c, 1, 64, 80
3, 43132, Note_off_c, 1, 64, 100
3, 43136, Note_on_c, 1, 67, 80
3, 43196, Note_off_c, 1, 67, 100
3, 43200, Note_on_c, 1, 60, 80
3, 43260, Note_off_c, 1, 60, 100
3, 43264, Note_on_c, 1, 64, 80
3, 43324, Note_off_c, 1, 64, 100
3, 43328, Note_on_c, 1, 67, 80
3, 43388, Note_off_c, 1, 67, 100
3, 43392, Note_on_c, 1, 57, 80
3, 43392, Note_on_c, 1, 53, 80
3, 43452, Note_off_c, 1, 57, 100
3, 43452, Note_off_c, 1, 53, 100
3, 43456, Note_on_c, 1, 60, 80
3, 43516, Note_off_c, 1, 60, 100
3, 43520, Note_on_c, 1, 62, 80
3, 43580, Note_off_c, 1, 62, 100
3, 43584, Note_on_c, 1, 57, 80
3, 43584, Note_on_c, 1, 53, 80
3, 43644, Note_off_c, 1, 57, 100
3, 43644, Note_off_c, 1, 53, 100
3, 43648, Note_on_c, 1, 60, 80
3, 43708, Note_off_c, 1, 60, 100
3, 43712, Note_on_c, 1, 62, 80
3, 43772, Note_off_c, 1, 62, 100
3, 43776, Note_on_c, 1, 54, 110
3, 43776, Note_on_c, 1, 57, 110
3, 43836, Note_off_c, 1, 54, 100
3, 43836, Note_off_c, 1, 57, 100
3, 43840, Note_on_c, 1, 60, 110
3, 43900, Note_off_c, 1, 60, 100
3, 43904, Note_on_c, 1, 62, 110
3, 43964, Note_off_c, 1, 62, 100
3, 43968, Note_on_c, 1, 54, 110
3, 43968, Note_on_c, 1, 57, 110
3, 44028, Note_off_c, 1, 54, 100
3, 44028, Note_off_c, 1, 57, 100
3, 44032, Note_on_c, 1, 60, 110
3, 44092, Note_off_c, 1, 60, 100
3, 44096, Note_on_c, 1, 62, 110
3, 44156, Note_off_c, 1, 62, 100
3, 44160, Note_on_c, 1, 55, 110
3, 44220, Note_off_c, 1, 55, 100
3, 44224, Note_on_c, 1, 60, 110
3, 44284, Note_off_c, 1, 60, 100
3, 44288, Note_on_c, 1, 64, 110
3, 44348, Note_off_c, 1, 64, 100
3, 44352, Note_on_c, 1, 55, 110
3, 44412, Note_off_c, 1, 55, 100
3, 44416, Note_on_c, 1, 60, 110
3, 44476, Note_off_c, 1, 60, 100
3, 44480, Note_on_c, 1, 64, 110
3, 44540, Note_off_c, 1, 64, 100
3, 44544, Note_on_c, 1, 55, 110
3, 44604, Note_off_c, 1, 55, 100
3, 44608, Note_on_c, 1, 59, 110
3, 44668, Note_off_c, 1, 59, 100
3, 44672, Note_on_c, 1, 62, 110
3, 44732, Note_off_c, 1, 62, 100
3, 44736, Note_on_c, 1, 55, 110
3, 44796, Note_off_c, 1, 55, 100
3, 44800, Note_on_c, 1, 59, 110
3, 44860, Note_off_c, 1, 59, 100
3, 44864, Note_on_c, 1, 62, 110
3, 44924, Note_off_c, 1, 62, 100
3, 44928, Note_on_c, 1, 48, 110
3, 44972, Note_off_c, 1, 48, 100
3, 44976, Note_on_c, 1, 52, 110
3, 45020, Note_off_c, 1, 52, 100
3, 45024, Note_on_c, 1, 55, 110
3, 45068, Note_off_c, 1, 55, 100
3, 45072, Note_on_c, 1, 60, 110
3, 45116, Note_off_c, 1, 60, 100
3, 45120, Note_on_c, 1, 48, 110
3, 45164, Note_off_c, 1, 48, 100
3, 45168, Note_on_c, 1, 52, 110
3, 45212, Note_off_c, 1, 52, 100
3, 45216, Note_on_c, 1, 55, 110
3, 45260, Note_off_c, 1, 55, 100
3, 45264, Note_on_c, 1, 60, 80
3, 45308, Note_off_c, 1, 60, 100
3, 45312, Note_on_c, 1, 48, 80
3, 45356, Note_off_c, 1, 48, 100
3, 45360, Note_on_c, 1, 52, 80
3, 45404, Note_off_c, 1, 52, 100
3, 45408, Note_on_c, 1, 55, 80
3, 45452, Note_off_c, 1, 55, 100
3, 45456, Note_on_c, 1, 60, 80
3, 45500, Note_off_c, 1, 60, 100
3, 45504, Note_on_c, 1, 48, 80
3, 45548, Note_off_c, 1, 48, 100
3, 45552, Note_on_c, 1, 52, 80
3, 45596, Note_off_c, 1, 52, 100
3, 45600, Note_on_c, 1, 55, 80
3, 45644, Note_off_c, 1, 55, 100
3, 45648, Note_on_c, 1, 60, 80
3, 45692, Note_off_c, 1, 60, 100
3, 45696, Note_on_c, 1, 48, 80
3, 45740, Note_off_c, 1, 48, 100
3, 45744, Note_on_c, 1, 52, 80
3, 45788, Note_off_c, 1, 52, 100
3, 45792, Note_on_c, 1, 55, 80
3, 45836, Note_off_c, 1, 55, 100
3, 45840, Note_on_c, 1, 60, 80
3, 45884, Note_off_c, 1, 60, 100
3, 45888, Note_on_c, 1, 48, 80
3, 45932, Note_off_c, 1, 48, 100
3, 45936, Note_on_c, 1, 52, 80
3, 45980, Note_off_c, 1, 52, 100
3, 45984, Note_on_c, 1, 55, 80
3, 46028, Note_off_c, 1, 55, 100
3, 46032, Note_on_c, 1, 60, 80
3, 46076, Note_off_c, 1, 60, 100
3, 46080, Note_on_c, 1, 52, 80
3, 46140, Note_off_c, 1, 52, 100
3, 46144, Note_on_c, 1, 55, 80
3, 46204, Note_off_c, 1, 55, 100
3, 46208, Note_on_c, 1, 60, 80
3, 46268, Note_off_c, 1, 60, 100
3, 46272, Note_on_c, 1, 52, 80
3, 46332, Note_off_c, 1, 52, 100
3, 46336, Note_on_c, 1, 55, 80
3, 46396, Note_off_c, 1, 55, 100
3, 46400, Note_on_c, 1, 60, 80
3, 46460, Note_off_c, 1, 60, 100
3, 46464, Note_on_c, 1, 53, 80
3, 46512, Note_on_c, 1, 57, 80
3, 46556, Note_off_c, 1, 53, 100
3, 46560, Note_on_c, 1, 60, 80
3, 46592, Note_off_c, 1, 57, 100
3, 46608, Note_on_c, 1, 62, 80
3, 46652, Note_off_c, 1, 60, 100
3, 46656, Note_on_c, 1, 53, 80
3, 46700, Note_off_c, 1, 62, 100
3, 46704, Note_on_c, 1, 57, 80
3, 46744, Note_off_c, 1, 53, 100
3, 46752, Note_on_c, 1, 60, 80
3, 46796, Note_off_c, 1, 57, 100
3, 46800, Note_on_c, 1, 62, 110
3, 46840, Note_off_c, 1, 60, 100
3, 46848, Note_on_c, 1, 54, 110
3, 46888, Note_off_c, 1, 62, 100
3, 46896, Note_on_c, 1, 57, 110
3, 46932, Note_off_c, 1, 54, 100
3, 46944, Note_on_c, 1, 60, 110
3, 46980, Note_off_c, 1, 57, 100
3, 46992, Note_on_c, 1, 62, 110
3, 47024, Note_off_c, 1, 60, 100
3, 47040, Note_on_c, 1, 54, 110
3, 47072, Note_off_c, 1, 62, 100
3, 47088, Note_on_c, 1, 57, 111
3, 47128, Note_off_c, 1, 54, 100
3, 47136, Note_on_c, 1, 60, 111
3, 47176, Note_off_c, 1, 57, 100
3, 47184, Note_on_c, 1, 62, 111
3, 47216, Note_off_c, 1, 60, 100
3, 47232, Note_on_c, 1, 55, 111
3, 47268, Note_off_c, 1, 62, 100
3, 47296, Note_on_c, 1, 60, 111
3, 47328, Note_off_c, 1, 55, 100
3, 47360, Note_on_c, 1, 64, 112
3, 47396, Note_off_c, 1, 60, 100
3, 47424, Note_on_c, 1, 55, 112
3, 47452, Note_off_c, 1, 64, 100
3, 47488, Note_on_c, 1, 60, 112
3, 47516, Note_off_c, 1, 55, 100
3, 47552, Note_on_c, 1, 64, 112
3, 47588, Note_off_c, 1, 60, 100
3, 47616, Note_on_c, 1, 55, 113
3, 47652, Note_off_c, 1, 64, 100
3, 47680, Note_on_c, 1, 59, 113
3, 47716, Note_off_c, 1, 55, 100
3, 47744, Note_on_c, 1, 62, 113
3, 47784, Note_off_c, 1, 59, 100
3, 47808, Note_on_c, 1, 55, 113
3, 47852, Note_off_c, 1, 62, 100
3, 47872, Note_on_c, 1, 59, 113
3, 47904, Note_off_c, 1, 55, 100
3, 47936, Note_on_c, 1, 62, 114
3, 47976, Note_off_c, 1, 59, 100
3, 48000, Note_on_c, 1, 48, 114
3, 48044, Note_off_c, 1, 62, 100
3, 48048, Note_on_c, 1, 52, 114
3, 48088, Note_off_c, 1, 48, 100
3, 48096, Note_on_c, 1, 55, 114
3, 48136, Note_off_c, 1, 52, 100
3, 48144, Note_on_c, 1, 60, 114
3, 48180, Note_off_c, 1, 55, 100
3, 48192, Note_on_c, 1, 48, 115
3, 48236, Note_off_c, 1, 60, 100
3, 48240, Note_on_c, 1, 52, 115
3, 48284, Note_off_c, 1, 48, 100
3, 48288, Note_on_c, 1, 55, 115
3, 48332, Note_off_c, 1, 52, 100
3, 48336, Note_on_c, 1, 60, 115
3, 48380, Note_off_c, 1, 55, 100
3, 48384, Note_on_c, 1, 48, 115
3, 48420, Note_off_c, 1, 60, 100
3, 48448, Note_on_c, 1, 51, 116
3, 48500, Note_off_c, 1, 48, 100
3, 48512, Note_on_c, 1, 55, 116
3, 48552, Note_off_c, 1, 51, 100
3, 48576, Note_on_c, 1, 48, 116
3, 48616, Note_off_c, 1, 55, 100
3, 48640, Note_on_c, 1, 51, 116
3, 48680, Note_off_c, 1, 48, 100
3, 48704, Note_on_c, 1, 55, 117
3, 48740, Note_off_c, 1, 51, 100
3, 48768, Note_on_c, 1, 43, 117
3, 48796, Note_off_c, 1, 55, 100
3, 48816, Note_on_c, 1, 48, 117
3, 48852, Note_off_c, 1, 43, 100
3, 48864, Note_on_c, 1, 50, 117
3, 48908, Note_off_c, 1, 48, 100
3, 48912, Note_on_c, 1, 55, 117
3, 48948, Note_off_c, 1, 50, 100
3, 48960, Note_on_c, 1, 43, 118
3, 49000, Note_off_c, 1, 55, 100
3, 49008, Note_on_c, 1, 48, 118
3, 49048, Note_off_c, 1, 43, 100
3, 49056, Note_on_c, 1, 50, 118
3, 49092, Note_off_c, 1, 48, 100
3, 49104, Note_on_c, 1, 55, 118
3, 49144, Note_off_c, 1, 50, 100
3, 49152, Note_on_c, 1, 43, 118
3, 49184, Note_off_c, 1, 55, 100
3, 49200, Note_on_c, 1, 47, 118
3, 49240, Note_off_c, 1, 43, 100
3, 49248, Note_on_c, 1, 50, 119
3, 49288, Note_off_c, 1, 47, 100
3, 49296, Note_on_c, 1, 55, 119
3, 49332, Note_off_c, 1, 50, 100
3, 49344, Note_on_c, 1, 43, 119
3, 49380, Note_off_c, 1, 55, 100
3, 49392, Note_on_c, 1, 47, 119
3, 49428, Note_off_c, 1, 43, 100
3, 49440, Note_on_c, 1, 50, 119
3, 49480, Note_off_c, 1, 47, 100
3, 49488, Note_on_c, 1, 55, 120
3, 49520, Note_off_c, 1, 50, 100
3, 49532, Note_off_c, 1, 55, 100
3, 49536, Note_on_c, 1, 48, 120
3, 49724, Note_off_c, 1, 48, 100
3, 49920, Note_on_c, 1, 55, 120
3, 49920, Note_on_c, 1, 43, 120
3, 50108, Note_off_c, 1, 55, 100
3, 50108, Note_off_c, 1, 43, 100
3, 50304, Note_on_c, 1, 48, 120
3, 50304, Note_on_c, 1, 36, 120
3, 50684, Note_off_c, 1, 48, 100
3, 50684, Note_off_c, 1, 36, 100
3, 50880, Note_on_c, 1, 53, 80
3, 50880, Note_on_c, 1, 48, 80
3, 50880, Note_on_c, 1, 41, 80
3, 51068, Note_off_c, 1, 53, 100
3, 51068, Note_off_c, 1, 48, 100
3, 51068, Note_off_c, 1, 41, 100
3, 51072, Note_on_c, 1, 53, 80
3, 51072, Note_on_c, 1, 48, 80
3, 51072, Note_on_c, 1, 41, 80
3, 51452, Note_off_c, 1, 53, 100
3, 51452, Note_off_c, 1, 48, 100
3, 51452, Note_off_c, 1, 41, 100
3, 52416, Note_on_c, 1, 53, 80
3, 52416, Note_on_c, 1, 48, 80
3, 52416, Note_on_c, 1, 41, 80
3, 52604, Note_off_c, 1, 53, 100
3, 52604, Note_off_c, 1, 48, 100
3, 52604, Note_off_c, 1, 41, 100
3, 52608, Note_on_c, 1, 52, 80
3, 52608, Note_on_c, 1, 48, 80
3, 52608, Note_on_c, 1, 40, 80
3, 52988, Note_off_c, 1, 52, 100
3, 52988, Note_off_c, 1, 48, 100
3, 52988, Note_off_c, 1, 40, 100
3, 54144, Note_on_c, 1, 60, 80
3, 54144, Note_on_c, 1, 57, 80
3, 54144, Note_on_c, 1, 53, 80
3, 54524, Note_off_c, 1, 60, 100
3, 54524, Note_off_c, 1, 57, 100
3, 54524, Note_off_c, 1, 53, 100
3, 54528, Note_on_c, 1, 60, 87
3, 54528, Note_on_c, 1, 58, 87
3, 54528, Note_on_c, 1, 55, 87
3, 54908, Note_off_c, 1, 60, 100
3, 54908, Note_off_c, 1, 58, 100
3, 54908, Note_off_c, 1, 55, 100
3, 54912, Note_on_c, 1, 60, 95
3, 54912, Note_on_c, 1, 57, 95
3, 54912, Note_on_c, 1, 65, 95
3, 55292, Note_off_c, 1, 60, 100
3, 55292, Note_off_c, 1, 57, 100
3, 55292, Note_off_c, 1, 65, 100
3, 55296, Note_on_c, 1, 67, 120
3, 55296, Note_on_c, 1, 65, 120
3, 55296, Note_on_c, 1, 62, 120
3, 55296, Note_on_c, 1, 58, 120
3, 55676, Note_off_c, 1, 67, 100
3, 55676, Note_off_c, 1, 65, 100
3, 55676, Note_off_c, 1, 62, 100
3, 55676, Note_off_c, 1, 58, 100
3, 55680, Note_on_c, 1, 69, 120
3, 55680, Note_on_c, 1, 65, 120
3, 55680, Note_on_c, 1, 60, 120
3, 56060, Note_off_c, 1, 69, 100
3, 56060, Note_off_c, 1, 65, 100
3, 56060, Note_off_c, 1, 60, 100
3, 56064, Note_on_c, 1, 63, 103
3, 56064, Note_on_c, 1, 65, 103
3, 56064, Note_on_c, 1, 69, 103
3, 56064, Note_on_c, 1, 72, 103
3, 56444, Note_off_c, 1, 63, 100
3, 56444, Note_off_c, 1, 65, 100
3, 56444, Note_off_c, 1, 69, 100
3, 56444, Note_off_c, 1, 72, 100
3, 56448, Note_on_c, 1, 70, 88
3, 56448, Note_on_c, 1, 65, 88
3, 56448, Note_on_c, 1, 62, 88
3, 56828, Note_off_c, 1, 70, 100
3, 56828, Note_off_c, 1, 65, 100
3, 56828, Note_off_c, 1, 62, 100
3, 57216, Note_on_c, 1, 62, 80
3, 57216, Note_on_c, 1, 65, 80
3, 57216, Note_on_c, 1, 70, 80
3, 57596, Note_off_c, 1, 62, 100
3, 57596, Note_off_c, 1, 65, 100
3, 57596, Note_off_c, 1, 70, 100
3, 57600, Note_on_c, 1, 64, 80
3, 57600, Note_on_c, 1, 67, 80
3, 57600, Note_on_c, 1, 72, 80
3, 57980, Note_off_c, 1, 64, 100
3, 57980, Note_off_c, 1, 67, 100
3, 57980, Note_off_c, 1, 72, 100
3, 57984, Note_on_c, 1, 65, 80
3, 57984, Note_on_c, 1, 69, 80
3, 57984, Note_on_c, 1, 72, 80
3, 58364, Note_off_c, 1, 65, 100
3, 58364, Note_off_c, 1, 69, 100
3, 58364, Note_off_c, 1, 72, 100
3, 58368, Note_on_c, 1, 58, 80
3, 58368, Note_on_c, 1, 62, 80
3, 58368, Note_on_c, 1, 67, 80
3, 58748, Note_off_c, 1, 58, 100
3, 58748, Note_off_c, 1, 62, 100
3, 58748, Note_off_c, 1, 67, 100
3, 58752, Note_on_c, 1, 60, 80
3, 58752, Note_on_c, 1, 65, 80
3, 58752, Note_on_c, 1, 69, 80
3, 59132, Note_off_c, 1, 60, 100
3, 59132, Note_off_c, 1, 65, 100
3, 59132, Note_off_c, 1, 69, 100
3, 59136, Note_on_c, 1, 60, 80
3, 59136, Note_on_c, 1, 67, 80
3, 59136, Note_on_c, 1, 70, 80
3, 59516, Note_off_c, 1, 60, 100
3, 59516, Note_off_c, 1, 67, 100
3, 59516, Note_off_c, 1, 70, 100
3, 59520, Note_on_c, 1, 65, 80
3, 59520, Note_on_c, 1, 69, 80
3, 59900, Note_off_c, 1, 65, 100
3, 59900, Note_off_c, 1, 69, 100
3, 60096, Note_on_c, 1, 48, 80
3, 60096, Note_on_c, 1, 41, 80
3, 60096, Note_on_c, 1, 53, 80
3, 60284, Note_off_c, 1, 48, 100
3, 60284, Note_off_c, 1, 41, 100
3, 60284, Note_off_c, 1, 53, 100
3, 60288, Note_on_c, 1, 53, 80
3, 60288, Note_on_c, 1, 48, 80
3, 60288, Note_on_c, 1, 41, 80
3, 60668, Note_off_c, 1, 53, 100
3, 60668, Note_off_c, 1, 48, 100
3, 60668, Note_off_c, 1, 41, 100
3, 61632, Note_on_c, 1, 51, 80
3, 61632, Note_on_c, 1, 48, 80
3, 61632, Note_on_c, 1, 41, 80
3, 61820, Note_off_c, 1, 51, 100
3, 61820, Note_off_c, 1, 48, 100
3, 61820, Note_off_c, 1, 41, 100
3, 61824, Note_on_c, 1, 51, 80
3, 61824, Note_on_c, 1, 48, 80
3, 61824, Note_on_c, 1, 41, 80
3, 62204, Note_off_c, 1, 51, 100
3, 62204, Note_off_c, 1, 48, 100
3, 62204, Note_off_c, 1, 41, 100
3, 63168, Note_on_c, 1, 57, 110
3, 63168, Note_on_c, 1, 53, 110
3, 63228, Note_off_c, 1, 57, 100
3, 63232, Note_on_c, 1, 59, 110
3, 63292, Note_off_c, 1, 59, 100
3, 63296, Note_on_c, 1, 60, 110
3, 63356, Note_off_c, 1, 53, 100
3, 63356, Note_off_c, 1, 60, 100
3, 63360, Note_on_c, 1, 56, 110
3, 63360, Note_on_c, 1, 52, 110
3, 63548, Note_off_c, 1, 56, 100
3, 63548, Note_off_c, 1, 52, 100
3, 63552, Note_on_c, 1, 57, 110
3, 63552, Note_on_c, 1, 53, 110
3, 63612, Note_off_c, 1, 57, 100
3, 63616, Note_on_c, 1, 59, 110
3, 63676, Note_off_c, 1, 59, 100
3, 63680, Note_on_c, 1, 60, 110
3, 63740, Note_off_c, 1, 53, 100
3, 63740, Note_off_c, 1, 60, 100
3, 63744, Note_on_c, 1, 56, 110
3, 63744, Note_on_c, 1, 52, 110
3, 63932, Note_off_c, 1, 56, 100
3, 63932, Note_off_c, 1, 52, 100
3, 63936, Note_on_c, 1, 57, 110
3, 63936, Note_on_c, 1, 53, 110
3, 63996, Note_off_c, 1, 57, 100
3, 64000, Note_on_c, 1, 59, 110
3, 64060, Note_off_c, 1, 59, 100
3, 64064, Note_on_c, 1, 60, 110
3, 64124, Note_off_c, 1, 53, 100
3, 64124, Note_off_c, 1, 60, 100
3, 64128, Note_on_c, 1, 56, 110
3, 64128, Note_on_c, 1, 52, 110
3, 64508, Note_off_c, 1, 56, 100
3, 64508, Note_off_c, 1, 52, 100
3, 64704, Note_on_c, 1, 43, 80
3, 64796, Note_off_c, 1, 43, 100
3, 64800, Note_on_c, 1, 47, 80
3, 64892, Note_off_c, 1, 47, 100
3, 64896, Note_on_c, 1, 48, 80
3, 64988, Note_off_c, 1, 48, 100
3, 64992, Note_on_c, 1, 52, 81
3, 65084, Note_off_c, 1, 52, 100
3, 65088, Note_on_c, 1, 43, 83
3, 65180, Note_off_c, 1, 43, 100
3, 65184, Note_on_c, 1, 47, 85
3, 65276, Note_off_c, 1, 47, 100
3, 65280, Note_on_c, 1, 48, 87
3, 65372, Note_off_c, 1, 48, 100
3, 65376, Note_on_c, 1, 52, 88
3, 65468, Note_off_c, 1, 52, 100
3, 65472, Note_on_c, 1, 43, 90
3, 65564, Note_off_c, 1, 43, 100
3, 65568, Note_on_c, 1, 47, 92
3, 65660, Note_off_c, 1, 47, 100
3, 65664, Note_on_c, 1, 48, 94
3, 65756, Note_off_c, 1, 48, 100
3, 65760, Note_on_c, 1, 52, 95
3, 65852, Note_off_c, 1, 52, 100
3, 65856, Note_on_c, 1, 43, 97
3, 65948, Note_off_c, 1, 43, 100
3, 65952, Note_on_c, 1, 47, 99
3, 66044, Note_off_c, 1, 47, 100
3, 66048, Note_on_c, 1, 48, 101
3, 66140, Note_off_c, 1, 48, 100
3, 66144, Note_on_c, 1, 52, 102
3, 66236, Note_off_c, 1, 52, 100
3, 66240, Note_on_c, 1, 43, 104
3, 66332, Note_off_c, 1, 43, 100
3, 66336, Note_on_c, 1, 47, 106
3, 66428, Note_off_c, 1, 47, 100
3, 66432, Note_on_c, 1, 48, 108
3, 66524, Note_off_c, 1, 48, 100
3, 66528, Note_on_c, 1, 52, 109
3, 66620, Note_off_c, 1, 52, 100
3, 66624, Note_on_c, 1, 43, 110
3, 66716, Note_off_c, 1, 43, 100
3, 66720, Note_on_c, 1, 47, 110
3, 66812, Note_off_c, 1, 47, 100
3, 66816, Note_on_c, 1, 48, 110
3, 66908, Note_off_c, 1, 48, 100
3, 66912, Note_on_c, 1, 52, 110
3, 67004, Note_off_c, 1, 52, 100
3, 67008, Note_on_c, 1, 43, 110
3, 67100, Note_off_c, 1, 43, 100
3, 67104, Note_on_c, 1, 48, 110
3, 67196, Note_off_c, 1, 48, 100
3, 67200, Note_on_c, 1, 50, 110
3, 67292, Note_off_c, 1, 50, 100
3, 67296, Note_on_c, 1, 53, 106
3, 67388, Note_off_c, 1, 53, 100
3, 67392, Note_on_c, 1, 43, 102
3, 67484, Note_off_c, 1, 43, 100
3, 67488, Note_on_c, 1, 49, 98
3, 67580, Note_off_c, 1, 49, 100
3, 67584, Note_on_c, 1, 50, 93
3, 67676, Note_off_c, 1, 50, 100
3, 67680, Note_on_c, 1, 53, 89
3, 67772, Note_off_c, 1, 53, 100
3, 67776, Note_on_c, 1, 43, 85
3, 67868, Note_off_c, 1, 43, 100
3, 67872, Note_on_c, 1, 49, 81
3, 67964, Note_off_c, 1, 49, 100
3, 67968, Note_on_c, 1, 50, 80
3, 68060, Note_off_c, 1, 50, 100
3, 68064, Note_on_c, 1, 53, 81
3, 68156, Note_off_c, 1, 53, 100
3, 68160, Note_on_c, 1, 43, 83
3, 68252, Note_off_c, 1, 43, 100
3, 68256, Note_on_c, 1, 49, 85
3, 68348, Note_off_c, 1, 49, 100
3, 68352, Note_on_c, 1, 50, 87
3, 68444, Note_off_c, 1, 50, 100
3, 68448, Note_on_c, 1, 53, 88
3, 68540, Note_off_c, 1, 53, 100
3, 68544, Note_on_c, 1, 43, 90
3, 68636, Note_off_c, 1, 43, 100
3, 68640, Note_on_c, 1, 49, 92
3, 68732, Note_off_c, 1, 49, 100
3, 68736, Note_on_c, 1, 50, 94
3, 68828, Note_off_c, 1, 50, 100
3, 68832, Note_on_c, 1, 53, 95
3, 68924, Note_off_c, 1, 53, 100
3, 68928, Note_on_c, 1, 43, 97
3, 69020, Note_off_c, 1, 43, 100
3, 69024, Note_on_c, 1, 49, 99
3, 69116, Note_off_c, 1, 49, 100
3, 69120, Note_on_c, 1, 50, 101
3, 69212, Note_off_c, 1, 50, 100
3, 69216, Note_on_c, 1, 53, 102
3, 69308, Note_off_c, 1, 53, 100
3, 69312, Note_on_c, 1, 43, 104
3, 69404, Note_off_c, 1, 43, 100
3, 69408, Note_on_c, 1, 49, 106
3, 69500, Note_off_c, 1, 49, 100
3, 69504, Note_on_c, 1, 50, 108
3, 69596, Note_off_c, 1, 50, 100
3, 69600, Note_on_c, 1, 53, 109
3, 69692, Note_off_c, 1, 53, 100
3, 69696, Note_on_c, 1, 43, 110
3, 69788, Note_off_c, 1, 43, 100
3, 69792, Note_on_c, 1, 49, 110
3, 69884, Note_off_c, 1, 49, 100
3, 69888, Note_on_c, 1, 50, 110
3, 69980, Note_off_c, 1, 50, 100
3, 69984, Note_on_c, 1, 53, 110
3, 70076, Note_off_c, 1, 53, 100
3, 70080, Note_on_c, 1, 43, 110
3, 70172, Note_off_c, 1, 43, 100
3, 70176, Note_on_c, 1, 50, 110
3, 70268, Note_off_c, 1, 50, 100
3, 70272, Note_on_c, 1, 52, 110
3, 70364, Note_off_c, 1, 52, 100
3, 70368, Note_on_c, 1, 55, 106
3, 70460, Note_off_c, 1, 55, 100
3, 70464, Note_on_c, 1, 48, 102
3, 70556, Note_off_c, 1, 48, 100
3, 70560, Note_on_c, 1, 51, 98
3, 70652, Note_off_c, 1, 51, 100
3, 70656, Note_on_c, 1, 52, 93
3, 70748, Note_off_c, 1, 52, 100
3, 70752, Note_on_c, 1, 55, 89
3, 70844, Note_off_c, 1, 55, 100
3, 70848, Note_on_c, 1, 52, 85
3, 70940, Note_off_c, 1, 52, 100
3, 70944, Note_on_c, 1, 50, 81
3, 71036, Note_off_c, 1, 50, 100
3, 71040, Note_on_c, 1, 48, 80
3, 71132, Note_off_c, 1, 48, 100
3, 71136, Note_on_c, 1, 60, 80
3, 71228, Note_off_c, 1, 60, 100
3, 71232, Note_on_c, 1, 64, 80
3, 71324, Note_off_c, 1, 64, 100
3, 71328, Note_on_c, 1, 62, 80
3, 71420, Note_off_c, 1, 62, 100
3, 71424, Note_on_c, 1, 60, 80
3, 71516, Note_off_c, 1, 60, 100
3, 71520, Note_on_c, 1, 64, 80
3, 71612, Note_off_c, 1, 64, 100
3, 71616, Note_on_c, 1, 60, 80
3, 71708, Note_off_c, 1, 60, 100
3, 71712, Note_on_c, 1, 59, 80
3, 71804, Note_off_c, 1, 59, 100
3, 71808, Note_on_c, 1, 57, 80
3, 71900, Note_off_c, 1, 57, 100
3, 71904, Note_on_c, 1, 60, 80
3, 71996, Note_off_c, 1, 60, 100
3, 72000, Note_on_c, 1, 57, 80
3, 72092, Note_off_c, 1, 57, 100
3, 72096, Note_on_c, 1, 55, 80
3, 72188, Note_off_c, 1, 55, 100
3, 72192, Note_on_c, 1, 54, 80
3, 72284, Note_off_c, 1, 54, 100
3, 72288, Note_on_c, 1, 57, 80
3, 72380, Note_off_c, 1, 57, 100
3, 72384, Note_on_c, 1, 54, 80
3, 72476, Note_off_c, 1, 54, 100
3, 72480, Note_on_c, 1, 52, 80
3, 72572, Note_off_c, 1, 52, 100
3, 72576, Note_on_c, 1, 50, 80
3, 72668, Note_off_c, 1, 50, 100
3, 72672, Note_on_c, 1, 52, 80
3, 72764, Note_off_c, 1, 52, 100
3, 72768, Note_on_c, 1, 54, 80
3, 72860, Note_off_c, 1, 54, 100
3, 72864, Note_on_c, 1, 55, 80
3, 72956, Note_off_c, 1, 55, 100
3, 72960, Note_on_c, 1, 57, 80
3, 73052, Note_off_c, 1, 57, 100
3, 73056, Note_on_c, 1, 50, 80
3, 73148, Note_off_c, 1, 50, 100
3, 73152, Note_on_c, 1, 52, 80
3, 73244, Note_off_c, 1, 52, 100
3, 73248, Note_on_c, 1, 54, 80
3, 73340, Note_off_c, 1, 54, 100
3, 73344, Note_on_c, 1, 55, 80
3, 73408, Note_on_c, 1, 59, 80
3, 73468, Note_off_c, 1, 59, 100
3, 73472, Note_on_c, 1, 62, 80
3, 73532, Note_off_c, 1, 62, 100
3, 73536, Note_on_c, 1, 59, 80
3, 73596, Note_off_c, 1, 59, 100
3, 73600, Note_on_c, 1, 62, 80
3, 73660, Note_off_c, 1, 62, 100
3, 73664, Note_on_c, 1, 59, 80
3, 73724, Note_off_c, 1, 55, 100
3, 73724, Note_off_c, 1, 59, 100
3, 73728, Note_on_c, 1, 55, 80
3, 73792, Note_on_c, 1, 60, 80
3, 73852, Note_off_c, 1, 60, 100
3, 73856, Note_on_c, 1, 62, 80
3, 73916, Note_off_c, 1, 62, 100
3, 73920, Note_on_c, 1, 60, 80
3, 73980, Note_off_c, 1, 60, 100
3, 73984, Note_on_c, 1, 62, 80
3, 74044, Note_off_c, 1, 62, 100
3, 74048, Note_on_c, 1, 60, 80
3, 74108, Note_off_c, 1, 55, 100
3, 74108, Note_off_c, 1, 60, 100
3, 74112, Note_on_c, 1, 55, 80
3, 74176, Note_on_c, 1, 59, 80
3, 74236, Note_off_c, 1, 59, 100
3, 74240, Note_on_c, 1, 62, 80
3, 74300, Note_off_c, 1, 62, 100
3, 74304, Note_on_c, 1, 59, 80
3, 74364, Note_off_c, 1, 59, 100
3, 74368, Note_on_c, 1, 62, 80
3, 74428, Note_off_c, 1, 62, 100
3, 74432, Note_on_c, 1, 59, 80
3, 74492, Note_off_c, 1, 55, 100
3, 74492, Note_off_c, 1, 59, 100
3, 74496, Note_on_c, 1, 54, 80
3, 74560, Note_on_c, 1, 57, 80
3, 74620, Note_off_c, 1, 57, 100
3, 74624, Note_on_c, 1, 62, 80
3, 74684, Note_off_c, 1, 62, 100
3, 74688, Note_on_c, 1, 57, 80
3, 74748, Note_off_c, 1, 57, 100
3, 74752, Note_on_c, 1, 62, 80
3, 74812, Note_off_c, 1, 62, 100
3, 74816, Note_on_c, 1, 57, 80
3, 74876, Note_off_c, 1, 54, 100
3, 74876, Note_off_c, 1, 57, 100
3, 74880, Note_on_c, 1, 55, 80
3, 74944, Note_on_c, 1, 59, 80
3, 75004, Note_off_c, 1, 59, 100
3, 75008, Note_on_c, 1, 62, 80
3, 75068, Note_off_c, 1, 62, 100
3, 75072, Note_on_c, 1, 59, 80
3, 75132, Note_off_c, 1, 59, 100
3, 75136, Note_on_c, 1, 62, 80
3, 75196, Note_off_c, 1, 62, 100
3, 75200, Note_on_c, 1, 59, 80
3, 75260, Note_off_c, 1, 55, 100
3, 75260, Note_off_c, 1, 59, 100
3, 75264, Note_on_c, 1, 55, 80
3, 75328, Note_on_c, 1, 60, 80
3, 75388, Note_off_c, 1, 60, 100
3, 75392, Note_on_c, 1, 62, 80
3, 75452, Note_off_c, 1, 62, 100
3, 75456, Note_on_c, 1, 60, 80
3, 75516, Note_off_c, 1, 60, 100
3, 75520, Note_on_c, 1, 62, 80
3, 75580, Note_off_c, 1, 62, 100
3, 75584, Note_on_c, 1, 60, 80
3, 75644, Note_off_c, 1, 55, 100
3, 75644, Note_off_c, 1, 60, 100
3, 75648, Note_on_c, 1, 55, 80
3, 75712, Note_on_c, 1, 59, 80
3, 75772, Note_off_c, 1, 59, 100
3, 75776, Note_on_c, 1, 62, 80
3, 75836, Note_off_c, 1, 62, 100
3, 75840, Note_on_c, 1, 59, 80
3, 75900, Note_off_c, 1, 59, 100
3, 75904, Note_on_c, 1, 62, 80
3, 75964, Note_off_c, 1, 62, 100
3, 75968, Note_on_c, 1, 59, 80
3, 76028, Note_off_c, 1, 55, 100
3, 76028, Note_off_c, 1, 59, 100
3, 76032, Note_on_c, 1, 54, 80
3, 76096, Note_on_c, 1, 57, 80
3, 76156, Note_off_c, 1, 57, 100
3, 76160, Note_on_c, 1, 62, 80
3, 76220, Note_off_c, 1, 62, 100
3, 76224, Note_on_c, 1, 57, 80
3, 76284, Note_off_c, 1, 57, 100
3, 76288, Note_on_c, 1, 62, 80
3, 76348, Note_off_c, 1, 62, 100
3, 76352, Note_on_c, 1, 57, 80
3, 76412, Note_off_c, 1, 54, 100
3, 76412, Note_off_c, 1, 57, 100
3, 76416, Note_on_c, 1, 55, 80
3, 76480, Note_on_c, 1, 59, 80
3, 76540, Note_off_c, 1, 59, 100
3, 76544, Note_on_c, 1, 62, 80
3, 76604, Note_off_c, 1, 62, 100
3, 76608, Note_on_c, 1, 59, 80
3, 76668, Note_off_c, 1, 59, 100
3, 76672, Note_on_c, 1, 62, 80
3, 76732, Note_off_c, 1, 62, 100
3, 76736, Note_on_c, 1, 59, 80
3, 76796, Note_off_c, 1, 55, 100
3, 76796, Note_off_c, 1, 59, 100
3, 76800, Note_on_c, 1, 54, 80
3, 76864, Note_on_c, 1, 57, 80
3, 76924, Note_off_c, 1, 57, 100
3, 76928, Note_on_c, 1, 62, 80
3, 76988, Note_off_c, 1, 62, 100
3, 76992, Note_on_c, 1, 57, 80
3, 77052, Note_off_c, 1, 57, 100
3, 77056, Note_on_c, 1, 62, 80
3, 77116, Note_off_c, 1, 62, 100
3, 77120, Note_on_c, 1, 57, 80
3, 77180, Note_off_c, 1, 54, 100
3, 77180, Note_off_c, 1, 57, 100
3, 77184, Note_on_c, 1, 55, 80
3, 77248, Note_on_c, 1, 59, 80
3, 77308, Note_off_c, 1, 59, 100
3, 77312, Note_on_c, 1, 62, 80
3, 77372, Note_off_c, 1, 62, 100
3, 77376, Note_on_c, 1, 59, 80
3, 77436, Note_off_c, 1, 59, 100
3, 77440, Note_on_c, 1, 62, 80
3, 77500, Note_off_c, 1, 62, 100
3, 77504, Note_on_c, 1, 59, 80
3, 77564, Note_off_c, 1, 55, 100
3, 77564, Note_off_c, 1, 59, 100
3, 77568, Note_on_c, 1, 54, 80
3, 77632, Note_on_c, 1, 57, 80
3, 77692, Note_off_c, 1, 57, 100
3, 77696, Note_on_c, 1, 62, 80
3, 77756, Note_off_c, 1, 62, 100
3, 77760, Note_on_c, 1, 57, 80
3, 77820, Note_off_c, 1, 57, 100
3, 77824, Note_on_c, 1, 62, 80
3, 77884, Note_off_c, 1, 62, 100
3, 77888, Note_on_c, 1, 57, 80
3, 77948, Note_off_c, 1, 54, 100
3, 77948, Note_off_c, 1, 57, 100
3, 77952, Note_on_c, 1, 62, 80
3, 77952, Note_on_c, 1, 59, 80
3, 77952, Note_on_c, 1, 55, 80
3, 78140, Note_off_c, 1, 62, 100
3, 78140, Note_off_c, 1, 59, 100
3, 78140, Note_off_c, 1, 55, 100
3, 79488, Note_on_c, 1, 65, 80
3, 79488, Note_on_c, 1, 67, 80
3, 79676, Note_off_c, 1, 65, 100
3, 79680, Note_on_c, 1, 62, 80
3, 79868, Note_off_c, 1, 67, 100
3, 79868, Note_off_c, 1, 62, 100
3, 79872, Note_on_c, 1, 67, 80
3, 79872, Note_on_c, 1, 59, 80
3, 80060, Note_off_c, 1, 67, 100
3, 80060, Note_off_c, 1, 59, 100
3, 80064, Note_on_c, 1, 67, 80
3, 80064, Note_on_c, 1, 60, 80
3, 80252, Note_off_c, 1, 67, 100
3, 80252, Note_off_c, 1, 60, 100
3, 80256, Note_on_c, 1, 65, 80
3, 80256, Note_on_c, 1, 67, 80
3, 80444, Note_off_c, 1, 65, 100
3, 80448, Note_on_c, 1, 62, 80
3, 80636, Note_off_c, 1, 67, 100
3, 80636, Note_off_c, 1, 62, 100
3, 80640, Note_on_c, 1, 67, 80
3, 80640, Note_on_c, 1, 59, 80
3, 80828, Note_off_c, 1, 67, 100
3, 80828, Note_off_c, 1, 59, 100
3, 80832, Note_on_c, 1, 67, 80
3, 80832, Note_on_c, 1, 60, 80
3, 81020, Note_off_c, 1, 67, 100
3, 81020, Note_off_c, 1, 60, 100
3, 81024, Note_on_c, 1, 65, 80
3, 81024, Note_on_c, 1, 53, 80
3, 81212, Note_off_c, 1, 65, 100
3, 81212, Note_off_c, 1, 53, 100
3, 81408, Note_on_c, 1, 55, 80
3, 81408, Note_on_c, 1, 59, 80
3, 81408, Note_on_c, 1, 62, 80
3, 81596, Note_off_c, 1, 55, 100
3, 81596, Note_off_c, 1, 59, 100
3, 81596, Note_off_c, 1, 62, 100
3, 81792, Note_on_c, 1, 60, 80
3, 81792, Note_on_c, 1, 55, 80
3, 81792, Note_on_c, 1, 52, 80
3, 81792, Note_on_c, 1, 48, 80
3, 82172, Note_off_c, 1, 60, 100
3, 82172, Note_off_c, 1, 55, 100
3, 82172, Note_off_c, 1, 52, 100
3, 82172, Note_off_c, 1, 48, 100
3, 82368, Note_on_c, 1, 64, 120
3, 82368, Note_on_c, 1, 67, 120
3, 82556, Note_off_c, 1, 64, 100
3, 82556, Note_off_c, 1, 67, 100
3, 82560, Note_on_c, 1, 65, 120
3, 82560, Note_on_c, 1, 68, 120
3, 82748, Note_off_c, 1, 65, 100
3, 82748, Note_off_c, 1, 68, 100
3, 82752, Note_on_c, 1, 62, 120
3, 82752, Note_on_c, 1, 65, 120
3, 82940, Note_off_c, 1, 62, 100
3, 82940, Note_off_c, 1, 65, 100
3, 82944, Note_on_c, 1, 59, 120
3, 82944, Note_on_c, 1, 62, 120
3, 83132, Note_off_c, 1, 59, 100
3, 83132, Note_off_c, 1, 62, 100
3, 83136, Note_on_c, 1, 60, 120
3, 83136, Note_on_c, 1, 63, 120
3, 83324, Note_off_c, 1, 60, 100
3, 83324, Note_off_c, 1, 63, 100
3, 83328, Note_on_c, 1, 65, 120
3, 83328, Note_on_c, 1, 68, 120
3, 83516, Note_off_c, 1, 65, 100
3, 83516, Note_off_c, 1, 68, 100
3, 83520, Note_on_c, 1, 62, 120
3, 83520, Note_on_c, 1, 65, 120
3, 83708, Note_off_c, 1, 62, 100
3, 83708, Note_off_c, 1, 65, 100
3, 83712, Note_on_c, 1, 59, 120
3, 83712, Note_on_c, 1, 62, 120
3, 83900, Note_off_c, 1, 59, 100
3, 83900, Note_off_c, 1, 62, 100
3, 83904, Note_on_c, 1, 60, 120
3, 83904, Note_on_c, 1, 63, 120
3, 84092, Note_off_c, 1, 60, 100
3, 84092, Note_off_c, 1, 63, 100
3, 84096, Note_on_c, 1, 62, 100
3, 84096, Note_on_c, 1, 56, 100
3, 84096, Note_on_c, 1, 53, 100
3, 84284, Note_off_c, 1, 62, 100
3, 84284, Note_off_c, 1, 56, 100
3, 84284, Note_off_c, 1, 53, 100
3, 84480, Note_on_c, 1, 62, 100
3, 84480, Note_on_c, 1, 59, 100
3, 84480, Note_on_c, 1, 55, 100
3, 84668, Note_off_c, 1, 62, 100
3, 84668, Note_off_c, 1, 59, 100
3, 84668, Note_off_c, 1, 55, 100
3, 84864, Note_on_c, 1, 60, 100
3, 84864, Note_on_c, 1, 56, 100
3, 85052, Note_off_c, 1, 60, 100
3, 85052, Note_off_c, 1, 56, 100
3, 85632, Note_on_c, 1, 60, 70
3, 85632, Note_on_c, 1, 57, 70
3, 85632, Note_on_c, 1, 54, 70
3, 85820, Note_off_c, 1, 60, 100
3, 85820, Note_off_c, 1, 57, 100
3, 85820, Note_off_c, 1, 54, 100
3, 86400, Note_on_c, 1, 55, 80
3, 86400, Note_on_c, 1, 53, 80
3, 86588, Note_off_c, 1, 55, 100
3, 86588, Note_off_c, 1, 53, 100
3, 86592, Note_on_c, 1, 55, 81
3, 86592, Note_on_c, 1, 47, 81
3, 86780, Note_off_c, 1, 55, 100
3, 86780, Note_off_c, 1, 47, 100
3, 86784, Note_on_c, 1, 48, 83
3, 86784, Note_on_c, 1, 55, 83
3, 86972, Note_off_c, 1, 48, 100
3, 86972, Note_off_c, 1, 55, 100
3, 86976, Note_on_c, 1, 55, 85
3, 86976, Note_on_c, 1, 43, 85
3, 87164, Note_off_c, 1, 55, 100
3, 87164, Note_off_c, 1, 43, 100
3, 87168, Note_on_c, 1, 55, 87
3, 87168, Note_on_c, 1, 50, 87
3, 87356, Note_off_c, 1, 55, 100
3, 87356, Note_off_c, 1, 50, 100
3, 87360, Note_on_c, 1, 55, 89
3, 87360, Note_on_c, 1, 43, 89
3, 87548, Note_off_c, 1, 55, 100
3, 87548, Note_off_c, 1, 43, 100
3, 87552, Note_on_c, 1, 55, 91
3, 87552, Note_on_c, 1, 48, 91
3, 87740, Note_off_c, 1, 55, 100
3, 87740, Note_off_c, 1, 48, 100
3, 87744, Note_on_c, 1, 55, 93
3, 87744, Note_on_c, 1, 43, 93
3, 87932, Note_off_c, 1, 55, 100
3, 87932, Note_off_c, 1, 43, 100
3, 87936, Note_on_c, 1, 55, 95
3, 87936, Note_on_c, 1, 50, 95
3, 88124, Note_off_c, 1, 55, 100
3, 88124, Note_off_c, 1, 50, 100
3, 88128, Note_on_c, 1, 55, 97
3, 88128, Note_on_c, 1, 53, 97
3, 88316, Note_off_c, 1, 55, 100
3, 88316, Note_off_c, 1, 53, 100
3, 88320, Note_on_c, 1, 55, 99
3, 88320, Note_on_c, 1, 52, 99
3, 88508, Note_off_c, 1, 55, 100
3, 88508, Note_off_c, 1, 52, 100
3, 88512, Note_on_c, 1, 55, 101
3, 88512, Note_on_c, 1, 48, 101
3, 88700, Note_off_c, 1, 55, 100
3, 88700, Note_off_c, 1, 48, 100
3, 88704, Note_on_c, 1, 55, 103
3, 88704, Note_on_c, 1, 50, 103
3, 88892, Note_off_c, 1, 55, 100
3, 88892, Note_off_c, 1, 50, 100
3, 88896, Note_on_c, 1, 55, 105
3, 88896, Note_on_c, 1, 53, 105
3, 89084, Note_off_c, 1, 55, 100
3, 89084, Note_off_c, 1, 53, 100
3, 89088, Note_on_c, 1, 55, 107
3, 89088, Note_on_c, 1, 52, 107
3, 89276, Note_off_c, 1, 55, 100
3, 89276, Note_off_c, 1, 52, 100
3, 89280, Note_on_c, 1, 55, 108
3, 89280, Note_on_c, 1, 48, 108
3, 89468, Note_off_c, 1, 55, 100
3, 89468, Note_off_c, 1, 48, 100
3, 89472, Note_on_c, 1, 50, 100
3, 89472, Note_on_c, 1, 45, 100
3, 89472, Note_on_c, 1, 41, 100
3, 89660, Note_off_c, 1, 50, 100
3, 89660, Note_off_c, 1, 45, 100
3, 89660, Note_off_c, 1, 41, 100
3, 89856, Note_on_c, 1, 62, 100
3, 89856, Note_on_c, 1, 57, 100
3, 89856, Note_on_c, 1, 53, 100
3, 90044, Note_off_c, 1, 62, 100
3, 90044, Note_off_c, 1, 57, 100
3, 90044, Note_off_c, 1, 53, 100
3, 91200, Note_on_c, 1, 62, 100
3, 91580, Note_off_c, 1, 62, 100
3, 91584, Note_on_c, 1, 64, 100
3, 91676, Note_off_c, 1, 64, 100
3, 91680, Note_on_c, 1, 65, 100
3, 91772, Note_off_c, 1, 65, 100
3, 91776, Note_on_c, 1, 67, 100
3, 92156, Note_off_c, 1, 67, 100
3, 92160, Note_on_c, 1, 55, 100
3, 92160, Note_on_c, 1, 59, 100
3, 92160, Note_on_c, 1, 62, 100
3, 92160, Note_on_c, 1, 65, 100
3, 92540, Note_off_c, 1, 55, 100
3, 92540, Note_off_c, 1, 59, 100
3, 92540, Note_off_c, 1, 62, 100
3, 92540, Note_off_c, 1, 65, 100
3, 92544, Note_on_c, 1, 60, 100
3, 92604, Note_off_c, 1, 60, 100
3, 92608, Note_on_c, 1, 64, 100
3, 92668, Note_off_c, 1, 64, 100
3, 92672, Note_on_c, 1, 67, 100
3, 92732, Note_off_c, 1, 67, 100
3, 92736, Note_on_c, 1, 60, 100
3, 92796, Note_off_c, 1, 60, 100
3, 92800, Note_on_c, 1, 64, 100
3, 92860, Note_off_c, 1, 64, 100
3, 92864, Note_on_c, 1, 67, 100
3, 92924, Note_off_c, 1, 67, 100
3, 92928, Note_on_c, 1, 60, 80
3, 92988, Note_off_c, 1, 60, 100
3, 92992, Note_on_c, 1, 64, 80
3, 93052, Note_off_c, 1, 64, 100
3, 93056, Note_on_c, 1, 67, 80
3, 93116, Note_off_c, 1, 67, 100
3, 93120, Note_on_c, 1, 60, 80
3, 93180, Note_off_c, 1, 60, 100
3, 93184, Note_on_c, 1, 64, 80
3, 93244, Note_off_c, 1, 64, 100
3, 93248, Note_on_c, 1, 67, 80
3, 93308, Note_off_c, 1, 67, 100
3, 93312, Note_on_c, 1, 60, 80
3, 93372, Note_off_c, 1, 60, 100
3, 93376, Note_on_c, 1, 64, 80
3, 93436, Note_off_c, 1, 64, 100
3, 93440, Note_on_c, 1, 67, 80
3, 93500, Note_off_c, 1, 67, 100
3, 93504, Note_on_c, 1, 60, 80
3, 93564, Note_off_c, 1, 60, 100
3, 93568, Note_on_c, 1, 64, 80
3, 93628, Note_off_c, 1, 64, 100
3, 93632, Note_on_c, 1, 67, 80
3, 93692, Note_off_c, 1, 67, 100
3, 93696, Note_on_c, 1, 60, 80
3, 93756, Note_off_c, 1, 60, 100
3, 93760, Note_on_c, 1, 64, 80
3, 93820, Note_off_c, 1, 64, 100
3, 93824, Note_on_c, 1, 67, 80
3, 93884, Note_off_c, 1, 67, 100
3, 93888, Note_on_c, 1, 60, 80
3, 93948, Note_off_c, 1, 60, 100
3, 93952, Note_on_c, 1, 64, 80
3, 94012, Note_off_c, 1, 64, 100
3, 94016, Note_on_c, 1, 67, 80
3, 94076, Note_off_c, 1, 67, 100
3, 94080, Note_on_c, 1, 57, 80
3, 94080, Note_on_c, 1, 53, 80
3, 94140, Note_off_c, 1, 57, 100
3, 94140, Note_off_c, 1, 53, 100
3, 94144, Note_on_c, 1, 60, 80
3, 94204, Note_off_c, 1, 60, 100
3, 94208, Note_on_c, 1, 62, 80
3, 94268, Note_off_c, 1, 62, 100
3, 94272, Note_on_c, 1, 57, 80
3, 94272, Note_on_c, 1, 53, 80
3, 94332, Note_off_c, 1, 57, 100
3, 94332, Note_off_c, 1, 53, 100
3, 94336, Note_on_c, 1, 60, 80
3, 94396, Note_off_c, 1, 60, 100
3, 94400, Note_on_c, 1, 62, 80
3, 94460, Note_off_c, 1, 62, 100
3, 94464, Note_on_c, 1, 54, 100
3, 94464, Note_on_c, 1, 57, 100
3, 94524, Note_off_c, 1, 54, 100
3, 94524, Note_off_c, 1, 57, 100
3, 94528, Note_on_c, 1, 60, 100
3, 94588, Note_off_c, 1, 60, 100
3, 94592, Note_on_c, 1, 62, 100
3, 94652, Note_off_c, 1, 62, 100
3, 94656, Note_on_c, 1, 54, 100
3, 94656, Note_on_c, 1, 57, 100
3, 94716, Note_off_c, 1, 54, 100
3, 94716, Note_off_c, 1, 57, 100
3, 94720, Note_on_c, 1, 60, 100
3, 94780, Note_off_c, 1, 60, 100
3, 94784, Note_on_c, 1, 62, 100
3, 94844, Note_off_c, 1, 62, 100
3, 94848, Note_on_c, 1, 55, 100
3, 94908, Note_off_c, 1, 55, 100
3, 94912, Note_on_c, 1, 60, 100
3, 94972, Note_off_c, 1, 60, 100
3, 94976, Note_on_c, 1, 64, 100
3, 95036, Note_off_c, 1, 64, 100
3, 95040, Note_on_c, 1, 55, 100
3, 95100, Note_off_c, 1, 55, 100
3, 95104, Note_on_c, 1, 60, 100
3, 95164, Note_off_c, 1, 60, 100
3, 95168, Note_on_c, 1, 64, 100
3, 95228, Note_off_c, 1, 64, 100
3, 95232, Note_on_c, 1, 55, 100
3, 95292, Note_off_c, 1, 55, 100
3, 95296, Note_on_c, 1, 59, 100
3, 95356, Note_off_c, 1, 59, 100
3, 95360, Note_on_c, 1, 62, 100
3, 95420, Note_off_c, 1, 62, 100
3, 95424, Note_on_c, 1, 55, 100
3, 95484, Note_off_c, 1, 55, 100
3, 95488, Note_on_c, 1, 59, 100
3, 95548, Note_off_c, 1, 59, 100
3, 95552, Note_on_c, 1, 62, 100
3, 95612, Note_off_c, 1, 62, 100
3, 95616, Note_on_c, 1, 48, 100
3, 95660, Note_off_c, 1, 48, 100
3, 95664, Note_on_c, 1, 52, 100
3, 95708, Note_off_c, 1, 52, 100
3, 95712, Note_on_c, 1, 55, 100
3, 95756, Note_off_c, 1, 55, 100
3, 95760, Note_on_c, 1, 60, 100
3, 95804, Note_off_c, 1, 60, 100
3, 95808, Note_on_c, 1, 48, 100
3, 95852, Note_off_c, 1, 48, 100
3, 95856, Note_on_c, 1, 52, 100
3, 95900, Note_off_c, 1, 52, 100
3, 95904, Note_on_c, 1, 55, 100
3, 95948, Note_off_c, 1, 55, 100
3, 95952, Note_on_c, 1, 60, 80
3, 95996, Note_off_c, 1, 60, 100
3, 96000, Note_on_c, 1, 48, 80
3, 96044, Note_off_c, 1, 48, 100
3, 96048, Note_on_c, 1, 52, 80
3, 96092, Note_off_c, 1, 52, 100
3, 96096, Note_on_c, 1, 55, 80
3, 96140, Note_off_c, 1, 55, 100
3, 96144, Note_on_c, 1, 60, 80
3, 96188, Note_off_c, 1, 60, 100
3, 96192, Note_on_c, 1, 48, 80
3, 96236, Note_off_c, 1, 48, 100
3, 96240, Note_on_c, 1, 52, 80
3, 96284, Note_off_c, 1, 52, 100
3, 96288, Note_on_c, 1, 55, 80
3, 96332, Note_off_c, 1, 55, 100
3, 96336, Note_on_c, 1, 60, 80
3, 96380, Note_off_c, 1, 60, 100
3, 96384, Note_on_c, 1, 48, 80
3, 96428, Note_off_c, 1, 48, 100
3, 96432, Note_on_c, 1, 52, 80
3, 96476, Note_off_c, 1, 52, 100
3, 96480, Note_on_c, 1, 55, 80
3, 96524, Note_off_c, 1, 55, 100
3, 96528, Note_on_c, 1, 60, 80
3, 96572, Note_off_c, 1, 60, 100
3, 96576, Note_on_c, 1, 48, 80
3, 96620, Note_off_c, 1, 48, 100
3, 96624, Note_on_c, 1, 52, 80
3, 96668, Note_off_c, 1, 52, 100
3, 96672, Note_on_c, 1, 55, 80
3, 96716, Note_off_c, 1, 55, 100
3, 96720, Note_on_c, 1, 60, 80
3, 96764, Note_off_c, 1, 60, 100
3, 96768, Note_on_c, 1, 52, 80
3, 96828, Note_off_c, 1, 52, 100
3, 96832, Note_on_c, 1, 55, 80
3, 96892, Note_off_c, 1, 55, 100
3, 96896, Note_on_c, 1, 60, 80
3, 96956, Note_off_c, 1, 60, 100
3, 96960, Note_on_c, 1, 52, 80
3, 97020, Note_off_c, 1, 52, 100
3, 97024, Note_on_c, 1, 55, 80
3, 97084, Note_off_c, 1, 55, 100
3, 97088, Note_on_c, 1, 60, 80
3, 97148, Note_off_c, 1, 60, 100
3, 97152, Note_on_c, 1, 53, 80
3, 97200, Note_on_c, 1, 57, 80
3, 97244, Note_off_c, 1, 53, 100
3, 97248, Note_on_c, 1, 60, 80
3, 97292, Note_off_c, 1, 57, 100
3, 97296, Note_on_c, 1, 62, 80
3, 97336, Note_off_c, 1, 60, 100
3, 97344, Note_on_c, 1, 53, 80
3, 97380, Note_off_c, 1, 62, 100
3, 97392, Note_on_c, 1, 57, 80
3, 97436, Note_off_c, 1, 53, 100
3, 97440, Note_on_c, 1, 60, 80
3, 97476, Note_off_c, 1, 57, 100
3, 97488, Note_on_c, 1, 62, 100
3, 97528, Note_off_c, 1, 60, 100
3, 97536, Note_on_c, 1, 54, 100
3, 97580, Note_off_c, 1, 62, 100
3, 97584, Note_on_c, 1, 57, 100
3, 97620, Note_off_c, 1, 54, 100
3, 97632, Note_on_c, 1, 60, 101
3, 97664, Note_off_c, 1, 57, 100
3, 97680, Note_on_c, 1, 62, 101
3, 97720, Note_off_c, 1, 60, 100
3, 97728, Note_on_c, 1, 54, 101
3, 97768, Note_off_c, 1, 62, 100
3, 97776, Note_on_c, 1, 57, 102
3, 97820, Note_off_c, 1, 54, 100
3, 97824, Note_on_c, 1, 60, 102
3, 97856, Note_off_c, 1, 57, 100
3, 97872, Note_on_c, 1, 62, 102
3, 97904, Note_off_c, 1, 60, 100
3, 97920, Note_on_c, 1, 55, 103
3, 97960, Note_off_c, 1, 62, 100
3, 97984, Note_on_c, 1, 60, 103
3, 98012, Note_off_c, 1, 55, 100
3, 98048, Note_on_c, 1, 64, 104
3, 98076, Note_off_c, 1, 60, 100
3, 98112, Note_on_c, 1, 55, 104
3, 98140, Note_off_c, 1, 64, 100
3, 98176, Note_on_c, 1, 60, 105
3, 98200, Note_off_c, 1, 55, 100
3, 98240, Note_on_c, 1, 64, 105
3, 98268, Note_off_c, 1, 60, 100
3, 98304, Note_on_c, 1, 55, 106
3, 98332, Note_off_c, 1, 64, 100
3, 98368, Note_on_c, 1, 59, 106
3, 98396, Note_off_c, 1, 55, 100
3, 98432, Note_on_c, 1, 62, 107
3, 98456, Note_off_c, 1, 59, 100
3, 98496, Note_on_c, 1, 55, 107
3, 98524, Note_off_c, 1, 62, 100
3, 98560, Note_on_c, 1, 59, 107
3, 98584, Note_off_c, 1, 55, 100
3, 98624, Note_on_c, 1, 62, 108
3, 98648, Note_off_c, 1, 59, 100
3, 98688, Note_on_c, 1, 48, 108
3, 98712, Note_off_c, 1, 62, 100
3, 98736, Note_on_c, 1, 52, 109
3, 98772, Note_off_c, 1, 48, 100
3, 98784, Note_on_c, 1, 55, 109
3, 98816, Note_off_c, 1, 52, 100
3, 98832, Note_on_c, 1, 60, 109
3, 98856, Note_off_c, 1, 55, 100
3, 98880, Note_on_c, 1, 48, 110
3, 98924, Note_off_c, 1, 60, 100
3, 98928, Note_on_c, 1, 52, 110
3, 98964, Note_off_c, 1, 48, 100
3, 98976, Note_on_c, 1, 55, 111
3, 99008, Note_off_c, 1, 52, 100
3, 99024, Note_on_c, 1, 60, 111
3, 99056, Note_off_c, 1, 55, 100
3, 99072, Note_on_c, 1, 48, 111
3, 99108, Note_off_c, 1, 60, 100
3, 99136, Note_on_c, 1, 51, 112
3, 99164, Note_off_c, 1, 48, 100
3, 99200, Note_on_c, 1, 55, 112
3, 99224, Note_off_c, 1, 51, 100
3, 99264, Note_on_c, 1, 48, 113
3, 99292, Note_off_c, 1, 55, 100
3, 99328, Note_on_c, 1, 51, 113
3, 99356, Note_off_c, 1, 48, 100
3, 99392, Note_on_c, 1, 55, 114
3, 99420, Note_off_c, 1, 51, 100
3, 99456, Note_on_c, 1, 43, 114
3, 99484, Note_off_c, 1, 55, 100
3, 99504, Note_on_c, 1, 48, 114
3, 99544, Note_off_c, 1, 43, 100
3, 99552, Note_on_c, 1, 50, 115
3, 99596, Note_off_c, 1, 48, 100
3, 99600, Note_on_c, 1, 55, 115
3, 99636, Note_off_c, 1, 50, 100
3, 99648, Note_on_c, 1, 43, 116
3, 99680, Note_off_c, 1, 55, 100
3, 99696, Note_on_c, 1, 48, 116
3, 99736, Note_off_c, 1, 43, 100
3, 99744, Note_on_c, 1, 50, 116
3, 99780, Note_off_c, 1, 48, 100
3, 99792, Note_on_c, 1, 55, 117
3, 99828, Note_off_c, 1, 50, 100
3, 99840, Note_on_c, 1, 43, 117
3, 99876, Note_off_c, 1, 55, 100
3, 99888, Note_on_c, 1, 47, 117
3, 99924, Note_off_c, 1, 43, 100
3, 99936, Note_on_c, 1, 50, 118
3, 99964, Note_off_c, 1, 47, 100
3, 99984, Note_on_c, 1, 55, 118
3, 100020, Note_off_c, 1, 50, 100
3, 100032, Note_on_c, 1, 43, 118
3, 100072, Note_off_c, 1, 55, 100
3, 100080, Note_on_c, 1, 47, 119
3, 100120, Note_off_c, 1, 43, 100
3, 100128, Note_on_c, 1, 50, 119
3, 100164, Note_off_c, 1, 47, 100
3, 100176, Note_on_c, 1, 55, 120
3, 100204, Note_off_c, 1, 50, 100
3, 100220, Note_off_c, 1, 55, 100
3, 100224, Note_on_c, 1, 48, 120
3, 100412, Note_off_c, 1, 48, 100
3, 100608, Note_on_c, 1, 55, 120
3, 100608, Note_on_c, 1, 43, 120
3, 100796, Note_off_c, 1, 55, 100
3, 100796, Note_off_c, 1, 43, 100
3, 100992, Note_on_c, 1, 48, 120
3, 100992, Note_on_c, 1, 36, 120
3, 101372, Note_off_c, 1, 48, 100
3, 101372, Note_off_c, 1, 36, 100
3, 101760, Note_on_c, 1, 57, 80
3, 101760, Note_on_c, 1, 45, 80
3, 101948, Note_off_c, 1, 57, 100
3, 101948, Note_off_c, 1, 45, 100
3, 102144, Note_on_c, 1, 52, 80
3, 102144, Note_on_c, 1, 40, 80
3, 102332, Note_off_c, 1, 52, 100
3, 102332, Note_off_c, 1, 40, 100
3, 102528, Note_on_c, 1, 45, 80
3, 102528, Note_on_c, 1, 33, 80
3, 102716, Note_off_c, 1, 45, 100
3, 102716, Note_off_c, 1, 33, 100
3, 103296, Note_on_c, 1, 62, 80
3, 103484, Note_off_c, 1, 62, 100
3, 103680, Note_on_c, 1, 57, 80
3, 103868, Note_off_c, 1, 57, 100
3, 104064, Note_on_c, 1, 50, 80
3, 104252, Note_off_c, 1, 50, 100
3, 104832, Note_on_c, 1, 57, 80
3, 105020, Note_off_c, 1, 57, 100
3, 105216, Note_on_c, 1, 52, 80
3, 105404, Note_off_c, 1, 52, 100
3, 105600, Note_on_c, 1, 45, 80
3, 105788, Note_off_c, 1, 45, 100
3, 106432, Note_on_c, 1, 38, 110
3, 106492, Note_off_c, 1, 38, 100
3, 106496, Note_on_c, 1, 40, 110
3, 106556, Note_off_c, 1, 40, 100
3, 106560, Note_on_c, 1, 41, 110
3, 106620, Note_off_c, 1, 41, 100
3, 106624, Note_on_c, 1, 40, 110
3, 106684, Note_off_c, 1, 40, 100
3, 106688, Note_on_c, 1, 38, 110
3, 106748, Note_off_c, 1, 38, 100
3, 106816, Note_on_c, 1, 45, 110
3, 106876, Note_off_c, 1, 45, 100
3, 106880, Note_on_c, 1, 47, 110
3, 106940, Note_off_c, 1, 47, 100
3, 106944, Note_on_c, 1, 49, 110
3, 107004, Note_off_c, 1, 49, 100
3, 107008, Note_on_c, 1, 47, 110
3, 107068, Note_off_c, 1, 47, 100
3, 107072, Note_on_c, 1, 45, 110
3, 107132, Note_off_c, 1, 45, 100
3, 107200, Note_on_c, 1, 50, 110
3, 107260, Note_off_c, 1, 50, 100
3, 107264, Note_on_c, 1, 52, 110
3, 107324, Note_off_c, 1, 52, 100
3, 107328, Note_on_c, 1, 53, 110
3, 107388, Note_off_c, 1, 53, 100
3, 107392, Note_on_c, 1, 52, 110
3, 107452, Note_off_c, 1, 52, 100
3, 107456, Note_on_c, 1, 50, 110
3, 107516, Note_off_c, 1, 50, 100
3, 107520, Note_on_c, 1, 57, 110
3, 107612, Note_off_c, 1, 57, 100
3, 107616, Note_on_c, 1, 53, 110
3, 107708, Note_off_c, 1, 53, 100
3, 107712, Note_on_c, 1, 52, 110
3, 107804, Note_off_c, 1, 52, 100
3, 107808, Note_on_c, 1, 50, 110
3, 107900, Note_off_c, 1, 50, 100
3, 107968, Note_on_c, 1, 45, 110
3, 108028, Note_off_c, 1, 45, 100
3, 108032, Note_on_c, 1, 47, 110
3, 108092, Note_off_c, 1, 47, 100
3, 108096, Note_on_c, 1, 49, 110
3, 108156, Note_off_c, 1, 49, 100
3, 108160, Note_on_c, 1, 47, 110
3, 108220, Note_off_c, 1, 47, 100
3, 108224, Note_on_c, 1, 45, 110
3, 108284, Note_off_c, 1, 45, 100
3, 108352, Note_on_c, 1, 52, 110
3, 108412, Note_off_c, 1, 52, 100
3, 108416, Note_on_c, 1, 54, 110
3, 108476, Note_off_c, 1, 54, 100
3, 108480, Note_on_c, 1, 56, 110
3, 108540, Note_off_c, 1, 56, 100
3, 108544, Note_on_c, 1, 54, 110
3, 108604, Note_off_c, 1, 54, 100
3, 108608, Note_on_c, 1, 52, 110
3, 108668, Note_off_c, 1, 52, 100
3, 108768, Note_on_c, 1, 56, 110
3, 108860, Note_off_c, 1, 56, 100
3, 108864, Note_on_c, 1, 57, 110
3, 108956, Note_off_c, 1, 57, 100
3, 108960, Note_on_c, 1, 58, 110
3, 109052, Note_off_c, 1, 58, 100
3, 109056, Note_on_c, 1, 57, 110
3, 109148, Note_off_c, 1, 57, 100
3, 109152, Note_on_c, 1, 55, 110
3, 109244, Note_off_c, 1, 55, 100
3, 109248, Note_on_c, 1, 53, 110
3, 109340, Note_off_c, 1, 53, 100
3, 109344, Note_on_c, 1, 52, 110
3, 109436, Note_off_c, 1, 52, 100
3, 109440, Note_on_c, 1, 38, 80
3, 109628, Note_off_c, 1, 38, 100
3, 109632, Note_on_c, 1, 57, 80
3, 109632, Note_on_c, 1, 53, 80
3, 109632, Note_on_c, 1, 50, 80
3, 109820, Note_off_c, 1, 57, 100
3, 109820, Note_off_c, 1, 53, 100
3, 109820, Note_off_c, 1, 50, 100
3, 109824, Note_on_c, 1, 57, 80
3, 109824, Note_on_c, 1, 53, 80
3, 109824, Note_on_c, 1, 50, 80
3, 110012, Note_off_c, 1, 57, 100
3, 110012, Note_off_c, 1, 53, 100
3, 110012, Note_off_c, 1, 50, 100
3, 110016, Note_on_c, 1, 57, 80
3, 110016, Note_on_c, 1, 53, 80
3, 110016, Note_on_c, 1, 50, 80
3, 110204, Note_off_c, 1, 57, 100
3, 110204, Note_off_c, 1, 53, 100
3, 110204, Note_off_c, 1, 50, 100
3, 110208, Note_on_c, 1, 40, 80
3, 110396, Note_off_c, 1, 40, 100
3, 110400, Note_on_c, 1, 57, 80
3, 110400, Note_on_c, 1, 55, 80
3, 110400, Note_on_c, 1, 52, 80
3, 110588, Note_off_c, 1, 57, 100
3, 110588, Note_off_c, 1, 55, 100
3, 110588, Note_off_c, 1, 52, 100
3, 110592, Note_on_c, 1, 57, 80
3, 110592, Note_on_c, 1, 55, 80
3, 110592, Note_on_c, 1, 52, 80
3, 110780, Note_off_c, 1, 57, 100
3, 110780, Note_off_c, 1, 55, 100
3, 110780, Note_off_c, 1, 52, 100
3, 110784, Note_on_c, 1, 57, 80
3, 110784, Note_on_c, 1, 55, 80
3, 110784, Note_on_c, 1, 52, 80
3, 110972, Note_off_c, 1, 57, 100
3, 110972, Note_off_c, 1, 55, 100
3, 110972, Note_off_c, 1, 52, 100
3, 110976, Note_on_c, 1, 41, 80
3, 111164, Note_off_c, 1, 41, 100
3, 111168, Note_on_c, 1, 57, 80
3, 111168, Note_on_c, 1, 53, 80
3, 111356, Note_off_c, 1, 57, 100
3, 111356, Note_off_c, 1, 53, 100
3, 111360, Note_on_c, 1, 57, 80
3, 111360, Note_on_c, 1, 53, 80
3, 111548, Note_off_c, 1, 57, 100
3, 111548, Note_off_c, 1, 53, 100
3, 111552, Note_on_c, 1, 57, 80
3, 111552, Note_on_c, 1, 53, 80
3, 111740, Note_off_c, 1, 57, 100
3, 111740, Note_off_c, 1, 53, 100
3, 111744, Note_on_c, 1, 37, 80
3, 111932, Note_off_c, 1, 37, 100
3, 111936, Note_on_c, 1, 57, 80
3, 111936, Note_on_c, 1, 49, 80
3, 112124, Note_off_c, 1, 57, 100
3, 112124, Note_off_c, 1, 49, 100
3, 112128, Note_on_c, 1, 57, 80
3, 112128, Note_on_c, 1, 49, 80
3, 112316, Note_off_c, 1, 57, 100
3, 112316, Note_off_c, 1, 49, 100
3, 112320, Note_on_c, 1, 57, 80
3, 112320, Note_on_c, 1, 49, 80
3, 112508, Note_off_c, 1, 57, 100
3, 112508, Note_off_c, 1, 49, 100
3, 112512, Note_on_c, 1, 50, 80
3, 112700, Note_off_c, 1, 50, 100
3, 112704, Note_on_c, 1, 62, 82
3, 112892, Note_off_c, 1, 62, 100
3, 112896, Note_on_c, 1, 48, 84
3, 113084, Note_off_c, 1, 48, 100
3, 113088, Note_on_c, 1, 60, 87
3, 113276, Note_off_c, 1, 60, 100
3, 113280, Note_on_c, 1, 46, 89
3, 113468, Note_off_c, 1, 46, 100
3, 113472, Note_on_c, 1, 58, 92
3, 113660, Note_off_c, 1, 58, 100
3, 113664, Note_on_c, 1, 42, 94
3, 113852, Note_off_c, 1, 42, 100
3, 113856, Note_on_c, 1, 54, 97
3, 114044, Note_off_c, 1, 54, 100
3, 114048, Note_on_c, 1, 43, 99
3, 114236, Note_off_c, 1, 43, 100
3, 114240, Note_on_c, 1, 55, 80
3, 114240, Note_on_c, 1, 58, 80
3, 114240, Note_on_c, 1, 62, 80
3, 114428, Note_off_c, 1, 55, 100
3, 114428, Note_off_c, 1, 58, 100
3, 114428, Note_off_c, 1, 62, 100
3, 114432, Note_on_c, 1, 55, 80
3, 114432, Note_on_c, 1, 58, 80
3, 114432, Note_on_c, 1, 62, 80
3, 114620, Note_off_c, 1, 55, 100
3, 114620, Note_off_c, 1, 58, 100
3, 114620, Note_off_c, 1, 62, 100
3, 114624, Note_on_c, 1, 55, 80
3, 114624, Note_on_c, 1, 58, 80
3, 114624, Note_on_c, 1, 62, 80
3, 114812, Note_off_c, 1, 55, 100
3, 114812, Note_off_c, 1, 58, 100
3, 114812, Note_off_c, 1, 62, 100
3, 114816, Note_on_c, 1, 45, 80
3, 115004, Note_off_c, 1, 45, 100
3, 115008, Note_on_c, 1, 57, 80
3, 115008, Note_on_c, 1, 60, 80
3, 115008, Note_on_c, 1, 62, 80
3, 115196, Note_off_c, 1, 57, 100
3, 115196, Note_off_c, 1, 60, 100
3, 115196, Note_off_c, 1, 62, 100
3, 115200, Note_on_c, 1, 57, 80
3, 115200, Note_on_c, 1, 60, 80
3, 115200, Note_on_c, 1, 62, 80
3, 115388, Note_off_c, 1, 57, 100
3, 115388, Note_off_c, 1, 60, 100
3, 115388, Note_off_c, 1, 62, 100
3, 115392, Note_on_c, 1, 57, 80
3, 115392, Note_on_c, 1, 60, 80
3, 115392, Note_on_c, 1, 62, 80
3, 115580, Note_off_c, 1, 57, 100
3, 115580, Note_off_c, 1, 60, 100
3, 115580, Note_off_c, 1, 62, 100
3, 115584, Note_on_c, 1, 46, 80
3, 115772, Note_off_c, 1, 46, 100
3, 115776, Note_on_c, 1, 58, 80
3, 115776, Note_on_c, 1, 62, 80
3, 115964, Note_off_c, 1, 58, 100
3, 115964, Note_off_c, 1, 62, 100
3, 115968, Note_on_c, 1, 58, 80
3, 115968, Note_on_c, 1, 62, 80
3, 116156, Note_off_c, 1, 58, 100
3, 116156, Note_off_c, 1, 62, 100
3, 116160, Note_on_c, 1, 58, 80
3, 116160, Note_on_c, 1, 62, 80
3, 116348, Note_off_c, 1, 58, 100
3, 116348, Note_off_c, 1, 62, 100
3, 116352, Note_on_c, 1, 54, 80
3, 116540, Note_off_c, 1, 54, 100
3, 116544, Note_on_c, 1, 60, 80
3, 116544, Note_on_c, 1, 62, 80
3, 116732, Note_off_c, 1, 60, 100
3, 116732, Note_off_c, 1, 62, 100
3, 116736, Note_on_c, 1, 60, 80
3, 116736, Note_on_c, 1, 62, 80
3, 116924, Note_off_c, 1, 60, 100
3, 116924, Note_off_c, 1, 62, 100
3, 116928, Note_on_c, 1, 60, 80
3, 116928, Note_on_c, 1, 62, 80
3, 117116, Note_off_c, 1, 60, 100
3, 117116, Note_off_c, 1, 62, 100
3, 117120, Note_on_c, 1, 55, 80
3, 117308, Note_off_c, 1, 55, 100
3, 117312, Note_on_c, 1, 67, 83
3, 117500, Note_off_c, 1, 67, 100
3, 117504, Note_on_c, 1, 53, 87
3, 117692, Note_off_c, 1, 53, 100
3, 117696, Note_on_c, 1, 65, 91
3, 117884, Note_off_c, 1, 65, 100
3, 117888, Note_on_c, 1, 52, 95
3, 118076, Note_off_c, 1, 52, 100
3, 118080, Note_on_c, 1, 64, 99
3, 118268, Note_off_c, 1, 64, 100
3, 118272, Note_on_c, 1, 47, 103
3, 118460, Note_off_c, 1, 47, 100
3, 118464, Note_on_c, 1, 59, 107
3, 118652, Note_off_c, 1, 59, 100
3, 118656, Note_on_c, 1, 48, 120
3, 118844, Note_off_c, 1, 48, 100
3, 118848, Note_on_c, 1, 60, 120
3, 119036, Note_off_c, 1, 60, 100
3, 119040, Note_on_c, 1, 46, 120
3, 119228, Note_off_c, 1, 46, 100
3, 119232, Note_on_c, 1, 58, 120
3, 119420, Note_off_c, 1, 58, 100
3, 119424, Note_on_c, 1, 45, 120
3, 119612, Note_off_c, 1, 45, 100
3, 119616, Note_on_c, 1, 57, 120
3, 119804, Note_off_c, 1, 57, 100
3, 119808, Note_on_c, 1, 41, 120
3, 119996, Note_off_c, 1, 41, 100
3, 120000, Note_on_c, 1, 53, 120
3, 120188, Note_off_c, 1, 53, 100
3, 120192, Note_on_c, 1, 46, 120
3, 120380, Note_off_c, 1, 46, 100
3, 120384, Note_on_c, 1, 58, 80
3, 120384, Note_on_c, 1, 62, 80
3, 120384, Note_on_c, 1, 65, 80
3, 120572, Note_off_c, 1, 58, 100
3, 120572, Note_off_c, 1, 62, 100
3, 120572, Note_off_c, 1, 65, 100
3, 120576, Note_on_c, 1, 58, 80
3, 120576, Note_on_c, 1, 62, 80
3, 120576, Note_on_c, 1, 65, 80
3, 120764, Note_off_c, 1, 58, 100
3, 120764, Note_off_c, 1, 62, 100
3, 120764, Note_off_c, 1, 65, 100
3, 120768, Note_on_c, 1, 58, 80
3, 120768, Note_on_c, 1, 62, 80
3, 120768, Note_on_c, 1, 65, 80
3, 120956, Note_off_c, 1, 58, 100
3, 120956, Note_off_c, 1, 62, 100
3, 120956, Note_off_c, 1, 65, 100
3, 120960, Note_on_c, 1, 48, 80
3, 121148, Note_off_c, 1, 48, 100
3, 121152, Note_on_c, 1, 60, 80
3, 121152, Note_on_c, 1, 63, 80
3, 121152, Note_on_c, 1, 65, 80
3, 121340, Note_off_c, 1, 60, 100
3, 121340, Note_off_c, 1, 63, 100
3, 121340, Note_off_c, 1, 65, 100
3, 121344, Note_on_c, 1, 60, 80
3, 121344, Note_on_c, 1, 63, 80
3, 121344, Note_on_c, 1, 65, 80
3, 121532, Note_off_c, 1, 60, 100
3, 121532, Note_off_c, 1, 63, 100
3, 121532, Note_off_c, 1, 65, 100
3, 121536, Note_on_c, 1, 60, 80
3, 121536, Note_on_c, 1, 63, 80
3, 121536, Note_on_c, 1, 65, 80
3, 121724, Note_off_c, 1, 60, 100
3, 121724, Note_off_c, 1, 63, 100
3, 121724, Note_off_c, 1, 65, 100
3, 121728, Note_on_c, 1, 50, 80
3, 121916, Note_off_c, 1, 50, 100
3, 121920, Note_on_c, 1, 62, 82
3, 121920, Note_on_c, 1, 65, 82
3, 122108, Note_off_c, 1, 62, 100
3, 122108, Note_off_c, 1, 65, 100
3, 122112, Note_on_c, 1, 62, 85
3, 122112, Note_on_c, 1, 65, 85
3, 122300, Note_off_c, 1, 62, 100
3, 122300, Note_off_c, 1, 65, 100
3, 122304, Note_on_c, 1, 62, 87
3, 122304, Note_on_c, 1, 65, 87
3, 122492, Note_off_c, 1, 62, 100
3, 122492, Note_off_c, 1, 65, 100
3, 122496, Note_on_c, 1, 57, 90
3, 122684, Note_off_c, 1, 57, 100
3, 122688, Note_on_c, 1, 60, 93
3, 122688, Note_on_c, 1, 63, 93
3, 122688, Note_on_c, 1, 65, 93
3, 122876, Note_off_c, 1, 60, 100
3, 122876, Note_off_c, 1, 63, 100
3, 122876, Note_off_c, 1, 65, 100
3, 122880, Note_on_c, 1, 60, 95
3, 122880, Note_on_c, 1, 63, 95
3, 122880, Note_on_c, 1, 65, 95
3, 123068, Note_off_c, 1, 60, 100
3, 123068, Note_off_c, 1, 63, 100
3, 123068, Note_off_c, 1, 65, 100
3, 123072, Note_on_c, 1, 60, 98
3, 123072, Note_on_c, 1, 63, 98
3, 123072, Note_on_c, 1, 65, 98
3, 123260, Note_off_c, 1, 60, 100
3, 123260, Note_off_c, 1, 63, 100
3, 123260, Note_off_c, 1, 65, 100
3, 123264, Note_on_c, 1, 70, 80
3, 123452, Note_off_c, 1, 70, 100
3, 123648, Note_on_c, 1, 65, 80
3, 123836, Note_off_c, 1, 65, 100
3, 124032, Note_on_c, 1, 58, 80
3, 124220, Note_off_c, 1, 58, 100
3, 124800, Note_on_c, 1, 65, 80
3, 124988, Note_off_c, 1, 65, 100
3, 125184, Note_on_c, 1, 60, 80
3, 125372, Note_off_c, 1, 60, 100
3, 125568, Note_on_c, 1, 53, 80
3, 125756, Note_off_c, 1, 53, 100
3, 126400, Note_on_c, 1, 46, 80
3, 126460, Note_off_c, 1, 46, 100
3, 126464, Note_on_c, 1, 48, 81
3, 126524, Note_off_c, 1, 48, 100
3, 126528, Note_on_c, 1, 49, 82
3, 126588, Note_off_c, 1, 49, 100
3, 126592, Note_on_c, 1, 48, 83
3, 126652, Note_off_c, 1, 48, 100
3, 126656, Note_on_c, 1, 46, 84
3, 126716, Note_off_c, 1, 46, 100
3, 126784, Note_on_c, 1, 46, 86
3, 126844, Note_off_c, 1, 46, 100
3, 126848, Note_on_c, 1, 48, 87
3, 126908, Note_off_c, 1, 48, 100
3, 126912, Note_on_c, 1, 49, 87
3, 126972, Note_off_c, 1, 49, 100
3, 126976, Note_on_c, 1, 48, 88
3, 127036, Note_off_c, 1, 48, 100
3, 127040, Note_on_c, 1, 46, 89
3, 127100, Note_off_c, 1, 46, 100
3, 127168, Note_on_c, 1, 46, 91
3, 127228, Note_off_c, 1, 46, 100
3, 127232, Note_on_c, 1, 48, 92
3, 127292, Note_off_c, 1, 48, 100
3, 127296, Note_on_c, 1, 49, 93
3, 127356, Note_off_c, 1, 49, 100
3, 127360, Note_on_c, 1, 48, 94
3, 127420, Note_off_c, 1, 48, 100
3, 127424, Note_on_c, 1, 46, 95
3, 127484, Note_off_c, 1, 46, 100
3, 127488, Note_on_c, 1, 53, 95
3, 127580, Note_off_c, 1, 53, 100
3, 127584, Note_on_c, 1, 49, 97
3, 127676, Note_off_c, 1, 49, 100
3, 127680, Note_on_c, 1, 48, 98
3, 127772, Note_off_c, 1, 48, 100
3, 127776, Note_on_c, 1, 46, 99
3, 127868, Note_off_c, 1, 46, 100
3, 127936, Note_on_c, 1, 41, 110
3, 127996, Note_off_c, 1, 41, 100
3, 128000, Note_on_c, 1, 43, 110
3, 128060, Note_off_c, 1, 43, 100
3, 128064, Note_on_c, 1, 45, 110
3, 128124, Note_off_c, 1, 45, 100
3, 128128, Note_on_c, 1, 43, 110
3, 128188, Note_off_c, 1, 43, 100
3, 128192, Note_on_c, 1, 41, 110
3, 128252, Note_off_c, 1, 41, 100
3, 128320, Note_on_c, 1, 45, 110
3, 128380, Note_off_c, 1, 45, 100
3, 128384, Note_on_c, 1, 46, 110
3, 128444, Note_off_c, 1, 46, 100
3, 128448, Note_on_c, 1, 48, 110
3, 128508, Note_off_c, 1, 48, 100
3, 128512, Note_on_c, 1, 46, 110
3, 128572, Note_off_c, 1, 46, 100
3, 128576, Note_on_c, 1, 45, 110
3, 128636, Note_off_c, 1, 45, 100
3, 128704, Note_on_c, 1, 48, 110
3, 128764, Note_off_c, 1, 48, 100
3, 128768, Note_on_c, 1, 49, 110
3, 128828, Note_off_c, 1, 49, 100
3, 128832, Note_on_c, 1, 51, 110
3, 128892, Note_off_c, 1, 51, 100
3, 128896, Note_on_c, 1, 49, 110
3, 128956, Note_off_c, 1, 49, 100
3, 128960, Note_on_c, 1, 48, 110
3, 129020, Note_off_c, 1, 48, 100
3, 129024, Note_on_c, 1, 53, 110
3, 129116, Note_off_c, 1, 53, 100
3, 129120, Note_on_c, 1, 51, 110
3, 129212, Note_off_c, 1, 51, 100
3, 129216, Note_on_c, 1, 49, 110
3, 129308, Note_off_c, 1, 49, 100
3, 129312, Note_on_c, 1, 48, 110
3, 129404, Note_off_c, 1, 48, 100
3, 129408, Note_on_c, 1, 58, 80
3, 129596, Note_off_c, 1, 58, 100
3, 129792, Note_on_c, 1, 53, 80
3, 129980, Note_off_c, 1, 53, 100
3, 130176, Note_on_c, 1, 46, 80
3, 130364, Note_off_c, 1, 46, 100
3, 130944, Note_on_c, 1, 48, 80
3, 131132, Note_off_c, 1, 48, 100
3, 131328, Note_on_c, 1, 43, 80
3, 131516, Note_off_c, 1, 43, 100
3, 131712, Note_on_c, 1, 36, 80
3, 131900, Note_off_c, 1, 36, 100
3, 132480, Note_on_c, 1, 53, 80
3, 132668, Note_off_c, 1, 53, 100
3, 132864, Note_on_c, 1, 48, 85
3, 133052, Note_off_c, 1, 48, 100
3, 133248, Note_on_c, 1, 41, 90
3, 133436, Note_off_c, 1, 41, 100
3, 134016, Note_on_c, 1, 49, 110
3, 134204, Note_off_c, 1, 49, 100
3, 134400, Note_on_c, 1, 44, 110
3, 134588, Note_off_c, 1, 44, 100
3, 134784, Note_on_c, 1, 37, 110
3, 134972, Note_off_c, 1, 37, 100
3, 135168, Note_on_c, 1, 36, 110
3, 135356, Note_off_c, 1, 36, 100
3, 135552, Note_on_c, 1, 35, 120
3, 135740, Note_off_c, 1, 35, 100
3, 136320, Note_on_c, 1, 34, 120
3, 136700, Note_off_c, 1, 34, 100
3, 137088, Note_on_c, 1, 33, 120
3, 137468, Note_off_c, 1, 33, 100
3, 138624, Note_on_c, 1, 45, 80
3, 138624, Note_on_c, 1, 33, 80
3, 139004, Note_off_c, 1, 45, 100
3, 139004, Note_off_c, 1, 33, 100
3, 139392, Note_on_c, 1, 45, 70
3, 139392, Note_on_c, 1, 33, 70
3, 139772, Note_off_c, 1, 45, 100
3, 139772, Note_off_c, 1, 33, 100
3, 140928, Key_signature, 2, "major"
3, 141504, Note_on_c, 1, 57, 80
3, 141504, Note_on_c, 1, 50, 80
3, 141692, Note_off_c, 1, 57, 100
3, 141692, Note_off_c, 1, 50, 100
3, 141696, Note_on_c, 1, 57, 80
3, 141696, Note_on_c, 1, 50, 80
3, 142076, Note_off_c, 1, 57, 100
3, 142076, Note_off_c, 1, 50, 100
3, 143040, Note_on_c, 1, 57, 80
3, 143040, Note_on_c, 1, 50, 80
3, 143228, Note_off_c, 1, 57, 100
3, 143228, Note_off_c, 1, 50, 100
3, 143232, Note_on_c, 1, 57, 80
3, 143232, Note_on_c, 1, 49, 80
3, 143612, Note_off_c, 1, 57, 100
3, 143612, Note_off_c, 1, 49, 100
3, 144768, Note_on_c, 1, 57, 80
3, 144768, Note_on_c, 1, 54, 80
3, 144768, Note_on_c, 1, 50, 80
3, 145148, Note_off_c, 1, 57, 100
3, 145148, Note_off_c, 1, 54, 100
3, 145148, Note_off_c, 1, 50, 100
3, 145152, Note_on_c, 1, 52, 80
3, 145152, Note_on_c, 1, 57, 80
3, 145152, Note_on_c, 1, 55, 80
3, 145152, Note_on_c, 1, 61, 80
3, 145532, Note_off_c, 1, 52, 100
3, 145532, Note_off_c, 1, 57, 100
3, 145532, Note_off_c, 1, 55, 100
3, 145532, Note_off_c, 1, 61, 100
3, 145536, Note_on_c, 1, 54, 80
3, 145536, Note_on_c, 1, 57, 80
3, 145536, Note_on_c, 1, 62, 80
3, 145916, Note_off_c, 1, 54, 100
3, 145916, Note_off_c, 1, 57, 100
3, 145916, Note_off_c, 1, 62, 100
3, 145920, Note_on_c, 1, 55, 80
3, 145920, Note_on_c, 1, 59, 80
3, 145920, Note_on_c, 1, 62, 80
3, 146300, Note_off_c, 1, 55, 100
3, 146300, Note_off_c, 1, 59, 100
3, 146300, Note_off_c, 1, 62, 100
3, 146304, Note_on_c, 1, 57, 80
3, 146304, Note_on_c, 1, 60, 80
3, 146304, Note_on_c, 1, 62, 80
3, 146304, Note_on_c, 1, 66, 80
3, 146684, Note_off_c, 1, 57, 100
3, 146684, Note_off_c, 1, 60, 100
3, 146684, Note_off_c, 1, 62, 100
3, 146684, Note_off_c, 1, 66, 100
3, 146688, Note_on_c, 1, 60, 80
3, 146688, Note_on_c, 1, 62, 80
3, 146688, Note_on_c, 1, 69, 80
3, 146688, Note_on_c, 1, 66, 80
3, 147068, Note_off_c, 1, 60, 100
3, 147068, Note_off_c, 1, 62, 100
3, 147068, Note_off_c, 1, 69, 100
3, 147068, Note_off_c, 1, 66, 100
3, 147072, Note_on_c, 1, 59, 80
3, 147072, Note_on_c, 1, 62, 80
3, 147072, Note_on_c, 1, 67, 80
3, 147452, Note_off_c, 1, 59, 100
3, 147452, Note_off_c, 1, 62, 100
3, 147452, Note_off_c, 1, 67, 100
3, 147840, Note_on_c, 1, 59, 80
3, 147840, Note_on_c, 1, 62, 80
3, 147840, Note_on_c, 1, 67, 80
3, 148220, Note_off_c, 1, 59, 100
3, 148220, Note_off_c, 1, 62, 100
3, 148220, Note_off_c, 1, 67, 100
3, 148224, Note_on_c, 1, 61, 80
3, 148224, Note_on_c, 1, 64, 80
3, 148224, Note_on_c, 1, 69, 80
3, 148604, Note_off_c, 1, 61, 100
3, 148604, Note_off_c, 1, 64, 100
3, 148604, Note_off_c, 1, 69, 100
3, 148608, Note_on_c, 1, 62, 80
3, 148608, Note_on_c, 1, 66, 80
3, 148608, Note_on_c, 1, 69, 80
3, 148988, Note_off_c, 1, 62, 100
3, 148988, Note_off_c, 1, 66, 100
3, 148988, Note_off_c, 1, 69, 100
3, 148992, Note_on_c, 1, 55, 80
3, 148992, Note_on_c, 1, 59, 80
3, 148992, Note_on_c, 1, 64, 80
3, 149372, Note_off_c, 1, 55, 100
3, 149372, Note_off_c, 1, 59, 100
3, 149372, Note_off_c, 1, 64, 100
3, 149376, Note_on_c, 1, 57, 80
3, 149376, Note_on_c, 1, 62, 80
3, 149376, Note_on_c, 1, 66, 80
3, 149756, Note_off_c, 1, 57, 100
3, 149756, Note_off_c, 1, 62, 100
3, 149756, Note_off_c, 1, 66, 100
3, 149760, Note_on_c, 1, 57, 80
3, 149760, Note_on_c, 1, 64, 80
3, 149760, Note_on_c, 1, 67, 80
3, 150140, Note_off_c, 1, 57, 100
3, 150140, Note_off_c, 1, 64, 100
3, 150140, Note_off_c, 1, 67, 100
3, 150144, Note_on_c, 1, 62, 80
3, 150144, Note_on_c, 1, 66, 80
3, 150524, Note_off_c, 1, 62, 100
3, 150524, Note_off_c, 1, 66, 100
3, 151488, Note_on_c, 1, 62, 70
3, 151488, Note_on_c, 1, 50, 70
3, 151676, Note_off_c, 1, 62, 100
3, 151676, Note_off_c, 1, 50, 100
3, 151680, Note_on_c, 1, 62, 70
3, 151680, Note_on_c, 1, 55, 70
3, 152060, Note_off_c, 1, 62, 100
3, 152060, Note_off_c, 1, 55, 100
3, 153024, Note_on_c, 1, 55, 70
3, 153024, Note_on_c, 1, 62, 70
3, 153212, Note_off_c, 1, 55, 100
3, 153212, Note_off_c, 1, 62, 100
3, 153216, Note_on_c, 1, 60, 70
3, 153216, Note_on_c, 1, 48, 70
3, 153596, Note_off_c, 1, 60, 100
3, 153596, Note_off_c, 1, 48, 100
3, 155520, Key_signature, -1, "major"
3, 156288, Note_on_c, 1, 60, 80
3, 156288, Note_on_c, 1, 57, 80
3, 156288, Note_on_c, 1, 53, 80
3, 156668, Note_off_c, 1, 60, 100
3, 156668, Note_off_c, 1, 57, 100
3, 156668, Note_off_c, 1, 53, 100
3, 156672, Note_on_c, 1, 60, 84
3, 156672, Note_on_c, 1, 58, 84
3, 156672, Note_on_c, 1, 55, 84
3, 157052, Note_off_c, 1, 60, 100
3, 157052, Note_off_c, 1, 58, 100
3, 157052, Note_off_c, 1, 55, 100
3, 157056, Note_on_c, 1, 60, 89
3, 157056, Note_on_c, 1, 57, 89
3, 157056, Note_on_c, 1, 65, 89
3, 157436, Note_off_c, 1, 60, 100
3, 157436, Note_off_c, 1, 57, 100
3, 157436, Note_off_c, 1, 65, 100
3, 157440, Note_on_c, 1, 67, 94
3, 157440, Note_on_c, 1, 65, 94
3, 157440, Note_on_c, 1, 62, 94
3, 157440, Note_on_c, 1, 58, 94
3, 157820, Note_off_c, 1, 67, 100
3, 157820, Note_off_c, 1, 65, 100
3, 157820, Note_off_c, 1, 62, 100
3, 157820, Note_off_c, 1, 58, 100
3, 157824, Note_on_c, 1, 69, 99
3, 157824, Note_on_c, 1, 65, 99
3, 157824, Note_on_c, 1, 60, 99
3, 158204, Note_off_c, 1, 69, 100
3, 158204, Note_off_c, 1, 65, 100
3, 158204, Note_off_c, 1, 60, 100
3, 158208, Note_on_c, 1, 63, 98
3, 158208, Note_on_c, 1, 65, 98
3, 158208, Note_on_c, 1, 69, 98
3, 158208, Note_on_c, 1, 72, 98
3, 158588, Note_off_c, 1, 63, 100
3, 158588, Note_off_c, 1, 65, 100
3, 158588, Note_off_c, 1, 69, 100
3, 158588, Note_off_c, 1, 72, 100
3, 158592, Note_on_c, 1, 70, 93
3, 158592, Note_on_c, 1, 65, 93
3, 158592, Note_on_c, 1, 62, 93
3, 158972, Note_off_c, 1, 70, 100
3, 158972, Note_off_c, 1, 65, 100
3, 158972, Note_off_c, 1, 62, 100
3, 159360, Note_on_c, 1, 62, 80
3, 159360, Note_on_c, 1, 65, 80
3, 159360, Note_on_c, 1, 70, 80
3, 159740, Note_off_c, 1, 62, 100
3, 159740, Note_off_c, 1, 65, 100
3, 159740, Note_off_c, 1, 70, 100
3, 159744, Note_on_c, 1, 64, 80
3, 159744, Note_on_c, 1, 67, 80
3, 159744, Note_on_c, 1, 72, 80
3, 160124, Note_off_c, 1, 64, 100
3, 160124, Note_off_c, 1, 67, 100
3, 160124, Note_off_c, 1, 72, 100
3, 160128, Note_on_c, 1, 65, 80
3, 160128, Note_on_c, 1, 69, 80
3, 160128, Note_on_c, 1, 72, 80
3, 160508, Note_off_c, 1, 65, 100
3, 160508, Note_off_c, 1, 69, 100
3, 160508, Note_off_c, 1, 72, 100
3, 160512, Note_on_c, 1, 58, 80
3, 160512, Note_on_c, 1, 62, 80
3, 160512, Note_on_c, 1, 67, 80
3, 160892, Note_off_c, 1, 58, 100
3, 160892, Note_off_c, 1, 62, 100
3, 160892, Note_off_c, 1, 67, 100
3, 160896, Note_on_c, 1, 60, 80
3, 160896, Note_on_c, 1, 65, 80
3, 160896, Note_on_c, 1, 69, 80
3, 161276, Note_off_c, 1, 60, 100
3, 161276, Note_off_c, 1, 65, 100
3, 161276, Note_off_c, 1, 69, 100
3, 161280, Note_on_c, 1, 60, 80
3, 161280, Note_on_c, 1, 67, 80
3, 161280, Note_on_c, 1, 70, 80
3, 161468, Note_off_c, 1, 60, 100
3, 161468, Note_off_c, 1, 67, 100
3, 161468, Note_off_c, 1, 70, 100
3, 161664, Note_on_c, 1, 41, 80
3, 161756, Note_off_c, 1, 41, 100
3, 161760, Note_on_c, 1, 45, 81
3, 161852, Note_off_c, 1, 45, 100
3, 161856, Note_on_c, 1, 36, 82
3, 161948, Note_off_c, 1, 36, 100
3, 161952, Note_on_c, 1, 40, 83
3, 162044, Note_off_c, 1, 40, 100
3, 162048, Note_on_c, 1, 41, 84
3, 162140, Note_off_c, 1, 41, 100
3, 162144, Note_on_c, 1, 45, 85
3, 162236, Note_off_c, 1, 45, 100
3, 162240, Note_on_c, 1, 36, 87
3, 162332, Note_off_c, 1, 36, 100
3, 162336, Note_on_c, 1, 40, 88
3, 162428, Note_off_c, 1, 40, 100
3, 162432, Note_on_c, 1, 41, 89
3, 162524, Note_off_c, 1, 41, 100
3, 162528, Note_on_c, 1, 45, 90
3, 162620, Note_off_c, 1, 45, 100
3, 162624, Note_on_c, 1, 36, 91
3, 162716, Note_off_c, 1, 36, 100
3, 162720, Note_on_c, 1, 40, 93
3, 162812, Note_off_c, 1, 40, 100
3, 162816, Note_on_c, 1, 41, 94
3, 162908, Note_off_c, 1, 41, 100
3, 162912, Note_on_c, 1, 45, 95
3, 163004, Note_off_c, 1, 45, 100
3, 163008, Note_on_c, 1, 36, 96
3, 163100, Note_off_c, 1, 36, 100
3, 163104, Note_on_c, 1, 40, 97
3, 163196, Note_off_c, 1, 40, 100
3, 163200, Note_on_c, 1, 41, 99
3, 163292, Note_off_c, 1, 41, 100
3, 163296, Note_on_c, 1, 45, 100
3, 163388, Note_off_c, 1, 45, 100
3, 163392, Note_on_c, 1, 36, 101
3, 163484, Note_off_c, 1, 36, 100
3, 163488, Note_on_c, 1, 40, 102
3, 163580, Note_off_c, 1, 40, 100
3, 163584, Note_on_c, 1, 41, 103
3, 163676, Note_off_c, 1, 41, 100
3, 163680, Note_on_c, 1, 45, 105
3, 163772, Note_off_c, 1, 45, 100
3, 163776, Note_on_c, 1, 36, 106
3, 163868, Note_off_c, 1, 36, 100
3, 163872, Note_on_c, 1, 40, 107
3, 163964, Note_off_c, 1, 40, 100
3, 163968, Note_on_c, 1, 41, 108
3, 164060, Note_off_c, 1, 41, 100
3, 164064, Note_on_c, 1, 45, 109
3, 164156, Note_off_c, 1, 45, 100
3, 164160, Note_on_c, 1, 36, 110
3, 164252, Note_off_c, 1, 36, 100
3, 164256, Note_on_c, 1, 40, 110
3, 164348, Note_off_c, 1, 40, 100
3, 164352, Note_on_c, 1, 41, 110
3, 164444, Note_off_c, 1, 41, 100
3, 164448, Note_on_c, 1, 45, 110
3, 164540, Note_off_c, 1, 45, 100
3, 164544, Note_on_c, 1, 36, 110
3, 164636, Note_off_c, 1, 36, 100
3, 164640, Note_on_c, 1, 40, 110
3, 164732, Note_off_c, 1, 40, 100
3, 164736, Note_on_c, 1, 43, 100
3, 164828, Note_off_c, 1, 43, 100
3, 164832, Note_on_c, 1, 46, 98
3, 164924, Note_off_c, 1, 46, 100
3, 164928, Note_on_c, 1, 36, 95
3, 165020, Note_off_c, 1, 36, 100
3, 165024, Note_on_c, 1, 42, 92
3, 165116, Note_off_c, 1, 42, 100
3, 165120, Note_on_c, 1, 43, 89
3, 165212, Note_off_c, 1, 43, 100
3, 165216, Note_on_c, 1, 46, 86
3, 165308, Note_off_c, 1, 46, 100
3, 165312, Note_on_c, 1, 36, 83
3, 165404, Note_off_c, 1, 36, 100
3, 165408, Note_on_c, 1, 42, 81
3, 165500, Note_off_c, 1, 42, 100
3, 165504, Note_on_c, 1, 43, 80
3, 165596, Note_off_c, 1, 43, 100
3, 165600, Note_on_c, 1, 46, 81
3, 165692, Note_off_c, 1, 46, 100
3, 165696, Note_on_c, 1, 36, 82
3, 165788, Note_off_c, 1, 36, 100
3, 165792, Note_on_c, 1, 42, 83
3, 165884, Note_off_c, 1, 42, 100
3, 165888, Note_on_c, 1, 43, 84
3, 165980, Note_off_c, 1, 43, 100
3, 165984, Note_on_c, 1, 46, 85
3, 166076, Note_off_c, 1, 46, 100
3, 166080, Note_on_c, 1, 36, 87
3, 166172, Note_off_c, 1, 36, 100
3, 166176, Note_on_c, 1, 42, 88
3, 166268, Note_off_c, 1, 42, 100
3, 166272, Note_on_c, 1, 43, 89
3, 166364, Note_off_c, 1, 43, 100
3, 166368, Note_on_c, 1, 46, 90
3, 166460, Note_off_c, 1, 46, 100
3, 166464, Note_on_c, 1, 36, 91
3, 166556, Note_off_c, 1, 36, 100
3, 166560, Note_on_c, 1, 42, 92
3, 166652, Note_off_c, 1, 42, 100
3, 166656, Note_on_c, 1, 43, 94
3, 166748, Note_off_c, 1, 43, 100
3, 166752, Note_on_c, 1, 46, 95
3, 166844, Note_off_c, 1, 46, 100
3, 166848, Note_on_c, 1, 36, 96
3, 166940, Note_off_c, 1, 36, 100
3, 166944, Note_on_c, 1, 42, 97
3, 167036, Note_off_c, 1, 42, 100
3, 167040, Note_on_c, 1, 43, 98
3, 167132, Note_off_c, 1, 43, 100
3, 167136, Note_on_c, 1, 46, 99
3, 167228, Note_off_c, 1, 46, 100
3, 167232, Note_on_c, 1, 36, 110
3, 167324, Note_off_c, 1, 36, 100
3, 167328, Note_on_c, 1, 42, 110
3, 167420, Note_off_c, 1, 42, 100
3, 167424, Note_on_c, 1, 43, 110
3, 167516, Note_off_c, 1, 43, 100
3, 167520, Note_on_c, 1, 46, 110
3, 167612, Note_off_c, 1, 46, 100
3, 167616, Note_on_c, 1, 36, 110
3, 167708, Note_off_c, 1, 36, 100
3, 167712, Note_on_c, 1, 43, 110
3, 167804, Note_off_c, 1, 43, 100
3, 167808, Note_on_c, 1, 45, 100
3, 167900, Note_off_c, 1, 45, 100
3, 167904, Note_on_c, 1, 48, 98
3, 167996, Note_off_c, 1, 48, 100
3, 168000, Note_on_c, 1, 41, 95
3, 168092, Note_off_c, 1, 41, 100
3, 168096, Note_on_c, 1, 44, 92
3, 168188, Note_off_c, 1, 44, 100
3, 168192, Note_on_c, 1, 45, 89
3, 168284, Note_off_c, 1, 45, 100
3, 168288, Note_on_c, 1, 48, 86
3, 168380, Note_off_c, 1, 48, 100
3, 168384, Note_on_c, 1, 41, 83
3, 168476, Note_off_c, 1, 41, 100
3, 168480, Note_on_c, 1, 44, 81
3, 168572, Note_off_c, 1, 44, 100
3, 168576, Note_on_c, 1, 48, 80
3, 168960, Note_on_c, 1, 53, 80
3, 169344, Note_on_c, 1, 56, 80
3, 169916, Note_off_c, 1, 48, 100
3, 169916, Note_off_c, 1, 53, 100
3, 169916, Note_off_c, 1, 56, 100
3, 169920, Note_on_c, 1, 53, 80
3, 169920, Note_on_c, 1, 56, 80
3, 170108, Note_off_c, 1, 53, 100
3, 170108, Note_off_c, 1, 56, 100
3, 170112, Note_on_c, 1, 53, 80
3, 170112, Note_on_c, 1, 56, 80
3, 170300, Note_off_c, 1, 53, 100
3, 170300, Note_off_c, 1, 56, 100
3, 170304, Note_on_c, 1, 56, 80
3, 170304, Note_on_c, 1, 53, 80
3, 170492, Note_off_c, 1, 56, 100
3, 170492, Note_off_c, 1, 53, 100
3, 170496, Note_on_c, 1, 56, 80
3, 170496, Note_on_c, 1, 53, 80
3, 170684, Note_off_c, 1, 56, 100
3, 170684, Note_off_c, 1, 53, 100
3, 170688, Note_on_c, 1, 53, 80
3, 170688, Note_on_c, 1, 56, 80
3, 170876, Note_off_c, 1, 53, 100
3, 170876, Note_off_c, 1, 56, 100
3, 170880, Note_on_c, 1, 58, 80
3, 170880, Note_on_c, 1, 55, 80
3, 170880, Note_on_c, 1, 51, 80
3, 171260, Note_off_c, 1, 58, 100
3, 171260, Note_off_c, 1, 55, 100
3, 171260, Note_off_c, 1, 51, 100
3, 171648, Note_on_c, 1, 51, 80
3, 172032, Note_on_c, 1, 55, 80
3, 172416, Note_on_c, 1, 58, 80
3, 172988, Note_off_c, 1, 51, 100
3, 172988, Note_off_c, 1, 55, 100
3, 172988, Note_off_c, 1, 58, 100
3, 172992, Note_on_c, 1, 58, 80
3, 172992, Note_on_c, 1, 61, 80
3, 173180, Note_off_c, 1, 58, 100
3, 173180, Note_off_c, 1, 61, 100
3, 173184, Note_on_c, 1, 58, 80
3, 173184, Note_on_c, 1, 61, 80
3, 173372, Note_off_c, 1, 58, 100
3, 173372, Note_off_c, 1, 61, 100
3, 173376, Note_on_c, 1, 58, 80
3, 173376, Note_on_c, 1, 61, 80
3, 173564, Note_off_c, 1, 58, 100
3, 173564, Note_off_c, 1, 61, 100
3, 173568, Note_on_c, 1, 58, 80
3, 173568, Note_on_c, 1, 61, 80
3, 173756, Note_off_c, 1, 58, 100
3, 173756, Note_off_c, 1, 61, 100
3, 173760, Note_on_c, 1, 58, 80
3, 173760, Note_on_c, 1, 61, 80
3, 173948, Note_off_c, 1, 58, 100
3, 173948, Note_off_c, 1, 61, 100
3, 173952, Note_on_c, 1, 60, 80
3, 173952, Note_on_c, 1, 56, 80
3, 174332, Note_off_c, 1, 60, 100
3, 174332, Note_off_c, 1, 56, 100
3, 174336, Note_on_c, 1, 63, 80
3, 174716, Note_off_c, 1, 63, 100
3, 174720, Note_on_c, 1, 62, 80
3, 175100, Note_off_c, 1, 62, 100
3, 175104, Note_on_c, 1, 61, 80
3, 175484, Note_off_c, 1, 61, 100
3, 175488, Note_on_c, 1, 48, 80
3, 175552, Note_on_c, 1, 52, 80
3, 175612, Note_off_c, 1, 52, 100
3, 175616, Note_on_c, 1, 55, 80
3, 175676, Note_off_c, 1, 55, 100
3, 175680, Note_on_c, 1, 52, 80
3, 175740, Note_off_c, 1, 52, 100
3, 175744, Note_on_c, 1, 55, 80
3, 175804, Note_off_c, 1, 55, 100
3, 175808, Note_on_c, 1, 52, 80
3, 175868, Note_off_c, 1, 48, 100
3, 175868, Note_off_c, 1, 52, 100
3, 175872, Note_on_c, 1, 47, 80
3, 175936, Note_on_c, 1, 50, 80
3, 175996, Note_off_c, 1, 50, 100
3, 176000, Note_on_c, 1, 55, 80
3, 176060, Note_off_c, 1, 55, 100
3, 176064, Note_on_c, 1, 50, 80
3, 176124, Note_off_c, 1, 50, 100
3, 176128, Note_on_c, 1, 55, 80
3, 176188, Note_off_c, 1, 55, 100
3, 176192, Note_on_c, 1, 50, 80
3, 176252, Note_off_c, 1, 47, 100
3, 176252, Note_off_c, 1, 50, 100
3, 176256, Note_on_c, 1, 48, 80
3, 176320, Note_on_c, 1, 52, 80
3, 176380, Note_off_c, 1, 52, 100
3, 176384, Note_on_c, 1, 55, 80
3, 176444, Note_off_c, 1, 55, 100
3, 176448, Note_on_c, 1, 52, 80
3, 176508, Note_off_c, 1, 52, 100
3, 176512, Note_on_c, 1, 55, 80
3, 176572, Note_off_c, 1, 55, 100
3, 176576, Note_on_c, 1, 52, 80
3, 176636, Note_off_c, 1, 48, 100
3, 176636, Note_off_c, 1, 52, 100
3, 176640, Note_on_c, 1, 50, 80
3, 176704, Note_on_c, 1, 53, 80
3, 176764, Note_off_c, 1, 53, 100
3, 176768, Note_on_c, 1, 55, 80
3, 176828, Note_off_c, 1, 55, 100
3, 176832, Note_on_c, 1, 53, 80
3, 176892, Note_off_c, 1, 53, 100
3, 176896, Note_on_c, 1, 55, 80
3, 176956, Note_off_c, 1, 55, 100
3, 176960, Note_on_c, 1, 53, 80
3, 177020, Note_off_c, 1, 50, 100
3, 177020, Note_off_c, 1, 53, 100
3, 177024, Note_on_c, 1, 48, 80
3, 177088, Note_on_c, 1, 52, 80
3, 177148, Note_off_c, 1, 52, 100
3, 177152, Note_on_c, 1, 55, 80
3, 177212, Note_off_c, 1, 55, 100
3, 177216, Note_on_c, 1, 52, 80
3, 177276, Note_off_c, 1, 52, 100
3, 177280, Note_on_c, 1, 55, 80
3, 177340, Note_off_c, 1, 55, 100
3, 177344, Note_on_c, 1, 52, 80
3, 177404, Note_off_c, 1, 48, 100
3, 177404, Note_off_c, 1, 52, 100
3, 177408, Note_on_c, 1, 47, 80
3, 177472, Note_on_c, 1, 50, 80
3, 177532, Note_off_c, 1, 50, 100
3, 177536, Note_on_c, 1, 55, 80
3, 177596, Note_off_c, 1, 55, 100
3, 177600, Note_on_c, 1, 50, 80
3, 177660, Note_off_c, 1, 50, 100
3, 177664, Note_on_c, 1, 55, 80
3, 177724, Note_off_c, 1, 55, 100
3, 177728, Note_on_c, 1, 50, 80
3, 177788, Note_off_c, 1, 47, 100
3, 177788, Note_off_c, 1, 50, 100
3, 177792, Note_on_c, 1, 48, 80
3, 177856, Note_on_c, 1, 52, 80
3, 177916, Note_off_c, 1, 52, 100
3, 177920, Note_on_c, 1, 55, 80
3, 177980, Note_off_c, 1, 55, 100
3, 177984, Note_on_c, 1, 52, 80
3, 178044, Note_off_c, 1, 52, 100
3, 178048, Note_on_c, 1, 55, 80
3, 178108, Note_off_c, 1, 55, 100
3, 178112, Note_on_c, 1, 52, 80
3, 178172, Note_off_c, 1, 48, 100
3, 178172, Note_off_c, 1, 52, 100
3, 178176, Note_on_c, 1, 50, 80
3, 178240, Note_on_c, 1, 53, 80
3, 178300, Note_off_c, 1, 53, 100
3, 178304, Note_on_c, 1, 55, 80
3, 178364, Note_off_c, 1, 55, 100
3, 178368, Note_on_c, 1, 53, 80
3, 178428, Note_off_c, 1, 53, 100
3, 178432, Note_on_c, 1, 55, 80
3, 178492, Note_off_c, 1, 55, 100
3, 178496, Note_on_c, 1, 53, 80
3, 178556, Note_off_c, 1, 50, 100
3, 178556, Note_off_c, 1, 53, 100
3, 178560, Note_on_c, 1, 48, 80
3, 178624, Note_on_c, 1, 52, 80
3, 178684, Note_off_c, 1, 52, 100
3, 178688, Note_on_c, 1, 55, 80
3, 178748, Note_off_c, 1, 55, 100
3, 178752, Note_on_c, 1, 52, 80
3, 178812, Note_off_c, 1, 52, 100
3, 178816, Note_on_c, 1, 55, 80
3, 178876, Note_off_c, 1, 55, 100
3, 178880, Note_on_c, 1, 52, 80
3, 178940, Note_off_c, 1, 48, 100
3, 178940, Note_off_c, 1, 52, 100
3, 178944, Note_on_c, 1, 50, 80
3, 179008, Note_on_c, 1, 53, 80
3, 179068, Note_off_c, 1, 53, 100
3, 179072, Note_on_c, 1, 55, 80
3, 179132, Note_off_c, 1, 55, 100
3, 179136, Note_on_c, 1, 53, 80
3, 179196, Note_off_c, 1, 53, 100
3, 179200, Note_on_c, 1, 55, 80
3, 179260, Note_off_c, 1, 55, 100
3, 179264, Note_on_c, 1, 53, 80
3, 179324, Note_off_c, 1, 50, 100
3, 179324, Note_off_c, 1, 53, 100
3, 179328, Note_on_c, 1, 48, 80
3, 179392, Note_on_c, 1, 52, 80
3, 179452, Note_off_c, 1, 52, 100
3, 179456, Note_on_c, 1, 55, 80
3, 179516, Note_off_c, 1, 55, 100
3, 179520, Note_on_c, 1, 52, 80
3, 179580, Note_off_c, 1, 52, 100
3, 179584, Note_on_c, 1, 55, 80
3, 179644, Note_off_c, 1, 55, 100
3, 179648, Note_on_c, 1, 52, 80
3, 179708, Note_off_c, 1, 48, 100
3, 179708, Note_off_c, 1, 52, 100
3, 179712, Note_on_c, 1, 50, 80
3, 179776, Note_on_c, 1, 53, 80
3, 179836, Note_off_c, 1, 53, 100
3, 179840, Note_on_c, 1, 55, 80
3, 179900, Note_off_c, 1, 55, 100
3, 179904, Note_on_c, 1, 53, 80
3, 179964, Note_off_c, 1, 53, 100
3, 179968, Note_on_c, 1, 55, 80
3, 180028, Note_off_c, 1, 55, 100
3, 180032, Note_on_c, 1, 53, 80
3, 180092, Note_off_c, 1, 50, 100
3, 180092, Note_off_c, 1, 53, 100
3, 180096, Note_on_c, 1, 55, 80
3, 180096, Note_on_c, 1, 52, 80
3, 180096, Note_on_c, 1, 48, 80
3, 180476, Note_off_c, 1, 55, 100
3, 180476, Note_off_c, 1, 52, 100
3, 180476, Note_off_c, 1, 48, 100
3, 181632, Note_on_c, 1, 58, 80
3, 181632, Note_on_c, 1, 60, 80
3, 181820, Note_off_c, 1, 58, 100
3, 181824, Note_on_c, 1, 55, 80
3, 182012, Note_off_c, 1, 60, 100
3, 182012, Note_off_c, 1, 55, 100
3, 182016, Note_on_c, 1, 52, 80
3, 182016, Note_on_c, 1, 60, 80
3, 182204, Note_off_c, 1, 52, 100
3, 182204, Note_off_c, 1, 60, 100
3, 182208, Note_on_c, 1, 60, 80
3, 182208, Note_on_c, 1, 53, 80
3, 182396, Note_off_c, 1, 60, 100
3, 182396, Note_off_c, 1, 53, 100
3, 182400, Note_on_c, 1, 58, 80
3, 182400, Note_on_c, 1, 60, 80
3, 182588, Note_off_c, 1, 58, 100
3, 182592, Note_on_c, 1, 55, 80
3, 182780, Note_off_c, 1, 60, 100
3, 182780, Note_off_c, 1, 55, 100
3, 182784, Note_on_c, 1, 52, 80
3, 182784, Note_on_c, 1, 60, 80
3, 182972, Note_off_c, 1, 52, 100
3, 182972, Note_off_c, 1, 60, 100
3, 182976, Note_on_c, 1, 60, 80
3, 182976, Note_on_c, 1, 53, 80
3, 183164, Note_off_c, 1, 60, 100
3, 183164, Note_off_c, 1, 53, 100
3, 183168, Note_on_c, 1, 58, 80
3, 183168, Note_on_c, 1, 46, 80
3, 183356, Note_off_c, 1, 58, 100
3, 183356, Note_off_c, 1, 46, 100
3, 183552, Note_on_c, 1, 55, 80
3, 183552, Note_on_c, 1, 52, 80
3, 183552, Note_on_c, 1, 48, 80
3, 183740, Note_off_c, 1, 55, 100
3, 183740, Note_off_c, 1, 52, 100
3, 183740, Note_off_c, 1, 48, 100
3, 183936, Note_on_c, 1, 53, 80
3, 183936, Note_on_c, 1, 48, 80
3, 183936, Note_on_c, 1, 41, 80
3, 184316, Note_off_c, 1, 53, 100
3, 184316, Note_off_c, 1, 48, 100
3, 184316, Note_off_c, 1, 41, 100
3, 184512, Note_on_c, 1, 68, 120
3, 184512, Note_on_c, 1, 72, 120
3, 184700, Note_off_c, 1, 68, 100
3, 184700, Note_off_c, 1, 72, 100
3, 184704, Note_on_c, 1, 70, 120
3, 184704, Note_on_c, 1, 73, 120
3, 184892, Note_off_c, 1, 70, 100
3, 184892, Note_off_c, 1, 73, 100
3, 184896, Note_on_c, 1, 67, 120
3, 184896, Note_on_c, 1, 70, 120
3, 185084, Note_off_c, 1, 67, 100
3, 185084, Note_off_c, 1, 70, 100
3, 185088, Note_on_c, 1, 64, 120
3, 185088, Note_on_c, 1, 67, 120
3, 185276, Note_off_c, 1, 64, 100
3, 185276, Note_off_c, 1, 67, 100
3, 185280, Note_on_c, 1, 65, 120
3, 185280, Note_on_c, 1, 68, 120
3, 185468, Note_off_c, 1, 65, 100
3, 185468, Note_off_c, 1, 68, 100
3, 185472, Note_on_c, 1, 70, 120
3, 185472, Note_on_c, 1, 73, 120
3, 185660, Note_off_c, 1, 70, 100
3, 185660, Note_off_c, 1, 73, 100
3, 185664, Note_on_c, 1, 67, 120
3, 185664, Note_on_c, 1, 70, 120
3, 185852, Note_off_c, 1, 67, 100
3, 185852, Note_off_c, 1, 70, 100
3, 185856, Note_on_c, 1, 64, 120
3, 185856, Note_on_c, 1, 67, 120
3, 186044, Note_off_c, 1, 64, 100
3, 186044, Note_off_c, 1, 67, 100
3, 186048, Note_on_c, 1, 65, 120
3, 186048, Note_on_c, 1, 68, 120
3, 186236, Note_off_c, 1, 65, 100
3, 186236, Note_off_c, 1, 68, 100
3, 186240, Note_on_c, 1, 67, 110
3, 186240, Note_on_c, 1, 61, 110
3, 186240, Note_on_c, 1, 58, 110
3, 186428, Note_off_c, 1, 67, 100
3, 186428, Note_off_c, 1, 61, 100
3, 186428, Note_off_c, 1, 58, 100
3, 186624, Note_on_c, 1, 67, 110
3, 186624, Note_on_c, 1, 64, 110
3, 186624, Note_on_c, 1, 60, 110
3, 186812, Note_off_c, 1, 67, 100
3, 186812, Note_off_c, 1, 64, 100
3, 186812, Note_off_c, 1, 60, 100
3, 187008, Note_on_c, 1, 61, 110
3, 187008, Note_on_c, 1, 65, 110
3, 187196, Note_off_c, 1, 61, 100
3, 187196, Note_off_c, 1, 65, 100
3, 187776, Note_on_c, 1, 47, 70
3, 187776, Note_on_c, 1, 35, 70
3, 187964, Note_off_c, 1, 47, 100
3, 187964, Note_off_c, 1, 35, 100
3, 188544, Note_on_c, 1, 48, 80
3, 188544, Note_on_c, 1, 46, 80
3, 188732, Note_off_c, 1, 48, 100
3, 188732, Note_off_c, 1, 46, 100
3, 188736, Note_on_c, 1, 48, 81
3, 188736, Note_on_c, 1, 40, 81
3, 188924, Note_off_c, 1, 48, 100
3, 188924, Note_off_c, 1, 40, 100
3, 188928, Note_on_c, 1, 48, 83
3, 188928, Note_on_c, 1, 41, 83
3, 189116, Note_off_c, 1, 48, 100
3, 189116, Note_off_c, 1, 41, 100
3, 189120, Note_on_c, 1, 48, 85
3, 189120, Note_on_c, 1, 36, 85
3, 189308, Note_off_c, 1, 48, 100
3, 189308, Note_off_c, 1, 36, 100
3, 189312, Note_on_c, 1, 48, 87
3, 189312, Note_on_c, 1, 43, 87
3, 189500, Note_off_c, 1, 48, 100
3, 189500, Note_off_c, 1, 43, 100
3, 189504, Note_on_c, 1, 48, 89
3, 189504, Note_on_c, 1, 36, 89
3, 189692, Note_off_c, 1, 48, 100
3, 189692, Note_off_c, 1, 36, 100
3, 189696, Note_on_c, 1, 48, 91
3, 189696, Note_on_c, 1, 41, 91
3, 189884, Note_off_c, 1, 48, 100
3, 189884, Note_off_c, 1, 41, 100
3, 189888, Note_on_c, 1, 48, 93
3, 189888, Note_on_c, 1, 36, 93
3, 190076, Note_off_c, 1, 48, 100
3, 190076, Note_off_c, 1, 36, 100
3, 190080, Note_on_c, 1, 48, 95
3, 190080, Note_on_c, 1, 43, 95
3, 190268, Note_off_c, 1, 48, 100
3, 190268, Note_off_c, 1, 43, 100
3, 190272, Note_on_c, 1, 48, 97
3, 190272, Note_on_c, 1, 46, 97
3, 190460, Note_off_c, 1, 48, 100
3, 190460, Note_off_c, 1, 46, 100
3, 190464, Note_on_c, 1, 48, 99
3, 190464, Note_on_c, 1, 45, 99
3, 190652, Note_off_c, 1, 48, 100
3, 190652, Note_off_c, 1, 45, 100
3, 190656, Note_on_c, 1, 48, 101
3, 190656, Note_on_c, 1, 41, 101
3, 190844, Note_off_c, 1, 48, 100
3, 190844, Note_off_c, 1, 41, 100
3, 190848, Note_on_c, 1, 48, 103
3, 190848, Note_on_c, 1, 43, 103
3, 191036, Note_off_c, 1, 48, 100
3, 191036, Note_off_c, 1, 43, 100
3, 191040, Note_on_c, 1, 48, 105
3, 191040, Note_on_c, 1, 46, 105
3, 191228, Note_off_c, 1, 48, 100
3, 191228, Note_off_c, 1, 46, 100
3, 191232, Note_on_c, 1, 48, 107
3, 191232, Note_on_c, 1, 45, 107
3, 191420, Note_off_c, 1, 48, 100
3, 191420, Note_off_c, 1, 45, 100
3, 191424, Note_on_c, 1, 48, 108
3, 191424, Note_on_c, 1, 41, 108
3, 191612, Note_off_c, 1, 48, 100
3, 191612, Note_off_c, 1, 41, 100
3, 191616, Note_on_c, 1, 55, 110
3, 191616, Note_on_c, 1, 50, 110
3, 191616, Note_on_c, 1, 46, 110
3, 191804, Note_off_c, 1, 55, 100
3, 191804, Note_off_c, 1, 50, 100
3, 191804, Note_off_c, 1, 46, 100
3, 192000, Note_on_c, 1, 58, 110
3, 192000, Note_on_c, 1, 62, 110
3, 192000, Note_on_c, 1, 67, 110
3, 192188, Note_off_c, 1, 58, 100
3, 192188, Note_off_c, 1, 62, 100
3, 192188, Note_off_c, 1, 67, 100
3, 193344, Note_on_c, 1, 55, 110
3, 193724, Note_off_c, 1, 55, 100
3, 193728, Note_on_c, 1, 57, 110
3, 193820, Note_off_c, 1, 57, 100
3, 193824, Note_on_c, 1, 58, 110
3, 193916, Note_off_c, 1, 58, 100
3, 193920, Note_on_c, 1, 60, 110
3, 194300, Note_off_c, 1, 60, 100
3, 194304, Note_on_c, 1, 58, 110
3, 194304, Note_on_c, 1, 55, 110
3, 194304, Note_on_c, 1, 52, 110
3, 194304, Note_on_c, 1, 48, 110
3, 194684, Note_off_c, 1, 58, 100
3, 194684, Note_off_c, 1, 55, 100
3, 194684, Note_off_c, 1, 52, 100
3, 194684, Note_off_c, 1, 48, 100
3, 194688, Note_on_c, 1, 57, 110
3, 194688, Note_on_c, 1, 53, 110
3, 194876, Note_off_c, 1, 57, 100
3, 194876, Note_off_c, 1, 53, 100
3, 194880, Note_on_c, 1, 67, 120
3, 194880, Note_on_c, 1, 65, 120
3, 194880, Note_on_c, 1, 62, 120
3, 195260, Note_off_c, 1, 67, 100
3, 195264, Note_on_c, 1, 69, 120
3, 195356, Note_off_c, 1, 69, 100
3, 195360, Note_on_c, 1, 71, 120
3, 195452, Note_off_c, 1, 65, 100
3, 195452, Note_off_c, 1, 62, 100
3, 195452, Note_off_c, 1, 71, 100
3, 195456, Note_on_c, 1, 72, 120
3, 195456, Note_on_c, 1, 69, 120
3, 195456, Note_on_c, 1, 65, 120
3, 195456, Note_on_c, 1, 60, 120
3, 195836, Note_off_c, 1, 72, 100
3, 195836, Note_off_c, 1, 69, 100
3, 195836, Note_off_c, 1, 65, 100
3, 195836, Note_off_c, 1, 60, 100
3, 195840, Note_on_c, 1, 70, 110
3, 195840, Note_on_c, 1, 67, 110
3, 195840, Note_on_c, 1, 60, 110
3, 196220, Note_off_c, 1, 70, 100
3, 196220, Note_off_c, 1, 67, 100
3, 196220, Note_off_c, 1, 60, 100
3, 196224, Note_on_c, 1, 53, 105
3, 196284, Note_off_c, 1, 53, 100
3, 196288, Note_on_c, 1, 57, 104
3, 196348, Note_off_c, 1, 57, 100
3, 196352, Note_on_c, 1, 60, 103
3, 196412, Note_off_c, 1, 60, 100
3, 196416, Note_on_c, 1, 53, 102
3, 196476, Note_off_c, 1, 53, 100
3, 196480, Note_on_c, 1, 57, 101
3, 196540, Note_off_c, 1, 57, 100
3, 196544, Note_on_c, 1, 60, 101
3, 196604, Note_off_c, 1, 60, 100
3, 196608, Note_on_c, 1, 53, 80
3, 196668, Note_off_c, 1, 53, 100
3, 196672, Note_on_c, 1, 57, 80
3, 196732, Note_off_c, 1, 57, 100
3, 196736, Note_on_c, 1, 60, 80
3, 196796, Note_off_c, 1, 60, 100
3, 196800, Note_on_c, 1, 53, 80
3, 196860, Note_off_c, 1, 53, 100
3, 196864, Note_on_c, 1, 57, 80
3, 196924, Note_off_c, 1, 57, 100
3, 196928, Note_on_c, 1, 60, 80
3, 196988, Note_off_c, 1, 60, 100
3, 196992, Note_on_c, 1, 53, 80
3, 197052, Note_off_c, 1, 53, 100
3, 197056, Note_on_c, 1, 57, 80
3, 197116, Note_off_c, 1, 57, 100
3, 197120, Note_on_c, 1, 60, 80
3, 197180, Note_off_c, 1, 60, 100
3, 197184, Note_on_c, 1, 53, 80
3, 197244, Note_off_c, 1, 53, 100
3, 197248, Note_on_c, 1, 57, 80
3, 197308, Note_off_c, 1, 57, 100
3, 197312, Note_on_c, 1, 60, 80
3, 197372, Note_off_c, 1, 60, 100
3, 197376, Note_on_c, 1, 57, 80
3, 197436, Note_off_c, 1, 57, 100
3, 197440, Note_on_c, 1, 60, 80
3, 197500, Note_off_c, 1, 60, 100
3, 197504, Note_on_c, 1, 65, 80
3, 197564, Note_off_c, 1, 65, 100
3, 197568, Note_on_c, 1, 57, 80
3, 197628, Note_off_c, 1, 57, 100
3, 197632, Note_on_c, 1, 60, 80
3, 197692, Note_off_c, 1, 60, 100
3, 197696, Note_on_c, 1, 65, 80
3, 197756, Note_off_c, 1, 65, 100
3, 197760, Note_on_c, 1, 58, 80
3, 197760, Note_on_c, 1, 62, 80
3, 197820, Note_off_c, 1, 58, 100
3, 197820, Note_off_c, 1, 62, 100
3, 197824, Note_on_c, 1, 65, 80
3, 197884, Note_off_c, 1, 65, 100
3, 197888, Note_on_c, 1, 67, 80
3, 197948, Note_off_c, 1, 67, 100
3, 197952, Note_on_c, 1, 58, 80
3, 197952, Note_on_c, 1, 62, 80
3, 198012, Note_off_c, 1, 58, 100
3, 198012, Note_off_c, 1, 62, 100
3, 198016, Note_on_c, 1, 65, 80
3, 198076, Note_off_c, 1, 65, 100
3, 198080, Note_on_c, 1, 67, 80
3, 198140, Note_off_c, 1, 67, 100
3, 198144, Note_on_c, 1, 59, 100
3, 198144, Note_on_c, 1, 62, 100
3, 198204, Note_off_c, 1, 59, 100
3, 198204, Note_off_c, 1, 62, 100
3, 198208, Note_on_c, 1, 65, 100
3, 198268, Note_off_c, 1, 65, 100
3, 198272, Note_on_c, 1, 67, 100
3, 198332, Note_off_c, 1, 67, 100
3, 198336, Note_on_c, 1, 59, 100
3, 198336, Note_on_c, 1, 62, 100
3, 198396, Note_off_c, 1, 59, 100
3, 198396, Note_off_c, 1, 62, 100
3, 198400, Note_on_c, 1, 65, 100
3, 198460, Note_off_c, 1, 65, 100
3, 198464, Note_on_c, 1, 67, 100
3, 198524, Note_off_c, 1, 67, 100
3, 198528, Note_on_c, 1, 60, 100
3, 198588, Note_off_c, 1, 60, 100
3, 198592, Note_on_c, 1, 65, 100
3, 198652, Note_off_c, 1, 65, 100
3, 198656, Note_on_c, 1, 69, 100
3, 198716, Note_off_c, 1, 69, 100
3, 198720, Note_on_c, 1, 60, 100
3, 198780, Note_off_c, 1, 60, 100
3, 198784, Note_on_c, 1, 65, 100
3, 198844, Note_off_c, 1, 65, 100
3, 198848, Note_on_c, 1, 69, 100
3, 198908, Note_off_c, 1, 69, 100
3, 198912, Note_on_c, 1, 60, 100
3, 198972, Note_off_c, 1, 60, 100
3, 198976, Note_on_c, 1, 64, 100
3, 199036, Note_off_c, 1, 64, 100
3, 199040, Note_on_c, 1, 67, 100
3, 199100, Note_off_c, 1, 67, 100
3, 199104, Note_on_c, 1, 60, 100
3, 199164, Note_off_c, 1, 60, 100
3, 199168, Note_on_c, 1, 64, 100
3, 199228, Note_off_c, 1, 64, 100
3, 199232, Note_on_c, 1, 67, 100
3, 199292, Note_off_c, 1, 67, 100
3, 199296, Note_on_c, 1, 53, 100
3, 199340, Note_off_c, 1, 53, 100
3, 199344, Note_on_c, 1, 57, 100
3, 199388, Note_off_c, 1, 57, 100
3, 199392, Note_on_c, 1, 60, 100
3, 199436, Note_off_c, 1, 60, 100
3, 199440, Note_on_c, 1, 65, 100
3, 199484, Note_off_c, 1, 65, 100
3, 199488, Note_on_c, 1, 53, 100
3, 199532, Note_off_c, 1, 53, 100
3, 199536, Note_on_c, 1, 57, 100
3, 199580, Note_off_c, 1, 57, 100
3, 199584, Note_on_c, 1, 60, 100
3, 199628, Note_off_c, 1, 60, 100
3, 199632, Note_on_c, 1, 65, 80
3, 199676, Note_off_c, 1, 65, 100
3, 199680, Note_on_c, 1, 53, 80
3, 199724, Note_off_c, 1, 53, 100
3, 199728, Note_on_c, 1, 57, 80
3, 199772, Note_off_c, 1, 57, 100
3, 199776, Note_on_c, 1, 60, 80
3, 199820, Note_off_c, 1, 60, 100
3, 199824, Note_on_c, 1, 65, 80
3, 199868, Note_off_c, 1, 65, 100
3, 199872, Note_on_c, 1, 53, 80
3, 199916, Note_off_c, 1, 53, 100
3, 199920, Note_on_c, 1, 57, 80
3, 199964, Note_off_c, 1, 57, 100
3, 199968, Note_on_c, 1, 60, 80
3, 200012, Note_off_c, 1, 60, 100
3, 200016, Note_on_c, 1, 65, 80
3, 200060, Note_off_c, 1, 65, 100
3, 200064, Note_on_c, 1, 53, 80
3, 200108, Note_off_c, 1, 53, 100
3, 200112, Note_on_c, 1, 57, 80
3, 200156, Note_off_c, 1, 57, 100
3, 200160, Note_on_c, 1, 60, 80
3, 200204, Note_off_c, 1, 60, 100
3, 200208, Note_on_c, 1, 65, 80
3, 200252, Note_off_c, 1, 65, 100
3, 200256, Note_on_c, 1, 53, 80
3, 200300, Note_off_c, 1, 53, 100
3, 200304, Note_on_c, 1, 57, 80
3, 200348, Note_off_c, 1, 57, 100
3, 200352, Note_on_c, 1, 60, 80
3, 200396, Note_off_c, 1, 60, 100
3, 200400, Note_on_c, 1, 65, 80
3, 200444, Note_off_c, 1, 65, 100
3, 200448, Note_on_c, 1, 57, 80
3, 200508, Note_off_c, 1, 57, 100
3, 200512, Note_on_c, 1, 60, 80
3, 200572, Note_off_c, 1, 60, 100
3, 200576, Note_on_c, 1, 65, 80
3, 200636, Note_off_c, 1, 65, 100
3, 200640, Note_on_c, 1, 57, 80
3, 200700, Note_off_c, 1, 57, 100
3, 200704, Note_on_c, 1, 60, 80
3, 200764, Note_off_c, 1, 60, 100
3, 200768, Note_on_c, 1, 65, 80
3, 200828, Note_off_c, 1, 65, 100
3, 200832, Note_on_c, 1, 58, 80
3, 200880, Note_on_c, 1, 62, 80
3, 200920, Note_off_c, 1, 58, 100
3, 200928, Note_on_c, 1, 65, 80
3, 200972, Note_off_c, 1, 62, 100
3, 200976, Note_on_c, 1, 67, 80
3, 201012, Note_off_c, 1, 65, 100
3, 201024, Note_on_c, 1, 58, 80
3, 201060, Note_off_c, 1, 67, 100
3, 201072, Note_on_c, 1, 62, 80
3, 201112, Note_off_c, 1, 58, 100
3, 201120, Note_on_c, 1, 65, 80
3, 201152, Note_off_c, 1, 62, 100
3, 201168, Note_on_c, 1, 67, 100
3, 201212, Note_off_c, 1, 65, 100
3, 201216, Note_on_c, 1, 59, 100
3, 201256, Note_off_c, 1, 67, 100
3, 201264, Note_on_c, 1, 62, 100
3, 201308, Note_off_c, 1, 59, 100
3, 201312, Note_on_c, 1, 65, 100
3, 201356, Note_off_c, 1, 62, 100
3, 201360, Note_on_c, 1, 67, 100
3, 201396, Note_off_c, 1, 65, 100
3, 201408, Note_on_c, 1, 59, 100
3, 201440, Note_off_c, 1, 67, 100
3, 201456, Note_on_c, 1, 62, 100
3, 201488, Note_off_c, 1, 59, 100
3, 201504, Note_on_c, 1, 65, 100
3, 201536, Note_off_c, 1, 62, 100
3, 201552, Note_on_c, 1, 67, 100
3, 201596, Note_off_c, 1, 65, 100
3, 201600, Note_on_c, 1, 60, 100
3, 201644, Note_off_c, 1, 67, 100
3, 201664, Note_on_c, 1, 65, 100
3, 201688, Note_off_c, 1, 60, 100
3, 201728, Note_on_c, 1, 69, 100
3, 201756, Note_off_c, 1, 65, 100
3, 201792, Note_on_c, 1, 60, 100
3, 201828, Note_off_c, 1, 69, 100
3, 201856, Note_on_c, 1, 65, 100
3, 201888, Note_off_c, 1, 60, 100
3, 201920, Note_on_c, 1, 69, 100
3, 201944, Note_off_c, 1, 65, 100
3, 201984, Note_on_c, 1, 60, 100
3, 202012, Note_off_c, 1, 69, 100
3, 202048, Note_on_c, 1, 64, 100
3, 202076, Note_off_c, 1, 60, 100
3, 202112, Note_on_c, 1, 67, 100
3, 202124, Note_off_c, 1, 64, 100
3, 202176, Note_on_c, 1, 60, 100
3, 202204, Note_off_c, 1, 67, 100
3, 202240, Note_on_c, 1, 64, 100
3, 202260, Note_off_c, 1, 60, 100
3, 202304, Note_on_c, 1, 67, 100
3, 202328, Note_off_c, 1, 64, 100
3, 202368, Note_on_c, 1, 53, 100
3, 202392, Note_off_c, 1, 67, 100
3, 202416, Note_on_c, 1, 57, 100
3, 202460, Note_off_c, 1, 53, 100
3, 202464, Note_on_c, 1, 60, 100
3, 202492, Note_off_c, 1, 57, 100
3, 202512, Note_on_c, 1, 65, 100
3, 202556, Note_off_c, 1, 60, 100
3, 202560, Note_on_c, 1, 53, 100
3, 202604, Note_off_c, 1, 65, 100
3, 202608, Note_on_c, 1, 57, 100
3, 202640, Note_off_c, 1, 53, 100
3, 202656, Note_on_c, 1, 60, 100
3, 202688, Note_off_c, 1, 57, 100
3, 202704, Note_on_c, 1, 65, 120
3, 202740, Note_off_c, 1, 60, 100
3, 202752, Note_on_c, 1, 53, 120
3, 202792, Note_off_c, 1, 65, 100
3, 202816, Note_on_c, 1, 56, 120
3, 202844, Note_off_c, 1, 53, 100
3, 202880, Note_on_c, 1, 60, 120
3, 202904, Note_off_c, 1, 56, 100
3, 202944, Note_on_c, 1, 53, 120
3, 202964, Note_off_c, 1, 60, 100
3, 203008, Note_on_c, 1, 56, 120
3, 203028, Note_off_c, 1, 53, 100
3, 203072, Note_on_c, 1, 60, 120
3, 203092, Note_off_c, 1, 56, 100
3, 203136, Note_on_c, 1, 48, 120
3, 203164, Note_off_c, 1, 60, 100
3, 203184, Note_on_c, 1, 53, 120
3, 203216, Note_off_c, 1, 48, 100
3, 203232, Note_on_c, 1, 55, 120
3, 203268, Note_off_c, 1, 53, 100
3, 203280, Note_on_c, 1, 60, 121
3, 203312, Note_on_c, 1, 48, 121
3, 203320, Note_off_c, 1, 55, 100
3, 203360, Note_on_c, 1, 53, 121
3, 203364, Note_off_c, 1, 60, 100
3, 203396, Note_off_c, 1, 48, 100
3, 203408, Note_on_c, 1, 55, 121
3, 203440, Note_off_c, 1, 53, 100
3, 203456, Note_on_c, 1, 60, 121
3, 203492, Note_off_c, 1, 55, 100
3, 203520, Note_on_c, 1, 48, 121
3, 203540, Note_off_c, 1, 60, 100
3, 203568, Note_on_c, 1, 52, 121
3, 203608, Note_off_c, 1, 48, 100
3, 203616, Note_on_c, 1, 55, 121
3, 203656, Note_off_c, 1, 52, 100
3, 203664, Note_on_c, 1, 60, 121
3, 203696, Note_on_c, 1, 48, 121
3, 203700, Note_off_c, 1, 55, 100
3, 203740, Note_off_c, 1, 60, 100
3, 203744, Note_on_c, 1, 52, 121
3, 203788, Note_off_c, 1, 48, 100
3, 203792, Note_on_c, 1, 55, 121
3, 203828, Note_off_c, 1, 52, 100
3, 203840, Note_on_c, 1, 60, 122
3, 203876, Note_off_c, 1, 55, 100
3, 203904, Note_on_c, 1, 41, 122
3, 203924, Note_off_c, 1, 60, 100
3, 203952, Note_on_c, 1, 45, 122
3, 203996, Note_off_c, 1, 41, 100
3, 204000, Note_on_c, 1, 48, 122
3, 204028, Note_off_c, 1, 45, 100
3, 204048, Note_on_c, 1, 53, 122
3, 204088, Note_off_c, 1, 48, 100
3, 204096, Note_on_c, 1, 41, 122
3, 204132, Note_off_c, 1, 53, 100
3, 204144, Note_on_c, 1, 45, 122
3, 204188, Note_off_c, 1, 41, 100
3, 204192, Note_on_c, 1, 48, 122
3, 204216, Note_off_c, 1, 45, 100
3, 204240, Note_on_c, 1, 53, 122
3, 204272, Note_off_c, 1, 48, 100
3, 204288, Note_on_c, 1, 41, 122
3, 204324, Note_off_c, 1, 53, 100
3, 204352, Note_on_c, 1, 44, 123
3, 204380, Note_off_c, 1, 41, 100
3, 204416, Note_on_c, 1, 48, 123
3, 204440, Note_off_c, 1, 44, 100
3, 204480, Note_on_c, 1, 41, 123
3, 204508, Note_off_c, 1, 48, 100
3, 204544, Note_on_c, 1, 44, 123
3, 204572, Note_off_c, 1, 41, 100
3, 204608, Note_on_c, 1, 48, 123
3, 204624, Note_off_c, 1, 44, 100
3, 204672, Note_on_c, 1, 36, 123
3, 204692, Note_off_c, 1, 48, 100
3, 204720, Note_on_c, 1, 41, 123
3, 204744, Note_off_c, 1, 36, 100
3, 204768, Note_on_c, 1, 43, 123
3, 204804, Note_off_c, 1, 41, 100
3, 204816, Note_on_c, 1, 48, 123
3, 204844, Note_off_c, 1, 43, 100
3, 204848, Note_on_c, 1, 36, 123
3, 204896, Note_on_c, 1, 41, 124
3, 204900, Note_off_c, 1, 48, 100
3, 204928, Note_off_c, 1, 36, 100
3, 204944, Note_on_c, 1, 43, 124
3, 204976, Note_off_c, 1, 41, 100
3, 204992, Note_on_c, 1, 48, 124
3, 205028, Note_off_c, 1, 43, 100
3, 205056, Note_on_c, 1, 36, 124
3, 205072, Note_off_c, 1, 48, 100
3, 205104, Note_on_c, 1, 40, 124
3, 205136, Note_off_c, 1, 36, 100
3, 205152, Note_on_c, 1, 43, 124
3, 205184, Note_off_c, 1, 40, 100
3, 205200, Note_on_c, 1, 48, 124
3, 205232, Note_on_c, 1, 36, 124
3, 205236, Note_off_c, 1, 43, 100
3, 205280, Note_on_c, 1, 40, 124
3, 205288, Note_off_c, 1, 48, 100
3, 205320, Note_off_c, 1, 36, 100
3, 205328, Note_on_c, 1, 43, 124
3, 205364, Note_off_c, 1, 40, 100
3, 205376, Note_on_c, 1, 48, 124
3, 205412, Note_off_c, 1, 43, 100
3, 205440, Note_on_c, 1, 41, 120
3, 205460, Note_off_c, 1, 48, 100
3, 205628, Note_off_c, 1, 41, 100
3, 205824, Note_on_c, 1, 48, 120
3, 205824, Note_on_c, 1, 36, 120
3, 206012, Note_off_c, 1, 48, 100
3, 206012, Note_off_c, 1, 36, 100
3, 206208, Note_on_c, 1, 41, 120
3, 206208, Note_on_c, 1, 29, 120
3, 206588, Note_off_c, 1, 41, 100
3, 206588, Note_off_c, 1, 29, 100
3, 206588, End_track
0, 0, End_of_file
