0, 0, Header, 1, 3, 384
1, 0, Start_track
1, 0, Title_t, "L.v.Beethoven 2mov - Piano Sonata No.6 in F Major Op.10-2\000"
1, 0, Copyright_t, "Copyright(C) 1995-2009, Suzuki Software\000"
1, 0, Sequencer_specific, 9, 67, 123, 0, 88, 70, 48, 50, 0, 1
1, 0, Text_t, "XFhd:2000/04/02:JP:Classical::::L.v.Beethoven:::Kaoru Suzuki\000"
1, 0, Text_t, "XFln:JP:\203s\203A\203m\203\\\203i\203^\221æ6\224Ô\203w\222·\222²\215ì\225i10-2\201`\221æ2\212y\217Í:L.v.\203x\201[\203g\201[\203\224\203F\203\223:::\227é\202¿\202á\202ñ:\227é\202¿\202á\202ñ\000"
1, 0, Time_signature, 1, 2, 96, 8
1, 0, Sequencer_specific, 3, 0, 0, 65
1, 0, Sequencer_specific, 5, 0, 0, 119, 14, 0
1, 0, Tempo, 285714
1, 384, Time_signature, 3, 2, 96, 8
1, 24576, Tempo, 315789
1, 25728, Tempo, 333333
1, 26496, Tempo, 428571
1, 29184, Tempo, 285714
1, 47616, Tempo, 300000
1, 48384, Tempo, 315789
1, 54528, Tempo, 285714
1, 60288, Tempo, 300000
1, 61056, Tempo, 315789
1, 62208, Tempo, 428571
1, 64896, Tempo, 285714
1, 85248, Tempo, 333333
1, 94464, Tempo, 500000
1, 94848, Tempo, 285714
1, 147840, Tempo, 300000
1, 153600, Tempo, 285714
1, 169728, Tempo, 300000
1, 170880, Tempo, 333333
1, 173184, Tempo, 300000
1, 189312, Tempo, 285714
1, 214656, Tempo, 300000
1, 215424, Tempo, 333333
1, 218112, Tempo, 285714
1, 238848, Tempo, 324324
1, 240000, Tempo, 375000
1, 240768, Tempo, 500000
1, 240768, End_track
2, 0, Start_track
2, 0, Title_t, "Right"
2, 0, Control_c, 0, 0, 0
2, 0, Program_c, 0, 0
2, 0, Control_c, 0, 7, 100
2, 0, Control_c, 0, 10, 72
2, 0, Control_c, 0, 91, 127
2, 0, Key_signature, -4, "minor"
2, 0, Note_on_c, 0, 48, 80
2, 380, Note_off_c, 0, 48, 100
2, 384, Note_on_c, 0, 53, 80
2, 764, Note_off_c, 0, 53, 100
2, 768, Note_on_c, 0, 56, 80
2, 1148, Note_off_c, 0, 56, 100
2, 1152, Note_on_c, 0, 52, 80
2, 1532, Note_off_c, 0, 52, 100
2, 1536, Note_on_c, 0, 53, 80
2, 1916, Note_off_c, 0, 53, 100
2, 1920, Note_on_c, 0, 56, 80
2, 2300, Note_off_c, 0, 56, 100
2, 2304, Note_on_c, 0, 60, 80
2, 2684, Note_off_c, 0, 60, 100
2, 2688, Note_on_c, 0, 61, 80
2, 3068, Note_off_c, 0, 61, 100
2, 3072, Note_on_c, 0, 58, 80
2, 3452, Note_off_c, 0, 58, 100
2, 3456, Note_on_c, 0, 64, 80
2, 3836, Note_off_c, 0, 64, 100
2, 3840, Note_on_c, 0, 65, 80
2, 4220, Note_off_c, 0, 65, 100
2, 4224, Note_on_c, 0, 60, 80
2, 4604, Note_off_c, 0, 60, 100
2, 4608, Note_on_c, 0, 67, 80
2, 4988, Note_off_c, 0, 67, 100
2, 4992, Note_on_c, 0, 68, 80
2, 5376, Note_on_c, 0, 65, 80
2, 5756, Note_off_c, 0, 68, 100
2, 5756, Note_off_c, 0, 65, 100
2, 5760, Note_on_c, 0, 63, 80
2, 5760, Note_on_c, 0, 70, 80
2, 6140, Note_off_c, 0, 70, 100
2, 6144, Note_on_c, 0, 72, 80
2, 6144, Note_on_c, 0, 68, 80
2, 6524, Note_off_c, 0, 63, 100
2, 6528, Note_on_c, 0, 65, 80
2, 6908, Note_off_c, 0, 72, 100
2, 6908, Note_off_c, 0, 68, 100
2, 6912, Note_on_c, 0, 70, 80
2, 6912, Note_on_c, 0, 75, 80
2, 7100, Note_off_c, 0, 75, 100
2, 7104, Note_on_c, 0, 73, 80
2, 7292, Note_off_c, 0, 65, 100
2, 7292, Note_off_c, 0, 70, 100
2, 7292, Note_off_c, 0, 73, 100
2, 7296, Note_on_c, 0, 72, 80
2, 7296, Note_on_c, 0, 68, 80
2, 7296, Note_on_c, 0, 63, 80
2, 8060, Note_off_c, 0, 72, 100
2, 8060, Note_off_c, 0, 68, 100
2, 8060, Note_off_c, 0, 63, 100
2, 8064, Note_on_c, 0, 70, 80
2, 8064, Note_on_c, 0, 67, 80
2, 8064, Note_on_c, 0, 61, 80
2, 8444, Note_off_c, 0, 70, 100
2, 8444, Note_off_c, 0, 67, 100
2, 8444, Note_off_c, 0, 61, 100
2, 8448, Note_on_c, 0, 60, 80
2, 8448, Note_on_c, 0, 68, 80
2, 8828, Note_off_c, 0, 60, 100
2, 8828, Note_off_c, 0, 68, 100
2, 9216, Note_on_c, 0, 48, 80
2, 9596, Note_off_c, 0, 48, 100
2, 9600, Note_on_c, 0, 53, 80
2, 9980, Note_off_c, 0, 53, 100
2, 9984, Note_on_c, 0, 56, 80
2, 10364, Note_off_c, 0, 56, 100
2, 10368, Note_on_c, 0, 52, 80
2, 10748, Note_off_c, 0, 52, 100
2, 10752, Note_on_c, 0, 53, 80
2, 11132, Note_off_c, 0, 53, 100
2, 11136, Note_on_c, 0, 56, 80
2, 11516, Note_off_c, 0, 56, 100
2, 11520, Note_on_c, 0, 60, 80
2, 11900, Note_off_c, 0, 60, 100
2, 11904, Note_on_c, 0, 61, 80
2, 12284, Note_off_c, 0, 61, 100
2, 12288, Note_on_c, 0, 58, 80
2, 12668, Note_off_c, 0, 58, 100
2, 12672, Note_on_c, 0, 64, 80
2, 13052, Note_off_c, 0, 64, 100
2, 13056, Note_on_c, 0, 65, 80
2, 13436, Note_off_c, 0, 65, 100
2, 13440, Note_on_c, 0, 60, 80
2, 13820, Note_off_c, 0, 60, 100
2, 13824, Note_on_c, 0, 67, 80
2, 14204, Note_off_c, 0, 67, 100
2, 14208, Note_on_c, 0, 68, 80
2, 14592, Note_on_c, 0, 65, 80
2, 14972, Note_off_c, 0, 68, 100
2, 14972, Note_off_c, 0, 65, 100
2, 14976, Note_on_c, 0, 63, 80
2, 14976, Note_on_c, 0, 70, 80
2, 15356, Note_off_c, 0, 70, 100
2, 15360, Note_on_c, 0, 72, 80
2, 15360, Note_on_c, 0, 68, 80
2, 15740, Note_off_c, 0, 63, 100
2, 15744, Note_on_c, 0, 65, 80
2, 16124, Note_off_c, 0, 72, 100
2, 16124, Note_off_c, 0, 68, 100
2, 16128, Note_on_c, 0, 70, 80
2, 16128, Note_on_c, 0, 75, 80
2, 16316, Note_off_c, 0, 75, 100
2, 16320, Note_on_c, 0, 73, 80
2, 16508, Note_off_c, 0, 65, 100
2, 16508, Note_off_c, 0, 70, 100
2, 16508, Note_off_c, 0, 73, 100
2, 16512, Note_on_c, 0, 72, 80
2, 16512, Note_on_c, 0, 68, 80
2, 16512, Note_on_c, 0, 63, 80
2, 17276, Note_off_c, 0, 72, 100
2, 17276, Note_off_c, 0, 68, 100
2, 17276, Note_off_c, 0, 63, 100
2, 17280, Note_on_c, 0, 70, 80
2, 17280, Note_on_c, 0, 67, 80
2, 17280, Note_on_c, 0, 61, 80
2, 17660, Note_off_c, 0, 70, 100
2, 17660, Note_off_c, 0, 67, 100
2, 17660, Note_off_c, 0, 61, 100
2, 17664, Note_on_c, 0, 60, 80
2, 17664, Note_on_c, 0, 68, 80
2, 18044, Note_off_c, 0, 60, 100
2, 18044, Note_off_c, 0, 68, 100
2, 18432, Note_on_c, 0, 72, 80
2, 18812, Note_off_c, 0, 72, 100
2, 18816, Note_on_c, 0, 72, 80
2, 19196, Note_off_c, 0, 72, 100
2, 19200, Note_on_c, 0, 73, 80
2, 19388, Note_off_c, 0, 73, 100
2, 19392, Note_on_c, 0, 72, 80
2, 19580, Note_off_c, 0, 72, 100
2, 19584, Note_on_c, 0, 73, 90
2, 19584, Note_on_c, 0, 65, 90
2, 19964, Note_off_c, 0, 73, 100
2, 19964, Note_off_c, 0, 65, 100
2, 19968, Note_on_c, 0, 73, 90
2, 19968, Note_on_c, 0, 65, 90
2, 20348, Note_off_c, 0, 73, 100
2, 20348, Note_off_c, 0, 65, 100
2, 20352, Note_on_c, 0, 67, 80
2, 20540, Note_off_c, 0, 67, 100
2, 20544, Note_on_c, 0, 65, 80
2, 20732, Note_off_c, 0, 65, 100
2, 20736, Note_on_c, 0, 73, 90
2, 20736, Note_on_c, 0, 67, 90
2, 21116, Note_off_c, 0, 73, 100
2, 21116, Note_off_c, 0, 67, 100
2, 21120, Note_on_c, 0, 73, 90
2, 21120, Note_on_c, 0, 67, 90
2, 21500, Note_off_c, 0, 73, 100
2, 21500, Note_off_c, 0, 67, 100
2, 21504, Note_on_c, 0, 75, 80
2, 21692, Note_off_c, 0, 75, 100
2, 21696, Note_on_c, 0, 73, 80
2, 21884, Note_off_c, 0, 73, 100
2, 21888, Note_on_c, 0, 75, 90
2, 21888, Note_on_c, 0, 67, 90
2, 22268, Note_off_c, 0, 75, 100
2, 22268, Note_off_c, 0, 67, 100
2, 22272, Note_on_c, 0, 75, 90
2, 22272, Note_on_c, 0, 67, 90
2, 22652, Note_off_c, 0, 75, 100
2, 22652, Note_off_c, 0, 67, 100
2, 22656, Note_on_c, 0, 69, 80
2, 22844, Note_off_c, 0, 69, 100
2, 22848, Note_on_c, 0, 67, 80
2, 23036, Note_off_c, 0, 67, 100
2, 23040, Note_on_c, 0, 75, 90
2, 23040, Note_on_c, 0, 69, 90
2, 23420, Note_off_c, 0, 75, 100
2, 23420, Note_off_c, 0, 69, 100
2, 23424, Note_on_c, 0, 75, 90
2, 23424, Note_on_c, 0, 69, 90
2, 23804, Note_off_c, 0, 75, 100
2, 23804, Note_off_c, 0, 69, 100
2, 23808, Note_on_c, 0, 77, 80
2, 23996, Note_off_c, 0, 77, 100
2, 24000, Note_on_c, 0, 75, 80
2, 24188, Note_off_c, 0, 75, 100
2, 24192, Note_on_c, 0, 77, 90
2, 24192, Note_on_c, 0, 69, 90
2, 24572, Note_off_c, 0, 77, 100
2, 24572, Note_off_c, 0, 69, 100
2, 24576, Note_on_c, 0, 77, 90
2, 24576, Note_on_c, 0, 69, 90
2, 24956, Note_off_c, 0, 69, 100
2, 24960, Note_on_c, 0, 70, 80
2, 25148, Note_off_c, 0, 70, 100
2, 25152, Note_on_c, 0, 69, 80
2, 25340, Note_off_c, 0, 77, 100
2, 25340, Note_off_c, 0, 69, 100
2, 25344, Note_on_c, 0, 77, 90
2, 25344, Note_on_c, 0, 70, 90
2, 25724, Note_off_c, 0, 77, 100
2, 25724, Note_off_c, 0, 70, 100
2, 25728, Note_on_c, 0, 77, 90
2, 25728, Note_on_c, 0, 71, 90
2, 25824, Note_on_c, 0, 79, 90
2, 25916, Note_off_c, 0, 77, 100
2, 25920, Note_on_c, 0, 77, 90
2, 26012, Note_off_c, 0, 79, 100
2, 26016, Note_on_c, 0, 79, 90
2, 26108, Note_off_c, 0, 77, 100
2, 26112, Note_on_c, 0, 77, 90
2, 26204, Note_off_c, 0, 79, 100
2, 26208, Note_on_c, 0, 79, 90
2, 26300, Note_off_c, 0, 77, 100
2, 26304, Note_on_c, 0, 76, 90
2, 26396, Note_off_c, 0, 79, 100
2, 26400, Note_on_c, 0, 77, 90
2, 26492, Note_off_c, 0, 71, 100
2, 26492, Note_off_c, 0, 76, 100
2, 26492, Note_off_c, 0, 77, 100
2, 26496, Note_on_c, 0, 79, 90
2, 26496, Note_on_c, 0, 71, 90
2, 26876, Note_off_c, 0, 79, 100
2, 26876, Note_off_c, 0, 71, 100
2, 26880, Note_on_c, 0, 72, 90
2, 26880, Note_on_c, 0, 67, 90
2, 28796, Note_off_c, 0, 67, 100
2, 28796, Note_off_c, 0, 72, 100
2, 28800, Note_on_c, 0, 72, 80
2, 29180, Note_off_c, 0, 72, 100
2, 29184, Note_on_c, 0, 77, 80
2, 29564, Note_off_c, 0, 77, 100
2, 29568, Note_on_c, 0, 80, 80
2, 29948, Note_off_c, 0, 80, 100
2, 29952, Note_on_c, 0, 76, 80
2, 30332, Note_off_c, 0, 76, 100
2, 30336, Note_on_c, 0, 77, 80
2, 30716, Note_off_c, 0, 77, 100
2, 30720, Note_on_c, 0, 80, 80
2, 31100, Note_off_c, 0, 80, 100
2, 31104, Note_on_c, 0, 84, 80
2, 31484, Note_off_c, 0, 84, 100
2, 31488, Note_on_c, 0, 85, 80
2, 31868, Note_off_c, 0, 85, 100
2, 31872, Note_on_c, 0, 82, 80
2, 32252, Note_off_c, 0, 82, 100
2, 32256, Note_on_c, 0, 88, 80
2, 32636, Note_off_c, 0, 88, 100
2, 32640, Note_on_c, 0, 89, 80
2, 33020, Note_off_c, 0, 89, 100
2, 33024, Note_on_c, 0, 84, 80
2, 33404, Note_off_c, 0, 84, 100
2, 33408, Note_on_c, 0, 80, 70
2, 33788, Note_off_c, 0, 80, 100
2, 33792, Note_on_c, 0, 82, 70
2, 34172, Note_off_c, 0, 82, 100
2, 34176, Note_on_c, 0, 85, 70
2, 34556, Note_off_c, 0, 85, 100
2, 34560, Note_on_c, 0, 79, 70
2, 34940, Note_off_c, 0, 79, 100
2, 34944, Note_on_c, 0, 80, 70
2, 35708, Note_off_c, 0, 80, 100
2, 35712, Note_on_c, 0, 80, 80
2, 35712, Note_on_c, 0, 68, 80
2, 36092, Note_off_c, 0, 80, 100
2, 36092, Note_off_c, 0, 68, 100
2, 36096, Note_on_c, 0, 80, 80
2, 36096, Note_on_c, 0, 76, 80
2, 36096, Note_on_c, 0, 73, 80
2, 36096, Note_on_c, 0, 70, 80
2, 36860, Note_off_c, 0, 80, 100
2, 36864, Note_on_c, 0, 79, 80
2, 37244, Note_off_c, 0, 76, 100
2, 37244, Note_off_c, 0, 73, 100
2, 37244, Note_off_c, 0, 70, 100
2, 37244, Note_off_c, 0, 79, 100
2, 37248, Note_on_c, 0, 80, 80
2, 37248, Note_on_c, 0, 76, 80
2, 37248, Note_on_c, 0, 73, 80
2, 37248, Note_on_c, 0, 70, 80
2, 38012, Note_off_c, 0, 80, 100
2, 38016, Note_on_c, 0, 79, 80
2, 38396, Note_off_c, 0, 76, 100
2, 38396, Note_off_c, 0, 73, 100
2, 38396, Note_off_c, 0, 70, 100
2, 38396, Note_off_c, 0, 79, 100
2, 38400, Note_on_c, 0, 77, 80
2, 38400, Note_on_c, 0, 68, 80
2, 38780, Note_off_c, 0, 77, 100
2, 38780, Note_off_c, 0, 68, 100
2, 38784, Note_on_c, 0, 79, 80
2, 38784, Note_on_c, 0, 70, 80
2, 39164, Note_off_c, 0, 79, 100
2, 39164, Note_off_c, 0, 70, 100
2, 39168, Note_on_c, 0, 76, 80
2, 39168, Note_on_c, 0, 67, 80
2, 39548, Note_off_c, 0, 76, 100
2, 39548, Note_off_c, 0, 67, 100
2, 39552, Note_on_c, 0, 77, 80
2, 39552, Note_on_c, 0, 68, 80
2, 39932, Note_off_c, 0, 77, 100
2, 39932, Note_off_c, 0, 68, 100
2, 39936, Note_on_c, 0, 72, 80
2, 40316, Note_off_c, 0, 72, 100
2, 40320, Note_on_c, 0, 68, 80
2, 40700, Note_off_c, 0, 68, 100
2, 40704, Note_on_c, 0, 68, 80
2, 40704, Note_on_c, 0, 64, 80
2, 40704, Note_on_c, 0, 61, 80
2, 40704, Note_on_c, 0, 58, 80
2, 41468, Note_off_c, 0, 68, 100
2, 41472, Note_on_c, 0, 67, 80
2, 41852, Note_off_c, 0, 64, 100
2, 41852, Note_off_c, 0, 61, 100
2, 41852, Note_off_c, 0, 58, 100
2, 41852, Note_off_c, 0, 67, 100
2, 41856, Note_on_c, 0, 68, 80
2, 41856, Note_on_c, 0, 64, 80
2, 41856, Note_on_c, 0, 61, 80
2, 41856, Note_on_c, 0, 58, 80
2, 42620, Note_off_c, 0, 68, 100
2, 42624, Note_on_c, 0, 67, 80
2, 43004, Note_off_c, 0, 64, 100
2, 43004, Note_off_c, 0, 61, 100
2, 43004, Note_off_c, 0, 58, 100
2, 43004, Note_off_c, 0, 67, 100
2, 43008, Note_on_c, 0, 65, 80
2, 43008, Note_on_c, 0, 56, 80
2, 43388, Note_off_c, 0, 65, 100
2, 43388, Note_off_c, 0, 56, 100
2, 43392, Note_on_c, 0, 67, 80
2, 43392, Note_on_c, 0, 58, 80
2, 43772, Note_off_c, 0, 67, 100
2, 43772, Note_off_c, 0, 58, 100
2, 43776, Note_on_c, 0, 64, 80
2, 43776, Note_on_c, 0, 55, 80
2, 44156, Note_off_c, 0, 64, 100
2, 44156, Note_off_c, 0, 55, 100
2, 44160, Note_on_c, 0, 65, 80
2, 44160, Note_on_c, 0, 56, 80
2, 44540, Note_off_c, 0, 65, 100
2, 44540, Note_off_c, 0, 56, 100
2, 44928, Note_on_c, 0, 60, 80
2, 45308, Note_off_c, 0, 60, 100
2, 45312, Note_on_c, 0, 64, 80
2, 45312, Note_on_c, 0, 60, 80
2, 46076, Note_off_c, 0, 64, 100
2, 46080, Note_on_c, 0, 65, 80
2, 46460, Note_off_c, 0, 60, 100
2, 46460, Note_off_c, 0, 65, 100
2, 46464, Note_on_c, 0, 60, 80
2, 46464, Note_on_c, 0, 64, 80
2, 46464, Note_on_c, 0, 67, 80
2, 47228, Note_off_c, 0, 64, 100
2, 47228, Note_off_c, 0, 67, 100
2, 47232, Note_on_c, 0, 65, 80
2, 47232, Note_on_c, 0, 68, 80
2, 47612, Note_off_c, 0, 60, 100
2, 47612, Note_off_c, 0, 65, 100
2, 47612, Note_off_c, 0, 68, 100
2, 47616, Note_on_c, 0, 72, 80
2, 47616, Note_on_c, 0, 64, 80
2, 47616, Note_on_c, 0, 67, 80
2, 48188, Note_off_c, 0, 72, 100
2, 48188, Note_off_c, 0, 64, 100
2, 48188, Note_off_c, 0, 67, 100
2, 48192, Note_on_c, 0, 70, 80
2, 48380, Note_off_c, 0, 70, 100
2, 48384, Note_on_c, 0, 68, 80
2, 48572, Note_off_c, 0, 68, 100
2, 48576, Note_on_c, 0, 67, 80
2, 48764, Note_off_c, 0, 67, 100
2, 48768, Note_on_c, 0, 70, 80
2, 48956, Note_off_c, 0, 70, 100
2, 48960, Note_on_c, 0, 68, 80
2, 49148, Note_off_c, 0, 68, 100
2, 49152, Note_on_c, 0, 67, 80
2, 49340, Note_off_c, 0, 67, 100
2, 49344, Note_on_c, 0, 65, 80
2, 49532, Note_off_c, 0, 65, 100
2, 49536, Note_on_c, 0, 72, 80
2, 49632, Note_on_c, 0, 73, 80
2, 49724, Note_off_c, 0, 72, 100
2, 49728, Note_on_c, 0, 71, 80
2, 49820, Note_off_c, 0, 73, 100
2, 49824, Note_on_c, 0, 72, 80
2, 49916, Note_off_c, 0, 71, 100
2, 49916, Note_off_c, 0, 72, 100
2, 49920, Note_on_c, 0, 79, 80
2, 49920, Note_on_c, 0, 76, 80
2, 49920, Note_on_c, 0, 72, 80
2, 50684, Note_off_c, 0, 79, 100
2, 50684, Note_off_c, 0, 76, 100
2, 50688, Note_on_c, 0, 77, 80
2, 50688, Note_on_c, 0, 80, 80
2, 51068, Note_off_c, 0, 77, 100
2, 51068, Note_off_c, 0, 80, 100
2, 51072, Note_on_c, 0, 79, 80
2, 51072, Note_on_c, 0, 82, 80
2, 51452, Note_off_c, 0, 72, 100
2, 51452, Note_off_c, 0, 79, 100
2, 51452, Note_off_c, 0, 82, 100
2, 51840, Note_on_c, 0, 76, 80
2, 51840, Note_on_c, 0, 79, 80
2, 51840, Note_on_c, 0, 88, 80
2, 52220, Note_off_c, 0, 76, 100
2, 52220, Note_off_c, 0, 79, 100
2, 52220, Note_off_c, 0, 88, 100
2, 52224, Note_on_c, 0, 77, 80
2, 52224, Note_on_c, 0, 80, 80
2, 52224, Note_on_c, 0, 89, 80
2, 52604, Note_off_c, 0, 77, 100
2, 52604, Note_off_c, 0, 80, 100
2, 52604, Note_off_c, 0, 89, 100
2, 54144, Note_on_c, 0, 72, 80
2, 54524, Note_off_c, 0, 72, 100
2, 54528, Note_on_c, 0, 72, 80
2, 54908, Note_off_c, 0, 72, 100
2, 54912, Note_on_c, 0, 73, 80
2, 55100, Note_off_c, 0, 73, 100
2, 55104, Note_on_c, 0, 72, 80
2, 55292, Note_off_c, 0, 72, 100
2, 55296, Note_on_c, 0, 73, 80
2, 55296, Note_on_c, 0, 65, 80
2, 55676, Note_off_c, 0, 73, 100
2, 55676, Note_off_c, 0, 65, 100
2, 55680, Note_on_c, 0, 73, 80
2, 55680, Note_on_c, 0, 65, 80
2, 56060, Note_off_c, 0, 73, 100
2, 56060, Note_off_c, 0, 65, 100
2, 56064, Note_on_c, 0, 67, 80
2, 56252, Note_off_c, 0, 67, 100
2, 56256, Note_on_c, 0, 65, 80
2, 56444, Note_off_c, 0, 65, 100
2, 56448, Note_on_c, 0, 73, 80
2, 56448, Note_on_c, 0, 67, 80
2, 56828, Note_off_c, 0, 73, 100
2, 56828, Note_off_c, 0, 67, 100
2, 56832, Note_on_c, 0, 73, 80
2, 56832, Note_on_c, 0, 67, 80
2, 57212, Note_off_c, 0, 73, 100
2, 57212, Note_off_c, 0, 67, 100
2, 57216, Note_on_c, 0, 75, 80
2, 57404, Note_off_c, 0, 75, 100
2, 57408, Note_on_c, 0, 73, 80
2, 57596, Note_off_c, 0, 73, 100
2, 57600, Note_on_c, 0, 75, 80
2, 57600, Note_on_c, 0, 67, 80
2, 57980, Note_off_c, 0, 75, 100
2, 57980, Note_off_c, 0, 67, 100
2, 57984, Note_on_c, 0, 75, 80
2, 57984, Note_on_c, 0, 67, 80
2, 58364, Note_off_c, 0, 75, 100
2, 58364, Note_off_c, 0, 67, 100
2, 58368, Note_on_c, 0, 69, 80
2, 58556, Note_off_c, 0, 69, 100
2, 58560, Note_on_c, 0, 67, 80
2, 58748, Note_off_c, 0, 67, 100
2, 58752, Note_on_c, 0, 75, 80
2, 58752, Note_on_c, 0, 69, 80
2, 59132, Note_off_c, 0, 75, 100
2, 59132, Note_off_c, 0, 69, 100
2, 59136, Note_on_c, 0, 75, 80
2, 59136, Note_on_c, 0, 69, 80
2, 59516, Note_off_c, 0, 75, 100
2, 59516, Note_off_c, 0, 69, 100
2, 59520, Note_on_c, 0, 77, 80
2, 59708, Note_off_c, 0, 77, 100
2, 59712, Note_on_c, 0, 75, 80
2, 59900, Note_off_c, 0, 75, 100
2, 59904, Note_on_c, 0, 77, 80
2, 59904, Note_on_c, 0, 69, 80
2, 60284, Note_off_c, 0, 77, 100
2, 60284, Note_off_c, 0, 69, 100
2, 60288, Note_on_c, 0, 77, 80
2, 60288, Note_on_c, 0, 69, 80
2, 60668, Note_off_c, 0, 69, 100
2, 60672, Note_on_c, 0, 70, 80
2, 60860, Note_off_c, 0, 70, 100
2, 60864, Note_on_c, 0, 69, 80
2, 61052, Note_off_c, 0, 77, 100
2, 61052, Note_off_c, 0, 69, 100
2, 61056, Note_on_c, 0, 77, 100
2, 61056, Note_on_c, 0, 70, 100
2, 61436, Note_off_c, 0, 77, 100
2, 61436, Note_off_c, 0, 70, 100
2, 61440, Note_on_c, 0, 77, 100
2, 61440, Note_on_c, 0, 71, 100
2, 61536, Note_on_c, 0, 79, 100
2, 61628, Note_off_c, 0, 77, 100
2, 61632, Note_on_c, 0, 77, 100
2, 61724, Note_off_c, 0, 79, 100
2, 61728, Note_on_c, 0, 79, 100
2, 61820, Note_off_c, 0, 77, 100
2, 61824, Note_on_c, 0, 77, 100
2, 61916, Note_off_c, 0, 79, 100
2, 61920, Note_on_c, 0, 79, 100
2, 62012, Note_off_c, 0, 77, 100
2, 62016, Note_on_c, 0, 76, 100
2, 62108, Note_off_c, 0, 79, 100
2, 62112, Note_on_c, 0, 77, 100
2, 62204, Note_off_c, 0, 71, 100
2, 62204, Note_off_c, 0, 76, 100
2, 62204, Note_off_c, 0, 77, 100
2, 62208, Note_on_c, 0, 79, 100
2, 62208, Note_on_c, 0, 71, 100
2, 62588, Note_off_c, 0, 79, 100
2, 62588, Note_off_c, 0, 71, 100
2, 62592, Note_on_c, 0, 72, 100
2, 62592, Note_on_c, 0, 67, 100
2, 64508, Note_off_c, 0, 67, 100
2, 64508, Note_off_c, 0, 72, 100
2, 64512, Note_on_c, 0, 72, 80
2, 64892, Note_off_c, 0, 72, 100
2, 64896, Note_on_c, 0, 77, 80
2, 65276, Note_off_c, 0, 77, 100
2, 65280, Note_on_c, 0, 80, 80
2, 65660, Note_off_c, 0, 80, 100
2, 65664, Note_on_c, 0, 76, 80
2, 66044, Note_off_c, 0, 76, 100
2, 66048, Note_on_c, 0, 77, 80
2, 66428, Note_off_c, 0, 77, 100
2, 66432, Note_on_c, 0, 80, 80
2, 66812, Note_off_c, 0, 80, 100
2, 66816, Note_on_c, 0, 84, 80
2, 67196, Note_off_c, 0, 84, 100
2, 67200, Note_on_c, 0, 85, 80
2, 67580, Note_off_c, 0, 85, 100
2, 67584, Note_on_c, 0, 82, 80
2, 67964, Note_off_c, 0, 82, 100
2, 67968, Note_on_c, 0, 88, 80
2, 68348, Note_off_c, 0, 88, 100
2, 68352, Note_on_c, 0, 89, 80
2, 68732, Note_off_c, 0, 89, 100
2, 68736, Note_on_c, 0, 84, 80
2, 69116, Note_off_c, 0, 84, 100
2, 69120, Note_on_c, 0, 80, 80
2, 69500, Note_off_c, 0, 80, 100
2, 69504, Note_on_c, 0, 82, 80
2, 69884, Note_off_c, 0, 82, 100
2, 69888, Note_on_c, 0, 85, 80
2, 70268, Note_off_c, 0, 85, 100
2, 70272, Note_on_c, 0, 79, 80
2, 70652, Note_off_c, 0, 79, 100
2, 70656, Note_on_c, 0, 80, 80
2, 71420, Note_off_c, 0, 80, 100
2, 71424, Note_on_c, 0, 80, 80
2, 71424, Note_on_c, 0, 68, 80
2, 71804, Note_off_c, 0, 80, 100
2, 71804, Note_off_c, 0, 68, 100
2, 71808, Note_on_c, 0, 80, 80
2, 71808, Note_on_c, 0, 76, 80
2, 71808, Note_on_c, 0, 73, 80
2, 71808, Note_on_c, 0, 70, 80
2, 72572, Note_off_c, 0, 80, 100
2, 72576, Note_on_c, 0, 79, 80
2, 72956, Note_off_c, 0, 76, 100
2, 72956, Note_off_c, 0, 73, 100
2, 72956, Note_off_c, 0, 70, 100
2, 72956, Note_off_c, 0, 79, 100
2, 72960, Note_on_c, 0, 80, 80
2, 72960, Note_on_c, 0, 76, 80
2, 72960, Note_on_c, 0, 73, 80
2, 72960, Note_on_c, 0, 70, 80
2, 73724, Note_off_c, 0, 80, 100
2, 73728, Note_on_c, 0, 79, 80
2, 74108, Note_off_c, 0, 76, 100
2, 74108, Note_off_c, 0, 73, 100
2, 74108, Note_off_c, 0, 70, 100
2, 74108, Note_off_c, 0, 79, 100
2, 74112, Note_on_c, 0, 77, 80
2, 74112, Note_on_c, 0, 68, 80
2, 74492, Note_off_c, 0, 77, 100
2, 74492, Note_off_c, 0, 68, 100
2, 74496, Note_on_c, 0, 79, 80
2, 74496, Note_on_c, 0, 70, 80
2, 74876, Note_off_c, 0, 79, 100
2, 74876, Note_off_c, 0, 70, 100
2, 74880, Note_on_c, 0, 76, 80
2, 74880, Note_on_c, 0, 67, 80
2, 75260, Note_off_c, 0, 76, 100
2, 75260, Note_off_c, 0, 67, 100
2, 75264, Note_on_c, 0, 77, 80
2, 75264, Note_on_c, 0, 68, 80
2, 75644, Note_off_c, 0, 77, 100
2, 75644, Note_off_c, 0, 68, 100
2, 75648, Note_on_c, 0, 72, 80
2, 76028, Note_off_c, 0, 72, 100
2, 76032, Note_on_c, 0, 68, 80
2, 76412, Note_off_c, 0, 68, 100
2, 76416, Note_on_c, 0, 68, 80
2, 76416, Note_on_c, 0, 64, 80
2, 76416, Note_on_c, 0, 61, 80
2, 76416, Note_on_c, 0, 58, 80
2, 77180, Note_off_c, 0, 68, 100
2, 77184, Note_on_c, 0, 67, 80
2, 77564, Note_off_c, 0, 64, 100
2, 77564, Note_off_c, 0, 61, 100
2, 77564, Note_off_c, 0, 58, 100
2, 77564, Note_off_c, 0, 67, 100
2, 77568, Note_on_c, 0, 68, 80
2, 77568, Note_on_c, 0, 64, 80
2, 77568, Note_on_c, 0, 61, 80
2, 77568, Note_on_c, 0, 58, 80
2, 78332, Note_off_c, 0, 68, 100
2, 78336, Note_on_c, 0, 67, 80
2, 78716, Note_off_c, 0, 64, 100
2, 78716, Note_off_c, 0, 61, 100
2, 78716, Note_off_c, 0, 58, 100
2, 78716, Note_off_c, 0, 67, 100
2, 78720, Note_on_c, 0, 65, 80
2, 78720, Note_on_c, 0, 56, 80
2, 79100, Note_off_c, 0, 65, 100
2, 79100, Note_off_c, 0, 56, 100
2, 79104, Note_on_c, 0, 67, 80
2, 79104, Note_on_c, 0, 58, 80
2, 79484, Note_off_c, 0, 67, 100
2, 79484, Note_off_c, 0, 58, 100
2, 79488, Note_on_c, 0, 64, 80
2, 79488, Note_on_c, 0, 55, 80
2, 79868, Note_off_c, 0, 64, 100
2, 79868, Note_off_c, 0, 55, 100
2, 79872, Note_on_c, 0, 65, 80
2, 79872, Note_on_c, 0, 56, 80
2, 80252, Note_off_c, 0, 65, 100
2, 80252, Note_off_c, 0, 56, 100
2, 80640, Note_on_c, 0, 60, 80
2, 81020, Note_off_c, 0, 60, 100
2, 81024, Note_on_c, 0, 64, 80
2, 81024, Note_on_c, 0, 60, 80
2, 81788, Note_off_c, 0, 64, 100
2, 81792, Note_on_c, 0, 65, 80
2, 82172, Note_off_c, 0, 60, 100
2, 82172, Note_off_c, 0, 65, 100
2, 82176, Note_on_c, 0, 60, 80
2, 82176, Note_on_c, 0, 64, 80
2, 82176, Note_on_c, 0, 67, 80
2, 82940, Note_off_c, 0, 64, 100
2, 82940, Note_off_c, 0, 67, 100
2, 82944, Note_on_c, 0, 65, 80
2, 82944, Note_on_c, 0, 68, 80
2, 83324, Note_off_c, 0, 60, 100
2, 83324, Note_off_c, 0, 65, 100
2, 83324, Note_off_c, 0, 68, 100
2, 83328, Note_on_c, 0, 72, 80
2, 83328, Note_on_c, 0, 64, 80
2, 83328, Note_on_c, 0, 67, 80
2, 83900, Note_off_c, 0, 72, 100
2, 83900, Note_off_c, 0, 64, 100
2, 83900, Note_off_c, 0, 67, 100
2, 83904, Note_on_c, 0, 70, 80
2, 84092, Note_off_c, 0, 70, 100
2, 84096, Note_on_c, 0, 68, 80
2, 84284, Note_off_c, 0, 68, 100
2, 84288, Note_on_c, 0, 67, 80
2, 84476, Note_off_c, 0, 67, 100
2, 84480, Note_on_c, 0, 70, 80
2, 84668, Note_off_c, 0, 70, 100
2, 84672, Note_on_c, 0, 68, 80
2, 84860, Note_off_c, 0, 68, 100
2, 84864, Note_on_c, 0, 67, 80
2, 85052, Note_off_c, 0, 67, 100
2, 85056, Note_on_c, 0, 65, 80
2, 85244, Note_off_c, 0, 65, 100
2, 85248, Note_on_c, 0, 72, 80
2, 85344, Note_on_c, 0, 73, 81
2, 85436, Note_off_c, 0, 72, 100
2, 85440, Note_on_c, 0, 71, 82
2, 85532, Note_off_c, 0, 73, 100
2, 85536, Note_on_c, 0, 72, 83
2, 85628, Note_off_c, 0, 71, 100
2, 85628, Note_off_c, 0, 72, 100
2, 85632, Note_on_c, 0, 79, 84
2, 85632, Note_on_c, 0, 76, 84
2, 85632, Note_on_c, 0, 72, 84
2, 86396, Note_off_c, 0, 79, 100
2, 86396, Note_off_c, 0, 76, 100
2, 86400, Note_on_c, 0, 77, 94
2, 86400, Note_on_c, 0, 80, 94
2, 86780, Note_off_c, 0, 77, 100
2, 86780, Note_off_c, 0, 80, 100
2, 86784, Note_on_c, 0, 79, 99
2, 86784, Note_on_c, 0, 82, 99
2, 87164, Note_off_c, 0, 72, 100
2, 87164, Note_off_c, 0, 79, 100
2, 87164, Note_off_c, 0, 82, 100
2, 87552, Note_on_c, 0, 76, 110
2, 87552, Note_on_c, 0, 79, 110
2, 87552, Note_on_c, 0, 88, 110
2, 87932, Note_off_c, 0, 76, 100
2, 87932, Note_off_c, 0, 79, 100
2, 87932, Note_off_c, 0, 88, 100
2, 87936, Note_on_c, 0, 77, 110
2, 87936, Note_on_c, 0, 80, 110
2, 87936, Note_on_c, 0, 89, 110
2, 88316, Note_off_c, 0, 77, 100
2, 88316, Note_off_c, 0, 80, 100
2, 88316, Note_off_c, 0, 89, 100
2, 89088, Key_signature, -5, "minor"
2, 89856, Note_on_c, 0, 65, 80
2, 89856, Note_on_c, 0, 56, 80
2, 89856, Note_on_c, 0, 53, 80
2, 90236, Note_off_c, 0, 65, 100
2, 90236, Note_off_c, 0, 56, 100
2, 90236, Note_off_c, 0, 53, 100
2, 90240, Note_on_c, 0, 65, 80
2, 90240, Note_on_c, 0, 56, 80
2, 90240, Note_on_c, 0, 53, 80
2, 91004, Note_off_c, 0, 65, 100
2, 91004, Note_off_c, 0, 56, 100
2, 91004, Note_off_c, 0, 53, 100
2, 91008, Note_on_c, 0, 65, 80
2, 91008, Note_on_c, 0, 56, 80
2, 91008, Note_on_c, 0, 53, 80
2, 91388, Note_off_c, 0, 65, 100
2, 91388, Note_off_c, 0, 56, 100
2, 91388, Note_off_c, 0, 53, 100
2, 91392, Note_on_c, 0, 65, 80
2, 91392, Note_on_c, 0, 56, 80
2, 91392, Note_on_c, 0, 53, 80
2, 92156, Note_off_c, 0, 65, 100
2, 92156, Note_off_c, 0, 56, 100
2, 92156, Note_off_c, 0, 53, 100
2, 92160, Note_on_c, 0, 65, 80
2, 92160, Note_on_c, 0, 56, 80
2, 92160, Note_on_c, 0, 53, 80
2, 92540, Note_off_c, 0, 65, 100
2, 92540, Note_off_c, 0, 56, 100
2, 92540, Note_off_c, 0, 53, 100
2, 92544, Note_on_c, 0, 65, 80
2, 92544, Note_on_c, 0, 58, 80
2, 92544, Note_on_c, 0, 54, 80
2, 93692, Note_off_c, 0, 65, 100
2, 93696, Note_on_c, 0, 63, 80
2, 94460, Note_off_c, 0, 54, 100
2, 94460, Note_off_c, 0, 58, 100
2, 94460, Note_off_c, 0, 63, 100
2, 94464, Note_on_c, 0, 63, 80
2, 94556, Note_off_c, 0, 63, 100
2, 94560, Note_on_c, 0, 65, 80
2, 94592, Note_on_c, 0, 63, 80
2, 94620, Note_off_c, 0, 65, 100
2, 94624, Note_on_c, 0, 62, 80
2, 94652, Note_off_c, 0, 63, 100
2, 94656, Note_on_c, 0, 63, 80
2, 94684, Note_off_c, 0, 62, 100
2, 94748, Note_off_c, 0, 63, 100
2, 94752, Note_on_c, 0, 65, 80
2, 94844, Note_off_c, 0, 65, 100
2, 94848, Note_on_c, 0, 66, 80
2, 94848, Note_on_c, 0, 63, 80
2, 94848, Note_on_c, 0, 56, 80
2, 95612, Note_off_c, 0, 66, 100
2, 95612, Note_off_c, 0, 63, 100
2, 95612, Note_off_c, 0, 56, 100
2, 95616, Note_on_c, 0, 66, 80
2, 95616, Note_on_c, 0, 63, 80
2, 95616, Note_on_c, 0, 56, 80
2, 95996, Note_off_c, 0, 66, 100
2, 95996, Note_off_c, 0, 63, 100
2, 95996, Note_off_c, 0, 56, 100
2, 96000, Note_on_c, 0, 66, 80
2, 96000, Note_on_c, 0, 63, 80
2, 96000, Note_on_c, 0, 56, 80
2, 96764, Note_off_c, 0, 66, 100
2, 96764, Note_off_c, 0, 63, 100
2, 96764, Note_off_c, 0, 56, 100
2, 96768, Note_on_c, 0, 66, 80
2, 96768, Note_on_c, 0, 63, 80
2, 96768, Note_on_c, 0, 56, 80
2, 97148, Note_off_c, 0, 66, 100
2, 97148, Note_off_c, 0, 63, 100
2, 97148, Note_off_c, 0, 56, 100
2, 97152, Note_on_c, 0, 66, 80
2, 97152, Note_on_c, 0, 63, 80
2, 97152, Note_on_c, 0, 56, 80
2, 98300, Note_off_c, 0, 66, 100
2, 98300, Note_off_c, 0, 63, 100
2, 98304, Note_on_c, 0, 61, 80
2, 98304, Note_on_c, 0, 65, 80
2, 98684, Note_off_c, 0, 56, 100
2, 98684, Note_off_c, 0, 61, 100
2, 98684, Note_off_c, 0, 65, 100
2, 99072, Note_on_c, 0, 65, 80
2, 99260, Note_off_c, 0, 65, 100
2, 99264, Note_on_c, 0, 67, 80
2, 99452, Note_off_c, 0, 67, 100
2, 99456, Note_on_c, 0, 68, 80
2, 99456, Note_on_c, 0, 65, 80
2, 100220, Note_off_c, 0, 68, 100
2, 100220, Note_off_c, 0, 65, 100
2, 100224, Note_on_c, 0, 68, 87
2, 100224, Note_on_c, 0, 65, 87
2, 100604, Note_off_c, 0, 68, 100
2, 100604, Note_off_c, 0, 65, 100
2, 100608, Note_on_c, 0, 68, 91
2, 100608, Note_on_c, 0, 63, 91
2, 101372, Note_off_c, 0, 68, 100
2, 101372, Note_off_c, 0, 63, 100
2, 101376, Note_on_c, 0, 68, 99
2, 101376, Note_on_c, 0, 63, 99
2, 101756, Note_off_c, 0, 68, 100
2, 101756, Note_off_c, 0, 63, 100
2, 101760, Note_on_c, 0, 73, 110
2, 101760, Note_on_c, 0, 63, 110
2, 101760, Note_on_c, 0, 61, 110
2, 101760, Note_on_c, 0, 68, 110
2, 102908, Note_off_c, 0, 68, 100
2, 102912, Note_on_c, 0, 67, 110
2, 103676, Note_off_c, 0, 61, 100
2, 103676, Note_off_c, 0, 63, 100
2, 103676, Note_off_c, 0, 73, 100
2, 103676, Note_off_c, 0, 67, 100
2, 103680, Note_on_c, 0, 72, 80
2, 103680, Note_on_c, 0, 68, 80
2, 103680, Note_on_c, 0, 63, 80
2, 103680, Note_on_c, 0, 60, 80
2, 104060, Note_off_c, 0, 72, 100
2, 104060, Note_off_c, 0, 68, 100
2, 104060, Note_off_c, 0, 63, 100
2, 104060, Note_off_c, 0, 60, 100
2, 104064, Note_on_c, 0, 72, 80
2, 104064, Note_on_c, 0, 65, 80
2, 104444, Note_off_c, 0, 72, 100
2, 104448, Note_on_c, 0, 70, 80
2, 104828, Note_off_c, 0, 65, 100
2, 104828, Note_off_c, 0, 70, 100
2, 104832, Note_on_c, 0, 68, 80
2, 104832, Note_on_c, 0, 65, 80
2, 105212, Note_off_c, 0, 68, 100
2, 105212, Note_off_c, 0, 65, 100
2, 105216, Note_on_c, 0, 68, 80
2, 105216, Note_on_c, 0, 63, 80
2, 105980, Note_off_c, 0, 68, 100
2, 105980, Note_off_c, 0, 63, 100
2, 105984, Note_on_c, 0, 67, 80
2, 105984, Note_on_c, 0, 61, 80
2, 106364, Note_off_c, 0, 67, 100
2, 106364, Note_off_c, 0, 61, 100
2, 106368, Note_on_c, 0, 70, 80
2, 106368, Note_on_c, 0, 61, 80
2, 107516, Note_off_c, 0, 70, 100
2, 107516, Note_off_c, 0, 61, 100
2, 107520, Note_on_c, 0, 68, 80
2, 107520, Note_on_c, 0, 60, 80
2, 107900, Note_off_c, 0, 68, 100
2, 107900, Note_off_c, 0, 60, 100
2, 108288, Note_on_c, 0, 65, 80
2, 108288, Note_on_c, 0, 56, 80
2, 108288, Note_on_c, 0, 53, 80
2, 108668, Note_off_c, 0, 65, 100
2, 108668, Note_off_c, 0, 56, 100
2, 108668, Note_off_c, 0, 53, 100
2, 108672, Note_on_c, 0, 65, 80
2, 108672, Note_on_c, 0, 56, 80
2, 108672, Note_on_c, 0, 53, 80
2, 109436, Note_off_c, 0, 65, 100
2, 109436, Note_off_c, 0, 56, 100
2, 109436, Note_off_c, 0, 53, 100
2, 109440, Note_on_c, 0, 65, 80
2, 109440, Note_on_c, 0, 56, 80
2, 109440, Note_on_c, 0, 53, 80
2, 109820, Note_off_c, 0, 65, 100
2, 109820, Note_off_c, 0, 56, 100
2, 109820, Note_off_c, 0, 53, 100
2, 109824, Note_on_c, 0, 65, 80
2, 109824, Note_on_c, 0, 56, 80
2, 109824, Note_on_c, 0, 53, 80
2, 110588, Note_off_c, 0, 65, 100
2, 110588, Note_off_c, 0, 56, 100
2, 110588, Note_off_c, 0, 53, 100
2, 110592, Note_on_c, 0, 65, 80
2, 110592, Note_on_c, 0, 56, 80
2, 110592, Note_on_c, 0, 53, 80
2, 110972, Note_off_c, 0, 65, 100
2, 110972, Note_off_c, 0, 56, 100
2, 110972, Note_off_c, 0, 53, 100
2, 110976, Note_on_c, 0, 58, 80
2, 110976, Note_on_c, 0, 65, 80
2, 110976, Note_on_c, 0, 54, 80
2, 112124, Note_off_c, 0, 65, 100
2, 112124, Note_off_c, 0, 54, 100
2, 112128, Note_on_c, 0, 63, 80
2, 112508, Note_off_c, 0, 58, 100
2, 112508, Note_off_c, 0, 63, 100
2, 112896, Note_on_c, 0, 63, 80
2, 113084, Note_off_c, 0, 63, 100
2, 113088, Note_on_c, 0, 65, 80
2, 113276, Note_off_c, 0, 65, 100
2, 113280, Note_on_c, 0, 66, 80
2, 113280, Note_on_c, 0, 63, 80
2, 113280, Note_on_c, 0, 60, 80
2, 113280, Note_on_c, 0, 57, 80
2, 114044, Note_off_c, 0, 66, 100
2, 114044, Note_off_c, 0, 63, 100
2, 114044, Note_off_c, 0, 60, 100
2, 114044, Note_off_c, 0, 57, 100
2, 114048, Note_on_c, 0, 66, 80
2, 114048, Note_on_c, 0, 63, 80
2, 114048, Note_on_c, 0, 60, 80
2, 114048, Note_on_c, 0, 57, 80
2, 114428, Note_off_c, 0, 66, 100
2, 114428, Note_off_c, 0, 63, 100
2, 114428, Note_off_c, 0, 60, 100
2, 114428, Note_off_c, 0, 57, 100
2, 114432, Note_on_c, 0, 66, 80
2, 114432, Note_on_c, 0, 63, 80
2, 114432, Note_on_c, 0, 60, 80
2, 114432, Note_on_c, 0, 57, 80
2, 115196, Note_off_c, 0, 66, 100
2, 115196, Note_off_c, 0, 63, 100
2, 115196, Note_off_c, 0, 60, 100
2, 115196, Note_off_c, 0, 57, 100
2, 115200, Note_on_c, 0, 66, 80
2, 115200, Note_on_c, 0, 63, 80
2, 115200, Note_on_c, 0, 60, 80
2, 115200, Note_on_c, 0, 57, 80
2, 115580, Note_off_c, 0, 66, 100
2, 115580, Note_off_c, 0, 63, 100
2, 115580, Note_off_c, 0, 60, 100
2, 115580, Note_off_c, 0, 57, 100
2, 115584, Note_on_c, 0, 66, 80
2, 115584, Note_on_c, 0, 63, 80
2, 115584, Note_on_c, 0, 60, 80
2, 115584, Note_on_c, 0, 57, 80
2, 116732, Note_off_c, 0, 66, 100
2, 116732, Note_off_c, 0, 63, 100
2, 116732, Note_off_c, 0, 60, 100
2, 116732, Note_off_c, 0, 57, 100
2, 116736, Note_on_c, 0, 65, 80
2, 116736, Note_on_c, 0, 61, 80
2, 116736, Note_on_c, 0, 58, 80
2, 117116, Note_off_c, 0, 65, 100
2, 117116, Note_off_c, 0, 61, 100
2, 117116, Note_off_c, 0, 58, 100
2, 117504, Note_on_c, 0, 67, 80
2, 117692, Note_off_c, 0, 67, 100
2, 117696, Note_on_c, 0, 68, 80
2, 117884, Note_off_c, 0, 68, 100
2, 117888, Note_on_c, 0, 70, 80
2, 117888, Note_on_c, 0, 67, 80
2, 117888, Note_on_c, 0, 61, 80
2, 118652, Note_off_c, 0, 70, 100
2, 118652, Note_off_c, 0, 67, 100
2, 118652, Note_off_c, 0, 61, 100
2, 118656, Note_on_c, 0, 70, 80
2, 118656, Note_on_c, 0, 67, 80
2, 118656, Note_on_c, 0, 61, 80
2, 119036, Note_off_c, 0, 70, 100
2, 119036, Note_off_c, 0, 67, 100
2, 119036, Note_off_c, 0, 61, 100
2, 119040, Note_on_c, 0, 70, 80
2, 119040, Note_on_c, 0, 67, 80
2, 119040, Note_on_c, 0, 61, 80
2, 119804, Note_off_c, 0, 70, 100
2, 119804, Note_off_c, 0, 67, 100
2, 119804, Note_off_c, 0, 61, 100
2, 119808, Note_on_c, 0, 70, 80
2, 119808, Note_on_c, 0, 67, 80
2, 119808, Note_on_c, 0, 61, 80
2, 120188, Note_off_c, 0, 70, 100
2, 120188, Note_off_c, 0, 67, 100
2, 120188, Note_off_c, 0, 61, 100
2, 120192, Note_on_c, 0, 70, 80
2, 120192, Note_on_c, 0, 67, 80
2, 120192, Note_on_c, 0, 60, 80
2, 121340, Note_off_c, 0, 70, 100
2, 121340, Note_off_c, 0, 67, 100
2, 121344, Note_on_c, 0, 68, 80
2, 121344, Note_on_c, 0, 65, 80
2, 121724, Note_off_c, 0, 60, 100
2, 121724, Note_off_c, 0, 68, 100
2, 121724, Note_off_c, 0, 65, 100
2, 122112, Note_on_c, 0, 68, 80
2, 122112, Note_on_c, 0, 56, 80
2, 122492, Note_off_c, 0, 68, 100
2, 122492, Note_off_c, 0, 56, 100
2, 122496, Note_on_c, 0, 65, 80
2, 122496, Note_on_c, 0, 58, 80
2, 122496, Note_on_c, 0, 56, 80
2, 122876, Note_off_c, 0, 65, 100
2, 122876, Note_off_c, 0, 58, 100
2, 122876, Note_off_c, 0, 56, 100
2, 123264, Note_on_c, 0, 65, 80
2, 123264, Note_on_c, 0, 58, 80
2, 123264, Note_on_c, 0, 56, 80
2, 123644, Note_off_c, 0, 65, 100
2, 123644, Note_off_c, 0, 58, 100
2, 123644, Note_off_c, 0, 56, 100
2, 123648, Note_on_c, 0, 63, 80
2, 123648, Note_on_c, 0, 58, 80
2, 123648, Note_on_c, 0, 55, 80
2, 124028, Note_off_c, 0, 63, 100
2, 124028, Note_off_c, 0, 58, 100
2, 124028, Note_off_c, 0, 55, 100
2, 124416, Note_on_c, 0, 63, 80
2, 124416, Note_on_c, 0, 58, 80
2, 124416, Note_on_c, 0, 55, 80
2, 124796, Note_off_c, 0, 63, 100
2, 124796, Note_off_c, 0, 58, 100
2, 124796, Note_off_c, 0, 55, 100
2, 124800, Note_on_c, 0, 56, 80
2, 125180, Note_off_c, 0, 56, 100
2, 130176, Note_on_c, 0, 89, 114
2, 130748, Note_off_c, 0, 89, 100
2, 130752, Note_on_c, 0, 87, 80
2, 130940, Note_off_c, 0, 87, 100
2, 130944, Note_on_c, 0, 86, 80
2, 131132, Note_off_c, 0, 86, 100
2, 131136, Note_on_c, 0, 83, 80
2, 131324, Note_off_c, 0, 83, 100
2, 131328, Note_on_c, 0, 82, 80
2, 131516, Note_off_c, 0, 82, 100
2, 131520, Note_on_c, 0, 80, 80
2, 131708, Note_off_c, 0, 80, 100
2, 131712, Note_on_c, 0, 78, 70
2, 132092, Note_off_c, 0, 78, 100
2, 134784, Note_on_c, 0, 87, 117
2, 135356, Note_off_c, 0, 87, 100
2, 135360, Note_on_c, 0, 85, 80
2, 135548, Note_off_c, 0, 85, 100
2, 135552, Note_on_c, 0, 84, 80
2, 135740, Note_off_c, 0, 84, 100
2, 135744, Note_on_c, 0, 82, 80
2, 135932, Note_off_c, 0, 82, 100
2, 135936, Note_on_c, 0, 80, 80
2, 136124, Note_off_c, 0, 80, 100
2, 136128, Note_on_c, 0, 78, 80
2, 136316, Note_off_c, 0, 78, 100
2, 136320, Note_on_c, 0, 77, 80
2, 136320, Note_on_c, 0, 65, 80
2, 137084, Note_off_c, 0, 77, 100
2, 137084, Note_off_c, 0, 65, 100
2, 137088, Note_on_c, 0, 77, 80
2, 137088, Note_on_c, 0, 68, 80
2, 137088, Note_on_c, 0, 65, 80
2, 137468, Note_off_c, 0, 77, 100
2, 137468, Note_off_c, 0, 68, 100
2, 137468, Note_off_c, 0, 65, 100
2, 137472, Note_on_c, 0, 77, 80
2, 137472, Note_on_c, 0, 68, 80
2, 137472, Note_on_c, 0, 65, 80
2, 138236, Note_off_c, 0, 77, 100
2, 138236, Note_off_c, 0, 68, 100
2, 138236, Note_off_c, 0, 65, 100
2, 138240, Note_on_c, 0, 77, 80
2, 138240, Note_on_c, 0, 68, 80
2, 138240, Note_on_c, 0, 65, 80
2, 138620, Note_off_c, 0, 77, 100
2, 138620, Note_off_c, 0, 68, 100
2, 138620, Note_off_c, 0, 65, 100
2, 138624, Note_on_c, 0, 77, 80
2, 138624, Note_on_c, 0, 66, 80
2, 138624, Note_on_c, 0, 70, 80
2, 139772, Note_off_c, 0, 77, 100
2, 139772, Note_off_c, 0, 66, 100
2, 139776, Note_on_c, 0, 75, 80
2, 140156, Note_off_c, 0, 70, 100
2, 140156, Note_off_c, 0, 75, 100
2, 140544, Note_on_c, 0, 75, 80
2, 140544, Note_on_c, 0, 72, 80
2, 140732, Note_off_c, 0, 75, 100
2, 140732, Note_off_c, 0, 72, 100
2, 140736, Note_on_c, 0, 77, 80
2, 140736, Note_on_c, 0, 73, 80
2, 140924, Note_off_c, 0, 77, 100
2, 140924, Note_off_c, 0, 73, 100
2, 140928, Note_on_c, 0, 78, 80
2, 140928, Note_on_c, 0, 75, 80
2, 140928, Note_on_c, 0, 72, 80
2, 141692, Note_off_c, 0, 78, 100
2, 141692, Note_off_c, 0, 75, 100
2, 141692, Note_off_c, 0, 72, 100
2, 141696, Note_on_c, 0, 78, 89
2, 141696, Note_on_c, 0, 75, 89
2, 141696, Note_on_c, 0, 72, 89
2, 142076, Note_off_c, 0, 78, 100
2, 142076, Note_off_c, 0, 75, 100
2, 142076, Note_off_c, 0, 72, 100
2, 142080, Note_on_c, 0, 78, 94
2, 142080, Note_on_c, 0, 75, 94
2, 142080, Note_on_c, 0, 72, 94
2, 142844, Note_off_c, 0, 78, 100
2, 142844, Note_off_c, 0, 75, 100
2, 142844, Note_off_c, 0, 72, 100
2, 142848, Note_on_c, 0, 78, 104
2, 142848, Note_on_c, 0, 75, 104
2, 142848, Note_on_c, 0, 72, 104
2, 143228, Note_off_c, 0, 78, 100
2, 143228, Note_off_c, 0, 75, 100
2, 143228, Note_off_c, 0, 72, 100
2, 143232, Note_on_c, 0, 78, 109
2, 143232, Note_on_c, 0, 75, 109
2, 143232, Note_on_c, 0, 72, 109
2, 144380, Note_off_c, 0, 78, 100
2, 144380, Note_off_c, 0, 75, 100
2, 144380, Note_off_c, 0, 72, 100
2, 144384, Note_on_c, 0, 77, 80
2, 144384, Note_on_c, 0, 73, 80
2, 144764, Note_off_c, 0, 77, 100
2, 144764, Note_off_c, 0, 73, 100
2, 145536, Note_on_c, 0, 70, 70
2, 145536, Note_on_c, 0, 61, 70
2, 146300, Note_off_c, 0, 70, 100
2, 146300, Note_off_c, 0, 61, 100
2, 146304, Note_on_c, 0, 70, 70
2, 146304, Note_on_c, 0, 61, 70
2, 146684, Note_off_c, 0, 70, 100
2, 146684, Note_off_c, 0, 61, 100
2, 146688, Note_on_c, 0, 70, 70
2, 146688, Note_on_c, 0, 61, 70
2, 147452, Note_off_c, 0, 70, 100
2, 147452, Note_off_c, 0, 61, 100
2, 147456, Note_on_c, 0, 70, 70
2, 147456, Note_on_c, 0, 61, 70
2, 147836, Note_off_c, 0, 70, 100
2, 147836, Note_off_c, 0, 61, 100
2, 147840, Note_on_c, 0, 70, 70
2, 147840, Note_on_c, 0, 61, 70
2, 148988, Note_off_c, 0, 70, 100
2, 148992, Note_on_c, 0, 68, 70
2, 149372, Note_off_c, 0, 61, 100
2, 149372, Note_off_c, 0, 68, 100
2, 150144, Note_on_c, 0, 68, 70
2, 150144, Note_on_c, 0, 60, 70
2, 150908, Note_off_c, 0, 68, 100
2, 150908, Note_off_c, 0, 60, 100
2, 150912, Note_on_c, 0, 68, 70
2, 150912, Note_on_c, 0, 60, 70
2, 151292, Note_off_c, 0, 68, 100
2, 151292, Note_off_c, 0, 60, 100
2, 151296, Note_on_c, 0, 68, 70
2, 151296, Note_on_c, 0, 60, 70
2, 152060, Note_off_c, 0, 68, 100
2, 152060, Note_off_c, 0, 60, 100
2, 152064, Note_on_c, 0, 68, 70
2, 152064, Note_on_c, 0, 60, 70
2, 152444, Note_off_c, 0, 68, 100
2, 152444, Note_off_c, 0, 60, 100
2, 152448, Note_on_c, 0, 61, 70
2, 152828, Note_off_c, 0, 61, 100
2, 157824, Note_on_c, 0, 77, 80
2, 157916, Note_off_c, 0, 77, 100
2, 157920, Note_on_c, 0, 89, 103
2, 158396, Note_off_c, 0, 89, 100
2, 158400, Note_on_c, 0, 87, 80
2, 158588, Note_off_c, 0, 87, 100
2, 158592, Note_on_c, 0, 86, 80
2, 158780, Note_off_c, 0, 86, 100
2, 158784, Note_on_c, 0, 83, 80
2, 158972, Note_off_c, 0, 83, 100
2, 158976, Note_on_c, 0, 82, 80
2, 159164, Note_off_c, 0, 82, 100
2, 159168, Note_on_c, 0, 80, 80
2, 159356, Note_off_c, 0, 80, 100
2, 159360, Note_on_c, 0, 78, 80
2, 159740, Note_off_c, 0, 78, 100
2, 162432, Note_on_c, 0, 75, 80
2, 162524, Note_off_c, 0, 75, 100
2, 162528, Note_on_c, 0, 87, 104
2, 163004, Note_off_c, 0, 87, 100
2, 163008, Note_on_c, 0, 85, 80
2, 163196, Note_off_c, 0, 85, 100
2, 163200, Note_on_c, 0, 84, 80
2, 163388, Note_off_c, 0, 84, 100
2, 163392, Note_on_c, 0, 82, 80
2, 163580, Note_off_c, 0, 82, 100
2, 163584, Note_on_c, 0, 80, 80
2, 163772, Note_off_c, 0, 80, 100
2, 163776, Note_on_c, 0, 78, 80
2, 163964, Note_off_c, 0, 78, 100
2, 163968, Note_on_c, 0, 77, 80
2, 163968, Note_on_c, 0, 65, 80
2, 164732, Note_off_c, 0, 77, 100
2, 164732, Note_off_c, 0, 65, 100
2, 164736, Note_on_c, 0, 77, 80
2, 164736, Note_on_c, 0, 68, 80
2, 164736, Note_on_c, 0, 65, 80
2, 165116, Note_off_c, 0, 77, 100
2, 165116, Note_off_c, 0, 68, 100
2, 165116, Note_off_c, 0, 65, 100
2, 165120, Note_on_c, 0, 77, 80
2, 165120, Note_on_c, 0, 68, 80
2, 165120, Note_on_c, 0, 65, 80
2, 165884, Note_off_c, 0, 77, 100
2, 165884, Note_off_c, 0, 68, 100
2, 165884, Note_off_c, 0, 65, 100
2, 165888, Note_on_c, 0, 77, 80
2, 165888, Note_on_c, 0, 68, 80
2, 165888, Note_on_c, 0, 65, 80
2, 166268, Note_off_c, 0, 77, 100
2, 166268, Note_off_c, 0, 68, 100
2, 166268, Note_off_c, 0, 65, 100
2, 166272, Note_on_c, 0, 77, 80
2, 166272, Note_on_c, 0, 66, 80
2, 166272, Note_on_c, 0, 70, 80
2, 167420, Note_off_c, 0, 77, 100
2, 167420, Note_off_c, 0, 66, 100
2, 167424, Note_on_c, 0, 75, 80
2, 167804, Note_off_c, 0, 70, 100
2, 167804, Note_off_c, 0, 75, 100
2, 168192, Note_on_c, 0, 75, 80
2, 168192, Note_on_c, 0, 72, 80
2, 168380, Note_off_c, 0, 75, 100
2, 168380, Note_off_c, 0, 72, 100
2, 168384, Note_on_c, 0, 77, 80
2, 168384, Note_on_c, 0, 73, 80
2, 168572, Note_off_c, 0, 77, 100
2, 168572, Note_off_c, 0, 73, 100
2, 168576, Note_on_c, 0, 78, 80
2, 168576, Note_on_c, 0, 75, 80
2, 168576, Note_on_c, 0, 72, 80
2, 169340, Note_off_c, 0, 78, 100
2, 169340, Note_off_c, 0, 75, 100
2, 169340, Note_off_c, 0, 72, 100
2, 169344, Note_on_c, 0, 78, 80
2, 169344, Note_on_c, 0, 75, 80
2, 169344, Note_on_c, 0, 72, 80
2, 169724, Note_off_c, 0, 78, 100
2, 169724, Note_off_c, 0, 75, 100
2, 169724, Note_off_c, 0, 72, 100
2, 169728, Note_on_c, 0, 78, 80
2, 169728, Note_on_c, 0, 75, 80
2, 169728, Note_on_c, 0, 72, 80
2, 170492, Note_off_c, 0, 78, 100
2, 170492, Note_off_c, 0, 75, 100
2, 170492, Note_off_c, 0, 72, 100
2, 170496, Note_on_c, 0, 78, 80
2, 170496, Note_on_c, 0, 75, 80
2, 170496, Note_on_c, 0, 72, 80
2, 170876, Note_off_c, 0, 78, 100
2, 170876, Note_off_c, 0, 75, 100
2, 170876, Note_off_c, 0, 72, 100
2, 170880, Note_on_c, 0, 78, 80
2, 170880, Note_on_c, 0, 75, 80
2, 170880, Note_on_c, 0, 72, 80
2, 172028, Note_off_c, 0, 78, 100
2, 172028, Note_off_c, 0, 75, 100
2, 172028, Note_off_c, 0, 72, 100
2, 172032, Note_on_c, 0, 77, 80
2, 172032, Note_on_c, 0, 73, 80
2, 172412, Note_off_c, 0, 77, 100
2, 172412, Note_off_c, 0, 73, 100
2, 173184, Note_on_c, 0, 70, 80
2, 173184, Note_on_c, 0, 61, 80
2, 173948, Note_off_c, 0, 70, 100
2, 173948, Note_off_c, 0, 61, 100
2, 173952, Note_on_c, 0, 70, 80
2, 173952, Note_on_c, 0, 61, 80
2, 174332, Note_off_c, 0, 70, 100
2, 174332, Note_off_c, 0, 61, 100
2, 174336, Note_on_c, 0, 70, 80
2, 174336, Note_on_c, 0, 61, 80
2, 175100, Note_off_c, 0, 70, 100
2, 175100, Note_off_c, 0, 61, 100
2, 175104, Note_on_c, 0, 70, 80
2, 175104, Note_on_c, 0, 61, 80
2, 175484, Note_off_c, 0, 70, 100
2, 175484, Note_off_c, 0, 61, 100
2, 175488, Note_on_c, 0, 70, 80
2, 175488, Note_on_c, 0, 61, 80
2, 176636, Note_off_c, 0, 70, 100
2, 176640, Note_on_c, 0, 69, 80
2, 177788, Note_off_c, 0, 61, 100
2, 177788, Note_off_c, 0, 69, 100
2, 177792, Note_on_c, 0, 68, 70
2, 177792, Note_on_c, 0, 60, 70
2, 178556, Note_off_c, 0, 68, 100
2, 178556, Note_off_c, 0, 60, 100
2, 178560, Note_on_c, 0, 68, 70
2, 178560, Note_on_c, 0, 60, 70
2, 178940, Note_off_c, 0, 68, 100
2, 178940, Note_off_c, 0, 60, 100
2, 178944, Note_on_c, 0, 68, 70
2, 178944, Note_on_c, 0, 60, 70
2, 179708, Note_off_c, 0, 68, 100
2, 179708, Note_off_c, 0, 60, 100
2, 179712, Note_on_c, 0, 68, 70
2, 179712, Note_on_c, 0, 60, 70
2, 180092, Note_off_c, 0, 68, 100
2, 180092, Note_off_c, 0, 60, 100
2, 180096, Note_on_c, 0, 61, 70
2, 180476, Note_off_c, 0, 61, 100
2, 182400, Note_on_c, 0, 61, 70
2, 183164, Note_off_c, 0, 61, 100
2, 183168, Note_on_c, 0, 61, 70
2, 183548, Note_off_c, 0, 61, 100
2, 183552, Note_on_c, 0, 61, 70
2, 184316, Note_off_c, 0, 61, 100
2, 184320, Note_on_c, 0, 61, 70
2, 184700, Note_off_c, 0, 61, 100
2, 184704, Note_on_c, 0, 60, 70
2, 187004, Note_off_c, 0, 60, 100
2, 187008, Note_on_c, 0, 64, 70
2, 187008, Note_on_c, 0, 58, 70
2, 187008, Note_on_c, 0, 55, 70
2, 187772, Note_off_c, 0, 64, 100
2, 187772, Note_off_c, 0, 58, 100
2, 187772, Note_off_c, 0, 55, 100
2, 187776, Note_on_c, 0, 64, 70
2, 187776, Note_on_c, 0, 58, 70
2, 187776, Note_on_c, 0, 55, 70
2, 188156, Note_off_c, 0, 64, 100
2, 188156, Note_off_c, 0, 58, 100
2, 188156, Note_off_c, 0, 55, 100
2, 188160, Note_on_c, 0, 64, 70
2, 188160, Note_on_c, 0, 58, 70
2, 188160, Note_on_c, 0, 55, 70
2, 188924, Note_off_c, 0, 64, 100
2, 188924, Note_off_c, 0, 58, 100
2, 188924, Note_off_c, 0, 55, 100
2, 188928, Note_on_c, 0, 64, 70
2, 188928, Note_on_c, 0, 58, 70
2, 188928, Note_on_c, 0, 55, 70
2, 189308, Note_off_c, 0, 64, 100
2, 189308, Note_off_c, 0, 58, 100
2, 189308, Note_off_c, 0, 55, 100
2, 189312, Key_signature, -4, "minor"
2, 189312, Note_on_c, 0, 53, 80
2, 189312, Note_on_c, 0, 65, 80
2, 189692, Note_off_c, 0, 53, 100
2, 189692, Note_off_c, 0, 65, 100
2, 189696, Note_on_c, 0, 56, 80
2, 190076, Note_off_c, 0, 56, 100
2, 190080, Note_on_c, 0, 52, 80
2, 190460, Note_off_c, 0, 52, 100
2, 190464, Note_on_c, 0, 53, 80
2, 190844, Note_off_c, 0, 53, 100
2, 190848, Note_on_c, 0, 56, 80
2, 191228, Note_off_c, 0, 56, 100
2, 191232, Note_on_c, 0, 60, 80
2, 191612, Note_off_c, 0, 60, 100
2, 191616, Note_on_c, 0, 61, 80
2, 191996, Note_off_c, 0, 61, 100
2, 192000, Note_on_c, 0, 58, 80
2, 192380, Note_off_c, 0, 58, 100
2, 192384, Note_on_c, 0, 64, 80
2, 192764, Note_off_c, 0, 64, 100
2, 192768, Note_on_c, 0, 65, 80
2, 193148, Note_off_c, 0, 65, 100
2, 193152, Note_on_c, 0, 60, 80
2, 193532, Note_off_c, 0, 60, 100
2, 193536, Note_on_c, 0, 67, 80
2, 193916, Note_off_c, 0, 67, 100
2, 193920, Note_on_c, 0, 68, 80
2, 194304, Note_on_c, 0, 65, 80
2, 194684, Note_off_c, 0, 68, 100
2, 194684, Note_off_c, 0, 65, 100
2, 194688, Note_on_c, 0, 63, 80
2, 194688, Note_on_c, 0, 70, 80
2, 195068, Note_off_c, 0, 70, 100
2, 195072, Note_on_c, 0, 72, 80
2, 195072, Note_on_c, 0, 68, 80
2, 195452, Note_off_c, 0, 63, 100
2, 195456, Note_on_c, 0, 65, 80
2, 195836, Note_off_c, 0, 72, 100
2, 195836, Note_off_c, 0, 68, 100
2, 195840, Note_on_c, 0, 70, 80
2, 195840, Note_on_c, 0, 75, 80
2, 196028, Note_off_c, 0, 75, 100
2, 196032, Note_on_c, 0, 73, 80
2, 196220, Note_off_c, 0, 65, 100
2, 196220, Note_off_c, 0, 70, 100
2, 196220, Note_off_c, 0, 73, 100
2, 196224, Note_on_c, 0, 72, 80
2, 196224, Note_on_c, 0, 68, 80
2, 196224, Note_on_c, 0, 63, 80
2, 196988, Note_off_c, 0, 72, 100
2, 196988, Note_off_c, 0, 68, 100
2, 196988, Note_off_c, 0, 63, 100
2, 196992, Note_on_c, 0, 70, 80
2, 196992, Note_on_c, 0, 67, 80
2, 196992, Note_on_c, 0, 61, 80
2, 197372, Note_off_c, 0, 70, 100
2, 197372, Note_off_c, 0, 67, 100
2, 197372, Note_off_c, 0, 61, 100
2, 197376, Note_on_c, 0, 60, 80
2, 197376, Note_on_c, 0, 68, 80
2, 197756, Note_off_c, 0, 60, 100
2, 197756, Note_off_c, 0, 68, 100
2, 198336, Note_on_c, 0, 48, 80
2, 198716, Note_off_c, 0, 48, 100
2, 198720, Note_on_c, 0, 53, 80
2, 199100, Note_off_c, 0, 53, 100
2, 199104, Note_on_c, 0, 56, 80
2, 199484, Note_off_c, 0, 56, 100
2, 199488, Note_on_c, 0, 52, 80
2, 199868, Note_off_c, 0, 52, 100
2, 199872, Note_on_c, 0, 53, 80
2, 200252, Note_off_c, 0, 53, 100
2, 200256, Note_on_c, 0, 56, 80
2, 200636, Note_off_c, 0, 56, 100
2, 200640, Note_on_c, 0, 60, 80
2, 201020, Note_off_c, 0, 60, 100
2, 201024, Note_on_c, 0, 61, 80
2, 201404, Note_off_c, 0, 61, 100
2, 201408, Note_on_c, 0, 58, 80
2, 201788, Note_off_c, 0, 58, 100
2, 201792, Note_on_c, 0, 64, 80
2, 202172, Note_off_c, 0, 64, 100
2, 202176, Note_on_c, 0, 65, 80
2, 202556, Note_off_c, 0, 65, 100
2, 202560, Note_on_c, 0, 60, 80
2, 202940, Note_off_c, 0, 60, 100
2, 202944, Note_on_c, 0, 67, 80
2, 203324, Note_off_c, 0, 67, 100
2, 203328, Note_on_c, 0, 68, 80
2, 203712, Note_on_c, 0, 65, 80
2, 204092, Note_off_c, 0, 68, 100
2, 204092, Note_off_c, 0, 65, 100
2, 204096, Note_on_c, 0, 70, 80
2, 204288, Note_on_c, 0, 72, 80
2, 204476, Note_off_c, 0, 70, 100
2, 204480, Note_on_c, 0, 68, 80
2, 204860, Note_off_c, 0, 72, 100
2, 204864, Note_on_c, 0, 72, 80
2, 205052, Note_off_c, 0, 68, 100
2, 205052, Note_off_c, 0, 72, 100
2, 205056, Note_on_c, 0, 75, 80
2, 205056, Note_on_c, 0, 70, 80
2, 205244, Note_off_c, 0, 75, 100
2, 205248, Note_on_c, 0, 73, 80
2, 205248, Note_on_c, 0, 65, 80
2, 205436, Note_off_c, 0, 73, 100
2, 205436, Note_off_c, 0, 65, 100
2, 205440, Note_on_c, 0, 72, 80
2, 205632, Note_on_c, 0, 63, 80
2, 205820, Note_off_c, 0, 70, 100
2, 205824, Note_on_c, 0, 68, 80
2, 206012, Note_off_c, 0, 72, 100
2, 206016, Note_on_c, 0, 73, 80
2, 206204, Note_off_c, 0, 63, 100
2, 206204, Note_off_c, 0, 68, 100
2, 206204, Note_off_c, 0, 73, 100
2, 206208, Note_on_c, 0, 67, 80
2, 206208, Note_on_c, 0, 61, 80
2, 206208, Note_on_c, 0, 70, 80
2, 206396, Note_off_c, 0, 70, 100
2, 206400, Note_on_c, 0, 72, 80
2, 206588, Note_off_c, 0, 67, 100
2, 206588, Note_off_c, 0, 61, 100
2, 206588, Note_off_c, 0, 72, 100
2, 206592, Note_on_c, 0, 60, 80
2, 206592, Note_on_c, 0, 68, 80
2, 206972, Note_off_c, 0, 60, 100
2, 206972, Note_off_c, 0, 68, 100
2, 207360, Note_on_c, 0, 72, 80
2, 207740, Note_off_c, 0, 72, 100
2, 207744, Note_on_c, 0, 72, 80
2, 208124, Note_off_c, 0, 72, 100
2, 208128, Note_on_c, 0, 71, 80
2, 208316, Note_off_c, 0, 71, 100
2, 208320, Note_on_c, 0, 72, 80
2, 208508, Note_off_c, 0, 72, 100
2, 208512, Note_on_c, 0, 73, 80
2, 208512, Note_on_c, 0, 65, 80
2, 208892, Note_off_c, 0, 73, 100
2, 208892, Note_off_c, 0, 65, 100
2, 208896, Note_on_c, 0, 73, 80
2, 208896, Note_on_c, 0, 65, 80
2, 209276, Note_off_c, 0, 73, 100
2, 209276, Note_off_c, 0, 65, 100
2, 209280, Note_on_c, 0, 64, 80
2, 209468, Note_off_c, 0, 64, 100
2, 209472, Note_on_c, 0, 65, 80
2, 209660, Note_off_c, 0, 65, 100
2, 209664, Note_on_c, 0, 73, 80
2, 209664, Note_on_c, 0, 67, 80
2, 210044, Note_off_c, 0, 73, 100
2, 210044, Note_off_c, 0, 67, 100
2, 210048, Note_on_c, 0, 73, 80
2, 210048, Note_on_c, 0, 67, 80
2, 210428, Note_off_c, 0, 73, 100
2, 210428, Note_off_c, 0, 67, 100
2, 210432, Note_on_c, 0, 72, 80
2, 210620, Note_off_c, 0, 72, 100
2, 210624, Note_on_c, 0, 73, 80
2, 210812, Note_off_c, 0, 73, 100
2, 210816, Note_on_c, 0, 75, 80
2, 210816, Note_on_c, 0, 67, 80
2, 211196, Note_off_c, 0, 75, 100
2, 211196, Note_off_c, 0, 67, 100
2, 211200, Note_on_c, 0, 75, 80
2, 211200, Note_on_c, 0, 67, 80
2, 211580, Note_off_c, 0, 75, 100
2, 211580, Note_off_c, 0, 67, 100
2, 211584, Note_on_c, 0, 65, 80
2, 211772, Note_off_c, 0, 65, 100
2, 211776, Note_on_c, 0, 67, 80
2, 211964, Note_off_c, 0, 67, 100
2, 211968, Note_on_c, 0, 75, 80
2, 211968, Note_on_c, 0, 69, 80
2, 212348, Note_off_c, 0, 75, 100
2, 212348, Note_off_c, 0, 69, 100
2, 212352, Note_on_c, 0, 75, 80
2, 212352, Note_on_c, 0, 69, 80
2, 212732, Note_off_c, 0, 75, 100
2, 212732, Note_off_c, 0, 69, 100
2, 212736, Note_on_c, 0, 74, 80
2, 212924, Note_off_c, 0, 74, 100
2, 212928, Note_on_c, 0, 75, 80
2, 213116, Note_off_c, 0, 75, 100
2, 213120, Note_on_c, 0, 77, 80
2, 213120, Note_on_c, 0, 69, 80
2, 213500, Note_off_c, 0, 77, 100
2, 213500, Note_off_c, 0, 69, 100
2, 213504, Note_on_c, 0, 77, 80
2, 213504, Note_on_c, 0, 69, 80
2, 213884, Note_off_c, 0, 77, 100
2, 213884, Note_off_c, 0, 69, 100
2, 213888, Note_on_c, 0, 67, 80
2, 214076, Note_off_c, 0, 67, 100
2, 214080, Note_on_c, 0, 69, 80
2, 214268, Note_off_c, 0, 69, 100
2, 214272, Note_on_c, 0, 77, 80
2, 214272, Note_on_c, 0, 70, 80
2, 214652, Note_off_c, 0, 77, 100
2, 214652, Note_off_c, 0, 70, 100
2, 214656, Note_on_c, 0, 71, 80
2, 214656, Note_on_c, 0, 77, 80
2, 214748, Note_off_c, 0, 77, 100
2, 214752, Note_on_c, 0, 79, 80
2, 214844, Note_off_c, 0, 79, 100
2, 214848, Note_on_c, 0, 77, 80
2, 214940, Note_off_c, 0, 77, 100
2, 214944, Note_on_c, 0, 79, 80
2, 215036, Note_off_c, 0, 79, 100
2, 215040, Note_on_c, 0, 77, 80
2, 215132, Note_off_c, 0, 77, 100
2, 215136, Note_on_c, 0, 79, 80
2, 215228, Note_off_c, 0, 79, 100
2, 215232, Note_on_c, 0, 76, 80
2, 215324, Note_off_c, 0, 76, 100
2, 215328, Note_on_c, 0, 77, 80
2, 215420, Note_off_c, 0, 71, 100
2, 215420, Note_off_c, 0, 77, 100
2, 215424, Note_on_c, 0, 79, 80
2, 215424, Note_on_c, 0, 71, 80
2, 215804, Note_off_c, 0, 79, 100
2, 215804, Note_off_c, 0, 71, 100
2, 215808, Note_on_c, 0, 72, 80
2, 215808, Note_on_c, 0, 67, 80
2, 217724, Note_off_c, 0, 67, 100
2, 217724, Note_off_c, 0, 72, 100
2, 217728, Note_on_c, 0, 72, 80
2, 218108, Note_off_c, 0, 72, 100
2, 218112, Note_on_c, 0, 77, 80
2, 218492, Note_off_c, 0, 77, 100
2, 218496, Note_on_c, 0, 80, 80
2, 218876, Note_off_c, 0, 80, 100
2, 218880, Note_on_c, 0, 76, 80
2, 219452, Note_off_c, 0, 76, 100
2, 219456, Note_on_c, 0, 77, 80
2, 219836, Note_off_c, 0, 77, 100
2, 219840, Note_on_c, 0, 80, 80
2, 220220, Note_off_c, 0, 80, 100
2, 220224, Note_on_c, 0, 84, 80
2, 220604, Note_off_c, 0, 84, 100
2, 220608, Note_on_c, 0, 85, 80
2, 220988, Note_off_c, 0, 85, 100
2, 220992, Note_on_c, 0, 82, 80
2, 221372, Note_off_c, 0, 82, 100
2, 221376, Note_on_c, 0, 88, 80
2, 221756, Note_off_c, 0, 88, 100
2, 221760, Note_on_c, 0, 89, 80
2, 222140, Note_off_c, 0, 89, 100
2, 222144, Note_on_c, 0, 84, 80
2, 222524, Note_off_c, 0, 84, 100
2, 222528, Note_on_c, 0, 80, 80
2, 222908, Note_off_c, 0, 80, 100
2, 222912, Note_on_c, 0, 82, 80
2, 223292, Note_off_c, 0, 82, 100
2, 223296, Note_on_c, 0, 85, 80
2, 223676, Note_off_c, 0, 85, 100
2, 223680, Note_on_c, 0, 79, 80
2, 224060, Note_off_c, 0, 79, 100
2, 224064, Note_on_c, 0, 80, 80
2, 224444, Note_off_c, 0, 80, 100
2, 224448, Note_on_c, 0, 80, 80
2, 224828, Note_off_c, 0, 80, 100
2, 224832, Note_on_c, 0, 80, 80
2, 225020, Note_off_c, 0, 80, 100
2, 225024, Note_on_c, 0, 80, 80
2, 225216, Note_on_c, 0, 73, 80
2, 225216, Note_on_c, 0, 70, 80
2, 225596, Note_off_c, 0, 73, 100
2, 225596, Note_off_c, 0, 70, 100
2, 225600, Note_on_c, 0, 73, 80
2, 225600, Note_on_c, 0, 70, 80
2, 225788, Note_off_c, 0, 80, 100
2, 225792, Note_on_c, 0, 79, 80
2, 225980, Note_off_c, 0, 73, 100
2, 225980, Note_off_c, 0, 70, 100
2, 225984, Note_on_c, 0, 73, 80
2, 225984, Note_on_c, 0, 70, 80
2, 226172, Note_off_c, 0, 79, 100
2, 226172, Note_off_c, 0, 73, 100
2, 226172, Note_off_c, 0, 70, 100
2, 226176, Note_on_c, 0, 80, 80
2, 226368, Note_on_c, 0, 73, 80
2, 226368, Note_on_c, 0, 70, 80
2, 226748, Note_off_c, 0, 73, 100
2, 226748, Note_off_c, 0, 70, 100
2, 226752, Note_on_c, 0, 73, 80
2, 226752, Note_on_c, 0, 70, 80
2, 226940, Note_off_c, 0, 80, 100
2, 226944, Note_on_c, 0, 79, 80
2, 227132, Note_off_c, 0, 73, 100
2, 227132, Note_off_c, 0, 70, 100
2, 227136, Note_on_c, 0, 73, 80
2, 227136, Note_on_c, 0, 70, 80
2, 227324, Note_off_c, 0, 79, 100
2, 227324, Note_off_c, 0, 73, 100
2, 227324, Note_off_c, 0, 70, 100
2, 227328, Note_on_c, 0, 77, 80
2, 227520, Note_on_c, 0, 68, 80
2, 227708, Note_off_c, 0, 77, 100
2, 227712, Note_on_c, 0, 79, 80
2, 227900, Note_off_c, 0, 68, 100
2, 227904, Note_on_c, 0, 70, 80
2, 228092, Note_off_c, 0, 79, 100
2, 228096, Note_on_c, 0, 76, 80
2, 228284, Note_off_c, 0, 70, 100
2, 228288, Note_on_c, 0, 67, 80
2, 228476, Note_off_c, 0, 76, 100
2, 228476, Note_off_c, 0, 67, 100
2, 228480, Note_on_c, 0, 68, 80
2, 228480, Note_on_c, 0, 77, 80
2, 228668, Note_off_c, 0, 77, 100
2, 228672, Note_on_c, 0, 75, 80
2, 228860, Note_off_c, 0, 68, 100
2, 228860, Note_off_c, 0, 75, 100
2, 228864, Note_on_c, 0, 73, 80
2, 229052, Note_off_c, 0, 73, 100
2, 229056, Note_on_c, 0, 72, 80
2, 229244, Note_off_c, 0, 72, 100
2, 229248, Note_on_c, 0, 70, 80
2, 229436, Note_off_c, 0, 70, 100
2, 229440, Note_on_c, 0, 68, 80
2, 229628, Note_off_c, 0, 68, 100
2, 229632, Note_on_c, 0, 68, 80
2, 229824, Note_on_c, 0, 61, 80
2, 229824, Note_on_c, 0, 58, 80
2, 230204, Note_off_c, 0, 61, 100
2, 230204, Note_off_c, 0, 58, 100
2, 230208, Note_on_c, 0, 61, 80
2, 230208, Note_on_c, 0, 58, 80
2, 230396, Note_off_c, 0, 68, 100
2, 230400, Note_on_c, 0, 67, 80
2, 230588, Note_off_c, 0, 61, 100
2, 230588, Note_off_c, 0, 58, 100
2, 230592, Note_on_c, 0, 61, 80
2, 230592, Note_on_c, 0, 58, 80
2, 230780, Note_off_c, 0, 67, 100
2, 230780, Note_off_c, 0, 61, 100
2, 230780, Note_off_c, 0, 58, 100
2, 230784, Note_on_c, 0, 68, 80
2, 230976, Note_on_c, 0, 61, 80
2, 230976, Note_on_c, 0, 58, 80
2, 231356, Note_off_c, 0, 61, 100
2, 231356, Note_off_c, 0, 58, 100
2, 231360, Note_on_c, 0, 61, 80
2, 231360, Note_on_c, 0, 58, 80
2, 231548, Note_off_c, 0, 68, 100
2, 231552, Note_on_c, 0, 67, 80
2, 231740, Note_off_c, 0, 61, 100
2, 231740, Note_off_c, 0, 58, 100
2, 231744, Note_on_c, 0, 61, 80
2, 231744, Note_on_c, 0, 58, 80
2, 231932, Note_off_c, 0, 67, 100
2, 231932, Note_off_c, 0, 61, 100
2, 231932, Note_off_c, 0, 58, 100
2, 231936, Note_on_c, 0, 65, 80
2, 232128, Note_on_c, 0, 56, 80
2, 232316, Note_off_c, 0, 65, 100
2, 232320, Note_on_c, 0, 67, 80
2, 232508, Note_off_c, 0, 56, 100
2, 232512, Note_on_c, 0, 58, 80
2, 232700, Note_off_c, 0, 67, 100
2, 232704, Note_on_c, 0, 64, 80
2, 232892, Note_off_c, 0, 58, 100
2, 232896, Note_on_c, 0, 55, 80
2, 233084, Note_off_c, 0, 64, 100
2, 233084, Note_off_c, 0, 55, 100
2, 233088, Note_on_c, 0, 65, 80
2, 233088, Note_on_c, 0, 56, 80
2, 233468, Note_off_c, 0, 65, 100
2, 233468, Note_off_c, 0, 56, 100
2, 233856, Note_on_c, 0, 60, 80
2, 234236, Note_off_c, 0, 60, 100
2, 234240, Note_on_c, 0, 64, 84
2, 235004, Note_off_c, 0, 64, 100
2, 235008, Note_on_c, 0, 65, 92
2, 235388, Note_off_c, 0, 65, 100
2, 235392, Note_on_c, 0, 67, 97
2, 235392, Note_on_c, 0, 64, 97
2, 236156, Note_off_c, 0, 67, 100
2, 236156, Note_off_c, 0, 64, 100
2, 236160, Note_on_c, 0, 65, 105
2, 236160, Note_on_c, 0, 68, 105
2, 236540, Note_off_c, 0, 65, 100
2, 236540, Note_off_c, 0, 68, 100
2, 236544, Note_on_c, 0, 72, 109
2, 236544, Note_on_c, 0, 67, 109
2, 236544, Note_on_c, 0, 64, 109
2, 237116, Note_off_c, 0, 72, 100
2, 237116, Note_off_c, 0, 67, 100
2, 237116, Note_off_c, 0, 64, 100
2, 237120, Note_on_c, 0, 70, 80
2, 237308, Note_off_c, 0, 70, 100
2, 237312, Note_on_c, 0, 68, 80
2, 237500, Note_off_c, 0, 68, 100
2, 237504, Note_on_c, 0, 67, 80
2, 237692, Note_off_c, 0, 67, 100
2, 237696, Note_on_c, 0, 70, 80
2, 237884, Note_off_c, 0, 70, 100
2, 237888, Note_on_c, 0, 68, 80
2, 238076, Note_off_c, 0, 68, 100
2, 238080, Note_on_c, 0, 67, 80
2, 238268, Note_off_c, 0, 67, 100
2, 238272, Note_on_c, 0, 65, 80
2, 238460, Note_off_c, 0, 65, 100
2, 238464, Note_on_c, 0, 72, 80
2, 238560, Note_on_c, 0, 73, 80
2, 238652, Note_off_c, 0, 72, 100
2, 238656, Note_on_c, 0, 71, 80
2, 238748, Note_off_c, 0, 73, 100
2, 238752, Note_on_c, 0, 72, 80
2, 238844, Note_off_c, 0, 71, 100
2, 238844, Note_off_c, 0, 72, 100
2, 238848, Note_on_c, 0, 76, 80
2, 238848, Note_on_c, 0, 79, 80
2, 239040, Note_on_c, 0, 72, 80
2, 239420, Note_off_c, 0, 72, 100
2, 239424, Note_on_c, 0, 72, 80
2, 239612, Note_off_c, 0, 76, 100
2, 239612, Note_off_c, 0, 79, 100
2, 239616, Note_on_c, 0, 77, 80
2, 239616, Note_on_c, 0, 80, 80
2, 239804, Note_off_c, 0, 72, 100
2, 239808, Note_on_c, 0, 72, 80
2, 239996, Note_off_c, 0, 77, 100
2, 239996, Note_off_c, 0, 80, 100
2, 240000, Note_on_c, 0, 79, 80
2, 240000, Note_on_c, 0, 82, 80
2, 240188, Note_off_c, 0, 72, 100
2, 240192, Note_on_c, 0, 72, 80
2, 240380, Note_off_c, 0, 79, 100
2, 240380, Note_off_c, 0, 82, 100
2, 240380, Note_off_c, 0, 72, 100
2, 240384, Note_on_c, 0, 71, 80
2, 240572, Note_off_c, 0, 71, 100
2, 240576, Note_on_c, 0, 72, 80
2, 240764, Note_off_c, 0, 72, 100
2, 240768, Note_on_c, 0, 88, 80
2, 240768, Note_on_c, 0, 79, 80
2, 240768, Note_on_c, 0, 76, 80
2, 241148, Note_off_c, 0, 88, 100
2, 241148, Note_off_c, 0, 79, 100
2, 241148, Note_off_c, 0, 76, 100
2, 241152, Note_on_c, 0, 89, 80
2, 241152, Note_on_c, 0, 80, 80
2, 241152, Note_on_c, 0, 77, 80
2, 241916, Note_off_c, 0, 89, 100
2, 241916, Note_off_c, 0, 80, 100
2, 241916, Note_off_c, 0, 77, 100
2, 242304, Control_c, 0, 7, 0
2, 242688, Note_on_c, 0, 65, 1
2, 242876, Note_off_c, 0, 65, 100
2, 242876, End_track
3, 0, Start_track
3, 0, Title_t, "Left"
3, 0, Control_c, 1, 0, 0
3, 0, Program_c, 1, 0
3, 0, Control_c, 1, 7, 100
3, 0, Control_c, 1, 10, 58
3, 0, Control_c, 1, 91, 127
3, 0, Key_signature, -4, "minor"
3, 0, Note_on_c, 1, 36, 80
3, 380, Note_off_c, 1, 36, 100
3, 384, Note_on_c, 1, 41, 80
3, 764, Note_off_c, 1, 41, 100
3, 768, Note_on_c, 1, 44, 80
3, 1148, Note_off_c, 1, 44, 100
3, 1152, Note_on_c, 1, 40, 80
3, 1532, Note_off_c, 1, 40, 100
3, 1536, Note_on_c, 1, 41, 80
3, 1916, Note_off_c, 1, 41, 100
3, 1920, Note_on_c, 1, 44, 80
3, 2300, Note_off_c, 1, 44, 100
3, 2304, Note_on_c, 1, 48, 80
3, 2684, Note_off_c, 1, 48, 100
3, 2688, Note_on_c, 1, 49, 80
3, 3068, Note_off_c, 1, 49, 100
3, 3072, Note_on_c, 1, 46, 80
3, 3452, Note_off_c, 1, 46, 100
3, 3456, Note_on_c, 1, 52, 80
3, 3836, Note_off_c, 1, 52, 100
3, 3840, Note_on_c, 1, 53, 80
3, 4220, Note_off_c, 1, 53, 100
3, 4224, Note_on_c, 1, 48, 80
3, 4604, Note_off_c, 1, 48, 100
3, 4608, Note_on_c, 1, 55, 80
3, 4988, Note_off_c, 1, 55, 100
3, 4992, Note_on_c, 1, 56, 80
3, 5372, Note_off_c, 1, 56, 100
3, 5376, Note_on_c, 1, 53, 80
3, 5756, Note_off_c, 1, 53, 100
3, 5760, Note_on_c, 1, 55, 80
3, 5760, Note_on_c, 1, 58, 80
3, 6140, Note_off_c, 1, 55, 100
3, 6140, Note_off_c, 1, 58, 100
3, 6144, Note_on_c, 1, 60, 80
3, 6144, Note_on_c, 1, 56, 80
3, 6528, Note_on_c, 1, 53, 80
3, 6908, Note_off_c, 1, 60, 100
3, 6908, Note_off_c, 1, 56, 100
3, 6908, Note_off_c, 1, 53, 100
3, 6912, Note_on_c, 1, 49, 80
3, 7292, Note_off_c, 1, 49, 100
3, 7296, Note_on_c, 1, 51, 80
3, 7676, Note_off_c, 1, 51, 100
3, 7680, Note_on_c, 1, 39, 80
3, 8060, Note_off_c, 1, 39, 100
3, 8064, Note_on_c, 1, 39, 80
3, 8444, Note_off_c, 1, 39, 100
3, 8448, Note_on_c, 1, 44, 80
3, 8828, Note_off_c, 1, 44, 100
3, 8832, Note_on_c, 1, 32, 80
3, 9212, Note_off_c, 1, 32, 100
3, 9216, Note_on_c, 1, 36, 80
3, 9596, Note_off_c, 1, 36, 100
3, 9600, Note_on_c, 1, 41, 80
3, 9980, Note_off_c, 1, 41, 100
3, 9984, Note_on_c, 1, 44, 80
3, 10364, Note_off_c, 1, 44, 100
3, 10368, Note_on_c, 1, 40, 80
3, 10748, Note_off_c, 1, 40, 100
3, 10752, Note_on_c, 1, 41, 80
3, 11132, Note_off_c, 1, 41, 100
3, 11136, Note_on_c, 1, 44, 80
3, 11516, Note_off_c, 1, 44, 100
3, 11520, Note_on_c, 1, 48, 80
3, 11900, Note_off_c, 1, 48, 100
3, 11904, Note_on_c, 1, 49, 80
3, 12284, Note_off_c, 1, 49, 100
3, 12288, Note_on_c, 1, 46, 80
3, 12668, Note_off_c, 1, 46, 100
3, 12672, Note_on_c, 1, 52, 80
3, 13052, Note_off_c, 1, 52, 100
3, 13056, Note_on_c, 1, 53, 80
3, 13436, Note_off_c, 1, 53, 100
3, 13440, Note_on_c, 1, 48, 80
3, 13820, Note_off_c, 1, 48, 100
3, 13824, Note_on_c, 1, 55, 80
3, 14204, Note_off_c, 1, 55, 100
3, 14208, Note_on_c, 1, 56, 80
3, 14588, Note_off_c, 1, 56, 100
3, 14592, Note_on_c, 1, 53, 80
3, 14972, Note_off_c, 1, 53, 100
3, 14976, Note_on_c, 1, 55, 80
3, 14976, Note_on_c, 1, 58, 80
3, 15356, Note_off_c, 1, 55, 100
3, 15356, Note_off_c, 1, 58, 100
3, 15360, Note_on_c, 1, 60, 80
3, 15360, Note_on_c, 1, 56, 80
3, 15744, Note_on_c, 1, 53, 80
3, 16124, Note_off_c, 1, 60, 100
3, 16124, Note_off_c, 1, 56, 100
3, 16124, Note_off_c, 1, 53, 100
3, 16128, Note_on_c, 1, 49, 80
3, 16508, Note_off_c, 1, 49, 100
3, 16512, Note_on_c, 1, 51, 80
3, 16892, Note_off_c, 1, 51, 100
3, 16896, Note_on_c, 1, 39, 80
3, 17276, Note_off_c, 1, 39, 100
3, 17280, Note_on_c, 1, 39, 80
3, 17660, Note_off_c, 1, 39, 100
3, 17664, Note_on_c, 1, 44, 80
3, 18044, Note_off_c, 1, 44, 100
3, 18048, Note_on_c, 1, 32, 80
3, 18428, Note_off_c, 1, 32, 100
3, 19584, Note_on_c, 1, 60, 90
3, 19584, Note_on_c, 1, 56, 90
3, 19964, Note_off_c, 1, 60, 100
3, 19964, Note_off_c, 1, 56, 100
3, 19968, Note_on_c, 1, 58, 90
3, 19968, Note_on_c, 1, 61, 90
3, 20732, Note_off_c, 1, 58, 100
3, 20732, Note_off_c, 1, 61, 100
3, 20736, Note_on_c, 1, 58, 90
3, 20736, Note_on_c, 1, 61, 90
3, 21116, Note_off_c, 1, 58, 100
3, 21116, Note_off_c, 1, 61, 100
3, 21120, Note_on_c, 1, 58, 90
3, 21120, Note_on_c, 1, 61, 90
3, 21884, Note_off_c, 1, 58, 100
3, 21884, Note_off_c, 1, 61, 100
3, 21888, Note_on_c, 1, 58, 90
3, 21888, Note_on_c, 1, 61, 90
3, 22268, Note_off_c, 1, 58, 100
3, 22268, Note_off_c, 1, 61, 100
3, 22272, Note_on_c, 1, 60, 90
3, 22272, Note_on_c, 1, 63, 90
3, 23036, Note_off_c, 1, 60, 100
3, 23036, Note_off_c, 1, 63, 100
3, 23040, Note_on_c, 1, 60, 90
3, 23040, Note_on_c, 1, 63, 90
3, 23420, Note_off_c, 1, 60, 100
3, 23420, Note_off_c, 1, 63, 100
3, 23424, Note_on_c, 1, 60, 90
3, 23424, Note_on_c, 1, 63, 90
3, 24188, Note_off_c, 1, 60, 100
3, 24188, Note_off_c, 1, 63, 100
3, 24192, Note_on_c, 1, 60, 90
3, 24192, Note_on_c, 1, 63, 90
3, 24572, Note_off_c, 1, 60, 100
3, 24572, Note_off_c, 1, 63, 100
3, 24576, Note_on_c, 1, 61, 90
3, 24576, Note_on_c, 1, 65, 90
3, 25340, Note_off_c, 1, 61, 100
3, 25340, Note_off_c, 1, 65, 100
3, 25344, Note_on_c, 1, 65, 90
3, 25344, Note_on_c, 1, 61, 90
3, 25724, Note_off_c, 1, 65, 100
3, 25724, Note_off_c, 1, 61, 100
3, 25728, Note_on_c, 1, 61, 90
3, 25728, Note_on_c, 1, 65, 90
3, 26492, Note_off_c, 1, 61, 100
3, 26492, Note_off_c, 1, 65, 100
3, 26496, Note_on_c, 1, 61, 90
3, 26496, Note_on_c, 1, 65, 90
3, 26876, Note_off_c, 1, 61, 100
3, 26876, Note_off_c, 1, 65, 100
3, 26880, Note_on_c, 1, 64, 90
3, 26880, Note_on_c, 1, 60, 90
3, 28796, Note_off_c, 1, 60, 100
3, 28796, Note_off_c, 1, 64, 100
3, 33408, Note_on_c, 1, 72, 70
3, 33788, Note_off_c, 1, 72, 100
3, 33792, Note_on_c, 1, 73, 70
3, 34172, Note_off_c, 1, 73, 100
3, 34176, Note_on_c, 1, 70, 70
3, 34556, Note_off_c, 1, 70, 100
3, 34560, Note_on_c, 1, 76, 70
3, 34940, Note_off_c, 1, 76, 100
3, 34944, Note_on_c, 1, 77, 70
3, 35324, Note_off_c, 1, 77, 100
3, 35328, Note_on_c, 1, 72, 70
3, 35708, Note_off_c, 1, 72, 100
3, 35712, Note_on_c, 1, 60, 80
3, 36092, Note_off_c, 1, 60, 100
3, 36096, Note_on_c, 1, 61, 80
3, 36476, Note_off_c, 1, 61, 100
3, 36480, Note_on_c, 1, 58, 80
3, 36860, Note_off_c, 1, 58, 100
3, 36864, Note_on_c, 1, 64, 80
3, 37244, Note_off_c, 1, 64, 100
3, 37248, Note_on_c, 1, 61, 80
3, 37628, Note_off_c, 1, 61, 100
3, 37632, Note_on_c, 1, 58, 80
3, 38012, Note_off_c, 1, 58, 100
3, 38016, Note_on_c, 1, 64, 80
3, 38396, Note_off_c, 1, 64, 100
3, 38400, Note_on_c, 1, 60, 80
3, 39164, Note_off_c, 1, 60, 100
3, 39168, Note_on_c, 1, 60, 80
3, 39548, Note_off_c, 1, 60, 100
3, 39552, Note_on_c, 1, 53, 80
3, 39932, Note_off_c, 1, 53, 100
3, 40320, Note_on_c, 1, 48, 80
3, 40700, Note_off_c, 1, 48, 100
3, 40704, Note_on_c, 1, 49, 80
3, 41084, Note_off_c, 1, 49, 100
3, 41088, Note_on_c, 1, 46, 80
3, 41468, Note_off_c, 1, 46, 100
3, 41472, Note_on_c, 1, 52, 80
3, 41852, Note_off_c, 1, 52, 100
3, 41856, Note_on_c, 1, 49, 80
3, 42236, Note_off_c, 1, 49, 100
3, 42240, Note_on_c, 1, 46, 80
3, 42620, Note_off_c, 1, 46, 100
3, 42624, Note_on_c, 1, 52, 80
3, 43004, Note_off_c, 1, 52, 100
3, 43008, Note_on_c, 1, 48, 80
3, 43772, Note_off_c, 1, 48, 100
3, 43776, Note_on_c, 1, 48, 80
3, 44156, Note_off_c, 1, 48, 100
3, 44160, Note_on_c, 1, 41, 80
3, 44160, Note_on_c, 1, 53, 80
3, 44540, Note_off_c, 1, 41, 100
3, 44540, Note_off_c, 1, 53, 100
3, 45312, Note_on_c, 1, 58, 80
3, 45312, Note_on_c, 1, 48, 80
3, 46076, Note_off_c, 1, 58, 100
3, 46080, Note_on_c, 1, 56, 80
3, 46460, Note_off_c, 1, 56, 100
3, 46464, Note_on_c, 1, 55, 80
3, 46464, Note_on_c, 1, 58, 80
3, 47228, Note_off_c, 1, 55, 100
3, 47228, Note_off_c, 1, 58, 100
3, 47232, Note_on_c, 1, 56, 80
3, 47232, Note_on_c, 1, 53, 80
3, 47612, Note_off_c, 1, 48, 100
3, 47612, Note_off_c, 1, 56, 100
3, 47612, Note_off_c, 1, 53, 100
3, 47616, Note_on_c, 1, 60, 80
3, 47616, Note_on_c, 1, 55, 80
3, 47616, Note_on_c, 1, 52, 80
3, 47616, Note_on_c, 1, 48, 80
3, 48764, Note_off_c, 1, 60, 100
3, 48764, Note_off_c, 1, 55, 100
3, 48764, Note_off_c, 1, 52, 100
3, 48764, Note_off_c, 1, 48, 100
3, 48768, Note_on_c, 1, 60, 80
3, 48768, Note_on_c, 1, 56, 80
3, 48768, Note_on_c, 1, 53, 80
3, 49148, Note_off_c, 1, 60, 100
3, 49148, Note_off_c, 1, 56, 100
3, 49148, Note_off_c, 1, 53, 100
3, 49920, Note_on_c, 1, 60, 80
3, 49920, Note_on_c, 1, 67, 80
3, 49920, Note_on_c, 1, 70, 80
3, 50684, Note_off_c, 1, 67, 100
3, 50684, Note_off_c, 1, 70, 100
3, 50688, Note_on_c, 1, 65, 80
3, 50688, Note_on_c, 1, 68, 80
3, 51068, Note_off_c, 1, 65, 100
3, 51068, Note_off_c, 1, 68, 100
3, 51072, Note_on_c, 1, 64, 80
3, 51072, Note_on_c, 1, 67, 80
3, 51452, Note_off_c, 1, 60, 100
3, 51452, Note_off_c, 1, 64, 100
3, 51452, Note_off_c, 1, 67, 100
3, 51840, Note_on_c, 1, 60, 80
3, 51840, Note_on_c, 1, 48, 80
3, 52220, Note_off_c, 1, 60, 100
3, 52220, Note_off_c, 1, 48, 100
3, 52224, Note_on_c, 1, 53, 80
3, 52224, Note_on_c, 1, 41, 80
3, 52604, Note_off_c, 1, 53, 100
3, 52604, Note_off_c, 1, 41, 100
3, 55296, Note_on_c, 1, 60, 80
3, 55296, Note_on_c, 1, 56, 80
3, 55676, Note_off_c, 1, 60, 100
3, 55676, Note_off_c, 1, 56, 100
3, 55680, Note_on_c, 1, 58, 80
3, 55680, Note_on_c, 1, 61, 80
3, 56444, Note_off_c, 1, 58, 100
3, 56444, Note_off_c, 1, 61, 100
3, 56448, Note_on_c, 1, 58, 80
3, 56448, Note_on_c, 1, 61, 80
3, 56828, Note_off_c, 1, 58, 100
3, 56828, Note_off_c, 1, 61, 100
3, 56832, Note_on_c, 1, 58, 80
3, 56832, Note_on_c, 1, 61, 80
3, 57596, Note_off_c, 1, 58, 100
3, 57596, Note_off_c, 1, 61, 100
3, 57600, Note_on_c, 1, 58, 80
3, 57600, Note_on_c, 1, 61, 80
3, 57980, Note_off_c, 1, 58, 100
3, 57980, Note_off_c, 1, 61, 100
3, 57984, Note_on_c, 1, 60, 80
3, 57984, Note_on_c, 1, 63, 80
3, 58748, Note_off_c, 1, 60, 100
3, 58748, Note_off_c, 1, 63, 100
3, 58752, Note_on_c, 1, 60, 80
3, 58752, Note_on_c, 1, 63, 80
3, 59132, Note_off_c, 1, 60, 100
3, 59132, Note_off_c, 1, 63, 100
3, 59136, Note_on_c, 1, 60, 80
3, 59136, Note_on_c, 1, 63, 80
3, 59900, Note_off_c, 1, 60, 100
3, 59900, Note_off_c, 1, 63, 100
3, 59904, Note_on_c, 1, 60, 80
3, 59904, Note_on_c, 1, 63, 80
3, 60284, Note_off_c, 1, 60, 100
3, 60284, Note_off_c, 1, 63, 100
3, 60288, Note_on_c, 1, 61, 80
3, 60288, Note_on_c, 1, 65, 80
3, 61052, Note_off_c, 1, 61, 100
3, 61052, Note_off_c, 1, 65, 100
3, 61056, Note_on_c, 1, 65, 100
3, 61056, Note_on_c, 1, 61, 100
3, 61436, Note_off_c, 1, 65, 100
3, 61436, Note_off_c, 1, 61, 100
3, 61440, Note_on_c, 1, 61, 100
3, 61440, Note_on_c, 1, 65, 100
3, 62204, Note_off_c, 1, 61, 100
3, 62204, Note_off_c, 1, 65, 100
3, 62208, Note_on_c, 1, 61, 100
3, 62208, Note_on_c, 1, 65, 100
3, 62588, Note_off_c, 1, 61, 100
3, 62588, Note_off_c, 1, 65, 100
3, 62592, Note_on_c, 1, 64, 100
3, 62592, Note_on_c, 1, 60, 100
3, 64508, Note_off_c, 1, 60, 100
3, 64508, Note_off_c, 1, 64, 100
3, 69120, Note_on_c, 1, 72, 80
3, 69500, Note_off_c, 1, 72, 100
3, 69504, Note_on_c, 1, 73, 80
3, 69884, Note_off_c, 1, 73, 100
3, 69888, Note_on_c, 1, 70, 80
3, 70268, Note_off_c, 1, 70, 100
3, 70272, Note_on_c, 1, 76, 80
3, 70652, Note_off_c, 1, 76, 100
3, 70656, Note_on_c, 1, 77, 80
3, 71036, Note_off_c, 1, 77, 100
3, 71040, Note_on_c, 1, 72, 80
3, 71420, Note_off_c, 1, 72, 100
3, 71424, Note_on_c, 1, 60, 80
3, 71804, Note_off_c, 1, 60, 100
3, 71808, Note_on_c, 1, 61, 80
3, 72188, Note_off_c, 1, 61, 100
3, 72192, Note_on_c, 1, 58, 80
3, 72572, Note_off_c, 1, 58, 100
3, 72576, Note_on_c, 1, 64, 80
3, 72956, Note_off_c, 1, 64, 100
3, 72960, Note_on_c, 1, 61, 80
3, 73340, Note_off_c, 1, 61, 100
3, 73344, Note_on_c, 1, 58, 80
3, 73724, Note_off_c, 1, 58, 100
3, 73728, Note_on_c, 1, 64, 80
3, 74108, Note_off_c, 1, 64, 100
3, 74112, Note_on_c, 1, 60, 80
3, 74876, Note_off_c, 1, 60, 100
3, 74880, Note_on_c, 1, 60, 80
3, 75260, Note_off_c, 1, 60, 100
3, 75264, Note_on_c, 1, 53, 80
3, 75644, Note_off_c, 1, 53, 100
3, 76032, Note_on_c, 1, 48, 80
3, 76412, Note_off_c, 1, 48, 100
3, 76416, Note_on_c, 1, 49, 80
3, 76796, Note_off_c, 1, 49, 100
3, 76800, Note_on_c, 1, 46, 80
3, 77180, Note_off_c, 1, 46, 100
3, 77184, Note_on_c, 1, 52, 80
3, 77564, Note_off_c, 1, 52, 100
3, 77568, Note_on_c, 1, 49, 80
3, 77948, Note_off_c, 1, 49, 100
3, 77952, Note_on_c, 1, 46, 80
3, 78332, Note_off_c, 1, 46, 100
3, 78336, Note_on_c, 1, 52, 80
3, 78716, Note_off_c, 1, 52, 100
3, 78720, Note_on_c, 1, 48, 80
3, 79484, Note_off_c, 1, 48, 100
3, 79488, Note_on_c, 1, 48, 80
3, 79868, Note_off_c, 1, 48, 100
3, 79872, Note_on_c, 1, 41, 80
3, 79872, Note_on_c, 1, 53, 80
3, 80252, Note_off_c, 1, 41, 100
3, 80252, Note_off_c, 1, 53, 100
3, 81024, Note_on_c, 1, 58, 80
3, 81024, Note_on_c, 1, 48, 80
3, 81788, Note_off_c, 1, 58, 100
3, 81792, Note_on_c, 1, 56, 80
3, 82172, Note_off_c, 1, 56, 100
3, 82176, Note_on_c, 1, 55, 80
3, 82176, Note_on_c, 1, 58, 80
3, 82940, Note_off_c, 1, 55, 100
3, 82940, Note_off_c, 1, 58, 100
3, 82944, Note_on_c, 1, 56, 80
3, 82944, Note_on_c, 1, 53, 80
3, 83324, Note_off_c, 1, 48, 100
3, 83324, Note_off_c, 1, 56, 100
3, 83324, Note_off_c, 1, 53, 100
3, 83328, Note_on_c, 1, 60, 80
3, 83328, Note_on_c, 1, 55, 80
3, 83328, Note_on_c, 1, 52, 80
3, 83328, Note_on_c, 1, 48, 80
3, 84476, Note_off_c, 1, 60, 100
3, 84476, Note_off_c, 1, 55, 100
3, 84476, Note_off_c, 1, 52, 100
3, 84476, Note_off_c, 1, 48, 100
3, 84480, Note_on_c, 1, 60, 80
3, 84480, Note_on_c, 1, 56, 80
3, 84480, Note_on_c, 1, 53, 80
3, 84860, Note_off_c, 1, 60, 100
3, 84860, Note_off_c, 1, 56, 100
3, 84860, Note_off_c, 1, 53, 100
3, 85632, Note_on_c, 1, 60, 84
3, 85632, Note_on_c, 1, 67, 84
3, 85632, Note_on_c, 1, 70, 84
3, 86396, Note_off_c, 1, 67, 100
3, 86396, Note_off_c, 1, 70, 100
3, 86400, Note_on_c, 1, 65, 94
3, 86400, Note_on_c, 1, 68, 94
3, 86780, Note_off_c, 1, 65, 100
3, 86780, Note_off_c, 1, 68, 100
3, 86784, Note_on_c, 1, 64, 99
3, 86784, Note_on_c, 1, 67, 99
3, 87164, Note_off_c, 1, 60, 100
3, 87164, Note_off_c, 1, 64, 100
3, 87164, Note_off_c, 1, 67, 100
3, 87552, Note_on_c, 1, 60, 110
3, 87552, Note_on_c, 1, 48, 110
3, 87932, Note_off_c, 1, 60, 100
3, 87932, Note_off_c, 1, 48, 100
3, 87936, Note_on_c, 1, 53, 110
3, 87936, Note_on_c, 1, 41, 110
3, 88316, Note_off_c, 1, 53, 100
3, 88316, Note_off_c, 1, 41, 100
3, 89088, Key_signature, -5, "minor"
3, 89856, Note_on_c, 1, 49, 80
3, 89856, Note_on_c, 1, 37, 80
3, 90236, Note_off_c, 1, 49, 100
3, 90236, Note_off_c, 1, 37, 100
3, 90240, Note_on_c, 1, 49, 80
3, 90240, Note_on_c, 1, 37, 80
3, 91004, Note_off_c, 1, 49, 100
3, 91004, Note_off_c, 1, 37, 100
3, 91008, Note_on_c, 1, 49, 80
3, 91008, Note_on_c, 1, 37, 80
3, 91388, Note_off_c, 1, 49, 100
3, 91388, Note_off_c, 1, 37, 100
3, 91392, Note_on_c, 1, 49, 80
3, 91392, Note_on_c, 1, 37, 80
3, 92156, Note_off_c, 1, 49, 100
3, 92156, Note_off_c, 1, 37, 100
3, 92160, Note_on_c, 1, 49, 80
3, 92160, Note_on_c, 1, 37, 80
3, 92540, Note_off_c, 1, 49, 100
3, 92540, Note_off_c, 1, 37, 100
3, 92544, Note_on_c, 1, 49, 80
3, 92544, Note_on_c, 1, 37, 80
3, 94844, Note_off_c, 1, 37, 100
3, 94844, Note_off_c, 1, 49, 100
3, 94848, Note_on_c, 1, 48, 80
3, 94848, Note_on_c, 1, 36, 80
3, 95612, Note_off_c, 1, 48, 100
3, 95612, Note_off_c, 1, 36, 100
3, 95616, Note_on_c, 1, 48, 80
3, 95616, Note_on_c, 1, 36, 80
3, 95996, Note_off_c, 1, 48, 100
3, 95996, Note_off_c, 1, 36, 100
3, 96000, Note_on_c, 1, 48, 80
3, 96000, Note_on_c, 1, 36, 80
3, 96764, Note_off_c, 1, 48, 100
3, 96764, Note_off_c, 1, 36, 100
3, 96768, Note_on_c, 1, 48, 80
3, 96768, Note_on_c, 1, 36, 80
3, 97148, Note_off_c, 1, 48, 100
3, 97148, Note_off_c, 1, 36, 100
3, 97152, Note_on_c, 1, 49, 80
3, 97152, Note_on_c, 1, 37, 80
3, 98684, Note_off_c, 1, 37, 100
3, 98684, Note_off_c, 1, 49, 100
3, 99456, Note_on_c, 1, 56, 80
3, 99456, Note_on_c, 1, 49, 80
3, 100220, Note_off_c, 1, 56, 100
3, 100220, Note_off_c, 1, 49, 100
3, 100224, Note_on_c, 1, 56, 87
3, 100224, Note_on_c, 1, 49, 87
3, 100604, Note_off_c, 1, 56, 100
3, 100604, Note_off_c, 1, 49, 100
3, 100608, Note_on_c, 1, 56, 91
3, 100608, Note_on_c, 1, 48, 91
3, 101372, Note_off_c, 1, 56, 100
3, 101372, Note_off_c, 1, 48, 100
3, 101376, Note_on_c, 1, 56, 99
3, 101376, Note_on_c, 1, 48, 99
3, 101756, Note_off_c, 1, 56, 100
3, 101756, Note_off_c, 1, 48, 100
3, 101760, Note_on_c, 1, 51, 110
3, 101760, Note_on_c, 1, 46, 110
3, 101760, Note_on_c, 1, 56, 110
3, 102908, Note_off_c, 1, 56, 100
3, 102912, Note_on_c, 1, 55, 110
3, 103676, Note_off_c, 1, 46, 100
3, 103676, Note_off_c, 1, 51, 100
3, 103676, Note_off_c, 1, 55, 100
3, 103680, Note_on_c, 1, 56, 80
3, 103680, Note_on_c, 1, 51, 80
3, 103680, Note_on_c, 1, 48, 80
3, 104060, Note_off_c, 1, 56, 100
3, 104060, Note_off_c, 1, 51, 100
3, 104060, Note_off_c, 1, 48, 100
3, 104064, Note_on_c, 1, 58, 80
3, 104064, Note_on_c, 1, 53, 80
3, 104064, Note_on_c, 1, 49, 80
3, 104828, Note_off_c, 1, 58, 100
3, 104828, Note_off_c, 1, 53, 100
3, 104828, Note_off_c, 1, 49, 100
3, 104832, Note_on_c, 1, 59, 80
3, 104832, Note_on_c, 1, 53, 80
3, 104832, Note_on_c, 1, 50, 80
3, 105212, Note_off_c, 1, 59, 100
3, 105212, Note_off_c, 1, 53, 100
3, 105212, Note_off_c, 1, 50, 100
3, 105216, Note_on_c, 1, 60, 80
3, 105216, Note_on_c, 1, 51, 80
3, 105980, Note_off_c, 1, 60, 100
3, 105980, Note_off_c, 1, 51, 100
3, 105984, Note_on_c, 1, 58, 80
3, 105984, Note_on_c, 1, 51, 80
3, 106364, Note_off_c, 1, 58, 100
3, 106364, Note_off_c, 1, 51, 100
3, 106368, Note_on_c, 1, 55, 80
3, 106368, Note_on_c, 1, 44, 80
3, 107136, Note_on_c, 1, 51, 80
3, 107516, Note_off_c, 1, 55, 100
3, 107520, Note_on_c, 1, 56, 80
3, 107900, Note_off_c, 1, 44, 100
3, 107900, Note_off_c, 1, 51, 100
3, 107900, Note_off_c, 1, 56, 100
3, 109056, Note_on_c, 1, 49, 80
3, 109056, Note_on_c, 1, 37, 80
3, 109436, Note_off_c, 1, 49, 100
3, 109436, Note_off_c, 1, 37, 100
3, 110208, Note_on_c, 1, 49, 80
3, 110208, Note_on_c, 1, 37, 80
3, 110588, Note_off_c, 1, 49, 100
3, 110588, Note_off_c, 1, 37, 100
3, 111360, Note_on_c, 1, 49, 80
3, 111740, Note_off_c, 1, 49, 100
3, 111744, Note_on_c, 1, 51, 80
3, 111932, Note_off_c, 1, 51, 100
3, 111936, Note_on_c, 1, 53, 80
3, 112124, Note_off_c, 1, 53, 100
3, 112128, Note_on_c, 1, 54, 80
3, 112316, Note_off_c, 1, 54, 100
3, 112320, Note_on_c, 1, 53, 80
3, 112508, Note_off_c, 1, 53, 100
3, 112512, Note_on_c, 1, 51, 80
3, 112700, Note_off_c, 1, 51, 100
3, 112704, Note_on_c, 1, 49, 80
3, 112892, Note_off_c, 1, 49, 100
3, 112896, Note_on_c, 1, 48, 80
3, 113084, Note_off_c, 1, 48, 100
3, 113088, Note_on_c, 1, 46, 80
3, 113276, Note_off_c, 1, 46, 100
3, 113280, Note_on_c, 1, 45, 80
3, 113660, Note_off_c, 1, 45, 100
3, 113664, Note_on_c, 1, 45, 80
3, 114044, Note_off_c, 1, 45, 100
3, 114816, Note_on_c, 1, 45, 80
3, 115196, Note_off_c, 1, 45, 100
3, 115968, Note_on_c, 1, 45, 80
3, 116348, Note_off_c, 1, 45, 100
3, 116352, Note_on_c, 1, 46, 80
3, 116540, Note_off_c, 1, 46, 100
3, 116544, Note_on_c, 1, 48, 80
3, 116732, Note_off_c, 1, 48, 100
3, 116736, Note_on_c, 1, 49, 80
3, 116924, Note_off_c, 1, 49, 100
3, 116928, Note_on_c, 1, 48, 80
3, 117116, Note_off_c, 1, 48, 100
3, 117120, Note_on_c, 1, 46, 80
3, 117308, Note_off_c, 1, 46, 100
3, 117312, Note_on_c, 1, 44, 80
3, 117500, Note_off_c, 1, 44, 100
3, 117504, Note_on_c, 1, 43, 80
3, 117692, Note_off_c, 1, 43, 100
3, 117696, Note_on_c, 1, 41, 80
3, 117884, Note_off_c, 1, 41, 100
3, 117888, Note_on_c, 1, 40, 80
3, 118268, Note_off_c, 1, 40, 100
3, 118272, Note_on_c, 1, 40, 80
3, 118652, Note_off_c, 1, 40, 100
3, 119424, Note_on_c, 1, 40, 80
3, 119804, Note_off_c, 1, 40, 100
3, 120576, Note_on_c, 1, 40, 80
3, 120956, Note_off_c, 1, 40, 100
3, 120960, Note_on_c, 1, 41, 80
3, 121148, Note_off_c, 1, 41, 100
3, 121152, Note_on_c, 1, 43, 80
3, 121340, Note_off_c, 1, 43, 100
3, 121344, Note_on_c, 1, 44, 80
3, 121532, Note_off_c, 1, 44, 100
3, 121536, Note_on_c, 1, 43, 80
3, 121724, Note_off_c, 1, 43, 100
3, 121728, Note_on_c, 1, 41, 80
3, 121916, Note_off_c, 1, 41, 100
3, 121920, Note_on_c, 1, 39, 80
3, 122108, Note_off_c, 1, 39, 100
3, 122112, Note_on_c, 1, 37, 80
3, 122300, Note_off_c, 1, 37, 100
3, 122304, Note_on_c, 1, 36, 80
3, 122492, Note_off_c, 1, 36, 100
3, 122496, Note_on_c, 1, 37, 80
3, 122876, Note_off_c, 1, 37, 100
3, 122880, Note_on_c, 1, 37, 80
3, 123260, Note_off_c, 1, 37, 100
3, 124032, Note_on_c, 1, 39, 80
3, 124412, Note_off_c, 1, 39, 100
3, 125184, Note_on_c, 1, 32, 80
3, 125372, Note_off_c, 1, 32, 100
3, 125376, Note_on_c, 1, 36, 80
3, 125564, Note_off_c, 1, 36, 100
3, 125568, Note_on_c, 1, 39, 80
3, 125756, Note_off_c, 1, 39, 100
3, 125760, Note_on_c, 1, 44, 80
3, 125948, Note_off_c, 1, 44, 100
3, 125952, Note_on_c, 1, 32, 80
3, 126332, Note_off_c, 1, 32, 100
3, 126720, Note_on_c, 1, 59, 70
3, 126720, Note_on_c, 1, 56, 70
3, 126720, Note_on_c, 1, 53, 70
3, 127100, Note_off_c, 1, 59, 100
3, 127100, Note_off_c, 1, 56, 100
3, 127100, Note_off_c, 1, 53, 100
3, 127104, Note_on_c, 1, 59, 73
3, 127104, Note_on_c, 1, 56, 73
3, 127104, Note_on_c, 1, 53, 73
3, 127868, Note_off_c, 1, 59, 100
3, 127868, Note_off_c, 1, 56, 100
3, 127868, Note_off_c, 1, 53, 100
3, 127872, Note_on_c, 1, 59, 79
3, 127872, Note_on_c, 1, 56, 79
3, 127872, Note_on_c, 1, 53, 79
3, 128252, Note_off_c, 1, 59, 100
3, 128252, Note_off_c, 1, 56, 100
3, 128252, Note_off_c, 1, 53, 100
3, 128256, Note_on_c, 1, 59, 83
3, 128256, Note_on_c, 1, 56, 83
3, 128256, Note_on_c, 1, 53, 83
3, 128256, Note_on_c, 1, 51, 83
3, 129020, Note_off_c, 1, 59, 100
3, 129020, Note_off_c, 1, 56, 100
3, 129020, Note_off_c, 1, 53, 100
3, 129020, Note_off_c, 1, 51, 100
3, 129024, Note_on_c, 1, 59, 89
3, 129024, Note_on_c, 1, 56, 89
3, 129024, Note_on_c, 1, 53, 89
3, 129024, Note_on_c, 1, 51, 89
3, 129404, Note_off_c, 1, 59, 100
3, 129404, Note_off_c, 1, 56, 100
3, 129404, Note_off_c, 1, 53, 100
3, 129404, Note_off_c, 1, 51, 100
3, 129408, Note_on_c, 1, 50, 80
3, 129408, Note_on_c, 1, 53, 80
3, 129408, Note_on_c, 1, 56, 80
3, 129408, Note_on_c, 1, 59, 80
3, 130556, Note_off_c, 1, 59, 100
3, 130560, Note_on_c, 1, 58, 80
3, 130940, Note_off_c, 1, 50, 100
3, 130940, Note_off_c, 1, 53, 100
3, 130940, Note_off_c, 1, 56, 100
3, 130940, Note_off_c, 1, 58, 100
3, 131712, Note_on_c, 1, 58, 70
3, 131712, Note_on_c, 1, 54, 70
3, 131712, Note_on_c, 1, 51, 70
3, 132476, Note_off_c, 1, 58, 100
3, 132476, Note_off_c, 1, 54, 100
3, 132476, Note_off_c, 1, 51, 100
3, 132480, Note_on_c, 1, 58, 76
3, 132480, Note_on_c, 1, 54, 76
3, 132480, Note_on_c, 1, 51, 76
3, 132860, Note_off_c, 1, 58, 100
3, 132860, Note_off_c, 1, 54, 100
3, 132860, Note_off_c, 1, 51, 100
3, 132864, Note_on_c, 1, 57, 79
3, 132864, Note_on_c, 1, 54, 79
3, 132864, Note_on_c, 1, 51, 79
3, 132864, Note_on_c, 1, 49, 79
3, 133628, Note_off_c, 1, 57, 100
3, 133628, Note_off_c, 1, 54, 100
3, 133628, Note_off_c, 1, 51, 100
3, 133628, Note_off_c, 1, 49, 100
3, 133632, Note_on_c, 1, 57, 86
3, 133632, Note_on_c, 1, 54, 86
3, 133632, Note_on_c, 1, 51, 86
3, 133632, Note_on_c, 1, 49, 86
3, 134012, Note_off_c, 1, 57, 100
3, 134012, Note_off_c, 1, 54, 100
3, 134012, Note_off_c, 1, 51, 100
3, 134012, Note_off_c, 1, 49, 100
3, 134016, Note_on_c, 1, 57, 89
3, 134016, Note_on_c, 1, 54, 89
3, 134016, Note_on_c, 1, 51, 89
3, 134016, Note_on_c, 1, 48, 89
3, 135164, Note_off_c, 1, 57, 100
3, 135168, Note_on_c, 1, 56, 99
3, 135548, Note_off_c, 1, 48, 100
3, 135548, Note_off_c, 1, 51, 100
3, 135548, Note_off_c, 1, 54, 100
3, 135548, Note_off_c, 1, 56, 100
3, 136320, Note_on_c, 1, 49, 80
3, 136700, Note_off_c, 1, 49, 100
3, 136704, Note_on_c, 1, 61, 80
3, 137084, Note_off_c, 1, 61, 100
3, 137856, Note_on_c, 1, 61, 80
3, 138236, Note_off_c, 1, 61, 100
3, 139008, Note_on_c, 1, 61, 80
3, 139388, Note_off_c, 1, 61, 100
3, 139392, Note_on_c, 1, 63, 80
3, 139580, Note_off_c, 1, 63, 100
3, 139584, Note_on_c, 1, 65, 80
3, 139772, Note_off_c, 1, 65, 100
3, 139776, Note_on_c, 1, 66, 80
3, 139964, Note_off_c, 1, 66, 100
3, 139968, Note_on_c, 1, 65, 80
3, 140156, Note_off_c, 1, 65, 100
3, 140160, Note_on_c, 1, 63, 80
3, 140348, Note_off_c, 1, 63, 100
3, 140352, Note_on_c, 1, 61, 80
3, 140540, Note_off_c, 1, 61, 100
3, 140544, Note_on_c, 1, 60, 80
3, 140732, Note_off_c, 1, 60, 100
3, 140736, Note_on_c, 1, 58, 80
3, 140924, Note_off_c, 1, 58, 100
3, 140928, Note_on_c, 1, 57, 80
3, 141308, Note_off_c, 1, 57, 100
3, 141312, Note_on_c, 1, 69, 84
3, 141692, Note_off_c, 1, 69, 100
3, 142464, Note_on_c, 1, 69, 99
3, 142844, Note_off_c, 1, 69, 100
3, 143616, Note_on_c, 1, 70, 80
3, 144764, Note_off_c, 1, 70, 100
3, 145536, Note_on_c, 1, 52, 70
3, 145536, Note_on_c, 1, 43, 70
3, 146300, Note_off_c, 1, 52, 100
3, 146300, Note_off_c, 1, 43, 100
3, 146304, Note_on_c, 1, 52, 70
3, 146304, Note_on_c, 1, 43, 70
3, 146684, Note_off_c, 1, 52, 100
3, 146684, Note_off_c, 1, 43, 100
3, 146688, Note_on_c, 1, 52, 70
3, 146688, Note_on_c, 1, 43, 70
3, 147452, Note_off_c, 1, 52, 100
3, 147452, Note_off_c, 1, 43, 100
3, 147456, Note_on_c, 1, 52, 70
3, 147456, Note_on_c, 1, 43, 70
3, 147836, Note_off_c, 1, 52, 100
3, 147836, Note_off_c, 1, 43, 100
3, 147840, Note_on_c, 1, 52, 70
3, 147840, Note_on_c, 1, 44, 70
3, 148988, Note_off_c, 1, 52, 100
3, 148992, Note_on_c, 1, 53, 70
3, 149372, Note_off_c, 1, 44, 100
3, 149372, Note_off_c, 1, 53, 100
3, 150144, Note_on_c, 1, 54, 70
3, 150144, Note_on_c, 1, 44, 70
3, 150908, Note_off_c, 1, 54, 100
3, 150908, Note_off_c, 1, 44, 100
3, 150912, Note_on_c, 1, 54, 70
3, 150912, Note_on_c, 1, 44, 70
3, 151292, Note_off_c, 1, 54, 100
3, 151292, Note_off_c, 1, 44, 100
3, 151296, Note_on_c, 1, 54, 70
3, 151296, Note_on_c, 1, 44, 70
3, 152060, Note_off_c, 1, 54, 100
3, 152060, Note_off_c, 1, 44, 100
3, 152064, Note_on_c, 1, 54, 70
3, 152064, Note_on_c, 1, 44, 70
3, 152444, Note_off_c, 1, 54, 100
3, 152444, Note_off_c, 1, 44, 100
3, 152448, Note_on_c, 1, 53, 70
3, 152448, Note_on_c, 1, 49, 70
3, 152828, Note_off_c, 1, 53, 100
3, 152828, Note_off_c, 1, 49, 100
3, 154368, Note_on_c, 1, 59, 80
3, 154368, Note_on_c, 1, 56, 80
3, 154368, Note_on_c, 1, 53, 80
3, 154748, Note_off_c, 1, 59, 100
3, 154748, Note_off_c, 1, 56, 100
3, 154748, Note_off_c, 1, 53, 100
3, 154752, Note_on_c, 1, 59, 80
3, 154752, Note_on_c, 1, 56, 80
3, 154752, Note_on_c, 1, 53, 80
3, 155516, Note_off_c, 1, 59, 100
3, 155516, Note_off_c, 1, 56, 100
3, 155516, Note_off_c, 1, 53, 100
3, 155520, Note_on_c, 1, 59, 80
3, 155520, Note_on_c, 1, 56, 80
3, 155520, Note_on_c, 1, 53, 80
3, 155900, Note_off_c, 1, 59, 100
3, 155900, Note_off_c, 1, 56, 100
3, 155900, Note_off_c, 1, 53, 100
3, 155904, Note_on_c, 1, 59, 80
3, 155904, Note_on_c, 1, 56, 80
3, 155904, Note_on_c, 1, 53, 80
3, 155904, Note_on_c, 1, 51, 80
3, 156668, Note_off_c, 1, 59, 100
3, 156668, Note_off_c, 1, 56, 100
3, 156668, Note_off_c, 1, 53, 100
3, 156668, Note_off_c, 1, 51, 100
3, 156672, Note_on_c, 1, 59, 80
3, 156672, Note_on_c, 1, 56, 80
3, 156672, Note_on_c, 1, 53, 80
3, 156672, Note_on_c, 1, 51, 80
3, 157052, Note_off_c, 1, 59, 100
3, 157052, Note_off_c, 1, 56, 100
3, 157052, Note_off_c, 1, 53, 100
3, 157052, Note_off_c, 1, 51, 100
3, 157056, Note_on_c, 1, 50, 80
3, 157056, Note_on_c, 1, 53, 80
3, 157056, Note_on_c, 1, 56, 80
3, 157056, Note_on_c, 1, 59, 80
3, 158204, Note_off_c, 1, 59, 100
3, 158208, Note_on_c, 1, 58, 80
3, 158588, Note_off_c, 1, 50, 100
3, 158588, Note_off_c, 1, 53, 100
3, 158588, Note_off_c, 1, 56, 100
3, 158588, Note_off_c, 1, 58, 100
3, 159360, Note_on_c, 1, 58, 80
3, 159360, Note_on_c, 1, 54, 80
3, 159360, Note_on_c, 1, 51, 80
3, 160124, Note_off_c, 1, 58, 100
3, 160124, Note_off_c, 1, 54, 100
3, 160124, Note_off_c, 1, 51, 100
3, 160128, Note_on_c, 1, 58, 80
3, 160128, Note_on_c, 1, 54, 80
3, 160128, Note_on_c, 1, 51, 80
3, 160508, Note_off_c, 1, 58, 100
3, 160508, Note_off_c, 1, 54, 100
3, 160508, Note_off_c, 1, 51, 100
3, 160512, Note_on_c, 1, 57, 80
3, 160512, Note_on_c, 1, 54, 80
3, 160512, Note_on_c, 1, 51, 80
3, 160512, Note_on_c, 1, 49, 80
3, 161276, Note_off_c, 1, 57, 100
3, 161276, Note_off_c, 1, 54, 100
3, 161276, Note_off_c, 1, 51, 100
3, 161276, Note_off_c, 1, 49, 100
3, 161280, Note_on_c, 1, 57, 80
3, 161280, Note_on_c, 1, 54, 80
3, 161280, Note_on_c, 1, 51, 80
3, 161280, Note_on_c, 1, 49, 80
3, 161660, Note_off_c, 1, 57, 100
3, 161660, Note_off_c, 1, 54, 100
3, 161660, Note_off_c, 1, 51, 100
3, 161660, Note_off_c, 1, 49, 100
3, 161664, Note_on_c, 1, 57, 80
3, 161664, Note_on_c, 1, 54, 80
3, 161664, Note_on_c, 1, 51, 80
3, 161664, Note_on_c, 1, 48, 80
3, 162812, Note_off_c, 1, 57, 100
3, 162816, Note_on_c, 1, 56, 80
3, 163196, Note_off_c, 1, 48, 100
3, 163196, Note_off_c, 1, 51, 100
3, 163196, Note_off_c, 1, 54, 100
3, 163196, Note_off_c, 1, 56, 100
3, 163968, Note_on_c, 1, 49, 80
3, 164348, Note_off_c, 1, 49, 100
3, 164352, Note_on_c, 1, 61, 80
3, 164732, Note_off_c, 1, 61, 100
3, 165504, Note_on_c, 1, 61, 80
3, 165884, Note_off_c, 1, 61, 100
3, 166656, Note_on_c, 1, 61, 80
3, 167036, Note_off_c, 1, 61, 100
3, 167040, Note_on_c, 1, 63, 80
3, 167228, Note_off_c, 1, 63, 100
3, 167232, Note_on_c, 1, 65, 80
3, 167420, Note_off_c, 1, 65, 100
3, 167424, Note_on_c, 1, 66, 80
3, 167612, Note_off_c, 1, 66, 100
3, 167616, Note_on_c, 1, 65, 80
3, 167804, Note_off_c, 1, 65, 100
3, 167808, Note_on_c, 1, 63, 80
3, 167996, Note_off_c, 1, 63, 100
3, 168000, Note_on_c, 1, 61, 80
3, 168188, Note_off_c, 1, 61, 100
3, 168192, Note_on_c, 1, 60, 80
3, 168380, Note_off_c, 1, 60, 100
3, 168384, Note_on_c, 1, 58, 80
3, 168572, Note_off_c, 1, 58, 100
3, 168576, Note_on_c, 1, 57, 80
3, 168956, Note_off_c, 1, 57, 100
3, 168960, Note_on_c, 1, 69, 80
3, 169340, Note_off_c, 1, 69, 100
3, 170112, Note_on_c, 1, 69, 80
3, 170492, Note_off_c, 1, 69, 100
3, 171264, Note_on_c, 1, 70, 80
3, 172412, Note_off_c, 1, 70, 100
3, 173184, Note_on_c, 1, 52, 80
3, 173184, Note_on_c, 1, 43, 80
3, 173948, Note_off_c, 1, 52, 100
3, 173948, Note_off_c, 1, 43, 100
3, 173952, Note_on_c, 1, 52, 80
3, 173952, Note_on_c, 1, 43, 80
3, 174332, Note_off_c, 1, 52, 100
3, 174332, Note_off_c, 1, 43, 100
3, 174336, Note_on_c, 1, 52, 80
3, 174336, Note_on_c, 1, 43, 80
3, 175100, Note_off_c, 1, 52, 100
3, 175100, Note_off_c, 1, 43, 100
3, 175104, Note_on_c, 1, 52, 80
3, 175104, Note_on_c, 1, 43, 80
3, 175484, Note_off_c, 1, 52, 100
3, 175484, Note_off_c, 1, 43, 100
3, 175488, Note_on_c, 1, 52, 80
3, 175488, Note_on_c, 1, 44, 80
3, 176636, Note_off_c, 1, 52, 100
3, 176640, Note_on_c, 1, 53, 80
3, 177788, Note_off_c, 1, 44, 100
3, 177788, Note_off_c, 1, 53, 100
3, 177792, Note_on_c, 1, 54, 70
3, 177792, Note_on_c, 1, 44, 70
3, 178556, Note_off_c, 1, 54, 100
3, 178556, Note_off_c, 1, 44, 100
3, 178560, Note_on_c, 1, 54, 70
3, 178560, Note_on_c, 1, 44, 70
3, 178940, Note_off_c, 1, 54, 100
3, 178940, Note_off_c, 1, 44, 100
3, 178944, Note_on_c, 1, 54, 70
3, 178944, Note_on_c, 1, 44, 70
3, 179708, Note_off_c, 1, 54, 100
3, 179708, Note_off_c, 1, 44, 100
3, 179712, Note_on_c, 1, 54, 70
3, 179712, Note_on_c, 1, 44, 70
3, 180092, Note_off_c, 1, 54, 100
3, 180092, Note_off_c, 1, 44, 100
3, 180096, Note_on_c, 1, 53, 70
3, 180096, Note_on_c, 1, 49, 70
3, 180476, Note_off_c, 1, 53, 100
3, 180476, Note_off_c, 1, 49, 100
3, 182400, Note_on_c, 1, 49, 70
3, 183164, Note_off_c, 1, 49, 100
3, 183168, Note_on_c, 1, 49, 70
3, 183548, Note_off_c, 1, 49, 100
3, 183552, Note_on_c, 1, 49, 70
3, 184316, Note_off_c, 1, 49, 100
3, 184320, Note_on_c, 1, 49, 70
3, 184700, Note_off_c, 1, 49, 100
3, 184704, Note_on_c, 1, 48, 70
3, 187004, Note_off_c, 1, 48, 100
3, 187008, Note_on_c, 1, 48, 70
3, 187008, Note_on_c, 1, 36, 70
3, 187772, Note_off_c, 1, 48, 100
3, 187772, Note_off_c, 1, 36, 100
3, 187776, Note_on_c, 1, 48, 70
3, 187776, Note_on_c, 1, 36, 70
3, 188156, Note_off_c, 1, 48, 100
3, 188156, Note_off_c, 1, 36, 100
3, 188160, Note_on_c, 1, 48, 70
3, 188160, Note_on_c, 1, 36, 70
3, 188924, Note_off_c, 1, 48, 100
3, 188924, Note_off_c, 1, 36, 100
3, 188928, Note_on_c, 1, 48, 70
3, 188928, Note_on_c, 1, 36, 70
3, 189308, Note_off_c, 1, 48, 100
3, 189308, Note_off_c, 1, 36, 100
3, 189312, Key_signature, -4, "minor"
3, 189312, Note_on_c, 1, 41, 80
3, 189692, Note_off_c, 1, 41, 100
3, 189696, Note_on_c, 1, 44, 80
3, 190076, Note_off_c, 1, 44, 100
3, 190080, Note_on_c, 1, 40, 80
3, 190460, Note_off_c, 1, 40, 100
3, 190464, Note_on_c, 1, 41, 80
3, 190844, Note_off_c, 1, 41, 100
3, 190848, Note_on_c, 1, 44, 80
3, 191228, Note_off_c, 1, 44, 100
3, 191232, Note_on_c, 1, 48, 80
3, 191612, Note_off_c, 1, 48, 100
3, 191616, Note_on_c, 1, 49, 80
3, 191996, Note_off_c, 1, 49, 100
3, 192000, Note_on_c, 1, 46, 80
3, 192380, Note_off_c, 1, 46, 100
3, 192384, Note_on_c, 1, 52, 80
3, 192764, Note_off_c, 1, 52, 100
3, 192768, Note_on_c, 1, 53, 80
3, 193148, Note_off_c, 1, 53, 100
3, 193152, Note_on_c, 1, 48, 80
3, 193532, Note_off_c, 1, 48, 100
3, 193536, Note_on_c, 1, 55, 80
3, 193916, Note_off_c, 1, 55, 100
3, 193920, Note_on_c, 1, 56, 80
3, 194300, Note_off_c, 1, 56, 100
3, 194304, Note_on_c, 1, 53, 80
3, 194684, Note_off_c, 1, 53, 100
3, 194688, Note_on_c, 1, 55, 80
3, 194688, Note_on_c, 1, 58, 80
3, 195068, Note_off_c, 1, 55, 100
3, 195068, Note_off_c, 1, 58, 100
3, 195072, Note_on_c, 1, 60, 80
3, 195072, Note_on_c, 1, 56, 80
3, 195456, Note_on_c, 1, 53, 80
3, 195836, Note_off_c, 1, 60, 100
3, 195836, Note_off_c, 1, 56, 100
3, 195836, Note_off_c, 1, 53, 100
3, 195840, Note_on_c, 1, 49, 80
3, 196220, Note_off_c, 1, 49, 100
3, 196224, Note_on_c, 1, 51, 80
3, 196604, Note_off_c, 1, 51, 100
3, 196608, Note_on_c, 1, 39, 80
3, 196988, Note_off_c, 1, 39, 100
3, 196992, Note_on_c, 1, 39, 80
3, 197372, Note_off_c, 1, 39, 100
3, 197376, Note_on_c, 1, 44, 80
3, 197756, Note_off_c, 1, 44, 100
3, 197760, Note_on_c, 1, 32, 80
3, 198140, Note_off_c, 1, 32, 100
3, 198144, Note_on_c, 1, 36, 80
3, 198524, Note_off_c, 1, 36, 100
3, 198528, Note_on_c, 1, 41, 80
3, 198908, Note_off_c, 1, 41, 100
3, 198912, Note_on_c, 1, 44, 80
3, 199292, Note_off_c, 1, 44, 100
3, 199296, Note_on_c, 1, 40, 80
3, 199676, Note_off_c, 1, 40, 100
3, 199680, Note_on_c, 1, 41, 80
3, 200060, Note_off_c, 1, 41, 100
3, 200064, Note_on_c, 1, 44, 80
3, 200444, Note_off_c, 1, 44, 100
3, 200448, Note_on_c, 1, 48, 80
3, 200828, Note_off_c, 1, 48, 100
3, 200832, Note_on_c, 1, 49, 80
3, 201212, Note_off_c, 1, 49, 100
3, 201216, Note_on_c, 1, 46, 80
3, 201596, Note_off_c, 1, 46, 100
3, 201600, Note_on_c, 1, 52, 80
3, 201980, Note_off_c, 1, 52, 100
3, 201984, Note_on_c, 1, 53, 80
3, 202364, Note_off_c, 1, 53, 100
3, 202368, Note_on_c, 1, 48, 80
3, 202748, Note_off_c, 1, 48, 100
3, 202752, Note_on_c, 1, 55, 80
3, 203132, Note_off_c, 1, 55, 100
3, 203136, Note_on_c, 1, 56, 80
3, 203516, Note_off_c, 1, 56, 100
3, 203520, Note_on_c, 1, 53, 80
3, 203900, Note_off_c, 1, 53, 100
3, 203904, Note_on_c, 1, 55, 80
3, 203904, Note_on_c, 1, 58, 80
3, 204284, Note_off_c, 1, 55, 100
3, 204284, Note_off_c, 1, 58, 100
3, 204288, Note_on_c, 1, 56, 80
3, 204288, Note_on_c, 1, 60, 80
3, 204668, Note_off_c, 1, 56, 100
3, 204668, Note_off_c, 1, 60, 100
3, 204672, Note_on_c, 1, 53, 80
3, 205052, Note_off_c, 1, 53, 100
3, 205056, Note_on_c, 1, 49, 80
3, 205436, Note_off_c, 1, 49, 100
3, 205440, Note_on_c, 1, 51, 80
3, 205820, Note_off_c, 1, 51, 100
3, 205824, Note_on_c, 1, 39, 80
3, 206204, Note_off_c, 1, 39, 100
3, 206208, Note_on_c, 1, 39, 80
3, 206588, Note_off_c, 1, 39, 100
3, 206592, Note_on_c, 1, 44, 80
3, 206972, Note_off_c, 1, 44, 100
3, 206976, Note_on_c, 1, 32, 80
3, 207356, Note_off_c, 1, 32, 100
3, 207744, Note_on_c, 1, 56, 80
3, 207932, Note_off_c, 1, 56, 100
3, 207936, Note_on_c, 1, 60, 80
3, 208124, Note_off_c, 1, 60, 100
3, 208128, Note_on_c, 1, 56, 80
3, 208316, Note_off_c, 1, 56, 100
3, 208320, Note_on_c, 1, 60, 80
3, 208508, Note_off_c, 1, 60, 100
3, 208512, Note_on_c, 1, 56, 80
3, 208700, Note_off_c, 1, 56, 100
3, 208704, Note_on_c, 1, 60, 80
3, 208892, Note_off_c, 1, 60, 100
3, 208896, Note_on_c, 1, 58, 80
3, 209084, Note_off_c, 1, 58, 100
3, 209088, Note_on_c, 1, 61, 80
3, 209276, Note_off_c, 1, 61, 100
3, 209280, Note_on_c, 1, 58, 80
3, 209468, Note_off_c, 1, 58, 100
3, 209472, Note_on_c, 1, 61, 80
3, 209660, Note_off_c, 1, 61, 100
3, 209664, Note_on_c, 1, 58, 80
3, 209852, Note_off_c, 1, 58, 100
3, 209856, Note_on_c, 1, 61, 80
3, 210044, Note_off_c, 1, 61, 100
3, 210048, Note_on_c, 1, 58, 80
3, 210236, Note_off_c, 1, 58, 100
3, 210240, Note_on_c, 1, 61, 80
3, 210428, Note_off_c, 1, 61, 100
3, 210432, Note_on_c, 1, 58, 80
3, 210620, Note_off_c, 1, 58, 100
3, 210624, Note_on_c, 1, 61, 80
3, 210812, Note_off_c, 1, 61, 100
3, 210816, Note_on_c, 1, 58, 80
3, 211004, Note_off_c, 1, 58, 100
3, 211008, Note_on_c, 1, 61, 80
3, 211196, Note_off_c, 1, 61, 100
3, 211200, Note_on_c, 1, 60, 80
3, 211388, Note_off_c, 1, 60, 100
3, 211392, Note_on_c, 1, 63, 80
3, 211580, Note_off_c, 1, 63, 100
3, 211584, Note_on_c, 1, 60, 80
3, 211772, Note_off_c, 1, 60, 100
3, 211776, Note_on_c, 1, 63, 80
3, 211964, Note_off_c, 1, 63, 100
3, 211968, Note_on_c, 1, 60, 80
3, 212156, Note_off_c, 1, 60, 100
3, 212160, Note_on_c, 1, 63, 80
3, 212348, Note_off_c, 1, 63, 100
3, 212352, Note_on_c, 1, 60, 80
3, 212540, Note_off_c, 1, 60, 100
3, 212544, Note_on_c, 1, 63, 80
3, 212732, Note_off_c, 1, 63, 100
3, 212736, Note_on_c, 1, 60, 80
3, 212924, Note_off_c, 1, 60, 100
3, 212928, Note_on_c, 1, 63, 80
3, 213116, Note_off_c, 1, 63, 100
3, 213120, Note_on_c, 1, 60, 80
3, 213308, Note_off_c, 1, 60, 100
3, 213312, Note_on_c, 1, 63, 80
3, 213500, Note_off_c, 1, 63, 100
3, 213504, Note_on_c, 1, 61, 80
3, 213692, Note_off_c, 1, 61, 100
3, 213696, Note_on_c, 1, 65, 80
3, 213884, Note_off_c, 1, 65, 100
3, 213888, Note_on_c, 1, 61, 80
3, 214076, Note_off_c, 1, 61, 100
3, 214080, Note_on_c, 1, 65, 80
3, 214268, Note_off_c, 1, 65, 100
3, 214272, Note_on_c, 1, 61, 80
3, 214460, Note_off_c, 1, 61, 100
3, 214464, Note_on_c, 1, 65, 80
3, 214652, Note_off_c, 1, 65, 100
3, 214656, Note_on_c, 1, 62, 80
3, 214844, Note_off_c, 1, 62, 100
3, 214848, Note_on_c, 1, 65, 80
3, 215036, Note_off_c, 1, 65, 100
3, 215040, Note_on_c, 1, 62, 80
3, 215228, Note_off_c, 1, 62, 100
3, 215232, Note_on_c, 1, 65, 80
3, 215420, Note_off_c, 1, 65, 100
3, 215424, Note_on_c, 1, 62, 80
3, 215612, Note_off_c, 1, 62, 100
3, 215616, Note_on_c, 1, 65, 80
3, 215804, Note_off_c, 1, 65, 100
3, 215808, Note_on_c, 1, 64, 80
3, 215808, Note_on_c, 1, 60, 80
3, 217724, Note_off_c, 1, 60, 100
3, 217724, Note_off_c, 1, 64, 100
3, 218880, Note_on_c, 1, 72, 80
3, 219260, Note_off_c, 1, 72, 100
3, 219264, Note_on_c, 1, 68, 80
3, 219644, Note_off_c, 1, 68, 100
3, 219648, Note_on_c, 1, 65, 80
3, 220028, Note_off_c, 1, 65, 100
3, 220032, Note_on_c, 1, 68, 80
3, 220412, Note_off_c, 1, 68, 100
3, 220416, Note_on_c, 1, 70, 80
3, 220796, Note_off_c, 1, 70, 100
3, 220800, Note_on_c, 1, 65, 80
3, 221180, Note_off_c, 1, 65, 100
3, 221184, Note_on_c, 1, 70, 80
3, 221564, Note_off_c, 1, 70, 100
3, 221568, Note_on_c, 1, 68, 80
3, 221948, Note_off_c, 1, 68, 100
3, 221952, Note_on_c, 1, 65, 80
3, 222332, Note_off_c, 1, 65, 100
3, 222336, Note_on_c, 1, 72, 80
3, 222716, Note_off_c, 1, 72, 100
3, 222720, Note_on_c, 1, 73, 80
3, 223100, Note_off_c, 1, 73, 100
3, 223104, Note_on_c, 1, 70, 80
3, 223484, Note_off_c, 1, 70, 100
3, 223488, Note_on_c, 1, 76, 80
3, 223868, Note_off_c, 1, 76, 100
3, 223872, Note_on_c, 1, 77, 80
3, 224252, Note_off_c, 1, 77, 100
3, 224256, Note_on_c, 1, 72, 80
3, 224636, Note_off_c, 1, 72, 100
3, 224640, Note_on_c, 1, 60, 80
3, 225020, Note_off_c, 1, 60, 100
3, 225024, Note_on_c, 1, 61, 80
3, 225404, Note_off_c, 1, 61, 100
3, 225408, Note_on_c, 1, 58, 80
3, 225788, Note_off_c, 1, 58, 100
3, 225792, Note_on_c, 1, 64, 80
3, 226172, Note_off_c, 1, 64, 100
3, 226176, Note_on_c, 1, 61, 80
3, 226556, Note_off_c, 1, 61, 100
3, 226560, Note_on_c, 1, 58, 80
3, 226940, Note_off_c, 1, 58, 100
3, 226944, Note_on_c, 1, 64, 80
3, 227324, Note_off_c, 1, 64, 100
3, 227328, Note_on_c, 1, 60, 80
3, 227708, Note_off_c, 1, 60, 100
3, 227712, Note_on_c, 1, 60, 80
3, 228092, Note_off_c, 1, 60, 100
3, 228096, Note_on_c, 1, 60, 80
3, 228476, Note_off_c, 1, 60, 100
3, 228480, Note_on_c, 1, 53, 80
3, 228860, Note_off_c, 1, 53, 100
3, 229248, Note_on_c, 1, 48, 80
3, 229628, Note_off_c, 1, 48, 100
3, 229632, Note_on_c, 1, 49, 80
3, 230012, Note_off_c, 1, 49, 100
3, 230016, Note_on_c, 1, 46, 80
3, 230396, Note_off_c, 1, 46, 100
3, 230400, Note_on_c, 1, 52, 80
3, 230780, Note_off_c, 1, 52, 100
3, 230784, Note_on_c, 1, 49, 80
3, 231164, Note_off_c, 1, 49, 100
3, 231168, Note_on_c, 1, 46, 80
3, 231548, Note_off_c, 1, 46, 100
3, 231552, Note_on_c, 1, 52, 80
3, 231932, Note_off_c, 1, 52, 100
3, 231936, Note_on_c, 1, 48, 80
3, 232316, Note_off_c, 1, 48, 100
3, 232320, Note_on_c, 1, 48, 80
3, 232700, Note_off_c, 1, 48, 100
3, 232704, Note_on_c, 1, 48, 80
3, 233084, Note_off_c, 1, 48, 100
3, 233088, Note_on_c, 1, 53, 80
3, 233088, Note_on_c, 1, 41, 80
3, 233468, Note_off_c, 1, 53, 100
3, 233468, Note_off_c, 1, 41, 100
3, 234240, Note_on_c, 1, 48, 84
3, 234624, Note_on_c, 1, 58, 88
3, 235004, Note_off_c, 1, 58, 100
3, 235008, Note_on_c, 1, 56, 92
3, 235388, Note_off_c, 1, 48, 100
3, 235388, Note_off_c, 1, 56, 100
3, 235392, Note_on_c, 1, 48, 97
3, 235776, Note_on_c, 1, 58, 101
3, 235776, Note_on_c, 1, 55, 101
3, 236156, Note_off_c, 1, 58, 100
3, 236156, Note_off_c, 1, 55, 100
3, 236160, Note_on_c, 1, 56, 105
3, 236160, Note_on_c, 1, 53, 105
3, 236540, Note_off_c, 1, 48, 100
3, 236540, Note_off_c, 1, 56, 100
3, 236540, Note_off_c, 1, 53, 100
3, 236544, Note_on_c, 1, 60, 109
3, 236544, Note_on_c, 1, 55, 109
3, 236544, Note_on_c, 1, 52, 109
3, 236544, Note_on_c, 1, 48, 109
3, 237692, Note_off_c, 1, 60, 100
3, 237692, Note_off_c, 1, 55, 100
3, 237692, Note_off_c, 1, 52, 100
3, 237692, Note_off_c, 1, 48, 100
3, 237696, Note_on_c, 1, 60, 80
3, 237696, Note_on_c, 1, 56, 80
3, 237696, Note_on_c, 1, 53, 80
3, 238076, Note_off_c, 1, 60, 100
3, 238076, Note_off_c, 1, 56, 100
3, 238076, Note_off_c, 1, 53, 100
3, 238848, Note_on_c, 1, 60, 80
3, 239232, Note_on_c, 1, 67, 80
3, 239232, Note_on_c, 1, 70, 80
3, 239612, Note_off_c, 1, 67, 100
3, 239612, Note_off_c, 1, 70, 100
3, 239616, Note_on_c, 1, 65, 80
3, 239616, Note_on_c, 1, 68, 80
3, 239996, Note_off_c, 1, 65, 100
3, 239996, Note_off_c, 1, 68, 100
3, 240000, Note_on_c, 1, 64, 80
3, 240000, Note_on_c, 1, 67, 80
3, 240380, Note_off_c, 1, 60, 100
3, 240380, Note_off_c, 1, 64, 100
3, 240380, Note_off_c, 1, 67, 100
3, 240768, Note_on_c, 1, 60, 80
3, 240768, Note_on_c, 1, 48, 80
3, 241148, Note_off_c, 1, 60, 100
3, 241148, Note_off_c, 1, 48, 100
3, 241152, Note_on_c, 1, 53, 80
3, 241152, Note_on_c, 1, 41, 80
3, 241916, Note_off_c, 1, 53, 100
3, 241916, Note_off_c, 1, 41, 100
3, 241916, End_track
0, 0, End_of_file
