0, 0, Header, 1, 3, 384
1, 0, Start_track
1, 0, Title_t, "L.v.Beethoven 4mov - Piano Sonata No.7 in D Major Op.10-3\000"
1, 0, Copyright_t, "Copyright(C) 1995-2009, Suzuki Software\000"
1, 0, Sequencer_specific, 9, 67, 123, 0, 88, 70, 48, 50, 0, 1
1, 0, Text_t, "XFhd:2000/04/12:JP:Classical::::L.v.Beethoven:::Kaoru Suzuki\000"
1, 0, Text_t, "XFln:JP:\203s\203A\203m\203\\\203i\203^\221æ7\224Ô\203j\222·\222²\215ì\225i10-3\201`\221æ4\212y\217Í:L.v.\203x\201[\203g\201[\203\224\203F\203\223:::\227é\202¿\202á\202ñ:\227é\202¿\202á\202ñ\000"
1, 0, Time_signature, 1, 2, 96, 8
1, 0, Sequencer_specific, 3, 0, 0, 65
1, 0, Sequencer_specific, 5, 0, 0, 119, 14, 0
1, 0, Tempo, 444444
1, 384, Time_signature, 4, 2, 96, 8
1, 6528, Tempo, 666666
1, 7296, Tempo, 1500000
1, 7872, Tempo, 444444
1, 10752, Tempo, 600000
1, 12288, Tempo, 444444
1, 36480, Tempo, 500000
1, 36864, Tempo, 600000
1, 37248, Tempo, 444444
1, 46464, Tempo, 666666
1, 47232, Tempo, 1500000
1, 47808, Tempo, 444444
1, 49920, Tempo, 461538
1, 50304, Tempo, 521739
1, 50688, Tempo, 600000
1, 51072, Tempo, 444444
1, 71040, Tempo, 461538
1, 71424, Tempo, 480000
1, 71808, Tempo, 500000
1, 72192, Tempo, 545454
1, 72576, Tempo, 444444
1, 89472, Tempo, 461538
1, 89856, Tempo, 480000
1, 90240, Tempo, 500000
1, 90624, Tempo, 545454
1, 94080, Tempo, 444444
1, 100224, Tempo, 666666
1, 100992, Tempo, 1500000
1, 101568, Tempo, 444444
1, 103680, Tempo, 461538
1, 104064, Tempo, 480000
1, 104448, Tempo, 545454
1, 105984, Tempo, 444444
1, 135552, Tempo, 461538
1, 135936, Tempo, 480000
1, 136320, Tempo, 500000
1, 136704, Tempo, 545454
1, 137088, Tempo, 444444
1, 145152, Tempo, 666666
1, 147072, Tempo, 1500000
1, 147648, Tempo, 444444
1, 149760, Tempo, 461538
1, 150144, Tempo, 480000
1, 150528, Tempo, 521739
1, 152064, Tempo, 444444
1, 153984, Tempo, 428571
1, 161664, Tempo, 444444
1, 162048, Tempo, 461538
1, 162432, Tempo, 500000
1, 162816, Tempo, 600000
1, 163200, Tempo, 444444
1, 164736, Tempo, 705882
1, 165504, Tempo, 500000
1, 177024, Tempo, 444444
1, 186240, Tempo, 461538
1, 186624, Tempo, 480000
1, 187008, Tempo, 521739
1, 187392, Tempo, 600000
1, 187392, End_track
2, 0, Start_track
2, 0, Title_t, "Right"
2, 0, Control_c, 0, 0, 0
2, 0, Program_c, 0, 0
2, 0, Control_c, 0, 7, 100
2, 0, Control_c, 0, 10, 75
2, 0, Control_c, 0, 91, 127
2, 0, Key_signature, 2, "major"
2, 192, Note_on_c, 0, 66, 80
2, 192, Note_on_c, 0, 57, 80
2, 192, Note_on_c, 0, 62, 80
2, 380, Note_off_c, 0, 66, 100
2, 380, Note_off_c, 0, 57, 100
2, 384, Note_on_c, 0, 67, 80
2, 384, Note_on_c, 0, 59, 80
2, 572, Note_off_c, 0, 67, 100
2, 576, Note_on_c, 0, 71, 80
2, 764, Note_off_c, 0, 62, 100
2, 764, Note_off_c, 0, 59, 100
2, 764, Note_off_c, 0, 71, 100
2, 1728, Note_on_c, 0, 66, 80
2, 1728, Note_on_c, 0, 57, 80
2, 1728, Note_on_c, 0, 62, 80
2, 1916, Note_off_c, 0, 66, 100
2, 1916, Note_off_c, 0, 57, 100
2, 1920, Note_on_c, 0, 67, 80
2, 1920, Note_on_c, 0, 59, 80
2, 2108, Note_off_c, 0, 67, 100
2, 2112, Note_on_c, 0, 71, 80
2, 2300, Note_off_c, 0, 62, 100
2, 2300, Note_off_c, 0, 59, 100
2, 2300, Note_off_c, 0, 71, 100
2, 3264, Note_on_c, 0, 71, 80
2, 3452, Note_off_c, 0, 71, 100
2, 3456, Note_on_c, 0, 69, 80
2, 3644, Note_off_c, 0, 69, 100
2, 3648, Note_on_c, 0, 74, 83
2, 3836, Note_off_c, 0, 74, 100
2, 3840, Note_on_c, 0, 73, 87
2, 4028, Note_off_c, 0, 73, 100
2, 4032, Note_on_c, 0, 79, 91
2, 4220, Note_off_c, 0, 79, 100
2, 4224, Note_on_c, 0, 78, 94
2, 4412, Note_off_c, 0, 78, 100
2, 4416, Note_on_c, 0, 83, 98
2, 4604, Note_off_c, 0, 83, 100
2, 4608, Note_on_c, 0, 81, 102
2, 4796, Note_off_c, 0, 81, 100
2, 4800, Note_on_c, 0, 88, 106
2, 5084, Note_off_c, 0, 88, 100
2, 5088, Note_on_c, 0, 86, 99
2, 5180, Note_off_c, 0, 86, 100
2, 5184, Note_on_c, 0, 85, 98
2, 5276, Note_off_c, 0, 85, 100
2, 5280, Note_on_c, 0, 83, 97
2, 5372, Note_off_c, 0, 83, 100
2, 5376, Note_on_c, 0, 81, 96
2, 5468, Note_off_c, 0, 81, 100
2, 5472, Note_on_c, 0, 80, 94
2, 5564, Note_off_c, 0, 80, 100
2, 5568, Note_on_c, 0, 86, 93
2, 5660, Note_off_c, 0, 86, 100
2, 5664, Note_on_c, 0, 80, 92
2, 5756, Note_off_c, 0, 80, 100
2, 5760, Note_on_c, 0, 83, 91
2, 6620, Note_off_c, 0, 83, 100
2, 6624, Note_on_c, 0, 85, 80
2, 6716, Note_off_c, 0, 85, 100
2, 6720, Note_on_c, 0, 83, 80
2, 6812, Note_off_c, 0, 83, 100
2, 6816, Note_on_c, 0, 82, 80
2, 6908, Note_off_c, 0, 82, 100
2, 6912, Note_on_c, 0, 83, 80
2, 7100, Note_off_c, 0, 83, 100
2, 7104, Note_on_c, 0, 85, 80
2, 7292, Note_off_c, 0, 85, 100
2, 7296, Note_on_c, 0, 81, 80
2, 7868, Note_off_c, 0, 81, 100
2, 7872, Note_on_c, 0, 66, 80
2, 7872, Note_on_c, 0, 57, 80
2, 7872, Note_on_c, 0, 62, 80
2, 8060, Note_off_c, 0, 66, 100
2, 8060, Note_off_c, 0, 57, 100
2, 8064, Note_on_c, 0, 67, 80
2, 8064, Note_on_c, 0, 59, 80
2, 8252, Note_off_c, 0, 62, 100
2, 8252, Note_off_c, 0, 67, 100
2, 8256, Note_on_c, 0, 71, 80
2, 8444, Note_off_c, 0, 59, 100
2, 8444, Note_off_c, 0, 71, 100
2, 8640, Note_on_c, 0, 66, 80
2, 8640, Note_on_c, 0, 61, 80
2, 8640, Note_on_c, 0, 70, 80
2, 8828, Note_off_c, 0, 61, 100
2, 8828, Note_off_c, 0, 70, 100
2, 8832, Note_on_c, 0, 71, 83
2, 8832, Note_on_c, 0, 62, 83
2, 9020, Note_off_c, 0, 71, 100
2, 9024, Note_on_c, 0, 74, 86
2, 9212, Note_off_c, 0, 66, 100
2, 9212, Note_off_c, 0, 62, 100
2, 9212, Note_off_c, 0, 74, 100
2, 9408, Note_on_c, 0, 73, 93
2, 9408, Note_on_c, 0, 64, 93
2, 9408, Note_on_c, 0, 69, 93
2, 9596, Note_off_c, 0, 73, 100
2, 9596, Note_off_c, 0, 64, 100
2, 9600, Note_on_c, 0, 74, 96
2, 9600, Note_on_c, 0, 66, 96
2, 9788, Note_off_c, 0, 74, 100
2, 9792, Note_on_c, 0, 78, 99
2, 9980, Note_off_c, 0, 69, 100
2, 9980, Note_off_c, 0, 66, 100
2, 9980, Note_off_c, 0, 78, 100
2, 10176, Note_on_c, 0, 71, 80
2, 10364, Note_off_c, 0, 71, 100
2, 10368, Note_on_c, 0, 62, 80
2, 10748, Note_off_c, 0, 62, 100
2, 10752, Note_on_c, 0, 61, 80
2, 10752, Note_on_c, 0, 66, 80
2, 10796, Note_off_c, 0, 66, 100
2, 10800, Note_on_c, 0, 64, 80
2, 11036, Note_off_c, 0, 64, 100
2, 11040, Note_on_c, 0, 62, 80
2, 11132, Note_off_c, 0, 61, 100
2, 11132, Note_off_c, 0, 62, 100
2, 11136, Note_on_c, 0, 62, 80
2, 11516, Note_off_c, 0, 62, 100
2, 12480, Note_on_c, 0, 78, 120
2, 12480, Note_on_c, 0, 75, 120
2, 12668, Note_off_c, 0, 78, 100
2, 12668, Note_off_c, 0, 75, 100
2, 12672, Note_on_c, 0, 76, 120
2, 12672, Note_on_c, 0, 79, 120
2, 12860, Note_off_c, 0, 76, 100
2, 12860, Note_off_c, 0, 79, 100
2, 12864, Note_on_c, 0, 79, 120
2, 12864, Note_on_c, 0, 83, 120
2, 13052, Note_off_c, 0, 79, 100
2, 13052, Note_off_c, 0, 83, 100
2, 13248, Note_on_c, 0, 71, 80
2, 13436, Note_off_c, 0, 71, 100
2, 13440, Note_on_c, 0, 62, 80
2, 13820, Note_off_c, 0, 62, 100
2, 13824, Note_on_c, 0, 61, 80
2, 13824, Note_on_c, 0, 66, 80
2, 13868, Note_off_c, 0, 66, 100
2, 13872, Note_on_c, 0, 64, 80
2, 14108, Note_off_c, 0, 64, 100
2, 14112, Note_on_c, 0, 62, 80
2, 14204, Note_off_c, 0, 61, 100
2, 14204, Note_off_c, 0, 62, 100
2, 14208, Note_on_c, 0, 62, 80
2, 14588, Note_off_c, 0, 62, 100
2, 15360, Note_on_c, 0, 79, 80
2, 15360, Note_on_c, 0, 67, 80
2, 15932, Note_off_c, 0, 67, 100
2, 15932, Note_off_c, 0, 79, 100
2, 15936, Note_on_c, 0, 78, 80
2, 15936, Note_on_c, 0, 66, 80
2, 16124, Note_off_c, 0, 78, 100
2, 16124, Note_off_c, 0, 66, 100
2, 16128, Note_on_c, 0, 79, 80
2, 16128, Note_on_c, 0, 67, 80
2, 16316, Note_off_c, 0, 79, 100
2, 16316, Note_off_c, 0, 67, 100
2, 16320, Note_on_c, 0, 81, 80
2, 16320, Note_on_c, 0, 69, 80
2, 16508, Note_off_c, 0, 81, 100
2, 16508, Note_off_c, 0, 69, 100
2, 16512, Note_on_c, 0, 83, 80
2, 16512, Note_on_c, 0, 71, 80
2, 16700, Note_off_c, 0, 83, 100
2, 16700, Note_off_c, 0, 71, 100
2, 16704, Note_on_c, 0, 83, 80
2, 16704, Note_on_c, 0, 71, 80
2, 16892, Note_off_c, 0, 83, 100
2, 16892, Note_off_c, 0, 71, 100
2, 16896, Note_on_c, 0, 85, 80
2, 16896, Note_on_c, 0, 73, 80
2, 17084, Note_off_c, 0, 85, 100
2, 17084, Note_off_c, 0, 73, 100
2, 17088, Note_on_c, 0, 86, 80
2, 17088, Note_on_c, 0, 74, 80
2, 17276, Note_off_c, 0, 86, 100
2, 17276, Note_off_c, 0, 74, 100
2, 17280, Note_on_c, 0, 74, 80
2, 17280, Note_on_c, 0, 86, 80
2, 17660, Note_off_c, 0, 74, 100
2, 17660, Note_off_c, 0, 86, 100
2, 17664, Note_on_c, 0, 81, 80
2, 17664, Note_on_c, 0, 69, 80
2, 17852, Note_off_c, 0, 81, 100
2, 17852, Note_off_c, 0, 69, 100
2, 18432, Note_on_c, 0, 67, 80
2, 18432, Note_on_c, 0, 55, 80
2, 19004, Note_off_c, 0, 55, 100
2, 19004, Note_off_c, 0, 67, 100
2, 19008, Note_on_c, 0, 66, 80
2, 19008, Note_on_c, 0, 54, 80
2, 19196, Note_off_c, 0, 66, 100
2, 19196, Note_off_c, 0, 54, 100
2, 19200, Note_on_c, 0, 67, 80
2, 19200, Note_on_c, 0, 55, 80
2, 19388, Note_off_c, 0, 67, 100
2, 19388, Note_off_c, 0, 55, 100
2, 19392, Note_on_c, 0, 69, 80
2, 19392, Note_on_c, 0, 57, 80
2, 19580, Note_off_c, 0, 69, 100
2, 19580, Note_off_c, 0, 57, 100
2, 19584, Note_on_c, 0, 70, 80
2, 19584, Note_on_c, 0, 58, 80
2, 19772, Note_off_c, 0, 70, 100
2, 19772, Note_off_c, 0, 58, 100
2, 19776, Note_on_c, 0, 71, 80
2, 19776, Note_on_c, 0, 59, 80
2, 19964, Note_off_c, 0, 71, 100
2, 19964, Note_off_c, 0, 59, 100
2, 19968, Note_on_c, 0, 73, 80
2, 19968, Note_on_c, 0, 61, 80
2, 20156, Note_off_c, 0, 73, 100
2, 20156, Note_off_c, 0, 61, 100
2, 20160, Note_on_c, 0, 74, 80
2, 20160, Note_on_c, 0, 62, 80
2, 20348, Note_off_c, 0, 74, 100
2, 20348, Note_off_c, 0, 62, 100
2, 20352, Note_on_c, 0, 74, 80
2, 20352, Note_on_c, 0, 62, 80
2, 20732, Note_off_c, 0, 74, 100
2, 20732, Note_off_c, 0, 62, 100
2, 20736, Note_on_c, 0, 69, 80
2, 20924, Note_off_c, 0, 69, 100
2, 21216, Note_on_c, 0, 86, 81
2, 21308, Note_off_c, 0, 86, 100
2, 21312, Note_on_c, 0, 85, 82
2, 21404, Note_off_c, 0, 85, 100
2, 21408, Note_on_c, 0, 86, 83
2, 21500, Note_off_c, 0, 86, 100
2, 21504, Note_on_c, 0, 88, 85
2, 21596, Note_off_c, 0, 88, 100
2, 21600, Note_on_c, 0, 86, 86
2, 21692, Note_off_c, 0, 86, 100
2, 21696, Note_on_c, 0, 85, 87
2, 21788, Note_off_c, 0, 85, 100
2, 21792, Note_on_c, 0, 86, 89
2, 21884, Note_off_c, 0, 86, 100
2, 21984, Note_on_c, 0, 86, 91
2, 22076, Note_off_c, 0, 86, 100
2, 22080, Note_on_c, 0, 85, 93
2, 22172, Note_off_c, 0, 85, 100
2, 22176, Note_on_c, 0, 86, 94
2, 22268, Note_off_c, 0, 86, 100
2, 22272, Note_on_c, 0, 88, 95
2, 22364, Note_off_c, 0, 88, 100
2, 22368, Note_on_c, 0, 86, 96
2, 22460, Note_off_c, 0, 86, 100
2, 22464, Note_on_c, 0, 85, 98
2, 22556, Note_off_c, 0, 85, 100
2, 22560, Note_on_c, 0, 86, 99
2, 22652, Note_off_c, 0, 86, 100
2, 22752, Note_on_c, 0, 86, 102
2, 22844, Note_off_c, 0, 86, 100
2, 22848, Note_on_c, 0, 85, 103
2, 22940, Note_off_c, 0, 85, 100
2, 22944, Note_on_c, 0, 86, 104
2, 23036, Note_off_c, 0, 86, 100
2, 23040, Note_on_c, 0, 88, 106
2, 23132, Note_off_c, 0, 88, 100
2, 23136, Note_on_c, 0, 86, 107
2, 23228, Note_off_c, 0, 86, 100
2, 23232, Note_on_c, 0, 85, 108
2, 23324, Note_off_c, 0, 85, 100
2, 23328, Note_on_c, 0, 86, 109
2, 23420, Note_off_c, 0, 86, 100
2, 23520, Note_on_c, 0, 86, 110
2, 23612, Note_off_c, 0, 86, 100
2, 23616, Note_on_c, 0, 85, 110
2, 23708, Note_off_c, 0, 85, 100
2, 23712, Note_on_c, 0, 86, 110
2, 23804, Note_off_c, 0, 86, 100
2, 23808, Note_on_c, 0, 88, 110
2, 23900, Note_off_c, 0, 88, 100
2, 23904, Note_on_c, 0, 86, 110
2, 23996, Note_off_c, 0, 86, 100
2, 24000, Note_on_c, 0, 85, 110
2, 24092, Note_off_c, 0, 85, 100
2, 24096, Note_on_c, 0, 86, 110
2, 24188, Note_off_c, 0, 86, 100
2, 24288, Note_on_c, 0, 81, 110
2, 24380, Note_off_c, 0, 81, 100
2, 24384, Note_on_c, 0, 80, 110
2, 24476, Note_off_c, 0, 80, 100
2, 24480, Note_on_c, 0, 81, 110
2, 24572, Note_off_c, 0, 81, 100
2, 24576, Note_on_c, 0, 83, 110
2, 24668, Note_off_c, 0, 83, 100
2, 24672, Note_on_c, 0, 81, 110
2, 24764, Note_off_c, 0, 81, 100
2, 24768, Note_on_c, 0, 80, 110
2, 24860, Note_off_c, 0, 80, 100
2, 24864, Note_on_c, 0, 81, 110
2, 24956, Note_off_c, 0, 81, 100
2, 24960, Note_on_c, 0, 80, 110
2, 25052, Note_off_c, 0, 80, 100
2, 25056, Note_on_c, 0, 86, 80
2, 25148, Note_off_c, 0, 86, 100
2, 25152, Note_on_c, 0, 85, 80
2, 25244, Note_off_c, 0, 85, 100
2, 25248, Note_on_c, 0, 83, 80
2, 25340, Note_off_c, 0, 83, 100
2, 25344, Note_on_c, 0, 81, 80
2, 25436, Note_off_c, 0, 81, 100
2, 25440, Note_on_c, 0, 80, 80
2, 25532, Note_off_c, 0, 80, 100
2, 25536, Note_on_c, 0, 78, 80
2, 25628, Note_off_c, 0, 78, 100
2, 25632, Note_on_c, 0, 76, 80
2, 25724, Note_off_c, 0, 76, 100
2, 25728, Note_on_c, 0, 74, 80
2, 25852, Note_off_c, 0, 74, 100
2, 25856, Note_on_c, 0, 73, 80
2, 25980, Note_off_c, 0, 73, 100
2, 25984, Note_on_c, 0, 71, 80
2, 26108, Note_off_c, 0, 71, 100
2, 26112, Note_on_c, 0, 69, 80
2, 26236, Note_off_c, 0, 69, 100
2, 26240, Note_on_c, 0, 68, 80
2, 26364, Note_off_c, 0, 68, 100
2, 26368, Note_on_c, 0, 66, 80
2, 26492, Note_off_c, 0, 66, 100
2, 26496, Note_on_c, 0, 64, 80
2, 26972, Note_off_c, 0, 64, 100
2, 26976, Note_on_c, 0, 65, 80
2, 27068, Note_off_c, 0, 65, 100
2, 27072, Note_on_c, 0, 66, 80
2, 27164, Note_off_c, 0, 66, 100
2, 27168, Note_on_c, 0, 67, 80
2, 27260, Note_off_c, 0, 67, 100
2, 27264, Note_on_c, 0, 68, 80
2, 27740, Note_off_c, 0, 68, 100
2, 27744, Note_on_c, 0, 69, 80
2, 27836, Note_off_c, 0, 69, 100
2, 27840, Note_on_c, 0, 70, 80
2, 27932, Note_off_c, 0, 70, 100
2, 27936, Note_on_c, 0, 71, 80
2, 28028, Note_off_c, 0, 71, 100
2, 28032, Note_on_c, 0, 72, 80
2, 28124, Note_off_c, 0, 72, 100
2, 28128, Note_on_c, 0, 73, 80
2, 28220, Note_off_c, 0, 73, 100
2, 28224, Note_on_c, 0, 74, 80
2, 28316, Note_off_c, 0, 74, 100
2, 28320, Note_on_c, 0, 75, 80
2, 28412, Note_off_c, 0, 75, 100
2, 28416, Note_on_c, 0, 76, 80
2, 28508, Note_off_c, 0, 76, 100
2, 28512, Note_on_c, 0, 77, 82
2, 28604, Note_off_c, 0, 77, 100
2, 28608, Note_on_c, 0, 78, 85
2, 28700, Note_off_c, 0, 78, 100
2, 28704, Note_on_c, 0, 79, 88
2, 28796, Note_off_c, 0, 79, 100
2, 28800, Note_on_c, 0, 80, 90
2, 28892, Note_off_c, 0, 80, 100
2, 28896, Note_on_c, 0, 81, 93
2, 28988, Note_off_c, 0, 81, 100
2, 28992, Note_on_c, 0, 82, 96
2, 29084, Note_off_c, 0, 82, 100
2, 29088, Note_on_c, 0, 83, 99
2, 29180, Note_off_c, 0, 83, 100
2, 29184, Note_on_c, 0, 84, 101
2, 29276, Note_off_c, 0, 84, 100
2, 29280, Note_on_c, 0, 85, 104
2, 29372, Note_off_c, 0, 85, 100
2, 29376, Note_on_c, 0, 86, 107
2, 29468, Note_off_c, 0, 86, 100
2, 29472, Note_on_c, 0, 87, 109
2, 29564, Note_off_c, 0, 87, 100
2, 29568, Note_on_c, 0, 88, 110
2, 30044, Note_off_c, 0, 88, 100
2, 30048, Note_on_c, 0, 87, 110
2, 30140, Note_off_c, 0, 87, 100
2, 30144, Note_on_c, 0, 86, 110
2, 30236, Note_off_c, 0, 86, 100
2, 30240, Note_on_c, 0, 85, 110
2, 30332, Note_off_c, 0, 85, 100
2, 30336, Note_on_c, 0, 83, 110
2, 30812, Note_off_c, 0, 83, 100
2, 30816, Note_on_c, 0, 85, 110
2, 30908, Note_off_c, 0, 85, 100
2, 30912, Note_on_c, 0, 86, 110
2, 31004, Note_off_c, 0, 86, 100
2, 31008, Note_on_c, 0, 80, 110
2, 31100, Note_off_c, 0, 80, 100
2, 31104, Note_on_c, 0, 81, 110
2, 31580, Note_off_c, 0, 81, 100
2, 31584, Note_on_c, 0, 84, 110
2, 31676, Note_off_c, 0, 84, 100
2, 31680, Note_on_c, 0, 85, 110
2, 31772, Note_off_c, 0, 85, 100
2, 31776, Note_on_c, 0, 75, 110
2, 31868, Note_off_c, 0, 75, 100
2, 31872, Note_on_c, 0, 76, 110
2, 31964, Note_off_c, 0, 76, 100
2, 31968, Note_on_c, 0, 80, 110
2, 32060, Note_off_c, 0, 80, 100
2, 32064, Note_on_c, 0, 81, 110
2, 32156, Note_off_c, 0, 81, 100
2, 32160, Note_on_c, 0, 76, 110
2, 32252, Note_off_c, 0, 76, 100
2, 32256, Note_on_c, 0, 74, 110
2, 32348, Note_off_c, 0, 74, 100
2, 32352, Note_on_c, 0, 73, 110
2, 32444, Note_off_c, 0, 73, 100
2, 32448, Note_on_c, 0, 71, 110
2, 32540, Note_off_c, 0, 71, 100
2, 32544, Note_on_c, 0, 69, 110
2, 32636, Note_off_c, 0, 69, 100
2, 32640, Note_on_c, 0, 64, 80
2, 33116, Note_off_c, 0, 64, 100
2, 33120, Note_on_c, 0, 65, 80
2, 33212, Note_off_c, 0, 65, 100
2, 33216, Note_on_c, 0, 66, 80
2, 33308, Note_off_c, 0, 66, 100
2, 33312, Note_on_c, 0, 67, 80
2, 33404, Note_off_c, 0, 67, 100
2, 33408, Note_on_c, 0, 68, 80
2, 33884, Note_off_c, 0, 68, 100
2, 33888, Note_on_c, 0, 69, 80
2, 33980, Note_off_c, 0, 69, 100
2, 33984, Note_on_c, 0, 70, 80
2, 34076, Note_off_c, 0, 70, 100
2, 34080, Note_on_c, 0, 71, 80
2, 34172, Note_off_c, 0, 71, 100
2, 34176, Note_on_c, 0, 72, 80
2, 34268, Note_off_c, 0, 72, 100
2, 34272, Note_on_c, 0, 73, 81
2, 34364, Note_off_c, 0, 73, 100
2, 34368, Note_on_c, 0, 74, 83
2, 34460, Note_off_c, 0, 74, 100
2, 34464, Note_on_c, 0, 75, 85
2, 34556, Note_off_c, 0, 75, 100
2, 34560, Note_on_c, 0, 76, 87
2, 34652, Note_off_c, 0, 76, 100
2, 34656, Note_on_c, 0, 77, 89
2, 34748, Note_off_c, 0, 77, 100
2, 34752, Note_on_c, 0, 78, 91
2, 34844, Note_off_c, 0, 78, 100
2, 34848, Note_on_c, 0, 79, 93
2, 34940, Note_off_c, 0, 79, 100
2, 34944, Note_on_c, 0, 80, 95
2, 35036, Note_off_c, 0, 80, 100
2, 35040, Note_on_c, 0, 81, 97
2, 35132, Note_off_c, 0, 81, 100
2, 35136, Note_on_c, 0, 82, 99
2, 35228, Note_off_c, 0, 82, 100
2, 35232, Note_on_c, 0, 83, 101
2, 35324, Note_off_c, 0, 83, 100
2, 35328, Note_on_c, 0, 84, 103
2, 35420, Note_off_c, 0, 84, 100
2, 35424, Note_on_c, 0, 85, 105
2, 35516, Note_off_c, 0, 85, 100
2, 35520, Note_on_c, 0, 86, 107
2, 35612, Note_off_c, 0, 86, 100
2, 35616, Note_on_c, 0, 87, 109
2, 35708, Note_off_c, 0, 87, 100
2, 35712, Note_on_c, 0, 88, 120
2, 36284, Note_off_c, 0, 88, 100
2, 36288, Note_on_c, 0, 86, 120
2, 36380, Note_off_c, 0, 86, 100
2, 36384, Note_on_c, 0, 85, 120
2, 36476, Note_off_c, 0, 85, 100
2, 36480, Note_on_c, 0, 83, 120
2, 36572, Note_off_c, 0, 83, 100
2, 36576, Note_on_c, 0, 81, 120
2, 36668, Note_off_c, 0, 81, 100
2, 36672, Note_on_c, 0, 80, 120
2, 36764, Note_off_c, 0, 80, 100
2, 36768, Note_on_c, 0, 81, 120
2, 36860, Note_off_c, 0, 81, 100
2, 36864, Note_on_c, 0, 78, 120
2, 36956, Note_off_c, 0, 78, 100
2, 36960, Note_on_c, 0, 79, 120
2, 37052, Note_off_c, 0, 79, 100
2, 37056, Note_on_c, 0, 76, 120
2, 37148, Note_off_c, 0, 76, 100
2, 37152, Note_on_c, 0, 73, 120
2, 37244, Note_off_c, 0, 73, 100
2, 37248, Note_on_c, 0, 67, 120
2, 40124, Note_off_c, 0, 67, 100
2, 40128, Note_on_c, 0, 66, 80
2, 40128, Note_on_c, 0, 57, 80
2, 40128, Note_on_c, 0, 62, 80
2, 40316, Note_off_c, 0, 66, 100
2, 40316, Note_off_c, 0, 57, 100
2, 40320, Note_on_c, 0, 67, 80
2, 40320, Note_on_c, 0, 59, 80
2, 40508, Note_off_c, 0, 67, 100
2, 40512, Note_on_c, 0, 71, 80
2, 40700, Note_off_c, 0, 62, 100
2, 40700, Note_off_c, 0, 59, 100
2, 40700, Note_off_c, 0, 71, 100
2, 41664, Note_on_c, 0, 66, 80
2, 41664, Note_on_c, 0, 57, 80
2, 41664, Note_on_c, 0, 62, 80
2, 41852, Note_off_c, 0, 66, 100
2, 41852, Note_off_c, 0, 57, 100
2, 41856, Note_on_c, 0, 67, 80
2, 41856, Note_on_c, 0, 59, 80
2, 42044, Note_off_c, 0, 67, 100
2, 42048, Note_on_c, 0, 71, 80
2, 42236, Note_off_c, 0, 62, 100
2, 42236, Note_off_c, 0, 59, 100
2, 42236, Note_off_c, 0, 71, 100
2, 43200, Note_on_c, 0, 71, 80
2, 43388, Note_off_c, 0, 71, 100
2, 43392, Note_on_c, 0, 69, 80
2, 43580, Note_off_c, 0, 69, 100
2, 43584, Note_on_c, 0, 74, 83
2, 43772, Note_off_c, 0, 74, 100
2, 43776, Note_on_c, 0, 73, 87
2, 43964, Note_off_c, 0, 73, 100
2, 43968, Note_on_c, 0, 79, 91
2, 44156, Note_off_c, 0, 79, 100
2, 44160, Note_on_c, 0, 78, 94
2, 44348, Note_off_c, 0, 78, 100
2, 44352, Note_on_c, 0, 83, 98
2, 44540, Note_off_c, 0, 83, 100
2, 44544, Note_on_c, 0, 81, 102
2, 44732, Note_off_c, 0, 81, 100
2, 44736, Note_on_c, 0, 88, 106
2, 45020, Note_off_c, 0, 88, 100
2, 45024, Note_on_c, 0, 86, 99
2, 45116, Note_off_c, 0, 86, 100
2, 45120, Note_on_c, 0, 85, 98
2, 45212, Note_off_c, 0, 85, 100
2, 45216, Note_on_c, 0, 83, 97
2, 45308, Note_off_c, 0, 83, 100
2, 45312, Note_on_c, 0, 81, 96
2, 45404, Note_off_c, 0, 81, 100
2, 45408, Note_on_c, 0, 80, 94
2, 45500, Note_off_c, 0, 80, 100
2, 45504, Note_on_c, 0, 86, 93
2, 45596, Note_off_c, 0, 86, 100
2, 45600, Note_on_c, 0, 80, 92
2, 45692, Note_off_c, 0, 80, 100
2, 45696, Note_on_c, 0, 83, 91
2, 46556, Note_off_c, 0, 83, 100
2, 46560, Note_on_c, 0, 85, 80
2, 46652, Note_off_c, 0, 85, 100
2, 46656, Note_on_c, 0, 83, 80
2, 46748, Note_off_c, 0, 83, 100
2, 46752, Note_on_c, 0, 82, 80
2, 46844, Note_off_c, 0, 82, 100
2, 46848, Note_on_c, 0, 83, 80
2, 47036, Note_off_c, 0, 83, 100
2, 47040, Note_on_c, 0, 85, 80
2, 47228, Note_off_c, 0, 85, 100
2, 47232, Note_on_c, 0, 81, 80
2, 47804, Note_off_c, 0, 81, 100
2, 47808, Note_on_c, 0, 66, 80
2, 47808, Note_on_c, 0, 57, 80
2, 47808, Note_on_c, 0, 62, 80
2, 47996, Note_off_c, 0, 66, 100
2, 47996, Note_off_c, 0, 57, 100
2, 48000, Note_on_c, 0, 67, 80
2, 48000, Note_on_c, 0, 59, 80
2, 48188, Note_off_c, 0, 62, 100
2, 48188, Note_off_c, 0, 67, 100
2, 48192, Note_on_c, 0, 71, 80
2, 48380, Note_off_c, 0, 59, 100
2, 48380, Note_off_c, 0, 71, 100
2, 48576, Note_on_c, 0, 66, 80
2, 48576, Note_on_c, 0, 61, 80
2, 48576, Note_on_c, 0, 70, 80
2, 48764, Note_off_c, 0, 61, 100
2, 48764, Note_off_c, 0, 70, 100
2, 48768, Note_on_c, 0, 71, 84
2, 48768, Note_on_c, 0, 62, 84
2, 48956, Note_off_c, 0, 71, 100
2, 48960, Note_on_c, 0, 74, 89
2, 49148, Note_off_c, 0, 66, 100
2, 49148, Note_off_c, 0, 62, 100
2, 49148, Note_off_c, 0, 74, 100
2, 49344, Note_on_c, 0, 73, 99
2, 49344, Note_on_c, 0, 64, 99
2, 49344, Note_on_c, 0, 69, 99
2, 49532, Note_off_c, 0, 73, 100
2, 49532, Note_off_c, 0, 64, 100
2, 49536, Note_on_c, 0, 74, 104
2, 49536, Note_on_c, 0, 66, 104
2, 49724, Note_off_c, 0, 74, 100
2, 49728, Note_on_c, 0, 78, 109
2, 49916, Note_off_c, 0, 69, 100
2, 49916, Note_off_c, 0, 66, 100
2, 49916, Note_off_c, 0, 78, 100
2, 50112, Note_on_c, 0, 71, 80
2, 50300, Note_off_c, 0, 71, 100
2, 50304, Note_on_c, 0, 62, 80
2, 50684, Note_off_c, 0, 62, 100
2, 50688, Note_on_c, 0, 61, 80
2, 50688, Note_on_c, 0, 66, 80
2, 50732, Note_off_c, 0, 66, 100
2, 50736, Note_on_c, 0, 64, 80
2, 50972, Note_off_c, 0, 64, 100
2, 50976, Note_on_c, 0, 62, 80
2, 51068, Note_off_c, 0, 61, 100
2, 51068, Note_off_c, 0, 62, 100
2, 51072, Note_on_c, 0, 62, 80
2, 51452, Note_off_c, 0, 62, 100
2, 52416, Note_on_c, 0, 78, 120
2, 52416, Note_on_c, 0, 75, 120
2, 52604, Note_off_c, 0, 78, 100
2, 52604, Note_off_c, 0, 75, 100
2, 52608, Note_on_c, 0, 76, 120
2, 52608, Note_on_c, 0, 79, 120
2, 52796, Note_off_c, 0, 76, 100
2, 52796, Note_off_c, 0, 79, 100
2, 52800, Note_on_c, 0, 79, 120
2, 52800, Note_on_c, 0, 83, 120
2, 52988, Note_off_c, 0, 79, 100
2, 52988, Note_off_c, 0, 83, 100
2, 53184, Note_on_c, 0, 71, 80
2, 53372, Note_off_c, 0, 71, 100
2, 53376, Note_on_c, 0, 62, 80
2, 53756, Note_off_c, 0, 62, 100
2, 53760, Note_on_c, 0, 61, 80
2, 53760, Note_on_c, 0, 66, 80
2, 53804, Note_off_c, 0, 66, 100
2, 53808, Note_on_c, 0, 64, 80
2, 54044, Note_off_c, 0, 64, 100
2, 54048, Note_on_c, 0, 62, 80
2, 54140, Note_off_c, 0, 61, 100
2, 54140, Note_off_c, 0, 62, 100
2, 54144, Note_on_c, 0, 62, 120
2, 54144, Note_on_c, 0, 58, 120
2, 54144, Note_on_c, 0, 53, 120
2, 54144, Note_on_c, 0, 50, 120
2, 55100, Note_off_c, 0, 62, 100
2, 55100, Note_off_c, 0, 58, 100
2, 55100, Note_off_c, 0, 53, 100
2, 55100, Note_off_c, 0, 50, 100
2, 55104, Note_on_c, 0, 53, 120
2, 55104, Note_on_c, 0, 65, 120
2, 55292, Note_off_c, 0, 65, 100
2, 55296, Note_on_c, 0, 62, 120
2, 55484, Note_off_c, 0, 62, 100
2, 55488, Note_on_c, 0, 58, 120
2, 55676, Note_off_c, 0, 53, 100
2, 55676, Note_off_c, 0, 58, 100
2, 55872, Note_on_c, 0, 62, 120
2, 55872, Note_on_c, 0, 74, 120
2, 56060, Note_off_c, 0, 74, 100
2, 56064, Note_on_c, 0, 70, 120
2, 56252, Note_off_c, 0, 70, 100
2, 56256, Note_on_c, 0, 65, 120
2, 56444, Note_off_c, 0, 62, 100
2, 56444, Note_off_c, 0, 65, 100
2, 56640, Note_on_c, 0, 65, 120
2, 56640, Note_on_c, 0, 77, 120
2, 56828, Note_off_c, 0, 77, 100
2, 56832, Note_on_c, 0, 74, 120
2, 57020, Note_off_c, 0, 74, 100
2, 57024, Note_on_c, 0, 70, 120
2, 57212, Note_off_c, 0, 65, 100
2, 57212, Note_off_c, 0, 70, 100
2, 57216, Key_signature, 0, "major"
2, 57408, Note_on_c, 0, 89, 115
2, 57788, Note_off_c, 0, 89, 100
2, 57792, Note_on_c, 0, 86, 80
2, 57884, Note_off_c, 0, 86, 100
2, 57888, Note_on_c, 0, 82, 80
2, 57980, Note_off_c, 0, 82, 100
2, 57984, Note_on_c, 0, 77, 80
2, 58076, Note_off_c, 0, 77, 100
2, 58176, Note_on_c, 0, 74, 80
2, 58268, Note_off_c, 0, 74, 100
2, 58368, Note_on_c, 0, 70, 80
2, 58460, Note_off_c, 0, 70, 100
2, 58560, Note_on_c, 0, 65, 80
2, 58652, Note_off_c, 0, 65, 100
2, 58752, Note_on_c, 0, 62, 80
2, 58844, Note_off_c, 0, 62, 100
2, 58944, Note_on_c, 0, 58, 80
2, 59036, Note_off_c, 0, 58, 100
2, 59136, Note_on_c, 0, 57, 80
2, 59228, Note_off_c, 0, 57, 100
2, 59328, Note_on_c, 0, 69, 80
2, 59420, Note_off_c, 0, 69, 100
2, 59520, Note_on_c, 0, 60, 80
2, 59612, Note_off_c, 0, 60, 100
2, 59712, Note_on_c, 0, 72, 80
2, 59804, Note_off_c, 0, 72, 100
2, 59904, Note_on_c, 0, 63, 80
2, 59996, Note_off_c, 0, 63, 100
2, 60096, Note_on_c, 0, 75, 80
2, 60188, Note_off_c, 0, 75, 100
2, 60288, Note_on_c, 0, 74, 80
2, 60476, Note_off_c, 0, 74, 100
2, 60480, Note_on_c, 0, 86, 111
2, 60860, Note_off_c, 0, 86, 100
2, 60864, Note_on_c, 0, 82, 84
2, 60956, Note_off_c, 0, 82, 100
2, 60960, Note_on_c, 0, 79, 80
2, 61052, Note_off_c, 0, 79, 100
2, 61056, Note_on_c, 0, 74, 80
2, 61148, Note_off_c, 0, 74, 100
2, 61248, Note_on_c, 0, 70, 80
2, 61340, Note_off_c, 0, 70, 100
2, 61440, Note_on_c, 0, 67, 80
2, 61532, Note_off_c, 0, 67, 100
2, 61632, Note_on_c, 0, 62, 80
2, 61724, Note_off_c, 0, 62, 100
2, 61824, Note_on_c, 0, 58, 80
2, 61916, Note_off_c, 0, 58, 100
2, 62016, Note_on_c, 0, 55, 80
2, 62108, Note_off_c, 0, 55, 100
2, 62208, Note_on_c, 0, 54, 80
2, 62300, Note_off_c, 0, 54, 100
2, 62400, Note_on_c, 0, 66, 80
2, 62492, Note_off_c, 0, 66, 100
2, 62592, Note_on_c, 0, 57, 80
2, 62684, Note_off_c, 0, 57, 100
2, 62784, Note_on_c, 0, 69, 80
2, 62876, Note_off_c, 0, 69, 100
2, 62976, Note_on_c, 0, 60, 80
2, 63068, Note_off_c, 0, 60, 100
2, 63168, Note_on_c, 0, 72, 80
2, 63260, Note_off_c, 0, 72, 100
2, 63360, Note_on_c, 0, 70, 80
2, 63548, Note_off_c, 0, 70, 100
2, 63552, Note_on_c, 0, 82, 111
2, 63932, Note_off_c, 0, 82, 100
2, 63936, Note_on_c, 0, 79, 80
2, 64028, Note_off_c, 0, 79, 100
2, 64032, Note_on_c, 0, 75, 80
2, 64124, Note_off_c, 0, 75, 100
2, 64128, Note_on_c, 0, 70, 80
2, 64220, Note_off_c, 0, 70, 100
2, 64320, Note_on_c, 0, 67, 80
2, 64412, Note_off_c, 0, 67, 100
2, 64512, Note_on_c, 0, 63, 80
2, 64604, Note_off_c, 0, 63, 100
2, 64704, Note_on_c, 0, 58, 80
2, 64796, Note_off_c, 0, 58, 100
2, 64896, Note_on_c, 0, 55, 80
2, 64988, Note_off_c, 0, 55, 100
2, 65088, Note_on_c, 0, 51, 80
2, 65180, Note_off_c, 0, 51, 100
2, 65280, Note_on_c, 0, 50, 80
2, 65372, Note_off_c, 0, 50, 100
2, 65472, Note_on_c, 0, 62, 80
2, 65564, Note_off_c, 0, 62, 100
2, 65664, Note_on_c, 0, 53, 80
2, 65756, Note_off_c, 0, 53, 100
2, 65856, Note_on_c, 0, 65, 80
2, 65948, Note_off_c, 0, 65, 100
2, 66048, Note_on_c, 0, 56, 80
2, 66140, Note_off_c, 0, 56, 100
2, 66240, Note_on_c, 0, 68, 80
2, 66332, Note_off_c, 0, 68, 100
2, 66624, Note_on_c, 0, 51, 120
2, 66908, Note_off_c, 0, 51, 100
2, 66912, Note_on_c, 0, 55, 120
2, 67004, Note_off_c, 0, 55, 100
2, 67008, Note_on_c, 0, 58, 120
2, 67100, Note_off_c, 0, 58, 100
2, 67104, Note_on_c, 0, 56, 120
2, 67196, Note_off_c, 0, 56, 100
2, 67200, Note_on_c, 0, 55, 120
2, 67292, Note_off_c, 0, 55, 100
2, 67296, Note_on_c, 0, 58, 120
2, 67388, Note_off_c, 0, 58, 100
2, 67392, Note_on_c, 0, 63, 120
2, 67484, Note_off_c, 0, 63, 100
2, 67488, Note_on_c, 0, 62, 120
2, 67580, Note_off_c, 0, 62, 100
2, 67584, Note_on_c, 0, 63, 120
2, 67676, Note_off_c, 0, 63, 100
2, 67680, Note_on_c, 0, 58, 120
2, 67772, Note_off_c, 0, 58, 100
2, 67776, Note_on_c, 0, 67, 120
2, 67868, Note_off_c, 0, 67, 100
2, 67872, Note_on_c, 0, 65, 120
2, 67964, Note_off_c, 0, 65, 100
2, 67968, Note_on_c, 0, 63, 120
2, 68060, Note_off_c, 0, 63, 100
2, 68064, Note_on_c, 0, 67, 120
2, 68156, Note_off_c, 0, 67, 100
2, 68160, Note_on_c, 0, 70, 120
2, 68252, Note_off_c, 0, 70, 100
2, 68256, Note_on_c, 0, 68, 120
2, 68348, Note_off_c, 0, 68, 100
2, 68352, Note_on_c, 0, 67, 120
2, 68444, Note_off_c, 0, 67, 100
2, 68448, Note_on_c, 0, 70, 120
2, 68540, Note_off_c, 0, 70, 100
2, 68544, Note_on_c, 0, 75, 120
2, 68636, Note_off_c, 0, 75, 100
2, 68640, Note_on_c, 0, 74, 120
2, 68732, Note_off_c, 0, 74, 100
2, 68736, Note_on_c, 0, 75, 120
2, 68828, Note_off_c, 0, 75, 100
2, 68832, Note_on_c, 0, 70, 120
2, 68924, Note_off_c, 0, 70, 100
2, 68928, Note_on_c, 0, 79, 120
2, 69020, Note_off_c, 0, 79, 100
2, 69024, Note_on_c, 0, 77, 120
2, 69116, Note_off_c, 0, 77, 100
2, 69120, Note_on_c, 0, 75, 120
2, 69212, Note_off_c, 0, 75, 100
2, 69216, Note_on_c, 0, 79, 120
2, 69308, Note_off_c, 0, 79, 100
2, 69312, Note_on_c, 0, 82, 120
2, 69404, Note_off_c, 0, 82, 100
2, 69408, Note_on_c, 0, 80, 120
2, 69500, Note_off_c, 0, 80, 100
2, 69504, Note_on_c, 0, 79, 120
2, 69596, Note_off_c, 0, 79, 100
2, 69600, Note_on_c, 0, 75, 120
2, 69692, Note_off_c, 0, 75, 100
2, 69696, Note_on_c, 0, 82, 120
2, 69788, Note_off_c, 0, 82, 100
2, 69792, Note_on_c, 0, 80, 120
2, 69884, Note_off_c, 0, 80, 100
2, 69888, Note_on_c, 0, 79, 120
2, 69980, Note_off_c, 0, 79, 100
2, 69984, Note_on_c, 0, 75, 120
2, 70076, Note_off_c, 0, 75, 100
2, 70080, Note_on_c, 0, 82, 120
2, 70172, Note_off_c, 0, 82, 100
2, 70176, Note_on_c, 0, 80, 120
2, 70268, Note_off_c, 0, 80, 100
2, 70272, Note_on_c, 0, 79, 110
2, 70364, Note_off_c, 0, 79, 100
2, 70368, Note_on_c, 0, 75, 109
2, 70460, Note_off_c, 0, 75, 100
2, 70464, Note_on_c, 0, 82, 107
2, 70556, Note_off_c, 0, 82, 100
2, 70560, Note_on_c, 0, 80, 105
2, 70652, Note_off_c, 0, 80, 100
2, 70656, Note_on_c, 0, 79, 104
2, 70748, Note_off_c, 0, 79, 100
2, 70752, Note_on_c, 0, 75, 102
2, 70844, Note_off_c, 0, 75, 100
2, 70848, Note_on_c, 0, 82, 100
2, 70940, Note_off_c, 0, 82, 100
2, 70944, Note_on_c, 0, 80, 98
2, 71036, Note_off_c, 0, 80, 100
2, 71040, Note_on_c, 0, 79, 97
2, 71132, Note_off_c, 0, 79, 100
2, 71136, Note_on_c, 0, 73, 95
2, 71228, Note_off_c, 0, 73, 100
2, 71232, Note_on_c, 0, 85, 93
2, 71324, Note_off_c, 0, 85, 100
2, 71328, Note_on_c, 0, 84, 91
2, 71420, Note_off_c, 0, 84, 100
2, 71424, Note_on_c, 0, 82, 90
2, 71516, Note_off_c, 0, 82, 100
2, 71520, Note_on_c, 0, 73, 88
2, 71612, Note_off_c, 0, 73, 100
2, 71616, Note_on_c, 0, 85, 86
2, 71708, Note_off_c, 0, 85, 100
2, 71712, Note_on_c, 0, 84, 84
2, 71804, Note_off_c, 0, 84, 100
2, 71808, Note_on_c, 0, 82, 83
2, 71900, Note_off_c, 0, 82, 100
2, 71904, Note_on_c, 0, 73, 81
2, 71996, Note_off_c, 0, 73, 100
2, 72000, Note_on_c, 0, 85, 79
2, 72092, Note_off_c, 0, 85, 100
2, 72096, Note_on_c, 0, 84, 78
2, 72188, Note_off_c, 0, 84, 100
2, 72192, Note_on_c, 0, 82, 76
2, 72284, Note_off_c, 0, 82, 100
2, 72288, Note_on_c, 0, 73, 74
2, 72380, Note_off_c, 0, 73, 100
2, 72384, Note_on_c, 0, 85, 72
2, 72476, Note_off_c, 0, 85, 100
2, 72480, Note_on_c, 0, 84, 71
2, 72572, Note_off_c, 0, 84, 100
2, 72576, Note_on_c, 0, 82, 70
2, 75260, Note_off_c, 0, 82, 100
2, 75456, Note_on_c, 0, 69, 80
2, 75456, Note_on_c, 0, 60, 80
2, 75456, Note_on_c, 0, 65, 80
2, 75644, Note_off_c, 0, 69, 100
2, 75644, Note_off_c, 0, 60, 100
2, 75648, Note_on_c, 0, 62, 80
2, 75648, Note_on_c, 0, 70, 80
2, 75836, Note_off_c, 0, 70, 100
2, 75840, Note_on_c, 0, 74, 80
2, 76028, Note_off_c, 0, 65, 100
2, 76028, Note_off_c, 0, 62, 100
2, 76028, Note_off_c, 0, 74, 100
2, 76992, Note_on_c, 0, 69, 80
2, 76992, Note_on_c, 0, 60, 80
2, 76992, Note_on_c, 0, 65, 80
2, 77180, Note_off_c, 0, 69, 100
2, 77180, Note_off_c, 0, 60, 100
2, 77184, Note_on_c, 0, 62, 80
2, 77184, Note_on_c, 0, 70, 80
2, 77372, Note_off_c, 0, 70, 100
2, 77376, Note_on_c, 0, 74, 80
2, 77564, Note_off_c, 0, 65, 100
2, 77564, Note_off_c, 0, 62, 100
2, 77564, Note_off_c, 0, 74, 100
2, 78528, Note_on_c, 0, 74, 80
2, 78716, Note_off_c, 0, 74, 100
2, 78720, Note_on_c, 0, 72, 83
2, 78908, Note_off_c, 0, 72, 100
2, 78912, Note_on_c, 0, 77, 86
2, 79100, Note_off_c, 0, 77, 100
2, 79104, Note_on_c, 0, 76, 89
2, 79292, Note_off_c, 0, 76, 100
2, 79296, Note_on_c, 0, 82, 93
2, 79484, Note_off_c, 0, 82, 100
2, 79488, Note_on_c, 0, 81, 96
2, 79780, Note_off_c, 0, 81, 100
2, 79784, Note_on_c, 0, 86, 101
2, 79784, Note_on_c, 0, 74, 101
2, 81008, Note_off_c, 0, 74, 100
2, 81008, Note_off_c, 0, 86, 100
2, 81024, Note_on_c, 0, 73, 80
2, 81024, Note_on_c, 0, 85, 80
2, 81788, Note_off_c, 0, 73, 100
2, 81788, Note_off_c, 0, 85, 100
2, 83136, Note_on_c, 0, 46, 80
2, 83324, Note_off_c, 0, 46, 100
2, 83328, Note_on_c, 0, 45, 80
2, 83516, Note_off_c, 0, 45, 100
2, 83520, Note_on_c, 0, 50, 80
2, 83708, Note_off_c, 0, 50, 100
2, 83712, Note_on_c, 0, 49, 80
2, 83900, Note_off_c, 0, 49, 100
2, 83904, Note_on_c, 0, 55, 80
2, 84092, Note_off_c, 0, 55, 100
2, 84096, Note_on_c, 0, 53, 80
2, 84284, Note_off_c, 0, 53, 100
2, 84288, Note_on_c, 0, 58, 80
2, 84476, Note_off_c, 0, 58, 100
2, 84480, Note_on_c, 0, 57, 80
2, 84668, Note_off_c, 0, 57, 100
2, 84672, Note_on_c, 0, 62, 80
2, 84860, Note_off_c, 0, 62, 100
2, 84864, Note_on_c, 0, 61, 80
2, 85052, Note_off_c, 0, 61, 100
2, 85056, Note_on_c, 0, 67, 80
2, 85244, Note_off_c, 0, 67, 100
2, 85248, Note_on_c, 0, 65, 80
2, 85436, Note_off_c, 0, 65, 100
2, 85440, Note_on_c, 0, 70, 80
2, 85628, Note_off_c, 0, 70, 100
2, 85632, Note_on_c, 0, 69, 80
2, 85820, Note_off_c, 0, 69, 100
2, 85824, Note_on_c, 0, 74, 80
2, 86012, Note_off_c, 0, 74, 100
2, 86016, Note_on_c, 0, 73, 80
2, 86204, Note_off_c, 0, 73, 100
2, 86208, Note_on_c, 0, 79, 80
2, 86396, Note_off_c, 0, 79, 100
2, 86400, Note_on_c, 0, 78, 80
2, 86588, Note_off_c, 0, 78, 100
2, 86592, Note_on_c, 0, 69, 80
2, 86780, Note_off_c, 0, 69, 100
2, 86784, Note_on_c, 0, 68, 80
2, 86972, Note_off_c, 0, 68, 100
2, 86976, Note_on_c, 0, 77, 80
2, 87164, Note_off_c, 0, 77, 100
2, 87168, Note_on_c, 0, 76, 80
2, 87356, Note_off_c, 0, 76, 100
2, 87360, Note_on_c, 0, 67, 80
2, 87548, Note_off_c, 0, 67, 100
2, 87552, Note_on_c, 0, 66, 80
2, 87740, Note_off_c, 0, 66, 100
2, 87744, Note_on_c, 0, 75, 80
2, 87932, Note_off_c, 0, 75, 100
2, 87936, Note_on_c, 0, 74, 80
2, 88124, Note_off_c, 0, 74, 100
2, 88128, Note_on_c, 0, 65, 80
2, 88316, Note_off_c, 0, 65, 100
2, 88320, Note_on_c, 0, 64, 80
2, 88508, Note_off_c, 0, 64, 100
2, 88512, Note_on_c, 0, 73, 80
2, 88700, Note_off_c, 0, 73, 100
2, 88704, Note_on_c, 0, 63, 80
2, 88892, Note_off_c, 0, 63, 100
2, 88896, Note_on_c, 0, 72, 80
2, 89084, Note_off_c, 0, 72, 100
2, 89088, Note_on_c, 0, 62, 80
2, 89276, Note_off_c, 0, 62, 100
2, 89280, Note_on_c, 0, 71, 80
2, 89468, Note_off_c, 0, 71, 100
2, 89472, Note_on_c, 0, 61, 80
2, 89660, Note_off_c, 0, 61, 100
2, 89664, Note_on_c, 0, 70, 83
2, 89852, Note_off_c, 0, 70, 100
2, 89856, Note_on_c, 0, 60, 87
2, 90044, Note_off_c, 0, 60, 100
2, 90048, Note_on_c, 0, 69, 91
2, 90236, Note_off_c, 0, 69, 100
2, 90240, Note_on_c, 0, 59, 94
2, 90428, Note_off_c, 0, 59, 100
2, 90432, Note_on_c, 0, 68, 98
2, 90620, Note_off_c, 0, 68, 100
2, 90624, Note_on_c, 0, 58, 102
2, 90812, Note_off_c, 0, 58, 100
2, 90816, Note_on_c, 0, 62, 106
2, 90816, Note_on_c, 0, 67, 106
2, 91004, Note_off_c, 0, 62, 100
2, 91004, Note_off_c, 0, 67, 100
2, 91008, Note_on_c, 0, 67, 109
2, 91008, Note_on_c, 0, 57, 109
2, 91008, Note_on_c, 0, 62, 109
2, 92156, Note_off_c, 0, 62, 100
2, 92160, Note_on_c, 0, 61, 80
2, 93692, Note_off_c, 0, 57, 100
2, 93692, Note_off_c, 0, 61, 100
2, 93692, Note_off_c, 0, 67, 100
2, 93888, Note_on_c, 0, 66, 80
2, 93888, Note_on_c, 0, 57, 80
2, 93888, Note_on_c, 0, 62, 80
2, 94076, Note_off_c, 0, 66, 100
2, 94076, Note_off_c, 0, 57, 100
2, 94080, Key_signature, 2, "major"
2, 94080, Note_on_c, 0, 67, 80
2, 94080, Note_on_c, 0, 59, 80
2, 94268, Note_off_c, 0, 67, 100
2, 94272, Note_on_c, 0, 71, 80
2, 94460, Note_off_c, 0, 62, 100
2, 94460, Note_off_c, 0, 59, 100
2, 94460, Note_off_c, 0, 71, 100
2, 95424, Note_on_c, 0, 66, 80
2, 95424, Note_on_c, 0, 57, 80
2, 95424, Note_on_c, 0, 62, 80
2, 95612, Note_off_c, 0, 66, 100
2, 95612, Note_off_c, 0, 57, 100
2, 95616, Note_on_c, 0, 67, 80
2, 95616, Note_on_c, 0, 59, 80
2, 95804, Note_off_c, 0, 67, 100
2, 95808, Note_on_c, 0, 71, 80
2, 95996, Note_off_c, 0, 62, 100
2, 95996, Note_off_c, 0, 59, 100
2, 95996, Note_off_c, 0, 71, 100
2, 96960, Note_on_c, 0, 71, 80
2, 97148, Note_off_c, 0, 71, 100
2, 97152, Note_on_c, 0, 69, 80
2, 97340, Note_off_c, 0, 69, 100
2, 97344, Note_on_c, 0, 74, 83
2, 97532, Note_off_c, 0, 74, 100
2, 97536, Note_on_c, 0, 73, 87
2, 97724, Note_off_c, 0, 73, 100
2, 97728, Note_on_c, 0, 79, 91
2, 97916, Note_off_c, 0, 79, 100
2, 97920, Note_on_c, 0, 78, 94
2, 98108, Note_off_c, 0, 78, 100
2, 98112, Note_on_c, 0, 83, 98
2, 98300, Note_off_c, 0, 83, 100
2, 98304, Note_on_c, 0, 81, 102
2, 98492, Note_off_c, 0, 81, 100
2, 98496, Note_on_c, 0, 88, 106
2, 98780, Note_off_c, 0, 88, 100
2, 98784, Note_on_c, 0, 86, 109
2, 98876, Note_off_c, 0, 86, 100
2, 98880, Note_on_c, 0, 85, 107
2, 98972, Note_off_c, 0, 85, 100
2, 98976, Note_on_c, 0, 83, 105
2, 99068, Note_off_c, 0, 83, 100
2, 99072, Note_on_c, 0, 81, 103
2, 99164, Note_off_c, 0, 81, 100
2, 99168, Note_on_c, 0, 80, 101
2, 99260, Note_off_c, 0, 80, 100
2, 99264, Note_on_c, 0, 86, 99
2, 99356, Note_off_c, 0, 86, 100
2, 99360, Note_on_c, 0, 80, 97
2, 99452, Note_off_c, 0, 80, 100
2, 99456, Note_on_c, 0, 83, 96
2, 100316, Note_off_c, 0, 83, 100
2, 100320, Note_on_c, 0, 85, 80
2, 100412, Note_off_c, 0, 85, 100
2, 100416, Note_on_c, 0, 83, 80
2, 100508, Note_off_c, 0, 83, 100
2, 100512, Note_on_c, 0, 82, 80
2, 100604, Note_off_c, 0, 82, 100
2, 100608, Note_on_c, 0, 83, 80
2, 100796, Note_off_c, 0, 83, 100
2, 100800, Note_on_c, 0, 85, 80
2, 100988, Note_off_c, 0, 85, 100
2, 100992, Note_on_c, 0, 81, 80
2, 101564, Note_off_c, 0, 81, 100
2, 101568, Note_on_c, 0, 66, 80
2, 101568, Note_on_c, 0, 57, 80
2, 101568, Note_on_c, 0, 62, 80
2, 101756, Note_off_c, 0, 66, 100
2, 101756, Note_off_c, 0, 57, 100
2, 101760, Note_on_c, 0, 67, 82
2, 101760, Note_on_c, 0, 59, 82
2, 101948, Note_off_c, 0, 62, 100
2, 101948, Note_off_c, 0, 67, 100
2, 101952, Note_on_c, 0, 71, 85
2, 102140, Note_off_c, 0, 59, 100
2, 102140, Note_off_c, 0, 71, 100
2, 102336, Note_on_c, 0, 66, 91
2, 102336, Note_on_c, 0, 61, 91
2, 102336, Note_on_c, 0, 70, 91
2, 102524, Note_off_c, 0, 61, 100
2, 102524, Note_off_c, 0, 70, 100
2, 102528, Note_on_c, 0, 71, 94
2, 102528, Note_on_c, 0, 62, 94
2, 102716, Note_off_c, 0, 71, 100
2, 102720, Note_on_c, 0, 74, 97
2, 102908, Note_off_c, 0, 66, 100
2, 102908, Note_off_c, 0, 62, 100
2, 102908, Note_off_c, 0, 74, 100
2, 103104, Note_on_c, 0, 73, 103
2, 103104, Note_on_c, 0, 64, 103
2, 103104, Note_on_c, 0, 69, 103
2, 103292, Note_off_c, 0, 73, 100
2, 103292, Note_off_c, 0, 64, 100
2, 103296, Note_on_c, 0, 74, 106
2, 103296, Note_on_c, 0, 66, 106
2, 103484, Note_off_c, 0, 74, 100
2, 103488, Note_on_c, 0, 78, 109
2, 103676, Note_off_c, 0, 69, 100
2, 103676, Note_off_c, 0, 66, 100
2, 103676, Note_off_c, 0, 78, 100
2, 103872, Note_on_c, 0, 71, 80
2, 104060, Note_off_c, 0, 71, 100
2, 104064, Note_on_c, 0, 62, 80
2, 104444, Note_off_c, 0, 62, 100
2, 104448, Note_on_c, 0, 61, 80
2, 104448, Note_on_c, 0, 66, 80
2, 104492, Note_off_c, 0, 66, 100
2, 104496, Note_on_c, 0, 64, 80
2, 104732, Note_off_c, 0, 64, 100
2, 104736, Note_on_c, 0, 62, 80
2, 104828, Note_off_c, 0, 61, 100
2, 104828, Note_off_c, 0, 62, 100
2, 104832, Note_on_c, 0, 62, 80
2, 105212, Note_off_c, 0, 62, 100
2, 106176, Note_on_c, 0, 78, 120
2, 106176, Note_on_c, 0, 75, 120
2, 106364, Note_off_c, 0, 78, 100
2, 106364, Note_off_c, 0, 75, 100
2, 106368, Note_on_c, 0, 76, 120
2, 106368, Note_on_c, 0, 79, 120
2, 106556, Note_off_c, 0, 76, 100
2, 106556, Note_off_c, 0, 79, 100
2, 106560, Note_on_c, 0, 79, 120
2, 106560, Note_on_c, 0, 83, 120
2, 106748, Note_off_c, 0, 79, 100
2, 106748, Note_off_c, 0, 83, 100
2, 106944, Note_on_c, 0, 71, 80
2, 107132, Note_off_c, 0, 71, 100
2, 107136, Note_on_c, 0, 62, 80
2, 107516, Note_off_c, 0, 62, 100
2, 107520, Note_on_c, 0, 61, 80
2, 107520, Note_on_c, 0, 66, 80
2, 107564, Note_off_c, 0, 66, 100
2, 107568, Note_on_c, 0, 64, 80
2, 107804, Note_off_c, 0, 64, 100
2, 107808, Note_on_c, 0, 62, 80
2, 107900, Note_off_c, 0, 61, 100
2, 107900, Note_off_c, 0, 62, 100
2, 107904, Note_on_c, 0, 62, 80
2, 108284, Note_off_c, 0, 62, 100
2, 109056, Note_on_c, 0, 79, 80
2, 109056, Note_on_c, 0, 67, 80
2, 109628, Note_off_c, 0, 67, 100
2, 109628, Note_off_c, 0, 79, 100
2, 109632, Note_on_c, 0, 78, 80
2, 109632, Note_on_c, 0, 66, 80
2, 109820, Note_off_c, 0, 78, 100
2, 109820, Note_off_c, 0, 66, 100
2, 109824, Note_on_c, 0, 79, 80
2, 109824, Note_on_c, 0, 67, 80
2, 110012, Note_off_c, 0, 79, 100
2, 110012, Note_off_c, 0, 67, 100
2, 110016, Note_on_c, 0, 81, 80
2, 110016, Note_on_c, 0, 69, 80
2, 110204, Note_off_c, 0, 81, 100
2, 110204, Note_off_c, 0, 69, 100
2, 110208, Note_on_c, 0, 83, 80
2, 110208, Note_on_c, 0, 71, 80
2, 110396, Note_off_c, 0, 83, 100
2, 110396, Note_off_c, 0, 71, 100
2, 110400, Note_on_c, 0, 83, 80
2, 110400, Note_on_c, 0, 71, 80
2, 110588, Note_off_c, 0, 83, 100
2, 110588, Note_off_c, 0, 71, 100
2, 110592, Note_on_c, 0, 85, 80
2, 110592, Note_on_c, 0, 73, 80
2, 110780, Note_off_c, 0, 85, 100
2, 110780, Note_off_c, 0, 73, 100
2, 110784, Note_on_c, 0, 86, 80
2, 110784, Note_on_c, 0, 74, 80
2, 110972, Note_off_c, 0, 86, 100
2, 110972, Note_off_c, 0, 74, 100
2, 110976, Note_on_c, 0, 74, 80
2, 110976, Note_on_c, 0, 86, 80
2, 111356, Note_off_c, 0, 74, 100
2, 111356, Note_off_c, 0, 86, 100
2, 111360, Note_on_c, 0, 81, 80
2, 111360, Note_on_c, 0, 69, 80
2, 111548, Note_off_c, 0, 81, 100
2, 111548, Note_off_c, 0, 69, 100
2, 112128, Note_on_c, 0, 67, 80
2, 112128, Note_on_c, 0, 55, 80
2, 112700, Note_off_c, 0, 55, 100
2, 112700, Note_off_c, 0, 67, 100
2, 112704, Note_on_c, 0, 66, 80
2, 112704, Note_on_c, 0, 54, 80
2, 112892, Note_off_c, 0, 66, 100
2, 112892, Note_off_c, 0, 54, 100
2, 112896, Note_on_c, 0, 67, 80
2, 112896, Note_on_c, 0, 55, 80
2, 113084, Note_off_c, 0, 67, 100
2, 113084, Note_off_c, 0, 55, 100
2, 113088, Note_on_c, 0, 69, 80
2, 113088, Note_on_c, 0, 57, 80
2, 113276, Note_off_c, 0, 69, 100
2, 113276, Note_off_c, 0, 57, 100
2, 113280, Note_on_c, 0, 70, 80
2, 113280, Note_on_c, 0, 58, 80
2, 113468, Note_off_c, 0, 70, 100
2, 113468, Note_off_c, 0, 58, 100
2, 113472, Note_on_c, 0, 71, 80
2, 113472, Note_on_c, 0, 59, 80
2, 113660, Note_off_c, 0, 71, 100
2, 113660, Note_off_c, 0, 59, 100
2, 113664, Note_on_c, 0, 74, 80
2, 113664, Note_on_c, 0, 62, 80
2, 113852, Note_off_c, 0, 74, 100
2, 113852, Note_off_c, 0, 62, 100
2, 113856, Note_on_c, 0, 72, 80
2, 113856, Note_on_c, 0, 60, 80
2, 114044, Note_off_c, 0, 72, 100
2, 114044, Note_off_c, 0, 60, 100
2, 114048, Note_on_c, 0, 71, 80
2, 114048, Note_on_c, 0, 59, 80
2, 114140, Note_off_c, 0, 71, 100
2, 114140, Note_off_c, 0, 59, 100
2, 114144, Note_on_c, 0, 79, 80
2, 114236, Note_off_c, 0, 79, 100
2, 114240, Note_on_c, 0, 78, 80
2, 114332, Note_off_c, 0, 78, 100
2, 114336, Note_on_c, 0, 79, 80
2, 114428, Note_off_c, 0, 79, 100
2, 114432, Note_on_c, 0, 81, 80
2, 114524, Note_off_c, 0, 81, 100
2, 114528, Note_on_c, 0, 79, 80
2, 114620, Note_off_c, 0, 79, 100
2, 114624, Note_on_c, 0, 78, 80
2, 114716, Note_off_c, 0, 78, 100
2, 114720, Note_on_c, 0, 79, 80
2, 114812, Note_off_c, 0, 79, 100
2, 114912, Note_on_c, 0, 79, 80
2, 115004, Note_off_c, 0, 79, 100
2, 115008, Note_on_c, 0, 78, 80
2, 115100, Note_off_c, 0, 78, 100
2, 115104, Note_on_c, 0, 79, 80
2, 115196, Note_off_c, 0, 79, 100
2, 115200, Note_on_c, 0, 81, 80
2, 115292, Note_off_c, 0, 81, 100
2, 115296, Note_on_c, 0, 79, 80
2, 115388, Note_off_c, 0, 79, 100
2, 115392, Note_on_c, 0, 78, 80
2, 115484, Note_off_c, 0, 78, 100
2, 115488, Note_on_c, 0, 79, 80
2, 115580, Note_off_c, 0, 79, 100
2, 115680, Note_on_c, 0, 79, 80
2, 115772, Note_off_c, 0, 79, 100
2, 115776, Note_on_c, 0, 78, 80
2, 115868, Note_off_c, 0, 78, 100
2, 115872, Note_on_c, 0, 79, 80
2, 115964, Note_off_c, 0, 79, 100
2, 115968, Note_on_c, 0, 81, 80
2, 116060, Note_off_c, 0, 81, 100
2, 116064, Note_on_c, 0, 79, 80
2, 116156, Note_off_c, 0, 79, 100
2, 116160, Note_on_c, 0, 78, 80
2, 116252, Note_off_c, 0, 78, 100
2, 116256, Note_on_c, 0, 79, 80
2, 116348, Note_off_c, 0, 79, 100
2, 116448, Note_on_c, 0, 79, 80
2, 116540, Note_off_c, 0, 79, 100
2, 116544, Note_on_c, 0, 78, 80
2, 116636, Note_off_c, 0, 78, 100
2, 116640, Note_on_c, 0, 79, 80
2, 116732, Note_off_c, 0, 79, 100
2, 116736, Note_on_c, 0, 81, 80
2, 116828, Note_off_c, 0, 81, 100
2, 116832, Note_on_c, 0, 79, 80
2, 116924, Note_off_c, 0, 79, 100
2, 116928, Note_on_c, 0, 78, 80
2, 117020, Note_off_c, 0, 78, 100
2, 117024, Note_on_c, 0, 79, 80
2, 117116, Note_off_c, 0, 79, 100
2, 117216, Note_on_c, 0, 79, 80
2, 117308, Note_off_c, 0, 79, 100
2, 117312, Note_on_c, 0, 78, 80
2, 117404, Note_off_c, 0, 78, 100
2, 117408, Note_on_c, 0, 79, 80
2, 117500, Note_off_c, 0, 79, 100
2, 117504, Note_on_c, 0, 81, 80
2, 117596, Note_off_c, 0, 81, 100
2, 117600, Note_on_c, 0, 79, 80
2, 117692, Note_off_c, 0, 79, 100
2, 117696, Note_on_c, 0, 78, 80
2, 117788, Note_off_c, 0, 78, 100
2, 117792, Note_on_c, 0, 79, 80
2, 117884, Note_off_c, 0, 79, 100
2, 117984, Note_on_c, 0, 79, 81
2, 118076, Note_off_c, 0, 79, 100
2, 118080, Note_on_c, 0, 78, 82
2, 118172, Note_off_c, 0, 78, 100
2, 118176, Note_on_c, 0, 79, 83
2, 118268, Note_off_c, 0, 79, 100
2, 118272, Note_on_c, 0, 81, 84
2, 118364, Note_off_c, 0, 81, 100
2, 118368, Note_on_c, 0, 79, 86
2, 118460, Note_off_c, 0, 79, 100
2, 118464, Note_on_c, 0, 78, 87
2, 118556, Note_off_c, 0, 78, 100
2, 118560, Note_on_c, 0, 79, 88
2, 118652, Note_off_c, 0, 79, 100
2, 118656, Note_on_c, 0, 78, 89
2, 118748, Note_off_c, 0, 78, 100
2, 118752, Note_on_c, 0, 79, 91
2, 118844, Note_off_c, 0, 79, 100
2, 118848, Note_on_c, 0, 81, 92
2, 118940, Note_off_c, 0, 81, 100
2, 118944, Note_on_c, 0, 79, 93
2, 119036, Note_off_c, 0, 79, 100
2, 119040, Note_on_c, 0, 78, 94
2, 119112, Note_off_c, 0, 78, 100
2, 119116, Note_on_c, 0, 79, 95
2, 119188, Note_off_c, 0, 79, 100
2, 119192, Note_on_c, 0, 80, 96
2, 119264, Note_off_c, 0, 80, 100
2, 119268, Note_on_c, 0, 81, 97
2, 119340, Note_off_c, 0, 81, 100
2, 119344, Note_on_c, 0, 82, 98
2, 119412, Note_off_c, 0, 82, 100
2, 119424, Note_on_c, 0, 83, 99
2, 119496, Note_off_c, 0, 83, 100
2, 119500, Note_on_c, 0, 84, 100
2, 119572, Note_off_c, 0, 84, 100
2, 119576, Note_on_c, 0, 85, 101
2, 119648, Note_off_c, 0, 85, 100
2, 119652, Note_on_c, 0, 86, 102
2, 119724, Note_off_c, 0, 86, 100
2, 119728, Note_on_c, 0, 85, 103
2, 119796, Note_off_c, 0, 85, 100
2, 119808, Note_on_c, 0, 88, 104
2, 119900, Note_off_c, 0, 88, 100
2, 119904, Note_on_c, 0, 86, 106
2, 119996, Note_off_c, 0, 86, 100
2, 120000, Note_on_c, 0, 85, 107
2, 120092, Note_off_c, 0, 85, 100
2, 120096, Note_on_c, 0, 83, 108
2, 120188, Note_off_c, 0, 83, 100
2, 120192, Note_on_c, 0, 82, 109
2, 120284, Note_off_c, 0, 82, 100
2, 120288, Note_on_c, 0, 85, 80
2, 120380, Note_off_c, 0, 85, 100
2, 120384, Note_on_c, 0, 82, 80
2, 120476, Note_off_c, 0, 82, 100
2, 120480, Note_on_c, 0, 78, 80
2, 120572, Note_off_c, 0, 78, 100
2, 120576, Note_on_c, 0, 77, 80
2, 120668, Note_off_c, 0, 77, 100
2, 120672, Note_on_c, 0, 78, 80
2, 120764, Note_off_c, 0, 78, 100
2, 120768, Note_on_c, 0, 85, 80
2, 120860, Note_off_c, 0, 85, 100
2, 120864, Note_on_c, 0, 78, 80
2, 120956, Note_off_c, 0, 78, 100
2, 120960, Note_on_c, 0, 86, 80
2, 121052, Note_off_c, 0, 86, 100
2, 121056, Note_on_c, 0, 83, 80
2, 121148, Note_off_c, 0, 83, 100
2, 121152, Note_on_c, 0, 78, 80
2, 121244, Note_off_c, 0, 78, 100
2, 121248, Note_on_c, 0, 86, 80
2, 121340, Note_off_c, 0, 86, 100
2, 121344, Note_on_c, 0, 74, 80
2, 121436, Note_off_c, 0, 74, 100
2, 121440, Note_on_c, 0, 83, 80
2, 121532, Note_off_c, 0, 83, 100
2, 121536, Note_on_c, 0, 80, 80
2, 121628, Note_off_c, 0, 80, 100
2, 121632, Note_on_c, 0, 74, 80
2, 121724, Note_off_c, 0, 74, 100
2, 121728, Note_on_c, 0, 82, 104
2, 121820, Note_off_c, 0, 82, 100
2, 121824, Note_on_c, 0, 78, 80
2, 121916, Note_off_c, 0, 78, 100
2, 121920, Note_on_c, 0, 73, 80
2, 122012, Note_off_c, 0, 73, 100
2, 122016, Note_on_c, 0, 78, 80
2, 122108, Note_off_c, 0, 78, 100
2, 122112, Note_on_c, 0, 77, 80
2, 122204, Note_off_c, 0, 77, 100
2, 122208, Note_on_c, 0, 78, 80
2, 122300, Note_off_c, 0, 78, 100
2, 122304, Note_on_c, 0, 85, 80
2, 122396, Note_off_c, 0, 85, 100
2, 122400, Note_on_c, 0, 78, 80
2, 122492, Note_off_c, 0, 78, 100
2, 122496, Note_on_c, 0, 86, 80
2, 122588, Note_off_c, 0, 86, 100
2, 122592, Note_on_c, 0, 83, 80
2, 122684, Note_off_c, 0, 83, 100
2, 122688, Note_on_c, 0, 78, 80
2, 122780, Note_off_c, 0, 78, 100
2, 122784, Note_on_c, 0, 86, 80
2, 122876, Note_off_c, 0, 86, 100
2, 122880, Note_on_c, 0, 74, 80
2, 122972, Note_off_c, 0, 74, 100
2, 122976, Note_on_c, 0, 83, 80
2, 123068, Note_off_c, 0, 83, 100
2, 123072, Note_on_c, 0, 80, 80
2, 123164, Note_off_c, 0, 80, 100
2, 123168, Note_on_c, 0, 74, 80
2, 123260, Note_off_c, 0, 74, 100
2, 123264, Note_on_c, 0, 82, 70
2, 123264, Note_on_c, 0, 73, 70
2, 123452, Note_off_c, 0, 82, 100
2, 123452, Note_off_c, 0, 73, 100
2, 123456, Note_on_c, 0, 85, 70
2, 123456, Note_on_c, 0, 82, 70
2, 123644, Note_off_c, 0, 85, 100
2, 123644, Note_off_c, 0, 82, 100
2, 123648, Note_on_c, 0, 82, 70
2, 123648, Note_on_c, 0, 85, 70
2, 123836, Note_off_c, 0, 82, 100
2, 123836, Note_off_c, 0, 85, 100
2, 123840, Note_on_c, 0, 85, 70
2, 123840, Note_on_c, 0, 82, 70
2, 124028, Note_off_c, 0, 85, 100
2, 124028, Note_off_c, 0, 82, 100
2, 124032, Note_on_c, 0, 82, 70
2, 124032, Note_on_c, 0, 85, 70
2, 124220, Note_off_c, 0, 82, 100
2, 124220, Note_off_c, 0, 85, 100
2, 124224, Note_on_c, 0, 85, 70
2, 124224, Note_on_c, 0, 82, 70
2, 124412, Note_off_c, 0, 85, 100
2, 124412, Note_off_c, 0, 82, 100
2, 124416, Note_on_c, 0, 82, 70
2, 124416, Note_on_c, 0, 85, 70
2, 124604, Note_off_c, 0, 82, 100
2, 124604, Note_off_c, 0, 85, 100
2, 124608, Note_on_c, 0, 85, 70
2, 124608, Note_on_c, 0, 82, 70
2, 124796, Note_off_c, 0, 85, 100
2, 124796, Note_off_c, 0, 82, 100
2, 124800, Note_on_c, 0, 82, 70
2, 124800, Note_on_c, 0, 85, 70
2, 124988, Note_off_c, 0, 82, 100
2, 124988, Note_off_c, 0, 85, 100
2, 124992, Note_on_c, 0, 85, 70
2, 124992, Note_on_c, 0, 82, 70
2, 125180, Note_off_c, 0, 85, 100
2, 125180, Note_off_c, 0, 82, 100
2, 125184, Note_on_c, 0, 82, 70
2, 125184, Note_on_c, 0, 85, 70
2, 125372, Note_off_c, 0, 82, 100
2, 125372, Note_off_c, 0, 85, 100
2, 125376, Note_on_c, 0, 85, 70
2, 125376, Note_on_c, 0, 82, 70
2, 125564, Note_off_c, 0, 85, 100
2, 125564, Note_off_c, 0, 82, 100
2, 125568, Note_on_c, 0, 82, 70
2, 125568, Note_on_c, 0, 85, 70
2, 125756, Note_off_c, 0, 82, 100
2, 125756, Note_off_c, 0, 85, 100
2, 125760, Note_on_c, 0, 85, 70
2, 125760, Note_on_c, 0, 82, 70
2, 125948, Note_off_c, 0, 85, 100
2, 125948, Note_off_c, 0, 82, 100
2, 125952, Note_on_c, 0, 82, 70
2, 125952, Note_on_c, 0, 85, 70
2, 126140, Note_off_c, 0, 82, 100
2, 126140, Note_off_c, 0, 85, 100
2, 126144, Note_on_c, 0, 85, 70
2, 126144, Note_on_c, 0, 82, 70
2, 126332, Note_off_c, 0, 85, 100
2, 126332, Note_off_c, 0, 82, 100
2, 126336, Note_on_c, 0, 82, 70
2, 126336, Note_on_c, 0, 85, 70
2, 126524, Note_off_c, 0, 82, 100
2, 126524, Note_off_c, 0, 85, 100
2, 126528, Note_on_c, 0, 85, 70
2, 126528, Note_on_c, 0, 82, 70
2, 126716, Note_off_c, 0, 85, 100
2, 126716, Note_off_c, 0, 82, 100
2, 126720, Note_on_c, 0, 82, 70
2, 126720, Note_on_c, 0, 85, 70
2, 126908, Note_off_c, 0, 82, 100
2, 126908, Note_off_c, 0, 85, 100
2, 126912, Note_on_c, 0, 85, 70
2, 126912, Note_on_c, 0, 82, 70
2, 127100, Note_off_c, 0, 85, 100
2, 127100, Note_off_c, 0, 82, 100
2, 127104, Note_on_c, 0, 82, 70
2, 127104, Note_on_c, 0, 85, 70
2, 127292, Note_off_c, 0, 82, 100
2, 127292, Note_off_c, 0, 85, 100
2, 127296, Note_on_c, 0, 85, 70
2, 127296, Note_on_c, 0, 82, 70
2, 127484, Note_off_c, 0, 85, 100
2, 127484, Note_off_c, 0, 82, 100
2, 127488, Note_on_c, 0, 82, 70
2, 127488, Note_on_c, 0, 85, 70
2, 127676, Note_off_c, 0, 82, 100
2, 127676, Note_off_c, 0, 85, 100
2, 127680, Note_on_c, 0, 85, 70
2, 127680, Note_on_c, 0, 82, 70
2, 127680, Note_on_c, 0, 75, 70
2, 127868, Note_off_c, 0, 85, 100
2, 127868, Note_off_c, 0, 82, 100
2, 127868, Note_off_c, 0, 75, 100
2, 127872, Note_on_c, 0, 82, 70
2, 127872, Note_on_c, 0, 85, 70
2, 127872, Note_on_c, 0, 76, 70
2, 128060, Note_off_c, 0, 82, 100
2, 128060, Note_off_c, 0, 85, 100
2, 128060, Note_off_c, 0, 76, 100
2, 128064, Note_on_c, 0, 85, 72
2, 128064, Note_on_c, 0, 82, 72
2, 128064, Note_on_c, 0, 79, 72
2, 128252, Note_off_c, 0, 85, 100
2, 128252, Note_off_c, 0, 82, 100
2, 128252, Note_off_c, 0, 79, 100
2, 128256, Note_on_c, 0, 82, 75
2, 128256, Note_on_c, 0, 85, 75
2, 128444, Note_off_c, 0, 82, 100
2, 128444, Note_off_c, 0, 85, 100
2, 128448, Note_on_c, 0, 85, 77
2, 128448, Note_on_c, 0, 82, 77
2, 128636, Note_off_c, 0, 85, 100
2, 128636, Note_off_c, 0, 82, 100
2, 128640, Note_on_c, 0, 82, 80
2, 128640, Note_on_c, 0, 85, 80
2, 128828, Note_off_c, 0, 82, 100
2, 128828, Note_off_c, 0, 85, 100
2, 128832, Note_on_c, 0, 85, 83
2, 128832, Note_on_c, 0, 82, 83
2, 129020, Note_off_c, 0, 85, 100
2, 129020, Note_off_c, 0, 82, 100
2, 129024, Note_on_c, 0, 82, 85
2, 129024, Note_on_c, 0, 85, 85
2, 129212, Note_off_c, 0, 82, 100
2, 129212, Note_off_c, 0, 85, 100
2, 129216, Note_on_c, 0, 85, 88
2, 129216, Note_on_c, 0, 82, 88
2, 129404, Note_off_c, 0, 85, 100
2, 129404, Note_off_c, 0, 82, 100
2, 129408, Note_on_c, 0, 82, 91
2, 129408, Note_on_c, 0, 86, 91
2, 129596, Note_off_c, 0, 82, 100
2, 129596, Note_off_c, 0, 86, 100
2, 129600, Note_on_c, 0, 82, 93
2, 129600, Note_on_c, 0, 86, 93
2, 129788, Note_off_c, 0, 82, 100
2, 129788, Note_off_c, 0, 86, 100
2, 129792, Note_on_c, 0, 82, 96
2, 129792, Note_on_c, 0, 86, 96
2, 129980, Note_off_c, 0, 82, 100
2, 129980, Note_off_c, 0, 86, 100
2, 129984, Note_on_c, 0, 82, 99
2, 129984, Note_on_c, 0, 86, 99
2, 130172, Note_off_c, 0, 82, 100
2, 130172, Note_off_c, 0, 86, 100
2, 130176, Note_on_c, 0, 78, 101
2, 130176, Note_on_c, 0, 82, 101
2, 130176, Note_on_c, 0, 87, 101
2, 130364, Note_off_c, 0, 78, 100
2, 130364, Note_off_c, 0, 82, 100
2, 130364, Note_off_c, 0, 87, 100
2, 130368, Note_on_c, 0, 78, 104
2, 130368, Note_on_c, 0, 82, 104
2, 130368, Note_on_c, 0, 87, 104
2, 130556, Note_off_c, 0, 78, 100
2, 130556, Note_off_c, 0, 82, 100
2, 130556, Note_off_c, 0, 87, 100
2, 130560, Note_on_c, 0, 78, 107
2, 130560, Note_on_c, 0, 82, 107
2, 130560, Note_on_c, 0, 87, 107
2, 130748, Note_off_c, 0, 78, 100
2, 130748, Note_off_c, 0, 82, 100
2, 130748, Note_off_c, 0, 87, 100
2, 130752, Note_on_c, 0, 78, 109
2, 130752, Note_on_c, 0, 82, 109
2, 130752, Note_on_c, 0, 87, 109
2, 130940, Note_off_c, 0, 78, 100
2, 130940, Note_off_c, 0, 82, 100
2, 130940, Note_off_c, 0, 87, 100
2, 130944, Note_on_c, 0, 79, 110
2, 130944, Note_on_c, 0, 82, 110
2, 130944, Note_on_c, 0, 85, 110
2, 130944, Note_on_c, 0, 88, 110
2, 131132, Note_off_c, 0, 79, 100
2, 131132, Note_off_c, 0, 82, 100
2, 131132, Note_off_c, 0, 85, 100
2, 131132, Note_off_c, 0, 88, 100
2, 131136, Note_on_c, 0, 79, 110
2, 131136, Note_on_c, 0, 82, 110
2, 131136, Note_on_c, 0, 85, 110
2, 131136, Note_on_c, 0, 88, 110
2, 131324, Note_off_c, 0, 79, 100
2, 131324, Note_off_c, 0, 82, 100
2, 131324, Note_off_c, 0, 85, 100
2, 131324, Note_off_c, 0, 88, 100
2, 131328, Note_on_c, 0, 79, 110
2, 131328, Note_on_c, 0, 82, 110
2, 131328, Note_on_c, 0, 85, 110
2, 131328, Note_on_c, 0, 88, 110
2, 131516, Note_off_c, 0, 79, 100
2, 131516, Note_off_c, 0, 82, 100
2, 131516, Note_off_c, 0, 85, 100
2, 131516, Note_off_c, 0, 88, 100
2, 131520, Note_on_c, 0, 79, 110
2, 131520, Note_on_c, 0, 82, 110
2, 131520, Note_on_c, 0, 85, 110
2, 131520, Note_on_c, 0, 88, 110
2, 131708, Note_off_c, 0, 79, 100
2, 131708, Note_off_c, 0, 82, 100
2, 131708, Note_off_c, 0, 85, 100
2, 131708, Note_off_c, 0, 88, 100
2, 131712, Note_on_c, 0, 80, 110
2, 131712, Note_on_c, 0, 83, 110
2, 131712, Note_on_c, 0, 86, 110
2, 131712, Note_on_c, 0, 89, 110
2, 131900, Note_off_c, 0, 80, 100
2, 131900, Note_off_c, 0, 83, 100
2, 131900, Note_off_c, 0, 86, 100
2, 131900, Note_off_c, 0, 89, 100
2, 131904, Note_on_c, 0, 80, 110
2, 131904, Note_on_c, 0, 83, 110
2, 131904, Note_on_c, 0, 86, 110
2, 131904, Note_on_c, 0, 89, 110
2, 132092, Note_off_c, 0, 80, 100
2, 132092, Note_off_c, 0, 83, 100
2, 132092, Note_off_c, 0, 86, 100
2, 132092, Note_off_c, 0, 89, 100
2, 132096, Note_on_c, 0, 80, 110
2, 132096, Note_on_c, 0, 83, 110
2, 132096, Note_on_c, 0, 86, 110
2, 132096, Note_on_c, 0, 89, 110
2, 132284, Note_off_c, 0, 80, 100
2, 132284, Note_off_c, 0, 83, 100
2, 132284, Note_off_c, 0, 86, 100
2, 132284, Note_off_c, 0, 89, 100
2, 132288, Note_on_c, 0, 80, 110
2, 132288, Note_on_c, 0, 83, 110
2, 132288, Note_on_c, 0, 86, 110
2, 132288, Note_on_c, 0, 89, 110
2, 132476, Note_off_c, 0, 80, 100
2, 132476, Note_off_c, 0, 83, 100
2, 132476, Note_off_c, 0, 86, 100
2, 132476, Note_off_c, 0, 89, 100
2, 132480, Note_on_c, 0, 85, 80
2, 132572, Note_off_c, 0, 85, 100
2, 132576, Note_on_c, 0, 88, 80
2, 132668, Note_off_c, 0, 88, 100
2, 132672, Note_on_c, 0, 85, 80
2, 132764, Note_off_c, 0, 85, 100
2, 132768, Note_on_c, 0, 81, 80
2, 132860, Note_off_c, 0, 81, 100
2, 132864, Note_on_c, 0, 89, 80
2, 132956, Note_off_c, 0, 89, 100
2, 132960, Note_on_c, 0, 86, 80
2, 133052, Note_off_c, 0, 86, 100
2, 133056, Note_on_c, 0, 89, 80
2, 133148, Note_off_c, 0, 89, 100
2, 133152, Note_on_c, 0, 86, 80
2, 133244, Note_off_c, 0, 86, 100
2, 133248, Note_on_c, 0, 83, 80
2, 133340, Note_off_c, 0, 83, 100
2, 133344, Note_on_c, 0, 86, 80
2, 133436, Note_off_c, 0, 86, 100
2, 133440, Note_on_c, 0, 83, 80
2, 133532, Note_off_c, 0, 83, 100
2, 133536, Note_on_c, 0, 80, 80
2, 133628, Note_off_c, 0, 80, 100
2, 133632, Note_on_c, 0, 77, 80
2, 133724, Note_off_c, 0, 77, 100
2, 133728, Note_on_c, 0, 80, 80
2, 133820, Note_off_c, 0, 80, 100
2, 133824, Note_on_c, 0, 83, 80
2, 133916, Note_off_c, 0, 83, 100
2, 133920, Note_on_c, 0, 86, 80
2, 134012, Note_off_c, 0, 86, 100
2, 134016, Note_on_c, 0, 85, 80
2, 134108, Note_off_c, 0, 85, 100
2, 134112, Note_on_c, 0, 81, 80
2, 134204, Note_off_c, 0, 81, 100
2, 134208, Note_on_c, 0, 76, 80
2, 134300, Note_off_c, 0, 76, 100
2, 134304, Note_on_c, 0, 73, 80
2, 134396, Note_off_c, 0, 73, 100
2, 134400, Note_on_c, 0, 77, 80
2, 134492, Note_off_c, 0, 77, 100
2, 134496, Note_on_c, 0, 74, 80
2, 134588, Note_off_c, 0, 74, 100
2, 134592, Note_on_c, 0, 71, 80
2, 134684, Note_off_c, 0, 71, 100
2, 134688, Note_on_c, 0, 68, 80
2, 134780, Note_off_c, 0, 68, 100
2, 134784, Note_on_c, 0, 65, 80
2, 134876, Note_off_c, 0, 65, 100
2, 134880, Note_on_c, 0, 62, 80
2, 134972, Note_off_c, 0, 62, 100
2, 134976, Note_on_c, 0, 59, 80
2, 135068, Note_off_c, 0, 59, 100
2, 135072, Note_on_c, 0, 56, 80
2, 135164, Note_off_c, 0, 56, 100
2, 135168, Note_on_c, 0, 53, 80
2, 135260, Note_off_c, 0, 53, 100
2, 135264, Note_on_c, 0, 56, 80
2, 135356, Note_off_c, 0, 56, 100
2, 135360, Note_on_c, 0, 59, 80
2, 135452, Note_off_c, 0, 59, 100
2, 135456, Note_on_c, 0, 62, 80
2, 135548, Note_off_c, 0, 62, 100
2, 135552, Note_on_c, 0, 61, 80
2, 135644, Note_off_c, 0, 61, 100
2, 135648, Note_on_c, 0, 57, 80
2, 135740, Note_off_c, 0, 57, 100
2, 135744, Note_on_c, 0, 61, 80
2, 135836, Note_off_c, 0, 61, 100
2, 135840, Note_on_c, 0, 64, 80
2, 135932, Note_off_c, 0, 64, 100
2, 135936, Note_on_c, 0, 69, 80
2, 136028, Note_off_c, 0, 69, 100
2, 136032, Note_on_c, 0, 64, 82
2, 136124, Note_off_c, 0, 64, 100
2, 136128, Note_on_c, 0, 61, 85
2, 136220, Note_off_c, 0, 61, 100
2, 136224, Note_on_c, 0, 57, 88
2, 136316, Note_off_c, 0, 57, 100
2, 136320, Note_on_c, 0, 64, 90
2, 136412, Note_off_c, 0, 64, 100
2, 136416, Note_on_c, 0, 61, 93
2, 136508, Note_off_c, 0, 61, 100
2, 136512, Note_on_c, 0, 57, 96
2, 136604, Note_off_c, 0, 57, 100
2, 136608, Note_on_c, 0, 52, 99
2, 136700, Note_off_c, 0, 52, 100
2, 136704, Note_on_c, 0, 61, 101
2, 136796, Note_off_c, 0, 61, 100
2, 136800, Note_on_c, 0, 57, 104
2, 136892, Note_off_c, 0, 57, 100
2, 136896, Note_on_c, 0, 52, 107
2, 136988, Note_off_c, 0, 52, 100
2, 136992, Note_on_c, 0, 49, 109
2, 137084, Note_off_c, 0, 49, 100
2, 139968, Note_on_c, 0, 66, 70
2, 139968, Note_on_c, 0, 57, 70
2, 139968, Note_on_c, 0, 62, 70
2, 140156, Note_off_c, 0, 66, 100
2, 140156, Note_off_c, 0, 57, 100
2, 140160, Note_on_c, 0, 67, 70
2, 140160, Note_on_c, 0, 59, 70
2, 140348, Note_off_c, 0, 67, 100
2, 140352, Note_on_c, 0, 71, 70
2, 140540, Note_off_c, 0, 62, 100
2, 140540, Note_off_c, 0, 59, 100
2, 140540, Note_off_c, 0, 71, 100
2, 141504, Note_on_c, 0, 66, 70
2, 141504, Note_on_c, 0, 57, 70
2, 141504, Note_on_c, 0, 62, 70
2, 141692, Note_off_c, 0, 66, 100
2, 141692, Note_off_c, 0, 57, 100
2, 141696, Note_on_c, 0, 67, 70
2, 141696, Note_on_c, 0, 59, 70
2, 141884, Note_off_c, 0, 67, 100
2, 141888, Note_on_c, 0, 71, 70
2, 142076, Note_off_c, 0, 62, 100
2, 142076, Note_off_c, 0, 59, 100
2, 142076, Note_off_c, 0, 71, 100
2, 143040, Note_on_c, 0, 71, 70
2, 143228, Note_off_c, 0, 71, 100
2, 143232, Note_on_c, 0, 69, 70
2, 143420, Note_off_c, 0, 69, 100
2, 143424, Note_on_c, 0, 74, 74
2, 143612, Note_off_c, 0, 74, 100
2, 143616, Note_on_c, 0, 73, 79
2, 143804, Note_off_c, 0, 73, 100
2, 143808, Note_on_c, 0, 79, 84
2, 143996, Note_off_c, 0, 79, 100
2, 144000, Note_on_c, 0, 78, 89
2, 144188, Note_off_c, 0, 78, 100
2, 144192, Note_on_c, 0, 83, 94
2, 144380, Note_off_c, 0, 83, 100
2, 144384, Note_on_c, 0, 81, 99
2, 144572, Note_off_c, 0, 81, 100
2, 144576, Note_on_c, 0, 88, 104
2, 144860, Note_off_c, 0, 88, 100
2, 144864, Note_on_c, 0, 86, 99
2, 144956, Note_off_c, 0, 86, 100
2, 144960, Note_on_c, 0, 85, 98
2, 145052, Note_off_c, 0, 85, 100
2, 145056, Note_on_c, 0, 83, 97
2, 145148, Note_off_c, 0, 83, 100
2, 145152, Note_on_c, 0, 81, 96
2, 145244, Note_off_c, 0, 81, 100
2, 145248, Note_on_c, 0, 80, 94
2, 145340, Note_off_c, 0, 80, 100
2, 145344, Note_on_c, 0, 86, 93
2, 145436, Note_off_c, 0, 86, 100
2, 145440, Note_on_c, 0, 80, 92
2, 145532, Note_off_c, 0, 80, 100
2, 145536, Note_on_c, 0, 83, 91
2, 146396, Note_off_c, 0, 83, 100
2, 146400, Note_on_c, 0, 85, 80
2, 146492, Note_off_c, 0, 85, 100
2, 146496, Note_on_c, 0, 83, 80
2, 146588, Note_off_c, 0, 83, 100
2, 146592, Note_on_c, 0, 82, 80
2, 146684, Note_off_c, 0, 82, 100
2, 146688, Note_on_c, 0, 83, 80
2, 146876, Note_off_c, 0, 83, 100
2, 146880, Note_on_c, 0, 85, 80
2, 147068, Note_off_c, 0, 85, 100
2, 147072, Note_on_c, 0, 81, 80
2, 147644, Note_off_c, 0, 81, 100
2, 147648, Note_on_c, 0, 66, 80
2, 147648, Note_on_c, 0, 57, 80
2, 147648, Note_on_c, 0, 62, 80
2, 147836, Note_off_c, 0, 66, 100
2, 147836, Note_off_c, 0, 57, 100
2, 147840, Note_on_c, 0, 67, 80
2, 147840, Note_on_c, 0, 59, 80
2, 148028, Note_off_c, 0, 62, 100
2, 148028, Note_off_c, 0, 67, 100
2, 148032, Note_on_c, 0, 71, 80
2, 148220, Note_off_c, 0, 59, 100
2, 148220, Note_off_c, 0, 71, 100
2, 148416, Note_on_c, 0, 66, 83
2, 148416, Note_on_c, 0, 61, 83
2, 148416, Note_on_c, 0, 70, 83
2, 148604, Note_off_c, 0, 61, 100
2, 148604, Note_off_c, 0, 70, 100
2, 148608, Note_on_c, 0, 71, 87
2, 148608, Note_on_c, 0, 62, 87
2, 148796, Note_off_c, 0, 71, 100
2, 148800, Note_on_c, 0, 74, 90
2, 148988, Note_off_c, 0, 66, 100
2, 148988, Note_off_c, 0, 62, 100
2, 148988, Note_off_c, 0, 74, 100
2, 149184, Note_on_c, 0, 73, 97
2, 149184, Note_on_c, 0, 64, 97
2, 149184, Note_on_c, 0, 69, 97
2, 149372, Note_off_c, 0, 73, 100
2, 149372, Note_off_c, 0, 64, 100
2, 149376, Note_on_c, 0, 74, 101
2, 149376, Note_on_c, 0, 66, 101
2, 149564, Note_off_c, 0, 74, 100
2, 149568, Note_on_c, 0, 78, 104
2, 149756, Note_off_c, 0, 69, 100
2, 149756, Note_off_c, 0, 66, 100
2, 149756, Note_off_c, 0, 78, 100
2, 149952, Note_on_c, 0, 71, 80
2, 150140, Note_off_c, 0, 71, 100
2, 150144, Note_on_c, 0, 62, 80
2, 150524, Note_off_c, 0, 62, 100
2, 150528, Note_on_c, 0, 61, 80
2, 150528, Note_on_c, 0, 66, 80
2, 150572, Note_off_c, 0, 66, 100
2, 150576, Note_on_c, 0, 64, 80
2, 150812, Note_off_c, 0, 64, 100
2, 150816, Note_on_c, 0, 62, 80
2, 150908, Note_off_c, 0, 61, 100
2, 150908, Note_off_c, 0, 62, 100
2, 150912, Note_on_c, 0, 62, 80
2, 151292, Note_off_c, 0, 62, 100
2, 152256, Note_on_c, 0, 78, 80
2, 152256, Note_on_c, 0, 75, 80
2, 152444, Note_off_c, 0, 78, 100
2, 152444, Note_off_c, 0, 75, 100
2, 152448, Note_on_c, 0, 76, 80
2, 152448, Note_on_c, 0, 79, 80
2, 152636, Note_off_c, 0, 76, 100
2, 152636, Note_off_c, 0, 79, 100
2, 152640, Note_on_c, 0, 79, 80
2, 152640, Note_on_c, 0, 83, 80
2, 152828, Note_off_c, 0, 79, 100
2, 152828, Note_off_c, 0, 83, 100
2, 152896, Note_on_c, 0, 59, 80
2, 152956, Note_off_c, 0, 59, 100
2, 152960, Note_on_c, 0, 57, 80
2, 153020, Note_off_c, 0, 57, 100
2, 153024, Note_on_c, 0, 55, 80
2, 153084, Note_off_c, 0, 55, 100
2, 153088, Note_on_c, 0, 54, 80
2, 153148, Note_off_c, 0, 54, 100
2, 153152, Note_on_c, 0, 52, 80
2, 153212, Note_off_c, 0, 52, 100
2, 153216, Note_on_c, 0, 50, 80
2, 153404, Note_off_c, 0, 50, 100
2, 153408, Note_on_c, 0, 52, 80
2, 153456, Note_on_c, 0, 50, 80
2, 153500, Note_off_c, 0, 52, 100
2, 153504, Note_on_c, 0, 49, 80
2, 153548, Note_off_c, 0, 50, 100
2, 153552, Note_on_c, 0, 50, 80
2, 153596, Note_off_c, 0, 49, 100
2, 153596, Note_off_c, 0, 50, 100
2, 153600, Note_on_c, 0, 54, 80
2, 153600, Note_on_c, 0, 49, 80
2, 153788, Note_off_c, 0, 54, 100
2, 153792, Note_on_c, 0, 52, 80
2, 153980, Note_off_c, 0, 49, 100
2, 153980, Note_off_c, 0, 52, 100
2, 153984, Note_on_c, 0, 50, 80
2, 154364, Note_off_c, 0, 50, 100
2, 154560, Note_on_c, 0, 54, 80
2, 154748, Note_off_c, 0, 54, 100
2, 154752, Note_on_c, 0, 55, 80
2, 154940, Note_off_c, 0, 55, 100
2, 154944, Note_on_c, 0, 59, 80
2, 155132, Note_off_c, 0, 59, 100
2, 155136, Note_on_c, 0, 62, 104
2, 155324, Note_off_c, 0, 62, 100
2, 155328, Note_on_c, 0, 60, 80
2, 155516, Note_off_c, 0, 60, 100
2, 155520, Note_on_c, 0, 59, 80
2, 155708, Note_off_c, 0, 59, 100
2, 155712, Note_on_c, 0, 55, 80
2, 155900, Note_off_c, 0, 55, 100
2, 156096, Note_on_c, 0, 58, 80
2, 156284, Note_off_c, 0, 58, 100
2, 156288, Note_on_c, 0, 59, 80
2, 156476, Note_off_c, 0, 59, 100
2, 156480, Note_on_c, 0, 62, 80
2, 156668, Note_off_c, 0, 62, 100
2, 156672, Note_on_c, 0, 66, 100
2, 156860, Note_off_c, 0, 66, 100
2, 156864, Note_on_c, 0, 64, 80
2, 157052, Note_off_c, 0, 64, 100
2, 157056, Note_on_c, 0, 62, 80
2, 157244, Note_off_c, 0, 62, 100
2, 157248, Note_on_c, 0, 59, 80
2, 157436, Note_off_c, 0, 59, 100
2, 157632, Note_on_c, 0, 61, 80
2, 157820, Note_off_c, 0, 61, 100
2, 157824, Note_on_c, 0, 62, 80
2, 158012, Note_off_c, 0, 62, 100
2, 158016, Note_on_c, 0, 66, 80
2, 158204, Note_off_c, 0, 66, 100
2, 158208, Note_on_c, 0, 81, 90
2, 158208, Note_on_c, 0, 69, 90
2, 158396, Note_off_c, 0, 81, 100
2, 158396, Note_off_c, 0, 69, 100
2, 158400, Note_on_c, 0, 79, 80
2, 158400, Note_on_c, 0, 67, 80
2, 158588, Note_off_c, 0, 79, 100
2, 158588, Note_off_c, 0, 67, 100
2, 158592, Note_on_c, 0, 78, 80
2, 158592, Note_on_c, 0, 66, 80
2, 158780, Note_off_c, 0, 78, 100
2, 158780, Note_off_c, 0, 66, 100
2, 158784, Note_on_c, 0, 74, 80
2, 158972, Note_off_c, 0, 74, 100
2, 159168, Note_on_c, 0, 61, 80
2, 159356, Note_off_c, 0, 61, 100
2, 159360, Note_on_c, 0, 62, 80
2, 159548, Note_off_c, 0, 62, 100
2, 159552, Note_on_c, 0, 66, 80
2, 159740, Note_off_c, 0, 66, 100
2, 159744, Note_on_c, 0, 69, 90
2, 159744, Note_on_c, 0, 81, 90
2, 159932, Note_off_c, 0, 69, 100
2, 159932, Note_off_c, 0, 81, 100
2, 159936, Note_on_c, 0, 67, 80
2, 159936, Note_on_c, 0, 79, 80
2, 160124, Note_off_c, 0, 67, 100
2, 160124, Note_off_c, 0, 79, 100
2, 160128, Note_on_c, 0, 78, 90
2, 160128, Note_on_c, 0, 66, 90
2, 160316, Note_off_c, 0, 78, 100
2, 160316, Note_off_c, 0, 66, 100
2, 160320, Note_on_c, 0, 74, 80
2, 160508, Note_off_c, 0, 74, 100
2, 160512, Note_on_c, 0, 83, 80
2, 160512, Note_on_c, 0, 71, 80
2, 160700, Note_off_c, 0, 83, 100
2, 160700, Note_off_c, 0, 71, 100
2, 160704, Note_on_c, 0, 69, 80
2, 160704, Note_on_c, 0, 81, 80
2, 160892, Note_off_c, 0, 69, 100
2, 160892, Note_off_c, 0, 81, 100
2, 160896, Note_on_c, 0, 79, 90
2, 160896, Note_on_c, 0, 67, 90
2, 161084, Note_off_c, 0, 79, 100
2, 161084, Note_off_c, 0, 67, 100
2, 161088, Note_on_c, 0, 76, 80
2, 161276, Note_off_c, 0, 76, 100
2, 161280, Note_on_c, 0, 85, 80
2, 161280, Note_on_c, 0, 73, 80
2, 161468, Note_off_c, 0, 85, 100
2, 161468, Note_off_c, 0, 73, 100
2, 161472, Note_on_c, 0, 83, 80
2, 161472, Note_on_c, 0, 71, 80
2, 161660, Note_off_c, 0, 83, 100
2, 161660, Note_off_c, 0, 71, 100
2, 161664, Note_on_c, 0, 81, 90
2, 161664, Note_on_c, 0, 69, 90
2, 161852, Note_off_c, 0, 81, 100
2, 161852, Note_off_c, 0, 69, 100
2, 161856, Note_on_c, 0, 78, 92
2, 162044, Note_off_c, 0, 78, 100
2, 162048, Note_on_c, 0, 86, 95
2, 162048, Note_on_c, 0, 74, 95
2, 162236, Note_off_c, 0, 86, 100
2, 162236, Note_off_c, 0, 74, 100
2, 162240, Note_on_c, 0, 84, 98
2, 162240, Note_on_c, 0, 72, 98
2, 162428, Note_off_c, 0, 84, 100
2, 162428, Note_off_c, 0, 72, 100
2, 162432, Note_on_c, 0, 83, 115
2, 162432, Note_on_c, 0, 71, 114
2, 162620, Note_off_c, 0, 83, 100
2, 162620, Note_off_c, 0, 71, 100
2, 162624, Note_on_c, 0, 79, 104
2, 162812, Note_off_c, 0, 79, 100
2, 162816, Note_on_c, 0, 76, 107
2, 162816, Note_on_c, 0, 88, 107
2, 163004, Note_off_c, 0, 76, 100
2, 163004, Note_off_c, 0, 88, 100
2, 163008, Note_on_c, 0, 74, 109
2, 163008, Note_on_c, 0, 86, 109
2, 163196, Note_off_c, 0, 74, 100
2, 163196, Note_off_c, 0, 86, 100
2, 163200, Note_on_c, 0, 86, 120
2, 163200, Note_on_c, 0, 74, 120
2, 164160, Note_on_c, 0, 85, 108
2, 164348, Note_off_c, 0, 85, 100
2, 164352, Note_on_c, 0, 88, 106
2, 164540, Note_off_c, 0, 88, 100
2, 164544, Note_on_c, 0, 86, 103
2, 164732, Note_off_c, 0, 86, 100
2, 164736, Note_on_c, 0, 85, 101
2, 164784, Note_on_c, 0, 88, 100
2, 164828, Note_off_c, 0, 85, 100
2, 164832, Note_on_c, 0, 81, 99
2, 164876, Note_off_c, 0, 88, 100
2, 164880, Note_on_c, 0, 85, 99
2, 164924, Note_off_c, 0, 81, 100
2, 164928, Note_on_c, 0, 79, 98
2, 164972, Note_off_c, 0, 85, 100
2, 164976, Note_on_c, 0, 81, 97
2, 165020, Note_off_c, 0, 79, 100
2, 165024, Note_on_c, 0, 76, 97
2, 165068, Note_off_c, 0, 81, 100
2, 165072, Note_on_c, 0, 79, 96
2, 165116, Note_off_c, 0, 76, 100
2, 165120, Note_on_c, 0, 73, 96
2, 165164, Note_off_c, 0, 79, 100
2, 165168, Note_on_c, 0, 76, 95
2, 165212, Note_off_c, 0, 73, 100
2, 165216, Note_on_c, 0, 69, 94
2, 165260, Note_off_c, 0, 76, 100
2, 165264, Note_on_c, 0, 73, 94
2, 165308, Note_off_c, 0, 69, 100
2, 165312, Note_on_c, 0, 67, 93
2, 165356, Note_off_c, 0, 73, 100
2, 165360, Note_on_c, 0, 69, 92
2, 165404, Note_off_c, 0, 67, 100
2, 165408, Note_on_c, 0, 64, 92
2, 165452, Note_off_c, 0, 69, 100
2, 165456, Note_on_c, 0, 67, 91
2, 165500, Note_off_c, 0, 64, 100
2, 165500, Note_off_c, 0, 67, 100
2, 165504, Note_on_c, 0, 61, 91
2, 167420, Note_off_c, 0, 61, 100
2, 167420, Note_off_c, 0, 74, 100
2, 167420, Note_off_c, 0, 86, 100
2, 168000, Note_on_c, 0, 50, 70
2, 168000, Note_on_c, 0, 62, 70
2, 168188, Note_off_c, 0, 50, 100
2, 168188, Note_off_c, 0, 62, 100
2, 168192, Note_on_c, 0, 59, 70
2, 168380, Note_off_c, 0, 59, 100
2, 168384, Note_on_c, 0, 55, 70
2, 168572, Note_off_c, 0, 55, 100
2, 169536, Note_on_c, 0, 74, 70
2, 169536, Note_on_c, 0, 62, 70
2, 169724, Note_off_c, 0, 74, 100
2, 169724, Note_off_c, 0, 62, 100
2, 169728, Note_on_c, 0, 70, 70
2, 169916, Note_off_c, 0, 70, 100
2, 169920, Note_on_c, 0, 67, 70
2, 170108, Note_off_c, 0, 67, 100
2, 170688, Note_on_c, 0, 70, 70
2, 170688, Note_on_c, 0, 58, 70
2, 170688, Note_on_c, 0, 62, 70
2, 170876, Note_off_c, 0, 62, 100
2, 170880, Note_on_c, 0, 63, 70
2, 171068, Note_off_c, 0, 58, 100
2, 171068, Note_off_c, 0, 70, 100
2, 171068, Note_off_c, 0, 63, 100
2, 171072, Note_on_c, 0, 70, 70
2, 171072, Note_on_c, 0, 63, 70
2, 171072, Note_on_c, 0, 58, 70
2, 171452, Note_off_c, 0, 70, 100
2, 171452, Note_off_c, 0, 63, 100
2, 171452, Note_off_c, 0, 58, 100
2, 171456, Note_on_c, 0, 70, 70
2, 171456, Note_on_c, 0, 58, 70
2, 171456, Note_on_c, 0, 63, 70
2, 171644, Note_off_c, 0, 70, 100
2, 171644, Note_off_c, 0, 58, 100
2, 171648, Note_on_c, 0, 68, 70
2, 171648, Note_on_c, 0, 56, 70
2, 171836, Note_off_c, 0, 68, 100
2, 171836, Note_off_c, 0, 56, 100
2, 171840, Note_on_c, 0, 68, 70
2, 171840, Note_on_c, 0, 63, 70
2, 171840, Note_on_c, 0, 56, 70
2, 172028, Note_off_c, 0, 63, 100
2, 172220, Note_off_c, 0, 68, 100
2, 172220, Note_off_c, 0, 63, 100
2, 172220, Note_off_c, 0, 56, 100
2, 172224, Note_on_c, 0, 68, 70
2, 172224, Note_on_c, 0, 56, 70
2, 172224, Note_on_c, 0, 63, 70
2, 172412, Note_off_c, 0, 63, 100
2, 172416, Note_on_c, 0, 62, 70
2, 172604, Note_off_c, 0, 56, 100
2, 172604, Note_off_c, 0, 68, 100
2, 172604, Note_off_c, 0, 62, 100
2, 172608, Note_on_c, 0, 68, 70
2, 172608, Note_on_c, 0, 62, 70
2, 172608, Note_on_c, 0, 56, 70
2, 172988, Note_off_c, 0, 68, 100
2, 172988, Note_off_c, 0, 62, 100
2, 172988, Note_off_c, 0, 56, 100
2, 172992, Note_on_c, 0, 62, 70
2, 172992, Note_on_c, 0, 68, 70
2, 172992, Note_on_c, 0, 56, 70
2, 173180, Note_off_c, 0, 68, 100
2, 173180, Note_off_c, 0, 56, 100
2, 173184, Note_on_c, 0, 55, 70
2, 173184, Note_on_c, 0, 67, 70
2, 173372, Note_off_c, 0, 62, 100
2, 173372, Note_off_c, 0, 55, 100
2, 173372, Note_off_c, 0, 67, 100
2, 173376, Note_on_c, 0, 62, 70
2, 173376, Note_on_c, 0, 55, 70
2, 173376, Note_on_c, 0, 67, 70
2, 173756, Note_off_c, 0, 62, 100
2, 173756, Note_off_c, 0, 55, 100
2, 173756, Note_off_c, 0, 67, 100
2, 173760, Note_on_c, 0, 67, 70
2, 173760, Note_on_c, 0, 55, 70
2, 173760, Note_on_c, 0, 62, 70
2, 173948, Note_off_c, 0, 62, 100
2, 173952, Note_on_c, 0, 61, 70
2, 174140, Note_off_c, 0, 55, 100
2, 174140, Note_off_c, 0, 67, 100
2, 174140, Note_off_c, 0, 61, 100
2, 174144, Note_on_c, 0, 67, 70
2, 174144, Note_on_c, 0, 61, 70
2, 174144, Note_on_c, 0, 55, 70
2, 174524, Note_off_c, 0, 67, 100
2, 174524, Note_off_c, 0, 61, 100
2, 174524, Note_off_c, 0, 55, 100
2, 174528, Note_on_c, 0, 67, 75
2, 174528, Note_on_c, 0, 61, 75
2, 174528, Note_on_c, 0, 55, 75
2, 174716, Note_off_c, 0, 67, 100
2, 174716, Note_off_c, 0, 61, 100
2, 174716, Note_off_c, 0, 55, 100
2, 174720, Note_on_c, 0, 66, 78
2, 174720, Note_on_c, 0, 62, 78
2, 174720, Note_on_c, 0, 57, 78
2, 174908, Note_off_c, 0, 66, 100
2, 174908, Note_off_c, 0, 62, 100
2, 174908, Note_off_c, 0, 57, 100
2, 174912, Note_on_c, 0, 66, 81
2, 174912, Note_on_c, 0, 62, 81
2, 174912, Note_on_c, 0, 57, 81
2, 175292, Note_off_c, 0, 66, 100
2, 175292, Note_off_c, 0, 62, 100
2, 175292, Note_off_c, 0, 57, 100
2, 175296, Note_on_c, 0, 62, 80
2, 175296, Note_on_c, 0, 66, 80
2, 175296, Note_on_c, 0, 57, 80
2, 175484, Note_off_c, 0, 66, 100
2, 175484, Note_off_c, 0, 57, 100
2, 175488, Note_on_c, 0, 59, 79
2, 175488, Note_on_c, 0, 64, 79
2, 175676, Note_off_c, 0, 62, 100
2, 175676, Note_off_c, 0, 59, 100
2, 175676, Note_off_c, 0, 64, 100
2, 175680, Note_on_c, 0, 64, 78
2, 175680, Note_on_c, 0, 62, 78
2, 175680, Note_on_c, 0, 59, 78
2, 176060, Note_off_c, 0, 64, 100
2, 176060, Note_off_c, 0, 62, 100
2, 176060, Note_off_c, 0, 59, 100
2, 176064, Note_on_c, 0, 64, 76
2, 176064, Note_on_c, 0, 62, 76
2, 176064, Note_on_c, 0, 59, 76
2, 176252, Note_off_c, 0, 62, 100
2, 176252, Note_off_c, 0, 59, 100
2, 176256, Note_on_c, 0, 61, 74
2, 176256, Note_on_c, 0, 55, 74
2, 176444, Note_off_c, 0, 64, 100
2, 176444, Note_off_c, 0, 61, 100
2, 176444, Note_off_c, 0, 55, 100
2, 176448, Note_on_c, 0, 64, 73
2, 176448, Note_on_c, 0, 61, 73
2, 176448, Note_on_c, 0, 55, 73
2, 176828, Note_off_c, 0, 64, 100
2, 176828, Note_off_c, 0, 61, 100
2, 176828, Note_off_c, 0, 55, 100
2, 176832, Note_on_c, 0, 64, 71
2, 176832, Note_on_c, 0, 61, 71
2, 176832, Note_on_c, 0, 55, 71
2, 177020, Note_off_c, 0, 64, 100
2, 177020, Note_off_c, 0, 61, 100
2, 177020, Note_off_c, 0, 55, 100
2, 177120, Note_on_c, 0, 52, 80
2, 177212, Note_off_c, 0, 52, 100
2, 177216, Note_on_c, 0, 54, 80
2, 177308, Note_off_c, 0, 54, 100
2, 177312, Note_on_c, 0, 55, 80
2, 177404, Note_off_c, 0, 55, 100
2, 177408, Note_on_c, 0, 56, 80
2, 177500, Note_off_c, 0, 56, 100
2, 177504, Note_on_c, 0, 57, 80
2, 177596, Note_off_c, 0, 57, 100
2, 177600, Note_on_c, 0, 58, 80
2, 177692, Note_off_c, 0, 58, 100
2, 177696, Note_on_c, 0, 59, 80
2, 177788, Note_off_c, 0, 59, 100
2, 177792, Note_on_c, 0, 60, 80
2, 177884, Note_off_c, 0, 60, 100
2, 177888, Note_on_c, 0, 61, 80
2, 177980, Note_off_c, 0, 61, 100
2, 177984, Note_on_c, 0, 62, 80
2, 178076, Note_off_c, 0, 62, 100
2, 178080, Note_on_c, 0, 63, 80
2, 178172, Note_off_c, 0, 63, 100
2, 178176, Note_on_c, 0, 64, 80
2, 178268, Note_off_c, 0, 64, 100
2, 178272, Note_on_c, 0, 65, 80
2, 178364, Note_off_c, 0, 65, 100
2, 178368, Note_on_c, 0, 66, 80
2, 178460, Note_off_c, 0, 66, 100
2, 178464, Note_on_c, 0, 67, 80
2, 178556, Note_off_c, 0, 67, 100
2, 178560, Note_on_c, 0, 68, 80
2, 178652, Note_off_c, 0, 68, 100
2, 178656, Note_on_c, 0, 69, 80
2, 178748, Note_off_c, 0, 69, 100
2, 178752, Note_on_c, 0, 70, 80
2, 178844, Note_off_c, 0, 70, 100
2, 178848, Note_on_c, 0, 71, 80
2, 178940, Note_off_c, 0, 71, 100
2, 178944, Note_on_c, 0, 72, 80
2, 179036, Note_off_c, 0, 72, 100
2, 179040, Note_on_c, 0, 73, 80
2, 179132, Note_off_c, 0, 73, 100
2, 179136, Note_on_c, 0, 74, 80
2, 179228, Note_off_c, 0, 74, 100
2, 179232, Note_on_c, 0, 75, 80
2, 179324, Note_off_c, 0, 75, 100
2, 179328, Note_on_c, 0, 76, 80
2, 179420, Note_off_c, 0, 76, 100
2, 179424, Note_on_c, 0, 77, 80
2, 179516, Note_off_c, 0, 77, 100
2, 179520, Note_on_c, 0, 78, 80
2, 179612, Note_off_c, 0, 78, 100
2, 179616, Note_on_c, 0, 79, 80
2, 179708, Note_off_c, 0, 79, 100
2, 179712, Note_on_c, 0, 80, 80
2, 179772, Note_off_c, 0, 80, 100
2, 179776, Note_on_c, 0, 81, 80
2, 179836, Note_off_c, 0, 81, 100
2, 179840, Note_on_c, 0, 82, 80
2, 179900, Note_off_c, 0, 82, 100
2, 179904, Note_on_c, 0, 83, 80
2, 179964, Note_off_c, 0, 83, 100
2, 179968, Note_on_c, 0, 84, 80
2, 180028, Note_off_c, 0, 84, 100
2, 180032, Note_on_c, 0, 85, 80
2, 180092, Note_off_c, 0, 85, 100
2, 180096, Note_on_c, 0, 86, 80
2, 180188, Note_off_c, 0, 86, 100
2, 180192, Note_on_c, 0, 85, 80
2, 180284, Note_off_c, 0, 85, 100
2, 180288, Note_on_c, 0, 83, 80
2, 180380, Note_off_c, 0, 83, 100
2, 180384, Note_on_c, 0, 82, 80
2, 180476, Note_off_c, 0, 82, 100
2, 180480, Note_on_c, 0, 81, 80
2, 180572, Note_off_c, 0, 81, 100
2, 180576, Note_on_c, 0, 80, 80
2, 180668, Note_off_c, 0, 80, 100
2, 180672, Note_on_c, 0, 79, 80
2, 180764, Note_off_c, 0, 79, 100
2, 180768, Note_on_c, 0, 78, 80
2, 180860, Note_off_c, 0, 78, 100
2, 180864, Note_on_c, 0, 77, 80
2, 180956, Note_off_c, 0, 77, 100
2, 180960, Note_on_c, 0, 76, 80
2, 181052, Note_off_c, 0, 76, 100
2, 181056, Note_on_c, 0, 75, 80
2, 181148, Note_off_c, 0, 75, 100
2, 181152, Note_on_c, 0, 74, 80
2, 181244, Note_off_c, 0, 74, 100
2, 181248, Note_on_c, 0, 73, 80
2, 181340, Note_off_c, 0, 73, 100
2, 181344, Note_on_c, 0, 72, 80
2, 181436, Note_off_c, 0, 72, 100
2, 181440, Note_on_c, 0, 71, 80
2, 181532, Note_off_c, 0, 71, 100
2, 181536, Note_on_c, 0, 70, 80
2, 181628, Note_off_c, 0, 70, 100
2, 181632, Note_on_c, 0, 69, 80
2, 181724, Note_off_c, 0, 69, 100
2, 181728, Note_on_c, 0, 68, 80
2, 181820, Note_off_c, 0, 68, 100
2, 181824, Note_on_c, 0, 67, 80
2, 181916, Note_off_c, 0, 67, 100
2, 181920, Note_on_c, 0, 66, 80
2, 182012, Note_off_c, 0, 66, 100
2, 182016, Note_on_c, 0, 65, 80
2, 182108, Note_off_c, 0, 65, 100
2, 182112, Note_on_c, 0, 64, 80
2, 182204, Note_off_c, 0, 64, 100
2, 182208, Note_on_c, 0, 63, 80
2, 182300, Note_off_c, 0, 63, 100
2, 182304, Note_on_c, 0, 62, 80
2, 182396, Note_off_c, 0, 62, 100
2, 182400, Note_on_c, 0, 61, 80
2, 182492, Note_off_c, 0, 61, 100
2, 182496, Note_on_c, 0, 59, 80
2, 182588, Note_off_c, 0, 59, 100
2, 182592, Note_on_c, 0, 57, 80
2, 182684, Note_off_c, 0, 57, 100
2, 182688, Note_on_c, 0, 55, 80
2, 182780, Note_off_c, 0, 55, 100
2, 182784, Note_on_c, 0, 54, 80
2, 182876, Note_off_c, 0, 54, 100
2, 182880, Note_on_c, 0, 52, 80
2, 182972, Note_off_c, 0, 52, 100
2, 182976, Note_on_c, 0, 50, 80
2, 183068, Note_off_c, 0, 50, 100
2, 183072, Note_on_c, 0, 49, 80
2, 183164, Note_off_c, 0, 49, 100
2, 183360, Note_on_c, 0, 54, 80
2, 183452, Note_off_c, 0, 54, 100
2, 183456, Note_on_c, 0, 57, 80
2, 183548, Note_off_c, 0, 57, 100
2, 183552, Note_on_c, 0, 62, 80
2, 183644, Note_off_c, 0, 62, 100
2, 183648, Note_on_c, 0, 66, 80
2, 183740, Note_off_c, 0, 66, 100
2, 183744, Note_on_c, 0, 69, 80
2, 183836, Note_off_c, 0, 69, 100
2, 183840, Note_on_c, 0, 62, 80
2, 183932, Note_off_c, 0, 62, 100
2, 183936, Note_on_c, 0, 61, 80
2, 184028, Note_off_c, 0, 61, 100
2, 184032, Note_on_c, 0, 57, 80
2, 184124, Note_off_c, 0, 57, 100
2, 184128, Note_on_c, 0, 61, 80
2, 184220, Note_off_c, 0, 61, 100
2, 184224, Note_on_c, 0, 64, 80
2, 184316, Note_off_c, 0, 64, 100
2, 184320, Note_on_c, 0, 67, 80
2, 184412, Note_off_c, 0, 67, 100
2, 184416, Note_on_c, 0, 69, 80
2, 184508, Note_off_c, 0, 69, 100
2, 184512, Note_on_c, 0, 73, 80
2, 184604, Note_off_c, 0, 73, 100
2, 184608, Note_on_c, 0, 69, 80
2, 184700, Note_off_c, 0, 69, 100
2, 184704, Note_on_c, 0, 74, 80
2, 184796, Note_off_c, 0, 74, 100
2, 184800, Note_on_c, 0, 62, 80
2, 184892, Note_off_c, 0, 62, 100
2, 184896, Note_on_c, 0, 66, 80
2, 184988, Note_off_c, 0, 66, 100
2, 184992, Note_on_c, 0, 69, 80
2, 185084, Note_off_c, 0, 69, 100
2, 185088, Note_on_c, 0, 74, 80
2, 185180, Note_off_c, 0, 74, 100
2, 185184, Note_on_c, 0, 78, 80
2, 185276, Note_off_c, 0, 78, 100
2, 185280, Note_on_c, 0, 81, 80
2, 185372, Note_off_c, 0, 81, 100
2, 185376, Note_on_c, 0, 74, 80
2, 185468, Note_off_c, 0, 74, 100
2, 185472, Note_on_c, 0, 73, 80
2, 185564, Note_off_c, 0, 73, 100
2, 185568, Note_on_c, 0, 69, 80
2, 185660, Note_off_c, 0, 69, 100
2, 185664, Note_on_c, 0, 73, 80
2, 185756, Note_off_c, 0, 73, 100
2, 185760, Note_on_c, 0, 76, 80
2, 185852, Note_off_c, 0, 76, 100
2, 185856, Note_on_c, 0, 79, 80
2, 185948, Note_off_c, 0, 79, 100
2, 185952, Note_on_c, 0, 81, 80
2, 186044, Note_off_c, 0, 81, 100
2, 186048, Note_on_c, 0, 85, 80
2, 186140, Note_off_c, 0, 85, 100
2, 186144, Note_on_c, 0, 81, 80
2, 186236, Note_off_c, 0, 81, 100
2, 186240, Note_on_c, 0, 86, 80
2, 186332, Note_off_c, 0, 86, 100
2, 186336, Note_on_c, 0, 81, 80
2, 186428, Note_off_c, 0, 81, 100
2, 186432, Note_on_c, 0, 78, 80
2, 186524, Note_off_c, 0, 78, 100
2, 186528, Note_on_c, 0, 74, 80
2, 186620, Note_off_c, 0, 74, 100
2, 186624, Note_on_c, 0, 69, 80
2, 186716, Note_off_c, 0, 69, 100
2, 186720, Note_on_c, 0, 74, 80
2, 186812, Note_off_c, 0, 74, 100
2, 186816, Note_on_c, 0, 69, 80
2, 186908, Note_off_c, 0, 69, 100
2, 186912, Note_on_c, 0, 66, 80
2, 187004, Note_off_c, 0, 66, 100
2, 187008, Note_on_c, 0, 62, 80
2, 187100, Note_off_c, 0, 62, 100
2, 187104, Note_on_c, 0, 57, 80
2, 187196, Note_off_c, 0, 57, 100
2, 187200, Note_on_c, 0, 54, 80
2, 187292, Note_off_c, 0, 54, 100
2, 187296, Note_on_c, 0, 57, 80
2, 187388, Note_off_c, 0, 57, 100
2, 189312, Control_c, 0, 7, 0
2, 189696, Note_on_c, 0, 62, 1
2, 189884, Note_off_c, 0, 62, 100
2, 189884, End_track
3, 0, Start_track
3, 0, Title_t, "Left"
3, 0, Control_c, 1, 0, 0
3, 0, Program_c, 1, 0
3, 0, Control_c, 1, 7, 100
3, 0, Control_c, 1, 10, 58
3, 0, Control_c, 1, 91, 127
3, 0, Key_signature, 2, "major"
3, 192, Note_on_c, 1, 50, 80
3, 380, Note_off_c, 1, 50, 100
3, 384, Note_on_c, 1, 47, 80
3, 572, Note_off_c, 1, 47, 100
3, 576, Note_on_c, 1, 43, 80
3, 764, Note_off_c, 1, 43, 100
3, 1728, Note_on_c, 1, 50, 80
3, 1916, Note_off_c, 1, 50, 100
3, 1920, Note_on_c, 1, 47, 80
3, 2108, Note_off_c, 1, 47, 100
3, 2112, Note_on_c, 1, 43, 80
3, 2300, Note_off_c, 1, 43, 100
3, 3264, Note_on_c, 1, 67, 80
3, 3452, Note_off_c, 1, 67, 100
3, 3456, Note_on_c, 1, 66, 80
3, 3836, Note_off_c, 1, 66, 100
3, 3840, Note_on_c, 1, 67, 87
3, 3840, Note_on_c, 1, 64, 87
3, 4220, Note_off_c, 1, 67, 100
3, 4220, Note_off_c, 1, 64, 100
3, 4224, Note_on_c, 1, 62, 94
3, 4224, Note_on_c, 1, 66, 94
3, 4604, Note_off_c, 1, 62, 100
3, 4604, Note_off_c, 1, 66, 100
3, 4608, Note_on_c, 1, 61, 102
3, 4608, Note_on_c, 1, 69, 102
3, 4608, Note_on_c, 1, 64, 102
3, 4988, Note_off_c, 1, 61, 100
3, 4992, Note_on_c, 1, 62, 100
3, 4992, Note_on_c, 1, 59, 100
3, 5756, Note_off_c, 1, 59, 100
3, 5760, Note_on_c, 1, 57, 91
3, 7292, Note_off_c, 1, 62, 100
3, 7292, Note_off_c, 1, 69, 100
3, 7296, Note_on_c, 1, 69, 80
3, 7296, Note_on_c, 1, 61, 80
3, 7484, Note_off_c, 1, 57, 100
3, 7868, Note_off_c, 1, 64, 100
3, 7868, Note_off_c, 1, 69, 100
3, 7868, Note_off_c, 1, 61, 100
3, 7872, Note_on_c, 1, 50, 80
3, 8060, Note_off_c, 1, 50, 100
3, 8064, Note_on_c, 1, 47, 80
3, 8252, Note_off_c, 1, 47, 100
3, 8256, Note_on_c, 1, 43, 80
3, 8444, Note_off_c, 1, 43, 100
3, 8640, Note_on_c, 1, 54, 80
3, 8828, Note_off_c, 1, 54, 100
3, 8832, Note_on_c, 1, 50, 83
3, 9020, Note_off_c, 1, 50, 100
3, 9024, Note_on_c, 1, 47, 86
3, 9212, Note_off_c, 1, 47, 100
3, 9408, Note_on_c, 1, 57, 93
3, 9596, Note_off_c, 1, 57, 100
3, 9600, Note_on_c, 1, 54, 96
3, 9788, Note_off_c, 1, 54, 100
3, 9792, Note_on_c, 1, 50, 99
3, 9980, Note_off_c, 1, 50, 100
3, 10176, Note_on_c, 1, 55, 80
3, 10176, Note_on_c, 1, 43, 80
3, 10364, Note_off_c, 1, 55, 100
3, 10364, Note_off_c, 1, 43, 100
3, 10368, Note_on_c, 1, 54, 80
3, 10368, Note_on_c, 1, 45, 80
3, 10748, Note_off_c, 1, 54, 100
3, 10752, Note_on_c, 1, 55, 80
3, 11132, Note_off_c, 1, 45, 100
3, 11132, Note_off_c, 1, 55, 100
3, 11136, Note_on_c, 1, 54, 80
3, 11136, Note_on_c, 1, 47, 80
3, 11516, Note_off_c, 1, 54, 100
3, 11516, Note_off_c, 1, 47, 100
3, 12480, Note_on_c, 1, 72, 120
3, 12480, Note_on_c, 1, 69, 120
3, 12668, Note_off_c, 1, 72, 100
3, 12668, Note_off_c, 1, 69, 100
3, 12672, Note_on_c, 1, 71, 120
3, 12672, Note_on_c, 1, 67, 120
3, 12860, Note_off_c, 1, 71, 100
3, 12860, Note_off_c, 1, 67, 100
3, 12864, Note_on_c, 1, 67, 120
3, 12864, Note_on_c, 1, 64, 120
3, 13052, Note_off_c, 1, 67, 100
3, 13052, Note_off_c, 1, 64, 100
3, 13248, Note_on_c, 1, 55, 80
3, 13248, Note_on_c, 1, 43, 80
3, 13436, Note_off_c, 1, 55, 100
3, 13436, Note_off_c, 1, 43, 100
3, 13440, Note_on_c, 1, 54, 80
3, 13440, Note_on_c, 1, 45, 80
3, 13820, Note_off_c, 1, 54, 100
3, 13824, Note_on_c, 1, 55, 80
3, 14204, Note_off_c, 1, 45, 100
3, 14204, Note_off_c, 1, 55, 100
3, 14208, Note_on_c, 1, 38, 80
3, 14300, Note_off_c, 1, 38, 100
3, 14304, Note_on_c, 1, 50, 80
3, 14396, Note_off_c, 1, 50, 100
3, 14400, Note_on_c, 1, 49, 80
3, 14492, Note_off_c, 1, 49, 100
3, 14496, Note_on_c, 1, 50, 80
3, 14588, Note_off_c, 1, 50, 100
3, 14592, Note_on_c, 1, 52, 80
3, 14684, Note_off_c, 1, 52, 100
3, 14688, Note_on_c, 1, 50, 80
3, 14780, Note_off_c, 1, 50, 100
3, 14784, Note_on_c, 1, 49, 80
3, 14876, Note_off_c, 1, 49, 100
3, 14880, Note_on_c, 1, 50, 80
3, 14972, Note_off_c, 1, 50, 100
3, 14976, Note_on_c, 1, 47, 80
3, 15068, Note_off_c, 1, 47, 100
3, 15072, Note_on_c, 1, 50, 80
3, 15164, Note_off_c, 1, 50, 100
3, 15168, Note_on_c, 1, 49, 80
3, 15260, Note_off_c, 1, 49, 100
3, 15264, Note_on_c, 1, 50, 80
3, 15356, Note_off_c, 1, 50, 100
3, 15360, Note_on_c, 1, 52, 80
3, 15452, Note_off_c, 1, 52, 100
3, 15456, Note_on_c, 1, 50, 80
3, 15548, Note_off_c, 1, 50, 100
3, 15552, Note_on_c, 1, 49, 80
3, 15644, Note_off_c, 1, 49, 100
3, 15648, Note_on_c, 1, 50, 80
3, 15740, Note_off_c, 1, 50, 100
3, 15744, Note_on_c, 1, 45, 80
3, 15836, Note_off_c, 1, 45, 100
3, 15840, Note_on_c, 1, 50, 80
3, 15932, Note_off_c, 1, 50, 100
3, 15936, Note_on_c, 1, 49, 80
3, 16028, Note_off_c, 1, 49, 100
3, 16032, Note_on_c, 1, 50, 80
3, 16124, Note_off_c, 1, 50, 100
3, 16128, Note_on_c, 1, 52, 80
3, 16220, Note_off_c, 1, 52, 100
3, 16224, Note_on_c, 1, 50, 80
3, 16316, Note_off_c, 1, 50, 100
3, 16320, Note_on_c, 1, 49, 80
3, 16412, Note_off_c, 1, 49, 100
3, 16416, Note_on_c, 1, 50, 80
3, 16508, Note_off_c, 1, 50, 100
3, 16512, Note_on_c, 1, 43, 80
3, 16604, Note_off_c, 1, 43, 100
3, 16608, Note_on_c, 1, 50, 80
3, 16700, Note_off_c, 1, 50, 100
3, 16704, Note_on_c, 1, 49, 80
3, 16796, Note_off_c, 1, 49, 100
3, 16800, Note_on_c, 1, 50, 80
3, 16892, Note_off_c, 1, 50, 100
3, 16896, Note_on_c, 1, 52, 80
3, 16988, Note_off_c, 1, 52, 100
3, 16992, Note_on_c, 1, 50, 80
3, 17084, Note_off_c, 1, 50, 100
3, 17088, Note_on_c, 1, 49, 80
3, 17180, Note_off_c, 1, 49, 100
3, 17184, Note_on_c, 1, 50, 80
3, 17276, Note_off_c, 1, 50, 100
3, 17280, Note_on_c, 1, 42, 80
3, 17372, Note_off_c, 1, 42, 100
3, 17376, Note_on_c, 1, 50, 80
3, 17468, Note_off_c, 1, 50, 100
3, 17472, Note_on_c, 1, 49, 80
3, 17564, Note_off_c, 1, 49, 100
3, 17568, Note_on_c, 1, 50, 80
3, 17660, Note_off_c, 1, 50, 100
3, 17664, Note_on_c, 1, 52, 80
3, 17756, Note_off_c, 1, 52, 100
3, 17760, Note_on_c, 1, 50, 80
3, 17852, Note_off_c, 1, 50, 100
3, 17856, Note_on_c, 1, 49, 80
3, 17948, Note_off_c, 1, 49, 100
3, 17952, Note_on_c, 1, 50, 80
3, 18044, Note_off_c, 1, 50, 100
3, 18048, Note_on_c, 1, 47, 80
3, 18140, Note_off_c, 1, 47, 100
3, 18144, Note_on_c, 1, 50, 80
3, 18236, Note_off_c, 1, 50, 100
3, 18240, Note_on_c, 1, 49, 80
3, 18332, Note_off_c, 1, 49, 100
3, 18336, Note_on_c, 1, 50, 80
3, 18428, Note_off_c, 1, 50, 100
3, 18432, Note_on_c, 1, 52, 80
3, 18524, Note_off_c, 1, 52, 100
3, 18528, Note_on_c, 1, 50, 80
3, 18620, Note_off_c, 1, 50, 100
3, 18624, Note_on_c, 1, 49, 80
3, 18716, Note_off_c, 1, 49, 100
3, 18720, Note_on_c, 1, 50, 80
3, 18812, Note_off_c, 1, 50, 100
3, 18816, Note_on_c, 1, 45, 80
3, 18908, Note_off_c, 1, 45, 100
3, 18912, Note_on_c, 1, 50, 80
3, 19004, Note_off_c, 1, 50, 100
3, 19008, Note_on_c, 1, 49, 80
3, 19100, Note_off_c, 1, 49, 100
3, 19104, Note_on_c, 1, 50, 80
3, 19196, Note_off_c, 1, 50, 100
3, 19200, Note_on_c, 1, 52, 80
3, 19292, Note_off_c, 1, 52, 100
3, 19296, Note_on_c, 1, 50, 80
3, 19388, Note_off_c, 1, 50, 100
3, 19392, Note_on_c, 1, 49, 80
3, 19484, Note_off_c, 1, 49, 100
3, 19488, Note_on_c, 1, 50, 80
3, 19580, Note_off_c, 1, 50, 100
3, 19584, Note_on_c, 1, 43, 80
3, 19676, Note_off_c, 1, 43, 100
3, 19680, Note_on_c, 1, 50, 80
3, 19772, Note_off_c, 1, 50, 100
3, 19776, Note_on_c, 1, 49, 80
3, 19868, Note_off_c, 1, 49, 100
3, 19872, Note_on_c, 1, 50, 80
3, 19964, Note_off_c, 1, 50, 100
3, 19968, Note_on_c, 1, 52, 80
3, 20060, Note_off_c, 1, 52, 100
3, 20064, Note_on_c, 1, 50, 80
3, 20156, Note_off_c, 1, 50, 100
3, 20160, Note_on_c, 1, 49, 80
3, 20252, Note_off_c, 1, 49, 100
3, 20256, Note_on_c, 1, 50, 80
3, 20348, Note_off_c, 1, 50, 100
3, 20352, Note_on_c, 1, 42, 80
3, 20444, Note_off_c, 1, 42, 100
3, 20448, Note_on_c, 1, 50, 80
3, 20540, Note_off_c, 1, 50, 100
3, 20544, Note_on_c, 1, 49, 80
3, 20636, Note_off_c, 1, 49, 100
3, 20640, Note_on_c, 1, 50, 80
3, 20732, Note_off_c, 1, 50, 100
3, 20736, Note_on_c, 1, 52, 80
3, 20828, Note_off_c, 1, 52, 100
3, 20832, Note_on_c, 1, 50, 80
3, 20924, Note_off_c, 1, 50, 100
3, 20928, Note_on_c, 1, 49, 80
3, 21020, Note_off_c, 1, 49, 100
3, 21024, Note_on_c, 1, 50, 80
3, 21116, Note_off_c, 1, 50, 100
3, 21120, Note_on_c, 1, 62, 80
3, 21120, Note_on_c, 1, 59, 80
3, 21504, Note_on_c, 1, 67, 85
3, 21884, Note_off_c, 1, 59, 100
3, 21888, Note_on_c, 1, 57, 90
3, 22076, Note_off_c, 1, 67, 100
3, 22080, Note_on_c, 1, 66, 93
3, 22268, Note_off_c, 1, 66, 100
3, 22272, Note_on_c, 1, 67, 95
3, 22460, Note_off_c, 1, 67, 100
3, 22464, Note_on_c, 1, 69, 98
3, 22652, Note_off_c, 1, 62, 100
3, 22652, Note_off_c, 1, 57, 100
3, 22652, Note_off_c, 1, 69, 100
3, 22656, Note_on_c, 1, 70, 100
3, 22656, Note_on_c, 1, 67, 100
3, 22844, Note_off_c, 1, 70, 100
3, 22848, Note_on_c, 1, 71, 103
3, 23036, Note_off_c, 1, 71, 100
3, 23040, Note_on_c, 1, 73, 106
3, 23228, Note_off_c, 1, 73, 100
3, 23232, Note_on_c, 1, 74, 108
3, 23420, Note_off_c, 1, 67, 100
3, 23420, Note_off_c, 1, 74, 100
3, 23424, Note_on_c, 1, 66, 110
3, 23424, Note_on_c, 1, 74, 110
3, 23804, Note_off_c, 1, 74, 100
3, 23808, Note_on_c, 1, 73, 110
3, 23996, Note_off_c, 1, 73, 100
3, 24188, Note_off_c, 1, 66, 100
3, 24192, Note_on_c, 1, 65, 110
3, 24288, Note_on_c, 1, 69, 110
3, 24380, Note_off_c, 1, 69, 100
3, 24384, Note_on_c, 1, 68, 110
3, 24476, Note_off_c, 1, 68, 100
3, 24480, Note_on_c, 1, 69, 110
3, 24572, Note_off_c, 1, 69, 100
3, 24576, Note_on_c, 1, 71, 110
3, 24668, Note_off_c, 1, 71, 100
3, 24672, Note_on_c, 1, 69, 110
3, 24764, Note_off_c, 1, 69, 100
3, 24768, Note_on_c, 1, 68, 110
3, 24860, Note_off_c, 1, 68, 100
3, 24864, Note_on_c, 1, 69, 110
3, 24956, Note_off_c, 1, 65, 100
3, 24956, Note_off_c, 1, 69, 100
3, 24960, Note_on_c, 1, 64, 110
3, 24960, Note_on_c, 1, 68, 110
3, 25340, Note_off_c, 1, 64, 100
3, 25340, Note_off_c, 1, 68, 100
3, 26688, Note_on_c, 1, 62, 80
3, 26876, Note_off_c, 1, 62, 100
3, 26880, Note_on_c, 1, 62, 80
3, 27068, Note_off_c, 1, 62, 100
3, 27456, Note_on_c, 1, 62, 80
3, 27456, Note_on_c, 1, 64, 80
3, 27644, Note_off_c, 1, 62, 100
3, 27644, Note_off_c, 1, 64, 100
3, 27648, Note_on_c, 1, 62, 80
3, 27648, Note_on_c, 1, 64, 80
3, 27836, Note_off_c, 1, 62, 100
3, 27836, Note_off_c, 1, 64, 100
3, 28224, Note_on_c, 1, 61, 80
3, 28224, Note_on_c, 1, 64, 80
3, 28412, Note_off_c, 1, 61, 100
3, 28412, Note_off_c, 1, 64, 100
3, 28416, Note_on_c, 1, 61, 80
3, 28416, Note_on_c, 1, 64, 80
3, 28604, Note_off_c, 1, 61, 100
3, 28604, Note_off_c, 1, 64, 100
3, 29760, Note_on_c, 1, 59, 110
3, 29760, Note_on_c, 1, 52, 110
3, 29760, Note_on_c, 1, 50, 110
3, 29948, Note_off_c, 1, 59, 100
3, 29948, Note_off_c, 1, 52, 100
3, 29948, Note_off_c, 1, 50, 100
3, 29952, Note_on_c, 1, 59, 110
3, 29952, Note_on_c, 1, 52, 110
3, 29952, Note_on_c, 1, 50, 110
3, 30140, Note_off_c, 1, 59, 100
3, 30140, Note_off_c, 1, 52, 100
3, 30140, Note_off_c, 1, 50, 100
3, 30528, Note_on_c, 1, 59, 110
3, 30528, Note_on_c, 1, 52, 110
3, 30528, Note_on_c, 1, 50, 110
3, 30716, Note_off_c, 1, 59, 100
3, 30716, Note_off_c, 1, 52, 100
3, 30716, Note_off_c, 1, 50, 100
3, 30720, Note_on_c, 1, 59, 110
3, 30720, Note_on_c, 1, 52, 110
3, 30720, Note_on_c, 1, 50, 110
3, 30908, Note_off_c, 1, 59, 100
3, 30908, Note_off_c, 1, 52, 100
3, 30908, Note_off_c, 1, 50, 100
3, 31296, Note_on_c, 1, 57, 110
3, 31296, Note_on_c, 1, 52, 110
3, 31296, Note_on_c, 1, 49, 110
3, 31484, Note_off_c, 1, 57, 100
3, 31484, Note_off_c, 1, 52, 100
3, 31484, Note_off_c, 1, 49, 100
3, 31488, Note_on_c, 1, 57, 110
3, 31488, Note_on_c, 1, 52, 110
3, 31488, Note_on_c, 1, 49, 110
3, 31676, Note_off_c, 1, 57, 100
3, 31676, Note_off_c, 1, 52, 100
3, 31676, Note_off_c, 1, 49, 100
3, 32832, Note_on_c, 1, 62, 80
3, 33020, Note_off_c, 1, 62, 100
3, 33024, Note_on_c, 1, 62, 80
3, 33212, Note_off_c, 1, 62, 100
3, 33600, Note_on_c, 1, 62, 80
3, 33600, Note_on_c, 1, 64, 80
3, 33788, Note_off_c, 1, 62, 100
3, 33788, Note_off_c, 1, 64, 100
3, 33792, Note_on_c, 1, 62, 80
3, 33792, Note_on_c, 1, 64, 80
3, 33980, Note_off_c, 1, 62, 100
3, 33980, Note_off_c, 1, 64, 100
3, 34368, Note_on_c, 1, 61, 83
3, 34368, Note_on_c, 1, 64, 83
3, 34556, Note_off_c, 1, 61, 100
3, 34556, Note_off_c, 1, 64, 100
3, 34560, Note_on_c, 1, 61, 87
3, 34560, Note_on_c, 1, 64, 87
3, 34748, Note_off_c, 1, 61, 100
3, 34748, Note_off_c, 1, 64, 100
3, 35712, Note_on_c, 1, 45, 120
3, 35712, Note_on_c, 1, 37, 120
3, 40124, Note_off_c, 1, 37, 100
3, 40124, Note_off_c, 1, 45, 100
3, 40128, Note_on_c, 1, 50, 80
3, 40316, Note_off_c, 1, 50, 100
3, 40320, Note_on_c, 1, 47, 80
3, 40508, Note_off_c, 1, 47, 100
3, 40512, Note_on_c, 1, 43, 80
3, 40700, Note_off_c, 1, 43, 100
3, 41664, Note_on_c, 1, 50, 80
3, 41852, Note_off_c, 1, 50, 100
3, 41856, Note_on_c, 1, 47, 80
3, 42044, Note_off_c, 1, 47, 100
3, 42048, Note_on_c, 1, 43, 80
3, 42236, Note_off_c, 1, 43, 100
3, 43200, Note_on_c, 1, 67, 80
3, 43388, Note_off_c, 1, 67, 100
3, 43392, Note_on_c, 1, 66, 80
3, 43772, Note_off_c, 1, 66, 100
3, 43776, Note_on_c, 1, 67, 87
3, 43776, Note_on_c, 1, 64, 87
3, 44156, Note_off_c, 1, 67, 100
3, 44156, Note_off_c, 1, 64, 100
3, 44160, Note_on_c, 1, 62, 94
3, 44160, Note_on_c, 1, 66, 94
3, 44540, Note_off_c, 1, 62, 100
3, 44540, Note_off_c, 1, 66, 100
3, 44544, Note_on_c, 1, 61, 102
3, 44544, Note_on_c, 1, 69, 102
3, 44544, Note_on_c, 1, 64, 102
3, 44924, Note_off_c, 1, 61, 100
3, 44928, Note_on_c, 1, 62, 100
3, 44928, Note_on_c, 1, 59, 100
3, 45692, Note_off_c, 1, 59, 100
3, 45696, Note_on_c, 1, 57, 91
3, 47228, Note_off_c, 1, 62, 100
3, 47228, Note_off_c, 1, 69, 100
3, 47232, Note_on_c, 1, 69, 80
3, 47232, Note_on_c, 1, 61, 80
3, 47420, Note_off_c, 1, 57, 100
3, 47804, Note_off_c, 1, 64, 100
3, 47804, Note_off_c, 1, 69, 100
3, 47804, Note_off_c, 1, 61, 100
3, 47808, Note_on_c, 1, 50, 80
3, 47996, Note_off_c, 1, 50, 100
3, 48000, Note_on_c, 1, 47, 80
3, 48188, Note_off_c, 1, 47, 100
3, 48192, Note_on_c, 1, 43, 80
3, 48380, Note_off_c, 1, 43, 100
3, 48576, Note_on_c, 1, 54, 80
3, 48764, Note_off_c, 1, 54, 100
3, 48768, Note_on_c, 1, 50, 84
3, 48956, Note_off_c, 1, 50, 100
3, 48960, Note_on_c, 1, 47, 89
3, 49148, Note_off_c, 1, 47, 100
3, 49344, Note_on_c, 1, 57, 99
3, 49532, Note_off_c, 1, 57, 100
3, 49536, Note_on_c, 1, 54, 104
3, 49724, Note_off_c, 1, 54, 100
3, 49728, Note_on_c, 1, 50, 109
3, 49916, Note_off_c, 1, 50, 100
3, 50112, Note_on_c, 1, 55, 80
3, 50112, Note_on_c, 1, 43, 80
3, 50300, Note_off_c, 1, 55, 100
3, 50300, Note_off_c, 1, 43, 100
3, 50304, Note_on_c, 1, 54, 80
3, 50304, Note_on_c, 1, 45, 80
3, 50684, Note_off_c, 1, 54, 100
3, 50688, Note_on_c, 1, 55, 80
3, 51068, Note_off_c, 1, 45, 100
3, 51068, Note_off_c, 1, 55, 100
3, 51072, Note_on_c, 1, 54, 80
3, 51072, Note_on_c, 1, 47, 80
3, 51452, Note_off_c, 1, 54, 100
3, 51452, Note_off_c, 1, 47, 100
3, 52416, Note_on_c, 1, 72, 120
3, 52416, Note_on_c, 1, 69, 120
3, 52604, Note_off_c, 1, 72, 100
3, 52604, Note_off_c, 1, 69, 100
3, 52608, Note_on_c, 1, 71, 120
3, 52608, Note_on_c, 1, 67, 120
3, 52796, Note_off_c, 1, 71, 100
3, 52796, Note_off_c, 1, 67, 100
3, 52800, Note_on_c, 1, 67, 120
3, 52800, Note_on_c, 1, 64, 120
3, 52988, Note_off_c, 1, 67, 100
3, 52988, Note_off_c, 1, 64, 100
3, 53184, Note_on_c, 1, 55, 80
3, 53184, Note_on_c, 1, 43, 80
3, 53372, Note_off_c, 1, 55, 100
3, 53372, Note_off_c, 1, 43, 100
3, 53376, Note_on_c, 1, 54, 80
3, 53376, Note_on_c, 1, 45, 80
3, 53756, Note_off_c, 1, 54, 100
3, 53760, Note_on_c, 1, 55, 80
3, 54140, Note_off_c, 1, 45, 100
3, 54140, Note_off_c, 1, 55, 100
3, 54144, Note_on_c, 1, 46, 120
3, 54144, Note_on_c, 1, 34, 120
3, 54716, Note_off_c, 1, 34, 100
3, 54720, Note_on_c, 1, 33, 120
3, 54908, Note_off_c, 1, 33, 100
3, 54912, Note_on_c, 1, 34, 120
3, 55100, Note_off_c, 1, 34, 100
3, 55104, Note_on_c, 1, 38, 120
3, 55292, Note_off_c, 1, 38, 100
3, 55488, Note_on_c, 1, 33, 120
3, 55676, Note_off_c, 1, 33, 100
3, 55680, Note_on_c, 1, 34, 120
3, 55868, Note_off_c, 1, 34, 100
3, 55872, Note_on_c, 1, 38, 120
3, 56060, Note_off_c, 1, 38, 100
3, 56256, Note_on_c, 1, 33, 120
3, 56444, Note_off_c, 1, 33, 100
3, 56448, Note_on_c, 1, 34, 120
3, 56636, Note_off_c, 1, 34, 100
3, 56640, Note_on_c, 1, 38, 120
3, 56828, Note_off_c, 1, 38, 100
3, 57020, Note_off_c, 1, 46, 100
3, 57024, Note_on_c, 1, 45, 120
3, 57212, Note_off_c, 1, 45, 100
3, 57216, Key_signature, 0, "major"
3, 57216, Note_on_c, 1, 46, 80
3, 57308, Note_off_c, 1, 46, 100
3, 57312, Note_on_c, 1, 53, 80
3, 57404, Note_off_c, 1, 53, 100
3, 57408, Note_on_c, 1, 50, 80
3, 57500, Note_off_c, 1, 50, 100
3, 57504, Note_on_c, 1, 53, 80
3, 57596, Note_off_c, 1, 53, 100
3, 57600, Note_on_c, 1, 46, 80
3, 57692, Note_off_c, 1, 46, 100
3, 57696, Note_on_c, 1, 53, 80
3, 57788, Note_off_c, 1, 53, 100
3, 57792, Note_on_c, 1, 50, 80
3, 57884, Note_off_c, 1, 50, 100
3, 57888, Note_on_c, 1, 53, 80
3, 57980, Note_off_c, 1, 53, 100
3, 57984, Note_on_c, 1, 46, 80
3, 58076, Note_off_c, 1, 46, 100
3, 58080, Note_on_c, 1, 53, 80
3, 58172, Note_off_c, 1, 53, 100
3, 58176, Note_on_c, 1, 50, 80
3, 58268, Note_off_c, 1, 50, 100
3, 58272, Note_on_c, 1, 53, 80
3, 58364, Note_off_c, 1, 53, 100
3, 58368, Note_on_c, 1, 46, 80
3, 58460, Note_off_c, 1, 46, 100
3, 58464, Note_on_c, 1, 53, 80
3, 58556, Note_off_c, 1, 53, 100
3, 58560, Note_on_c, 1, 50, 80
3, 58652, Note_off_c, 1, 50, 100
3, 58656, Note_on_c, 1, 53, 80
3, 58748, Note_off_c, 1, 53, 100
3, 58752, Note_on_c, 1, 48, 80
3, 58844, Note_off_c, 1, 48, 100
3, 58848, Note_on_c, 1, 53, 80
3, 58940, Note_off_c, 1, 53, 100
3, 58944, Note_on_c, 1, 51, 80
3, 59036, Note_off_c, 1, 51, 100
3, 59040, Note_on_c, 1, 53, 80
3, 59132, Note_off_c, 1, 53, 100
3, 59136, Note_on_c, 1, 48, 80
3, 59228, Note_off_c, 1, 48, 100
3, 59232, Note_on_c, 1, 53, 80
3, 59324, Note_off_c, 1, 53, 100
3, 59328, Note_on_c, 1, 51, 80
3, 59420, Note_off_c, 1, 51, 100
3, 59424, Note_on_c, 1, 53, 80
3, 59516, Note_off_c, 1, 53, 100
3, 59520, Note_on_c, 1, 45, 80
3, 59612, Note_off_c, 1, 45, 100
3, 59616, Note_on_c, 1, 53, 80
3, 59708, Note_off_c, 1, 53, 100
3, 59712, Note_on_c, 1, 48, 80
3, 59804, Note_off_c, 1, 48, 100
3, 59808, Note_on_c, 1, 53, 80
3, 59900, Note_off_c, 1, 53, 100
3, 59904, Note_on_c, 1, 45, 80
3, 59996, Note_off_c, 1, 45, 100
3, 60000, Note_on_c, 1, 53, 80
3, 60092, Note_off_c, 1, 53, 100
3, 60096, Note_on_c, 1, 48, 80
3, 60188, Note_off_c, 1, 48, 100
3, 60192, Note_on_c, 1, 53, 80
3, 60284, Note_off_c, 1, 53, 100
3, 60288, Note_on_c, 1, 46, 80
3, 60380, Note_off_c, 1, 46, 100
3, 60384, Note_on_c, 1, 50, 80
3, 60476, Note_off_c, 1, 50, 100
3, 60480, Note_on_c, 1, 43, 80
3, 60572, Note_off_c, 1, 43, 100
3, 60576, Note_on_c, 1, 50, 80
3, 60668, Note_off_c, 1, 50, 100
3, 60672, Note_on_c, 1, 46, 80
3, 60764, Note_off_c, 1, 46, 100
3, 60768, Note_on_c, 1, 50, 80
3, 60860, Note_off_c, 1, 50, 100
3, 60864, Note_on_c, 1, 43, 80
3, 60956, Note_off_c, 1, 43, 100
3, 60960, Note_on_c, 1, 50, 80
3, 61052, Note_off_c, 1, 50, 100
3, 61056, Note_on_c, 1, 46, 80
3, 61148, Note_off_c, 1, 46, 100
3, 61152, Note_on_c, 1, 50, 80
3, 61244, Note_off_c, 1, 50, 100
3, 61248, Note_on_c, 1, 43, 80
3, 61340, Note_off_c, 1, 43, 100
3, 61344, Note_on_c, 1, 50, 80
3, 61436, Note_off_c, 1, 50, 100
3, 61440, Note_on_c, 1, 46, 80
3, 61532, Note_off_c, 1, 46, 100
3, 61536, Note_on_c, 1, 50, 80
3, 61628, Note_off_c, 1, 50, 100
3, 61632, Note_on_c, 1, 43, 80
3, 61724, Note_off_c, 1, 43, 100
3, 61728, Note_on_c, 1, 50, 80
3, 61820, Note_off_c, 1, 50, 100
3, 61824, Note_on_c, 1, 45, 80
3, 61916, Note_off_c, 1, 45, 100
3, 61920, Note_on_c, 1, 50, 80
3, 62012, Note_off_c, 1, 50, 100
3, 62016, Note_on_c, 1, 48, 80
3, 62108, Note_off_c, 1, 48, 100
3, 62112, Note_on_c, 1, 50, 80
3, 62204, Note_off_c, 1, 50, 100
3, 62208, Note_on_c, 1, 45, 80
3, 62300, Note_off_c, 1, 45, 100
3, 62304, Note_on_c, 1, 50, 80
3, 62396, Note_off_c, 1, 50, 100
3, 62400, Note_on_c, 1, 48, 80
3, 62492, Note_off_c, 1, 48, 100
3, 62496, Note_on_c, 1, 50, 80
3, 62588, Note_off_c, 1, 50, 100
3, 62592, Note_on_c, 1, 42, 80
3, 62684, Note_off_c, 1, 42, 100
3, 62688, Note_on_c, 1, 50, 80
3, 62780, Note_off_c, 1, 50, 100
3, 62784, Note_on_c, 1, 45, 80
3, 62876, Note_off_c, 1, 45, 100
3, 62880, Note_on_c, 1, 50, 80
3, 62972, Note_off_c, 1, 50, 100
3, 62976, Note_on_c, 1, 42, 80
3, 63068, Note_off_c, 1, 42, 100
3, 63072, Note_on_c, 1, 50, 80
3, 63164, Note_off_c, 1, 50, 100
3, 63168, Note_on_c, 1, 45, 80
3, 63260, Note_off_c, 1, 45, 100
3, 63264, Note_on_c, 1, 50, 80
3, 63356, Note_off_c, 1, 50, 100
3, 63360, Note_on_c, 1, 43, 80
3, 63452, Note_off_c, 1, 43, 100
3, 63456, Note_on_c, 1, 46, 80
3, 63548, Note_off_c, 1, 46, 100
3, 63552, Note_on_c, 1, 39, 80
3, 63644, Note_off_c, 1, 39, 100
3, 63648, Note_on_c, 1, 46, 80
3, 63740, Note_off_c, 1, 46, 100
3, 63744, Note_on_c, 1, 43, 80
3, 63836, Note_off_c, 1, 43, 100
3, 63840, Note_on_c, 1, 46, 80
3, 63932, Note_off_c, 1, 46, 100
3, 63936, Note_on_c, 1, 39, 80
3, 64028, Note_off_c, 1, 39, 100
3, 64032, Note_on_c, 1, 46, 80
3, 64124, Note_off_c, 1, 46, 100
3, 64128, Note_on_c, 1, 43, 80
3, 64220, Note_off_c, 1, 43, 100
3, 64224, Note_on_c, 1, 46, 80
3, 64316, Note_off_c, 1, 46, 100
3, 64320, Note_on_c, 1, 39, 80
3, 64412, Note_off_c, 1, 39, 100
3, 64416, Note_on_c, 1, 46, 80
3, 64508, Note_off_c, 1, 46, 100
3, 64512, Note_on_c, 1, 43, 80
3, 64604, Note_off_c, 1, 43, 100
3, 64608, Note_on_c, 1, 46, 80
3, 64700, Note_off_c, 1, 46, 100
3, 64704, Note_on_c, 1, 39, 80
3, 64796, Note_off_c, 1, 39, 100
3, 64800, Note_on_c, 1, 46, 80
3, 64892, Note_off_c, 1, 46, 100
3, 64896, Note_on_c, 1, 41, 80
3, 64988, Note_off_c, 1, 41, 100
3, 64992, Note_on_c, 1, 46, 80
3, 65084, Note_off_c, 1, 46, 100
3, 65088, Note_on_c, 1, 44, 80
3, 65180, Note_off_c, 1, 44, 100
3, 65184, Note_on_c, 1, 46, 80
3, 65276, Note_off_c, 1, 46, 100
3, 65280, Note_on_c, 1, 41, 80
3, 65372, Note_off_c, 1, 41, 100
3, 65376, Note_on_c, 1, 46, 80
3, 65468, Note_off_c, 1, 46, 100
3, 65472, Note_on_c, 1, 44, 80
3, 65564, Note_off_c, 1, 44, 100
3, 65568, Note_on_c, 1, 46, 80
3, 65660, Note_off_c, 1, 46, 100
3, 65664, Note_on_c, 1, 38, 80
3, 65756, Note_off_c, 1, 38, 100
3, 65760, Note_on_c, 1, 46, 80
3, 65852, Note_off_c, 1, 46, 100
3, 65856, Note_on_c, 1, 41, 80
3, 65948, Note_off_c, 1, 41, 100
3, 65952, Note_on_c, 1, 46, 80
3, 66044, Note_off_c, 1, 46, 100
3, 66048, Note_on_c, 1, 38, 80
3, 66140, Note_off_c, 1, 38, 100
3, 66144, Note_on_c, 1, 46, 80
3, 66236, Note_off_c, 1, 46, 100
3, 66240, Note_on_c, 1, 41, 80
3, 66332, Note_off_c, 1, 41, 100
3, 66336, Note_on_c, 1, 46, 80
3, 66428, Note_off_c, 1, 46, 100
3, 66432, Note_on_c, 1, 39, 120
3, 66908, Note_off_c, 1, 39, 100
3, 66912, Note_on_c, 1, 43, 120
3, 67004, Note_off_c, 1, 43, 100
3, 67008, Note_on_c, 1, 46, 120
3, 67100, Note_off_c, 1, 46, 100
3, 67104, Note_on_c, 1, 44, 120
3, 67196, Note_off_c, 1, 44, 100
3, 67200, Note_on_c, 1, 43, 120
3, 67292, Note_off_c, 1, 43, 100
3, 67296, Note_on_c, 1, 46, 120
3, 67388, Note_off_c, 1, 46, 100
3, 67392, Note_on_c, 1, 51, 120
3, 67484, Note_off_c, 1, 51, 100
3, 67488, Note_on_c, 1, 50, 120
3, 67580, Note_off_c, 1, 50, 100
3, 67584, Note_on_c, 1, 51, 120
3, 67676, Note_off_c, 1, 51, 100
3, 67680, Note_on_c, 1, 46, 120
3, 67772, Note_off_c, 1, 46, 100
3, 67776, Note_on_c, 1, 55, 120
3, 67868, Note_off_c, 1, 55, 100
3, 67872, Note_on_c, 1, 53, 120
3, 67964, Note_off_c, 1, 53, 100
3, 67968, Note_on_c, 1, 51, 120
3, 68060, Note_off_c, 1, 51, 100
3, 68064, Note_on_c, 1, 55, 120
3, 68156, Note_off_c, 1, 55, 100
3, 68160, Note_on_c, 1, 58, 120
3, 68252, Note_off_c, 1, 58, 100
3, 68256, Note_on_c, 1, 56, 120
3, 68348, Note_off_c, 1, 56, 100
3, 68352, Note_on_c, 1, 55, 120
3, 68444, Note_off_c, 1, 55, 100
3, 68448, Note_on_c, 1, 58, 120
3, 68540, Note_off_c, 1, 58, 100
3, 68544, Note_on_c, 1, 63, 120
3, 68636, Note_off_c, 1, 63, 100
3, 68640, Note_on_c, 1, 62, 120
3, 68732, Note_off_c, 1, 62, 100
3, 68736, Note_on_c, 1, 63, 120
3, 68828, Note_off_c, 1, 63, 100
3, 68832, Note_on_c, 1, 58, 120
3, 68924, Note_off_c, 1, 58, 100
3, 68928, Note_on_c, 1, 67, 120
3, 69020, Note_off_c, 1, 67, 100
3, 69024, Note_on_c, 1, 65, 120
3, 69116, Note_off_c, 1, 65, 100
3, 69120, Note_on_c, 1, 63, 120
3, 69212, Note_off_c, 1, 63, 100
3, 69216, Note_on_c, 1, 67, 120
3, 69308, Note_off_c, 1, 67, 100
3, 69312, Note_on_c, 1, 70, 120
3, 69404, Note_off_c, 1, 70, 100
3, 69408, Note_on_c, 1, 68, 120
3, 69500, Note_off_c, 1, 68, 100
3, 69504, Note_on_c, 1, 67, 120
3, 69596, Note_off_c, 1, 67, 100
3, 69600, Note_on_c, 1, 63, 120
3, 69692, Note_off_c, 1, 63, 100
3, 69696, Note_on_c, 1, 70, 120
3, 69788, Note_off_c, 1, 70, 100
3, 69792, Note_on_c, 1, 68, 120
3, 69884, Note_off_c, 1, 68, 100
3, 69888, Note_on_c, 1, 67, 120
3, 69980, Note_off_c, 1, 67, 100
3, 69984, Note_on_c, 1, 63, 120
3, 70076, Note_off_c, 1, 63, 100
3, 70080, Note_on_c, 1, 70, 120
3, 70172, Note_off_c, 1, 70, 100
3, 70176, Note_on_c, 1, 68, 120
3, 70268, Note_off_c, 1, 68, 100
3, 70272, Note_on_c, 1, 67, 110
3, 70364, Note_off_c, 1, 67, 100
3, 70368, Note_on_c, 1, 63, 109
3, 70460, Note_off_c, 1, 63, 100
3, 70464, Note_on_c, 1, 70, 107
3, 70556, Note_off_c, 1, 70, 100
3, 70560, Note_on_c, 1, 68, 105
3, 70652, Note_off_c, 1, 68, 100
3, 70656, Note_on_c, 1, 67, 104
3, 70748, Note_off_c, 1, 67, 100
3, 70752, Note_on_c, 1, 63, 102
3, 70844, Note_off_c, 1, 63, 100
3, 70848, Note_on_c, 1, 70, 100
3, 70940, Note_off_c, 1, 70, 100
3, 70944, Note_on_c, 1, 68, 98
3, 71036, Note_off_c, 1, 68, 100
3, 71040, Note_on_c, 1, 67, 97
3, 71132, Note_off_c, 1, 67, 100
3, 71136, Note_on_c, 1, 64, 95
3, 71228, Note_off_c, 1, 64, 100
3, 71232, Note_on_c, 1, 70, 93
3, 71324, Note_off_c, 1, 70, 100
3, 71328, Note_on_c, 1, 68, 91
3, 71420, Note_off_c, 1, 68, 100
3, 71424, Note_on_c, 1, 67, 90
3, 71516, Note_off_c, 1, 67, 100
3, 71520, Note_on_c, 1, 64, 88
3, 71612, Note_off_c, 1, 64, 100
3, 71616, Note_on_c, 1, 70, 86
3, 71708, Note_off_c, 1, 70, 100
3, 71712, Note_on_c, 1, 68, 84
3, 71804, Note_off_c, 1, 68, 100
3, 71808, Note_on_c, 1, 67, 83
3, 71900, Note_off_c, 1, 67, 100
3, 71904, Note_on_c, 1, 64, 81
3, 71996, Note_off_c, 1, 64, 100
3, 72000, Note_on_c, 1, 70, 79
3, 72092, Note_off_c, 1, 70, 100
3, 72096, Note_on_c, 1, 68, 78
3, 72188, Note_off_c, 1, 68, 100
3, 72192, Note_on_c, 1, 67, 76
3, 72284, Note_off_c, 1, 67, 100
3, 72288, Note_on_c, 1, 64, 74
3, 72380, Note_off_c, 1, 64, 100
3, 72384, Note_on_c, 1, 70, 72
3, 72476, Note_off_c, 1, 70, 100
3, 72480, Note_on_c, 1, 68, 71
3, 72572, Note_off_c, 1, 68, 100
3, 72576, Note_on_c, 1, 67, 70
3, 72576, Note_on_c, 1, 64, 70
3, 75260, Note_off_c, 1, 64, 100
3, 75260, Note_off_c, 1, 67, 100
3, 75456, Note_on_c, 1, 53, 80
3, 75644, Note_off_c, 1, 53, 100
3, 75648, Note_on_c, 1, 50, 80
3, 75836, Note_off_c, 1, 50, 100
3, 75840, Note_on_c, 1, 46, 80
3, 76028, Note_off_c, 1, 46, 100
3, 76992, Note_on_c, 1, 53, 80
3, 77180, Note_off_c, 1, 53, 100
3, 77184, Note_on_c, 1, 50, 80
3, 77372, Note_off_c, 1, 50, 100
3, 77376, Note_on_c, 1, 46, 80
3, 77564, Note_off_c, 1, 46, 100
3, 78528, Note_on_c, 1, 70, 80
3, 78716, Note_off_c, 1, 70, 100
3, 78720, Note_on_c, 1, 69, 83
3, 79100, Note_off_c, 1, 69, 100
3, 79104, Note_on_c, 1, 67, 89
3, 79104, Note_on_c, 1, 70, 89
3, 79484, Note_off_c, 1, 67, 100
3, 79484, Note_off_c, 1, 70, 100
3, 79488, Note_on_c, 1, 65, 96
3, 79488, Note_on_c, 1, 69, 96
3, 80252, Note_off_c, 1, 65, 100
3, 80252, Note_off_c, 1, 69, 100
3, 80256, Note_on_c, 1, 64, 109
3, 80256, Note_on_c, 1, 67, 109
3, 81788, Note_off_c, 1, 64, 100
3, 81788, Note_off_c, 1, 67, 100
3, 83136, Note_on_c, 1, 34, 80
3, 83324, Note_off_c, 1, 34, 100
3, 83328, Note_on_c, 1, 33, 80
3, 83516, Note_off_c, 1, 33, 100
3, 83520, Note_on_c, 1, 38, 80
3, 83708, Note_off_c, 1, 38, 100
3, 83712, Note_on_c, 1, 37, 80
3, 83900, Note_off_c, 1, 37, 100
3, 83904, Note_on_c, 1, 43, 80
3, 84092, Note_off_c, 1, 43, 100
3, 84096, Note_on_c, 1, 41, 80
3, 84284, Note_off_c, 1, 41, 100
3, 84288, Note_on_c, 1, 46, 80
3, 84476, Note_off_c, 1, 46, 100
3, 84480, Note_on_c, 1, 45, 80
3, 84668, Note_off_c, 1, 45, 100
3, 84672, Note_on_c, 1, 50, 80
3, 84860, Note_off_c, 1, 50, 100
3, 84864, Note_on_c, 1, 49, 80
3, 85052, Note_off_c, 1, 49, 100
3, 85056, Note_on_c, 1, 55, 80
3, 85244, Note_off_c, 1, 55, 100
3, 85248, Note_on_c, 1, 53, 80
3, 85436, Note_off_c, 1, 53, 100
3, 85440, Note_on_c, 1, 58, 80
3, 85628, Note_off_c, 1, 58, 100
3, 85632, Note_on_c, 1, 57, 80
3, 85820, Note_off_c, 1, 57, 100
3, 85824, Note_on_c, 1, 62, 80
3, 86012, Note_off_c, 1, 62, 100
3, 86016, Note_on_c, 1, 61, 80
3, 86204, Note_off_c, 1, 61, 100
3, 86208, Note_on_c, 1, 67, 80
3, 86396, Note_off_c, 1, 67, 100
3, 86400, Note_on_c, 1, 66, 80
3, 86588, Note_off_c, 1, 66, 100
3, 86592, Note_on_c, 1, 57, 80
3, 86780, Note_off_c, 1, 57, 100
3, 86784, Note_on_c, 1, 56, 80
3, 86972, Note_off_c, 1, 56, 100
3, 86976, Note_on_c, 1, 65, 80
3, 87164, Note_off_c, 1, 65, 100
3, 87168, Note_on_c, 1, 64, 80
3, 87356, Note_off_c, 1, 64, 100
3, 87360, Note_on_c, 1, 55, 80
3, 87548, Note_off_c, 1, 55, 100
3, 87552, Note_on_c, 1, 54, 80
3, 87740, Note_off_c, 1, 54, 100
3, 87744, Note_on_c, 1, 63, 80
3, 87932, Note_off_c, 1, 63, 100
3, 87936, Note_on_c, 1, 62, 80
3, 88124, Note_off_c, 1, 62, 100
3, 88128, Note_on_c, 1, 53, 80
3, 88316, Note_off_c, 1, 53, 100
3, 88320, Note_on_c, 1, 52, 80
3, 88508, Note_off_c, 1, 52, 100
3, 88512, Note_on_c, 1, 61, 80
3, 88700, Note_off_c, 1, 61, 100
3, 88704, Note_on_c, 1, 51, 80
3, 88892, Note_off_c, 1, 51, 100
3, 88896, Note_on_c, 1, 60, 80
3, 89084, Note_off_c, 1, 60, 100
3, 89088, Note_on_c, 1, 50, 80
3, 89276, Note_off_c, 1, 50, 100
3, 89280, Note_on_c, 1, 59, 80
3, 89468, Note_off_c, 1, 59, 100
3, 89472, Note_on_c, 1, 49, 80
3, 89660, Note_off_c, 1, 49, 100
3, 89664, Note_on_c, 1, 58, 83
3, 89852, Note_off_c, 1, 58, 100
3, 89856, Note_on_c, 1, 48, 87
3, 90044, Note_off_c, 1, 48, 100
3, 90048, Note_on_c, 1, 57, 91
3, 90236, Note_off_c, 1, 57, 100
3, 90240, Note_on_c, 1, 47, 94
3, 90428, Note_off_c, 1, 47, 100
3, 90432, Note_on_c, 1, 56, 98
3, 90620, Note_off_c, 1, 56, 100
3, 90624, Note_on_c, 1, 46, 102
3, 90812, Note_off_c, 1, 46, 100
3, 90816, Note_on_c, 1, 50, 106
3, 90816, Note_on_c, 1, 55, 106
3, 91004, Note_off_c, 1, 50, 100
3, 91004, Note_off_c, 1, 55, 100
3, 91008, Note_on_c, 1, 55, 109
3, 91008, Note_on_c, 1, 52, 109
3, 91008, Note_on_c, 1, 45, 109
3, 93692, Note_off_c, 1, 45, 100
3, 93692, Note_off_c, 1, 52, 100
3, 93692, Note_off_c, 1, 55, 100
3, 93888, Note_on_c, 1, 50, 80
3, 94076, Note_off_c, 1, 50, 100
3, 94080, Key_signature, 2, "major"
3, 94080, Note_on_c, 1, 47, 80
3, 94268, Note_off_c, 1, 47, 100
3, 94272, Note_on_c, 1, 43, 80
3, 94460, Note_off_c, 1, 43, 100
3, 95424, Note_on_c, 1, 50, 80
3, 95612, Note_off_c, 1, 50, 100
3, 95616, Note_on_c, 1, 47, 80
3, 95804, Note_off_c, 1, 47, 100
3, 95808, Note_on_c, 1, 43, 80
3, 95996, Note_off_c, 1, 43, 100
3, 96960, Note_on_c, 1, 67, 80
3, 97148, Note_off_c, 1, 67, 100
3, 97152, Note_on_c, 1, 66, 80
3, 97532, Note_off_c, 1, 66, 100
3, 97536, Note_on_c, 1, 67, 87
3, 97536, Note_on_c, 1, 64, 87
3, 97916, Note_off_c, 1, 67, 100
3, 97916, Note_off_c, 1, 64, 100
3, 97920, Note_on_c, 1, 62, 94
3, 97920, Note_on_c, 1, 66, 94
3, 98300, Note_off_c, 1, 62, 100
3, 98300, Note_off_c, 1, 66, 100
3, 98304, Note_on_c, 1, 61, 102
3, 98304, Note_on_c, 1, 69, 102
3, 98304, Note_on_c, 1, 64, 102
3, 98684, Note_off_c, 1, 61, 100
3, 98688, Note_on_c, 1, 62, 110
3, 98688, Note_on_c, 1, 59, 110
3, 99452, Note_off_c, 1, 59, 100
3, 99456, Note_on_c, 1, 57, 96
3, 100988, Note_off_c, 1, 62, 100
3, 100988, Note_off_c, 1, 69, 100
3, 100992, Note_on_c, 1, 69, 80
3, 100992, Note_on_c, 1, 61, 80
3, 101180, Note_off_c, 1, 57, 100
3, 101564, Note_off_c, 1, 64, 100
3, 101564, Note_off_c, 1, 69, 100
3, 101564, Note_off_c, 1, 61, 100
3, 101568, Note_on_c, 1, 50, 80
3, 101756, Note_off_c, 1, 50, 100
3, 101760, Note_on_c, 1, 47, 82
3, 101948, Note_off_c, 1, 47, 100
3, 101952, Note_on_c, 1, 42, 85
3, 102140, Note_off_c, 1, 42, 100
3, 102144, Note_on_c, 1, 43, 88
3, 102332, Note_off_c, 1, 43, 100
3, 102336, Note_on_c, 1, 47, 91
3, 102524, Note_off_c, 1, 47, 100
3, 102720, Note_on_c, 1, 45, 97
3, 102908, Note_off_c, 1, 45, 100
3, 102912, Note_on_c, 1, 47, 100
3, 103100, Note_off_c, 1, 47, 100
3, 103104, Note_on_c, 1, 50, 103
3, 103292, Note_off_c, 1, 50, 100
3, 103488, Note_on_c, 1, 49, 109
3, 103676, Note_off_c, 1, 49, 100
3, 103680, Note_on_c, 1, 50, 80
3, 103868, Note_off_c, 1, 50, 100
3, 103872, Note_on_c, 1, 55, 80
3, 103872, Note_on_c, 1, 43, 80
3, 104060, Note_off_c, 1, 55, 100
3, 104060, Note_off_c, 1, 43, 100
3, 104064, Note_on_c, 1, 54, 80
3, 104064, Note_on_c, 1, 45, 80
3, 104444, Note_off_c, 1, 54, 100
3, 104448, Note_on_c, 1, 55, 80
3, 104828, Note_off_c, 1, 45, 100
3, 104828, Note_off_c, 1, 55, 100
3, 104832, Note_on_c, 1, 54, 80
3, 104832, Note_on_c, 1, 47, 80
3, 105212, Note_off_c, 1, 54, 100
3, 105212, Note_off_c, 1, 47, 100
3, 106176, Note_on_c, 1, 72, 120
3, 106176, Note_on_c, 1, 69, 120
3, 106364, Note_off_c, 1, 72, 100
3, 106364, Note_off_c, 1, 69, 100
3, 106368, Note_on_c, 1, 71, 120
3, 106368, Note_on_c, 1, 67, 120
3, 106556, Note_off_c, 1, 71, 100
3, 106556, Note_off_c, 1, 67, 100
3, 106560, Note_on_c, 1, 67, 120
3, 106560, Note_on_c, 1, 64, 120
3, 106748, Note_off_c, 1, 67, 100
3, 106748, Note_off_c, 1, 64, 100
3, 106944, Note_on_c, 1, 55, 80
3, 106944, Note_on_c, 1, 43, 80
3, 107132, Note_off_c, 1, 55, 100
3, 107132, Note_off_c, 1, 43, 100
3, 107136, Note_on_c, 1, 54, 80
3, 107136, Note_on_c, 1, 45, 80
3, 107516, Note_off_c, 1, 54, 100
3, 107520, Note_on_c, 1, 55, 80
3, 107900, Note_off_c, 1, 45, 100
3, 107900, Note_off_c, 1, 55, 100
3, 107904, Note_on_c, 1, 38, 80
3, 107996, Note_off_c, 1, 38, 100
3, 108000, Note_on_c, 1, 50, 80
3, 108092, Note_off_c, 1, 50, 100
3, 108096, Note_on_c, 1, 49, 80
3, 108188, Note_off_c, 1, 49, 100
3, 108192, Note_on_c, 1, 50, 80
3, 108284, Note_off_c, 1, 50, 100
3, 108288, Note_on_c, 1, 52, 80
3, 108380, Note_off_c, 1, 52, 100
3, 108384, Note_on_c, 1, 50, 80
3, 108476, Note_off_c, 1, 50, 100
3, 108480, Note_on_c, 1, 49, 80
3, 108572, Note_off_c, 1, 49, 100
3, 108576, Note_on_c, 1, 50, 80
3, 108668, Note_off_c, 1, 50, 100
3, 108672, Note_on_c, 1, 47, 80
3, 108764, Note_off_c, 1, 47, 100
3, 108768, Note_on_c, 1, 50, 80
3, 108860, Note_off_c, 1, 50, 100
3, 108864, Note_on_c, 1, 49, 80
3, 108956, Note_off_c, 1, 49, 100
3, 108960, Note_on_c, 1, 50, 80
3, 109052, Note_off_c, 1, 50, 100
3, 109056, Note_on_c, 1, 52, 80
3, 109148, Note_off_c, 1, 52, 100
3, 109152, Note_on_c, 1, 50, 80
3, 109244, Note_off_c, 1, 50, 100
3, 109248, Note_on_c, 1, 49, 80
3, 109340, Note_off_c, 1, 49, 100
3, 109344, Note_on_c, 1, 50, 80
3, 109436, Note_off_c, 1, 50, 100
3, 109440, Note_on_c, 1, 45, 80
3, 109532, Note_off_c, 1, 45, 100
3, 109536, Note_on_c, 1, 50, 80
3, 109628, Note_off_c, 1, 50, 100
3, 109632, Note_on_c, 1, 49, 80
3, 109724, Note_off_c, 1, 49, 100
3, 109728, Note_on_c, 1, 50, 80
3, 109820, Note_off_c, 1, 50, 100
3, 109824, Note_on_c, 1, 52, 80
3, 109916, Note_off_c, 1, 52, 100
3, 109920, Note_on_c, 1, 50, 80
3, 110012, Note_off_c, 1, 50, 100
3, 110016, Note_on_c, 1, 49, 80
3, 110108, Note_off_c, 1, 49, 100
3, 110112, Note_on_c, 1, 50, 80
3, 110204, Note_off_c, 1, 50, 100
3, 110208, Note_on_c, 1, 43, 80
3, 110300, Note_off_c, 1, 43, 100
3, 110304, Note_on_c, 1, 50, 80
3, 110396, Note_off_c, 1, 50, 100
3, 110400, Note_on_c, 1, 49, 80
3, 110492, Note_off_c, 1, 49, 100
3, 110496, Note_on_c, 1, 50, 80
3, 110588, Note_off_c, 1, 50, 100
3, 110592, Note_on_c, 1, 52, 80
3, 110684, Note_off_c, 1, 52, 100
3, 110688, Note_on_c, 1, 50, 80
3, 110780, Note_off_c, 1, 50, 100
3, 110784, Note_on_c, 1, 49, 80
3, 110876, Note_off_c, 1, 49, 100
3, 110880, Note_on_c, 1, 50, 80
3, 110972, Note_off_c, 1, 50, 100
3, 110976, Note_on_c, 1, 42, 80
3, 111068, Note_off_c, 1, 42, 100
3, 111072, Note_on_c, 1, 50, 80
3, 111164, Note_off_c, 1, 50, 100
3, 111168, Note_on_c, 1, 49, 80
3, 111260, Note_off_c, 1, 49, 100
3, 111264, Note_on_c, 1, 50, 80
3, 111356, Note_off_c, 1, 50, 100
3, 111360, Note_on_c, 1, 52, 80
3, 111452, Note_off_c, 1, 52, 100
3, 111456, Note_on_c, 1, 50, 80
3, 111548, Note_off_c, 1, 50, 100
3, 111552, Note_on_c, 1, 49, 80
3, 111644, Note_off_c, 1, 49, 100
3, 111648, Note_on_c, 1, 50, 80
3, 111740, Note_off_c, 1, 50, 100
3, 111744, Note_on_c, 1, 47, 80
3, 111836, Note_off_c, 1, 47, 100
3, 111840, Note_on_c, 1, 50, 80
3, 111932, Note_off_c, 1, 50, 100
3, 111936, Note_on_c, 1, 49, 80
3, 112028, Note_off_c, 1, 49, 100
3, 112032, Note_on_c, 1, 50, 80
3, 112124, Note_off_c, 1, 50, 100
3, 112128, Note_on_c, 1, 52, 80
3, 112220, Note_off_c, 1, 52, 100
3, 112224, Note_on_c, 1, 50, 80
3, 112316, Note_off_c, 1, 50, 100
3, 112320, Note_on_c, 1, 49, 80
3, 112412, Note_off_c, 1, 49, 100
3, 112416, Note_on_c, 1, 50, 80
3, 112508, Note_off_c, 1, 50, 100
3, 112512, Note_on_c, 1, 45, 80
3, 112604, Note_off_c, 1, 45, 100
3, 112608, Note_on_c, 1, 50, 80
3, 112700, Note_off_c, 1, 50, 100
3, 112704, Note_on_c, 1, 49, 80
3, 112796, Note_off_c, 1, 49, 100
3, 112800, Note_on_c, 1, 50, 80
3, 112892, Note_off_c, 1, 50, 100
3, 112896, Note_on_c, 1, 52, 80
3, 112988, Note_off_c, 1, 52, 100
3, 112992, Note_on_c, 1, 50, 80
3, 113084, Note_off_c, 1, 50, 100
3, 113088, Note_on_c, 1, 49, 80
3, 113180, Note_off_c, 1, 49, 100
3, 113184, Note_on_c, 1, 50, 80
3, 113276, Note_off_c, 1, 50, 100
3, 113280, Note_on_c, 1, 43, 80
3, 113372, Note_off_c, 1, 43, 100
3, 113376, Note_on_c, 1, 50, 80
3, 113468, Note_off_c, 1, 50, 100
3, 113472, Note_on_c, 1, 49, 80
3, 113564, Note_off_c, 1, 49, 100
3, 113568, Note_on_c, 1, 50, 80
3, 113660, Note_off_c, 1, 50, 100
3, 113664, Note_on_c, 1, 52, 80
3, 113756, Note_off_c, 1, 52, 100
3, 113760, Note_on_c, 1, 50, 80
3, 113852, Note_off_c, 1, 50, 100
3, 113856, Note_on_c, 1, 49, 80
3, 113948, Note_off_c, 1, 49, 100
3, 113952, Note_on_c, 1, 50, 80
3, 114044, Note_off_c, 1, 50, 100
3, 114048, Note_on_c, 1, 43, 80
3, 114428, Note_off_c, 1, 43, 100
3, 114432, Note_on_c, 1, 55, 104
3, 114816, Note_on_c, 1, 52, 80
3, 115200, Note_on_c, 1, 60, 103
3, 115580, Note_off_c, 1, 55, 100
3, 115580, Note_off_c, 1, 52, 100
3, 115584, Note_on_c, 1, 50, 80
3, 115772, Note_off_c, 1, 60, 100
3, 115776, Note_on_c, 1, 59, 80
3, 115964, Note_off_c, 1, 59, 100
3, 115968, Note_on_c, 1, 60, 80
3, 116156, Note_off_c, 1, 60, 100
3, 116160, Note_on_c, 1, 62, 80
3, 116348, Note_off_c, 1, 50, 100
3, 116348, Note_off_c, 1, 62, 100
3, 116352, Note_on_c, 1, 60, 80
3, 116352, Note_on_c, 1, 63, 80
3, 116540, Note_off_c, 1, 63, 100
3, 116544, Note_on_c, 1, 64, 80
3, 116732, Note_off_c, 1, 64, 100
3, 116736, Note_on_c, 1, 66, 80
3, 116924, Note_off_c, 1, 66, 100
3, 116928, Note_on_c, 1, 67, 80
3, 117116, Note_off_c, 1, 60, 100
3, 117116, Note_off_c, 1, 67, 100
3, 117120, Note_on_c, 1, 59, 80
3, 117120, Note_on_c, 1, 67, 80
3, 117500, Note_off_c, 1, 67, 100
3, 117504, Note_on_c, 1, 62, 80
3, 117692, Note_off_c, 1, 62, 100
3, 117884, Note_off_c, 1, 59, 100
3, 117888, Note_on_c, 1, 64, 80
3, 118272, Note_on_c, 1, 72, 84
3, 118652, Note_off_c, 1, 64, 100
3, 118656, Note_on_c, 1, 62, 89
3, 119036, Note_off_c, 1, 72, 100
3, 119040, Note_on_c, 1, 71, 94
3, 119420, Note_off_c, 1, 62, 100
3, 119420, Note_off_c, 1, 71, 100
3, 119424, Note_on_c, 1, 67, 99
3, 119424, Note_on_c, 1, 74, 99
3, 119804, Note_off_c, 1, 74, 100
3, 119808, Note_on_c, 1, 77, 104
3, 120188, Note_off_c, 1, 67, 100
3, 120188, Note_off_c, 1, 77, 100
3, 120192, Note_on_c, 1, 78, 109
3, 120192, Note_on_c, 1, 66, 109
3, 120572, Note_off_c, 1, 78, 100
3, 120768, Note_on_c, 1, 70, 80
3, 120956, Note_off_c, 1, 70, 100
3, 120960, Note_on_c, 1, 71, 80
3, 121148, Note_off_c, 1, 71, 100
3, 121152, Note_on_c, 1, 74, 80
3, 121340, Note_off_c, 1, 74, 100
3, 121532, Note_off_c, 1, 66, 100
3, 121536, Note_on_c, 1, 65, 80
3, 121724, Note_off_c, 1, 65, 100
3, 121728, Note_on_c, 1, 66, 107
3, 121920, Note_on_c, 1, 54, 80
3, 122108, Note_off_c, 1, 54, 100
3, 122304, Note_on_c, 1, 70, 80
3, 122492, Note_off_c, 1, 70, 100
3, 122496, Note_on_c, 1, 71, 80
3, 122684, Note_off_c, 1, 71, 100
3, 122688, Note_on_c, 1, 74, 80
3, 122876, Note_off_c, 1, 74, 100
3, 123068, Note_off_c, 1, 66, 100
3, 123072, Note_on_c, 1, 65, 80
3, 123260, Note_off_c, 1, 65, 100
3, 123264, Note_on_c, 1, 66, 70
3, 123452, Note_off_c, 1, 66, 100
3, 123456, Note_on_c, 1, 54, 70
3, 123644, Note_off_c, 1, 54, 100
3, 123840, Note_on_c, 1, 53, 70
3, 124028, Note_off_c, 1, 53, 100
3, 124032, Note_on_c, 1, 54, 70
3, 124220, Note_off_c, 1, 54, 100
3, 124224, Note_on_c, 1, 42, 70
3, 124412, Note_off_c, 1, 42, 100
3, 124608, Note_on_c, 1, 41, 70
3, 124796, Note_off_c, 1, 41, 100
3, 124800, Note_on_c, 1, 42, 70
3, 124988, Note_off_c, 1, 42, 100
3, 124992, Note_on_c, 1, 30, 70
3, 125180, Note_off_c, 1, 30, 100
3, 126144, Note_on_c, 1, 78, 70
3, 126332, Note_off_c, 1, 78, 100
3, 126336, Note_on_c, 1, 79, 70
3, 126524, Note_off_c, 1, 79, 100
3, 126528, Note_on_c, 1, 76, 70
3, 126716, Note_off_c, 1, 76, 100
3, 126912, Note_on_c, 1, 66, 70
3, 127100, Note_off_c, 1, 66, 100
3, 127104, Note_on_c, 1, 67, 70
3, 127292, Note_off_c, 1, 67, 100
3, 127296, Note_on_c, 1, 64, 70
3, 127484, Note_off_c, 1, 64, 100
3, 127680, Note_on_c, 1, 54, 70
3, 127868, Note_off_c, 1, 54, 100
3, 127872, Note_on_c, 1, 55, 70
3, 128060, Note_off_c, 1, 55, 100
3, 128064, Note_on_c, 1, 50, 72
3, 128252, Note_off_c, 1, 50, 100
3, 129216, Note_on_c, 1, 76, 88
3, 129404, Note_off_c, 1, 76, 100
3, 129408, Note_on_c, 1, 77, 111
3, 129596, Note_off_c, 1, 77, 100
3, 129600, Note_on_c, 1, 65, 93
3, 129788, Note_off_c, 1, 65, 100
3, 129984, Note_on_c, 1, 65, 99
3, 130172, Note_off_c, 1, 65, 100
3, 130176, Note_on_c, 1, 66, 120
3, 130364, Note_off_c, 1, 66, 100
3, 130368, Note_on_c, 1, 54, 104
3, 130556, Note_off_c, 1, 54, 100
3, 130752, Note_on_c, 1, 54, 109
3, 130940, Note_off_c, 1, 54, 100
3, 130944, Note_on_c, 1, 55, 121
3, 131132, Note_off_c, 1, 55, 100
3, 131136, Note_on_c, 1, 43, 110
3, 131324, Note_off_c, 1, 43, 100
3, 131520, Note_on_c, 1, 43, 110
3, 131708, Note_off_c, 1, 43, 100
3, 131712, Note_on_c, 1, 44, 122
3, 131900, Note_off_c, 1, 44, 100
3, 131904, Note_on_c, 1, 32, 110
3, 132092, Note_off_c, 1, 32, 100
3, 132288, Note_on_c, 1, 32, 110
3, 132476, Note_off_c, 1, 32, 100
3, 132480, Note_on_c, 1, 33, 80
3, 132668, Note_off_c, 1, 33, 100
3, 132672, Note_on_c, 1, 45, 80
3, 132860, Note_off_c, 1, 45, 100
3, 133056, Note_on_c, 1, 44, 80
3, 133244, Note_off_c, 1, 44, 100
3, 133248, Note_on_c, 1, 45, 80
3, 133436, Note_off_c, 1, 45, 100
3, 133440, Note_on_c, 1, 57, 80
3, 133628, Note_off_c, 1, 57, 100
3, 133824, Note_on_c, 1, 32, 80
3, 134012, Note_off_c, 1, 32, 100
3, 134016, Note_on_c, 1, 33, 80
3, 134204, Note_off_c, 1, 33, 100
3, 134208, Note_on_c, 1, 45, 80
3, 134396, Note_off_c, 1, 45, 100
3, 134592, Note_on_c, 1, 44, 80
3, 134780, Note_off_c, 1, 44, 100
3, 134784, Note_on_c, 1, 45, 80
3, 134972, Note_off_c, 1, 45, 100
3, 134976, Note_on_c, 1, 57, 80
3, 135164, Note_off_c, 1, 57, 100
3, 135360, Note_on_c, 1, 32, 80
3, 135548, Note_off_c, 1, 32, 100
3, 135552, Note_on_c, 1, 33, 80
3, 135740, Note_off_c, 1, 33, 100
3, 135744, Note_on_c, 1, 45, 80
3, 135932, Note_off_c, 1, 45, 100
3, 136128, Note_on_c, 1, 32, 85
3, 136316, Note_off_c, 1, 32, 100
3, 136320, Note_on_c, 1, 33, 90
3, 136508, Note_off_c, 1, 33, 100
3, 136512, Note_on_c, 1, 45, 96
3, 136700, Note_off_c, 1, 45, 100
3, 136896, Note_on_c, 1, 44, 107
3, 136896, Note_on_c, 1, 32, 107
3, 137084, Note_off_c, 1, 44, 100
3, 137084, Note_off_c, 1, 32, 100
3, 137088, Note_on_c, 1, 45, 110
3, 137088, Note_on_c, 1, 33, 110
3, 139772, Note_off_c, 1, 33, 100
3, 139772, Note_off_c, 1, 45, 100
3, 140736, Note_on_c, 1, 50, 70
3, 140924, Note_off_c, 1, 50, 100
3, 140928, Note_on_c, 1, 47, 70
3, 141116, Note_off_c, 1, 47, 100
3, 141120, Note_on_c, 1, 43, 70
3, 141308, Note_off_c, 1, 43, 100
3, 142272, Note_on_c, 1, 50, 70
3, 142364, Note_off_c, 1, 50, 100
3, 142368, Note_on_c, 1, 48, 70
3, 142460, Note_off_c, 1, 48, 100
3, 142464, Note_on_c, 1, 47, 70
3, 142556, Note_off_c, 1, 47, 100
3, 142560, Note_on_c, 1, 45, 70
3, 142652, Note_off_c, 1, 45, 100
3, 142656, Note_on_c, 1, 43, 70
3, 142844, Note_off_c, 1, 43, 100
3, 143424, Note_on_c, 1, 67, 74
3, 143516, Note_off_c, 1, 67, 100
3, 143520, Note_on_c, 1, 66, 77
3, 143612, Note_off_c, 1, 66, 100
3, 143616, Note_on_c, 1, 64, 79
3, 143804, Note_off_c, 1, 64, 100
3, 143808, Note_on_c, 1, 66, 84
3, 143900, Note_off_c, 1, 66, 100
3, 143904, Note_on_c, 1, 64, 87
3, 143996, Note_off_c, 1, 64, 100
3, 144000, Note_on_c, 1, 62, 89
3, 144188, Note_off_c, 1, 62, 100
3, 144192, Note_on_c, 1, 64, 94
3, 144284, Note_off_c, 1, 64, 100
3, 144288, Note_on_c, 1, 62, 97
3, 144380, Note_off_c, 1, 62, 100
3, 144384, Note_on_c, 1, 61, 99
3, 144572, Note_off_c, 1, 61, 100
3, 144576, Note_on_c, 1, 62, 104
3, 144668, Note_off_c, 1, 62, 100
3, 144672, Note_on_c, 1, 61, 107
3, 144764, Note_off_c, 1, 61, 100
3, 144768, Note_on_c, 1, 59, 100
3, 144960, Note_on_c, 1, 62, 98
3, 145152, Note_on_c, 1, 64, 96
3, 145344, Note_on_c, 1, 68, 93
3, 145536, Note_on_c, 1, 57, 91
3, 146300, Note_off_c, 1, 59, 100
3, 146300, Note_off_c, 1, 62, 100
3, 146300, Note_off_c, 1, 68, 100
3, 147072, Note_on_c, 1, 61, 80
3, 147072, Note_on_c, 1, 69, 80
3, 147644, Note_off_c, 1, 57, 100
3, 147644, Note_off_c, 1, 64, 100
3, 147644, Note_off_c, 1, 61, 100
3, 147644, Note_off_c, 1, 69, 100
3, 148032, Note_on_c, 1, 50, 80
3, 148124, Note_off_c, 1, 50, 100
3, 148128, Note_on_c, 1, 48, 80
3, 148220, Note_off_c, 1, 48, 100
3, 148224, Note_on_c, 1, 47, 80
3, 148316, Note_off_c, 1, 47, 100
3, 148320, Note_on_c, 1, 45, 81
3, 148412, Note_off_c, 1, 45, 100
3, 148416, Note_on_c, 1, 43, 83
3, 148604, Note_off_c, 1, 43, 100
3, 148800, Note_on_c, 1, 54, 90
3, 148892, Note_off_c, 1, 54, 100
3, 148896, Note_on_c, 1, 52, 92
3, 148988, Note_off_c, 1, 52, 100
3, 148992, Note_on_c, 1, 50, 94
3, 149084, Note_off_c, 1, 50, 100
3, 149088, Note_on_c, 1, 49, 95
3, 149180, Note_off_c, 1, 49, 100
3, 149184, Note_on_c, 1, 47, 97
3, 149372, Note_off_c, 1, 47, 100
3, 149568, Note_on_c, 1, 57, 104
3, 149660, Note_off_c, 1, 57, 100
3, 149664, Note_on_c, 1, 55, 106
3, 149756, Note_off_c, 1, 55, 100
3, 149760, Note_on_c, 1, 54, 108
3, 149804, Note_off_c, 1, 54, 100
3, 149808, Note_on_c, 1, 52, 109
3, 149852, Note_off_c, 1, 52, 100
3, 149856, Note_on_c, 1, 50, 109
3, 149948, Note_off_c, 1, 50, 100
3, 149952, Note_on_c, 1, 55, 80
3, 149952, Note_on_c, 1, 43, 80
3, 150140, Note_off_c, 1, 55, 100
3, 150140, Note_off_c, 1, 43, 100
3, 150144, Note_on_c, 1, 54, 80
3, 150144, Note_on_c, 1, 45, 80
3, 150524, Note_off_c, 1, 54, 100
3, 150528, Note_on_c, 1, 55, 80
3, 150908, Note_off_c, 1, 45, 100
3, 150908, Note_off_c, 1, 55, 100
3, 150912, Note_on_c, 1, 54, 80
3, 150912, Note_on_c, 1, 47, 80
3, 151292, Note_off_c, 1, 54, 100
3, 151292, Note_off_c, 1, 47, 100
3, 152640, Note_on_c, 1, 71, 80
3, 152732, Note_off_c, 1, 71, 100
3, 152736, Note_on_c, 1, 69, 80
3, 152828, Note_off_c, 1, 69, 100
3, 152832, Note_on_c, 1, 67, 80
3, 152924, Note_off_c, 1, 67, 100
3, 152928, Note_on_c, 1, 66, 80
3, 153020, Note_off_c, 1, 66, 100
3, 153024, Note_on_c, 1, 64, 80
3, 153212, Note_off_c, 1, 64, 100
3, 153216, Note_on_c, 1, 42, 80
3, 153216, Note_on_c, 1, 33, 80
3, 153596, Note_off_c, 1, 42, 100
3, 153600, Note_on_c, 1, 43, 80
3, 153980, Note_off_c, 1, 33, 100
3, 153980, Note_off_c, 1, 43, 100
3, 154080, Note_on_c, 1, 38, 80
3, 154172, Note_off_c, 1, 38, 100
3, 154176, Note_on_c, 1, 42, 80
3, 154268, Note_off_c, 1, 42, 100
3, 154272, Note_on_c, 1, 45, 80
3, 154364, Note_off_c, 1, 45, 100
3, 154368, Note_on_c, 1, 50, 103
3, 154460, Note_off_c, 1, 50, 100
3, 154464, Note_on_c, 1, 38, 80
3, 154556, Note_off_c, 1, 38, 100
3, 154560, Note_on_c, 1, 48, 80
3, 154652, Note_off_c, 1, 48, 100
3, 154656, Note_on_c, 1, 38, 80
3, 154748, Note_off_c, 1, 38, 100
3, 154752, Note_on_c, 1, 47, 80
3, 154844, Note_off_c, 1, 47, 100
3, 154848, Note_on_c, 1, 38, 80
3, 154940, Note_off_c, 1, 38, 100
3, 154944, Note_on_c, 1, 43, 80
3, 155036, Note_off_c, 1, 43, 100
3, 155040, Note_on_c, 1, 38, 80
3, 155132, Note_off_c, 1, 38, 100
3, 155136, Note_on_c, 1, 40, 80
3, 155228, Note_off_c, 1, 40, 100
3, 155232, Note_on_c, 1, 38, 80
3, 155324, Note_off_c, 1, 38, 100
3, 155328, Note_on_c, 1, 42, 80
3, 155420, Note_off_c, 1, 42, 100
3, 155424, Note_on_c, 1, 38, 80
3, 155516, Note_off_c, 1, 38, 100
3, 155520, Note_on_c, 1, 43, 80
3, 155612, Note_off_c, 1, 43, 100
3, 155616, Note_on_c, 1, 38, 80
3, 155708, Note_off_c, 1, 38, 100
3, 155712, Note_on_c, 1, 47, 80
3, 155804, Note_off_c, 1, 47, 100
3, 155808, Note_on_c, 1, 38, 80
3, 155900, Note_off_c, 1, 38, 100
3, 155904, Note_on_c, 1, 54, 104
3, 155996, Note_off_c, 1, 54, 100
3, 156000, Note_on_c, 1, 42, 80
3, 156092, Note_off_c, 1, 42, 100
3, 156096, Note_on_c, 1, 52, 80
3, 156188, Note_off_c, 1, 52, 100
3, 156192, Note_on_c, 1, 42, 80
3, 156284, Note_off_c, 1, 42, 100
3, 156288, Note_on_c, 1, 50, 80
3, 156380, Note_off_c, 1, 50, 100
3, 156384, Note_on_c, 1, 42, 80
3, 156476, Note_off_c, 1, 42, 100
3, 156480, Note_on_c, 1, 47, 80
3, 156572, Note_off_c, 1, 47, 100
3, 156576, Note_on_c, 1, 42, 80
3, 156668, Note_off_c, 1, 42, 100
3, 156672, Note_on_c, 1, 44, 104
3, 156764, Note_off_c, 1, 44, 100
3, 156768, Note_on_c, 1, 42, 80
3, 156860, Note_off_c, 1, 42, 100
3, 156864, Note_on_c, 1, 46, 80
3, 156956, Note_off_c, 1, 46, 100
3, 156960, Note_on_c, 1, 42, 80
3, 157052, Note_off_c, 1, 42, 100
3, 157056, Note_on_c, 1, 47, 80
3, 157148, Note_off_c, 1, 47, 100
3, 157152, Note_on_c, 1, 42, 80
3, 157244, Note_off_c, 1, 42, 100
3, 157248, Note_on_c, 1, 50, 80
3, 157340, Note_off_c, 1, 50, 100
3, 157344, Note_on_c, 1, 42, 80
3, 157436, Note_off_c, 1, 42, 100
3, 157440, Note_on_c, 1, 57, 101
3, 157532, Note_off_c, 1, 57, 100
3, 157536, Note_on_c, 1, 45, 80
3, 157628, Note_off_c, 1, 45, 100
3, 157632, Note_on_c, 1, 55, 80
3, 157724, Note_off_c, 1, 55, 100
3, 157728, Note_on_c, 1, 45, 80
3, 157820, Note_off_c, 1, 45, 100
3, 157824, Note_on_c, 1, 54, 80
3, 157916, Note_off_c, 1, 54, 100
3, 157920, Note_on_c, 1, 45, 80
3, 158012, Note_off_c, 1, 45, 100
3, 158016, Note_on_c, 1, 50, 80
3, 158108, Note_off_c, 1, 50, 100
3, 158112, Note_on_c, 1, 45, 80
3, 158204, Note_off_c, 1, 45, 100
3, 158208, Note_on_c, 1, 47, 80
3, 158300, Note_off_c, 1, 47, 100
3, 158304, Note_on_c, 1, 45, 80
3, 158396, Note_off_c, 1, 45, 100
3, 158400, Note_on_c, 1, 49, 80
3, 158492, Note_off_c, 1, 49, 100
3, 158496, Note_on_c, 1, 45, 80
3, 158588, Note_off_c, 1, 45, 100
3, 158592, Note_on_c, 1, 47, 80
3, 158684, Note_off_c, 1, 47, 100
3, 158688, Note_on_c, 1, 42, 80
3, 158780, Note_off_c, 1, 42, 100
3, 158784, Note_on_c, 1, 50, 80
3, 158876, Note_off_c, 1, 50, 100
3, 158880, Note_on_c, 1, 42, 80
3, 158972, Note_off_c, 1, 42, 100
3, 158976, Note_on_c, 1, 57, 80
3, 159068, Note_off_c, 1, 57, 100
3, 159072, Note_on_c, 1, 45, 80
3, 159164, Note_off_c, 1, 45, 100
3, 159168, Note_on_c, 1, 55, 80
3, 159260, Note_off_c, 1, 55, 100
3, 159264, Note_on_c, 1, 45, 80
3, 159356, Note_off_c, 1, 45, 100
3, 159360, Note_on_c, 1, 54, 80
3, 159452, Note_off_c, 1, 54, 100
3, 159456, Note_on_c, 1, 45, 80
3, 159548, Note_off_c, 1, 45, 100
3, 159552, Note_on_c, 1, 50, 80
3, 159644, Note_off_c, 1, 50, 100
3, 159648, Note_on_c, 1, 45, 80
3, 159740, Note_off_c, 1, 45, 100
3, 159744, Note_on_c, 1, 47, 80
3, 159836, Note_off_c, 1, 47, 100
3, 159840, Note_on_c, 1, 45, 80
3, 159932, Note_off_c, 1, 45, 100
3, 159936, Note_on_c, 1, 49, 80
3, 160028, Note_off_c, 1, 49, 100
3, 160032, Note_on_c, 1, 45, 80
3, 160124, Note_off_c, 1, 45, 100
3, 160128, Note_on_c, 1, 50, 80
3, 160220, Note_off_c, 1, 50, 100
3, 160224, Note_on_c, 1, 45, 80
3, 160316, Note_off_c, 1, 45, 100
3, 160320, Note_on_c, 1, 50, 80
3, 160412, Note_off_c, 1, 50, 100
3, 160416, Note_on_c, 1, 45, 80
3, 160508, Note_off_c, 1, 45, 100
3, 160512, Note_on_c, 1, 51, 80
3, 160604, Note_off_c, 1, 51, 100
3, 160608, Note_on_c, 1, 45, 80
3, 160700, Note_off_c, 1, 45, 100
3, 160704, Note_on_c, 1, 51, 80
3, 160796, Note_off_c, 1, 51, 100
3, 160800, Note_on_c, 1, 45, 80
3, 160892, Note_off_c, 1, 45, 100
3, 160896, Note_on_c, 1, 52, 80
3, 160988, Note_off_c, 1, 52, 100
3, 160992, Note_on_c, 1, 45, 80
3, 161084, Note_off_c, 1, 45, 100
3, 161088, Note_on_c, 1, 52, 80
3, 161180, Note_off_c, 1, 52, 100
3, 161184, Note_on_c, 1, 45, 80
3, 161276, Note_off_c, 1, 45, 100
3, 161280, Note_on_c, 1, 53, 80
3, 161372, Note_off_c, 1, 53, 100
3, 161376, Note_on_c, 1, 45, 80
3, 161468, Note_off_c, 1, 45, 100
3, 161472, Note_on_c, 1, 53, 80
3, 161564, Note_off_c, 1, 53, 100
3, 161568, Note_on_c, 1, 45, 80
3, 161660, Note_off_c, 1, 45, 100
3, 161664, Note_on_c, 1, 54, 80
3, 161756, Note_off_c, 1, 54, 100
3, 161760, Note_on_c, 1, 45, 81
3, 161852, Note_off_c, 1, 45, 100
3, 161856, Note_on_c, 1, 54, 83
3, 161948, Note_off_c, 1, 54, 100
3, 161952, Note_on_c, 1, 45, 85
3, 162044, Note_off_c, 1, 45, 100
3, 162048, Note_on_c, 1, 54, 87
3, 162140, Note_off_c, 1, 54, 100
3, 162144, Note_on_c, 1, 45, 89
3, 162236, Note_off_c, 1, 45, 100
3, 162240, Note_on_c, 1, 54, 91
3, 162332, Note_off_c, 1, 54, 100
3, 162336, Note_on_c, 1, 45, 93
3, 162428, Note_off_c, 1, 45, 100
3, 162432, Note_on_c, 1, 55, 95
3, 162524, Note_off_c, 1, 55, 100
3, 162528, Note_on_c, 1, 45, 97
3, 162620, Note_off_c, 1, 45, 100
3, 162624, Note_on_c, 1, 55, 99
3, 162716, Note_off_c, 1, 55, 100
3, 162720, Note_on_c, 1, 45, 101
3, 162812, Note_off_c, 1, 45, 100
3, 162816, Note_on_c, 1, 56, 103
3, 162908, Note_off_c, 1, 56, 100
3, 162912, Note_on_c, 1, 45, 105
3, 163004, Note_off_c, 1, 45, 100
3, 163008, Note_on_c, 1, 56, 107
3, 163100, Note_off_c, 1, 56, 100
3, 163104, Note_on_c, 1, 45, 109
3, 163196, Note_off_c, 1, 45, 100
3, 163200, Note_on_c, 1, 57, 120
3, 163200, Note_on_c, 1, 55, 120
3, 163200, Note_on_c, 1, 45, 120
3, 167420, Note_off_c, 1, 45, 100
3, 167420, Note_off_c, 1, 55, 100
3, 167420, Note_off_c, 1, 57, 100
3, 167616, Note_on_c, 1, 42, 70
3, 167804, Note_off_c, 1, 42, 100
3, 167808, Note_on_c, 1, 43, 70
3, 167996, Note_off_c, 1, 43, 100
3, 168000, Note_on_c, 1, 47, 70
3, 168188, Note_off_c, 1, 47, 100
3, 169152, Note_on_c, 1, 54, 70
3, 169340, Note_off_c, 1, 54, 100
3, 169344, Note_on_c, 1, 55, 70
3, 169532, Note_off_c, 1, 55, 100
3, 169536, Note_on_c, 1, 58, 70
3, 169724, Note_off_c, 1, 58, 100
3, 170688, Note_on_c, 1, 55, 70
3, 170688, Note_on_c, 1, 43, 70
3, 170876, Note_off_c, 1, 43, 100
3, 170880, Note_on_c, 1, 48, 70
3, 171068, Note_off_c, 1, 55, 100
3, 171068, Note_off_c, 1, 48, 100
3, 171072, Note_on_c, 1, 55, 70
3, 171072, Note_on_c, 1, 48, 70
3, 171452, Note_off_c, 1, 55, 100
3, 171452, Note_off_c, 1, 48, 100
3, 171456, Note_on_c, 1, 55, 70
3, 171456, Note_on_c, 1, 48, 70
3, 171644, Note_off_c, 1, 55, 100
3, 171644, Note_off_c, 1, 48, 100
3, 171648, Note_on_c, 1, 53, 70
3, 171648, Note_on_c, 1, 41, 70
3, 171836, Note_off_c, 1, 53, 100
3, 171836, Note_off_c, 1, 41, 100
3, 171840, Note_on_c, 1, 53, 70
3, 171840, Note_on_c, 1, 41, 70
3, 172220, Note_off_c, 1, 53, 100
3, 172220, Note_off_c, 1, 41, 100
3, 172224, Note_on_c, 1, 53, 70
3, 172224, Note_on_c, 1, 41, 70
3, 172412, Note_off_c, 1, 41, 100
3, 172416, Note_on_c, 1, 47, 70
3, 172604, Note_off_c, 1, 53, 100
3, 172604, Note_off_c, 1, 47, 100
3, 172608, Note_on_c, 1, 53, 70
3, 172608, Note_on_c, 1, 47, 70
3, 172988, Note_off_c, 1, 53, 100
3, 172988, Note_off_c, 1, 47, 100
3, 172992, Note_on_c, 1, 47, 70
3, 172992, Note_on_c, 1, 53, 70
3, 173180, Note_off_c, 1, 53, 100
3, 173184, Note_on_c, 1, 52, 70
3, 173372, Note_off_c, 1, 47, 100
3, 173372, Note_off_c, 1, 52, 100
3, 173376, Note_on_c, 1, 52, 70
3, 173376, Note_on_c, 1, 47, 70
3, 173756, Note_off_c, 1, 52, 100
3, 173756, Note_off_c, 1, 47, 100
3, 173760, Note_on_c, 1, 52, 70
3, 173760, Note_on_c, 1, 47, 70
3, 173948, Note_off_c, 1, 47, 100
3, 173952, Note_on_c, 1, 45, 70
3, 174140, Note_off_c, 1, 52, 100
3, 174140, Note_off_c, 1, 45, 100
3, 174144, Note_on_c, 1, 52, 70
3, 174144, Note_on_c, 1, 45, 70
3, 174524, Note_off_c, 1, 52, 100
3, 174524, Note_off_c, 1, 45, 100
3, 174528, Note_on_c, 1, 45, 75
3, 174528, Note_on_c, 1, 52, 75
3, 174716, Note_off_c, 1, 52, 100
3, 174720, Note_on_c, 1, 54, 78
3, 174908, Note_off_c, 1, 45, 100
3, 174908, Note_off_c, 1, 54, 100
3, 174912, Note_on_c, 1, 45, 81
3, 174912, Note_on_c, 1, 54, 81
3, 175292, Note_off_c, 1, 45, 100
3, 175292, Note_off_c, 1, 54, 100
3, 175296, Note_on_c, 1, 45, 80
3, 175296, Note_on_c, 1, 54, 80
3, 175484, Note_off_c, 1, 54, 100
3, 175488, Note_on_c, 1, 55, 79
3, 175676, Note_off_c, 1, 45, 100
3, 175676, Note_off_c, 1, 55, 100
3, 175680, Note_on_c, 1, 55, 78
3, 175680, Note_on_c, 1, 45, 78
3, 176060, Note_off_c, 1, 55, 100
3, 176060, Note_off_c, 1, 45, 100
3, 176064, Note_on_c, 1, 45, 76
3, 176064, Note_on_c, 1, 55, 76
3, 176252, Note_off_c, 1, 55, 100
3, 176256, Note_on_c, 1, 57, 74
3, 176444, Note_off_c, 1, 45, 100
3, 176444, Note_off_c, 1, 57, 100
3, 176448, Note_on_c, 1, 57, 73
3, 176448, Note_on_c, 1, 45, 73
3, 176828, Note_off_c, 1, 57, 100
3, 176828, Note_off_c, 1, 45, 100
3, 176832, Note_on_c, 1, 57, 71
3, 176832, Note_on_c, 1, 45, 71
3, 177020, Note_off_c, 1, 57, 100
3, 177020, Note_off_c, 1, 45, 100
3, 177024, Note_on_c, 1, 50, 80
3, 177024, Note_on_c, 1, 38, 80
3, 177600, Note_on_c, 1, 45, 80
3, 177788, Note_off_c, 1, 45, 100
3, 177792, Note_on_c, 1, 47, 80
3, 177980, Note_off_c, 1, 47, 100
3, 177984, Note_on_c, 1, 43, 80
3, 178172, Note_off_c, 1, 43, 100
3, 178368, Note_on_c, 1, 43, 80
3, 178556, Note_off_c, 1, 43, 100
3, 178560, Note_on_c, 1, 45, 80
3, 178748, Note_off_c, 1, 45, 100
3, 178752, Note_on_c, 1, 42, 80
3, 178940, Note_off_c, 1, 42, 100
3, 179136, Note_on_c, 1, 42, 80
3, 179324, Note_off_c, 1, 42, 100
3, 179328, Note_on_c, 1, 43, 80
3, 179516, Note_off_c, 1, 43, 100
3, 179520, Note_on_c, 1, 40, 80
3, 179708, Note_off_c, 1, 40, 100
3, 179904, Note_on_c, 1, 40, 80
3, 180092, Note_off_c, 1, 38, 100
3, 180092, Note_off_c, 1, 50, 100
3, 180092, Note_off_c, 1, 40, 100
3, 180096, Note_on_c, 1, 50, 80
3, 180096, Note_on_c, 1, 38, 80
3, 180096, Note_on_c, 1, 42, 80
3, 180284, Note_off_c, 1, 42, 100
3, 180288, Note_on_c, 1, 38, 80
3, 180476, Note_off_c, 1, 38, 100
3, 180672, Note_on_c, 1, 45, 80
3, 180860, Note_off_c, 1, 45, 100
3, 180864, Note_on_c, 1, 47, 80
3, 181052, Note_off_c, 1, 47, 100
3, 181056, Note_on_c, 1, 43, 80
3, 181244, Note_off_c, 1, 43, 100
3, 181440, Note_on_c, 1, 43, 80
3, 181628, Note_off_c, 1, 43, 100
3, 181632, Note_on_c, 1, 45, 80
3, 181820, Note_off_c, 1, 45, 100
3, 181824, Note_on_c, 1, 42, 80
3, 182012, Note_off_c, 1, 42, 100
3, 182208, Note_on_c, 1, 42, 80
3, 182396, Note_off_c, 1, 42, 100
3, 182400, Note_on_c, 1, 43, 80
3, 182588, Note_off_c, 1, 43, 100
3, 182592, Note_on_c, 1, 40, 80
3, 182780, Note_off_c, 1, 40, 100
3, 182976, Note_on_c, 1, 40, 80
3, 183164, Note_off_c, 1, 38, 100
3, 183164, Note_off_c, 1, 50, 100
3, 183164, Note_off_c, 1, 40, 100
3, 183168, Note_on_c, 1, 50, 80
3, 183168, Note_on_c, 1, 42, 80
3, 183356, Note_off_c, 1, 42, 100
3, 183360, Note_on_c, 1, 38, 80
3, 183548, Note_off_c, 1, 38, 100
3, 183744, Note_on_c, 1, 42, 80
3, 183932, Note_off_c, 1, 42, 100
3, 183936, Note_on_c, 1, 43, 80
3, 184124, Note_off_c, 1, 43, 100
3, 184128, Note_on_c, 1, 38, 80
3, 184316, Note_off_c, 1, 38, 100
3, 184512, Note_on_c, 1, 43, 80
3, 184700, Note_off_c, 1, 43, 100
3, 184704, Note_on_c, 1, 42, 80
3, 184892, Note_off_c, 1, 42, 100
3, 184896, Note_on_c, 1, 38, 80
3, 185084, Note_off_c, 1, 38, 100
3, 185280, Note_on_c, 1, 42, 80
3, 185468, Note_off_c, 1, 42, 100
3, 185472, Note_on_c, 1, 43, 80
3, 185660, Note_off_c, 1, 43, 100
3, 185664, Note_on_c, 1, 38, 80
3, 185852, Note_off_c, 1, 38, 100
3, 186240, Note_on_c, 1, 42, 80
3, 186428, Note_off_c, 1, 42, 100
3, 186432, Note_on_c, 1, 38, 80
3, 186620, Note_off_c, 1, 50, 100
3, 186620, Note_off_c, 1, 38, 100
3, 187392, Note_on_c, 1, 50, 80
3, 187484, Note_off_c, 1, 50, 100
3, 187488, Note_on_c, 1, 45, 80
3, 187580, Note_off_c, 1, 45, 100
3, 187584, Note_on_c, 1, 42, 80
3, 187676, Note_off_c, 1, 42, 100
3, 187680, Note_on_c, 1, 45, 80
3, 187772, Note_off_c, 1, 45, 100
3, 187776, Note_on_c, 1, 38, 80
3, 188540, Note_off_c, 1, 38, 100
3, 188540, End_track
0, 0, End_of_file
