0, 0, Header, 1, 3, 384
1, 0, Start_track
1, 0, Title_t, "L.v.Beethoven 1mov - Piano Sonata No.7 in D Major Op.10-3\000"
1, 0, Copyright_t, "Copyright(C) 1995-2009, Suzuki Software\000"
1, 0, Sequencer_specific, 9, 67, 123, 0, 88, 70, 48, 50, 0, 1
1, 0, Text_t, "XFhd:2000/04/19:JP:Classical::::L.v.Beethoven:::Kaoru Suzuki\000"
1, 0, Text_t, "XFln:JP:\203s\203A\203m\203\\\203i\203^\221æ7\224Ô\203j\222·\222²\215ì\225i10-3\201`\221æ1\212y\217Í:L.v.\203x\201[\203g\201[\203\224\203F\203\223:::\227é\202¿\202á\202ñ:\227é\202¿\202á\202ñ\000"
1, 0, Time_signature, 1, 1, 96, 8
1, 0, Sequencer_specific, 3, 0, 0, 65
1, 0, Sequencer_specific, 5, 0, 0, 119, 14, 0
1, 0, Tempo, 193548
1, 768, Time_signature, 2, 1, 96, 8
1, 4608, Tempo, 214285
1, 8448, Tempo, 193548
1, 33024, Tempo, 214285
1, 33792, Tempo, 250000
1, 37632, Tempo, 193548
1, 83712, Tempo, 206896
1, 101376, Tempo, 222222
1, 102144, Tempo, 250000
1, 105216, Tempo, 193548
1, 162048, Tempo, 200000
1, 162432, Tempo, 209790
1, 162816, Tempo, 222222
1, 163200, Tempo, 234375
1, 163584, Tempo, 214285
1, 191232, Tempo, 230769
1, 194304, Tempo, 193548
1, 198144, Tempo, 214285
1, 201984, Tempo, 193548
1, 225792, Tempo, 214285
1, 227328, Tempo, 250000
1, 231168, Tempo, 193548
1, 277248, Tempo, 204081
1, 294912, Tempo, 214285
1, 295680, Tempo, 250000
1, 298752, Tempo, 206896
1, 304896, Tempo, 200000
1, 355584, Tempo, 206896
1, 356352, Tempo, 222222
1, 356736, Tempo, 250000
1, 358656, Tempo, 214285
1, 384768, Tempo, 230769
1, 385536, Tempo, 250000
1, 387840, Tempo, 206896
1, 393984, Tempo, 200000
1, 401664, Tempo, 193548
1, 475392, Tempo, 200000
1, 476928, Tempo, 214285
1, 477696, Tempo, 250000
1, 478080, Tempo, 300000
1, 478464, Tempo, 250000
1, 483072, Tempo, 193548
1, 486912, Tempo, 214285
1, 487296, Tempo, 250000
1, 490368, Tempo, 214285
1, 490752, Tempo, 193548
1, 559872, Tempo, 206896
1, 579072, Tempo, 214285
1, 579840, Tempo, 250000
1, 581376, Tempo, 206896
1, 639744, Tempo, 214285
1, 640512, Tempo, 230769
1, 640896, Tempo, 250000
1, 641280, Tempo, 214285
1, 704256, Tempo, 200000
1, 728064, Tempo, 214285
1, 728448, Tempo, 250000
1, 728448, End_track
2, 0, Start_track
2, 0, Title_t, "Right"
2, 0, Control_c, 0, 0, 0
2, 0, Program_c, 0, 0
2, 0, Control_c, 0, 7, 100
2, 0, Control_c, 0, 10, 75
2, 0, Control_c, 0, 91, 127
2, 0, Key_signature, 2, "major"
2, 384, Note_on_c, 0, 62, 80
2, 384, Note_on_c, 0, 50, 80
2, 760, Note_off_c, 0, 62, 100
2, 760, Note_off_c, 0, 50, 100
2, 768, Note_on_c, 0, 61, 80
2, 1144, Note_off_c, 0, 61, 100
2, 1152, Note_on_c, 0, 59, 80
2, 1528, Note_off_c, 0, 59, 100
2, 1536, Note_on_c, 0, 57, 80
2, 1912, Note_off_c, 0, 57, 100
2, 1920, Note_on_c, 0, 61, 80
2, 2296, Note_off_c, 0, 61, 100
2, 2304, Note_on_c, 0, 62, 80
2, 2680, Note_off_c, 0, 62, 100
2, 2688, Note_on_c, 0, 66, 80
2, 3064, Note_off_c, 0, 66, 100
2, 3072, Note_on_c, 0, 69, 80
2, 3072, Note_on_c, 0, 57, 80
2, 3448, Note_off_c, 0, 69, 100
2, 3448, Note_off_c, 0, 57, 100
2, 3456, Note_on_c, 0, 73, 80
2, 3456, Note_on_c, 0, 61, 80
2, 3832, Note_off_c, 0, 73, 100
2, 3832, Note_off_c, 0, 61, 100
2, 3840, Note_on_c, 0, 74, 80
2, 3840, Note_on_c, 0, 62, 80
2, 4216, Note_off_c, 0, 74, 100
2, 4216, Note_off_c, 0, 62, 100
2, 4224, Note_on_c, 0, 76, 80
2, 4224, Note_on_c, 0, 64, 80
2, 4600, Note_off_c, 0, 76, 100
2, 4600, Note_off_c, 0, 64, 100
2, 4608, Note_on_c, 0, 78, 80
2, 4608, Note_on_c, 0, 66, 80
2, 4984, Note_off_c, 0, 78, 100
2, 4984, Note_off_c, 0, 66, 100
2, 4992, Note_on_c, 0, 79, 80
2, 4992, Note_on_c, 0, 67, 80
2, 5368, Note_off_c, 0, 79, 100
2, 5368, Note_off_c, 0, 67, 100
2, 5376, Note_on_c, 0, 81, 110
2, 5376, Note_on_c, 0, 69, 110
2, 8056, Note_off_c, 0, 69, 100
2, 8056, Note_off_c, 0, 81, 100
2, 8064, Note_on_c, 0, 74, 80
2, 8440, Note_off_c, 0, 74, 100
2, 8448, Note_on_c, 0, 73, 80
2, 8824, Note_off_c, 0, 73, 100
2, 8832, Note_on_c, 0, 71, 80
2, 9208, Note_off_c, 0, 71, 100
2, 9216, Note_on_c, 0, 69, 80
2, 9592, Note_off_c, 0, 69, 100
2, 9600, Note_on_c, 0, 71, 80
2, 9600, Note_on_c, 0, 81, 90
2, 9976, Note_off_c, 0, 71, 100
2, 9976, Note_off_c, 0, 81, 100
2, 9984, Note_on_c, 0, 81, 93
2, 9984, Note_on_c, 0, 69, 80
2, 10360, Note_off_c, 0, 69, 100
2, 10368, Note_on_c, 0, 67, 80
2, 10744, Note_off_c, 0, 67, 100
2, 10752, Note_on_c, 0, 66, 80
2, 11128, Note_off_c, 0, 81, 100
2, 11128, Note_off_c, 0, 66, 100
2, 11136, Note_on_c, 0, 67, 80
2, 11512, Note_off_c, 0, 67, 100
2, 11520, Note_on_c, 0, 66, 80
2, 11896, Note_off_c, 0, 66, 100
2, 11904, Note_on_c, 0, 64, 80
2, 12280, Note_off_c, 0, 64, 100
2, 12288, Note_on_c, 0, 62, 80
2, 12664, Note_off_c, 0, 62, 100
2, 12672, Note_on_c, 0, 64, 80
2, 12672, Note_on_c, 0, 74, 80
2, 13048, Note_off_c, 0, 64, 100
2, 13048, Note_off_c, 0, 74, 100
2, 13056, Note_on_c, 0, 74, 80
2, 13056, Note_on_c, 0, 62, 80
2, 13432, Note_off_c, 0, 74, 100
2, 13432, Note_off_c, 0, 62, 100
2, 13440, Note_on_c, 0, 73, 80
2, 13440, Note_on_c, 0, 61, 80
2, 13816, Note_off_c, 0, 73, 100
2, 13816, Note_off_c, 0, 61, 100
2, 13824, Note_on_c, 0, 74, 80
2, 13824, Note_on_c, 0, 62, 80
2, 14200, Note_off_c, 0, 74, 100
2, 14200, Note_off_c, 0, 62, 100
2, 14208, Note_on_c, 0, 75, 80
2, 14208, Note_on_c, 0, 63, 80
2, 14968, Note_off_c, 0, 63, 100
2, 14968, Note_off_c, 0, 75, 100
2, 14976, Note_on_c, 0, 76, 80
2, 14976, Note_on_c, 0, 64, 80
2, 15352, Note_off_c, 0, 76, 100
2, 15352, Note_off_c, 0, 64, 100
2, 15360, Note_on_c, 0, 73, 80
2, 15360, Note_on_c, 0, 67, 80
2, 15736, Note_off_c, 0, 73, 100
2, 15736, Note_off_c, 0, 67, 100
2, 15744, Note_on_c, 0, 69, 80
2, 16120, Note_off_c, 0, 69, 100
2, 16128, Note_on_c, 0, 74, 80
2, 16128, Note_on_c, 0, 66, 80
2, 16504, Note_off_c, 0, 74, 100
2, 16504, Note_off_c, 0, 66, 100
2, 17280, Note_on_c, 0, 78, 110
2, 17464, Note_off_c, 0, 78, 100
2, 17472, Note_on_c, 0, 86, 110
2, 17656, Note_off_c, 0, 86, 100
2, 17664, Note_on_c, 0, 76, 110
2, 17848, Note_off_c, 0, 76, 100
2, 17856, Note_on_c, 0, 85, 110
2, 18040, Note_off_c, 0, 85, 100
2, 18048, Note_on_c, 0, 74, 110
2, 18232, Note_off_c, 0, 74, 100
2, 18240, Note_on_c, 0, 83, 110
2, 18424, Note_off_c, 0, 83, 100
2, 18432, Note_on_c, 0, 73, 110
2, 18616, Note_off_c, 0, 73, 100
2, 18624, Note_on_c, 0, 81, 110
2, 18808, Note_off_c, 0, 81, 100
2, 18816, Note_on_c, 0, 74, 110
2, 19000, Note_off_c, 0, 74, 100
2, 19008, Note_on_c, 0, 83, 110
2, 19192, Note_off_c, 0, 83, 100
2, 19200, Note_on_c, 0, 73, 110
2, 19384, Note_off_c, 0, 73, 100
2, 19392, Note_on_c, 0, 81, 110
2, 19576, Note_off_c, 0, 81, 100
2, 19584, Note_on_c, 0, 71, 110
2, 19768, Note_off_c, 0, 71, 100
2, 19776, Note_on_c, 0, 79, 110
2, 19960, Note_off_c, 0, 79, 100
2, 19968, Note_on_c, 0, 69, 110
2, 20152, Note_off_c, 0, 69, 100
2, 20160, Note_on_c, 0, 78, 110
2, 20344, Note_off_c, 0, 78, 100
2, 20352, Note_on_c, 0, 71, 110
2, 20536, Note_off_c, 0, 71, 100
2, 20544, Note_on_c, 0, 79, 110
2, 20728, Note_off_c, 0, 79, 100
2, 20736, Note_on_c, 0, 69, 110
2, 20920, Note_off_c, 0, 69, 100
2, 20928, Note_on_c, 0, 78, 110
2, 21112, Note_off_c, 0, 78, 100
2, 21120, Note_on_c, 0, 67, 110
2, 21304, Note_off_c, 0, 67, 100
2, 21312, Note_on_c, 0, 76, 110
2, 21496, Note_off_c, 0, 76, 100
2, 21504, Note_on_c, 0, 66, 110
2, 21688, Note_off_c, 0, 66, 100
2, 21696, Note_on_c, 0, 74, 110
2, 21880, Note_off_c, 0, 74, 100
2, 21888, Note_on_c, 0, 67, 110
2, 22072, Note_off_c, 0, 67, 100
2, 22080, Note_on_c, 0, 76, 110
2, 22264, Note_off_c, 0, 76, 100
2, 22272, Note_on_c, 0, 66, 110
2, 22456, Note_off_c, 0, 66, 100
2, 22464, Note_on_c, 0, 74, 110
2, 22648, Note_off_c, 0, 74, 100
2, 22656, Note_on_c, 0, 66, 110
2, 22840, Note_off_c, 0, 66, 100
2, 22848, Note_on_c, 0, 75, 110
2, 23032, Note_off_c, 0, 75, 100
2, 23040, Note_on_c, 0, 67, 110
2, 23224, Note_off_c, 0, 67, 100
2, 23232, Note_on_c, 0, 76, 110
2, 23416, Note_off_c, 0, 76, 100
2, 23424, Note_on_c, 0, 69, 110
2, 23608, Note_off_c, 0, 69, 100
2, 23616, Note_on_c, 0, 78, 110
2, 23800, Note_off_c, 0, 78, 100
2, 23808, Note_on_c, 0, 71, 110
2, 23992, Note_off_c, 0, 71, 100
2, 24000, Note_on_c, 0, 79, 110
2, 24184, Note_off_c, 0, 79, 100
2, 24192, Note_on_c, 0, 78, 110
2, 24376, Note_off_c, 0, 78, 100
2, 24384, Note_on_c, 0, 81, 110
2, 24568, Note_off_c, 0, 81, 100
2, 24576, Note_on_c, 0, 79, 110
2, 24760, Note_off_c, 0, 79, 100
2, 24768, Note_on_c, 0, 83, 110
2, 24952, Note_off_c, 0, 83, 100
2, 24960, Note_on_c, 0, 73, 110
2, 24960, Note_on_c, 0, 67, 110
2, 24960, Note_on_c, 0, 64, 110
2, 25336, Note_off_c, 0, 73, 100
2, 25336, Note_off_c, 0, 67, 100
2, 25336, Note_off_c, 0, 64, 100
2, 25344, Note_on_c, 0, 74, 110
2, 25344, Note_on_c, 0, 66, 110
2, 25344, Note_on_c, 0, 62, 110
2, 25720, Note_off_c, 0, 74, 100
2, 25720, Note_off_c, 0, 66, 100
2, 25720, Note_off_c, 0, 62, 100
2, 26688, Note_on_c, 0, 62, 100
2, 26688, Note_on_c, 0, 50, 100
2, 26872, Note_off_c, 0, 62, 100
2, 26872, Note_off_c, 0, 50, 100
2, 27072, Note_on_c, 0, 61, 100
2, 27072, Note_on_c, 0, 49, 100
2, 27256, Note_off_c, 0, 61, 100
2, 27256, Note_off_c, 0, 49, 100
2, 27456, Note_on_c, 0, 59, 100
2, 27456, Note_on_c, 0, 47, 100
2, 27640, Note_off_c, 0, 59, 100
2, 27640, Note_off_c, 0, 47, 100
2, 27840, Note_on_c, 0, 57, 100
2, 27840, Note_on_c, 0, 45, 100
2, 28024, Note_off_c, 0, 57, 100
2, 28024, Note_off_c, 0, 45, 100
2, 28224, Note_on_c, 0, 61, 100
2, 28224, Note_on_c, 0, 49, 100
2, 28408, Note_off_c, 0, 61, 100
2, 28408, Note_off_c, 0, 49, 100
2, 28608, Note_on_c, 0, 50, 100
2, 28608, Note_on_c, 0, 62, 100
2, 28792, Note_off_c, 0, 50, 100
2, 28792, Note_off_c, 0, 62, 100
2, 28992, Note_on_c, 0, 66, 100
2, 28992, Note_on_c, 0, 54, 100
2, 29176, Note_off_c, 0, 66, 100
2, 29176, Note_off_c, 0, 54, 100
2, 29376, Note_on_c, 0, 69, 101
2, 29376, Note_on_c, 0, 57, 101
2, 29560, Note_off_c, 0, 69, 100
2, 29560, Note_off_c, 0, 57, 100
2, 29760, Note_on_c, 0, 73, 103
2, 29760, Note_on_c, 0, 61, 103
2, 29944, Note_off_c, 0, 73, 100
2, 29944, Note_off_c, 0, 61, 100
2, 30144, Note_on_c, 0, 74, 105
2, 30144, Note_on_c, 0, 62, 105
2, 30328, Note_off_c, 0, 74, 100
2, 30328, Note_off_c, 0, 62, 100
2, 30528, Note_on_c, 0, 76, 107
2, 30528, Note_on_c, 0, 64, 107
2, 30712, Note_off_c, 0, 76, 100
2, 30712, Note_off_c, 0, 64, 100
2, 30912, Note_on_c, 0, 78, 109
2, 30912, Note_on_c, 0, 66, 109
2, 31096, Note_off_c, 0, 78, 100
2, 31096, Note_off_c, 0, 66, 100
2, 31296, Note_on_c, 0, 79, 111
2, 31296, Note_on_c, 0, 67, 111
2, 31480, Note_off_c, 0, 79, 100
2, 31480, Note_off_c, 0, 67, 100
2, 31680, Note_on_c, 0, 81, 113
2, 31680, Note_on_c, 0, 69, 113
2, 31864, Note_off_c, 0, 81, 100
2, 31864, Note_off_c, 0, 69, 100
2, 32064, Note_on_c, 0, 82, 115
2, 32064, Note_on_c, 0, 70, 115
2, 32248, Note_off_c, 0, 82, 100
2, 32248, Note_off_c, 0, 70, 100
2, 32448, Note_on_c, 0, 83, 117
2, 32448, Note_on_c, 0, 71, 117
2, 32632, Note_off_c, 0, 83, 100
2, 32632, Note_off_c, 0, 71, 100
2, 32832, Note_on_c, 0, 85, 119
2, 32832, Note_on_c, 0, 73, 119
2, 33016, Note_off_c, 0, 85, 100
2, 33016, Note_off_c, 0, 73, 100
2, 33024, Note_on_c, 0, 74, 120
2, 33024, Note_on_c, 0, 86, 120
2, 33400, Note_off_c, 0, 74, 100
2, 33400, Note_off_c, 0, 86, 100
2, 33792, Note_on_c, 0, 76, 120
2, 33792, Note_on_c, 0, 88, 120
2, 34168, Note_off_c, 0, 76, 100
2, 34168, Note_off_c, 0, 88, 100
2, 34560, Note_on_c, 0, 78, 120
2, 34560, Note_on_c, 0, 90, 120
2, 37240, Note_off_c, 0, 78, 100
2, 37240, Note_off_c, 0, 90, 100
2, 37248, Note_on_c, 0, 66, 100
2, 37624, Note_off_c, 0, 66, 100
2, 37632, Note_on_c, 0, 74, 100
2, 38392, Note_off_c, 0, 74, 100
2, 38400, Note_on_c, 0, 78, 100
2, 39160, Note_off_c, 0, 78, 100
2, 39168, Note_on_c, 0, 74, 100
2, 39928, Note_off_c, 0, 74, 100
2, 39936, Note_on_c, 0, 76, 100
2, 40120, Note_off_c, 0, 76, 100
2, 40128, Note_on_c, 0, 74, 100
2, 40312, Note_off_c, 0, 74, 100
2, 40320, Note_on_c, 0, 73, 100
2, 40504, Note_off_c, 0, 73, 100
2, 40512, Note_on_c, 0, 71, 100
2, 40696, Note_off_c, 0, 71, 100
2, 40704, Note_on_c, 0, 70, 100
2, 41080, Note_off_c, 0, 70, 100
2, 41088, Note_on_c, 0, 70, 100
2, 41464, Note_off_c, 0, 70, 100
2, 41472, Note_on_c, 0, 73, 100
2, 41656, Note_off_c, 0, 73, 100
2, 41664, Note_on_c, 0, 71, 100
2, 41848, Note_off_c, 0, 71, 100
2, 41856, Note_on_c, 0, 70, 100
2, 42040, Note_off_c, 0, 70, 100
2, 42048, Note_on_c, 0, 71, 100
2, 42232, Note_off_c, 0, 71, 100
2, 42240, Note_on_c, 0, 73, 100
2, 43000, Note_off_c, 0, 73, 100
2, 43008, Note_on_c, 0, 66, 100
2, 43384, Note_off_c, 0, 66, 100
2, 43392, Note_on_c, 0, 66, 100
2, 43768, Note_off_c, 0, 66, 100
2, 43776, Note_on_c, 0, 74, 100
2, 44536, Note_off_c, 0, 74, 100
2, 44544, Note_on_c, 0, 78, 100
2, 45304, Note_off_c, 0, 78, 100
2, 45312, Note_on_c, 0, 74, 100
2, 46072, Note_off_c, 0, 74, 100
2, 46080, Note_on_c, 0, 76, 100
2, 46264, Note_off_c, 0, 76, 100
2, 46272, Note_on_c, 0, 74, 100
2, 46456, Note_off_c, 0, 74, 100
2, 46464, Note_on_c, 0, 73, 100
2, 46648, Note_off_c, 0, 73, 100
2, 46656, Note_on_c, 0, 71, 100
2, 46840, Note_off_c, 0, 71, 100
2, 46848, Note_on_c, 0, 69, 100
2, 47224, Note_off_c, 0, 69, 100
2, 47232, Note_on_c, 0, 69, 100
2, 47608, Note_off_c, 0, 69, 100
2, 47616, Note_on_c, 0, 69, 100
2, 47800, Note_off_c, 0, 69, 100
2, 47808, Note_on_c, 0, 68, 100
2, 47992, Note_off_c, 0, 68, 100
2, 48000, Note_on_c, 0, 66, 100
2, 48184, Note_off_c, 0, 66, 100
2, 48192, Note_on_c, 0, 68, 100
2, 48376, Note_off_c, 0, 68, 100
2, 48384, Note_on_c, 0, 66, 100
2, 48760, Note_off_c, 0, 66, 100
2, 49536, Note_on_c, 0, 61, 100
2, 49912, Note_off_c, 0, 61, 100
2, 49920, Note_on_c, 0, 68, 100
2, 50104, Note_off_c, 0, 68, 100
2, 50112, Note_on_c, 0, 61, 100
2, 50296, Note_off_c, 0, 61, 100
2, 50304, Note_on_c, 0, 65, 100
2, 50488, Note_off_c, 0, 65, 100
2, 50496, Note_on_c, 0, 68, 100
2, 50680, Note_off_c, 0, 68, 100
2, 50688, Note_on_c, 0, 69, 100
2, 50872, Note_off_c, 0, 69, 100
2, 50880, Note_on_c, 0, 61, 100
2, 51064, Note_off_c, 0, 61, 100
2, 51072, Note_on_c, 0, 66, 100
2, 51256, Note_off_c, 0, 66, 100
2, 51264, Note_on_c, 0, 69, 100
2, 51448, Note_off_c, 0, 69, 100
2, 51456, Note_on_c, 0, 71, 100
2, 51640, Note_off_c, 0, 71, 100
2, 51648, Note_on_c, 0, 61, 100
2, 51832, Note_off_c, 0, 61, 100
2, 51840, Note_on_c, 0, 65, 100
2, 52024, Note_off_c, 0, 65, 100
2, 52032, Note_on_c, 0, 68, 100
2, 52216, Note_off_c, 0, 68, 100
2, 52224, Note_on_c, 0, 73, 100
2, 52408, Note_off_c, 0, 73, 100
2, 52416, Note_on_c, 0, 71, 100
2, 52600, Note_off_c, 0, 71, 100
2, 52608, Note_on_c, 0, 69, 100
2, 52792, Note_off_c, 0, 69, 100
2, 52800, Note_on_c, 0, 68, 100
2, 52984, Note_off_c, 0, 68, 100
2, 52992, Note_on_c, 0, 69, 100
2, 53176, Note_off_c, 0, 69, 100
2, 53184, Note_on_c, 0, 66, 100
2, 53368, Note_off_c, 0, 66, 100
2, 53376, Note_on_c, 0, 65, 100
2, 53560, Note_off_c, 0, 65, 100
2, 53568, Note_on_c, 0, 66, 100
2, 53752, Note_off_c, 0, 66, 100
2, 53760, Note_on_c, 0, 71, 100
2, 53944, Note_off_c, 0, 71, 100
2, 53952, Note_on_c, 0, 66, 100
2, 54136, Note_off_c, 0, 66, 100
2, 54144, Note_on_c, 0, 65, 100
2, 54328, Note_off_c, 0, 65, 100
2, 54336, Note_on_c, 0, 66, 100
2, 54520, Note_off_c, 0, 66, 100
2, 54528, Note_on_c, 0, 73, 100
2, 54712, Note_off_c, 0, 73, 100
2, 54720, Note_on_c, 0, 69, 100
2, 54904, Note_off_c, 0, 69, 100
2, 54912, Note_on_c, 0, 68, 100
2, 55096, Note_off_c, 0, 68, 100
2, 55104, Note_on_c, 0, 69, 100
2, 55288, Note_off_c, 0, 69, 100
2, 55296, Note_on_c, 0, 71, 100
2, 55480, Note_off_c, 0, 71, 100
2, 55488, Note_on_c, 0, 69, 100
2, 55672, Note_off_c, 0, 69, 100
2, 55680, Note_on_c, 0, 68, 100
2, 55864, Note_off_c, 0, 68, 100
2, 55872, Note_on_c, 0, 69, 100
2, 56056, Note_off_c, 0, 69, 100
2, 56064, Note_on_c, 0, 71, 100
2, 56248, Note_off_c, 0, 71, 100
2, 56256, Note_on_c, 0, 64, 100
2, 56440, Note_off_c, 0, 64, 100
2, 56448, Note_on_c, 0, 68, 100
2, 56632, Note_off_c, 0, 68, 100
2, 56640, Note_on_c, 0, 71, 100
2, 56824, Note_off_c, 0, 71, 100
2, 56832, Note_on_c, 0, 73, 100
2, 57016, Note_off_c, 0, 73, 100
2, 57024, Note_on_c, 0, 64, 100
2, 57208, Note_off_c, 0, 64, 100
2, 57216, Note_on_c, 0, 68, 100
2, 57400, Note_off_c, 0, 68, 100
2, 57408, Note_on_c, 0, 73, 100
2, 57592, Note_off_c, 0, 73, 100
2, 57600, Note_on_c, 0, 74, 100
2, 57784, Note_off_c, 0, 74, 100
2, 57792, Note_on_c, 0, 64, 100
2, 57976, Note_off_c, 0, 64, 100
2, 57984, Note_on_c, 0, 68, 100
2, 58168, Note_off_c, 0, 68, 100
2, 58176, Note_on_c, 0, 71, 100
2, 58360, Note_off_c, 0, 71, 100
2, 58368, Note_on_c, 0, 76, 100
2, 58552, Note_off_c, 0, 76, 100
2, 58560, Note_on_c, 0, 74, 100
2, 58744, Note_off_c, 0, 74, 100
2, 58752, Note_on_c, 0, 73, 100
2, 58936, Note_off_c, 0, 73, 100
2, 58944, Note_on_c, 0, 71, 100
2, 59128, Note_off_c, 0, 71, 100
2, 59136, Note_on_c, 0, 73, 100
2, 59320, Note_off_c, 0, 73, 100
2, 59328, Note_on_c, 0, 69, 100
2, 59512, Note_off_c, 0, 69, 100
2, 59520, Note_on_c, 0, 68, 100
2, 59704, Note_off_c, 0, 68, 100
2, 59712, Note_on_c, 0, 69, 100
2, 59896, Note_off_c, 0, 69, 100
2, 59904, Note_on_c, 0, 74, 100
2, 60088, Note_off_c, 0, 74, 100
2, 60096, Note_on_c, 0, 69, 100
2, 60280, Note_off_c, 0, 69, 100
2, 60288, Note_on_c, 0, 68, 100
2, 60472, Note_off_c, 0, 68, 100
2, 60480, Note_on_c, 0, 69, 100
2, 60664, Note_off_c, 0, 69, 100
2, 60672, Note_on_c, 0, 76, 100
2, 60856, Note_off_c, 0, 76, 100
2, 60864, Note_on_c, 0, 69, 100
2, 61048, Note_off_c, 0, 69, 100
2, 61056, Note_on_c, 0, 68, 100
2, 61240, Note_off_c, 0, 68, 100
2, 61248, Note_on_c, 0, 69, 100
2, 61432, Note_off_c, 0, 69, 100
2, 61440, Note_on_c, 0, 71, 100
2, 61624, Note_off_c, 0, 71, 100
2, 61632, Note_on_c, 0, 73, 100
2, 61816, Note_off_c, 0, 73, 100
2, 61824, Note_on_c, 0, 74, 100
2, 62008, Note_off_c, 0, 74, 100
2, 62016, Note_on_c, 0, 76, 100
2, 62200, Note_off_c, 0, 76, 100
2, 62208, Note_on_c, 0, 78, 100
2, 63928, Note_off_c, 0, 78, 100
2, 63936, Note_on_c, 0, 78, 100
2, 64120, Note_off_c, 0, 78, 100
2, 64128, Note_on_c, 0, 77, 100
2, 64312, Note_off_c, 0, 77, 100
2, 64320, Note_on_c, 0, 78, 100
2, 64504, Note_off_c, 0, 78, 100
2, 64512, Note_on_c, 0, 80, 100
2, 64696, Note_off_c, 0, 80, 100
2, 64704, Note_on_c, 0, 81, 100
2, 64888, Note_off_c, 0, 81, 100
2, 64896, Note_on_c, 0, 83, 100
2, 65080, Note_off_c, 0, 83, 100
2, 65088, Note_on_c, 0, 85, 100
2, 65272, Note_off_c, 0, 85, 100
2, 65280, Note_on_c, 0, 86, 100
2, 66432, Note_on_c, 0, 76, 103
2, 66616, Note_off_c, 0, 76, 100
2, 66624, Note_on_c, 0, 78, 104
2, 66808, Note_off_c, 0, 78, 100
2, 66816, Note_on_c, 0, 80, 105
2, 68344, Note_off_c, 0, 86, 100
2, 68344, Note_off_c, 0, 80, 100
2, 68352, Note_on_c, 0, 85, 110
2, 68352, Note_on_c, 0, 81, 110
2, 68352, Note_on_c, 0, 73, 110
2, 69880, Note_off_c, 0, 85, 100
2, 69880, Note_off_c, 0, 81, 100
2, 69880, Note_off_c, 0, 73, 100
2, 69888, Note_on_c, 0, 83, 115
2, 69888, Note_on_c, 0, 80, 115
2, 69888, Note_on_c, 0, 77, 115
2, 69888, Note_on_c, 0, 73, 115
2, 69888, Note_on_c, 0, 71, 115
2, 71416, Note_off_c, 0, 83, 100
2, 71416, Note_off_c, 0, 80, 100
2, 71416, Note_off_c, 0, 77, 100
2, 71416, Note_off_c, 0, 73, 100
2, 71416, Note_off_c, 0, 71, 100
2, 71424, Note_on_c, 0, 81, 120
2, 71424, Note_on_c, 0, 73, 120
2, 71424, Note_on_c, 0, 69, 120
2, 71800, Note_off_c, 0, 81, 100
2, 71800, Note_off_c, 0, 73, 100
2, 71800, Note_off_c, 0, 69, 100
2, 71808, Note_on_c, 0, 80, 118
2, 71992, Note_off_c, 0, 80, 100
2, 72000, Note_on_c, 0, 78, 117
2, 72184, Note_off_c, 0, 78, 100
2, 72192, Note_on_c, 0, 76, 115
2, 72376, Note_off_c, 0, 76, 100
2, 72384, Note_on_c, 0, 75, 114
2, 72568, Note_off_c, 0, 75, 100
2, 72576, Note_on_c, 0, 73, 113
2, 72760, Note_off_c, 0, 73, 100
2, 72768, Note_on_c, 0, 71, 112
2, 72952, Note_off_c, 0, 71, 100
2, 72960, Note_on_c, 0, 69, 110
2, 73144, Note_off_c, 0, 69, 100
2, 73152, Note_on_c, 0, 68, 109
2, 73336, Note_off_c, 0, 68, 100
2, 73344, Note_on_c, 0, 66, 108
2, 73528, Note_off_c, 0, 66, 100
2, 73536, Note_on_c, 0, 64, 107
2, 73720, Note_off_c, 0, 64, 100
2, 73728, Note_on_c, 0, 63, 105
2, 73912, Note_off_c, 0, 63, 100
2, 73920, Note_on_c, 0, 61, 104
2, 74104, Note_off_c, 0, 61, 100
2, 74112, Note_on_c, 0, 59, 103
2, 74296, Note_off_c, 0, 59, 100
2, 74304, Note_on_c, 0, 57, 102
2, 74488, Note_off_c, 0, 57, 100
2, 74496, Note_on_c, 0, 56, 100
2, 74680, Note_off_c, 0, 56, 100
2, 74688, Note_on_c, 0, 54, 100
2, 74872, Note_off_c, 0, 54, 100
2, 74880, Note_on_c, 0, 52, 101
2, 75064, Note_off_c, 0, 52, 100
2, 75072, Note_on_c, 0, 54, 101
2, 75256, Note_off_c, 0, 54, 100
2, 75264, Note_on_c, 0, 56, 102
2, 75448, Note_off_c, 0, 56, 100
2, 75456, Note_on_c, 0, 57, 103
2, 75640, Note_off_c, 0, 57, 100
2, 75648, Note_on_c, 0, 59, 103
2, 75832, Note_off_c, 0, 59, 100
2, 75840, Note_on_c, 0, 61, 104
2, 76024, Note_off_c, 0, 61, 100
2, 76032, Note_on_c, 0, 62, 100
2, 76216, Note_off_c, 0, 62, 100
2, 76224, Note_on_c, 0, 61, 100
2, 76408, Note_off_c, 0, 61, 100
2, 76416, Note_on_c, 0, 59, 100
2, 76600, Note_off_c, 0, 59, 100
2, 76608, Note_on_c, 0, 61, 100
2, 76792, Note_off_c, 0, 61, 100
2, 76800, Note_on_c, 0, 62, 100
2, 76984, Note_off_c, 0, 62, 100
2, 76992, Note_on_c, 0, 64, 100
2, 77176, Note_off_c, 0, 64, 100
2, 77184, Note_on_c, 0, 66, 100
2, 77368, Note_off_c, 0, 66, 100
2, 77376, Note_on_c, 0, 68, 100
2, 77560, Note_off_c, 0, 68, 100
2, 77568, Note_on_c, 0, 69, 100
2, 77752, Note_off_c, 0, 69, 100
2, 77760, Note_on_c, 0, 70, 100
2, 77944, Note_off_c, 0, 70, 100
2, 77952, Note_on_c, 0, 71, 101
2, 78136, Note_off_c, 0, 71, 100
2, 78144, Note_on_c, 0, 72, 101
2, 78328, Note_off_c, 0, 72, 100
2, 78336, Note_on_c, 0, 73, 102
2, 78520, Note_off_c, 0, 73, 100
2, 78528, Note_on_c, 0, 74, 103
2, 78712, Note_off_c, 0, 74, 100
2, 78720, Note_on_c, 0, 75, 103
2, 78904, Note_off_c, 0, 75, 100
2, 78912, Note_on_c, 0, 76, 104
2, 79096, Note_off_c, 0, 76, 100
2, 79104, Note_on_c, 0, 77, 105
2, 79288, Note_off_c, 0, 77, 100
2, 79296, Note_on_c, 0, 78, 105
2, 79480, Note_off_c, 0, 78, 100
2, 79488, Note_on_c, 0, 79, 106
2, 79672, Note_off_c, 0, 79, 100
2, 79680, Note_on_c, 0, 80, 106
2, 79864, Note_off_c, 0, 80, 100
2, 79872, Note_on_c, 0, 81, 107
2, 80056, Note_off_c, 0, 81, 100
2, 80064, Note_on_c, 0, 82, 108
2, 80248, Note_off_c, 0, 82, 100
2, 80256, Note_on_c, 0, 83, 108
2, 80440, Note_off_c, 0, 83, 100
2, 80448, Note_on_c, 0, 84, 109
2, 80632, Note_off_c, 0, 84, 100
2, 80640, Note_on_c, 0, 85, 110
2, 80888, Note_off_c, 0, 85, 100
2, 80896, Note_on_c, 0, 86, 110
2, 81144, Note_off_c, 0, 86, 100
2, 81152, Note_on_c, 0, 87, 110
2, 81400, Note_off_c, 0, 87, 100
2, 81408, Note_on_c, 0, 88, 110
2, 81784, Note_off_c, 0, 88, 100
2, 81792, Note_on_c, 0, 69, 110
2, 82168, Note_off_c, 0, 69, 100
2, 82176, Note_on_c, 0, 71, 110
2, 82272, Note_on_c, 0, 73, 110
2, 82360, Note_off_c, 0, 71, 100
2, 82368, Note_on_c, 0, 71, 110
2, 82456, Note_off_c, 0, 73, 100
2, 82464, Note_on_c, 0, 73, 110
2, 82552, Note_off_c, 0, 71, 100
2, 82560, Note_on_c, 0, 71, 110
2, 82648, Note_off_c, 0, 73, 100
2, 82656, Note_on_c, 0, 73, 110
2, 82744, Note_off_c, 0, 71, 100
2, 82752, Note_on_c, 0, 71, 110
2, 82840, Note_off_c, 0, 73, 100
2, 82848, Note_on_c, 0, 73, 110
2, 82936, Note_off_c, 0, 71, 100
2, 82944, Note_on_c, 0, 71, 110
2, 83032, Note_off_c, 0, 73, 100
2, 83040, Note_on_c, 0, 73, 110
2, 83128, Note_off_c, 0, 71, 100
2, 83136, Note_on_c, 0, 71, 110
2, 83224, Note_off_c, 0, 73, 100
2, 83232, Note_on_c, 0, 73, 110
2, 83320, Note_off_c, 0, 71, 100
2, 83328, Note_on_c, 0, 71, 110
2, 83416, Note_off_c, 0, 73, 100
2, 83424, Note_on_c, 0, 73, 110
2, 83512, Note_off_c, 0, 71, 100
2, 83520, Note_on_c, 0, 69, 110
2, 83608, Note_off_c, 0, 73, 100
2, 83616, Note_on_c, 0, 71, 110
2, 83704, Note_off_c, 0, 69, 100
2, 83712, Note_on_c, 0, 69, 110
2, 83800, Note_off_c, 0, 71, 100
2, 84088, Note_off_c, 0, 69, 100
2, 84480, Note_on_c, 0, 74, 80
2, 84664, Note_off_c, 0, 74, 100
2, 84672, Note_on_c, 0, 73, 80
2, 84856, Note_off_c, 0, 73, 100
2, 84864, Note_on_c, 0, 71, 80
2, 85048, Note_off_c, 0, 71, 100
2, 85056, Note_on_c, 0, 69, 80
2, 85240, Note_off_c, 0, 69, 100
2, 85248, Note_on_c, 0, 68, 80
2, 85624, Note_off_c, 0, 68, 100
2, 85632, Note_on_c, 0, 64, 80
2, 86008, Note_off_c, 0, 64, 100
2, 86016, Note_on_c, 0, 74, 80
2, 86200, Note_off_c, 0, 74, 100
2, 86208, Note_on_c, 0, 73, 80
2, 86392, Note_off_c, 0, 73, 100
2, 86400, Note_on_c, 0, 71, 80
2, 86584, Note_off_c, 0, 71, 100
2, 86592, Note_on_c, 0, 69, 80
2, 86776, Note_off_c, 0, 69, 100
2, 86784, Note_on_c, 0, 75, 80
2, 87160, Note_off_c, 0, 75, 100
2, 87168, Note_on_c, 0, 76, 80
2, 87544, Note_off_c, 0, 76, 100
2, 87552, Note_on_c, 0, 74, 80
2, 87736, Note_off_c, 0, 74, 100
2, 87744, Note_on_c, 0, 73, 80
2, 87928, Note_off_c, 0, 73, 100
2, 87936, Note_on_c, 0, 71, 80
2, 88120, Note_off_c, 0, 71, 100
2, 88128, Note_on_c, 0, 69, 80
2, 88312, Note_off_c, 0, 69, 100
2, 88320, Note_on_c, 0, 68, 80
2, 88696, Note_off_c, 0, 68, 100
2, 88704, Note_on_c, 0, 64, 80
2, 89080, Note_off_c, 0, 64, 100
2, 89088, Note_on_c, 0, 78, 80
2, 89464, Note_off_c, 0, 78, 100
2, 89472, Note_on_c, 0, 66, 80
2, 89848, Note_off_c, 0, 66, 100
2, 89856, Note_on_c, 0, 74, 80
2, 90232, Note_off_c, 0, 74, 100
2, 90240, Note_on_c, 0, 62, 80
2, 90616, Note_off_c, 0, 62, 100
2, 90624, Note_on_c, 0, 71, 80
2, 91000, Note_off_c, 0, 71, 100
2, 91008, Note_on_c, 0, 59, 80
2, 91384, Note_off_c, 0, 59, 100
2, 91392, Note_on_c, 0, 68, 80
2, 91768, Note_off_c, 0, 68, 100
2, 91776, Note_on_c, 0, 56, 80
2, 92152, Note_off_c, 0, 56, 100
2, 92160, Note_on_c, 0, 69, 80
2, 92536, Note_off_c, 0, 69, 100
2, 92544, Note_on_c, 0, 57, 80
2, 92920, Note_off_c, 0, 57, 100
2, 92928, Note_on_c, 0, 62, 80
2, 93304, Note_off_c, 0, 62, 100
2, 93312, Note_on_c, 0, 50, 80
2, 93688, Note_off_c, 0, 50, 100
2, 93696, Note_on_c, 0, 64, 80
2, 94072, Note_off_c, 0, 64, 100
2, 94080, Note_on_c, 0, 52, 80
2, 94456, Note_off_c, 0, 52, 100
2, 94464, Note_on_c, 0, 57, 80
2, 94840, Note_off_c, 0, 57, 100
2, 95232, Note_on_c, 0, 86, 80
2, 95416, Note_off_c, 0, 86, 100
2, 95424, Note_on_c, 0, 85, 80
2, 95608, Note_off_c, 0, 85, 100
2, 95616, Note_on_c, 0, 83, 80
2, 95800, Note_off_c, 0, 83, 100
2, 95808, Note_on_c, 0, 81, 80
2, 95992, Note_off_c, 0, 81, 100
2, 96000, Note_on_c, 0, 80, 80
2, 96376, Note_off_c, 0, 80, 100
2, 96384, Note_on_c, 0, 76, 80
2, 96760, Note_off_c, 0, 76, 100
2, 96768, Note_on_c, 0, 86, 80
2, 96952, Note_off_c, 0, 86, 100
2, 96960, Note_on_c, 0, 85, 80
2, 97144, Note_off_c, 0, 85, 100
2, 97152, Note_on_c, 0, 83, 80
2, 97336, Note_off_c, 0, 83, 100
2, 97344, Note_on_c, 0, 81, 80
2, 97528, Note_off_c, 0, 81, 100
2, 97536, Note_on_c, 0, 87, 80
2, 97912, Note_off_c, 0, 87, 100
2, 97920, Note_on_c, 0, 88, 80
2, 98296, Note_off_c, 0, 88, 100
2, 98304, Note_on_c, 0, 86, 80
2, 98488, Note_off_c, 0, 86, 100
2, 98496, Note_on_c, 0, 85, 80
2, 98680, Note_off_c, 0, 85, 100
2, 98688, Note_on_c, 0, 83, 80
2, 98872, Note_off_c, 0, 83, 100
2, 98880, Note_on_c, 0, 81, 80
2, 99064, Note_off_c, 0, 81, 100
2, 99072, Note_on_c, 0, 80, 80
2, 99448, Note_off_c, 0, 80, 100
2, 99456, Note_on_c, 0, 76, 80
2, 99832, Note_off_c, 0, 76, 100
2, 99840, Note_on_c, 0, 89, 80
2, 100096, Note_off_c, 0, 89, 100
2, 100224, Note_on_c, 0, 77, 80
2, 100480, Note_off_c, 0, 77, 100
2, 100608, Note_on_c, 0, 86, 80
2, 100864, Note_off_c, 0, 86, 100
2, 100992, Note_on_c, 0, 74, 80
2, 101248, Note_off_c, 0, 74, 100
2, 101376, Note_on_c, 0, 83, 80
2, 101632, Note_off_c, 0, 83, 100
2, 101760, Note_on_c, 0, 71, 80
2, 102016, Note_off_c, 0, 71, 100
2, 102144, Note_on_c, 0, 80, 80
2, 102400, Note_off_c, 0, 80, 100
2, 102528, Note_on_c, 0, 68, 80
2, 102784, Note_off_c, 0, 68, 100
2, 104832, Note_on_c, 0, 73, 80
2, 104832, Note_on_c, 0, 76, 80
2, 105208, Note_off_c, 0, 73, 100
2, 105216, Note_on_c, 0, 74, 80
2, 105592, Note_off_c, 0, 76, 100
2, 105600, Note_on_c, 0, 83, 100
2, 106360, Note_off_c, 0, 74, 100
2, 106360, Note_off_c, 0, 83, 100
2, 106368, Note_on_c, 0, 73, 80
2, 106368, Note_on_c, 0, 81, 80
2, 106744, Note_off_c, 0, 73, 100
2, 106744, Note_off_c, 0, 81, 100
2, 106752, Note_on_c, 0, 76, 80
2, 106752, Note_on_c, 0, 74, 80
2, 107128, Note_off_c, 0, 76, 100
2, 107136, Note_on_c, 0, 83, 100
2, 107896, Note_off_c, 0, 74, 100
2, 107896, Note_off_c, 0, 83, 100
2, 107904, Note_on_c, 0, 73, 80
2, 107904, Note_on_c, 0, 81, 80
2, 108280, Note_off_c, 0, 73, 100
2, 108280, Note_off_c, 0, 81, 100
2, 108288, Note_on_c, 0, 71, 80
2, 108288, Note_on_c, 0, 69, 80
2, 108672, Note_on_c, 0, 78, 80
2, 109048, Note_off_c, 0, 71, 100
2, 109048, Note_off_c, 0, 69, 100
2, 109048, Note_off_c, 0, 78, 100
2, 109056, Note_on_c, 0, 71, 80
2, 109056, Note_on_c, 0, 68, 80
2, 109440, Note_on_c, 0, 76, 80
2, 109816, Note_off_c, 0, 71, 100
2, 109816, Note_off_c, 0, 68, 100
2, 109816, Note_off_c, 0, 76, 100
2, 109824, Note_on_c, 0, 69, 80
2, 109824, Note_on_c, 0, 73, 80
2, 110008, Note_off_c, 0, 73, 100
2, 110016, Note_on_c, 0, 74, 80
2, 110200, Note_off_c, 0, 69, 100
2, 110200, Note_off_c, 0, 74, 100
2, 110208, Note_on_c, 0, 73, 80
2, 110392, Note_off_c, 0, 73, 100
2, 110400, Note_on_c, 0, 71, 80
2, 110584, Note_off_c, 0, 71, 100
2, 110592, Note_on_c, 0, 69, 80
2, 110968, Note_off_c, 0, 69, 100
2, 110976, Note_on_c, 0, 61, 70
2, 110976, Note_on_c, 0, 57, 70
2, 110976, Note_on_c, 0, 64, 70
2, 111352, Note_off_c, 0, 61, 100
2, 111352, Note_off_c, 0, 57, 100
2, 111360, Note_on_c, 0, 62, 71
2, 111360, Note_on_c, 0, 59, 71
2, 112504, Note_off_c, 0, 64, 100
2, 112504, Note_off_c, 0, 62, 100
2, 112504, Note_off_c, 0, 59, 100
2, 112512, Note_on_c, 0, 61, 75
2, 112512, Note_on_c, 0, 57, 75
2, 112512, Note_on_c, 0, 64, 75
2, 112888, Note_off_c, 0, 61, 100
2, 112888, Note_off_c, 0, 57, 100
2, 112896, Note_on_c, 0, 62, 77
2, 112896, Note_on_c, 0, 59, 77
2, 114040, Note_off_c, 0, 64, 100
2, 114040, Note_off_c, 0, 62, 100
2, 114040, Note_off_c, 0, 59, 100
2, 114048, Note_on_c, 0, 61, 81
2, 114048, Note_on_c, 0, 57, 81
2, 114424, Note_off_c, 0, 61, 100
2, 114424, Note_off_c, 0, 57, 100
2, 114432, Note_on_c, 0, 62, 82
2, 114432, Note_on_c, 0, 57, 82
2, 115576, Note_off_c, 0, 62, 100
2, 115576, Note_off_c, 0, 57, 100
2, 115584, Note_on_c, 0, 61, 87
2, 115584, Note_on_c, 0, 57, 87
2, 115960, Note_off_c, 0, 61, 100
2, 115960, Note_off_c, 0, 57, 100
2, 115968, Note_on_c, 0, 62, 88
2, 115968, Note_on_c, 0, 57, 88
2, 117112, Note_off_c, 0, 62, 100
2, 117112, Note_off_c, 0, 57, 100
2, 117120, Note_on_c, 0, 59, 92
2, 117120, Note_on_c, 0, 55, 92
2, 117496, Note_off_c, 0, 59, 100
2, 117504, Note_on_c, 0, 60, 94
2, 117880, Note_off_c, 0, 60, 100
2, 117888, Note_on_c, 0, 62, 95
2, 118264, Note_off_c, 0, 62, 100
2, 118272, Note_on_c, 0, 64, 97
2, 118648, Note_off_c, 0, 55, 100
2, 118648, Note_off_c, 0, 64, 100
2, 118656, Note_on_c, 0, 67, 98
2, 118656, Note_on_c, 0, 59, 98
2, 119032, Note_off_c, 0, 59, 100
2, 119040, Note_on_c, 0, 60, 99
2, 119416, Note_off_c, 0, 60, 100
2, 119424, Note_on_c, 0, 62, 100
2, 119800, Note_off_c, 0, 62, 100
2, 119808, Note_on_c, 0, 64, 100
2, 120184, Note_off_c, 0, 67, 100
2, 120184, Note_off_c, 0, 64, 100
2, 120192, Note_on_c, 0, 77, 100
2, 120192, Note_on_c, 0, 67, 112
2, 120568, Note_off_c, 0, 77, 100
2, 120576, Note_on_c, 0, 76, 100
2, 120952, Note_off_c, 0, 76, 100
2, 120960, Note_on_c, 0, 74, 100
2, 121336, Note_off_c, 0, 74, 100
2, 121344, Note_on_c, 0, 72, 100
2, 121720, Note_off_c, 0, 67, 100
2, 121720, Note_off_c, 0, 72, 100
2, 121728, Note_on_c, 0, 71, 110
2, 121728, Note_on_c, 0, 79, 100
2, 122104, Note_off_c, 0, 71, 100
2, 122112, Note_on_c, 0, 72, 100
2, 122488, Note_off_c, 0, 72, 100
2, 122496, Note_on_c, 0, 74, 100
2, 122872, Note_off_c, 0, 74, 100
2, 122880, Note_on_c, 0, 76, 100
2, 123256, Note_off_c, 0, 79, 100
2, 123256, Note_off_c, 0, 76, 100
2, 123264, Note_on_c, 0, 61, 100
2, 123264, Note_on_c, 0, 57, 100
2, 123640, Note_off_c, 0, 61, 100
2, 123648, Note_on_c, 0, 62, 100
2, 124024, Note_off_c, 0, 62, 100
2, 124032, Note_on_c, 0, 64, 100
2, 124408, Note_off_c, 0, 64, 100
2, 124416, Note_on_c, 0, 65, 100
2, 124792, Note_off_c, 0, 57, 100
2, 124792, Note_off_c, 0, 65, 100
2, 124800, Note_on_c, 0, 61, 110
2, 124800, Note_on_c, 0, 69, 100
2, 125176, Note_off_c, 0, 61, 100
2, 125184, Note_on_c, 0, 62, 100
2, 125560, Note_off_c, 0, 62, 100
2, 125568, Note_on_c, 0, 64, 100
2, 125944, Note_off_c, 0, 64, 100
2, 125952, Note_on_c, 0, 65, 100
2, 126328, Note_off_c, 0, 69, 100
2, 126328, Note_off_c, 0, 65, 100
2, 126336, Note_on_c, 0, 79, 110
2, 126336, Note_on_c, 0, 69, 100
2, 126712, Note_off_c, 0, 79, 100
2, 126720, Note_on_c, 0, 77, 100
2, 127096, Note_off_c, 0, 77, 100
2, 127104, Note_on_c, 0, 76, 100
2, 127480, Note_off_c, 0, 76, 100
2, 127488, Note_on_c, 0, 74, 100
2, 127864, Note_off_c, 0, 69, 100
2, 127864, Note_off_c, 0, 74, 100
2, 127872, Note_on_c, 0, 81, 100
2, 127872, Note_on_c, 0, 73, 100
2, 128248, Note_off_c, 0, 73, 100
2, 128256, Note_on_c, 0, 74, 100
2, 128632, Note_off_c, 0, 74, 100
2, 128640, Note_on_c, 0, 76, 100
2, 129016, Note_off_c, 0, 76, 100
2, 129024, Note_on_c, 0, 77, 100
2, 129400, Note_off_c, 0, 81, 100
2, 129400, Note_off_c, 0, 77, 100
2, 129408, Note_on_c, 0, 57, 100
2, 129408, Note_on_c, 0, 65, 100
2, 129784, Note_off_c, 0, 57, 100
2, 129792, Note_on_c, 0, 58, 100
2, 130168, Note_off_c, 0, 58, 100
2, 130176, Note_on_c, 0, 60, 100
2, 130552, Note_off_c, 0, 60, 100
2, 130560, Note_on_c, 0, 62, 100
2, 130936, Note_off_c, 0, 65, 100
2, 130936, Note_off_c, 0, 62, 100
2, 130944, Note_on_c, 0, 69, 100
2, 130944, Note_on_c, 0, 77, 100
2, 131320, Note_off_c, 0, 69, 100
2, 131328, Note_on_c, 0, 70, 100
2, 131704, Note_off_c, 0, 70, 100
2, 131712, Note_on_c, 0, 72, 100
2, 132088, Note_off_c, 0, 72, 100
2, 132096, Note_on_c, 0, 74, 100
2, 132472, Note_off_c, 0, 77, 100
2, 132472, Note_off_c, 0, 74, 100
2, 132480, Note_on_c, 0, 81, 110
2, 132480, Note_on_c, 0, 77, 110
2, 132856, Note_off_c, 0, 81, 100
2, 132864, Note_on_c, 0, 82, 110
2, 133240, Note_off_c, 0, 82, 100
2, 133248, Note_on_c, 0, 84, 110
2, 133624, Note_off_c, 0, 77, 100
2, 133624, Note_off_c, 0, 84, 100
2, 133632, Note_on_c, 0, 82, 110
2, 133632, Note_on_c, 0, 86, 110
2, 134008, Note_off_c, 0, 82, 100
2, 134016, Note_on_c, 0, 81, 110
2, 134392, Note_off_c, 0, 81, 100
2, 134400, Note_on_c, 0, 80, 110
2, 134776, Note_off_c, 0, 80, 100
2, 134784, Note_on_c, 0, 78, 110
2, 135160, Note_off_c, 0, 86, 100
2, 135160, Note_off_c, 0, 78, 100
2, 135168, Note_on_c, 0, 83, 110
2, 135168, Note_on_c, 0, 80, 110
2, 135168, Note_on_c, 0, 76, 110
2, 135544, Note_off_c, 0, 76, 100
2, 135552, Note_on_c, 0, 74, 110
2, 135928, Note_off_c, 0, 83, 100
2, 135928, Note_off_c, 0, 80, 100
2, 135928, Note_off_c, 0, 74, 100
2, 135936, Note_on_c, 0, 88, 120
2, 135936, Note_on_c, 0, 85, 120
2, 135936, Note_on_c, 0, 81, 120
2, 135936, Note_on_c, 0, 76, 120
2, 137464, Note_off_c, 0, 88, 100
2, 137464, Note_off_c, 0, 85, 100
2, 137464, Note_off_c, 0, 81, 100
2, 137464, Note_off_c, 0, 76, 100
2, 137472, Note_on_c, 0, 81, 120
2, 137472, Note_on_c, 0, 78, 120
2, 137472, Note_on_c, 0, 73, 120
2, 137472, Note_on_c, 0, 69, 120
2, 139000, Note_off_c, 0, 81, 100
2, 139000, Note_off_c, 0, 78, 100
2, 139000, Note_off_c, 0, 73, 100
2, 139000, Note_off_c, 0, 69, 100
2, 139008, Note_on_c, 0, 86, 120
2, 139008, Note_on_c, 0, 83, 120
2, 139008, Note_on_c, 0, 78, 120
2, 139008, Note_on_c, 0, 74, 120
2, 140536, Note_off_c, 0, 86, 100
2, 140536, Note_off_c, 0, 83, 100
2, 140536, Note_off_c, 0, 78, 100
2, 140536, Note_off_c, 0, 74, 100
2, 140544, Note_on_c, 0, 71, 120
2, 140544, Note_on_c, 0, 68, 120
2, 140544, Note_on_c, 0, 64, 120
2, 140544, Note_on_c, 0, 59, 120
2, 142072, Note_off_c, 0, 71, 100
2, 142072, Note_off_c, 0, 68, 100
2, 142072, Note_off_c, 0, 64, 100
2, 142072, Note_off_c, 0, 59, 100
2, 142080, Note_on_c, 0, 76, 120
2, 142080, Note_on_c, 0, 73, 120
2, 142080, Note_on_c, 0, 69, 120
2, 142080, Note_on_c, 0, 64, 120
2, 143224, Note_off_c, 0, 76, 100
2, 143224, Note_off_c, 0, 73, 100
2, 143224, Note_off_c, 0, 69, 100
2, 143224, Note_off_c, 0, 64, 100
2, 143232, Note_on_c, 0, 74, 120
2, 143232, Note_on_c, 0, 71, 120
2, 143232, Note_on_c, 0, 66, 120
2, 143232, Note_on_c, 0, 62, 120
2, 143992, Note_off_c, 0, 62, 100
2, 143992, Note_off_c, 0, 66, 100
2, 143992, Note_off_c, 0, 71, 100
2, 143992, Note_off_c, 0, 74, 100
2, 144000, Note_on_c, 0, 73, 120
2, 144000, Note_on_c, 0, 69, 120
2, 144000, Note_on_c, 0, 64, 120
2, 144000, Note_on_c, 0, 61, 120
2, 144760, Note_off_c, 0, 73, 100
2, 144760, Note_off_c, 0, 69, 100
2, 144760, Note_off_c, 0, 64, 100
2, 144760, Note_off_c, 0, 61, 100
2, 144768, Note_on_c, 0, 68, 120
2, 144768, Note_on_c, 0, 64, 120
2, 144768, Note_on_c, 0, 62, 120
2, 144768, Note_on_c, 0, 59, 120
2, 145144, Note_off_c, 0, 68, 100
2, 145144, Note_off_c, 0, 64, 100
2, 145144, Note_off_c, 0, 62, 100
2, 145144, Note_off_c, 0, 59, 100
2, 145152, Note_on_c, 0, 69, 120
2, 145152, Note_on_c, 0, 64, 120
2, 145152, Note_on_c, 0, 61, 120
2, 145152, Note_on_c, 0, 57, 120
2, 145528, Note_off_c, 0, 69, 100
2, 145528, Note_off_c, 0, 64, 100
2, 145528, Note_off_c, 0, 61, 100
2, 145528, Note_off_c, 0, 57, 100
2, 146304, Note_on_c, 0, 81, 80
2, 146304, Note_on_c, 0, 69, 80
2, 146680, Note_off_c, 0, 81, 100
2, 146680, Note_off_c, 0, 69, 100
2, 146688, Note_on_c, 0, 79, 80
2, 146688, Note_on_c, 0, 67, 80
2, 147064, Note_off_c, 0, 79, 100
2, 147064, Note_off_c, 0, 67, 100
2, 147072, Note_on_c, 0, 76, 80
2, 147072, Note_on_c, 0, 64, 80
2, 147448, Note_off_c, 0, 76, 100
2, 147448, Note_off_c, 0, 64, 100
2, 147456, Note_on_c, 0, 81, 80
2, 147456, Note_on_c, 0, 69, 80
2, 147832, Note_off_c, 0, 81, 100
2, 147832, Note_off_c, 0, 69, 100
2, 147840, Note_on_c, 0, 79, 80
2, 147840, Note_on_c, 0, 67, 80
2, 148216, Note_off_c, 0, 79, 100
2, 148216, Note_off_c, 0, 67, 100
2, 148224, Note_on_c, 0, 78, 80
2, 148224, Note_on_c, 0, 66, 80
2, 148600, Note_off_c, 0, 78, 100
2, 148600, Note_off_c, 0, 66, 100
2, 148608, Note_on_c, 0, 76, 80
2, 148608, Note_on_c, 0, 64, 80
2, 148984, Note_off_c, 0, 76, 100
2, 148984, Note_off_c, 0, 64, 100
2, 148992, Note_on_c, 0, 74, 80
2, 148992, Note_on_c, 0, 62, 80
2, 149368, Note_off_c, 0, 74, 100
2, 149368, Note_off_c, 0, 62, 100
2, 149376, Note_on_c, 0, 73, 80
2, 149376, Note_on_c, 0, 61, 80
2, 149752, Note_off_c, 0, 73, 100
2, 149752, Note_off_c, 0, 61, 100
2, 149760, Note_on_c, 0, 74, 80
2, 149760, Note_on_c, 0, 62, 80
2, 150136, Note_off_c, 0, 74, 100
2, 150136, Note_off_c, 0, 62, 100
2, 150144, Note_on_c, 0, 71, 80
2, 150144, Note_on_c, 0, 59, 80
2, 150520, Note_off_c, 0, 71, 100
2, 150520, Note_off_c, 0, 59, 100
2, 150528, Note_on_c, 0, 76, 80
2, 150528, Note_on_c, 0, 64, 80
2, 150904, Note_off_c, 0, 76, 100
2, 150904, Note_off_c, 0, 64, 100
2, 150912, Note_on_c, 0, 74, 80
2, 150912, Note_on_c, 0, 62, 80
2, 151288, Note_off_c, 0, 74, 100
2, 151288, Note_off_c, 0, 62, 100
2, 151296, Note_on_c, 0, 73, 110
2, 151296, Note_on_c, 0, 61, 110
2, 151480, Note_off_c, 0, 73, 100
2, 151480, Note_off_c, 0, 61, 100
2, 151488, Note_on_c, 0, 69, 100
2, 151672, Note_off_c, 0, 69, 100
2, 151680, Note_on_c, 0, 68, 100
2, 151864, Note_off_c, 0, 68, 100
2, 151872, Note_on_c, 0, 69, 100
2, 152056, Note_off_c, 0, 69, 100
2, 152064, Note_on_c, 0, 71, 100
2, 152248, Note_off_c, 0, 71, 100
2, 152256, Note_on_c, 0, 69, 100
2, 152440, Note_off_c, 0, 69, 100
2, 152448, Note_on_c, 0, 68, 100
2, 152632, Note_off_c, 0, 68, 100
2, 152640, Note_on_c, 0, 69, 100
2, 152824, Note_off_c, 0, 69, 100
2, 152832, Note_on_c, 0, 59, 100
2, 153016, Note_off_c, 0, 59, 100
2, 153024, Note_on_c, 0, 71, 100
2, 153208, Note_off_c, 0, 71, 100
2, 153216, Note_on_c, 0, 70, 100
2, 153400, Note_off_c, 0, 70, 100
2, 153408, Note_on_c, 0, 71, 100
2, 153592, Note_off_c, 0, 71, 100
2, 153600, Note_on_c, 0, 61, 100
2, 153784, Note_off_c, 0, 61, 100
2, 153792, Note_on_c, 0, 73, 100
2, 153976, Note_off_c, 0, 73, 100
2, 153984, Note_on_c, 0, 72, 100
2, 154168, Note_off_c, 0, 72, 100
2, 154176, Note_on_c, 0, 73, 100
2, 154360, Note_off_c, 0, 73, 100
2, 154368, Note_on_c, 0, 62, 100
2, 154552, Note_off_c, 0, 62, 100
2, 154560, Note_on_c, 0, 74, 100
2, 154744, Note_off_c, 0, 74, 100
2, 154752, Note_on_c, 0, 73, 100
2, 154936, Note_off_c, 0, 73, 100
2, 154944, Note_on_c, 0, 74, 100
2, 155128, Note_off_c, 0, 74, 100
2, 155136, Note_on_c, 0, 64, 100
2, 155320, Note_off_c, 0, 64, 100
2, 155328, Note_on_c, 0, 76, 101
2, 155512, Note_off_c, 0, 76, 100
2, 155520, Note_on_c, 0, 75, 103
2, 155704, Note_off_c, 0, 75, 100
2, 155712, Note_on_c, 0, 76, 105
2, 155896, Note_off_c, 0, 76, 100
2, 155904, Note_on_c, 0, 66, 106
2, 156088, Note_off_c, 0, 66, 100
2, 156096, Note_on_c, 0, 78, 108
2, 156280, Note_off_c, 0, 78, 100
2, 156288, Note_on_c, 0, 77, 110
2, 156472, Note_off_c, 0, 77, 100
2, 156480, Note_on_c, 0, 78, 111
2, 156664, Note_off_c, 0, 78, 100
2, 156672, Note_on_c, 0, 68, 113
2, 156856, Note_off_c, 0, 68, 100
2, 156864, Note_on_c, 0, 80, 115
2, 157048, Note_off_c, 0, 80, 100
2, 157056, Note_on_c, 0, 79, 116
2, 157240, Note_off_c, 0, 79, 100
2, 157248, Note_on_c, 0, 80, 118
2, 157432, Note_off_c, 0, 80, 100
2, 157440, Note_on_c, 0, 69, 120
2, 157624, Note_off_c, 0, 69, 100
2, 157632, Note_on_c, 0, 81, 120
2, 157816, Note_off_c, 0, 81, 100
2, 157824, Note_on_c, 0, 80, 120
2, 158008, Note_off_c, 0, 80, 100
2, 158016, Note_on_c, 0, 81, 120
2, 158200, Note_off_c, 0, 81, 100
2, 158208, Note_on_c, 0, 83, 120
2, 158392, Note_off_c, 0, 83, 100
2, 158400, Note_on_c, 0, 81, 120
2, 158584, Note_off_c, 0, 81, 100
2, 158592, Note_on_c, 0, 80, 120
2, 158776, Note_off_c, 0, 80, 100
2, 158784, Note_on_c, 0, 81, 120
2, 158968, Note_off_c, 0, 81, 100
2, 158976, Note_on_c, 0, 71, 120
2, 159160, Note_off_c, 0, 71, 100
2, 159168, Note_on_c, 0, 83, 120
2, 159352, Note_off_c, 0, 83, 100
2, 159360, Note_on_c, 0, 82, 120
2, 159544, Note_off_c, 0, 82, 100
2, 159552, Note_on_c, 0, 83, 120
2, 159736, Note_off_c, 0, 83, 100
2, 159744, Note_on_c, 0, 73, 120
2, 159928, Note_off_c, 0, 73, 100
2, 159936, Note_on_c, 0, 85, 120
2, 160120, Note_off_c, 0, 85, 100
2, 160128, Note_on_c, 0, 84, 120
2, 160312, Note_off_c, 0, 84, 100
2, 160320, Note_on_c, 0, 85, 120
2, 160504, Note_off_c, 0, 85, 100
2, 160512, Note_on_c, 0, 74, 120
2, 160696, Note_off_c, 0, 74, 100
2, 160704, Note_on_c, 0, 86, 120
2, 160888, Note_off_c, 0, 86, 100
2, 160896, Note_on_c, 0, 85, 120
2, 161080, Note_off_c, 0, 85, 100
2, 161088, Note_on_c, 0, 86, 120
2, 161272, Note_off_c, 0, 86, 100
2, 161280, Note_on_c, 0, 76, 120
2, 161464, Note_off_c, 0, 76, 100
2, 161472, Note_on_c, 0, 88, 120
2, 161656, Note_off_c, 0, 88, 100
2, 161664, Note_on_c, 0, 87, 120
2, 161848, Note_off_c, 0, 87, 100
2, 161856, Note_on_c, 0, 88, 120
2, 162040, Note_off_c, 0, 88, 100
2, 162048, Note_on_c, 0, 78, 120
2, 162232, Note_off_c, 0, 78, 100
2, 162240, Note_on_c, 0, 90, 120
2, 162424, Note_off_c, 0, 90, 100
2, 162432, Note_on_c, 0, 89, 120
2, 162616, Note_off_c, 0, 89, 100
2, 162624, Note_on_c, 0, 90, 120
2, 162808, Note_off_c, 0, 90, 100
2, 162816, Note_on_c, 0, 80, 120
2, 163000, Note_off_c, 0, 80, 100
2, 163008, Note_on_c, 0, 92, 120
2, 163192, Note_off_c, 0, 92, 100
2, 163200, Note_on_c, 0, 91, 120
2, 163384, Note_off_c, 0, 91, 100
2, 163392, Note_on_c, 0, 92, 120
2, 163576, Note_off_c, 0, 92, 100
2, 163584, Note_on_c, 0, 81, 120
2, 163584, Note_on_c, 0, 93, 120
2, 163960, Note_off_c, 0, 81, 100
2, 163960, Note_off_c, 0, 93, 100
2, 164352, Note_on_c, 0, 76, 70
2, 165112, Note_off_c, 0, 76, 100
2, 165120, Note_on_c, 0, 78, 70
2, 165880, Note_off_c, 0, 78, 100
2, 165888, Note_on_c, 0, 71, 70
2, 166648, Note_off_c, 0, 71, 100
2, 166656, Note_on_c, 0, 76, 70
2, 167416, Note_off_c, 0, 76, 100
2, 167424, Note_on_c, 0, 70, 70
2, 167424, Note_on_c, 0, 66, 70
2, 168184, Note_off_c, 0, 70, 100
2, 168192, Note_on_c, 0, 74, 70
2, 168952, Note_off_c, 0, 66, 100
2, 168952, Note_off_c, 0, 74, 100
2, 168960, Note_on_c, 0, 68, 70
2, 168960, Note_on_c, 0, 62, 70
2, 169720, Note_off_c, 0, 68, 100
2, 169720, Note_off_c, 0, 62, 100
2, 169728, Note_on_c, 0, 69, 70
2, 169728, Note_on_c, 0, 61, 70
2, 170488, Note_off_c, 0, 69, 100
2, 170488, Note_off_c, 0, 61, 100
2, 170496, Note_on_c, 0, 65, 70
2, 171256, Note_off_c, 0, 65, 100
2, 171264, Note_on_c, 0, 66, 70
2, 172024, Note_off_c, 0, 66, 100
2, 172032, Note_on_c, 0, 59, 70
2, 172792, Note_off_c, 0, 59, 100
2, 172800, Note_on_c, 0, 64, 70
2, 173560, Note_off_c, 0, 64, 100
2, 173568, Note_on_c, 0, 58, 70
2, 173568, Note_on_c, 0, 54, 70
2, 174328, Note_off_c, 0, 58, 100
2, 174336, Note_on_c, 0, 62, 70
2, 175096, Note_off_c, 0, 54, 100
2, 175096, Note_off_c, 0, 62, 100
2, 175104, Note_on_c, 0, 56, 70
2, 175104, Note_on_c, 0, 50, 70
2, 175864, Note_off_c, 0, 56, 100
2, 175864, Note_off_c, 0, 50, 100
2, 175872, Note_on_c, 0, 57, 70
2, 175872, Note_on_c, 0, 49, 70
2, 176632, Note_off_c, 0, 57, 100
2, 176632, Note_off_c, 0, 49, 100
2, 178560, Note_on_c, 0, 88, 70
2, 178560, Note_on_c, 0, 76, 70
2, 178936, Note_off_c, 0, 88, 100
2, 178944, Note_on_c, 0, 85, 70
2, 179320, Note_off_c, 0, 76, 100
2, 179320, Note_off_c, 0, 85, 100
2, 179328, Note_on_c, 0, 83, 70
2, 179328, Note_on_c, 0, 74, 70
2, 179704, Note_off_c, 0, 83, 100
2, 179704, Note_off_c, 0, 74, 100
2, 179712, Note_on_c, 0, 81, 70
2, 179712, Note_on_c, 0, 73, 70
2, 180088, Note_off_c, 0, 81, 100
2, 180088, Note_off_c, 0, 73, 100
2, 181632, Note_on_c, 0, 76, 70
2, 181632, Note_on_c, 0, 74, 70
2, 182008, Note_off_c, 0, 76, 100
2, 182008, Note_off_c, 0, 74, 100
2, 182016, Note_on_c, 0, 81, 70
2, 182016, Note_on_c, 0, 73, 70
2, 182392, Note_off_c, 0, 81, 100
2, 182392, Note_off_c, 0, 73, 100
2, 182400, Note_on_c, 0, 83, 70
2, 182400, Note_on_c, 0, 74, 70
2, 182776, Note_off_c, 0, 83, 100
2, 182776, Note_off_c, 0, 74, 100
2, 182784, Note_on_c, 0, 85, 70
2, 182784, Note_on_c, 0, 76, 70
2, 183160, Note_off_c, 0, 85, 100
2, 183160, Note_off_c, 0, 76, 100
2, 184704, Note_on_c, 0, 76, 70
2, 184704, Note_on_c, 0, 64, 70
2, 185080, Note_off_c, 0, 76, 100
2, 185088, Note_on_c, 0, 73, 70
2, 185464, Note_off_c, 0, 64, 100
2, 185464, Note_off_c, 0, 73, 100
2, 185472, Note_on_c, 0, 71, 70
2, 185472, Note_on_c, 0, 62, 70
2, 185848, Note_off_c, 0, 71, 100
2, 185848, Note_off_c, 0, 62, 100
2, 185856, Note_on_c, 0, 69, 70
2, 185856, Note_on_c, 0, 61, 70
2, 186232, Note_off_c, 0, 69, 100
2, 186232, Note_off_c, 0, 61, 100
2, 187776, Note_on_c, 0, 57, 70
2, 188152, Note_off_c, 0, 57, 100
2, 188160, Note_on_c, 0, 55, 70
2, 188536, Note_off_c, 0, 55, 100
2, 188544, Note_on_c, 0, 54, 70
2, 188920, Note_off_c, 0, 54, 100
2, 188928, Note_on_c, 0, 52, 70
2, 189304, Note_off_c, 0, 52, 100
2, 190848, Note_on_c, 0, 81, 70
2, 191224, Note_off_c, 0, 81, 100
2, 191232, Note_on_c, 0, 79, 70
2, 191608, Note_off_c, 0, 79, 100
2, 191616, Note_on_c, 0, 78, 70
2, 191992, Note_off_c, 0, 78, 100
2, 192000, Note_on_c, 0, 76, 70
2, 192376, Note_off_c, 0, 76, 100
2, 193920, Note_on_c, 0, 62, 80
2, 193920, Note_on_c, 0, 50, 80
2, 194296, Note_off_c, 0, 62, 100
2, 194296, Note_off_c, 0, 50, 100
2, 194304, Note_on_c, 0, 61, 80
2, 194680, Note_off_c, 0, 61, 100
2, 194688, Note_on_c, 0, 59, 80
2, 195064, Note_off_c, 0, 59, 100
2, 195072, Note_on_c, 0, 57, 80
2, 195448, Note_off_c, 0, 57, 100
2, 195456, Note_on_c, 0, 61, 80
2, 195832, Note_off_c, 0, 61, 100
2, 195840, Note_on_c, 0, 62, 80
2, 196216, Note_off_c, 0, 62, 100
2, 196224, Note_on_c, 0, 66, 80
2, 196600, Note_off_c, 0, 66, 100
2, 196608, Note_on_c, 0, 69, 80
2, 196608, Note_on_c, 0, 57, 80
2, 196984, Note_off_c, 0, 69, 100
2, 196984, Note_off_c, 0, 57, 100
2, 196992, Note_on_c, 0, 73, 80
2, 196992, Note_on_c, 0, 61, 80
2, 197368, Note_off_c, 0, 73, 100
2, 197368, Note_off_c, 0, 61, 100
2, 197376, Note_on_c, 0, 74, 80
2, 197376, Note_on_c, 0, 62, 80
2, 197752, Note_off_c, 0, 74, 100
2, 197752, Note_off_c, 0, 62, 100
2, 197760, Note_on_c, 0, 76, 80
2, 197760, Note_on_c, 0, 64, 80
2, 198136, Note_off_c, 0, 76, 100
2, 198136, Note_off_c, 0, 64, 100
2, 198144, Note_on_c, 0, 78, 80
2, 198144, Note_on_c, 0, 66, 80
2, 198520, Note_off_c, 0, 78, 100
2, 198520, Note_off_c, 0, 66, 100
2, 198528, Note_on_c, 0, 79, 80
2, 198528, Note_on_c, 0, 67, 80
2, 198904, Note_off_c, 0, 79, 100
2, 198904, Note_off_c, 0, 67, 100
2, 198912, Note_on_c, 0, 81, 110
2, 198912, Note_on_c, 0, 69, 110
2, 201592, Note_off_c, 0, 69, 100
2, 201592, Note_off_c, 0, 81, 100
2, 201600, Note_on_c, 0, 74, 80
2, 201976, Note_off_c, 0, 74, 100
2, 201984, Note_on_c, 0, 73, 80
2, 202360, Note_off_c, 0, 73, 100
2, 202368, Note_on_c, 0, 71, 80
2, 202744, Note_off_c, 0, 71, 100
2, 202752, Note_on_c, 0, 69, 80
2, 203128, Note_off_c, 0, 69, 100
2, 203136, Note_on_c, 0, 71, 80
2, 203136, Note_on_c, 0, 81, 94
2, 203512, Note_off_c, 0, 71, 100
2, 203512, Note_off_c, 0, 81, 100
2, 203520, Note_on_c, 0, 81, 91
2, 203520, Note_on_c, 0, 69, 80
2, 203896, Note_off_c, 0, 69, 100
2, 203904, Note_on_c, 0, 67, 80
2, 204280, Note_off_c, 0, 67, 100
2, 204288, Note_on_c, 0, 66, 80
2, 204664, Note_off_c, 0, 81, 100
2, 204664, Note_off_c, 0, 66, 100
2, 204672, Note_on_c, 0, 67, 80
2, 205048, Note_off_c, 0, 67, 100
2, 205056, Note_on_c, 0, 66, 80
2, 205432, Note_off_c, 0, 66, 100
2, 205440, Note_on_c, 0, 64, 80
2, 205816, Note_off_c, 0, 64, 100
2, 205824, Note_on_c, 0, 62, 80
2, 206200, Note_off_c, 0, 62, 100
2, 206208, Note_on_c, 0, 64, 80
2, 206208, Note_on_c, 0, 74, 80
2, 206584, Note_off_c, 0, 64, 100
2, 206584, Note_off_c, 0, 74, 100
2, 206592, Note_on_c, 0, 74, 80
2, 206592, Note_on_c, 0, 62, 80
2, 206968, Note_off_c, 0, 74, 100
2, 206968, Note_off_c, 0, 62, 100
2, 206976, Note_on_c, 0, 73, 80
2, 206976, Note_on_c, 0, 61, 80
2, 207352, Note_off_c, 0, 73, 100
2, 207352, Note_off_c, 0, 61, 100
2, 207360, Note_on_c, 0, 74, 80
2, 207360, Note_on_c, 0, 62, 80
2, 207736, Note_off_c, 0, 74, 100
2, 207736, Note_off_c, 0, 62, 100
2, 207744, Note_on_c, 0, 75, 80
2, 207744, Note_on_c, 0, 63, 80
2, 208504, Note_off_c, 0, 63, 100
2, 208504, Note_off_c, 0, 75, 100
2, 208512, Note_on_c, 0, 76, 80
2, 208512, Note_on_c, 0, 64, 80
2, 208888, Note_off_c, 0, 76, 100
2, 208888, Note_off_c, 0, 64, 100
2, 208896, Note_on_c, 0, 73, 80
2, 208896, Note_on_c, 0, 67, 80
2, 209272, Note_off_c, 0, 73, 100
2, 209272, Note_off_c, 0, 67, 100
2, 209280, Note_on_c, 0, 69, 80
2, 209656, Note_off_c, 0, 69, 100
2, 209664, Note_on_c, 0, 74, 80
2, 209664, Note_on_c, 0, 66, 80
2, 210040, Note_off_c, 0, 74, 100
2, 210040, Note_off_c, 0, 66, 100
2, 210816, Note_on_c, 0, 78, 110
2, 211000, Note_off_c, 0, 78, 100
2, 211008, Note_on_c, 0, 86, 110
2, 211192, Note_off_c, 0, 86, 100
2, 211200, Note_on_c, 0, 76, 110
2, 211384, Note_off_c, 0, 76, 100
2, 211392, Note_on_c, 0, 85, 110
2, 211576, Note_off_c, 0, 85, 100
2, 211584, Note_on_c, 0, 74, 110
2, 211768, Note_off_c, 0, 74, 100
2, 211776, Note_on_c, 0, 83, 110
2, 211960, Note_off_c, 0, 83, 100
2, 211968, Note_on_c, 0, 73, 110
2, 212152, Note_off_c, 0, 73, 100
2, 212160, Note_on_c, 0, 81, 110
2, 212344, Note_off_c, 0, 81, 100
2, 212352, Note_on_c, 0, 74, 110
2, 212536, Note_off_c, 0, 74, 100
2, 212544, Note_on_c, 0, 83, 110
2, 212728, Note_off_c, 0, 83, 100
2, 212736, Note_on_c, 0, 73, 110
2, 212920, Note_off_c, 0, 73, 100
2, 212928, Note_on_c, 0, 81, 110
2, 213112, Note_off_c, 0, 81, 100
2, 213120, Note_on_c, 0, 71, 110
2, 213304, Note_off_c, 0, 71, 100
2, 213312, Note_on_c, 0, 79, 110
2, 213496, Note_off_c, 0, 79, 100
2, 213504, Note_on_c, 0, 69, 110
2, 213688, Note_off_c, 0, 69, 100
2, 213696, Note_on_c, 0, 78, 110
2, 213880, Note_off_c, 0, 78, 100
2, 213888, Note_on_c, 0, 71, 110
2, 214072, Note_off_c, 0, 71, 100
2, 214080, Note_on_c, 0, 79, 110
2, 214264, Note_off_c, 0, 79, 100
2, 214272, Note_on_c, 0, 69, 110
2, 214456, Note_off_c, 0, 69, 100
2, 214464, Note_on_c, 0, 78, 110
2, 214648, Note_off_c, 0, 78, 100
2, 214656, Note_on_c, 0, 67, 110
2, 214840, Note_off_c, 0, 67, 100
2, 214848, Note_on_c, 0, 76, 110
2, 215032, Note_off_c, 0, 76, 100
2, 215040, Note_on_c, 0, 66, 110
2, 215224, Note_off_c, 0, 66, 100
2, 215232, Note_on_c, 0, 74, 110
2, 215416, Note_off_c, 0, 74, 100
2, 215424, Note_on_c, 0, 67, 110
2, 215608, Note_off_c, 0, 67, 100
2, 215616, Note_on_c, 0, 76, 110
2, 215800, Note_off_c, 0, 76, 100
2, 215808, Note_on_c, 0, 66, 110
2, 215992, Note_off_c, 0, 66, 100
2, 216000, Note_on_c, 0, 74, 110
2, 216184, Note_off_c, 0, 74, 100
2, 216192, Note_on_c, 0, 66, 110
2, 216376, Note_off_c, 0, 66, 100
2, 216384, Note_on_c, 0, 75, 110
2, 216568, Note_off_c, 0, 75, 100
2, 216576, Note_on_c, 0, 67, 110
2, 216760, Note_off_c, 0, 67, 100
2, 216768, Note_on_c, 0, 76, 110
2, 216952, Note_off_c, 0, 76, 100
2, 216960, Note_on_c, 0, 69, 110
2, 217144, Note_off_c, 0, 69, 100
2, 217152, Note_on_c, 0, 78, 110
2, 217336, Note_off_c, 0, 78, 100
2, 217344, Note_on_c, 0, 71, 110
2, 217528, Note_off_c, 0, 71, 100
2, 217536, Note_on_c, 0, 79, 110
2, 217720, Note_off_c, 0, 79, 100
2, 217728, Note_on_c, 0, 78, 110
2, 217912, Note_off_c, 0, 78, 100
2, 217920, Note_on_c, 0, 81, 110
2, 218104, Note_off_c, 0, 81, 100
2, 218112, Note_on_c, 0, 79, 110
2, 218296, Note_off_c, 0, 79, 100
2, 218304, Note_on_c, 0, 83, 110
2, 218488, Note_off_c, 0, 83, 100
2, 218496, Note_on_c, 0, 73, 110
2, 218496, Note_on_c, 0, 67, 110
2, 218496, Note_on_c, 0, 64, 110
2, 218872, Note_off_c, 0, 73, 100
2, 218872, Note_off_c, 0, 67, 100
2, 218872, Note_off_c, 0, 64, 100
2, 218880, Note_on_c, 0, 74, 110
2, 218880, Note_on_c, 0, 66, 110
2, 218880, Note_on_c, 0, 62, 110
2, 219256, Note_off_c, 0, 74, 100
2, 219256, Note_off_c, 0, 66, 100
2, 219256, Note_off_c, 0, 62, 100
2, 220224, Note_on_c, 0, 62, 70
2, 220224, Note_on_c, 0, 50, 70
2, 220408, Note_off_c, 0, 62, 100
2, 220408, Note_off_c, 0, 50, 100
2, 220608, Note_on_c, 0, 61, 72
2, 220608, Note_on_c, 0, 49, 72
2, 220792, Note_off_c, 0, 61, 100
2, 220792, Note_off_c, 0, 49, 100
2, 220992, Note_on_c, 0, 59, 74
2, 220992, Note_on_c, 0, 47, 74
2, 221176, Note_off_c, 0, 59, 100
2, 221176, Note_off_c, 0, 47, 100
2, 221376, Note_on_c, 0, 57, 76
2, 221376, Note_on_c, 0, 45, 76
2, 221560, Note_off_c, 0, 57, 100
2, 221560, Note_off_c, 0, 45, 100
2, 221760, Note_on_c, 0, 61, 78
2, 221760, Note_on_c, 0, 49, 78
2, 221944, Note_off_c, 0, 61, 100
2, 221944, Note_off_c, 0, 49, 100
2, 222144, Note_on_c, 0, 50, 79
2, 222144, Note_on_c, 0, 62, 79
2, 222328, Note_off_c, 0, 50, 100
2, 222328, Note_off_c, 0, 62, 100
2, 222528, Note_on_c, 0, 66, 81
2, 222528, Note_on_c, 0, 54, 81
2, 222712, Note_off_c, 0, 66, 100
2, 222712, Note_off_c, 0, 54, 100
2, 222912, Note_on_c, 0, 69, 83
2, 222912, Note_on_c, 0, 57, 83
2, 223096, Note_off_c, 0, 69, 100
2, 223096, Note_off_c, 0, 57, 100
2, 223296, Note_on_c, 0, 73, 85
2, 223296, Note_on_c, 0, 61, 85
2, 223480, Note_off_c, 0, 73, 100
2, 223480, Note_off_c, 0, 61, 100
2, 223680, Note_on_c, 0, 74, 87
2, 223680, Note_on_c, 0, 62, 87
2, 223864, Note_off_c, 0, 74, 100
2, 223864, Note_off_c, 0, 62, 100
2, 224064, Note_on_c, 0, 76, 89
2, 224064, Note_on_c, 0, 64, 89
2, 224248, Note_off_c, 0, 76, 100
2, 224248, Note_off_c, 0, 64, 100
2, 224448, Note_on_c, 0, 78, 90
2, 224448, Note_on_c, 0, 66, 90
2, 224632, Note_off_c, 0, 78, 100
2, 224632, Note_off_c, 0, 66, 100
2, 224832, Note_on_c, 0, 79, 92
2, 224832, Note_on_c, 0, 67, 92
2, 225016, Note_off_c, 0, 79, 100
2, 225016, Note_off_c, 0, 67, 100
2, 225216, Note_on_c, 0, 81, 94
2, 225216, Note_on_c, 0, 69, 94
2, 225400, Note_off_c, 0, 81, 100
2, 225400, Note_off_c, 0, 69, 100
2, 225600, Note_on_c, 0, 82, 96
2, 225600, Note_on_c, 0, 70, 96
2, 225784, Note_off_c, 0, 82, 100
2, 225784, Note_off_c, 0, 70, 100
2, 225984, Note_on_c, 0, 83, 98
2, 225984, Note_on_c, 0, 71, 98
2, 226168, Note_off_c, 0, 83, 100
2, 226168, Note_off_c, 0, 71, 100
2, 226368, Note_on_c, 0, 85, 99
2, 226368, Note_on_c, 0, 73, 99
2, 226552, Note_off_c, 0, 85, 100
2, 226552, Note_off_c, 0, 73, 100
2, 226560, Note_on_c, 0, 74, 120
2, 226560, Note_on_c, 0, 86, 120
2, 226936, Note_off_c, 0, 74, 100
2, 226936, Note_off_c, 0, 86, 100
2, 227328, Note_on_c, 0, 76, 120
2, 227328, Note_on_c, 0, 88, 120
2, 227704, Note_off_c, 0, 76, 100
2, 227704, Note_off_c, 0, 88, 100
2, 228096, Note_on_c, 0, 78, 120
2, 228096, Note_on_c, 0, 90, 120
2, 230776, Note_off_c, 0, 78, 100
2, 230776, Note_off_c, 0, 90, 100
2, 230784, Note_on_c, 0, 66, 100
2, 231160, Note_off_c, 0, 66, 100
2, 231168, Note_on_c, 0, 74, 100
2, 231928, Note_off_c, 0, 74, 100
2, 231936, Note_on_c, 0, 78, 100
2, 232696, Note_off_c, 0, 78, 100
2, 232704, Note_on_c, 0, 74, 100
2, 233464, Note_off_c, 0, 74, 100
2, 233472, Note_on_c, 0, 76, 100
2, 233656, Note_off_c, 0, 76, 100
2, 233664, Note_on_c, 0, 74, 100
2, 233848, Note_off_c, 0, 74, 100
2, 233856, Note_on_c, 0, 73, 100
2, 234040, Note_off_c, 0, 73, 100
2, 234048, Note_on_c, 0, 71, 100
2, 234232, Note_off_c, 0, 71, 100
2, 234240, Note_on_c, 0, 70, 100
2, 234616, Note_off_c, 0, 70, 100
2, 234624, Note_on_c, 0, 70, 100
2, 235000, Note_off_c, 0, 70, 100
2, 235008, Note_on_c, 0, 73, 100
2, 235192, Note_off_c, 0, 73, 100
2, 235200, Note_on_c, 0, 71, 100
2, 235384, Note_off_c, 0, 71, 100
2, 235392, Note_on_c, 0, 70, 100
2, 235576, Note_off_c, 0, 70, 100
2, 235584, Note_on_c, 0, 71, 100
2, 235768, Note_off_c, 0, 71, 100
2, 235776, Note_on_c, 0, 73, 100
2, 236536, Note_off_c, 0, 73, 100
2, 236544, Note_on_c, 0, 66, 100
2, 236920, Note_off_c, 0, 66, 100
2, 236928, Note_on_c, 0, 66, 100
2, 237304, Note_off_c, 0, 66, 100
2, 237312, Note_on_c, 0, 74, 100
2, 238072, Note_off_c, 0, 74, 100
2, 238080, Note_on_c, 0, 78, 100
2, 238840, Note_off_c, 0, 78, 100
2, 238848, Note_on_c, 0, 74, 100
2, 239608, Note_off_c, 0, 74, 100
2, 239616, Note_on_c, 0, 76, 100
2, 239800, Note_off_c, 0, 76, 100
2, 239808, Note_on_c, 0, 74, 100
2, 239992, Note_off_c, 0, 74, 100
2, 240000, Note_on_c, 0, 73, 100
2, 240184, Note_off_c, 0, 73, 100
2, 240192, Note_on_c, 0, 71, 100
2, 240376, Note_off_c, 0, 71, 100
2, 240384, Note_on_c, 0, 69, 100
2, 240760, Note_off_c, 0, 69, 100
2, 240768, Note_on_c, 0, 69, 100
2, 241144, Note_off_c, 0, 69, 100
2, 241152, Note_on_c, 0, 69, 100
2, 241336, Note_off_c, 0, 69, 100
2, 241344, Note_on_c, 0, 68, 100
2, 241528, Note_off_c, 0, 68, 100
2, 241536, Note_on_c, 0, 66, 100
2, 241720, Note_off_c, 0, 66, 100
2, 241728, Note_on_c, 0, 68, 100
2, 241912, Note_off_c, 0, 68, 100
2, 241920, Note_on_c, 0, 66, 100
2, 242296, Note_off_c, 0, 66, 100
2, 243072, Note_on_c, 0, 61, 100
2, 243448, Note_off_c, 0, 61, 100
2, 243456, Note_on_c, 0, 68, 100
2, 243640, Note_off_c, 0, 68, 100
2, 243648, Note_on_c, 0, 61, 100
2, 243832, Note_off_c, 0, 61, 100
2, 243840, Note_on_c, 0, 65, 100
2, 244024, Note_off_c, 0, 65, 100
2, 244032, Note_on_c, 0, 68, 100
2, 244216, Note_off_c, 0, 68, 100
2, 244224, Note_on_c, 0, 69, 100
2, 244408, Note_off_c, 0, 69, 100
2, 244416, Note_on_c, 0, 61, 100
2, 244600, Note_off_c, 0, 61, 100
2, 244608, Note_on_c, 0, 66, 100
2, 244792, Note_off_c, 0, 66, 100
2, 244800, Note_on_c, 0, 69, 100
2, 244984, Note_off_c, 0, 69, 100
2, 244992, Note_on_c, 0, 71, 100
2, 245176, Note_off_c, 0, 71, 100
2, 245184, Note_on_c, 0, 61, 100
2, 245368, Note_off_c, 0, 61, 100
2, 245376, Note_on_c, 0, 65, 100
2, 245560, Note_off_c, 0, 65, 100
2, 245568, Note_on_c, 0, 68, 100
2, 245752, Note_off_c, 0, 68, 100
2, 245760, Note_on_c, 0, 73, 100
2, 245944, Note_off_c, 0, 73, 100
2, 245952, Note_on_c, 0, 71, 100
2, 246136, Note_off_c, 0, 71, 100
2, 246144, Note_on_c, 0, 69, 100
2, 246328, Note_off_c, 0, 69, 100
2, 246336, Note_on_c, 0, 68, 100
2, 246520, Note_off_c, 0, 68, 100
2, 246528, Note_on_c, 0, 69, 100
2, 246712, Note_off_c, 0, 69, 100
2, 246720, Note_on_c, 0, 66, 100
2, 246904, Note_off_c, 0, 66, 100
2, 246912, Note_on_c, 0, 65, 100
2, 247096, Note_off_c, 0, 65, 100
2, 247104, Note_on_c, 0, 66, 100
2, 247288, Note_off_c, 0, 66, 100
2, 247296, Note_on_c, 0, 71, 100
2, 247480, Note_off_c, 0, 71, 100
2, 247488, Note_on_c, 0, 66, 100
2, 247672, Note_off_c, 0, 66, 100
2, 247680, Note_on_c, 0, 65, 100
2, 247864, Note_off_c, 0, 65, 100
2, 247872, Note_on_c, 0, 66, 100
2, 248056, Note_off_c, 0, 66, 100
2, 248064, Note_on_c, 0, 73, 100
2, 248248, Note_off_c, 0, 73, 100
2, 248256, Note_on_c, 0, 69, 100
2, 248440, Note_off_c, 0, 69, 100
2, 248448, Note_on_c, 0, 68, 100
2, 248632, Note_off_c, 0, 68, 100
2, 248640, Note_on_c, 0, 69, 100
2, 248824, Note_off_c, 0, 69, 100
2, 248832, Note_on_c, 0, 71, 100
2, 249016, Note_off_c, 0, 71, 100
2, 249024, Note_on_c, 0, 69, 100
2, 249208, Note_off_c, 0, 69, 100
2, 249216, Note_on_c, 0, 68, 100
2, 249400, Note_off_c, 0, 68, 100
2, 249408, Note_on_c, 0, 69, 100
2, 249592, Note_off_c, 0, 69, 100
2, 249600, Note_on_c, 0, 71, 100
2, 249784, Note_off_c, 0, 71, 100
2, 249792, Note_on_c, 0, 64, 100
2, 249976, Note_off_c, 0, 64, 100
2, 249984, Note_on_c, 0, 68, 100
2, 250168, Note_off_c, 0, 68, 100
2, 250176, Note_on_c, 0, 71, 100
2, 250360, Note_off_c, 0, 71, 100
2, 250368, Note_on_c, 0, 73, 100
2, 250552, Note_off_c, 0, 73, 100
2, 250560, Note_on_c, 0, 64, 100
2, 250744, Note_off_c, 0, 64, 100
2, 250752, Note_on_c, 0, 68, 100
2, 250936, Note_off_c, 0, 68, 100
2, 250944, Note_on_c, 0, 73, 100
2, 251128, Note_off_c, 0, 73, 100
2, 251136, Note_on_c, 0, 74, 100
2, 251320, Note_off_c, 0, 74, 100
2, 251328, Note_on_c, 0, 64, 100
2, 251512, Note_off_c, 0, 64, 100
2, 251520, Note_on_c, 0, 68, 100
2, 251704, Note_off_c, 0, 68, 100
2, 251712, Note_on_c, 0, 71, 100
2, 251896, Note_off_c, 0, 71, 100
2, 251904, Note_on_c, 0, 76, 100
2, 252088, Note_off_c, 0, 76, 100
2, 252096, Note_on_c, 0, 74, 100
2, 252280, Note_off_c, 0, 74, 100
2, 252288, Note_on_c, 0, 73, 100
2, 252472, Note_off_c, 0, 73, 100
2, 252480, Note_on_c, 0, 71, 100
2, 252664, Note_off_c, 0, 71, 100
2, 252672, Note_on_c, 0, 73, 100
2, 252856, Note_off_c, 0, 73, 100
2, 252864, Note_on_c, 0, 69, 100
2, 253048, Note_off_c, 0, 69, 100
2, 253056, Note_on_c, 0, 68, 100
2, 253240, Note_off_c, 0, 68, 100
2, 253248, Note_on_c, 0, 69, 100
2, 253432, Note_off_c, 0, 69, 100
2, 253440, Note_on_c, 0, 74, 100
2, 253624, Note_off_c, 0, 74, 100
2, 253632, Note_on_c, 0, 69, 100
2, 253816, Note_off_c, 0, 69, 100
2, 253824, Note_on_c, 0, 68, 100
2, 254008, Note_off_c, 0, 68, 100
2, 254016, Note_on_c, 0, 69, 100
2, 254200, Note_off_c, 0, 69, 100
2, 254208, Note_on_c, 0, 76, 100
2, 254392, Note_off_c, 0, 76, 100
2, 254400, Note_on_c, 0, 69, 100
2, 254584, Note_off_c, 0, 69, 100
2, 254592, Note_on_c, 0, 68, 100
2, 254776, Note_off_c, 0, 68, 100
2, 254784, Note_on_c, 0, 69, 100
2, 254968, Note_off_c, 0, 69, 100
2, 254976, Note_on_c, 0, 71, 100
2, 255160, Note_off_c, 0, 71, 100
2, 255168, Note_on_c, 0, 73, 100
2, 255352, Note_off_c, 0, 73, 100
2, 255360, Note_on_c, 0, 74, 100
2, 255544, Note_off_c, 0, 74, 100
2, 255552, Note_on_c, 0, 76, 100
2, 255736, Note_off_c, 0, 76, 100
2, 255744, Note_on_c, 0, 78, 100
2, 257464, Note_off_c, 0, 78, 100
2, 257472, Note_on_c, 0, 78, 100
2, 257656, Note_off_c, 0, 78, 100
2, 257664, Note_on_c, 0, 77, 100
2, 257848, Note_off_c, 0, 77, 100
2, 257856, Note_on_c, 0, 78, 100
2, 258040, Note_off_c, 0, 78, 100
2, 258048, Note_on_c, 0, 80, 100
2, 258232, Note_off_c, 0, 80, 100
2, 258240, Note_on_c, 0, 81, 100
2, 258424, Note_off_c, 0, 81, 100
2, 258432, Note_on_c, 0, 83, 100
2, 258616, Note_off_c, 0, 83, 100
2, 258624, Note_on_c, 0, 85, 100
2, 258808, Note_off_c, 0, 85, 100
2, 258816, Note_on_c, 0, 86, 100
2, 259968, Note_on_c, 0, 76, 103
2, 260152, Note_off_c, 0, 76, 100
2, 260160, Note_on_c, 0, 78, 104
2, 260344, Note_off_c, 0, 78, 100
2, 260352, Note_on_c, 0, 80, 105
2, 261880, Note_off_c, 0, 86, 100
2, 261880, Note_off_c, 0, 80, 100
2, 261888, Note_on_c, 0, 85, 110
2, 261888, Note_on_c, 0, 81, 110
2, 261888, Note_on_c, 0, 73, 110
2, 263416, Note_off_c, 0, 85, 100
2, 263416, Note_off_c, 0, 81, 100
2, 263416, Note_off_c, 0, 73, 100
2, 263424, Note_on_c, 0, 83, 115
2, 263424, Note_on_c, 0, 80, 115
2, 263424, Note_on_c, 0, 77, 115
2, 263424, Note_on_c, 0, 73, 115
2, 263424, Note_on_c, 0, 71, 115
2, 264952, Note_off_c, 0, 83, 100
2, 264952, Note_off_c, 0, 80, 100
2, 264952, Note_off_c, 0, 77, 100
2, 264952, Note_off_c, 0, 73, 100
2, 264952, Note_off_c, 0, 71, 100
2, 264960, Note_on_c, 0, 81, 120
2, 264960, Note_on_c, 0, 73, 120
2, 264960, Note_on_c, 0, 69, 120
2, 265336, Note_off_c, 0, 81, 100
2, 265336, Note_off_c, 0, 73, 100
2, 265336, Note_off_c, 0, 69, 100
2, 265344, Note_on_c, 0, 80, 118
2, 265528, Note_off_c, 0, 80, 100
2, 265536, Note_on_c, 0, 78, 117
2, 265720, Note_off_c, 0, 78, 100
2, 265728, Note_on_c, 0, 76, 115
2, 265912, Note_off_c, 0, 76, 100
2, 265920, Note_on_c, 0, 75, 114
2, 266104, Note_off_c, 0, 75, 100
2, 266112, Note_on_c, 0, 73, 113
2, 266296, Note_off_c, 0, 73, 100
2, 266304, Note_on_c, 0, 71, 112
2, 266488, Note_off_c, 0, 71, 100
2, 266496, Note_on_c, 0, 69, 110
2, 266680, Note_off_c, 0, 69, 100
2, 266688, Note_on_c, 0, 68, 109
2, 266872, Note_off_c, 0, 68, 100
2, 266880, Note_on_c, 0, 66, 108
2, 267064, Note_off_c, 0, 66, 100
2, 267072, Note_on_c, 0, 64, 107
2, 267256, Note_off_c, 0, 64, 100
2, 267264, Note_on_c, 0, 63, 105
2, 267448, Note_off_c, 0, 63, 100
2, 267456, Note_on_c, 0, 61, 104
2, 267640, Note_off_c, 0, 61, 100
2, 267648, Note_on_c, 0, 59, 103
2, 267832, Note_off_c, 0, 59, 100
2, 267840, Note_on_c, 0, 57, 102
2, 268024, Note_off_c, 0, 57, 100
2, 268032, Note_on_c, 0, 56, 100
2, 268216, Note_off_c, 0, 56, 100
2, 268224, Note_on_c, 0, 54, 100
2, 268408, Note_off_c, 0, 54, 100
2, 268416, Note_on_c, 0, 52, 101
2, 268600, Note_off_c, 0, 52, 100
2, 268608, Note_on_c, 0, 54, 101
2, 268792, Note_off_c, 0, 54, 100
2, 268800, Note_on_c, 0, 56, 102
2, 268984, Note_off_c, 0, 56, 100
2, 268992, Note_on_c, 0, 57, 103
2, 269176, Note_off_c, 0, 57, 100
2, 269184, Note_on_c, 0, 59, 103
2, 269368, Note_off_c, 0, 59, 100
2, 269376, Note_on_c, 0, 61, 104
2, 269560, Note_off_c, 0, 61, 100
2, 269568, Note_on_c, 0, 62, 100
2, 269752, Note_off_c, 0, 62, 100
2, 269760, Note_on_c, 0, 61, 100
2, 269944, Note_off_c, 0, 61, 100
2, 269952, Note_on_c, 0, 59, 100
2, 270136, Note_off_c, 0, 59, 100
2, 270144, Note_on_c, 0, 61, 100
2, 270328, Note_off_c, 0, 61, 100
2, 270336, Note_on_c, 0, 62, 100
2, 270520, Note_off_c, 0, 62, 100
2, 270528, Note_on_c, 0, 64, 100
2, 270712, Note_off_c, 0, 64, 100
2, 270720, Note_on_c, 0, 66, 100
2, 270904, Note_off_c, 0, 66, 100
2, 270912, Note_on_c, 0, 68, 100
2, 271096, Note_off_c, 0, 68, 100
2, 271104, Note_on_c, 0, 69, 100
2, 271288, Note_off_c, 0, 69, 100
2, 271296, Note_on_c, 0, 70, 100
2, 271480, Note_off_c, 0, 70, 100
2, 271488, Note_on_c, 0, 71, 101
2, 271672, Note_off_c, 0, 71, 100
2, 271680, Note_on_c, 0, 72, 101
2, 271864, Note_off_c, 0, 72, 100
2, 271872, Note_on_c, 0, 73, 102
2, 272056, Note_off_c, 0, 73, 100
2, 272064, Note_on_c, 0, 74, 103
2, 272248, Note_off_c, 0, 74, 100
2, 272256, Note_on_c, 0, 75, 103
2, 272440, Note_off_c, 0, 75, 100
2, 272448, Note_on_c, 0, 76, 104
2, 272632, Note_off_c, 0, 76, 100
2, 272640, Note_on_c, 0, 77, 105
2, 272824, Note_off_c, 0, 77, 100
2, 272832, Note_on_c, 0, 78, 105
2, 273016, Note_off_c, 0, 78, 100
2, 273024, Note_on_c, 0, 79, 106
2, 273208, Note_off_c, 0, 79, 100
2, 273216, Note_on_c, 0, 80, 106
2, 273400, Note_off_c, 0, 80, 100
2, 273408, Note_on_c, 0, 81, 107
2, 273592, Note_off_c, 0, 81, 100
2, 273600, Note_on_c, 0, 82, 108
2, 273784, Note_off_c, 0, 82, 100
2, 273792, Note_on_c, 0, 83, 108
2, 273976, Note_off_c, 0, 83, 100
2, 273984, Note_on_c, 0, 84, 109
2, 274168, Note_off_c, 0, 84, 100
2, 274176, Note_on_c, 0, 85, 110
2, 274424, Note_off_c, 0, 85, 100
2, 274432, Note_on_c, 0, 86, 110
2, 274680, Note_off_c, 0, 86, 100
2, 274688, Note_on_c, 0, 87, 110
2, 274936, Note_off_c, 0, 87, 100
2, 274944, Note_on_c, 0, 88, 110
2, 275320, Note_off_c, 0, 88, 100
2, 275328, Note_on_c, 0, 69, 110
2, 275704, Note_off_c, 0, 69, 100
2, 275712, Note_on_c, 0, 71, 110
2, 275808, Note_on_c, 0, 73, 110
2, 275896, Note_off_c, 0, 71, 100
2, 275904, Note_on_c, 0, 71, 110
2, 275992, Note_off_c, 0, 73, 100
2, 276000, Note_on_c, 0, 73, 110
2, 276088, Note_off_c, 0, 71, 100
2, 276096, Note_on_c, 0, 71, 110
2, 276184, Note_off_c, 0, 73, 100
2, 276192, Note_on_c, 0, 73, 110
2, 276280, Note_off_c, 0, 71, 100
2, 276288, Note_on_c, 0, 71, 110
2, 276376, Note_off_c, 0, 73, 100
2, 276384, Note_on_c, 0, 73, 110
2, 276472, Note_off_c, 0, 71, 100
2, 276480, Note_on_c, 0, 71, 110
2, 276568, Note_off_c, 0, 73, 100
2, 276576, Note_on_c, 0, 73, 110
2, 276664, Note_off_c, 0, 71, 100
2, 276672, Note_on_c, 0, 71, 110
2, 276760, Note_off_c, 0, 73, 100
2, 276768, Note_on_c, 0, 73, 110
2, 276856, Note_off_c, 0, 71, 100
2, 276864, Note_on_c, 0, 71, 110
2, 276952, Note_off_c, 0, 73, 100
2, 276960, Note_on_c, 0, 73, 110
2, 277048, Note_off_c, 0, 71, 100
2, 277056, Note_on_c, 0, 69, 110
2, 277144, Note_off_c, 0, 73, 100
2, 277152, Note_on_c, 0, 71, 110
2, 277240, Note_off_c, 0, 69, 100
2, 277248, Note_on_c, 0, 69, 110
2, 277336, Note_off_c, 0, 71, 100
2, 277624, Note_off_c, 0, 69, 100
2, 278016, Note_on_c, 0, 74, 80
2, 278200, Note_off_c, 0, 74, 100
2, 278208, Note_on_c, 0, 73, 80
2, 278392, Note_off_c, 0, 73, 100
2, 278400, Note_on_c, 0, 71, 80
2, 278584, Note_off_c, 0, 71, 100
2, 278592, Note_on_c, 0, 69, 80
2, 278776, Note_off_c, 0, 69, 100
2, 278784, Note_on_c, 0, 68, 80
2, 279160, Note_off_c, 0, 68, 100
2, 279168, Note_on_c, 0, 64, 80
2, 279544, Note_off_c, 0, 64, 100
2, 279552, Note_on_c, 0, 74, 80
2, 279736, Note_off_c, 0, 74, 100
2, 279744, Note_on_c, 0, 73, 80
2, 279928, Note_off_c, 0, 73, 100
2, 279936, Note_on_c, 0, 71, 80
2, 280120, Note_off_c, 0, 71, 100
2, 280128, Note_on_c, 0, 69, 80
2, 280312, Note_off_c, 0, 69, 100
2, 280320, Note_on_c, 0, 75, 80
2, 280696, Note_off_c, 0, 75, 100
2, 280704, Note_on_c, 0, 76, 80
2, 281080, Note_off_c, 0, 76, 100
2, 281088, Note_on_c, 0, 74, 80
2, 281272, Note_off_c, 0, 74, 100
2, 281280, Note_on_c, 0, 73, 80
2, 281464, Note_off_c, 0, 73, 100
2, 281472, Note_on_c, 0, 71, 80
2, 281656, Note_off_c, 0, 71, 100
2, 281664, Note_on_c, 0, 69, 80
2, 281848, Note_off_c, 0, 69, 100
2, 281856, Note_on_c, 0, 68, 80
2, 282232, Note_off_c, 0, 68, 100
2, 282240, Note_on_c, 0, 64, 80
2, 282616, Note_off_c, 0, 64, 100
2, 282624, Note_on_c, 0, 78, 80
2, 283000, Note_off_c, 0, 78, 100
2, 283008, Note_on_c, 0, 66, 80
2, 283384, Note_off_c, 0, 66, 100
2, 283392, Note_on_c, 0, 74, 80
2, 283768, Note_off_c, 0, 74, 100
2, 283776, Note_on_c, 0, 62, 80
2, 284152, Note_off_c, 0, 62, 100
2, 284160, Note_on_c, 0, 71, 80
2, 284536, Note_off_c, 0, 71, 100
2, 284544, Note_on_c, 0, 59, 80
2, 284920, Note_off_c, 0, 59, 100
2, 284928, Note_on_c, 0, 68, 80
2, 285304, Note_off_c, 0, 68, 100
2, 285312, Note_on_c, 0, 56, 80
2, 285688, Note_off_c, 0, 56, 100
2, 285696, Note_on_c, 0, 69, 80
2, 286072, Note_off_c, 0, 69, 100
2, 286080, Note_on_c, 0, 57, 80
2, 286456, Note_off_c, 0, 57, 100
2, 286464, Note_on_c, 0, 62, 80
2, 286840, Note_off_c, 0, 62, 100
2, 286848, Note_on_c, 0, 50, 80
2, 287224, Note_off_c, 0, 50, 100
2, 287232, Note_on_c, 0, 64, 80
2, 287608, Note_off_c, 0, 64, 100
2, 287616, Note_on_c, 0, 52, 80
2, 287992, Note_off_c, 0, 52, 100
2, 288000, Note_on_c, 0, 57, 80
2, 288376, Note_off_c, 0, 57, 100
2, 288768, Note_on_c, 0, 86, 80
2, 288952, Note_off_c, 0, 86, 100
2, 288960, Note_on_c, 0, 85, 80
2, 289144, Note_off_c, 0, 85, 100
2, 289152, Note_on_c, 0, 83, 80
2, 289336, Note_off_c, 0, 83, 100
2, 289344, Note_on_c, 0, 81, 80
2, 289528, Note_off_c, 0, 81, 100
2, 289536, Note_on_c, 0, 80, 80
2, 289912, Note_off_c, 0, 80, 100
2, 289920, Note_on_c, 0, 76, 80
2, 290296, Note_off_c, 0, 76, 100
2, 290304, Note_on_c, 0, 86, 80
2, 290488, Note_off_c, 0, 86, 100
2, 290496, Note_on_c, 0, 85, 80
2, 290680, Note_off_c, 0, 85, 100
2, 290688, Note_on_c, 0, 83, 80
2, 290872, Note_off_c, 0, 83, 100
2, 290880, Note_on_c, 0, 81, 80
2, 291064, Note_off_c, 0, 81, 100
2, 291072, Note_on_c, 0, 87, 80
2, 291448, Note_off_c, 0, 87, 100
2, 291456, Note_on_c, 0, 88, 80
2, 291832, Note_off_c, 0, 88, 100
2, 291840, Note_on_c, 0, 86, 80
2, 292024, Note_off_c, 0, 86, 100
2, 292032, Note_on_c, 0, 85, 80
2, 292216, Note_off_c, 0, 85, 100
2, 292224, Note_on_c, 0, 83, 80
2, 292408, Note_off_c, 0, 83, 100
2, 292416, Note_on_c, 0, 81, 80
2, 292600, Note_off_c, 0, 81, 100
2, 292608, Note_on_c, 0, 80, 80
2, 292984, Note_off_c, 0, 80, 100
2, 292992, Note_on_c, 0, 76, 80
2, 293368, Note_off_c, 0, 76, 100
2, 293376, Note_on_c, 0, 89, 80
2, 293632, Note_off_c, 0, 89, 100
2, 293760, Note_on_c, 0, 77, 80
2, 294016, Note_off_c, 0, 77, 100
2, 294144, Note_on_c, 0, 86, 80
2, 294400, Note_off_c, 0, 86, 100
2, 294528, Note_on_c, 0, 74, 80
2, 294784, Note_off_c, 0, 74, 100
2, 294912, Note_on_c, 0, 83, 80
2, 295168, Note_off_c, 0, 83, 100
2, 295296, Note_on_c, 0, 71, 80
2, 295552, Note_off_c, 0, 71, 100
2, 295680, Note_on_c, 0, 80, 80
2, 295936, Note_off_c, 0, 80, 100
2, 296064, Note_on_c, 0, 68, 80
2, 296320, Note_off_c, 0, 68, 100
2, 298368, Note_on_c, 0, 73, 80
2, 298368, Note_on_c, 0, 76, 80
2, 298744, Note_off_c, 0, 73, 100
2, 298752, Note_on_c, 0, 74, 80
2, 299128, Note_off_c, 0, 76, 100
2, 299136, Note_on_c, 0, 83, 100
2, 299896, Note_off_c, 0, 74, 100
2, 299896, Note_off_c, 0, 83, 100
2, 299904, Note_on_c, 0, 73, 80
2, 299904, Note_on_c, 0, 81, 80
2, 300280, Note_off_c, 0, 73, 100
2, 300280, Note_off_c, 0, 81, 100
2, 300288, Note_on_c, 0, 76, 80
2, 300288, Note_on_c, 0, 74, 80
2, 300664, Note_off_c, 0, 76, 100
2, 300672, Note_on_c, 0, 83, 102
2, 301432, Note_off_c, 0, 74, 100
2, 301432, Note_off_c, 0, 83, 100
2, 301440, Note_on_c, 0, 73, 80
2, 301440, Note_on_c, 0, 81, 80
2, 301816, Note_off_c, 0, 73, 100
2, 301816, Note_off_c, 0, 81, 100
2, 301824, Note_on_c, 0, 71, 80
2, 301824, Note_on_c, 0, 69, 80
2, 302208, Note_on_c, 0, 78, 80
2, 302584, Note_off_c, 0, 71, 100
2, 302584, Note_off_c, 0, 69, 100
2, 302584, Note_off_c, 0, 78, 100
2, 302592, Note_on_c, 0, 71, 80
2, 302592, Note_on_c, 0, 68, 80
2, 302976, Note_on_c, 0, 76, 80
2, 303352, Note_off_c, 0, 71, 100
2, 303352, Note_off_c, 0, 68, 100
2, 303352, Note_off_c, 0, 76, 100
2, 303360, Note_on_c, 0, 69, 80
2, 303360, Note_on_c, 0, 73, 80
2, 303544, Note_off_c, 0, 73, 100
2, 303552, Note_on_c, 0, 74, 80
2, 303736, Note_off_c, 0, 69, 100
2, 303736, Note_off_c, 0, 74, 100
2, 303744, Note_on_c, 0, 73, 80
2, 303928, Note_off_c, 0, 73, 100
2, 303936, Note_on_c, 0, 71, 80
2, 304120, Note_off_c, 0, 71, 100
2, 304128, Note_on_c, 0, 69, 80
2, 304504, Note_off_c, 0, 69, 100
2, 304512, Note_on_c, 0, 61, 70
2, 304512, Note_on_c, 0, 57, 70
2, 304512, Note_on_c, 0, 64, 70
2, 304888, Note_off_c, 0, 61, 100
2, 304888, Note_off_c, 0, 57, 100
2, 304896, Note_on_c, 0, 62, 71
2, 304896, Note_on_c, 0, 59, 71
2, 306040, Note_off_c, 0, 64, 100
2, 306040, Note_off_c, 0, 62, 100
2, 306040, Note_off_c, 0, 59, 100
2, 306048, Note_on_c, 0, 61, 75
2, 306048, Note_on_c, 0, 57, 75
2, 306048, Note_on_c, 0, 64, 75
2, 306424, Note_off_c, 0, 61, 100
2, 306424, Note_off_c, 0, 57, 100
2, 306432, Note_on_c, 0, 62, 77
2, 306432, Note_on_c, 0, 59, 77
2, 307576, Note_off_c, 0, 64, 100
2, 307576, Note_off_c, 0, 62, 100
2, 307576, Note_off_c, 0, 59, 100
2, 307584, Note_on_c, 0, 61, 81
2, 307584, Note_on_c, 0, 57, 81
2, 307960, Note_off_c, 0, 61, 100
2, 307960, Note_off_c, 0, 57, 100
2, 307968, Note_on_c, 0, 62, 82
2, 307968, Note_on_c, 0, 57, 82
2, 309112, Note_off_c, 0, 62, 100
2, 309112, Note_off_c, 0, 57, 100
2, 309120, Note_on_c, 0, 61, 87
2, 309120, Note_on_c, 0, 57, 87
2, 309496, Note_off_c, 0, 61, 100
2, 309496, Note_off_c, 0, 57, 100
2, 309504, Note_on_c, 0, 62, 88
2, 309504, Note_on_c, 0, 57, 88
2, 310648, Note_off_c, 0, 62, 100
2, 310648, Note_off_c, 0, 57, 100
2, 310656, Note_on_c, 0, 59, 92
2, 310656, Note_on_c, 0, 55, 92
2, 311032, Note_off_c, 0, 59, 100
2, 311040, Note_on_c, 0, 60, 94
2, 311416, Note_off_c, 0, 60, 100
2, 311424, Note_on_c, 0, 62, 95
2, 311800, Note_off_c, 0, 62, 100
2, 311808, Note_on_c, 0, 64, 97
2, 312184, Note_off_c, 0, 55, 100
2, 312184, Note_off_c, 0, 64, 100
2, 312192, Note_on_c, 0, 67, 98
2, 312192, Note_on_c, 0, 59, 98
2, 312568, Note_off_c, 0, 59, 100
2, 312576, Note_on_c, 0, 60, 99
2, 312952, Note_off_c, 0, 60, 100
2, 312960, Note_on_c, 0, 62, 100
2, 313336, Note_off_c, 0, 62, 100
2, 313344, Note_on_c, 0, 64, 100
2, 313720, Note_off_c, 0, 67, 100
2, 313720, Note_off_c, 0, 64, 100
2, 313728, Note_on_c, 0, 77, 100
2, 313728, Note_on_c, 0, 67, 112
2, 314104, Note_off_c, 0, 77, 100
2, 314112, Note_on_c, 0, 76, 100
2, 314488, Note_off_c, 0, 76, 100
2, 314496, Note_on_c, 0, 74, 100
2, 314872, Note_off_c, 0, 74, 100
2, 314880, Note_on_c, 0, 72, 100
2, 315256, Note_off_c, 0, 67, 100
2, 315256, Note_off_c, 0, 72, 100
2, 315264, Note_on_c, 0, 71, 110
2, 315264, Note_on_c, 0, 79, 100
2, 315640, Note_off_c, 0, 71, 100
2, 315648, Note_on_c, 0, 72, 100
2, 316024, Note_off_c, 0, 72, 100
2, 316032, Note_on_c, 0, 74, 100
2, 316408, Note_off_c, 0, 74, 100
2, 316416, Note_on_c, 0, 76, 100
2, 316792, Note_off_c, 0, 79, 100
2, 316792, Note_off_c, 0, 76, 100
2, 316800, Note_on_c, 0, 61, 100
2, 316800, Note_on_c, 0, 57, 100
2, 317176, Note_off_c, 0, 61, 100
2, 317184, Note_on_c, 0, 62, 100
2, 317560, Note_off_c, 0, 62, 100
2, 317568, Note_on_c, 0, 64, 100
2, 317944, Note_off_c, 0, 64, 100
2, 317952, Note_on_c, 0, 65, 100
2, 318328, Note_off_c, 0, 57, 100
2, 318328, Note_off_c, 0, 65, 100
2, 318336, Note_on_c, 0, 61, 110
2, 318336, Note_on_c, 0, 69, 100
2, 318712, Note_off_c, 0, 61, 100
2, 318720, Note_on_c, 0, 62, 100
2, 319096, Note_off_c, 0, 62, 100
2, 319104, Note_on_c, 0, 64, 100
2, 319480, Note_off_c, 0, 64, 100
2, 319488, Note_on_c, 0, 65, 100
2, 319864, Note_off_c, 0, 69, 100
2, 319864, Note_off_c, 0, 65, 100
2, 319872, Note_on_c, 0, 79, 110
2, 319872, Note_on_c, 0, 69, 100
2, 320248, Note_off_c, 0, 79, 100
2, 320256, Note_on_c, 0, 77, 100
2, 320632, Note_off_c, 0, 77, 100
2, 320640, Note_on_c, 0, 76, 100
2, 321016, Note_off_c, 0, 76, 100
2, 321024, Note_on_c, 0, 74, 100
2, 321400, Note_off_c, 0, 69, 100
2, 321400, Note_off_c, 0, 74, 100
2, 321408, Note_on_c, 0, 81, 100
2, 321408, Note_on_c, 0, 73, 100
2, 321784, Note_off_c, 0, 73, 100
2, 321792, Note_on_c, 0, 74, 100
2, 322168, Note_off_c, 0, 74, 100
2, 322176, Note_on_c, 0, 76, 100
2, 322552, Note_off_c, 0, 76, 100
2, 322560, Note_on_c, 0, 77, 100
2, 322936, Note_off_c, 0, 81, 100
2, 322936, Note_off_c, 0, 77, 100
2, 322944, Note_on_c, 0, 57, 100
2, 322944, Note_on_c, 0, 65, 100
2, 323320, Note_off_c, 0, 57, 100
2, 323328, Note_on_c, 0, 58, 100
2, 323704, Note_off_c, 0, 58, 100
2, 323712, Note_on_c, 0, 60, 100
2, 324088, Note_off_c, 0, 60, 100
2, 324096, Note_on_c, 0, 62, 100
2, 324472, Note_off_c, 0, 65, 100
2, 324472, Note_off_c, 0, 62, 100
2, 324480, Note_on_c, 0, 69, 100
2, 324480, Note_on_c, 0, 77, 100
2, 324856, Note_off_c, 0, 69, 100
2, 324864, Note_on_c, 0, 70, 100
2, 325240, Note_off_c, 0, 70, 100
2, 325248, Note_on_c, 0, 72, 100
2, 325624, Note_off_c, 0, 72, 100
2, 325632, Note_on_c, 0, 74, 100
2, 326008, Note_off_c, 0, 77, 100
2, 326008, Note_off_c, 0, 74, 100
2, 326016, Note_on_c, 0, 81, 110
2, 326016, Note_on_c, 0, 77, 110
2, 326392, Note_off_c, 0, 81, 100
2, 326400, Note_on_c, 0, 82, 110
2, 326776, Note_off_c, 0, 82, 100
2, 326784, Note_on_c, 0, 84, 110
2, 327160, Note_off_c, 0, 77, 100
2, 327160, Note_off_c, 0, 84, 100
2, 327168, Note_on_c, 0, 82, 110
2, 327168, Note_on_c, 0, 86, 110
2, 327544, Note_off_c, 0, 82, 100
2, 327552, Note_on_c, 0, 81, 110
2, 327928, Note_off_c, 0, 81, 100
2, 327936, Note_on_c, 0, 80, 110
2, 328312, Note_off_c, 0, 80, 100
2, 328320, Note_on_c, 0, 78, 110
2, 328696, Note_off_c, 0, 86, 100
2, 328696, Note_off_c, 0, 78, 100
2, 328704, Note_on_c, 0, 83, 110
2, 328704, Note_on_c, 0, 80, 110
2, 328704, Note_on_c, 0, 76, 110
2, 329080, Note_off_c, 0, 76, 100
2, 329088, Note_on_c, 0, 74, 110
2, 329464, Note_off_c, 0, 83, 100
2, 329464, Note_off_c, 0, 80, 100
2, 329464, Note_off_c, 0, 74, 100
2, 329472, Note_on_c, 0, 88, 120
2, 329472, Note_on_c, 0, 85, 120
2, 329472, Note_on_c, 0, 81, 120
2, 329472, Note_on_c, 0, 76, 120
2, 331000, Note_off_c, 0, 88, 100
2, 331000, Note_off_c, 0, 85, 100
2, 331000, Note_off_c, 0, 81, 100
2, 331000, Note_off_c, 0, 76, 100
2, 331008, Note_on_c, 0, 81, 120
2, 331008, Note_on_c, 0, 78, 120
2, 331008, Note_on_c, 0, 73, 120
2, 331008, Note_on_c, 0, 69, 120
2, 332536, Note_off_c, 0, 81, 100
2, 332536, Note_off_c, 0, 78, 100
2, 332536, Note_off_c, 0, 73, 100
2, 332536, Note_off_c, 0, 69, 100
2, 332544, Note_on_c, 0, 86, 120
2, 332544, Note_on_c, 0, 83, 120
2, 332544, Note_on_c, 0, 78, 120
2, 332544, Note_on_c, 0, 74, 120
2, 334072, Note_off_c, 0, 86, 100
2, 334072, Note_off_c, 0, 83, 100
2, 334072, Note_off_c, 0, 78, 100
2, 334072, Note_off_c, 0, 74, 100
2, 334080, Note_on_c, 0, 71, 120
2, 334080, Note_on_c, 0, 68, 120
2, 334080, Note_on_c, 0, 64, 120
2, 334080, Note_on_c, 0, 59, 120
2, 335608, Note_off_c, 0, 71, 100
2, 335608, Note_off_c, 0, 68, 100
2, 335608, Note_off_c, 0, 64, 100
2, 335608, Note_off_c, 0, 59, 100
2, 335616, Note_on_c, 0, 76, 120
2, 335616, Note_on_c, 0, 73, 120
2, 335616, Note_on_c, 0, 69, 120
2, 335616, Note_on_c, 0, 64, 120
2, 336760, Note_off_c, 0, 76, 100
2, 336760, Note_off_c, 0, 73, 100
2, 336760, Note_off_c, 0, 69, 100
2, 336760, Note_off_c, 0, 64, 100
2, 336768, Note_on_c, 0, 74, 120
2, 336768, Note_on_c, 0, 71, 120
2, 336768, Note_on_c, 0, 66, 120
2, 336768, Note_on_c, 0, 62, 120
2, 337528, Note_off_c, 0, 62, 100
2, 337528, Note_off_c, 0, 66, 100
2, 337528, Note_off_c, 0, 71, 100
2, 337528, Note_off_c, 0, 74, 100
2, 337536, Note_on_c, 0, 73, 120
2, 337536, Note_on_c, 0, 69, 120
2, 337536, Note_on_c, 0, 64, 120
2, 337536, Note_on_c, 0, 61, 120
2, 338296, Note_off_c, 0, 73, 100
2, 338296, Note_off_c, 0, 69, 100
2, 338296, Note_off_c, 0, 64, 100
2, 338296, Note_off_c, 0, 61, 100
2, 338304, Note_on_c, 0, 68, 120
2, 338304, Note_on_c, 0, 64, 120
2, 338304, Note_on_c, 0, 62, 120
2, 338304, Note_on_c, 0, 59, 120
2, 338680, Note_off_c, 0, 68, 100
2, 338680, Note_off_c, 0, 64, 100
2, 338680, Note_off_c, 0, 62, 100
2, 338680, Note_off_c, 0, 59, 100
2, 338688, Note_on_c, 0, 69, 120
2, 338688, Note_on_c, 0, 64, 120
2, 338688, Note_on_c, 0, 61, 120
2, 338688, Note_on_c, 0, 57, 120
2, 339064, Note_off_c, 0, 69, 100
2, 339064, Note_off_c, 0, 64, 100
2, 339064, Note_off_c, 0, 61, 100
2, 339064, Note_off_c, 0, 57, 100
2, 339840, Note_on_c, 0, 81, 80
2, 339840, Note_on_c, 0, 69, 80
2, 340216, Note_off_c, 0, 81, 100
2, 340216, Note_off_c, 0, 69, 100
2, 340224, Note_on_c, 0, 79, 80
2, 340224, Note_on_c, 0, 67, 80
2, 340600, Note_off_c, 0, 79, 100
2, 340600, Note_off_c, 0, 67, 100
2, 340608, Note_on_c, 0, 76, 80
2, 340608, Note_on_c, 0, 64, 80
2, 340984, Note_off_c, 0, 76, 100
2, 340984, Note_off_c, 0, 64, 100
2, 340992, Note_on_c, 0, 81, 80
2, 340992, Note_on_c, 0, 69, 80
2, 341368, Note_off_c, 0, 81, 100
2, 341368, Note_off_c, 0, 69, 100
2, 341376, Note_on_c, 0, 79, 80
2, 341376, Note_on_c, 0, 67, 80
2, 341752, Note_off_c, 0, 79, 100
2, 341752, Note_off_c, 0, 67, 100
2, 341760, Note_on_c, 0, 78, 80
2, 341760, Note_on_c, 0, 66, 80
2, 342136, Note_off_c, 0, 78, 100
2, 342136, Note_off_c, 0, 66, 100
2, 342144, Note_on_c, 0, 76, 80
2, 342144, Note_on_c, 0, 64, 80
2, 342520, Note_off_c, 0, 76, 100
2, 342520, Note_off_c, 0, 64, 100
2, 342528, Note_on_c, 0, 74, 80
2, 342528, Note_on_c, 0, 62, 80
2, 342904, Note_off_c, 0, 74, 100
2, 342904, Note_off_c, 0, 62, 100
2, 342912, Note_on_c, 0, 73, 80
2, 342912, Note_on_c, 0, 61, 80
2, 343288, Note_off_c, 0, 73, 100
2, 343288, Note_off_c, 0, 61, 100
2, 343296, Note_on_c, 0, 74, 80
2, 343296, Note_on_c, 0, 62, 80
2, 343672, Note_off_c, 0, 74, 100
2, 343672, Note_off_c, 0, 62, 100
2, 343680, Note_on_c, 0, 71, 80
2, 343680, Note_on_c, 0, 59, 80
2, 344056, Note_off_c, 0, 71, 100
2, 344056, Note_off_c, 0, 59, 100
2, 344064, Note_on_c, 0, 76, 80
2, 344064, Note_on_c, 0, 64, 80
2, 344440, Note_off_c, 0, 76, 100
2, 344440, Note_off_c, 0, 64, 100
2, 344448, Note_on_c, 0, 74, 80
2, 344448, Note_on_c, 0, 62, 80
2, 344824, Note_off_c, 0, 74, 100
2, 344824, Note_off_c, 0, 62, 100
2, 344832, Note_on_c, 0, 73, 110
2, 344832, Note_on_c, 0, 61, 110
2, 345016, Note_off_c, 0, 73, 100
2, 345016, Note_off_c, 0, 61, 100
2, 345024, Note_on_c, 0, 69, 80
2, 345208, Note_off_c, 0, 69, 100
2, 345216, Note_on_c, 0, 68, 80
2, 345400, Note_off_c, 0, 68, 100
2, 345408, Note_on_c, 0, 69, 81
2, 345592, Note_off_c, 0, 69, 100
2, 345600, Note_on_c, 0, 71, 81
2, 345784, Note_off_c, 0, 71, 100
2, 345792, Note_on_c, 0, 69, 82
2, 345976, Note_off_c, 0, 69, 100
2, 345984, Note_on_c, 0, 68, 83
2, 346168, Note_off_c, 0, 68, 100
2, 346176, Note_on_c, 0, 69, 83
2, 346360, Note_off_c, 0, 69, 100
2, 346368, Note_on_c, 0, 59, 84
2, 346552, Note_off_c, 0, 59, 100
2, 346560, Note_on_c, 0, 71, 85
2, 346744, Note_off_c, 0, 71, 100
2, 346752, Note_on_c, 0, 70, 85
2, 346936, Note_off_c, 0, 70, 100
2, 346944, Note_on_c, 0, 71, 86
2, 347128, Note_off_c, 0, 71, 100
2, 347136, Note_on_c, 0, 61, 87
2, 347320, Note_off_c, 0, 61, 100
2, 347328, Note_on_c, 0, 73, 87
2, 347512, Note_off_c, 0, 73, 100
2, 347520, Note_on_c, 0, 72, 88
2, 347704, Note_off_c, 0, 72, 100
2, 347712, Note_on_c, 0, 73, 89
2, 347896, Note_off_c, 0, 73, 100
2, 347904, Note_on_c, 0, 62, 89
2, 348088, Note_off_c, 0, 62, 100
2, 348096, Note_on_c, 0, 74, 90
2, 348280, Note_off_c, 0, 74, 100
2, 348288, Note_on_c, 0, 73, 91
2, 348472, Note_off_c, 0, 73, 100
2, 348480, Note_on_c, 0, 74, 91
2, 348664, Note_off_c, 0, 74, 100
2, 348672, Note_on_c, 0, 64, 92
2, 348856, Note_off_c, 0, 64, 100
2, 348864, Note_on_c, 0, 76, 93
2, 349048, Note_off_c, 0, 76, 100
2, 349056, Note_on_c, 0, 75, 93
2, 349240, Note_off_c, 0, 75, 100
2, 349248, Note_on_c, 0, 76, 94
2, 349432, Note_off_c, 0, 76, 100
2, 349440, Note_on_c, 0, 66, 95
2, 349624, Note_off_c, 0, 66, 100
2, 349632, Note_on_c, 0, 78, 95
2, 349816, Note_off_c, 0, 78, 100
2, 349824, Note_on_c, 0, 77, 96
2, 350008, Note_off_c, 0, 77, 100
2, 350016, Note_on_c, 0, 78, 97
2, 350200, Note_off_c, 0, 78, 100
2, 350208, Note_on_c, 0, 68, 97
2, 350392, Note_off_c, 0, 68, 100
2, 350400, Note_on_c, 0, 80, 98
2, 350584, Note_off_c, 0, 80, 100
2, 350592, Note_on_c, 0, 79, 99
2, 350776, Note_off_c, 0, 79, 100
2, 350784, Note_on_c, 0, 80, 99
2, 350968, Note_off_c, 0, 80, 100
2, 350976, Note_on_c, 0, 69, 120
2, 351160, Note_off_c, 0, 69, 100
2, 351168, Note_on_c, 0, 81, 120
2, 351352, Note_off_c, 0, 81, 100
2, 351360, Note_on_c, 0, 80, 120
2, 351544, Note_off_c, 0, 80, 100
2, 351552, Note_on_c, 0, 81, 120
2, 351736, Note_off_c, 0, 81, 100
2, 351744, Note_on_c, 0, 83, 120
2, 351928, Note_off_c, 0, 83, 100
2, 351936, Note_on_c, 0, 81, 120
2, 352120, Note_off_c, 0, 81, 100
2, 352128, Note_on_c, 0, 80, 120
2, 352312, Note_off_c, 0, 80, 100
2, 352320, Note_on_c, 0, 81, 120
2, 352504, Note_off_c, 0, 81, 100
2, 352512, Note_on_c, 0, 71, 120
2, 352696, Note_off_c, 0, 71, 100
2, 352704, Note_on_c, 0, 83, 120
2, 352888, Note_off_c, 0, 83, 100
2, 352896, Note_on_c, 0, 82, 120
2, 353080, Note_off_c, 0, 82, 100
2, 353088, Note_on_c, 0, 83, 120
2, 353272, Note_off_c, 0, 83, 100
2, 353280, Note_on_c, 0, 73, 120
2, 353464, Note_off_c, 0, 73, 100
2, 353472, Note_on_c, 0, 85, 120
2, 353656, Note_off_c, 0, 85, 100
2, 353664, Note_on_c, 0, 84, 120
2, 353848, Note_off_c, 0, 84, 100
2, 353856, Note_on_c, 0, 85, 120
2, 354040, Note_off_c, 0, 85, 100
2, 354048, Note_on_c, 0, 74, 120
2, 354232, Note_off_c, 0, 74, 100
2, 354240, Note_on_c, 0, 86, 120
2, 354424, Note_off_c, 0, 86, 100
2, 354432, Note_on_c, 0, 85, 120
2, 354616, Note_off_c, 0, 85, 100
2, 354624, Note_on_c, 0, 86, 120
2, 354808, Note_off_c, 0, 86, 100
2, 354816, Note_on_c, 0, 76, 120
2, 355000, Note_off_c, 0, 76, 100
2, 355008, Note_on_c, 0, 88, 120
2, 355192, Note_off_c, 0, 88, 100
2, 355200, Note_on_c, 0, 87, 120
2, 355384, Note_off_c, 0, 87, 100
2, 355392, Note_on_c, 0, 88, 120
2, 355576, Note_off_c, 0, 88, 100
2, 355584, Note_on_c, 0, 78, 120
2, 355768, Note_off_c, 0, 78, 100
2, 355776, Note_on_c, 0, 90, 120
2, 355960, Note_off_c, 0, 90, 100
2, 355968, Note_on_c, 0, 89, 120
2, 356152, Note_off_c, 0, 89, 100
2, 356160, Note_on_c, 0, 90, 120
2, 356344, Note_off_c, 0, 90, 100
2, 356352, Note_on_c, 0, 80, 120
2, 356536, Note_off_c, 0, 80, 100
2, 356544, Note_on_c, 0, 92, 120
2, 356728, Note_off_c, 0, 92, 100
2, 356736, Note_on_c, 0, 91, 120
2, 356920, Note_off_c, 0, 91, 100
2, 356928, Note_on_c, 0, 92, 120
2, 357112, Note_off_c, 0, 92, 100
2, 357120, Note_on_c, 0, 81, 120
2, 357120, Note_on_c, 0, 93, 120
2, 357496, Note_off_c, 0, 81, 100
2, 357496, Note_off_c, 0, 93, 100
2, 357888, Note_on_c, 0, 76, 70
2, 358648, Note_off_c, 0, 76, 100
2, 358656, Note_on_c, 0, 78, 70
2, 359416, Note_off_c, 0, 78, 100
2, 359424, Note_on_c, 0, 71, 70
2, 360184, Note_off_c, 0, 71, 100
2, 360192, Note_on_c, 0, 76, 70
2, 360952, Note_off_c, 0, 76, 100
2, 360960, Note_on_c, 0, 70, 70
2, 360960, Note_on_c, 0, 66, 70
2, 361720, Note_off_c, 0, 70, 100
2, 361728, Note_on_c, 0, 74, 70
2, 362488, Note_off_c, 0, 66, 100
2, 362488, Note_off_c, 0, 74, 100
2, 362496, Note_on_c, 0, 68, 70
2, 362496, Note_on_c, 0, 62, 70
2, 363256, Note_off_c, 0, 68, 100
2, 363256, Note_off_c, 0, 62, 100
2, 363264, Note_on_c, 0, 69, 70
2, 363264, Note_on_c, 0, 61, 70
2, 364024, Note_off_c, 0, 69, 100
2, 364024, Note_off_c, 0, 61, 100
2, 364032, Note_on_c, 0, 65, 70
2, 364792, Note_off_c, 0, 65, 100
2, 364800, Note_on_c, 0, 66, 70
2, 365560, Note_off_c, 0, 66, 100
2, 365568, Note_on_c, 0, 59, 70
2, 366328, Note_off_c, 0, 59, 100
2, 366336, Note_on_c, 0, 64, 70
2, 367096, Note_off_c, 0, 64, 100
2, 367104, Note_on_c, 0, 58, 70
2, 367104, Note_on_c, 0, 54, 70
2, 367864, Note_off_c, 0, 58, 100
2, 367872, Note_on_c, 0, 62, 70
2, 368632, Note_off_c, 0, 54, 100
2, 368632, Note_off_c, 0, 62, 100
2, 368640, Note_on_c, 0, 56, 70
2, 368640, Note_on_c, 0, 50, 70
2, 369400, Note_off_c, 0, 56, 100
2, 369400, Note_off_c, 0, 50, 100
2, 369408, Note_on_c, 0, 57, 70
2, 369408, Note_on_c, 0, 49, 70
2, 370168, Note_off_c, 0, 57, 100
2, 370168, Note_off_c, 0, 49, 100
2, 372096, Note_on_c, 0, 88, 70
2, 372096, Note_on_c, 0, 76, 70
2, 372472, Note_off_c, 0, 88, 100
2, 372480, Note_on_c, 0, 85, 70
2, 372856, Note_off_c, 0, 76, 100
2, 372856, Note_off_c, 0, 85, 100
2, 372864, Note_on_c, 0, 83, 70
2, 372864, Note_on_c, 0, 74, 70
2, 373240, Note_off_c, 0, 83, 100
2, 373240, Note_off_c, 0, 74, 100
2, 373248, Note_on_c, 0, 81, 70
2, 373248, Note_on_c, 0, 73, 70
2, 373624, Note_off_c, 0, 81, 100
2, 373624, Note_off_c, 0, 73, 100
2, 375168, Note_on_c, 0, 76, 70
2, 375168, Note_on_c, 0, 74, 70
2, 375544, Note_off_c, 0, 76, 100
2, 375544, Note_off_c, 0, 74, 100
2, 375552, Note_on_c, 0, 81, 70
2, 375552, Note_on_c, 0, 73, 70
2, 375928, Note_off_c, 0, 81, 100
2, 375928, Note_off_c, 0, 73, 100
2, 375936, Note_on_c, 0, 83, 70
2, 375936, Note_on_c, 0, 74, 70
2, 376312, Note_off_c, 0, 83, 100
2, 376312, Note_off_c, 0, 74, 100
2, 376320, Note_on_c, 0, 85, 70
2, 376320, Note_on_c, 0, 76, 70
2, 376696, Note_off_c, 0, 85, 100
2, 376696, Note_off_c, 0, 76, 100
2, 378240, Note_on_c, 0, 76, 70
2, 378240, Note_on_c, 0, 64, 70
2, 378616, Note_off_c, 0, 76, 100
2, 378624, Note_on_c, 0, 73, 70
2, 379000, Note_off_c, 0, 64, 100
2, 379000, Note_off_c, 0, 73, 100
2, 379008, Note_on_c, 0, 71, 70
2, 379008, Note_on_c, 0, 62, 70
2, 379384, Note_off_c, 0, 71, 100
2, 379384, Note_off_c, 0, 62, 100
2, 379392, Note_on_c, 0, 69, 70
2, 379392, Note_on_c, 0, 61, 70
2, 379768, Note_off_c, 0, 69, 100
2, 379768, Note_off_c, 0, 61, 100
2, 381312, Note_on_c, 0, 57, 70
2, 381688, Note_off_c, 0, 57, 100
2, 381696, Note_on_c, 0, 55, 70
2, 382072, Note_off_c, 0, 55, 100
2, 382080, Note_on_c, 0, 54, 70
2, 382456, Note_off_c, 0, 54, 100
2, 382464, Note_on_c, 0, 52, 70
2, 382840, Note_off_c, 0, 52, 100
2, 384384, Note_on_c, 0, 81, 70
2, 384760, Note_off_c, 0, 81, 100
2, 384768, Note_on_c, 0, 79, 70
2, 385144, Note_off_c, 0, 79, 100
2, 385152, Note_on_c, 0, 78, 70
2, 385528, Note_off_c, 0, 78, 100
2, 385536, Note_on_c, 0, 76, 70
2, 385912, Note_off_c, 0, 76, 100
2, 387456, Note_on_c, 0, 81, 70
2, 387832, Note_off_c, 0, 81, 100
2, 387840, Note_on_c, 0, 79, 70
2, 388216, Note_off_c, 0, 79, 100
2, 388224, Note_on_c, 0, 77, 70
2, 388600, Note_off_c, 0, 77, 100
2, 388608, Note_on_c, 0, 76, 70
2, 388984, Note_off_c, 0, 76, 100
2, 390528, Note_on_c, 0, 57, 70
2, 390904, Note_off_c, 0, 57, 100
2, 390912, Note_on_c, 0, 55, 70
2, 391288, Note_off_c, 0, 55, 100
2, 391296, Note_on_c, 0, 53, 70
2, 391672, Note_off_c, 0, 53, 100
2, 391680, Note_on_c, 0, 52, 70
2, 392056, Note_off_c, 0, 52, 100
2, 393600, Note_on_c, 0, 62, 80
2, 393600, Note_on_c, 0, 50, 80
2, 393976, Note_off_c, 0, 62, 100
2, 393976, Note_off_c, 0, 50, 100
2, 393984, Note_on_c, 0, 61, 82
2, 394360, Note_off_c, 0, 61, 100
2, 394368, Note_on_c, 0, 59, 84
2, 394744, Note_off_c, 0, 59, 100
2, 394752, Note_on_c, 0, 57, 87
2, 395128, Note_off_c, 0, 57, 100
2, 395136, Note_on_c, 0, 61, 89
2, 395512, Note_off_c, 0, 61, 100
2, 395520, Note_on_c, 0, 62, 92
2, 395896, Note_off_c, 0, 62, 100
2, 395904, Note_on_c, 0, 65, 94
2, 396280, Note_off_c, 0, 65, 100
2, 396288, Note_on_c, 0, 69, 97
2, 396288, Note_on_c, 0, 57, 97
2, 396664, Note_off_c, 0, 69, 100
2, 396664, Note_off_c, 0, 57, 100
2, 396672, Note_on_c, 0, 73, 99
2, 396672, Note_on_c, 0, 61, 99
2, 397048, Note_off_c, 0, 73, 100
2, 397048, Note_off_c, 0, 61, 100
2, 397056, Note_on_c, 0, 74, 102
2, 397056, Note_on_c, 0, 62, 102
2, 397432, Note_off_c, 0, 74, 100
2, 397432, Note_off_c, 0, 62, 100
2, 397440, Note_on_c, 0, 76, 104
2, 397440, Note_on_c, 0, 64, 104
2, 397816, Note_off_c, 0, 76, 100
2, 397816, Note_off_c, 0, 64, 100
2, 397824, Note_on_c, 0, 77, 107
2, 397824, Note_on_c, 0, 65, 107
2, 398200, Note_off_c, 0, 77, 100
2, 398200, Note_off_c, 0, 65, 100
2, 398208, Note_on_c, 0, 79, 109
2, 398208, Note_on_c, 0, 67, 109
2, 398584, Note_off_c, 0, 79, 100
2, 398584, Note_off_c, 0, 67, 100
2, 398592, Note_on_c, 0, 81, 120
2, 398592, Note_on_c, 0, 69, 120
2, 401656, Note_off_c, 0, 69, 100
2, 401656, Note_off_c, 0, 81, 100
2, 401664, Key_signature, 0, "major"
2, 401664, Note_on_c, 0, 82, 120
2, 401664, Note_on_c, 0, 77, 120
2, 401664, Note_on_c, 0, 74, 120
2, 401664, Note_on_c, 0, 70, 120
2, 402808, Note_off_c, 0, 82, 100
2, 402808, Note_off_c, 0, 77, 100
2, 402808, Note_off_c, 0, 74, 100
2, 402808, Note_off_c, 0, 70, 100
2, 402816, Note_on_c, 0, 77, 80
2, 402816, Note_on_c, 0, 74, 80
2, 403192, Note_off_c, 0, 77, 100
2, 403192, Note_off_c, 0, 74, 100
2, 403200, Note_on_c, 0, 79, 80
2, 403200, Note_on_c, 0, 75, 80
2, 403576, Note_off_c, 0, 79, 100
2, 403576, Note_off_c, 0, 75, 100
2, 403584, Note_on_c, 0, 72, 80
2, 403584, Note_on_c, 0, 75, 80
2, 403960, Note_off_c, 0, 72, 100
2, 403960, Note_off_c, 0, 75, 100
2, 403968, Note_on_c, 0, 77, 80
2, 403968, Note_on_c, 0, 74, 80
2, 404344, Note_off_c, 0, 77, 100
2, 404344, Note_off_c, 0, 74, 100
2, 404352, Note_on_c, 0, 74, 80
2, 404352, Note_on_c, 0, 70, 80
2, 404728, Note_off_c, 0, 74, 100
2, 404728, Note_off_c, 0, 70, 100
2, 404736, Note_on_c, 0, 75, 80
2, 404736, Note_on_c, 0, 67, 80
2, 405112, Note_off_c, 0, 75, 100
2, 405112, Note_off_c, 0, 67, 100
2, 405120, Note_on_c, 0, 72, 80
2, 405120, Note_on_c, 0, 63, 80
2, 405496, Note_off_c, 0, 72, 100
2, 405496, Note_off_c, 0, 63, 100
2, 405504, Note_on_c, 0, 74, 80
2, 405504, Note_on_c, 0, 65, 80
2, 405880, Note_off_c, 0, 74, 100
2, 405880, Note_off_c, 0, 65, 100
2, 405888, Note_on_c, 0, 70, 80
2, 405888, Note_on_c, 0, 62, 80
2, 406264, Note_off_c, 0, 70, 100
2, 406264, Note_off_c, 0, 62, 100
2, 406272, Note_on_c, 0, 72, 80
2, 406272, Note_on_c, 0, 63, 80
2, 406648, Note_off_c, 0, 72, 100
2, 406648, Note_off_c, 0, 63, 100
2, 406656, Note_on_c, 0, 67, 80
2, 406656, Note_on_c, 0, 63, 80
2, 407032, Note_off_c, 0, 67, 100
2, 407032, Note_off_c, 0, 63, 100
2, 407040, Note_on_c, 0, 69, 80
2, 407040, Note_on_c, 0, 63, 80
2, 407416, Note_off_c, 0, 69, 100
2, 407416, Note_off_c, 0, 63, 100
2, 407424, Note_on_c, 0, 65, 80
2, 407424, Note_on_c, 0, 63, 80
2, 407800, Note_off_c, 0, 65, 100
2, 407800, Note_off_c, 0, 63, 100
2, 407808, Note_on_c, 0, 70, 120
2, 407808, Note_on_c, 0, 62, 120
2, 408952, Note_off_c, 0, 70, 100
2, 408952, Note_off_c, 0, 62, 100
2, 408960, Note_on_c, 0, 65, 80
2, 408960, Note_on_c, 0, 62, 80
2, 409336, Note_off_c, 0, 65, 100
2, 409336, Note_off_c, 0, 62, 100
2, 409344, Note_on_c, 0, 67, 80
2, 409344, Note_on_c, 0, 63, 80
2, 409720, Note_off_c, 0, 67, 100
2, 409720, Note_off_c, 0, 63, 100
2, 409728, Note_on_c, 0, 60, 80
2, 409728, Note_on_c, 0, 63, 80
2, 410104, Note_off_c, 0, 60, 100
2, 410104, Note_off_c, 0, 63, 100
2, 410112, Note_on_c, 0, 65, 80
2, 410112, Note_on_c, 0, 62, 80
2, 410488, Note_off_c, 0, 65, 100
2, 410488, Note_off_c, 0, 62, 100
2, 410496, Note_on_c, 0, 62, 80
2, 410496, Note_on_c, 0, 58, 80
2, 410872, Note_off_c, 0, 62, 100
2, 410872, Note_off_c, 0, 58, 100
2, 410880, Note_on_c, 0, 63, 80
2, 410880, Note_on_c, 0, 55, 80
2, 411256, Note_off_c, 0, 63, 100
2, 411256, Note_off_c, 0, 55, 100
2, 411264, Note_on_c, 0, 60, 80
2, 411264, Note_on_c, 0, 51, 80
2, 411640, Note_off_c, 0, 60, 100
2, 411640, Note_off_c, 0, 51, 100
2, 411648, Note_on_c, 0, 62, 80
2, 411648, Note_on_c, 0, 53, 80
2, 412024, Note_off_c, 0, 62, 100
2, 412024, Note_off_c, 0, 53, 100
2, 412032, Note_on_c, 0, 58, 80
2, 412032, Note_on_c, 0, 50, 80
2, 412408, Note_off_c, 0, 58, 100
2, 412408, Note_off_c, 0, 50, 100
2, 412416, Note_on_c, 0, 60, 80
2, 412416, Note_on_c, 0, 51, 80
2, 412792, Note_off_c, 0, 60, 100
2, 412792, Note_off_c, 0, 51, 100
2, 412800, Note_on_c, 0, 55, 80
2, 412800, Note_on_c, 0, 51, 80
2, 413176, Note_off_c, 0, 55, 100
2, 413176, Note_off_c, 0, 51, 100
2, 413184, Note_on_c, 0, 57, 80
2, 413184, Note_on_c, 0, 51, 80
2, 413560, Note_off_c, 0, 57, 100
2, 413560, Note_off_c, 0, 51, 100
2, 413568, Note_on_c, 0, 53, 80
2, 413568, Note_on_c, 0, 51, 80
2, 413944, Note_off_c, 0, 53, 100
2, 413944, Note_off_c, 0, 51, 100
2, 413952, Note_on_c, 0, 58, 120
2, 414136, Note_off_c, 0, 58, 100
2, 414144, Note_on_c, 0, 62, 120
2, 414328, Note_off_c, 0, 62, 100
2, 414336, Note_on_c, 0, 58, 120
2, 414520, Note_off_c, 0, 58, 100
2, 414528, Note_on_c, 0, 62, 120
2, 414712, Note_off_c, 0, 62, 100
2, 414720, Note_on_c, 0, 58, 120
2, 414904, Note_off_c, 0, 58, 100
2, 414912, Note_on_c, 0, 62, 120
2, 415096, Note_off_c, 0, 62, 100
2, 415104, Note_on_c, 0, 58, 120
2, 415288, Note_off_c, 0, 58, 100
2, 415296, Note_on_c, 0, 62, 120
2, 415480, Note_off_c, 0, 62, 100
2, 415488, Note_on_c, 0, 58, 120
2, 415672, Note_off_c, 0, 58, 100
2, 415680, Note_on_c, 0, 62, 120
2, 415864, Note_off_c, 0, 62, 100
2, 415872, Note_on_c, 0, 58, 120
2, 416056, Note_off_c, 0, 58, 100
2, 416064, Note_on_c, 0, 62, 120
2, 416248, Note_off_c, 0, 62, 100
2, 416256, Note_on_c, 0, 58, 120
2, 416440, Note_off_c, 0, 58, 100
2, 416448, Note_on_c, 0, 62, 120
2, 416632, Note_off_c, 0, 62, 100
2, 416640, Note_on_c, 0, 58, 120
2, 416824, Note_off_c, 0, 58, 100
2, 416832, Note_on_c, 0, 62, 120
2, 417016, Note_off_c, 0, 62, 100
2, 417024, Note_on_c, 0, 58, 120
2, 417208, Note_off_c, 0, 58, 100
2, 417216, Note_on_c, 0, 62, 120
2, 417400, Note_off_c, 0, 62, 100
2, 417408, Note_on_c, 0, 58, 120
2, 417592, Note_off_c, 0, 58, 100
2, 417600, Note_on_c, 0, 62, 120
2, 417784, Note_off_c, 0, 62, 100
2, 417792, Note_on_c, 0, 58, 120
2, 417976, Note_off_c, 0, 58, 100
2, 417984, Note_on_c, 0, 62, 120
2, 418168, Note_off_c, 0, 62, 100
2, 418176, Note_on_c, 0, 58, 120
2, 418360, Note_off_c, 0, 58, 100
2, 418368, Note_on_c, 0, 62, 120
2, 418552, Note_off_c, 0, 62, 100
2, 418560, Note_on_c, 0, 58, 120
2, 418744, Note_off_c, 0, 58, 100
2, 418752, Note_on_c, 0, 62, 120
2, 418936, Note_off_c, 0, 62, 100
2, 418944, Note_on_c, 0, 58, 120
2, 419128, Note_off_c, 0, 58, 100
2, 419136, Note_on_c, 0, 62, 120
2, 419320, Note_off_c, 0, 62, 100
2, 419328, Note_on_c, 0, 58, 120
2, 419512, Note_off_c, 0, 58, 100
2, 419520, Note_on_c, 0, 62, 120
2, 419704, Note_off_c, 0, 62, 100
2, 419712, Note_on_c, 0, 58, 120
2, 419896, Note_off_c, 0, 58, 100
2, 419904, Note_on_c, 0, 62, 120
2, 420088, Note_off_c, 0, 62, 100
2, 420864, Note_on_c, 0, 77, 120
2, 420864, Note_on_c, 0, 65, 120
2, 421240, Note_off_c, 0, 77, 100
2, 421240, Note_off_c, 0, 65, 100
2, 422400, Note_on_c, 0, 78, 120
2, 422400, Note_on_c, 0, 66, 120
2, 422776, Note_off_c, 0, 78, 100
2, 422776, Note_off_c, 0, 66, 100
2, 423744, Note_on_c, 0, 72, 120
2, 423928, Note_off_c, 0, 72, 100
2, 423936, Note_on_c, 0, 84, 120
2, 424888, Note_off_c, 0, 84, 100
2, 424896, Note_on_c, 0, 82, 120
2, 425080, Note_off_c, 0, 82, 100
2, 425088, Note_on_c, 0, 81, 120
2, 425272, Note_off_c, 0, 81, 100
2, 425280, Note_on_c, 0, 79, 120
2, 425464, Note_off_c, 0, 79, 100
2, 425472, Note_on_c, 0, 78, 120
2, 425656, Note_off_c, 0, 78, 100
2, 425664, Note_on_c, 0, 75, 120
2, 425848, Note_off_c, 0, 75, 100
2, 425856, Note_on_c, 0, 74, 120
2, 426040, Note_off_c, 0, 74, 100
2, 426048, Note_on_c, 0, 72, 120
2, 426232, Note_off_c, 0, 72, 100
2, 426240, Note_on_c, 0, 70, 120
2, 426616, Note_off_c, 0, 70, 100
2, 426624, Note_on_c, 0, 58, 120
2, 426808, Note_off_c, 0, 58, 100
2, 426816, Note_on_c, 0, 62, 120
2, 427000, Note_off_c, 0, 62, 100
2, 427008, Note_on_c, 0, 58, 120
2, 427192, Note_off_c, 0, 58, 100
2, 427200, Note_on_c, 0, 62, 120
2, 427384, Note_off_c, 0, 62, 100
2, 427392, Note_on_c, 0, 58, 120
2, 427576, Note_off_c, 0, 58, 100
2, 427584, Note_on_c, 0, 62, 120
2, 427768, Note_off_c, 0, 62, 100
2, 427776, Note_on_c, 0, 58, 120
2, 427960, Note_off_c, 0, 58, 100
2, 427968, Note_on_c, 0, 62, 120
2, 428152, Note_off_c, 0, 62, 100
2, 428160, Note_on_c, 0, 58, 120
2, 428344, Note_off_c, 0, 58, 100
2, 428352, Note_on_c, 0, 62, 120
2, 428536, Note_off_c, 0, 62, 100
2, 428544, Note_on_c, 0, 58, 120
2, 428728, Note_off_c, 0, 58, 100
2, 428736, Note_on_c, 0, 62, 120
2, 428920, Note_off_c, 0, 62, 100
2, 428928, Note_on_c, 0, 58, 120
2, 429112, Note_off_c, 0, 58, 100
2, 429120, Note_on_c, 0, 62, 120
2, 429304, Note_off_c, 0, 62, 100
2, 429312, Note_on_c, 0, 58, 120
2, 429496, Note_off_c, 0, 58, 100
2, 429504, Note_on_c, 0, 62, 120
2, 429688, Note_off_c, 0, 62, 100
2, 429696, Note_on_c, 0, 58, 120
2, 429880, Note_off_c, 0, 58, 100
2, 429888, Note_on_c, 0, 62, 120
2, 430072, Note_off_c, 0, 62, 100
2, 430080, Note_on_c, 0, 58, 120
2, 430264, Note_off_c, 0, 58, 100
2, 430272, Note_on_c, 0, 62, 120
2, 430456, Note_off_c, 0, 62, 100
2, 430464, Note_on_c, 0, 58, 120
2, 430648, Note_off_c, 0, 58, 100
2, 430656, Note_on_c, 0, 62, 120
2, 430840, Note_off_c, 0, 62, 100
2, 430848, Note_on_c, 0, 58, 120
2, 431032, Note_off_c, 0, 58, 100
2, 431040, Note_on_c, 0, 62, 120
2, 431224, Note_off_c, 0, 62, 100
2, 431232, Note_on_c, 0, 58, 120
2, 431416, Note_off_c, 0, 58, 100
2, 431424, Note_on_c, 0, 62, 120
2, 431608, Note_off_c, 0, 62, 100
2, 431616, Note_on_c, 0, 58, 120
2, 431800, Note_off_c, 0, 58, 100
2, 431808, Note_on_c, 0, 62, 120
2, 431992, Note_off_c, 0, 62, 100
2, 432000, Note_on_c, 0, 58, 120
2, 432184, Note_off_c, 0, 58, 100
2, 432192, Note_on_c, 0, 62, 120
2, 432376, Note_off_c, 0, 62, 100
2, 433152, Note_on_c, 0, 67, 120
2, 433152, Note_on_c, 0, 79, 120
2, 433528, Note_off_c, 0, 67, 100
2, 433528, Note_off_c, 0, 79, 100
2, 434688, Note_on_c, 0, 68, 120
2, 434688, Note_on_c, 0, 80, 120
2, 435064, Note_off_c, 0, 68, 100
2, 435064, Note_off_c, 0, 80, 100
2, 436032, Note_on_c, 0, 77, 120
2, 436216, Note_off_c, 0, 77, 100
2, 436224, Note_on_c, 0, 89, 120
2, 437176, Note_off_c, 0, 89, 100
2, 437184, Note_on_c, 0, 87, 120
2, 437368, Note_off_c, 0, 87, 100
2, 437376, Note_on_c, 0, 86, 120
2, 437560, Note_off_c, 0, 86, 100
2, 437568, Note_on_c, 0, 84, 120
2, 437752, Note_off_c, 0, 84, 100
2, 437760, Note_on_c, 0, 82, 120
2, 437944, Note_off_c, 0, 82, 100
2, 437952, Note_on_c, 0, 80, 120
2, 438136, Note_off_c, 0, 80, 100
2, 438144, Note_on_c, 0, 79, 120
2, 438328, Note_off_c, 0, 79, 100
2, 438336, Note_on_c, 0, 77, 120
2, 438520, Note_off_c, 0, 77, 100
2, 438528, Note_on_c, 0, 79, 120
2, 438904, Note_off_c, 0, 79, 100
2, 438912, Note_on_c, 0, 58, 120
2, 439096, Note_off_c, 0, 58, 100
2, 439104, Note_on_c, 0, 67, 120
2, 439288, Note_off_c, 0, 67, 100
2, 439296, Note_on_c, 0, 58, 120
2, 439480, Note_off_c, 0, 58, 100
2, 439488, Note_on_c, 0, 67, 120
2, 439672, Note_off_c, 0, 67, 100
2, 439680, Note_on_c, 0, 58, 120
2, 439864, Note_off_c, 0, 58, 100
2, 439872, Note_on_c, 0, 67, 120
2, 440056, Note_off_c, 0, 67, 100
2, 440064, Note_on_c, 0, 58, 120
2, 440248, Note_off_c, 0, 58, 100
2, 440256, Note_on_c, 0, 67, 120
2, 440440, Note_off_c, 0, 67, 100
2, 440448, Note_on_c, 0, 58, 120
2, 440632, Note_off_c, 0, 58, 100
2, 440640, Note_on_c, 0, 67, 120
2, 440824, Note_off_c, 0, 67, 100
2, 440832, Note_on_c, 0, 58, 120
2, 441016, Note_off_c, 0, 58, 100
2, 441024, Note_on_c, 0, 67, 120
2, 441208, Note_off_c, 0, 67, 100
2, 441216, Note_on_c, 0, 58, 120
2, 441400, Note_off_c, 0, 58, 100
2, 441408, Note_on_c, 0, 67, 120
2, 441592, Note_off_c, 0, 67, 100
2, 441600, Note_on_c, 0, 58, 120
2, 441784, Note_off_c, 0, 58, 100
2, 441792, Note_on_c, 0, 67, 120
2, 441976, Note_off_c, 0, 67, 100
2, 441984, Note_on_c, 0, 58, 120
2, 442168, Note_off_c, 0, 58, 100
2, 442176, Note_on_c, 0, 67, 120
2, 442360, Note_off_c, 0, 67, 100
2, 442368, Note_on_c, 0, 58, 120
2, 442552, Note_off_c, 0, 58, 100
2, 442560, Note_on_c, 0, 67, 120
2, 442744, Note_off_c, 0, 67, 100
2, 442752, Note_on_c, 0, 58, 120
2, 442936, Note_off_c, 0, 58, 100
2, 442944, Note_on_c, 0, 67, 120
2, 443128, Note_off_c, 0, 67, 100
2, 443136, Note_on_c, 0, 58, 120
2, 443320, Note_off_c, 0, 58, 100
2, 443328, Note_on_c, 0, 67, 120
2, 443512, Note_off_c, 0, 67, 100
2, 443520, Note_on_c, 0, 58, 120
2, 443704, Note_off_c, 0, 58, 100
2, 443712, Note_on_c, 0, 67, 120
2, 443896, Note_off_c, 0, 67, 100
2, 443904, Note_on_c, 0, 58, 120
2, 444088, Note_off_c, 0, 58, 100
2, 444096, Note_on_c, 0, 67, 120
2, 444280, Note_off_c, 0, 67, 100
2, 444288, Note_on_c, 0, 58, 120
2, 444472, Note_off_c, 0, 58, 100
2, 444480, Note_on_c, 0, 67, 120
2, 444664, Note_off_c, 0, 67, 100
2, 444672, Note_on_c, 0, 57, 120
2, 444856, Note_off_c, 0, 57, 100
2, 444864, Note_on_c, 0, 64, 120
2, 445048, Note_off_c, 0, 64, 100
2, 445056, Note_on_c, 0, 67, 120
2, 445240, Note_off_c, 0, 67, 100
2, 445248, Note_on_c, 0, 64, 120
2, 445432, Note_off_c, 0, 64, 100
2, 445440, Note_on_c, 0, 57, 120
2, 445624, Note_off_c, 0, 57, 100
2, 445632, Note_on_c, 0, 64, 120
2, 445816, Note_off_c, 0, 64, 100
2, 445824, Note_on_c, 0, 67, 120
2, 446008, Note_off_c, 0, 67, 100
2, 446016, Note_on_c, 0, 64, 120
2, 446200, Note_off_c, 0, 64, 100
2, 446208, Note_on_c, 0, 57, 120
2, 446392, Note_off_c, 0, 57, 100
2, 446400, Note_on_c, 0, 64, 120
2, 446584, Note_off_c, 0, 64, 100
2, 446592, Note_on_c, 0, 67, 120
2, 446776, Note_off_c, 0, 67, 100
2, 446784, Note_on_c, 0, 64, 120
2, 446968, Note_off_c, 0, 64, 100
2, 446976, Note_on_c, 0, 57, 120
2, 447160, Note_off_c, 0, 57, 100
2, 447168, Note_on_c, 0, 64, 120
2, 447352, Note_off_c, 0, 64, 100
2, 447360, Note_on_c, 0, 67, 120
2, 447544, Note_off_c, 0, 67, 100
2, 447552, Note_on_c, 0, 64, 120
2, 447736, Note_off_c, 0, 64, 100
2, 447744, Note_on_c, 0, 57, 120
2, 447928, Note_off_c, 0, 57, 100
2, 447936, Note_on_c, 0, 62, 120
2, 448120, Note_off_c, 0, 62, 100
2, 448128, Note_on_c, 0, 65, 120
2, 448312, Note_off_c, 0, 65, 100
2, 448320, Note_on_c, 0, 62, 120
2, 448504, Note_off_c, 0, 62, 100
2, 448512, Note_on_c, 0, 57, 120
2, 448696, Note_off_c, 0, 57, 100
2, 448704, Note_on_c, 0, 62, 120
2, 448888, Note_off_c, 0, 62, 100
2, 448896, Note_on_c, 0, 65, 120
2, 449080, Note_off_c, 0, 65, 100
2, 449088, Note_on_c, 0, 62, 120
2, 449272, Note_off_c, 0, 62, 100
2, 449280, Note_on_c, 0, 57, 120
2, 449464, Note_off_c, 0, 57, 100
2, 449472, Note_on_c, 0, 62, 120
2, 449656, Note_off_c, 0, 62, 100
2, 449664, Note_on_c, 0, 65, 120
2, 449848, Note_off_c, 0, 65, 100
2, 449856, Note_on_c, 0, 62, 120
2, 450040, Note_off_c, 0, 62, 100
2, 450048, Note_on_c, 0, 57, 120
2, 450232, Note_off_c, 0, 57, 100
2, 450240, Note_on_c, 0, 62, 120
2, 450424, Note_off_c, 0, 62, 100
2, 450432, Note_on_c, 0, 65, 120
2, 450616, Note_off_c, 0, 65, 100
2, 450624, Note_on_c, 0, 62, 120
2, 450808, Note_off_c, 0, 62, 100
2, 450816, Note_on_c, 0, 56, 120
2, 451000, Note_off_c, 0, 56, 100
2, 451008, Note_on_c, 0, 62, 120
2, 451192, Note_off_c, 0, 62, 100
2, 451200, Note_on_c, 0, 68, 120
2, 451384, Note_off_c, 0, 68, 100
2, 451392, Note_on_c, 0, 62, 120
2, 451576, Note_off_c, 0, 62, 100
2, 451584, Note_on_c, 0, 56, 120
2, 451768, Note_off_c, 0, 56, 100
2, 451776, Note_on_c, 0, 62, 120
2, 451960, Note_off_c, 0, 62, 100
2, 451968, Note_on_c, 0, 68, 120
2, 452152, Note_off_c, 0, 68, 100
2, 452160, Note_on_c, 0, 62, 120
2, 452344, Note_off_c, 0, 62, 100
2, 452352, Note_on_c, 0, 56, 120
2, 452536, Note_off_c, 0, 56, 100
2, 452544, Note_on_c, 0, 62, 120
2, 452728, Note_off_c, 0, 62, 100
2, 452736, Note_on_c, 0, 68, 120
2, 452920, Note_off_c, 0, 68, 100
2, 452928, Note_on_c, 0, 62, 120
2, 453112, Note_off_c, 0, 62, 100
2, 453120, Note_on_c, 0, 56, 120
2, 453304, Note_off_c, 0, 56, 100
2, 453312, Note_on_c, 0, 62, 120
2, 453496, Note_off_c, 0, 62, 100
2, 453504, Note_on_c, 0, 68, 120
2, 453688, Note_off_c, 0, 68, 100
2, 453696, Note_on_c, 0, 62, 120
2, 453880, Note_off_c, 0, 62, 100
2, 453888, Note_on_c, 0, 57, 120
2, 454072, Note_off_c, 0, 57, 100
2, 454080, Note_on_c, 0, 61, 120
2, 454264, Note_off_c, 0, 61, 100
2, 454272, Note_on_c, 0, 69, 120
2, 454456, Note_off_c, 0, 69, 100
2, 454464, Note_on_c, 0, 61, 120
2, 454648, Note_off_c, 0, 61, 100
2, 454656, Note_on_c, 0, 57, 120
2, 454840, Note_off_c, 0, 57, 100
2, 454848, Note_on_c, 0, 61, 120
2, 455032, Note_off_c, 0, 61, 100
2, 455040, Note_on_c, 0, 64, 120
2, 455224, Note_off_c, 0, 64, 100
2, 455232, Note_on_c, 0, 61, 120
2, 455416, Note_off_c, 0, 61, 100
2, 455424, Note_on_c, 0, 57, 120
2, 455608, Note_off_c, 0, 57, 100
2, 455616, Note_on_c, 0, 61, 120
2, 455800, Note_off_c, 0, 61, 100
2, 455808, Note_on_c, 0, 64, 120
2, 455992, Note_off_c, 0, 64, 100
2, 456000, Note_on_c, 0, 61, 120
2, 456184, Note_off_c, 0, 61, 100
2, 456192, Note_on_c, 0, 57, 120
2, 456376, Note_off_c, 0, 57, 100
2, 456384, Note_on_c, 0, 61, 120
2, 456568, Note_off_c, 0, 61, 100
2, 456576, Note_on_c, 0, 64, 120
2, 456760, Note_off_c, 0, 64, 100
2, 456768, Note_on_c, 0, 61, 120
2, 456952, Note_off_c, 0, 61, 100
2, 456960, Note_on_c, 0, 57, 120
2, 457144, Note_off_c, 0, 57, 100
2, 457152, Note_on_c, 0, 62, 120
2, 457336, Note_off_c, 0, 62, 100
2, 457344, Note_on_c, 0, 65, 120
2, 457528, Note_off_c, 0, 65, 100
2, 457536, Note_on_c, 0, 62, 120
2, 457720, Note_off_c, 0, 62, 100
2, 457728, Note_on_c, 0, 57, 120
2, 457912, Note_off_c, 0, 57, 100
2, 457920, Note_on_c, 0, 62, 120
2, 458104, Note_off_c, 0, 62, 100
2, 458112, Note_on_c, 0, 65, 120
2, 458296, Note_off_c, 0, 65, 100
2, 458304, Note_on_c, 0, 62, 120
2, 458488, Note_off_c, 0, 62, 100
2, 458496, Note_on_c, 0, 57, 120
2, 458680, Note_off_c, 0, 57, 100
2, 458688, Note_on_c, 0, 62, 120
2, 458872, Note_off_c, 0, 62, 100
2, 458880, Note_on_c, 0, 65, 120
2, 459064, Note_off_c, 0, 65, 100
2, 459072, Note_on_c, 0, 62, 120
2, 459256, Note_off_c, 0, 62, 100
2, 459264, Note_on_c, 0, 57, 120
2, 459448, Note_off_c, 0, 57, 100
2, 459456, Note_on_c, 0, 62, 120
2, 459640, Note_off_c, 0, 62, 100
2, 459648, Note_on_c, 0, 65, 120
2, 459832, Note_off_c, 0, 65, 100
2, 459840, Note_on_c, 0, 62, 120
2, 460024, Note_off_c, 0, 62, 100
2, 460032, Note_on_c, 0, 57, 120
2, 460216, Note_off_c, 0, 57, 100
2, 460224, Note_on_c, 0, 61, 120
2, 460408, Note_off_c, 0, 61, 100
2, 460416, Note_on_c, 0, 64, 110
2, 460600, Note_off_c, 0, 64, 100
2, 460608, Note_on_c, 0, 61, 110
2, 460792, Note_off_c, 0, 61, 100
2, 460800, Note_on_c, 0, 57, 110
2, 460984, Note_off_c, 0, 57, 100
2, 460992, Note_on_c, 0, 61, 110
2, 461176, Note_off_c, 0, 61, 100
2, 461184, Note_on_c, 0, 64, 110
2, 461368, Note_off_c, 0, 64, 100
2, 461376, Note_on_c, 0, 61, 110
2, 461560, Note_off_c, 0, 61, 100
2, 461568, Note_on_c, 0, 57, 110
2, 461752, Note_off_c, 0, 57, 100
2, 461760, Note_on_c, 0, 61, 110
2, 461944, Note_off_c, 0, 61, 100
2, 461952, Note_on_c, 0, 64, 110
2, 462136, Note_off_c, 0, 64, 100
2, 462144, Note_on_c, 0, 61, 110
2, 462328, Note_off_c, 0, 61, 100
2, 462336, Note_on_c, 0, 57, 110
2, 462520, Note_off_c, 0, 57, 100
2, 462528, Note_on_c, 0, 61, 110
2, 462712, Note_off_c, 0, 61, 100
2, 462720, Note_on_c, 0, 64, 110
2, 462904, Note_off_c, 0, 64, 100
2, 462912, Note_on_c, 0, 61, 110
2, 463096, Note_off_c, 0, 61, 100
2, 463104, Note_on_c, 0, 57, 110
2, 463288, Note_off_c, 0, 57, 100
2, 463296, Note_on_c, 0, 62, 110
2, 463480, Note_off_c, 0, 62, 100
2, 463488, Note_on_c, 0, 65, 110
2, 463672, Note_off_c, 0, 65, 100
2, 463680, Note_on_c, 0, 62, 110
2, 463864, Note_off_c, 0, 62, 100
2, 463872, Note_on_c, 0, 57, 110
2, 464056, Note_off_c, 0, 57, 100
2, 464064, Note_on_c, 0, 62, 110
2, 464248, Note_off_c, 0, 62, 100
2, 464256, Note_on_c, 0, 65, 110
2, 464440, Note_off_c, 0, 65, 100
2, 464448, Note_on_c, 0, 62, 110
2, 464632, Note_off_c, 0, 62, 100
2, 464640, Note_on_c, 0, 57, 110
2, 464824, Note_off_c, 0, 57, 100
2, 464832, Note_on_c, 0, 62, 110
2, 465016, Note_off_c, 0, 62, 100
2, 465024, Note_on_c, 0, 65, 110
2, 465208, Note_off_c, 0, 65, 100
2, 465216, Note_on_c, 0, 62, 110
2, 465400, Note_off_c, 0, 62, 100
2, 465408, Note_on_c, 0, 57, 110
2, 465592, Note_off_c, 0, 57, 100
2, 465600, Note_on_c, 0, 62, 110
2, 465784, Note_off_c, 0, 62, 100
2, 465792, Note_on_c, 0, 65, 110
2, 465976, Note_off_c, 0, 65, 100
2, 465984, Note_on_c, 0, 62, 110
2, 466168, Note_off_c, 0, 62, 100
2, 466176, Note_on_c, 0, 57, 110
2, 466360, Note_off_c, 0, 57, 100
2, 466368, Note_on_c, 0, 61, 110
2, 466552, Note_off_c, 0, 61, 100
2, 466560, Note_on_c, 0, 64, 110
2, 466744, Note_off_c, 0, 64, 100
2, 466752, Note_on_c, 0, 61, 110
2, 466936, Note_off_c, 0, 61, 100
2, 466944, Note_on_c, 0, 57, 110
2, 467128, Note_off_c, 0, 57, 100
2, 467136, Note_on_c, 0, 61, 110
2, 467320, Note_off_c, 0, 61, 100
2, 467328, Note_on_c, 0, 64, 110
2, 467512, Note_off_c, 0, 64, 100
2, 467520, Note_on_c, 0, 61, 110
2, 467704, Note_off_c, 0, 61, 100
2, 467712, Note_on_c, 0, 57, 110
2, 467896, Note_off_c, 0, 57, 100
2, 467904, Note_on_c, 0, 61, 110
2, 468088, Note_off_c, 0, 61, 100
2, 468096, Note_on_c, 0, 64, 110
2, 468280, Note_off_c, 0, 64, 100
2, 468288, Note_on_c, 0, 61, 110
2, 468472, Note_off_c, 0, 61, 100
2, 468480, Note_on_c, 0, 57, 110
2, 468664, Note_off_c, 0, 57, 100
2, 468672, Note_on_c, 0, 61, 110
2, 468856, Note_off_c, 0, 61, 100
2, 468864, Note_on_c, 0, 64, 110
2, 469048, Note_off_c, 0, 64, 100
2, 469056, Note_on_c, 0, 61, 110
2, 469240, Note_off_c, 0, 61, 100
2, 469248, Note_on_c, 0, 59, 110
2, 469432, Note_off_c, 0, 59, 100
2, 469440, Note_on_c, 0, 62, 110
2, 469624, Note_off_c, 0, 62, 100
2, 469632, Note_on_c, 0, 67, 110
2, 469816, Note_off_c, 0, 67, 100
2, 469824, Note_on_c, 0, 62, 110
2, 470008, Note_off_c, 0, 62, 100
2, 470016, Note_on_c, 0, 59, 110
2, 470200, Note_off_c, 0, 59, 100
2, 470208, Note_on_c, 0, 62, 110
2, 470392, Note_off_c, 0, 62, 100
2, 470400, Note_on_c, 0, 67, 110
2, 470584, Note_off_c, 0, 67, 100
2, 470592, Note_on_c, 0, 62, 110
2, 470776, Note_off_c, 0, 62, 100
2, 470784, Note_on_c, 0, 59, 110
2, 470968, Note_off_c, 0, 59, 100
2, 470976, Note_on_c, 0, 62, 110
2, 471160, Note_off_c, 0, 62, 100
2, 471168, Note_on_c, 0, 67, 110
2, 471352, Note_off_c, 0, 67, 100
2, 471360, Note_on_c, 0, 62, 110
2, 471544, Note_off_c, 0, 62, 100
2, 471552, Note_on_c, 0, 59, 110
2, 471736, Note_off_c, 0, 59, 100
2, 471744, Note_on_c, 0, 62, 110
2, 471928, Note_off_c, 0, 62, 100
2, 471936, Note_on_c, 0, 67, 110
2, 472120, Note_off_c, 0, 67, 100
2, 472128, Note_on_c, 0, 62, 110
2, 472312, Note_off_c, 0, 62, 100
2, 472320, Note_on_c, 0, 57, 110
2, 472504, Note_off_c, 0, 57, 100
2, 472512, Note_on_c, 0, 64, 110
2, 472696, Note_off_c, 0, 64, 100
2, 472704, Note_on_c, 0, 67, 111
2, 472888, Note_off_c, 0, 67, 100
2, 472896, Note_on_c, 0, 64, 111
2, 473080, Note_off_c, 0, 64, 100
2, 473088, Note_on_c, 0, 57, 112
2, 473272, Note_off_c, 0, 57, 100
2, 473280, Note_on_c, 0, 64, 113
2, 473464, Note_off_c, 0, 64, 100
2, 473472, Note_on_c, 0, 67, 113
2, 473656, Note_off_c, 0, 67, 100
2, 473664, Note_on_c, 0, 64, 114
2, 473848, Note_off_c, 0, 64, 100
2, 473856, Note_on_c, 0, 57, 115
2, 474040, Note_off_c, 0, 57, 100
2, 474048, Note_on_c, 0, 64, 115
2, 474232, Note_off_c, 0, 64, 100
2, 474240, Note_on_c, 0, 67, 116
2, 474424, Note_off_c, 0, 67, 100
2, 474432, Note_on_c, 0, 64, 116
2, 474616, Note_off_c, 0, 64, 100
2, 474624, Note_on_c, 0, 57, 117
2, 474808, Note_off_c, 0, 57, 100
2, 474816, Note_on_c, 0, 64, 118
2, 475000, Note_off_c, 0, 64, 100
2, 475008, Note_on_c, 0, 67, 118
2, 475192, Note_off_c, 0, 67, 100
2, 475200, Note_on_c, 0, 64, 119
2, 475384, Note_off_c, 0, 64, 100
2, 475392, Note_on_c, 0, 57, 120
2, 475576, Note_off_c, 0, 57, 100
2, 475584, Note_on_c, 0, 64, 120
2, 475768, Note_off_c, 0, 64, 100
2, 475776, Note_on_c, 0, 67, 120
2, 475960, Note_off_c, 0, 67, 100
2, 475968, Note_on_c, 0, 64, 120
2, 476152, Note_off_c, 0, 64, 100
2, 476160, Note_on_c, 0, 57, 120
2, 476344, Note_off_c, 0, 57, 100
2, 476352, Note_on_c, 0, 64, 120
2, 476536, Note_off_c, 0, 64, 100
2, 476544, Note_on_c, 0, 67, 120
2, 476728, Note_off_c, 0, 67, 100
2, 476736, Note_on_c, 0, 64, 120
2, 476920, Note_off_c, 0, 64, 100
2, 476928, Note_on_c, 0, 57, 120
2, 477112, Note_off_c, 0, 57, 100
2, 477120, Note_on_c, 0, 64, 120
2, 477304, Note_off_c, 0, 64, 100
2, 477312, Note_on_c, 0, 67, 120
2, 477496, Note_off_c, 0, 67, 100
2, 477504, Note_on_c, 0, 64, 120
2, 477688, Note_off_c, 0, 64, 100
2, 477696, Note_on_c, 0, 57, 120
2, 477880, Note_off_c, 0, 57, 100
2, 477888, Note_on_c, 0, 64, 120
2, 478072, Note_off_c, 0, 64, 100
2, 478080, Note_on_c, 0, 67, 120
2, 478264, Note_off_c, 0, 67, 100
2, 478272, Note_on_c, 0, 64, 120
2, 478456, Note_off_c, 0, 64, 100
2, 478464, Note_on_c, 0, 67, 120
2, 478464, Note_on_c, 0, 57, 120
2, 478464, Note_on_c, 0, 64, 120
2, 482680, Note_off_c, 0, 57, 100
2, 482680, Note_off_c, 0, 64, 100
2, 482680, Note_off_c, 0, 67, 100
2, 482688, Note_on_c, 0, 62, 80
2, 482688, Note_on_c, 0, 50, 80
2, 483064, Note_off_c, 0, 62, 100
2, 483064, Note_off_c, 0, 50, 100
2, 483072, Key_signature, 2, "major"
2, 483072, Note_on_c, 0, 61, 80
2, 483448, Note_off_c, 0, 61, 100
2, 483456, Note_on_c, 0, 59, 80
2, 483832, Note_off_c, 0, 59, 100
2, 483840, Note_on_c, 0, 57, 80
2, 484216, Note_off_c, 0, 57, 100
2, 484224, Note_on_c, 0, 61, 80
2, 484600, Note_off_c, 0, 61, 100
2, 484608, Note_on_c, 0, 62, 80
2, 484984, Note_off_c, 0, 62, 100
2, 484992, Note_on_c, 0, 66, 80
2, 485368, Note_off_c, 0, 66, 100
2, 485376, Note_on_c, 0, 69, 80
2, 485376, Note_on_c, 0, 57, 80
2, 485752, Note_off_c, 0, 69, 100
2, 485752, Note_off_c, 0, 57, 100
2, 485760, Note_on_c, 0, 73, 80
2, 485760, Note_on_c, 0, 61, 80
2, 486136, Note_off_c, 0, 73, 100
2, 486136, Note_off_c, 0, 61, 100
2, 486144, Note_on_c, 0, 74, 80
2, 486144, Note_on_c, 0, 62, 80
2, 486520, Note_off_c, 0, 74, 100
2, 486520, Note_off_c, 0, 62, 100
2, 486528, Note_on_c, 0, 76, 80
2, 486528, Note_on_c, 0, 64, 80
2, 486904, Note_off_c, 0, 76, 100
2, 486904, Note_off_c, 0, 64, 100
2, 486912, Note_on_c, 0, 78, 80
2, 486912, Note_on_c, 0, 66, 80
2, 487288, Note_off_c, 0, 78, 100
2, 487288, Note_off_c, 0, 66, 100
2, 487296, Note_on_c, 0, 79, 80
2, 487296, Note_on_c, 0, 67, 80
2, 487672, Note_off_c, 0, 79, 100
2, 487672, Note_off_c, 0, 67, 100
2, 487680, Note_on_c, 0, 81, 110
2, 487680, Note_on_c, 0, 69, 110
2, 490360, Note_off_c, 0, 69, 100
2, 490360, Note_off_c, 0, 81, 100
2, 490368, Note_on_c, 0, 74, 80
2, 490744, Note_off_c, 0, 74, 100
2, 490752, Note_on_c, 0, 73, 80
2, 491128, Note_off_c, 0, 73, 100
2, 491136, Note_on_c, 0, 71, 80
2, 491512, Note_off_c, 0, 71, 100
2, 491520, Note_on_c, 0, 69, 80
2, 491896, Note_off_c, 0, 69, 100
2, 491904, Note_on_c, 0, 71, 80
2, 491904, Note_on_c, 0, 81, 96
2, 492280, Note_off_c, 0, 71, 100
2, 492280, Note_off_c, 0, 81, 100
2, 492288, Note_on_c, 0, 81, 95
2, 492288, Note_on_c, 0, 69, 80
2, 492664, Note_off_c, 0, 69, 100
2, 492672, Note_on_c, 0, 67, 80
2, 493048, Note_off_c, 0, 67, 100
2, 493056, Note_on_c, 0, 66, 80
2, 493432, Note_off_c, 0, 81, 100
2, 493432, Note_off_c, 0, 66, 100
2, 493440, Note_on_c, 0, 67, 80
2, 493816, Note_off_c, 0, 67, 100
2, 493824, Note_on_c, 0, 66, 80
2, 494200, Note_off_c, 0, 66, 100
2, 494208, Note_on_c, 0, 64, 80
2, 494584, Note_off_c, 0, 64, 100
2, 494592, Note_on_c, 0, 62, 80
2, 494968, Note_off_c, 0, 62, 100
2, 494976, Note_on_c, 0, 64, 80
2, 494976, Note_on_c, 0, 74, 80
2, 495352, Note_off_c, 0, 64, 100
2, 495352, Note_off_c, 0, 74, 100
2, 495360, Note_on_c, 0, 74, 80
2, 495360, Note_on_c, 0, 62, 80
2, 495736, Note_off_c, 0, 74, 100
2, 495736, Note_off_c, 0, 62, 100
2, 495744, Note_on_c, 0, 73, 80
2, 495744, Note_on_c, 0, 61, 80
2, 496120, Note_off_c, 0, 73, 100
2, 496120, Note_off_c, 0, 61, 100
2, 496128, Note_on_c, 0, 74, 80
2, 496128, Note_on_c, 0, 62, 80
2, 496504, Note_off_c, 0, 74, 100
2, 496504, Note_off_c, 0, 62, 100
2, 496512, Note_on_c, 0, 75, 80
2, 496512, Note_on_c, 0, 63, 80
2, 497272, Note_off_c, 0, 63, 100
2, 497272, Note_off_c, 0, 75, 100
2, 497280, Note_on_c, 0, 76, 80
2, 497280, Note_on_c, 0, 64, 80
2, 497656, Note_off_c, 0, 76, 100
2, 497656, Note_off_c, 0, 64, 100
2, 497664, Note_on_c, 0, 73, 80
2, 497664, Note_on_c, 0, 67, 80
2, 498040, Note_off_c, 0, 73, 100
2, 498040, Note_off_c, 0, 67, 100
2, 498048, Note_on_c, 0, 69, 80
2, 498424, Note_off_c, 0, 69, 100
2, 498432, Note_on_c, 0, 74, 80
2, 498432, Note_on_c, 0, 66, 80
2, 498808, Note_off_c, 0, 74, 100
2, 498808, Note_off_c, 0, 66, 100
2, 499584, Note_on_c, 0, 78, 80
2, 499768, Note_off_c, 0, 78, 100
2, 499776, Note_on_c, 0, 86, 81
2, 499960, Note_off_c, 0, 86, 100
2, 499968, Note_on_c, 0, 76, 83
2, 500152, Note_off_c, 0, 76, 100
2, 500160, Note_on_c, 0, 85, 85
2, 500344, Note_off_c, 0, 85, 100
2, 500352, Note_on_c, 0, 74, 87
2, 500536, Note_off_c, 0, 74, 100
2, 500544, Note_on_c, 0, 83, 88
2, 500728, Note_off_c, 0, 83, 100
2, 500736, Note_on_c, 0, 73, 90
2, 500920, Note_off_c, 0, 73, 100
2, 500928, Note_on_c, 0, 81, 92
2, 501112, Note_off_c, 0, 81, 100
2, 501120, Note_on_c, 0, 74, 94
2, 501304, Note_off_c, 0, 74, 100
2, 501312, Note_on_c, 0, 83, 95
2, 501496, Note_off_c, 0, 83, 100
2, 501504, Note_on_c, 0, 73, 97
2, 501688, Note_off_c, 0, 73, 100
2, 501696, Note_on_c, 0, 81, 99
2, 501880, Note_off_c, 0, 81, 100
2, 501888, Note_on_c, 0, 71, 101
2, 502072, Note_off_c, 0, 71, 100
2, 502080, Note_on_c, 0, 79, 102
2, 502264, Note_off_c, 0, 79, 100
2, 502272, Note_on_c, 0, 69, 104
2, 502456, Note_off_c, 0, 69, 100
2, 502464, Note_on_c, 0, 78, 106
2, 502648, Note_off_c, 0, 78, 100
2, 502656, Note_on_c, 0, 71, 108
2, 502840, Note_off_c, 0, 71, 100
2, 502848, Note_on_c, 0, 79, 109
2, 503032, Note_off_c, 0, 79, 100
2, 503040, Note_on_c, 0, 69, 110
2, 503224, Note_off_c, 0, 69, 100
2, 503232, Note_on_c, 0, 78, 110
2, 503416, Note_off_c, 0, 78, 100
2, 503424, Note_on_c, 0, 67, 110
2, 503608, Note_off_c, 0, 67, 100
2, 503616, Note_on_c, 0, 76, 110
2, 503800, Note_off_c, 0, 76, 100
2, 503808, Note_on_c, 0, 66, 110
2, 503992, Note_off_c, 0, 66, 100
2, 504000, Note_on_c, 0, 75, 110
2, 504184, Note_off_c, 0, 75, 100
2, 504192, Note_on_c, 0, 67, 110
2, 504376, Note_off_c, 0, 67, 100
2, 504384, Note_on_c, 0, 76, 110
2, 504568, Note_off_c, 0, 76, 100
2, 504576, Note_on_c, 0, 67, 110
2, 504760, Note_off_c, 0, 67, 100
2, 504768, Note_on_c, 0, 76, 110
2, 504952, Note_off_c, 0, 76, 100
2, 504960, Note_on_c, 0, 66, 110
2, 505144, Note_off_c, 0, 66, 100
2, 505152, Note_on_c, 0, 75, 110
2, 505336, Note_off_c, 0, 75, 100
2, 505344, Note_on_c, 0, 67, 110
2, 505528, Note_off_c, 0, 67, 100
2, 505536, Note_on_c, 0, 76, 110
2, 505720, Note_off_c, 0, 76, 100
2, 505728, Note_on_c, 0, 79, 110
2, 505912, Note_off_c, 0, 79, 100
2, 505920, Note_on_c, 0, 88, 110
2, 506104, Note_off_c, 0, 88, 100
2, 506112, Note_on_c, 0, 79, 110
2, 506296, Note_off_c, 0, 79, 100
2, 506304, Note_on_c, 0, 88, 110
2, 506488, Note_off_c, 0, 88, 100
2, 506496, Note_on_c, 0, 78, 110
2, 506680, Note_off_c, 0, 78, 100
2, 506688, Note_on_c, 0, 87, 110
2, 506872, Note_off_c, 0, 87, 100
2, 506880, Note_on_c, 0, 79, 110
2, 507064, Note_off_c, 0, 79, 100
2, 507072, Note_on_c, 0, 88, 110
2, 507256, Note_off_c, 0, 88, 100
2, 507264, Note_on_c, 0, 79, 110
2, 507448, Note_off_c, 0, 79, 100
2, 507456, Note_on_c, 0, 88, 110
2, 507640, Note_off_c, 0, 88, 100
2, 507648, Note_on_c, 0, 79, 110
2, 507832, Note_off_c, 0, 79, 100
2, 507840, Note_on_c, 0, 88, 110
2, 508024, Note_off_c, 0, 88, 100
2, 508032, Note_on_c, 0, 78, 110
2, 508216, Note_off_c, 0, 78, 100
2, 508224, Note_on_c, 0, 88, 110
2, 508408, Note_off_c, 0, 88, 100
2, 508416, Note_on_c, 0, 76, 110
2, 508600, Note_off_c, 0, 76, 100
2, 508608, Note_on_c, 0, 88, 110
2, 508792, Note_off_c, 0, 88, 100
2, 508800, Note_on_c, 0, 75, 110
2, 508984, Note_off_c, 0, 75, 100
2, 508992, Note_on_c, 0, 87, 110
2, 509176, Note_off_c, 0, 87, 100
2, 509184, Note_on_c, 0, 76, 110
2, 509368, Note_off_c, 0, 76, 100
2, 509376, Note_on_c, 0, 88, 110
2, 509560, Note_off_c, 0, 88, 100
2, 509568, Note_on_c, 0, 75, 110
2, 509752, Note_off_c, 0, 75, 100
2, 509760, Note_on_c, 0, 87, 110
2, 509944, Note_off_c, 0, 87, 100
2, 509952, Note_on_c, 0, 76, 110
2, 510136, Note_off_c, 0, 76, 100
2, 510144, Note_on_c, 0, 88, 110
2, 510328, Note_off_c, 0, 88, 100
2, 510336, Note_on_c, 0, 70, 110
2, 510520, Note_off_c, 0, 70, 100
2, 510528, Note_on_c, 0, 82, 110
2, 510712, Note_off_c, 0, 82, 100
2, 510720, Note_on_c, 0, 71, 110
2, 510904, Note_off_c, 0, 71, 100
2, 510912, Note_on_c, 0, 75, 110
2, 511096, Note_off_c, 0, 75, 100
2, 511104, Note_on_c, 0, 78, 110
2, 511288, Note_off_c, 0, 78, 100
2, 511296, Note_on_c, 0, 83, 110
2, 511480, Note_off_c, 0, 83, 100
2, 511488, Note_on_c, 0, 81, 110
2, 511672, Note_off_c, 0, 81, 100
2, 511680, Note_on_c, 0, 79, 110
2, 511864, Note_off_c, 0, 79, 100
2, 511872, Note_on_c, 0, 78, 110
2, 512056, Note_off_c, 0, 78, 100
2, 512064, Note_on_c, 0, 76, 110
2, 512248, Note_off_c, 0, 76, 100
2, 512256, Note_on_c, 0, 75, 110
2, 512440, Note_off_c, 0, 75, 100
2, 512448, Note_on_c, 0, 78, 110
2, 512632, Note_off_c, 0, 78, 100
2, 512640, Note_on_c, 0, 82, 110
2, 512824, Note_off_c, 0, 82, 100
2, 512832, Note_on_c, 0, 83, 110
2, 513016, Note_off_c, 0, 83, 100
2, 513024, Note_on_c, 0, 81, 110
2, 513208, Note_off_c, 0, 81, 100
2, 513216, Note_on_c, 0, 79, 110
2, 513400, Note_off_c, 0, 79, 100
2, 513408, Note_on_c, 0, 78, 110
2, 513592, Note_off_c, 0, 78, 100
2, 513600, Note_on_c, 0, 76, 110
2, 513784, Note_off_c, 0, 76, 100
2, 513792, Note_on_c, 0, 83, 110
2, 513976, Note_off_c, 0, 83, 100
2, 513984, Note_on_c, 0, 78, 110
2, 514168, Note_off_c, 0, 78, 100
2, 514176, Note_on_c, 0, 75, 110
2, 514360, Note_off_c, 0, 75, 100
2, 514368, Note_on_c, 0, 71, 110
2, 514552, Note_off_c, 0, 71, 100
2, 514560, Note_on_c, 0, 66, 110
2, 514744, Note_off_c, 0, 66, 100
2, 514752, Note_on_c, 0, 63, 110
2, 514936, Note_off_c, 0, 63, 100
2, 516480, Note_on_c, 0, 71, 80
2, 516856, Note_off_c, 0, 71, 100
2, 516864, Note_on_c, 0, 79, 80
2, 517624, Note_off_c, 0, 79, 100
2, 517632, Note_on_c, 0, 83, 80
2, 518392, Note_off_c, 0, 83, 100
2, 518400, Note_on_c, 0, 79, 80
2, 519160, Note_off_c, 0, 79, 100
2, 519168, Note_on_c, 0, 81, 80
2, 519352, Note_off_c, 0, 81, 100
2, 519360, Note_on_c, 0, 79, 80
2, 519544, Note_off_c, 0, 79, 100
2, 519552, Note_on_c, 0, 78, 80
2, 519736, Note_off_c, 0, 78, 100
2, 519744, Note_on_c, 0, 76, 80
2, 519928, Note_off_c, 0, 76, 100
2, 519936, Note_on_c, 0, 75, 80
2, 520312, Note_off_c, 0, 75, 100
2, 520320, Note_on_c, 0, 75, 80
2, 520696, Note_off_c, 0, 75, 100
2, 520704, Note_on_c, 0, 78, 80
2, 520888, Note_off_c, 0, 78, 100
2, 520896, Note_on_c, 0, 76, 80
2, 521080, Note_off_c, 0, 76, 100
2, 521088, Note_on_c, 0, 75, 80
2, 521272, Note_off_c, 0, 75, 100
2, 521280, Note_on_c, 0, 76, 80
2, 521464, Note_off_c, 0, 76, 100
2, 521472, Note_on_c, 0, 78, 80
2, 522232, Note_off_c, 0, 78, 100
2, 522240, Note_on_c, 0, 71, 80
2, 522616, Note_off_c, 0, 71, 100
2, 522624, Note_on_c, 0, 71, 80
2, 523000, Note_off_c, 0, 71, 100
2, 523008, Note_on_c, 0, 71, 80
2, 523008, Note_on_c, 0, 79, 80
2, 523384, Note_off_c, 0, 71, 100
2, 523392, Note_on_c, 0, 71, 80
2, 523768, Note_off_c, 0, 79, 100
2, 523768, Note_off_c, 0, 71, 100
2, 523776, Note_on_c, 0, 71, 80
2, 523776, Note_on_c, 0, 83, 80
2, 524152, Note_off_c, 0, 71, 100
2, 524160, Note_on_c, 0, 71, 80
2, 524536, Note_off_c, 0, 83, 100
2, 524536, Note_off_c, 0, 71, 100
2, 524544, Note_on_c, 0, 71, 80
2, 524544, Note_on_c, 0, 79, 80
2, 524920, Note_off_c, 0, 71, 100
2, 524928, Note_on_c, 0, 71, 80
2, 525304, Note_off_c, 0, 79, 100
2, 525304, Note_off_c, 0, 71, 100
2, 525312, Note_on_c, 0, 71, 80
2, 525312, Note_on_c, 0, 81, 80
2, 525496, Note_off_c, 0, 81, 100
2, 525504, Note_on_c, 0, 79, 80
2, 525688, Note_off_c, 0, 71, 100
2, 525688, Note_off_c, 0, 79, 100
2, 525696, Note_on_c, 0, 71, 80
2, 525696, Note_on_c, 0, 78, 80
2, 525880, Note_off_c, 0, 78, 100
2, 525888, Note_on_c, 0, 76, 80
2, 526072, Note_off_c, 0, 71, 100
2, 526072, Note_off_c, 0, 76, 100
2, 526080, Note_on_c, 0, 74, 80
2, 526456, Note_off_c, 0, 74, 100
2, 526464, Note_on_c, 0, 74, 80
2, 526840, Note_off_c, 0, 74, 100
2, 526848, Note_on_c, 0, 74, 80
2, 527032, Note_off_c, 0, 74, 100
2, 527040, Note_on_c, 0, 73, 80
2, 527224, Note_off_c, 0, 73, 100
2, 527232, Note_on_c, 0, 71, 80
2, 527416, Note_off_c, 0, 71, 100
2, 527424, Note_on_c, 0, 73, 80
2, 527608, Note_off_c, 0, 73, 100
2, 527616, Note_on_c, 0, 71, 80
2, 527992, Note_off_c, 0, 71, 100
2, 528768, Note_on_c, 0, 66, 80
2, 529144, Note_off_c, 0, 66, 100
2, 529152, Note_on_c, 0, 73, 80
2, 529336, Note_off_c, 0, 73, 100
2, 529344, Note_on_c, 0, 66, 80
2, 529528, Note_off_c, 0, 66, 100
2, 529536, Note_on_c, 0, 70, 80
2, 529720, Note_off_c, 0, 70, 100
2, 529728, Note_on_c, 0, 73, 80
2, 529912, Note_off_c, 0, 73, 100
2, 529920, Note_on_c, 0, 74, 80
2, 530104, Note_off_c, 0, 74, 100
2, 530112, Note_on_c, 0, 66, 80
2, 530296, Note_off_c, 0, 66, 100
2, 530304, Note_on_c, 0, 71, 80
2, 530488, Note_off_c, 0, 71, 100
2, 530496, Note_on_c, 0, 74, 80
2, 530680, Note_off_c, 0, 74, 100
2, 530688, Note_on_c, 0, 76, 80
2, 530872, Note_off_c, 0, 76, 100
2, 530880, Note_on_c, 0, 66, 80
2, 531064, Note_off_c, 0, 66, 100
2, 531072, Note_on_c, 0, 70, 80
2, 531256, Note_off_c, 0, 70, 100
2, 531264, Note_on_c, 0, 73, 80
2, 531448, Note_off_c, 0, 73, 100
2, 531456, Note_on_c, 0, 78, 80
2, 531640, Note_off_c, 0, 78, 100
2, 531648, Note_on_c, 0, 76, 80
2, 531832, Note_off_c, 0, 76, 100
2, 531840, Note_on_c, 0, 74, 80
2, 532024, Note_off_c, 0, 74, 100
2, 532032, Note_on_c, 0, 73, 80
2, 532216, Note_off_c, 0, 73, 100
2, 532224, Note_on_c, 0, 74, 80
2, 532408, Note_off_c, 0, 74, 100
2, 532416, Note_on_c, 0, 71, 80
2, 532600, Note_off_c, 0, 71, 100
2, 532608, Note_on_c, 0, 70, 80
2, 532792, Note_off_c, 0, 70, 100
2, 532800, Note_on_c, 0, 71, 80
2, 532984, Note_off_c, 0, 71, 100
2, 532992, Note_on_c, 0, 76, 80
2, 533176, Note_off_c, 0, 76, 100
2, 533184, Note_on_c, 0, 71, 80
2, 533368, Note_off_c, 0, 71, 100
2, 533376, Note_on_c, 0, 70, 80
2, 533560, Note_off_c, 0, 70, 100
2, 533568, Note_on_c, 0, 71, 80
2, 533752, Note_off_c, 0, 71, 100
2, 533760, Note_on_c, 0, 78, 80
2, 533944, Note_off_c, 0, 78, 100
2, 533952, Note_on_c, 0, 74, 80
2, 534136, Note_off_c, 0, 74, 100
2, 534144, Note_on_c, 0, 73, 80
2, 534328, Note_off_c, 0, 73, 100
2, 534336, Note_on_c, 0, 74, 80
2, 534520, Note_off_c, 0, 74, 100
2, 534528, Note_on_c, 0, 76, 80
2, 534712, Note_off_c, 0, 76, 100
2, 534720, Note_on_c, 0, 74, 80
2, 534904, Note_off_c, 0, 74, 100
2, 534912, Note_on_c, 0, 73, 80
2, 535096, Note_off_c, 0, 73, 100
2, 535104, Note_on_c, 0, 74, 80
2, 535288, Note_off_c, 0, 74, 100
2, 535296, Note_on_c, 0, 76, 80
2, 535480, Note_off_c, 0, 76, 100
2, 535488, Note_on_c, 0, 69, 80
2, 535672, Note_off_c, 0, 69, 100
2, 535680, Note_on_c, 0, 73, 80
2, 535864, Note_off_c, 0, 73, 100
2, 535872, Note_on_c, 0, 76, 80
2, 536056, Note_off_c, 0, 76, 100
2, 536064, Note_on_c, 0, 78, 80
2, 536248, Note_off_c, 0, 78, 100
2, 536256, Note_on_c, 0, 69, 80
2, 536440, Note_off_c, 0, 69, 100
2, 536448, Note_on_c, 0, 74, 80
2, 536632, Note_off_c, 0, 74, 100
2, 536640, Note_on_c, 0, 78, 80
2, 536824, Note_off_c, 0, 78, 100
2, 536832, Note_on_c, 0, 79, 80
2, 537016, Note_off_c, 0, 79, 100
2, 537024, Note_on_c, 0, 69, 80
2, 537208, Note_off_c, 0, 69, 100
2, 537216, Note_on_c, 0, 73, 80
2, 537400, Note_off_c, 0, 73, 100
2, 537408, Note_on_c, 0, 76, 80
2, 537592, Note_off_c, 0, 76, 100
2, 537600, Note_on_c, 0, 81, 80
2, 537784, Note_off_c, 0, 81, 100
2, 537792, Note_on_c, 0, 79, 80
2, 537976, Note_off_c, 0, 79, 100
2, 537984, Note_on_c, 0, 78, 80
2, 538168, Note_off_c, 0, 78, 100
2, 538176, Note_on_c, 0, 76, 80
2, 538360, Note_off_c, 0, 76, 100
2, 538368, Note_on_c, 0, 78, 80
2, 538552, Note_off_c, 0, 78, 100
2, 538560, Note_on_c, 0, 74, 80
2, 538744, Note_off_c, 0, 74, 100
2, 538752, Note_on_c, 0, 73, 80
2, 538936, Note_off_c, 0, 73, 100
2, 538944, Note_on_c, 0, 74, 80
2, 539128, Note_off_c, 0, 74, 100
2, 539136, Note_on_c, 0, 79, 80
2, 539320, Note_off_c, 0, 79, 100
2, 539328, Note_on_c, 0, 74, 80
2, 539512, Note_off_c, 0, 74, 100
2, 539520, Note_on_c, 0, 73, 80
2, 539704, Note_off_c, 0, 73, 100
2, 539712, Note_on_c, 0, 74, 80
2, 539896, Note_off_c, 0, 74, 100
2, 539904, Note_on_c, 0, 81, 80
2, 540088, Note_off_c, 0, 81, 100
2, 540096, Note_on_c, 0, 74, 80
2, 540280, Note_off_c, 0, 74, 100
2, 540288, Note_on_c, 0, 73, 80
2, 540472, Note_off_c, 0, 73, 100
2, 540480, Note_on_c, 0, 74, 80
2, 540664, Note_off_c, 0, 74, 100
2, 540672, Note_on_c, 0, 76, 80
2, 540856, Note_off_c, 0, 76, 100
2, 540864, Note_on_c, 0, 78, 80
2, 541048, Note_off_c, 0, 78, 100
2, 541056, Note_on_c, 0, 79, 80
2, 541240, Note_off_c, 0, 79, 100
2, 541248, Note_on_c, 0, 81, 80
2, 541432, Note_off_c, 0, 81, 100
2, 541440, Note_on_c, 0, 83, 80
2, 542584, Note_off_c, 0, 83, 100
2, 542592, Note_on_c, 0, 81, 80
2, 543160, Note_off_c, 0, 81, 100
2, 543168, Note_on_c, 0, 79, 80
2, 543352, Note_off_c, 0, 79, 100
2, 543360, Note_on_c, 0, 78, 84
2, 543544, Note_off_c, 0, 78, 100
2, 543552, Note_on_c, 0, 79, 89
2, 543736, Note_off_c, 0, 79, 100
2, 543744, Note_on_c, 0, 81, 94
2, 543928, Note_off_c, 0, 81, 100
2, 543936, Note_on_c, 0, 83, 99
2, 544120, Note_off_c, 0, 83, 100
2, 544128, Note_on_c, 0, 85, 104
2, 544312, Note_off_c, 0, 85, 100
2, 544320, Note_on_c, 0, 86, 109
2, 544504, Note_off_c, 0, 86, 100
2, 544512, Note_on_c, 0, 88, 102
2, 544512, Note_on_c, 0, 79, 102
2, 546040, Note_off_c, 0, 88, 100
2, 546040, Note_off_c, 0, 79, 100
2, 546048, Note_on_c, 0, 78, 111
2, 546048, Note_on_c, 0, 86, 111
2, 547576, Note_off_c, 0, 78, 100
2, 547584, Note_on_c, 0, 80, 120
2, 547960, Note_off_c, 0, 86, 100
2, 547960, Note_off_c, 0, 80, 100
2, 547968, Note_on_c, 0, 85, 120
2, 548152, Note_off_c, 0, 85, 100
2, 548160, Note_on_c, 0, 83, 117
2, 548344, Note_off_c, 0, 83, 100
2, 548352, Note_on_c, 0, 81, 114
2, 548536, Note_off_c, 0, 81, 100
2, 548544, Note_on_c, 0, 80, 111
2, 548728, Note_off_c, 0, 80, 100
2, 548736, Note_on_c, 0, 78, 108
2, 548920, Note_off_c, 0, 78, 100
2, 548928, Note_on_c, 0, 76, 105
2, 549112, Note_off_c, 0, 76, 100
2, 549120, Note_on_c, 0, 74, 102
2, 549304, Note_off_c, 0, 74, 100
2, 549312, Note_on_c, 0, 73, 99
2, 549496, Note_off_c, 0, 73, 100
2, 549504, Note_on_c, 0, 71, 96
2, 549688, Note_off_c, 0, 71, 100
2, 549696, Note_on_c, 0, 69, 93
2, 549880, Note_off_c, 0, 69, 100
2, 549888, Note_on_c, 0, 68, 90
2, 550072, Note_off_c, 0, 68, 100
2, 550080, Note_on_c, 0, 66, 87
2, 550264, Note_off_c, 0, 66, 100
2, 550272, Note_on_c, 0, 64, 84
2, 550456, Note_off_c, 0, 64, 100
2, 550464, Note_on_c, 0, 62, 81
2, 550648, Note_off_c, 0, 62, 100
2, 550656, Note_on_c, 0, 61, 80
2, 550840, Note_off_c, 0, 61, 100
2, 550848, Note_on_c, 0, 59, 80
2, 551032, Note_off_c, 0, 59, 100
2, 551040, Note_on_c, 0, 57, 80
2, 551224, Note_off_c, 0, 57, 100
2, 551232, Note_on_c, 0, 59, 80
2, 551416, Note_off_c, 0, 59, 100
2, 551424, Note_on_c, 0, 61, 80
2, 551608, Note_off_c, 0, 61, 100
2, 551616, Note_on_c, 0, 62, 80
2, 551800, Note_off_c, 0, 62, 100
2, 551808, Note_on_c, 0, 64, 80
2, 551992, Note_off_c, 0, 64, 100
2, 552000, Note_on_c, 0, 66, 80
2, 552184, Note_off_c, 0, 66, 100
2, 552192, Note_on_c, 0, 67, 80
2, 552376, Note_off_c, 0, 67, 100
2, 552384, Note_on_c, 0, 66, 80
2, 552568, Note_off_c, 0, 66, 100
2, 552576, Note_on_c, 0, 64, 80
2, 552760, Note_off_c, 0, 64, 100
2, 552768, Note_on_c, 0, 66, 80
2, 552952, Note_off_c, 0, 66, 100
2, 552960, Note_on_c, 0, 67, 80
2, 553144, Note_off_c, 0, 67, 100
2, 553152, Note_on_c, 0, 69, 80
2, 553336, Note_off_c, 0, 69, 100
2, 553344, Note_on_c, 0, 71, 80
2, 553528, Note_off_c, 0, 71, 100
2, 553536, Note_on_c, 0, 73, 80
2, 553720, Note_off_c, 0, 73, 100
2, 553728, Note_on_c, 0, 74, 80
2, 553912, Note_off_c, 0, 74, 100
2, 553920, Note_on_c, 0, 75, 80
2, 554104, Note_off_c, 0, 75, 100
2, 554112, Note_on_c, 0, 76, 80
2, 554296, Note_off_c, 0, 76, 100
2, 554304, Note_on_c, 0, 77, 80
2, 554488, Note_off_c, 0, 77, 100
2, 554496, Note_on_c, 0, 78, 80
2, 554680, Note_off_c, 0, 78, 100
2, 554688, Note_on_c, 0, 79, 83
2, 554872, Note_off_c, 0, 79, 100
2, 554880, Note_on_c, 0, 80, 87
2, 555064, Note_off_c, 0, 80, 100
2, 555072, Note_on_c, 0, 81, 90
2, 555256, Note_off_c, 0, 81, 100
2, 555264, Note_on_c, 0, 82, 94
2, 555448, Note_off_c, 0, 82, 100
2, 555456, Note_on_c, 0, 83, 98
2, 555640, Note_off_c, 0, 83, 100
2, 555648, Note_on_c, 0, 84, 101
2, 555832, Note_off_c, 0, 84, 100
2, 555840, Note_on_c, 0, 85, 105
2, 556024, Note_off_c, 0, 85, 100
2, 556032, Note_on_c, 0, 86, 108
2, 556216, Note_off_c, 0, 86, 100
2, 556224, Note_on_c, 0, 85, 112
2, 556408, Note_off_c, 0, 85, 100
2, 556416, Note_on_c, 0, 86, 116
2, 556600, Note_off_c, 0, 86, 100
2, 556608, Note_on_c, 0, 85, 119
2, 556792, Note_off_c, 0, 85, 100
2, 556800, Note_on_c, 0, 86, 120
2, 556984, Note_off_c, 0, 86, 100
2, 556992, Note_on_c, 0, 81, 120
2, 557176, Note_off_c, 0, 81, 100
2, 557184, Note_on_c, 0, 78, 120
2, 557368, Note_off_c, 0, 78, 100
2, 557376, Note_on_c, 0, 74, 120
2, 557560, Note_off_c, 0, 74, 100
2, 557568, Note_on_c, 0, 69, 120
2, 557752, Note_off_c, 0, 69, 100
2, 557760, Note_on_c, 0, 66, 120
2, 557944, Note_off_c, 0, 66, 100
2, 557952, Note_on_c, 0, 62, 120
2, 558136, Note_off_c, 0, 62, 100
2, 558144, Note_on_c, 0, 74, 120
2, 558328, Note_off_c, 0, 74, 100
2, 558336, Note_on_c, 0, 57, 120
2, 558712, Note_off_c, 0, 57, 100
2, 559104, Note_on_c, 0, 64, 120
2, 559200, Note_on_c, 0, 66, 120
2, 559288, Note_off_c, 0, 64, 100
2, 559296, Note_on_c, 0, 64, 120
2, 559384, Note_off_c, 0, 66, 100
2, 559392, Note_on_c, 0, 66, 120
2, 559480, Note_off_c, 0, 64, 100
2, 559488, Note_on_c, 0, 64, 120
2, 559576, Note_off_c, 0, 66, 100
2, 559584, Note_on_c, 0, 66, 120
2, 559672, Note_off_c, 0, 64, 100
2, 559680, Note_on_c, 0, 62, 120
2, 559768, Note_off_c, 0, 66, 100
2, 559776, Note_on_c, 0, 64, 120
2, 559864, Note_off_c, 0, 62, 100
2, 559864, Note_off_c, 0, 64, 100
2, 559872, Note_on_c, 0, 62, 120
2, 560248, Note_off_c, 0, 62, 100
2, 560640, Note_on_c, 0, 67, 80
2, 560744, Note_off_c, 0, 67, 100
2, 560752, Note_on_c, 0, 66, 80
2, 561016, Note_off_c, 0, 66, 100
2, 561024, Note_on_c, 0, 64, 80
2, 561208, Note_off_c, 0, 64, 100
2, 561216, Note_on_c, 0, 62, 80
2, 561400, Note_off_c, 0, 62, 100
2, 561408, Note_on_c, 0, 61, 80
2, 561784, Note_off_c, 0, 61, 100
2, 561792, Note_on_c, 0, 57, 80
2, 562168, Note_off_c, 0, 57, 100
2, 562176, Note_on_c, 0, 67, 80
2, 562280, Note_off_c, 0, 67, 100
2, 562288, Note_on_c, 0, 66, 80
2, 562552, Note_off_c, 0, 66, 100
2, 562560, Note_on_c, 0, 64, 80
2, 562744, Note_off_c, 0, 64, 100
2, 562752, Note_on_c, 0, 62, 80
2, 562936, Note_off_c, 0, 62, 100
2, 562944, Note_on_c, 0, 68, 80
2, 563320, Note_off_c, 0, 68, 100
2, 563328, Note_on_c, 0, 69, 80
2, 563704, Note_off_c, 0, 69, 100
2, 563712, Note_on_c, 0, 67, 80
2, 563816, Note_off_c, 0, 67, 100
2, 563824, Note_on_c, 0, 66, 80
2, 564088, Note_off_c, 0, 66, 100
2, 564096, Note_on_c, 0, 64, 80
2, 564280, Note_off_c, 0, 64, 100
2, 564288, Note_on_c, 0, 62, 80
2, 564472, Note_off_c, 0, 62, 100
2, 564480, Note_on_c, 0, 61, 80
2, 564856, Note_off_c, 0, 61, 100
2, 564864, Note_on_c, 0, 57, 80
2, 565240, Note_off_c, 0, 57, 100
2, 565248, Note_on_c, 0, 78, 80
2, 565624, Note_off_c, 0, 78, 100
2, 565632, Note_on_c, 0, 66, 80
2, 566008, Note_off_c, 0, 66, 100
2, 566016, Note_on_c, 0, 74, 80
2, 566392, Note_off_c, 0, 74, 100
2, 566400, Note_on_c, 0, 62, 80
2, 566776, Note_off_c, 0, 62, 100
2, 566784, Note_on_c, 0, 71, 80
2, 567160, Note_off_c, 0, 71, 100
2, 567168, Note_on_c, 0, 59, 80
2, 567544, Note_off_c, 0, 59, 100
2, 567552, Note_on_c, 0, 67, 80
2, 567928, Note_off_c, 0, 67, 100
2, 567936, Note_on_c, 0, 55, 80
2, 568312, Note_off_c, 0, 55, 100
2, 568320, Note_on_c, 0, 68, 80
2, 568696, Note_off_c, 0, 68, 100
2, 568704, Note_on_c, 0, 56, 80
2, 569080, Note_off_c, 0, 56, 100
2, 569088, Note_on_c, 0, 69, 80
2, 569464, Note_off_c, 0, 69, 100
2, 569472, Note_on_c, 0, 57, 80
2, 569848, Note_off_c, 0, 57, 100
2, 569856, Note_on_c, 0, 61, 80
2, 570232, Note_off_c, 0, 61, 100
2, 570240, Note_on_c, 0, 49, 80
2, 570616, Note_off_c, 0, 49, 100
2, 570624, Note_on_c, 0, 50, 80
2, 570624, Note_on_c, 0, 62, 80
2, 571000, Note_off_c, 0, 50, 100
2, 571000, Note_off_c, 0, 62, 100
2, 571392, Note_on_c, 0, 79, 80
2, 571496, Note_off_c, 0, 79, 100
2, 571504, Note_on_c, 0, 77, 80
2, 571768, Note_off_c, 0, 77, 100
2, 571776, Note_on_c, 0, 76, 80
2, 571960, Note_off_c, 0, 76, 100
2, 571968, Note_on_c, 0, 74, 80
2, 572152, Note_off_c, 0, 74, 100
2, 572160, Note_on_c, 0, 73, 80
2, 572536, Note_off_c, 0, 73, 100
2, 572544, Note_on_c, 0, 69, 80
2, 572920, Note_off_c, 0, 69, 100
2, 572928, Note_on_c, 0, 79, 80
2, 573032, Note_off_c, 0, 79, 100
2, 573040, Note_on_c, 0, 77, 80
2, 573304, Note_off_c, 0, 77, 100
2, 573312, Note_on_c, 0, 76, 80
2, 573496, Note_off_c, 0, 76, 100
2, 573504, Note_on_c, 0, 74, 80
2, 573688, Note_off_c, 0, 74, 100
2, 573696, Note_on_c, 0, 80, 80
2, 574072, Note_off_c, 0, 80, 100
2, 574080, Note_on_c, 0, 81, 80
2, 574456, Note_off_c, 0, 81, 100
2, 574464, Note_on_c, 0, 79, 80
2, 574568, Note_off_c, 0, 79, 100
2, 574576, Note_on_c, 0, 77, 80
2, 574840, Note_off_c, 0, 77, 100
2, 574848, Note_on_c, 0, 76, 80
2, 575032, Note_off_c, 0, 76, 100
2, 575040, Note_on_c, 0, 74, 80
2, 575224, Note_off_c, 0, 74, 100
2, 575232, Note_on_c, 0, 73, 80
2, 575608, Note_off_c, 0, 73, 100
2, 575616, Note_on_c, 0, 69, 80
2, 575992, Note_off_c, 0, 69, 100
2, 576000, Note_on_c, 0, 89, 80
2, 576376, Note_off_c, 0, 89, 100
2, 576384, Note_on_c, 0, 77, 80
2, 576760, Note_off_c, 0, 77, 100
2, 576768, Note_on_c, 0, 86, 80
2, 577144, Note_off_c, 0, 86, 100
2, 577152, Note_on_c, 0, 74, 80
2, 577528, Note_off_c, 0, 74, 100
2, 577536, Note_on_c, 0, 82, 80
2, 577912, Note_off_c, 0, 82, 100
2, 577920, Note_on_c, 0, 70, 80
2, 578296, Note_off_c, 0, 70, 100
2, 578304, Note_on_c, 0, 79, 80
2, 578680, Note_off_c, 0, 79, 100
2, 578688, Note_on_c, 0, 67, 80
2, 579064, Note_off_c, 0, 67, 100
2, 579072, Note_on_c, 0, 76, 80
2, 579448, Note_off_c, 0, 76, 100
2, 579456, Note_on_c, 0, 64, 80
2, 579832, Note_off_c, 0, 64, 100
2, 579840, Note_on_c, 0, 73, 80
2, 580216, Note_off_c, 0, 73, 100
2, 580224, Note_on_c, 0, 61, 80
2, 580600, Note_off_c, 0, 61, 100
2, 582528, Note_on_c, 0, 81, 80
2, 582528, Note_on_c, 0, 78, 80
2, 582904, Note_off_c, 0, 78, 100
2, 582912, Note_on_c, 0, 79, 80
2, 583288, Note_off_c, 0, 81, 100
2, 583296, Note_on_c, 0, 88, 80
2, 584056, Note_off_c, 0, 79, 100
2, 584056, Note_off_c, 0, 88, 100
2, 584064, Note_on_c, 0, 86, 80
2, 584064, Note_on_c, 0, 78, 80
2, 584440, Note_off_c, 0, 86, 100
2, 584440, Note_off_c, 0, 78, 100
2, 584448, Note_on_c, 0, 81, 80
2, 584448, Note_on_c, 0, 79, 80
2, 584824, Note_off_c, 0, 81, 100
2, 584832, Note_on_c, 0, 88, 80
2, 585592, Note_off_c, 0, 79, 100
2, 585592, Note_off_c, 0, 88, 100
2, 585600, Note_on_c, 0, 86, 80
2, 585600, Note_on_c, 0, 78, 80
2, 585976, Note_off_c, 0, 86, 100
2, 585976, Note_off_c, 0, 78, 100
2, 585984, Note_on_c, 0, 76, 80
2, 585984, Note_on_c, 0, 74, 80
2, 586368, Note_on_c, 0, 83, 80
2, 586744, Note_off_c, 0, 76, 100
2, 586744, Note_off_c, 0, 74, 100
2, 586744, Note_off_c, 0, 83, 100
2, 586752, Note_on_c, 0, 76, 80
2, 586752, Note_on_c, 0, 73, 80
2, 587136, Note_on_c, 0, 81, 80
2, 587512, Note_off_c, 0, 76, 100
2, 587512, Note_off_c, 0, 73, 100
2, 587512, Note_off_c, 0, 81, 100
2, 587520, Note_on_c, 0, 74, 80
2, 587520, Note_on_c, 0, 78, 80
2, 587704, Note_off_c, 0, 78, 100
2, 587712, Note_on_c, 0, 79, 80
2, 587896, Note_off_c, 0, 74, 100
2, 587896, Note_off_c, 0, 79, 100
2, 587904, Note_on_c, 0, 78, 80
2, 588088, Note_off_c, 0, 78, 100
2, 588096, Note_on_c, 0, 76, 80
2, 588280, Note_off_c, 0, 76, 100
2, 588288, Note_on_c, 0, 74, 80
2, 588664, Note_off_c, 0, 74, 100
2, 588672, Note_on_c, 0, 66, 70
2, 588672, Note_on_c, 0, 62, 70
2, 588672, Note_on_c, 0, 69, 70
2, 589048, Note_off_c, 0, 66, 100
2, 589048, Note_off_c, 0, 62, 100
2, 589056, Note_on_c, 0, 67, 70
2, 589056, Note_on_c, 0, 64, 70
2, 589816, Note_off_c, 0, 69, 100
2, 590200, Note_off_c, 0, 67, 100
2, 590200, Note_off_c, 0, 64, 100
2, 590208, Note_on_c, 0, 66, 70
2, 590208, Note_on_c, 0, 62, 70
2, 590208, Note_on_c, 0, 69, 70
2, 590584, Note_off_c, 0, 66, 100
2, 590584, Note_off_c, 0, 62, 100
2, 590592, Note_on_c, 0, 67, 70
2, 590592, Note_on_c, 0, 64, 70
2, 591352, Note_off_c, 0, 69, 100
2, 591736, Note_off_c, 0, 67, 100
2, 591736, Note_off_c, 0, 64, 100
2, 591744, Note_on_c, 0, 62, 70
2, 591744, Note_on_c, 0, 66, 70
2, 592120, Note_off_c, 0, 66, 100
2, 592128, Note_on_c, 0, 67, 70
2, 593272, Note_off_c, 0, 62, 100
2, 593272, Note_off_c, 0, 67, 100
2, 593280, Note_on_c, 0, 62, 70
2, 593280, Note_on_c, 0, 66, 70
2, 593656, Note_off_c, 0, 66, 100
2, 593664, Note_on_c, 0, 67, 73
2, 594808, Note_off_c, 0, 62, 100
2, 594808, Note_off_c, 0, 67, 100
2, 594816, Note_on_c, 0, 64, 83
2, 594816, Note_on_c, 0, 60, 83
2, 595192, Note_off_c, 0, 64, 100
2, 595200, Note_on_c, 0, 65, 86
2, 595576, Note_off_c, 0, 65, 100
2, 595584, Note_on_c, 0, 67, 89
2, 595960, Note_off_c, 0, 67, 100
2, 595968, Note_on_c, 0, 69, 93
2, 596344, Note_off_c, 0, 60, 100
2, 596344, Note_off_c, 0, 69, 100
2, 596352, Note_on_c, 0, 64, 96
2, 596352, Note_on_c, 0, 72, 96
2, 596728, Note_off_c, 0, 64, 100
2, 596736, Note_on_c, 0, 65, 99
2, 597112, Note_off_c, 0, 65, 100
2, 597120, Note_on_c, 0, 67, 100
2, 597496, Note_off_c, 0, 67, 100
2, 597504, Note_on_c, 0, 69, 100
2, 597880, Note_off_c, 0, 72, 100
2, 597880, Note_off_c, 0, 69, 100
2, 597888, Note_on_c, 0, 82, 100
2, 597888, Note_on_c, 0, 72, 110
2, 598264, Note_off_c, 0, 82, 100
2, 598272, Note_on_c, 0, 81, 100
2, 598648, Note_off_c, 0, 81, 100
2, 598656, Note_on_c, 0, 79, 100
2, 599032, Note_off_c, 0, 79, 100
2, 599040, Note_on_c, 0, 77, 100
2, 599416, Note_off_c, 0, 72, 100
2, 599416, Note_off_c, 0, 77, 100
2, 599424, Note_on_c, 0, 76, 100
2, 599424, Note_on_c, 0, 84, 110
2, 599800, Note_off_c, 0, 76, 100
2, 599808, Note_on_c, 0, 77, 100
2, 600184, Note_off_c, 0, 77, 100
2, 600192, Note_on_c, 0, 79, 100
2, 600568, Note_off_c, 0, 79, 100
2, 600576, Note_on_c, 0, 81, 100
2, 600952, Note_off_c, 0, 84, 100
2, 600952, Note_off_c, 0, 81, 100
2, 600960, Note_on_c, 0, 66, 100
2, 600960, Note_on_c, 0, 62, 100
2, 601336, Note_off_c, 0, 66, 100
2, 601344, Note_on_c, 0, 67, 100
2, 601720, Note_off_c, 0, 67, 100
2, 601728, Note_on_c, 0, 69, 100
2, 602104, Note_off_c, 0, 69, 100
2, 602112, Note_on_c, 0, 70, 100
2, 602488, Note_off_c, 0, 62, 100
2, 602488, Note_off_c, 0, 70, 100
2, 602496, Note_on_c, 0, 66, 100
2, 602496, Note_on_c, 0, 74, 111
2, 602872, Note_off_c, 0, 66, 100
2, 602880, Note_on_c, 0, 67, 100
2, 603256, Note_off_c, 0, 67, 100
2, 603264, Note_on_c, 0, 69, 100
2, 603640, Note_off_c, 0, 69, 100
2, 603648, Note_on_c, 0, 70, 100
2, 604024, Note_off_c, 0, 74, 100
2, 604024, Note_off_c, 0, 70, 100
2, 604032, Note_on_c, 0, 74, 110
2, 604032, Note_on_c, 0, 84, 100
2, 604408, Note_off_c, 0, 84, 100
2, 604416, Note_on_c, 0, 82, 100
2, 604792, Note_off_c, 0, 82, 100
2, 604800, Note_on_c, 0, 81, 100
2, 605176, Note_off_c, 0, 81, 100
2, 605184, Note_on_c, 0, 79, 100
2, 605560, Note_off_c, 0, 74, 100
2, 605560, Note_off_c, 0, 79, 100
2, 605568, Note_on_c, 0, 78, 100
2, 605568, Note_on_c, 0, 86, 110
2, 605944, Note_off_c, 0, 78, 100
2, 605952, Note_on_c, 0, 79, 100
2, 606328, Note_off_c, 0, 79, 100
2, 606336, Note_on_c, 0, 81, 100
2, 606712, Note_off_c, 0, 81, 100
2, 606720, Note_on_c, 0, 82, 100
2, 607096, Note_off_c, 0, 86, 100
2, 607096, Note_off_c, 0, 82, 100
2, 607104, Note_on_c, 0, 62, 100
2, 607104, Note_on_c, 0, 58, 100
2, 607480, Note_off_c, 0, 62, 100
2, 607488, Note_on_c, 0, 63, 100
2, 607864, Note_off_c, 0, 63, 100
2, 607872, Note_on_c, 0, 65, 100
2, 608248, Note_off_c, 0, 65, 100
2, 608256, Note_on_c, 0, 67, 100
2, 608632, Note_off_c, 0, 58, 100
2, 608632, Note_off_c, 0, 67, 100
2, 608640, Note_on_c, 0, 70, 110
2, 608640, Note_on_c, 0, 74, 100
2, 609016, Note_off_c, 0, 74, 100
2, 609024, Note_on_c, 0, 75, 100
2, 609400, Note_off_c, 0, 75, 100
2, 609408, Note_on_c, 0, 77, 100
2, 609784, Note_off_c, 0, 77, 100
2, 609792, Note_on_c, 0, 79, 100
2, 610168, Note_off_c, 0, 70, 100
2, 610168, Note_off_c, 0, 79, 100
2, 610176, Note_on_c, 0, 70, 110
2, 610176, Note_on_c, 0, 74, 100
2, 610552, Note_off_c, 0, 74, 100
2, 610560, Note_on_c, 0, 75, 100
2, 610936, Note_off_c, 0, 75, 100
2, 610944, Note_on_c, 0, 77, 100
2, 611320, Note_off_c, 0, 77, 100
2, 611328, Note_on_c, 0, 79, 100
2, 611328, Note_on_c, 0, 75, 100
2, 611704, Note_off_c, 0, 70, 100
2, 611704, Note_off_c, 0, 75, 100
2, 611712, Note_on_c, 0, 74, 100
2, 612088, Note_off_c, 0, 74, 100
2, 612096, Note_on_c, 0, 73, 100
2, 612472, Note_off_c, 0, 73, 100
2, 612480, Note_on_c, 0, 71, 102
2, 612856, Note_off_c, 0, 79, 100
2, 612856, Note_off_c, 0, 71, 100
2, 612864, Note_on_c, 0, 69, 105
2, 612864, Note_on_c, 0, 73, 105
2, 612864, Note_on_c, 0, 76, 105
2, 613240, Note_off_c, 0, 69, 100
2, 613248, Note_on_c, 0, 67, 107
2, 613624, Note_off_c, 0, 73, 100
2, 613624, Note_off_c, 0, 76, 100
2, 613624, Note_off_c, 0, 67, 100
2, 613632, Note_on_c, 0, 81, 120
2, 613632, Note_on_c, 0, 78, 120
2, 613632, Note_on_c, 0, 74, 120
2, 613632, Note_on_c, 0, 69, 120
2, 615160, Note_off_c, 0, 81, 100
2, 615160, Note_off_c, 0, 78, 100
2, 615160, Note_off_c, 0, 74, 100
2, 615160, Note_off_c, 0, 69, 100
2, 615168, Note_on_c, 0, 74, 120
2, 615168, Note_on_c, 0, 71, 120
2, 615168, Note_on_c, 0, 66, 120
2, 615168, Note_on_c, 0, 62, 120
2, 616696, Note_off_c, 0, 74, 100
2, 616696, Note_off_c, 0, 71, 100
2, 616696, Note_off_c, 0, 66, 100
2, 616696, Note_off_c, 0, 62, 100
2, 616704, Note_on_c, 0, 79, 120
2, 616704, Note_on_c, 0, 76, 120
2, 616704, Note_on_c, 0, 71, 120
2, 616704, Note_on_c, 0, 67, 120
2, 618232, Note_off_c, 0, 79, 100
2, 618232, Note_off_c, 0, 76, 100
2, 618232, Note_off_c, 0, 71, 100
2, 618232, Note_off_c, 0, 67, 100
2, 618240, Note_on_c, 0, 64, 120
2, 618240, Note_on_c, 0, 61, 120
2, 618240, Note_on_c, 0, 57, 120
2, 618240, Note_on_c, 0, 52, 120
2, 619768, Note_off_c, 0, 64, 100
2, 619768, Note_off_c, 0, 61, 100
2, 619768, Note_off_c, 0, 57, 100
2, 619768, Note_off_c, 0, 52, 100
2, 619776, Note_on_c, 0, 69, 120
2, 619776, Note_on_c, 0, 66, 120
2, 619776, Note_on_c, 0, 62, 120
2, 619776, Note_on_c, 0, 57, 120
2, 620920, Note_off_c, 0, 69, 100
2, 620920, Note_off_c, 0, 66, 100
2, 620920, Note_off_c, 0, 62, 100
2, 620920, Note_off_c, 0, 57, 100
2, 620928, Note_on_c, 0, 67, 120
2, 620928, Note_on_c, 0, 64, 120
2, 620928, Note_on_c, 0, 59, 120
2, 620928, Note_on_c, 0, 55, 120
2, 621688, Note_off_c, 0, 55, 100
2, 621688, Note_off_c, 0, 59, 100
2, 621688, Note_off_c, 0, 64, 100
2, 621688, Note_off_c, 0, 67, 100
2, 621696, Note_on_c, 0, 66, 120
2, 621696, Note_on_c, 0, 62, 120
2, 621696, Note_on_c, 0, 57, 120
2, 621696, Note_on_c, 0, 54, 120
2, 622456, Note_off_c, 0, 66, 100
2, 622456, Note_off_c, 0, 62, 100
2, 622456, Note_off_c, 0, 57, 100
2, 622456, Note_off_c, 0, 54, 100
2, 622464, Note_on_c, 0, 61, 120
2, 622464, Note_on_c, 0, 57, 120
2, 622464, Note_on_c, 0, 55, 120
2, 622464, Note_on_c, 0, 52, 120
2, 622840, Note_off_c, 0, 61, 100
2, 622840, Note_off_c, 0, 57, 100
2, 622840, Note_off_c, 0, 55, 100
2, 622840, Note_off_c, 0, 52, 100
2, 622848, Note_on_c, 0, 62, 120
2, 622848, Note_on_c, 0, 57, 120
2, 622848, Note_on_c, 0, 54, 120
2, 623224, Note_off_c, 0, 62, 100
2, 623224, Note_off_c, 0, 57, 100
2, 623224, Note_off_c, 0, 54, 100
2, 624000, Note_on_c, 0, 86, 80
2, 624000, Note_on_c, 0, 74, 80
2, 624376, Note_off_c, 0, 86, 100
2, 624376, Note_off_c, 0, 74, 100
2, 624384, Note_on_c, 0, 84, 80
2, 624384, Note_on_c, 0, 72, 80
2, 624760, Note_off_c, 0, 84, 100
2, 624760, Note_off_c, 0, 72, 100
2, 624768, Note_on_c, 0, 81, 80
2, 624768, Note_on_c, 0, 69, 80
2, 625144, Note_off_c, 0, 81, 100
2, 625144, Note_off_c, 0, 69, 100
2, 625152, Note_on_c, 0, 86, 80
2, 625152, Note_on_c, 0, 74, 80
2, 625528, Note_off_c, 0, 86, 100
2, 625528, Note_off_c, 0, 74, 100
2, 625536, Note_on_c, 0, 84, 80
2, 625536, Note_on_c, 0, 72, 80
2, 625912, Note_off_c, 0, 84, 100
2, 625912, Note_off_c, 0, 72, 100
2, 625920, Note_on_c, 0, 83, 80
2, 625920, Note_on_c, 0, 71, 80
2, 626296, Note_off_c, 0, 83, 100
2, 626296, Note_off_c, 0, 71, 100
2, 626304, Note_on_c, 0, 81, 80
2, 626304, Note_on_c, 0, 69, 80
2, 626680, Note_off_c, 0, 81, 100
2, 626680, Note_off_c, 0, 69, 100
2, 626688, Note_on_c, 0, 79, 80
2, 626688, Note_on_c, 0, 67, 80
2, 627064, Note_off_c, 0, 79, 100
2, 627064, Note_off_c, 0, 67, 100
2, 627072, Note_on_c, 0, 78, 80
2, 627072, Note_on_c, 0, 66, 80
2, 627448, Note_off_c, 0, 78, 100
2, 627448, Note_off_c, 0, 66, 100
2, 627456, Note_on_c, 0, 79, 80
2, 627456, Note_on_c, 0, 67, 80
2, 627832, Note_off_c, 0, 79, 100
2, 627832, Note_off_c, 0, 67, 100
2, 627840, Note_on_c, 0, 76, 80
2, 627840, Note_on_c, 0, 64, 80
2, 628216, Note_off_c, 0, 76, 100
2, 628216, Note_off_c, 0, 64, 100
2, 628224, Note_on_c, 0, 81, 80
2, 628224, Note_on_c, 0, 69, 80
2, 628600, Note_off_c, 0, 81, 100
2, 628600, Note_off_c, 0, 69, 100
2, 628608, Note_on_c, 0, 79, 80
2, 628608, Note_on_c, 0, 67, 80
2, 628984, Note_off_c, 0, 79, 100
2, 628984, Note_off_c, 0, 67, 100
2, 628992, Note_on_c, 0, 78, 110
2, 628992, Note_on_c, 0, 66, 110
2, 629176, Note_off_c, 0, 78, 100
2, 629176, Note_off_c, 0, 66, 100
2, 629184, Note_on_c, 0, 62, 80
2, 629368, Note_off_c, 0, 62, 100
2, 629376, Note_on_c, 0, 61, 80
2, 629560, Note_off_c, 0, 61, 100
2, 629568, Note_on_c, 0, 62, 80
2, 629752, Note_off_c, 0, 62, 100
2, 629760, Note_on_c, 0, 64, 80
2, 629944, Note_off_c, 0, 64, 100
2, 629952, Note_on_c, 0, 62, 80
2, 630136, Note_off_c, 0, 62, 100
2, 630144, Note_on_c, 0, 61, 80
2, 630328, Note_off_c, 0, 61, 100
2, 630336, Note_on_c, 0, 62, 80
2, 630520, Note_off_c, 0, 62, 100
2, 630528, Note_on_c, 0, 52, 80
2, 630712, Note_off_c, 0, 52, 100
2, 630720, Note_on_c, 0, 64, 80
2, 630904, Note_off_c, 0, 64, 100
2, 630912, Note_on_c, 0, 63, 80
2, 631096, Note_off_c, 0, 63, 100
2, 631104, Note_on_c, 0, 64, 80
2, 631288, Note_off_c, 0, 64, 100
2, 631296, Note_on_c, 0, 54, 80
2, 631480, Note_off_c, 0, 54, 100
2, 631488, Note_on_c, 0, 66, 80
2, 631672, Note_off_c, 0, 66, 100
2, 631680, Note_on_c, 0, 65, 80
2, 631864, Note_off_c, 0, 65, 100
2, 631872, Note_on_c, 0, 66, 80
2, 632056, Note_off_c, 0, 66, 100
2, 632064, Note_on_c, 0, 55, 80
2, 632248, Note_off_c, 0, 55, 100
2, 632256, Note_on_c, 0, 67, 80
2, 632440, Note_off_c, 0, 67, 100
2, 632448, Note_on_c, 0, 66, 80
2, 632632, Note_off_c, 0, 66, 100
2, 632640, Note_on_c, 0, 67, 80
2, 632824, Note_off_c, 0, 67, 100
2, 632832, Note_on_c, 0, 57, 80
2, 633016, Note_off_c, 0, 57, 100
2, 633024, Note_on_c, 0, 69, 80
2, 633208, Note_off_c, 0, 69, 100
2, 633216, Note_on_c, 0, 68, 80
2, 633400, Note_off_c, 0, 68, 100
2, 633408, Note_on_c, 0, 69, 80
2, 633592, Note_off_c, 0, 69, 100
2, 633600, Note_on_c, 0, 59, 80
2, 633784, Note_off_c, 0, 59, 100
2, 633792, Note_on_c, 0, 71, 80
2, 633976, Note_off_c, 0, 71, 100
2, 633984, Note_on_c, 0, 70, 80
2, 634168, Note_off_c, 0, 70, 100
2, 634176, Note_on_c, 0, 71, 80
2, 634360, Note_off_c, 0, 71, 100
2, 634368, Note_on_c, 0, 61, 80
2, 634552, Note_off_c, 0, 61, 100
2, 634560, Note_on_c, 0, 73, 80
2, 634744, Note_off_c, 0, 73, 100
2, 634752, Note_on_c, 0, 72, 80
2, 634936, Note_off_c, 0, 72, 100
2, 634944, Note_on_c, 0, 73, 80
2, 635128, Note_off_c, 0, 73, 100
2, 635136, Note_on_c, 0, 62, 80
2, 635320, Note_off_c, 0, 62, 100
2, 635328, Note_on_c, 0, 74, 81
2, 635512, Note_off_c, 0, 74, 100
2, 635520, Note_on_c, 0, 73, 83
2, 635704, Note_off_c, 0, 73, 100
2, 635712, Note_on_c, 0, 74, 85
2, 635896, Note_off_c, 0, 74, 100
2, 635904, Note_on_c, 0, 76, 87
2, 636088, Note_off_c, 0, 76, 100
2, 636096, Note_on_c, 0, 74, 89
2, 636280, Note_off_c, 0, 74, 100
2, 636288, Note_on_c, 0, 73, 91
2, 636472, Note_off_c, 0, 73, 100
2, 636480, Note_on_c, 0, 74, 93
2, 636664, Note_off_c, 0, 74, 100
2, 636672, Note_on_c, 0, 64, 95
2, 636856, Note_off_c, 0, 64, 100
2, 636864, Note_on_c, 0, 76, 97
2, 637048, Note_off_c, 0, 76, 100
2, 637056, Note_on_c, 0, 75, 99
2, 637240, Note_off_c, 0, 75, 100
2, 637248, Note_on_c, 0, 76, 101
2, 637432, Note_off_c, 0, 76, 100
2, 637440, Note_on_c, 0, 66, 103
2, 637624, Note_off_c, 0, 66, 100
2, 637632, Note_on_c, 0, 78, 105
2, 637816, Note_off_c, 0, 78, 100
2, 637824, Note_on_c, 0, 77, 107
2, 638008, Note_off_c, 0, 77, 100
2, 638016, Note_on_c, 0, 78, 109
2, 638200, Note_off_c, 0, 78, 100
2, 638208, Note_on_c, 0, 67, 120
2, 638392, Note_off_c, 0, 67, 100
2, 638400, Note_on_c, 0, 79, 120
2, 638584, Note_off_c, 0, 79, 100
2, 638592, Note_on_c, 0, 78, 120
2, 638776, Note_off_c, 0, 78, 100
2, 638784, Note_on_c, 0, 79, 120
2, 638968, Note_off_c, 0, 79, 100
2, 638976, Note_on_c, 0, 69, 120
2, 639160, Note_off_c, 0, 69, 100
2, 639168, Note_on_c, 0, 81, 120
2, 639352, Note_off_c, 0, 81, 100
2, 639360, Note_on_c, 0, 80, 120
2, 639544, Note_off_c, 0, 80, 100
2, 639552, Note_on_c, 0, 81, 120
2, 639736, Note_off_c, 0, 81, 100
2, 639744, Note_on_c, 0, 71, 120
2, 639928, Note_off_c, 0, 71, 100
2, 639936, Note_on_c, 0, 83, 120
2, 640120, Note_off_c, 0, 83, 100
2, 640128, Note_on_c, 0, 82, 120
2, 640312, Note_off_c, 0, 82, 100
2, 640320, Note_on_c, 0, 83, 120
2, 640504, Note_off_c, 0, 83, 100
2, 640512, Note_on_c, 0, 73, 120
2, 640696, Note_off_c, 0, 73, 100
2, 640704, Note_on_c, 0, 85, 120
2, 640888, Note_off_c, 0, 85, 100
2, 640896, Note_on_c, 0, 84, 120
2, 641080, Note_off_c, 0, 84, 100
2, 641088, Note_on_c, 0, 85, 120
2, 641272, Note_off_c, 0, 85, 100
2, 641280, Note_on_c, 0, 74, 120
2, 641280, Note_on_c, 0, 86, 120
2, 641656, Note_off_c, 0, 74, 100
2, 641656, Note_off_c, 0, 86, 100
2, 642048, Note_on_c, 0, 81, 70
2, 642808, Note_off_c, 0, 81, 100
2, 642816, Note_on_c, 0, 83, 70
2, 643576, Note_off_c, 0, 83, 100
2, 643584, Note_on_c, 0, 76, 70
2, 644344, Note_off_c, 0, 76, 100
2, 644352, Note_on_c, 0, 81, 70
2, 645112, Note_off_c, 0, 81, 100
2, 645120, Note_on_c, 0, 75, 70
2, 645120, Note_on_c, 0, 71, 70
2, 645880, Note_off_c, 0, 75, 100
2, 645888, Note_on_c, 0, 79, 70
2, 646648, Note_off_c, 0, 71, 100
2, 646648, Note_off_c, 0, 79, 100
2, 646656, Note_on_c, 0, 73, 70
2, 646656, Note_on_c, 0, 67, 70
2, 647416, Note_off_c, 0, 73, 100
2, 647416, Note_off_c, 0, 67, 100
2, 647424, Note_on_c, 0, 74, 70
2, 647424, Note_on_c, 0, 66, 70
2, 648184, Note_off_c, 0, 74, 100
2, 648184, Note_off_c, 0, 66, 100
2, 648192, Note_on_c, 0, 70, 70
2, 648952, Note_off_c, 0, 70, 100
2, 648960, Note_on_c, 0, 71, 70
2, 649720, Note_off_c, 0, 71, 100
2, 649728, Note_on_c, 0, 64, 70
2, 650488, Note_off_c, 0, 64, 100
2, 650496, Note_on_c, 0, 69, 70
2, 651256, Note_off_c, 0, 69, 100
2, 651264, Note_on_c, 0, 63, 70
2, 651264, Note_on_c, 0, 59, 70
2, 652024, Note_off_c, 0, 63, 100
2, 652032, Note_on_c, 0, 67, 70
2, 652792, Note_off_c, 0, 59, 100
2, 652800, Note_on_c, 0, 55, 70
2, 652800, Note_on_c, 0, 61, 70
2, 653560, Note_off_c, 0, 67, 100
2, 653560, Note_off_c, 0, 55, 100
2, 653560, Note_off_c, 0, 61, 100
2, 653568, Note_on_c, 0, 66, 70
2, 653568, Note_on_c, 0, 54, 70
2, 654336, Note_on_c, 0, 59, 75
2, 655096, Note_off_c, 0, 66, 100
2, 655096, Note_off_c, 0, 54, 100
2, 655096, Note_off_c, 0, 59, 100
2, 655104, Note_on_c, 0, 64, 81
2, 655104, Note_on_c, 0, 52, 81
2, 655864, Note_off_c, 0, 64, 100
2, 655872, Note_on_c, 0, 58, 87
2, 656632, Note_off_c, 0, 52, 100
2, 656632, Note_off_c, 0, 58, 100
2, 656640, Note_on_c, 0, 62, 92
2, 656640, Note_on_c, 0, 50, 92
2, 657408, Note_on_c, 0, 55, 98
2, 658168, Note_off_c, 0, 62, 100
2, 658168, Note_off_c, 0, 50, 100
2, 658168, Note_off_c, 0, 55, 100
2, 658176, Note_on_c, 0, 60, 104
2, 658176, Note_on_c, 0, 48, 104
2, 658944, Note_on_c, 0, 54, 109
2, 659704, Note_off_c, 0, 60, 100
2, 659704, Note_off_c, 0, 48, 100
2, 659704, Note_off_c, 0, 54, 100
2, 659712, Note_on_c, 0, 59, 110
2, 659712, Note_on_c, 0, 55, 110
2, 659712, Note_on_c, 0, 50, 110
2, 660088, Note_off_c, 0, 59, 100
2, 660088, Note_off_c, 0, 55, 100
2, 660088, Note_off_c, 0, 50, 100
2, 662400, Note_on_c, 0, 86, 70
2, 662400, Note_on_c, 0, 74, 70
2, 662776, Note_off_c, 0, 86, 100
2, 662784, Note_on_c, 0, 83, 70
2, 663160, Note_off_c, 0, 74, 100
2, 663160, Note_off_c, 0, 83, 100
2, 663168, Note_on_c, 0, 81, 70
2, 663168, Note_on_c, 0, 72, 70
2, 663544, Note_off_c, 0, 81, 100
2, 663544, Note_off_c, 0, 72, 100
2, 663552, Note_on_c, 0, 79, 70
2, 663552, Note_on_c, 0, 71, 70
2, 663928, Note_off_c, 0, 79, 100
2, 663928, Note_off_c, 0, 71, 100
2, 665472, Note_on_c, 0, 74, 70
2, 665472, Note_on_c, 0, 72, 70
2, 665848, Note_off_c, 0, 74, 100
2, 665848, Note_off_c, 0, 72, 100
2, 665856, Note_on_c, 0, 79, 70
2, 665856, Note_on_c, 0, 71, 70
2, 666232, Note_off_c, 0, 79, 100
2, 666232, Note_off_c, 0, 71, 100
2, 666240, Note_on_c, 0, 81, 70
2, 666240, Note_on_c, 0, 72, 70
2, 666616, Note_off_c, 0, 81, 100
2, 666616, Note_off_c, 0, 72, 100
2, 666624, Note_on_c, 0, 83, 70
2, 666624, Note_on_c, 0, 74, 70
2, 667000, Note_off_c, 0, 83, 100
2, 667000, Note_off_c, 0, 74, 100
2, 668544, Note_on_c, 0, 74, 70
2, 668544, Note_on_c, 0, 62, 70
2, 668920, Note_off_c, 0, 74, 100
2, 668928, Note_on_c, 0, 71, 70
2, 669304, Note_off_c, 0, 62, 100
2, 669304, Note_off_c, 0, 71, 100
2, 669312, Note_on_c, 0, 69, 70
2, 669312, Note_on_c, 0, 60, 70
2, 669688, Note_off_c, 0, 69, 100
2, 669688, Note_off_c, 0, 60, 100
2, 669696, Note_on_c, 0, 67, 70
2, 669696, Note_on_c, 0, 59, 70
2, 670072, Note_off_c, 0, 67, 100
2, 670072, Note_off_c, 0, 59, 100
2, 671616, Note_on_c, 0, 50, 70
2, 671992, Note_off_c, 0, 50, 100
2, 672000, Note_on_c, 0, 55, 70
2, 672376, Note_off_c, 0, 55, 100
2, 672384, Note_on_c, 0, 57, 70
2, 672760, Note_off_c, 0, 57, 100
2, 672768, Note_on_c, 0, 59, 70
2, 673144, Note_off_c, 0, 59, 100
2, 674688, Note_on_c, 0, 74, 70
2, 675064, Note_off_c, 0, 74, 100
2, 675072, Note_on_c, 0, 79, 70
2, 675448, Note_off_c, 0, 79, 100
2, 675456, Note_on_c, 0, 81, 70
2, 675832, Note_off_c, 0, 81, 100
2, 675840, Note_on_c, 0, 83, 70
2, 676216, Note_off_c, 0, 83, 100
2, 677760, Note_on_c, 0, 50, 70
2, 678136, Note_off_c, 0, 50, 100
2, 678144, Note_on_c, 0, 55, 70
2, 678520, Note_off_c, 0, 55, 100
2, 678528, Note_on_c, 0, 57, 70
2, 678904, Note_off_c, 0, 57, 100
2, 678912, Note_on_c, 0, 58, 70
2, 679288, Note_off_c, 0, 58, 100
2, 680832, Note_on_c, 0, 74, 70
2, 681208, Note_off_c, 0, 74, 100
2, 681216, Note_on_c, 0, 79, 70
2, 681592, Note_off_c, 0, 79, 100
2, 681600, Note_on_c, 0, 81, 70
2, 681976, Note_off_c, 0, 81, 100
2, 681984, Note_on_c, 0, 82, 70
2, 682360, Note_off_c, 0, 82, 100
2, 683904, Note_on_c, 0, 50, 70
2, 684280, Note_off_c, 0, 50, 100
2, 684288, Note_on_c, 0, 53, 70
2, 684664, Note_off_c, 0, 53, 100
2, 684672, Note_on_c, 0, 55, 70
2, 685048, Note_off_c, 0, 55, 100
2, 685056, Note_on_c, 0, 56, 70
2, 685432, Note_off_c, 0, 56, 100
2, 686976, Note_on_c, 0, 74, 70
2, 687352, Note_off_c, 0, 74, 100
2, 687360, Note_on_c, 0, 77, 70
2, 687736, Note_off_c, 0, 77, 100
2, 687744, Note_on_c, 0, 79, 70
2, 688120, Note_off_c, 0, 79, 100
2, 688128, Note_on_c, 0, 80, 70
2, 688504, Note_off_c, 0, 80, 100
2, 690048, Note_on_c, 0, 68, 85
2, 690048, Note_on_c, 0, 56, 86
2, 690432, Note_on_c, 0, 62, 71
2, 690808, Note_off_c, 0, 62, 100
2, 690816, Note_on_c, 0, 63, 71
2, 691192, Note_off_c, 0, 63, 100
2, 691200, Note_on_c, 0, 65, 71
2, 691576, Note_off_c, 0, 56, 100
2, 691576, Note_off_c, 0, 68, 100
2, 691576, Note_off_c, 0, 65, 100
2, 693120, Note_on_c, 0, 68, 84
2, 693120, Note_on_c, 0, 56, 85
2, 693504, Note_on_c, 0, 62, 73
2, 693880, Note_off_c, 0, 62, 100
2, 693888, Note_on_c, 0, 63, 73
2, 694264, Note_off_c, 0, 63, 100
2, 694272, Note_on_c, 0, 65, 73
2, 694648, Note_off_c, 0, 56, 100
2, 694648, Note_off_c, 0, 68, 100
2, 694648, Note_off_c, 0, 65, 100
2, 694656, Note_on_c, 0, 68, 73
2, 694656, Note_on_c, 0, 56, 73
2, 695040, Note_on_c, 0, 62, 74
2, 695416, Note_off_c, 0, 62, 100
2, 695424, Note_on_c, 0, 64, 74
2, 695800, Note_off_c, 0, 64, 100
2, 695808, Note_on_c, 0, 65, 74
2, 696184, Note_off_c, 0, 56, 100
2, 696184, Note_off_c, 0, 68, 100
2, 696184, Note_off_c, 0, 65, 100
2, 696192, Note_on_c, 0, 68, 89
2, 696192, Note_on_c, 0, 56, 85
2, 696576, Note_on_c, 0, 62, 75
2, 696952, Note_off_c, 0, 62, 100
2, 696960, Note_on_c, 0, 64, 75
2, 697336, Note_off_c, 0, 64, 100
2, 697344, Note_on_c, 0, 65, 75
2, 697720, Note_off_c, 0, 56, 100
2, 697720, Note_off_c, 0, 68, 100
2, 697720, Note_off_c, 0, 65, 100
2, 697728, Note_on_c, 0, 67, 86
2, 697728, Note_on_c, 0, 55, 87
2, 698112, Note_on_c, 0, 64, 76
2, 698488, Note_off_c, 0, 64, 100
2, 698496, Note_on_c, 0, 62, 76
2, 698872, Note_off_c, 0, 62, 100
2, 698880, Note_on_c, 0, 61, 76
2, 699256, Note_off_c, 0, 55, 100
2, 699256, Note_off_c, 0, 67, 100
2, 699256, Note_off_c, 0, 61, 100
2, 699264, Note_on_c, 0, 66, 85
2, 699264, Note_on_c, 0, 54, 88
2, 699648, Note_on_c, 0, 62, 77
2, 700024, Note_off_c, 0, 62, 100
2, 700032, Note_on_c, 0, 61, 77
2, 700408, Note_off_c, 0, 61, 100
2, 700416, Note_on_c, 0, 59, 77
2, 700792, Note_off_c, 0, 54, 100
2, 700792, Note_off_c, 0, 66, 100
2, 700792, Note_off_c, 0, 59, 100
2, 700800, Note_on_c, 0, 64, 87
2, 700800, Note_on_c, 0, 52, 88
2, 701184, Note_on_c, 0, 59, 78
2, 701560, Note_off_c, 0, 59, 100
2, 701568, Note_on_c, 0, 57, 78
2, 701944, Note_off_c, 0, 57, 100
2, 701952, Note_on_c, 0, 55, 78
2, 702328, Note_off_c, 0, 52, 100
2, 702328, Note_off_c, 0, 64, 100
2, 702328, Note_off_c, 0, 55, 100
2, 702336, Note_on_c, 0, 61, 95
2, 702336, Note_on_c, 0, 55, 88
2, 703096, Note_off_c, 0, 55, 100
2, 703104, Note_on_c, 0, 54, 79
2, 703480, Note_off_c, 0, 54, 100
2, 703488, Note_on_c, 0, 52, 79
2, 703864, Note_off_c, 0, 61, 100
2, 703864, Note_off_c, 0, 52, 100
2, 703872, Note_on_c, 0, 61, 79
2, 703872, Note_on_c, 0, 55, 79
2, 703872, Note_on_c, 0, 52, 79
2, 704248, Note_off_c, 0, 61, 100
2, 704248, Note_off_c, 0, 55, 100
2, 704248, Note_off_c, 0, 52, 100
2, 704256, Note_on_c, 0, 62, 80
2, 704256, Note_on_c, 0, 54, 80
2, 704632, Note_off_c, 0, 62, 100
2, 704632, Note_off_c, 0, 54, 100
2, 705408, Note_on_c, 0, 78, 80
2, 705408, Note_on_c, 0, 86, 80
2, 705784, Note_off_c, 0, 78, 100
2, 705784, Note_off_c, 0, 86, 100
2, 705792, Note_on_c, 0, 79, 80
2, 705792, Note_on_c, 0, 85, 80
2, 706168, Note_off_c, 0, 85, 100
2, 706176, Note_on_c, 0, 83, 80
2, 706552, Note_off_c, 0, 83, 100
2, 706560, Note_on_c, 0, 81, 80
2, 706936, Note_off_c, 0, 79, 100
2, 706936, Note_off_c, 0, 81, 100
2, 706944, Note_on_c, 0, 81, 80
2, 706944, Note_on_c, 0, 79, 80
2, 707320, Note_off_c, 0, 79, 100
2, 707328, Note_on_c, 0, 78, 80
2, 707704, Note_off_c, 0, 78, 100
2, 707712, Note_on_c, 0, 76, 80
2, 708088, Note_off_c, 0, 76, 100
2, 708096, Note_on_c, 0, 74, 80
2, 708472, Note_off_c, 0, 81, 100
2, 708472, Note_off_c, 0, 74, 100
2, 708480, Note_on_c, 0, 74, 80
2, 708480, Note_on_c, 0, 66, 80
2, 708856, Note_off_c, 0, 74, 100
2, 708856, Note_off_c, 0, 66, 100
2, 708864, Note_on_c, 0, 73, 80
2, 708864, Note_on_c, 0, 67, 80
2, 709240, Note_off_c, 0, 73, 100
2, 709248, Note_on_c, 0, 71, 80
2, 709624, Note_off_c, 0, 71, 100
2, 709632, Note_on_c, 0, 69, 80
2, 710008, Note_off_c, 0, 67, 100
2, 710008, Note_off_c, 0, 69, 100
2, 710016, Note_on_c, 0, 67, 80
2, 710016, Note_on_c, 0, 69, 80
2, 710392, Note_off_c, 0, 67, 100
2, 710400, Note_on_c, 0, 66, 80
2, 710776, Note_off_c, 0, 66, 100
2, 710784, Note_on_c, 0, 64, 80
2, 711160, Note_off_c, 0, 64, 100
2, 711168, Note_on_c, 0, 62, 80
2, 711544, Note_off_c, 0, 69, 100
2, 711544, Note_off_c, 0, 62, 100
2, 711552, Note_on_c, 0, 62, 80
2, 711552, Note_on_c, 0, 54, 80
2, 711928, Note_off_c, 0, 62, 100
2, 711928, Note_off_c, 0, 54, 100
2, 711936, Note_on_c, 0, 61, 80
2, 711936, Note_on_c, 0, 55, 80
2, 712312, Note_off_c, 0, 61, 100
2, 712320, Note_on_c, 0, 59, 80
2, 712696, Note_off_c, 0, 59, 100
2, 712704, Note_on_c, 0, 57, 80
2, 713080, Note_off_c, 0, 55, 100
2, 713080, Note_off_c, 0, 57, 100
2, 713088, Note_on_c, 0, 55, 80
2, 713088, Note_on_c, 0, 57, 80
2, 713464, Note_off_c, 0, 55, 100
2, 713464, Note_off_c, 0, 57, 100
2, 713472, Note_on_c, 0, 54, 80
2, 713656, Note_off_c, 0, 54, 100
2, 713664, Note_on_c, 0, 62, 80
2, 713848, Note_off_c, 0, 62, 100
2, 713856, Note_on_c, 0, 57, 80
2, 714040, Note_off_c, 0, 57, 100
2, 714048, Note_on_c, 0, 62, 80
2, 714232, Note_off_c, 0, 62, 100
2, 714240, Note_on_c, 0, 54, 80
2, 714424, Note_off_c, 0, 54, 100
2, 714432, Note_on_c, 0, 66, 80
2, 714616, Note_off_c, 0, 66, 100
2, 714624, Note_on_c, 0, 62, 80
2, 714808, Note_off_c, 0, 62, 100
2, 714816, Note_on_c, 0, 66, 80
2, 715000, Note_off_c, 0, 66, 100
2, 715008, Note_on_c, 0, 54, 80
2, 715192, Note_off_c, 0, 54, 100
2, 715200, Note_on_c, 0, 66, 80
2, 715384, Note_off_c, 0, 66, 100
2, 715392, Note_on_c, 0, 62, 81
2, 715576, Note_off_c, 0, 62, 100
2, 715584, Note_on_c, 0, 66, 82
2, 715768, Note_off_c, 0, 66, 100
2, 715776, Note_on_c, 0, 55, 82
2, 715960, Note_off_c, 0, 55, 100
2, 715968, Note_on_c, 0, 67, 83
2, 716152, Note_off_c, 0, 67, 100
2, 716160, Note_on_c, 0, 64, 84
2, 716344, Note_off_c, 0, 64, 100
2, 716352, Note_on_c, 0, 67, 85
2, 716536, Note_off_c, 0, 67, 100
2, 716544, Note_on_c, 0, 57, 85
2, 716728, Note_off_c, 0, 57, 100
2, 716736, Note_on_c, 0, 69, 86
2, 716920, Note_off_c, 0, 69, 100
2, 716928, Note_on_c, 0, 66, 87
2, 717112, Note_off_c, 0, 66, 100
2, 717120, Note_on_c, 0, 69, 87
2, 717304, Note_off_c, 0, 69, 100
2, 717312, Note_on_c, 0, 62, 88
2, 717496, Note_off_c, 0, 62, 100
2, 717504, Note_on_c, 0, 74, 89
2, 717688, Note_off_c, 0, 74, 100
2, 717696, Note_on_c, 0, 66, 90
2, 717880, Note_off_c, 0, 66, 100
2, 717888, Note_on_c, 0, 74, 90
2, 718072, Note_off_c, 0, 74, 100
2, 718080, Note_on_c, 0, 62, 91
2, 718264, Note_off_c, 0, 62, 100
2, 718272, Note_on_c, 0, 74, 92
2, 718456, Note_off_c, 0, 74, 100
2, 718464, Note_on_c, 0, 66, 93
2, 718648, Note_off_c, 0, 66, 100
2, 718656, Note_on_c, 0, 74, 93
2, 718840, Note_off_c, 0, 74, 100
2, 718848, Note_on_c, 0, 64, 94
2, 719032, Note_off_c, 0, 64, 100
2, 719040, Note_on_c, 0, 76, 95
2, 719224, Note_off_c, 0, 76, 100
2, 719232, Note_on_c, 0, 67, 95
2, 719416, Note_off_c, 0, 67, 100
2, 719424, Note_on_c, 0, 76, 96
2, 719608, Note_off_c, 0, 76, 100
2, 719616, Note_on_c, 0, 66, 97
2, 719800, Note_off_c, 0, 66, 100
2, 719808, Note_on_c, 0, 78, 98
2, 719992, Note_off_c, 0, 78, 100
2, 720000, Note_on_c, 0, 69, 98
2, 720184, Note_off_c, 0, 69, 100
2, 720192, Note_on_c, 0, 78, 99
2, 720376, Note_off_c, 0, 78, 100
2, 720384, Note_on_c, 0, 66, 100
2, 720568, Note_off_c, 0, 66, 100
2, 720576, Note_on_c, 0, 78, 101
2, 720760, Note_off_c, 0, 78, 100
2, 720768, Note_on_c, 0, 74, 101
2, 720952, Note_off_c, 0, 74, 100
2, 720960, Note_on_c, 0, 78, 102
2, 721144, Note_off_c, 0, 78, 100
2, 721152, Note_on_c, 0, 66, 103
2, 721336, Note_off_c, 0, 66, 100
2, 721344, Note_on_c, 0, 78, 103
2, 721528, Note_off_c, 0, 78, 100
2, 721536, Note_on_c, 0, 74, 104
2, 721720, Note_off_c, 0, 74, 100
2, 721728, Note_on_c, 0, 78, 105
2, 721912, Note_off_c, 0, 78, 100
2, 721920, Note_on_c, 0, 67, 106
2, 722104, Note_off_c, 0, 67, 100
2, 722112, Note_on_c, 0, 79, 106
2, 722296, Note_off_c, 0, 79, 100
2, 722304, Note_on_c, 0, 76, 107
2, 722488, Note_off_c, 0, 76, 100
2, 722496, Note_on_c, 0, 79, 108
2, 722680, Note_off_c, 0, 79, 100
2, 722688, Note_on_c, 0, 69, 109
2, 722872, Note_off_c, 0, 69, 100
2, 722880, Note_on_c, 0, 81, 109
2, 723064, Note_off_c, 0, 81, 100
2, 723072, Note_on_c, 0, 78, 110
2, 723256, Note_off_c, 0, 78, 100
2, 723264, Note_on_c, 0, 81, 111
2, 723448, Note_off_c, 0, 81, 100
2, 723456, Note_on_c, 0, 74, 111
2, 723640, Note_off_c, 0, 74, 100
2, 723648, Note_on_c, 0, 86, 112
2, 723832, Note_off_c, 0, 86, 100
2, 723840, Note_on_c, 0, 78, 113
2, 724024, Note_off_c, 0, 78, 100
2, 724032, Note_on_c, 0, 86, 114
2, 724216, Note_off_c, 0, 86, 100
2, 724224, Note_on_c, 0, 74, 114
2, 724408, Note_off_c, 0, 74, 100
2, 724416, Note_on_c, 0, 86, 115
2, 724600, Note_off_c, 0, 86, 100
2, 724608, Note_on_c, 0, 78, 116
2, 724792, Note_off_c, 0, 78, 100
2, 724800, Note_on_c, 0, 86, 117
2, 724984, Note_off_c, 0, 86, 100
2, 724992, Note_on_c, 0, 76, 117
2, 725176, Note_off_c, 0, 76, 100
2, 725184, Note_on_c, 0, 86, 118
2, 725368, Note_off_c, 0, 86, 100
2, 725376, Note_on_c, 0, 79, 119
2, 725560, Note_off_c, 0, 79, 100
2, 725568, Note_on_c, 0, 86, 119
2, 725752, Note_off_c, 0, 86, 100
2, 725760, Note_on_c, 0, 80, 120
2, 725760, Note_on_c, 0, 77, 120
2, 725944, Note_off_c, 0, 80, 100
2, 725944, Note_off_c, 0, 77, 100
2, 725952, Note_on_c, 0, 86, 120
2, 726136, Note_off_c, 0, 86, 100
2, 726144, Note_on_c, 0, 78, 120
2, 726144, Note_on_c, 0, 81, 120
2, 726328, Note_off_c, 0, 78, 100
2, 726328, Note_off_c, 0, 81, 100
2, 726336, Note_on_c, 0, 86, 120
2, 726520, Note_off_c, 0, 86, 100
2, 726528, Note_on_c, 0, 78, 120
2, 726528, Note_on_c, 0, 74, 120
2, 726712, Note_off_c, 0, 78, 100
2, 726712, Note_off_c, 0, 74, 100
2, 726720, Note_on_c, 0, 86, 120
2, 726904, Note_off_c, 0, 86, 100
2, 726912, Note_on_c, 0, 79, 120
2, 726912, Note_on_c, 0, 76, 120
2, 727096, Note_off_c, 0, 79, 100
2, 727096, Note_off_c, 0, 76, 100
2, 727104, Note_on_c, 0, 86, 120
2, 727288, Note_off_c, 0, 86, 100
2, 727296, Note_on_c, 0, 80, 120
2, 727296, Note_on_c, 0, 77, 120
2, 727480, Note_off_c, 0, 80, 100
2, 727480, Note_off_c, 0, 77, 100
2, 727488, Note_on_c, 0, 86, 120
2, 727672, Note_off_c, 0, 86, 100
2, 727680, Note_on_c, 0, 78, 120
2, 727680, Note_on_c, 0, 81, 120
2, 727864, Note_off_c, 0, 78, 100
2, 727864, Note_off_c, 0, 81, 100
2, 727872, Note_on_c, 0, 86, 120
2, 728056, Note_off_c, 0, 86, 100
2, 728064, Note_on_c, 0, 78, 120
2, 728064, Note_on_c, 0, 74, 120
2, 728248, Note_off_c, 0, 78, 100
2, 728248, Note_off_c, 0, 74, 100
2, 728256, Note_on_c, 0, 86, 120
2, 728440, Note_off_c, 0, 86, 100
2, 728448, Note_on_c, 0, 79, 120
2, 728448, Note_on_c, 0, 76, 120
2, 728632, Note_off_c, 0, 79, 100
2, 728632, Note_off_c, 0, 76, 100
2, 728640, Note_on_c, 0, 86, 120
2, 728824, Note_off_c, 0, 86, 100
2, 728832, Note_on_c, 0, 86, 120
2, 728832, Note_on_c, 0, 81, 120
2, 728832, Note_on_c, 0, 78, 120
2, 729208, Note_off_c, 0, 86, 100
2, 729208, Note_off_c, 0, 81, 100
2, 729208, Note_off_c, 0, 78, 100
2, 729600, Note_on_c, 0, 86, 120
2, 729600, Note_on_c, 0, 78, 120
2, 729600, Note_on_c, 0, 74, 120
2, 730360, Note_off_c, 0, 86, 100
2, 730360, Note_off_c, 0, 78, 100
2, 730360, Note_off_c, 0, 74, 100
2, 730752, Control_c, 0, 7, 0
2, 731136, Note_on_c, 0, 74, 1
2, 731512, Note_off_c, 0, 74, 100
2, 731512, End_track
3, 0, Start_track
3, 0, Title_t, "Left"
3, 0, Control_c, 1, 0, 0
3, 0, Program_c, 1, 0
3, 0, Control_c, 1, 7, 100
3, 0, Control_c, 1, 10, 55
3, 0, Control_c, 1, 91, 127
3, 0, Key_signature, 2, "major"
3, 384, Note_on_c, 1, 38, 80
3, 760, Note_off_c, 1, 38, 100
3, 768, Note_on_c, 1, 37, 80
3, 1144, Note_off_c, 1, 37, 100
3, 1152, Note_on_c, 1, 35, 80
3, 1528, Note_off_c, 1, 35, 100
3, 1536, Note_on_c, 1, 33, 80
3, 1912, Note_off_c, 1, 33, 100
3, 1920, Note_on_c, 1, 37, 80
3, 2296, Note_off_c, 1, 37, 100
3, 2304, Note_on_c, 1, 38, 80
3, 2680, Note_off_c, 1, 38, 100
3, 2688, Note_on_c, 1, 42, 80
3, 3064, Note_off_c, 1, 42, 100
3, 3072, Note_on_c, 1, 45, 80
3, 3072, Note_on_c, 1, 33, 80
3, 3448, Note_off_c, 1, 45, 100
3, 3448, Note_off_c, 1, 33, 100
3, 3456, Note_on_c, 1, 49, 80
3, 3456, Note_on_c, 1, 37, 80
3, 3832, Note_off_c, 1, 49, 100
3, 3832, Note_off_c, 1, 37, 100
3, 3840, Note_on_c, 1, 50, 80
3, 3840, Note_on_c, 1, 38, 80
3, 4216, Note_off_c, 1, 50, 100
3, 4216, Note_off_c, 1, 38, 100
3, 4224, Note_on_c, 1, 52, 80
3, 4224, Note_on_c, 1, 40, 80
3, 4600, Note_off_c, 1, 52, 100
3, 4600, Note_off_c, 1, 40, 100
3, 4608, Note_on_c, 1, 54, 80
3, 4608, Note_on_c, 1, 42, 80
3, 4984, Note_off_c, 1, 54, 100
3, 4984, Note_off_c, 1, 42, 100
3, 4992, Note_on_c, 1, 55, 80
3, 4992, Note_on_c, 1, 43, 80
3, 5368, Note_off_c, 1, 55, 100
3, 5368, Note_off_c, 1, 43, 100
3, 5376, Note_on_c, 1, 57, 110
3, 5376, Note_on_c, 1, 45, 110
3, 8056, Note_off_c, 1, 45, 100
3, 8056, Note_off_c, 1, 57, 100
3, 8064, Note_on_c, 1, 66, 80
3, 8064, Note_on_c, 1, 69, 80
3, 8440, Note_off_c, 1, 66, 100
3, 8440, Note_off_c, 1, 69, 100
3, 8448, Note_on_c, 1, 67, 80
3, 8448, Note_on_c, 1, 64, 80
3, 8824, Note_off_c, 1, 67, 100
3, 8824, Note_off_c, 1, 64, 100
3, 8832, Note_on_c, 1, 66, 80
3, 8832, Note_on_c, 1, 62, 80
3, 9208, Note_off_c, 1, 66, 100
3, 9208, Note_off_c, 1, 62, 100
3, 9216, Note_on_c, 1, 64, 80
3, 9216, Note_on_c, 1, 61, 80
3, 9592, Note_off_c, 1, 64, 100
3, 9592, Note_off_c, 1, 61, 100
3, 9600, Note_on_c, 1, 62, 80
3, 9600, Note_on_c, 1, 66, 80
3, 9976, Note_off_c, 1, 62, 100
3, 9976, Note_off_c, 1, 66, 100
3, 9984, Note_on_c, 1, 64, 80
3, 9984, Note_on_c, 1, 61, 80
3, 10360, Note_off_c, 1, 64, 100
3, 10360, Note_off_c, 1, 61, 100
3, 10368, Note_on_c, 1, 62, 80
3, 10368, Note_on_c, 1, 59, 80
3, 10744, Note_off_c, 1, 62, 100
3, 10744, Note_off_c, 1, 59, 100
3, 10752, Note_on_c, 1, 61, 80
3, 10752, Note_on_c, 1, 57, 80
3, 11128, Note_off_c, 1, 61, 100
3, 11128, Note_off_c, 1, 57, 100
3, 11136, Note_on_c, 1, 62, 80
3, 11136, Note_on_c, 1, 59, 80
3, 11512, Note_off_c, 1, 62, 100
3, 11512, Note_off_c, 1, 59, 100
3, 11520, Note_on_c, 1, 61, 80
3, 11520, Note_on_c, 1, 57, 80
3, 11896, Note_off_c, 1, 61, 100
3, 11896, Note_off_c, 1, 57, 100
3, 11904, Note_on_c, 1, 59, 80
3, 11904, Note_on_c, 1, 55, 80
3, 12280, Note_off_c, 1, 59, 100
3, 12280, Note_off_c, 1, 55, 100
3, 12288, Note_on_c, 1, 57, 80
3, 12288, Note_on_c, 1, 54, 80
3, 12664, Note_off_c, 1, 57, 100
3, 12664, Note_off_c, 1, 54, 100
3, 12672, Note_on_c, 1, 59, 80
3, 12672, Note_on_c, 1, 55, 80
3, 13048, Note_off_c, 1, 59, 100
3, 13048, Note_off_c, 1, 55, 100
3, 13056, Note_on_c, 1, 57, 80
3, 13056, Note_on_c, 1, 54, 80
3, 13432, Note_off_c, 1, 57, 100
3, 13432, Note_off_c, 1, 54, 100
3, 13440, Note_on_c, 1, 55, 80
3, 13440, Note_on_c, 1, 52, 80
3, 13816, Note_off_c, 1, 55, 100
3, 13816, Note_off_c, 1, 52, 100
3, 13824, Note_on_c, 1, 54, 80
3, 13824, Note_on_c, 1, 50, 80
3, 14200, Note_off_c, 1, 54, 100
3, 14200, Note_off_c, 1, 50, 100
3, 14592, Note_on_c, 1, 55, 80
3, 14592, Note_on_c, 1, 43, 80
3, 14968, Note_off_c, 1, 55, 100
3, 14968, Note_off_c, 1, 43, 100
3, 15360, Note_on_c, 1, 57, 80
3, 15360, Note_on_c, 1, 45, 80
3, 15736, Note_off_c, 1, 57, 100
3, 15736, Note_off_c, 1, 45, 100
3, 16128, Note_on_c, 1, 50, 80
3, 16128, Note_on_c, 1, 38, 80
3, 16504, Note_off_c, 1, 50, 100
3, 16504, Note_off_c, 1, 38, 100
3, 18816, Note_on_c, 1, 45, 110
3, 18816, Note_on_c, 1, 33, 110
3, 19192, Note_off_c, 1, 45, 100
3, 19192, Note_off_c, 1, 33, 100
3, 19200, Note_on_c, 1, 45, 120
3, 19200, Note_on_c, 1, 33, 120
3, 21880, Note_off_c, 1, 33, 100
3, 21880, Note_off_c, 1, 45, 100
3, 21888, Note_on_c, 1, 46, 110
3, 21888, Note_on_c, 1, 34, 110
3, 22264, Note_off_c, 1, 46, 100
3, 22264, Note_off_c, 1, 34, 100
3, 22272, Note_on_c, 1, 47, 110
3, 22272, Note_on_c, 1, 35, 110
3, 22648, Note_off_c, 1, 47, 100
3, 22648, Note_off_c, 1, 35, 100
3, 22656, Note_on_c, 1, 45, 110
3, 22656, Note_on_c, 1, 33, 110
3, 23032, Note_off_c, 1, 45, 100
3, 23032, Note_off_c, 1, 33, 100
3, 23040, Note_on_c, 1, 43, 110
3, 23040, Note_on_c, 1, 31, 110
3, 23416, Note_off_c, 1, 43, 100
3, 23416, Note_off_c, 1, 31, 100
3, 23424, Note_on_c, 1, 42, 110
3, 23424, Note_on_c, 1, 30, 110
3, 23800, Note_off_c, 1, 42, 100
3, 23800, Note_off_c, 1, 30, 100
3, 23808, Note_on_c, 1, 40, 110
3, 23808, Note_on_c, 1, 28, 110
3, 24184, Note_off_c, 1, 40, 100
3, 24184, Note_off_c, 1, 28, 100
3, 24576, Note_on_c, 1, 45, 110
3, 24576, Note_on_c, 1, 33, 110
3, 24952, Note_off_c, 1, 45, 100
3, 24952, Note_off_c, 1, 33, 100
3, 25344, Note_on_c, 1, 50, 110
3, 25344, Note_on_c, 1, 38, 110
3, 25720, Note_off_c, 1, 50, 100
3, 25720, Note_off_c, 1, 38, 100
3, 26496, Note_on_c, 1, 38, 100
3, 26872, Note_off_c, 1, 38, 100
3, 26880, Note_on_c, 1, 37, 100
3, 27256, Note_off_c, 1, 37, 100
3, 27264, Note_on_c, 1, 35, 100
3, 27640, Note_off_c, 1, 35, 100
3, 27648, Note_on_c, 1, 33, 100
3, 28024, Note_off_c, 1, 33, 100
3, 28032, Note_on_c, 1, 37, 100
3, 28408, Note_off_c, 1, 37, 100
3, 28416, Note_on_c, 1, 38, 100
3, 28792, Note_off_c, 1, 38, 100
3, 28800, Note_on_c, 1, 42, 100
3, 29176, Note_off_c, 1, 42, 100
3, 29184, Note_on_c, 1, 45, 100
3, 29184, Note_on_c, 1, 33, 100
3, 29560, Note_off_c, 1, 45, 100
3, 29560, Note_off_c, 1, 33, 100
3, 29568, Note_on_c, 1, 49, 102
3, 29568, Note_on_c, 1, 37, 102
3, 29944, Note_off_c, 1, 49, 100
3, 29944, Note_off_c, 1, 37, 100
3, 29952, Note_on_c, 1, 50, 104
3, 29952, Note_on_c, 1, 38, 104
3, 30328, Note_off_c, 1, 50, 100
3, 30328, Note_off_c, 1, 38, 100
3, 30336, Note_on_c, 1, 52, 106
3, 30336, Note_on_c, 1, 40, 106
3, 30712, Note_off_c, 1, 52, 100
3, 30712, Note_off_c, 1, 40, 100
3, 30720, Note_on_c, 1, 54, 108
3, 30720, Note_on_c, 1, 42, 108
3, 31096, Note_off_c, 1, 54, 100
3, 31096, Note_off_c, 1, 42, 100
3, 31104, Note_on_c, 1, 55, 110
3, 31104, Note_on_c, 1, 43, 110
3, 31480, Note_off_c, 1, 55, 100
3, 31480, Note_off_c, 1, 43, 100
3, 31488, Note_on_c, 1, 57, 112
3, 31488, Note_on_c, 1, 45, 112
3, 31864, Note_off_c, 1, 57, 100
3, 31864, Note_off_c, 1, 45, 100
3, 31872, Note_on_c, 1, 58, 114
3, 31872, Note_on_c, 1, 46, 114
3, 32248, Note_off_c, 1, 58, 100
3, 32248, Note_off_c, 1, 46, 100
3, 32256, Note_on_c, 1, 59, 116
3, 32256, Note_on_c, 1, 47, 116
3, 32632, Note_off_c, 1, 59, 100
3, 32632, Note_off_c, 1, 47, 100
3, 32640, Note_on_c, 1, 61, 118
3, 32640, Note_on_c, 1, 49, 118
3, 33016, Note_off_c, 1, 61, 100
3, 33016, Note_off_c, 1, 49, 100
3, 33024, Note_on_c, 1, 62, 120
3, 33024, Note_on_c, 1, 50, 120
3, 33400, Note_off_c, 1, 62, 100
3, 33400, Note_off_c, 1, 50, 100
3, 33792, Note_on_c, 1, 52, 120
3, 33792, Note_on_c, 1, 64, 120
3, 34168, Note_off_c, 1, 52, 100
3, 34168, Note_off_c, 1, 64, 100
3, 34560, Note_on_c, 1, 54, 120
3, 34560, Note_on_c, 1, 66, 120
3, 37240, Note_off_c, 1, 54, 100
3, 37240, Note_off_c, 1, 66, 100
3, 37632, Note_on_c, 1, 47, 100
3, 37816, Note_off_c, 1, 47, 100
3, 37824, Note_on_c, 1, 50, 100
3, 38008, Note_off_c, 1, 50, 100
3, 38016, Note_on_c, 1, 54, 100
3, 38200, Note_off_c, 1, 54, 100
3, 38208, Note_on_c, 1, 59, 100
3, 38392, Note_off_c, 1, 59, 100
3, 38400, Note_on_c, 1, 46, 100
3, 38584, Note_off_c, 1, 46, 100
3, 38592, Note_on_c, 1, 52, 100
3, 38776, Note_off_c, 1, 52, 100
3, 38784, Note_on_c, 1, 54, 100
3, 38968, Note_off_c, 1, 54, 100
3, 38976, Note_on_c, 1, 61, 100
3, 39160, Note_off_c, 1, 61, 100
3, 39168, Note_on_c, 1, 47, 100
3, 39352, Note_off_c, 1, 47, 100
3, 39360, Note_on_c, 1, 50, 100
3, 39544, Note_off_c, 1, 50, 100
3, 39552, Note_on_c, 1, 54, 100
3, 39736, Note_off_c, 1, 54, 100
3, 39744, Note_on_c, 1, 59, 100
3, 39928, Note_off_c, 1, 59, 100
3, 39936, Note_on_c, 1, 47, 100
3, 40120, Note_off_c, 1, 47, 100
3, 40128, Note_on_c, 1, 50, 100
3, 40312, Note_off_c, 1, 50, 100
3, 40320, Note_on_c, 1, 54, 100
3, 40504, Note_off_c, 1, 54, 100
3, 40512, Note_on_c, 1, 59, 100
3, 40696, Note_off_c, 1, 59, 100
3, 40704, Note_on_c, 1, 49, 100
3, 40888, Note_off_c, 1, 49, 100
3, 40896, Note_on_c, 1, 52, 100
3, 41080, Note_off_c, 1, 52, 100
3, 41088, Note_on_c, 1, 54, 100
3, 41272, Note_off_c, 1, 54, 100
3, 41280, Note_on_c, 1, 58, 100
3, 41464, Note_off_c, 1, 58, 100
3, 41472, Note_on_c, 1, 47, 100
3, 41656, Note_off_c, 1, 47, 100
3, 41664, Note_on_c, 1, 50, 100
3, 41848, Note_off_c, 1, 50, 100
3, 41856, Note_on_c, 1, 54, 100
3, 42040, Note_off_c, 1, 54, 100
3, 42048, Note_on_c, 1, 59, 100
3, 42232, Note_off_c, 1, 59, 100
3, 42240, Note_on_c, 1, 42, 100
3, 42424, Note_off_c, 1, 42, 100
3, 42432, Note_on_c, 1, 49, 100
3, 42616, Note_off_c, 1, 49, 100
3, 42624, Note_on_c, 1, 54, 100
3, 42808, Note_off_c, 1, 54, 100
3, 42816, Note_on_c, 1, 58, 100
3, 43000, Note_off_c, 1, 58, 100
3, 43008, Note_on_c, 1, 42, 100
3, 43192, Note_off_c, 1, 42, 100
3, 43200, Note_on_c, 1, 49, 100
3, 43384, Note_off_c, 1, 49, 100
3, 43392, Note_on_c, 1, 54, 100
3, 43576, Note_off_c, 1, 54, 100
3, 43584, Note_on_c, 1, 59, 100
3, 43768, Note_off_c, 1, 59, 100
3, 43776, Note_on_c, 1, 47, 100
3, 43960, Note_off_c, 1, 47, 100
3, 43968, Note_on_c, 1, 50, 100
3, 44152, Note_off_c, 1, 50, 100
3, 44160, Note_on_c, 1, 54, 100
3, 44344, Note_off_c, 1, 54, 100
3, 44352, Note_on_c, 1, 59, 100
3, 44536, Note_off_c, 1, 59, 100
3, 44544, Note_on_c, 1, 46, 100
3, 44728, Note_off_c, 1, 46, 100
3, 44736, Note_on_c, 1, 52, 100
3, 44920, Note_off_c, 1, 52, 100
3, 44928, Note_on_c, 1, 54, 100
3, 45112, Note_off_c, 1, 54, 100
3, 45120, Note_on_c, 1, 61, 100
3, 45304, Note_off_c, 1, 61, 100
3, 45312, Note_on_c, 1, 47, 100
3, 45496, Note_off_c, 1, 47, 100
3, 45504, Note_on_c, 1, 50, 100
3, 45688, Note_off_c, 1, 50, 100
3, 45696, Note_on_c, 1, 54, 100
3, 45880, Note_off_c, 1, 54, 100
3, 45888, Note_on_c, 1, 59, 100
3, 46072, Note_off_c, 1, 59, 100
3, 46080, Note_on_c, 1, 50, 100
3, 46264, Note_off_c, 1, 50, 100
3, 46272, Note_on_c, 1, 54, 100
3, 46456, Note_off_c, 1, 54, 100
3, 46464, Note_on_c, 1, 59, 100
3, 46648, Note_off_c, 1, 59, 100
3, 46656, Note_on_c, 1, 54, 100
3, 46840, Note_off_c, 1, 54, 100
3, 46848, Note_on_c, 1, 49, 100
3, 47032, Note_off_c, 1, 49, 100
3, 47040, Note_on_c, 1, 54, 100
3, 47224, Note_off_c, 1, 54, 100
3, 47232, Note_on_c, 1, 57, 100
3, 47416, Note_off_c, 1, 57, 100
3, 47424, Note_on_c, 1, 54, 100
3, 47608, Note_off_c, 1, 54, 100
3, 47616, Note_on_c, 1, 49, 100
3, 47800, Note_off_c, 1, 49, 100
3, 47808, Note_on_c, 1, 53, 100
3, 47992, Note_off_c, 1, 53, 100
3, 48000, Note_on_c, 1, 56, 100
3, 48184, Note_off_c, 1, 56, 100
3, 48192, Note_on_c, 1, 53, 100
3, 48376, Note_off_c, 1, 53, 100
3, 48384, Note_on_c, 1, 42, 100
3, 48568, Note_off_c, 1, 42, 100
3, 48576, Note_on_c, 1, 45, 100
3, 48760, Note_off_c, 1, 45, 100
3, 48768, Note_on_c, 1, 49, 100
3, 48952, Note_off_c, 1, 49, 100
3, 48960, Note_on_c, 1, 54, 100
3, 49144, Note_off_c, 1, 54, 100
3, 49152, Note_on_c, 1, 42, 100
3, 49528, Note_off_c, 1, 42, 100
3, 49920, Note_on_c, 1, 49, 100
3, 50304, Note_on_c, 1, 56, 111
3, 50304, Note_on_c, 1, 59, 111
3, 51064, Note_off_c, 1, 56, 100
3, 51064, Note_off_c, 1, 59, 100
3, 51072, Note_on_c, 1, 57, 100
3, 51072, Note_on_c, 1, 54, 100
3, 51448, Note_off_c, 1, 57, 100
3, 51448, Note_off_c, 1, 54, 100
3, 51456, Note_on_c, 1, 56, 100
3, 51456, Note_on_c, 1, 53, 100
3, 51832, Note_off_c, 1, 49, 100
3, 51832, Note_off_c, 1, 56, 100
3, 51832, Note_off_c, 1, 53, 100
3, 52992, Note_on_c, 1, 57, 100
3, 52992, Note_on_c, 1, 54, 100
3, 53368, Note_off_c, 1, 57, 100
3, 53368, Note_off_c, 1, 54, 100
3, 53376, Note_on_c, 1, 57, 100
3, 53376, Note_on_c, 1, 54, 100
3, 53752, Note_off_c, 1, 57, 100
3, 53752, Note_off_c, 1, 54, 100
3, 53760, Note_on_c, 1, 56, 100
3, 53760, Note_on_c, 1, 59, 100
3, 54136, Note_off_c, 1, 56, 100
3, 54136, Note_off_c, 1, 59, 100
3, 54144, Note_on_c, 1, 59, 100
3, 54144, Note_on_c, 1, 56, 100
3, 54520, Note_off_c, 1, 59, 100
3, 54520, Note_off_c, 1, 56, 100
3, 54528, Note_on_c, 1, 57, 100
3, 54528, Note_on_c, 1, 61, 100
3, 54904, Note_off_c, 1, 57, 100
3, 54904, Note_off_c, 1, 61, 100
3, 56064, Note_on_c, 1, 52, 100
3, 56448, Note_on_c, 1, 59, 110
3, 56448, Note_on_c, 1, 62, 110
3, 57208, Note_off_c, 1, 59, 100
3, 57208, Note_off_c, 1, 62, 100
3, 57216, Note_on_c, 1, 57, 100
3, 57216, Note_on_c, 1, 61, 100
3, 57592, Note_off_c, 1, 57, 100
3, 57592, Note_off_c, 1, 61, 100
3, 57600, Note_on_c, 1, 56, 100
3, 57600, Note_on_c, 1, 59, 100
3, 57976, Note_off_c, 1, 52, 100
3, 57976, Note_off_c, 1, 56, 100
3, 57976, Note_off_c, 1, 59, 100
3, 59136, Note_on_c, 1, 57, 100
3, 59136, Note_on_c, 1, 61, 100
3, 59512, Note_off_c, 1, 57, 100
3, 59512, Note_off_c, 1, 61, 100
3, 59520, Note_on_c, 1, 61, 100
3, 59520, Note_on_c, 1, 57, 100
3, 59896, Note_off_c, 1, 61, 100
3, 59896, Note_off_c, 1, 57, 100
3, 59904, Note_on_c, 1, 59, 100
3, 59904, Note_on_c, 1, 62, 100
3, 60280, Note_off_c, 1, 59, 100
3, 60280, Note_off_c, 1, 62, 100
3, 60288, Note_on_c, 1, 62, 100
3, 60288, Note_on_c, 1, 59, 100
3, 60664, Note_off_c, 1, 62, 100
3, 60664, Note_off_c, 1, 59, 100
3, 60672, Note_on_c, 1, 61, 100
3, 60672, Note_on_c, 1, 64, 100
3, 61048, Note_off_c, 1, 61, 100
3, 61048, Note_off_c, 1, 64, 100
3, 62400, Note_on_c, 1, 62, 100
3, 62584, Note_off_c, 1, 62, 100
3, 62592, Note_on_c, 1, 61, 100
3, 62776, Note_off_c, 1, 61, 100
3, 62784, Note_on_c, 1, 62, 100
3, 62968, Note_off_c, 1, 62, 100
3, 62976, Note_on_c, 1, 64, 100
3, 63160, Note_off_c, 1, 64, 100
3, 63168, Note_on_c, 1, 66, 100
3, 63352, Note_off_c, 1, 66, 100
3, 63360, Note_on_c, 1, 68, 100
3, 63544, Note_off_c, 1, 68, 100
3, 63552, Note_on_c, 1, 69, 100
3, 63736, Note_off_c, 1, 69, 100
3, 63744, Note_on_c, 1, 71, 100
3, 65464, Note_off_c, 1, 71, 100
3, 65472, Note_on_c, 1, 71, 100
3, 65656, Note_off_c, 1, 71, 100
3, 65664, Note_on_c, 1, 70, 101
3, 65848, Note_off_c, 1, 70, 100
3, 65856, Note_on_c, 1, 71, 101
3, 66040, Note_off_c, 1, 71, 100
3, 66048, Note_on_c, 1, 73, 102
3, 66232, Note_off_c, 1, 73, 100
3, 66240, Note_on_c, 1, 74, 103
3, 66424, Note_off_c, 1, 74, 100
3, 67008, Note_on_c, 1, 64, 105
3, 67192, Note_off_c, 1, 64, 100
3, 67200, Note_on_c, 1, 63, 106
3, 67384, Note_off_c, 1, 63, 100
3, 67392, Note_on_c, 1, 64, 106
3, 67576, Note_off_c, 1, 64, 100
3, 67584, Note_on_c, 1, 66, 107
3, 67768, Note_off_c, 1, 66, 100
3, 67776, Note_on_c, 1, 68, 108
3, 67960, Note_off_c, 1, 68, 100
3, 67968, Note_on_c, 1, 69, 108
3, 68152, Note_off_c, 1, 69, 100
3, 68160, Note_on_c, 1, 71, 109
3, 68344, Note_off_c, 1, 71, 100
3, 68544, Note_on_c, 1, 57, 110
3, 68728, Note_off_c, 1, 57, 100
3, 68736, Note_on_c, 1, 56, 111
3, 68920, Note_off_c, 1, 56, 100
3, 68928, Note_on_c, 1, 57, 111
3, 69112, Note_off_c, 1, 57, 100
3, 69120, Note_on_c, 1, 59, 112
3, 69304, Note_off_c, 1, 59, 100
3, 69312, Note_on_c, 1, 61, 113
3, 69496, Note_off_c, 1, 61, 100
3, 69504, Note_on_c, 1, 62, 113
3, 69688, Note_off_c, 1, 62, 100
3, 69696, Note_on_c, 1, 64, 114
3, 69880, Note_off_c, 1, 64, 100
3, 69888, Note_on_c, 1, 65, 115
3, 70072, Note_off_c, 1, 65, 100
3, 70080, Note_on_c, 1, 49, 115
3, 70264, Note_off_c, 1, 49, 100
3, 70272, Note_on_c, 1, 48, 116
3, 70456, Note_off_c, 1, 48, 100
3, 70464, Note_on_c, 1, 49, 116
3, 70648, Note_off_c, 1, 49, 100
3, 70656, Note_on_c, 1, 51, 117
3, 70840, Note_off_c, 1, 51, 100
3, 70848, Note_on_c, 1, 53, 118
3, 71032, Note_off_c, 1, 53, 100
3, 71040, Note_on_c, 1, 54, 118
3, 71224, Note_off_c, 1, 54, 100
3, 71232, Note_on_c, 1, 56, 119
3, 71416, Note_off_c, 1, 56, 100
3, 71424, Note_on_c, 1, 54, 120
3, 71608, Note_off_c, 1, 54, 100
3, 71616, Note_on_c, 1, 57, 119
3, 71800, Note_off_c, 1, 57, 100
3, 71808, Note_on_c, 1, 54, 118
3, 71992, Note_off_c, 1, 54, 100
3, 72000, Note_on_c, 1, 57, 117
3, 72184, Note_off_c, 1, 57, 100
3, 72192, Note_on_c, 1, 54, 115
3, 72376, Note_off_c, 1, 54, 100
3, 72384, Note_on_c, 1, 57, 114
3, 72568, Note_off_c, 1, 57, 100
3, 72576, Note_on_c, 1, 54, 113
3, 72760, Note_off_c, 1, 54, 100
3, 72768, Note_on_c, 1, 57, 112
3, 72952, Note_off_c, 1, 57, 100
3, 72960, Note_on_c, 1, 42, 110
3, 73144, Note_off_c, 1, 42, 100
3, 73152, Note_on_c, 1, 50, 109
3, 73336, Note_off_c, 1, 50, 100
3, 73344, Note_on_c, 1, 42, 108
3, 73528, Note_off_c, 1, 42, 100
3, 73536, Note_on_c, 1, 50, 107
3, 73720, Note_off_c, 1, 50, 100
3, 73728, Note_on_c, 1, 42, 105
3, 73912, Note_off_c, 1, 42, 100
3, 73920, Note_on_c, 1, 50, 104
3, 74104, Note_off_c, 1, 50, 100
3, 74112, Note_on_c, 1, 42, 103
3, 74296, Note_off_c, 1, 42, 100
3, 74304, Note_on_c, 1, 50, 102
3, 74488, Note_off_c, 1, 50, 100
3, 74496, Note_on_c, 1, 40, 100
3, 74680, Note_off_c, 1, 40, 100
3, 74688, Note_on_c, 1, 52, 100
3, 74872, Note_off_c, 1, 52, 100
3, 74880, Note_on_c, 1, 40, 101
3, 75064, Note_off_c, 1, 40, 100
3, 75072, Note_on_c, 1, 52, 101
3, 75256, Note_off_c, 1, 52, 100
3, 75264, Note_on_c, 1, 40, 102
3, 75448, Note_off_c, 1, 40, 100
3, 75456, Note_on_c, 1, 52, 103
3, 75640, Note_off_c, 1, 52, 100
3, 75648, Note_on_c, 1, 40, 103
3, 75832, Note_off_c, 1, 40, 100
3, 75840, Note_on_c, 1, 52, 104
3, 76024, Note_off_c, 1, 52, 100
3, 76032, Note_on_c, 1, 40, 100
3, 76216, Note_off_c, 1, 40, 100
3, 76224, Note_on_c, 1, 52, 100
3, 76408, Note_off_c, 1, 52, 100
3, 76416, Note_on_c, 1, 40, 100
3, 76600, Note_off_c, 1, 40, 100
3, 76608, Note_on_c, 1, 52, 100
3, 76792, Note_off_c, 1, 52, 100
3, 76800, Note_on_c, 1, 38, 100
3, 76984, Note_off_c, 1, 38, 100
3, 76992, Note_on_c, 1, 50, 100
3, 77176, Note_off_c, 1, 50, 100
3, 77184, Note_on_c, 1, 38, 100
3, 77368, Note_off_c, 1, 38, 100
3, 77376, Note_on_c, 1, 50, 100
3, 77560, Note_off_c, 1, 50, 100
3, 77568, Note_on_c, 1, 37, 100
3, 77752, Note_off_c, 1, 37, 100
3, 77760, Note_on_c, 1, 45, 100
3, 77944, Note_off_c, 1, 45, 100
3, 77952, Note_on_c, 1, 37, 101
3, 78136, Note_off_c, 1, 37, 100
3, 78144, Note_on_c, 1, 45, 101
3, 78328, Note_off_c, 1, 45, 100
3, 78336, Note_on_c, 1, 37, 102
3, 78520, Note_off_c, 1, 37, 100
3, 78528, Note_on_c, 1, 45, 103
3, 78712, Note_off_c, 1, 45, 100
3, 78720, Note_on_c, 1, 37, 103
3, 78904, Note_off_c, 1, 37, 100
3, 78912, Note_on_c, 1, 45, 104
3, 79096, Note_off_c, 1, 45, 100
3, 79104, Note_on_c, 1, 38, 105
3, 79288, Note_off_c, 1, 38, 100
3, 79296, Note_on_c, 1, 45, 105
3, 79480, Note_off_c, 1, 45, 100
3, 79488, Note_on_c, 1, 38, 106
3, 79672, Note_off_c, 1, 38, 100
3, 79680, Note_on_c, 1, 45, 106
3, 79864, Note_off_c, 1, 45, 100
3, 79872, Note_on_c, 1, 39, 107
3, 80056, Note_off_c, 1, 39, 100
3, 80064, Note_on_c, 1, 45, 108
3, 80248, Note_off_c, 1, 45, 100
3, 80256, Note_on_c, 1, 39, 108
3, 80440, Note_off_c, 1, 39, 100
3, 80448, Note_on_c, 1, 45, 109
3, 80632, Note_off_c, 1, 45, 100
3, 80640, Note_on_c, 1, 40, 110
3, 80824, Note_off_c, 1, 40, 100
3, 80832, Note_on_c, 1, 45, 110
3, 81016, Note_off_c, 1, 45, 100
3, 81024, Note_on_c, 1, 40, 110
3, 81208, Note_off_c, 1, 40, 100
3, 81216, Note_on_c, 1, 45, 110
3, 81400, Note_off_c, 1, 45, 100
3, 81408, Note_on_c, 1, 40, 110
3, 81592, Note_off_c, 1, 40, 100
3, 81600, Note_on_c, 1, 45, 110
3, 81784, Note_off_c, 1, 45, 100
3, 81792, Note_on_c, 1, 40, 110
3, 81976, Note_off_c, 1, 40, 100
3, 81984, Note_on_c, 1, 45, 110
3, 82168, Note_off_c, 1, 45, 100
3, 82176, Note_on_c, 1, 40, 110
3, 82360, Note_off_c, 1, 40, 100
3, 82368, Note_on_c, 1, 45, 110
3, 82552, Note_off_c, 1, 45, 100
3, 82560, Note_on_c, 1, 40, 110
3, 82744, Note_off_c, 1, 40, 100
3, 82752, Note_on_c, 1, 45, 110
3, 82936, Note_off_c, 1, 45, 100
3, 82944, Note_on_c, 1, 40, 110
3, 83128, Note_off_c, 1, 40, 100
3, 83136, Note_on_c, 1, 44, 110
3, 83320, Note_off_c, 1, 44, 100
3, 83328, Note_on_c, 1, 40, 110
3, 83512, Note_off_c, 1, 40, 100
3, 83520, Note_on_c, 1, 44, 110
3, 83704, Note_off_c, 1, 44, 100
3, 83712, Note_on_c, 1, 45, 110
3, 84088, Note_off_c, 1, 45, 100
3, 84096, Note_on_c, 1, 33, 110
3, 84472, Note_off_c, 1, 33, 100
3, 84864, Note_on_c, 1, 61, 80
3, 84864, Note_on_c, 1, 57, 80
3, 85240, Note_off_c, 1, 61, 100
3, 85240, Note_off_c, 1, 57, 100
3, 85248, Note_on_c, 1, 59, 80
3, 85248, Note_on_c, 1, 62, 80
3, 85624, Note_off_c, 1, 59, 100
3, 85624, Note_off_c, 1, 62, 100
3, 85632, Note_on_c, 1, 52, 80
3, 86008, Note_off_c, 1, 52, 100
3, 86400, Note_on_c, 1, 57, 80
3, 86400, Note_on_c, 1, 61, 80
3, 86776, Note_off_c, 1, 57, 100
3, 86776, Note_off_c, 1, 61, 100
3, 86784, Note_on_c, 1, 59, 80
3, 86784, Note_on_c, 1, 56, 80
3, 87160, Note_off_c, 1, 59, 100
3, 87160, Note_off_c, 1, 56, 100
3, 87168, Note_on_c, 1, 52, 80
3, 87544, Note_off_c, 1, 52, 100
3, 87936, Note_on_c, 1, 57, 80
3, 87936, Note_on_c, 1, 61, 80
3, 88312, Note_off_c, 1, 57, 100
3, 88312, Note_off_c, 1, 61, 100
3, 88320, Note_on_c, 1, 59, 80
3, 88320, Note_on_c, 1, 62, 80
3, 88696, Note_off_c, 1, 59, 100
3, 88696, Note_off_c, 1, 62, 100
3, 88704, Note_on_c, 1, 52, 80
3, 89080, Note_off_c, 1, 52, 100
3, 89472, Note_on_c, 1, 54, 80
3, 89848, Note_off_c, 1, 54, 100
3, 90240, Note_on_c, 1, 50, 80
3, 90616, Note_off_c, 1, 50, 100
3, 91008, Note_on_c, 1, 47, 80
3, 91384, Note_off_c, 1, 47, 100
3, 91776, Note_on_c, 1, 44, 80
3, 92152, Note_off_c, 1, 44, 100
3, 92544, Note_on_c, 1, 45, 80
3, 92920, Note_off_c, 1, 45, 100
3, 93312, Note_on_c, 1, 38, 80
3, 93688, Note_off_c, 1, 38, 100
3, 94080, Note_on_c, 1, 40, 80
3, 94456, Note_off_c, 1, 40, 100
3, 94464, Note_on_c, 1, 45, 80
3, 94840, Note_off_c, 1, 45, 100
3, 94848, Note_on_c, 1, 33, 80
3, 95224, Note_off_c, 1, 33, 100
3, 95616, Note_on_c, 1, 69, 80
3, 95616, Note_on_c, 1, 72, 80
3, 95992, Note_off_c, 1, 69, 100
3, 95992, Note_off_c, 1, 72, 100
3, 96000, Note_on_c, 1, 71, 80
3, 96000, Note_on_c, 1, 74, 80
3, 96376, Note_off_c, 1, 71, 100
3, 96376, Note_off_c, 1, 74, 100
3, 96384, Note_on_c, 1, 64, 80
3, 96760, Note_off_c, 1, 64, 100
3, 97152, Note_on_c, 1, 72, 80
3, 97152, Note_on_c, 1, 69, 80
3, 97528, Note_off_c, 1, 72, 100
3, 97528, Note_off_c, 1, 69, 100
3, 97536, Note_on_c, 1, 71, 80
3, 97536, Note_on_c, 1, 68, 80
3, 97912, Note_off_c, 1, 71, 100
3, 97912, Note_off_c, 1, 68, 100
3, 97920, Note_on_c, 1, 64, 80
3, 98296, Note_off_c, 1, 64, 100
3, 98688, Note_on_c, 1, 69, 80
3, 98688, Note_on_c, 1, 72, 80
3, 99064, Note_off_c, 1, 69, 100
3, 99064, Note_off_c, 1, 72, 100
3, 99072, Note_on_c, 1, 71, 80
3, 99072, Note_on_c, 1, 74, 80
3, 99448, Note_off_c, 1, 71, 100
3, 99448, Note_off_c, 1, 74, 100
3, 99456, Note_on_c, 1, 64, 80
3, 99832, Note_off_c, 1, 64, 100
3, 100224, Note_on_c, 1, 65, 80
3, 100480, Note_off_c, 1, 65, 100
3, 100992, Note_on_c, 1, 62, 80
3, 101248, Note_off_c, 1, 62, 100
3, 101760, Note_on_c, 1, 59, 80
3, 102016, Note_off_c, 1, 59, 100
3, 102528, Note_on_c, 1, 56, 80
3, 102784, Note_off_c, 1, 56, 100
3, 104832, Note_on_c, 1, 69, 80
3, 105208, Note_off_c, 1, 69, 100
3, 105216, Note_on_c, 1, 68, 80
3, 105592, Note_off_c, 1, 68, 100
3, 105600, Note_on_c, 1, 66, 80
3, 105976, Note_off_c, 1, 66, 100
3, 105984, Note_on_c, 1, 64, 80
3, 106360, Note_off_c, 1, 64, 100
3, 106368, Note_on_c, 1, 69, 80
3, 106744, Note_off_c, 1, 69, 100
3, 106752, Note_on_c, 1, 68, 80
3, 107128, Note_off_c, 1, 68, 100
3, 107136, Note_on_c, 1, 66, 80
3, 107512, Note_off_c, 1, 66, 100
3, 107520, Note_on_c, 1, 64, 80
3, 107896, Note_off_c, 1, 64, 100
3, 107904, Note_on_c, 1, 69, 80
3, 108280, Note_off_c, 1, 69, 100
3, 108288, Note_on_c, 1, 62, 80
3, 108664, Note_off_c, 1, 62, 100
3, 108672, Note_on_c, 1, 63, 80
3, 109048, Note_off_c, 1, 63, 100
3, 109056, Note_on_c, 1, 64, 80
3, 109432, Note_off_c, 1, 64, 100
3, 109440, Note_on_c, 1, 52, 80
3, 109816, Note_off_c, 1, 52, 100
3, 109824, Note_on_c, 1, 57, 80
3, 110200, Note_off_c, 1, 57, 100
3, 110208, Note_on_c, 1, 52, 80
3, 110584, Note_off_c, 1, 52, 100
3, 110592, Note_on_c, 1, 49, 80
3, 110968, Note_off_c, 1, 49, 100
3, 110976, Note_on_c, 1, 45, 70
3, 111352, Note_off_c, 1, 45, 100
3, 111360, Note_on_c, 1, 44, 71
3, 111736, Note_off_c, 1, 44, 100
3, 111744, Note_on_c, 1, 42, 72
3, 112120, Note_off_c, 1, 42, 100
3, 112128, Note_on_c, 1, 40, 74
3, 112504, Note_off_c, 1, 40, 100
3, 112512, Note_on_c, 1, 45, 75
3, 112888, Note_off_c, 1, 45, 100
3, 112896, Note_on_c, 1, 44, 77
3, 113272, Note_off_c, 1, 44, 100
3, 113280, Note_on_c, 1, 42, 78
3, 113656, Note_off_c, 1, 42, 100
3, 113664, Note_on_c, 1, 40, 79
3, 114040, Note_off_c, 1, 40, 100
3, 114048, Note_on_c, 1, 43, 81
3, 114424, Note_off_c, 1, 43, 100
3, 114432, Note_on_c, 1, 42, 82
3, 114808, Note_off_c, 1, 42, 100
3, 114816, Note_on_c, 1, 40, 84
3, 115192, Note_off_c, 1, 40, 100
3, 115200, Note_on_c, 1, 38, 85
3, 115576, Note_off_c, 1, 38, 100
3, 115584, Note_on_c, 1, 43, 87
3, 115960, Note_off_c, 1, 43, 100
3, 115968, Note_on_c, 1, 42, 88
3, 116344, Note_off_c, 1, 42, 100
3, 116352, Note_on_c, 1, 40, 89
3, 116728, Note_off_c, 1, 40, 100
3, 116736, Note_on_c, 1, 38, 91
3, 117112, Note_off_c, 1, 38, 100
3, 117120, Note_on_c, 1, 41, 92
3, 117496, Note_off_c, 1, 41, 100
3, 117504, Note_on_c, 1, 40, 94
3, 117880, Note_off_c, 1, 40, 100
3, 117888, Note_on_c, 1, 38, 95
3, 118264, Note_off_c, 1, 38, 100
3, 118272, Note_on_c, 1, 36, 97
3, 118648, Note_off_c, 1, 36, 100
3, 118656, Note_on_c, 1, 55, 98
3, 118656, Note_on_c, 1, 53, 98
3, 119032, Note_off_c, 1, 53, 100
3, 119040, Note_on_c, 1, 52, 99
3, 119416, Note_off_c, 1, 52, 100
3, 119424, Note_on_c, 1, 50, 100
3, 119800, Note_off_c, 1, 50, 100
3, 119808, Note_on_c, 1, 48, 100
3, 120184, Note_off_c, 1, 55, 100
3, 120184, Note_off_c, 1, 48, 100
3, 120192, Note_on_c, 1, 59, 100
3, 120568, Note_off_c, 1, 59, 100
3, 120576, Note_on_c, 1, 60, 100
3, 120952, Note_off_c, 1, 60, 100
3, 120960, Note_on_c, 1, 62, 100
3, 121336, Note_off_c, 1, 62, 100
3, 121344, Note_on_c, 1, 64, 100
3, 121720, Note_off_c, 1, 64, 100
3, 121728, Note_on_c, 1, 67, 100
3, 121728, Note_on_c, 1, 65, 100
3, 122104, Note_off_c, 1, 65, 100
3, 122112, Note_on_c, 1, 64, 100
3, 122488, Note_off_c, 1, 64, 100
3, 122496, Note_on_c, 1, 62, 100
3, 122872, Note_off_c, 1, 62, 100
3, 122880, Note_on_c, 1, 60, 100
3, 123256, Note_off_c, 1, 67, 100
3, 123256, Note_off_c, 1, 60, 100
3, 123264, Note_on_c, 1, 43, 100
3, 123264, Note_on_c, 1, 45, 100
3, 123640, Note_off_c, 1, 43, 100
3, 123648, Note_on_c, 1, 41, 100
3, 124024, Note_off_c, 1, 41, 100
3, 124032, Note_on_c, 1, 40, 100
3, 124408, Note_off_c, 1, 40, 100
3, 124416, Note_on_c, 1, 38, 100
3, 124792, Note_off_c, 1, 45, 100
3, 124792, Note_off_c, 1, 38, 100
3, 124800, Note_on_c, 1, 55, 100
3, 124800, Note_on_c, 1, 57, 100
3, 125176, Note_off_c, 1, 55, 100
3, 125184, Note_on_c, 1, 53, 100
3, 125560, Note_off_c, 1, 53, 100
3, 125568, Note_on_c, 1, 52, 100
3, 125944, Note_off_c, 1, 52, 100
3, 125952, Note_on_c, 1, 50, 100
3, 126328, Note_off_c, 1, 57, 100
3, 126328, Note_off_c, 1, 50, 100
3, 126336, Note_on_c, 1, 61, 100
3, 126712, Note_off_c, 1, 61, 100
3, 126720, Note_on_c, 1, 62, 100
3, 127096, Note_off_c, 1, 62, 100
3, 127104, Note_on_c, 1, 64, 100
3, 127480, Note_off_c, 1, 64, 100
3, 127488, Note_on_c, 1, 65, 100
3, 127864, Note_off_c, 1, 65, 100
3, 127872, Note_on_c, 1, 69, 100
3, 127872, Note_on_c, 1, 67, 100
3, 128248, Note_off_c, 1, 67, 100
3, 128256, Note_on_c, 1, 65, 100
3, 128632, Note_off_c, 1, 65, 100
3, 128640, Note_on_c, 1, 64, 100
3, 129016, Note_off_c, 1, 64, 100
3, 129024, Note_on_c, 1, 62, 100
3, 129400, Note_off_c, 1, 69, 100
3, 129400, Note_off_c, 1, 62, 100
3, 129408, Note_on_c, 1, 51, 100
3, 129408, Note_on_c, 1, 53, 100
3, 129784, Note_off_c, 1, 51, 100
3, 129792, Note_on_c, 1, 50, 100
3, 130168, Note_off_c, 1, 50, 100
3, 130176, Note_on_c, 1, 48, 100
3, 130552, Note_off_c, 1, 48, 100
3, 130560, Note_on_c, 1, 46, 100
3, 130936, Note_off_c, 1, 53, 100
3, 130936, Note_off_c, 1, 46, 100
3, 130944, Note_on_c, 1, 63, 100
3, 130944, Note_on_c, 1, 65, 100
3, 131320, Note_off_c, 1, 63, 100
3, 131328, Note_on_c, 1, 62, 100
3, 131704, Note_off_c, 1, 62, 100
3, 131712, Note_on_c, 1, 60, 100
3, 132088, Note_off_c, 1, 60, 100
3, 132096, Note_on_c, 1, 58, 100
3, 132472, Note_off_c, 1, 65, 100
3, 132472, Note_off_c, 1, 58, 100
3, 132480, Note_on_c, 1, 75, 110
3, 132856, Note_off_c, 1, 75, 100
3, 132864, Note_on_c, 1, 74, 110
3, 133240, Note_off_c, 1, 74, 100
3, 133248, Note_on_c, 1, 72, 110
3, 133624, Note_off_c, 1, 72, 100
3, 133632, Note_on_c, 1, 70, 110
3, 134008, Note_off_c, 1, 70, 100
3, 134016, Note_on_c, 1, 69, 110
3, 134392, Note_off_c, 1, 69, 100
3, 134400, Note_on_c, 1, 68, 110
3, 134776, Note_off_c, 1, 68, 100
3, 134784, Note_on_c, 1, 66, 110
3, 135160, Note_off_c, 1, 66, 100
3, 135168, Note_on_c, 1, 64, 110
3, 135544, Note_off_c, 1, 64, 100
3, 135552, Note_on_c, 1, 62, 110
3, 135928, Note_off_c, 1, 62, 100
3, 135936, Note_on_c, 1, 73, 110
3, 135936, Note_on_c, 1, 61, 110
3, 136312, Note_off_c, 1, 73, 100
3, 136312, Note_off_c, 1, 61, 100
3, 136320, Note_on_c, 1, 71, 110
3, 136320, Note_on_c, 1, 59, 110
3, 136696, Note_off_c, 1, 71, 100
3, 136696, Note_off_c, 1, 59, 100
3, 136704, Note_on_c, 1, 69, 110
3, 136704, Note_on_c, 1, 57, 110
3, 137080, Note_off_c, 1, 69, 100
3, 137080, Note_off_c, 1, 57, 100
3, 137088, Note_on_c, 1, 68, 110
3, 137088, Note_on_c, 1, 56, 110
3, 137464, Note_off_c, 1, 68, 100
3, 137464, Note_off_c, 1, 56, 100
3, 137472, Note_on_c, 1, 66, 110
3, 137472, Note_on_c, 1, 54, 110
3, 137848, Note_off_c, 1, 66, 100
3, 137848, Note_off_c, 1, 54, 100
3, 137856, Note_on_c, 1, 64, 110
3, 137856, Note_on_c, 1, 52, 110
3, 138232, Note_off_c, 1, 64, 100
3, 138232, Note_off_c, 1, 52, 100
3, 138240, Note_on_c, 1, 62, 110
3, 138240, Note_on_c, 1, 50, 110
3, 138616, Note_off_c, 1, 62, 100
3, 138616, Note_off_c, 1, 50, 100
3, 138624, Note_on_c, 1, 61, 110
3, 138624, Note_on_c, 1, 49, 110
3, 139000, Note_off_c, 1, 61, 100
3, 139000, Note_off_c, 1, 49, 100
3, 139008, Note_on_c, 1, 59, 110
3, 139008, Note_on_c, 1, 47, 110
3, 139384, Note_off_c, 1, 59, 100
3, 139384, Note_off_c, 1, 47, 100
3, 139392, Note_on_c, 1, 57, 110
3, 139392, Note_on_c, 1, 45, 110
3, 139768, Note_off_c, 1, 57, 100
3, 139768, Note_off_c, 1, 45, 100
3, 139776, Note_on_c, 1, 56, 110
3, 139776, Note_on_c, 1, 44, 110
3, 140152, Note_off_c, 1, 56, 100
3, 140152, Note_off_c, 1, 44, 100
3, 140160, Note_on_c, 1, 54, 110
3, 140160, Note_on_c, 1, 42, 110
3, 140536, Note_off_c, 1, 54, 100
3, 140536, Note_off_c, 1, 42, 100
3, 140544, Note_on_c, 1, 52, 110
3, 140544, Note_on_c, 1, 40, 110
3, 140920, Note_off_c, 1, 52, 100
3, 140920, Note_off_c, 1, 40, 100
3, 140928, Note_on_c, 1, 50, 110
3, 140928, Note_on_c, 1, 38, 110
3, 141304, Note_off_c, 1, 50, 100
3, 141304, Note_off_c, 1, 38, 100
3, 141312, Note_on_c, 1, 49, 110
3, 141312, Note_on_c, 1, 37, 110
3, 141688, Note_off_c, 1, 49, 100
3, 141688, Note_off_c, 1, 37, 100
3, 141696, Note_on_c, 1, 47, 110
3, 141696, Note_on_c, 1, 35, 110
3, 142072, Note_off_c, 1, 47, 100
3, 142072, Note_off_c, 1, 35, 100
3, 142080, Note_on_c, 1, 45, 120
3, 142080, Note_on_c, 1, 33, 120
3, 142456, Note_off_c, 1, 45, 100
3, 142456, Note_off_c, 1, 33, 100
3, 142464, Note_on_c, 1, 47, 120
3, 142464, Note_on_c, 1, 35, 120
3, 142840, Note_off_c, 1, 47, 100
3, 142840, Note_off_c, 1, 35, 100
3, 142848, Note_on_c, 1, 49, 120
3, 142848, Note_on_c, 1, 37, 120
3, 143224, Note_off_c, 1, 49, 100
3, 143224, Note_off_c, 1, 37, 100
3, 143232, Note_on_c, 1, 50, 120
3, 143232, Note_on_c, 1, 38, 120
3, 143608, Note_off_c, 1, 50, 100
3, 143608, Note_off_c, 1, 38, 100
3, 143616, Note_on_c, 1, 52, 120
3, 143616, Note_on_c, 1, 40, 120
3, 143992, Note_off_c, 1, 52, 100
3, 143992, Note_off_c, 1, 40, 100
3, 144384, Note_on_c, 1, 52, 120
3, 144384, Note_on_c, 1, 40, 120
3, 144760, Note_off_c, 1, 52, 100
3, 144760, Note_off_c, 1, 40, 100
3, 145152, Note_on_c, 1, 33, 120
3, 145336, Note_off_c, 1, 33, 100
3, 145344, Note_on_c, 1, 45, 80
3, 145528, Note_off_c, 1, 45, 100
3, 145536, Note_on_c, 1, 44, 80
3, 145720, Note_off_c, 1, 44, 100
3, 145728, Note_on_c, 1, 45, 80
3, 145912, Note_off_c, 1, 45, 100
3, 145920, Note_on_c, 1, 44, 80
3, 146104, Note_off_c, 1, 44, 100
3, 146112, Note_on_c, 1, 45, 80
3, 146296, Note_off_c, 1, 45, 100
3, 146304, Note_on_c, 1, 44, 80
3, 146488, Note_off_c, 1, 44, 100
3, 146496, Note_on_c, 1, 45, 80
3, 146680, Note_off_c, 1, 45, 100
3, 146688, Note_on_c, 1, 35, 80
3, 146872, Note_off_c, 1, 35, 100
3, 146880, Note_on_c, 1, 45, 80
3, 147064, Note_off_c, 1, 45, 100
3, 147072, Note_on_c, 1, 44, 80
3, 147256, Note_off_c, 1, 44, 100
3, 147264, Note_on_c, 1, 45, 80
3, 147448, Note_off_c, 1, 45, 100
3, 147456, Note_on_c, 1, 37, 80
3, 147640, Note_off_c, 1, 37, 100
3, 147648, Note_on_c, 1, 45, 80
3, 147832, Note_off_c, 1, 45, 100
3, 147840, Note_on_c, 1, 44, 80
3, 148024, Note_off_c, 1, 44, 100
3, 148032, Note_on_c, 1, 45, 80
3, 148216, Note_off_c, 1, 45, 100
3, 148224, Note_on_c, 1, 38, 80
3, 148408, Note_off_c, 1, 38, 100
3, 148416, Note_on_c, 1, 45, 80
3, 148600, Note_off_c, 1, 45, 100
3, 148608, Note_on_c, 1, 44, 80
3, 148792, Note_off_c, 1, 44, 100
3, 148800, Note_on_c, 1, 45, 80
3, 148984, Note_off_c, 1, 45, 100
3, 148992, Note_on_c, 1, 40, 80
3, 149176, Note_off_c, 1, 40, 100
3, 149184, Note_on_c, 1, 45, 80
3, 149368, Note_off_c, 1, 45, 100
3, 149376, Note_on_c, 1, 44, 80
3, 149560, Note_off_c, 1, 44, 100
3, 149568, Note_on_c, 1, 45, 80
3, 149752, Note_off_c, 1, 45, 100
3, 149760, Note_on_c, 1, 42, 80
3, 149944, Note_off_c, 1, 42, 100
3, 149952, Note_on_c, 1, 45, 80
3, 150136, Note_off_c, 1, 45, 100
3, 150144, Note_on_c, 1, 44, 80
3, 150328, Note_off_c, 1, 44, 100
3, 150336, Note_on_c, 1, 45, 80
3, 150520, Note_off_c, 1, 45, 100
3, 150528, Note_on_c, 1, 44, 80
3, 150712, Note_off_c, 1, 44, 100
3, 150720, Note_on_c, 1, 45, 80
3, 150904, Note_off_c, 1, 45, 100
3, 150912, Note_on_c, 1, 44, 80
3, 151096, Note_off_c, 1, 44, 100
3, 151104, Note_on_c, 1, 45, 80
3, 151288, Note_off_c, 1, 45, 100
3, 151296, Note_on_c, 1, 33, 120
3, 151392, Note_on_c, 1, 45, 120
3, 151672, Note_off_c, 1, 33, 100
3, 152448, Note_on_c, 1, 57, 100
3, 152824, Note_off_c, 1, 57, 100
3, 152832, Note_on_c, 1, 55, 100
3, 153208, Note_off_c, 1, 55, 100
3, 153216, Note_on_c, 1, 52, 100
3, 153592, Note_off_c, 1, 52, 100
3, 153600, Note_on_c, 1, 57, 100
3, 153976, Note_off_c, 1, 57, 100
3, 153984, Note_on_c, 1, 55, 100
3, 154360, Note_off_c, 1, 55, 100
3, 154368, Note_on_c, 1, 54, 100
3, 154744, Note_off_c, 1, 54, 100
3, 154752, Note_on_c, 1, 52, 100
3, 155128, Note_off_c, 1, 52, 100
3, 155136, Note_on_c, 1, 50, 100
3, 155512, Note_off_c, 1, 50, 100
3, 155520, Note_on_c, 1, 49, 103
3, 155896, Note_off_c, 1, 49, 100
3, 155904, Note_on_c, 1, 50, 106
3, 156280, Note_off_c, 1, 50, 100
3, 156288, Note_on_c, 1, 47, 110
3, 156664, Note_off_c, 1, 47, 100
3, 156672, Note_on_c, 1, 52, 113
3, 157048, Note_off_c, 1, 52, 100
3, 157056, Note_on_c, 1, 50, 116
3, 157432, Note_off_c, 1, 45, 100
3, 157432, Note_off_c, 1, 50, 100
3, 157440, Note_on_c, 1, 33, 120
3, 158592, Note_on_c, 1, 45, 120
3, 158968, Note_off_c, 1, 45, 100
3, 158976, Note_on_c, 1, 43, 120
3, 159352, Note_off_c, 1, 43, 100
3, 159360, Note_on_c, 1, 40, 120
3, 159736, Note_off_c, 1, 40, 100
3, 159744, Note_on_c, 1, 45, 120
3, 160120, Note_off_c, 1, 45, 100
3, 160128, Note_on_c, 1, 43, 120
3, 160504, Note_off_c, 1, 43, 100
3, 160512, Note_on_c, 1, 42, 120
3, 160888, Note_off_c, 1, 42, 100
3, 160896, Note_on_c, 1, 40, 120
3, 161272, Note_off_c, 1, 40, 100
3, 161280, Note_on_c, 1, 38, 120
3, 161656, Note_off_c, 1, 38, 100
3, 161664, Note_on_c, 1, 37, 120
3, 162040, Note_off_c, 1, 37, 100
3, 162048, Note_on_c, 1, 38, 120
3, 162424, Note_off_c, 1, 38, 100
3, 162432, Note_on_c, 1, 35, 120
3, 162808, Note_off_c, 1, 35, 100
3, 162816, Note_on_c, 1, 40, 120
3, 163192, Note_off_c, 1, 40, 100
3, 163200, Note_on_c, 1, 38, 120
3, 163576, Note_off_c, 1, 38, 100
3, 163584, Note_on_c, 1, 37, 120
3, 163960, Note_off_c, 1, 33, 100
3, 163960, Note_off_c, 1, 37, 100
3, 164352, Note_on_c, 1, 64, 70
3, 165112, Note_off_c, 1, 64, 100
3, 165120, Note_on_c, 1, 66, 70
3, 165880, Note_off_c, 1, 66, 100
3, 165888, Note_on_c, 1, 59, 70
3, 166648, Note_off_c, 1, 59, 100
3, 166656, Note_on_c, 1, 64, 70
3, 167416, Note_off_c, 1, 64, 100
3, 167424, Note_on_c, 1, 61, 70
3, 167424, Note_on_c, 1, 54, 70
3, 168184, Note_off_c, 1, 61, 100
3, 168184, Note_off_c, 1, 54, 100
3, 168192, Note_on_c, 1, 59, 70
3, 168192, Note_on_c, 1, 50, 70
3, 168952, Note_off_c, 1, 50, 100
3, 168960, Note_on_c, 1, 52, 70
3, 169720, Note_off_c, 1, 59, 100
3, 169720, Note_off_c, 1, 52, 100
3, 169728, Note_on_c, 1, 57, 70
3, 169728, Note_on_c, 1, 45, 70
3, 170488, Note_off_c, 1, 57, 100
3, 170488, Note_off_c, 1, 45, 100
3, 170496, Note_on_c, 1, 53, 70
3, 171256, Note_off_c, 1, 53, 100
3, 171264, Note_on_c, 1, 54, 70
3, 172024, Note_off_c, 1, 54, 100
3, 172032, Note_on_c, 1, 47, 70
3, 172792, Note_off_c, 1, 47, 100
3, 172800, Note_on_c, 1, 52, 70
3, 173560, Note_off_c, 1, 52, 100
3, 173568, Note_on_c, 1, 49, 70
3, 173568, Note_on_c, 1, 42, 70
3, 174328, Note_off_c, 1, 49, 100
3, 174328, Note_off_c, 1, 42, 100
3, 174336, Note_on_c, 1, 47, 70
3, 174336, Note_on_c, 1, 38, 70
3, 175096, Note_off_c, 1, 38, 100
3, 175104, Note_on_c, 1, 40, 70
3, 175864, Note_off_c, 1, 47, 100
3, 175864, Note_off_c, 1, 40, 100
3, 175872, Note_on_c, 1, 33, 70
3, 177024, Note_on_c, 1, 45, 80
3, 177400, Note_off_c, 1, 45, 100
3, 177408, Note_on_c, 1, 44, 80
3, 177784, Note_off_c, 1, 44, 100
3, 177792, Note_on_c, 1, 42, 80
3, 178168, Note_off_c, 1, 42, 100
3, 178176, Note_on_c, 1, 40, 80
3, 178552, Note_off_c, 1, 40, 100
3, 178936, Note_off_c, 1, 33, 100
3, 178944, Note_on_c, 1, 33, 70
3, 180096, Note_on_c, 1, 45, 70
3, 180472, Note_off_c, 1, 45, 100
3, 180480, Note_on_c, 1, 44, 70
3, 180856, Note_off_c, 1, 44, 100
3, 180864, Note_on_c, 1, 42, 70
3, 181240, Note_off_c, 1, 42, 100
3, 181248, Note_on_c, 1, 40, 70
3, 181624, Note_off_c, 1, 40, 100
3, 182008, Note_off_c, 1, 33, 100
3, 182016, Note_on_c, 1, 33, 70
3, 183168, Note_on_c, 1, 45, 70
3, 183544, Note_off_c, 1, 45, 100
3, 183552, Note_on_c, 1, 44, 70
3, 183928, Note_off_c, 1, 44, 100
3, 183936, Note_on_c, 1, 42, 70
3, 184312, Note_off_c, 1, 42, 100
3, 184320, Note_on_c, 1, 40, 70
3, 184696, Note_off_c, 1, 40, 100
3, 185080, Note_off_c, 1, 33, 100
3, 185088, Note_on_c, 1, 33, 70
3, 186240, Note_on_c, 1, 45, 70
3, 186616, Note_off_c, 1, 45, 100
3, 186624, Note_on_c, 1, 43, 70
3, 187000, Note_off_c, 1, 43, 100
3, 187008, Note_on_c, 1, 42, 70
3, 187384, Note_off_c, 1, 42, 100
3, 187392, Note_on_c, 1, 40, 70
3, 187768, Note_off_c, 1, 40, 100
3, 188152, Note_off_c, 1, 33, 100
3, 189312, Note_on_c, 1, 69, 70
3, 189688, Note_off_c, 1, 69, 100
3, 189696, Note_on_c, 1, 67, 70
3, 190072, Note_off_c, 1, 67, 100
3, 190080, Note_on_c, 1, 66, 70
3, 190456, Note_off_c, 1, 66, 100
3, 190464, Note_on_c, 1, 64, 70
3, 190840, Note_off_c, 1, 64, 100
3, 193920, Note_on_c, 1, 38, 80
3, 194296, Note_off_c, 1, 38, 100
3, 194304, Note_on_c, 1, 37, 80
3, 194680, Note_off_c, 1, 37, 100
3, 194688, Note_on_c, 1, 35, 80
3, 195064, Note_off_c, 1, 35, 100
3, 195072, Note_on_c, 1, 33, 80
3, 195448, Note_off_c, 1, 33, 100
3, 195456, Note_on_c, 1, 37, 80
3, 195832, Note_off_c, 1, 37, 100
3, 195840, Note_on_c, 1, 38, 80
3, 196216, Note_off_c, 1, 38, 100
3, 196224, Note_on_c, 1, 42, 80
3, 196600, Note_off_c, 1, 42, 100
3, 196608, Note_on_c, 1, 45, 80
3, 196608, Note_on_c, 1, 33, 80
3, 196984, Note_off_c, 1, 45, 100
3, 196984, Note_off_c, 1, 33, 100
3, 196992, Note_on_c, 1, 49, 80
3, 196992, Note_on_c, 1, 37, 80
3, 197368, Note_off_c, 1, 49, 100
3, 197368, Note_off_c, 1, 37, 100
3, 197376, Note_on_c, 1, 50, 80
3, 197376, Note_on_c, 1, 38, 80
3, 197752, Note_off_c, 1, 50, 100
3, 197752, Note_off_c, 1, 38, 100
3, 197760, Note_on_c, 1, 52, 80
3, 197760, Note_on_c, 1, 40, 80
3, 198136, Note_off_c, 1, 52, 100
3, 198136, Note_off_c, 1, 40, 100
3, 198144, Note_on_c, 1, 54, 80
3, 198144, Note_on_c, 1, 42, 80
3, 198520, Note_off_c, 1, 54, 100
3, 198520, Note_off_c, 1, 42, 100
3, 198528, Note_on_c, 1, 55, 80
3, 198528, Note_on_c, 1, 43, 80
3, 198904, Note_off_c, 1, 55, 100
3, 198904, Note_off_c, 1, 43, 100
3, 198912, Note_on_c, 1, 57, 110
3, 198912, Note_on_c, 1, 45, 110
3, 201592, Note_off_c, 1, 45, 100
3, 201592, Note_off_c, 1, 57, 100
3, 201600, Note_on_c, 1, 66, 80
3, 201600, Note_on_c, 1, 69, 80
3, 201976, Note_off_c, 1, 66, 100
3, 201976, Note_off_c, 1, 69, 100
3, 201984, Note_on_c, 1, 67, 80
3, 201984, Note_on_c, 1, 64, 80
3, 202360, Note_off_c, 1, 67, 100
3, 202360, Note_off_c, 1, 64, 100
3, 202368, Note_on_c, 1, 66, 80
3, 202368, Note_on_c, 1, 62, 80
3, 202744, Note_off_c, 1, 66, 100
3, 202744, Note_off_c, 1, 62, 100
3, 202752, Note_on_c, 1, 64, 80
3, 202752, Note_on_c, 1, 61, 80
3, 203128, Note_off_c, 1, 64, 100
3, 203128, Note_off_c, 1, 61, 100
3, 203136, Note_on_c, 1, 62, 80
3, 203136, Note_on_c, 1, 66, 80
3, 203512, Note_off_c, 1, 62, 100
3, 203512, Note_off_c, 1, 66, 100
3, 203520, Note_on_c, 1, 64, 80
3, 203520, Note_on_c, 1, 61, 80
3, 203896, Note_off_c, 1, 64, 100
3, 203896, Note_off_c, 1, 61, 100
3, 203904, Note_on_c, 1, 62, 80
3, 203904, Note_on_c, 1, 59, 80
3, 204280, Note_off_c, 1, 62, 100
3, 204280, Note_off_c, 1, 59, 100
3, 204288, Note_on_c, 1, 61, 80
3, 204288, Note_on_c, 1, 57, 80
3, 204664, Note_off_c, 1, 61, 100
3, 204664, Note_off_c, 1, 57, 100
3, 204672, Note_on_c, 1, 62, 80
3, 204672, Note_on_c, 1, 59, 80
3, 205048, Note_off_c, 1, 62, 100
3, 205048, Note_off_c, 1, 59, 100
3, 205056, Note_on_c, 1, 61, 80
3, 205056, Note_on_c, 1, 57, 80
3, 205432, Note_off_c, 1, 61, 100
3, 205432, Note_off_c, 1, 57, 100
3, 205440, Note_on_c, 1, 59, 80
3, 205440, Note_on_c, 1, 55, 80
3, 205816, Note_off_c, 1, 59, 100
3, 205816, Note_off_c, 1, 55, 100
3, 205824, Note_on_c, 1, 57, 80
3, 205824, Note_on_c, 1, 54, 80
3, 206200, Note_off_c, 1, 57, 100
3, 206200, Note_off_c, 1, 54, 100
3, 206208, Note_on_c, 1, 59, 80
3, 206208, Note_on_c, 1, 55, 80
3, 206584, Note_off_c, 1, 59, 100
3, 206584, Note_off_c, 1, 55, 100
3, 206592, Note_on_c, 1, 57, 80
3, 206592, Note_on_c, 1, 54, 80
3, 206968, Note_off_c, 1, 57, 100
3, 206968, Note_off_c, 1, 54, 100
3, 206976, Note_on_c, 1, 55, 80
3, 206976, Note_on_c, 1, 52, 80
3, 207352, Note_off_c, 1, 55, 100
3, 207352, Note_off_c, 1, 52, 100
3, 207360, Note_on_c, 1, 54, 80
3, 207360, Note_on_c, 1, 50, 80
3, 207736, Note_off_c, 1, 54, 100
3, 207736, Note_off_c, 1, 50, 100
3, 208128, Note_on_c, 1, 55, 80
3, 208128, Note_on_c, 1, 43, 80
3, 208504, Note_off_c, 1, 55, 100
3, 208504, Note_off_c, 1, 43, 100
3, 208896, Note_on_c, 1, 57, 80
3, 208896, Note_on_c, 1, 45, 80
3, 209272, Note_off_c, 1, 57, 100
3, 209272, Note_off_c, 1, 45, 100
3, 209664, Note_on_c, 1, 50, 80
3, 209664, Note_on_c, 1, 38, 80
3, 210040, Note_off_c, 1, 50, 100
3, 210040, Note_off_c, 1, 38, 100
3, 212352, Note_on_c, 1, 45, 110
3, 212352, Note_on_c, 1, 33, 110
3, 212728, Note_off_c, 1, 45, 100
3, 212728, Note_off_c, 1, 33, 100
3, 212736, Note_on_c, 1, 45, 120
3, 212736, Note_on_c, 1, 33, 120
3, 215416, Note_off_c, 1, 33, 100
3, 215416, Note_off_c, 1, 45, 100
3, 215424, Note_on_c, 1, 46, 110
3, 215424, Note_on_c, 1, 34, 110
3, 215800, Note_off_c, 1, 46, 100
3, 215800, Note_off_c, 1, 34, 100
3, 215808, Note_on_c, 1, 47, 110
3, 215808, Note_on_c, 1, 35, 110
3, 216184, Note_off_c, 1, 47, 100
3, 216184, Note_off_c, 1, 35, 100
3, 216192, Note_on_c, 1, 45, 110
3, 216192, Note_on_c, 1, 33, 110
3, 216568, Note_off_c, 1, 45, 100
3, 216568, Note_off_c, 1, 33, 100
3, 216576, Note_on_c, 1, 43, 110
3, 216576, Note_on_c, 1, 31, 110
3, 216952, Note_off_c, 1, 43, 100
3, 216952, Note_off_c, 1, 31, 100
3, 216960, Note_on_c, 1, 42, 110
3, 216960, Note_on_c, 1, 30, 110
3, 217336, Note_off_c, 1, 42, 100
3, 217336, Note_off_c, 1, 30, 100
3, 217344, Note_on_c, 1, 40, 110
3, 217344, Note_on_c, 1, 28, 110
3, 217720, Note_off_c, 1, 40, 100
3, 217720, Note_off_c, 1, 28, 100
3, 218112, Note_on_c, 1, 45, 110
3, 218112, Note_on_c, 1, 33, 110
3, 218488, Note_off_c, 1, 45, 100
3, 218488, Note_off_c, 1, 33, 100
3, 218880, Note_on_c, 1, 50, 110
3, 218880, Note_on_c, 1, 38, 110
3, 219256, Note_off_c, 1, 50, 100
3, 219256, Note_off_c, 1, 38, 100
3, 220032, Note_on_c, 1, 38, 70
3, 220408, Note_off_c, 1, 38, 100
3, 220416, Note_on_c, 1, 37, 71
3, 220792, Note_off_c, 1, 37, 100
3, 220800, Note_on_c, 1, 35, 73
3, 221176, Note_off_c, 1, 35, 100
3, 221184, Note_on_c, 1, 33, 75
3, 221560, Note_off_c, 1, 33, 100
3, 221568, Note_on_c, 1, 37, 77
3, 221944, Note_off_c, 1, 37, 100
3, 221952, Note_on_c, 1, 38, 79
3, 222328, Note_off_c, 1, 38, 100
3, 222336, Note_on_c, 1, 42, 80
3, 222712, Note_off_c, 1, 42, 100
3, 222720, Note_on_c, 1, 45, 82
3, 222720, Note_on_c, 1, 33, 82
3, 223096, Note_off_c, 1, 45, 100
3, 223096, Note_off_c, 1, 33, 100
3, 223104, Note_on_c, 1, 49, 84
3, 223104, Note_on_c, 1, 37, 84
3, 223480, Note_off_c, 1, 49, 100
3, 223480, Note_off_c, 1, 37, 100
3, 223488, Note_on_c, 1, 50, 86
3, 223488, Note_on_c, 1, 38, 86
3, 223864, Note_off_c, 1, 50, 100
3, 223864, Note_off_c, 1, 38, 100
3, 223872, Note_on_c, 1, 52, 88
3, 223872, Note_on_c, 1, 40, 88
3, 224248, Note_off_c, 1, 52, 100
3, 224248, Note_off_c, 1, 40, 100
3, 224256, Note_on_c, 1, 54, 89
3, 224256, Note_on_c, 1, 42, 89
3, 224632, Note_off_c, 1, 54, 100
3, 224632, Note_off_c, 1, 42, 100
3, 224640, Note_on_c, 1, 55, 91
3, 224640, Note_on_c, 1, 43, 91
3, 225016, Note_off_c, 1, 55, 100
3, 225016, Note_off_c, 1, 43, 100
3, 225024, Note_on_c, 1, 57, 93
3, 225024, Note_on_c, 1, 45, 93
3, 225400, Note_off_c, 1, 57, 100
3, 225400, Note_off_c, 1, 45, 100
3, 225408, Note_on_c, 1, 58, 95
3, 225408, Note_on_c, 1, 46, 95
3, 225784, Note_off_c, 1, 58, 100
3, 225784, Note_off_c, 1, 46, 100
3, 225792, Note_on_c, 1, 59, 97
3, 225792, Note_on_c, 1, 47, 97
3, 226168, Note_off_c, 1, 59, 100
3, 226168, Note_off_c, 1, 47, 100
3, 226176, Note_on_c, 1, 61, 99
3, 226176, Note_on_c, 1, 49, 99
3, 226552, Note_off_c, 1, 61, 100
3, 226552, Note_off_c, 1, 49, 100
3, 226560, Note_on_c, 1, 62, 120
3, 226560, Note_on_c, 1, 50, 120
3, 226936, Note_off_c, 1, 62, 100
3, 226936, Note_off_c, 1, 50, 100
3, 227328, Note_on_c, 1, 52, 120
3, 227328, Note_on_c, 1, 64, 120
3, 227704, Note_off_c, 1, 52, 100
3, 227704, Note_off_c, 1, 64, 100
3, 228096, Note_on_c, 1, 54, 120
3, 228096, Note_on_c, 1, 66, 120
3, 230776, Note_off_c, 1, 54, 100
3, 230776, Note_off_c, 1, 66, 100
3, 231168, Note_on_c, 1, 47, 100
3, 231352, Note_off_c, 1, 47, 100
3, 231360, Note_on_c, 1, 50, 100
3, 231544, Note_off_c, 1, 50, 100
3, 231552, Note_on_c, 1, 54, 100
3, 231736, Note_off_c, 1, 54, 100
3, 231744, Note_on_c, 1, 59, 100
3, 231928, Note_off_c, 1, 59, 100
3, 231936, Note_on_c, 1, 46, 100
3, 232120, Note_off_c, 1, 46, 100
3, 232128, Note_on_c, 1, 52, 100
3, 232312, Note_off_c, 1, 52, 100
3, 232320, Note_on_c, 1, 54, 100
3, 232504, Note_off_c, 1, 54, 100
3, 232512, Note_on_c, 1, 61, 100
3, 232696, Note_off_c, 1, 61, 100
3, 232704, Note_on_c, 1, 47, 100
3, 232888, Note_off_c, 1, 47, 100
3, 232896, Note_on_c, 1, 50, 100
3, 233080, Note_off_c, 1, 50, 100
3, 233088, Note_on_c, 1, 54, 100
3, 233272, Note_off_c, 1, 54, 100
3, 233280, Note_on_c, 1, 59, 100
3, 233464, Note_off_c, 1, 59, 100
3, 233472, Note_on_c, 1, 47, 100
3, 233656, Note_off_c, 1, 47, 100
3, 233664, Note_on_c, 1, 50, 100
3, 233848, Note_off_c, 1, 50, 100
3, 233856, Note_on_c, 1, 54, 100
3, 234040, Note_off_c, 1, 54, 100
3, 234048, Note_on_c, 1, 59, 100
3, 234232, Note_off_c, 1, 59, 100
3, 234240, Note_on_c, 1, 49, 100
3, 234424, Note_off_c, 1, 49, 100
3, 234432, Note_on_c, 1, 52, 100
3, 234616, Note_off_c, 1, 52, 100
3, 234624, Note_on_c, 1, 54, 100
3, 234808, Note_off_c, 1, 54, 100
3, 234816, Note_on_c, 1, 58, 100
3, 235000, Note_off_c, 1, 58, 100
3, 235008, Note_on_c, 1, 47, 100
3, 235192, Note_off_c, 1, 47, 100
3, 235200, Note_on_c, 1, 50, 100
3, 235384, Note_off_c, 1, 50, 100
3, 235392, Note_on_c, 1, 54, 100
3, 235576, Note_off_c, 1, 54, 100
3, 235584, Note_on_c, 1, 59, 100
3, 235768, Note_off_c, 1, 59, 100
3, 235776, Note_on_c, 1, 42, 100
3, 235960, Note_off_c, 1, 42, 100
3, 235968, Note_on_c, 1, 49, 100
3, 236152, Note_off_c, 1, 49, 100
3, 236160, Note_on_c, 1, 54, 100
3, 236344, Note_off_c, 1, 54, 100
3, 236352, Note_on_c, 1, 58, 100
3, 236536, Note_off_c, 1, 58, 100
3, 236544, Note_on_c, 1, 42, 100
3, 236728, Note_off_c, 1, 42, 100
3, 236736, Note_on_c, 1, 49, 100
3, 236920, Note_off_c, 1, 49, 100
3, 236928, Note_on_c, 1, 54, 100
3, 237112, Note_off_c, 1, 54, 100
3, 237120, Note_on_c, 1, 59, 100
3, 237304, Note_off_c, 1, 59, 100
3, 237312, Note_on_c, 1, 47, 100
3, 237496, Note_off_c, 1, 47, 100
3, 237504, Note_on_c, 1, 50, 100
3, 237688, Note_off_c, 1, 50, 100
3, 237696, Note_on_c, 1, 54, 100
3, 237880, Note_off_c, 1, 54, 100
3, 237888, Note_on_c, 1, 59, 100
3, 238072, Note_off_c, 1, 59, 100
3, 238080, Note_on_c, 1, 46, 100
3, 238264, Note_off_c, 1, 46, 100
3, 238272, Note_on_c, 1, 52, 100
3, 238456, Note_off_c, 1, 52, 100
3, 238464, Note_on_c, 1, 54, 100
3, 238648, Note_off_c, 1, 54, 100
3, 238656, Note_on_c, 1, 61, 100
3, 238840, Note_off_c, 1, 61, 100
3, 238848, Note_on_c, 1, 47, 100
3, 239032, Note_off_c, 1, 47, 100
3, 239040, Note_on_c, 1, 50, 100
3, 239224, Note_off_c, 1, 50, 100
3, 239232, Note_on_c, 1, 54, 100
3, 239416, Note_off_c, 1, 54, 100
3, 239424, Note_on_c, 1, 59, 100
3, 239608, Note_off_c, 1, 59, 100
3, 239616, Note_on_c, 1, 50, 100
3, 239800, Note_off_c, 1, 50, 100
3, 239808, Note_on_c, 1, 54, 100
3, 239992, Note_off_c, 1, 54, 100
3, 240000, Note_on_c, 1, 59, 100
3, 240184, Note_off_c, 1, 59, 100
3, 240192, Note_on_c, 1, 54, 100
3, 240376, Note_off_c, 1, 54, 100
3, 240384, Note_on_c, 1, 49, 100
3, 240568, Note_off_c, 1, 49, 100
3, 240576, Note_on_c, 1, 54, 100
3, 240760, Note_off_c, 1, 54, 100
3, 240768, Note_on_c, 1, 57, 100
3, 240952, Note_off_c, 1, 57, 100
3, 240960, Note_on_c, 1, 54, 100
3, 241144, Note_off_c, 1, 54, 100
3, 241152, Note_on_c, 1, 49, 100
3, 241336, Note_off_c, 1, 49, 100
3, 241344, Note_on_c, 1, 53, 100
3, 241528, Note_off_c, 1, 53, 100
3, 241536, Note_on_c, 1, 56, 100
3, 241720, Note_off_c, 1, 56, 100
3, 241728, Note_on_c, 1, 53, 100
3, 241912, Note_off_c, 1, 53, 100
3, 241920, Note_on_c, 1, 42, 100
3, 242104, Note_off_c, 1, 42, 100
3, 242112, Note_on_c, 1, 45, 100
3, 242296, Note_off_c, 1, 45, 100
3, 242304, Note_on_c, 1, 49, 100
3, 242488, Note_off_c, 1, 49, 100
3, 242496, Note_on_c, 1, 54, 100
3, 242680, Note_off_c, 1, 54, 100
3, 242688, Note_on_c, 1, 42, 100
3, 243064, Note_off_c, 1, 42, 100
3, 243456, Note_on_c, 1, 49, 100
3, 243840, Note_on_c, 1, 56, 111
3, 243840, Note_on_c, 1, 59, 111
3, 244600, Note_off_c, 1, 56, 100
3, 244600, Note_off_c, 1, 59, 100
3, 244608, Note_on_c, 1, 57, 100
3, 244608, Note_on_c, 1, 54, 100
3, 244984, Note_off_c, 1, 57, 100
3, 244984, Note_off_c, 1, 54, 100
3, 244992, Note_on_c, 1, 56, 100
3, 244992, Note_on_c, 1, 53, 100
3, 245368, Note_off_c, 1, 49, 100
3, 245368, Note_off_c, 1, 56, 100
3, 245368, Note_off_c, 1, 53, 100
3, 246528, Note_on_c, 1, 57, 100
3, 246528, Note_on_c, 1, 54, 100
3, 246904, Note_off_c, 1, 57, 100
3, 246904, Note_off_c, 1, 54, 100
3, 246912, Note_on_c, 1, 57, 100
3, 246912, Note_on_c, 1, 54, 100
3, 247288, Note_off_c, 1, 57, 100
3, 247288, Note_off_c, 1, 54, 100
3, 247296, Note_on_c, 1, 56, 100
3, 247296, Note_on_c, 1, 59, 100
3, 247672, Note_off_c, 1, 56, 100
3, 247672, Note_off_c, 1, 59, 100
3, 247680, Note_on_c, 1, 59, 100
3, 247680, Note_on_c, 1, 56, 100
3, 248056, Note_off_c, 1, 59, 100
3, 248056, Note_off_c, 1, 56, 100
3, 248064, Note_on_c, 1, 57, 100
3, 248064, Note_on_c, 1, 61, 100
3, 248440, Note_off_c, 1, 57, 100
3, 248440, Note_off_c, 1, 61, 100
3, 249600, Note_on_c, 1, 52, 100
3, 249984, Note_on_c, 1, 59, 110
3, 249984, Note_on_c, 1, 62, 110
3, 250744, Note_off_c, 1, 59, 100
3, 250744, Note_off_c, 1, 62, 100
3, 250752, Note_on_c, 1, 57, 100
3, 250752, Note_on_c, 1, 61, 100
3, 251128, Note_off_c, 1, 57, 100
3, 251128, Note_off_c, 1, 61, 100
3, 251136, Note_on_c, 1, 56, 100
3, 251136, Note_on_c, 1, 59, 100
3, 251512, Note_off_c, 1, 52, 100
3, 251512, Note_off_c, 1, 56, 100
3, 251512, Note_off_c, 1, 59, 100
3, 252672, Note_on_c, 1, 57, 100
3, 252672, Note_on_c, 1, 61, 100
3, 253048, Note_off_c, 1, 57, 100
3, 253048, Note_off_c, 1, 61, 100
3, 253056, Note_on_c, 1, 61, 100
3, 253056, Note_on_c, 1, 57, 100
3, 253432, Note_off_c, 1, 61, 100
3, 253432, Note_off_c, 1, 57, 100
3, 253440, Note_on_c, 1, 59, 100
3, 253440, Note_on_c, 1, 62, 100
3, 253816, Note_off_c, 1, 59, 100
3, 253816, Note_off_c, 1, 62, 100
3, 253824, Note_on_c, 1, 62, 100
3, 253824, Note_on_c, 1, 59, 100
3, 254200, Note_off_c, 1, 62, 100
3, 254200, Note_off_c, 1, 59, 100
3, 254208, Note_on_c, 1, 61, 100
3, 254208, Note_on_c, 1, 64, 100
3, 254584, Note_off_c, 1, 61, 100
3, 254584, Note_off_c, 1, 64, 100
3, 255936, Note_on_c, 1, 62, 100
3, 256120, Note_off_c, 1, 62, 100
3, 256128, Note_on_c, 1, 61, 100
3, 256312, Note_off_c, 1, 61, 100
3, 256320, Note_on_c, 1, 62, 100
3, 256504, Note_off_c, 1, 62, 100
3, 256512, Note_on_c, 1, 64, 100
3, 256696, Note_off_c, 1, 64, 100
3, 256704, Note_on_c, 1, 66, 100
3, 256888, Note_off_c, 1, 66, 100
3, 256896, Note_on_c, 1, 68, 100
3, 257080, Note_off_c, 1, 68, 100
3, 257088, Note_on_c, 1, 69, 100
3, 257272, Note_off_c, 1, 69, 100
3, 257280, Note_on_c, 1, 71, 100
3, 259000, Note_off_c, 1, 71, 100
3, 259008, Note_on_c, 1, 71, 100
3, 259192, Note_off_c, 1, 71, 100
3, 259200, Note_on_c, 1, 70, 101
3, 259384, Note_off_c, 1, 70, 100
3, 259392, Note_on_c, 1, 71, 101
3, 259576, Note_off_c, 1, 71, 100
3, 259584, Note_on_c, 1, 73, 102
3, 259768, Note_off_c, 1, 73, 100
3, 259776, Note_on_c, 1, 74, 103
3, 259960, Note_off_c, 1, 74, 100
3, 260544, Note_on_c, 1, 64, 105
3, 260728, Note_off_c, 1, 64, 100
3, 260736, Note_on_c, 1, 63, 106
3, 260920, Note_off_c, 1, 63, 100
3, 260928, Note_on_c, 1, 64, 106
3, 261112, Note_off_c, 1, 64, 100
3, 261120, Note_on_c, 1, 66, 107
3, 261304, Note_off_c, 1, 66, 100
3, 261312, Note_on_c, 1, 68, 108
3, 261496, Note_off_c, 1, 68, 100
3, 261504, Note_on_c, 1, 69, 108
3, 261688, Note_off_c, 1, 69, 100
3, 261696, Note_on_c, 1, 71, 109
3, 261880, Note_off_c, 1, 71, 100
3, 262080, Note_on_c, 1, 57, 110
3, 262264, Note_off_c, 1, 57, 100
3, 262272, Note_on_c, 1, 56, 111
3, 262456, Note_off_c, 1, 56, 100
3, 262464, Note_on_c, 1, 57, 111
3, 262648, Note_off_c, 1, 57, 100
3, 262656, Note_on_c, 1, 59, 112
3, 262840, Note_off_c, 1, 59, 100
3, 262848, Note_on_c, 1, 61, 113
3, 263032, Note_off_c, 1, 61, 100
3, 263040, Note_on_c, 1, 62, 113
3, 263224, Note_off_c, 1, 62, 100
3, 263232, Note_on_c, 1, 64, 114
3, 263416, Note_off_c, 1, 64, 100
3, 263424, Note_on_c, 1, 65, 115
3, 263608, Note_off_c, 1, 65, 100
3, 263616, Note_on_c, 1, 49, 115
3, 263800, Note_off_c, 1, 49, 100
3, 263808, Note_on_c, 1, 48, 116
3, 263992, Note_off_c, 1, 48, 100
3, 264000, Note_on_c, 1, 49, 116
3, 264184, Note_off_c, 1, 49, 100
3, 264192, Note_on_c, 1, 51, 117
3, 264376, Note_off_c, 1, 51, 100
3, 264384, Note_on_c, 1, 53, 118
3, 264568, Note_off_c, 1, 53, 100
3, 264576, Note_on_c, 1, 54, 118
3, 264760, Note_off_c, 1, 54, 100
3, 264768, Note_on_c, 1, 56, 119
3, 264952, Note_off_c, 1, 56, 100
3, 264960, Note_on_c, 1, 54, 120
3, 265144, Note_off_c, 1, 54, 100
3, 265152, Note_on_c, 1, 57, 119
3, 265336, Note_off_c, 1, 57, 100
3, 265344, Note_on_c, 1, 54, 118
3, 265528, Note_off_c, 1, 54, 100
3, 265536, Note_on_c, 1, 57, 117
3, 265720, Note_off_c, 1, 57, 100
3, 265728, Note_on_c, 1, 54, 115
3, 265912, Note_off_c, 1, 54, 100
3, 265920, Note_on_c, 1, 57, 114
3, 266104, Note_off_c, 1, 57, 100
3, 266112, Note_on_c, 1, 54, 113
3, 266296, Note_off_c, 1, 54, 100
3, 266304, Note_on_c, 1, 57, 112
3, 266488, Note_off_c, 1, 57, 100
3, 266496, Note_on_c, 1, 42, 110
3, 266680, Note_off_c, 1, 42, 100
3, 266688, Note_on_c, 1, 50, 109
3, 266872, Note_off_c, 1, 50, 100
3, 266880, Note_on_c, 1, 42, 108
3, 267064, Note_off_c, 1, 42, 100
3, 267072, Note_on_c, 1, 50, 107
3, 267256, Note_off_c, 1, 50, 100
3, 267264, Note_on_c, 1, 42, 105
3, 267448, Note_off_c, 1, 42, 100
3, 267456, Note_on_c, 1, 50, 104
3, 267640, Note_off_c, 1, 50, 100
3, 267648, Note_on_c, 1, 42, 103
3, 267832, Note_off_c, 1, 42, 100
3, 267840, Note_on_c, 1, 50, 102
3, 268024, Note_off_c, 1, 50, 100
3, 268032, Note_on_c, 1, 40, 100
3, 268216, Note_off_c, 1, 40, 100
3, 268224, Note_on_c, 1, 52, 100
3, 268408, Note_off_c, 1, 52, 100
3, 268416, Note_on_c, 1, 40, 101
3, 268600, Note_off_c, 1, 40, 100
3, 268608, Note_on_c, 1, 52, 101
3, 268792, Note_off_c, 1, 52, 100
3, 268800, Note_on_c, 1, 40, 102
3, 268984, Note_off_c, 1, 40, 100
3, 268992, Note_on_c, 1, 52, 103
3, 269176, Note_off_c, 1, 52, 100
3, 269184, Note_on_c, 1, 40, 103
3, 269368, Note_off_c, 1, 40, 100
3, 269376, Note_on_c, 1, 52, 104
3, 269560, Note_off_c, 1, 52, 100
3, 269568, Note_on_c, 1, 40, 100
3, 269752, Note_off_c, 1, 40, 100
3, 269760, Note_on_c, 1, 52, 100
3, 269944, Note_off_c, 1, 52, 100
3, 269952, Note_on_c, 1, 40, 100
3, 270136, Note_off_c, 1, 40, 100
3, 270144, Note_on_c, 1, 52, 100
3, 270328, Note_off_c, 1, 52, 100
3, 270336, Note_on_c, 1, 38, 100
3, 270520, Note_off_c, 1, 38, 100
3, 270528, Note_on_c, 1, 50, 100
3, 270712, Note_off_c, 1, 50, 100
3, 270720, Note_on_c, 1, 38, 100
3, 270904, Note_off_c, 1, 38, 100
3, 270912, Note_on_c, 1, 50, 100
3, 271096, Note_off_c, 1, 50, 100
3, 271104, Note_on_c, 1, 37, 100
3, 271288, Note_off_c, 1, 37, 100
3, 271296, Note_on_c, 1, 45, 100
3, 271480, Note_off_c, 1, 45, 100
3, 271488, Note_on_c, 1, 37, 101
3, 271672, Note_off_c, 1, 37, 100
3, 271680, Note_on_c, 1, 45, 101
3, 271864, Note_off_c, 1, 45, 100
3, 271872, Note_on_c, 1, 37, 102
3, 272056, Note_off_c, 1, 37, 100
3, 272064, Note_on_c, 1, 45, 103
3, 272248, Note_off_c, 1, 45, 100
3, 272256, Note_on_c, 1, 37, 103
3, 272440, Note_off_c, 1, 37, 100
3, 272448, Note_on_c, 1, 45, 104
3, 272632, Note_off_c, 1, 45, 100
3, 272640, Note_on_c, 1, 38, 105
3, 272824, Note_off_c, 1, 38, 100
3, 272832, Note_on_c, 1, 45, 105
3, 273016, Note_off_c, 1, 45, 100
3, 273024, Note_on_c, 1, 38, 106
3, 273208, Note_off_c, 1, 38, 100
3, 273216, Note_on_c, 1, 45, 106
3, 273400, Note_off_c, 1, 45, 100
3, 273408, Note_on_c, 1, 39, 107
3, 273592, Note_off_c, 1, 39, 100
3, 273600, Note_on_c, 1, 45, 108
3, 273784, Note_off_c, 1, 45, 100
3, 273792, Note_on_c, 1, 39, 108
3, 273976, Note_off_c, 1, 39, 100
3, 273984, Note_on_c, 1, 45, 109
3, 274168, Note_off_c, 1, 45, 100
3, 274176, Note_on_c, 1, 40, 110
3, 274360, Note_off_c, 1, 40, 100
3, 274368, Note_on_c, 1, 45, 110
3, 274552, Note_off_c, 1, 45, 100
3, 274560, Note_on_c, 1, 40, 110
3, 274744, Note_off_c, 1, 40, 100
3, 274752, Note_on_c, 1, 45, 110
3, 274936, Note_off_c, 1, 45, 100
3, 274944, Note_on_c, 1, 40, 110
3, 275128, Note_off_c, 1, 40, 100
3, 275136, Note_on_c, 1, 45, 110
3, 275320, Note_off_c, 1, 45, 100
3, 275328, Note_on_c, 1, 40, 110
3, 275512, Note_off_c, 1, 40, 100
3, 275520, Note_on_c, 1, 45, 110
3, 275704, Note_off_c, 1, 45, 100
3, 275712, Note_on_c, 1, 40, 110
3, 275896, Note_off_c, 1, 40, 100
3, 275904, Note_on_c, 1, 45, 110
3, 276088, Note_off_c, 1, 45, 100
3, 276096, Note_on_c, 1, 40, 110
3, 276280, Note_off_c, 1, 40, 100
3, 276288, Note_on_c, 1, 45, 110
3, 276472, Note_off_c, 1, 45, 100
3, 276480, Note_on_c, 1, 40, 110
3, 276664, Note_off_c, 1, 40, 100
3, 276672, Note_on_c, 1, 44, 110
3, 276856, Note_off_c, 1, 44, 100
3, 276864, Note_on_c, 1, 40, 110
3, 277048, Note_off_c, 1, 40, 100
3, 277056, Note_on_c, 1, 44, 110
3, 277240, Note_off_c, 1, 44, 100
3, 277248, Note_on_c, 1, 45, 110
3, 277624, Note_off_c, 1, 45, 100
3, 277632, Note_on_c, 1, 33, 110
3, 278008, Note_off_c, 1, 33, 100
3, 278400, Note_on_c, 1, 61, 80
3, 278400, Note_on_c, 1, 57, 80
3, 278776, Note_off_c, 1, 61, 100
3, 278776, Note_off_c, 1, 57, 100
3, 278784, Note_on_c, 1, 59, 80
3, 278784, Note_on_c, 1, 62, 80
3, 279160, Note_off_c, 1, 59, 100
3, 279160, Note_off_c, 1, 62, 100
3, 279168, Note_on_c, 1, 52, 80
3, 279544, Note_off_c, 1, 52, 100
3, 279936, Note_on_c, 1, 57, 80
3, 279936, Note_on_c, 1, 61, 80
3, 280312, Note_off_c, 1, 57, 100
3, 280312, Note_off_c, 1, 61, 100
3, 280320, Note_on_c, 1, 59, 80
3, 280320, Note_on_c, 1, 56, 80
3, 280696, Note_off_c, 1, 59, 100
3, 280696, Note_off_c, 1, 56, 100
3, 280704, Note_on_c, 1, 52, 80
3, 281080, Note_off_c, 1, 52, 100
3, 281472, Note_on_c, 1, 57, 80
3, 281472, Note_on_c, 1, 61, 80
3, 281848, Note_off_c, 1, 57, 100
3, 281848, Note_off_c, 1, 61, 100
3, 281856, Note_on_c, 1, 59, 80
3, 281856, Note_on_c, 1, 62, 80
3, 282232, Note_off_c, 1, 59, 100
3, 282232, Note_off_c, 1, 62, 100
3, 282240, Note_on_c, 1, 52, 80
3, 282616, Note_off_c, 1, 52, 100
3, 283008, Note_on_c, 1, 54, 80
3, 283384, Note_off_c, 1, 54, 100
3, 283776, Note_on_c, 1, 50, 80
3, 284152, Note_off_c, 1, 50, 100
3, 284544, Note_on_c, 1, 47, 80
3, 284920, Note_off_c, 1, 47, 100
3, 285312, Note_on_c, 1, 44, 80
3, 285688, Note_off_c, 1, 44, 100
3, 286080, Note_on_c, 1, 45, 80
3, 286456, Note_off_c, 1, 45, 100
3, 286848, Note_on_c, 1, 38, 80
3, 287224, Note_off_c, 1, 38, 100
3, 287616, Note_on_c, 1, 40, 80
3, 287992, Note_off_c, 1, 40, 100
3, 288000, Note_on_c, 1, 45, 80
3, 288376, Note_off_c, 1, 45, 100
3, 288384, Note_on_c, 1, 33, 80
3, 288760, Note_off_c, 1, 33, 100
3, 289152, Note_on_c, 1, 69, 80
3, 289152, Note_on_c, 1, 72, 80
3, 289528, Note_off_c, 1, 69, 100
3, 289528, Note_off_c, 1, 72, 100
3, 289536, Note_on_c, 1, 71, 80
3, 289536, Note_on_c, 1, 74, 80
3, 289912, Note_off_c, 1, 71, 100
3, 289912, Note_off_c, 1, 74, 100
3, 289920, Note_on_c, 1, 64, 80
3, 290296, Note_off_c, 1, 64, 100
3, 290688, Note_on_c, 1, 72, 80
3, 290688, Note_on_c, 1, 69, 80
3, 291064, Note_off_c, 1, 72, 100
3, 291064, Note_off_c, 1, 69, 100
3, 291072, Note_on_c, 1, 71, 80
3, 291072, Note_on_c, 1, 68, 80
3, 291448, Note_off_c, 1, 71, 100
3, 291448, Note_off_c, 1, 68, 100
3, 291456, Note_on_c, 1, 64, 80
3, 291832, Note_off_c, 1, 64, 100
3, 292224, Note_on_c, 1, 69, 80
3, 292224, Note_on_c, 1, 72, 80
3, 292600, Note_off_c, 1, 69, 100
3, 292600, Note_off_c, 1, 72, 100
3, 292608, Note_on_c, 1, 71, 80
3, 292608, Note_on_c, 1, 74, 80
3, 292984, Note_off_c, 1, 71, 100
3, 292984, Note_off_c, 1, 74, 100
3, 292992, Note_on_c, 1, 64, 80
3, 293368, Note_off_c, 1, 64, 100
3, 293760, Note_on_c, 1, 65, 80
3, 294016, Note_off_c, 1, 65, 100
3, 294528, Note_on_c, 1, 62, 80
3, 294784, Note_off_c, 1, 62, 100
3, 295296, Note_on_c, 1, 59, 80
3, 295552, Note_off_c, 1, 59, 100
3, 296064, Note_on_c, 1, 56, 80
3, 296320, Note_off_c, 1, 56, 100
3, 298368, Note_on_c, 1, 69, 80
3, 298744, Note_off_c, 1, 69, 100
3, 298752, Note_on_c, 1, 68, 80
3, 299128, Note_off_c, 1, 68, 100
3, 299136, Note_on_c, 1, 66, 80
3, 299512, Note_off_c, 1, 66, 100
3, 299520, Note_on_c, 1, 64, 80
3, 299896, Note_off_c, 1, 64, 100
3, 299904, Note_on_c, 1, 69, 80
3, 300280, Note_off_c, 1, 69, 100
3, 300288, Note_on_c, 1, 68, 80
3, 300664, Note_off_c, 1, 68, 100
3, 300672, Note_on_c, 1, 66, 80
3, 301048, Note_off_c, 1, 66, 100
3, 301056, Note_on_c, 1, 64, 80
3, 301432, Note_off_c, 1, 64, 100
3, 301440, Note_on_c, 1, 69, 80
3, 301816, Note_off_c, 1, 69, 100
3, 301824, Note_on_c, 1, 62, 80
3, 302200, Note_off_c, 1, 62, 100
3, 302208, Note_on_c, 1, 63, 80
3, 302584, Note_off_c, 1, 63, 100
3, 302592, Note_on_c, 1, 64, 80
3, 302968, Note_off_c, 1, 64, 100
3, 302976, Note_on_c, 1, 52, 80
3, 303352, Note_off_c, 1, 52, 100
3, 303360, Note_on_c, 1, 57, 80
3, 303736, Note_off_c, 1, 57, 100
3, 303744, Note_on_c, 1, 52, 80
3, 304120, Note_off_c, 1, 52, 100
3, 304128, Note_on_c, 1, 49, 80
3, 304504, Note_off_c, 1, 49, 100
3, 304512, Note_on_c, 1, 45, 70
3, 304888, Note_off_c, 1, 45, 100
3, 304896, Note_on_c, 1, 44, 71
3, 305272, Note_off_c, 1, 44, 100
3, 305280, Note_on_c, 1, 42, 72
3, 305656, Note_off_c, 1, 42, 100
3, 305664, Note_on_c, 1, 40, 74
3, 306040, Note_off_c, 1, 40, 100
3, 306048, Note_on_c, 1, 45, 75
3, 306424, Note_off_c, 1, 45, 100
3, 306432, Note_on_c, 1, 44, 77
3, 306808, Note_off_c, 1, 44, 100
3, 306816, Note_on_c, 1, 42, 78
3, 307192, Note_off_c, 1, 42, 100
3, 307200, Note_on_c, 1, 40, 79
3, 307576, Note_off_c, 1, 40, 100
3, 307584, Note_on_c, 1, 43, 81
3, 307960, Note_off_c, 1, 43, 100
3, 307968, Note_on_c, 1, 42, 82
3, 308344, Note_off_c, 1, 42, 100
3, 308352, Note_on_c, 1, 40, 84
3, 308728, Note_off_c, 1, 40, 100
3, 308736, Note_on_c, 1, 38, 85
3, 309112, Note_off_c, 1, 38, 100
3, 309120, Note_on_c, 1, 43, 87
3, 309496, Note_off_c, 1, 43, 100
3, 309504, Note_on_c, 1, 42, 88
3, 309880, Note_off_c, 1, 42, 100
3, 309888, Note_on_c, 1, 40, 89
3, 310264, Note_off_c, 1, 40, 100
3, 310272, Note_on_c, 1, 38, 91
3, 310648, Note_off_c, 1, 38, 100
3, 310656, Note_on_c, 1, 41, 92
3, 311032, Note_off_c, 1, 41, 100
3, 311040, Note_on_c, 1, 40, 94
3, 311416, Note_off_c, 1, 40, 100
3, 311424, Note_on_c, 1, 38, 95
3, 311800, Note_off_c, 1, 38, 100
3, 311808, Note_on_c, 1, 36, 97
3, 312184, Note_off_c, 1, 36, 100
3, 312192, Note_on_c, 1, 55, 98
3, 312192, Note_on_c, 1, 53, 98
3, 312568, Note_off_c, 1, 53, 100
3, 312576, Note_on_c, 1, 52, 99
3, 312952, Note_off_c, 1, 52, 100
3, 312960, Note_on_c, 1, 50, 100
3, 313336, Note_off_c, 1, 50, 100
3, 313344, Note_on_c, 1, 48, 100
3, 313720, Note_off_c, 1, 55, 100
3, 313720, Note_off_c, 1, 48, 100
3, 313728, Note_on_c, 1, 59, 100
3, 314104, Note_off_c, 1, 59, 100
3, 314112, Note_on_c, 1, 60, 100
3, 314488, Note_off_c, 1, 60, 100
3, 314496, Note_on_c, 1, 62, 100
3, 314872, Note_off_c, 1, 62, 100
3, 314880, Note_on_c, 1, 64, 100
3, 315256, Note_off_c, 1, 64, 100
3, 315264, Note_on_c, 1, 67, 100
3, 315264, Note_on_c, 1, 65, 100
3, 315640, Note_off_c, 1, 65, 100
3, 315648, Note_on_c, 1, 64, 100
3, 316024, Note_off_c, 1, 64, 100
3, 316032, Note_on_c, 1, 62, 100
3, 316408, Note_off_c, 1, 62, 100
3, 316416, Note_on_c, 1, 60, 100
3, 316792, Note_off_c, 1, 67, 100
3, 316792, Note_off_c, 1, 60, 100
3, 316800, Note_on_c, 1, 43, 100
3, 316800, Note_on_c, 1, 45, 100
3, 317176, Note_off_c, 1, 43, 100
3, 317184, Note_on_c, 1, 41, 100
3, 317560, Note_off_c, 1, 41, 100
3, 317568, Note_on_c, 1, 40, 100
3, 317944, Note_off_c, 1, 40, 100
3, 317952, Note_on_c, 1, 38, 100
3, 318328, Note_off_c, 1, 45, 100
3, 318328, Note_off_c, 1, 38, 100
3, 318336, Note_on_c, 1, 55, 100
3, 318336, Note_on_c, 1, 57, 100
3, 318712, Note_off_c, 1, 55, 100
3, 318720, Note_on_c, 1, 53, 100
3, 319096, Note_off_c, 1, 53, 100
3, 319104, Note_on_c, 1, 52, 100
3, 319480, Note_off_c, 1, 52, 100
3, 319488, Note_on_c, 1, 50, 100
3, 319864, Note_off_c, 1, 57, 100
3, 319864, Note_off_c, 1, 50, 100
3, 319872, Note_on_c, 1, 61, 100
3, 320248, Note_off_c, 1, 61, 100
3, 320256, Note_on_c, 1, 62, 100
3, 320632, Note_off_c, 1, 62, 100
3, 320640, Note_on_c, 1, 64, 100
3, 321016, Note_off_c, 1, 64, 100
3, 321024, Note_on_c, 1, 65, 100
3, 321400, Note_off_c, 1, 65, 100
3, 321408, Note_on_c, 1, 69, 100
3, 321408, Note_on_c, 1, 67, 100
3, 321784, Note_off_c, 1, 67, 100
3, 321792, Note_on_c, 1, 65, 100
3, 322168, Note_off_c, 1, 65, 100
3, 322176, Note_on_c, 1, 64, 100
3, 322552, Note_off_c, 1, 64, 100
3, 322560, Note_on_c, 1, 62, 100
3, 322936, Note_off_c, 1, 69, 100
3, 322936, Note_off_c, 1, 62, 100
3, 322944, Note_on_c, 1, 51, 100
3, 322944, Note_on_c, 1, 53, 100
3, 323320, Note_off_c, 1, 51, 100
3, 323328, Note_on_c, 1, 50, 100
3, 323704, Note_off_c, 1, 50, 100
3, 323712, Note_on_c, 1, 48, 100
3, 324088, Note_off_c, 1, 48, 100
3, 324096, Note_on_c, 1, 46, 100
3, 324472, Note_off_c, 1, 53, 100
3, 324472, Note_off_c, 1, 46, 100
3, 324480, Note_on_c, 1, 63, 100
3, 324480, Note_on_c, 1, 65, 100
3, 324856, Note_off_c, 1, 63, 100
3, 324864, Note_on_c, 1, 62, 100
3, 325240, Note_off_c, 1, 62, 100
3, 325248, Note_on_c, 1, 60, 100
3, 325624, Note_off_c, 1, 60, 100
3, 325632, Note_on_c, 1, 58, 100
3, 326008, Note_off_c, 1, 65, 100
3, 326008, Note_off_c, 1, 58, 100
3, 326016, Note_on_c, 1, 75, 110
3, 326392, Note_off_c, 1, 75, 100
3, 326400, Note_on_c, 1, 74, 110
3, 326776, Note_off_c, 1, 74, 100
3, 326784, Note_on_c, 1, 72, 110
3, 327160, Note_off_c, 1, 72, 100
3, 327168, Note_on_c, 1, 70, 110
3, 327544, Note_off_c, 1, 70, 100
3, 327552, Note_on_c, 1, 69, 110
3, 327928, Note_off_c, 1, 69, 100
3, 327936, Note_on_c, 1, 68, 110
3, 328312, Note_off_c, 1, 68, 100
3, 328320, Note_on_c, 1, 66, 110
3, 328696, Note_off_c, 1, 66, 100
3, 328704, Note_on_c, 1, 64, 110
3, 329080, Note_off_c, 1, 64, 100
3, 329088, Note_on_c, 1, 62, 110
3, 329464, Note_off_c, 1, 62, 100
3, 329472, Note_on_c, 1, 73, 110
3, 329472, Note_on_c, 1, 61, 110
3, 329848, Note_off_c, 1, 73, 100
3, 329848, Note_off_c, 1, 61, 100
3, 329856, Note_on_c, 1, 71, 110
3, 329856, Note_on_c, 1, 59, 110
3, 330232, Note_off_c, 1, 71, 100
3, 330232, Note_off_c, 1, 59, 100
3, 330240, Note_on_c, 1, 69, 110
3, 330240, Note_on_c, 1, 57, 110
3, 330616, Note_off_c, 1, 69, 100
3, 330616, Note_off_c, 1, 57, 100
3, 330624, Note_on_c, 1, 68, 110
3, 330624, Note_on_c, 1, 56, 110
3, 331000, Note_off_c, 1, 68, 100
3, 331000, Note_off_c, 1, 56, 100
3, 331008, Note_on_c, 1, 66, 110
3, 331008, Note_on_c, 1, 54, 110
3, 331384, Note_off_c, 1, 66, 100
3, 331384, Note_off_c, 1, 54, 100
3, 331392, Note_on_c, 1, 64, 110
3, 331392, Note_on_c, 1, 52, 110
3, 331768, Note_off_c, 1, 64, 100
3, 331768, Note_off_c, 1, 52, 100
3, 331776, Note_on_c, 1, 62, 110
3, 331776, Note_on_c, 1, 50, 110
3, 332152, Note_off_c, 1, 62, 100
3, 332152, Note_off_c, 1, 50, 100
3, 332160, Note_on_c, 1, 61, 110
3, 332160, Note_on_c, 1, 49, 110
3, 332536, Note_off_c, 1, 61, 100
3, 332536, Note_off_c, 1, 49, 100
3, 332544, Note_on_c, 1, 59, 110
3, 332544, Note_on_c, 1, 47, 110
3, 332920, Note_off_c, 1, 59, 100
3, 332920, Note_off_c, 1, 47, 100
3, 332928, Note_on_c, 1, 57, 110
3, 332928, Note_on_c, 1, 45, 110
3, 333304, Note_off_c, 1, 57, 100
3, 333304, Note_off_c, 1, 45, 100
3, 333312, Note_on_c, 1, 56, 110
3, 333312, Note_on_c, 1, 44, 110
3, 333688, Note_off_c, 1, 56, 100
3, 333688, Note_off_c, 1, 44, 100
3, 333696, Note_on_c, 1, 54, 110
3, 333696, Note_on_c, 1, 42, 110
3, 334072, Note_off_c, 1, 54, 100
3, 334072, Note_off_c, 1, 42, 100
3, 334080, Note_on_c, 1, 52, 110
3, 334080, Note_on_c, 1, 40, 110
3, 334456, Note_off_c, 1, 52, 100
3, 334456, Note_off_c, 1, 40, 100
3, 334464, Note_on_c, 1, 50, 110
3, 334464, Note_on_c, 1, 38, 110
3, 334840, Note_off_c, 1, 50, 100
3, 334840, Note_off_c, 1, 38, 100
3, 334848, Note_on_c, 1, 49, 110
3, 334848, Note_on_c, 1, 37, 110
3, 335224, Note_off_c, 1, 49, 100
3, 335224, Note_off_c, 1, 37, 100
3, 335232, Note_on_c, 1, 47, 110
3, 335232, Note_on_c, 1, 35, 110
3, 335608, Note_off_c, 1, 47, 100
3, 335608, Note_off_c, 1, 35, 100
3, 335616, Note_on_c, 1, 45, 120
3, 335616, Note_on_c, 1, 33, 120
3, 335992, Note_off_c, 1, 45, 100
3, 335992, Note_off_c, 1, 33, 100
3, 336000, Note_on_c, 1, 47, 120
3, 336000, Note_on_c, 1, 35, 120
3, 336376, Note_off_c, 1, 47, 100
3, 336376, Note_off_c, 1, 35, 100
3, 336384, Note_on_c, 1, 49, 120
3, 336384, Note_on_c, 1, 37, 120
3, 336760, Note_off_c, 1, 49, 100
3, 336760, Note_off_c, 1, 37, 100
3, 336768, Note_on_c, 1, 50, 120
3, 336768, Note_on_c, 1, 38, 120
3, 337144, Note_off_c, 1, 50, 100
3, 337144, Note_off_c, 1, 38, 100
3, 337152, Note_on_c, 1, 52, 120
3, 337152, Note_on_c, 1, 40, 120
3, 337528, Note_off_c, 1, 52, 100
3, 337528, Note_off_c, 1, 40, 100
3, 337920, Note_on_c, 1, 52, 120
3, 337920, Note_on_c, 1, 40, 120
3, 338296, Note_off_c, 1, 52, 100
3, 338296, Note_off_c, 1, 40, 100
3, 338688, Note_on_c, 1, 33, 120
3, 338872, Note_off_c, 1, 33, 100
3, 338880, Note_on_c, 1, 45, 80
3, 339064, Note_off_c, 1, 45, 100
3, 339072, Note_on_c, 1, 44, 80
3, 339256, Note_off_c, 1, 44, 100
3, 339264, Note_on_c, 1, 45, 80
3, 339448, Note_off_c, 1, 45, 100
3, 339456, Note_on_c, 1, 44, 80
3, 339640, Note_off_c, 1, 44, 100
3, 339648, Note_on_c, 1, 45, 80
3, 339832, Note_off_c, 1, 45, 100
3, 339840, Note_on_c, 1, 44, 80
3, 340024, Note_off_c, 1, 44, 100
3, 340032, Note_on_c, 1, 45, 80
3, 340216, Note_off_c, 1, 45, 100
3, 340224, Note_on_c, 1, 35, 80
3, 340408, Note_off_c, 1, 35, 100
3, 340416, Note_on_c, 1, 45, 80
3, 340600, Note_off_c, 1, 45, 100
3, 340608, Note_on_c, 1, 44, 80
3, 340792, Note_off_c, 1, 44, 100
3, 340800, Note_on_c, 1, 45, 80
3, 340984, Note_off_c, 1, 45, 100
3, 340992, Note_on_c, 1, 37, 80
3, 341176, Note_off_c, 1, 37, 100
3, 341184, Note_on_c, 1, 45, 80
3, 341368, Note_off_c, 1, 45, 100
3, 341376, Note_on_c, 1, 44, 80
3, 341560, Note_off_c, 1, 44, 100
3, 341568, Note_on_c, 1, 45, 80
3, 341752, Note_off_c, 1, 45, 100
3, 341760, Note_on_c, 1, 38, 80
3, 341944, Note_off_c, 1, 38, 100
3, 341952, Note_on_c, 1, 45, 80
3, 342136, Note_off_c, 1, 45, 100
3, 342144, Note_on_c, 1, 44, 80
3, 342328, Note_off_c, 1, 44, 100
3, 342336, Note_on_c, 1, 45, 80
3, 342520, Note_off_c, 1, 45, 100
3, 342528, Note_on_c, 1, 40, 80
3, 342712, Note_off_c, 1, 40, 100
3, 342720, Note_on_c, 1, 45, 80
3, 342904, Note_off_c, 1, 45, 100
3, 342912, Note_on_c, 1, 44, 80
3, 343096, Note_off_c, 1, 44, 100
3, 343104, Note_on_c, 1, 45, 80
3, 343288, Note_off_c, 1, 45, 100
3, 343296, Note_on_c, 1, 42, 80
3, 343480, Note_off_c, 1, 42, 100
3, 343488, Note_on_c, 1, 45, 80
3, 343672, Note_off_c, 1, 45, 100
3, 343680, Note_on_c, 1, 44, 80
3, 343864, Note_off_c, 1, 44, 100
3, 343872, Note_on_c, 1, 45, 80
3, 344056, Note_off_c, 1, 45, 100
3, 344064, Note_on_c, 1, 44, 80
3, 344248, Note_off_c, 1, 44, 100
3, 344256, Note_on_c, 1, 45, 80
3, 344440, Note_off_c, 1, 45, 100
3, 344448, Note_on_c, 1, 44, 80
3, 344632, Note_off_c, 1, 44, 100
3, 344640, Note_on_c, 1, 45, 80
3, 344824, Note_off_c, 1, 45, 100
3, 344832, Note_on_c, 1, 33, 120
3, 344928, Note_on_c, 1, 45, 120
3, 345208, Note_off_c, 1, 33, 100
3, 345984, Note_on_c, 1, 57, 83
3, 346360, Note_off_c, 1, 57, 100
3, 346368, Note_on_c, 1, 55, 84
3, 346744, Note_off_c, 1, 55, 100
3, 346752, Note_on_c, 1, 52, 85
3, 347128, Note_off_c, 1, 52, 100
3, 347136, Note_on_c, 1, 57, 87
3, 347512, Note_off_c, 1, 57, 100
3, 347520, Note_on_c, 1, 55, 88
3, 347896, Note_off_c, 1, 55, 100
3, 347904, Note_on_c, 1, 54, 89
3, 348280, Note_off_c, 1, 54, 100
3, 348288, Note_on_c, 1, 52, 91
3, 348664, Note_off_c, 1, 52, 100
3, 348672, Note_on_c, 1, 50, 92
3, 349048, Note_off_c, 1, 50, 100
3, 349056, Note_on_c, 1, 49, 93
3, 349432, Note_off_c, 1, 49, 100
3, 349440, Note_on_c, 1, 50, 95
3, 349816, Note_off_c, 1, 50, 100
3, 349824, Note_on_c, 1, 47, 96
3, 350200, Note_off_c, 1, 47, 100
3, 350208, Note_on_c, 1, 52, 97
3, 350584, Note_off_c, 1, 52, 100
3, 350592, Note_on_c, 1, 50, 99
3, 350968, Note_off_c, 1, 45, 100
3, 350968, Note_off_c, 1, 50, 100
3, 350976, Note_on_c, 1, 33, 120
3, 352128, Note_on_c, 1, 45, 120
3, 352504, Note_off_c, 1, 45, 100
3, 352512, Note_on_c, 1, 43, 120
3, 352888, Note_off_c, 1, 43, 100
3, 352896, Note_on_c, 1, 40, 120
3, 353272, Note_off_c, 1, 40, 100
3, 353280, Note_on_c, 1, 45, 120
3, 353656, Note_off_c, 1, 45, 100
3, 353664, Note_on_c, 1, 43, 120
3, 354040, Note_off_c, 1, 43, 100
3, 354048, Note_on_c, 1, 42, 120
3, 354424, Note_off_c, 1, 42, 100
3, 354432, Note_on_c, 1, 40, 120
3, 354808, Note_off_c, 1, 40, 100
3, 354816, Note_on_c, 1, 38, 120
3, 355192, Note_off_c, 1, 38, 100
3, 355200, Note_on_c, 1, 37, 120
3, 355576, Note_off_c, 1, 37, 100
3, 355584, Note_on_c, 1, 38, 120
3, 355960, Note_off_c, 1, 38, 100
3, 355968, Note_on_c, 1, 35, 120
3, 356344, Note_off_c, 1, 35, 100
3, 356352, Note_on_c, 1, 40, 120
3, 356728, Note_off_c, 1, 40, 100
3, 356736, Note_on_c, 1, 38, 120
3, 357112, Note_off_c, 1, 38, 100
3, 357120, Note_on_c, 1, 37, 120
3, 357496, Note_off_c, 1, 33, 100
3, 357496, Note_off_c, 1, 37, 100
3, 357888, Note_on_c, 1, 64, 70
3, 358648, Note_off_c, 1, 64, 100
3, 358656, Note_on_c, 1, 66, 70
3, 359416, Note_off_c, 1, 66, 100
3, 359424, Note_on_c, 1, 59, 70
3, 360184, Note_off_c, 1, 59, 100
3, 360192, Note_on_c, 1, 64, 70
3, 360952, Note_off_c, 1, 64, 100
3, 360960, Note_on_c, 1, 61, 70
3, 360960, Note_on_c, 1, 54, 70
3, 361720, Note_off_c, 1, 61, 100
3, 361720, Note_off_c, 1, 54, 100
3, 361728, Note_on_c, 1, 59, 70
3, 361728, Note_on_c, 1, 50, 70
3, 362488, Note_off_c, 1, 50, 100
3, 362496, Note_on_c, 1, 52, 70
3, 363256, Note_off_c, 1, 59, 100
3, 363256, Note_off_c, 1, 52, 100
3, 363264, Note_on_c, 1, 57, 70
3, 363264, Note_on_c, 1, 45, 70
3, 364024, Note_off_c, 1, 57, 100
3, 364024, Note_off_c, 1, 45, 100
3, 364032, Note_on_c, 1, 53, 70
3, 364792, Note_off_c, 1, 53, 100
3, 364800, Note_on_c, 1, 54, 70
3, 365560, Note_off_c, 1, 54, 100
3, 365568, Note_on_c, 1, 47, 70
3, 366328, Note_off_c, 1, 47, 100
3, 366336, Note_on_c, 1, 52, 70
3, 367096, Note_off_c, 1, 52, 100
3, 367104, Note_on_c, 1, 49, 70
3, 367104, Note_on_c, 1, 42, 70
3, 367864, Note_off_c, 1, 49, 100
3, 367864, Note_off_c, 1, 42, 100
3, 367872, Note_on_c, 1, 47, 70
3, 367872, Note_on_c, 1, 38, 70
3, 368632, Note_off_c, 1, 38, 100
3, 368640, Note_on_c, 1, 40, 70
3, 369400, Note_off_c, 1, 47, 100
3, 369400, Note_off_c, 1, 40, 100
3, 369408, Note_on_c, 1, 33, 70
3, 370560, Note_on_c, 1, 45, 80
3, 370936, Note_off_c, 1, 45, 100
3, 370944, Note_on_c, 1, 44, 80
3, 371320, Note_off_c, 1, 44, 100
3, 371328, Note_on_c, 1, 42, 80
3, 371704, Note_off_c, 1, 42, 100
3, 371712, Note_on_c, 1, 40, 80
3, 372088, Note_off_c, 1, 40, 100
3, 372472, Note_off_c, 1, 33, 100
3, 372480, Note_on_c, 1, 33, 70
3, 373632, Note_on_c, 1, 45, 70
3, 374008, Note_off_c, 1, 45, 100
3, 374016, Note_on_c, 1, 44, 70
3, 374392, Note_off_c, 1, 44, 100
3, 374400, Note_on_c, 1, 42, 70
3, 374776, Note_off_c, 1, 42, 100
3, 374784, Note_on_c, 1, 40, 70
3, 375160, Note_off_c, 1, 40, 100
3, 375544, Note_off_c, 1, 33, 100
3, 375552, Note_on_c, 1, 33, 70
3, 376704, Note_on_c, 1, 45, 70
3, 377080, Note_off_c, 1, 45, 100
3, 377088, Note_on_c, 1, 44, 70
3, 377464, Note_off_c, 1, 44, 100
3, 377472, Note_on_c, 1, 42, 70
3, 377848, Note_off_c, 1, 42, 100
3, 377856, Note_on_c, 1, 40, 70
3, 378232, Note_off_c, 1, 40, 100
3, 378616, Note_off_c, 1, 33, 100
3, 378624, Note_on_c, 1, 33, 70
3, 379776, Note_on_c, 1, 45, 70
3, 380152, Note_off_c, 1, 45, 100
3, 380160, Note_on_c, 1, 43, 70
3, 380536, Note_off_c, 1, 43, 100
3, 380544, Note_on_c, 1, 42, 70
3, 380920, Note_off_c, 1, 42, 100
3, 380928, Note_on_c, 1, 40, 70
3, 381304, Note_off_c, 1, 40, 100
3, 381688, Note_off_c, 1, 33, 100
3, 382848, Note_on_c, 1, 69, 70
3, 383224, Note_off_c, 1, 69, 100
3, 383232, Note_on_c, 1, 67, 70
3, 383608, Note_off_c, 1, 67, 100
3, 383616, Note_on_c, 1, 66, 70
3, 383992, Note_off_c, 1, 66, 100
3, 384000, Note_on_c, 1, 64, 70
3, 384376, Note_off_c, 1, 64, 100
3, 388992, Note_on_c, 1, 69, 70
3, 389368, Note_off_c, 1, 69, 100
3, 389376, Note_on_c, 1, 67, 70
3, 389752, Note_off_c, 1, 67, 100
3, 389760, Note_on_c, 1, 65, 70
3, 390136, Note_off_c, 1, 65, 100
3, 390144, Note_on_c, 1, 64, 70
3, 390520, Note_off_c, 1, 64, 100
3, 392064, Note_on_c, 1, 45, 70
3, 392440, Note_off_c, 1, 45, 100
3, 392448, Note_on_c, 1, 43, 70
3, 392824, Note_off_c, 1, 43, 100
3, 392832, Note_on_c, 1, 41, 70
3, 393208, Note_off_c, 1, 41, 100
3, 393216, Note_on_c, 1, 40, 70
3, 393592, Note_off_c, 1, 40, 100
3, 393600, Note_on_c, 1, 38, 80
3, 393976, Note_off_c, 1, 38, 100
3, 393984, Note_on_c, 1, 37, 82
3, 394360, Note_off_c, 1, 37, 100
3, 394368, Note_on_c, 1, 35, 84
3, 394744, Note_off_c, 1, 35, 100
3, 394752, Note_on_c, 1, 33, 87
3, 395128, Note_off_c, 1, 33, 100
3, 395136, Note_on_c, 1, 37, 89
3, 395512, Note_off_c, 1, 37, 100
3, 395520, Note_on_c, 1, 38, 92
3, 395896, Note_off_c, 1, 38, 100
3, 395904, Note_on_c, 1, 41, 94
3, 396280, Note_off_c, 1, 41, 100
3, 396288, Note_on_c, 1, 45, 97
3, 396288, Note_on_c, 1, 33, 97
3, 396664, Note_off_c, 1, 45, 100
3, 396664, Note_off_c, 1, 33, 100
3, 396672, Note_on_c, 1, 49, 99
3, 396672, Note_on_c, 1, 37, 99
3, 397048, Note_off_c, 1, 49, 100
3, 397048, Note_off_c, 1, 37, 100
3, 397056, Note_on_c, 1, 50, 102
3, 397056, Note_on_c, 1, 38, 102
3, 397432, Note_off_c, 1, 50, 100
3, 397432, Note_off_c, 1, 38, 100
3, 397440, Note_on_c, 1, 52, 104
3, 397440, Note_on_c, 1, 40, 104
3, 397816, Note_off_c, 1, 52, 100
3, 397816, Note_off_c, 1, 40, 100
3, 397824, Note_on_c, 1, 53, 107
3, 397824, Note_on_c, 1, 41, 107
3, 398200, Note_off_c, 1, 53, 100
3, 398200, Note_off_c, 1, 41, 100
3, 398208, Note_on_c, 1, 55, 109
3, 398208, Note_on_c, 1, 43, 109
3, 398584, Note_off_c, 1, 55, 100
3, 398584, Note_off_c, 1, 43, 100
3, 398592, Note_on_c, 1, 57, 120
3, 398592, Note_on_c, 1, 45, 120
3, 401656, Note_off_c, 1, 45, 100
3, 401656, Note_off_c, 1, 57, 100
3, 401664, Key_signature, 0, "major"
3, 401664, Note_on_c, 1, 46, 120
3, 401848, Note_off_c, 1, 46, 100
3, 401856, Note_on_c, 1, 58, 80
3, 402040, Note_off_c, 1, 58, 100
3, 402048, Note_on_c, 1, 46, 80
3, 402232, Note_off_c, 1, 46, 100
3, 402240, Note_on_c, 1, 58, 80
3, 402424, Note_off_c, 1, 58, 100
3, 402432, Note_on_c, 1, 46, 80
3, 402616, Note_off_c, 1, 46, 100
3, 402624, Note_on_c, 1, 58, 80
3, 402808, Note_off_c, 1, 58, 100
3, 402816, Note_on_c, 1, 46, 80
3, 403000, Note_off_c, 1, 46, 100
3, 403008, Note_on_c, 1, 58, 80
3, 403192, Note_off_c, 1, 58, 100
3, 403200, Note_on_c, 1, 46, 80
3, 403384, Note_off_c, 1, 46, 100
3, 403392, Note_on_c, 1, 58, 80
3, 403576, Note_off_c, 1, 58, 100
3, 403584, Note_on_c, 1, 46, 80
3, 403768, Note_off_c, 1, 46, 100
3, 403776, Note_on_c, 1, 58, 80
3, 403960, Note_off_c, 1, 58, 100
3, 403968, Note_on_c, 1, 46, 80
3, 404152, Note_off_c, 1, 46, 100
3, 404160, Note_on_c, 1, 58, 80
3, 404344, Note_off_c, 1, 58, 100
3, 404352, Note_on_c, 1, 46, 80
3, 404536, Note_off_c, 1, 46, 100
3, 404544, Note_on_c, 1, 58, 80
3, 404728, Note_off_c, 1, 58, 100
3, 404736, Note_on_c, 1, 46, 80
3, 404920, Note_off_c, 1, 46, 100
3, 404928, Note_on_c, 1, 58, 80
3, 405112, Note_off_c, 1, 58, 100
3, 405120, Note_on_c, 1, 46, 80
3, 405304, Note_off_c, 1, 46, 100
3, 405312, Note_on_c, 1, 58, 80
3, 405496, Note_off_c, 1, 58, 100
3, 405504, Note_on_c, 1, 46, 80
3, 405688, Note_off_c, 1, 46, 100
3, 405696, Note_on_c, 1, 58, 80
3, 405880, Note_off_c, 1, 58, 100
3, 405888, Note_on_c, 1, 46, 80
3, 406072, Note_off_c, 1, 46, 100
3, 406080, Note_on_c, 1, 58, 80
3, 406264, Note_off_c, 1, 58, 100
3, 406272, Note_on_c, 1, 46, 80
3, 406456, Note_off_c, 1, 46, 100
3, 406464, Note_on_c, 1, 58, 80
3, 406648, Note_off_c, 1, 58, 100
3, 406656, Note_on_c, 1, 46, 80
3, 406840, Note_off_c, 1, 46, 100
3, 406848, Note_on_c, 1, 58, 80
3, 407032, Note_off_c, 1, 58, 100
3, 407040, Note_on_c, 1, 46, 80
3, 407224, Note_off_c, 1, 46, 100
3, 407232, Note_on_c, 1, 58, 80
3, 407416, Note_off_c, 1, 58, 100
3, 407424, Note_on_c, 1, 46, 80
3, 407608, Note_off_c, 1, 46, 100
3, 407616, Note_on_c, 1, 58, 80
3, 407800, Note_off_c, 1, 58, 100
3, 407808, Note_on_c, 1, 34, 120
3, 407992, Note_off_c, 1, 34, 100
3, 408000, Note_on_c, 1, 46, 80
3, 408184, Note_off_c, 1, 46, 100
3, 408192, Note_on_c, 1, 34, 80
3, 408376, Note_off_c, 1, 34, 100
3, 408384, Note_on_c, 1, 46, 80
3, 408568, Note_off_c, 1, 46, 100
3, 408576, Note_on_c, 1, 34, 80
3, 408760, Note_off_c, 1, 34, 100
3, 408768, Note_on_c, 1, 46, 80
3, 408952, Note_off_c, 1, 46, 100
3, 408960, Note_on_c, 1, 34, 80
3, 409144, Note_off_c, 1, 34, 100
3, 409152, Note_on_c, 1, 46, 80
3, 409336, Note_off_c, 1, 46, 100
3, 409344, Note_on_c, 1, 34, 80
3, 409528, Note_off_c, 1, 34, 100
3, 409536, Note_on_c, 1, 46, 80
3, 409720, Note_off_c, 1, 46, 100
3, 409728, Note_on_c, 1, 34, 80
3, 409912, Note_off_c, 1, 34, 100
3, 409920, Note_on_c, 1, 46, 80
3, 410104, Note_off_c, 1, 46, 100
3, 410112, Note_on_c, 1, 34, 80
3, 410296, Note_off_c, 1, 34, 100
3, 410304, Note_on_c, 1, 46, 80
3, 410488, Note_off_c, 1, 46, 100
3, 410496, Note_on_c, 1, 34, 80
3, 410680, Note_off_c, 1, 34, 100
3, 410688, Note_on_c, 1, 46, 80
3, 410872, Note_off_c, 1, 46, 100
3, 410880, Note_on_c, 1, 34, 80
3, 411064, Note_off_c, 1, 34, 100
3, 411072, Note_on_c, 1, 46, 80
3, 411256, Note_off_c, 1, 46, 100
3, 411264, Note_on_c, 1, 34, 80
3, 411448, Note_off_c, 1, 34, 100
3, 411456, Note_on_c, 1, 46, 80
3, 411640, Note_off_c, 1, 46, 100
3, 411648, Note_on_c, 1, 34, 80
3, 411832, Note_off_c, 1, 34, 100
3, 411840, Note_on_c, 1, 46, 80
3, 412024, Note_off_c, 1, 46, 100
3, 412032, Note_on_c, 1, 34, 80
3, 412216, Note_off_c, 1, 34, 100
3, 412224, Note_on_c, 1, 46, 80
3, 412408, Note_off_c, 1, 46, 100
3, 412416, Note_on_c, 1, 34, 80
3, 412600, Note_off_c, 1, 34, 100
3, 412608, Note_on_c, 1, 46, 80
3, 412792, Note_off_c, 1, 46, 100
3, 412800, Note_on_c, 1, 34, 80
3, 412984, Note_off_c, 1, 34, 100
3, 412992, Note_on_c, 1, 46, 80
3, 413176, Note_off_c, 1, 46, 100
3, 413184, Note_on_c, 1, 34, 80
3, 413368, Note_off_c, 1, 34, 100
3, 413376, Note_on_c, 1, 46, 80
3, 413560, Note_off_c, 1, 46, 100
3, 413568, Note_on_c, 1, 34, 80
3, 413752, Note_off_c, 1, 34, 100
3, 413760, Note_on_c, 1, 46, 80
3, 413944, Note_off_c, 1, 46, 100
3, 413952, Note_on_c, 1, 46, 120
3, 413952, Note_on_c, 1, 34, 120
3, 415096, Note_off_c, 1, 46, 100
3, 415096, Note_off_c, 1, 34, 100
3, 415104, Note_on_c, 1, 33, 120
3, 415480, Note_off_c, 1, 33, 100
3, 415488, Note_on_c, 1, 34, 120
3, 415864, Note_off_c, 1, 34, 100
3, 415872, Note_on_c, 1, 37, 120
3, 416248, Note_off_c, 1, 37, 100
3, 416256, Note_on_c, 1, 38, 120
3, 416632, Note_off_c, 1, 38, 100
3, 416640, Note_on_c, 1, 40, 120
3, 417016, Note_off_c, 1, 40, 100
3, 417024, Note_on_c, 1, 41, 120
3, 417400, Note_off_c, 1, 41, 100
3, 417408, Note_on_c, 1, 45, 120
3, 417784, Note_off_c, 1, 45, 100
3, 417792, Note_on_c, 1, 46, 120
3, 418168, Note_off_c, 1, 46, 100
3, 418176, Note_on_c, 1, 49, 120
3, 418552, Note_off_c, 1, 49, 100
3, 418560, Note_on_c, 1, 50, 120
3, 418936, Note_off_c, 1, 50, 100
3, 418944, Note_on_c, 1, 52, 120
3, 419320, Note_off_c, 1, 52, 100
3, 419328, Note_on_c, 1, 53, 120
3, 419704, Note_off_c, 1, 53, 100
3, 419712, Note_on_c, 1, 57, 120
3, 420088, Note_off_c, 1, 57, 100
3, 420096, Note_on_c, 1, 58, 120
3, 420280, Note_off_c, 1, 58, 100
3, 420288, Note_on_c, 1, 62, 120
3, 420472, Note_off_c, 1, 62, 100
3, 420480, Note_on_c, 1, 61, 120
3, 420664, Note_off_c, 1, 61, 100
3, 420672, Note_on_c, 1, 62, 120
3, 420856, Note_off_c, 1, 62, 100
3, 420864, Note_on_c, 1, 61, 120
3, 421048, Note_off_c, 1, 61, 100
3, 421056, Note_on_c, 1, 62, 120
3, 421240, Note_off_c, 1, 62, 100
3, 421248, Note_on_c, 1, 61, 120
3, 421432, Note_off_c, 1, 61, 100
3, 421440, Note_on_c, 1, 62, 120
3, 421624, Note_off_c, 1, 62, 100
3, 421632, Note_on_c, 1, 57, 120
3, 421816, Note_off_c, 1, 57, 100
3, 421824, Note_on_c, 1, 60, 120
3, 422008, Note_off_c, 1, 60, 100
3, 422016, Note_on_c, 1, 59, 120
3, 422200, Note_off_c, 1, 59, 100
3, 422208, Note_on_c, 1, 60, 120
3, 422392, Note_off_c, 1, 60, 100
3, 422400, Note_on_c, 1, 59, 120
3, 422584, Note_off_c, 1, 59, 100
3, 422592, Note_on_c, 1, 60, 120
3, 422776, Note_off_c, 1, 60, 100
3, 422784, Note_on_c, 1, 59, 120
3, 422968, Note_off_c, 1, 59, 100
3, 422976, Note_on_c, 1, 60, 120
3, 423160, Note_off_c, 1, 60, 100
3, 423168, Note_on_c, 1, 54, 120
3, 423352, Note_off_c, 1, 54, 100
3, 423360, Note_on_c, 1, 57, 120
3, 423544, Note_off_c, 1, 57, 100
3, 423552, Note_on_c, 1, 62, 120
3, 423736, Note_off_c, 1, 62, 100
3, 423744, Note_on_c, 1, 57, 120
3, 423928, Note_off_c, 1, 57, 100
3, 423936, Note_on_c, 1, 52, 120
3, 424120, Note_off_c, 1, 52, 100
3, 424128, Note_on_c, 1, 55, 120
3, 424312, Note_off_c, 1, 55, 100
3, 424320, Note_on_c, 1, 62, 120
3, 424504, Note_off_c, 1, 62, 100
3, 424512, Note_on_c, 1, 55, 120
3, 424696, Note_off_c, 1, 55, 100
3, 424704, Note_on_c, 1, 54, 120
3, 424888, Note_off_c, 1, 54, 100
3, 424896, Note_on_c, 1, 57, 120
3, 425080, Note_off_c, 1, 57, 100
3, 425088, Note_on_c, 1, 62, 120
3, 425272, Note_off_c, 1, 62, 100
3, 425280, Note_on_c, 1, 57, 120
3, 425464, Note_off_c, 1, 57, 100
3, 425472, Note_on_c, 1, 52, 120
3, 425656, Note_off_c, 1, 52, 100
3, 425664, Note_on_c, 1, 55, 120
3, 425848, Note_off_c, 1, 55, 100
3, 425856, Note_on_c, 1, 62, 120
3, 426040, Note_off_c, 1, 62, 100
3, 426048, Note_on_c, 1, 55, 120
3, 426232, Note_off_c, 1, 55, 100
3, 426240, Note_on_c, 1, 43, 120
3, 426240, Note_on_c, 1, 31, 120
3, 427384, Note_off_c, 1, 43, 100
3, 427384, Note_off_c, 1, 31, 100
3, 427392, Note_on_c, 1, 30, 120
3, 427768, Note_off_c, 1, 30, 100
3, 427776, Note_on_c, 1, 31, 120
3, 428152, Note_off_c, 1, 31, 100
3, 428160, Note_on_c, 1, 33, 120
3, 428536, Note_off_c, 1, 33, 100
3, 428544, Note_on_c, 1, 34, 120
3, 428920, Note_off_c, 1, 34, 100
3, 428928, Note_on_c, 1, 37, 120
3, 429304, Note_off_c, 1, 37, 100
3, 429312, Note_on_c, 1, 38, 120
3, 429688, Note_off_c, 1, 38, 100
3, 429696, Note_on_c, 1, 42, 120
3, 430072, Note_off_c, 1, 42, 100
3, 430080, Note_on_c, 1, 43, 120
3, 430456, Note_off_c, 1, 43, 100
3, 430464, Note_on_c, 1, 45, 120
3, 430840, Note_off_c, 1, 45, 100
3, 430848, Note_on_c, 1, 46, 120
3, 431224, Note_off_c, 1, 46, 100
3, 431232, Note_on_c, 1, 49, 120
3, 431608, Note_off_c, 1, 49, 100
3, 431616, Note_on_c, 1, 50, 120
3, 431992, Note_off_c, 1, 50, 100
3, 432000, Note_on_c, 1, 54, 120
3, 432376, Note_off_c, 1, 54, 100
3, 432384, Note_on_c, 1, 55, 120
3, 432568, Note_off_c, 1, 55, 100
3, 432576, Note_on_c, 1, 58, 120
3, 432760, Note_off_c, 1, 58, 100
3, 432768, Note_on_c, 1, 62, 120
3, 432952, Note_off_c, 1, 62, 100
3, 432960, Note_on_c, 1, 58, 120
3, 433144, Note_off_c, 1, 58, 100
3, 433152, Note_on_c, 1, 62, 120
3, 433336, Note_off_c, 1, 62, 100
3, 433344, Note_on_c, 1, 58, 120
3, 433528, Note_off_c, 1, 58, 100
3, 433536, Note_on_c, 1, 62, 120
3, 433720, Note_off_c, 1, 62, 100
3, 433728, Note_on_c, 1, 58, 120
3, 433912, Note_off_c, 1, 58, 100
3, 433920, Note_on_c, 1, 53, 120
3, 434104, Note_off_c, 1, 53, 100
3, 434112, Note_on_c, 1, 56, 120
3, 434296, Note_off_c, 1, 56, 100
3, 434304, Note_on_c, 1, 58, 120
3, 434488, Note_off_c, 1, 58, 100
3, 434496, Note_on_c, 1, 56, 120
3, 434680, Note_off_c, 1, 56, 100
3, 434688, Note_on_c, 1, 51, 120
3, 434872, Note_off_c, 1, 51, 100
3, 434880, Note_on_c, 1, 56, 120
3, 435064, Note_off_c, 1, 56, 100
3, 435072, Note_on_c, 1, 58, 120
3, 435256, Note_off_c, 1, 58, 100
3, 435264, Note_on_c, 1, 56, 120
3, 435448, Note_off_c, 1, 56, 100
3, 435456, Note_on_c, 1, 50, 120
3, 435640, Note_off_c, 1, 50, 100
3, 435648, Note_on_c, 1, 56, 120
3, 435832, Note_off_c, 1, 56, 100
3, 435840, Note_on_c, 1, 58, 120
3, 436024, Note_off_c, 1, 58, 100
3, 436032, Note_on_c, 1, 56, 120
3, 436216, Note_off_c, 1, 56, 100
3, 436224, Note_on_c, 1, 48, 120
3, 436408, Note_off_c, 1, 48, 100
3, 436416, Note_on_c, 1, 56, 120
3, 436600, Note_off_c, 1, 56, 100
3, 436608, Note_on_c, 1, 58, 120
3, 436792, Note_off_c, 1, 58, 100
3, 436800, Note_on_c, 1, 56, 120
3, 436984, Note_off_c, 1, 56, 100
3, 436992, Note_on_c, 1, 50, 120
3, 437176, Note_off_c, 1, 50, 100
3, 437184, Note_on_c, 1, 56, 120
3, 437368, Note_off_c, 1, 56, 100
3, 437376, Note_on_c, 1, 58, 120
3, 437560, Note_off_c, 1, 58, 100
3, 437568, Note_on_c, 1, 56, 120
3, 437752, Note_off_c, 1, 56, 100
3, 437760, Note_on_c, 1, 46, 120
3, 437944, Note_off_c, 1, 46, 100
3, 437952, Note_on_c, 1, 56, 120
3, 438136, Note_off_c, 1, 56, 100
3, 438144, Note_on_c, 1, 58, 120
3, 438328, Note_off_c, 1, 58, 100
3, 438336, Note_on_c, 1, 56, 120
3, 438520, Note_off_c, 1, 56, 100
3, 438528, Note_on_c, 1, 51, 120
3, 438528, Note_on_c, 1, 39, 120
3, 439672, Note_off_c, 1, 51, 100
3, 439672, Note_off_c, 1, 39, 100
3, 439680, Note_on_c, 1, 38, 120
3, 440056, Note_off_c, 1, 38, 100
3, 440064, Note_on_c, 1, 39, 120
3, 440440, Note_off_c, 1, 39, 100
3, 440448, Note_on_c, 1, 42, 120
3, 440824, Note_off_c, 1, 42, 100
3, 440832, Note_on_c, 1, 43, 120
3, 441208, Note_off_c, 1, 43, 100
3, 441216, Note_on_c, 1, 45, 120
3, 441592, Note_off_c, 1, 45, 100
3, 441600, Note_on_c, 1, 46, 120
3, 441976, Note_off_c, 1, 46, 100
3, 441984, Note_on_c, 1, 50, 120
3, 442360, Note_off_c, 1, 50, 100
3, 442368, Note_on_c, 1, 51, 120
3, 442744, Note_off_c, 1, 51, 100
3, 442752, Note_on_c, 1, 54, 120
3, 443128, Note_off_c, 1, 54, 100
3, 443136, Note_on_c, 1, 55, 120
3, 443512, Note_off_c, 1, 55, 100
3, 443520, Note_on_c, 1, 53, 120
3, 443896, Note_off_c, 1, 53, 100
3, 443904, Note_on_c, 1, 51, 120
3, 444280, Note_off_c, 1, 51, 100
3, 444288, Note_on_c, 1, 50, 120
3, 444664, Note_off_c, 1, 50, 100
3, 444672, Note_on_c, 1, 49, 120
3, 445048, Note_off_c, 1, 49, 100
3, 445440, Note_on_c, 1, 79, 120
3, 445816, Note_off_c, 1, 79, 100
3, 446784, Note_on_c, 1, 49, 120
3, 446968, Note_off_c, 1, 49, 100
3, 446976, Note_on_c, 1, 50, 120
3, 447160, Note_off_c, 1, 50, 100
3, 447168, Note_on_c, 1, 49, 120
3, 447352, Note_off_c, 1, 49, 100
3, 447360, Note_on_c, 1, 47, 120
3, 447544, Note_off_c, 1, 47, 100
3, 447552, Note_on_c, 1, 49, 120
3, 447736, Note_off_c, 1, 49, 100
3, 447744, Note_on_c, 1, 50, 120
3, 448120, Note_off_c, 1, 50, 100
3, 448512, Note_on_c, 1, 77, 120
3, 448888, Note_off_c, 1, 77, 100
3, 449856, Note_on_c, 1, 50, 120
3, 450040, Note_off_c, 1, 50, 100
3, 450048, Note_on_c, 1, 52, 120
3, 450232, Note_off_c, 1, 52, 100
3, 450240, Note_on_c, 1, 50, 120
3, 450424, Note_off_c, 1, 50, 100
3, 450432, Note_on_c, 1, 49, 120
3, 450616, Note_off_c, 1, 49, 100
3, 450624, Note_on_c, 1, 50, 120
3, 450808, Note_off_c, 1, 50, 100
3, 450816, Note_on_c, 1, 46, 120
3, 451192, Note_off_c, 1, 46, 100
3, 451584, Note_on_c, 1, 86, 120
3, 451960, Note_off_c, 1, 86, 100
3, 452928, Note_on_c, 1, 46, 120
3, 453112, Note_off_c, 1, 46, 100
3, 453120, Note_on_c, 1, 48, 120
3, 453304, Note_off_c, 1, 48, 100
3, 453312, Note_on_c, 1, 46, 120
3, 453496, Note_off_c, 1, 46, 100
3, 453504, Note_on_c, 1, 45, 120
3, 453688, Note_off_c, 1, 45, 100
3, 453696, Note_on_c, 1, 46, 120
3, 453880, Note_off_c, 1, 46, 100
3, 453888, Note_on_c, 1, 45, 120
3, 454264, Note_off_c, 1, 45, 100
3, 454272, Note_on_c, 1, 32, 120
3, 454648, Note_off_c, 1, 32, 100
3, 454656, Note_on_c, 1, 33, 120
3, 455032, Note_off_c, 1, 33, 100
3, 455040, Note_on_c, 1, 36, 120
3, 455416, Note_off_c, 1, 36, 100
3, 455424, Note_on_c, 1, 37, 120
3, 455800, Note_off_c, 1, 37, 100
3, 455808, Note_on_c, 1, 39, 120
3, 456184, Note_off_c, 1, 39, 100
3, 456192, Note_on_c, 1, 40, 120
3, 456568, Note_off_c, 1, 40, 100
3, 456576, Note_on_c, 1, 44, 120
3, 456952, Note_off_c, 1, 44, 100
3, 456960, Note_on_c, 1, 45, 120
3, 457336, Note_off_c, 1, 45, 100
3, 457344, Note_on_c, 1, 68, 120
3, 457720, Note_off_c, 1, 68, 100
3, 457728, Note_on_c, 1, 69, 120
3, 458104, Note_off_c, 1, 69, 100
3, 458112, Note_on_c, 1, 73, 120
3, 458488, Note_off_c, 1, 73, 100
3, 458496, Note_on_c, 1, 74, 120
3, 458872, Note_off_c, 1, 74, 100
3, 458880, Note_on_c, 1, 76, 120
3, 459256, Note_off_c, 1, 76, 100
3, 459264, Note_on_c, 1, 77, 120
3, 459640, Note_off_c, 1, 77, 100
3, 459648, Note_on_c, 1, 80, 120
3, 460024, Note_off_c, 1, 80, 100
3, 460032, Note_on_c, 1, 81, 120
3, 460408, Note_off_c, 1, 81, 100
3, 460416, Note_on_c, 1, 44, 110
3, 460792, Note_off_c, 1, 44, 100
3, 460800, Note_on_c, 1, 45, 110
3, 461176, Note_off_c, 1, 45, 100
3, 461184, Note_on_c, 1, 48, 110
3, 461560, Note_off_c, 1, 48, 100
3, 461568, Note_on_c, 1, 49, 110
3, 461944, Note_off_c, 1, 49, 100
3, 461952, Note_on_c, 1, 51, 110
3, 462328, Note_off_c, 1, 51, 100
3, 462336, Note_on_c, 1, 52, 110
3, 462712, Note_off_c, 1, 52, 100
3, 462720, Note_on_c, 1, 56, 110
3, 463096, Note_off_c, 1, 56, 100
3, 463104, Note_on_c, 1, 57, 110
3, 463480, Note_off_c, 1, 57, 100
3, 463488, Note_on_c, 1, 68, 110
3, 463864, Note_off_c, 1, 68, 100
3, 463872, Note_on_c, 1, 69, 110
3, 464248, Note_off_c, 1, 69, 100
3, 464256, Note_on_c, 1, 73, 110
3, 464632, Note_off_c, 1, 73, 100
3, 464640, Note_on_c, 1, 74, 110
3, 465016, Note_off_c, 1, 74, 100
3, 465024, Note_on_c, 1, 76, 110
3, 465400, Note_off_c, 1, 76, 100
3, 465408, Note_on_c, 1, 77, 110
3, 465784, Note_off_c, 1, 77, 100
3, 465792, Note_on_c, 1, 80, 110
3, 466168, Note_off_c, 1, 80, 100
3, 466176, Note_on_c, 1, 81, 110
3, 466552, Note_off_c, 1, 81, 100
3, 467712, Note_on_c, 1, 45, 120
3, 468088, Note_off_c, 1, 45, 100
3, 469248, Note_on_c, 1, 86, 120
3, 469624, Note_off_c, 1, 86, 100
3, 470784, Note_on_c, 1, 47, 120
3, 471160, Note_off_c, 1, 47, 100
3, 472320, Note_on_c, 1, 88, 120
3, 472696, Note_off_c, 1, 88, 100
3, 473088, Note_on_c, 1, 49, 120
3, 473464, Note_off_c, 1, 49, 100
3, 474432, Note_on_c, 1, 76, 120
3, 474808, Note_off_c, 1, 76, 100
3, 476160, Note_on_c, 1, 37, 120
3, 476536, Note_off_c, 1, 37, 100
3, 477696, Note_on_c, 1, 79, 120
3, 478072, Note_off_c, 1, 79, 100
3, 478464, Note_on_c, 1, 45, 120
3, 478464, Note_on_c, 1, 37, 120
3, 478464, Note_on_c, 1, 49, 120
3, 482680, Note_off_c, 1, 37, 100
3, 482680, Note_off_c, 1, 45, 100
3, 482680, Note_off_c, 1, 49, 100
3, 482688, Note_on_c, 1, 38, 80
3, 483064, Note_off_c, 1, 38, 100
3, 483072, Key_signature, 2, "major"
3, 483072, Note_on_c, 1, 37, 80
3, 483448, Note_off_c, 1, 37, 100
3, 483456, Note_on_c, 1, 35, 80
3, 483832, Note_off_c, 1, 35, 100
3, 483840, Note_on_c, 1, 33, 80
3, 484216, Note_off_c, 1, 33, 100
3, 484224, Note_on_c, 1, 37, 80
3, 484600, Note_off_c, 1, 37, 100
3, 484608, Note_on_c, 1, 38, 80
3, 484984, Note_off_c, 1, 38, 100
3, 484992, Note_on_c, 1, 42, 80
3, 485368, Note_off_c, 1, 42, 100
3, 485376, Note_on_c, 1, 45, 80
3, 485376, Note_on_c, 1, 33, 80
3, 485752, Note_off_c, 1, 45, 100
3, 485752, Note_off_c, 1, 33, 100
3, 485760, Note_on_c, 1, 49, 80
3, 485760, Note_on_c, 1, 37, 80
3, 486136, Note_off_c, 1, 49, 100
3, 486136, Note_off_c, 1, 37, 100
3, 486144, Note_on_c, 1, 50, 80
3, 486144, Note_on_c, 1, 38, 80
3, 486520, Note_off_c, 1, 50, 100
3, 486520, Note_off_c, 1, 38, 100
3, 486528, Note_on_c, 1, 52, 80
3, 486528, Note_on_c, 1, 40, 80
3, 486904, Note_off_c, 1, 52, 100
3, 486904, Note_off_c, 1, 40, 100
3, 486912, Note_on_c, 1, 54, 80
3, 486912, Note_on_c, 1, 42, 80
3, 487288, Note_off_c, 1, 54, 100
3, 487288, Note_off_c, 1, 42, 100
3, 487296, Note_on_c, 1, 55, 80
3, 487296, Note_on_c, 1, 43, 80
3, 487672, Note_off_c, 1, 55, 100
3, 487672, Note_off_c, 1, 43, 100
3, 487680, Note_on_c, 1, 57, 110
3, 487680, Note_on_c, 1, 45, 110
3, 490360, Note_off_c, 1, 45, 100
3, 490360, Note_off_c, 1, 57, 100
3, 490368, Note_on_c, 1, 66, 80
3, 490368, Note_on_c, 1, 69, 80
3, 490744, Note_off_c, 1, 66, 100
3, 490744, Note_off_c, 1, 69, 100
3, 490752, Note_on_c, 1, 67, 80
3, 490752, Note_on_c, 1, 64, 80
3, 491128, Note_off_c, 1, 67, 100
3, 491128, Note_off_c, 1, 64, 100
3, 491136, Note_on_c, 1, 66, 80
3, 491136, Note_on_c, 1, 62, 80
3, 491512, Note_off_c, 1, 66, 100
3, 491512, Note_off_c, 1, 62, 100
3, 491520, Note_on_c, 1, 64, 80
3, 491520, Note_on_c, 1, 61, 80
3, 491896, Note_off_c, 1, 64, 100
3, 491896, Note_off_c, 1, 61, 100
3, 491904, Note_on_c, 1, 62, 80
3, 491904, Note_on_c, 1, 66, 80
3, 492280, Note_off_c, 1, 62, 100
3, 492280, Note_off_c, 1, 66, 100
3, 492288, Note_on_c, 1, 64, 80
3, 492288, Note_on_c, 1, 61, 80
3, 492664, Note_off_c, 1, 64, 100
3, 492664, Note_off_c, 1, 61, 100
3, 492672, Note_on_c, 1, 62, 80
3, 492672, Note_on_c, 1, 59, 80
3, 493048, Note_off_c, 1, 62, 100
3, 493048, Note_off_c, 1, 59, 100
3, 493056, Note_on_c, 1, 61, 80
3, 493056, Note_on_c, 1, 57, 80
3, 493432, Note_off_c, 1, 61, 100
3, 493432, Note_off_c, 1, 57, 100
3, 493440, Note_on_c, 1, 62, 80
3, 493440, Note_on_c, 1, 59, 80
3, 493816, Note_off_c, 1, 62, 100
3, 493816, Note_off_c, 1, 59, 100
3, 493824, Note_on_c, 1, 61, 80
3, 493824, Note_on_c, 1, 57, 80
3, 494200, Note_off_c, 1, 61, 100
3, 494200, Note_off_c, 1, 57, 100
3, 494208, Note_on_c, 1, 59, 80
3, 494208, Note_on_c, 1, 55, 80
3, 494584, Note_off_c, 1, 59, 100
3, 494584, Note_off_c, 1, 55, 100
3, 494592, Note_on_c, 1, 57, 80
3, 494592, Note_on_c, 1, 54, 80
3, 494968, Note_off_c, 1, 57, 100
3, 494968, Note_off_c, 1, 54, 100
3, 494976, Note_on_c, 1, 59, 80
3, 494976, Note_on_c, 1, 55, 80
3, 495352, Note_off_c, 1, 59, 100
3, 495352, Note_off_c, 1, 55, 100
3, 495360, Note_on_c, 1, 57, 80
3, 495360, Note_on_c, 1, 54, 80
3, 495736, Note_off_c, 1, 57, 100
3, 495736, Note_off_c, 1, 54, 100
3, 495744, Note_on_c, 1, 55, 80
3, 495744, Note_on_c, 1, 52, 80
3, 496120, Note_off_c, 1, 55, 100
3, 496120, Note_off_c, 1, 52, 100
3, 496128, Note_on_c, 1, 54, 80
3, 496128, Note_on_c, 1, 50, 80
3, 496504, Note_off_c, 1, 54, 100
3, 496504, Note_off_c, 1, 50, 100
3, 496896, Note_on_c, 1, 55, 80
3, 496896, Note_on_c, 1, 43, 80
3, 497272, Note_off_c, 1, 55, 100
3, 497272, Note_off_c, 1, 43, 100
3, 497664, Note_on_c, 1, 57, 80
3, 497664, Note_on_c, 1, 45, 80
3, 498040, Note_off_c, 1, 57, 100
3, 498040, Note_off_c, 1, 45, 100
3, 498432, Note_on_c, 1, 50, 80
3, 498432, Note_on_c, 1, 38, 80
3, 498808, Note_off_c, 1, 50, 100
3, 498808, Note_off_c, 1, 38, 100
3, 501120, Note_on_c, 1, 45, 94
3, 501120, Note_on_c, 1, 33, 94
3, 501496, Note_off_c, 1, 45, 100
3, 501496, Note_off_c, 1, 33, 100
3, 501504, Note_on_c, 1, 45, 97
3, 501504, Note_on_c, 1, 33, 97
3, 504184, Note_off_c, 1, 33, 100
3, 504184, Note_off_c, 1, 45, 100
3, 504192, Note_on_c, 1, 46, 110
3, 504192, Note_on_c, 1, 34, 110
3, 504568, Note_off_c, 1, 46, 100
3, 504568, Note_off_c, 1, 34, 100
3, 504576, Note_on_c, 1, 46, 120
3, 504576, Note_on_c, 1, 34, 120
3, 505720, Note_off_c, 1, 46, 100
3, 505720, Note_off_c, 1, 34, 100
3, 505728, Note_on_c, 1, 47, 110
3, 505728, Note_on_c, 1, 35, 110
3, 506104, Note_off_c, 1, 47, 100
3, 506104, Note_off_c, 1, 35, 100
3, 506112, Note_on_c, 1, 47, 120
3, 506112, Note_on_c, 1, 35, 120
3, 507256, Note_off_c, 1, 47, 100
3, 507256, Note_off_c, 1, 35, 100
3, 507264, Note_on_c, 1, 48, 110
3, 507264, Note_on_c, 1, 36, 110
3, 507640, Note_off_c, 1, 48, 100
3, 507640, Note_off_c, 1, 36, 100
3, 507648, Note_on_c, 1, 48, 120
3, 507648, Note_on_c, 1, 36, 120
3, 508792, Note_off_c, 1, 48, 100
3, 508792, Note_off_c, 1, 36, 100
3, 508800, Note_on_c, 1, 48, 110
3, 508800, Note_on_c, 1, 36, 110
3, 509176, Note_off_c, 1, 48, 100
3, 509176, Note_off_c, 1, 36, 100
3, 509184, Note_on_c, 1, 49, 120
3, 509184, Note_on_c, 1, 37, 120
3, 510328, Note_off_c, 1, 49, 100
3, 510328, Note_off_c, 1, 37, 100
3, 510336, Note_on_c, 1, 49, 110
3, 510336, Note_on_c, 1, 37, 110
3, 510712, Note_off_c, 1, 49, 100
3, 510712, Note_off_c, 1, 37, 100
3, 510720, Note_on_c, 1, 35, 110
3, 510720, Note_on_c, 1, 47, 110
3, 511096, Note_off_c, 1, 35, 100
3, 511096, Note_off_c, 1, 47, 100
3, 511872, Note_on_c, 1, 67, 110
3, 511872, Note_on_c, 1, 64, 110
3, 511872, Note_on_c, 1, 59, 110
3, 512248, Note_off_c, 1, 67, 100
3, 512248, Note_off_c, 1, 64, 100
3, 512248, Note_off_c, 1, 59, 100
3, 512256, Note_on_c, 1, 66, 110
3, 512256, Note_on_c, 1, 63, 110
3, 512256, Note_on_c, 1, 59, 110
3, 512632, Note_off_c, 1, 66, 100
3, 512632, Note_off_c, 1, 63, 100
3, 512632, Note_off_c, 1, 59, 100
3, 513408, Note_on_c, 1, 67, 110
3, 513408, Note_on_c, 1, 64, 110
3, 513408, Note_on_c, 1, 59, 110
3, 513784, Note_off_c, 1, 67, 100
3, 513784, Note_off_c, 1, 64, 100
3, 513784, Note_off_c, 1, 59, 100
3, 513792, Note_on_c, 1, 66, 110
3, 513792, Note_on_c, 1, 63, 110
3, 513792, Note_on_c, 1, 59, 110
3, 514168, Note_off_c, 1, 66, 100
3, 514168, Note_off_c, 1, 63, 100
3, 514168, Note_off_c, 1, 59, 100
3, 514944, Note_on_c, 1, 59, 110
3, 515064, Note_off_c, 1, 59, 100
3, 515072, Note_on_c, 1, 54, 110
3, 515192, Note_off_c, 1, 54, 100
3, 515200, Note_on_c, 1, 51, 110
3, 515320, Note_off_c, 1, 51, 100
3, 515328, Note_on_c, 1, 47, 110
3, 515704, Note_off_c, 1, 47, 100
3, 516864, Note_on_c, 1, 52, 80
3, 517048, Note_off_c, 1, 52, 100
3, 517056, Note_on_c, 1, 55, 80
3, 517240, Note_off_c, 1, 55, 100
3, 517248, Note_on_c, 1, 59, 80
3, 517432, Note_off_c, 1, 59, 100
3, 517440, Note_on_c, 1, 55, 80
3, 517624, Note_off_c, 1, 55, 100
3, 517632, Note_on_c, 1, 51, 80
3, 517816, Note_off_c, 1, 51, 100
3, 517824, Note_on_c, 1, 54, 80
3, 518008, Note_off_c, 1, 54, 100
3, 518016, Note_on_c, 1, 59, 80
3, 518200, Note_off_c, 1, 59, 100
3, 518208, Note_on_c, 1, 54, 80
3, 518392, Note_off_c, 1, 54, 100
3, 518400, Note_on_c, 1, 52, 80
3, 518584, Note_off_c, 1, 52, 100
3, 518592, Note_on_c, 1, 55, 80
3, 518776, Note_off_c, 1, 55, 100
3, 518784, Note_on_c, 1, 59, 80
3, 518968, Note_off_c, 1, 59, 100
3, 518976, Note_on_c, 1, 55, 80
3, 519160, Note_off_c, 1, 55, 100
3, 519168, Note_on_c, 1, 59, 80
3, 519352, Note_off_c, 1, 59, 100
3, 519360, Note_on_c, 1, 55, 80
3, 519544, Note_off_c, 1, 55, 100
3, 519552, Note_on_c, 1, 59, 80
3, 519736, Note_off_c, 1, 59, 100
3, 519744, Note_on_c, 1, 55, 80
3, 519928, Note_off_c, 1, 55, 100
3, 519936, Note_on_c, 1, 47, 80
3, 520120, Note_off_c, 1, 47, 100
3, 520128, Note_on_c, 1, 54, 80
3, 520312, Note_off_c, 1, 54, 100
3, 520320, Note_on_c, 1, 57, 80
3, 520504, Note_off_c, 1, 57, 100
3, 520512, Note_on_c, 1, 59, 80
3, 520696, Note_off_c, 1, 59, 100
3, 520704, Note_on_c, 1, 47, 80
3, 520888, Note_off_c, 1, 47, 100
3, 520896, Note_on_c, 1, 52, 80
3, 521080, Note_off_c, 1, 52, 100
3, 521088, Note_on_c, 1, 55, 80
3, 521272, Note_off_c, 1, 55, 100
3, 521280, Note_on_c, 1, 59, 80
3, 521464, Note_off_c, 1, 59, 100
3, 521472, Note_on_c, 1, 47, 80
3, 521656, Note_off_c, 1, 47, 100
3, 521664, Note_on_c, 1, 51, 80
3, 521848, Note_off_c, 1, 51, 100
3, 521856, Note_on_c, 1, 54, 80
3, 522040, Note_off_c, 1, 54, 100
3, 522048, Note_on_c, 1, 58, 80
3, 522232, Note_off_c, 1, 58, 100
3, 522240, Note_on_c, 1, 59, 80
3, 522424, Note_off_c, 1, 59, 100
3, 522432, Note_on_c, 1, 57, 80
3, 522616, Note_off_c, 1, 57, 100
3, 522624, Note_on_c, 1, 55, 80
3, 522808, Note_off_c, 1, 55, 100
3, 522816, Note_on_c, 1, 54, 80
3, 523000, Note_off_c, 1, 54, 100
3, 523008, Note_on_c, 1, 52, 80
3, 523192, Note_off_c, 1, 52, 100
3, 523200, Note_on_c, 1, 55, 80
3, 523384, Note_off_c, 1, 55, 100
3, 523392, Note_on_c, 1, 59, 80
3, 523576, Note_off_c, 1, 59, 100
3, 523584, Note_on_c, 1, 55, 80
3, 523768, Note_off_c, 1, 55, 100
3, 523776, Note_on_c, 1, 51, 80
3, 523960, Note_off_c, 1, 51, 100
3, 523968, Note_on_c, 1, 54, 80
3, 524152, Note_off_c, 1, 54, 100
3, 524160, Note_on_c, 1, 59, 80
3, 524344, Note_off_c, 1, 59, 100
3, 524352, Note_on_c, 1, 54, 80
3, 524536, Note_off_c, 1, 54, 100
3, 524544, Note_on_c, 1, 52, 80
3, 524728, Note_off_c, 1, 52, 100
3, 524736, Note_on_c, 1, 55, 80
3, 524920, Note_off_c, 1, 55, 100
3, 524928, Note_on_c, 1, 59, 80
3, 525112, Note_off_c, 1, 59, 100
3, 525120, Note_on_c, 1, 55, 80
3, 525304, Note_off_c, 1, 55, 100
3, 525312, Note_on_c, 1, 55, 80
3, 525496, Note_off_c, 1, 55, 100
3, 525504, Note_on_c, 1, 59, 80
3, 525688, Note_off_c, 1, 59, 100
3, 525696, Note_on_c, 1, 64, 80
3, 525880, Note_off_c, 1, 64, 100
3, 525888, Note_on_c, 1, 59, 80
3, 526072, Note_off_c, 1, 59, 100
3, 526080, Note_on_c, 1, 54, 80
3, 526264, Note_off_c, 1, 54, 100
3, 526272, Note_on_c, 1, 59, 80
3, 526456, Note_off_c, 1, 59, 100
3, 526464, Note_on_c, 1, 62, 80
3, 526648, Note_off_c, 1, 62, 100
3, 526656, Note_on_c, 1, 59, 80
3, 526840, Note_off_c, 1, 59, 100
3, 526848, Note_on_c, 1, 54, 80
3, 527032, Note_off_c, 1, 54, 100
3, 527040, Note_on_c, 1, 58, 80
3, 527224, Note_off_c, 1, 58, 100
3, 527232, Note_on_c, 1, 61, 80
3, 527416, Note_off_c, 1, 61, 100
3, 527424, Note_on_c, 1, 58, 80
3, 527608, Note_off_c, 1, 58, 100
3, 527616, Note_on_c, 1, 47, 80
3, 527800, Note_off_c, 1, 47, 100
3, 527808, Note_on_c, 1, 50, 80
3, 527992, Note_off_c, 1, 50, 100
3, 528000, Note_on_c, 1, 54, 80
3, 528184, Note_off_c, 1, 54, 100
3, 528192, Note_on_c, 1, 59, 80
3, 528376, Note_off_c, 1, 59, 100
3, 528384, Note_on_c, 1, 47, 80
3, 528760, Note_off_c, 1, 47, 100
3, 529152, Note_on_c, 1, 54, 80
3, 529536, Note_on_c, 1, 61, 91
3, 529536, Note_on_c, 1, 64, 93
3, 530296, Note_off_c, 1, 61, 100
3, 530296, Note_off_c, 1, 64, 100
3, 530304, Note_on_c, 1, 59, 80
3, 530304, Note_on_c, 1, 62, 80
3, 530680, Note_off_c, 1, 59, 100
3, 530680, Note_off_c, 1, 62, 100
3, 530688, Note_on_c, 1, 57, 80
3, 530688, Note_on_c, 1, 61, 80
3, 531064, Note_off_c, 1, 54, 100
3, 531064, Note_off_c, 1, 57, 100
3, 531064, Note_off_c, 1, 61, 100
3, 532224, Note_on_c, 1, 59, 80
3, 532224, Note_on_c, 1, 62, 80
3, 532600, Note_off_c, 1, 59, 100
3, 532600, Note_off_c, 1, 62, 100
3, 532608, Note_on_c, 1, 59, 80
3, 532608, Note_on_c, 1, 62, 80
3, 532984, Note_off_c, 1, 59, 100
3, 532984, Note_off_c, 1, 62, 100
3, 532992, Note_on_c, 1, 61, 80
3, 532992, Note_on_c, 1, 64, 80
3, 533368, Note_off_c, 1, 61, 100
3, 533368, Note_off_c, 1, 64, 100
3, 533376, Note_on_c, 1, 61, 80
3, 533376, Note_on_c, 1, 64, 80
3, 533752, Note_off_c, 1, 61, 100
3, 533752, Note_off_c, 1, 64, 100
3, 533760, Note_on_c, 1, 62, 80
3, 533760, Note_on_c, 1, 66, 80
3, 534136, Note_off_c, 1, 62, 100
3, 534136, Note_off_c, 1, 66, 100
3, 535296, Note_on_c, 1, 57, 80
3, 535680, Note_on_c, 1, 64, 92
3, 535680, Note_on_c, 1, 67, 94
3, 536440, Note_off_c, 1, 64, 100
3, 536440, Note_off_c, 1, 67, 100
3, 536448, Note_on_c, 1, 62, 80
3, 536448, Note_on_c, 1, 66, 80
3, 536824, Note_off_c, 1, 62, 100
3, 536824, Note_off_c, 1, 66, 100
3, 536832, Note_on_c, 1, 61, 80
3, 536832, Note_on_c, 1, 64, 80
3, 537208, Note_off_c, 1, 57, 100
3, 537208, Note_off_c, 1, 61, 100
3, 537208, Note_off_c, 1, 64, 100
3, 538368, Note_on_c, 1, 62, 80
3, 538368, Note_on_c, 1, 66, 80
3, 538744, Note_off_c, 1, 62, 100
3, 538744, Note_off_c, 1, 66, 100
3, 538752, Note_on_c, 1, 62, 80
3, 538752, Note_on_c, 1, 66, 80
3, 539128, Note_off_c, 1, 62, 100
3, 539128, Note_off_c, 1, 66, 100
3, 539136, Note_on_c, 1, 64, 80
3, 539136, Note_on_c, 1, 67, 80
3, 539512, Note_off_c, 1, 64, 100
3, 539512, Note_off_c, 1, 67, 100
3, 539520, Note_on_c, 1, 64, 80
3, 539520, Note_on_c, 1, 67, 80
3, 539896, Note_off_c, 1, 64, 100
3, 539896, Note_off_c, 1, 67, 100
3, 539904, Note_on_c, 1, 66, 80
3, 539904, Note_on_c, 1, 69, 80
3, 540280, Note_off_c, 1, 66, 100
3, 540280, Note_off_c, 1, 69, 100
3, 541632, Note_on_c, 1, 67, 80
3, 541816, Note_off_c, 1, 67, 100
3, 541824, Note_on_c, 1, 66, 80
3, 542008, Note_off_c, 1, 66, 100
3, 542016, Note_on_c, 1, 67, 80
3, 542200, Note_off_c, 1, 67, 100
3, 542208, Note_on_c, 1, 69, 80
3, 542392, Note_off_c, 1, 69, 100
3, 542400, Note_on_c, 1, 71, 80
3, 542584, Note_off_c, 1, 71, 100
3, 542592, Note_on_c, 1, 73, 80
3, 542776, Note_off_c, 1, 73, 100
3, 542784, Note_on_c, 1, 74, 80
3, 542968, Note_off_c, 1, 74, 100
3, 542976, Note_on_c, 1, 76, 80
3, 544120, Note_off_c, 1, 76, 100
3, 544128, Note_on_c, 1, 74, 104
3, 544504, Note_off_c, 1, 74, 100
3, 544512, Note_on_c, 1, 73, 102
3, 544696, Note_off_c, 1, 73, 100
3, 544704, Note_on_c, 1, 57, 103
3, 544888, Note_off_c, 1, 57, 100
3, 544896, Note_on_c, 1, 56, 104
3, 545080, Note_off_c, 1, 56, 100
3, 545088, Note_on_c, 1, 57, 105
3, 545272, Note_off_c, 1, 57, 100
3, 545280, Note_on_c, 1, 59, 106
3, 545464, Note_off_c, 1, 59, 100
3, 545472, Note_on_c, 1, 61, 107
3, 545656, Note_off_c, 1, 61, 100
3, 545664, Note_on_c, 1, 62, 108
3, 545848, Note_off_c, 1, 62, 100
3, 545856, Note_on_c, 1, 64, 110
3, 546040, Note_off_c, 1, 64, 100
3, 546048, Note_on_c, 1, 66, 111
3, 546232, Note_off_c, 1, 66, 100
3, 546240, Note_on_c, 1, 50, 112
3, 546424, Note_off_c, 1, 50, 100
3, 546432, Note_on_c, 1, 49, 113
3, 546616, Note_off_c, 1, 49, 100
3, 546624, Note_on_c, 1, 50, 114
3, 546808, Note_off_c, 1, 50, 100
3, 546816, Note_on_c, 1, 52, 115
3, 547000, Note_off_c, 1, 52, 100
3, 547008, Note_on_c, 1, 54, 116
3, 547192, Note_off_c, 1, 54, 100
3, 547200, Note_on_c, 1, 55, 117
3, 547384, Note_off_c, 1, 55, 100
3, 547392, Note_on_c, 1, 57, 118
3, 547576, Note_off_c, 1, 57, 100
3, 547584, Note_on_c, 1, 59, 120
3, 547584, Note_on_c, 1, 47, 120
3, 549112, Note_off_c, 1, 59, 100
3, 549112, Note_off_c, 1, 47, 100
3, 549120, Note_on_c, 1, 47, 102
3, 549120, Note_on_c, 1, 35, 102
3, 550648, Note_off_c, 1, 47, 100
3, 550648, Note_off_c, 1, 35, 100
3, 550656, Note_on_c, 1, 33, 80
3, 551424, Note_on_c, 1, 45, 80
3, 552952, Note_off_c, 1, 33, 100
3, 552952, Note_off_c, 1, 45, 100
3, 552960, Note_on_c, 1, 43, 80
3, 552960, Note_on_c, 1, 31, 80
3, 553720, Note_off_c, 1, 43, 100
3, 553720, Note_off_c, 1, 31, 100
3, 553728, Note_on_c, 1, 42, 80
3, 553728, Note_on_c, 1, 30, 80
3, 555256, Note_off_c, 1, 42, 100
3, 555256, Note_off_c, 1, 30, 100
3, 555264, Note_on_c, 1, 43, 94
3, 555264, Note_on_c, 1, 31, 94
3, 556024, Note_off_c, 1, 43, 100
3, 556024, Note_off_c, 1, 31, 100
3, 556032, Note_on_c, 1, 44, 108
3, 556032, Note_on_c, 1, 32, 108
3, 556792, Note_off_c, 1, 44, 100
3, 556792, Note_off_c, 1, 32, 100
3, 556800, Note_on_c, 1, 33, 120
3, 556984, Note_off_c, 1, 33, 100
3, 556992, Note_on_c, 1, 45, 120
3, 557176, Note_off_c, 1, 45, 100
3, 557184, Note_on_c, 1, 50, 120
3, 557368, Note_off_c, 1, 50, 100
3, 557376, Note_on_c, 1, 45, 120
3, 557560, Note_off_c, 1, 45, 100
3, 557568, Note_on_c, 1, 50, 120
3, 557752, Note_off_c, 1, 50, 100
3, 557760, Note_on_c, 1, 45, 120
3, 557944, Note_off_c, 1, 45, 100
3, 557952, Note_on_c, 1, 50, 120
3, 558136, Note_off_c, 1, 50, 100
3, 558144, Note_on_c, 1, 45, 120
3, 558328, Note_off_c, 1, 45, 100
3, 558336, Note_on_c, 1, 50, 120
3, 558520, Note_off_c, 1, 50, 100
3, 558528, Note_on_c, 1, 45, 120
3, 558712, Note_off_c, 1, 45, 100
3, 558720, Note_on_c, 1, 50, 120
3, 558904, Note_off_c, 1, 50, 100
3, 558912, Note_on_c, 1, 45, 120
3, 559096, Note_off_c, 1, 45, 100
3, 559104, Note_on_c, 1, 49, 120
3, 559288, Note_off_c, 1, 49, 100
3, 559296, Note_on_c, 1, 45, 120
3, 559480, Note_off_c, 1, 45, 100
3, 559488, Note_on_c, 1, 49, 120
3, 559672, Note_off_c, 1, 49, 100
3, 559680, Note_on_c, 1, 45, 120
3, 559864, Note_off_c, 1, 45, 100
3, 559872, Note_on_c, 1, 50, 120
3, 560248, Note_off_c, 1, 50, 100
3, 560256, Note_on_c, 1, 38, 120
3, 560632, Note_off_c, 1, 38, 100
3, 561024, Note_on_c, 1, 54, 80
3, 561024, Note_on_c, 1, 50, 80
3, 561400, Note_off_c, 1, 54, 100
3, 561400, Note_off_c, 1, 50, 100
3, 561408, Note_on_c, 1, 55, 80
3, 561408, Note_on_c, 1, 52, 80
3, 561784, Note_off_c, 1, 55, 100
3, 561784, Note_off_c, 1, 52, 100
3, 561792, Note_on_c, 1, 45, 80
3, 562168, Note_off_c, 1, 45, 100
3, 562560, Note_on_c, 1, 54, 80
3, 562560, Note_on_c, 1, 50, 80
3, 562936, Note_off_c, 1, 54, 100
3, 562936, Note_off_c, 1, 50, 100
3, 562944, Note_on_c, 1, 52, 80
3, 562944, Note_on_c, 1, 49, 80
3, 563320, Note_off_c, 1, 52, 100
3, 563320, Note_off_c, 1, 49, 100
3, 563328, Note_on_c, 1, 45, 80
3, 563704, Note_off_c, 1, 45, 100
3, 564096, Note_on_c, 1, 54, 80
3, 564096, Note_on_c, 1, 50, 80
3, 564472, Note_off_c, 1, 54, 100
3, 564472, Note_off_c, 1, 50, 100
3, 564480, Note_on_c, 1, 52, 80
3, 564480, Note_on_c, 1, 55, 80
3, 564856, Note_off_c, 1, 52, 100
3, 564856, Note_off_c, 1, 55, 100
3, 564864, Note_on_c, 1, 45, 80
3, 565240, Note_off_c, 1, 45, 100
3, 565632, Note_on_c, 1, 54, 80
3, 566008, Note_off_c, 1, 54, 100
3, 566400, Note_on_c, 1, 50, 80
3, 566776, Note_off_c, 1, 50, 100
3, 567168, Note_on_c, 1, 47, 80
3, 567544, Note_off_c, 1, 47, 100
3, 567936, Note_on_c, 1, 43, 80
3, 568312, Note_off_c, 1, 43, 100
3, 568704, Note_on_c, 1, 44, 80
3, 569080, Note_off_c, 1, 44, 100
3, 569472, Note_on_c, 1, 45, 80
3, 569848, Note_off_c, 1, 45, 100
3, 570240, Note_on_c, 1, 33, 80
3, 570616, Note_off_c, 1, 33, 100
3, 571008, Note_on_c, 1, 38, 80
3, 571384, Note_off_c, 1, 38, 100
3, 571776, Note_on_c, 1, 65, 80
3, 571776, Note_on_c, 1, 62, 80
3, 572152, Note_off_c, 1, 65, 100
3, 572152, Note_off_c, 1, 62, 100
3, 572160, Note_on_c, 1, 64, 80
3, 572160, Note_on_c, 1, 67, 80
3, 572536, Note_off_c, 1, 64, 100
3, 572536, Note_off_c, 1, 67, 100
3, 572544, Note_on_c, 1, 57, 80
3, 572920, Note_off_c, 1, 57, 100
3, 573312, Note_on_c, 1, 62, 80
3, 573312, Note_on_c, 1, 65, 80
3, 573688, Note_off_c, 1, 62, 100
3, 573688, Note_off_c, 1, 65, 100
3, 573696, Note_on_c, 1, 64, 80
3, 573696, Note_on_c, 1, 61, 80
3, 574072, Note_off_c, 1, 64, 100
3, 574072, Note_off_c, 1, 61, 100
3, 574080, Note_on_c, 1, 57, 80
3, 574456, Note_off_c, 1, 57, 100
3, 574848, Note_on_c, 1, 62, 80
3, 574848, Note_on_c, 1, 65, 80
3, 575224, Note_off_c, 1, 62, 100
3, 575224, Note_off_c, 1, 65, 100
3, 575232, Note_on_c, 1, 64, 80
3, 575232, Note_on_c, 1, 67, 80
3, 575608, Note_off_c, 1, 64, 100
3, 575608, Note_off_c, 1, 67, 100
3, 575616, Note_on_c, 1, 57, 80
3, 575992, Note_off_c, 1, 57, 100
3, 576384, Note_on_c, 1, 65, 80
3, 576760, Note_off_c, 1, 65, 100
3, 577152, Note_on_c, 1, 62, 80
3, 577528, Note_off_c, 1, 62, 100
3, 577920, Note_on_c, 1, 58, 80
3, 578296, Note_off_c, 1, 58, 100
3, 578688, Note_on_c, 1, 55, 80
3, 579064, Note_off_c, 1, 55, 100
3, 579456, Note_on_c, 1, 52, 80
3, 579832, Note_off_c, 1, 52, 100
3, 580224, Note_on_c, 1, 49, 80
3, 580600, Note_off_c, 1, 49, 100
3, 582528, Note_on_c, 1, 74, 80
3, 582904, Note_off_c, 1, 74, 100
3, 582912, Note_on_c, 1, 73, 80
3, 583288, Note_off_c, 1, 73, 100
3, 583296, Note_on_c, 1, 71, 80
3, 583672, Note_off_c, 1, 71, 100
3, 583680, Note_on_c, 1, 69, 80
3, 584056, Note_off_c, 1, 69, 100
3, 584064, Note_on_c, 1, 74, 80
3, 584440, Note_off_c, 1, 74, 100
3, 584448, Note_on_c, 1, 73, 80
3, 584824, Note_off_c, 1, 73, 100
3, 584832, Note_on_c, 1, 71, 80
3, 585208, Note_off_c, 1, 71, 100
3, 585216, Note_on_c, 1, 69, 80
3, 585592, Note_off_c, 1, 69, 100
3, 585600, Note_on_c, 1, 74, 80
3, 585976, Note_off_c, 1, 74, 100
3, 585984, Note_on_c, 1, 67, 80
3, 586360, Note_off_c, 1, 67, 100
3, 586368, Note_on_c, 1, 68, 80
3, 586744, Note_off_c, 1, 68, 100
3, 586752, Note_on_c, 1, 69, 80
3, 587128, Note_off_c, 1, 69, 100
3, 587136, Note_on_c, 1, 57, 80
3, 587512, Note_off_c, 1, 57, 100
3, 587520, Note_on_c, 1, 62, 80
3, 587896, Note_off_c, 1, 62, 100
3, 587904, Note_on_c, 1, 57, 80
3, 588280, Note_off_c, 1, 57, 100
3, 588288, Note_on_c, 1, 54, 80
3, 588664, Note_off_c, 1, 54, 100
3, 588672, Note_on_c, 1, 50, 70
3, 589048, Note_off_c, 1, 50, 100
3, 589056, Note_on_c, 1, 49, 70
3, 589432, Note_off_c, 1, 49, 100
3, 589440, Note_on_c, 1, 47, 70
3, 589816, Note_off_c, 1, 47, 100
3, 589824, Note_on_c, 1, 45, 70
3, 590200, Note_off_c, 1, 45, 100
3, 590208, Note_on_c, 1, 50, 70
3, 590584, Note_off_c, 1, 50, 100
3, 590592, Note_on_c, 1, 49, 70
3, 590968, Note_off_c, 1, 49, 100
3, 590976, Note_on_c, 1, 47, 70
3, 591352, Note_off_c, 1, 47, 100
3, 591360, Note_on_c, 1, 45, 70
3, 591736, Note_off_c, 1, 45, 100
3, 591744, Note_on_c, 1, 48, 70
3, 592120, Note_off_c, 1, 48, 100
3, 592128, Note_on_c, 1, 47, 70
3, 592504, Note_off_c, 1, 47, 100
3, 592512, Note_on_c, 1, 45, 70
3, 592888, Note_off_c, 1, 45, 100
3, 592896, Note_on_c, 1, 43, 70
3, 593272, Note_off_c, 1, 43, 100
3, 593280, Note_on_c, 1, 48, 70
3, 593656, Note_off_c, 1, 48, 100
3, 593664, Note_on_c, 1, 47, 73
3, 594040, Note_off_c, 1, 47, 100
3, 594048, Note_on_c, 1, 45, 76
3, 594424, Note_off_c, 1, 45, 100
3, 594432, Note_on_c, 1, 43, 79
3, 594808, Note_off_c, 1, 43, 100
3, 594816, Note_on_c, 1, 46, 83
3, 595192, Note_off_c, 1, 46, 100
3, 595200, Note_on_c, 1, 45, 86
3, 595576, Note_off_c, 1, 45, 100
3, 595584, Note_on_c, 1, 43, 89
3, 595960, Note_off_c, 1, 43, 100
3, 595968, Note_on_c, 1, 41, 93
3, 596344, Note_off_c, 1, 41, 100
3, 596352, Note_on_c, 1, 58, 96
3, 596352, Note_on_c, 1, 60, 96
3, 596728, Note_off_c, 1, 58, 100
3, 596736, Note_on_c, 1, 57, 99
3, 597112, Note_off_c, 1, 57, 100
3, 597120, Note_on_c, 1, 55, 100
3, 597496, Note_off_c, 1, 55, 100
3, 597504, Note_on_c, 1, 53, 100
3, 597880, Note_off_c, 1, 60, 100
3, 597880, Note_off_c, 1, 53, 100
3, 597888, Note_on_c, 1, 64, 100
3, 598264, Note_off_c, 1, 64, 100
3, 598272, Note_on_c, 1, 65, 100
3, 598648, Note_off_c, 1, 65, 100
3, 598656, Note_on_c, 1, 67, 100
3, 599032, Note_off_c, 1, 67, 100
3, 599040, Note_on_c, 1, 69, 100
3, 599416, Note_off_c, 1, 69, 100
3, 599424, Note_on_c, 1, 70, 100
3, 599424, Note_on_c, 1, 72, 100
3, 599800, Note_off_c, 1, 70, 100
3, 599808, Note_on_c, 1, 69, 100
3, 600184, Note_off_c, 1, 69, 100
3, 600192, Note_on_c, 1, 67, 100
3, 600568, Note_off_c, 1, 67, 100
3, 600576, Note_on_c, 1, 65, 100
3, 600952, Note_off_c, 1, 72, 100
3, 600952, Note_off_c, 1, 65, 100
3, 600960, Note_on_c, 1, 48, 100
3, 600960, Note_on_c, 1, 50, 100
3, 601336, Note_off_c, 1, 48, 100
3, 601344, Note_on_c, 1, 46, 100
3, 601720, Note_off_c, 1, 46, 100
3, 601728, Note_on_c, 1, 45, 100
3, 602104, Note_off_c, 1, 45, 100
3, 602112, Note_on_c, 1, 43, 100
3, 602488, Note_off_c, 1, 50, 100
3, 602488, Note_off_c, 1, 43, 100
3, 602496, Note_on_c, 1, 60, 100
3, 602496, Note_on_c, 1, 62, 100
3, 602872, Note_off_c, 1, 60, 100
3, 602880, Note_on_c, 1, 58, 100
3, 603256, Note_off_c, 1, 58, 100
3, 603264, Note_on_c, 1, 57, 100
3, 603640, Note_off_c, 1, 57, 100
3, 603648, Note_on_c, 1, 55, 100
3, 604024, Note_off_c, 1, 62, 100
3, 604024, Note_off_c, 1, 55, 100
3, 604032, Note_on_c, 1, 66, 100
3, 604408, Note_off_c, 1, 66, 100
3, 604416, Note_on_c, 1, 67, 100
3, 604792, Note_off_c, 1, 67, 100
3, 604800, Note_on_c, 1, 69, 100
3, 605176, Note_off_c, 1, 69, 100
3, 605184, Note_on_c, 1, 70, 100
3, 605560, Note_off_c, 1, 70, 100
3, 605568, Note_on_c, 1, 72, 100
3, 605568, Note_on_c, 1, 74, 100
3, 605944, Note_off_c, 1, 72, 100
3, 605952, Note_on_c, 1, 70, 100
3, 606328, Note_off_c, 1, 70, 100
3, 606336, Note_on_c, 1, 69, 100
3, 606712, Note_off_c, 1, 69, 100
3, 606720, Note_on_c, 1, 67, 100
3, 607096, Note_off_c, 1, 74, 100
3, 607096, Note_off_c, 1, 67, 100
3, 607104, Note_on_c, 1, 44, 100
3, 607104, Note_on_c, 1, 46, 100
3, 607480, Note_off_c, 1, 44, 100
3, 607488, Note_on_c, 1, 43, 100
3, 607864, Note_off_c, 1, 43, 100
3, 607872, Note_on_c, 1, 41, 100
3, 608248, Note_off_c, 1, 41, 100
3, 608256, Note_on_c, 1, 39, 100
3, 608632, Note_off_c, 1, 46, 100
3, 608632, Note_off_c, 1, 39, 100
3, 608640, Note_on_c, 1, 58, 100
3, 608640, Note_on_c, 1, 56, 100
3, 609016, Note_off_c, 1, 56, 100
3, 609024, Note_on_c, 1, 55, 100
3, 609400, Note_off_c, 1, 55, 100
3, 609408, Note_on_c, 1, 53, 100
3, 609784, Note_off_c, 1, 53, 100
3, 609792, Note_on_c, 1, 51, 100
3, 610168, Note_off_c, 1, 58, 100
3, 610168, Note_off_c, 1, 51, 100
3, 610176, Note_on_c, 1, 68, 100
3, 610552, Note_off_c, 1, 68, 100
3, 610560, Note_on_c, 1, 67, 100
3, 610936, Note_off_c, 1, 67, 100
3, 610944, Note_on_c, 1, 65, 100
3, 611320, Note_off_c, 1, 65, 100
3, 611328, Note_on_c, 1, 63, 100
3, 611704, Note_off_c, 1, 63, 100
3, 611712, Note_on_c, 1, 62, 100
3, 612088, Note_off_c, 1, 62, 100
3, 612096, Note_on_c, 1, 61, 100
3, 612472, Note_off_c, 1, 61, 100
3, 612480, Note_on_c, 1, 59, 102
3, 612856, Note_off_c, 1, 59, 100
3, 612864, Note_on_c, 1, 57, 105
3, 613240, Note_off_c, 1, 57, 100
3, 613248, Note_on_c, 1, 55, 107
3, 613624, Note_off_c, 1, 55, 100
3, 613632, Note_on_c, 1, 66, 110
3, 613632, Note_on_c, 1, 54, 110
3, 614008, Note_off_c, 1, 66, 100
3, 614008, Note_off_c, 1, 54, 100
3, 614016, Note_on_c, 1, 64, 110
3, 614016, Note_on_c, 1, 52, 110
3, 614392, Note_off_c, 1, 64, 100
3, 614392, Note_off_c, 1, 52, 100
3, 614400, Note_on_c, 1, 62, 110
3, 614400, Note_on_c, 1, 50, 110
3, 614776, Note_off_c, 1, 62, 100
3, 614776, Note_off_c, 1, 50, 100
3, 614784, Note_on_c, 1, 61, 110
3, 614784, Note_on_c, 1, 49, 110
3, 615160, Note_off_c, 1, 61, 100
3, 615160, Note_off_c, 1, 49, 100
3, 615168, Note_on_c, 1, 59, 110
3, 615168, Note_on_c, 1, 47, 110
3, 615544, Note_off_c, 1, 59, 100
3, 615544, Note_off_c, 1, 47, 100
3, 615552, Note_on_c, 1, 57, 110
3, 615552, Note_on_c, 1, 45, 110
3, 615928, Note_off_c, 1, 57, 100
3, 615928, Note_off_c, 1, 45, 100
3, 615936, Note_on_c, 1, 55, 110
3, 615936, Note_on_c, 1, 43, 110
3, 616312, Note_off_c, 1, 55, 100
3, 616312, Note_off_c, 1, 43, 100
3, 616320, Note_on_c, 1, 54, 110
3, 616320, Note_on_c, 1, 42, 110
3, 616696, Note_off_c, 1, 54, 100
3, 616696, Note_off_c, 1, 42, 100
3, 616704, Note_on_c, 1, 52, 110
3, 616704, Note_on_c, 1, 40, 110
3, 617080, Note_off_c, 1, 52, 100
3, 617080, Note_off_c, 1, 40, 100
3, 617088, Note_on_c, 1, 50, 110
3, 617088, Note_on_c, 1, 38, 110
3, 617464, Note_off_c, 1, 50, 100
3, 617464, Note_off_c, 1, 38, 100
3, 617472, Note_on_c, 1, 49, 110
3, 617472, Note_on_c, 1, 37, 110
3, 617848, Note_off_c, 1, 49, 100
3, 617848, Note_off_c, 1, 37, 100
3, 617856, Note_on_c, 1, 47, 110
3, 617856, Note_on_c, 1, 35, 110
3, 618232, Note_off_c, 1, 47, 100
3, 618232, Note_off_c, 1, 35, 100
3, 618240, Note_on_c, 1, 45, 110
3, 618240, Note_on_c, 1, 33, 110
3, 618616, Note_off_c, 1, 45, 100
3, 618616, Note_off_c, 1, 33, 100
3, 618624, Note_on_c, 1, 43, 110
3, 618624, Note_on_c, 1, 31, 110
3, 619000, Note_off_c, 1, 43, 100
3, 619000, Note_off_c, 1, 31, 100
3, 619008, Note_on_c, 1, 42, 110
3, 619008, Note_on_c, 1, 30, 110
3, 619384, Note_off_c, 1, 42, 100
3, 619384, Note_off_c, 1, 30, 100
3, 619392, Note_on_c, 1, 40, 110
3, 619392, Note_on_c, 1, 28, 110
3, 619768, Note_off_c, 1, 40, 100
3, 619768, Note_off_c, 1, 28, 100
3, 619776, Note_on_c, 1, 38, 120
3, 619776, Note_on_c, 1, 26, 120
3, 620152, Note_off_c, 1, 38, 100
3, 620152, Note_off_c, 1, 26, 100
3, 620160, Note_on_c, 1, 40, 120
3, 620160, Note_on_c, 1, 28, 120
3, 620536, Note_off_c, 1, 40, 100
3, 620536, Note_off_c, 1, 28, 100
3, 620544, Note_on_c, 1, 42, 120
3, 620544, Note_on_c, 1, 30, 120
3, 620920, Note_off_c, 1, 42, 100
3, 620920, Note_off_c, 1, 30, 100
3, 620928, Note_on_c, 1, 43, 120
3, 620928, Note_on_c, 1, 31, 120
3, 621304, Note_off_c, 1, 43, 100
3, 621304, Note_off_c, 1, 31, 100
3, 621312, Note_on_c, 1, 45, 120
3, 621312, Note_on_c, 1, 33, 120
3, 621688, Note_off_c, 1, 45, 100
3, 621688, Note_off_c, 1, 33, 100
3, 622080, Note_on_c, 1, 45, 120
3, 622080, Note_on_c, 1, 33, 120
3, 622456, Note_off_c, 1, 45, 100
3, 622456, Note_off_c, 1, 33, 100
3, 622848, Note_on_c, 1, 38, 120
3, 623032, Note_off_c, 1, 38, 100
3, 623040, Note_on_c, 1, 50, 80
3, 623224, Note_off_c, 1, 50, 100
3, 623232, Note_on_c, 1, 49, 80
3, 623416, Note_off_c, 1, 49, 100
3, 623424, Note_on_c, 1, 50, 80
3, 623608, Note_off_c, 1, 50, 100
3, 623616, Note_on_c, 1, 49, 80
3, 623800, Note_off_c, 1, 49, 100
3, 623808, Note_on_c, 1, 50, 80
3, 623992, Note_off_c, 1, 50, 100
3, 624000, Note_on_c, 1, 49, 80
3, 624184, Note_off_c, 1, 49, 100
3, 624192, Note_on_c, 1, 50, 80
3, 624376, Note_off_c, 1, 50, 100
3, 624384, Note_on_c, 1, 40, 80
3, 624568, Note_off_c, 1, 40, 100
3, 624576, Note_on_c, 1, 50, 80
3, 624760, Note_off_c, 1, 50, 100
3, 624768, Note_on_c, 1, 49, 80
3, 624952, Note_off_c, 1, 49, 100
3, 624960, Note_on_c, 1, 50, 80
3, 625144, Note_off_c, 1, 50, 100
3, 625152, Note_on_c, 1, 42, 80
3, 625336, Note_off_c, 1, 42, 100
3, 625344, Note_on_c, 1, 50, 80
3, 625528, Note_off_c, 1, 50, 100
3, 625536, Note_on_c, 1, 49, 80
3, 625720, Note_off_c, 1, 49, 100
3, 625728, Note_on_c, 1, 50, 80
3, 625912, Note_off_c, 1, 50, 100
3, 625920, Note_on_c, 1, 43, 80
3, 626104, Note_off_c, 1, 43, 100
3, 626112, Note_on_c, 1, 50, 80
3, 626296, Note_off_c, 1, 50, 100
3, 626304, Note_on_c, 1, 49, 80
3, 626488, Note_off_c, 1, 49, 100
3, 626496, Note_on_c, 1, 50, 80
3, 626680, Note_off_c, 1, 50, 100
3, 626688, Note_on_c, 1, 45, 80
3, 626872, Note_off_c, 1, 45, 100
3, 626880, Note_on_c, 1, 50, 80
3, 627064, Note_off_c, 1, 50, 100
3, 627072, Note_on_c, 1, 49, 80
3, 627256, Note_off_c, 1, 49, 100
3, 627264, Note_on_c, 1, 50, 80
3, 627448, Note_off_c, 1, 50, 100
3, 627456, Note_on_c, 1, 47, 80
3, 627640, Note_off_c, 1, 47, 100
3, 627648, Note_on_c, 1, 50, 80
3, 627832, Note_off_c, 1, 50, 100
3, 627840, Note_on_c, 1, 49, 80
3, 628024, Note_off_c, 1, 49, 100
3, 628032, Note_on_c, 1, 50, 80
3, 628216, Note_off_c, 1, 50, 100
3, 628224, Note_on_c, 1, 49, 80
3, 628408, Note_off_c, 1, 49, 100
3, 628416, Note_on_c, 1, 50, 80
3, 628600, Note_off_c, 1, 50, 100
3, 628608, Note_on_c, 1, 49, 80
3, 628792, Note_off_c, 1, 49, 100
3, 628800, Note_on_c, 1, 50, 80
3, 628984, Note_off_c, 1, 50, 100
3, 628992, Note_on_c, 1, 50, 110
3, 628992, Note_on_c, 1, 38, 110
3, 630136, Note_off_c, 1, 50, 100
3, 630144, Note_on_c, 1, 50, 80
3, 630520, Note_off_c, 1, 50, 100
3, 630528, Note_on_c, 1, 48, 80
3, 630904, Note_off_c, 1, 48, 100
3, 630912, Note_on_c, 1, 47, 80
3, 631288, Note_off_c, 1, 47, 100
3, 631296, Note_on_c, 1, 50, 80
3, 631672, Note_off_c, 1, 50, 100
3, 631680, Note_on_c, 1, 48, 80
3, 632056, Note_off_c, 1, 48, 100
3, 632064, Note_on_c, 1, 47, 80
3, 632440, Note_off_c, 1, 47, 100
3, 632448, Note_on_c, 1, 45, 80
3, 632824, Note_off_c, 1, 45, 100
3, 632832, Note_on_c, 1, 43, 80
3, 633208, Note_off_c, 1, 43, 100
3, 633216, Note_on_c, 1, 42, 80
3, 633592, Note_off_c, 1, 42, 100
3, 633600, Note_on_c, 1, 43, 80
3, 633976, Note_off_c, 1, 43, 100
3, 633984, Note_on_c, 1, 40, 80
3, 634360, Note_off_c, 1, 40, 100
3, 634368, Note_on_c, 1, 45, 80
3, 634744, Note_off_c, 1, 45, 100
3, 634752, Note_on_c, 1, 43, 80
3, 635128, Note_off_c, 1, 43, 100
3, 635136, Note_on_c, 1, 42, 80
3, 635512, Note_off_c, 1, 38, 100
3, 635512, Note_off_c, 1, 42, 100
3, 635520, Note_on_c, 1, 50, 83
3, 636288, Note_on_c, 1, 62, 91
3, 636664, Note_off_c, 1, 62, 100
3, 636672, Note_on_c, 1, 60, 95
3, 637048, Note_off_c, 1, 60, 100
3, 637056, Note_on_c, 1, 57, 99
3, 637432, Note_off_c, 1, 57, 100
3, 637440, Note_on_c, 1, 62, 103
3, 637816, Note_off_c, 1, 62, 100
3, 637824, Note_on_c, 1, 60, 107
3, 638200, Note_off_c, 1, 60, 100
3, 638208, Note_on_c, 1, 59, 120
3, 638584, Note_off_c, 1, 59, 100
3, 638592, Note_on_c, 1, 57, 120
3, 638968, Note_off_c, 1, 57, 100
3, 638976, Note_on_c, 1, 55, 120
3, 639352, Note_off_c, 1, 55, 100
3, 639360, Note_on_c, 1, 54, 120
3, 639736, Note_off_c, 1, 54, 100
3, 639744, Note_on_c, 1, 55, 120
3, 640120, Note_off_c, 1, 55, 100
3, 640128, Note_on_c, 1, 52, 120
3, 640504, Note_off_c, 1, 52, 100
3, 640512, Note_on_c, 1, 57, 120
3, 640888, Note_off_c, 1, 57, 100
3, 640896, Note_on_c, 1, 55, 120
3, 641272, Note_off_c, 1, 55, 100
3, 641280, Note_on_c, 1, 54, 120
3, 641656, Note_off_c, 1, 50, 100
3, 641656, Note_off_c, 1, 54, 100
3, 642048, Note_on_c, 1, 69, 70
3, 642808, Note_off_c, 1, 69, 100
3, 642816, Note_on_c, 1, 71, 70
3, 643576, Note_off_c, 1, 71, 100
3, 643584, Note_on_c, 1, 64, 70
3, 644344, Note_off_c, 1, 64, 100
3, 644352, Note_on_c, 1, 69, 70
3, 645112, Note_off_c, 1, 69, 100
3, 645120, Note_on_c, 1, 59, 70
3, 645120, Note_on_c, 1, 66, 70
3, 645880, Note_off_c, 1, 59, 100
3, 645880, Note_off_c, 1, 66, 100
3, 645888, Note_on_c, 1, 64, 70
3, 645888, Note_on_c, 1, 52, 70
3, 646648, Note_off_c, 1, 52, 100
3, 646656, Note_on_c, 1, 57, 70
3, 647416, Note_off_c, 1, 64, 100
3, 647416, Note_off_c, 1, 57, 100
3, 647424, Note_on_c, 1, 62, 70
3, 647424, Note_on_c, 1, 50, 70
3, 648184, Note_off_c, 1, 62, 100
3, 648184, Note_off_c, 1, 50, 100
3, 648192, Note_on_c, 1, 58, 70
3, 648952, Note_off_c, 1, 58, 100
3, 648960, Note_on_c, 1, 59, 70
3, 649720, Note_off_c, 1, 59, 100
3, 649728, Note_on_c, 1, 52, 70
3, 650488, Note_off_c, 1, 52, 100
3, 650496, Note_on_c, 1, 57, 70
3, 651256, Note_off_c, 1, 57, 100
3, 651264, Note_on_c, 1, 54, 70
3, 651264, Note_on_c, 1, 47, 70
3, 652024, Note_off_c, 1, 54, 100
3, 652024, Note_off_c, 1, 47, 100
3, 652032, Note_on_c, 1, 52, 70
3, 652032, Note_on_c, 1, 40, 70
3, 652792, Note_off_c, 1, 40, 100
3, 652800, Note_on_c, 1, 45, 70
3, 653560, Note_off_c, 1, 52, 100
3, 653560, Note_off_c, 1, 45, 100
3, 653568, Note_on_c, 1, 50, 70
3, 653568, Note_on_c, 1, 38, 70
3, 654328, Note_off_c, 1, 38, 100
3, 654336, Note_on_c, 1, 43, 75
3, 655096, Note_off_c, 1, 50, 100
3, 655096, Note_off_c, 1, 43, 100
3, 655104, Note_on_c, 1, 37, 81
3, 655864, Note_off_c, 1, 37, 100
3, 655872, Note_on_c, 1, 42, 87
3, 656632, Note_off_c, 1, 42, 100
3, 656640, Note_on_c, 1, 47, 92
3, 656640, Note_on_c, 1, 37, 92
3, 657400, Note_off_c, 1, 37, 100
3, 657408, Note_on_c, 1, 40, 98
3, 658168, Note_off_c, 1, 47, 100
3, 658168, Note_off_c, 1, 40, 100
3, 658176, Note_on_c, 1, 33, 104
3, 658176, Note_on_c, 1, 45, 104
3, 658936, Note_off_c, 1, 33, 100
3, 658944, Note_on_c, 1, 38, 109
3, 659704, Note_off_c, 1, 45, 100
3, 659704, Note_off_c, 1, 38, 100
3, 659712, Note_on_c, 1, 31, 110
3, 660864, Note_on_c, 1, 43, 70
3, 661240, Note_off_c, 1, 43, 100
3, 661248, Note_on_c, 1, 42, 70
3, 661624, Note_off_c, 1, 42, 100
3, 661632, Note_on_c, 1, 40, 70
3, 662008, Note_off_c, 1, 40, 100
3, 662016, Note_on_c, 1, 38, 70
3, 662392, Note_off_c, 1, 38, 100
3, 662776, Note_off_c, 1, 31, 100
3, 662784, Note_on_c, 1, 31, 70
3, 663936, Note_on_c, 1, 43, 70
3, 664312, Note_off_c, 1, 43, 100
3, 664320, Note_on_c, 1, 42, 70
3, 664696, Note_off_c, 1, 42, 100
3, 664704, Note_on_c, 1, 40, 70
3, 665080, Note_off_c, 1, 40, 100
3, 665088, Note_on_c, 1, 38, 70
3, 665464, Note_off_c, 1, 38, 100
3, 665848, Note_off_c, 1, 31, 100
3, 665856, Note_on_c, 1, 31, 70
3, 667008, Note_on_c, 1, 43, 70
3, 667384, Note_off_c, 1, 43, 100
3, 667392, Note_on_c, 1, 42, 70
3, 667768, Note_off_c, 1, 42, 100
3, 667776, Note_on_c, 1, 40, 70
3, 668152, Note_off_c, 1, 40, 100
3, 668160, Note_on_c, 1, 38, 70
3, 668536, Note_off_c, 1, 38, 100
3, 668920, Note_off_c, 1, 31, 100
3, 668928, Note_on_c, 1, 31, 70
3, 670080, Note_on_c, 1, 43, 70
3, 670456, Note_off_c, 1, 43, 100
3, 670464, Note_on_c, 1, 42, 70
3, 670840, Note_off_c, 1, 42, 100
3, 670848, Note_on_c, 1, 40, 70
3, 671224, Note_off_c, 1, 40, 100
3, 671232, Note_on_c, 1, 38, 70
3, 671608, Note_off_c, 1, 38, 100
3, 671992, Note_off_c, 1, 31, 100
3, 673152, Note_on_c, 1, 62, 70
3, 673528, Note_off_c, 1, 62, 100
3, 673536, Note_on_c, 1, 67, 70
3, 673912, Note_off_c, 1, 67, 100
3, 673920, Note_on_c, 1, 69, 70
3, 674296, Note_off_c, 1, 69, 100
3, 674304, Note_on_c, 1, 71, 70
3, 674680, Note_off_c, 1, 71, 100
3, 676224, Note_on_c, 1, 38, 70
3, 676600, Note_off_c, 1, 38, 100
3, 676608, Note_on_c, 1, 43, 70
3, 676984, Note_off_c, 1, 43, 100
3, 676992, Note_on_c, 1, 45, 70
3, 677368, Note_off_c, 1, 45, 100
3, 677376, Note_on_c, 1, 47, 70
3, 677752, Note_off_c, 1, 47, 100
3, 679296, Note_on_c, 1, 62, 70
3, 679672, Note_off_c, 1, 62, 100
3, 679680, Note_on_c, 1, 67, 70
3, 680056, Note_off_c, 1, 67, 100
3, 680064, Note_on_c, 1, 69, 70
3, 680440, Note_off_c, 1, 69, 100
3, 680448, Note_on_c, 1, 70, 70
3, 680824, Note_off_c, 1, 70, 100
3, 682368, Note_on_c, 1, 38, 70
3, 682744, Note_off_c, 1, 38, 100
3, 682752, Note_on_c, 1, 43, 70
3, 683128, Note_off_c, 1, 43, 100
3, 683136, Note_on_c, 1, 45, 70
3, 683512, Note_off_c, 1, 45, 100
3, 683520, Note_on_c, 1, 46, 70
3, 683896, Note_off_c, 1, 46, 100
3, 685440, Note_on_c, 1, 62, 70
3, 685816, Note_off_c, 1, 62, 100
3, 685824, Note_on_c, 1, 65, 70
3, 686200, Note_off_c, 1, 65, 100
3, 686208, Note_on_c, 1, 67, 70
3, 686584, Note_off_c, 1, 67, 100
3, 686592, Note_on_c, 1, 68, 70
3, 686968, Note_off_c, 1, 68, 100
3, 688512, Note_on_c, 1, 46, 70
3, 688896, Note_on_c, 1, 50, 70
3, 689272, Note_off_c, 1, 50, 100
3, 689280, Note_on_c, 1, 51, 70
3, 689656, Note_off_c, 1, 51, 100
3, 689664, Note_on_c, 1, 53, 85
3, 690808, Note_off_c, 1, 53, 100
3, 690816, Note_on_c, 1, 51, 71
3, 691192, Note_off_c, 1, 51, 100
3, 691200, Note_on_c, 1, 50, 71
3, 691576, Note_off_c, 1, 46, 100
3, 691576, Note_off_c, 1, 50, 100
3, 691584, Note_on_c, 1, 46, 71
3, 691968, Note_on_c, 1, 50, 72
3, 692344, Note_off_c, 1, 50, 100
3, 692352, Note_on_c, 1, 51, 72
3, 692728, Note_off_c, 1, 51, 100
3, 692736, Note_on_c, 1, 53, 85
3, 693880, Note_off_c, 1, 53, 100
3, 693888, Note_on_c, 1, 51, 73
3, 694264, Note_off_c, 1, 51, 100
3, 694272, Note_on_c, 1, 50, 73
3, 694648, Note_off_c, 1, 46, 100
3, 694648, Note_off_c, 1, 50, 100
3, 694656, Note_on_c, 1, 46, 73
3, 695040, Note_on_c, 1, 53, 74
3, 695416, Note_off_c, 1, 53, 100
3, 695424, Note_on_c, 1, 52, 74
3, 695800, Note_off_c, 1, 52, 100
3, 695808, Note_on_c, 1, 50, 74
3, 696184, Note_off_c, 1, 46, 100
3, 696184, Note_off_c, 1, 50, 100
3, 696192, Note_on_c, 1, 46, 84
3, 696576, Note_on_c, 1, 53, 75
3, 696952, Note_off_c, 1, 53, 100
3, 696960, Note_on_c, 1, 52, 75
3, 697336, Note_off_c, 1, 52, 100
3, 697344, Note_on_c, 1, 50, 75
3, 697720, Note_off_c, 1, 46, 100
3, 697720, Note_off_c, 1, 50, 100
3, 697728, Note_on_c, 1, 45, 84
3, 698112, Note_on_c, 1, 49, 76
3, 698488, Note_off_c, 1, 49, 100
3, 698496, Note_on_c, 1, 50, 76
3, 698872, Note_off_c, 1, 50, 100
3, 698880, Note_on_c, 1, 52, 76
3, 699256, Note_off_c, 1, 45, 100
3, 699256, Note_off_c, 1, 52, 100
3, 699264, Note_on_c, 1, 46, 88
3, 699640, Note_off_c, 1, 46, 100
3, 699648, Note_on_c, 1, 47, 77
3, 700024, Note_off_c, 1, 47, 100
3, 700032, Note_on_c, 1, 49, 77
3, 700408, Note_off_c, 1, 49, 100
3, 700416, Note_on_c, 1, 50, 77
3, 700792, Note_off_c, 1, 50, 100
3, 700800, Note_on_c, 1, 42, 89
3, 701176, Note_off_c, 1, 42, 100
3, 701184, Note_on_c, 1, 43, 78
3, 701560, Note_off_c, 1, 43, 100
3, 701568, Note_on_c, 1, 45, 78
3, 701944, Note_off_c, 1, 45, 100
3, 701952, Note_on_c, 1, 47, 78
3, 702328, Note_off_c, 1, 47, 100
3, 702336, Note_on_c, 1, 33, 89
3, 702720, Note_on_c, 1, 40, 79
3, 703096, Note_off_c, 1, 40, 100
3, 703104, Note_on_c, 1, 42, 79
3, 703480, Note_off_c, 1, 42, 100
3, 703488, Note_on_c, 1, 43, 79
3, 703864, Note_off_c, 1, 33, 100
3, 703864, Note_off_c, 1, 43, 100
3, 703872, Note_on_c, 1, 45, 79
3, 704248, Note_off_c, 1, 45, 100
3, 704256, Note_on_c, 1, 38, 80
3, 704440, Note_off_c, 1, 38, 100
3, 704448, Note_on_c, 1, 50, 80
3, 704632, Note_off_c, 1, 50, 100
3, 704640, Note_on_c, 1, 49, 80
3, 704824, Note_off_c, 1, 49, 100
3, 704832, Note_on_c, 1, 50, 80
3, 705016, Note_off_c, 1, 50, 100
3, 705024, Note_on_c, 1, 49, 80
3, 705208, Note_off_c, 1, 49, 100
3, 705216, Note_on_c, 1, 50, 80
3, 705400, Note_off_c, 1, 50, 100
3, 705408, Note_on_c, 1, 49, 80
3, 705592, Note_off_c, 1, 49, 100
3, 705600, Note_on_c, 1, 50, 80
3, 705784, Note_off_c, 1, 50, 100
3, 705792, Note_on_c, 1, 49, 80
3, 705976, Note_off_c, 1, 49, 100
3, 705984, Note_on_c, 1, 50, 80
3, 706168, Note_off_c, 1, 50, 100
3, 706176, Note_on_c, 1, 49, 80
3, 706360, Note_off_c, 1, 49, 100
3, 706368, Note_on_c, 1, 50, 80
3, 706552, Note_off_c, 1, 50, 100
3, 706560, Note_on_c, 1, 49, 80
3, 706744, Note_off_c, 1, 49, 100
3, 706752, Note_on_c, 1, 50, 80
3, 706936, Note_off_c, 1, 50, 100
3, 706944, Note_on_c, 1, 49, 80
3, 707128, Note_off_c, 1, 49, 100
3, 707136, Note_on_c, 1, 50, 80
3, 707320, Note_off_c, 1, 50, 100
3, 707328, Note_on_c, 1, 49, 80
3, 707512, Note_off_c, 1, 49, 100
3, 707520, Note_on_c, 1, 50, 80
3, 707704, Note_off_c, 1, 50, 100
3, 707712, Note_on_c, 1, 49, 80
3, 707896, Note_off_c, 1, 49, 100
3, 707904, Note_on_c, 1, 50, 80
3, 708088, Note_off_c, 1, 50, 100
3, 708096, Note_on_c, 1, 49, 80
3, 708280, Note_off_c, 1, 49, 100
3, 708288, Note_on_c, 1, 50, 80
3, 708472, Note_off_c, 1, 50, 100
3, 708480, Note_on_c, 1, 49, 80
3, 708664, Note_off_c, 1, 49, 100
3, 708672, Note_on_c, 1, 50, 80
3, 708856, Note_off_c, 1, 50, 100
3, 708864, Note_on_c, 1, 49, 80
3, 709048, Note_off_c, 1, 49, 100
3, 709056, Note_on_c, 1, 50, 80
3, 709240, Note_off_c, 1, 50, 100
3, 709248, Note_on_c, 1, 49, 80
3, 709432, Note_off_c, 1, 49, 100
3, 709440, Note_on_c, 1, 50, 80
3, 709624, Note_off_c, 1, 50, 100
3, 709632, Note_on_c, 1, 49, 80
3, 709816, Note_off_c, 1, 49, 100
3, 709824, Note_on_c, 1, 50, 80
3, 710008, Note_off_c, 1, 50, 100
3, 710016, Note_on_c, 1, 49, 80
3, 710200, Note_off_c, 1, 49, 100
3, 710208, Note_on_c, 1, 50, 80
3, 710392, Note_off_c, 1, 50, 100
3, 710400, Note_on_c, 1, 49, 80
3, 710584, Note_off_c, 1, 49, 100
3, 710592, Note_on_c, 1, 50, 80
3, 710776, Note_off_c, 1, 50, 100
3, 710784, Note_on_c, 1, 49, 80
3, 710968, Note_off_c, 1, 49, 100
3, 710976, Note_on_c, 1, 50, 80
3, 711160, Note_off_c, 1, 50, 100
3, 711168, Note_on_c, 1, 49, 80
3, 711352, Note_off_c, 1, 49, 100
3, 711360, Note_on_c, 1, 50, 80
3, 711544, Note_off_c, 1, 50, 100
3, 711552, Note_on_c, 1, 49, 80
3, 711736, Note_off_c, 1, 49, 100
3, 711744, Note_on_c, 1, 50, 80
3, 711928, Note_off_c, 1, 50, 100
3, 711936, Note_on_c, 1, 49, 80
3, 712120, Note_off_c, 1, 49, 100
3, 712128, Note_on_c, 1, 50, 80
3, 712312, Note_off_c, 1, 50, 100
3, 712320, Note_on_c, 1, 49, 80
3, 712504, Note_off_c, 1, 49, 100
3, 712512, Note_on_c, 1, 50, 80
3, 712696, Note_off_c, 1, 50, 100
3, 712704, Note_on_c, 1, 49, 80
3, 712888, Note_off_c, 1, 49, 100
3, 712896, Note_on_c, 1, 50, 80
3, 713080, Note_off_c, 1, 50, 100
3, 713088, Note_on_c, 1, 49, 80
3, 713272, Note_off_c, 1, 49, 100
3, 713280, Note_on_c, 1, 50, 80
3, 713464, Note_off_c, 1, 50, 100
3, 713472, Note_on_c, 1, 38, 80
3, 713656, Note_off_c, 1, 38, 100
3, 713664, Note_on_c, 1, 50, 80
3, 713848, Note_off_c, 1, 50, 100
3, 713856, Note_on_c, 1, 49, 80
3, 714040, Note_off_c, 1, 49, 100
3, 714048, Note_on_c, 1, 50, 80
3, 714232, Note_off_c, 1, 50, 100
3, 714240, Note_on_c, 1, 47, 80
3, 714424, Note_off_c, 1, 47, 100
3, 714432, Note_on_c, 1, 50, 80
3, 714616, Note_off_c, 1, 50, 100
3, 714624, Note_on_c, 1, 49, 80
3, 714808, Note_off_c, 1, 49, 100
3, 714816, Note_on_c, 1, 50, 80
3, 715000, Note_off_c, 1, 50, 100
3, 715008, Note_on_c, 1, 45, 80
3, 715192, Note_off_c, 1, 45, 100
3, 715200, Note_on_c, 1, 50, 80
3, 715384, Note_off_c, 1, 50, 100
3, 715392, Note_on_c, 1, 49, 81
3, 715576, Note_off_c, 1, 49, 100
3, 715584, Note_on_c, 1, 50, 82
3, 715768, Note_off_c, 1, 50, 100
3, 715776, Note_on_c, 1, 43, 82
3, 715960, Note_off_c, 1, 43, 100
3, 715968, Note_on_c, 1, 50, 83
3, 716152, Note_off_c, 1, 50, 100
3, 716160, Note_on_c, 1, 47, 84
3, 716344, Note_off_c, 1, 47, 100
3, 716352, Note_on_c, 1, 50, 85
3, 716536, Note_off_c, 1, 50, 100
3, 716544, Note_on_c, 1, 42, 85
3, 716728, Note_off_c, 1, 42, 100
3, 716736, Note_on_c, 1, 50, 86
3, 716920, Note_off_c, 1, 50, 100
3, 716928, Note_on_c, 1, 45, 87
3, 717112, Note_off_c, 1, 45, 100
3, 717120, Note_on_c, 1, 50, 87
3, 717304, Note_off_c, 1, 50, 100
3, 717312, Note_on_c, 1, 43, 88
3, 717496, Note_off_c, 1, 43, 100
3, 717504, Note_on_c, 1, 50, 89
3, 717688, Note_off_c, 1, 50, 100
3, 717696, Note_on_c, 1, 47, 90
3, 717880, Note_off_c, 1, 47, 100
3, 717888, Note_on_c, 1, 50, 90
3, 718072, Note_off_c, 1, 50, 100
3, 718080, Note_on_c, 1, 42, 91
3, 718264, Note_off_c, 1, 42, 100
3, 718272, Note_on_c, 1, 50, 92
3, 718456, Note_off_c, 1, 50, 100
3, 718464, Note_on_c, 1, 45, 93
3, 718648, Note_off_c, 1, 45, 100
3, 718656, Note_on_c, 1, 50, 93
3, 718840, Note_off_c, 1, 50, 100
3, 718848, Note_on_c, 1, 40, 94
3, 719032, Note_off_c, 1, 40, 100
3, 719040, Note_on_c, 1, 50, 95
3, 719224, Note_off_c, 1, 50, 100
3, 719232, Note_on_c, 1, 43, 95
3, 719416, Note_off_c, 1, 43, 100
3, 719424, Note_on_c, 1, 50, 96
3, 719608, Note_off_c, 1, 50, 100
3, 719616, Note_on_c, 1, 38, 97
3, 719800, Note_off_c, 1, 38, 100
3, 719808, Note_on_c, 1, 50, 98
3, 719992, Note_off_c, 1, 50, 100
3, 720000, Note_on_c, 1, 49, 98
3, 720184, Note_off_c, 1, 49, 100
3, 720192, Note_on_c, 1, 50, 99
3, 720376, Note_off_c, 1, 50, 100
3, 720384, Note_on_c, 1, 47, 100
3, 720568, Note_off_c, 1, 47, 100
3, 720576, Note_on_c, 1, 50, 101
3, 720760, Note_off_c, 1, 50, 100
3, 720768, Note_on_c, 1, 49, 101
3, 720952, Note_off_c, 1, 49, 100
3, 720960, Note_on_c, 1, 50, 102
3, 721144, Note_off_c, 1, 50, 100
3, 721152, Note_on_c, 1, 45, 103
3, 721336, Note_off_c, 1, 45, 100
3, 721344, Note_on_c, 1, 50, 103
3, 721528, Note_off_c, 1, 50, 100
3, 721536, Note_on_c, 1, 49, 104
3, 721720, Note_off_c, 1, 49, 100
3, 721728, Note_on_c, 1, 50, 105
3, 721912, Note_off_c, 1, 50, 100
3, 721920, Note_on_c, 1, 43, 106
3, 722104, Note_off_c, 1, 43, 100
3, 722112, Note_on_c, 1, 50, 106
3, 722296, Note_off_c, 1, 50, 100
3, 722304, Note_on_c, 1, 47, 107
3, 722488, Note_off_c, 1, 47, 100
3, 722496, Note_on_c, 1, 50, 108
3, 722680, Note_off_c, 1, 50, 100
3, 722688, Note_on_c, 1, 42, 109
3, 722872, Note_off_c, 1, 42, 100
3, 722880, Note_on_c, 1, 50, 109
3, 723064, Note_off_c, 1, 50, 100
3, 723072, Note_on_c, 1, 45, 110
3, 723256, Note_off_c, 1, 45, 100
3, 723264, Note_on_c, 1, 50, 111
3, 723448, Note_off_c, 1, 50, 100
3, 723456, Note_on_c, 1, 43, 111
3, 723640, Note_off_c, 1, 43, 100
3, 723648, Note_on_c, 1, 50, 112
3, 723832, Note_off_c, 1, 50, 100
3, 723840, Note_on_c, 1, 47, 113
3, 724024, Note_off_c, 1, 47, 100
3, 724032, Note_on_c, 1, 50, 114
3, 724216, Note_off_c, 1, 50, 100
3, 724224, Note_on_c, 1, 42, 114
3, 724408, Note_off_c, 1, 42, 100
3, 724416, Note_on_c, 1, 50, 115
3, 724600, Note_off_c, 1, 50, 100
3, 724608, Note_on_c, 1, 45, 116
3, 724792, Note_off_c, 1, 45, 100
3, 724800, Note_on_c, 1, 50, 117
3, 724984, Note_off_c, 1, 50, 100
3, 724992, Note_on_c, 1, 40, 117
3, 725176, Note_off_c, 1, 40, 100
3, 725184, Note_on_c, 1, 50, 118
3, 725368, Note_off_c, 1, 50, 100
3, 725376, Note_on_c, 1, 43, 119
3, 725560, Note_off_c, 1, 43, 100
3, 725568, Note_on_c, 1, 50, 119
3, 725752, Note_off_c, 1, 50, 100
3, 725760, Note_on_c, 1, 50, 120
3, 725760, Note_on_c, 1, 42, 120
3, 725760, Note_on_c, 1, 38, 120
3, 726136, Note_off_c, 1, 50, 100
3, 726136, Note_off_c, 1, 42, 100
3, 726136, Note_off_c, 1, 38, 100
3, 727296, Note_on_c, 1, 62, 120
3, 727296, Note_on_c, 1, 54, 120
3, 727296, Note_on_c, 1, 50, 120
3, 727672, Note_off_c, 1, 62, 100
3, 727672, Note_off_c, 1, 54, 100
3, 727672, Note_off_c, 1, 50, 100
3, 728832, Note_on_c, 1, 50, 120
3, 728832, Note_on_c, 1, 42, 120
3, 728832, Note_on_c, 1, 38, 120
3, 729208, Note_off_c, 1, 50, 100
3, 729208, Note_off_c, 1, 42, 100
3, 729208, Note_off_c, 1, 38, 100
3, 729600, Note_on_c, 1, 50, 120
3, 729600, Note_on_c, 1, 42, 120
3, 729600, Note_on_c, 1, 38, 120
3, 730360, Note_off_c, 1, 50, 100
3, 730360, Note_off_c, 1, 42, 100
3, 730360, Note_off_c, 1, 38, 100
3, 730360, End_track
0, 0, End_of_file
