0, 0, Header, 1, 3, 384
1, 0, Start_track
1, 0, Title_t, "L.v.Beethoven 3mov - Piano Sonata No.7 in D Major Op.10-3\000"
1, 0, Copyright_t, "Copyright(C) 1995-2009, Suzuki Software\000"
1, 0, Sequencer_specific, 9, 67, 123, 0, 88, 70, 48, 50, 0, 1
1, 0, Text_t, "XFhd:2000/04/11:JP:Classical::::L.v.Beethoven:::Kaoru Suzuki\000"
1, 0, Text_t, "XFln:JP:\203s\203A\203m\203\\\203i\203^\221æ7\224Ô\203j\222·\222²\215ì\225i10-3\201`\221æ3\212y\217Í:L.v.\203x\201[\203g\201[\203\224\203F\203\223:::\227é\202¿\202á\202ñ:\227é\202¿\202á\202ñ\000"
1, 0, Time_signature, 1, 2, 96, 8
1, 0, Sequencer_specific, 3, 0, 0, 65
1, 0, Sequencer_specific, 5, 0, 0, 119, 14, 0
1, 0, Tempo, 266666
1, 384, Time_signature, 3, 2, 96, 8
1, 77568, Tempo, 285714
1, 78720, Tempo, 300000
1, 81024, Tempo, 266666
1, 121344, Tempo, 285714
1, 122496, Tempo, 315789
1, 123648, Tempo, 285714
1, 124800, Tempo, 260869
1, 141696, Tempo, 272727
1, 142080, Tempo, 285714
1, 142464, Tempo, 300000
1, 143616, Tempo, 260869
1, 157824, Tempo, 272727
1, 158592, Tempo, 285714
1, 158976, Tempo, 300000
1, 159360, Tempo, 333333
1, 161664, Tempo, 266666
1, 195072, Tempo, 279069
1, 196224, Tempo, 300000
1, 198528, Tempo, 266666
1, 238848, Tempo, 279069
1, 240000, Tempo, 300000
1, 242304, Tempo, 266666
1, 266496, Tempo, 285714
1, 267648, Tempo, 266666
1, 282624, Tempo, 289855
1, 283776, Tempo, 375000
1, 283776, End_track
2, 0, Start_track
2, 0, Title_t, "Right"
2, 0, Control_c, 0, 0, 0
2, 0, Program_c, 0, 0
2, 0, Control_c, 0, 7, 100
2, 0, Control_c, 0, 10, 78
2, 0, Control_c, 0, 91, 127
2, 0, Key_signature, 2, "major"
2, 0, Note_on_c, 0, 69, 80
2, 384, Note_on_c, 0, 66, 80
2, 764, Note_off_c, 0, 69, 100
2, 768, Note_on_c, 0, 78, 80
2, 1148, Note_off_c, 0, 78, 100
2, 1152, Note_on_c, 0, 76, 80
2, 1532, Note_off_c, 0, 66, 100
2, 1532, Note_off_c, 0, 76, 100
2, 1536, Note_on_c, 0, 67, 80
2, 1536, Note_on_c, 0, 74, 80
2, 1916, Note_off_c, 0, 74, 100
2, 1920, Note_on_c, 0, 73, 80
2, 2300, Note_off_c, 0, 73, 100
2, 2304, Note_on_c, 0, 76, 80
2, 2684, Note_off_c, 0, 67, 100
2, 2684, Note_off_c, 0, 76, 100
2, 2688, Note_on_c, 0, 74, 80
2, 2688, Note_on_c, 0, 69, 80
2, 3836, Note_off_c, 0, 69, 100
2, 3840, Note_on_c, 0, 66, 80
2, 4220, Note_off_c, 0, 74, 100
2, 4224, Note_on_c, 0, 69, 80
2, 4604, Note_off_c, 0, 69, 100
2, 4608, Note_on_c, 0, 71, 80
2, 4988, Note_off_c, 0, 66, 100
2, 4988, Note_off_c, 0, 71, 100
2, 4992, Note_on_c, 0, 69, 80
2, 4992, Note_on_c, 0, 64, 80
2, 5372, Note_off_c, 0, 69, 100
2, 5376, Note_on_c, 0, 67, 80
2, 5756, Note_off_c, 0, 64, 100
2, 5756, Note_off_c, 0, 67, 100
2, 5760, Note_on_c, 0, 69, 80
2, 5760, Note_on_c, 0, 61, 80
2, 6140, Note_off_c, 0, 69, 100
2, 6140, Note_off_c, 0, 61, 100
2, 6144, Note_on_c, 0, 67, 80
2, 6144, Note_on_c, 0, 64, 80
2, 6524, Note_off_c, 0, 67, 100
2, 6524, Note_off_c, 0, 64, 100
2, 6528, Note_on_c, 0, 66, 80
2, 6528, Note_on_c, 0, 62, 80
2, 6908, Note_off_c, 0, 66, 100
2, 6908, Note_off_c, 0, 62, 100
2, 6912, Note_on_c, 0, 67, 80
2, 6912, Note_on_c, 0, 64, 80
2, 7292, Note_off_c, 0, 67, 100
2, 7292, Note_off_c, 0, 64, 100
2, 7296, Note_on_c, 0, 66, 80
2, 7296, Note_on_c, 0, 62, 80
2, 7296, Note_on_c, 0, 57, 80
2, 8444, Note_off_c, 0, 66, 100
2, 8444, Note_off_c, 0, 62, 100
2, 8444, Note_off_c, 0, 57, 100
2, 8448, Note_on_c, 0, 64, 80
2, 8448, Note_on_c, 0, 61, 80
2, 8828, Note_off_c, 0, 64, 100
2, 8828, Note_off_c, 0, 61, 100
2, 9216, Note_on_c, 0, 71, 80
2, 9600, Note_on_c, 0, 67, 80
2, 9980, Note_off_c, 0, 71, 100
2, 9984, Note_on_c, 0, 79, 80
2, 10364, Note_off_c, 0, 79, 100
2, 10368, Note_on_c, 0, 78, 80
2, 10748, Note_off_c, 0, 67, 100
2, 10748, Note_off_c, 0, 78, 100
2, 10752, Note_on_c, 0, 76, 80
2, 10752, Note_on_c, 0, 69, 80
2, 11132, Note_off_c, 0, 76, 100
2, 11136, Note_on_c, 0, 75, 80
2, 11516, Note_off_c, 0, 75, 100
2, 11520, Note_on_c, 0, 78, 80
2, 11900, Note_off_c, 0, 69, 100
2, 11900, Note_off_c, 0, 78, 100
2, 11904, Note_on_c, 0, 76, 80
2, 11904, Note_on_c, 0, 71, 80
2, 13052, Note_off_c, 0, 71, 100
2, 13056, Note_on_c, 0, 67, 80
2, 13436, Note_off_c, 0, 76, 100
2, 13440, Note_on_c, 0, 71, 80
2, 13820, Note_off_c, 0, 71, 100
2, 13824, Note_on_c, 0, 73, 80
2, 14204, Note_off_c, 0, 67, 100
2, 14208, Note_on_c, 0, 69, 80
2, 14588, Note_off_c, 0, 73, 100
2, 14592, Note_on_c, 0, 74, 80
2, 14972, Note_off_c, 0, 69, 100
2, 14972, Note_off_c, 0, 74, 100
2, 14976, Note_on_c, 0, 66, 80
2, 14976, Note_on_c, 0, 69, 80
2, 15356, Note_off_c, 0, 66, 100
2, 15356, Note_off_c, 0, 69, 100
2, 15360, Note_on_c, 0, 69, 80
2, 15360, Note_on_c, 0, 61, 80
2, 15740, Note_off_c, 0, 69, 100
2, 15744, Note_on_c, 0, 67, 80
2, 16124, Note_off_c, 0, 61, 100
2, 16124, Note_off_c, 0, 67, 100
2, 16128, Note_on_c, 0, 64, 80
2, 16128, Note_on_c, 0, 61, 80
2, 16128, Note_on_c, 0, 55, 80
2, 16508, Note_off_c, 0, 64, 100
2, 16508, Note_off_c, 0, 61, 100
2, 16508, Note_off_c, 0, 55, 100
2, 16512, Note_on_c, 0, 64, 80
2, 16512, Note_on_c, 0, 61, 80
2, 16512, Note_on_c, 0, 55, 80
2, 17660, Note_off_c, 0, 64, 100
2, 17660, Note_off_c, 0, 61, 100
2, 17660, Note_off_c, 0, 55, 100
2, 17664, Note_on_c, 0, 62, 80
2, 17664, Note_on_c, 0, 54, 80
2, 18044, Note_off_c, 0, 62, 100
2, 18044, Note_off_c, 0, 54, 100
2, 18432, Note_on_c, 0, 69, 80
2, 18816, Note_on_c, 0, 66, 80
2, 19196, Note_off_c, 0, 69, 100
2, 19200, Note_on_c, 0, 78, 80
2, 19580, Note_off_c, 0, 78, 100
2, 19584, Note_on_c, 0, 76, 80
2, 19964, Note_off_c, 0, 66, 100
2, 19964, Note_off_c, 0, 76, 100
2, 19968, Note_on_c, 0, 67, 80
2, 19968, Note_on_c, 0, 74, 80
2, 20348, Note_off_c, 0, 74, 100
2, 20352, Note_on_c, 0, 73, 80
2, 20732, Note_off_c, 0, 73, 100
2, 20736, Note_on_c, 0, 76, 80
2, 21116, Note_off_c, 0, 67, 100
2, 21116, Note_off_c, 0, 76, 100
2, 21120, Note_on_c, 0, 74, 80
2, 21120, Note_on_c, 0, 69, 80
2, 22268, Note_off_c, 0, 69, 100
2, 22272, Note_on_c, 0, 66, 80
2, 22652, Note_off_c, 0, 74, 100
2, 22656, Note_on_c, 0, 69, 80
2, 23036, Note_off_c, 0, 69, 100
2, 23040, Note_on_c, 0, 71, 80
2, 23420, Note_off_c, 0, 66, 100
2, 23420, Note_off_c, 0, 71, 100
2, 23424, Note_on_c, 0, 69, 80
2, 23424, Note_on_c, 0, 64, 80
2, 23804, Note_off_c, 0, 69, 100
2, 23808, Note_on_c, 0, 67, 80
2, 24188, Note_off_c, 0, 64, 100
2, 24188, Note_off_c, 0, 67, 100
2, 24192, Note_on_c, 0, 69, 80
2, 24192, Note_on_c, 0, 61, 80
2, 24572, Note_off_c, 0, 69, 100
2, 24572, Note_off_c, 0, 61, 100
2, 24576, Note_on_c, 0, 67, 80
2, 24576, Note_on_c, 0, 64, 80
2, 24956, Note_off_c, 0, 67, 100
2, 24956, Note_off_c, 0, 64, 100
2, 24960, Note_on_c, 0, 66, 80
2, 24960, Note_on_c, 0, 62, 80
2, 25340, Note_off_c, 0, 66, 100
2, 25340, Note_off_c, 0, 62, 100
2, 25344, Note_on_c, 0, 67, 80
2, 25344, Note_on_c, 0, 64, 80
2, 25724, Note_off_c, 0, 67, 100
2, 25724, Note_off_c, 0, 64, 100
2, 25728, Note_on_c, 0, 66, 80
2, 25728, Note_on_c, 0, 62, 80
2, 25728, Note_on_c, 0, 57, 80
2, 26876, Note_off_c, 0, 66, 100
2, 26876, Note_off_c, 0, 62, 100
2, 26876, Note_off_c, 0, 57, 100
2, 26880, Note_on_c, 0, 64, 80
2, 26880, Note_on_c, 0, 61, 80
2, 27260, Note_off_c, 0, 64, 100
2, 27260, Note_off_c, 0, 61, 100
2, 27648, Note_on_c, 0, 71, 80
2, 28032, Note_on_c, 0, 67, 80
2, 28412, Note_off_c, 0, 71, 100
2, 28416, Note_on_c, 0, 79, 80
2, 28796, Note_off_c, 0, 79, 100
2, 28800, Note_on_c, 0, 78, 80
2, 29180, Note_off_c, 0, 67, 100
2, 29180, Note_off_c, 0, 78, 100
2, 29184, Note_on_c, 0, 76, 80
2, 29184, Note_on_c, 0, 69, 80
2, 29564, Note_off_c, 0, 76, 100
2, 29568, Note_on_c, 0, 75, 80
2, 29948, Note_off_c, 0, 75, 100
2, 29952, Note_on_c, 0, 78, 80
2, 30332, Note_off_c, 0, 69, 100
2, 30332, Note_off_c, 0, 78, 100
2, 30336, Note_on_c, 0, 76, 80
2, 30336, Note_on_c, 0, 71, 80
2, 31484, Note_off_c, 0, 71, 100
2, 31488, Note_on_c, 0, 67, 80
2, 31868, Note_off_c, 0, 76, 100
2, 31872, Note_on_c, 0, 71, 80
2, 32252, Note_off_c, 0, 71, 100
2, 32256, Note_on_c, 0, 73, 80
2, 32636, Note_off_c, 0, 67, 100
2, 32640, Note_on_c, 0, 69, 80
2, 33020, Note_off_c, 0, 73, 100
2, 33024, Note_on_c, 0, 74, 80
2, 33404, Note_off_c, 0, 69, 100
2, 33404, Note_off_c, 0, 74, 100
2, 33408, Note_on_c, 0, 66, 80
2, 33408, Note_on_c, 0, 69, 80
2, 33788, Note_off_c, 0, 66, 100
2, 33788, Note_off_c, 0, 69, 100
2, 33792, Note_on_c, 0, 69, 80
2, 33792, Note_on_c, 0, 61, 80
2, 34172, Note_off_c, 0, 69, 100
2, 34176, Note_on_c, 0, 67, 80
2, 34556, Note_off_c, 0, 61, 100
2, 34556, Note_off_c, 0, 67, 100
2, 34560, Note_on_c, 0, 64, 80
2, 34560, Note_on_c, 0, 61, 80
2, 34560, Note_on_c, 0, 55, 80
2, 34940, Note_off_c, 0, 64, 100
2, 34940, Note_off_c, 0, 61, 100
2, 34940, Note_off_c, 0, 55, 100
2, 34944, Note_on_c, 0, 64, 80
2, 34944, Note_on_c, 0, 61, 80
2, 34944, Note_on_c, 0, 55, 80
2, 36092, Note_off_c, 0, 64, 100
2, 36092, Note_off_c, 0, 61, 100
2, 36092, Note_off_c, 0, 55, 100
2, 36096, Note_on_c, 0, 62, 80
2, 36096, Note_on_c, 0, 54, 80
2, 36476, Note_off_c, 0, 62, 100
2, 36476, Note_off_c, 0, 54, 100
2, 39552, Note_on_c, 0, 59, 100
2, 40316, Note_off_c, 0, 59, 100
2, 40320, Note_on_c, 0, 58, 80
2, 40508, Note_off_c, 0, 58, 100
2, 40512, Note_on_c, 0, 59, 80
2, 40700, Note_off_c, 0, 59, 100
2, 40704, Note_on_c, 0, 61, 80
2, 40892, Note_off_c, 0, 61, 100
2, 40896, Note_on_c, 0, 59, 80
2, 41084, Note_off_c, 0, 59, 100
2, 41088, Note_on_c, 0, 57, 80
2, 41276, Note_off_c, 0, 57, 100
2, 41280, Note_on_c, 0, 56, 80
2, 41468, Note_off_c, 0, 56, 100
2, 41472, Note_on_c, 0, 54, 80
2, 41660, Note_off_c, 0, 54, 100
2, 41664, Note_on_c, 0, 59, 80
2, 41852, Note_off_c, 0, 59, 100
2, 41856, Note_on_c, 0, 76, 101
2, 42620, Note_off_c, 0, 76, 100
2, 42624, Note_on_c, 0, 75, 80
2, 42812, Note_off_c, 0, 75, 100
2, 42816, Note_on_c, 0, 76, 80
2, 43004, Note_off_c, 0, 76, 100
2, 43008, Note_on_c, 0, 78, 80
2, 43196, Note_off_c, 0, 78, 100
2, 43200, Note_on_c, 0, 76, 80
2, 43388, Note_off_c, 0, 76, 100
2, 43392, Note_on_c, 0, 74, 80
2, 43580, Note_off_c, 0, 74, 100
2, 43584, Note_on_c, 0, 73, 80
2, 43772, Note_off_c, 0, 73, 100
2, 43776, Note_on_c, 0, 71, 80
2, 43964, Note_off_c, 0, 71, 100
2, 43968, Note_on_c, 0, 76, 80
2, 44156, Note_off_c, 0, 76, 100
2, 44160, Note_on_c, 0, 73, 80
2, 44540, Note_off_c, 0, 73, 100
2, 44544, Note_on_c, 0, 81, 100
2, 44924, Note_off_c, 0, 81, 100
2, 44928, Note_on_c, 0, 81, 100
2, 45308, Note_off_c, 0, 81, 100
2, 45312, Note_on_c, 0, 81, 100
2, 45692, Note_off_c, 0, 81, 100
2, 45696, Note_on_c, 0, 81, 100
2, 46076, Note_off_c, 0, 81, 100
2, 46080, Note_on_c, 0, 81, 100
2, 46460, Note_off_c, 0, 81, 100
2, 46464, Note_on_c, 0, 81, 80
2, 46560, Note_on_c, 0, 83, 80
2, 46652, Note_off_c, 0, 81, 100
2, 46656, Note_on_c, 0, 81, 80
2, 46748, Note_off_c, 0, 83, 100
2, 46752, Note_on_c, 0, 83, 80
2, 46844, Note_off_c, 0, 81, 100
2, 46848, Note_on_c, 0, 81, 80
2, 46848, Note_on_c, 0, 78, 80
2, 46940, Note_off_c, 0, 83, 100
2, 46944, Note_on_c, 0, 83, 80
2, 47036, Note_off_c, 0, 81, 100
2, 47040, Note_on_c, 0, 81, 80
2, 47132, Note_off_c, 0, 83, 100
2, 47136, Note_on_c, 0, 83, 80
2, 47228, Note_off_c, 0, 78, 100
2, 47228, Note_off_c, 0, 81, 100
2, 47232, Note_on_c, 0, 81, 80
2, 47232, Note_on_c, 0, 76, 80
2, 47324, Note_off_c, 0, 83, 100
2, 47328, Note_on_c, 0, 83, 80
2, 47420, Note_off_c, 0, 81, 100
2, 47424, Note_on_c, 0, 81, 80
2, 47516, Note_off_c, 0, 83, 100
2, 47520, Note_on_c, 0, 83, 80
2, 47612, Note_off_c, 0, 76, 100
2, 47612, Note_off_c, 0, 81, 100
2, 47616, Note_on_c, 0, 81, 80
2, 47708, Note_off_c, 0, 83, 100
2, 47712, Note_on_c, 0, 83, 80
2, 47804, Note_off_c, 0, 81, 100
2, 47808, Note_on_c, 0, 81, 80
2, 47900, Note_off_c, 0, 83, 100
2, 47904, Note_on_c, 0, 83, 80
2, 47996, Note_off_c, 0, 81, 100
2, 48000, Note_on_c, 0, 81, 80
2, 48092, Note_off_c, 0, 83, 100
2, 48096, Note_on_c, 0, 83, 80
2, 48188, Note_off_c, 0, 81, 100
2, 48192, Note_on_c, 0, 81, 80
2, 48284, Note_off_c, 0, 83, 100
2, 48288, Note_on_c, 0, 83, 80
2, 48380, Note_off_c, 0, 81, 100
2, 48384, Note_on_c, 0, 81, 80
2, 48476, Note_off_c, 0, 83, 100
2, 48480, Note_on_c, 0, 83, 80
2, 48572, Note_off_c, 0, 81, 100
2, 48576, Note_on_c, 0, 81, 80
2, 48668, Note_off_c, 0, 83, 100
2, 48672, Note_on_c, 0, 83, 80
2, 48764, Note_off_c, 0, 81, 100
2, 48768, Note_on_c, 0, 81, 80
2, 48860, Note_off_c, 0, 83, 100
2, 48864, Note_on_c, 0, 83, 80
2, 48956, Note_off_c, 0, 81, 100
2, 48960, Note_on_c, 0, 81, 81
2, 49052, Note_off_c, 0, 83, 100
2, 49056, Note_on_c, 0, 83, 82
2, 49148, Note_off_c, 0, 81, 100
2, 49152, Note_on_c, 0, 81, 83
2, 49244, Note_off_c, 0, 83, 100
2, 49248, Note_on_c, 0, 83, 84
2, 49340, Note_off_c, 0, 81, 100
2, 49344, Note_on_c, 0, 81, 85
2, 49436, Note_off_c, 0, 83, 100
2, 49440, Note_on_c, 0, 83, 86
2, 49532, Note_off_c, 0, 81, 100
2, 49536, Note_on_c, 0, 81, 87
2, 49628, Note_off_c, 0, 83, 100
2, 49632, Note_on_c, 0, 83, 88
2, 49724, Note_off_c, 0, 81, 100
2, 49728, Note_on_c, 0, 81, 89
2, 49820, Note_off_c, 0, 83, 100
2, 49824, Note_on_c, 0, 83, 89
2, 49916, Note_off_c, 0, 81, 100
2, 49920, Note_on_c, 0, 81, 90
2, 50012, Note_off_c, 0, 83, 100
2, 50016, Note_on_c, 0, 83, 91
2, 50108, Note_off_c, 0, 81, 100
2, 50112, Note_on_c, 0, 81, 92
2, 50204, Note_off_c, 0, 83, 100
2, 50208, Note_on_c, 0, 83, 93
2, 50300, Note_off_c, 0, 81, 100
2, 50304, Note_on_c, 0, 82, 94
2, 50396, Note_off_c, 0, 83, 100
2, 50400, Note_on_c, 0, 83, 95
2, 50492, Note_off_c, 0, 82, 100
2, 50496, Note_on_c, 0, 82, 96
2, 50588, Note_off_c, 0, 83, 100
2, 50592, Note_on_c, 0, 83, 97
2, 50684, Note_off_c, 0, 82, 100
2, 50688, Note_on_c, 0, 81, 98
2, 50780, Note_off_c, 0, 83, 100
2, 50784, Note_on_c, 0, 82, 99
2, 50876, Note_off_c, 0, 81, 100
2, 50880, Note_on_c, 0, 83, 99
2, 50972, Note_off_c, 0, 82, 100
2, 51068, Note_off_c, 0, 83, 100
2, 51072, Note_on_c, 0, 81, 80
2, 51452, Note_off_c, 0, 81, 100
2, 51456, Note_on_c, 0, 79, 80
2, 51836, Note_off_c, 0, 79, 100
2, 51840, Note_on_c, 0, 81, 80
2, 52220, Note_off_c, 0, 81, 100
2, 52224, Note_on_c, 0, 79, 80
2, 52224, Note_on_c, 0, 76, 80
2, 52604, Note_off_c, 0, 79, 100
2, 52604, Note_off_c, 0, 76, 100
2, 52608, Note_on_c, 0, 78, 80
2, 52608, Note_on_c, 0, 74, 80
2, 52988, Note_off_c, 0, 78, 100
2, 52988, Note_off_c, 0, 74, 100
2, 52992, Note_on_c, 0, 79, 80
2, 52992, Note_on_c, 0, 76, 80
2, 52992, Note_on_c, 0, 71, 80
2, 53372, Note_off_c, 0, 79, 100
2, 53372, Note_off_c, 0, 76, 100
2, 53372, Note_off_c, 0, 71, 100
2, 53376, Note_on_c, 0, 69, 80
2, 53376, Note_on_c, 0, 78, 80
2, 53376, Note_on_c, 0, 74, 80
2, 54140, Note_off_c, 0, 78, 100
2, 54140, Note_off_c, 0, 74, 100
2, 54144, Note_on_c, 0, 76, 85
2, 54144, Note_on_c, 0, 73, 82
2, 54524, Note_off_c, 0, 69, 100
2, 54524, Note_off_c, 0, 76, 100
2, 54524, Note_off_c, 0, 73, 100
2, 55296, Note_on_c, 0, 71, 80
2, 55680, Note_on_c, 0, 67, 82
2, 56060, Note_off_c, 0, 71, 100
2, 56064, Note_on_c, 0, 79, 84
2, 56444, Note_off_c, 0, 79, 100
2, 56448, Note_on_c, 0, 78, 86
2, 56828, Note_off_c, 0, 67, 100
2, 56828, Note_off_c, 0, 78, 100
2, 56832, Note_on_c, 0, 76, 88
2, 56832, Note_on_c, 0, 69, 88
2, 57212, Note_off_c, 0, 76, 100
2, 57216, Note_on_c, 0, 75, 90
2, 57596, Note_off_c, 0, 75, 100
2, 57600, Note_on_c, 0, 78, 92
2, 57980, Note_off_c, 0, 69, 100
2, 57980, Note_off_c, 0, 78, 100
2, 57984, Note_on_c, 0, 71, 95
2, 57984, Note_on_c, 0, 74, 95
2, 58364, Note_off_c, 0, 74, 100
2, 58368, Note_on_c, 0, 83, 97
2, 58748, Note_off_c, 0, 83, 100
2, 58752, Note_on_c, 0, 81, 99
2, 59132, Note_off_c, 0, 71, 100
2, 59132, Note_off_c, 0, 81, 100
2, 59136, Note_on_c, 0, 79, 101
2, 59136, Note_on_c, 0, 72, 101
2, 59516, Note_off_c, 0, 79, 100
2, 59520, Note_on_c, 0, 78, 103
2, 59900, Note_off_c, 0, 78, 100
2, 59904, Note_on_c, 0, 81, 105
2, 60284, Note_off_c, 0, 72, 100
2, 60284, Note_off_c, 0, 81, 100
2, 60288, Note_on_c, 0, 79, 107
2, 60672, Note_on_c, 0, 74, 110
2, 61052, Note_off_c, 0, 79, 100
2, 61056, Note_on_c, 0, 86, 110
2, 61440, Note_on_c, 0, 80, 110
2, 61820, Note_off_c, 0, 86, 100
2, 61824, Note_on_c, 0, 85, 110
2, 62204, Note_off_c, 0, 85, 100
2, 62208, Note_on_c, 0, 88, 110
2, 62588, Note_off_c, 0, 74, 100
2, 62588, Note_off_c, 0, 80, 100
2, 62588, Note_off_c, 0, 88, 100
2, 62592, Note_on_c, 0, 86, 80
2, 62592, Note_on_c, 0, 76, 80
2, 62972, Note_off_c, 0, 86, 100
2, 62976, Note_on_c, 0, 85, 80
2, 63356, Note_off_c, 0, 76, 100
2, 63356, Note_off_c, 0, 85, 100
2, 63360, Note_on_c, 0, 83, 80
2, 63360, Note_on_c, 0, 74, 80
2, 63740, Note_off_c, 0, 83, 100
2, 63740, Note_off_c, 0, 74, 100
2, 63744, Note_on_c, 0, 81, 80
2, 63744, Note_on_c, 0, 69, 80
2, 64124, Note_off_c, 0, 81, 100
2, 64128, Note_on_c, 0, 79, 80
2, 64508, Note_off_c, 0, 69, 100
2, 64508, Note_off_c, 0, 79, 100
2, 64512, Note_on_c, 0, 78, 80
2, 64512, Note_on_c, 0, 69, 80
2, 64892, Note_off_c, 0, 78, 100
2, 64892, Note_off_c, 0, 69, 100
2, 64896, Note_on_c, 0, 76, 80
2, 64896, Note_on_c, 0, 67, 80
2, 65276, Note_off_c, 0, 76, 100
2, 65276, Note_off_c, 0, 67, 100
2, 65280, Note_on_c, 0, 75, 80
2, 65280, Note_on_c, 0, 66, 80
2, 65660, Note_off_c, 0, 75, 100
2, 65660, Note_off_c, 0, 66, 100
2, 65664, Note_on_c, 0, 74, 80
2, 65664, Note_on_c, 0, 71, 80
2, 65664, Note_on_c, 0, 65, 80
2, 66044, Note_off_c, 0, 74, 100
2, 66044, Note_off_c, 0, 71, 100
2, 66044, Note_off_c, 0, 65, 100
2, 66048, Note_on_c, 0, 71, 80
2, 66048, Note_on_c, 0, 66, 80
2, 66048, Note_on_c, 0, 62, 80
2, 66428, Note_off_c, 0, 71, 100
2, 66432, Note_on_c, 0, 69, 80
2, 66812, Note_off_c, 0, 66, 100
2, 66812, Note_off_c, 0, 62, 100
2, 66812, Note_off_c, 0, 69, 100
2, 66816, Note_on_c, 0, 69, 80
2, 66816, Note_on_c, 0, 67, 80
2, 66816, Note_on_c, 0, 61, 80
2, 67196, Note_off_c, 0, 69, 100
2, 67196, Note_off_c, 0, 67, 100
2, 67196, Note_off_c, 0, 61, 100
2, 67200, Note_on_c, 0, 69, 80
2, 67200, Note_on_c, 0, 66, 80
2, 67200, Note_on_c, 0, 62, 80
2, 67964, Note_off_c, 0, 69, 100
2, 67964, Note_off_c, 0, 66, 100
2, 67964, Note_off_c, 0, 62, 100
2, 70272, Note_on_c, 0, 69, 70
2, 70272, Note_on_c, 0, 67, 70
2, 70272, Note_on_c, 0, 57, 70
2, 70652, Note_off_c, 0, 69, 100
2, 70652, Note_off_c, 0, 67, 100
2, 70652, Note_off_c, 0, 57, 100
2, 70656, Note_on_c, 0, 57, 70
2, 70656, Note_on_c, 0, 69, 70
2, 70656, Note_on_c, 0, 67, 70
2, 71036, Note_off_c, 0, 57, 100
2, 71036, Note_off_c, 0, 69, 100
2, 71040, Note_on_c, 0, 71, 70
2, 71040, Note_on_c, 0, 59, 70
2, 71420, Note_off_c, 0, 67, 100
2, 71420, Note_off_c, 0, 71, 100
2, 71420, Note_off_c, 0, 59, 100
2, 71424, Note_on_c, 0, 69, 70
2, 71424, Note_on_c, 0, 67, 70
2, 71424, Note_on_c, 0, 57, 70
2, 71804, Note_off_c, 0, 69, 100
2, 71804, Note_off_c, 0, 67, 100
2, 71804, Note_off_c, 0, 57, 100
2, 71808, Note_on_c, 0, 69, 70
2, 71808, Note_on_c, 0, 66, 70
2, 71808, Note_on_c, 0, 57, 70
2, 72572, Note_off_c, 0, 69, 100
2, 72572, Note_off_c, 0, 66, 100
2, 72572, Note_off_c, 0, 57, 100
2, 74880, Note_on_c, 0, 69, 70
2, 74880, Note_on_c, 0, 67, 70
2, 74880, Note_on_c, 0, 57, 70
2, 75260, Note_off_c, 0, 69, 100
2, 75260, Note_off_c, 0, 67, 100
2, 75260, Note_off_c, 0, 57, 100
2, 75264, Note_on_c, 0, 57, 70
2, 75264, Note_on_c, 0, 69, 70
2, 75264, Note_on_c, 0, 67, 70
2, 75644, Note_off_c, 0, 57, 100
2, 75644, Note_off_c, 0, 69, 100
2, 75648, Note_on_c, 0, 70, 70
2, 75648, Note_on_c, 0, 58, 70
2, 76028, Note_off_c, 0, 67, 100
2, 76028, Note_off_c, 0, 70, 100
2, 76028, Note_off_c, 0, 58, 100
2, 76032, Note_on_c, 0, 69, 70
2, 76032, Note_on_c, 0, 67, 70
2, 76032, Note_on_c, 0, 57, 70
2, 76412, Note_off_c, 0, 69, 100
2, 76412, Note_off_c, 0, 67, 100
2, 76412, Note_off_c, 0, 57, 100
2, 76416, Note_on_c, 0, 66, 70
2, 76416, Note_on_c, 0, 69, 70
2, 76416, Note_on_c, 0, 57, 70
2, 76796, Note_off_c, 0, 69, 100
2, 76796, Note_off_c, 0, 57, 100
2, 76800, Note_on_c, 0, 68, 70
2, 76800, Note_on_c, 0, 56, 70
2, 77180, Note_off_c, 0, 66, 100
2, 77180, Note_off_c, 0, 68, 100
2, 77180, Note_off_c, 0, 56, 100
2, 77184, Note_on_c, 0, 69, 70
2, 77184, Note_on_c, 0, 66, 70
2, 77184, Note_on_c, 0, 57, 70
2, 77564, Note_off_c, 0, 69, 100
2, 77564, Note_off_c, 0, 66, 100
2, 77564, Note_off_c, 0, 57, 100
2, 77568, Note_on_c, 0, 67, 70
2, 77568, Note_on_c, 0, 69, 70
2, 77568, Note_on_c, 0, 57, 70
2, 77948, Note_off_c, 0, 69, 100
2, 77948, Note_off_c, 0, 57, 100
2, 77952, Note_on_c, 0, 71, 70
2, 77952, Note_on_c, 0, 59, 70
2, 78332, Note_off_c, 0, 67, 100
2, 78332, Note_off_c, 0, 71, 100
2, 78332, Note_off_c, 0, 59, 100
2, 78336, Note_on_c, 0, 69, 70
2, 78336, Note_on_c, 0, 67, 70
2, 78336, Note_on_c, 0, 57, 70
2, 78716, Note_off_c, 0, 69, 100
2, 78716, Note_off_c, 0, 67, 100
2, 78716, Note_off_c, 0, 57, 100
2, 78720, Note_on_c, 0, 67, 70
2, 78720, Note_on_c, 0, 69, 70
2, 78720, Note_on_c, 0, 57, 70
2, 79868, Note_off_c, 0, 67, 100
2, 79872, Note_on_c, 0, 66, 70
2, 80252, Note_off_c, 0, 57, 100
2, 80252, Note_off_c, 0, 69, 100
2, 80252, Note_off_c, 0, 66, 100
2, 83328, Note_on_c, 0, 59, 101
2, 84092, Note_off_c, 0, 59, 100
2, 84096, Note_on_c, 0, 58, 80
2, 84284, Note_off_c, 0, 58, 100
2, 84288, Note_on_c, 0, 59, 80
2, 84476, Note_off_c, 0, 59, 100
2, 84480, Note_on_c, 0, 61, 80
2, 84668, Note_off_c, 0, 61, 100
2, 84672, Note_on_c, 0, 59, 80
2, 84860, Note_off_c, 0, 59, 100
2, 84864, Note_on_c, 0, 57, 80
2, 85052, Note_off_c, 0, 57, 100
2, 85056, Note_on_c, 0, 56, 80
2, 85244, Note_off_c, 0, 56, 100
2, 85248, Note_on_c, 0, 54, 80
2, 85436, Note_off_c, 0, 54, 100
2, 85440, Note_on_c, 0, 59, 80
2, 85628, Note_off_c, 0, 59, 100
2, 85632, Note_on_c, 0, 76, 100
2, 86396, Note_off_c, 0, 76, 100
2, 86400, Note_on_c, 0, 75, 80
2, 86588, Note_off_c, 0, 75, 100
2, 86592, Note_on_c, 0, 76, 80
2, 86780, Note_off_c, 0, 76, 100
2, 86784, Note_on_c, 0, 78, 80
2, 86972, Note_off_c, 0, 78, 100
2, 86976, Note_on_c, 0, 76, 80
2, 87164, Note_off_c, 0, 76, 100
2, 87168, Note_on_c, 0, 74, 80
2, 87356, Note_off_c, 0, 74, 100
2, 87360, Note_on_c, 0, 73, 80
2, 87548, Note_off_c, 0, 73, 100
2, 87552, Note_on_c, 0, 71, 80
2, 87740, Note_off_c, 0, 71, 100
2, 87744, Note_on_c, 0, 76, 80
2, 87932, Note_off_c, 0, 76, 100
2, 87936, Note_on_c, 0, 73, 80
2, 88316, Note_off_c, 0, 73, 100
2, 88320, Note_on_c, 0, 81, 100
2, 88700, Note_off_c, 0, 81, 100
2, 88704, Note_on_c, 0, 81, 100
2, 89084, Note_off_c, 0, 81, 100
2, 89088, Note_on_c, 0, 81, 100
2, 89468, Note_off_c, 0, 81, 100
2, 89472, Note_on_c, 0, 81, 100
2, 89852, Note_off_c, 0, 81, 100
2, 89856, Note_on_c, 0, 81, 100
2, 90236, Note_off_c, 0, 81, 100
2, 90240, Note_on_c, 0, 81, 80
2, 90336, Note_on_c, 0, 83, 80
2, 90428, Note_off_c, 0, 81, 100
2, 90432, Note_on_c, 0, 81, 80
2, 90524, Note_off_c, 0, 83, 100
2, 90528, Note_on_c, 0, 83, 80
2, 90620, Note_off_c, 0, 81, 100
2, 90624, Note_on_c, 0, 81, 80
2, 90624, Note_on_c, 0, 78, 80
2, 90716, Note_off_c, 0, 83, 100
2, 90720, Note_on_c, 0, 83, 80
2, 90812, Note_off_c, 0, 81, 100
2, 90816, Note_on_c, 0, 81, 80
2, 90908, Note_off_c, 0, 83, 100
2, 90912, Note_on_c, 0, 83, 80
2, 91004, Note_off_c, 0, 78, 100
2, 91004, Note_off_c, 0, 81, 100
2, 91008, Note_on_c, 0, 81, 80
2, 91008, Note_on_c, 0, 76, 80
2, 91100, Note_off_c, 0, 83, 100
2, 91104, Note_on_c, 0, 83, 80
2, 91196, Note_off_c, 0, 81, 100
2, 91200, Note_on_c, 0, 81, 80
2, 91292, Note_off_c, 0, 83, 100
2, 91296, Note_on_c, 0, 83, 80
2, 91388, Note_off_c, 0, 76, 100
2, 91388, Note_off_c, 0, 81, 100
2, 91392, Note_on_c, 0, 81, 80
2, 91484, Note_off_c, 0, 83, 100
2, 91488, Note_on_c, 0, 83, 80
2, 91580, Note_off_c, 0, 81, 100
2, 91584, Note_on_c, 0, 81, 80
2, 91676, Note_off_c, 0, 83, 100
2, 91680, Note_on_c, 0, 83, 80
2, 91772, Note_off_c, 0, 81, 100
2, 91776, Note_on_c, 0, 81, 80
2, 91868, Note_off_c, 0, 83, 100
2, 91872, Note_on_c, 0, 83, 80
2, 91964, Note_off_c, 0, 81, 100
2, 91968, Note_on_c, 0, 81, 80
2, 92060, Note_off_c, 0, 83, 100
2, 92064, Note_on_c, 0, 83, 80
2, 92156, Note_off_c, 0, 81, 100
2, 92160, Note_on_c, 0, 81, 80
2, 92252, Note_off_c, 0, 83, 100
2, 92256, Note_on_c, 0, 83, 80
2, 92348, Note_off_c, 0, 81, 100
2, 92352, Note_on_c, 0, 81, 80
2, 92444, Note_off_c, 0, 83, 100
2, 92448, Note_on_c, 0, 83, 80
2, 92540, Note_off_c, 0, 81, 100
2, 92544, Note_on_c, 0, 81, 80
2, 92636, Note_off_c, 0, 83, 100
2, 92640, Note_on_c, 0, 83, 81
2, 92732, Note_off_c, 0, 81, 100
2, 92736, Note_on_c, 0, 81, 82
2, 92828, Note_off_c, 0, 83, 100
2, 92832, Note_on_c, 0, 83, 84
2, 92924, Note_off_c, 0, 81, 100
2, 92928, Note_on_c, 0, 81, 85
2, 93020, Note_off_c, 0, 83, 100
2, 93024, Note_on_c, 0, 83, 86
2, 93116, Note_off_c, 0, 81, 100
2, 93120, Note_on_c, 0, 81, 88
2, 93212, Note_off_c, 0, 83, 100
2, 93216, Note_on_c, 0, 83, 89
2, 93308, Note_off_c, 0, 81, 100
2, 93312, Note_on_c, 0, 81, 90
2, 93404, Note_off_c, 0, 83, 100
2, 93408, Note_on_c, 0, 83, 92
2, 93500, Note_off_c, 0, 81, 100
2, 93504, Note_on_c, 0, 81, 93
2, 93596, Note_off_c, 0, 83, 100
2, 93600, Note_on_c, 0, 83, 94
2, 93692, Note_off_c, 0, 81, 100
2, 93696, Note_on_c, 0, 81, 96
2, 93788, Note_off_c, 0, 83, 100
2, 93792, Note_on_c, 0, 83, 97
2, 93884, Note_off_c, 0, 81, 100
2, 93888, Note_on_c, 0, 81, 99
2, 93980, Note_off_c, 0, 83, 100
2, 93984, Note_on_c, 0, 83, 100
2, 94076, Note_off_c, 0, 81, 100
2, 94080, Note_on_c, 0, 82, 101
2, 94172, Note_off_c, 0, 83, 100
2, 94176, Note_on_c, 0, 83, 103
2, 94268, Note_off_c, 0, 82, 100
2, 94272, Note_on_c, 0, 82, 104
2, 94364, Note_off_c, 0, 83, 100
2, 94368, Note_on_c, 0, 83, 105
2, 94460, Note_off_c, 0, 82, 100
2, 94464, Note_on_c, 0, 81, 107
2, 94556, Note_off_c, 0, 83, 100
2, 94560, Note_on_c, 0, 82, 108
2, 94652, Note_off_c, 0, 81, 100
2, 94656, Note_on_c, 0, 83, 109
2, 94748, Note_off_c, 0, 82, 100
2, 94844, Note_off_c, 0, 83, 100
2, 94848, Note_on_c, 0, 81, 80
2, 95228, Note_off_c, 0, 81, 100
2, 95232, Note_on_c, 0, 79, 80
2, 95612, Note_off_c, 0, 79, 100
2, 95616, Note_on_c, 0, 81, 80
2, 95996, Note_off_c, 0, 81, 100
2, 96000, Note_on_c, 0, 79, 80
2, 96000, Note_on_c, 0, 76, 80
2, 96380, Note_off_c, 0, 79, 100
2, 96380, Note_off_c, 0, 76, 100
2, 96384, Note_on_c, 0, 78, 80
2, 96384, Note_on_c, 0, 74, 80
2, 96764, Note_off_c, 0, 78, 100
2, 96764, Note_off_c, 0, 74, 100
2, 96768, Note_on_c, 0, 79, 80
2, 96768, Note_on_c, 0, 76, 80
2, 96768, Note_on_c, 0, 71, 80
2, 97148, Note_off_c, 0, 79, 100
2, 97148, Note_off_c, 0, 76, 100
2, 97148, Note_off_c, 0, 71, 100
2, 97152, Note_on_c, 0, 69, 80
2, 97152, Note_on_c, 0, 78, 80
2, 97152, Note_on_c, 0, 74, 80
2, 97916, Note_off_c, 0, 78, 100
2, 97916, Note_off_c, 0, 74, 100
2, 97920, Note_on_c, 0, 76, 80
2, 97920, Note_on_c, 0, 73, 80
2, 98300, Note_off_c, 0, 69, 100
2, 98300, Note_off_c, 0, 76, 100
2, 98300, Note_off_c, 0, 73, 100
2, 99072, Note_on_c, 0, 71, 80
2, 99456, Note_on_c, 0, 67, 80
2, 99836, Note_off_c, 0, 71, 100
2, 99840, Note_on_c, 0, 79, 80
2, 100220, Note_off_c, 0, 79, 100
2, 100224, Note_on_c, 0, 78, 80
2, 100604, Note_off_c, 0, 67, 100
2, 100604, Note_off_c, 0, 78, 100
2, 100608, Note_on_c, 0, 76, 80
2, 100608, Note_on_c, 0, 69, 80
2, 100988, Note_off_c, 0, 76, 100
2, 100992, Note_on_c, 0, 75, 80
2, 101372, Note_off_c, 0, 75, 100
2, 101376, Note_on_c, 0, 78, 80
2, 101756, Note_off_c, 0, 69, 100
2, 101756, Note_off_c, 0, 78, 100
2, 101760, Note_on_c, 0, 71, 80
2, 101760, Note_on_c, 0, 74, 80
2, 102140, Note_off_c, 0, 74, 100
2, 102144, Note_on_c, 0, 83, 82
2, 102524, Note_off_c, 0, 83, 100
2, 102528, Note_on_c, 0, 81, 85
2, 102908, Note_off_c, 0, 71, 100
2, 102908, Note_off_c, 0, 81, 100
2, 102912, Note_on_c, 0, 79, 88
2, 102912, Note_on_c, 0, 72, 88
2, 103292, Note_off_c, 0, 79, 100
2, 103296, Note_on_c, 0, 78, 90
2, 103676, Note_off_c, 0, 78, 100
2, 103680, Note_on_c, 0, 81, 93
2, 104060, Note_off_c, 0, 72, 100
2, 104060, Note_off_c, 0, 81, 100
2, 104064, Note_on_c, 0, 79, 96
2, 104448, Note_on_c, 0, 74, 99
2, 104828, Note_off_c, 0, 79, 100
2, 104832, Note_on_c, 0, 86, 101
2, 105216, Note_on_c, 0, 80, 104
2, 105596, Note_off_c, 0, 86, 100
2, 105600, Note_on_c, 0, 85, 107
2, 105980, Note_off_c, 0, 85, 100
2, 105984, Note_on_c, 0, 88, 109
2, 106364, Note_off_c, 0, 74, 100
2, 106364, Note_off_c, 0, 80, 100
2, 106364, Note_off_c, 0, 88, 100
2, 106368, Note_on_c, 0, 86, 90
2, 106368, Note_on_c, 0, 76, 94
2, 106748, Note_off_c, 0, 86, 100
2, 106752, Note_on_c, 0, 85, 80
2, 107132, Note_off_c, 0, 76, 100
2, 107132, Note_off_c, 0, 85, 100
2, 107136, Note_on_c, 0, 83, 80
2, 107136, Note_on_c, 0, 74, 80
2, 107516, Note_off_c, 0, 83, 100
2, 107516, Note_off_c, 0, 74, 100
2, 107520, Note_on_c, 0, 81, 80
2, 107520, Note_on_c, 0, 69, 80
2, 107900, Note_off_c, 0, 81, 100
2, 107904, Note_on_c, 0, 79, 80
2, 108284, Note_off_c, 0, 69, 100
2, 108284, Note_off_c, 0, 79, 100
2, 108288, Note_on_c, 0, 78, 80
2, 108288, Note_on_c, 0, 69, 80
2, 108668, Note_off_c, 0, 78, 100
2, 108668, Note_off_c, 0, 69, 100
2, 108672, Note_on_c, 0, 76, 80
2, 108672, Note_on_c, 0, 67, 80
2, 109052, Note_off_c, 0, 76, 100
2, 109052, Note_off_c, 0, 67, 100
2, 109056, Note_on_c, 0, 75, 80
2, 109056, Note_on_c, 0, 66, 80
2, 109436, Note_off_c, 0, 75, 100
2, 109436, Note_off_c, 0, 66, 100
2, 109440, Note_on_c, 0, 74, 80
2, 109440, Note_on_c, 0, 71, 80
2, 109440, Note_on_c, 0, 65, 80
2, 109820, Note_off_c, 0, 74, 100
2, 109820, Note_off_c, 0, 71, 100
2, 109820, Note_off_c, 0, 65, 100
2, 109824, Note_on_c, 0, 71, 80
2, 109824, Note_on_c, 0, 66, 80
2, 109824, Note_on_c, 0, 62, 80
2, 110204, Note_off_c, 0, 71, 100
2, 110208, Note_on_c, 0, 69, 80
2, 110588, Note_off_c, 0, 66, 100
2, 110588, Note_off_c, 0, 62, 100
2, 110588, Note_off_c, 0, 69, 100
2, 110592, Note_on_c, 0, 69, 80
2, 110592, Note_on_c, 0, 67, 80
2, 110592, Note_on_c, 0, 61, 80
2, 110972, Note_off_c, 0, 69, 100
2, 110972, Note_off_c, 0, 67, 100
2, 110972, Note_off_c, 0, 61, 100
2, 110976, Note_on_c, 0, 69, 80
2, 110976, Note_on_c, 0, 66, 80
2, 110976, Note_on_c, 0, 62, 80
2, 111740, Note_off_c, 0, 69, 100
2, 111740, Note_off_c, 0, 66, 100
2, 111740, Note_off_c, 0, 62, 100
2, 114048, Note_on_c, 0, 69, 70
2, 114048, Note_on_c, 0, 67, 70
2, 114048, Note_on_c, 0, 57, 70
2, 114428, Note_off_c, 0, 69, 100
2, 114428, Note_off_c, 0, 67, 100
2, 114428, Note_off_c, 0, 57, 100
2, 114432, Note_on_c, 0, 57, 70
2, 114432, Note_on_c, 0, 69, 70
2, 114432, Note_on_c, 0, 67, 70
2, 114812, Note_off_c, 0, 57, 100
2, 114812, Note_off_c, 0, 69, 100
2, 114816, Note_on_c, 0, 71, 70
2, 114816, Note_on_c, 0, 59, 70
2, 115196, Note_off_c, 0, 67, 100
2, 115196, Note_off_c, 0, 71, 100
2, 115196, Note_off_c, 0, 59, 100
2, 115200, Note_on_c, 0, 69, 70
2, 115200, Note_on_c, 0, 67, 70
2, 115200, Note_on_c, 0, 57, 70
2, 115580, Note_off_c, 0, 69, 100
2, 115580, Note_off_c, 0, 67, 100
2, 115580, Note_off_c, 0, 57, 100
2, 115584, Note_on_c, 0, 69, 70
2, 115584, Note_on_c, 0, 66, 70
2, 115584, Note_on_c, 0, 57, 70
2, 116348, Note_off_c, 0, 69, 100
2, 116348, Note_off_c, 0, 66, 100
2, 116348, Note_off_c, 0, 57, 100
2, 118656, Note_on_c, 0, 69, 70
2, 118656, Note_on_c, 0, 67, 70
2, 118656, Note_on_c, 0, 57, 70
2, 119036, Note_off_c, 0, 69, 100
2, 119036, Note_off_c, 0, 67, 100
2, 119036, Note_off_c, 0, 57, 100
2, 119040, Note_on_c, 0, 57, 70
2, 119040, Note_on_c, 0, 69, 70
2, 119040, Note_on_c, 0, 67, 70
2, 119420, Note_off_c, 0, 57, 100
2, 119420, Note_off_c, 0, 69, 100
2, 119424, Note_on_c, 0, 70, 70
2, 119424, Note_on_c, 0, 58, 70
2, 119804, Note_off_c, 0, 67, 100
2, 119804, Note_off_c, 0, 70, 100
2, 119804, Note_off_c, 0, 58, 100
2, 119808, Note_on_c, 0, 69, 70
2, 119808, Note_on_c, 0, 67, 70
2, 119808, Note_on_c, 0, 57, 70
2, 120188, Note_off_c, 0, 69, 100
2, 120188, Note_off_c, 0, 67, 100
2, 120188, Note_off_c, 0, 57, 100
2, 120192, Note_on_c, 0, 66, 70
2, 120192, Note_on_c, 0, 69, 70
2, 120192, Note_on_c, 0, 57, 70
2, 120572, Note_off_c, 0, 69, 100
2, 120572, Note_off_c, 0, 57, 100
2, 120576, Note_on_c, 0, 68, 70
2, 120576, Note_on_c, 0, 56, 70
2, 120956, Note_off_c, 0, 66, 100
2, 120956, Note_off_c, 0, 68, 100
2, 120956, Note_off_c, 0, 56, 100
2, 120960, Note_on_c, 0, 69, 70
2, 120960, Note_on_c, 0, 66, 70
2, 120960, Note_on_c, 0, 57, 70
2, 121340, Note_off_c, 0, 69, 100
2, 121340, Note_off_c, 0, 66, 100
2, 121340, Note_off_c, 0, 57, 100
2, 121344, Note_on_c, 0, 67, 70
2, 121344, Note_on_c, 0, 69, 70
2, 121344, Note_on_c, 0, 57, 70
2, 121724, Note_off_c, 0, 69, 100
2, 121724, Note_off_c, 0, 57, 100
2, 121728, Note_on_c, 0, 71, 70
2, 121728, Note_on_c, 0, 59, 70
2, 122108, Note_off_c, 0, 67, 100
2, 122108, Note_off_c, 0, 71, 100
2, 122108, Note_off_c, 0, 59, 100
2, 122112, Note_on_c, 0, 69, 70
2, 122112, Note_on_c, 0, 67, 70
2, 122112, Note_on_c, 0, 57, 70
2, 122492, Note_off_c, 0, 69, 100
2, 122492, Note_off_c, 0, 67, 100
2, 122492, Note_off_c, 0, 57, 100
2, 122496, Note_on_c, 0, 67, 70
2, 122496, Note_on_c, 0, 69, 70
2, 122496, Note_on_c, 0, 57, 70
2, 123644, Note_off_c, 0, 67, 100
2, 123648, Note_on_c, 0, 66, 70
2, 124028, Note_off_c, 0, 57, 100
2, 124028, Note_off_c, 0, 69, 100
2, 124028, Note_off_c, 0, 66, 100
2, 124416, Note_on_c, 0, 55, 80
2, 124544, Note_on_c, 0, 59, 80
2, 124580, Note_off_c, 0, 55, 100
2, 124672, Note_on_c, 0, 62, 80
2, 124724, Note_off_c, 0, 59, 100
2, 124800, Key_signature, 1, "major"
2, 124800, Note_on_c, 0, 55, 80
2, 124848, Note_off_c, 0, 62, 100
2, 124928, Note_on_c, 0, 59, 80
2, 124976, Note_off_c, 0, 55, 100
2, 125056, Note_on_c, 0, 62, 80
2, 125112, Note_off_c, 0, 59, 100
2, 125184, Note_on_c, 0, 55, 80
2, 125240, Note_off_c, 0, 62, 100
2, 125312, Note_on_c, 0, 59, 80
2, 125352, Note_off_c, 0, 55, 100
2, 125440, Note_on_c, 0, 62, 80
2, 125480, Note_off_c, 0, 59, 100
2, 125568, Note_on_c, 0, 55, 80
2, 125616, Note_off_c, 0, 62, 100
2, 125696, Note_on_c, 0, 59, 80
2, 125736, Note_off_c, 0, 55, 100
2, 125824, Note_on_c, 0, 62, 80
2, 125868, Note_off_c, 0, 59, 100
2, 125952, Note_on_c, 0, 55, 80
2, 125996, Note_off_c, 0, 62, 100
2, 126080, Note_on_c, 0, 59, 80
2, 126124, Note_off_c, 0, 55, 100
2, 126208, Note_on_c, 0, 62, 80
2, 126252, Note_off_c, 0, 59, 100
2, 126336, Note_on_c, 0, 55, 80
2, 126380, Note_off_c, 0, 62, 100
2, 126464, Note_on_c, 0, 59, 80
2, 126500, Note_off_c, 0, 55, 100
2, 126592, Note_on_c, 0, 62, 80
2, 126632, Note_off_c, 0, 59, 100
2, 126720, Note_on_c, 0, 55, 80
2, 126764, Note_off_c, 0, 62, 100
2, 126848, Note_on_c, 0, 59, 80
2, 126892, Note_off_c, 0, 55, 100
2, 126976, Note_on_c, 0, 62, 80
2, 127024, Note_off_c, 0, 59, 100
2, 127104, Note_on_c, 0, 57, 80
2, 127152, Note_off_c, 0, 62, 100
2, 127232, Note_on_c, 0, 60, 80
2, 127280, Note_off_c, 0, 57, 100
2, 127360, Note_on_c, 0, 62, 80
2, 127400, Note_off_c, 0, 60, 100
2, 127488, Note_on_c, 0, 57, 80
2, 127524, Note_off_c, 0, 62, 100
2, 127616, Note_on_c, 0, 60, 80
2, 127660, Note_off_c, 0, 57, 100
2, 127744, Note_on_c, 0, 62, 80
2, 127792, Note_off_c, 0, 60, 100
2, 127872, Note_on_c, 0, 57, 80
2, 127916, Note_off_c, 0, 62, 100
2, 128000, Note_on_c, 0, 60, 80
2, 128048, Note_off_c, 0, 57, 100
2, 128128, Note_on_c, 0, 62, 80
2, 128184, Note_off_c, 0, 60, 100
2, 128256, Note_on_c, 0, 57, 80
2, 128300, Note_off_c, 0, 62, 100
2, 128384, Note_on_c, 0, 60, 80
2, 128444, Note_off_c, 0, 57, 100
2, 128512, Note_on_c, 0, 62, 80
2, 128556, Note_off_c, 0, 60, 100
2, 128640, Note_on_c, 0, 57, 80
2, 128680, Note_off_c, 0, 62, 100
2, 128768, Note_on_c, 0, 60, 80
2, 128812, Note_off_c, 0, 57, 100
2, 128896, Note_on_c, 0, 62, 80
2, 128940, Note_off_c, 0, 60, 100
2, 129024, Note_on_c, 0, 57, 80
2, 129068, Note_off_c, 0, 62, 100
2, 129152, Note_on_c, 0, 60, 80
2, 129200, Note_off_c, 0, 57, 100
2, 129280, Note_on_c, 0, 62, 80
2, 129328, Note_off_c, 0, 60, 100
2, 129408, Note_on_c, 0, 54, 80
2, 129460, Note_off_c, 0, 62, 100
2, 129536, Note_on_c, 0, 57, 80
2, 129584, Note_off_c, 0, 54, 100
2, 129664, Note_on_c, 0, 62, 80
2, 129716, Note_off_c, 0, 57, 100
2, 129792, Note_on_c, 0, 54, 80
2, 129844, Note_off_c, 0, 62, 100
2, 129920, Note_on_c, 0, 57, 80
2, 129972, Note_off_c, 0, 54, 100
2, 130048, Note_on_c, 0, 62, 80
2, 130100, Note_off_c, 0, 57, 100
2, 130176, Note_on_c, 0, 54, 80
2, 130224, Note_off_c, 0, 62, 100
2, 130304, Note_on_c, 0, 57, 80
2, 130352, Note_off_c, 0, 54, 100
2, 130432, Note_on_c, 0, 62, 80
2, 130476, Note_off_c, 0, 57, 100
2, 130560, Note_on_c, 0, 54, 80
2, 130596, Note_off_c, 0, 62, 100
2, 130688, Note_on_c, 0, 57, 80
2, 130740, Note_off_c, 0, 54, 100
2, 130816, Note_on_c, 0, 62, 80
2, 130864, Note_off_c, 0, 57, 100
2, 130944, Note_on_c, 0, 54, 80
2, 131004, Note_off_c, 0, 62, 100
2, 131072, Note_on_c, 0, 57, 80
2, 131128, Note_off_c, 0, 54, 100
2, 131200, Note_on_c, 0, 62, 80
2, 131248, Note_off_c, 0, 57, 100
2, 131328, Note_on_c, 0, 54, 80
2, 131380, Note_off_c, 0, 62, 100
2, 131456, Note_on_c, 0, 57, 80
2, 131508, Note_off_c, 0, 54, 100
2, 131584, Note_on_c, 0, 62, 80
2, 131632, Note_off_c, 0, 57, 100
2, 131712, Note_on_c, 0, 55, 80
2, 131760, Note_off_c, 0, 62, 100
2, 131840, Note_on_c, 0, 59, 80
2, 131896, Note_off_c, 0, 55, 100
2, 131968, Note_on_c, 0, 62, 80
2, 132004, Note_off_c, 0, 59, 100
2, 132096, Note_on_c, 0, 55, 80
2, 132140, Note_off_c, 0, 62, 100
2, 132224, Note_on_c, 0, 59, 80
2, 132260, Note_off_c, 0, 55, 100
2, 132352, Note_on_c, 0, 62, 80
2, 132388, Note_off_c, 0, 59, 100
2, 132480, Note_on_c, 0, 55, 80
2, 132520, Note_off_c, 0, 62, 100
2, 132608, Note_on_c, 0, 59, 80
2, 132644, Note_off_c, 0, 55, 100
2, 132736, Note_on_c, 0, 62, 80
2, 132772, Note_off_c, 0, 59, 100
2, 132864, Note_on_c, 0, 55, 80
2, 132904, Note_off_c, 0, 62, 100
2, 132992, Note_on_c, 0, 59, 80
2, 133036, Note_off_c, 0, 55, 100
2, 133120, Note_on_c, 0, 62, 80
2, 133164, Note_off_c, 0, 59, 100
2, 133248, Note_on_c, 0, 55, 80
2, 133284, Note_off_c, 0, 62, 100
2, 133376, Note_on_c, 0, 59, 80
2, 133432, Note_off_c, 0, 55, 100
2, 133504, Note_on_c, 0, 62, 80
2, 133556, Note_off_c, 0, 59, 100
2, 133632, Note_on_c, 0, 54, 80
2, 133688, Note_off_c, 0, 62, 100
2, 133760, Note_on_c, 0, 59, 80
2, 133812, Note_off_c, 0, 54, 100
2, 133888, Note_on_c, 0, 63, 80
2, 133940, Note_off_c, 0, 59, 100
2, 134016, Note_on_c, 0, 54, 80
2, 134060, Note_off_c, 0, 63, 100
2, 134144, Note_on_c, 0, 59, 80
2, 134192, Note_off_c, 0, 54, 100
2, 134272, Note_on_c, 0, 63, 80
2, 134320, Note_off_c, 0, 59, 100
2, 134400, Note_on_c, 0, 54, 80
2, 134444, Note_off_c, 0, 63, 100
2, 134528, Note_on_c, 0, 59, 80
2, 134572, Note_off_c, 0, 54, 100
2, 134656, Note_on_c, 0, 63, 80
2, 134704, Note_off_c, 0, 59, 100
2, 134784, Note_on_c, 0, 54, 80
2, 134832, Note_off_c, 0, 63, 100
2, 134912, Note_on_c, 0, 59, 80
2, 134956, Note_off_c, 0, 54, 100
2, 135040, Note_on_c, 0, 63, 80
2, 135084, Note_off_c, 0, 59, 100
2, 135168, Note_on_c, 0, 54, 80
2, 135212, Note_off_c, 0, 63, 100
2, 135296, Note_on_c, 0, 59, 80
2, 135332, Note_off_c, 0, 54, 100
2, 135424, Note_on_c, 0, 63, 80
2, 135468, Note_off_c, 0, 59, 100
2, 135552, Note_on_c, 0, 54, 80
2, 135592, Note_off_c, 0, 63, 100
2, 135680, Note_on_c, 0, 59, 80
2, 135724, Note_off_c, 0, 54, 100
2, 135808, Note_on_c, 0, 63, 80
2, 135856, Note_off_c, 0, 59, 100
2, 135936, Note_on_c, 0, 55, 80
2, 135976, Note_off_c, 0, 63, 100
2, 136064, Note_on_c, 0, 59, 80
2, 136104, Note_off_c, 0, 55, 100
2, 136192, Note_on_c, 0, 64, 80
2, 136240, Note_off_c, 0, 59, 100
2, 136320, Note_on_c, 0, 55, 80
2, 136372, Note_off_c, 0, 64, 100
2, 136448, Note_on_c, 0, 59, 80
2, 136488, Note_off_c, 0, 55, 100
2, 136576, Note_on_c, 0, 64, 80
2, 136620, Note_off_c, 0, 59, 100
2, 136704, Note_on_c, 0, 55, 80
2, 136748, Note_off_c, 0, 64, 100
2, 136832, Note_on_c, 0, 59, 80
2, 136876, Note_off_c, 0, 55, 100
2, 136960, Note_on_c, 0, 64, 80
2, 137004, Note_off_c, 0, 59, 100
2, 137088, Note_on_c, 0, 55, 80
2, 137132, Note_off_c, 0, 64, 100
2, 137216, Note_on_c, 0, 59, 80
2, 137252, Note_off_c, 0, 55, 100
2, 137344, Note_on_c, 0, 64, 80
2, 137380, Note_off_c, 0, 59, 100
2, 137472, Note_on_c, 0, 55, 80
2, 137520, Note_off_c, 0, 64, 100
2, 137600, Note_on_c, 0, 59, 80
2, 137640, Note_off_c, 0, 55, 100
2, 137728, Note_on_c, 0, 64, 80
2, 137776, Note_off_c, 0, 59, 100
2, 137856, Note_on_c, 0, 55, 80
2, 137900, Note_off_c, 0, 64, 100
2, 137984, Note_on_c, 0, 59, 80
2, 138028, Note_off_c, 0, 55, 100
2, 138112, Note_on_c, 0, 64, 80
2, 138152, Note_off_c, 0, 59, 100
2, 138240, Note_on_c, 0, 55, 80
2, 138284, Note_off_c, 0, 64, 100
2, 138368, Note_on_c, 0, 61, 80
2, 138416, Note_off_c, 0, 55, 100
2, 138496, Note_on_c, 0, 64, 80
2, 138544, Note_off_c, 0, 61, 100
2, 138624, Note_on_c, 0, 67, 110
2, 138668, Note_off_c, 0, 64, 100
2, 138752, Note_on_c, 0, 73, 110
2, 138792, Note_off_c, 0, 67, 100
2, 138880, Note_on_c, 0, 76, 110
2, 138920, Note_off_c, 0, 73, 100
2, 139008, Note_on_c, 0, 79, 110
2, 139048, Note_off_c, 0, 76, 100
2, 139196, Note_off_c, 0, 79, 100
2, 139200, Note_on_c, 0, 78, 110
2, 139388, Note_off_c, 0, 78, 100
2, 139392, Note_on_c, 0, 76, 110
2, 139580, Note_off_c, 0, 76, 100
2, 139584, Note_on_c, 0, 74, 110
2, 139772, Note_off_c, 0, 74, 100
2, 139776, Note_on_c, 0, 73, 110
2, 139964, Note_off_c, 0, 73, 100
2, 139968, Note_on_c, 0, 71, 110
2, 140156, Note_off_c, 0, 71, 100
2, 140160, Note_on_c, 0, 69, 110
2, 140348, Note_off_c, 0, 69, 100
2, 140352, Note_on_c, 0, 67, 110
2, 140540, Note_off_c, 0, 67, 100
2, 140544, Note_on_c, 0, 66, 110
2, 140732, Note_off_c, 0, 66, 100
2, 140736, Note_on_c, 0, 64, 110
2, 140924, Note_off_c, 0, 64, 100
2, 140928, Note_on_c, 0, 62, 102
2, 141116, Note_off_c, 0, 62, 100
2, 141120, Note_on_c, 0, 69, 80
2, 141308, Note_off_c, 0, 69, 100
2, 141312, Note_on_c, 0, 67, 80
2, 141500, Note_off_c, 0, 67, 100
2, 141504, Note_on_c, 0, 66, 80
2, 141692, Note_off_c, 0, 66, 100
2, 141696, Note_on_c, 0, 64, 80
2, 141884, Note_off_c, 0, 64, 100
2, 141888, Note_on_c, 0, 62, 80
2, 142076, Note_off_c, 0, 62, 100
2, 142080, Note_on_c, 0, 60, 80
2, 142268, Note_off_c, 0, 60, 100
2, 142272, Note_on_c, 0, 64, 80
2, 142460, Note_off_c, 0, 64, 100
2, 142464, Note_on_c, 0, 62, 80
2, 142652, Note_off_c, 0, 62, 100
2, 142656, Note_on_c, 0, 60, 80
2, 142844, Note_off_c, 0, 60, 100
2, 142848, Note_on_c, 0, 59, 80
2, 143036, Note_off_c, 0, 59, 100
2, 143040, Note_on_c, 0, 57, 80
2, 143228, Note_off_c, 0, 57, 100
2, 143232, Note_on_c, 0, 55, 80
2, 143360, Note_on_c, 0, 59, 80
2, 143400, Note_off_c, 0, 55, 100
2, 143488, Note_on_c, 0, 62, 80
2, 143536, Note_off_c, 0, 59, 100
2, 143616, Note_on_c, 0, 55, 80
2, 143664, Note_off_c, 0, 62, 100
2, 143744, Note_on_c, 0, 59, 80
2, 143792, Note_off_c, 0, 55, 100
2, 143872, Note_on_c, 0, 62, 80
2, 143920, Note_off_c, 0, 59, 100
2, 144000, Note_on_c, 0, 55, 80
2, 144048, Note_off_c, 0, 62, 100
2, 144128, Note_on_c, 0, 59, 80
2, 144168, Note_off_c, 0, 55, 100
2, 144256, Note_on_c, 0, 62, 80
2, 144300, Note_off_c, 0, 59, 100
2, 144384, Note_on_c, 0, 55, 80
2, 144424, Note_off_c, 0, 62, 100
2, 144512, Note_on_c, 0, 59, 80
2, 144548, Note_off_c, 0, 55, 100
2, 144640, Note_on_c, 0, 62, 80
2, 144680, Note_off_c, 0, 59, 100
2, 144768, Note_on_c, 0, 55, 80
2, 144812, Note_off_c, 0, 62, 100
2, 144896, Note_on_c, 0, 59, 80
2, 144936, Note_off_c, 0, 55, 100
2, 145024, Note_on_c, 0, 62, 80
2, 145076, Note_off_c, 0, 59, 100
2, 145152, Note_on_c, 0, 55, 80
2, 145200, Note_off_c, 0, 62, 100
2, 145280, Note_on_c, 0, 59, 80
2, 145320, Note_off_c, 0, 55, 100
2, 145408, Note_on_c, 0, 62, 80
2, 145456, Note_off_c, 0, 59, 100
2, 145536, Note_on_c, 0, 57, 80
2, 145588, Note_off_c, 0, 62, 100
2, 145664, Note_on_c, 0, 60, 80
2, 145708, Note_off_c, 0, 57, 100
2, 145792, Note_on_c, 0, 62, 80
2, 145832, Note_off_c, 0, 60, 100
2, 145920, Note_on_c, 0, 57, 80
2, 145964, Note_off_c, 0, 62, 100
2, 146048, Note_on_c, 0, 60, 80
2, 146108, Note_off_c, 0, 57, 100
2, 146176, Note_on_c, 0, 62, 80
2, 146232, Note_off_c, 0, 60, 100
2, 146304, Note_on_c, 0, 57, 80
2, 146356, Note_off_c, 0, 62, 100
2, 146432, Note_on_c, 0, 60, 80
2, 146480, Note_off_c, 0, 57, 100
2, 146560, Note_on_c, 0, 62, 80
2, 146616, Note_off_c, 0, 60, 100
2, 146688, Note_on_c, 0, 57, 80
2, 146736, Note_off_c, 0, 62, 100
2, 146816, Note_on_c, 0, 60, 80
2, 146864, Note_off_c, 0, 57, 100
2, 146944, Note_on_c, 0, 62, 80
2, 146996, Note_off_c, 0, 60, 100
2, 147072, Note_on_c, 0, 57, 80
2, 147120, Note_off_c, 0, 62, 100
2, 147200, Note_on_c, 0, 60, 80
2, 147256, Note_off_c, 0, 57, 100
2, 147328, Note_on_c, 0, 62, 80
2, 147384, Note_off_c, 0, 60, 100
2, 147456, Note_on_c, 0, 57, 80
2, 147512, Note_off_c, 0, 62, 100
2, 147584, Note_on_c, 0, 60, 80
2, 147640, Note_off_c, 0, 57, 100
2, 147712, Note_on_c, 0, 62, 80
2, 147768, Note_off_c, 0, 60, 100
2, 147840, Note_on_c, 0, 54, 80
2, 147888, Note_off_c, 0, 62, 100
2, 147968, Note_on_c, 0, 57, 80
2, 148016, Note_off_c, 0, 54, 100
2, 148096, Note_on_c, 0, 62, 80
2, 148148, Note_off_c, 0, 57, 100
2, 148224, Note_on_c, 0, 54, 80
2, 148284, Note_off_c, 0, 62, 100
2, 148352, Note_on_c, 0, 57, 80
2, 148392, Note_off_c, 0, 54, 100
2, 148480, Note_on_c, 0, 62, 80
2, 148532, Note_off_c, 0, 57, 100
2, 148608, Note_on_c, 0, 54, 80
2, 148664, Note_off_c, 0, 62, 100
2, 148736, Note_on_c, 0, 57, 80
2, 148788, Note_off_c, 0, 54, 100
2, 148864, Note_on_c, 0, 62, 80
2, 148908, Note_off_c, 0, 57, 100
2, 148992, Note_on_c, 0, 54, 80
2, 149036, Note_off_c, 0, 62, 100
2, 149120, Note_on_c, 0, 57, 80
2, 149168, Note_off_c, 0, 54, 100
2, 149248, Note_on_c, 0, 62, 80
2, 149292, Note_off_c, 0, 57, 100
2, 149376, Note_on_c, 0, 54, 80
2, 149436, Note_off_c, 0, 62, 100
2, 149504, Note_on_c, 0, 57, 80
2, 149552, Note_off_c, 0, 54, 100
2, 149632, Note_on_c, 0, 62, 80
2, 149684, Note_off_c, 0, 57, 100
2, 149760, Note_on_c, 0, 54, 80
2, 149800, Note_off_c, 0, 62, 100
2, 149888, Note_on_c, 0, 57, 80
2, 149932, Note_off_c, 0, 54, 100
2, 150016, Note_on_c, 0, 62, 80
2, 150068, Note_off_c, 0, 57, 100
2, 150144, Note_on_c, 0, 55, 80
2, 150196, Note_off_c, 0, 62, 100
2, 150272, Note_on_c, 0, 59, 80
2, 150324, Note_off_c, 0, 55, 100
2, 150400, Note_on_c, 0, 62, 80
2, 150456, Note_off_c, 0, 59, 100
2, 150528, Note_on_c, 0, 55, 80
2, 150576, Note_off_c, 0, 62, 100
2, 150656, Note_on_c, 0, 59, 80
2, 150704, Note_off_c, 0, 55, 100
2, 150784, Note_on_c, 0, 62, 80
2, 150828, Note_off_c, 0, 59, 100
2, 150912, Note_on_c, 0, 55, 80
2, 150968, Note_off_c, 0, 62, 100
2, 151040, Note_on_c, 0, 59, 80
2, 151084, Note_off_c, 0, 55, 100
2, 151168, Note_on_c, 0, 62, 80
2, 151228, Note_off_c, 0, 59, 100
2, 151296, Note_on_c, 0, 55, 80
2, 151336, Note_off_c, 0, 62, 100
2, 151424, Note_on_c, 0, 59, 80
2, 151456, Note_off_c, 0, 55, 100
2, 151552, Note_on_c, 0, 62, 80
2, 151612, Note_off_c, 0, 59, 100
2, 151680, Note_on_c, 0, 55, 80
2, 151736, Note_off_c, 0, 62, 100
2, 151808, Note_on_c, 0, 59, 80
2, 151852, Note_off_c, 0, 55, 100
2, 151936, Note_on_c, 0, 62, 80
2, 151984, Note_off_c, 0, 59, 100
2, 152064, Note_on_c, 0, 54, 80
2, 152116, Note_off_c, 0, 62, 100
2, 152192, Note_on_c, 0, 59, 80
2, 152248, Note_off_c, 0, 54, 100
2, 152320, Note_on_c, 0, 63, 80
2, 152364, Note_off_c, 0, 59, 100
2, 152448, Note_on_c, 0, 54, 80
2, 152492, Note_off_c, 0, 63, 100
2, 152576, Note_on_c, 0, 59, 80
2, 152628, Note_off_c, 0, 54, 100
2, 152704, Note_on_c, 0, 63, 80
2, 152744, Note_off_c, 0, 59, 100
2, 152832, Note_on_c, 0, 54, 80
2, 152892, Note_off_c, 0, 63, 100
2, 152960, Note_on_c, 0, 59, 80
2, 153000, Note_off_c, 0, 54, 100
2, 153088, Note_on_c, 0, 63, 80
2, 153136, Note_off_c, 0, 59, 100
2, 153216, Note_on_c, 0, 54, 80
2, 153268, Note_off_c, 0, 63, 100
2, 153344, Note_on_c, 0, 59, 80
2, 153388, Note_off_c, 0, 54, 100
2, 153472, Note_on_c, 0, 63, 80
2, 153524, Note_off_c, 0, 59, 100
2, 153600, Note_on_c, 0, 54, 80
2, 153652, Note_off_c, 0, 63, 100
2, 153728, Note_on_c, 0, 59, 80
2, 153784, Note_off_c, 0, 54, 100
2, 153856, Note_on_c, 0, 63, 80
2, 153900, Note_off_c, 0, 59, 100
2, 153984, Note_on_c, 0, 54, 80
2, 154032, Note_off_c, 0, 63, 100
2, 154112, Note_on_c, 0, 59, 80
2, 154164, Note_off_c, 0, 54, 100
2, 154240, Note_on_c, 0, 63, 80
2, 154276, Note_off_c, 0, 59, 100
2, 154368, Note_on_c, 0, 55, 80
2, 154416, Note_off_c, 0, 63, 100
2, 154496, Note_on_c, 0, 59, 80
2, 154540, Note_off_c, 0, 55, 100
2, 154624, Note_on_c, 0, 64, 80
2, 154672, Note_off_c, 0, 59, 100
2, 154752, Note_on_c, 0, 55, 80
2, 154800, Note_off_c, 0, 64, 100
2, 154880, Note_on_c, 0, 59, 80
2, 154924, Note_off_c, 0, 55, 100
2, 155008, Note_on_c, 0, 64, 80
2, 155052, Note_off_c, 0, 59, 100
2, 155136, Note_on_c, 0, 55, 80
2, 155180, Note_off_c, 0, 64, 100
2, 155264, Note_on_c, 0, 59, 80
2, 155308, Note_off_c, 0, 55, 100
2, 155392, Note_on_c, 0, 64, 80
2, 155448, Note_off_c, 0, 59, 100
2, 155520, Note_on_c, 0, 55, 80
2, 155576, Note_off_c, 0, 64, 100
2, 155648, Note_on_c, 0, 59, 80
2, 155692, Note_off_c, 0, 55, 100
2, 155776, Note_on_c, 0, 64, 80
2, 155820, Note_off_c, 0, 59, 100
2, 155904, Note_on_c, 0, 55, 80
2, 155948, Note_off_c, 0, 64, 100
2, 156032, Note_on_c, 0, 59, 83
2, 156080, Note_off_c, 0, 55, 100
2, 156160, Note_on_c, 0, 64, 86
2, 156212, Note_off_c, 0, 59, 100
2, 156288, Note_on_c, 0, 55, 89
2, 156340, Note_off_c, 0, 64, 100
2, 156416, Note_on_c, 0, 59, 93
2, 156468, Note_off_c, 0, 55, 100
2, 156544, Note_on_c, 0, 64, 96
2, 156596, Note_off_c, 0, 59, 100
2, 156672, Note_on_c, 0, 55, 99
2, 156720, Note_off_c, 0, 64, 100
2, 156800, Note_on_c, 0, 61, 103
2, 156848, Note_off_c, 0, 55, 100
2, 156928, Note_on_c, 0, 64, 106
2, 156988, Note_off_c, 0, 61, 100
2, 157056, Note_on_c, 0, 61, 120
2, 157100, Note_off_c, 0, 64, 100
2, 157184, Note_on_c, 0, 64, 120
2, 157228, Note_off_c, 0, 61, 100
2, 157312, Note_on_c, 0, 67, 120
2, 157352, Note_off_c, 0, 64, 100
2, 157440, Note_on_c, 0, 61, 120
2, 157484, Note_off_c, 0, 67, 100
2, 157568, Note_on_c, 0, 64, 120
2, 157608, Note_off_c, 0, 61, 100
2, 157696, Note_on_c, 0, 67, 120
2, 157744, Note_off_c, 0, 64, 100
2, 157824, Note_on_c, 0, 61, 120
2, 157884, Note_off_c, 0, 67, 100
2, 157952, Note_on_c, 0, 64, 120
2, 158000, Note_off_c, 0, 61, 100
2, 158080, Note_on_c, 0, 67, 120
2, 158128, Note_off_c, 0, 64, 100
2, 158208, Note_on_c, 0, 61, 120
2, 158260, Note_off_c, 0, 67, 100
2, 158336, Note_on_c, 0, 64, 120
2, 158376, Note_off_c, 0, 61, 100
2, 158464, Note_on_c, 0, 67, 120
2, 158524, Note_off_c, 0, 64, 100
2, 158592, Note_on_c, 0, 61, 120
2, 158640, Note_off_c, 0, 67, 100
2, 158720, Note_on_c, 0, 64, 120
2, 158780, Note_off_c, 0, 61, 100
2, 158848, Note_on_c, 0, 67, 120
2, 158896, Note_off_c, 0, 64, 100
2, 158976, Note_on_c, 0, 61, 120
2, 159028, Note_off_c, 0, 67, 100
2, 159104, Note_on_c, 0, 64, 120
2, 159156, Note_off_c, 0, 61, 100
2, 159232, Note_on_c, 0, 67, 120
2, 159284, Note_off_c, 0, 64, 100
2, 159360, Key_signature, 2, "major"
2, 159360, Note_on_c, 0, 61, 120
2, 159416, Note_off_c, 0, 67, 100
2, 159488, Note_on_c, 0, 64, 120
2, 159536, Note_off_c, 0, 61, 100
2, 159616, Note_on_c, 0, 67, 120
2, 159664, Note_off_c, 0, 64, 100
2, 159740, Note_off_c, 0, 67, 100
2, 161280, Note_on_c, 0, 69, 80
2, 161664, Note_on_c, 0, 66, 80
2, 162044, Note_off_c, 0, 69, 100
2, 162048, Note_on_c, 0, 78, 80
2, 162428, Note_off_c, 0, 78, 100
2, 162432, Note_on_c, 0, 76, 80
2, 162812, Note_off_c, 0, 66, 100
2, 162812, Note_off_c, 0, 76, 100
2, 162816, Note_on_c, 0, 67, 80
2, 162816, Note_on_c, 0, 74, 80
2, 163196, Note_off_c, 0, 74, 100
2, 163200, Note_on_c, 0, 73, 80
2, 163580, Note_off_c, 0, 73, 100
2, 163584, Note_on_c, 0, 76, 80
2, 163964, Note_off_c, 0, 67, 100
2, 163964, Note_off_c, 0, 76, 100
2, 163968, Note_on_c, 0, 74, 80
2, 163968, Note_on_c, 0, 69, 80
2, 165116, Note_off_c, 0, 69, 100
2, 165120, Note_on_c, 0, 66, 80
2, 165500, Note_off_c, 0, 74, 100
2, 165504, Note_on_c, 0, 69, 80
2, 165884, Note_off_c, 0, 69, 100
2, 165888, Note_on_c, 0, 71, 80
2, 166268, Note_off_c, 0, 66, 100
2, 166268, Note_off_c, 0, 71, 100
2, 166272, Note_on_c, 0, 69, 80
2, 166272, Note_on_c, 0, 64, 80
2, 166652, Note_off_c, 0, 69, 100
2, 166656, Note_on_c, 0, 67, 80
2, 167036, Note_off_c, 0, 64, 100
2, 167036, Note_off_c, 0, 67, 100
2, 167040, Note_on_c, 0, 69, 80
2, 167040, Note_on_c, 0, 61, 80
2, 167420, Note_off_c, 0, 69, 100
2, 167420, Note_off_c, 0, 61, 100
2, 167424, Note_on_c, 0, 67, 80
2, 167424, Note_on_c, 0, 64, 80
2, 167804, Note_off_c, 0, 67, 100
2, 167804, Note_off_c, 0, 64, 100
2, 167808, Note_on_c, 0, 66, 80
2, 167808, Note_on_c, 0, 62, 80
2, 168188, Note_off_c, 0, 66, 100
2, 168188, Note_off_c, 0, 62, 100
2, 168192, Note_on_c, 0, 67, 80
2, 168192, Note_on_c, 0, 64, 80
2, 168572, Note_off_c, 0, 67, 100
2, 168572, Note_off_c, 0, 64, 100
2, 168576, Note_on_c, 0, 66, 80
2, 168576, Note_on_c, 0, 62, 80
2, 168576, Note_on_c, 0, 57, 80
2, 169724, Note_off_c, 0, 66, 100
2, 169724, Note_off_c, 0, 62, 100
2, 169724, Note_off_c, 0, 57, 100
2, 169728, Note_on_c, 0, 64, 80
2, 169728, Note_on_c, 0, 61, 80
2, 170108, Note_off_c, 0, 64, 100
2, 170108, Note_off_c, 0, 61, 100
2, 170496, Note_on_c, 0, 71, 80
2, 170880, Note_on_c, 0, 67, 80
2, 171260, Note_off_c, 0, 71, 100
2, 171264, Note_on_c, 0, 79, 80
2, 171644, Note_off_c, 0, 79, 100
2, 171648, Note_on_c, 0, 78, 80
2, 172028, Note_off_c, 0, 67, 100
2, 172028, Note_off_c, 0, 78, 100
2, 172032, Note_on_c, 0, 76, 80
2, 172032, Note_on_c, 0, 69, 80
2, 172412, Note_off_c, 0, 76, 100
2, 172416, Note_on_c, 0, 75, 80
2, 172796, Note_off_c, 0, 75, 100
2, 172800, Note_on_c, 0, 78, 80
2, 173180, Note_off_c, 0, 69, 100
2, 173180, Note_off_c, 0, 78, 100
2, 173184, Note_on_c, 0, 76, 80
2, 173184, Note_on_c, 0, 71, 80
2, 174332, Note_off_c, 0, 71, 100
2, 174336, Note_on_c, 0, 67, 80
2, 174716, Note_off_c, 0, 76, 100
2, 174720, Note_on_c, 0, 71, 80
2, 175100, Note_off_c, 0, 71, 100
2, 175104, Note_on_c, 0, 73, 80
2, 175484, Note_off_c, 0, 67, 100
2, 175488, Note_on_c, 0, 69, 80
2, 175868, Note_off_c, 0, 73, 100
2, 175872, Note_on_c, 0, 74, 80
2, 176252, Note_off_c, 0, 69, 100
2, 176252, Note_off_c, 0, 74, 100
2, 176256, Note_on_c, 0, 66, 80
2, 176256, Note_on_c, 0, 69, 80
2, 176636, Note_off_c, 0, 66, 100
2, 176636, Note_off_c, 0, 69, 100
2, 176640, Note_on_c, 0, 69, 80
2, 176640, Note_on_c, 0, 61, 80
2, 177020, Note_off_c, 0, 69, 100
2, 177024, Note_on_c, 0, 67, 80
2, 177404, Note_off_c, 0, 61, 100
2, 177404, Note_off_c, 0, 67, 100
2, 177408, Note_on_c, 0, 64, 80
2, 177408, Note_on_c, 0, 61, 80
2, 177408, Note_on_c, 0, 55, 80
2, 177788, Note_off_c, 0, 64, 100
2, 177788, Note_off_c, 0, 61, 100
2, 177788, Note_off_c, 0, 55, 100
2, 177792, Note_on_c, 0, 64, 80
2, 177792, Note_on_c, 0, 61, 80
2, 177792, Note_on_c, 0, 55, 80
2, 178940, Note_off_c, 0, 64, 100
2, 178940, Note_off_c, 0, 61, 100
2, 178940, Note_off_c, 0, 55, 100
2, 178944, Note_on_c, 0, 62, 80
2, 178944, Note_on_c, 0, 54, 80
2, 179324, Note_off_c, 0, 62, 100
2, 179324, Note_off_c, 0, 54, 100
2, 179712, Note_on_c, 0, 69, 80
2, 180096, Note_on_c, 0, 66, 80
2, 180476, Note_off_c, 0, 69, 100
2, 180480, Note_on_c, 0, 78, 80
2, 180860, Note_off_c, 0, 78, 100
2, 180864, Note_on_c, 0, 76, 80
2, 181244, Note_off_c, 0, 66, 100
2, 181244, Note_off_c, 0, 76, 100
2, 181248, Note_on_c, 0, 67, 80
2, 181248, Note_on_c, 0, 74, 80
2, 181628, Note_off_c, 0, 74, 100
2, 181632, Note_on_c, 0, 73, 80
2, 182012, Note_off_c, 0, 73, 100
2, 182016, Note_on_c, 0, 76, 80
2, 182396, Note_off_c, 0, 67, 100
2, 182396, Note_off_c, 0, 76, 100
2, 182400, Note_on_c, 0, 74, 80
2, 182400, Note_on_c, 0, 69, 80
2, 183548, Note_off_c, 0, 69, 100
2, 183552, Note_on_c, 0, 66, 80
2, 183932, Note_off_c, 0, 74, 100
2, 183936, Note_on_c, 0, 69, 80
2, 184316, Note_off_c, 0, 69, 100
2, 184320, Note_on_c, 0, 71, 80
2, 184700, Note_off_c, 0, 66, 100
2, 184700, Note_off_c, 0, 71, 100
2, 184704, Note_on_c, 0, 69, 80
2, 184704, Note_on_c, 0, 64, 80
2, 185084, Note_off_c, 0, 69, 100
2, 185088, Note_on_c, 0, 67, 80
2, 185468, Note_off_c, 0, 64, 100
2, 185468, Note_off_c, 0, 67, 100
2, 185472, Note_on_c, 0, 69, 80
2, 185472, Note_on_c, 0, 61, 80
2, 185852, Note_off_c, 0, 69, 100
2, 185852, Note_off_c, 0, 61, 100
2, 185856, Note_on_c, 0, 67, 80
2, 185856, Note_on_c, 0, 64, 80
2, 186236, Note_off_c, 0, 67, 100
2, 186236, Note_off_c, 0, 64, 100
2, 186240, Note_on_c, 0, 66, 80
2, 186240, Note_on_c, 0, 62, 80
2, 186620, Note_off_c, 0, 66, 100
2, 186620, Note_off_c, 0, 62, 100
2, 186624, Note_on_c, 0, 67, 80
2, 186624, Note_on_c, 0, 64, 80
2, 187004, Note_off_c, 0, 67, 100
2, 187004, Note_off_c, 0, 64, 100
2, 187008, Note_on_c, 0, 66, 80
2, 187008, Note_on_c, 0, 62, 80
2, 187008, Note_on_c, 0, 57, 80
2, 188156, Note_off_c, 0, 66, 100
2, 188156, Note_off_c, 0, 62, 100
2, 188156, Note_off_c, 0, 57, 100
2, 188160, Note_on_c, 0, 64, 80
2, 188160, Note_on_c, 0, 61, 80
2, 188540, Note_off_c, 0, 64, 100
2, 188540, Note_off_c, 0, 61, 100
2, 188928, Note_on_c, 0, 71, 80
2, 189312, Note_on_c, 0, 67, 80
2, 189692, Note_off_c, 0, 71, 100
2, 189696, Note_on_c, 0, 79, 80
2, 190076, Note_off_c, 0, 79, 100
2, 190080, Note_on_c, 0, 78, 80
2, 190460, Note_off_c, 0, 67, 100
2, 190460, Note_off_c, 0, 78, 100
2, 190464, Note_on_c, 0, 76, 80
2, 190464, Note_on_c, 0, 69, 80
2, 190844, Note_off_c, 0, 76, 100
2, 190848, Note_on_c, 0, 75, 80
2, 191228, Note_off_c, 0, 75, 100
2, 191232, Note_on_c, 0, 78, 80
2, 191612, Note_off_c, 0, 69, 100
2, 191612, Note_off_c, 0, 78, 100
2, 191616, Note_on_c, 0, 76, 80
2, 191616, Note_on_c, 0, 71, 80
2, 192764, Note_off_c, 0, 71, 100
2, 192768, Note_on_c, 0, 67, 80
2, 193148, Note_off_c, 0, 76, 100
2, 193152, Note_on_c, 0, 71, 80
2, 193532, Note_off_c, 0, 71, 100
2, 193536, Note_on_c, 0, 73, 80
2, 193916, Note_off_c, 0, 67, 100
2, 193920, Note_on_c, 0, 69, 80
2, 194300, Note_off_c, 0, 73, 100
2, 194304, Note_on_c, 0, 74, 80
2, 194684, Note_off_c, 0, 69, 100
2, 194684, Note_off_c, 0, 74, 100
2, 194688, Note_on_c, 0, 66, 80
2, 194688, Note_on_c, 0, 69, 80
2, 195068, Note_off_c, 0, 66, 100
2, 195068, Note_off_c, 0, 69, 100
2, 195072, Note_on_c, 0, 69, 80
2, 195072, Note_on_c, 0, 61, 80
2, 195452, Note_off_c, 0, 69, 100
2, 195456, Note_on_c, 0, 67, 80
2, 195836, Note_off_c, 0, 61, 100
2, 195836, Note_off_c, 0, 67, 100
2, 195840, Note_on_c, 0, 64, 80
2, 195840, Note_on_c, 0, 61, 80
2, 195840, Note_on_c, 0, 55, 80
2, 196220, Note_off_c, 0, 64, 100
2, 196220, Note_off_c, 0, 61, 100
2, 196220, Note_off_c, 0, 55, 100
2, 196224, Note_on_c, 0, 64, 80
2, 196224, Note_on_c, 0, 61, 80
2, 196224, Note_on_c, 0, 55, 80
2, 197372, Note_off_c, 0, 64, 100
2, 197372, Note_off_c, 0, 61, 100
2, 197372, Note_off_c, 0, 55, 100
2, 197376, Note_on_c, 0, 62, 80
2, 197376, Note_on_c, 0, 54, 80
2, 197756, Note_off_c, 0, 62, 100
2, 197756, Note_off_c, 0, 54, 100
2, 200832, Note_on_c, 0, 59, 100
2, 201596, Note_off_c, 0, 59, 100
2, 201600, Note_on_c, 0, 58, 80
2, 201788, Note_off_c, 0, 58, 100
2, 201792, Note_on_c, 0, 59, 80
2, 201980, Note_off_c, 0, 59, 100
2, 201984, Note_on_c, 0, 61, 80
2, 202172, Note_off_c, 0, 61, 100
2, 202176, Note_on_c, 0, 59, 80
2, 202364, Note_off_c, 0, 59, 100
2, 202368, Note_on_c, 0, 57, 80
2, 202556, Note_off_c, 0, 57, 100
2, 202560, Note_on_c, 0, 56, 80
2, 202748, Note_off_c, 0, 56, 100
2, 202752, Note_on_c, 0, 54, 80
2, 202940, Note_off_c, 0, 54, 100
2, 202944, Note_on_c, 0, 59, 80
2, 203132, Note_off_c, 0, 59, 100
2, 203136, Note_on_c, 0, 76, 102
2, 203900, Note_off_c, 0, 76, 100
2, 203904, Note_on_c, 0, 75, 80
2, 204092, Note_off_c, 0, 75, 100
2, 204096, Note_on_c, 0, 76, 80
2, 204284, Note_off_c, 0, 76, 100
2, 204288, Note_on_c, 0, 78, 80
2, 204476, Note_off_c, 0, 78, 100
2, 204480, Note_on_c, 0, 76, 80
2, 204668, Note_off_c, 0, 76, 100
2, 204672, Note_on_c, 0, 74, 80
2, 204860, Note_off_c, 0, 74, 100
2, 204864, Note_on_c, 0, 73, 80
2, 205052, Note_off_c, 0, 73, 100
2, 205056, Note_on_c, 0, 71, 80
2, 205244, Note_off_c, 0, 71, 100
2, 205248, Note_on_c, 0, 76, 80
2, 205436, Note_off_c, 0, 76, 100
2, 205440, Note_on_c, 0, 73, 80
2, 205820, Note_off_c, 0, 73, 100
2, 205824, Note_on_c, 0, 81, 100
2, 206204, Note_off_c, 0, 81, 100
2, 206208, Note_on_c, 0, 81, 100
2, 206588, Note_off_c, 0, 81, 100
2, 206592, Note_on_c, 0, 81, 100
2, 206972, Note_off_c, 0, 81, 100
2, 206976, Note_on_c, 0, 81, 100
2, 207356, Note_off_c, 0, 81, 100
2, 207360, Note_on_c, 0, 81, 100
2, 207740, Note_off_c, 0, 81, 100
2, 207744, Note_on_c, 0, 81, 80
2, 207840, Note_on_c, 0, 83, 80
2, 207932, Note_off_c, 0, 81, 100
2, 207936, Note_on_c, 0, 81, 80
2, 208028, Note_off_c, 0, 83, 100
2, 208032, Note_on_c, 0, 83, 80
2, 208124, Note_off_c, 0, 81, 100
2, 208128, Note_on_c, 0, 81, 80
2, 208128, Note_on_c, 0, 78, 80
2, 208220, Note_off_c, 0, 83, 100
2, 208224, Note_on_c, 0, 83, 80
2, 208316, Note_off_c, 0, 81, 100
2, 208320, Note_on_c, 0, 81, 80
2, 208412, Note_off_c, 0, 83, 100
2, 208416, Note_on_c, 0, 83, 80
2, 208508, Note_off_c, 0, 78, 100
2, 208508, Note_off_c, 0, 81, 100
2, 208512, Note_on_c, 0, 81, 80
2, 208512, Note_on_c, 0, 76, 80
2, 208604, Note_off_c, 0, 83, 100
2, 208608, Note_on_c, 0, 83, 80
2, 208700, Note_off_c, 0, 81, 100
2, 208704, Note_on_c, 0, 81, 80
2, 208796, Note_off_c, 0, 83, 100
2, 208800, Note_on_c, 0, 83, 80
2, 208892, Note_off_c, 0, 76, 100
2, 208892, Note_off_c, 0, 81, 100
2, 208896, Note_on_c, 0, 81, 80
2, 208988, Note_off_c, 0, 83, 100
2, 208992, Note_on_c, 0, 83, 80
2, 209084, Note_off_c, 0, 81, 100
2, 209088, Note_on_c, 0, 81, 80
2, 209180, Note_off_c, 0, 83, 100
2, 209184, Note_on_c, 0, 83, 80
2, 209276, Note_off_c, 0, 81, 100
2, 209280, Note_on_c, 0, 81, 80
2, 209372, Note_off_c, 0, 83, 100
2, 209376, Note_on_c, 0, 83, 80
2, 209468, Note_off_c, 0, 81, 100
2, 209472, Note_on_c, 0, 81, 80
2, 209564, Note_off_c, 0, 83, 100
2, 209568, Note_on_c, 0, 83, 80
2, 209660, Note_off_c, 0, 81, 100
2, 209664, Note_on_c, 0, 81, 80
2, 209756, Note_off_c, 0, 83, 100
2, 209760, Note_on_c, 0, 83, 80
2, 209852, Note_off_c, 0, 81, 100
2, 209856, Note_on_c, 0, 81, 80
2, 209948, Note_off_c, 0, 83, 100
2, 209952, Note_on_c, 0, 83, 80
2, 210044, Note_off_c, 0, 81, 100
2, 210048, Note_on_c, 0, 81, 80
2, 210140, Note_off_c, 0, 83, 100
2, 210144, Note_on_c, 0, 83, 81
2, 210236, Note_off_c, 0, 81, 100
2, 210240, Note_on_c, 0, 81, 82
2, 210332, Note_off_c, 0, 83, 100
2, 210336, Note_on_c, 0, 83, 84
2, 210428, Note_off_c, 0, 81, 100
2, 210432, Note_on_c, 0, 81, 85
2, 210524, Note_off_c, 0, 83, 100
2, 210528, Note_on_c, 0, 83, 86
2, 210620, Note_off_c, 0, 81, 100
2, 210624, Note_on_c, 0, 81, 88
2, 210716, Note_off_c, 0, 83, 100
2, 210720, Note_on_c, 0, 83, 89
2, 210812, Note_off_c, 0, 81, 100
2, 210816, Note_on_c, 0, 81, 90
2, 210908, Note_off_c, 0, 83, 100
2, 210912, Note_on_c, 0, 83, 92
2, 211004, Note_off_c, 0, 81, 100
2, 211008, Note_on_c, 0, 81, 93
2, 211100, Note_off_c, 0, 83, 100
2, 211104, Note_on_c, 0, 83, 94
2, 211196, Note_off_c, 0, 81, 100
2, 211200, Note_on_c, 0, 81, 96
2, 211292, Note_off_c, 0, 83, 100
2, 211296, Note_on_c, 0, 83, 97
2, 211388, Note_off_c, 0, 81, 100
2, 211392, Note_on_c, 0, 81, 99
2, 211484, Note_off_c, 0, 83, 100
2, 211488, Note_on_c, 0, 83, 100
2, 211580, Note_off_c, 0, 81, 100
2, 211584, Note_on_c, 0, 82, 101
2, 211676, Note_off_c, 0, 83, 100
2, 211680, Note_on_c, 0, 83, 103
2, 211772, Note_off_c, 0, 82, 100
2, 211776, Note_on_c, 0, 82, 104
2, 211868, Note_off_c, 0, 83, 100
2, 211872, Note_on_c, 0, 83, 105
2, 211964, Note_off_c, 0, 82, 100
2, 211968, Note_on_c, 0, 81, 107
2, 212060, Note_off_c, 0, 83, 100
2, 212064, Note_on_c, 0, 82, 108
2, 212156, Note_off_c, 0, 81, 100
2, 212160, Note_on_c, 0, 83, 109
2, 212252, Note_off_c, 0, 82, 100
2, 212348, Note_off_c, 0, 83, 100
2, 212352, Note_on_c, 0, 81, 100
2, 212732, Note_off_c, 0, 81, 100
2, 212736, Note_on_c, 0, 79, 80
2, 213116, Note_off_c, 0, 79, 100
2, 213120, Note_on_c, 0, 81, 80
2, 213500, Note_off_c, 0, 81, 100
2, 213504, Note_on_c, 0, 79, 80
2, 213504, Note_on_c, 0, 76, 80
2, 213884, Note_off_c, 0, 79, 100
2, 213884, Note_off_c, 0, 76, 100
2, 213888, Note_on_c, 0, 78, 80
2, 213888, Note_on_c, 0, 74, 80
2, 214268, Note_off_c, 0, 78, 100
2, 214268, Note_off_c, 0, 74, 100
2, 214272, Note_on_c, 0, 79, 80
2, 214272, Note_on_c, 0, 76, 80
2, 214272, Note_on_c, 0, 71, 80
2, 214652, Note_off_c, 0, 79, 100
2, 214652, Note_off_c, 0, 76, 100
2, 214652, Note_off_c, 0, 71, 100
2, 214656, Note_on_c, 0, 69, 80
2, 214656, Note_on_c, 0, 78, 80
2, 214656, Note_on_c, 0, 74, 80
2, 215420, Note_off_c, 0, 78, 100
2, 215420, Note_off_c, 0, 74, 100
2, 215424, Note_on_c, 0, 76, 80
2, 215424, Note_on_c, 0, 73, 80
2, 215804, Note_off_c, 0, 69, 100
2, 215804, Note_off_c, 0, 76, 100
2, 215804, Note_off_c, 0, 73, 100
2, 216576, Note_on_c, 0, 71, 80
2, 216960, Note_on_c, 0, 67, 80
2, 217340, Note_off_c, 0, 71, 100
2, 217344, Note_on_c, 0, 79, 80
2, 217724, Note_off_c, 0, 79, 100
2, 217728, Note_on_c, 0, 78, 80
2, 218108, Note_off_c, 0, 67, 100
2, 218108, Note_off_c, 0, 78, 100
2, 218112, Note_on_c, 0, 76, 80
2, 218112, Note_on_c, 0, 69, 80
2, 218492, Note_off_c, 0, 76, 100
2, 218496, Note_on_c, 0, 75, 80
2, 218876, Note_off_c, 0, 75, 100
2, 218880, Note_on_c, 0, 78, 80
2, 219260, Note_off_c, 0, 69, 100
2, 219260, Note_off_c, 0, 78, 100
2, 219264, Note_on_c, 0, 71, 80
2, 219264, Note_on_c, 0, 74, 80
2, 219644, Note_off_c, 0, 74, 100
2, 219648, Note_on_c, 0, 83, 82
2, 220028, Note_off_c, 0, 83, 100
2, 220032, Note_on_c, 0, 81, 85
2, 220412, Note_off_c, 0, 71, 100
2, 220412, Note_off_c, 0, 81, 100
2, 220416, Note_on_c, 0, 79, 88
2, 220416, Note_on_c, 0, 72, 88
2, 220796, Note_off_c, 0, 79, 100
2, 220800, Note_on_c, 0, 78, 90
2, 221180, Note_off_c, 0, 78, 100
2, 221184, Note_on_c, 0, 81, 93
2, 221564, Note_off_c, 0, 72, 100
2, 221564, Note_off_c, 0, 81, 100
2, 221568, Note_on_c, 0, 79, 96
2, 221952, Note_on_c, 0, 74, 99
2, 222332, Note_off_c, 0, 79, 100
2, 222336, Note_on_c, 0, 86, 101
2, 222720, Note_on_c, 0, 80, 104
2, 223100, Note_off_c, 0, 86, 100
2, 223104, Note_on_c, 0, 85, 107
2, 223484, Note_off_c, 0, 85, 100
2, 223488, Note_on_c, 0, 88, 109
2, 223868, Note_off_c, 0, 74, 100
2, 223868, Note_off_c, 0, 80, 100
2, 223868, Note_off_c, 0, 88, 100
2, 223872, Note_on_c, 0, 86, 100
2, 223872, Note_on_c, 0, 76, 100
2, 224252, Note_off_c, 0, 86, 100
2, 224256, Note_on_c, 0, 85, 80
2, 224636, Note_off_c, 0, 76, 100
2, 224636, Note_off_c, 0, 85, 100
2, 224640, Note_on_c, 0, 83, 80
2, 224640, Note_on_c, 0, 74, 80
2, 225020, Note_off_c, 0, 83, 100
2, 225020, Note_off_c, 0, 74, 100
2, 225024, Note_on_c, 0, 81, 80
2, 225024, Note_on_c, 0, 69, 80
2, 225404, Note_off_c, 0, 81, 100
2, 225408, Note_on_c, 0, 79, 80
2, 225788, Note_off_c, 0, 69, 100
2, 225788, Note_off_c, 0, 79, 100
2, 225792, Note_on_c, 0, 78, 80
2, 225792, Note_on_c, 0, 69, 80
2, 226172, Note_off_c, 0, 78, 100
2, 226172, Note_off_c, 0, 69, 100
2, 226176, Note_on_c, 0, 76, 80
2, 226176, Note_on_c, 0, 67, 80
2, 226556, Note_off_c, 0, 76, 100
2, 226556, Note_off_c, 0, 67, 100
2, 226560, Note_on_c, 0, 75, 80
2, 226560, Note_on_c, 0, 66, 80
2, 226940, Note_off_c, 0, 75, 100
2, 226940, Note_off_c, 0, 66, 100
2, 226944, Note_on_c, 0, 74, 80
2, 226944, Note_on_c, 0, 71, 80
2, 226944, Note_on_c, 0, 65, 80
2, 227324, Note_off_c, 0, 74, 100
2, 227324, Note_off_c, 0, 71, 100
2, 227324, Note_off_c, 0, 65, 100
2, 227328, Note_on_c, 0, 71, 80
2, 227328, Note_on_c, 0, 66, 80
2, 227328, Note_on_c, 0, 62, 80
2, 227708, Note_off_c, 0, 71, 100
2, 227712, Note_on_c, 0, 69, 80
2, 228092, Note_off_c, 0, 66, 100
2, 228092, Note_off_c, 0, 62, 100
2, 228092, Note_off_c, 0, 69, 100
2, 228096, Note_on_c, 0, 69, 80
2, 228096, Note_on_c, 0, 67, 80
2, 228096, Note_on_c, 0, 61, 80
2, 228476, Note_off_c, 0, 69, 100
2, 228476, Note_off_c, 0, 67, 100
2, 228476, Note_off_c, 0, 61, 100
2, 228480, Note_on_c, 0, 69, 80
2, 228480, Note_on_c, 0, 66, 80
2, 228480, Note_on_c, 0, 62, 80
2, 229244, Note_off_c, 0, 69, 100
2, 229244, Note_off_c, 0, 66, 100
2, 229244, Note_off_c, 0, 62, 100
2, 231552, Note_on_c, 0, 69, 70
2, 231552, Note_on_c, 0, 67, 70
2, 231552, Note_on_c, 0, 57, 70
2, 231932, Note_off_c, 0, 69, 100
2, 231932, Note_off_c, 0, 67, 100
2, 231932, Note_off_c, 0, 57, 100
2, 231936, Note_on_c, 0, 57, 70
2, 231936, Note_on_c, 0, 69, 70
2, 231936, Note_on_c, 0, 67, 70
2, 232316, Note_off_c, 0, 57, 100
2, 232316, Note_off_c, 0, 69, 100
2, 232320, Note_on_c, 0, 71, 70
2, 232320, Note_on_c, 0, 59, 70
2, 232700, Note_off_c, 0, 67, 100
2, 232700, Note_off_c, 0, 71, 100
2, 232700, Note_off_c, 0, 59, 100
2, 232704, Note_on_c, 0, 69, 70
2, 232704, Note_on_c, 0, 67, 70
2, 232704, Note_on_c, 0, 57, 70
2, 233084, Note_off_c, 0, 69, 100
2, 233084, Note_off_c, 0, 67, 100
2, 233084, Note_off_c, 0, 57, 100
2, 233088, Note_on_c, 0, 69, 70
2, 233088, Note_on_c, 0, 66, 70
2, 233088, Note_on_c, 0, 57, 70
2, 233852, Note_off_c, 0, 69, 100
2, 233852, Note_off_c, 0, 66, 100
2, 233852, Note_off_c, 0, 57, 100
2, 236160, Note_on_c, 0, 69, 70
2, 236160, Note_on_c, 0, 67, 70
2, 236160, Note_on_c, 0, 57, 70
2, 236540, Note_off_c, 0, 69, 100
2, 236540, Note_off_c, 0, 67, 100
2, 236540, Note_off_c, 0, 57, 100
2, 236544, Note_on_c, 0, 57, 70
2, 236544, Note_on_c, 0, 69, 70
2, 236544, Note_on_c, 0, 67, 70
2, 236924, Note_off_c, 0, 57, 100
2, 236924, Note_off_c, 0, 69, 100
2, 236928, Note_on_c, 0, 70, 70
2, 236928, Note_on_c, 0, 58, 70
2, 237308, Note_off_c, 0, 67, 100
2, 237308, Note_off_c, 0, 70, 100
2, 237308, Note_off_c, 0, 58, 100
2, 237312, Note_on_c, 0, 69, 70
2, 237312, Note_on_c, 0, 67, 70
2, 237312, Note_on_c, 0, 57, 70
2, 237692, Note_off_c, 0, 69, 100
2, 237692, Note_off_c, 0, 67, 100
2, 237692, Note_off_c, 0, 57, 100
2, 237696, Note_on_c, 0, 66, 70
2, 237696, Note_on_c, 0, 69, 70
2, 237696, Note_on_c, 0, 57, 70
2, 238076, Note_off_c, 0, 69, 100
2, 238076, Note_off_c, 0, 57, 100
2, 238080, Note_on_c, 0, 68, 70
2, 238080, Note_on_c, 0, 56, 70
2, 238460, Note_off_c, 0, 66, 100
2, 238460, Note_off_c, 0, 68, 100
2, 238460, Note_off_c, 0, 56, 100
2, 238464, Note_on_c, 0, 69, 70
2, 238464, Note_on_c, 0, 66, 70
2, 238464, Note_on_c, 0, 57, 70
2, 238844, Note_off_c, 0, 69, 100
2, 238844, Note_off_c, 0, 66, 100
2, 238844, Note_off_c, 0, 57, 100
2, 238848, Note_on_c, 0, 67, 70
2, 238848, Note_on_c, 0, 69, 70
2, 238848, Note_on_c, 0, 57, 70
2, 239228, Note_off_c, 0, 69, 100
2, 239228, Note_off_c, 0, 57, 100
2, 239232, Note_on_c, 0, 71, 70
2, 239232, Note_on_c, 0, 59, 70
2, 239612, Note_off_c, 0, 67, 100
2, 239612, Note_off_c, 0, 71, 100
2, 239612, Note_off_c, 0, 59, 100
2, 239616, Note_on_c, 0, 69, 70
2, 239616, Note_on_c, 0, 67, 70
2, 239616, Note_on_c, 0, 57, 70
2, 239996, Note_off_c, 0, 69, 100
2, 239996, Note_off_c, 0, 67, 100
2, 239996, Note_off_c, 0, 57, 100
2, 240000, Note_on_c, 0, 67, 70
2, 240000, Note_on_c, 0, 69, 70
2, 240000, Note_on_c, 0, 57, 70
2, 241148, Note_off_c, 0, 67, 100
2, 241152, Note_on_c, 0, 66, 70
2, 241532, Note_off_c, 0, 57, 100
2, 241532, Note_off_c, 0, 69, 100
2, 241532, Note_off_c, 0, 66, 100
2, 244608, Note_on_c, 0, 59, 100
2, 245372, Note_off_c, 0, 59, 100
2, 245376, Note_on_c, 0, 58, 80
2, 245564, Note_off_c, 0, 58, 100
2, 245568, Note_on_c, 0, 59, 80
2, 245756, Note_off_c, 0, 59, 100
2, 245760, Note_on_c, 0, 61, 80
2, 245948, Note_off_c, 0, 61, 100
2, 245952, Note_on_c, 0, 59, 80
2, 246140, Note_off_c, 0, 59, 100
2, 246144, Note_on_c, 0, 57, 80
2, 246332, Note_off_c, 0, 57, 100
2, 246336, Note_on_c, 0, 56, 80
2, 246524, Note_off_c, 0, 56, 100
2, 246528, Note_on_c, 0, 54, 80
2, 246716, Note_off_c, 0, 54, 100
2, 246720, Note_on_c, 0, 59, 80
2, 246908, Note_off_c, 0, 59, 100
2, 246912, Note_on_c, 0, 76, 100
2, 247676, Note_off_c, 0, 76, 100
2, 247680, Note_on_c, 0, 75, 80
2, 247868, Note_off_c, 0, 75, 100
2, 247872, Note_on_c, 0, 76, 80
2, 248060, Note_off_c, 0, 76, 100
2, 248064, Note_on_c, 0, 78, 80
2, 248252, Note_off_c, 0, 78, 100
2, 248256, Note_on_c, 0, 76, 80
2, 248444, Note_off_c, 0, 76, 100
2, 248448, Note_on_c, 0, 74, 80
2, 248636, Note_off_c, 0, 74, 100
2, 248640, Note_on_c, 0, 73, 80
2, 248828, Note_off_c, 0, 73, 100
2, 248832, Note_on_c, 0, 71, 80
2, 249020, Note_off_c, 0, 71, 100
2, 249024, Note_on_c, 0, 76, 80
2, 249212, Note_off_c, 0, 76, 100
2, 249216, Note_on_c, 0, 73, 80
2, 249596, Note_off_c, 0, 73, 100
2, 249600, Note_on_c, 0, 81, 100
2, 249980, Note_off_c, 0, 81, 100
2, 249984, Note_on_c, 0, 81, 100
2, 250364, Note_off_c, 0, 81, 100
2, 250368, Note_on_c, 0, 81, 100
2, 250748, Note_off_c, 0, 81, 100
2, 250752, Note_on_c, 0, 81, 100
2, 251132, Note_off_c, 0, 81, 100
2, 251136, Note_on_c, 0, 81, 100
2, 251516, Note_off_c, 0, 81, 100
2, 251520, Note_on_c, 0, 81, 80
2, 251616, Note_on_c, 0, 83, 80
2, 251708, Note_off_c, 0, 81, 100
2, 251712, Note_on_c, 0, 81, 80
2, 251804, Note_off_c, 0, 83, 100
2, 251808, Note_on_c, 0, 83, 80
2, 251900, Note_off_c, 0, 81, 100
2, 251904, Note_on_c, 0, 81, 80
2, 251904, Note_on_c, 0, 78, 80
2, 251996, Note_off_c, 0, 83, 100
2, 252000, Note_on_c, 0, 83, 80
2, 252092, Note_off_c, 0, 81, 100
2, 252096, Note_on_c, 0, 81, 80
2, 252188, Note_off_c, 0, 83, 100
2, 252192, Note_on_c, 0, 83, 80
2, 252284, Note_off_c, 0, 78, 100
2, 252284, Note_off_c, 0, 81, 100
2, 252288, Note_on_c, 0, 81, 80
2, 252288, Note_on_c, 0, 76, 80
2, 252380, Note_off_c, 0, 83, 100
2, 252384, Note_on_c, 0, 83, 80
2, 252476, Note_off_c, 0, 81, 100
2, 252480, Note_on_c, 0, 81, 80
2, 252572, Note_off_c, 0, 83, 100
2, 252576, Note_on_c, 0, 83, 80
2, 252668, Note_off_c, 0, 76, 100
2, 252668, Note_off_c, 0, 81, 100
2, 252672, Note_on_c, 0, 81, 80
2, 252764, Note_off_c, 0, 83, 100
2, 252768, Note_on_c, 0, 83, 80
2, 252860, Note_off_c, 0, 81, 100
2, 252864, Note_on_c, 0, 81, 80
2, 252956, Note_off_c, 0, 83, 100
2, 252960, Note_on_c, 0, 83, 80
2, 253052, Note_off_c, 0, 81, 100
2, 253056, Note_on_c, 0, 81, 80
2, 253148, Note_off_c, 0, 83, 100
2, 253152, Note_on_c, 0, 83, 80
2, 253244, Note_off_c, 0, 81, 100
2, 253248, Note_on_c, 0, 81, 80
2, 253340, Note_off_c, 0, 83, 100
2, 253344, Note_on_c, 0, 83, 80
2, 253436, Note_off_c, 0, 81, 100
2, 253440, Note_on_c, 0, 81, 80
2, 253532, Note_off_c, 0, 83, 100
2, 253536, Note_on_c, 0, 83, 80
2, 253628, Note_off_c, 0, 81, 100
2, 253632, Note_on_c, 0, 81, 80
2, 253724, Note_off_c, 0, 83, 100
2, 253728, Note_on_c, 0, 83, 80
2, 253820, Note_off_c, 0, 81, 100
2, 253824, Note_on_c, 0, 81, 80
2, 253916, Note_off_c, 0, 83, 100
2, 253920, Note_on_c, 0, 83, 81
2, 254012, Note_off_c, 0, 81, 100
2, 254016, Note_on_c, 0, 81, 82
2, 254108, Note_off_c, 0, 83, 100
2, 254112, Note_on_c, 0, 83, 84
2, 254204, Note_off_c, 0, 81, 100
2, 254208, Note_on_c, 0, 81, 85
2, 254300, Note_off_c, 0, 83, 100
2, 254304, Note_on_c, 0, 83, 86
2, 254396, Note_off_c, 0, 81, 100
2, 254400, Note_on_c, 0, 81, 88
2, 254492, Note_off_c, 0, 83, 100
2, 254496, Note_on_c, 0, 83, 89
2, 254588, Note_off_c, 0, 81, 100
2, 254592, Note_on_c, 0, 81, 90
2, 254684, Note_off_c, 0, 83, 100
2, 254688, Note_on_c, 0, 83, 92
2, 254780, Note_off_c, 0, 81, 100
2, 254784, Note_on_c, 0, 81, 93
2, 254876, Note_off_c, 0, 83, 100
2, 254880, Note_on_c, 0, 83, 94
2, 254972, Note_off_c, 0, 81, 100
2, 254976, Note_on_c, 0, 81, 96
2, 255068, Note_off_c, 0, 83, 100
2, 255072, Note_on_c, 0, 83, 97
2, 255164, Note_off_c, 0, 81, 100
2, 255168, Note_on_c, 0, 81, 99
2, 255260, Note_off_c, 0, 83, 100
2, 255264, Note_on_c, 0, 83, 100
2, 255356, Note_off_c, 0, 81, 100
2, 255360, Note_on_c, 0, 82, 101
2, 255452, Note_off_c, 0, 83, 100
2, 255456, Note_on_c, 0, 83, 103
2, 255548, Note_off_c, 0, 82, 100
2, 255552, Note_on_c, 0, 82, 104
2, 255644, Note_off_c, 0, 83, 100
2, 255648, Note_on_c, 0, 83, 105
2, 255740, Note_off_c, 0, 82, 100
2, 255744, Note_on_c, 0, 81, 107
2, 255836, Note_off_c, 0, 83, 100
2, 255840, Note_on_c, 0, 82, 108
2, 255932, Note_off_c, 0, 81, 100
2, 255936, Note_on_c, 0, 83, 109
2, 256028, Note_off_c, 0, 82, 100
2, 256124, Note_off_c, 0, 83, 100
2, 256128, Note_on_c, 0, 81, 100
2, 256508, Note_off_c, 0, 81, 100
2, 256512, Note_on_c, 0, 79, 80
2, 256892, Note_off_c, 0, 79, 100
2, 256896, Note_on_c, 0, 81, 80
2, 257276, Note_off_c, 0, 81, 100
2, 257280, Note_on_c, 0, 79, 80
2, 257280, Note_on_c, 0, 76, 80
2, 257660, Note_off_c, 0, 79, 100
2, 257660, Note_off_c, 0, 76, 100
2, 257664, Note_on_c, 0, 78, 80
2, 257664, Note_on_c, 0, 74, 80
2, 258044, Note_off_c, 0, 78, 100
2, 258044, Note_off_c, 0, 74, 100
2, 258048, Note_on_c, 0, 79, 80
2, 258048, Note_on_c, 0, 76, 80
2, 258048, Note_on_c, 0, 71, 80
2, 258428, Note_off_c, 0, 79, 100
2, 258428, Note_off_c, 0, 76, 100
2, 258428, Note_off_c, 0, 71, 100
2, 258432, Note_on_c, 0, 69, 80
2, 258432, Note_on_c, 0, 78, 80
2, 258432, Note_on_c, 0, 74, 80
2, 259196, Note_off_c, 0, 78, 100
2, 259196, Note_off_c, 0, 74, 100
2, 259200, Note_on_c, 0, 76, 80
2, 259200, Note_on_c, 0, 73, 80
2, 259580, Note_off_c, 0, 69, 100
2, 259580, Note_off_c, 0, 76, 100
2, 259580, Note_off_c, 0, 73, 100
2, 260352, Note_on_c, 0, 71, 80
2, 260736, Note_on_c, 0, 67, 80
2, 261116, Note_off_c, 0, 71, 100
2, 261120, Note_on_c, 0, 79, 80
2, 261500, Note_off_c, 0, 79, 100
2, 261504, Note_on_c, 0, 78, 80
2, 261884, Note_off_c, 0, 67, 100
2, 261884, Note_off_c, 0, 78, 100
2, 261888, Note_on_c, 0, 76, 80
2, 261888, Note_on_c, 0, 69, 80
2, 262268, Note_off_c, 0, 76, 100
2, 262272, Note_on_c, 0, 75, 80
2, 262652, Note_off_c, 0, 75, 100
2, 262656, Note_on_c, 0, 78, 80
2, 263036, Note_off_c, 0, 69, 100
2, 263036, Note_off_c, 0, 78, 100
2, 263040, Note_on_c, 0, 71, 80
2, 263040, Note_on_c, 0, 74, 80
2, 263420, Note_off_c, 0, 74, 100
2, 263424, Note_on_c, 0, 83, 83
2, 263804, Note_off_c, 0, 83, 100
2, 263808, Note_on_c, 0, 81, 87
2, 264188, Note_off_c, 0, 71, 100
2, 264188, Note_off_c, 0, 81, 100
2, 264192, Note_on_c, 0, 79, 90
2, 264192, Note_on_c, 0, 72, 90
2, 264572, Note_off_c, 0, 79, 100
2, 264576, Note_on_c, 0, 78, 94
2, 264956, Note_off_c, 0, 78, 100
2, 264960, Note_on_c, 0, 81, 98
2, 265340, Note_off_c, 0, 72, 100
2, 265340, Note_off_c, 0, 81, 100
2, 265344, Note_on_c, 0, 79, 101
2, 265728, Note_on_c, 0, 74, 105
2, 266108, Note_off_c, 0, 79, 100
2, 266112, Note_on_c, 0, 86, 109
2, 266496, Note_on_c, 0, 80, 112
2, 266876, Note_off_c, 0, 86, 100
2, 266880, Note_on_c, 0, 85, 116
2, 267260, Note_off_c, 0, 85, 100
2, 267264, Note_on_c, 0, 88, 119
2, 267644, Note_off_c, 0, 74, 100
2, 267644, Note_off_c, 0, 80, 100
2, 267644, Note_off_c, 0, 88, 100
2, 267648, Note_on_c, 0, 86, 110
2, 267648, Note_on_c, 0, 76, 110
2, 268028, Note_off_c, 0, 86, 100
2, 268032, Note_on_c, 0, 85, 96
2, 268412, Note_off_c, 0, 76, 100
2, 268412, Note_off_c, 0, 85, 100
2, 268416, Note_on_c, 0, 83, 81
2, 268416, Note_on_c, 0, 74, 81
2, 268796, Note_off_c, 0, 83, 100
2, 268796, Note_off_c, 0, 74, 100
2, 268800, Note_on_c, 0, 81, 80
2, 268800, Note_on_c, 0, 69, 80
2, 269180, Note_off_c, 0, 81, 100
2, 269184, Note_on_c, 0, 79, 80
2, 269564, Note_off_c, 0, 69, 100
2, 269564, Note_off_c, 0, 79, 100
2, 269568, Note_on_c, 0, 78, 80
2, 269568, Note_on_c, 0, 69, 80
2, 269948, Note_off_c, 0, 78, 100
2, 269948, Note_off_c, 0, 69, 100
2, 269952, Note_on_c, 0, 76, 80
2, 269952, Note_on_c, 0, 67, 80
2, 270332, Note_off_c, 0, 76, 100
2, 270332, Note_off_c, 0, 67, 100
2, 270336, Note_on_c, 0, 75, 80
2, 270336, Note_on_c, 0, 66, 80
2, 270716, Note_off_c, 0, 75, 100
2, 270716, Note_off_c, 0, 66, 100
2, 270720, Note_on_c, 0, 74, 80
2, 270720, Note_on_c, 0, 71, 80
2, 270720, Note_on_c, 0, 65, 80
2, 271100, Note_off_c, 0, 74, 100
2, 271100, Note_off_c, 0, 71, 100
2, 271100, Note_off_c, 0, 65, 100
2, 271104, Note_on_c, 0, 71, 80
2, 271104, Note_on_c, 0, 66, 80
2, 271104, Note_on_c, 0, 62, 80
2, 271484, Note_off_c, 0, 71, 100
2, 271488, Note_on_c, 0, 69, 80
2, 271868, Note_off_c, 0, 66, 100
2, 271868, Note_off_c, 0, 62, 100
2, 271868, Note_off_c, 0, 69, 100
2, 271872, Note_on_c, 0, 69, 80
2, 271872, Note_on_c, 0, 67, 80
2, 271872, Note_on_c, 0, 61, 80
2, 272252, Note_off_c, 0, 69, 100
2, 272252, Note_off_c, 0, 67, 100
2, 272252, Note_off_c, 0, 61, 100
2, 272256, Note_on_c, 0, 69, 80
2, 272256, Note_on_c, 0, 66, 80
2, 272256, Note_on_c, 0, 62, 80
2, 273020, Note_off_c, 0, 69, 100
2, 273020, Note_off_c, 0, 66, 100
2, 273020, Note_off_c, 0, 62, 100
2, 275328, Note_on_c, 0, 69, 70
2, 275328, Note_on_c, 0, 67, 70
2, 275328, Note_on_c, 0, 57, 70
2, 275708, Note_off_c, 0, 69, 100
2, 275708, Note_off_c, 0, 67, 100
2, 275708, Note_off_c, 0, 57, 100
2, 275712, Note_on_c, 0, 57, 70
2, 275712, Note_on_c, 0, 69, 70
2, 275712, Note_on_c, 0, 67, 70
2, 276092, Note_off_c, 0, 57, 100
2, 276092, Note_off_c, 0, 69, 100
2, 276096, Note_on_c, 0, 71, 70
2, 276096, Note_on_c, 0, 59, 70
2, 276476, Note_off_c, 0, 67, 100
2, 276476, Note_off_c, 0, 71, 100
2, 276476, Note_off_c, 0, 59, 100
2, 276480, Note_on_c, 0, 69, 70
2, 276480, Note_on_c, 0, 67, 70
2, 276480, Note_on_c, 0, 57, 70
2, 276860, Note_off_c, 0, 69, 100
2, 276860, Note_off_c, 0, 67, 100
2, 276860, Note_off_c, 0, 57, 100
2, 276864, Note_on_c, 0, 69, 70
2, 276864, Note_on_c, 0, 66, 70
2, 276864, Note_on_c, 0, 57, 70
2, 277628, Note_off_c, 0, 69, 100
2, 277628, Note_off_c, 0, 66, 100
2, 277628, Note_off_c, 0, 57, 100
2, 279936, Note_on_c, 0, 69, 70
2, 279936, Note_on_c, 0, 67, 70
2, 279936, Note_on_c, 0, 57, 70
2, 280316, Note_off_c, 0, 69, 100
2, 280316, Note_off_c, 0, 67, 100
2, 280316, Note_off_c, 0, 57, 100
2, 280320, Note_on_c, 0, 57, 70
2, 280320, Note_on_c, 0, 69, 70
2, 280320, Note_on_c, 0, 67, 70
2, 280700, Note_off_c, 0, 57, 100
2, 280700, Note_off_c, 0, 69, 100
2, 280704, Note_on_c, 0, 70, 70
2, 280704, Note_on_c, 0, 58, 70
2, 281084, Note_off_c, 0, 67, 100
2, 281084, Note_off_c, 0, 70, 100
2, 281084, Note_off_c, 0, 58, 100
2, 281088, Note_on_c, 0, 69, 70
2, 281088, Note_on_c, 0, 67, 70
2, 281088, Note_on_c, 0, 57, 70
2, 281468, Note_off_c, 0, 69, 100
2, 281468, Note_off_c, 0, 67, 100
2, 281468, Note_off_c, 0, 57, 100
2, 281472, Note_on_c, 0, 66, 70
2, 281472, Note_on_c, 0, 69, 70
2, 281472, Note_on_c, 0, 57, 70
2, 281852, Note_off_c, 0, 69, 100
2, 281852, Note_off_c, 0, 57, 100
2, 281856, Note_on_c, 0, 68, 70
2, 281856, Note_on_c, 0, 56, 70
2, 282236, Note_off_c, 0, 66, 100
2, 282236, Note_off_c, 0, 68, 100
2, 282236, Note_off_c, 0, 56, 100
2, 282240, Note_on_c, 0, 69, 70
2, 282240, Note_on_c, 0, 66, 70
2, 282240, Note_on_c, 0, 57, 70
2, 282620, Note_off_c, 0, 69, 100
2, 282620, Note_off_c, 0, 66, 100
2, 282620, Note_off_c, 0, 57, 100
2, 282624, Note_on_c, 0, 67, 70
2, 282624, Note_on_c, 0, 69, 70
2, 282624, Note_on_c, 0, 57, 70
2, 283004, Note_off_c, 0, 69, 100
2, 283004, Note_off_c, 0, 57, 100
2, 283008, Note_on_c, 0, 71, 70
2, 283008, Note_on_c, 0, 59, 70
2, 283388, Note_off_c, 0, 67, 100
2, 283388, Note_off_c, 0, 71, 100
2, 283388, Note_off_c, 0, 59, 100
2, 283392, Note_on_c, 0, 69, 70
2, 283392, Note_on_c, 0, 67, 70
2, 283392, Note_on_c, 0, 57, 70
2, 283772, Note_off_c, 0, 69, 100
2, 283772, Note_off_c, 0, 67, 100
2, 283772, Note_off_c, 0, 57, 100
2, 283776, Note_on_c, 0, 67, 70
2, 283776, Note_on_c, 0, 69, 70
2, 283776, Note_on_c, 0, 57, 70
2, 284924, Note_off_c, 0, 67, 100
2, 284928, Note_on_c, 0, 66, 70
2, 285308, Note_off_c, 0, 57, 100
2, 285308, Note_off_c, 0, 69, 100
2, 285308, Note_off_c, 0, 66, 100
2, 286080, Control_c, 0, 7, 0
2, 287232, Note_on_c, 0, 62, 1
2, 287420, Note_off_c, 0, 62, 100
2, 287420, End_track
3, 0, Start_track
3, 0, Title_t, "Left"
3, 0, Control_c, 1, 0, 0
3, 0, Program_c, 1, 0
3, 0, Control_c, 1, 7, 100
3, 0, Control_c, 1, 10, 59
3, 0, Control_c, 1, 91, 127
3, 0, Key_signature, 2, "major"
3, 384, Note_on_c, 1, 57, 80
3, 384, Note_on_c, 1, 50, 80
3, 1532, Note_off_c, 1, 57, 100
3, 1532, Note_off_c, 1, 50, 100
3, 1536, Note_on_c, 1, 57, 80
3, 1536, Note_on_c, 1, 52, 80
3, 2684, Note_off_c, 1, 57, 100
3, 2684, Note_off_c, 1, 52, 100
3, 2688, Note_on_c, 1, 57, 80
3, 2688, Note_on_c, 1, 54, 80
3, 3836, Note_off_c, 1, 57, 100
3, 3836, Note_off_c, 1, 54, 100
3, 3840, Note_on_c, 1, 57, 80
3, 3840, Note_on_c, 1, 50, 80
3, 4988, Note_off_c, 1, 57, 100
3, 4988, Note_off_c, 1, 50, 100
3, 4992, Note_on_c, 1, 49, 80
3, 4992, Note_on_c, 1, 57, 80
3, 5756, Note_off_c, 1, 49, 100
3, 5760, Note_on_c, 1, 45, 80
3, 6140, Note_off_c, 1, 57, 100
3, 6140, Note_off_c, 1, 45, 100
3, 6144, Note_on_c, 1, 50, 80
3, 6908, Note_off_c, 1, 50, 100
3, 6912, Note_on_c, 1, 43, 80
3, 7292, Note_off_c, 1, 43, 100
3, 7296, Note_on_c, 1, 45, 80
3, 8060, Note_off_c, 1, 45, 100
3, 8064, Note_on_c, 1, 57, 80
3, 8828, Note_off_c, 1, 57, 100
3, 8832, Note_on_c, 1, 55, 80
3, 9212, Note_off_c, 1, 55, 99
3, 9216, Note_on_c, 1, 54, 80
3, 9596, Note_off_c, 1, 54, 99
3, 9600, Note_on_c, 1, 59, 80
3, 9600, Note_on_c, 1, 55, 80
3, 9600, Note_on_c, 1, 52, 80
3, 10748, Note_off_c, 1, 59, 100
3, 10748, Note_off_c, 1, 55, 100
3, 10748, Note_off_c, 1, 52, 100
3, 10752, Note_on_c, 1, 63, 80
3, 10752, Note_on_c, 1, 59, 80
3, 10752, Note_on_c, 1, 57, 80
3, 10752, Note_on_c, 1, 54, 80
3, 11900, Note_off_c, 1, 63, 100
3, 11900, Note_off_c, 1, 59, 100
3, 11900, Note_off_c, 1, 57, 100
3, 11900, Note_off_c, 1, 54, 100
3, 11904, Note_on_c, 1, 64, 80
3, 11904, Note_on_c, 1, 59, 80
3, 11904, Note_on_c, 1, 55, 80
3, 13052, Note_off_c, 1, 64, 100
3, 13052, Note_off_c, 1, 59, 100
3, 13052, Note_off_c, 1, 55, 100
3, 13056, Note_on_c, 1, 61, 80
3, 13056, Note_on_c, 1, 57, 80
3, 13056, Note_on_c, 1, 55, 80
3, 13056, Note_on_c, 1, 52, 80
3, 14204, Note_off_c, 1, 61, 100
3, 14204, Note_off_c, 1, 57, 100
3, 14204, Note_off_c, 1, 55, 100
3, 14204, Note_off_c, 1, 52, 100
3, 14208, Note_on_c, 1, 62, 80
3, 14208, Note_on_c, 1, 57, 80
3, 14208, Note_on_c, 1, 54, 80
3, 14972, Note_off_c, 1, 62, 100
3, 14972, Note_off_c, 1, 57, 100
3, 14972, Note_off_c, 1, 54, 100
3, 14976, Note_on_c, 1, 50, 80
3, 15356, Note_off_c, 1, 50, 100
3, 15360, Note_on_c, 1, 57, 80
3, 16124, Note_off_c, 1, 57, 100
3, 16128, Note_on_c, 1, 45, 80
3, 16508, Note_off_c, 1, 45, 100
3, 16512, Note_on_c, 1, 38, 80
3, 17280, Note_on_c, 1, 45, 80
3, 17660, Note_off_c, 1, 45, 100
3, 17664, Note_on_c, 1, 50, 80
3, 18044, Note_off_c, 1, 38, 100
3, 18044, Note_off_c, 1, 50, 100
3, 18816, Note_on_c, 1, 57, 80
3, 18816, Note_on_c, 1, 50, 80
3, 19964, Note_off_c, 1, 57, 100
3, 19964, Note_off_c, 1, 50, 100
3, 19968, Note_on_c, 1, 57, 80
3, 19968, Note_on_c, 1, 52, 80
3, 21116, Note_off_c, 1, 57, 100
3, 21116, Note_off_c, 1, 52, 100
3, 21120, Note_on_c, 1, 57, 80
3, 21120, Note_on_c, 1, 54, 80
3, 22268, Note_off_c, 1, 57, 100
3, 22268, Note_off_c, 1, 54, 100
3, 22272, Note_on_c, 1, 57, 80
3, 22272, Note_on_c, 1, 50, 80
3, 23420, Note_off_c, 1, 57, 100
3, 23420, Note_off_c, 1, 50, 100
3, 23424, Note_on_c, 1, 49, 80
3, 23424, Note_on_c, 1, 57, 80
3, 24188, Note_off_c, 1, 49, 100
3, 24192, Note_on_c, 1, 45, 80
3, 24572, Note_off_c, 1, 57, 100
3, 24572, Note_off_c, 1, 45, 100
3, 24576, Note_on_c, 1, 50, 80
3, 25340, Note_off_c, 1, 50, 100
3, 25344, Note_on_c, 1, 43, 80
3, 25724, Note_off_c, 1, 43, 100
3, 25728, Note_on_c, 1, 45, 80
3, 26492, Note_off_c, 1, 45, 100
3, 26496, Note_on_c, 1, 57, 80
3, 27260, Note_off_c, 1, 57, 100
3, 27264, Note_on_c, 1, 55, 80
3, 27644, Note_off_c, 1, 55, 99
3, 27648, Note_on_c, 1, 54, 80
3, 28028, Note_off_c, 1, 54, 99
3, 28032, Note_on_c, 1, 59, 80
3, 28032, Note_on_c, 1, 55, 80
3, 28032, Note_on_c, 1, 52, 80
3, 29180, Note_off_c, 1, 59, 100
3, 29180, Note_off_c, 1, 55, 100
3, 29180, Note_off_c, 1, 52, 100
3, 29184, Note_on_c, 1, 63, 80
3, 29184, Note_on_c, 1, 59, 80
3, 29184, Note_on_c, 1, 57, 80
3, 29184, Note_on_c, 1, 54, 80
3, 30332, Note_off_c, 1, 63, 100
3, 30332, Note_off_c, 1, 59, 100
3, 30332, Note_off_c, 1, 57, 100
3, 30332, Note_off_c, 1, 54, 100
3, 30336, Note_on_c, 1, 64, 80
3, 30336, Note_on_c, 1, 59, 80
3, 30336, Note_on_c, 1, 55, 80
3, 31484, Note_off_c, 1, 64, 100
3, 31484, Note_off_c, 1, 59, 100
3, 31484, Note_off_c, 1, 55, 100
3, 31488, Note_on_c, 1, 61, 80
3, 31488, Note_on_c, 1, 57, 80
3, 31488, Note_on_c, 1, 55, 80
3, 31488, Note_on_c, 1, 52, 80
3, 32636, Note_off_c, 1, 61, 100
3, 32636, Note_off_c, 1, 57, 100
3, 32636, Note_off_c, 1, 55, 100
3, 32636, Note_off_c, 1, 52, 100
3, 32640, Note_on_c, 1, 62, 80
3, 32640, Note_on_c, 1, 57, 80
3, 32640, Note_on_c, 1, 54, 80
3, 33404, Note_off_c, 1, 62, 100
3, 33404, Note_off_c, 1, 57, 100
3, 33404, Note_off_c, 1, 54, 100
3, 33408, Note_on_c, 1, 50, 80
3, 33788, Note_off_c, 1, 50, 100
3, 33792, Note_on_c, 1, 57, 80
3, 34556, Note_off_c, 1, 57, 100
3, 34560, Note_on_c, 1, 45, 80
3, 34940, Note_off_c, 1, 45, 100
3, 34944, Note_on_c, 1, 38, 80
3, 35712, Note_on_c, 1, 45, 80
3, 36092, Note_off_c, 1, 45, 100
3, 36096, Note_on_c, 1, 50, 80
3, 36476, Note_off_c, 1, 38, 100
3, 36476, Note_off_c, 1, 50, 100
3, 36864, Note_on_c, 1, 30, 80
3, 37244, Note_off_c, 1, 30, 100
3, 37248, Note_on_c, 1, 42, 99
3, 38012, Note_off_c, 1, 42, 100
3, 38016, Note_on_c, 1, 41, 80
3, 38204, Note_off_c, 1, 41, 100
3, 38208, Note_on_c, 1, 42, 80
3, 38396, Note_off_c, 1, 42, 100
3, 38400, Note_on_c, 1, 43, 80
3, 38588, Note_off_c, 1, 43, 100
3, 38592, Note_on_c, 1, 42, 80
3, 38780, Note_off_c, 1, 42, 100
3, 38784, Note_on_c, 1, 40, 80
3, 38972, Note_off_c, 1, 40, 100
3, 38976, Note_on_c, 1, 38, 80
3, 39164, Note_off_c, 1, 38, 100
3, 39168, Note_on_c, 1, 37, 80
3, 39356, Note_off_c, 1, 37, 100
3, 39360, Note_on_c, 1, 42, 80
3, 39548, Note_off_c, 1, 42, 100
3, 39552, Note_on_c, 1, 38, 80
3, 39932, Note_off_c, 1, 38, 100
3, 39936, Note_on_c, 1, 35, 80
3, 40316, Note_off_c, 1, 35, 100
3, 41856, Note_on_c, 1, 56, 80
3, 42236, Note_off_c, 1, 56, 100
3, 42240, Note_on_c, 1, 52, 80
3, 42620, Note_off_c, 1, 52, 100
3, 44160, Note_on_c, 1, 69, 102
3, 44924, Note_off_c, 1, 69, 100
3, 44928, Note_on_c, 1, 68, 80
3, 45116, Note_off_c, 1, 68, 100
3, 45120, Note_on_c, 1, 69, 80
3, 45308, Note_off_c, 1, 69, 100
3, 45312, Note_on_c, 1, 71, 80
3, 45500, Note_off_c, 1, 71, 100
3, 45504, Note_on_c, 1, 69, 80
3, 45692, Note_off_c, 1, 69, 100
3, 45696, Note_on_c, 1, 67, 80
3, 45884, Note_off_c, 1, 67, 100
3, 45888, Note_on_c, 1, 66, 80
3, 46076, Note_off_c, 1, 66, 100
3, 46080, Note_on_c, 1, 67, 80
3, 46268, Note_off_c, 1, 67, 100
3, 46272, Note_on_c, 1, 64, 80
3, 46460, Note_off_c, 1, 64, 100
3, 46464, Note_on_c, 1, 62, 80
3, 46464, Note_on_c, 1, 66, 80
3, 47612, Note_off_c, 1, 62, 100
3, 47612, Note_off_c, 1, 66, 100
3, 47616, Note_on_c, 1, 74, 80
3, 47616, Note_on_c, 1, 64, 80
3, 47616, Note_on_c, 1, 67, 80
3, 47996, Note_off_c, 1, 74, 100
3, 48000, Note_on_c, 1, 73, 80
3, 48380, Note_off_c, 1, 73, 100
3, 48384, Note_on_c, 1, 76, 80
3, 48764, Note_off_c, 1, 64, 100
3, 48764, Note_off_c, 1, 67, 100
3, 48764, Note_off_c, 1, 76, 100
3, 48768, Note_on_c, 1, 69, 80
3, 48768, Note_on_c, 1, 74, 80
3, 48768, Note_on_c, 1, 66, 80
3, 49148, Note_off_c, 1, 74, 100
3, 49152, Note_on_c, 1, 73, 80
3, 49532, Note_off_c, 1, 73, 100
3, 49536, Note_on_c, 1, 71, 80
3, 49916, Note_off_c, 1, 69, 100
3, 49916, Note_off_c, 1, 71, 100
3, 49920, Note_on_c, 1, 69, 80
3, 50300, Note_off_c, 1, 69, 100
3, 50304, Note_on_c, 1, 70, 80
3, 50684, Note_off_c, 1, 66, 100
3, 50684, Note_off_c, 1, 70, 100
3, 50688, Note_on_c, 1, 71, 80
3, 50688, Note_on_c, 1, 63, 80
3, 51068, Note_off_c, 1, 71, 100
3, 51068, Note_off_c, 1, 63, 100
3, 51072, Note_on_c, 1, 69, 80
3, 51072, Note_on_c, 1, 64, 80
3, 51452, Note_off_c, 1, 69, 100
3, 51456, Note_on_c, 1, 67, 80
3, 51836, Note_off_c, 1, 64, 100
3, 51836, Note_off_c, 1, 67, 100
3, 51840, Note_on_c, 1, 69, 80
3, 51840, Note_on_c, 1, 61, 80
3, 52220, Note_off_c, 1, 69, 100
3, 52220, Note_off_c, 1, 61, 100
3, 52224, Note_on_c, 1, 62, 80
3, 52224, Note_on_c, 1, 67, 80
3, 52604, Note_off_c, 1, 67, 100
3, 52608, Note_on_c, 1, 66, 80
3, 52988, Note_off_c, 1, 62, 100
3, 52988, Note_off_c, 1, 66, 100
3, 52992, Note_on_c, 1, 67, 80
3, 52992, Note_on_c, 1, 59, 80
3, 53372, Note_off_c, 1, 67, 100
3, 53372, Note_off_c, 1, 59, 100
3, 53760, Note_on_c, 1, 45, 110
3, 54140, Note_off_c, 1, 45, 100
3, 54144, Note_on_c, 1, 57, 103
3, 54908, Note_off_c, 1, 57, 100
3, 54912, Note_on_c, 1, 55, 88
3, 55292, Note_off_c, 1, 55, 99
3, 55296, Note_on_c, 1, 54, 80
3, 55676, Note_off_c, 1, 54, 99
3, 55680, Note_on_c, 1, 59, 82
3, 55680, Note_on_c, 1, 55, 82
3, 55680, Note_on_c, 1, 52, 82
3, 56828, Note_off_c, 1, 59, 100
3, 56828, Note_off_c, 1, 55, 100
3, 56828, Note_off_c, 1, 52, 100
3, 56832, Note_on_c, 1, 63, 88
3, 56832, Note_on_c, 1, 57, 88
3, 56832, Note_on_c, 1, 54, 88
3, 56832, Note_on_c, 1, 59, 88
3, 57980, Note_off_c, 1, 63, 100
3, 57980, Note_off_c, 1, 57, 100
3, 57980, Note_off_c, 1, 54, 100
3, 57980, Note_off_c, 1, 59, 100
3, 57984, Note_on_c, 1, 62, 95
3, 57984, Note_on_c, 1, 59, 95
3, 57984, Note_on_c, 1, 55, 95
3, 59132, Note_off_c, 1, 62, 100
3, 59132, Note_off_c, 1, 59, 100
3, 59132, Note_off_c, 1, 55, 100
3, 59136, Note_on_c, 1, 66, 101
3, 59136, Note_on_c, 1, 62, 101
3, 59136, Note_on_c, 1, 60, 101
3, 59136, Note_on_c, 1, 57, 101
3, 60284, Note_off_c, 1, 66, 100
3, 60284, Note_off_c, 1, 62, 100
3, 60284, Note_off_c, 1, 60, 100
3, 60284, Note_off_c, 1, 57, 100
3, 60288, Note_on_c, 1, 67, 107
3, 60288, Note_on_c, 1, 62, 107
3, 60288, Note_on_c, 1, 59, 107
3, 61436, Note_off_c, 1, 67, 100
3, 61436, Note_off_c, 1, 62, 100
3, 61436, Note_off_c, 1, 59, 100
3, 61440, Note_on_c, 1, 68, 110
3, 61440, Note_on_c, 1, 64, 110
3, 61440, Note_on_c, 1, 62, 110
3, 61440, Note_on_c, 1, 58, 110
3, 62588, Note_off_c, 1, 68, 100
3, 62588, Note_off_c, 1, 64, 100
3, 62588, Note_off_c, 1, 62, 100
3, 62588, Note_off_c, 1, 58, 100
3, 62592, Note_on_c, 1, 57, 80
3, 62592, Note_on_c, 1, 61, 80
3, 63356, Note_off_c, 1, 57, 100
3, 63356, Note_off_c, 1, 61, 100
3, 63360, Note_on_c, 1, 62, 80
3, 63360, Note_on_c, 1, 59, 80
3, 63740, Note_off_c, 1, 62, 100
3, 63740, Note_off_c, 1, 59, 100
3, 63744, Note_on_c, 1, 61, 80
3, 63744, Note_on_c, 1, 64, 80
3, 64508, Note_off_c, 1, 61, 100
3, 64508, Note_off_c, 1, 64, 100
3, 64512, Note_on_c, 1, 62, 80
3, 64512, Note_on_c, 1, 66, 80
3, 64892, Note_off_c, 1, 62, 100
3, 64892, Note_off_c, 1, 66, 100
3, 64896, Note_on_c, 1, 55, 80
3, 65660, Note_off_c, 1, 55, 100
3, 65664, Note_on_c, 1, 56, 80
3, 66044, Note_off_c, 1, 56, 100
3, 66048, Note_on_c, 1, 57, 80
3, 66812, Note_off_c, 1, 57, 100
3, 66816, Note_on_c, 1, 45, 80
3, 67196, Note_off_c, 1, 45, 100
3, 67200, Note_on_c, 1, 38, 80
3, 67968, Note_on_c, 1, 45, 70
3, 68348, Note_off_c, 1, 45, 100
3, 68352, Note_on_c, 1, 45, 70
3, 68732, Note_off_c, 1, 38, 100
3, 68732, Note_off_c, 1, 45, 100
3, 68736, Note_on_c, 1, 54, 70
3, 69116, Note_off_c, 1, 54, 100
3, 69120, Note_on_c, 1, 52, 70
3, 69500, Note_off_c, 1, 52, 100
3, 69504, Note_on_c, 1, 40, 70
3, 69504, Note_on_c, 1, 50, 70
3, 70652, Note_off_c, 1, 50, 100
3, 70656, Note_on_c, 1, 49, 70
3, 71804, Note_off_c, 1, 40, 100
3, 71804, Note_off_c, 1, 49, 100
3, 71808, Note_on_c, 1, 38, 70
3, 72576, Note_on_c, 1, 45, 70
3, 72956, Note_off_c, 1, 45, 100
3, 72960, Note_on_c, 1, 45, 70
3, 73340, Note_off_c, 1, 38, 100
3, 73340, Note_off_c, 1, 45, 100
3, 73344, Note_on_c, 1, 54, 70
3, 73724, Note_off_c, 1, 54, 100
3, 73728, Note_on_c, 1, 52, 70
3, 74108, Note_off_c, 1, 52, 100
3, 74112, Note_on_c, 1, 40, 70
3, 74112, Note_on_c, 1, 50, 70
3, 75260, Note_off_c, 1, 50, 100
3, 75264, Note_on_c, 1, 49, 70
3, 76412, Note_off_c, 1, 40, 100
3, 76412, Note_off_c, 1, 49, 100
3, 76416, Note_on_c, 1, 50, 70
3, 76416, Note_on_c, 1, 38, 70
3, 77564, Note_off_c, 1, 50, 100
3, 77564, Note_off_c, 1, 38, 100
3, 77568, Note_on_c, 1, 49, 70
3, 77568, Note_on_c, 1, 40, 70
3, 78716, Note_off_c, 1, 49, 100
3, 78716, Note_off_c, 1, 40, 100
3, 78720, Note_on_c, 1, 49, 70
3, 78720, Note_on_c, 1, 38, 70
3, 79868, Note_off_c, 1, 49, 100
3, 79872, Note_on_c, 1, 50, 70
3, 80252, Note_off_c, 1, 38, 100
3, 80252, Note_off_c, 1, 50, 100
3, 80640, Note_on_c, 1, 30, 80
3, 81020, Note_off_c, 1, 30, 100
3, 81024, Note_on_c, 1, 42, 100
3, 81788, Note_off_c, 1, 42, 100
3, 81792, Note_on_c, 1, 41, 80
3, 81980, Note_off_c, 1, 41, 100
3, 81984, Note_on_c, 1, 42, 80
3, 82172, Note_off_c, 1, 42, 100
3, 82176, Note_on_c, 1, 43, 80
3, 82364, Note_off_c, 1, 43, 100
3, 82368, Note_on_c, 1, 42, 80
3, 82556, Note_off_c, 1, 42, 100
3, 82560, Note_on_c, 1, 40, 80
3, 82748, Note_off_c, 1, 40, 100
3, 82752, Note_on_c, 1, 38, 80
3, 82940, Note_off_c, 1, 38, 100
3, 82944, Note_on_c, 1, 37, 80
3, 83132, Note_off_c, 1, 37, 100
3, 83136, Note_on_c, 1, 42, 80
3, 83324, Note_off_c, 1, 42, 100
3, 83328, Note_on_c, 1, 38, 80
3, 83708, Note_off_c, 1, 38, 100
3, 83712, Note_on_c, 1, 35, 80
3, 84092, Note_off_c, 1, 35, 100
3, 85632, Note_on_c, 1, 56, 80
3, 86012, Note_off_c, 1, 56, 100
3, 86016, Note_on_c, 1, 52, 80
3, 86396, Note_off_c, 1, 52, 100
3, 87936, Note_on_c, 1, 69, 101
3, 88700, Note_off_c, 1, 69, 100
3, 88704, Note_on_c, 1, 68, 80
3, 88892, Note_off_c, 1, 68, 100
3, 88896, Note_on_c, 1, 69, 80
3, 89084, Note_off_c, 1, 69, 100
3, 89088, Note_on_c, 1, 71, 80
3, 89276, Note_off_c, 1, 71, 100
3, 89280, Note_on_c, 1, 69, 80
3, 89468, Note_off_c, 1, 69, 100
3, 89472, Note_on_c, 1, 67, 80
3, 89660, Note_off_c, 1, 67, 100
3, 89664, Note_on_c, 1, 66, 80
3, 89852, Note_off_c, 1, 66, 100
3, 89856, Note_on_c, 1, 67, 80
3, 90044, Note_off_c, 1, 67, 100
3, 90048, Note_on_c, 1, 64, 80
3, 90236, Note_off_c, 1, 64, 100
3, 90240, Note_on_c, 1, 62, 80
3, 90240, Note_on_c, 1, 66, 80
3, 91388, Note_off_c, 1, 62, 100
3, 91388, Note_off_c, 1, 66, 100
3, 91392, Note_on_c, 1, 74, 80
3, 91392, Note_on_c, 1, 64, 80
3, 91392, Note_on_c, 1, 67, 80
3, 91772, Note_off_c, 1, 74, 100
3, 91776, Note_on_c, 1, 73, 80
3, 92156, Note_off_c, 1, 73, 100
3, 92160, Note_on_c, 1, 76, 80
3, 92540, Note_off_c, 1, 64, 100
3, 92540, Note_off_c, 1, 67, 100
3, 92540, Note_off_c, 1, 76, 100
3, 92544, Note_on_c, 1, 69, 80
3, 92544, Note_on_c, 1, 74, 80
3, 92544, Note_on_c, 1, 66, 80
3, 92924, Note_off_c, 1, 74, 100
3, 92928, Note_on_c, 1, 73, 80
3, 93308, Note_off_c, 1, 73, 100
3, 93312, Note_on_c, 1, 71, 80
3, 93692, Note_off_c, 1, 69, 100
3, 93692, Note_off_c, 1, 71, 100
3, 93696, Note_on_c, 1, 69, 80
3, 94076, Note_off_c, 1, 69, 100
3, 94080, Note_on_c, 1, 70, 80
3, 94460, Note_off_c, 1, 66, 100
3, 94460, Note_off_c, 1, 70, 100
3, 94464, Note_on_c, 1, 71, 80
3, 94464, Note_on_c, 1, 63, 80
3, 94844, Note_off_c, 1, 71, 100
3, 94844, Note_off_c, 1, 63, 100
3, 94848, Note_on_c, 1, 69, 80
3, 94848, Note_on_c, 1, 64, 80
3, 95228, Note_off_c, 1, 69, 100
3, 95232, Note_on_c, 1, 67, 80
3, 95612, Note_off_c, 1, 64, 100
3, 95612, Note_off_c, 1, 67, 100
3, 95616, Note_on_c, 1, 69, 80
3, 95616, Note_on_c, 1, 61, 80
3, 95996, Note_off_c, 1, 69, 100
3, 95996, Note_off_c, 1, 61, 100
3, 96000, Note_on_c, 1, 62, 80
3, 96000, Note_on_c, 1, 67, 80
3, 96380, Note_off_c, 1, 67, 100
3, 96384, Note_on_c, 1, 66, 80
3, 96764, Note_off_c, 1, 62, 100
3, 96764, Note_off_c, 1, 66, 100
3, 96768, Note_on_c, 1, 67, 80
3, 96768, Note_on_c, 1, 59, 80
3, 97148, Note_off_c, 1, 67, 100
3, 97148, Note_off_c, 1, 59, 100
3, 97536, Note_on_c, 1, 45, 120
3, 97916, Note_off_c, 1, 45, 100
3, 97920, Note_on_c, 1, 57, 113
3, 98684, Note_off_c, 1, 57, 100
3, 98688, Note_on_c, 1, 55, 98
3, 99068, Note_off_c, 1, 55, 99
3, 99072, Note_on_c, 1, 54, 91
3, 99452, Note_off_c, 1, 54, 99
3, 99456, Note_on_c, 1, 59, 80
3, 99456, Note_on_c, 1, 55, 80
3, 99456, Note_on_c, 1, 52, 80
3, 100604, Note_off_c, 1, 59, 100
3, 100604, Note_off_c, 1, 55, 100
3, 100604, Note_off_c, 1, 52, 100
3, 100608, Note_on_c, 1, 63, 80
3, 100608, Note_on_c, 1, 57, 80
3, 100608, Note_on_c, 1, 54, 80
3, 100608, Note_on_c, 1, 59, 80
3, 101756, Note_off_c, 1, 63, 100
3, 101756, Note_off_c, 1, 57, 100
3, 101756, Note_off_c, 1, 54, 100
3, 101756, Note_off_c, 1, 59, 100
3, 101760, Note_on_c, 1, 62, 80
3, 101760, Note_on_c, 1, 59, 80
3, 101760, Note_on_c, 1, 55, 80
3, 102908, Note_off_c, 1, 62, 100
3, 102908, Note_off_c, 1, 59, 100
3, 102908, Note_off_c, 1, 55, 100
3, 102912, Note_on_c, 1, 66, 88
3, 102912, Note_on_c, 1, 62, 88
3, 102912, Note_on_c, 1, 60, 88
3, 102912, Note_on_c, 1, 57, 88
3, 104060, Note_off_c, 1, 66, 100
3, 104060, Note_off_c, 1, 62, 100
3, 104060, Note_off_c, 1, 60, 100
3, 104060, Note_off_c, 1, 57, 100
3, 104064, Note_on_c, 1, 67, 96
3, 104064, Note_on_c, 1, 62, 96
3, 104064, Note_on_c, 1, 59, 96
3, 105212, Note_off_c, 1, 67, 100
3, 105212, Note_off_c, 1, 62, 100
3, 105212, Note_off_c, 1, 59, 100
3, 105216, Note_on_c, 1, 68, 104
3, 105216, Note_on_c, 1, 64, 104
3, 105216, Note_on_c, 1, 62, 104
3, 105216, Note_on_c, 1, 58, 104
3, 106364, Note_off_c, 1, 68, 100
3, 106364, Note_off_c, 1, 64, 100
3, 106364, Note_off_c, 1, 62, 100
3, 106364, Note_off_c, 1, 58, 100
3, 106368, Note_on_c, 1, 57, 90
3, 106368, Note_on_c, 1, 61, 92
3, 107132, Note_off_c, 1, 57, 100
3, 107132, Note_off_c, 1, 61, 100
3, 107136, Note_on_c, 1, 62, 80
3, 107136, Note_on_c, 1, 59, 80
3, 107516, Note_off_c, 1, 62, 100
3, 107516, Note_off_c, 1, 59, 100
3, 107520, Note_on_c, 1, 61, 80
3, 107520, Note_on_c, 1, 64, 80
3, 108284, Note_off_c, 1, 61, 100
3, 108284, Note_off_c, 1, 64, 100
3, 108288, Note_on_c, 1, 62, 80
3, 108288, Note_on_c, 1, 66, 80
3, 108668, Note_off_c, 1, 62, 100
3, 108668, Note_off_c, 1, 66, 100
3, 108672, Note_on_c, 1, 55, 80
3, 109436, Note_off_c, 1, 55, 100
3, 109440, Note_on_c, 1, 56, 80
3, 109820, Note_off_c, 1, 56, 100
3, 109824, Note_on_c, 1, 57, 80
3, 110588, Note_off_c, 1, 57, 100
3, 110592, Note_on_c, 1, 45, 80
3, 110972, Note_off_c, 1, 45, 100
3, 110976, Note_on_c, 1, 38, 80
3, 111744, Note_on_c, 1, 45, 70
3, 112124, Note_off_c, 1, 45, 100
3, 112128, Note_on_c, 1, 45, 70
3, 112508, Note_off_c, 1, 38, 100
3, 112508, Note_off_c, 1, 45, 100
3, 112512, Note_on_c, 1, 54, 70
3, 112892, Note_off_c, 1, 54, 100
3, 112896, Note_on_c, 1, 52, 70
3, 113276, Note_off_c, 1, 52, 100
3, 113280, Note_on_c, 1, 40, 70
3, 113280, Note_on_c, 1, 50, 70
3, 114428, Note_off_c, 1, 50, 100
3, 114432, Note_on_c, 1, 49, 70
3, 115580, Note_off_c, 1, 40, 100
3, 115580, Note_off_c, 1, 49, 100
3, 115584, Note_on_c, 1, 38, 70
3, 116352, Note_on_c, 1, 45, 70
3, 116732, Note_off_c, 1, 45, 100
3, 116736, Note_on_c, 1, 45, 70
3, 117116, Note_off_c, 1, 38, 100
3, 117116, Note_off_c, 1, 45, 100
3, 117120, Note_on_c, 1, 54, 70
3, 117500, Note_off_c, 1, 54, 100
3, 117504, Note_on_c, 1, 52, 70
3, 117884, Note_off_c, 1, 52, 100
3, 117888, Note_on_c, 1, 40, 70
3, 117888, Note_on_c, 1, 50, 70
3, 119036, Note_off_c, 1, 50, 100
3, 119040, Note_on_c, 1, 49, 70
3, 120188, Note_off_c, 1, 40, 100
3, 120188, Note_off_c, 1, 49, 100
3, 120192, Note_on_c, 1, 50, 70
3, 120192, Note_on_c, 1, 38, 70
3, 121340, Note_off_c, 1, 50, 100
3, 121340, Note_off_c, 1, 38, 100
3, 121344, Note_on_c, 1, 49, 70
3, 121344, Note_on_c, 1, 40, 70
3, 122492, Note_off_c, 1, 49, 100
3, 122492, Note_off_c, 1, 40, 100
3, 122496, Note_on_c, 1, 49, 70
3, 122496, Note_on_c, 1, 38, 70
3, 123644, Note_off_c, 1, 49, 100
3, 123648, Note_on_c, 1, 50, 70
3, 124028, Note_off_c, 1, 38, 100
3, 124028, Note_off_c, 1, 50, 100
3, 124416, Note_on_c, 1, 38, 100
3, 124796, Note_off_c, 1, 38, 100
3, 124800, Key_signature, 1, "major"
3, 124800, Note_on_c, 1, 43, 100
3, 125180, Note_off_c, 1, 43, 100
3, 125568, Note_on_c, 1, 74, 100
3, 125948, Note_off_c, 1, 74, 100
3, 125952, Note_on_c, 1, 79, 100
3, 126332, Note_off_c, 1, 79, 100
3, 126720, Note_on_c, 1, 43, 80
3, 127100, Note_off_c, 1, 43, 100
3, 127104, Note_on_c, 1, 43, 80
3, 127484, Note_off_c, 1, 43, 100
3, 127488, Note_on_c, 1, 42, 80
3, 127868, Note_off_c, 1, 42, 100
3, 127872, Note_on_c, 1, 45, 80
3, 128252, Note_off_c, 1, 45, 100
3, 128256, Note_on_c, 1, 38, 80
3, 128636, Note_off_c, 1, 38, 100
3, 129024, Note_on_c, 1, 38, 100
3, 129404, Note_off_c, 1, 38, 100
3, 129408, Note_on_c, 1, 48, 100
3, 129788, Note_off_c, 1, 48, 100
3, 130176, Note_on_c, 1, 74, 100
3, 130556, Note_off_c, 1, 74, 100
3, 130560, Note_on_c, 1, 84, 100
3, 130940, Note_off_c, 1, 84, 100
3, 131328, Note_on_c, 1, 48, 80
3, 131708, Note_off_c, 1, 48, 100
3, 131712, Note_on_c, 1, 48, 80
3, 132092, Note_off_c, 1, 48, 100
3, 132096, Note_on_c, 1, 47, 80
3, 132476, Note_off_c, 1, 47, 100
3, 132480, Note_on_c, 1, 50, 80
3, 132860, Note_off_c, 1, 50, 100
3, 132864, Note_on_c, 1, 43, 80
3, 133244, Note_off_c, 1, 43, 100
3, 133632, Note_on_c, 1, 35, 100
3, 134012, Note_off_c, 1, 35, 100
3, 134016, Note_on_c, 1, 47, 100
3, 134396, Note_off_c, 1, 47, 100
3, 134784, Note_on_c, 1, 71, 100
3, 135164, Note_off_c, 1, 71, 100
3, 135168, Note_on_c, 1, 83, 100
3, 135548, Note_off_c, 1, 83, 100
3, 135936, Note_on_c, 1, 40, 100
3, 136316, Note_off_c, 1, 40, 100
3, 136320, Note_on_c, 1, 52, 100
3, 136700, Note_off_c, 1, 52, 100
3, 137088, Note_on_c, 1, 76, 100
3, 137468, Note_off_c, 1, 76, 100
3, 137472, Note_on_c, 1, 88, 100
3, 137852, Note_off_c, 1, 88, 100
3, 138240, Note_on_c, 1, 33, 100
3, 138620, Note_off_c, 1, 33, 100
3, 138624, Note_on_c, 1, 55, 100
3, 138624, Note_on_c, 1, 52, 100
3, 138624, Note_on_c, 1, 45, 100
3, 140924, Note_off_c, 1, 45, 100
3, 140924, Note_off_c, 1, 52, 100
3, 140924, Note_off_c, 1, 55, 100
3, 140928, Note_on_c, 1, 54, 80
3, 140928, Note_on_c, 1, 50, 80
3, 141308, Note_off_c, 1, 54, 100
3, 141308, Note_off_c, 1, 50, 100
3, 142848, Note_on_c, 1, 38, 110
3, 143228, Note_off_c, 1, 38, 100
3, 143232, Note_on_c, 1, 43, 110
3, 143612, Note_off_c, 1, 43, 100
3, 144000, Note_on_c, 1, 74, 110
3, 144380, Note_off_c, 1, 74, 100
3, 144384, Note_on_c, 1, 79, 110
3, 144764, Note_off_c, 1, 79, 100
3, 145152, Note_on_c, 1, 43, 80
3, 145532, Note_off_c, 1, 43, 100
3, 145536, Note_on_c, 1, 43, 80
3, 145916, Note_off_c, 1, 43, 100
3, 145920, Note_on_c, 1, 42, 80
3, 146300, Note_off_c, 1, 42, 100
3, 146304, Note_on_c, 1, 45, 80
3, 146684, Note_off_c, 1, 45, 100
3, 146688, Note_on_c, 1, 38, 80
3, 147068, Note_off_c, 1, 38, 100
3, 147456, Note_on_c, 1, 38, 110
3, 147836, Note_off_c, 1, 38, 100
3, 147840, Note_on_c, 1, 48, 110
3, 148220, Note_off_c, 1, 48, 100
3, 148608, Note_on_c, 1, 74, 110
3, 148988, Note_off_c, 1, 74, 100
3, 148992, Note_on_c, 1, 84, 110
3, 149372, Note_off_c, 1, 84, 100
3, 149760, Note_on_c, 1, 48, 80
3, 150140, Note_off_c, 1, 48, 100
3, 150144, Note_on_c, 1, 48, 80
3, 150524, Note_off_c, 1, 48, 100
3, 150528, Note_on_c, 1, 47, 80
3, 150908, Note_off_c, 1, 47, 100
3, 150912, Note_on_c, 1, 50, 80
3, 151292, Note_off_c, 1, 50, 100
3, 151296, Note_on_c, 1, 43, 80
3, 151676, Note_off_c, 1, 43, 100
3, 152064, Note_on_c, 1, 35, 110
3, 152444, Note_off_c, 1, 35, 100
3, 152448, Note_on_c, 1, 47, 110
3, 152828, Note_off_c, 1, 47, 100
3, 153216, Note_on_c, 1, 71, 110
3, 153596, Note_off_c, 1, 71, 100
3, 153600, Note_on_c, 1, 83, 110
3, 153980, Note_off_c, 1, 83, 100
3, 154368, Note_on_c, 1, 40, 110
3, 154748, Note_off_c, 1, 40, 100
3, 154752, Note_on_c, 1, 52, 110
3, 155132, Note_off_c, 1, 52, 100
3, 155520, Note_on_c, 1, 76, 110
3, 155900, Note_off_c, 1, 76, 100
3, 155904, Note_on_c, 1, 88, 110
3, 156284, Note_off_c, 1, 88, 100
3, 156672, Note_on_c, 1, 33, 120
3, 157052, Note_off_c, 1, 33, 100
3, 157056, Note_on_c, 1, 45, 120
3, 157436, Note_off_c, 1, 45, 100
3, 157824, Note_on_c, 1, 45, 120
3, 158204, Note_off_c, 1, 45, 100
3, 158208, Note_on_c, 1, 57, 120
3, 158588, Note_off_c, 1, 57, 100
3, 158976, Note_on_c, 1, 69, 120
3, 159356, Note_off_c, 1, 69, 100
3, 159360, Key_signature, 2, "major"
3, 159360, Note_on_c, 1, 81, 120
3, 159740, Note_off_c, 1, 81, 100
3, 161664, Note_on_c, 1, 57, 80
3, 161664, Note_on_c, 1, 50, 80
3, 162812, Note_off_c, 1, 57, 100
3, 162812, Note_off_c, 1, 50, 100
3, 162816, Note_on_c, 1, 57, 80
3, 162816, Note_on_c, 1, 52, 80
3, 163964, Note_off_c, 1, 57, 100
3, 163964, Note_off_c, 1, 52, 100
3, 163968, Note_on_c, 1, 57, 80
3, 163968, Note_on_c, 1, 54, 80
3, 165116, Note_off_c, 1, 57, 100
3, 165116, Note_off_c, 1, 54, 100
3, 165120, Note_on_c, 1, 57, 80
3, 165120, Note_on_c, 1, 50, 80
3, 166268, Note_off_c, 1, 57, 100
3, 166268, Note_off_c, 1, 50, 100
3, 166272, Note_on_c, 1, 49, 80
3, 166272, Note_on_c, 1, 57, 80
3, 167036, Note_off_c, 1, 49, 100
3, 167040, Note_on_c, 1, 45, 80
3, 167420, Note_off_c, 1, 57, 100
3, 167420, Note_off_c, 1, 45, 100
3, 167424, Note_on_c, 1, 50, 80
3, 168188, Note_off_c, 1, 50, 100
3, 168192, Note_on_c, 1, 43, 80
3, 168572, Note_off_c, 1, 43, 100
3, 168576, Note_on_c, 1, 45, 80
3, 169340, Note_off_c, 1, 45, 100
3, 169344, Note_on_c, 1, 57, 98
3, 170108, Note_off_c, 1, 57, 100
3, 170112, Note_on_c, 1, 55, 80
3, 170492, Note_off_c, 1, 55, 100
3, 170496, Note_on_c, 1, 54, 80
3, 170876, Note_off_c, 1, 54, 100
3, 170880, Note_on_c, 1, 59, 80
3, 170880, Note_on_c, 1, 55, 80
3, 170880, Note_on_c, 1, 52, 80
3, 172028, Note_off_c, 1, 59, 100
3, 172028, Note_off_c, 1, 55, 100
3, 172028, Note_off_c, 1, 52, 100
3, 172032, Note_on_c, 1, 63, 80
3, 172032, Note_on_c, 1, 59, 80
3, 172032, Note_on_c, 1, 57, 80
3, 172032, Note_on_c, 1, 54, 80
3, 173180, Note_off_c, 1, 63, 100
3, 173180, Note_off_c, 1, 59, 100
3, 173180, Note_off_c, 1, 57, 100
3, 173180, Note_off_c, 1, 54, 100
3, 173184, Note_on_c, 1, 64, 80
3, 173184, Note_on_c, 1, 59, 80
3, 173184, Note_on_c, 1, 55, 80
3, 174332, Note_off_c, 1, 64, 100
3, 174332, Note_off_c, 1, 59, 100
3, 174332, Note_off_c, 1, 55, 100
3, 174336, Note_on_c, 1, 61, 80
3, 174336, Note_on_c, 1, 57, 80
3, 174336, Note_on_c, 1, 55, 80
3, 174336, Note_on_c, 1, 52, 80
3, 175484, Note_off_c, 1, 61, 100
3, 175484, Note_off_c, 1, 57, 100
3, 175484, Note_off_c, 1, 55, 100
3, 175484, Note_off_c, 1, 52, 100
3, 175488, Note_on_c, 1, 62, 80
3, 175488, Note_on_c, 1, 57, 80
3, 175488, Note_on_c, 1, 54, 80
3, 176252, Note_off_c, 1, 62, 100
3, 176252, Note_off_c, 1, 57, 100
3, 176252, Note_off_c, 1, 54, 100
3, 176256, Note_on_c, 1, 50, 80
3, 176636, Note_off_c, 1, 50, 100
3, 176640, Note_on_c, 1, 57, 80
3, 177404, Note_off_c, 1, 57, 100
3, 177408, Note_on_c, 1, 45, 80
3, 177788, Note_off_c, 1, 45, 100
3, 177792, Note_on_c, 1, 38, 80
3, 178560, Note_on_c, 1, 45, 80
3, 178940, Note_off_c, 1, 45, 100
3, 178944, Note_on_c, 1, 50, 80
3, 179324, Note_off_c, 1, 38, 100
3, 179324, Note_off_c, 1, 50, 100
3, 180096, Note_on_c, 1, 57, 80
3, 180096, Note_on_c, 1, 50, 80
3, 181244, Note_off_c, 1, 57, 100
3, 181244, Note_off_c, 1, 50, 100
3, 181248, Note_on_c, 1, 57, 80
3, 181248, Note_on_c, 1, 52, 80
3, 182396, Note_off_c, 1, 57, 100
3, 182396, Note_off_c, 1, 52, 100
3, 182400, Note_on_c, 1, 57, 80
3, 182400, Note_on_c, 1, 54, 80
3, 183548, Note_off_c, 1, 57, 100
3, 183548, Note_off_c, 1, 54, 100
3, 183552, Note_on_c, 1, 57, 80
3, 183552, Note_on_c, 1, 50, 80
3, 184700, Note_off_c, 1, 57, 100
3, 184700, Note_off_c, 1, 50, 100
3, 184704, Note_on_c, 1, 49, 80
3, 184704, Note_on_c, 1, 57, 80
3, 185468, Note_off_c, 1, 49, 100
3, 185472, Note_on_c, 1, 45, 80
3, 185852, Note_off_c, 1, 57, 100
3, 185852, Note_off_c, 1, 45, 100
3, 185856, Note_on_c, 1, 50, 80
3, 186620, Note_off_c, 1, 50, 100
3, 186624, Note_on_c, 1, 43, 80
3, 187004, Note_off_c, 1, 43, 100
3, 187008, Note_on_c, 1, 45, 80
3, 187772, Note_off_c, 1, 45, 100
3, 187776, Note_on_c, 1, 57, 99
3, 188540, Note_off_c, 1, 57, 100
3, 188544, Note_on_c, 1, 55, 80
3, 188924, Note_off_c, 1, 55, 100
3, 188928, Note_on_c, 1, 54, 80
3, 189308, Note_off_c, 1, 54, 100
3, 189312, Note_on_c, 1, 59, 80
3, 189312, Note_on_c, 1, 55, 80
3, 189312, Note_on_c, 1, 52, 80
3, 190460, Note_off_c, 1, 59, 100
3, 190460, Note_off_c, 1, 55, 100
3, 190460, Note_off_c, 1, 52, 100
3, 190464, Note_on_c, 1, 63, 80
3, 190464, Note_on_c, 1, 59, 80
3, 190464, Note_on_c, 1, 57, 80
3, 190464, Note_on_c, 1, 54, 80
3, 191612, Note_off_c, 1, 63, 100
3, 191612, Note_off_c, 1, 59, 100
3, 191612, Note_off_c, 1, 57, 100
3, 191612, Note_off_c, 1, 54, 100
3, 191616, Note_on_c, 1, 64, 80
3, 191616, Note_on_c, 1, 59, 80
3, 191616, Note_on_c, 1, 55, 80
3, 192764, Note_off_c, 1, 64, 100
3, 192764, Note_off_c, 1, 59, 100
3, 192764, Note_off_c, 1, 55, 100
3, 192768, Note_on_c, 1, 61, 80
3, 192768, Note_on_c, 1, 57, 80
3, 192768, Note_on_c, 1, 55, 80
3, 192768, Note_on_c, 1, 52, 80
3, 193916, Note_off_c, 1, 61, 100
3, 193916, Note_off_c, 1, 57, 100
3, 193916, Note_off_c, 1, 55, 100
3, 193916, Note_off_c, 1, 52, 100
3, 193920, Note_on_c, 1, 62, 80
3, 193920, Note_on_c, 1, 57, 80
3, 193920, Note_on_c, 1, 54, 80
3, 194684, Note_off_c, 1, 62, 100
3, 194684, Note_off_c, 1, 57, 100
3, 194684, Note_off_c, 1, 54, 100
3, 194688, Note_on_c, 1, 50, 80
3, 195068, Note_off_c, 1, 50, 100
3, 195072, Note_on_c, 1, 57, 80
3, 195836, Note_off_c, 1, 57, 100
3, 195840, Note_on_c, 1, 45, 80
3, 196220, Note_off_c, 1, 45, 100
3, 196224, Note_on_c, 1, 38, 80
3, 196992, Note_on_c, 1, 45, 80
3, 197372, Note_off_c, 1, 45, 100
3, 197376, Note_on_c, 1, 50, 80
3, 197756, Note_off_c, 1, 38, 100
3, 197756, Note_off_c, 1, 50, 100
3, 198144, Note_on_c, 1, 30, 80
3, 198524, Note_off_c, 1, 30, 100
3, 198528, Note_on_c, 1, 42, 98
3, 199292, Note_off_c, 1, 42, 100
3, 199296, Note_on_c, 1, 41, 80
3, 199484, Note_off_c, 1, 41, 100
3, 199488, Note_on_c, 1, 42, 80
3, 199676, Note_off_c, 1, 42, 100
3, 199680, Note_on_c, 1, 43, 80
3, 199868, Note_off_c, 1, 43, 100
3, 199872, Note_on_c, 1, 42, 80
3, 200060, Note_off_c, 1, 42, 100
3, 200064, Note_on_c, 1, 40, 80
3, 200252, Note_off_c, 1, 40, 100
3, 200256, Note_on_c, 1, 38, 80
3, 200444, Note_off_c, 1, 38, 100
3, 200448, Note_on_c, 1, 37, 80
3, 200636, Note_off_c, 1, 37, 100
3, 200640, Note_on_c, 1, 42, 80
3, 200828, Note_off_c, 1, 42, 100
3, 200832, Note_on_c, 1, 38, 80
3, 201212, Note_off_c, 1, 38, 100
3, 201216, Note_on_c, 1, 35, 80
3, 201596, Note_off_c, 1, 35, 100
3, 203136, Note_on_c, 1, 56, 80
3, 203516, Note_off_c, 1, 56, 100
3, 203520, Note_on_c, 1, 52, 80
3, 203900, Note_off_c, 1, 52, 100
3, 205440, Note_on_c, 1, 69, 102
3, 206204, Note_off_c, 1, 69, 100
3, 206208, Note_on_c, 1, 68, 80
3, 206396, Note_off_c, 1, 68, 100
3, 206400, Note_on_c, 1, 69, 80
3, 206588, Note_off_c, 1, 69, 100
3, 206592, Note_on_c, 1, 71, 80
3, 206780, Note_off_c, 1, 71, 100
3, 206784, Note_on_c, 1, 69, 80
3, 206972, Note_off_c, 1, 69, 100
3, 206976, Note_on_c, 1, 67, 80
3, 207164, Note_off_c, 1, 67, 100
3, 207168, Note_on_c, 1, 66, 80
3, 207356, Note_off_c, 1, 66, 100
3, 207360, Note_on_c, 1, 67, 80
3, 207548, Note_off_c, 1, 67, 100
3, 207552, Note_on_c, 1, 64, 80
3, 207740, Note_off_c, 1, 64, 100
3, 207744, Note_on_c, 1, 62, 80
3, 207744, Note_on_c, 1, 66, 80
3, 208892, Note_off_c, 1, 62, 100
3, 208892, Note_off_c, 1, 66, 100
3, 208896, Note_on_c, 1, 74, 80
3, 208896, Note_on_c, 1, 64, 80
3, 208896, Note_on_c, 1, 67, 80
3, 209276, Note_off_c, 1, 74, 100
3, 209280, Note_on_c, 1, 73, 80
3, 209660, Note_off_c, 1, 73, 100
3, 209664, Note_on_c, 1, 76, 80
3, 210044, Note_off_c, 1, 64, 100
3, 210044, Note_off_c, 1, 67, 100
3, 210044, Note_off_c, 1, 76, 100
3, 210048, Note_on_c, 1, 69, 80
3, 210048, Note_on_c, 1, 74, 80
3, 210048, Note_on_c, 1, 66, 80
3, 210428, Note_off_c, 1, 74, 100
3, 210432, Note_on_c, 1, 73, 80
3, 210812, Note_off_c, 1, 73, 100
3, 210816, Note_on_c, 1, 71, 80
3, 211196, Note_off_c, 1, 69, 100
3, 211196, Note_off_c, 1, 71, 100
3, 211200, Note_on_c, 1, 69, 80
3, 211580, Note_off_c, 1, 69, 100
3, 211584, Note_on_c, 1, 70, 80
3, 211964, Note_off_c, 1, 66, 100
3, 211964, Note_off_c, 1, 70, 100
3, 211968, Note_on_c, 1, 71, 80
3, 211968, Note_on_c, 1, 63, 80
3, 212348, Note_off_c, 1, 71, 100
3, 212348, Note_off_c, 1, 63, 100
3, 212352, Note_on_c, 1, 69, 80
3, 212352, Note_on_c, 1, 64, 80
3, 212732, Note_off_c, 1, 69, 100
3, 212736, Note_on_c, 1, 67, 80
3, 213116, Note_off_c, 1, 64, 100
3, 213116, Note_off_c, 1, 67, 100
3, 213120, Note_on_c, 1, 69, 80
3, 213120, Note_on_c, 1, 61, 80
3, 213500, Note_off_c, 1, 69, 100
3, 213500, Note_off_c, 1, 61, 100
3, 213504, Note_on_c, 1, 62, 80
3, 213504, Note_on_c, 1, 67, 80
3, 213884, Note_off_c, 1, 67, 100
3, 213888, Note_on_c, 1, 66, 80
3, 214268, Note_off_c, 1, 62, 100
3, 214268, Note_off_c, 1, 66, 100
3, 214272, Note_on_c, 1, 67, 80
3, 214272, Note_on_c, 1, 59, 80
3, 214652, Note_off_c, 1, 67, 100
3, 214652, Note_off_c, 1, 59, 100
3, 215040, Note_on_c, 1, 45, 120
3, 215420, Note_off_c, 1, 45, 100
3, 215424, Note_on_c, 1, 57, 113
3, 216188, Note_off_c, 1, 57, 100
3, 216192, Note_on_c, 1, 55, 98
3, 216572, Note_off_c, 1, 55, 100
3, 216576, Note_on_c, 1, 54, 91
3, 216956, Note_off_c, 1, 54, 100
3, 216960, Note_on_c, 1, 59, 80
3, 216960, Note_on_c, 1, 55, 80
3, 216960, Note_on_c, 1, 52, 80
3, 218108, Note_off_c, 1, 59, 100
3, 218108, Note_off_c, 1, 55, 100
3, 218108, Note_off_c, 1, 52, 100
3, 218112, Note_on_c, 1, 63, 80
3, 218112, Note_on_c, 1, 57, 80
3, 218112, Note_on_c, 1, 54, 80
3, 218112, Note_on_c, 1, 59, 80
3, 219260, Note_off_c, 1, 63, 100
3, 219260, Note_off_c, 1, 57, 100
3, 219260, Note_off_c, 1, 54, 100
3, 219260, Note_off_c, 1, 59, 100
3, 219264, Note_on_c, 1, 62, 80
3, 219264, Note_on_c, 1, 59, 80
3, 219264, Note_on_c, 1, 55, 80
3, 220412, Note_off_c, 1, 62, 100
3, 220412, Note_off_c, 1, 59, 100
3, 220412, Note_off_c, 1, 55, 100
3, 220416, Note_on_c, 1, 66, 88
3, 220416, Note_on_c, 1, 62, 88
3, 220416, Note_on_c, 1, 60, 88
3, 220416, Note_on_c, 1, 57, 88
3, 221564, Note_off_c, 1, 66, 100
3, 221564, Note_off_c, 1, 62, 100
3, 221564, Note_off_c, 1, 60, 100
3, 221564, Note_off_c, 1, 57, 100
3, 221568, Note_on_c, 1, 67, 96
3, 221568, Note_on_c, 1, 62, 96
3, 221568, Note_on_c, 1, 59, 96
3, 222716, Note_off_c, 1, 67, 100
3, 222716, Note_off_c, 1, 62, 100
3, 222716, Note_off_c, 1, 59, 100
3, 222720, Note_on_c, 1, 68, 104
3, 222720, Note_on_c, 1, 64, 104
3, 222720, Note_on_c, 1, 62, 104
3, 222720, Note_on_c, 1, 58, 104
3, 223868, Note_off_c, 1, 68, 100
3, 223868, Note_off_c, 1, 64, 100
3, 223868, Note_off_c, 1, 62, 100
3, 223868, Note_off_c, 1, 58, 100
3, 223872, Note_on_c, 1, 57, 100
3, 223872, Note_on_c, 1, 61, 100
3, 224636, Note_off_c, 1, 57, 100
3, 224636, Note_off_c, 1, 61, 100
3, 224640, Note_on_c, 1, 62, 80
3, 224640, Note_on_c, 1, 59, 80
3, 225020, Note_off_c, 1, 62, 100
3, 225020, Note_off_c, 1, 59, 100
3, 225024, Note_on_c, 1, 61, 80
3, 225024, Note_on_c, 1, 64, 80
3, 225788, Note_off_c, 1, 61, 100
3, 225788, Note_off_c, 1, 64, 100
3, 225792, Note_on_c, 1, 62, 80
3, 225792, Note_on_c, 1, 66, 80
3, 226172, Note_off_c, 1, 62, 100
3, 226172, Note_off_c, 1, 66, 100
3, 226176, Note_on_c, 1, 55, 80
3, 226940, Note_off_c, 1, 55, 100
3, 226944, Note_on_c, 1, 56, 80
3, 227324, Note_off_c, 1, 56, 100
3, 227328, Note_on_c, 1, 57, 80
3, 228092, Note_off_c, 1, 57, 100
3, 228096, Note_on_c, 1, 45, 80
3, 228476, Note_off_c, 1, 45, 100
3, 228480, Note_on_c, 1, 38, 80
3, 229248, Note_on_c, 1, 45, 70
3, 229628, Note_off_c, 1, 45, 100
3, 229632, Note_on_c, 1, 45, 70
3, 230012, Note_off_c, 1, 38, 100
3, 230012, Note_off_c, 1, 45, 100
3, 230016, Note_on_c, 1, 54, 70
3, 230396, Note_off_c, 1, 54, 100
3, 230400, Note_on_c, 1, 52, 70
3, 230780, Note_off_c, 1, 52, 100
3, 230784, Note_on_c, 1, 40, 70
3, 230784, Note_on_c, 1, 50, 70
3, 231932, Note_off_c, 1, 50, 100
3, 231936, Note_on_c, 1, 49, 70
3, 233084, Note_off_c, 1, 40, 100
3, 233084, Note_off_c, 1, 49, 100
3, 233088, Note_on_c, 1, 38, 70
3, 233856, Note_on_c, 1, 45, 70
3, 234236, Note_off_c, 1, 45, 100
3, 234240, Note_on_c, 1, 45, 70
3, 234620, Note_off_c, 1, 38, 100
3, 234620, Note_off_c, 1, 45, 100
3, 234624, Note_on_c, 1, 54, 70
3, 235004, Note_off_c, 1, 54, 100
3, 235008, Note_on_c, 1, 52, 70
3, 235388, Note_off_c, 1, 52, 100
3, 235392, Note_on_c, 1, 40, 70
3, 235392, Note_on_c, 1, 50, 70
3, 236540, Note_off_c, 1, 50, 100
3, 236544, Note_on_c, 1, 49, 70
3, 237692, Note_off_c, 1, 40, 100
3, 237692, Note_off_c, 1, 49, 100
3, 237696, Note_on_c, 1, 50, 70
3, 237696, Note_on_c, 1, 38, 70
3, 238844, Note_off_c, 1, 50, 100
3, 238844, Note_off_c, 1, 38, 100
3, 238848, Note_on_c, 1, 49, 70
3, 238848, Note_on_c, 1, 40, 70
3, 239996, Note_off_c, 1, 49, 100
3, 239996, Note_off_c, 1, 40, 100
3, 240000, Note_on_c, 1, 49, 70
3, 240000, Note_on_c, 1, 38, 70
3, 241148, Note_off_c, 1, 49, 100
3, 241152, Note_on_c, 1, 50, 70
3, 241532, Note_off_c, 1, 38, 100
3, 241532, Note_off_c, 1, 50, 100
3, 241920, Note_on_c, 1, 30, 80
3, 242300, Note_off_c, 1, 30, 100
3, 242304, Note_on_c, 1, 42, 103
3, 243068, Note_off_c, 1, 42, 100
3, 243072, Note_on_c, 1, 41, 80
3, 243260, Note_off_c, 1, 41, 100
3, 243264, Note_on_c, 1, 42, 80
3, 243452, Note_off_c, 1, 42, 100
3, 243456, Note_on_c, 1, 43, 80
3, 243644, Note_off_c, 1, 43, 100
3, 243648, Note_on_c, 1, 42, 80
3, 243836, Note_off_c, 1, 42, 100
3, 243840, Note_on_c, 1, 40, 80
3, 244028, Note_off_c, 1, 40, 100
3, 244032, Note_on_c, 1, 38, 80
3, 244220, Note_off_c, 1, 38, 100
3, 244224, Note_on_c, 1, 37, 80
3, 244412, Note_off_c, 1, 37, 100
3, 244416, Note_on_c, 1, 42, 80
3, 244604, Note_off_c, 1, 42, 100
3, 244608, Note_on_c, 1, 38, 80
3, 244988, Note_off_c, 1, 38, 100
3, 244992, Note_on_c, 1, 35, 80
3, 245372, Note_off_c, 1, 35, 100
3, 246912, Note_on_c, 1, 56, 80
3, 247292, Note_off_c, 1, 56, 100
3, 247296, Note_on_c, 1, 52, 80
3, 247676, Note_off_c, 1, 52, 100
3, 249216, Note_on_c, 1, 69, 101
3, 249980, Note_off_c, 1, 69, 100
3, 249984, Note_on_c, 1, 68, 80
3, 250172, Note_off_c, 1, 68, 100
3, 250176, Note_on_c, 1, 69, 80
3, 250364, Note_off_c, 1, 69, 100
3, 250368, Note_on_c, 1, 71, 80
3, 250556, Note_off_c, 1, 71, 100
3, 250560, Note_on_c, 1, 69, 80
3, 250748, Note_off_c, 1, 69, 100
3, 250752, Note_on_c, 1, 67, 80
3, 250940, Note_off_c, 1, 67, 100
3, 250944, Note_on_c, 1, 66, 80
3, 251132, Note_off_c, 1, 66, 100
3, 251136, Note_on_c, 1, 67, 80
3, 251324, Note_off_c, 1, 67, 100
3, 251328, Note_on_c, 1, 64, 80
3, 251516, Note_off_c, 1, 64, 100
3, 251520, Note_on_c, 1, 62, 80
3, 251520, Note_on_c, 1, 66, 80
3, 252668, Note_off_c, 1, 62, 100
3, 252668, Note_off_c, 1, 66, 100
3, 252672, Note_on_c, 1, 74, 80
3, 252672, Note_on_c, 1, 64, 80
3, 252672, Note_on_c, 1, 67, 80
3, 253052, Note_off_c, 1, 74, 100
3, 253056, Note_on_c, 1, 73, 80
3, 253436, Note_off_c, 1, 73, 100
3, 253440, Note_on_c, 1, 76, 80
3, 253820, Note_off_c, 1, 64, 100
3, 253820, Note_off_c, 1, 67, 100
3, 253820, Note_off_c, 1, 76, 100
3, 253824, Note_on_c, 1, 69, 80
3, 253824, Note_on_c, 1, 74, 80
3, 253824, Note_on_c, 1, 66, 80
3, 254204, Note_off_c, 1, 74, 100
3, 254208, Note_on_c, 1, 73, 80
3, 254588, Note_off_c, 1, 73, 100
3, 254592, Note_on_c, 1, 71, 80
3, 254972, Note_off_c, 1, 69, 100
3, 254972, Note_off_c, 1, 71, 100
3, 254976, Note_on_c, 1, 69, 80
3, 255356, Note_off_c, 1, 69, 100
3, 255360, Note_on_c, 1, 70, 80
3, 255740, Note_off_c, 1, 66, 100
3, 255740, Note_off_c, 1, 70, 100
3, 255744, Note_on_c, 1, 71, 80
3, 255744, Note_on_c, 1, 63, 80
3, 256124, Note_off_c, 1, 71, 100
3, 256124, Note_off_c, 1, 63, 100
3, 256128, Note_on_c, 1, 69, 80
3, 256128, Note_on_c, 1, 64, 80
3, 256508, Note_off_c, 1, 69, 100
3, 256512, Note_on_c, 1, 67, 80
3, 256892, Note_off_c, 1, 64, 100
3, 256892, Note_off_c, 1, 67, 100
3, 256896, Note_on_c, 1, 69, 80
3, 256896, Note_on_c, 1, 61, 80
3, 257276, Note_off_c, 1, 69, 100
3, 257276, Note_off_c, 1, 61, 100
3, 257280, Note_on_c, 1, 62, 80
3, 257280, Note_on_c, 1, 67, 80
3, 257660, Note_off_c, 1, 67, 100
3, 257664, Note_on_c, 1, 66, 80
3, 258044, Note_off_c, 1, 62, 100
3, 258044, Note_off_c, 1, 66, 100
3, 258048, Note_on_c, 1, 67, 80
3, 258048, Note_on_c, 1, 59, 80
3, 258428, Note_off_c, 1, 67, 100
3, 258428, Note_off_c, 1, 59, 100
3, 258816, Note_on_c, 1, 45, 120
3, 259196, Note_off_c, 1, 45, 100
3, 259200, Note_on_c, 1, 57, 113
3, 259964, Note_off_c, 1, 57, 100
3, 259968, Note_on_c, 1, 55, 98
3, 260348, Note_off_c, 1, 55, 100
3, 260352, Note_on_c, 1, 54, 91
3, 260732, Note_off_c, 1, 54, 100
3, 260736, Note_on_c, 1, 59, 80
3, 260736, Note_on_c, 1, 55, 80
3, 260736, Note_on_c, 1, 52, 80
3, 261884, Note_off_c, 1, 59, 100
3, 261884, Note_off_c, 1, 55, 100
3, 261884, Note_off_c, 1, 52, 100
3, 261888, Note_on_c, 1, 63, 80
3, 261888, Note_on_c, 1, 57, 80
3, 261888, Note_on_c, 1, 54, 80
3, 261888, Note_on_c, 1, 59, 80
3, 263036, Note_off_c, 1, 63, 100
3, 263036, Note_off_c, 1, 57, 100
3, 263036, Note_off_c, 1, 54, 100
3, 263036, Note_off_c, 1, 59, 100
3, 263040, Note_on_c, 1, 62, 80
3, 263040, Note_on_c, 1, 59, 80
3, 263040, Note_on_c, 1, 55, 80
3, 264188, Note_off_c, 1, 62, 100
3, 264188, Note_off_c, 1, 59, 100
3, 264188, Note_off_c, 1, 55, 100
3, 264192, Note_on_c, 1, 66, 90
3, 264192, Note_on_c, 1, 62, 90
3, 264192, Note_on_c, 1, 60, 90
3, 264192, Note_on_c, 1, 57, 90
3, 265340, Note_off_c, 1, 66, 100
3, 265340, Note_off_c, 1, 62, 100
3, 265340, Note_off_c, 1, 60, 100
3, 265340, Note_off_c, 1, 57, 100
3, 265344, Note_on_c, 1, 67, 101
3, 265344, Note_on_c, 1, 62, 101
3, 265344, Note_on_c, 1, 59, 101
3, 266492, Note_off_c, 1, 67, 100
3, 266492, Note_off_c, 1, 62, 100
3, 266492, Note_off_c, 1, 59, 100
3, 266496, Note_on_c, 1, 68, 112
3, 266496, Note_on_c, 1, 64, 112
3, 266496, Note_on_c, 1, 62, 112
3, 266496, Note_on_c, 1, 58, 112
3, 267644, Note_off_c, 1, 68, 100
3, 267644, Note_off_c, 1, 64, 100
3, 267644, Note_off_c, 1, 62, 100
3, 267644, Note_off_c, 1, 58, 100
3, 267648, Note_on_c, 1, 57, 110
3, 267648, Note_on_c, 1, 61, 110
3, 268412, Note_off_c, 1, 57, 100
3, 268412, Note_off_c, 1, 61, 100
3, 268416, Note_on_c, 1, 62, 81
3, 268416, Note_on_c, 1, 59, 81
3, 268796, Note_off_c, 1, 62, 100
3, 268796, Note_off_c, 1, 59, 100
3, 268800, Note_on_c, 1, 61, 80
3, 268800, Note_on_c, 1, 64, 80
3, 269564, Note_off_c, 1, 61, 100
3, 269564, Note_off_c, 1, 64, 100
3, 269568, Note_on_c, 1, 62, 80
3, 269568, Note_on_c, 1, 66, 80
3, 269948, Note_off_c, 1, 62, 100
3, 269948, Note_off_c, 1, 66, 100
3, 269952, Note_on_c, 1, 55, 80
3, 270716, Note_off_c, 1, 55, 100
3, 270720, Note_on_c, 1, 56, 80
3, 271100, Note_off_c, 1, 56, 100
3, 271104, Note_on_c, 1, 57, 80
3, 271868, Note_off_c, 1, 57, 100
3, 271872, Note_on_c, 1, 45, 80
3, 272252, Note_off_c, 1, 45, 100
3, 272256, Note_on_c, 1, 38, 80
3, 273024, Note_on_c, 1, 45, 70
3, 273404, Note_off_c, 1, 45, 100
3, 273408, Note_on_c, 1, 45, 70
3, 273788, Note_off_c, 1, 38, 100
3, 273788, Note_off_c, 1, 45, 100
3, 273792, Note_on_c, 1, 54, 70
3, 274172, Note_off_c, 1, 54, 100
3, 274176, Note_on_c, 1, 52, 70
3, 274556, Note_off_c, 1, 52, 100
3, 274560, Note_on_c, 1, 40, 70
3, 274560, Note_on_c, 1, 50, 70
3, 275708, Note_off_c, 1, 50, 100
3, 275712, Note_on_c, 1, 49, 70
3, 276860, Note_off_c, 1, 40, 100
3, 276860, Note_off_c, 1, 49, 100
3, 276864, Note_on_c, 1, 38, 70
3, 277632, Note_on_c, 1, 45, 70
3, 278012, Note_off_c, 1, 45, 100
3, 278016, Note_on_c, 1, 45, 70
3, 278396, Note_off_c, 1, 38, 100
3, 278396, Note_off_c, 1, 45, 100
3, 278400, Note_on_c, 1, 54, 70
3, 278780, Note_off_c, 1, 54, 100
3, 278784, Note_on_c, 1, 52, 70
3, 279164, Note_off_c, 1, 52, 100
3, 279168, Note_on_c, 1, 40, 70
3, 279168, Note_on_c, 1, 50, 70
3, 280316, Note_off_c, 1, 50, 100
3, 280320, Note_on_c, 1, 49, 70
3, 281468, Note_off_c, 1, 40, 100
3, 281468, Note_off_c, 1, 49, 100
3, 281472, Note_on_c, 1, 50, 70
3, 281472, Note_on_c, 1, 38, 70
3, 282620, Note_off_c, 1, 50, 100
3, 282620, Note_off_c, 1, 38, 100
3, 282624, Note_on_c, 1, 49, 70
3, 282624, Note_on_c, 1, 40, 70
3, 283772, Note_off_c, 1, 49, 100
3, 283772, Note_off_c, 1, 40, 100
3, 283776, Note_on_c, 1, 49, 70
3, 283776, Note_on_c, 1, 38, 70
3, 284924, Note_off_c, 1, 49, 100
3, 284928, Note_on_c, 1, 50, 70
3, 285308, Note_off_c, 1, 38, 100
3, 285308, Note_off_c, 1, 50, 100
3, 285308, End_track
0, 0, End_of_file
