0, 0, Header, 1, 3, 384
1, 0, Start_track
1, 0, Title_t, "L.v.Beethoven 2mov - Piano Sonata No.7 in D Major Op.10-3\000"
1, 0, Copyright_t, "Copyright(C) 1995-2009, Suzuki Software\000"
1, 0, Sequencer_specific, 9, 67, 123, 0, 88, 70, 48, 50, 0, 1
1, 0, Text_t, "XFhd:2000/04/10:JP:Classical::::L.v.Beethoven:::Kaoru Suzuki\000"
1, 0, Text_t, "XFln:JP:\203s\203A\203m\203\\\203i\203^\221æ7\224Ô\203j\222·\222²\215ì\225i10-3\201`\221æ2\212y\217Í:L.v.\203x\201[\203g\201[\203\224\203F\203\223:::\227é\202¿\202á\202ñ:\227é\202¿\202á\202ñ\000"
1, 0, Time_signature, 3, 3, 96, 8
1, 0, Sequencer_specific, 3, 0, 0, 65
1, 0, Sequencer_specific, 5, 0, 0, 119, 14, 0
1, 0, Tempo, 1500000
1, 4032, Tempo, 1600000
1, 4800, Tempo, 1500000
1, 6912, Tempo, 1600000
1, 7104, Tempo, 1714285
1, 8064, Tempo, 1600000
1, 9024, Tempo, 1714285
1, 9216, Tempo, 2000000
1, 9312, Tempo, 1600000
1, 21312, Tempo, 1500000
1, 21792, Tempo, 1600000
1, 28224, Tempo, 1714285
1, 28896, Tempo, 1600000
1, 41280, Tempo, 2000000
1, 41568, Tempo, 1600000
1, 47808, Tempo, 1846153
1, 48384, Tempo, 1714285
1, 48552, Tempo, 1621621
1, 48776, Tempo, 1714285
1, 48944, Tempo, 1875000
1, 48960, Tempo, 1600000
1, 49112, Tempo, 2000000
1, 49336, Tempo, 2222222
1, 49504, Tempo, 2400000
1, 49536, Tempo, 1538461
1, 53760, Tempo, 1714285
1, 53952, Tempo, 1846153
1, 54144, Tempo, 1714285
1, 54336, Tempo, 1600000
1, 63168, Tempo, 1714285
1, 63264, Tempo, 2000000
1, 63936, Tempo, 1666666
1, 65664, Tempo, 2000000
1, 66048, Tempo, 1714285
1, 66240, Tempo, 1500000
1, 66624, Tempo, 1714285
1, 67008, Tempo, 1600000
1, 73152, Tempo, 1714285
1, 73536, Tempo, 2000000
1, 73728, Tempo, 1764705
1, 73920, Tempo, 1600000
1, 80640, Tempo, 1500000
1, 85824, Tempo, 1578947
1, 86016, Tempo, 1666666
1, 86208, Tempo, 1764705
1, 86304, Tempo, 2000000
1, 86352, Tempo, 3000000
1, 86976, Tempo, 1818181
1, 97920, Tempo, 1621621
1, 98496, Tempo, 1714285
1, 99072, Tempo, 1875000
1, 99456, Tempo, 3000000
1, 99456, End_track
2, 0, Start_track
2, 0, Title_t, "Right"
2, 0, Control_c, 0, 0, 0
2, 0, Program_c, 0, 0
2, 0, Control_c, 0, 7, 100
2, 0, Control_c, 0, 10, 74
2, 0, Control_c, 0, 91, 127
2, 0, Key_signature, -1, "minor"
2, 0, Note_on_c, 0, 57, 80
2, 0, Note_on_c, 0, 53, 80
2, 0, Note_on_c, 0, 62, 80
2, 188, Note_off_c, 0, 62, 100
2, 192, Note_on_c, 0, 61, 80
2, 380, Note_off_c, 0, 61, 100
2, 384, Note_on_c, 0, 62, 80
2, 572, Note_off_c, 0, 62, 100
2, 576, Note_on_c, 0, 65, 80
2, 764, Note_off_c, 0, 65, 100
2, 768, Note_on_c, 0, 61, 80
2, 956, Note_off_c, 0, 61, 100
2, 960, Note_on_c, 0, 62, 80
2, 1148, Note_off_c, 0, 53, 100
2, 1148, Note_off_c, 0, 57, 100
2, 1148, Note_off_c, 0, 62, 100
2, 1152, Note_on_c, 0, 58, 80
2, 1152, Note_on_c, 0, 55, 80
2, 1152, Note_on_c, 0, 62, 80
2, 1340, Note_off_c, 0, 62, 100
2, 1344, Note_on_c, 0, 61, 80
2, 1532, Note_off_c, 0, 61, 100
2, 1536, Note_on_c, 0, 62, 80
2, 1724, Note_off_c, 0, 62, 100
2, 1728, Note_on_c, 0, 67, 80
2, 1916, Note_off_c, 0, 67, 100
2, 1920, Note_on_c, 0, 61, 80
2, 2108, Note_off_c, 0, 61, 100
2, 2112, Note_on_c, 0, 62, 80
2, 2300, Note_off_c, 0, 55, 100
2, 2300, Note_off_c, 0, 58, 100
2, 2300, Note_off_c, 0, 62, 100
2, 2304, Note_on_c, 0, 58, 80
2, 2304, Note_on_c, 0, 55, 80
2, 2304, Note_on_c, 0, 65, 80
2, 2492, Note_off_c, 0, 65, 100
2, 2496, Note_on_c, 0, 64, 80
2, 2684, Note_off_c, 0, 58, 100
2, 2684, Note_off_c, 0, 55, 100
2, 2684, Note_off_c, 0, 64, 100
2, 2688, Note_on_c, 0, 62, 80
2, 2688, Note_on_c, 0, 58, 80
2, 2688, Note_on_c, 0, 55, 80
2, 2876, Note_off_c, 0, 62, 100
2, 2876, Note_off_c, 0, 58, 100
2, 2876, Note_off_c, 0, 55, 100
2, 2880, Note_on_c, 0, 61, 80
2, 2880, Note_on_c, 0, 58, 80
2, 2880, Note_on_c, 0, 55, 80
2, 3260, Note_off_c, 0, 61, 100
2, 3260, Note_off_c, 0, 58, 100
2, 3260, Note_off_c, 0, 55, 100
2, 3264, Note_on_c, 0, 62, 80
2, 3264, Note_on_c, 0, 58, 80
2, 3264, Note_on_c, 0, 55, 80
2, 3452, Note_off_c, 0, 62, 100
2, 3452, Note_off_c, 0, 58, 100
2, 3452, Note_off_c, 0, 55, 100
2, 3456, Note_on_c, 0, 58, 80
2, 3456, Note_on_c, 0, 55, 80
2, 3456, Note_on_c, 0, 65, 80
2, 3644, Note_off_c, 0, 65, 100
2, 3648, Note_on_c, 0, 64, 83
2, 3836, Note_off_c, 0, 58, 100
2, 3836, Note_off_c, 0, 55, 100
2, 3836, Note_off_c, 0, 64, 100
2, 3840, Note_on_c, 0, 66, 86
2, 3840, Note_on_c, 0, 62, 86
2, 3840, Note_on_c, 0, 57, 86
2, 4028, Note_off_c, 0, 66, 100
2, 4028, Note_off_c, 0, 62, 100
2, 4028, Note_off_c, 0, 57, 100
2, 4032, Note_on_c, 0, 67, 89
2, 4032, Note_on_c, 0, 62, 89
2, 4412, Note_off_c, 0, 67, 100
2, 4412, Note_off_c, 0, 62, 100
2, 4416, Note_on_c, 0, 69, 96
2, 4416, Note_on_c, 0, 62, 96
2, 4416, Note_on_c, 0, 60, 96
2, 4604, Note_off_c, 0, 69, 100
2, 4604, Note_off_c, 0, 62, 100
2, 4604, Note_off_c, 0, 60, 100
2, 4608, Note_on_c, 0, 70, 99
2, 4608, Note_on_c, 0, 62, 99
2, 4608, Note_on_c, 0, 58, 99
2, 4796, Note_off_c, 0, 70, 100
2, 4796, Note_off_c, 0, 62, 100
2, 4796, Note_off_c, 0, 58, 100
2, 4800, Note_on_c, 0, 70, 80
2, 4988, Note_off_c, 0, 70, 100
2, 4992, Note_on_c, 0, 70, 80
2, 5180, Note_off_c, 0, 70, 100
2, 5184, Note_on_c, 0, 70, 80
2, 5372, Note_off_c, 0, 70, 100
2, 5376, Note_on_c, 0, 70, 80
2, 5564, Note_off_c, 0, 70, 100
2, 5568, Note_on_c, 0, 70, 80
2, 5756, Note_off_c, 0, 70, 100
2, 5760, Note_on_c, 0, 73, 80
2, 5760, Note_on_c, 0, 70, 80
2, 5760, Note_on_c, 0, 67, 80
2, 5760, Note_on_c, 0, 76, 80
2, 5948, Note_off_c, 0, 76, 100
2, 5952, Note_on_c, 0, 75, 80
2, 6140, Note_off_c, 0, 73, 100
2, 6140, Note_off_c, 0, 70, 100
2, 6140, Note_off_c, 0, 67, 100
2, 6140, Note_off_c, 0, 75, 100
2, 6144, Note_on_c, 0, 76, 80
2, 6144, Note_on_c, 0, 73, 80
2, 6144, Note_on_c, 0, 70, 80
2, 6144, Note_on_c, 0, 67, 80
2, 6332, Note_off_c, 0, 76, 100
2, 6332, Note_off_c, 0, 73, 100
2, 6332, Note_off_c, 0, 70, 100
2, 6332, Note_off_c, 0, 67, 100
2, 6336, Note_on_c, 0, 73, 80
2, 6336, Note_on_c, 0, 70, 80
2, 6336, Note_on_c, 0, 67, 80
2, 6336, Note_on_c, 0, 79, 80
2, 6524, Note_off_c, 0, 79, 100
2, 6528, Note_on_c, 0, 75, 80
2, 6716, Note_off_c, 0, 73, 100
2, 6716, Note_off_c, 0, 70, 100
2, 6716, Note_off_c, 0, 67, 100
2, 6716, Note_off_c, 0, 75, 100
2, 6720, Note_on_c, 0, 76, 80
2, 6720, Note_on_c, 0, 73, 80
2, 6720, Note_on_c, 0, 70, 80
2, 6720, Note_on_c, 0, 67, 80
2, 6908, Note_off_c, 0, 76, 100
2, 6908, Note_off_c, 0, 73, 100
2, 6908, Note_off_c, 0, 70, 100
2, 6908, Note_off_c, 0, 67, 100
2, 6912, Note_on_c, 0, 71, 80
2, 6912, Note_on_c, 0, 68, 80
2, 6912, Note_on_c, 0, 74, 80
2, 6912, Note_on_c, 0, 76, 80
2, 7100, Note_off_c, 0, 74, 100
2, 7104, Note_on_c, 0, 77, 80
2, 7292, Note_off_c, 0, 71, 100
2, 7292, Note_off_c, 0, 68, 100
2, 7292, Note_off_c, 0, 76, 100
2, 7292, Note_off_c, 0, 77, 100
2, 7296, Note_on_c, 0, 77, 80
2, 7296, Note_on_c, 0, 74, 80
2, 7296, Note_on_c, 0, 71, 80
2, 7296, Note_on_c, 0, 68, 80
2, 7484, Note_off_c, 0, 77, 100
2, 7484, Note_off_c, 0, 74, 100
2, 7484, Note_off_c, 0, 71, 100
2, 7484, Note_off_c, 0, 68, 100
2, 7584, Note_on_c, 0, 68, 80
2, 7608, Note_on_c, 0, 71, 80
2, 7632, Note_on_c, 0, 74, 80
2, 7656, Note_on_c, 0, 77, 80
2, 7868, Note_off_c, 0, 68, 100
2, 7868, Note_off_c, 0, 71, 100
2, 7868, Note_off_c, 0, 74, 100
2, 7868, Note_off_c, 0, 77, 100
2, 7872, Note_on_c, 0, 76, 80
2, 8012, Note_off_c, 0, 76, 100
2, 8016, Note_on_c, 0, 74, 80
2, 8060, Note_off_c, 0, 74, 100
2, 8064, Note_on_c, 0, 74, 80
2, 8252, Note_off_c, 0, 74, 100
2, 8256, Note_on_c, 0, 69, 80
2, 8444, Note_off_c, 0, 69, 100
2, 8448, Note_on_c, 0, 69, 80
2, 8636, Note_off_c, 0, 69, 100
2, 8640, Note_on_c, 0, 69, 80
2, 8828, Note_off_c, 0, 69, 100
2, 8832, Note_on_c, 0, 61, 80
2, 9020, Note_off_c, 0, 61, 100
2, 9024, Note_on_c, 0, 61, 80
2, 9212, Note_off_c, 0, 61, 100
2, 9216, Note_on_c, 0, 62, 80
2, 9596, Note_off_c, 0, 62, 100
2, 9792, Note_on_c, 0, 69, 80
2, 9836, Note_off_c, 0, 69, 100
2, 9838, Note_on_c, 0, 81, 98
2, 10076, Note_off_c, 0, 81, 100
2, 10080, Note_on_c, 0, 79, 80
2, 10172, Note_off_c, 0, 79, 100
2, 10176, Note_on_c, 0, 77, 80
2, 10268, Note_off_c, 0, 77, 100
2, 10272, Note_on_c, 0, 76, 80
2, 10364, Note_off_c, 0, 76, 100
2, 10368, Note_on_c, 0, 79, 80
2, 10508, Note_off_c, 0, 79, 100
2, 10512, Note_on_c, 0, 77, 80
2, 10556, Note_off_c, 0, 77, 100
2, 10560, Note_on_c, 0, 77, 80
2, 10796, Note_off_c, 0, 77, 100
2, 10800, Note_on_c, 0, 79, 80
2, 10820, Note_off_c, 0, 79, 100
2, 10824, Note_on_c, 0, 77, 80
2, 10844, Note_off_c, 0, 77, 100
2, 10848, Note_on_c, 0, 76, 80
2, 10916, Note_off_c, 0, 76, 100
2, 10920, Note_on_c, 0, 74, 80
2, 10940, Note_off_c, 0, 74, 100
2, 10944, Note_on_c, 0, 74, 80
2, 11036, Note_off_c, 0, 74, 100
2, 11040, Note_on_c, 0, 73, 80
2, 11132, Note_off_c, 0, 73, 100
2, 11136, Note_on_c, 0, 73, 80
2, 11324, Note_off_c, 0, 73, 100
2, 11328, Note_on_c, 0, 73, 80
2, 11516, Note_off_c, 0, 73, 100
2, 11520, Note_on_c, 0, 74, 80
2, 11564, Note_off_c, 0, 74, 100
2, 11568, Note_on_c, 0, 76, 80
2, 11580, Note_off_c, 0, 76, 100
2, 11584, Note_on_c, 0, 74, 80
2, 11596, Note_off_c, 0, 74, 100
2, 11600, Note_on_c, 0, 73, 80
2, 11612, Note_off_c, 0, 73, 100
2, 11616, Note_on_c, 0, 74, 80
2, 11660, Note_off_c, 0, 74, 100
2, 11664, Note_on_c, 0, 76, 80
2, 11708, Note_off_c, 0, 76, 100
2, 11712, Note_on_c, 0, 77, 80
2, 11900, Note_off_c, 0, 77, 100
2, 12000, Note_on_c, 0, 69, 80
2, 12092, Note_off_c, 0, 69, 100
2, 12096, Note_on_c, 0, 69, 80
2, 12140, Note_off_c, 0, 69, 100
2, 12142, Note_on_c, 0, 81, 99
2, 12380, Note_off_c, 0, 81, 100
2, 12384, Note_on_c, 0, 79, 80
2, 12476, Note_off_c, 0, 79, 100
2, 12480, Note_on_c, 0, 77, 80
2, 12572, Note_off_c, 0, 77, 100
2, 12576, Note_on_c, 0, 76, 80
2, 12668, Note_off_c, 0, 76, 100
2, 12672, Note_on_c, 0, 79, 80
2, 12812, Note_off_c, 0, 79, 100
2, 12816, Note_on_c, 0, 77, 80
2, 12860, Note_off_c, 0, 77, 100
2, 12864, Note_on_c, 0, 77, 80
2, 13148, Note_off_c, 0, 77, 100
2, 13152, Note_on_c, 0, 78, 80
2, 13244, Note_off_c, 0, 78, 100
2, 13248, Note_on_c, 0, 67, 80
2, 13292, Note_off_c, 0, 67, 100
2, 13294, Note_on_c, 0, 79, 80
2, 13532, Note_off_c, 0, 79, 100
2, 13536, Note_on_c, 0, 77, 80
2, 13628, Note_off_c, 0, 77, 100
2, 13632, Note_on_c, 0, 76, 80
2, 13724, Note_off_c, 0, 76, 100
2, 13728, Note_on_c, 0, 74, 80
2, 13820, Note_off_c, 0, 74, 100
2, 13824, Note_on_c, 0, 77, 80
2, 14012, Note_off_c, 0, 77, 100
2, 14016, Note_on_c, 0, 76, 80
2, 14204, Note_off_c, 0, 76, 100
2, 14592, Note_on_c, 0, 74, 80
2, 14592, Note_on_c, 0, 72, 80
2, 14780, Note_off_c, 0, 74, 100
2, 14780, Note_off_c, 0, 72, 100
2, 14784, Note_on_c, 0, 74, 80
2, 14784, Note_on_c, 0, 72, 80
2, 14972, Note_off_c, 0, 74, 100
2, 14972, Note_off_c, 0, 72, 100
2, 14976, Note_on_c, 0, 76, 80
2, 14976, Note_on_c, 0, 72, 80
2, 15260, Note_off_c, 0, 76, 100
2, 15264, Note_on_c, 0, 77, 87
2, 15308, Note_off_c, 0, 77, 100
2, 15312, Note_on_c, 0, 76, 88
2, 15356, Note_off_c, 0, 76, 100
2, 15360, Note_on_c, 0, 74, 89
2, 15500, Note_off_c, 0, 74, 100
2, 15504, Note_on_c, 0, 76, 93
2, 15548, Note_off_c, 0, 72, 100
2, 15548, Note_off_c, 0, 76, 100
2, 15552, Note_on_c, 0, 71, 94
2, 15552, Note_on_c, 0, 79, 94
2, 15836, Note_off_c, 0, 79, 100
2, 15840, Note_on_c, 0, 77, 100
2, 15932, Note_off_c, 0, 77, 100
2, 15936, Note_on_c, 0, 76, 91
2, 16028, Note_off_c, 0, 76, 100
2, 16032, Note_on_c, 0, 74, 81
2, 16124, Note_off_c, 0, 71, 100
2, 16124, Note_off_c, 0, 74, 100
2, 16128, Note_on_c, 0, 72, 80
2, 16128, Note_on_c, 0, 75, 80
2, 16220, Note_off_c, 0, 75, 100
2, 16224, Note_on_c, 0, 76, 82
2, 16316, Note_off_c, 0, 72, 100
2, 16316, Note_off_c, 0, 76, 100
2, 16896, Note_on_c, 0, 74, 101
2, 16896, Note_on_c, 0, 84, 101
2, 16896, Note_on_c, 0, 86, 101
2, 17084, Note_off_c, 0, 74, 100
2, 17084, Note_off_c, 0, 84, 100
2, 17084, Note_off_c, 0, 86, 100
2, 17088, Note_on_c, 0, 74, 107
2, 17088, Note_on_c, 0, 84, 107
2, 17088, Note_on_c, 0, 86, 107
2, 17276, Note_off_c, 0, 74, 100
2, 17276, Note_off_c, 0, 84, 100
2, 17276, Note_off_c, 0, 86, 100
2, 17280, Note_on_c, 0, 76, 110
2, 17324, Note_off_c, 0, 76, 100
2, 17328, Note_on_c, 0, 88, 109
2, 17516, Note_off_c, 0, 88, 100
2, 17520, Note_on_c, 0, 84, 101
2, 17564, Note_off_c, 0, 84, 100
2, 17568, Note_on_c, 0, 79, 100
2, 17612, Note_off_c, 0, 79, 100
2, 17616, Note_on_c, 0, 76, 98
2, 17660, Note_off_c, 0, 76, 100
2, 17664, Note_on_c, 0, 72, 96
2, 17708, Note_off_c, 0, 72, 100
2, 17712, Note_on_c, 0, 67, 94
2, 17756, Note_off_c, 0, 67, 100
2, 17760, Note_on_c, 0, 64, 92
2, 17804, Note_off_c, 0, 64, 100
2, 17808, Note_on_c, 0, 60, 91
2, 17852, Note_off_c, 0, 60, 100
2, 17856, Note_on_c, 0, 59, 80
2, 17856, Note_on_c, 0, 67, 80
2, 18140, Note_off_c, 0, 67, 100
2, 18144, Note_on_c, 0, 65, 80
2, 18236, Note_off_c, 0, 59, 100
2, 18236, Note_off_c, 0, 65, 100
2, 18240, Note_on_c, 0, 59, 80
2, 18240, Note_on_c, 0, 62, 80
2, 18332, Note_off_c, 0, 62, 100
2, 18336, Note_on_c, 0, 67, 80
2, 18428, Note_off_c, 0, 59, 100
2, 18428, Note_off_c, 0, 67, 100
2, 18432, Note_on_c, 0, 60, 80
2, 18812, Note_off_c, 0, 60, 100
2, 18816, Note_on_c, 0, 60, 80
2, 18956, Note_off_c, 0, 60, 100
2, 18960, Note_on_c, 0, 72, 80
2, 19004, Note_off_c, 0, 72, 100
2, 19008, Note_on_c, 0, 72, 80
2, 19008, Note_on_c, 0, 63, 80
2, 19388, Note_off_c, 0, 72, 100
2, 19388, Note_off_c, 0, 63, 100
2, 19392, Note_on_c, 0, 63, 80
2, 19392, Note_on_c, 0, 71, 80
2, 19484, Note_off_c, 0, 71, 100
2, 19488, Note_on_c, 0, 69, 80
2, 19580, Note_off_c, 0, 63, 100
2, 19580, Note_off_c, 0, 69, 100
2, 19584, Note_on_c, 0, 64, 80
2, 19584, Note_on_c, 0, 69, 80
2, 19772, Note_off_c, 0, 69, 100
2, 19776, Note_on_c, 0, 68, 80
2, 19964, Note_off_c, 0, 64, 100
2, 19964, Note_off_c, 0, 68, 100
2, 19968, Note_on_c, 0, 69, 80
2, 20012, Note_off_c, 0, 69, 100
2, 20016, Note_on_c, 0, 71, 80
2, 20028, Note_off_c, 0, 71, 100
2, 20032, Note_on_c, 0, 69, 80
2, 20044, Note_off_c, 0, 69, 100
2, 20048, Note_on_c, 0, 68, 80
2, 20060, Note_off_c, 0, 68, 100
2, 20064, Note_on_c, 0, 69, 80
2, 20108, Note_off_c, 0, 69, 100
2, 20112, Note_on_c, 0, 71, 80
2, 20156, Note_off_c, 0, 71, 100
2, 20160, Note_on_c, 0, 63, 80
2, 20160, Note_on_c, 0, 72, 80
2, 20348, Note_off_c, 0, 72, 100
2, 20352, Note_on_c, 0, 71, 80
2, 20396, Note_off_c, 0, 71, 100
2, 20400, Note_on_c, 0, 72, 80
2, 20444, Note_off_c, 0, 72, 100
2, 20448, Note_on_c, 0, 71, 80
2, 20492, Note_off_c, 0, 71, 100
2, 20496, Note_on_c, 0, 72, 80
2, 20540, Note_off_c, 0, 63, 100
2, 20540, Note_off_c, 0, 72, 100
2, 20544, Note_on_c, 0, 63, 80
2, 20544, Note_on_c, 0, 74, 80
2, 20588, Note_off_c, 0, 74, 100
2, 20592, Note_on_c, 0, 72, 80
2, 20636, Note_off_c, 0, 72, 100
2, 20640, Note_on_c, 0, 71, 80
2, 20684, Note_off_c, 0, 71, 100
2, 20688, Note_on_c, 0, 69, 80
2, 20732, Note_off_c, 0, 63, 100
2, 20732, Note_off_c, 0, 69, 100
2, 20736, Note_on_c, 0, 64, 80
2, 20736, Note_on_c, 0, 69, 80
2, 20924, Note_off_c, 0, 69, 100
2, 20928, Note_on_c, 0, 68, 80
2, 21116, Note_off_c, 0, 64, 100
2, 21116, Note_off_c, 0, 68, 100
2, 21216, Note_on_c, 0, 68, 80
2, 21308, Note_off_c, 0, 68, 100
2, 21312, Note_on_c, 0, 77, 110
2, 21312, Note_on_c, 0, 71, 110
2, 21312, Note_on_c, 0, 68, 110
2, 21312, Note_on_c, 0, 65, 110
2, 21596, Note_off_c, 0, 77, 100
2, 21596, Note_off_c, 0, 71, 100
2, 21596, Note_off_c, 0, 68, 100
2, 21596, Note_off_c, 0, 65, 100
2, 21600, Note_on_c, 0, 76, 110
2, 21600, Note_on_c, 0, 71, 110
2, 21600, Note_on_c, 0, 68, 110
2, 21600, Note_on_c, 0, 64, 110
2, 21692, Note_off_c, 0, 76, 100
2, 21692, Note_off_c, 0, 71, 100
2, 21692, Note_off_c, 0, 68, 100
2, 21692, Note_off_c, 0, 64, 100
2, 21696, Note_on_c, 0, 74, 110
2, 21696, Note_on_c, 0, 71, 110
2, 21696, Note_on_c, 0, 68, 110
2, 21696, Note_on_c, 0, 62, 110
2, 21788, Note_off_c, 0, 74, 100
2, 21788, Note_off_c, 0, 71, 100
2, 21788, Note_off_c, 0, 68, 100
2, 21788, Note_off_c, 0, 62, 100
2, 21792, Note_on_c, 0, 77, 110
2, 21792, Note_on_c, 0, 68, 110
2, 21792, Note_on_c, 0, 65, 110
2, 21884, Note_off_c, 0, 77, 100
2, 21884, Note_off_c, 0, 68, 100
2, 21884, Note_off_c, 0, 65, 100
2, 21888, Note_on_c, 0, 76, 110
2, 21888, Note_on_c, 0, 69, 110
2, 21888, Note_on_c, 0, 64, 110
2, 22076, Note_off_c, 0, 76, 100
2, 22076, Note_off_c, 0, 69, 100
2, 22076, Note_off_c, 0, 64, 100
2, 22272, Note_on_c, 0, 71, 80
2, 22272, Note_on_c, 0, 69, 80
2, 22272, Note_on_c, 0, 65, 80
2, 22460, Note_off_c, 0, 71, 100
2, 22460, Note_off_c, 0, 69, 100
2, 22460, Note_off_c, 0, 65, 100
2, 22464, Note_on_c, 0, 72, 80
2, 22464, Note_on_c, 0, 69, 80
2, 22464, Note_on_c, 0, 64, 80
2, 22652, Note_off_c, 0, 72, 100
2, 22652, Note_off_c, 0, 69, 100
2, 22652, Note_off_c, 0, 64, 100
2, 22848, Note_on_c, 0, 68, 80
2, 22848, Note_on_c, 0, 64, 80
2, 22848, Note_on_c, 0, 62, 80
2, 22848, Note_on_c, 0, 59, 80
2, 23036, Note_off_c, 0, 68, 100
2, 23036, Note_off_c, 0, 64, 100
2, 23036, Note_off_c, 0, 62, 100
2, 23036, Note_off_c, 0, 59, 100
2, 23040, Note_on_c, 0, 69, 80
2, 23040, Note_on_c, 0, 64, 80
2, 23040, Note_on_c, 0, 60, 80
2, 23420, Note_off_c, 0, 69, 100
2, 23420, Note_off_c, 0, 64, 100
2, 23420, Note_off_c, 0, 60, 100
2, 24000, Note_on_c, 0, 63, 110
2, 24000, Note_on_c, 0, 51, 110
2, 24188, Note_off_c, 0, 63, 100
2, 24188, Note_off_c, 0, 51, 100
2, 24192, Note_on_c, 0, 64, 110
2, 24192, Note_on_c, 0, 52, 110
2, 24284, Note_off_c, 0, 64, 100
2, 24284, Note_off_c, 0, 52, 100
2, 24288, Note_on_c, 0, 76, 110
2, 24288, Note_on_c, 0, 64, 110
2, 24476, Note_off_c, 0, 76, 100
2, 24476, Note_off_c, 0, 64, 100
2, 24480, Note_on_c, 0, 74, 110
2, 24480, Note_on_c, 0, 62, 110
2, 24572, Note_off_c, 0, 74, 100
2, 24572, Note_off_c, 0, 62, 100
2, 24576, Note_on_c, 0, 72, 110
2, 24576, Note_on_c, 0, 60, 110
2, 24668, Note_off_c, 0, 72, 100
2, 24668, Note_off_c, 0, 60, 100
2, 24672, Note_on_c, 0, 71, 110
2, 24672, Note_on_c, 0, 59, 110
2, 24764, Note_off_c, 0, 71, 100
2, 24764, Note_off_c, 0, 59, 100
2, 24768, Note_on_c, 0, 69, 120
2, 24768, Note_on_c, 0, 57, 120
2, 25148, Note_off_c, 0, 69, 100
2, 25148, Note_off_c, 0, 57, 100
2, 25248, Note_on_c, 0, 63, 120
2, 25248, Note_on_c, 0, 51, 120
2, 25340, Note_off_c, 0, 63, 100
2, 25340, Note_off_c, 0, 51, 100
2, 25344, Note_on_c, 0, 64, 120
2, 25344, Note_on_c, 0, 52, 120
2, 25436, Note_off_c, 0, 64, 100
2, 25436, Note_off_c, 0, 52, 100
2, 25440, Note_on_c, 0, 76, 120
2, 25440, Note_on_c, 0, 64, 120
2, 25628, Note_off_c, 0, 76, 100
2, 25628, Note_off_c, 0, 64, 100
2, 25632, Note_on_c, 0, 75, 120
2, 25676, Note_off_c, 0, 75, 100
2, 25680, Note_on_c, 0, 76, 120
2, 25724, Note_off_c, 0, 76, 100
2, 25728, Note_on_c, 0, 75, 120
2, 25772, Note_off_c, 0, 75, 100
2, 25776, Note_on_c, 0, 76, 120
2, 25820, Note_off_c, 0, 76, 100
2, 25824, Note_on_c, 0, 75, 120
2, 25868, Note_off_c, 0, 75, 100
2, 25872, Note_on_c, 0, 76, 120
2, 25916, Note_off_c, 0, 76, 100
2, 25920, Note_on_c, 0, 77, 120
2, 25920, Note_on_c, 0, 65, 120
2, 25920, Note_on_c, 0, 71, 120
2, 25920, Note_on_c, 0, 68, 120
2, 26204, Note_off_c, 0, 77, 100
2, 26204, Note_off_c, 0, 65, 100
2, 26208, Note_on_c, 0, 76, 80
2, 26208, Note_on_c, 0, 64, 80
2, 26300, Note_off_c, 0, 76, 100
2, 26300, Note_off_c, 0, 64, 100
2, 26304, Note_on_c, 0, 74, 80
2, 26304, Note_on_c, 0, 62, 80
2, 26396, Note_off_c, 0, 74, 100
2, 26396, Note_off_c, 0, 62, 100
2, 26400, Note_on_c, 0, 77, 80
2, 26400, Note_on_c, 0, 65, 80
2, 26492, Note_off_c, 0, 71, 100
2, 26492, Note_off_c, 0, 68, 100
2, 26492, Note_off_c, 0, 77, 100
2, 26492, Note_off_c, 0, 65, 100
2, 26496, Note_on_c, 0, 82, 120
2, 26496, Note_on_c, 0, 70, 120
2, 26496, Note_on_c, 0, 76, 120
2, 26496, Note_on_c, 0, 73, 120
2, 26780, Note_off_c, 0, 82, 100
2, 26780, Note_off_c, 0, 70, 100
2, 26784, Note_on_c, 0, 81, 80
2, 26784, Note_on_c, 0, 69, 80
2, 26876, Note_off_c, 0, 81, 100
2, 26876, Note_off_c, 0, 69, 100
2, 26880, Note_on_c, 0, 79, 80
2, 26880, Note_on_c, 0, 67, 80
2, 26972, Note_off_c, 0, 79, 100
2, 26972, Note_off_c, 0, 67, 100
2, 26976, Note_on_c, 0, 82, 80
2, 26976, Note_on_c, 0, 70, 80
2, 27068, Note_off_c, 0, 76, 100
2, 27068, Note_off_c, 0, 73, 100
2, 27068, Note_off_c, 0, 82, 100
2, 27068, Note_off_c, 0, 70, 100
2, 27072, Note_on_c, 0, 84, 120
2, 27072, Note_on_c, 0, 78, 120
2, 27072, Note_on_c, 0, 75, 120
2, 27072, Note_on_c, 0, 72, 120
2, 27356, Note_off_c, 0, 84, 100
2, 27360, Note_on_c, 0, 83, 80
2, 27452, Note_off_c, 0, 83, 100
2, 27456, Note_on_c, 0, 81, 80
2, 27548, Note_off_c, 0, 81, 100
2, 27552, Note_on_c, 0, 84, 80
2, 27644, Note_off_c, 0, 78, 100
2, 27644, Note_off_c, 0, 75, 100
2, 27644, Note_off_c, 0, 72, 100
2, 27644, Note_off_c, 0, 84, 100
2, 27648, Note_on_c, 0, 80, 80
2, 27648, Note_on_c, 0, 77, 80
2, 27648, Note_on_c, 0, 74, 80
2, 27648, Note_on_c, 0, 71, 80
2, 27836, Note_off_c, 0, 80, 100
2, 27836, Note_off_c, 0, 77, 100
2, 27836, Note_off_c, 0, 74, 100
2, 27836, Note_off_c, 0, 71, 100
2, 28032, Note_on_c, 0, 81, 80
2, 28032, Note_on_c, 0, 76, 80
2, 28032, Note_on_c, 0, 72, 80
2, 28032, Note_on_c, 0, 69, 80
2, 28220, Note_off_c, 0, 81, 100
2, 28220, Note_off_c, 0, 76, 100
2, 28220, Note_off_c, 0, 72, 100
2, 28220, Note_off_c, 0, 69, 100
2, 28224, Note_on_c, 0, 77, 80
2, 28224, Note_on_c, 0, 71, 80
2, 28224, Note_on_c, 0, 69, 80
2, 28224, Note_on_c, 0, 65, 80
2, 28412, Note_off_c, 0, 77, 100
2, 28412, Note_off_c, 0, 71, 100
2, 28412, Note_off_c, 0, 69, 100
2, 28412, Note_off_c, 0, 65, 100
2, 28608, Note_on_c, 0, 76, 80
2, 28608, Note_on_c, 0, 68, 80
2, 28608, Note_on_c, 0, 64, 80
2, 28796, Note_off_c, 0, 76, 100
2, 28796, Note_off_c, 0, 68, 100
2, 28796, Note_off_c, 0, 64, 100
2, 28800, Note_on_c, 0, 69, 80
2, 29180, Note_off_c, 0, 69, 100
2, 29568, Note_on_c, 0, 76, 80
2, 29756, Note_off_c, 0, 76, 100
2, 29760, Note_on_c, 0, 76, 80
2, 29948, Note_off_c, 0, 76, 100
2, 29952, Note_on_c, 0, 76, 80
2, 30284, Note_off_c, 0, 76, 100
2, 30288, Note_on_c, 0, 77, 80
2, 30308, Note_off_c, 0, 77, 100
2, 30312, Note_on_c, 0, 76, 80
2, 30332, Note_off_c, 0, 76, 100
2, 30336, Note_on_c, 0, 74, 80
2, 30476, Note_off_c, 0, 74, 100
2, 30480, Note_on_c, 0, 76, 80
2, 30524, Note_off_c, 0, 76, 100
2, 30528, Note_on_c, 0, 74, 80
2, 30548, Note_off_c, 0, 74, 100
2, 30552, Note_on_c, 0, 76, 80
2, 30572, Note_off_c, 0, 76, 100
2, 30576, Note_on_c, 0, 77, 80
2, 30908, Note_off_c, 0, 77, 100
2, 30912, Note_on_c, 0, 76, 80
2, 31004, Note_off_c, 0, 76, 100
2, 31008, Note_on_c, 0, 74, 80
2, 31100, Note_off_c, 0, 74, 100
2, 31104, Note_on_c, 0, 72, 80
2, 31436, Note_off_c, 0, 72, 100
2, 31440, Note_on_c, 0, 74, 80
2, 31460, Note_off_c, 0, 74, 100
2, 31462, Note_on_c, 0, 72, 80
2, 31482, Note_off_c, 0, 72, 100
2, 31488, Note_on_c, 0, 71, 80
2, 31628, Note_off_c, 0, 71, 100
2, 31632, Note_on_c, 0, 72, 80
2, 31676, Note_off_c, 0, 72, 100
2, 31680, Note_on_c, 0, 71, 80
2, 31700, Note_off_c, 0, 71, 100
2, 31702, Note_on_c, 0, 72, 80
2, 31722, Note_off_c, 0, 72, 100
2, 31728, Note_on_c, 0, 74, 80
2, 31968, Note_on_c, 0, 62, 80
2, 32060, Note_off_c, 0, 74, 100
2, 32060, Note_off_c, 0, 62, 100
2, 32064, Note_on_c, 0, 72, 80
2, 32064, Note_on_c, 0, 60, 80
2, 32156, Note_off_c, 0, 72, 100
2, 32156, Note_off_c, 0, 60, 100
2, 32160, Note_on_c, 0, 71, 80
2, 32160, Note_on_c, 0, 59, 80
2, 32252, Note_off_c, 0, 71, 100
2, 32252, Note_off_c, 0, 59, 100
2, 32256, Note_on_c, 0, 57, 80
2, 32256, Note_on_c, 0, 69, 80
2, 32348, Note_off_c, 0, 69, 100
2, 32352, Note_on_c, 0, 64, 80
2, 32444, Note_off_c, 0, 57, 100
2, 32444, Note_off_c, 0, 64, 100
2, 32448, Note_on_c, 0, 60, 80
2, 32540, Note_off_c, 0, 60, 100
2, 32544, Note_on_c, 0, 57, 80
2, 32636, Note_off_c, 0, 57, 100
2, 32640, Note_on_c, 0, 52, 80
2, 32732, Note_off_c, 0, 52, 100
2, 32736, Note_on_c, 0, 48, 80
2, 32828, Note_off_c, 0, 48, 100
2, 32832, Note_on_c, 0, 45, 80
2, 33020, Note_off_c, 0, 45, 100
2, 33984, Note_on_c, 0, 57, 80
2, 33984, Note_on_c, 0, 60, 80
2, 34172, Note_off_c, 0, 57, 100
2, 34176, Note_on_c, 0, 57, 80
2, 34364, Note_off_c, 0, 60, 100
2, 34364, Note_off_c, 0, 57, 100
2, 34368, Note_on_c, 0, 57, 80
2, 34368, Note_on_c, 0, 62, 80
2, 34460, Note_off_c, 0, 62, 100
2, 34464, Note_on_c, 0, 64, 80
2, 34556, Note_off_c, 0, 57, 100
2, 34556, Note_off_c, 0, 64, 100
2, 34560, Note_on_c, 0, 60, 80
2, 34560, Note_on_c, 0, 57, 80
2, 34560, Note_on_c, 0, 65, 80
2, 34748, Note_off_c, 0, 60, 100
2, 34748, Note_off_c, 0, 57, 100
2, 34752, Note_on_c, 0, 60, 80
2, 34752, Note_on_c, 0, 57, 80
2, 34940, Note_off_c, 0, 65, 100
2, 34940, Note_off_c, 0, 60, 100
2, 34940, Note_off_c, 0, 57, 100
2, 34944, Note_on_c, 0, 60, 80
2, 34944, Note_on_c, 0, 57, 80
2, 34944, Note_on_c, 0, 65, 80
2, 35132, Note_off_c, 0, 60, 100
2, 35132, Note_off_c, 0, 57, 100
2, 35132, Note_off_c, 0, 65, 100
2, 35136, Note_on_c, 0, 60, 80
2, 35136, Note_on_c, 0, 57, 80
2, 35136, Note_on_c, 0, 65, 80
2, 35324, Note_off_c, 0, 60, 100
2, 35324, Note_off_c, 0, 57, 100
2, 35328, Note_on_c, 0, 60, 80
2, 35328, Note_on_c, 0, 57, 80
2, 35420, Note_off_c, 0, 65, 100
2, 35424, Note_on_c, 0, 67, 80
2, 35468, Note_off_c, 0, 67, 100
2, 35472, Note_on_c, 0, 65, 80
2, 35516, Note_off_c, 0, 60, 100
2, 35516, Note_off_c, 0, 57, 100
2, 35516, Note_off_c, 0, 65, 100
2, 35520, Note_on_c, 0, 60, 80
2, 35520, Note_on_c, 0, 57, 80
2, 35520, Note_on_c, 0, 64, 80
2, 35612, Note_off_c, 0, 64, 100
2, 35616, Note_on_c, 0, 65, 80
2, 35708, Note_off_c, 0, 60, 100
2, 35708, Note_off_c, 0, 57, 100
2, 35708, Note_off_c, 0, 65, 100
2, 35712, Note_on_c, 0, 60, 80
2, 35712, Note_on_c, 0, 58, 80
2, 35712, Note_on_c, 0, 54, 80
2, 35712, Note_on_c, 0, 66, 80
2, 35900, Note_off_c, 0, 60, 100
2, 35900, Note_off_c, 0, 58, 100
2, 35900, Note_off_c, 0, 54, 100
2, 35900, Note_off_c, 0, 66, 100
2, 35904, Note_on_c, 0, 60, 80
2, 35904, Note_on_c, 0, 58, 80
2, 35904, Note_on_c, 0, 55, 80
2, 35904, Note_on_c, 0, 67, 80
2, 36092, Note_off_c, 0, 60, 100
2, 36092, Note_off_c, 0, 58, 100
2, 36096, Note_on_c, 0, 60, 80
2, 36096, Note_on_c, 0, 58, 80
2, 36284, Note_off_c, 0, 55, 100
2, 36284, Note_off_c, 0, 67, 100
2, 36284, Note_off_c, 0, 60, 100
2, 36284, Note_off_c, 0, 58, 100
2, 36288, Note_on_c, 0, 60, 80
2, 36288, Note_on_c, 0, 58, 80
2, 36476, Note_off_c, 0, 60, 100
2, 36476, Note_off_c, 0, 58, 100
2, 36480, Note_on_c, 0, 60, 80
2, 36480, Note_on_c, 0, 58, 80
2, 36668, Note_off_c, 0, 60, 100
2, 36668, Note_off_c, 0, 58, 100
2, 36672, Note_on_c, 0, 60, 80
2, 36672, Note_on_c, 0, 58, 80
2, 36672, Note_on_c, 0, 55, 80
2, 36672, Note_on_c, 0, 67, 80
2, 36812, Note_off_c, 0, 55, 100
2, 36812, Note_off_c, 0, 67, 100
2, 36816, Note_on_c, 0, 65, 80
2, 36816, Note_on_c, 0, 53, 80
2, 36860, Note_off_c, 0, 60, 100
2, 36860, Note_off_c, 0, 58, 100
2, 36860, Note_off_c, 0, 65, 100
2, 36860, Note_off_c, 0, 53, 100
2, 36864, Note_on_c, 0, 58, 80
2, 36864, Note_on_c, 0, 65, 80
2, 36864, Note_on_c, 0, 60, 80
2, 37052, Note_off_c, 0, 58, 100
2, 37052, Note_off_c, 0, 65, 100
2, 37052, Note_off_c, 0, 60, 100
2, 37056, Note_on_c, 0, 58, 80
2, 37056, Note_on_c, 0, 64, 80
2, 37056, Note_on_c, 0, 60, 80
2, 37244, Note_off_c, 0, 58, 100
2, 37244, Note_off_c, 0, 64, 100
2, 37244, Note_off_c, 0, 60, 100
2, 37248, Note_on_c, 0, 58, 80
2, 37248, Note_on_c, 0, 62, 80
2, 37388, Note_off_c, 0, 62, 100
2, 37392, Note_on_c, 0, 60, 80
2, 37436, Note_off_c, 0, 58, 100
2, 37436, Note_off_c, 0, 60, 100
2, 37440, Note_on_c, 0, 58, 80
2, 37440, Note_on_c, 0, 52, 80
2, 37440, Note_on_c, 0, 60, 80
2, 37628, Note_off_c, 0, 58, 100
2, 37628, Note_off_c, 0, 52, 100
2, 37632, Note_on_c, 0, 58, 80
2, 37632, Note_on_c, 0, 52, 80
2, 37820, Note_off_c, 0, 60, 100
2, 37820, Note_off_c, 0, 58, 100
2, 37820, Note_off_c, 0, 52, 100
2, 37824, Note_on_c, 0, 58, 80
2, 37824, Note_on_c, 0, 64, 80
2, 37868, Note_off_c, 0, 64, 100
2, 37872, Note_on_c, 0, 62, 80
2, 37916, Note_off_c, 0, 62, 100
2, 37920, Note_on_c, 0, 60, 80
2, 38012, Note_off_c, 0, 58, 100
2, 38012, Note_off_c, 0, 60, 100
2, 38016, Note_on_c, 0, 60, 80
2, 38016, Note_on_c, 0, 57, 80
2, 38204, Note_off_c, 0, 60, 100
2, 38204, Note_off_c, 0, 57, 100
2, 38208, Note_on_c, 0, 65, 85
2, 38208, Note_on_c, 0, 60, 85
2, 38208, Note_on_c, 0, 57, 85
2, 38396, Note_off_c, 0, 60, 100
2, 38396, Note_off_c, 0, 57, 100
2, 38400, Note_on_c, 0, 60, 91
2, 38400, Note_on_c, 0, 57, 91
2, 38588, Note_off_c, 0, 60, 100
2, 38588, Note_off_c, 0, 57, 100
2, 38592, Note_on_c, 0, 60, 97
2, 38592, Note_on_c, 0, 57, 97
2, 38780, Note_off_c, 0, 65, 100
2, 38780, Note_off_c, 0, 60, 100
2, 38780, Note_off_c, 0, 57, 100
2, 38784, Note_on_c, 0, 64, 103
2, 38784, Note_on_c, 0, 60, 103
2, 38784, Note_on_c, 0, 57, 103
2, 38972, Note_off_c, 0, 64, 100
2, 38972, Note_off_c, 0, 60, 100
2, 38972, Note_off_c, 0, 57, 100
2, 38976, Note_on_c, 0, 63, 109
2, 38976, Note_on_c, 0, 60, 109
2, 38976, Note_on_c, 0, 57, 109
2, 39164, Note_off_c, 0, 63, 100
2, 39164, Note_off_c, 0, 60, 100
2, 39164, Note_off_c, 0, 57, 100
2, 39168, Note_on_c, 0, 60, 120
2, 39168, Note_on_c, 0, 57, 120
2, 39168, Note_on_c, 0, 63, 120
2, 39356, Note_off_c, 0, 60, 100
2, 39356, Note_off_c, 0, 57, 100
2, 39356, Note_off_c, 0, 63, 100
2, 39360, Note_on_c, 0, 60, 120
2, 39360, Note_on_c, 0, 57, 120
2, 39360, Note_on_c, 0, 62, 120
2, 39548, Note_off_c, 0, 60, 100
2, 39548, Note_off_c, 0, 57, 100
2, 39548, Note_off_c, 0, 62, 100
2, 39552, Note_on_c, 0, 60, 120
2, 39552, Note_on_c, 0, 57, 120
2, 39552, Note_on_c, 0, 61, 120
2, 39692, Note_off_c, 0, 61, 100
2, 39696, Note_on_c, 0, 62, 120
2, 39740, Note_off_c, 0, 60, 100
2, 39740, Note_off_c, 0, 57, 100
2, 39740, Note_off_c, 0, 62, 100
2, 39744, Note_on_c, 0, 60, 120
2, 39744, Note_on_c, 0, 57, 120
2, 39744, Note_on_c, 0, 63, 120
2, 39932, Note_off_c, 0, 60, 100
2, 39932, Note_off_c, 0, 57, 100
2, 39932, Note_off_c, 0, 63, 100
2, 39936, Note_on_c, 0, 60, 120
2, 39936, Note_on_c, 0, 57, 120
2, 39936, Note_on_c, 0, 62, 120
2, 40124, Note_off_c, 0, 60, 100
2, 40124, Note_off_c, 0, 57, 100
2, 40124, Note_off_c, 0, 62, 100
2, 40128, Note_on_c, 0, 60, 120
2, 40128, Note_on_c, 0, 57, 120
2, 40128, Note_on_c, 0, 61, 120
2, 40268, Note_off_c, 0, 61, 100
2, 40272, Note_on_c, 0, 62, 120
2, 40316, Note_off_c, 0, 60, 100
2, 40316, Note_off_c, 0, 57, 100
2, 40316, Note_off_c, 0, 62, 100
2, 40320, Note_on_c, 0, 62, 120
2, 40320, Note_on_c, 0, 58, 120
2, 40364, Note_off_c, 0, 62, 100
2, 40364, Note_off_c, 0, 58, 100
2, 40368, Note_on_c, 0, 82, 80
2, 40412, Note_off_c, 0, 82, 100
2, 40416, Note_on_c, 0, 84, 80
2, 40460, Note_off_c, 0, 84, 100
2, 40464, Note_on_c, 0, 86, 80
2, 40508, Note_off_c, 0, 86, 100
2, 40560, Note_on_c, 0, 86, 80
2, 40604, Note_off_c, 0, 86, 100
2, 40608, Note_on_c, 0, 84, 80
2, 40652, Note_off_c, 0, 84, 100
2, 40656, Note_on_c, 0, 82, 80
2, 40700, Note_off_c, 0, 82, 100
2, 40752, Note_on_c, 0, 82, 80
2, 40796, Note_off_c, 0, 82, 100
2, 40800, Note_on_c, 0, 81, 80
2, 40844, Note_off_c, 0, 81, 100
2, 40848, Note_on_c, 0, 79, 80
2, 40892, Note_off_c, 0, 79, 100
2, 40944, Note_on_c, 0, 78, 80
2, 40988, Note_off_c, 0, 78, 100
2, 40992, Note_on_c, 0, 79, 80
2, 41036, Note_off_c, 0, 79, 100
2, 41040, Note_on_c, 0, 74, 80
2, 41084, Note_off_c, 0, 74, 100
2, 41136, Note_on_c, 0, 74, 80
2, 41180, Note_off_c, 0, 74, 100
2, 41184, Note_on_c, 0, 72, 80
2, 41228, Note_off_c, 0, 72, 100
2, 41232, Note_on_c, 0, 70, 80
2, 41276, Note_off_c, 0, 70, 100
2, 41328, Note_on_c, 0, 70, 80
2, 41372, Note_off_c, 0, 70, 100
2, 41376, Note_on_c, 0, 69, 80
2, 41420, Note_off_c, 0, 69, 100
2, 41424, Note_on_c, 0, 67, 80
2, 41468, Note_off_c, 0, 67, 100
2, 41472, Note_on_c, 0, 65, 120
2, 41472, Note_on_c, 0, 62, 120
2, 41472, Note_on_c, 0, 59, 120
2, 41660, Note_off_c, 0, 65, 100
2, 41660, Note_off_c, 0, 62, 100
2, 41660, Note_off_c, 0, 59, 100
2, 41664, Note_on_c, 0, 64, 120
2, 41664, Note_on_c, 0, 62, 120
2, 41664, Note_on_c, 0, 59, 120
2, 41852, Note_off_c, 0, 64, 100
2, 41852, Note_off_c, 0, 62, 100
2, 41852, Note_off_c, 0, 59, 100
2, 41856, Note_on_c, 0, 62, 120
2, 41856, Note_on_c, 0, 59, 120
2, 41856, Note_on_c, 0, 63, 120
2, 41996, Note_off_c, 0, 63, 100
2, 42000, Note_on_c, 0, 64, 120
2, 42044, Note_off_c, 0, 62, 100
2, 42044, Note_off_c, 0, 59, 100
2, 42044, Note_off_c, 0, 64, 100
2, 42048, Note_on_c, 0, 65, 120
2, 42048, Note_on_c, 0, 62, 120
2, 42048, Note_on_c, 0, 59, 120
2, 42236, Note_off_c, 0, 65, 100
2, 42236, Note_off_c, 0, 62, 100
2, 42236, Note_off_c, 0, 59, 100
2, 42240, Note_on_c, 0, 64, 120
2, 42240, Note_on_c, 0, 62, 120
2, 42240, Note_on_c, 0, 59, 120
2, 42428, Note_off_c, 0, 64, 100
2, 42428, Note_off_c, 0, 62, 100
2, 42428, Note_off_c, 0, 59, 100
2, 42432, Note_on_c, 0, 62, 120
2, 42432, Note_on_c, 0, 59, 120
2, 42432, Note_on_c, 0, 63, 120
2, 42572, Note_off_c, 0, 63, 100
2, 42576, Note_on_c, 0, 64, 120
2, 42620, Note_off_c, 0, 62, 100
2, 42620, Note_off_c, 0, 59, 100
2, 42620, Note_off_c, 0, 64, 100
2, 42624, Note_on_c, 0, 64, 120
2, 42624, Note_on_c, 0, 61, 120
2, 42668, Note_off_c, 0, 64, 100
2, 42668, Note_off_c, 0, 61, 100
2, 42672, Note_on_c, 0, 85, 80
2, 42716, Note_off_c, 0, 85, 100
2, 42720, Note_on_c, 0, 86, 80
2, 42764, Note_off_c, 0, 86, 100
2, 42768, Note_on_c, 0, 88, 80
2, 42812, Note_off_c, 0, 88, 100
2, 42864, Note_on_c, 0, 88, 80
2, 42908, Note_off_c, 0, 88, 100
2, 42912, Note_on_c, 0, 86, 80
2, 42956, Note_off_c, 0, 86, 100
2, 42960, Note_on_c, 0, 85, 80
2, 43004, Note_off_c, 0, 85, 100
2, 43056, Note_on_c, 0, 85, 80
2, 43100, Note_off_c, 0, 85, 100
2, 43104, Note_on_c, 0, 83, 80
2, 43148, Note_off_c, 0, 83, 100
2, 43152, Note_on_c, 0, 81, 80
2, 43196, Note_off_c, 0, 81, 100
2, 43248, Note_on_c, 0, 80, 80
2, 43292, Note_off_c, 0, 80, 100
2, 43296, Note_on_c, 0, 81, 80
2, 43340, Note_off_c, 0, 81, 100
2, 43344, Note_on_c, 0, 76, 80
2, 43388, Note_off_c, 0, 76, 100
2, 43440, Note_on_c, 0, 76, 80
2, 43484, Note_off_c, 0, 76, 100
2, 43488, Note_on_c, 0, 74, 80
2, 43532, Note_off_c, 0, 74, 100
2, 43536, Note_on_c, 0, 73, 80
2, 43580, Note_off_c, 0, 73, 100
2, 43632, Note_on_c, 0, 73, 80
2, 43676, Note_off_c, 0, 73, 100
2, 43680, Note_on_c, 0, 71, 80
2, 43724, Note_off_c, 0, 71, 100
2, 43728, Note_on_c, 0, 69, 80
2, 43772, Note_off_c, 0, 69, 100
2, 43824, Note_on_c, 0, 86, 80
2, 43868, Note_off_c, 0, 86, 100
2, 43872, Note_on_c, 0, 88, 80
2, 43916, Note_off_c, 0, 88, 100
2, 43920, Note_on_c, 0, 89, 80
2, 43964, Note_off_c, 0, 89, 100
2, 44016, Note_on_c, 0, 89, 80
2, 44060, Note_off_c, 0, 89, 100
2, 44064, Note_on_c, 0, 88, 80
2, 44108, Note_off_c, 0, 88, 100
2, 44112, Note_on_c, 0, 86, 80
2, 44156, Note_off_c, 0, 86, 100
2, 44208, Note_on_c, 0, 85, 80
2, 44252, Note_off_c, 0, 85, 100
2, 44256, Note_on_c, 0, 86, 80
2, 44300, Note_off_c, 0, 86, 100
2, 44304, Note_on_c, 0, 81, 80
2, 44348, Note_off_c, 0, 81, 100
2, 44400, Note_on_c, 0, 80, 80
2, 44444, Note_off_c, 0, 80, 100
2, 44448, Note_on_c, 0, 82, 80
2, 44492, Note_off_c, 0, 82, 100
2, 44496, Note_on_c, 0, 81, 80
2, 44540, Note_off_c, 0, 81, 100
2, 44592, Note_on_c, 0, 81, 80
2, 44636, Note_off_c, 0, 81, 100
2, 44640, Note_on_c, 0, 79, 80
2, 44684, Note_off_c, 0, 79, 100
2, 44688, Note_on_c, 0, 77, 80
2, 44732, Note_off_c, 0, 77, 100
2, 44784, Note_on_c, 0, 77, 80
2, 44828, Note_off_c, 0, 77, 100
2, 44832, Note_on_c, 0, 76, 80
2, 44876, Note_off_c, 0, 76, 100
2, 44880, Note_on_c, 0, 74, 80
2, 44924, Note_off_c, 0, 74, 100
2, 44976, Note_on_c, 0, 79, 80
2, 45020, Note_off_c, 0, 79, 100
2, 45024, Note_on_c, 0, 81, 80
2, 45068, Note_off_c, 0, 81, 100
2, 45072, Note_on_c, 0, 82, 80
2, 45116, Note_off_c, 0, 82, 100
2, 45168, Note_on_c, 0, 82, 80
2, 45212, Note_off_c, 0, 82, 100
2, 45216, Note_on_c, 0, 81, 80
2, 45260, Note_off_c, 0, 81, 100
2, 45264, Note_on_c, 0, 79, 80
2, 45308, Note_off_c, 0, 79, 100
2, 45360, Note_on_c, 0, 79, 80
2, 45404, Note_off_c, 0, 79, 100
2, 45408, Note_on_c, 0, 77, 80
2, 45452, Note_off_c, 0, 77, 100
2, 45456, Note_on_c, 0, 76, 80
2, 45500, Note_off_c, 0, 76, 100
2, 45552, Note_on_c, 0, 76, 80
2, 45596, Note_off_c, 0, 76, 100
2, 45600, Note_on_c, 0, 74, 80
2, 45644, Note_off_c, 0, 74, 100
2, 45648, Note_on_c, 0, 73, 80
2, 45692, Note_off_c, 0, 73, 100
2, 45744, Note_on_c, 0, 70, 80
2, 45788, Note_off_c, 0, 70, 100
2, 45792, Note_on_c, 0, 69, 80
2, 45836, Note_off_c, 0, 69, 100
2, 45840, Note_on_c, 0, 67, 80
2, 45884, Note_off_c, 0, 67, 100
2, 45936, Note_on_c, 0, 67, 80
2, 45980, Note_off_c, 0, 67, 100
2, 45984, Note_on_c, 0, 65, 80
2, 46028, Note_off_c, 0, 65, 100
2, 46032, Note_on_c, 0, 64, 80
2, 46076, Note_off_c, 0, 64, 100
2, 46128, Note_on_c, 0, 64, 80
2, 46172, Note_off_c, 0, 64, 100
2, 46176, Note_on_c, 0, 62, 80
2, 46220, Note_off_c, 0, 62, 100
2, 46224, Note_on_c, 0, 61, 80
2, 46268, Note_off_c, 0, 61, 100
2, 46320, Note_on_c, 0, 58, 80
2, 46364, Note_off_c, 0, 58, 100
2, 46368, Note_on_c, 0, 57, 80
2, 46412, Note_off_c, 0, 57, 100
2, 46416, Note_on_c, 0, 55, 80
2, 46460, Note_off_c, 0, 55, 100
2, 46512, Note_on_c, 0, 55, 80
2, 46556, Note_off_c, 0, 55, 100
2, 46560, Note_on_c, 0, 53, 80
2, 46604, Note_off_c, 0, 53, 100
2, 46608, Note_on_c, 0, 52, 80
2, 46652, Note_off_c, 0, 52, 100
2, 46704, Note_on_c, 0, 52, 80
2, 46748, Note_off_c, 0, 52, 100
2, 46752, Note_on_c, 0, 50, 80
2, 46796, Note_off_c, 0, 50, 100
2, 46800, Note_on_c, 0, 49, 80
2, 46844, Note_off_c, 0, 49, 100
2, 47280, Note_on_c, 0, 58, 80
2, 47324, Note_off_c, 0, 58, 100
2, 47328, Note_on_c, 0, 57, 80
2, 47372, Note_off_c, 0, 57, 100
2, 47376, Note_on_c, 0, 55, 80
2, 47420, Note_off_c, 0, 55, 100
2, 47856, Note_on_c, 0, 64, 80
2, 47900, Note_off_c, 0, 64, 100
2, 47904, Note_on_c, 0, 62, 80
2, 47948, Note_off_c, 0, 62, 100
2, 47952, Note_on_c, 0, 61, 80
2, 47996, Note_off_c, 0, 61, 100
2, 48432, Note_on_c, 0, 64, 80
2, 48476, Note_off_c, 0, 64, 100
2, 48480, Note_on_c, 0, 62, 80
2, 48524, Note_off_c, 0, 62, 100
2, 48528, Note_on_c, 0, 61, 80
2, 48572, Note_off_c, 0, 61, 100
2, 48576, Note_on_c, 0, 70, 80
2, 48812, Note_off_c, 0, 70, 100
2, 48816, Note_on_c, 0, 69, 80
2, 48860, Note_off_c, 0, 69, 100
2, 48864, Note_on_c, 0, 67, 80
2, 48908, Note_off_c, 0, 67, 100
2, 48912, Note_on_c, 0, 66, 80
2, 48956, Note_off_c, 0, 66, 100
2, 48960, Note_on_c, 0, 65, 80
2, 49004, Note_off_c, 0, 65, 100
2, 49008, Note_on_c, 0, 64, 80
2, 49052, Note_off_c, 0, 64, 100
2, 49056, Note_on_c, 0, 63, 80
2, 49100, Note_off_c, 0, 63, 100
2, 49104, Note_on_c, 0, 62, 80
2, 49148, Note_off_c, 0, 62, 100
2, 49152, Note_on_c, 0, 61, 80
2, 49196, Note_off_c, 0, 61, 100
2, 49200, Note_on_c, 0, 60, 80
2, 49244, Note_off_c, 0, 60, 100
2, 49248, Note_on_c, 0, 59, 80
2, 49292, Note_off_c, 0, 59, 100
2, 49296, Note_on_c, 0, 58, 80
2, 49340, Note_off_c, 0, 58, 100
2, 49344, Note_on_c, 0, 57, 80
2, 49388, Note_off_c, 0, 57, 100
2, 49392, Note_on_c, 0, 55, 80
2, 49436, Note_off_c, 0, 55, 100
2, 49440, Note_on_c, 0, 53, 80
2, 49484, Note_off_c, 0, 53, 100
2, 49488, Note_on_c, 0, 52, 80
2, 49532, Note_off_c, 0, 52, 100
2, 49536, Note_on_c, 0, 57, 80
2, 49536, Note_on_c, 0, 53, 80
2, 49536, Note_on_c, 0, 62, 80
2, 49724, Note_off_c, 0, 62, 100
2, 49728, Note_on_c, 0, 61, 80
2, 49916, Note_off_c, 0, 61, 100
2, 49920, Note_on_c, 0, 62, 80
2, 50108, Note_off_c, 0, 57, 100
2, 50108, Note_off_c, 0, 53, 100
2, 50108, Note_off_c, 0, 62, 100
2, 50112, Note_on_c, 0, 65, 80
2, 50112, Note_on_c, 0, 57, 80
2, 50112, Note_on_c, 0, 53, 80
2, 50300, Note_off_c, 0, 65, 100
2, 50300, Note_off_c, 0, 57, 100
2, 50300, Note_off_c, 0, 53, 100
2, 50304, Note_on_c, 0, 61, 80
2, 50304, Note_on_c, 0, 58, 80
2, 50304, Note_on_c, 0, 55, 80
2, 50492, Note_off_c, 0, 61, 100
2, 50492, Note_off_c, 0, 58, 100
2, 50492, Note_off_c, 0, 55, 100
2, 50496, Note_on_c, 0, 62, 80
2, 50496, Note_on_c, 0, 57, 80
2, 50496, Note_on_c, 0, 53, 80
2, 50684, Note_off_c, 0, 62, 100
2, 50684, Note_off_c, 0, 57, 100
2, 50684, Note_off_c, 0, 53, 100
2, 50688, Note_on_c, 0, 58, 80
2, 50688, Note_on_c, 0, 55, 80
2, 50688, Note_on_c, 0, 52, 80
2, 50688, Note_on_c, 0, 62, 80
2, 50876, Note_off_c, 0, 62, 100
2, 50880, Note_on_c, 0, 61, 80
2, 51068, Note_off_c, 0, 61, 100
2, 51072, Note_on_c, 0, 62, 80
2, 51260, Note_off_c, 0, 58, 100
2, 51260, Note_off_c, 0, 55, 100
2, 51260, Note_off_c, 0, 52, 100
2, 51260, Note_off_c, 0, 62, 100
2, 51264, Note_on_c, 0, 58, 80
2, 51264, Note_on_c, 0, 55, 80
2, 51264, Note_on_c, 0, 67, 80
2, 51452, Note_off_c, 0, 67, 100
2, 51456, Note_on_c, 0, 61, 80
2, 51644, Note_off_c, 0, 58, 100
2, 51644, Note_off_c, 0, 55, 100
2, 51644, Note_off_c, 0, 61, 100
2, 51648, Note_on_c, 0, 62, 80
2, 51648, Note_on_c, 0, 58, 80
2, 51648, Note_on_c, 0, 55, 80
2, 51836, Note_off_c, 0, 62, 100
2, 51836, Note_off_c, 0, 58, 100
2, 51836, Note_off_c, 0, 55, 100
2, 51840, Note_on_c, 0, 58, 80
2, 51840, Note_on_c, 0, 55, 80
2, 51840, Note_on_c, 0, 65, 80
2, 52028, Note_off_c, 0, 65, 100
2, 52032, Note_on_c, 0, 64, 80
2, 52220, Note_off_c, 0, 58, 100
2, 52220, Note_off_c, 0, 55, 100
2, 52220, Note_off_c, 0, 64, 100
2, 52224, Note_on_c, 0, 62, 80
2, 52224, Note_on_c, 0, 58, 80
2, 52224, Note_on_c, 0, 55, 80
2, 52412, Note_off_c, 0, 62, 100
2, 52412, Note_off_c, 0, 58, 100
2, 52412, Note_off_c, 0, 55, 100
2, 52416, Note_on_c, 0, 61, 80
2, 52416, Note_on_c, 0, 58, 80
2, 52416, Note_on_c, 0, 55, 80
2, 52796, Note_off_c, 0, 61, 100
2, 52796, Note_off_c, 0, 58, 100
2, 52796, Note_off_c, 0, 55, 100
2, 52800, Note_on_c, 0, 62, 80
2, 52800, Note_on_c, 0, 58, 80
2, 52800, Note_on_c, 0, 55, 80
2, 52988, Note_off_c, 0, 62, 100
2, 52988, Note_off_c, 0, 58, 100
2, 52988, Note_off_c, 0, 55, 100
2, 52992, Note_on_c, 0, 58, 80
2, 52992, Note_on_c, 0, 55, 80
2, 52992, Note_on_c, 0, 65, 80
2, 53180, Note_off_c, 0, 65, 100
2, 53184, Note_on_c, 0, 64, 80
2, 53372, Note_off_c, 0, 58, 100
2, 53372, Note_off_c, 0, 55, 100
2, 53372, Note_off_c, 0, 64, 100
2, 53376, Note_on_c, 0, 66, 80
2, 53376, Note_on_c, 0, 57, 80
2, 53376, Note_on_c, 0, 62, 80
2, 53564, Note_off_c, 0, 66, 100
2, 53564, Note_off_c, 0, 57, 100
2, 53564, Note_off_c, 0, 62, 100
2, 53568, Note_on_c, 0, 62, 80
2, 53568, Note_on_c, 0, 69, 80
2, 53756, Note_off_c, 0, 69, 100
2, 53760, Note_on_c, 0, 67, 80
2, 53948, Note_off_c, 0, 62, 100
2, 53948, Note_off_c, 0, 67, 100
2, 53952, Note_on_c, 0, 69, 80
2, 53952, Note_on_c, 0, 62, 80
2, 53952, Note_on_c, 0, 60, 80
2, 54140, Note_off_c, 0, 69, 100
2, 54140, Note_off_c, 0, 62, 100
2, 54140, Note_off_c, 0, 60, 100
2, 54144, Note_on_c, 0, 70, 80
2, 54144, Note_on_c, 0, 62, 80
2, 54144, Note_on_c, 0, 58, 80
2, 54332, Note_off_c, 0, 70, 100
2, 54332, Note_off_c, 0, 62, 100
2, 54332, Note_off_c, 0, 58, 100
2, 54336, Note_on_c, 0, 70, 80
2, 54524, Note_off_c, 0, 70, 100
2, 54528, Note_on_c, 0, 70, 80
2, 54716, Note_off_c, 0, 70, 100
2, 54720, Note_on_c, 0, 70, 80
2, 54908, Note_off_c, 0, 70, 100
2, 54912, Note_on_c, 0, 70, 80
2, 55100, Note_off_c, 0, 70, 100
2, 55104, Note_on_c, 0, 70, 80
2, 55292, Note_off_c, 0, 70, 100
2, 55296, Note_on_c, 0, 70, 80
2, 55296, Note_on_c, 0, 63, 80
2, 55484, Note_off_c, 0, 70, 100
2, 55484, Note_off_c, 0, 63, 100
2, 55488, Note_on_c, 0, 70, 80
2, 55488, Note_on_c, 0, 62, 80
2, 55676, Note_off_c, 0, 70, 100
2, 55676, Note_off_c, 0, 62, 100
2, 55680, Note_on_c, 0, 70, 80
2, 55680, Note_on_c, 0, 63, 80
2, 55868, Note_off_c, 0, 70, 100
2, 55868, Note_off_c, 0, 63, 100
2, 55872, Note_on_c, 0, 70, 80
2, 55872, Note_on_c, 0, 67, 80
2, 56060, Note_off_c, 0, 70, 100
2, 56060, Note_off_c, 0, 67, 100
2, 56064, Note_on_c, 0, 70, 80
2, 56064, Note_on_c, 0, 62, 80
2, 56252, Note_off_c, 0, 70, 100
2, 56252, Note_off_c, 0, 62, 100
2, 56256, Note_on_c, 0, 70, 80
2, 56256, Note_on_c, 0, 63, 80
2, 56444, Note_off_c, 0, 70, 100
2, 56444, Note_off_c, 0, 63, 100
2, 56448, Note_on_c, 0, 70, 80
2, 56448, Note_on_c, 0, 75, 80
2, 56636, Note_off_c, 0, 70, 100
2, 56636, Note_off_c, 0, 75, 100
2, 56640, Note_on_c, 0, 70, 80
2, 56640, Note_on_c, 0, 74, 80
2, 56828, Note_off_c, 0, 70, 100
2, 56828, Note_off_c, 0, 74, 100
2, 56832, Note_on_c, 0, 70, 80
2, 56832, Note_on_c, 0, 75, 80
2, 56924, Note_off_c, 0, 75, 100
2, 56928, Note_on_c, 0, 77, 80
2, 56952, Note_on_c, 0, 75, 80
2, 56972, Note_off_c, 0, 77, 100
2, 56976, Note_on_c, 0, 74, 80
2, 56996, Note_off_c, 0, 75, 100
2, 57000, Note_on_c, 0, 75, 80
2, 57020, Note_off_c, 0, 70, 100
2, 57020, Note_off_c, 0, 74, 100
2, 57020, Note_off_c, 0, 75, 100
2, 57024, Note_on_c, 0, 70, 80
2, 57024, Note_on_c, 0, 78, 80
2, 57212, Note_off_c, 0, 70, 100
2, 57212, Note_off_c, 0, 78, 100
2, 57216, Note_on_c, 0, 70, 80
2, 57216, Note_on_c, 0, 74, 80
2, 57404, Note_off_c, 0, 70, 100
2, 57404, Note_off_c, 0, 74, 100
2, 57408, Note_on_c, 0, 70, 80
2, 57408, Note_on_c, 0, 75, 80
2, 57596, Note_off_c, 0, 70, 100
2, 57596, Note_off_c, 0, 75, 100
2, 57600, Note_on_c, 0, 75, 80
2, 57600, Note_on_c, 0, 69, 80
2, 57600, Note_on_c, 0, 81, 80
2, 57788, Note_off_c, 0, 75, 100
2, 57788, Note_off_c, 0, 69, 100
2, 57788, Note_off_c, 0, 81, 100
2, 57792, Note_on_c, 0, 75, 84
2, 57792, Note_on_c, 0, 80, 84
2, 57980, Note_off_c, 0, 75, 100
2, 57980, Note_off_c, 0, 80, 100
2, 57984, Note_on_c, 0, 75, 89
2, 57984, Note_on_c, 0, 81, 89
2, 58172, Note_off_c, 0, 75, 100
2, 58172, Note_off_c, 0, 81, 100
2, 58176, Note_on_c, 0, 75, 94
2, 58176, Note_on_c, 0, 84, 94
2, 58176, Note_on_c, 0, 87, 94
2, 58364, Note_off_c, 0, 75, 100
2, 58364, Note_off_c, 0, 84, 100
2, 58364, Note_off_c, 0, 87, 100
2, 58368, Note_on_c, 0, 75, 99
2, 58368, Note_on_c, 0, 87, 99
2, 58368, Note_on_c, 0, 80, 99
2, 58556, Note_off_c, 0, 75, 100
2, 58556, Note_off_c, 0, 87, 100
2, 58556, Note_off_c, 0, 80, 100
2, 58560, Note_on_c, 0, 75, 104
2, 58560, Note_on_c, 0, 87, 104
2, 58560, Note_on_c, 0, 81, 104
2, 58748, Note_off_c, 0, 75, 100
2, 58748, Note_off_c, 0, 87, 100
2, 58748, Note_off_c, 0, 81, 100
2, 58752, Note_on_c, 0, 82, 109
2, 58752, Note_on_c, 0, 86, 109
2, 58752, Note_on_c, 0, 74, 109
2, 59132, Note_off_c, 0, 82, 100
2, 59132, Note_off_c, 0, 86, 100
2, 59132, Note_off_c, 0, 74, 100
2, 59520, Note_on_c, 0, 84, 80
2, 59520, Note_on_c, 0, 82, 80
2, 59708, Note_off_c, 0, 84, 100
2, 59708, Note_off_c, 0, 82, 100
2, 59712, Note_on_c, 0, 84, 80
2, 59712, Note_on_c, 0, 82, 80
2, 59900, Note_off_c, 0, 84, 100
2, 59900, Note_off_c, 0, 82, 100
2, 59904, Note_on_c, 0, 82, 80
2, 59904, Note_on_c, 0, 86, 80
2, 60188, Note_off_c, 0, 86, 100
2, 60192, Note_on_c, 0, 87, 94
2, 60236, Note_off_c, 0, 87, 100
2, 60240, Note_on_c, 0, 86, 97
2, 60284, Note_off_c, 0, 86, 100
2, 60288, Note_on_c, 0, 85, 99
2, 60428, Note_off_c, 0, 85, 100
2, 60432, Note_on_c, 0, 86, 107
2, 60476, Note_off_c, 0, 82, 100
2, 60476, Note_off_c, 0, 86, 100
2, 60480, Note_on_c, 0, 89, 109
2, 60764, Note_off_c, 0, 89, 100
2, 60768, Note_on_c, 0, 87, 96
2, 60860, Note_off_c, 0, 87, 100
2, 60864, Note_on_c, 0, 86, 88
2, 60956, Note_off_c, 0, 86, 100
2, 60960, Note_on_c, 0, 84, 81
2, 61052, Note_off_c, 0, 84, 100
2, 61056, Note_on_c, 0, 85, 80
2, 61148, Note_off_c, 0, 85, 100
2, 61152, Note_on_c, 0, 86, 80
2, 61244, Note_off_c, 0, 86, 100
2, 61824, Note_on_c, 0, 84, 97
2, 61824, Note_on_c, 0, 82, 97
2, 61824, Note_on_c, 0, 72, 97
2, 62012, Note_off_c, 0, 84, 100
2, 62012, Note_off_c, 0, 82, 100
2, 62012, Note_off_c, 0, 72, 100
2, 62016, Note_on_c, 0, 84, 105
2, 62016, Note_on_c, 0, 82, 105
2, 62016, Note_on_c, 0, 72, 105
2, 62204, Note_off_c, 0, 84, 100
2, 62204, Note_off_c, 0, 82, 100
2, 62204, Note_off_c, 0, 72, 100
2, 62208, Note_on_c, 0, 74, 120
2, 62252, Note_off_c, 0, 74, 100
2, 62256, Note_on_c, 0, 86, 118
2, 62444, Note_off_c, 0, 86, 100
2, 62448, Note_on_c, 0, 82, 107
2, 62492, Note_off_c, 0, 82, 100
2, 62496, Note_on_c, 0, 77, 104
2, 62540, Note_off_c, 0, 77, 100
2, 62544, Note_on_c, 0, 74, 101
2, 62588, Note_off_c, 0, 74, 100
2, 62592, Note_on_c, 0, 70, 99
2, 62636, Note_off_c, 0, 70, 100
2, 62640, Note_on_c, 0, 65, 96
2, 62684, Note_off_c, 0, 65, 100
2, 62688, Note_on_c, 0, 62, 93
2, 62732, Note_off_c, 0, 62, 100
2, 62736, Note_on_c, 0, 58, 91
2, 62780, Note_off_c, 0, 58, 100
2, 62784, Note_on_c, 0, 57, 80
2, 62784, Note_on_c, 0, 65, 80
2, 63068, Note_off_c, 0, 65, 100
2, 63072, Note_on_c, 0, 63, 80
2, 63164, Note_off_c, 0, 57, 100
2, 63164, Note_off_c, 0, 63, 100
2, 63168, Note_on_c, 0, 57, 80
2, 63168, Note_on_c, 0, 60, 80
2, 63260, Note_off_c, 0, 60, 100
2, 63264, Note_on_c, 0, 65, 80
2, 63356, Note_off_c, 0, 57, 100
2, 63356, Note_off_c, 0, 65, 100
2, 63360, Note_on_c, 0, 58, 80
2, 63740, Note_off_c, 0, 58, 100
2, 63744, Note_on_c, 0, 62, 80
2, 63932, Note_off_c, 0, 62, 100
2, 63936, Note_on_c, 0, 65, 80
2, 63936, Note_on_c, 0, 56, 80
2, 64316, Note_off_c, 0, 65, 100
2, 64316, Note_off_c, 0, 56, 100
2, 64320, Note_on_c, 0, 56, 80
2, 64320, Note_on_c, 0, 64, 80
2, 64412, Note_off_c, 0, 64, 100
2, 64416, Note_on_c, 0, 62, 80
2, 64508, Note_off_c, 0, 56, 100
2, 64508, Note_off_c, 0, 62, 100
2, 64512, Note_on_c, 0, 57, 80
2, 64512, Note_on_c, 0, 62, 80
2, 64700, Note_off_c, 0, 62, 100
2, 64704, Note_on_c, 0, 61, 80
2, 64892, Note_off_c, 0, 57, 100
2, 64892, Note_off_c, 0, 61, 100
2, 64896, Note_on_c, 0, 62, 80
2, 64940, Note_off_c, 0, 62, 100
2, 64944, Note_on_c, 0, 64, 80
2, 64960, Note_on_c, 0, 62, 80
2, 64966, Note_off_c, 0, 64, 100
2, 64976, Note_on_c, 0, 61, 80
2, 64980, Note_off_c, 0, 62, 100
2, 64992, Note_on_c, 0, 62, 80
2, 64996, Note_off_c, 0, 61, 100
2, 65036, Note_off_c, 0, 62, 100
2, 65040, Note_on_c, 0, 64, 80
2, 65084, Note_off_c, 0, 64, 100
2, 65088, Note_on_c, 0, 65, 80
2, 65088, Note_on_c, 0, 56, 80
2, 65276, Note_off_c, 0, 65, 100
2, 65280, Note_on_c, 0, 64, 80
2, 65324, Note_off_c, 0, 64, 100
2, 65328, Note_on_c, 0, 65, 80
2, 65372, Note_off_c, 0, 65, 100
2, 65376, Note_on_c, 0, 64, 80
2, 65420, Note_off_c, 0, 64, 100
2, 65424, Note_on_c, 0, 65, 80
2, 65468, Note_off_c, 0, 56, 100
2, 65468, Note_off_c, 0, 65, 100
2, 65472, Note_on_c, 0, 55, 80
2, 65472, Note_on_c, 0, 67, 80
2, 65516, Note_off_c, 0, 67, 100
2, 65520, Note_on_c, 0, 65, 80
2, 65564, Note_off_c, 0, 65, 100
2, 65568, Note_on_c, 0, 64, 80
2, 65612, Note_off_c, 0, 64, 100
2, 65616, Note_on_c, 0, 62, 80
2, 65660, Note_off_c, 0, 55, 100
2, 65660, Note_off_c, 0, 62, 100
2, 65664, Note_on_c, 0, 57, 80
2, 65664, Note_on_c, 0, 62, 80
2, 65852, Note_off_c, 0, 62, 100
2, 65856, Note_on_c, 0, 61, 80
2, 66044, Note_off_c, 0, 57, 100
2, 66044, Note_off_c, 0, 61, 100
2, 66144, Note_on_c, 0, 61, 80
2, 66236, Note_off_c, 0, 61, 100
2, 66240, Note_on_c, 0, 70, 110
2, 66240, Note_on_c, 0, 64, 110
2, 66240, Note_on_c, 0, 61, 110
2, 66240, Note_on_c, 0, 58, 110
2, 66524, Note_off_c, 0, 70, 100
2, 66524, Note_off_c, 0, 64, 100
2, 66524, Note_off_c, 0, 61, 100
2, 66524, Note_off_c, 0, 58, 100
2, 66528, Note_on_c, 0, 69, 110
2, 66528, Note_on_c, 0, 64, 110
2, 66528, Note_on_c, 0, 61, 110
2, 66528, Note_on_c, 0, 57, 110
2, 66592, Note_off_c, 0, 69, 100
2, 66592, Note_off_c, 0, 64, 100
2, 66592, Note_off_c, 0, 61, 100
2, 66592, Note_off_c, 0, 57, 100
2, 66624, Note_on_c, 0, 67, 110
2, 66624, Note_on_c, 0, 64, 110
2, 66624, Note_on_c, 0, 61, 110
2, 66624, Note_on_c, 0, 55, 110
2, 66688, Note_off_c, 0, 67, 100
2, 66688, Note_off_c, 0, 64, 100
2, 66688, Note_off_c, 0, 61, 100
2, 66688, Note_off_c, 0, 55, 100
2, 66720, Note_on_c, 0, 70, 110
2, 66720, Note_on_c, 0, 61, 110
2, 66720, Note_on_c, 0, 58, 110
2, 66784, Note_off_c, 0, 70, 100
2, 66784, Note_off_c, 0, 61, 100
2, 66784, Note_off_c, 0, 58, 100
2, 66816, Note_on_c, 0, 69, 110
2, 66816, Note_on_c, 0, 62, 110
2, 66816, Note_on_c, 0, 57, 110
2, 67004, Note_off_c, 0, 69, 100
2, 67004, Note_off_c, 0, 62, 100
2, 67004, Note_off_c, 0, 57, 100
2, 67200, Note_on_c, 0, 64, 80
2, 67200, Note_on_c, 0, 62, 80
2, 67200, Note_on_c, 0, 58, 80
2, 67388, Note_off_c, 0, 64, 100
2, 67388, Note_off_c, 0, 62, 100
2, 67388, Note_off_c, 0, 58, 100
2, 67392, Note_on_c, 0, 65, 80
2, 67392, Note_on_c, 0, 62, 80
2, 67392, Note_on_c, 0, 57, 80
2, 67580, Note_off_c, 0, 65, 100
2, 67580, Note_off_c, 0, 62, 100
2, 67580, Note_off_c, 0, 57, 100
2, 67776, Note_on_c, 0, 61, 80
2, 67776, Note_on_c, 0, 57, 80
2, 67776, Note_on_c, 0, 55, 80
2, 67776, Note_on_c, 0, 52, 80
2, 67964, Note_off_c, 0, 61, 100
2, 67964, Note_off_c, 0, 57, 100
2, 67964, Note_off_c, 0, 55, 100
2, 67964, Note_off_c, 0, 52, 100
2, 67968, Note_on_c, 0, 62, 80
2, 67968, Note_on_c, 0, 53, 80
2, 67968, Note_on_c, 0, 57, 80
2, 68348, Note_off_c, 0, 62, 100
2, 68348, Note_off_c, 0, 53, 100
2, 68348, Note_off_c, 0, 57, 100
2, 68928, Note_on_c, 0, 68, 110
2, 68928, Note_on_c, 0, 56, 110
2, 69116, Note_off_c, 0, 68, 100
2, 69116, Note_off_c, 0, 56, 100
2, 69120, Note_on_c, 0, 69, 110
2, 69120, Note_on_c, 0, 57, 110
2, 69212, Note_off_c, 0, 69, 100
2, 69212, Note_off_c, 0, 57, 100
2, 69216, Note_on_c, 0, 69, 110
2, 69216, Note_on_c, 0, 81, 110
2, 69404, Note_off_c, 0, 69, 100
2, 69404, Note_off_c, 0, 81, 100
2, 69408, Note_on_c, 0, 79, 110
2, 69408, Note_on_c, 0, 67, 110
2, 69500, Note_off_c, 0, 79, 100
2, 69500, Note_off_c, 0, 67, 100
2, 69504, Note_on_c, 0, 77, 110
2, 69504, Note_on_c, 0, 65, 110
2, 69596, Note_off_c, 0, 77, 100
2, 69596, Note_off_c, 0, 65, 100
2, 69600, Note_on_c, 0, 76, 110
2, 69600, Note_on_c, 0, 64, 110
2, 69692, Note_off_c, 0, 76, 100
2, 69692, Note_off_c, 0, 64, 100
2, 69696, Note_on_c, 0, 74, 110
2, 69696, Note_on_c, 0, 62, 110
2, 70076, Note_off_c, 0, 74, 100
2, 70076, Note_off_c, 0, 62, 100
2, 70176, Note_on_c, 0, 68, 120
2, 70176, Note_on_c, 0, 56, 120
2, 70268, Note_off_c, 0, 68, 100
2, 70268, Note_off_c, 0, 56, 100
2, 70272, Note_on_c, 0, 69, 120
2, 70272, Note_on_c, 0, 57, 120
2, 70364, Note_off_c, 0, 69, 100
2, 70364, Note_off_c, 0, 57, 100
2, 70368, Note_on_c, 0, 81, 120
2, 70368, Note_on_c, 0, 69, 120
2, 70556, Note_off_c, 0, 81, 100
2, 70556, Note_off_c, 0, 69, 100
2, 70560, Note_on_c, 0, 80, 120
2, 70604, Note_off_c, 0, 80, 100
2, 70608, Note_on_c, 0, 81, 120
2, 70652, Note_off_c, 0, 81, 100
2, 70656, Note_on_c, 0, 80, 120
2, 70700, Note_off_c, 0, 80, 100
2, 70704, Note_on_c, 0, 81, 120
2, 70748, Note_off_c, 0, 81, 100
2, 70752, Note_on_c, 0, 80, 120
2, 70796, Note_off_c, 0, 80, 100
2, 70800, Note_on_c, 0, 81, 120
2, 70844, Note_off_c, 0, 81, 100
2, 70848, Note_on_c, 0, 82, 120
2, 70848, Note_on_c, 0, 70, 120
2, 70848, Note_on_c, 0, 76, 120
2, 70848, Note_on_c, 0, 73, 120
2, 71132, Note_off_c, 0, 82, 100
2, 71132, Note_off_c, 0, 70, 100
2, 71136, Note_on_c, 0, 81, 80
2, 71228, Note_off_c, 0, 81, 100
2, 71232, Note_on_c, 0, 79, 80
2, 71324, Note_off_c, 0, 79, 100
2, 71328, Note_on_c, 0, 82, 80
2, 71420, Note_off_c, 0, 76, 100
2, 71420, Note_off_c, 0, 73, 100
2, 71420, Note_off_c, 0, 82, 100
2, 71424, Note_on_c, 0, 87, 110
2, 71424, Note_on_c, 0, 75, 110
2, 71424, Note_on_c, 0, 78, 110
2, 71424, Note_on_c, 0, 81, 110
2, 71708, Note_off_c, 0, 87, 100
2, 71708, Note_off_c, 0, 75, 100
2, 71712, Note_on_c, 0, 86, 80
2, 71712, Note_on_c, 0, 74, 80
2, 71804, Note_off_c, 0, 86, 100
2, 71804, Note_off_c, 0, 74, 100
2, 71808, Note_on_c, 0, 84, 80
2, 71808, Note_on_c, 0, 72, 80
2, 71900, Note_off_c, 0, 84, 100
2, 71900, Note_off_c, 0, 72, 100
2, 71904, Note_on_c, 0, 87, 80
2, 71904, Note_on_c, 0, 75, 80
2, 71996, Note_off_c, 0, 78, 100
2, 71996, Note_off_c, 0, 81, 100
2, 71996, Note_off_c, 0, 87, 100
2, 71996, Note_off_c, 0, 75, 100
2, 72000, Note_on_c, 0, 77, 100
2, 72000, Note_on_c, 0, 89, 100
2, 72000, Note_on_c, 0, 80, 100
2, 72000, Note_on_c, 0, 83, 100
2, 72284, Note_off_c, 0, 77, 100
2, 72284, Note_off_c, 0, 89, 100
2, 72288, Note_on_c, 0, 88, 80
2, 72288, Note_on_c, 0, 76, 80
2, 72380, Note_off_c, 0, 88, 100
2, 72380, Note_off_c, 0, 76, 100
2, 72384, Note_on_c, 0, 86, 80
2, 72384, Note_on_c, 0, 74, 80
2, 72476, Note_off_c, 0, 86, 100
2, 72476, Note_off_c, 0, 74, 100
2, 72480, Note_on_c, 0, 89, 80
2, 72480, Note_on_c, 0, 77, 80
2, 72572, Note_off_c, 0, 80, 100
2, 72572, Note_off_c, 0, 83, 100
2, 72572, Note_off_c, 0, 89, 100
2, 72572, Note_off_c, 0, 77, 100
2, 72576, Note_on_c, 0, 85, 80
2, 72576, Note_on_c, 0, 82, 80
2, 72576, Note_on_c, 0, 79, 80
2, 72576, Note_on_c, 0, 76, 80
2, 72764, Note_off_c, 0, 85, 100
2, 72764, Note_off_c, 0, 82, 100
2, 72764, Note_off_c, 0, 79, 100
2, 72764, Note_off_c, 0, 76, 100
2, 72960, Note_on_c, 0, 86, 80
2, 72960, Note_on_c, 0, 81, 80
2, 72960, Note_on_c, 0, 77, 80
2, 72960, Note_on_c, 0, 74, 80
2, 73148, Note_off_c, 0, 86, 100
2, 73148, Note_off_c, 0, 81, 100
2, 73148, Note_off_c, 0, 77, 100
2, 73148, Note_off_c, 0, 74, 100
2, 73152, Note_on_c, 0, 82, 80
2, 73152, Note_on_c, 0, 76, 80
2, 73152, Note_on_c, 0, 74, 80
2, 73152, Note_on_c, 0, 70, 80
2, 73340, Note_off_c, 0, 82, 100
2, 73340, Note_off_c, 0, 76, 100
2, 73340, Note_off_c, 0, 74, 100
2, 73340, Note_off_c, 0, 70, 100
2, 73536, Note_on_c, 0, 81, 80
2, 73536, Note_on_c, 0, 76, 80
2, 73536, Note_on_c, 0, 73, 80
2, 73536, Note_on_c, 0, 69, 80
2, 73724, Note_off_c, 0, 81, 100
2, 73724, Note_off_c, 0, 76, 100
2, 73724, Note_off_c, 0, 73, 100
2, 73724, Note_off_c, 0, 69, 100
2, 73760, Note_on_c, 0, 53, 70
2, 73792, Note_on_c, 0, 57, 70
2, 73820, Note_off_c, 0, 53, 100
2, 73824, Note_on_c, 0, 62, 70
2, 73852, Note_off_c, 0, 57, 100
2, 73856, Note_on_c, 0, 57, 70
2, 73884, Note_off_c, 0, 62, 100
2, 73888, Note_on_c, 0, 53, 70
2, 73916, Note_off_c, 0, 57, 100
2, 73948, Note_off_c, 0, 53, 100
2, 73952, Note_on_c, 0, 53, 70
2, 73984, Note_on_c, 0, 57, 70
2, 74012, Note_off_c, 0, 53, 100
2, 74016, Note_on_c, 0, 62, 70
2, 74044, Note_off_c, 0, 57, 100
2, 74048, Note_on_c, 0, 57, 70
2, 74076, Note_off_c, 0, 62, 100
2, 74080, Note_on_c, 0, 53, 70
2, 74108, Note_off_c, 0, 57, 100
2, 74140, Note_off_c, 0, 53, 100
2, 74144, Note_on_c, 0, 53, 70
2, 74176, Note_on_c, 0, 57, 70
2, 74204, Note_off_c, 0, 53, 100
2, 74208, Note_on_c, 0, 62, 70
2, 74236, Note_off_c, 0, 57, 100
2, 74240, Note_on_c, 0, 57, 70
2, 74268, Note_off_c, 0, 62, 100
2, 74272, Note_on_c, 0, 53, 70
2, 74300, Note_off_c, 0, 57, 100
2, 74332, Note_off_c, 0, 53, 100
2, 74336, Note_on_c, 0, 53, 70
2, 74368, Note_on_c, 0, 57, 70
2, 74396, Note_off_c, 0, 53, 100
2, 74400, Note_on_c, 0, 62, 70
2, 74428, Note_off_c, 0, 57, 100
2, 74432, Note_on_c, 0, 57, 70
2, 74460, Note_off_c, 0, 62, 100
2, 74464, Note_on_c, 0, 53, 70
2, 74492, Note_off_c, 0, 57, 100
2, 74524, Note_off_c, 0, 53, 100
2, 74528, Note_on_c, 0, 53, 70
2, 74560, Note_on_c, 0, 57, 70
2, 74588, Note_off_c, 0, 53, 100
2, 74592, Note_on_c, 0, 62, 70
2, 74620, Note_off_c, 0, 57, 100
2, 74624, Note_on_c, 0, 57, 70
2, 74652, Note_off_c, 0, 62, 100
2, 74656, Note_on_c, 0, 53, 70
2, 74684, Note_off_c, 0, 57, 100
2, 74716, Note_off_c, 0, 53, 100
2, 74720, Note_on_c, 0, 53, 70
2, 74752, Note_on_c, 0, 57, 70
2, 74780, Note_off_c, 0, 53, 100
2, 74784, Note_on_c, 0, 62, 70
2, 74812, Note_off_c, 0, 57, 100
2, 74816, Note_on_c, 0, 57, 70
2, 74844, Note_off_c, 0, 62, 100
2, 74848, Note_on_c, 0, 53, 70
2, 74876, Note_off_c, 0, 57, 100
2, 74878, Note_off_c, 0, 53, 100
2, 74912, Note_on_c, 0, 53, 70
2, 74944, Note_on_c, 0, 58, 71
2, 74972, Note_off_c, 0, 53, 100
2, 74976, Note_on_c, 0, 62, 72
2, 75004, Note_off_c, 0, 58, 100
2, 75008, Note_on_c, 0, 58, 73
2, 75036, Note_off_c, 0, 62, 100
2, 75040, Note_on_c, 0, 53, 74
2, 75068, Note_off_c, 0, 58, 100
2, 75100, Note_off_c, 0, 53, 100
2, 75104, Note_on_c, 0, 53, 75
2, 75136, Note_on_c, 0, 58, 76
2, 75164, Note_off_c, 0, 53, 100
2, 75168, Note_on_c, 0, 62, 77
2, 75196, Note_off_c, 0, 58, 100
2, 75200, Note_on_c, 0, 58, 78
2, 75228, Note_off_c, 0, 62, 100
2, 75232, Note_on_c, 0, 53, 79
2, 75260, Note_off_c, 0, 58, 100
2, 75292, Note_off_c, 0, 53, 100
2, 75296, Note_on_c, 0, 53, 81
2, 75328, Note_on_c, 0, 58, 81
2, 75356, Note_off_c, 0, 53, 100
2, 75360, Note_on_c, 0, 62, 82
2, 75388, Note_off_c, 0, 58, 100
2, 75392, Note_on_c, 0, 58, 83
2, 75420, Note_off_c, 0, 62, 100
2, 75424, Note_on_c, 0, 53, 84
2, 75452, Note_off_c, 0, 58, 100
2, 75484, Note_off_c, 0, 53, 100
2, 75488, Note_on_c, 0, 53, 86
2, 75520, Note_on_c, 0, 58, 87
2, 75548, Note_off_c, 0, 53, 100
2, 75552, Note_on_c, 0, 62, 87
2, 75580, Note_off_c, 0, 58, 100
2, 75584, Note_on_c, 0, 58, 88
2, 75612, Note_off_c, 0, 62, 100
2, 75616, Note_on_c, 0, 53, 89
2, 75644, Note_off_c, 0, 58, 100
2, 75676, Note_off_c, 0, 53, 100
2, 75680, Note_on_c, 0, 53, 91
2, 75712, Note_on_c, 0, 58, 92
2, 75740, Note_off_c, 0, 53, 100
2, 75744, Note_on_c, 0, 62, 93
2, 75772, Note_off_c, 0, 58, 100
2, 75776, Note_on_c, 0, 58, 93
2, 75804, Note_off_c, 0, 62, 100
2, 75808, Note_on_c, 0, 53, 94
2, 75836, Note_off_c, 0, 58, 100
2, 75868, Note_off_c, 0, 53, 100
2, 75872, Note_on_c, 0, 53, 96
2, 75904, Note_on_c, 0, 58, 97
2, 75932, Note_off_c, 0, 53, 100
2, 75936, Note_on_c, 0, 62, 98
2, 75964, Note_off_c, 0, 58, 100
2, 75968, Note_on_c, 0, 58, 99
2, 75996, Note_off_c, 0, 62, 100
2, 76000, Note_on_c, 0, 53, 99
2, 76028, Note_off_c, 0, 58, 100
2, 76030, Note_off_c, 0, 53, 100
2, 76064, Note_on_c, 0, 54, 100
2, 76096, Note_on_c, 0, 58, 100
2, 76124, Note_off_c, 0, 54, 100
2, 76128, Note_on_c, 0, 63, 100
2, 76156, Note_off_c, 0, 58, 100
2, 76160, Note_on_c, 0, 58, 100
2, 76188, Note_off_c, 0, 63, 100
2, 76192, Note_on_c, 0, 54, 100
2, 76220, Note_off_c, 0, 58, 100
2, 76252, Note_off_c, 0, 54, 100
2, 76256, Note_on_c, 0, 54, 100
2, 76288, Note_on_c, 0, 58, 100
2, 76316, Note_off_c, 0, 54, 100
2, 76320, Note_on_c, 0, 63, 100
2, 76348, Note_off_c, 0, 58, 100
2, 76352, Note_on_c, 0, 58, 100
2, 76380, Note_off_c, 0, 63, 100
2, 76384, Note_on_c, 0, 54, 100
2, 76412, Note_off_c, 0, 58, 100
2, 76444, Note_off_c, 0, 54, 100
2, 76448, Note_on_c, 0, 54, 100
2, 76480, Note_on_c, 0, 58, 100
2, 76508, Note_off_c, 0, 54, 100
2, 76512, Note_on_c, 0, 63, 100
2, 76540, Note_off_c, 0, 58, 100
2, 76544, Note_on_c, 0, 58, 100
2, 76572, Note_off_c, 0, 63, 100
2, 76576, Note_on_c, 0, 54, 100
2, 76604, Note_off_c, 0, 58, 100
2, 76636, Note_off_c, 0, 54, 100
2, 76640, Note_on_c, 0, 54, 100
2, 76672, Note_on_c, 0, 58, 100
2, 76700, Note_off_c, 0, 54, 100
2, 76704, Note_on_c, 0, 63, 100
2, 76732, Note_off_c, 0, 58, 100
2, 76736, Note_on_c, 0, 58, 100
2, 76764, Note_off_c, 0, 63, 100
2, 76768, Note_on_c, 0, 54, 100
2, 76796, Note_off_c, 0, 58, 100
2, 76828, Note_off_c, 0, 54, 100
2, 76832, Note_on_c, 0, 54, 100
2, 76864, Note_on_c, 0, 58, 100
2, 76892, Note_off_c, 0, 54, 100
2, 76896, Note_on_c, 0, 63, 100
2, 76924, Note_off_c, 0, 58, 100
2, 76928, Note_on_c, 0, 58, 100
2, 76956, Note_off_c, 0, 63, 100
2, 76960, Note_on_c, 0, 54, 100
2, 76988, Note_off_c, 0, 58, 100
2, 77020, Note_off_c, 0, 54, 100
2, 77024, Note_on_c, 0, 54, 100
2, 77056, Note_on_c, 0, 58, 100
2, 77084, Note_off_c, 0, 54, 100
2, 77088, Note_on_c, 0, 63, 100
2, 77116, Note_off_c, 0, 58, 100
2, 77120, Note_on_c, 0, 58, 100
2, 77148, Note_off_c, 0, 63, 100
2, 77152, Note_on_c, 0, 54, 100
2, 77180, Note_off_c, 0, 58, 100
2, 77182, Note_off_c, 0, 54, 100
2, 77216, Note_on_c, 0, 57, 100
2, 77248, Note_on_c, 0, 60, 100
2, 77276, Note_off_c, 0, 57, 100
2, 77280, Note_on_c, 0, 66, 100
2, 77308, Note_off_c, 0, 60, 100
2, 77312, Note_on_c, 0, 63, 100
2, 77340, Note_off_c, 0, 66, 100
2, 77344, Note_on_c, 0, 60, 100
2, 77372, Note_off_c, 0, 63, 100
2, 77404, Note_off_c, 0, 60, 100
2, 77408, Note_on_c, 0, 57, 100
2, 77440, Note_on_c, 0, 60, 100
2, 77468, Note_off_c, 0, 57, 100
2, 77472, Note_on_c, 0, 66, 100
2, 77500, Note_off_c, 0, 60, 100
2, 77504, Note_on_c, 0, 63, 100
2, 77532, Note_off_c, 0, 66, 100
2, 77536, Note_on_c, 0, 60, 100
2, 77564, Note_off_c, 0, 63, 100
2, 77596, Note_off_c, 0, 60, 100
2, 77600, Note_on_c, 0, 57, 100
2, 77632, Note_on_c, 0, 60, 100
2, 77660, Note_off_c, 0, 57, 100
2, 77664, Note_on_c, 0, 66, 100
2, 77692, Note_off_c, 0, 60, 100
2, 77696, Note_on_c, 0, 63, 100
2, 77724, Note_off_c, 0, 66, 100
2, 77728, Note_on_c, 0, 60, 100
2, 77756, Note_off_c, 0, 63, 100
2, 77788, Note_off_c, 0, 60, 100
2, 77792, Note_on_c, 0, 58, 100
2, 77824, Note_on_c, 0, 63, 100
2, 77852, Note_off_c, 0, 58, 100
2, 77856, Note_on_c, 0, 67, 100
2, 77884, Note_off_c, 0, 63, 100
2, 77888, Note_on_c, 0, 63, 100
2, 77916, Note_off_c, 0, 67, 100
2, 77920, Note_on_c, 0, 58, 100
2, 77948, Note_off_c, 0, 63, 100
2, 77980, Note_off_c, 0, 58, 100
2, 77984, Note_on_c, 0, 58, 100
2, 78016, Note_on_c, 0, 63, 100
2, 78044, Note_off_c, 0, 58, 100
2, 78048, Note_on_c, 0, 67, 100
2, 78076, Note_off_c, 0, 63, 100
2, 78080, Note_on_c, 0, 63, 100
2, 78108, Note_off_c, 0, 67, 100
2, 78112, Note_on_c, 0, 58, 100
2, 78140, Note_off_c, 0, 63, 100
2, 78172, Note_off_c, 0, 58, 100
2, 78176, Note_on_c, 0, 58, 100
2, 78208, Note_on_c, 0, 63, 100
2, 78236, Note_off_c, 0, 58, 100
2, 78240, Note_on_c, 0, 67, 100
2, 78268, Note_off_c, 0, 63, 100
2, 78272, Note_on_c, 0, 63, 100
2, 78300, Note_off_c, 0, 67, 100
2, 78304, Note_on_c, 0, 58, 100
2, 78332, Note_off_c, 0, 63, 100
2, 78364, Note_off_c, 0, 58, 100
2, 78368, Note_on_c, 0, 59, 100
2, 78400, Note_on_c, 0, 62, 100
2, 78428, Note_off_c, 0, 59, 100
2, 78432, Note_on_c, 0, 68, 100
2, 78460, Note_off_c, 0, 62, 100
2, 78464, Note_on_c, 0, 65, 100
2, 78492, Note_off_c, 0, 68, 100
2, 78496, Note_on_c, 0, 62, 100
2, 78524, Note_off_c, 0, 65, 100
2, 78556, Note_off_c, 0, 62, 100
2, 78560, Note_on_c, 0, 59, 100
2, 78592, Note_on_c, 0, 62, 100
2, 78620, Note_off_c, 0, 59, 100
2, 78624, Note_on_c, 0, 68, 100
2, 78652, Note_off_c, 0, 62, 100
2, 78656, Note_on_c, 0, 65, 100
2, 78684, Note_off_c, 0, 68, 100
2, 78688, Note_on_c, 0, 62, 100
2, 78716, Note_off_c, 0, 65, 100
2, 78748, Note_off_c, 0, 62, 100
2, 78752, Note_on_c, 0, 59, 100
2, 78784, Note_on_c, 0, 62, 100
2, 78812, Note_off_c, 0, 59, 100
2, 78816, Note_on_c, 0, 68, 100
2, 78844, Note_off_c, 0, 62, 100
2, 78848, Note_on_c, 0, 65, 100
2, 78876, Note_off_c, 0, 68, 100
2, 78880, Note_on_c, 0, 62, 100
2, 78908, Note_off_c, 0, 65, 100
2, 78940, Note_off_c, 0, 62, 100
2, 78944, Note_on_c, 0, 60, 100
2, 78976, Note_on_c, 0, 65, 100
2, 79004, Note_off_c, 0, 60, 100
2, 79008, Note_on_c, 0, 69, 100
2, 79036, Note_off_c, 0, 65, 100
2, 79040, Note_on_c, 0, 65, 100
2, 79068, Note_off_c, 0, 69, 100
2, 79072, Note_on_c, 0, 60, 100
2, 79100, Note_off_c, 0, 65, 100
2, 79132, Note_off_c, 0, 60, 100
2, 79136, Note_on_c, 0, 60, 100
2, 79168, Note_on_c, 0, 65, 100
2, 79196, Note_off_c, 0, 60, 100
2, 79200, Note_on_c, 0, 69, 100
2, 79228, Note_off_c, 0, 65, 100
2, 79232, Note_on_c, 0, 65, 100
2, 79260, Note_off_c, 0, 69, 100
2, 79264, Note_on_c, 0, 60, 100
2, 79292, Note_off_c, 0, 65, 100
2, 79320, Note_on_c, 0, 61, 100
2, 79324, Note_off_c, 0, 60, 100
2, 79344, Note_on_c, 0, 64, 100
2, 79364, Note_off_c, 0, 61, 100
2, 79368, Note_on_c, 0, 67, 100
2, 79388, Note_off_c, 0, 64, 100
2, 79392, Note_on_c, 0, 70, 100
2, 79412, Note_off_c, 0, 67, 100
2, 79416, Note_on_c, 0, 67, 100
2, 79436, Note_off_c, 0, 70, 100
2, 79440, Note_on_c, 0, 64, 100
2, 79460, Note_off_c, 0, 67, 100
2, 79464, Note_on_c, 0, 61, 100
2, 79484, Note_off_c, 0, 64, 100
2, 79484, Note_off_c, 0, 61, 100
2, 79520, Note_on_c, 0, 62, 100
2, 79552, Note_on_c, 0, 65, 100
2, 79580, Note_off_c, 0, 62, 100
2, 79584, Note_on_c, 0, 71, 100
2, 79612, Note_off_c, 0, 65, 100
2, 79616, Note_on_c, 0, 68, 100
2, 79644, Note_off_c, 0, 71, 100
2, 79648, Note_on_c, 0, 65, 100
2, 79676, Note_off_c, 0, 68, 100
2, 79708, Note_off_c, 0, 65, 100
2, 79712, Note_on_c, 0, 62, 100
2, 79744, Note_on_c, 0, 65, 100
2, 79772, Note_off_c, 0, 62, 100
2, 79776, Note_on_c, 0, 71, 100
2, 79804, Note_off_c, 0, 65, 100
2, 79808, Note_on_c, 0, 68, 100
2, 79836, Note_off_c, 0, 71, 100
2, 79840, Note_on_c, 0, 65, 100
2, 79868, Note_off_c, 0, 68, 100
2, 79896, Note_on_c, 0, 63, 100
2, 79900, Note_off_c, 0, 65, 100
2, 79920, Note_on_c, 0, 66, 100
2, 79940, Note_off_c, 0, 63, 100
2, 79944, Note_on_c, 0, 69, 100
2, 79964, Note_off_c, 0, 66, 100
2, 79968, Note_on_c, 0, 72, 100
2, 79988, Note_off_c, 0, 69, 100
2, 79992, Note_on_c, 0, 69, 100
2, 80012, Note_off_c, 0, 72, 100
2, 80016, Note_on_c, 0, 66, 100
2, 80036, Note_off_c, 0, 69, 100
2, 80040, Note_on_c, 0, 63, 100
2, 80060, Note_off_c, 0, 66, 100
2, 80060, Note_off_c, 0, 63, 100
2, 80096, Note_on_c, 0, 64, 100
2, 80128, Note_on_c, 0, 67, 100
2, 80156, Note_off_c, 0, 64, 100
2, 80160, Note_on_c, 0, 73, 100
2, 80188, Note_off_c, 0, 67, 100
2, 80192, Note_on_c, 0, 70, 100
2, 80220, Note_off_c, 0, 73, 100
2, 80224, Note_on_c, 0, 67, 100
2, 80252, Note_off_c, 0, 70, 100
2, 80284, Note_off_c, 0, 67, 100
2, 80288, Note_on_c, 0, 64, 100
2, 80320, Note_on_c, 0, 67, 100
2, 80348, Note_off_c, 0, 64, 100
2, 80352, Note_on_c, 0, 73, 100
2, 80380, Note_off_c, 0, 67, 100
2, 80384, Note_on_c, 0, 70, 100
2, 80412, Note_off_c, 0, 73, 100
2, 80416, Note_on_c, 0, 67, 100
2, 80444, Note_off_c, 0, 70, 100
2, 80476, Note_off_c, 0, 67, 100
2, 80480, Note_on_c, 0, 65, 100
2, 80512, Note_on_c, 0, 69, 100
2, 80540, Note_off_c, 0, 65, 100
2, 80544, Note_on_c, 0, 74, 100
2, 80572, Note_off_c, 0, 69, 100
2, 80576, Note_on_c, 0, 69, 100
2, 80604, Note_off_c, 0, 74, 100
2, 80608, Note_on_c, 0, 65, 100
2, 80636, Note_off_c, 0, 69, 100
2, 80636, Note_off_c, 0, 65, 100
2, 80664, Note_on_c, 0, 67, 125
2, 80688, Note_on_c, 0, 70, 125
2, 80708, Note_off_c, 0, 67, 100
2, 80712, Note_on_c, 0, 74, 125
2, 80732, Note_off_c, 0, 70, 100
2, 80736, Note_on_c, 0, 76, 125
2, 80756, Note_off_c, 0, 74, 100
2, 80760, Note_on_c, 0, 74, 125
2, 80780, Note_off_c, 0, 76, 100
2, 80784, Note_on_c, 0, 70, 125
2, 80804, Note_off_c, 0, 74, 100
2, 80808, Note_on_c, 0, 67, 125
2, 80828, Note_off_c, 0, 70, 100
2, 80852, Note_off_c, 0, 67, 100
2, 80856, Note_on_c, 0, 67, 125
2, 80880, Note_on_c, 0, 70, 125
2, 80900, Note_off_c, 0, 67, 100
2, 80904, Note_on_c, 0, 74, 125
2, 80924, Note_off_c, 0, 70, 100
2, 80928, Note_on_c, 0, 76, 125
2, 80948, Note_off_c, 0, 74, 100
2, 80952, Note_on_c, 0, 74, 125
2, 80972, Note_off_c, 0, 76, 100
2, 80976, Note_on_c, 0, 70, 125
2, 80996, Note_off_c, 0, 74, 100
2, 81000, Note_on_c, 0, 67, 125
2, 81020, Note_off_c, 0, 70, 100
2, 81044, Note_off_c, 0, 67, 100
2, 81048, Note_on_c, 0, 67, 125
2, 81072, Note_on_c, 0, 70, 125
2, 81092, Note_off_c, 0, 67, 100
2, 81096, Note_on_c, 0, 74, 125
2, 81116, Note_off_c, 0, 70, 100
2, 81120, Note_on_c, 0, 76, 125
2, 81140, Note_off_c, 0, 74, 100
2, 81144, Note_on_c, 0, 74, 125
2, 81164, Note_off_c, 0, 76, 100
2, 81168, Note_on_c, 0, 70, 125
2, 81188, Note_off_c, 0, 74, 100
2, 81192, Note_on_c, 0, 67, 125
2, 81212, Note_off_c, 0, 70, 100
2, 81236, Note_off_c, 0, 67, 100
2, 81240, Note_on_c, 0, 68, 125
2, 81264, Note_on_c, 0, 71, 125
2, 81284, Note_off_c, 0, 68, 100
2, 81288, Note_on_c, 0, 74, 125
2, 81308, Note_off_c, 0, 71, 100
2, 81312, Note_on_c, 0, 76, 125
2, 81332, Note_off_c, 0, 74, 100
2, 81336, Note_on_c, 0, 74, 125
2, 81356, Note_off_c, 0, 76, 100
2, 81360, Note_on_c, 0, 71, 125
2, 81380, Note_off_c, 0, 74, 100
2, 81384, Note_on_c, 0, 68, 125
2, 81404, Note_off_c, 0, 71, 100
2, 81428, Note_off_c, 0, 68, 100
2, 81432, Note_on_c, 0, 68, 125
2, 81456, Note_on_c, 0, 71, 125
2, 81476, Note_off_c, 0, 68, 100
2, 81480, Note_on_c, 0, 74, 125
2, 81500, Note_off_c, 0, 71, 100
2, 81504, Note_on_c, 0, 76, 125
2, 81524, Note_off_c, 0, 74, 100
2, 81528, Note_on_c, 0, 74, 125
2, 81548, Note_off_c, 0, 76, 100
2, 81552, Note_on_c, 0, 71, 125
2, 81572, Note_off_c, 0, 74, 100
2, 81576, Note_on_c, 0, 68, 125
2, 81596, Note_off_c, 0, 71, 100
2, 81620, Note_off_c, 0, 68, 100
2, 81624, Note_on_c, 0, 68, 120
2, 81648, Note_on_c, 0, 71, 120
2, 81668, Note_off_c, 0, 68, 100
2, 81672, Note_on_c, 0, 74, 120
2, 81692, Note_off_c, 0, 71, 100
2, 81696, Note_on_c, 0, 76, 120
2, 81716, Note_off_c, 0, 74, 100
2, 81720, Note_on_c, 0, 74, 120
2, 81740, Note_off_c, 0, 76, 100
2, 81744, Note_on_c, 0, 71, 120
2, 81764, Note_off_c, 0, 74, 100
2, 81768, Note_on_c, 0, 68, 120
2, 81788, Note_off_c, 0, 71, 100
2, 81790, Note_off_c, 0, 68, 100
2, 81792, Note_on_c, 0, 77, 120
2, 81792, Note_on_c, 0, 74, 120
2, 81792, Note_on_c, 0, 69, 120
2, 81836, Note_off_c, 0, 77, 100
2, 81836, Note_off_c, 0, 74, 100
2, 81836, Note_off_c, 0, 69, 100
2, 81840, Note_on_c, 0, 86, 80
2, 81884, Note_off_c, 0, 86, 100
2, 81888, Note_on_c, 0, 88, 80
2, 81932, Note_off_c, 0, 88, 100
2, 81936, Note_on_c, 0, 89, 80
2, 81980, Note_off_c, 0, 89, 100
2, 82032, Note_on_c, 0, 89, 80
2, 82076, Note_off_c, 0, 89, 100
2, 82080, Note_on_c, 0, 88, 80
2, 82124, Note_off_c, 0, 88, 100
2, 82128, Note_on_c, 0, 86, 80
2, 82172, Note_off_c, 0, 86, 100
2, 82224, Note_on_c, 0, 85, 80
2, 82268, Note_off_c, 0, 85, 100
2, 82272, Note_on_c, 0, 86, 80
2, 82316, Note_off_c, 0, 86, 100
2, 82320, Note_on_c, 0, 81, 80
2, 82364, Note_off_c, 0, 81, 100
2, 82416, Note_on_c, 0, 80, 80
2, 82460, Note_off_c, 0, 80, 100
2, 82464, Note_on_c, 0, 82, 80
2, 82508, Note_off_c, 0, 82, 100
2, 82512, Note_on_c, 0, 81, 80
2, 82556, Note_off_c, 0, 81, 100
2, 82608, Note_on_c, 0, 81, 80
2, 82652, Note_off_c, 0, 81, 100
2, 82656, Note_on_c, 0, 79, 80
2, 82700, Note_off_c, 0, 79, 100
2, 82704, Note_on_c, 0, 77, 80
2, 82748, Note_off_c, 0, 77, 100
2, 82800, Note_on_c, 0, 77, 80
2, 82844, Note_off_c, 0, 77, 100
2, 82848, Note_on_c, 0, 76, 80
2, 82892, Note_off_c, 0, 76, 100
2, 82896, Note_on_c, 0, 74, 80
2, 82940, Note_off_c, 0, 74, 100
2, 82992, Note_on_c, 0, 79, 80
2, 83036, Note_off_c, 0, 79, 100
2, 83040, Note_on_c, 0, 81, 80
2, 83084, Note_off_c, 0, 81, 100
2, 83088, Note_on_c, 0, 82, 80
2, 83132, Note_off_c, 0, 82, 100
2, 83184, Note_on_c, 0, 82, 80
2, 83228, Note_off_c, 0, 82, 100
2, 83232, Note_on_c, 0, 81, 80
2, 83276, Note_off_c, 0, 81, 100
2, 83280, Note_on_c, 0, 79, 80
2, 83324, Note_off_c, 0, 79, 100
2, 83376, Note_on_c, 0, 79, 80
2, 83420, Note_off_c, 0, 79, 100
2, 83424, Note_on_c, 0, 77, 80
2, 83468, Note_off_c, 0, 77, 100
2, 83472, Note_on_c, 0, 76, 80
2, 83516, Note_off_c, 0, 76, 100
2, 83568, Note_on_c, 0, 76, 80
2, 83612, Note_off_c, 0, 76, 100
2, 83616, Note_on_c, 0, 74, 80
2, 83660, Note_off_c, 0, 74, 100
2, 83664, Note_on_c, 0, 73, 80
2, 83708, Note_off_c, 0, 73, 100
2, 83760, Note_on_c, 0, 70, 80
2, 83804, Note_off_c, 0, 70, 100
2, 83808, Note_on_c, 0, 69, 80
2, 83852, Note_off_c, 0, 69, 100
2, 83856, Note_on_c, 0, 67, 80
2, 83900, Note_off_c, 0, 67, 100
2, 83952, Note_on_c, 0, 67, 80
2, 83996, Note_off_c, 0, 67, 100
2, 84000, Note_on_c, 0, 65, 80
2, 84044, Note_off_c, 0, 65, 100
2, 84048, Note_on_c, 0, 64, 80
2, 84092, Note_off_c, 0, 64, 100
2, 84144, Note_on_c, 0, 74, 80
2, 84188, Note_off_c, 0, 74, 100
2, 84192, Note_on_c, 0, 76, 80
2, 84236, Note_off_c, 0, 76, 100
2, 84240, Note_on_c, 0, 77, 80
2, 84284, Note_off_c, 0, 77, 100
2, 84336, Note_on_c, 0, 77, 80
2, 84380, Note_off_c, 0, 77, 100
2, 84384, Note_on_c, 0, 76, 80
2, 84428, Note_off_c, 0, 76, 100
2, 84432, Note_on_c, 0, 74, 80
2, 84476, Note_off_c, 0, 74, 100
2, 84528, Note_on_c, 0, 73, 80
2, 84572, Note_off_c, 0, 73, 100
2, 84576, Note_on_c, 0, 74, 80
2, 84620, Note_off_c, 0, 74, 100
2, 84624, Note_on_c, 0, 69, 80
2, 84668, Note_off_c, 0, 69, 100
2, 84720, Note_on_c, 0, 68, 80
2, 84764, Note_off_c, 0, 68, 100
2, 84768, Note_on_c, 0, 70, 80
2, 84812, Note_off_c, 0, 70, 100
2, 84816, Note_on_c, 0, 69, 80
2, 84860, Note_off_c, 0, 69, 100
2, 84912, Note_on_c, 0, 69, 80
2, 84956, Note_off_c, 0, 69, 100
2, 84960, Note_on_c, 0, 67, 80
2, 85004, Note_off_c, 0, 67, 100
2, 85008, Note_on_c, 0, 65, 80
2, 85052, Note_off_c, 0, 65, 100
2, 85104, Note_on_c, 0, 65, 80
2, 85148, Note_off_c, 0, 65, 100
2, 85152, Note_on_c, 0, 64, 80
2, 85196, Note_off_c, 0, 64, 100
2, 85200, Note_on_c, 0, 62, 80
2, 85244, Note_off_c, 0, 62, 100
2, 85296, Note_on_c, 0, 67, 80
2, 85340, Note_off_c, 0, 67, 100
2, 85344, Note_on_c, 0, 69, 80
2, 85388, Note_off_c, 0, 69, 100
2, 85392, Note_on_c, 0, 70, 80
2, 85436, Note_off_c, 0, 70, 100
2, 85488, Note_on_c, 0, 70, 80
2, 85532, Note_off_c, 0, 70, 100
2, 85536, Note_on_c, 0, 69, 80
2, 85580, Note_off_c, 0, 69, 100
2, 85584, Note_on_c, 0, 67, 80
2, 85628, Note_off_c, 0, 67, 100
2, 85680, Note_on_c, 0, 67, 80
2, 85724, Note_off_c, 0, 67, 100
2, 85728, Note_on_c, 0, 65, 80
2, 85772, Note_off_c, 0, 65, 100
2, 85776, Note_on_c, 0, 64, 80
2, 85820, Note_off_c, 0, 64, 100
2, 85872, Note_on_c, 0, 64, 80
2, 85916, Note_off_c, 0, 64, 100
2, 85920, Note_on_c, 0, 62, 80
2, 85964, Note_off_c, 0, 62, 100
2, 85968, Note_on_c, 0, 61, 80
2, 86012, Note_off_c, 0, 61, 100
2, 86064, Note_on_c, 0, 58, 80
2, 86108, Note_off_c, 0, 58, 100
2, 86112, Note_on_c, 0, 57, 80
2, 86156, Note_off_c, 0, 57, 100
2, 86160, Note_on_c, 0, 55, 80
2, 86204, Note_off_c, 0, 55, 100
2, 86256, Note_on_c, 0, 55, 80
2, 86300, Note_off_c, 0, 55, 100
2, 86304, Note_on_c, 0, 53, 80
2, 86348, Note_off_c, 0, 53, 100
2, 86352, Note_on_c, 0, 52, 80
2, 86396, Note_off_c, 0, 52, 100
2, 86976, Note_on_c, 0, 77, 70
2, 87164, Note_off_c, 0, 77, 100
2, 87168, Note_on_c, 0, 73, 70
2, 87356, Note_off_c, 0, 73, 100
2, 87360, Note_on_c, 0, 74, 70
2, 87548, Note_off_c, 0, 74, 100
2, 87552, Note_on_c, 0, 82, 70
2, 87552, Note_on_c, 0, 74, 70
2, 87552, Note_on_c, 0, 70, 70
2, 88124, Note_off_c, 0, 82, 100
2, 88124, Note_off_c, 0, 74, 100
2, 88124, Note_off_c, 0, 70, 100
2, 88128, Note_on_c, 0, 82, 70
2, 88316, Note_off_c, 0, 82, 100
2, 88320, Note_on_c, 0, 73, 70
2, 88508, Note_off_c, 0, 73, 100
2, 88512, Note_on_c, 0, 74, 70
2, 88700, Note_off_c, 0, 74, 100
2, 88704, Note_on_c, 0, 81, 70
2, 88704, Note_on_c, 0, 74, 70
2, 88704, Note_on_c, 0, 69, 70
2, 89276, Note_off_c, 0, 81, 100
2, 89276, Note_off_c, 0, 74, 100
2, 89276, Note_off_c, 0, 69, 100
2, 89280, Note_on_c, 0, 89, 70
2, 89468, Note_off_c, 0, 89, 100
2, 89472, Note_on_c, 0, 85, 70
2, 89660, Note_off_c, 0, 85, 100
2, 89664, Note_on_c, 0, 86, 70
2, 89852, Note_off_c, 0, 86, 100
2, 89856, Note_on_c, 0, 86, 70
2, 90044, Note_off_c, 0, 86, 100
2, 90048, Note_on_c, 0, 81, 70
2, 90236, Note_off_c, 0, 81, 100
2, 90240, Note_on_c, 0, 82, 70
2, 90428, Note_off_c, 0, 82, 100
2, 90432, Note_on_c, 0, 82, 70
2, 90620, Note_off_c, 0, 82, 100
2, 90624, Note_on_c, 0, 78, 75
2, 90812, Note_off_c, 0, 78, 100
2, 90816, Note_on_c, 0, 79, 81
2, 91004, Note_off_c, 0, 79, 100
2, 91008, Note_on_c, 0, 79, 87
2, 91196, Note_off_c, 0, 79, 100
2, 91200, Note_on_c, 0, 74, 93
2, 91388, Note_off_c, 0, 74, 100
2, 91392, Note_on_c, 0, 75, 99
2, 91580, Note_off_c, 0, 75, 100
2, 91584, Note_on_c, 0, 75, 110
2, 91584, Note_on_c, 0, 63, 110
2, 91964, Note_off_c, 0, 75, 100
2, 91964, Note_off_c, 0, 63, 100
2, 91968, Note_on_c, 0, 74, 110
2, 91968, Note_on_c, 0, 62, 110
2, 92156, Note_off_c, 0, 74, 100
2, 92156, Note_off_c, 0, 62, 100
2, 92160, Note_on_c, 0, 73, 110
2, 92160, Note_on_c, 0, 61, 110
2, 92540, Note_off_c, 0, 73, 100
2, 92540, Note_off_c, 0, 61, 100
2, 92736, Note_on_c, 0, 80, 70
2, 93116, Note_off_c, 0, 80, 100
2, 93120, Note_on_c, 0, 81, 70
2, 93308, Note_off_c, 0, 81, 100
2, 93312, Note_on_c, 0, 65, 70
2, 93312, Note_on_c, 0, 62, 70
2, 93312, Note_on_c, 0, 57, 70
2, 93884, Note_off_c, 0, 65, 100
2, 93884, Note_off_c, 0, 62, 100
2, 93884, Note_off_c, 0, 57, 100
2, 93888, Note_on_c, 0, 80, 91
2, 94268, Note_off_c, 0, 80, 100
2, 94272, Note_on_c, 0, 81, 70
2, 94460, Note_off_c, 0, 81, 100
2, 94464, Note_on_c, 0, 64, 70
2, 94464, Note_on_c, 0, 61, 70
2, 94464, Note_on_c, 0, 55, 70
2, 95036, Note_off_c, 0, 64, 100
2, 95036, Note_off_c, 0, 61, 100
2, 95036, Note_off_c, 0, 55, 100
2, 95040, Note_on_c, 0, 80, 89
2, 95420, Note_off_c, 0, 80, 100
2, 95424, Note_on_c, 0, 81, 70
2, 95612, Note_off_c, 0, 81, 100
2, 96000, Note_on_c, 0, 62, 70
2, 96000, Note_on_c, 0, 55, 70
2, 96188, Note_off_c, 0, 62, 100
2, 96188, Note_off_c, 0, 55, 100
2, 96192, Note_on_c, 0, 62, 80
2, 96192, Note_on_c, 0, 53, 80
2, 96572, Note_off_c, 0, 62, 100
2, 96572, Note_off_c, 0, 53, 100
2, 96576, Note_on_c, 0, 62, 70
2, 96576, Note_on_c, 0, 61, 70
2, 96576, Note_on_c, 0, 58, 70
2, 96576, Note_on_c, 0, 52, 70
2, 96764, Note_off_c, 0, 62, 100
2, 96764, Note_off_c, 0, 61, 100
2, 96764, Note_off_c, 0, 58, 100
2, 96764, Note_off_c, 0, 52, 100
2, 96768, Note_on_c, 0, 62, 70
2, 96768, Note_on_c, 0, 57, 70
2, 96768, Note_on_c, 0, 53, 70
2, 97148, Note_off_c, 0, 62, 100
2, 97148, Note_off_c, 0, 57, 100
2, 97148, Note_off_c, 0, 53, 100
2, 97152, Note_on_c, 0, 62, 70
2, 97152, Note_on_c, 0, 55, 70
2, 97340, Note_off_c, 0, 62, 100
2, 97340, Note_off_c, 0, 55, 100
2, 97344, Note_on_c, 0, 62, 80
2, 97344, Note_on_c, 0, 53, 80
2, 97724, Note_off_c, 0, 62, 100
2, 97724, Note_off_c, 0, 53, 100
2, 97728, Note_on_c, 0, 62, 70
2, 97728, Note_on_c, 0, 61, 70
2, 97728, Note_on_c, 0, 58, 70
2, 97728, Note_on_c, 0, 52, 70
2, 97916, Note_off_c, 0, 62, 100
2, 97916, Note_off_c, 0, 61, 100
2, 97916, Note_off_c, 0, 58, 100
2, 97916, Note_off_c, 0, 52, 100
2, 97920, Note_on_c, 0, 62, 70
2, 97920, Note_on_c, 0, 57, 70
2, 97920, Note_on_c, 0, 53, 70
2, 98300, Note_off_c, 0, 62, 100
2, 98300, Note_off_c, 0, 57, 100
2, 98300, Note_off_c, 0, 53, 100
2, 98304, Note_on_c, 0, 73, 70
2, 98492, Note_off_c, 0, 73, 100
2, 98496, Note_on_c, 0, 74, 70
2, 98684, Note_off_c, 0, 74, 100
2, 98880, Note_on_c, 0, 85, 70
2, 99068, Note_off_c, 0, 85, 100
2, 99072, Note_on_c, 0, 86, 70
2, 99260, Note_off_c, 0, 86, 100
2, 100224, Control_c, 0, 7, 0
2, 100416, Note_on_c, 0, 62, 1
2, 100604, Note_off_c, 0, 62, 100
2, 100604, End_track
3, 0, Start_track
3, 0, Title_t, "Left"
3, 0, Control_c, 1, 0, 0
3, 0, Program_c, 1, 0
3, 0, Control_c, 1, 7, 100
3, 0, Control_c, 1, 10, 55
3, 0, Control_c, 1, 91, 127
3, 0, Key_signature, -1, "minor"
3, 0, Note_on_c, 1, 50, 80
3, 0, Note_on_c, 1, 45, 80
3, 0, Note_on_c, 1, 41, 80
3, 0, Note_on_c, 1, 38, 80
3, 1148, Note_off_c, 1, 38, 100
3, 1148, Note_off_c, 1, 41, 100
3, 1148, Note_off_c, 1, 45, 100
3, 1148, Note_off_c, 1, 50, 100
3, 1152, Note_on_c, 1, 50, 80
3, 1152, Note_on_c, 1, 46, 80
3, 1152, Note_on_c, 1, 43, 80
3, 1152, Note_on_c, 1, 38, 80
3, 2300, Note_off_c, 1, 38, 100
3, 2300, Note_off_c, 1, 43, 100
3, 2300, Note_off_c, 1, 46, 100
3, 2300, Note_off_c, 1, 50, 100
3, 2304, Note_on_c, 1, 49, 80
3, 2304, Note_on_c, 1, 37, 80
3, 2684, Note_off_c, 1, 49, 100
3, 2684, Note_off_c, 1, 37, 100
3, 2688, Note_on_c, 1, 50, 80
3, 2688, Note_on_c, 1, 38, 80
3, 2876, Note_off_c, 1, 50, 100
3, 2876, Note_off_c, 1, 38, 100
3, 2880, Note_on_c, 1, 52, 80
3, 2880, Note_on_c, 1, 40, 80
3, 3260, Note_off_c, 1, 52, 100
3, 3260, Note_off_c, 1, 40, 100
3, 3264, Note_on_c, 1, 50, 80
3, 3264, Note_on_c, 1, 38, 80
3, 3452, Note_off_c, 1, 50, 100
3, 3452, Note_off_c, 1, 38, 100
3, 3456, Note_on_c, 1, 49, 80
3, 3456, Note_on_c, 1, 37, 80
3, 3836, Note_off_c, 1, 49, 100
3, 3836, Note_off_c, 1, 37, 100
3, 3840, Note_on_c, 1, 50, 86
3, 3840, Note_on_c, 1, 48, 86
3, 4028, Note_off_c, 1, 50, 100
3, 4028, Note_off_c, 1, 48, 100
3, 4032, Note_on_c, 1, 50, 89
3, 4032, Note_on_c, 1, 46, 89
3, 4412, Note_off_c, 1, 50, 100
3, 4412, Note_off_c, 1, 46, 100
3, 4416, Note_on_c, 1, 54, 96
3, 4416, Note_on_c, 1, 50, 96
3, 4416, Note_on_c, 1, 41, 96
3, 4604, Note_off_c, 1, 54, 100
3, 4604, Note_off_c, 1, 50, 100
3, 4604, Note_off_c, 1, 41, 100
3, 4608, Note_on_c, 1, 55, 99
3, 4608, Note_on_c, 1, 50, 99
3, 4608, Note_on_c, 1, 43, 99
3, 4988, Note_off_c, 1, 55, 100
3, 4988, Note_off_c, 1, 50, 100
3, 4988, Note_off_c, 1, 43, 100
3, 5760, Note_on_c, 1, 61, 80
3, 5760, Note_on_c, 1, 58, 80
3, 5760, Note_on_c, 1, 55, 80
3, 5760, Note_on_c, 1, 64, 80
3, 5948, Note_off_c, 1, 64, 100
3, 5952, Note_on_c, 1, 63, 80
3, 6140, Note_off_c, 1, 61, 100
3, 6140, Note_off_c, 1, 58, 100
3, 6140, Note_off_c, 1, 55, 100
3, 6140, Note_off_c, 1, 63, 100
3, 6144, Note_on_c, 1, 64, 80
3, 6144, Note_on_c, 1, 61, 80
3, 6144, Note_on_c, 1, 58, 80
3, 6144, Note_on_c, 1, 55, 80
3, 6332, Note_off_c, 1, 64, 100
3, 6332, Note_off_c, 1, 61, 100
3, 6332, Note_off_c, 1, 58, 100
3, 6332, Note_off_c, 1, 55, 100
3, 6336, Note_on_c, 1, 61, 80
3, 6336, Note_on_c, 1, 58, 80
3, 6336, Note_on_c, 1, 55, 80
3, 6336, Note_on_c, 1, 64, 80
3, 6524, Note_off_c, 1, 64, 100
3, 6528, Note_on_c, 1, 63, 80
3, 6716, Note_off_c, 1, 61, 100
3, 6716, Note_off_c, 1, 58, 100
3, 6716, Note_off_c, 1, 55, 100
3, 6716, Note_off_c, 1, 63, 100
3, 6720, Note_on_c, 1, 64, 80
3, 6720, Note_on_c, 1, 61, 80
3, 6720, Note_on_c, 1, 58, 80
3, 6720, Note_on_c, 1, 55, 80
3, 6908, Note_off_c, 1, 64, 100
3, 6908, Note_off_c, 1, 61, 100
3, 6908, Note_off_c, 1, 58, 100
3, 6908, Note_off_c, 1, 55, 100
3, 6912, Note_on_c, 1, 59, 80
3, 6912, Note_on_c, 1, 62, 80
3, 6912, Note_on_c, 1, 56, 80
3, 6912, Note_on_c, 1, 64, 80
3, 7100, Note_off_c, 1, 64, 100
3, 7104, Note_on_c, 1, 65, 80
3, 7292, Note_off_c, 1, 59, 100
3, 7292, Note_off_c, 1, 62, 100
3, 7292, Note_off_c, 1, 56, 100
3, 7292, Note_off_c, 1, 65, 100
3, 7296, Note_on_c, 1, 65, 80
3, 7296, Note_on_c, 1, 62, 80
3, 7296, Note_on_c, 1, 59, 80
3, 7296, Note_on_c, 1, 56, 80
3, 7484, Note_off_c, 1, 65, 100
3, 7484, Note_off_c, 1, 62, 100
3, 7484, Note_off_c, 1, 59, 100
3, 7484, Note_off_c, 1, 56, 100
3, 7488, Note_on_c, 1, 56, 80
3, 7512, Note_on_c, 1, 59, 80
3, 7536, Note_on_c, 1, 62, 80
3, 7560, Note_on_c, 1, 65, 80
3, 7868, Note_off_c, 1, 56, 100
3, 7868, Note_off_c, 1, 59, 100
3, 7868, Note_off_c, 1, 62, 100
3, 7868, Note_off_c, 1, 65, 100
3, 7872, Note_on_c, 1, 64, 80
3, 8012, Note_off_c, 1, 64, 100
3, 8016, Note_on_c, 1, 62, 80
3, 8060, Note_off_c, 1, 62, 100
3, 8064, Note_on_c, 1, 62, 80
3, 8064, Note_on_c, 1, 65, 80
3, 8064, Note_on_c, 1, 57, 80
3, 8444, Note_off_c, 1, 62, 100
3, 8444, Note_off_c, 1, 65, 100
3, 8444, Note_off_c, 1, 57, 100
3, 8640, Note_on_c, 1, 55, 80
3, 8640, Note_on_c, 1, 45, 80
3, 8640, Note_on_c, 1, 52, 80
3, 9020, Note_off_c, 1, 55, 100
3, 9020, Note_off_c, 1, 45, 100
3, 9020, Note_off_c, 1, 52, 100
3, 9216, Note_on_c, 1, 50, 80
3, 9308, Note_off_c, 1, 50, 100
3, 9312, Note_on_c, 1, 57, 80
3, 9404, Note_off_c, 1, 57, 100
3, 9408, Note_on_c, 1, 53, 80
3, 9500, Note_off_c, 1, 53, 100
3, 9504, Note_on_c, 1, 57, 80
3, 9596, Note_off_c, 1, 57, 100
3, 9600, Note_on_c, 1, 50, 80
3, 9692, Note_off_c, 1, 50, 100
3, 9696, Note_on_c, 1, 57, 80
3, 9788, Note_off_c, 1, 57, 100
3, 9792, Note_on_c, 1, 49, 80
3, 9884, Note_off_c, 1, 49, 100
3, 9888, Note_on_c, 1, 57, 80
3, 9980, Note_off_c, 1, 57, 100
3, 9984, Note_on_c, 1, 52, 80
3, 10076, Note_off_c, 1, 52, 100
3, 10080, Note_on_c, 1, 57, 80
3, 10172, Note_off_c, 1, 57, 100
3, 10176, Note_on_c, 1, 49, 80
3, 10268, Note_off_c, 1, 49, 100
3, 10272, Note_on_c, 1, 57, 80
3, 10364, Note_off_c, 1, 57, 100
3, 10368, Note_on_c, 1, 50, 80
3, 10460, Note_off_c, 1, 50, 100
3, 10464, Note_on_c, 1, 57, 80
3, 10556, Note_off_c, 1, 57, 100
3, 10560, Note_on_c, 1, 53, 80
3, 10652, Note_off_c, 1, 53, 100
3, 10656, Note_on_c, 1, 57, 80
3, 10748, Note_off_c, 1, 57, 100
3, 10752, Note_on_c, 1, 50, 80
3, 10844, Note_off_c, 1, 50, 100
3, 10848, Note_on_c, 1, 57, 80
3, 10940, Note_off_c, 1, 57, 100
3, 10944, Note_on_c, 1, 45, 80
3, 11036, Note_off_c, 1, 45, 100
3, 11040, Note_on_c, 1, 57, 80
3, 11132, Note_off_c, 1, 57, 100
3, 11136, Note_on_c, 1, 56, 80
3, 11228, Note_off_c, 1, 56, 100
3, 11232, Note_on_c, 1, 57, 80
3, 11324, Note_off_c, 1, 57, 100
3, 11328, Note_on_c, 1, 55, 80
3, 11420, Note_off_c, 1, 55, 100
3, 11424, Note_on_c, 1, 57, 80
3, 11516, Note_off_c, 1, 57, 100
3, 11520, Note_on_c, 1, 53, 80
3, 11612, Note_off_c, 1, 53, 100
3, 11616, Note_on_c, 1, 57, 80
3, 11696, Note_on_c, 1, 62, 80
3, 11708, Note_off_c, 1, 57, 100
3, 11788, Note_off_c, 1, 62, 100
3, 11808, Note_on_c, 1, 57, 80
3, 11900, Note_off_c, 1, 57, 100
3, 11904, Note_on_c, 1, 53, 80
3, 11996, Note_off_c, 1, 53, 100
3, 12000, Note_on_c, 1, 50, 80
3, 12092, Note_off_c, 1, 50, 100
3, 12096, Note_on_c, 1, 49, 80
3, 12188, Note_off_c, 1, 49, 100
3, 12192, Note_on_c, 1, 57, 80
3, 12284, Note_off_c, 1, 57, 100
3, 12288, Note_on_c, 1, 52, 80
3, 12380, Note_off_c, 1, 52, 100
3, 12384, Note_on_c, 1, 57, 80
3, 12476, Note_off_c, 1, 57, 100
3, 12480, Note_on_c, 1, 55, 80
3, 12572, Note_off_c, 1, 55, 100
3, 12576, Note_on_c, 1, 57, 80
3, 12668, Note_off_c, 1, 57, 100
3, 12672, Note_on_c, 1, 50, 80
3, 12764, Note_off_c, 1, 50, 100
3, 12768, Note_on_c, 1, 57, 80
3, 12860, Note_off_c, 1, 57, 100
3, 12864, Note_on_c, 1, 56, 80
3, 12956, Note_off_c, 1, 56, 100
3, 12960, Note_on_c, 1, 57, 80
3, 13052, Note_off_c, 1, 57, 100
3, 13056, Note_on_c, 1, 48, 80
3, 13148, Note_off_c, 1, 48, 100
3, 13152, Note_on_c, 1, 57, 80
3, 13244, Note_off_c, 1, 57, 100
3, 13248, Note_on_c, 1, 47, 80
3, 13340, Note_off_c, 1, 47, 100
3, 13344, Note_on_c, 1, 55, 80
3, 13436, Note_off_c, 1, 55, 100
3, 13440, Note_on_c, 1, 50, 80
3, 13532, Note_off_c, 1, 50, 100
3, 13536, Note_on_c, 1, 55, 80
3, 13628, Note_off_c, 1, 55, 100
3, 13632, Note_on_c, 1, 53, 80
3, 13724, Note_off_c, 1, 53, 100
3, 13728, Note_on_c, 1, 55, 80
3, 13820, Note_off_c, 1, 55, 100
3, 13824, Note_on_c, 1, 48, 80
3, 13916, Note_off_c, 1, 48, 100
3, 13920, Note_on_c, 1, 55, 80
3, 14012, Note_off_c, 1, 55, 100
3, 14016, Note_on_c, 1, 60, 80
3, 14108, Note_off_c, 1, 60, 100
3, 14112, Note_on_c, 1, 59, 80
3, 14204, Note_off_c, 1, 59, 100
3, 14208, Note_on_c, 1, 57, 80
3, 14300, Note_off_c, 1, 57, 100
3, 14304, Note_on_c, 1, 55, 80
3, 14396, Note_off_c, 1, 55, 100
3, 14400, Note_on_c, 1, 54, 80
3, 14496, Note_on_c, 1, 62, 80
3, 14588, Note_off_c, 1, 62, 100
3, 14592, Note_on_c, 1, 57, 80
3, 14684, Note_off_c, 1, 57, 100
3, 14688, Note_on_c, 1, 62, 80
3, 14780, Note_off_c, 1, 62, 100
3, 14784, Note_on_c, 1, 60, 80
3, 14876, Note_off_c, 1, 60, 100
3, 14880, Note_on_c, 1, 62, 80
3, 14972, Note_off_c, 1, 54, 100
3, 14972, Note_off_c, 1, 62, 100
3, 14976, Note_on_c, 1, 55, 80
3, 15072, Note_on_c, 1, 64, 82
3, 15164, Note_off_c, 1, 64, 100
3, 15168, Note_on_c, 1, 60, 84
3, 15260, Note_off_c, 1, 60, 100
3, 15264, Note_on_c, 1, 64, 87
3, 15356, Note_off_c, 1, 55, 100
3, 15356, Note_off_c, 1, 64, 100
3, 15360, Note_on_c, 1, 55, 89
3, 15456, Note_on_c, 1, 64, 92
3, 15548, Note_off_c, 1, 55, 100
3, 15548, Note_off_c, 1, 64, 100
3, 15552, Note_on_c, 1, 55, 94
3, 15648, Note_on_c, 1, 65, 97
3, 15740, Note_off_c, 1, 65, 100
3, 15744, Note_on_c, 1, 62, 99
3, 15836, Note_off_c, 1, 62, 100
3, 15840, Note_on_c, 1, 65, 100
3, 15932, Note_off_c, 1, 55, 100
3, 15932, Note_off_c, 1, 65, 100
3, 15936, Note_on_c, 1, 55, 91
3, 16032, Note_on_c, 1, 65, 81
3, 16124, Note_off_c, 1, 55, 100
3, 16124, Note_off_c, 1, 65, 100
3, 16128, Note_on_c, 1, 48, 80
3, 16220, Note_off_c, 1, 48, 100
3, 16224, Note_on_c, 1, 60, 82
3, 16316, Note_off_c, 1, 60, 100
3, 16320, Note_on_c, 1, 45, 85
3, 16412, Note_off_c, 1, 45, 100
3, 16416, Note_on_c, 1, 57, 88
3, 16508, Note_off_c, 1, 57, 100
3, 16512, Note_on_c, 1, 43, 90
3, 16604, Note_off_c, 1, 43, 100
3, 16608, Note_on_c, 1, 55, 93
3, 16700, Note_off_c, 1, 55, 100
3, 16704, Note_on_c, 1, 42, 96
3, 16800, Note_on_c, 1, 54, 99
3, 16892, Note_off_c, 1, 54, 100
3, 16896, Note_on_c, 1, 45, 101
3, 16988, Note_off_c, 1, 45, 100
3, 16992, Note_on_c, 1, 54, 104
3, 17084, Note_off_c, 1, 42, 100
3, 17084, Note_off_c, 1, 54, 100
3, 17088, Note_on_c, 1, 42, 107
3, 17184, Note_on_c, 1, 54, 109
3, 17276, Note_off_c, 1, 42, 100
3, 17276, Note_off_c, 1, 54, 100
3, 17280, Note_on_c, 1, 43, 110
3, 17376, Note_on_c, 1, 55, 107
3, 17468, Note_off_c, 1, 55, 100
3, 17472, Note_on_c, 1, 48, 103
3, 17564, Note_off_c, 1, 48, 100
3, 17568, Note_on_c, 1, 55, 100
3, 17660, Note_off_c, 1, 55, 100
3, 17664, Note_on_c, 1, 52, 96
3, 17756, Note_off_c, 1, 52, 100
3, 17760, Note_on_c, 1, 55, 92
3, 17852, Note_off_c, 1, 43, 100
3, 17852, Note_off_c, 1, 55, 100
3, 17856, Note_on_c, 1, 43, 80
3, 17952, Note_on_c, 1, 55, 80
3, 18044, Note_off_c, 1, 55, 100
3, 18048, Note_on_c, 1, 50, 80
3, 18140, Note_off_c, 1, 50, 100
3, 18144, Note_on_c, 1, 55, 80
3, 18236, Note_off_c, 1, 43, 100
3, 18236, Note_off_c, 1, 55, 100
3, 18240, Note_on_c, 1, 43, 80
3, 18240, Note_on_c, 1, 53, 80
3, 18332, Note_off_c, 1, 53, 100
3, 18336, Note_on_c, 1, 55, 80
3, 18428, Note_off_c, 1, 43, 100
3, 18428, Note_off_c, 1, 55, 100
3, 18432, Note_on_c, 1, 52, 80
3, 18432, Note_on_c, 1, 48, 80
3, 18812, Note_off_c, 1, 52, 100
3, 18812, Note_off_c, 1, 48, 100
3, 19008, Note_on_c, 1, 57, 80
3, 19008, Note_on_c, 1, 53, 80
3, 19388, Note_off_c, 1, 57, 100
3, 19392, Note_on_c, 1, 59, 80
3, 19484, Note_off_c, 1, 59, 100
3, 19488, Note_on_c, 1, 60, 80
3, 19580, Note_off_c, 1, 53, 100
3, 19580, Note_off_c, 1, 60, 100
3, 19584, Note_on_c, 1, 60, 80
3, 19584, Note_on_c, 1, 52, 80
3, 19772, Note_off_c, 1, 60, 100
3, 19776, Note_on_c, 1, 59, 80
3, 19964, Note_off_c, 1, 52, 100
3, 19964, Note_off_c, 1, 59, 100
3, 20160, Note_on_c, 1, 53, 80
3, 20160, Note_on_c, 1, 57, 80
3, 20444, Note_off_c, 1, 57, 100
3, 20448, Note_on_c, 1, 56, 80
3, 20492, Note_off_c, 1, 56, 100
3, 20496, Note_on_c, 1, 57, 80
3, 20540, Note_off_c, 1, 57, 100
3, 20544, Note_on_c, 1, 56, 80
3, 20588, Note_off_c, 1, 56, 100
3, 20592, Note_on_c, 1, 57, 80
3, 20636, Note_off_c, 1, 57, 100
3, 20640, Note_on_c, 1, 59, 80
3, 20684, Note_off_c, 1, 59, 100
3, 20688, Note_on_c, 1, 60, 80
3, 20732, Note_off_c, 1, 53, 100
3, 20732, Note_off_c, 1, 60, 100
3, 20736, Note_on_c, 1, 52, 80
3, 20736, Note_on_c, 1, 60, 80
3, 20924, Note_off_c, 1, 60, 100
3, 20928, Note_on_c, 1, 59, 80
3, 21116, Note_off_c, 1, 52, 100
3, 21116, Note_off_c, 1, 59, 100
3, 21312, Note_on_c, 1, 58, 110
3, 21312, Note_on_c, 1, 56, 110
3, 21312, Note_on_c, 1, 50, 110
3, 21596, Note_off_c, 1, 58, 100
3, 21596, Note_off_c, 1, 56, 100
3, 21596, Note_off_c, 1, 50, 100
3, 21600, Note_on_c, 1, 58, 110
3, 21600, Note_on_c, 1, 56, 110
3, 21600, Note_on_c, 1, 52, 110
3, 21692, Note_off_c, 1, 58, 100
3, 21692, Note_off_c, 1, 56, 100
3, 21692, Note_off_c, 1, 52, 100
3, 21696, Note_on_c, 1, 58, 110
3, 21696, Note_on_c, 1, 56, 110
3, 21696, Note_on_c, 1, 53, 110
3, 21788, Note_off_c, 1, 58, 100
3, 21788, Note_off_c, 1, 56, 100
3, 21788, Note_off_c, 1, 53, 100
3, 21792, Note_on_c, 1, 58, 110
3, 21792, Note_on_c, 1, 50, 110
3, 21792, Note_on_c, 1, 47, 110
3, 21884, Note_off_c, 1, 58, 100
3, 21884, Note_off_c, 1, 50, 100
3, 21884, Note_off_c, 1, 47, 100
3, 21888, Note_on_c, 1, 60, 110
3, 21888, Note_on_c, 1, 52, 110
3, 21888, Note_on_c, 1, 48, 110
3, 22076, Note_off_c, 1, 60, 100
3, 22076, Note_off_c, 1, 52, 100
3, 22076, Note_off_c, 1, 48, 100
3, 22272, Note_on_c, 1, 59, 80
3, 22272, Note_on_c, 1, 57, 80
3, 22272, Note_on_c, 1, 50, 80
3, 22460, Note_off_c, 1, 59, 100
3, 22460, Note_off_c, 1, 57, 100
3, 22460, Note_off_c, 1, 50, 100
3, 22464, Note_on_c, 1, 52, 80
3, 22464, Note_on_c, 1, 57, 80
3, 22464, Note_on_c, 1, 60, 80
3, 22652, Note_off_c, 1, 52, 100
3, 22652, Note_off_c, 1, 57, 100
3, 22652, Note_off_c, 1, 60, 100
3, 22848, Note_on_c, 1, 52, 80
3, 22848, Note_on_c, 1, 40, 80
3, 23036, Note_off_c, 1, 52, 100
3, 23036, Note_off_c, 1, 40, 100
3, 23040, Note_on_c, 1, 45, 80
3, 23420, Note_off_c, 1, 45, 100
3, 23424, Note_on_c, 1, 45, 110
3, 23612, Note_off_c, 1, 45, 100
3, 23616, Note_on_c, 1, 48, 110
3, 23616, Note_on_c, 1, 41, 110
3, 23996, Note_off_c, 1, 48, 100
3, 24000, Note_on_c, 1, 47, 110
3, 24092, Note_off_c, 1, 47, 100
3, 24096, Note_on_c, 1, 45, 110
3, 24188, Note_off_c, 1, 41, 100
3, 24188, Note_off_c, 1, 45, 100
3, 24192, Note_on_c, 1, 40, 110
3, 24192, Note_on_c, 1, 45, 110
3, 24380, Note_off_c, 1, 45, 100
3, 24384, Note_on_c, 1, 44, 110
3, 24572, Note_off_c, 1, 40, 100
3, 24572, Note_off_c, 1, 44, 100
3, 24720, Note_on_c, 1, 45, 120
3, 24764, Note_off_c, 1, 45, 100
3, 24768, Note_on_c, 1, 41, 120
3, 24768, Note_on_c, 1, 48, 120
3, 24956, Note_off_c, 1, 48, 100
3, 24960, Note_on_c, 1, 47, 120
3, 25004, Note_off_c, 1, 47, 100
3, 25008, Note_on_c, 1, 48, 120
3, 25052, Note_off_c, 1, 48, 100
3, 25056, Note_on_c, 1, 47, 120
3, 25100, Note_off_c, 1, 47, 100
3, 25104, Note_on_c, 1, 48, 120
3, 25148, Note_off_c, 1, 48, 100
3, 25152, Note_on_c, 1, 50, 120
3, 25196, Note_off_c, 1, 50, 100
3, 25200, Note_on_c, 1, 48, 120
3, 25244, Note_off_c, 1, 48, 100
3, 25248, Note_on_c, 1, 47, 120
3, 25292, Note_off_c, 1, 47, 100
3, 25296, Note_on_c, 1, 45, 120
3, 25340, Note_off_c, 1, 41, 100
3, 25340, Note_off_c, 1, 45, 100
3, 25344, Note_on_c, 1, 40, 120
3, 25344, Note_on_c, 1, 45, 120
3, 25532, Note_off_c, 1, 45, 100
3, 25536, Note_on_c, 1, 44, 120
3, 25724, Note_off_c, 1, 40, 100
3, 25724, Note_off_c, 1, 44, 100
3, 25920, Note_on_c, 1, 50, 120
3, 25920, Note_on_c, 1, 59, 120
3, 25920, Note_on_c, 1, 56, 120
3, 26204, Note_off_c, 1, 50, 100
3, 26208, Note_on_c, 1, 52, 80
3, 26300, Note_off_c, 1, 52, 100
3, 26304, Note_on_c, 1, 53, 80
3, 26396, Note_off_c, 1, 53, 100
3, 26400, Note_on_c, 1, 47, 80
3, 26492, Note_off_c, 1, 59, 100
3, 26492, Note_off_c, 1, 56, 100
3, 26492, Note_off_c, 1, 47, 100
3, 26496, Note_on_c, 1, 55, 120
3, 26496, Note_on_c, 1, 61, 120
3, 26496, Note_on_c, 1, 64, 120
3, 26780, Note_off_c, 1, 55, 100
3, 26784, Note_on_c, 1, 57, 80
3, 26876, Note_off_c, 1, 57, 100
3, 26880, Note_on_c, 1, 58, 80
3, 26972, Note_off_c, 1, 58, 100
3, 26976, Note_on_c, 1, 52, 80
3, 27068, Note_off_c, 1, 61, 100
3, 27068, Note_off_c, 1, 64, 100
3, 27068, Note_off_c, 1, 52, 100
3, 27072, Note_on_c, 1, 63, 120
3, 27072, Note_on_c, 1, 66, 120
3, 27072, Note_on_c, 1, 69, 120
3, 27356, Note_off_c, 1, 63, 100
3, 27360, Note_on_c, 1, 64, 80
3, 27452, Note_off_c, 1, 64, 100
3, 27456, Note_on_c, 1, 66, 80
3, 27548, Note_off_c, 1, 66, 100
3, 27552, Note_on_c, 1, 63, 80
3, 27644, Note_off_c, 1, 69, 100
3, 27644, Note_off_c, 1, 66, 100
3, 27644, Note_off_c, 1, 63, 100
3, 27648, Note_on_c, 1, 68, 80
3, 27648, Note_on_c, 1, 65, 80
3, 27648, Note_on_c, 1, 62, 80
3, 27836, Note_off_c, 1, 68, 100
3, 27836, Note_off_c, 1, 65, 100
3, 27836, Note_off_c, 1, 62, 100
3, 28032, Note_on_c, 1, 64, 80
3, 28032, Note_on_c, 1, 60, 80
3, 28220, Note_off_c, 1, 64, 100
3, 28220, Note_off_c, 1, 60, 100
3, 28224, Note_on_c, 1, 62, 80
3, 28224, Note_on_c, 1, 50, 80
3, 28412, Note_off_c, 1, 62, 100
3, 28412, Note_off_c, 1, 50, 100
3, 28608, Note_on_c, 1, 59, 80
3, 28608, Note_on_c, 1, 52, 80
3, 28796, Note_off_c, 1, 59, 100
3, 28796, Note_off_c, 1, 52, 100
3, 28800, Note_on_c, 1, 45, 80
3, 28892, Note_off_c, 1, 45, 100
3, 28896, Note_on_c, 1, 48, 80
3, 28988, Note_off_c, 1, 48, 100
3, 28992, Note_on_c, 1, 52, 80
3, 29084, Note_off_c, 1, 52, 100
3, 29088, Note_on_c, 1, 48, 80
3, 29180, Note_off_c, 1, 48, 100
3, 29184, Note_on_c, 1, 47, 80
3, 29276, Note_off_c, 1, 47, 100
3, 29280, Note_on_c, 1, 45, 80
3, 29372, Note_off_c, 1, 45, 100
3, 29376, Note_on_c, 1, 44, 80
3, 29468, Note_off_c, 1, 44, 100
3, 29472, Note_on_c, 1, 47, 80
3, 29564, Note_off_c, 1, 47, 100
3, 29568, Note_on_c, 1, 52, 80
3, 29660, Note_off_c, 1, 52, 100
3, 29664, Note_on_c, 1, 50, 80
3, 29756, Note_off_c, 1, 50, 100
3, 29760, Note_on_c, 1, 48, 80
3, 29852, Note_off_c, 1, 48, 100
3, 29856, Note_on_c, 1, 47, 80
3, 29948, Note_off_c, 1, 47, 100
3, 29952, Note_on_c, 1, 45, 80
3, 30044, Note_off_c, 1, 45, 100
3, 30048, Note_on_c, 1, 56, 80
3, 30140, Note_off_c, 1, 56, 100
3, 30144, Note_on_c, 1, 57, 80
3, 30240, Note_on_c, 1, 55, 80
3, 30332, Note_off_c, 1, 55, 100
3, 30336, Note_on_c, 1, 53, 80
3, 30428, Note_off_c, 1, 53, 100
3, 30432, Note_on_c, 1, 52, 80
3, 30524, Note_off_c, 1, 52, 100
3, 30528, Note_on_c, 1, 50, 80
3, 30620, Note_off_c, 1, 57, 100
3, 30624, Note_on_c, 1, 57, 80
3, 30716, Note_off_c, 1, 57, 100
3, 30720, Note_on_c, 1, 62, 80
3, 30812, Note_off_c, 1, 62, 100
3, 30816, Note_on_c, 1, 61, 80
3, 30908, Note_off_c, 1, 61, 100
3, 30912, Note_on_c, 1, 60, 80
3, 31004, Note_off_c, 1, 60, 100
3, 31008, Note_on_c, 1, 59, 80
3, 31100, Note_off_c, 1, 50, 100
3, 31100, Note_off_c, 1, 59, 100
3, 31104, Note_on_c, 1, 52, 80
3, 31200, Note_on_c, 1, 57, 80
3, 31292, Note_off_c, 1, 57, 100
3, 31296, Note_on_c, 1, 64, 80
3, 31388, Note_off_c, 1, 64, 100
3, 31392, Note_on_c, 1, 63, 80
3, 31484, Note_off_c, 1, 63, 100
3, 31488, Note_on_c, 1, 62, 80
3, 31580, Note_off_c, 1, 62, 100
3, 31584, Note_on_c, 1, 60, 80
3, 31676, Note_off_c, 1, 60, 100
3, 31680, Note_on_c, 1, 59, 80
3, 31772, Note_off_c, 1, 59, 100
3, 31776, Note_on_c, 1, 57, 80
3, 31868, Note_off_c, 1, 57, 100
3, 31872, Note_on_c, 1, 56, 80
3, 31964, Note_off_c, 1, 56, 100
3, 31968, Note_on_c, 1, 53, 80
3, 32060, Note_off_c, 1, 52, 100
3, 32060, Note_off_c, 1, 53, 100
3, 32064, Note_on_c, 1, 40, 80
3, 32064, Note_on_c, 1, 52, 80
3, 32156, Note_off_c, 1, 52, 100
3, 32160, Note_on_c, 1, 50, 80
3, 32252, Note_off_c, 1, 40, 100
3, 32252, Note_off_c, 1, 50, 100
3, 32256, Note_on_c, 1, 48, 80
3, 32256, Note_on_c, 1, 45, 80
3, 32444, Note_off_c, 1, 48, 100
3, 32444, Note_off_c, 1, 45, 100
3, 32640, Note_on_c, 1, 33, 80
3, 32828, Note_off_c, 1, 33, 100
3, 32832, Note_on_c, 1, 33, 80
3, 33020, Note_off_c, 1, 33, 100
3, 33408, Note_on_c, 1, 41, 80
3, 33596, Note_off_c, 1, 41, 100
3, 33600, Note_on_c, 1, 41, 80
3, 33788, Note_off_c, 1, 41, 100
3, 33792, Note_on_c, 1, 41, 80
3, 33980, Note_off_c, 1, 41, 100
3, 33984, Note_on_c, 1, 41, 80
3, 33984, Note_on_c, 1, 48, 80
3, 34172, Note_off_c, 1, 41, 100
3, 34176, Note_on_c, 1, 41, 80
3, 34364, Note_off_c, 1, 48, 100
3, 34364, Note_off_c, 1, 41, 100
3, 34368, Note_on_c, 1, 41, 80
3, 34368, Note_on_c, 1, 50, 80
3, 34460, Note_off_c, 1, 50, 100
3, 34464, Note_on_c, 1, 52, 80
3, 34556, Note_off_c, 1, 41, 100
3, 34556, Note_off_c, 1, 52, 100
3, 34560, Note_on_c, 1, 41, 80
3, 34560, Note_on_c, 1, 53, 80
3, 34748, Note_off_c, 1, 41, 100
3, 34752, Note_on_c, 1, 41, 80
3, 34940, Note_off_c, 1, 53, 100
3, 34940, Note_off_c, 1, 41, 100
3, 34944, Note_on_c, 1, 41, 80
3, 34944, Note_on_c, 1, 53, 80
3, 35132, Note_off_c, 1, 41, 100
3, 35132, Note_off_c, 1, 53, 100
3, 35136, Note_on_c, 1, 41, 80
3, 35136, Note_on_c, 1, 53, 80
3, 35324, Note_off_c, 1, 41, 100
3, 35328, Note_on_c, 1, 41, 80
3, 35420, Note_off_c, 1, 53, 100
3, 35424, Note_on_c, 1, 55, 80
3, 35468, Note_off_c, 1, 55, 100
3, 35472, Note_on_c, 1, 53, 80
3, 35516, Note_off_c, 1, 41, 100
3, 35516, Note_off_c, 1, 53, 100
3, 35520, Note_on_c, 1, 41, 80
3, 35520, Note_on_c, 1, 52, 80
3, 35612, Note_off_c, 1, 52, 100
3, 35616, Note_on_c, 1, 53, 80
3, 35708, Note_off_c, 1, 41, 100
3, 35708, Note_off_c, 1, 53, 100
3, 35712, Note_on_c, 1, 48, 80
3, 35712, Note_on_c, 1, 40, 80
3, 35900, Note_off_c, 1, 48, 100
3, 35900, Note_off_c, 1, 40, 100
3, 35904, Note_on_c, 1, 48, 80
3, 35904, Note_on_c, 1, 40, 80
3, 36092, Note_off_c, 1, 48, 100
3, 36092, Note_off_c, 1, 40, 100
3, 36096, Note_on_c, 1, 48, 80
3, 36096, Note_on_c, 1, 40, 80
3, 36284, Note_off_c, 1, 48, 100
3, 36284, Note_off_c, 1, 40, 100
3, 36288, Note_on_c, 1, 48, 80
3, 36288, Note_on_c, 1, 40, 80
3, 36476, Note_off_c, 1, 48, 100
3, 36476, Note_off_c, 1, 40, 100
3, 36480, Note_on_c, 1, 48, 80
3, 36480, Note_on_c, 1, 40, 80
3, 36668, Note_off_c, 1, 48, 100
3, 36668, Note_off_c, 1, 40, 100
3, 36672, Note_on_c, 1, 48, 80
3, 36672, Note_on_c, 1, 40, 80
3, 36860, Note_off_c, 1, 48, 100
3, 36860, Note_off_c, 1, 40, 100
3, 36864, Note_on_c, 1, 53, 80
3, 36864, Note_on_c, 1, 48, 80
3, 36864, Note_on_c, 1, 43, 80
3, 37052, Note_off_c, 1, 53, 100
3, 37052, Note_off_c, 1, 48, 100
3, 37052, Note_off_c, 1, 43, 100
3, 37056, Note_on_c, 1, 43, 80
3, 37056, Note_on_c, 1, 52, 80
3, 37056, Note_on_c, 1, 48, 80
3, 37244, Note_off_c, 1, 43, 100
3, 37244, Note_off_c, 1, 52, 100
3, 37244, Note_off_c, 1, 48, 100
3, 37248, Note_on_c, 1, 43, 80
3, 37248, Note_on_c, 1, 50, 80
3, 37388, Note_off_c, 1, 50, 100
3, 37392, Note_on_c, 1, 48, 80
3, 37436, Note_off_c, 1, 43, 100
3, 37436, Note_off_c, 1, 48, 100
3, 37440, Note_on_c, 1, 48, 80
3, 37440, Note_on_c, 1, 43, 80
3, 37628, Note_off_c, 1, 43, 100
3, 37632, Note_on_c, 1, 43, 80
3, 37820, Note_off_c, 1, 48, 100
3, 37820, Note_off_c, 1, 43, 100
3, 37824, Note_on_c, 1, 43, 80
3, 37824, Note_on_c, 1, 52, 80
3, 37868, Note_off_c, 1, 52, 100
3, 37872, Note_on_c, 1, 50, 80
3, 37916, Note_off_c, 1, 50, 100
3, 37920, Note_on_c, 1, 48, 80
3, 38012, Note_off_c, 1, 43, 100
3, 38012, Note_off_c, 1, 48, 100
3, 38016, Note_on_c, 1, 41, 80
3, 38016, Note_on_c, 1, 48, 80
3, 38204, Note_off_c, 1, 41, 100
3, 38204, Note_off_c, 1, 48, 100
3, 38208, Note_on_c, 1, 41, 85
3, 38208, Note_on_c, 1, 53, 85
3, 38396, Note_off_c, 1, 41, 100
3, 38400, Note_on_c, 1, 41, 91
3, 38588, Note_off_c, 1, 41, 100
3, 38592, Note_on_c, 1, 41, 97
3, 38780, Note_off_c, 1, 53, 100
3, 38780, Note_off_c, 1, 41, 100
3, 38784, Note_on_c, 1, 41, 103
3, 38784, Note_on_c, 1, 52, 103
3, 38972, Note_off_c, 1, 41, 100
3, 38972, Note_off_c, 1, 52, 100
3, 38976, Note_on_c, 1, 41, 109
3, 38976, Note_on_c, 1, 51, 109
3, 39164, Note_off_c, 1, 41, 100
3, 39164, Note_off_c, 1, 51, 100
3, 39168, Note_on_c, 1, 42, 120
3, 39168, Note_on_c, 1, 51, 120
3, 39356, Note_off_c, 1, 42, 100
3, 39356, Note_off_c, 1, 51, 100
3, 39360, Note_on_c, 1, 42, 120
3, 39360, Note_on_c, 1, 50, 120
3, 39548, Note_off_c, 1, 42, 100
3, 39548, Note_off_c, 1, 50, 100
3, 39552, Note_on_c, 1, 42, 120
3, 39552, Note_on_c, 1, 49, 120
3, 39692, Note_off_c, 1, 49, 100
3, 39696, Note_on_c, 1, 50, 120
3, 39740, Note_off_c, 1, 42, 100
3, 39740, Note_off_c, 1, 50, 100
3, 39744, Note_on_c, 1, 42, 120
3, 39744, Note_on_c, 1, 51, 120
3, 39932, Note_off_c, 1, 42, 100
3, 39932, Note_off_c, 1, 51, 100
3, 39936, Note_on_c, 1, 42, 120
3, 39936, Note_on_c, 1, 50, 120
3, 40124, Note_off_c, 1, 42, 100
3, 40124, Note_off_c, 1, 50, 100
3, 40128, Note_on_c, 1, 42, 120
3, 40128, Note_on_c, 1, 49, 120
3, 40268, Note_off_c, 1, 49, 100
3, 40272, Note_on_c, 1, 50, 120
3, 40316, Note_off_c, 1, 42, 100
3, 40316, Note_off_c, 1, 50, 100
3, 40320, Note_on_c, 1, 43, 120
3, 40336, Note_on_c, 1, 46, 120
3, 40376, Note_on_c, 1, 50, 80
3, 40412, Note_off_c, 1, 43, 100
3, 40416, Note_on_c, 1, 55, 80
3, 40428, Note_off_c, 1, 46, 100
3, 40468, Note_off_c, 1, 50, 100
3, 40512, Note_on_c, 1, 58, 80
3, 40512, Note_on_c, 1, 62, 80
3, 40700, Note_off_c, 1, 58, 100
3, 40700, Note_off_c, 1, 62, 100
3, 40704, Note_on_c, 1, 58, 80
3, 40704, Note_on_c, 1, 62, 80
3, 40892, Note_off_c, 1, 58, 100
3, 40892, Note_off_c, 1, 62, 100
3, 40896, Note_on_c, 1, 58, 80
3, 40896, Note_on_c, 1, 62, 80
3, 41084, Note_off_c, 1, 58, 100
3, 41084, Note_off_c, 1, 62, 100
3, 41088, Note_on_c, 1, 58, 80
3, 41088, Note_on_c, 1, 62, 80
3, 41276, Note_off_c, 1, 58, 100
3, 41276, Note_off_c, 1, 62, 100
3, 41280, Note_on_c, 1, 58, 80
3, 41280, Note_on_c, 1, 62, 80
3, 41468, Note_off_c, 1, 55, 100
3, 41468, Note_off_c, 1, 58, 100
3, 41468, Note_off_c, 1, 62, 100
3, 41472, Note_on_c, 1, 44, 120
3, 41472, Note_on_c, 1, 53, 120
3, 41660, Note_off_c, 1, 44, 100
3, 41660, Note_off_c, 1, 53, 100
3, 41664, Note_on_c, 1, 44, 120
3, 41664, Note_on_c, 1, 52, 120
3, 41852, Note_off_c, 1, 44, 100
3, 41852, Note_off_c, 1, 52, 100
3, 41856, Note_on_c, 1, 44, 120
3, 41856, Note_on_c, 1, 51, 120
3, 41996, Note_off_c, 1, 51, 100
3, 42000, Note_on_c, 1, 52, 120
3, 42044, Note_off_c, 1, 44, 100
3, 42044, Note_off_c, 1, 52, 100
3, 42048, Note_on_c, 1, 44, 120
3, 42048, Note_on_c, 1, 53, 120
3, 42236, Note_off_c, 1, 44, 100
3, 42236, Note_off_c, 1, 53, 100
3, 42240, Note_on_c, 1, 44, 120
3, 42240, Note_on_c, 1, 52, 120
3, 42428, Note_off_c, 1, 44, 100
3, 42428, Note_off_c, 1, 52, 100
3, 42432, Note_on_c, 1, 44, 120
3, 42432, Note_on_c, 1, 51, 120
3, 42572, Note_off_c, 1, 51, 100
3, 42576, Note_on_c, 1, 52, 120
3, 42620, Note_off_c, 1, 44, 100
3, 42620, Note_off_c, 1, 52, 100
3, 42624, Note_on_c, 1, 45, 120
3, 42640, Note_on_c, 1, 49, 120
3, 42656, Note_on_c, 1, 52, 120
3, 42672, Note_on_c, 1, 57, 80
3, 42716, Note_off_c, 1, 45, 100
3, 42732, Note_off_c, 1, 49, 100
3, 42748, Note_off_c, 1, 52, 100
3, 42816, Note_on_c, 1, 61, 80
3, 42816, Note_on_c, 1, 64, 80
3, 43004, Note_off_c, 1, 61, 100
3, 43004, Note_off_c, 1, 64, 100
3, 43008, Note_on_c, 1, 61, 80
3, 43008, Note_on_c, 1, 64, 80
3, 43196, Note_off_c, 1, 61, 100
3, 43196, Note_off_c, 1, 64, 100
3, 43200, Note_on_c, 1, 61, 80
3, 43200, Note_on_c, 1, 64, 80
3, 43388, Note_off_c, 1, 61, 100
3, 43388, Note_off_c, 1, 64, 100
3, 43392, Note_on_c, 1, 61, 80
3, 43392, Note_on_c, 1, 64, 80
3, 43580, Note_off_c, 1, 61, 100
3, 43580, Note_off_c, 1, 64, 100
3, 43584, Note_on_c, 1, 61, 80
3, 43584, Note_on_c, 1, 64, 80
3, 43772, Note_off_c, 1, 57, 100
3, 43772, Note_off_c, 1, 61, 100
3, 43772, Note_off_c, 1, 64, 100
3, 43776, Note_on_c, 1, 45, 80
3, 43792, Note_on_c, 1, 50, 80
3, 43808, Note_on_c, 1, 53, 80
3, 43824, Note_on_c, 1, 57, 80
3, 43868, Note_off_c, 1, 45, 100
3, 43884, Note_off_c, 1, 50, 100
3, 43900, Note_off_c, 1, 53, 100
3, 43968, Note_on_c, 1, 62, 80
3, 43968, Note_on_c, 1, 65, 80
3, 44156, Note_off_c, 1, 62, 100
3, 44156, Note_off_c, 1, 65, 100
3, 44160, Note_on_c, 1, 62, 80
3, 44160, Note_on_c, 1, 65, 80
3, 44348, Note_off_c, 1, 62, 100
3, 44348, Note_off_c, 1, 65, 100
3, 44352, Note_on_c, 1, 62, 80
3, 44352, Note_on_c, 1, 65, 80
3, 44540, Note_off_c, 1, 62, 100
3, 44540, Note_off_c, 1, 65, 100
3, 44544, Note_on_c, 1, 62, 80
3, 44544, Note_on_c, 1, 65, 80
3, 44732, Note_off_c, 1, 62, 100
3, 44732, Note_off_c, 1, 65, 100
3, 44736, Note_on_c, 1, 62, 80
3, 44736, Note_on_c, 1, 65, 80
3, 44924, Note_off_c, 1, 57, 100
3, 44924, Note_off_c, 1, 62, 100
3, 44924, Note_off_c, 1, 65, 100
3, 44928, Note_on_c, 1, 45, 80
3, 44944, Note_on_c, 1, 52, 80
3, 44960, Note_on_c, 1, 55, 80
3, 44976, Note_on_c, 1, 57, 80
3, 45020, Note_off_c, 1, 45, 100
3, 45036, Note_off_c, 1, 52, 100
3, 45052, Note_off_c, 1, 55, 100
3, 45120, Note_on_c, 1, 64, 80
3, 45120, Note_on_c, 1, 67, 80
3, 45308, Note_off_c, 1, 64, 100
3, 45308, Note_off_c, 1, 67, 100
3, 45312, Note_on_c, 1, 64, 80
3, 45312, Note_on_c, 1, 67, 80
3, 45500, Note_off_c, 1, 64, 100
3, 45500, Note_off_c, 1, 67, 100
3, 45504, Note_on_c, 1, 64, 80
3, 45504, Note_on_c, 1, 67, 80
3, 45692, Note_off_c, 1, 64, 100
3, 45692, Note_off_c, 1, 67, 100
3, 45696, Note_on_c, 1, 64, 80
3, 45696, Note_on_c, 1, 67, 80
3, 45884, Note_off_c, 1, 64, 100
3, 45884, Note_off_c, 1, 67, 100
3, 45888, Note_on_c, 1, 64, 80
3, 45888, Note_on_c, 1, 67, 80
3, 46076, Note_off_c, 1, 57, 100
3, 46076, Note_off_c, 1, 64, 100
3, 46076, Note_off_c, 1, 67, 100
3, 49536, Note_on_c, 1, 50, 80
3, 49536, Note_on_c, 1, 45, 80
3, 49536, Note_on_c, 1, 41, 80
3, 49536, Note_on_c, 1, 38, 80
3, 50108, Note_off_c, 1, 50, 100
3, 50108, Note_off_c, 1, 45, 100
3, 50108, Note_off_c, 1, 41, 100
3, 50108, Note_off_c, 1, 38, 100
3, 50112, Note_on_c, 1, 50, 80
3, 50112, Note_on_c, 1, 38, 80
3, 50112, Note_on_c, 1, 45, 80
3, 50112, Note_on_c, 1, 41, 80
3, 50300, Note_off_c, 1, 45, 100
3, 50300, Note_off_c, 1, 41, 100
3, 50304, Note_on_c, 1, 46, 80
3, 50304, Note_on_c, 1, 43, 80
3, 50492, Note_off_c, 1, 46, 100
3, 50492, Note_off_c, 1, 43, 100
3, 50496, Note_on_c, 1, 45, 80
3, 50496, Note_on_c, 1, 41, 80
3, 50684, Note_off_c, 1, 50, 100
3, 50684, Note_off_c, 1, 38, 100
3, 50684, Note_off_c, 1, 45, 100
3, 50684, Note_off_c, 1, 41, 100
3, 50688, Note_on_c, 1, 50, 80
3, 50688, Note_on_c, 1, 46, 80
3, 50688, Note_on_c, 1, 43, 80
3, 50688, Note_on_c, 1, 40, 80
3, 50688, Note_on_c, 1, 38, 80
3, 51260, Note_off_c, 1, 50, 100
3, 51260, Note_off_c, 1, 46, 100
3, 51260, Note_off_c, 1, 43, 100
3, 51260, Note_off_c, 1, 40, 100
3, 51260, Note_off_c, 1, 38, 100
3, 51264, Note_on_c, 1, 46, 80
3, 51264, Note_on_c, 1, 43, 80
3, 51264, Note_on_c, 1, 38, 80
3, 51264, Note_on_c, 1, 50, 80
3, 51452, Note_off_c, 1, 50, 100
3, 51456, Note_on_c, 1, 52, 80
3, 51644, Note_off_c, 1, 52, 100
3, 51648, Note_on_c, 1, 50, 80
3, 51836, Note_off_c, 1, 46, 100
3, 51836, Note_off_c, 1, 43, 100
3, 51836, Note_off_c, 1, 38, 100
3, 51836, Note_off_c, 1, 50, 100
3, 51840, Note_on_c, 1, 49, 80
3, 51840, Note_on_c, 1, 37, 80
3, 52220, Note_off_c, 1, 49, 100
3, 52220, Note_off_c, 1, 37, 100
3, 52224, Note_on_c, 1, 50, 80
3, 52224, Note_on_c, 1, 38, 80
3, 52412, Note_off_c, 1, 50, 100
3, 52412, Note_off_c, 1, 38, 100
3, 52416, Note_on_c, 1, 53, 80
3, 52416, Note_on_c, 1, 41, 80
3, 52604, Note_off_c, 1, 53, 100
3, 52604, Note_off_c, 1, 41, 100
3, 52608, Note_on_c, 1, 52, 80
3, 52608, Note_on_c, 1, 40, 80
3, 52796, Note_off_c, 1, 52, 100
3, 52796, Note_off_c, 1, 40, 100
3, 52800, Note_on_c, 1, 38, 80
3, 52800, Note_on_c, 1, 50, 80
3, 52988, Note_off_c, 1, 38, 100
3, 52988, Note_off_c, 1, 50, 100
3, 52992, Note_on_c, 1, 49, 80
3, 52992, Note_on_c, 1, 37, 80
3, 53372, Note_off_c, 1, 49, 100
3, 53372, Note_off_c, 1, 37, 100
3, 53376, Note_on_c, 1, 48, 80
3, 53376, Note_on_c, 1, 50, 80
3, 53564, Note_off_c, 1, 48, 100
3, 53564, Note_off_c, 1, 50, 100
3, 53568, Note_on_c, 1, 50, 80
3, 53568, Note_on_c, 1, 46, 80
3, 53948, Note_off_c, 1, 50, 100
3, 53948, Note_off_c, 1, 46, 100
3, 53952, Note_on_c, 1, 54, 80
3, 53952, Note_on_c, 1, 50, 80
3, 53952, Note_on_c, 1, 42, 80
3, 54140, Note_off_c, 1, 54, 100
3, 54140, Note_off_c, 1, 50, 100
3, 54140, Note_off_c, 1, 42, 100
3, 54144, Note_on_c, 1, 55, 80
3, 54144, Note_on_c, 1, 50, 80
3, 54144, Note_on_c, 1, 43, 80
3, 54524, Note_off_c, 1, 55, 100
3, 54524, Note_off_c, 1, 50, 100
3, 54524, Note_off_c, 1, 43, 100
3, 55296, Note_on_c, 1, 58, 80
3, 55296, Note_on_c, 1, 55, 80
3, 55484, Note_off_c, 1, 58, 100
3, 55484, Note_off_c, 1, 55, 100
3, 55488, Note_on_c, 1, 58, 80
3, 55488, Note_on_c, 1, 55, 80
3, 55676, Note_off_c, 1, 58, 100
3, 55676, Note_off_c, 1, 55, 100
3, 55680, Note_on_c, 1, 58, 80
3, 55680, Note_on_c, 1, 55, 80
3, 55868, Note_off_c, 1, 58, 100
3, 55868, Note_off_c, 1, 55, 100
3, 55872, Note_on_c, 1, 58, 80
3, 55872, Note_on_c, 1, 55, 80
3, 56060, Note_off_c, 1, 58, 100
3, 56060, Note_off_c, 1, 55, 100
3, 56064, Note_on_c, 1, 58, 80
3, 56064, Note_on_c, 1, 55, 80
3, 56252, Note_off_c, 1, 58, 100
3, 56252, Note_off_c, 1, 55, 100
3, 56256, Note_on_c, 1, 58, 80
3, 56256, Note_on_c, 1, 55, 80
3, 56444, Note_off_c, 1, 58, 100
3, 56444, Note_off_c, 1, 55, 100
3, 56448, Note_on_c, 1, 63, 80
3, 56448, Note_on_c, 1, 58, 80
3, 56448, Note_on_c, 1, 54, 80
3, 56636, Note_off_c, 1, 63, 100
3, 56636, Note_off_c, 1, 58, 100
3, 56636, Note_off_c, 1, 54, 100
3, 56640, Note_on_c, 1, 63, 80
3, 56640, Note_on_c, 1, 58, 80
3, 56640, Note_on_c, 1, 54, 80
3, 56828, Note_off_c, 1, 63, 100
3, 56828, Note_off_c, 1, 58, 100
3, 56828, Note_off_c, 1, 54, 100
3, 56832, Note_on_c, 1, 63, 80
3, 56832, Note_on_c, 1, 58, 80
3, 56832, Note_on_c, 1, 54, 80
3, 57020, Note_off_c, 1, 63, 100
3, 57020, Note_off_c, 1, 58, 100
3, 57020, Note_off_c, 1, 54, 100
3, 57024, Note_on_c, 1, 63, 80
3, 57024, Note_on_c, 1, 58, 80
3, 57024, Note_on_c, 1, 54, 80
3, 57212, Note_off_c, 1, 63, 100
3, 57212, Note_off_c, 1, 58, 100
3, 57212, Note_off_c, 1, 54, 100
3, 57216, Note_on_c, 1, 63, 80
3, 57216, Note_on_c, 1, 58, 80
3, 57216, Note_on_c, 1, 54, 80
3, 57404, Note_off_c, 1, 63, 100
3, 57404, Note_off_c, 1, 58, 100
3, 57404, Note_off_c, 1, 54, 100
3, 57408, Note_on_c, 1, 63, 80
3, 57408, Note_on_c, 1, 58, 80
3, 57408, Note_on_c, 1, 54, 80
3, 57596, Note_off_c, 1, 63, 100
3, 57596, Note_off_c, 1, 58, 100
3, 57596, Note_off_c, 1, 54, 100
3, 57600, Note_on_c, 1, 63, 80
3, 57600, Note_on_c, 1, 60, 80
3, 57600, Note_on_c, 1, 57, 80
3, 57600, Note_on_c, 1, 53, 80
3, 57788, Note_off_c, 1, 63, 100
3, 57788, Note_off_c, 1, 60, 100
3, 57788, Note_off_c, 1, 57, 100
3, 57788, Note_off_c, 1, 53, 100
3, 57792, Note_on_c, 1, 63, 84
3, 57792, Note_on_c, 1, 60, 84
3, 57792, Note_on_c, 1, 57, 84
3, 57792, Note_on_c, 1, 53, 84
3, 57980, Note_off_c, 1, 63, 100
3, 57980, Note_off_c, 1, 60, 100
3, 57980, Note_off_c, 1, 57, 100
3, 57980, Note_off_c, 1, 53, 100
3, 57984, Note_on_c, 1, 63, 89
3, 57984, Note_on_c, 1, 60, 89
3, 57984, Note_on_c, 1, 57, 89
3, 57984, Note_on_c, 1, 53, 89
3, 58172, Note_off_c, 1, 63, 100
3, 58172, Note_off_c, 1, 60, 100
3, 58172, Note_off_c, 1, 57, 100
3, 58172, Note_off_c, 1, 53, 100
3, 58176, Note_on_c, 1, 63, 94
3, 58176, Note_on_c, 1, 60, 94
3, 58176, Note_on_c, 1, 57, 94
3, 58176, Note_on_c, 1, 54, 94
3, 58364, Note_off_c, 1, 63, 100
3, 58364, Note_off_c, 1, 60, 100
3, 58364, Note_off_c, 1, 57, 100
3, 58364, Note_off_c, 1, 54, 100
3, 58368, Note_on_c, 1, 63, 99
3, 58368, Note_on_c, 1, 60, 99
3, 58368, Note_on_c, 1, 57, 99
3, 58368, Note_on_c, 1, 54, 99
3, 58556, Note_off_c, 1, 63, 100
3, 58556, Note_off_c, 1, 60, 100
3, 58556, Note_off_c, 1, 57, 100
3, 58556, Note_off_c, 1, 54, 100
3, 58560, Note_on_c, 1, 63, 104
3, 58560, Note_on_c, 1, 60, 104
3, 58560, Note_on_c, 1, 57, 104
3, 58560, Note_on_c, 1, 54, 104
3, 58748, Note_off_c, 1, 63, 100
3, 58748, Note_off_c, 1, 60, 100
3, 58748, Note_off_c, 1, 57, 100
3, 58748, Note_off_c, 1, 54, 100
3, 58752, Note_on_c, 1, 55, 109
3, 58844, Note_off_c, 1, 55, 100
3, 58848, Note_on_c, 1, 58, 80
3, 58940, Note_off_c, 1, 58, 100
3, 58944, Note_on_c, 1, 62, 80
3, 59036, Note_off_c, 1, 62, 100
3, 59040, Note_on_c, 1, 58, 80
3, 59132, Note_off_c, 1, 58, 100
3, 59136, Note_on_c, 1, 55, 80
3, 59228, Note_off_c, 1, 55, 100
3, 59232, Note_on_c, 1, 58, 80
3, 59324, Note_off_c, 1, 58, 100
3, 59328, Note_on_c, 1, 52, 80
3, 59420, Note_off_c, 1, 52, 100
3, 59424, Note_on_c, 1, 55, 80
3, 59424, Note_on_c, 1, 58, 80
3, 59516, Note_off_c, 1, 55, 100
3, 59516, Note_off_c, 1, 58, 100
3, 59520, Note_on_c, 1, 60, 80
3, 59612, Note_off_c, 1, 60, 100
3, 59616, Note_on_c, 1, 58, 80
3, 59616, Note_on_c, 1, 55, 80
3, 59708, Note_off_c, 1, 58, 100
3, 59708, Note_off_c, 1, 55, 100
3, 59712, Note_on_c, 1, 52, 80
3, 59804, Note_off_c, 1, 52, 100
3, 59808, Note_on_c, 1, 55, 80
3, 59808, Note_on_c, 1, 58, 80
3, 59900, Note_off_c, 1, 55, 100
3, 59900, Note_off_c, 1, 58, 100
3, 59904, Note_on_c, 1, 53, 80
3, 59996, Note_off_c, 1, 53, 100
3, 60000, Note_on_c, 1, 58, 84
3, 60092, Note_off_c, 1, 58, 100
3, 60096, Note_on_c, 1, 62, 89
3, 60188, Note_off_c, 1, 62, 100
3, 60192, Note_on_c, 1, 58, 94
3, 60284, Note_off_c, 1, 58, 100
3, 60288, Note_on_c, 1, 53, 99
3, 60380, Note_off_c, 1, 53, 100
3, 60384, Note_on_c, 1, 58, 104
3, 60476, Note_off_c, 1, 58, 100
3, 60480, Note_on_c, 1, 53, 109
3, 60572, Note_off_c, 1, 53, 100
3, 60576, Note_on_c, 1, 57, 110
3, 60668, Note_off_c, 1, 57, 100
3, 60672, Note_on_c, 1, 63, 103
3, 60764, Note_off_c, 1, 63, 100
3, 60768, Note_on_c, 1, 57, 96
3, 60860, Note_off_c, 1, 57, 100
3, 60864, Note_on_c, 1, 53, 88
3, 60956, Note_off_c, 1, 53, 100
3, 60960, Note_on_c, 1, 57, 81
3, 61052, Note_off_c, 1, 57, 100
3, 61056, Note_on_c, 1, 58, 80
3, 61148, Note_off_c, 1, 58, 100
3, 61152, Note_on_c, 1, 53, 80
3, 61244, Note_off_c, 1, 53, 100
3, 61248, Note_on_c, 1, 50, 80
3, 61340, Note_off_c, 1, 50, 100
3, 61344, Note_on_c, 1, 46, 80
3, 61436, Note_off_c, 1, 46, 100
3, 61440, Note_on_c, 1, 43, 80
3, 61532, Note_off_c, 1, 43, 100
3, 61536, Note_on_c, 1, 41, 80
3, 61628, Note_off_c, 1, 41, 100
3, 61632, Note_on_c, 1, 40, 90
3, 61728, Note_on_c, 1, 48, 93
3, 61820, Note_off_c, 1, 48, 100
3, 61824, Note_on_c, 1, 43, 97
3, 61916, Note_off_c, 1, 43, 100
3, 61920, Note_on_c, 1, 48, 101
3, 62012, Note_off_c, 1, 40, 100
3, 62012, Note_off_c, 1, 48, 100
3, 62016, Note_on_c, 1, 40, 105
3, 62016, Note_on_c, 1, 46, 105
3, 62108, Note_off_c, 1, 46, 100
3, 62112, Note_on_c, 1, 48, 109
3, 62204, Note_off_c, 1, 40, 100
3, 62204, Note_off_c, 1, 48, 100
3, 62208, Note_on_c, 1, 41, 120
3, 62304, Note_on_c, 1, 53, 115
3, 62396, Note_off_c, 1, 53, 100
3, 62400, Note_on_c, 1, 46, 110
3, 62492, Note_off_c, 1, 46, 100
3, 62496, Note_on_c, 1, 53, 104
3, 62588, Note_off_c, 1, 53, 100
3, 62592, Note_on_c, 1, 50, 99
3, 62684, Note_off_c, 1, 50, 100
3, 62688, Note_on_c, 1, 53, 93
3, 62780, Note_off_c, 1, 41, 100
3, 62780, Note_off_c, 1, 53, 100
3, 62784, Note_on_c, 1, 41, 80
3, 62880, Note_on_c, 1, 48, 80
3, 62972, Note_off_c, 1, 48, 100
3, 62976, Note_on_c, 1, 53, 80
3, 63068, Note_off_c, 1, 53, 100
3, 63072, Note_on_c, 1, 51, 80
3, 63164, Note_off_c, 1, 41, 100
3, 63164, Note_off_c, 1, 51, 100
3, 63168, Note_on_c, 1, 48, 80
3, 63168, Note_on_c, 1, 41, 80
3, 63260, Note_off_c, 1, 48, 100
3, 63264, Note_on_c, 1, 53, 80
3, 63356, Note_off_c, 1, 41, 100
3, 63356, Note_off_c, 1, 53, 100
3, 63360, Note_on_c, 1, 50, 80
3, 63360, Note_on_c, 1, 46, 80
3, 63740, Note_off_c, 1, 50, 100
3, 63740, Note_off_c, 1, 46, 100
3, 63936, Note_on_c, 1, 50, 80
3, 63936, Note_on_c, 1, 46, 80
3, 64316, Note_off_c, 1, 50, 100
3, 64320, Note_on_c, 1, 52, 80
3, 64412, Note_off_c, 1, 52, 100
3, 64416, Note_on_c, 1, 53, 80
3, 64508, Note_off_c, 1, 46, 100
3, 64508, Note_off_c, 1, 53, 100
3, 64512, Note_on_c, 1, 45, 80
3, 64512, Note_on_c, 1, 53, 80
3, 64700, Note_off_c, 1, 53, 100
3, 64704, Note_on_c, 1, 52, 80
3, 64892, Note_off_c, 1, 45, 100
3, 64892, Note_off_c, 1, 52, 100
3, 65088, Note_on_c, 1, 50, 80
3, 65088, Note_on_c, 1, 46, 80
3, 65372, Note_off_c, 1, 50, 100
3, 65376, Note_on_c, 1, 49, 80
3, 65420, Note_off_c, 1, 49, 100
3, 65424, Note_on_c, 1, 50, 80
3, 65468, Note_off_c, 1, 50, 100
3, 65472, Note_on_c, 1, 49, 80
3, 65516, Note_off_c, 1, 49, 100
3, 65520, Note_on_c, 1, 50, 80
3, 65564, Note_off_c, 1, 50, 100
3, 65568, Note_on_c, 1, 52, 80
3, 65612, Note_off_c, 1, 52, 100
3, 65616, Note_on_c, 1, 53, 80
3, 65660, Note_off_c, 1, 46, 100
3, 65660, Note_off_c, 1, 53, 100
3, 65664, Note_on_c, 1, 45, 80
3, 65664, Note_on_c, 1, 53, 80
3, 65852, Note_off_c, 1, 53, 100
3, 65856, Note_on_c, 1, 52, 80
3, 66044, Note_off_c, 1, 45, 100
3, 66044, Note_off_c, 1, 52, 100
3, 66240, Note_on_c, 1, 52, 110
3, 66240, Note_on_c, 1, 49, 110
3, 66240, Note_on_c, 1, 43, 110
3, 66524, Note_off_c, 1, 52, 100
3, 66524, Note_off_c, 1, 49, 100
3, 66524, Note_off_c, 1, 43, 100
3, 66528, Note_on_c, 1, 52, 110
3, 66528, Note_on_c, 1, 49, 110
3, 66528, Note_on_c, 1, 45, 110
3, 66592, Note_off_c, 1, 52, 100
3, 66592, Note_off_c, 1, 49, 100
3, 66592, Note_off_c, 1, 45, 100
3, 66624, Note_on_c, 1, 52, 110
3, 66624, Note_on_c, 1, 49, 110
3, 66624, Note_on_c, 1, 46, 110
3, 66688, Note_off_c, 1, 52, 100
3, 66688, Note_off_c, 1, 49, 100
3, 66688, Note_off_c, 1, 46, 100
3, 66720, Note_on_c, 1, 52, 110
3, 66720, Note_on_c, 1, 43, 110
3, 66720, Note_on_c, 1, 40, 110
3, 66784, Note_off_c, 1, 52, 100
3, 66784, Note_off_c, 1, 43, 100
3, 66784, Note_off_c, 1, 40, 100
3, 66816, Note_on_c, 1, 53, 110
3, 66816, Note_on_c, 1, 45, 110
3, 66816, Note_on_c, 1, 41, 110
3, 67004, Note_off_c, 1, 53, 100
3, 67004, Note_off_c, 1, 45, 100
3, 67004, Note_off_c, 1, 41, 100
3, 67200, Note_on_c, 1, 52, 80
3, 67200, Note_on_c, 1, 50, 80
3, 67200, Note_on_c, 1, 43, 80
3, 67388, Note_off_c, 1, 52, 100
3, 67388, Note_off_c, 1, 50, 100
3, 67388, Note_off_c, 1, 43, 100
3, 67392, Note_on_c, 1, 53, 80
3, 67392, Note_on_c, 1, 50, 80
3, 67392, Note_on_c, 1, 45, 80
3, 67580, Note_off_c, 1, 53, 100
3, 67580, Note_off_c, 1, 50, 100
3, 67580, Note_off_c, 1, 45, 100
3, 67776, Note_on_c, 1, 45, 80
3, 67776, Note_on_c, 1, 33, 80
3, 67964, Note_off_c, 1, 45, 100
3, 67964, Note_off_c, 1, 33, 100
3, 67968, Note_on_c, 1, 50, 80
3, 67968, Note_on_c, 1, 38, 80
3, 68348, Note_off_c, 1, 50, 100
3, 68348, Note_off_c, 1, 38, 100
3, 68352, Note_on_c, 1, 50, 110
3, 68540, Note_off_c, 1, 50, 100
3, 68544, Note_on_c, 1, 53, 110
3, 68544, Note_on_c, 1, 46, 110
3, 68924, Note_off_c, 1, 53, 100
3, 68928, Note_on_c, 1, 52, 110
3, 69020, Note_off_c, 1, 52, 100
3, 69024, Note_on_c, 1, 50, 110
3, 69116, Note_off_c, 1, 46, 100
3, 69116, Note_off_c, 1, 50, 100
3, 69120, Note_on_c, 1, 45, 110
3, 69120, Note_on_c, 1, 50, 110
3, 69308, Note_off_c, 1, 50, 100
3, 69312, Note_on_c, 1, 49, 110
3, 69500, Note_off_c, 1, 45, 100
3, 69500, Note_off_c, 1, 49, 100
3, 69648, Note_on_c, 1, 50, 120
3, 69692, Note_off_c, 1, 50, 100
3, 69696, Note_on_c, 1, 46, 120
3, 69696, Note_on_c, 1, 53, 120
3, 69884, Note_off_c, 1, 53, 100
3, 69888, Note_on_c, 1, 52, 120
3, 69932, Note_off_c, 1, 52, 100
3, 69936, Note_on_c, 1, 53, 120
3, 69980, Note_off_c, 1, 53, 100
3, 69984, Note_on_c, 1, 52, 120
3, 70028, Note_off_c, 1, 52, 100
3, 70032, Note_on_c, 1, 53, 120
3, 70076, Note_off_c, 1, 53, 100
3, 70080, Note_on_c, 1, 55, 120
3, 70124, Note_off_c, 1, 55, 100
3, 70128, Note_on_c, 1, 53, 120
3, 70172, Note_off_c, 1, 53, 100
3, 70176, Note_on_c, 1, 52, 120
3, 70220, Note_off_c, 1, 52, 100
3, 70224, Note_on_c, 1, 50, 120
3, 70268, Note_off_c, 1, 46, 100
3, 70268, Note_off_c, 1, 50, 100
3, 70272, Note_on_c, 1, 50, 120
3, 70272, Note_on_c, 1, 45, 120
3, 70460, Note_off_c, 1, 50, 100
3, 70464, Note_on_c, 1, 49, 120
3, 70652, Note_off_c, 1, 45, 100
3, 70652, Note_off_c, 1, 49, 100
3, 70848, Note_on_c, 1, 55, 120
3, 70848, Note_on_c, 1, 61, 120
3, 70848, Note_on_c, 1, 64, 120
3, 71132, Note_off_c, 1, 55, 100
3, 71136, Note_on_c, 1, 57, 80
3, 71228, Note_off_c, 1, 57, 100
3, 71232, Note_on_c, 1, 58, 80
3, 71324, Note_off_c, 1, 58, 100
3, 71328, Note_on_c, 1, 52, 80
3, 71420, Note_off_c, 1, 61, 100
3, 71420, Note_off_c, 1, 64, 100
3, 71420, Note_off_c, 1, 52, 100
3, 71424, Note_on_c, 1, 60, 110
3, 71424, Note_on_c, 1, 66, 110
3, 71424, Note_on_c, 1, 69, 110
3, 71708, Note_off_c, 1, 60, 100
3, 71712, Note_on_c, 1, 62, 80
3, 71804, Note_off_c, 1, 62, 100
3, 71808, Note_on_c, 1, 63, 80
3, 71900, Note_off_c, 1, 63, 100
3, 71904, Note_on_c, 1, 57, 80
3, 71996, Note_off_c, 1, 66, 100
3, 71996, Note_off_c, 1, 69, 100
3, 71996, Note_off_c, 1, 57, 100
3, 72000, Note_on_c, 1, 71, 100
3, 72000, Note_on_c, 1, 68, 100
3, 72000, Note_on_c, 1, 62, 100
3, 72284, Note_off_c, 1, 62, 100
3, 72288, Note_on_c, 1, 64, 80
3, 72380, Note_off_c, 1, 64, 100
3, 72384, Note_on_c, 1, 65, 80
3, 72476, Note_off_c, 1, 65, 100
3, 72480, Note_on_c, 1, 62, 80
3, 72572, Note_off_c, 1, 71, 100
3, 72572, Note_off_c, 1, 68, 100
3, 72572, Note_off_c, 1, 62, 100
3, 72576, Note_on_c, 1, 73, 80
3, 72576, Note_on_c, 1, 70, 80
3, 72576, Note_on_c, 1, 67, 80
3, 72576, Note_on_c, 1, 64, 80
3, 72764, Note_off_c, 1, 73, 100
3, 72764, Note_off_c, 1, 70, 100
3, 72764, Note_off_c, 1, 67, 100
3, 72764, Note_off_c, 1, 64, 100
3, 72960, Note_on_c, 1, 65, 80
3, 72960, Note_on_c, 1, 69, 80
3, 73148, Note_off_c, 1, 65, 100
3, 73148, Note_off_c, 1, 69, 100
3, 73152, Note_on_c, 1, 67, 80
3, 73152, Note_on_c, 1, 64, 80
3, 73152, Note_on_c, 1, 62, 80
3, 73152, Note_on_c, 1, 55, 80
3, 73340, Note_off_c, 1, 67, 100
3, 73340, Note_off_c, 1, 64, 100
3, 73340, Note_off_c, 1, 62, 100
3, 73340, Note_off_c, 1, 55, 100
3, 73536, Note_on_c, 1, 64, 80
3, 73536, Note_on_c, 1, 61, 80
3, 73536, Note_on_c, 1, 57, 80
3, 73724, Note_off_c, 1, 64, 100
3, 73724, Note_off_c, 1, 61, 100
3, 73724, Note_off_c, 1, 57, 100
3, 73728, Note_on_c, 1, 50, 70
3, 73728, Note_on_c, 1, 38, 70
3, 73916, Note_off_c, 1, 38, 100
3, 73920, Note_on_c, 1, 37, 70
3, 74108, Note_off_c, 1, 37, 100
3, 74112, Note_on_c, 1, 38, 70
3, 74300, Note_off_c, 1, 38, 100
3, 74304, Note_on_c, 1, 41, 70
3, 74492, Note_off_c, 1, 41, 100
3, 74496, Note_on_c, 1, 37, 70
3, 74684, Note_off_c, 1, 37, 100
3, 74688, Note_on_c, 1, 38, 70
3, 74876, Note_off_c, 1, 50, 100
3, 74876, Note_off_c, 1, 38, 100
3, 74880, Note_on_c, 1, 46, 70
3, 74880, Note_on_c, 1, 34, 70
3, 75068, Note_off_c, 1, 34, 100
3, 75072, Note_on_c, 1, 33, 75
3, 75260, Note_off_c, 1, 33, 100
3, 75264, Note_on_c, 1, 34, 80
3, 75452, Note_off_c, 1, 34, 100
3, 75456, Note_on_c, 1, 38, 85
3, 75644, Note_off_c, 1, 38, 100
3, 75648, Note_on_c, 1, 33, 90
3, 75836, Note_off_c, 1, 33, 100
3, 75840, Note_on_c, 1, 34, 95
3, 76028, Note_off_c, 1, 46, 100
3, 76028, Note_off_c, 1, 34, 100
3, 76032, Note_on_c, 1, 30, 110
3, 76224, Note_on_c, 1, 34, 110
3, 76412, Note_off_c, 1, 34, 100
3, 76416, Note_on_c, 1, 39, 110
3, 76604, Note_off_c, 1, 30, 100
3, 76604, Note_off_c, 1, 39, 100
3, 76608, Note_on_c, 1, 42, 110
3, 76800, Note_on_c, 1, 46, 110
3, 76988, Note_off_c, 1, 46, 100
3, 76992, Note_on_c, 1, 51, 110
3, 77180, Note_off_c, 1, 42, 100
3, 77180, Note_off_c, 1, 51, 100
3, 77184, Note_on_c, 1, 45, 110
3, 77376, Note_on_c, 1, 54, 110
3, 77568, Note_on_c, 1, 51, 110
3, 77756, Note_off_c, 1, 45, 100
3, 77756, Note_off_c, 1, 54, 100
3, 77756, Note_off_c, 1, 51, 100
3, 77760, Note_on_c, 1, 46, 110
3, 77952, Note_on_c, 1, 55, 110
3, 78144, Note_on_c, 1, 51, 110
3, 78332, Note_off_c, 1, 46, 100
3, 78332, Note_off_c, 1, 55, 100
3, 78332, Note_off_c, 1, 51, 100
3, 78336, Note_on_c, 1, 47, 110
3, 78528, Note_on_c, 1, 56, 110
3, 78720, Note_on_c, 1, 53, 110
3, 78908, Note_off_c, 1, 47, 100
3, 78908, Note_off_c, 1, 56, 100
3, 78908, Note_off_c, 1, 53, 100
3, 78912, Note_on_c, 1, 48, 110
3, 79104, Note_on_c, 1, 57, 110
3, 79292, Note_off_c, 1, 48, 100
3, 79292, Note_off_c, 1, 57, 100
3, 79296, Note_on_c, 1, 52, 110
3, 79296, Note_on_c, 1, 55, 110
3, 79296, Note_on_c, 1, 58, 110
3, 79296, Note_on_c, 1, 49, 110
3, 79484, Note_off_c, 1, 52, 100
3, 79484, Note_off_c, 1, 55, 100
3, 79484, Note_off_c, 1, 58, 100
3, 79484, Note_off_c, 1, 49, 100
3, 79488, Note_on_c, 1, 50, 110
3, 79680, Note_on_c, 1, 59, 110
3, 79680, Note_on_c, 1, 56, 110
3, 79680, Note_on_c, 1, 53, 110
3, 79868, Note_off_c, 1, 50, 100
3, 79868, Note_off_c, 1, 59, 100
3, 79868, Note_off_c, 1, 56, 100
3, 79868, Note_off_c, 1, 53, 100
3, 79872, Note_on_c, 1, 60, 110
3, 79872, Note_on_c, 1, 57, 110
3, 79872, Note_on_c, 1, 54, 110
3, 79872, Note_on_c, 1, 51, 110
3, 80060, Note_off_c, 1, 60, 100
3, 80060, Note_off_c, 1, 57, 100
3, 80060, Note_off_c, 1, 54, 100
3, 80060, Note_off_c, 1, 51, 100
3, 80064, Note_on_c, 1, 52, 110
3, 80256, Note_on_c, 1, 61, 110
3, 80256, Note_on_c, 1, 58, 110
3, 80256, Note_on_c, 1, 55, 110
3, 80444, Note_off_c, 1, 52, 100
3, 80444, Note_off_c, 1, 61, 100
3, 80444, Note_off_c, 1, 58, 100
3, 80444, Note_off_c, 1, 55, 100
3, 80448, Note_on_c, 1, 62, 110
3, 80448, Note_on_c, 1, 57, 110
3, 80448, Note_on_c, 1, 53, 110
3, 80636, Note_off_c, 1, 62, 100
3, 80636, Note_off_c, 1, 57, 100
3, 80636, Note_off_c, 1, 53, 100
3, 80640, Note_on_c, 1, 55, 125
3, 80832, Note_on_c, 1, 58, 125
3, 80832, Note_on_c, 1, 62, 125
3, 80832, Note_on_c, 1, 64, 125
3, 81020, Note_off_c, 1, 58, 100
3, 81020, Note_off_c, 1, 62, 100
3, 81020, Note_off_c, 1, 64, 100
3, 81024, Note_on_c, 1, 58, 125
3, 81024, Note_on_c, 1, 62, 125
3, 81024, Note_on_c, 1, 64, 125
3, 81212, Note_off_c, 1, 55, 100
3, 81212, Note_off_c, 1, 58, 100
3, 81212, Note_off_c, 1, 62, 100
3, 81212, Note_off_c, 1, 64, 100
3, 81216, Note_on_c, 1, 56, 125
3, 81408, Note_on_c, 1, 59, 125
3, 81408, Note_on_c, 1, 62, 125
3, 81408, Note_on_c, 1, 64, 125
3, 81596, Note_off_c, 1, 59, 100
3, 81596, Note_off_c, 1, 62, 100
3, 81596, Note_off_c, 1, 64, 100
3, 81600, Note_on_c, 1, 59, 125
3, 81600, Note_on_c, 1, 62, 125
3, 81600, Note_on_c, 1, 64, 125
3, 81788, Note_off_c, 1, 56, 100
3, 81788, Note_off_c, 1, 59, 100
3, 81788, Note_off_c, 1, 62, 100
3, 81788, Note_off_c, 1, 64, 100
3, 81792, Note_on_c, 1, 57, 120
3, 81984, Note_on_c, 1, 62, 80
3, 81984, Note_on_c, 1, 65, 80
3, 81984, Note_on_c, 1, 69, 80
3, 82172, Note_off_c, 1, 62, 100
3, 82172, Note_off_c, 1, 65, 100
3, 82172, Note_off_c, 1, 69, 100
3, 82176, Note_on_c, 1, 62, 80
3, 82176, Note_on_c, 1, 65, 80
3, 82176, Note_on_c, 1, 69, 80
3, 82364, Note_off_c, 1, 62, 100
3, 82364, Note_off_c, 1, 65, 100
3, 82364, Note_off_c, 1, 69, 100
3, 82368, Note_on_c, 1, 62, 80
3, 82368, Note_on_c, 1, 65, 80
3, 82368, Note_on_c, 1, 69, 80
3, 82556, Note_off_c, 1, 62, 100
3, 82556, Note_off_c, 1, 65, 100
3, 82556, Note_off_c, 1, 69, 100
3, 82560, Note_on_c, 1, 62, 80
3, 82560, Note_on_c, 1, 65, 80
3, 82560, Note_on_c, 1, 69, 80
3, 82748, Note_off_c, 1, 62, 100
3, 82748, Note_off_c, 1, 65, 100
3, 82748, Note_off_c, 1, 69, 100
3, 82752, Note_on_c, 1, 62, 80
3, 82752, Note_on_c, 1, 65, 80
3, 82752, Note_on_c, 1, 69, 80
3, 82940, Note_off_c, 1, 57, 100
3, 82940, Note_off_c, 1, 62, 100
3, 82940, Note_off_c, 1, 65, 100
3, 82940, Note_off_c, 1, 69, 100
3, 82944, Note_on_c, 1, 57, 80
3, 83136, Note_on_c, 1, 62, 80
3, 83136, Note_on_c, 1, 64, 80
3, 83136, Note_on_c, 1, 67, 80
3, 83324, Note_off_c, 1, 62, 100
3, 83324, Note_off_c, 1, 64, 100
3, 83324, Note_off_c, 1, 67, 100
3, 83328, Note_on_c, 1, 62, 80
3, 83328, Note_on_c, 1, 64, 80
3, 83328, Note_on_c, 1, 67, 80
3, 83516, Note_off_c, 1, 57, 100
3, 83516, Note_off_c, 1, 62, 100
3, 83516, Note_off_c, 1, 64, 100
3, 83516, Note_off_c, 1, 67, 100
3, 83520, Note_on_c, 1, 57, 80
3, 83712, Note_on_c, 1, 61, 80
3, 83712, Note_on_c, 1, 64, 80
3, 83712, Note_on_c, 1, 67, 80
3, 83900, Note_off_c, 1, 61, 100
3, 83900, Note_off_c, 1, 64, 100
3, 83900, Note_off_c, 1, 67, 100
3, 83904, Note_on_c, 1, 61, 80
3, 83904, Note_on_c, 1, 64, 80
3, 84092, Note_off_c, 1, 57, 100
3, 84092, Note_off_c, 1, 61, 100
3, 84092, Note_off_c, 1, 64, 100
3, 84096, Note_on_c, 1, 45, 102
3, 84288, Note_on_c, 1, 50, 80
3, 84288, Note_on_c, 1, 53, 80
3, 84288, Note_on_c, 1, 57, 80
3, 84476, Note_off_c, 1, 50, 100
3, 84476, Note_off_c, 1, 53, 100
3, 84476, Note_off_c, 1, 57, 100
3, 84480, Note_on_c, 1, 50, 80
3, 84480, Note_on_c, 1, 53, 80
3, 84480, Note_on_c, 1, 57, 80
3, 84668, Note_off_c, 1, 50, 100
3, 84668, Note_off_c, 1, 53, 100
3, 84668, Note_off_c, 1, 57, 100
3, 84672, Note_on_c, 1, 50, 80
3, 84672, Note_on_c, 1, 53, 80
3, 84672, Note_on_c, 1, 57, 80
3, 84860, Note_off_c, 1, 50, 100
3, 84860, Note_off_c, 1, 53, 100
3, 84860, Note_off_c, 1, 57, 100
3, 84864, Note_on_c, 1, 50, 80
3, 84864, Note_on_c, 1, 53, 80
3, 84864, Note_on_c, 1, 57, 80
3, 85052, Note_off_c, 1, 50, 100
3, 85052, Note_off_c, 1, 53, 100
3, 85052, Note_off_c, 1, 57, 100
3, 85056, Note_on_c, 1, 50, 80
3, 85056, Note_on_c, 1, 53, 80
3, 85056, Note_on_c, 1, 57, 80
3, 85244, Note_off_c, 1, 45, 100
3, 85244, Note_off_c, 1, 50, 100
3, 85244, Note_off_c, 1, 53, 100
3, 85244, Note_off_c, 1, 57, 100
3, 85248, Note_on_c, 1, 45, 80
3, 85440, Note_on_c, 1, 50, 80
3, 85440, Note_on_c, 1, 52, 80
3, 85440, Note_on_c, 1, 55, 80
3, 85628, Note_off_c, 1, 50, 100
3, 85628, Note_off_c, 1, 52, 100
3, 85628, Note_off_c, 1, 55, 100
3, 85632, Note_on_c, 1, 50, 80
3, 85632, Note_on_c, 1, 52, 80
3, 85632, Note_on_c, 1, 55, 80
3, 85820, Note_off_c, 1, 45, 100
3, 85820, Note_off_c, 1, 50, 100
3, 85820, Note_off_c, 1, 52, 100
3, 85820, Note_off_c, 1, 55, 100
3, 85824, Note_on_c, 1, 45, 80
3, 86016, Note_on_c, 1, 49, 80
3, 86016, Note_on_c, 1, 52, 80
3, 86016, Note_on_c, 1, 55, 80
3, 86204, Note_off_c, 1, 49, 100
3, 86204, Note_off_c, 1, 52, 100
3, 86204, Note_off_c, 1, 55, 100
3, 86208, Note_on_c, 1, 49, 80
3, 86208, Note_on_c, 1, 52, 80
3, 86396, Note_off_c, 1, 45, 100
3, 86396, Note_off_c, 1, 49, 100
3, 86396, Note_off_c, 1, 52, 100
3, 86400, Note_on_c, 1, 50, 80
3, 86400, Note_on_c, 1, 38, 80
3, 86780, Note_off_c, 1, 50, 100
3, 86780, Note_off_c, 1, 38, 100
3, 87552, Note_on_c, 1, 67, 70
3, 87552, Note_on_c, 1, 62, 70
3, 87552, Note_on_c, 1, 55, 70
3, 88124, Note_off_c, 1, 67, 100
3, 88124, Note_off_c, 1, 62, 100
3, 88124, Note_off_c, 1, 55, 100
3, 88704, Note_on_c, 1, 65, 70
3, 88704, Note_on_c, 1, 62, 70
3, 88704, Note_on_c, 1, 53, 70
3, 89276, Note_off_c, 1, 65, 100
3, 89276, Note_off_c, 1, 62, 100
3, 89276, Note_off_c, 1, 53, 100
3, 89856, Note_on_c, 1, 74, 70
3, 90044, Note_off_c, 1, 74, 100
3, 90048, Note_on_c, 1, 69, 70
3, 90236, Note_off_c, 1, 69, 100
3, 90240, Note_on_c, 1, 70, 70
3, 90428, Note_off_c, 1, 70, 100
3, 90432, Note_on_c, 1, 70, 70
3, 90620, Note_off_c, 1, 70, 100
3, 90624, Note_on_c, 1, 66, 75
3, 90812, Note_off_c, 1, 66, 100
3, 90816, Note_on_c, 1, 67, 81
3, 91004, Note_off_c, 1, 67, 100
3, 91008, Note_on_c, 1, 67, 87
3, 91196, Note_off_c, 1, 67, 100
3, 91200, Note_on_c, 1, 62, 93
3, 91388, Note_off_c, 1, 62, 100
3, 91392, Note_on_c, 1, 63, 99
3, 91580, Note_off_c, 1, 63, 100
3, 91584, Note_on_c, 1, 51, 110
3, 91964, Note_off_c, 1, 51, 100
3, 91968, Note_on_c, 1, 50, 110
3, 92156, Note_off_c, 1, 50, 100
3, 92160, Note_on_c, 1, 49, 110
3, 92540, Note_off_c, 1, 49, 100
3, 93312, Note_on_c, 1, 50, 70
3, 93312, Note_on_c, 1, 38, 70
3, 93884, Note_off_c, 1, 50, 100
3, 93884, Note_off_c, 1, 38, 100
3, 94464, Note_on_c, 1, 45, 70
3, 94464, Note_on_c, 1, 33, 70
3, 95036, Note_off_c, 1, 45, 100
3, 95036, Note_off_c, 1, 33, 100
3, 95616, Note_on_c, 1, 38, 70
3, 95616, Note_on_c, 1, 50, 70
3, 95996, Note_off_c, 1, 50, 100
3, 96000, Note_on_c, 1, 50, 70
3, 96000, Note_on_c, 1, 46, 70
3, 96188, Note_off_c, 1, 38, 100
3, 96188, Note_off_c, 1, 50, 100
3, 96188, Note_off_c, 1, 46, 100
3, 96192, Note_on_c, 1, 38, 80
3, 96192, Note_on_c, 1, 50, 80
3, 96572, Note_off_c, 1, 50, 100
3, 96576, Note_on_c, 1, 50, 70
3, 96576, Note_on_c, 1, 43, 70
3, 96764, Note_off_c, 1, 38, 100
3, 96764, Note_off_c, 1, 50, 100
3, 96764, Note_off_c, 1, 43, 100
3, 96768, Note_on_c, 1, 38, 70
3, 96768, Note_on_c, 1, 41, 70
3, 96768, Note_on_c, 1, 50, 70
3, 97148, Note_off_c, 1, 41, 100
3, 97148, Note_off_c, 1, 50, 100
3, 97152, Note_on_c, 1, 50, 70
3, 97152, Note_on_c, 1, 46, 70
3, 97340, Note_off_c, 1, 38, 100
3, 97340, Note_off_c, 1, 50, 100
3, 97340, Note_off_c, 1, 46, 100
3, 97344, Note_on_c, 1, 38, 80
3, 97344, Note_on_c, 1, 50, 80
3, 97724, Note_off_c, 1, 50, 100
3, 97728, Note_on_c, 1, 50, 70
3, 97728, Note_on_c, 1, 43, 70
3, 97916, Note_off_c, 1, 38, 100
3, 97916, Note_off_c, 1, 50, 100
3, 97916, Note_off_c, 1, 43, 100
3, 97920, Note_on_c, 1, 50, 70
3, 97920, Note_on_c, 1, 45, 70
3, 97920, Note_on_c, 1, 41, 70
3, 97920, Note_on_c, 1, 38, 70
3, 98300, Note_off_c, 1, 50, 100
3, 98300, Note_off_c, 1, 45, 100
3, 98300, Note_off_c, 1, 41, 100
3, 98300, Note_off_c, 1, 38, 100
3, 99456, Note_on_c, 1, 38, 70
3, 99644, Note_off_c, 1, 38, 100
3, 99648, Note_on_c, 1, 38, 70
3, 100028, Note_off_c, 1, 38, 100
3, 100028, End_track
0, 0, End_of_file
