0, 0, Header, 1, 3, 384
1, 0, Start_track
1, 0, Title_t, "L.v.Beethoven 1mov - Piano Sonata No.8 in C minor Op.13\000"
1, 0, Copyright_t, "Copyright(C) 1995-2009, Suzuki Software\000"
1, 0, Sequencer_specific, 9, 67, 123, 0, 88, 70, 48, 50, 0, 1
1, 0, Text_t, "XFhd:2000/04/15:JP:Classical::::L.v.Beethoven:::Kaoru Suzuki\000"
1, 0, Text_t, "XFln:JP:\203s\203A\203m\203\\\203i\203^\221æ8\224Ô\203n\222Z\222²\215ì\225i13\201`\221æ1\212y\217Í:L.v.\203x\201[\203g\201[\203\224\203F\203\223:::\227é\202¿\202á\202ñ:\227é\202¿\202á\202ñ\000"
1, 0, Time_signature, 1, 2, 96, 8
1, 0, Sequencer_specific, 3, 0, 0, 65
1, 0, Sequencer_specific, 5, 0, 0, 119, 14, 0
1, 0, Tempo, 1500000
1, 6144, Tempo, 500000
1, 6528, Tempo, 1463414
1, 9120, Tempo, 1578947
1, 9696, Tempo, 1363636
1, 11904, Tempo, 1428571
1, 12288, Tempo, 1578947
1, 12480, Tempo, 2000000
1, 12864, Tempo, 1621621
1, 14400, Tempo, 2000000
1, 14592, Tempo, 1714285
1, 14784, Tempo, 1818181
1, 14880, Tempo, 2000000
1, 14976, Tempo, 2727272
1, 15168, Tempo, 1621621
1, 15552, Tempo, 1200000
1, 16512, Time_signature, 2, 1, 96, 8
1, 16512, Tempo, 193548
1, 133248, Tempo, 206896
1, 134784, Tempo, 214285
1, 135552, Tempo, 222222
1, 136704, Tempo, 193548
1, 178560, Tempo, 206896
1, 179712, Tempo, 193548
1, 197760, Tempo, 200000
1, 199296, Tempo, 206896
1, 200064, Tempo, 214285
1, 205440, Tempo, 193548
1, 322176, Tempo, 206896
1, 323712, Tempo, 214285
1, 324480, Tempo, 222222
1, 325632, Tempo, 193548
1, 386688, Tempo, 206896
1, 388224, Tempo, 214285
1, 388992, Tempo, 222222
1, 389376, Tempo, 250000
1, 395904, Time_signature, 1, 2, 96, 8
1, 395904, Tempo, 1500000
1, 402048, Tempo, 2000000
1, 402432, Time_signature, 2, 1, 96, 8
1, 402432, Tempo, 193548
1, 473088, Tempo, 214285
1, 473472, Tempo, 230769
1, 473856, Tempo, 193548
1, 476160, Tempo, 214285
1, 476544, Tempo, 230769
1, 477312, Tempo, 193548
1, 525312, Tempo, 206896
1, 526848, Tempo, 222222
1, 527232, Tempo, 230769
1, 528768, Tempo, 193548
1, 547968, Tempo, 214285
1, 548736, Tempo, 193548
1, 577536, Tempo, 206896
1, 579072, Tempo, 214285
1, 579840, Tempo, 222222
1, 580224, Tempo, 300000
1, 580608, Tempo, 250000
1, 580992, Tempo, 222222
1, 581376, Tempo, 193548
1, 597504, Tempo, 206896
1, 599424, Tempo, 193548
1, 616704, Tempo, 206896
1, 617856, Tempo, 193548
1, 638976, Tempo, 200000
1, 639744, Tempo, 206896
1, 640512, Tempo, 214285
1, 641280, Tempo, 222222
1, 641664, Tempo, 250000
1, 648192, Time_signature, 1, 2, 96, 8
1, 648192, Tempo, 1500000
1, 650496, Tempo, 1714285
1, 651648, Tempo, 1500000
1, 653184, Tempo, 1578947
1, 653568, Tempo, 1714285
1, 653952, Tempo, 2000000
1, 654720, Time_signature, 2, 1, 96, 8
1, 654720, Tempo, 187500
1, 667008, Tempo, 250000
1, 668544, Tempo, 375000
1, 668544, End_track
2, 0, Start_track
2, 0, Title_t, "Right"
2, 0, Control_c, 0, 0, 0
2, 0, Program_c, 0, 0
2, 0, Control_c, 0, 7, 100
2, 0, Control_c, 0, 10, 74
2, 0, Control_c, 0, 91, 127
2, 0, Key_signature, -3, "minor"
2, 0, Note_on_c, 0, 60, 110
2, 0, Note_on_c, 0, 51, 110
2, 0, Note_on_c, 0, 55, 110
2, 524, Note_off_c, 0, 51, 100
2, 524, Note_off_c, 0, 55, 100
2, 524, Note_off_c, 0, 60, 100
2, 528, Note_on_c, 0, 60, 80
2, 528, Note_on_c, 0, 55, 80
2, 572, Note_off_c, 0, 60, 100
2, 572, Note_off_c, 0, 55, 100
2, 576, Note_on_c, 0, 62, 80
2, 576, Note_on_c, 0, 59, 80
2, 576, Note_on_c, 0, 55, 80
2, 716, Note_off_c, 0, 62, 100
2, 716, Note_off_c, 0, 59, 100
2, 716, Note_off_c, 0, 55, 100
2, 720, Note_on_c, 0, 63, 80
2, 720, Note_on_c, 0, 60, 80
2, 720, Note_on_c, 0, 55, 80
2, 764, Note_off_c, 0, 63, 100
2, 764, Note_off_c, 0, 60, 100
2, 764, Note_off_c, 0, 55, 100
2, 768, Note_on_c, 0, 63, 80
2, 768, Note_on_c, 0, 60, 80
2, 768, Note_on_c, 0, 57, 80
2, 1148, Note_off_c, 0, 63, 100
2, 1148, Note_off_c, 0, 60, 100
2, 1148, Note_off_c, 0, 57, 100
2, 1152, Note_on_c, 0, 62, 80
2, 1152, Note_on_c, 0, 59, 80
2, 1340, Note_off_c, 0, 62, 100
2, 1340, Note_off_c, 0, 59, 100
2, 1536, Note_on_c, 0, 65, 110
2, 1536, Note_on_c, 0, 62, 110
2, 1536, Note_on_c, 0, 59, 110
2, 2060, Note_off_c, 0, 59, 100
2, 2060, Note_off_c, 0, 62, 100
2, 2060, Note_off_c, 0, 65, 100
2, 2064, Note_on_c, 0, 65, 80
2, 2064, Note_on_c, 0, 62, 80
2, 2064, Note_on_c, 0, 59, 80
2, 2108, Note_off_c, 0, 65, 100
2, 2108, Note_off_c, 0, 62, 100
2, 2108, Note_off_c, 0, 59, 100
2, 2112, Note_on_c, 0, 67, 80
2, 2112, Note_on_c, 0, 62, 80
2, 2112, Note_on_c, 0, 59, 80
2, 2252, Note_off_c, 0, 67, 100
2, 2252, Note_off_c, 0, 62, 100
2, 2252, Note_off_c, 0, 59, 100
2, 2256, Note_on_c, 0, 68, 80
2, 2256, Note_on_c, 0, 62, 80
2, 2256, Note_on_c, 0, 59, 80
2, 2300, Note_off_c, 0, 68, 100
2, 2300, Note_off_c, 0, 62, 100
2, 2300, Note_off_c, 0, 59, 100
2, 2304, Note_on_c, 0, 68, 80
2, 2304, Note_on_c, 0, 62, 80
2, 2304, Note_on_c, 0, 59, 80
2, 2684, Note_off_c, 0, 68, 100
2, 2684, Note_off_c, 0, 62, 100
2, 2684, Note_off_c, 0, 59, 100
2, 2688, Note_on_c, 0, 67, 80
2, 2688, Note_on_c, 0, 63, 80
2, 2688, Note_on_c, 0, 60, 80
2, 2876, Note_off_c, 0, 67, 100
2, 2876, Note_off_c, 0, 63, 100
2, 2876, Note_off_c, 0, 60, 100
2, 3072, Note_on_c, 0, 72, 110
2, 3072, Note_on_c, 0, 69, 110
2, 3072, Note_on_c, 0, 66, 110
2, 3596, Note_off_c, 0, 66, 100
2, 3596, Note_off_c, 0, 69, 100
2, 3596, Note_off_c, 0, 72, 100
2, 3600, Note_on_c, 0, 72, 80
2, 3600, Note_on_c, 0, 69, 80
2, 3600, Note_on_c, 0, 66, 80
2, 3644, Note_off_c, 0, 72, 100
2, 3644, Note_off_c, 0, 69, 100
2, 3644, Note_off_c, 0, 66, 100
2, 3648, Note_on_c, 0, 74, 80
2, 3648, Note_on_c, 0, 69, 80
2, 3648, Note_on_c, 0, 66, 80
2, 3788, Note_off_c, 0, 74, 100
2, 3788, Note_off_c, 0, 69, 100
2, 3788, Note_off_c, 0, 66, 100
2, 3792, Note_on_c, 0, 75, 80
2, 3792, Note_on_c, 0, 69, 80
2, 3792, Note_on_c, 0, 66, 80
2, 3836, Note_off_c, 0, 75, 100
2, 3836, Note_off_c, 0, 69, 100
2, 3836, Note_off_c, 0, 66, 100
2, 3840, Note_on_c, 0, 75, 100
2, 3840, Note_on_c, 0, 69, 100
2, 3840, Note_on_c, 0, 66, 100
2, 4220, Note_off_c, 0, 75, 100
2, 4220, Note_off_c, 0, 69, 100
2, 4220, Note_off_c, 0, 66, 100
2, 4224, Note_on_c, 0, 74, 80
2, 4224, Note_on_c, 0, 67, 80
2, 4224, Note_on_c, 0, 62, 80
2, 4316, Note_off_c, 0, 74, 100
2, 4316, Note_off_c, 0, 67, 100
2, 4316, Note_off_c, 0, 62, 100
2, 4368, Note_on_c, 0, 72, 80
2, 4368, Note_on_c, 0, 69, 80
2, 4368, Note_on_c, 0, 66, 80
2, 4412, Note_off_c, 0, 72, 100
2, 4412, Note_off_c, 0, 69, 100
2, 4412, Note_off_c, 0, 66, 100
2, 4416, Note_on_c, 0, 74, 80
2, 4416, Note_on_c, 0, 69, 80
2, 4416, Note_on_c, 0, 66, 80
2, 4556, Note_off_c, 0, 74, 100
2, 4556, Note_off_c, 0, 69, 100
2, 4556, Note_off_c, 0, 66, 100
2, 4560, Note_on_c, 0, 75, 80
2, 4560, Note_on_c, 0, 69, 80
2, 4560, Note_on_c, 0, 66, 80
2, 4604, Note_off_c, 0, 75, 100
2, 4604, Note_off_c, 0, 69, 100
2, 4604, Note_off_c, 0, 66, 100
2, 4608, Note_on_c, 0, 75, 100
2, 4608, Note_on_c, 0, 69, 100
2, 4608, Note_on_c, 0, 66, 100
2, 4988, Note_off_c, 0, 75, 100
2, 4988, Note_off_c, 0, 69, 100
2, 4988, Note_off_c, 0, 66, 100
2, 4992, Note_on_c, 0, 74, 80
2, 4992, Note_on_c, 0, 67, 80
2, 5180, Note_off_c, 0, 74, 100
2, 5180, Note_off_c, 0, 67, 100
2, 5184, Note_on_c, 0, 76, 80
2, 5184, Note_on_c, 0, 72, 80
2, 5184, Note_on_c, 0, 67, 80
2, 5372, Note_off_c, 0, 76, 100
2, 5372, Note_off_c, 0, 72, 100
2, 5372, Note_off_c, 0, 67, 100
2, 5376, Note_on_c, 0, 77, 80
2, 5376, Note_on_c, 0, 72, 80
2, 5376, Note_on_c, 0, 68, 80
2, 5564, Note_off_c, 0, 77, 100
2, 5564, Note_off_c, 0, 72, 100
2, 5564, Note_off_c, 0, 68, 100
2, 5568, Note_on_c, 0, 80, 120
2, 5804, Note_off_c, 0, 80, 100
2, 5808, Note_on_c, 0, 79, 100
2, 5832, Note_on_c, 0, 80, 100
2, 5852, Note_off_c, 0, 79, 100
2, 5856, Note_on_c, 0, 82, 100
2, 5876, Note_off_c, 0, 80, 100
2, 5880, Note_on_c, 0, 80, 100
2, 5900, Note_off_c, 0, 82, 100
2, 5904, Note_on_c, 0, 79, 100
2, 5924, Note_off_c, 0, 80, 100
2, 5928, Note_on_c, 0, 77, 100
2, 5948, Note_off_c, 0, 79, 100
2, 5952, Note_on_c, 0, 75, 100
2, 5972, Note_off_c, 0, 77, 100
2, 5976, Note_on_c, 0, 74, 100
2, 5996, Note_off_c, 0, 75, 100
2, 6000, Note_on_c, 0, 72, 100
2, 6020, Note_off_c, 0, 74, 100
2, 6024, Note_on_c, 0, 70, 100
2, 6044, Note_off_c, 0, 72, 100
2, 6048, Note_on_c, 0, 68, 100
2, 6068, Note_off_c, 0, 70, 100
2, 6072, Note_on_c, 0, 67, 100
2, 6092, Note_off_c, 0, 68, 100
2, 6096, Note_on_c, 0, 65, 100
2, 6116, Note_off_c, 0, 67, 100
2, 6120, Note_on_c, 0, 63, 100
2, 6140, Note_off_c, 0, 65, 100
2, 6144, Note_on_c, 0, 62, 100
2, 6164, Note_off_c, 0, 63, 100
2, 6216, Note_on_c, 0, 65, 100
2, 6284, Note_on_c, 0, 68, 100
2, 6332, Note_off_c, 0, 62, 100
2, 6356, Note_off_c, 0, 65, 100
2, 6368, Note_on_c, 0, 65, 100
2, 6456, Note_on_c, 0, 62, 100
2, 6472, Note_off_c, 0, 68, 100
2, 6516, Note_off_c, 0, 62, 100
2, 6528, Note_off_c, 0, 65, 100
2, 6528, Note_on_c, 0, 63, 80
2, 6716, Note_off_c, 0, 63, 100
2, 6720, Note_on_c, 0, 75, 80
2, 6720, Note_on_c, 0, 63, 80
2, 7052, Note_off_c, 0, 63, 100
2, 7052, Note_off_c, 0, 75, 100
2, 7056, Note_on_c, 0, 75, 80
2, 7056, Note_on_c, 0, 63, 80
2, 7100, Note_off_c, 0, 75, 100
2, 7100, Note_off_c, 0, 63, 100
2, 7104, Note_on_c, 0, 77, 80
2, 7104, Note_on_c, 0, 65, 80
2, 7244, Note_off_c, 0, 77, 100
2, 7244, Note_off_c, 0, 65, 100
2, 7248, Note_on_c, 0, 79, 80
2, 7248, Note_on_c, 0, 67, 80
2, 7292, Note_off_c, 0, 79, 100
2, 7292, Note_off_c, 0, 67, 100
2, 7296, Note_on_c, 0, 79, 80
2, 7296, Note_on_c, 0, 67, 80
2, 7484, Note_off_c, 0, 79, 100
2, 7484, Note_off_c, 0, 67, 100
2, 7488, Note_on_c, 0, 77, 80
2, 7488, Note_on_c, 0, 65, 80
2, 7580, Note_off_c, 0, 77, 100
2, 7580, Note_off_c, 0, 65, 100
2, 7632, Note_on_c, 0, 65, 120
2, 7676, Note_off_c, 0, 65, 100
2, 7680, Note_on_c, 0, 65, 120
2, 7680, Note_on_c, 0, 59, 120
2, 7680, Note_on_c, 0, 56, 120
2, 7680, Note_on_c, 0, 53, 120
2, 7820, Note_off_c, 0, 65, 100
2, 7820, Note_off_c, 0, 59, 100
2, 7820, Note_off_c, 0, 56, 100
2, 7820, Note_off_c, 0, 53, 100
2, 7824, Note_on_c, 0, 65, 120
2, 7824, Note_on_c, 0, 59, 120
2, 7824, Note_on_c, 0, 56, 120
2, 7824, Note_on_c, 0, 53, 120
2, 7868, Note_off_c, 0, 65, 100
2, 7868, Note_off_c, 0, 59, 100
2, 7868, Note_off_c, 0, 56, 100
2, 7868, Note_off_c, 0, 53, 100
2, 7872, Note_on_c, 0, 65, 120
2, 7872, Note_on_c, 0, 60, 120
2, 7872, Note_on_c, 0, 56, 120
2, 7872, Note_on_c, 0, 53, 120
2, 8012, Note_off_c, 0, 65, 100
2, 8012, Note_off_c, 0, 60, 100
2, 8012, Note_off_c, 0, 56, 100
2, 8012, Note_off_c, 0, 53, 100
2, 8016, Note_on_c, 0, 65, 120
2, 8016, Note_on_c, 0, 60, 120
2, 8016, Note_on_c, 0, 56, 120
2, 8016, Note_on_c, 0, 53, 120
2, 8060, Note_off_c, 0, 65, 100
2, 8060, Note_off_c, 0, 60, 100
2, 8060, Note_off_c, 0, 56, 100
2, 8060, Note_off_c, 0, 53, 100
2, 8064, Note_on_c, 0, 65, 120
2, 8064, Note_on_c, 0, 62, 120
2, 8064, Note_on_c, 0, 56, 120
2, 8064, Note_on_c, 0, 53, 120
2, 8252, Note_off_c, 0, 65, 100
2, 8252, Note_off_c, 0, 62, 100
2, 8252, Note_off_c, 0, 56, 100
2, 8252, Note_off_c, 0, 53, 100
2, 8256, Note_on_c, 0, 77, 80
2, 8256, Note_on_c, 0, 65, 80
2, 8588, Note_off_c, 0, 65, 100
2, 8588, Note_off_c, 0, 77, 100
2, 8592, Note_on_c, 0, 77, 80
2, 8592, Note_on_c, 0, 65, 80
2, 8636, Note_off_c, 0, 77, 100
2, 8636, Note_off_c, 0, 65, 100
2, 8640, Note_on_c, 0, 67, 80
2, 8640, Note_on_c, 0, 79, 80
2, 8780, Note_off_c, 0, 67, 100
2, 8780, Note_off_c, 0, 79, 100
2, 8784, Note_on_c, 0, 80, 80
2, 8784, Note_on_c, 0, 68, 80
2, 8828, Note_off_c, 0, 80, 100
2, 8828, Note_off_c, 0, 68, 100
2, 8832, Note_on_c, 0, 80, 80
2, 8832, Note_on_c, 0, 68, 80
2, 9020, Note_off_c, 0, 80, 100
2, 9020, Note_off_c, 0, 68, 100
2, 9024, Note_on_c, 0, 79, 80
2, 9024, Note_on_c, 0, 67, 80
2, 9116, Note_off_c, 0, 79, 100
2, 9116, Note_off_c, 0, 67, 100
2, 9168, Note_on_c, 0, 67, 120
2, 9168, Note_on_c, 0, 64, 120
2, 9168, Note_on_c, 0, 61, 120
2, 9168, Note_on_c, 0, 55, 120
2, 9212, Note_off_c, 0, 67, 100
2, 9212, Note_off_c, 0, 64, 100
2, 9212, Note_off_c, 0, 61, 100
2, 9212, Note_off_c, 0, 55, 100
2, 9216, Note_on_c, 0, 69, 120
2, 9216, Note_on_c, 0, 64, 120
2, 9216, Note_on_c, 0, 60, 120
2, 9216, Note_on_c, 0, 57, 120
2, 9356, Note_off_c, 0, 69, 100
2, 9356, Note_off_c, 0, 64, 100
2, 9356, Note_off_c, 0, 60, 100
2, 9356, Note_off_c, 0, 57, 100
2, 9360, Note_on_c, 0, 69, 120
2, 9360, Note_on_c, 0, 64, 120
2, 9360, Note_on_c, 0, 60, 120
2, 9360, Note_on_c, 0, 57, 120
2, 9404, Note_off_c, 0, 69, 100
2, 9404, Note_off_c, 0, 64, 100
2, 9404, Note_off_c, 0, 60, 100
2, 9404, Note_off_c, 0, 57, 100
2, 9408, Note_on_c, 0, 70, 120
2, 9408, Note_on_c, 0, 64, 120
2, 9408, Note_on_c, 0, 60, 120
2, 9408, Note_on_c, 0, 58, 120
2, 9548, Note_off_c, 0, 70, 100
2, 9548, Note_off_c, 0, 64, 100
2, 9548, Note_off_c, 0, 60, 100
2, 9548, Note_off_c, 0, 58, 100
2, 9552, Note_on_c, 0, 70, 120
2, 9552, Note_on_c, 0, 64, 120
2, 9552, Note_on_c, 0, 60, 120
2, 9552, Note_on_c, 0, 58, 120
2, 9596, Note_off_c, 0, 70, 100
2, 9596, Note_off_c, 0, 64, 100
2, 9596, Note_off_c, 0, 60, 100
2, 9596, Note_off_c, 0, 58, 100
2, 9600, Note_on_c, 0, 69, 120
2, 9600, Note_on_c, 0, 66, 120
2, 9600, Note_on_c, 0, 62, 120
2, 9600, Note_on_c, 0, 57, 120
2, 9788, Note_off_c, 0, 69, 100
2, 9788, Note_off_c, 0, 66, 100
2, 9788, Note_off_c, 0, 62, 100
2, 9788, Note_off_c, 0, 57, 100
2, 9792, Note_on_c, 0, 81, 80
2, 9792, Note_on_c, 0, 69, 80
2, 10124, Note_off_c, 0, 69, 100
2, 10124, Note_off_c, 0, 81, 100
2, 10128, Note_on_c, 0, 69, 80
2, 10128, Note_on_c, 0, 81, 80
2, 10172, Note_off_c, 0, 69, 100
2, 10172, Note_off_c, 0, 81, 100
2, 10176, Note_on_c, 0, 71, 80
2, 10176, Note_on_c, 0, 83, 80
2, 10316, Note_off_c, 0, 71, 100
2, 10316, Note_off_c, 0, 83, 100
2, 10320, Note_on_c, 0, 84, 80
2, 10320, Note_on_c, 0, 72, 80
2, 10364, Note_off_c, 0, 84, 100
2, 10364, Note_off_c, 0, 72, 100
2, 10368, Note_on_c, 0, 84, 80
2, 10368, Note_on_c, 0, 72, 80
2, 10556, Note_off_c, 0, 84, 100
2, 10556, Note_off_c, 0, 72, 100
2, 10560, Note_on_c, 0, 71, 80
2, 10560, Note_on_c, 0, 83, 80
2, 10652, Note_off_c, 0, 71, 100
2, 10652, Note_off_c, 0, 83, 100
2, 10944, Note_on_c, 0, 71, 80
2, 10944, Note_on_c, 0, 83, 80
2, 11084, Note_off_c, 0, 71, 100
2, 11084, Note_off_c, 0, 83, 100
2, 11088, Note_on_c, 0, 72, 80
2, 11088, Note_on_c, 0, 84, 80
2, 11132, Note_off_c, 0, 72, 100
2, 11132, Note_off_c, 0, 84, 100
2, 11136, Note_on_c, 0, 85, 80
2, 11136, Note_on_c, 0, 73, 80
2, 11324, Note_off_c, 0, 85, 100
2, 11324, Note_off_c, 0, 73, 100
2, 11328, Note_on_c, 0, 74, 85
2, 11328, Note_on_c, 0, 86, 85
2, 11516, Note_off_c, 0, 74, 100
2, 11516, Note_off_c, 0, 86, 100
2, 11712, Note_on_c, 0, 74, 95
2, 11712, Note_on_c, 0, 86, 95
2, 11852, Note_off_c, 0, 74, 100
2, 11852, Note_off_c, 0, 86, 100
2, 11856, Note_on_c, 0, 75, 99
2, 11856, Note_on_c, 0, 87, 99
2, 11900, Note_off_c, 0, 75, 100
2, 11900, Note_off_c, 0, 87, 100
2, 11904, Note_on_c, 0, 76, 101
2, 11904, Note_on_c, 0, 88, 101
2, 12092, Note_off_c, 0, 76, 100
2, 12092, Note_off_c, 0, 88, 100
2, 12096, Note_on_c, 0, 77, 106
2, 12096, Note_on_c, 0, 89, 106
2, 12476, Note_off_c, 0, 77, 100
2, 12476, Note_off_c, 0, 89, 100
2, 12480, Note_on_c, 0, 77, 117
2, 12480, Note_on_c, 0, 89, 117
2, 12668, Note_off_c, 0, 77, 100
2, 12668, Note_off_c, 0, 89, 100
2, 12672, Note_on_c, 0, 77, 120
2, 12672, Note_on_c, 0, 89, 120
2, 12908, Note_off_c, 0, 77, 100
2, 12908, Note_off_c, 0, 89, 100
2, 12912, Note_on_c, 0, 87, 80
2, 12936, Note_on_c, 0, 86, 80
2, 12956, Note_off_c, 0, 87, 100
2, 12960, Note_on_c, 0, 89, 80
2, 12980, Note_off_c, 0, 86, 100
2, 12984, Note_on_c, 0, 87, 80
2, 13004, Note_off_c, 0, 89, 100
2, 13008, Note_on_c, 0, 86, 80
2, 13028, Note_off_c, 0, 87, 100
2, 13032, Note_on_c, 0, 84, 80
2, 13052, Note_off_c, 0, 86, 100
2, 13056, Note_on_c, 0, 83, 80
2, 13076, Note_off_c, 0, 84, 100
2, 13148, Note_off_c, 0, 83, 100
2, 13152, Note_on_c, 0, 83, 80
2, 13244, Note_off_c, 0, 83, 100
2, 13248, Note_on_c, 0, 83, 80
2, 13248, Note_on_c, 0, 77, 80
2, 13340, Note_off_c, 0, 83, 100
2, 13340, Note_off_c, 0, 77, 100
2, 13344, Note_on_c, 0, 83, 80
2, 13344, Note_on_c, 0, 77, 80
2, 13436, Note_off_c, 0, 83, 100
2, 13436, Note_off_c, 0, 77, 100
2, 13440, Note_on_c, 0, 75, 80
2, 13440, Note_on_c, 0, 84, 80
2, 13628, Note_off_c, 0, 75, 100
2, 13628, Note_off_c, 0, 84, 100
2, 14208, Note_on_c, 0, 84, 122
2, 14444, Note_off_c, 0, 84, 100
2, 14448, Note_on_c, 0, 83, 80
2, 14472, Note_on_c, 0, 84, 80
2, 14492, Note_off_c, 0, 83, 100
2, 14496, Note_on_c, 0, 86, 80
2, 14512, Note_on_c, 0, 84, 80
2, 14516, Note_off_c, 0, 84, 100
2, 14524, Note_off_c, 0, 86, 100
2, 14528, Note_on_c, 0, 82, 80
2, 14540, Note_off_c, 0, 84, 100
2, 14544, Note_on_c, 0, 80, 80
2, 14556, Note_off_c, 0, 82, 100
2, 14560, Note_on_c, 0, 79, 80
2, 14572, Note_off_c, 0, 80, 100
2, 14576, Note_on_c, 0, 82, 80
2, 14588, Note_off_c, 0, 79, 100
2, 14588, Note_off_c, 0, 82, 100
2, 14592, Note_on_c, 0, 80, 80
2, 14684, Note_off_c, 0, 80, 100
2, 14688, Note_on_c, 0, 80, 80
2, 14780, Note_off_c, 0, 80, 100
2, 14784, Note_on_c, 0, 80, 80
2, 14876, Note_off_c, 0, 80, 100
2, 14880, Note_on_c, 0, 80, 80
2, 14972, Note_off_c, 0, 80, 100
2, 14976, Note_on_c, 0, 79, 80
2, 15072, Note_on_c, 0, 87, 80
2, 15240, Note_on_c, 0, 86, 80
2, 15260, Note_off_c, 0, 87, 100
2, 15264, Note_on_c, 0, 85, 80
2, 15284, Note_off_c, 0, 86, 100
2, 15288, Note_on_c, 0, 84, 80
2, 15292, Note_off_c, 0, 79, 100
2, 15308, Note_off_c, 0, 85, 100
2, 15312, Note_on_c, 0, 83, 80
2, 15332, Note_off_c, 0, 84, 100
2, 15336, Note_on_c, 0, 82, 80
2, 15356, Note_off_c, 0, 83, 100
2, 15360, Note_on_c, 0, 81, 80
2, 15380, Note_off_c, 0, 82, 100
2, 15384, Note_on_c, 0, 80, 80
2, 15404, Note_off_c, 0, 81, 100
2, 15408, Note_on_c, 0, 79, 80
2, 15428, Note_off_c, 0, 80, 100
2, 15432, Note_on_c, 0, 78, 80
2, 15452, Note_off_c, 0, 79, 100
2, 15456, Note_on_c, 0, 77, 80
2, 15476, Note_off_c, 0, 78, 100
2, 15480, Note_on_c, 0, 76, 80
2, 15500, Note_off_c, 0, 77, 100
2, 15504, Note_on_c, 0, 75, 80
2, 15524, Note_off_c, 0, 76, 100
2, 15528, Note_on_c, 0, 74, 80
2, 15548, Note_off_c, 0, 75, 100
2, 15552, Note_on_c, 0, 73, 80
2, 15572, Note_off_c, 0, 74, 100
2, 15576, Note_on_c, 0, 72, 80
2, 15596, Note_off_c, 0, 73, 100
2, 15600, Note_on_c, 0, 71, 80
2, 15620, Note_off_c, 0, 72, 100
2, 15624, Note_on_c, 0, 70, 80
2, 15644, Note_off_c, 0, 71, 100
2, 15648, Note_on_c, 0, 69, 80
2, 15668, Note_off_c, 0, 70, 100
2, 15672, Note_on_c, 0, 68, 80
2, 15692, Note_off_c, 0, 69, 100
2, 15696, Note_on_c, 0, 67, 80
2, 15716, Note_off_c, 0, 68, 100
2, 15720, Note_on_c, 0, 66, 80
2, 15740, Note_off_c, 0, 67, 100
2, 15744, Note_on_c, 0, 65, 80
2, 15764, Note_off_c, 0, 66, 100
2, 15768, Note_on_c, 0, 64, 80
2, 15788, Note_off_c, 0, 65, 100
2, 15792, Note_on_c, 0, 63, 80
2, 15812, Note_off_c, 0, 64, 100
2, 15816, Note_on_c, 0, 62, 80
2, 15836, Note_off_c, 0, 63, 100
2, 15840, Note_on_c, 0, 61, 80
2, 15860, Note_off_c, 0, 62, 100
2, 15864, Note_on_c, 0, 60, 80
2, 15884, Note_off_c, 0, 61, 100
2, 15888, Note_on_c, 0, 59, 80
2, 15908, Note_off_c, 0, 60, 100
2, 15912, Note_on_c, 0, 68, 121
2, 15932, Note_off_c, 0, 59, 100
2, 16316, Note_off_c, 0, 68, 100
2, 16368, Note_on_c, 0, 59, 80
2, 16508, Note_off_c, 0, 59, 100
2, 16512, Note_on_c, 0, 60, 80
2, 17656, Note_off_c, 0, 60, 100
2, 17664, Note_on_c, 0, 64, 80
2, 17664, Note_on_c, 0, 58, 80
2, 18040, Note_off_c, 0, 64, 100
2, 18040, Note_off_c, 0, 58, 100
2, 18048, Note_on_c, 0, 65, 80
2, 18048, Note_on_c, 0, 56, 80
2, 18424, Note_off_c, 0, 65, 100
2, 18424, Note_off_c, 0, 56, 100
2, 18432, Note_on_c, 0, 67, 80
2, 18432, Note_on_c, 0, 64, 80
2, 18808, Note_off_c, 0, 67, 100
2, 18808, Note_off_c, 0, 64, 100
2, 18816, Note_on_c, 0, 68, 80
2, 18816, Note_on_c, 0, 65, 80
2, 19192, Note_off_c, 0, 68, 100
2, 19192, Note_off_c, 0, 65, 100
2, 19200, Note_on_c, 0, 71, 80
2, 19200, Note_on_c, 0, 62, 80
2, 19576, Note_off_c, 0, 71, 100
2, 19576, Note_off_c, 0, 62, 100
2, 19584, Note_on_c, 0, 72, 80
2, 19584, Note_on_c, 0, 63, 80
2, 19960, Note_off_c, 0, 72, 100
2, 19960, Note_off_c, 0, 63, 100
2, 19968, Note_on_c, 0, 72, 103
2, 19968, Note_on_c, 0, 64, 104
2, 20728, Note_off_c, 0, 72, 100
2, 20728, Note_off_c, 0, 64, 100
2, 20736, Note_on_c, 0, 76, 80
2, 20736, Note_on_c, 0, 70, 80
2, 21112, Note_off_c, 0, 76, 100
2, 21112, Note_off_c, 0, 70, 100
2, 21120, Note_on_c, 0, 77, 80
2, 21120, Note_on_c, 0, 68, 80
2, 21496, Note_off_c, 0, 77, 100
2, 21496, Note_off_c, 0, 68, 100
2, 21504, Note_on_c, 0, 79, 80
2, 21504, Note_on_c, 0, 76, 80
2, 21880, Note_off_c, 0, 79, 100
2, 21880, Note_off_c, 0, 76, 100
2, 21888, Note_on_c, 0, 80, 80
2, 21888, Note_on_c, 0, 77, 80
2, 22264, Note_off_c, 0, 80, 100
2, 22264, Note_off_c, 0, 77, 100
2, 22272, Note_on_c, 0, 83, 80
2, 22272, Note_on_c, 0, 74, 80
2, 22648, Note_off_c, 0, 83, 100
2, 22648, Note_off_c, 0, 74, 100
2, 22656, Note_on_c, 0, 84, 80
2, 22656, Note_on_c, 0, 79, 80
2, 22656, Note_on_c, 0, 75, 80
2, 22656, Note_on_c, 0, 72, 80
2, 23416, Note_off_c, 0, 84, 100
2, 23416, Note_off_c, 0, 79, 100
2, 23416, Note_off_c, 0, 75, 100
2, 23416, Note_off_c, 0, 72, 100
2, 23424, Note_on_c, 0, 79, 85
2, 23424, Note_on_c, 0, 77, 85
2, 23424, Note_on_c, 0, 71, 85
2, 23424, Note_on_c, 0, 67, 85
2, 24184, Note_off_c, 0, 79, 100
2, 24184, Note_off_c, 0, 77, 100
2, 24184, Note_off_c, 0, 71, 100
2, 24184, Note_off_c, 0, 67, 100
2, 24192, Note_on_c, 0, 75, 90
2, 24192, Note_on_c, 0, 72, 90
2, 24192, Note_on_c, 0, 67, 90
2, 24952, Note_off_c, 0, 75, 100
2, 24952, Note_off_c, 0, 72, 100
2, 24952, Note_off_c, 0, 67, 100
2, 24960, Note_on_c, 0, 74, 95
2, 24960, Note_on_c, 0, 68, 95
2, 24960, Note_on_c, 0, 65, 95
2, 25720, Note_off_c, 0, 74, 100
2, 25720, Note_off_c, 0, 68, 100
2, 25720, Note_off_c, 0, 65, 100
2, 25728, Note_on_c, 0, 67, 100
2, 25728, Note_on_c, 0, 72, 100
2, 25728, Note_on_c, 0, 63, 100
2, 26488, Note_off_c, 0, 67, 100
2, 26496, Note_on_c, 0, 66, 106
2, 27256, Note_off_c, 0, 66, 100
2, 27264, Note_on_c, 0, 69, 100
2, 28024, Note_off_c, 0, 63, 100
2, 28024, Note_off_c, 0, 72, 100
2, 28024, Note_off_c, 0, 69, 100
2, 28032, Note_on_c, 0, 71, 89
2, 28032, Note_on_c, 0, 65, 89
2, 28032, Note_on_c, 0, 62, 89
2, 28792, Note_off_c, 0, 71, 100
2, 28792, Note_off_c, 0, 65, 100
2, 28792, Note_off_c, 0, 62, 100
2, 28800, Note_on_c, 0, 72, 80
2, 28800, Note_on_c, 0, 63, 80
2, 28800, Note_on_c, 0, 60, 80
2, 29176, Note_off_c, 0, 72, 100
2, 29176, Note_off_c, 0, 63, 100
2, 29176, Note_off_c, 0, 60, 100
2, 29184, Note_on_c, 0, 60, 80
2, 29944, Note_off_c, 0, 60, 100
2, 29952, Note_on_c, 0, 64, 80
2, 29952, Note_on_c, 0, 58, 80
2, 30328, Note_off_c, 0, 64, 100
2, 30328, Note_off_c, 0, 58, 100
2, 30336, Note_on_c, 0, 65, 80
2, 30336, Note_on_c, 0, 56, 80
2, 30712, Note_off_c, 0, 65, 100
2, 30712, Note_off_c, 0, 56, 100
2, 30720, Note_on_c, 0, 67, 80
2, 30720, Note_on_c, 0, 64, 80
2, 31096, Note_off_c, 0, 67, 100
2, 31096, Note_off_c, 0, 64, 100
2, 31104, Note_on_c, 0, 68, 80
2, 31104, Note_on_c, 0, 65, 80
2, 31480, Note_off_c, 0, 68, 100
2, 31480, Note_off_c, 0, 65, 100
2, 31488, Note_on_c, 0, 71, 80
2, 31488, Note_on_c, 0, 62, 80
2, 31864, Note_off_c, 0, 71, 100
2, 31864, Note_off_c, 0, 62, 100
2, 31872, Note_on_c, 0, 72, 80
2, 31872, Note_on_c, 0, 63, 80
2, 32248, Note_off_c, 0, 72, 100
2, 32248, Note_off_c, 0, 63, 100
2, 32256, Note_on_c, 0, 72, 104
2, 32256, Note_on_c, 0, 64, 105
2, 33016, Note_off_c, 0, 72, 100
2, 33016, Note_off_c, 0, 64, 100
2, 33024, Note_on_c, 0, 76, 80
2, 33024, Note_on_c, 0, 70, 80
2, 33400, Note_off_c, 0, 76, 100
2, 33400, Note_off_c, 0, 70, 100
2, 33408, Note_on_c, 0, 77, 80
2, 33408, Note_on_c, 0, 68, 80
2, 33784, Note_off_c, 0, 77, 100
2, 33784, Note_off_c, 0, 68, 100
2, 33792, Note_on_c, 0, 79, 80
2, 33792, Note_on_c, 0, 76, 80
2, 34168, Note_off_c, 0, 79, 100
2, 34168, Note_off_c, 0, 76, 100
2, 34176, Note_on_c, 0, 80, 80
2, 34176, Note_on_c, 0, 77, 80
2, 34552, Note_off_c, 0, 80, 100
2, 34552, Note_off_c, 0, 77, 100
2, 34560, Note_on_c, 0, 83, 80
2, 34560, Note_on_c, 0, 74, 80
2, 34936, Note_off_c, 0, 83, 100
2, 34936, Note_off_c, 0, 74, 100
2, 34944, Note_on_c, 0, 84, 80
2, 34944, Note_on_c, 0, 79, 80
2, 34944, Note_on_c, 0, 75, 80
2, 34944, Note_on_c, 0, 72, 80
2, 35704, Note_off_c, 0, 84, 100
2, 35704, Note_off_c, 0, 79, 100
2, 35704, Note_off_c, 0, 75, 100
2, 35704, Note_off_c, 0, 72, 100
2, 35712, Note_on_c, 0, 79, 83
2, 35712, Note_on_c, 0, 77, 83
2, 35712, Note_on_c, 0, 71, 83
2, 35712, Note_on_c, 0, 67, 83
2, 36472, Note_off_c, 0, 79, 100
2, 36472, Note_off_c, 0, 77, 100
2, 36472, Note_off_c, 0, 71, 100
2, 36472, Note_off_c, 0, 67, 100
2, 36480, Note_on_c, 0, 75, 87
2, 36480, Note_on_c, 0, 72, 87
2, 36480, Note_on_c, 0, 67, 87
2, 37240, Note_off_c, 0, 75, 100
2, 37240, Note_off_c, 0, 72, 100
2, 37240, Note_off_c, 0, 67, 100
2, 37248, Note_on_c, 0, 74, 91
2, 37248, Note_on_c, 0, 68, 91
2, 37248, Note_on_c, 0, 65, 91
2, 38008, Note_off_c, 0, 74, 100
2, 38008, Note_off_c, 0, 68, 100
2, 38008, Note_off_c, 0, 65, 100
2, 38016, Note_on_c, 0, 67, 95
2, 38016, Note_on_c, 0, 72, 95
2, 38016, Note_on_c, 0, 63, 95
2, 38776, Note_off_c, 0, 67, 100
2, 38784, Note_on_c, 0, 66, 99
2, 39544, Note_off_c, 0, 66, 100
2, 39552, Note_on_c, 0, 69, 103
2, 41080, Note_off_c, 0, 63, 100
2, 41080, Note_off_c, 0, 72, 100
2, 41080, Note_off_c, 0, 69, 100
2, 41088, Note_on_c, 0, 71, 80
2, 41088, Note_on_c, 0, 67, 80
2, 41088, Note_on_c, 0, 62, 80
2, 41464, Note_off_c, 0, 71, 100
2, 41464, Note_off_c, 0, 67, 100
2, 41464, Note_off_c, 0, 62, 100
2, 41856, Note_on_c, 0, 79, 100
2, 41856, Note_on_c, 0, 67, 100
2, 43000, Note_off_c, 0, 67, 100
2, 43000, Note_off_c, 0, 79, 100
2, 43392, Note_on_c, 0, 79, 100
2, 43392, Note_on_c, 0, 67, 100
2, 44344, Note_off_c, 0, 67, 100
2, 44344, Note_off_c, 0, 79, 100
2, 44352, Note_on_c, 0, 77, 80
2, 44536, Note_off_c, 0, 77, 100
2, 44544, Note_on_c, 0, 74, 80
2, 44728, Note_off_c, 0, 74, 100
2, 44736, Note_on_c, 0, 71, 80
2, 44920, Note_off_c, 0, 71, 100
2, 44928, Note_on_c, 0, 67, 80
2, 45112, Note_off_c, 0, 67, 100
2, 45120, Note_on_c, 0, 65, 80
2, 45304, Note_off_c, 0, 65, 100
2, 45312, Note_on_c, 0, 62, 80
2, 45496, Note_off_c, 0, 62, 100
2, 45504, Note_on_c, 0, 59, 80
2, 45688, Note_off_c, 0, 59, 100
2, 45696, Note_on_c, 0, 60, 80
2, 45880, Note_off_c, 0, 60, 100
2, 45888, Note_on_c, 0, 63, 80
2, 46072, Note_off_c, 0, 63, 100
2, 46080, Note_on_c, 0, 60, 80
2, 46264, Note_off_c, 0, 60, 100
2, 46272, Note_on_c, 0, 55, 80
2, 46456, Note_off_c, 0, 55, 100
2, 46464, Note_on_c, 0, 54, 80
2, 46648, Note_off_c, 0, 54, 100
2, 46656, Note_on_c, 0, 60, 80
2, 46840, Note_off_c, 0, 60, 100
2, 46848, Note_on_c, 0, 56, 80
2, 47032, Note_off_c, 0, 56, 100
2, 47040, Note_on_c, 0, 54, 80
2, 47224, Note_off_c, 0, 54, 100
2, 47232, Note_on_c, 0, 55, 80
2, 47608, Note_off_c, 0, 55, 100
2, 48000, Note_on_c, 0, 79, 100
2, 48000, Note_on_c, 0, 67, 100
2, 49144, Note_off_c, 0, 67, 100
2, 49144, Note_off_c, 0, 79, 100
2, 49536, Note_on_c, 0, 79, 100
2, 49536, Note_on_c, 0, 67, 100
2, 50488, Note_off_c, 0, 67, 100
2, 50488, Note_off_c, 0, 79, 100
2, 50496, Note_on_c, 0, 77, 80
2, 50680, Note_off_c, 0, 77, 100
2, 50688, Note_on_c, 0, 74, 80
2, 50872, Note_off_c, 0, 74, 100
2, 50880, Note_on_c, 0, 71, 80
2, 51064, Note_off_c, 0, 71, 100
2, 51072, Note_on_c, 0, 67, 80
2, 51256, Note_off_c, 0, 67, 100
2, 51264, Note_on_c, 0, 65, 80
2, 51448, Note_off_c, 0, 65, 100
2, 51456, Note_on_c, 0, 62, 80
2, 51640, Note_off_c, 0, 62, 100
2, 51648, Note_on_c, 0, 59, 80
2, 51832, Note_off_c, 0, 59, 100
2, 51840, Note_on_c, 0, 60, 80
2, 52024, Note_off_c, 0, 60, 100
2, 52032, Note_on_c, 0, 63, 80
2, 52216, Note_off_c, 0, 63, 100
2, 52224, Note_on_c, 0, 60, 80
2, 52408, Note_off_c, 0, 60, 100
2, 52416, Note_on_c, 0, 55, 80
2, 52600, Note_off_c, 0, 55, 100
2, 52608, Note_on_c, 0, 54, 80
2, 52792, Note_off_c, 0, 54, 100
2, 52800, Note_on_c, 0, 60, 80
2, 52984, Note_off_c, 0, 60, 100
2, 52992, Note_on_c, 0, 56, 80
2, 53176, Note_off_c, 0, 56, 100
2, 53184, Note_on_c, 0, 54, 80
2, 53368, Note_off_c, 0, 54, 100
2, 53376, Note_on_c, 0, 55, 80
2, 53752, Note_off_c, 0, 55, 100
2, 53760, Note_on_c, 0, 66, 84
2, 54136, Note_off_c, 0, 66, 100
2, 54144, Note_on_c, 0, 67, 88
2, 54520, Note_off_c, 0, 67, 100
2, 54528, Note_on_c, 0, 72, 92
2, 54528, Note_on_c, 0, 66, 92
2, 54904, Note_off_c, 0, 72, 100
2, 54904, Note_off_c, 0, 66, 100
2, 54912, Note_on_c, 0, 71, 97
2, 54912, Note_on_c, 0, 67, 97
2, 55288, Note_off_c, 0, 71, 100
2, 55288, Note_off_c, 0, 67, 100
2, 55296, Note_on_c, 0, 78, 101
2, 55296, Note_on_c, 0, 72, 101
2, 55672, Note_off_c, 0, 78, 100
2, 55672, Note_off_c, 0, 72, 100
2, 55680, Note_on_c, 0, 71, 105
2, 55680, Note_on_c, 0, 79, 105
2, 56056, Note_off_c, 0, 71, 100
2, 56056, Note_off_c, 0, 79, 100
2, 56064, Note_on_c, 0, 84, 109
2, 56064, Note_on_c, 0, 78, 109
2, 56440, Note_off_c, 0, 84, 100
2, 56440, Note_off_c, 0, 78, 100
2, 56448, Note_on_c, 0, 79, 110
2, 56448, Note_on_c, 0, 83, 110
2, 56824, Note_off_c, 0, 79, 100
2, 56824, Note_off_c, 0, 83, 100
2, 57984, Note_on_c, 0, 61, 110
2, 57984, Note_on_c, 0, 58, 110
2, 57984, Note_on_c, 0, 63, 110
2, 59512, Note_off_c, 0, 61, 100
2, 59512, Note_off_c, 0, 58, 100
2, 59520, Note_on_c, 0, 60, 80
2, 59896, Note_off_c, 0, 63, 100
2, 59896, Note_off_c, 0, 60, 100
2, 59904, Note_on_c, 0, 73, 83
2, 59904, Note_on_c, 0, 67, 83
2, 60280, Note_off_c, 0, 73, 100
2, 60280, Note_off_c, 0, 67, 100
2, 60288, Note_on_c, 0, 72, 87
2, 60288, Note_on_c, 0, 68, 87
2, 60664, Note_off_c, 0, 72, 100
2, 60664, Note_off_c, 0, 68, 100
2, 60672, Note_on_c, 0, 73, 91
2, 60672, Note_on_c, 0, 79, 91
2, 61048, Note_off_c, 0, 73, 100
2, 61048, Note_off_c, 0, 79, 100
2, 61056, Note_on_c, 0, 80, 95
2, 61056, Note_on_c, 0, 72, 95
2, 61432, Note_off_c, 0, 80, 100
2, 61432, Note_off_c, 0, 72, 100
2, 61440, Note_on_c, 0, 79, 99
2, 61440, Note_on_c, 0, 85, 99
2, 61816, Note_off_c, 0, 79, 100
2, 61816, Note_off_c, 0, 85, 100
2, 61824, Note_on_c, 0, 80, 103
2, 61824, Note_on_c, 0, 84, 103
2, 62200, Note_off_c, 0, 80, 100
2, 62200, Note_off_c, 0, 84, 100
2, 62208, Note_on_c, 0, 79, 107
2, 62208, Note_on_c, 0, 85, 107
2, 62584, Note_off_c, 0, 79, 100
2, 62584, Note_off_c, 0, 85, 100
2, 62592, Note_on_c, 0, 80, 110
2, 62592, Note_on_c, 0, 84, 110
2, 62968, Note_off_c, 0, 80, 100
2, 62968, Note_off_c, 0, 84, 100
2, 64128, Note_on_c, 0, 63, 110
2, 64128, Note_on_c, 0, 66, 110
2, 64128, Note_on_c, 0, 60, 110
2, 65656, Note_off_c, 0, 63, 100
2, 65656, Note_off_c, 0, 66, 100
2, 65656, Note_off_c, 0, 60, 100
2, 65664, Note_on_c, 0, 65, 80
2, 65664, Note_on_c, 0, 62, 80
2, 66040, Note_off_c, 0, 65, 100
2, 66040, Note_off_c, 0, 62, 100
2, 66048, Note_on_c, 0, 75, 83
2, 66048, Note_on_c, 0, 69, 83
2, 66424, Note_off_c, 0, 75, 100
2, 66424, Note_off_c, 0, 69, 100
2, 66432, Note_on_c, 0, 74, 87
2, 66432, Note_on_c, 0, 70, 87
2, 66808, Note_off_c, 0, 74, 100
2, 66808, Note_off_c, 0, 70, 100
2, 66816, Note_on_c, 0, 75, 91
2, 66816, Note_on_c, 0, 81, 91
2, 67192, Note_off_c, 0, 75, 100
2, 67192, Note_off_c, 0, 81, 100
2, 67200, Note_on_c, 0, 82, 95
2, 67200, Note_on_c, 0, 74, 95
2, 67576, Note_off_c, 0, 82, 100
2, 67576, Note_off_c, 0, 74, 100
2, 67584, Note_on_c, 0, 81, 99
2, 67584, Note_on_c, 0, 87, 99
2, 67960, Note_off_c, 0, 81, 100
2, 67960, Note_off_c, 0, 87, 100
2, 67968, Note_on_c, 0, 86, 103
2, 67968, Note_on_c, 0, 82, 103
2, 68344, Note_off_c, 0, 86, 100
2, 68344, Note_off_c, 0, 82, 100
2, 68352, Note_on_c, 0, 81, 107
2, 68352, Note_on_c, 0, 87, 107
2, 68728, Note_off_c, 0, 81, 100
2, 68728, Note_off_c, 0, 87, 100
2, 68736, Note_on_c, 0, 82, 110
2, 68736, Note_on_c, 0, 86, 110
2, 69112, Note_off_c, 0, 82, 100
2, 69112, Note_off_c, 0, 86, 100
2, 69504, Note_on_c, 0, 81, 110
2, 69504, Note_on_c, 0, 75, 110
2, 70264, Note_off_c, 0, 81, 100
2, 70264, Note_off_c, 0, 75, 100
2, 70272, Note_on_c, 0, 74, 110
2, 70272, Note_on_c, 0, 82, 110
2, 70648, Note_off_c, 0, 74, 100
2, 70648, Note_off_c, 0, 82, 100
2, 71040, Note_on_c, 0, 75, 110
2, 71040, Note_on_c, 0, 69, 110
2, 71800, Note_off_c, 0, 75, 100
2, 71800, Note_off_c, 0, 69, 100
2, 71808, Note_on_c, 0, 74, 110
2, 71808, Note_on_c, 0, 70, 110
2, 72184, Note_off_c, 0, 74, 100
2, 72184, Note_off_c, 0, 70, 100
2, 72576, Note_on_c, 0, 69, 110
2, 72576, Note_on_c, 0, 63, 110
2, 73336, Note_off_c, 0, 69, 100
2, 73336, Note_off_c, 0, 63, 100
2, 73344, Note_on_c, 0, 70, 110
2, 73344, Note_on_c, 0, 62, 110
2, 73720, Note_off_c, 0, 70, 100
2, 73720, Note_off_c, 0, 62, 100
2, 74112, Note_on_c, 0, 63, 110
2, 74112, Note_on_c, 0, 57, 110
2, 74872, Note_off_c, 0, 63, 100
2, 74872, Note_off_c, 0, 57, 100
2, 74880, Note_on_c, 0, 62, 110
2, 74880, Note_on_c, 0, 58, 110
2, 75256, Note_off_c, 0, 62, 100
2, 75256, Note_off_c, 0, 58, 100
2, 75264, Note_on_c, 0, 57, 80
2, 75640, Note_off_c, 0, 57, 100
2, 75648, Note_on_c, 0, 58, 80
2, 76024, Note_off_c, 0, 58, 100
2, 76032, Note_on_c, 0, 57, 80
2, 76408, Note_off_c, 0, 57, 100
2, 76416, Note_on_c, 0, 58, 80
2, 76792, Note_off_c, 0, 58, 100
2, 76800, Note_on_c, 0, 57, 80
2, 77176, Note_off_c, 0, 57, 100
2, 77184, Note_on_c, 0, 58, 80
2, 77560, Note_off_c, 0, 58, 100
2, 77568, Note_on_c, 0, 57, 80
2, 77944, Note_off_c, 0, 57, 100
2, 78336, Note_on_c, 0, 46, 80
2, 78712, Note_off_c, 0, 46, 100
2, 78720, Note_on_c, 0, 51, 80
2, 79096, Note_off_c, 0, 51, 100
2, 79104, Note_on_c, 0, 53, 80
2, 79480, Note_off_c, 0, 53, 100
2, 79488, Note_on_c, 0, 54, 80
2, 79864, Note_off_c, 0, 54, 100
2, 79872, Note_on_c, 0, 70, 80
2, 80248, Note_off_c, 0, 70, 100
2, 80256, Note_on_c, 0, 75, 80
2, 80632, Note_off_c, 0, 75, 100
2, 80640, Note_on_c, 0, 77, 80
2, 81016, Note_off_c, 0, 77, 100
2, 81024, Note_on_c, 0, 70, 80
2, 81112, Note_off_c, 0, 70, 100
2, 81120, Note_on_c, 0, 78, 106
2, 82168, Note_off_c, 0, 78, 100
2, 82176, Note_on_c, 0, 75, 80
2, 82552, Note_off_c, 0, 75, 100
2, 82560, Note_on_c, 0, 70, 80
2, 82744, Note_off_c, 0, 70, 100
2, 82752, Note_on_c, 0, 78, 107
2, 83704, Note_off_c, 0, 78, 100
2, 83712, Note_on_c, 0, 75, 80
2, 84088, Note_off_c, 0, 75, 100
2, 84096, Note_on_c, 0, 74, 80
2, 84472, Note_off_c, 0, 74, 100
2, 84480, Note_on_c, 0, 46, 80
2, 84856, Note_off_c, 0, 46, 100
2, 84864, Note_on_c, 0, 53, 80
2, 85240, Note_off_c, 0, 53, 100
2, 85248, Note_on_c, 0, 54, 80
2, 85624, Note_off_c, 0, 54, 100
2, 85632, Note_on_c, 0, 56, 80
2, 86008, Note_off_c, 0, 56, 100
2, 86016, Note_on_c, 0, 70, 80
2, 86392, Note_off_c, 0, 70, 100
2, 86400, Note_on_c, 0, 80, 80
2, 86776, Note_off_c, 0, 80, 100
2, 86784, Note_on_c, 0, 78, 80
2, 87160, Note_off_c, 0, 78, 100
2, 87168, Note_on_c, 0, 78, 80
2, 87256, Note_off_c, 0, 78, 100
2, 87264, Note_on_c, 0, 80, 80
2, 87352, Note_off_c, 0, 80, 100
2, 87360, Note_on_c, 0, 78, 80
2, 87544, Note_off_c, 0, 78, 100
2, 87552, Note_on_c, 0, 77, 80
2, 87928, Note_off_c, 0, 77, 100
2, 87936, Note_on_c, 0, 77, 80
2, 88024, Note_off_c, 0, 77, 100
2, 88032, Note_on_c, 0, 78, 80
2, 88120, Note_off_c, 0, 78, 100
2, 88128, Note_on_c, 0, 77, 80
2, 88312, Note_off_c, 0, 77, 100
2, 88320, Note_on_c, 0, 75, 80
2, 88696, Note_off_c, 0, 75, 100
2, 88704, Note_on_c, 0, 75, 80
2, 88792, Note_off_c, 0, 75, 100
2, 88800, Note_on_c, 0, 77, 80
2, 88888, Note_off_c, 0, 77, 100
2, 88896, Note_on_c, 0, 75, 80
2, 89080, Note_off_c, 0, 75, 100
2, 89088, Note_on_c, 0, 74, 80
2, 89464, Note_off_c, 0, 74, 100
2, 89472, Note_on_c, 0, 72, 80
2, 89848, Note_off_c, 0, 72, 100
2, 89856, Note_on_c, 0, 74, 80
2, 90232, Note_off_c, 0, 74, 100
2, 90240, Note_on_c, 0, 75, 80
2, 90616, Note_off_c, 0, 75, 100
2, 90624, Note_on_c, 0, 46, 80
2, 91000, Note_off_c, 0, 46, 100
2, 91008, Note_on_c, 0, 51, 80
2, 91384, Note_off_c, 0, 51, 100
2, 91392, Note_on_c, 0, 53, 80
2, 91768, Note_off_c, 0, 53, 100
2, 91776, Note_on_c, 0, 54, 80
2, 92152, Note_off_c, 0, 54, 100
2, 92160, Note_on_c, 0, 70, 80
2, 92536, Note_off_c, 0, 70, 100
2, 92544, Note_on_c, 0, 75, 80
2, 92920, Note_off_c, 0, 75, 100
2, 92928, Note_on_c, 0, 77, 80
2, 93304, Note_off_c, 0, 77, 100
2, 93312, Note_on_c, 0, 70, 94
2, 93400, Note_off_c, 0, 70, 100
2, 93408, Note_on_c, 0, 78, 101
2, 94456, Note_off_c, 0, 78, 100
2, 94464, Note_on_c, 0, 75, 80
2, 94840, Note_off_c, 0, 75, 100
2, 94848, Note_on_c, 0, 70, 100
2, 95032, Note_off_c, 0, 70, 100
2, 95040, Note_on_c, 0, 78, 104
2, 95992, Note_off_c, 0, 78, 100
2, 96000, Note_on_c, 0, 75, 80
2, 96376, Note_off_c, 0, 75, 100
2, 96384, Note_on_c, 0, 72, 80
2, 96760, Note_off_c, 0, 72, 100
2, 96768, Note_on_c, 0, 44, 80
2, 97144, Note_off_c, 0, 44, 100
2, 97152, Note_on_c, 0, 51, 80
2, 97528, Note_off_c, 0, 51, 100
2, 97536, Note_on_c, 0, 53, 80
2, 97912, Note_off_c, 0, 53, 100
2, 97920, Note_on_c, 0, 54, 80
2, 98296, Note_off_c, 0, 54, 100
2, 98304, Note_on_c, 0, 68, 80
2, 98680, Note_off_c, 0, 68, 100
2, 98688, Note_on_c, 0, 78, 80
2, 99064, Note_off_c, 0, 78, 100
2, 99072, Note_on_c, 0, 77, 80
2, 99448, Note_off_c, 0, 77, 100
2, 99456, Note_on_c, 0, 77, 80
2, 99544, Note_off_c, 0, 77, 100
2, 99552, Note_on_c, 0, 78, 80
2, 99640, Note_off_c, 0, 78, 100
2, 99648, Note_on_c, 0, 77, 80
2, 99832, Note_off_c, 0, 77, 100
2, 99840, Note_on_c, 0, 75, 80
2, 100216, Note_off_c, 0, 75, 100
2, 100224, Note_on_c, 0, 75, 80
2, 100312, Note_off_c, 0, 75, 100
2, 100320, Note_on_c, 0, 77, 80
2, 100408, Note_off_c, 0, 77, 100
2, 100416, Note_on_c, 0, 75, 80
2, 100600, Note_off_c, 0, 75, 100
2, 100608, Note_on_c, 0, 73, 80
2, 100984, Note_off_c, 0, 73, 100
2, 100992, Note_on_c, 0, 73, 80
2, 101080, Note_off_c, 0, 73, 100
2, 101088, Note_on_c, 0, 75, 80
2, 101176, Note_off_c, 0, 75, 100
2, 101184, Note_on_c, 0, 73, 80
2, 101368, Note_off_c, 0, 73, 100
2, 101376, Note_on_c, 0, 72, 80
2, 101752, Note_off_c, 0, 72, 100
2, 101760, Note_on_c, 0, 70, 80
2, 102136, Note_off_c, 0, 70, 100
2, 102144, Note_on_c, 0, 72, 80
2, 102520, Note_off_c, 0, 72, 100
2, 102528, Note_on_c, 0, 73, 80
2, 102904, Note_off_c, 0, 73, 100
2, 102912, Note_on_c, 0, 44, 80
2, 103288, Note_off_c, 0, 44, 100
2, 103296, Note_on_c, 0, 49, 80
2, 103672, Note_off_c, 0, 49, 100
2, 103680, Note_on_c, 0, 51, 80
2, 104056, Note_off_c, 0, 51, 100
2, 104064, Note_on_c, 0, 53, 80
2, 104440, Note_off_c, 0, 53, 100
2, 104448, Note_on_c, 0, 68, 80
2, 104824, Note_off_c, 0, 68, 100
2, 104832, Note_on_c, 0, 73, 80
2, 105208, Note_off_c, 0, 73, 100
2, 105216, Note_on_c, 0, 75, 80
2, 105592, Note_off_c, 0, 75, 100
2, 105600, Note_on_c, 0, 68, 102
2, 105688, Note_off_c, 0, 68, 100
2, 105696, Note_on_c, 0, 77, 102
2, 106744, Note_off_c, 0, 77, 100
2, 106752, Note_on_c, 0, 73, 80
2, 107128, Note_off_c, 0, 73, 100
2, 107136, Note_on_c, 0, 68, 100
2, 107224, Note_off_c, 0, 68, 100
2, 107232, Note_on_c, 0, 77, 103
2, 108280, Note_off_c, 0, 77, 100
2, 108288, Note_on_c, 0, 73, 80
2, 108664, Note_off_c, 0, 73, 100
2, 108672, Note_on_c, 0, 72, 80
2, 109048, Note_off_c, 0, 72, 100
2, 109056, Note_on_c, 0, 44, 80
2, 109432, Note_off_c, 0, 44, 100
2, 109440, Note_on_c, 0, 51, 80
2, 109816, Note_off_c, 0, 51, 100
2, 109824, Note_on_c, 0, 53, 80
2, 110200, Note_off_c, 0, 53, 100
2, 110208, Note_on_c, 0, 54, 80
2, 110584, Note_off_c, 0, 54, 100
2, 110592, Note_on_c, 0, 68, 80
2, 110968, Note_off_c, 0, 68, 100
2, 110976, Note_on_c, 0, 78, 80
2, 111352, Note_off_c, 0, 78, 100
2, 111360, Note_on_c, 0, 77, 80
2, 111736, Note_off_c, 0, 77, 100
2, 111744, Note_on_c, 0, 77, 80
2, 111832, Note_off_c, 0, 77, 100
2, 111840, Note_on_c, 0, 78, 80
2, 111928, Note_off_c, 0, 78, 100
2, 111936, Note_on_c, 0, 77, 80
2, 112120, Note_off_c, 0, 77, 100
2, 112128, Note_on_c, 0, 75, 80
2, 112504, Note_off_c, 0, 75, 100
2, 112512, Note_on_c, 0, 75, 80
2, 112600, Note_off_c, 0, 75, 100
2, 112608, Note_on_c, 0, 77, 80
2, 112696, Note_off_c, 0, 77, 100
2, 112704, Note_on_c, 0, 75, 80
2, 112888, Note_off_c, 0, 75, 100
2, 112896, Note_on_c, 0, 73, 80
2, 113272, Note_off_c, 0, 73, 100
2, 113280, Note_on_c, 0, 73, 80
2, 113368, Note_off_c, 0, 73, 100
2, 113376, Note_on_c, 0, 75, 80
2, 113464, Note_off_c, 0, 75, 100
2, 113472, Note_on_c, 0, 73, 80
2, 113656, Note_off_c, 0, 73, 100
2, 113664, Note_on_c, 0, 72, 80
2, 114040, Note_off_c, 0, 72, 100
2, 114048, Note_on_c, 0, 70, 80
2, 114424, Note_off_c, 0, 70, 100
2, 114432, Note_on_c, 0, 72, 80
2, 114808, Note_off_c, 0, 72, 100
2, 114816, Note_on_c, 0, 73, 80
2, 115192, Note_off_c, 0, 73, 100
2, 115200, Note_on_c, 0, 49, 90
2, 115576, Note_off_c, 0, 49, 100
2, 115584, Note_on_c, 0, 56, 80
2, 115960, Note_off_c, 0, 56, 100
2, 115968, Note_on_c, 0, 47, 80
2, 116344, Note_off_c, 0, 47, 100
2, 116352, Note_on_c, 0, 46, 80
2, 116728, Note_off_c, 0, 46, 100
2, 116736, Note_on_c, 0, 70, 80
2, 117112, Note_off_c, 0, 70, 100
2, 117120, Note_on_c, 0, 80, 80
2, 117496, Note_off_c, 0, 80, 100
2, 117504, Note_on_c, 0, 78, 80
2, 117880, Note_off_c, 0, 78, 100
2, 117888, Note_on_c, 0, 78, 80
2, 117976, Note_off_c, 0, 78, 100
2, 117984, Note_on_c, 0, 80, 80
2, 118072, Note_off_c, 0, 80, 100
2, 118080, Note_on_c, 0, 78, 80
2, 118264, Note_off_c, 0, 78, 100
2, 118272, Note_on_c, 0, 77, 80
2, 118648, Note_off_c, 0, 77, 100
2, 118656, Note_on_c, 0, 77, 80
2, 118744, Note_off_c, 0, 77, 100
2, 118752, Note_on_c, 0, 78, 80
2, 118840, Note_off_c, 0, 78, 100
2, 118848, Note_on_c, 0, 77, 80
2, 119032, Note_off_c, 0, 77, 100
2, 119040, Note_on_c, 0, 75, 80
2, 119416, Note_off_c, 0, 75, 100
2, 119424, Note_on_c, 0, 75, 80
2, 119512, Note_off_c, 0, 75, 100
2, 119520, Note_on_c, 0, 77, 80
2, 119608, Note_off_c, 0, 77, 100
2, 119616, Note_on_c, 0, 75, 80
2, 119800, Note_off_c, 0, 75, 100
2, 119808, Note_on_c, 0, 74, 80
2, 120184, Note_off_c, 0, 74, 100
2, 120192, Note_on_c, 0, 72, 80
2, 120568, Note_off_c, 0, 72, 100
2, 120576, Note_on_c, 0, 74, 80
2, 120952, Note_off_c, 0, 74, 100
2, 120960, Note_on_c, 0, 75, 80
2, 121336, Note_off_c, 0, 75, 100
2, 121344, Note_on_c, 0, 51, 90
2, 121720, Note_off_c, 0, 51, 100
2, 121728, Note_on_c, 0, 58, 80
2, 122104, Note_off_c, 0, 58, 100
2, 122112, Note_on_c, 0, 49, 80
2, 122488, Note_off_c, 0, 49, 100
2, 122496, Note_on_c, 0, 48, 80
2, 122872, Note_off_c, 0, 48, 100
2, 122880, Note_on_c, 0, 72, 80
2, 123256, Note_off_c, 0, 72, 100
2, 123264, Note_on_c, 0, 82, 80
2, 123640, Note_off_c, 0, 82, 100
2, 123648, Note_on_c, 0, 80, 80
2, 124024, Note_off_c, 0, 80, 100
2, 124032, Note_on_c, 0, 80, 80
2, 124120, Note_off_c, 0, 80, 100
2, 124128, Note_on_c, 0, 82, 80
2, 124216, Note_off_c, 0, 82, 100
2, 124224, Note_on_c, 0, 80, 80
2, 124408, Note_off_c, 0, 80, 100
2, 124416, Note_on_c, 0, 79, 80
2, 124792, Note_off_c, 0, 79, 100
2, 124800, Note_on_c, 0, 79, 80
2, 124888, Note_off_c, 0, 79, 100
2, 124896, Note_on_c, 0, 80, 80
2, 124984, Note_off_c, 0, 80, 100
2, 124992, Note_on_c, 0, 79, 80
2, 125176, Note_off_c, 0, 79, 100
2, 125184, Note_on_c, 0, 77, 80
2, 125560, Note_off_c, 0, 77, 100
2, 125568, Note_on_c, 0, 77, 80
2, 125656, Note_off_c, 0, 77, 100
2, 125664, Note_on_c, 0, 79, 80
2, 125752, Note_off_c, 0, 79, 100
2, 125760, Note_on_c, 0, 77, 80
2, 125944, Note_off_c, 0, 77, 100
2, 125952, Note_on_c, 0, 76, 80
2, 126328, Note_off_c, 0, 76, 100
2, 126336, Note_on_c, 0, 74, 80
2, 126712, Note_off_c, 0, 74, 100
2, 126720, Note_on_c, 0, 76, 80
2, 127096, Note_off_c, 0, 76, 100
2, 127104, Note_on_c, 0, 79, 80
2, 127192, Note_off_c, 0, 79, 100
2, 127200, Note_on_c, 0, 80, 80
2, 127288, Note_off_c, 0, 80, 100
2, 127296, Note_on_c, 0, 79, 80
2, 127480, Note_off_c, 0, 79, 100
2, 127488, Note_on_c, 0, 77, 80
2, 127864, Note_off_c, 0, 77, 100
2, 127872, Note_on_c, 0, 77, 80
2, 127960, Note_off_c, 0, 77, 100
2, 127968, Note_on_c, 0, 79, 80
2, 128056, Note_off_c, 0, 79, 100
2, 128064, Note_on_c, 0, 77, 80
2, 128248, Note_off_c, 0, 77, 100
2, 128256, Note_on_c, 0, 75, 80
2, 128632, Note_off_c, 0, 75, 100
2, 128640, Note_on_c, 0, 75, 80
2, 128728, Note_off_c, 0, 75, 100
2, 128736, Note_on_c, 0, 77, 80
2, 128824, Note_off_c, 0, 77, 100
2, 128832, Note_on_c, 0, 75, 80
2, 129016, Note_off_c, 0, 75, 100
2, 129024, Note_on_c, 0, 74, 80
2, 129400, Note_off_c, 0, 74, 100
2, 129408, Note_on_c, 0, 72, 80
2, 129784, Note_off_c, 0, 72, 100
2, 129792, Note_on_c, 0, 74, 80
2, 130168, Note_off_c, 0, 74, 100
2, 130176, Note_on_c, 0, 77, 80
2, 130264, Note_off_c, 0, 77, 100
2, 130272, Note_on_c, 0, 79, 80
2, 130360, Note_off_c, 0, 79, 100
2, 130368, Note_on_c, 0, 77, 80
2, 130552, Note_off_c, 0, 77, 100
2, 130560, Note_on_c, 0, 75, 80
2, 130936, Note_off_c, 0, 75, 100
2, 130944, Note_on_c, 0, 75, 79
2, 131032, Note_off_c, 0, 75, 100
2, 131040, Note_on_c, 0, 77, 78
2, 131128, Note_off_c, 0, 77, 100
2, 131136, Note_on_c, 0, 75, 78
2, 131320, Note_off_c, 0, 75, 100
2, 131328, Note_on_c, 0, 74, 78
2, 131704, Note_off_c, 0, 74, 100
2, 131712, Note_on_c, 0, 74, 77
2, 131800, Note_off_c, 0, 74, 100
2, 131808, Note_on_c, 0, 75, 77
2, 131896, Note_off_c, 0, 75, 100
2, 131904, Note_on_c, 0, 74, 76
2, 132088, Note_off_c, 0, 74, 100
2, 132096, Note_on_c, 0, 72, 76
2, 132472, Note_off_c, 0, 72, 100
2, 132480, Note_on_c, 0, 72, 75
2, 132568, Note_off_c, 0, 72, 100
2, 132576, Note_on_c, 0, 74, 75
2, 132664, Note_off_c, 0, 74, 100
2, 132672, Note_on_c, 0, 72, 75
2, 132856, Note_off_c, 0, 72, 100
2, 132864, Note_on_c, 0, 71, 74
2, 133240, Note_off_c, 0, 71, 100
2, 133248, Note_on_c, 0, 72, 73
2, 133336, Note_off_c, 0, 72, 100
2, 133344, Note_on_c, 0, 74, 73
2, 133432, Note_off_c, 0, 74, 100
2, 133440, Note_on_c, 0, 72, 73
2, 133624, Note_off_c, 0, 72, 100
2, 133632, Note_on_c, 0, 70, 72
2, 134008, Note_off_c, 0, 70, 100
2, 134016, Note_on_c, 0, 70, 71
2, 134392, Note_off_c, 0, 70, 100
2, 134400, Note_on_c, 0, 70, 71
2, 134776, Note_off_c, 0, 70, 100
2, 134784, Note_on_c, 0, 72, 70
2, 134872, Note_off_c, 0, 72, 100
2, 134880, Note_on_c, 0, 74, 70
2, 134968, Note_off_c, 0, 74, 100
2, 134976, Note_on_c, 0, 72, 70
2, 135160, Note_off_c, 0, 72, 100
2, 135168, Note_on_c, 0, 70, 70
2, 135544, Note_off_c, 0, 70, 100
2, 135552, Note_on_c, 0, 70, 70
2, 135928, Note_off_c, 0, 70, 100
2, 135936, Note_on_c, 0, 70, 70
2, 136312, Note_off_c, 0, 70, 100
2, 136512, Note_on_c, 0, 63, 80
2, 136696, Note_off_c, 0, 63, 100
2, 136704, Note_on_c, 0, 67, 80
2, 136888, Note_off_c, 0, 67, 100
2, 136896, Note_on_c, 0, 63, 80
2, 137080, Note_off_c, 0, 63, 100
2, 137088, Note_on_c, 0, 75, 80
2, 137280, Note_on_c, 0, 63, 80
2, 137464, Note_off_c, 0, 63, 100
2, 137472, Note_on_c, 0, 67, 80
2, 137656, Note_off_c, 0, 67, 100
2, 137664, Note_on_c, 0, 63, 80
2, 137848, Note_off_c, 0, 63, 100
2, 137856, Note_on_c, 0, 67, 80
2, 138040, Note_off_c, 0, 67, 100
2, 138048, Note_on_c, 0, 63, 80
2, 138232, Note_off_c, 0, 63, 100
2, 138240, Note_on_c, 0, 67, 80
2, 138424, Note_off_c, 0, 67, 100
2, 138432, Note_on_c, 0, 63, 80
2, 138616, Note_off_c, 0, 75, 100
2, 138616, Note_off_c, 0, 63, 100
2, 138624, Note_on_c, 0, 75, 80
2, 138816, Note_on_c, 0, 63, 80
2, 139000, Note_off_c, 0, 63, 100
2, 139008, Note_on_c, 0, 67, 80
2, 139192, Note_off_c, 0, 67, 100
2, 139200, Note_on_c, 0, 63, 80
2, 139384, Note_off_c, 0, 75, 100
2, 139384, Note_off_c, 0, 63, 100
2, 139584, Note_on_c, 0, 63, 80
2, 139768, Note_off_c, 0, 63, 100
2, 139776, Note_on_c, 0, 67, 80
2, 139960, Note_off_c, 0, 67, 100
2, 139968, Note_on_c, 0, 63, 80
2, 140152, Note_off_c, 0, 63, 100
2, 140160, Note_on_c, 0, 75, 80
2, 140352, Note_on_c, 0, 63, 80
2, 140536, Note_off_c, 0, 63, 100
2, 140544, Note_on_c, 0, 67, 80
2, 140728, Note_off_c, 0, 67, 100
2, 140736, Note_on_c, 0, 63, 80
2, 140920, Note_off_c, 0, 63, 100
2, 140928, Note_on_c, 0, 67, 80
2, 141112, Note_off_c, 0, 67, 100
2, 141120, Note_on_c, 0, 63, 80
2, 141304, Note_off_c, 0, 63, 100
2, 141312, Note_on_c, 0, 67, 80
2, 141496, Note_off_c, 0, 67, 100
2, 141504, Note_on_c, 0, 63, 80
2, 141688, Note_off_c, 0, 75, 100
2, 141688, Note_off_c, 0, 63, 100
2, 141696, Note_on_c, 0, 75, 80
2, 141888, Note_on_c, 0, 63, 80
2, 142072, Note_off_c, 0, 63, 100
2, 142080, Note_on_c, 0, 67, 80
2, 142264, Note_off_c, 0, 67, 100
2, 142272, Note_on_c, 0, 63, 80
2, 142456, Note_off_c, 0, 75, 100
2, 142456, Note_off_c, 0, 63, 100
2, 142464, Note_on_c, 0, 75, 80
2, 142648, Note_off_c, 0, 75, 100
2, 142656, Note_on_c, 0, 63, 80
2, 142840, Note_off_c, 0, 63, 100
2, 142848, Note_on_c, 0, 68, 81
2, 143032, Note_off_c, 0, 68, 100
2, 143040, Note_on_c, 0, 63, 81
2, 143224, Note_off_c, 0, 63, 100
2, 143232, Note_on_c, 0, 76, 82
2, 143416, Note_off_c, 0, 76, 100
2, 143424, Note_on_c, 0, 64, 83
2, 143608, Note_off_c, 0, 64, 100
2, 143616, Note_on_c, 0, 72, 83
2, 143800, Note_off_c, 0, 72, 100
2, 143808, Note_on_c, 0, 64, 84
2, 143992, Note_off_c, 0, 64, 100
2, 144000, Note_on_c, 0, 77, 85
2, 144184, Note_off_c, 0, 77, 100
2, 144192, Note_on_c, 0, 65, 85
2, 144376, Note_off_c, 0, 65, 100
2, 144384, Note_on_c, 0, 72, 86
2, 144568, Note_off_c, 0, 72, 100
2, 144576, Note_on_c, 0, 65, 87
2, 144760, Note_off_c, 0, 65, 100
2, 144768, Note_on_c, 0, 79, 87
2, 144952, Note_off_c, 0, 79, 100
2, 144960, Note_on_c, 0, 67, 88
2, 145144, Note_off_c, 0, 67, 100
2, 145152, Note_on_c, 0, 72, 88
2, 145336, Note_off_c, 0, 72, 100
2, 145344, Note_on_c, 0, 67, 89
2, 145528, Note_off_c, 0, 67, 100
2, 145536, Note_on_c, 0, 80, 90
2, 145720, Note_off_c, 0, 80, 100
2, 145728, Note_on_c, 0, 68, 90
2, 145912, Note_off_c, 0, 68, 100
2, 145920, Note_on_c, 0, 72, 91
2, 146104, Note_off_c, 0, 72, 100
2, 146112, Note_on_c, 0, 68, 92
2, 146296, Note_off_c, 0, 68, 100
2, 146304, Note_on_c, 0, 81, 92
2, 146488, Note_off_c, 0, 81, 100
2, 146496, Note_on_c, 0, 69, 93
2, 146680, Note_off_c, 0, 69, 100
2, 146688, Note_on_c, 0, 72, 94
2, 146872, Note_off_c, 0, 72, 100
2, 146880, Note_on_c, 0, 69, 94
2, 147064, Note_off_c, 0, 69, 100
2, 147072, Note_on_c, 0, 82, 95
2, 147256, Note_off_c, 0, 82, 100
2, 147264, Note_on_c, 0, 70, 95
2, 147448, Note_off_c, 0, 70, 100
2, 147456, Note_on_c, 0, 77, 96
2, 147640, Note_off_c, 0, 77, 100
2, 147648, Note_on_c, 0, 70, 97
2, 147832, Note_off_c, 0, 70, 100
2, 147840, Note_on_c, 0, 84, 97
2, 148024, Note_off_c, 0, 84, 100
2, 148032, Note_on_c, 0, 72, 98
2, 148216, Note_off_c, 0, 72, 100
2, 148224, Note_on_c, 0, 77, 99
2, 148408, Note_off_c, 0, 77, 100
2, 148416, Note_on_c, 0, 72, 99
2, 148600, Note_off_c, 0, 72, 100
2, 148608, Note_on_c, 0, 85, 100
2, 148792, Note_off_c, 0, 85, 100
2, 148800, Note_on_c, 0, 73, 101
2, 148984, Note_off_c, 0, 73, 100
2, 148992, Note_on_c, 0, 77, 101
2, 149176, Note_off_c, 0, 77, 100
2, 149184, Note_on_c, 0, 73, 102
2, 149368, Note_off_c, 0, 73, 100
2, 149376, Note_on_c, 0, 86, 102
2, 149560, Note_off_c, 0, 86, 100
2, 149568, Note_on_c, 0, 74, 103
2, 149752, Note_off_c, 0, 74, 100
2, 149760, Note_on_c, 0, 77, 104
2, 149944, Note_off_c, 0, 77, 100
2, 149952, Note_on_c, 0, 74, 104
2, 150136, Note_off_c, 0, 74, 100
2, 150144, Note_on_c, 0, 87, 105
2, 150328, Note_off_c, 0, 87, 100
2, 150336, Note_on_c, 0, 75, 106
2, 150520, Note_off_c, 0, 75, 100
2, 150528, Note_on_c, 0, 82, 106
2, 150712, Note_off_c, 0, 82, 100
2, 150720, Note_on_c, 0, 75, 107
2, 150904, Note_off_c, 0, 75, 100
2, 150912, Note_on_c, 0, 83, 108
2, 151096, Note_off_c, 0, 83, 100
2, 151104, Note_on_c, 0, 71, 108
2, 151288, Note_off_c, 0, 71, 100
2, 151296, Note_on_c, 0, 75, 109
2, 151480, Note_off_c, 0, 75, 100
2, 151488, Note_on_c, 0, 71, 109
2, 151672, Note_off_c, 0, 71, 100
2, 151872, Note_on_c, 0, 72, 110
2, 152056, Note_off_c, 0, 72, 100
2, 152064, Note_on_c, 0, 75, 110
2, 152248, Note_off_c, 0, 75, 100
2, 152256, Note_on_c, 0, 72, 110
2, 152440, Note_off_c, 0, 72, 100
2, 152448, Note_on_c, 0, 84, 110
2, 152632, Note_off_c, 0, 84, 100
2, 152640, Note_on_c, 0, 72, 110
2, 152824, Note_off_c, 0, 72, 100
2, 152832, Note_on_c, 0, 75, 110
2, 153016, Note_off_c, 0, 75, 100
2, 153024, Note_on_c, 0, 72, 110
2, 153208, Note_off_c, 0, 72, 100
2, 153408, Note_on_c, 0, 65, 110
2, 153592, Note_off_c, 0, 65, 100
2, 153600, Note_on_c, 0, 68, 110
2, 153784, Note_off_c, 0, 68, 100
2, 153792, Note_on_c, 0, 65, 110
2, 153976, Note_off_c, 0, 65, 100
2, 153984, Note_on_c, 0, 74, 110
2, 154168, Note_off_c, 0, 74, 100
2, 154176, Note_on_c, 0, 65, 110
2, 154360, Note_off_c, 0, 65, 100
2, 154368, Note_on_c, 0, 68, 110
2, 154552, Note_off_c, 0, 68, 100
2, 154560, Note_on_c, 0, 65, 110
2, 154744, Note_off_c, 0, 65, 100
2, 154944, Note_on_c, 0, 63, 80
2, 155128, Note_off_c, 0, 63, 100
2, 155136, Note_on_c, 0, 67, 80
2, 155320, Note_off_c, 0, 67, 100
2, 155328, Note_on_c, 0, 63, 80
2, 155512, Note_off_c, 0, 63, 100
2, 155520, Note_on_c, 0, 75, 80
2, 155712, Note_on_c, 0, 63, 80
2, 155896, Note_off_c, 0, 63, 100
2, 155904, Note_on_c, 0, 67, 80
2, 156088, Note_off_c, 0, 67, 100
2, 156096, Note_on_c, 0, 63, 80
2, 156280, Note_off_c, 0, 63, 100
2, 156288, Note_on_c, 0, 67, 80
2, 156472, Note_off_c, 0, 67, 100
2, 156480, Note_on_c, 0, 63, 80
2, 156664, Note_off_c, 0, 63, 100
2, 156672, Note_on_c, 0, 67, 80
2, 156856, Note_off_c, 0, 67, 100
2, 156864, Note_on_c, 0, 63, 80
2, 157048, Note_off_c, 0, 75, 100
2, 157048, Note_off_c, 0, 63, 100
2, 157056, Note_on_c, 0, 75, 80
2, 157248, Note_on_c, 0, 63, 80
2, 157432, Note_off_c, 0, 63, 100
2, 157440, Note_on_c, 0, 67, 80
2, 157624, Note_off_c, 0, 67, 100
2, 157632, Note_on_c, 0, 63, 80
2, 157816, Note_off_c, 0, 75, 100
2, 157816, Note_off_c, 0, 63, 100
2, 158016, Note_on_c, 0, 63, 80
2, 158200, Note_off_c, 0, 63, 100
2, 158208, Note_on_c, 0, 67, 80
2, 158392, Note_off_c, 0, 67, 100
2, 158400, Note_on_c, 0, 63, 80
2, 158584, Note_off_c, 0, 63, 100
2, 158592, Note_on_c, 0, 75, 80
2, 158784, Note_on_c, 0, 63, 80
2, 158968, Note_off_c, 0, 63, 100
2, 158976, Note_on_c, 0, 67, 80
2, 159160, Note_off_c, 0, 67, 100
2, 159168, Note_on_c, 0, 63, 80
2, 159352, Note_off_c, 0, 63, 100
2, 159360, Note_on_c, 0, 67, 80
2, 159544, Note_off_c, 0, 67, 100
2, 159552, Note_on_c, 0, 63, 80
2, 159736, Note_off_c, 0, 63, 100
2, 159744, Note_on_c, 0, 67, 80
2, 159928, Note_off_c, 0, 67, 100
2, 159936, Note_on_c, 0, 63, 80
2, 160120, Note_off_c, 0, 75, 100
2, 160120, Note_off_c, 0, 63, 100
2, 160128, Note_on_c, 0, 75, 80
2, 160320, Note_on_c, 0, 63, 80
2, 160504, Note_off_c, 0, 63, 100
2, 160512, Note_on_c, 0, 67, 80
2, 160696, Note_off_c, 0, 67, 100
2, 160704, Note_on_c, 0, 63, 80
2, 160888, Note_off_c, 0, 75, 100
2, 160888, Note_off_c, 0, 63, 100
2, 160896, Note_on_c, 0, 75, 80
2, 161080, Note_off_c, 0, 75, 100
2, 161088, Note_on_c, 0, 63, 80
2, 161272, Note_off_c, 0, 63, 100
2, 161280, Note_on_c, 0, 68, 81
2, 161464, Note_off_c, 0, 68, 100
2, 161472, Note_on_c, 0, 63, 81
2, 161656, Note_off_c, 0, 63, 100
2, 161664, Note_on_c, 0, 76, 82
2, 161848, Note_off_c, 0, 76, 100
2, 161856, Note_on_c, 0, 64, 83
2, 162040, Note_off_c, 0, 64, 100
2, 162048, Note_on_c, 0, 72, 83
2, 162232, Note_off_c, 0, 72, 100
2, 162240, Note_on_c, 0, 64, 84
2, 162424, Note_off_c, 0, 64, 100
2, 162432, Note_on_c, 0, 77, 85
2, 162616, Note_off_c, 0, 77, 100
2, 162624, Note_on_c, 0, 65, 85
2, 162808, Note_off_c, 0, 65, 100
2, 162816, Note_on_c, 0, 72, 86
2, 163000, Note_off_c, 0, 72, 100
2, 163008, Note_on_c, 0, 65, 87
2, 163192, Note_off_c, 0, 65, 100
2, 163200, Note_on_c, 0, 79, 87
2, 163384, Note_off_c, 0, 79, 100
2, 163392, Note_on_c, 0, 67, 88
2, 163576, Note_off_c, 0, 67, 100
2, 163584, Note_on_c, 0, 72, 88
2, 163768, Note_off_c, 0, 72, 100
2, 163776, Note_on_c, 0, 67, 89
2, 163960, Note_off_c, 0, 67, 100
2, 163968, Note_on_c, 0, 80, 90
2, 164152, Note_off_c, 0, 80, 100
2, 164160, Note_on_c, 0, 68, 90
2, 164344, Note_off_c, 0, 68, 100
2, 164352, Note_on_c, 0, 72, 91
2, 164536, Note_off_c, 0, 72, 100
2, 164544, Note_on_c, 0, 68, 92
2, 164728, Note_off_c, 0, 68, 100
2, 164736, Note_on_c, 0, 81, 92
2, 164920, Note_off_c, 0, 81, 100
2, 164928, Note_on_c, 0, 69, 93
2, 165112, Note_off_c, 0, 69, 100
2, 165120, Note_on_c, 0, 72, 94
2, 165304, Note_off_c, 0, 72, 100
2, 165312, Note_on_c, 0, 69, 94
2, 165496, Note_off_c, 0, 69, 100
2, 165504, Note_on_c, 0, 82, 95
2, 165688, Note_off_c, 0, 82, 100
2, 165696, Note_on_c, 0, 70, 95
2, 165880, Note_off_c, 0, 70, 100
2, 165888, Note_on_c, 0, 77, 96
2, 166072, Note_off_c, 0, 77, 100
2, 166080, Note_on_c, 0, 70, 97
2, 166264, Note_off_c, 0, 70, 100
2, 166272, Note_on_c, 0, 84, 97
2, 166456, Note_off_c, 0, 84, 100
2, 166464, Note_on_c, 0, 72, 98
2, 166648, Note_off_c, 0, 72, 100
2, 166656, Note_on_c, 0, 77, 99
2, 166840, Note_off_c, 0, 77, 100
2, 166848, Note_on_c, 0, 72, 99
2, 167032, Note_off_c, 0, 72, 100
2, 167040, Note_on_c, 0, 85, 100
2, 167224, Note_off_c, 0, 85, 100
2, 167232, Note_on_c, 0, 73, 101
2, 167416, Note_off_c, 0, 73, 100
2, 167424, Note_on_c, 0, 77, 101
2, 167608, Note_off_c, 0, 77, 100
2, 167616, Note_on_c, 0, 73, 102
2, 167800, Note_off_c, 0, 73, 100
2, 167808, Note_on_c, 0, 86, 102
2, 167992, Note_off_c, 0, 86, 100
2, 168000, Note_on_c, 0, 74, 103
2, 168184, Note_off_c, 0, 74, 100
2, 168192, Note_on_c, 0, 77, 104
2, 168376, Note_off_c, 0, 77, 100
2, 168384, Note_on_c, 0, 74, 104
2, 168568, Note_off_c, 0, 74, 100
2, 168576, Note_on_c, 0, 87, 105
2, 168760, Note_off_c, 0, 87, 100
2, 168768, Note_on_c, 0, 75, 106
2, 168952, Note_off_c, 0, 75, 100
2, 168960, Note_on_c, 0, 82, 106
2, 169144, Note_off_c, 0, 82, 100
2, 169152, Note_on_c, 0, 75, 107
2, 169336, Note_off_c, 0, 75, 100
2, 169344, Note_on_c, 0, 88, 108
2, 169528, Note_off_c, 0, 88, 100
2, 169536, Note_on_c, 0, 76, 108
2, 169720, Note_off_c, 0, 76, 100
2, 169728, Note_on_c, 0, 82, 109
2, 169912, Note_off_c, 0, 82, 100
2, 169920, Note_on_c, 0, 76, 109
2, 170104, Note_off_c, 0, 76, 100
2, 170304, Note_on_c, 0, 80, 110
2, 170488, Note_off_c, 0, 80, 100
2, 170496, Note_on_c, 0, 84, 110
2, 170680, Note_off_c, 0, 84, 100
2, 170688, Note_on_c, 0, 80, 110
2, 170872, Note_off_c, 0, 80, 100
2, 170880, Note_on_c, 0, 89, 110
2, 171064, Note_off_c, 0, 89, 100
2, 171072, Note_on_c, 0, 80, 110
2, 171256, Note_off_c, 0, 80, 100
2, 171264, Note_on_c, 0, 84, 110
2, 171448, Note_off_c, 0, 84, 100
2, 171456, Note_on_c, 0, 80, 110
2, 171640, Note_off_c, 0, 80, 100
2, 171840, Note_on_c, 0, 77, 110
2, 172024, Note_off_c, 0, 77, 100
2, 172032, Note_on_c, 0, 80, 110
2, 172216, Note_off_c, 0, 80, 100
2, 172224, Note_on_c, 0, 77, 110
2, 172408, Note_off_c, 0, 77, 100
2, 172416, Note_on_c, 0, 86, 110
2, 172600, Note_off_c, 0, 86, 100
2, 172608, Note_on_c, 0, 77, 110
2, 172792, Note_off_c, 0, 77, 100
2, 172800, Note_on_c, 0, 80, 110
2, 172984, Note_off_c, 0, 80, 100
2, 172992, Note_on_c, 0, 77, 110
2, 173176, Note_off_c, 0, 77, 100
2, 173184, Note_on_c, 0, 79, 110
2, 173560, Note_off_c, 0, 79, 100
2, 173568, Note_on_c, 0, 87, 80
2, 174328, Note_off_c, 0, 87, 100
2, 174336, Note_on_c, 0, 86, 80
2, 174520, Note_off_c, 0, 86, 100
2, 174528, Note_on_c, 0, 87, 80
2, 174712, Note_off_c, 0, 87, 100
2, 174720, Note_on_c, 0, 89, 80
2, 174904, Note_off_c, 0, 89, 100
2, 174912, Note_on_c, 0, 87, 80
2, 175096, Note_off_c, 0, 87, 100
2, 175104, Note_on_c, 0, 86, 80
2, 175288, Note_off_c, 0, 86, 100
2, 175296, Note_on_c, 0, 84, 80
2, 175480, Note_off_c, 0, 84, 100
2, 175488, Note_on_c, 0, 83, 80
2, 175672, Note_off_c, 0, 83, 100
2, 175680, Note_on_c, 0, 84, 80
2, 175864, Note_off_c, 0, 84, 100
2, 175872, Note_on_c, 0, 86, 80
2, 176056, Note_off_c, 0, 86, 100
2, 176064, Note_on_c, 0, 84, 80
2, 176248, Note_off_c, 0, 84, 100
2, 176256, Note_on_c, 0, 82, 80
2, 176440, Note_off_c, 0, 82, 100
2, 176448, Note_on_c, 0, 80, 80
2, 176632, Note_off_c, 0, 80, 100
2, 176640, Note_on_c, 0, 79, 80
2, 176824, Note_off_c, 0, 79, 100
2, 176832, Note_on_c, 0, 77, 80
2, 177016, Note_off_c, 0, 77, 100
2, 177024, Note_on_c, 0, 76, 80
2, 177208, Note_off_c, 0, 76, 100
2, 177216, Note_on_c, 0, 77, 80
2, 177400, Note_off_c, 0, 77, 100
2, 177408, Note_on_c, 0, 79, 80
2, 177592, Note_off_c, 0, 79, 100
2, 177600, Note_on_c, 0, 77, 80
2, 177784, Note_off_c, 0, 77, 100
2, 177792, Note_on_c, 0, 75, 80
2, 177976, Note_off_c, 0, 75, 100
2, 177984, Note_on_c, 0, 74, 80
2, 178168, Note_off_c, 0, 74, 100
2, 178176, Note_on_c, 0, 72, 80
2, 178360, Note_off_c, 0, 72, 100
2, 178368, Note_on_c, 0, 70, 80
2, 178552, Note_off_c, 0, 70, 100
2, 178560, Note_on_c, 0, 69, 80
2, 178744, Note_off_c, 0, 69, 100
2, 178752, Note_on_c, 0, 70, 80
2, 178936, Note_off_c, 0, 70, 100
2, 178944, Note_on_c, 0, 72, 80
2, 179128, Note_off_c, 0, 72, 100
2, 179136, Note_on_c, 0, 68, 80
2, 179320, Note_off_c, 0, 68, 100
2, 179328, Note_on_c, 0, 67, 80
2, 179704, Note_off_c, 0, 67, 100
2, 179712, Note_on_c, 0, 87, 110
2, 179712, Note_on_c, 0, 75, 110
2, 180472, Note_off_c, 0, 87, 100
2, 180472, Note_off_c, 0, 75, 100
2, 180480, Note_on_c, 0, 86, 85
2, 180664, Note_off_c, 0, 86, 100
2, 180672, Note_on_c, 0, 87, 86
2, 180856, Note_off_c, 0, 87, 100
2, 180864, Note_on_c, 0, 89, 87
2, 181048, Note_off_c, 0, 89, 100
2, 181056, Note_on_c, 0, 87, 88
2, 181240, Note_off_c, 0, 87, 100
2, 181248, Note_on_c, 0, 86, 89
2, 181432, Note_off_c, 0, 86, 100
2, 181440, Note_on_c, 0, 84, 90
2, 181624, Note_off_c, 0, 84, 100
2, 181632, Note_on_c, 0, 83, 91
2, 181816, Note_off_c, 0, 83, 100
2, 181824, Note_on_c, 0, 84, 92
2, 182008, Note_off_c, 0, 84, 100
2, 182016, Note_on_c, 0, 86, 93
2, 182200, Note_off_c, 0, 86, 100
2, 182208, Note_on_c, 0, 84, 94
2, 182392, Note_off_c, 0, 84, 100
2, 182400, Note_on_c, 0, 82, 95
2, 182584, Note_off_c, 0, 82, 100
2, 182592, Note_on_c, 0, 80, 96
2, 182776, Note_off_c, 0, 80, 100
2, 182784, Note_on_c, 0, 79, 97
2, 182968, Note_off_c, 0, 79, 100
2, 182976, Note_on_c, 0, 77, 98
2, 183160, Note_off_c, 0, 77, 100
2, 183168, Note_on_c, 0, 76, 99
2, 183352, Note_off_c, 0, 76, 100
2, 183360, Note_on_c, 0, 77, 100
2, 183544, Note_off_c, 0, 77, 100
2, 183552, Note_on_c, 0, 79, 101
2, 183736, Note_off_c, 0, 79, 100
2, 183744, Note_on_c, 0, 77, 102
2, 183928, Note_off_c, 0, 77, 100
2, 183936, Note_on_c, 0, 75, 103
2, 184120, Note_off_c, 0, 75, 100
2, 184128, Note_on_c, 0, 74, 104
2, 184312, Note_off_c, 0, 74, 100
2, 184320, Note_on_c, 0, 72, 105
2, 184504, Note_off_c, 0, 72, 100
2, 184512, Note_on_c, 0, 70, 106
2, 184696, Note_off_c, 0, 70, 100
2, 184704, Note_on_c, 0, 69, 107
2, 184888, Note_off_c, 0, 69, 100
2, 184896, Note_on_c, 0, 70, 108
2, 185080, Note_off_c, 0, 70, 100
2, 185088, Note_on_c, 0, 72, 108
2, 185272, Note_off_c, 0, 72, 100
2, 185280, Note_on_c, 0, 70, 109
2, 185464, Note_off_c, 0, 70, 100
2, 185472, Note_on_c, 0, 75, 110
2, 185848, Note_off_c, 0, 75, 100
2, 185856, Note_on_c, 0, 63, 110
2, 186616, Note_off_c, 0, 63, 100
2, 186624, Note_on_c, 0, 67, 110
2, 186624, Note_on_c, 0, 61, 110
2, 187000, Note_off_c, 0, 67, 100
2, 187000, Note_off_c, 0, 61, 100
2, 187008, Note_on_c, 0, 68, 110
2, 187008, Note_on_c, 0, 60, 110
2, 187384, Note_off_c, 0, 68, 100
2, 187384, Note_off_c, 0, 60, 100
2, 187392, Note_on_c, 0, 70, 110
2, 187392, Note_on_c, 0, 67, 110
2, 187768, Note_off_c, 0, 70, 100
2, 187768, Note_off_c, 0, 67, 100
2, 187776, Note_on_c, 0, 72, 110
2, 187776, Note_on_c, 0, 68, 110
2, 188152, Note_off_c, 0, 72, 100
2, 188152, Note_off_c, 0, 68, 100
2, 188160, Note_on_c, 0, 74, 110
2, 188160, Note_on_c, 0, 68, 110
2, 188536, Note_off_c, 0, 74, 100
2, 188536, Note_off_c, 0, 68, 100
2, 188544, Note_on_c, 0, 75, 110
2, 188544, Note_on_c, 0, 70, 110
2, 188920, Note_off_c, 0, 75, 100
2, 188920, Note_off_c, 0, 70, 100
2, 188928, Note_on_c, 0, 75, 110
2, 189688, Note_off_c, 0, 75, 100
2, 189696, Note_on_c, 0, 79, 110
2, 189696, Note_on_c, 0, 73, 110
2, 190072, Note_off_c, 0, 79, 100
2, 190072, Note_off_c, 0, 73, 100
2, 190080, Note_on_c, 0, 80, 110
2, 190080, Note_on_c, 0, 72, 110
2, 190456, Note_off_c, 0, 80, 100
2, 190456, Note_off_c, 0, 72, 100
2, 190464, Note_on_c, 0, 82, 110
2, 190464, Note_on_c, 0, 79, 110
2, 190840, Note_off_c, 0, 82, 100
2, 190840, Note_off_c, 0, 79, 100
2, 190848, Note_on_c, 0, 84, 110
2, 190848, Note_on_c, 0, 80, 110
2, 191224, Note_off_c, 0, 84, 100
2, 191224, Note_off_c, 0, 80, 100
2, 191232, Note_on_c, 0, 86, 110
2, 191232, Note_on_c, 0, 80, 110
2, 191608, Note_off_c, 0, 86, 100
2, 191608, Note_off_c, 0, 80, 100
2, 191616, Note_on_c, 0, 79, 110
2, 191616, Note_on_c, 0, 87, 110
2, 193144, Note_off_c, 0, 79, 100
2, 193144, Note_off_c, 0, 87, 100
2, 193152, Note_on_c, 0, 75, 110
2, 193152, Note_on_c, 0, 67, 110
2, 194680, Note_off_c, 0, 75, 100
2, 194680, Note_off_c, 0, 67, 100
2, 194688, Note_on_c, 0, 79, 110
2, 194688, Note_on_c, 0, 87, 110
2, 196216, Note_off_c, 0, 79, 100
2, 196216, Note_off_c, 0, 87, 100
2, 196224, Note_on_c, 0, 75, 110
2, 196224, Note_on_c, 0, 67, 110
2, 197752, Note_off_c, 0, 75, 100
2, 197752, Note_off_c, 0, 67, 100
2, 197760, Note_on_c, 0, 87, 110
2, 197760, Note_on_c, 0, 84, 110
2, 199288, Note_off_c, 0, 87, 100
2, 199288, Note_off_c, 0, 84, 100
2, 199296, Note_on_c, 0, 75, 110
2, 199296, Note_on_c, 0, 72, 110
2, 200824, Note_off_c, 0, 75, 100
2, 200824, Note_off_c, 0, 72, 100
2, 200832, Note_on_c, 0, 86, 120
2, 200832, Note_on_c, 0, 84, 120
2, 200832, Note_on_c, 0, 81, 120
2, 202360, Note_off_c, 0, 86, 100
2, 202360, Note_off_c, 0, 84, 100
2, 202360, Note_off_c, 0, 81, 100
2, 202368, Note_on_c, 0, 62, 120
2, 202368, Note_on_c, 0, 59, 120
2, 202368, Note_on_c, 0, 53, 120
2, 205432, Note_off_c, 0, 53, 100
2, 205432, Note_off_c, 0, 59, 100
2, 205432, Note_off_c, 0, 62, 100
2, 205440, Note_on_c, 0, 60, 80
2, 206584, Note_off_c, 0, 60, 100
2, 206592, Note_on_c, 0, 64, 80
2, 206592, Note_on_c, 0, 58, 80
2, 206968, Note_off_c, 0, 64, 100
2, 206968, Note_off_c, 0, 58, 100
2, 206976, Note_on_c, 0, 65, 80
2, 206976, Note_on_c, 0, 56, 80
2, 207352, Note_off_c, 0, 65, 100
2, 207352, Note_off_c, 0, 56, 100
2, 207360, Note_on_c, 0, 67, 80
2, 207360, Note_on_c, 0, 64, 80
2, 207736, Note_off_c, 0, 67, 100
2, 207736, Note_off_c, 0, 64, 100
2, 207744, Note_on_c, 0, 68, 80
2, 207744, Note_on_c, 0, 65, 80
2, 208120, Note_off_c, 0, 68, 100
2, 208120, Note_off_c, 0, 65, 100
2, 208128, Note_on_c, 0, 71, 80
2, 208128, Note_on_c, 0, 62, 80
2, 208504, Note_off_c, 0, 71, 100
2, 208504, Note_off_c, 0, 62, 100
2, 208512, Note_on_c, 0, 72, 80
2, 208512, Note_on_c, 0, 63, 80
2, 208888, Note_off_c, 0, 72, 100
2, 208888, Note_off_c, 0, 63, 100
2, 208896, Note_on_c, 0, 72, 100
2, 208896, Note_on_c, 0, 64, 100
2, 209656, Note_off_c, 0, 72, 100
2, 209656, Note_off_c, 0, 64, 100
2, 209664, Note_on_c, 0, 76, 80
2, 209664, Note_on_c, 0, 70, 80
2, 210040, Note_off_c, 0, 76, 100
2, 210040, Note_off_c, 0, 70, 100
2, 210048, Note_on_c, 0, 77, 80
2, 210048, Note_on_c, 0, 68, 80
2, 210424, Note_off_c, 0, 77, 100
2, 210424, Note_off_c, 0, 68, 100
2, 210432, Note_on_c, 0, 79, 80
2, 210432, Note_on_c, 0, 76, 80
2, 210808, Note_off_c, 0, 79, 100
2, 210808, Note_off_c, 0, 76, 100
2, 210816, Note_on_c, 0, 80, 80
2, 210816, Note_on_c, 0, 77, 80
2, 211192, Note_off_c, 0, 80, 100
2, 211192, Note_off_c, 0, 77, 100
2, 211200, Note_on_c, 0, 83, 80
2, 211200, Note_on_c, 0, 74, 80
2, 211576, Note_off_c, 0, 83, 100
2, 211576, Note_off_c, 0, 74, 100
2, 211584, Note_on_c, 0, 84, 80
2, 211584, Note_on_c, 0, 79, 80
2, 211584, Note_on_c, 0, 75, 80
2, 211584, Note_on_c, 0, 72, 80
2, 212344, Note_off_c, 0, 84, 100
2, 212344, Note_off_c, 0, 79, 100
2, 212344, Note_off_c, 0, 75, 100
2, 212344, Note_off_c, 0, 72, 100
2, 212352, Note_on_c, 0, 79, 85
2, 212352, Note_on_c, 0, 77, 85
2, 212352, Note_on_c, 0, 71, 85
2, 212352, Note_on_c, 0, 67, 85
2, 213112, Note_off_c, 0, 79, 100
2, 213112, Note_off_c, 0, 77, 100
2, 213112, Note_off_c, 0, 71, 100
2, 213112, Note_off_c, 0, 67, 100
2, 213120, Note_on_c, 0, 75, 90
2, 213120, Note_on_c, 0, 72, 90
2, 213120, Note_on_c, 0, 67, 90
2, 213880, Note_off_c, 0, 75, 100
2, 213880, Note_off_c, 0, 72, 100
2, 213880, Note_off_c, 0, 67, 100
2, 213888, Note_on_c, 0, 74, 95
2, 213888, Note_on_c, 0, 68, 95
2, 213888, Note_on_c, 0, 65, 95
2, 214648, Note_off_c, 0, 74, 100
2, 214648, Note_off_c, 0, 68, 100
2, 214648, Note_off_c, 0, 65, 100
2, 214656, Note_on_c, 0, 67, 100
2, 214656, Note_on_c, 0, 72, 100
2, 214656, Note_on_c, 0, 63, 100
2, 215416, Note_off_c, 0, 67, 100
2, 215424, Note_on_c, 0, 66, 106
2, 216184, Note_off_c, 0, 66, 100
2, 216192, Note_on_c, 0, 69, 110
2, 216952, Note_off_c, 0, 63, 100
2, 216952, Note_off_c, 0, 72, 100
2, 216952, Note_off_c, 0, 69, 100
2, 216960, Note_on_c, 0, 71, 110
2, 216960, Note_on_c, 0, 65, 110
2, 216960, Note_on_c, 0, 62, 110
2, 217720, Note_off_c, 0, 71, 100
2, 217720, Note_off_c, 0, 65, 100
2, 217720, Note_off_c, 0, 62, 100
2, 217728, Note_on_c, 0, 72, 110
2, 217728, Note_on_c, 0, 63, 110
2, 217728, Note_on_c, 0, 60, 110
2, 218104, Note_off_c, 0, 72, 100
2, 218104, Note_off_c, 0, 63, 100
2, 218104, Note_off_c, 0, 60, 100
2, 218112, Note_on_c, 0, 60, 80
2, 218872, Note_off_c, 0, 60, 100
2, 218880, Note_on_c, 0, 64, 80
2, 218880, Note_on_c, 0, 58, 80
2, 219256, Note_off_c, 0, 64, 100
2, 219256, Note_off_c, 0, 58, 100
2, 219264, Note_on_c, 0, 65, 80
2, 219264, Note_on_c, 0, 56, 80
2, 219640, Note_off_c, 0, 65, 100
2, 219640, Note_off_c, 0, 56, 100
2, 219648, Note_on_c, 0, 67, 80
2, 219648, Note_on_c, 0, 64, 80
2, 220024, Note_off_c, 0, 67, 100
2, 220024, Note_off_c, 0, 64, 100
2, 220032, Note_on_c, 0, 68, 80
2, 220032, Note_on_c, 0, 65, 80
2, 220408, Note_off_c, 0, 68, 100
2, 220408, Note_off_c, 0, 65, 100
2, 220416, Note_on_c, 0, 71, 80
2, 220416, Note_on_c, 0, 62, 80
2, 220792, Note_off_c, 0, 71, 100
2, 220792, Note_off_c, 0, 62, 100
2, 220800, Note_on_c, 0, 72, 80
2, 220800, Note_on_c, 0, 63, 80
2, 221176, Note_off_c, 0, 72, 100
2, 221176, Note_off_c, 0, 63, 100
2, 221184, Note_on_c, 0, 72, 100
2, 221184, Note_on_c, 0, 64, 100
2, 221944, Note_off_c, 0, 72, 100
2, 221944, Note_off_c, 0, 64, 100
2, 221952, Note_on_c, 0, 76, 80
2, 221952, Note_on_c, 0, 70, 80
2, 222328, Note_off_c, 0, 76, 100
2, 222328, Note_off_c, 0, 70, 100
2, 222336, Note_on_c, 0, 77, 80
2, 222336, Note_on_c, 0, 68, 80
2, 222712, Note_off_c, 0, 77, 100
2, 222712, Note_off_c, 0, 68, 100
2, 222720, Note_on_c, 0, 79, 80
2, 222720, Note_on_c, 0, 76, 80
2, 223096, Note_off_c, 0, 79, 100
2, 223096, Note_off_c, 0, 76, 100
2, 223104, Note_on_c, 0, 80, 80
2, 223104, Note_on_c, 0, 77, 80
2, 223480, Note_off_c, 0, 80, 100
2, 223480, Note_off_c, 0, 77, 100
2, 223488, Note_on_c, 0, 83, 80
2, 223488, Note_on_c, 0, 74, 80
2, 223864, Note_off_c, 0, 83, 100
2, 223864, Note_off_c, 0, 74, 100
2, 223872, Note_on_c, 0, 84, 80
2, 223872, Note_on_c, 0, 79, 80
2, 223872, Note_on_c, 0, 75, 80
2, 223872, Note_on_c, 0, 72, 80
2, 224632, Note_off_c, 0, 84, 100
2, 224632, Note_off_c, 0, 79, 100
2, 224632, Note_off_c, 0, 75, 100
2, 224632, Note_off_c, 0, 72, 100
2, 224640, Note_on_c, 0, 79, 85
2, 224640, Note_on_c, 0, 77, 85
2, 224640, Note_on_c, 0, 71, 85
2, 224640, Note_on_c, 0, 67, 85
2, 225400, Note_off_c, 0, 79, 100
2, 225400, Note_off_c, 0, 77, 100
2, 225400, Note_off_c, 0, 71, 100
2, 225400, Note_off_c, 0, 67, 100
2, 225408, Note_on_c, 0, 75, 90
2, 225408, Note_on_c, 0, 72, 90
2, 225408, Note_on_c, 0, 67, 90
2, 226168, Note_off_c, 0, 75, 100
2, 226168, Note_off_c, 0, 72, 100
2, 226168, Note_off_c, 0, 67, 100
2, 226176, Note_on_c, 0, 74, 95
2, 226176, Note_on_c, 0, 68, 95
2, 226176, Note_on_c, 0, 65, 95
2, 226936, Note_off_c, 0, 74, 100
2, 226936, Note_off_c, 0, 68, 100
2, 226936, Note_off_c, 0, 65, 100
2, 226944, Note_on_c, 0, 67, 100
2, 226944, Note_on_c, 0, 72, 100
2, 226944, Note_on_c, 0, 63, 100
2, 227704, Note_off_c, 0, 67, 100
2, 227712, Note_on_c, 0, 66, 106
2, 228472, Note_off_c, 0, 66, 100
2, 228480, Note_on_c, 0, 69, 110
2, 230008, Note_off_c, 0, 63, 100
2, 230008, Note_off_c, 0, 72, 100
2, 230008, Note_off_c, 0, 69, 100
2, 230016, Note_on_c, 0, 71, 80
2, 230016, Note_on_c, 0, 67, 80
2, 230016, Note_on_c, 0, 62, 80
2, 230392, Note_off_c, 0, 71, 100
2, 230392, Note_off_c, 0, 67, 100
2, 230392, Note_off_c, 0, 62, 100
2, 230784, Note_on_c, 0, 79, 110
2, 230784, Note_on_c, 0, 67, 110
2, 231928, Note_off_c, 0, 67, 100
2, 231928, Note_off_c, 0, 79, 100
2, 232320, Note_on_c, 0, 79, 110
2, 232320, Note_on_c, 0, 67, 110
2, 233272, Note_off_c, 0, 67, 100
2, 233272, Note_off_c, 0, 79, 100
2, 233280, Note_on_c, 0, 77, 80
2, 233464, Note_off_c, 0, 77, 100
2, 233472, Note_on_c, 0, 74, 80
2, 233656, Note_off_c, 0, 74, 100
2, 233664, Note_on_c, 0, 71, 80
2, 233848, Note_off_c, 0, 71, 100
2, 233856, Note_on_c, 0, 67, 80
2, 234040, Note_off_c, 0, 67, 100
2, 234048, Note_on_c, 0, 65, 80
2, 234232, Note_off_c, 0, 65, 100
2, 234240, Note_on_c, 0, 62, 80
2, 234424, Note_off_c, 0, 62, 100
2, 234432, Note_on_c, 0, 59, 80
2, 234616, Note_off_c, 0, 59, 100
2, 234624, Note_on_c, 0, 60, 80
2, 234808, Note_off_c, 0, 60, 100
2, 234816, Note_on_c, 0, 63, 80
2, 235000, Note_off_c, 0, 63, 100
2, 235008, Note_on_c, 0, 60, 80
2, 235192, Note_off_c, 0, 60, 100
2, 235200, Note_on_c, 0, 55, 80
2, 235384, Note_off_c, 0, 55, 100
2, 235392, Note_on_c, 0, 54, 80
2, 235576, Note_off_c, 0, 54, 100
2, 235584, Note_on_c, 0, 60, 80
2, 235768, Note_off_c, 0, 60, 100
2, 235776, Note_on_c, 0, 56, 80
2, 235960, Note_off_c, 0, 56, 100
2, 235968, Note_on_c, 0, 54, 80
2, 236152, Note_off_c, 0, 54, 100
2, 236160, Note_on_c, 0, 55, 80
2, 236536, Note_off_c, 0, 55, 100
2, 236928, Note_on_c, 0, 79, 110
2, 236928, Note_on_c, 0, 67, 110
2, 238072, Note_off_c, 0, 67, 100
2, 238072, Note_off_c, 0, 79, 100
2, 238464, Note_on_c, 0, 79, 110
2, 238464, Note_on_c, 0, 67, 110
2, 239416, Note_off_c, 0, 67, 100
2, 239416, Note_off_c, 0, 79, 100
2, 239424, Note_on_c, 0, 77, 80
2, 239608, Note_off_c, 0, 77, 100
2, 239616, Note_on_c, 0, 74, 80
2, 239800, Note_off_c, 0, 74, 100
2, 239808, Note_on_c, 0, 71, 80
2, 239992, Note_off_c, 0, 71, 100
2, 240000, Note_on_c, 0, 67, 80
2, 240184, Note_off_c, 0, 67, 100
2, 240192, Note_on_c, 0, 65, 80
2, 240376, Note_off_c, 0, 65, 100
2, 240384, Note_on_c, 0, 62, 80
2, 240568, Note_off_c, 0, 62, 100
2, 240576, Note_on_c, 0, 59, 80
2, 240760, Note_off_c, 0, 59, 100
2, 240768, Note_on_c, 0, 60, 80
2, 240952, Note_off_c, 0, 60, 100
2, 240960, Note_on_c, 0, 63, 80
2, 241144, Note_off_c, 0, 63, 100
2, 241152, Note_on_c, 0, 60, 80
2, 241336, Note_off_c, 0, 60, 100
2, 241344, Note_on_c, 0, 55, 80
2, 241528, Note_off_c, 0, 55, 100
2, 241536, Note_on_c, 0, 54, 80
2, 241720, Note_off_c, 0, 54, 100
2, 241728, Note_on_c, 0, 60, 80
2, 241912, Note_off_c, 0, 60, 100
2, 241920, Note_on_c, 0, 56, 80
2, 242104, Note_off_c, 0, 56, 100
2, 242112, Note_on_c, 0, 54, 80
2, 242296, Note_off_c, 0, 54, 100
2, 242304, Note_on_c, 0, 55, 80
2, 242680, Note_off_c, 0, 55, 100
2, 242688, Note_on_c, 0, 66, 84
2, 243064, Note_off_c, 0, 66, 100
2, 243072, Note_on_c, 0, 67, 88
2, 243448, Note_off_c, 0, 67, 100
2, 243456, Note_on_c, 0, 72, 92
2, 243456, Note_on_c, 0, 66, 92
2, 243832, Note_off_c, 0, 72, 100
2, 243832, Note_off_c, 0, 66, 100
2, 243840, Note_on_c, 0, 71, 97
2, 243840, Note_on_c, 0, 67, 97
2, 244216, Note_off_c, 0, 71, 100
2, 244216, Note_off_c, 0, 67, 100
2, 244224, Note_on_c, 0, 78, 101
2, 244224, Note_on_c, 0, 72, 101
2, 244600, Note_off_c, 0, 78, 100
2, 244600, Note_off_c, 0, 72, 100
2, 244608, Note_on_c, 0, 71, 105
2, 244608, Note_on_c, 0, 79, 105
2, 244984, Note_off_c, 0, 71, 100
2, 244984, Note_off_c, 0, 79, 100
2, 244992, Note_on_c, 0, 84, 109
2, 244992, Note_on_c, 0, 78, 109
2, 245368, Note_off_c, 0, 84, 100
2, 245368, Note_off_c, 0, 78, 100
2, 245376, Note_on_c, 0, 79, 110
2, 245376, Note_on_c, 0, 83, 110
2, 245752, Note_off_c, 0, 79, 100
2, 245752, Note_off_c, 0, 83, 100
2, 246912, Note_on_c, 0, 61, 110
2, 246912, Note_on_c, 0, 58, 110
2, 246912, Note_on_c, 0, 63, 110
2, 248440, Note_off_c, 0, 61, 100
2, 248440, Note_off_c, 0, 58, 100
2, 248448, Note_on_c, 0, 60, 80
2, 248824, Note_off_c, 0, 63, 100
2, 248824, Note_off_c, 0, 60, 100
2, 248832, Note_on_c, 0, 73, 83
2, 248832, Note_on_c, 0, 67, 83
2, 249208, Note_off_c, 0, 73, 100
2, 249208, Note_off_c, 0, 67, 100
2, 249216, Note_on_c, 0, 72, 87
2, 249216, Note_on_c, 0, 68, 87
2, 249592, Note_off_c, 0, 72, 100
2, 249592, Note_off_c, 0, 68, 100
2, 249600, Note_on_c, 0, 73, 91
2, 249600, Note_on_c, 0, 79, 91
2, 249976, Note_off_c, 0, 73, 100
2, 249976, Note_off_c, 0, 79, 100
2, 249984, Note_on_c, 0, 80, 95
2, 249984, Note_on_c, 0, 72, 95
2, 250360, Note_off_c, 0, 80, 100
2, 250360, Note_off_c, 0, 72, 100
2, 250368, Note_on_c, 0, 79, 99
2, 250368, Note_on_c, 0, 85, 99
2, 250744, Note_off_c, 0, 79, 100
2, 250744, Note_off_c, 0, 85, 100
2, 250752, Note_on_c, 0, 80, 103
2, 250752, Note_on_c, 0, 84, 103
2, 251128, Note_off_c, 0, 80, 100
2, 251128, Note_off_c, 0, 84, 100
2, 251136, Note_on_c, 0, 79, 107
2, 251136, Note_on_c, 0, 85, 107
2, 251512, Note_off_c, 0, 79, 100
2, 251512, Note_off_c, 0, 85, 100
2, 251520, Note_on_c, 0, 80, 110
2, 251520, Note_on_c, 0, 84, 110
2, 251896, Note_off_c, 0, 80, 100
2, 251896, Note_off_c, 0, 84, 100
2, 253056, Note_on_c, 0, 63, 110
2, 253056, Note_on_c, 0, 66, 110
2, 253056, Note_on_c, 0, 60, 110
2, 254584, Note_off_c, 0, 63, 100
2, 254584, Note_off_c, 0, 66, 100
2, 254584, Note_off_c, 0, 60, 100
2, 254592, Note_on_c, 0, 65, 80
2, 254592, Note_on_c, 0, 62, 80
2, 254968, Note_off_c, 0, 65, 100
2, 254968, Note_off_c, 0, 62, 100
2, 254976, Note_on_c, 0, 75, 83
2, 254976, Note_on_c, 0, 69, 83
2, 255352, Note_off_c, 0, 75, 100
2, 255352, Note_off_c, 0, 69, 100
2, 255360, Note_on_c, 0, 74, 87
2, 255360, Note_on_c, 0, 70, 87
2, 255736, Note_off_c, 0, 74, 100
2, 255736, Note_off_c, 0, 70, 100
2, 255744, Note_on_c, 0, 75, 91
2, 255744, Note_on_c, 0, 81, 91
2, 256120, Note_off_c, 0, 75, 100
2, 256120, Note_off_c, 0, 81, 100
2, 256128, Note_on_c, 0, 82, 95
2, 256128, Note_on_c, 0, 74, 95
2, 256504, Note_off_c, 0, 82, 100
2, 256504, Note_off_c, 0, 74, 100
2, 256512, Note_on_c, 0, 81, 99
2, 256512, Note_on_c, 0, 87, 99
2, 256888, Note_off_c, 0, 81, 100
2, 256888, Note_off_c, 0, 87, 100
2, 256896, Note_on_c, 0, 86, 103
2, 256896, Note_on_c, 0, 82, 103
2, 257272, Note_off_c, 0, 86, 100
2, 257272, Note_off_c, 0, 82, 100
2, 257280, Note_on_c, 0, 81, 107
2, 257280, Note_on_c, 0, 87, 107
2, 257656, Note_off_c, 0, 81, 100
2, 257656, Note_off_c, 0, 87, 100
2, 257664, Note_on_c, 0, 82, 110
2, 257664, Note_on_c, 0, 86, 110
2, 258040, Note_off_c, 0, 82, 100
2, 258040, Note_off_c, 0, 86, 100
2, 258432, Note_on_c, 0, 81, 110
2, 258432, Note_on_c, 0, 75, 110
2, 259192, Note_off_c, 0, 81, 100
2, 259192, Note_off_c, 0, 75, 100
2, 259200, Note_on_c, 0, 74, 110
2, 259200, Note_on_c, 0, 82, 110
2, 259576, Note_off_c, 0, 74, 100
2, 259576, Note_off_c, 0, 82, 100
2, 259968, Note_on_c, 0, 75, 110
2, 259968, Note_on_c, 0, 69, 110
2, 260728, Note_off_c, 0, 75, 100
2, 260728, Note_off_c, 0, 69, 100
2, 260736, Note_on_c, 0, 74, 110
2, 260736, Note_on_c, 0, 70, 110
2, 261112, Note_off_c, 0, 74, 100
2, 261112, Note_off_c, 0, 70, 100
2, 261504, Note_on_c, 0, 69, 110
2, 261504, Note_on_c, 0, 63, 110
2, 262264, Note_off_c, 0, 69, 100
2, 262264, Note_off_c, 0, 63, 100
2, 262272, Note_on_c, 0, 70, 110
2, 262272, Note_on_c, 0, 62, 110
2, 262648, Note_off_c, 0, 70, 100
2, 262648, Note_off_c, 0, 62, 100
2, 263040, Note_on_c, 0, 63, 110
2, 263040, Note_on_c, 0, 57, 110
2, 263800, Note_off_c, 0, 63, 100
2, 263800, Note_off_c, 0, 57, 100
2, 263808, Note_on_c, 0, 62, 110
2, 263808, Note_on_c, 0, 58, 110
2, 264184, Note_off_c, 0, 62, 100
2, 264184, Note_off_c, 0, 58, 100
2, 264192, Note_on_c, 0, 57, 80
2, 264568, Note_off_c, 0, 57, 100
2, 264576, Note_on_c, 0, 58, 80
2, 264952, Note_off_c, 0, 58, 100
2, 264960, Note_on_c, 0, 57, 80
2, 265336, Note_off_c, 0, 57, 100
2, 265344, Note_on_c, 0, 58, 80
2, 265720, Note_off_c, 0, 58, 100
2, 265728, Note_on_c, 0, 57, 80
2, 266104, Note_off_c, 0, 57, 100
2, 266112, Note_on_c, 0, 58, 80
2, 266488, Note_off_c, 0, 58, 100
2, 266496, Note_on_c, 0, 57, 80
2, 266872, Note_off_c, 0, 57, 100
2, 267264, Note_on_c, 0, 46, 80
2, 267640, Note_off_c, 0, 46, 100
2, 267648, Note_on_c, 0, 51, 80
2, 268024, Note_off_c, 0, 51, 100
2, 268032, Note_on_c, 0, 53, 80
2, 268408, Note_off_c, 0, 53, 100
2, 268416, Note_on_c, 0, 54, 80
2, 268792, Note_off_c, 0, 54, 100
2, 268800, Note_on_c, 0, 70, 80
2, 269176, Note_off_c, 0, 70, 100
2, 269184, Note_on_c, 0, 75, 80
2, 269560, Note_off_c, 0, 75, 100
2, 269568, Note_on_c, 0, 77, 80
2, 269944, Note_off_c, 0, 77, 100
2, 269952, Note_on_c, 0, 70, 100
2, 270040, Note_off_c, 0, 70, 100
2, 270048, Note_on_c, 0, 78, 100
2, 271096, Note_off_c, 0, 78, 100
2, 271104, Note_on_c, 0, 75, 80
2, 271480, Note_off_c, 0, 75, 100
2, 271488, Note_on_c, 0, 70, 100
2, 271672, Note_off_c, 0, 70, 100
2, 271680, Note_on_c, 0, 78, 100
2, 272632, Note_off_c, 0, 78, 100
2, 272640, Note_on_c, 0, 75, 80
2, 273016, Note_off_c, 0, 75, 100
2, 273024, Note_on_c, 0, 74, 80
2, 273400, Note_off_c, 0, 74, 100
2, 273408, Note_on_c, 0, 46, 80
2, 273784, Note_off_c, 0, 46, 100
2, 273792, Note_on_c, 0, 53, 80
2, 274168, Note_off_c, 0, 53, 100
2, 274176, Note_on_c, 0, 54, 80
2, 274552, Note_off_c, 0, 54, 100
2, 274560, Note_on_c, 0, 56, 80
2, 274936, Note_off_c, 0, 56, 100
2, 274944, Note_on_c, 0, 70, 80
2, 275320, Note_off_c, 0, 70, 100
2, 275328, Note_on_c, 0, 80, 80
2, 275704, Note_off_c, 0, 80, 100
2, 275712, Note_on_c, 0, 78, 80
2, 276088, Note_off_c, 0, 78, 100
2, 276096, Note_on_c, 0, 78, 80
2, 276184, Note_off_c, 0, 78, 100
2, 276192, Note_on_c, 0, 80, 80
2, 276280, Note_off_c, 0, 80, 100
2, 276288, Note_on_c, 0, 78, 80
2, 276472, Note_off_c, 0, 78, 100
2, 276480, Note_on_c, 0, 77, 80
2, 276856, Note_off_c, 0, 77, 100
2, 276864, Note_on_c, 0, 77, 80
2, 276952, Note_off_c, 0, 77, 100
2, 276960, Note_on_c, 0, 78, 80
2, 277048, Note_off_c, 0, 78, 100
2, 277056, Note_on_c, 0, 77, 80
2, 277240, Note_off_c, 0, 77, 100
2, 277248, Note_on_c, 0, 75, 80
2, 277624, Note_off_c, 0, 75, 100
2, 277632, Note_on_c, 0, 75, 80
2, 277720, Note_off_c, 0, 75, 100
2, 277728, Note_on_c, 0, 77, 80
2, 277816, Note_off_c, 0, 77, 100
2, 277824, Note_on_c, 0, 75, 80
2, 278008, Note_off_c, 0, 75, 100
2, 278016, Note_on_c, 0, 74, 80
2, 278392, Note_off_c, 0, 74, 100
2, 278400, Note_on_c, 0, 72, 80
2, 278776, Note_off_c, 0, 72, 100
2, 278784, Note_on_c, 0, 74, 80
2, 279160, Note_off_c, 0, 74, 100
2, 279168, Note_on_c, 0, 75, 80
2, 279544, Note_off_c, 0, 75, 100
2, 279552, Note_on_c, 0, 46, 80
2, 279928, Note_off_c, 0, 46, 100
2, 279936, Note_on_c, 0, 51, 80
2, 280312, Note_off_c, 0, 51, 100
2, 280320, Note_on_c, 0, 53, 80
2, 280696, Note_off_c, 0, 53, 100
2, 280704, Note_on_c, 0, 54, 80
2, 281080, Note_off_c, 0, 54, 100
2, 281088, Note_on_c, 0, 70, 80
2, 281464, Note_off_c, 0, 70, 100
2, 281472, Note_on_c, 0, 75, 80
2, 281848, Note_off_c, 0, 75, 100
2, 281856, Note_on_c, 0, 77, 80
2, 282232, Note_off_c, 0, 77, 100
2, 282240, Note_on_c, 0, 70, 100
2, 282328, Note_off_c, 0, 70, 100
2, 282336, Note_on_c, 0, 78, 100
2, 283384, Note_off_c, 0, 78, 100
2, 283392, Note_on_c, 0, 75, 80
2, 283768, Note_off_c, 0, 75, 100
2, 283776, Note_on_c, 0, 70, 100
2, 283960, Note_off_c, 0, 70, 100
2, 283968, Note_on_c, 0, 78, 100
2, 284920, Note_off_c, 0, 78, 100
2, 284928, Note_on_c, 0, 75, 80
2, 285304, Note_off_c, 0, 75, 100
2, 285312, Note_on_c, 0, 72, 80
2, 285688, Note_off_c, 0, 72, 100
2, 285696, Note_on_c, 0, 44, 80
2, 286072, Note_off_c, 0, 44, 100
2, 286080, Note_on_c, 0, 51, 80
2, 286456, Note_off_c, 0, 51, 100
2, 286464, Note_on_c, 0, 53, 80
2, 286840, Note_off_c, 0, 53, 100
2, 286848, Note_on_c, 0, 54, 80
2, 287224, Note_off_c, 0, 54, 100
2, 287232, Note_on_c, 0, 68, 80
2, 287608, Note_off_c, 0, 68, 100
2, 287616, Note_on_c, 0, 78, 80
2, 287992, Note_off_c, 0, 78, 100
2, 288000, Note_on_c, 0, 77, 80
2, 288376, Note_off_c, 0, 77, 100
2, 288384, Note_on_c, 0, 77, 80
2, 288472, Note_off_c, 0, 77, 100
2, 288480, Note_on_c, 0, 78, 80
2, 288568, Note_off_c, 0, 78, 100
2, 288576, Note_on_c, 0, 77, 80
2, 288760, Note_off_c, 0, 77, 100
2, 288768, Note_on_c, 0, 75, 80
2, 289144, Note_off_c, 0, 75, 100
2, 289152, Note_on_c, 0, 75, 80
2, 289240, Note_off_c, 0, 75, 100
2, 289248, Note_on_c, 0, 77, 80
2, 289336, Note_off_c, 0, 77, 100
2, 289344, Note_on_c, 0, 75, 80
2, 289528, Note_off_c, 0, 75, 100
2, 289536, Note_on_c, 0, 73, 80
2, 289912, Note_off_c, 0, 73, 100
2, 289920, Note_on_c, 0, 73, 80
2, 290008, Note_off_c, 0, 73, 100
2, 290016, Note_on_c, 0, 75, 80
2, 290104, Note_off_c, 0, 75, 100
2, 290112, Note_on_c, 0, 73, 80
2, 290296, Note_off_c, 0, 73, 100
2, 290304, Note_on_c, 0, 72, 80
2, 290680, Note_off_c, 0, 72, 100
2, 290688, Note_on_c, 0, 70, 80
2, 291064, Note_off_c, 0, 70, 100
2, 291072, Note_on_c, 0, 72, 80
2, 291448, Note_off_c, 0, 72, 100
2, 291456, Note_on_c, 0, 73, 80
2, 291832, Note_off_c, 0, 73, 100
2, 291840, Note_on_c, 0, 44, 80
2, 292216, Note_off_c, 0, 44, 100
2, 292224, Note_on_c, 0, 49, 80
2, 292600, Note_off_c, 0, 49, 100
2, 292608, Note_on_c, 0, 51, 80
2, 292984, Note_off_c, 0, 51, 100
2, 292992, Note_on_c, 0, 53, 80
2, 293368, Note_off_c, 0, 53, 100
2, 293376, Note_on_c, 0, 68, 80
2, 293752, Note_off_c, 0, 68, 100
2, 293760, Note_on_c, 0, 73, 80
2, 294136, Note_off_c, 0, 73, 100
2, 294144, Note_on_c, 0, 75, 80
2, 294520, Note_off_c, 0, 75, 100
2, 294528, Note_on_c, 0, 68, 100
2, 294616, Note_off_c, 0, 68, 100
2, 294624, Note_on_c, 0, 77, 100
2, 295672, Note_off_c, 0, 77, 100
2, 295680, Note_on_c, 0, 73, 80
2, 296056, Note_off_c, 0, 73, 100
2, 296064, Note_on_c, 0, 68, 100
2, 296152, Note_off_c, 0, 68, 100
2, 296160, Note_on_c, 0, 77, 100
2, 297208, Note_off_c, 0, 77, 100
2, 297216, Note_on_c, 0, 73, 80
2, 297592, Note_off_c, 0, 73, 100
2, 297600, Note_on_c, 0, 72, 80
2, 297976, Note_off_c, 0, 72, 100
2, 297984, Note_on_c, 0, 44, 80
2, 298360, Note_off_c, 0, 44, 100
2, 298368, Note_on_c, 0, 51, 80
2, 298744, Note_off_c, 0, 51, 100
2, 298752, Note_on_c, 0, 53, 80
2, 299128, Note_off_c, 0, 53, 100
2, 299136, Note_on_c, 0, 54, 80
2, 299512, Note_off_c, 0, 54, 100
2, 299520, Note_on_c, 0, 68, 80
2, 299896, Note_off_c, 0, 68, 100
2, 299904, Note_on_c, 0, 78, 80
2, 300280, Note_off_c, 0, 78, 100
2, 300288, Note_on_c, 0, 77, 80
2, 300664, Note_off_c, 0, 77, 100
2, 300672, Note_on_c, 0, 77, 80
2, 300760, Note_off_c, 0, 77, 100
2, 300768, Note_on_c, 0, 78, 80
2, 300856, Note_off_c, 0, 78, 100
2, 300864, Note_on_c, 0, 77, 80
2, 301048, Note_off_c, 0, 77, 100
2, 301056, Note_on_c, 0, 75, 80
2, 301432, Note_off_c, 0, 75, 100
2, 301440, Note_on_c, 0, 75, 80
2, 301528, Note_off_c, 0, 75, 100
2, 301536, Note_on_c, 0, 77, 80
2, 301624, Note_off_c, 0, 77, 100
2, 301632, Note_on_c, 0, 75, 80
2, 301816, Note_off_c, 0, 75, 100
2, 301824, Note_on_c, 0, 73, 80
2, 302200, Note_off_c, 0, 73, 100
2, 302208, Note_on_c, 0, 73, 80
2, 302296, Note_off_c, 0, 73, 100
2, 302304, Note_on_c, 0, 75, 80
2, 302392, Note_off_c, 0, 75, 100
2, 302400, Note_on_c, 0, 73, 80
2, 302584, Note_off_c, 0, 73, 100
2, 302592, Note_on_c, 0, 72, 80
2, 302968, Note_off_c, 0, 72, 100
2, 302976, Note_on_c, 0, 70, 80
2, 303352, Note_off_c, 0, 70, 100
2, 303360, Note_on_c, 0, 72, 80
2, 303736, Note_off_c, 0, 72, 100
2, 303744, Note_on_c, 0, 73, 80
2, 304120, Note_off_c, 0, 73, 100
2, 304128, Note_on_c, 0, 49, 100
2, 304504, Note_off_c, 0, 49, 100
2, 304512, Note_on_c, 0, 56, 80
2, 304888, Note_off_c, 0, 56, 100
2, 304896, Note_on_c, 0, 47, 80
2, 305272, Note_off_c, 0, 47, 100
2, 305280, Note_on_c, 0, 46, 80
2, 305656, Note_off_c, 0, 46, 100
2, 305664, Note_on_c, 0, 70, 80
2, 306040, Note_off_c, 0, 70, 100
2, 306048, Note_on_c, 0, 80, 80
2, 306424, Note_off_c, 0, 80, 100
2, 306432, Note_on_c, 0, 78, 80
2, 306808, Note_off_c, 0, 78, 100
2, 306816, Note_on_c, 0, 78, 80
2, 306904, Note_off_c, 0, 78, 100
2, 306912, Note_on_c, 0, 80, 80
2, 307000, Note_off_c, 0, 80, 100
2, 307008, Note_on_c, 0, 78, 80
2, 307192, Note_off_c, 0, 78, 100
2, 307200, Note_on_c, 0, 77, 80
2, 307576, Note_off_c, 0, 77, 100
2, 307584, Note_on_c, 0, 77, 80
2, 307672, Note_off_c, 0, 77, 100
2, 307680, Note_on_c, 0, 78, 80
2, 307768, Note_off_c, 0, 78, 100
2, 307776, Note_on_c, 0, 77, 80
2, 307960, Note_off_c, 0, 77, 100
2, 307968, Note_on_c, 0, 75, 80
2, 308344, Note_off_c, 0, 75, 100
2, 308352, Note_on_c, 0, 75, 80
2, 308440, Note_off_c, 0, 75, 100
2, 308448, Note_on_c, 0, 77, 80
2, 308536, Note_off_c, 0, 77, 100
2, 308544, Note_on_c, 0, 75, 80
2, 308728, Note_off_c, 0, 75, 100
2, 308736, Note_on_c, 0, 74, 80
2, 309112, Note_off_c, 0, 74, 100
2, 309120, Note_on_c, 0, 72, 80
2, 309496, Note_off_c, 0, 72, 100
2, 309504, Note_on_c, 0, 74, 80
2, 309880, Note_off_c, 0, 74, 100
2, 309888, Note_on_c, 0, 75, 80
2, 310264, Note_off_c, 0, 75, 100
2, 310272, Note_on_c, 0, 51, 100
2, 310648, Note_off_c, 0, 51, 100
2, 310656, Note_on_c, 0, 58, 80
2, 311032, Note_off_c, 0, 58, 100
2, 311040, Note_on_c, 0, 49, 80
2, 311416, Note_off_c, 0, 49, 100
2, 311424, Note_on_c, 0, 48, 80
2, 311800, Note_off_c, 0, 48, 100
2, 311808, Note_on_c, 0, 72, 80
2, 312184, Note_off_c, 0, 72, 100
2, 312192, Note_on_c, 0, 82, 80
2, 312568, Note_off_c, 0, 82, 100
2, 312576, Note_on_c, 0, 80, 80
2, 312952, Note_off_c, 0, 80, 100
2, 312960, Note_on_c, 0, 80, 80
2, 313048, Note_off_c, 0, 80, 100
2, 313056, Note_on_c, 0, 82, 80
2, 313144, Note_off_c, 0, 82, 100
2, 313152, Note_on_c, 0, 80, 80
2, 313336, Note_off_c, 0, 80, 100
2, 313344, Note_on_c, 0, 79, 80
2, 313720, Note_off_c, 0, 79, 100
2, 313728, Note_on_c, 0, 79, 80
2, 313816, Note_off_c, 0, 79, 100
2, 313824, Note_on_c, 0, 80, 80
2, 313912, Note_off_c, 0, 80, 100
2, 313920, Note_on_c, 0, 79, 80
2, 314104, Note_off_c, 0, 79, 100
2, 314112, Note_on_c, 0, 77, 80
2, 314488, Note_off_c, 0, 77, 100
2, 314496, Note_on_c, 0, 77, 80
2, 314584, Note_off_c, 0, 77, 100
2, 314592, Note_on_c, 0, 79, 80
2, 314680, Note_off_c, 0, 79, 100
2, 314688, Note_on_c, 0, 77, 80
2, 314872, Note_off_c, 0, 77, 100
2, 314880, Note_on_c, 0, 76, 80
2, 315256, Note_off_c, 0, 76, 100
2, 315264, Note_on_c, 0, 74, 80
2, 315640, Note_off_c, 0, 74, 100
2, 315648, Note_on_c, 0, 76, 80
2, 316024, Note_off_c, 0, 76, 100
2, 316032, Note_on_c, 0, 79, 80
2, 316120, Note_off_c, 0, 79, 100
2, 316128, Note_on_c, 0, 80, 80
2, 316216, Note_off_c, 0, 80, 100
2, 316224, Note_on_c, 0, 79, 80
2, 316408, Note_off_c, 0, 79, 100
2, 316416, Note_on_c, 0, 77, 80
2, 316792, Note_off_c, 0, 77, 100
2, 316800, Note_on_c, 0, 77, 80
2, 316888, Note_off_c, 0, 77, 100
2, 316896, Note_on_c, 0, 79, 80
2, 316984, Note_off_c, 0, 79, 100
2, 316992, Note_on_c, 0, 77, 80
2, 317176, Note_off_c, 0, 77, 100
2, 317184, Note_on_c, 0, 75, 80
2, 317560, Note_off_c, 0, 75, 100
2, 317568, Note_on_c, 0, 75, 80
2, 317656, Note_off_c, 0, 75, 100
2, 317664, Note_on_c, 0, 77, 80
2, 317752, Note_off_c, 0, 77, 100
2, 317760, Note_on_c, 0, 75, 80
2, 317944, Note_off_c, 0, 75, 100
2, 317952, Note_on_c, 0, 74, 80
2, 318328, Note_off_c, 0, 74, 100
2, 318336, Note_on_c, 0, 72, 80
2, 318712, Note_off_c, 0, 72, 100
2, 318720, Note_on_c, 0, 74, 80
2, 319096, Note_off_c, 0, 74, 100
2, 319104, Note_on_c, 0, 77, 80
2, 319192, Note_off_c, 0, 77, 100
2, 319200, Note_on_c, 0, 79, 80
2, 319288, Note_off_c, 0, 79, 100
2, 319296, Note_on_c, 0, 77, 80
2, 319480, Note_off_c, 0, 77, 100
2, 319488, Note_on_c, 0, 75, 79
2, 319864, Note_off_c, 0, 75, 100
2, 319872, Note_on_c, 0, 75, 78
2, 319960, Note_off_c, 0, 75, 100
2, 319968, Note_on_c, 0, 77, 77
2, 320056, Note_off_c, 0, 77, 100
2, 320064, Note_on_c, 0, 75, 77
2, 320248, Note_off_c, 0, 75, 100
2, 320256, Note_on_c, 0, 74, 76
2, 320632, Note_off_c, 0, 74, 100
2, 320640, Note_on_c, 0, 74, 75
2, 320728, Note_off_c, 0, 74, 100
2, 320736, Note_on_c, 0, 75, 74
2, 320824, Note_off_c, 0, 75, 100
2, 320832, Note_on_c, 0, 74, 74
2, 321016, Note_off_c, 0, 74, 100
2, 321024, Note_on_c, 0, 72, 73
2, 321400, Note_off_c, 0, 72, 100
2, 321408, Note_on_c, 0, 72, 72
2, 321496, Note_off_c, 0, 72, 100
2, 321504, Note_on_c, 0, 74, 72
2, 321592, Note_off_c, 0, 74, 100
2, 321600, Note_on_c, 0, 72, 71
2, 321784, Note_off_c, 0, 72, 100
2, 321792, Note_on_c, 0, 71, 71
2, 322168, Note_off_c, 0, 71, 100
2, 322176, Note_on_c, 0, 72, 70
2, 322264, Note_off_c, 0, 72, 100
2, 322272, Note_on_c, 0, 74, 70
2, 322360, Note_off_c, 0, 74, 100
2, 322368, Note_on_c, 0, 72, 70
2, 322552, Note_off_c, 0, 72, 100
2, 322560, Note_on_c, 0, 70, 70
2, 322936, Note_off_c, 0, 70, 100
2, 322944, Note_on_c, 0, 70, 70
2, 323320, Note_off_c, 0, 70, 100
2, 323328, Note_on_c, 0, 70, 70
2, 323704, Note_off_c, 0, 70, 100
2, 323712, Note_on_c, 0, 72, 70
2, 323800, Note_off_c, 0, 72, 100
2, 323808, Note_on_c, 0, 74, 70
2, 323896, Note_off_c, 0, 74, 100
2, 323904, Note_on_c, 0, 72, 70
2, 324088, Note_off_c, 0, 72, 100
2, 324096, Note_on_c, 0, 70, 70
2, 324472, Note_off_c, 0, 70, 100
2, 324480, Note_on_c, 0, 70, 70
2, 324856, Note_off_c, 0, 70, 100
2, 324864, Note_on_c, 0, 70, 70
2, 325240, Note_off_c, 0, 70, 100
2, 325440, Note_on_c, 0, 63, 80
2, 325624, Note_off_c, 0, 63, 100
2, 325632, Note_on_c, 0, 67, 80
2, 325816, Note_off_c, 0, 67, 100
2, 325824, Note_on_c, 0, 63, 80
2, 326008, Note_off_c, 0, 63, 100
2, 326016, Note_on_c, 0, 75, 80
2, 326208, Note_on_c, 0, 63, 80
2, 326392, Note_off_c, 0, 63, 100
2, 326400, Note_on_c, 0, 67, 80
2, 326584, Note_off_c, 0, 67, 100
2, 326592, Note_on_c, 0, 63, 80
2, 326776, Note_off_c, 0, 63, 100
2, 326784, Note_on_c, 0, 67, 80
2, 326968, Note_off_c, 0, 67, 100
2, 326976, Note_on_c, 0, 63, 80
2, 327160, Note_off_c, 0, 63, 100
2, 327168, Note_on_c, 0, 67, 80
2, 327352, Note_off_c, 0, 67, 100
2, 327360, Note_on_c, 0, 63, 80
2, 327544, Note_off_c, 0, 75, 100
2, 327544, Note_off_c, 0, 63, 100
2, 327552, Note_on_c, 0, 75, 80
2, 327744, Note_on_c, 0, 63, 80
2, 327928, Note_off_c, 0, 63, 100
2, 327936, Note_on_c, 0, 67, 80
2, 328120, Note_off_c, 0, 67, 100
2, 328128, Note_on_c, 0, 63, 80
2, 328312, Note_off_c, 0, 75, 100
2, 328312, Note_off_c, 0, 63, 100
2, 328512, Note_on_c, 0, 63, 80
2, 328696, Note_off_c, 0, 63, 100
2, 328704, Note_on_c, 0, 67, 80
2, 328888, Note_off_c, 0, 67, 100
2, 328896, Note_on_c, 0, 63, 80
2, 329080, Note_off_c, 0, 63, 100
2, 329088, Note_on_c, 0, 75, 80
2, 329280, Note_on_c, 0, 63, 80
2, 329464, Note_off_c, 0, 63, 100
2, 329472, Note_on_c, 0, 67, 80
2, 329656, Note_off_c, 0, 67, 100
2, 329664, Note_on_c, 0, 63, 80
2, 329848, Note_off_c, 0, 63, 100
2, 329856, Note_on_c, 0, 67, 80
2, 330040, Note_off_c, 0, 67, 100
2, 330048, Note_on_c, 0, 63, 80
2, 330232, Note_off_c, 0, 63, 100
2, 330240, Note_on_c, 0, 67, 80
2, 330424, Note_off_c, 0, 67, 100
2, 330432, Note_on_c, 0, 63, 80
2, 330616, Note_off_c, 0, 75, 100
2, 330616, Note_off_c, 0, 63, 100
2, 330624, Note_on_c, 0, 75, 80
2, 330816, Note_on_c, 0, 63, 80
2, 331000, Note_off_c, 0, 63, 100
2, 331008, Note_on_c, 0, 67, 80
2, 331192, Note_off_c, 0, 67, 100
2, 331200, Note_on_c, 0, 63, 80
2, 331384, Note_off_c, 0, 75, 100
2, 331384, Note_off_c, 0, 63, 100
2, 331392, Note_on_c, 0, 75, 80
2, 331576, Note_off_c, 0, 75, 100
2, 331584, Note_on_c, 0, 63, 80
2, 331768, Note_off_c, 0, 63, 100
2, 331776, Note_on_c, 0, 68, 81
2, 331960, Note_off_c, 0, 68, 100
2, 331968, Note_on_c, 0, 63, 81
2, 332152, Note_off_c, 0, 63, 100
2, 332160, Note_on_c, 0, 76, 82
2, 332344, Note_off_c, 0, 76, 100
2, 332352, Note_on_c, 0, 64, 83
2, 332536, Note_off_c, 0, 64, 100
2, 332544, Note_on_c, 0, 72, 83
2, 332728, Note_off_c, 0, 72, 100
2, 332736, Note_on_c, 0, 64, 84
2, 332920, Note_off_c, 0, 64, 100
2, 332928, Note_on_c, 0, 77, 85
2, 333112, Note_off_c, 0, 77, 100
2, 333120, Note_on_c, 0, 65, 85
2, 333304, Note_off_c, 0, 65, 100
2, 333312, Note_on_c, 0, 72, 86
2, 333496, Note_off_c, 0, 72, 100
2, 333504, Note_on_c, 0, 65, 87
2, 333688, Note_off_c, 0, 65, 100
2, 333696, Note_on_c, 0, 79, 87
2, 333880, Note_off_c, 0, 79, 100
2, 333888, Note_on_c, 0, 67, 88
2, 334072, Note_off_c, 0, 67, 100
2, 334080, Note_on_c, 0, 72, 88
2, 334264, Note_off_c, 0, 72, 100
2, 334272, Note_on_c, 0, 67, 89
2, 334456, Note_off_c, 0, 67, 100
2, 334464, Note_on_c, 0, 80, 90
2, 334648, Note_off_c, 0, 80, 100
2, 334656, Note_on_c, 0, 68, 90
2, 334840, Note_off_c, 0, 68, 100
2, 334848, Note_on_c, 0, 72, 91
2, 335032, Note_off_c, 0, 72, 100
2, 335040, Note_on_c, 0, 68, 92
2, 335224, Note_off_c, 0, 68, 100
2, 335232, Note_on_c, 0, 81, 92
2, 335416, Note_off_c, 0, 81, 100
2, 335424, Note_on_c, 0, 69, 93
2, 335608, Note_off_c, 0, 69, 100
2, 335616, Note_on_c, 0, 72, 94
2, 335800, Note_off_c, 0, 72, 100
2, 335808, Note_on_c, 0, 69, 94
2, 335992, Note_off_c, 0, 69, 100
2, 336000, Note_on_c, 0, 82, 95
2, 336184, Note_off_c, 0, 82, 100
2, 336192, Note_on_c, 0, 70, 95
2, 336376, Note_off_c, 0, 70, 100
2, 336384, Note_on_c, 0, 77, 96
2, 336568, Note_off_c, 0, 77, 100
2, 336576, Note_on_c, 0, 70, 97
2, 336760, Note_off_c, 0, 70, 100
2, 336768, Note_on_c, 0, 84, 97
2, 336952, Note_off_c, 0, 84, 100
2, 336960, Note_on_c, 0, 72, 98
2, 337144, Note_off_c, 0, 72, 100
2, 337152, Note_on_c, 0, 77, 99
2, 337336, Note_off_c, 0, 77, 100
2, 337344, Note_on_c, 0, 72, 99
2, 337528, Note_off_c, 0, 72, 100
2, 337536, Note_on_c, 0, 85, 100
2, 337720, Note_off_c, 0, 85, 100
2, 337728, Note_on_c, 0, 73, 101
2, 337912, Note_off_c, 0, 73, 100
2, 337920, Note_on_c, 0, 77, 101
2, 338104, Note_off_c, 0, 77, 100
2, 338112, Note_on_c, 0, 73, 102
2, 338296, Note_off_c, 0, 73, 100
2, 338304, Note_on_c, 0, 86, 102
2, 338488, Note_off_c, 0, 86, 100
2, 338496, Note_on_c, 0, 74, 103
2, 338680, Note_off_c, 0, 74, 100
2, 338688, Note_on_c, 0, 77, 104
2, 338872, Note_off_c, 0, 77, 100
2, 338880, Note_on_c, 0, 74, 104
2, 339064, Note_off_c, 0, 74, 100
2, 339072, Note_on_c, 0, 87, 105
2, 339256, Note_off_c, 0, 87, 100
2, 339264, Note_on_c, 0, 75, 106
2, 339448, Note_off_c, 0, 75, 100
2, 339456, Note_on_c, 0, 82, 106
2, 339640, Note_off_c, 0, 82, 100
2, 339648, Note_on_c, 0, 75, 107
2, 339832, Note_off_c, 0, 75, 100
2, 339840, Note_on_c, 0, 83, 108
2, 340024, Note_off_c, 0, 83, 100
2, 340032, Note_on_c, 0, 71, 108
2, 340216, Note_off_c, 0, 71, 100
2, 340224, Note_on_c, 0, 75, 109
2, 340408, Note_off_c, 0, 75, 100
2, 340416, Note_on_c, 0, 71, 109
2, 340600, Note_off_c, 0, 71, 100
2, 340800, Note_on_c, 0, 72, 110
2, 340984, Note_off_c, 0, 72, 100
2, 340992, Note_on_c, 0, 75, 110
2, 341176, Note_off_c, 0, 75, 100
2, 341184, Note_on_c, 0, 72, 110
2, 341368, Note_off_c, 0, 72, 100
2, 341376, Note_on_c, 0, 84, 110
2, 341560, Note_off_c, 0, 84, 100
2, 341568, Note_on_c, 0, 72, 110
2, 341752, Note_off_c, 0, 72, 100
2, 341760, Note_on_c, 0, 75, 110
2, 341944, Note_off_c, 0, 75, 100
2, 341952, Note_on_c, 0, 72, 110
2, 342136, Note_off_c, 0, 72, 100
2, 342336, Note_on_c, 0, 65, 110
2, 342520, Note_off_c, 0, 65, 100
2, 342528, Note_on_c, 0, 68, 110
2, 342712, Note_off_c, 0, 68, 100
2, 342720, Note_on_c, 0, 65, 110
2, 342904, Note_off_c, 0, 65, 100
2, 342912, Note_on_c, 0, 74, 110
2, 343096, Note_off_c, 0, 74, 100
2, 343104, Note_on_c, 0, 65, 110
2, 343288, Note_off_c, 0, 65, 100
2, 343296, Note_on_c, 0, 68, 110
2, 343480, Note_off_c, 0, 68, 100
2, 343488, Note_on_c, 0, 65, 110
2, 343672, Note_off_c, 0, 65, 100
2, 343872, Note_on_c, 0, 63, 80
2, 344056, Note_off_c, 0, 63, 100
2, 344064, Note_on_c, 0, 67, 80
2, 344248, Note_off_c, 0, 67, 100
2, 344256, Note_on_c, 0, 63, 80
2, 344440, Note_off_c, 0, 63, 100
2, 344448, Note_on_c, 0, 75, 80
2, 344640, Note_on_c, 0, 63, 80
2, 344824, Note_off_c, 0, 63, 100
2, 344832, Note_on_c, 0, 67, 80
2, 345016, Note_off_c, 0, 67, 100
2, 345024, Note_on_c, 0, 63, 80
2, 345208, Note_off_c, 0, 63, 100
2, 345216, Note_on_c, 0, 67, 80
2, 345400, Note_off_c, 0, 67, 100
2, 345408, Note_on_c, 0, 63, 80
2, 345592, Note_off_c, 0, 63, 100
2, 345600, Note_on_c, 0, 67, 80
2, 345784, Note_off_c, 0, 67, 100
2, 345792, Note_on_c, 0, 63, 80
2, 345976, Note_off_c, 0, 75, 100
2, 345976, Note_off_c, 0, 63, 100
2, 345984, Note_on_c, 0, 75, 80
2, 346176, Note_on_c, 0, 63, 80
2, 346360, Note_off_c, 0, 63, 100
2, 346368, Note_on_c, 0, 67, 80
2, 346552, Note_off_c, 0, 67, 100
2, 346560, Note_on_c, 0, 63, 80
2, 346744, Note_off_c, 0, 75, 100
2, 346744, Note_off_c, 0, 63, 100
2, 346944, Note_on_c, 0, 63, 80
2, 347128, Note_off_c, 0, 63, 100
2, 347136, Note_on_c, 0, 67, 80
2, 347320, Note_off_c, 0, 67, 100
2, 347328, Note_on_c, 0, 63, 80
2, 347512, Note_off_c, 0, 63, 100
2, 347520, Note_on_c, 0, 75, 80
2, 347712, Note_on_c, 0, 63, 80
2, 347896, Note_off_c, 0, 63, 100
2, 347904, Note_on_c, 0, 67, 80
2, 348088, Note_off_c, 0, 67, 100
2, 348096, Note_on_c, 0, 63, 80
2, 348280, Note_off_c, 0, 63, 100
2, 348288, Note_on_c, 0, 67, 80
2, 348472, Note_off_c, 0, 67, 100
2, 348480, Note_on_c, 0, 63, 80
2, 348664, Note_off_c, 0, 63, 100
2, 348672, Note_on_c, 0, 67, 80
2, 348856, Note_off_c, 0, 67, 100
2, 348864, Note_on_c, 0, 63, 80
2, 349048, Note_off_c, 0, 75, 100
2, 349048, Note_off_c, 0, 63, 100
2, 349056, Note_on_c, 0, 75, 80
2, 349248, Note_on_c, 0, 63, 80
2, 349432, Note_off_c, 0, 63, 100
2, 349440, Note_on_c, 0, 67, 80
2, 349624, Note_off_c, 0, 67, 100
2, 349632, Note_on_c, 0, 63, 80
2, 349816, Note_off_c, 0, 75, 100
2, 349816, Note_off_c, 0, 63, 100
2, 349824, Note_on_c, 0, 75, 80
2, 350008, Note_off_c, 0, 75, 100
2, 350016, Note_on_c, 0, 63, 80
2, 350200, Note_off_c, 0, 63, 100
2, 350208, Note_on_c, 0, 68, 81
2, 350392, Note_off_c, 0, 68, 100
2, 350400, Note_on_c, 0, 63, 81
2, 350584, Note_off_c, 0, 63, 100
2, 350592, Note_on_c, 0, 76, 82
2, 350776, Note_off_c, 0, 76, 100
2, 350784, Note_on_c, 0, 64, 83
2, 350968, Note_off_c, 0, 64, 100
2, 350976, Note_on_c, 0, 72, 83
2, 351160, Note_off_c, 0, 72, 100
2, 351168, Note_on_c, 0, 64, 84
2, 351352, Note_off_c, 0, 64, 100
2, 351360, Note_on_c, 0, 77, 85
2, 351544, Note_off_c, 0, 77, 100
2, 351552, Note_on_c, 0, 65, 85
2, 351736, Note_off_c, 0, 65, 100
2, 351744, Note_on_c, 0, 72, 86
2, 351928, Note_off_c, 0, 72, 100
2, 351936, Note_on_c, 0, 65, 87
2, 352120, Note_off_c, 0, 65, 100
2, 352128, Note_on_c, 0, 79, 87
2, 352312, Note_off_c, 0, 79, 100
2, 352320, Note_on_c, 0, 67, 88
2, 352504, Note_off_c, 0, 67, 100
2, 352512, Note_on_c, 0, 72, 88
2, 352696, Note_off_c, 0, 72, 100
2, 352704, Note_on_c, 0, 67, 89
2, 352888, Note_off_c, 0, 67, 100
2, 352896, Note_on_c, 0, 80, 90
2, 353080, Note_off_c, 0, 80, 100
2, 353088, Note_on_c, 0, 68, 90
2, 353272, Note_off_c, 0, 68, 100
2, 353280, Note_on_c, 0, 72, 91
2, 353464, Note_off_c, 0, 72, 100
2, 353472, Note_on_c, 0, 68, 92
2, 353656, Note_off_c, 0, 68, 100
2, 353664, Note_on_c, 0, 81, 92
2, 353848, Note_off_c, 0, 81, 100
2, 353856, Note_on_c, 0, 69, 93
2, 354040, Note_off_c, 0, 69, 100
2, 354048, Note_on_c, 0, 72, 94
2, 354232, Note_off_c, 0, 72, 100
2, 354240, Note_on_c, 0, 69, 94
2, 354424, Note_off_c, 0, 69, 100
2, 354432, Note_on_c, 0, 82, 95
2, 354616, Note_off_c, 0, 82, 100
2, 354624, Note_on_c, 0, 70, 95
2, 354808, Note_off_c, 0, 70, 100
2, 354816, Note_on_c, 0, 77, 96
2, 355000, Note_off_c, 0, 77, 100
2, 355008, Note_on_c, 0, 70, 97
2, 355192, Note_off_c, 0, 70, 100
2, 355200, Note_on_c, 0, 84, 97
2, 355384, Note_off_c, 0, 84, 100
2, 355392, Note_on_c, 0, 72, 98
2, 355576, Note_off_c, 0, 72, 100
2, 355584, Note_on_c, 0, 77, 99
2, 355768, Note_off_c, 0, 77, 100
2, 355776, Note_on_c, 0, 72, 99
2, 355960, Note_off_c, 0, 72, 100
2, 355968, Note_on_c, 0, 85, 100
2, 356152, Note_off_c, 0, 85, 100
2, 356160, Note_on_c, 0, 73, 101
2, 356344, Note_off_c, 0, 73, 100
2, 356352, Note_on_c, 0, 77, 101
2, 356536, Note_off_c, 0, 77, 100
2, 356544, Note_on_c, 0, 73, 102
2, 356728, Note_off_c, 0, 73, 100
2, 356736, Note_on_c, 0, 86, 102
2, 356920, Note_off_c, 0, 86, 100
2, 356928, Note_on_c, 0, 74, 103
2, 357112, Note_off_c, 0, 74, 100
2, 357120, Note_on_c, 0, 77, 104
2, 357304, Note_off_c, 0, 77, 100
2, 357312, Note_on_c, 0, 74, 104
2, 357496, Note_off_c, 0, 74, 100
2, 357504, Note_on_c, 0, 87, 105
2, 357688, Note_off_c, 0, 87, 100
2, 357696, Note_on_c, 0, 75, 106
2, 357880, Note_off_c, 0, 75, 100
2, 357888, Note_on_c, 0, 82, 106
2, 358072, Note_off_c, 0, 82, 100
2, 358080, Note_on_c, 0, 75, 107
2, 358264, Note_off_c, 0, 75, 100
2, 358272, Note_on_c, 0, 88, 108
2, 358456, Note_off_c, 0, 88, 100
2, 358464, Note_on_c, 0, 76, 108
2, 358648, Note_off_c, 0, 76, 100
2, 358656, Note_on_c, 0, 82, 109
2, 358840, Note_off_c, 0, 82, 100
2, 358848, Note_on_c, 0, 76, 109
2, 359032, Note_off_c, 0, 76, 100
2, 359232, Note_on_c, 0, 80, 110
2, 359416, Note_off_c, 0, 80, 100
2, 359424, Note_on_c, 0, 84, 110
2, 359608, Note_off_c, 0, 84, 100
2, 359616, Note_on_c, 0, 80, 110
2, 359800, Note_off_c, 0, 80, 100
2, 359808, Note_on_c, 0, 89, 110
2, 359992, Note_off_c, 0, 89, 100
2, 360000, Note_on_c, 0, 80, 110
2, 360184, Note_off_c, 0, 80, 100
2, 360192, Note_on_c, 0, 84, 110
2, 360376, Note_off_c, 0, 84, 100
2, 360384, Note_on_c, 0, 80, 110
2, 360568, Note_off_c, 0, 80, 100
2, 360768, Note_on_c, 0, 77, 110
2, 360952, Note_off_c, 0, 77, 100
2, 360960, Note_on_c, 0, 80, 110
2, 361144, Note_off_c, 0, 80, 100
2, 361152, Note_on_c, 0, 77, 110
2, 361336, Note_off_c, 0, 77, 100
2, 361344, Note_on_c, 0, 86, 110
2, 361528, Note_off_c, 0, 86, 100
2, 361536, Note_on_c, 0, 77, 110
2, 361720, Note_off_c, 0, 77, 100
2, 361728, Note_on_c, 0, 80, 110
2, 361912, Note_off_c, 0, 80, 100
2, 361920, Note_on_c, 0, 77, 110
2, 362104, Note_off_c, 0, 77, 100
2, 362112, Note_on_c, 0, 79, 80
2, 362488, Note_off_c, 0, 79, 100
2, 362496, Note_on_c, 0, 87, 80
2, 363256, Note_off_c, 0, 87, 100
2, 363264, Note_on_c, 0, 86, 80
2, 363448, Note_off_c, 0, 86, 100
2, 363456, Note_on_c, 0, 87, 80
2, 363640, Note_off_c, 0, 87, 100
2, 363648, Note_on_c, 0, 89, 80
2, 363832, Note_off_c, 0, 89, 100
2, 363840, Note_on_c, 0, 87, 80
2, 364024, Note_off_c, 0, 87, 100
2, 364032, Note_on_c, 0, 86, 80
2, 364216, Note_off_c, 0, 86, 100
2, 364224, Note_on_c, 0, 84, 80
2, 364408, Note_off_c, 0, 84, 100
2, 364416, Note_on_c, 0, 83, 80
2, 364600, Note_off_c, 0, 83, 100
2, 364608, Note_on_c, 0, 84, 80
2, 364792, Note_off_c, 0, 84, 100
2, 364800, Note_on_c, 0, 86, 80
2, 364984, Note_off_c, 0, 86, 100
2, 364992, Note_on_c, 0, 84, 80
2, 365176, Note_off_c, 0, 84, 100
2, 365184, Note_on_c, 0, 82, 80
2, 365368, Note_off_c, 0, 82, 100
2, 365376, Note_on_c, 0, 80, 80
2, 365560, Note_off_c, 0, 80, 100
2, 365568, Note_on_c, 0, 79, 80
2, 365752, Note_off_c, 0, 79, 100
2, 365760, Note_on_c, 0, 77, 80
2, 365944, Note_off_c, 0, 77, 100
2, 365952, Note_on_c, 0, 76, 80
2, 366136, Note_off_c, 0, 76, 100
2, 366144, Note_on_c, 0, 77, 80
2, 366328, Note_off_c, 0, 77, 100
2, 366336, Note_on_c, 0, 79, 80
2, 366520, Note_off_c, 0, 79, 100
2, 366528, Note_on_c, 0, 77, 80
2, 366712, Note_off_c, 0, 77, 100
2, 366720, Note_on_c, 0, 75, 80
2, 366904, Note_off_c, 0, 75, 100
2, 366912, Note_on_c, 0, 74, 80
2, 367096, Note_off_c, 0, 74, 100
2, 367104, Note_on_c, 0, 72, 80
2, 367288, Note_off_c, 0, 72, 100
2, 367296, Note_on_c, 0, 70, 80
2, 367480, Note_off_c, 0, 70, 100
2, 367488, Note_on_c, 0, 69, 80
2, 367672, Note_off_c, 0, 69, 100
2, 367680, Note_on_c, 0, 70, 80
2, 367864, Note_off_c, 0, 70, 100
2, 367872, Note_on_c, 0, 72, 80
2, 368056, Note_off_c, 0, 72, 100
2, 368064, Note_on_c, 0, 68, 80
2, 368248, Note_off_c, 0, 68, 100
2, 368256, Note_on_c, 0, 67, 80
2, 368632, Note_off_c, 0, 67, 100
2, 368640, Note_on_c, 0, 87, 110
2, 368640, Note_on_c, 0, 75, 110
2, 369400, Note_off_c, 0, 87, 100
2, 369400, Note_off_c, 0, 75, 100
2, 369408, Note_on_c, 0, 86, 82
2, 369592, Note_off_c, 0, 86, 100
2, 369600, Note_on_c, 0, 87, 83
2, 369784, Note_off_c, 0, 87, 100
2, 369792, Note_on_c, 0, 89, 84
2, 369976, Note_off_c, 0, 89, 100
2, 369984, Note_on_c, 0, 87, 85
2, 370168, Note_off_c, 0, 87, 100
2, 370176, Note_on_c, 0, 86, 86
2, 370360, Note_off_c, 0, 86, 100
2, 370368, Note_on_c, 0, 84, 87
2, 370552, Note_off_c, 0, 84, 100
2, 370560, Note_on_c, 0, 83, 88
2, 370744, Note_off_c, 0, 83, 100
2, 370752, Note_on_c, 0, 84, 89
2, 370936, Note_off_c, 0, 84, 100
2, 370944, Note_on_c, 0, 86, 91
2, 371128, Note_off_c, 0, 86, 100
2, 371136, Note_on_c, 0, 84, 92
2, 371320, Note_off_c, 0, 84, 100
2, 371328, Note_on_c, 0, 82, 93
2, 371512, Note_off_c, 0, 82, 100
2, 371520, Note_on_c, 0, 80, 94
2, 371704, Note_off_c, 0, 80, 100
2, 371712, Note_on_c, 0, 79, 95
2, 371896, Note_off_c, 0, 79, 100
2, 371904, Note_on_c, 0, 77, 96
2, 372088, Note_off_c, 0, 77, 100
2, 372096, Note_on_c, 0, 76, 97
2, 372280, Note_off_c, 0, 76, 100
2, 372288, Note_on_c, 0, 77, 98
2, 372472, Note_off_c, 0, 77, 100
2, 372480, Note_on_c, 0, 79, 99
2, 372664, Note_off_c, 0, 79, 100
2, 372672, Note_on_c, 0, 77, 101
2, 372856, Note_off_c, 0, 77, 100
2, 372864, Note_on_c, 0, 75, 102
2, 373048, Note_off_c, 0, 75, 100
2, 373056, Note_on_c, 0, 74, 103
2, 373240, Note_off_c, 0, 74, 100
2, 373248, Note_on_c, 0, 72, 104
2, 373432, Note_off_c, 0, 72, 100
2, 373440, Note_on_c, 0, 70, 105
2, 373624, Note_off_c, 0, 70, 100
2, 373632, Note_on_c, 0, 69, 106
2, 373816, Note_off_c, 0, 69, 100
2, 373824, Note_on_c, 0, 70, 107
2, 374008, Note_off_c, 0, 70, 100
2, 374016, Note_on_c, 0, 72, 108
2, 374200, Note_off_c, 0, 72, 100
2, 374208, Note_on_c, 0, 70, 109
2, 374392, Note_off_c, 0, 70, 100
2, 374400, Note_on_c, 0, 75, 110
2, 374776, Note_off_c, 0, 75, 100
2, 374784, Note_on_c, 0, 63, 110
2, 375544, Note_off_c, 0, 63, 100
2, 375552, Note_on_c, 0, 67, 110
2, 375552, Note_on_c, 0, 61, 110
2, 375928, Note_off_c, 0, 67, 100
2, 375928, Note_off_c, 0, 61, 100
2, 375936, Note_on_c, 0, 68, 110
2, 375936, Note_on_c, 0, 60, 110
2, 376312, Note_off_c, 0, 68, 100
2, 376312, Note_off_c, 0, 60, 100
2, 376320, Note_on_c, 0, 70, 110
2, 376320, Note_on_c, 0, 67, 110
2, 376696, Note_off_c, 0, 70, 100
2, 376696, Note_off_c, 0, 67, 100
2, 376704, Note_on_c, 0, 72, 110
2, 376704, Note_on_c, 0, 68, 110
2, 377080, Note_off_c, 0, 72, 100
2, 377080, Note_off_c, 0, 68, 100
2, 377088, Note_on_c, 0, 74, 110
2, 377088, Note_on_c, 0, 68, 110
2, 377464, Note_off_c, 0, 74, 100
2, 377464, Note_off_c, 0, 68, 100
2, 377472, Note_on_c, 0, 75, 110
2, 377472, Note_on_c, 0, 70, 110
2, 377848, Note_off_c, 0, 75, 100
2, 377848, Note_off_c, 0, 70, 100
2, 377856, Note_on_c, 0, 75, 110
2, 378616, Note_off_c, 0, 75, 100
2, 378624, Note_on_c, 0, 79, 110
2, 378624, Note_on_c, 0, 73, 110
2, 379000, Note_off_c, 0, 79, 100
2, 379000, Note_off_c, 0, 73, 100
2, 379008, Note_on_c, 0, 80, 110
2, 379008, Note_on_c, 0, 72, 110
2, 379384, Note_off_c, 0, 80, 100
2, 379384, Note_off_c, 0, 72, 100
2, 379392, Note_on_c, 0, 82, 110
2, 379392, Note_on_c, 0, 79, 110
2, 379768, Note_off_c, 0, 82, 100
2, 379768, Note_off_c, 0, 79, 100
2, 379776, Note_on_c, 0, 84, 110
2, 379776, Note_on_c, 0, 80, 110
2, 380152, Note_off_c, 0, 84, 100
2, 380152, Note_off_c, 0, 80, 100
2, 380160, Note_on_c, 0, 86, 110
2, 380160, Note_on_c, 0, 80, 110
2, 380536, Note_off_c, 0, 86, 100
2, 380536, Note_off_c, 0, 80, 100
2, 380544, Note_on_c, 0, 79, 110
2, 380544, Note_on_c, 0, 87, 110
2, 382072, Note_off_c, 0, 79, 100
2, 382072, Note_off_c, 0, 87, 100
2, 382080, Note_on_c, 0, 75, 110
2, 382080, Note_on_c, 0, 67, 110
2, 383608, Note_off_c, 0, 75, 100
2, 383608, Note_off_c, 0, 67, 100
2, 383616, Note_on_c, 0, 79, 110
2, 383616, Note_on_c, 0, 87, 110
2, 385144, Note_off_c, 0, 79, 100
2, 385144, Note_off_c, 0, 87, 100
2, 385152, Note_on_c, 0, 75, 110
2, 385152, Note_on_c, 0, 67, 110
2, 386680, Note_off_c, 0, 75, 100
2, 386680, Note_off_c, 0, 67, 100
2, 386688, Note_on_c, 0, 87, 110
2, 386688, Note_on_c, 0, 84, 110
2, 388216, Note_off_c, 0, 87, 100
2, 388216, Note_off_c, 0, 84, 100
2, 388224, Note_on_c, 0, 75, 110
2, 388224, Note_on_c, 0, 72, 110
2, 389752, Note_off_c, 0, 75, 100
2, 389752, Note_off_c, 0, 72, 100
2, 389760, Note_on_c, 0, 86, 120
2, 389760, Note_on_c, 0, 84, 120
2, 389760, Note_on_c, 0, 81, 120
2, 391288, Note_off_c, 0, 86, 100
2, 391288, Note_off_c, 0, 84, 100
2, 391288, Note_off_c, 0, 81, 100
2, 391296, Note_on_c, 0, 62, 120
2, 391296, Note_on_c, 0, 60, 120
2, 391296, Note_on_c, 0, 57, 120
2, 395896, Note_off_c, 0, 57, 100
2, 395896, Note_off_c, 0, 60, 100
2, 395896, Note_off_c, 0, 62, 100
2, 395904, Note_on_c, 0, 67, 120
2, 395904, Note_on_c, 0, 62, 120
2, 395904, Note_on_c, 0, 58, 120
2, 395904, Note_on_c, 0, 55, 120
2, 396428, Note_off_c, 0, 55, 100
2, 396428, Note_off_c, 0, 58, 100
2, 396428, Note_off_c, 0, 62, 100
2, 396428, Note_off_c, 0, 67, 100
2, 396432, Note_on_c, 0, 67, 80
2, 396432, Note_on_c, 0, 62, 80
2, 396476, Note_off_c, 0, 67, 100
2, 396476, Note_off_c, 0, 62, 100
2, 396480, Note_on_c, 0, 69, 80
2, 396480, Note_on_c, 0, 66, 80
2, 396480, Note_on_c, 0, 62, 80
2, 396620, Note_off_c, 0, 69, 100
2, 396620, Note_off_c, 0, 66, 100
2, 396620, Note_off_c, 0, 62, 100
2, 396624, Note_on_c, 0, 70, 80
2, 396624, Note_on_c, 0, 67, 80
2, 396624, Note_on_c, 0, 62, 80
2, 396668, Note_off_c, 0, 70, 100
2, 396668, Note_off_c, 0, 67, 100
2, 396668, Note_off_c, 0, 62, 100
2, 396672, Note_on_c, 0, 70, 80
2, 396672, Note_on_c, 0, 67, 80
2, 396672, Note_on_c, 0, 64, 80
2, 397052, Note_off_c, 0, 70, 100
2, 397052, Note_off_c, 0, 67, 100
2, 397052, Note_off_c, 0, 64, 100
2, 397056, Note_on_c, 0, 69, 80
2, 397056, Note_on_c, 0, 66, 80
2, 397244, Note_off_c, 0, 69, 100
2, 397244, Note_off_c, 0, 66, 100
2, 397440, Note_on_c, 0, 72, 120
2, 397440, Note_on_c, 0, 69, 120
2, 397440, Note_on_c, 0, 66, 120
2, 397964, Note_off_c, 0, 66, 100
2, 397964, Note_off_c, 0, 69, 100
2, 397964, Note_off_c, 0, 72, 100
2, 397968, Note_on_c, 0, 72, 80
2, 397968, Note_on_c, 0, 69, 80
2, 397968, Note_on_c, 0, 66, 80
2, 398012, Note_off_c, 0, 72, 100
2, 398012, Note_off_c, 0, 69, 100
2, 398012, Note_off_c, 0, 66, 100
2, 398016, Note_on_c, 0, 74, 80
2, 398016, Note_on_c, 0, 66, 80
2, 398016, Note_on_c, 0, 69, 80
2, 398156, Note_off_c, 0, 74, 100
2, 398156, Note_off_c, 0, 66, 100
2, 398156, Note_off_c, 0, 69, 100
2, 398160, Note_on_c, 0, 75, 80
2, 398160, Note_on_c, 0, 69, 80
2, 398160, Note_on_c, 0, 66, 80
2, 398204, Note_off_c, 0, 75, 100
2, 398204, Note_off_c, 0, 69, 100
2, 398204, Note_off_c, 0, 66, 100
2, 398208, Note_on_c, 0, 75, 80
2, 398208, Note_on_c, 0, 69, 80
2, 398208, Note_on_c, 0, 66, 80
2, 398588, Note_off_c, 0, 75, 100
2, 398588, Note_off_c, 0, 69, 100
2, 398588, Note_off_c, 0, 66, 100
2, 398592, Note_on_c, 0, 74, 80
2, 398592, Note_on_c, 0, 70, 80
2, 398592, Note_on_c, 0, 67, 80
2, 398780, Note_off_c, 0, 74, 100
2, 398780, Note_off_c, 0, 70, 100
2, 398780, Note_off_c, 0, 67, 100
2, 398976, Note_on_c, 0, 72, 110
2, 398976, Note_on_c, 0, 69, 110
2, 398976, Note_on_c, 0, 66, 110
2, 399500, Note_off_c, 0, 66, 100
2, 399500, Note_off_c, 0, 69, 100
2, 399500, Note_off_c, 0, 72, 100
2, 399504, Note_on_c, 0, 72, 80
2, 399504, Note_on_c, 0, 69, 80
2, 399504, Note_on_c, 0, 66, 80
2, 399548, Note_off_c, 0, 72, 100
2, 399548, Note_off_c, 0, 69, 100
2, 399548, Note_off_c, 0, 66, 100
2, 399552, Note_on_c, 0, 74, 80
2, 399552, Note_on_c, 0, 66, 80
2, 399552, Note_on_c, 0, 69, 80
2, 399692, Note_off_c, 0, 74, 100
2, 399692, Note_off_c, 0, 66, 100
2, 399692, Note_off_c, 0, 69, 100
2, 399696, Note_on_c, 0, 75, 80
2, 399696, Note_on_c, 0, 69, 80
2, 399696, Note_on_c, 0, 66, 80
2, 399740, Note_off_c, 0, 75, 100
2, 399740, Note_off_c, 0, 69, 100
2, 399740, Note_off_c, 0, 66, 100
2, 399744, Note_on_c, 0, 75, 80
2, 399744, Note_on_c, 0, 69, 80
2, 399744, Note_on_c, 0, 66, 80
2, 400124, Note_off_c, 0, 75, 100
2, 400124, Note_off_c, 0, 69, 100
2, 400124, Note_off_c, 0, 66, 100
2, 400128, Note_on_c, 0, 76, 79
2, 400128, Note_on_c, 0, 67, 79
2, 400128, Note_on_c, 0, 64, 79
2, 400508, Note_off_c, 0, 76, 100
2, 400508, Note_off_c, 0, 67, 100
2, 400508, Note_off_c, 0, 64, 100
2, 400512, Note_on_c, 0, 69, 76
2, 400512, Note_on_c, 0, 66, 76
2, 400512, Note_on_c, 0, 63, 76
2, 400892, Note_off_c, 0, 69, 100
2, 400892, Note_off_c, 0, 66, 100
2, 400892, Note_off_c, 0, 63, 100
2, 400896, Note_on_c, 0, 67, 74
2, 400896, Note_on_c, 0, 64, 74
2, 400896, Note_on_c, 0, 59, 74
2, 401276, Note_off_c, 0, 67, 100
2, 401276, Note_off_c, 0, 64, 100
2, 401276, Note_off_c, 0, 59, 100
2, 401280, Note_on_c, 0, 66, 71
2, 401280, Note_on_c, 0, 63, 71
2, 401280, Note_on_c, 0, 60, 71
2, 401280, Note_on_c, 0, 57, 71
2, 401660, Note_off_c, 0, 66, 100
2, 401660, Note_off_c, 0, 63, 100
2, 401660, Note_off_c, 0, 60, 100
2, 401660, Note_off_c, 0, 57, 100
2, 401664, Note_on_c, 0, 63, 68
2, 401664, Note_on_c, 0, 57, 68
2, 401664, Note_on_c, 0, 54, 68
2, 402428, Note_off_c, 0, 54, 100
2, 402428, Note_off_c, 0, 57, 100
2, 402428, Note_off_c, 0, 63, 100
2, 402432, Key_signature, 0, "major"
2, 402432, Note_on_c, 0, 64, 80
2, 402808, Note_off_c, 0, 64, 100
2, 402816, Note_on_c, 0, 69, 83
2, 403192, Note_off_c, 0, 69, 100
2, 403200, Note_on_c, 0, 67, 87
2, 403576, Note_off_c, 0, 67, 100
2, 403584, Note_on_c, 0, 75, 91
2, 403584, Note_on_c, 0, 69, 91
2, 403960, Note_off_c, 0, 75, 100
2, 403960, Note_off_c, 0, 69, 100
2, 403968, Note_on_c, 0, 76, 95
2, 403968, Note_on_c, 0, 67, 95
2, 404344, Note_off_c, 0, 76, 100
2, 404344, Note_off_c, 0, 67, 100
2, 404352, Note_on_c, 0, 81, 99
2, 404352, Note_on_c, 0, 75, 99
2, 404728, Note_off_c, 0, 81, 100
2, 404728, Note_off_c, 0, 75, 100
2, 404736, Note_on_c, 0, 79, 103
2, 404736, Note_on_c, 0, 76, 103
2, 405112, Note_off_c, 0, 79, 100
2, 405112, Note_off_c, 0, 76, 100
2, 405120, Note_on_c, 0, 87, 107
2, 405120, Note_on_c, 0, 81, 107
2, 405496, Note_off_c, 0, 87, 100
2, 405496, Note_off_c, 0, 81, 100
2, 405504, Note_on_c, 0, 88, 120
2, 405504, Note_on_c, 0, 79, 120
2, 405880, Note_off_c, 0, 88, 100
2, 405880, Note_off_c, 0, 79, 100
2, 406272, Note_on_c, 0, 76, 120
2, 406272, Note_on_c, 0, 64, 120
2, 406648, Note_off_c, 0, 76, 100
2, 406648, Note_off_c, 0, 64, 100
2, 407424, Note_on_c, 0, 76, 80
2, 407424, Note_on_c, 0, 64, 80
2, 407800, Note_off_c, 0, 76, 100
2, 407800, Note_off_c, 0, 64, 100
2, 407808, Note_on_c, 0, 78, 80
2, 407808, Note_on_c, 0, 66, 80
2, 408184, Note_off_c, 0, 78, 100
2, 408184, Note_off_c, 0, 66, 100
2, 408192, Note_on_c, 0, 79, 80
2, 408192, Note_on_c, 0, 67, 80
2, 408568, Note_off_c, 0, 79, 100
2, 408568, Note_off_c, 0, 67, 100
2, 408576, Note_on_c, 0, 79, 80
2, 408576, Note_on_c, 0, 67, 80
2, 409336, Note_off_c, 0, 79, 100
2, 409336, Note_off_c, 0, 67, 100
2, 409344, Note_on_c, 0, 78, 80
2, 409344, Note_on_c, 0, 66, 80
2, 409720, Note_off_c, 0, 78, 100
2, 409720, Note_off_c, 0, 66, 100
2, 410496, Note_on_c, 0, 78, 80
2, 410496, Note_on_c, 0, 66, 80
2, 410872, Note_off_c, 0, 78, 100
2, 410872, Note_off_c, 0, 66, 100
2, 410880, Note_on_c, 0, 79, 80
2, 410880, Note_on_c, 0, 67, 80
2, 411256, Note_off_c, 0, 79, 100
2, 411256, Note_off_c, 0, 67, 100
2, 411264, Note_on_c, 0, 69, 80
2, 411264, Note_on_c, 0, 81, 80
2, 411640, Note_off_c, 0, 69, 100
2, 411640, Note_off_c, 0, 81, 100
2, 411648, Note_on_c, 0, 81, 80
2, 411648, Note_on_c, 0, 69, 80
2, 412024, Note_off_c, 0, 81, 100
2, 412024, Note_off_c, 0, 69, 100
2, 412032, Note_on_c, 0, 67, 84
2, 412408, Note_off_c, 0, 67, 100
2, 412416, Note_on_c, 0, 66, 88
2, 412792, Note_off_c, 0, 66, 100
2, 412800, Note_on_c, 0, 73, 92
2, 412800, Note_on_c, 0, 67, 92
2, 413176, Note_off_c, 0, 73, 100
2, 413176, Note_off_c, 0, 67, 100
2, 413184, Note_on_c, 0, 74, 97
2, 413184, Note_on_c, 0, 66, 97
2, 413560, Note_off_c, 0, 74, 100
2, 413560, Note_off_c, 0, 66, 100
2, 413568, Note_on_c, 0, 79, 101
2, 413568, Note_on_c, 0, 73, 101
2, 413944, Note_off_c, 0, 79, 100
2, 413944, Note_off_c, 0, 73, 100
2, 413952, Note_on_c, 0, 74, 105
2, 413952, Note_on_c, 0, 78, 105
2, 414328, Note_off_c, 0, 74, 100
2, 414328, Note_off_c, 0, 78, 100
2, 414336, Note_on_c, 0, 79, 109
2, 414336, Note_on_c, 0, 85, 109
2, 414712, Note_off_c, 0, 79, 100
2, 414712, Note_off_c, 0, 85, 100
2, 414720, Note_on_c, 0, 86, 120
2, 414720, Note_on_c, 0, 78, 120
2, 415096, Note_off_c, 0, 86, 100
2, 415096, Note_off_c, 0, 78, 100
2, 415488, Note_on_c, 0, 78, 120
2, 415488, Note_on_c, 0, 66, 120
2, 415864, Note_off_c, 0, 78, 100
2, 415864, Note_off_c, 0, 66, 100
2, 416640, Note_on_c, 0, 78, 80
2, 416640, Note_on_c, 0, 66, 80
2, 417016, Note_off_c, 0, 78, 100
2, 417016, Note_off_c, 0, 66, 100
2, 417024, Note_on_c, 0, 79, 80
2, 417024, Note_on_c, 0, 67, 80
2, 417400, Note_off_c, 0, 79, 100
2, 417400, Note_off_c, 0, 67, 100
2, 417408, Note_on_c, 0, 81, 80
2, 417408, Note_on_c, 0, 69, 80
2, 417784, Note_off_c, 0, 81, 100
2, 417784, Note_off_c, 0, 69, 100
2, 417792, Note_on_c, 0, 69, 80
2, 417792, Note_on_c, 0, 81, 80
2, 418552, Note_off_c, 0, 69, 100
2, 418552, Note_off_c, 0, 81, 100
2, 418560, Note_on_c, 0, 79, 80
2, 418560, Note_on_c, 0, 67, 80
2, 418936, Note_off_c, 0, 79, 100
2, 418936, Note_off_c, 0, 67, 100
2, 419712, Note_on_c, 0, 79, 80
2, 419712, Note_on_c, 0, 67, 80
2, 420088, Note_off_c, 0, 79, 100
2, 420088, Note_off_c, 0, 67, 100
2, 420096, Note_on_c, 0, 81, 80
2, 420096, Note_on_c, 0, 69, 80
2, 420472, Note_off_c, 0, 81, 100
2, 420472, Note_off_c, 0, 69, 100
2, 420480, Note_on_c, 0, 82, 80
2, 420480, Note_on_c, 0, 70, 80
2, 420856, Note_off_c, 0, 82, 100
2, 420856, Note_off_c, 0, 70, 100
2, 420864, Note_on_c, 0, 70, 80
2, 421048, Note_off_c, 0, 70, 100
2, 421056, Note_on_c, 0, 82, 80
2, 421240, Note_off_c, 0, 82, 100
2, 421248, Note_on_c, 0, 70, 80
2, 421432, Note_off_c, 0, 70, 100
2, 421440, Note_on_c, 0, 82, 80
2, 421624, Note_off_c, 0, 82, 100
2, 421632, Note_on_c, 0, 70, 80
2, 421816, Note_off_c, 0, 70, 100
2, 421824, Note_on_c, 0, 82, 80
2, 422008, Note_off_c, 0, 82, 100
2, 422016, Note_on_c, 0, 70, 80
2, 422200, Note_off_c, 0, 70, 100
2, 422208, Note_on_c, 0, 82, 80
2, 422392, Note_off_c, 0, 82, 100
2, 422400, Note_on_c, 0, 70, 80
2, 422584, Note_off_c, 0, 70, 100
2, 422592, Note_on_c, 0, 82, 80
2, 422776, Note_off_c, 0, 82, 100
2, 422784, Note_on_c, 0, 70, 80
2, 422968, Note_off_c, 0, 70, 100
2, 422976, Note_on_c, 0, 82, 80
2, 423160, Note_off_c, 0, 82, 100
2, 423168, Note_on_c, 0, 70, 80
2, 423352, Note_off_c, 0, 70, 100
2, 423360, Note_on_c, 0, 82, 80
2, 423544, Note_off_c, 0, 82, 100
2, 423552, Note_on_c, 0, 70, 80
2, 423736, Note_off_c, 0, 70, 100
2, 423744, Note_on_c, 0, 82, 80
2, 423928, Note_off_c, 0, 82, 100
2, 423936, Note_on_c, 0, 70, 80
2, 424120, Note_off_c, 0, 70, 100
2, 424128, Note_on_c, 0, 82, 80
2, 424312, Note_off_c, 0, 82, 100
2, 424320, Note_on_c, 0, 70, 80
2, 424504, Note_off_c, 0, 70, 100
2, 424512, Note_on_c, 0, 82, 80
2, 424696, Note_off_c, 0, 82, 100
2, 424704, Note_on_c, 0, 70, 80
2, 424888, Note_off_c, 0, 70, 100
2, 424896, Note_on_c, 0, 82, 80
2, 425080, Note_off_c, 0, 82, 100
2, 425088, Note_on_c, 0, 70, 80
2, 425272, Note_off_c, 0, 70, 100
2, 425280, Note_on_c, 0, 82, 80
2, 425464, Note_off_c, 0, 82, 100
2, 425472, Note_on_c, 0, 70, 80
2, 425656, Note_off_c, 0, 70, 100
2, 425664, Note_on_c, 0, 82, 80
2, 425848, Note_off_c, 0, 82, 100
2, 425856, Note_on_c, 0, 70, 80
2, 426040, Note_off_c, 0, 70, 100
2, 426048, Note_on_c, 0, 82, 80
2, 426232, Note_off_c, 0, 82, 100
2, 426240, Note_on_c, 0, 70, 80
2, 426424, Note_off_c, 0, 70, 100
2, 426432, Note_on_c, 0, 82, 80
2, 426616, Note_off_c, 0, 82, 100
2, 426624, Note_on_c, 0, 70, 80
2, 426808, Note_off_c, 0, 70, 100
2, 426816, Note_on_c, 0, 82, 80
2, 427000, Note_off_c, 0, 82, 100
2, 427008, Note_on_c, 0, 69, 80
2, 427192, Note_off_c, 0, 69, 100
2, 427200, Note_on_c, 0, 81, 80
2, 427384, Note_off_c, 0, 81, 100
2, 427392, Note_on_c, 0, 69, 80
2, 427576, Note_off_c, 0, 69, 100
2, 427584, Note_on_c, 0, 81, 80
2, 427768, Note_off_c, 0, 81, 100
2, 427776, Note_on_c, 0, 69, 80
2, 427960, Note_off_c, 0, 69, 100
2, 427968, Note_on_c, 0, 81, 80
2, 428152, Note_off_c, 0, 81, 100
2, 428160, Note_on_c, 0, 69, 80
2, 428344, Note_off_c, 0, 69, 100
2, 428352, Note_on_c, 0, 81, 80
2, 428536, Note_off_c, 0, 81, 100
2, 428544, Note_on_c, 0, 69, 80
2, 428728, Note_off_c, 0, 69, 100
2, 428736, Note_on_c, 0, 81, 80
2, 428920, Note_off_c, 0, 81, 100
2, 428928, Note_on_c, 0, 69, 80
2, 429112, Note_off_c, 0, 69, 100
2, 429120, Note_on_c, 0, 81, 80
2, 429304, Note_off_c, 0, 81, 100
2, 429312, Note_on_c, 0, 69, 80
2, 429496, Note_off_c, 0, 69, 100
2, 429504, Note_on_c, 0, 81, 80
2, 429688, Note_off_c, 0, 81, 100
2, 429696, Note_on_c, 0, 69, 80
2, 429880, Note_off_c, 0, 69, 100
2, 429888, Note_on_c, 0, 81, 80
2, 430072, Note_off_c, 0, 81, 100
2, 430080, Note_on_c, 0, 69, 80
2, 430264, Note_off_c, 0, 69, 100
2, 430272, Note_on_c, 0, 81, 80
2, 430456, Note_off_c, 0, 81, 100
2, 430464, Note_on_c, 0, 69, 80
2, 430648, Note_off_c, 0, 69, 100
2, 430656, Note_on_c, 0, 81, 80
2, 430840, Note_off_c, 0, 81, 100
2, 430848, Note_on_c, 0, 69, 80
2, 431032, Note_off_c, 0, 69, 100
2, 431040, Note_on_c, 0, 81, 80
2, 431224, Note_off_c, 0, 81, 100
2, 431232, Note_on_c, 0, 69, 80
2, 431416, Note_off_c, 0, 69, 100
2, 431424, Note_on_c, 0, 81, 80
2, 431608, Note_off_c, 0, 81, 100
2, 431616, Note_on_c, 0, 69, 80
2, 431800, Note_off_c, 0, 69, 100
2, 431808, Note_on_c, 0, 81, 80
2, 431992, Note_off_c, 0, 81, 100
2, 432000, Note_on_c, 0, 69, 80
2, 432184, Note_off_c, 0, 69, 100
2, 432192, Note_on_c, 0, 81, 80
2, 432376, Note_off_c, 0, 81, 100
2, 432384, Note_on_c, 0, 69, 80
2, 432568, Note_off_c, 0, 69, 100
2, 432576, Note_on_c, 0, 81, 80
2, 432760, Note_off_c, 0, 81, 100
2, 432768, Note_on_c, 0, 69, 80
2, 432952, Note_off_c, 0, 69, 100
2, 432960, Note_on_c, 0, 81, 80
2, 433144, Note_off_c, 0, 81, 100
2, 433152, Note_on_c, 0, 68, 80
2, 433336, Note_off_c, 0, 68, 100
2, 433344, Note_on_c, 0, 80, 80
2, 433528, Note_off_c, 0, 80, 100
2, 433536, Note_on_c, 0, 68, 80
2, 433720, Note_off_c, 0, 68, 100
2, 433728, Note_on_c, 0, 80, 80
2, 433912, Note_off_c, 0, 80, 100
2, 433920, Note_on_c, 0, 68, 80
2, 434104, Note_off_c, 0, 68, 100
2, 434112, Note_on_c, 0, 80, 80
2, 434296, Note_off_c, 0, 80, 100
2, 434304, Note_on_c, 0, 68, 80
2, 434488, Note_off_c, 0, 68, 100
2, 434496, Note_on_c, 0, 80, 80
2, 434680, Note_off_c, 0, 80, 100
2, 434688, Note_on_c, 0, 68, 80
2, 434872, Note_off_c, 0, 68, 100
2, 434880, Note_on_c, 0, 80, 80
2, 435064, Note_off_c, 0, 80, 100
2, 435072, Note_on_c, 0, 68, 80
2, 435256, Note_off_c, 0, 68, 100
2, 435264, Note_on_c, 0, 80, 80
2, 435448, Note_off_c, 0, 80, 100
2, 435456, Note_on_c, 0, 68, 80
2, 435640, Note_off_c, 0, 68, 100
2, 435648, Note_on_c, 0, 80, 80
2, 435832, Note_off_c, 0, 80, 100
2, 435840, Note_on_c, 0, 68, 80
2, 436024, Note_off_c, 0, 68, 100
2, 436032, Note_on_c, 0, 80, 80
2, 436216, Note_off_c, 0, 80, 100
2, 436224, Note_on_c, 0, 68, 80
2, 436408, Note_off_c, 0, 68, 100
2, 436416, Note_on_c, 0, 80, 80
2, 436600, Note_off_c, 0, 80, 100
2, 436608, Note_on_c, 0, 68, 80
2, 436792, Note_off_c, 0, 68, 100
2, 436800, Note_on_c, 0, 80, 80
2, 436984, Note_off_c, 0, 80, 100
2, 436992, Note_on_c, 0, 68, 80
2, 437176, Note_off_c, 0, 68, 100
2, 437184, Note_on_c, 0, 80, 80
2, 437368, Note_off_c, 0, 80, 100
2, 437376, Note_on_c, 0, 68, 80
2, 437560, Note_off_c, 0, 68, 100
2, 437568, Note_on_c, 0, 80, 80
2, 437752, Note_off_c, 0, 80, 100
2, 437760, Note_on_c, 0, 68, 80
2, 437944, Note_off_c, 0, 68, 100
2, 437952, Note_on_c, 0, 80, 80
2, 438136, Note_off_c, 0, 80, 100
2, 438144, Note_on_c, 0, 67, 80
2, 438328, Note_off_c, 0, 67, 100
2, 438336, Note_on_c, 0, 79, 80
2, 438520, Note_off_c, 0, 79, 100
2, 438528, Note_on_c, 0, 67, 80
2, 438712, Note_off_c, 0, 67, 100
2, 438720, Note_on_c, 0, 79, 80
2, 438904, Note_off_c, 0, 79, 100
2, 438912, Note_on_c, 0, 65, 80
2, 439096, Note_off_c, 0, 65, 100
2, 439104, Note_on_c, 0, 77, 80
2, 439288, Note_off_c, 0, 77, 100
2, 439296, Note_on_c, 0, 65, 80
2, 439480, Note_off_c, 0, 65, 100
2, 439488, Note_on_c, 0, 77, 80
2, 439672, Note_off_c, 0, 77, 100
2, 439680, Note_on_c, 0, 64, 80
2, 439864, Note_off_c, 0, 64, 100
2, 439872, Note_on_c, 0, 76, 80
2, 440056, Note_off_c, 0, 76, 100
2, 440064, Note_on_c, 0, 64, 80
2, 440248, Note_off_c, 0, 64, 100
2, 440256, Note_on_c, 0, 76, 80
2, 440440, Note_off_c, 0, 76, 100
2, 440448, Note_on_c, 0, 61, 80
2, 440632, Note_off_c, 0, 61, 100
2, 440640, Note_on_c, 0, 73, 80
2, 440824, Note_off_c, 0, 73, 100
2, 440832, Note_on_c, 0, 61, 80
2, 441016, Note_off_c, 0, 61, 100
2, 441024, Note_on_c, 0, 73, 80
2, 441208, Note_off_c, 0, 73, 100
2, 441216, Note_on_c, 0, 60, 80
2, 441400, Note_off_c, 0, 60, 100
2, 441408, Note_on_c, 0, 72, 80
2, 441592, Note_off_c, 0, 72, 100
2, 441600, Note_on_c, 0, 60, 80
2, 441784, Note_off_c, 0, 60, 100
2, 441792, Note_on_c, 0, 72, 80
2, 441976, Note_off_c, 0, 72, 100
2, 441984, Note_on_c, 0, 58, 80
2, 442168, Note_off_c, 0, 58, 100
2, 442176, Note_on_c, 0, 70, 80
2, 442360, Note_off_c, 0, 70, 100
2, 442368, Note_on_c, 0, 58, 80
2, 442552, Note_off_c, 0, 58, 100
2, 442560, Note_on_c, 0, 70, 80
2, 442744, Note_off_c, 0, 70, 100
2, 442752, Note_on_c, 0, 56, 80
2, 442936, Note_off_c, 0, 56, 100
2, 442944, Note_on_c, 0, 68, 80
2, 443128, Note_off_c, 0, 68, 100
2, 443136, Note_on_c, 0, 56, 80
2, 443320, Note_off_c, 0, 56, 100
2, 443328, Note_on_c, 0, 68, 80
2, 443512, Note_off_c, 0, 68, 100
2, 443520, Note_on_c, 0, 55, 80
2, 443704, Note_off_c, 0, 55, 100
2, 443712, Note_on_c, 0, 67, 80
2, 443896, Note_off_c, 0, 67, 100
2, 443904, Note_on_c, 0, 55, 80
2, 444088, Note_off_c, 0, 55, 100
2, 444096, Note_on_c, 0, 67, 80
2, 444280, Note_off_c, 0, 67, 100
2, 444288, Note_on_c, 0, 53, 80
2, 444472, Note_off_c, 0, 53, 100
2, 444480, Note_on_c, 0, 65, 80
2, 444664, Note_off_c, 0, 65, 100
2, 444672, Note_on_c, 0, 53, 80
2, 444856, Note_off_c, 0, 53, 100
2, 444864, Note_on_c, 0, 65, 80
2, 445048, Note_off_c, 0, 65, 100
2, 445056, Note_on_c, 0, 51, 80
2, 445240, Note_off_c, 0, 51, 100
2, 445248, Note_on_c, 0, 63, 80
2, 445432, Note_off_c, 0, 63, 100
2, 445440, Note_on_c, 0, 51, 80
2, 445624, Note_off_c, 0, 51, 100
2, 445632, Note_on_c, 0, 63, 80
2, 445816, Note_off_c, 0, 63, 100
2, 445824, Note_on_c, 0, 50, 80
2, 446008, Note_off_c, 0, 50, 100
2, 446016, Note_on_c, 0, 62, 80
2, 446200, Note_off_c, 0, 62, 100
2, 446208, Note_on_c, 0, 50, 80
2, 446392, Note_off_c, 0, 50, 100
2, 446400, Note_on_c, 0, 62, 80
2, 446584, Note_off_c, 0, 62, 100
2, 446592, Note_on_c, 0, 51, 80
2, 446776, Note_off_c, 0, 51, 100
2, 446784, Note_on_c, 0, 63, 80
2, 446968, Note_off_c, 0, 63, 100
2, 446976, Note_on_c, 0, 51, 80
2, 447160, Note_off_c, 0, 51, 100
2, 447168, Note_on_c, 0, 63, 80
2, 447352, Note_off_c, 0, 63, 100
2, 447360, Note_on_c, 0, 50, 80
2, 447544, Note_off_c, 0, 50, 100
2, 447552, Note_on_c, 0, 62, 80
2, 447736, Note_off_c, 0, 62, 100
2, 447744, Note_on_c, 0, 50, 80
2, 447928, Note_off_c, 0, 50, 100
2, 447936, Note_on_c, 0, 62, 80
2, 448120, Note_off_c, 0, 62, 100
2, 448128, Note_on_c, 0, 48, 80
2, 448312, Note_off_c, 0, 48, 100
2, 448320, Note_on_c, 0, 60, 80
2, 448504, Note_off_c, 0, 60, 100
2, 448512, Note_on_c, 0, 59, 80
2, 448512, Note_on_c, 0, 47, 80
2, 448888, Note_off_c, 0, 59, 100
2, 448888, Note_off_c, 0, 47, 100
2, 449280, Note_on_c, 0, 49, 70
2, 449464, Note_off_c, 0, 49, 100
2, 449472, Note_on_c, 0, 56, 70
2, 449656, Note_off_c, 0, 56, 100
2, 449664, Note_on_c, 0, 52, 70
2, 449848, Note_off_c, 0, 52, 100
2, 449856, Note_on_c, 0, 49, 70
2, 450040, Note_off_c, 0, 49, 100
2, 450048, Note_on_c, 0, 50, 70
2, 450232, Note_off_c, 0, 50, 100
2, 450240, Note_on_c, 0, 56, 70
2, 450424, Note_off_c, 0, 56, 100
2, 450432, Note_on_c, 0, 53, 70
2, 450616, Note_off_c, 0, 53, 100
2, 450624, Note_on_c, 0, 50, 70
2, 450808, Note_off_c, 0, 50, 100
2, 450816, Note_on_c, 0, 48, 70
2, 451000, Note_off_c, 0, 48, 100
2, 451008, Note_on_c, 0, 56, 70
2, 451192, Note_off_c, 0, 56, 100
2, 451200, Note_on_c, 0, 51, 70
2, 451384, Note_off_c, 0, 51, 100
2, 451392, Note_on_c, 0, 48, 70
2, 451576, Note_off_c, 0, 48, 100
2, 451584, Note_on_c, 0, 47, 70
2, 451768, Note_off_c, 0, 47, 100
2, 451776, Note_on_c, 0, 55, 70
2, 451960, Note_off_c, 0, 55, 100
2, 451968, Note_on_c, 0, 50, 70
2, 452152, Note_off_c, 0, 50, 100
2, 452160, Note_on_c, 0, 47, 70
2, 452344, Note_off_c, 0, 47, 100
2, 452352, Note_on_c, 0, 49, 70
2, 452536, Note_off_c, 0, 49, 100
2, 452544, Note_on_c, 0, 56, 70
2, 452728, Note_off_c, 0, 56, 100
2, 452736, Note_on_c, 0, 52, 70
2, 452920, Note_off_c, 0, 52, 100
2, 452928, Note_on_c, 0, 49, 70
2, 453112, Note_off_c, 0, 49, 100
2, 453120, Note_on_c, 0, 50, 70
2, 453304, Note_off_c, 0, 50, 100
2, 453312, Note_on_c, 0, 56, 70
2, 453496, Note_off_c, 0, 56, 100
2, 453504, Note_on_c, 0, 53, 70
2, 453688, Note_off_c, 0, 53, 100
2, 453696, Note_on_c, 0, 50, 70
2, 453880, Note_off_c, 0, 50, 100
2, 453888, Note_on_c, 0, 48, 70
2, 454072, Note_off_c, 0, 48, 100
2, 454080, Note_on_c, 0, 56, 70
2, 454264, Note_off_c, 0, 56, 100
2, 454272, Note_on_c, 0, 51, 70
2, 454456, Note_off_c, 0, 51, 100
2, 454464, Note_on_c, 0, 48, 70
2, 454648, Note_off_c, 0, 48, 100
2, 454656, Note_on_c, 0, 55, 80
2, 454656, Note_on_c, 0, 50, 80
2, 454656, Note_on_c, 0, 47, 80
2, 455032, Note_off_c, 0, 55, 100
2, 455032, Note_off_c, 0, 50, 100
2, 455032, Note_off_c, 0, 47, 100
2, 455040, Note_on_c, 0, 64, 83
2, 455416, Note_off_c, 0, 64, 100
2, 455424, Note_on_c, 0, 65, 87
2, 455800, Note_off_c, 0, 65, 100
2, 455808, Note_on_c, 0, 73, 91
2, 455808, Note_on_c, 0, 64, 91
2, 456184, Note_off_c, 0, 73, 100
2, 456184, Note_off_c, 0, 64, 100
2, 456192, Note_on_c, 0, 74, 95
2, 456192, Note_on_c, 0, 65, 95
2, 456568, Note_off_c, 0, 74, 100
2, 456568, Note_off_c, 0, 65, 100
2, 456576, Note_on_c, 0, 76, 99
2, 456576, Note_on_c, 0, 73, 99
2, 456952, Note_off_c, 0, 76, 100
2, 456952, Note_off_c, 0, 73, 100
2, 456960, Note_on_c, 0, 77, 103
2, 456960, Note_on_c, 0, 74, 103
2, 457336, Note_off_c, 0, 77, 100
2, 457336, Note_off_c, 0, 74, 100
2, 457344, Note_on_c, 0, 85, 107
2, 457344, Note_on_c, 0, 76, 107
2, 457720, Note_off_c, 0, 85, 100
2, 457720, Note_off_c, 0, 76, 100
2, 457728, Note_on_c, 0, 86, 120
2, 457728, Note_on_c, 0, 77, 120
2, 458104, Note_off_c, 0, 86, 100
2, 458104, Note_off_c, 0, 77, 100
2, 458112, Note_on_c, 0, 88, 120
2, 458112, Note_on_c, 0, 85, 120
2, 458488, Note_off_c, 0, 88, 100
2, 458488, Note_off_c, 0, 85, 100
2, 458496, Note_on_c, 0, 89, 120
2, 458496, Note_on_c, 0, 86, 120
2, 460024, Note_off_c, 0, 86, 100
2, 460024, Note_off_c, 0, 89, 100
2, 460032, Note_on_c, 0, 87, 120
2, 460032, Note_on_c, 0, 84, 120
2, 460128, Note_on_c, 0, 89, 120
2, 460216, Note_off_c, 0, 87, 100
2, 460224, Note_on_c, 0, 87, 120
2, 460312, Note_off_c, 0, 89, 100
2, 460320, Note_on_c, 0, 89, 120
2, 460408, Note_off_c, 0, 87, 100
2, 460416, Note_on_c, 0, 87, 120
2, 460504, Note_off_c, 0, 89, 100
2, 460512, Note_on_c, 0, 89, 120
2, 460600, Note_off_c, 0, 87, 100
2, 460608, Note_on_c, 0, 86, 120
2, 460696, Note_off_c, 0, 89, 100
2, 460704, Note_on_c, 0, 87, 120
2, 460792, Note_off_c, 0, 84, 100
2, 460792, Note_off_c, 0, 86, 100
2, 460792, Note_off_c, 0, 87, 100
2, 460800, Note_on_c, 0, 83, 120
2, 460800, Note_on_c, 0, 86, 120
2, 461176, Note_off_c, 0, 83, 100
2, 461176, Note_off_c, 0, 86, 100
2, 461568, Note_on_c, 0, 49, 70
2, 461752, Note_off_c, 0, 49, 100
2, 461760, Note_on_c, 0, 56, 70
2, 461944, Note_off_c, 0, 56, 100
2, 461952, Note_on_c, 0, 52, 70
2, 462136, Note_off_c, 0, 52, 100
2, 462144, Note_on_c, 0, 49, 70
2, 462328, Note_off_c, 0, 49, 100
2, 462336, Note_on_c, 0, 50, 70
2, 462520, Note_off_c, 0, 50, 100
2, 462528, Note_on_c, 0, 56, 70
2, 462712, Note_off_c, 0, 56, 100
2, 462720, Note_on_c, 0, 53, 70
2, 462904, Note_off_c, 0, 53, 100
2, 462912, Note_on_c, 0, 50, 70
2, 463096, Note_off_c, 0, 50, 100
2, 463104, Note_on_c, 0, 48, 70
2, 463288, Note_off_c, 0, 48, 100
2, 463296, Note_on_c, 0, 56, 70
2, 463480, Note_off_c, 0, 56, 100
2, 463488, Note_on_c, 0, 51, 70
2, 463672, Note_off_c, 0, 51, 100
2, 463680, Note_on_c, 0, 48, 70
2, 463864, Note_off_c, 0, 48, 100
2, 463872, Note_on_c, 0, 47, 70
2, 464056, Note_off_c, 0, 47, 100
2, 464064, Note_on_c, 0, 55, 70
2, 464248, Note_off_c, 0, 55, 100
2, 464256, Note_on_c, 0, 50, 70
2, 464440, Note_off_c, 0, 50, 100
2, 464448, Note_on_c, 0, 47, 70
2, 464632, Note_off_c, 0, 47, 100
2, 464640, Note_on_c, 0, 49, 70
2, 464824, Note_off_c, 0, 49, 100
2, 464832, Note_on_c, 0, 56, 70
2, 465016, Note_off_c, 0, 56, 100
2, 465024, Note_on_c, 0, 52, 70
2, 465208, Note_off_c, 0, 52, 100
2, 465216, Note_on_c, 0, 49, 70
2, 465400, Note_off_c, 0, 49, 100
2, 465408, Note_on_c, 0, 50, 70
2, 465592, Note_off_c, 0, 50, 100
2, 465600, Note_on_c, 0, 56, 70
2, 465784, Note_off_c, 0, 56, 100
2, 465792, Note_on_c, 0, 53, 70
2, 465976, Note_off_c, 0, 53, 100
2, 465984, Note_on_c, 0, 50, 70
2, 466168, Note_off_c, 0, 50, 100
2, 466176, Note_on_c, 0, 48, 70
2, 466360, Note_off_c, 0, 48, 100
2, 466368, Note_on_c, 0, 56, 70
2, 466552, Note_off_c, 0, 56, 100
2, 466560, Note_on_c, 0, 51, 70
2, 466744, Note_off_c, 0, 51, 100
2, 466752, Note_on_c, 0, 48, 70
2, 466936, Note_off_c, 0, 48, 100
2, 466944, Note_on_c, 0, 55, 80
2, 466944, Note_on_c, 0, 50, 80
2, 466944, Note_on_c, 0, 47, 80
2, 467320, Note_off_c, 0, 55, 100
2, 467320, Note_off_c, 0, 50, 100
2, 467320, Note_off_c, 0, 47, 100
2, 467328, Note_on_c, 0, 64, 83
2, 467704, Note_off_c, 0, 64, 100
2, 467712, Note_on_c, 0, 65, 87
2, 468088, Note_off_c, 0, 65, 100
2, 468096, Note_on_c, 0, 73, 91
2, 468096, Note_on_c, 0, 64, 91
2, 468472, Note_off_c, 0, 73, 100
2, 468472, Note_off_c, 0, 64, 100
2, 468480, Note_on_c, 0, 74, 95
2, 468480, Note_on_c, 0, 65, 95
2, 468856, Note_off_c, 0, 74, 100
2, 468856, Note_off_c, 0, 65, 100
2, 468864, Note_on_c, 0, 76, 99
2, 468864, Note_on_c, 0, 73, 99
2, 469240, Note_off_c, 0, 76, 100
2, 469240, Note_off_c, 0, 73, 100
2, 469248, Note_on_c, 0, 77, 103
2, 469248, Note_on_c, 0, 74, 103
2, 469624, Note_off_c, 0, 77, 100
2, 469624, Note_off_c, 0, 74, 100
2, 469632, Note_on_c, 0, 85, 107
2, 469632, Note_on_c, 0, 76, 107
2, 470008, Note_off_c, 0, 85, 100
2, 470008, Note_off_c, 0, 76, 100
2, 470016, Note_on_c, 0, 86, 120
2, 470016, Note_on_c, 0, 77, 120
2, 470392, Note_off_c, 0, 86, 100
2, 470392, Note_off_c, 0, 77, 100
2, 470400, Note_on_c, 0, 88, 120
2, 470400, Note_on_c, 0, 85, 120
2, 470776, Note_off_c, 0, 88, 100
2, 470776, Note_off_c, 0, 85, 100
2, 470784, Note_on_c, 0, 89, 120
2, 470784, Note_on_c, 0, 86, 120
2, 472312, Note_off_c, 0, 86, 100
2, 472312, Note_off_c, 0, 89, 100
2, 472320, Note_on_c, 0, 87, 120
2, 472320, Note_on_c, 0, 84, 120
2, 472416, Note_on_c, 0, 89, 120
2, 472504, Note_off_c, 0, 87, 100
2, 472512, Note_on_c, 0, 87, 120
2, 472600, Note_off_c, 0, 89, 100
2, 472608, Note_on_c, 0, 89, 120
2, 472696, Note_off_c, 0, 87, 100
2, 472704, Note_on_c, 0, 87, 120
2, 472792, Note_off_c, 0, 89, 100
2, 472800, Note_on_c, 0, 89, 120
2, 472888, Note_off_c, 0, 87, 100
2, 472896, Note_on_c, 0, 86, 120
2, 472984, Note_off_c, 0, 89, 100
2, 472992, Note_on_c, 0, 87, 120
2, 473080, Note_off_c, 0, 84, 100
2, 473080, Note_off_c, 0, 86, 100
2, 473080, Note_off_c, 0, 87, 100
2, 473088, Note_on_c, 0, 86, 120
2, 473088, Note_on_c, 0, 83, 120
2, 473464, Note_off_c, 0, 86, 100
2, 473464, Note_off_c, 0, 83, 100
2, 473472, Note_on_c, 0, 88, 120
2, 473472, Note_on_c, 0, 85, 120
2, 473848, Note_off_c, 0, 88, 100
2, 473848, Note_off_c, 0, 85, 100
2, 473856, Note_on_c, 0, 89, 126
2, 473856, Note_on_c, 0, 86, 126
2, 475384, Note_off_c, 0, 86, 100
2, 475384, Note_off_c, 0, 89, 100
2, 475392, Note_on_c, 0, 87, 120
2, 475392, Note_on_c, 0, 84, 120
2, 475488, Note_on_c, 0, 89, 120
2, 475576, Note_off_c, 0, 87, 100
2, 475584, Note_on_c, 0, 87, 120
2, 475672, Note_off_c, 0, 89, 100
2, 475680, Note_on_c, 0, 89, 120
2, 475768, Note_off_c, 0, 87, 100
2, 475776, Note_on_c, 0, 87, 120
2, 475864, Note_off_c, 0, 89, 100
2, 475872, Note_on_c, 0, 89, 120
2, 475960, Note_off_c, 0, 87, 100
2, 475968, Note_on_c, 0, 86, 120
2, 476056, Note_off_c, 0, 89, 100
2, 476064, Note_on_c, 0, 87, 120
2, 476152, Note_off_c, 0, 84, 100
2, 476152, Note_off_c, 0, 86, 100
2, 476152, Note_off_c, 0, 87, 100
2, 476160, Note_on_c, 0, 86, 120
2, 476160, Note_on_c, 0, 83, 120
2, 476536, Note_off_c, 0, 86, 100
2, 476536, Note_off_c, 0, 83, 100
2, 476544, Note_on_c, 0, 88, 120
2, 476544, Note_on_c, 0, 85, 120
2, 476920, Note_off_c, 0, 88, 100
2, 476920, Note_off_c, 0, 85, 100
2, 476928, Note_on_c, 0, 89, 127
2, 476928, Note_on_c, 0, 86, 127
2, 478456, Note_off_c, 0, 86, 100
2, 478456, Note_off_c, 0, 89, 100
2, 478464, Note_on_c, 0, 87, 120
2, 478464, Note_on_c, 0, 84, 120
2, 478560, Note_on_c, 0, 89, 120
2, 478648, Note_off_c, 0, 87, 100
2, 478656, Note_on_c, 0, 87, 120
2, 478744, Note_off_c, 0, 89, 100
2, 478752, Note_on_c, 0, 89, 120
2, 478840, Note_off_c, 0, 87, 100
2, 478848, Note_on_c, 0, 87, 120
2, 478936, Note_off_c, 0, 89, 100
2, 478944, Note_on_c, 0, 89, 120
2, 479032, Note_off_c, 0, 87, 100
2, 479040, Note_on_c, 0, 86, 120
2, 479128, Note_off_c, 0, 89, 100
2, 479136, Note_on_c, 0, 87, 120
2, 479224, Note_off_c, 0, 84, 100
2, 479224, Note_off_c, 0, 86, 100
2, 479224, Note_off_c, 0, 87, 100
2, 479232, Note_on_c, 0, 83, 120
2, 479232, Note_on_c, 0, 86, 120
2, 479416, Note_off_c, 0, 83, 100
2, 479416, Note_off_c, 0, 86, 100
2, 479424, Note_on_c, 0, 89, 110
2, 479608, Note_off_c, 0, 89, 100
2, 479616, Note_on_c, 0, 86, 106
2, 479800, Note_off_c, 0, 86, 100
2, 479808, Note_on_c, 0, 84, 101
2, 479992, Note_off_c, 0, 84, 100
2, 480000, Note_on_c, 0, 83, 96
2, 480184, Note_off_c, 0, 83, 100
2, 480192, Note_on_c, 0, 89, 91
2, 480376, Note_off_c, 0, 89, 100
2, 480384, Note_on_c, 0, 86, 86
2, 480568, Note_off_c, 0, 86, 100
2, 480576, Note_on_c, 0, 84, 81
2, 480760, Note_off_c, 0, 84, 100
2, 480768, Note_on_c, 0, 83, 80
2, 480952, Note_off_c, 0, 83, 100
2, 480960, Note_on_c, 0, 89, 80
2, 481144, Note_off_c, 0, 89, 100
2, 481152, Note_on_c, 0, 86, 80
2, 481336, Note_off_c, 0, 86, 100
2, 481344, Note_on_c, 0, 84, 80
2, 481528, Note_off_c, 0, 84, 100
2, 481536, Note_on_c, 0, 83, 80
2, 481720, Note_off_c, 0, 83, 100
2, 481728, Note_on_c, 0, 86, 80
2, 481912, Note_off_c, 0, 86, 100
2, 481920, Note_on_c, 0, 83, 80
2, 482104, Note_off_c, 0, 83, 100
2, 482112, Note_on_c, 0, 79, 80
2, 482296, Note_off_c, 0, 79, 100
2, 482304, Note_on_c, 0, 80, 80
2, 482488, Note_off_c, 0, 80, 100
2, 482496, Note_on_c, 0, 82, 80
2, 482680, Note_off_c, 0, 82, 100
2, 482688, Note_on_c, 0, 80, 80
2, 482872, Note_off_c, 0, 80, 100
2, 482880, Note_on_c, 0, 79, 80
2, 483064, Note_off_c, 0, 79, 100
2, 483072, Note_on_c, 0, 77, 80
2, 483256, Note_off_c, 0, 77, 100
2, 483264, Note_on_c, 0, 80, 80
2, 483448, Note_off_c, 0, 80, 100
2, 483456, Note_on_c, 0, 77, 80
2, 483640, Note_off_c, 0, 77, 100
2, 483648, Note_on_c, 0, 75, 80
2, 483832, Note_off_c, 0, 75, 100
2, 483840, Note_on_c, 0, 74, 80
2, 484024, Note_off_c, 0, 74, 100
2, 484032, Note_on_c, 0, 77, 80
2, 484216, Note_off_c, 0, 77, 100
2, 484224, Note_on_c, 0, 74, 80
2, 484408, Note_off_c, 0, 74, 100
2, 484416, Note_on_c, 0, 72, 80
2, 484600, Note_off_c, 0, 72, 100
2, 484608, Note_on_c, 0, 71, 80
2, 484792, Note_off_c, 0, 71, 100
2, 484800, Note_on_c, 0, 74, 80
2, 484984, Note_off_c, 0, 74, 100
2, 484992, Note_on_c, 0, 71, 80
2, 485176, Note_off_c, 0, 71, 100
2, 485184, Note_on_c, 0, 67, 80
2, 485368, Note_off_c, 0, 67, 100
2, 485376, Note_on_c, 0, 68, 80
2, 485560, Note_off_c, 0, 68, 100
2, 485568, Note_on_c, 0, 70, 80
2, 485752, Note_off_c, 0, 70, 100
2, 485760, Note_on_c, 0, 68, 80
2, 485944, Note_off_c, 0, 68, 100
2, 485952, Note_on_c, 0, 67, 80
2, 486136, Note_off_c, 0, 67, 100
2, 486144, Note_on_c, 0, 65, 80
2, 486328, Note_off_c, 0, 65, 100
2, 486336, Note_on_c, 0, 68, 80
2, 486520, Note_off_c, 0, 68, 100
2, 486528, Note_on_c, 0, 65, 80
2, 486712, Note_off_c, 0, 65, 100
2, 486720, Note_on_c, 0, 63, 80
2, 486904, Note_off_c, 0, 63, 100
2, 486912, Note_on_c, 0, 62, 80
2, 487096, Note_off_c, 0, 62, 100
2, 487104, Note_on_c, 0, 65, 80
2, 487288, Note_off_c, 0, 65, 100
2, 487296, Note_on_c, 0, 62, 80
2, 487480, Note_off_c, 0, 62, 100
2, 487488, Note_on_c, 0, 60, 80
2, 487672, Note_off_c, 0, 60, 100
2, 487680, Note_on_c, 0, 59, 80
2, 487864, Note_off_c, 0, 59, 100
2, 487872, Note_on_c, 0, 62, 80
2, 488056, Note_off_c, 0, 62, 100
2, 488064, Note_on_c, 0, 59, 80
2, 488248, Note_off_c, 0, 59, 100
2, 488256, Note_on_c, 0, 55, 80
2, 488440, Note_off_c, 0, 55, 100
2, 488448, Note_on_c, 0, 56, 80
2, 488632, Note_off_c, 0, 56, 100
2, 488640, Note_on_c, 0, 58, 80
2, 488824, Note_off_c, 0, 58, 100
2, 488832, Note_on_c, 0, 56, 80
2, 489016, Note_off_c, 0, 56, 100
2, 489024, Note_on_c, 0, 55, 80
2, 489208, Note_off_c, 0, 55, 100
2, 489216, Note_on_c, 0, 53, 80
2, 489400, Note_off_c, 0, 53, 100
2, 489408, Note_on_c, 0, 51, 80
2, 489592, Note_off_c, 0, 51, 100
2, 489600, Note_on_c, 0, 50, 80
2, 489784, Note_off_c, 0, 50, 100
2, 489792, Note_on_c, 0, 48, 80
2, 489976, Note_off_c, 0, 48, 100
2, 489984, Note_on_c, 0, 47, 80
2, 490168, Note_off_c, 0, 47, 100
2, 490176, Note_on_c, 0, 48, 80
2, 490360, Note_off_c, 0, 48, 100
2, 490368, Note_on_c, 0, 47, 80
2, 490552, Note_off_c, 0, 47, 100
2, 490560, Note_on_c, 0, 44, 80
2, 490744, Note_off_c, 0, 44, 100
2, 491520, Key_signature, -3, "minor"
2, 491520, Note_on_c, 0, 60, 80
2, 492664, Note_off_c, 0, 60, 100
2, 492672, Note_on_c, 0, 64, 80
2, 492672, Note_on_c, 0, 58, 80
2, 493048, Note_off_c, 0, 64, 100
2, 493048, Note_off_c, 0, 58, 100
2, 493056, Note_on_c, 0, 65, 80
2, 493056, Note_on_c, 0, 56, 80
2, 493432, Note_off_c, 0, 65, 100
2, 493432, Note_off_c, 0, 56, 100
2, 493440, Note_on_c, 0, 67, 80
2, 493440, Note_on_c, 0, 64, 80
2, 493816, Note_off_c, 0, 67, 100
2, 493816, Note_off_c, 0, 64, 100
2, 493824, Note_on_c, 0, 68, 80
2, 493824, Note_on_c, 0, 65, 80
2, 494200, Note_off_c, 0, 68, 100
2, 494200, Note_off_c, 0, 65, 100
2, 494208, Note_on_c, 0, 71, 80
2, 494208, Note_on_c, 0, 62, 80
2, 494584, Note_off_c, 0, 71, 100
2, 494584, Note_off_c, 0, 62, 100
2, 494592, Note_on_c, 0, 72, 80
2, 494592, Note_on_c, 0, 63, 80
2, 494968, Note_off_c, 0, 72, 100
2, 494968, Note_off_c, 0, 63, 100
2, 494976, Note_on_c, 0, 72, 100
2, 494976, Note_on_c, 0, 64, 100
2, 495736, Note_off_c, 0, 72, 100
2, 495736, Note_off_c, 0, 64, 100
2, 495744, Note_on_c, 0, 76, 80
2, 495744, Note_on_c, 0, 70, 80
2, 496120, Note_off_c, 0, 76, 100
2, 496120, Note_off_c, 0, 70, 100
2, 496128, Note_on_c, 0, 77, 80
2, 496128, Note_on_c, 0, 68, 80
2, 496504, Note_off_c, 0, 77, 100
2, 496504, Note_off_c, 0, 68, 100
2, 496512, Note_on_c, 0, 79, 80
2, 496512, Note_on_c, 0, 76, 80
2, 496888, Note_off_c, 0, 79, 100
2, 496888, Note_off_c, 0, 76, 100
2, 496896, Note_on_c, 0, 80, 80
2, 496896, Note_on_c, 0, 77, 80
2, 497272, Note_off_c, 0, 80, 100
2, 497272, Note_off_c, 0, 77, 100
2, 497280, Note_on_c, 0, 83, 80
2, 497280, Note_on_c, 0, 74, 80
2, 497656, Note_off_c, 0, 83, 100
2, 497656, Note_off_c, 0, 74, 100
2, 497664, Note_on_c, 0, 84, 80
2, 497664, Note_on_c, 0, 79, 80
2, 497664, Note_on_c, 0, 75, 80
2, 497664, Note_on_c, 0, 72, 80
2, 498424, Note_off_c, 0, 84, 100
2, 498424, Note_off_c, 0, 79, 100
2, 498424, Note_off_c, 0, 75, 100
2, 498424, Note_off_c, 0, 72, 100
2, 498432, Note_on_c, 0, 79, 85
2, 498432, Note_on_c, 0, 77, 85
2, 498432, Note_on_c, 0, 71, 85
2, 498432, Note_on_c, 0, 67, 85
2, 499192, Note_off_c, 0, 79, 100
2, 499192, Note_off_c, 0, 77, 100
2, 499192, Note_off_c, 0, 71, 100
2, 499192, Note_off_c, 0, 67, 100
2, 499200, Note_on_c, 0, 75, 90
2, 499200, Note_on_c, 0, 72, 90
2, 499200, Note_on_c, 0, 67, 90
2, 499960, Note_off_c, 0, 75, 100
2, 499960, Note_off_c, 0, 72, 100
2, 499960, Note_off_c, 0, 67, 100
2, 499968, Note_on_c, 0, 74, 96
2, 499968, Note_on_c, 0, 68, 96
2, 499968, Note_on_c, 0, 65, 96
2, 500728, Note_off_c, 0, 74, 100
2, 500728, Note_off_c, 0, 68, 100
2, 500728, Note_off_c, 0, 65, 100
2, 500736, Note_on_c, 0, 67, 101
2, 500736, Note_on_c, 0, 72, 101
2, 500736, Note_on_c, 0, 63, 101
2, 501496, Note_off_c, 0, 67, 100
2, 501504, Note_on_c, 0, 66, 107
2, 502264, Note_off_c, 0, 66, 100
2, 502272, Note_on_c, 0, 69, 110
2, 503032, Note_off_c, 0, 63, 100
2, 503032, Note_off_c, 0, 72, 100
2, 503032, Note_off_c, 0, 69, 100
2, 503040, Note_on_c, 0, 71, 110
2, 503040, Note_on_c, 0, 65, 110
2, 503040, Note_on_c, 0, 62, 110
2, 503800, Note_off_c, 0, 71, 100
2, 503800, Note_off_c, 0, 65, 100
2, 503800, Note_off_c, 0, 62, 100
2, 503808, Note_on_c, 0, 72, 80
2, 503808, Note_on_c, 0, 63, 80
2, 503808, Note_on_c, 0, 60, 80
2, 504184, Note_off_c, 0, 72, 100
2, 504184, Note_off_c, 0, 63, 100
2, 504184, Note_off_c, 0, 60, 100
2, 504192, Note_on_c, 0, 60, 80
2, 504952, Note_off_c, 0, 60, 100
2, 504960, Note_on_c, 0, 64, 80
2, 504960, Note_on_c, 0, 58, 80
2, 505336, Note_off_c, 0, 64, 100
2, 505336, Note_off_c, 0, 58, 100
2, 505344, Note_on_c, 0, 65, 80
2, 505344, Note_on_c, 0, 56, 80
2, 505720, Note_off_c, 0, 65, 100
2, 505720, Note_off_c, 0, 56, 100
2, 505728, Note_on_c, 0, 67, 80
2, 505728, Note_on_c, 0, 64, 80
2, 506104, Note_off_c, 0, 67, 100
2, 506104, Note_off_c, 0, 64, 100
2, 506112, Note_on_c, 0, 68, 80
2, 506112, Note_on_c, 0, 65, 80
2, 506488, Note_off_c, 0, 68, 100
2, 506488, Note_off_c, 0, 65, 100
2, 506496, Note_on_c, 0, 71, 80
2, 506496, Note_on_c, 0, 62, 80
2, 506872, Note_off_c, 0, 71, 100
2, 506872, Note_off_c, 0, 62, 100
2, 506880, Note_on_c, 0, 72, 80
2, 506880, Note_on_c, 0, 63, 80
2, 507256, Note_off_c, 0, 72, 100
2, 507256, Note_off_c, 0, 63, 100
2, 507264, Note_on_c, 0, 72, 80
2, 507264, Note_on_c, 0, 64, 80
2, 508024, Note_off_c, 0, 72, 100
2, 508024, Note_off_c, 0, 64, 100
2, 508032, Note_on_c, 0, 76, 80
2, 508032, Note_on_c, 0, 70, 80
2, 508408, Note_off_c, 0, 76, 100
2, 508408, Note_off_c, 0, 70, 100
2, 508416, Note_on_c, 0, 77, 80
2, 508416, Note_on_c, 0, 68, 80
2, 508792, Note_off_c, 0, 77, 100
2, 508792, Note_off_c, 0, 68, 100
2, 508800, Note_on_c, 0, 79, 80
2, 508800, Note_on_c, 0, 76, 80
2, 509176, Note_off_c, 0, 79, 100
2, 509176, Note_off_c, 0, 76, 100
2, 509184, Note_on_c, 0, 80, 80
2, 509184, Note_on_c, 0, 77, 80
2, 509560, Note_off_c, 0, 80, 100
2, 509560, Note_off_c, 0, 77, 100
2, 509568, Note_on_c, 0, 83, 80
2, 509568, Note_on_c, 0, 74, 80
2, 509944, Note_off_c, 0, 83, 100
2, 509944, Note_off_c, 0, 74, 100
2, 509952, Note_on_c, 0, 84, 80
2, 509952, Note_on_c, 0, 79, 80
2, 509952, Note_on_c, 0, 72, 80
2, 509952, Note_on_c, 0, 75, 80
2, 510712, Note_off_c, 0, 84, 100
2, 510712, Note_off_c, 0, 79, 100
2, 510712, Note_off_c, 0, 72, 100
2, 510712, Note_off_c, 0, 75, 100
2, 510720, Note_on_c, 0, 80, 83
2, 510720, Note_on_c, 0, 75, 83
2, 510720, Note_on_c, 0, 68, 83
2, 511480, Note_off_c, 0, 80, 100
2, 511480, Note_off_c, 0, 75, 100
2, 511480, Note_off_c, 0, 68, 100
2, 511488, Note_on_c, 0, 77, 87
2, 511488, Note_on_c, 0, 73, 87
2, 511488, Note_on_c, 0, 68, 87
2, 512248, Note_off_c, 0, 77, 100
2, 512248, Note_off_c, 0, 73, 100
2, 512248, Note_off_c, 0, 68, 100
2, 512256, Note_on_c, 0, 75, 91
2, 512256, Note_on_c, 0, 72, 91
2, 512256, Note_on_c, 0, 66, 91
2, 513016, Note_off_c, 0, 75, 100
2, 513016, Note_off_c, 0, 72, 100
2, 513016, Note_off_c, 0, 66, 100
2, 513024, Note_on_c, 0, 73, 95
2, 513024, Note_on_c, 0, 68, 95
2, 513024, Note_on_c, 0, 65, 95
2, 513784, Note_off_c, 0, 73, 100
2, 513784, Note_off_c, 0, 68, 100
2, 513784, Note_off_c, 0, 65, 100
2, 513792, Note_on_c, 0, 70, 99
2, 513792, Note_on_c, 0, 66, 99
2, 513792, Note_on_c, 0, 61, 99
2, 514552, Note_off_c, 0, 70, 100
2, 514552, Note_off_c, 0, 66, 100
2, 514552, Note_off_c, 0, 61, 100
2, 514560, Note_on_c, 0, 68, 103
2, 514560, Note_on_c, 0, 65, 103
2, 514560, Note_on_c, 0, 61, 103
2, 515320, Note_off_c, 0, 65, 100
2, 515320, Note_off_c, 0, 61, 100
2, 515328, Note_on_c, 0, 63, 107
2, 515328, Note_on_c, 0, 60, 107
2, 516088, Note_off_c, 0, 68, 100
2, 516088, Note_off_c, 0, 63, 100
2, 516088, Note_off_c, 0, 60, 100
2, 516096, Note_on_c, 0, 70, 80
2, 516096, Note_on_c, 0, 65, 80
2, 516096, Note_on_c, 0, 62, 80
2, 516856, Note_off_c, 0, 70, 100
2, 516856, Note_off_c, 0, 65, 100
2, 516856, Note_off_c, 0, 62, 100
2, 516864, Note_on_c, 0, 82, 83
2, 516864, Note_on_c, 0, 77, 83
2, 516864, Note_on_c, 0, 70, 83
2, 517624, Note_off_c, 0, 82, 100
2, 517624, Note_off_c, 0, 77, 100
2, 517624, Note_off_c, 0, 70, 100
2, 517632, Note_on_c, 0, 78, 87
2, 517632, Note_on_c, 0, 75, 87
2, 517632, Note_on_c, 0, 70, 87
2, 518392, Note_off_c, 0, 78, 100
2, 518392, Note_off_c, 0, 75, 100
2, 518392, Note_off_c, 0, 70, 100
2, 518400, Note_on_c, 0, 77, 91
2, 518400, Note_on_c, 0, 74, 91
2, 518400, Note_on_c, 0, 68, 91
2, 519160, Note_off_c, 0, 77, 100
2, 519160, Note_off_c, 0, 74, 100
2, 519160, Note_off_c, 0, 68, 100
2, 519168, Note_on_c, 0, 75, 95
2, 519168, Note_on_c, 0, 70, 95
2, 519168, Note_on_c, 0, 66, 95
2, 519928, Note_off_c, 0, 75, 100
2, 519928, Note_off_c, 0, 70, 100
2, 519928, Note_off_c, 0, 66, 100
2, 519936, Note_on_c, 0, 71, 99
2, 519936, Note_on_c, 0, 68, 99
2, 519936, Note_on_c, 0, 63, 99
2, 520696, Note_off_c, 0, 71, 100
2, 520696, Note_off_c, 0, 68, 100
2, 520696, Note_off_c, 0, 63, 100
2, 520704, Note_on_c, 0, 70, 103
2, 520704, Note_on_c, 0, 66, 103
2, 520704, Note_on_c, 0, 63, 103
2, 521464, Note_off_c, 0, 66, 100
2, 521464, Note_off_c, 0, 63, 100
2, 521472, Note_on_c, 0, 65, 107
2, 521472, Note_on_c, 0, 62, 107
2, 522232, Note_off_c, 0, 70, 100
2, 522232, Note_off_c, 0, 65, 100
2, 522232, Note_off_c, 0, 62, 100
2, 522240, Note_on_c, 0, 72, 90
2, 522240, Note_on_c, 0, 67, 90
2, 522240, Note_on_c, 0, 64, 90
2, 523000, Note_off_c, 0, 72, 100
2, 523000, Note_off_c, 0, 67, 100
2, 523000, Note_off_c, 0, 64, 100
2, 523008, Note_on_c, 0, 84, 93
2, 523008, Note_on_c, 0, 79, 93
2, 523008, Note_on_c, 0, 72, 93
2, 523768, Note_off_c, 0, 84, 100
2, 523768, Note_off_c, 0, 79, 100
2, 523768, Note_off_c, 0, 72, 100
2, 523776, Note_on_c, 0, 80, 97
2, 523776, Note_on_c, 0, 77, 97
2, 523776, Note_on_c, 0, 72, 97
2, 524536, Note_off_c, 0, 80, 100
2, 524536, Note_off_c, 0, 77, 100
2, 524536, Note_off_c, 0, 72, 100
2, 524544, Note_on_c, 0, 79, 101
2, 524544, Note_on_c, 0, 76, 101
2, 524544, Note_on_c, 0, 70, 101
2, 525304, Note_off_c, 0, 79, 100
2, 525304, Note_off_c, 0, 76, 100
2, 525304, Note_off_c, 0, 70, 100
2, 525312, Note_on_c, 0, 77, 104
2, 525312, Note_on_c, 0, 72, 104
2, 525312, Note_on_c, 0, 68, 104
2, 526072, Note_off_c, 0, 77, 100
2, 526072, Note_off_c, 0, 72, 100
2, 526072, Note_off_c, 0, 68, 100
2, 526080, Note_on_c, 0, 73, 108
2, 526080, Note_on_c, 0, 65, 108
2, 526840, Note_off_c, 0, 73, 100
2, 526840, Note_off_c, 0, 65, 100
2, 526848, Note_on_c, 0, 72, 112
2, 526848, Note_on_c, 0, 65, 112
2, 527608, Note_off_c, 0, 72, 100
2, 527608, Note_off_c, 0, 65, 100
2, 527616, Note_on_c, 0, 71, 116
2, 527616, Note_on_c, 0, 65, 116
2, 528376, Note_off_c, 0, 71, 100
2, 528376, Note_off_c, 0, 65, 100
2, 528384, Note_on_c, 0, 72, 119
2, 528384, Note_on_c, 0, 64, 119
2, 528760, Note_off_c, 0, 72, 100
2, 528760, Note_off_c, 0, 64, 100
2, 528768, Note_on_c, 0, 59, 106
2, 529144, Note_off_c, 0, 59, 100
2, 529152, Note_on_c, 0, 60, 80
2, 529528, Note_off_c, 0, 60, 100
2, 529536, Note_on_c, 0, 59, 80
2, 529912, Note_off_c, 0, 59, 100
2, 529920, Note_on_c, 0, 60, 80
2, 530296, Note_off_c, 0, 60, 100
2, 530304, Note_on_c, 0, 59, 80
2, 530680, Note_off_c, 0, 59, 100
2, 530688, Note_on_c, 0, 60, 80
2, 531064, Note_off_c, 0, 60, 100
2, 531072, Note_on_c, 0, 59, 80
2, 531448, Note_off_c, 0, 59, 100
2, 531840, Note_on_c, 0, 48, 80
2, 532216, Note_off_c, 0, 48, 100
2, 532224, Note_on_c, 0, 53, 80
2, 532600, Note_off_c, 0, 53, 100
2, 532608, Note_on_c, 0, 55, 80
2, 532984, Note_off_c, 0, 55, 100
2, 532992, Note_on_c, 0, 56, 80
2, 533368, Note_off_c, 0, 56, 100
2, 533376, Note_on_c, 0, 72, 80
2, 533752, Note_off_c, 0, 72, 100
2, 533760, Note_on_c, 0, 77, 80
2, 534136, Note_off_c, 0, 77, 100
2, 534144, Note_on_c, 0, 79, 80
2, 534520, Note_off_c, 0, 79, 100
2, 534528, Note_on_c, 0, 72, 100
2, 534616, Note_off_c, 0, 72, 100
2, 534624, Note_on_c, 0, 80, 100
2, 535672, Note_off_c, 0, 80, 100
2, 535680, Note_on_c, 0, 77, 80
2, 536056, Note_off_c, 0, 77, 100
2, 536064, Note_on_c, 0, 72, 100
2, 536152, Note_off_c, 0, 72, 100
2, 536160, Note_on_c, 0, 80, 100
2, 537208, Note_off_c, 0, 80, 100
2, 537216, Note_on_c, 0, 77, 80
2, 537592, Note_off_c, 0, 77, 100
2, 537600, Note_on_c, 0, 76, 80
2, 537976, Note_off_c, 0, 76, 100
2, 537984, Note_on_c, 0, 48, 80
2, 538360, Note_off_c, 0, 48, 100
2, 538368, Note_on_c, 0, 55, 80
2, 538744, Note_off_c, 0, 55, 100
2, 538752, Note_on_c, 0, 56, 80
2, 539128, Note_off_c, 0, 56, 100
2, 539136, Note_on_c, 0, 58, 80
2, 539512, Note_off_c, 0, 58, 100
2, 539520, Note_on_c, 0, 72, 80
2, 539896, Note_off_c, 0, 72, 100
2, 539904, Note_on_c, 0, 82, 80
2, 540280, Note_off_c, 0, 82, 100
2, 540288, Note_on_c, 0, 80, 80
2, 540664, Note_off_c, 0, 80, 100
2, 540672, Note_on_c, 0, 80, 80
2, 540760, Note_off_c, 0, 80, 100
2, 540768, Note_on_c, 0, 82, 80
2, 540856, Note_off_c, 0, 82, 100
2, 540864, Note_on_c, 0, 80, 80
2, 541048, Note_off_c, 0, 80, 100
2, 541056, Note_on_c, 0, 79, 80
2, 541432, Note_off_c, 0, 79, 100
2, 541440, Note_on_c, 0, 79, 80
2, 541528, Note_off_c, 0, 79, 100
2, 541536, Note_on_c, 0, 80, 80
2, 541624, Note_off_c, 0, 80, 100
2, 541632, Note_on_c, 0, 79, 80
2, 541816, Note_off_c, 0, 79, 100
2, 541824, Note_on_c, 0, 77, 80
2, 542200, Note_off_c, 0, 77, 100
2, 542208, Note_on_c, 0, 77, 80
2, 542296, Note_off_c, 0, 77, 100
2, 542304, Note_on_c, 0, 79, 80
2, 542392, Note_off_c, 0, 79, 100
2, 542400, Note_on_c, 0, 77, 80
2, 542584, Note_off_c, 0, 77, 100
2, 542592, Note_on_c, 0, 76, 80
2, 542968, Note_off_c, 0, 76, 100
2, 542976, Note_on_c, 0, 74, 80
2, 543352, Note_off_c, 0, 74, 100
2, 543360, Note_on_c, 0, 76, 80
2, 543736, Note_off_c, 0, 76, 100
2, 543744, Note_on_c, 0, 77, 80
2, 544120, Note_off_c, 0, 77, 100
2, 544128, Note_on_c, 0, 48, 80
2, 544504, Note_off_c, 0, 48, 100
2, 544512, Note_on_c, 0, 53, 80
2, 544888, Note_off_c, 0, 53, 100
2, 544896, Note_on_c, 0, 55, 80
2, 545272, Note_off_c, 0, 55, 100
2, 545280, Note_on_c, 0, 56, 80
2, 545656, Note_off_c, 0, 56, 100
2, 545664, Note_on_c, 0, 72, 80
2, 546040, Note_off_c, 0, 72, 100
2, 546048, Note_on_c, 0, 77, 80
2, 546424, Note_off_c, 0, 77, 100
2, 546432, Note_on_c, 0, 80, 80
2, 546808, Note_off_c, 0, 80, 100
2, 546816, Note_on_c, 0, 72, 100
2, 546904, Note_off_c, 0, 72, 100
2, 546912, Note_on_c, 0, 84, 100
2, 547960, Note_off_c, 0, 84, 100
2, 547968, Note_on_c, 0, 77, 80
2, 548344, Note_off_c, 0, 77, 100
2, 548352, Note_on_c, 0, 77, 100
2, 548440, Note_off_c, 0, 77, 100
2, 548448, Note_on_c, 0, 89, 100
2, 549496, Note_off_c, 0, 89, 100
2, 549504, Note_on_c, 0, 84, 80
2, 549880, Note_off_c, 0, 84, 100
2, 549888, Note_on_c, 0, 83, 80
2, 550264, Note_off_c, 0, 83, 100
2, 550272, Note_on_c, 0, 43, 80
2, 550648, Note_off_c, 0, 43, 100
2, 550656, Note_on_c, 0, 50, 80
2, 551032, Note_off_c, 0, 50, 100
2, 551040, Note_on_c, 0, 51, 80
2, 551416, Note_off_c, 0, 51, 100
2, 551424, Note_on_c, 0, 53, 80
2, 551800, Note_off_c, 0, 53, 100
2, 551808, Note_on_c, 0, 67, 80
2, 552184, Note_off_c, 0, 67, 100
2, 552192, Note_on_c, 0, 77, 80
2, 552568, Note_off_c, 0, 77, 100
2, 552576, Note_on_c, 0, 75, 80
2, 552952, Note_off_c, 0, 75, 100
2, 552960, Note_on_c, 0, 75, 80
2, 553048, Note_off_c, 0, 75, 100
2, 553056, Note_on_c, 0, 77, 80
2, 553144, Note_off_c, 0, 77, 100
2, 553152, Note_on_c, 0, 75, 80
2, 553336, Note_off_c, 0, 75, 100
2, 553344, Note_on_c, 0, 74, 80
2, 553720, Note_off_c, 0, 74, 100
2, 553728, Note_on_c, 0, 74, 80
2, 553816, Note_off_c, 0, 74, 100
2, 553824, Note_on_c, 0, 75, 80
2, 553912, Note_off_c, 0, 75, 100
2, 553920, Note_on_c, 0, 74, 80
2, 554104, Note_off_c, 0, 74, 100
2, 554112, Note_on_c, 0, 72, 80
2, 554488, Note_off_c, 0, 72, 100
2, 554496, Note_on_c, 0, 72, 80
2, 554584, Note_off_c, 0, 72, 100
2, 554592, Note_on_c, 0, 74, 80
2, 554680, Note_off_c, 0, 74, 100
2, 554688, Note_on_c, 0, 72, 80
2, 554872, Note_off_c, 0, 72, 100
2, 554880, Note_on_c, 0, 71, 80
2, 555256, Note_off_c, 0, 71, 100
2, 555264, Note_on_c, 0, 69, 80
2, 555640, Note_off_c, 0, 69, 100
2, 555648, Note_on_c, 0, 71, 80
2, 556024, Note_off_c, 0, 71, 100
2, 556032, Note_on_c, 0, 72, 80
2, 556408, Note_off_c, 0, 72, 100
2, 556416, Note_on_c, 0, 43, 80
2, 556792, Note_off_c, 0, 43, 100
2, 556800, Note_on_c, 0, 48, 80
2, 557176, Note_off_c, 0, 48, 100
2, 557184, Note_on_c, 0, 50, 80
2, 557560, Note_off_c, 0, 50, 100
2, 557568, Note_on_c, 0, 51, 80
2, 557944, Note_off_c, 0, 51, 100
2, 557952, Note_on_c, 0, 79, 80
2, 558328, Note_off_c, 0, 79, 100
2, 558336, Note_on_c, 0, 84, 80
2, 558712, Note_off_c, 0, 84, 100
2, 558720, Note_on_c, 0, 86, 80
2, 559096, Note_off_c, 0, 86, 100
2, 559104, Note_on_c, 0, 79, 100
2, 559192, Note_off_c, 0, 79, 100
2, 559200, Note_on_c, 0, 87, 100
2, 560248, Note_off_c, 0, 87, 100
2, 560256, Note_on_c, 0, 84, 80
2, 560632, Note_off_c, 0, 84, 100
2, 560640, Note_on_c, 0, 79, 100
2, 560728, Note_off_c, 0, 79, 100
2, 560736, Note_on_c, 0, 87, 100
2, 561784, Note_off_c, 0, 87, 100
2, 561792, Note_on_c, 0, 84, 80
2, 562168, Note_off_c, 0, 84, 100
2, 562176, Note_on_c, 0, 83, 80
2, 562552, Note_off_c, 0, 83, 100
2, 562560, Note_on_c, 0, 43, 80
2, 562936, Note_off_c, 0, 43, 100
2, 562944, Note_on_c, 0, 50, 80
2, 563320, Note_off_c, 0, 50, 100
2, 563328, Note_on_c, 0, 51, 80
2, 563704, Note_off_c, 0, 51, 100
2, 563712, Note_on_c, 0, 53, 80
2, 564088, Note_off_c, 0, 53, 100
2, 564096, Note_on_c, 0, 79, 80
2, 564472, Note_off_c, 0, 79, 100
2, 564480, Note_on_c, 0, 89, 80
2, 564856, Note_off_c, 0, 89, 100
2, 564864, Note_on_c, 0, 87, 80
2, 565240, Note_off_c, 0, 87, 100
2, 565248, Note_on_c, 0, 87, 80
2, 565336, Note_off_c, 0, 87, 100
2, 565344, Note_on_c, 0, 89, 80
2, 565432, Note_off_c, 0, 89, 100
2, 565440, Note_on_c, 0, 87, 80
2, 565624, Note_off_c, 0, 87, 100
2, 565632, Note_on_c, 0, 86, 80
2, 566008, Note_off_c, 0, 86, 100
2, 566016, Note_on_c, 0, 86, 80
2, 566104, Note_off_c, 0, 86, 100
2, 566112, Note_on_c, 0, 87, 80
2, 566200, Note_off_c, 0, 87, 100
2, 566208, Note_on_c, 0, 86, 80
2, 566392, Note_off_c, 0, 86, 100
2, 566400, Note_on_c, 0, 84, 80
2, 566776, Note_off_c, 0, 84, 100
2, 566784, Note_on_c, 0, 84, 80
2, 566872, Note_off_c, 0, 84, 100
2, 566880, Note_on_c, 0, 86, 80
2, 566968, Note_off_c, 0, 86, 100
2, 566976, Note_on_c, 0, 84, 80
2, 567160, Note_off_c, 0, 84, 100
2, 567168, Note_on_c, 0, 83, 80
2, 567544, Note_off_c, 0, 83, 100
2, 567552, Note_on_c, 0, 81, 80
2, 567928, Note_off_c, 0, 81, 100
2, 567936, Note_on_c, 0, 83, 80
2, 568312, Note_off_c, 0, 83, 100
2, 568320, Note_on_c, 0, 86, 80
2, 568408, Note_off_c, 0, 86, 100
2, 568416, Note_on_c, 0, 87, 80
2, 568504, Note_off_c, 0, 87, 100
2, 568512, Note_on_c, 0, 86, 80
2, 568696, Note_off_c, 0, 86, 100
2, 568704, Note_on_c, 0, 84, 80
2, 569080, Note_off_c, 0, 84, 100
2, 569088, Note_on_c, 0, 84, 80
2, 569176, Note_off_c, 0, 84, 100
2, 569184, Note_on_c, 0, 86, 79
2, 569272, Note_off_c, 0, 86, 100
2, 569280, Note_on_c, 0, 84, 79
2, 569464, Note_off_c, 0, 84, 100
2, 569472, Note_on_c, 0, 82, 79
2, 569848, Note_off_c, 0, 82, 100
2, 569856, Note_on_c, 0, 82, 79
2, 569944, Note_off_c, 0, 82, 100
2, 569952, Note_on_c, 0, 84, 78
2, 570040, Note_off_c, 0, 84, 100
2, 570048, Note_on_c, 0, 82, 78
2, 570232, Note_off_c, 0, 82, 100
2, 570240, Note_on_c, 0, 81, 78
2, 570616, Note_off_c, 0, 81, 100
2, 570624, Note_on_c, 0, 79, 78
2, 571000, Note_off_c, 0, 79, 100
2, 571008, Note_on_c, 0, 81, 77
2, 571384, Note_off_c, 0, 81, 100
2, 571392, Note_on_c, 0, 84, 77
2, 571480, Note_off_c, 0, 84, 100
2, 571488, Note_on_c, 0, 85, 77
2, 571576, Note_off_c, 0, 85, 100
2, 571584, Note_on_c, 0, 84, 76
2, 571768, Note_off_c, 0, 84, 100
2, 571776, Note_on_c, 0, 82, 76
2, 572152, Note_off_c, 0, 82, 100
2, 572160, Note_on_c, 0, 82, 76
2, 572248, Note_off_c, 0, 82, 100
2, 572256, Note_on_c, 0, 84, 76
2, 572344, Note_off_c, 0, 84, 100
2, 572352, Note_on_c, 0, 82, 75
2, 572536, Note_off_c, 0, 82, 100
2, 572544, Note_on_c, 0, 80, 75
2, 572920, Note_off_c, 0, 80, 100
2, 572928, Note_on_c, 0, 80, 75
2, 573016, Note_off_c, 0, 80, 100
2, 573024, Note_on_c, 0, 82, 75
2, 573112, Note_off_c, 0, 82, 100
2, 573120, Note_on_c, 0, 80, 74
2, 573304, Note_off_c, 0, 80, 100
2, 573312, Note_on_c, 0, 79, 74
2, 573688, Note_off_c, 0, 79, 100
2, 573696, Note_on_c, 0, 77, 74
2, 574072, Note_off_c, 0, 77, 100
2, 574080, Note_on_c, 0, 79, 73
2, 574456, Note_off_c, 0, 79, 100
2, 574464, Note_on_c, 0, 82, 73
2, 574552, Note_off_c, 0, 82, 100
2, 574560, Note_on_c, 0, 84, 73
2, 574648, Note_off_c, 0, 84, 100
2, 574656, Note_on_c, 0, 82, 73
2, 574840, Note_off_c, 0, 82, 100
2, 574848, Note_on_c, 0, 80, 72
2, 575224, Note_off_c, 0, 80, 100
2, 575232, Note_on_c, 0, 80, 72
2, 575320, Note_off_c, 0, 80, 100
2, 575328, Note_on_c, 0, 82, 72
2, 575416, Note_off_c, 0, 82, 100
2, 575424, Note_on_c, 0, 80, 72
2, 575608, Note_off_c, 0, 80, 100
2, 575616, Note_on_c, 0, 79, 71
2, 575992, Note_off_c, 0, 79, 100
2, 576000, Note_on_c, 0, 79, 71
2, 576088, Note_off_c, 0, 79, 100
2, 576096, Note_on_c, 0, 80, 71
2, 576184, Note_off_c, 0, 80, 100
2, 576192, Note_on_c, 0, 79, 71
2, 576376, Note_off_c, 0, 79, 100
2, 576384, Note_on_c, 0, 78, 70
2, 576760, Note_off_c, 0, 78, 100
2, 576768, Note_on_c, 0, 78, 70
2, 577144, Note_off_c, 0, 78, 100
2, 577152, Note_on_c, 0, 78, 69
2, 577528, Note_off_c, 0, 78, 100
2, 577536, Note_on_c, 0, 80, 69
2, 577624, Note_off_c, 0, 80, 100
2, 577632, Note_on_c, 0, 82, 69
2, 577720, Note_off_c, 0, 82, 100
2, 577728, Note_on_c, 0, 80, 69
2, 577912, Note_off_c, 0, 80, 100
2, 577920, Note_on_c, 0, 79, 68
2, 578296, Note_off_c, 0, 79, 100
2, 578304, Note_on_c, 0, 79, 68
2, 578680, Note_off_c, 0, 79, 100
2, 578688, Note_on_c, 0, 79, 67
2, 579064, Note_off_c, 0, 79, 100
2, 579072, Note_on_c, 0, 80, 67
2, 579160, Note_off_c, 0, 80, 100
2, 579168, Note_on_c, 0, 82, 67
2, 579256, Note_off_c, 0, 82, 100
2, 579264, Note_on_c, 0, 80, 67
2, 579448, Note_off_c, 0, 80, 100
2, 579456, Note_on_c, 0, 79, 66
2, 579832, Note_off_c, 0, 79, 100
2, 579840, Note_on_c, 0, 79, 66
2, 580216, Note_off_c, 0, 79, 100
2, 580224, Note_on_c, 0, 79, 66
2, 580600, Note_off_c, 0, 79, 100
2, 580800, Note_on_c, 0, 60, 80
2, 580984, Note_off_c, 0, 60, 100
2, 580992, Note_on_c, 0, 63, 80
2, 581176, Note_off_c, 0, 63, 100
2, 581184, Note_on_c, 0, 60, 80
2, 581368, Note_off_c, 0, 60, 100
2, 581376, Note_on_c, 0, 72, 80
2, 581568, Note_on_c, 0, 60, 80
2, 581752, Note_off_c, 0, 60, 100
2, 581760, Note_on_c, 0, 63, 80
2, 581944, Note_off_c, 0, 63, 100
2, 581952, Note_on_c, 0, 60, 80
2, 582136, Note_off_c, 0, 60, 100
2, 582144, Note_on_c, 0, 63, 80
2, 582328, Note_off_c, 0, 63, 100
2, 582336, Note_on_c, 0, 60, 80
2, 582520, Note_off_c, 0, 60, 100
2, 582528, Note_on_c, 0, 63, 80
2, 582712, Note_off_c, 0, 63, 100
2, 582720, Note_on_c, 0, 60, 80
2, 582904, Note_off_c, 0, 72, 100
2, 582904, Note_off_c, 0, 60, 100
2, 582912, Note_on_c, 0, 72, 80
2, 583104, Note_on_c, 0, 60, 80
2, 583288, Note_off_c, 0, 60, 100
2, 583296, Note_on_c, 0, 63, 80
2, 583480, Note_off_c, 0, 63, 100
2, 583488, Note_on_c, 0, 60, 80
2, 583672, Note_off_c, 0, 72, 100
2, 583672, Note_off_c, 0, 60, 100
2, 583872, Note_on_c, 0, 61, 80
2, 584056, Note_off_c, 0, 61, 100
2, 584064, Note_on_c, 0, 64, 80
2, 584248, Note_off_c, 0, 64, 100
2, 584256, Note_on_c, 0, 61, 80
2, 584440, Note_off_c, 0, 61, 100
2, 584448, Note_on_c, 0, 73, 80
2, 584640, Note_on_c, 0, 61, 80
2, 584824, Note_off_c, 0, 61, 100
2, 584832, Note_on_c, 0, 64, 80
2, 585016, Note_off_c, 0, 64, 100
2, 585024, Note_on_c, 0, 61, 80
2, 585208, Note_off_c, 0, 61, 100
2, 585216, Note_on_c, 0, 64, 80
2, 585400, Note_off_c, 0, 64, 100
2, 585408, Note_on_c, 0, 61, 80
2, 585592, Note_off_c, 0, 61, 100
2, 585600, Note_on_c, 0, 64, 80
2, 585784, Note_off_c, 0, 64, 100
2, 585792, Note_on_c, 0, 61, 80
2, 585976, Note_off_c, 0, 73, 100
2, 585976, Note_off_c, 0, 61, 100
2, 585984, Note_on_c, 0, 73, 80
2, 586176, Note_on_c, 0, 61, 80
2, 586360, Note_off_c, 0, 61, 100
2, 586368, Note_on_c, 0, 64, 80
2, 586552, Note_off_c, 0, 64, 100
2, 586560, Note_on_c, 0, 61, 80
2, 586744, Note_off_c, 0, 73, 100
2, 586744, Note_off_c, 0, 61, 100
2, 586752, Note_on_c, 0, 72, 80
2, 586936, Note_off_c, 0, 72, 100
2, 586944, Note_on_c, 0, 60, 80
2, 587128, Note_off_c, 0, 60, 100
2, 587136, Note_on_c, 0, 65, 81
2, 587320, Note_off_c, 0, 65, 100
2, 587328, Note_on_c, 0, 60, 82
2, 587512, Note_off_c, 0, 60, 100
2, 587520, Note_on_c, 0, 76, 83
2, 587704, Note_off_c, 0, 76, 100
2, 587712, Note_on_c, 0, 64, 84
2, 587896, Note_off_c, 0, 64, 100
2, 587904, Note_on_c, 0, 72, 85
2, 588088, Note_off_c, 0, 72, 100
2, 588096, Note_on_c, 0, 64, 85
2, 588280, Note_off_c, 0, 64, 100
2, 588288, Note_on_c, 0, 77, 86
2, 588472, Note_off_c, 0, 77, 100
2, 588480, Note_on_c, 0, 65, 87
2, 588664, Note_off_c, 0, 65, 100
2, 588672, Note_on_c, 0, 72, 88
2, 588856, Note_off_c, 0, 72, 100
2, 588864, Note_on_c, 0, 65, 89
2, 589048, Note_off_c, 0, 65, 100
2, 589056, Note_on_c, 0, 79, 90
2, 589240, Note_off_c, 0, 79, 100
2, 589248, Note_on_c, 0, 67, 91
2, 589432, Note_off_c, 0, 67, 100
2, 589440, Note_on_c, 0, 72, 91
2, 589624, Note_off_c, 0, 72, 100
2, 589632, Note_on_c, 0, 67, 92
2, 589816, Note_off_c, 0, 67, 100
2, 589824, Note_on_c, 0, 80, 93
2, 590008, Note_off_c, 0, 80, 100
2, 590016, Note_on_c, 0, 68, 94
2, 590200, Note_off_c, 0, 68, 100
2, 590208, Note_on_c, 0, 72, 95
2, 590392, Note_off_c, 0, 72, 100
2, 590400, Note_on_c, 0, 68, 96
2, 590584, Note_off_c, 0, 68, 100
2, 590592, Note_on_c, 0, 81, 97
2, 590776, Note_off_c, 0, 81, 100
2, 590784, Note_on_c, 0, 69, 97
2, 590968, Note_off_c, 0, 69, 100
2, 590976, Note_on_c, 0, 72, 98
2, 591160, Note_off_c, 0, 72, 100
2, 591168, Note_on_c, 0, 69, 99
2, 591352, Note_off_c, 0, 69, 100
2, 591360, Note_on_c, 0, 83, 100
2, 591544, Note_off_c, 0, 83, 100
2, 591552, Note_on_c, 0, 71, 101
2, 591736, Note_off_c, 0, 71, 100
2, 591744, Note_on_c, 0, 77, 102
2, 591928, Note_off_c, 0, 77, 100
2, 591936, Note_on_c, 0, 71, 102
2, 592120, Note_off_c, 0, 71, 100
2, 592128, Note_on_c, 0, 84, 103
2, 592312, Note_off_c, 0, 84, 100
2, 592320, Note_on_c, 0, 72, 104
2, 592504, Note_off_c, 0, 72, 100
2, 592512, Note_on_c, 0, 77, 105
2, 592696, Note_off_c, 0, 77, 100
2, 592704, Note_on_c, 0, 72, 106
2, 592888, Note_off_c, 0, 72, 100
2, 592896, Note_on_c, 0, 86, 107
2, 593080, Note_off_c, 0, 86, 100
2, 593088, Note_on_c, 0, 74, 108
2, 593272, Note_off_c, 0, 74, 100
2, 593280, Note_on_c, 0, 77, 108
2, 593464, Note_off_c, 0, 77, 100
2, 593472, Note_on_c, 0, 74, 109
2, 593656, Note_off_c, 0, 74, 100
2, 593664, Note_on_c, 0, 88, 110
2, 593848, Note_off_c, 0, 88, 100
2, 593856, Note_on_c, 0, 76, 111
2, 594040, Note_off_c, 0, 76, 100
2, 594048, Note_on_c, 0, 79, 112
2, 594232, Note_off_c, 0, 79, 100
2, 594240, Note_on_c, 0, 76, 113
2, 594424, Note_off_c, 0, 76, 100
2, 594432, Note_on_c, 0, 89, 114
2, 594616, Note_off_c, 0, 89, 100
2, 594624, Note_on_c, 0, 77, 114
2, 594808, Note_off_c, 0, 77, 100
2, 594816, Note_on_c, 0, 80, 115
2, 595000, Note_off_c, 0, 80, 100
2, 595008, Note_on_c, 0, 77, 116
2, 595192, Note_off_c, 0, 77, 100
2, 595200, Note_on_c, 0, 86, 117
2, 595384, Note_off_c, 0, 86, 100
2, 595392, Note_on_c, 0, 77, 118
2, 595576, Note_off_c, 0, 77, 100
2, 595584, Note_on_c, 0, 80, 119
2, 595768, Note_off_c, 0, 80, 100
2, 595776, Note_on_c, 0, 77, 119
2, 595960, Note_off_c, 0, 77, 100
2, 596160, Note_on_c, 0, 75, 110
2, 596344, Note_off_c, 0, 75, 100
2, 596352, Note_on_c, 0, 79, 110
2, 596536, Note_off_c, 0, 79, 100
2, 596544, Note_on_c, 0, 75, 110
2, 596728, Note_off_c, 0, 75, 100
2, 596736, Note_on_c, 0, 84, 110
2, 596920, Note_off_c, 0, 84, 100
2, 596928, Note_on_c, 0, 75, 110
2, 597112, Note_off_c, 0, 75, 100
2, 597120, Note_on_c, 0, 79, 110
2, 597304, Note_off_c, 0, 79, 100
2, 597312, Note_on_c, 0, 75, 110
2, 597496, Note_off_c, 0, 75, 100
2, 597696, Note_on_c, 0, 74, 110
2, 597880, Note_off_c, 0, 74, 100
2, 597888, Note_on_c, 0, 77, 110
2, 598072, Note_off_c, 0, 77, 100
2, 598080, Note_on_c, 0, 74, 110
2, 598264, Note_off_c, 0, 74, 100
2, 598272, Note_on_c, 0, 83, 110
2, 598456, Note_off_c, 0, 83, 100
2, 598464, Note_on_c, 0, 74, 110
2, 598648, Note_off_c, 0, 74, 100
2, 598656, Note_on_c, 0, 77, 110
2, 598840, Note_off_c, 0, 77, 100
2, 598848, Note_on_c, 0, 74, 110
2, 599032, Note_off_c, 0, 74, 100
2, 599232, Note_on_c, 0, 60, 80
2, 599416, Note_off_c, 0, 60, 100
2, 599424, Note_on_c, 0, 63, 80
2, 599608, Note_off_c, 0, 63, 100
2, 599616, Note_on_c, 0, 60, 80
2, 599800, Note_off_c, 0, 60, 100
2, 599808, Note_on_c, 0, 72, 80
2, 600000, Note_on_c, 0, 60, 80
2, 600184, Note_off_c, 0, 60, 100
2, 600192, Note_on_c, 0, 63, 80
2, 600376, Note_off_c, 0, 63, 100
2, 600384, Note_on_c, 0, 60, 80
2, 600568, Note_off_c, 0, 60, 100
2, 600576, Note_on_c, 0, 63, 80
2, 600760, Note_off_c, 0, 63, 100
2, 600768, Note_on_c, 0, 60, 80
2, 600952, Note_off_c, 0, 60, 100
2, 600960, Note_on_c, 0, 63, 80
2, 601144, Note_off_c, 0, 63, 100
2, 601152, Note_on_c, 0, 60, 80
2, 601336, Note_off_c, 0, 72, 100
2, 601336, Note_off_c, 0, 60, 100
2, 601344, Note_on_c, 0, 72, 80
2, 601536, Note_on_c, 0, 60, 80
2, 601720, Note_off_c, 0, 60, 100
2, 601728, Note_on_c, 0, 63, 80
2, 601912, Note_off_c, 0, 63, 100
2, 601920, Note_on_c, 0, 60, 80
2, 602104, Note_off_c, 0, 72, 100
2, 602104, Note_off_c, 0, 60, 100
2, 602304, Note_on_c, 0, 61, 80
2, 602488, Note_off_c, 0, 61, 100
2, 602496, Note_on_c, 0, 64, 80
2, 602680, Note_off_c, 0, 64, 100
2, 602688, Note_on_c, 0, 61, 80
2, 602872, Note_off_c, 0, 61, 100
2, 602880, Note_on_c, 0, 73, 80
2, 603072, Note_on_c, 0, 61, 80
2, 603256, Note_off_c, 0, 61, 100
2, 603264, Note_on_c, 0, 64, 80
2, 603448, Note_off_c, 0, 64, 100
2, 603456, Note_on_c, 0, 61, 80
2, 603640, Note_off_c, 0, 61, 100
2, 603648, Note_on_c, 0, 64, 80
2, 603832, Note_off_c, 0, 64, 100
2, 603840, Note_on_c, 0, 61, 80
2, 604024, Note_off_c, 0, 61, 100
2, 604032, Note_on_c, 0, 64, 80
2, 604216, Note_off_c, 0, 64, 100
2, 604224, Note_on_c, 0, 61, 80
2, 604408, Note_off_c, 0, 73, 100
2, 604408, Note_off_c, 0, 61, 100
2, 604416, Note_on_c, 0, 73, 80
2, 604608, Note_on_c, 0, 61, 80
2, 604792, Note_off_c, 0, 61, 100
2, 604800, Note_on_c, 0, 64, 80
2, 604984, Note_off_c, 0, 64, 100
2, 604992, Note_on_c, 0, 61, 80
2, 605176, Note_off_c, 0, 73, 100
2, 605176, Note_off_c, 0, 61, 100
2, 605184, Note_on_c, 0, 72, 80
2, 605368, Note_off_c, 0, 72, 100
2, 605376, Note_on_c, 0, 60, 80
2, 605560, Note_off_c, 0, 60, 100
2, 605568, Note_on_c, 0, 65, 81
2, 605752, Note_off_c, 0, 65, 100
2, 605760, Note_on_c, 0, 60, 82
2, 605944, Note_off_c, 0, 60, 100
2, 605952, Note_on_c, 0, 76, 83
2, 606136, Note_off_c, 0, 76, 100
2, 606144, Note_on_c, 0, 64, 84
2, 606328, Note_off_c, 0, 64, 100
2, 606336, Note_on_c, 0, 72, 85
2, 606520, Note_off_c, 0, 72, 100
2, 606528, Note_on_c, 0, 64, 85
2, 606712, Note_off_c, 0, 64, 100
2, 606720, Note_on_c, 0, 77, 86
2, 606904, Note_off_c, 0, 77, 100
2, 606912, Note_on_c, 0, 65, 87
2, 607096, Note_off_c, 0, 65, 100
2, 607104, Note_on_c, 0, 72, 88
2, 607288, Note_off_c, 0, 72, 100
2, 607296, Note_on_c, 0, 65, 89
2, 607480, Note_off_c, 0, 65, 100
2, 607488, Note_on_c, 0, 79, 90
2, 607672, Note_off_c, 0, 79, 100
2, 607680, Note_on_c, 0, 67, 91
2, 607864, Note_off_c, 0, 67, 100
2, 607872, Note_on_c, 0, 72, 91
2, 608056, Note_off_c, 0, 72, 100
2, 608064, Note_on_c, 0, 67, 92
2, 608248, Note_off_c, 0, 67, 100
2, 608256, Note_on_c, 0, 80, 93
2, 608440, Note_off_c, 0, 80, 100
2, 608448, Note_on_c, 0, 68, 94
2, 608632, Note_off_c, 0, 68, 100
2, 608640, Note_on_c, 0, 72, 95
2, 608824, Note_off_c, 0, 72, 100
2, 608832, Note_on_c, 0, 68, 96
2, 609016, Note_off_c, 0, 68, 100
2, 609024, Note_on_c, 0, 81, 97
2, 609208, Note_off_c, 0, 81, 100
2, 609216, Note_on_c, 0, 69, 97
2, 609400, Note_off_c, 0, 69, 100
2, 609408, Note_on_c, 0, 72, 98
2, 609592, Note_off_c, 0, 72, 100
2, 609600, Note_on_c, 0, 69, 99
2, 609784, Note_off_c, 0, 69, 100
2, 609792, Note_on_c, 0, 83, 100
2, 609976, Note_off_c, 0, 83, 100
2, 609984, Note_on_c, 0, 71, 101
2, 610168, Note_off_c, 0, 71, 100
2, 610176, Note_on_c, 0, 77, 102
2, 610360, Note_off_c, 0, 77, 100
2, 610368, Note_on_c, 0, 71, 102
2, 610552, Note_off_c, 0, 71, 100
2, 610560, Note_on_c, 0, 84, 103
2, 610744, Note_off_c, 0, 84, 100
2, 610752, Note_on_c, 0, 72, 104
2, 610936, Note_off_c, 0, 72, 100
2, 610944, Note_on_c, 0, 77, 105
2, 611128, Note_off_c, 0, 77, 100
2, 611136, Note_on_c, 0, 72, 106
2, 611320, Note_off_c, 0, 72, 100
2, 611328, Note_on_c, 0, 86, 107
2, 611512, Note_off_c, 0, 86, 100
2, 611520, Note_on_c, 0, 74, 108
2, 611704, Note_off_c, 0, 74, 100
2, 611712, Note_on_c, 0, 77, 108
2, 611896, Note_off_c, 0, 77, 100
2, 611904, Note_on_c, 0, 74, 109
2, 612088, Note_off_c, 0, 74, 100
2, 612096, Note_on_c, 0, 88, 110
2, 612280, Note_off_c, 0, 88, 100
2, 612288, Note_on_c, 0, 76, 111
2, 612472, Note_off_c, 0, 76, 100
2, 612480, Note_on_c, 0, 79, 112
2, 612664, Note_off_c, 0, 79, 100
2, 612672, Note_on_c, 0, 76, 113
2, 612856, Note_off_c, 0, 76, 100
2, 612864, Note_on_c, 0, 89, 114
2, 613048, Note_off_c, 0, 89, 100
2, 613056, Note_on_c, 0, 77, 114
2, 613240, Note_off_c, 0, 77, 100
2, 613248, Note_on_c, 0, 80, 115
2, 613432, Note_off_c, 0, 80, 100
2, 613440, Note_on_c, 0, 77, 116
2, 613624, Note_off_c, 0, 77, 100
2, 613632, Note_on_c, 0, 86, 117
2, 613816, Note_off_c, 0, 86, 100
2, 613824, Note_on_c, 0, 77, 118
2, 614008, Note_off_c, 0, 77, 100
2, 614016, Note_on_c, 0, 80, 119
2, 614200, Note_off_c, 0, 80, 100
2, 614208, Note_on_c, 0, 77, 119
2, 614392, Note_off_c, 0, 77, 100
2, 614592, Note_on_c, 0, 75, 120
2, 614776, Note_off_c, 0, 75, 100
2, 614784, Note_on_c, 0, 79, 120
2, 614968, Note_off_c, 0, 79, 100
2, 614976, Note_on_c, 0, 75, 120
2, 615160, Note_off_c, 0, 75, 100
2, 615168, Note_on_c, 0, 84, 120
2, 615352, Note_off_c, 0, 84, 100
2, 615360, Note_on_c, 0, 75, 120
2, 615544, Note_off_c, 0, 75, 100
2, 615552, Note_on_c, 0, 79, 120
2, 615736, Note_off_c, 0, 79, 100
2, 615744, Note_on_c, 0, 75, 120
2, 615928, Note_off_c, 0, 75, 100
2, 616128, Note_on_c, 0, 74, 120
2, 616312, Note_off_c, 0, 74, 100
2, 616320, Note_on_c, 0, 77, 120
2, 616504, Note_off_c, 0, 77, 100
2, 616512, Note_on_c, 0, 74, 120
2, 616696, Note_off_c, 0, 74, 100
2, 616704, Note_on_c, 0, 83, 120
2, 616888, Note_off_c, 0, 83, 100
2, 616896, Note_on_c, 0, 74, 120
2, 617080, Note_off_c, 0, 74, 100
2, 617088, Note_on_c, 0, 77, 120
2, 617272, Note_off_c, 0, 77, 100
2, 617280, Note_on_c, 0, 74, 120
2, 617464, Note_off_c, 0, 74, 100
2, 617472, Note_on_c, 0, 72, 120
2, 617848, Note_off_c, 0, 72, 100
2, 617856, Note_on_c, 0, 84, 120
2, 618616, Note_off_c, 0, 84, 100
2, 618624, Note_on_c, 0, 83, 80
2, 618808, Note_off_c, 0, 83, 100
2, 618816, Note_on_c, 0, 84, 80
2, 619000, Note_off_c, 0, 84, 100
2, 619008, Note_on_c, 0, 86, 80
2, 619192, Note_off_c, 0, 86, 100
2, 619200, Note_on_c, 0, 84, 80
2, 619384, Note_off_c, 0, 84, 100
2, 619392, Note_on_c, 0, 82, 80
2, 619576, Note_off_c, 0, 82, 100
2, 619584, Note_on_c, 0, 80, 80
2, 619768, Note_off_c, 0, 80, 100
2, 619776, Note_on_c, 0, 79, 80
2, 619960, Note_off_c, 0, 79, 100
2, 619968, Note_on_c, 0, 80, 80
2, 620152, Note_off_c, 0, 80, 100
2, 620160, Note_on_c, 0, 82, 80
2, 620344, Note_off_c, 0, 82, 100
2, 620352, Note_on_c, 0, 80, 80
2, 620536, Note_off_c, 0, 80, 100
2, 620544, Note_on_c, 0, 79, 80
2, 620728, Note_off_c, 0, 79, 100
2, 620736, Note_on_c, 0, 77, 80
2, 620920, Note_off_c, 0, 77, 100
2, 620928, Note_on_c, 0, 75, 80
2, 621112, Note_off_c, 0, 75, 100
2, 621120, Note_on_c, 0, 74, 80
2, 621304, Note_off_c, 0, 74, 100
2, 621312, Note_on_c, 0, 73, 80
2, 621496, Note_off_c, 0, 73, 100
2, 621504, Note_on_c, 0, 74, 80
2, 621688, Note_off_c, 0, 74, 100
2, 621696, Note_on_c, 0, 75, 80
2, 621880, Note_off_c, 0, 75, 100
2, 621888, Note_on_c, 0, 74, 80
2, 622072, Note_off_c, 0, 74, 100
2, 622080, Note_on_c, 0, 72, 80
2, 622264, Note_off_c, 0, 72, 100
2, 622272, Note_on_c, 0, 71, 80
2, 622456, Note_off_c, 0, 71, 100
2, 622464, Note_on_c, 0, 68, 80
2, 622648, Note_off_c, 0, 68, 100
2, 622656, Note_on_c, 0, 67, 80
2, 622840, Note_off_c, 0, 67, 100
2, 622848, Note_on_c, 0, 66, 80
2, 623032, Note_off_c, 0, 66, 100
2, 623040, Note_on_c, 0, 67, 80
2, 623224, Note_off_c, 0, 67, 100
2, 623232, Note_on_c, 0, 68, 80
2, 623416, Note_off_c, 0, 68, 100
2, 623424, Note_on_c, 0, 65, 80
2, 623608, Note_off_c, 0, 65, 100
2, 623616, Note_on_c, 0, 63, 80
2, 623992, Note_off_c, 0, 63, 100
2, 624000, Note_on_c, 0, 84, 120
2, 624000, Note_on_c, 0, 72, 120
2, 624760, Note_off_c, 0, 84, 100
2, 624760, Note_off_c, 0, 72, 100
2, 624768, Note_on_c, 0, 83, 80
2, 624952, Note_off_c, 0, 83, 100
2, 624960, Note_on_c, 0, 84, 81
2, 625144, Note_off_c, 0, 84, 100
2, 625152, Note_on_c, 0, 86, 83
2, 625336, Note_off_c, 0, 86, 100
2, 625344, Note_on_c, 0, 84, 84
2, 625528, Note_off_c, 0, 84, 100
2, 625536, Note_on_c, 0, 82, 86
2, 625720, Note_off_c, 0, 82, 100
2, 625728, Note_on_c, 0, 80, 87
2, 625912, Note_off_c, 0, 80, 100
2, 625920, Note_on_c, 0, 79, 89
2, 626104, Note_off_c, 0, 79, 100
2, 626112, Note_on_c, 0, 80, 91
2, 626296, Note_off_c, 0, 80, 100
2, 626304, Note_on_c, 0, 82, 92
2, 626488, Note_off_c, 0, 82, 100
2, 626496, Note_on_c, 0, 80, 94
2, 626680, Note_off_c, 0, 80, 100
2, 626688, Note_on_c, 0, 79, 95
2, 626872, Note_off_c, 0, 79, 100
2, 626880, Note_on_c, 0, 77, 97
2, 627064, Note_off_c, 0, 77, 100
2, 627072, Note_on_c, 0, 75, 99
2, 627256, Note_off_c, 0, 75, 100
2, 627264, Note_on_c, 0, 74, 100
2, 627448, Note_off_c, 0, 74, 100
2, 627456, Note_on_c, 0, 73, 102
2, 627640, Note_off_c, 0, 73, 100
2, 627648, Note_on_c, 0, 74, 103
2, 627832, Note_off_c, 0, 74, 100
2, 627840, Note_on_c, 0, 75, 105
2, 628024, Note_off_c, 0, 75, 100
2, 628032, Note_on_c, 0, 74, 107
2, 628216, Note_off_c, 0, 74, 100
2, 628224, Note_on_c, 0, 72, 108
2, 628408, Note_off_c, 0, 72, 100
2, 628416, Note_on_c, 0, 71, 110
2, 628600, Note_off_c, 0, 71, 100
2, 628608, Note_on_c, 0, 68, 111
2, 628792, Note_off_c, 0, 68, 100
2, 628800, Note_on_c, 0, 67, 113
2, 628984, Note_off_c, 0, 67, 100
2, 628992, Note_on_c, 0, 66, 115
2, 629176, Note_off_c, 0, 66, 100
2, 629184, Note_on_c, 0, 67, 116
2, 629368, Note_off_c, 0, 67, 100
2, 629376, Note_on_c, 0, 68, 118
2, 629560, Note_off_c, 0, 68, 100
2, 629568, Note_on_c, 0, 67, 119
2, 629752, Note_off_c, 0, 67, 100
2, 629760, Note_on_c, 0, 72, 110
2, 630136, Note_off_c, 0, 72, 100
2, 630144, Note_on_c, 0, 60, 110
2, 630904, Note_off_c, 0, 60, 100
2, 630912, Note_on_c, 0, 64, 110
2, 630912, Note_on_c, 0, 58, 110
2, 631288, Note_off_c, 0, 64, 100
2, 631288, Note_off_c, 0, 58, 100
2, 631296, Note_on_c, 0, 65, 110
2, 631296, Note_on_c, 0, 56, 110
2, 631672, Note_off_c, 0, 65, 100
2, 631672, Note_off_c, 0, 56, 100
2, 631680, Note_on_c, 0, 67, 110
2, 631680, Note_on_c, 0, 64, 110
2, 632056, Note_off_c, 0, 67, 100
2, 632056, Note_off_c, 0, 64, 100
2, 632064, Note_on_c, 0, 68, 110
2, 632064, Note_on_c, 0, 65, 110
2, 632440, Note_off_c, 0, 68, 100
2, 632440, Note_off_c, 0, 65, 100
2, 632448, Note_on_c, 0, 71, 110
2, 632448, Note_on_c, 0, 62, 110
2, 632824, Note_off_c, 0, 71, 100
2, 632824, Note_off_c, 0, 62, 100
2, 632832, Note_on_c, 0, 72, 110
2, 632832, Note_on_c, 0, 63, 110
2, 633208, Note_off_c, 0, 72, 100
2, 633208, Note_off_c, 0, 63, 100
2, 633216, Note_on_c, 0, 72, 110
2, 633216, Note_on_c, 0, 64, 110
2, 633976, Note_off_c, 0, 72, 100
2, 633976, Note_off_c, 0, 64, 100
2, 633984, Note_on_c, 0, 70, 110
2, 633984, Note_on_c, 0, 76, 110
2, 634360, Note_off_c, 0, 70, 100
2, 634360, Note_off_c, 0, 76, 100
2, 634368, Note_on_c, 0, 77, 110
2, 634368, Note_on_c, 0, 68, 110
2, 634744, Note_off_c, 0, 77, 100
2, 634744, Note_off_c, 0, 68, 100
2, 634752, Note_on_c, 0, 79, 110
2, 634752, Note_on_c, 0, 76, 110
2, 635128, Note_off_c, 0, 79, 100
2, 635128, Note_off_c, 0, 76, 100
2, 635136, Note_on_c, 0, 80, 110
2, 635136, Note_on_c, 0, 77, 110
2, 635512, Note_off_c, 0, 80, 100
2, 635512, Note_off_c, 0, 77, 100
2, 635520, Note_on_c, 0, 83, 110
2, 635520, Note_on_c, 0, 74, 110
2, 635896, Note_off_c, 0, 83, 100
2, 635896, Note_off_c, 0, 74, 100
2, 635904, Note_on_c, 0, 84, 110
2, 635904, Note_on_c, 0, 75, 110
2, 635904, Note_on_c, 0, 72, 110
2, 637432, Note_off_c, 0, 84, 100
2, 637432, Note_off_c, 0, 75, 100
2, 637432, Note_off_c, 0, 72, 100
2, 637440, Note_on_c, 0, 72, 110
2, 637440, Note_on_c, 0, 63, 110
2, 637440, Note_on_c, 0, 60, 110
2, 638968, Note_off_c, 0, 72, 100
2, 638968, Note_off_c, 0, 63, 100
2, 638968, Note_off_c, 0, 60, 100
2, 638976, Note_on_c, 0, 84, 110
2, 638976, Note_on_c, 0, 75, 110
2, 638976, Note_on_c, 0, 72, 110
2, 640504, Note_off_c, 0, 84, 100
2, 640504, Note_off_c, 0, 75, 100
2, 640504, Note_off_c, 0, 72, 100
2, 640512, Note_on_c, 0, 72, 110
2, 640512, Note_on_c, 0, 63, 110
2, 640512, Note_on_c, 0, 60, 110
2, 642040, Note_off_c, 0, 72, 100
2, 642040, Note_off_c, 0, 63, 100
2, 642040, Note_off_c, 0, 60, 100
2, 642048, Note_on_c, 0, 87, 120
2, 642048, Note_on_c, 0, 84, 120
2, 642048, Note_on_c, 0, 81, 120
2, 642048, Note_on_c, 0, 75, 120
2, 643576, Note_off_c, 0, 87, 100
2, 643576, Note_off_c, 0, 84, 100
2, 643576, Note_off_c, 0, 81, 100
2, 643576, Note_off_c, 0, 75, 100
2, 643584, Note_on_c, 0, 63, 120
2, 643584, Note_on_c, 0, 60, 120
2, 643584, Note_on_c, 0, 57, 120
2, 643584, Note_on_c, 0, 54, 120
2, 648184, Note_off_c, 0, 54, 100
2, 648184, Note_off_c, 0, 57, 100
2, 648184, Note_off_c, 0, 60, 100
2, 648184, Note_off_c, 0, 63, 100
2, 648720, Note_on_c, 0, 72, 80
2, 648720, Note_on_c, 0, 69, 80
2, 648720, Note_on_c, 0, 66, 80
2, 648764, Note_off_c, 0, 72, 100
2, 648764, Note_off_c, 0, 69, 100
2, 648764, Note_off_c, 0, 66, 100
2, 648768, Note_on_c, 0, 74, 80
2, 648768, Note_on_c, 0, 69, 80
2, 648768, Note_on_c, 0, 66, 80
2, 648908, Note_off_c, 0, 74, 100
2, 648908, Note_off_c, 0, 69, 100
2, 648908, Note_off_c, 0, 66, 100
2, 648912, Note_on_c, 0, 75, 80
2, 648912, Note_on_c, 0, 69, 80
2, 648912, Note_on_c, 0, 66, 80
2, 648956, Note_off_c, 0, 75, 100
2, 648956, Note_off_c, 0, 69, 100
2, 648956, Note_off_c, 0, 66, 100
2, 648960, Note_on_c, 0, 75, 80
2, 648960, Note_on_c, 0, 69, 80
2, 648960, Note_on_c, 0, 66, 80
2, 649340, Note_off_c, 0, 75, 100
2, 649340, Note_off_c, 0, 69, 100
2, 649340, Note_off_c, 0, 66, 100
2, 649344, Note_on_c, 0, 74, 80
2, 649344, Note_on_c, 0, 71, 80
2, 649344, Note_on_c, 0, 67, 80
2, 649532, Note_off_c, 0, 74, 100
2, 649532, Note_off_c, 0, 71, 100
2, 649532, Note_off_c, 0, 67, 100
2, 650256, Note_on_c, 0, 77, 80
2, 650256, Note_on_c, 0, 74, 80
2, 650256, Note_on_c, 0, 71, 80
2, 650300, Note_off_c, 0, 77, 100
2, 650300, Note_off_c, 0, 74, 100
2, 650300, Note_off_c, 0, 71, 100
2, 650304, Note_on_c, 0, 79, 80
2, 650304, Note_on_c, 0, 74, 80
2, 650304, Note_on_c, 0, 71, 80
2, 650444, Note_off_c, 0, 79, 100
2, 650444, Note_off_c, 0, 74, 100
2, 650444, Note_off_c, 0, 71, 100
2, 650448, Note_on_c, 0, 80, 80
2, 650448, Note_on_c, 0, 74, 80
2, 650448, Note_on_c, 0, 71, 80
2, 650492, Note_off_c, 0, 80, 100
2, 650492, Note_off_c, 0, 74, 100
2, 650492, Note_off_c, 0, 71, 100
2, 650496, Note_on_c, 0, 80, 80
2, 650496, Note_on_c, 0, 74, 80
2, 650496, Note_on_c, 0, 71, 80
2, 650876, Note_off_c, 0, 80, 100
2, 650876, Note_off_c, 0, 74, 100
2, 650876, Note_off_c, 0, 71, 100
2, 650880, Note_on_c, 0, 79, 70
2, 650880, Note_on_c, 0, 75, 70
2, 650880, Note_on_c, 0, 72, 70
2, 651068, Note_off_c, 0, 79, 100
2, 651068, Note_off_c, 0, 75, 100
2, 651068, Note_off_c, 0, 72, 100
2, 651792, Note_on_c, 0, 82, 80
2, 651792, Note_on_c, 0, 79, 80
2, 651792, Note_on_c, 0, 76, 80
2, 651792, Note_on_c, 0, 70, 80
2, 651836, Note_off_c, 0, 82, 100
2, 651836, Note_off_c, 0, 79, 100
2, 651836, Note_off_c, 0, 76, 100
2, 651836, Note_off_c, 0, 70, 100
2, 651840, Note_on_c, 0, 84, 85
2, 651840, Note_on_c, 0, 79, 85
2, 651840, Note_on_c, 0, 76, 85
2, 651840, Note_on_c, 0, 72, 85
2, 651980, Note_off_c, 0, 84, 100
2, 651980, Note_off_c, 0, 79, 100
2, 651980, Note_off_c, 0, 76, 100
2, 651980, Note_off_c, 0, 72, 100
2, 651984, Note_on_c, 0, 79, 103
2, 651984, Note_on_c, 0, 76, 103
2, 651984, Note_on_c, 0, 73, 103
2, 651984, Note_on_c, 0, 85, 103
2, 652028, Note_off_c, 0, 79, 100
2, 652028, Note_off_c, 0, 76, 100
2, 652028, Note_off_c, 0, 73, 100
2, 652028, Note_off_c, 0, 85, 100
2, 652032, Note_on_c, 0, 85, 109
2, 652032, Note_on_c, 0, 79, 109
2, 652032, Note_on_c, 0, 76, 109
2, 652032, Note_on_c, 0, 73, 109
2, 652412, Note_off_c, 0, 85, 100
2, 652412, Note_off_c, 0, 79, 100
2, 652412, Note_off_c, 0, 76, 100
2, 652412, Note_off_c, 0, 73, 100
2, 652416, Note_on_c, 0, 84, 80
2, 652416, Note_on_c, 0, 72, 80
2, 652604, Note_off_c, 0, 84, 100
2, 652604, Note_off_c, 0, 72, 100
2, 652608, Note_on_c, 0, 82, 79
2, 652608, Note_on_c, 0, 70, 79
2, 652796, Note_off_c, 0, 82, 100
2, 652796, Note_off_c, 0, 70, 100
2, 652800, Note_on_c, 0, 80, 77
2, 652800, Note_on_c, 0, 68, 77
2, 652988, Note_off_c, 0, 80, 100
2, 652988, Note_off_c, 0, 68, 100
2, 652992, Note_on_c, 0, 79, 75
2, 652992, Note_on_c, 0, 67, 75
2, 653180, Note_off_c, 0, 79, 100
2, 653180, Note_off_c, 0, 67, 100
2, 653184, Note_on_c, 0, 77, 73
2, 653184, Note_on_c, 0, 65, 73
2, 653372, Note_off_c, 0, 77, 100
2, 653372, Note_off_c, 0, 65, 100
2, 653376, Note_on_c, 0, 63, 71
2, 653376, Note_on_c, 0, 75, 71
2, 653564, Note_off_c, 0, 63, 100
2, 653564, Note_off_c, 0, 75, 100
2, 653760, Note_on_c, 0, 74, 69
2, 653760, Note_on_c, 0, 68, 69
2, 653760, Note_on_c, 0, 65, 69
2, 653948, Note_off_c, 0, 74, 100
2, 653948, Note_off_c, 0, 68, 100
2, 653948, Note_off_c, 0, 65, 100
2, 654144, Note_on_c, 0, 59, 67
2, 654144, Note_on_c, 0, 50, 67
2, 654144, Note_on_c, 0, 53, 67
2, 654716, Note_off_c, 0, 50, 100
2, 654716, Note_off_c, 0, 53, 100
2, 654716, Note_off_c, 0, 59, 100
2, 654720, Note_on_c, 0, 60, 80
2, 655864, Note_off_c, 0, 60, 100
2, 655872, Note_on_c, 0, 64, 80
2, 655872, Note_on_c, 0, 58, 80
2, 656248, Note_off_c, 0, 64, 100
2, 656248, Note_off_c, 0, 58, 100
2, 656256, Note_on_c, 0, 65, 80
2, 656256, Note_on_c, 0, 56, 80
2, 656632, Note_off_c, 0, 65, 100
2, 656632, Note_off_c, 0, 56, 100
2, 656640, Note_on_c, 0, 67, 80
2, 656640, Note_on_c, 0, 64, 80
2, 657016, Note_off_c, 0, 67, 100
2, 657016, Note_off_c, 0, 64, 100
2, 657024, Note_on_c, 0, 68, 80
2, 657024, Note_on_c, 0, 65, 80
2, 657400, Note_off_c, 0, 68, 100
2, 657400, Note_off_c, 0, 65, 100
2, 657408, Note_on_c, 0, 71, 80
2, 657408, Note_on_c, 0, 62, 80
2, 657784, Note_off_c, 0, 71, 100
2, 657784, Note_off_c, 0, 62, 100
2, 657792, Note_on_c, 0, 72, 80
2, 657792, Note_on_c, 0, 63, 80
2, 658168, Note_off_c, 0, 72, 100
2, 658168, Note_off_c, 0, 63, 100
2, 658176, Note_on_c, 0, 72, 100
2, 658176, Note_on_c, 0, 64, 100
2, 658936, Note_off_c, 0, 72, 100
2, 658936, Note_off_c, 0, 64, 100
2, 658944, Note_on_c, 0, 76, 80
2, 658944, Note_on_c, 0, 70, 80
2, 659320, Note_off_c, 0, 76, 100
2, 659320, Note_off_c, 0, 70, 100
2, 659328, Note_on_c, 0, 77, 80
2, 659328, Note_on_c, 0, 68, 80
2, 659704, Note_off_c, 0, 77, 100
2, 659704, Note_off_c, 0, 68, 100
2, 659712, Note_on_c, 0, 79, 82
2, 659712, Note_on_c, 0, 76, 82
2, 660088, Note_off_c, 0, 79, 100
2, 660088, Note_off_c, 0, 76, 100
2, 660096, Note_on_c, 0, 80, 85
2, 660096, Note_on_c, 0, 77, 85
2, 660472, Note_off_c, 0, 80, 100
2, 660472, Note_off_c, 0, 77, 100
2, 660480, Note_on_c, 0, 83, 87
2, 660480, Note_on_c, 0, 74, 87
2, 660856, Note_off_c, 0, 83, 100
2, 660856, Note_off_c, 0, 74, 100
2, 660864, Note_on_c, 0, 84, 90
2, 660864, Note_on_c, 0, 75, 90
2, 661624, Note_off_c, 0, 84, 100
2, 661624, Note_off_c, 0, 75, 100
2, 661632, Note_on_c, 0, 84, 95
2, 661632, Note_on_c, 0, 75, 95
2, 661632, Note_on_c, 0, 72, 95
2, 662392, Note_off_c, 0, 84, 100
2, 662392, Note_off_c, 0, 75, 100
2, 662392, Note_off_c, 0, 72, 100
2, 662400, Note_on_c, 0, 84, 100
2, 662400, Note_on_c, 0, 75, 100
2, 662400, Note_on_c, 0, 72, 100
2, 663160, Note_off_c, 0, 84, 100
2, 663160, Note_off_c, 0, 75, 100
2, 663160, Note_off_c, 0, 72, 100
2, 663168, Note_on_c, 0, 84, 106
2, 663168, Note_on_c, 0, 75, 106
2, 663168, Note_on_c, 0, 72, 106
2, 663928, Note_off_c, 0, 84, 100
2, 663928, Note_off_c, 0, 75, 100
2, 663928, Note_off_c, 0, 72, 100
2, 663936, Note_on_c, 0, 87, 120
2, 663936, Note_on_c, 0, 84, 120
2, 663936, Note_on_c, 0, 81, 120
2, 663936, Note_on_c, 0, 75, 120
2, 664696, Note_off_c, 0, 87, 100
2, 664696, Note_off_c, 0, 84, 100
2, 664696, Note_off_c, 0, 81, 100
2, 664696, Note_off_c, 0, 75, 100
2, 665472, Note_on_c, 0, 75, 120
2, 665472, Note_on_c, 0, 72, 120
2, 665472, Note_on_c, 0, 69, 120
2, 665472, Note_on_c, 0, 66, 120
2, 666232, Note_off_c, 0, 75, 100
2, 666232, Note_off_c, 0, 72, 100
2, 666232, Note_off_c, 0, 69, 100
2, 666232, Note_off_c, 0, 66, 100
2, 667008, Note_on_c, 0, 79, 120
2, 667008, Note_on_c, 0, 75, 120
2, 667008, Note_on_c, 0, 72, 120
2, 667008, Note_on_c, 0, 67, 120
2, 667768, Note_off_c, 0, 79, 100
2, 667768, Note_off_c, 0, 75, 100
2, 667768, Note_off_c, 0, 72, 100
2, 667768, Note_off_c, 0, 67, 100
2, 668544, Note_on_c, 0, 59, 120
2, 668544, Note_on_c, 0, 55, 120
2, 668544, Note_on_c, 0, 53, 120
2, 668544, Note_on_c, 0, 50, 120
2, 669304, Note_off_c, 0, 59, 100
2, 669304, Note_off_c, 0, 55, 100
2, 669304, Note_off_c, 0, 53, 100
2, 669304, Note_off_c, 0, 50, 100
2, 670080, Note_on_c, 0, 51, 120
2, 670080, Note_on_c, 0, 55, 120
2, 670080, Note_on_c, 0, 60, 120
2, 671992, Note_off_c, 0, 60, 100
2, 671992, Note_off_c, 0, 55, 100
2, 671992, Note_off_c, 0, 51, 100
2, 673152, Control_c, 0, 7, 0
2, 673920, Note_on_c, 0, 60, 1
2, 674296, Note_off_c, 0, 60, 100
2, 674296, End_track
3, 0, Start_track
3, 0, Title_t, "Left"
3, 0, Control_c, 1, 0, 0
3, 0, Program_c, 1, 0
3, 0, Control_c, 1, 7, 100
3, 0, Control_c, 1, 10, 54
3, 0, Control_c, 1, 91, 127
3, 0, Key_signature, -3, "minor"
3, 0, Note_on_c, 1, 48, 110
3, 0, Note_on_c, 1, 43, 110
3, 0, Note_on_c, 1, 36, 110
3, 0, Note_on_c, 1, 39, 110
3, 524, Note_off_c, 1, 36, 100
3, 524, Note_off_c, 1, 39, 100
3, 524, Note_off_c, 1, 43, 100
3, 524, Note_off_c, 1, 48, 100
3, 528, Note_on_c, 1, 51, 80
3, 572, Note_off_c, 1, 51, 100
3, 576, Note_on_c, 1, 50, 80
3, 716, Note_off_c, 1, 50, 100
3, 720, Note_on_c, 1, 48, 80
3, 764, Note_off_c, 1, 48, 100
3, 768, Note_on_c, 1, 54, 80
3, 1148, Note_off_c, 1, 54, 100
3, 1152, Note_on_c, 1, 55, 80
3, 1340, Note_off_c, 1, 55, 100
3, 1488, Note_on_c, 1, 44, 80
3, 1532, Note_off_c, 1, 44, 100
3, 1536, Note_on_c, 1, 56, 110
3, 2060, Note_off_c, 1, 56, 100
3, 2064, Note_on_c, 1, 56, 80
3, 2108, Note_off_c, 1, 56, 100
3, 2112, Note_on_c, 1, 55, 80
3, 2252, Note_off_c, 1, 55, 100
3, 2256, Note_on_c, 1, 53, 80
3, 2300, Note_off_c, 1, 53, 100
3, 2304, Note_on_c, 1, 51, 80
3, 2876, Note_off_c, 1, 51, 100
3, 3024, Note_on_c, 1, 51, 80
3, 3068, Note_off_c, 1, 51, 100
3, 3072, Note_on_c, 1, 63, 110
3, 3596, Note_off_c, 1, 63, 100
3, 3600, Note_on_c, 1, 63, 80
3, 3644, Note_off_c, 1, 63, 100
3, 3648, Note_on_c, 1, 62, 80
3, 3788, Note_off_c, 1, 62, 100
3, 3792, Note_on_c, 1, 60, 80
3, 3836, Note_off_c, 1, 60, 100
3, 3840, Note_on_c, 1, 60, 100
3, 4220, Note_off_c, 1, 60, 100
3, 4224, Note_on_c, 1, 59, 80
3, 4316, Note_off_c, 1, 59, 100
3, 4368, Note_on_c, 1, 63, 80
3, 4412, Note_off_c, 1, 63, 100
3, 4416, Note_on_c, 1, 62, 80
3, 4556, Note_off_c, 1, 62, 100
3, 4560, Note_on_c, 1, 60, 80
3, 4604, Note_off_c, 1, 60, 100
3, 4608, Note_on_c, 1, 60, 100
3, 4988, Note_off_c, 1, 60, 100
3, 4992, Note_on_c, 1, 62, 80
3, 4992, Note_on_c, 1, 59, 80
3, 5180, Note_off_c, 1, 62, 100
3, 5180, Note_off_c, 1, 59, 100
3, 5184, Note_on_c, 1, 64, 80
3, 5184, Note_on_c, 1, 60, 80
3, 5184, Note_on_c, 1, 58, 80
3, 5372, Note_off_c, 1, 64, 100
3, 5372, Note_off_c, 1, 60, 100
3, 5372, Note_off_c, 1, 58, 100
3, 5376, Note_on_c, 1, 60, 80
3, 5376, Note_on_c, 1, 56, 80
3, 5376, Note_on_c, 1, 65, 80
3, 5564, Note_off_c, 1, 60, 100
3, 5564, Note_off_c, 1, 56, 100
3, 5564, Note_off_c, 1, 65, 100
3, 5760, Note_on_c, 1, 46, 100
3, 5760, Note_on_c, 1, 34, 100
3, 6140, Note_off_c, 1, 46, 100
3, 6140, Note_off_c, 1, 34, 100
3, 6528, Note_on_c, 1, 51, 80
3, 6528, Note_on_c, 1, 39, 80
3, 6620, Note_off_c, 1, 51, 100
3, 6620, Note_off_c, 1, 39, 100
3, 6624, Note_on_c, 1, 51, 80
3, 6624, Note_on_c, 1, 55, 80
3, 6624, Note_on_c, 1, 58, 80
3, 6716, Note_off_c, 1, 51, 100
3, 6716, Note_off_c, 1, 55, 100
3, 6716, Note_off_c, 1, 58, 100
3, 6720, Note_on_c, 1, 58, 80
3, 6720, Note_on_c, 1, 55, 80
3, 6720, Note_on_c, 1, 51, 80
3, 6812, Note_off_c, 1, 58, 100
3, 6812, Note_off_c, 1, 55, 100
3, 6812, Note_off_c, 1, 51, 100
3, 6816, Note_on_c, 1, 51, 80
3, 6816, Note_on_c, 1, 58, 80
3, 6816, Note_on_c, 1, 55, 80
3, 6908, Note_off_c, 1, 51, 100
3, 6908, Note_off_c, 1, 58, 100
3, 6908, Note_off_c, 1, 55, 100
3, 6912, Note_on_c, 1, 58, 80
3, 6912, Note_on_c, 1, 55, 80
3, 6912, Note_on_c, 1, 51, 80
3, 7004, Note_off_c, 1, 58, 100
3, 7004, Note_off_c, 1, 55, 100
3, 7004, Note_off_c, 1, 51, 100
3, 7008, Note_on_c, 1, 51, 80
3, 7008, Note_on_c, 1, 58, 80
3, 7008, Note_on_c, 1, 55, 80
3, 7100, Note_off_c, 1, 51, 100
3, 7100, Note_off_c, 1, 58, 100
3, 7100, Note_off_c, 1, 55, 100
3, 7104, Note_on_c, 1, 58, 80
3, 7104, Note_on_c, 1, 55, 80
3, 7104, Note_on_c, 1, 51, 80
3, 7196, Note_off_c, 1, 58, 100
3, 7196, Note_off_c, 1, 55, 100
3, 7196, Note_off_c, 1, 51, 100
3, 7200, Note_on_c, 1, 51, 80
3, 7200, Note_on_c, 1, 58, 80
3, 7200, Note_on_c, 1, 55, 80
3, 7292, Note_off_c, 1, 51, 100
3, 7292, Note_off_c, 1, 58, 100
3, 7292, Note_off_c, 1, 55, 100
3, 7296, Note_on_c, 1, 60, 80
3, 7296, Note_on_c, 1, 56, 80
3, 7296, Note_on_c, 1, 51, 80
3, 7388, Note_off_c, 1, 60, 100
3, 7388, Note_off_c, 1, 56, 100
3, 7388, Note_off_c, 1, 51, 100
3, 7392, Note_on_c, 1, 60, 80
3, 7392, Note_on_c, 1, 56, 80
3, 7392, Note_on_c, 1, 51, 80
3, 7484, Note_off_c, 1, 60, 100
3, 7484, Note_off_c, 1, 56, 100
3, 7484, Note_off_c, 1, 51, 100
3, 7488, Note_on_c, 1, 60, 80
3, 7488, Note_on_c, 1, 56, 80
3, 7488, Note_on_c, 1, 51, 80
3, 7580, Note_off_c, 1, 60, 100
3, 7580, Note_off_c, 1, 56, 100
3, 7580, Note_off_c, 1, 51, 100
3, 7584, Note_on_c, 1, 60, 80
3, 7584, Note_on_c, 1, 56, 80
3, 7584, Note_on_c, 1, 51, 80
3, 7676, Note_off_c, 1, 60, 100
3, 7676, Note_off_c, 1, 56, 100
3, 7676, Note_off_c, 1, 51, 100
3, 7680, Note_on_c, 1, 50, 120
3, 7680, Note_on_c, 1, 38, 120
3, 7772, Note_off_c, 1, 50, 100
3, 7772, Note_off_c, 1, 38, 100
3, 7776, Note_on_c, 1, 50, 120
3, 7776, Note_on_c, 1, 38, 120
3, 7868, Note_off_c, 1, 50, 100
3, 7868, Note_off_c, 1, 38, 100
3, 7872, Note_on_c, 1, 48, 120
3, 7872, Note_on_c, 1, 36, 120
3, 7964, Note_off_c, 1, 48, 100
3, 7964, Note_off_c, 1, 36, 100
3, 7968, Note_on_c, 1, 48, 120
3, 7968, Note_on_c, 1, 36, 120
3, 8060, Note_off_c, 1, 48, 100
3, 8060, Note_off_c, 1, 36, 100
3, 8064, Note_on_c, 1, 47, 120
3, 8064, Note_on_c, 1, 35, 120
3, 8156, Note_off_c, 1, 47, 100
3, 8156, Note_off_c, 1, 35, 100
3, 8160, Note_on_c, 1, 56, 80
3, 8160, Note_on_c, 1, 53, 80
3, 8160, Note_on_c, 1, 50, 80
3, 8160, Note_on_c, 1, 47, 80
3, 8252, Note_off_c, 1, 56, 100
3, 8252, Note_off_c, 1, 53, 100
3, 8252, Note_off_c, 1, 50, 100
3, 8252, Note_off_c, 1, 47, 100
3, 8256, Note_on_c, 1, 56, 80
3, 8256, Note_on_c, 1, 53, 80
3, 8256, Note_on_c, 1, 50, 80
3, 8256, Note_on_c, 1, 47, 80
3, 8348, Note_off_c, 1, 56, 100
3, 8348, Note_off_c, 1, 53, 100
3, 8348, Note_off_c, 1, 50, 100
3, 8348, Note_off_c, 1, 47, 100
3, 8352, Note_on_c, 1, 56, 80
3, 8352, Note_on_c, 1, 53, 80
3, 8352, Note_on_c, 1, 50, 80
3, 8352, Note_on_c, 1, 47, 80
3, 8444, Note_off_c, 1, 56, 100
3, 8444, Note_off_c, 1, 53, 100
3, 8444, Note_off_c, 1, 50, 100
3, 8444, Note_off_c, 1, 47, 100
3, 8448, Note_on_c, 1, 56, 80
3, 8448, Note_on_c, 1, 53, 80
3, 8448, Note_on_c, 1, 50, 80
3, 8448, Note_on_c, 1, 46, 80
3, 8540, Note_off_c, 1, 56, 100
3, 8540, Note_off_c, 1, 53, 100
3, 8540, Note_off_c, 1, 50, 100
3, 8540, Note_off_c, 1, 46, 100
3, 8544, Note_on_c, 1, 56, 80
3, 8544, Note_on_c, 1, 53, 80
3, 8544, Note_on_c, 1, 50, 80
3, 8544, Note_on_c, 1, 46, 80
3, 8636, Note_off_c, 1, 56, 100
3, 8636, Note_off_c, 1, 53, 100
3, 8636, Note_off_c, 1, 50, 100
3, 8636, Note_off_c, 1, 46, 100
3, 8640, Note_on_c, 1, 56, 80
3, 8640, Note_on_c, 1, 53, 80
3, 8640, Note_on_c, 1, 50, 80
3, 8640, Note_on_c, 1, 46, 80
3, 8732, Note_off_c, 1, 56, 100
3, 8732, Note_off_c, 1, 53, 100
3, 8732, Note_off_c, 1, 50, 100
3, 8732, Note_off_c, 1, 46, 100
3, 8736, Note_on_c, 1, 56, 80
3, 8736, Note_on_c, 1, 53, 80
3, 8736, Note_on_c, 1, 50, 80
3, 8736, Note_on_c, 1, 46, 80
3, 8828, Note_off_c, 1, 56, 100
3, 8828, Note_off_c, 1, 53, 100
3, 8828, Note_off_c, 1, 50, 100
3, 8828, Note_off_c, 1, 46, 100
3, 8832, Note_on_c, 1, 55, 80
3, 8832, Note_on_c, 1, 52, 80
3, 8832, Note_on_c, 1, 49, 80
3, 8832, Note_on_c, 1, 46, 80
3, 8924, Note_off_c, 1, 55, 100
3, 8924, Note_off_c, 1, 52, 100
3, 8924, Note_off_c, 1, 49, 100
3, 8924, Note_off_c, 1, 46, 100
3, 8928, Note_on_c, 1, 55, 80
3, 8928, Note_on_c, 1, 52, 80
3, 8928, Note_on_c, 1, 49, 80
3, 8928, Note_on_c, 1, 46, 80
3, 9020, Note_off_c, 1, 55, 100
3, 9020, Note_off_c, 1, 52, 100
3, 9020, Note_off_c, 1, 49, 100
3, 9020, Note_off_c, 1, 46, 100
3, 9024, Note_on_c, 1, 55, 80
3, 9024, Note_on_c, 1, 52, 80
3, 9024, Note_on_c, 1, 49, 80
3, 9024, Note_on_c, 1, 46, 80
3, 9116, Note_off_c, 1, 55, 100
3, 9116, Note_off_c, 1, 52, 100
3, 9116, Note_off_c, 1, 49, 100
3, 9116, Note_off_c, 1, 46, 100
3, 9120, Note_on_c, 1, 55, 80
3, 9120, Note_on_c, 1, 52, 80
3, 9120, Note_on_c, 1, 49, 80
3, 9120, Note_on_c, 1, 46, 80
3, 9212, Note_off_c, 1, 55, 100
3, 9212, Note_off_c, 1, 52, 100
3, 9212, Note_off_c, 1, 49, 100
3, 9212, Note_off_c, 1, 46, 100
3, 9216, Note_on_c, 1, 45, 120
3, 9216, Note_on_c, 1, 33, 120
3, 9308, Note_off_c, 1, 45, 100
3, 9308, Note_off_c, 1, 33, 100
3, 9312, Note_on_c, 1, 45, 120
3, 9312, Note_on_c, 1, 33, 120
3, 9404, Note_off_c, 1, 45, 100
3, 9404, Note_off_c, 1, 33, 100
3, 9408, Note_on_c, 1, 43, 120
3, 9408, Note_on_c, 1, 31, 120
3, 9500, Note_off_c, 1, 43, 100
3, 9500, Note_off_c, 1, 31, 100
3, 9504, Note_on_c, 1, 43, 120
3, 9504, Note_on_c, 1, 31, 120
3, 9596, Note_off_c, 1, 43, 100
3, 9596, Note_off_c, 1, 31, 100
3, 9600, Note_on_c, 1, 42, 120
3, 9600, Note_on_c, 1, 30, 120
3, 9692, Note_off_c, 1, 42, 100
3, 9692, Note_off_c, 1, 30, 100
3, 9696, Note_on_c, 1, 62, 80
3, 9696, Note_on_c, 1, 57, 80
3, 9696, Note_on_c, 1, 54, 80
3, 9696, Note_on_c, 1, 50, 80
3, 9788, Note_off_c, 1, 62, 100
3, 9788, Note_off_c, 1, 57, 100
3, 9788, Note_off_c, 1, 54, 100
3, 9788, Note_off_c, 1, 50, 100
3, 9792, Note_on_c, 1, 62, 80
3, 9792, Note_on_c, 1, 57, 80
3, 9792, Note_on_c, 1, 54, 80
3, 9792, Note_on_c, 1, 50, 80
3, 9884, Note_off_c, 1, 62, 100
3, 9884, Note_off_c, 1, 57, 100
3, 9884, Note_off_c, 1, 54, 100
3, 9884, Note_off_c, 1, 50, 100
3, 9888, Note_on_c, 1, 62, 80
3, 9888, Note_on_c, 1, 57, 80
3, 9888, Note_on_c, 1, 54, 80
3, 9888, Note_on_c, 1, 50, 80
3, 9980, Note_off_c, 1, 62, 100
3, 9980, Note_off_c, 1, 57, 100
3, 9980, Note_off_c, 1, 54, 100
3, 9980, Note_off_c, 1, 50, 100
3, 9984, Note_on_c, 1, 62, 80
3, 9984, Note_on_c, 1, 57, 80
3, 9984, Note_on_c, 1, 54, 80
3, 9984, Note_on_c, 1, 50, 80
3, 10076, Note_off_c, 1, 62, 100
3, 10076, Note_off_c, 1, 57, 100
3, 10076, Note_off_c, 1, 54, 100
3, 10076, Note_off_c, 1, 50, 100
3, 10080, Note_on_c, 1, 62, 80
3, 10080, Note_on_c, 1, 57, 80
3, 10080, Note_on_c, 1, 54, 80
3, 10080, Note_on_c, 1, 50, 80
3, 10172, Note_off_c, 1, 62, 100
3, 10172, Note_off_c, 1, 57, 100
3, 10172, Note_off_c, 1, 54, 100
3, 10172, Note_off_c, 1, 50, 100
3, 10176, Note_on_c, 1, 62, 80
3, 10176, Note_on_c, 1, 57, 80
3, 10176, Note_on_c, 1, 54, 80
3, 10176, Note_on_c, 1, 50, 80
3, 10268, Note_off_c, 1, 62, 100
3, 10268, Note_off_c, 1, 57, 100
3, 10268, Note_off_c, 1, 54, 100
3, 10268, Note_off_c, 1, 50, 100
3, 10272, Note_on_c, 1, 62, 80
3, 10272, Note_on_c, 1, 57, 80
3, 10272, Note_on_c, 1, 54, 80
3, 10272, Note_on_c, 1, 50, 80
3, 10364, Note_off_c, 1, 62, 100
3, 10364, Note_off_c, 1, 57, 100
3, 10364, Note_off_c, 1, 54, 100
3, 10364, Note_off_c, 1, 50, 100
3, 10368, Note_on_c, 1, 62, 80
3, 10368, Note_on_c, 1, 56, 80
3, 10368, Note_on_c, 1, 53, 80
3, 10368, Note_on_c, 1, 50, 80
3, 10460, Note_off_c, 1, 62, 100
3, 10460, Note_off_c, 1, 56, 100
3, 10460, Note_off_c, 1, 53, 100
3, 10460, Note_off_c, 1, 50, 100
3, 10464, Note_on_c, 1, 62, 80
3, 10464, Note_on_c, 1, 56, 80
3, 10464, Note_on_c, 1, 53, 80
3, 10464, Note_on_c, 1, 50, 80
3, 10556, Note_off_c, 1, 62, 100
3, 10556, Note_off_c, 1, 56, 100
3, 10556, Note_off_c, 1, 53, 100
3, 10556, Note_off_c, 1, 50, 100
3, 10560, Note_on_c, 1, 62, 80
3, 10560, Note_on_c, 1, 56, 80
3, 10560, Note_on_c, 1, 53, 80
3, 10560, Note_on_c, 1, 50, 80
3, 10652, Note_off_c, 1, 62, 100
3, 10652, Note_off_c, 1, 56, 100
3, 10652, Note_off_c, 1, 53, 100
3, 10652, Note_off_c, 1, 50, 100
3, 10656, Note_on_c, 1, 62, 80
3, 10656, Note_on_c, 1, 56, 80
3, 10656, Note_on_c, 1, 53, 80
3, 10656, Note_on_c, 1, 50, 80
3, 10748, Note_off_c, 1, 62, 100
3, 10748, Note_off_c, 1, 56, 100
3, 10748, Note_off_c, 1, 53, 100
3, 10748, Note_off_c, 1, 50, 100
3, 10752, Note_on_c, 1, 59, 80
3, 10752, Note_on_c, 1, 53, 80
3, 10752, Note_on_c, 1, 50, 80
3, 10844, Note_off_c, 1, 59, 100
3, 10844, Note_off_c, 1, 53, 100
3, 10844, Note_off_c, 1, 50, 100
3, 10848, Note_on_c, 1, 59, 80
3, 10848, Note_on_c, 1, 53, 80
3, 10848, Note_on_c, 1, 50, 80
3, 10940, Note_off_c, 1, 59, 100
3, 10940, Note_off_c, 1, 53, 100
3, 10940, Note_off_c, 1, 50, 100
3, 10944, Note_on_c, 1, 59, 80
3, 10944, Note_on_c, 1, 53, 80
3, 10944, Note_on_c, 1, 50, 80
3, 11036, Note_off_c, 1, 59, 100
3, 11036, Note_off_c, 1, 53, 100
3, 11036, Note_off_c, 1, 50, 100
3, 11040, Note_on_c, 1, 59, 80
3, 11040, Note_on_c, 1, 53, 80
3, 11040, Note_on_c, 1, 50, 80
3, 11132, Note_off_c, 1, 59, 100
3, 11132, Note_off_c, 1, 53, 100
3, 11132, Note_off_c, 1, 50, 100
3, 11136, Note_on_c, 1, 56, 80
3, 11136, Note_on_c, 1, 50, 80
3, 11136, Note_on_c, 1, 47, 80
3, 11228, Note_off_c, 1, 56, 100
3, 11228, Note_off_c, 1, 50, 100
3, 11228, Note_off_c, 1, 47, 100
3, 11232, Note_on_c, 1, 56, 82
3, 11232, Note_on_c, 1, 50, 82
3, 11232, Note_on_c, 1, 47, 82
3, 11324, Note_off_c, 1, 56, 100
3, 11324, Note_off_c, 1, 50, 100
3, 11324, Note_off_c, 1, 47, 100
3, 11328, Note_on_c, 1, 56, 85
3, 11328, Note_on_c, 1, 50, 85
3, 11328, Note_on_c, 1, 47, 85
3, 11420, Note_off_c, 1, 56, 100
3, 11420, Note_off_c, 1, 50, 100
3, 11420, Note_off_c, 1, 47, 100
3, 11424, Note_on_c, 1, 56, 87
3, 11424, Note_on_c, 1, 50, 87
3, 11424, Note_on_c, 1, 47, 87
3, 11516, Note_off_c, 1, 56, 100
3, 11516, Note_off_c, 1, 50, 100
3, 11516, Note_off_c, 1, 47, 100
3, 11520, Note_on_c, 1, 53, 90
3, 11520, Note_on_c, 1, 47, 90
3, 11520, Note_on_c, 1, 44, 90
3, 11612, Note_off_c, 1, 53, 100
3, 11612, Note_off_c, 1, 47, 100
3, 11612, Note_off_c, 1, 44, 100
3, 11616, Note_on_c, 1, 53, 93
3, 11616, Note_on_c, 1, 47, 93
3, 11616, Note_on_c, 1, 44, 93
3, 11708, Note_off_c, 1, 53, 100
3, 11708, Note_off_c, 1, 47, 100
3, 11708, Note_off_c, 1, 44, 100
3, 11712, Note_on_c, 1, 53, 95
3, 11712, Note_on_c, 1, 47, 95
3, 11712, Note_on_c, 1, 44, 95
3, 11804, Note_off_c, 1, 53, 100
3, 11804, Note_off_c, 1, 47, 100
3, 11804, Note_off_c, 1, 44, 100
3, 11808, Note_on_c, 1, 53, 98
3, 11808, Note_on_c, 1, 47, 98
3, 11808, Note_on_c, 1, 44, 98
3, 11900, Note_off_c, 1, 53, 100
3, 11900, Note_off_c, 1, 47, 100
3, 11900, Note_off_c, 1, 44, 100
3, 11904, Note_on_c, 1, 53, 101
3, 11904, Note_on_c, 1, 47, 101
3, 11904, Note_on_c, 1, 43, 101
3, 11996, Note_off_c, 1, 53, 100
3, 11996, Note_off_c, 1, 47, 100
3, 11996, Note_off_c, 1, 43, 100
3, 12000, Note_on_c, 1, 53, 103
3, 12000, Note_on_c, 1, 47, 103
3, 12000, Note_on_c, 1, 43, 103
3, 12092, Note_off_c, 1, 53, 100
3, 12092, Note_off_c, 1, 47, 100
3, 12092, Note_off_c, 1, 43, 100
3, 12096, Note_on_c, 1, 53, 106
3, 12096, Note_on_c, 1, 47, 106
3, 12096, Note_on_c, 1, 43, 106
3, 12188, Note_off_c, 1, 53, 100
3, 12188, Note_off_c, 1, 47, 100
3, 12188, Note_off_c, 1, 43, 100
3, 12192, Note_on_c, 1, 53, 109
3, 12192, Note_on_c, 1, 47, 109
3, 12192, Note_on_c, 1, 43, 109
3, 12284, Note_off_c, 1, 53, 100
3, 12284, Note_off_c, 1, 47, 100
3, 12284, Note_off_c, 1, 43, 100
3, 12288, Note_on_c, 1, 53, 111
3, 12288, Note_on_c, 1, 48, 111
3, 12288, Note_on_c, 1, 44, 111
3, 12380, Note_off_c, 1, 53, 100
3, 12380, Note_off_c, 1, 48, 100
3, 12380, Note_off_c, 1, 44, 100
3, 12384, Note_on_c, 1, 53, 114
3, 12384, Note_on_c, 1, 48, 114
3, 12384, Note_on_c, 1, 44, 114
3, 12476, Note_off_c, 1, 53, 100
3, 12476, Note_off_c, 1, 48, 100
3, 12476, Note_off_c, 1, 44, 100
3, 12480, Note_on_c, 1, 53, 117
3, 12480, Note_on_c, 1, 48, 117
3, 12480, Note_on_c, 1, 44, 117
3, 12572, Note_off_c, 1, 53, 100
3, 12572, Note_off_c, 1, 48, 100
3, 12572, Note_off_c, 1, 44, 100
3, 12576, Note_on_c, 1, 53, 119
3, 12576, Note_on_c, 1, 48, 119
3, 12576, Note_on_c, 1, 44, 119
3, 12668, Note_off_c, 1, 53, 100
3, 12668, Note_off_c, 1, 48, 100
3, 12668, Note_off_c, 1, 44, 100
3, 12672, Note_on_c, 1, 53, 120
3, 12672, Note_on_c, 1, 47, 120
3, 12672, Note_on_c, 1, 43, 120
3, 12860, Note_off_c, 1, 53, 100
3, 12860, Note_off_c, 1, 47, 100
3, 12860, Note_off_c, 1, 43, 100
3, 13248, Note_on_c, 1, 74, 80
3, 13248, Note_on_c, 1, 67, 80
3, 13340, Note_off_c, 1, 74, 100
3, 13340, Note_off_c, 1, 67, 100
3, 13344, Note_on_c, 1, 74, 80
3, 13344, Note_on_c, 1, 67, 80
3, 13436, Note_off_c, 1, 74, 100
3, 13436, Note_off_c, 1, 67, 100
3, 13440, Note_on_c, 1, 72, 80
3, 13440, Note_on_c, 1, 68, 80
3, 13628, Note_off_c, 1, 72, 100
3, 13628, Note_off_c, 1, 68, 100
3, 14784, Note_on_c, 1, 62, 80
3, 14784, Note_on_c, 1, 60, 80
3, 14784, Note_on_c, 1, 53, 80
3, 14876, Note_off_c, 1, 62, 100
3, 14876, Note_off_c, 1, 60, 100
3, 14876, Note_off_c, 1, 53, 100
3, 14880, Note_on_c, 1, 62, 80
3, 14880, Note_on_c, 1, 60, 80
3, 14880, Note_on_c, 1, 53, 80
3, 14972, Note_off_c, 1, 62, 100
3, 14972, Note_off_c, 1, 60, 100
3, 14972, Note_off_c, 1, 53, 100
3, 14976, Note_on_c, 1, 60, 80
3, 14976, Note_on_c, 1, 63, 80
3, 14976, Note_on_c, 1, 55, 80
3, 15164, Note_off_c, 1, 60, 100
3, 15164, Note_off_c, 1, 63, 100
3, 15164, Note_off_c, 1, 55, 100
3, 15528, Note_on_c, 1, 53, 80
3, 15528, Note_on_c, 1, 50, 80
3, 15528, Note_on_c, 1, 43, 80
3, 15932, Note_off_c, 1, 43, 100
3, 15932, Note_off_c, 1, 50, 100
3, 15932, Note_off_c, 1, 53, 100
3, 16512, Note_on_c, 1, 36, 80
3, 16696, Note_off_c, 1, 36, 100
3, 16704, Note_on_c, 1, 48, 80
3, 16888, Note_off_c, 1, 48, 100
3, 16896, Note_on_c, 1, 36, 80
3, 17080, Note_off_c, 1, 36, 100
3, 17088, Note_on_c, 1, 48, 80
3, 17272, Note_off_c, 1, 48, 100
3, 17280, Note_on_c, 1, 36, 80
3, 17464, Note_off_c, 1, 36, 100
3, 17472, Note_on_c, 1, 48, 80
3, 17656, Note_off_c, 1, 48, 100
3, 17664, Note_on_c, 1, 36, 80
3, 17848, Note_off_c, 1, 36, 100
3, 17856, Note_on_c, 1, 48, 80
3, 18040, Note_off_c, 1, 48, 100
3, 18048, Note_on_c, 1, 36, 80
3, 18232, Note_off_c, 1, 36, 100
3, 18240, Note_on_c, 1, 48, 80
3, 18424, Note_off_c, 1, 48, 100
3, 18432, Note_on_c, 1, 36, 80
3, 18616, Note_off_c, 1, 36, 100
3, 18624, Note_on_c, 1, 48, 80
3, 18808, Note_off_c, 1, 48, 100
3, 18816, Note_on_c, 1, 36, 80
3, 19000, Note_off_c, 1, 36, 100
3, 19008, Note_on_c, 1, 48, 80
3, 19192, Note_off_c, 1, 48, 100
3, 19200, Note_on_c, 1, 36, 80
3, 19384, Note_off_c, 1, 36, 100
3, 19392, Note_on_c, 1, 48, 80
3, 19576, Note_off_c, 1, 48, 100
3, 19584, Note_on_c, 1, 36, 80
3, 19768, Note_off_c, 1, 36, 100
3, 19776, Note_on_c, 1, 48, 80
3, 19960, Note_off_c, 1, 48, 100
3, 19968, Note_on_c, 1, 36, 80
3, 20152, Note_off_c, 1, 36, 100
3, 20160, Note_on_c, 1, 48, 80
3, 20344, Note_off_c, 1, 48, 100
3, 20352, Note_on_c, 1, 36, 80
3, 20536, Note_off_c, 1, 36, 100
3, 20544, Note_on_c, 1, 48, 80
3, 20728, Note_off_c, 1, 48, 100
3, 20736, Note_on_c, 1, 36, 80
3, 20920, Note_off_c, 1, 36, 100
3, 20928, Note_on_c, 1, 48, 80
3, 21112, Note_off_c, 1, 48, 100
3, 21120, Note_on_c, 1, 36, 80
3, 21304, Note_off_c, 1, 36, 100
3, 21312, Note_on_c, 1, 48, 80
3, 21496, Note_off_c, 1, 48, 100
3, 21504, Note_on_c, 1, 36, 80
3, 21688, Note_off_c, 1, 36, 100
3, 21696, Note_on_c, 1, 48, 80
3, 21880, Note_off_c, 1, 48, 100
3, 21888, Note_on_c, 1, 36, 80
3, 22072, Note_off_c, 1, 36, 100
3, 22080, Note_on_c, 1, 48, 80
3, 22264, Note_off_c, 1, 48, 100
3, 22272, Note_on_c, 1, 36, 80
3, 22456, Note_off_c, 1, 36, 100
3, 22464, Note_on_c, 1, 48, 80
3, 22648, Note_off_c, 1, 48, 100
3, 22656, Note_on_c, 1, 36, 80
3, 22840, Note_off_c, 1, 36, 100
3, 22848, Note_on_c, 1, 48, 81
3, 23032, Note_off_c, 1, 48, 100
3, 23040, Note_on_c, 1, 36, 82
3, 23224, Note_off_c, 1, 36, 100
3, 23232, Note_on_c, 1, 48, 83
3, 23416, Note_off_c, 1, 48, 100
3, 23424, Note_on_c, 1, 38, 85
3, 23608, Note_off_c, 1, 38, 100
3, 23616, Note_on_c, 1, 50, 86
3, 23800, Note_off_c, 1, 50, 100
3, 23808, Note_on_c, 1, 38, 87
3, 23992, Note_off_c, 1, 38, 100
3, 24000, Note_on_c, 1, 50, 89
3, 24184, Note_off_c, 1, 50, 100
3, 24192, Note_on_c, 1, 39, 90
3, 24376, Note_off_c, 1, 39, 100
3, 24384, Note_on_c, 1, 51, 91
3, 24568, Note_off_c, 1, 51, 100
3, 24576, Note_on_c, 1, 39, 93
3, 24760, Note_off_c, 1, 39, 100
3, 24768, Note_on_c, 1, 51, 94
3, 24952, Note_off_c, 1, 51, 100
3, 24960, Note_on_c, 1, 41, 95
3, 25144, Note_off_c, 1, 41, 100
3, 25152, Note_on_c, 1, 53, 96
3, 25336, Note_off_c, 1, 53, 100
3, 25344, Note_on_c, 1, 41, 98
3, 25528, Note_off_c, 1, 41, 100
3, 25536, Note_on_c, 1, 53, 99
3, 25720, Note_off_c, 1, 53, 100
3, 25728, Note_on_c, 1, 43, 100
3, 25912, Note_off_c, 1, 43, 100
3, 25920, Note_on_c, 1, 55, 102
3, 26104, Note_off_c, 1, 55, 100
3, 26112, Note_on_c, 1, 43, 103
3, 26296, Note_off_c, 1, 43, 100
3, 26304, Note_on_c, 1, 55, 104
3, 26488, Note_off_c, 1, 55, 100
3, 26496, Note_on_c, 1, 44, 106
3, 26680, Note_off_c, 1, 44, 100
3, 26688, Note_on_c, 1, 56, 107
3, 26872, Note_off_c, 1, 56, 100
3, 26880, Note_on_c, 1, 44, 108
3, 27064, Note_off_c, 1, 44, 100
3, 27072, Note_on_c, 1, 56, 109
3, 27256, Note_off_c, 1, 56, 100
3, 27264, Note_on_c, 1, 42, 100
3, 27448, Note_off_c, 1, 42, 100
3, 27456, Note_on_c, 1, 54, 98
3, 27640, Note_off_c, 1, 54, 100
3, 27648, Note_on_c, 1, 42, 95
3, 27832, Note_off_c, 1, 42, 100
3, 27840, Note_on_c, 1, 54, 92
3, 28024, Note_off_c, 1, 54, 100
3, 28032, Note_on_c, 1, 43, 89
3, 28216, Note_off_c, 1, 43, 100
3, 28224, Note_on_c, 1, 55, 86
3, 28408, Note_off_c, 1, 55, 100
3, 28416, Note_on_c, 1, 43, 83
3, 28600, Note_off_c, 1, 43, 100
3, 28608, Note_on_c, 1, 55, 81
3, 28792, Note_off_c, 1, 55, 100
3, 28800, Note_on_c, 1, 36, 80
3, 28984, Note_off_c, 1, 36, 100
3, 28992, Note_on_c, 1, 48, 80
3, 29176, Note_off_c, 1, 48, 100
3, 29184, Note_on_c, 1, 36, 80
3, 29368, Note_off_c, 1, 36, 100
3, 29376, Note_on_c, 1, 48, 80
3, 29560, Note_off_c, 1, 48, 100
3, 29568, Note_on_c, 1, 36, 80
3, 29752, Note_off_c, 1, 36, 100
3, 29760, Note_on_c, 1, 48, 80
3, 29944, Note_off_c, 1, 48, 100
3, 29952, Note_on_c, 1, 36, 80
3, 30136, Note_off_c, 1, 36, 100
3, 30144, Note_on_c, 1, 48, 80
3, 30328, Note_off_c, 1, 48, 100
3, 30336, Note_on_c, 1, 36, 80
3, 30520, Note_off_c, 1, 36, 100
3, 30528, Note_on_c, 1, 48, 80
3, 30712, Note_off_c, 1, 48, 100
3, 30720, Note_on_c, 1, 36, 80
3, 30904, Note_off_c, 1, 36, 100
3, 30912, Note_on_c, 1, 48, 80
3, 31096, Note_off_c, 1, 48, 100
3, 31104, Note_on_c, 1, 36, 80
3, 31288, Note_off_c, 1, 36, 100
3, 31296, Note_on_c, 1, 48, 80
3, 31480, Note_off_c, 1, 48, 100
3, 31488, Note_on_c, 1, 36, 80
3, 31672, Note_off_c, 1, 36, 100
3, 31680, Note_on_c, 1, 48, 80
3, 31864, Note_off_c, 1, 48, 100
3, 31872, Note_on_c, 1, 36, 80
3, 32056, Note_off_c, 1, 36, 100
3, 32064, Note_on_c, 1, 48, 80
3, 32248, Note_off_c, 1, 48, 100
3, 32256, Note_on_c, 1, 36, 80
3, 32440, Note_off_c, 1, 36, 100
3, 32448, Note_on_c, 1, 48, 80
3, 32632, Note_off_c, 1, 48, 100
3, 32640, Note_on_c, 1, 36, 80
3, 32824, Note_off_c, 1, 36, 100
3, 32832, Note_on_c, 1, 48, 80
3, 33016, Note_off_c, 1, 48, 100
3, 33024, Note_on_c, 1, 36, 80
3, 33208, Note_off_c, 1, 36, 100
3, 33216, Note_on_c, 1, 48, 80
3, 33400, Note_off_c, 1, 48, 100
3, 33408, Note_on_c, 1, 36, 80
3, 33592, Note_off_c, 1, 36, 100
3, 33600, Note_on_c, 1, 48, 80
3, 33784, Note_off_c, 1, 48, 100
3, 33792, Note_on_c, 1, 36, 80
3, 33976, Note_off_c, 1, 36, 100
3, 33984, Note_on_c, 1, 48, 80
3, 34168, Note_off_c, 1, 48, 100
3, 34176, Note_on_c, 1, 36, 80
3, 34360, Note_off_c, 1, 36, 100
3, 34368, Note_on_c, 1, 48, 80
3, 34552, Note_off_c, 1, 48, 100
3, 34560, Note_on_c, 1, 36, 80
3, 34744, Note_off_c, 1, 36, 100
3, 34752, Note_on_c, 1, 48, 80
3, 34936, Note_off_c, 1, 48, 100
3, 34944, Note_on_c, 1, 36, 80
3, 35128, Note_off_c, 1, 36, 100
3, 35136, Note_on_c, 1, 48, 80
3, 35320, Note_off_c, 1, 48, 100
3, 35328, Note_on_c, 1, 36, 81
3, 35512, Note_off_c, 1, 36, 100
3, 35520, Note_on_c, 1, 48, 82
3, 35704, Note_off_c, 1, 48, 100
3, 35712, Note_on_c, 1, 38, 83
3, 35896, Note_off_c, 1, 38, 100
3, 35904, Note_on_c, 1, 50, 84
3, 36088, Note_off_c, 1, 50, 100
3, 36096, Note_on_c, 1, 38, 85
3, 36280, Note_off_c, 1, 38, 100
3, 36288, Note_on_c, 1, 50, 86
3, 36472, Note_off_c, 1, 50, 100
3, 36480, Note_on_c, 1, 39, 87
3, 36664, Note_off_c, 1, 39, 100
3, 36672, Note_on_c, 1, 51, 88
3, 36856, Note_off_c, 1, 51, 100
3, 36864, Note_on_c, 1, 39, 89
3, 37048, Note_off_c, 1, 39, 100
3, 37056, Note_on_c, 1, 51, 90
3, 37240, Note_off_c, 1, 51, 100
3, 37248, Note_on_c, 1, 41, 91
3, 37432, Note_off_c, 1, 41, 100
3, 37440, Note_on_c, 1, 53, 92
3, 37624, Note_off_c, 1, 53, 100
3, 37632, Note_on_c, 1, 41, 93
3, 37816, Note_off_c, 1, 41, 100
3, 37824, Note_on_c, 1, 53, 94
3, 38008, Note_off_c, 1, 53, 100
3, 38016, Note_on_c, 1, 43, 95
3, 38200, Note_off_c, 1, 43, 100
3, 38208, Note_on_c, 1, 55, 96
3, 38392, Note_off_c, 1, 55, 100
3, 38400, Note_on_c, 1, 43, 97
3, 38584, Note_off_c, 1, 43, 100
3, 38592, Note_on_c, 1, 55, 98
3, 38776, Note_off_c, 1, 55, 100
3, 38784, Note_on_c, 1, 44, 99
3, 38968, Note_off_c, 1, 44, 100
3, 38976, Note_on_c, 1, 56, 100
3, 39160, Note_off_c, 1, 56, 100
3, 39168, Note_on_c, 1, 44, 101
3, 39352, Note_off_c, 1, 44, 100
3, 39360, Note_on_c, 1, 56, 102
3, 39544, Note_off_c, 1, 56, 100
3, 39552, Note_on_c, 1, 42, 103
3, 39736, Note_off_c, 1, 42, 100
3, 39744, Note_on_c, 1, 54, 104
3, 39928, Note_off_c, 1, 54, 100
3, 39936, Note_on_c, 1, 42, 105
3, 40120, Note_off_c, 1, 42, 100
3, 40128, Note_on_c, 1, 54, 106
3, 40312, Note_off_c, 1, 54, 100
3, 40320, Note_on_c, 1, 42, 107
3, 40504, Note_off_c, 1, 42, 100
3, 40512, Note_on_c, 1, 54, 108
3, 40696, Note_off_c, 1, 54, 100
3, 40704, Note_on_c, 1, 42, 108
3, 40888, Note_off_c, 1, 42, 100
3, 40896, Note_on_c, 1, 54, 109
3, 41080, Note_off_c, 1, 54, 100
3, 41088, Note_on_c, 1, 55, 80
3, 41088, Note_on_c, 1, 43, 80
3, 41464, Note_off_c, 1, 55, 100
3, 41464, Note_off_c, 1, 43, 100
3, 41472, Note_on_c, 1, 59, 80
3, 41472, Note_on_c, 1, 62, 80
3, 41848, Note_off_c, 1, 59, 100
3, 41848, Note_off_c, 1, 62, 100
3, 41856, Note_on_c, 1, 59, 80
3, 41856, Note_on_c, 1, 62, 80
3, 42232, Note_off_c, 1, 59, 100
3, 42232, Note_off_c, 1, 62, 100
3, 42240, Note_on_c, 1, 59, 80
3, 42240, Note_on_c, 1, 62, 80
3, 42616, Note_off_c, 1, 59, 100
3, 42616, Note_off_c, 1, 62, 100
3, 42624, Note_on_c, 1, 55, 80
3, 43000, Note_off_c, 1, 55, 100
3, 43008, Note_on_c, 1, 60, 80
3, 43008, Note_on_c, 1, 63, 80
3, 43384, Note_off_c, 1, 60, 100
3, 43384, Note_off_c, 1, 63, 100
3, 43392, Note_on_c, 1, 60, 80
3, 43392, Note_on_c, 1, 63, 80
3, 43768, Note_off_c, 1, 60, 100
3, 43768, Note_off_c, 1, 63, 100
3, 43776, Note_on_c, 1, 60, 80
3, 43776, Note_on_c, 1, 63, 80
3, 44152, Note_off_c, 1, 60, 100
3, 44152, Note_off_c, 1, 63, 100
3, 44160, Note_on_c, 1, 62, 80
3, 44160, Note_on_c, 1, 65, 80
3, 44536, Note_off_c, 1, 62, 100
3, 44536, Note_off_c, 1, 65, 100
3, 46464, Note_on_c, 1, 32, 80
3, 46648, Note_off_c, 1, 32, 100
3, 46656, Note_on_c, 1, 44, 80
3, 46840, Note_off_c, 1, 44, 100
3, 46848, Note_on_c, 1, 32, 80
3, 47032, Note_off_c, 1, 32, 100
3, 47040, Note_on_c, 1, 44, 80
3, 47224, Note_off_c, 1, 44, 100
3, 47232, Note_on_c, 1, 43, 80
3, 47232, Note_on_c, 1, 31, 80
3, 47608, Note_off_c, 1, 43, 100
3, 47608, Note_off_c, 1, 31, 100
3, 47616, Note_on_c, 1, 59, 80
3, 47616, Note_on_c, 1, 62, 80
3, 47992, Note_off_c, 1, 59, 100
3, 47992, Note_off_c, 1, 62, 100
3, 48000, Note_on_c, 1, 59, 80
3, 48000, Note_on_c, 1, 62, 80
3, 48376, Note_off_c, 1, 59, 100
3, 48376, Note_off_c, 1, 62, 100
3, 48384, Note_on_c, 1, 59, 80
3, 48384, Note_on_c, 1, 62, 80
3, 48760, Note_off_c, 1, 59, 100
3, 48760, Note_off_c, 1, 62, 100
3, 48768, Note_on_c, 1, 55, 80
3, 49144, Note_off_c, 1, 55, 100
3, 49152, Note_on_c, 1, 60, 80
3, 49152, Note_on_c, 1, 63, 80
3, 49528, Note_off_c, 1, 60, 100
3, 49528, Note_off_c, 1, 63, 100
3, 49536, Note_on_c, 1, 60, 80
3, 49536, Note_on_c, 1, 63, 80
3, 49912, Note_off_c, 1, 60, 100
3, 49912, Note_off_c, 1, 63, 100
3, 49920, Note_on_c, 1, 60, 80
3, 49920, Note_on_c, 1, 63, 80
3, 50296, Note_off_c, 1, 60, 100
3, 50296, Note_off_c, 1, 63, 100
3, 50304, Note_on_c, 1, 62, 80
3, 50304, Note_on_c, 1, 65, 80
3, 50680, Note_off_c, 1, 62, 100
3, 50680, Note_off_c, 1, 65, 100
3, 52608, Note_on_c, 1, 32, 80
3, 52792, Note_off_c, 1, 32, 100
3, 52800, Note_on_c, 1, 44, 80
3, 52984, Note_off_c, 1, 44, 100
3, 52992, Note_on_c, 1, 32, 80
3, 53176, Note_off_c, 1, 32, 100
3, 53184, Note_on_c, 1, 44, 80
3, 53368, Note_off_c, 1, 44, 100
3, 53376, Note_on_c, 1, 31, 80
3, 53560, Note_off_c, 1, 31, 100
3, 53568, Note_on_c, 1, 43, 82
3, 53752, Note_off_c, 1, 43, 100
3, 53760, Note_on_c, 1, 31, 84
3, 53944, Note_off_c, 1, 31, 100
3, 53952, Note_on_c, 1, 43, 86
3, 54136, Note_off_c, 1, 43, 100
3, 54144, Note_on_c, 1, 31, 88
3, 54328, Note_off_c, 1, 31, 100
3, 54336, Note_on_c, 1, 43, 90
3, 54520, Note_off_c, 1, 43, 100
3, 54528, Note_on_c, 1, 31, 92
3, 54712, Note_off_c, 1, 31, 100
3, 54720, Note_on_c, 1, 43, 94
3, 54904, Note_off_c, 1, 43, 100
3, 54912, Note_on_c, 1, 31, 97
3, 55096, Note_off_c, 1, 31, 100
3, 55104, Note_on_c, 1, 43, 99
3, 55288, Note_off_c, 1, 43, 100
3, 55296, Note_on_c, 1, 31, 101
3, 55480, Note_off_c, 1, 31, 100
3, 55488, Note_on_c, 1, 43, 103
3, 55672, Note_off_c, 1, 43, 100
3, 55680, Note_on_c, 1, 31, 105
3, 55864, Note_off_c, 1, 31, 100
3, 55872, Note_on_c, 1, 43, 107
3, 56056, Note_off_c, 1, 43, 100
3, 56064, Note_on_c, 1, 31, 109
3, 56248, Note_off_c, 1, 31, 100
3, 56256, Note_on_c, 1, 43, 80
3, 56440, Note_off_c, 1, 43, 100
3, 56448, Note_on_c, 1, 31, 110
3, 56632, Note_off_c, 1, 31, 100
3, 56640, Note_on_c, 1, 43, 110
3, 56824, Note_off_c, 1, 43, 100
3, 56832, Note_on_c, 1, 31, 110
3, 57016, Note_off_c, 1, 31, 100
3, 57024, Note_on_c, 1, 43, 110
3, 57208, Note_off_c, 1, 43, 100
3, 57216, Note_on_c, 1, 31, 110
3, 57400, Note_off_c, 1, 31, 100
3, 57408, Note_on_c, 1, 43, 110
3, 57592, Note_off_c, 1, 43, 100
3, 57600, Note_on_c, 1, 31, 110
3, 57784, Note_off_c, 1, 31, 100
3, 57792, Note_on_c, 1, 43, 110
3, 57976, Note_off_c, 1, 43, 100
3, 57984, Note_on_c, 1, 31, 110
3, 58168, Note_off_c, 1, 31, 100
3, 58176, Note_on_c, 1, 43, 110
3, 58360, Note_off_c, 1, 43, 100
3, 58368, Note_on_c, 1, 31, 110
3, 58552, Note_off_c, 1, 31, 100
3, 58560, Note_on_c, 1, 43, 110
3, 58744, Note_off_c, 1, 43, 100
3, 58752, Note_on_c, 1, 31, 110
3, 58936, Note_off_c, 1, 31, 100
3, 58944, Note_on_c, 1, 43, 110
3, 59128, Note_off_c, 1, 43, 100
3, 59136, Note_on_c, 1, 31, 110
3, 59320, Note_off_c, 1, 31, 100
3, 59328, Note_on_c, 1, 43, 110
3, 59512, Note_off_c, 1, 43, 100
3, 59520, Note_on_c, 1, 32, 80
3, 59704, Note_off_c, 1, 32, 100
3, 59712, Note_on_c, 1, 44, 81
3, 59896, Note_off_c, 1, 44, 100
3, 59904, Note_on_c, 1, 32, 83
3, 60088, Note_off_c, 1, 32, 100
3, 60096, Note_on_c, 1, 44, 85
3, 60280, Note_off_c, 1, 44, 100
3, 60288, Note_on_c, 1, 32, 87
3, 60472, Note_off_c, 1, 32, 100
3, 60480, Note_on_c, 1, 44, 89
3, 60664, Note_off_c, 1, 44, 100
3, 60672, Note_on_c, 1, 32, 91
3, 60856, Note_off_c, 1, 32, 100
3, 60864, Note_on_c, 1, 44, 93
3, 61048, Note_off_c, 1, 44, 100
3, 61056, Note_on_c, 1, 32, 95
3, 61240, Note_off_c, 1, 32, 100
3, 61248, Note_on_c, 1, 44, 97
3, 61432, Note_off_c, 1, 44, 100
3, 61440, Note_on_c, 1, 32, 99
3, 61624, Note_off_c, 1, 32, 100
3, 61632, Note_on_c, 1, 44, 101
3, 61816, Note_off_c, 1, 44, 100
3, 61824, Note_on_c, 1, 32, 103
3, 62008, Note_off_c, 1, 32, 100
3, 62016, Note_on_c, 1, 44, 105
3, 62200, Note_off_c, 1, 44, 100
3, 62208, Note_on_c, 1, 32, 107
3, 62392, Note_off_c, 1, 32, 100
3, 62400, Note_on_c, 1, 44, 109
3, 62584, Note_off_c, 1, 44, 100
3, 62592, Note_on_c, 1, 32, 110
3, 62776, Note_off_c, 1, 32, 100
3, 62784, Note_on_c, 1, 44, 110
3, 62968, Note_off_c, 1, 44, 100
3, 62976, Note_on_c, 1, 32, 110
3, 63160, Note_off_c, 1, 32, 100
3, 63168, Note_on_c, 1, 44, 110
3, 63352, Note_off_c, 1, 44, 100
3, 63360, Note_on_c, 1, 32, 110
3, 63544, Note_off_c, 1, 32, 100
3, 63552, Note_on_c, 1, 44, 110
3, 63736, Note_off_c, 1, 44, 100
3, 63744, Note_on_c, 1, 32, 110
3, 63928, Note_off_c, 1, 32, 100
3, 63936, Note_on_c, 1, 44, 110
3, 64120, Note_off_c, 1, 44, 100
3, 64128, Note_on_c, 1, 33, 110
3, 64312, Note_off_c, 1, 33, 100
3, 64320, Note_on_c, 1, 45, 110
3, 64504, Note_off_c, 1, 45, 100
3, 64512, Note_on_c, 1, 33, 110
3, 64696, Note_off_c, 1, 33, 100
3, 64704, Note_on_c, 1, 45, 110
3, 64888, Note_off_c, 1, 45, 100
3, 64896, Note_on_c, 1, 33, 110
3, 65080, Note_off_c, 1, 33, 100
3, 65088, Note_on_c, 1, 45, 110
3, 65272, Note_off_c, 1, 45, 100
3, 65280, Note_on_c, 1, 33, 110
3, 65464, Note_off_c, 1, 33, 100
3, 65472, Note_on_c, 1, 45, 110
3, 65656, Note_off_c, 1, 45, 100
3, 65664, Note_on_c, 1, 34, 80
3, 65848, Note_off_c, 1, 34, 100
3, 65856, Note_on_c, 1, 46, 81
3, 66040, Note_off_c, 1, 46, 100
3, 66048, Note_on_c, 1, 34, 83
3, 66232, Note_off_c, 1, 34, 100
3, 66240, Note_on_c, 1, 46, 85
3, 66424, Note_off_c, 1, 46, 100
3, 66432, Note_on_c, 1, 34, 87
3, 66616, Note_off_c, 1, 34, 100
3, 66624, Note_on_c, 1, 46, 89
3, 66808, Note_off_c, 1, 46, 100
3, 66816, Note_on_c, 1, 34, 91
3, 67000, Note_off_c, 1, 34, 100
3, 67008, Note_on_c, 1, 46, 93
3, 67192, Note_off_c, 1, 46, 100
3, 67200, Note_on_c, 1, 34, 95
3, 67384, Note_off_c, 1, 34, 100
3, 67392, Note_on_c, 1, 46, 97
3, 67576, Note_off_c, 1, 46, 100
3, 67584, Note_on_c, 1, 34, 99
3, 67768, Note_off_c, 1, 34, 100
3, 67776, Note_on_c, 1, 46, 101
3, 67960, Note_off_c, 1, 46, 100
3, 67968, Note_on_c, 1, 34, 103
3, 68152, Note_off_c, 1, 34, 100
3, 68160, Note_on_c, 1, 46, 105
3, 68344, Note_off_c, 1, 46, 100
3, 68352, Note_on_c, 1, 34, 107
3, 68536, Note_off_c, 1, 34, 100
3, 68544, Note_on_c, 1, 46, 109
3, 68728, Note_off_c, 1, 46, 100
3, 68736, Note_on_c, 1, 34, 110
3, 68920, Note_off_c, 1, 34, 100
3, 68928, Note_on_c, 1, 46, 110
3, 69112, Note_off_c, 1, 46, 100
3, 69120, Note_on_c, 1, 34, 110
3, 69304, Note_off_c, 1, 34, 100
3, 69312, Note_on_c, 1, 46, 110
3, 69496, Note_off_c, 1, 46, 100
3, 69504, Note_on_c, 1, 34, 110
3, 69688, Note_off_c, 1, 34, 100
3, 69696, Note_on_c, 1, 46, 110
3, 69880, Note_off_c, 1, 46, 100
3, 69888, Note_on_c, 1, 34, 110
3, 70072, Note_off_c, 1, 34, 100
3, 70080, Note_on_c, 1, 46, 110
3, 70264, Note_off_c, 1, 46, 100
3, 70272, Note_on_c, 1, 34, 110
3, 70456, Note_off_c, 1, 34, 100
3, 70464, Note_on_c, 1, 46, 110
3, 70648, Note_off_c, 1, 46, 100
3, 70656, Note_on_c, 1, 34, 110
3, 70840, Note_off_c, 1, 34, 100
3, 70848, Note_on_c, 1, 46, 110
3, 71032, Note_off_c, 1, 46, 100
3, 71040, Note_on_c, 1, 34, 110
3, 71224, Note_off_c, 1, 34, 100
3, 71232, Note_on_c, 1, 46, 110
3, 71416, Note_off_c, 1, 46, 100
3, 71424, Note_on_c, 1, 34, 110
3, 71608, Note_off_c, 1, 34, 100
3, 71616, Note_on_c, 1, 46, 110
3, 71800, Note_off_c, 1, 46, 100
3, 71808, Note_on_c, 1, 34, 110
3, 71992, Note_off_c, 1, 34, 100
3, 72000, Note_on_c, 1, 46, 110
3, 72184, Note_off_c, 1, 46, 100
3, 72192, Note_on_c, 1, 34, 110
3, 72376, Note_off_c, 1, 34, 100
3, 72384, Note_on_c, 1, 46, 110
3, 72568, Note_off_c, 1, 46, 100
3, 72576, Note_on_c, 1, 34, 110
3, 72760, Note_off_c, 1, 34, 100
3, 72768, Note_on_c, 1, 46, 110
3, 72952, Note_off_c, 1, 46, 100
3, 72960, Note_on_c, 1, 34, 110
3, 73144, Note_off_c, 1, 34, 100
3, 73152, Note_on_c, 1, 46, 110
3, 73336, Note_off_c, 1, 46, 100
3, 73344, Note_on_c, 1, 34, 110
3, 73528, Note_off_c, 1, 34, 100
3, 73536, Note_on_c, 1, 46, 110
3, 73720, Note_off_c, 1, 46, 100
3, 73728, Note_on_c, 1, 34, 110
3, 73912, Note_off_c, 1, 34, 100
3, 73920, Note_on_c, 1, 46, 110
3, 74104, Note_off_c, 1, 46, 100
3, 74112, Note_on_c, 1, 34, 110
3, 74296, Note_off_c, 1, 34, 100
3, 74304, Note_on_c, 1, 46, 110
3, 74488, Note_off_c, 1, 46, 100
3, 74496, Note_on_c, 1, 34, 110
3, 74680, Note_off_c, 1, 34, 100
3, 74688, Note_on_c, 1, 46, 110
3, 74872, Note_off_c, 1, 46, 100
3, 74880, Note_on_c, 1, 46, 110
3, 74880, Note_on_c, 1, 34, 110
3, 75256, Note_off_c, 1, 46, 100
3, 75256, Note_off_c, 1, 34, 100
3, 77952, Note_on_c, 1, 58, 80
3, 78336, Note_on_c, 1, 63, 80
3, 78336, Note_on_c, 1, 66, 80
3, 78712, Note_off_c, 1, 63, 100
3, 78712, Note_off_c, 1, 66, 100
3, 78720, Note_on_c, 1, 63, 80
3, 78720, Note_on_c, 1, 66, 80
3, 79096, Note_off_c, 1, 63, 100
3, 79096, Note_off_c, 1, 66, 100
3, 79104, Note_on_c, 1, 63, 80
3, 79104, Note_on_c, 1, 66, 80
3, 79480, Note_off_c, 1, 58, 100
3, 79480, Note_off_c, 1, 63, 100
3, 79480, Note_off_c, 1, 66, 100
3, 79488, Note_on_c, 1, 58, 80
3, 79872, Note_on_c, 1, 63, 80
3, 79872, Note_on_c, 1, 66, 80
3, 80248, Note_off_c, 1, 63, 100
3, 80248, Note_off_c, 1, 66, 100
3, 80256, Note_on_c, 1, 63, 80
3, 80256, Note_on_c, 1, 66, 80
3, 80632, Note_off_c, 1, 63, 100
3, 80632, Note_off_c, 1, 66, 100
3, 80640, Note_on_c, 1, 63, 80
3, 80640, Note_on_c, 1, 66, 80
3, 81016, Note_off_c, 1, 58, 100
3, 81016, Note_off_c, 1, 63, 100
3, 81016, Note_off_c, 1, 66, 100
3, 81024, Note_on_c, 1, 58, 80
3, 81408, Note_on_c, 1, 63, 80
3, 81408, Note_on_c, 1, 66, 80
3, 81784, Note_off_c, 1, 63, 100
3, 81784, Note_off_c, 1, 66, 100
3, 81792, Note_on_c, 1, 63, 80
3, 81792, Note_on_c, 1, 66, 80
3, 82168, Note_off_c, 1, 63, 100
3, 82168, Note_off_c, 1, 66, 100
3, 82176, Note_on_c, 1, 63, 80
3, 82176, Note_on_c, 1, 66, 80
3, 82552, Note_off_c, 1, 58, 100
3, 82552, Note_off_c, 1, 63, 100
3, 82552, Note_off_c, 1, 66, 100
3, 82560, Note_on_c, 1, 58, 80
3, 82944, Note_on_c, 1, 63, 80
3, 82944, Note_on_c, 1, 66, 80
3, 83320, Note_off_c, 1, 63, 100
3, 83320, Note_off_c, 1, 66, 100
3, 83328, Note_on_c, 1, 63, 80
3, 83328, Note_on_c, 1, 66, 80
3, 83704, Note_off_c, 1, 63, 100
3, 83704, Note_off_c, 1, 66, 100
3, 83712, Note_on_c, 1, 63, 80
3, 83712, Note_on_c, 1, 66, 80
3, 84088, Note_off_c, 1, 58, 100
3, 84088, Note_off_c, 1, 63, 100
3, 84088, Note_off_c, 1, 66, 100
3, 84096, Note_on_c, 1, 58, 80
3, 84480, Note_on_c, 1, 65, 80
3, 84480, Note_on_c, 1, 68, 80
3, 84856, Note_off_c, 1, 65, 100
3, 84856, Note_off_c, 1, 68, 100
3, 84864, Note_on_c, 1, 65, 80
3, 84864, Note_on_c, 1, 68, 80
3, 85240, Note_off_c, 1, 65, 100
3, 85240, Note_off_c, 1, 68, 100
3, 85248, Note_on_c, 1, 65, 80
3, 85248, Note_on_c, 1, 68, 80
3, 85624, Note_off_c, 1, 58, 100
3, 85624, Note_off_c, 1, 65, 100
3, 85624, Note_off_c, 1, 68, 100
3, 85632, Note_on_c, 1, 58, 80
3, 86016, Note_on_c, 1, 65, 80
3, 86016, Note_on_c, 1, 68, 80
3, 86392, Note_off_c, 1, 65, 100
3, 86392, Note_off_c, 1, 68, 100
3, 86400, Note_on_c, 1, 65, 80
3, 86400, Note_on_c, 1, 68, 80
3, 86776, Note_off_c, 1, 65, 100
3, 86776, Note_off_c, 1, 68, 100
3, 86784, Note_on_c, 1, 65, 80
3, 86784, Note_on_c, 1, 68, 80
3, 87160, Note_off_c, 1, 58, 100
3, 87160, Note_off_c, 1, 65, 100
3, 87160, Note_off_c, 1, 68, 100
3, 87168, Note_on_c, 1, 58, 80
3, 87552, Note_on_c, 1, 65, 80
3, 87552, Note_on_c, 1, 68, 80
3, 87928, Note_off_c, 1, 65, 100
3, 87928, Note_off_c, 1, 68, 100
3, 87936, Note_on_c, 1, 65, 80
3, 87936, Note_on_c, 1, 68, 80
3, 88312, Note_off_c, 1, 65, 100
3, 88312, Note_off_c, 1, 68, 100
3, 88320, Note_on_c, 1, 65, 80
3, 88320, Note_on_c, 1, 68, 80
3, 88696, Note_off_c, 1, 58, 100
3, 88696, Note_off_c, 1, 65, 100
3, 88696, Note_off_c, 1, 68, 100
3, 88704, Note_on_c, 1, 58, 80
3, 89088, Note_on_c, 1, 65, 80
3, 89088, Note_on_c, 1, 68, 80
3, 89464, Note_off_c, 1, 65, 100
3, 89464, Note_off_c, 1, 68, 100
3, 89472, Note_on_c, 1, 65, 80
3, 89472, Note_on_c, 1, 68, 80
3, 89848, Note_off_c, 1, 65, 100
3, 89848, Note_off_c, 1, 68, 100
3, 89856, Note_on_c, 1, 65, 80
3, 89856, Note_on_c, 1, 68, 80
3, 90232, Note_off_c, 1, 58, 100
3, 90232, Note_off_c, 1, 65, 100
3, 90232, Note_off_c, 1, 68, 100
3, 90240, Note_on_c, 1, 58, 80
3, 90624, Note_on_c, 1, 63, 80
3, 90624, Note_on_c, 1, 66, 80
3, 91000, Note_off_c, 1, 63, 100
3, 91000, Note_off_c, 1, 66, 100
3, 91008, Note_on_c, 1, 63, 80
3, 91008, Note_on_c, 1, 66, 80
3, 91384, Note_off_c, 1, 63, 100
3, 91384, Note_off_c, 1, 66, 100
3, 91392, Note_on_c, 1, 63, 80
3, 91392, Note_on_c, 1, 66, 80
3, 91768, Note_off_c, 1, 58, 100
3, 91768, Note_off_c, 1, 63, 100
3, 91768, Note_off_c, 1, 66, 100
3, 91776, Note_on_c, 1, 58, 80
3, 92160, Note_on_c, 1, 63, 80
3, 92160, Note_on_c, 1, 66, 80
3, 92536, Note_off_c, 1, 63, 100
3, 92536, Note_off_c, 1, 66, 100
3, 92544, Note_on_c, 1, 63, 80
3, 92544, Note_on_c, 1, 66, 80
3, 92920, Note_off_c, 1, 63, 100
3, 92920, Note_off_c, 1, 66, 100
3, 92928, Note_on_c, 1, 63, 80
3, 92928, Note_on_c, 1, 66, 80
3, 93304, Note_off_c, 1, 58, 100
3, 93304, Note_off_c, 1, 63, 100
3, 93304, Note_off_c, 1, 66, 100
3, 93312, Note_on_c, 1, 58, 80
3, 93696, Note_on_c, 1, 63, 80
3, 93696, Note_on_c, 1, 66, 80
3, 94072, Note_off_c, 1, 63, 100
3, 94072, Note_off_c, 1, 66, 100
3, 94080, Note_on_c, 1, 63, 80
3, 94080, Note_on_c, 1, 66, 80
3, 94456, Note_off_c, 1, 63, 100
3, 94456, Note_off_c, 1, 66, 100
3, 94464, Note_on_c, 1, 63, 80
3, 94464, Note_on_c, 1, 66, 80
3, 94840, Note_off_c, 1, 58, 100
3, 94840, Note_off_c, 1, 63, 100
3, 94840, Note_off_c, 1, 66, 100
3, 94848, Note_on_c, 1, 58, 80
3, 95232, Note_on_c, 1, 63, 80
3, 95232, Note_on_c, 1, 66, 80
3, 95608, Note_off_c, 1, 63, 100
3, 95608, Note_off_c, 1, 66, 100
3, 95616, Note_on_c, 1, 63, 80
3, 95616, Note_on_c, 1, 66, 80
3, 95992, Note_off_c, 1, 63, 100
3, 95992, Note_off_c, 1, 66, 100
3, 96000, Note_on_c, 1, 63, 80
3, 96000, Note_on_c, 1, 66, 80
3, 96376, Note_off_c, 1, 58, 100
3, 96376, Note_off_c, 1, 63, 100
3, 96376, Note_off_c, 1, 66, 100
3, 96384, Note_on_c, 1, 56, 80
3, 96768, Note_on_c, 1, 63, 80
3, 96768, Note_on_c, 1, 66, 80
3, 97144, Note_off_c, 1, 63, 100
3, 97144, Note_off_c, 1, 66, 100
3, 97152, Note_on_c, 1, 63, 80
3, 97152, Note_on_c, 1, 66, 80
3, 97528, Note_off_c, 1, 63, 100
3, 97528, Note_off_c, 1, 66, 100
3, 97536, Note_on_c, 1, 63, 80
3, 97536, Note_on_c, 1, 66, 80
3, 97912, Note_off_c, 1, 56, 100
3, 97912, Note_off_c, 1, 63, 100
3, 97912, Note_off_c, 1, 66, 100
3, 97920, Note_on_c, 1, 56, 80
3, 98304, Note_on_c, 1, 63, 80
3, 98304, Note_on_c, 1, 66, 80
3, 98680, Note_off_c, 1, 63, 100
3, 98680, Note_off_c, 1, 66, 100
3, 98688, Note_on_c, 1, 63, 80
3, 98688, Note_on_c, 1, 66, 80
3, 99064, Note_off_c, 1, 63, 100
3, 99064, Note_off_c, 1, 66, 100
3, 99072, Note_on_c, 1, 63, 80
3, 99072, Note_on_c, 1, 66, 80
3, 99448, Note_off_c, 1, 56, 100
3, 99448, Note_off_c, 1, 63, 100
3, 99448, Note_off_c, 1, 66, 100
3, 99456, Note_on_c, 1, 56, 80
3, 99840, Note_on_c, 1, 63, 80
3, 99840, Note_on_c, 1, 66, 80
3, 100216, Note_off_c, 1, 63, 100
3, 100216, Note_off_c, 1, 66, 100
3, 100224, Note_on_c, 1, 63, 80
3, 100224, Note_on_c, 1, 66, 80
3, 100600, Note_off_c, 1, 63, 100
3, 100600, Note_off_c, 1, 66, 100
3, 100608, Note_on_c, 1, 63, 80
3, 100608, Note_on_c, 1, 66, 80
3, 100984, Note_off_c, 1, 56, 100
3, 100984, Note_off_c, 1, 63, 100
3, 100984, Note_off_c, 1, 66, 100
3, 100992, Note_on_c, 1, 56, 80
3, 101376, Note_on_c, 1, 63, 80
3, 101376, Note_on_c, 1, 66, 80
3, 101752, Note_off_c, 1, 63, 100
3, 101752, Note_off_c, 1, 66, 100
3, 101760, Note_on_c, 1, 63, 80
3, 101760, Note_on_c, 1, 66, 80
3, 102136, Note_off_c, 1, 63, 100
3, 102136, Note_off_c, 1, 66, 100
3, 102144, Note_on_c, 1, 63, 80
3, 102144, Note_on_c, 1, 66, 80
3, 102520, Note_off_c, 1, 56, 100
3, 102520, Note_off_c, 1, 63, 100
3, 102520, Note_off_c, 1, 66, 100
3, 102528, Note_on_c, 1, 56, 80
3, 102912, Note_on_c, 1, 61, 80
3, 102912, Note_on_c, 1, 65, 80
3, 103288, Note_off_c, 1, 61, 100
3, 103288, Note_off_c, 1, 65, 100
3, 103296, Note_on_c, 1, 61, 80
3, 103296, Note_on_c, 1, 65, 80
3, 103672, Note_off_c, 1, 61, 100
3, 103672, Note_off_c, 1, 65, 100
3, 103680, Note_on_c, 1, 61, 80
3, 103680, Note_on_c, 1, 65, 80
3, 104056, Note_off_c, 1, 56, 100
3, 104056, Note_off_c, 1, 61, 100
3, 104056, Note_off_c, 1, 65, 100
3, 104064, Note_on_c, 1, 56, 80
3, 104448, Note_on_c, 1, 61, 80
3, 104448, Note_on_c, 1, 65, 80
3, 104824, Note_off_c, 1, 61, 100
3, 104824, Note_off_c, 1, 65, 100
3, 104832, Note_on_c, 1, 61, 80
3, 104832, Note_on_c, 1, 65, 80
3, 105208, Note_off_c, 1, 61, 100
3, 105208, Note_off_c, 1, 65, 100
3, 105216, Note_on_c, 1, 61, 80
3, 105216, Note_on_c, 1, 65, 80
3, 105592, Note_off_c, 1, 56, 100
3, 105592, Note_off_c, 1, 61, 100
3, 105592, Note_off_c, 1, 65, 100
3, 105600, Note_on_c, 1, 56, 80
3, 105984, Note_on_c, 1, 61, 80
3, 105984, Note_on_c, 1, 65, 80
3, 106360, Note_off_c, 1, 61, 100
3, 106360, Note_off_c, 1, 65, 100
3, 106368, Note_on_c, 1, 61, 80
3, 106368, Note_on_c, 1, 65, 80
3, 106744, Note_off_c, 1, 61, 100
3, 106744, Note_off_c, 1, 65, 100
3, 106752, Note_on_c, 1, 61, 80
3, 106752, Note_on_c, 1, 65, 80
3, 107128, Note_off_c, 1, 56, 100
3, 107128, Note_off_c, 1, 61, 100
3, 107128, Note_off_c, 1, 65, 100
3, 107136, Note_on_c, 1, 56, 80
3, 107520, Note_on_c, 1, 61, 80
3, 107520, Note_on_c, 1, 65, 80
3, 107896, Note_off_c, 1, 61, 100
3, 107896, Note_off_c, 1, 65, 100
3, 107904, Note_on_c, 1, 61, 80
3, 107904, Note_on_c, 1, 65, 80
3, 108280, Note_off_c, 1, 61, 100
3, 108280, Note_off_c, 1, 65, 100
3, 108288, Note_on_c, 1, 61, 80
3, 108288, Note_on_c, 1, 65, 80
3, 108664, Note_off_c, 1, 56, 100
3, 108664, Note_off_c, 1, 61, 100
3, 108664, Note_off_c, 1, 65, 100
3, 108672, Note_on_c, 1, 56, 80
3, 109056, Note_on_c, 1, 66, 80
3, 109056, Note_on_c, 1, 63, 80
3, 109432, Note_off_c, 1, 66, 100
3, 109432, Note_off_c, 1, 63, 100
3, 109440, Note_on_c, 1, 63, 80
3, 109440, Note_on_c, 1, 66, 80
3, 109816, Note_off_c, 1, 63, 100
3, 109816, Note_off_c, 1, 66, 100
3, 109824, Note_on_c, 1, 63, 80
3, 109824, Note_on_c, 1, 66, 80
3, 110200, Note_off_c, 1, 56, 100
3, 110200, Note_off_c, 1, 63, 100
3, 110200, Note_off_c, 1, 66, 100
3, 110208, Note_on_c, 1, 56, 80
3, 110592, Note_on_c, 1, 66, 80
3, 110592, Note_on_c, 1, 63, 80
3, 110968, Note_off_c, 1, 66, 100
3, 110968, Note_off_c, 1, 63, 100
3, 110976, Note_on_c, 1, 63, 80
3, 110976, Note_on_c, 1, 66, 80
3, 111352, Note_off_c, 1, 63, 100
3, 111352, Note_off_c, 1, 66, 100
3, 111360, Note_on_c, 1, 63, 80
3, 111360, Note_on_c, 1, 66, 80
3, 111736, Note_off_c, 1, 56, 100
3, 111736, Note_off_c, 1, 63, 100
3, 111736, Note_off_c, 1, 66, 100
3, 111744, Note_on_c, 1, 56, 80
3, 112128, Note_on_c, 1, 66, 80
3, 112128, Note_on_c, 1, 63, 80
3, 112504, Note_off_c, 1, 66, 100
3, 112504, Note_off_c, 1, 63, 100
3, 112512, Note_on_c, 1, 63, 80
3, 112512, Note_on_c, 1, 66, 80
3, 112888, Note_off_c, 1, 63, 100
3, 112888, Note_off_c, 1, 66, 100
3, 112896, Note_on_c, 1, 63, 80
3, 112896, Note_on_c, 1, 66, 80
3, 113272, Note_off_c, 1, 56, 100
3, 113272, Note_off_c, 1, 63, 100
3, 113272, Note_off_c, 1, 66, 100
3, 113280, Note_on_c, 1, 56, 80
3, 113664, Note_on_c, 1, 66, 80
3, 113664, Note_on_c, 1, 63, 80
3, 114040, Note_off_c, 1, 66, 100
3, 114040, Note_off_c, 1, 63, 100
3, 114048, Note_on_c, 1, 63, 80
3, 114048, Note_on_c, 1, 66, 80
3, 114424, Note_off_c, 1, 63, 100
3, 114424, Note_off_c, 1, 66, 100
3, 114432, Note_on_c, 1, 63, 80
3, 114432, Note_on_c, 1, 66, 80
3, 114808, Note_off_c, 1, 56, 100
3, 114808, Note_off_c, 1, 63, 100
3, 114808, Note_off_c, 1, 66, 100
3, 114816, Note_on_c, 1, 61, 80
3, 115200, Note_on_c, 1, 65, 90
3, 115200, Note_on_c, 1, 68, 90
3, 115576, Note_off_c, 1, 61, 100
3, 115576, Note_off_c, 1, 65, 100
3, 115576, Note_off_c, 1, 68, 100
3, 115584, Note_on_c, 1, 59, 80
3, 115968, Note_on_c, 1, 65, 80
3, 115968, Note_on_c, 1, 68, 80
3, 116344, Note_off_c, 1, 59, 100
3, 116344, Note_off_c, 1, 65, 100
3, 116344, Note_off_c, 1, 68, 100
3, 116352, Note_on_c, 1, 58, 80
3, 116736, Note_on_c, 1, 65, 80
3, 116736, Note_on_c, 1, 68, 80
3, 117112, Note_off_c, 1, 65, 100
3, 117112, Note_off_c, 1, 68, 100
3, 117120, Note_on_c, 1, 65, 80
3, 117120, Note_on_c, 1, 68, 80
3, 117496, Note_off_c, 1, 65, 100
3, 117496, Note_off_c, 1, 68, 100
3, 117504, Note_on_c, 1, 65, 80
3, 117504, Note_on_c, 1, 68, 80
3, 117880, Note_off_c, 1, 58, 100
3, 117880, Note_off_c, 1, 65, 100
3, 117880, Note_off_c, 1, 68, 100
3, 117888, Note_on_c, 1, 58, 80
3, 118272, Note_on_c, 1, 65, 80
3, 118272, Note_on_c, 1, 68, 80
3, 118648, Note_off_c, 1, 65, 100
3, 118648, Note_off_c, 1, 68, 100
3, 118656, Note_on_c, 1, 65, 80
3, 118656, Note_on_c, 1, 68, 80
3, 119032, Note_off_c, 1, 65, 100
3, 119032, Note_off_c, 1, 68, 100
3, 119040, Note_on_c, 1, 65, 80
3, 119040, Note_on_c, 1, 68, 80
3, 119416, Note_off_c, 1, 58, 100
3, 119416, Note_off_c, 1, 65, 100
3, 119416, Note_off_c, 1, 68, 100
3, 119424, Note_on_c, 1, 58, 80
3, 119808, Note_on_c, 1, 65, 80
3, 119808, Note_on_c, 1, 68, 80
3, 120184, Note_off_c, 1, 65, 100
3, 120184, Note_off_c, 1, 68, 100
3, 120192, Note_on_c, 1, 65, 80
3, 120192, Note_on_c, 1, 68, 80
3, 120568, Note_off_c, 1, 65, 100
3, 120568, Note_off_c, 1, 68, 100
3, 120576, Note_on_c, 1, 65, 80
3, 120576, Note_on_c, 1, 68, 80
3, 120952, Note_off_c, 1, 58, 100
3, 120952, Note_off_c, 1, 65, 100
3, 120952, Note_off_c, 1, 68, 100
3, 120960, Note_on_c, 1, 63, 80
3, 121344, Note_on_c, 1, 66, 90
3, 121344, Note_on_c, 1, 70, 90
3, 121720, Note_off_c, 1, 63, 100
3, 121720, Note_off_c, 1, 66, 100
3, 121720, Note_off_c, 1, 70, 100
3, 121728, Note_on_c, 1, 61, 80
3, 122112, Note_on_c, 1, 65, 80
3, 122112, Note_on_c, 1, 70, 80
3, 122488, Note_off_c, 1, 61, 100
3, 122488, Note_off_c, 1, 65, 100
3, 122488, Note_off_c, 1, 70, 100
3, 122496, Note_on_c, 1, 60, 80
3, 122880, Note_on_c, 1, 67, 80
3, 122880, Note_on_c, 1, 70, 80
3, 123256, Note_off_c, 1, 67, 100
3, 123256, Note_off_c, 1, 70, 100
3, 123264, Note_on_c, 1, 67, 80
3, 123264, Note_on_c, 1, 70, 80
3, 123640, Note_off_c, 1, 67, 100
3, 123640, Note_off_c, 1, 70, 100
3, 123648, Note_on_c, 1, 67, 80
3, 123648, Note_on_c, 1, 70, 80
3, 124024, Note_off_c, 1, 60, 100
3, 124024, Note_off_c, 1, 67, 100
3, 124024, Note_off_c, 1, 70, 100
3, 124032, Note_on_c, 1, 60, 80
3, 124416, Note_on_c, 1, 67, 80
3, 124416, Note_on_c, 1, 70, 80
3, 124792, Note_off_c, 1, 67, 100
3, 124792, Note_off_c, 1, 70, 100
3, 124800, Note_on_c, 1, 67, 80
3, 124800, Note_on_c, 1, 70, 80
3, 125176, Note_off_c, 1, 67, 100
3, 125176, Note_off_c, 1, 70, 100
3, 125184, Note_on_c, 1, 67, 80
3, 125184, Note_on_c, 1, 70, 80
3, 125560, Note_off_c, 1, 60, 100
3, 125560, Note_off_c, 1, 67, 100
3, 125560, Note_off_c, 1, 70, 100
3, 125568, Note_on_c, 1, 60, 80
3, 125952, Note_on_c, 1, 67, 80
3, 125952, Note_on_c, 1, 70, 80
3, 126328, Note_off_c, 1, 67, 100
3, 126328, Note_off_c, 1, 70, 100
3, 126336, Note_on_c, 1, 67, 80
3, 126336, Note_on_c, 1, 70, 80
3, 126712, Note_off_c, 1, 67, 100
3, 126712, Note_off_c, 1, 70, 100
3, 126720, Note_on_c, 1, 67, 80
3, 126720, Note_on_c, 1, 70, 80
3, 127096, Note_off_c, 1, 60, 100
3, 127096, Note_off_c, 1, 67, 100
3, 127096, Note_off_c, 1, 70, 100
3, 127104, Note_on_c, 1, 65, 80
3, 127488, Note_on_c, 1, 68, 80
3, 127488, Note_on_c, 1, 72, 80
3, 127776, Note_on_c, 1, 72, 80
3, 127864, Note_off_c, 1, 68, 100
3, 127864, Note_off_c, 1, 72, 100
3, 127872, Note_on_c, 1, 68, 80
3, 128152, Note_off_c, 1, 72, 100
3, 128248, Note_off_c, 1, 68, 100
3, 128256, Note_on_c, 1, 68, 80
3, 128256, Note_on_c, 1, 72, 80
3, 128632, Note_off_c, 1, 65, 100
3, 128632, Note_off_c, 1, 68, 100
3, 128632, Note_off_c, 1, 72, 100
3, 128640, Note_on_c, 1, 58, 80
3, 129024, Note_on_c, 1, 65, 80
3, 129024, Note_on_c, 1, 68, 80
3, 129400, Note_off_c, 1, 58, 100
3, 129400, Note_off_c, 1, 65, 100
3, 129400, Note_off_c, 1, 68, 100
3, 129408, Note_on_c, 1, 59, 80
3, 129408, Note_on_c, 1, 65, 80
3, 129408, Note_on_c, 1, 68, 80
3, 129784, Note_off_c, 1, 65, 100
3, 129784, Note_off_c, 1, 68, 100
3, 129792, Note_on_c, 1, 65, 80
3, 129792, Note_on_c, 1, 68, 80
3, 130168, Note_off_c, 1, 59, 100
3, 130168, Note_off_c, 1, 65, 100
3, 130168, Note_off_c, 1, 68, 100
3, 130176, Note_on_c, 1, 60, 80
3, 130560, Note_on_c, 1, 63, 80
3, 130560, Note_on_c, 1, 67, 80
3, 130936, Note_off_c, 1, 63, 100
3, 130936, Note_off_c, 1, 67, 100
3, 130944, Note_on_c, 1, 63, 79
3, 130944, Note_on_c, 1, 67, 79
3, 131320, Note_off_c, 1, 63, 100
3, 131320, Note_off_c, 1, 67, 100
3, 131328, Note_on_c, 1, 63, 78
3, 131328, Note_on_c, 1, 67, 78
3, 131704, Note_off_c, 1, 60, 100
3, 131704, Note_off_c, 1, 63, 100
3, 131704, Note_off_c, 1, 67, 100
3, 131712, Note_on_c, 1, 56, 77
3, 132096, Note_on_c, 1, 63, 76
3, 132096, Note_on_c, 1, 65, 76
3, 132472, Note_off_c, 1, 63, 100
3, 132472, Note_off_c, 1, 65, 100
3, 132480, Note_on_c, 1, 63, 75
3, 132480, Note_on_c, 1, 65, 75
3, 132856, Note_off_c, 1, 63, 100
3, 132856, Note_off_c, 1, 65, 100
3, 132864, Note_on_c, 1, 63, 74
3, 132864, Note_on_c, 1, 65, 74
3, 133240, Note_off_c, 1, 56, 100
3, 133240, Note_off_c, 1, 63, 100
3, 133240, Note_off_c, 1, 65, 100
3, 133248, Note_on_c, 1, 58, 73
3, 133632, Note_on_c, 1, 63, 72
3, 133632, Note_on_c, 1, 67, 72
3, 134008, Note_off_c, 1, 63, 100
3, 134008, Note_off_c, 1, 67, 100
3, 134016, Note_on_c, 1, 63, 71
3, 134016, Note_on_c, 1, 67, 71
3, 134392, Note_off_c, 1, 63, 100
3, 134392, Note_off_c, 1, 67, 100
3, 134400, Note_on_c, 1, 63, 71
3, 134400, Note_on_c, 1, 67, 71
3, 134776, Note_off_c, 1, 58, 100
3, 134776, Note_off_c, 1, 63, 100
3, 134776, Note_off_c, 1, 67, 100
3, 134784, Note_on_c, 1, 58, 70
3, 135168, Note_on_c, 1, 63, 70
3, 135168, Note_on_c, 1, 67, 70
3, 135544, Note_off_c, 1, 63, 100
3, 135544, Note_off_c, 1, 67, 100
3, 135552, Note_on_c, 1, 63, 70
3, 135552, Note_on_c, 1, 67, 70
3, 135928, Note_off_c, 1, 63, 100
3, 135928, Note_off_c, 1, 67, 100
3, 135936, Note_on_c, 1, 63, 70
3, 135936, Note_on_c, 1, 67, 70
3, 136312, Note_off_c, 1, 58, 100
3, 136312, Note_off_c, 1, 63, 100
3, 136312, Note_off_c, 1, 67, 100
3, 136320, Note_on_c, 1, 51, 80
3, 136512, Note_on_c, 1, 58, 80
3, 136696, Note_off_c, 1, 58, 100
3, 136704, Note_on_c, 1, 55, 80
3, 136888, Note_off_c, 1, 55, 100
3, 136896, Note_on_c, 1, 58, 80
3, 137080, Note_off_c, 1, 58, 100
3, 137088, Note_on_c, 1, 55, 80
3, 137272, Note_off_c, 1, 55, 100
3, 137280, Note_on_c, 1, 58, 80
3, 137464, Note_off_c, 1, 58, 100
3, 137472, Note_on_c, 1, 55, 80
3, 137656, Note_off_c, 1, 55, 100
3, 137664, Note_on_c, 1, 58, 80
3, 137848, Note_off_c, 1, 58, 100
3, 137856, Note_on_c, 1, 55, 80
3, 138040, Note_off_c, 1, 55, 100
3, 138048, Note_on_c, 1, 58, 80
3, 138232, Note_off_c, 1, 58, 100
3, 138240, Note_on_c, 1, 55, 80
3, 138424, Note_off_c, 1, 55, 100
3, 138432, Note_on_c, 1, 58, 80
3, 138616, Note_off_c, 1, 51, 100
3, 138616, Note_off_c, 1, 58, 100
3, 138624, Note_on_c, 1, 51, 80
3, 138816, Note_on_c, 1, 58, 80
3, 139000, Note_off_c, 1, 58, 100
3, 139008, Note_on_c, 1, 55, 80
3, 139192, Note_off_c, 1, 55, 100
3, 139200, Note_on_c, 1, 58, 80
3, 139384, Note_off_c, 1, 51, 100
3, 139384, Note_off_c, 1, 58, 100
3, 139392, Note_on_c, 1, 49, 80
3, 139584, Note_on_c, 1, 58, 80
3, 139768, Note_off_c, 1, 58, 100
3, 139776, Note_on_c, 1, 55, 80
3, 139960, Note_off_c, 1, 55, 100
3, 139968, Note_on_c, 1, 58, 80
3, 140152, Note_off_c, 1, 58, 100
3, 140160, Note_on_c, 1, 55, 80
3, 140344, Note_off_c, 1, 55, 100
3, 140352, Note_on_c, 1, 58, 80
3, 140536, Note_off_c, 1, 58, 100
3, 140544, Note_on_c, 1, 55, 80
3, 140728, Note_off_c, 1, 55, 100
3, 140736, Note_on_c, 1, 58, 80
3, 140920, Note_off_c, 1, 58, 100
3, 140928, Note_on_c, 1, 55, 80
3, 141112, Note_off_c, 1, 55, 100
3, 141120, Note_on_c, 1, 58, 80
3, 141304, Note_off_c, 1, 58, 100
3, 141312, Note_on_c, 1, 55, 80
3, 141496, Note_off_c, 1, 55, 100
3, 141504, Note_on_c, 1, 58, 80
3, 141688, Note_off_c, 1, 49, 100
3, 141688, Note_off_c, 1, 58, 100
3, 141696, Note_on_c, 1, 49, 80
3, 141888, Note_on_c, 1, 58, 80
3, 142072, Note_off_c, 1, 58, 100
3, 142080, Note_on_c, 1, 55, 80
3, 142264, Note_off_c, 1, 55, 100
3, 142272, Note_on_c, 1, 58, 80
3, 142456, Note_off_c, 1, 49, 100
3, 142456, Note_off_c, 1, 58, 100
3, 142464, Note_on_c, 1, 48, 80
3, 142648, Note_off_c, 1, 48, 100
3, 142656, Note_on_c, 1, 56, 80
3, 142840, Note_off_c, 1, 56, 100
3, 142848, Note_on_c, 1, 51, 81
3, 143032, Note_off_c, 1, 51, 100
3, 143040, Note_on_c, 1, 56, 81
3, 143224, Note_off_c, 1, 56, 100
3, 143232, Note_on_c, 1, 46, 82
3, 143416, Note_off_c, 1, 46, 100
3, 143424, Note_on_c, 1, 55, 83
3, 143608, Note_off_c, 1, 55, 100
3, 143616, Note_on_c, 1, 48, 83
3, 143800, Note_off_c, 1, 48, 100
3, 143808, Note_on_c, 1, 55, 84
3, 143992, Note_off_c, 1, 55, 100
3, 144000, Note_on_c, 1, 44, 85
3, 144184, Note_off_c, 1, 44, 100
3, 144192, Note_on_c, 1, 56, 85
3, 144376, Note_off_c, 1, 56, 100
3, 144384, Note_on_c, 1, 48, 86
3, 144568, Note_off_c, 1, 48, 100
3, 144576, Note_on_c, 1, 56, 87
3, 144760, Note_off_c, 1, 56, 100
3, 144768, Note_on_c, 1, 43, 87
3, 144952, Note_off_c, 1, 43, 100
3, 144960, Note_on_c, 1, 55, 88
3, 145144, Note_off_c, 1, 55, 100
3, 145152, Note_on_c, 1, 48, 88
3, 145336, Note_off_c, 1, 48, 100
3, 145344, Note_on_c, 1, 55, 89
3, 145528, Note_off_c, 1, 55, 100
3, 145536, Note_on_c, 1, 41, 90
3, 145720, Note_off_c, 1, 41, 100
3, 145728, Note_on_c, 1, 53, 90
3, 145912, Note_off_c, 1, 53, 100
3, 145920, Note_on_c, 1, 48, 91
3, 146104, Note_off_c, 1, 48, 100
3, 146112, Note_on_c, 1, 53, 92
3, 146296, Note_off_c, 1, 53, 100
3, 146304, Note_on_c, 1, 39, 92
3, 146488, Note_off_c, 1, 39, 100
3, 146496, Note_on_c, 1, 51, 93
3, 146680, Note_off_c, 1, 51, 100
3, 146688, Note_on_c, 1, 41, 94
3, 146872, Note_off_c, 1, 41, 100
3, 146880, Note_on_c, 1, 51, 94
3, 147064, Note_off_c, 1, 51, 100
3, 147072, Note_on_c, 1, 38, 95
3, 147256, Note_off_c, 1, 38, 100
3, 147264, Note_on_c, 1, 50, 95
3, 147448, Note_off_c, 1, 50, 100
3, 147456, Note_on_c, 1, 41, 96
3, 147640, Note_off_c, 1, 41, 100
3, 147648, Note_on_c, 1, 50, 97
3, 147832, Note_off_c, 1, 50, 100
3, 147840, Note_on_c, 1, 36, 97
3, 148024, Note_off_c, 1, 36, 100
3, 148032, Note_on_c, 1, 48, 98
3, 148216, Note_off_c, 1, 48, 100
3, 148224, Note_on_c, 1, 41, 99
3, 148408, Note_off_c, 1, 41, 100
3, 148416, Note_on_c, 1, 48, 99
3, 148600, Note_off_c, 1, 48, 100
3, 148608, Note_on_c, 1, 34, 100
3, 148792, Note_off_c, 1, 34, 100
3, 148800, Note_on_c, 1, 46, 101
3, 148984, Note_off_c, 1, 46, 100
3, 148992, Note_on_c, 1, 41, 101
3, 149176, Note_off_c, 1, 41, 100
3, 149184, Note_on_c, 1, 46, 102
3, 149368, Note_off_c, 1, 46, 100
3, 149376, Note_on_c, 1, 32, 102
3, 149560, Note_off_c, 1, 32, 100
3, 149568, Note_on_c, 1, 44, 103
3, 149752, Note_off_c, 1, 44, 100
3, 149760, Note_on_c, 1, 41, 104
3, 149944, Note_off_c, 1, 41, 100
3, 149952, Note_on_c, 1, 44, 104
3, 150136, Note_off_c, 1, 44, 100
3, 150144, Note_on_c, 1, 31, 105
3, 150328, Note_off_c, 1, 31, 100
3, 150336, Note_on_c, 1, 43, 106
3, 150520, Note_off_c, 1, 43, 100
3, 150528, Note_on_c, 1, 39, 106
3, 150712, Note_off_c, 1, 39, 100
3, 150720, Note_on_c, 1, 43, 107
3, 150904, Note_off_c, 1, 43, 100
3, 150912, Note_on_c, 1, 31, 108
3, 151096, Note_off_c, 1, 31, 100
3, 151104, Note_on_c, 1, 43, 108
3, 151288, Note_off_c, 1, 43, 100
3, 151296, Note_on_c, 1, 39, 109
3, 151480, Note_off_c, 1, 39, 100
3, 151488, Note_on_c, 1, 43, 109
3, 151672, Note_off_c, 1, 43, 100
3, 151680, Note_on_c, 1, 44, 110
3, 151680, Note_on_c, 1, 32, 110
3, 152056, Note_off_c, 1, 44, 100
3, 152056, Note_off_c, 1, 32, 100
3, 153216, Note_on_c, 1, 46, 110
3, 153216, Note_on_c, 1, 34, 110
3, 153592, Note_off_c, 1, 46, 100
3, 153592, Note_off_c, 1, 34, 100
3, 154752, Note_on_c, 1, 51, 80
3, 154944, Note_on_c, 1, 58, 80
3, 155128, Note_off_c, 1, 58, 100
3, 155136, Note_on_c, 1, 55, 80
3, 155320, Note_off_c, 1, 55, 100
3, 155328, Note_on_c, 1, 58, 80
3, 155512, Note_off_c, 1, 58, 100
3, 155520, Note_on_c, 1, 55, 80
3, 155704, Note_off_c, 1, 55, 100
3, 155712, Note_on_c, 1, 58, 80
3, 155896, Note_off_c, 1, 58, 100
3, 155904, Note_on_c, 1, 55, 80
3, 156088, Note_off_c, 1, 55, 100
3, 156096, Note_on_c, 1, 58, 80
3, 156280, Note_off_c, 1, 58, 100
3, 156288, Note_on_c, 1, 55, 80
3, 156472, Note_off_c, 1, 55, 100
3, 156480, Note_on_c, 1, 58, 80
3, 156664, Note_off_c, 1, 58, 100
3, 156672, Note_on_c, 1, 55, 80
3, 156856, Note_off_c, 1, 55, 100
3, 156864, Note_on_c, 1, 58, 80
3, 157048, Note_off_c, 1, 51, 100
3, 157048, Note_off_c, 1, 58, 100
3, 157056, Note_on_c, 1, 51, 80
3, 157248, Note_on_c, 1, 58, 80
3, 157432, Note_off_c, 1, 58, 100
3, 157440, Note_on_c, 1, 55, 80
3, 157624, Note_off_c, 1, 55, 100
3, 157632, Note_on_c, 1, 58, 80
3, 157816, Note_off_c, 1, 51, 100
3, 157816, Note_off_c, 1, 58, 100
3, 157824, Note_on_c, 1, 49, 80
3, 158016, Note_on_c, 1, 58, 80
3, 158200, Note_off_c, 1, 58, 100
3, 158208, Note_on_c, 1, 55, 80
3, 158392, Note_off_c, 1, 55, 100
3, 158400, Note_on_c, 1, 58, 80
3, 158584, Note_off_c, 1, 58, 100
3, 158592, Note_on_c, 1, 55, 80
3, 158776, Note_off_c, 1, 55, 100
3, 158784, Note_on_c, 1, 58, 80
3, 158968, Note_off_c, 1, 58, 100
3, 158976, Note_on_c, 1, 55, 80
3, 159160, Note_off_c, 1, 55, 100
3, 159168, Note_on_c, 1, 58, 80
3, 159352, Note_off_c, 1, 58, 100
3, 159360, Note_on_c, 1, 55, 80
3, 159544, Note_off_c, 1, 55, 100
3, 159552, Note_on_c, 1, 58, 80
3, 159736, Note_off_c, 1, 58, 100
3, 159744, Note_on_c, 1, 55, 80
3, 159928, Note_off_c, 1, 55, 100
3, 159936, Note_on_c, 1, 58, 80
3, 160120, Note_off_c, 1, 49, 100
3, 160120, Note_off_c, 1, 58, 100
3, 160128, Note_on_c, 1, 49, 80
3, 160320, Note_on_c, 1, 58, 80
3, 160504, Note_off_c, 1, 58, 100
3, 160512, Note_on_c, 1, 55, 80
3, 160696, Note_off_c, 1, 55, 100
3, 160704, Note_on_c, 1, 58, 80
3, 160888, Note_off_c, 1, 49, 100
3, 160888, Note_off_c, 1, 58, 100
3, 160896, Note_on_c, 1, 48, 80
3, 161080, Note_off_c, 1, 48, 100
3, 161088, Note_on_c, 1, 56, 80
3, 161272, Note_off_c, 1, 56, 100
3, 161280, Note_on_c, 1, 51, 81
3, 161464, Note_off_c, 1, 51, 100
3, 161472, Note_on_c, 1, 56, 81
3, 161656, Note_off_c, 1, 56, 100
3, 161664, Note_on_c, 1, 46, 82
3, 161848, Note_off_c, 1, 46, 100
3, 161856, Note_on_c, 1, 55, 83
3, 162040, Note_off_c, 1, 55, 100
3, 162048, Note_on_c, 1, 48, 83
3, 162232, Note_off_c, 1, 48, 100
3, 162240, Note_on_c, 1, 55, 84
3, 162424, Note_off_c, 1, 55, 100
3, 162432, Note_on_c, 1, 44, 85
3, 162616, Note_off_c, 1, 44, 100
3, 162624, Note_on_c, 1, 56, 85
3, 162808, Note_off_c, 1, 56, 100
3, 162816, Note_on_c, 1, 48, 86
3, 163000, Note_off_c, 1, 48, 100
3, 163008, Note_on_c, 1, 56, 87
3, 163192, Note_off_c, 1, 56, 100
3, 163200, Note_on_c, 1, 43, 87
3, 163384, Note_off_c, 1, 43, 100
3, 163392, Note_on_c, 1, 55, 88
3, 163576, Note_off_c, 1, 55, 100
3, 163584, Note_on_c, 1, 48, 88
3, 163768, Note_off_c, 1, 48, 100
3, 163776, Note_on_c, 1, 55, 89
3, 163960, Note_off_c, 1, 55, 100
3, 163968, Note_on_c, 1, 41, 90
3, 164152, Note_off_c, 1, 41, 100
3, 164160, Note_on_c, 1, 53, 90
3, 164344, Note_off_c, 1, 53, 100
3, 164352, Note_on_c, 1, 48, 91
3, 164536, Note_off_c, 1, 48, 100
3, 164544, Note_on_c, 1, 53, 92
3, 164728, Note_off_c, 1, 53, 100
3, 164736, Note_on_c, 1, 39, 92
3, 164920, Note_off_c, 1, 39, 100
3, 164928, Note_on_c, 1, 51, 93
3, 165112, Note_off_c, 1, 51, 100
3, 165120, Note_on_c, 1, 41, 94
3, 165304, Note_off_c, 1, 41, 100
3, 165312, Note_on_c, 1, 51, 94
3, 165496, Note_off_c, 1, 51, 100
3, 165504, Note_on_c, 1, 38, 95
3, 165688, Note_off_c, 1, 38, 100
3, 165696, Note_on_c, 1, 50, 95
3, 165880, Note_off_c, 1, 50, 100
3, 165888, Note_on_c, 1, 41, 96
3, 166072, Note_off_c, 1, 41, 100
3, 166080, Note_on_c, 1, 50, 97
3, 166264, Note_off_c, 1, 50, 100
3, 166272, Note_on_c, 1, 36, 97
3, 166456, Note_off_c, 1, 36, 100
3, 166464, Note_on_c, 1, 48, 98
3, 166648, Note_off_c, 1, 48, 100
3, 166656, Note_on_c, 1, 41, 99
3, 166840, Note_off_c, 1, 41, 100
3, 166848, Note_on_c, 1, 48, 99
3, 167032, Note_off_c, 1, 48, 100
3, 167040, Note_on_c, 1, 34, 100
3, 167224, Note_off_c, 1, 34, 100
3, 167232, Note_on_c, 1, 46, 101
3, 167416, Note_off_c, 1, 46, 100
3, 167424, Note_on_c, 1, 41, 101
3, 167608, Note_off_c, 1, 41, 100
3, 167616, Note_on_c, 1, 46, 102
3, 167800, Note_off_c, 1, 46, 100
3, 167808, Note_on_c, 1, 32, 102
3, 167992, Note_off_c, 1, 32, 100
3, 168000, Note_on_c, 1, 44, 103
3, 168184, Note_off_c, 1, 44, 100
3, 168192, Note_on_c, 1, 41, 104
3, 168376, Note_off_c, 1, 41, 100
3, 168384, Note_on_c, 1, 44, 104
3, 168568, Note_off_c, 1, 44, 100
3, 168576, Note_on_c, 1, 31, 105
3, 168760, Note_off_c, 1, 31, 100
3, 168768, Note_on_c, 1, 43, 106
3, 168952, Note_off_c, 1, 43, 100
3, 168960, Note_on_c, 1, 39, 106
3, 169144, Note_off_c, 1, 39, 100
3, 169152, Note_on_c, 1, 43, 107
3, 169336, Note_off_c, 1, 43, 100
3, 169344, Note_on_c, 1, 31, 108
3, 169528, Note_off_c, 1, 31, 100
3, 169536, Note_on_c, 1, 43, 108
3, 169720, Note_off_c, 1, 43, 100
3, 169728, Note_on_c, 1, 31, 109
3, 169912, Note_off_c, 1, 31, 100
3, 169920, Note_on_c, 1, 43, 109
3, 170104, Note_off_c, 1, 43, 100
3, 170112, Note_on_c, 1, 44, 110
3, 170112, Note_on_c, 1, 32, 110
3, 170488, Note_off_c, 1, 44, 100
3, 170488, Note_off_c, 1, 32, 100
3, 171648, Note_on_c, 1, 46, 110
3, 171648, Note_on_c, 1, 34, 110
3, 172024, Note_off_c, 1, 46, 100
3, 172024, Note_off_c, 1, 34, 100
3, 173184, Note_on_c, 1, 51, 110
3, 173184, Note_on_c, 1, 39, 110
3, 173560, Note_off_c, 1, 51, 100
3, 173560, Note_off_c, 1, 39, 100
3, 173568, Note_on_c, 1, 63, 80
3, 173568, Note_on_c, 1, 67, 80
3, 173944, Note_off_c, 1, 63, 100
3, 173944, Note_off_c, 1, 67, 100
3, 173952, Note_on_c, 1, 63, 80
3, 173952, Note_on_c, 1, 67, 80
3, 174328, Note_off_c, 1, 63, 100
3, 174328, Note_off_c, 1, 67, 100
3, 174336, Note_on_c, 1, 63, 80
3, 174336, Note_on_c, 1, 67, 80
3, 174712, Note_off_c, 1, 63, 100
3, 174712, Note_off_c, 1, 67, 100
3, 174720, Note_on_c, 1, 60, 80
3, 175104, Note_on_c, 1, 63, 80
3, 175104, Note_on_c, 1, 67, 80
3, 175480, Note_off_c, 1, 63, 100
3, 175480, Note_off_c, 1, 67, 100
3, 175488, Note_on_c, 1, 63, 80
3, 175488, Note_on_c, 1, 67, 80
3, 175864, Note_off_c, 1, 63, 100
3, 175864, Note_off_c, 1, 67, 100
3, 175872, Note_on_c, 1, 67, 80
3, 175872, Note_on_c, 1, 63, 80
3, 176248, Note_off_c, 1, 60, 100
3, 176248, Note_off_c, 1, 67, 100
3, 176248, Note_off_c, 1, 63, 100
3, 176256, Note_on_c, 1, 56, 80
3, 176640, Note_on_c, 1, 63, 80
3, 176640, Note_on_c, 1, 65, 80
3, 177016, Note_off_c, 1, 63, 100
3, 177016, Note_off_c, 1, 65, 100
3, 177024, Note_on_c, 1, 63, 80
3, 177024, Note_on_c, 1, 65, 80
3, 177400, Note_off_c, 1, 63, 100
3, 177400, Note_off_c, 1, 65, 100
3, 177408, Note_on_c, 1, 63, 80
3, 177408, Note_on_c, 1, 65, 80
3, 177784, Note_off_c, 1, 56, 100
3, 177784, Note_off_c, 1, 63, 100
3, 177784, Note_off_c, 1, 65, 100
3, 177792, Note_on_c, 1, 58, 80
3, 178176, Note_on_c, 1, 62, 80
3, 178176, Note_on_c, 1, 65, 80
3, 178552, Note_off_c, 1, 62, 100
3, 178552, Note_off_c, 1, 65, 100
3, 178560, Note_on_c, 1, 62, 80
3, 178560, Note_on_c, 1, 65, 80
3, 178936, Note_off_c, 1, 62, 100
3, 178936, Note_off_c, 1, 65, 100
3, 178944, Note_on_c, 1, 62, 80
3, 178944, Note_on_c, 1, 65, 80
3, 179320, Note_off_c, 1, 58, 100
3, 179320, Note_off_c, 1, 62, 100
3, 179320, Note_off_c, 1, 65, 100
3, 179328, Note_on_c, 1, 51, 80
3, 179712, Note_on_c, 1, 55, 110
3, 179712, Note_on_c, 1, 63, 110
3, 180088, Note_off_c, 1, 55, 100
3, 180088, Note_off_c, 1, 63, 100
3, 180096, Note_on_c, 1, 55, 83
3, 180096, Note_on_c, 1, 63, 83
3, 180472, Note_off_c, 1, 55, 100
3, 180472, Note_off_c, 1, 63, 100
3, 180480, Note_on_c, 1, 55, 85
3, 180480, Note_on_c, 1, 63, 85
3, 180856, Note_off_c, 1, 51, 100
3, 180856, Note_off_c, 1, 55, 100
3, 180856, Note_off_c, 1, 63, 100
3, 180864, Note_on_c, 1, 48, 87
3, 181248, Note_on_c, 1, 51, 89
3, 181248, Note_on_c, 1, 55, 89
3, 181248, Note_on_c, 1, 62, 89
3, 181624, Note_off_c, 1, 51, 100
3, 181624, Note_off_c, 1, 55, 100
3, 181624, Note_off_c, 1, 62, 100
3, 181632, Note_on_c, 1, 51, 91
3, 181632, Note_on_c, 1, 55, 91
3, 181632, Note_on_c, 1, 60, 91
3, 182008, Note_off_c, 1, 51, 100
3, 182008, Note_off_c, 1, 55, 100
3, 182008, Note_off_c, 1, 60, 100
3, 182016, Note_on_c, 1, 51, 93
3, 182016, Note_on_c, 1, 55, 93
3, 182016, Note_on_c, 1, 60, 93
3, 182392, Note_off_c, 1, 48, 100
3, 182392, Note_off_c, 1, 51, 100
3, 182392, Note_off_c, 1, 55, 100
3, 182392, Note_off_c, 1, 60, 100
3, 182400, Note_on_c, 1, 44, 95
3, 182784, Note_on_c, 1, 51, 97
3, 182784, Note_on_c, 1, 53, 97
3, 182784, Note_on_c, 1, 56, 97
3, 183160, Note_off_c, 1, 51, 100
3, 183160, Note_off_c, 1, 53, 100
3, 183160, Note_off_c, 1, 56, 100
3, 183168, Note_on_c, 1, 51, 99
3, 183168, Note_on_c, 1, 53, 99
3, 183168, Note_on_c, 1, 56, 99
3, 183544, Note_off_c, 1, 51, 100
3, 183544, Note_off_c, 1, 53, 100
3, 183544, Note_off_c, 1, 56, 100
3, 183552, Note_on_c, 1, 51, 101
3, 183552, Note_on_c, 1, 53, 101
3, 183552, Note_on_c, 1, 56, 101
3, 183928, Note_off_c, 1, 44, 100
3, 183928, Note_off_c, 1, 51, 100
3, 183928, Note_off_c, 1, 53, 100
3, 183928, Note_off_c, 1, 56, 100
3, 183936, Note_on_c, 1, 46, 103
3, 184320, Note_on_c, 1, 50, 105
3, 184320, Note_on_c, 1, 53, 105
3, 184320, Note_on_c, 1, 58, 105
3, 184696, Note_off_c, 1, 50, 100
3, 184696, Note_off_c, 1, 53, 100
3, 184696, Note_off_c, 1, 58, 100
3, 184704, Note_on_c, 1, 50, 107
3, 184704, Note_on_c, 1, 53, 107
3, 184704, Note_on_c, 1, 58, 107
3, 185080, Note_off_c, 1, 50, 100
3, 185080, Note_off_c, 1, 53, 100
3, 185080, Note_off_c, 1, 58, 100
3, 185088, Note_on_c, 1, 50, 108
3, 185088, Note_on_c, 1, 53, 108
3, 185088, Note_on_c, 1, 58, 108
3, 185464, Note_off_c, 1, 46, 100
3, 185464, Note_off_c, 1, 50, 100
3, 185464, Note_off_c, 1, 53, 100
3, 185464, Note_off_c, 1, 58, 100
3, 185472, Note_on_c, 1, 39, 110
3, 185656, Note_off_c, 1, 39, 100
3, 185664, Note_on_c, 1, 51, 110
3, 185848, Note_off_c, 1, 51, 100
3, 185856, Note_on_c, 1, 39, 110
3, 186040, Note_off_c, 1, 39, 100
3, 186048, Note_on_c, 1, 51, 110
3, 186232, Note_off_c, 1, 51, 100
3, 186240, Note_on_c, 1, 39, 110
3, 186424, Note_off_c, 1, 39, 100
3, 186432, Note_on_c, 1, 51, 110
3, 186616, Note_off_c, 1, 51, 100
3, 186624, Note_on_c, 1, 39, 110
3, 186808, Note_off_c, 1, 39, 100
3, 186816, Note_on_c, 1, 51, 110
3, 187000, Note_off_c, 1, 51, 100
3, 187008, Note_on_c, 1, 39, 110
3, 187192, Note_off_c, 1, 39, 100
3, 187200, Note_on_c, 1, 51, 110
3, 187384, Note_off_c, 1, 51, 100
3, 187392, Note_on_c, 1, 39, 110
3, 187576, Note_off_c, 1, 39, 100
3, 187584, Note_on_c, 1, 51, 110
3, 187768, Note_off_c, 1, 51, 100
3, 187776, Note_on_c, 1, 39, 110
3, 187960, Note_off_c, 1, 39, 100
3, 187968, Note_on_c, 1, 51, 110
3, 188152, Note_off_c, 1, 51, 100
3, 188160, Note_on_c, 1, 39, 110
3, 188344, Note_off_c, 1, 39, 100
3, 188352, Note_on_c, 1, 51, 110
3, 188536, Note_off_c, 1, 51, 100
3, 188544, Note_on_c, 1, 39, 110
3, 188728, Note_off_c, 1, 39, 100
3, 188736, Note_on_c, 1, 51, 110
3, 188920, Note_off_c, 1, 51, 100
3, 188928, Note_on_c, 1, 39, 110
3, 189112, Note_off_c, 1, 39, 100
3, 189120, Note_on_c, 1, 51, 110
3, 189304, Note_off_c, 1, 51, 100
3, 189312, Note_on_c, 1, 39, 110
3, 189496, Note_off_c, 1, 39, 100
3, 189504, Note_on_c, 1, 51, 110
3, 189688, Note_off_c, 1, 51, 100
3, 189696, Note_on_c, 1, 39, 110
3, 189880, Note_off_c, 1, 39, 100
3, 189888, Note_on_c, 1, 51, 110
3, 190072, Note_off_c, 1, 51, 100
3, 190080, Note_on_c, 1, 39, 110
3, 190264, Note_off_c, 1, 39, 100
3, 190272, Note_on_c, 1, 51, 110
3, 190456, Note_off_c, 1, 51, 100
3, 190464, Note_on_c, 1, 39, 110
3, 190648, Note_off_c, 1, 39, 100
3, 190656, Note_on_c, 1, 51, 110
3, 190840, Note_off_c, 1, 51, 100
3, 190848, Note_on_c, 1, 39, 110
3, 191032, Note_off_c, 1, 39, 100
3, 191040, Note_on_c, 1, 51, 110
3, 191224, Note_off_c, 1, 51, 100
3, 191232, Note_on_c, 1, 39, 110
3, 191416, Note_off_c, 1, 39, 100
3, 191424, Note_on_c, 1, 51, 110
3, 191608, Note_off_c, 1, 51, 100
3, 191616, Note_on_c, 1, 39, 110
3, 191800, Note_off_c, 1, 39, 100
3, 191808, Note_on_c, 1, 51, 110
3, 191992, Note_off_c, 1, 51, 100
3, 192000, Note_on_c, 1, 39, 110
3, 192184, Note_off_c, 1, 39, 100
3, 192192, Note_on_c, 1, 51, 110
3, 192376, Note_off_c, 1, 51, 100
3, 192384, Note_on_c, 1, 39, 110
3, 192568, Note_off_c, 1, 39, 100
3, 192576, Note_on_c, 1, 51, 110
3, 192760, Note_off_c, 1, 51, 100
3, 192768, Note_on_c, 1, 39, 110
3, 192952, Note_off_c, 1, 39, 100
3, 192960, Note_on_c, 1, 51, 110
3, 193144, Note_off_c, 1, 51, 100
3, 193152, Note_on_c, 1, 38, 110
3, 193336, Note_off_c, 1, 38, 100
3, 193344, Note_on_c, 1, 50, 110
3, 193528, Note_off_c, 1, 50, 100
3, 193536, Note_on_c, 1, 38, 110
3, 193720, Note_off_c, 1, 38, 100
3, 193728, Note_on_c, 1, 50, 110
3, 193912, Note_off_c, 1, 50, 100
3, 193920, Note_on_c, 1, 38, 110
3, 194104, Note_off_c, 1, 38, 100
3, 194112, Note_on_c, 1, 50, 110
3, 194296, Note_off_c, 1, 50, 100
3, 194304, Note_on_c, 1, 38, 110
3, 194488, Note_off_c, 1, 38, 100
3, 194496, Note_on_c, 1, 50, 110
3, 194680, Note_off_c, 1, 50, 100
3, 194688, Note_on_c, 1, 36, 110
3, 194872, Note_off_c, 1, 36, 100
3, 194880, Note_on_c, 1, 48, 110
3, 195064, Note_off_c, 1, 48, 100
3, 195072, Note_on_c, 1, 36, 110
3, 195256, Note_off_c, 1, 36, 100
3, 195264, Note_on_c, 1, 48, 110
3, 195448, Note_off_c, 1, 48, 100
3, 195456, Note_on_c, 1, 36, 110
3, 195640, Note_off_c, 1, 36, 100
3, 195648, Note_on_c, 1, 48, 110
3, 195832, Note_off_c, 1, 48, 100
3, 195840, Note_on_c, 1, 36, 110
3, 196024, Note_off_c, 1, 36, 100
3, 196032, Note_on_c, 1, 48, 110
3, 196216, Note_off_c, 1, 48, 100
3, 196224, Note_on_c, 1, 34, 110
3, 196408, Note_off_c, 1, 34, 100
3, 196416, Note_on_c, 1, 46, 110
3, 196600, Note_off_c, 1, 46, 100
3, 196608, Note_on_c, 1, 34, 110
3, 196792, Note_off_c, 1, 34, 100
3, 196800, Note_on_c, 1, 46, 110
3, 196984, Note_off_c, 1, 46, 100
3, 196992, Note_on_c, 1, 34, 110
3, 197176, Note_off_c, 1, 34, 100
3, 197184, Note_on_c, 1, 46, 110
3, 197368, Note_off_c, 1, 46, 100
3, 197376, Note_on_c, 1, 34, 110
3, 197560, Note_off_c, 1, 34, 100
3, 197568, Note_on_c, 1, 46, 110
3, 197752, Note_off_c, 1, 46, 100
3, 197760, Note_on_c, 1, 32, 110
3, 197944, Note_off_c, 1, 32, 100
3, 197952, Note_on_c, 1, 44, 110
3, 198136, Note_off_c, 1, 44, 100
3, 198144, Note_on_c, 1, 32, 110
3, 198328, Note_off_c, 1, 32, 100
3, 198336, Note_on_c, 1, 44, 110
3, 198520, Note_off_c, 1, 44, 100
3, 198528, Note_on_c, 1, 32, 110
3, 198712, Note_off_c, 1, 32, 100
3, 198720, Note_on_c, 1, 44, 110
3, 198904, Note_off_c, 1, 44, 100
3, 198912, Note_on_c, 1, 32, 110
3, 199096, Note_off_c, 1, 32, 100
3, 199104, Note_on_c, 1, 44, 110
3, 199288, Note_off_c, 1, 44, 100
3, 199296, Note_on_c, 1, 31, 110
3, 199480, Note_off_c, 1, 31, 100
3, 199488, Note_on_c, 1, 43, 110
3, 199672, Note_off_c, 1, 43, 100
3, 199680, Note_on_c, 1, 31, 110
3, 199864, Note_off_c, 1, 31, 100
3, 199872, Note_on_c, 1, 43, 110
3, 200056, Note_off_c, 1, 43, 100
3, 200064, Note_on_c, 1, 31, 110
3, 200248, Note_off_c, 1, 31, 100
3, 200256, Note_on_c, 1, 43, 110
3, 200440, Note_off_c, 1, 43, 100
3, 200448, Note_on_c, 1, 31, 110
3, 200632, Note_off_c, 1, 31, 100
3, 200640, Note_on_c, 1, 43, 110
3, 200824, Note_off_c, 1, 43, 100
3, 200832, Note_on_c, 1, 42, 120
3, 200832, Note_on_c, 1, 30, 120
3, 202360, Note_off_c, 1, 42, 100
3, 202360, Note_off_c, 1, 30, 100
3, 202368, Note_on_c, 1, 43, 120
3, 202368, Note_on_c, 1, 31, 120
3, 205432, Note_off_c, 1, 31, 100
3, 205432, Note_off_c, 1, 43, 100
3, 205440, Note_on_c, 1, 36, 80
3, 205624, Note_off_c, 1, 36, 100
3, 205632, Note_on_c, 1, 48, 80
3, 205816, Note_off_c, 1, 48, 100
3, 205824, Note_on_c, 1, 36, 80
3, 206008, Note_off_c, 1, 36, 100
3, 206016, Note_on_c, 1, 48, 80
3, 206200, Note_off_c, 1, 48, 100
3, 206208, Note_on_c, 1, 36, 80
3, 206392, Note_off_c, 1, 36, 100
3, 206400, Note_on_c, 1, 48, 80
3, 206584, Note_off_c, 1, 48, 100
3, 206592, Note_on_c, 1, 36, 80
3, 206776, Note_off_c, 1, 36, 100
3, 206784, Note_on_c, 1, 48, 80
3, 206968, Note_off_c, 1, 48, 100
3, 206976, Note_on_c, 1, 36, 80
3, 207160, Note_off_c, 1, 36, 100
3, 207168, Note_on_c, 1, 48, 80
3, 207352, Note_off_c, 1, 48, 100
3, 207360, Note_on_c, 1, 36, 80
3, 207544, Note_off_c, 1, 36, 100
3, 207552, Note_on_c, 1, 48, 80
3, 207736, Note_off_c, 1, 48, 100
3, 207744, Note_on_c, 1, 36, 80
3, 207928, Note_off_c, 1, 36, 100
3, 207936, Note_on_c, 1, 48, 80
3, 208120, Note_off_c, 1, 48, 100
3, 208128, Note_on_c, 1, 36, 80
3, 208312, Note_off_c, 1, 36, 100
3, 208320, Note_on_c, 1, 48, 80
3, 208504, Note_off_c, 1, 48, 100
3, 208512, Note_on_c, 1, 36, 80
3, 208696, Note_off_c, 1, 36, 100
3, 208704, Note_on_c, 1, 48, 80
3, 208888, Note_off_c, 1, 48, 100
3, 208896, Note_on_c, 1, 36, 80
3, 209080, Note_off_c, 1, 36, 100
3, 209088, Note_on_c, 1, 48, 80
3, 209272, Note_off_c, 1, 48, 100
3, 209280, Note_on_c, 1, 36, 80
3, 209464, Note_off_c, 1, 36, 100
3, 209472, Note_on_c, 1, 48, 80
3, 209656, Note_off_c, 1, 48, 100
3, 209664, Note_on_c, 1, 36, 80
3, 209848, Note_off_c, 1, 36, 100
3, 209856, Note_on_c, 1, 48, 80
3, 210040, Note_off_c, 1, 48, 100
3, 210048, Note_on_c, 1, 36, 80
3, 210232, Note_off_c, 1, 36, 100
3, 210240, Note_on_c, 1, 48, 80
3, 210424, Note_off_c, 1, 48, 100
3, 210432, Note_on_c, 1, 36, 80
3, 210616, Note_off_c, 1, 36, 100
3, 210624, Note_on_c, 1, 48, 80
3, 210808, Note_off_c, 1, 48, 100
3, 210816, Note_on_c, 1, 36, 80
3, 211000, Note_off_c, 1, 36, 100
3, 211008, Note_on_c, 1, 48, 80
3, 211192, Note_off_c, 1, 48, 100
3, 211200, Note_on_c, 1, 36, 80
3, 211384, Note_off_c, 1, 36, 100
3, 211392, Note_on_c, 1, 48, 80
3, 211576, Note_off_c, 1, 48, 100
3, 211584, Note_on_c, 1, 36, 80
3, 211768, Note_off_c, 1, 36, 100
3, 211776, Note_on_c, 1, 48, 81
3, 211960, Note_off_c, 1, 48, 100
3, 211968, Note_on_c, 1, 36, 82
3, 212152, Note_off_c, 1, 36, 100
3, 212160, Note_on_c, 1, 48, 83
3, 212344, Note_off_c, 1, 48, 100
3, 212352, Note_on_c, 1, 38, 85
3, 212536, Note_off_c, 1, 38, 100
3, 212544, Note_on_c, 1, 50, 86
3, 212728, Note_off_c, 1, 50, 100
3, 212736, Note_on_c, 1, 38, 87
3, 212920, Note_off_c, 1, 38, 100
3, 212928, Note_on_c, 1, 50, 89
3, 213112, Note_off_c, 1, 50, 100
3, 213120, Note_on_c, 1, 39, 90
3, 213304, Note_off_c, 1, 39, 100
3, 213312, Note_on_c, 1, 51, 91
3, 213496, Note_off_c, 1, 51, 100
3, 213504, Note_on_c, 1, 39, 93
3, 213688, Note_off_c, 1, 39, 100
3, 213696, Note_on_c, 1, 51, 94
3, 213880, Note_off_c, 1, 51, 100
3, 213888, Note_on_c, 1, 41, 95
3, 214072, Note_off_c, 1, 41, 100
3, 214080, Note_on_c, 1, 53, 96
3, 214264, Note_off_c, 1, 53, 100
3, 214272, Note_on_c, 1, 41, 98
3, 214456, Note_off_c, 1, 41, 100
3, 214464, Note_on_c, 1, 53, 99
3, 214648, Note_off_c, 1, 53, 100
3, 214656, Note_on_c, 1, 43, 100
3, 214840, Note_off_c, 1, 43, 100
3, 214848, Note_on_c, 1, 55, 102
3, 215032, Note_off_c, 1, 55, 100
3, 215040, Note_on_c, 1, 43, 103
3, 215224, Note_off_c, 1, 43, 100
3, 215232, Note_on_c, 1, 55, 104
3, 215416, Note_off_c, 1, 55, 100
3, 215424, Note_on_c, 1, 44, 106
3, 215608, Note_off_c, 1, 44, 100
3, 215616, Note_on_c, 1, 56, 107
3, 215800, Note_off_c, 1, 56, 100
3, 215808, Note_on_c, 1, 44, 108
3, 215992, Note_off_c, 1, 44, 100
3, 216000, Note_on_c, 1, 56, 109
3, 216184, Note_off_c, 1, 56, 100
3, 216192, Note_on_c, 1, 42, 110
3, 216376, Note_off_c, 1, 42, 100
3, 216384, Note_on_c, 1, 54, 110
3, 216568, Note_off_c, 1, 54, 100
3, 216576, Note_on_c, 1, 42, 110
3, 216760, Note_off_c, 1, 42, 100
3, 216768, Note_on_c, 1, 54, 110
3, 216952, Note_off_c, 1, 54, 100
3, 216960, Note_on_c, 1, 43, 110
3, 217144, Note_off_c, 1, 43, 100
3, 217152, Note_on_c, 1, 55, 110
3, 217336, Note_off_c, 1, 55, 100
3, 217344, Note_on_c, 1, 43, 110
3, 217528, Note_off_c, 1, 43, 100
3, 217536, Note_on_c, 1, 55, 110
3, 217720, Note_off_c, 1, 55, 100
3, 217728, Note_on_c, 1, 36, 110
3, 217912, Note_off_c, 1, 36, 100
3, 217920, Note_on_c, 1, 48, 80
3, 218104, Note_off_c, 1, 48, 100
3, 218112, Note_on_c, 1, 36, 80
3, 218296, Note_off_c, 1, 36, 100
3, 218304, Note_on_c, 1, 48, 80
3, 218488, Note_off_c, 1, 48, 100
3, 218496, Note_on_c, 1, 36, 80
3, 218680, Note_off_c, 1, 36, 100
3, 218688, Note_on_c, 1, 48, 80
3, 218872, Note_off_c, 1, 48, 100
3, 218880, Note_on_c, 1, 36, 80
3, 219064, Note_off_c, 1, 36, 100
3, 219072, Note_on_c, 1, 48, 80
3, 219256, Note_off_c, 1, 48, 100
3, 219264, Note_on_c, 1, 36, 80
3, 219448, Note_off_c, 1, 36, 100
3, 219456, Note_on_c, 1, 48, 80
3, 219640, Note_off_c, 1, 48, 100
3, 219648, Note_on_c, 1, 36, 80
3, 219832, Note_off_c, 1, 36, 100
3, 219840, Note_on_c, 1, 48, 80
3, 220024, Note_off_c, 1, 48, 100
3, 220032, Note_on_c, 1, 36, 80
3, 220216, Note_off_c, 1, 36, 100
3, 220224, Note_on_c, 1, 48, 80
3, 220408, Note_off_c, 1, 48, 100
3, 220416, Note_on_c, 1, 36, 80
3, 220600, Note_off_c, 1, 36, 100
3, 220608, Note_on_c, 1, 48, 80
3, 220792, Note_off_c, 1, 48, 100
3, 220800, Note_on_c, 1, 36, 80
3, 220984, Note_off_c, 1, 36, 100
3, 220992, Note_on_c, 1, 48, 80
3, 221176, Note_off_c, 1, 48, 100
3, 221184, Note_on_c, 1, 36, 80
3, 221368, Note_off_c, 1, 36, 100
3, 221376, Note_on_c, 1, 48, 80
3, 221560, Note_off_c, 1, 48, 100
3, 221568, Note_on_c, 1, 36, 80
3, 221752, Note_off_c, 1, 36, 100
3, 221760, Note_on_c, 1, 48, 80
3, 221944, Note_off_c, 1, 48, 100
3, 221952, Note_on_c, 1, 36, 80
3, 222136, Note_off_c, 1, 36, 100
3, 222144, Note_on_c, 1, 48, 80
3, 222328, Note_off_c, 1, 48, 100
3, 222336, Note_on_c, 1, 36, 80
3, 222520, Note_off_c, 1, 36, 100
3, 222528, Note_on_c, 1, 48, 80
3, 222712, Note_off_c, 1, 48, 100
3, 222720, Note_on_c, 1, 36, 80
3, 222904, Note_off_c, 1, 36, 100
3, 222912, Note_on_c, 1, 48, 80
3, 223096, Note_off_c, 1, 48, 100
3, 223104, Note_on_c, 1, 36, 80
3, 223288, Note_off_c, 1, 36, 100
3, 223296, Note_on_c, 1, 48, 80
3, 223480, Note_off_c, 1, 48, 100
3, 223488, Note_on_c, 1, 36, 80
3, 223672, Note_off_c, 1, 36, 100
3, 223680, Note_on_c, 1, 48, 80
3, 223864, Note_off_c, 1, 48, 100
3, 223872, Note_on_c, 1, 36, 80
3, 224056, Note_off_c, 1, 36, 100
3, 224064, Note_on_c, 1, 48, 81
3, 224248, Note_off_c, 1, 48, 100
3, 224256, Note_on_c, 1, 36, 82
3, 224440, Note_off_c, 1, 36, 100
3, 224448, Note_on_c, 1, 48, 83
3, 224632, Note_off_c, 1, 48, 100
3, 224640, Note_on_c, 1, 38, 85
3, 224824, Note_off_c, 1, 38, 100
3, 224832, Note_on_c, 1, 50, 86
3, 225016, Note_off_c, 1, 50, 100
3, 225024, Note_on_c, 1, 38, 87
3, 225208, Note_off_c, 1, 38, 100
3, 225216, Note_on_c, 1, 50, 89
3, 225400, Note_off_c, 1, 50, 100
3, 225408, Note_on_c, 1, 39, 90
3, 225592, Note_off_c, 1, 39, 100
3, 225600, Note_on_c, 1, 51, 91
3, 225784, Note_off_c, 1, 51, 100
3, 225792, Note_on_c, 1, 39, 93
3, 225976, Note_off_c, 1, 39, 100
3, 225984, Note_on_c, 1, 51, 94
3, 226168, Note_off_c, 1, 51, 100
3, 226176, Note_on_c, 1, 41, 95
3, 226360, Note_off_c, 1, 41, 100
3, 226368, Note_on_c, 1, 53, 96
3, 226552, Note_off_c, 1, 53, 100
3, 226560, Note_on_c, 1, 41, 98
3, 226744, Note_off_c, 1, 41, 100
3, 226752, Note_on_c, 1, 53, 99
3, 226936, Note_off_c, 1, 53, 100
3, 226944, Note_on_c, 1, 43, 100
3, 227128, Note_off_c, 1, 43, 100
3, 227136, Note_on_c, 1, 55, 102
3, 227320, Note_off_c, 1, 55, 100
3, 227328, Note_on_c, 1, 43, 103
3, 227512, Note_off_c, 1, 43, 100
3, 227520, Note_on_c, 1, 55, 104
3, 227704, Note_off_c, 1, 55, 100
3, 227712, Note_on_c, 1, 44, 106
3, 227896, Note_off_c, 1, 44, 100
3, 227904, Note_on_c, 1, 56, 107
3, 228088, Note_off_c, 1, 56, 100
3, 228096, Note_on_c, 1, 44, 108
3, 228280, Note_off_c, 1, 44, 100
3, 228288, Note_on_c, 1, 56, 109
3, 228472, Note_off_c, 1, 56, 100
3, 228480, Note_on_c, 1, 42, 110
3, 228664, Note_off_c, 1, 42, 100
3, 228672, Note_on_c, 1, 54, 110
3, 228856, Note_off_c, 1, 54, 100
3, 228864, Note_on_c, 1, 42, 110
3, 229048, Note_off_c, 1, 42, 100
3, 229056, Note_on_c, 1, 54, 110
3, 229240, Note_off_c, 1, 54, 100
3, 229248, Note_on_c, 1, 42, 110
3, 229432, Note_off_c, 1, 42, 100
3, 229440, Note_on_c, 1, 54, 110
3, 229624, Note_off_c, 1, 54, 100
3, 229632, Note_on_c, 1, 42, 110
3, 229816, Note_off_c, 1, 42, 100
3, 229824, Note_on_c, 1, 54, 110
3, 230008, Note_off_c, 1, 54, 100
3, 230016, Note_on_c, 1, 55, 80
3, 230016, Note_on_c, 1, 43, 80
3, 230392, Note_off_c, 1, 55, 100
3, 230392, Note_off_c, 1, 43, 100
3, 230400, Note_on_c, 1, 59, 80
3, 230400, Note_on_c, 1, 62, 80
3, 230776, Note_off_c, 1, 59, 100
3, 230776, Note_off_c, 1, 62, 100
3, 230784, Note_on_c, 1, 59, 80
3, 230784, Note_on_c, 1, 62, 80
3, 231160, Note_off_c, 1, 59, 100
3, 231160, Note_off_c, 1, 62, 100
3, 231168, Note_on_c, 1, 59, 80
3, 231168, Note_on_c, 1, 62, 80
3, 231544, Note_off_c, 1, 59, 100
3, 231544, Note_off_c, 1, 62, 100
3, 231552, Note_on_c, 1, 55, 80
3, 231928, Note_off_c, 1, 55, 100
3, 231936, Note_on_c, 1, 60, 80
3, 231936, Note_on_c, 1, 63, 80
3, 232312, Note_off_c, 1, 60, 100
3, 232312, Note_off_c, 1, 63, 100
3, 232320, Note_on_c, 1, 60, 80
3, 232320, Note_on_c, 1, 63, 80
3, 232696, Note_off_c, 1, 60, 100
3, 232696, Note_off_c, 1, 63, 100
3, 232704, Note_on_c, 1, 60, 80
3, 232704, Note_on_c, 1, 63, 80
3, 233080, Note_off_c, 1, 60, 100
3, 233080, Note_off_c, 1, 63, 100
3, 233088, Note_on_c, 1, 62, 80
3, 233088, Note_on_c, 1, 65, 80
3, 233464, Note_off_c, 1, 62, 100
3, 233464, Note_off_c, 1, 65, 100
3, 235392, Note_on_c, 1, 32, 80
3, 235576, Note_off_c, 1, 32, 100
3, 235584, Note_on_c, 1, 44, 80
3, 235768, Note_off_c, 1, 44, 100
3, 235776, Note_on_c, 1, 32, 80
3, 235960, Note_off_c, 1, 32, 100
3, 235968, Note_on_c, 1, 44, 80
3, 236152, Note_off_c, 1, 44, 100
3, 236160, Note_on_c, 1, 43, 80
3, 236160, Note_on_c, 1, 31, 80
3, 236536, Note_off_c, 1, 43, 100
3, 236536, Note_off_c, 1, 31, 100
3, 236544, Note_on_c, 1, 59, 80
3, 236544, Note_on_c, 1, 62, 80
3, 236920, Note_off_c, 1, 59, 100
3, 236920, Note_off_c, 1, 62, 100
3, 236928, Note_on_c, 1, 59, 80
3, 236928, Note_on_c, 1, 62, 80
3, 237304, Note_off_c, 1, 59, 100
3, 237304, Note_off_c, 1, 62, 100
3, 237312, Note_on_c, 1, 59, 80
3, 237312, Note_on_c, 1, 62, 80
3, 237688, Note_off_c, 1, 59, 100
3, 237688, Note_off_c, 1, 62, 100
3, 237696, Note_on_c, 1, 55, 80
3, 238072, Note_off_c, 1, 55, 100
3, 238080, Note_on_c, 1, 60, 80
3, 238080, Note_on_c, 1, 63, 80
3, 238456, Note_off_c, 1, 60, 100
3, 238456, Note_off_c, 1, 63, 100
3, 238464, Note_on_c, 1, 60, 80
3, 238464, Note_on_c, 1, 63, 80
3, 238840, Note_off_c, 1, 60, 100
3, 238840, Note_off_c, 1, 63, 100
3, 238848, Note_on_c, 1, 60, 80
3, 238848, Note_on_c, 1, 63, 80
3, 239224, Note_off_c, 1, 60, 100
3, 239224, Note_off_c, 1, 63, 100
3, 239232, Note_on_c, 1, 62, 80
3, 239232, Note_on_c, 1, 65, 80
3, 239608, Note_off_c, 1, 62, 100
3, 239608, Note_off_c, 1, 65, 100
3, 241536, Note_on_c, 1, 32, 80
3, 241720, Note_off_c, 1, 32, 100
3, 241728, Note_on_c, 1, 44, 80
3, 241912, Note_off_c, 1, 44, 100
3, 241920, Note_on_c, 1, 32, 80
3, 242104, Note_off_c, 1, 32, 100
3, 242112, Note_on_c, 1, 44, 80
3, 242296, Note_off_c, 1, 44, 100
3, 242304, Note_on_c, 1, 31, 80
3, 242488, Note_off_c, 1, 31, 100
3, 242496, Note_on_c, 1, 43, 82
3, 242680, Note_off_c, 1, 43, 100
3, 242688, Note_on_c, 1, 31, 84
3, 242872, Note_off_c, 1, 31, 100
3, 242880, Note_on_c, 1, 43, 86
3, 243064, Note_off_c, 1, 43, 100
3, 243072, Note_on_c, 1, 31, 88
3, 243256, Note_off_c, 1, 31, 100
3, 243264, Note_on_c, 1, 43, 90
3, 243448, Note_off_c, 1, 43, 100
3, 243456, Note_on_c, 1, 31, 92
3, 243640, Note_off_c, 1, 31, 100
3, 243648, Note_on_c, 1, 43, 94
3, 243832, Note_off_c, 1, 43, 100
3, 243840, Note_on_c, 1, 31, 97
3, 244024, Note_off_c, 1, 31, 100
3, 244032, Note_on_c, 1, 43, 99
3, 244216, Note_off_c, 1, 43, 100
3, 244224, Note_on_c, 1, 31, 101
3, 244408, Note_off_c, 1, 31, 100
3, 244416, Note_on_c, 1, 43, 103
3, 244600, Note_off_c, 1, 43, 100
3, 244608, Note_on_c, 1, 31, 105
3, 244792, Note_off_c, 1, 31, 100
3, 244800, Note_on_c, 1, 43, 107
3, 244984, Note_off_c, 1, 43, 100
3, 244992, Note_on_c, 1, 31, 109
3, 245176, Note_off_c, 1, 31, 100
3, 245184, Note_on_c, 1, 43, 80
3, 245368, Note_off_c, 1, 43, 100
3, 245376, Note_on_c, 1, 31, 110
3, 245560, Note_off_c, 1, 31, 100
3, 245568, Note_on_c, 1, 43, 110
3, 245752, Note_off_c, 1, 43, 100
3, 245760, Note_on_c, 1, 31, 110
3, 245944, Note_off_c, 1, 31, 100
3, 245952, Note_on_c, 1, 43, 110
3, 246136, Note_off_c, 1, 43, 100
3, 246144, Note_on_c, 1, 31, 110
3, 246328, Note_off_c, 1, 31, 100
3, 246336, Note_on_c, 1, 43, 110
3, 246520, Note_off_c, 1, 43, 100
3, 246528, Note_on_c, 1, 31, 110
3, 246712, Note_off_c, 1, 31, 100
3, 246720, Note_on_c, 1, 43, 110
3, 246904, Note_off_c, 1, 43, 100
3, 246912, Note_on_c, 1, 31, 110
3, 247096, Note_off_c, 1, 31, 100
3, 247104, Note_on_c, 1, 43, 110
3, 247288, Note_off_c, 1, 43, 100
3, 247296, Note_on_c, 1, 31, 110
3, 247480, Note_off_c, 1, 31, 100
3, 247488, Note_on_c, 1, 43, 110
3, 247672, Note_off_c, 1, 43, 100
3, 247680, Note_on_c, 1, 31, 110
3, 247864, Note_off_c, 1, 31, 100
3, 247872, Note_on_c, 1, 43, 110
3, 248056, Note_off_c, 1, 43, 100
3, 248064, Note_on_c, 1, 31, 110
3, 248248, Note_off_c, 1, 31, 100
3, 248256, Note_on_c, 1, 43, 110
3, 248440, Note_off_c, 1, 43, 100
3, 248448, Note_on_c, 1, 32, 80
3, 248632, Note_off_c, 1, 32, 100
3, 248640, Note_on_c, 1, 44, 81
3, 248824, Note_off_c, 1, 44, 100
3, 248832, Note_on_c, 1, 32, 83
3, 249016, Note_off_c, 1, 32, 100
3, 249024, Note_on_c, 1, 44, 85
3, 249208, Note_off_c, 1, 44, 100
3, 249216, Note_on_c, 1, 32, 87
3, 249400, Note_off_c, 1, 32, 100
3, 249408, Note_on_c, 1, 44, 89
3, 249592, Note_off_c, 1, 44, 100
3, 249600, Note_on_c, 1, 32, 91
3, 249784, Note_off_c, 1, 32, 100
3, 249792, Note_on_c, 1, 44, 93
3, 249976, Note_off_c, 1, 44, 100
3, 249984, Note_on_c, 1, 32, 95
3, 250168, Note_off_c, 1, 32, 100
3, 250176, Note_on_c, 1, 44, 97
3, 250360, Note_off_c, 1, 44, 100
3, 250368, Note_on_c, 1, 32, 99
3, 250552, Note_off_c, 1, 32, 100
3, 250560, Note_on_c, 1, 44, 101
3, 250744, Note_off_c, 1, 44, 100
3, 250752, Note_on_c, 1, 32, 103
3, 250936, Note_off_c, 1, 32, 100
3, 250944, Note_on_c, 1, 44, 105
3, 251128, Note_off_c, 1, 44, 100
3, 251136, Note_on_c, 1, 32, 107
3, 251320, Note_off_c, 1, 32, 100
3, 251328, Note_on_c, 1, 44, 109
3, 251512, Note_off_c, 1, 44, 100
3, 251520, Note_on_c, 1, 32, 110
3, 251704, Note_off_c, 1, 32, 100
3, 251712, Note_on_c, 1, 44, 110
3, 251896, Note_off_c, 1, 44, 100
3, 251904, Note_on_c, 1, 32, 110
3, 252088, Note_off_c, 1, 32, 100
3, 252096, Note_on_c, 1, 44, 110
3, 252280, Note_off_c, 1, 44, 100
3, 252288, Note_on_c, 1, 32, 110
3, 252472, Note_off_c, 1, 32, 100
3, 252480, Note_on_c, 1, 44, 110
3, 252664, Note_off_c, 1, 44, 100
3, 252672, Note_on_c, 1, 32, 110
3, 252856, Note_off_c, 1, 32, 100
3, 252864, Note_on_c, 1, 44, 110
3, 253048, Note_off_c, 1, 44, 100
3, 253056, Note_on_c, 1, 33, 110
3, 253240, Note_off_c, 1, 33, 100
3, 253248, Note_on_c, 1, 45, 110
3, 253432, Note_off_c, 1, 45, 100
3, 253440, Note_on_c, 1, 33, 110
3, 253624, Note_off_c, 1, 33, 100
3, 253632, Note_on_c, 1, 45, 110
3, 253816, Note_off_c, 1, 45, 100
3, 253824, Note_on_c, 1, 33, 110
3, 254008, Note_off_c, 1, 33, 100
3, 254016, Note_on_c, 1, 45, 110
3, 254200, Note_off_c, 1, 45, 100
3, 254208, Note_on_c, 1, 33, 110
3, 254392, Note_off_c, 1, 33, 100
3, 254400, Note_on_c, 1, 45, 110
3, 254584, Note_off_c, 1, 45, 100
3, 254592, Note_on_c, 1, 34, 80
3, 254776, Note_off_c, 1, 34, 100
3, 254784, Note_on_c, 1, 46, 81
3, 254968, Note_off_c, 1, 46, 100
3, 254976, Note_on_c, 1, 34, 83
3, 255160, Note_off_c, 1, 34, 100
3, 255168, Note_on_c, 1, 46, 85
3, 255352, Note_off_c, 1, 46, 100
3, 255360, Note_on_c, 1, 34, 87
3, 255544, Note_off_c, 1, 34, 100
3, 255552, Note_on_c, 1, 46, 89
3, 255736, Note_off_c, 1, 46, 100
3, 255744, Note_on_c, 1, 34, 91
3, 255928, Note_off_c, 1, 34, 100
3, 255936, Note_on_c, 1, 46, 93
3, 256120, Note_off_c, 1, 46, 100
3, 256128, Note_on_c, 1, 34, 95
3, 256312, Note_off_c, 1, 34, 100
3, 256320, Note_on_c, 1, 46, 97
3, 256504, Note_off_c, 1, 46, 100
3, 256512, Note_on_c, 1, 34, 99
3, 256696, Note_off_c, 1, 34, 100
3, 256704, Note_on_c, 1, 46, 101
3, 256888, Note_off_c, 1, 46, 100
3, 256896, Note_on_c, 1, 34, 103
3, 257080, Note_off_c, 1, 34, 100
3, 257088, Note_on_c, 1, 46, 105
3, 257272, Note_off_c, 1, 46, 100
3, 257280, Note_on_c, 1, 34, 107
3, 257464, Note_off_c, 1, 34, 100
3, 257472, Note_on_c, 1, 46, 109
3, 257656, Note_off_c, 1, 46, 100
3, 257664, Note_on_c, 1, 34, 110
3, 257848, Note_off_c, 1, 34, 100
3, 257856, Note_on_c, 1, 46, 110
3, 258040, Note_off_c, 1, 46, 100
3, 258048, Note_on_c, 1, 34, 110
3, 258232, Note_off_c, 1, 34, 100
3, 258240, Note_on_c, 1, 46, 110
3, 258424, Note_off_c, 1, 46, 100
3, 258432, Note_on_c, 1, 34, 110
3, 258616, Note_off_c, 1, 34, 100
3, 258624, Note_on_c, 1, 46, 110
3, 258808, Note_off_c, 1, 46, 100
3, 258816, Note_on_c, 1, 34, 110
3, 259000, Note_off_c, 1, 34, 100
3, 259008, Note_on_c, 1, 46, 110
3, 259192, Note_off_c, 1, 46, 100
3, 259200, Note_on_c, 1, 34, 110
3, 259384, Note_off_c, 1, 34, 100
3, 259392, Note_on_c, 1, 46, 110
3, 259576, Note_off_c, 1, 46, 100
3, 259584, Note_on_c, 1, 34, 110
3, 259768, Note_off_c, 1, 34, 100
3, 259776, Note_on_c, 1, 46, 110
3, 259960, Note_off_c, 1, 46, 100
3, 259968, Note_on_c, 1, 34, 110
3, 260152, Note_off_c, 1, 34, 100
3, 260160, Note_on_c, 1, 46, 110
3, 260344, Note_off_c, 1, 46, 100
3, 260352, Note_on_c, 1, 34, 110
3, 260536, Note_off_c, 1, 34, 100
3, 260544, Note_on_c, 1, 46, 110
3, 260728, Note_off_c, 1, 46, 100
3, 260736, Note_on_c, 1, 34, 110
3, 260920, Note_off_c, 1, 34, 100
3, 260928, Note_on_c, 1, 46, 110
3, 261112, Note_off_c, 1, 46, 100
3, 261120, Note_on_c, 1, 34, 110
3, 261304, Note_off_c, 1, 34, 100
3, 261312, Note_on_c, 1, 46, 110
3, 261496, Note_off_c, 1, 46, 100
3, 261504, Note_on_c, 1, 34, 110
3, 261688, Note_off_c, 1, 34, 100
3, 261696, Note_on_c, 1, 46, 110
3, 261880, Note_off_c, 1, 46, 100
3, 261888, Note_on_c, 1, 34, 110
3, 262072, Note_off_c, 1, 34, 100
3, 262080, Note_on_c, 1, 46, 110
3, 262264, Note_off_c, 1, 46, 100
3, 262272, Note_on_c, 1, 34, 110
3, 262456, Note_off_c, 1, 34, 100
3, 262464, Note_on_c, 1, 46, 110
3, 262648, Note_off_c, 1, 46, 100
3, 262656, Note_on_c, 1, 34, 110
3, 262840, Note_off_c, 1, 34, 100
3, 262848, Note_on_c, 1, 46, 110
3, 263032, Note_off_c, 1, 46, 100
3, 263040, Note_on_c, 1, 34, 110
3, 263224, Note_off_c, 1, 34, 100
3, 263232, Note_on_c, 1, 46, 110
3, 263416, Note_off_c, 1, 46, 100
3, 263424, Note_on_c, 1, 34, 110
3, 263608, Note_off_c, 1, 34, 100
3, 263616, Note_on_c, 1, 46, 110
3, 263800, Note_off_c, 1, 46, 100
3, 263808, Note_on_c, 1, 46, 110
3, 263808, Note_on_c, 1, 34, 110
3, 264184, Note_off_c, 1, 46, 100
3, 264184, Note_off_c, 1, 34, 100
3, 266880, Note_on_c, 1, 58, 80
3, 267264, Note_on_c, 1, 63, 80
3, 267264, Note_on_c, 1, 66, 80
3, 267640, Note_off_c, 1, 63, 100
3, 267640, Note_off_c, 1, 66, 100
3, 267648, Note_on_c, 1, 63, 80
3, 267648, Note_on_c, 1, 66, 80
3, 268024, Note_off_c, 1, 63, 100
3, 268024, Note_off_c, 1, 66, 100
3, 268032, Note_on_c, 1, 63, 80
3, 268032, Note_on_c, 1, 66, 80
3, 268408, Note_off_c, 1, 58, 100
3, 268408, Note_off_c, 1, 63, 100
3, 268408, Note_off_c, 1, 66, 100
3, 268416, Note_on_c, 1, 58, 80
3, 268800, Note_on_c, 1, 63, 80
3, 268800, Note_on_c, 1, 66, 80
3, 269176, Note_off_c, 1, 63, 100
3, 269176, Note_off_c, 1, 66, 100
3, 269184, Note_on_c, 1, 63, 80
3, 269184, Note_on_c, 1, 66, 80
3, 269560, Note_off_c, 1, 63, 100
3, 269560, Note_off_c, 1, 66, 100
3, 269568, Note_on_c, 1, 63, 80
3, 269568, Note_on_c, 1, 66, 80
3, 269944, Note_off_c, 1, 58, 100
3, 269944, Note_off_c, 1, 63, 100
3, 269944, Note_off_c, 1, 66, 100
3, 269952, Note_on_c, 1, 58, 80
3, 270336, Note_on_c, 1, 63, 80
3, 270336, Note_on_c, 1, 66, 80
3, 270712, Note_off_c, 1, 63, 100
3, 270712, Note_off_c, 1, 66, 100
3, 270720, Note_on_c, 1, 63, 80
3, 270720, Note_on_c, 1, 66, 80
3, 271096, Note_off_c, 1, 63, 100
3, 271096, Note_off_c, 1, 66, 100
3, 271104, Note_on_c, 1, 63, 80
3, 271104, Note_on_c, 1, 66, 80
3, 271480, Note_off_c, 1, 58, 100
3, 271480, Note_off_c, 1, 63, 100
3, 271480, Note_off_c, 1, 66, 100
3, 271488, Note_on_c, 1, 58, 80
3, 271872, Note_on_c, 1, 63, 80
3, 271872, Note_on_c, 1, 66, 80
3, 272248, Note_off_c, 1, 63, 100
3, 272248, Note_off_c, 1, 66, 100
3, 272256, Note_on_c, 1, 63, 80
3, 272256, Note_on_c, 1, 66, 80
3, 272632, Note_off_c, 1, 63, 100
3, 272632, Note_off_c, 1, 66, 100
3, 272640, Note_on_c, 1, 63, 80
3, 272640, Note_on_c, 1, 66, 80
3, 273016, Note_off_c, 1, 58, 100
3, 273016, Note_off_c, 1, 63, 100
3, 273016, Note_off_c, 1, 66, 100
3, 273024, Note_on_c, 1, 58, 80
3, 273408, Note_on_c, 1, 65, 80
3, 273408, Note_on_c, 1, 68, 80
3, 273784, Note_off_c, 1, 65, 100
3, 273784, Note_off_c, 1, 68, 100
3, 273792, Note_on_c, 1, 65, 80
3, 273792, Note_on_c, 1, 68, 80
3, 274168, Note_off_c, 1, 65, 100
3, 274168, Note_off_c, 1, 68, 100
3, 274176, Note_on_c, 1, 65, 80
3, 274176, Note_on_c, 1, 68, 80
3, 274552, Note_off_c, 1, 58, 100
3, 274552, Note_off_c, 1, 65, 100
3, 274552, Note_off_c, 1, 68, 100
3, 274560, Note_on_c, 1, 58, 80
3, 274944, Note_on_c, 1, 65, 80
3, 274944, Note_on_c, 1, 68, 80
3, 275320, Note_off_c, 1, 65, 100
3, 275320, Note_off_c, 1, 68, 100
3, 275328, Note_on_c, 1, 65, 80
3, 275328, Note_on_c, 1, 68, 80
3, 275704, Note_off_c, 1, 65, 100
3, 275704, Note_off_c, 1, 68, 100
3, 275712, Note_on_c, 1, 65, 80
3, 275712, Note_on_c, 1, 68, 80
3, 276088, Note_off_c, 1, 58, 100
3, 276088, Note_off_c, 1, 65, 100
3, 276088, Note_off_c, 1, 68, 100
3, 276096, Note_on_c, 1, 58, 80
3, 276480, Note_on_c, 1, 65, 80
3, 276480, Note_on_c, 1, 68, 80
3, 276856, Note_off_c, 1, 65, 100
3, 276856, Note_off_c, 1, 68, 100
3, 276864, Note_on_c, 1, 65, 80
3, 276864, Note_on_c, 1, 68, 80
3, 277240, Note_off_c, 1, 65, 100
3, 277240, Note_off_c, 1, 68, 100
3, 277248, Note_on_c, 1, 65, 80
3, 277248, Note_on_c, 1, 68, 80
3, 277624, Note_off_c, 1, 58, 100
3, 277624, Note_off_c, 1, 65, 100
3, 277624, Note_off_c, 1, 68, 100
3, 277632, Note_on_c, 1, 58, 80
3, 278016, Note_on_c, 1, 65, 80
3, 278016, Note_on_c, 1, 68, 80
3, 278392, Note_off_c, 1, 65, 100
3, 278392, Note_off_c, 1, 68, 100
3, 278400, Note_on_c, 1, 65, 80
3, 278400, Note_on_c, 1, 68, 80
3, 278776, Note_off_c, 1, 65, 100
3, 278776, Note_off_c, 1, 68, 100
3, 278784, Note_on_c, 1, 65, 80
3, 278784, Note_on_c, 1, 68, 80
3, 279160, Note_off_c, 1, 58, 100
3, 279160, Note_off_c, 1, 65, 100
3, 279160, Note_off_c, 1, 68, 100
3, 279168, Note_on_c, 1, 58, 80
3, 279552, Note_on_c, 1, 63, 80
3, 279552, Note_on_c, 1, 66, 80
3, 279928, Note_off_c, 1, 63, 100
3, 279928, Note_off_c, 1, 66, 100
3, 279936, Note_on_c, 1, 63, 80
3, 279936, Note_on_c, 1, 66, 80
3, 280312, Note_off_c, 1, 63, 100
3, 280312, Note_off_c, 1, 66, 100
3, 280320, Note_on_c, 1, 63, 80
3, 280320, Note_on_c, 1, 66, 80
3, 280696, Note_off_c, 1, 58, 100
3, 280696, Note_off_c, 1, 63, 100
3, 280696, Note_off_c, 1, 66, 100
3, 280704, Note_on_c, 1, 58, 80
3, 281088, Note_on_c, 1, 63, 80
3, 281088, Note_on_c, 1, 66, 80
3, 281464, Note_off_c, 1, 63, 100
3, 281464, Note_off_c, 1, 66, 100
3, 281472, Note_on_c, 1, 63, 80
3, 281472, Note_on_c, 1, 66, 80
3, 281848, Note_off_c, 1, 63, 100
3, 281848, Note_off_c, 1, 66, 100
3, 281856, Note_on_c, 1, 63, 80
3, 281856, Note_on_c, 1, 66, 80
3, 282232, Note_off_c, 1, 58, 100
3, 282232, Note_off_c, 1, 63, 100
3, 282232, Note_off_c, 1, 66, 100
3, 282240, Note_on_c, 1, 58, 80
3, 282624, Note_on_c, 1, 63, 80
3, 282624, Note_on_c, 1, 66, 80
3, 283000, Note_off_c, 1, 63, 100
3, 283000, Note_off_c, 1, 66, 100
3, 283008, Note_on_c, 1, 63, 80
3, 283008, Note_on_c, 1, 66, 80
3, 283384, Note_off_c, 1, 63, 100
3, 283384, Note_off_c, 1, 66, 100
3, 283392, Note_on_c, 1, 63, 80
3, 283392, Note_on_c, 1, 66, 80
3, 283768, Note_off_c, 1, 58, 100
3, 283768, Note_off_c, 1, 63, 100
3, 283768, Note_off_c, 1, 66, 100
3, 283776, Note_on_c, 1, 58, 80
3, 284160, Note_on_c, 1, 63, 80
3, 284160, Note_on_c, 1, 66, 80
3, 284536, Note_off_c, 1, 63, 100
3, 284536, Note_off_c, 1, 66, 100
3, 284544, Note_on_c, 1, 63, 80
3, 284544, Note_on_c, 1, 66, 80
3, 284920, Note_off_c, 1, 63, 100
3, 284920, Note_off_c, 1, 66, 100
3, 284928, Note_on_c, 1, 63, 80
3, 284928, Note_on_c, 1, 66, 80
3, 285304, Note_off_c, 1, 58, 100
3, 285304, Note_off_c, 1, 63, 100
3, 285304, Note_off_c, 1, 66, 100
3, 285312, Note_on_c, 1, 56, 80
3, 285696, Note_on_c, 1, 63, 80
3, 285696, Note_on_c, 1, 66, 80
3, 286072, Note_off_c, 1, 63, 100
3, 286072, Note_off_c, 1, 66, 100
3, 286080, Note_on_c, 1, 63, 80
3, 286080, Note_on_c, 1, 66, 80
3, 286456, Note_off_c, 1, 63, 100
3, 286456, Note_off_c, 1, 66, 100
3, 286464, Note_on_c, 1, 63, 80
3, 286464, Note_on_c, 1, 66, 80
3, 286840, Note_off_c, 1, 56, 100
3, 286840, Note_off_c, 1, 63, 100
3, 286840, Note_off_c, 1, 66, 100
3, 286848, Note_on_c, 1, 56, 80
3, 287232, Note_on_c, 1, 63, 80
3, 287232, Note_on_c, 1, 66, 80
3, 287608, Note_off_c, 1, 63, 100
3, 287608, Note_off_c, 1, 66, 100
3, 287616, Note_on_c, 1, 63, 80
3, 287616, Note_on_c, 1, 66, 80
3, 287992, Note_off_c, 1, 63, 100
3, 287992, Note_off_c, 1, 66, 100
3, 288000, Note_on_c, 1, 63, 80
3, 288000, Note_on_c, 1, 66, 80
3, 288376, Note_off_c, 1, 56, 100
3, 288376, Note_off_c, 1, 63, 100
3, 288376, Note_off_c, 1, 66, 100
3, 288384, Note_on_c, 1, 56, 80
3, 288768, Note_on_c, 1, 63, 80
3, 288768, Note_on_c, 1, 66, 80
3, 289144, Note_off_c, 1, 63, 100
3, 289144, Note_off_c, 1, 66, 100
3, 289152, Note_on_c, 1, 63, 80
3, 289152, Note_on_c, 1, 66, 80
3, 289528, Note_off_c, 1, 63, 100
3, 289528, Note_off_c, 1, 66, 100
3, 289536, Note_on_c, 1, 63, 80
3, 289536, Note_on_c, 1, 66, 80
3, 289912, Note_off_c, 1, 56, 100
3, 289912, Note_off_c, 1, 63, 100
3, 289912, Note_off_c, 1, 66, 100
3, 289920, Note_on_c, 1, 56, 80
3, 290304, Note_on_c, 1, 63, 80
3, 290304, Note_on_c, 1, 66, 80
3, 290680, Note_off_c, 1, 63, 100
3, 290680, Note_off_c, 1, 66, 100
3, 290688, Note_on_c, 1, 63, 80
3, 290688, Note_on_c, 1, 66, 80
3, 291064, Note_off_c, 1, 63, 100
3, 291064, Note_off_c, 1, 66, 100
3, 291072, Note_on_c, 1, 63, 80
3, 291072, Note_on_c, 1, 66, 80
3, 291448, Note_off_c, 1, 56, 100
3, 291448, Note_off_c, 1, 63, 100
3, 291448, Note_off_c, 1, 66, 100
3, 291456, Note_on_c, 1, 56, 80
3, 291840, Note_on_c, 1, 61, 80
3, 291840, Note_on_c, 1, 65, 80
3, 292216, Note_off_c, 1, 61, 100
3, 292216, Note_off_c, 1, 65, 100
3, 292224, Note_on_c, 1, 61, 80
3, 292224, Note_on_c, 1, 65, 80
3, 292600, Note_off_c, 1, 61, 100
3, 292600, Note_off_c, 1, 65, 100
3, 292608, Note_on_c, 1, 61, 80
3, 292608, Note_on_c, 1, 65, 80
3, 292984, Note_off_c, 1, 56, 100
3, 292984, Note_off_c, 1, 61, 100
3, 292984, Note_off_c, 1, 65, 100
3, 292992, Note_on_c, 1, 56, 80
3, 293376, Note_on_c, 1, 61, 80
3, 293376, Note_on_c, 1, 65, 80
3, 293752, Note_off_c, 1, 61, 100
3, 293752, Note_off_c, 1, 65, 100
3, 293760, Note_on_c, 1, 61, 80
3, 293760, Note_on_c, 1, 65, 80
3, 294136, Note_off_c, 1, 61, 100
3, 294136, Note_off_c, 1, 65, 100
3, 294144, Note_on_c, 1, 61, 80
3, 294144, Note_on_c, 1, 65, 80
3, 294520, Note_off_c, 1, 56, 100
3, 294520, Note_off_c, 1, 61, 100
3, 294520, Note_off_c, 1, 65, 100
3, 294528, Note_on_c, 1, 56, 80
3, 294912, Note_on_c, 1, 61, 80
3, 294912, Note_on_c, 1, 65, 80
3, 295288, Note_off_c, 1, 61, 100
3, 295288, Note_off_c, 1, 65, 100
3, 295296, Note_on_c, 1, 61, 80
3, 295296, Note_on_c, 1, 65, 80
3, 295672, Note_off_c, 1, 61, 100
3, 295672, Note_off_c, 1, 65, 100
3, 295680, Note_on_c, 1, 61, 80
3, 295680, Note_on_c, 1, 65, 80
3, 296056, Note_off_c, 1, 56, 100
3, 296056, Note_off_c, 1, 61, 100
3, 296056, Note_off_c, 1, 65, 100
3, 296064, Note_on_c, 1, 56, 80
3, 296448, Note_on_c, 1, 61, 80
3, 296448, Note_on_c, 1, 65, 80
3, 296824, Note_off_c, 1, 61, 100
3, 296824, Note_off_c, 1, 65, 100
3, 296832, Note_on_c, 1, 61, 80
3, 296832, Note_on_c, 1, 65, 80
3, 297208, Note_off_c, 1, 61, 100
3, 297208, Note_off_c, 1, 65, 100
3, 297216, Note_on_c, 1, 61, 80
3, 297216, Note_on_c, 1, 65, 80
3, 297592, Note_off_c, 1, 56, 100
3, 297592, Note_off_c, 1, 61, 100
3, 297592, Note_off_c, 1, 65, 100
3, 297600, Note_on_c, 1, 56, 80
3, 297984, Note_on_c, 1, 66, 80
3, 297984, Note_on_c, 1, 63, 80
3, 298360, Note_off_c, 1, 66, 100
3, 298360, Note_off_c, 1, 63, 100
3, 298368, Note_on_c, 1, 63, 80
3, 298368, Note_on_c, 1, 66, 80
3, 298744, Note_off_c, 1, 63, 100
3, 298744, Note_off_c, 1, 66, 100
3, 298752, Note_on_c, 1, 63, 80
3, 298752, Note_on_c, 1, 66, 80
3, 299128, Note_off_c, 1, 56, 100
3, 299128, Note_off_c, 1, 63, 100
3, 299128, Note_off_c, 1, 66, 100
3, 299136, Note_on_c, 1, 56, 80
3, 299520, Note_on_c, 1, 66, 80
3, 299520, Note_on_c, 1, 63, 80
3, 299896, Note_off_c, 1, 66, 100
3, 299896, Note_off_c, 1, 63, 100
3, 299904, Note_on_c, 1, 63, 80
3, 299904, Note_on_c, 1, 66, 80
3, 300280, Note_off_c, 1, 63, 100
3, 300280, Note_off_c, 1, 66, 100
3, 300288, Note_on_c, 1, 63, 80
3, 300288, Note_on_c, 1, 66, 80
3, 300664, Note_off_c, 1, 56, 100
3, 300664, Note_off_c, 1, 63, 100
3, 300664, Note_off_c, 1, 66, 100
3, 300672, Note_on_c, 1, 56, 80
3, 301056, Note_on_c, 1, 66, 80
3, 301056, Note_on_c, 1, 63, 80
3, 301432, Note_off_c, 1, 66, 100
3, 301432, Note_off_c, 1, 63, 100
3, 301440, Note_on_c, 1, 63, 80
3, 301440, Note_on_c, 1, 66, 80
3, 301816, Note_off_c, 1, 63, 100
3, 301816, Note_off_c, 1, 66, 100
3, 301824, Note_on_c, 1, 63, 80
3, 301824, Note_on_c, 1, 66, 80
3, 302200, Note_off_c, 1, 56, 100
3, 302200, Note_off_c, 1, 63, 100
3, 302200, Note_off_c, 1, 66, 100
3, 302208, Note_on_c, 1, 56, 80
3, 302592, Note_on_c, 1, 66, 80
3, 302592, Note_on_c, 1, 63, 80
3, 302968, Note_off_c, 1, 66, 100
3, 302968, Note_off_c, 1, 63, 100
3, 302976, Note_on_c, 1, 63, 80
3, 302976, Note_on_c, 1, 66, 80
3, 303352, Note_off_c, 1, 63, 100
3, 303352, Note_off_c, 1, 66, 100
3, 303360, Note_on_c, 1, 63, 80
3, 303360, Note_on_c, 1, 66, 80
3, 303736, Note_off_c, 1, 56, 100
3, 303736, Note_off_c, 1, 63, 100
3, 303736, Note_off_c, 1, 66, 100
3, 303744, Note_on_c, 1, 61, 80
3, 304128, Note_on_c, 1, 65, 80
3, 304128, Note_on_c, 1, 68, 80
3, 304504, Note_off_c, 1, 61, 100
3, 304504, Note_off_c, 1, 65, 100
3, 304504, Note_off_c, 1, 68, 100
3, 304512, Note_on_c, 1, 59, 80
3, 304896, Note_on_c, 1, 65, 80
3, 304896, Note_on_c, 1, 68, 80
3, 305272, Note_off_c, 1, 59, 100
3, 305272, Note_off_c, 1, 65, 100
3, 305272, Note_off_c, 1, 68, 100
3, 305280, Note_on_c, 1, 58, 80
3, 305664, Note_on_c, 1, 65, 80
3, 305664, Note_on_c, 1, 68, 80
3, 306040, Note_off_c, 1, 65, 100
3, 306040, Note_off_c, 1, 68, 100
3, 306048, Note_on_c, 1, 65, 80
3, 306048, Note_on_c, 1, 68, 80
3, 306424, Note_off_c, 1, 65, 100
3, 306424, Note_off_c, 1, 68, 100
3, 306432, Note_on_c, 1, 65, 80
3, 306432, Note_on_c, 1, 68, 80
3, 306808, Note_off_c, 1, 58, 100
3, 306808, Note_off_c, 1, 65, 100
3, 306808, Note_off_c, 1, 68, 100
3, 306816, Note_on_c, 1, 58, 80
3, 307200, Note_on_c, 1, 65, 80
3, 307200, Note_on_c, 1, 68, 80
3, 307576, Note_off_c, 1, 65, 100
3, 307576, Note_off_c, 1, 68, 100
3, 307584, Note_on_c, 1, 65, 80
3, 307584, Note_on_c, 1, 68, 80
3, 307960, Note_off_c, 1, 65, 100
3, 307960, Note_off_c, 1, 68, 100
3, 307968, Note_on_c, 1, 65, 80
3, 307968, Note_on_c, 1, 68, 80
3, 308344, Note_off_c, 1, 58, 100
3, 308344, Note_off_c, 1, 65, 100
3, 308344, Note_off_c, 1, 68, 100
3, 308352, Note_on_c, 1, 58, 80
3, 308736, Note_on_c, 1, 65, 80
3, 308736, Note_on_c, 1, 68, 80
3, 309112, Note_off_c, 1, 65, 100
3, 309112, Note_off_c, 1, 68, 100
3, 309120, Note_on_c, 1, 65, 80
3, 309120, Note_on_c, 1, 68, 80
3, 309496, Note_off_c, 1, 65, 100
3, 309496, Note_off_c, 1, 68, 100
3, 309504, Note_on_c, 1, 65, 80
3, 309504, Note_on_c, 1, 68, 80
3, 309880, Note_off_c, 1, 58, 100
3, 309880, Note_off_c, 1, 65, 100
3, 309880, Note_off_c, 1, 68, 100
3, 309888, Note_on_c, 1, 63, 80
3, 310272, Note_on_c, 1, 66, 80
3, 310272, Note_on_c, 1, 70, 80
3, 310648, Note_off_c, 1, 63, 100
3, 310648, Note_off_c, 1, 66, 100
3, 310648, Note_off_c, 1, 70, 100
3, 310656, Note_on_c, 1, 61, 80
3, 311040, Note_on_c, 1, 65, 80
3, 311040, Note_on_c, 1, 70, 80
3, 311416, Note_off_c, 1, 61, 100
3, 311416, Note_off_c, 1, 65, 100
3, 311416, Note_off_c, 1, 70, 100
3, 311424, Note_on_c, 1, 60, 80
3, 311808, Note_on_c, 1, 67, 80
3, 311808, Note_on_c, 1, 70, 80
3, 312184, Note_off_c, 1, 67, 100
3, 312184, Note_off_c, 1, 70, 100
3, 312192, Note_on_c, 1, 67, 80
3, 312192, Note_on_c, 1, 70, 80
3, 312568, Note_off_c, 1, 67, 100
3, 312568, Note_off_c, 1, 70, 100
3, 312576, Note_on_c, 1, 67, 80
3, 312576, Note_on_c, 1, 70, 80
3, 312952, Note_off_c, 1, 60, 100
3, 312952, Note_off_c, 1, 67, 100
3, 312952, Note_off_c, 1, 70, 100
3, 312960, Note_on_c, 1, 60, 80
3, 313344, Note_on_c, 1, 67, 80
3, 313344, Note_on_c, 1, 70, 80
3, 313720, Note_off_c, 1, 67, 100
3, 313720, Note_off_c, 1, 70, 100
3, 313728, Note_on_c, 1, 67, 80
3, 313728, Note_on_c, 1, 70, 80
3, 314104, Note_off_c, 1, 67, 100
3, 314104, Note_off_c, 1, 70, 100
3, 314112, Note_on_c, 1, 67, 80
3, 314112, Note_on_c, 1, 70, 80
3, 314488, Note_off_c, 1, 60, 100
3, 314488, Note_off_c, 1, 67, 100
3, 314488, Note_off_c, 1, 70, 100
3, 314496, Note_on_c, 1, 60, 80
3, 314880, Note_on_c, 1, 67, 80
3, 314880, Note_on_c, 1, 70, 80
3, 315256, Note_off_c, 1, 67, 100
3, 315256, Note_off_c, 1, 70, 100
3, 315264, Note_on_c, 1, 67, 80
3, 315264, Note_on_c, 1, 70, 80
3, 315640, Note_off_c, 1, 67, 100
3, 315640, Note_off_c, 1, 70, 100
3, 315648, Note_on_c, 1, 67, 80
3, 315648, Note_on_c, 1, 70, 80
3, 316024, Note_off_c, 1, 60, 100
3, 316024, Note_off_c, 1, 67, 100
3, 316024, Note_off_c, 1, 70, 100
3, 316032, Note_on_c, 1, 65, 80
3, 316416, Note_on_c, 1, 68, 80
3, 316416, Note_on_c, 1, 72, 80
3, 316704, Note_on_c, 1, 72, 80
3, 316792, Note_off_c, 1, 68, 100
3, 316792, Note_off_c, 1, 72, 100
3, 316800, Note_on_c, 1, 68, 80
3, 317080, Note_off_c, 1, 72, 100
3, 317176, Note_off_c, 1, 68, 100
3, 317184, Note_on_c, 1, 68, 80
3, 317184, Note_on_c, 1, 72, 80
3, 317560, Note_off_c, 1, 65, 100
3, 317560, Note_off_c, 1, 68, 100
3, 317560, Note_off_c, 1, 72, 100
3, 317568, Note_on_c, 1, 58, 80
3, 317952, Note_on_c, 1, 65, 80
3, 317952, Note_on_c, 1, 68, 80
3, 318328, Note_off_c, 1, 58, 100
3, 318328, Note_off_c, 1, 65, 100
3, 318328, Note_off_c, 1, 68, 100
3, 318336, Note_on_c, 1, 59, 80
3, 318336, Note_on_c, 1, 65, 80
3, 318336, Note_on_c, 1, 68, 80
3, 318712, Note_off_c, 1, 65, 100
3, 318712, Note_off_c, 1, 68, 100
3, 318720, Note_on_c, 1, 65, 80
3, 318720, Note_on_c, 1, 68, 80
3, 319096, Note_off_c, 1, 59, 100
3, 319096, Note_off_c, 1, 65, 100
3, 319096, Note_off_c, 1, 68, 100
3, 319104, Note_on_c, 1, 60, 80
3, 319488, Note_on_c, 1, 63, 79
3, 319488, Note_on_c, 1, 67, 79
3, 319864, Note_off_c, 1, 63, 100
3, 319864, Note_off_c, 1, 67, 100
3, 319872, Note_on_c, 1, 63, 78
3, 319872, Note_on_c, 1, 67, 78
3, 320248, Note_off_c, 1, 63, 100
3, 320248, Note_off_c, 1, 67, 100
3, 320256, Note_on_c, 1, 63, 76
3, 320256, Note_on_c, 1, 67, 76
3, 320632, Note_off_c, 1, 60, 100
3, 320632, Note_off_c, 1, 63, 100
3, 320632, Note_off_c, 1, 67, 100
3, 320640, Note_on_c, 1, 56, 75
3, 321024, Note_on_c, 1, 63, 73
3, 321024, Note_on_c, 1, 65, 73
3, 321400, Note_off_c, 1, 63, 100
3, 321400, Note_off_c, 1, 65, 100
3, 321408, Note_on_c, 1, 63, 72
3, 321408, Note_on_c, 1, 65, 72
3, 321784, Note_off_c, 1, 63, 100
3, 321784, Note_off_c, 1, 65, 100
3, 321792, Note_on_c, 1, 63, 71
3, 321792, Note_on_c, 1, 65, 71
3, 322168, Note_off_c, 1, 56, 100
3, 322168, Note_off_c, 1, 63, 100
3, 322168, Note_off_c, 1, 65, 100
3, 322176, Note_on_c, 1, 58, 70
3, 322560, Note_on_c, 1, 63, 70
3, 322560, Note_on_c, 1, 67, 70
3, 322936, Note_off_c, 1, 63, 100
3, 322936, Note_off_c, 1, 67, 100
3, 322944, Note_on_c, 1, 63, 70
3, 322944, Note_on_c, 1, 67, 70
3, 323320, Note_off_c, 1, 63, 100
3, 323320, Note_off_c, 1, 67, 100
3, 323328, Note_on_c, 1, 63, 70
3, 323328, Note_on_c, 1, 67, 70
3, 323704, Note_off_c, 1, 58, 100
3, 323704, Note_off_c, 1, 63, 100
3, 323704, Note_off_c, 1, 67, 100
3, 323712, Note_on_c, 1, 58, 70
3, 324096, Note_on_c, 1, 63, 70
3, 324096, Note_on_c, 1, 67, 70
3, 324472, Note_off_c, 1, 63, 100
3, 324472, Note_off_c, 1, 67, 100
3, 324480, Note_on_c, 1, 63, 70
3, 324480, Note_on_c, 1, 67, 70
3, 324856, Note_off_c, 1, 63, 100
3, 324856, Note_off_c, 1, 67, 100
3, 324864, Note_on_c, 1, 63, 70
3, 324864, Note_on_c, 1, 67, 70
3, 325240, Note_off_c, 1, 58, 100
3, 325240, Note_off_c, 1, 63, 100
3, 325240, Note_off_c, 1, 67, 100
3, 325248, Note_on_c, 1, 51, 80
3, 325440, Note_on_c, 1, 58, 80
3, 325624, Note_off_c, 1, 58, 100
3, 325632, Note_on_c, 1, 55, 80
3, 325816, Note_off_c, 1, 55, 100
3, 325824, Note_on_c, 1, 58, 80
3, 326008, Note_off_c, 1, 58, 100
3, 326016, Note_on_c, 1, 55, 80
3, 326200, Note_off_c, 1, 55, 100
3, 326208, Note_on_c, 1, 58, 80
3, 326392, Note_off_c, 1, 58, 100
3, 326400, Note_on_c, 1, 55, 80
3, 326584, Note_off_c, 1, 55, 100
3, 326592, Note_on_c, 1, 58, 80
3, 326776, Note_off_c, 1, 58, 100
3, 326784, Note_on_c, 1, 55, 80
3, 326968, Note_off_c, 1, 55, 100
3, 326976, Note_on_c, 1, 58, 80
3, 327160, Note_off_c, 1, 58, 100
3, 327168, Note_on_c, 1, 55, 80
3, 327352, Note_off_c, 1, 55, 100
3, 327360, Note_on_c, 1, 58, 80
3, 327544, Note_off_c, 1, 51, 100
3, 327544, Note_off_c, 1, 58, 100
3, 327552, Note_on_c, 1, 51, 80
3, 327744, Note_on_c, 1, 58, 80
3, 327928, Note_off_c, 1, 58, 100
3, 327936, Note_on_c, 1, 55, 80
3, 328120, Note_off_c, 1, 55, 100
3, 328128, Note_on_c, 1, 58, 80
3, 328312, Note_off_c, 1, 51, 100
3, 328312, Note_off_c, 1, 58, 100
3, 328320, Note_on_c, 1, 49, 80
3, 328512, Note_on_c, 1, 58, 80
3, 328696, Note_off_c, 1, 58, 100
3, 328704, Note_on_c, 1, 55, 80
3, 328888, Note_off_c, 1, 55, 100
3, 328896, Note_on_c, 1, 58, 80
3, 329080, Note_off_c, 1, 58, 100
3, 329088, Note_on_c, 1, 55, 80
3, 329272, Note_off_c, 1, 55, 100
3, 329280, Note_on_c, 1, 58, 80
3, 329464, Note_off_c, 1, 58, 100
3, 329472, Note_on_c, 1, 55, 80
3, 329656, Note_off_c, 1, 55, 100
3, 329664, Note_on_c, 1, 58, 80
3, 329848, Note_off_c, 1, 58, 100
3, 329856, Note_on_c, 1, 55, 80
3, 330040, Note_off_c, 1, 55, 100
3, 330048, Note_on_c, 1, 58, 80
3, 330232, Note_off_c, 1, 58, 100
3, 330240, Note_on_c, 1, 55, 80
3, 330424, Note_off_c, 1, 55, 100
3, 330432, Note_on_c, 1, 58, 80
3, 330616, Note_off_c, 1, 49, 100
3, 330616, Note_off_c, 1, 58, 100
3, 330624, Note_on_c, 1, 49, 80
3, 330816, Note_on_c, 1, 58, 80
3, 331000, Note_off_c, 1, 58, 100
3, 331008, Note_on_c, 1, 55, 80
3, 331192, Note_off_c, 1, 55, 100
3, 331200, Note_on_c, 1, 58, 80
3, 331384, Note_off_c, 1, 49, 100
3, 331384, Note_off_c, 1, 58, 100
3, 331392, Note_on_c, 1, 48, 80
3, 331576, Note_off_c, 1, 48, 100
3, 331584, Note_on_c, 1, 56, 80
3, 331768, Note_off_c, 1, 56, 100
3, 331776, Note_on_c, 1, 51, 81
3, 331960, Note_off_c, 1, 51, 100
3, 331968, Note_on_c, 1, 56, 81
3, 332152, Note_off_c, 1, 56, 100
3, 332160, Note_on_c, 1, 46, 82
3, 332344, Note_off_c, 1, 46, 100
3, 332352, Note_on_c, 1, 55, 83
3, 332536, Note_off_c, 1, 55, 100
3, 332544, Note_on_c, 1, 48, 83
3, 332728, Note_off_c, 1, 48, 100
3, 332736, Note_on_c, 1, 55, 84
3, 332920, Note_off_c, 1, 55, 100
3, 332928, Note_on_c, 1, 44, 85
3, 333112, Note_off_c, 1, 44, 100
3, 333120, Note_on_c, 1, 56, 85
3, 333304, Note_off_c, 1, 56, 100
3, 333312, Note_on_c, 1, 48, 86
3, 333496, Note_off_c, 1, 48, 100
3, 333504, Note_on_c, 1, 56, 87
3, 333688, Note_off_c, 1, 56, 100
3, 333696, Note_on_c, 1, 43, 87
3, 333880, Note_off_c, 1, 43, 100
3, 333888, Note_on_c, 1, 55, 88
3, 334072, Note_off_c, 1, 55, 100
3, 334080, Note_on_c, 1, 48, 88
3, 334264, Note_off_c, 1, 48, 100
3, 334272, Note_on_c, 1, 55, 89
3, 334456, Note_off_c, 1, 55, 100
3, 334464, Note_on_c, 1, 41, 90
3, 334648, Note_off_c, 1, 41, 100
3, 334656, Note_on_c, 1, 53, 90
3, 334840, Note_off_c, 1, 53, 100
3, 334848, Note_on_c, 1, 48, 91
3, 335032, Note_off_c, 1, 48, 100
3, 335040, Note_on_c, 1, 53, 92
3, 335224, Note_off_c, 1, 53, 100
3, 335232, Note_on_c, 1, 39, 92
3, 335416, Note_off_c, 1, 39, 100
3, 335424, Note_on_c, 1, 51, 93
3, 335608, Note_off_c, 1, 51, 100
3, 335616, Note_on_c, 1, 41, 94
3, 335800, Note_off_c, 1, 41, 100
3, 335808, Note_on_c, 1, 51, 94
3, 335992, Note_off_c, 1, 51, 100
3, 336000, Note_on_c, 1, 38, 95
3, 336184, Note_off_c, 1, 38, 100
3, 336192, Note_on_c, 1, 50, 95
3, 336376, Note_off_c, 1, 50, 100
3, 336384, Note_on_c, 1, 41, 96
3, 336568, Note_off_c, 1, 41, 100
3, 336576, Note_on_c, 1, 50, 97
3, 336760, Note_off_c, 1, 50, 100
3, 336768, Note_on_c, 1, 36, 97
3, 336952, Note_off_c, 1, 36, 100
3, 336960, Note_on_c, 1, 48, 98
3, 337144, Note_off_c, 1, 48, 100
3, 337152, Note_on_c, 1, 41, 99
3, 337336, Note_off_c, 1, 41, 100
3, 337344, Note_on_c, 1, 48, 99
3, 337528, Note_off_c, 1, 48, 100
3, 337536, Note_on_c, 1, 34, 100
3, 337720, Note_off_c, 1, 34, 100
3, 337728, Note_on_c, 1, 46, 101
3, 337912, Note_off_c, 1, 46, 100
3, 337920, Note_on_c, 1, 41, 101
3, 338104, Note_off_c, 1, 41, 100
3, 338112, Note_on_c, 1, 46, 102
3, 338296, Note_off_c, 1, 46, 100
3, 338304, Note_on_c, 1, 32, 102
3, 338488, Note_off_c, 1, 32, 100
3, 338496, Note_on_c, 1, 44, 103
3, 338680, Note_off_c, 1, 44, 100
3, 338688, Note_on_c, 1, 41, 104
3, 338872, Note_off_c, 1, 41, 100
3, 338880, Note_on_c, 1, 44, 104
3, 339064, Note_off_c, 1, 44, 100
3, 339072, Note_on_c, 1, 31, 105
3, 339256, Note_off_c, 1, 31, 100
3, 339264, Note_on_c, 1, 43, 106
3, 339448, Note_off_c, 1, 43, 100
3, 339456, Note_on_c, 1, 39, 106
3, 339640, Note_off_c, 1, 39, 100
3, 339648, Note_on_c, 1, 43, 107
3, 339832, Note_off_c, 1, 43, 100
3, 339840, Note_on_c, 1, 31, 108
3, 340024, Note_off_c, 1, 31, 100
3, 340032, Note_on_c, 1, 43, 108
3, 340216, Note_off_c, 1, 43, 100
3, 340224, Note_on_c, 1, 39, 109
3, 340408, Note_off_c, 1, 39, 100
3, 340416, Note_on_c, 1, 43, 109
3, 340600, Note_off_c, 1, 43, 100
3, 340608, Note_on_c, 1, 44, 110
3, 340608, Note_on_c, 1, 32, 110
3, 340984, Note_off_c, 1, 44, 100
3, 340984, Note_off_c, 1, 32, 100
3, 342144, Note_on_c, 1, 46, 110
3, 342144, Note_on_c, 1, 34, 110
3, 342520, Note_off_c, 1, 46, 100
3, 342520, Note_off_c, 1, 34, 100
3, 343680, Note_on_c, 1, 51, 80
3, 343872, Note_on_c, 1, 58, 80
3, 344056, Note_off_c, 1, 58, 100
3, 344064, Note_on_c, 1, 55, 80
3, 344248, Note_off_c, 1, 55, 100
3, 344256, Note_on_c, 1, 58, 80
3, 344440, Note_off_c, 1, 58, 100
3, 344448, Note_on_c, 1, 55, 80
3, 344632, Note_off_c, 1, 55, 100
3, 344640, Note_on_c, 1, 58, 80
3, 344824, Note_off_c, 1, 58, 100
3, 344832, Note_on_c, 1, 55, 80
3, 345016, Note_off_c, 1, 55, 100
3, 345024, Note_on_c, 1, 58, 80
3, 345208, Note_off_c, 1, 58, 100
3, 345216, Note_on_c, 1, 55, 80
3, 345400, Note_off_c, 1, 55, 100
3, 345408, Note_on_c, 1, 58, 80
3, 345592, Note_off_c, 1, 58, 100
3, 345600, Note_on_c, 1, 55, 80
3, 345784, Note_off_c, 1, 55, 100
3, 345792, Note_on_c, 1, 58, 80
3, 345976, Note_off_c, 1, 51, 100
3, 345976, Note_off_c, 1, 58, 100
3, 345984, Note_on_c, 1, 51, 80
3, 346176, Note_on_c, 1, 58, 80
3, 346360, Note_off_c, 1, 58, 100
3, 346368, Note_on_c, 1, 55, 80
3, 346552, Note_off_c, 1, 55, 100
3, 346560, Note_on_c, 1, 58, 80
3, 346744, Note_off_c, 1, 51, 100
3, 346744, Note_off_c, 1, 58, 100
3, 346752, Note_on_c, 1, 49, 80
3, 346944, Note_on_c, 1, 58, 80
3, 347128, Note_off_c, 1, 58, 100
3, 347136, Note_on_c, 1, 55, 80
3, 347320, Note_off_c, 1, 55, 100
3, 347328, Note_on_c, 1, 58, 80
3, 347512, Note_off_c, 1, 58, 100
3, 347520, Note_on_c, 1, 55, 80
3, 347704, Note_off_c, 1, 55, 100
3, 347712, Note_on_c, 1, 58, 80
3, 347896, Note_off_c, 1, 58, 100
3, 347904, Note_on_c, 1, 55, 80
3, 348088, Note_off_c, 1, 55, 100
3, 348096, Note_on_c, 1, 58, 80
3, 348280, Note_off_c, 1, 58, 100
3, 348288, Note_on_c, 1, 55, 80
3, 348472, Note_off_c, 1, 55, 100
3, 348480, Note_on_c, 1, 58, 80
3, 348664, Note_off_c, 1, 58, 100
3, 348672, Note_on_c, 1, 55, 80
3, 348856, Note_off_c, 1, 55, 100
3, 348864, Note_on_c, 1, 58, 80
3, 349048, Note_off_c, 1, 49, 100
3, 349048, Note_off_c, 1, 58, 100
3, 349056, Note_on_c, 1, 49, 80
3, 349248, Note_on_c, 1, 58, 80
3, 349432, Note_off_c, 1, 58, 100
3, 349440, Note_on_c, 1, 55, 80
3, 349624, Note_off_c, 1, 55, 100
3, 349632, Note_on_c, 1, 58, 80
3, 349816, Note_off_c, 1, 49, 100
3, 349816, Note_off_c, 1, 58, 100
3, 349824, Note_on_c, 1, 48, 80
3, 350008, Note_off_c, 1, 48, 100
3, 350016, Note_on_c, 1, 56, 80
3, 350200, Note_off_c, 1, 56, 100
3, 350208, Note_on_c, 1, 51, 81
3, 350392, Note_off_c, 1, 51, 100
3, 350400, Note_on_c, 1, 56, 81
3, 350584, Note_off_c, 1, 56, 100
3, 350592, Note_on_c, 1, 46, 82
3, 350776, Note_off_c, 1, 46, 100
3, 350784, Note_on_c, 1, 55, 83
3, 350968, Note_off_c, 1, 55, 100
3, 350976, Note_on_c, 1, 48, 83
3, 351160, Note_off_c, 1, 48, 100
3, 351168, Note_on_c, 1, 55, 84
3, 351352, Note_off_c, 1, 55, 100
3, 351360, Note_on_c, 1, 44, 85
3, 351544, Note_off_c, 1, 44, 100
3, 351552, Note_on_c, 1, 56, 85
3, 351736, Note_off_c, 1, 56, 100
3, 351744, Note_on_c, 1, 48, 86
3, 351928, Note_off_c, 1, 48, 100
3, 351936, Note_on_c, 1, 56, 87
3, 352120, Note_off_c, 1, 56, 100
3, 352128, Note_on_c, 1, 43, 87
3, 352312, Note_off_c, 1, 43, 100
3, 352320, Note_on_c, 1, 55, 88
3, 352504, Note_off_c, 1, 55, 100
3, 352512, Note_on_c, 1, 48, 88
3, 352696, Note_off_c, 1, 48, 100
3, 352704, Note_on_c, 1, 55, 89
3, 352888, Note_off_c, 1, 55, 100
3, 352896, Note_on_c, 1, 41, 90
3, 353080, Note_off_c, 1, 41, 100
3, 353088, Note_on_c, 1, 53, 90
3, 353272, Note_off_c, 1, 53, 100
3, 353280, Note_on_c, 1, 48, 91
3, 353464, Note_off_c, 1, 48, 100
3, 353472, Note_on_c, 1, 53, 92
3, 353656, Note_off_c, 1, 53, 100
3, 353664, Note_on_c, 1, 39, 92
3, 353848, Note_off_c, 1, 39, 100
3, 353856, Note_on_c, 1, 51, 93
3, 354040, Note_off_c, 1, 51, 100
3, 354048, Note_on_c, 1, 41, 94
3, 354232, Note_off_c, 1, 41, 100
3, 354240, Note_on_c, 1, 51, 94
3, 354424, Note_off_c, 1, 51, 100
3, 354432, Note_on_c, 1, 38, 95
3, 354616, Note_off_c, 1, 38, 100
3, 354624, Note_on_c, 1, 50, 95
3, 354808, Note_off_c, 1, 50, 100
3, 354816, Note_on_c, 1, 41, 96
3, 355000, Note_off_c, 1, 41, 100
3, 355008, Note_on_c, 1, 50, 97
3, 355192, Note_off_c, 1, 50, 100
3, 355200, Note_on_c, 1, 36, 97
3, 355384, Note_off_c, 1, 36, 100
3, 355392, Note_on_c, 1, 48, 98
3, 355576, Note_off_c, 1, 48, 100
3, 355584, Note_on_c, 1, 41, 99
3, 355768, Note_off_c, 1, 41, 100
3, 355776, Note_on_c, 1, 48, 99
3, 355960, Note_off_c, 1, 48, 100
3, 355968, Note_on_c, 1, 34, 100
3, 356152, Note_off_c, 1, 34, 100
3, 356160, Note_on_c, 1, 46, 101
3, 356344, Note_off_c, 1, 46, 100
3, 356352, Note_on_c, 1, 41, 101
3, 356536, Note_off_c, 1, 41, 100
3, 356544, Note_on_c, 1, 46, 102
3, 356728, Note_off_c, 1, 46, 100
3, 356736, Note_on_c, 1, 32, 102
3, 356920, Note_off_c, 1, 32, 100
3, 356928, Note_on_c, 1, 44, 103
3, 357112, Note_off_c, 1, 44, 100
3, 357120, Note_on_c, 1, 41, 104
3, 357304, Note_off_c, 1, 41, 100
3, 357312, Note_on_c, 1, 44, 104
3, 357496, Note_off_c, 1, 44, 100
3, 357504, Note_on_c, 1, 31, 105
3, 357688, Note_off_c, 1, 31, 100
3, 357696, Note_on_c, 1, 43, 106
3, 357880, Note_off_c, 1, 43, 100
3, 357888, Note_on_c, 1, 39, 106
3, 358072, Note_off_c, 1, 39, 100
3, 358080, Note_on_c, 1, 43, 107
3, 358264, Note_off_c, 1, 43, 100
3, 358272, Note_on_c, 1, 31, 108
3, 358456, Note_off_c, 1, 31, 100
3, 358464, Note_on_c, 1, 43, 108
3, 358648, Note_off_c, 1, 43, 100
3, 358656, Note_on_c, 1, 31, 109
3, 358840, Note_off_c, 1, 31, 100
3, 358848, Note_on_c, 1, 43, 109
3, 359032, Note_off_c, 1, 43, 100
3, 359040, Note_on_c, 1, 44, 110
3, 359040, Note_on_c, 1, 32, 110
3, 359416, Note_off_c, 1, 44, 100
3, 359416, Note_off_c, 1, 32, 100
3, 360576, Note_on_c, 1, 46, 110
3, 360576, Note_on_c, 1, 34, 110
3, 360952, Note_off_c, 1, 46, 100
3, 360952, Note_off_c, 1, 34, 100
3, 362112, Note_on_c, 1, 51, 80
3, 362112, Note_on_c, 1, 39, 80
3, 362488, Note_off_c, 1, 51, 100
3, 362488, Note_off_c, 1, 39, 100
3, 362496, Note_on_c, 1, 63, 80
3, 362496, Note_on_c, 1, 67, 80
3, 362872, Note_off_c, 1, 63, 100
3, 362872, Note_off_c, 1, 67, 100
3, 362880, Note_on_c, 1, 63, 80
3, 362880, Note_on_c, 1, 67, 80
3, 363256, Note_off_c, 1, 63, 100
3, 363256, Note_off_c, 1, 67, 100
3, 363264, Note_on_c, 1, 63, 80
3, 363264, Note_on_c, 1, 67, 80
3, 363640, Note_off_c, 1, 63, 100
3, 363640, Note_off_c, 1, 67, 100
3, 363648, Note_on_c, 1, 60, 80
3, 364032, Note_on_c, 1, 63, 80
3, 364032, Note_on_c, 1, 67, 80
3, 364408, Note_off_c, 1, 63, 100
3, 364408, Note_off_c, 1, 67, 100
3, 364416, Note_on_c, 1, 63, 80
3, 364416, Note_on_c, 1, 67, 80
3, 364792, Note_off_c, 1, 63, 100
3, 364792, Note_off_c, 1, 67, 100
3, 364800, Note_on_c, 1, 67, 80
3, 364800, Note_on_c, 1, 63, 80
3, 365176, Note_off_c, 1, 60, 100
3, 365176, Note_off_c, 1, 67, 100
3, 365176, Note_off_c, 1, 63, 100
3, 365184, Note_on_c, 1, 56, 80
3, 365568, Note_on_c, 1, 63, 80
3, 365568, Note_on_c, 1, 65, 80
3, 365944, Note_off_c, 1, 63, 100
3, 365944, Note_off_c, 1, 65, 100
3, 365952, Note_on_c, 1, 63, 80
3, 365952, Note_on_c, 1, 65, 80
3, 366328, Note_off_c, 1, 63, 100
3, 366328, Note_off_c, 1, 65, 100
3, 366336, Note_on_c, 1, 63, 80
3, 366336, Note_on_c, 1, 65, 80
3, 366712, Note_off_c, 1, 56, 100
3, 366712, Note_off_c, 1, 63, 100
3, 366712, Note_off_c, 1, 65, 100
3, 366720, Note_on_c, 1, 58, 80
3, 367104, Note_on_c, 1, 62, 80
3, 367104, Note_on_c, 1, 65, 80
3, 367480, Note_off_c, 1, 62, 100
3, 367480, Note_off_c, 1, 65, 100
3, 367488, Note_on_c, 1, 62, 80
3, 367488, Note_on_c, 1, 65, 80
3, 367864, Note_off_c, 1, 62, 100
3, 367864, Note_off_c, 1, 65, 100
3, 367872, Note_on_c, 1, 62, 80
3, 367872, Note_on_c, 1, 65, 80
3, 368248, Note_off_c, 1, 58, 100
3, 368248, Note_off_c, 1, 62, 100
3, 368248, Note_off_c, 1, 65, 100
3, 368256, Note_on_c, 1, 51, 80
3, 368640, Note_on_c, 1, 55, 80
3, 368640, Note_on_c, 1, 63, 80
3, 369016, Note_off_c, 1, 55, 100
3, 369016, Note_off_c, 1, 63, 100
3, 369024, Note_on_c, 1, 55, 80
3, 369024, Note_on_c, 1, 63, 80
3, 369400, Note_off_c, 1, 55, 100
3, 369400, Note_off_c, 1, 63, 100
3, 369408, Note_on_c, 1, 55, 82
3, 369408, Note_on_c, 1, 63, 82
3, 369784, Note_off_c, 1, 51, 100
3, 369784, Note_off_c, 1, 55, 100
3, 369784, Note_off_c, 1, 63, 100
3, 369792, Note_on_c, 1, 48, 84
3, 370176, Note_on_c, 1, 51, 86
3, 370176, Note_on_c, 1, 55, 86
3, 370176, Note_on_c, 1, 62, 86
3, 370552, Note_off_c, 1, 51, 100
3, 370552, Note_off_c, 1, 55, 100
3, 370552, Note_off_c, 1, 62, 100
3, 370560, Note_on_c, 1, 51, 88
3, 370560, Note_on_c, 1, 55, 88
3, 370560, Note_on_c, 1, 60, 88
3, 370936, Note_off_c, 1, 51, 100
3, 370936, Note_off_c, 1, 55, 100
3, 370936, Note_off_c, 1, 60, 100
3, 370944, Note_on_c, 1, 51, 91
3, 370944, Note_on_c, 1, 55, 91
3, 370944, Note_on_c, 1, 60, 91
3, 371320, Note_off_c, 1, 48, 100
3, 371320, Note_off_c, 1, 51, 100
3, 371320, Note_off_c, 1, 55, 100
3, 371320, Note_off_c, 1, 60, 100
3, 371328, Note_on_c, 1, 44, 93
3, 371712, Note_on_c, 1, 51, 95
3, 371712, Note_on_c, 1, 53, 95
3, 371712, Note_on_c, 1, 56, 95
3, 372088, Note_off_c, 1, 51, 100
3, 372088, Note_off_c, 1, 53, 100
3, 372088, Note_off_c, 1, 56, 100
3, 372096, Note_on_c, 1, 51, 97
3, 372096, Note_on_c, 1, 53, 97
3, 372096, Note_on_c, 1, 56, 97
3, 372472, Note_off_c, 1, 51, 100
3, 372472, Note_off_c, 1, 53, 100
3, 372472, Note_off_c, 1, 56, 100
3, 372480, Note_on_c, 1, 51, 99
3, 372480, Note_on_c, 1, 53, 99
3, 372480, Note_on_c, 1, 56, 99
3, 372856, Note_off_c, 1, 44, 100
3, 372856, Note_off_c, 1, 51, 100
3, 372856, Note_off_c, 1, 53, 100
3, 372856, Note_off_c, 1, 56, 100
3, 372864, Note_on_c, 1, 46, 102
3, 373248, Note_on_c, 1, 50, 104
3, 373248, Note_on_c, 1, 53, 104
3, 373248, Note_on_c, 1, 58, 104
3, 373624, Note_off_c, 1, 50, 100
3, 373624, Note_off_c, 1, 53, 100
3, 373624, Note_off_c, 1, 58, 100
3, 373632, Note_on_c, 1, 50, 106
3, 373632, Note_on_c, 1, 53, 106
3, 373632, Note_on_c, 1, 58, 106
3, 374008, Note_off_c, 1, 50, 100
3, 374008, Note_off_c, 1, 53, 100
3, 374008, Note_off_c, 1, 58, 100
3, 374016, Note_on_c, 1, 50, 108
3, 374016, Note_on_c, 1, 53, 108
3, 374016, Note_on_c, 1, 58, 108
3, 374392, Note_off_c, 1, 46, 100
3, 374392, Note_off_c, 1, 50, 100
3, 374392, Note_off_c, 1, 53, 100
3, 374392, Note_off_c, 1, 58, 100
3, 374400, Note_on_c, 1, 39, 110
3, 374584, Note_off_c, 1, 39, 100
3, 374592, Note_on_c, 1, 51, 110
3, 374776, Note_off_c, 1, 51, 100
3, 374784, Note_on_c, 1, 39, 110
3, 374968, Note_off_c, 1, 39, 100
3, 374976, Note_on_c, 1, 51, 110
3, 375160, Note_off_c, 1, 51, 100
3, 375168, Note_on_c, 1, 39, 110
3, 375352, Note_off_c, 1, 39, 100
3, 375360, Note_on_c, 1, 51, 110
3, 375544, Note_off_c, 1, 51, 100
3, 375552, Note_on_c, 1, 39, 110
3, 375736, Note_off_c, 1, 39, 100
3, 375744, Note_on_c, 1, 51, 110
3, 375928, Note_off_c, 1, 51, 100
3, 375936, Note_on_c, 1, 39, 110
3, 376120, Note_off_c, 1, 39, 100
3, 376128, Note_on_c, 1, 51, 110
3, 376312, Note_off_c, 1, 51, 100
3, 376320, Note_on_c, 1, 39, 110
3, 376504, Note_off_c, 1, 39, 100
3, 376512, Note_on_c, 1, 51, 110
3, 376696, Note_off_c, 1, 51, 100
3, 376704, Note_on_c, 1, 39, 110
3, 376888, Note_off_c, 1, 39, 100
3, 376896, Note_on_c, 1, 51, 110
3, 377080, Note_off_c, 1, 51, 100
3, 377088, Note_on_c, 1, 39, 110
3, 377272, Note_off_c, 1, 39, 100
3, 377280, Note_on_c, 1, 51, 110
3, 377464, Note_off_c, 1, 51, 100
3, 377472, Note_on_c, 1, 39, 110
3, 377656, Note_off_c, 1, 39, 100
3, 377664, Note_on_c, 1, 51, 110
3, 377848, Note_off_c, 1, 51, 100
3, 377856, Note_on_c, 1, 39, 110
3, 378040, Note_off_c, 1, 39, 100
3, 378048, Note_on_c, 1, 51, 110
3, 378232, Note_off_c, 1, 51, 100
3, 378240, Note_on_c, 1, 39, 110
3, 378424, Note_off_c, 1, 39, 100
3, 378432, Note_on_c, 1, 51, 110
3, 378616, Note_off_c, 1, 51, 100
3, 378624, Note_on_c, 1, 39, 110
3, 378808, Note_off_c, 1, 39, 100
3, 378816, Note_on_c, 1, 51, 110
3, 379000, Note_off_c, 1, 51, 100
3, 379008, Note_on_c, 1, 39, 110
3, 379192, Note_off_c, 1, 39, 100
3, 379200, Note_on_c, 1, 51, 110
3, 379384, Note_off_c, 1, 51, 100
3, 379392, Note_on_c, 1, 39, 110
3, 379576, Note_off_c, 1, 39, 100
3, 379584, Note_on_c, 1, 51, 110
3, 379768, Note_off_c, 1, 51, 100
3, 379776, Note_on_c, 1, 39, 110
3, 379960, Note_off_c, 1, 39, 100
3, 379968, Note_on_c, 1, 51, 110
3, 380152, Note_off_c, 1, 51, 100
3, 380160, Note_on_c, 1, 39, 110
3, 380344, Note_off_c, 1, 39, 100
3, 380352, Note_on_c, 1, 51, 110
3, 380536, Note_off_c, 1, 51, 100
3, 380544, Note_on_c, 1, 39, 110
3, 380728, Note_off_c, 1, 39, 100
3, 380736, Note_on_c, 1, 51, 110
3, 380920, Note_off_c, 1, 51, 100
3, 380928, Note_on_c, 1, 39, 110
3, 381112, Note_off_c, 1, 39, 100
3, 381120, Note_on_c, 1, 51, 110
3, 381304, Note_off_c, 1, 51, 100
3, 381312, Note_on_c, 1, 39, 110
3, 381496, Note_off_c, 1, 39, 100
3, 381504, Note_on_c, 1, 51, 110
3, 381688, Note_off_c, 1, 51, 100
3, 381696, Note_on_c, 1, 39, 110
3, 381880, Note_off_c, 1, 39, 100
3, 381888, Note_on_c, 1, 51, 110
3, 382072, Note_off_c, 1, 51, 100
3, 382080, Note_on_c, 1, 38, 110
3, 382264, Note_off_c, 1, 38, 100
3, 382272, Note_on_c, 1, 50, 110
3, 382456, Note_off_c, 1, 50, 100
3, 382464, Note_on_c, 1, 38, 110
3, 382648, Note_off_c, 1, 38, 100
3, 382656, Note_on_c, 1, 50, 110
3, 382840, Note_off_c, 1, 50, 100
3, 382848, Note_on_c, 1, 38, 110
3, 383032, Note_off_c, 1, 38, 100
3, 383040, Note_on_c, 1, 50, 110
3, 383224, Note_off_c, 1, 50, 100
3, 383232, Note_on_c, 1, 38, 110
3, 383416, Note_off_c, 1, 38, 100
3, 383424, Note_on_c, 1, 50, 110
3, 383608, Note_off_c, 1, 50, 100
3, 383616, Note_on_c, 1, 36, 110
3, 383800, Note_off_c, 1, 36, 100
3, 383808, Note_on_c, 1, 48, 110
3, 383992, Note_off_c, 1, 48, 100
3, 384000, Note_on_c, 1, 36, 110
3, 384184, Note_off_c, 1, 36, 100
3, 384192, Note_on_c, 1, 48, 110
3, 384376, Note_off_c, 1, 48, 100
3, 384384, Note_on_c, 1, 36, 110
3, 384568, Note_off_c, 1, 36, 100
3, 384576, Note_on_c, 1, 48, 110
3, 384760, Note_off_c, 1, 48, 100
3, 384768, Note_on_c, 1, 36, 110
3, 384952, Note_off_c, 1, 36, 100
3, 384960, Note_on_c, 1, 48, 110
3, 385144, Note_off_c, 1, 48, 100
3, 385152, Note_on_c, 1, 34, 110
3, 385336, Note_off_c, 1, 34, 100
3, 385344, Note_on_c, 1, 46, 110
3, 385528, Note_off_c, 1, 46, 100
3, 385536, Note_on_c, 1, 34, 110
3, 385720, Note_off_c, 1, 34, 100
3, 385728, Note_on_c, 1, 46, 110
3, 385912, Note_off_c, 1, 46, 100
3, 385920, Note_on_c, 1, 34, 110
3, 386104, Note_off_c, 1, 34, 100
3, 386112, Note_on_c, 1, 46, 110
3, 386296, Note_off_c, 1, 46, 100
3, 386304, Note_on_c, 1, 34, 110
3, 386488, Note_off_c, 1, 34, 100
3, 386496, Note_on_c, 1, 46, 110
3, 386680, Note_off_c, 1, 46, 100
3, 386688, Note_on_c, 1, 32, 110
3, 386872, Note_off_c, 1, 32, 100
3, 386880, Note_on_c, 1, 44, 110
3, 387064, Note_off_c, 1, 44, 100
3, 387072, Note_on_c, 1, 32, 110
3, 387256, Note_off_c, 1, 32, 100
3, 387264, Note_on_c, 1, 44, 110
3, 387448, Note_off_c, 1, 44, 100
3, 387456, Note_on_c, 1, 32, 110
3, 387640, Note_off_c, 1, 32, 100
3, 387648, Note_on_c, 1, 44, 110
3, 387832, Note_off_c, 1, 44, 100
3, 387840, Note_on_c, 1, 32, 110
3, 388024, Note_off_c, 1, 32, 100
3, 388032, Note_on_c, 1, 44, 110
3, 388216, Note_off_c, 1, 44, 100
3, 388224, Note_on_c, 1, 31, 110
3, 388408, Note_off_c, 1, 31, 100
3, 388416, Note_on_c, 1, 43, 110
3, 388600, Note_off_c, 1, 43, 100
3, 388608, Note_on_c, 1, 31, 110
3, 388792, Note_off_c, 1, 31, 100
3, 388800, Note_on_c, 1, 43, 110
3, 388984, Note_off_c, 1, 43, 100
3, 388992, Note_on_c, 1, 31, 110
3, 389176, Note_off_c, 1, 31, 100
3, 389184, Note_on_c, 1, 43, 110
3, 389368, Note_off_c, 1, 43, 100
3, 389376, Note_on_c, 1, 31, 110
3, 389560, Note_off_c, 1, 31, 100
3, 389568, Note_on_c, 1, 43, 110
3, 389752, Note_off_c, 1, 43, 100
3, 389760, Note_on_c, 1, 42, 120
3, 389760, Note_on_c, 1, 30, 120
3, 391288, Note_off_c, 1, 42, 100
3, 391288, Note_off_c, 1, 30, 100
3, 391296, Note_on_c, 1, 54, 120
3, 391296, Note_on_c, 1, 42, 120
3, 395896, Note_off_c, 1, 42, 100
3, 395896, Note_off_c, 1, 54, 100
3, 395904, Note_on_c, 1, 43, 120
3, 395904, Note_on_c, 1, 38, 120
3, 395904, Note_on_c, 1, 34, 120
3, 395904, Note_on_c, 1, 31, 120
3, 396428, Note_off_c, 1, 31, 100
3, 396428, Note_off_c, 1, 34, 100
3, 396428, Note_off_c, 1, 38, 100
3, 396428, Note_off_c, 1, 43, 100
3, 396432, Note_on_c, 1, 58, 80
3, 396476, Note_off_c, 1, 58, 100
3, 396480, Note_on_c, 1, 57, 80
3, 396620, Note_off_c, 1, 57, 100
3, 396624, Note_on_c, 1, 55, 80
3, 396668, Note_off_c, 1, 55, 100
3, 396672, Note_on_c, 1, 61, 80
3, 397052, Note_off_c, 1, 61, 100
3, 397056, Note_on_c, 1, 62, 80
3, 397244, Note_off_c, 1, 62, 100
3, 397392, Note_on_c, 1, 51, 80
3, 397436, Note_off_c, 1, 51, 100
3, 397440, Note_on_c, 1, 63, 120
3, 397964, Note_off_c, 1, 63, 100
3, 397968, Note_on_c, 1, 63, 80
3, 398012, Note_off_c, 1, 63, 100
3, 398016, Note_on_c, 1, 62, 80
3, 398156, Note_off_c, 1, 62, 100
3, 398160, Note_on_c, 1, 60, 80
3, 398204, Note_off_c, 1, 60, 100
3, 398208, Note_on_c, 1, 58, 80
3, 398780, Note_off_c, 1, 58, 100
3, 398928, Note_on_c, 1, 51, 80
3, 398972, Note_off_c, 1, 51, 100
3, 398976, Note_on_c, 1, 63, 110
3, 399500, Note_off_c, 1, 63, 100
3, 399504, Note_on_c, 1, 63, 80
3, 399548, Note_off_c, 1, 63, 100
3, 399552, Note_on_c, 1, 62, 80
3, 399692, Note_off_c, 1, 62, 100
3, 399696, Note_on_c, 1, 60, 80
3, 399740, Note_off_c, 1, 60, 100
3, 399744, Note_on_c, 1, 60, 80
3, 399932, Note_off_c, 1, 60, 100
3, 399936, Note_on_c, 1, 59, 80
3, 400316, Note_off_c, 1, 59, 100
3, 400320, Note_on_c, 1, 59, 78
3, 400700, Note_off_c, 1, 59, 100
3, 400704, Note_on_c, 1, 47, 75
3, 401084, Note_off_c, 1, 47, 100
3, 401088, Note_on_c, 1, 47, 72
3, 401468, Note_off_c, 1, 47, 100
3, 401472, Note_on_c, 1, 35, 70
3, 401852, Note_off_c, 1, 35, 100
3, 401952, Note_on_c, 1, 35, 66
3, 402428, Note_off_c, 1, 35, 100
3, 402432, Key_signature, 0, "major"
3, 402432, Note_on_c, 1, 40, 80
3, 402616, Note_off_c, 1, 40, 100
3, 402624, Note_on_c, 1, 52, 81
3, 402808, Note_off_c, 1, 52, 100
3, 402816, Note_on_c, 1, 40, 83
3, 403000, Note_off_c, 1, 40, 100
3, 403008, Note_on_c, 1, 52, 85
3, 403192, Note_off_c, 1, 52, 100
3, 403200, Note_on_c, 1, 40, 87
3, 403384, Note_off_c, 1, 40, 100
3, 403392, Note_on_c, 1, 52, 89
3, 403576, Note_off_c, 1, 52, 100
3, 403584, Note_on_c, 1, 40, 91
3, 403768, Note_off_c, 1, 40, 100
3, 403776, Note_on_c, 1, 52, 93
3, 403960, Note_off_c, 1, 52, 100
3, 403968, Note_on_c, 1, 40, 95
3, 404152, Note_off_c, 1, 40, 100
3, 404160, Note_on_c, 1, 52, 97
3, 404344, Note_off_c, 1, 52, 100
3, 404352, Note_on_c, 1, 40, 99
3, 404536, Note_off_c, 1, 40, 100
3, 404544, Note_on_c, 1, 52, 101
3, 404728, Note_off_c, 1, 52, 100
3, 404736, Note_on_c, 1, 40, 103
3, 404920, Note_off_c, 1, 40, 100
3, 404928, Note_on_c, 1, 52, 105
3, 405112, Note_off_c, 1, 52, 100
3, 405120, Note_on_c, 1, 40, 107
3, 405304, Note_off_c, 1, 40, 100
3, 405312, Note_on_c, 1, 52, 109
3, 405496, Note_off_c, 1, 52, 100
3, 405504, Note_on_c, 1, 52, 120
3, 405504, Note_on_c, 1, 40, 120
3, 405880, Note_off_c, 1, 52, 100
3, 405880, Note_off_c, 1, 40, 100
3, 405888, Note_on_c, 1, 55, 120
3, 405888, Note_on_c, 1, 59, 120
3, 406264, Note_off_c, 1, 55, 100
3, 406264, Note_off_c, 1, 59, 100
3, 406272, Note_on_c, 1, 55, 120
3, 406272, Note_on_c, 1, 59, 120
3, 406648, Note_off_c, 1, 55, 100
3, 406648, Note_off_c, 1, 59, 100
3, 406656, Note_on_c, 1, 55, 120
3, 406656, Note_on_c, 1, 59, 120
3, 407032, Note_off_c, 1, 55, 100
3, 407032, Note_off_c, 1, 59, 100
3, 407040, Note_on_c, 1, 52, 114
3, 407416, Note_off_c, 1, 52, 100
3, 407424, Note_on_c, 1, 55, 80
3, 407424, Note_on_c, 1, 59, 80
3, 407800, Note_off_c, 1, 55, 100
3, 407800, Note_off_c, 1, 59, 100
3, 407808, Note_on_c, 1, 55, 80
3, 407808, Note_on_c, 1, 59, 80
3, 408184, Note_off_c, 1, 55, 100
3, 408184, Note_off_c, 1, 59, 100
3, 408192, Note_on_c, 1, 55, 80
3, 408192, Note_on_c, 1, 59, 80
3, 408568, Note_off_c, 1, 55, 100
3, 408568, Note_off_c, 1, 59, 100
3, 408576, Note_on_c, 1, 52, 80
3, 408952, Note_off_c, 1, 52, 100
3, 408960, Note_on_c, 1, 57, 80
3, 408960, Note_on_c, 1, 60, 80
3, 409336, Note_off_c, 1, 57, 100
3, 409336, Note_off_c, 1, 60, 100
3, 409344, Note_on_c, 1, 57, 80
3, 409344, Note_on_c, 1, 60, 80
3, 409720, Note_off_c, 1, 57, 100
3, 409720, Note_off_c, 1, 60, 100
3, 409728, Note_on_c, 1, 57, 80
3, 409728, Note_on_c, 1, 60, 80
3, 410104, Note_off_c, 1, 57, 100
3, 410104, Note_off_c, 1, 60, 100
3, 410112, Note_on_c, 1, 51, 80
3, 410488, Note_off_c, 1, 51, 100
3, 410496, Note_on_c, 1, 57, 80
3, 410496, Note_on_c, 1, 60, 80
3, 410872, Note_off_c, 1, 57, 100
3, 410872, Note_off_c, 1, 60, 100
3, 410880, Note_on_c, 1, 57, 80
3, 410880, Note_on_c, 1, 60, 80
3, 411256, Note_off_c, 1, 57, 100
3, 411256, Note_off_c, 1, 60, 100
3, 411264, Note_on_c, 1, 57, 80
3, 411264, Note_on_c, 1, 60, 80
3, 411640, Note_off_c, 1, 57, 100
3, 411640, Note_off_c, 1, 60, 100
3, 411648, Note_on_c, 1, 38, 80
3, 411832, Note_off_c, 1, 38, 100
3, 411840, Note_on_c, 1, 50, 82
3, 412024, Note_off_c, 1, 50, 100
3, 412032, Note_on_c, 1, 38, 84
3, 412216, Note_off_c, 1, 38, 100
3, 412224, Note_on_c, 1, 50, 86
3, 412408, Note_off_c, 1, 50, 100
3, 412416, Note_on_c, 1, 38, 88
3, 412600, Note_off_c, 1, 38, 100
3, 412608, Note_on_c, 1, 50, 90
3, 412792, Note_off_c, 1, 50, 100
3, 412800, Note_on_c, 1, 38, 92
3, 412984, Note_off_c, 1, 38, 100
3, 412992, Note_on_c, 1, 50, 94
3, 413176, Note_off_c, 1, 50, 100
3, 413184, Note_on_c, 1, 38, 97
3, 413368, Note_off_c, 1, 38, 100
3, 413376, Note_on_c, 1, 50, 99
3, 413560, Note_off_c, 1, 50, 100
3, 413568, Note_on_c, 1, 38, 101
3, 413752, Note_off_c, 1, 38, 100
3, 413760, Note_on_c, 1, 50, 103
3, 413944, Note_off_c, 1, 50, 100
3, 413952, Note_on_c, 1, 38, 105
3, 414136, Note_off_c, 1, 38, 100
3, 414144, Note_on_c, 1, 50, 107
3, 414328, Note_off_c, 1, 50, 100
3, 414336, Note_on_c, 1, 38, 109
3, 414520, Note_off_c, 1, 38, 100
3, 414528, Note_on_c, 1, 50, 80
3, 414712, Note_off_c, 1, 50, 100
3, 414720, Note_on_c, 1, 50, 120
3, 414720, Note_on_c, 1, 38, 120
3, 415096, Note_off_c, 1, 50, 100
3, 415096, Note_off_c, 1, 38, 100
3, 415104, Note_on_c, 1, 57, 120
3, 415104, Note_on_c, 1, 60, 120
3, 415480, Note_off_c, 1, 57, 100
3, 415480, Note_off_c, 1, 60, 100
3, 415488, Note_on_c, 1, 57, 120
3, 415488, Note_on_c, 1, 60, 120
3, 415864, Note_off_c, 1, 57, 100
3, 415864, Note_off_c, 1, 60, 100
3, 415872, Note_on_c, 1, 57, 120
3, 415872, Note_on_c, 1, 60, 120
3, 416248, Note_off_c, 1, 57, 100
3, 416248, Note_off_c, 1, 60, 100
3, 416256, Note_on_c, 1, 50, 114
3, 416632, Note_off_c, 1, 50, 100
3, 416640, Note_on_c, 1, 57, 80
3, 416640, Note_on_c, 1, 60, 80
3, 417016, Note_off_c, 1, 57, 100
3, 417016, Note_off_c, 1, 60, 100
3, 417024, Note_on_c, 1, 57, 80
3, 417024, Note_on_c, 1, 60, 80
3, 417400, Note_off_c, 1, 57, 100
3, 417400, Note_off_c, 1, 60, 100
3, 417408, Note_on_c, 1, 57, 80
3, 417408, Note_on_c, 1, 60, 80
3, 417784, Note_off_c, 1, 57, 100
3, 417784, Note_off_c, 1, 60, 100
3, 417792, Note_on_c, 1, 50, 80
3, 418168, Note_off_c, 1, 50, 100
3, 418176, Note_on_c, 1, 55, 80
3, 418176, Note_on_c, 1, 58, 80
3, 418552, Note_off_c, 1, 55, 100
3, 418552, Note_off_c, 1, 58, 100
3, 418560, Note_on_c, 1, 55, 80
3, 418560, Note_on_c, 1, 58, 80
3, 418936, Note_off_c, 1, 55, 100
3, 418936, Note_off_c, 1, 58, 100
3, 418944, Note_on_c, 1, 55, 80
3, 418944, Note_on_c, 1, 58, 80
3, 419320, Note_off_c, 1, 55, 100
3, 419320, Note_off_c, 1, 58, 100
3, 419328, Note_on_c, 1, 49, 80
3, 419704, Note_off_c, 1, 49, 100
3, 419712, Note_on_c, 1, 55, 80
3, 419712, Note_on_c, 1, 58, 80
3, 420088, Note_off_c, 1, 55, 100
3, 420088, Note_off_c, 1, 58, 100
3, 420096, Note_on_c, 1, 55, 80
3, 420096, Note_on_c, 1, 58, 80
3, 420472, Note_off_c, 1, 55, 100
3, 420472, Note_off_c, 1, 58, 100
3, 420480, Note_on_c, 1, 55, 80
3, 420480, Note_on_c, 1, 58, 80
3, 420856, Note_off_c, 1, 55, 100
3, 420856, Note_off_c, 1, 58, 100
3, 420864, Note_on_c, 1, 48, 80
3, 420864, Note_on_c, 1, 36, 80
3, 421240, Note_off_c, 1, 48, 100
3, 421240, Note_off_c, 1, 36, 100
3, 421248, Note_on_c, 1, 49, 80
3, 421624, Note_off_c, 1, 49, 100
3, 421632, Note_on_c, 1, 48, 80
3, 422008, Note_off_c, 1, 48, 100
3, 422016, Note_on_c, 1, 53, 80
3, 422392, Note_off_c, 1, 53, 100
3, 422400, Note_on_c, 1, 52, 80
3, 422776, Note_off_c, 1, 52, 100
3, 422784, Note_on_c, 1, 61, 80
3, 423160, Note_off_c, 1, 61, 100
3, 423168, Note_on_c, 1, 60, 80
3, 423544, Note_off_c, 1, 60, 100
3, 423552, Note_on_c, 1, 65, 80
3, 423928, Note_off_c, 1, 65, 100
3, 423936, Note_on_c, 1, 64, 80
3, 424312, Note_off_c, 1, 64, 100
3, 424320, Note_on_c, 1, 66, 80
3, 424696, Note_off_c, 1, 66, 100
3, 424704, Note_on_c, 1, 67, 80
3, 425080, Note_off_c, 1, 67, 100
3, 427392, Note_on_c, 1, 42, 80
3, 427768, Note_off_c, 1, 42, 100
3, 427776, Note_on_c, 1, 41, 80
3, 428152, Note_off_c, 1, 41, 100
3, 428160, Note_on_c, 1, 49, 80
3, 428536, Note_off_c, 1, 49, 100
3, 428544, Note_on_c, 1, 48, 80
3, 428920, Note_off_c, 1, 48, 100
3, 428928, Note_on_c, 1, 54, 80
3, 429304, Note_off_c, 1, 54, 100
3, 429312, Note_on_c, 1, 53, 80
3, 429688, Note_off_c, 1, 53, 100
3, 429696, Note_on_c, 1, 61, 80
3, 430072, Note_off_c, 1, 61, 100
3, 430080, Note_on_c, 1, 60, 80
3, 430456, Note_off_c, 1, 60, 100
3, 430464, Note_on_c, 1, 64, 80
3, 430840, Note_off_c, 1, 64, 100
3, 430848, Note_on_c, 1, 65, 80
3, 431224, Note_off_c, 1, 65, 100
3, 433536, Note_on_c, 1, 48, 80
3, 433912, Note_off_c, 1, 48, 100
3, 433920, Note_on_c, 1, 47, 80
3, 434296, Note_off_c, 1, 47, 100
3, 434304, Note_on_c, 1, 50, 80
3, 434680, Note_off_c, 1, 50, 100
3, 434688, Note_on_c, 1, 53, 80
3, 435064, Note_off_c, 1, 53, 100
3, 435072, Note_on_c, 1, 60, 80
3, 435448, Note_off_c, 1, 60, 100
3, 435456, Note_on_c, 1, 59, 80
3, 435832, Note_off_c, 1, 59, 100
3, 435840, Note_on_c, 1, 62, 80
3, 436216, Note_off_c, 1, 62, 100
3, 436224, Note_on_c, 1, 65, 80
3, 436600, Note_off_c, 1, 65, 100
3, 436992, Note_on_c, 1, 62, 80
3, 437368, Note_off_c, 1, 62, 100
3, 437760, Note_on_c, 1, 59, 80
3, 438136, Note_off_c, 1, 59, 100
3, 438528, Note_on_c, 1, 55, 80
3, 438904, Note_off_c, 1, 55, 100
3, 439296, Note_on_c, 1, 61, 80
3, 439296, Note_on_c, 1, 49, 80
3, 439672, Note_off_c, 1, 61, 100
3, 439672, Note_off_c, 1, 49, 100
3, 440064, Note_on_c, 1, 58, 80
3, 440064, Note_on_c, 1, 46, 80
3, 440440, Note_off_c, 1, 58, 100
3, 440440, Note_off_c, 1, 46, 100
3, 440832, Note_on_c, 1, 55, 80
3, 440832, Note_on_c, 1, 43, 80
3, 441208, Note_off_c, 1, 55, 100
3, 441208, Note_off_c, 1, 43, 100
3, 441600, Note_on_c, 1, 52, 80
3, 441600, Note_on_c, 1, 40, 80
3, 441976, Note_off_c, 1, 52, 100
3, 441976, Note_off_c, 1, 40, 100
3, 442368, Note_on_c, 1, 53, 80
3, 442368, Note_on_c, 1, 41, 80
3, 442744, Note_off_c, 1, 53, 100
3, 442744, Note_off_c, 1, 41, 100
3, 443904, Note_on_c, 1, 41, 80
3, 443904, Note_on_c, 1, 29, 80
3, 444280, Note_off_c, 1, 41, 100
3, 444280, Note_off_c, 1, 29, 100
3, 445440, Note_on_c, 1, 42, 80
3, 445440, Note_on_c, 1, 30, 80
3, 445816, Note_off_c, 1, 42, 100
3, 445816, Note_off_c, 1, 30, 100
3, 446976, Note_on_c, 1, 42, 80
3, 446976, Note_on_c, 1, 30, 80
3, 447352, Note_off_c, 1, 42, 100
3, 447352, Note_off_c, 1, 30, 100
3, 448512, Note_on_c, 1, 31, 80
3, 448696, Note_off_c, 1, 31, 100
3, 448704, Note_on_c, 1, 43, 80
3, 448888, Note_off_c, 1, 43, 100
3, 448896, Note_on_c, 1, 31, 80
3, 449080, Note_off_c, 1, 31, 100
3, 449088, Note_on_c, 1, 43, 80
3, 449272, Note_off_c, 1, 43, 100
3, 449280, Note_on_c, 1, 31, 70
3, 449464, Note_off_c, 1, 31, 100
3, 449472, Note_on_c, 1, 43, 70
3, 449656, Note_off_c, 1, 43, 100
3, 449664, Note_on_c, 1, 31, 70
3, 449848, Note_off_c, 1, 31, 100
3, 449856, Note_on_c, 1, 43, 70
3, 450040, Note_off_c, 1, 43, 100
3, 450048, Note_on_c, 1, 31, 70
3, 450232, Note_off_c, 1, 31, 100
3, 450240, Note_on_c, 1, 43, 70
3, 450424, Note_off_c, 1, 43, 100
3, 450432, Note_on_c, 1, 31, 70
3, 450616, Note_off_c, 1, 31, 100
3, 450624, Note_on_c, 1, 43, 70
3, 450808, Note_off_c, 1, 43, 100
3, 450816, Note_on_c, 1, 31, 70
3, 451000, Note_off_c, 1, 31, 100
3, 451008, Note_on_c, 1, 43, 70
3, 451192, Note_off_c, 1, 43, 100
3, 451200, Note_on_c, 1, 31, 70
3, 451384, Note_off_c, 1, 31, 100
3, 451392, Note_on_c, 1, 43, 70
3, 451576, Note_off_c, 1, 43, 100
3, 451584, Note_on_c, 1, 31, 70
3, 451768, Note_off_c, 1, 31, 100
3, 451776, Note_on_c, 1, 43, 70
3, 451960, Note_off_c, 1, 43, 100
3, 451968, Note_on_c, 1, 31, 70
3, 452152, Note_off_c, 1, 31, 100
3, 452160, Note_on_c, 1, 43, 70
3, 452344, Note_off_c, 1, 43, 100
3, 452352, Note_on_c, 1, 31, 70
3, 452536, Note_off_c, 1, 31, 100
3, 452544, Note_on_c, 1, 43, 70
3, 452728, Note_off_c, 1, 43, 100
3, 452736, Note_on_c, 1, 31, 70
3, 452920, Note_off_c, 1, 31, 100
3, 452928, Note_on_c, 1, 43, 70
3, 453112, Note_off_c, 1, 43, 100
3, 453120, Note_on_c, 1, 31, 70
3, 453304, Note_off_c, 1, 31, 100
3, 453312, Note_on_c, 1, 43, 70
3, 453496, Note_off_c, 1, 43, 100
3, 453504, Note_on_c, 1, 31, 70
3, 453688, Note_off_c, 1, 31, 100
3, 453696, Note_on_c, 1, 43, 70
3, 453880, Note_off_c, 1, 43, 100
3, 453888, Note_on_c, 1, 31, 70
3, 454072, Note_off_c, 1, 31, 100
3, 454080, Note_on_c, 1, 43, 70
3, 454264, Note_off_c, 1, 43, 100
3, 454272, Note_on_c, 1, 31, 70
3, 454456, Note_off_c, 1, 31, 100
3, 454464, Note_on_c, 1, 43, 70
3, 454648, Note_off_c, 1, 43, 100
3, 454656, Note_on_c, 1, 31, 80
3, 454840, Note_off_c, 1, 31, 100
3, 454848, Note_on_c, 1, 43, 81
3, 455032, Note_off_c, 1, 43, 100
3, 455040, Note_on_c, 1, 31, 83
3, 455224, Note_off_c, 1, 31, 100
3, 455232, Note_on_c, 1, 43, 85
3, 455416, Note_off_c, 1, 43, 100
3, 455424, Note_on_c, 1, 31, 87
3, 455608, Note_off_c, 1, 31, 100
3, 455616, Note_on_c, 1, 43, 89
3, 455800, Note_off_c, 1, 43, 100
3, 455808, Note_on_c, 1, 31, 91
3, 455992, Note_off_c, 1, 31, 100
3, 456000, Note_on_c, 1, 43, 93
3, 456184, Note_off_c, 1, 43, 100
3, 456192, Note_on_c, 1, 31, 95
3, 456376, Note_off_c, 1, 31, 100
3, 456384, Note_on_c, 1, 43, 97
3, 456568, Note_off_c, 1, 43, 100
3, 456576, Note_on_c, 1, 31, 99
3, 456760, Note_off_c, 1, 31, 100
3, 456768, Note_on_c, 1, 43, 101
3, 456952, Note_off_c, 1, 43, 100
3, 456960, Note_on_c, 1, 31, 103
3, 457144, Note_off_c, 1, 31, 100
3, 457152, Note_on_c, 1, 43, 105
3, 457336, Note_off_c, 1, 43, 100
3, 457344, Note_on_c, 1, 31, 107
3, 457528, Note_off_c, 1, 31, 100
3, 457536, Note_on_c, 1, 43, 109
3, 457720, Note_off_c, 1, 43, 100
3, 457728, Note_on_c, 1, 31, 120
3, 458112, Note_on_c, 1, 43, 120
3, 458488, Note_off_c, 1, 31, 100
3, 458496, Note_on_c, 1, 35, 120
3, 458872, Note_off_c, 1, 43, 100
3, 458880, Note_on_c, 1, 43, 120
3, 459256, Note_off_c, 1, 35, 100
3, 459264, Note_on_c, 1, 36, 120
3, 459640, Note_off_c, 1, 43, 100
3, 459648, Note_on_c, 1, 43, 120
3, 460024, Note_off_c, 1, 36, 100
3, 460032, Note_on_c, 1, 30, 120
3, 460408, Note_off_c, 1, 43, 100
3, 460416, Note_on_c, 1, 43, 120
3, 460792, Note_off_c, 1, 30, 100
3, 460792, Note_off_c, 1, 43, 100
3, 460800, Note_on_c, 1, 31, 120
3, 460984, Note_off_c, 1, 31, 100
3, 460992, Note_on_c, 1, 43, 100
3, 461176, Note_off_c, 1, 43, 100
3, 461184, Note_on_c, 1, 31, 100
3, 461368, Note_off_c, 1, 31, 100
3, 461376, Note_on_c, 1, 43, 100
3, 461560, Note_off_c, 1, 43, 100
3, 461568, Note_on_c, 1, 31, 70
3, 461752, Note_off_c, 1, 31, 100
3, 461760, Note_on_c, 1, 43, 70
3, 461944, Note_off_c, 1, 43, 100
3, 461952, Note_on_c, 1, 31, 70
3, 462136, Note_off_c, 1, 31, 100
3, 462144, Note_on_c, 1, 43, 70
3, 462328, Note_off_c, 1, 43, 100
3, 462336, Note_on_c, 1, 31, 70
3, 462520, Note_off_c, 1, 31, 100
3, 462528, Note_on_c, 1, 43, 70
3, 462712, Note_off_c, 1, 43, 100
3, 462720, Note_on_c, 1, 31, 70
3, 462904, Note_off_c, 1, 31, 100
3, 462912, Note_on_c, 1, 43, 70
3, 463096, Note_off_c, 1, 43, 100
3, 463104, Note_on_c, 1, 31, 70
3, 463288, Note_off_c, 1, 31, 100
3, 463296, Note_on_c, 1, 43, 70
3, 463480, Note_off_c, 1, 43, 100
3, 463488, Note_on_c, 1, 31, 70
3, 463672, Note_off_c, 1, 31, 100
3, 463680, Note_on_c, 1, 43, 70
3, 463864, Note_off_c, 1, 43, 100
3, 463872, Note_on_c, 1, 31, 70
3, 464056, Note_off_c, 1, 31, 100
3, 464064, Note_on_c, 1, 43, 70
3, 464248, Note_off_c, 1, 43, 100
3, 464256, Note_on_c, 1, 31, 70
3, 464440, Note_off_c, 1, 31, 100
3, 464448, Note_on_c, 1, 43, 70
3, 464632, Note_off_c, 1, 43, 100
3, 464640, Note_on_c, 1, 31, 70
3, 464824, Note_off_c, 1, 31, 100
3, 464832, Note_on_c, 1, 43, 70
3, 465016, Note_off_c, 1, 43, 100
3, 465024, Note_on_c, 1, 31, 70
3, 465208, Note_off_c, 1, 31, 100
3, 465216, Note_on_c, 1, 43, 70
3, 465400, Note_off_c, 1, 43, 100
3, 465408, Note_on_c, 1, 31, 70
3, 465592, Note_off_c, 1, 31, 100
3, 465600, Note_on_c, 1, 43, 70
3, 465784, Note_off_c, 1, 43, 100
3, 465792, Note_on_c, 1, 31, 70
3, 465976, Note_off_c, 1, 31, 100
3, 465984, Note_on_c, 1, 43, 70
3, 466168, Note_off_c, 1, 43, 100
3, 466176, Note_on_c, 1, 31, 70
3, 466360, Note_off_c, 1, 31, 100
3, 466368, Note_on_c, 1, 43, 70
3, 466552, Note_off_c, 1, 43, 100
3, 466560, Note_on_c, 1, 31, 70
3, 466744, Note_off_c, 1, 31, 100
3, 466752, Note_on_c, 1, 43, 70
3, 466936, Note_off_c, 1, 43, 100
3, 466944, Note_on_c, 1, 31, 80
3, 467128, Note_off_c, 1, 31, 100
3, 467136, Note_on_c, 1, 43, 81
3, 467320, Note_off_c, 1, 43, 100
3, 467328, Note_on_c, 1, 31, 83
3, 467512, Note_off_c, 1, 31, 100
3, 467520, Note_on_c, 1, 43, 85
3, 467704, Note_off_c, 1, 43, 100
3, 467712, Note_on_c, 1, 31, 87
3, 467896, Note_off_c, 1, 31, 100
3, 467904, Note_on_c, 1, 43, 89
3, 468088, Note_off_c, 1, 43, 100
3, 468096, Note_on_c, 1, 31, 91
3, 468280, Note_off_c, 1, 31, 100
3, 468288, Note_on_c, 1, 43, 93
3, 468472, Note_off_c, 1, 43, 100
3, 468480, Note_on_c, 1, 31, 95
3, 468664, Note_off_c, 1, 31, 100
3, 468672, Note_on_c, 1, 43, 97
3, 468856, Note_off_c, 1, 43, 100
3, 468864, Note_on_c, 1, 31, 99
3, 469048, Note_off_c, 1, 31, 100
3, 469056, Note_on_c, 1, 43, 101
3, 469240, Note_off_c, 1, 43, 100
3, 469248, Note_on_c, 1, 31, 103
3, 469432, Note_off_c, 1, 31, 100
3, 469440, Note_on_c, 1, 43, 105
3, 469624, Note_off_c, 1, 43, 100
3, 469632, Note_on_c, 1, 31, 107
3, 469816, Note_off_c, 1, 31, 100
3, 469824, Note_on_c, 1, 43, 109
3, 470008, Note_off_c, 1, 43, 100
3, 470016, Note_on_c, 1, 31, 120
3, 470400, Note_on_c, 1, 43, 120
3, 470776, Note_off_c, 1, 31, 100
3, 470784, Note_on_c, 1, 35, 120
3, 471160, Note_off_c, 1, 43, 100
3, 471168, Note_on_c, 1, 43, 120
3, 471544, Note_off_c, 1, 35, 100
3, 471552, Note_on_c, 1, 36, 120
3, 471928, Note_off_c, 1, 43, 100
3, 471936, Note_on_c, 1, 43, 120
3, 472312, Note_off_c, 1, 36, 100
3, 472320, Note_on_c, 1, 30, 120
3, 472696, Note_off_c, 1, 43, 100
3, 472704, Note_on_c, 1, 43, 120
3, 473080, Note_off_c, 1, 30, 100
3, 473088, Note_on_c, 1, 31, 120
3, 473464, Note_off_c, 1, 43, 100
3, 473472, Note_on_c, 1, 43, 120
3, 473848, Note_off_c, 1, 31, 100
3, 473856, Note_on_c, 1, 35, 120
3, 474232, Note_off_c, 1, 43, 100
3, 474240, Note_on_c, 1, 43, 120
3, 474616, Note_off_c, 1, 35, 100
3, 474624, Note_on_c, 1, 36, 120
3, 475000, Note_off_c, 1, 43, 100
3, 475008, Note_on_c, 1, 43, 120
3, 475384, Note_off_c, 1, 36, 100
3, 475392, Note_on_c, 1, 30, 120
3, 475768, Note_off_c, 1, 43, 100
3, 475776, Note_on_c, 1, 43, 120
3, 476152, Note_off_c, 1, 30, 100
3, 476160, Note_on_c, 1, 31, 120
3, 476536, Note_off_c, 1, 43, 100
3, 476544, Note_on_c, 1, 43, 120
3, 476920, Note_off_c, 1, 31, 100
3, 476928, Note_on_c, 1, 35, 120
3, 477304, Note_off_c, 1, 43, 100
3, 477312, Note_on_c, 1, 43, 120
3, 477688, Note_off_c, 1, 35, 100
3, 477696, Note_on_c, 1, 36, 120
3, 478072, Note_off_c, 1, 43, 100
3, 478080, Note_on_c, 1, 43, 120
3, 478456, Note_off_c, 1, 36, 100
3, 478464, Note_on_c, 1, 30, 120
3, 478840, Note_off_c, 1, 43, 100
3, 478848, Note_on_c, 1, 43, 120
3, 479224, Note_off_c, 1, 30, 100
3, 479224, Note_off_c, 1, 43, 100
3, 479232, Note_on_c, 1, 43, 120
3, 479232, Note_on_c, 1, 31, 120
3, 479608, Note_off_c, 1, 43, 100
3, 479608, Note_off_c, 1, 31, 100
3, 490752, Note_on_c, 1, 43, 80
3, 490936, Note_off_c, 1, 43, 100
3, 490944, Note_on_c, 1, 41, 80
3, 491128, Note_off_c, 1, 41, 100
3, 491136, Note_on_c, 1, 39, 80
3, 491320, Note_off_c, 1, 39, 100
3, 491328, Note_on_c, 1, 38, 80
3, 491512, Note_off_c, 1, 38, 100
3, 491520, Key_signature, -3, "minor"
3, 491520, Note_on_c, 1, 36, 80
3, 491704, Note_off_c, 1, 36, 100
3, 491712, Note_on_c, 1, 48, 80
3, 491896, Note_off_c, 1, 48, 100
3, 491904, Note_on_c, 1, 36, 80
3, 492088, Note_off_c, 1, 36, 100
3, 492096, Note_on_c, 1, 48, 80
3, 492280, Note_off_c, 1, 48, 100
3, 492288, Note_on_c, 1, 36, 80
3, 492472, Note_off_c, 1, 36, 100
3, 492480, Note_on_c, 1, 48, 80
3, 492664, Note_off_c, 1, 48, 100
3, 492672, Note_on_c, 1, 36, 80
3, 492856, Note_off_c, 1, 36, 100
3, 492864, Note_on_c, 1, 48, 80
3, 493048, Note_off_c, 1, 48, 100
3, 493056, Note_on_c, 1, 36, 80
3, 493240, Note_off_c, 1, 36, 100
3, 493248, Note_on_c, 1, 48, 80
3, 493432, Note_off_c, 1, 48, 100
3, 493440, Note_on_c, 1, 36, 80
3, 493624, Note_off_c, 1, 36, 100
3, 493632, Note_on_c, 1, 48, 80
3, 493816, Note_off_c, 1, 48, 100
3, 493824, Note_on_c, 1, 36, 80
3, 494008, Note_off_c, 1, 36, 100
3, 494016, Note_on_c, 1, 48, 80
3, 494200, Note_off_c, 1, 48, 100
3, 494208, Note_on_c, 1, 36, 80
3, 494392, Note_off_c, 1, 36, 100
3, 494400, Note_on_c, 1, 48, 80
3, 494584, Note_off_c, 1, 48, 100
3, 494592, Note_on_c, 1, 36, 80
3, 494776, Note_off_c, 1, 36, 100
3, 494784, Note_on_c, 1, 48, 80
3, 494968, Note_off_c, 1, 48, 100
3, 494976, Note_on_c, 1, 36, 80
3, 495160, Note_off_c, 1, 36, 100
3, 495168, Note_on_c, 1, 48, 80
3, 495352, Note_off_c, 1, 48, 100
3, 495360, Note_on_c, 1, 36, 80
3, 495544, Note_off_c, 1, 36, 100
3, 495552, Note_on_c, 1, 48, 80
3, 495736, Note_off_c, 1, 48, 100
3, 495744, Note_on_c, 1, 36, 80
3, 495928, Note_off_c, 1, 36, 100
3, 495936, Note_on_c, 1, 48, 80
3, 496120, Note_off_c, 1, 48, 100
3, 496128, Note_on_c, 1, 36, 80
3, 496312, Note_off_c, 1, 36, 100
3, 496320, Note_on_c, 1, 48, 80
3, 496504, Note_off_c, 1, 48, 100
3, 496512, Note_on_c, 1, 36, 80
3, 496696, Note_off_c, 1, 36, 100
3, 496704, Note_on_c, 1, 48, 80
3, 496888, Note_off_c, 1, 48, 100
3, 496896, Note_on_c, 1, 36, 80
3, 497080, Note_off_c, 1, 36, 100
3, 497088, Note_on_c, 1, 48, 80
3, 497272, Note_off_c, 1, 48, 100
3, 497280, Note_on_c, 1, 36, 80
3, 497464, Note_off_c, 1, 36, 100
3, 497472, Note_on_c, 1, 48, 80
3, 497656, Note_off_c, 1, 48, 100
3, 497664, Note_on_c, 1, 36, 80
3, 497848, Note_off_c, 1, 36, 100
3, 497856, Note_on_c, 1, 48, 81
3, 498040, Note_off_c, 1, 48, 100
3, 498048, Note_on_c, 1, 36, 82
3, 498232, Note_off_c, 1, 36, 100
3, 498240, Note_on_c, 1, 48, 84
3, 498424, Note_off_c, 1, 48, 100
3, 498432, Note_on_c, 1, 38, 85
3, 498616, Note_off_c, 1, 38, 100
3, 498624, Note_on_c, 1, 50, 86
3, 498808, Note_off_c, 1, 50, 100
3, 498816, Note_on_c, 1, 38, 88
3, 499000, Note_off_c, 1, 38, 100
3, 499008, Note_on_c, 1, 50, 89
3, 499192, Note_off_c, 1, 50, 100
3, 499200, Note_on_c, 1, 39, 90
3, 499384, Note_off_c, 1, 39, 100
3, 499392, Note_on_c, 1, 51, 92
3, 499576, Note_off_c, 1, 51, 100
3, 499584, Note_on_c, 1, 39, 93
3, 499768, Note_off_c, 1, 39, 100
3, 499776, Note_on_c, 1, 51, 94
3, 499960, Note_off_c, 1, 51, 100
3, 499968, Note_on_c, 1, 41, 96
3, 500152, Note_off_c, 1, 41, 100
3, 500160, Note_on_c, 1, 53, 97
3, 500344, Note_off_c, 1, 53, 100
3, 500352, Note_on_c, 1, 41, 99
3, 500536, Note_off_c, 1, 41, 100
3, 500544, Note_on_c, 1, 53, 100
3, 500728, Note_off_c, 1, 53, 100
3, 500736, Note_on_c, 1, 43, 101
3, 500920, Note_off_c, 1, 43, 100
3, 500928, Note_on_c, 1, 55, 103
3, 501112, Note_off_c, 1, 55, 100
3, 501120, Note_on_c, 1, 43, 104
3, 501304, Note_off_c, 1, 43, 100
3, 501312, Note_on_c, 1, 55, 105
3, 501496, Note_off_c, 1, 55, 100
3, 501504, Note_on_c, 1, 44, 107
3, 501688, Note_off_c, 1, 44, 100
3, 501696, Note_on_c, 1, 56, 108
3, 501880, Note_off_c, 1, 56, 100
3, 501888, Note_on_c, 1, 44, 109
3, 502072, Note_off_c, 1, 44, 100
3, 502080, Note_on_c, 1, 56, 111
3, 502264, Note_off_c, 1, 56, 100
3, 502272, Note_on_c, 1, 42, 110
3, 502456, Note_off_c, 1, 42, 100
3, 502464, Note_on_c, 1, 54, 110
3, 502648, Note_off_c, 1, 54, 100
3, 502656, Note_on_c, 1, 42, 110
3, 502840, Note_off_c, 1, 42, 100
3, 502848, Note_on_c, 1, 54, 110
3, 503032, Note_off_c, 1, 54, 100
3, 503040, Note_on_c, 1, 43, 110
3, 503224, Note_off_c, 1, 43, 100
3, 503232, Note_on_c, 1, 55, 110
3, 503416, Note_off_c, 1, 55, 100
3, 503424, Note_on_c, 1, 43, 110
3, 503608, Note_off_c, 1, 43, 100
3, 503616, Note_on_c, 1, 55, 110
3, 503800, Note_off_c, 1, 55, 100
3, 503808, Note_on_c, 1, 36, 80
3, 503992, Note_off_c, 1, 36, 100
3, 504000, Note_on_c, 1, 48, 80
3, 504184, Note_off_c, 1, 48, 100
3, 504192, Note_on_c, 1, 36, 80
3, 504376, Note_off_c, 1, 36, 100
3, 504384, Note_on_c, 1, 48, 80
3, 504568, Note_off_c, 1, 48, 100
3, 504576, Note_on_c, 1, 36, 80
3, 504760, Note_off_c, 1, 36, 100
3, 504768, Note_on_c, 1, 48, 80
3, 504952, Note_off_c, 1, 48, 100
3, 504960, Note_on_c, 1, 36, 80
3, 505144, Note_off_c, 1, 36, 100
3, 505152, Note_on_c, 1, 48, 80
3, 505336, Note_off_c, 1, 48, 100
3, 505344, Note_on_c, 1, 36, 80
3, 505528, Note_off_c, 1, 36, 100
3, 505536, Note_on_c, 1, 48, 80
3, 505720, Note_off_c, 1, 48, 100
3, 505728, Note_on_c, 1, 36, 80
3, 505912, Note_off_c, 1, 36, 100
3, 505920, Note_on_c, 1, 48, 80
3, 506104, Note_off_c, 1, 48, 100
3, 506112, Note_on_c, 1, 36, 80
3, 506296, Note_off_c, 1, 36, 100
3, 506304, Note_on_c, 1, 48, 80
3, 506488, Note_off_c, 1, 48, 100
3, 506496, Note_on_c, 1, 36, 80
3, 506680, Note_off_c, 1, 36, 100
3, 506688, Note_on_c, 1, 48, 80
3, 506872, Note_off_c, 1, 48, 100
3, 506880, Note_on_c, 1, 36, 80
3, 507064, Note_off_c, 1, 36, 100
3, 507072, Note_on_c, 1, 48, 80
3, 507256, Note_off_c, 1, 48, 100
3, 507264, Note_on_c, 1, 36, 80
3, 507448, Note_off_c, 1, 36, 100
3, 507456, Note_on_c, 1, 48, 80
3, 507640, Note_off_c, 1, 48, 100
3, 507648, Note_on_c, 1, 36, 80
3, 507832, Note_off_c, 1, 36, 100
3, 507840, Note_on_c, 1, 48, 80
3, 508024, Note_off_c, 1, 48, 100
3, 508032, Note_on_c, 1, 36, 80
3, 508216, Note_off_c, 1, 36, 100
3, 508224, Note_on_c, 1, 48, 80
3, 508408, Note_off_c, 1, 48, 100
3, 508416, Note_on_c, 1, 36, 80
3, 508600, Note_off_c, 1, 36, 100
3, 508608, Note_on_c, 1, 48, 80
3, 508792, Note_off_c, 1, 48, 100
3, 508800, Note_on_c, 1, 36, 80
3, 508984, Note_off_c, 1, 36, 100
3, 508992, Note_on_c, 1, 48, 80
3, 509176, Note_off_c, 1, 48, 100
3, 509184, Note_on_c, 1, 36, 80
3, 509368, Note_off_c, 1, 36, 100
3, 509376, Note_on_c, 1, 48, 80
3, 509560, Note_off_c, 1, 48, 100
3, 509568, Note_on_c, 1, 36, 80
3, 509752, Note_off_c, 1, 36, 100
3, 509760, Note_on_c, 1, 48, 80
3, 509944, Note_off_c, 1, 48, 100
3, 509952, Note_on_c, 1, 36, 80
3, 510136, Note_off_c, 1, 36, 100
3, 510144, Note_on_c, 1, 48, 80
3, 510328, Note_off_c, 1, 48, 100
3, 510336, Note_on_c, 1, 36, 81
3, 510520, Note_off_c, 1, 36, 100
3, 510528, Note_on_c, 1, 48, 82
3, 510712, Note_off_c, 1, 48, 100
3, 510720, Note_on_c, 1, 36, 83
3, 510904, Note_off_c, 1, 36, 100
3, 510912, Note_on_c, 1, 48, 84
3, 511096, Note_off_c, 1, 48, 100
3, 511104, Note_on_c, 1, 36, 85
3, 511288, Note_off_c, 1, 36, 100
3, 511296, Note_on_c, 1, 48, 86
3, 511480, Note_off_c, 1, 48, 100
3, 511488, Note_on_c, 1, 37, 87
3, 511672, Note_off_c, 1, 37, 100
3, 511680, Note_on_c, 1, 49, 88
3, 511864, Note_off_c, 1, 49, 100
3, 511872, Note_on_c, 1, 37, 89
3, 512056, Note_off_c, 1, 37, 100
3, 512064, Note_on_c, 1, 49, 90
3, 512248, Note_off_c, 1, 49, 100
3, 512256, Note_on_c, 1, 39, 91
3, 512440, Note_off_c, 1, 39, 100
3, 512448, Note_on_c, 1, 51, 92
3, 512632, Note_off_c, 1, 51, 100
3, 512640, Note_on_c, 1, 39, 93
3, 512824, Note_off_c, 1, 39, 100
3, 512832, Note_on_c, 1, 51, 94
3, 513016, Note_off_c, 1, 51, 100
3, 513024, Note_on_c, 1, 41, 95
3, 513208, Note_off_c, 1, 41, 100
3, 513216, Note_on_c, 1, 53, 96
3, 513400, Note_off_c, 1, 53, 100
3, 513408, Note_on_c, 1, 41, 97
3, 513592, Note_off_c, 1, 41, 100
3, 513600, Note_on_c, 1, 53, 98
3, 513784, Note_off_c, 1, 53, 100
3, 513792, Note_on_c, 1, 42, 99
3, 513976, Note_off_c, 1, 42, 100
3, 513984, Note_on_c, 1, 54, 100
3, 514168, Note_off_c, 1, 54, 100
3, 514176, Note_on_c, 1, 42, 101
3, 514360, Note_off_c, 1, 42, 100
3, 514368, Note_on_c, 1, 54, 102
3, 514552, Note_off_c, 1, 54, 100
3, 514560, Note_on_c, 1, 44, 103
3, 514744, Note_off_c, 1, 44, 100
3, 514752, Note_on_c, 1, 56, 104
3, 514936, Note_off_c, 1, 56, 100
3, 514944, Note_on_c, 1, 44, 105
3, 515128, Note_off_c, 1, 44, 100
3, 515136, Note_on_c, 1, 56, 106
3, 515320, Note_off_c, 1, 56, 100
3, 515328, Note_on_c, 1, 44, 107
3, 515512, Note_off_c, 1, 44, 100
3, 515520, Note_on_c, 1, 56, 108
3, 515704, Note_off_c, 1, 56, 100
3, 515712, Note_on_c, 1, 44, 108
3, 515896, Note_off_c, 1, 44, 100
3, 515904, Note_on_c, 1, 56, 109
3, 516088, Note_off_c, 1, 56, 100
3, 516096, Note_on_c, 1, 44, 80
3, 516280, Note_off_c, 1, 44, 100
3, 516288, Note_on_c, 1, 56, 80
3, 516472, Note_off_c, 1, 56, 100
3, 516480, Note_on_c, 1, 44, 81
3, 516664, Note_off_c, 1, 44, 100
3, 516672, Note_on_c, 1, 56, 82
3, 516856, Note_off_c, 1, 56, 100
3, 516864, Note_on_c, 1, 38, 83
3, 517048, Note_off_c, 1, 38, 100
3, 517056, Note_on_c, 1, 50, 84
3, 517240, Note_off_c, 1, 50, 100
3, 517248, Note_on_c, 1, 38, 85
3, 517432, Note_off_c, 1, 38, 100
3, 517440, Note_on_c, 1, 50, 86
3, 517624, Note_off_c, 1, 50, 100
3, 517632, Note_on_c, 1, 39, 87
3, 517816, Note_off_c, 1, 39, 100
3, 517824, Note_on_c, 1, 51, 88
3, 518008, Note_off_c, 1, 51, 100
3, 518016, Note_on_c, 1, 39, 89
3, 518200, Note_off_c, 1, 39, 100
3, 518208, Note_on_c, 1, 51, 90
3, 518392, Note_off_c, 1, 51, 100
3, 518400, Note_on_c, 1, 41, 91
3, 518584, Note_off_c, 1, 41, 100
3, 518592, Note_on_c, 1, 53, 92
3, 518776, Note_off_c, 1, 53, 100
3, 518784, Note_on_c, 1, 41, 93
3, 518968, Note_off_c, 1, 41, 100
3, 518976, Note_on_c, 1, 53, 94
3, 519160, Note_off_c, 1, 53, 100
3, 519168, Note_on_c, 1, 42, 95
3, 519352, Note_off_c, 1, 42, 100
3, 519360, Note_on_c, 1, 54, 96
3, 519544, Note_off_c, 1, 54, 100
3, 519552, Note_on_c, 1, 42, 97
3, 519736, Note_off_c, 1, 42, 100
3, 519744, Note_on_c, 1, 54, 98
3, 519928, Note_off_c, 1, 54, 100
3, 519936, Note_on_c, 1, 44, 99
3, 520120, Note_off_c, 1, 44, 100
3, 520128, Note_on_c, 1, 56, 100
3, 520312, Note_off_c, 1, 56, 100
3, 520320, Note_on_c, 1, 44, 101
3, 520504, Note_off_c, 1, 44, 100
3, 520512, Note_on_c, 1, 56, 102
3, 520696, Note_off_c, 1, 56, 100
3, 520704, Note_on_c, 1, 46, 103
3, 520888, Note_off_c, 1, 46, 100
3, 520896, Note_on_c, 1, 58, 104
3, 521080, Note_off_c, 1, 58, 100
3, 521088, Note_on_c, 1, 46, 105
3, 521272, Note_off_c, 1, 46, 100
3, 521280, Note_on_c, 1, 58, 106
3, 521464, Note_off_c, 1, 58, 100
3, 521472, Note_on_c, 1, 46, 107
3, 521656, Note_off_c, 1, 46, 100
3, 521664, Note_on_c, 1, 58, 108
3, 521848, Note_off_c, 1, 58, 100
3, 521856, Note_on_c, 1, 46, 108
3, 522040, Note_off_c, 1, 46, 100
3, 522048, Note_on_c, 1, 58, 109
3, 522232, Note_off_c, 1, 58, 100
3, 522240, Note_on_c, 1, 46, 90
3, 522424, Note_off_c, 1, 46, 100
3, 522432, Note_on_c, 1, 58, 90
3, 522616, Note_off_c, 1, 58, 100
3, 522624, Note_on_c, 1, 46, 91
3, 522808, Note_off_c, 1, 46, 100
3, 522816, Note_on_c, 1, 58, 92
3, 523000, Note_off_c, 1, 58, 100
3, 523008, Note_on_c, 1, 40, 93
3, 523192, Note_off_c, 1, 40, 100
3, 523200, Note_on_c, 1, 52, 94
3, 523384, Note_off_c, 1, 52, 100
3, 523392, Note_on_c, 1, 40, 95
3, 523576, Note_off_c, 1, 40, 100
3, 523584, Note_on_c, 1, 52, 96
3, 523768, Note_off_c, 1, 52, 100
3, 523776, Note_on_c, 1, 41, 97
3, 523960, Note_off_c, 1, 41, 100
3, 523968, Note_on_c, 1, 53, 98
3, 524152, Note_off_c, 1, 53, 100
3, 524160, Note_on_c, 1, 41, 99
3, 524344, Note_off_c, 1, 41, 100
3, 524352, Note_on_c, 1, 53, 100
3, 524536, Note_off_c, 1, 53, 100
3, 524544, Note_on_c, 1, 43, 101
3, 524728, Note_off_c, 1, 43, 100
3, 524736, Note_on_c, 1, 55, 102
3, 524920, Note_off_c, 1, 55, 100
3, 524928, Note_on_c, 1, 43, 103
3, 525112, Note_off_c, 1, 43, 100
3, 525120, Note_on_c, 1, 55, 104
3, 525304, Note_off_c, 1, 55, 100
3, 525312, Note_on_c, 1, 44, 104
3, 525496, Note_off_c, 1, 44, 100
3, 525504, Note_on_c, 1, 56, 105
3, 525688, Note_off_c, 1, 56, 100
3, 525696, Note_on_c, 1, 44, 106
3, 525880, Note_off_c, 1, 44, 100
3, 525888, Note_on_c, 1, 56, 107
3, 526072, Note_off_c, 1, 56, 100
3, 526080, Note_on_c, 1, 46, 108
3, 526264, Note_off_c, 1, 46, 100
3, 526272, Note_on_c, 1, 58, 109
3, 526456, Note_off_c, 1, 58, 100
3, 526464, Note_on_c, 1, 46, 110
3, 526648, Note_off_c, 1, 46, 100
3, 526656, Note_on_c, 1, 58, 111
3, 526840, Note_off_c, 1, 58, 100
3, 526848, Note_on_c, 1, 48, 112
3, 527032, Note_off_c, 1, 48, 100
3, 527040, Note_on_c, 1, 60, 113
3, 527224, Note_off_c, 1, 60, 100
3, 527232, Note_on_c, 1, 48, 114
3, 527416, Note_off_c, 1, 48, 100
3, 527424, Note_on_c, 1, 60, 115
3, 527608, Note_off_c, 1, 60, 100
3, 527616, Note_on_c, 1, 49, 116
3, 527800, Note_off_c, 1, 49, 100
3, 527808, Note_on_c, 1, 61, 117
3, 527992, Note_off_c, 1, 61, 100
3, 528000, Note_on_c, 1, 49, 118
3, 528184, Note_off_c, 1, 49, 100
3, 528192, Note_on_c, 1, 61, 119
3, 528376, Note_off_c, 1, 61, 100
3, 528384, Note_on_c, 1, 60, 119
3, 528384, Note_on_c, 1, 48, 119
3, 528760, Note_off_c, 1, 60, 100
3, 528760, Note_off_c, 1, 48, 100
3, 531456, Note_on_c, 1, 60, 80
3, 531840, Note_on_c, 1, 65, 80
3, 531840, Note_on_c, 1, 68, 80
3, 532216, Note_off_c, 1, 65, 100
3, 532216, Note_off_c, 1, 68, 100
3, 532224, Note_on_c, 1, 65, 80
3, 532224, Note_on_c, 1, 68, 80
3, 532600, Note_off_c, 1, 65, 100
3, 532600, Note_off_c, 1, 68, 100
3, 532608, Note_on_c, 1, 65, 80
3, 532608, Note_on_c, 1, 68, 80
3, 532984, Note_off_c, 1, 60, 100
3, 532984, Note_off_c, 1, 65, 100
3, 532984, Note_off_c, 1, 68, 100
3, 532992, Note_on_c, 1, 60, 80
3, 533376, Note_on_c, 1, 65, 80
3, 533376, Note_on_c, 1, 68, 80
3, 533752, Note_off_c, 1, 65, 100
3, 533752, Note_off_c, 1, 68, 100
3, 533760, Note_on_c, 1, 65, 80
3, 533760, Note_on_c, 1, 68, 80
3, 534136, Note_off_c, 1, 65, 100
3, 534136, Note_off_c, 1, 68, 100
3, 534144, Note_on_c, 1, 65, 80
3, 534144, Note_on_c, 1, 68, 80
3, 534520, Note_off_c, 1, 60, 100
3, 534520, Note_off_c, 1, 65, 100
3, 534520, Note_off_c, 1, 68, 100
3, 534528, Note_on_c, 1, 60, 80
3, 534912, Note_on_c, 1, 65, 80
3, 534912, Note_on_c, 1, 68, 80
3, 535288, Note_off_c, 1, 65, 100
3, 535288, Note_off_c, 1, 68, 100
3, 535296, Note_on_c, 1, 65, 80
3, 535296, Note_on_c, 1, 68, 80
3, 535672, Note_off_c, 1, 65, 100
3, 535672, Note_off_c, 1, 68, 100
3, 535680, Note_on_c, 1, 65, 80
3, 535680, Note_on_c, 1, 68, 80
3, 536056, Note_off_c, 1, 60, 100
3, 536056, Note_off_c, 1, 65, 100
3, 536056, Note_off_c, 1, 68, 100
3, 536064, Note_on_c, 1, 60, 80
3, 536448, Note_on_c, 1, 65, 80
3, 536448, Note_on_c, 1, 68, 80
3, 536824, Note_off_c, 1, 65, 100
3, 536824, Note_off_c, 1, 68, 100
3, 536832, Note_on_c, 1, 65, 80
3, 536832, Note_on_c, 1, 68, 80
3, 537208, Note_off_c, 1, 65, 100
3, 537208, Note_off_c, 1, 68, 100
3, 537216, Note_on_c, 1, 65, 80
3, 537216, Note_on_c, 1, 68, 80
3, 537592, Note_off_c, 1, 60, 100
3, 537592, Note_off_c, 1, 65, 100
3, 537592, Note_off_c, 1, 68, 100
3, 537600, Note_on_c, 1, 60, 80
3, 537984, Note_on_c, 1, 67, 80
3, 537984, Note_on_c, 1, 70, 80
3, 538360, Note_off_c, 1, 67, 100
3, 538360, Note_off_c, 1, 70, 100
3, 538368, Note_on_c, 1, 67, 80
3, 538368, Note_on_c, 1, 70, 80
3, 538744, Note_off_c, 1, 67, 100
3, 538744, Note_off_c, 1, 70, 100
3, 538752, Note_on_c, 1, 67, 80
3, 538752, Note_on_c, 1, 70, 80
3, 539128, Note_off_c, 1, 60, 100
3, 539128, Note_off_c, 1, 67, 100
3, 539128, Note_off_c, 1, 70, 100
3, 539136, Note_on_c, 1, 60, 80
3, 539520, Note_on_c, 1, 67, 80
3, 539520, Note_on_c, 1, 70, 80
3, 539896, Note_off_c, 1, 67, 100
3, 539896, Note_off_c, 1, 70, 100
3, 539904, Note_on_c, 1, 67, 80
3, 539904, Note_on_c, 1, 70, 80
3, 540280, Note_off_c, 1, 67, 100
3, 540280, Note_off_c, 1, 70, 100
3, 540288, Note_on_c, 1, 67, 80
3, 540288, Note_on_c, 1, 70, 80
3, 540664, Note_off_c, 1, 60, 100
3, 540664, Note_off_c, 1, 67, 100
3, 540664, Note_off_c, 1, 70, 100
3, 540672, Note_on_c, 1, 60, 80
3, 541056, Note_on_c, 1, 67, 80
3, 541056, Note_on_c, 1, 70, 80
3, 541432, Note_off_c, 1, 67, 100
3, 541432, Note_off_c, 1, 70, 100
3, 541440, Note_on_c, 1, 67, 80
3, 541440, Note_on_c, 1, 70, 80
3, 541816, Note_off_c, 1, 67, 100
3, 541816, Note_off_c, 1, 70, 100
3, 541824, Note_on_c, 1, 67, 80
3, 541824, Note_on_c, 1, 70, 80
3, 542200, Note_off_c, 1, 60, 100
3, 542200, Note_off_c, 1, 67, 100
3, 542200, Note_off_c, 1, 70, 100
3, 542208, Note_on_c, 1, 60, 80
3, 542592, Note_on_c, 1, 67, 80
3, 542592, Note_on_c, 1, 70, 80
3, 542968, Note_off_c, 1, 67, 100
3, 542968, Note_off_c, 1, 70, 100
3, 542976, Note_on_c, 1, 67, 80
3, 542976, Note_on_c, 1, 70, 80
3, 543352, Note_off_c, 1, 67, 100
3, 543352, Note_off_c, 1, 70, 100
3, 543360, Note_on_c, 1, 67, 80
3, 543360, Note_on_c, 1, 70, 80
3, 543736, Note_off_c, 1, 60, 100
3, 543736, Note_off_c, 1, 67, 100
3, 543736, Note_off_c, 1, 70, 100
3, 543744, Note_on_c, 1, 60, 80
3, 544128, Note_on_c, 1, 65, 80
3, 544128, Note_on_c, 1, 68, 80
3, 544504, Note_off_c, 1, 65, 100
3, 544504, Note_off_c, 1, 68, 100
3, 544512, Note_on_c, 1, 65, 80
3, 544512, Note_on_c, 1, 68, 80
3, 544888, Note_off_c, 1, 65, 100
3, 544888, Note_off_c, 1, 68, 100
3, 544896, Note_on_c, 1, 65, 80
3, 544896, Note_on_c, 1, 68, 80
3, 545272, Note_off_c, 1, 60, 100
3, 545272, Note_off_c, 1, 65, 100
3, 545272, Note_off_c, 1, 68, 100
3, 545280, Note_on_c, 1, 60, 80
3, 545664, Note_on_c, 1, 65, 80
3, 545664, Note_on_c, 1, 68, 80
3, 546040, Note_off_c, 1, 65, 100
3, 546040, Note_off_c, 1, 68, 100
3, 546048, Note_on_c, 1, 65, 80
3, 546048, Note_on_c, 1, 68, 80
3, 546424, Note_off_c, 1, 65, 100
3, 546424, Note_off_c, 1, 68, 100
3, 546432, Note_on_c, 1, 65, 80
3, 546432, Note_on_c, 1, 68, 80
3, 546808, Note_off_c, 1, 60, 100
3, 546808, Note_off_c, 1, 65, 100
3, 546808, Note_off_c, 1, 68, 100
3, 546816, Note_on_c, 1, 56, 80
3, 547200, Note_on_c, 1, 60, 80
3, 547200, Note_on_c, 1, 65, 80
3, 547576, Note_off_c, 1, 60, 100
3, 547576, Note_off_c, 1, 65, 100
3, 547584, Note_on_c, 1, 60, 80
3, 547584, Note_on_c, 1, 65, 80
3, 547960, Note_off_c, 1, 60, 100
3, 547960, Note_off_c, 1, 65, 100
3, 547968, Note_on_c, 1, 60, 80
3, 547968, Note_on_c, 1, 65, 80
3, 548344, Note_off_c, 1, 56, 100
3, 548344, Note_off_c, 1, 60, 100
3, 548344, Note_off_c, 1, 65, 100
3, 548352, Note_on_c, 1, 56, 80
3, 548736, Note_on_c, 1, 60, 80
3, 548736, Note_on_c, 1, 65, 80
3, 549112, Note_off_c, 1, 60, 100
3, 549112, Note_off_c, 1, 65, 100
3, 549120, Note_on_c, 1, 60, 80
3, 549120, Note_on_c, 1, 65, 80
3, 549496, Note_off_c, 1, 60, 100
3, 549496, Note_off_c, 1, 65, 100
3, 549504, Note_on_c, 1, 60, 80
3, 549504, Note_on_c, 1, 65, 80
3, 549880, Note_off_c, 1, 56, 100
3, 549880, Note_off_c, 1, 60, 100
3, 549880, Note_off_c, 1, 65, 100
3, 549888, Note_on_c, 1, 55, 80
3, 550272, Note_on_c, 1, 62, 80
3, 550272, Note_on_c, 1, 65, 80
3, 550648, Note_off_c, 1, 62, 100
3, 550648, Note_off_c, 1, 65, 100
3, 550656, Note_on_c, 1, 62, 80
3, 550656, Note_on_c, 1, 65, 80
3, 551032, Note_off_c, 1, 62, 100
3, 551032, Note_off_c, 1, 65, 100
3, 551040, Note_on_c, 1, 62, 80
3, 551040, Note_on_c, 1, 65, 80
3, 551416, Note_off_c, 1, 55, 100
3, 551416, Note_off_c, 1, 62, 100
3, 551416, Note_off_c, 1, 65, 100
3, 551424, Note_on_c, 1, 55, 80
3, 551808, Note_on_c, 1, 62, 80
3, 551808, Note_on_c, 1, 65, 80
3, 552184, Note_off_c, 1, 62, 100
3, 552184, Note_off_c, 1, 65, 100
3, 552192, Note_on_c, 1, 62, 80
3, 552192, Note_on_c, 1, 65, 80
3, 552568, Note_off_c, 1, 62, 100
3, 552568, Note_off_c, 1, 65, 100
3, 552576, Note_on_c, 1, 62, 80
3, 552576, Note_on_c, 1, 65, 80
3, 552952, Note_off_c, 1, 55, 100
3, 552952, Note_off_c, 1, 62, 100
3, 552952, Note_off_c, 1, 65, 100
3, 552960, Note_on_c, 1, 55, 80
3, 553344, Note_on_c, 1, 62, 80
3, 553344, Note_on_c, 1, 65, 80
3, 553720, Note_off_c, 1, 62, 100
3, 553720, Note_off_c, 1, 65, 100
3, 553728, Note_on_c, 1, 62, 80
3, 553728, Note_on_c, 1, 65, 80
3, 554104, Note_off_c, 1, 62, 100
3, 554104, Note_off_c, 1, 65, 100
3, 554112, Note_on_c, 1, 62, 80
3, 554112, Note_on_c, 1, 65, 80
3, 554488, Note_off_c, 1, 55, 100
3, 554488, Note_off_c, 1, 62, 100
3, 554488, Note_off_c, 1, 65, 100
3, 554496, Note_on_c, 1, 55, 80
3, 554880, Note_on_c, 1, 62, 80
3, 554880, Note_on_c, 1, 65, 80
3, 555256, Note_off_c, 1, 62, 100
3, 555256, Note_off_c, 1, 65, 100
3, 555264, Note_on_c, 1, 62, 80
3, 555264, Note_on_c, 1, 65, 80
3, 555640, Note_off_c, 1, 62, 100
3, 555640, Note_off_c, 1, 65, 100
3, 555648, Note_on_c, 1, 62, 80
3, 555648, Note_on_c, 1, 65, 80
3, 556024, Note_off_c, 1, 55, 100
3, 556024, Note_off_c, 1, 62, 100
3, 556024, Note_off_c, 1, 65, 100
3, 556032, Note_on_c, 1, 55, 80
3, 556416, Note_on_c, 1, 60, 80
3, 556416, Note_on_c, 1, 63, 80
3, 556792, Note_off_c, 1, 60, 100
3, 556792, Note_off_c, 1, 63, 100
3, 556800, Note_on_c, 1, 60, 80
3, 556800, Note_on_c, 1, 63, 80
3, 557176, Note_off_c, 1, 60, 100
3, 557176, Note_off_c, 1, 63, 100
3, 557184, Note_on_c, 1, 60, 80
3, 557184, Note_on_c, 1, 63, 80
3, 557560, Note_off_c, 1, 55, 100
3, 557560, Note_off_c, 1, 60, 100
3, 557560, Note_off_c, 1, 63, 100
3, 557568, Note_on_c, 1, 55, 80
3, 557952, Note_on_c, 1, 60, 80
3, 557952, Note_on_c, 1, 63, 80
3, 558328, Note_off_c, 1, 60, 100
3, 558328, Note_off_c, 1, 63, 100
3, 558336, Note_on_c, 1, 60, 80
3, 558336, Note_on_c, 1, 63, 80
3, 558712, Note_off_c, 1, 60, 100
3, 558712, Note_off_c, 1, 63, 100
3, 558720, Note_on_c, 1, 60, 80
3, 558720, Note_on_c, 1, 63, 80
3, 559096, Note_off_c, 1, 55, 100
3, 559096, Note_off_c, 1, 60, 100
3, 559096, Note_off_c, 1, 63, 100
3, 559104, Note_on_c, 1, 55, 80
3, 559488, Note_on_c, 1, 60, 80
3, 559488, Note_on_c, 1, 63, 80
3, 559864, Note_off_c, 1, 60, 100
3, 559864, Note_off_c, 1, 63, 100
3, 559872, Note_on_c, 1, 60, 80
3, 559872, Note_on_c, 1, 63, 80
3, 560248, Note_off_c, 1, 60, 100
3, 560248, Note_off_c, 1, 63, 100
3, 560256, Note_on_c, 1, 60, 80
3, 560256, Note_on_c, 1, 63, 80
3, 560632, Note_off_c, 1, 55, 100
3, 560632, Note_off_c, 1, 60, 100
3, 560632, Note_off_c, 1, 63, 100
3, 560640, Note_on_c, 1, 55, 80
3, 561024, Note_on_c, 1, 60, 80
3, 561024, Note_on_c, 1, 63, 80
3, 561400, Note_off_c, 1, 60, 100
3, 561400, Note_off_c, 1, 63, 100
3, 561408, Note_on_c, 1, 60, 80
3, 561408, Note_on_c, 1, 63, 80
3, 561784, Note_off_c, 1, 60, 100
3, 561784, Note_off_c, 1, 63, 100
3, 561792, Note_on_c, 1, 60, 80
3, 561792, Note_on_c, 1, 63, 80
3, 562168, Note_off_c, 1, 55, 100
3, 562168, Note_off_c, 1, 60, 100
3, 562168, Note_off_c, 1, 63, 100
3, 562176, Note_on_c, 1, 55, 80
3, 562560, Note_on_c, 1, 62, 80
3, 562560, Note_on_c, 1, 65, 80
3, 562936, Note_off_c, 1, 62, 100
3, 562936, Note_off_c, 1, 65, 100
3, 562944, Note_on_c, 1, 62, 80
3, 562944, Note_on_c, 1, 65, 80
3, 563320, Note_off_c, 1, 62, 100
3, 563320, Note_off_c, 1, 65, 100
3, 563328, Note_on_c, 1, 62, 80
3, 563328, Note_on_c, 1, 65, 80
3, 563704, Note_off_c, 1, 55, 100
3, 563704, Note_off_c, 1, 62, 100
3, 563704, Note_off_c, 1, 65, 100
3, 563712, Note_on_c, 1, 55, 80
3, 564096, Note_on_c, 1, 62, 80
3, 564096, Note_on_c, 1, 65, 80
3, 564472, Note_off_c, 1, 62, 100
3, 564472, Note_off_c, 1, 65, 100
3, 564480, Note_on_c, 1, 62, 80
3, 564480, Note_on_c, 1, 65, 80
3, 564856, Note_off_c, 1, 62, 100
3, 564856, Note_off_c, 1, 65, 100
3, 564864, Note_on_c, 1, 62, 80
3, 564864, Note_on_c, 1, 65, 80
3, 565240, Note_off_c, 1, 55, 100
3, 565240, Note_off_c, 1, 62, 100
3, 565240, Note_off_c, 1, 65, 100
3, 565248, Note_on_c, 1, 55, 80
3, 565632, Note_on_c, 1, 62, 80
3, 565632, Note_on_c, 1, 65, 80
3, 566008, Note_off_c, 1, 62, 100
3, 566008, Note_off_c, 1, 65, 100
3, 566016, Note_on_c, 1, 62, 80
3, 566016, Note_on_c, 1, 65, 80
3, 566392, Note_off_c, 1, 62, 100
3, 566392, Note_off_c, 1, 65, 100
3, 566400, Note_on_c, 1, 62, 80
3, 566400, Note_on_c, 1, 65, 80
3, 566776, Note_off_c, 1, 55, 100
3, 566776, Note_off_c, 1, 62, 100
3, 566776, Note_off_c, 1, 65, 100
3, 566784, Note_on_c, 1, 55, 80
3, 567168, Note_on_c, 1, 62, 80
3, 567168, Note_on_c, 1, 65, 80
3, 567544, Note_off_c, 1, 62, 100
3, 567544, Note_off_c, 1, 65, 100
3, 567552, Note_on_c, 1, 62, 80
3, 567552, Note_on_c, 1, 65, 80
3, 567928, Note_off_c, 1, 62, 100
3, 567928, Note_off_c, 1, 65, 100
3, 567936, Note_on_c, 1, 62, 80
3, 567936, Note_on_c, 1, 65, 80
3, 568312, Note_off_c, 1, 55, 100
3, 568312, Note_off_c, 1, 62, 100
3, 568312, Note_off_c, 1, 65, 100
3, 568320, Note_on_c, 1, 60, 80
3, 568704, Note_on_c, 1, 63, 80
3, 568704, Note_on_c, 1, 67, 80
3, 569080, Note_off_c, 1, 63, 100
3, 569080, Note_off_c, 1, 67, 100
3, 569088, Note_on_c, 1, 63, 80
3, 569088, Note_on_c, 1, 67, 80
3, 569464, Note_off_c, 1, 63, 100
3, 569464, Note_off_c, 1, 67, 100
3, 569472, Note_on_c, 1, 63, 79
3, 569472, Note_on_c, 1, 67, 79
3, 569848, Note_off_c, 1, 60, 100
3, 569848, Note_off_c, 1, 63, 100
3, 569848, Note_off_c, 1, 67, 100
3, 569856, Note_on_c, 1, 53, 79
3, 570240, Note_on_c, 1, 63, 78
3, 570240, Note_on_c, 1, 65, 78
3, 570616, Note_off_c, 1, 63, 100
3, 570616, Note_off_c, 1, 65, 100
3, 570624, Note_on_c, 1, 63, 78
3, 570624, Note_on_c, 1, 65, 78
3, 571000, Note_off_c, 1, 63, 100
3, 571000, Note_off_c, 1, 65, 100
3, 571008, Note_on_c, 1, 63, 77
3, 571008, Note_on_c, 1, 65, 77
3, 571384, Note_off_c, 1, 53, 100
3, 571384, Note_off_c, 1, 63, 100
3, 571384, Note_off_c, 1, 65, 100
3, 571392, Note_on_c, 1, 58, 77
3, 571776, Note_on_c, 1, 61, 76
3, 571776, Note_on_c, 1, 65, 76
3, 572152, Note_off_c, 1, 61, 100
3, 572152, Note_off_c, 1, 65, 100
3, 572160, Note_on_c, 1, 61, 76
3, 572160, Note_on_c, 1, 65, 76
3, 572536, Note_off_c, 1, 61, 100
3, 572536, Note_off_c, 1, 65, 100
3, 572544, Note_on_c, 1, 61, 75
3, 572544, Note_on_c, 1, 65, 75
3, 572920, Note_off_c, 1, 58, 100
3, 572920, Note_off_c, 1, 61, 100
3, 572920, Note_off_c, 1, 65, 100
3, 572928, Note_on_c, 1, 51, 75
3, 573312, Note_on_c, 1, 61, 74
3, 573312, Note_on_c, 1, 63, 74
3, 573688, Note_off_c, 1, 61, 100
3, 573688, Note_off_c, 1, 63, 100
3, 573696, Note_on_c, 1, 61, 74
3, 573696, Note_on_c, 1, 63, 74
3, 574072, Note_off_c, 1, 61, 100
3, 574072, Note_off_c, 1, 63, 100
3, 574080, Note_on_c, 1, 61, 73
3, 574080, Note_on_c, 1, 63, 73
3, 574456, Note_off_c, 1, 51, 100
3, 574456, Note_off_c, 1, 61, 100
3, 574456, Note_off_c, 1, 63, 100
3, 574464, Note_on_c, 1, 56, 73
3, 574848, Note_on_c, 1, 60, 72
3, 574848, Note_on_c, 1, 63, 72
3, 575224, Note_off_c, 1, 60, 100
3, 575224, Note_off_c, 1, 63, 100
3, 575232, Note_on_c, 1, 60, 72
3, 575232, Note_on_c, 1, 63, 72
3, 575608, Note_off_c, 1, 60, 100
3, 575608, Note_off_c, 1, 63, 100
3, 575616, Note_on_c, 1, 60, 71
3, 575616, Note_on_c, 1, 63, 71
3, 575992, Note_off_c, 1, 56, 100
3, 575992, Note_off_c, 1, 60, 100
3, 575992, Note_off_c, 1, 63, 100
3, 576000, Note_on_c, 1, 56, 71
3, 576384, Note_on_c, 1, 60, 70
3, 576384, Note_on_c, 1, 63, 70
3, 576760, Note_off_c, 1, 60, 100
3, 576760, Note_off_c, 1, 63, 100
3, 576768, Note_on_c, 1, 60, 70
3, 576768, Note_on_c, 1, 63, 70
3, 577144, Note_off_c, 1, 60, 100
3, 577144, Note_off_c, 1, 63, 100
3, 577152, Note_on_c, 1, 60, 69
3, 577152, Note_on_c, 1, 63, 69
3, 577528, Note_off_c, 1, 56, 100
3, 577528, Note_off_c, 1, 60, 100
3, 577528, Note_off_c, 1, 63, 100
3, 577536, Note_on_c, 1, 55, 69
3, 577920, Note_on_c, 1, 60, 68
3, 577920, Note_on_c, 1, 63, 68
3, 578296, Note_off_c, 1, 60, 100
3, 578296, Note_off_c, 1, 63, 100
3, 578304, Note_on_c, 1, 60, 68
3, 578304, Note_on_c, 1, 63, 68
3, 578680, Note_off_c, 1, 60, 100
3, 578680, Note_off_c, 1, 63, 100
3, 578688, Note_on_c, 1, 60, 67
3, 578688, Note_on_c, 1, 63, 67
3, 579064, Note_off_c, 1, 55, 100
3, 579064, Note_off_c, 1, 60, 100
3, 579064, Note_off_c, 1, 63, 100
3, 579072, Note_on_c, 1, 55, 67
3, 579456, Note_on_c, 1, 59, 66
3, 579456, Note_on_c, 1, 62, 66
3, 579832, Note_off_c, 1, 59, 100
3, 579832, Note_off_c, 1, 62, 100
3, 579840, Note_on_c, 1, 59, 66
3, 579840, Note_on_c, 1, 62, 66
3, 580216, Note_off_c, 1, 59, 100
3, 580216, Note_off_c, 1, 62, 100
3, 580224, Note_on_c, 1, 59, 66
3, 580224, Note_on_c, 1, 62, 66
3, 580600, Note_off_c, 1, 55, 100
3, 580600, Note_off_c, 1, 59, 100
3, 580600, Note_off_c, 1, 62, 100
3, 580608, Note_on_c, 1, 48, 80
3, 580800, Note_on_c, 1, 55, 80
3, 580984, Note_off_c, 1, 55, 100
3, 580992, Note_on_c, 1, 51, 80
3, 581176, Note_off_c, 1, 51, 100
3, 581184, Note_on_c, 1, 55, 80
3, 581368, Note_off_c, 1, 55, 100
3, 581376, Note_on_c, 1, 51, 80
3, 581560, Note_off_c, 1, 51, 100
3, 581568, Note_on_c, 1, 55, 80
3, 581752, Note_off_c, 1, 55, 100
3, 581760, Note_on_c, 1, 51, 80
3, 581944, Note_off_c, 1, 51, 100
3, 581952, Note_on_c, 1, 55, 80
3, 582136, Note_off_c, 1, 55, 100
3, 582144, Note_on_c, 1, 51, 80
3, 582328, Note_off_c, 1, 51, 100
3, 582336, Note_on_c, 1, 55, 80
3, 582520, Note_off_c, 1, 55, 100
3, 582528, Note_on_c, 1, 51, 80
3, 582712, Note_off_c, 1, 51, 100
3, 582720, Note_on_c, 1, 55, 80
3, 582904, Note_off_c, 1, 48, 100
3, 582904, Note_off_c, 1, 55, 100
3, 582912, Note_on_c, 1, 48, 80
3, 583104, Note_on_c, 1, 55, 80
3, 583288, Note_off_c, 1, 55, 100
3, 583296, Note_on_c, 1, 51, 80
3, 583480, Note_off_c, 1, 51, 100
3, 583488, Note_on_c, 1, 55, 80
3, 583672, Note_off_c, 1, 48, 100
3, 583672, Note_off_c, 1, 55, 100
3, 583680, Note_on_c, 1, 46, 80
3, 583872, Note_on_c, 1, 55, 80
3, 584056, Note_off_c, 1, 55, 100
3, 584064, Note_on_c, 1, 52, 80
3, 584248, Note_off_c, 1, 52, 100
3, 584256, Note_on_c, 1, 55, 80
3, 584440, Note_off_c, 1, 55, 100
3, 584448, Note_on_c, 1, 52, 80
3, 584632, Note_off_c, 1, 52, 100
3, 584640, Note_on_c, 1, 55, 80
3, 584824, Note_off_c, 1, 55, 100
3, 584832, Note_on_c, 1, 52, 80
3, 585016, Note_off_c, 1, 52, 100
3, 585024, Note_on_c, 1, 55, 80
3, 585208, Note_off_c, 1, 55, 100
3, 585216, Note_on_c, 1, 52, 80
3, 585400, Note_off_c, 1, 52, 100
3, 585408, Note_on_c, 1, 55, 80
3, 585592, Note_off_c, 1, 55, 100
3, 585600, Note_on_c, 1, 52, 80
3, 585784, Note_off_c, 1, 52, 100
3, 585792, Note_on_c, 1, 55, 80
3, 585976, Note_off_c, 1, 46, 100
3, 585976, Note_off_c, 1, 55, 100
3, 585984, Note_on_c, 1, 46, 80
3, 586176, Note_on_c, 1, 55, 80
3, 586360, Note_off_c, 1, 55, 100
3, 586368, Note_on_c, 1, 52, 80
3, 586552, Note_off_c, 1, 52, 100
3, 586560, Note_on_c, 1, 55, 80
3, 586744, Note_off_c, 1, 46, 100
3, 586744, Note_off_c, 1, 55, 100
3, 586752, Note_on_c, 1, 44, 80
3, 586936, Note_off_c, 1, 44, 100
3, 586944, Note_on_c, 1, 56, 80
3, 587128, Note_off_c, 1, 56, 100
3, 587136, Note_on_c, 1, 48, 81
3, 587320, Note_off_c, 1, 48, 100
3, 587328, Note_on_c, 1, 56, 82
3, 587512, Note_off_c, 1, 56, 100
3, 587520, Note_on_c, 1, 46, 83
3, 587704, Note_off_c, 1, 46, 100
3, 587712, Note_on_c, 1, 58, 84
3, 587896, Note_off_c, 1, 58, 100
3, 587904, Note_on_c, 1, 48, 85
3, 588088, Note_off_c, 1, 48, 100
3, 588096, Note_on_c, 1, 58, 85
3, 588280, Note_off_c, 1, 58, 100
3, 588288, Note_on_c, 1, 44, 86
3, 588472, Note_off_c, 1, 44, 100
3, 588480, Note_on_c, 1, 56, 87
3, 588664, Note_off_c, 1, 56, 100
3, 588672, Note_on_c, 1, 48, 88
3, 588856, Note_off_c, 1, 48, 100
3, 588864, Note_on_c, 1, 56, 89
3, 589048, Note_off_c, 1, 56, 100
3, 589056, Note_on_c, 1, 43, 90
3, 589240, Note_off_c, 1, 43, 100
3, 589248, Note_on_c, 1, 55, 91
3, 589432, Note_off_c, 1, 55, 100
3, 589440, Note_on_c, 1, 48, 91
3, 589624, Note_off_c, 1, 48, 100
3, 589632, Note_on_c, 1, 55, 92
3, 589816, Note_off_c, 1, 55, 100
3, 589824, Note_on_c, 1, 41, 93
3, 590008, Note_off_c, 1, 41, 100
3, 590016, Note_on_c, 1, 53, 94
3, 590200, Note_off_c, 1, 53, 100
3, 590208, Note_on_c, 1, 48, 95
3, 590392, Note_off_c, 1, 48, 100
3, 590400, Note_on_c, 1, 53, 96
3, 590584, Note_off_c, 1, 53, 100
3, 590592, Note_on_c, 1, 39, 97
3, 590776, Note_off_c, 1, 39, 100
3, 590784, Note_on_c, 1, 51, 97
3, 590968, Note_off_c, 1, 51, 100
3, 590976, Note_on_c, 1, 48, 98
3, 591160, Note_off_c, 1, 48, 100
3, 591168, Note_on_c, 1, 51, 99
3, 591352, Note_off_c, 1, 51, 100
3, 591360, Note_on_c, 1, 38, 100
3, 591544, Note_off_c, 1, 38, 100
3, 591552, Note_on_c, 1, 50, 101
3, 591736, Note_off_c, 1, 50, 100
3, 591744, Note_on_c, 1, 43, 102
3, 591928, Note_off_c, 1, 43, 100
3, 591936, Note_on_c, 1, 50, 102
3, 592120, Note_off_c, 1, 50, 100
3, 592128, Note_on_c, 1, 36, 103
3, 592312, Note_off_c, 1, 36, 100
3, 592320, Note_on_c, 1, 48, 104
3, 592504, Note_off_c, 1, 48, 100
3, 592512, Note_on_c, 1, 43, 105
3, 592696, Note_off_c, 1, 43, 100
3, 592704, Note_on_c, 1, 48, 106
3, 592888, Note_off_c, 1, 48, 100
3, 592896, Note_on_c, 1, 35, 107
3, 593080, Note_off_c, 1, 35, 100
3, 593088, Note_on_c, 1, 47, 108
3, 593272, Note_off_c, 1, 47, 100
3, 593280, Note_on_c, 1, 43, 108
3, 593464, Note_off_c, 1, 43, 100
3, 593472, Note_on_c, 1, 47, 109
3, 593656, Note_off_c, 1, 47, 100
3, 593664, Note_on_c, 1, 34, 110
3, 593848, Note_off_c, 1, 34, 100
3, 593856, Note_on_c, 1, 46, 111
3, 594040, Note_off_c, 1, 46, 100
3, 594048, Note_on_c, 1, 36, 112
3, 594232, Note_off_c, 1, 36, 100
3, 594240, Note_on_c, 1, 46, 113
3, 594424, Note_off_c, 1, 46, 100
3, 594432, Note_on_c, 1, 32, 114
3, 594616, Note_off_c, 1, 32, 100
3, 594624, Note_on_c, 1, 44, 114
3, 594808, Note_off_c, 1, 44, 100
3, 594816, Note_on_c, 1, 36, 115
3, 595000, Note_off_c, 1, 36, 100
3, 595008, Note_on_c, 1, 44, 116
3, 595192, Note_off_c, 1, 44, 100
3, 595200, Note_on_c, 1, 29, 117
3, 595384, Note_off_c, 1, 29, 100
3, 595392, Note_on_c, 1, 41, 118
3, 595576, Note_off_c, 1, 41, 100
3, 595584, Note_on_c, 1, 36, 119
3, 595768, Note_off_c, 1, 36, 100
3, 595776, Note_on_c, 1, 41, 119
3, 595960, Note_off_c, 1, 41, 100
3, 595968, Note_on_c, 1, 43, 110
3, 595968, Note_on_c, 1, 31, 110
3, 596344, Note_off_c, 1, 43, 100
3, 596344, Note_off_c, 1, 31, 100
3, 597504, Note_on_c, 1, 43, 110
3, 597504, Note_on_c, 1, 55, 110
3, 597880, Note_off_c, 1, 43, 100
3, 597880, Note_off_c, 1, 55, 100
3, 599040, Note_on_c, 1, 48, 80
3, 599232, Note_on_c, 1, 55, 80
3, 599416, Note_off_c, 1, 55, 100
3, 599424, Note_on_c, 1, 51, 80
3, 599608, Note_off_c, 1, 51, 100
3, 599616, Note_on_c, 1, 55, 80
3, 599800, Note_off_c, 1, 55, 100
3, 599808, Note_on_c, 1, 51, 80
3, 599992, Note_off_c, 1, 51, 100
3, 600000, Note_on_c, 1, 55, 80
3, 600184, Note_off_c, 1, 55, 100
3, 600192, Note_on_c, 1, 51, 80
3, 600376, Note_off_c, 1, 51, 100
3, 600384, Note_on_c, 1, 55, 80
3, 600568, Note_off_c, 1, 55, 100
3, 600576, Note_on_c, 1, 51, 80
3, 600760, Note_off_c, 1, 51, 100
3, 600768, Note_on_c, 1, 55, 80
3, 600952, Note_off_c, 1, 55, 100
3, 600960, Note_on_c, 1, 51, 80
3, 601144, Note_off_c, 1, 51, 100
3, 601152, Note_on_c, 1, 55, 80
3, 601336, Note_off_c, 1, 48, 100
3, 601336, Note_off_c, 1, 55, 100
3, 601344, Note_on_c, 1, 48, 80
3, 601536, Note_on_c, 1, 55, 80
3, 601720, Note_off_c, 1, 55, 100
3, 601728, Note_on_c, 1, 51, 80
3, 601912, Note_off_c, 1, 51, 100
3, 601920, Note_on_c, 1, 55, 80
3, 602104, Note_off_c, 1, 48, 100
3, 602104, Note_off_c, 1, 55, 100
3, 602112, Note_on_c, 1, 46, 80
3, 602304, Note_on_c, 1, 55, 80
3, 602488, Note_off_c, 1, 55, 100
3, 602496, Note_on_c, 1, 52, 80
3, 602680, Note_off_c, 1, 52, 100
3, 602688, Note_on_c, 1, 55, 80
3, 602872, Note_off_c, 1, 55, 100
3, 602880, Note_on_c, 1, 52, 80
3, 603064, Note_off_c, 1, 52, 100
3, 603072, Note_on_c, 1, 55, 80
3, 603256, Note_off_c, 1, 55, 100
3, 603264, Note_on_c, 1, 52, 80
3, 603448, Note_off_c, 1, 52, 100
3, 603456, Note_on_c, 1, 55, 80
3, 603640, Note_off_c, 1, 55, 100
3, 603648, Note_on_c, 1, 52, 80
3, 603832, Note_off_c, 1, 52, 100
3, 603840, Note_on_c, 1, 55, 80
3, 604024, Note_off_c, 1, 55, 100
3, 604032, Note_on_c, 1, 52, 80
3, 604216, Note_off_c, 1, 52, 100
3, 604224, Note_on_c, 1, 55, 80
3, 604408, Note_off_c, 1, 46, 100
3, 604408, Note_off_c, 1, 55, 100
3, 604416, Note_on_c, 1, 46, 80
3, 604608, Note_on_c, 1, 55, 80
3, 604792, Note_off_c, 1, 55, 100
3, 604800, Note_on_c, 1, 52, 80
3, 604984, Note_off_c, 1, 52, 100
3, 604992, Note_on_c, 1, 55, 80
3, 605176, Note_off_c, 1, 46, 100
3, 605176, Note_off_c, 1, 55, 100
3, 605184, Note_on_c, 1, 44, 80
3, 605368, Note_off_c, 1, 44, 100
3, 605376, Note_on_c, 1, 56, 80
3, 605560, Note_off_c, 1, 56, 100
3, 605568, Note_on_c, 1, 48, 81
3, 605752, Note_off_c, 1, 48, 100
3, 605760, Note_on_c, 1, 56, 82
3, 605944, Note_off_c, 1, 56, 100
3, 605952, Note_on_c, 1, 46, 83
3, 606136, Note_off_c, 1, 46, 100
3, 606144, Note_on_c, 1, 58, 84
3, 606328, Note_off_c, 1, 58, 100
3, 606336, Note_on_c, 1, 48, 85
3, 606520, Note_off_c, 1, 48, 100
3, 606528, Note_on_c, 1, 58, 85
3, 606712, Note_off_c, 1, 58, 100
3, 606720, Note_on_c, 1, 44, 86
3, 606904, Note_off_c, 1, 44, 100
3, 606912, Note_on_c, 1, 56, 87
3, 607096, Note_off_c, 1, 56, 100
3, 607104, Note_on_c, 1, 48, 88
3, 607288, Note_off_c, 1, 48, 100
3, 607296, Note_on_c, 1, 56, 89
3, 607480, Note_off_c, 1, 56, 100
3, 607488, Note_on_c, 1, 43, 90
3, 607672, Note_off_c, 1, 43, 100
3, 607680, Note_on_c, 1, 55, 91
3, 607864, Note_off_c, 1, 55, 100
3, 607872, Note_on_c, 1, 48, 91
3, 608056, Note_off_c, 1, 48, 100
3, 608064, Note_on_c, 1, 55, 92
3, 608248, Note_off_c, 1, 55, 100
3, 608256, Note_on_c, 1, 41, 93
3, 608440, Note_off_c, 1, 41, 100
3, 608448, Note_on_c, 1, 53, 94
3, 608632, Note_off_c, 1, 53, 100
3, 608640, Note_on_c, 1, 48, 95
3, 608824, Note_off_c, 1, 48, 100
3, 608832, Note_on_c, 1, 53, 96
3, 609016, Note_off_c, 1, 53, 100
3, 609024, Note_on_c, 1, 39, 97
3, 609208, Note_off_c, 1, 39, 100
3, 609216, Note_on_c, 1, 51, 97
3, 609400, Note_off_c, 1, 51, 100
3, 609408, Note_on_c, 1, 48, 98
3, 609592, Note_off_c, 1, 48, 100
3, 609600, Note_on_c, 1, 51, 99
3, 609784, Note_off_c, 1, 51, 100
3, 609792, Note_on_c, 1, 38, 100
3, 609976, Note_off_c, 1, 38, 100
3, 609984, Note_on_c, 1, 50, 101
3, 610168, Note_off_c, 1, 50, 100
3, 610176, Note_on_c, 1, 43, 102
3, 610360, Note_off_c, 1, 43, 100
3, 610368, Note_on_c, 1, 50, 102
3, 610552, Note_off_c, 1, 50, 100
3, 610560, Note_on_c, 1, 36, 103
3, 610744, Note_off_c, 1, 36, 100
3, 610752, Note_on_c, 1, 48, 104
3, 610936, Note_off_c, 1, 48, 100
3, 610944, Note_on_c, 1, 43, 105
3, 611128, Note_off_c, 1, 43, 100
3, 611136, Note_on_c, 1, 48, 106
3, 611320, Note_off_c, 1, 48, 100
3, 611328, Note_on_c, 1, 35, 107
3, 611512, Note_off_c, 1, 35, 100
3, 611520, Note_on_c, 1, 47, 108
3, 611704, Note_off_c, 1, 47, 100
3, 611712, Note_on_c, 1, 43, 108
3, 611896, Note_off_c, 1, 43, 100
3, 611904, Note_on_c, 1, 47, 109
3, 612088, Note_off_c, 1, 47, 100
3, 612096, Note_on_c, 1, 34, 110
3, 612280, Note_off_c, 1, 34, 100
3, 612288, Note_on_c, 1, 46, 111
3, 612472, Note_off_c, 1, 46, 100
3, 612480, Note_on_c, 1, 36, 112
3, 612664, Note_off_c, 1, 36, 100
3, 612672, Note_on_c, 1, 46, 113
3, 612856, Note_off_c, 1, 46, 100
3, 612864, Note_on_c, 1, 32, 114
3, 613048, Note_off_c, 1, 32, 100
3, 613056, Note_on_c, 1, 44, 114
3, 613240, Note_off_c, 1, 44, 100
3, 613248, Note_on_c, 1, 36, 115
3, 613432, Note_off_c, 1, 36, 100
3, 613440, Note_on_c, 1, 44, 116
3, 613624, Note_off_c, 1, 44, 100
3, 613632, Note_on_c, 1, 29, 117
3, 613816, Note_off_c, 1, 29, 100
3, 613824, Note_on_c, 1, 41, 118
3, 614008, Note_off_c, 1, 41, 100
3, 614016, Note_on_c, 1, 36, 119
3, 614200, Note_off_c, 1, 36, 100
3, 614208, Note_on_c, 1, 41, 119
3, 614392, Note_off_c, 1, 41, 100
3, 614400, Note_on_c, 1, 43, 120
3, 614400, Note_on_c, 1, 31, 120
3, 614776, Note_off_c, 1, 43, 100
3, 614776, Note_off_c, 1, 31, 100
3, 615936, Note_on_c, 1, 43, 120
3, 615936, Note_on_c, 1, 55, 120
3, 616312, Note_off_c, 1, 43, 100
3, 616312, Note_off_c, 1, 55, 100
3, 617472, Note_on_c, 1, 48, 120
3, 617848, Note_off_c, 1, 48, 100
3, 617856, Note_on_c, 1, 60, 80
3, 617856, Note_on_c, 1, 63, 80
3, 618232, Note_off_c, 1, 60, 100
3, 618232, Note_off_c, 1, 63, 100
3, 618240, Note_on_c, 1, 60, 80
3, 618240, Note_on_c, 1, 63, 80
3, 618616, Note_off_c, 1, 60, 100
3, 618616, Note_off_c, 1, 63, 100
3, 618624, Note_on_c, 1, 60, 80
3, 618624, Note_on_c, 1, 63, 80
3, 619000, Note_off_c, 1, 60, 100
3, 619000, Note_off_c, 1, 63, 100
3, 619008, Note_on_c, 1, 56, 80
3, 619392, Note_on_c, 1, 60, 80
3, 619392, Note_on_c, 1, 63, 80
3, 619768, Note_off_c, 1, 60, 100
3, 619768, Note_off_c, 1, 63, 100
3, 619776, Note_on_c, 1, 60, 80
3, 619776, Note_on_c, 1, 63, 80
3, 620152, Note_off_c, 1, 60, 100
3, 620152, Note_off_c, 1, 63, 100
3, 620160, Note_on_c, 1, 60, 80
3, 620160, Note_on_c, 1, 63, 80
3, 620536, Note_off_c, 1, 56, 100
3, 620536, Note_off_c, 1, 60, 100
3, 620536, Note_off_c, 1, 63, 100
3, 620544, Note_on_c, 1, 53, 80
3, 620928, Note_on_c, 1, 60, 80
3, 620928, Note_on_c, 1, 62, 80
3, 621304, Note_off_c, 1, 60, 100
3, 621304, Note_off_c, 1, 62, 100
3, 621312, Note_on_c, 1, 60, 80
3, 621312, Note_on_c, 1, 62, 80
3, 621688, Note_off_c, 1, 60, 100
3, 621688, Note_off_c, 1, 62, 100
3, 621696, Note_on_c, 1, 60, 80
3, 621696, Note_on_c, 1, 62, 80
3, 622072, Note_off_c, 1, 53, 100
3, 622072, Note_off_c, 1, 60, 100
3, 622072, Note_off_c, 1, 62, 100
3, 622080, Note_on_c, 1, 55, 80
3, 622464, Note_on_c, 1, 59, 80
3, 622464, Note_on_c, 1, 62, 80
3, 622840, Note_off_c, 1, 59, 100
3, 622840, Note_off_c, 1, 62, 100
3, 622848, Note_on_c, 1, 59, 80
3, 622848, Note_on_c, 1, 62, 80
3, 623224, Note_off_c, 1, 59, 100
3, 623224, Note_off_c, 1, 62, 100
3, 623232, Note_on_c, 1, 59, 80
3, 623232, Note_on_c, 1, 62, 80
3, 623608, Note_off_c, 1, 55, 100
3, 623608, Note_off_c, 1, 59, 100
3, 623608, Note_off_c, 1, 62, 100
3, 623616, Note_on_c, 1, 48, 80
3, 624000, Note_on_c, 1, 51, 80
3, 624000, Note_on_c, 1, 60, 80
3, 624376, Note_off_c, 1, 51, 100
3, 624376, Note_off_c, 1, 60, 100
3, 624384, Note_on_c, 1, 51, 80
3, 624384, Note_on_c, 1, 60, 80
3, 624760, Note_off_c, 1, 51, 100
3, 624760, Note_off_c, 1, 60, 100
3, 624768, Note_on_c, 1, 51, 82
3, 624768, Note_on_c, 1, 60, 82
3, 625144, Note_off_c, 1, 48, 100
3, 625144, Note_off_c, 1, 51, 100
3, 625144, Note_off_c, 1, 60, 100
3, 625152, Note_on_c, 1, 44, 84
3, 625536, Note_on_c, 1, 48, 86
3, 625536, Note_on_c, 1, 51, 86
3, 625536, Note_on_c, 1, 56, 86
3, 625912, Note_off_c, 1, 48, 100
3, 625912, Note_off_c, 1, 51, 100
3, 625912, Note_off_c, 1, 56, 100
3, 625920, Note_on_c, 1, 48, 88
3, 625920, Note_on_c, 1, 51, 88
3, 625920, Note_on_c, 1, 56, 88
3, 626296, Note_off_c, 1, 48, 100
3, 626296, Note_off_c, 1, 51, 100
3, 626296, Note_off_c, 1, 56, 100
3, 626304, Note_on_c, 1, 48, 91
3, 626304, Note_on_c, 1, 51, 91
3, 626304, Note_on_c, 1, 56, 91
3, 626680, Note_off_c, 1, 44, 100
3, 626680, Note_off_c, 1, 48, 100
3, 626680, Note_off_c, 1, 51, 100
3, 626680, Note_off_c, 1, 56, 100
3, 626688, Note_on_c, 1, 41, 93
3, 627072, Note_on_c, 1, 48, 95
3, 627072, Note_on_c, 1, 50, 95
3, 627072, Note_on_c, 1, 53, 95
3, 627448, Note_off_c, 1, 48, 100
3, 627448, Note_off_c, 1, 50, 100
3, 627448, Note_off_c, 1, 53, 100
3, 627456, Note_on_c, 1, 48, 97
3, 627456, Note_on_c, 1, 50, 97
3, 627456, Note_on_c, 1, 53, 97
3, 627832, Note_off_c, 1, 48, 100
3, 627832, Note_off_c, 1, 50, 100
3, 627832, Note_off_c, 1, 53, 100
3, 627840, Note_on_c, 1, 48, 99
3, 627840, Note_on_c, 1, 50, 99
3, 627840, Note_on_c, 1, 53, 99
3, 628216, Note_off_c, 1, 41, 100
3, 628216, Note_off_c, 1, 48, 100
3, 628216, Note_off_c, 1, 50, 100
3, 628216, Note_off_c, 1, 53, 100
3, 628224, Note_on_c, 1, 43, 102
3, 628608, Note_on_c, 1, 47, 104
3, 628608, Note_on_c, 1, 50, 104
3, 628608, Note_on_c, 1, 55, 104
3, 628984, Note_off_c, 1, 47, 100
3, 628984, Note_off_c, 1, 50, 100
3, 628984, Note_off_c, 1, 55, 100
3, 628992, Note_on_c, 1, 47, 106
3, 628992, Note_on_c, 1, 50, 106
3, 628992, Note_on_c, 1, 55, 106
3, 629368, Note_off_c, 1, 47, 100
3, 629368, Note_off_c, 1, 50, 100
3, 629368, Note_off_c, 1, 55, 100
3, 629376, Note_on_c, 1, 47, 108
3, 629376, Note_on_c, 1, 50, 108
3, 629376, Note_on_c, 1, 55, 108
3, 629752, Note_off_c, 1, 43, 100
3, 629752, Note_off_c, 1, 47, 100
3, 629752, Note_off_c, 1, 50, 100
3, 629752, Note_off_c, 1, 55, 100
3, 629760, Note_on_c, 1, 36, 110
3, 629944, Note_off_c, 1, 36, 100
3, 629952, Note_on_c, 1, 48, 110
3, 630136, Note_off_c, 1, 48, 100
3, 630144, Note_on_c, 1, 36, 110
3, 630328, Note_off_c, 1, 36, 100
3, 630336, Note_on_c, 1, 48, 110
3, 630520, Note_off_c, 1, 48, 100
3, 630528, Note_on_c, 1, 36, 110
3, 630712, Note_off_c, 1, 36, 100
3, 630720, Note_on_c, 1, 48, 110
3, 630904, Note_off_c, 1, 48, 100
3, 630912, Note_on_c, 1, 36, 110
3, 631096, Note_off_c, 1, 36, 100
3, 631104, Note_on_c, 1, 48, 110
3, 631288, Note_off_c, 1, 48, 100
3, 631296, Note_on_c, 1, 36, 110
3, 631480, Note_off_c, 1, 36, 100
3, 631488, Note_on_c, 1, 48, 110
3, 631672, Note_off_c, 1, 48, 100
3, 631680, Note_on_c, 1, 36, 110
3, 631864, Note_off_c, 1, 36, 100
3, 631872, Note_on_c, 1, 48, 110
3, 632056, Note_off_c, 1, 48, 100
3, 632064, Note_on_c, 1, 36, 110
3, 632248, Note_off_c, 1, 36, 100
3, 632256, Note_on_c, 1, 48, 110
3, 632440, Note_off_c, 1, 48, 100
3, 632448, Note_on_c, 1, 36, 110
3, 632632, Note_off_c, 1, 36, 100
3, 632640, Note_on_c, 1, 48, 110
3, 632824, Note_off_c, 1, 48, 100
3, 632832, Note_on_c, 1, 36, 110
3, 633016, Note_off_c, 1, 36, 100
3, 633024, Note_on_c, 1, 48, 110
3, 633208, Note_off_c, 1, 48, 100
3, 633216, Note_on_c, 1, 36, 110
3, 633400, Note_off_c, 1, 36, 100
3, 633408, Note_on_c, 1, 48, 110
3, 633592, Note_off_c, 1, 48, 100
3, 633600, Note_on_c, 1, 36, 110
3, 633784, Note_off_c, 1, 36, 100
3, 633792, Note_on_c, 1, 48, 110
3, 633976, Note_off_c, 1, 48, 100
3, 633984, Note_on_c, 1, 36, 110
3, 634168, Note_off_c, 1, 36, 100
3, 634176, Note_on_c, 1, 48, 110
3, 634360, Note_off_c, 1, 48, 100
3, 634368, Note_on_c, 1, 36, 110
3, 634552, Note_off_c, 1, 36, 100
3, 634560, Note_on_c, 1, 48, 110
3, 634744, Note_off_c, 1, 48, 100
3, 634752, Note_on_c, 1, 36, 110
3, 634936, Note_off_c, 1, 36, 100
3, 634944, Note_on_c, 1, 48, 110
3, 635128, Note_off_c, 1, 48, 100
3, 635136, Note_on_c, 1, 36, 110
3, 635320, Note_off_c, 1, 36, 100
3, 635328, Note_on_c, 1, 48, 110
3, 635512, Note_off_c, 1, 48, 100
3, 635520, Note_on_c, 1, 36, 110
3, 635704, Note_off_c, 1, 36, 100
3, 635712, Note_on_c, 1, 48, 110
3, 635896, Note_off_c, 1, 48, 100
3, 635904, Note_on_c, 1, 36, 110
3, 636088, Note_off_c, 1, 36, 100
3, 636096, Note_on_c, 1, 48, 110
3, 636280, Note_off_c, 1, 48, 100
3, 636288, Note_on_c, 1, 36, 110
3, 636472, Note_off_c, 1, 36, 100
3, 636480, Note_on_c, 1, 48, 110
3, 636664, Note_off_c, 1, 48, 100
3, 636672, Note_on_c, 1, 36, 110
3, 636856, Note_off_c, 1, 36, 100
3, 636864, Note_on_c, 1, 48, 110
3, 637048, Note_off_c, 1, 48, 100
3, 637056, Note_on_c, 1, 36, 110
3, 637240, Note_off_c, 1, 36, 100
3, 637248, Note_on_c, 1, 48, 110
3, 637432, Note_off_c, 1, 48, 100
3, 637440, Note_on_c, 1, 34, 110
3, 637624, Note_off_c, 1, 34, 100
3, 637632, Note_on_c, 1, 46, 110
3, 637816, Note_off_c, 1, 46, 100
3, 637824, Note_on_c, 1, 34, 110
3, 638008, Note_off_c, 1, 34, 100
3, 638016, Note_on_c, 1, 46, 110
3, 638200, Note_off_c, 1, 46, 100
3, 638208, Note_on_c, 1, 34, 110
3, 638392, Note_off_c, 1, 34, 100
3, 638400, Note_on_c, 1, 46, 110
3, 638584, Note_off_c, 1, 46, 100
3, 638592, Note_on_c, 1, 34, 110
3, 638776, Note_off_c, 1, 34, 100
3, 638784, Note_on_c, 1, 46, 110
3, 638968, Note_off_c, 1, 46, 100
3, 638976, Note_on_c, 1, 32, 110
3, 639160, Note_off_c, 1, 32, 100
3, 639168, Note_on_c, 1, 44, 110
3, 639352, Note_off_c, 1, 44, 100
3, 639360, Note_on_c, 1, 32, 110
3, 639544, Note_off_c, 1, 32, 100
3, 639552, Note_on_c, 1, 44, 110
3, 639736, Note_off_c, 1, 44, 100
3, 639744, Note_on_c, 1, 32, 110
3, 639928, Note_off_c, 1, 32, 100
3, 639936, Note_on_c, 1, 44, 110
3, 640120, Note_off_c, 1, 44, 100
3, 640128, Note_on_c, 1, 32, 110
3, 640312, Note_off_c, 1, 32, 100
3, 640320, Note_on_c, 1, 44, 110
3, 640504, Note_off_c, 1, 44, 100
3, 640512, Note_on_c, 1, 31, 110
3, 640696, Note_off_c, 1, 31, 100
3, 640704, Note_on_c, 1, 43, 110
3, 640888, Note_off_c, 1, 43, 100
3, 640896, Note_on_c, 1, 31, 110
3, 641080, Note_off_c, 1, 31, 100
3, 641088, Note_on_c, 1, 43, 110
3, 641272, Note_off_c, 1, 43, 100
3, 641280, Note_on_c, 1, 31, 110
3, 641464, Note_off_c, 1, 31, 100
3, 641472, Note_on_c, 1, 43, 110
3, 641656, Note_off_c, 1, 43, 100
3, 641664, Note_on_c, 1, 31, 110
3, 641848, Note_off_c, 1, 31, 100
3, 641856, Note_on_c, 1, 43, 110
3, 642040, Note_off_c, 1, 43, 100
3, 642048, Note_on_c, 1, 42, 120
3, 642048, Note_on_c, 1, 30, 120
3, 643576, Note_off_c, 1, 42, 100
3, 643576, Note_off_c, 1, 30, 100
3, 643584, Note_on_c, 1, 51, 120
3, 643584, Note_on_c, 1, 48, 120
3, 643584, Note_on_c, 1, 45, 120
3, 643584, Note_on_c, 1, 42, 120
3, 648184, Note_off_c, 1, 42, 100
3, 648184, Note_off_c, 1, 45, 100
3, 648184, Note_off_c, 1, 48, 100
3, 648184, Note_off_c, 1, 51, 100
3, 648720, Note_on_c, 1, 63, 80
3, 648764, Note_off_c, 1, 63, 100
3, 648768, Note_on_c, 1, 62, 80
3, 648908, Note_off_c, 1, 62, 100
3, 648912, Note_on_c, 1, 60, 80
3, 648956, Note_off_c, 1, 60, 100
3, 648960, Note_on_c, 1, 60, 80
3, 649340, Note_off_c, 1, 60, 100
3, 649344, Note_on_c, 1, 59, 80
3, 649532, Note_off_c, 1, 59, 100
3, 650256, Note_on_c, 1, 68, 80
3, 650300, Note_off_c, 1, 68, 100
3, 650304, Note_on_c, 1, 67, 80
3, 650444, Note_off_c, 1, 67, 100
3, 650448, Note_on_c, 1, 65, 80
3, 650492, Note_off_c, 1, 65, 100
3, 650496, Note_on_c, 1, 65, 80
3, 650876, Note_off_c, 1, 65, 100
3, 650880, Note_on_c, 1, 63, 70
3, 651068, Note_off_c, 1, 63, 100
3, 651792, Note_on_c, 1, 67, 80
3, 651792, Note_on_c, 1, 64, 80
3, 651792, Note_on_c, 1, 61, 80
3, 651836, Note_off_c, 1, 67, 100
3, 651836, Note_off_c, 1, 64, 100
3, 651836, Note_off_c, 1, 61, 100
3, 651840, Note_on_c, 1, 67, 85
3, 651840, Note_on_c, 1, 64, 85
3, 651840, Note_on_c, 1, 60, 85
3, 651980, Note_off_c, 1, 67, 100
3, 651980, Note_off_c, 1, 64, 100
3, 651980, Note_off_c, 1, 60, 100
3, 651984, Note_on_c, 1, 67, 103
3, 651984, Note_on_c, 1, 64, 103
3, 651984, Note_on_c, 1, 58, 103
3, 652028, Note_off_c, 1, 67, 100
3, 652028, Note_off_c, 1, 64, 100
3, 652028, Note_off_c, 1, 58, 100
3, 652032, Note_on_c, 1, 67, 109
3, 652032, Note_on_c, 1, 64, 109
3, 652032, Note_on_c, 1, 58, 109
3, 652032, Note_on_c, 1, 56, 109
3, 652412, Note_off_c, 1, 67, 100
3, 652412, Note_off_c, 1, 64, 100
3, 652412, Note_off_c, 1, 58, 100
3, 652416, Note_on_c, 1, 68, 80
3, 652416, Note_on_c, 1, 65, 80
3, 652416, Note_on_c, 1, 60, 80
3, 652604, Note_off_c, 1, 56, 100
3, 652604, Note_off_c, 1, 68, 100
3, 652604, Note_off_c, 1, 65, 100
3, 652604, Note_off_c, 1, 60, 100
3, 652608, Note_on_c, 1, 64, 79
3, 652608, Note_on_c, 1, 60, 79
3, 652608, Note_on_c, 1, 55, 79
3, 652796, Note_off_c, 1, 64, 100
3, 652796, Note_off_c, 1, 60, 100
3, 652796, Note_off_c, 1, 55, 100
3, 652800, Note_on_c, 1, 65, 77
3, 652800, Note_on_c, 1, 60, 77
3, 652800, Note_on_c, 1, 53, 77
3, 652988, Note_off_c, 1, 65, 100
3, 652988, Note_off_c, 1, 60, 100
3, 652988, Note_off_c, 1, 53, 100
3, 652992, Note_on_c, 1, 60, 75
3, 652992, Note_on_c, 1, 55, 75
3, 652992, Note_on_c, 1, 51, 75
3, 653180, Note_off_c, 1, 60, 100
3, 653180, Note_off_c, 1, 55, 100
3, 653180, Note_off_c, 1, 51, 100
3, 653184, Note_on_c, 1, 59, 73
3, 653184, Note_on_c, 1, 55, 73
3, 653184, Note_on_c, 1, 50, 73
3, 653372, Note_off_c, 1, 59, 100
3, 653372, Note_off_c, 1, 55, 100
3, 653372, Note_off_c, 1, 50, 100
3, 653376, Note_on_c, 1, 60, 71
3, 653376, Note_on_c, 1, 55, 71
3, 653376, Note_on_c, 1, 48, 71
3, 653564, Note_off_c, 1, 60, 100
3, 653564, Note_off_c, 1, 55, 100
3, 653564, Note_off_c, 1, 48, 100
3, 653568, Note_on_c, 1, 53, 70
3, 653756, Note_off_c, 1, 53, 100
3, 653952, Note_on_c, 1, 43, 68
3, 653952, Note_on_c, 1, 31, 68
3, 654140, Note_off_c, 1, 43, 100
3, 654140, Note_off_c, 1, 31, 100
3, 654720, Note_on_c, 1, 36, 80
3, 654904, Note_off_c, 1, 36, 100
3, 654912, Note_on_c, 1, 48, 80
3, 655096, Note_off_c, 1, 48, 100
3, 655104, Note_on_c, 1, 36, 80
3, 655288, Note_off_c, 1, 36, 100
3, 655296, Note_on_c, 1, 48, 80
3, 655480, Note_off_c, 1, 48, 100
3, 655488, Note_on_c, 1, 36, 80
3, 655672, Note_off_c, 1, 36, 100
3, 655680, Note_on_c, 1, 48, 80
3, 655864, Note_off_c, 1, 48, 100
3, 655872, Note_on_c, 1, 36, 80
3, 656056, Note_off_c, 1, 36, 100
3, 656064, Note_on_c, 1, 48, 80
3, 656248, Note_off_c, 1, 48, 100
3, 656256, Note_on_c, 1, 36, 80
3, 656440, Note_off_c, 1, 36, 100
3, 656448, Note_on_c, 1, 48, 80
3, 656632, Note_off_c, 1, 48, 100
3, 656640, Note_on_c, 1, 36, 80
3, 656824, Note_off_c, 1, 36, 100
3, 656832, Note_on_c, 1, 48, 80
3, 657016, Note_off_c, 1, 48, 100
3, 657024, Note_on_c, 1, 36, 80
3, 657208, Note_off_c, 1, 36, 100
3, 657216, Note_on_c, 1, 48, 80
3, 657400, Note_off_c, 1, 48, 100
3, 657408, Note_on_c, 1, 36, 80
3, 657592, Note_off_c, 1, 36, 100
3, 657600, Note_on_c, 1, 48, 80
3, 657784, Note_off_c, 1, 48, 100
3, 657792, Note_on_c, 1, 36, 80
3, 657976, Note_off_c, 1, 36, 100
3, 657984, Note_on_c, 1, 48, 80
3, 658168, Note_off_c, 1, 48, 100
3, 658176, Note_on_c, 1, 36, 100
3, 658360, Note_off_c, 1, 36, 100
3, 658368, Note_on_c, 1, 48, 80
3, 658552, Note_off_c, 1, 48, 100
3, 658560, Note_on_c, 1, 36, 80
3, 658744, Note_off_c, 1, 36, 100
3, 658752, Note_on_c, 1, 48, 80
3, 658936, Note_off_c, 1, 48, 100
3, 658944, Note_on_c, 1, 36, 80
3, 659128, Note_off_c, 1, 36, 100
3, 659136, Note_on_c, 1, 48, 80
3, 659320, Note_off_c, 1, 48, 100
3, 659328, Note_on_c, 1, 36, 80
3, 659512, Note_off_c, 1, 36, 100
3, 659520, Note_on_c, 1, 48, 81
3, 659704, Note_off_c, 1, 48, 100
3, 659712, Note_on_c, 1, 36, 82
3, 659896, Note_off_c, 1, 36, 100
3, 659904, Note_on_c, 1, 48, 83
3, 660088, Note_off_c, 1, 48, 100
3, 660096, Note_on_c, 1, 36, 85
3, 660280, Note_off_c, 1, 36, 100
3, 660288, Note_on_c, 1, 48, 86
3, 660472, Note_off_c, 1, 48, 100
3, 660480, Note_on_c, 1, 36, 87
3, 660664, Note_off_c, 1, 36, 100
3, 660672, Note_on_c, 1, 48, 89
3, 660856, Note_off_c, 1, 48, 100
3, 660864, Note_on_c, 1, 36, 90
3, 661048, Note_off_c, 1, 36, 100
3, 661056, Note_on_c, 1, 48, 91
3, 661240, Note_off_c, 1, 48, 100
3, 661248, Note_on_c, 1, 36, 93
3, 661432, Note_off_c, 1, 36, 100
3, 661440, Note_on_c, 1, 48, 94
3, 661624, Note_off_c, 1, 48, 100
3, 661632, Note_on_c, 1, 34, 95
3, 661816, Note_off_c, 1, 34, 100
3, 661824, Note_on_c, 1, 46, 96
3, 662008, Note_off_c, 1, 46, 100
3, 662016, Note_on_c, 1, 34, 98
3, 662200, Note_off_c, 1, 34, 100
3, 662208, Note_on_c, 1, 46, 99
3, 662392, Note_off_c, 1, 46, 100
3, 662400, Note_on_c, 1, 32, 100
3, 662584, Note_off_c, 1, 32, 100
3, 662592, Note_on_c, 1, 44, 102
3, 662776, Note_off_c, 1, 44, 100
3, 662784, Note_on_c, 1, 32, 103
3, 662968, Note_off_c, 1, 32, 100
3, 662976, Note_on_c, 1, 44, 104
3, 663160, Note_off_c, 1, 44, 100
3, 663168, Note_on_c, 1, 31, 106
3, 663352, Note_off_c, 1, 31, 100
3, 663360, Note_on_c, 1, 43, 107
3, 663544, Note_off_c, 1, 43, 100
3, 663552, Note_on_c, 1, 31, 108
3, 663736, Note_off_c, 1, 31, 100
3, 663744, Note_on_c, 1, 43, 109
3, 663928, Note_off_c, 1, 43, 100
3, 663936, Note_on_c, 1, 42, 120
3, 663936, Note_on_c, 1, 30, 120
3, 664696, Note_off_c, 1, 42, 100
3, 664696, Note_off_c, 1, 30, 100
3, 665472, Note_on_c, 1, 63, 120
3, 665472, Note_on_c, 1, 60, 120
3, 665472, Note_on_c, 1, 57, 120
3, 665472, Note_on_c, 1, 54, 120
3, 666232, Note_off_c, 1, 63, 100
3, 666232, Note_off_c, 1, 60, 100
3, 666232, Note_off_c, 1, 57, 100
3, 666232, Note_off_c, 1, 54, 100
3, 667008, Note_on_c, 1, 63, 120
3, 667008, Note_on_c, 1, 60, 120
3, 667008, Note_on_c, 1, 55, 120
3, 667768, Note_off_c, 1, 63, 100
3, 667768, Note_off_c, 1, 60, 100
3, 667768, Note_off_c, 1, 55, 100
3, 668544, Note_on_c, 1, 43, 120
3, 668544, Note_on_c, 1, 38, 120
3, 668544, Note_on_c, 1, 35, 120
3, 668544, Note_on_c, 1, 31, 120
3, 669304, Note_off_c, 1, 43, 100
3, 669304, Note_off_c, 1, 38, 100
3, 669304, Note_off_c, 1, 35, 100
3, 669304, Note_off_c, 1, 31, 100
3, 670080, Note_on_c, 1, 36, 120
3, 670080, Note_on_c, 1, 39, 120
3, 670080, Note_on_c, 1, 43, 120
3, 670080, Note_on_c, 1, 48, 120
3, 671992, Note_off_c, 1, 48, 100
3, 671992, Note_off_c, 1, 43, 100
3, 671992, Note_off_c, 1, 39, 100
3, 671992, Note_off_c, 1, 36, 100
3, 671992, End_track
0, 0, End_of_file
