0, 0, Header, 1, 3, 384
1, 0, Start_track
1, 0, Title_t, "L.v.Beethoven 3mov - Piano Sonata No.8 in C minor Op.13\000"
1, 0, Copyright_t, "Copyright(C) 1995-2009, Suzuki Software\000"
1, 0, Sequencer_specific, 9, 67, 123, 0, 88, 70, 48, 50, 0, 1
1, 0, Text_t, "XFhd:2000/04/17:JP:Classical::::L.v.Beethoven:::Kaoru Suzuki\000"
1, 0, Text_t, "XFln:JP:\203s\203A\203m\203\\\203i\203^\221æ8\224Ô\203n\222Z\222²\215ì\225i13\201`\221æ3\212y\217Í:L.v.\203x\201[\203g\201[\203\224\203F\203\223:::\227é\202¿\202á\202ñ:\227é\202¿\202á\202ñ\000"
1, 0, Time_signature, 2, 2, 96, 8
1, 0, Sequencer_specific, 3, 0, 0, 65
1, 0, Sequencer_specific, 5, 0, 0, 119, 14, 0
1, 0, Tempo, 300000
1, 768, Time_signature, 4, 2, 96, 8
1, 63744, Tempo, 315789
1, 64512, Tempo, 333333
1, 64896, Tempo, 352941
1, 66048, Tempo, 300000
1, 70656, Tempo, 324324
1, 71424, Tempo, 352941
1, 72576, Tempo, 300000
1, 86784, Tempo, 307692
1, 87168, Tempo, 315789
1, 87552, Tempo, 337078
1, 87936, Tempo, 363636
1, 88128, Tempo, 400000
1, 88320, Tempo, 333333
1, 95616, Tempo, 300000
1, 178944, Tempo, 307692
1, 179328, Tempo, 315789
1, 179712, Tempo, 333333
1, 180096, Tempo, 352941
1, 180288, Tempo, 400000
1, 180480, Tempo, 333333
1, 187776, Tempo, 300000
1, 238464, Tempo, 333333
1, 238848, Tempo, 315789
1, 241920, Tempo, 329670
1, 242688, Tempo, 346820
1, 244992, Tempo, 307692
1, 261888, Tempo, 315789
1, 263424, Tempo, 324324
1, 264576, Tempo, 352941
1, 265344, Tempo, 300000
1, 304896, Tempo, 315789
1, 305664, Tempo, 333333
1, 306816, Tempo, 375000
1, 315648, Tempo, 333333
1, 320256, Tempo, 333333
1, 322944, Tempo, 375000
1, 324096, Tempo, 319148
1, 324864, Tempo, 300000
1, 326016, Tempo, 315789
1, 326016, End_track
2, 0, Start_track
2, 0, Title_t, "Right"
2, 0, Control_c, 0, 0, 0
2, 0, Program_c, 0, 0
2, 0, Control_c, 0, 7, 100
2, 0, Control_c, 0, 10, 78
2, 0, Control_c, 0, 91, 127
2, 0, Key_signature, -3, "minor"
2, 192, Note_on_c, 0, 67, 80
2, 380, Note_off_c, 0, 67, 100
2, 384, Note_on_c, 0, 72, 80
2, 572, Note_off_c, 0, 72, 100
2, 576, Note_on_c, 0, 74, 80
2, 764, Note_off_c, 0, 74, 100
2, 768, Note_on_c, 0, 75, 80
2, 1340, Note_off_c, 0, 75, 100
2, 1344, Note_on_c, 0, 77, 80
2, 1532, Note_off_c, 0, 77, 100
2, 1536, Note_on_c, 0, 74, 80
2, 2108, Note_off_c, 0, 74, 100
2, 2112, Note_on_c, 0, 75, 80
2, 2300, Note_off_c, 0, 75, 100
2, 2304, Note_on_c, 0, 72, 80
2, 3068, Note_off_c, 0, 72, 100
2, 3072, Note_on_c, 0, 74, 80
2, 3116, Note_off_c, 0, 74, 100
2, 3120, Note_on_c, 0, 72, 80
2, 3260, Note_off_c, 0, 72, 100
2, 3264, Note_on_c, 0, 71, 80
2, 3452, Note_off_c, 0, 71, 100
2, 3456, Note_on_c, 0, 72, 80
2, 3644, Note_off_c, 0, 72, 100
2, 3648, Note_on_c, 0, 74, 80
2, 3836, Note_off_c, 0, 74, 100
2, 3840, Note_on_c, 0, 77, 80
2, 3884, Note_off_c, 0, 77, 100
2, 3888, Note_on_c, 0, 75, 80
2, 4028, Note_off_c, 0, 75, 100
2, 4032, Note_on_c, 0, 74, 80
2, 4220, Note_off_c, 0, 74, 100
2, 4224, Note_on_c, 0, 75, 80
2, 4412, Note_off_c, 0, 75, 100
2, 4416, Note_on_c, 0, 77, 80
2, 4604, Note_off_c, 0, 77, 100
2, 4608, Note_on_c, 0, 79, 80
2, 4988, Note_off_c, 0, 79, 100
2, 4992, Note_on_c, 0, 79, 80
2, 5372, Note_off_c, 0, 79, 100
2, 5376, Note_on_c, 0, 79, 80
2, 6524, Note_off_c, 0, 79, 100
2, 6528, Note_on_c, 0, 77, 80
2, 6716, Note_off_c, 0, 77, 100
2, 6720, Note_on_c, 0, 79, 80
2, 6908, Note_off_c, 0, 79, 100
2, 6912, Note_on_c, 0, 77, 80
2, 7004, Note_off_c, 0, 77, 100
2, 7008, Note_on_c, 0, 79, 80
2, 7100, Note_off_c, 0, 79, 100
2, 7104, Note_on_c, 0, 80, 80
2, 7676, Note_off_c, 0, 80, 100
2, 7680, Note_on_c, 0, 74, 80
2, 8060, Note_off_c, 0, 74, 100
2, 8064, Note_on_c, 0, 75, 80
2, 8252, Note_off_c, 0, 75, 100
2, 8256, Note_on_c, 0, 77, 80
2, 8444, Note_off_c, 0, 77, 100
2, 8448, Note_on_c, 0, 75, 80
2, 8540, Note_off_c, 0, 75, 100
2, 8544, Note_on_c, 0, 77, 80
2, 8636, Note_off_c, 0, 77, 100
2, 8640, Note_on_c, 0, 79, 80
2, 9212, Note_off_c, 0, 79, 100
2, 9216, Note_on_c, 0, 72, 80
2, 9596, Note_off_c, 0, 72, 100
2, 9600, Note_on_c, 0, 72, 80
2, 9788, Note_off_c, 0, 72, 100
2, 9792, Note_on_c, 0, 74, 80
2, 9980, Note_off_c, 0, 74, 100
2, 9984, Note_on_c, 0, 75, 80
2, 10364, Note_off_c, 0, 75, 100
2, 10368, Note_on_c, 0, 75, 80
2, 10556, Note_off_c, 0, 75, 100
2, 10560, Note_on_c, 0, 77, 80
2, 10748, Note_off_c, 0, 77, 100
2, 10752, Note_on_c, 0, 74, 80
2, 11132, Note_off_c, 0, 74, 100
2, 11136, Note_on_c, 0, 74, 80
2, 11324, Note_off_c, 0, 74, 100
2, 11328, Note_on_c, 0, 75, 80
2, 11516, Note_off_c, 0, 75, 100
2, 11520, Note_on_c, 0, 72, 80
2, 11900, Note_off_c, 0, 72, 100
2, 12672, Note_on_c, 0, 77, 80
2, 12860, Note_off_c, 0, 77, 100
2, 12864, Note_on_c, 0, 79, 80
2, 13052, Note_off_c, 0, 79, 100
2, 13056, Note_on_c, 0, 80, 80
2, 13056, Note_on_c, 0, 68, 80
2, 13820, Note_off_c, 0, 80, 100
2, 13820, Note_off_c, 0, 68, 100
2, 13824, Note_on_c, 0, 74, 80
2, 14204, Note_off_c, 0, 74, 100
2, 14208, Note_on_c, 0, 75, 80
2, 14396, Note_off_c, 0, 75, 100
2, 14400, Note_on_c, 0, 77, 80
2, 14588, Note_off_c, 0, 77, 100
2, 14592, Note_on_c, 0, 79, 80
2, 14592, Note_on_c, 0, 67, 80
2, 15356, Note_off_c, 0, 79, 100
2, 15356, Note_off_c, 0, 67, 100
2, 15360, Note_on_c, 0, 72, 80
2, 15740, Note_off_c, 0, 72, 100
2, 15744, Note_on_c, 0, 72, 80
2, 15932, Note_off_c, 0, 72, 100
2, 15936, Note_on_c, 0, 74, 80
2, 16124, Note_off_c, 0, 74, 100
2, 16128, Note_on_c, 0, 75, 80
2, 16508, Note_off_c, 0, 75, 100
2, 16512, Note_on_c, 0, 75, 80
2, 16700, Note_off_c, 0, 75, 100
2, 16704, Note_on_c, 0, 77, 80
2, 16892, Note_off_c, 0, 77, 100
2, 16896, Note_on_c, 0, 74, 80
2, 17276, Note_off_c, 0, 74, 100
2, 17280, Note_on_c, 0, 74, 80
2, 17468, Note_off_c, 0, 74, 100
2, 17472, Note_on_c, 0, 75, 80
2, 17660, Note_off_c, 0, 75, 100
2, 17664, Note_on_c, 0, 72, 80
2, 18044, Note_off_c, 0, 72, 100
2, 18048, Note_on_c, 0, 82, 81
2, 18812, Note_off_c, 0, 82, 100
2, 18816, Note_on_c, 0, 82, 85
2, 19388, Note_off_c, 0, 82, 100
2, 19392, Note_on_c, 0, 80, 88
2, 19580, Note_off_c, 0, 80, 100
2, 19584, Note_on_c, 0, 79, 89
2, 19772, Note_off_c, 0, 79, 100
2, 19776, Note_on_c, 0, 77, 90
2, 19964, Note_off_c, 0, 77, 100
2, 19968, Note_on_c, 0, 75, 91
2, 20156, Note_off_c, 0, 75, 100
2, 20160, Note_on_c, 0, 74, 92
2, 20348, Note_off_c, 0, 74, 100
2, 20352, Note_on_c, 0, 72, 93
2, 20540, Note_off_c, 0, 72, 100
2, 20544, Note_on_c, 0, 71, 94
2, 20732, Note_off_c, 0, 71, 100
2, 20736, Note_on_c, 0, 72, 95
2, 21116, Note_off_c, 0, 72, 100
2, 21120, Note_on_c, 0, 84, 97
2, 21120, Note_on_c, 0, 72, 97
2, 21884, Note_off_c, 0, 84, 100
2, 21884, Note_off_c, 0, 72, 100
2, 21888, Note_on_c, 0, 82, 101
2, 22460, Note_off_c, 0, 82, 100
2, 22464, Note_on_c, 0, 80, 104
2, 22652, Note_off_c, 0, 80, 100
2, 22656, Note_on_c, 0, 79, 105
2, 22844, Note_off_c, 0, 79, 100
2, 22848, Note_on_c, 0, 77, 106
2, 23036, Note_off_c, 0, 77, 100
2, 23040, Note_on_c, 0, 75, 107
2, 23228, Note_off_c, 0, 75, 100
2, 23232, Note_on_c, 0, 74, 108
2, 23420, Note_off_c, 0, 74, 100
2, 23424, Note_on_c, 0, 72, 109
2, 23612, Note_off_c, 0, 72, 100
2, 23616, Note_on_c, 0, 71, 109
2, 23804, Note_off_c, 0, 71, 100
2, 23808, Note_on_c, 0, 72, 110
2, 24188, Note_off_c, 0, 72, 100
2, 24192, Note_on_c, 0, 74, 110
2, 24284, Note_off_c, 0, 74, 100
2, 24288, Note_on_c, 0, 75, 110
2, 24380, Note_off_c, 0, 75, 100
2, 24384, Note_on_c, 0, 72, 110
2, 24476, Note_off_c, 0, 72, 100
2, 24480, Note_on_c, 0, 74, 110
2, 24572, Note_off_c, 0, 74, 100
2, 24576, Note_on_c, 0, 75, 110
2, 24956, Note_off_c, 0, 75, 100
2, 24960, Note_on_c, 0, 71, 110
2, 24960, Note_on_c, 0, 74, 110
2, 24960, Note_on_c, 0, 83, 110
2, 25340, Note_off_c, 0, 71, 100
2, 25340, Note_off_c, 0, 74, 100
2, 25340, Note_off_c, 0, 83, 100
2, 25344, Note_on_c, 0, 84, 110
2, 25344, Note_on_c, 0, 75, 110
2, 25344, Note_on_c, 0, 72, 110
2, 25724, Note_off_c, 0, 84, 100
2, 25724, Note_off_c, 0, 75, 100
2, 25724, Note_off_c, 0, 72, 100
2, 26880, Note_on_c, 0, 64, 110
2, 26880, Note_on_c, 0, 60, 110
2, 26880, Note_on_c, 0, 55, 110
2, 28412, Note_off_c, 0, 64, 100
2, 28412, Note_off_c, 0, 60, 100
2, 28412, Note_off_c, 0, 55, 100
2, 28416, Note_on_c, 0, 65, 80
2, 28604, Note_off_c, 0, 65, 100
2, 28608, Note_on_c, 0, 72, 80
2, 28796, Note_off_c, 0, 72, 100
2, 28800, Note_on_c, 0, 68, 80
2, 28988, Note_off_c, 0, 68, 100
2, 28992, Note_on_c, 0, 77, 80
2, 29180, Note_off_c, 0, 77, 100
2, 29184, Note_on_c, 0, 72, 80
2, 29372, Note_off_c, 0, 72, 100
2, 29376, Note_on_c, 0, 80, 80
2, 29564, Note_off_c, 0, 80, 100
2, 29568, Note_on_c, 0, 77, 80
2, 29756, Note_off_c, 0, 77, 100
2, 29760, Note_on_c, 0, 84, 80
2, 29948, Note_off_c, 0, 84, 100
2, 29952, Note_on_c, 0, 82, 80
2, 30140, Note_off_c, 0, 82, 100
2, 30144, Note_on_c, 0, 79, 80
2, 30332, Note_off_c, 0, 79, 100
2, 30336, Note_on_c, 0, 76, 80
2, 30524, Note_off_c, 0, 76, 100
2, 30528, Note_on_c, 0, 72, 80
2, 30716, Note_off_c, 0, 72, 100
2, 30720, Note_on_c, 0, 70, 80
2, 30908, Note_off_c, 0, 70, 100
2, 30912, Note_on_c, 0, 71, 80
2, 31100, Note_off_c, 0, 71, 100
2, 31104, Note_on_c, 0, 72, 80
2, 31292, Note_off_c, 0, 72, 100
2, 31296, Note_on_c, 0, 67, 80
2, 31484, Note_off_c, 0, 67, 100
2, 31488, Note_on_c, 0, 70, 80
2, 32252, Note_off_c, 0, 70, 100
2, 32256, Note_on_c, 0, 68, 80
2, 32636, Note_off_c, 0, 68, 100
2, 33024, Note_on_c, 0, 62, 110
2, 33024, Note_on_c, 0, 58, 110
2, 33024, Note_on_c, 0, 53, 110
2, 34556, Note_off_c, 0, 62, 100
2, 34556, Note_off_c, 0, 58, 100
2, 34556, Note_off_c, 0, 53, 100
2, 34560, Note_on_c, 0, 63, 80
2, 34748, Note_off_c, 0, 63, 100
2, 34752, Note_on_c, 0, 70, 80
2, 34940, Note_off_c, 0, 70, 100
2, 34944, Note_on_c, 0, 67, 80
2, 35132, Note_off_c, 0, 67, 100
2, 35136, Note_on_c, 0, 75, 80
2, 35324, Note_off_c, 0, 75, 100
2, 35328, Note_on_c, 0, 70, 80
2, 35516, Note_off_c, 0, 70, 100
2, 35520, Note_on_c, 0, 79, 80
2, 35708, Note_off_c, 0, 79, 100
2, 35712, Note_on_c, 0, 75, 80
2, 35900, Note_off_c, 0, 75, 100
2, 35904, Note_on_c, 0, 82, 80
2, 36092, Note_off_c, 0, 82, 100
2, 36096, Note_on_c, 0, 80, 80
2, 36284, Note_off_c, 0, 80, 100
2, 36288, Note_on_c, 0, 79, 80
2, 36476, Note_off_c, 0, 79, 100
2, 36480, Note_on_c, 0, 77, 80
2, 36668, Note_off_c, 0, 77, 100
2, 36672, Note_on_c, 0, 75, 80
2, 36860, Note_off_c, 0, 75, 100
2, 36864, Note_on_c, 0, 74, 80
2, 37052, Note_off_c, 0, 74, 100
2, 37056, Note_on_c, 0, 72, 80
2, 37244, Note_off_c, 0, 72, 100
2, 37248, Note_on_c, 0, 70, 80
2, 37436, Note_off_c, 0, 70, 100
2, 37440, Note_on_c, 0, 68, 80
2, 37628, Note_off_c, 0, 68, 100
2, 37632, Note_on_c, 0, 67, 80
2, 38012, Note_off_c, 0, 67, 100
2, 38016, Note_on_c, 0, 70, 80
2, 38780, Note_off_c, 0, 70, 100
2, 38784, Note_on_c, 0, 70, 80
2, 39356, Note_off_c, 0, 70, 100
2, 39360, Note_on_c, 0, 72, 80
2, 39548, Note_off_c, 0, 72, 100
2, 39552, Note_on_c, 0, 74, 80
2, 39740, Note_off_c, 0, 74, 100
2, 39744, Note_on_c, 0, 75, 80
2, 39932, Note_off_c, 0, 75, 100
2, 39936, Note_on_c, 0, 77, 80
2, 40124, Note_off_c, 0, 77, 100
2, 40128, Note_on_c, 0, 79, 80
2, 40316, Note_off_c, 0, 79, 100
2, 40320, Note_on_c, 0, 80, 80
2, 40508, Note_off_c, 0, 80, 100
2, 40512, Note_on_c, 0, 77, 80
2, 40700, Note_off_c, 0, 77, 100
2, 40704, Note_on_c, 0, 80, 80
2, 40892, Note_off_c, 0, 80, 100
2, 40896, Note_on_c, 0, 79, 80
2, 41084, Note_off_c, 0, 79, 100
2, 41088, Note_on_c, 0, 77, 80
2, 41276, Note_off_c, 0, 77, 100
2, 41280, Note_on_c, 0, 75, 80
2, 41468, Note_off_c, 0, 75, 100
2, 41472, Note_on_c, 0, 75, 80
2, 41660, Note_off_c, 0, 75, 100
2, 41664, Note_on_c, 0, 74, 80
2, 41852, Note_off_c, 0, 74, 100
2, 41856, Note_on_c, 0, 72, 80
2, 42044, Note_off_c, 0, 72, 100
2, 42048, Note_on_c, 0, 74, 80
2, 42236, Note_off_c, 0, 74, 100
2, 42240, Note_on_c, 0, 77, 80
2, 42428, Note_off_c, 0, 77, 100
2, 42432, Note_on_c, 0, 75, 80
2, 42620, Note_off_c, 0, 75, 100
2, 42624, Note_on_c, 0, 74, 80
2, 42812, Note_off_c, 0, 74, 100
2, 42816, Note_on_c, 0, 72, 80
2, 43004, Note_off_c, 0, 72, 100
2, 43008, Note_on_c, 0, 70, 80
2, 43008, Note_on_c, 0, 68, 80
2, 43388, Note_off_c, 0, 70, 100
2, 43388, Note_off_c, 0, 68, 100
2, 43392, Note_on_c, 0, 70, 80
2, 43392, Note_on_c, 0, 68, 80
2, 43772, Note_off_c, 0, 70, 100
2, 43772, Note_off_c, 0, 68, 100
2, 43776, Note_on_c, 0, 70, 80
2, 43776, Note_on_c, 0, 68, 80
2, 43964, Note_off_c, 0, 68, 100
2, 43968, Note_on_c, 0, 67, 80
2, 44156, Note_off_c, 0, 67, 100
2, 44160, Note_on_c, 0, 65, 80
2, 44348, Note_off_c, 0, 65, 100
2, 44352, Note_on_c, 0, 63, 80
2, 44540, Note_off_c, 0, 63, 100
2, 44544, Note_on_c, 0, 63, 80
2, 44732, Note_off_c, 0, 63, 100
2, 44736, Note_on_c, 0, 62, 80
2, 44924, Note_off_c, 0, 62, 100
2, 44928, Note_on_c, 0, 60, 80
2, 45116, Note_off_c, 0, 60, 100
2, 45120, Note_on_c, 0, 62, 80
2, 45308, Note_off_c, 0, 62, 100
2, 45312, Note_on_c, 0, 63, 80
2, 45500, Note_off_c, 0, 70, 100
2, 45500, Note_off_c, 0, 63, 100
2, 45504, Note_on_c, 0, 72, 80
2, 45692, Note_off_c, 0, 72, 100
2, 45696, Note_on_c, 0, 74, 80
2, 45884, Note_off_c, 0, 74, 100
2, 45888, Note_on_c, 0, 75, 80
2, 46076, Note_off_c, 0, 75, 100
2, 46080, Note_on_c, 0, 77, 80
2, 46268, Note_off_c, 0, 77, 100
2, 46272, Note_on_c, 0, 78, 80
2, 46460, Note_off_c, 0, 78, 100
2, 46464, Note_on_c, 0, 80, 80
2, 46652, Note_off_c, 0, 80, 100
2, 46656, Note_on_c, 0, 77, 80
2, 46844, Note_off_c, 0, 77, 100
2, 46848, Note_on_c, 0, 78, 80
2, 47228, Note_off_c, 0, 78, 100
2, 47232, Note_on_c, 0, 82, 81
2, 47996, Note_off_c, 0, 82, 100
2, 48000, Note_on_c, 0, 82, 85
2, 48764, Note_off_c, 0, 82, 100
2, 48768, Note_on_c, 0, 87, 89
2, 49532, Note_off_c, 0, 87, 100
2, 49536, Note_on_c, 0, 81, 93
2, 49916, Note_off_c, 0, 81, 100
2, 49920, Note_on_c, 0, 82, 80
2, 50812, Note_off_c, 0, 82, 100
2, 50816, Note_on_c, 0, 81, 80
2, 50940, Note_off_c, 0, 81, 100
2, 50944, Note_on_c, 0, 82, 80
2, 51068, Note_off_c, 0, 82, 100
2, 51072, Note_on_c, 0, 84, 80
2, 51196, Note_off_c, 0, 84, 100
2, 51200, Note_on_c, 0, 82, 80
2, 51324, Note_off_c, 0, 82, 100
2, 51328, Note_on_c, 0, 81, 80
2, 51452, Note_off_c, 0, 81, 100
2, 51456, Note_on_c, 0, 82, 80
2, 52348, Note_off_c, 0, 82, 100
2, 52352, Note_on_c, 0, 81, 80
2, 52476, Note_off_c, 0, 81, 100
2, 52480, Note_on_c, 0, 82, 80
2, 52604, Note_off_c, 0, 82, 100
2, 52608, Note_on_c, 0, 84, 80
2, 52732, Note_off_c, 0, 84, 100
2, 52736, Note_on_c, 0, 82, 80
2, 52860, Note_off_c, 0, 82, 100
2, 52864, Note_on_c, 0, 81, 80
2, 52988, Note_off_c, 0, 81, 100
2, 53120, Note_on_c, 0, 82, 80
2, 53244, Note_off_c, 0, 82, 100
2, 53248, Note_on_c, 0, 84, 80
2, 53372, Note_off_c, 0, 84, 100
2, 53376, Note_on_c, 0, 86, 80
2, 53500, Note_off_c, 0, 86, 100
2, 53504, Note_on_c, 0, 84, 80
2, 53628, Note_off_c, 0, 84, 100
2, 53632, Note_on_c, 0, 82, 80
2, 53756, Note_off_c, 0, 82, 100
2, 53888, Note_on_c, 0, 86, 80
2, 54012, Note_off_c, 0, 86, 100
2, 54016, Note_on_c, 0, 87, 80
2, 54140, Note_off_c, 0, 87, 100
2, 54144, Note_on_c, 0, 89, 80
2, 54268, Note_off_c, 0, 89, 100
2, 54272, Note_on_c, 0, 87, 80
2, 54396, Note_off_c, 0, 87, 100
2, 54400, Note_on_c, 0, 86, 80
2, 54524, Note_off_c, 0, 86, 100
2, 54528, Note_on_c, 0, 89, 80
2, 54652, Note_off_c, 0, 89, 100
2, 54656, Note_on_c, 0, 87, 80
2, 54780, Note_off_c, 0, 87, 100
2, 54784, Note_on_c, 0, 86, 80
2, 54908, Note_off_c, 0, 86, 100
2, 54912, Note_on_c, 0, 84, 80
2, 55036, Note_off_c, 0, 84, 100
2, 55040, Note_on_c, 0, 82, 80
2, 55164, Note_off_c, 0, 82, 100
2, 55168, Note_on_c, 0, 80, 80
2, 55292, Note_off_c, 0, 80, 100
2, 55296, Note_on_c, 0, 79, 80
2, 55420, Note_off_c, 0, 79, 100
2, 55424, Note_on_c, 0, 77, 80
2, 55548, Note_off_c, 0, 77, 100
2, 55552, Note_on_c, 0, 75, 80
2, 55676, Note_off_c, 0, 75, 100
2, 55680, Note_on_c, 0, 74, 80
2, 55772, Note_off_c, 0, 74, 100
2, 55776, Note_on_c, 0, 72, 80
2, 55868, Note_off_c, 0, 72, 100
2, 55872, Note_on_c, 0, 70, 80
2, 55964, Note_off_c, 0, 70, 100
2, 55968, Note_on_c, 0, 68, 80
2, 56060, Note_off_c, 0, 68, 100
2, 56064, Note_on_c, 0, 67, 80
2, 56188, Note_off_c, 0, 67, 100
2, 56192, Note_on_c, 0, 63, 80
2, 56316, Note_off_c, 0, 63, 100
2, 56320, Note_on_c, 0, 65, 80
2, 56444, Note_off_c, 0, 65, 100
2, 56448, Note_on_c, 0, 67, 80
2, 56572, Note_off_c, 0, 67, 100
2, 56576, Note_on_c, 0, 65, 80
2, 56700, Note_off_c, 0, 65, 100
2, 56704, Note_on_c, 0, 63, 80
2, 56828, Note_off_c, 0, 63, 100
2, 56832, Note_on_c, 0, 68, 80
2, 57596, Note_off_c, 0, 68, 100
2, 57600, Note_on_c, 0, 67, 80
2, 57724, Note_off_c, 0, 67, 100
2, 57728, Note_on_c, 0, 75, 80
2, 57852, Note_off_c, 0, 75, 100
2, 57856, Note_on_c, 0, 77, 80
2, 57980, Note_off_c, 0, 77, 100
2, 57984, Note_on_c, 0, 79, 80
2, 58108, Note_off_c, 0, 79, 100
2, 58112, Note_on_c, 0, 77, 80
2, 58236, Note_off_c, 0, 77, 100
2, 58240, Note_on_c, 0, 75, 80
2, 58364, Note_off_c, 0, 75, 100
2, 58368, Note_on_c, 0, 80, 80
2, 59132, Note_off_c, 0, 80, 100
2, 59136, Note_on_c, 0, 79, 80
2, 59260, Note_off_c, 0, 79, 100
2, 59264, Note_on_c, 0, 75, 80
2, 59388, Note_off_c, 0, 75, 100
2, 59392, Note_on_c, 0, 77, 80
2, 59516, Note_off_c, 0, 77, 100
2, 59520, Note_on_c, 0, 79, 80
2, 59644, Note_off_c, 0, 79, 100
2, 59648, Note_on_c, 0, 77, 80
2, 59772, Note_off_c, 0, 77, 100
2, 59776, Note_on_c, 0, 75, 80
2, 59900, Note_off_c, 0, 75, 100
2, 59904, Note_on_c, 0, 82, 80
2, 60028, Note_off_c, 0, 82, 100
2, 60032, Note_on_c, 0, 79, 80
2, 60156, Note_off_c, 0, 79, 100
2, 60160, Note_on_c, 0, 80, 80
2, 60284, Note_off_c, 0, 80, 100
2, 60288, Note_on_c, 0, 82, 80
2, 60412, Note_off_c, 0, 82, 100
2, 60416, Note_on_c, 0, 80, 80
2, 60540, Note_off_c, 0, 80, 100
2, 60544, Note_on_c, 0, 79, 80
2, 60668, Note_off_c, 0, 79, 100
2, 60672, Note_on_c, 0, 85, 80
2, 60796, Note_off_c, 0, 85, 100
2, 60800, Note_on_c, 0, 84, 80
2, 60924, Note_off_c, 0, 84, 100
2, 60928, Note_on_c, 0, 82, 80
2, 61052, Note_off_c, 0, 82, 100
2, 61056, Note_on_c, 0, 80, 80
2, 61180, Note_off_c, 0, 80, 100
2, 61184, Note_on_c, 0, 79, 80
2, 61308, Note_off_c, 0, 79, 100
2, 61312, Note_on_c, 0, 77, 80
2, 61436, Note_off_c, 0, 77, 100
2, 61440, Note_on_c, 0, 75, 80
2, 61564, Note_off_c, 0, 75, 100
2, 61568, Note_on_c, 0, 74, 80
2, 61692, Note_off_c, 0, 74, 100
2, 61696, Note_on_c, 0, 75, 80
2, 61820, Note_off_c, 0, 75, 100
2, 61824, Note_on_c, 0, 76, 80
2, 61948, Note_off_c, 0, 76, 100
2, 61952, Note_on_c, 0, 77, 80
2, 62076, Note_off_c, 0, 77, 100
2, 62080, Note_on_c, 0, 73, 80
2, 62204, Note_off_c, 0, 73, 100
2, 62592, Note_on_c, 0, 60, 80
2, 62716, Note_off_c, 0, 60, 100
2, 62720, Note_on_c, 0, 63, 80
2, 62844, Note_off_c, 0, 63, 100
2, 62848, Note_on_c, 0, 68, 80
2, 62972, Note_off_c, 0, 68, 100
2, 62976, Note_on_c, 0, 72, 80
2, 63100, Note_off_c, 0, 72, 100
2, 63104, Note_on_c, 0, 75, 80
2, 63228, Note_off_c, 0, 75, 100
2, 63232, Note_on_c, 0, 80, 80
2, 63356, Note_off_c, 0, 80, 100
2, 63360, Note_on_c, 0, 84, 80
2, 63548, Note_off_c, 0, 84, 100
2, 63552, Note_on_c, 0, 84, 80
2, 63740, Note_off_c, 0, 84, 100
2, 63744, Note_on_c, 0, 84, 80
2, 63932, Note_off_c, 0, 84, 100
2, 63936, Note_on_c, 0, 82, 80
2, 64124, Note_off_c, 0, 82, 100
2, 64128, Note_on_c, 0, 80, 80
2, 64316, Note_off_c, 0, 80, 100
2, 64320, Note_on_c, 0, 79, 80
2, 64508, Note_off_c, 0, 79, 100
2, 64512, Note_on_c, 0, 79, 80
2, 64700, Note_off_c, 0, 79, 100
2, 64704, Note_on_c, 0, 77, 80
2, 64892, Note_off_c, 0, 77, 100
2, 64896, Note_on_c, 0, 75, 80
2, 65084, Note_off_c, 0, 75, 100
2, 65088, Note_on_c, 0, 74, 80
2, 65276, Note_off_c, 0, 74, 100
2, 65280, Note_on_c, 0, 75, 80
2, 65660, Note_off_c, 0, 75, 100
2, 66432, Note_on_c, 0, 58, 80
2, 66812, Note_off_c, 0, 58, 100
2, 66816, Note_on_c, 0, 65, 80
2, 66816, Note_on_c, 0, 62, 80
2, 67196, Note_off_c, 0, 65, 100
2, 67196, Note_off_c, 0, 62, 100
2, 67200, Note_on_c, 0, 65, 80
2, 67200, Note_on_c, 0, 62, 80
2, 67580, Note_off_c, 0, 65, 100
2, 67580, Note_off_c, 0, 62, 100
2, 67584, Note_on_c, 0, 65, 80
2, 67584, Note_on_c, 0, 62, 80
2, 67964, Note_off_c, 0, 65, 100
2, 67964, Note_off_c, 0, 62, 100
2, 67968, Note_on_c, 0, 65, 80
2, 67968, Note_on_c, 0, 62, 80
2, 68348, Note_off_c, 0, 65, 100
2, 68348, Note_off_c, 0, 62, 100
2, 68352, Note_on_c, 0, 70, 80
2, 68352, Note_on_c, 0, 63, 80
2, 69500, Note_off_c, 0, 70, 100
2, 69500, Note_off_c, 0, 63, 100
2, 69504, Note_on_c, 0, 70, 80
2, 69504, Note_on_c, 0, 63, 80
2, 69884, Note_off_c, 0, 70, 100
2, 69884, Note_off_c, 0, 63, 100
2, 69888, Note_on_c, 0, 68, 80
2, 69888, Note_on_c, 0, 63, 80
2, 70652, Note_off_c, 0, 68, 100
2, 70652, Note_off_c, 0, 63, 100
2, 70656, Note_on_c, 0, 69, 80
2, 70656, Note_on_c, 0, 65, 80
2, 70656, Note_on_c, 0, 63, 80
2, 71420, Note_off_c, 0, 69, 100
2, 71420, Note_off_c, 0, 65, 100
2, 71420, Note_off_c, 0, 63, 100
2, 71424, Note_on_c, 0, 70, 80
2, 71424, Note_on_c, 0, 65, 80
2, 71424, Note_on_c, 0, 62, 80
2, 72572, Note_off_c, 0, 70, 100
2, 72572, Note_off_c, 0, 65, 100
2, 72572, Note_off_c, 0, 62, 100
2, 72576, Note_on_c, 0, 70, 80
2, 72956, Note_off_c, 0, 70, 100
2, 72960, Note_on_c, 0, 77, 80
2, 72960, Note_on_c, 0, 70, 80
2, 73340, Note_off_c, 0, 77, 100
2, 73340, Note_off_c, 0, 70, 100
2, 73344, Note_on_c, 0, 77, 84
2, 73344, Note_on_c, 0, 70, 84
2, 73724, Note_off_c, 0, 77, 100
2, 73724, Note_off_c, 0, 70, 100
2, 73728, Note_on_c, 0, 77, 88
2, 73728, Note_on_c, 0, 70, 88
2, 74108, Note_off_c, 0, 77, 100
2, 74108, Note_off_c, 0, 70, 100
2, 74112, Note_on_c, 0, 77, 92
2, 74112, Note_on_c, 0, 70, 92
2, 74492, Note_off_c, 0, 77, 100
2, 74492, Note_off_c, 0, 70, 100
2, 74496, Note_on_c, 0, 82, 97
2, 74496, Note_on_c, 0, 70, 97
2, 75260, Note_off_c, 0, 70, 100
2, 75264, Note_on_c, 0, 73, 105
2, 75644, Note_off_c, 0, 82, 100
2, 75648, Note_on_c, 0, 83, 109
2, 76028, Note_off_c, 0, 73, 100
2, 76028, Note_off_c, 0, 83, 100
2, 76032, Note_on_c, 0, 84, 110
2, 76032, Note_on_c, 0, 72, 110
2, 76412, Note_off_c, 0, 84, 100
2, 76412, Note_off_c, 0, 72, 100
2, 76800, Note_on_c, 0, 74, 110
2, 76800, Note_on_c, 0, 68, 110
2, 76800, Note_on_c, 0, 65, 110
2, 77180, Note_off_c, 0, 74, 100
2, 77180, Note_off_c, 0, 68, 100
2, 77180, Note_off_c, 0, 65, 100
2, 77568, Note_on_c, 0, 75, 80
2, 77568, Note_on_c, 0, 67, 80
2, 77948, Note_off_c, 0, 75, 100
2, 77948, Note_off_c, 0, 67, 100
2, 78464, Note_on_c, 0, 70, 80
2, 78588, Note_off_c, 0, 70, 100
2, 78592, Note_on_c, 0, 72, 80
2, 78716, Note_off_c, 0, 72, 100
2, 78720, Note_on_c, 0, 74, 80
2, 78844, Note_off_c, 0, 74, 100
2, 78848, Note_on_c, 0, 72, 80
2, 78972, Note_off_c, 0, 72, 100
2, 78976, Note_on_c, 0, 70, 80
2, 79100, Note_off_c, 0, 70, 100
2, 79104, Note_on_c, 0, 75, 80
2, 79484, Note_off_c, 0, 75, 100
2, 80000, Note_on_c, 0, 70, 80
2, 80124, Note_off_c, 0, 70, 100
2, 80128, Note_on_c, 0, 72, 80
2, 80252, Note_off_c, 0, 72, 100
2, 80256, Note_on_c, 0, 74, 80
2, 80380, Note_off_c, 0, 74, 100
2, 80384, Note_on_c, 0, 72, 80
2, 80508, Note_off_c, 0, 72, 100
2, 80512, Note_on_c, 0, 70, 80
2, 80636, Note_off_c, 0, 70, 100
2, 80640, Note_on_c, 0, 75, 80
2, 80764, Note_off_c, 0, 75, 100
2, 80768, Note_on_c, 0, 79, 80
2, 80892, Note_off_c, 0, 79, 100
2, 80896, Note_on_c, 0, 77, 80
2, 81020, Note_off_c, 0, 77, 100
2, 81024, Note_on_c, 0, 75, 80
2, 81148, Note_off_c, 0, 75, 100
2, 81152, Note_on_c, 0, 74, 80
2, 81276, Note_off_c, 0, 74, 100
2, 81280, Note_on_c, 0, 72, 80
2, 81404, Note_off_c, 0, 72, 100
2, 81408, Note_on_c, 0, 71, 80
2, 81532, Note_off_c, 0, 71, 100
2, 81536, Note_on_c, 0, 72, 80
2, 81660, Note_off_c, 0, 72, 100
2, 81664, Note_on_c, 0, 70, 80
2, 81788, Note_off_c, 0, 70, 100
2, 81792, Note_on_c, 0, 68, 80
2, 81916, Note_off_c, 0, 68, 100
2, 81920, Note_on_c, 0, 67, 80
2, 82044, Note_off_c, 0, 67, 100
2, 82048, Note_on_c, 0, 65, 80
2, 82172, Note_off_c, 0, 65, 100
2, 82176, Note_on_c, 0, 63, 80
2, 82556, Note_off_c, 0, 63, 100
2, 83072, Note_on_c, 0, 58, 80
2, 83196, Note_off_c, 0, 58, 100
2, 83200, Note_on_c, 0, 60, 80
2, 83324, Note_off_c, 0, 60, 100
2, 83328, Note_on_c, 0, 62, 80
2, 83452, Note_off_c, 0, 62, 100
2, 83456, Note_on_c, 0, 60, 80
2, 83580, Note_off_c, 0, 60, 100
2, 83584, Note_on_c, 0, 58, 80
2, 83708, Note_off_c, 0, 58, 100
2, 83712, Note_on_c, 0, 63, 80
2, 84092, Note_off_c, 0, 63, 100
2, 84608, Note_on_c, 0, 58, 80
2, 84732, Note_off_c, 0, 58, 100
2, 84736, Note_on_c, 0, 60, 80
2, 84860, Note_off_c, 0, 60, 100
2, 84864, Note_on_c, 0, 62, 80
2, 84988, Note_off_c, 0, 62, 100
2, 84992, Note_on_c, 0, 60, 80
2, 85116, Note_off_c, 0, 60, 100
2, 85120, Note_on_c, 0, 58, 80
2, 85244, Note_off_c, 0, 58, 100
2, 85248, Note_on_c, 0, 63, 80
2, 85628, Note_off_c, 0, 63, 100
2, 86144, Note_on_c, 0, 59, 89
2, 86268, Note_off_c, 0, 59, 100
2, 86272, Note_on_c, 0, 60, 90
2, 86396, Note_off_c, 0, 60, 100
2, 86400, Note_on_c, 0, 62, 91
2, 86524, Note_off_c, 0, 62, 100
2, 86528, Note_on_c, 0, 60, 93
2, 86652, Note_off_c, 0, 60, 100
2, 86656, Note_on_c, 0, 59, 94
2, 86780, Note_off_c, 0, 59, 100
2, 86784, Note_on_c, 0, 65, 95
2, 86908, Note_off_c, 0, 65, 100
2, 86912, Note_on_c, 0, 63, 96
2, 87036, Note_off_c, 0, 63, 100
2, 87040, Note_on_c, 0, 62, 98
2, 87164, Note_off_c, 0, 62, 100
2, 87168, Note_on_c, 0, 68, 99
2, 87292, Note_off_c, 0, 68, 100
2, 87296, Note_on_c, 0, 67, 100
2, 87420, Note_off_c, 0, 67, 100
2, 87424, Note_on_c, 0, 65, 102
2, 87548, Note_off_c, 0, 65, 100
2, 87552, Note_on_c, 0, 74, 103
2, 87676, Note_off_c, 0, 74, 100
2, 87680, Note_on_c, 0, 72, 104
2, 87804, Note_off_c, 0, 72, 100
2, 87808, Note_on_c, 0, 71, 106
2, 87932, Note_off_c, 0, 71, 100
2, 87936, Note_on_c, 0, 77, 107
2, 88060, Note_off_c, 0, 77, 100
2, 88064, Note_on_c, 0, 75, 108
2, 88188, Note_off_c, 0, 75, 100
2, 88192, Note_on_c, 0, 74, 109
2, 88316, Note_off_c, 0, 74, 100
2, 88320, Note_on_c, 0, 89, 120
2, 89468, Note_off_c, 0, 89, 100
2, 89472, Note_on_c, 0, 87, 120
2, 89596, Note_off_c, 0, 87, 100
2, 89600, Note_on_c, 0, 86, 120
2, 89724, Note_off_c, 0, 86, 100
2, 89728, Note_on_c, 0, 84, 120
2, 89852, Note_off_c, 0, 84, 100
2, 89856, Note_on_c, 0, 83, 120
2, 89980, Note_off_c, 0, 83, 100
2, 89984, Note_on_c, 0, 80, 120
2, 90108, Note_off_c, 0, 80, 100
2, 90112, Note_on_c, 0, 79, 120
2, 90236, Note_off_c, 0, 79, 100
2, 90240, Note_on_c, 0, 77, 120
2, 90364, Note_off_c, 0, 77, 100
2, 90368, Note_on_c, 0, 75, 120
2, 90492, Note_off_c, 0, 75, 100
2, 90496, Note_on_c, 0, 74, 120
2, 90620, Note_off_c, 0, 74, 100
2, 90624, Note_on_c, 0, 72, 120
2, 90748, Note_off_c, 0, 72, 100
2, 90752, Note_on_c, 0, 71, 120
2, 90876, Note_off_c, 0, 71, 100
2, 90880, Note_on_c, 0, 68, 120
2, 91004, Note_off_c, 0, 68, 100
2, 91008, Note_on_c, 0, 67, 120
2, 91080, Note_on_c, 0, 65, 120
2, 91100, Note_off_c, 0, 67, 100
2, 91156, Note_on_c, 0, 63, 120
2, 91172, Note_off_c, 0, 65, 100
2, 91232, Note_on_c, 0, 62, 120
2, 91248, Note_off_c, 0, 63, 100
2, 91304, Note_on_c, 0, 60, 120
2, 91324, Note_off_c, 0, 62, 100
2, 91384, Note_off_c, 0, 60, 100
2, 91392, Note_on_c, 0, 59, 120
2, 95228, Note_off_c, 0, 59, 100
2, 95424, Note_on_c, 0, 67, 80
2, 95612, Note_off_c, 0, 67, 100
2, 95616, Note_on_c, 0, 72, 80
2, 95804, Note_off_c, 0, 72, 100
2, 95808, Note_on_c, 0, 74, 80
2, 95996, Note_off_c, 0, 74, 100
2, 96000, Note_on_c, 0, 75, 80
2, 96572, Note_off_c, 0, 75, 100
2, 96576, Note_on_c, 0, 77, 80
2, 96764, Note_off_c, 0, 77, 100
2, 96768, Note_on_c, 0, 74, 80
2, 97340, Note_off_c, 0, 74, 100
2, 97344, Note_on_c, 0, 75, 80
2, 97532, Note_off_c, 0, 75, 100
2, 97536, Note_on_c, 0, 72, 80
2, 98300, Note_off_c, 0, 72, 100
2, 98304, Note_on_c, 0, 74, 80
2, 98348, Note_off_c, 0, 74, 100
2, 98352, Note_on_c, 0, 72, 80
2, 98492, Note_off_c, 0, 72, 100
2, 98496, Note_on_c, 0, 71, 80
2, 98684, Note_off_c, 0, 71, 100
2, 98688, Note_on_c, 0, 72, 80
2, 98876, Note_off_c, 0, 72, 100
2, 98880, Note_on_c, 0, 74, 80
2, 99068, Note_off_c, 0, 74, 100
2, 99072, Note_on_c, 0, 77, 80
2, 99116, Note_off_c, 0, 77, 100
2, 99120, Note_on_c, 0, 75, 80
2, 99260, Note_off_c, 0, 75, 100
2, 99264, Note_on_c, 0, 74, 80
2, 99452, Note_off_c, 0, 74, 100
2, 99456, Note_on_c, 0, 75, 80
2, 99644, Note_off_c, 0, 75, 100
2, 99648, Note_on_c, 0, 77, 80
2, 99836, Note_off_c, 0, 77, 100
2, 99840, Note_on_c, 0, 79, 80
2, 100220, Note_off_c, 0, 79, 100
2, 100224, Note_on_c, 0, 79, 80
2, 100604, Note_off_c, 0, 79, 100
2, 100608, Note_on_c, 0, 79, 80
2, 101756, Note_off_c, 0, 79, 100
2, 101760, Note_on_c, 0, 77, 80
2, 101948, Note_off_c, 0, 77, 100
2, 101952, Note_on_c, 0, 79, 80
2, 102140, Note_off_c, 0, 79, 100
2, 102144, Note_on_c, 0, 77, 80
2, 102236, Note_off_c, 0, 77, 100
2, 102240, Note_on_c, 0, 79, 80
2, 102332, Note_off_c, 0, 79, 100
2, 102336, Note_on_c, 0, 80, 80
2, 102908, Note_off_c, 0, 80, 100
2, 102912, Note_on_c, 0, 74, 80
2, 103292, Note_off_c, 0, 74, 100
2, 103296, Note_on_c, 0, 75, 80
2, 103484, Note_off_c, 0, 75, 100
2, 103488, Note_on_c, 0, 77, 80
2, 103676, Note_off_c, 0, 77, 100
2, 103680, Note_on_c, 0, 75, 80
2, 103772, Note_off_c, 0, 75, 100
2, 103776, Note_on_c, 0, 77, 80
2, 103868, Note_off_c, 0, 77, 100
2, 103872, Note_on_c, 0, 79, 80
2, 104444, Note_off_c, 0, 79, 100
2, 104448, Note_on_c, 0, 72, 80
2, 104828, Note_off_c, 0, 72, 100
2, 104832, Note_on_c, 0, 72, 80
2, 105020, Note_off_c, 0, 72, 100
2, 105024, Note_on_c, 0, 74, 80
2, 105212, Note_off_c, 0, 74, 100
2, 105216, Note_on_c, 0, 75, 80
2, 105596, Note_off_c, 0, 75, 100
2, 105600, Note_on_c, 0, 75, 80
2, 105788, Note_off_c, 0, 75, 100
2, 105792, Note_on_c, 0, 77, 80
2, 105980, Note_off_c, 0, 77, 100
2, 105984, Note_on_c, 0, 74, 80
2, 106364, Note_off_c, 0, 74, 100
2, 106368, Note_on_c, 0, 74, 80
2, 106556, Note_off_c, 0, 74, 100
2, 106560, Note_on_c, 0, 75, 80
2, 106748, Note_off_c, 0, 75, 100
2, 106752, Note_on_c, 0, 72, 80
2, 107132, Note_off_c, 0, 72, 100
2, 107904, Note_on_c, 0, 77, 80
2, 108092, Note_off_c, 0, 77, 100
2, 108096, Note_on_c, 0, 79, 80
2, 108284, Note_off_c, 0, 79, 100
2, 108288, Note_on_c, 0, 80, 80
2, 108288, Note_on_c, 0, 68, 80
2, 109052, Note_off_c, 0, 80, 100
2, 109052, Note_off_c, 0, 68, 100
2, 109056, Note_on_c, 0, 74, 80
2, 109436, Note_off_c, 0, 74, 100
2, 109440, Note_on_c, 0, 75, 80
2, 109628, Note_off_c, 0, 75, 100
2, 109632, Note_on_c, 0, 77, 80
2, 109820, Note_off_c, 0, 77, 100
2, 109824, Note_on_c, 0, 79, 80
2, 109824, Note_on_c, 0, 67, 80
2, 110588, Note_off_c, 0, 79, 100
2, 110588, Note_off_c, 0, 67, 100
2, 110592, Note_on_c, 0, 72, 80
2, 110972, Note_off_c, 0, 72, 100
2, 110976, Note_on_c, 0, 72, 80
2, 111164, Note_off_c, 0, 72, 100
2, 111168, Note_on_c, 0, 74, 80
2, 111356, Note_off_c, 0, 74, 100
2, 111360, Note_on_c, 0, 75, 80
2, 111740, Note_off_c, 0, 75, 100
2, 111744, Note_on_c, 0, 75, 80
2, 111932, Note_off_c, 0, 75, 100
2, 111936, Note_on_c, 0, 77, 80
2, 112124, Note_off_c, 0, 77, 100
2, 112128, Note_on_c, 0, 74, 80
2, 112508, Note_off_c, 0, 74, 100
2, 112512, Note_on_c, 0, 74, 80
2, 112700, Note_off_c, 0, 74, 100
2, 112704, Note_on_c, 0, 75, 80
2, 112892, Note_off_c, 0, 75, 100
2, 112896, Note_on_c, 0, 72, 80
2, 113276, Note_off_c, 0, 72, 100
2, 113280, Note_on_c, 0, 82, 81
2, 114044, Note_off_c, 0, 82, 100
2, 114048, Note_on_c, 0, 82, 85
2, 114620, Note_off_c, 0, 82, 100
2, 114624, Note_on_c, 0, 80, 88
2, 114812, Note_off_c, 0, 80, 100
2, 114816, Note_on_c, 0, 79, 89
2, 115004, Note_off_c, 0, 79, 100
2, 115008, Note_on_c, 0, 77, 90
2, 115196, Note_off_c, 0, 77, 100
2, 115200, Note_on_c, 0, 75, 91
2, 115388, Note_off_c, 0, 75, 100
2, 115392, Note_on_c, 0, 74, 92
2, 115580, Note_off_c, 0, 74, 100
2, 115584, Note_on_c, 0, 72, 93
2, 115772, Note_off_c, 0, 72, 100
2, 115776, Note_on_c, 0, 71, 94
2, 115964, Note_off_c, 0, 71, 100
2, 115968, Note_on_c, 0, 72, 95
2, 116348, Note_off_c, 0, 72, 100
2, 116352, Note_on_c, 0, 84, 97
2, 116352, Note_on_c, 0, 72, 97
2, 117116, Note_off_c, 0, 84, 100
2, 117116, Note_off_c, 0, 72, 100
2, 117120, Note_on_c, 0, 82, 101
2, 117692, Note_off_c, 0, 82, 100
2, 117696, Note_on_c, 0, 80, 104
2, 117884, Note_off_c, 0, 80, 100
2, 117888, Note_on_c, 0, 79, 105
2, 118076, Note_off_c, 0, 79, 100
2, 118080, Note_on_c, 0, 77, 106
2, 118268, Note_off_c, 0, 77, 100
2, 118272, Note_on_c, 0, 75, 107
2, 118460, Note_off_c, 0, 75, 100
2, 118464, Note_on_c, 0, 74, 108
2, 118652, Note_off_c, 0, 74, 100
2, 118656, Note_on_c, 0, 72, 109
2, 118844, Note_off_c, 0, 72, 100
2, 118848, Note_on_c, 0, 71, 109
2, 119036, Note_off_c, 0, 71, 100
2, 119040, Note_on_c, 0, 72, 110
2, 119420, Note_off_c, 0, 72, 100
2, 119424, Note_on_c, 0, 74, 110
2, 119516, Note_off_c, 0, 74, 100
2, 119520, Note_on_c, 0, 75, 110
2, 119612, Note_off_c, 0, 75, 100
2, 119616, Note_on_c, 0, 72, 110
2, 119708, Note_off_c, 0, 72, 100
2, 119712, Note_on_c, 0, 74, 110
2, 119804, Note_off_c, 0, 74, 100
2, 119808, Note_on_c, 0, 75, 110
2, 120188, Note_off_c, 0, 75, 100
2, 120192, Note_on_c, 0, 71, 110
2, 120192, Note_on_c, 0, 74, 110
2, 120192, Note_on_c, 0, 83, 110
2, 120572, Note_off_c, 0, 71, 100
2, 120572, Note_off_c, 0, 74, 100
2, 120572, Note_off_c, 0, 83, 100
2, 120576, Note_on_c, 0, 84, 110
2, 120576, Note_on_c, 0, 75, 110
2, 120576, Note_on_c, 0, 72, 110
2, 120956, Note_off_c, 0, 84, 100
2, 120956, Note_off_c, 0, 75, 100
2, 120956, Note_off_c, 0, 72, 100
2, 122112, Note_on_c, 0, 60, 80
2, 122876, Note_off_c, 0, 60, 100
2, 122880, Note_on_c, 0, 65, 80
2, 123644, Note_off_c, 0, 65, 100
2, 123648, Note_on_c, 0, 58, 80
2, 124412, Note_off_c, 0, 58, 100
2, 124416, Note_on_c, 0, 63, 80
2, 125180, Note_off_c, 0, 63, 100
2, 125184, Note_on_c, 0, 56, 80
2, 125948, Note_off_c, 0, 56, 100
2, 125952, Note_on_c, 0, 61, 80
2, 126332, Note_off_c, 0, 61, 100
2, 126336, Note_on_c, 0, 60, 80
2, 126716, Note_off_c, 0, 60, 100
2, 126720, Note_on_c, 0, 58, 80
2, 127100, Note_off_c, 0, 58, 100
2, 127104, Note_on_c, 0, 56, 80
2, 127484, Note_off_c, 0, 56, 100
2, 127488, Note_on_c, 0, 55, 80
2, 127868, Note_off_c, 0, 55, 100
2, 128640, Note_on_c, 0, 72, 80
2, 129404, Note_off_c, 0, 72, 100
2, 129408, Note_on_c, 0, 65, 80
2, 130172, Note_off_c, 0, 65, 100
2, 130176, Note_on_c, 0, 70, 80
2, 130940, Note_off_c, 0, 70, 100
2, 130944, Note_on_c, 0, 63, 80
2, 131708, Note_off_c, 0, 63, 100
2, 131712, Note_on_c, 0, 68, 80
2, 132092, Note_off_c, 0, 68, 100
2, 132096, Note_on_c, 0, 67, 80
2, 132476, Note_off_c, 0, 67, 100
2, 132480, Note_on_c, 0, 65, 80
2, 132860, Note_off_c, 0, 65, 100
2, 132864, Note_on_c, 0, 63, 80
2, 133244, Note_off_c, 0, 63, 100
2, 133248, Note_on_c, 0, 62, 80
2, 133628, Note_off_c, 0, 62, 100
2, 133632, Note_on_c, 0, 65, 80
2, 134012, Note_off_c, 0, 65, 100
2, 134016, Note_on_c, 0, 63, 80
2, 134396, Note_off_c, 0, 63, 100
2, 134400, Note_on_c, 0, 72, 80
2, 135164, Note_off_c, 0, 72, 100
2, 135168, Note_on_c, 0, 77, 80
2, 135168, Note_on_c, 0, 65, 80
2, 135932, Note_off_c, 0, 77, 100
2, 135932, Note_off_c, 0, 65, 100
2, 135936, Note_on_c, 0, 70, 80
2, 136700, Note_off_c, 0, 70, 100
2, 136704, Note_on_c, 0, 75, 80
2, 136704, Note_on_c, 0, 63, 80
2, 137468, Note_off_c, 0, 75, 100
2, 137472, Note_on_c, 0, 68, 80
2, 137852, Note_off_c, 0, 63, 100
2, 137856, Note_on_c, 0, 60, 80
2, 138236, Note_off_c, 0, 68, 100
2, 138236, Note_off_c, 0, 60, 100
2, 138240, Note_on_c, 0, 65, 80
2, 138240, Note_on_c, 0, 73, 80
2, 138620, Note_off_c, 0, 65, 100
2, 138620, Note_off_c, 0, 73, 100
2, 138624, Note_on_c, 0, 72, 80
2, 138624, Note_on_c, 0, 63, 80
2, 139004, Note_off_c, 0, 72, 100
2, 139004, Note_off_c, 0, 63, 100
2, 139008, Note_on_c, 0, 70, 80
2, 139008, Note_on_c, 0, 61, 80
2, 139388, Note_off_c, 0, 70, 100
2, 139388, Note_off_c, 0, 61, 100
2, 139392, Note_on_c, 0, 68, 80
2, 139392, Note_on_c, 0, 60, 80
2, 139772, Note_off_c, 0, 68, 100
2, 139772, Note_off_c, 0, 60, 100
2, 139776, Note_on_c, 0, 67, 80
2, 139776, Note_on_c, 0, 58, 80
2, 140156, Note_off_c, 0, 67, 100
2, 140156, Note_off_c, 0, 58, 100
2, 140160, Note_on_c, 0, 63, 80
2, 140540, Note_off_c, 0, 63, 100
2, 140928, Note_on_c, 0, 84, 80
2, 140928, Note_on_c, 0, 72, 80
2, 141692, Note_off_c, 0, 84, 100
2, 141692, Note_off_c, 0, 72, 100
2, 141696, Note_on_c, 0, 77, 80
2, 142460, Note_off_c, 0, 77, 100
2, 142464, Note_on_c, 0, 70, 80
2, 142464, Note_on_c, 0, 82, 80
2, 143228, Note_off_c, 0, 70, 100
2, 143228, Note_off_c, 0, 82, 100
2, 143232, Note_on_c, 0, 75, 80
2, 143616, Note_on_c, 0, 72, 80
2, 143996, Note_off_c, 0, 75, 100
2, 144000, Note_on_c, 0, 80, 80
2, 144380, Note_off_c, 0, 72, 100
2, 144380, Note_off_c, 0, 80, 100
2, 144384, Note_on_c, 0, 79, 80
2, 144384, Note_on_c, 0, 70, 80
2, 144764, Note_off_c, 0, 79, 100
2, 144764, Note_off_c, 0, 70, 100
2, 144768, Note_on_c, 0, 77, 80
2, 144768, Note_on_c, 0, 68, 80
2, 145148, Note_off_c, 0, 77, 100
2, 145148, Note_off_c, 0, 68, 100
2, 145152, Note_on_c, 0, 75, 80
2, 145152, Note_on_c, 0, 67, 80
2, 145532, Note_off_c, 0, 75, 100
2, 145532, Note_off_c, 0, 67, 100
2, 145536, Note_on_c, 0, 74, 80
2, 145536, Note_on_c, 0, 65, 80
2, 145916, Note_off_c, 0, 74, 100
2, 145916, Note_off_c, 0, 65, 100
2, 145920, Note_on_c, 0, 77, 80
2, 145920, Note_on_c, 0, 68, 80
2, 146300, Note_off_c, 0, 77, 100
2, 146300, Note_off_c, 0, 68, 100
2, 146304, Note_on_c, 0, 75, 80
2, 146304, Note_on_c, 0, 67, 80
2, 146684, Note_off_c, 0, 75, 100
2, 146684, Note_off_c, 0, 67, 100
2, 147840, Note_on_c, 0, 75, 80
2, 148220, Note_off_c, 0, 75, 100
2, 148224, Note_on_c, 0, 72, 80
2, 148604, Note_off_c, 0, 72, 100
2, 148608, Note_on_c, 0, 73, 80
2, 148988, Note_off_c, 0, 73, 100
2, 148992, Note_on_c, 0, 77, 80
2, 149372, Note_off_c, 0, 77, 100
2, 149376, Note_on_c, 0, 67, 80
2, 149756, Note_off_c, 0, 67, 100
2, 149760, Note_on_c, 0, 70, 80
2, 150140, Note_off_c, 0, 70, 100
2, 150144, Note_on_c, 0, 68, 80
2, 150524, Note_off_c, 0, 68, 100
2, 150528, Note_on_c, 0, 72, 80
2, 150908, Note_off_c, 0, 72, 100
2, 150912, Note_on_c, 0, 62, 80
2, 151292, Note_off_c, 0, 62, 100
2, 151296, Note_on_c, 0, 63, 80
2, 151676, Note_off_c, 0, 63, 100
2, 151680, Note_on_c, 0, 82, 80
2, 152060, Note_off_c, 0, 82, 100
2, 152064, Note_on_c, 0, 87, 80
2, 152444, Note_off_c, 0, 87, 100
2, 152448, Note_on_c, 0, 85, 80
2, 152828, Note_off_c, 0, 85, 100
2, 152832, Note_on_c, 0, 84, 80
2, 153596, Note_off_c, 0, 84, 100
2, 153600, Note_on_c, 0, 89, 80
2, 154364, Note_off_c, 0, 89, 100
2, 154368, Note_on_c, 0, 82, 80
2, 155132, Note_off_c, 0, 82, 100
2, 155136, Note_on_c, 0, 87, 80
2, 155900, Note_off_c, 0, 87, 100
2, 155904, Note_on_c, 0, 80, 80
2, 156668, Note_off_c, 0, 80, 100
2, 156672, Note_on_c, 0, 85, 87
2, 156672, Note_on_c, 0, 73, 87
2, 157052, Note_off_c, 0, 85, 100
2, 157052, Note_off_c, 0, 73, 100
2, 157056, Note_on_c, 0, 72, 91
2, 157056, Note_on_c, 0, 84, 91
2, 157436, Note_off_c, 0, 72, 100
2, 157436, Note_off_c, 0, 84, 100
2, 157440, Note_on_c, 0, 82, 95
2, 157440, Note_on_c, 0, 70, 95
2, 157820, Note_off_c, 0, 82, 100
2, 157820, Note_off_c, 0, 70, 100
2, 157824, Note_on_c, 0, 80, 99
2, 157824, Note_on_c, 0, 68, 99
2, 158204, Note_off_c, 0, 80, 100
2, 158204, Note_off_c, 0, 68, 100
2, 158208, Note_on_c, 0, 79, 103
2, 158208, Note_on_c, 0, 67, 103
2, 158588, Note_off_c, 0, 79, 100
2, 158588, Note_off_c, 0, 67, 100
2, 158592, Note_on_c, 0, 73, 107
2, 158972, Note_off_c, 0, 73, 100
2, 158976, Note_on_c, 0, 84, 110
2, 159164, Note_off_c, 0, 84, 100
2, 159168, Note_on_c, 0, 82, 110
2, 159356, Note_off_c, 0, 82, 100
2, 159360, Note_on_c, 0, 80, 110
2, 159548, Note_off_c, 0, 80, 100
2, 159552, Note_on_c, 0, 79, 110
2, 159740, Note_off_c, 0, 79, 100
2, 159744, Note_on_c, 0, 77, 110
2, 159932, Note_off_c, 0, 77, 100
2, 159936, Note_on_c, 0, 75, 110
2, 160124, Note_off_c, 0, 75, 100
2, 160128, Note_on_c, 0, 73, 110
2, 160316, Note_off_c, 0, 73, 100
2, 160320, Note_on_c, 0, 72, 110
2, 160508, Note_off_c, 0, 72, 100
2, 160512, Note_on_c, 0, 70, 110
2, 160700, Note_off_c, 0, 70, 100
2, 160704, Note_on_c, 0, 68, 110
2, 160892, Note_off_c, 0, 68, 100
2, 160896, Note_on_c, 0, 67, 110
2, 161084, Note_off_c, 0, 67, 100
2, 161088, Note_on_c, 0, 65, 110
2, 161276, Note_off_c, 0, 65, 100
2, 161280, Note_on_c, 0, 64, 110
2, 161468, Note_off_c, 0, 64, 100
2, 161472, Note_on_c, 0, 61, 110
2, 161660, Note_off_c, 0, 61, 100
2, 161664, Note_on_c, 0, 60, 110
2, 161852, Note_off_c, 0, 60, 100
2, 161856, Note_on_c, 0, 58, 110
2, 162044, Note_off_c, 0, 58, 100
2, 162048, Note_on_c, 0, 56, 110
2, 162236, Note_off_c, 0, 56, 100
2, 162240, Note_on_c, 0, 55, 110
2, 162428, Note_off_c, 0, 55, 100
2, 162432, Note_on_c, 0, 53, 110
2, 162620, Note_off_c, 0, 53, 100
2, 162624, Note_on_c, 0, 52, 110
2, 162812, Note_off_c, 0, 52, 100
2, 162816, Note_on_c, 0, 53, 123
2, 163004, Note_off_c, 0, 53, 100
2, 163008, Note_on_c, 0, 55, 109
2, 163196, Note_off_c, 0, 55, 100
2, 163200, Note_on_c, 0, 56, 107
2, 163388, Note_off_c, 0, 56, 100
2, 163392, Note_on_c, 0, 55, 105
2, 163580, Note_off_c, 0, 55, 100
2, 163584, Note_on_c, 0, 53, 103
2, 163772, Note_off_c, 0, 53, 100
2, 163776, Note_on_c, 0, 51, 101
2, 163964, Note_off_c, 0, 51, 100
2, 163968, Note_on_c, 0, 50, 100
2, 164156, Note_off_c, 0, 50, 100
2, 164160, Note_on_c, 0, 48, 98
2, 164348, Note_off_c, 0, 48, 100
2, 164352, Note_on_c, 0, 47, 96
2, 164540, Note_off_c, 0, 47, 100
2, 164544, Note_on_c, 0, 48, 94
2, 164732, Note_off_c, 0, 48, 100
2, 164736, Note_on_c, 0, 50, 92
2, 164924, Note_off_c, 0, 50, 100
2, 164928, Note_on_c, 0, 48, 91
2, 165116, Note_off_c, 0, 48, 100
2, 165216, Note_on_c, 0, 43, 75
2, 165308, Note_off_c, 0, 43, 100
2, 165312, Note_on_c, 0, 47, 76
2, 165404, Note_off_c, 0, 47, 100
2, 165408, Note_on_c, 0, 50, 76
2, 165500, Note_off_c, 0, 50, 100
2, 165504, Note_on_c, 0, 55, 77
2, 165884, Note_off_c, 0, 55, 100
2, 165984, Note_on_c, 0, 43, 79
2, 166076, Note_off_c, 0, 43, 100
2, 166080, Note_on_c, 0, 48, 80
2, 166172, Note_off_c, 0, 48, 100
2, 166176, Note_on_c, 0, 51, 81
2, 166268, Note_off_c, 0, 51, 100
2, 166272, Note_on_c, 0, 55, 81
2, 166652, Note_off_c, 0, 55, 100
2, 166752, Note_on_c, 0, 43, 84
2, 166844, Note_off_c, 0, 43, 100
2, 166848, Note_on_c, 0, 50, 84
2, 166940, Note_off_c, 0, 50, 100
2, 166944, Note_on_c, 0, 53, 85
2, 167036, Note_off_c, 0, 53, 100
2, 167040, Note_on_c, 0, 55, 86
2, 167420, Note_off_c, 0, 55, 100
2, 167520, Note_on_c, 0, 43, 88
2, 167612, Note_off_c, 0, 43, 100
2, 167616, Note_on_c, 0, 48, 89
2, 167708, Note_off_c, 0, 48, 100
2, 167712, Note_on_c, 0, 51, 89
2, 167804, Note_off_c, 0, 51, 100
2, 167808, Note_on_c, 0, 55, 90
2, 168188, Note_off_c, 0, 55, 100
2, 168288, Note_on_c, 0, 55, 93
2, 168380, Note_off_c, 0, 55, 100
2, 168384, Note_on_c, 0, 59, 93
2, 168476, Note_off_c, 0, 59, 100
2, 168480, Note_on_c, 0, 62, 94
2, 168572, Note_off_c, 0, 62, 100
2, 168576, Note_on_c, 0, 67, 94
2, 168956, Note_off_c, 0, 67, 100
2, 169056, Note_on_c, 0, 55, 97
2, 169148, Note_off_c, 0, 55, 100
2, 169152, Note_on_c, 0, 60, 98
2, 169244, Note_off_c, 0, 60, 100
2, 169248, Note_on_c, 0, 63, 98
2, 169340, Note_off_c, 0, 63, 100
2, 169344, Note_on_c, 0, 67, 99
2, 169724, Note_off_c, 0, 67, 100
2, 169824, Note_on_c, 0, 55, 102
2, 169916, Note_off_c, 0, 55, 100
2, 169920, Note_on_c, 0, 62, 102
2, 170012, Note_off_c, 0, 62, 100
2, 170016, Note_on_c, 0, 65, 103
2, 170108, Note_off_c, 0, 65, 100
2, 170112, Note_on_c, 0, 67, 103
2, 170492, Note_off_c, 0, 67, 100
2, 170592, Note_on_c, 0, 55, 106
2, 170684, Note_off_c, 0, 55, 100
2, 170688, Note_on_c, 0, 60, 107
2, 170780, Note_off_c, 0, 60, 100
2, 170784, Note_on_c, 0, 63, 107
2, 170876, Note_off_c, 0, 63, 100
2, 170880, Note_on_c, 0, 67, 108
2, 171260, Note_off_c, 0, 67, 100
2, 171360, Note_on_c, 0, 67, 120
2, 171452, Note_off_c, 0, 67, 100
2, 171456, Note_on_c, 0, 71, 120
2, 171548, Note_off_c, 0, 71, 100
2, 171552, Note_on_c, 0, 74, 120
2, 171644, Note_off_c, 0, 74, 100
2, 171648, Note_on_c, 0, 79, 120
2, 172028, Note_off_c, 0, 79, 100
2, 172128, Note_on_c, 0, 67, 120
2, 172220, Note_off_c, 0, 67, 100
2, 172224, Note_on_c, 0, 72, 120
2, 172316, Note_off_c, 0, 72, 100
2, 172320, Note_on_c, 0, 75, 120
2, 172412, Note_off_c, 0, 75, 100
2, 172416, Note_on_c, 0, 79, 120
2, 172796, Note_off_c, 0, 79, 100
2, 172896, Note_on_c, 0, 67, 120
2, 172988, Note_off_c, 0, 67, 100
2, 172992, Note_on_c, 0, 74, 120
2, 173084, Note_off_c, 0, 74, 100
2, 173088, Note_on_c, 0, 77, 120
2, 173180, Note_off_c, 0, 77, 100
2, 173184, Note_on_c, 0, 79, 120
2, 173564, Note_off_c, 0, 79, 100
2, 173664, Note_on_c, 0, 67, 120
2, 173756, Note_off_c, 0, 67, 100
2, 173760, Note_on_c, 0, 72, 120
2, 173852, Note_off_c, 0, 72, 100
2, 173856, Note_on_c, 0, 75, 120
2, 173948, Note_off_c, 0, 75, 100
2, 173952, Note_on_c, 0, 79, 120
2, 174332, Note_off_c, 0, 79, 100
2, 174464, Note_on_c, 0, 67, 120
2, 174588, Note_off_c, 0, 67, 100
2, 174592, Note_on_c, 0, 66, 120
2, 174716, Note_off_c, 0, 66, 100
2, 174720, Note_on_c, 0, 67, 120
2, 174844, Note_off_c, 0, 67, 100
2, 174848, Note_on_c, 0, 71, 120
2, 174972, Note_off_c, 0, 71, 100
2, 174976, Note_on_c, 0, 74, 120
2, 175100, Note_off_c, 0, 74, 100
2, 175104, Note_on_c, 0, 79, 127
2, 175228, Note_off_c, 0, 79, 100
2, 175232, Note_on_c, 0, 74, 120
2, 175356, Note_off_c, 0, 74, 100
2, 175360, Note_on_c, 0, 71, 120
2, 175484, Note_off_c, 0, 71, 100
2, 175488, Note_on_c, 0, 67, 120
2, 175868, Note_off_c, 0, 67, 100
2, 176000, Note_on_c, 0, 71, 120
2, 176124, Note_off_c, 0, 71, 100
2, 176128, Note_on_c, 0, 70, 120
2, 176252, Note_off_c, 0, 70, 100
2, 176256, Note_on_c, 0, 71, 120
2, 176380, Note_off_c, 0, 71, 100
2, 176384, Note_on_c, 0, 74, 120
2, 176508, Note_off_c, 0, 74, 100
2, 176512, Note_on_c, 0, 79, 120
2, 176636, Note_off_c, 0, 79, 100
2, 176640, Note_on_c, 0, 83, 127
2, 176764, Note_off_c, 0, 83, 100
2, 176768, Note_on_c, 0, 79, 120
2, 176892, Note_off_c, 0, 79, 100
2, 176896, Note_on_c, 0, 74, 120
2, 177020, Note_off_c, 0, 74, 100
2, 177024, Note_on_c, 0, 71, 120
2, 177404, Note_off_c, 0, 71, 100
2, 177536, Note_on_c, 0, 74, 120
2, 177660, Note_off_c, 0, 74, 100
2, 177664, Note_on_c, 0, 73, 120
2, 177788, Note_off_c, 0, 73, 100
2, 177792, Note_on_c, 0, 74, 120
2, 177916, Note_off_c, 0, 74, 100
2, 177920, Note_on_c, 0, 77, 120
2, 178044, Note_off_c, 0, 77, 100
2, 178048, Note_on_c, 0, 83, 120
2, 178172, Note_off_c, 0, 83, 100
2, 178176, Note_on_c, 0, 86, 127
2, 178300, Note_off_c, 0, 86, 100
2, 178304, Note_on_c, 0, 83, 120
2, 178428, Note_off_c, 0, 83, 100
2, 178432, Note_on_c, 0, 77, 120
2, 178556, Note_off_c, 0, 77, 100
2, 178560, Note_on_c, 0, 74, 120
2, 178940, Note_off_c, 0, 74, 100
2, 179072, Note_on_c, 0, 77, 120
2, 179196, Note_off_c, 0, 77, 100
2, 179200, Note_on_c, 0, 76, 120
2, 179324, Note_off_c, 0, 76, 100
2, 179328, Note_on_c, 0, 77, 120
2, 179452, Note_off_c, 0, 77, 100
2, 179456, Note_on_c, 0, 83, 120
2, 179580, Note_off_c, 0, 83, 100
2, 179584, Note_on_c, 0, 86, 120
2, 179708, Note_off_c, 0, 86, 100
2, 179712, Note_on_c, 0, 89, 120
2, 179836, Note_off_c, 0, 89, 100
2, 179840, Note_on_c, 0, 86, 120
2, 179964, Note_off_c, 0, 86, 100
2, 179968, Note_on_c, 0, 83, 120
2, 180092, Note_off_c, 0, 83, 100
2, 180096, Note_on_c, 0, 89, 120
2, 180220, Note_off_c, 0, 89, 100
2, 180224, Note_on_c, 0, 86, 120
2, 180348, Note_off_c, 0, 86, 100
2, 180352, Note_on_c, 0, 83, 120
2, 180476, Note_off_c, 0, 83, 100
2, 180480, Note_on_c, 0, 89, 127
2, 181628, Note_off_c, 0, 89, 100
2, 181632, Note_on_c, 0, 87, 120
2, 181756, Note_off_c, 0, 87, 100
2, 181760, Note_on_c, 0, 86, 120
2, 181884, Note_off_c, 0, 86, 100
2, 181888, Note_on_c, 0, 84, 120
2, 182012, Note_off_c, 0, 84, 100
2, 182016, Note_on_c, 0, 83, 120
2, 182140, Note_off_c, 0, 83, 100
2, 182144, Note_on_c, 0, 80, 120
2, 182268, Note_off_c, 0, 80, 100
2, 182272, Note_on_c, 0, 79, 120
2, 182396, Note_off_c, 0, 79, 100
2, 182400, Note_on_c, 0, 77, 120
2, 182524, Note_off_c, 0, 77, 100
2, 182528, Note_on_c, 0, 75, 120
2, 182652, Note_off_c, 0, 75, 100
2, 182656, Note_on_c, 0, 74, 120
2, 182780, Note_off_c, 0, 74, 100
2, 182784, Note_on_c, 0, 72, 120
2, 182908, Note_off_c, 0, 72, 100
2, 182912, Note_on_c, 0, 71, 120
2, 183036, Note_off_c, 0, 71, 100
2, 183040, Note_on_c, 0, 68, 120
2, 183164, Note_off_c, 0, 68, 100
2, 183168, Note_on_c, 0, 67, 120
2, 183240, Note_on_c, 0, 65, 120
2, 183260, Note_off_c, 0, 67, 100
2, 183316, Note_on_c, 0, 63, 120
2, 183332, Note_off_c, 0, 65, 100
2, 183392, Note_on_c, 0, 62, 120
2, 183408, Note_off_c, 0, 63, 100
2, 183464, Note_on_c, 0, 60, 120
2, 183484, Note_off_c, 0, 62, 100
2, 183544, Note_off_c, 0, 60, 100
2, 183552, Note_on_c, 0, 59, 120
2, 187388, Note_off_c, 0, 59, 100
2, 187584, Note_on_c, 0, 67, 80
2, 187772, Note_off_c, 0, 67, 100
2, 187776, Note_on_c, 0, 72, 80
2, 187964, Note_off_c, 0, 72, 100
2, 187968, Note_on_c, 0, 74, 80
2, 188156, Note_off_c, 0, 74, 100
2, 188160, Note_on_c, 0, 75, 80
2, 188732, Note_off_c, 0, 75, 100
2, 188736, Note_on_c, 0, 77, 80
2, 188924, Note_off_c, 0, 77, 100
2, 188928, Note_on_c, 0, 74, 80
2, 189500, Note_off_c, 0, 74, 100
2, 189504, Note_on_c, 0, 75, 80
2, 189692, Note_off_c, 0, 75, 100
2, 189696, Note_on_c, 0, 72, 80
2, 190460, Note_off_c, 0, 72, 100
2, 190464, Note_on_c, 0, 74, 80
2, 190508, Note_off_c, 0, 74, 100
2, 190512, Note_on_c, 0, 72, 80
2, 190652, Note_off_c, 0, 72, 100
2, 190656, Note_on_c, 0, 71, 80
2, 190844, Note_off_c, 0, 71, 100
2, 190848, Note_on_c, 0, 72, 80
2, 191036, Note_off_c, 0, 72, 100
2, 191040, Note_on_c, 0, 74, 80
2, 191228, Note_off_c, 0, 74, 100
2, 191232, Note_on_c, 0, 77, 80
2, 191276, Note_off_c, 0, 77, 100
2, 191280, Note_on_c, 0, 75, 80
2, 191420, Note_off_c, 0, 75, 100
2, 191424, Note_on_c, 0, 74, 80
2, 191612, Note_off_c, 0, 74, 100
2, 191616, Note_on_c, 0, 75, 80
2, 191804, Note_off_c, 0, 75, 100
2, 191808, Note_on_c, 0, 77, 80
2, 191996, Note_off_c, 0, 77, 100
2, 192000, Note_on_c, 0, 79, 80
2, 192380, Note_off_c, 0, 79, 100
2, 192384, Note_on_c, 0, 79, 80
2, 192764, Note_off_c, 0, 79, 100
2, 192768, Note_on_c, 0, 79, 80
2, 193916, Note_off_c, 0, 79, 100
2, 193920, Note_on_c, 0, 77, 80
2, 194108, Note_off_c, 0, 77, 100
2, 194112, Note_on_c, 0, 79, 80
2, 194300, Note_off_c, 0, 79, 100
2, 194304, Note_on_c, 0, 77, 80
2, 194396, Note_off_c, 0, 77, 100
2, 194400, Note_on_c, 0, 79, 80
2, 194492, Note_off_c, 0, 79, 100
2, 194496, Note_on_c, 0, 80, 80
2, 195068, Note_off_c, 0, 80, 100
2, 195072, Note_on_c, 0, 74, 80
2, 195452, Note_off_c, 0, 74, 100
2, 195456, Note_on_c, 0, 75, 80
2, 195644, Note_off_c, 0, 75, 100
2, 195648, Note_on_c, 0, 77, 80
2, 195836, Note_off_c, 0, 77, 100
2, 195840, Note_on_c, 0, 75, 80
2, 195932, Note_off_c, 0, 75, 100
2, 195936, Note_on_c, 0, 77, 80
2, 196028, Note_off_c, 0, 77, 100
2, 196032, Note_on_c, 0, 79, 80
2, 196604, Note_off_c, 0, 79, 100
2, 196608, Note_on_c, 0, 72, 80
2, 196988, Note_off_c, 0, 72, 100
2, 196992, Note_on_c, 0, 72, 80
2, 197180, Note_off_c, 0, 72, 100
2, 197184, Note_on_c, 0, 74, 80
2, 197372, Note_off_c, 0, 74, 100
2, 197376, Note_on_c, 0, 75, 80
2, 197756, Note_off_c, 0, 75, 100
2, 197760, Note_on_c, 0, 75, 80
2, 197948, Note_off_c, 0, 75, 100
2, 197952, Note_on_c, 0, 77, 80
2, 198140, Note_off_c, 0, 77, 100
2, 198144, Note_on_c, 0, 74, 80
2, 198524, Note_off_c, 0, 74, 100
2, 198528, Note_on_c, 0, 74, 80
2, 198716, Note_off_c, 0, 74, 100
2, 198720, Note_on_c, 0, 75, 80
2, 198908, Note_off_c, 0, 75, 100
2, 198912, Note_on_c, 0, 72, 80
2, 199292, Note_off_c, 0, 72, 100
2, 200640, Note_on_c, 0, 59, 80
2, 200828, Note_off_c, 0, 59, 100
2, 200832, Note_on_c, 0, 62, 80
2, 201020, Note_off_c, 0, 62, 100
2, 201024, Note_on_c, 0, 65, 80
2, 201212, Note_off_c, 0, 65, 100
2, 201408, Note_on_c, 0, 77, 80
2, 201596, Note_off_c, 0, 77, 100
2, 201600, Note_on_c, 0, 74, 80
2, 201788, Note_off_c, 0, 74, 100
2, 201792, Note_on_c, 0, 71, 80
2, 201980, Note_off_c, 0, 71, 100
2, 202176, Note_on_c, 0, 60, 80
2, 202364, Note_off_c, 0, 60, 100
2, 202368, Note_on_c, 0, 63, 80
2, 202556, Note_off_c, 0, 63, 100
2, 202560, Note_on_c, 0, 67, 80
2, 202748, Note_off_c, 0, 67, 100
2, 202944, Note_on_c, 0, 79, 80
2, 203132, Note_off_c, 0, 79, 100
2, 203136, Note_on_c, 0, 75, 80
2, 203324, Note_off_c, 0, 75, 100
2, 203328, Note_on_c, 0, 72, 80
2, 203516, Note_off_c, 0, 72, 100
2, 203712, Note_on_c, 0, 63, 80
2, 203900, Note_off_c, 0, 63, 100
2, 203904, Note_on_c, 0, 67, 80
2, 204092, Note_off_c, 0, 67, 100
2, 204096, Note_on_c, 0, 70, 80
2, 204284, Note_off_c, 0, 70, 100
2, 204480, Note_on_c, 0, 82, 80
2, 204668, Note_off_c, 0, 82, 100
2, 204672, Note_on_c, 0, 79, 80
2, 204860, Note_off_c, 0, 79, 100
2, 204864, Note_on_c, 0, 75, 80
2, 205052, Note_off_c, 0, 75, 100
2, 205248, Note_on_c, 0, 65, 80
2, 205436, Note_off_c, 0, 65, 100
2, 205440, Note_on_c, 0, 68, 80
2, 205628, Note_off_c, 0, 68, 100
2, 205632, Note_on_c, 0, 72, 80
2, 205820, Note_off_c, 0, 72, 100
2, 205824, Note_on_c, 0, 77, 80
2, 206012, Note_off_c, 0, 77, 100
2, 206016, Note_on_c, 0, 80, 80
2, 206204, Note_off_c, 0, 80, 100
2, 206208, Note_on_c, 0, 84, 80
2, 206396, Note_off_c, 0, 84, 100
2, 206400, Note_on_c, 0, 89, 115
2, 206972, Note_off_c, 0, 89, 100
2, 206976, Note_on_c, 0, 87, 100
2, 207356, Note_off_c, 0, 87, 100
2, 207360, Note_on_c, 0, 86, 100
2, 207740, Note_off_c, 0, 86, 100
2, 207744, Note_on_c, 0, 84, 100
2, 208124, Note_off_c, 0, 84, 100
2, 208128, Note_on_c, 0, 83, 80
2, 208508, Note_off_c, 0, 83, 100
2, 208512, Note_on_c, 0, 79, 80
2, 209276, Note_off_c, 0, 79, 100
2, 209280, Note_on_c, 0, 79, 80
2, 209852, Note_off_c, 0, 79, 100
2, 209856, Note_on_c, 0, 81, 80
2, 210044, Note_off_c, 0, 81, 100
2, 210048, Note_on_c, 0, 83, 80
2, 210236, Note_off_c, 0, 83, 100
2, 210240, Note_on_c, 0, 84, 80
2, 210428, Note_off_c, 0, 84, 100
2, 210432, Note_on_c, 0, 86, 80
2, 210620, Note_off_c, 0, 86, 100
2, 210624, Note_on_c, 0, 88, 80
2, 210812, Note_off_c, 0, 88, 100
2, 210816, Note_on_c, 0, 89, 80
2, 211004, Note_off_c, 0, 89, 100
2, 211008, Note_on_c, 0, 86, 80
2, 211196, Note_off_c, 0, 86, 100
2, 211200, Note_on_c, 0, 89, 80
2, 211388, Note_off_c, 0, 89, 100
2, 211392, Note_on_c, 0, 88, 80
2, 211580, Note_off_c, 0, 88, 100
2, 211584, Note_on_c, 0, 86, 80
2, 211772, Note_off_c, 0, 86, 100
2, 211776, Note_on_c, 0, 84, 80
2, 211964, Note_off_c, 0, 84, 100
2, 211968, Note_on_c, 0, 84, 80
2, 212156, Note_off_c, 0, 84, 100
2, 212160, Note_on_c, 0, 83, 80
2, 212348, Note_off_c, 0, 83, 100
2, 212352, Note_on_c, 0, 81, 80
2, 212540, Note_off_c, 0, 81, 100
2, 212544, Note_on_c, 0, 83, 80
2, 212732, Note_off_c, 0, 83, 100
2, 212736, Note_on_c, 0, 86, 80
2, 212924, Note_off_c, 0, 86, 100
2, 212928, Note_on_c, 0, 84, 80
2, 213116, Note_off_c, 0, 84, 100
2, 213120, Note_on_c, 0, 83, 80
2, 213308, Note_off_c, 0, 83, 100
2, 213312, Note_on_c, 0, 81, 80
2, 213500, Note_off_c, 0, 81, 100
2, 213504, Note_on_c, 0, 79, 80
2, 213504, Note_on_c, 0, 77, 80
2, 213884, Note_off_c, 0, 79, 100
2, 213884, Note_off_c, 0, 77, 100
2, 213888, Note_on_c, 0, 79, 80
2, 213888, Note_on_c, 0, 77, 80
2, 214268, Note_off_c, 0, 79, 100
2, 214268, Note_off_c, 0, 77, 100
2, 214272, Note_on_c, 0, 77, 80
2, 214272, Note_on_c, 0, 79, 80
2, 214460, Note_off_c, 0, 77, 100
2, 214464, Note_on_c, 0, 76, 80
2, 214652, Note_off_c, 0, 76, 100
2, 214656, Note_on_c, 0, 74, 80
2, 214844, Note_off_c, 0, 74, 100
2, 214848, Note_on_c, 0, 72, 80
2, 215036, Note_off_c, 0, 72, 100
2, 215040, Note_on_c, 0, 72, 80
2, 215228, Note_off_c, 0, 72, 100
2, 215232, Note_on_c, 0, 71, 80
2, 215420, Note_off_c, 0, 71, 100
2, 215424, Note_on_c, 0, 69, 80
2, 215612, Note_off_c, 0, 69, 100
2, 215616, Note_on_c, 0, 71, 80
2, 215804, Note_off_c, 0, 71, 100
2, 215808, Note_on_c, 0, 72, 80
2, 215996, Note_off_c, 0, 79, 100
2, 215996, Note_off_c, 0, 72, 100
2, 216000, Note_on_c, 0, 81, 80
2, 216188, Note_off_c, 0, 81, 100
2, 216192, Note_on_c, 0, 83, 80
2, 216380, Note_off_c, 0, 83, 100
2, 216384, Note_on_c, 0, 84, 80
2, 216572, Note_off_c, 0, 84, 100
2, 216576, Note_on_c, 0, 86, 80
2, 216764, Note_off_c, 0, 86, 100
2, 216768, Note_on_c, 0, 88, 80
2, 216956, Note_off_c, 0, 88, 100
2, 216960, Note_on_c, 0, 89, 80
2, 217148, Note_off_c, 0, 89, 100
2, 217152, Note_on_c, 0, 86, 80
2, 217340, Note_off_c, 0, 86, 100
2, 217344, Note_on_c, 0, 89, 80
2, 217532, Note_off_c, 0, 89, 100
2, 217536, Note_on_c, 0, 88, 80
2, 217724, Note_off_c, 0, 88, 100
2, 217728, Note_on_c, 0, 86, 80
2, 217916, Note_off_c, 0, 86, 100
2, 217920, Note_on_c, 0, 84, 80
2, 218108, Note_off_c, 0, 84, 100
2, 218112, Note_on_c, 0, 83, 80
2, 218300, Note_off_c, 0, 83, 100
2, 218304, Note_on_c, 0, 84, 80
2, 218492, Note_off_c, 0, 84, 100
2, 218496, Note_on_c, 0, 88, 81
2, 218684, Note_off_c, 0, 88, 100
2, 218688, Note_on_c, 0, 84, 82
2, 218876, Note_off_c, 0, 84, 100
2, 218880, Note_on_c, 0, 83, 83
2, 219068, Note_off_c, 0, 83, 100
2, 219072, Note_on_c, 0, 81, 83
2, 219260, Note_off_c, 0, 81, 100
2, 219264, Note_on_c, 0, 84, 84
2, 219452, Note_off_c, 0, 84, 100
2, 219456, Note_on_c, 0, 81, 85
2, 219644, Note_off_c, 0, 81, 100
2, 219648, Note_on_c, 0, 79, 86
2, 219836, Note_off_c, 0, 79, 100
2, 219840, Note_on_c, 0, 77, 87
2, 220028, Note_off_c, 0, 77, 100
2, 220032, Note_on_c, 0, 81, 87
2, 220220, Note_off_c, 0, 81, 100
2, 220224, Note_on_c, 0, 77, 88
2, 220412, Note_off_c, 0, 77, 100
2, 220416, Note_on_c, 0, 76, 89
2, 220604, Note_off_c, 0, 76, 100
2, 220608, Note_on_c, 0, 74, 90
2, 220796, Note_off_c, 0, 74, 100
2, 220800, Note_on_c, 0, 77, 91
2, 220988, Note_off_c, 0, 77, 100
2, 220992, Note_on_c, 0, 74, 91
2, 221180, Note_off_c, 0, 74, 100
2, 221184, Note_on_c, 0, 81, 92
2, 221372, Note_off_c, 0, 81, 100
2, 221376, Note_on_c, 0, 77, 93
2, 221564, Note_off_c, 0, 77, 100
2, 221568, Note_on_c, 0, 74, 94
2, 221756, Note_off_c, 0, 74, 100
2, 221760, Note_on_c, 0, 72, 94
2, 221948, Note_off_c, 0, 72, 100
2, 221952, Note_on_c, 0, 71, 80
2, 222076, Note_off_c, 0, 71, 100
2, 222080, Note_on_c, 0, 67, 80
2, 222204, Note_off_c, 0, 67, 100
2, 222208, Note_on_c, 0, 69, 80
2, 222332, Note_off_c, 0, 69, 100
2, 222336, Note_on_c, 0, 71, 80
2, 222460, Note_off_c, 0, 71, 100
2, 222464, Note_on_c, 0, 69, 80
2, 222588, Note_off_c, 0, 69, 100
2, 222592, Note_on_c, 0, 67, 80
2, 222716, Note_off_c, 0, 67, 100
2, 222720, Note_on_c, 0, 72, 80
2, 223484, Note_off_c, 0, 72, 100
2, 223488, Note_on_c, 0, 71, 80
2, 223612, Note_off_c, 0, 71, 100
2, 223616, Note_on_c, 0, 67, 80
2, 223740, Note_off_c, 0, 67, 100
2, 223744, Note_on_c, 0, 69, 80
2, 223868, Note_off_c, 0, 69, 100
2, 223872, Note_on_c, 0, 71, 80
2, 223996, Note_off_c, 0, 71, 100
2, 224000, Note_on_c, 0, 69, 80
2, 224124, Note_off_c, 0, 69, 100
2, 224128, Note_on_c, 0, 67, 80
2, 224252, Note_off_c, 0, 67, 100
2, 224256, Note_on_c, 0, 72, 80
2, 225020, Note_off_c, 0, 72, 100
2, 225024, Note_on_c, 0, 71, 80
2, 225148, Note_off_c, 0, 71, 100
2, 225152, Note_on_c, 0, 67, 80
2, 225276, Note_off_c, 0, 67, 100
2, 225280, Note_on_c, 0, 69, 80
2, 225404, Note_off_c, 0, 69, 100
2, 225408, Note_on_c, 0, 71, 80
2, 225532, Note_off_c, 0, 71, 100
2, 225536, Note_on_c, 0, 69, 80
2, 225660, Note_off_c, 0, 69, 100
2, 225664, Note_on_c, 0, 67, 80
2, 225788, Note_off_c, 0, 67, 100
2, 225792, Note_on_c, 0, 74, 80
2, 225916, Note_off_c, 0, 74, 100
2, 225920, Note_on_c, 0, 71, 80
2, 226044, Note_off_c, 0, 71, 100
2, 226048, Note_on_c, 0, 72, 80
2, 226172, Note_off_c, 0, 72, 100
2, 226176, Note_on_c, 0, 74, 80
2, 226300, Note_off_c, 0, 74, 100
2, 226304, Note_on_c, 0, 72, 80
2, 226428, Note_off_c, 0, 72, 100
2, 226432, Note_on_c, 0, 71, 80
2, 226556, Note_off_c, 0, 71, 100
2, 226560, Note_on_c, 0, 77, 80
2, 226684, Note_off_c, 0, 77, 100
2, 226688, Note_on_c, 0, 76, 80
2, 226812, Note_off_c, 0, 76, 100
2, 226816, Note_on_c, 0, 74, 80
2, 226940, Note_off_c, 0, 74, 100
2, 226944, Note_on_c, 0, 72, 80
2, 227068, Note_off_c, 0, 72, 100
2, 227072, Note_on_c, 0, 71, 80
2, 227196, Note_off_c, 0, 71, 100
2, 227200, Note_on_c, 0, 69, 80
2, 227324, Note_off_c, 0, 69, 100
2, 227328, Note_on_c, 0, 67, 80
2, 227452, Note_off_c, 0, 67, 100
2, 227456, Note_on_c, 0, 69, 80
2, 227580, Note_off_c, 0, 69, 100
2, 227584, Note_on_c, 0, 67, 80
2, 227708, Note_off_c, 0, 67, 100
2, 227712, Note_on_c, 0, 65, 80
2, 227836, Note_off_c, 0, 65, 100
2, 227840, Note_on_c, 0, 64, 80
2, 227964, Note_off_c, 0, 64, 100
2, 227968, Note_on_c, 0, 62, 80
2, 228092, Note_off_c, 0, 62, 100
2, 228096, Note_on_c, 0, 64, 80
2, 228220, Note_off_c, 0, 64, 100
2, 228224, Note_on_c, 0, 60, 80
2, 228348, Note_off_c, 0, 60, 100
2, 228352, Note_on_c, 0, 62, 80
2, 228476, Note_off_c, 0, 62, 100
2, 228480, Note_on_c, 0, 64, 80
2, 228604, Note_off_c, 0, 64, 100
2, 228608, Note_on_c, 0, 62, 80
2, 228732, Note_off_c, 0, 62, 100
2, 228736, Note_on_c, 0, 60, 80
2, 228860, Note_off_c, 0, 60, 100
2, 228864, Note_on_c, 0, 65, 80
2, 229628, Note_off_c, 0, 65, 100
2, 229632, Note_on_c, 0, 64, 80
2, 229756, Note_off_c, 0, 64, 100
2, 229760, Note_on_c, 0, 72, 80
2, 229884, Note_off_c, 0, 72, 100
2, 229888, Note_on_c, 0, 74, 80
2, 230012, Note_off_c, 0, 74, 100
2, 230016, Note_on_c, 0, 76, 80
2, 230140, Note_off_c, 0, 76, 100
2, 230144, Note_on_c, 0, 74, 80
2, 230268, Note_off_c, 0, 74, 100
2, 230272, Note_on_c, 0, 72, 80
2, 230396, Note_off_c, 0, 72, 100
2, 230400, Note_on_c, 0, 77, 80
2, 231164, Note_off_c, 0, 77, 100
2, 231168, Note_on_c, 0, 76, 80
2, 231292, Note_off_c, 0, 76, 100
2, 231296, Note_on_c, 0, 72, 80
2, 231420, Note_off_c, 0, 72, 100
2, 231424, Note_on_c, 0, 74, 80
2, 231548, Note_off_c, 0, 74, 100
2, 231552, Note_on_c, 0, 76, 80
2, 231676, Note_off_c, 0, 76, 100
2, 231680, Note_on_c, 0, 74, 80
2, 231804, Note_off_c, 0, 74, 100
2, 231808, Note_on_c, 0, 72, 80
2, 231932, Note_off_c, 0, 72, 100
2, 231936, Note_on_c, 0, 79, 80
2, 232060, Note_off_c, 0, 79, 100
2, 232064, Note_on_c, 0, 76, 80
2, 232188, Note_off_c, 0, 76, 100
2, 232192, Note_on_c, 0, 77, 80
2, 232316, Note_off_c, 0, 77, 100
2, 232320, Note_on_c, 0, 79, 80
2, 232444, Note_off_c, 0, 79, 100
2, 232448, Note_on_c, 0, 77, 80
2, 232572, Note_off_c, 0, 77, 100
2, 232576, Note_on_c, 0, 76, 80
2, 232700, Note_off_c, 0, 76, 100
2, 232704, Note_on_c, 0, 82, 80
2, 232828, Note_off_c, 0, 82, 100
2, 232832, Note_on_c, 0, 81, 80
2, 232956, Note_off_c, 0, 81, 100
2, 232960, Note_on_c, 0, 79, 80
2, 233084, Note_off_c, 0, 79, 100
2, 233088, Note_on_c, 0, 77, 80
2, 233212, Note_off_c, 0, 77, 100
2, 233216, Note_on_c, 0, 76, 80
2, 233340, Note_off_c, 0, 76, 100
2, 233344, Note_on_c, 0, 74, 80
2, 233468, Note_off_c, 0, 74, 100
2, 233472, Note_on_c, 0, 72, 80
2, 233596, Note_off_c, 0, 72, 100
2, 233600, Note_on_c, 0, 71, 80
2, 233724, Note_off_c, 0, 71, 100
2, 233728, Note_on_c, 0, 72, 80
2, 233852, Note_off_c, 0, 72, 100
2, 233856, Note_on_c, 0, 73, 80
2, 233980, Note_off_c, 0, 73, 100
2, 233984, Note_on_c, 0, 74, 80
2, 234108, Note_off_c, 0, 74, 100
2, 234112, Note_on_c, 0, 70, 80
2, 234236, Note_off_c, 0, 70, 100
2, 234624, Note_on_c, 0, 57, 80
2, 234748, Note_off_c, 0, 57, 100
2, 234752, Note_on_c, 0, 60, 80
2, 234876, Note_off_c, 0, 60, 100
2, 234880, Note_on_c, 0, 65, 80
2, 235004, Note_off_c, 0, 65, 100
2, 235008, Note_on_c, 0, 69, 80
2, 235132, Note_off_c, 0, 69, 100
2, 235136, Note_on_c, 0, 72, 80
2, 235260, Note_off_c, 0, 72, 100
2, 235264, Note_on_c, 0, 77, 80
2, 235388, Note_off_c, 0, 77, 100
2, 235392, Note_on_c, 0, 81, 80
2, 235580, Note_off_c, 0, 81, 100
2, 235584, Note_on_c, 0, 81, 80
2, 235772, Note_off_c, 0, 81, 100
2, 235776, Note_on_c, 0, 81, 80
2, 235964, Note_off_c, 0, 81, 100
2, 235968, Note_on_c, 0, 79, 80
2, 236156, Note_off_c, 0, 79, 100
2, 236160, Note_on_c, 0, 77, 80
2, 236348, Note_off_c, 0, 77, 100
2, 236352, Note_on_c, 0, 76, 80
2, 236540, Note_off_c, 0, 76, 100
2, 236544, Note_on_c, 0, 76, 80
2, 236732, Note_off_c, 0, 76, 100
2, 236736, Note_on_c, 0, 74, 80
2, 236924, Note_off_c, 0, 74, 100
2, 236928, Note_on_c, 0, 72, 80
2, 237116, Note_off_c, 0, 72, 100
2, 237120, Note_on_c, 0, 71, 80
2, 237308, Note_off_c, 0, 71, 100
2, 237312, Note_on_c, 0, 72, 80
2, 237692, Note_off_c, 0, 72, 100
2, 238464, Note_on_c, 0, 67, 80
2, 238844, Note_off_c, 0, 67, 100
2, 238848, Note_on_c, 0, 74, 80
2, 238848, Note_on_c, 0, 71, 80
2, 239228, Note_off_c, 0, 74, 100
2, 239228, Note_off_c, 0, 71, 100
2, 239232, Note_on_c, 0, 74, 80
2, 239232, Note_on_c, 0, 71, 80
2, 239612, Note_off_c, 0, 74, 100
2, 239612, Note_off_c, 0, 71, 100
2, 239616, Note_on_c, 0, 74, 80
2, 239616, Note_on_c, 0, 71, 80
2, 239996, Note_off_c, 0, 74, 100
2, 239996, Note_off_c, 0, 71, 100
2, 240000, Note_on_c, 0, 74, 80
2, 240000, Note_on_c, 0, 71, 80
2, 240380, Note_off_c, 0, 74, 100
2, 240380, Note_off_c, 0, 71, 100
2, 240384, Note_on_c, 0, 79, 80
2, 240384, Note_on_c, 0, 72, 80
2, 241532, Note_off_c, 0, 79, 100
2, 241532, Note_off_c, 0, 72, 100
2, 241536, Note_on_c, 0, 79, 80
2, 241536, Note_on_c, 0, 72, 80
2, 241916, Note_off_c, 0, 79, 100
2, 241916, Note_off_c, 0, 72, 100
2, 241920, Note_on_c, 0, 78, 80
2, 241920, Note_on_c, 0, 75, 80
2, 241920, Note_on_c, 0, 72, 80
2, 242684, Note_off_c, 0, 78, 100
2, 242684, Note_off_c, 0, 75, 100
2, 242684, Note_off_c, 0, 72, 100
2, 242688, Note_on_c, 0, 78, 80
2, 242688, Note_on_c, 0, 74, 80
2, 242688, Note_on_c, 0, 72, 80
2, 243452, Note_off_c, 0, 78, 100
2, 243452, Note_off_c, 0, 74, 100
2, 243452, Note_off_c, 0, 72, 100
2, 243456, Note_on_c, 0, 79, 80
2, 243456, Note_on_c, 0, 74, 80
2, 243456, Note_on_c, 0, 71, 80
2, 243836, Note_off_c, 0, 79, 100
2, 243836, Note_off_c, 0, 74, 100
2, 243836, Note_off_c, 0, 71, 100
2, 244608, Note_on_c, 0, 55, 80
2, 244988, Note_off_c, 0, 55, 100
2, 244992, Note_on_c, 0, 62, 80
2, 244992, Note_on_c, 0, 59, 80
2, 245372, Note_off_c, 0, 62, 100
2, 245372, Note_off_c, 0, 59, 100
2, 245376, Note_on_c, 0, 62, 80
2, 245376, Note_on_c, 0, 59, 80
2, 245756, Note_off_c, 0, 62, 100
2, 245756, Note_off_c, 0, 59, 100
2, 245760, Note_on_c, 0, 62, 80
2, 245760, Note_on_c, 0, 59, 80
2, 246140, Note_off_c, 0, 62, 100
2, 246140, Note_off_c, 0, 59, 100
2, 246144, Note_on_c, 0, 62, 80
2, 246144, Note_on_c, 0, 59, 80
2, 246524, Note_off_c, 0, 62, 100
2, 246524, Note_off_c, 0, 59, 100
2, 246528, Note_on_c, 0, 67, 80
2, 246912, Note_on_c, 0, 59, 80
2, 247292, Note_off_c, 0, 59, 100
2, 247296, Note_on_c, 0, 60, 80
2, 247676, Note_off_c, 0, 67, 100
2, 247680, Note_on_c, 0, 67, 80
2, 248060, Note_off_c, 0, 60, 100
2, 248060, Note_off_c, 0, 67, 100
2, 248064, Note_on_c, 0, 65, 80
2, 248064, Note_on_c, 0, 60, 80
2, 248444, Note_off_c, 0, 65, 100
2, 248444, Note_off_c, 0, 60, 100
2, 248448, Note_on_c, 0, 65, 80
2, 248448, Note_on_c, 0, 60, 80
2, 248828, Note_off_c, 0, 65, 100
2, 248828, Note_off_c, 0, 60, 100
2, 248832, Note_on_c, 0, 65, 80
2, 248832, Note_on_c, 0, 62, 80
2, 249212, Note_off_c, 0, 65, 100
2, 249212, Note_off_c, 0, 62, 100
2, 249216, Note_on_c, 0, 65, 80
2, 249216, Note_on_c, 0, 62, 80
2, 249596, Note_off_c, 0, 65, 100
2, 249600, Note_on_c, 0, 70, 80
2, 249980, Note_off_c, 0, 62, 100
2, 249984, Note_on_c, 0, 62, 80
2, 250364, Note_off_c, 0, 62, 100
2, 250368, Note_on_c, 0, 63, 80
2, 250748, Note_off_c, 0, 70, 100
2, 250752, Note_on_c, 0, 70, 80
2, 251132, Note_off_c, 0, 63, 100
2, 251132, Note_off_c, 0, 70, 100
2, 251136, Note_on_c, 0, 69, 80
2, 251136, Note_on_c, 0, 63, 80
2, 251516, Note_off_c, 0, 69, 100
2, 251516, Note_off_c, 0, 63, 100
2, 251520, Note_on_c, 0, 69, 80
2, 251520, Note_on_c, 0, 66, 80
2, 251900, Note_off_c, 0, 69, 100
2, 251900, Note_off_c, 0, 66, 100
2, 251904, Note_on_c, 0, 69, 80
2, 251904, Note_on_c, 0, 66, 80
2, 252284, Note_off_c, 0, 69, 100
2, 252284, Note_off_c, 0, 66, 100
2, 252288, Note_on_c, 0, 69, 80
2, 252288, Note_on_c, 0, 66, 80
2, 252668, Note_off_c, 0, 69, 100
2, 252672, Note_on_c, 0, 74, 80
2, 253052, Note_off_c, 0, 66, 100
2, 253056, Note_on_c, 0, 66, 84
2, 253436, Note_off_c, 0, 66, 100
2, 253440, Note_on_c, 0, 67, 89
2, 253820, Note_off_c, 0, 74, 100
2, 253820, Note_off_c, 0, 67, 100
2, 253824, Note_on_c, 0, 66, 94
2, 253824, Note_on_c, 0, 69, 94
2, 254204, Note_off_c, 0, 69, 100
2, 254208, Note_on_c, 0, 74, 90
2, 254588, Note_off_c, 0, 66, 100
2, 254592, Note_on_c, 0, 66, 87
2, 254972, Note_off_c, 0, 66, 100
2, 254976, Note_on_c, 0, 67, 84
2, 255356, Note_off_c, 0, 74, 100
2, 255356, Note_off_c, 0, 67, 100
2, 255360, Note_on_c, 0, 74, 81
2, 255360, Note_on_c, 0, 71, 81
2, 255740, Note_off_c, 0, 74, 100
2, 255744, Note_on_c, 0, 79, 80
2, 256124, Note_off_c, 0, 71, 100
2, 256128, Note_on_c, 0, 71, 84
2, 256508, Note_off_c, 0, 71, 100
2, 256512, Note_on_c, 0, 72, 89
2, 256892, Note_off_c, 0, 79, 100
2, 256892, Note_off_c, 0, 72, 100
2, 256896, Note_on_c, 0, 74, 94
2, 256896, Note_on_c, 0, 71, 94
2, 257276, Note_off_c, 0, 74, 100
2, 257280, Note_on_c, 0, 79, 90
2, 257660, Note_off_c, 0, 71, 100
2, 257664, Note_on_c, 0, 71, 87
2, 258044, Note_off_c, 0, 71, 100
2, 258048, Note_on_c, 0, 72, 84
2, 258428, Note_off_c, 0, 79, 100
2, 258428, Note_off_c, 0, 72, 100
2, 258432, Note_on_c, 0, 74, 81
2, 258432, Note_on_c, 0, 71, 81
2, 258812, Note_off_c, 0, 74, 100
2, 258816, Note_on_c, 0, 80, 80
2, 259196, Note_off_c, 0, 71, 100
2, 259200, Note_on_c, 0, 70, 80
2, 259580, Note_off_c, 0, 70, 100
2, 259584, Note_on_c, 0, 71, 80
2, 259964, Note_off_c, 0, 71, 100
2, 259968, Note_on_c, 0, 74, 80
2, 260348, Note_off_c, 0, 80, 100
2, 260348, Note_off_c, 0, 74, 100
2, 260352, Note_on_c, 0, 79, 80
2, 260736, Note_on_c, 0, 70, 80
2, 261116, Note_off_c, 0, 70, 100
2, 261120, Note_on_c, 0, 71, 80
2, 261500, Note_off_c, 0, 71, 100
2, 261504, Note_on_c, 0, 74, 80
2, 261884, Note_off_c, 0, 79, 100
2, 261884, Note_off_c, 0, 74, 100
2, 261888, Note_on_c, 0, 78, 80
2, 262272, Note_on_c, 0, 70, 80
2, 262652, Note_off_c, 0, 70, 100
2, 262656, Note_on_c, 0, 71, 80
2, 263036, Note_off_c, 0, 71, 100
2, 263040, Note_on_c, 0, 74, 80
2, 263420, Note_off_c, 0, 78, 100
2, 263420, Note_off_c, 0, 74, 100
2, 263424, Note_on_c, 0, 77, 80
2, 263808, Note_on_c, 0, 70, 80
2, 264188, Note_off_c, 0, 70, 100
2, 264192, Note_on_c, 0, 71, 80
2, 264956, Note_off_c, 0, 77, 100
2, 264956, Note_off_c, 0, 71, 100
2, 264960, Note_on_c, 0, 75, 80
2, 264960, Note_on_c, 0, 72, 80
2, 264960, Note_on_c, 0, 67, 80
2, 265532, Note_off_c, 0, 75, 100
2, 265532, Note_off_c, 0, 72, 100
2, 265532, Note_off_c, 0, 67, 100
2, 265536, Note_on_c, 0, 77, 80
2, 265724, Note_off_c, 0, 77, 100
2, 265728, Note_on_c, 0, 74, 80
2, 266300, Note_off_c, 0, 74, 100
2, 266304, Note_on_c, 0, 75, 80
2, 266492, Note_off_c, 0, 75, 100
2, 266496, Note_on_c, 0, 72, 80
2, 267260, Note_off_c, 0, 72, 100
2, 267264, Note_on_c, 0, 74, 80
2, 267308, Note_off_c, 0, 74, 100
2, 267312, Note_on_c, 0, 72, 80
2, 267452, Note_off_c, 0, 72, 100
2, 267456, Note_on_c, 0, 71, 80
2, 267644, Note_off_c, 0, 71, 100
2, 267648, Note_on_c, 0, 72, 80
2, 267836, Note_off_c, 0, 72, 100
2, 267840, Note_on_c, 0, 74, 80
2, 268028, Note_off_c, 0, 74, 100
2, 268032, Note_on_c, 0, 77, 80
2, 268076, Note_off_c, 0, 77, 100
2, 268080, Note_on_c, 0, 75, 80
2, 268220, Note_off_c, 0, 75, 100
2, 268224, Note_on_c, 0, 74, 80
2, 268412, Note_off_c, 0, 74, 100
2, 268416, Note_on_c, 0, 75, 80
2, 268604, Note_off_c, 0, 75, 100
2, 268608, Note_on_c, 0, 77, 80
2, 268796, Note_off_c, 0, 77, 100
2, 268800, Note_on_c, 0, 79, 80
2, 269180, Note_off_c, 0, 79, 100
2, 269184, Note_on_c, 0, 79, 80
2, 269564, Note_off_c, 0, 79, 100
2, 269568, Note_on_c, 0, 79, 80
2, 270716, Note_off_c, 0, 79, 100
2, 270720, Note_on_c, 0, 77, 80
2, 270908, Note_off_c, 0, 77, 100
2, 270912, Note_on_c, 0, 79, 80
2, 271100, Note_off_c, 0, 79, 100
2, 271104, Note_on_c, 0, 77, 80
2, 271196, Note_off_c, 0, 77, 100
2, 271200, Note_on_c, 0, 79, 80
2, 271292, Note_off_c, 0, 79, 100
2, 271296, Note_on_c, 0, 80, 80
2, 271868, Note_off_c, 0, 80, 100
2, 271872, Note_on_c, 0, 74, 80
2, 272252, Note_off_c, 0, 74, 100
2, 272256, Note_on_c, 0, 75, 80
2, 272444, Note_off_c, 0, 75, 100
2, 272448, Note_on_c, 0, 77, 80
2, 272636, Note_off_c, 0, 77, 100
2, 272640, Note_on_c, 0, 75, 80
2, 272732, Note_off_c, 0, 75, 100
2, 272736, Note_on_c, 0, 77, 80
2, 272828, Note_off_c, 0, 77, 100
2, 272832, Note_on_c, 0, 79, 80
2, 273404, Note_off_c, 0, 79, 100
2, 273408, Note_on_c, 0, 72, 80
2, 273788, Note_off_c, 0, 72, 100
2, 273792, Note_on_c, 0, 72, 80
2, 273980, Note_off_c, 0, 72, 100
2, 273984, Note_on_c, 0, 74, 80
2, 274172, Note_off_c, 0, 74, 100
2, 274176, Note_on_c, 0, 75, 80
2, 274556, Note_off_c, 0, 75, 100
2, 274560, Note_on_c, 0, 75, 80
2, 274748, Note_off_c, 0, 75, 100
2, 274752, Note_on_c, 0, 77, 80
2, 274940, Note_off_c, 0, 77, 100
2, 274944, Note_on_c, 0, 74, 80
2, 275324, Note_off_c, 0, 74, 100
2, 275328, Note_on_c, 0, 74, 80
2, 275516, Note_off_c, 0, 74, 100
2, 275520, Note_on_c, 0, 75, 80
2, 275708, Note_off_c, 0, 75, 100
2, 275712, Note_on_c, 0, 72, 90
2, 275900, Note_off_c, 0, 72, 100
2, 275904, Note_on_c, 0, 71, 90
2, 276092, Note_off_c, 0, 71, 100
2, 276096, Note_on_c, 0, 72, 91
2, 276284, Note_off_c, 0, 72, 100
2, 276288, Note_on_c, 0, 74, 92
2, 276476, Note_off_c, 0, 74, 100
2, 276480, Note_on_c, 0, 75, 93
2, 276668, Note_off_c, 0, 75, 100
2, 276672, Note_on_c, 0, 76, 94
2, 276860, Note_off_c, 0, 76, 100
2, 276864, Note_on_c, 0, 77, 95
2, 277052, Note_off_c, 0, 77, 100
2, 277056, Note_on_c, 0, 79, 96
2, 277244, Note_off_c, 0, 79, 100
2, 277248, Note_on_c, 0, 80, 96
2, 277436, Note_off_c, 0, 80, 100
2, 277440, Note_on_c, 0, 79, 97
2, 277628, Note_off_c, 0, 79, 100
2, 277632, Note_on_c, 0, 82, 98
2, 277820, Note_off_c, 0, 82, 100
2, 277824, Note_on_c, 0, 80, 99
2, 278012, Note_off_c, 0, 80, 100
2, 278016, Note_on_c, 0, 79, 100
2, 278204, Note_off_c, 0, 79, 100
2, 278208, Note_on_c, 0, 77, 101
2, 278396, Note_off_c, 0, 77, 100
2, 278400, Note_on_c, 0, 75, 102
2, 278588, Note_off_c, 0, 75, 100
2, 278592, Note_on_c, 0, 74, 103
2, 278780, Note_off_c, 0, 74, 100
2, 278784, Note_on_c, 0, 79, 103
2, 278972, Note_off_c, 0, 79, 100
2, 278976, Note_on_c, 0, 78, 104
2, 279164, Note_off_c, 0, 78, 100
2, 279168, Note_on_c, 0, 80, 105
2, 279356, Note_off_c, 0, 80, 100
2, 279360, Note_on_c, 0, 79, 106
2, 279548, Note_off_c, 0, 79, 100
2, 279552, Note_on_c, 0, 77, 107
2, 279740, Note_off_c, 0, 77, 100
2, 279744, Note_on_c, 0, 75, 108
2, 279932, Note_off_c, 0, 75, 100
2, 279936, Note_on_c, 0, 74, 109
2, 280124, Note_off_c, 0, 74, 100
2, 280128, Note_on_c, 0, 72, 109
2, 280316, Note_off_c, 0, 72, 100
2, 280320, Note_on_c, 0, 75, 100
2, 280508, Note_off_c, 0, 75, 100
2, 280512, Note_on_c, 0, 74, 100
2, 280700, Note_off_c, 0, 74, 100
2, 280704, Note_on_c, 0, 77, 100
2, 280892, Note_off_c, 0, 77, 100
2, 280896, Note_on_c, 0, 75, 100
2, 281084, Note_off_c, 0, 75, 100
2, 281088, Note_on_c, 0, 74, 100
2, 281276, Note_off_c, 0, 74, 100
2, 281280, Note_on_c, 0, 73, 100
2, 281468, Note_off_c, 0, 73, 100
2, 281472, Note_on_c, 0, 75, 100
2, 281660, Note_off_c, 0, 75, 100
2, 281664, Note_on_c, 0, 74, 100
2, 281852, Note_off_c, 0, 74, 100
2, 281856, Note_on_c, 0, 72, 80
2, 282236, Note_off_c, 0, 72, 100
2, 282752, Note_on_c, 0, 84, 81
2, 282876, Note_off_c, 0, 84, 100
2, 282880, Note_on_c, 0, 86, 82
2, 283004, Note_off_c, 0, 86, 100
2, 283008, Note_on_c, 0, 88, 83
2, 283132, Note_off_c, 0, 88, 100
2, 283136, Note_on_c, 0, 86, 85
2, 283260, Note_off_c, 0, 86, 100
2, 283264, Note_on_c, 0, 84, 86
2, 283388, Note_off_c, 0, 84, 100
2, 283392, Note_on_c, 0, 89, 98
2, 283772, Note_off_c, 0, 89, 100
2, 284288, Note_on_c, 0, 84, 97
2, 284412, Note_off_c, 0, 84, 100
2, 284416, Note_on_c, 0, 86, 98
2, 284540, Note_off_c, 0, 86, 100
2, 284544, Note_on_c, 0, 88, 99
2, 284668, Note_off_c, 0, 88, 100
2, 284672, Note_on_c, 0, 86, 101
2, 284796, Note_off_c, 0, 86, 100
2, 284800, Note_on_c, 0, 84, 102
2, 284924, Note_off_c, 0, 84, 100
2, 284928, Note_on_c, 0, 89, 117
2, 285308, Note_off_c, 0, 89, 100
2, 285824, Note_on_c, 0, 84, 113
2, 285948, Note_off_c, 0, 84, 100
2, 285952, Note_on_c, 0, 86, 114
2, 286076, Note_off_c, 0, 86, 100
2, 286080, Note_on_c, 0, 88, 115
2, 286204, Note_off_c, 0, 88, 100
2, 286208, Note_on_c, 0, 86, 117
2, 286332, Note_off_c, 0, 86, 100
2, 286336, Note_on_c, 0, 84, 118
2, 286460, Note_off_c, 0, 84, 100
2, 286464, Note_on_c, 0, 89, 119
2, 286844, Note_off_c, 0, 89, 100
2, 286848, Note_on_c, 0, 84, 120
2, 286848, Note_on_c, 0, 78, 120
2, 286848, Note_on_c, 0, 75, 120
2, 286848, Note_on_c, 0, 72, 120
2, 287228, Note_off_c, 0, 84, 100
2, 287228, Note_off_c, 0, 78, 100
2, 287228, Note_off_c, 0, 75, 100
2, 287228, Note_off_c, 0, 72, 100
2, 287232, Note_on_c, 0, 84, 120
2, 287232, Note_on_c, 0, 79, 120
2, 287232, Note_on_c, 0, 75, 120
2, 287232, Note_on_c, 0, 72, 120
2, 287612, Note_off_c, 0, 84, 100
2, 287612, Note_off_c, 0, 79, 100
2, 287612, Note_off_c, 0, 75, 100
2, 287612, Note_off_c, 0, 72, 100
2, 287616, Note_on_c, 0, 83, 120
2, 287616, Note_on_c, 0, 79, 120
2, 287616, Note_on_c, 0, 74, 120
2, 287616, Note_on_c, 0, 71, 120
2, 287996, Note_off_c, 0, 83, 100
2, 287996, Note_off_c, 0, 79, 100
2, 287996, Note_off_c, 0, 74, 100
2, 287996, Note_off_c, 0, 71, 100
2, 288000, Note_on_c, 0, 84, 120
2, 288000, Note_on_c, 0, 79, 120
2, 288000, Note_on_c, 0, 72, 120
2, 288000, Note_on_c, 0, 75, 120
2, 288380, Note_off_c, 0, 84, 100
2, 288380, Note_off_c, 0, 79, 100
2, 288380, Note_off_c, 0, 72, 100
2, 288380, Note_off_c, 0, 75, 100
2, 288896, Note_on_c, 0, 72, 100
2, 289020, Note_off_c, 0, 72, 100
2, 289024, Note_on_c, 0, 74, 100
2, 289148, Note_off_c, 0, 74, 100
2, 289152, Note_on_c, 0, 76, 100
2, 289276, Note_off_c, 0, 76, 100
2, 289280, Note_on_c, 0, 74, 100
2, 289404, Note_off_c, 0, 74, 100
2, 289408, Note_on_c, 0, 72, 100
2, 289532, Note_off_c, 0, 72, 100
2, 289536, Note_on_c, 0, 77, 113
2, 289916, Note_off_c, 0, 77, 100
2, 290432, Note_on_c, 0, 72, 100
2, 290556, Note_off_c, 0, 72, 100
2, 290560, Note_on_c, 0, 74, 100
2, 290684, Note_off_c, 0, 74, 100
2, 290688, Note_on_c, 0, 76, 100
2, 290812, Note_off_c, 0, 76, 100
2, 290816, Note_on_c, 0, 74, 100
2, 290940, Note_off_c, 0, 74, 100
2, 290944, Note_on_c, 0, 72, 100
2, 291068, Note_off_c, 0, 72, 100
2, 291072, Note_on_c, 0, 77, 118
2, 291452, Note_off_c, 0, 77, 100
2, 291968, Note_on_c, 0, 60, 100
2, 292092, Note_off_c, 0, 60, 100
2, 292096, Note_on_c, 0, 62, 100
2, 292220, Note_off_c, 0, 62, 100
2, 292224, Note_on_c, 0, 64, 100
2, 292348, Note_off_c, 0, 64, 100
2, 292352, Note_on_c, 0, 62, 100
2, 292476, Note_off_c, 0, 62, 100
2, 292480, Note_on_c, 0, 60, 100
2, 292604, Note_off_c, 0, 60, 100
2, 292608, Note_on_c, 0, 65, 80
2, 292732, Note_off_c, 0, 65, 100
2, 292736, Note_on_c, 0, 60, 80
2, 292860, Note_off_c, 0, 60, 100
2, 292864, Note_on_c, 0, 62, 80
2, 292988, Note_off_c, 0, 62, 100
2, 292992, Note_on_c, 0, 63, 81
2, 293116, Note_off_c, 0, 63, 100
2, 293120, Note_on_c, 0, 62, 81
2, 293244, Note_off_c, 0, 62, 100
2, 293248, Note_on_c, 0, 60, 82
2, 293372, Note_off_c, 0, 60, 100
2, 293376, Note_on_c, 0, 66, 82
2, 293500, Note_off_c, 0, 66, 100
2, 293504, Note_on_c, 0, 60, 82
2, 293628, Note_off_c, 0, 60, 100
2, 293632, Note_on_c, 0, 62, 83
2, 293756, Note_off_c, 0, 62, 100
2, 293760, Note_on_c, 0, 63, 83
2, 293884, Note_off_c, 0, 63, 100
2, 293888, Note_on_c, 0, 62, 84
2, 294012, Note_off_c, 0, 62, 100
2, 294016, Note_on_c, 0, 60, 84
2, 294140, Note_off_c, 0, 60, 100
2, 294144, Note_on_c, 0, 67, 85
2, 294268, Note_off_c, 0, 67, 100
2, 294272, Note_on_c, 0, 60, 85
2, 294396, Note_off_c, 0, 60, 100
2, 294400, Note_on_c, 0, 62, 85
2, 294524, Note_off_c, 0, 62, 100
2, 294528, Note_on_c, 0, 63, 86
2, 294652, Note_off_c, 0, 63, 100
2, 294656, Note_on_c, 0, 62, 86
2, 294780, Note_off_c, 0, 62, 100
2, 294784, Note_on_c, 0, 60, 87
2, 294908, Note_off_c, 0, 60, 100
2, 294912, Note_on_c, 0, 69, 87
2, 295036, Note_off_c, 0, 69, 100
2, 295040, Note_on_c, 0, 60, 88
2, 295164, Note_off_c, 0, 60, 100
2, 295168, Note_on_c, 0, 62, 88
2, 295292, Note_off_c, 0, 62, 100
2, 295296, Note_on_c, 0, 63, 88
2, 295420, Note_off_c, 0, 63, 100
2, 295424, Note_on_c, 0, 62, 89
2, 295548, Note_off_c, 0, 62, 100
2, 295552, Note_on_c, 0, 60, 89
2, 295676, Note_off_c, 0, 60, 100
2, 295680, Note_on_c, 0, 71, 90
2, 295804, Note_off_c, 0, 71, 100
2, 295808, Note_on_c, 0, 59, 90
2, 295932, Note_off_c, 0, 59, 100
2, 295936, Note_on_c, 0, 60, 91
2, 296060, Note_off_c, 0, 60, 100
2, 296064, Note_on_c, 0, 62, 91
2, 296188, Note_off_c, 0, 62, 100
2, 296192, Note_on_c, 0, 60, 91
2, 296316, Note_off_c, 0, 60, 100
2, 296320, Note_on_c, 0, 59, 92
2, 296444, Note_off_c, 0, 59, 100
2, 296448, Note_on_c, 0, 72, 92
2, 296572, Note_off_c, 0, 72, 100
2, 296576, Note_on_c, 0, 60, 93
2, 296700, Note_off_c, 0, 60, 100
2, 296704, Note_on_c, 0, 62, 93
2, 296828, Note_off_c, 0, 62, 100
2, 296832, Note_on_c, 0, 63, 94
2, 296956, Note_off_c, 0, 63, 100
2, 296960, Note_on_c, 0, 62, 94
2, 297084, Note_off_c, 0, 62, 100
2, 297088, Note_on_c, 0, 60, 94
2, 297212, Note_off_c, 0, 60, 100
2, 297216, Note_on_c, 0, 74, 95
2, 297340, Note_off_c, 0, 74, 100
2, 297344, Note_on_c, 0, 62, 95
2, 297468, Note_off_c, 0, 62, 100
2, 297472, Note_on_c, 0, 63, 96
2, 297596, Note_off_c, 0, 63, 100
2, 297600, Note_on_c, 0, 65, 96
2, 297724, Note_off_c, 0, 65, 100
2, 297728, Note_on_c, 0, 63, 97
2, 297852, Note_off_c, 0, 63, 100
2, 297856, Note_on_c, 0, 62, 97
2, 297980, Note_off_c, 0, 62, 100
2, 297984, Note_on_c, 0, 71, 97
2, 298108, Note_off_c, 0, 71, 100
2, 298112, Note_on_c, 0, 59, 98
2, 298236, Note_off_c, 0, 59, 100
2, 298240, Note_on_c, 0, 60, 98
2, 298364, Note_off_c, 0, 60, 100
2, 298368, Note_on_c, 0, 62, 99
2, 298492, Note_off_c, 0, 62, 100
2, 298496, Note_on_c, 0, 60, 99
2, 298620, Note_off_c, 0, 60, 100
2, 298624, Note_on_c, 0, 59, 99
2, 298748, Note_off_c, 0, 59, 100
2, 298752, Note_on_c, 0, 72, 110
2, 298752, Note_on_c, 0, 60, 110
2, 299132, Note_off_c, 0, 72, 100
2, 299132, Note_off_c, 0, 60, 100
2, 299520, Note_on_c, 0, 79, 123
2, 299900, Note_off_c, 0, 79, 100
2, 299904, Note_on_c, 0, 77, 110
2, 299996, Note_off_c, 0, 77, 100
2, 300000, Note_on_c, 0, 75, 110
2, 300092, Note_off_c, 0, 75, 100
2, 300096, Note_on_c, 0, 74, 110
2, 300188, Note_off_c, 0, 74, 100
2, 300192, Note_on_c, 0, 72, 110
2, 300284, Note_off_c, 0, 72, 100
2, 300288, Note_on_c, 0, 74, 110
2, 300668, Note_off_c, 0, 74, 100
2, 301056, Note_on_c, 0, 77, 120
2, 301436, Note_off_c, 0, 77, 100
2, 301440, Note_on_c, 0, 75, 110
2, 301532, Note_off_c, 0, 75, 100
2, 301536, Note_on_c, 0, 74, 110
2, 301628, Note_off_c, 0, 74, 100
2, 301632, Note_on_c, 0, 72, 110
2, 301724, Note_off_c, 0, 72, 100
2, 301728, Note_on_c, 0, 71, 110
2, 301820, Note_off_c, 0, 71, 100
2, 301824, Note_on_c, 0, 72, 110
2, 301824, Note_on_c, 0, 60, 110
2, 302204, Note_off_c, 0, 72, 100
2, 302204, Note_off_c, 0, 60, 100
2, 302592, Note_on_c, 0, 79, 124
2, 302972, Note_off_c, 0, 79, 100
2, 302976, Note_on_c, 0, 77, 110
2, 303068, Note_off_c, 0, 77, 100
2, 303072, Note_on_c, 0, 75, 110
2, 303164, Note_off_c, 0, 75, 100
2, 303168, Note_on_c, 0, 74, 110
2, 303260, Note_off_c, 0, 74, 100
2, 303264, Note_on_c, 0, 72, 110
2, 303356, Note_off_c, 0, 72, 100
2, 303360, Note_on_c, 0, 74, 110
2, 303740, Note_off_c, 0, 74, 100
2, 304128, Note_on_c, 0, 77, 123
2, 304508, Note_off_c, 0, 77, 100
2, 304512, Note_on_c, 0, 75, 110
2, 304604, Note_off_c, 0, 75, 100
2, 304608, Note_on_c, 0, 74, 110
2, 304700, Note_off_c, 0, 74, 100
2, 304704, Note_on_c, 0, 72, 110
2, 304796, Note_off_c, 0, 72, 100
2, 304800, Note_on_c, 0, 71, 110
2, 304892, Note_off_c, 0, 71, 100
2, 304896, Note_on_c, 0, 72, 110
2, 304896, Note_on_c, 0, 60, 110
2, 305276, Note_off_c, 0, 72, 100
2, 305276, Note_off_c, 0, 60, 100
2, 305664, Note_on_c, 0, 79, 120
2, 306044, Note_off_c, 0, 79, 100
2, 306048, Note_on_c, 0, 77, 110
2, 306140, Note_off_c, 0, 77, 100
2, 306144, Note_on_c, 0, 75, 110
2, 306236, Note_off_c, 0, 75, 100
2, 306240, Note_on_c, 0, 74, 110
2, 306332, Note_off_c, 0, 74, 100
2, 306336, Note_on_c, 0, 72, 110
2, 306428, Note_off_c, 0, 72, 100
2, 306432, Note_on_c, 0, 73, 110
2, 306812, Note_off_c, 0, 73, 100
2, 307200, Note_on_c, 0, 89, 120
2, 309116, Note_off_c, 0, 89, 100
2, 309120, Note_on_c, 0, 87, 120
2, 309248, Note_on_c, 0, 85, 120
2, 309320, Note_off_c, 0, 87, 100
2, 309376, Note_on_c, 0, 84, 120
2, 309444, Note_off_c, 0, 85, 100
2, 309504, Note_on_c, 0, 82, 120
2, 309568, Note_off_c, 0, 84, 100
2, 309632, Note_on_c, 0, 80, 120
2, 309696, Note_off_c, 0, 82, 100
2, 309760, Note_on_c, 0, 79, 120
2, 309836, Note_off_c, 0, 80, 100
2, 309888, Note_on_c, 0, 77, 120
2, 309944, Note_off_c, 0, 79, 100
2, 310016, Note_on_c, 0, 75, 120
2, 310084, Note_off_c, 0, 77, 100
2, 310144, Note_on_c, 0, 73, 120
2, 310192, Note_off_c, 0, 75, 100
2, 310272, Note_on_c, 0, 72, 120
2, 310320, Note_off_c, 0, 73, 100
2, 310336, Note_on_c, 0, 70, 120
2, 310376, Note_off_c, 0, 72, 100
2, 310400, Note_on_c, 0, 68, 120
2, 310428, Note_off_c, 0, 70, 100
2, 310464, Note_on_c, 0, 67, 120
2, 310492, Note_off_c, 0, 68, 100
2, 310528, Note_on_c, 0, 65, 120
2, 310556, Note_off_c, 0, 67, 100
2, 310592, Note_on_c, 0, 63, 120
2, 310620, Note_off_c, 0, 65, 100
2, 310656, Note_on_c, 0, 61, 120
2, 310692, Note_off_c, 0, 63, 100
2, 310716, Note_on_c, 0, 60, 120
2, 310748, Note_off_c, 0, 61, 100
2, 310776, Note_on_c, 0, 58, 120
2, 310816, Note_off_c, 0, 60, 100
2, 310832, Note_on_c, 0, 56, 120
2, 310876, Note_off_c, 0, 58, 100
2, 310888, Note_on_c, 0, 55, 120
2, 310932, Note_off_c, 0, 56, 100
2, 310948, Note_on_c, 0, 53, 120
2, 310984, Note_on_c, 0, 51, 120
2, 310992, Note_off_c, 0, 55, 100
2, 311032, Note_off_c, 0, 53, 100
2, 311032, Note_off_c, 0, 51, 100
2, 311040, Note_on_c, 0, 49, 120
2, 315260, Note_off_c, 0, 49, 100
2, 315264, Note_on_c, 0, 56, 80
2, 315452, Note_off_c, 0, 56, 100
2, 315456, Note_on_c, 0, 58, 80
2, 315644, Note_off_c, 0, 58, 100
2, 315648, Note_on_c, 0, 60, 80
2, 316220, Note_off_c, 0, 60, 100
2, 316224, Note_on_c, 0, 61, 80
2, 316412, Note_off_c, 0, 61, 100
2, 316416, Note_on_c, 0, 58, 80
2, 316988, Note_off_c, 0, 58, 100
2, 316992, Note_on_c, 0, 60, 80
2, 317180, Note_off_c, 0, 60, 100
2, 317184, Note_on_c, 0, 56, 80
2, 317564, Note_off_c, 0, 56, 100
2, 318336, Note_on_c, 0, 68, 80
2, 318524, Note_off_c, 0, 68, 100
2, 318528, Note_on_c, 0, 70, 80
2, 318716, Note_off_c, 0, 70, 100
2, 318720, Note_on_c, 0, 72, 79
2, 319292, Note_off_c, 0, 72, 100
2, 319296, Note_on_c, 0, 73, 76
2, 319484, Note_off_c, 0, 73, 100
2, 319488, Note_on_c, 0, 70, 75
2, 320060, Note_off_c, 0, 70, 100
2, 320064, Note_on_c, 0, 72, 72
2, 320252, Note_off_c, 0, 72, 100
2, 320256, Note_on_c, 0, 68, 71
2, 320636, Note_off_c, 0, 68, 100
2, 321408, Note_on_c, 0, 72, 70
2, 321788, Note_off_c, 0, 72, 100
2, 321792, Note_on_c, 0, 78, 70
2, 321792, Note_on_c, 0, 75, 70
2, 322172, Note_off_c, 0, 78, 100
2, 322172, Note_off_c, 0, 75, 100
2, 322944, Note_on_c, 0, 72, 60
2, 323324, Note_off_c, 0, 72, 100
2, 323328, Note_on_c, 0, 75, 60
2, 323328, Note_on_c, 0, 79, 60
2, 323708, Note_off_c, 0, 75, 100
2, 323708, Note_off_c, 0, 79, 100
2, 324480, Note_on_c, 0, 87, 120
2, 324604, Note_off_c, 0, 87, 100
2, 324608, Note_on_c, 0, 86, 120
2, 324732, Note_off_c, 0, 86, 100
2, 324736, Note_on_c, 0, 84, 120
2, 324860, Note_off_c, 0, 84, 100
2, 324864, Note_on_c, 0, 89, 120
2, 324988, Note_off_c, 0, 89, 100
2, 324992, Note_on_c, 0, 87, 120
2, 325116, Note_off_c, 0, 87, 100
2, 325120, Note_on_c, 0, 86, 120
2, 325244, Note_off_c, 0, 86, 100
2, 325248, Note_on_c, 0, 84, 120
2, 325372, Note_off_c, 0, 84, 100
2, 325376, Note_on_c, 0, 83, 120
2, 325500, Note_off_c, 0, 83, 100
2, 325504, Note_on_c, 0, 80, 120
2, 325628, Note_off_c, 0, 80, 100
2, 325632, Note_on_c, 0, 79, 120
2, 325756, Note_off_c, 0, 79, 100
2, 325760, Note_on_c, 0, 77, 120
2, 325884, Note_off_c, 0, 77, 100
2, 325888, Note_on_c, 0, 75, 120
2, 326012, Note_off_c, 0, 75, 100
2, 326016, Note_on_c, 0, 74, 120
2, 326140, Note_off_c, 0, 74, 100
2, 326144, Note_on_c, 0, 72, 120
2, 326268, Note_off_c, 0, 72, 100
2, 326272, Note_on_c, 0, 71, 120
2, 326396, Note_off_c, 0, 71, 100
2, 326400, Note_on_c, 0, 72, 120
2, 326780, Note_off_c, 0, 72, 100
2, 327936, Control_c, 0, 7, 0
2, 328320, Note_on_c, 0, 60, 1
2, 328700, Note_off_c, 0, 60, 100
2, 328700, End_track
3, 0, Start_track
3, 0, Title_t, "Left"
3, 0, Control_c, 1, 0, 0
3, 0, Program_c, 1, 0
3, 0, Control_c, 1, 7, 100
3, 0, Control_c, 1, 10, 59
3, 0, Control_c, 1, 91, 127
3, 0, Key_signature, -3, "minor"
3, 768, Note_on_c, 1, 48, 80
3, 956, Note_off_c, 1, 48, 100
3, 960, Note_on_c, 1, 51, 80
3, 1148, Note_off_c, 1, 51, 100
3, 1152, Note_on_c, 1, 55, 80
3, 1340, Note_off_c, 1, 55, 100
3, 1344, Note_on_c, 1, 60, 80
3, 1532, Note_off_c, 1, 60, 100
3, 1536, Note_on_c, 1, 48, 80
3, 1724, Note_off_c, 1, 48, 100
3, 1728, Note_on_c, 1, 53, 80
3, 1916, Note_off_c, 1, 53, 100
3, 1920, Note_on_c, 1, 55, 80
3, 2108, Note_off_c, 1, 55, 100
3, 2112, Note_on_c, 1, 59, 80
3, 2300, Note_off_c, 1, 59, 100
3, 2304, Note_on_c, 1, 48, 80
3, 2492, Note_off_c, 1, 48, 100
3, 2496, Note_on_c, 1, 51, 80
3, 2684, Note_off_c, 1, 51, 100
3, 2688, Note_on_c, 1, 55, 80
3, 2876, Note_off_c, 1, 55, 100
3, 2880, Note_on_c, 1, 60, 80
3, 3068, Note_off_c, 1, 60, 100
3, 3072, Note_on_c, 1, 63, 80
3, 3260, Note_off_c, 1, 63, 100
3, 3264, Note_on_c, 1, 67, 80
3, 3452, Note_off_c, 1, 67, 100
3, 3456, Note_on_c, 1, 63, 80
3, 3644, Note_off_c, 1, 63, 100
3, 3648, Note_on_c, 1, 62, 80
3, 3836, Note_off_c, 1, 62, 100
3, 3840, Note_on_c, 1, 60, 80
3, 4028, Note_off_c, 1, 60, 100
3, 4032, Note_on_c, 1, 67, 80
3, 4220, Note_off_c, 1, 67, 100
3, 4224, Note_on_c, 1, 60, 80
3, 4224, Note_on_c, 1, 63, 80
3, 4412, Note_off_c, 1, 60, 100
3, 4412, Note_off_c, 1, 63, 100
3, 4416, Note_on_c, 1, 67, 80
3, 4604, Note_off_c, 1, 67, 100
3, 4608, Note_on_c, 1, 62, 80
3, 4608, Note_on_c, 1, 59, 80
3, 4796, Note_off_c, 1, 62, 100
3, 4796, Note_off_c, 1, 59, 100
3, 4800, Note_on_c, 1, 67, 80
3, 4988, Note_off_c, 1, 67, 100
3, 4992, Note_on_c, 1, 56, 80
3, 4992, Note_on_c, 1, 60, 80
3, 5180, Note_off_c, 1, 56, 100
3, 5180, Note_off_c, 1, 60, 100
3, 5184, Note_on_c, 1, 67, 80
3, 5372, Note_off_c, 1, 67, 100
3, 5376, Note_on_c, 1, 55, 80
3, 5564, Note_off_c, 1, 55, 100
3, 5568, Note_on_c, 1, 59, 80
3, 5756, Note_off_c, 1, 59, 100
3, 5760, Note_on_c, 1, 62, 80
3, 5948, Note_off_c, 1, 62, 100
3, 5952, Note_on_c, 1, 67, 80
3, 6140, Note_off_c, 1, 67, 100
3, 6144, Note_on_c, 1, 55, 80
3, 6332, Note_off_c, 1, 55, 100
3, 6336, Note_on_c, 1, 59, 80
3, 6524, Note_off_c, 1, 59, 100
3, 6528, Note_on_c, 1, 62, 80
3, 6716, Note_off_c, 1, 62, 100
3, 6720, Note_on_c, 1, 67, 80
3, 6908, Note_off_c, 1, 67, 100
3, 6912, Note_on_c, 1, 53, 80
3, 7100, Note_off_c, 1, 53, 100
3, 7104, Note_on_c, 1, 56, 80
3, 7292, Note_off_c, 1, 56, 100
3, 7296, Note_on_c, 1, 59, 80
3, 7484, Note_off_c, 1, 59, 100
3, 7488, Note_on_c, 1, 62, 80
3, 7676, Note_off_c, 1, 62, 100
3, 7680, Note_on_c, 1, 53, 80
3, 7868, Note_off_c, 1, 53, 100
3, 7872, Note_on_c, 1, 56, 80
3, 8060, Note_off_c, 1, 56, 100
3, 8064, Note_on_c, 1, 59, 80
3, 8252, Note_off_c, 1, 59, 100
3, 8256, Note_on_c, 1, 62, 80
3, 8444, Note_off_c, 1, 62, 100
3, 8448, Note_on_c, 1, 51, 80
3, 8636, Note_off_c, 1, 51, 100
3, 8640, Note_on_c, 1, 56, 80
3, 8828, Note_off_c, 1, 56, 100
3, 8832, Note_on_c, 1, 60, 80
3, 9020, Note_off_c, 1, 60, 100
3, 9024, Note_on_c, 1, 63, 80
3, 9212, Note_off_c, 1, 63, 100
3, 9216, Note_on_c, 1, 56, 80
3, 9404, Note_off_c, 1, 56, 100
3, 9408, Note_on_c, 1, 60, 80
3, 9596, Note_off_c, 1, 60, 100
3, 9600, Note_on_c, 1, 63, 80
3, 9788, Note_off_c, 1, 63, 100
3, 9792, Note_on_c, 1, 66, 80
3, 9980, Note_off_c, 1, 66, 100
3, 9984, Note_on_c, 1, 55, 80
3, 10172, Note_off_c, 1, 55, 100
3, 10176, Note_on_c, 1, 60, 80
3, 10364, Note_off_c, 1, 60, 100
3, 10368, Note_on_c, 1, 63, 80
3, 10556, Note_off_c, 1, 63, 100
3, 10560, Note_on_c, 1, 67, 80
3, 10748, Note_off_c, 1, 67, 100
3, 10752, Note_on_c, 1, 55, 80
3, 10940, Note_off_c, 1, 55, 100
3, 10944, Note_on_c, 1, 59, 80
3, 11132, Note_off_c, 1, 59, 100
3, 11136, Note_on_c, 1, 62, 80
3, 11324, Note_off_c, 1, 62, 100
3, 11328, Note_on_c, 1, 67, 80
3, 11516, Note_off_c, 1, 67, 100
3, 11712, Note_on_c, 1, 48, 80
3, 11900, Note_off_c, 1, 48, 100
3, 11904, Note_on_c, 1, 51, 80
3, 12092, Note_off_c, 1, 51, 100
3, 12096, Note_on_c, 1, 55, 80
3, 12284, Note_off_c, 1, 55, 100
3, 12288, Note_on_c, 1, 60, 80
3, 12668, Note_off_c, 1, 60, 100
3, 13248, Note_on_c, 1, 41, 80
3, 13436, Note_off_c, 1, 41, 100
3, 13440, Note_on_c, 1, 47, 80
3, 13628, Note_off_c, 1, 47, 100
3, 13632, Note_on_c, 1, 50, 80
3, 13820, Note_off_c, 1, 50, 100
3, 13824, Note_on_c, 1, 53, 80
3, 14012, Note_off_c, 1, 53, 100
3, 14016, Note_on_c, 1, 56, 80
3, 14204, Note_off_c, 1, 56, 100
3, 14208, Note_on_c, 1, 55, 80
3, 14396, Note_off_c, 1, 55, 100
3, 14400, Note_on_c, 1, 53, 80
3, 14588, Note_off_c, 1, 53, 100
3, 14784, Note_on_c, 1, 39, 80
3, 14972, Note_off_c, 1, 39, 100
3, 14976, Note_on_c, 1, 43, 80
3, 15164, Note_off_c, 1, 43, 100
3, 15168, Note_on_c, 1, 48, 80
3, 15356, Note_off_c, 1, 48, 100
3, 15360, Note_on_c, 1, 51, 80
3, 15548, Note_off_c, 1, 51, 100
3, 15552, Note_on_c, 1, 55, 80
3, 15740, Note_off_c, 1, 55, 100
3, 15744, Note_on_c, 1, 56, 80
3, 15932, Note_off_c, 1, 56, 100
3, 15936, Note_on_c, 1, 54, 80
3, 16124, Note_off_c, 1, 54, 100
3, 16128, Note_on_c, 1, 43, 80
3, 16316, Note_off_c, 1, 43, 100
3, 16320, Note_on_c, 1, 55, 80
3, 16508, Note_off_c, 1, 55, 100
3, 16512, Note_on_c, 1, 60, 80
3, 16700, Note_off_c, 1, 60, 100
3, 16704, Note_on_c, 1, 55, 80
3, 16892, Note_off_c, 1, 55, 100
3, 16896, Note_on_c, 1, 43, 80
3, 17084, Note_off_c, 1, 43, 100
3, 17088, Note_on_c, 1, 55, 80
3, 17276, Note_off_c, 1, 55, 100
3, 17280, Note_on_c, 1, 59, 80
3, 17468, Note_off_c, 1, 59, 100
3, 17472, Note_on_c, 1, 55, 80
3, 17660, Note_off_c, 1, 55, 100
3, 17664, Note_on_c, 1, 48, 80
3, 17852, Note_off_c, 1, 48, 100
3, 17856, Note_on_c, 1, 60, 80
3, 18044, Note_off_c, 1, 60, 100
3, 18048, Note_on_c, 1, 59, 81
3, 18236, Note_off_c, 1, 59, 100
3, 18240, Note_on_c, 1, 60, 82
3, 18428, Note_off_c, 1, 60, 100
3, 18432, Note_on_c, 1, 52, 83
3, 18620, Note_off_c, 1, 52, 100
3, 18624, Note_on_c, 1, 60, 84
3, 18812, Note_off_c, 1, 60, 100
3, 18816, Note_on_c, 1, 55, 85
3, 19004, Note_off_c, 1, 55, 100
3, 19008, Note_on_c, 1, 60, 86
3, 19196, Note_off_c, 1, 60, 100
3, 19200, Note_on_c, 1, 53, 87
3, 19388, Note_off_c, 1, 53, 100
3, 19392, Note_on_c, 1, 60, 88
3, 19580, Note_off_c, 1, 60, 100
3, 19584, Note_on_c, 1, 56, 89
3, 19772, Note_off_c, 1, 56, 100
3, 19776, Note_on_c, 1, 60, 90
3, 19964, Note_off_c, 1, 60, 100
3, 19968, Note_on_c, 1, 55, 91
3, 20156, Note_off_c, 1, 55, 100
3, 20160, Note_on_c, 1, 65, 92
3, 20348, Note_off_c, 1, 65, 100
3, 20352, Note_on_c, 1, 59, 93
3, 20540, Note_off_c, 1, 59, 100
3, 20544, Note_on_c, 1, 65, 94
3, 20732, Note_off_c, 1, 65, 100
3, 20736, Note_on_c, 1, 56, 95
3, 20924, Note_off_c, 1, 56, 100
3, 20928, Note_on_c, 1, 63, 96
3, 21116, Note_off_c, 1, 63, 100
3, 21120, Note_on_c, 1, 60, 97
3, 21308, Note_off_c, 1, 60, 100
3, 21312, Note_on_c, 1, 63, 98
3, 21500, Note_off_c, 1, 63, 100
3, 21504, Note_on_c, 1, 55, 99
3, 21692, Note_off_c, 1, 55, 100
3, 21696, Note_on_c, 1, 64, 100
3, 21884, Note_off_c, 1, 64, 100
3, 21888, Note_on_c, 1, 60, 101
3, 22076, Note_off_c, 1, 60, 100
3, 22080, Note_on_c, 1, 64, 102
3, 22268, Note_off_c, 1, 64, 100
3, 22272, Note_on_c, 1, 53, 103
3, 22460, Note_off_c, 1, 53, 100
3, 22464, Note_on_c, 1, 65, 104
3, 22652, Note_off_c, 1, 65, 100
3, 22656, Note_on_c, 1, 60, 105
3, 22844, Note_off_c, 1, 60, 100
3, 22848, Note_on_c, 1, 65, 106
3, 23036, Note_off_c, 1, 65, 100
3, 23040, Note_on_c, 1, 55, 107
3, 23228, Note_off_c, 1, 55, 100
3, 23232, Note_on_c, 1, 67, 108
3, 23420, Note_off_c, 1, 67, 100
3, 23424, Note_on_c, 1, 55, 109
3, 23612, Note_off_c, 1, 55, 100
3, 23616, Note_on_c, 1, 67, 109
3, 23804, Note_off_c, 1, 67, 100
3, 23808, Note_on_c, 1, 60, 110
3, 24188, Note_off_c, 1, 60, 100
3, 24192, Note_on_c, 1, 59, 110
3, 24192, Note_on_c, 1, 55, 110
3, 24572, Note_off_c, 1, 59, 100
3, 24572, Note_off_c, 1, 55, 100
3, 24576, Note_on_c, 1, 60, 110
3, 24576, Note_on_c, 1, 48, 110
3, 24956, Note_off_c, 1, 60, 100
3, 24956, Note_off_c, 1, 48, 100
3, 24960, Note_on_c, 1, 55, 110
3, 24960, Note_on_c, 1, 43, 110
3, 25340, Note_off_c, 1, 55, 100
3, 25340, Note_off_c, 1, 43, 100
3, 25344, Note_on_c, 1, 48, 110
3, 25344, Note_on_c, 1, 36, 110
3, 25724, Note_off_c, 1, 48, 100
3, 25724, Note_off_c, 1, 36, 100
3, 26880, Note_on_c, 1, 46, 110
3, 26880, Note_on_c, 1, 34, 110
3, 28412, Note_off_c, 1, 46, 100
3, 28412, Note_off_c, 1, 34, 100
3, 28416, Note_on_c, 1, 44, 80
3, 28416, Note_on_c, 1, 32, 80
3, 28796, Note_off_c, 1, 44, 100
3, 28796, Note_off_c, 1, 32, 100
3, 30336, Note_on_c, 1, 60, 80
3, 30336, Note_on_c, 1, 52, 80
3, 30716, Note_off_c, 1, 60, 100
3, 30716, Note_off_c, 1, 52, 100
3, 30720, Note_on_c, 1, 52, 80
3, 30720, Note_on_c, 1, 60, 80
3, 31100, Note_off_c, 1, 52, 100
3, 31100, Note_off_c, 1, 60, 100
3, 31104, Note_on_c, 1, 60, 80
3, 31104, Note_on_c, 1, 52, 80
3, 31484, Note_off_c, 1, 60, 100
3, 31484, Note_off_c, 1, 52, 100
3, 31488, Note_on_c, 1, 60, 80
3, 31488, Note_on_c, 1, 53, 80
3, 32636, Note_off_c, 1, 60, 100
3, 32636, Note_off_c, 1, 53, 100
3, 33024, Note_on_c, 1, 44, 110
3, 33024, Note_on_c, 1, 32, 110
3, 34556, Note_off_c, 1, 44, 100
3, 34556, Note_off_c, 1, 32, 100
3, 34560, Note_on_c, 1, 43, 80
3, 34560, Note_on_c, 1, 31, 80
3, 34940, Note_off_c, 1, 43, 100
3, 34940, Note_off_c, 1, 31, 100
3, 36480, Note_on_c, 1, 58, 80
3, 36480, Note_on_c, 1, 50, 80
3, 36860, Note_off_c, 1, 58, 100
3, 36860, Note_off_c, 1, 50, 100
3, 36864, Note_on_c, 1, 58, 80
3, 36864, Note_on_c, 1, 50, 80
3, 37244, Note_off_c, 1, 58, 100
3, 37244, Note_off_c, 1, 50, 100
3, 37248, Note_on_c, 1, 58, 80
3, 37248, Note_on_c, 1, 50, 80
3, 37628, Note_off_c, 1, 58, 100
3, 37628, Note_off_c, 1, 50, 100
3, 37632, Note_on_c, 1, 51, 80
3, 37820, Note_off_c, 1, 51, 100
3, 37824, Note_on_c, 1, 58, 80
3, 38012, Note_off_c, 1, 58, 100
3, 38016, Note_on_c, 1, 63, 80
3, 38204, Note_off_c, 1, 63, 100
3, 38208, Note_on_c, 1, 58, 80
3, 38396, Note_off_c, 1, 58, 100
3, 38400, Note_on_c, 1, 56, 80
3, 38588, Note_off_c, 1, 56, 100
3, 38592, Note_on_c, 1, 58, 80
3, 38780, Note_off_c, 1, 58, 100
3, 38784, Note_on_c, 1, 62, 80
3, 38972, Note_off_c, 1, 62, 100
3, 38976, Note_on_c, 1, 58, 80
3, 39164, Note_off_c, 1, 58, 100
3, 39168, Note_on_c, 1, 55, 80
3, 39356, Note_off_c, 1, 55, 100
3, 39360, Note_on_c, 1, 58, 80
3, 39548, Note_off_c, 1, 58, 100
3, 39552, Note_on_c, 1, 63, 80
3, 39740, Note_off_c, 1, 63, 100
3, 39744, Note_on_c, 1, 58, 80
3, 39932, Note_off_c, 1, 58, 100
3, 39936, Note_on_c, 1, 50, 80
3, 40124, Note_off_c, 1, 50, 100
3, 40128, Note_on_c, 1, 58, 80
3, 40316, Note_off_c, 1, 58, 100
3, 40320, Note_on_c, 1, 62, 80
3, 40508, Note_off_c, 1, 62, 100
3, 40512, Note_on_c, 1, 58, 80
3, 40700, Note_off_c, 1, 58, 100
3, 40704, Note_on_c, 1, 51, 80
3, 40892, Note_off_c, 1, 51, 100
3, 40896, Note_on_c, 1, 58, 80
3, 41084, Note_off_c, 1, 58, 100
3, 41088, Note_on_c, 1, 63, 80
3, 41276, Note_off_c, 1, 63, 100
3, 41280, Note_on_c, 1, 58, 80
3, 41468, Note_off_c, 1, 58, 100
3, 41472, Note_on_c, 1, 56, 80
3, 41660, Note_off_c, 1, 56, 100
3, 41664, Note_on_c, 1, 58, 80
3, 41852, Note_off_c, 1, 58, 100
3, 41856, Note_on_c, 1, 65, 80
3, 42044, Note_off_c, 1, 65, 100
3, 42048, Note_on_c, 1, 58, 80
3, 42236, Note_off_c, 1, 58, 100
3, 42240, Note_on_c, 1, 55, 80
3, 42428, Note_off_c, 1, 55, 100
3, 42432, Note_on_c, 1, 58, 80
3, 42620, Note_off_c, 1, 58, 100
3, 42624, Note_on_c, 1, 63, 80
3, 42812, Note_off_c, 1, 63, 100
3, 42816, Note_on_c, 1, 58, 80
3, 43004, Note_off_c, 1, 58, 100
3, 43008, Note_on_c, 1, 50, 80
3, 43196, Note_off_c, 1, 50, 100
3, 43200, Note_on_c, 1, 58, 80
3, 43388, Note_off_c, 1, 58, 100
3, 43392, Note_on_c, 1, 50, 80
3, 43580, Note_off_c, 1, 50, 100
3, 43584, Note_on_c, 1, 58, 80
3, 43772, Note_off_c, 1, 58, 100
3, 43776, Note_on_c, 1, 51, 80
3, 43964, Note_off_c, 1, 51, 100
3, 43968, Note_on_c, 1, 58, 80
3, 44156, Note_off_c, 1, 58, 100
3, 44160, Note_on_c, 1, 51, 80
3, 44348, Note_off_c, 1, 51, 100
3, 44352, Note_on_c, 1, 58, 80
3, 44540, Note_off_c, 1, 58, 100
3, 44544, Note_on_c, 1, 56, 80
3, 44732, Note_off_c, 1, 56, 100
3, 44736, Note_on_c, 1, 58, 80
3, 44924, Note_off_c, 1, 58, 100
3, 44928, Note_on_c, 1, 56, 80
3, 45116, Note_off_c, 1, 56, 100
3, 45120, Note_on_c, 1, 58, 80
3, 45308, Note_off_c, 1, 58, 100
3, 45312, Note_on_c, 1, 54, 80
3, 45500, Note_off_c, 1, 54, 100
3, 45504, Note_on_c, 1, 58, 80
3, 45692, Note_off_c, 1, 58, 100
3, 45696, Note_on_c, 1, 54, 80
3, 45884, Note_off_c, 1, 54, 100
3, 45888, Note_on_c, 1, 58, 80
3, 46076, Note_off_c, 1, 58, 100
3, 46080, Note_on_c, 1, 50, 80
3, 46268, Note_off_c, 1, 50, 100
3, 46272, Note_on_c, 1, 58, 80
3, 46460, Note_off_c, 1, 58, 100
3, 46464, Note_on_c, 1, 50, 80
3, 46652, Note_off_c, 1, 50, 100
3, 46656, Note_on_c, 1, 58, 80
3, 46844, Note_off_c, 1, 58, 100
3, 46848, Note_on_c, 1, 51, 80
3, 47036, Note_off_c, 1, 51, 100
3, 47040, Note_on_c, 1, 58, 80
3, 47228, Note_off_c, 1, 58, 100
3, 47232, Note_on_c, 1, 54, 81
3, 47420, Note_off_c, 1, 54, 100
3, 47424, Note_on_c, 1, 58, 82
3, 47612, Note_off_c, 1, 58, 100
3, 47616, Note_on_c, 1, 46, 83
3, 47804, Note_off_c, 1, 46, 100
3, 47808, Note_on_c, 1, 58, 84
3, 47996, Note_off_c, 1, 58, 100
3, 48000, Note_on_c, 1, 50, 85
3, 48188, Note_off_c, 1, 50, 100
3, 48192, Note_on_c, 1, 58, 86
3, 48380, Note_off_c, 1, 58, 100
3, 48384, Note_on_c, 1, 47, 87
3, 48572, Note_off_c, 1, 47, 100
3, 48576, Note_on_c, 1, 58, 88
3, 48764, Note_off_c, 1, 58, 100
3, 48768, Note_on_c, 1, 51, 89
3, 48956, Note_off_c, 1, 51, 100
3, 48960, Note_on_c, 1, 58, 90
3, 49148, Note_off_c, 1, 58, 100
3, 49152, Note_on_c, 1, 48, 91
3, 49340, Note_off_c, 1, 48, 100
3, 49344, Note_on_c, 1, 57, 92
3, 49532, Note_off_c, 1, 57, 100
3, 49536, Note_on_c, 1, 51, 93
3, 49724, Note_off_c, 1, 51, 100
3, 49728, Note_on_c, 1, 57, 94
3, 49916, Note_off_c, 1, 57, 100
3, 49920, Note_on_c, 1, 46, 80
3, 50300, Note_off_c, 1, 46, 100
3, 50304, Note_on_c, 1, 62, 80
3, 50304, Note_on_c, 1, 65, 80
3, 50304, Note_on_c, 1, 58, 80
3, 50684, Note_off_c, 1, 62, 100
3, 50684, Note_off_c, 1, 65, 100
3, 50684, Note_off_c, 1, 58, 100
3, 50688, Note_on_c, 1, 58, 100
3, 50688, Note_on_c, 1, 63, 100
3, 50688, Note_on_c, 1, 66, 100
3, 51452, Note_off_c, 1, 58, 100
3, 51452, Note_off_c, 1, 63, 100
3, 51452, Note_off_c, 1, 66, 100
3, 51840, Note_on_c, 1, 62, 80
3, 51840, Note_on_c, 1, 65, 80
3, 51840, Note_on_c, 1, 58, 80
3, 52220, Note_off_c, 1, 62, 100
3, 52220, Note_off_c, 1, 65, 100
3, 52220, Note_off_c, 1, 58, 100
3, 52224, Note_on_c, 1, 58, 90
3, 52224, Note_on_c, 1, 63, 90
3, 52224, Note_on_c, 1, 66, 90
3, 52988, Note_off_c, 1, 58, 100
3, 52988, Note_off_c, 1, 63, 100
3, 52988, Note_off_c, 1, 66, 100
3, 52992, Note_on_c, 1, 58, 80
3, 52992, Note_on_c, 1, 62, 80
3, 52992, Note_on_c, 1, 65, 80
3, 53372, Note_off_c, 1, 58, 100
3, 53372, Note_off_c, 1, 62, 100
3, 53372, Note_off_c, 1, 65, 100
3, 53760, Note_on_c, 1, 58, 80
3, 53760, Note_on_c, 1, 65, 80
3, 53760, Note_on_c, 1, 68, 80
3, 54140, Note_off_c, 1, 58, 100
3, 54140, Note_off_c, 1, 65, 100
3, 54140, Note_off_c, 1, 68, 100
3, 54528, Note_on_c, 1, 58, 80
3, 54528, Note_on_c, 1, 62, 80
3, 54528, Note_on_c, 1, 65, 80
3, 54528, Note_on_c, 1, 68, 80
3, 54908, Note_off_c, 1, 58, 100
3, 54908, Note_off_c, 1, 62, 100
3, 54908, Note_off_c, 1, 65, 100
3, 54908, Note_off_c, 1, 68, 100
3, 56064, Note_on_c, 1, 51, 80
3, 56444, Note_off_c, 1, 51, 100
3, 56960, Note_on_c, 1, 58, 80
3, 57084, Note_off_c, 1, 58, 100
3, 57088, Note_on_c, 1, 60, 80
3, 57212, Note_off_c, 1, 60, 100
3, 57216, Note_on_c, 1, 62, 80
3, 57340, Note_off_c, 1, 62, 100
3, 57344, Note_on_c, 1, 60, 80
3, 57468, Note_off_c, 1, 60, 100
3, 57472, Note_on_c, 1, 58, 80
3, 57596, Note_off_c, 1, 58, 100
3, 57600, Note_on_c, 1, 63, 80
3, 57980, Note_off_c, 1, 63, 100
3, 58496, Note_on_c, 1, 58, 80
3, 58620, Note_off_c, 1, 58, 100
3, 58624, Note_on_c, 1, 60, 80
3, 58748, Note_off_c, 1, 60, 100
3, 58752, Note_on_c, 1, 62, 80
3, 58876, Note_off_c, 1, 62, 100
3, 58880, Note_on_c, 1, 60, 80
3, 59004, Note_off_c, 1, 60, 100
3, 59008, Note_on_c, 1, 58, 80
3, 59132, Note_off_c, 1, 58, 100
3, 59136, Note_on_c, 1, 63, 80
3, 59516, Note_off_c, 1, 63, 100
3, 59904, Note_on_c, 1, 63, 80
3, 60284, Note_off_c, 1, 63, 100
3, 60672, Note_on_c, 1, 63, 80
3, 60672, Note_on_c, 1, 61, 80
3, 60672, Note_on_c, 1, 58, 80
3, 60672, Note_on_c, 1, 55, 80
3, 61052, Note_off_c, 1, 63, 100
3, 61052, Note_off_c, 1, 61, 100
3, 61052, Note_off_c, 1, 58, 100
3, 61052, Note_off_c, 1, 55, 100
3, 62208, Note_on_c, 1, 44, 80
3, 62332, Note_off_c, 1, 44, 100
3, 62336, Note_on_c, 1, 48, 80
3, 62460, Note_off_c, 1, 48, 100
3, 62464, Note_on_c, 1, 51, 80
3, 62588, Note_off_c, 1, 51, 100
3, 62592, Note_on_c, 1, 56, 80
3, 62972, Note_off_c, 1, 56, 100
3, 63744, Note_on_c, 1, 58, 80
3, 63744, Note_on_c, 1, 63, 80
3, 63744, Note_on_c, 1, 67, 80
3, 64124, Note_off_c, 1, 58, 100
3, 64124, Note_off_c, 1, 63, 100
3, 64124, Note_off_c, 1, 67, 100
3, 64512, Note_on_c, 1, 58, 80
3, 64512, Note_on_c, 1, 65, 80
3, 64512, Note_on_c, 1, 68, 80
3, 64892, Note_off_c, 1, 58, 100
3, 64892, Note_off_c, 1, 65, 100
3, 64892, Note_off_c, 1, 68, 100
3, 65280, Note_on_c, 1, 63, 80
3, 65280, Note_on_c, 1, 67, 80
3, 65660, Note_off_c, 1, 63, 100
3, 65660, Note_off_c, 1, 67, 100
3, 66816, Note_on_c, 1, 58, 80
3, 66816, Note_on_c, 1, 56, 80
3, 67196, Note_off_c, 1, 58, 100
3, 67196, Note_off_c, 1, 56, 100
3, 67200, Note_on_c, 1, 58, 80
3, 67200, Note_on_c, 1, 56, 80
3, 67580, Note_off_c, 1, 58, 100
3, 67580, Note_off_c, 1, 56, 100
3, 67584, Note_on_c, 1, 58, 80
3, 67584, Note_on_c, 1, 56, 80
3, 67964, Note_off_c, 1, 58, 100
3, 67964, Note_off_c, 1, 56, 100
3, 67968, Note_on_c, 1, 58, 80
3, 67968, Note_on_c, 1, 56, 80
3, 68348, Note_off_c, 1, 58, 100
3, 68348, Note_off_c, 1, 56, 100
3, 68352, Note_on_c, 1, 58, 80
3, 68352, Note_on_c, 1, 55, 80
3, 69500, Note_off_c, 1, 58, 100
3, 69500, Note_off_c, 1, 55, 100
3, 69504, Note_on_c, 1, 55, 80
3, 69884, Note_off_c, 1, 55, 100
3, 69888, Note_on_c, 1, 60, 80
3, 70652, Note_off_c, 1, 60, 100
3, 70656, Note_on_c, 1, 59, 80
3, 71420, Note_off_c, 1, 59, 100
3, 71424, Note_on_c, 1, 58, 80
3, 72572, Note_off_c, 1, 58, 100
3, 72960, Note_on_c, 1, 62, 80
3, 72960, Note_on_c, 1, 56, 80
3, 73340, Note_off_c, 1, 62, 100
3, 73340, Note_off_c, 1, 56, 100
3, 73344, Note_on_c, 1, 62, 84
3, 73344, Note_on_c, 1, 56, 84
3, 73724, Note_off_c, 1, 62, 100
3, 73724, Note_off_c, 1, 56, 100
3, 73728, Note_on_c, 1, 62, 88
3, 73728, Note_on_c, 1, 56, 88
3, 74108, Note_off_c, 1, 62, 100
3, 74108, Note_off_c, 1, 56, 100
3, 74112, Note_on_c, 1, 62, 92
3, 74112, Note_on_c, 1, 56, 92
3, 74492, Note_off_c, 1, 62, 100
3, 74492, Note_off_c, 1, 56, 100
3, 74496, Note_on_c, 1, 63, 97
3, 74496, Note_on_c, 1, 55, 97
3, 76028, Note_off_c, 1, 63, 100
3, 76028, Note_off_c, 1, 55, 100
3, 76032, Note_on_c, 1, 63, 110
3, 76032, Note_on_c, 1, 56, 110
3, 76412, Note_off_c, 1, 63, 100
3, 76412, Note_off_c, 1, 56, 100
3, 76800, Note_on_c, 1, 58, 110
3, 76800, Note_on_c, 1, 46, 110
3, 77180, Note_off_c, 1, 58, 100
3, 77180, Note_off_c, 1, 46, 100
3, 77696, Note_on_c, 1, 63, 80
3, 77820, Note_off_c, 1, 63, 100
3, 77824, Note_on_c, 1, 65, 80
3, 77948, Note_off_c, 1, 65, 100
3, 77952, Note_on_c, 1, 67, 80
3, 78076, Note_off_c, 1, 67, 100
3, 78080, Note_on_c, 1, 65, 80
3, 78204, Note_off_c, 1, 65, 100
3, 78208, Note_on_c, 1, 63, 80
3, 78332, Note_off_c, 1, 63, 100
3, 78336, Note_on_c, 1, 68, 80
3, 79100, Note_off_c, 1, 68, 100
3, 79104, Note_on_c, 1, 67, 80
3, 79228, Note_off_c, 1, 67, 100
3, 79232, Note_on_c, 1, 63, 80
3, 79356, Note_off_c, 1, 63, 100
3, 79360, Note_on_c, 1, 65, 80
3, 79484, Note_off_c, 1, 65, 100
3, 79488, Note_on_c, 1, 67, 80
3, 79612, Note_off_c, 1, 67, 100
3, 79616, Note_on_c, 1, 65, 80
3, 79740, Note_off_c, 1, 65, 100
3, 79744, Note_on_c, 1, 63, 80
3, 79868, Note_off_c, 1, 63, 100
3, 79872, Note_on_c, 1, 68, 80
3, 80636, Note_off_c, 1, 68, 100
3, 80640, Note_on_c, 1, 63, 80
3, 80640, Note_on_c, 1, 67, 80
3, 81020, Note_off_c, 1, 63, 100
3, 81020, Note_off_c, 1, 67, 100
3, 81024, Note_on_c, 1, 60, 80
3, 81404, Note_off_c, 1, 60, 100
3, 81408, Note_on_c, 1, 56, 80
3, 81788, Note_off_c, 1, 56, 100
3, 81792, Note_on_c, 1, 58, 80
3, 82172, Note_off_c, 1, 58, 100
3, 82304, Note_on_c, 1, 39, 80
3, 82428, Note_off_c, 1, 39, 100
3, 82432, Note_on_c, 1, 41, 80
3, 82556, Note_off_c, 1, 41, 100
3, 82560, Note_on_c, 1, 43, 80
3, 82684, Note_off_c, 1, 43, 100
3, 82688, Note_on_c, 1, 41, 80
3, 82812, Note_off_c, 1, 41, 100
3, 82816, Note_on_c, 1, 39, 80
3, 82940, Note_off_c, 1, 39, 100
3, 82944, Note_on_c, 1, 44, 104
3, 83708, Note_off_c, 1, 44, 100
3, 83712, Note_on_c, 1, 43, 80
3, 83836, Note_off_c, 1, 43, 100
3, 83840, Note_on_c, 1, 39, 80
3, 83964, Note_off_c, 1, 39, 100
3, 83968, Note_on_c, 1, 41, 80
3, 84092, Note_off_c, 1, 41, 100
3, 84096, Note_on_c, 1, 43, 80
3, 84220, Note_off_c, 1, 43, 100
3, 84224, Note_on_c, 1, 41, 80
3, 84348, Note_off_c, 1, 41, 100
3, 84352, Note_on_c, 1, 39, 80
3, 84476, Note_off_c, 1, 39, 100
3, 84480, Note_on_c, 1, 44, 105
3, 85244, Note_off_c, 1, 44, 100
3, 85248, Note_on_c, 1, 43, 80
3, 85372, Note_off_c, 1, 43, 100
3, 85376, Note_on_c, 1, 39, 81
3, 85500, Note_off_c, 1, 39, 100
3, 85504, Note_on_c, 1, 41, 82
3, 85628, Note_off_c, 1, 41, 100
3, 85632, Note_on_c, 1, 43, 83
3, 85756, Note_off_c, 1, 43, 100
3, 85760, Note_on_c, 1, 41, 85
3, 85884, Note_off_c, 1, 41, 100
3, 85888, Note_on_c, 1, 39, 86
3, 86012, Note_off_c, 1, 39, 100
3, 86016, Note_on_c, 1, 44, 87
3, 86780, Note_off_c, 1, 44, 100
3, 88320, Note_on_c, 1, 43, 120
3, 88320, Note_on_c, 1, 31, 120
3, 91388, Note_off_c, 1, 31, 100
3, 91388, Note_off_c, 1, 43, 100
3, 91392, Note_on_c, 1, 53, 120
3, 91392, Note_on_c, 1, 50, 120
3, 91392, Note_on_c, 1, 43, 120
3, 95228, Note_off_c, 1, 43, 100
3, 95228, Note_off_c, 1, 50, 100
3, 95228, Note_off_c, 1, 53, 100
3, 96000, Note_on_c, 1, 48, 80
3, 96188, Note_off_c, 1, 48, 100
3, 96192, Note_on_c, 1, 51, 80
3, 96380, Note_off_c, 1, 51, 100
3, 96384, Note_on_c, 1, 55, 80
3, 96572, Note_off_c, 1, 55, 100
3, 96576, Note_on_c, 1, 60, 80
3, 96764, Note_off_c, 1, 60, 100
3, 96768, Note_on_c, 1, 48, 80
3, 96956, Note_off_c, 1, 48, 100
3, 96960, Note_on_c, 1, 53, 80
3, 97148, Note_off_c, 1, 53, 100
3, 97152, Note_on_c, 1, 55, 80
3, 97340, Note_off_c, 1, 55, 100
3, 97344, Note_on_c, 1, 59, 80
3, 97532, Note_off_c, 1, 59, 100
3, 97536, Note_on_c, 1, 48, 80
3, 97724, Note_off_c, 1, 48, 100
3, 97728, Note_on_c, 1, 51, 80
3, 97916, Note_off_c, 1, 51, 100
3, 97920, Note_on_c, 1, 55, 80
3, 98108, Note_off_c, 1, 55, 100
3, 98112, Note_on_c, 1, 60, 80
3, 98300, Note_off_c, 1, 60, 100
3, 98304, Note_on_c, 1, 63, 80
3, 98492, Note_off_c, 1, 63, 100
3, 98496, Note_on_c, 1, 67, 80
3, 98684, Note_off_c, 1, 67, 100
3, 98688, Note_on_c, 1, 63, 80
3, 98876, Note_off_c, 1, 63, 100
3, 98880, Note_on_c, 1, 62, 80
3, 99068, Note_off_c, 1, 62, 100
3, 99072, Note_on_c, 1, 60, 80
3, 99260, Note_off_c, 1, 60, 100
3, 99264, Note_on_c, 1, 67, 80
3, 99452, Note_off_c, 1, 67, 100
3, 99456, Note_on_c, 1, 60, 80
3, 99456, Note_on_c, 1, 63, 80
3, 99644, Note_off_c, 1, 60, 100
3, 99644, Note_off_c, 1, 63, 100
3, 99648, Note_on_c, 1, 67, 80
3, 99836, Note_off_c, 1, 67, 100
3, 99840, Note_on_c, 1, 62, 80
3, 99840, Note_on_c, 1, 59, 80
3, 100028, Note_off_c, 1, 62, 100
3, 100028, Note_off_c, 1, 59, 100
3, 100032, Note_on_c, 1, 67, 80
3, 100220, Note_off_c, 1, 67, 100
3, 100224, Note_on_c, 1, 56, 80
3, 100224, Note_on_c, 1, 60, 80
3, 100412, Note_off_c, 1, 56, 100
3, 100412, Note_off_c, 1, 60, 100
3, 100416, Note_on_c, 1, 67, 80
3, 100604, Note_off_c, 1, 67, 100
3, 100608, Note_on_c, 1, 55, 80
3, 100796, Note_off_c, 1, 55, 100
3, 100800, Note_on_c, 1, 59, 80
3, 100988, Note_off_c, 1, 59, 100
3, 100992, Note_on_c, 1, 62, 80
3, 101180, Note_off_c, 1, 62, 100
3, 101184, Note_on_c, 1, 67, 80
3, 101372, Note_off_c, 1, 67, 100
3, 101376, Note_on_c, 1, 55, 80
3, 101564, Note_off_c, 1, 55, 100
3, 101568, Note_on_c, 1, 59, 80
3, 101756, Note_off_c, 1, 59, 100
3, 101760, Note_on_c, 1, 62, 80
3, 101948, Note_off_c, 1, 62, 100
3, 101952, Note_on_c, 1, 67, 80
3, 102140, Note_off_c, 1, 67, 100
3, 102144, Note_on_c, 1, 53, 80
3, 102332, Note_off_c, 1, 53, 100
3, 102336, Note_on_c, 1, 56, 80
3, 102524, Note_off_c, 1, 56, 100
3, 102528, Note_on_c, 1, 59, 80
3, 102716, Note_off_c, 1, 59, 100
3, 102720, Note_on_c, 1, 62, 80
3, 102908, Note_off_c, 1, 62, 100
3, 102912, Note_on_c, 1, 53, 80
3, 103100, Note_off_c, 1, 53, 100
3, 103104, Note_on_c, 1, 56, 80
3, 103292, Note_off_c, 1, 56, 100
3, 103296, Note_on_c, 1, 59, 80
3, 103484, Note_off_c, 1, 59, 100
3, 103488, Note_on_c, 1, 62, 80
3, 103676, Note_off_c, 1, 62, 100
3, 103680, Note_on_c, 1, 51, 80
3, 103868, Note_off_c, 1, 51, 100
3, 103872, Note_on_c, 1, 56, 80
3, 104060, Note_off_c, 1, 56, 100
3, 104064, Note_on_c, 1, 60, 80
3, 104252, Note_off_c, 1, 60, 100
3, 104256, Note_on_c, 1, 63, 80
3, 104444, Note_off_c, 1, 63, 100
3, 104448, Note_on_c, 1, 56, 80
3, 104636, Note_off_c, 1, 56, 100
3, 104640, Note_on_c, 1, 60, 80
3, 104828, Note_off_c, 1, 60, 100
3, 104832, Note_on_c, 1, 63, 80
3, 105020, Note_off_c, 1, 63, 100
3, 105024, Note_on_c, 1, 66, 80
3, 105212, Note_off_c, 1, 66, 100
3, 105216, Note_on_c, 1, 55, 80
3, 105404, Note_off_c, 1, 55, 100
3, 105408, Note_on_c, 1, 60, 80
3, 105596, Note_off_c, 1, 60, 100
3, 105600, Note_on_c, 1, 63, 80
3, 105788, Note_off_c, 1, 63, 100
3, 105792, Note_on_c, 1, 67, 80
3, 105980, Note_off_c, 1, 67, 100
3, 105984, Note_on_c, 1, 55, 80
3, 106172, Note_off_c, 1, 55, 100
3, 106176, Note_on_c, 1, 59, 80
3, 106364, Note_off_c, 1, 59, 100
3, 106368, Note_on_c, 1, 62, 80
3, 106556, Note_off_c, 1, 62, 100
3, 106560, Note_on_c, 1, 67, 80
3, 106748, Note_off_c, 1, 67, 100
3, 106944, Note_on_c, 1, 48, 80
3, 107132, Note_off_c, 1, 48, 100
3, 107136, Note_on_c, 1, 51, 80
3, 107324, Note_off_c, 1, 51, 100
3, 107328, Note_on_c, 1, 55, 80
3, 107516, Note_off_c, 1, 55, 100
3, 107520, Note_on_c, 1, 60, 80
3, 107900, Note_off_c, 1, 60, 100
3, 108480, Note_on_c, 1, 41, 80
3, 108668, Note_off_c, 1, 41, 100
3, 108672, Note_on_c, 1, 47, 80
3, 108860, Note_off_c, 1, 47, 100
3, 108864, Note_on_c, 1, 50, 80
3, 109052, Note_off_c, 1, 50, 100
3, 109056, Note_on_c, 1, 53, 80
3, 109244, Note_off_c, 1, 53, 100
3, 109248, Note_on_c, 1, 56, 80
3, 109436, Note_off_c, 1, 56, 100
3, 109440, Note_on_c, 1, 55, 80
3, 109628, Note_off_c, 1, 55, 100
3, 109632, Note_on_c, 1, 53, 80
3, 109820, Note_off_c, 1, 53, 100
3, 110016, Note_on_c, 1, 39, 80
3, 110204, Note_off_c, 1, 39, 100
3, 110208, Note_on_c, 1, 43, 80
3, 110396, Note_off_c, 1, 43, 100
3, 110400, Note_on_c, 1, 48, 80
3, 110588, Note_off_c, 1, 48, 100
3, 110592, Note_on_c, 1, 51, 80
3, 110780, Note_off_c, 1, 51, 100
3, 110784, Note_on_c, 1, 55, 80
3, 110972, Note_off_c, 1, 55, 100
3, 110976, Note_on_c, 1, 56, 80
3, 111164, Note_off_c, 1, 56, 100
3, 111168, Note_on_c, 1, 54, 80
3, 111356, Note_off_c, 1, 54, 100
3, 111360, Note_on_c, 1, 43, 80
3, 111548, Note_off_c, 1, 43, 100
3, 111552, Note_on_c, 1, 55, 80
3, 111740, Note_off_c, 1, 55, 100
3, 111744, Note_on_c, 1, 60, 80
3, 111932, Note_off_c, 1, 60, 100
3, 111936, Note_on_c, 1, 55, 80
3, 112124, Note_off_c, 1, 55, 100
3, 112128, Note_on_c, 1, 43, 80
3, 112316, Note_off_c, 1, 43, 100
3, 112320, Note_on_c, 1, 55, 80
3, 112508, Note_off_c, 1, 55, 100
3, 112512, Note_on_c, 1, 59, 80
3, 112700, Note_off_c, 1, 59, 100
3, 112704, Note_on_c, 1, 55, 80
3, 112892, Note_off_c, 1, 55, 100
3, 112896, Note_on_c, 1, 48, 80
3, 113084, Note_off_c, 1, 48, 100
3, 113088, Note_on_c, 1, 60, 80
3, 113276, Note_off_c, 1, 60, 100
3, 113280, Note_on_c, 1, 59, 81
3, 113468, Note_off_c, 1, 59, 100
3, 113472, Note_on_c, 1, 60, 82
3, 113660, Note_off_c, 1, 60, 100
3, 113664, Note_on_c, 1, 52, 83
3, 113852, Note_off_c, 1, 52, 100
3, 113856, Note_on_c, 1, 60, 84
3, 114044, Note_off_c, 1, 60, 100
3, 114048, Note_on_c, 1, 55, 85
3, 114236, Note_off_c, 1, 55, 100
3, 114240, Note_on_c, 1, 60, 86
3, 114428, Note_off_c, 1, 60, 100
3, 114432, Note_on_c, 1, 53, 87
3, 114620, Note_off_c, 1, 53, 100
3, 114624, Note_on_c, 1, 60, 88
3, 114812, Note_off_c, 1, 60, 100
3, 114816, Note_on_c, 1, 56, 89
3, 115004, Note_off_c, 1, 56, 100
3, 115008, Note_on_c, 1, 60, 90
3, 115196, Note_off_c, 1, 60, 100
3, 115200, Note_on_c, 1, 55, 91
3, 115388, Note_off_c, 1, 55, 100
3, 115392, Note_on_c, 1, 65, 92
3, 115580, Note_off_c, 1, 65, 100
3, 115584, Note_on_c, 1, 59, 93
3, 115772, Note_off_c, 1, 59, 100
3, 115776, Note_on_c, 1, 65, 94
3, 115964, Note_off_c, 1, 65, 100
3, 115968, Note_on_c, 1, 56, 95
3, 116156, Note_off_c, 1, 56, 100
3, 116160, Note_on_c, 1, 63, 96
3, 116348, Note_off_c, 1, 63, 100
3, 116352, Note_on_c, 1, 60, 97
3, 116540, Note_off_c, 1, 60, 100
3, 116544, Note_on_c, 1, 63, 98
3, 116732, Note_off_c, 1, 63, 100
3, 116736, Note_on_c, 1, 55, 99
3, 116924, Note_off_c, 1, 55, 100
3, 116928, Note_on_c, 1, 64, 100
3, 117116, Note_off_c, 1, 64, 100
3, 117120, Note_on_c, 1, 60, 101
3, 117308, Note_off_c, 1, 60, 100
3, 117312, Note_on_c, 1, 64, 102
3, 117500, Note_off_c, 1, 64, 100
3, 117504, Note_on_c, 1, 53, 103
3, 117692, Note_off_c, 1, 53, 100
3, 117696, Note_on_c, 1, 65, 104
3, 117884, Note_off_c, 1, 65, 100
3, 117888, Note_on_c, 1, 60, 105
3, 118076, Note_off_c, 1, 60, 100
3, 118080, Note_on_c, 1, 65, 106
3, 118268, Note_off_c, 1, 65, 100
3, 118272, Note_on_c, 1, 55, 107
3, 118460, Note_off_c, 1, 55, 100
3, 118464, Note_on_c, 1, 67, 108
3, 118652, Note_off_c, 1, 67, 100
3, 118656, Note_on_c, 1, 55, 109
3, 118844, Note_off_c, 1, 55, 100
3, 118848, Note_on_c, 1, 67, 109
3, 119036, Note_off_c, 1, 67, 100
3, 119040, Note_on_c, 1, 60, 110
3, 119420, Note_off_c, 1, 60, 100
3, 119424, Note_on_c, 1, 59, 110
3, 119424, Note_on_c, 1, 55, 110
3, 119804, Note_off_c, 1, 59, 100
3, 119804, Note_off_c, 1, 55, 100
3, 119808, Note_on_c, 1, 60, 110
3, 119808, Note_on_c, 1, 48, 110
3, 120188, Note_off_c, 1, 60, 100
3, 120188, Note_off_c, 1, 48, 100
3, 120192, Note_on_c, 1, 55, 110
3, 120192, Note_on_c, 1, 43, 110
3, 120572, Note_off_c, 1, 55, 100
3, 120572, Note_off_c, 1, 43, 100
3, 120576, Note_on_c, 1, 48, 110
3, 120576, Note_on_c, 1, 36, 110
3, 120956, Note_off_c, 1, 48, 100
3, 120956, Note_off_c, 1, 36, 100
3, 121536, Note_on_c, 1, 44, 80
3, 121724, Note_off_c, 1, 44, 100
3, 121728, Note_on_c, 1, 48, 80
3, 121916, Note_off_c, 1, 48, 100
3, 121920, Note_on_c, 1, 51, 80
3, 122108, Note_off_c, 1, 51, 100
3, 122112, Note_on_c, 1, 56, 80
3, 122876, Note_off_c, 1, 56, 100
3, 122880, Note_on_c, 1, 49, 80
3, 123644, Note_off_c, 1, 49, 100
3, 123648, Note_on_c, 1, 55, 80
3, 124412, Note_off_c, 1, 55, 100
3, 124416, Note_on_c, 1, 48, 80
3, 125180, Note_off_c, 1, 48, 100
3, 125184, Note_on_c, 1, 53, 80
3, 125564, Note_off_c, 1, 53, 100
3, 125568, Note_on_c, 1, 46, 80
3, 126332, Note_off_c, 1, 46, 100
3, 126336, Note_on_c, 1, 48, 80
3, 126716, Note_off_c, 1, 48, 100
3, 126720, Note_on_c, 1, 49, 80
3, 127100, Note_off_c, 1, 49, 100
3, 127104, Note_on_c, 1, 50, 80
3, 127484, Note_off_c, 1, 50, 100
3, 127488, Note_on_c, 1, 51, 80
3, 127868, Note_off_c, 1, 51, 100
3, 127872, Note_on_c, 1, 39, 80
3, 128252, Note_off_c, 1, 39, 100
3, 128256, Note_on_c, 1, 44, 80
3, 129020, Note_off_c, 1, 44, 100
3, 129024, Note_on_c, 1, 49, 80
3, 129788, Note_off_c, 1, 49, 100
3, 129792, Note_on_c, 1, 43, 80
3, 130556, Note_off_c, 1, 43, 100
3, 130560, Note_on_c, 1, 48, 80
3, 131324, Note_off_c, 1, 48, 100
3, 131328, Note_on_c, 1, 41, 80
3, 132092, Note_off_c, 1, 41, 100
3, 132096, Note_on_c, 1, 43, 80
3, 132476, Note_off_c, 1, 43, 100
3, 132480, Note_on_c, 1, 44, 80
3, 132860, Note_off_c, 1, 44, 100
3, 132864, Note_on_c, 1, 45, 80
3, 133244, Note_off_c, 1, 45, 100
3, 133248, Note_on_c, 1, 46, 80
3, 133628, Note_off_c, 1, 46, 100
3, 133632, Note_on_c, 1, 39, 80
3, 134012, Note_off_c, 1, 39, 100
3, 134784, Note_on_c, 1, 60, 80
3, 134784, Note_on_c, 1, 56, 80
3, 135548, Note_off_c, 1, 60, 100
3, 135548, Note_off_c, 1, 56, 100
3, 135552, Note_on_c, 1, 49, 80
3, 135552, Note_on_c, 1, 53, 80
3, 136316, Note_off_c, 1, 49, 100
3, 136316, Note_off_c, 1, 53, 100
3, 136320, Note_on_c, 1, 55, 80
3, 136320, Note_on_c, 1, 58, 80
3, 137084, Note_off_c, 1, 55, 100
3, 137084, Note_off_c, 1, 58, 100
3, 137088, Note_on_c, 1, 51, 80
3, 137088, Note_on_c, 1, 48, 80
3, 137852, Note_off_c, 1, 48, 100
3, 137852, Note_off_c, 1, 51, 100
3, 137856, Note_on_c, 1, 53, 80
3, 137856, Note_on_c, 1, 56, 80
3, 138236, Note_off_c, 1, 53, 100
3, 138236, Note_off_c, 1, 56, 100
3, 138240, Note_on_c, 1, 46, 80
3, 138620, Note_off_c, 1, 46, 100
3, 138624, Note_on_c, 1, 48, 80
3, 139004, Note_off_c, 1, 48, 100
3, 139008, Note_on_c, 1, 49, 80
3, 139388, Note_off_c, 1, 49, 100
3, 139392, Note_on_c, 1, 50, 80
3, 139772, Note_off_c, 1, 50, 100
3, 139776, Note_on_c, 1, 51, 80
3, 140156, Note_off_c, 1, 51, 100
3, 140544, Note_on_c, 1, 56, 80
3, 140544, Note_on_c, 1, 60, 80
3, 141308, Note_off_c, 1, 56, 100
3, 141308, Note_off_c, 1, 60, 100
3, 141312, Note_on_c, 1, 61, 80
3, 141312, Note_on_c, 1, 65, 80
3, 142076, Note_off_c, 1, 61, 100
3, 142076, Note_off_c, 1, 65, 100
3, 142080, Note_on_c, 1, 55, 80
3, 142080, Note_on_c, 1, 58, 80
3, 142844, Note_off_c, 1, 55, 100
3, 142844, Note_off_c, 1, 58, 100
3, 142848, Note_on_c, 1, 60, 80
3, 142848, Note_on_c, 1, 63, 80
3, 143612, Note_off_c, 1, 60, 100
3, 143612, Note_off_c, 1, 63, 100
3, 143616, Note_on_c, 1, 53, 80
3, 144380, Note_off_c, 1, 53, 100
3, 144384, Note_on_c, 1, 55, 80
3, 144764, Note_off_c, 1, 55, 100
3, 144768, Note_on_c, 1, 56, 80
3, 145148, Note_off_c, 1, 56, 100
3, 145152, Note_on_c, 1, 57, 80
3, 145532, Note_off_c, 1, 57, 100
3, 145536, Note_on_c, 1, 58, 80
3, 145916, Note_off_c, 1, 58, 100
3, 145920, Note_on_c, 1, 51, 80
3, 146300, Note_off_c, 1, 51, 100
3, 146304, Note_on_c, 1, 63, 80
3, 146684, Note_off_c, 1, 63, 100
3, 146688, Note_on_c, 1, 62, 80
3, 147068, Note_off_c, 1, 62, 100
3, 147072, Note_on_c, 1, 63, 80
3, 147452, Note_off_c, 1, 63, 100
3, 147456, Note_on_c, 1, 66, 80
3, 147836, Note_off_c, 1, 66, 100
3, 147840, Note_on_c, 1, 56, 80
3, 148220, Note_off_c, 1, 56, 100
3, 148224, Note_on_c, 1, 58, 80
3, 148604, Note_off_c, 1, 58, 100
3, 149376, Note_on_c, 1, 61, 80
3, 149376, Note_on_c, 1, 51, 80
3, 149756, Note_off_c, 1, 61, 100
3, 149756, Note_off_c, 1, 51, 100
3, 149760, Note_on_c, 1, 56, 80
3, 149760, Note_on_c, 1, 60, 80
3, 150140, Note_off_c, 1, 56, 100
3, 150140, Note_off_c, 1, 60, 100
3, 150912, Note_on_c, 1, 56, 80
3, 150912, Note_on_c, 1, 46, 80
3, 151292, Note_off_c, 1, 56, 100
3, 151292, Note_off_c, 1, 46, 100
3, 151296, Note_on_c, 1, 55, 80
3, 151296, Note_on_c, 1, 51, 80
3, 151676, Note_off_c, 1, 55, 100
3, 151676, Note_off_c, 1, 51, 100
3, 152256, Note_on_c, 1, 75, 80
3, 152444, Note_off_c, 1, 75, 100
3, 152448, Note_on_c, 1, 77, 80
3, 152636, Note_off_c, 1, 77, 100
3, 152640, Note_on_c, 1, 79, 80
3, 152828, Note_off_c, 1, 79, 100
3, 152832, Note_on_c, 1, 80, 80
3, 153020, Note_off_c, 1, 80, 100
3, 153024, Note_on_c, 1, 79, 80
3, 153212, Note_off_c, 1, 79, 100
3, 153216, Note_on_c, 1, 77, 80
3, 153404, Note_off_c, 1, 77, 100
3, 153408, Note_on_c, 1, 75, 80
3, 153596, Note_off_c, 1, 75, 100
3, 153600, Note_on_c, 1, 73, 80
3, 153788, Note_off_c, 1, 73, 100
3, 153792, Note_on_c, 1, 72, 80
3, 153980, Note_off_c, 1, 72, 100
3, 153984, Note_on_c, 1, 70, 80
3, 154172, Note_off_c, 1, 70, 100
3, 154176, Note_on_c, 1, 68, 80
3, 154364, Note_off_c, 1, 68, 100
3, 154368, Note_on_c, 1, 67, 80
3, 154556, Note_off_c, 1, 67, 100
3, 154560, Note_on_c, 1, 65, 80
3, 154748, Note_off_c, 1, 65, 100
3, 154752, Note_on_c, 1, 63, 80
3, 154940, Note_off_c, 1, 63, 100
3, 154944, Note_on_c, 1, 61, 80
3, 155132, Note_off_c, 1, 61, 100
3, 155136, Note_on_c, 1, 60, 80
3, 155324, Note_off_c, 1, 60, 100
3, 155328, Note_on_c, 1, 58, 80
3, 155516, Note_off_c, 1, 58, 100
3, 155520, Note_on_c, 1, 56, 80
3, 155708, Note_off_c, 1, 56, 100
3, 155712, Note_on_c, 1, 55, 80
3, 155900, Note_off_c, 1, 55, 100
3, 155904, Note_on_c, 1, 53, 80
3, 156092, Note_off_c, 1, 53, 100
3, 156096, Note_on_c, 1, 51, 81
3, 156284, Note_off_c, 1, 51, 100
3, 156288, Note_on_c, 1, 49, 83
3, 156476, Note_off_c, 1, 49, 100
3, 156480, Note_on_c, 1, 48, 85
3, 156668, Note_off_c, 1, 48, 100
3, 156672, Note_on_c, 1, 46, 87
3, 156860, Note_off_c, 1, 46, 100
3, 156864, Note_on_c, 1, 45, 89
3, 157052, Note_off_c, 1, 45, 100
3, 157056, Note_on_c, 1, 46, 91
3, 157244, Note_off_c, 1, 46, 100
3, 157248, Note_on_c, 1, 48, 93
3, 157436, Note_off_c, 1, 48, 100
3, 157440, Note_on_c, 1, 49, 95
3, 157628, Note_off_c, 1, 49, 100
3, 157632, Note_on_c, 1, 48, 97
3, 157820, Note_off_c, 1, 48, 100
3, 157824, Note_on_c, 1, 49, 99
3, 158012, Note_off_c, 1, 49, 100
3, 158016, Note_on_c, 1, 50, 101
3, 158204, Note_off_c, 1, 50, 100
3, 158208, Note_on_c, 1, 51, 103
3, 158396, Note_off_c, 1, 51, 100
3, 158400, Note_on_c, 1, 53, 105
3, 158588, Note_off_c, 1, 53, 100
3, 158592, Note_on_c, 1, 54, 107
3, 158780, Note_off_c, 1, 54, 100
3, 158784, Note_on_c, 1, 55, 109
3, 158972, Note_off_c, 1, 55, 100
3, 158976, Note_on_c, 1, 44, 110
3, 159740, Note_off_c, 1, 44, 100
3, 159744, Note_on_c, 1, 49, 110
3, 160508, Note_off_c, 1, 49, 100
3, 160512, Note_on_c, 1, 43, 110
3, 161276, Note_off_c, 1, 43, 100
3, 161280, Note_on_c, 1, 48, 110
3, 162044, Note_off_c, 1, 48, 100
3, 162048, Note_on_c, 1, 41, 110
3, 162812, Note_off_c, 1, 41, 100
3, 162816, Note_on_c, 1, 41, 119
3, 162816, Note_on_c, 1, 29, 121
3, 164348, Note_off_c, 1, 29, 100
3, 164348, Note_off_c, 1, 41, 100
3, 164352, Note_on_c, 1, 42, 96
3, 164352, Note_on_c, 1, 30, 96
3, 165116, Note_off_c, 1, 42, 100
3, 165116, Note_off_c, 1, 30, 100
3, 165120, Note_on_c, 1, 31, 75
3, 165500, Note_off_c, 1, 31, 100
3, 165696, Note_on_c, 1, 38, 78
3, 165788, Note_off_c, 1, 38, 100
3, 165792, Note_on_c, 1, 35, 78
3, 165884, Note_off_c, 1, 35, 100
3, 165888, Note_on_c, 1, 31, 79
3, 166268, Note_off_c, 1, 31, 100
3, 166464, Note_on_c, 1, 39, 82
3, 166556, Note_off_c, 1, 39, 100
3, 166560, Note_on_c, 1, 36, 83
3, 166652, Note_off_c, 1, 36, 100
3, 166656, Note_on_c, 1, 31, 83
3, 167036, Note_off_c, 1, 31, 100
3, 167232, Note_on_c, 1, 41, 87
3, 167324, Note_off_c, 1, 41, 100
3, 167328, Note_on_c, 1, 38, 87
3, 167420, Note_off_c, 1, 38, 100
3, 167424, Note_on_c, 1, 31, 88
3, 167804, Note_off_c, 1, 31, 100
3, 168000, Note_on_c, 1, 39, 91
3, 168092, Note_off_c, 1, 39, 100
3, 168096, Note_on_c, 1, 36, 92
3, 168188, Note_off_c, 1, 36, 100
3, 168192, Note_on_c, 1, 31, 92
3, 168572, Note_off_c, 1, 31, 100
3, 168768, Note_on_c, 1, 50, 96
3, 168860, Note_off_c, 1, 50, 100
3, 168864, Note_on_c, 1, 47, 96
3, 168956, Note_off_c, 1, 47, 100
3, 168960, Note_on_c, 1, 43, 97
3, 169340, Note_off_c, 1, 43, 100
3, 169536, Note_on_c, 1, 51, 100
3, 169628, Note_off_c, 1, 51, 100
3, 169632, Note_on_c, 1, 48, 101
3, 169724, Note_off_c, 1, 48, 100
3, 169728, Note_on_c, 1, 43, 101
3, 170108, Note_off_c, 1, 43, 100
3, 170304, Note_on_c, 1, 53, 104
3, 170396, Note_off_c, 1, 53, 100
3, 170400, Note_on_c, 1, 50, 105
3, 170492, Note_off_c, 1, 50, 100
3, 170496, Note_on_c, 1, 43, 106
3, 170876, Note_off_c, 1, 43, 100
3, 171072, Note_on_c, 1, 51, 109
3, 171164, Note_off_c, 1, 51, 100
3, 171168, Note_on_c, 1, 48, 109
3, 171260, Note_off_c, 1, 48, 100
3, 171264, Note_on_c, 1, 43, 120
3, 171644, Note_off_c, 1, 43, 100
3, 171840, Note_on_c, 1, 62, 120
3, 171932, Note_off_c, 1, 62, 100
3, 171936, Note_on_c, 1, 59, 120
3, 172028, Note_off_c, 1, 59, 100
3, 172032, Note_on_c, 1, 55, 120
3, 172412, Note_off_c, 1, 55, 100
3, 172608, Note_on_c, 1, 63, 120
3, 172700, Note_off_c, 1, 63, 100
3, 172704, Note_on_c, 1, 60, 120
3, 172796, Note_off_c, 1, 60, 100
3, 172800, Note_on_c, 1, 55, 120
3, 173180, Note_off_c, 1, 55, 100
3, 173376, Note_on_c, 1, 65, 120
3, 173468, Note_off_c, 1, 65, 100
3, 173472, Note_on_c, 1, 62, 120
3, 173564, Note_off_c, 1, 62, 100
3, 173568, Note_on_c, 1, 55, 120
3, 173948, Note_off_c, 1, 55, 100
3, 174144, Note_on_c, 1, 63, 120
3, 174236, Note_off_c, 1, 63, 100
3, 174240, Note_on_c, 1, 60, 120
3, 174332, Note_off_c, 1, 60, 100
3, 174336, Note_on_c, 1, 55, 120
3, 174716, Note_off_c, 1, 55, 100
3, 175488, Note_on_c, 1, 55, 120
3, 175612, Note_off_c, 1, 55, 100
3, 175616, Note_on_c, 1, 50, 120
3, 175740, Note_off_c, 1, 50, 100
3, 175744, Note_on_c, 1, 47, 120
3, 175868, Note_off_c, 1, 47, 100
3, 175872, Note_on_c, 1, 43, 120
3, 176252, Note_off_c, 1, 43, 100
3, 177024, Note_on_c, 1, 55, 120
3, 177148, Note_off_c, 1, 55, 100
3, 177152, Note_on_c, 1, 50, 120
3, 177276, Note_off_c, 1, 50, 100
3, 177280, Note_on_c, 1, 47, 120
3, 177404, Note_off_c, 1, 47, 100
3, 177408, Note_on_c, 1, 43, 120
3, 177788, Note_off_c, 1, 43, 100
3, 178560, Note_on_c, 1, 43, 120
3, 178684, Note_off_c, 1, 43, 100
3, 178688, Note_on_c, 1, 38, 120
3, 178812, Note_off_c, 1, 38, 100
3, 178816, Note_on_c, 1, 35, 120
3, 178940, Note_off_c, 1, 35, 100
3, 178944, Note_on_c, 1, 31, 120
3, 179324, Note_off_c, 1, 31, 100
3, 180480, Note_on_c, 1, 43, 127
3, 180480, Note_on_c, 1, 31, 127
3, 183548, Note_off_c, 1, 31, 100
3, 183548, Note_off_c, 1, 43, 100
3, 183552, Note_on_c, 1, 53, 120
3, 183552, Note_on_c, 1, 50, 120
3, 183552, Note_on_c, 1, 43, 120
3, 187388, Note_off_c, 1, 43, 100
3, 187388, Note_off_c, 1, 50, 100
3, 187388, Note_off_c, 1, 53, 100
3, 188160, Note_on_c, 1, 48, 80
3, 188348, Note_off_c, 1, 48, 100
3, 188352, Note_on_c, 1, 51, 80
3, 188540, Note_off_c, 1, 51, 100
3, 188544, Note_on_c, 1, 55, 80
3, 188732, Note_off_c, 1, 55, 100
3, 188736, Note_on_c, 1, 60, 80
3, 188924, Note_off_c, 1, 60, 100
3, 188928, Note_on_c, 1, 48, 80
3, 189116, Note_off_c, 1, 48, 100
3, 189120, Note_on_c, 1, 53, 80
3, 189308, Note_off_c, 1, 53, 100
3, 189312, Note_on_c, 1, 55, 80
3, 189500, Note_off_c, 1, 55, 100
3, 189504, Note_on_c, 1, 59, 80
3, 189692, Note_off_c, 1, 59, 100
3, 189696, Note_on_c, 1, 48, 80
3, 189884, Note_off_c, 1, 48, 100
3, 189888, Note_on_c, 1, 51, 80
3, 190076, Note_off_c, 1, 51, 100
3, 190080, Note_on_c, 1, 55, 80
3, 190268, Note_off_c, 1, 55, 100
3, 190272, Note_on_c, 1, 60, 80
3, 190460, Note_off_c, 1, 60, 100
3, 190464, Note_on_c, 1, 63, 80
3, 190652, Note_off_c, 1, 63, 100
3, 190656, Note_on_c, 1, 67, 80
3, 190844, Note_off_c, 1, 67, 100
3, 190848, Note_on_c, 1, 63, 80
3, 191036, Note_off_c, 1, 63, 100
3, 191040, Note_on_c, 1, 62, 80
3, 191228, Note_off_c, 1, 62, 100
3, 191232, Note_on_c, 1, 60, 80
3, 191420, Note_off_c, 1, 60, 100
3, 191424, Note_on_c, 1, 67, 80
3, 191612, Note_off_c, 1, 67, 100
3, 191616, Note_on_c, 1, 60, 80
3, 191616, Note_on_c, 1, 63, 80
3, 191804, Note_off_c, 1, 60, 100
3, 191804, Note_off_c, 1, 63, 100
3, 191808, Note_on_c, 1, 67, 80
3, 191996, Note_off_c, 1, 67, 100
3, 192000, Note_on_c, 1, 62, 80
3, 192000, Note_on_c, 1, 59, 80
3, 192188, Note_off_c, 1, 62, 100
3, 192188, Note_off_c, 1, 59, 100
3, 192192, Note_on_c, 1, 67, 80
3, 192380, Note_off_c, 1, 67, 100
3, 192384, Note_on_c, 1, 56, 80
3, 192384, Note_on_c, 1, 60, 80
3, 192572, Note_off_c, 1, 56, 100
3, 192572, Note_off_c, 1, 60, 100
3, 192576, Note_on_c, 1, 67, 80
3, 192764, Note_off_c, 1, 67, 100
3, 192768, Note_on_c, 1, 55, 80
3, 192956, Note_off_c, 1, 55, 100
3, 192960, Note_on_c, 1, 59, 80
3, 193148, Note_off_c, 1, 59, 100
3, 193152, Note_on_c, 1, 62, 80
3, 193340, Note_off_c, 1, 62, 100
3, 193344, Note_on_c, 1, 67, 80
3, 193532, Note_off_c, 1, 67, 100
3, 193536, Note_on_c, 1, 55, 80
3, 193724, Note_off_c, 1, 55, 100
3, 193728, Note_on_c, 1, 59, 80
3, 193916, Note_off_c, 1, 59, 100
3, 193920, Note_on_c, 1, 62, 80
3, 194108, Note_off_c, 1, 62, 100
3, 194112, Note_on_c, 1, 67, 80
3, 194300, Note_off_c, 1, 67, 100
3, 194304, Note_on_c, 1, 53, 80
3, 194492, Note_off_c, 1, 53, 100
3, 194496, Note_on_c, 1, 56, 80
3, 194684, Note_off_c, 1, 56, 100
3, 194688, Note_on_c, 1, 59, 80
3, 194876, Note_off_c, 1, 59, 100
3, 194880, Note_on_c, 1, 62, 80
3, 195068, Note_off_c, 1, 62, 100
3, 195072, Note_on_c, 1, 53, 80
3, 195260, Note_off_c, 1, 53, 100
3, 195264, Note_on_c, 1, 56, 80
3, 195452, Note_off_c, 1, 56, 100
3, 195456, Note_on_c, 1, 59, 80
3, 195644, Note_off_c, 1, 59, 100
3, 195648, Note_on_c, 1, 62, 80
3, 195836, Note_off_c, 1, 62, 100
3, 195840, Note_on_c, 1, 51, 80
3, 196028, Note_off_c, 1, 51, 100
3, 196032, Note_on_c, 1, 56, 80
3, 196220, Note_off_c, 1, 56, 100
3, 196224, Note_on_c, 1, 60, 80
3, 196412, Note_off_c, 1, 60, 100
3, 196416, Note_on_c, 1, 63, 80
3, 196604, Note_off_c, 1, 63, 100
3, 196608, Note_on_c, 1, 56, 80
3, 196796, Note_off_c, 1, 56, 100
3, 196800, Note_on_c, 1, 60, 80
3, 196988, Note_off_c, 1, 60, 100
3, 196992, Note_on_c, 1, 63, 80
3, 197180, Note_off_c, 1, 63, 100
3, 197184, Note_on_c, 1, 66, 80
3, 197372, Note_off_c, 1, 66, 100
3, 197376, Note_on_c, 1, 55, 80
3, 197564, Note_off_c, 1, 55, 100
3, 197568, Note_on_c, 1, 60, 80
3, 197756, Note_off_c, 1, 60, 100
3, 197760, Note_on_c, 1, 63, 80
3, 197948, Note_off_c, 1, 63, 100
3, 197952, Note_on_c, 1, 67, 80
3, 198140, Note_off_c, 1, 67, 100
3, 198144, Note_on_c, 1, 55, 80
3, 198332, Note_off_c, 1, 55, 100
3, 198336, Note_on_c, 1, 59, 80
3, 198524, Note_off_c, 1, 59, 100
3, 198528, Note_on_c, 1, 62, 80
3, 198716, Note_off_c, 1, 62, 100
3, 198720, Note_on_c, 1, 67, 80
3, 198908, Note_off_c, 1, 67, 100
3, 199104, Note_on_c, 1, 36, 80
3, 199292, Note_off_c, 1, 36, 100
3, 199296, Note_on_c, 1, 39, 80
3, 199484, Note_off_c, 1, 39, 100
3, 199488, Note_on_c, 1, 43, 80
3, 199676, Note_off_c, 1, 43, 100
3, 199680, Note_on_c, 1, 48, 80
3, 199868, Note_off_c, 1, 48, 100
3, 199872, Note_on_c, 1, 51, 80
3, 200060, Note_off_c, 1, 51, 100
3, 200064, Note_on_c, 1, 53, 80
3, 200252, Note_off_c, 1, 53, 100
3, 200256, Note_on_c, 1, 55, 80
3, 200444, Note_off_c, 1, 55, 100
3, 200448, Note_on_c, 1, 56, 80
3, 201212, Note_off_c, 1, 56, 100
3, 201216, Note_on_c, 1, 50, 80
3, 201596, Note_off_c, 1, 50, 100
3, 201600, Note_on_c, 1, 51, 80
3, 201788, Note_off_c, 1, 51, 100
3, 201792, Note_on_c, 1, 53, 80
3, 201980, Note_off_c, 1, 53, 100
3, 201984, Note_on_c, 1, 55, 80
3, 202748, Note_off_c, 1, 55, 100
3, 202752, Note_on_c, 1, 48, 80
3, 203132, Note_off_c, 1, 48, 100
3, 203136, Note_on_c, 1, 58, 80
3, 203324, Note_off_c, 1, 58, 100
3, 203328, Note_on_c, 1, 60, 80
3, 203516, Note_off_c, 1, 60, 100
3, 203520, Note_on_c, 1, 61, 80
3, 204284, Note_off_c, 1, 61, 100
3, 204288, Note_on_c, 1, 55, 80
3, 204668, Note_off_c, 1, 55, 100
3, 204672, Note_on_c, 1, 56, 80
3, 204860, Note_off_c, 1, 56, 100
3, 204864, Note_on_c, 1, 58, 80
3, 205052, Note_off_c, 1, 58, 100
3, 205056, Note_on_c, 1, 60, 80
3, 205820, Note_off_c, 1, 60, 100
3, 205824, Note_on_c, 1, 53, 80
3, 206204, Note_off_c, 1, 53, 100
3, 206592, Note_on_c, 1, 56, 80
3, 206592, Note_on_c, 1, 60, 80
3, 206972, Note_off_c, 1, 60, 100
3, 206976, Note_on_c, 1, 65, 80
3, 207356, Note_off_c, 1, 56, 100
3, 207356, Note_off_c, 1, 65, 100
3, 207360, Note_on_c, 1, 56, 80
3, 207360, Note_on_c, 1, 60, 80
3, 207740, Note_off_c, 1, 60, 100
3, 207744, Note_on_c, 1, 66, 80
3, 208124, Note_off_c, 1, 56, 100
3, 208124, Note_off_c, 1, 66, 100
3, 208128, Note_on_c, 1, 55, 80
3, 208508, Note_off_c, 1, 55, 100
3, 208512, Note_on_c, 1, 67, 80
3, 208892, Note_off_c, 1, 67, 100
3, 208896, Note_on_c, 1, 65, 80
3, 209276, Note_off_c, 1, 65, 100
3, 209280, Note_on_c, 1, 67, 80
3, 209660, Note_off_c, 1, 67, 100
3, 209664, Note_on_c, 1, 64, 80
3, 210044, Note_off_c, 1, 64, 100
3, 210048, Note_on_c, 1, 67, 80
3, 210428, Note_off_c, 1, 67, 100
3, 210432, Note_on_c, 1, 59, 80
3, 210812, Note_off_c, 1, 59, 100
3, 210816, Note_on_c, 1, 67, 80
3, 211196, Note_off_c, 1, 67, 100
3, 211200, Note_on_c, 1, 60, 80
3, 211580, Note_off_c, 1, 60, 100
3, 211584, Note_on_c, 1, 67, 80
3, 211964, Note_off_c, 1, 67, 100
3, 211968, Note_on_c, 1, 65, 80
3, 211968, Note_on_c, 1, 74, 80
3, 212348, Note_off_c, 1, 65, 100
3, 212352, Note_on_c, 1, 67, 80
3, 212732, Note_off_c, 1, 74, 100
3, 212732, Note_off_c, 1, 67, 100
3, 212736, Note_on_c, 1, 64, 80
3, 212736, Note_on_c, 1, 72, 80
3, 213116, Note_off_c, 1, 64, 100
3, 213120, Note_on_c, 1, 67, 80
3, 213500, Note_off_c, 1, 72, 100
3, 213500, Note_off_c, 1, 67, 100
3, 213504, Note_on_c, 1, 59, 80
3, 213884, Note_off_c, 1, 59, 100
3, 213888, Note_on_c, 1, 67, 80
3, 214268, Note_off_c, 1, 67, 100
3, 214272, Note_on_c, 1, 60, 80
3, 214652, Note_off_c, 1, 60, 100
3, 214656, Note_on_c, 1, 67, 80
3, 215036, Note_off_c, 1, 67, 100
3, 215040, Note_on_c, 1, 65, 80
3, 215420, Note_off_c, 1, 65, 100
3, 215424, Note_on_c, 1, 67, 80
3, 215804, Note_off_c, 1, 67, 100
3, 215808, Note_on_c, 1, 64, 80
3, 216188, Note_off_c, 1, 64, 100
3, 216192, Note_on_c, 1, 67, 80
3, 216572, Note_off_c, 1, 67, 100
3, 216576, Note_on_c, 1, 59, 80
3, 216956, Note_off_c, 1, 59, 100
3, 216960, Note_on_c, 1, 67, 80
3, 217340, Note_off_c, 1, 67, 100
3, 217344, Note_on_c, 1, 60, 80
3, 217724, Note_off_c, 1, 60, 100
3, 217728, Note_on_c, 1, 67, 80
3, 218108, Note_off_c, 1, 67, 100
3, 218112, Note_on_c, 1, 72, 80
3, 218112, Note_on_c, 1, 64, 80
3, 218492, Note_off_c, 1, 72, 100
3, 218496, Note_on_c, 1, 67, 81
3, 218876, Note_off_c, 1, 64, 100
3, 218876, Note_off_c, 1, 67, 100
3, 218880, Note_on_c, 1, 72, 83
3, 218880, Note_on_c, 1, 65, 83
3, 219260, Note_off_c, 1, 72, 100
3, 219264, Note_on_c, 1, 69, 84
3, 219644, Note_off_c, 1, 65, 100
3, 219644, Note_off_c, 1, 69, 100
3, 219648, Note_on_c, 1, 73, 86
3, 219648, Note_on_c, 1, 65, 86
3, 220028, Note_off_c, 1, 73, 100
3, 220032, Note_on_c, 1, 69, 87
3, 220412, Note_off_c, 1, 65, 100
3, 220412, Note_off_c, 1, 69, 100
3, 220416, Note_on_c, 1, 74, 89
3, 220416, Note_on_c, 1, 65, 89
3, 220796, Note_off_c, 1, 74, 100
3, 220796, Note_off_c, 1, 65, 100
3, 220800, Note_on_c, 1, 69, 91
3, 221180, Note_off_c, 1, 69, 100
3, 221184, Note_on_c, 1, 65, 92
3, 221564, Note_off_c, 1, 65, 100
3, 221568, Note_on_c, 1, 66, 94
3, 221948, Note_off_c, 1, 66, 100
3, 221952, Note_on_c, 1, 67, 80
3, 222140, Note_off_c, 1, 67, 100
3, 222848, Note_on_c, 1, 62, 80
3, 222972, Note_off_c, 1, 62, 100
3, 222976, Note_on_c, 1, 64, 80
3, 223100, Note_off_c, 1, 64, 100
3, 223104, Note_on_c, 1, 66, 80
3, 223228, Note_off_c, 1, 66, 100
3, 223232, Note_on_c, 1, 64, 80
3, 223356, Note_off_c, 1, 64, 100
3, 223360, Note_on_c, 1, 62, 80
3, 223484, Note_off_c, 1, 62, 100
3, 223488, Note_on_c, 1, 67, 80
3, 223676, Note_off_c, 1, 67, 100
3, 224384, Note_on_c, 1, 62, 80
3, 224508, Note_off_c, 1, 62, 100
3, 224512, Note_on_c, 1, 64, 80
3, 224636, Note_off_c, 1, 64, 100
3, 224640, Note_on_c, 1, 66, 80
3, 224764, Note_off_c, 1, 66, 100
3, 224768, Note_on_c, 1, 64, 80
3, 224892, Note_off_c, 1, 64, 100
3, 224896, Note_on_c, 1, 62, 80
3, 225020, Note_off_c, 1, 62, 100
3, 225024, Note_on_c, 1, 67, 80
3, 225212, Note_off_c, 1, 67, 100
3, 225792, Note_on_c, 1, 67, 80
3, 226172, Note_off_c, 1, 67, 100
3, 226560, Note_on_c, 1, 65, 80
3, 226560, Note_on_c, 1, 62, 80
3, 226560, Note_on_c, 1, 59, 80
3, 226560, Note_on_c, 1, 55, 80
3, 226940, Note_off_c, 1, 65, 100
3, 226940, Note_off_c, 1, 62, 100
3, 226940, Note_off_c, 1, 59, 100
3, 226940, Note_off_c, 1, 55, 100
3, 228096, Note_on_c, 1, 48, 80
3, 228476, Note_off_c, 1, 48, 100
3, 228992, Note_on_c, 1, 55, 80
3, 229116, Note_off_c, 1, 55, 100
3, 229120, Note_on_c, 1, 57, 80
3, 229244, Note_off_c, 1, 57, 100
3, 229248, Note_on_c, 1, 59, 80
3, 229372, Note_off_c, 1, 59, 100
3, 229376, Note_on_c, 1, 57, 80
3, 229500, Note_off_c, 1, 57, 100
3, 229504, Note_on_c, 1, 55, 80
3, 229628, Note_off_c, 1, 55, 100
3, 229632, Note_on_c, 1, 60, 80
3, 230012, Note_off_c, 1, 60, 100
3, 230528, Note_on_c, 1, 55, 80
3, 230652, Note_off_c, 1, 55, 100
3, 230656, Note_on_c, 1, 57, 80
3, 230780, Note_off_c, 1, 57, 100
3, 230784, Note_on_c, 1, 59, 80
3, 230908, Note_off_c, 1, 59, 100
3, 230912, Note_on_c, 1, 57, 80
3, 231036, Note_off_c, 1, 57, 100
3, 231040, Note_on_c, 1, 55, 80
3, 231164, Note_off_c, 1, 55, 100
3, 231168, Note_on_c, 1, 60, 80
3, 231548, Note_off_c, 1, 60, 100
3, 231936, Note_on_c, 1, 60, 80
3, 232316, Note_off_c, 1, 60, 100
3, 232704, Note_on_c, 1, 60, 80
3, 232704, Note_on_c, 1, 58, 80
3, 232704, Note_on_c, 1, 55, 80
3, 232704, Note_on_c, 1, 52, 80
3, 233084, Note_off_c, 1, 60, 100
3, 233084, Note_off_c, 1, 58, 100
3, 233084, Note_off_c, 1, 55, 100
3, 233084, Note_off_c, 1, 52, 100
3, 234240, Note_on_c, 1, 41, 80
3, 234364, Note_off_c, 1, 41, 100
3, 234368, Note_on_c, 1, 45, 80
3, 234492, Note_off_c, 1, 45, 100
3, 234496, Note_on_c, 1, 48, 80
3, 234620, Note_off_c, 1, 48, 100
3, 234624, Note_on_c, 1, 53, 80
3, 235004, Note_off_c, 1, 53, 100
3, 235776, Note_on_c, 1, 55, 80
3, 235776, Note_on_c, 1, 60, 80
3, 235776, Note_on_c, 1, 64, 80
3, 236156, Note_off_c, 1, 55, 100
3, 236156, Note_off_c, 1, 60, 100
3, 236156, Note_off_c, 1, 64, 100
3, 236544, Note_on_c, 1, 55, 80
3, 236544, Note_on_c, 1, 62, 80
3, 236544, Note_on_c, 1, 65, 80
3, 236924, Note_off_c, 1, 55, 100
3, 236924, Note_off_c, 1, 62, 100
3, 236924, Note_off_c, 1, 65, 100
3, 237312, Note_on_c, 1, 60, 80
3, 237312, Note_on_c, 1, 64, 80
3, 237692, Note_off_c, 1, 60, 100
3, 237692, Note_off_c, 1, 64, 100
3, 238848, Note_on_c, 1, 67, 80
3, 238848, Note_on_c, 1, 65, 80
3, 239228, Note_off_c, 1, 67, 100
3, 239228, Note_off_c, 1, 65, 100
3, 239232, Note_on_c, 1, 67, 80
3, 239232, Note_on_c, 1, 65, 80
3, 239612, Note_off_c, 1, 67, 100
3, 239612, Note_off_c, 1, 65, 100
3, 239616, Note_on_c, 1, 67, 80
3, 239616, Note_on_c, 1, 65, 80
3, 239996, Note_off_c, 1, 67, 100
3, 239996, Note_off_c, 1, 65, 100
3, 240000, Note_on_c, 1, 67, 80
3, 240000, Note_on_c, 1, 65, 80
3, 240380, Note_off_c, 1, 67, 100
3, 240380, Note_off_c, 1, 65, 100
3, 240384, Note_on_c, 1, 67, 80
3, 240384, Note_on_c, 1, 64, 80
3, 241532, Note_off_c, 1, 67, 100
3, 241532, Note_off_c, 1, 64, 100
3, 241536, Note_on_c, 1, 64, 80
3, 241916, Note_off_c, 1, 64, 100
3, 241920, Note_on_c, 1, 69, 80
3, 242684, Note_off_c, 1, 69, 100
3, 242688, Note_on_c, 1, 69, 80
3, 243452, Note_off_c, 1, 69, 100
3, 243456, Note_on_c, 1, 67, 80
3, 243836, Note_off_c, 1, 67, 100
3, 244992, Note_on_c, 1, 55, 80
3, 244992, Note_on_c, 1, 53, 80
3, 245372, Note_off_c, 1, 55, 100
3, 245372, Note_off_c, 1, 53, 100
3, 245376, Note_on_c, 1, 55, 80
3, 245376, Note_on_c, 1, 53, 80
3, 245756, Note_off_c, 1, 55, 100
3, 245756, Note_off_c, 1, 53, 100
3, 245760, Note_on_c, 1, 55, 80
3, 245760, Note_on_c, 1, 53, 80
3, 246140, Note_off_c, 1, 55, 100
3, 246140, Note_off_c, 1, 53, 100
3, 246144, Note_on_c, 1, 55, 80
3, 246144, Note_on_c, 1, 53, 80
3, 246524, Note_off_c, 1, 55, 100
3, 246524, Note_off_c, 1, 53, 100
3, 246528, Note_on_c, 1, 55, 80
3, 246528, Note_on_c, 1, 51, 80
3, 247676, Note_off_c, 1, 55, 100
3, 247676, Note_off_c, 1, 51, 100
3, 247680, Note_on_c, 1, 51, 80
3, 248060, Note_off_c, 1, 51, 100
3, 248064, Note_on_c, 1, 56, 80
3, 248444, Note_off_c, 1, 56, 100
3, 248448, Note_on_c, 1, 56, 80
3, 248828, Note_off_c, 1, 56, 100
3, 248832, Note_on_c, 1, 56, 80
3, 248832, Note_on_c, 1, 58, 80
3, 249212, Note_off_c, 1, 56, 100
3, 249212, Note_off_c, 1, 58, 100
3, 249216, Note_on_c, 1, 56, 80
3, 249216, Note_on_c, 1, 58, 80
3, 249596, Note_off_c, 1, 56, 100
3, 249596, Note_off_c, 1, 58, 100
3, 249600, Note_on_c, 1, 58, 80
3, 249600, Note_on_c, 1, 55, 80
3, 250748, Note_off_c, 1, 58, 100
3, 250748, Note_off_c, 1, 55, 100
3, 250752, Note_on_c, 1, 55, 80
3, 251132, Note_off_c, 1, 55, 100
3, 251136, Note_on_c, 1, 60, 80
3, 251516, Note_off_c, 1, 60, 100
3, 251520, Note_on_c, 1, 60, 80
3, 251520, Note_on_c, 1, 63, 80
3, 251900, Note_off_c, 1, 60, 100
3, 251900, Note_off_c, 1, 63, 100
3, 251904, Note_on_c, 1, 60, 80
3, 251904, Note_on_c, 1, 63, 80
3, 252284, Note_off_c, 1, 60, 100
3, 252284, Note_off_c, 1, 63, 100
3, 252288, Note_on_c, 1, 60, 80
3, 252288, Note_on_c, 1, 63, 80
3, 252668, Note_off_c, 1, 60, 100
3, 252668, Note_off_c, 1, 63, 100
3, 252672, Note_on_c, 1, 59, 80
3, 252672, Note_on_c, 1, 62, 80
3, 253820, Note_off_c, 1, 59, 100
3, 253820, Note_off_c, 1, 62, 100
3, 253824, Note_on_c, 1, 60, 94
3, 253824, Note_on_c, 1, 63, 94
3, 254204, Note_off_c, 1, 60, 100
3, 254204, Note_off_c, 1, 63, 100
3, 254208, Note_on_c, 1, 59, 90
3, 254208, Note_on_c, 1, 62, 90
3, 255356, Note_off_c, 1, 59, 100
3, 255356, Note_off_c, 1, 62, 100
3, 255360, Note_on_c, 1, 68, 81
3, 255360, Note_on_c, 1, 65, 81
3, 255740, Note_off_c, 1, 68, 100
3, 255740, Note_off_c, 1, 65, 100
3, 255744, Note_on_c, 1, 63, 80
3, 255744, Note_on_c, 1, 67, 80
3, 256892, Note_off_c, 1, 63, 100
3, 256892, Note_off_c, 1, 67, 100
3, 256896, Note_on_c, 1, 65, 94
3, 256896, Note_on_c, 1, 68, 94
3, 257276, Note_off_c, 1, 65, 100
3, 257276, Note_off_c, 1, 68, 100
3, 257280, Note_on_c, 1, 63, 90
3, 257280, Note_on_c, 1, 67, 90
3, 258428, Note_off_c, 1, 63, 100
3, 258428, Note_off_c, 1, 67, 100
3, 258432, Note_on_c, 1, 65, 81
3, 258432, Note_on_c, 1, 68, 81
3, 258812, Note_off_c, 1, 65, 100
3, 258812, Note_off_c, 1, 68, 100
3, 264576, Note_on_c, 1, 43, 80
3, 264956, Note_off_c, 1, 43, 100
3, 264960, Note_on_c, 1, 48, 80
3, 265148, Note_off_c, 1, 48, 100
3, 265152, Note_on_c, 1, 51, 80
3, 265340, Note_off_c, 1, 51, 100
3, 265344, Note_on_c, 1, 55, 80
3, 265532, Note_off_c, 1, 55, 100
3, 265536, Note_on_c, 1, 60, 80
3, 265724, Note_off_c, 1, 60, 100
3, 265728, Note_on_c, 1, 48, 80
3, 265916, Note_off_c, 1, 48, 100
3, 265920, Note_on_c, 1, 53, 80
3, 266108, Note_off_c, 1, 53, 100
3, 266112, Note_on_c, 1, 55, 80
3, 266300, Note_off_c, 1, 55, 100
3, 266304, Note_on_c, 1, 59, 80
3, 266492, Note_off_c, 1, 59, 100
3, 266496, Note_on_c, 1, 48, 80
3, 266684, Note_off_c, 1, 48, 100
3, 266688, Note_on_c, 1, 51, 80
3, 266876, Note_off_c, 1, 51, 100
3, 266880, Note_on_c, 1, 55, 80
3, 267068, Note_off_c, 1, 55, 100
3, 267072, Note_on_c, 1, 60, 80
3, 267260, Note_off_c, 1, 60, 100
3, 267264, Note_on_c, 1, 63, 80
3, 267452, Note_off_c, 1, 63, 100
3, 267456, Note_on_c, 1, 67, 80
3, 267644, Note_off_c, 1, 67, 100
3, 267648, Note_on_c, 1, 63, 80
3, 267836, Note_off_c, 1, 63, 100
3, 267840, Note_on_c, 1, 62, 80
3, 268028, Note_off_c, 1, 62, 100
3, 268032, Note_on_c, 1, 60, 80
3, 268220, Note_off_c, 1, 60, 100
3, 268224, Note_on_c, 1, 67, 80
3, 268412, Note_off_c, 1, 67, 100
3, 268416, Note_on_c, 1, 60, 80
3, 268416, Note_on_c, 1, 63, 80
3, 268604, Note_off_c, 1, 60, 100
3, 268604, Note_off_c, 1, 63, 100
3, 268608, Note_on_c, 1, 67, 80
3, 268796, Note_off_c, 1, 67, 100
3, 268800, Note_on_c, 1, 62, 80
3, 268800, Note_on_c, 1, 59, 80
3, 268988, Note_off_c, 1, 62, 100
3, 268988, Note_off_c, 1, 59, 100
3, 268992, Note_on_c, 1, 67, 80
3, 269180, Note_off_c, 1, 67, 100
3, 269184, Note_on_c, 1, 56, 80
3, 269184, Note_on_c, 1, 60, 80
3, 269372, Note_off_c, 1, 56, 100
3, 269372, Note_off_c, 1, 60, 100
3, 269376, Note_on_c, 1, 67, 80
3, 269564, Note_off_c, 1, 67, 100
3, 269568, Note_on_c, 1, 55, 80
3, 269756, Note_off_c, 1, 55, 100
3, 269760, Note_on_c, 1, 59, 80
3, 269948, Note_off_c, 1, 59, 100
3, 269952, Note_on_c, 1, 62, 80
3, 270140, Note_off_c, 1, 62, 100
3, 270144, Note_on_c, 1, 67, 80
3, 270332, Note_off_c, 1, 67, 100
3, 270336, Note_on_c, 1, 55, 80
3, 270524, Note_off_c, 1, 55, 100
3, 270528, Note_on_c, 1, 59, 80
3, 270716, Note_off_c, 1, 59, 100
3, 270720, Note_on_c, 1, 62, 80
3, 270908, Note_off_c, 1, 62, 100
3, 270912, Note_on_c, 1, 67, 80
3, 271100, Note_off_c, 1, 67, 100
3, 271104, Note_on_c, 1, 53, 80
3, 271292, Note_off_c, 1, 53, 100
3, 271296, Note_on_c, 1, 56, 80
3, 271484, Note_off_c, 1, 56, 100
3, 271488, Note_on_c, 1, 59, 80
3, 271676, Note_off_c, 1, 59, 100
3, 271680, Note_on_c, 1, 62, 80
3, 271868, Note_off_c, 1, 62, 100
3, 271872, Note_on_c, 1, 53, 80
3, 272060, Note_off_c, 1, 53, 100
3, 272064, Note_on_c, 1, 56, 80
3, 272252, Note_off_c, 1, 56, 100
3, 272256, Note_on_c, 1, 59, 80
3, 272444, Note_off_c, 1, 59, 100
3, 272448, Note_on_c, 1, 62, 80
3, 272636, Note_off_c, 1, 62, 100
3, 272640, Note_on_c, 1, 51, 80
3, 272828, Note_off_c, 1, 51, 100
3, 272832, Note_on_c, 1, 56, 80
3, 273020, Note_off_c, 1, 56, 100
3, 273024, Note_on_c, 1, 60, 80
3, 273212, Note_off_c, 1, 60, 100
3, 273216, Note_on_c, 1, 63, 80
3, 273404, Note_off_c, 1, 63, 100
3, 273408, Note_on_c, 1, 56, 80
3, 273596, Note_off_c, 1, 56, 100
3, 273600, Note_on_c, 1, 60, 80
3, 273788, Note_off_c, 1, 60, 100
3, 273792, Note_on_c, 1, 63, 80
3, 273980, Note_off_c, 1, 63, 100
3, 273984, Note_on_c, 1, 66, 80
3, 274172, Note_off_c, 1, 66, 100
3, 274176, Note_on_c, 1, 55, 80
3, 274364, Note_off_c, 1, 55, 100
3, 274368, Note_on_c, 1, 60, 80
3, 274556, Note_off_c, 1, 60, 100
3, 274560, Note_on_c, 1, 63, 80
3, 274748, Note_off_c, 1, 63, 100
3, 274752, Note_on_c, 1, 67, 80
3, 274940, Note_off_c, 1, 67, 100
3, 274944, Note_on_c, 1, 55, 80
3, 275132, Note_off_c, 1, 55, 100
3, 275136, Note_on_c, 1, 59, 80
3, 275324, Note_off_c, 1, 59, 100
3, 275328, Note_on_c, 1, 62, 80
3, 275516, Note_off_c, 1, 62, 100
3, 275520, Note_on_c, 1, 67, 80
3, 275708, Note_off_c, 1, 67, 100
3, 275712, Note_on_c, 1, 60, 90
3, 276092, Note_off_c, 1, 60, 100
3, 277248, Note_on_c, 1, 41, 96
3, 277436, Note_off_c, 1, 41, 100
3, 277440, Note_on_c, 1, 44, 97
3, 277628, Note_off_c, 1, 44, 100
3, 277632, Note_on_c, 1, 47, 98
3, 277820, Note_off_c, 1, 47, 100
3, 277824, Note_on_c, 1, 50, 99
3, 278012, Note_off_c, 1, 50, 100
3, 278016, Note_on_c, 1, 41, 100
3, 278204, Note_off_c, 1, 41, 100
3, 278208, Note_on_c, 1, 44, 101
3, 278396, Note_off_c, 1, 44, 100
3, 278400, Note_on_c, 1, 47, 102
3, 278588, Note_off_c, 1, 47, 100
3, 278592, Note_on_c, 1, 50, 103
3, 278780, Note_off_c, 1, 50, 100
3, 278784, Note_on_c, 1, 39, 103
3, 278972, Note_off_c, 1, 39, 100
3, 278976, Note_on_c, 1, 43, 104
3, 279164, Note_off_c, 1, 43, 100
3, 279168, Note_on_c, 1, 48, 105
3, 279356, Note_off_c, 1, 48, 100
3, 279360, Note_on_c, 1, 51, 106
3, 279548, Note_off_c, 1, 51, 100
3, 279552, Note_on_c, 1, 44, 107
3, 279740, Note_off_c, 1, 44, 100
3, 279744, Note_on_c, 1, 48, 108
3, 279932, Note_off_c, 1, 48, 100
3, 279936, Note_on_c, 1, 51, 109
3, 280124, Note_off_c, 1, 51, 100
3, 280128, Note_on_c, 1, 54, 109
3, 280316, Note_off_c, 1, 54, 100
3, 280320, Note_on_c, 1, 43, 100
3, 280508, Note_off_c, 1, 43, 100
3, 280512, Note_on_c, 1, 48, 100
3, 280700, Note_off_c, 1, 48, 100
3, 280704, Note_on_c, 1, 51, 100
3, 280892, Note_off_c, 1, 51, 100
3, 280896, Note_on_c, 1, 55, 100
3, 281084, Note_off_c, 1, 55, 100
3, 281088, Note_on_c, 1, 43, 100
3, 281276, Note_off_c, 1, 43, 100
3, 281280, Note_on_c, 1, 55, 100
3, 281468, Note_off_c, 1, 55, 100
3, 281472, Note_on_c, 1, 43, 100
3, 281660, Note_off_c, 1, 43, 100
3, 281664, Note_on_c, 1, 55, 100
3, 281852, Note_off_c, 1, 55, 100
3, 281856, Note_on_c, 1, 48, 80
3, 282044, Note_off_c, 1, 48, 100
3, 282048, Note_on_c, 1, 60, 80
3, 282236, Note_off_c, 1, 60, 100
3, 282240, Note_on_c, 1, 59, 80
3, 282428, Note_off_c, 1, 59, 100
3, 282432, Note_on_c, 1, 60, 80
3, 282620, Note_off_c, 1, 60, 100
3, 282624, Note_on_c, 1, 58, 80
3, 282812, Note_off_c, 1, 58, 100
3, 282816, Note_on_c, 1, 60, 81
3, 283004, Note_off_c, 1, 60, 100
3, 283008, Note_on_c, 1, 55, 83
3, 283196, Note_off_c, 1, 55, 100
3, 283200, Note_on_c, 1, 60, 85
3, 283388, Note_off_c, 1, 60, 100
3, 283392, Note_on_c, 1, 56, 87
3, 283580, Note_off_c, 1, 56, 100
3, 283584, Note_on_c, 1, 60, 89
3, 283772, Note_off_c, 1, 60, 100
3, 283776, Note_on_c, 1, 53, 91
3, 283964, Note_off_c, 1, 53, 100
3, 283968, Note_on_c, 1, 60, 93
3, 284156, Note_off_c, 1, 60, 100
3, 284160, Note_on_c, 1, 58, 95
3, 284348, Note_off_c, 1, 58, 100
3, 284352, Note_on_c, 1, 60, 97
3, 284540, Note_off_c, 1, 60, 100
3, 284544, Note_on_c, 1, 55, 99
3, 284732, Note_off_c, 1, 55, 100
3, 284736, Note_on_c, 1, 60, 101
3, 284924, Note_off_c, 1, 60, 100
3, 284928, Note_on_c, 1, 56, 103
3, 285116, Note_off_c, 1, 56, 100
3, 285120, Note_on_c, 1, 60, 105
3, 285308, Note_off_c, 1, 60, 100
3, 285312, Note_on_c, 1, 53, 107
3, 285500, Note_off_c, 1, 53, 100
3, 285504, Note_on_c, 1, 60, 109
3, 285692, Note_off_c, 1, 60, 100
3, 285696, Note_on_c, 1, 58, 111
3, 285884, Note_off_c, 1, 58, 100
3, 285888, Note_on_c, 1, 60, 113
3, 286076, Note_off_c, 1, 60, 100
3, 286080, Note_on_c, 1, 55, 115
3, 286268, Note_off_c, 1, 55, 100
3, 286272, Note_on_c, 1, 60, 117
3, 286460, Note_off_c, 1, 60, 100
3, 286464, Note_on_c, 1, 56, 119
3, 286844, Note_off_c, 1, 56, 100
3, 286848, Note_on_c, 1, 56, 120
3, 286848, Note_on_c, 1, 51, 120
3, 286848, Note_on_c, 1, 48, 120
3, 286848, Note_on_c, 1, 44, 120
3, 287228, Note_off_c, 1, 56, 100
3, 287228, Note_off_c, 1, 51, 100
3, 287228, Note_off_c, 1, 48, 100
3, 287228, Note_off_c, 1, 44, 100
3, 287232, Note_on_c, 1, 51, 120
3, 287232, Note_on_c, 1, 48, 120
3, 287232, Note_on_c, 1, 43, 120
3, 287232, Note_on_c, 1, 55, 120
3, 287612, Note_off_c, 1, 51, 100
3, 287612, Note_off_c, 1, 48, 100
3, 287612, Note_off_c, 1, 43, 100
3, 287612, Note_off_c, 1, 55, 100
3, 287616, Note_on_c, 1, 55, 120
3, 287616, Note_on_c, 1, 50, 120
3, 287616, Note_on_c, 1, 47, 120
3, 287616, Note_on_c, 1, 43, 120
3, 287996, Note_off_c, 1, 55, 100
3, 287996, Note_off_c, 1, 50, 100
3, 287996, Note_off_c, 1, 47, 100
3, 287996, Note_off_c, 1, 43, 100
3, 288000, Note_on_c, 1, 36, 120
3, 288188, Note_off_c, 1, 36, 100
3, 288192, Note_on_c, 1, 48, 100
3, 288380, Note_off_c, 1, 48, 100
3, 288384, Note_on_c, 1, 47, 100
3, 288572, Note_off_c, 1, 47, 100
3, 288576, Note_on_c, 1, 48, 100
3, 288764, Note_off_c, 1, 48, 100
3, 288768, Note_on_c, 1, 46, 100
3, 288956, Note_off_c, 1, 46, 100
3, 288960, Note_on_c, 1, 48, 100
3, 289148, Note_off_c, 1, 48, 100
3, 289152, Note_on_c, 1, 43, 100
3, 289340, Note_off_c, 1, 43, 100
3, 289344, Note_on_c, 1, 48, 100
3, 289532, Note_off_c, 1, 48, 100
3, 289536, Note_on_c, 1, 44, 100
3, 289724, Note_off_c, 1, 44, 100
3, 289728, Note_on_c, 1, 48, 100
3, 289916, Note_off_c, 1, 48, 100
3, 289920, Note_on_c, 1, 41, 100
3, 290108, Note_off_c, 1, 41, 100
3, 290112, Note_on_c, 1, 48, 100
3, 290300, Note_off_c, 1, 48, 100
3, 290304, Note_on_c, 1, 46, 100
3, 290492, Note_off_c, 1, 46, 100
3, 290496, Note_on_c, 1, 48, 100
3, 290684, Note_off_c, 1, 48, 100
3, 290688, Note_on_c, 1, 43, 100
3, 290876, Note_off_c, 1, 43, 100
3, 290880, Note_on_c, 1, 48, 100
3, 291068, Note_off_c, 1, 48, 100
3, 291072, Note_on_c, 1, 44, 100
3, 291260, Note_off_c, 1, 44, 100
3, 291264, Note_on_c, 1, 48, 100
3, 291452, Note_off_c, 1, 48, 100
3, 291456, Note_on_c, 1, 41, 100
3, 291644, Note_off_c, 1, 41, 100
3, 291648, Note_on_c, 1, 48, 100
3, 291836, Note_off_c, 1, 48, 100
3, 291840, Note_on_c, 1, 46, 100
3, 292028, Note_off_c, 1, 46, 100
3, 292032, Note_on_c, 1, 48, 100
3, 292220, Note_off_c, 1, 48, 100
3, 292224, Note_on_c, 1, 43, 100
3, 292412, Note_off_c, 1, 43, 100
3, 292416, Note_on_c, 1, 48, 100
3, 292604, Note_off_c, 1, 48, 100
3, 292608, Note_on_c, 1, 44, 80
3, 292988, Note_off_c, 1, 44, 100
3, 292992, Note_on_c, 1, 56, 81
3, 292992, Note_on_c, 1, 44, 81
3, 293372, Note_off_c, 1, 56, 100
3, 293372, Note_off_c, 1, 44, 100
3, 293760, Note_on_c, 1, 56, 83
3, 293760, Note_on_c, 1, 51, 83
3, 293760, Note_on_c, 1, 48, 83
3, 293760, Note_on_c, 1, 44, 83
3, 294140, Note_off_c, 1, 56, 100
3, 294140, Note_off_c, 1, 51, 100
3, 294140, Note_off_c, 1, 48, 100
3, 294140, Note_off_c, 1, 44, 100
3, 294528, Note_on_c, 1, 51, 86
3, 294528, Note_on_c, 1, 48, 86
3, 294528, Note_on_c, 1, 43, 86
3, 294528, Note_on_c, 1, 55, 86
3, 294908, Note_off_c, 1, 51, 100
3, 294908, Note_off_c, 1, 48, 100
3, 294908, Note_off_c, 1, 43, 100
3, 294908, Note_off_c, 1, 55, 100
3, 295296, Note_on_c, 1, 54, 88
3, 295296, Note_on_c, 1, 51, 88
3, 295296, Note_on_c, 1, 48, 88
3, 295296, Note_on_c, 1, 42, 88
3, 295676, Note_off_c, 1, 54, 100
3, 295676, Note_off_c, 1, 51, 100
3, 295676, Note_off_c, 1, 48, 100
3, 295676, Note_off_c, 1, 42, 100
3, 296064, Note_on_c, 1, 53, 91
3, 296064, Note_on_c, 1, 50, 91
3, 296064, Note_on_c, 1, 47, 91
3, 296064, Note_on_c, 1, 41, 91
3, 296444, Note_off_c, 1, 53, 100
3, 296444, Note_off_c, 1, 50, 100
3, 296444, Note_off_c, 1, 47, 100
3, 296444, Note_off_c, 1, 41, 100
3, 296832, Note_on_c, 1, 51, 94
3, 296832, Note_on_c, 1, 48, 94
3, 296832, Note_on_c, 1, 43, 94
3, 296832, Note_on_c, 1, 39, 94
3, 297212, Note_off_c, 1, 51, 100
3, 297212, Note_off_c, 1, 48, 100
3, 297212, Note_off_c, 1, 43, 100
3, 297212, Note_off_c, 1, 39, 100
3, 297600, Note_on_c, 1, 53, 96
3, 297600, Note_on_c, 1, 50, 96
3, 297600, Note_on_c, 1, 41, 96
3, 297600, Note_on_c, 1, 44, 96
3, 297980, Note_off_c, 1, 53, 100
3, 297980, Note_off_c, 1, 50, 100
3, 297980, Note_off_c, 1, 41, 100
3, 297980, Note_off_c, 1, 44, 100
3, 298368, Note_on_c, 1, 55, 99
3, 298368, Note_on_c, 1, 50, 99
3, 298368, Note_on_c, 1, 47, 99
3, 298368, Note_on_c, 1, 43, 99
3, 298748, Note_off_c, 1, 55, 100
3, 298748, Note_off_c, 1, 50, 100
3, 298748, Note_off_c, 1, 47, 100
3, 298748, Note_off_c, 1, 43, 100
3, 298752, Note_on_c, 1, 48, 110
3, 298752, Note_on_c, 1, 36, 110
3, 299132, Note_off_c, 1, 48, 100
3, 299132, Note_off_c, 1, 36, 100
3, 299136, Note_on_c, 1, 60, 110
3, 299136, Note_on_c, 1, 55, 110
3, 299136, Note_on_c, 1, 51, 110
3, 300284, Note_off_c, 1, 60, 100
3, 300284, Note_off_c, 1, 55, 100
3, 300284, Note_off_c, 1, 51, 100
3, 300288, Note_on_c, 1, 62, 110
3, 300288, Note_on_c, 1, 60, 110
3, 300288, Note_on_c, 1, 56, 110
3, 300288, Note_on_c, 1, 53, 110
3, 300668, Note_off_c, 1, 62, 100
3, 300668, Note_off_c, 1, 60, 100
3, 300668, Note_off_c, 1, 56, 100
3, 300668, Note_off_c, 1, 53, 100
3, 300672, Note_on_c, 1, 62, 110
3, 300672, Note_on_c, 1, 59, 110
3, 300672, Note_on_c, 1, 55, 110
3, 301820, Note_off_c, 1, 62, 100
3, 301820, Note_off_c, 1, 59, 100
3, 301820, Note_off_c, 1, 55, 100
3, 301824, Note_on_c, 1, 60, 110
3, 301824, Note_on_c, 1, 51, 110
3, 301824, Note_on_c, 1, 55, 110
3, 302204, Note_off_c, 1, 60, 100
3, 302204, Note_off_c, 1, 51, 100
3, 302204, Note_off_c, 1, 55, 100
3, 302208, Note_on_c, 1, 60, 110
3, 302208, Note_on_c, 1, 55, 110
3, 302208, Note_on_c, 1, 51, 110
3, 303356, Note_off_c, 1, 60, 100
3, 303356, Note_off_c, 1, 55, 100
3, 303356, Note_off_c, 1, 51, 100
3, 303360, Note_on_c, 1, 62, 110
3, 303360, Note_on_c, 1, 60, 110
3, 303360, Note_on_c, 1, 56, 110
3, 303360, Note_on_c, 1, 53, 110
3, 303740, Note_off_c, 1, 62, 100
3, 303740, Note_off_c, 1, 60, 100
3, 303740, Note_off_c, 1, 56, 100
3, 303740, Note_off_c, 1, 53, 100
3, 303744, Note_on_c, 1, 62, 110
3, 303744, Note_on_c, 1, 59, 110
3, 303744, Note_on_c, 1, 55, 110
3, 304892, Note_off_c, 1, 62, 100
3, 304892, Note_off_c, 1, 59, 100
3, 304892, Note_off_c, 1, 55, 100
3, 304896, Note_on_c, 1, 60, 110
3, 304896, Note_on_c, 1, 51, 110
3, 304896, Note_on_c, 1, 55, 110
3, 305276, Note_off_c, 1, 60, 100
3, 305276, Note_off_c, 1, 51, 100
3, 305276, Note_off_c, 1, 55, 100
3, 305280, Note_on_c, 1, 60, 110
3, 305280, Note_on_c, 1, 55, 110
3, 305280, Note_on_c, 1, 51, 110
3, 306428, Note_off_c, 1, 60, 100
3, 306428, Note_off_c, 1, 55, 100
3, 306428, Note_off_c, 1, 51, 100
3, 306432, Note_on_c, 1, 61, 110
3, 306432, Note_on_c, 1, 56, 110
3, 306432, Note_on_c, 1, 53, 110
3, 306812, Note_off_c, 1, 61, 100
3, 306812, Note_off_c, 1, 56, 100
3, 306812, Note_off_c, 1, 53, 100
3, 306816, Note_on_c, 1, 61, 110
3, 306816, Note_on_c, 1, 56, 110
3, 306816, Note_on_c, 1, 53, 110
3, 307580, Note_off_c, 1, 61, 100
3, 307580, Note_off_c, 1, 56, 100
3, 307580, Note_off_c, 1, 53, 100
3, 307584, Note_on_c, 1, 61, 120
3, 307584, Note_on_c, 1, 56, 120
3, 307584, Note_on_c, 1, 53, 120
3, 307964, Note_off_c, 1, 61, 100
3, 307964, Note_off_c, 1, 56, 100
3, 307964, Note_off_c, 1, 53, 100
3, 307968, Note_on_c, 1, 63, 120
3, 307968, Note_on_c, 1, 61, 120
3, 307968, Note_on_c, 1, 58, 120
3, 307968, Note_on_c, 1, 55, 120
3, 310268, Note_off_c, 1, 55, 100
3, 310268, Note_off_c, 1, 58, 100
3, 310268, Note_off_c, 1, 61, 100
3, 310268, Note_off_c, 1, 63, 100
3, 311040, Note_on_c, 1, 43, 120
3, 311040, Note_on_c, 1, 39, 120
3, 311040, Note_on_c, 1, 31, 120
3, 315260, Note_off_c, 1, 31, 100
3, 315260, Note_off_c, 1, 39, 100
3, 315260, Note_off_c, 1, 43, 100
3, 315648, Note_on_c, 1, 44, 80
3, 315648, Note_on_c, 1, 51, 80
3, 316412, Note_off_c, 1, 51, 100
3, 316416, Note_on_c, 1, 49, 80
3, 317180, Note_off_c, 1, 49, 100
3, 317184, Note_off_c, 1, 44, 100
3, 317184, Note_on_c, 1, 48, 80
3, 317564, Note_off_c, 1, 48, 100
3, 318720, Note_on_c, 1, 56, 79
3, 318720, Note_on_c, 1, 63, 79
3, 319484, Note_off_c, 1, 63, 100
3, 319488, Note_on_c, 1, 61, 75
3, 320252, Note_off_c, 1, 61, 100
3, 320256, Note_on_c, 1, 60, 71
3, 320636, Note_off_c, 1, 56, 100
3, 320636, Note_off_c, 1, 60, 100
3, 321792, Note_on_c, 1, 68, 70
3, 322172, Note_off_c, 1, 68, 100
3, 323328, Note_on_c, 1, 67, 60
3, 323708, Note_off_c, 1, 67, 100
3, 324864, Note_on_c, 1, 55, 120
3, 324864, Note_on_c, 1, 50, 120
3, 324864, Note_on_c, 1, 46, 120
3, 324864, Note_on_c, 1, 43, 120
3, 325244, Note_off_c, 1, 55, 100
3, 325244, Note_off_c, 1, 50, 100
3, 325244, Note_off_c, 1, 46, 100
3, 325244, Note_off_c, 1, 43, 100
3, 326400, Note_on_c, 1, 43, 120
3, 326400, Note_on_c, 1, 39, 120
3, 326400, Note_on_c, 1, 36, 120
3, 326400, Note_on_c, 1, 48, 120
3, 326780, Note_off_c, 1, 43, 100
3, 326780, Note_off_c, 1, 39, 100
3, 326780, Note_off_c, 1, 36, 100
3, 326780, Note_off_c, 1, 48, 100
3, 326780, End_track
0, 0, End_of_file
