0, 0, Header, 1, 3, 384
1, 0, Start_track
1, 0, Title_t, "L.v.Beethoven 2mov - Piano Sonata No.8 in C minor Op.13\000"
1, 0, Copyright_t, "Copyright(C) 1995-2009, Suzuki Software\000"
1, 0, Sequencer_specific, 9, 67, 123, 0, 88, 70, 48, 50, 0, 1
1, 0, Text_t, "XFhd:2000/04/16:JP:Classical::::L.v.Beethoven:::Kaoru Suzuki\000"
1, 0, Text_t, "XFln:JP:\203s\203A\203m\203\\\203i\203^\221æ8\224Ô\203n\222Z\222²\215ì\225i13\201`\221æ2\212y\217Í:L.v.\203x\201[\203g\201[\203\224\203F\203\223:::\227é\202¿\202á\202ñ:\227é\202¿\202á\202ñ\000"
1, 0, Time_signature, 2, 2, 96, 8
1, 0, Sequencer_specific, 3, 0, 0, 65
1, 0, Sequencer_specific, 5, 0, 0, 119, 14, 0
1, 0, Tempo, 1500000
1, 11520, Tempo, 1621621
1, 11712, Tempo, 1714285
1, 12096, Tempo, 983606
1, 12288, Tempo, 1500000
1, 16128, Tempo, 1578947
1, 16512, Tempo, 1714285
1, 16704, Tempo, 2000000
1, 17280, Tempo, 1500000
1, 21120, Tempo, 1621621
1, 21312, Tempo, 1714285
1, 21400, Tempo, 2000000
1, 21504, Tempo, 1500000
1, 26880, Tempo, 1578947
1, 27072, Tempo, 1714285
1, 27648, Tempo, 1500000
1, 43392, Tempo, 1621621
1, 43584, Tempo, 1714285
1, 43968, Tempo, 1578947
1, 49536, Tempo, 1621621
1, 49728, Tempo, 1714285
1, 52224, Tempo, 1714285
1, 52608, Tempo, 1714285
1, 52928, Tempo, 2000000
1, 53376, Tempo, 1714285
1, 54528, Tempo, 2000000
1, 55296, Tempo, 2222222
1, 55488, Tempo, 2608695
1, 55488, End_track
2, 0, Start_track
2, 0, Title_t, "Right"
2, 0, Control_c, 0, 0, 0
2, 0, Program_c, 0, 0
2, 0, Control_c, 0, 7, 100
2, 0, Control_c, 0, 10, 74
2, 0, Control_c, 0, 91, 127
2, 0, Key_signature, -4, "major"
2, 0, Note_on_c, 0, 60, 80
2, 0, Note_on_c, 0, 56, 80
2, 92, Note_off_c, 0, 56, 100
2, 96, Note_on_c, 0, 51, 80
2, 188, Note_off_c, 0, 51, 100
2, 192, Note_on_c, 0, 56, 80
2, 284, Note_off_c, 0, 56, 100
2, 288, Note_on_c, 0, 51, 80
2, 380, Note_off_c, 0, 60, 100
2, 380, Note_off_c, 0, 51, 100
2, 384, Note_on_c, 0, 58, 80
2, 384, Note_on_c, 0, 55, 80
2, 476, Note_off_c, 0, 55, 100
2, 480, Note_on_c, 0, 51, 80
2, 572, Note_off_c, 0, 51, 100
2, 576, Note_on_c, 0, 55, 80
2, 668, Note_off_c, 0, 55, 100
2, 672, Note_on_c, 0, 51, 80
2, 764, Note_off_c, 0, 58, 100
2, 764, Note_off_c, 0, 51, 100
2, 768, Note_on_c, 0, 63, 80
2, 768, Note_on_c, 0, 56, 80
2, 860, Note_off_c, 0, 56, 100
2, 864, Note_on_c, 0, 51, 80
2, 956, Note_off_c, 0, 51, 100
2, 960, Note_on_c, 0, 56, 80
2, 1052, Note_off_c, 0, 56, 100
2, 1056, Note_on_c, 0, 51, 80
2, 1148, Note_off_c, 0, 51, 100
2, 1152, Note_on_c, 0, 58, 80
2, 1244, Note_off_c, 0, 58, 100
2, 1248, Note_on_c, 0, 51, 80
2, 1340, Note_off_c, 0, 63, 100
2, 1340, Note_off_c, 0, 51, 100
2, 1344, Note_on_c, 0, 61, 80
2, 1344, Note_on_c, 0, 58, 80
2, 1436, Note_off_c, 0, 58, 100
2, 1440, Note_on_c, 0, 51, 80
2, 1532, Note_off_c, 0, 61, 100
2, 1532, Note_off_c, 0, 51, 100
2, 1536, Note_on_c, 0, 60, 80
2, 1536, Note_on_c, 0, 56, 80
2, 1628, Note_off_c, 0, 56, 100
2, 1632, Note_on_c, 0, 51, 80
2, 1724, Note_off_c, 0, 60, 100
2, 1724, Note_off_c, 0, 51, 100
2, 1728, Note_on_c, 0, 63, 80
2, 1728, Note_on_c, 0, 58, 80
2, 1820, Note_off_c, 0, 58, 100
2, 1824, Note_on_c, 0, 51, 80
2, 1916, Note_off_c, 0, 63, 100
2, 1916, Note_off_c, 0, 51, 100
2, 1920, Note_on_c, 0, 68, 80
2, 1920, Note_on_c, 0, 60, 80
2, 2012, Note_off_c, 0, 60, 100
2, 2016, Note_on_c, 0, 51, 80
2, 2108, Note_off_c, 0, 68, 100
2, 2108, Note_off_c, 0, 51, 100
2, 2112, Note_on_c, 0, 70, 80
2, 2112, Note_on_c, 0, 62, 80
2, 2204, Note_off_c, 0, 62, 100
2, 2208, Note_on_c, 0, 51, 80
2, 2300, Note_off_c, 0, 70, 100
2, 2300, Note_off_c, 0, 51, 100
2, 2304, Note_on_c, 0, 63, 80
2, 2304, Note_on_c, 0, 55, 80
2, 2396, Note_off_c, 0, 55, 100
2, 2400, Note_on_c, 0, 58, 80
2, 2492, Note_off_c, 0, 58, 100
2, 2496, Note_on_c, 0, 55, 80
2, 2588, Note_off_c, 0, 55, 100
2, 2592, Note_on_c, 0, 58, 80
2, 2684, Note_off_c, 0, 58, 100
2, 2688, Note_on_c, 0, 55, 80
2, 2780, Note_off_c, 0, 55, 100
2, 2784, Note_on_c, 0, 58, 80
2, 2876, Note_off_c, 0, 63, 100
2, 2876, Note_off_c, 0, 58, 100
2, 2880, Note_on_c, 0, 64, 80
2, 2880, Note_on_c, 0, 55, 80
2, 2972, Note_off_c, 0, 55, 100
2, 2976, Note_on_c, 0, 58, 80
2, 3068, Note_off_c, 0, 64, 100
2, 3068, Note_off_c, 0, 58, 100
2, 3072, Note_on_c, 0, 65, 80
2, 3072, Note_on_c, 0, 55, 80
2, 3164, Note_off_c, 0, 55, 100
2, 3168, Note_on_c, 0, 58, 80
2, 3260, Note_off_c, 0, 58, 100
2, 3264, Note_on_c, 0, 55, 80
2, 3356, Note_off_c, 0, 55, 100
2, 3360, Note_on_c, 0, 58, 80
2, 3452, Note_off_c, 0, 65, 100
2, 3452, Note_off_c, 0, 58, 100
2, 3456, Note_on_c, 0, 58, 80
2, 3456, Note_on_c, 0, 55, 80
2, 3548, Note_off_c, 0, 55, 100
2, 3552, Note_on_c, 0, 51, 80
2, 3644, Note_off_c, 0, 51, 100
2, 3648, Note_on_c, 0, 55, 80
2, 3740, Note_off_c, 0, 58, 100
2, 3740, Note_off_c, 0, 55, 100
2, 3744, Note_on_c, 0, 60, 80
2, 3744, Note_on_c, 0, 51, 80
2, 3788, Note_off_c, 0, 60, 100
2, 3792, Note_on_c, 0, 61, 80
2, 3836, Note_off_c, 0, 51, 100
2, 3836, Note_off_c, 0, 61, 100
2, 3840, Note_on_c, 0, 63, 80
2, 3840, Note_on_c, 0, 56, 80
2, 3932, Note_off_c, 0, 56, 100
2, 3936, Note_on_c, 0, 51, 80
2, 4028, Note_off_c, 0, 51, 100
2, 4032, Note_on_c, 0, 56, 80
2, 4124, Note_off_c, 0, 56, 100
2, 4128, Note_on_c, 0, 51, 80
2, 4220, Note_off_c, 0, 63, 100
2, 4220, Note_off_c, 0, 51, 100
2, 4224, Note_on_c, 0, 57, 80
2, 4224, Note_on_c, 0, 51, 80
2, 4316, Note_off_c, 0, 51, 100
2, 4320, Note_on_c, 0, 48, 80
2, 4412, Note_off_c, 0, 48, 100
2, 4416, Note_on_c, 0, 51, 80
2, 4508, Note_off_c, 0, 51, 100
2, 4512, Note_on_c, 0, 48, 80
2, 4604, Note_off_c, 0, 57, 100
2, 4604, Note_off_c, 0, 48, 100
2, 4608, Note_on_c, 0, 61, 80
2, 4608, Note_on_c, 0, 53, 80
2, 4700, Note_off_c, 0, 53, 100
2, 4704, Note_on_c, 0, 49, 80
2, 4796, Note_off_c, 0, 49, 100
2, 4800, Note_on_c, 0, 53, 80
2, 4892, Note_off_c, 0, 53, 100
2, 4896, Note_on_c, 0, 49, 80
2, 4988, Note_off_c, 0, 61, 100
2, 4988, Note_off_c, 0, 49, 100
2, 4992, Note_on_c, 0, 60, 80
2, 4992, Note_on_c, 0, 49, 80
2, 5084, Note_off_c, 0, 60, 100
2, 5084, Note_off_c, 0, 49, 100
2, 5088, Note_on_c, 0, 58, 80
2, 5088, Note_on_c, 0, 49, 80
2, 5180, Note_off_c, 0, 58, 100
2, 5180, Note_off_c, 0, 49, 100
2, 5184, Note_on_c, 0, 56, 80
2, 5184, Note_on_c, 0, 49, 80
2, 5276, Note_off_c, 0, 56, 100
2, 5276, Note_off_c, 0, 49, 100
2, 5280, Note_on_c, 0, 55, 80
2, 5280, Note_on_c, 0, 49, 80
2, 5372, Note_off_c, 0, 55, 100
2, 5372, Note_off_c, 0, 49, 100
2, 5376, Note_on_c, 0, 58, 80
2, 5376, Note_on_c, 0, 55, 80
2, 5376, Note_on_c, 0, 49, 80
2, 5468, Note_off_c, 0, 49, 100
2, 5472, Note_on_c, 0, 51, 80
2, 5564, Note_off_c, 0, 51, 100
2, 5568, Note_on_c, 0, 49, 80
2, 5660, Note_off_c, 0, 49, 100
2, 5664, Note_on_c, 0, 51, 80
2, 5756, Note_off_c, 0, 58, 100
2, 5756, Note_off_c, 0, 55, 100
2, 5756, Note_off_c, 0, 51, 100
2, 5760, Note_on_c, 0, 56, 80
2, 5760, Note_on_c, 0, 48, 80
2, 5820, Note_off_c, 0, 56, 100
2, 5820, Note_off_c, 0, 48, 100
2, 5824, Note_on_c, 0, 51, 80
2, 5884, Note_off_c, 0, 51, 100
2, 5888, Note_on_c, 0, 56, 80
2, 5948, Note_off_c, 0, 56, 100
2, 5952, Note_on_c, 0, 60, 80
2, 6012, Note_off_c, 0, 60, 100
2, 6016, Note_on_c, 0, 63, 80
2, 6076, Note_off_c, 0, 63, 100
2, 6080, Note_on_c, 0, 68, 80
2, 6140, Note_off_c, 0, 68, 100
2, 6144, Note_on_c, 0, 72, 92
2, 6144, Note_on_c, 0, 60, 80
2, 6236, Note_off_c, 0, 60, 100
2, 6240, Note_on_c, 0, 63, 80
2, 6332, Note_off_c, 0, 63, 100
2, 6336, Note_on_c, 0, 60, 80
2, 6428, Note_off_c, 0, 60, 100
2, 6432, Note_on_c, 0, 63, 80
2, 6524, Note_off_c, 0, 72, 100
2, 6524, Note_off_c, 0, 63, 100
2, 6528, Note_on_c, 0, 70, 92
2, 6528, Note_on_c, 0, 58, 80
2, 6620, Note_off_c, 0, 58, 100
2, 6624, Note_on_c, 0, 63, 80
2, 6716, Note_off_c, 0, 63, 100
2, 6720, Note_on_c, 0, 58, 80
2, 6812, Note_off_c, 0, 58, 100
2, 6816, Note_on_c, 0, 63, 80
2, 6908, Note_off_c, 0, 70, 100
2, 6908, Note_off_c, 0, 63, 100
2, 6912, Note_on_c, 0, 75, 95
2, 6912, Note_on_c, 0, 63, 80
2, 7004, Note_off_c, 0, 63, 100
2, 7008, Note_on_c, 0, 68, 80
2, 7100, Note_off_c, 0, 68, 100
2, 7104, Note_on_c, 0, 63, 80
2, 7196, Note_off_c, 0, 63, 100
2, 7200, Note_on_c, 0, 68, 80
2, 7292, Note_off_c, 0, 68, 100
2, 7296, Note_on_c, 0, 63, 80
2, 7388, Note_off_c, 0, 63, 100
2, 7392, Note_on_c, 0, 70, 80
2, 7484, Note_off_c, 0, 75, 100
2, 7484, Note_off_c, 0, 70, 100
2, 7488, Note_on_c, 0, 73, 90
2, 7488, Note_on_c, 0, 63, 80
2, 7580, Note_off_c, 0, 63, 100
2, 7584, Note_on_c, 0, 70, 80
2, 7676, Note_off_c, 0, 73, 100
2, 7676, Note_off_c, 0, 70, 100
2, 7680, Note_on_c, 0, 72, 90
2, 7680, Note_on_c, 0, 63, 80
2, 7772, Note_off_c, 0, 63, 100
2, 7776, Note_on_c, 0, 68, 80
2, 7868, Note_off_c, 0, 72, 100
2, 7868, Note_off_c, 0, 68, 100
2, 7872, Note_on_c, 0, 75, 92
2, 7872, Note_on_c, 0, 63, 80
2, 7964, Note_off_c, 0, 63, 100
2, 7968, Note_on_c, 0, 70, 80
2, 8060, Note_off_c, 0, 75, 100
2, 8060, Note_off_c, 0, 70, 100
2, 8064, Note_on_c, 0, 80, 92
2, 8064, Note_on_c, 0, 68, 80
2, 8156, Note_off_c, 0, 68, 100
2, 8160, Note_on_c, 0, 72, 80
2, 8252, Note_off_c, 0, 80, 100
2, 8252, Note_off_c, 0, 72, 100
2, 8256, Note_on_c, 0, 82, 94
2, 8256, Note_on_c, 0, 68, 80
2, 8348, Note_off_c, 0, 68, 100
2, 8352, Note_on_c, 0, 74, 80
2, 8444, Note_off_c, 0, 82, 100
2, 8444, Note_off_c, 0, 74, 100
2, 8448, Note_on_c, 0, 75, 94
2, 8448, Note_on_c, 0, 67, 80
2, 8540, Note_off_c, 0, 67, 100
2, 8544, Note_on_c, 0, 70, 80
2, 8636, Note_off_c, 0, 70, 100
2, 8640, Note_on_c, 0, 67, 80
2, 8732, Note_off_c, 0, 67, 100
2, 8736, Note_on_c, 0, 70, 80
2, 8828, Note_off_c, 0, 70, 100
2, 8832, Note_on_c, 0, 67, 80
2, 8924, Note_off_c, 0, 67, 100
2, 8928, Note_on_c, 0, 70, 81
2, 9020, Note_off_c, 0, 75, 100
2, 9020, Note_off_c, 0, 70, 100
2, 9024, Note_on_c, 0, 76, 90
2, 9024, Note_on_c, 0, 67, 80
2, 9116, Note_off_c, 0, 67, 100
2, 9120, Note_on_c, 0, 70, 80
2, 9212, Note_off_c, 0, 76, 100
2, 9212, Note_off_c, 0, 70, 100
2, 9216, Note_on_c, 0, 77, 90
2, 9216, Note_on_c, 0, 67, 80
2, 9308, Note_off_c, 0, 67, 100
2, 9312, Note_on_c, 0, 70, 80
2, 9404, Note_off_c, 0, 70, 100
2, 9408, Note_on_c, 0, 67, 80
2, 9500, Note_off_c, 0, 67, 100
2, 9504, Note_on_c, 0, 70, 80
2, 9596, Note_off_c, 0, 77, 100
2, 9596, Note_off_c, 0, 70, 100
2, 9600, Note_on_c, 0, 70, 93
2, 9600, Note_on_c, 0, 67, 80
2, 9692, Note_off_c, 0, 67, 100
2, 9696, Note_on_c, 0, 63, 80
2, 9788, Note_off_c, 0, 63, 100
2, 9792, Note_on_c, 0, 67, 80
2, 9884, Note_off_c, 0, 70, 100
2, 9884, Note_off_c, 0, 67, 100
2, 9888, Note_on_c, 0, 72, 93
2, 9888, Note_on_c, 0, 63, 80
2, 9932, Note_off_c, 0, 72, 100
2, 9936, Note_on_c, 0, 73, 91
2, 9980, Note_off_c, 0, 63, 100
2, 9980, Note_off_c, 0, 73, 100
2, 9984, Note_on_c, 0, 75, 93
2, 9984, Note_on_c, 0, 68, 80
2, 10076, Note_off_c, 0, 68, 100
2, 10080, Note_on_c, 0, 63, 80
2, 10172, Note_off_c, 0, 63, 100
2, 10176, Note_on_c, 0, 68, 80
2, 10268, Note_off_c, 0, 68, 100
2, 10272, Note_on_c, 0, 63, 80
2, 10364, Note_off_c, 0, 75, 100
2, 10364, Note_off_c, 0, 63, 100
2, 10368, Note_on_c, 0, 69, 91
2, 10368, Note_on_c, 0, 63, 80
2, 10460, Note_off_c, 0, 63, 100
2, 10464, Note_on_c, 0, 60, 80
2, 10556, Note_off_c, 0, 60, 100
2, 10560, Note_on_c, 0, 63, 80
2, 10652, Note_off_c, 0, 63, 100
2, 10656, Note_on_c, 0, 60, 80
2, 10748, Note_off_c, 0, 69, 100
2, 10748, Note_off_c, 0, 60, 100
2, 10752, Note_on_c, 0, 73, 92
2, 10752, Note_on_c, 0, 65, 80
2, 10844, Note_off_c, 0, 65, 100
2, 10848, Note_on_c, 0, 61, 80
2, 10940, Note_off_c, 0, 61, 100
2, 10944, Note_on_c, 0, 65, 80
2, 11036, Note_off_c, 0, 65, 100
2, 11040, Note_on_c, 0, 61, 80
2, 11132, Note_off_c, 0, 73, 100
2, 11132, Note_off_c, 0, 61, 100
2, 11136, Note_on_c, 0, 72, 90
2, 11136, Note_on_c, 0, 61, 80
2, 11228, Note_off_c, 0, 72, 100
2, 11228, Note_off_c, 0, 61, 100
2, 11232, Note_on_c, 0, 70, 90
2, 11232, Note_on_c, 0, 61, 80
2, 11324, Note_off_c, 0, 70, 100
2, 11324, Note_off_c, 0, 61, 100
2, 11328, Note_on_c, 0, 68, 90
2, 11328, Note_on_c, 0, 61, 80
2, 11420, Note_off_c, 0, 68, 100
2, 11420, Note_off_c, 0, 61, 100
2, 11424, Note_on_c, 0, 67, 90
2, 11424, Note_on_c, 0, 61, 80
2, 11516, Note_off_c, 0, 67, 100
2, 11516, Note_off_c, 0, 61, 100
2, 11520, Note_on_c, 0, 70, 91
2, 11520, Note_on_c, 0, 61, 80
2, 11612, Note_off_c, 0, 61, 100
2, 11616, Note_on_c, 0, 63, 80
2, 11708, Note_off_c, 0, 63, 100
2, 11712, Note_on_c, 0, 61, 80
2, 11804, Note_off_c, 0, 61, 100
2, 11808, Note_on_c, 0, 63, 80
2, 11900, Note_off_c, 0, 70, 100
2, 11900, Note_off_c, 0, 63, 100
2, 11904, Note_on_c, 0, 68, 91
2, 11904, Note_on_c, 0, 60, 80
2, 12092, Note_off_c, 0, 68, 100
2, 12092, Note_off_c, 0, 60, 100
2, 12192, Note_on_c, 0, 60, 90
2, 12284, Note_off_c, 0, 60, 100
2, 12288, Note_on_c, 0, 72, 90
2, 12764, Note_off_c, 0, 72, 100
2, 12768, Note_on_c, 0, 80, 90
2, 12860, Note_off_c, 0, 80, 100
2, 12864, Note_on_c, 0, 79, 90
2, 12956, Note_off_c, 0, 79, 100
2, 12960, Note_on_c, 0, 77, 90
2, 13052, Note_off_c, 0, 77, 100
2, 13056, Note_on_c, 0, 84, 90
2, 13532, Note_off_c, 0, 84, 100
2, 13536, Note_on_c, 0, 80, 90
2, 13628, Note_off_c, 0, 80, 100
2, 13632, Note_on_c, 0, 79, 90
2, 13724, Note_off_c, 0, 79, 100
2, 13728, Note_on_c, 0, 77, 90
2, 13820, Note_off_c, 0, 77, 100
2, 13824, Note_on_c, 0, 72, 90
2, 14300, Note_off_c, 0, 72, 100
2, 14304, Note_on_c, 0, 80, 90
2, 14396, Note_off_c, 0, 80, 100
2, 14400, Note_on_c, 0, 79, 90
2, 14492, Note_off_c, 0, 79, 100
2, 14496, Note_on_c, 0, 77, 90
2, 14588, Note_off_c, 0, 77, 100
2, 14592, Note_on_c, 0, 75, 90
2, 14780, Note_off_c, 0, 75, 100
2, 14784, Note_on_c, 0, 74, 90
2, 15068, Note_off_c, 0, 74, 100
2, 15072, Note_on_c, 0, 75, 90
2, 15096, Note_on_c, 0, 74, 90
2, 15116, Note_off_c, 0, 75, 100
2, 15120, Note_on_c, 0, 72, 90
2, 15140, Note_off_c, 0, 74, 100
2, 15144, Note_on_c, 0, 74, 90
2, 15164, Note_off_c, 0, 72, 100
2, 15164, Note_off_c, 0, 74, 100
2, 15168, Note_on_c, 0, 77, 90
2, 15308, Note_off_c, 0, 77, 100
2, 15312, Note_on_c, 0, 75, 90
2, 15356, Note_off_c, 0, 75, 100
2, 15360, Note_on_c, 0, 75, 90
2, 15740, Note_off_c, 0, 75, 100
2, 15744, Note_on_c, 0, 65, 90
2, 15932, Note_off_c, 0, 65, 100
2, 15936, Note_on_c, 0, 67, 90
2, 15960, Note_on_c, 0, 65, 90
2, 15980, Note_off_c, 0, 67, 100
2, 15984, Note_on_c, 0, 64, 90
2, 16004, Note_off_c, 0, 65, 100
2, 16008, Note_on_c, 0, 65, 90
2, 16028, Note_off_c, 0, 64, 100
2, 16028, Note_off_c, 0, 65, 100
2, 16032, Note_on_c, 0, 68, 90
2, 16076, Note_off_c, 0, 68, 100
2, 16080, Note_on_c, 0, 72, 90
2, 16124, Note_off_c, 0, 72, 100
2, 16128, Note_on_c, 0, 71, 90
2, 16144, Note_on_c, 0, 72, 90
2, 16156, Note_off_c, 0, 71, 100
2, 16160, Note_on_c, 0, 74, 90
2, 16172, Note_off_c, 0, 72, 100
2, 16176, Note_on_c, 0, 72, 90
2, 16188, Note_off_c, 0, 74, 100
2, 16200, Note_on_c, 0, 70, 90
2, 16220, Note_off_c, 0, 72, 100
2, 16220, Note_off_c, 0, 70, 100
2, 16224, Note_on_c, 0, 79, 90
2, 16412, Note_off_c, 0, 79, 100
2, 16416, Note_on_c, 0, 77, 90
2, 16460, Note_off_c, 0, 77, 100
2, 16464, Note_on_c, 0, 75, 90
2, 16508, Note_off_c, 0, 75, 100
2, 16512, Note_on_c, 0, 74, 90
2, 16556, Note_off_c, 0, 74, 100
2, 16560, Note_on_c, 0, 72, 90
2, 16604, Note_off_c, 0, 72, 100
2, 16608, Note_on_c, 0, 70, 90
2, 16652, Note_off_c, 0, 70, 100
2, 16656, Note_on_c, 0, 69, 90
2, 16700, Note_off_c, 0, 69, 100
2, 16704, Note_on_c, 0, 72, 90
2, 16748, Note_off_c, 0, 72, 100
2, 16752, Note_on_c, 0, 70, 90
2, 16796, Note_off_c, 0, 70, 100
2, 16800, Note_on_c, 0, 68, 90
2, 16844, Note_off_c, 0, 68, 100
2, 16848, Note_on_c, 0, 65, 90
2, 16892, Note_off_c, 0, 65, 100
2, 16896, Note_on_c, 0, 63, 80
2, 17084, Note_off_c, 0, 63, 100
2, 17184, Note_on_c, 0, 58, 80
2, 17276, Note_off_c, 0, 58, 100
2, 17280, Note_on_c, 0, 55, 80
2, 17372, Note_off_c, 0, 55, 100
2, 17376, Note_on_c, 0, 58, 80
2, 17468, Note_off_c, 0, 58, 100
2, 17472, Note_on_c, 0, 55, 80
2, 17564, Note_off_c, 0, 55, 100
2, 17568, Note_on_c, 0, 51, 80
2, 17660, Note_off_c, 0, 51, 100
2, 17664, Note_on_c, 0, 56, 80
2, 17664, Note_on_c, 0, 53, 80
2, 17664, Note_on_c, 0, 51, 90
2, 17756, Note_off_c, 0, 51, 100
2, 17760, Note_on_c, 0, 50, 91
2, 17852, Note_off_c, 0, 56, 100
2, 17852, Note_off_c, 0, 53, 100
2, 17852, Note_off_c, 0, 50, 100
2, 17856, Note_on_c, 0, 56, 80
2, 17856, Note_on_c, 0, 53, 80
2, 17856, Note_on_c, 0, 50, 92
2, 17948, Note_off_c, 0, 50, 100
2, 17952, Note_on_c, 0, 48, 92
2, 18044, Note_off_c, 0, 56, 100
2, 18044, Note_off_c, 0, 53, 100
2, 18044, Note_off_c, 0, 48, 100
2, 18048, Note_on_c, 0, 56, 80
2, 18048, Note_on_c, 0, 53, 80
2, 18048, Note_on_c, 0, 48, 93
2, 18140, Note_off_c, 0, 48, 100
2, 18144, Note_on_c, 0, 47, 92
2, 18236, Note_off_c, 0, 56, 100
2, 18236, Note_off_c, 0, 53, 100
2, 18236, Note_off_c, 0, 47, 100
2, 18240, Note_on_c, 0, 56, 80
2, 18240, Note_on_c, 0, 53, 80
2, 18240, Note_on_c, 0, 47, 94
2, 18332, Note_off_c, 0, 47, 100
2, 18336, Note_on_c, 0, 46, 95
2, 18428, Note_off_c, 0, 56, 100
2, 18428, Note_off_c, 0, 53, 100
2, 18428, Note_off_c, 0, 46, 100
2, 18432, Note_on_c, 0, 55, 80
2, 18432, Note_on_c, 0, 51, 80
2, 18432, Note_on_c, 0, 46, 80
2, 18620, Note_off_c, 0, 55, 100
2, 18620, Note_off_c, 0, 51, 100
2, 18620, Note_off_c, 0, 46, 100
2, 19008, Note_on_c, 0, 58, 80
2, 19148, Note_off_c, 0, 58, 100
2, 19152, Note_on_c, 0, 63, 80
2, 19196, Note_off_c, 0, 63, 100
2, 19200, Note_on_c, 0, 56, 80
2, 19200, Note_on_c, 0, 53, 80
2, 19200, Note_on_c, 0, 63, 80
2, 19292, Note_off_c, 0, 63, 100
2, 19296, Note_on_c, 0, 62, 80
2, 19388, Note_off_c, 0, 62, 100
2, 19392, Note_on_c, 0, 62, 80
2, 19484, Note_off_c, 0, 62, 100
2, 19488, Note_on_c, 0, 60, 80
2, 19580, Note_off_c, 0, 56, 100
2, 19580, Note_off_c, 0, 53, 100
2, 19580, Note_off_c, 0, 60, 100
2, 19584, Note_on_c, 0, 56, 80
2, 19584, Note_on_c, 0, 53, 80
2, 19584, Note_on_c, 0, 60, 80
2, 19676, Note_off_c, 0, 60, 100
2, 19680, Note_on_c, 0, 59, 80
2, 19772, Note_off_c, 0, 59, 100
2, 19776, Note_on_c, 0, 59, 80
2, 19868, Note_off_c, 0, 59, 100
2, 19872, Note_on_c, 0, 58, 80
2, 19964, Note_off_c, 0, 56, 100
2, 19964, Note_off_c, 0, 53, 100
2, 19964, Note_off_c, 0, 58, 100
2, 19968, Note_on_c, 0, 58, 80
2, 19968, Note_on_c, 0, 55, 80
2, 19968, Note_on_c, 0, 53, 80
2, 20060, Note_off_c, 0, 53, 100
2, 20064, Note_on_c, 0, 52, 81
2, 20156, Note_off_c, 0, 52, 100
2, 20160, Note_on_c, 0, 52, 82
2, 20252, Note_off_c, 0, 52, 100
2, 20256, Note_on_c, 0, 51, 84
2, 20348, Note_off_c, 0, 51, 100
2, 20352, Note_on_c, 0, 51, 85
2, 20444, Note_off_c, 0, 51, 100
2, 20448, Note_on_c, 0, 50, 87
2, 20540, Note_off_c, 0, 50, 100
2, 20544, Note_on_c, 0, 50, 88
2, 20636, Note_off_c, 0, 50, 100
2, 20640, Note_on_c, 0, 51, 89
2, 20732, Note_off_c, 0, 51, 100
2, 20736, Note_on_c, 0, 51, 90
2, 20828, Note_off_c, 0, 51, 100
2, 20832, Note_on_c, 0, 52, 88
2, 20924, Note_off_c, 0, 52, 100
2, 20928, Note_on_c, 0, 52, 85
2, 21020, Note_off_c, 0, 52, 100
2, 21024, Note_on_c, 0, 51, 82
2, 21116, Note_off_c, 0, 51, 100
2, 21120, Note_on_c, 0, 51, 79
2, 21212, Note_off_c, 0, 51, 100
2, 21216, Note_on_c, 0, 50, 76
2, 21308, Note_off_c, 0, 50, 100
2, 21312, Note_on_c, 0, 50, 73
2, 21404, Note_off_c, 0, 50, 100
2, 21408, Note_on_c, 0, 49, 71
2, 21500, Note_off_c, 0, 55, 100
2, 21500, Note_off_c, 0, 58, 100
2, 21500, Note_off_c, 0, 49, 100
2, 21504, Note_on_c, 0, 60, 80
2, 21504, Note_on_c, 0, 56, 80
2, 21504, Note_on_c, 0, 48, 80
2, 21596, Note_off_c, 0, 56, 100
2, 21596, Note_off_c, 0, 48, 100
2, 21600, Note_on_c, 0, 51, 80
2, 21692, Note_off_c, 0, 51, 100
2, 21696, Note_on_c, 0, 56, 80
2, 21788, Note_off_c, 0, 56, 100
2, 21792, Note_on_c, 0, 51, 80
2, 21884, Note_off_c, 0, 60, 100
2, 21884, Note_off_c, 0, 51, 100
2, 21888, Note_on_c, 0, 58, 80
2, 21888, Note_on_c, 0, 55, 80
2, 21980, Note_off_c, 0, 55, 100
2, 21984, Note_on_c, 0, 51, 80
2, 22076, Note_off_c, 0, 51, 100
2, 22080, Note_on_c, 0, 55, 80
2, 22172, Note_off_c, 0, 55, 100
2, 22176, Note_on_c, 0, 51, 80
2, 22268, Note_off_c, 0, 58, 100
2, 22268, Note_off_c, 0, 51, 100
2, 22272, Note_on_c, 0, 63, 80
2, 22272, Note_on_c, 0, 56, 80
2, 22364, Note_off_c, 0, 56, 100
2, 22368, Note_on_c, 0, 51, 80
2, 22460, Note_off_c, 0, 51, 100
2, 22464, Note_on_c, 0, 56, 80
2, 22556, Note_off_c, 0, 56, 100
2, 22560, Note_on_c, 0, 51, 80
2, 22652, Note_off_c, 0, 51, 100
2, 22656, Note_on_c, 0, 58, 80
2, 22748, Note_off_c, 0, 58, 100
2, 22752, Note_on_c, 0, 51, 80
2, 22844, Note_off_c, 0, 63, 100
2, 22844, Note_off_c, 0, 51, 100
2, 22848, Note_on_c, 0, 61, 80
2, 22848, Note_on_c, 0, 58, 80
2, 22940, Note_off_c, 0, 58, 100
2, 22944, Note_on_c, 0, 51, 80
2, 23036, Note_off_c, 0, 61, 100
2, 23036, Note_off_c, 0, 51, 100
2, 23040, Note_on_c, 0, 60, 80
2, 23040, Note_on_c, 0, 56, 80
2, 23132, Note_off_c, 0, 56, 100
2, 23136, Note_on_c, 0, 51, 80
2, 23228, Note_off_c, 0, 60, 100
2, 23228, Note_off_c, 0, 51, 100
2, 23232, Note_on_c, 0, 63, 80
2, 23232, Note_on_c, 0, 58, 80
2, 23324, Note_off_c, 0, 58, 100
2, 23328, Note_on_c, 0, 51, 80
2, 23420, Note_off_c, 0, 63, 100
2, 23420, Note_off_c, 0, 51, 100
2, 23424, Note_on_c, 0, 68, 80
2, 23424, Note_on_c, 0, 60, 80
2, 23516, Note_off_c, 0, 60, 100
2, 23520, Note_on_c, 0, 51, 80
2, 23612, Note_off_c, 0, 68, 100
2, 23612, Note_off_c, 0, 51, 100
2, 23616, Note_on_c, 0, 70, 80
2, 23616, Note_on_c, 0, 62, 80
2, 23708, Note_off_c, 0, 62, 100
2, 23712, Note_on_c, 0, 51, 80
2, 23804, Note_off_c, 0, 70, 100
2, 23804, Note_off_c, 0, 51, 100
2, 23808, Note_on_c, 0, 63, 80
2, 23808, Note_on_c, 0, 55, 80
2, 23900, Note_off_c, 0, 55, 100
2, 23904, Note_on_c, 0, 58, 80
2, 23996, Note_off_c, 0, 58, 100
2, 24000, Note_on_c, 0, 55, 80
2, 24092, Note_off_c, 0, 55, 100
2, 24096, Note_on_c, 0, 58, 80
2, 24188, Note_off_c, 0, 58, 100
2, 24192, Note_on_c, 0, 55, 80
2, 24284, Note_off_c, 0, 55, 100
2, 24288, Note_on_c, 0, 58, 80
2, 24380, Note_off_c, 0, 63, 100
2, 24380, Note_off_c, 0, 58, 100
2, 24384, Note_on_c, 0, 64, 80
2, 24384, Note_on_c, 0, 55, 80
2, 24476, Note_off_c, 0, 55, 100
2, 24480, Note_on_c, 0, 58, 80
2, 24572, Note_off_c, 0, 64, 100
2, 24572, Note_off_c, 0, 58, 100
2, 24576, Note_on_c, 0, 65, 80
2, 24576, Note_on_c, 0, 55, 80
2, 24668, Note_off_c, 0, 55, 100
2, 24672, Note_on_c, 0, 58, 80
2, 24764, Note_off_c, 0, 58, 100
2, 24768, Note_on_c, 0, 55, 80
2, 24860, Note_off_c, 0, 55, 100
2, 24864, Note_on_c, 0, 58, 80
2, 24956, Note_off_c, 0, 65, 100
2, 24956, Note_off_c, 0, 58, 100
2, 24960, Note_on_c, 0, 58, 80
2, 24960, Note_on_c, 0, 55, 80
2, 25052, Note_off_c, 0, 55, 100
2, 25056, Note_on_c, 0, 51, 80
2, 25148, Note_off_c, 0, 51, 100
2, 25152, Note_on_c, 0, 55, 80
2, 25244, Note_off_c, 0, 58, 100
2, 25244, Note_off_c, 0, 55, 100
2, 25248, Note_on_c, 0, 60, 80
2, 25248, Note_on_c, 0, 51, 80
2, 25292, Note_off_c, 0, 60, 100
2, 25296, Note_on_c, 0, 61, 80
2, 25340, Note_off_c, 0, 51, 100
2, 25340, Note_off_c, 0, 61, 100
2, 25344, Note_on_c, 0, 63, 80
2, 25344, Note_on_c, 0, 56, 80
2, 25436, Note_off_c, 0, 56, 100
2, 25440, Note_on_c, 0, 51, 80
2, 25532, Note_off_c, 0, 51, 100
2, 25536, Note_on_c, 0, 56, 80
2, 25628, Note_off_c, 0, 56, 100
2, 25632, Note_on_c, 0, 51, 80
2, 25724, Note_off_c, 0, 63, 100
2, 25724, Note_off_c, 0, 51, 100
2, 25728, Note_on_c, 0, 57, 80
2, 25728, Note_on_c, 0, 51, 80
2, 25820, Note_off_c, 0, 51, 100
2, 25824, Note_on_c, 0, 48, 80
2, 25916, Note_off_c, 0, 48, 100
2, 25920, Note_on_c, 0, 51, 80
2, 26012, Note_off_c, 0, 51, 100
2, 26016, Note_on_c, 0, 48, 80
2, 26108, Note_off_c, 0, 57, 100
2, 26108, Note_off_c, 0, 48, 100
2, 26112, Note_on_c, 0, 61, 80
2, 26112, Note_on_c, 0, 53, 80
2, 26204, Note_off_c, 0, 53, 100
2, 26208, Note_on_c, 0, 49, 80
2, 26300, Note_off_c, 0, 49, 100
2, 26304, Note_on_c, 0, 53, 80
2, 26396, Note_off_c, 0, 53, 100
2, 26400, Note_on_c, 0, 49, 80
2, 26492, Note_off_c, 0, 61, 100
2, 26492, Note_off_c, 0, 49, 100
2, 26496, Note_on_c, 0, 60, 80
2, 26496, Note_on_c, 0, 49, 80
2, 26588, Note_off_c, 0, 60, 100
2, 26588, Note_off_c, 0, 49, 100
2, 26592, Note_on_c, 0, 58, 80
2, 26592, Note_on_c, 0, 49, 80
2, 26684, Note_off_c, 0, 58, 100
2, 26684, Note_off_c, 0, 49, 100
2, 26688, Note_on_c, 0, 56, 80
2, 26688, Note_on_c, 0, 49, 80
2, 26780, Note_off_c, 0, 56, 100
2, 26780, Note_off_c, 0, 49, 100
2, 26784, Note_on_c, 0, 55, 80
2, 26784, Note_on_c, 0, 49, 80
2, 26876, Note_off_c, 0, 55, 100
2, 26876, Note_off_c, 0, 49, 100
2, 26880, Note_on_c, 0, 58, 80
2, 26880, Note_on_c, 0, 55, 80
2, 26880, Note_on_c, 0, 49, 80
2, 26972, Note_off_c, 0, 49, 100
2, 26976, Note_on_c, 0, 51, 80
2, 27068, Note_off_c, 0, 51, 100
2, 27072, Note_on_c, 0, 49, 80
2, 27164, Note_off_c, 0, 49, 100
2, 27168, Note_on_c, 0, 51, 80
2, 27260, Note_off_c, 0, 58, 100
2, 27260, Note_off_c, 0, 55, 100
2, 27260, Note_off_c, 0, 51, 100
2, 27264, Note_on_c, 0, 56, 80
2, 27264, Note_on_c, 0, 48, 80
2, 27452, Note_off_c, 0, 56, 100
2, 27452, Note_off_c, 0, 48, 100
2, 27456, Note_on_c, 0, 63, 80
2, 27644, Note_off_c, 0, 63, 100
2, 27648, Note_on_c, 0, 63, 80
2, 27648, Note_on_c, 0, 59, 80
2, 27648, Note_on_c, 0, 68, 91
2, 27708, Note_off_c, 0, 63, 100
2, 27708, Note_off_c, 0, 59, 100
2, 27712, Note_on_c, 0, 63, 80
2, 27712, Note_on_c, 0, 59, 80
2, 27772, Note_off_c, 0, 63, 100
2, 27772, Note_off_c, 0, 59, 100
2, 27776, Note_on_c, 0, 63, 80
2, 27776, Note_on_c, 0, 59, 80
2, 27836, Note_off_c, 0, 68, 100
2, 27836, Note_off_c, 0, 63, 100
2, 27836, Note_off_c, 0, 59, 100
2, 27840, Note_on_c, 0, 63, 80
2, 27840, Note_on_c, 0, 59, 80
2, 27840, Note_on_c, 0, 71, 91
2, 27900, Note_off_c, 0, 63, 100
2, 27900, Note_off_c, 0, 59, 100
2, 27904, Note_on_c, 0, 63, 80
2, 27904, Note_on_c, 0, 59, 80
2, 27964, Note_off_c, 0, 63, 100
2, 27964, Note_off_c, 0, 59, 100
2, 27968, Note_on_c, 0, 63, 80
2, 27968, Note_on_c, 0, 59, 80
2, 28028, Note_off_c, 0, 71, 100
2, 28028, Note_off_c, 0, 63, 100
2, 28028, Note_off_c, 0, 59, 100
2, 28032, Note_on_c, 0, 63, 80
2, 28032, Note_on_c, 0, 59, 80
2, 28032, Note_on_c, 0, 70, 94
2, 28092, Note_off_c, 0, 63, 100
2, 28092, Note_off_c, 0, 59, 100
2, 28096, Note_on_c, 0, 63, 80
2, 28096, Note_on_c, 0, 59, 80
2, 28156, Note_off_c, 0, 63, 100
2, 28156, Note_off_c, 0, 59, 100
2, 28160, Note_on_c, 0, 63, 80
2, 28160, Note_on_c, 0, 59, 80
2, 28220, Note_off_c, 0, 70, 100
2, 28220, Note_off_c, 0, 63, 100
2, 28220, Note_off_c, 0, 59, 100
2, 28224, Note_on_c, 0, 63, 80
2, 28224, Note_on_c, 0, 59, 80
2, 28224, Note_on_c, 0, 68, 92
2, 28284, Note_off_c, 0, 63, 100
2, 28284, Note_off_c, 0, 59, 100
2, 28288, Note_on_c, 0, 63, 80
2, 28288, Note_on_c, 0, 59, 80
2, 28348, Note_off_c, 0, 63, 100
2, 28348, Note_off_c, 0, 59, 100
2, 28352, Note_on_c, 0, 63, 80
2, 28352, Note_on_c, 0, 59, 80
2, 28412, Note_off_c, 0, 68, 100
2, 28412, Note_off_c, 0, 63, 100
2, 28412, Note_off_c, 0, 59, 100
2, 28416, Note_on_c, 0, 63, 80
2, 28416, Note_on_c, 0, 61, 80
2, 28416, Note_on_c, 0, 67, 92
2, 28476, Note_off_c, 0, 63, 100
2, 28476, Note_off_c, 0, 61, 100
2, 28480, Note_on_c, 0, 63, 80
2, 28480, Note_on_c, 0, 61, 80
2, 28540, Note_off_c, 0, 63, 100
2, 28540, Note_off_c, 0, 61, 100
2, 28544, Note_on_c, 0, 63, 80
2, 28544, Note_on_c, 0, 61, 80
2, 28604, Note_off_c, 0, 67, 100
2, 28604, Note_off_c, 0, 63, 100
2, 28604, Note_off_c, 0, 61, 100
2, 28608, Note_on_c, 0, 63, 80
2, 28608, Note_on_c, 0, 61, 80
2, 28608, Note_on_c, 0, 73, 93
2, 28668, Note_off_c, 0, 63, 100
2, 28668, Note_off_c, 0, 61, 100
2, 28672, Note_on_c, 0, 63, 80
2, 28672, Note_on_c, 0, 61, 80
2, 28732, Note_off_c, 0, 63, 100
2, 28732, Note_off_c, 0, 61, 100
2, 28736, Note_on_c, 0, 63, 80
2, 28736, Note_on_c, 0, 61, 80
2, 28796, Note_off_c, 0, 73, 100
2, 28796, Note_off_c, 0, 63, 100
2, 28796, Note_off_c, 0, 61, 100
2, 28800, Note_on_c, 0, 63, 80
2, 28800, Note_on_c, 0, 61, 80
2, 28860, Note_off_c, 0, 63, 100
2, 28860, Note_off_c, 0, 61, 100
2, 28864, Note_on_c, 0, 63, 80
2, 28864, Note_on_c, 0, 61, 80
2, 28924, Note_off_c, 0, 63, 100
2, 28924, Note_off_c, 0, 61, 100
2, 28928, Note_on_c, 0, 63, 80
2, 28928, Note_on_c, 0, 61, 80
2, 28988, Note_off_c, 0, 63, 100
2, 28988, Note_off_c, 0, 61, 100
2, 28992, Note_on_c, 0, 63, 80
2, 28992, Note_on_c, 0, 61, 80
2, 29052, Note_off_c, 0, 63, 100
2, 29052, Note_off_c, 0, 61, 100
2, 29056, Note_on_c, 0, 63, 80
2, 29056, Note_on_c, 0, 61, 80
2, 29116, Note_off_c, 0, 63, 100
2, 29116, Note_off_c, 0, 61, 100
2, 29120, Note_on_c, 0, 63, 80
2, 29120, Note_on_c, 0, 61, 80
2, 29180, Note_off_c, 0, 63, 100
2, 29180, Note_off_c, 0, 61, 100
2, 29184, Note_on_c, 0, 63, 80
2, 29184, Note_on_c, 0, 59, 80
2, 29184, Note_on_c, 0, 68, 91
2, 29244, Note_off_c, 0, 63, 100
2, 29244, Note_off_c, 0, 59, 100
2, 29248, Note_on_c, 0, 63, 80
2, 29248, Note_on_c, 0, 59, 80
2, 29308, Note_off_c, 0, 63, 100
2, 29308, Note_off_c, 0, 59, 100
2, 29312, Note_on_c, 0, 63, 80
2, 29312, Note_on_c, 0, 59, 80
2, 29372, Note_off_c, 0, 68, 100
2, 29372, Note_off_c, 0, 63, 100
2, 29372, Note_off_c, 0, 59, 100
2, 29376, Note_on_c, 0, 63, 80
2, 29376, Note_on_c, 0, 59, 80
2, 29376, Note_on_c, 0, 71, 93
2, 29436, Note_off_c, 0, 63, 100
2, 29436, Note_off_c, 0, 59, 100
2, 29440, Note_on_c, 0, 63, 80
2, 29440, Note_on_c, 0, 59, 80
2, 29500, Note_off_c, 0, 63, 100
2, 29500, Note_off_c, 0, 59, 100
2, 29504, Note_on_c, 0, 63, 80
2, 29504, Note_on_c, 0, 59, 80
2, 29564, Note_off_c, 0, 71, 100
2, 29564, Note_off_c, 0, 63, 100
2, 29564, Note_off_c, 0, 59, 100
2, 29568, Note_on_c, 0, 63, 80
2, 29568, Note_on_c, 0, 59, 80
2, 29568, Note_on_c, 0, 70, 90
2, 29628, Note_off_c, 0, 63, 100
2, 29628, Note_off_c, 0, 59, 100
2, 29632, Note_on_c, 0, 63, 80
2, 29632, Note_on_c, 0, 59, 80
2, 29692, Note_off_c, 0, 63, 100
2, 29692, Note_off_c, 0, 59, 100
2, 29696, Note_on_c, 0, 63, 80
2, 29696, Note_on_c, 0, 59, 80
2, 29756, Note_off_c, 0, 70, 100
2, 29756, Note_off_c, 0, 63, 100
2, 29756, Note_off_c, 0, 59, 100
2, 29760, Note_on_c, 0, 63, 80
2, 29760, Note_on_c, 0, 59, 80
2, 29760, Note_on_c, 0, 68, 94
2, 29820, Note_off_c, 0, 63, 100
2, 29820, Note_off_c, 0, 59, 100
2, 29824, Note_on_c, 0, 63, 80
2, 29824, Note_on_c, 0, 59, 80
2, 29884, Note_off_c, 0, 63, 100
2, 29884, Note_off_c, 0, 59, 100
2, 29888, Note_on_c, 0, 63, 80
2, 29888, Note_on_c, 0, 59, 80
2, 29948, Note_off_c, 0, 68, 100
2, 29948, Note_off_c, 0, 63, 100
2, 29948, Note_off_c, 0, 59, 100
2, 29952, Note_on_c, 0, 63, 80
2, 29952, Note_on_c, 0, 58, 80
2, 29952, Note_on_c, 0, 68, 90
2, 30012, Note_off_c, 0, 63, 100
2, 30012, Note_off_c, 0, 58, 100
2, 30016, Note_on_c, 0, 63, 80
2, 30016, Note_on_c, 0, 58, 80
2, 30076, Note_off_c, 0, 63, 100
2, 30076, Note_off_c, 0, 58, 100
2, 30080, Note_on_c, 0, 63, 80
2, 30080, Note_on_c, 0, 58, 80
2, 30140, Note_off_c, 0, 68, 100
2, 30140, Note_off_c, 0, 63, 100
2, 30140, Note_off_c, 0, 58, 100
2, 30144, Note_on_c, 0, 63, 80
2, 30144, Note_on_c, 0, 58, 80
2, 30144, Note_on_c, 0, 67, 90
2, 30204, Note_off_c, 0, 63, 100
2, 30204, Note_off_c, 0, 58, 100
2, 30208, Note_on_c, 0, 63, 80
2, 30208, Note_on_c, 0, 58, 80
2, 30268, Note_off_c, 0, 63, 100
2, 30268, Note_off_c, 0, 58, 100
2, 30272, Note_on_c, 0, 63, 80
2, 30272, Note_on_c, 0, 58, 80
2, 30332, Note_off_c, 0, 67, 100
2, 30332, Note_off_c, 0, 63, 100
2, 30332, Note_off_c, 0, 58, 100
2, 30336, Note_on_c, 0, 63, 80
2, 30336, Note_on_c, 0, 58, 80
2, 30336, Note_on_c, 0, 55, 80
2, 30396, Note_off_c, 0, 63, 100
2, 30396, Note_off_c, 0, 58, 100
2, 30396, Note_off_c, 0, 55, 100
2, 30400, Note_on_c, 0, 63, 80
2, 30400, Note_on_c, 0, 58, 80
2, 30400, Note_on_c, 0, 55, 80
2, 30460, Note_off_c, 0, 63, 100
2, 30460, Note_off_c, 0, 58, 100
2, 30460, Note_off_c, 0, 55, 100
2, 30464, Note_on_c, 0, 63, 80
2, 30464, Note_on_c, 0, 58, 80
2, 30464, Note_on_c, 0, 55, 80
2, 30524, Note_off_c, 0, 63, 100
2, 30524, Note_off_c, 0, 58, 100
2, 30524, Note_off_c, 0, 55, 100
2, 30528, Note_on_c, 0, 63, 80
2, 30528, Note_on_c, 0, 58, 80
2, 30528, Note_on_c, 0, 55, 80
2, 30588, Note_off_c, 0, 63, 100
2, 30588, Note_off_c, 0, 58, 100
2, 30588, Note_off_c, 0, 55, 100
2, 30592, Note_on_c, 0, 63, 80
2, 30592, Note_on_c, 0, 58, 80
2, 30592, Note_on_c, 0, 55, 80
2, 30652, Note_off_c, 0, 63, 100
2, 30652, Note_off_c, 0, 58, 100
2, 30652, Note_off_c, 0, 55, 100
2, 30656, Note_on_c, 0, 63, 80
2, 30656, Note_on_c, 0, 58, 80
2, 30656, Note_on_c, 0, 55, 80
2, 30716, Note_off_c, 0, 63, 100
2, 30716, Note_off_c, 0, 58, 100
2, 30716, Note_off_c, 0, 55, 100
2, 30720, Note_on_c, 0, 63, 70
2, 30720, Note_on_c, 0, 59, 70
2, 30720, Note_on_c, 0, 68, 70
2, 30780, Note_off_c, 0, 63, 100
2, 30780, Note_off_c, 0, 59, 100
2, 30784, Note_on_c, 0, 63, 71
2, 30784, Note_on_c, 0, 59, 71
2, 30844, Note_off_c, 0, 63, 100
2, 30844, Note_off_c, 0, 59, 100
2, 30848, Note_on_c, 0, 63, 73
2, 30848, Note_on_c, 0, 59, 73
2, 30908, Note_off_c, 0, 68, 100
2, 30908, Note_off_c, 0, 63, 100
2, 30908, Note_off_c, 0, 59, 100
2, 30912, Note_on_c, 0, 63, 75
2, 30912, Note_on_c, 0, 59, 75
2, 30912, Note_on_c, 0, 71, 75
2, 30972, Note_off_c, 0, 63, 100
2, 30972, Note_off_c, 0, 59, 100
2, 30976, Note_on_c, 0, 63, 77
2, 30976, Note_on_c, 0, 59, 77
2, 31036, Note_off_c, 0, 63, 100
2, 31036, Note_off_c, 0, 59, 100
2, 31040, Note_on_c, 0, 63, 79
2, 31040, Note_on_c, 0, 59, 79
2, 31100, Note_off_c, 0, 71, 100
2, 31100, Note_off_c, 0, 63, 100
2, 31100, Note_off_c, 0, 59, 100
2, 31104, Note_on_c, 0, 63, 80
2, 31104, Note_on_c, 0, 59, 80
2, 31104, Note_on_c, 0, 70, 80
2, 31164, Note_off_c, 0, 63, 100
2, 31164, Note_off_c, 0, 59, 100
2, 31168, Note_on_c, 0, 63, 82
2, 31168, Note_on_c, 0, 59, 82
2, 31228, Note_off_c, 0, 63, 100
2, 31228, Note_off_c, 0, 59, 100
2, 31232, Note_on_c, 0, 63, 84
2, 31232, Note_on_c, 0, 59, 84
2, 31292, Note_off_c, 0, 70, 100
2, 31292, Note_off_c, 0, 63, 100
2, 31292, Note_off_c, 0, 59, 100
2, 31296, Note_on_c, 0, 63, 86
2, 31296, Note_on_c, 0, 59, 86
2, 31296, Note_on_c, 0, 68, 86
2, 31356, Note_off_c, 0, 63, 100
2, 31356, Note_off_c, 0, 59, 100
2, 31360, Note_on_c, 0, 63, 88
2, 31360, Note_on_c, 0, 59, 88
2, 31420, Note_off_c, 0, 63, 100
2, 31420, Note_off_c, 0, 59, 100
2, 31424, Note_on_c, 0, 63, 89
2, 31424, Note_on_c, 0, 59, 89
2, 31484, Note_off_c, 0, 68, 100
2, 31484, Note_off_c, 0, 63, 100
2, 31484, Note_off_c, 0, 59, 100
2, 31488, Note_on_c, 0, 78, 100
2, 31488, Note_on_c, 0, 66, 100
2, 31676, Note_off_c, 0, 66, 100
2, 31740, Note_off_c, 0, 78, 100
2, 31744, Note_on_c, 0, 75, 100
2, 31804, Note_off_c, 0, 75, 100
2, 31808, Note_on_c, 0, 71, 100
2, 31868, Note_off_c, 0, 71, 100
2, 31872, Note_on_c, 0, 71, 100
2, 31872, Note_on_c, 0, 83, 100
2, 32060, Note_off_c, 0, 71, 100
2, 32060, Note_off_c, 0, 83, 100
2, 32128, Note_on_c, 0, 80, 100
2, 32188, Note_off_c, 0, 80, 100
2, 32192, Note_on_c, 0, 76, 100
2, 32252, Note_off_c, 0, 76, 100
2, 32256, Note_on_c, 0, 76, 100
2, 32256, Note_on_c, 0, 88, 100
2, 32444, Note_off_c, 0, 76, 100
2, 32508, Note_off_c, 0, 88, 100
2, 32512, Note_on_c, 0, 85, 100
2, 32572, Note_off_c, 0, 85, 100
2, 32576, Note_on_c, 0, 82, 100
2, 32636, Note_off_c, 0, 82, 100
2, 32640, Note_on_c, 0, 71, 100
2, 32640, Note_on_c, 0, 83, 100
2, 32828, Note_off_c, 0, 71, 100
2, 32828, Note_off_c, 0, 83, 100
2, 32832, Note_on_c, 0, 63, 100
2, 32832, Note_on_c, 0, 59, 100
2, 32832, Note_on_c, 0, 57, 100
2, 32832, Note_on_c, 0, 54, 100
2, 33020, Note_off_c, 0, 63, 100
2, 33020, Note_off_c, 0, 59, 100
2, 33020, Note_off_c, 0, 57, 100
2, 33020, Note_off_c, 0, 54, 100
2, 33024, Note_on_c, 0, 59, 100
2, 33024, Note_on_c, 0, 56, 100
2, 33024, Note_on_c, 0, 64, 100
2, 33084, Note_off_c, 0, 59, 100
2, 33084, Note_off_c, 0, 56, 100
2, 33084, Note_off_c, 0, 64, 100
2, 33088, Note_on_c, 0, 59, 80
2, 33088, Note_on_c, 0, 56, 80
2, 33148, Note_off_c, 0, 59, 100
2, 33148, Note_off_c, 0, 56, 100
2, 33152, Note_on_c, 0, 59, 80
2, 33152, Note_on_c, 0, 56, 80
2, 33212, Note_off_c, 0, 59, 100
2, 33212, Note_off_c, 0, 56, 100
2, 33216, Note_on_c, 0, 59, 80
2, 33216, Note_on_c, 0, 56, 80
2, 33276, Note_off_c, 0, 59, 100
2, 33276, Note_off_c, 0, 56, 100
2, 33280, Note_on_c, 0, 59, 80
2, 33280, Note_on_c, 0, 56, 80
2, 33340, Note_off_c, 0, 59, 100
2, 33340, Note_off_c, 0, 56, 100
2, 33344, Note_on_c, 0, 59, 80
2, 33344, Note_on_c, 0, 56, 80
2, 33404, Note_off_c, 0, 59, 100
2, 33404, Note_off_c, 0, 56, 100
2, 33408, Note_on_c, 0, 59, 80
2, 33408, Note_on_c, 0, 56, 80
2, 33468, Note_off_c, 0, 59, 100
2, 33468, Note_off_c, 0, 56, 100
2, 33472, Note_on_c, 0, 59, 80
2, 33472, Note_on_c, 0, 56, 80
2, 33532, Note_off_c, 0, 59, 100
2, 33532, Note_off_c, 0, 56, 100
2, 33536, Note_on_c, 0, 59, 80
2, 33536, Note_on_c, 0, 56, 80
2, 33596, Note_off_c, 0, 59, 100
2, 33596, Note_off_c, 0, 56, 100
2, 33600, Note_on_c, 0, 59, 80
2, 33600, Note_on_c, 0, 56, 80
2, 33660, Note_off_c, 0, 59, 100
2, 33660, Note_off_c, 0, 56, 100
2, 33664, Note_on_c, 0, 59, 80
2, 33664, Note_on_c, 0, 56, 80
2, 33724, Note_off_c, 0, 59, 100
2, 33724, Note_off_c, 0, 56, 100
2, 33728, Note_on_c, 0, 59, 80
2, 33728, Note_on_c, 0, 56, 80
2, 33788, Note_off_c, 0, 59, 100
2, 33788, Note_off_c, 0, 56, 100
2, 33792, Note_on_c, 0, 59, 70
2, 33792, Note_on_c, 0, 56, 70
2, 33792, Note_on_c, 0, 64, 85
2, 33852, Note_off_c, 0, 59, 100
2, 33852, Note_off_c, 0, 56, 100
2, 33856, Note_on_c, 0, 59, 70
2, 33856, Note_on_c, 0, 56, 70
2, 33916, Note_off_c, 0, 59, 100
2, 33916, Note_off_c, 0, 56, 100
2, 33920, Note_on_c, 0, 59, 70
2, 33920, Note_on_c, 0, 56, 70
2, 33980, Note_off_c, 0, 64, 100
2, 33980, Note_off_c, 0, 59, 100
2, 33980, Note_off_c, 0, 56, 100
2, 33984, Note_on_c, 0, 59, 70
2, 33984, Note_on_c, 0, 56, 70
2, 33984, Note_on_c, 0, 68, 81
2, 34044, Note_off_c, 0, 59, 100
2, 34044, Note_off_c, 0, 56, 100
2, 34048, Note_on_c, 0, 59, 70
2, 34048, Note_on_c, 0, 56, 70
2, 34108, Note_off_c, 0, 59, 100
2, 34108, Note_off_c, 0, 56, 100
2, 34112, Note_on_c, 0, 59, 70
2, 34112, Note_on_c, 0, 56, 70
2, 34172, Note_off_c, 0, 68, 100
2, 34172, Note_off_c, 0, 59, 100
2, 34172, Note_off_c, 0, 56, 100
2, 34176, Note_on_c, 0, 59, 70
2, 34176, Note_on_c, 0, 56, 70
2, 34176, Note_on_c, 0, 66, 86
2, 34236, Note_off_c, 0, 59, 100
2, 34236, Note_off_c, 0, 56, 100
2, 34240, Note_on_c, 0, 59, 70
2, 34240, Note_on_c, 0, 56, 70
2, 34300, Note_off_c, 0, 59, 100
2, 34300, Note_off_c, 0, 56, 100
2, 34304, Note_on_c, 0, 59, 70
2, 34304, Note_on_c, 0, 56, 70
2, 34364, Note_off_c, 0, 66, 100
2, 34364, Note_off_c, 0, 59, 100
2, 34364, Note_off_c, 0, 56, 100
2, 34368, Note_on_c, 0, 59, 70
2, 34368, Note_on_c, 0, 56, 70
2, 34368, Note_on_c, 0, 64, 85
2, 34428, Note_off_c, 0, 59, 100
2, 34428, Note_off_c, 0, 56, 100
2, 34432, Note_on_c, 0, 59, 70
2, 34432, Note_on_c, 0, 56, 70
2, 34492, Note_off_c, 0, 59, 100
2, 34492, Note_off_c, 0, 56, 100
2, 34496, Note_on_c, 0, 59, 70
2, 34496, Note_on_c, 0, 56, 70
2, 34556, Note_off_c, 0, 64, 100
2, 34556, Note_off_c, 0, 59, 100
2, 34556, Note_off_c, 0, 56, 100
2, 34560, Note_on_c, 0, 57, 70
2, 34560, Note_on_c, 0, 59, 70
2, 34560, Note_on_c, 0, 63, 83
2, 34620, Note_off_c, 0, 57, 100
2, 34620, Note_off_c, 0, 59, 100
2, 34624, Note_on_c, 0, 57, 70
2, 34624, Note_on_c, 0, 59, 70
2, 34684, Note_off_c, 0, 57, 100
2, 34684, Note_off_c, 0, 59, 100
2, 34688, Note_on_c, 0, 57, 70
2, 34688, Note_on_c, 0, 59, 70
2, 34748, Note_off_c, 0, 63, 100
2, 34748, Note_off_c, 0, 57, 100
2, 34748, Note_off_c, 0, 59, 100
2, 34752, Note_on_c, 0, 57, 70
2, 34752, Note_on_c, 0, 59, 70
2, 34752, Note_on_c, 0, 69, 86
2, 34812, Note_off_c, 0, 57, 100
2, 34812, Note_off_c, 0, 59, 100
2, 34816, Note_on_c, 0, 57, 70
2, 34816, Note_on_c, 0, 59, 70
2, 34876, Note_off_c, 0, 57, 100
2, 34876, Note_off_c, 0, 59, 100
2, 34880, Note_on_c, 0, 57, 70
2, 34880, Note_on_c, 0, 59, 70
2, 34940, Note_off_c, 0, 69, 100
2, 34940, Note_off_c, 0, 57, 100
2, 34940, Note_off_c, 0, 59, 100
2, 34944, Note_on_c, 0, 57, 70
2, 34944, Note_on_c, 0, 59, 70
2, 35004, Note_off_c, 0, 57, 100
2, 35004, Note_off_c, 0, 59, 100
2, 35008, Note_on_c, 0, 57, 70
2, 35008, Note_on_c, 0, 59, 70
2, 35068, Note_off_c, 0, 57, 100
2, 35068, Note_off_c, 0, 59, 100
2, 35072, Note_on_c, 0, 57, 70
2, 35072, Note_on_c, 0, 59, 70
2, 35132, Note_off_c, 0, 57, 100
2, 35132, Note_off_c, 0, 59, 100
2, 35136, Note_on_c, 0, 57, 70
2, 35136, Note_on_c, 0, 59, 70
2, 35196, Note_off_c, 0, 57, 100
2, 35196, Note_off_c, 0, 59, 100
2, 35200, Note_on_c, 0, 57, 70
2, 35200, Note_on_c, 0, 59, 70
2, 35260, Note_off_c, 0, 57, 100
2, 35260, Note_off_c, 0, 59, 100
2, 35264, Note_on_c, 0, 57, 70
2, 35264, Note_on_c, 0, 59, 70
2, 35324, Note_off_c, 0, 57, 100
2, 35324, Note_off_c, 0, 59, 100
2, 35328, Note_on_c, 0, 59, 70
2, 35328, Note_on_c, 0, 56, 70
2, 35328, Note_on_c, 0, 64, 83
2, 35388, Note_off_c, 0, 59, 100
2, 35388, Note_off_c, 0, 56, 100
2, 35392, Note_on_c, 0, 59, 70
2, 35392, Note_on_c, 0, 56, 70
2, 35452, Note_off_c, 0, 59, 100
2, 35452, Note_off_c, 0, 56, 100
2, 35456, Note_on_c, 0, 59, 70
2, 35456, Note_on_c, 0, 56, 70
2, 35516, Note_off_c, 0, 64, 100
2, 35516, Note_off_c, 0, 59, 100
2, 35516, Note_off_c, 0, 56, 100
2, 35520, Note_on_c, 0, 59, 70
2, 35520, Note_on_c, 0, 56, 70
2, 35520, Note_on_c, 0, 68, 82
2, 35580, Note_off_c, 0, 59, 100
2, 35580, Note_off_c, 0, 56, 100
2, 35584, Note_on_c, 0, 59, 70
2, 35584, Note_on_c, 0, 56, 70
2, 35644, Note_off_c, 0, 59, 100
2, 35644, Note_off_c, 0, 56, 100
2, 35648, Note_on_c, 0, 59, 70
2, 35648, Note_on_c, 0, 56, 70
2, 35708, Note_off_c, 0, 68, 100
2, 35708, Note_off_c, 0, 59, 100
2, 35708, Note_off_c, 0, 56, 100
2, 35712, Note_on_c, 0, 59, 70
2, 35712, Note_on_c, 0, 56, 70
2, 35712, Note_on_c, 0, 64, 84
2, 35772, Note_off_c, 0, 59, 100
2, 35772, Note_off_c, 0, 56, 100
2, 35776, Note_on_c, 0, 59, 70
2, 35776, Note_on_c, 0, 56, 70
2, 35836, Note_off_c, 0, 59, 100
2, 35836, Note_off_c, 0, 56, 100
2, 35840, Note_on_c, 0, 59, 70
2, 35840, Note_on_c, 0, 56, 70
2, 35900, Note_off_c, 0, 64, 100
2, 35900, Note_off_c, 0, 59, 100
2, 35900, Note_off_c, 0, 56, 100
2, 35904, Note_on_c, 0, 59, 70
2, 35904, Note_on_c, 0, 56, 70
2, 35904, Note_on_c, 0, 63, 81
2, 35964, Note_off_c, 0, 59, 100
2, 35964, Note_off_c, 0, 56, 100
2, 35968, Note_on_c, 0, 59, 70
2, 35968, Note_on_c, 0, 56, 70
2, 36028, Note_off_c, 0, 59, 100
2, 36028, Note_off_c, 0, 56, 100
2, 36032, Note_on_c, 0, 59, 70
2, 36032, Note_on_c, 0, 56, 70
2, 36092, Note_off_c, 0, 63, 100
2, 36092, Note_off_c, 0, 59, 100
2, 36092, Note_off_c, 0, 56, 100
2, 36096, Note_on_c, 0, 59, 70
2, 36096, Note_on_c, 0, 56, 70
2, 36096, Note_on_c, 0, 50, 70
2, 36096, Note_on_c, 0, 62, 81
2, 36156, Note_off_c, 0, 59, 100
2, 36156, Note_off_c, 0, 56, 100
2, 36156, Note_off_c, 0, 50, 100
2, 36160, Note_on_c, 0, 59, 70
2, 36160, Note_on_c, 0, 56, 70
2, 36160, Note_on_c, 0, 50, 70
2, 36220, Note_off_c, 0, 59, 100
2, 36220, Note_off_c, 0, 56, 100
2, 36220, Note_off_c, 0, 50, 100
2, 36224, Note_on_c, 0, 59, 70
2, 36224, Note_on_c, 0, 56, 70
2, 36224, Note_on_c, 0, 50, 70
2, 36284, Note_off_c, 0, 59, 100
2, 36284, Note_off_c, 0, 56, 100
2, 36284, Note_off_c, 0, 50, 100
2, 36288, Note_on_c, 0, 59, 70
2, 36288, Note_on_c, 0, 56, 70
2, 36288, Note_on_c, 0, 50, 70
2, 36348, Note_off_c, 0, 59, 100
2, 36348, Note_off_c, 0, 56, 100
2, 36348, Note_off_c, 0, 50, 100
2, 36352, Note_on_c, 0, 59, 70
2, 36352, Note_on_c, 0, 56, 70
2, 36352, Note_on_c, 0, 50, 70
2, 36412, Note_off_c, 0, 59, 100
2, 36412, Note_off_c, 0, 56, 100
2, 36412, Note_off_c, 0, 50, 100
2, 36416, Note_on_c, 0, 59, 70
2, 36416, Note_on_c, 0, 56, 70
2, 36416, Note_on_c, 0, 50, 70
2, 36476, Note_off_c, 0, 59, 100
2, 36476, Note_off_c, 0, 56, 100
2, 36476, Note_off_c, 0, 50, 100
2, 36480, Note_on_c, 0, 59, 70
2, 36480, Note_on_c, 0, 56, 70
2, 36480, Note_on_c, 0, 50, 70
2, 36540, Note_off_c, 0, 59, 100
2, 36540, Note_off_c, 0, 56, 100
2, 36540, Note_off_c, 0, 50, 100
2, 36544, Note_on_c, 0, 59, 70
2, 36544, Note_on_c, 0, 56, 70
2, 36544, Note_on_c, 0, 50, 70
2, 36604, Note_off_c, 0, 59, 100
2, 36604, Note_off_c, 0, 56, 100
2, 36604, Note_off_c, 0, 50, 100
2, 36608, Note_on_c, 0, 59, 70
2, 36608, Note_on_c, 0, 56, 70
2, 36608, Note_on_c, 0, 50, 70
2, 36668, Note_off_c, 0, 62, 100
2, 36668, Note_off_c, 0, 59, 100
2, 36668, Note_off_c, 0, 56, 100
2, 36668, Note_off_c, 0, 50, 100
2, 36672, Note_on_c, 0, 59, 70
2, 36672, Note_on_c, 0, 56, 70
2, 36672, Note_on_c, 0, 50, 70
2, 36672, Note_on_c, 0, 62, 85
2, 36732, Note_off_c, 0, 59, 100
2, 36732, Note_off_c, 0, 56, 100
2, 36732, Note_off_c, 0, 50, 100
2, 36736, Note_on_c, 0, 59, 70
2, 36736, Note_on_c, 0, 56, 70
2, 36736, Note_on_c, 0, 50, 70
2, 36796, Note_off_c, 0, 59, 100
2, 36796, Note_off_c, 0, 56, 100
2, 36796, Note_off_c, 0, 50, 100
2, 36800, Note_on_c, 0, 59, 70
2, 36800, Note_on_c, 0, 56, 70
2, 36800, Note_on_c, 0, 50, 70
2, 36860, Note_off_c, 0, 62, 100
2, 36860, Note_off_c, 0, 59, 100
2, 36860, Note_off_c, 0, 56, 100
2, 36860, Note_off_c, 0, 50, 100
2, 36864, Note_on_c, 0, 59, 70
2, 36864, Note_on_c, 0, 56, 70
2, 36864, Note_on_c, 0, 50, 70
2, 36864, Note_on_c, 0, 62, 83
2, 36924, Note_off_c, 0, 59, 100
2, 36924, Note_off_c, 0, 56, 100
2, 36924, Note_off_c, 0, 50, 100
2, 36928, Note_on_c, 0, 59, 70
2, 36928, Note_on_c, 0, 56, 70
2, 36928, Note_on_c, 0, 50, 70
2, 36988, Note_off_c, 0, 59, 100
2, 36988, Note_off_c, 0, 56, 100
2, 36988, Note_off_c, 0, 50, 100
2, 36992, Note_on_c, 0, 59, 70
2, 36992, Note_on_c, 0, 56, 70
2, 36992, Note_on_c, 0, 50, 70
2, 37052, Note_off_c, 0, 59, 100
2, 37052, Note_off_c, 0, 56, 100
2, 37052, Note_off_c, 0, 50, 100
2, 37056, Note_on_c, 0, 59, 70
2, 37056, Note_on_c, 0, 56, 70
2, 37056, Note_on_c, 0, 50, 70
2, 37116, Note_off_c, 0, 59, 100
2, 37116, Note_off_c, 0, 56, 100
2, 37116, Note_off_c, 0, 50, 100
2, 37120, Note_on_c, 0, 59, 70
2, 37120, Note_on_c, 0, 56, 70
2, 37120, Note_on_c, 0, 50, 70
2, 37180, Note_off_c, 0, 59, 100
2, 37180, Note_off_c, 0, 56, 100
2, 37180, Note_off_c, 0, 50, 100
2, 37184, Note_on_c, 0, 59, 70
2, 37184, Note_on_c, 0, 56, 70
2, 37184, Note_on_c, 0, 50, 70
2, 37244, Note_off_c, 0, 59, 100
2, 37244, Note_off_c, 0, 56, 100
2, 37244, Note_off_c, 0, 50, 100
2, 37248, Note_on_c, 0, 59, 70
2, 37248, Note_on_c, 0, 56, 70
2, 37248, Note_on_c, 0, 50, 70
2, 37308, Note_off_c, 0, 59, 100
2, 37308, Note_off_c, 0, 56, 100
2, 37308, Note_off_c, 0, 50, 100
2, 37312, Note_on_c, 0, 59, 70
2, 37312, Note_on_c, 0, 56, 70
2, 37312, Note_on_c, 0, 50, 70
2, 37372, Note_off_c, 0, 59, 100
2, 37372, Note_off_c, 0, 56, 100
2, 37372, Note_off_c, 0, 50, 100
2, 37376, Note_on_c, 0, 59, 70
2, 37376, Note_on_c, 0, 56, 70
2, 37376, Note_on_c, 0, 50, 70
2, 37436, Note_off_c, 0, 62, 100
2, 37436, Note_off_c, 0, 59, 100
2, 37436, Note_off_c, 0, 56, 100
2, 37436, Note_off_c, 0, 50, 100
2, 37440, Note_on_c, 0, 59, 70
2, 37440, Note_on_c, 0, 56, 70
2, 37440, Note_on_c, 0, 50, 70
2, 37440, Note_on_c, 0, 62, 83
2, 37500, Note_off_c, 0, 59, 100
2, 37500, Note_off_c, 0, 56, 100
2, 37500, Note_off_c, 0, 50, 100
2, 37504, Note_on_c, 0, 59, 70
2, 37504, Note_on_c, 0, 56, 70
2, 37504, Note_on_c, 0, 50, 70
2, 37564, Note_off_c, 0, 59, 100
2, 37564, Note_off_c, 0, 56, 100
2, 37564, Note_off_c, 0, 50, 100
2, 37568, Note_on_c, 0, 59, 70
2, 37568, Note_on_c, 0, 56, 70
2, 37568, Note_on_c, 0, 50, 70
2, 37628, Note_off_c, 0, 62, 100
2, 37628, Note_off_c, 0, 59, 100
2, 37628, Note_off_c, 0, 56, 100
2, 37628, Note_off_c, 0, 50, 100
2, 37632, Note_on_c, 0, 58, 70
2, 37632, Note_on_c, 0, 56, 70
2, 37632, Note_on_c, 0, 49, 70
2, 37632, Note_on_c, 0, 61, 80
2, 37692, Note_off_c, 0, 58, 100
2, 37692, Note_off_c, 0, 56, 100
2, 37692, Note_off_c, 0, 49, 100
2, 37696, Note_on_c, 0, 58, 70
2, 37696, Note_on_c, 0, 56, 70
2, 37696, Note_on_c, 0, 49, 70
2, 37756, Note_off_c, 0, 58, 100
2, 37756, Note_off_c, 0, 56, 100
2, 37756, Note_off_c, 0, 49, 100
2, 37760, Note_on_c, 0, 58, 70
2, 37760, Note_on_c, 0, 56, 70
2, 37760, Note_on_c, 0, 49, 70
2, 37820, Note_off_c, 0, 58, 100
2, 37820, Note_off_c, 0, 56, 100
2, 37820, Note_off_c, 0, 49, 100
2, 37824, Note_on_c, 0, 58, 70
2, 37824, Note_on_c, 0, 56, 70
2, 37824, Note_on_c, 0, 49, 70
2, 37884, Note_off_c, 0, 58, 100
2, 37884, Note_off_c, 0, 56, 100
2, 37884, Note_off_c, 0, 49, 100
2, 37888, Note_on_c, 0, 58, 70
2, 37888, Note_on_c, 0, 56, 70
2, 37888, Note_on_c, 0, 49, 70
2, 37948, Note_off_c, 0, 58, 100
2, 37948, Note_off_c, 0, 56, 100
2, 37948, Note_off_c, 0, 49, 100
2, 37952, Note_on_c, 0, 58, 70
2, 37952, Note_on_c, 0, 56, 70
2, 37952, Note_on_c, 0, 49, 70
2, 38012, Note_off_c, 0, 58, 100
2, 38012, Note_off_c, 0, 56, 100
2, 38012, Note_off_c, 0, 49, 100
2, 38016, Note_on_c, 0, 58, 70
2, 38016, Note_on_c, 0, 55, 70
2, 38016, Note_on_c, 0, 49, 70
2, 38076, Note_off_c, 0, 58, 100
2, 38076, Note_off_c, 0, 55, 100
2, 38076, Note_off_c, 0, 49, 100
2, 38080, Note_on_c, 0, 58, 70
2, 38080, Note_on_c, 0, 55, 70
2, 38080, Note_on_c, 0, 49, 70
2, 38140, Note_off_c, 0, 58, 100
2, 38140, Note_off_c, 0, 55, 100
2, 38140, Note_off_c, 0, 49, 100
2, 38144, Note_on_c, 0, 58, 70
2, 38144, Note_on_c, 0, 55, 70
2, 38144, Note_on_c, 0, 49, 70
2, 38204, Note_off_c, 0, 61, 100
2, 38204, Note_off_c, 0, 58, 100
2, 38204, Note_off_c, 0, 55, 100
2, 38204, Note_off_c, 0, 49, 100
2, 38208, Note_on_c, 0, 58, 70
2, 38208, Note_on_c, 0, 55, 70
2, 38208, Note_on_c, 0, 51, 70
2, 38208, Note_on_c, 0, 49, 70
2, 38208, Note_on_c, 0, 61, 85
2, 38268, Note_off_c, 0, 58, 100
2, 38268, Note_off_c, 0, 55, 100
2, 38268, Note_off_c, 0, 51, 100
2, 38268, Note_off_c, 0, 49, 100
2, 38272, Note_on_c, 0, 58, 70
2, 38272, Note_on_c, 0, 55, 70
2, 38272, Note_on_c, 0, 51, 70
2, 38272, Note_on_c, 0, 49, 70
2, 38332, Note_off_c, 0, 58, 100
2, 38332, Note_off_c, 0, 55, 100
2, 38332, Note_off_c, 0, 51, 100
2, 38332, Note_off_c, 0, 49, 100
2, 38336, Note_on_c, 0, 58, 70
2, 38336, Note_on_c, 0, 55, 70
2, 38336, Note_on_c, 0, 51, 70
2, 38336, Note_on_c, 0, 49, 70
2, 38396, Note_off_c, 0, 61, 100
2, 38396, Note_off_c, 0, 58, 100
2, 38396, Note_off_c, 0, 55, 100
2, 38396, Note_off_c, 0, 51, 100
2, 38396, Note_off_c, 0, 49, 100
2, 38400, Note_on_c, 0, 48, 80
2, 38400, Note_on_c, 0, 60, 80
2, 38460, Note_off_c, 0, 48, 100
2, 38464, Note_on_c, 0, 51, 80
2, 38524, Note_off_c, 0, 51, 100
2, 38528, Note_on_c, 0, 51, 80
2, 38588, Note_off_c, 0, 51, 100
2, 38592, Note_on_c, 0, 56, 80
2, 38652, Note_off_c, 0, 56, 100
2, 38656, Note_on_c, 0, 51, 80
2, 38716, Note_off_c, 0, 51, 100
2, 38720, Note_on_c, 0, 51, 80
2, 38780, Note_off_c, 0, 60, 100
2, 38780, Note_off_c, 0, 51, 100
2, 38784, Note_on_c, 0, 55, 80
2, 38784, Note_on_c, 0, 58, 80
2, 38844, Note_off_c, 0, 55, 100
2, 38848, Note_on_c, 0, 51, 80
2, 38908, Note_off_c, 0, 51, 100
2, 38912, Note_on_c, 0, 51, 80
2, 38972, Note_off_c, 0, 51, 100
2, 38976, Note_on_c, 0, 55, 80
2, 39036, Note_off_c, 0, 55, 100
2, 39040, Note_on_c, 0, 51, 80
2, 39100, Note_off_c, 0, 51, 100
2, 39104, Note_on_c, 0, 51, 80
2, 39164, Note_off_c, 0, 58, 100
2, 39164, Note_off_c, 0, 51, 100
2, 39168, Note_on_c, 0, 56, 80
2, 39168, Note_on_c, 0, 63, 80
2, 39228, Note_off_c, 0, 56, 100
2, 39232, Note_on_c, 0, 51, 80
2, 39292, Note_off_c, 0, 51, 100
2, 39296, Note_on_c, 0, 51, 80
2, 39356, Note_off_c, 0, 51, 100
2, 39360, Note_on_c, 0, 56, 80
2, 39420, Note_off_c, 0, 56, 100
2, 39424, Note_on_c, 0, 51, 80
2, 39484, Note_off_c, 0, 51, 100
2, 39488, Note_on_c, 0, 51, 80
2, 39548, Note_off_c, 0, 51, 100
2, 39552, Note_on_c, 0, 58, 80
2, 39612, Note_off_c, 0, 58, 100
2, 39616, Note_on_c, 0, 51, 80
2, 39676, Note_off_c, 0, 51, 100
2, 39680, Note_on_c, 0, 51, 80
2, 39740, Note_off_c, 0, 63, 100
2, 39740, Note_off_c, 0, 51, 100
2, 39744, Note_on_c, 0, 58, 80
2, 39744, Note_on_c, 0, 61, 80
2, 39804, Note_off_c, 0, 58, 100
2, 39808, Note_on_c, 0, 51, 80
2, 39868, Note_off_c, 0, 51, 100
2, 39872, Note_on_c, 0, 51, 80
2, 39932, Note_off_c, 0, 61, 100
2, 39932, Note_off_c, 0, 51, 100
2, 39936, Note_on_c, 0, 56, 80
2, 39936, Note_on_c, 0, 60, 80
2, 39996, Note_off_c, 0, 56, 100
2, 40000, Note_on_c, 0, 51, 80
2, 40060, Note_off_c, 0, 51, 100
2, 40064, Note_on_c, 0, 51, 80
2, 40124, Note_off_c, 0, 60, 100
2, 40124, Note_off_c, 0, 51, 100
2, 40128, Note_on_c, 0, 58, 80
2, 40128, Note_on_c, 0, 63, 80
2, 40188, Note_off_c, 0, 58, 100
2, 40192, Note_on_c, 0, 51, 80
2, 40252, Note_off_c, 0, 51, 100
2, 40256, Note_on_c, 0, 51, 80
2, 40316, Note_off_c, 0, 63, 100
2, 40316, Note_off_c, 0, 51, 100
2, 40320, Note_on_c, 0, 60, 80
2, 40320, Note_on_c, 0, 68, 80
2, 40380, Note_off_c, 0, 60, 100
2, 40384, Note_on_c, 0, 56, 80
2, 40444, Note_off_c, 0, 56, 100
2, 40448, Note_on_c, 0, 56, 80
2, 40508, Note_off_c, 0, 68, 100
2, 40508, Note_off_c, 0, 56, 100
2, 40512, Note_on_c, 0, 62, 80
2, 40512, Note_on_c, 0, 70, 80
2, 40572, Note_off_c, 0, 62, 100
2, 40576, Note_on_c, 0, 56, 80
2, 40636, Note_off_c, 0, 56, 100
2, 40640, Note_on_c, 0, 56, 80
2, 40700, Note_off_c, 0, 70, 100
2, 40700, Note_off_c, 0, 56, 100
2, 40704, Note_on_c, 0, 55, 80
2, 40704, Note_on_c, 0, 63, 80
2, 40764, Note_off_c, 0, 55, 100
2, 40768, Note_on_c, 0, 58, 80
2, 40828, Note_off_c, 0, 58, 100
2, 40832, Note_on_c, 0, 58, 80
2, 40892, Note_off_c, 0, 58, 100
2, 40896, Note_on_c, 0, 55, 80
2, 40956, Note_off_c, 0, 55, 100
2, 40960, Note_on_c, 0, 58, 80
2, 41020, Note_off_c, 0, 58, 100
2, 41024, Note_on_c, 0, 58, 80
2, 41084, Note_off_c, 0, 58, 100
2, 41088, Note_on_c, 0, 55, 80
2, 41148, Note_off_c, 0, 55, 100
2, 41152, Note_on_c, 0, 58, 80
2, 41212, Note_off_c, 0, 58, 100
2, 41216, Note_on_c, 0, 58, 80
2, 41276, Note_off_c, 0, 63, 100
2, 41276, Note_off_c, 0, 58, 100
2, 41280, Note_on_c, 0, 55, 80
2, 41280, Note_on_c, 0, 64, 80
2, 41340, Note_off_c, 0, 55, 100
2, 41344, Note_on_c, 0, 58, 80
2, 41404, Note_off_c, 0, 58, 100
2, 41408, Note_on_c, 0, 58, 80
2, 41468, Note_off_c, 0, 64, 100
2, 41468, Note_off_c, 0, 58, 100
2, 41472, Note_on_c, 0, 55, 80
2, 41472, Note_on_c, 0, 65, 80
2, 41532, Note_off_c, 0, 55, 100
2, 41536, Note_on_c, 0, 58, 80
2, 41596, Note_off_c, 0, 58, 100
2, 41600, Note_on_c, 0, 58, 80
2, 41660, Note_off_c, 0, 58, 100
2, 41664, Note_on_c, 0, 55, 80
2, 41724, Note_off_c, 0, 55, 100
2, 41728, Note_on_c, 0, 58, 80
2, 41788, Note_off_c, 0, 58, 100
2, 41792, Note_on_c, 0, 58, 80
2, 41852, Note_off_c, 0, 65, 100
2, 41852, Note_off_c, 0, 58, 100
2, 41856, Note_on_c, 0, 55, 80
2, 41856, Note_on_c, 0, 58, 80
2, 41916, Note_off_c, 0, 55, 100
2, 41920, Note_on_c, 0, 51, 80
2, 41980, Note_off_c, 0, 51, 100
2, 41984, Note_on_c, 0, 51, 80
2, 42044, Note_off_c, 0, 51, 100
2, 42048, Note_on_c, 0, 55, 80
2, 42108, Note_off_c, 0, 55, 100
2, 42112, Note_on_c, 0, 51, 80
2, 42140, Note_off_c, 0, 58, 100
2, 42144, Note_on_c, 0, 60, 80
2, 42172, Note_off_c, 0, 51, 100
2, 42176, Note_on_c, 0, 51, 80
2, 42188, Note_off_c, 0, 60, 100
2, 42192, Note_on_c, 0, 61, 80
2, 42236, Note_off_c, 0, 51, 100
2, 42236, Note_off_c, 0, 61, 100
2, 42240, Note_on_c, 0, 56, 80
2, 42240, Note_on_c, 0, 63, 80
2, 42300, Note_off_c, 0, 56, 100
2, 42304, Note_on_c, 0, 51, 80
2, 42364, Note_off_c, 0, 51, 100
2, 42368, Note_on_c, 0, 51, 80
2, 42428, Note_off_c, 0, 51, 100
2, 42432, Note_on_c, 0, 56, 80
2, 42492, Note_off_c, 0, 56, 100
2, 42496, Note_on_c, 0, 51, 80
2, 42556, Note_off_c, 0, 51, 100
2, 42560, Note_on_c, 0, 51, 80
2, 42620, Note_off_c, 0, 63, 100
2, 42620, Note_off_c, 0, 51, 100
2, 42624, Note_on_c, 0, 51, 80
2, 42624, Note_on_c, 0, 57, 80
2, 42684, Note_off_c, 0, 51, 100
2, 42688, Note_on_c, 0, 48, 80
2, 42748, Note_off_c, 0, 48, 100
2, 42752, Note_on_c, 0, 48, 80
2, 42812, Note_off_c, 0, 48, 100
2, 42816, Note_on_c, 0, 51, 80
2, 42876, Note_off_c, 0, 51, 100
2, 42880, Note_on_c, 0, 48, 80
2, 42940, Note_off_c, 0, 48, 100
2, 42944, Note_on_c, 0, 48, 80
2, 43004, Note_off_c, 0, 57, 100
2, 43004, Note_off_c, 0, 48, 100
2, 43008, Note_on_c, 0, 53, 80
2, 43008, Note_on_c, 0, 61, 80
2, 43068, Note_off_c, 0, 53, 100
2, 43072, Note_on_c, 0, 49, 80
2, 43132, Note_off_c, 0, 49, 100
2, 43136, Note_on_c, 0, 49, 80
2, 43196, Note_off_c, 0, 49, 100
2, 43200, Note_on_c, 0, 53, 80
2, 43260, Note_off_c, 0, 53, 100
2, 43264, Note_on_c, 0, 49, 80
2, 43324, Note_off_c, 0, 49, 100
2, 43328, Note_on_c, 0, 49, 80
2, 43388, Note_off_c, 0, 61, 100
2, 43388, Note_off_c, 0, 49, 100
2, 43392, Note_on_c, 0, 55, 80
2, 43392, Note_on_c, 0, 61, 80
2, 43452, Note_off_c, 0, 55, 100
2, 43452, Note_off_c, 0, 61, 100
2, 43456, Note_on_c, 0, 49, 80
2, 43456, Note_on_c, 0, 60, 80
2, 43516, Note_off_c, 0, 49, 100
2, 43516, Note_off_c, 0, 60, 100
2, 43520, Note_on_c, 0, 49, 80
2, 43520, Note_on_c, 0, 58, 80
2, 43580, Note_off_c, 0, 49, 100
2, 43580, Note_off_c, 0, 58, 100
2, 43584, Note_on_c, 0, 49, 80
2, 43584, Note_on_c, 0, 58, 80
2, 43644, Note_off_c, 0, 49, 100
2, 43644, Note_off_c, 0, 58, 100
2, 43648, Note_on_c, 0, 49, 80
2, 43648, Note_on_c, 0, 56, 80
2, 43708, Note_off_c, 0, 49, 100
2, 43708, Note_off_c, 0, 56, 100
2, 43712, Note_on_c, 0, 49, 80
2, 43712, Note_on_c, 0, 55, 80
2, 43772, Note_off_c, 0, 49, 100
2, 43772, Note_off_c, 0, 55, 100
2, 43776, Note_on_c, 0, 49, 80
2, 43776, Note_on_c, 0, 58, 80
2, 43776, Note_on_c, 0, 55, 80
2, 43836, Note_off_c, 0, 49, 100
2, 43840, Note_on_c, 0, 51, 80
2, 43900, Note_off_c, 0, 51, 100
2, 43904, Note_on_c, 0, 51, 80
2, 43964, Note_off_c, 0, 51, 100
2, 43968, Note_on_c, 0, 49, 80
2, 44028, Note_off_c, 0, 49, 100
2, 44032, Note_on_c, 0, 51, 80
2, 44092, Note_off_c, 0, 51, 100
2, 44096, Note_on_c, 0, 51, 80
2, 44156, Note_off_c, 0, 58, 100
2, 44156, Note_off_c, 0, 55, 100
2, 44156, Note_off_c, 0, 51, 100
2, 44160, Note_on_c, 0, 56, 80
2, 44160, Note_on_c, 0, 48, 80
2, 44220, Note_off_c, 0, 56, 100
2, 44220, Note_off_c, 0, 48, 100
2, 44224, Note_on_c, 0, 51, 80
2, 44284, Note_off_c, 0, 51, 100
2, 44288, Note_on_c, 0, 56, 80
2, 44348, Note_off_c, 0, 56, 100
2, 44352, Note_on_c, 0, 60, 80
2, 44412, Note_off_c, 0, 60, 100
2, 44416, Note_on_c, 0, 63, 80
2, 44476, Note_off_c, 0, 63, 100
2, 44480, Note_on_c, 0, 68, 80
2, 44540, Note_off_c, 0, 68, 100
2, 44544, Note_on_c, 0, 60, 80
2, 44544, Note_on_c, 0, 72, 96
2, 44604, Note_off_c, 0, 60, 100
2, 44608, Note_on_c, 0, 63, 80
2, 44668, Note_off_c, 0, 63, 100
2, 44672, Note_on_c, 0, 63, 80
2, 44732, Note_off_c, 0, 63, 100
2, 44736, Note_on_c, 0, 60, 80
2, 44796, Note_off_c, 0, 60, 100
2, 44800, Note_on_c, 0, 63, 80
2, 44860, Note_off_c, 0, 63, 100
2, 44864, Note_on_c, 0, 63, 80
2, 44924, Note_off_c, 0, 72, 100
2, 44924, Note_off_c, 0, 63, 100
2, 44928, Note_on_c, 0, 58, 80
2, 44928, Note_on_c, 0, 70, 94
2, 44988, Note_off_c, 0, 58, 100
2, 44992, Note_on_c, 0, 63, 80
2, 45052, Note_off_c, 0, 63, 100
2, 45056, Note_on_c, 0, 63, 80
2, 45116, Note_off_c, 0, 63, 100
2, 45120, Note_on_c, 0, 58, 80
2, 45180, Note_off_c, 0, 58, 100
2, 45184, Note_on_c, 0, 63, 80
2, 45244, Note_off_c, 0, 63, 100
2, 45248, Note_on_c, 0, 63, 80
2, 45308, Note_off_c, 0, 70, 100
2, 45308, Note_off_c, 0, 63, 100
2, 45312, Note_on_c, 0, 63, 80
2, 45312, Note_on_c, 0, 75, 93
2, 45372, Note_off_c, 0, 63, 100
2, 45376, Note_on_c, 0, 68, 80
2, 45436, Note_off_c, 0, 68, 100
2, 45440, Note_on_c, 0, 68, 80
2, 45500, Note_off_c, 0, 68, 100
2, 45504, Note_on_c, 0, 63, 80
2, 45564, Note_off_c, 0, 63, 100
2, 45568, Note_on_c, 0, 68, 80
2, 45628, Note_off_c, 0, 68, 100
2, 45632, Note_on_c, 0, 68, 80
2, 45692, Note_off_c, 0, 68, 100
2, 45696, Note_on_c, 0, 63, 80
2, 45756, Note_off_c, 0, 63, 100
2, 45760, Note_on_c, 0, 70, 80
2, 45820, Note_off_c, 0, 70, 100
2, 45824, Note_on_c, 0, 70, 80
2, 45884, Note_off_c, 0, 75, 100
2, 45884, Note_off_c, 0, 70, 100
2, 45888, Note_on_c, 0, 63, 80
2, 45888, Note_on_c, 0, 73, 96
2, 45948, Note_off_c, 0, 63, 100
2, 45952, Note_on_c, 0, 70, 80
2, 46012, Note_off_c, 0, 70, 100
2, 46016, Note_on_c, 0, 70, 80
2, 46076, Note_off_c, 0, 73, 100
2, 46076, Note_off_c, 0, 70, 100
2, 46080, Note_on_c, 0, 63, 80
2, 46080, Note_on_c, 0, 72, 99
2, 46140, Note_off_c, 0, 63, 100
2, 46144, Note_on_c, 0, 68, 80
2, 46204, Note_off_c, 0, 68, 100
2, 46208, Note_on_c, 0, 68, 80
2, 46268, Note_off_c, 0, 72, 100
2, 46268, Note_off_c, 0, 68, 100
2, 46272, Note_on_c, 0, 63, 80
2, 46272, Note_on_c, 0, 75, 102
2, 46332, Note_off_c, 0, 63, 100
2, 46336, Note_on_c, 0, 70, 80
2, 46396, Note_off_c, 0, 70, 100
2, 46400, Note_on_c, 0, 70, 80
2, 46460, Note_off_c, 0, 75, 100
2, 46460, Note_off_c, 0, 70, 100
2, 46464, Note_on_c, 0, 68, 80
2, 46464, Note_on_c, 0, 80, 105
2, 46524, Note_off_c, 0, 68, 100
2, 46528, Note_on_c, 0, 72, 80
2, 46588, Note_off_c, 0, 72, 100
2, 46592, Note_on_c, 0, 72, 80
2, 46652, Note_off_c, 0, 80, 100
2, 46652, Note_off_c, 0, 72, 100
2, 46656, Note_on_c, 0, 68, 80
2, 46656, Note_on_c, 0, 82, 107
2, 46716, Note_off_c, 0, 68, 100
2, 46720, Note_on_c, 0, 74, 80
2, 46780, Note_off_c, 0, 74, 100
2, 46784, Note_on_c, 0, 74, 80
2, 46844, Note_off_c, 0, 82, 100
2, 46844, Note_off_c, 0, 74, 100
2, 46848, Note_on_c, 0, 67, 80
2, 46848, Note_on_c, 0, 75, 104
2, 46908, Note_off_c, 0, 67, 100
2, 46912, Note_on_c, 0, 70, 80
2, 46972, Note_off_c, 0, 70, 100
2, 46976, Note_on_c, 0, 70, 80
2, 47036, Note_off_c, 0, 70, 100
2, 47040, Note_on_c, 0, 67, 80
2, 47100, Note_off_c, 0, 67, 100
2, 47104, Note_on_c, 0, 70, 80
2, 47164, Note_off_c, 0, 70, 100
2, 47168, Note_on_c, 0, 70, 80
2, 47228, Note_off_c, 0, 70, 100
2, 47232, Note_on_c, 0, 67, 80
2, 47292, Note_off_c, 0, 67, 100
2, 47296, Note_on_c, 0, 70, 80
2, 47356, Note_off_c, 0, 70, 100
2, 47360, Note_on_c, 0, 70, 80
2, 47420, Note_off_c, 0, 75, 100
2, 47420, Note_off_c, 0, 70, 100
2, 47424, Note_on_c, 0, 67, 80
2, 47424, Note_on_c, 0, 76, 96
2, 47484, Note_off_c, 0, 67, 100
2, 47488, Note_on_c, 0, 70, 80
2, 47548, Note_off_c, 0, 70, 100
2, 47552, Note_on_c, 0, 70, 80
2, 47612, Note_off_c, 0, 76, 100
2, 47612, Note_off_c, 0, 70, 100
2, 47616, Note_on_c, 0, 67, 80
2, 47616, Note_on_c, 0, 77, 95
2, 47676, Note_off_c, 0, 67, 100
2, 47680, Note_on_c, 0, 70, 80
2, 47740, Note_off_c, 0, 70, 100
2, 47744, Note_on_c, 0, 70, 80
2, 47804, Note_off_c, 0, 70, 100
2, 47808, Note_on_c, 0, 67, 80
2, 47868, Note_off_c, 0, 67, 100
2, 47872, Note_on_c, 0, 70, 80
2, 47932, Note_off_c, 0, 70, 100
2, 47936, Note_on_c, 0, 70, 80
2, 47996, Note_off_c, 0, 77, 100
2, 47996, Note_off_c, 0, 70, 100
2, 48000, Note_on_c, 0, 67, 80
2, 48000, Note_on_c, 0, 70, 95
2, 48060, Note_off_c, 0, 67, 100
2, 48064, Note_on_c, 0, 63, 80
2, 48124, Note_off_c, 0, 63, 100
2, 48128, Note_on_c, 0, 63, 80
2, 48188, Note_off_c, 0, 63, 100
2, 48192, Note_on_c, 0, 67, 80
2, 48252, Note_off_c, 0, 67, 100
2, 48256, Note_on_c, 0, 63, 80
2, 48284, Note_off_c, 0, 70, 100
2, 48288, Note_on_c, 0, 72, 97
2, 48316, Note_off_c, 0, 63, 100
2, 48320, Note_on_c, 0, 63, 80
2, 48332, Note_off_c, 0, 72, 100
2, 48336, Note_on_c, 0, 73, 94
2, 48380, Note_off_c, 0, 63, 100
2, 48380, Note_off_c, 0, 73, 100
2, 48384, Note_on_c, 0, 68, 80
2, 48384, Note_on_c, 0, 75, 96
2, 48444, Note_off_c, 0, 68, 100
2, 48448, Note_on_c, 0, 63, 80
2, 48508, Note_off_c, 0, 63, 100
2, 48512, Note_on_c, 0, 63, 80
2, 48572, Note_off_c, 0, 63, 100
2, 48576, Note_on_c, 0, 68, 80
2, 48636, Note_off_c, 0, 68, 100
2, 48640, Note_on_c, 0, 63, 80
2, 48700, Note_off_c, 0, 63, 100
2, 48704, Note_on_c, 0, 63, 80
2, 48764, Note_off_c, 0, 75, 100
2, 48764, Note_off_c, 0, 63, 100
2, 48768, Note_on_c, 0, 63, 80
2, 48768, Note_on_c, 0, 69, 94
2, 48828, Note_off_c, 0, 63, 100
2, 48832, Note_on_c, 0, 60, 80
2, 48892, Note_off_c, 0, 60, 100
2, 48896, Note_on_c, 0, 60, 80
2, 48956, Note_off_c, 0, 60, 100
2, 48960, Note_on_c, 0, 63, 80
2, 49020, Note_off_c, 0, 63, 100
2, 49024, Note_on_c, 0, 60, 80
2, 49084, Note_off_c, 0, 60, 100
2, 49088, Note_on_c, 0, 60, 80
2, 49148, Note_off_c, 0, 69, 100
2, 49148, Note_off_c, 0, 60, 100
2, 49152, Note_on_c, 0, 65, 80
2, 49152, Note_on_c, 0, 73, 101
2, 49212, Note_off_c, 0, 65, 100
2, 49216, Note_on_c, 0, 61, 80
2, 49276, Note_off_c, 0, 61, 100
2, 49280, Note_on_c, 0, 61, 80
2, 49340, Note_off_c, 0, 61, 100
2, 49344, Note_on_c, 0, 65, 80
2, 49404, Note_off_c, 0, 65, 100
2, 49408, Note_on_c, 0, 61, 80
2, 49468, Note_off_c, 0, 61, 100
2, 49472, Note_on_c, 0, 61, 80
2, 49532, Note_off_c, 0, 73, 100
2, 49532, Note_off_c, 0, 61, 100
2, 49536, Note_on_c, 0, 67, 80
2, 49536, Note_on_c, 0, 73, 96
2, 49596, Note_off_c, 0, 67, 100
2, 49596, Note_off_c, 0, 73, 100
2, 49600, Note_on_c, 0, 61, 80
2, 49600, Note_on_c, 0, 72, 91
2, 49660, Note_off_c, 0, 61, 100
2, 49660, Note_off_c, 0, 72, 100
2, 49664, Note_on_c, 0, 61, 80
2, 49664, Note_on_c, 0, 70, 91
2, 49724, Note_off_c, 0, 61, 100
2, 49724, Note_off_c, 0, 70, 100
2, 49728, Note_on_c, 0, 61, 80
2, 49728, Note_on_c, 0, 70, 93
2, 49788, Note_off_c, 0, 61, 100
2, 49788, Note_off_c, 0, 70, 100
2, 49792, Note_on_c, 0, 61, 80
2, 49792, Note_on_c, 0, 68, 92
2, 49852, Note_off_c, 0, 61, 100
2, 49852, Note_off_c, 0, 68, 100
2, 49856, Note_on_c, 0, 61, 80
2, 49856, Note_on_c, 0, 67, 93
2, 49916, Note_off_c, 0, 61, 100
2, 49916, Note_off_c, 0, 67, 100
2, 49920, Note_on_c, 0, 68, 80
2, 49920, Note_on_c, 0, 60, 80
2, 50108, Note_off_c, 0, 68, 100
2, 50108, Note_off_c, 0, 60, 100
2, 50496, Note_on_c, 0, 75, 80
2, 50636, Note_off_c, 0, 75, 100
2, 50640, Note_on_c, 0, 76, 80
2, 50684, Note_off_c, 0, 76, 100
2, 50688, Note_on_c, 0, 77, 80
2, 50940, Note_off_c, 0, 77, 100
2, 50944, Note_on_c, 0, 75, 80
2, 51004, Note_off_c, 0, 75, 100
2, 51008, Note_on_c, 0, 73, 80
2, 51068, Note_off_c, 0, 73, 100
2, 51072, Note_on_c, 0, 72, 80
2, 51132, Note_off_c, 0, 72, 100
2, 51136, Note_on_c, 0, 70, 80
2, 51196, Note_off_c, 0, 70, 100
2, 51200, Note_on_c, 0, 68, 80
2, 51260, Note_off_c, 0, 68, 100
2, 51264, Note_on_c, 0, 67, 80
2, 51308, Note_off_c, 0, 67, 100
2, 51312, Note_on_c, 0, 73, 80
2, 51356, Note_off_c, 0, 73, 100
2, 51360, Note_on_c, 0, 70, 80
2, 51404, Note_off_c, 0, 70, 100
2, 51408, Note_on_c, 0, 67, 80
2, 51452, Note_off_c, 0, 67, 100
2, 51456, Note_on_c, 0, 68, 80
2, 51500, Note_off_c, 0, 68, 100
2, 51504, Note_on_c, 0, 70, 80
2, 51520, Note_on_c, 0, 68, 80
2, 51532, Note_off_c, 0, 70, 100
2, 51536, Note_on_c, 0, 67, 80
2, 51548, Note_off_c, 0, 68, 100
2, 51552, Note_on_c, 0, 68, 80
2, 51564, Note_off_c, 0, 67, 100
2, 51596, Note_off_c, 0, 68, 100
2, 51600, Note_on_c, 0, 72, 80
2, 51644, Note_off_c, 0, 72, 100
2, 51648, Note_on_c, 0, 63, 80
2, 51836, Note_off_c, 0, 63, 100
2, 52032, Note_on_c, 0, 75, 80
2, 52032, Note_on_c, 0, 87, 80
2, 52172, Note_off_c, 0, 75, 100
2, 52172, Note_off_c, 0, 87, 100
2, 52176, Note_on_c, 0, 76, 92
2, 52176, Note_on_c, 0, 88, 92
2, 52220, Note_off_c, 0, 76, 100
2, 52220, Note_off_c, 0, 88, 100
2, 52224, Note_on_c, 0, 77, 105
2, 52224, Note_on_c, 0, 89, 105
2, 52476, Note_off_c, 0, 77, 100
2, 52476, Note_off_c, 0, 89, 100
2, 52480, Note_on_c, 0, 87, 93
2, 52480, Note_on_c, 0, 75, 91
2, 52540, Note_off_c, 0, 87, 100
2, 52540, Note_off_c, 0, 75, 100
2, 52544, Note_on_c, 0, 73, 84
2, 52544, Note_on_c, 0, 85, 84
2, 52604, Note_off_c, 0, 73, 100
2, 52604, Note_off_c, 0, 85, 100
2, 52608, Note_on_c, 0, 72, 90
2, 52608, Note_on_c, 0, 84, 90
2, 52668, Note_off_c, 0, 72, 100
2, 52668, Note_off_c, 0, 84, 100
2, 52672, Note_on_c, 0, 70, 89
2, 52672, Note_on_c, 0, 82, 89
2, 52732, Note_off_c, 0, 70, 100
2, 52732, Note_off_c, 0, 82, 100
2, 52736, Note_on_c, 0, 68, 87
2, 52736, Note_on_c, 0, 80, 87
2, 52796, Note_off_c, 0, 68, 100
2, 52796, Note_off_c, 0, 80, 100
2, 52800, Note_on_c, 0, 67, 85
2, 52800, Note_on_c, 0, 79, 85
2, 52860, Note_off_c, 0, 67, 100
2, 52860, Note_off_c, 0, 79, 100
2, 52864, Note_on_c, 0, 73, 83
2, 52864, Note_on_c, 0, 85, 83
2, 52924, Note_off_c, 0, 73, 100
2, 52924, Note_off_c, 0, 85, 100
2, 52928, Note_on_c, 0, 67, 81
2, 52928, Note_on_c, 0, 79, 81
2, 52988, Note_off_c, 0, 67, 100
2, 52988, Note_off_c, 0, 79, 100
2, 52992, Note_on_c, 0, 80, 80
2, 52992, Note_on_c, 0, 68, 80
2, 53180, Note_off_c, 0, 80, 100
2, 53180, Note_off_c, 0, 68, 100
2, 53376, Note_on_c, 0, 75, 80
2, 53388, Note_off_c, 0, 75, 100
2, 53392, Note_on_c, 0, 73, 80
2, 53436, Note_off_c, 0, 73, 100
2, 53440, Note_on_c, 0, 72, 80
2, 53500, Note_off_c, 0, 72, 100
2, 53504, Note_on_c, 0, 73, 80
2, 53564, Note_off_c, 0, 73, 100
2, 53568, Note_on_c, 0, 77, 80
2, 53628, Note_off_c, 0, 77, 100
2, 53632, Note_on_c, 0, 75, 80
2, 53692, Note_off_c, 0, 75, 100
2, 53696, Note_on_c, 0, 73, 80
2, 53756, Note_off_c, 0, 73, 100
2, 53760, Note_on_c, 0, 72, 80
2, 53948, Note_off_c, 0, 72, 100
2, 54144, Note_on_c, 0, 72, 80
2, 54144, Note_on_c, 0, 67, 80
2, 54156, Note_off_c, 0, 72, 100
2, 54160, Note_on_c, 0, 70, 80
2, 54204, Note_off_c, 0, 70, 100
2, 54208, Note_on_c, 0, 69, 80
2, 54268, Note_off_c, 0, 69, 100
2, 54272, Note_on_c, 0, 70, 80
2, 54332, Note_off_c, 0, 70, 100
2, 54336, Note_on_c, 0, 73, 80
2, 54396, Note_off_c, 0, 73, 100
2, 54400, Note_on_c, 0, 72, 80
2, 54460, Note_off_c, 0, 72, 100
2, 54464, Note_on_c, 0, 70, 80
2, 54524, Note_off_c, 0, 67, 100
2, 54524, Note_off_c, 0, 70, 100
2, 54528, Note_on_c, 0, 68, 80
2, 54716, Note_off_c, 0, 68, 100
2, 54912, Note_on_c, 0, 60, 80
2, 54912, Note_on_c, 0, 55, 80
2, 54924, Note_off_c, 0, 60, 100
2, 54928, Note_on_c, 0, 58, 80
2, 54972, Note_off_c, 0, 58, 100
2, 54976, Note_on_c, 0, 57, 80
2, 55036, Note_off_c, 0, 57, 100
2, 55040, Note_on_c, 0, 58, 80
2, 55100, Note_off_c, 0, 58, 100
2, 55104, Note_on_c, 0, 61, 80
2, 55164, Note_off_c, 0, 61, 100
2, 55168, Note_on_c, 0, 60, 80
2, 55228, Note_off_c, 0, 60, 100
2, 55232, Note_on_c, 0, 58, 80
2, 55292, Note_off_c, 0, 55, 100
2, 55292, Note_off_c, 0, 58, 100
2, 55296, Note_on_c, 0, 56, 80
2, 55388, Note_off_c, 0, 56, 100
2, 55488, Note_on_c, 0, 56, 70
2, 55488, Note_on_c, 0, 51, 70
2, 55488, Note_on_c, 0, 48, 70
2, 55580, Note_off_c, 0, 56, 100
2, 55580, Note_off_c, 0, 51, 100
2, 55580, Note_off_c, 0, 48, 100
2, 55680, Note_on_c, 0, 56, 70
2, 55680, Note_on_c, 0, 48, 70
2, 56060, Note_off_c, 0, 56, 100
2, 56060, Note_off_c, 0, 48, 100
2, 56256, Control_c, 0, 7, 0
2, 56448, Note_on_c, 0, 56, 1
2, 56636, Note_off_c, 0, 56, 100
2, 56636, End_track
3, 0, Start_track
3, 0, Title_t, "Left"
3, 0, Control_c, 1, 0, 0
3, 0, Program_c, 1, 0
3, 0, Control_c, 1, 7, 100
3, 0, Control_c, 1, 10, 54
3, 0, Control_c, 1, 91, 127
3, 0, Key_signature, -4, "major"
3, 0, Note_on_c, 1, 44, 80
3, 380, Note_off_c, 1, 44, 100
3, 384, Note_on_c, 1, 49, 80
3, 764, Note_off_c, 1, 49, 100
3, 768, Note_on_c, 1, 48, 80
3, 1148, Note_off_c, 1, 48, 100
3, 1152, Note_on_c, 1, 43, 80
3, 1532, Note_off_c, 1, 43, 100
3, 1536, Note_on_c, 1, 44, 80
3, 1724, Note_off_c, 1, 44, 100
3, 1728, Note_on_c, 1, 43, 80
3, 1916, Note_off_c, 1, 43, 100
3, 1920, Note_on_c, 1, 41, 80
3, 2108, Note_off_c, 1, 41, 100
3, 2112, Note_on_c, 1, 53, 80
3, 2300, Note_off_c, 1, 53, 100
3, 2304, Note_on_c, 1, 51, 80
3, 2684, Note_off_c, 1, 51, 100
3, 2688, Note_on_c, 1, 39, 80
3, 3068, Note_off_c, 1, 39, 100
3, 3072, Note_on_c, 1, 37, 80
3, 3452, Note_off_c, 1, 37, 100
3, 3456, Note_on_c, 1, 49, 80
3, 3836, Note_off_c, 1, 49, 100
3, 3840, Note_on_c, 1, 48, 80
3, 4220, Note_off_c, 1, 48, 100
3, 4224, Note_on_c, 1, 41, 80
3, 4604, Note_off_c, 1, 41, 100
3, 4608, Note_on_c, 1, 34, 80
3, 4988, Note_off_c, 1, 34, 100
3, 4992, Note_on_c, 1, 39, 80
3, 5372, Note_off_c, 1, 39, 100
3, 5376, Note_on_c, 1, 32, 80
3, 5564, Note_off_c, 1, 32, 100
3, 5568, Note_on_c, 1, 46, 80
3, 5756, Note_off_c, 1, 46, 100
3, 5760, Note_on_c, 1, 32, 80
3, 5948, Note_off_c, 1, 32, 100
3, 6144, Note_on_c, 1, 44, 80
3, 6144, Note_on_c, 1, 56, 80
3, 6236, Note_off_c, 1, 56, 100
3, 6240, Note_on_c, 1, 51, 80
3, 6332, Note_off_c, 1, 51, 100
3, 6336, Note_on_c, 1, 56, 80
3, 6428, Note_off_c, 1, 56, 100
3, 6432, Note_on_c, 1, 51, 80
3, 6524, Note_off_c, 1, 44, 100
3, 6524, Note_off_c, 1, 51, 100
3, 6528, Note_on_c, 1, 49, 80
3, 6528, Note_on_c, 1, 55, 80
3, 6620, Note_off_c, 1, 55, 100
3, 6624, Note_on_c, 1, 51, 80
3, 6716, Note_off_c, 1, 51, 100
3, 6720, Note_on_c, 1, 55, 80
3, 6812, Note_off_c, 1, 55, 100
3, 6816, Note_on_c, 1, 51, 80
3, 6908, Note_off_c, 1, 49, 100
3, 6908, Note_off_c, 1, 51, 100
3, 6912, Note_on_c, 1, 48, 80
3, 6912, Note_on_c, 1, 56, 80
3, 7004, Note_off_c, 1, 56, 100
3, 7008, Note_on_c, 1, 51, 80
3, 7100, Note_off_c, 1, 51, 100
3, 7104, Note_on_c, 1, 56, 80
3, 7196, Note_off_c, 1, 56, 100
3, 7200, Note_on_c, 1, 51, 80
3, 7292, Note_off_c, 1, 48, 100
3, 7292, Note_off_c, 1, 51, 100
3, 7296, Note_on_c, 1, 43, 80
3, 7296, Note_on_c, 1, 55, 80
3, 7388, Note_off_c, 1, 55, 100
3, 7392, Note_on_c, 1, 51, 80
3, 7484, Note_off_c, 1, 51, 100
3, 7488, Note_on_c, 1, 55, 80
3, 7580, Note_off_c, 1, 55, 100
3, 7584, Note_on_c, 1, 51, 80
3, 7676, Note_off_c, 1, 43, 100
3, 7676, Note_off_c, 1, 51, 100
3, 7680, Note_on_c, 1, 44, 80
3, 7680, Note_on_c, 1, 56, 80
3, 7772, Note_off_c, 1, 56, 100
3, 7776, Note_on_c, 1, 51, 80
3, 7868, Note_off_c, 1, 44, 100
3, 7868, Note_off_c, 1, 51, 100
3, 7872, Note_on_c, 1, 43, 80
3, 7872, Note_on_c, 1, 55, 80
3, 7964, Note_off_c, 1, 55, 100
3, 7968, Note_on_c, 1, 51, 80
3, 8060, Note_off_c, 1, 43, 100
3, 8060, Note_off_c, 1, 51, 100
3, 8064, Note_on_c, 1, 41, 80
3, 8064, Note_on_c, 1, 53, 80
3, 8156, Note_off_c, 1, 53, 100
3, 8160, Note_on_c, 1, 44, 80
3, 8252, Note_off_c, 1, 41, 100
3, 8252, Note_off_c, 1, 44, 100
3, 8256, Note_on_c, 1, 41, 80
3, 8256, Note_on_c, 1, 53, 80
3, 8348, Note_off_c, 1, 53, 100
3, 8352, Note_on_c, 1, 44, 80
3, 8444, Note_off_c, 1, 41, 100
3, 8444, Note_off_c, 1, 44, 100
3, 8448, Note_on_c, 1, 39, 80
3, 8540, Note_off_c, 1, 39, 100
3, 8544, Note_on_c, 1, 43, 80
3, 8636, Note_off_c, 1, 43, 100
3, 8640, Note_on_c, 1, 46, 80
3, 8732, Note_off_c, 1, 46, 100
3, 8736, Note_on_c, 1, 51, 80
3, 8828, Note_off_c, 1, 51, 100
3, 8832, Note_on_c, 1, 55, 80
3, 8924, Note_off_c, 1, 55, 100
3, 8928, Note_on_c, 1, 58, 80
3, 9020, Note_off_c, 1, 58, 100
3, 9024, Note_on_c, 1, 55, 80
3, 9116, Note_off_c, 1, 55, 100
3, 9120, Note_on_c, 1, 58, 80
3, 9212, Note_off_c, 1, 58, 100
3, 9216, Note_on_c, 1, 37, 80
3, 9308, Note_off_c, 1, 37, 100
3, 9312, Note_on_c, 1, 43, 80
3, 9404, Note_off_c, 1, 43, 100
3, 9408, Note_on_c, 1, 46, 80
3, 9500, Note_off_c, 1, 46, 100
3, 9504, Note_on_c, 1, 49, 80
3, 9596, Note_off_c, 1, 49, 100
3, 9600, Note_on_c, 1, 55, 80
3, 9692, Note_off_c, 1, 55, 100
3, 9696, Note_on_c, 1, 58, 80
3, 9788, Note_off_c, 1, 58, 100
3, 9792, Note_on_c, 1, 55, 80
3, 9884, Note_off_c, 1, 55, 100
3, 9888, Note_on_c, 1, 49, 80
3, 9980, Note_off_c, 1, 49, 100
3, 9984, Note_on_c, 1, 48, 80
3, 10080, Note_on_c, 1, 51, 80
3, 10172, Note_off_c, 1, 51, 100
3, 10176, Note_on_c, 1, 48, 80
3, 10268, Note_off_c, 1, 48, 100
3, 10272, Note_on_c, 1, 51, 80
3, 10364, Note_off_c, 1, 48, 100
3, 10364, Note_off_c, 1, 51, 100
3, 10368, Note_on_c, 1, 41, 80
3, 10368, Note_on_c, 1, 48, 80
3, 10460, Note_off_c, 1, 48, 100
3, 10464, Note_on_c, 1, 53, 80
3, 10556, Note_off_c, 1, 53, 100
3, 10560, Note_on_c, 1, 48, 80
3, 10652, Note_off_c, 1, 48, 100
3, 10656, Note_on_c, 1, 53, 80
3, 10748, Note_off_c, 1, 41, 100
3, 10748, Note_off_c, 1, 53, 100
3, 10752, Note_on_c, 1, 46, 80
3, 10752, Note_on_c, 1, 49, 80
3, 10844, Note_off_c, 1, 49, 100
3, 10848, Note_on_c, 1, 53, 80
3, 10940, Note_off_c, 1, 53, 100
3, 10944, Note_on_c, 1, 49, 80
3, 11036, Note_off_c, 1, 49, 100
3, 11040, Note_on_c, 1, 53, 80
3, 11132, Note_off_c, 1, 46, 100
3, 11132, Note_off_c, 1, 53, 100
3, 11136, Note_on_c, 1, 39, 80
3, 11136, Note_on_c, 1, 46, 80
3, 11228, Note_off_c, 1, 46, 100
3, 11232, Note_on_c, 1, 51, 80
3, 11324, Note_off_c, 1, 51, 100
3, 11328, Note_on_c, 1, 46, 80
3, 11420, Note_off_c, 1, 46, 100
3, 11424, Note_on_c, 1, 51, 80
3, 11516, Note_off_c, 1, 39, 100
3, 11516, Note_off_c, 1, 51, 100
3, 11520, Note_on_c, 1, 44, 80
3, 11616, Note_on_c, 1, 51, 80
3, 11708, Note_off_c, 1, 51, 100
3, 11712, Note_on_c, 1, 55, 80
3, 11804, Note_off_c, 1, 55, 100
3, 11808, Note_on_c, 1, 51, 80
3, 11900, Note_off_c, 1, 51, 100
3, 11904, Note_on_c, 1, 56, 80
3, 12092, Note_off_c, 1, 44, 100
3, 12092, Note_off_c, 1, 56, 100
3, 12384, Note_on_c, 1, 60, 80
3, 12476, Note_off_c, 1, 60, 100
3, 12480, Note_on_c, 1, 60, 80
3, 12572, Note_off_c, 1, 60, 100
3, 12576, Note_on_c, 1, 60, 80
3, 12668, Note_off_c, 1, 60, 100
3, 12672, Note_on_c, 1, 60, 80
3, 12764, Note_off_c, 1, 60, 100
3, 12768, Note_on_c, 1, 60, 80
3, 12860, Note_off_c, 1, 60, 100
3, 12864, Note_on_c, 1, 60, 80
3, 12956, Note_off_c, 1, 60, 100
3, 12960, Note_on_c, 1, 60, 80
3, 13052, Note_off_c, 1, 60, 100
3, 13056, Note_on_c, 1, 60, 80
3, 13056, Note_on_c, 1, 55, 80
3, 13056, Note_on_c, 1, 52, 80
3, 13148, Note_off_c, 1, 60, 100
3, 13148, Note_off_c, 1, 55, 100
3, 13148, Note_off_c, 1, 52, 100
3, 13152, Note_on_c, 1, 60, 80
3, 13152, Note_on_c, 1, 55, 80
3, 13152, Note_on_c, 1, 52, 80
3, 13244, Note_off_c, 1, 60, 100
3, 13244, Note_off_c, 1, 55, 100
3, 13244, Note_off_c, 1, 52, 100
3, 13248, Note_on_c, 1, 60, 80
3, 13248, Note_on_c, 1, 55, 80
3, 13248, Note_on_c, 1, 52, 80
3, 13340, Note_off_c, 1, 60, 100
3, 13340, Note_off_c, 1, 55, 100
3, 13340, Note_off_c, 1, 52, 100
3, 13344, Note_on_c, 1, 60, 80
3, 13344, Note_on_c, 1, 55, 80
3, 13344, Note_on_c, 1, 52, 80
3, 13436, Note_off_c, 1, 60, 100
3, 13436, Note_off_c, 1, 55, 100
3, 13436, Note_off_c, 1, 52, 100
3, 13440, Note_on_c, 1, 60, 80
3, 13440, Note_on_c, 1, 56, 80
3, 13440, Note_on_c, 1, 53, 80
3, 13532, Note_off_c, 1, 60, 100
3, 13532, Note_off_c, 1, 56, 100
3, 13532, Note_off_c, 1, 53, 100
3, 13536, Note_on_c, 1, 60, 80
3, 13536, Note_on_c, 1, 56, 80
3, 13536, Note_on_c, 1, 53, 80
3, 13628, Note_off_c, 1, 60, 100
3, 13628, Note_off_c, 1, 56, 100
3, 13628, Note_off_c, 1, 53, 100
3, 13632, Note_on_c, 1, 60, 80
3, 13632, Note_on_c, 1, 56, 80
3, 13632, Note_on_c, 1, 53, 80
3, 13724, Note_off_c, 1, 60, 100
3, 13724, Note_off_c, 1, 56, 100
3, 13724, Note_off_c, 1, 53, 100
3, 13728, Note_on_c, 1, 60, 80
3, 13728, Note_on_c, 1, 56, 80
3, 13728, Note_on_c, 1, 53, 80
3, 13820, Note_off_c, 1, 60, 100
3, 13820, Note_off_c, 1, 56, 100
3, 13820, Note_off_c, 1, 53, 100
3, 13824, Note_on_c, 1, 64, 80
3, 13824, Note_on_c, 1, 58, 80
3, 13824, Note_on_c, 1, 55, 80
3, 13916, Note_off_c, 1, 64, 100
3, 13916, Note_off_c, 1, 58, 100
3, 13916, Note_off_c, 1, 55, 100
3, 13920, Note_on_c, 1, 64, 80
3, 13920, Note_on_c, 1, 58, 80
3, 13920, Note_on_c, 1, 55, 80
3, 14012, Note_off_c, 1, 64, 100
3, 14012, Note_off_c, 1, 58, 100
3, 14012, Note_off_c, 1, 55, 100
3, 14016, Note_on_c, 1, 64, 80
3, 14016, Note_on_c, 1, 58, 80
3, 14016, Note_on_c, 1, 55, 80
3, 14108, Note_off_c, 1, 64, 100
3, 14108, Note_off_c, 1, 58, 100
3, 14108, Note_off_c, 1, 55, 100
3, 14112, Note_on_c, 1, 64, 80
3, 14112, Note_on_c, 1, 58, 80
3, 14112, Note_on_c, 1, 55, 80
3, 14204, Note_off_c, 1, 64, 100
3, 14204, Note_off_c, 1, 58, 100
3, 14204, Note_off_c, 1, 55, 100
3, 14208, Note_on_c, 1, 65, 80
3, 14208, Note_on_c, 1, 60, 80
3, 14208, Note_on_c, 1, 56, 80
3, 14300, Note_off_c, 1, 65, 100
3, 14300, Note_off_c, 1, 60, 100
3, 14300, Note_off_c, 1, 56, 100
3, 14304, Note_on_c, 1, 65, 80
3, 14304, Note_on_c, 1, 60, 80
3, 14304, Note_on_c, 1, 56, 80
3, 14396, Note_off_c, 1, 65, 100
3, 14396, Note_off_c, 1, 60, 100
3, 14396, Note_off_c, 1, 56, 100
3, 14400, Note_on_c, 1, 65, 80
3, 14400, Note_on_c, 1, 60, 80
3, 14400, Note_on_c, 1, 56, 80
3, 14492, Note_off_c, 1, 65, 100
3, 14492, Note_off_c, 1, 60, 100
3, 14492, Note_off_c, 1, 56, 100
3, 14496, Note_on_c, 1, 65, 80
3, 14496, Note_on_c, 1, 60, 80
3, 14496, Note_on_c, 1, 56, 80
3, 14588, Note_off_c, 1, 65, 100
3, 14588, Note_off_c, 1, 60, 100
3, 14588, Note_off_c, 1, 56, 100
3, 14592, Note_on_c, 1, 65, 80
3, 14592, Note_on_c, 1, 68, 80
3, 14592, Note_on_c, 1, 58, 80
3, 14684, Note_off_c, 1, 65, 100
3, 14684, Note_off_c, 1, 68, 100
3, 14684, Note_off_c, 1, 58, 100
3, 14688, Note_on_c, 1, 65, 80
3, 14688, Note_on_c, 1, 68, 80
3, 14688, Note_on_c, 1, 58, 80
3, 14780, Note_off_c, 1, 65, 100
3, 14780, Note_off_c, 1, 68, 100
3, 14780, Note_off_c, 1, 58, 100
3, 14784, Note_on_c, 1, 65, 80
3, 14784, Note_on_c, 1, 68, 80
3, 14784, Note_on_c, 1, 58, 80
3, 14876, Note_off_c, 1, 65, 100
3, 14876, Note_off_c, 1, 68, 100
3, 14876, Note_off_c, 1, 58, 100
3, 14880, Note_on_c, 1, 65, 80
3, 14880, Note_on_c, 1, 68, 80
3, 14880, Note_on_c, 1, 58, 80
3, 14972, Note_off_c, 1, 65, 100
3, 14972, Note_off_c, 1, 68, 100
3, 14972, Note_off_c, 1, 58, 100
3, 14976, Note_on_c, 1, 68, 80
3, 14976, Note_on_c, 1, 59, 80
3, 14976, Note_on_c, 1, 65, 80
3, 15068, Note_off_c, 1, 68, 100
3, 15068, Note_off_c, 1, 59, 100
3, 15068, Note_off_c, 1, 65, 100
3, 15072, Note_on_c, 1, 68, 80
3, 15072, Note_on_c, 1, 59, 80
3, 15072, Note_on_c, 1, 65, 80
3, 15164, Note_off_c, 1, 68, 100
3, 15164, Note_off_c, 1, 59, 100
3, 15164, Note_off_c, 1, 65, 100
3, 15168, Note_on_c, 1, 68, 80
3, 15168, Note_on_c, 1, 62, 80
3, 15168, Note_on_c, 1, 59, 80
3, 15260, Note_off_c, 1, 68, 100
3, 15260, Note_off_c, 1, 62, 100
3, 15260, Note_off_c, 1, 59, 100
3, 15264, Note_on_c, 1, 68, 80
3, 15264, Note_on_c, 1, 62, 80
3, 15264, Note_on_c, 1, 59, 80
3, 15356, Note_off_c, 1, 68, 100
3, 15356, Note_off_c, 1, 62, 100
3, 15356, Note_off_c, 1, 59, 100
3, 15360, Note_on_c, 1, 67, 80
3, 15360, Note_on_c, 1, 63, 80
3, 15360, Note_on_c, 1, 60, 80
3, 15452, Note_off_c, 1, 67, 100
3, 15452, Note_off_c, 1, 63, 100
3, 15452, Note_off_c, 1, 60, 100
3, 15456, Note_on_c, 1, 67, 80
3, 15456, Note_on_c, 1, 63, 80
3, 15456, Note_on_c, 1, 60, 80
3, 15548, Note_off_c, 1, 67, 100
3, 15548, Note_off_c, 1, 63, 100
3, 15548, Note_off_c, 1, 60, 100
3, 15552, Note_on_c, 1, 67, 80
3, 15552, Note_on_c, 1, 63, 80
3, 15552, Note_on_c, 1, 60, 80
3, 15644, Note_off_c, 1, 67, 100
3, 15644, Note_off_c, 1, 63, 100
3, 15644, Note_off_c, 1, 60, 100
3, 15648, Note_on_c, 1, 67, 80
3, 15648, Note_on_c, 1, 63, 80
3, 15648, Note_on_c, 1, 60, 80
3, 15740, Note_off_c, 1, 67, 100
3, 15740, Note_off_c, 1, 63, 100
3, 15740, Note_off_c, 1, 60, 100
3, 15744, Note_on_c, 1, 56, 80
3, 15744, Note_on_c, 1, 63, 80
3, 15836, Note_off_c, 1, 56, 100
3, 15836, Note_off_c, 1, 63, 100
3, 15840, Note_on_c, 1, 56, 80
3, 15840, Note_on_c, 1, 63, 80
3, 15932, Note_off_c, 1, 56, 100
3, 15932, Note_off_c, 1, 63, 100
3, 15936, Note_on_c, 1, 56, 80
3, 15936, Note_on_c, 1, 63, 80
3, 16028, Note_off_c, 1, 56, 100
3, 16028, Note_off_c, 1, 63, 100
3, 16032, Note_on_c, 1, 56, 80
3, 16032, Note_on_c, 1, 63, 80
3, 16124, Note_off_c, 1, 56, 100
3, 16124, Note_off_c, 1, 63, 100
3, 16224, Note_on_c, 1, 58, 80
3, 16224, Note_on_c, 1, 63, 80
3, 16224, Note_on_c, 1, 67, 80
3, 16316, Note_off_c, 1, 58, 100
3, 16316, Note_off_c, 1, 63, 100
3, 16316, Note_off_c, 1, 67, 100
3, 16320, Note_on_c, 1, 58, 80
3, 16320, Note_on_c, 1, 63, 80
3, 16320, Note_on_c, 1, 67, 80
3, 16412, Note_off_c, 1, 58, 100
3, 16412, Note_off_c, 1, 63, 100
3, 16412, Note_off_c, 1, 67, 100
3, 16416, Note_on_c, 1, 58, 80
3, 16416, Note_on_c, 1, 63, 80
3, 16416, Note_on_c, 1, 67, 80
3, 16508, Note_off_c, 1, 58, 100
3, 16508, Note_off_c, 1, 63, 100
3, 16508, Note_off_c, 1, 67, 100
3, 16608, Note_on_c, 1, 56, 80
3, 16608, Note_on_c, 1, 50, 80
3, 16608, Note_on_c, 1, 46, 80
3, 16700, Note_off_c, 1, 56, 100
3, 16700, Note_off_c, 1, 50, 100
3, 16700, Note_off_c, 1, 46, 100
3, 16704, Note_on_c, 1, 56, 80
3, 16704, Note_on_c, 1, 50, 80
3, 16704, Note_on_c, 1, 46, 80
3, 16796, Note_off_c, 1, 56, 100
3, 16796, Note_off_c, 1, 50, 100
3, 16796, Note_off_c, 1, 46, 100
3, 16800, Note_on_c, 1, 56, 80
3, 16800, Note_on_c, 1, 50, 80
3, 16800, Note_on_c, 1, 46, 80
3, 16892, Note_off_c, 1, 56, 100
3, 16892, Note_off_c, 1, 50, 100
3, 16892, Note_off_c, 1, 46, 100
3, 16896, Note_on_c, 1, 55, 80
3, 16896, Note_on_c, 1, 51, 80
3, 17084, Note_off_c, 1, 55, 100
3, 17084, Note_off_c, 1, 51, 100
3, 17664, Note_on_c, 1, 34, 80
3, 18428, Note_off_c, 1, 34, 100
3, 18432, Note_on_c, 1, 39, 80
3, 18620, Note_off_c, 1, 39, 100
3, 18720, Note_on_c, 1, 46, 80
3, 18812, Note_off_c, 1, 46, 100
3, 18816, Note_on_c, 1, 43, 80
3, 18908, Note_off_c, 1, 43, 100
3, 18912, Note_on_c, 1, 46, 80
3, 19004, Note_off_c, 1, 46, 100
3, 19008, Note_on_c, 1, 43, 80
3, 19100, Note_off_c, 1, 43, 100
3, 19104, Note_on_c, 1, 39, 80
3, 19196, Note_off_c, 1, 39, 100
3, 19200, Note_on_c, 1, 34, 80
3, 19580, Note_off_c, 1, 34, 100
3, 19584, Note_on_c, 1, 46, 80
3, 19964, Note_off_c, 1, 46, 100
3, 19968, Note_on_c, 1, 39, 80
3, 21500, Note_off_c, 1, 39, 100
3, 21504, Note_on_c, 1, 44, 80
3, 21504, Note_on_c, 1, 32, 80
3, 21884, Note_off_c, 1, 44, 100
3, 21884, Note_off_c, 1, 32, 100
3, 21888, Note_on_c, 1, 49, 80
3, 22268, Note_off_c, 1, 49, 100
3, 22272, Note_on_c, 1, 48, 80
3, 22652, Note_off_c, 1, 48, 100
3, 22656, Note_on_c, 1, 43, 80
3, 23036, Note_off_c, 1, 43, 100
3, 23040, Note_on_c, 1, 44, 80
3, 23228, Note_off_c, 1, 44, 100
3, 23232, Note_on_c, 1, 43, 80
3, 23420, Note_off_c, 1, 43, 100
3, 23424, Note_on_c, 1, 41, 80
3, 23612, Note_off_c, 1, 41, 100
3, 23616, Note_on_c, 1, 53, 80
3, 23804, Note_off_c, 1, 53, 100
3, 23808, Note_on_c, 1, 51, 80
3, 24188, Note_off_c, 1, 51, 100
3, 24192, Note_on_c, 1, 39, 80
3, 24572, Note_off_c, 1, 39, 100
3, 24576, Note_on_c, 1, 37, 80
3, 24956, Note_off_c, 1, 37, 100
3, 24960, Note_on_c, 1, 49, 80
3, 25340, Note_off_c, 1, 49, 100
3, 25344, Note_on_c, 1, 48, 80
3, 25724, Note_off_c, 1, 48, 100
3, 25728, Note_on_c, 1, 41, 80
3, 26108, Note_off_c, 1, 41, 100
3, 26112, Note_on_c, 1, 34, 80
3, 26492, Note_off_c, 1, 34, 100
3, 26496, Note_on_c, 1, 39, 80
3, 26876, Note_off_c, 1, 39, 100
3, 26880, Note_on_c, 1, 32, 80
3, 27068, Note_off_c, 1, 32, 100
3, 27072, Note_on_c, 1, 46, 80
3, 27260, Note_off_c, 1, 46, 100
3, 27264, Note_on_c, 1, 32, 80
3, 27452, Note_off_c, 1, 32, 100
3, 27648, Note_on_c, 1, 56, 80
3, 27648, Note_on_c, 1, 44, 80
3, 28028, Note_off_c, 1, 56, 100
3, 28028, Note_off_c, 1, 44, 100
3, 28416, Note_on_c, 1, 58, 80
3, 28668, Note_off_c, 1, 58, 100
3, 28672, Note_on_c, 1, 58, 80
3, 28732, Note_off_c, 1, 58, 100
3, 28736, Note_on_c, 1, 57, 80
3, 28796, Note_off_c, 1, 57, 100
3, 28800, Note_on_c, 1, 58, 80
3, 28860, Note_off_c, 1, 58, 100
3, 28864, Note_on_c, 1, 58, 80
3, 28924, Note_off_c, 1, 58, 100
3, 28928, Note_on_c, 1, 56, 80
3, 28988, Note_off_c, 1, 56, 100
3, 28992, Note_on_c, 1, 55, 80
3, 29052, Note_off_c, 1, 55, 100
3, 29056, Note_on_c, 1, 53, 80
3, 29116, Note_off_c, 1, 53, 100
3, 29120, Note_on_c, 1, 51, 80
3, 29180, Note_off_c, 1, 51, 100
3, 29184, Note_on_c, 1, 56, 80
3, 29372, Note_off_c, 1, 56, 100
3, 29952, Note_on_c, 1, 51, 80
3, 30204, Note_off_c, 1, 51, 100
3, 30208, Note_on_c, 1, 51, 80
3, 30268, Note_off_c, 1, 51, 100
3, 30272, Note_on_c, 1, 50, 80
3, 30332, Note_off_c, 1, 50, 100
3, 30336, Note_on_c, 1, 51, 80
3, 30396, Note_off_c, 1, 51, 100
3, 30400, Note_on_c, 1, 52, 80
3, 30460, Note_off_c, 1, 52, 100
3, 30464, Note_on_c, 1, 51, 80
3, 30524, Note_off_c, 1, 51, 100
3, 30528, Note_on_c, 1, 49, 80
3, 30588, Note_off_c, 1, 49, 100
3, 30592, Note_on_c, 1, 47, 80
3, 30652, Note_off_c, 1, 47, 100
3, 30656, Note_on_c, 1, 46, 80
3, 30716, Note_off_c, 1, 46, 100
3, 30720, Note_on_c, 1, 44, 70
3, 30908, Note_off_c, 1, 44, 100
3, 31488, Note_on_c, 1, 54, 100
3, 31488, Note_on_c, 1, 51, 100
3, 31488, Note_on_c, 1, 47, 100
3, 31488, Note_on_c, 1, 45, 100
3, 31548, Note_off_c, 1, 54, 100
3, 31548, Note_off_c, 1, 51, 100
3, 31548, Note_off_c, 1, 47, 100
3, 31548, Note_off_c, 1, 45, 100
3, 31552, Note_on_c, 1, 54, 100
3, 31552, Note_on_c, 1, 51, 100
3, 31552, Note_on_c, 1, 47, 100
3, 31552, Note_on_c, 1, 45, 100
3, 31612, Note_off_c, 1, 54, 100
3, 31612, Note_off_c, 1, 51, 100
3, 31612, Note_off_c, 1, 47, 100
3, 31612, Note_off_c, 1, 45, 100
3, 31616, Note_on_c, 1, 54, 100
3, 31616, Note_on_c, 1, 51, 100
3, 31616, Note_on_c, 1, 47, 100
3, 31616, Note_on_c, 1, 45, 100
3, 31676, Note_off_c, 1, 54, 100
3, 31676, Note_off_c, 1, 51, 100
3, 31676, Note_off_c, 1, 47, 100
3, 31676, Note_off_c, 1, 45, 100
3, 31680, Note_on_c, 1, 54, 100
3, 31680, Note_on_c, 1, 51, 100
3, 31680, Note_on_c, 1, 47, 100
3, 31680, Note_on_c, 1, 45, 100
3, 31740, Note_off_c, 1, 54, 100
3, 31740, Note_off_c, 1, 51, 100
3, 31740, Note_off_c, 1, 47, 100
3, 31740, Note_off_c, 1, 45, 100
3, 31744, Note_on_c, 1, 54, 100
3, 31744, Note_on_c, 1, 51, 100
3, 31744, Note_on_c, 1, 47, 100
3, 31744, Note_on_c, 1, 45, 100
3, 31804, Note_off_c, 1, 54, 100
3, 31804, Note_off_c, 1, 51, 100
3, 31804, Note_off_c, 1, 47, 100
3, 31804, Note_off_c, 1, 45, 100
3, 31808, Note_on_c, 1, 54, 100
3, 31808, Note_on_c, 1, 51, 100
3, 31808, Note_on_c, 1, 47, 100
3, 31808, Note_on_c, 1, 45, 100
3, 31868, Note_off_c, 1, 54, 100
3, 31868, Note_off_c, 1, 51, 100
3, 31868, Note_off_c, 1, 47, 100
3, 31868, Note_off_c, 1, 45, 100
3, 31872, Note_on_c, 1, 56, 100
3, 31872, Note_on_c, 1, 52, 100
3, 31872, Note_on_c, 1, 47, 100
3, 31872, Note_on_c, 1, 44, 100
3, 31932, Note_off_c, 1, 56, 100
3, 31932, Note_off_c, 1, 52, 100
3, 31932, Note_off_c, 1, 47, 100
3, 31932, Note_off_c, 1, 44, 100
3, 31936, Note_on_c, 1, 56, 100
3, 31936, Note_on_c, 1, 52, 100
3, 31936, Note_on_c, 1, 47, 100
3, 31936, Note_on_c, 1, 44, 100
3, 31996, Note_off_c, 1, 56, 100
3, 31996, Note_off_c, 1, 52, 100
3, 31996, Note_off_c, 1, 47, 100
3, 31996, Note_off_c, 1, 44, 100
3, 32000, Note_on_c, 1, 56, 100
3, 32000, Note_on_c, 1, 52, 100
3, 32000, Note_on_c, 1, 47, 100
3, 32000, Note_on_c, 1, 44, 100
3, 32060, Note_off_c, 1, 56, 100
3, 32060, Note_off_c, 1, 52, 100
3, 32060, Note_off_c, 1, 47, 100
3, 32060, Note_off_c, 1, 44, 100
3, 32064, Note_on_c, 1, 56, 100
3, 32064, Note_on_c, 1, 52, 100
3, 32064, Note_on_c, 1, 47, 100
3, 32064, Note_on_c, 1, 44, 100
3, 32124, Note_off_c, 1, 56, 100
3, 32124, Note_off_c, 1, 52, 100
3, 32124, Note_off_c, 1, 47, 100
3, 32124, Note_off_c, 1, 44, 100
3, 32128, Note_on_c, 1, 56, 100
3, 32128, Note_on_c, 1, 52, 100
3, 32128, Note_on_c, 1, 47, 100
3, 32128, Note_on_c, 1, 44, 100
3, 32188, Note_off_c, 1, 56, 100
3, 32188, Note_off_c, 1, 52, 100
3, 32188, Note_off_c, 1, 47, 100
3, 32188, Note_off_c, 1, 44, 100
3, 32192, Note_on_c, 1, 56, 100
3, 32192, Note_on_c, 1, 52, 100
3, 32192, Note_on_c, 1, 47, 100
3, 32192, Note_on_c, 1, 44, 100
3, 32252, Note_off_c, 1, 56, 100
3, 32252, Note_off_c, 1, 52, 100
3, 32252, Note_off_c, 1, 47, 100
3, 32252, Note_off_c, 1, 44, 100
3, 32256, Note_on_c, 1, 58, 100
3, 32256, Note_on_c, 1, 54, 100
3, 32256, Note_on_c, 1, 52, 100
3, 32256, Note_on_c, 1, 49, 100
3, 32316, Note_off_c, 1, 58, 100
3, 32316, Note_off_c, 1, 54, 100
3, 32316, Note_off_c, 1, 52, 100
3, 32316, Note_off_c, 1, 49, 100
3, 32320, Note_on_c, 1, 58, 100
3, 32320, Note_on_c, 1, 54, 100
3, 32320, Note_on_c, 1, 52, 100
3, 32320, Note_on_c, 1, 49, 100
3, 32380, Note_off_c, 1, 58, 100
3, 32380, Note_off_c, 1, 54, 100
3, 32380, Note_off_c, 1, 52, 100
3, 32380, Note_off_c, 1, 49, 100
3, 32384, Note_on_c, 1, 58, 100
3, 32384, Note_on_c, 1, 54, 100
3, 32384, Note_on_c, 1, 52, 100
3, 32384, Note_on_c, 1, 49, 100
3, 32444, Note_off_c, 1, 58, 100
3, 32444, Note_off_c, 1, 54, 100
3, 32444, Note_off_c, 1, 52, 100
3, 32444, Note_off_c, 1, 49, 100
3, 32448, Note_on_c, 1, 58, 100
3, 32448, Note_on_c, 1, 54, 100
3, 32448, Note_on_c, 1, 52, 100
3, 32448, Note_on_c, 1, 49, 100
3, 32508, Note_off_c, 1, 58, 100
3, 32508, Note_off_c, 1, 54, 100
3, 32508, Note_off_c, 1, 52, 100
3, 32508, Note_off_c, 1, 49, 100
3, 32512, Note_on_c, 1, 58, 100
3, 32512, Note_on_c, 1, 54, 100
3, 32512, Note_on_c, 1, 52, 100
3, 32512, Note_on_c, 1, 49, 100
3, 32572, Note_off_c, 1, 58, 100
3, 32572, Note_off_c, 1, 54, 100
3, 32572, Note_off_c, 1, 52, 100
3, 32572, Note_off_c, 1, 49, 100
3, 32576, Note_on_c, 1, 58, 100
3, 32576, Note_on_c, 1, 54, 100
3, 32576, Note_on_c, 1, 52, 100
3, 32576, Note_on_c, 1, 49, 100
3, 32636, Note_off_c, 1, 58, 100
3, 32636, Note_off_c, 1, 54, 100
3, 32636, Note_off_c, 1, 52, 100
3, 32636, Note_off_c, 1, 49, 100
3, 32640, Note_on_c, 1, 59, 100
3, 32640, Note_on_c, 1, 56, 100
3, 32640, Note_on_c, 1, 52, 100
3, 32640, Note_on_c, 1, 47, 100
3, 32700, Note_off_c, 1, 59, 100
3, 32700, Note_off_c, 1, 56, 100
3, 32700, Note_off_c, 1, 52, 100
3, 32700, Note_off_c, 1, 47, 100
3, 32704, Note_on_c, 1, 59, 100
3, 32704, Note_on_c, 1, 56, 100
3, 32704, Note_on_c, 1, 52, 100
3, 32704, Note_on_c, 1, 47, 100
3, 32764, Note_off_c, 1, 59, 100
3, 32764, Note_off_c, 1, 56, 100
3, 32764, Note_off_c, 1, 52, 100
3, 32764, Note_off_c, 1, 47, 100
3, 32768, Note_on_c, 1, 59, 100
3, 32768, Note_on_c, 1, 56, 100
3, 32768, Note_on_c, 1, 52, 100
3, 32768, Note_on_c, 1, 47, 100
3, 32828, Note_off_c, 1, 59, 100
3, 32828, Note_off_c, 1, 56, 100
3, 32828, Note_off_c, 1, 52, 100
3, 32828, Note_off_c, 1, 47, 100
3, 32832, Note_on_c, 1, 47, 100
3, 32832, Note_on_c, 1, 35, 100
3, 32892, Note_off_c, 1, 47, 100
3, 32892, Note_off_c, 1, 35, 100
3, 32896, Note_on_c, 1, 47, 100
3, 32896, Note_on_c, 1, 35, 100
3, 32956, Note_off_c, 1, 47, 100
3, 32956, Note_off_c, 1, 35, 100
3, 32960, Note_on_c, 1, 47, 100
3, 32960, Note_on_c, 1, 35, 100
3, 33020, Note_off_c, 1, 47, 100
3, 33020, Note_off_c, 1, 35, 100
3, 33024, Note_on_c, 1, 52, 100
3, 33024, Note_on_c, 1, 40, 100
3, 33212, Note_off_c, 1, 52, 100
3, 33212, Note_off_c, 1, 40, 100
3, 33792, Note_on_c, 1, 52, 70
3, 33792, Note_on_c, 1, 40, 70
3, 34172, Note_off_c, 1, 52, 100
3, 34172, Note_off_c, 1, 40, 100
3, 34560, Note_on_c, 1, 54, 70
3, 34812, Note_off_c, 1, 54, 100
3, 34816, Note_on_c, 1, 54, 70
3, 34876, Note_off_c, 1, 54, 100
3, 34880, Note_on_c, 1, 53, 70
3, 34940, Note_off_c, 1, 53, 100
3, 34944, Note_on_c, 1, 54, 70
3, 35004, Note_off_c, 1, 54, 100
3, 35008, Note_on_c, 1, 54, 70
3, 35068, Note_off_c, 1, 54, 100
3, 35072, Note_on_c, 1, 52, 70
3, 35132, Note_off_c, 1, 52, 100
3, 35136, Note_on_c, 1, 51, 70
3, 35196, Note_off_c, 1, 51, 100
3, 35200, Note_on_c, 1, 49, 70
3, 35260, Note_off_c, 1, 49, 100
3, 35264, Note_on_c, 1, 47, 70
3, 35324, Note_off_c, 1, 47, 100
3, 35328, Note_on_c, 1, 52, 70
3, 35516, Note_off_c, 1, 52, 100
3, 36160, Note_on_c, 1, 29, 85
3, 36220, Note_off_c, 1, 29, 100
3, 36224, Note_on_c, 1, 32, 85
3, 36284, Note_off_c, 1, 32, 100
3, 36288, Note_on_c, 1, 35, 85
3, 36348, Note_off_c, 1, 35, 100
3, 36352, Note_on_c, 1, 38, 85
3, 36412, Note_off_c, 1, 38, 100
3, 36416, Note_on_c, 1, 41, 85
3, 36476, Note_off_c, 1, 41, 100
3, 36480, Note_on_c, 1, 44, 85
3, 36668, Note_off_c, 1, 44, 100
3, 36928, Note_on_c, 1, 29, 85
3, 36988, Note_off_c, 1, 29, 100
3, 36992, Note_on_c, 1, 32, 85
3, 37052, Note_off_c, 1, 32, 100
3, 37056, Note_on_c, 1, 35, 85
3, 37116, Note_off_c, 1, 35, 100
3, 37120, Note_on_c, 1, 38, 85
3, 37180, Note_off_c, 1, 38, 100
3, 37184, Note_on_c, 1, 41, 85
3, 37244, Note_off_c, 1, 41, 100
3, 37248, Note_on_c, 1, 44, 85
3, 37436, Note_off_c, 1, 44, 100
3, 37696, Note_on_c, 1, 40, 85
3, 37756, Note_off_c, 1, 40, 100
3, 37760, Note_on_c, 1, 44, 85
3, 37820, Note_off_c, 1, 44, 100
3, 37824, Note_on_c, 1, 46, 85
3, 38012, Note_off_c, 1, 46, 100
3, 38080, Note_on_c, 1, 39, 85
3, 38140, Note_off_c, 1, 39, 100
3, 38144, Note_on_c, 1, 43, 85
3, 38204, Note_off_c, 1, 43, 100
3, 38208, Note_on_c, 1, 46, 85
3, 38396, Note_off_c, 1, 46, 100
3, 38400, Note_on_c, 1, 44, 80
3, 38400, Note_on_c, 1, 32, 80
3, 38780, Note_off_c, 1, 44, 100
3, 38780, Note_off_c, 1, 32, 100
3, 38784, Note_on_c, 1, 49, 80
3, 39164, Note_off_c, 1, 49, 100
3, 39168, Note_on_c, 1, 48, 80
3, 39548, Note_off_c, 1, 48, 100
3, 39552, Note_on_c, 1, 43, 80
3, 39932, Note_off_c, 1, 43, 100
3, 39936, Note_on_c, 1, 44, 80
3, 40124, Note_off_c, 1, 44, 100
3, 40128, Note_on_c, 1, 43, 80
3, 40316, Note_off_c, 1, 43, 100
3, 40320, Note_on_c, 1, 41, 80
3, 40508, Note_off_c, 1, 41, 100
3, 40512, Note_on_c, 1, 53, 80
3, 40700, Note_off_c, 1, 53, 100
3, 40704, Note_on_c, 1, 51, 80
3, 41084, Note_off_c, 1, 51, 100
3, 41088, Note_on_c, 1, 39, 80
3, 41468, Note_off_c, 1, 39, 100
3, 41472, Note_on_c, 1, 37, 80
3, 41852, Note_off_c, 1, 37, 100
3, 41856, Note_on_c, 1, 49, 80
3, 42236, Note_off_c, 1, 49, 100
3, 42240, Note_on_c, 1, 48, 80
3, 42620, Note_off_c, 1, 48, 100
3, 42624, Note_on_c, 1, 41, 80
3, 43004, Note_off_c, 1, 41, 100
3, 43008, Note_on_c, 1, 34, 80
3, 43388, Note_off_c, 1, 34, 100
3, 43392, Note_on_c, 1, 39, 80
3, 43772, Note_off_c, 1, 39, 100
3, 43776, Note_on_c, 1, 32, 80
3, 43964, Note_off_c, 1, 32, 100
3, 43968, Note_on_c, 1, 44, 80
3, 44156, Note_off_c, 1, 44, 100
3, 44160, Note_on_c, 1, 32, 80
3, 44348, Note_off_c, 1, 32, 100
3, 44544, Note_on_c, 1, 56, 80
3, 44544, Note_on_c, 1, 44, 80
3, 44604, Note_off_c, 1, 56, 100
3, 44608, Note_on_c, 1, 51, 80
3, 44668, Note_off_c, 1, 51, 100
3, 44672, Note_on_c, 1, 51, 80
3, 44732, Note_off_c, 1, 51, 100
3, 44736, Note_on_c, 1, 56, 80
3, 44796, Note_off_c, 1, 56, 100
3, 44800, Note_on_c, 1, 51, 80
3, 44860, Note_off_c, 1, 51, 100
3, 44864, Note_on_c, 1, 51, 80
3, 44924, Note_off_c, 1, 44, 100
3, 44924, Note_off_c, 1, 51, 100
3, 44928, Note_on_c, 1, 55, 80
3, 44928, Note_on_c, 1, 49, 80
3, 44988, Note_off_c, 1, 55, 100
3, 44992, Note_on_c, 1, 51, 80
3, 45052, Note_off_c, 1, 51, 100
3, 45056, Note_on_c, 1, 51, 80
3, 45116, Note_off_c, 1, 51, 100
3, 45120, Note_on_c, 1, 55, 80
3, 45180, Note_off_c, 1, 55, 100
3, 45184, Note_on_c, 1, 51, 80
3, 45244, Note_off_c, 1, 51, 100
3, 45248, Note_on_c, 1, 51, 80
3, 45308, Note_off_c, 1, 49, 100
3, 45308, Note_off_c, 1, 51, 100
3, 45312, Note_on_c, 1, 56, 80
3, 45312, Note_on_c, 1, 48, 80
3, 45372, Note_off_c, 1, 56, 100
3, 45376, Note_on_c, 1, 51, 80
3, 45436, Note_off_c, 1, 51, 100
3, 45440, Note_on_c, 1, 51, 80
3, 45500, Note_off_c, 1, 51, 100
3, 45504, Note_on_c, 1, 56, 80
3, 45564, Note_off_c, 1, 56, 100
3, 45568, Note_on_c, 1, 51, 80
3, 45628, Note_off_c, 1, 51, 100
3, 45632, Note_on_c, 1, 51, 80
3, 45692, Note_off_c, 1, 48, 100
3, 45692, Note_off_c, 1, 51, 100
3, 45696, Note_on_c, 1, 55, 80
3, 45696, Note_on_c, 1, 43, 80
3, 45756, Note_off_c, 1, 55, 100
3, 45760, Note_on_c, 1, 51, 80
3, 45820, Note_off_c, 1, 51, 100
3, 45824, Note_on_c, 1, 51, 80
3, 45884, Note_off_c, 1, 51, 100
3, 45888, Note_on_c, 1, 55, 80
3, 45948, Note_off_c, 1, 55, 100
3, 45952, Note_on_c, 1, 51, 80
3, 46012, Note_off_c, 1, 51, 100
3, 46016, Note_on_c, 1, 51, 80
3, 46076, Note_off_c, 1, 43, 100
3, 46076, Note_off_c, 1, 51, 100
3, 46080, Note_on_c, 1, 56, 80
3, 46080, Note_on_c, 1, 44, 80
3, 46140, Note_off_c, 1, 56, 100
3, 46144, Note_on_c, 1, 51, 80
3, 46204, Note_off_c, 1, 51, 100
3, 46208, Note_on_c, 1, 51, 80
3, 46268, Note_off_c, 1, 44, 100
3, 46268, Note_off_c, 1, 51, 100
3, 46272, Note_on_c, 1, 56, 80
3, 46272, Note_on_c, 1, 43, 80
3, 46332, Note_off_c, 1, 56, 100
3, 46336, Note_on_c, 1, 51, 80
3, 46396, Note_off_c, 1, 51, 100
3, 46400, Note_on_c, 1, 51, 80
3, 46460, Note_off_c, 1, 43, 100
3, 46460, Note_off_c, 1, 51, 100
3, 46464, Note_on_c, 1, 53, 80
3, 46464, Note_on_c, 1, 41, 80
3, 46524, Note_off_c, 1, 53, 100
3, 46528, Note_on_c, 1, 44, 80
3, 46588, Note_off_c, 1, 44, 100
3, 46592, Note_on_c, 1, 44, 80
3, 46652, Note_off_c, 1, 41, 100
3, 46652, Note_off_c, 1, 44, 100
3, 46656, Note_on_c, 1, 53, 80
3, 46656, Note_on_c, 1, 41, 80
3, 46716, Note_off_c, 1, 53, 100
3, 46720, Note_on_c, 1, 44, 80
3, 46780, Note_off_c, 1, 44, 100
3, 46784, Note_on_c, 1, 44, 80
3, 46844, Note_off_c, 1, 41, 100
3, 46844, Note_off_c, 1, 44, 100
3, 46848, Note_on_c, 1, 39, 80
3, 46908, Note_off_c, 1, 39, 100
3, 46912, Note_on_c, 1, 43, 80
3, 46972, Note_off_c, 1, 43, 100
3, 46976, Note_on_c, 1, 46, 80
3, 47036, Note_off_c, 1, 46, 100
3, 47040, Note_on_c, 1, 51, 80
3, 47100, Note_off_c, 1, 51, 100
3, 47104, Note_on_c, 1, 55, 80
3, 47164, Note_off_c, 1, 55, 100
3, 47168, Note_on_c, 1, 58, 80
3, 47228, Note_off_c, 1, 58, 100
3, 47232, Note_on_c, 1, 63, 80
3, 47612, Note_off_c, 1, 63, 100
3, 47616, Note_on_c, 1, 37, 80
3, 47676, Note_off_c, 1, 37, 100
3, 47680, Note_on_c, 1, 43, 80
3, 47740, Note_off_c, 1, 43, 100
3, 47744, Note_on_c, 1, 46, 80
3, 47804, Note_off_c, 1, 46, 100
3, 47808, Note_on_c, 1, 49, 80
3, 47868, Note_off_c, 1, 49, 100
3, 47872, Note_on_c, 1, 55, 80
3, 47932, Note_off_c, 1, 55, 100
3, 47936, Note_on_c, 1, 58, 80
3, 47996, Note_off_c, 1, 58, 100
3, 48000, Note_on_c, 1, 61, 80
3, 48380, Note_off_c, 1, 61, 100
3, 48384, Note_on_c, 1, 60, 80
3, 48764, Note_off_c, 1, 60, 100
3, 48768, Note_on_c, 1, 53, 80
3, 49148, Note_off_c, 1, 53, 100
3, 49152, Note_on_c, 1, 46, 80
3, 49532, Note_off_c, 1, 46, 100
3, 49536, Note_on_c, 1, 46, 80
3, 49536, Note_on_c, 1, 39, 80
3, 49596, Note_off_c, 1, 46, 100
3, 49600, Note_on_c, 1, 51, 80
3, 49660, Note_off_c, 1, 51, 100
3, 49664, Note_on_c, 1, 51, 80
3, 49724, Note_off_c, 1, 39, 100
3, 49724, Note_off_c, 1, 51, 100
3, 49728, Note_on_c, 1, 39, 80
3, 49792, Note_on_c, 1, 51, 80
3, 49852, Note_off_c, 1, 51, 100
3, 49856, Note_on_c, 1, 51, 80
3, 49916, Note_off_c, 1, 39, 100
3, 49916, Note_off_c, 1, 51, 100
3, 49920, Note_on_c, 1, 44, 80
3, 49980, Note_off_c, 1, 44, 100
3, 49984, Note_on_c, 1, 51, 70
3, 50044, Note_off_c, 1, 51, 100
3, 50048, Note_on_c, 1, 51, 70
3, 50108, Note_off_c, 1, 51, 100
3, 50112, Note_on_c, 1, 51, 70
3, 50172, Note_off_c, 1, 51, 100
3, 50176, Note_on_c, 1, 51, 70
3, 50236, Note_off_c, 1, 51, 100
3, 50240, Note_on_c, 1, 51, 70
3, 50300, Note_off_c, 1, 51, 100
3, 50304, Note_on_c, 1, 51, 70
3, 50364, Note_off_c, 1, 51, 100
3, 50368, Note_on_c, 1, 51, 70
3, 50428, Note_off_c, 1, 51, 100
3, 50432, Note_on_c, 1, 51, 70
3, 50492, Note_off_c, 1, 51, 100
3, 50496, Note_on_c, 1, 51, 70
3, 50556, Note_off_c, 1, 51, 100
3, 50560, Note_on_c, 1, 51, 70
3, 50620, Note_off_c, 1, 51, 100
3, 50624, Note_on_c, 1, 51, 70
3, 50684, Note_off_c, 1, 51, 100
3, 50688, Note_on_c, 1, 51, 70
3, 50688, Note_on_c, 1, 49, 70
3, 50688, Note_on_c, 1, 39, 70
3, 50748, Note_off_c, 1, 51, 100
3, 50748, Note_off_c, 1, 49, 100
3, 50748, Note_off_c, 1, 39, 100
3, 50752, Note_on_c, 1, 51, 70
3, 50752, Note_on_c, 1, 49, 70
3, 50752, Note_on_c, 1, 39, 70
3, 50812, Note_off_c, 1, 51, 100
3, 50812, Note_off_c, 1, 49, 100
3, 50812, Note_off_c, 1, 39, 100
3, 50816, Note_on_c, 1, 51, 70
3, 50816, Note_on_c, 1, 49, 70
3, 50816, Note_on_c, 1, 39, 70
3, 50876, Note_off_c, 1, 51, 100
3, 50876, Note_off_c, 1, 49, 100
3, 50876, Note_off_c, 1, 39, 100
3, 50880, Note_on_c, 1, 51, 70
3, 50880, Note_on_c, 1, 49, 70
3, 50880, Note_on_c, 1, 39, 70
3, 50940, Note_off_c, 1, 51, 100
3, 50940, Note_off_c, 1, 49, 100
3, 50940, Note_off_c, 1, 39, 100
3, 50944, Note_on_c, 1, 51, 70
3, 50944, Note_on_c, 1, 49, 70
3, 50944, Note_on_c, 1, 39, 70
3, 51004, Note_off_c, 1, 51, 100
3, 51004, Note_off_c, 1, 49, 100
3, 51004, Note_off_c, 1, 39, 100
3, 51008, Note_on_c, 1, 51, 70
3, 51008, Note_on_c, 1, 49, 70
3, 51008, Note_on_c, 1, 39, 70
3, 51068, Note_off_c, 1, 51, 100
3, 51068, Note_off_c, 1, 49, 100
3, 51068, Note_off_c, 1, 39, 100
3, 51072, Note_on_c, 1, 51, 70
3, 51072, Note_on_c, 1, 49, 70
3, 51072, Note_on_c, 1, 39, 70
3, 51132, Note_off_c, 1, 51, 100
3, 51132, Note_off_c, 1, 49, 100
3, 51132, Note_off_c, 1, 39, 100
3, 51136, Note_on_c, 1, 51, 70
3, 51136, Note_on_c, 1, 49, 70
3, 51136, Note_on_c, 1, 39, 70
3, 51196, Note_off_c, 1, 51, 100
3, 51196, Note_off_c, 1, 49, 100
3, 51196, Note_off_c, 1, 39, 100
3, 51200, Note_on_c, 1, 51, 70
3, 51200, Note_on_c, 1, 49, 70
3, 51200, Note_on_c, 1, 39, 70
3, 51260, Note_off_c, 1, 51, 100
3, 51260, Note_off_c, 1, 49, 100
3, 51260, Note_off_c, 1, 39, 100
3, 51264, Note_on_c, 1, 51, 70
3, 51264, Note_on_c, 1, 49, 70
3, 51264, Note_on_c, 1, 39, 70
3, 51324, Note_off_c, 1, 51, 100
3, 51324, Note_off_c, 1, 49, 100
3, 51324, Note_off_c, 1, 39, 100
3, 51328, Note_on_c, 1, 51, 70
3, 51328, Note_on_c, 1, 49, 70
3, 51328, Note_on_c, 1, 39, 70
3, 51388, Note_off_c, 1, 51, 100
3, 51388, Note_off_c, 1, 49, 100
3, 51388, Note_off_c, 1, 39, 100
3, 51392, Note_on_c, 1, 51, 70
3, 51392, Note_on_c, 1, 49, 70
3, 51392, Note_on_c, 1, 39, 70
3, 51452, Note_off_c, 1, 51, 100
3, 51452, Note_off_c, 1, 49, 100
3, 51452, Note_off_c, 1, 39, 100
3, 51456, Note_on_c, 1, 44, 70
3, 51456, Note_on_c, 1, 48, 70
3, 51456, Note_on_c, 1, 51, 70
3, 51516, Note_off_c, 1, 44, 100
3, 51516, Note_off_c, 1, 48, 100
3, 51516, Note_off_c, 1, 51, 100
3, 51520, Note_on_c, 1, 51, 70
3, 51580, Note_off_c, 1, 51, 100
3, 51584, Note_on_c, 1, 51, 70
3, 51644, Note_off_c, 1, 51, 100
3, 51648, Note_on_c, 1, 51, 70
3, 51708, Note_off_c, 1, 51, 100
3, 51712, Note_on_c, 1, 51, 70
3, 51772, Note_off_c, 1, 51, 100
3, 51776, Note_on_c, 1, 51, 70
3, 51836, Note_off_c, 1, 51, 100
3, 51840, Note_on_c, 1, 51, 70
3, 51900, Note_off_c, 1, 51, 100
3, 51904, Note_on_c, 1, 51, 70
3, 51964, Note_off_c, 1, 51, 100
3, 51968, Note_on_c, 1, 51, 70
3, 52028, Note_off_c, 1, 51, 100
3, 52032, Note_on_c, 1, 51, 70
3, 52092, Note_off_c, 1, 51, 100
3, 52096, Note_on_c, 1, 51, 70
3, 52156, Note_off_c, 1, 51, 100
3, 52160, Note_on_c, 1, 51, 70
3, 52220, Note_off_c, 1, 51, 100
3, 52224, Note_on_c, 1, 51, 70
3, 52224, Note_on_c, 1, 49, 70
3, 52224, Note_on_c, 1, 39, 70
3, 52284, Note_off_c, 1, 51, 100
3, 52284, Note_off_c, 1, 49, 100
3, 52284, Note_off_c, 1, 39, 100
3, 52288, Note_on_c, 1, 51, 73
3, 52288, Note_on_c, 1, 49, 73
3, 52288, Note_on_c, 1, 39, 73
3, 52348, Note_off_c, 1, 51, 100
3, 52348, Note_off_c, 1, 49, 100
3, 52348, Note_off_c, 1, 39, 100
3, 52352, Note_on_c, 1, 51, 77
3, 52352, Note_on_c, 1, 49, 77
3, 52352, Note_on_c, 1, 39, 77
3, 52412, Note_off_c, 1, 51, 100
3, 52412, Note_off_c, 1, 49, 100
3, 52412, Note_off_c, 1, 39, 100
3, 52416, Note_on_c, 1, 51, 81
3, 52416, Note_on_c, 1, 49, 81
3, 52416, Note_on_c, 1, 39, 81
3, 52476, Note_off_c, 1, 51, 100
3, 52476, Note_off_c, 1, 49, 100
3, 52476, Note_off_c, 1, 39, 100
3, 52480, Note_on_c, 1, 51, 85
3, 52480, Note_on_c, 1, 49, 85
3, 52480, Note_on_c, 1, 39, 85
3, 52540, Note_off_c, 1, 51, 100
3, 52540, Note_off_c, 1, 49, 100
3, 52540, Note_off_c, 1, 39, 100
3, 52544, Note_on_c, 1, 51, 89
3, 52544, Note_on_c, 1, 49, 89
3, 52544, Note_on_c, 1, 39, 89
3, 52604, Note_off_c, 1, 51, 100
3, 52604, Note_off_c, 1, 49, 100
3, 52604, Note_off_c, 1, 39, 100
3, 52608, Note_on_c, 1, 51, 90
3, 52608, Note_on_c, 1, 49, 90
3, 52608, Note_on_c, 1, 39, 90
3, 52668, Note_off_c, 1, 51, 100
3, 52668, Note_off_c, 1, 49, 100
3, 52668, Note_off_c, 1, 39, 100
3, 52672, Note_on_c, 1, 51, 89
3, 52672, Note_on_c, 1, 49, 89
3, 52672, Note_on_c, 1, 39, 89
3, 52732, Note_off_c, 1, 51, 100
3, 52732, Note_off_c, 1, 49, 100
3, 52732, Note_off_c, 1, 39, 100
3, 52736, Note_on_c, 1, 51, 87
3, 52736, Note_on_c, 1, 49, 87
3, 52736, Note_on_c, 1, 39, 87
3, 52796, Note_off_c, 1, 51, 100
3, 52796, Note_off_c, 1, 49, 100
3, 52796, Note_off_c, 1, 39, 100
3, 52800, Note_on_c, 1, 51, 85
3, 52800, Note_on_c, 1, 49, 85
3, 52800, Note_on_c, 1, 39, 85
3, 52860, Note_off_c, 1, 51, 100
3, 52860, Note_off_c, 1, 49, 100
3, 52860, Note_off_c, 1, 39, 100
3, 52864, Note_on_c, 1, 51, 83
3, 52864, Note_on_c, 1, 49, 83
3, 52864, Note_on_c, 1, 39, 83
3, 52924, Note_off_c, 1, 51, 100
3, 52924, Note_off_c, 1, 49, 100
3, 52924, Note_off_c, 1, 39, 100
3, 52928, Note_on_c, 1, 51, 81
3, 52928, Note_on_c, 1, 49, 81
3, 52928, Note_on_c, 1, 39, 81
3, 52988, Note_off_c, 1, 51, 100
3, 52988, Note_off_c, 1, 49, 100
3, 52988, Note_off_c, 1, 39, 100
3, 52992, Note_on_c, 1, 51, 80
3, 52992, Note_on_c, 1, 48, 80
3, 52992, Note_on_c, 1, 44, 80
3, 53180, Note_off_c, 1, 51, 100
3, 53180, Note_off_c, 1, 48, 100
3, 53180, Note_off_c, 1, 44, 100
3, 53376, Note_on_c, 1, 63, 80
3, 53376, Note_on_c, 1, 67, 80
3, 53756, Note_off_c, 1, 63, 100
3, 53756, Note_off_c, 1, 67, 100
3, 53760, Note_on_c, 1, 68, 80
3, 53760, Note_on_c, 1, 56, 80
3, 53948, Note_off_c, 1, 68, 100
3, 53948, Note_off_c, 1, 56, 100
3, 54144, Note_on_c, 1, 61, 80
3, 54144, Note_on_c, 1, 51, 80
3, 54524, Note_off_c, 1, 61, 100
3, 54524, Note_off_c, 1, 51, 100
3, 54528, Note_on_c, 1, 56, 80
3, 54528, Note_on_c, 1, 60, 80
3, 54716, Note_off_c, 1, 56, 100
3, 54716, Note_off_c, 1, 60, 100
3, 54912, Note_on_c, 1, 49, 80
3, 54912, Note_on_c, 1, 39, 80
3, 55292, Note_off_c, 1, 49, 100
3, 55292, Note_off_c, 1, 39, 100
3, 55296, Note_on_c, 1, 48, 80
3, 55296, Note_on_c, 1, 44, 80
3, 55388, Note_off_c, 1, 48, 100
3, 55388, Note_off_c, 1, 44, 100
3, 55488, Note_on_c, 1, 32, 70
3, 55580, Note_off_c, 1, 32, 100
3, 55680, Note_on_c, 1, 44, 70
3, 55680, Note_on_c, 1, 32, 70
3, 56060, Note_off_c, 1, 44, 100
3, 56060, Note_off_c, 1, 32, 100
3, 56060, End_track
0, 0, End_of_file
