0, 0, Header, 1, 3, 384
1, 0, Start_track
1, 0, Title_t, "L.v.Beethoven 1mov - Piano Sonata No.9 in E Major Op.14-1\000"
1, 0, Copyright_t, "Copyright(C) 1995-2009, Suzuki Software\000"
1, 0, Sequencer_specific, 9, 67, 123, 0, 88, 70, 48, 50, 0, 1
1, 0, Text_t, "XFhd:2000/05/09:JP:Classical::::L.v.Beethoven:::Kaoru Suzuki\000"
1, 0, Text_t, "XFln:JP:\203s\203A\203m\203\\\203i\203^\221æ9\224Ô\203z\222·\222²\215ì\225i14-1\201`\221æ1\212y\217Í:L.v.\203x\201[\203g\201[\203\224\203F\203\223:::\227é\202¿\202á\202ñ:\227é\202¿\202á\202ñ\000"
1, 0, Time_signature, 4, 2, 96, 8
1, 0, Sequencer_specific, 3, 0, 0, 65
1, 0, Sequencer_specific, 5, 0, 0, 119, 14, 0
1, 0, Tempo, 428571
1, 17664, Tempo, 444444
1, 18048, Tempo, 461538
1, 18816, Tempo, 428571
1, 33024, Tempo, 400000
1, 81408, Tempo, 444444
1, 81792, Tempo, 461538
1, 82176, Tempo, 480000
1, 82560, Tempo, 500000
1, 86016, Tempo, 428571
1, 109824, Tempo, 444444
1, 110208, Tempo, 461538
1, 110976, Tempo, 428571
1, 173568, Tempo, 444444
1, 173952, Tempo, 461538
1, 174336, Tempo, 480000
1, 174720, Tempo, 500000
1, 178176, Tempo, 428571
1, 189696, Tempo, 444444
1, 190080, Tempo, 461538
1, 190464, Tempo, 428571
1, 248064, Tempo, 461538
1, 248448, Tempo, 500000
1, 249024, Tempo, 428571
1, 313344, Tempo, 444444
1, 314112, Tempo, 480000
1, 314496, Tempo, 500000
1, 316416, Tempo, 545454
1, 317952, Tempo, 428571
1, 331776, Tempo, 444444
1, 334848, Tempo, 472440
1, 337920, Tempo, 500000
1, 338688, Tempo, 545454
1, 339072, Tempo, 666666
1, 339072, End_track
2, 0, Start_track
2, 0, Title_t, "Right"
2, 0, Control_c, 0, 0, 0
2, 0, Program_c, 0, 0
2, 0, Control_c, 0, 7, 100
2, 0, Control_c, 0, 10, 75
2, 0, Control_c, 0, 91, 127
2, 0, Key_signature, 4, "major"
2, 0, Note_on_c, 0, 71, 80
2, 764, Note_off_c, 0, 71, 100
2, 768, Note_on_c, 0, 76, 80
2, 768, Note_on_c, 0, 64, 80
2, 1532, Note_off_c, 0, 76, 100
2, 1532, Note_off_c, 0, 64, 100
2, 1536, Note_on_c, 0, 73, 80
2, 2300, Note_off_c, 0, 73, 100
2, 2304, Note_on_c, 0, 78, 80
2, 2304, Note_on_c, 0, 66, 80
2, 3068, Note_off_c, 0, 78, 100
2, 3068, Note_off_c, 0, 66, 100
2, 3072, Note_on_c, 0, 75, 80
2, 3836, Note_off_c, 0, 75, 100
2, 3840, Note_on_c, 0, 83, 80
2, 3840, Note_on_c, 0, 71, 80
2, 4604, Note_off_c, 0, 83, 100
2, 4604, Note_off_c, 0, 71, 100
2, 4608, Note_on_c, 0, 83, 80
2, 5180, Note_off_c, 0, 83, 100
2, 5184, Note_on_c, 0, 85, 80
2, 5276, Note_off_c, 0, 85, 100
2, 5280, Note_on_c, 0, 87, 80
2, 5372, Note_off_c, 0, 87, 100
2, 5376, Note_on_c, 0, 88, 80
2, 5756, Note_off_c, 0, 88, 100
2, 6144, Note_on_c, 0, 80, 80
2, 6236, Note_off_c, 0, 80, 100
2, 6240, Note_on_c, 0, 76, 80
2, 6332, Note_off_c, 0, 76, 100
2, 6336, Note_on_c, 0, 81, 80
2, 6428, Note_off_c, 0, 81, 100
2, 6432, Note_on_c, 0, 78, 80
2, 6524, Note_off_c, 0, 78, 100
2, 6528, Note_on_c, 0, 83, 80
2, 6620, Note_off_c, 0, 83, 100
2, 6624, Note_on_c, 0, 80, 80
2, 6716, Note_off_c, 0, 80, 100
2, 6720, Note_on_c, 0, 85, 80
2, 6812, Note_off_c, 0, 85, 100
2, 6816, Note_on_c, 0, 81, 80
2, 6908, Note_off_c, 0, 81, 100
2, 6912, Note_on_c, 0, 83, 80
2, 7292, Note_off_c, 0, 83, 100
2, 7680, Note_on_c, 0, 56, 80
2, 7772, Note_off_c, 0, 56, 100
2, 7776, Note_on_c, 0, 52, 80
2, 7868, Note_off_c, 0, 52, 100
2, 7872, Note_on_c, 0, 57, 80
2, 7964, Note_off_c, 0, 57, 100
2, 7968, Note_on_c, 0, 54, 80
2, 8060, Note_off_c, 0, 54, 100
2, 8064, Note_on_c, 0, 59, 80
2, 8156, Note_off_c, 0, 59, 100
2, 8160, Note_on_c, 0, 56, 80
2, 8252, Note_off_c, 0, 56, 100
2, 8256, Note_on_c, 0, 61, 80
2, 8348, Note_off_c, 0, 61, 100
2, 8352, Note_on_c, 0, 57, 80
2, 8444, Note_off_c, 0, 57, 100
2, 8448, Note_on_c, 0, 59, 80
2, 8828, Note_off_c, 0, 59, 100
2, 9408, Note_on_c, 0, 59, 80
2, 9600, Note_on_c, 0, 68, 80
2, 9788, Note_off_c, 0, 68, 100
2, 9792, Note_on_c, 0, 64, 80
2, 9980, Note_off_c, 0, 64, 100
2, 9984, Note_on_c, 0, 69, 80
2, 10172, Note_off_c, 0, 69, 100
2, 10176, Note_on_c, 0, 66, 80
2, 10364, Note_off_c, 0, 66, 100
2, 10368, Note_on_c, 0, 63, 80
2, 10556, Note_off_c, 0, 63, 100
2, 10560, Note_on_c, 0, 71, 80
2, 10748, Note_off_c, 0, 59, 100
2, 10748, Note_off_c, 0, 71, 100
2, 10944, Note_on_c, 0, 73, 80
2, 10992, Note_on_c, 0, 71, 80
2, 11036, Note_off_c, 0, 73, 100
2, 11040, Note_on_c, 0, 70, 80
2, 11084, Note_off_c, 0, 71, 100
2, 11088, Note_on_c, 0, 71, 80
2, 11132, Note_off_c, 0, 70, 100
2, 11136, Note_on_c, 0, 80, 80
2, 11324, Note_off_c, 0, 80, 100
2, 11328, Note_on_c, 0, 76, 80
2, 11516, Note_off_c, 0, 76, 100
2, 11520, Note_on_c, 0, 81, 80
2, 11708, Note_off_c, 0, 81, 100
2, 11712, Note_on_c, 0, 78, 80
2, 11900, Note_off_c, 0, 78, 100
2, 11904, Note_on_c, 0, 75, 80
2, 12092, Note_off_c, 0, 75, 100
2, 12096, Note_on_c, 0, 83, 80
2, 12284, Note_off_c, 0, 71, 100
2, 12288, Note_on_c, 0, 71, 80
2, 12860, Note_off_c, 0, 83, 100
2, 12864, Note_on_c, 0, 81, 80
2, 12956, Note_off_c, 0, 81, 100
2, 12960, Note_on_c, 0, 80, 80
2, 13052, Note_off_c, 0, 71, 100
2, 13052, Note_off_c, 0, 80, 100
2, 13056, Note_on_c, 0, 78, 80
2, 13056, Note_on_c, 0, 73, 80
2, 13244, Note_off_c, 0, 78, 100
2, 13248, Note_on_c, 0, 76, 80
2, 13436, Note_off_c, 0, 76, 100
2, 13440, Note_on_c, 0, 75, 80
2, 13628, Note_off_c, 0, 75, 100
2, 13632, Note_on_c, 0, 73, 80
2, 13820, Note_off_c, 0, 73, 100
2, 13820, Note_off_c, 0, 73, 100
2, 13824, Note_on_c, 0, 71, 80
2, 13824, Note_on_c, 0, 64, 80
2, 13824, Note_on_c, 0, 68, 80
2, 14204, Note_off_c, 0, 68, 100
2, 14208, Note_on_c, 0, 67, 80
2, 14588, Note_off_c, 0, 67, 100
2, 14592, Note_on_c, 0, 66, 80
2, 14972, Note_off_c, 0, 64, 100
2, 14976, Note_on_c, 0, 63, 80
2, 15356, Note_off_c, 0, 71, 100
2, 15356, Note_off_c, 0, 66, 100
2, 15356, Note_off_c, 0, 63, 100
2, 15360, Note_on_c, 0, 71, 80
2, 15360, Note_on_c, 0, 59, 80
2, 15360, Note_on_c, 0, 64, 80
2, 15932, Note_off_c, 0, 71, 100
2, 15936, Note_on_c, 0, 69, 80
2, 16028, Note_off_c, 0, 69, 100
2, 16032, Note_on_c, 0, 68, 80
2, 16124, Note_off_c, 0, 59, 100
2, 16124, Note_off_c, 0, 64, 100
2, 16124, Note_off_c, 0, 68, 100
2, 16128, Note_on_c, 0, 66, 80
2, 16128, Note_on_c, 0, 61, 80
2, 16316, Note_off_c, 0, 66, 100
2, 16320, Note_on_c, 0, 64, 80
2, 16508, Note_off_c, 0, 64, 100
2, 16512, Note_on_c, 0, 63, 80
2, 16700, Note_off_c, 0, 63, 100
2, 16704, Note_on_c, 0, 61, 80
2, 16892, Note_off_c, 0, 61, 100
2, 16892, Note_off_c, 0, 61, 100
2, 16896, Note_on_c, 0, 59, 80
2, 16896, Note_on_c, 0, 52, 80
2, 16896, Note_on_c, 0, 56, 80
2, 17276, Note_off_c, 0, 56, 100
2, 17280, Note_on_c, 0, 55, 80
2, 17660, Note_off_c, 0, 55, 100
2, 17664, Note_on_c, 0, 54, 80
2, 18044, Note_off_c, 0, 52, 100
2, 18048, Note_on_c, 0, 51, 80
2, 18428, Note_off_c, 0, 59, 100
2, 18428, Note_off_c, 0, 54, 100
2, 18428, Note_off_c, 0, 51, 100
2, 18432, Note_on_c, 0, 59, 80
2, 19196, Note_off_c, 0, 59, 100
2, 19200, Note_on_c, 0, 64, 80
2, 19200, Note_on_c, 0, 52, 80
2, 19964, Note_off_c, 0, 64, 100
2, 19964, Note_off_c, 0, 52, 100
2, 19968, Note_on_c, 0, 61, 80
2, 20732, Note_off_c, 0, 61, 100
2, 20736, Note_on_c, 0, 66, 80
2, 20736, Note_on_c, 0, 54, 80
2, 21500, Note_off_c, 0, 66, 100
2, 21500, Note_off_c, 0, 54, 100
2, 21504, Note_on_c, 0, 68, 80
2, 21504, Note_on_c, 0, 56, 80
2, 22268, Note_off_c, 0, 68, 100
2, 22268, Note_off_c, 0, 56, 100
2, 22272, Note_on_c, 0, 69, 85
2, 22272, Note_on_c, 0, 57, 85
2, 23036, Note_off_c, 0, 69, 100
2, 23036, Note_off_c, 0, 57, 100
2, 23040, Note_on_c, 0, 70, 90
2, 23040, Note_on_c, 0, 58, 90
2, 23804, Note_off_c, 0, 70, 100
2, 23804, Note_off_c, 0, 58, 100
2, 23808, Note_on_c, 0, 71, 95
2, 23808, Note_on_c, 0, 59, 95
2, 24572, Note_off_c, 0, 71, 100
2, 24572, Note_off_c, 0, 59, 100
2, 24576, Note_on_c, 0, 58, 110
2, 24576, Note_on_c, 0, 70, 110
2, 24956, Note_off_c, 0, 70, 100
2, 24960, Note_on_c, 0, 66, 110
2, 25340, Note_off_c, 0, 58, 100
2, 25340, Note_off_c, 0, 66, 100
2, 25344, Note_on_c, 0, 74, 110
2, 25344, Note_on_c, 0, 65, 110
2, 25916, Note_off_c, 0, 65, 100
2, 25920, Note_on_c, 0, 66, 110
2, 26012, Note_off_c, 0, 66, 100
2, 26016, Note_on_c, 0, 68, 110
2, 26108, Note_off_c, 0, 74, 100
2, 26108, Note_off_c, 0, 68, 100
2, 26112, Note_on_c, 0, 73, 110
2, 26112, Note_on_c, 0, 61, 110
2, 26492, Note_off_c, 0, 73, 100
2, 26496, Note_on_c, 0, 70, 110
2, 26876, Note_off_c, 0, 61, 100
2, 26876, Note_off_c, 0, 70, 100
2, 26880, Note_on_c, 0, 71, 110
2, 26880, Note_on_c, 0, 65, 110
2, 26880, Note_on_c, 0, 59, 110
2, 27644, Note_off_c, 0, 71, 100
2, 27644, Note_off_c, 0, 65, 100
2, 27644, Note_off_c, 0, 59, 100
2, 27648, Note_on_c, 0, 58, 110
2, 27648, Note_on_c, 0, 70, 110
2, 28028, Note_off_c, 0, 70, 100
2, 28032, Note_on_c, 0, 66, 110
2, 28412, Note_off_c, 0, 58, 100
2, 28412, Note_off_c, 0, 66, 100
2, 28416, Note_on_c, 0, 74, 110
2, 28416, Note_on_c, 0, 65, 110
2, 28988, Note_off_c, 0, 65, 100
2, 28992, Note_on_c, 0, 66, 110
2, 29084, Note_off_c, 0, 66, 100
2, 29088, Note_on_c, 0, 68, 110
2, 29180, Note_off_c, 0, 74, 100
2, 29180, Note_off_c, 0, 68, 100
2, 29184, Note_on_c, 0, 73, 110
2, 29184, Note_on_c, 0, 61, 110
2, 29564, Note_off_c, 0, 73, 100
2, 29568, Note_on_c, 0, 70, 110
2, 29948, Note_off_c, 0, 61, 100
2, 29948, Note_off_c, 0, 70, 100
2, 29952, Note_on_c, 0, 77, 110
2, 29952, Note_on_c, 0, 68, 110
2, 29952, Note_on_c, 0, 71, 110
2, 30524, Note_off_c, 0, 71, 100
2, 30528, Note_on_c, 0, 73, 110
2, 30620, Note_off_c, 0, 73, 100
2, 30624, Note_on_c, 0, 74, 110
2, 30716, Note_off_c, 0, 77, 100
2, 30716, Note_off_c, 0, 68, 100
2, 30716, Note_off_c, 0, 74, 100
2, 30720, Note_on_c, 0, 78, 110
2, 30720, Note_on_c, 0, 73, 110
2, 30720, Note_on_c, 0, 70, 110
2, 31100, Note_off_c, 0, 78, 100
2, 31100, Note_off_c, 0, 73, 100
2, 31100, Note_off_c, 0, 70, 100
2, 31488, Note_on_c, 0, 66, 110
2, 31488, Note_on_c, 0, 61, 110
2, 31488, Note_on_c, 0, 58, 110
2, 31868, Note_off_c, 0, 66, 100
2, 31868, Note_off_c, 0, 61, 100
2, 31868, Note_off_c, 0, 58, 100
2, 32256, Note_on_c, 0, 54, 110
2, 32256, Note_on_c, 0, 49, 110
2, 32256, Note_on_c, 0, 46, 110
2, 32636, Note_off_c, 0, 54, 100
2, 32636, Note_off_c, 0, 49, 100
2, 32636, Note_off_c, 0, 46, 100
2, 33024, Note_on_c, 0, 78, 80
2, 33212, Note_off_c, 0, 78, 100
2, 33216, Note_on_c, 0, 76, 80
2, 33404, Note_off_c, 0, 76, 100
2, 33408, Note_on_c, 0, 75, 80
2, 33596, Note_off_c, 0, 75, 100
2, 33600, Note_on_c, 0, 73, 80
2, 33788, Note_off_c, 0, 73, 100
2, 33792, Note_on_c, 0, 71, 80
2, 34556, Note_off_c, 0, 71, 100
2, 34560, Note_on_c, 0, 72, 80
2, 34940, Note_off_c, 0, 72, 100
2, 34944, Note_on_c, 0, 73, 80
2, 35324, Note_off_c, 0, 73, 100
2, 35328, Note_on_c, 0, 74, 80
2, 35708, Note_off_c, 0, 74, 100
2, 35712, Note_on_c, 0, 75, 80
2, 36092, Note_off_c, 0, 75, 100
2, 36096, Note_on_c, 0, 76, 80
2, 36476, Note_off_c, 0, 76, 100
2, 36480, Note_on_c, 0, 78, 80
2, 36860, Note_off_c, 0, 78, 100
2, 36864, Note_on_c, 0, 79, 80
2, 37244, Note_off_c, 0, 79, 100
2, 37248, Note_on_c, 0, 80, 80
2, 37632, Note_on_c, 0, 68, 80
2, 38012, Note_off_c, 0, 80, 100
2, 38016, Note_on_c, 0, 78, 80
2, 38780, Note_off_c, 0, 78, 100
2, 38784, Note_on_c, 0, 76, 80
2, 39164, Note_off_c, 0, 68, 100
2, 39164, Note_off_c, 0, 76, 100
2, 39168, Note_on_c, 0, 75, 80
2, 39216, Note_on_c, 0, 76, 80
2, 39260, Note_off_c, 0, 75, 100
2, 39264, Note_on_c, 0, 78, 80
2, 39308, Note_off_c, 0, 76, 100
2, 39312, Note_on_c, 0, 76, 80
2, 39356, Note_off_c, 0, 78, 100
2, 39356, Note_off_c, 0, 76, 100
2, 39360, Note_on_c, 0, 75, 80
2, 39548, Note_off_c, 0, 75, 100
2, 39552, Note_on_c, 0, 73, 80
2, 39740, Note_off_c, 0, 73, 100
2, 39744, Note_on_c, 0, 71, 80
2, 39932, Note_off_c, 0, 71, 100
2, 39936, Note_on_c, 0, 70, 80
2, 40700, Note_off_c, 0, 70, 100
2, 40704, Note_on_c, 0, 71, 80
2, 41084, Note_off_c, 0, 71, 100
2, 41088, Note_on_c, 0, 72, 80
2, 41468, Note_off_c, 0, 72, 100
2, 41472, Note_on_c, 0, 73, 80
2, 41852, Note_off_c, 0, 73, 100
2, 41856, Note_on_c, 0, 74, 80
2, 42236, Note_off_c, 0, 74, 100
2, 42240, Note_on_c, 0, 75, 80
2, 42620, Note_off_c, 0, 75, 100
2, 42624, Note_on_c, 0, 76, 80
2, 43004, Note_off_c, 0, 76, 100
2, 43008, Note_on_c, 0, 77, 80
2, 43388, Note_off_c, 0, 77, 100
2, 43392, Note_on_c, 0, 78, 80
2, 43776, Note_on_c, 0, 66, 80
2, 44156, Note_off_c, 0, 78, 100
2, 44160, Note_on_c, 0, 76, 80
2, 44924, Note_off_c, 0, 76, 100
2, 44928, Note_on_c, 0, 75, 80
2, 45308, Note_off_c, 0, 66, 100
2, 45308, Note_off_c, 0, 75, 100
2, 46848, Note_on_c, 0, 54, 80
2, 47036, Note_off_c, 0, 54, 100
2, 47040, Note_on_c, 0, 52, 80
2, 47228, Note_off_c, 0, 52, 100
2, 47232, Note_on_c, 0, 51, 80
2, 47420, Note_off_c, 0, 51, 100
2, 47424, Note_on_c, 0, 49, 80
2, 47612, Note_off_c, 0, 49, 100
2, 47616, Note_on_c, 0, 48, 80
2, 47996, Note_off_c, 0, 48, 100
2, 48384, Note_on_c, 0, 78, 80
2, 48572, Note_off_c, 0, 78, 100
2, 48576, Note_on_c, 0, 76, 80
2, 48764, Note_off_c, 0, 76, 100
2, 48768, Note_on_c, 0, 75, 80
2, 48956, Note_off_c, 0, 75, 100
2, 48960, Note_on_c, 0, 73, 80
2, 49148, Note_off_c, 0, 73, 100
2, 49152, Note_on_c, 0, 72, 80
2, 49916, Note_off_c, 0, 72, 100
2, 49920, Note_on_c, 0, 81, 80
2, 49920, Note_on_c, 0, 75, 80
2, 49920, Note_on_c, 0, 72, 80
2, 51068, Note_off_c, 0, 72, 100
2, 51068, Note_off_c, 0, 75, 100
2, 51068, Note_off_c, 0, 81, 100
2, 51072, Note_on_c, 0, 80, 80
2, 51072, Note_on_c, 0, 76, 80
2, 51072, Note_on_c, 0, 73, 80
2, 51452, Note_off_c, 0, 80, 100
2, 51452, Note_off_c, 0, 76, 100
2, 51452, Note_off_c, 0, 73, 100
2, 52992, Note_on_c, 0, 52, 80
2, 53180, Note_off_c, 0, 52, 100
2, 53184, Note_on_c, 0, 51, 80
2, 53372, Note_off_c, 0, 51, 100
2, 53376, Note_on_c, 0, 49, 80
2, 53564, Note_off_c, 0, 49, 100
2, 53568, Note_on_c, 0, 47, 80
2, 53756, Note_off_c, 0, 47, 100
2, 53760, Note_on_c, 0, 46, 80
2, 54140, Note_off_c, 0, 46, 100
2, 54528, Note_on_c, 0, 76, 80
2, 54716, Note_off_c, 0, 76, 100
2, 54720, Note_on_c, 0, 75, 80
2, 54908, Note_off_c, 0, 75, 100
2, 54912, Note_on_c, 0, 73, 80
2, 55100, Note_off_c, 0, 73, 100
2, 55104, Note_on_c, 0, 71, 80
2, 55292, Note_off_c, 0, 71, 100
2, 55296, Note_on_c, 0, 70, 80
2, 56060, Note_off_c, 0, 70, 100
2, 56064, Note_on_c, 0, 79, 80
2, 56064, Note_on_c, 0, 73, 80
2, 56064, Note_on_c, 0, 70, 80
2, 57212, Note_off_c, 0, 70, 100
2, 57212, Note_off_c, 0, 73, 100
2, 57212, Note_off_c, 0, 79, 100
2, 57216, Note_on_c, 0, 78, 80
2, 57216, Note_on_c, 0, 75, 80
2, 57216, Note_on_c, 0, 71, 80
2, 57596, Note_off_c, 0, 78, 100
2, 57596, Note_off_c, 0, 75, 100
2, 57596, Note_off_c, 0, 71, 100
2, 57984, Note_on_c, 0, 78, 80
2, 57984, Note_on_c, 0, 71, 80
2, 58364, Note_off_c, 0, 78, 100
2, 58364, Note_off_c, 0, 71, 100
2, 58368, Note_on_c, 0, 78, 80
2, 58368, Note_on_c, 0, 70, 80
2, 58556, Note_off_c, 0, 78, 100
2, 58560, Note_on_c, 0, 80, 80
2, 58620, Note_off_c, 0, 80, 100
2, 58624, Note_on_c, 0, 78, 80
2, 58684, Note_off_c, 0, 78, 100
2, 58688, Note_on_c, 0, 77, 80
2, 58748, Note_off_c, 0, 77, 100
2, 58752, Note_on_c, 0, 78, 80
2, 58940, Note_off_c, 0, 78, 100
2, 58944, Note_on_c, 0, 82, 80
2, 59132, Note_off_c, 0, 70, 100
2, 59132, Note_off_c, 0, 82, 100
2, 59136, Note_on_c, 0, 83, 80
2, 59136, Note_on_c, 0, 71, 80
2, 59516, Note_off_c, 0, 83, 100
2, 59516, Note_off_c, 0, 71, 100
2, 59520, Note_on_c, 0, 78, 80
2, 59520, Note_on_c, 0, 71, 80
2, 59900, Note_off_c, 0, 78, 100
2, 59900, Note_off_c, 0, 71, 100
2, 59904, Note_on_c, 0, 78, 80
2, 59904, Note_on_c, 0, 70, 80
2, 60092, Note_off_c, 0, 78, 100
2, 60096, Note_on_c, 0, 80, 80
2, 60156, Note_off_c, 0, 80, 100
2, 60160, Note_on_c, 0, 78, 80
2, 60220, Note_off_c, 0, 78, 100
2, 60224, Note_on_c, 0, 77, 80
2, 60284, Note_off_c, 0, 77, 100
2, 60288, Note_on_c, 0, 78, 80
2, 60476, Note_off_c, 0, 78, 100
2, 60480, Note_on_c, 0, 82, 80
2, 60668, Note_off_c, 0, 70, 100
2, 60668, Note_off_c, 0, 82, 100
2, 60672, Note_on_c, 0, 83, 80
2, 60672, Note_on_c, 0, 71, 80
2, 61052, Note_off_c, 0, 83, 100
2, 61052, Note_off_c, 0, 71, 100
2, 61056, Note_on_c, 0, 72, 80
2, 61056, Note_on_c, 0, 84, 80
2, 61436, Note_off_c, 0, 72, 100
2, 61436, Note_off_c, 0, 84, 100
2, 61440, Note_on_c, 0, 73, 80
2, 61440, Note_on_c, 0, 85, 80
2, 61820, Note_off_c, 0, 73, 100
2, 61820, Note_off_c, 0, 85, 100
2, 61824, Note_on_c, 0, 87, 80
2, 61824, Note_on_c, 0, 75, 80
2, 62204, Note_off_c, 0, 87, 100
2, 62204, Note_off_c, 0, 75, 100
2, 62208, Note_on_c, 0, 88, 80
2, 62208, Note_on_c, 0, 76, 80
2, 62588, Note_off_c, 0, 88, 100
2, 62588, Note_off_c, 0, 76, 100
2, 62592, Note_on_c, 0, 90, 80
2, 62592, Note_on_c, 0, 78, 80
2, 62972, Note_off_c, 0, 90, 100
2, 62972, Note_off_c, 0, 78, 100
2, 62976, Note_on_c, 0, 76, 80
2, 62976, Note_on_c, 0, 88, 80
2, 63740, Note_off_c, 0, 76, 100
2, 63740, Note_off_c, 0, 88, 100
2, 63744, Note_on_c, 0, 87, 80
2, 63744, Note_on_c, 0, 75, 80
2, 64124, Note_off_c, 0, 87, 100
2, 64124, Note_off_c, 0, 75, 100
2, 64128, Note_on_c, 0, 78, 80
2, 64128, Note_on_c, 0, 71, 80
2, 64508, Note_off_c, 0, 78, 100
2, 64508, Note_off_c, 0, 71, 100
2, 64512, Note_on_c, 0, 78, 80
2, 64512, Note_on_c, 0, 70, 80
2, 64700, Note_off_c, 0, 78, 100
2, 64704, Note_on_c, 0, 80, 80
2, 64764, Note_off_c, 0, 80, 100
2, 64768, Note_on_c, 0, 78, 80
2, 64828, Note_off_c, 0, 78, 100
2, 64832, Note_on_c, 0, 77, 80
2, 64892, Note_off_c, 0, 77, 100
2, 64896, Note_on_c, 0, 78, 80
2, 65084, Note_off_c, 0, 78, 100
2, 65088, Note_on_c, 0, 82, 80
2, 65276, Note_off_c, 0, 70, 100
2, 65276, Note_off_c, 0, 82, 100
2, 65280, Note_on_c, 0, 83, 80
2, 65280, Note_on_c, 0, 71, 80
2, 65660, Note_off_c, 0, 83, 100
2, 65660, Note_off_c, 0, 71, 100
2, 65664, Note_on_c, 0, 78, 80
2, 65664, Note_on_c, 0, 71, 80
2, 66044, Note_off_c, 0, 78, 100
2, 66044, Note_off_c, 0, 71, 100
2, 66048, Note_on_c, 0, 78, 80
2, 66048, Note_on_c, 0, 70, 80
2, 66236, Note_off_c, 0, 78, 100
2, 66240, Note_on_c, 0, 80, 80
2, 66300, Note_off_c, 0, 80, 100
2, 66304, Note_on_c, 0, 78, 80
2, 66364, Note_off_c, 0, 78, 100
2, 66368, Note_on_c, 0, 77, 80
2, 66428, Note_off_c, 0, 77, 100
2, 66432, Note_on_c, 0, 78, 80
2, 66620, Note_off_c, 0, 78, 100
2, 66624, Note_on_c, 0, 82, 80
2, 66812, Note_off_c, 0, 70, 100
2, 66812, Note_off_c, 0, 82, 100
2, 66816, Note_on_c, 0, 83, 80
2, 66816, Note_on_c, 0, 71, 80
2, 67196, Note_off_c, 0, 83, 100
2, 67196, Note_off_c, 0, 71, 100
2, 67200, Note_on_c, 0, 72, 80
2, 67200, Note_on_c, 0, 84, 80
2, 67580, Note_off_c, 0, 72, 100
2, 67580, Note_off_c, 0, 84, 100
2, 67584, Note_on_c, 0, 85, 80
2, 67584, Note_on_c, 0, 73, 80
2, 67964, Note_off_c, 0, 85, 100
2, 67964, Note_off_c, 0, 73, 100
2, 67968, Note_on_c, 0, 87, 80
2, 67968, Note_on_c, 0, 75, 80
2, 68348, Note_off_c, 0, 87, 100
2, 68348, Note_off_c, 0, 75, 100
2, 68352, Note_on_c, 0, 88, 80
2, 68352, Note_on_c, 0, 76, 80
2, 68732, Note_off_c, 0, 88, 100
2, 68732, Note_off_c, 0, 76, 100
2, 68736, Note_on_c, 0, 82, 80
2, 68736, Note_on_c, 0, 70, 80
2, 69116, Note_off_c, 0, 82, 100
2, 69116, Note_off_c, 0, 70, 100
2, 69120, Note_on_c, 0, 83, 80
2, 69120, Note_on_c, 0, 71, 80
2, 69500, Note_off_c, 0, 83, 100
2, 69500, Note_off_c, 0, 71, 100
2, 69504, Note_on_c, 0, 66, 110
2, 69504, Note_on_c, 0, 63, 110
2, 69504, Note_on_c, 0, 59, 110
2, 69884, Note_off_c, 0, 66, 100
2, 69884, Note_off_c, 0, 63, 100
2, 69888, Note_on_c, 0, 64, 110
2, 69888, Note_on_c, 0, 67, 110
2, 70268, Note_off_c, 0, 59, 100
2, 70272, Note_on_c, 0, 58, 110
2, 70652, Note_off_c, 0, 58, 100
2, 70656, Note_on_c, 0, 59, 110
2, 71036, Note_off_c, 0, 64, 100
2, 71036, Note_off_c, 0, 67, 100
2, 71040, Note_on_c, 0, 66, 110
2, 71040, Note_on_c, 0, 63, 110
2, 71040, Note_on_c, 0, 59, 110
2, 71420, Note_off_c, 0, 66, 100
2, 71420, Note_off_c, 0, 63, 100
2, 71424, Note_on_c, 0, 64, 110
2, 71424, Note_on_c, 0, 68, 110
2, 71804, Note_off_c, 0, 59, 100
2, 71804, Note_off_c, 0, 59, 100
2, 71808, Note_on_c, 0, 58, 110
2, 72188, Note_off_c, 0, 58, 100
2, 72192, Note_on_c, 0, 59, 110
2, 72572, Note_off_c, 0, 64, 100
2, 72572, Note_off_c, 0, 68, 100
2, 72576, Note_on_c, 0, 66, 110
2, 72576, Note_on_c, 0, 63, 110
2, 72576, Note_on_c, 0, 59, 110
2, 72956, Note_off_c, 0, 66, 100
2, 72956, Note_off_c, 0, 63, 100
2, 72960, Note_on_c, 0, 64, 110
2, 72960, Note_on_c, 0, 67, 110
2, 73340, Note_off_c, 0, 59, 100
2, 73340, Note_off_c, 0, 59, 100
2, 73344, Note_on_c, 0, 58, 110
2, 73724, Note_off_c, 0, 58, 100
2, 73728, Note_on_c, 0, 59, 110
2, 74108, Note_off_c, 0, 64, 100
2, 74108, Note_off_c, 0, 67, 100
2, 74112, Note_on_c, 0, 66, 110
2, 74112, Note_on_c, 0, 63, 110
2, 74112, Note_on_c, 0, 59, 110
2, 74492, Note_off_c, 0, 66, 100
2, 74492, Note_off_c, 0, 63, 100
2, 74496, Note_on_c, 0, 64, 110
2, 74496, Note_on_c, 0, 68, 110
2, 74876, Note_off_c, 0, 59, 100
2, 74876, Note_off_c, 0, 59, 100
2, 74880, Note_on_c, 0, 58, 110
2, 75260, Note_off_c, 0, 58, 100
2, 75264, Note_on_c, 0, 59, 110
2, 75644, Note_off_c, 0, 64, 100
2, 75644, Note_off_c, 0, 68, 100
2, 75648, Note_on_c, 0, 63, 80
2, 75648, Note_on_c, 0, 66, 80
2, 76028, Note_off_c, 0, 63, 100
2, 76028, Note_off_c, 0, 66, 100
2, 76032, Note_on_c, 0, 70, 80
2, 76032, Note_on_c, 0, 64, 80
2, 76412, Note_off_c, 0, 59, 100
2, 76412, Note_off_c, 0, 70, 100
2, 76412, Note_off_c, 0, 64, 100
2, 76416, Note_on_c, 0, 71, 80
2, 76416, Note_on_c, 0, 66, 80
2, 76796, Note_off_c, 0, 71, 100
2, 76796, Note_off_c, 0, 66, 100
2, 76800, Note_on_c, 0, 75, 80
2, 76800, Note_on_c, 0, 68, 80
2, 76800, Note_on_c, 0, 64, 80
2, 77372, Note_off_c, 0, 75, 100
2, 77376, Note_on_c, 0, 73, 80
2, 77564, Note_off_c, 0, 68, 100
2, 77564, Note_off_c, 0, 64, 100
2, 77564, Note_off_c, 0, 73, 100
2, 77568, Note_on_c, 0, 71, 80
2, 77568, Note_on_c, 0, 66, 80
2, 77948, Note_off_c, 0, 71, 100
2, 77948, Note_off_c, 0, 66, 100
2, 77952, Note_on_c, 0, 70, 80
2, 77952, Note_on_c, 0, 66, 80
2, 78332, Note_off_c, 0, 70, 100
2, 78332, Note_off_c, 0, 66, 100
2, 78336, Note_on_c, 0, 66, 80
2, 78716, Note_off_c, 0, 66, 100
2, 78720, Note_on_c, 0, 66, 82
2, 78720, Note_on_c, 0, 71, 82
2, 79100, Note_off_c, 0, 66, 100
2, 79100, Note_off_c, 0, 71, 100
2, 79104, Note_on_c, 0, 66, 85
2, 79104, Note_on_c, 0, 73, 85
2, 79484, Note_off_c, 0, 66, 100
2, 79484, Note_off_c, 0, 73, 100
2, 79488, Note_on_c, 0, 66, 88
2, 79488, Note_on_c, 0, 75, 88
2, 79868, Note_off_c, 0, 66, 100
2, 79868, Note_off_c, 0, 75, 100
2, 79872, Note_on_c, 0, 78, 91
2, 79872, Note_on_c, 0, 68, 91
2, 80444, Note_off_c, 0, 78, 100
2, 80448, Note_on_c, 0, 76, 95
2, 80636, Note_off_c, 0, 68, 100
2, 80636, Note_off_c, 0, 76, 100
2, 80640, Note_on_c, 0, 75, 97
2, 80640, Note_on_c, 0, 66, 97
2, 81020, Note_off_c, 0, 75, 100
2, 81020, Note_off_c, 0, 66, 100
2, 81024, Note_on_c, 0, 73, 99
2, 81024, Note_on_c, 0, 66, 99
2, 81404, Note_off_c, 0, 73, 100
2, 81404, Note_off_c, 0, 66, 100
2, 81408, Note_on_c, 0, 78, 120
2, 81408, Note_on_c, 0, 66, 120
2, 81788, Note_off_c, 0, 78, 100
2, 81788, Note_off_c, 0, 66, 100
2, 81792, Note_on_c, 0, 78, 120
2, 81792, Note_on_c, 0, 71, 120
2, 81792, Note_on_c, 0, 66, 120
2, 82172, Note_off_c, 0, 78, 100
2, 82172, Note_off_c, 0, 71, 100
2, 82172, Note_off_c, 0, 66, 100
2, 82176, Note_on_c, 0, 78, 120
2, 82176, Note_on_c, 0, 73, 120
2, 82176, Note_on_c, 0, 70, 120
2, 82176, Note_on_c, 0, 66, 120
2, 82556, Note_off_c, 0, 78, 100
2, 82556, Note_off_c, 0, 73, 100
2, 82556, Note_off_c, 0, 70, 100
2, 82556, Note_off_c, 0, 66, 100
2, 82560, Note_on_c, 0, 78, 120
2, 82560, Note_on_c, 0, 75, 120
2, 82560, Note_on_c, 0, 71, 120
2, 82560, Note_on_c, 0, 66, 120
2, 82940, Note_off_c, 0, 78, 100
2, 82940, Note_off_c, 0, 75, 100
2, 82940, Note_off_c, 0, 71, 100
2, 82940, Note_off_c, 0, 66, 100
2, 82944, Note_on_c, 0, 79, 120
2, 82944, Note_on_c, 0, 67, 120
2, 83324, Note_off_c, 0, 79, 100
2, 83324, Note_off_c, 0, 67, 100
2, 83328, Note_on_c, 0, 80, 100
2, 83328, Note_on_c, 0, 68, 100
2, 83708, Note_off_c, 0, 80, 100
2, 83708, Note_off_c, 0, 68, 100
2, 84864, Note_on_c, 0, 58, 80
2, 84864, Note_on_c, 0, 52, 80
2, 85244, Note_off_c, 0, 58, 100
2, 85244, Note_off_c, 0, 52, 100
2, 86208, Note_on_c, 0, 59, 70
2, 86208, Note_on_c, 0, 51, 70
2, 86208, Note_on_c, 0, 47, 70
2, 86396, Note_off_c, 0, 59, 100
2, 86396, Note_off_c, 0, 51, 100
2, 86396, Note_off_c, 0, 47, 100
2, 86400, Note_on_c, 0, 59, 70
2, 86400, Note_on_c, 0, 51, 70
2, 86400, Note_on_c, 0, 47, 70
2, 86588, Note_off_c, 0, 59, 100
2, 86588, Note_off_c, 0, 51, 100
2, 86588, Note_off_c, 0, 47, 100
2, 86592, Note_on_c, 0, 59, 70
2, 86592, Note_on_c, 0, 51, 70
2, 86592, Note_on_c, 0, 47, 70
2, 86780, Note_off_c, 0, 59, 100
2, 86780, Note_off_c, 0, 51, 100
2, 86780, Note_off_c, 0, 47, 100
2, 86976, Note_on_c, 0, 59, 70
2, 86976, Note_on_c, 0, 56, 70
2, 86976, Note_on_c, 0, 47, 70
2, 87164, Note_off_c, 0, 59, 100
2, 87164, Note_off_c, 0, 56, 100
2, 87164, Note_off_c, 0, 47, 100
2, 87168, Note_on_c, 0, 59, 70
2, 87168, Note_on_c, 0, 56, 70
2, 87168, Note_on_c, 0, 47, 70
2, 87356, Note_off_c, 0, 59, 100
2, 87356, Note_off_c, 0, 56, 100
2, 87356, Note_off_c, 0, 47, 100
2, 87360, Note_on_c, 0, 59, 70
2, 87360, Note_on_c, 0, 56, 70
2, 87360, Note_on_c, 0, 47, 70
2, 87548, Note_off_c, 0, 59, 100
2, 87548, Note_off_c, 0, 56, 100
2, 87548, Note_off_c, 0, 47, 100
2, 87744, Note_on_c, 0, 59, 70
2, 87744, Note_on_c, 0, 54, 70
2, 87744, Note_on_c, 0, 47, 70
2, 87932, Note_off_c, 0, 59, 100
2, 87932, Note_off_c, 0, 54, 100
2, 87932, Note_off_c, 0, 47, 100
2, 87936, Note_on_c, 0, 59, 70
2, 87936, Note_on_c, 0, 54, 70
2, 87936, Note_on_c, 0, 47, 70
2, 88124, Note_off_c, 0, 59, 100
2, 88124, Note_off_c, 0, 54, 100
2, 88124, Note_off_c, 0, 47, 100
2, 88128, Note_on_c, 0, 59, 70
2, 88128, Note_on_c, 0, 54, 70
2, 88128, Note_on_c, 0, 47, 70
2, 88316, Note_off_c, 0, 59, 100
2, 88316, Note_off_c, 0, 54, 100
2, 88316, Note_off_c, 0, 47, 100
2, 88512, Note_on_c, 0, 59, 70
2, 88512, Note_on_c, 0, 52, 70
2, 88512, Note_on_c, 0, 47, 70
2, 88700, Note_off_c, 0, 59, 100
2, 88700, Note_off_c, 0, 52, 100
2, 88700, Note_off_c, 0, 47, 100
2, 88704, Note_on_c, 0, 59, 70
2, 88704, Note_on_c, 0, 52, 70
2, 88704, Note_on_c, 0, 47, 70
2, 88892, Note_off_c, 0, 59, 100
2, 88892, Note_off_c, 0, 52, 100
2, 88892, Note_off_c, 0, 47, 100
2, 88896, Note_on_c, 0, 59, 70
2, 88896, Note_on_c, 0, 52, 70
2, 88896, Note_on_c, 0, 47, 70
2, 89084, Note_off_c, 0, 59, 100
2, 89084, Note_off_c, 0, 52, 100
2, 89084, Note_off_c, 0, 47, 100
2, 89280, Note_on_c, 0, 59, 70
2, 89280, Note_on_c, 0, 51, 70
2, 89280, Note_on_c, 0, 47, 70
2, 89468, Note_off_c, 0, 59, 100
2, 89468, Note_off_c, 0, 51, 100
2, 89468, Note_off_c, 0, 47, 100
2, 89472, Note_on_c, 0, 59, 70
2, 89472, Note_on_c, 0, 51, 70
2, 89472, Note_on_c, 0, 47, 70
2, 89660, Note_off_c, 0, 59, 100
2, 89660, Note_off_c, 0, 51, 100
2, 89660, Note_off_c, 0, 47, 100
2, 89664, Note_on_c, 0, 59, 70
2, 89664, Note_on_c, 0, 51, 70
2, 89664, Note_on_c, 0, 47, 70
2, 89852, Note_off_c, 0, 59, 100
2, 89852, Note_off_c, 0, 51, 100
2, 89852, Note_off_c, 0, 47, 100
2, 90048, Note_on_c, 0, 59, 70
2, 90048, Note_on_c, 0, 58, 70
2, 90048, Note_on_c, 0, 49, 70
2, 90048, Note_on_c, 0, 47, 70
2, 90236, Note_off_c, 0, 59, 100
2, 90236, Note_off_c, 0, 58, 100
2, 90236, Note_off_c, 0, 49, 100
2, 90236, Note_off_c, 0, 47, 100
2, 90240, Note_on_c, 0, 59, 70
2, 90240, Note_on_c, 0, 58, 70
2, 90240, Note_on_c, 0, 49, 70
2, 90240, Note_on_c, 0, 47, 70
2, 90428, Note_off_c, 0, 59, 100
2, 90428, Note_off_c, 0, 58, 100
2, 90428, Note_off_c, 0, 49, 100
2, 90428, Note_off_c, 0, 47, 100
2, 90432, Note_on_c, 0, 59, 70
2, 90432, Note_on_c, 0, 58, 70
2, 90432, Note_on_c, 0, 49, 70
2, 90432, Note_on_c, 0, 47, 70
2, 90620, Note_off_c, 0, 59, 100
2, 90620, Note_off_c, 0, 58, 100
2, 90620, Note_off_c, 0, 49, 100
2, 90620, Note_off_c, 0, 47, 100
2, 90816, Note_on_c, 0, 59, 70
2, 90816, Note_on_c, 0, 47, 70
2, 91004, Note_off_c, 0, 59, 100
2, 91004, Note_off_c, 0, 47, 100
2, 91008, Note_on_c, 0, 59, 70
2, 91008, Note_on_c, 0, 47, 70
2, 91196, Note_off_c, 0, 59, 100
2, 91196, Note_off_c, 0, 47, 100
2, 91200, Note_on_c, 0, 59, 70
2, 91200, Note_on_c, 0, 47, 70
2, 91388, Note_off_c, 0, 59, 100
2, 91388, Note_off_c, 0, 47, 100
2, 91584, Note_on_c, 0, 57, 70
2, 91584, Note_on_c, 0, 51, 70
2, 91584, Note_on_c, 0, 47, 70
2, 91584, Note_on_c, 0, 59, 70
2, 91772, Note_off_c, 0, 57, 100
2, 91772, Note_off_c, 0, 51, 100
2, 91772, Note_off_c, 0, 47, 100
2, 91772, Note_off_c, 0, 59, 100
2, 91776, Note_on_c, 0, 57, 70
2, 91776, Note_on_c, 0, 51, 70
2, 91776, Note_on_c, 0, 47, 70
2, 91776, Note_on_c, 0, 59, 70
2, 91964, Note_off_c, 0, 57, 100
2, 91964, Note_off_c, 0, 51, 100
2, 91964, Note_off_c, 0, 47, 100
2, 91964, Note_off_c, 0, 59, 100
2, 91968, Note_on_c, 0, 57, 70
2, 91968, Note_on_c, 0, 51, 70
2, 91968, Note_on_c, 0, 47, 70
2, 91968, Note_on_c, 0, 59, 70
2, 92156, Note_off_c, 0, 57, 100
2, 92156, Note_off_c, 0, 51, 100
2, 92156, Note_off_c, 0, 47, 100
2, 92156, Note_off_c, 0, 59, 100
2, 92160, Note_on_c, 0, 71, 80
2, 92924, Note_off_c, 0, 71, 100
2, 92928, Note_on_c, 0, 76, 80
2, 92928, Note_on_c, 0, 64, 80
2, 93692, Note_off_c, 0, 76, 100
2, 93692, Note_off_c, 0, 64, 100
2, 93696, Note_on_c, 0, 73, 80
2, 94460, Note_off_c, 0, 73, 100
2, 94464, Note_on_c, 0, 78, 80
2, 94464, Note_on_c, 0, 66, 80
2, 95228, Note_off_c, 0, 78, 100
2, 95228, Note_off_c, 0, 66, 100
2, 95232, Note_on_c, 0, 75, 80
2, 95996, Note_off_c, 0, 75, 100
2, 96000, Note_on_c, 0, 83, 80
2, 96000, Note_on_c, 0, 71, 80
2, 96764, Note_off_c, 0, 83, 100
2, 96764, Note_off_c, 0, 71, 100
2, 96768, Note_on_c, 0, 83, 80
2, 97340, Note_off_c, 0, 83, 100
2, 97344, Note_on_c, 0, 85, 80
2, 97436, Note_off_c, 0, 85, 100
2, 97440, Note_on_c, 0, 87, 80
2, 97532, Note_off_c, 0, 87, 100
2, 97536, Note_on_c, 0, 88, 80
2, 97916, Note_off_c, 0, 88, 100
2, 98304, Note_on_c, 0, 80, 80
2, 98396, Note_off_c, 0, 80, 100
2, 98400, Note_on_c, 0, 76, 80
2, 98492, Note_off_c, 0, 76, 100
2, 98496, Note_on_c, 0, 81, 80
2, 98588, Note_off_c, 0, 81, 100
2, 98592, Note_on_c, 0, 78, 80
2, 98684, Note_off_c, 0, 78, 100
2, 98688, Note_on_c, 0, 83, 80
2, 98780, Note_off_c, 0, 83, 100
2, 98784, Note_on_c, 0, 80, 80
2, 98876, Note_off_c, 0, 80, 100
2, 98880, Note_on_c, 0, 85, 80
2, 98972, Note_off_c, 0, 85, 100
2, 98976, Note_on_c, 0, 81, 80
2, 99068, Note_off_c, 0, 81, 100
2, 99072, Note_on_c, 0, 83, 80
2, 99452, Note_off_c, 0, 83, 100
2, 99840, Note_on_c, 0, 56, 80
2, 99932, Note_off_c, 0, 56, 100
2, 99936, Note_on_c, 0, 52, 80
2, 100028, Note_off_c, 0, 52, 100
2, 100032, Note_on_c, 0, 57, 80
2, 100124, Note_off_c, 0, 57, 100
2, 100128, Note_on_c, 0, 54, 80
2, 100220, Note_off_c, 0, 54, 100
2, 100224, Note_on_c, 0, 59, 80
2, 100316, Note_off_c, 0, 59, 100
2, 100320, Note_on_c, 0, 56, 80
2, 100412, Note_off_c, 0, 56, 100
2, 100416, Note_on_c, 0, 61, 80
2, 100508, Note_off_c, 0, 61, 100
2, 100512, Note_on_c, 0, 57, 80
2, 100604, Note_off_c, 0, 57, 100
2, 100608, Note_on_c, 0, 59, 80
2, 100988, Note_off_c, 0, 59, 100
2, 101568, Note_on_c, 0, 59, 80
2, 101760, Note_on_c, 0, 68, 80
2, 101948, Note_off_c, 0, 68, 100
2, 101952, Note_on_c, 0, 64, 80
2, 102140, Note_off_c, 0, 64, 100
2, 102144, Note_on_c, 0, 69, 80
2, 102332, Note_off_c, 0, 69, 100
2, 102336, Note_on_c, 0, 66, 80
2, 102524, Note_off_c, 0, 66, 100
2, 102528, Note_on_c, 0, 63, 80
2, 102716, Note_off_c, 0, 63, 100
2, 102720, Note_on_c, 0, 71, 80
2, 102908, Note_off_c, 0, 59, 100
2, 102908, Note_off_c, 0, 71, 100
2, 103104, Note_on_c, 0, 73, 80
2, 103152, Note_on_c, 0, 71, 80
2, 103196, Note_off_c, 0, 73, 100
2, 103200, Note_on_c, 0, 70, 80
2, 103244, Note_off_c, 0, 71, 100
2, 103248, Note_on_c, 0, 71, 80
2, 103292, Note_off_c, 0, 70, 100
2, 103296, Note_on_c, 0, 80, 80
2, 103484, Note_off_c, 0, 80, 100
2, 103488, Note_on_c, 0, 76, 80
2, 103676, Note_off_c, 0, 76, 100
2, 103680, Note_on_c, 0, 81, 80
2, 103868, Note_off_c, 0, 81, 100
2, 103872, Note_on_c, 0, 78, 80
2, 104060, Note_off_c, 0, 78, 100
2, 104064, Note_on_c, 0, 75, 80
2, 104252, Note_off_c, 0, 75, 100
2, 104256, Note_on_c, 0, 83, 80
2, 104444, Note_off_c, 0, 71, 100
2, 104448, Note_on_c, 0, 71, 80
2, 105020, Note_off_c, 0, 83, 100
2, 105024, Note_on_c, 0, 81, 80
2, 105116, Note_off_c, 0, 81, 100
2, 105120, Note_on_c, 0, 80, 80
2, 105212, Note_off_c, 0, 71, 100
2, 105212, Note_off_c, 0, 80, 100
2, 105216, Note_on_c, 0, 78, 80
2, 105216, Note_on_c, 0, 73, 80
2, 105404, Note_off_c, 0, 78, 100
2, 105408, Note_on_c, 0, 76, 80
2, 105596, Note_off_c, 0, 76, 100
2, 105600, Note_on_c, 0, 75, 80
2, 105788, Note_off_c, 0, 75, 100
2, 105792, Note_on_c, 0, 73, 80
2, 105980, Note_off_c, 0, 73, 100
2, 105980, Note_off_c, 0, 73, 100
2, 105984, Note_on_c, 0, 71, 80
2, 105984, Note_on_c, 0, 64, 80
2, 105984, Note_on_c, 0, 68, 80
2, 106364, Note_off_c, 0, 68, 100
2, 106368, Note_on_c, 0, 67, 80
2, 106748, Note_off_c, 0, 67, 100
2, 106752, Note_on_c, 0, 66, 80
2, 107132, Note_off_c, 0, 64, 100
2, 107136, Note_on_c, 0, 63, 80
2, 107516, Note_off_c, 0, 71, 100
2, 107516, Note_off_c, 0, 66, 100
2, 107516, Note_off_c, 0, 63, 100
2, 107520, Note_on_c, 0, 71, 80
2, 107520, Note_on_c, 0, 59, 80
2, 107520, Note_on_c, 0, 64, 80
2, 108092, Note_off_c, 0, 71, 100
2, 108096, Note_on_c, 0, 69, 80
2, 108188, Note_off_c, 0, 69, 100
2, 108192, Note_on_c, 0, 68, 80
2, 108284, Note_off_c, 0, 59, 100
2, 108284, Note_off_c, 0, 64, 100
2, 108284, Note_off_c, 0, 68, 100
2, 108288, Note_on_c, 0, 66, 80
2, 108288, Note_on_c, 0, 61, 80
2, 108476, Note_off_c, 0, 66, 100
2, 108480, Note_on_c, 0, 64, 80
2, 108668, Note_off_c, 0, 64, 100
2, 108672, Note_on_c, 0, 63, 80
2, 108860, Note_off_c, 0, 63, 100
2, 108864, Note_on_c, 0, 61, 80
2, 109052, Note_off_c, 0, 61, 100
2, 109052, Note_off_c, 0, 61, 100
2, 109056, Note_on_c, 0, 59, 80
2, 109056, Note_on_c, 0, 52, 80
2, 109056, Note_on_c, 0, 56, 80
2, 109436, Note_off_c, 0, 56, 100
2, 109440, Note_on_c, 0, 55, 80
2, 109820, Note_off_c, 0, 55, 100
2, 109824, Note_on_c, 0, 54, 80
2, 110204, Note_off_c, 0, 52, 100
2, 110208, Note_on_c, 0, 51, 80
2, 110588, Note_off_c, 0, 59, 100
2, 110588, Note_off_c, 0, 54, 100
2, 110588, Note_off_c, 0, 51, 100
2, 110592, Note_on_c, 0, 59, 80
2, 111356, Note_off_c, 0, 59, 100
2, 111360, Note_on_c, 0, 64, 80
2, 111360, Note_on_c, 0, 52, 80
2, 112124, Note_off_c, 0, 64, 100
2, 112124, Note_off_c, 0, 52, 100
2, 112128, Note_on_c, 0, 61, 80
2, 112892, Note_off_c, 0, 61, 100
2, 112896, Note_on_c, 0, 66, 80
2, 112896, Note_on_c, 0, 54, 80
2, 113660, Note_off_c, 0, 66, 100
2, 113660, Note_off_c, 0, 54, 100
2, 113664, Note_on_c, 0, 68, 80
2, 113664, Note_on_c, 0, 56, 80
2, 114428, Note_off_c, 0, 68, 100
2, 114428, Note_off_c, 0, 56, 100
2, 114432, Note_on_c, 0, 69, 85
2, 114432, Note_on_c, 0, 57, 85
2, 115196, Note_off_c, 0, 69, 100
2, 115196, Note_off_c, 0, 57, 100
2, 115200, Note_on_c, 0, 70, 90
2, 115200, Note_on_c, 0, 58, 90
2, 115964, Note_off_c, 0, 70, 100
2, 115964, Note_off_c, 0, 58, 100
2, 115968, Note_on_c, 0, 71, 95
2, 115968, Note_on_c, 0, 59, 95
2, 116732, Note_off_c, 0, 71, 100
2, 116732, Note_off_c, 0, 59, 100
2, 116736, Note_on_c, 0, 58, 110
2, 116736, Note_on_c, 0, 70, 110
2, 117116, Note_off_c, 0, 70, 100
2, 117120, Note_on_c, 0, 66, 110
2, 117500, Note_off_c, 0, 58, 100
2, 117500, Note_off_c, 0, 66, 100
2, 117504, Note_on_c, 0, 74, 90
2, 117504, Note_on_c, 0, 65, 90
2, 118076, Note_off_c, 0, 65, 100
2, 118080, Note_on_c, 0, 66, 90
2, 118172, Note_off_c, 0, 66, 100
2, 118176, Note_on_c, 0, 68, 90
2, 118268, Note_off_c, 0, 74, 100
2, 118268, Note_off_c, 0, 68, 100
2, 118272, Note_on_c, 0, 73, 90
2, 118272, Note_on_c, 0, 61, 90
2, 118652, Note_off_c, 0, 73, 100
2, 118656, Note_on_c, 0, 70, 90
2, 119036, Note_off_c, 0, 61, 100
2, 119036, Note_off_c, 0, 70, 100
2, 119040, Note_on_c, 0, 71, 110
2, 119040, Note_on_c, 0, 65, 110
2, 119040, Note_on_c, 0, 59, 110
2, 119804, Note_off_c, 0, 71, 100
2, 119804, Note_off_c, 0, 65, 100
2, 119804, Note_off_c, 0, 59, 100
2, 119808, Note_on_c, 0, 58, 110
2, 119808, Note_on_c, 0, 70, 110
2, 120188, Note_off_c, 0, 70, 100
2, 120192, Note_on_c, 0, 66, 110
2, 120572, Note_off_c, 0, 58, 100
2, 120572, Note_off_c, 0, 66, 100
2, 120576, Note_on_c, 0, 74, 90
2, 120576, Note_on_c, 0, 65, 90
2, 121148, Note_off_c, 0, 65, 100
2, 121152, Note_on_c, 0, 66, 90
2, 121244, Note_off_c, 0, 66, 100
2, 121248, Note_on_c, 0, 68, 90
2, 121340, Note_off_c, 0, 74, 100
2, 121340, Note_off_c, 0, 68, 100
2, 121344, Note_on_c, 0, 73, 90
2, 121344, Note_on_c, 0, 61, 90
2, 121724, Note_off_c, 0, 73, 100
2, 121728, Note_on_c, 0, 70, 90
2, 122108, Note_off_c, 0, 61, 100
2, 122108, Note_off_c, 0, 70, 100
2, 122112, Note_on_c, 0, 77, 110
2, 122112, Note_on_c, 0, 68, 110
2, 122112, Note_on_c, 0, 71, 110
2, 122684, Note_off_c, 0, 71, 100
2, 122688, Note_on_c, 0, 73, 110
2, 122780, Note_off_c, 0, 73, 100
2, 122784, Note_on_c, 0, 74, 110
2, 122876, Note_off_c, 0, 77, 100
2, 122876, Note_off_c, 0, 68, 100
2, 122876, Note_off_c, 0, 74, 100
2, 122880, Note_on_c, 0, 78, 110
2, 122880, Note_on_c, 0, 73, 110
2, 122880, Note_on_c, 0, 70, 110
2, 123260, Note_off_c, 0, 78, 100
2, 123260, Note_off_c, 0, 73, 100
2, 123260, Note_off_c, 0, 70, 100
2, 123648, Note_on_c, 0, 66, 110
2, 123648, Note_on_c, 0, 61, 110
2, 123648, Note_on_c, 0, 58, 110
2, 124028, Note_off_c, 0, 66, 100
2, 124028, Note_off_c, 0, 61, 100
2, 124028, Note_off_c, 0, 58, 100
2, 124416, Note_on_c, 0, 54, 110
2, 124416, Note_on_c, 0, 49, 110
2, 124416, Note_on_c, 0, 46, 110
2, 124796, Note_off_c, 0, 54, 100
2, 124796, Note_off_c, 0, 49, 100
2, 124796, Note_off_c, 0, 46, 100
2, 125184, Note_on_c, 0, 78, 80
2, 125372, Note_off_c, 0, 78, 100
2, 125376, Note_on_c, 0, 76, 80
2, 125564, Note_off_c, 0, 76, 100
2, 125568, Note_on_c, 0, 75, 80
2, 125756, Note_off_c, 0, 75, 100
2, 125760, Note_on_c, 0, 73, 80
2, 125948, Note_off_c, 0, 73, 100
2, 125952, Note_on_c, 0, 71, 80
2, 126716, Note_off_c, 0, 71, 100
2, 126720, Note_on_c, 0, 72, 80
2, 127100, Note_off_c, 0, 72, 100
2, 127104, Note_on_c, 0, 73, 80
2, 127484, Note_off_c, 0, 73, 100
2, 127488, Note_on_c, 0, 74, 80
2, 127868, Note_off_c, 0, 74, 100
2, 127872, Note_on_c, 0, 75, 80
2, 128252, Note_off_c, 0, 75, 100
2, 128256, Note_on_c, 0, 76, 80
2, 128636, Note_off_c, 0, 76, 100
2, 128640, Note_on_c, 0, 78, 80
2, 129020, Note_off_c, 0, 78, 100
2, 129024, Note_on_c, 0, 79, 80
2, 129404, Note_off_c, 0, 79, 100
2, 129408, Note_on_c, 0, 80, 80
2, 129792, Note_on_c, 0, 68, 80
2, 130172, Note_off_c, 0, 80, 100
2, 130176, Note_on_c, 0, 78, 80
2, 130940, Note_off_c, 0, 78, 100
2, 130944, Note_on_c, 0, 76, 80
2, 131324, Note_off_c, 0, 68, 100
2, 131324, Note_off_c, 0, 76, 100
2, 131328, Note_on_c, 0, 75, 80
2, 131376, Note_on_c, 0, 76, 80
2, 131420, Note_off_c, 0, 75, 100
2, 131424, Note_on_c, 0, 78, 80
2, 131468, Note_off_c, 0, 76, 100
2, 131472, Note_on_c, 0, 76, 80
2, 131516, Note_off_c, 0, 78, 100
2, 131516, Note_off_c, 0, 76, 100
2, 131520, Note_on_c, 0, 75, 80
2, 131708, Note_off_c, 0, 75, 100
2, 131712, Note_on_c, 0, 73, 80
2, 131900, Note_off_c, 0, 73, 100
2, 131904, Note_on_c, 0, 71, 80
2, 132092, Note_off_c, 0, 71, 100
2, 132096, Note_on_c, 0, 70, 80
2, 132860, Note_off_c, 0, 70, 100
2, 132864, Note_on_c, 0, 71, 80
2, 133244, Note_off_c, 0, 71, 100
2, 133248, Note_on_c, 0, 72, 80
2, 133628, Note_off_c, 0, 72, 100
2, 133632, Note_on_c, 0, 73, 80
2, 134012, Note_off_c, 0, 73, 100
2, 134016, Note_on_c, 0, 74, 80
2, 134396, Note_off_c, 0, 74, 100
2, 134400, Note_on_c, 0, 75, 80
2, 134780, Note_off_c, 0, 75, 100
2, 134784, Note_on_c, 0, 76, 80
2, 135164, Note_off_c, 0, 76, 100
2, 135168, Note_on_c, 0, 77, 80
2, 135548, Note_off_c, 0, 77, 100
2, 135552, Note_on_c, 0, 78, 80
2, 135936, Note_on_c, 0, 66, 80
2, 136316, Note_off_c, 0, 78, 100
2, 136320, Note_on_c, 0, 76, 80
2, 137084, Note_off_c, 0, 76, 100
2, 137088, Note_on_c, 0, 75, 80
2, 137468, Note_off_c, 0, 66, 100
2, 137468, Note_off_c, 0, 75, 100
2, 139008, Note_on_c, 0, 54, 80
2, 139196, Note_off_c, 0, 54, 100
2, 139200, Note_on_c, 0, 52, 80
2, 139388, Note_off_c, 0, 52, 100
2, 139392, Note_on_c, 0, 51, 80
2, 139580, Note_off_c, 0, 51, 100
2, 139584, Note_on_c, 0, 49, 80
2, 139772, Note_off_c, 0, 49, 100
2, 139776, Note_on_c, 0, 48, 80
2, 140156, Note_off_c, 0, 48, 100
2, 140544, Note_on_c, 0, 78, 80
2, 140732, Note_off_c, 0, 78, 100
2, 140736, Note_on_c, 0, 76, 80
2, 140924, Note_off_c, 0, 76, 100
2, 140928, Note_on_c, 0, 75, 80
2, 141116, Note_off_c, 0, 75, 100
2, 141120, Note_on_c, 0, 73, 80
2, 141308, Note_off_c, 0, 73, 100
2, 141312, Note_on_c, 0, 72, 80
2, 142076, Note_off_c, 0, 72, 100
2, 142080, Note_on_c, 0, 81, 80
2, 142080, Note_on_c, 0, 75, 80
2, 142080, Note_on_c, 0, 72, 80
2, 143228, Note_off_c, 0, 72, 100
2, 143228, Note_off_c, 0, 75, 100
2, 143228, Note_off_c, 0, 81, 100
2, 143232, Note_on_c, 0, 80, 80
2, 143232, Note_on_c, 0, 76, 80
2, 143232, Note_on_c, 0, 73, 80
2, 143612, Note_off_c, 0, 80, 100
2, 143612, Note_off_c, 0, 76, 100
2, 143612, Note_off_c, 0, 73, 100
2, 145152, Note_on_c, 0, 52, 80
2, 145340, Note_off_c, 0, 52, 100
2, 145344, Note_on_c, 0, 51, 80
2, 145532, Note_off_c, 0, 51, 100
2, 145536, Note_on_c, 0, 49, 80
2, 145724, Note_off_c, 0, 49, 100
2, 145728, Note_on_c, 0, 47, 80
2, 145916, Note_off_c, 0, 47, 100
2, 145920, Note_on_c, 0, 46, 80
2, 146300, Note_off_c, 0, 46, 100
2, 146688, Note_on_c, 0, 76, 80
2, 146876, Note_off_c, 0, 76, 100
2, 146880, Note_on_c, 0, 75, 80
2, 147068, Note_off_c, 0, 75, 100
2, 147072, Note_on_c, 0, 73, 80
2, 147260, Note_off_c, 0, 73, 100
2, 147264, Note_on_c, 0, 71, 80
2, 147452, Note_off_c, 0, 71, 100
2, 147456, Note_on_c, 0, 70, 80
2, 148220, Note_off_c, 0, 70, 100
2, 148224, Note_on_c, 0, 79, 80
2, 148224, Note_on_c, 0, 73, 80
2, 148224, Note_on_c, 0, 70, 80
2, 149372, Note_off_c, 0, 70, 100
2, 149372, Note_off_c, 0, 73, 100
2, 149372, Note_off_c, 0, 79, 100
2, 149376, Note_on_c, 0, 78, 80
2, 149376, Note_on_c, 0, 75, 80
2, 149376, Note_on_c, 0, 71, 80
2, 149756, Note_off_c, 0, 78, 100
2, 149756, Note_off_c, 0, 75, 100
2, 149756, Note_off_c, 0, 71, 100
2, 150144, Note_on_c, 0, 78, 80
2, 150144, Note_on_c, 0, 71, 80
2, 150524, Note_off_c, 0, 78, 100
2, 150524, Note_off_c, 0, 71, 100
2, 150528, Note_on_c, 0, 78, 80
2, 150528, Note_on_c, 0, 70, 80
2, 150716, Note_off_c, 0, 78, 100
2, 150720, Note_on_c, 0, 80, 80
2, 150780, Note_off_c, 0, 80, 100
2, 150784, Note_on_c, 0, 78, 80
2, 150844, Note_off_c, 0, 78, 100
2, 150848, Note_on_c, 0, 77, 80
2, 150908, Note_off_c, 0, 77, 100
2, 150912, Note_on_c, 0, 78, 80
2, 151100, Note_off_c, 0, 78, 100
2, 151104, Note_on_c, 0, 82, 80
2, 151292, Note_off_c, 0, 70, 100
2, 151292, Note_off_c, 0, 82, 100
2, 151296, Note_on_c, 0, 83, 80
2, 151296, Note_on_c, 0, 71, 80
2, 151676, Note_off_c, 0, 83, 100
2, 151676, Note_off_c, 0, 71, 100
2, 151680, Note_on_c, 0, 78, 80
2, 151680, Note_on_c, 0, 71, 80
2, 152060, Note_off_c, 0, 78, 100
2, 152060, Note_off_c, 0, 71, 100
2, 152064, Note_on_c, 0, 78, 80
2, 152064, Note_on_c, 0, 70, 80
2, 152252, Note_off_c, 0, 78, 100
2, 152256, Note_on_c, 0, 80, 80
2, 152316, Note_off_c, 0, 80, 100
2, 152320, Note_on_c, 0, 78, 80
2, 152380, Note_off_c, 0, 78, 100
2, 152384, Note_on_c, 0, 77, 80
2, 152444, Note_off_c, 0, 77, 100
2, 152448, Note_on_c, 0, 78, 80
2, 152636, Note_off_c, 0, 78, 100
2, 152640, Note_on_c, 0, 82, 80
2, 152828, Note_off_c, 0, 70, 100
2, 152828, Note_off_c, 0, 82, 100
2, 152832, Note_on_c, 0, 83, 80
2, 152832, Note_on_c, 0, 71, 80
2, 153212, Note_off_c, 0, 83, 100
2, 153212, Note_off_c, 0, 71, 100
2, 153216, Note_on_c, 0, 72, 80
2, 153216, Note_on_c, 0, 84, 80
2, 153596, Note_off_c, 0, 72, 100
2, 153596, Note_off_c, 0, 84, 100
2, 153600, Note_on_c, 0, 73, 80
2, 153600, Note_on_c, 0, 85, 80
2, 153980, Note_off_c, 0, 73, 100
2, 153980, Note_off_c, 0, 85, 100
2, 153984, Note_on_c, 0, 87, 80
2, 153984, Note_on_c, 0, 75, 80
2, 154364, Note_off_c, 0, 87, 100
2, 154364, Note_off_c, 0, 75, 100
2, 154368, Note_on_c, 0, 88, 80
2, 154368, Note_on_c, 0, 76, 80
2, 154748, Note_off_c, 0, 88, 100
2, 154748, Note_off_c, 0, 76, 100
2, 154752, Note_on_c, 0, 90, 80
2, 154752, Note_on_c, 0, 78, 80
2, 155132, Note_off_c, 0, 90, 100
2, 155132, Note_off_c, 0, 78, 100
2, 155136, Note_on_c, 0, 76, 80
2, 155136, Note_on_c, 0, 88, 80
2, 155900, Note_off_c, 0, 76, 100
2, 155900, Note_off_c, 0, 88, 100
2, 155904, Note_on_c, 0, 87, 80
2, 155904, Note_on_c, 0, 75, 80
2, 156284, Note_off_c, 0, 87, 100
2, 156284, Note_off_c, 0, 75, 100
2, 156288, Note_on_c, 0, 78, 80
2, 156288, Note_on_c, 0, 71, 80
2, 156668, Note_off_c, 0, 78, 100
2, 156668, Note_off_c, 0, 71, 100
2, 156672, Note_on_c, 0, 78, 80
2, 156672, Note_on_c, 0, 70, 80
2, 156860, Note_off_c, 0, 78, 100
2, 156864, Note_on_c, 0, 80, 80
2, 156924, Note_off_c, 0, 80, 100
2, 156928, Note_on_c, 0, 78, 80
2, 156988, Note_off_c, 0, 78, 100
2, 156992, Note_on_c, 0, 77, 80
2, 157052, Note_off_c, 0, 77, 100
2, 157056, Note_on_c, 0, 78, 80
2, 157244, Note_off_c, 0, 78, 100
2, 157248, Note_on_c, 0, 82, 80
2, 157436, Note_off_c, 0, 70, 100
2, 157436, Note_off_c, 0, 82, 100
2, 157440, Note_on_c, 0, 83, 80
2, 157440, Note_on_c, 0, 71, 80
2, 157820, Note_off_c, 0, 83, 100
2, 157820, Note_off_c, 0, 71, 100
2, 157824, Note_on_c, 0, 78, 80
2, 157824, Note_on_c, 0, 71, 80
2, 158204, Note_off_c, 0, 78, 100
2, 158204, Note_off_c, 0, 71, 100
2, 158208, Note_on_c, 0, 78, 80
2, 158208, Note_on_c, 0, 70, 80
2, 158396, Note_off_c, 0, 78, 100
2, 158400, Note_on_c, 0, 80, 80
2, 158460, Note_off_c, 0, 80, 100
2, 158464, Note_on_c, 0, 78, 80
2, 158524, Note_off_c, 0, 78, 100
2, 158528, Note_on_c, 0, 77, 80
2, 158588, Note_off_c, 0, 77, 100
2, 158592, Note_on_c, 0, 78, 80
2, 158780, Note_off_c, 0, 78, 100
2, 158784, Note_on_c, 0, 82, 80
2, 158972, Note_off_c, 0, 70, 100
2, 158972, Note_off_c, 0, 82, 100
2, 158976, Note_on_c, 0, 83, 80
2, 158976, Note_on_c, 0, 71, 80
2, 159356, Note_off_c, 0, 83, 100
2, 159356, Note_off_c, 0, 71, 100
2, 159360, Note_on_c, 0, 72, 80
2, 159360, Note_on_c, 0, 84, 80
2, 159740, Note_off_c, 0, 72, 100
2, 159740, Note_off_c, 0, 84, 100
2, 159744, Note_on_c, 0, 85, 80
2, 159744, Note_on_c, 0, 73, 80
2, 160124, Note_off_c, 0, 85, 100
2, 160124, Note_off_c, 0, 73, 100
2, 160128, Note_on_c, 0, 87, 80
2, 160128, Note_on_c, 0, 75, 80
2, 160508, Note_off_c, 0, 87, 100
2, 160508, Note_off_c, 0, 75, 100
2, 160512, Note_on_c, 0, 88, 80
2, 160512, Note_on_c, 0, 76, 80
2, 160892, Note_off_c, 0, 88, 100
2, 160892, Note_off_c, 0, 76, 100
2, 160896, Note_on_c, 0, 82, 80
2, 160896, Note_on_c, 0, 70, 80
2, 161276, Note_off_c, 0, 82, 100
2, 161276, Note_off_c, 0, 70, 100
2, 161280, Note_on_c, 0, 83, 80
2, 161280, Note_on_c, 0, 71, 80
2, 161660, Note_off_c, 0, 83, 100
2, 161660, Note_off_c, 0, 71, 100
2, 161664, Note_on_c, 0, 66, 110
2, 161664, Note_on_c, 0, 63, 110
2, 161664, Note_on_c, 0, 59, 110
2, 162044, Note_off_c, 0, 66, 100
2, 162044, Note_off_c, 0, 63, 100
2, 162048, Note_on_c, 0, 64, 110
2, 162048, Note_on_c, 0, 67, 110
2, 162428, Note_off_c, 0, 59, 100
2, 162432, Note_on_c, 0, 58, 110
2, 162812, Note_off_c, 0, 58, 100
2, 162816, Note_on_c, 0, 59, 110
2, 163196, Note_off_c, 0, 64, 100
2, 163196, Note_off_c, 0, 67, 100
2, 163200, Note_on_c, 0, 66, 110
2, 163200, Note_on_c, 0, 63, 110
2, 163200, Note_on_c, 0, 59, 110
2, 163580, Note_off_c, 0, 66, 100
2, 163580, Note_off_c, 0, 63, 100
2, 163584, Note_on_c, 0, 64, 110
2, 163584, Note_on_c, 0, 68, 110
2, 163964, Note_off_c, 0, 59, 100
2, 163964, Note_off_c, 0, 59, 100
2, 163968, Note_on_c, 0, 58, 110
2, 164348, Note_off_c, 0, 58, 100
2, 164352, Note_on_c, 0, 59, 110
2, 164732, Note_off_c, 0, 64, 100
2, 164732, Note_off_c, 0, 68, 100
2, 164736, Note_on_c, 0, 66, 110
2, 164736, Note_on_c, 0, 63, 110
2, 164736, Note_on_c, 0, 59, 110
2, 165116, Note_off_c, 0, 66, 100
2, 165116, Note_off_c, 0, 63, 100
2, 165120, Note_on_c, 0, 64, 110
2, 165120, Note_on_c, 0, 67, 110
2, 165500, Note_off_c, 0, 59, 100
2, 165500, Note_off_c, 0, 59, 100
2, 165504, Note_on_c, 0, 58, 110
2, 165884, Note_off_c, 0, 58, 100
2, 165888, Note_on_c, 0, 59, 110
2, 166268, Note_off_c, 0, 64, 100
2, 166268, Note_off_c, 0, 67, 100
2, 166272, Note_on_c, 0, 66, 110
2, 166272, Note_on_c, 0, 63, 110
2, 166272, Note_on_c, 0, 59, 110
2, 166652, Note_off_c, 0, 66, 100
2, 166652, Note_off_c, 0, 63, 100
2, 166656, Note_on_c, 0, 64, 110
2, 166656, Note_on_c, 0, 68, 110
2, 167036, Note_off_c, 0, 59, 100
2, 167036, Note_off_c, 0, 59, 100
2, 167040, Note_on_c, 0, 58, 110
2, 167420, Note_off_c, 0, 58, 100
2, 167424, Note_on_c, 0, 59, 110
2, 167804, Note_off_c, 0, 64, 100
2, 167804, Note_off_c, 0, 68, 100
2, 167808, Note_on_c, 0, 63, 80
2, 167808, Note_on_c, 0, 66, 80
2, 168188, Note_off_c, 0, 63, 100
2, 168188, Note_off_c, 0, 66, 100
2, 168192, Note_on_c, 0, 70, 80
2, 168192, Note_on_c, 0, 64, 80
2, 168572, Note_off_c, 0, 59, 100
2, 168572, Note_off_c, 0, 70, 100
2, 168572, Note_off_c, 0, 64, 100
2, 168576, Note_on_c, 0, 71, 80
2, 168576, Note_on_c, 0, 66, 80
2, 168956, Note_off_c, 0, 71, 100
2, 168956, Note_off_c, 0, 66, 100
2, 168960, Note_on_c, 0, 75, 80
2, 168960, Note_on_c, 0, 68, 80
2, 168960, Note_on_c, 0, 64, 80
2, 169532, Note_off_c, 0, 75, 100
2, 169536, Note_on_c, 0, 73, 80
2, 169724, Note_off_c, 0, 68, 100
2, 169724, Note_off_c, 0, 64, 100
2, 169724, Note_off_c, 0, 73, 100
2, 169728, Note_on_c, 0, 71, 80
2, 169728, Note_on_c, 0, 66, 80
2, 170108, Note_off_c, 0, 71, 100
2, 170108, Note_off_c, 0, 66, 100
2, 170112, Note_on_c, 0, 70, 80
2, 170112, Note_on_c, 0, 66, 80
2, 170492, Note_off_c, 0, 70, 100
2, 170492, Note_off_c, 0, 66, 100
2, 170496, Note_on_c, 0, 66, 80
2, 170876, Note_off_c, 0, 66, 100
2, 170880, Note_on_c, 0, 66, 86
2, 170880, Note_on_c, 0, 71, 86
2, 171260, Note_off_c, 0, 66, 100
2, 171260, Note_off_c, 0, 71, 100
2, 171264, Note_on_c, 0, 66, 93
2, 171264, Note_on_c, 0, 73, 93
2, 171644, Note_off_c, 0, 66, 100
2, 171644, Note_off_c, 0, 73, 100
2, 171648, Note_on_c, 0, 66, 99
2, 171648, Note_on_c, 0, 75, 99
2, 172028, Note_off_c, 0, 66, 100
2, 172028, Note_off_c, 0, 75, 100
2, 172032, Note_on_c, 0, 78, 110
2, 172032, Note_on_c, 0, 68, 110
2, 172604, Note_off_c, 0, 78, 100
2, 172608, Note_on_c, 0, 76, 110
2, 172796, Note_off_c, 0, 68, 100
2, 172796, Note_off_c, 0, 76, 100
2, 172800, Note_on_c, 0, 75, 110
2, 172800, Note_on_c, 0, 66, 110
2, 173180, Note_off_c, 0, 75, 100
2, 173180, Note_off_c, 0, 66, 100
2, 173184, Note_on_c, 0, 73, 110
2, 173184, Note_on_c, 0, 66, 110
2, 173564, Note_off_c, 0, 73, 100
2, 173564, Note_off_c, 0, 66, 100
2, 173568, Note_on_c, 0, 78, 120
2, 173568, Note_on_c, 0, 66, 120
2, 173948, Note_off_c, 0, 78, 100
2, 173948, Note_off_c, 0, 66, 100
2, 173952, Note_on_c, 0, 78, 120
2, 173952, Note_on_c, 0, 71, 120
2, 173952, Note_on_c, 0, 66, 120
2, 174332, Note_off_c, 0, 78, 100
2, 174332, Note_off_c, 0, 71, 100
2, 174332, Note_off_c, 0, 66, 100
2, 174336, Note_on_c, 0, 78, 120
2, 174336, Note_on_c, 0, 73, 120
2, 174336, Note_on_c, 0, 70, 120
2, 174336, Note_on_c, 0, 66, 120
2, 174716, Note_off_c, 0, 78, 100
2, 174716, Note_off_c, 0, 73, 100
2, 174716, Note_off_c, 0, 70, 100
2, 174716, Note_off_c, 0, 66, 100
2, 174720, Note_on_c, 0, 78, 120
2, 174720, Note_on_c, 0, 75, 120
2, 174720, Note_on_c, 0, 71, 120
2, 174720, Note_on_c, 0, 66, 120
2, 175100, Note_off_c, 0, 78, 100
2, 175100, Note_off_c, 0, 75, 100
2, 175100, Note_off_c, 0, 71, 100
2, 175100, Note_off_c, 0, 66, 100
2, 175104, Note_on_c, 0, 79, 120
2, 175104, Note_on_c, 0, 67, 120
2, 175484, Note_off_c, 0, 79, 100
2, 175484, Note_off_c, 0, 67, 100
2, 175488, Note_on_c, 0, 80, 120
2, 175488, Note_on_c, 0, 68, 120
2, 175868, Note_off_c, 0, 80, 100
2, 175868, Note_off_c, 0, 68, 100
2, 177024, Note_on_c, 0, 58, 80
2, 177024, Note_on_c, 0, 52, 80
2, 177404, Note_off_c, 0, 58, 100
2, 177404, Note_off_c, 0, 52, 100
2, 178368, Note_on_c, 0, 59, 70
2, 178368, Note_on_c, 0, 51, 70
2, 178368, Note_on_c, 0, 47, 70
2, 178556, Note_off_c, 0, 59, 100
2, 178556, Note_off_c, 0, 51, 100
2, 178556, Note_off_c, 0, 47, 100
2, 178560, Note_on_c, 0, 59, 70
2, 178560, Note_on_c, 0, 51, 70
2, 178560, Note_on_c, 0, 47, 70
2, 178748, Note_off_c, 0, 59, 100
2, 178748, Note_off_c, 0, 51, 100
2, 178748, Note_off_c, 0, 47, 100
2, 178752, Note_on_c, 0, 59, 70
2, 178752, Note_on_c, 0, 51, 70
2, 178752, Note_on_c, 0, 47, 70
2, 178940, Note_off_c, 0, 59, 100
2, 178940, Note_off_c, 0, 51, 100
2, 178940, Note_off_c, 0, 47, 100
2, 179136, Note_on_c, 0, 59, 70
2, 179136, Note_on_c, 0, 56, 70
2, 179136, Note_on_c, 0, 47, 70
2, 179324, Note_off_c, 0, 59, 100
2, 179324, Note_off_c, 0, 56, 100
2, 179324, Note_off_c, 0, 47, 100
2, 179328, Note_on_c, 0, 59, 70
2, 179328, Note_on_c, 0, 56, 70
2, 179328, Note_on_c, 0, 47, 70
2, 179516, Note_off_c, 0, 59, 100
2, 179516, Note_off_c, 0, 56, 100
2, 179516, Note_off_c, 0, 47, 100
2, 179520, Note_on_c, 0, 59, 70
2, 179520, Note_on_c, 0, 56, 70
2, 179520, Note_on_c, 0, 47, 70
2, 179708, Note_off_c, 0, 59, 100
2, 179708, Note_off_c, 0, 56, 100
2, 179708, Note_off_c, 0, 47, 100
2, 179904, Note_on_c, 0, 59, 70
2, 179904, Note_on_c, 0, 54, 70
2, 179904, Note_on_c, 0, 47, 70
2, 180092, Note_off_c, 0, 59, 100
2, 180092, Note_off_c, 0, 54, 100
2, 180092, Note_off_c, 0, 47, 100
2, 180096, Note_on_c, 0, 59, 70
2, 180096, Note_on_c, 0, 54, 70
2, 180096, Note_on_c, 0, 47, 70
2, 180284, Note_off_c, 0, 59, 100
2, 180284, Note_off_c, 0, 54, 100
2, 180284, Note_off_c, 0, 47, 100
2, 180288, Note_on_c, 0, 59, 70
2, 180288, Note_on_c, 0, 54, 70
2, 180288, Note_on_c, 0, 47, 70
2, 180476, Note_off_c, 0, 59, 100
2, 180476, Note_off_c, 0, 54, 100
2, 180476, Note_off_c, 0, 47, 100
2, 180672, Note_on_c, 0, 59, 70
2, 180672, Note_on_c, 0, 52, 70
2, 180672, Note_on_c, 0, 47, 70
2, 180860, Note_off_c, 0, 59, 100
2, 180860, Note_off_c, 0, 52, 100
2, 180860, Note_off_c, 0, 47, 100
2, 180864, Note_on_c, 0, 59, 70
2, 180864, Note_on_c, 0, 52, 70
2, 180864, Note_on_c, 0, 47, 70
2, 181052, Note_off_c, 0, 59, 100
2, 181052, Note_off_c, 0, 52, 100
2, 181052, Note_off_c, 0, 47, 100
2, 181056, Note_on_c, 0, 59, 70
2, 181056, Note_on_c, 0, 52, 70
2, 181056, Note_on_c, 0, 47, 70
2, 181244, Note_off_c, 0, 59, 100
2, 181244, Note_off_c, 0, 52, 100
2, 181244, Note_off_c, 0, 47, 100
2, 181440, Note_on_c, 0, 59, 70
2, 181440, Note_on_c, 0, 51, 70
2, 181440, Note_on_c, 0, 47, 70
2, 181628, Note_off_c, 0, 59, 100
2, 181628, Note_off_c, 0, 51, 100
2, 181628, Note_off_c, 0, 47, 100
2, 181632, Note_on_c, 0, 59, 70
2, 181632, Note_on_c, 0, 51, 70
2, 181632, Note_on_c, 0, 47, 70
2, 181820, Note_off_c, 0, 59, 100
2, 181820, Note_off_c, 0, 51, 100
2, 181820, Note_off_c, 0, 47, 100
2, 181824, Note_on_c, 0, 59, 70
2, 181824, Note_on_c, 0, 51, 70
2, 181824, Note_on_c, 0, 47, 70
2, 182012, Note_off_c, 0, 59, 100
2, 182012, Note_off_c, 0, 51, 100
2, 182012, Note_off_c, 0, 47, 100
2, 182208, Note_on_c, 0, 59, 70
2, 182208, Note_on_c, 0, 58, 70
2, 182208, Note_on_c, 0, 49, 70
2, 182208, Note_on_c, 0, 47, 70
2, 182396, Note_off_c, 0, 59, 100
2, 182396, Note_off_c, 0, 58, 100
2, 182396, Note_off_c, 0, 49, 100
2, 182396, Note_off_c, 0, 47, 100
2, 182400, Note_on_c, 0, 59, 70
2, 182400, Note_on_c, 0, 58, 70
2, 182400, Note_on_c, 0, 49, 70
2, 182400, Note_on_c, 0, 47, 70
2, 182588, Note_off_c, 0, 59, 100
2, 182588, Note_off_c, 0, 58, 100
2, 182588, Note_off_c, 0, 49, 100
2, 182588, Note_off_c, 0, 47, 100
2, 182592, Note_on_c, 0, 59, 70
2, 182592, Note_on_c, 0, 58, 70
2, 182592, Note_on_c, 0, 49, 70
2, 182592, Note_on_c, 0, 47, 70
2, 182780, Note_off_c, 0, 59, 100
2, 182780, Note_off_c, 0, 58, 100
2, 182780, Note_off_c, 0, 49, 100
2, 182780, Note_off_c, 0, 47, 100
2, 182976, Note_on_c, 0, 59, 70
2, 182976, Note_on_c, 0, 47, 70
2, 183164, Note_off_c, 0, 59, 100
2, 183164, Note_off_c, 0, 47, 100
2, 183168, Note_on_c, 0, 59, 70
2, 183168, Note_on_c, 0, 47, 70
2, 183356, Note_off_c, 0, 59, 100
2, 183356, Note_off_c, 0, 47, 100
2, 183360, Note_on_c, 0, 59, 70
2, 183360, Note_on_c, 0, 47, 70
2, 183548, Note_off_c, 0, 59, 100
2, 183548, Note_off_c, 0, 47, 100
2, 183744, Note_on_c, 0, 57, 70
2, 183744, Note_on_c, 0, 51, 70
2, 183744, Note_on_c, 0, 47, 70
2, 183744, Note_on_c, 0, 59, 70
2, 183932, Note_off_c, 0, 57, 100
2, 183932, Note_off_c, 0, 51, 100
2, 183932, Note_off_c, 0, 47, 100
2, 183932, Note_off_c, 0, 59, 100
2, 183936, Note_on_c, 0, 57, 70
2, 183936, Note_on_c, 0, 51, 70
2, 183936, Note_on_c, 0, 47, 70
2, 183936, Note_on_c, 0, 59, 70
2, 184124, Note_off_c, 0, 57, 100
2, 184124, Note_off_c, 0, 51, 100
2, 184124, Note_off_c, 0, 47, 100
2, 184124, Note_off_c, 0, 59, 100
2, 184128, Note_on_c, 0, 57, 70
2, 184128, Note_on_c, 0, 51, 70
2, 184128, Note_on_c, 0, 47, 70
2, 184128, Note_on_c, 0, 59, 70
2, 184316, Note_off_c, 0, 57, 100
2, 184316, Note_off_c, 0, 51, 100
2, 184316, Note_off_c, 0, 47, 100
2, 184316, Note_off_c, 0, 59, 100
2, 184320, Note_on_c, 0, 71, 80
2, 185084, Note_off_c, 0, 71, 100
2, 185088, Note_on_c, 0, 76, 83
2, 185088, Note_on_c, 0, 64, 83
2, 185852, Note_off_c, 0, 76, 100
2, 185852, Note_off_c, 0, 64, 100
2, 185856, Note_on_c, 0, 72, 87
2, 186620, Note_off_c, 0, 72, 100
2, 186624, Note_on_c, 0, 65, 91
2, 186624, Note_on_c, 0, 77, 91
2, 187388, Note_off_c, 0, 65, 100
2, 187392, Note_on_c, 0, 71, 95
2, 188156, Note_off_c, 0, 77, 100
2, 188156, Note_off_c, 0, 71, 100
2, 188160, Note_on_c, 0, 71, 99
2, 188160, Note_on_c, 0, 83, 99
2, 188924, Note_off_c, 0, 71, 100
2, 188924, Note_off_c, 0, 83, 100
2, 188928, Note_on_c, 0, 74, 103
2, 188928, Note_on_c, 0, 86, 103
2, 189692, Note_off_c, 0, 74, 100
2, 189692, Note_off_c, 0, 86, 100
2, 189696, Note_on_c, 0, 89, 107
2, 189696, Note_on_c, 0, 77, 107
2, 190460, Note_off_c, 0, 89, 100
2, 190460, Note_off_c, 0, 77, 100
2, 190464, Note_on_c, 0, 76, 112
2, 190464, Note_on_c, 0, 88, 113
2, 191612, Note_off_c, 0, 76, 100
2, 191612, Note_off_c, 0, 88, 100
2, 191616, Note_on_c, 0, 86, 80
2, 191616, Note_on_c, 0, 74, 80
2, 191804, Note_off_c, 0, 86, 100
2, 191804, Note_off_c, 0, 74, 100
2, 191808, Note_on_c, 0, 84, 80
2, 191808, Note_on_c, 0, 72, 80
2, 191996, Note_off_c, 0, 84, 100
2, 191996, Note_off_c, 0, 72, 100
2, 192000, Note_on_c, 0, 83, 80
2, 192000, Note_on_c, 0, 71, 80
2, 192188, Note_off_c, 0, 83, 100
2, 192188, Note_off_c, 0, 71, 100
2, 192192, Note_on_c, 0, 81, 80
2, 192192, Note_on_c, 0, 69, 80
2, 192380, Note_off_c, 0, 81, 100
2, 192380, Note_off_c, 0, 69, 100
2, 192384, Note_on_c, 0, 80, 80
2, 192384, Note_on_c, 0, 68, 80
2, 192572, Note_off_c, 0, 80, 100
2, 192572, Note_off_c, 0, 68, 100
2, 192576, Note_on_c, 0, 81, 80
2, 192576, Note_on_c, 0, 69, 80
2, 192764, Note_off_c, 0, 81, 100
2, 192764, Note_off_c, 0, 69, 100
2, 192768, Note_on_c, 0, 80, 80
2, 192768, Note_on_c, 0, 68, 80
2, 192956, Note_off_c, 0, 80, 100
2, 192956, Note_off_c, 0, 68, 100
2, 192960, Note_on_c, 0, 81, 80
2, 192960, Note_on_c, 0, 69, 80
2, 193148, Note_off_c, 0, 81, 100
2, 193148, Note_off_c, 0, 69, 100
2, 193152, Note_on_c, 0, 83, 80
2, 193152, Note_on_c, 0, 71, 80
2, 193340, Note_off_c, 0, 83, 100
2, 193340, Note_off_c, 0, 71, 100
2, 193344, Note_on_c, 0, 81, 80
2, 193344, Note_on_c, 0, 69, 80
2, 193532, Note_off_c, 0, 81, 100
2, 193532, Note_off_c, 0, 69, 100
2, 193536, Note_on_c, 0, 81, 80
2, 193536, Note_on_c, 0, 69, 80
2, 194684, Note_off_c, 0, 81, 100
2, 194684, Note_off_c, 0, 69, 100
2, 194688, Note_on_c, 0, 86, 80
2, 194688, Note_on_c, 0, 74, 80
2, 194876, Note_off_c, 0, 86, 100
2, 194876, Note_off_c, 0, 74, 100
2, 194880, Note_on_c, 0, 84, 80
2, 194880, Note_on_c, 0, 72, 80
2, 195068, Note_off_c, 0, 84, 100
2, 195068, Note_off_c, 0, 72, 100
2, 195072, Note_on_c, 0, 83, 80
2, 195072, Note_on_c, 0, 71, 80
2, 195260, Note_off_c, 0, 83, 100
2, 195260, Note_off_c, 0, 71, 100
2, 195264, Note_on_c, 0, 81, 80
2, 195264, Note_on_c, 0, 69, 80
2, 195452, Note_off_c, 0, 81, 100
2, 195452, Note_off_c, 0, 69, 100
2, 195456, Note_on_c, 0, 80, 80
2, 195456, Note_on_c, 0, 68, 80
2, 195644, Note_off_c, 0, 80, 100
2, 195644, Note_off_c, 0, 68, 100
2, 195648, Note_on_c, 0, 81, 80
2, 195648, Note_on_c, 0, 69, 80
2, 195836, Note_off_c, 0, 81, 100
2, 195836, Note_off_c, 0, 69, 100
2, 195840, Note_on_c, 0, 80, 80
2, 195840, Note_on_c, 0, 68, 80
2, 196028, Note_off_c, 0, 80, 100
2, 196028, Note_off_c, 0, 68, 100
2, 196032, Note_on_c, 0, 81, 80
2, 196032, Note_on_c, 0, 69, 80
2, 196220, Note_off_c, 0, 81, 100
2, 196220, Note_off_c, 0, 69, 100
2, 196224, Note_on_c, 0, 83, 80
2, 196224, Note_on_c, 0, 71, 80
2, 196412, Note_off_c, 0, 83, 100
2, 196412, Note_off_c, 0, 71, 100
2, 196416, Note_on_c, 0, 81, 80
2, 196416, Note_on_c, 0, 69, 80
2, 196604, Note_off_c, 0, 81, 100
2, 196604, Note_off_c, 0, 69, 100
2, 196608, Note_on_c, 0, 69, 80
2, 196608, Note_on_c, 0, 81, 80
2, 197564, Note_off_c, 0, 69, 100
2, 197564, Note_off_c, 0, 81, 100
2, 197568, Note_on_c, 0, 88, 86
2, 197568, Note_on_c, 0, 76, 86
2, 197756, Note_off_c, 0, 88, 100
2, 197756, Note_off_c, 0, 76, 100
2, 197760, Note_on_c, 0, 86, 87
2, 197760, Note_on_c, 0, 74, 87
2, 197948, Note_off_c, 0, 86, 100
2, 197948, Note_off_c, 0, 74, 100
2, 197952, Note_on_c, 0, 84, 89
2, 197952, Note_on_c, 0, 72, 89
2, 198140, Note_off_c, 0, 84, 100
2, 198140, Note_off_c, 0, 72, 100
2, 198144, Note_on_c, 0, 83, 90
2, 198144, Note_on_c, 0, 71, 90
2, 198332, Note_off_c, 0, 83, 100
2, 198332, Note_off_c, 0, 71, 100
2, 198336, Note_on_c, 0, 81, 91
2, 198336, Note_on_c, 0, 69, 91
2, 198524, Note_off_c, 0, 81, 100
2, 198524, Note_off_c, 0, 69, 100
2, 198528, Note_on_c, 0, 80, 92
2, 198528, Note_on_c, 0, 68, 92
2, 198716, Note_off_c, 0, 80, 100
2, 198716, Note_off_c, 0, 68, 100
2, 198720, Note_on_c, 0, 81, 94
2, 198720, Note_on_c, 0, 69, 94
2, 198908, Note_off_c, 0, 81, 100
2, 198908, Note_off_c, 0, 69, 100
2, 198912, Note_on_c, 0, 80, 95
2, 198912, Note_on_c, 0, 68, 95
2, 199100, Note_off_c, 0, 80, 100
2, 199100, Note_off_c, 0, 68, 100
2, 199104, Note_on_c, 0, 81, 96
2, 199104, Note_on_c, 0, 69, 96
2, 199292, Note_off_c, 0, 81, 100
2, 199292, Note_off_c, 0, 69, 100
2, 199296, Note_on_c, 0, 83, 98
2, 199296, Note_on_c, 0, 71, 98
2, 199484, Note_off_c, 0, 83, 100
2, 199484, Note_off_c, 0, 71, 100
2, 199488, Note_on_c, 0, 81, 99
2, 199488, Note_on_c, 0, 69, 99
2, 199676, Note_off_c, 0, 81, 100
2, 199676, Note_off_c, 0, 69, 100
2, 199680, Note_on_c, 0, 81, 80
2, 199680, Note_on_c, 0, 69, 80
2, 200828, Note_off_c, 0, 81, 100
2, 200828, Note_off_c, 0, 69, 100
2, 200832, Note_on_c, 0, 80, 87
2, 200832, Note_on_c, 0, 68, 87
2, 201020, Note_off_c, 0, 80, 100
2, 201020, Note_off_c, 0, 68, 100
2, 201024, Note_on_c, 0, 81, 89
2, 201024, Note_on_c, 0, 69, 89
2, 201212, Note_off_c, 0, 81, 100
2, 201212, Note_off_c, 0, 69, 100
2, 201216, Note_on_c, 0, 80, 90
2, 201216, Note_on_c, 0, 68, 90
2, 201404, Note_off_c, 0, 80, 100
2, 201404, Note_off_c, 0, 68, 100
2, 201408, Note_on_c, 0, 81, 91
2, 201408, Note_on_c, 0, 69, 91
2, 201596, Note_off_c, 0, 81, 100
2, 201596, Note_off_c, 0, 69, 100
2, 201600, Note_on_c, 0, 83, 92
2, 201600, Note_on_c, 0, 71, 92
2, 201788, Note_off_c, 0, 83, 100
2, 201788, Note_off_c, 0, 71, 100
2, 201792, Note_on_c, 0, 81, 94
2, 201792, Note_on_c, 0, 69, 94
2, 201980, Note_off_c, 0, 81, 100
2, 201980, Note_off_c, 0, 69, 100
2, 201984, Note_on_c, 0, 80, 95
2, 201984, Note_on_c, 0, 68, 95
2, 202172, Note_off_c, 0, 80, 100
2, 202172, Note_off_c, 0, 68, 100
2, 202176, Note_on_c, 0, 81, 96
2, 202176, Note_on_c, 0, 69, 96
2, 202364, Note_off_c, 0, 81, 100
2, 202364, Note_off_c, 0, 69, 100
2, 202368, Note_on_c, 0, 83, 98
2, 202368, Note_on_c, 0, 71, 98
2, 202556, Note_off_c, 0, 83, 100
2, 202556, Note_off_c, 0, 71, 100
2, 202560, Note_on_c, 0, 84, 99
2, 202560, Note_on_c, 0, 72, 99
2, 202748, Note_off_c, 0, 84, 100
2, 202748, Note_off_c, 0, 72, 100
2, 202752, Note_on_c, 0, 72, 100
2, 202752, Note_on_c, 0, 84, 100
2, 203900, Note_off_c, 0, 72, 100
2, 203900, Note_off_c, 0, 84, 100
2, 203904, Note_on_c, 0, 74, 97
2, 203904, Note_on_c, 0, 86, 97
2, 204092, Note_off_c, 0, 74, 100
2, 204092, Note_off_c, 0, 86, 100
2, 204096, Note_on_c, 0, 76, 96
2, 204096, Note_on_c, 0, 88, 96
2, 204284, Note_off_c, 0, 76, 100
2, 204284, Note_off_c, 0, 88, 100
2, 204288, Note_on_c, 0, 88, 95
2, 204288, Note_on_c, 0, 76, 95
2, 204668, Note_off_c, 0, 88, 100
2, 204668, Note_off_c, 0, 76, 100
2, 204672, Note_on_c, 0, 77, 94
2, 204672, Note_on_c, 0, 89, 94
2, 205436, Note_off_c, 0, 77, 100
2, 205436, Note_off_c, 0, 89, 100
2, 205440, Note_on_c, 0, 71, 91
2, 205440, Note_on_c, 0, 83, 91
2, 205820, Note_off_c, 0, 71, 100
2, 205820, Note_off_c, 0, 83, 100
2, 205824, Note_on_c, 0, 72, 80
2, 205824, Note_on_c, 0, 84, 80
2, 206972, Note_off_c, 0, 72, 100
2, 206972, Note_off_c, 0, 84, 100
2, 206976, Note_on_c, 0, 67, 80
2, 206976, Note_on_c, 0, 79, 80
2, 207164, Note_off_c, 0, 67, 100
2, 207164, Note_off_c, 0, 79, 100
2, 207168, Note_on_c, 0, 65, 80
2, 207168, Note_on_c, 0, 77, 80
2, 207356, Note_off_c, 0, 65, 100
2, 207356, Note_off_c, 0, 77, 100
2, 207360, Note_on_c, 0, 77, 80
2, 207360, Note_on_c, 0, 65, 80
2, 207548, Note_off_c, 0, 77, 100
2, 207548, Note_off_c, 0, 65, 100
2, 207552, Note_on_c, 0, 76, 80
2, 207552, Note_on_c, 0, 64, 80
2, 207740, Note_off_c, 0, 76, 100
2, 207740, Note_off_c, 0, 64, 100
2, 207744, Note_on_c, 0, 75, 80
2, 207744, Note_on_c, 0, 63, 80
2, 207932, Note_off_c, 0, 75, 100
2, 207932, Note_off_c, 0, 63, 100
2, 207936, Note_on_c, 0, 76, 80
2, 207936, Note_on_c, 0, 64, 80
2, 208124, Note_off_c, 0, 76, 100
2, 208124, Note_off_c, 0, 64, 100
2, 208128, Note_on_c, 0, 75, 80
2, 208128, Note_on_c, 0, 63, 80
2, 208316, Note_off_c, 0, 75, 100
2, 208316, Note_off_c, 0, 63, 100
2, 208320, Note_on_c, 0, 76, 80
2, 208320, Note_on_c, 0, 64, 80
2, 208508, Note_off_c, 0, 76, 100
2, 208508, Note_off_c, 0, 64, 100
2, 208512, Note_on_c, 0, 77, 80
2, 208512, Note_on_c, 0, 65, 80
2, 208700, Note_off_c, 0, 77, 100
2, 208700, Note_off_c, 0, 65, 100
2, 208704, Note_on_c, 0, 76, 80
2, 208704, Note_on_c, 0, 64, 80
2, 208892, Note_off_c, 0, 76, 100
2, 208892, Note_off_c, 0, 64, 100
2, 208896, Note_on_c, 0, 76, 80
2, 208896, Note_on_c, 0, 64, 80
2, 210044, Note_off_c, 0, 76, 100
2, 210044, Note_off_c, 0, 64, 100
2, 210048, Note_on_c, 0, 67, 80
2, 210048, Note_on_c, 0, 79, 80
2, 210236, Note_off_c, 0, 67, 100
2, 210236, Note_off_c, 0, 79, 100
2, 210240, Note_on_c, 0, 66, 80
2, 210240, Note_on_c, 0, 78, 80
2, 210428, Note_off_c, 0, 66, 100
2, 210428, Note_off_c, 0, 78, 100
2, 210432, Note_on_c, 0, 78, 80
2, 210432, Note_on_c, 0, 66, 80
2, 210620, Note_off_c, 0, 78, 100
2, 210620, Note_off_c, 0, 66, 100
2, 210624, Note_on_c, 0, 76, 80
2, 210624, Note_on_c, 0, 64, 80
2, 210812, Note_off_c, 0, 76, 100
2, 210812, Note_off_c, 0, 64, 100
2, 210816, Note_on_c, 0, 75, 80
2, 210816, Note_on_c, 0, 63, 80
2, 211004, Note_off_c, 0, 75, 100
2, 211004, Note_off_c, 0, 63, 100
2, 211008, Note_on_c, 0, 76, 80
2, 211008, Note_on_c, 0, 64, 80
2, 211196, Note_off_c, 0, 76, 100
2, 211196, Note_off_c, 0, 64, 100
2, 211200, Note_on_c, 0, 75, 80
2, 211200, Note_on_c, 0, 63, 80
2, 211388, Note_off_c, 0, 75, 100
2, 211388, Note_off_c, 0, 63, 100
2, 211392, Note_on_c, 0, 76, 80
2, 211392, Note_on_c, 0, 64, 80
2, 211580, Note_off_c, 0, 76, 100
2, 211580, Note_off_c, 0, 64, 100
2, 211584, Note_on_c, 0, 78, 80
2, 211584, Note_on_c, 0, 66, 80
2, 211772, Note_off_c, 0, 78, 100
2, 211772, Note_off_c, 0, 66, 100
2, 211776, Note_on_c, 0, 76, 80
2, 211776, Note_on_c, 0, 64, 80
2, 211964, Note_off_c, 0, 76, 100
2, 211964, Note_off_c, 0, 64, 100
2, 211968, Note_on_c, 0, 76, 80
2, 211968, Note_on_c, 0, 64, 80
2, 213116, Note_off_c, 0, 76, 100
2, 213116, Note_off_c, 0, 64, 100
2, 213120, Note_on_c, 0, 76, 110
2, 213120, Note_on_c, 0, 88, 110
2, 213500, Note_off_c, 0, 76, 100
2, 213500, Note_off_c, 0, 88, 100
2, 213504, Note_on_c, 0, 76, 110
2, 213504, Note_on_c, 0, 88, 110
2, 214460, Note_off_c, 0, 76, 100
2, 214460, Note_off_c, 0, 88, 100
2, 214464, Note_on_c, 0, 67, 80
2, 214464, Note_on_c, 0, 79, 80
2, 214652, Note_off_c, 0, 67, 100
2, 214652, Note_off_c, 0, 79, 100
2, 214656, Note_on_c, 0, 78, 80
2, 214656, Note_on_c, 0, 66, 80
2, 214844, Note_off_c, 0, 78, 100
2, 214844, Note_off_c, 0, 66, 100
2, 214848, Note_on_c, 0, 76, 80
2, 214848, Note_on_c, 0, 64, 80
2, 215036, Note_off_c, 0, 76, 100
2, 215036, Note_off_c, 0, 64, 100
2, 215040, Note_on_c, 0, 75, 80
2, 215040, Note_on_c, 0, 63, 80
2, 215228, Note_off_c, 0, 75, 100
2, 215228, Note_off_c, 0, 63, 100
2, 215232, Note_on_c, 0, 71, 80
2, 215232, Note_on_c, 0, 63, 80
2, 215232, Note_on_c, 0, 59, 80
2, 215420, Note_off_c, 0, 71, 100
2, 215420, Note_off_c, 0, 63, 100
2, 215420, Note_off_c, 0, 59, 100
2, 215424, Note_on_c, 0, 71, 80
2, 215424, Note_on_c, 0, 63, 80
2, 215424, Note_on_c, 0, 59, 80
2, 215612, Note_off_c, 0, 71, 100
2, 215612, Note_off_c, 0, 63, 100
2, 215612, Note_off_c, 0, 59, 100
2, 215616, Note_on_c, 0, 71, 80
2, 215616, Note_on_c, 0, 63, 80
2, 215616, Note_on_c, 0, 59, 80
2, 215804, Note_off_c, 0, 71, 100
2, 215804, Note_off_c, 0, 63, 100
2, 215804, Note_off_c, 0, 59, 100
2, 216000, Note_on_c, 0, 71, 80
2, 216000, Note_on_c, 0, 67, 80
2, 216000, Note_on_c, 0, 59, 80
2, 216188, Note_off_c, 0, 71, 100
2, 216188, Note_off_c, 0, 67, 100
2, 216188, Note_off_c, 0, 59, 100
2, 216192, Note_on_c, 0, 71, 80
2, 216192, Note_on_c, 0, 67, 80
2, 216192, Note_on_c, 0, 59, 80
2, 216380, Note_off_c, 0, 71, 100
2, 216380, Note_off_c, 0, 67, 100
2, 216380, Note_off_c, 0, 59, 100
2, 216384, Note_on_c, 0, 71, 80
2, 216384, Note_on_c, 0, 67, 80
2, 216384, Note_on_c, 0, 59, 80
2, 216572, Note_off_c, 0, 71, 100
2, 216572, Note_off_c, 0, 67, 100
2, 216572, Note_off_c, 0, 59, 100
2, 216768, Note_on_c, 0, 71, 80
2, 216768, Note_on_c, 0, 66, 80
2, 216768, Note_on_c, 0, 59, 80
2, 216956, Note_off_c, 0, 71, 100
2, 216956, Note_off_c, 0, 66, 100
2, 216956, Note_off_c, 0, 59, 100
2, 216960, Note_on_c, 0, 71, 80
2, 216960, Note_on_c, 0, 66, 80
2, 216960, Note_on_c, 0, 59, 80
2, 217148, Note_off_c, 0, 71, 100
2, 217148, Note_off_c, 0, 66, 100
2, 217148, Note_off_c, 0, 59, 100
2, 217152, Note_on_c, 0, 71, 80
2, 217152, Note_on_c, 0, 66, 80
2, 217152, Note_on_c, 0, 59, 80
2, 217340, Note_off_c, 0, 71, 100
2, 217340, Note_off_c, 0, 66, 100
2, 217340, Note_off_c, 0, 59, 100
2, 217536, Note_on_c, 0, 71, 80
2, 217536, Note_on_c, 0, 64, 80
2, 217536, Note_on_c, 0, 59, 80
2, 217724, Note_off_c, 0, 71, 100
2, 217724, Note_off_c, 0, 64, 100
2, 217724, Note_off_c, 0, 59, 100
2, 217728, Note_on_c, 0, 71, 80
2, 217728, Note_on_c, 0, 64, 80
2, 217728, Note_on_c, 0, 59, 80
2, 217916, Note_off_c, 0, 71, 100
2, 217916, Note_off_c, 0, 64, 100
2, 217916, Note_off_c, 0, 59, 100
2, 217920, Note_on_c, 0, 71, 80
2, 217920, Note_on_c, 0, 64, 80
2, 217920, Note_on_c, 0, 59, 80
2, 218108, Note_off_c, 0, 71, 100
2, 218108, Note_off_c, 0, 64, 100
2, 218108, Note_off_c, 0, 59, 100
2, 218112, Note_on_c, 0, 71, 80
2, 218304, Note_on_c, 0, 63, 80
2, 218492, Note_off_c, 0, 63, 100
2, 218496, Note_on_c, 0, 63, 80
2, 218684, Note_off_c, 0, 63, 100
2, 218688, Note_on_c, 0, 63, 80
2, 218876, Note_off_c, 0, 71, 100
2, 218876, Note_off_c, 0, 63, 100
2, 218880, Note_on_c, 0, 76, 80
2, 219072, Note_on_c, 0, 64, 80
2, 219072, Note_on_c, 0, 67, 80
2, 219260, Note_off_c, 0, 64, 100
2, 219260, Note_off_c, 0, 67, 100
2, 219264, Note_on_c, 0, 64, 80
2, 219264, Note_on_c, 0, 67, 80
2, 219452, Note_off_c, 0, 64, 100
2, 219452, Note_off_c, 0, 67, 100
2, 219456, Note_on_c, 0, 64, 80
2, 219456, Note_on_c, 0, 67, 80
2, 219644, Note_off_c, 0, 76, 100
2, 219644, Note_off_c, 0, 64, 100
2, 219644, Note_off_c, 0, 67, 100
2, 219648, Note_on_c, 0, 75, 80
2, 219840, Note_on_c, 0, 63, 80
2, 219840, Note_on_c, 0, 66, 80
2, 220028, Note_off_c, 0, 63, 100
2, 220028, Note_off_c, 0, 66, 100
2, 220032, Note_on_c, 0, 63, 80
2, 220032, Note_on_c, 0, 66, 80
2, 220220, Note_off_c, 0, 63, 100
2, 220220, Note_off_c, 0, 66, 100
2, 220224, Note_on_c, 0, 63, 80
2, 220224, Note_on_c, 0, 66, 80
2, 220412, Note_off_c, 0, 75, 100
2, 220412, Note_off_c, 0, 63, 100
2, 220412, Note_off_c, 0, 66, 100
2, 220416, Note_on_c, 0, 70, 80
2, 220608, Note_on_c, 0, 64, 80
2, 220608, Note_on_c, 0, 61, 80
2, 220796, Note_off_c, 0, 64, 100
2, 220796, Note_off_c, 0, 61, 100
2, 220800, Note_on_c, 0, 64, 80
2, 220800, Note_on_c, 0, 61, 80
2, 220988, Note_off_c, 0, 64, 100
2, 220988, Note_off_c, 0, 61, 100
2, 220992, Note_on_c, 0, 64, 80
2, 220992, Note_on_c, 0, 61, 80
2, 221180, Note_off_c, 0, 70, 100
2, 221180, Note_off_c, 0, 64, 100
2, 221180, Note_off_c, 0, 61, 100
2, 221376, Note_on_c, 0, 71, 80
2, 221376, Note_on_c, 0, 63, 80
2, 221376, Note_on_c, 0, 59, 80
2, 221564, Note_off_c, 0, 71, 100
2, 221564, Note_off_c, 0, 63, 100
2, 221564, Note_off_c, 0, 59, 100
2, 221568, Note_on_c, 0, 71, 80
2, 221568, Note_on_c, 0, 63, 80
2, 221568, Note_on_c, 0, 59, 80
2, 221756, Note_off_c, 0, 71, 100
2, 221756, Note_off_c, 0, 63, 100
2, 221756, Note_off_c, 0, 59, 100
2, 221760, Note_on_c, 0, 71, 80
2, 221760, Note_on_c, 0, 63, 80
2, 221760, Note_on_c, 0, 59, 80
2, 221948, Note_off_c, 0, 71, 100
2, 221948, Note_off_c, 0, 63, 100
2, 221948, Note_off_c, 0, 59, 100
2, 222144, Note_on_c, 0, 71, 80
2, 222144, Note_on_c, 0, 67, 80
2, 222144, Note_on_c, 0, 59, 80
2, 222332, Note_off_c, 0, 71, 100
2, 222332, Note_off_c, 0, 67, 100
2, 222332, Note_off_c, 0, 59, 100
2, 222336, Note_on_c, 0, 71, 80
2, 222336, Note_on_c, 0, 67, 80
2, 222336, Note_on_c, 0, 59, 80
2, 222524, Note_off_c, 0, 71, 100
2, 222524, Note_off_c, 0, 67, 100
2, 222524, Note_off_c, 0, 59, 100
2, 222528, Note_on_c, 0, 71, 80
2, 222528, Note_on_c, 0, 67, 80
2, 222528, Note_on_c, 0, 59, 80
2, 222716, Note_off_c, 0, 71, 100
2, 222716, Note_off_c, 0, 67, 100
2, 222716, Note_off_c, 0, 59, 100
2, 222912, Note_on_c, 0, 71, 80
2, 222912, Note_on_c, 0, 66, 80
2, 222912, Note_on_c, 0, 59, 80
2, 223100, Note_off_c, 0, 71, 100
2, 223100, Note_off_c, 0, 66, 100
2, 223100, Note_off_c, 0, 59, 100
2, 223104, Note_on_c, 0, 71, 80
2, 223104, Note_on_c, 0, 66, 80
2, 223104, Note_on_c, 0, 59, 80
2, 223292, Note_off_c, 0, 71, 100
2, 223292, Note_off_c, 0, 66, 100
2, 223292, Note_off_c, 0, 59, 100
2, 223296, Note_on_c, 0, 71, 80
2, 223296, Note_on_c, 0, 66, 80
2, 223296, Note_on_c, 0, 59, 80
2, 223484, Note_off_c, 0, 71, 100
2, 223484, Note_off_c, 0, 66, 100
2, 223484, Note_off_c, 0, 59, 100
2, 223680, Note_on_c, 0, 71, 80
2, 223680, Note_on_c, 0, 64, 80
2, 223680, Note_on_c, 0, 59, 80
2, 223868, Note_off_c, 0, 71, 100
2, 223868, Note_off_c, 0, 64, 100
2, 223868, Note_off_c, 0, 59, 100
2, 223872, Note_on_c, 0, 71, 80
2, 223872, Note_on_c, 0, 64, 80
2, 223872, Note_on_c, 0, 59, 80
2, 224060, Note_off_c, 0, 71, 100
2, 224060, Note_off_c, 0, 64, 100
2, 224060, Note_off_c, 0, 59, 100
2, 224064, Note_on_c, 0, 71, 80
2, 224064, Note_on_c, 0, 64, 80
2, 224064, Note_on_c, 0, 59, 80
2, 224252, Note_off_c, 0, 71, 100
2, 224252, Note_off_c, 0, 64, 100
2, 224252, Note_off_c, 0, 59, 100
2, 224256, Note_on_c, 0, 71, 80
2, 224448, Note_on_c, 0, 63, 80
2, 224636, Note_off_c, 0, 63, 100
2, 224640, Note_on_c, 0, 63, 80
2, 224828, Note_off_c, 0, 63, 100
2, 224832, Note_on_c, 0, 63, 80
2, 225020, Note_off_c, 0, 71, 100
2, 225020, Note_off_c, 0, 63, 100
2, 225024, Note_on_c, 0, 76, 80
2, 225216, Note_on_c, 0, 64, 80
2, 225216, Note_on_c, 0, 67, 80
2, 225404, Note_off_c, 0, 64, 100
2, 225404, Note_off_c, 0, 67, 100
2, 225408, Note_on_c, 0, 64, 80
2, 225408, Note_on_c, 0, 67, 80
2, 225596, Note_off_c, 0, 64, 100
2, 225596, Note_off_c, 0, 67, 100
2, 225600, Note_on_c, 0, 64, 80
2, 225600, Note_on_c, 0, 67, 80
2, 225788, Note_off_c, 0, 76, 100
2, 225788, Note_off_c, 0, 64, 100
2, 225788, Note_off_c, 0, 67, 100
2, 225792, Note_on_c, 0, 75, 80
2, 225984, Note_on_c, 0, 63, 80
2, 225984, Note_on_c, 0, 66, 80
2, 226172, Note_off_c, 0, 63, 100
2, 226172, Note_off_c, 0, 66, 100
2, 226176, Note_on_c, 0, 63, 80
2, 226176, Note_on_c, 0, 66, 80
2, 226364, Note_off_c, 0, 63, 100
2, 226364, Note_off_c, 0, 66, 100
2, 226368, Note_on_c, 0, 63, 80
2, 226368, Note_on_c, 0, 66, 80
2, 226556, Note_off_c, 0, 75, 100
2, 226556, Note_off_c, 0, 63, 100
2, 226556, Note_off_c, 0, 66, 100
2, 226560, Note_on_c, 0, 70, 80
2, 226752, Note_on_c, 0, 64, 80
2, 226752, Note_on_c, 0, 61, 80
2, 226940, Note_off_c, 0, 64, 100
2, 226940, Note_off_c, 0, 61, 100
2, 226944, Note_on_c, 0, 64, 80
2, 226944, Note_on_c, 0, 61, 80
2, 227132, Note_off_c, 0, 64, 100
2, 227132, Note_off_c, 0, 61, 100
2, 227136, Note_on_c, 0, 64, 80
2, 227136, Note_on_c, 0, 61, 80
2, 227324, Note_off_c, 0, 70, 100
2, 227324, Note_off_c, 0, 64, 100
2, 227324, Note_off_c, 0, 61, 100
2, 227328, Note_on_c, 0, 71, 80
2, 227520, Note_on_c, 0, 63, 81
2, 227520, Note_on_c, 0, 59, 81
2, 227708, Note_off_c, 0, 63, 100
2, 227708, Note_off_c, 0, 59, 100
2, 227712, Note_on_c, 0, 63, 82
2, 227712, Note_on_c, 0, 59, 82
2, 227900, Note_off_c, 0, 63, 100
2, 227900, Note_off_c, 0, 59, 100
2, 227904, Note_on_c, 0, 63, 83
2, 227904, Note_on_c, 0, 59, 83
2, 228092, Note_off_c, 0, 71, 100
2, 228092, Note_off_c, 0, 63, 100
2, 228092, Note_off_c, 0, 59, 100
2, 228096, Note_on_c, 0, 69, 85
2, 228288, Note_on_c, 0, 61, 86
2, 228288, Note_on_c, 0, 64, 86
2, 228476, Note_off_c, 0, 61, 100
2, 228476, Note_off_c, 0, 64, 100
2, 228480, Note_on_c, 0, 61, 87
2, 228480, Note_on_c, 0, 64, 87
2, 228668, Note_off_c, 0, 61, 100
2, 228668, Note_off_c, 0, 64, 100
2, 228672, Note_on_c, 0, 61, 89
2, 228672, Note_on_c, 0, 64, 89
2, 228860, Note_off_c, 0, 69, 100
2, 228860, Note_off_c, 0, 61, 100
2, 228860, Note_off_c, 0, 64, 100
2, 228864, Note_on_c, 0, 68, 90
2, 229056, Note_on_c, 0, 64, 91
2, 229056, Note_on_c, 0, 59, 91
2, 229244, Note_off_c, 0, 64, 100
2, 229244, Note_off_c, 0, 59, 100
2, 229248, Note_on_c, 0, 64, 93
2, 229248, Note_on_c, 0, 59, 93
2, 229436, Note_off_c, 0, 64, 100
2, 229436, Note_off_c, 0, 59, 100
2, 229440, Note_on_c, 0, 64, 94
2, 229440, Note_on_c, 0, 59, 94
2, 229628, Note_off_c, 0, 68, 100
2, 229628, Note_off_c, 0, 64, 100
2, 229628, Note_off_c, 0, 59, 100
2, 229632, Note_on_c, 0, 66, 95
2, 229824, Note_on_c, 0, 63, 97
2, 229824, Note_on_c, 0, 57, 97
2, 230012, Note_off_c, 0, 63, 100
2, 230012, Note_off_c, 0, 57, 100
2, 230016, Note_on_c, 0, 63, 98
2, 230016, Note_on_c, 0, 57, 98
2, 230204, Note_off_c, 0, 63, 100
2, 230204, Note_off_c, 0, 57, 100
2, 230208, Note_on_c, 0, 63, 99
2, 230208, Note_on_c, 0, 57, 99
2, 230396, Note_off_c, 0, 66, 100
2, 230396, Note_off_c, 0, 63, 100
2, 230396, Note_off_c, 0, 57, 100
2, 230400, Note_on_c, 0, 71, 110
2, 230400, Note_on_c, 0, 68, 110
2, 230400, Note_on_c, 0, 64, 110
2, 230400, Note_on_c, 0, 59, 110
2, 231164, Note_off_c, 0, 71, 100
2, 231164, Note_off_c, 0, 68, 100
2, 231164, Note_off_c, 0, 64, 100
2, 231164, Note_off_c, 0, 59, 100
2, 231168, Note_on_c, 0, 76, 110
2, 231168, Note_on_c, 0, 71, 110
2, 231168, Note_on_c, 0, 68, 110
2, 231168, Note_on_c, 0, 64, 110
2, 231932, Note_off_c, 0, 76, 100
2, 231932, Note_off_c, 0, 71, 100
2, 231932, Note_off_c, 0, 68, 100
2, 231932, Note_off_c, 0, 64, 100
2, 231936, Note_on_c, 0, 73, 110
2, 231936, Note_on_c, 0, 69, 110
2, 232700, Note_off_c, 0, 73, 100
2, 232700, Note_off_c, 0, 69, 100
2, 232704, Note_on_c, 0, 78, 110
2, 232704, Note_on_c, 0, 73, 110
2, 232704, Note_on_c, 0, 69, 110
2, 233468, Note_off_c, 0, 78, 100
2, 233468, Note_off_c, 0, 73, 100
2, 233468, Note_off_c, 0, 69, 100
2, 233472, Note_on_c, 0, 75, 110
2, 233472, Note_on_c, 0, 71, 110
2, 233472, Note_on_c, 0, 69, 110
2, 234236, Note_off_c, 0, 75, 100
2, 234236, Note_off_c, 0, 71, 100
2, 234236, Note_off_c, 0, 69, 100
2, 234240, Note_on_c, 0, 83, 110
2, 234240, Note_on_c, 0, 81, 110
2, 234240, Note_on_c, 0, 78, 110
2, 234620, Note_off_c, 0, 83, 100
2, 234620, Note_off_c, 0, 81, 100
2, 234620, Note_off_c, 0, 78, 100
2, 234624, Note_on_c, 0, 83, 110
2, 234624, Note_on_c, 0, 81, 110
2, 234624, Note_on_c, 0, 78, 110
2, 235004, Note_off_c, 0, 83, 100
2, 235004, Note_off_c, 0, 81, 100
2, 235004, Note_off_c, 0, 78, 100
2, 235008, Note_on_c, 0, 83, 110
2, 235008, Note_on_c, 0, 80, 110
2, 235580, Note_off_c, 0, 83, 100
2, 235584, Note_on_c, 0, 85, 110
2, 235676, Note_off_c, 0, 85, 100
2, 235680, Note_on_c, 0, 87, 110
2, 235772, Note_off_c, 0, 87, 100
2, 235776, Note_on_c, 0, 88, 110
2, 236156, Note_off_c, 0, 80, 100
2, 236156, Note_off_c, 0, 88, 100
2, 236544, Note_on_c, 0, 80, 80
2, 236636, Note_off_c, 0, 80, 100
2, 236640, Note_on_c, 0, 76, 80
2, 236732, Note_off_c, 0, 76, 100
2, 236736, Note_on_c, 0, 81, 80
2, 236828, Note_off_c, 0, 81, 100
2, 236832, Note_on_c, 0, 78, 80
2, 236924, Note_off_c, 0, 78, 100
2, 236928, Note_on_c, 0, 83, 80
2, 237020, Note_off_c, 0, 83, 100
2, 237024, Note_on_c, 0, 80, 80
2, 237116, Note_off_c, 0, 80, 100
2, 237120, Note_on_c, 0, 85, 80
2, 237212, Note_off_c, 0, 85, 100
2, 237216, Note_on_c, 0, 81, 80
2, 237308, Note_off_c, 0, 81, 100
2, 237312, Note_on_c, 0, 83, 80
2, 237692, Note_off_c, 0, 83, 100
2, 238080, Note_on_c, 0, 56, 80
2, 238172, Note_off_c, 0, 56, 100
2, 238176, Note_on_c, 0, 52, 80
2, 238268, Note_off_c, 0, 52, 100
2, 238272, Note_on_c, 0, 57, 80
2, 238364, Note_off_c, 0, 57, 100
2, 238368, Note_on_c, 0, 54, 80
2, 238460, Note_off_c, 0, 54, 100
2, 238464, Note_on_c, 0, 59, 80
2, 238556, Note_off_c, 0, 59, 100
2, 238560, Note_on_c, 0, 56, 80
2, 238652, Note_off_c, 0, 56, 100
2, 238656, Note_on_c, 0, 61, 80
2, 238748, Note_off_c, 0, 61, 100
2, 238752, Note_on_c, 0, 57, 80
2, 238844, Note_off_c, 0, 57, 100
2, 238848, Note_on_c, 0, 59, 80
2, 239228, Note_off_c, 0, 59, 100
2, 239808, Note_on_c, 0, 59, 80
2, 240000, Note_on_c, 0, 68, 80
2, 240188, Note_off_c, 0, 68, 100
2, 240192, Note_on_c, 0, 64, 80
2, 240380, Note_off_c, 0, 64, 100
2, 240384, Note_on_c, 0, 69, 80
2, 240572, Note_off_c, 0, 69, 100
2, 240576, Note_on_c, 0, 66, 80
2, 240764, Note_off_c, 0, 66, 100
2, 240768, Note_on_c, 0, 63, 80
2, 240956, Note_off_c, 0, 63, 100
2, 240960, Note_on_c, 0, 71, 80
2, 241148, Note_off_c, 0, 59, 100
2, 241148, Note_off_c, 0, 71, 100
2, 241344, Note_on_c, 0, 73, 80
2, 241392, Note_on_c, 0, 71, 80
2, 241436, Note_off_c, 0, 73, 100
2, 241440, Note_on_c, 0, 70, 80
2, 241484, Note_off_c, 0, 71, 100
2, 241488, Note_on_c, 0, 71, 80
2, 241532, Note_off_c, 0, 70, 100
2, 241536, Note_on_c, 0, 80, 80
2, 241724, Note_off_c, 0, 80, 100
2, 241728, Note_on_c, 0, 76, 80
2, 241916, Note_off_c, 0, 76, 100
2, 241920, Note_on_c, 0, 81, 80
2, 242108, Note_off_c, 0, 81, 100
2, 242112, Note_on_c, 0, 78, 80
2, 242300, Note_off_c, 0, 78, 100
2, 242304, Note_on_c, 0, 75, 80
2, 242492, Note_off_c, 0, 75, 100
2, 242496, Note_on_c, 0, 83, 80
2, 242684, Note_off_c, 0, 71, 100
2, 242688, Note_on_c, 0, 71, 80
2, 243260, Note_off_c, 0, 83, 100
2, 243264, Note_on_c, 0, 81, 80
2, 243356, Note_off_c, 0, 81, 100
2, 243360, Note_on_c, 0, 80, 80
2, 243452, Note_off_c, 0, 71, 100
2, 243452, Note_off_c, 0, 80, 100
2, 243456, Note_on_c, 0, 78, 80
2, 243456, Note_on_c, 0, 73, 80
2, 243644, Note_off_c, 0, 78, 100
2, 243648, Note_on_c, 0, 76, 80
2, 243836, Note_off_c, 0, 76, 100
2, 243840, Note_on_c, 0, 75, 80
2, 244028, Note_off_c, 0, 75, 100
2, 244032, Note_on_c, 0, 73, 80
2, 244220, Note_off_c, 0, 73, 100
2, 244220, Note_off_c, 0, 73, 100
2, 244224, Note_on_c, 0, 71, 80
2, 244224, Note_on_c, 0, 64, 80
2, 244224, Note_on_c, 0, 68, 80
2, 244604, Note_off_c, 0, 68, 100
2, 244608, Note_on_c, 0, 67, 80
2, 244988, Note_off_c, 0, 67, 100
2, 244992, Note_on_c, 0, 66, 80
2, 245372, Note_off_c, 0, 64, 100
2, 245376, Note_on_c, 0, 63, 80
2, 245756, Note_off_c, 0, 71, 100
2, 245756, Note_off_c, 0, 66, 100
2, 245756, Note_off_c, 0, 63, 100
2, 245760, Note_on_c, 0, 71, 80
2, 245760, Note_on_c, 0, 59, 80
2, 245760, Note_on_c, 0, 64, 80
2, 246332, Note_off_c, 0, 71, 100
2, 246336, Note_on_c, 0, 69, 80
2, 246428, Note_off_c, 0, 69, 100
2, 246432, Note_on_c, 0, 68, 80
2, 246524, Note_off_c, 0, 59, 100
2, 246524, Note_off_c, 0, 64, 100
2, 246524, Note_off_c, 0, 68, 100
2, 246528, Note_on_c, 0, 66, 80
2, 246528, Note_on_c, 0, 61, 80
2, 246716, Note_off_c, 0, 66, 100
2, 246720, Note_on_c, 0, 64, 80
2, 246908, Note_off_c, 0, 64, 100
2, 246912, Note_on_c, 0, 63, 80
2, 247100, Note_off_c, 0, 63, 100
2, 247104, Note_on_c, 0, 61, 80
2, 247292, Note_off_c, 0, 61, 100
2, 247292, Note_off_c, 0, 61, 100
2, 247296, Note_on_c, 0, 59, 80
2, 247296, Note_on_c, 0, 52, 80
2, 247296, Note_on_c, 0, 56, 80
2, 247676, Note_off_c, 0, 56, 100
2, 247680, Note_on_c, 0, 55, 80
2, 248060, Note_off_c, 0, 55, 100
2, 248064, Note_on_c, 0, 54, 80
2, 248444, Note_off_c, 0, 52, 100
2, 248448, Note_on_c, 0, 51, 80
2, 248828, Note_off_c, 0, 59, 100
2, 248828, Note_off_c, 0, 54, 100
2, 248828, Note_off_c, 0, 51, 100
2, 248832, Note_on_c, 0, 55, 70
2, 248832, Note_on_c, 0, 52, 70
2, 249596, Note_off_c, 0, 55, 100
2, 249596, Note_off_c, 0, 52, 100
2, 249600, Note_on_c, 0, 55, 70
2, 249600, Note_on_c, 0, 52, 70
2, 249600, Note_on_c, 0, 60, 70
2, 250364, Note_off_c, 0, 55, 100
2, 250364, Note_off_c, 0, 52, 100
2, 250364, Note_off_c, 0, 60, 100
2, 250368, Note_on_c, 0, 59, 70
2, 250368, Note_on_c, 0, 53, 70
2, 250368, Note_on_c, 0, 50, 70
2, 251132, Note_off_c, 0, 59, 100
2, 251132, Note_off_c, 0, 53, 100
2, 251132, Note_off_c, 0, 50, 100
2, 251136, Note_on_c, 0, 65, 70
2, 251136, Note_on_c, 0, 62, 70
2, 251136, Note_on_c, 0, 59, 70
2, 251136, Note_on_c, 0, 55, 70
2, 251900, Note_off_c, 0, 65, 100
2, 251900, Note_off_c, 0, 62, 100
2, 251900, Note_off_c, 0, 59, 100
2, 251900, Note_off_c, 0, 55, 100
2, 252000, Note_on_c, 0, 64, 71
2, 252092, Note_off_c, 0, 64, 100
2, 252096, Note_on_c, 0, 65, 73
2, 252188, Note_off_c, 0, 65, 100
2, 252192, Note_on_c, 0, 67, 75
2, 252284, Note_off_c, 0, 67, 100
2, 252288, Note_on_c, 0, 69, 77
2, 252380, Note_off_c, 0, 69, 100
2, 252384, Note_on_c, 0, 71, 79
2, 252476, Note_off_c, 0, 71, 100
2, 252480, Note_on_c, 0, 72, 81
2, 252572, Note_off_c, 0, 72, 100
2, 252576, Note_on_c, 0, 74, 83
2, 252668, Note_off_c, 0, 74, 100
2, 252672, Note_on_c, 0, 76, 85
2, 252860, Note_off_c, 0, 76, 100
2, 252864, Note_on_c, 0, 77, 89
2, 252956, Note_off_c, 0, 77, 100
2, 252960, Note_on_c, 0, 79, 91
2, 253052, Note_off_c, 0, 79, 100
2, 253056, Note_on_c, 0, 81, 93
2, 253148, Note_off_c, 0, 81, 100
2, 253152, Note_on_c, 0, 83, 95
2, 253244, Note_off_c, 0, 83, 100
2, 253248, Note_on_c, 0, 84, 97
2, 253340, Note_off_c, 0, 84, 100
2, 253344, Note_on_c, 0, 86, 99
2, 253436, Note_off_c, 0, 86, 100
2, 253440, Note_on_c, 0, 88, 110
2, 253820, Note_off_c, 0, 88, 100
2, 253824, Note_on_c, 0, 75, 110
2, 253916, Note_off_c, 0, 75, 100
2, 253920, Note_on_c, 0, 76, 110
2, 254012, Note_off_c, 0, 76, 100
2, 254016, Note_on_c, 0, 75, 110
2, 254108, Note_off_c, 0, 75, 100
2, 254112, Note_on_c, 0, 76, 110
2, 254204, Note_off_c, 0, 76, 100
2, 254208, Note_on_c, 0, 63, 110
2, 254300, Note_off_c, 0, 63, 100
2, 254304, Note_on_c, 0, 64, 110
2, 254396, Note_off_c, 0, 64, 100
2, 254400, Note_on_c, 0, 63, 110
2, 254492, Note_off_c, 0, 63, 100
2, 254496, Note_on_c, 0, 64, 110
2, 254588, Note_off_c, 0, 64, 100
2, 254592, Note_on_c, 0, 63, 110
2, 254684, Note_off_c, 0, 63, 100
2, 254688, Note_on_c, 0, 64, 110
2, 254780, Note_off_c, 0, 64, 100
2, 254784, Note_on_c, 0, 67, 110
2, 254876, Note_off_c, 0, 67, 100
2, 254880, Note_on_c, 0, 64, 110
2, 254972, Note_off_c, 0, 64, 100
2, 254976, Note_on_c, 0, 63, 110
2, 255356, Note_off_c, 0, 63, 100
2, 255360, Note_on_c, 0, 59, 110
2, 255740, Note_off_c, 0, 59, 100
2, 255744, Note_on_c, 0, 67, 110
2, 255744, Note_on_c, 0, 61, 110
2, 255744, Note_on_c, 0, 58, 110
2, 256508, Note_off_c, 0, 67, 100
2, 256508, Note_off_c, 0, 61, 100
2, 256508, Note_off_c, 0, 58, 100
2, 256512, Note_on_c, 0, 66, 110
2, 256512, Note_on_c, 0, 59, 110
2, 256892, Note_off_c, 0, 66, 100
2, 256896, Note_on_c, 0, 63, 110
2, 257276, Note_off_c, 0, 59, 100
2, 257276, Note_off_c, 0, 63, 100
2, 257280, Note_on_c, 0, 61, 90
2, 257280, Note_on_c, 0, 70, 90
2, 257852, Note_off_c, 0, 61, 100
2, 257856, Note_on_c, 0, 63, 90
2, 257948, Note_off_c, 0, 63, 100
2, 257952, Note_on_c, 0, 64, 90
2, 258044, Note_off_c, 0, 70, 100
2, 258044, Note_off_c, 0, 64, 100
2, 258048, Note_on_c, 0, 71, 90
2, 258048, Note_on_c, 0, 63, 90
2, 258428, Note_off_c, 0, 63, 100
2, 258432, Note_on_c, 0, 59, 90
2, 258812, Note_off_c, 0, 71, 100
2, 258812, Note_off_c, 0, 59, 100
2, 258816, Note_on_c, 0, 79, 110
2, 258816, Note_on_c, 0, 73, 110
2, 258816, Note_on_c, 0, 70, 110
2, 259580, Note_off_c, 0, 79, 100
2, 259580, Note_off_c, 0, 73, 100
2, 259580, Note_off_c, 0, 70, 100
2, 259584, Note_on_c, 0, 78, 110
2, 259584, Note_on_c, 0, 71, 110
2, 259964, Note_off_c, 0, 78, 100
2, 259968, Note_on_c, 0, 75, 110
2, 260348, Note_off_c, 0, 71, 100
2, 260348, Note_off_c, 0, 75, 100
2, 260352, Note_on_c, 0, 73, 90
2, 260352, Note_on_c, 0, 82, 90
2, 260924, Note_off_c, 0, 73, 100
2, 260928, Note_on_c, 0, 75, 90
2, 261020, Note_off_c, 0, 75, 100
2, 261024, Note_on_c, 0, 76, 90
2, 261116, Note_off_c, 0, 82, 100
2, 261116, Note_off_c, 0, 76, 100
2, 261120, Note_on_c, 0, 83, 90
2, 261120, Note_on_c, 0, 75, 90
2, 261500, Note_off_c, 0, 75, 100
2, 261504, Note_on_c, 0, 71, 90
2, 261884, Note_off_c, 0, 83, 100
2, 261884, Note_off_c, 0, 71, 100
2, 261888, Note_on_c, 0, 82, 110
2, 261888, Note_on_c, 0, 73, 110
2, 261888, Note_on_c, 0, 76, 110
2, 262460, Note_off_c, 0, 76, 100
2, 262464, Note_on_c, 0, 78, 110
2, 262556, Note_off_c, 0, 78, 100
2, 262560, Note_on_c, 0, 79, 110
2, 262652, Note_off_c, 0, 82, 100
2, 262652, Note_off_c, 0, 73, 100
2, 262652, Note_off_c, 0, 79, 100
2, 262656, Note_on_c, 0, 83, 110
2, 262656, Note_on_c, 0, 78, 110
2, 262656, Note_on_c, 0, 75, 110
2, 263036, Note_off_c, 0, 83, 100
2, 263036, Note_off_c, 0, 78, 100
2, 263036, Note_off_c, 0, 75, 100
2, 263424, Note_on_c, 0, 71, 110
2, 263424, Note_on_c, 0, 66, 110
2, 263424, Note_on_c, 0, 63, 110
2, 263804, Note_off_c, 0, 71, 100
2, 263804, Note_off_c, 0, 66, 100
2, 263804, Note_off_c, 0, 63, 100
2, 264192, Note_on_c, 0, 59, 110
2, 264192, Note_on_c, 0, 54, 110
2, 264192, Note_on_c, 0, 51, 110
2, 264572, Note_off_c, 0, 59, 100
2, 264572, Note_off_c, 0, 54, 100
2, 264572, Note_off_c, 0, 51, 100
2, 264960, Note_on_c, 0, 83, 80
2, 265148, Note_off_c, 0, 83, 100
2, 265152, Note_on_c, 0, 81, 80
2, 265340, Note_off_c, 0, 81, 100
2, 265344, Note_on_c, 0, 80, 80
2, 265532, Note_off_c, 0, 80, 100
2, 265536, Note_on_c, 0, 78, 80
2, 265724, Note_off_c, 0, 78, 100
2, 265728, Note_on_c, 0, 76, 80
2, 266492, Note_off_c, 0, 76, 100
2, 266496, Note_on_c, 0, 78, 80
2, 266876, Note_off_c, 0, 78, 100
2, 266880, Note_on_c, 0, 79, 80
2, 267260, Note_off_c, 0, 79, 100
2, 267264, Note_on_c, 0, 80, 80
2, 267644, Note_off_c, 0, 80, 100
2, 267648, Note_on_c, 0, 81, 80
2, 268028, Note_off_c, 0, 81, 100
2, 268032, Note_on_c, 0, 82, 80
2, 268412, Note_off_c, 0, 82, 100
2, 268416, Note_on_c, 0, 83, 80
2, 268796, Note_off_c, 0, 83, 100
2, 268800, Note_on_c, 0, 84, 80
2, 269180, Note_off_c, 0, 84, 100
2, 269184, Note_on_c, 0, 85, 80
2, 269568, Note_on_c, 0, 73, 80
2, 269948, Note_off_c, 0, 85, 100
2, 269952, Note_on_c, 0, 83, 80
2, 270716, Note_off_c, 0, 83, 100
2, 270720, Note_on_c, 0, 81, 80
2, 271100, Note_off_c, 0, 73, 100
2, 271100, Note_off_c, 0, 81, 100
2, 271104, Note_on_c, 0, 80, 80
2, 271152, Note_on_c, 0, 81, 80
2, 271196, Note_off_c, 0, 80, 100
2, 271200, Note_on_c, 0, 83, 80
2, 271244, Note_off_c, 0, 81, 100
2, 271248, Note_on_c, 0, 81, 80
2, 271292, Note_off_c, 0, 83, 100
2, 271292, Note_off_c, 0, 81, 100
2, 271296, Note_on_c, 0, 80, 80
2, 271484, Note_off_c, 0, 80, 100
2, 271488, Note_on_c, 0, 78, 80
2, 271676, Note_off_c, 0, 78, 100
2, 271680, Note_on_c, 0, 76, 80
2, 271868, Note_off_c, 0, 76, 100
2, 271872, Note_on_c, 0, 75, 80
2, 272636, Note_off_c, 0, 75, 100
2, 272640, Note_on_c, 0, 76, 80
2, 273020, Note_off_c, 0, 76, 100
2, 273024, Note_on_c, 0, 77, 80
2, 273404, Note_off_c, 0, 77, 100
2, 273408, Note_on_c, 0, 78, 80
2, 273788, Note_off_c, 0, 78, 100
2, 273792, Note_on_c, 0, 79, 80
2, 274172, Note_off_c, 0, 79, 100
2, 274176, Note_on_c, 0, 80, 80
2, 274556, Note_off_c, 0, 80, 100
2, 274560, Note_on_c, 0, 81, 80
2, 274940, Note_off_c, 0, 81, 100
2, 274944, Note_on_c, 0, 82, 80
2, 275324, Note_off_c, 0, 82, 100
2, 275328, Note_on_c, 0, 83, 80
2, 275712, Note_on_c, 0, 71, 80
2, 276092, Note_off_c, 0, 83, 100
2, 276096, Note_on_c, 0, 81, 80
2, 276860, Note_off_c, 0, 81, 100
2, 276864, Note_on_c, 0, 80, 80
2, 277244, Note_off_c, 0, 71, 100
2, 277244, Note_off_c, 0, 80, 100
2, 278784, Note_on_c, 0, 59, 80
2, 278972, Note_off_c, 0, 59, 100
2, 278976, Note_on_c, 0, 57, 80
2, 279164, Note_off_c, 0, 57, 100
2, 279168, Note_on_c, 0, 56, 80
2, 279356, Note_off_c, 0, 56, 100
2, 279360, Note_on_c, 0, 54, 80
2, 279548, Note_off_c, 0, 54, 100
2, 279552, Note_on_c, 0, 53, 80
2, 279932, Note_off_c, 0, 53, 100
2, 280320, Note_on_c, 0, 83, 80
2, 280508, Note_off_c, 0, 83, 100
2, 280512, Note_on_c, 0, 81, 80
2, 280700, Note_off_c, 0, 81, 100
2, 280704, Note_on_c, 0, 80, 80
2, 280892, Note_off_c, 0, 80, 100
2, 280896, Note_on_c, 0, 78, 80
2, 281084, Note_off_c, 0, 78, 100
2, 281088, Note_on_c, 0, 77, 80
2, 281852, Note_off_c, 0, 77, 100
2, 281856, Note_on_c, 0, 77, 80
2, 281856, Note_on_c, 0, 80, 80
2, 281856, Note_on_c, 0, 86, 80
2, 283004, Note_off_c, 0, 77, 100
2, 283004, Note_off_c, 0, 80, 100
2, 283004, Note_off_c, 0, 86, 100
2, 283008, Note_on_c, 0, 85, 80
2, 283008, Note_on_c, 0, 81, 80
2, 283008, Note_on_c, 0, 78, 80
2, 283388, Note_off_c, 0, 85, 100
2, 283388, Note_off_c, 0, 81, 100
2, 283388, Note_off_c, 0, 78, 100
2, 284928, Note_on_c, 0, 57, 80
2, 285116, Note_off_c, 0, 57, 100
2, 285120, Note_on_c, 0, 56, 80
2, 285308, Note_off_c, 0, 56, 100
2, 285312, Note_on_c, 0, 54, 80
2, 285500, Note_off_c, 0, 54, 100
2, 285504, Note_on_c, 0, 52, 80
2, 285692, Note_off_c, 0, 52, 100
2, 285696, Note_on_c, 0, 51, 80
2, 286076, Note_off_c, 0, 51, 100
2, 286464, Note_on_c, 0, 81, 80
2, 286652, Note_off_c, 0, 81, 100
2, 286656, Note_on_c, 0, 80, 80
2, 286844, Note_off_c, 0, 80, 100
2, 286848, Note_on_c, 0, 78, 80
2, 287036, Note_off_c, 0, 78, 100
2, 287040, Note_on_c, 0, 76, 80
2, 287228, Note_off_c, 0, 76, 100
2, 287232, Note_on_c, 0, 75, 80
2, 287996, Note_off_c, 0, 75, 100
2, 288000, Note_on_c, 0, 84, 80
2, 288000, Note_on_c, 0, 78, 80
2, 288000, Note_on_c, 0, 75, 80
2, 289148, Note_off_c, 0, 75, 100
2, 289148, Note_off_c, 0, 78, 100
2, 289148, Note_off_c, 0, 84, 100
2, 289152, Note_on_c, 0, 83, 80
2, 289152, Note_on_c, 0, 80, 80
2, 289152, Note_on_c, 0, 76, 80
2, 289532, Note_off_c, 0, 83, 100
2, 289532, Note_off_c, 0, 80, 100
2, 289532, Note_off_c, 0, 76, 100
2, 289920, Note_on_c, 0, 71, 80
2, 289920, Note_on_c, 0, 64, 80
2, 290300, Note_off_c, 0, 71, 100
2, 290300, Note_off_c, 0, 64, 100
2, 290304, Note_on_c, 0, 71, 80
2, 290304, Note_on_c, 0, 63, 80
2, 290492, Note_off_c, 0, 71, 100
2, 290496, Note_on_c, 0, 73, 80
2, 290556, Note_off_c, 0, 73, 100
2, 290560, Note_on_c, 0, 71, 80
2, 290620, Note_off_c, 0, 71, 100
2, 290624, Note_on_c, 0, 70, 80
2, 290684, Note_off_c, 0, 70, 100
2, 290688, Note_on_c, 0, 71, 80
2, 290876, Note_off_c, 0, 71, 100
2, 290880, Note_on_c, 0, 75, 80
2, 291068, Note_off_c, 0, 63, 100
2, 291068, Note_off_c, 0, 75, 100
2, 291072, Note_on_c, 0, 76, 80
2, 291072, Note_on_c, 0, 64, 80
2, 291452, Note_off_c, 0, 76, 100
2, 291452, Note_off_c, 0, 64, 100
2, 291456, Note_on_c, 0, 71, 80
2, 291456, Note_on_c, 0, 64, 80
2, 291836, Note_off_c, 0, 71, 100
2, 291836, Note_off_c, 0, 64, 100
2, 291840, Note_on_c, 0, 71, 80
2, 291840, Note_on_c, 0, 63, 80
2, 292028, Note_off_c, 0, 71, 100
2, 292032, Note_on_c, 0, 73, 80
2, 292092, Note_off_c, 0, 73, 100
2, 292096, Note_on_c, 0, 71, 80
2, 292156, Note_off_c, 0, 71, 100
2, 292160, Note_on_c, 0, 70, 80
2, 292220, Note_off_c, 0, 70, 100
2, 292224, Note_on_c, 0, 71, 80
2, 292412, Note_off_c, 0, 71, 100
2, 292416, Note_on_c, 0, 75, 80
2, 292604, Note_off_c, 0, 63, 100
2, 292604, Note_off_c, 0, 75, 100
2, 292608, Note_on_c, 0, 76, 80
2, 292608, Note_on_c, 0, 64, 80
2, 292988, Note_off_c, 0, 76, 100
2, 292988, Note_off_c, 0, 64, 100
2, 292992, Note_on_c, 0, 65, 80
2, 292992, Note_on_c, 0, 77, 80
2, 293372, Note_off_c, 0, 65, 100
2, 293372, Note_off_c, 0, 77, 100
2, 293376, Note_on_c, 0, 78, 80
2, 293376, Note_on_c, 0, 66, 80
2, 293756, Note_off_c, 0, 78, 100
2, 293756, Note_off_c, 0, 66, 100
2, 293760, Note_on_c, 0, 80, 80
2, 293760, Note_on_c, 0, 68, 80
2, 294140, Note_off_c, 0, 80, 100
2, 294140, Note_off_c, 0, 68, 100
2, 294144, Note_on_c, 0, 81, 80
2, 294144, Note_on_c, 0, 69, 80
2, 294524, Note_off_c, 0, 81, 100
2, 294524, Note_off_c, 0, 69, 100
2, 294528, Note_on_c, 0, 83, 80
2, 294528, Note_on_c, 0, 71, 80
2, 294908, Note_off_c, 0, 83, 100
2, 294908, Note_off_c, 0, 71, 100
2, 294912, Note_on_c, 0, 81, 80
2, 294912, Note_on_c, 0, 69, 80
2, 295676, Note_off_c, 0, 81, 100
2, 295676, Note_off_c, 0, 69, 100
2, 295680, Note_on_c, 0, 80, 80
2, 295680, Note_on_c, 0, 68, 80
2, 296060, Note_off_c, 0, 80, 100
2, 296060, Note_off_c, 0, 68, 100
2, 296064, Note_on_c, 0, 83, 80
2, 296064, Note_on_c, 0, 71, 80
2, 296444, Note_off_c, 0, 83, 100
2, 296444, Note_off_c, 0, 71, 100
2, 296448, Note_on_c, 0, 83, 80
2, 296448, Note_on_c, 0, 75, 80
2, 296636, Note_off_c, 0, 83, 100
2, 296640, Note_on_c, 0, 85, 80
2, 296700, Note_off_c, 0, 85, 100
2, 296704, Note_on_c, 0, 83, 80
2, 296764, Note_off_c, 0, 83, 100
2, 296768, Note_on_c, 0, 82, 80
2, 296828, Note_off_c, 0, 82, 100
2, 296832, Note_on_c, 0, 83, 80
2, 297020, Note_off_c, 0, 83, 100
2, 297024, Note_on_c, 0, 87, 80
2, 297212, Note_off_c, 0, 75, 100
2, 297212, Note_off_c, 0, 87, 100
2, 297216, Note_on_c, 0, 88, 80
2, 297216, Note_on_c, 0, 76, 80
2, 297596, Note_off_c, 0, 88, 100
2, 297596, Note_off_c, 0, 76, 100
2, 297600, Note_on_c, 0, 83, 80
2, 297600, Note_on_c, 0, 71, 80
2, 297980, Note_off_c, 0, 83, 100
2, 297980, Note_off_c, 0, 71, 100
2, 297984, Note_on_c, 0, 83, 80
2, 297984, Note_on_c, 0, 75, 80
2, 298172, Note_off_c, 0, 83, 100
2, 298176, Note_on_c, 0, 85, 80
2, 298236, Note_off_c, 0, 85, 100
2, 298240, Note_on_c, 0, 83, 80
2, 298300, Note_off_c, 0, 83, 100
2, 298304, Note_on_c, 0, 82, 80
2, 298364, Note_off_c, 0, 82, 100
2, 298368, Note_on_c, 0, 83, 80
2, 298556, Note_off_c, 0, 83, 100
2, 298560, Note_on_c, 0, 87, 80
2, 298748, Note_off_c, 0, 75, 100
2, 298748, Note_off_c, 0, 87, 100
2, 298752, Note_on_c, 0, 88, 80
2, 298752, Note_on_c, 0, 76, 80
2, 299132, Note_off_c, 0, 88, 100
2, 299132, Note_off_c, 0, 76, 100
2, 299136, Note_on_c, 0, 77, 80
2, 299136, Note_on_c, 0, 89, 80
2, 299516, Note_off_c, 0, 77, 100
2, 299516, Note_off_c, 0, 89, 100
2, 299520, Note_on_c, 0, 78, 80
2, 299520, Note_on_c, 0, 90, 80
2, 299900, Note_off_c, 0, 78, 100
2, 299900, Note_off_c, 0, 90, 100
2, 299904, Note_on_c, 0, 80, 80
2, 299904, Note_on_c, 0, 92, 80
2, 300284, Note_off_c, 0, 80, 100
2, 300284, Note_off_c, 0, 92, 100
2, 300288, Note_on_c, 0, 93, 80
2, 300288, Note_on_c, 0, 81, 80
2, 300668, Note_off_c, 0, 93, 100
2, 300668, Note_off_c, 0, 81, 100
2, 300672, Note_on_c, 0, 87, 80
2, 300672, Note_on_c, 0, 75, 80
2, 301052, Note_off_c, 0, 87, 100
2, 301052, Note_off_c, 0, 75, 100
2, 301056, Note_on_c, 0, 76, 80
2, 301056, Note_on_c, 0, 88, 80
2, 301436, Note_off_c, 0, 76, 100
2, 301436, Note_off_c, 0, 88, 100
2, 301440, Note_on_c, 0, 64, 110
2, 301440, Note_on_c, 0, 71, 110
2, 301440, Note_on_c, 0, 68, 110
2, 301820, Note_off_c, 0, 71, 100
2, 301820, Note_off_c, 0, 68, 100
2, 301824, Note_on_c, 0, 72, 110
2, 301824, Note_on_c, 0, 69, 110
2, 302204, Note_off_c, 0, 64, 100
2, 302208, Note_on_c, 0, 63, 110
2, 302588, Note_off_c, 0, 63, 100
2, 302592, Note_on_c, 0, 64, 110
2, 302972, Note_off_c, 0, 69, 100
2, 302972, Note_off_c, 0, 72, 100
2, 302976, Note_on_c, 0, 71, 110
2, 302976, Note_on_c, 0, 68, 110
2, 303356, Note_off_c, 0, 71, 100
2, 303356, Note_off_c, 0, 68, 100
2, 303360, Note_on_c, 0, 73, 110
2, 303360, Note_on_c, 0, 69, 110
2, 303740, Note_off_c, 0, 64, 100
2, 303744, Note_on_c, 0, 63, 110
2, 304124, Note_off_c, 0, 63, 100
2, 304128, Note_on_c, 0, 64, 110
2, 304508, Note_off_c, 0, 69, 100
2, 304508, Note_off_c, 0, 73, 100
2, 304512, Note_on_c, 0, 71, 110
2, 304512, Note_on_c, 0, 68, 110
2, 304892, Note_off_c, 0, 71, 100
2, 304892, Note_off_c, 0, 68, 100
2, 304896, Note_on_c, 0, 72, 110
2, 304896, Note_on_c, 0, 69, 110
2, 305276, Note_off_c, 0, 64, 100
2, 305280, Note_on_c, 0, 63, 110
2, 305660, Note_off_c, 0, 63, 100
2, 305664, Note_on_c, 0, 64, 110
2, 306044, Note_off_c, 0, 69, 100
2, 306044, Note_off_c, 0, 72, 100
2, 306048, Note_on_c, 0, 71, 110
2, 306048, Note_on_c, 0, 68, 110
2, 306428, Note_off_c, 0, 71, 100
2, 306428, Note_off_c, 0, 68, 100
2, 306432, Note_on_c, 0, 73, 110
2, 306432, Note_on_c, 0, 69, 110
2, 306812, Note_off_c, 0, 64, 100
2, 306816, Note_on_c, 0, 63, 110
2, 307196, Note_off_c, 0, 63, 100
2, 307200, Note_on_c, 0, 64, 110
2, 307580, Note_off_c, 0, 69, 100
2, 307580, Note_off_c, 0, 73, 100
2, 307580, Note_off_c, 0, 64, 100
2, 307584, Note_on_c, 0, 71, 80
2, 307584, Note_on_c, 0, 68, 80
2, 307964, Note_off_c, 0, 71, 100
2, 307964, Note_off_c, 0, 68, 100
2, 307968, Note_on_c, 0, 75, 80
2, 307968, Note_on_c, 0, 69, 80
2, 308348, Note_off_c, 0, 75, 100
2, 308348, Note_off_c, 0, 69, 100
2, 308352, Note_on_c, 0, 76, 80
2, 308352, Note_on_c, 0, 71, 80
2, 308732, Note_off_c, 0, 76, 100
2, 308732, Note_off_c, 0, 71, 100
2, 308736, Note_on_c, 0, 73, 80
2, 308736, Note_on_c, 0, 69, 80
2, 308736, Note_on_c, 0, 80, 80
2, 309308, Note_off_c, 0, 80, 100
2, 309312, Note_on_c, 0, 78, 80
2, 309500, Note_off_c, 0, 73, 100
2, 309500, Note_off_c, 0, 69, 100
2, 309500, Note_off_c, 0, 78, 100
2, 309504, Note_on_c, 0, 76, 80
2, 309504, Note_on_c, 0, 71, 80
2, 309884, Note_off_c, 0, 76, 100
2, 309884, Note_off_c, 0, 71, 100
2, 309888, Note_on_c, 0, 75, 80
2, 309888, Note_on_c, 0, 71, 80
2, 310268, Note_off_c, 0, 75, 100
2, 310268, Note_off_c, 0, 71, 100
2, 310272, Note_on_c, 0, 71, 80
2, 310652, Note_off_c, 0, 71, 100
2, 310656, Note_on_c, 0, 76, 86
2, 310656, Note_on_c, 0, 71, 86
2, 311036, Note_off_c, 0, 76, 100
2, 311036, Note_off_c, 0, 71, 100
2, 311040, Note_on_c, 0, 78, 93
2, 311040, Note_on_c, 0, 71, 93
2, 311420, Note_off_c, 0, 78, 100
2, 311420, Note_off_c, 0, 71, 100
2, 311424, Note_on_c, 0, 80, 99
2, 311424, Note_on_c, 0, 71, 99
2, 311804, Note_off_c, 0, 80, 100
2, 311804, Note_off_c, 0, 71, 100
2, 311808, Note_on_c, 0, 73, 110
2, 311808, Note_on_c, 0, 83, 110
2, 312380, Note_off_c, 0, 83, 100
2, 312384, Note_on_c, 0, 81, 110
2, 312572, Note_off_c, 0, 73, 100
2, 312572, Note_off_c, 0, 81, 100
2, 312576, Note_on_c, 0, 71, 110
2, 312576, Note_on_c, 0, 80, 110
2, 312956, Note_off_c, 0, 71, 100
2, 312956, Note_off_c, 0, 80, 100
2, 312960, Note_on_c, 0, 71, 110
2, 312960, Note_on_c, 0, 78, 110
2, 313340, Note_off_c, 0, 71, 100
2, 313340, Note_off_c, 0, 78, 100
2, 313344, Note_on_c, 0, 83, 120
2, 313344, Note_on_c, 0, 71, 120
2, 313724, Note_off_c, 0, 83, 100
2, 313724, Note_off_c, 0, 71, 100
2, 313728, Note_on_c, 0, 83, 120
2, 313728, Note_on_c, 0, 71, 120
2, 313728, Note_on_c, 0, 76, 120
2, 314108, Note_off_c, 0, 83, 100
2, 314108, Note_off_c, 0, 71, 100
2, 314108, Note_off_c, 0, 76, 100
2, 314112, Note_on_c, 0, 83, 120
2, 314112, Note_on_c, 0, 71, 120
2, 314112, Note_on_c, 0, 78, 120
2, 314112, Note_on_c, 0, 75, 120
2, 314492, Note_off_c, 0, 83, 100
2, 314492, Note_off_c, 0, 71, 100
2, 314492, Note_off_c, 0, 78, 100
2, 314492, Note_off_c, 0, 75, 100
2, 314496, Note_on_c, 0, 83, 120
2, 314496, Note_on_c, 0, 71, 120
2, 314496, Note_on_c, 0, 80, 120
2, 314496, Note_on_c, 0, 76, 120
2, 314876, Note_off_c, 0, 83, 100
2, 314876, Note_off_c, 0, 71, 100
2, 314876, Note_off_c, 0, 80, 100
2, 314876, Note_off_c, 0, 76, 100
2, 314880, Note_on_c, 0, 84, 120
2, 314880, Note_on_c, 0, 72, 120
2, 315260, Note_off_c, 0, 84, 100
2, 315260, Note_off_c, 0, 72, 100
2, 315264, Note_on_c, 0, 85, 120
2, 315264, Note_on_c, 0, 73, 120
2, 315644, Note_off_c, 0, 85, 100
2, 315644, Note_off_c, 0, 73, 100
2, 316800, Note_on_c, 0, 63, 80
2, 316800, Note_on_c, 0, 57, 80
2, 317180, Note_off_c, 0, 63, 100
2, 317180, Note_off_c, 0, 57, 100
2, 318144, Note_on_c, 0, 64, 70
2, 318144, Note_on_c, 0, 56, 70
2, 318144, Note_on_c, 0, 52, 70
2, 318332, Note_off_c, 0, 64, 100
2, 318332, Note_off_c, 0, 56, 100
2, 318332, Note_off_c, 0, 52, 100
2, 318336, Note_on_c, 0, 64, 70
2, 318336, Note_on_c, 0, 56, 70
2, 318336, Note_on_c, 0, 52, 70
2, 318524, Note_off_c, 0, 64, 100
2, 318524, Note_off_c, 0, 56, 100
2, 318524, Note_off_c, 0, 52, 100
2, 318528, Note_on_c, 0, 64, 70
2, 318528, Note_on_c, 0, 56, 70
2, 318528, Note_on_c, 0, 52, 70
2, 318716, Note_off_c, 0, 64, 100
2, 318716, Note_off_c, 0, 56, 100
2, 318716, Note_off_c, 0, 52, 100
2, 318912, Note_on_c, 0, 64, 70
2, 318912, Note_on_c, 0, 61, 70
2, 318912, Note_on_c, 0, 52, 70
2, 319100, Note_off_c, 0, 64, 100
2, 319100, Note_off_c, 0, 61, 100
2, 319100, Note_off_c, 0, 52, 100
2, 319104, Note_on_c, 0, 64, 70
2, 319104, Note_on_c, 0, 61, 70
2, 319104, Note_on_c, 0, 52, 70
2, 319292, Note_off_c, 0, 64, 100
2, 319292, Note_off_c, 0, 61, 100
2, 319292, Note_off_c, 0, 52, 100
2, 319296, Note_on_c, 0, 64, 70
2, 319296, Note_on_c, 0, 61, 70
2, 319296, Note_on_c, 0, 52, 70
2, 319484, Note_off_c, 0, 64, 100
2, 319484, Note_off_c, 0, 61, 100
2, 319484, Note_off_c, 0, 52, 100
2, 319680, Note_on_c, 0, 64, 70
2, 319680, Note_on_c, 0, 59, 70
2, 319680, Note_on_c, 0, 52, 70
2, 319868, Note_off_c, 0, 64, 100
2, 319868, Note_off_c, 0, 59, 100
2, 319868, Note_off_c, 0, 52, 100
2, 319872, Note_on_c, 0, 64, 70
2, 319872, Note_on_c, 0, 59, 70
2, 319872, Note_on_c, 0, 52, 70
2, 320060, Note_off_c, 0, 64, 100
2, 320060, Note_off_c, 0, 59, 100
2, 320060, Note_off_c, 0, 52, 100
2, 320064, Note_on_c, 0, 64, 70
2, 320064, Note_on_c, 0, 59, 70
2, 320064, Note_on_c, 0, 52, 70
2, 320252, Note_off_c, 0, 64, 100
2, 320252, Note_off_c, 0, 59, 100
2, 320252, Note_off_c, 0, 52, 100
2, 320448, Note_on_c, 0, 64, 70
2, 320448, Note_on_c, 0, 57, 70
2, 320448, Note_on_c, 0, 52, 70
2, 320636, Note_off_c, 0, 64, 100
2, 320636, Note_off_c, 0, 57, 100
2, 320636, Note_off_c, 0, 52, 100
2, 320640, Note_on_c, 0, 64, 70
2, 320640, Note_on_c, 0, 57, 70
2, 320640, Note_on_c, 0, 52, 70
2, 320828, Note_off_c, 0, 64, 100
2, 320828, Note_off_c, 0, 57, 100
2, 320828, Note_off_c, 0, 52, 100
2, 320832, Note_on_c, 0, 64, 70
2, 320832, Note_on_c, 0, 57, 70
2, 320832, Note_on_c, 0, 52, 70
2, 321020, Note_off_c, 0, 64, 100
2, 321020, Note_off_c, 0, 57, 100
2, 321020, Note_off_c, 0, 52, 100
2, 321216, Note_on_c, 0, 64, 70
2, 321216, Note_on_c, 0, 56, 70
2, 321216, Note_on_c, 0, 52, 70
2, 321404, Note_off_c, 0, 64, 100
2, 321404, Note_off_c, 0, 56, 100
2, 321404, Note_off_c, 0, 52, 100
2, 321408, Note_on_c, 0, 64, 70
2, 321408, Note_on_c, 0, 56, 70
2, 321408, Note_on_c, 0, 52, 70
2, 321596, Note_off_c, 0, 64, 100
2, 321596, Note_off_c, 0, 56, 100
2, 321596, Note_off_c, 0, 52, 100
2, 321600, Note_on_c, 0, 64, 70
2, 321600, Note_on_c, 0, 56, 70
2, 321600, Note_on_c, 0, 52, 70
2, 321788, Note_off_c, 0, 64, 100
2, 321788, Note_off_c, 0, 56, 100
2, 321788, Note_off_c, 0, 52, 100
2, 321984, Note_on_c, 0, 64, 70
2, 321984, Note_on_c, 0, 52, 70
2, 321984, Note_on_c, 0, 61, 70
2, 322172, Note_off_c, 0, 64, 100
2, 322172, Note_off_c, 0, 52, 100
2, 322172, Note_off_c, 0, 61, 100
2, 322176, Note_on_c, 0, 64, 70
2, 322176, Note_on_c, 0, 52, 70
2, 322176, Note_on_c, 0, 61, 70
2, 322364, Note_off_c, 0, 64, 100
2, 322364, Note_off_c, 0, 52, 100
2, 322364, Note_off_c, 0, 61, 100
2, 322368, Note_on_c, 0, 64, 70
2, 322368, Note_on_c, 0, 52, 70
2, 322368, Note_on_c, 0, 61, 70
2, 322556, Note_off_c, 0, 64, 100
2, 322556, Note_off_c, 0, 52, 100
2, 322556, Note_off_c, 0, 61, 100
2, 322752, Note_on_c, 0, 64, 70
2, 322752, Note_on_c, 0, 52, 70
2, 322752, Note_on_c, 0, 59, 70
2, 322940, Note_off_c, 0, 64, 100
2, 322940, Note_off_c, 0, 52, 100
2, 322940, Note_off_c, 0, 59, 100
2, 322944, Note_on_c, 0, 64, 70
2, 322944, Note_on_c, 0, 52, 70
2, 322944, Note_on_c, 0, 59, 70
2, 323132, Note_off_c, 0, 64, 100
2, 323132, Note_off_c, 0, 52, 100
2, 323132, Note_off_c, 0, 59, 100
2, 323136, Note_on_c, 0, 64, 70
2, 323136, Note_on_c, 0, 52, 70
2, 323136, Note_on_c, 0, 59, 70
2, 323324, Note_off_c, 0, 64, 100
2, 323324, Note_off_c, 0, 52, 100
2, 323324, Note_off_c, 0, 59, 100
2, 323520, Note_on_c, 0, 64, 70
2, 323520, Note_on_c, 0, 63, 70
2, 323520, Note_on_c, 0, 57, 70
2, 323520, Note_on_c, 0, 52, 70
2, 323708, Note_off_c, 0, 64, 100
2, 323708, Note_off_c, 0, 63, 100
2, 323708, Note_off_c, 0, 57, 100
2, 323708, Note_off_c, 0, 52, 100
2, 323712, Note_on_c, 0, 64, 70
2, 323712, Note_on_c, 0, 63, 70
2, 323712, Note_on_c, 0, 57, 70
2, 323712, Note_on_c, 0, 52, 70
2, 323900, Note_off_c, 0, 64, 100
2, 323900, Note_off_c, 0, 63, 100
2, 323900, Note_off_c, 0, 57, 100
2, 323900, Note_off_c, 0, 52, 100
2, 323904, Note_on_c, 0, 64, 70
2, 323904, Note_on_c, 0, 63, 70
2, 323904, Note_on_c, 0, 57, 70
2, 323904, Note_on_c, 0, 52, 70
2, 324092, Note_off_c, 0, 64, 100
2, 324092, Note_off_c, 0, 63, 100
2, 324092, Note_off_c, 0, 57, 100
2, 324092, Note_off_c, 0, 52, 100
2, 324288, Note_on_c, 0, 64, 70
2, 324288, Note_on_c, 0, 56, 70
2, 324288, Note_on_c, 0, 52, 70
2, 324476, Note_off_c, 0, 64, 100
2, 324476, Note_off_c, 0, 56, 100
2, 324476, Note_off_c, 0, 52, 100
2, 324480, Note_on_c, 0, 64, 70
2, 324480, Note_on_c, 0, 56, 70
2, 324480, Note_on_c, 0, 52, 70
2, 324668, Note_off_c, 0, 64, 100
2, 324668, Note_off_c, 0, 56, 100
2, 324668, Note_off_c, 0, 52, 100
2, 324672, Note_on_c, 0, 64, 70
2, 324672, Note_on_c, 0, 56, 70
2, 324672, Note_on_c, 0, 52, 70
2, 324860, Note_off_c, 0, 64, 100
2, 324860, Note_off_c, 0, 56, 100
2, 324860, Note_off_c, 0, 52, 100
2, 325056, Note_on_c, 0, 64, 70
2, 325056, Note_on_c, 0, 63, 70
2, 325056, Note_on_c, 0, 57, 70
2, 325056, Note_on_c, 0, 52, 70
2, 325244, Note_off_c, 0, 64, 100
2, 325244, Note_off_c, 0, 63, 100
2, 325244, Note_off_c, 0, 57, 100
2, 325244, Note_off_c, 0, 52, 100
2, 325248, Note_on_c, 0, 64, 70
2, 325248, Note_on_c, 0, 63, 70
2, 325248, Note_on_c, 0, 57, 70
2, 325248, Note_on_c, 0, 52, 70
2, 325436, Note_off_c, 0, 64, 100
2, 325436, Note_off_c, 0, 63, 100
2, 325436, Note_off_c, 0, 57, 100
2, 325436, Note_off_c, 0, 52, 100
2, 325440, Note_on_c, 0, 64, 70
2, 325440, Note_on_c, 0, 63, 70
2, 325440, Note_on_c, 0, 57, 70
2, 325440, Note_on_c, 0, 52, 70
2, 325628, Note_off_c, 0, 64, 100
2, 325628, Note_off_c, 0, 63, 100
2, 325628, Note_off_c, 0, 57, 100
2, 325628, Note_off_c, 0, 52, 100
2, 325824, Note_on_c, 0, 64, 70
2, 325824, Note_on_c, 0, 56, 70
2, 325824, Note_on_c, 0, 52, 70
2, 326012, Note_off_c, 0, 64, 100
2, 326012, Note_off_c, 0, 56, 100
2, 326012, Note_off_c, 0, 52, 100
2, 326016, Note_on_c, 0, 64, 70
2, 326016, Note_on_c, 0, 56, 70
2, 326016, Note_on_c, 0, 52, 70
2, 326204, Note_off_c, 0, 64, 100
2, 326204, Note_off_c, 0, 56, 100
2, 326204, Note_off_c, 0, 52, 100
2, 326208, Note_on_c, 0, 64, 70
2, 326208, Note_on_c, 0, 56, 70
2, 326208, Note_on_c, 0, 52, 70
2, 326396, Note_off_c, 0, 64, 100
2, 326396, Note_off_c, 0, 56, 100
2, 326396, Note_off_c, 0, 52, 100
2, 326592, Note_on_c, 0, 64, 70
2, 326592, Note_on_c, 0, 63, 70
2, 326592, Note_on_c, 0, 57, 70
2, 326592, Note_on_c, 0, 52, 70
2, 326780, Note_off_c, 0, 64, 100
2, 326780, Note_off_c, 0, 63, 100
2, 326780, Note_off_c, 0, 57, 100
2, 326780, Note_off_c, 0, 52, 100
2, 326784, Note_on_c, 0, 64, 70
2, 326784, Note_on_c, 0, 63, 70
2, 326784, Note_on_c, 0, 57, 70
2, 326784, Note_on_c, 0, 52, 70
2, 326972, Note_off_c, 0, 64, 100
2, 326972, Note_off_c, 0, 63, 100
2, 326972, Note_off_c, 0, 57, 100
2, 326972, Note_off_c, 0, 52, 100
2, 326976, Note_on_c, 0, 64, 70
2, 326976, Note_on_c, 0, 63, 70
2, 326976, Note_on_c, 0, 57, 70
2, 326976, Note_on_c, 0, 52, 70
2, 327164, Note_off_c, 0, 64, 100
2, 327164, Note_off_c, 0, 63, 100
2, 327164, Note_off_c, 0, 57, 100
2, 327164, Note_off_c, 0, 52, 100
2, 327360, Note_on_c, 0, 64, 70
2, 327360, Note_on_c, 0, 56, 70
2, 327360, Note_on_c, 0, 52, 70
2, 327548, Note_off_c, 0, 64, 100
2, 327548, Note_off_c, 0, 56, 100
2, 327548, Note_off_c, 0, 52, 100
2, 327552, Note_on_c, 0, 64, 70
2, 327552, Note_on_c, 0, 56, 70
2, 327552, Note_on_c, 0, 52, 70
2, 327740, Note_off_c, 0, 64, 100
2, 327740, Note_off_c, 0, 56, 100
2, 327740, Note_off_c, 0, 52, 100
2, 327744, Note_on_c, 0, 64, 70
2, 327744, Note_on_c, 0, 56, 70
2, 327744, Note_on_c, 0, 52, 70
2, 327932, Note_off_c, 0, 64, 100
2, 327932, Note_off_c, 0, 56, 100
2, 327932, Note_off_c, 0, 52, 100
2, 328128, Note_on_c, 0, 64, 70
2, 328128, Note_on_c, 0, 63, 70
2, 328128, Note_on_c, 0, 57, 70
2, 328128, Note_on_c, 0, 52, 70
2, 328316, Note_off_c, 0, 64, 100
2, 328316, Note_off_c, 0, 63, 100
2, 328316, Note_off_c, 0, 57, 100
2, 328316, Note_off_c, 0, 52, 100
2, 328320, Note_on_c, 0, 64, 70
2, 328320, Note_on_c, 0, 63, 70
2, 328320, Note_on_c, 0, 57, 70
2, 328320, Note_on_c, 0, 52, 70
2, 328508, Note_off_c, 0, 64, 100
2, 328508, Note_off_c, 0, 63, 100
2, 328508, Note_off_c, 0, 57, 100
2, 328508, Note_off_c, 0, 52, 100
2, 328512, Note_on_c, 0, 64, 70
2, 328512, Note_on_c, 0, 63, 70
2, 328512, Note_on_c, 0, 57, 70
2, 328512, Note_on_c, 0, 52, 70
2, 328700, Note_off_c, 0, 64, 100
2, 328700, Note_off_c, 0, 63, 100
2, 328700, Note_off_c, 0, 57, 100
2, 328700, Note_off_c, 0, 52, 100
2, 328704, Note_on_c, 0, 64, 80
2, 328896, Note_on_c, 0, 59, 80
2, 328896, Note_on_c, 0, 56, 80
2, 329084, Note_off_c, 0, 59, 100
2, 329084, Note_off_c, 0, 56, 100
2, 329088, Note_on_c, 0, 59, 80
2, 329088, Note_on_c, 0, 56, 80
2, 329276, Note_off_c, 0, 59, 100
2, 329276, Note_off_c, 0, 56, 100
2, 329280, Note_on_c, 0, 59, 80
2, 329280, Note_on_c, 0, 56, 80
2, 329468, Note_off_c, 0, 64, 100
2, 329468, Note_off_c, 0, 59, 100
2, 329468, Note_off_c, 0, 56, 100
2, 329472, Note_on_c, 0, 69, 80
2, 329664, Note_on_c, 0, 66, 80
2, 329664, Note_on_c, 0, 59, 80
2, 329852, Note_off_c, 0, 66, 100
2, 329852, Note_off_c, 0, 59, 100
2, 329856, Note_on_c, 0, 66, 80
2, 329856, Note_on_c, 0, 59, 80
2, 330044, Note_off_c, 0, 66, 100
2, 330044, Note_off_c, 0, 59, 100
2, 330048, Note_on_c, 0, 66, 80
2, 330048, Note_on_c, 0, 59, 80
2, 330236, Note_off_c, 0, 69, 100
2, 330236, Note_off_c, 0, 66, 100
2, 330236, Note_off_c, 0, 59, 100
2, 330240, Note_on_c, 0, 68, 80
2, 330432, Note_on_c, 0, 64, 80
2, 330432, Note_on_c, 0, 59, 80
2, 330620, Note_off_c, 0, 64, 100
2, 330620, Note_off_c, 0, 59, 100
2, 330624, Note_on_c, 0, 64, 80
2, 330624, Note_on_c, 0, 59, 80
2, 330812, Note_off_c, 0, 64, 100
2, 330812, Note_off_c, 0, 59, 100
2, 330816, Note_on_c, 0, 64, 80
2, 330816, Note_on_c, 0, 59, 80
2, 331004, Note_off_c, 0, 68, 100
2, 331004, Note_off_c, 0, 64, 100
2, 331004, Note_off_c, 0, 59, 100
2, 331008, Note_on_c, 0, 75, 80
2, 331200, Note_on_c, 0, 71, 80
2, 331200, Note_on_c, 0, 63, 80
2, 331388, Note_off_c, 0, 71, 100
2, 331388, Note_off_c, 0, 63, 100
2, 331392, Note_on_c, 0, 71, 80
2, 331392, Note_on_c, 0, 63, 80
2, 331580, Note_off_c, 0, 71, 100
2, 331580, Note_off_c, 0, 63, 100
2, 331584, Note_on_c, 0, 71, 80
2, 331584, Note_on_c, 0, 63, 80
2, 331772, Note_off_c, 0, 75, 100
2, 331772, Note_off_c, 0, 71, 100
2, 331772, Note_off_c, 0, 63, 100
2, 331776, Note_on_c, 0, 76, 80
2, 331968, Note_on_c, 0, 71, 80
2, 331968, Note_on_c, 0, 68, 80
2, 332156, Note_off_c, 0, 71, 100
2, 332156, Note_off_c, 0, 68, 100
2, 332160, Note_on_c, 0, 71, 80
2, 332160, Note_on_c, 0, 68, 80
2, 332348, Note_off_c, 0, 71, 100
2, 332348, Note_off_c, 0, 68, 100
2, 332352, Note_on_c, 0, 71, 80
2, 332352, Note_on_c, 0, 68, 80
2, 332540, Note_off_c, 0, 76, 100
2, 332540, Note_off_c, 0, 71, 100
2, 332540, Note_off_c, 0, 68, 100
2, 332544, Note_on_c, 0, 81, 80
2, 332736, Note_on_c, 0, 78, 80
2, 332736, Note_on_c, 0, 71, 80
2, 332924, Note_off_c, 0, 78, 100
2, 332924, Note_off_c, 0, 71, 100
2, 332928, Note_on_c, 0, 78, 80
2, 332928, Note_on_c, 0, 71, 80
2, 333116, Note_off_c, 0, 78, 100
2, 333116, Note_off_c, 0, 71, 100
2, 333120, Note_on_c, 0, 78, 80
2, 333120, Note_on_c, 0, 71, 80
2, 333308, Note_off_c, 0, 81, 100
2, 333308, Note_off_c, 0, 78, 100
2, 333308, Note_off_c, 0, 71, 100
2, 333312, Note_on_c, 0, 80, 80
2, 333504, Note_on_c, 0, 76, 80
2, 333504, Note_on_c, 0, 71, 80
2, 333692, Note_off_c, 0, 76, 100
2, 333692, Note_off_c, 0, 71, 100
2, 333696, Note_on_c, 0, 76, 80
2, 333696, Note_on_c, 0, 71, 80
2, 333884, Note_off_c, 0, 76, 100
2, 333884, Note_off_c, 0, 71, 100
2, 333888, Note_on_c, 0, 76, 80
2, 333888, Note_on_c, 0, 71, 80
2, 334076, Note_off_c, 0, 80, 100
2, 334076, Note_off_c, 0, 76, 100
2, 334076, Note_off_c, 0, 71, 100
2, 334080, Note_on_c, 0, 87, 80
2, 334272, Note_on_c, 0, 83, 80
2, 334272, Note_on_c, 0, 75, 80
2, 334460, Note_off_c, 0, 83, 100
2, 334460, Note_off_c, 0, 75, 100
2, 334464, Note_on_c, 0, 83, 80
2, 334464, Note_on_c, 0, 75, 80
2, 334652, Note_off_c, 0, 83, 100
2, 334652, Note_off_c, 0, 75, 100
2, 334656, Note_on_c, 0, 83, 80
2, 334656, Note_on_c, 0, 75, 80
2, 334844, Note_off_c, 0, 87, 100
2, 334844, Note_off_c, 0, 83, 100
2, 334844, Note_off_c, 0, 75, 100
2, 334848, Note_on_c, 0, 88, 80
2, 335040, Note_on_c, 0, 83, 80
2, 335040, Note_on_c, 0, 76, 80
2, 335228, Note_off_c, 0, 83, 100
2, 335228, Note_off_c, 0, 76, 100
2, 335232, Note_on_c, 0, 83, 79
2, 335232, Note_on_c, 0, 76, 79
2, 335420, Note_off_c, 0, 83, 100
2, 335420, Note_off_c, 0, 76, 100
2, 335424, Note_on_c, 0, 83, 79
2, 335424, Note_on_c, 0, 76, 79
2, 335612, Note_off_c, 0, 88, 100
2, 335612, Note_off_c, 0, 83, 100
2, 335612, Note_off_c, 0, 76, 100
2, 335616, Note_on_c, 0, 87, 78
2, 335808, Note_on_c, 0, 83, 77
2, 335808, Note_on_c, 0, 75, 77
2, 335996, Note_off_c, 0, 83, 100
2, 335996, Note_off_c, 0, 75, 100
2, 336000, Note_on_c, 0, 83, 77
2, 336000, Note_on_c, 0, 75, 77
2, 336188, Note_off_c, 0, 83, 100
2, 336188, Note_off_c, 0, 75, 100
2, 336192, Note_on_c, 0, 83, 76
2, 336192, Note_on_c, 0, 75, 76
2, 336380, Note_off_c, 0, 87, 100
2, 336380, Note_off_c, 0, 83, 100
2, 336380, Note_off_c, 0, 75, 100
2, 336384, Note_on_c, 0, 88, 75
2, 336576, Note_on_c, 0, 83, 75
2, 336576, Note_on_c, 0, 76, 75
2, 336764, Note_off_c, 0, 83, 100
2, 336764, Note_off_c, 0, 76, 100
2, 336768, Note_on_c, 0, 83, 74
2, 336768, Note_on_c, 0, 76, 74
2, 336956, Note_off_c, 0, 83, 100
2, 336956, Note_off_c, 0, 76, 100
2, 336960, Note_on_c, 0, 83, 73
2, 336960, Note_on_c, 0, 76, 73
2, 337148, Note_off_c, 0, 88, 100
2, 337148, Note_off_c, 0, 83, 100
2, 337148, Note_off_c, 0, 76, 100
2, 337152, Note_on_c, 0, 87, 73
2, 337344, Note_on_c, 0, 83, 72
2, 337344, Note_on_c, 0, 75, 72
2, 337532, Note_off_c, 0, 83, 100
2, 337532, Note_off_c, 0, 75, 100
2, 337536, Note_on_c, 0, 83, 71
2, 337536, Note_on_c, 0, 75, 71
2, 337724, Note_off_c, 0, 83, 100
2, 337724, Note_off_c, 0, 75, 100
2, 337728, Note_on_c, 0, 83, 71
2, 337728, Note_on_c, 0, 75, 71
2, 337916, Note_off_c, 0, 87, 100
2, 337916, Note_off_c, 0, 83, 100
2, 337916, Note_off_c, 0, 75, 100
2, 337920, Note_on_c, 0, 88, 70
2, 338112, Note_on_c, 0, 83, 70
2, 338112, Note_on_c, 0, 80, 70
2, 338112, Note_on_c, 0, 76, 70
2, 338300, Note_off_c, 0, 83, 100
2, 338300, Note_off_c, 0, 80, 100
2, 338300, Note_off_c, 0, 76, 100
2, 338304, Note_on_c, 0, 83, 70
2, 338304, Note_on_c, 0, 80, 70
2, 338304, Note_on_c, 0, 76, 70
2, 338492, Note_off_c, 0, 83, 100
2, 338492, Note_off_c, 0, 80, 100
2, 338492, Note_off_c, 0, 76, 100
2, 338496, Note_on_c, 0, 83, 70
2, 338496, Note_on_c, 0, 80, 70
2, 338496, Note_on_c, 0, 76, 70
2, 338684, Note_off_c, 0, 88, 100
2, 338684, Note_off_c, 0, 83, 100
2, 338684, Note_off_c, 0, 80, 100
2, 338684, Note_off_c, 0, 76, 100
2, 338688, Note_on_c, 0, 88, 70
2, 338880, Note_on_c, 0, 83, 70
2, 338880, Note_on_c, 0, 80, 70
2, 338880, Note_on_c, 0, 76, 70
2, 339068, Note_off_c, 0, 83, 100
2, 339068, Note_off_c, 0, 80, 100
2, 339068, Note_off_c, 0, 76, 100
2, 339072, Note_on_c, 0, 83, 70
2, 339072, Note_on_c, 0, 80, 70
2, 339072, Note_on_c, 0, 76, 70
2, 339260, Note_off_c, 0, 83, 100
2, 339260, Note_off_c, 0, 80, 100
2, 339260, Note_off_c, 0, 76, 100
2, 339264, Note_on_c, 0, 83, 70
2, 339264, Note_on_c, 0, 80, 70
2, 339264, Note_on_c, 0, 76, 70
2, 339452, Note_off_c, 0, 88, 100
2, 339452, Note_off_c, 0, 83, 100
2, 339452, Note_off_c, 0, 80, 100
2, 339452, Note_off_c, 0, 76, 100
2, 339456, Note_on_c, 0, 88, 70
2, 339840, Note_on_c, 0, 83, 70
2, 339840, Note_on_c, 0, 80, 70
2, 339840, Note_on_c, 0, 76, 70
2, 340988, Note_off_c, 0, 88, 100
2, 340988, Note_off_c, 0, 83, 100
2, 340988, Note_off_c, 0, 80, 100
2, 340988, Note_off_c, 0, 76, 100
2, 341376, Control_c, 0, 7, 0
2, 341760, Note_on_c, 0, 76, 1
2, 342140, Note_off_c, 0, 76, 100
2, 342140, End_track
3, 0, Start_track
3, 0, Title_t, "Left"
3, 0, Control_c, 1, 0, 0
3, 0, Program_c, 1, 0
3, 0, Control_c, 1, 7, 100
3, 0, Control_c, 1, 10, 59
3, 0, Control_c, 1, 91, 127
3, 0, Key_signature, 4, "major"
3, 192, Note_on_c, 1, 59, 80
3, 192, Note_on_c, 1, 56, 80
3, 192, Note_on_c, 1, 52, 80
3, 380, Note_off_c, 1, 59, 100
3, 380, Note_off_c, 1, 56, 100
3, 380, Note_off_c, 1, 52, 100
3, 384, Note_on_c, 1, 59, 80
3, 384, Note_on_c, 1, 56, 80
3, 384, Note_on_c, 1, 52, 80
3, 572, Note_off_c, 1, 59, 100
3, 572, Note_off_c, 1, 56, 100
3, 572, Note_off_c, 1, 52, 100
3, 576, Note_on_c, 1, 59, 80
3, 576, Note_on_c, 1, 56, 80
3, 576, Note_on_c, 1, 52, 80
3, 764, Note_off_c, 1, 59, 100
3, 764, Note_off_c, 1, 56, 100
3, 764, Note_off_c, 1, 52, 100
3, 960, Note_on_c, 1, 59, 80
3, 960, Note_on_c, 1, 56, 80
3, 960, Note_on_c, 1, 52, 80
3, 1148, Note_off_c, 1, 59, 100
3, 1148, Note_off_c, 1, 56, 100
3, 1148, Note_off_c, 1, 52, 100
3, 1152, Note_on_c, 1, 59, 80
3, 1152, Note_on_c, 1, 56, 80
3, 1152, Note_on_c, 1, 52, 80
3, 1340, Note_off_c, 1, 59, 100
3, 1340, Note_off_c, 1, 56, 100
3, 1340, Note_off_c, 1, 52, 100
3, 1344, Note_on_c, 1, 59, 80
3, 1344, Note_on_c, 1, 56, 80
3, 1344, Note_on_c, 1, 52, 80
3, 1532, Note_off_c, 1, 59, 100
3, 1532, Note_off_c, 1, 56, 100
3, 1532, Note_off_c, 1, 52, 100
3, 1728, Note_on_c, 1, 61, 80
3, 1728, Note_on_c, 1, 57, 80
3, 1728, Note_on_c, 1, 52, 80
3, 1916, Note_off_c, 1, 61, 100
3, 1916, Note_off_c, 1, 57, 100
3, 1916, Note_off_c, 1, 52, 100
3, 1920, Note_on_c, 1, 61, 80
3, 1920, Note_on_c, 1, 57, 80
3, 1920, Note_on_c, 1, 52, 80
3, 2108, Note_off_c, 1, 61, 100
3, 2108, Note_off_c, 1, 57, 100
3, 2108, Note_off_c, 1, 52, 100
3, 2112, Note_on_c, 1, 61, 80
3, 2112, Note_on_c, 1, 57, 80
3, 2112, Note_on_c, 1, 52, 80
3, 2300, Note_off_c, 1, 61, 100
3, 2300, Note_off_c, 1, 57, 100
3, 2300, Note_off_c, 1, 52, 100
3, 2496, Note_on_c, 1, 61, 80
3, 2496, Note_on_c, 1, 57, 80
3, 2496, Note_on_c, 1, 52, 80
3, 2684, Note_off_c, 1, 61, 100
3, 2684, Note_off_c, 1, 57, 100
3, 2684, Note_off_c, 1, 52, 100
3, 2688, Note_on_c, 1, 61, 80
3, 2688, Note_on_c, 1, 57, 80
3, 2688, Note_on_c, 1, 52, 80
3, 2876, Note_off_c, 1, 61, 100
3, 2876, Note_off_c, 1, 57, 100
3, 2876, Note_off_c, 1, 52, 100
3, 2880, Note_on_c, 1, 61, 80
3, 2880, Note_on_c, 1, 57, 80
3, 2880, Note_on_c, 1, 52, 80
3, 3068, Note_off_c, 1, 61, 100
3, 3068, Note_off_c, 1, 57, 100
3, 3068, Note_off_c, 1, 52, 100
3, 3264, Note_on_c, 1, 63, 80
3, 3264, Note_on_c, 1, 57, 80
3, 3264, Note_on_c, 1, 54, 80
3, 3264, Note_on_c, 1, 52, 80
3, 3452, Note_off_c, 1, 63, 100
3, 3452, Note_off_c, 1, 57, 100
3, 3452, Note_off_c, 1, 54, 100
3, 3452, Note_off_c, 1, 52, 100
3, 3456, Note_on_c, 1, 63, 80
3, 3456, Note_on_c, 1, 57, 80
3, 3456, Note_on_c, 1, 54, 80
3, 3456, Note_on_c, 1, 52, 80
3, 3644, Note_off_c, 1, 63, 100
3, 3644, Note_off_c, 1, 57, 100
3, 3644, Note_off_c, 1, 54, 100
3, 3644, Note_off_c, 1, 52, 100
3, 3648, Note_on_c, 1, 63, 80
3, 3648, Note_on_c, 1, 57, 80
3, 3648, Note_on_c, 1, 54, 80
3, 3648, Note_on_c, 1, 52, 80
3, 3836, Note_off_c, 1, 63, 100
3, 3836, Note_off_c, 1, 57, 100
3, 3836, Note_off_c, 1, 54, 100
3, 3836, Note_off_c, 1, 52, 100
3, 4032, Note_on_c, 1, 63, 80
3, 4032, Note_on_c, 1, 57, 80
3, 4032, Note_on_c, 1, 54, 80
3, 4032, Note_on_c, 1, 52, 80
3, 4220, Note_off_c, 1, 63, 100
3, 4220, Note_off_c, 1, 57, 100
3, 4220, Note_off_c, 1, 54, 100
3, 4220, Note_off_c, 1, 52, 100
3, 4224, Note_on_c, 1, 63, 80
3, 4224, Note_on_c, 1, 57, 80
3, 4224, Note_on_c, 1, 54, 80
3, 4224, Note_on_c, 1, 52, 80
3, 4412, Note_off_c, 1, 63, 100
3, 4412, Note_off_c, 1, 57, 100
3, 4412, Note_off_c, 1, 54, 100
3, 4412, Note_off_c, 1, 52, 100
3, 4416, Note_on_c, 1, 63, 80
3, 4416, Note_on_c, 1, 57, 80
3, 4416, Note_on_c, 1, 54, 80
3, 4416, Note_on_c, 1, 52, 80
3, 4604, Note_off_c, 1, 63, 100
3, 4604, Note_off_c, 1, 57, 100
3, 4604, Note_off_c, 1, 54, 100
3, 4604, Note_off_c, 1, 52, 100
3, 4608, Note_on_c, 1, 59, 80
3, 4608, Note_on_c, 1, 56, 80
3, 4608, Note_on_c, 1, 52, 80
3, 4608, Note_on_c, 1, 64, 80
3, 5756, Note_off_c, 1, 59, 100
3, 5756, Note_off_c, 1, 56, 100
3, 5756, Note_off_c, 1, 52, 100
3, 5756, Note_off_c, 1, 64, 100
3, 6912, Note_on_c, 1, 68, 80
3, 7004, Note_off_c, 1, 68, 100
3, 7008, Note_on_c, 1, 64, 80
3, 7100, Note_off_c, 1, 64, 100
3, 7104, Note_on_c, 1, 69, 80
3, 7196, Note_off_c, 1, 69, 100
3, 7200, Note_on_c, 1, 66, 80
3, 7292, Note_off_c, 1, 66, 100
3, 7296, Note_on_c, 1, 71, 80
3, 7388, Note_off_c, 1, 71, 100
3, 7392, Note_on_c, 1, 68, 80
3, 7484, Note_off_c, 1, 68, 100
3, 7488, Note_on_c, 1, 73, 80
3, 7580, Note_off_c, 1, 73, 100
3, 7584, Note_on_c, 1, 69, 80
3, 7676, Note_off_c, 1, 69, 100
3, 7680, Note_on_c, 1, 71, 80
3, 8060, Note_off_c, 1, 71, 100
3, 8448, Note_on_c, 1, 44, 80
3, 8540, Note_off_c, 1, 44, 100
3, 8544, Note_on_c, 1, 40, 80
3, 8636, Note_off_c, 1, 40, 100
3, 8640, Note_on_c, 1, 45, 80
3, 8732, Note_off_c, 1, 45, 100
3, 8736, Note_on_c, 1, 42, 80
3, 8828, Note_off_c, 1, 42, 100
3, 8832, Note_on_c, 1, 47, 80
3, 8924, Note_off_c, 1, 47, 100
3, 8928, Note_on_c, 1, 44, 80
3, 9020, Note_off_c, 1, 44, 100
3, 9024, Note_on_c, 1, 49, 80
3, 9116, Note_off_c, 1, 49, 100
3, 9120, Note_on_c, 1, 45, 80
3, 9212, Note_off_c, 1, 45, 100
3, 9216, Note_on_c, 1, 47, 80
3, 9792, Note_on_c, 1, 56, 80
3, 9980, Note_off_c, 1, 56, 100
3, 9984, Note_on_c, 1, 51, 80
3, 10172, Note_off_c, 1, 51, 100
3, 10176, Note_on_c, 1, 54, 80
3, 10364, Note_off_c, 1, 54, 100
3, 10368, Note_on_c, 1, 57, 80
3, 10748, Note_off_c, 1, 47, 100
3, 10748, Note_off_c, 1, 57, 100
3, 10752, Note_on_c, 1, 49, 80
3, 10812, Note_off_c, 1, 49, 100
3, 10816, Note_on_c, 1, 52, 80
3, 10876, Note_off_c, 1, 52, 100
3, 10880, Note_on_c, 1, 56, 80
3, 10940, Note_off_c, 1, 56, 100
3, 10944, Note_on_c, 1, 59, 80
3, 11328, Note_on_c, 1, 68, 80
3, 11516, Note_off_c, 1, 68, 100
3, 11520, Note_on_c, 1, 63, 80
3, 11708, Note_off_c, 1, 63, 100
3, 11712, Note_on_c, 1, 66, 80
3, 11900, Note_off_c, 1, 66, 100
3, 11904, Note_on_c, 1, 69, 80
3, 12284, Note_off_c, 1, 59, 100
3, 12284, Note_off_c, 1, 69, 100
3, 12288, Note_on_c, 1, 64, 80
3, 12288, Note_on_c, 1, 68, 80
3, 12668, Note_off_c, 1, 64, 100
3, 12668, Note_off_c, 1, 68, 100
3, 12672, Note_on_c, 1, 56, 80
3, 13052, Note_off_c, 1, 56, 100
3, 13056, Note_on_c, 1, 57, 80
3, 13436, Note_off_c, 1, 57, 100
3, 13440, Note_on_c, 1, 58, 80
3, 13820, Note_off_c, 1, 58, 100
3, 13824, Note_on_c, 1, 59, 80
3, 14588, Note_off_c, 1, 59, 100
3, 14592, Note_on_c, 1, 47, 80
3, 14592, Note_on_c, 1, 58, 80
3, 14972, Note_off_c, 1, 58, 100
3, 14976, Note_on_c, 1, 57, 80
3, 15356, Note_off_c, 1, 47, 100
3, 15356, Note_off_c, 1, 57, 100
3, 15360, Note_on_c, 1, 52, 80
3, 15360, Note_on_c, 1, 56, 80
3, 15740, Note_off_c, 1, 52, 100
3, 15740, Note_off_c, 1, 56, 100
3, 15744, Note_on_c, 1, 44, 80
3, 16124, Note_off_c, 1, 44, 100
3, 16128, Note_on_c, 1, 45, 80
3, 16508, Note_off_c, 1, 45, 100
3, 16512, Note_on_c, 1, 46, 80
3, 16892, Note_off_c, 1, 46, 100
3, 16896, Note_on_c, 1, 47, 80
3, 17660, Note_off_c, 1, 47, 100
3, 17664, Note_on_c, 1, 35, 80
3, 17664, Note_on_c, 1, 46, 80
3, 18044, Note_off_c, 1, 46, 100
3, 18048, Note_on_c, 1, 45, 80
3, 18428, Note_off_c, 1, 35, 100
3, 18428, Note_off_c, 1, 45, 100
3, 18624, Note_on_c, 1, 44, 80
3, 18624, Note_on_c, 1, 40, 80
3, 18812, Note_off_c, 1, 44, 100
3, 18812, Note_off_c, 1, 40, 100
3, 18816, Note_on_c, 1, 44, 80
3, 18816, Note_on_c, 1, 40, 80
3, 19004, Note_off_c, 1, 44, 100
3, 19004, Note_off_c, 1, 40, 100
3, 19008, Note_on_c, 1, 44, 80
3, 19008, Note_on_c, 1, 40, 80
3, 19196, Note_off_c, 1, 44, 100
3, 19196, Note_off_c, 1, 40, 100
3, 19392, Note_on_c, 1, 44, 80
3, 19392, Note_on_c, 1, 40, 80
3, 19580, Note_off_c, 1, 44, 100
3, 19580, Note_off_c, 1, 40, 100
3, 19584, Note_on_c, 1, 44, 80
3, 19584, Note_on_c, 1, 40, 80
3, 19772, Note_off_c, 1, 44, 100
3, 19772, Note_off_c, 1, 40, 100
3, 19776, Note_on_c, 1, 44, 80
3, 19776, Note_on_c, 1, 40, 80
3, 19964, Note_off_c, 1, 44, 100
3, 19964, Note_off_c, 1, 40, 100
3, 20160, Note_on_c, 1, 45, 80
3, 20160, Note_on_c, 1, 40, 80
3, 20348, Note_off_c, 1, 45, 100
3, 20348, Note_off_c, 1, 40, 100
3, 20352, Note_on_c, 1, 45, 80
3, 20352, Note_on_c, 1, 40, 80
3, 20540, Note_off_c, 1, 45, 100
3, 20540, Note_off_c, 1, 40, 100
3, 20544, Note_on_c, 1, 45, 80
3, 20544, Note_on_c, 1, 40, 80
3, 20732, Note_off_c, 1, 45, 100
3, 20732, Note_off_c, 1, 40, 100
3, 20928, Note_on_c, 1, 46, 80
3, 20928, Note_on_c, 1, 40, 80
3, 21116, Note_off_c, 1, 46, 100
3, 21116, Note_off_c, 1, 40, 100
3, 21120, Note_on_c, 1, 46, 80
3, 21120, Note_on_c, 1, 40, 80
3, 21308, Note_off_c, 1, 46, 100
3, 21308, Note_off_c, 1, 40, 100
3, 21312, Note_on_c, 1, 46, 80
3, 21312, Note_on_c, 1, 40, 80
3, 21500, Note_off_c, 1, 46, 100
3, 21500, Note_off_c, 1, 40, 100
3, 21696, Note_on_c, 1, 47, 81
3, 21696, Note_on_c, 1, 40, 81
3, 21884, Note_off_c, 1, 47, 100
3, 21884, Note_off_c, 1, 40, 100
3, 21888, Note_on_c, 1, 47, 82
3, 21888, Note_on_c, 1, 40, 82
3, 22076, Note_off_c, 1, 47, 100
3, 22076, Note_off_c, 1, 40, 100
3, 22080, Note_on_c, 1, 47, 83
3, 22080, Note_on_c, 1, 40, 83
3, 22268, Note_off_c, 1, 47, 100
3, 22268, Note_off_c, 1, 40, 100
3, 22464, Note_on_c, 1, 48, 86
3, 22464, Note_on_c, 1, 40, 86
3, 22652, Note_off_c, 1, 48, 100
3, 22652, Note_off_c, 1, 40, 100
3, 22656, Note_on_c, 1, 48, 87
3, 22656, Note_on_c, 1, 40, 87
3, 22844, Note_off_c, 1, 48, 100
3, 22844, Note_off_c, 1, 40, 100
3, 22848, Note_on_c, 1, 48, 89
3, 22848, Note_on_c, 1, 40, 89
3, 23036, Note_off_c, 1, 48, 100
3, 23036, Note_off_c, 1, 40, 100
3, 23232, Note_on_c, 1, 49, 91
3, 23232, Note_on_c, 1, 40, 91
3, 23420, Note_off_c, 1, 49, 100
3, 23420, Note_off_c, 1, 40, 100
3, 23424, Note_on_c, 1, 49, 93
3, 23424, Note_on_c, 1, 40, 93
3, 23612, Note_off_c, 1, 49, 100
3, 23612, Note_off_c, 1, 40, 100
3, 23616, Note_on_c, 1, 49, 94
3, 23616, Note_on_c, 1, 40, 94
3, 23804, Note_off_c, 1, 49, 100
3, 23804, Note_off_c, 1, 40, 100
3, 23808, Note_on_c, 1, 51, 95
3, 23808, Note_on_c, 1, 41, 95
3, 23996, Note_off_c, 1, 41, 100
3, 24000, Note_on_c, 1, 41, 97
3, 24188, Note_off_c, 1, 41, 100
3, 24192, Note_on_c, 1, 41, 98
3, 24380, Note_off_c, 1, 41, 100
3, 24384, Note_on_c, 1, 41, 99
3, 24572, Note_off_c, 1, 51, 100
3, 24572, Note_off_c, 1, 41, 100
3, 24576, Note_on_c, 1, 49, 110
3, 24576, Note_on_c, 1, 42, 110
3, 24764, Note_off_c, 1, 42, 100
3, 24768, Note_on_c, 1, 42, 110
3, 24956, Note_off_c, 1, 42, 100
3, 24960, Note_on_c, 1, 42, 110
3, 25148, Note_off_c, 1, 42, 100
3, 25152, Note_on_c, 1, 42, 110
3, 25340, Note_off_c, 1, 49, 100
3, 25340, Note_off_c, 1, 42, 100
3, 25344, Note_on_c, 1, 56, 110
3, 25344, Note_on_c, 1, 47, 110
3, 25344, Note_on_c, 1, 42, 110
3, 25532, Note_off_c, 1, 42, 100
3, 25536, Note_on_c, 1, 42, 110
3, 25724, Note_off_c, 1, 42, 100
3, 25728, Note_on_c, 1, 42, 110
3, 25916, Note_off_c, 1, 42, 100
3, 25920, Note_on_c, 1, 42, 110
3, 26108, Note_off_c, 1, 56, 100
3, 26108, Note_off_c, 1, 47, 100
3, 26108, Note_off_c, 1, 42, 100
3, 26112, Note_on_c, 1, 54, 110
3, 26112, Note_on_c, 1, 46, 110
3, 26112, Note_on_c, 1, 42, 110
3, 26300, Note_off_c, 1, 42, 100
3, 26304, Note_on_c, 1, 42, 110
3, 26492, Note_off_c, 1, 42, 100
3, 26496, Note_on_c, 1, 42, 110
3, 26684, Note_off_c, 1, 42, 100
3, 26688, Note_on_c, 1, 42, 110
3, 26876, Note_off_c, 1, 54, 100
3, 26876, Note_off_c, 1, 46, 100
3, 26876, Note_off_c, 1, 42, 100
3, 26880, Note_on_c, 1, 56, 110
3, 26880, Note_on_c, 1, 50, 110
3, 26880, Note_on_c, 1, 42, 110
3, 27068, Note_off_c, 1, 42, 100
3, 27072, Note_on_c, 1, 42, 110
3, 27260, Note_off_c, 1, 42, 100
3, 27264, Note_on_c, 1, 42, 110
3, 27452, Note_off_c, 1, 42, 100
3, 27456, Note_on_c, 1, 42, 110
3, 27644, Note_off_c, 1, 56, 100
3, 27644, Note_off_c, 1, 50, 100
3, 27644, Note_off_c, 1, 42, 100
3, 27648, Note_on_c, 1, 49, 110
3, 27648, Note_on_c, 1, 42, 110
3, 27836, Note_off_c, 1, 42, 100
3, 27840, Note_on_c, 1, 42, 110
3, 28028, Note_off_c, 1, 42, 100
3, 28032, Note_on_c, 1, 42, 110
3, 28220, Note_off_c, 1, 42, 100
3, 28224, Note_on_c, 1, 42, 110
3, 28412, Note_off_c, 1, 49, 100
3, 28412, Note_off_c, 1, 42, 100
3, 28416, Note_on_c, 1, 56, 110
3, 28416, Note_on_c, 1, 47, 110
3, 28416, Note_on_c, 1, 42, 110
3, 28604, Note_off_c, 1, 42, 100
3, 28608, Note_on_c, 1, 42, 110
3, 28796, Note_off_c, 1, 42, 100
3, 28800, Note_on_c, 1, 42, 110
3, 28988, Note_off_c, 1, 42, 100
3, 28992, Note_on_c, 1, 42, 110
3, 29180, Note_off_c, 1, 56, 100
3, 29180, Note_off_c, 1, 47, 100
3, 29180, Note_off_c, 1, 42, 100
3, 29184, Note_on_c, 1, 54, 110
3, 29184, Note_on_c, 1, 46, 110
3, 29184, Note_on_c, 1, 42, 110
3, 29372, Note_off_c, 1, 42, 100
3, 29376, Note_on_c, 1, 42, 110
3, 29564, Note_off_c, 1, 42, 100
3, 29568, Note_on_c, 1, 42, 110
3, 29756, Note_off_c, 1, 42, 100
3, 29760, Note_on_c, 1, 42, 110
3, 29948, Note_off_c, 1, 54, 100
3, 29948, Note_off_c, 1, 46, 100
3, 29948, Note_off_c, 1, 42, 100
3, 29952, Note_on_c, 1, 56, 110
3, 29952, Note_on_c, 1, 50, 110
3, 29952, Note_on_c, 1, 42, 110
3, 29952, Note_on_c, 1, 47, 110
3, 30140, Note_off_c, 1, 42, 100
3, 30144, Note_on_c, 1, 42, 110
3, 30332, Note_off_c, 1, 42, 100
3, 30336, Note_on_c, 1, 42, 110
3, 30524, Note_off_c, 1, 42, 100
3, 30528, Note_on_c, 1, 42, 110
3, 30716, Note_off_c, 1, 56, 100
3, 30716, Note_off_c, 1, 50, 100
3, 30716, Note_off_c, 1, 47, 100
3, 30716, Note_off_c, 1, 42, 100
3, 30720, Note_on_c, 1, 54, 110
3, 30720, Note_on_c, 1, 49, 110
3, 30720, Note_on_c, 1, 46, 110
3, 30720, Note_on_c, 1, 42, 110
3, 31100, Note_off_c, 1, 54, 100
3, 31100, Note_off_c, 1, 49, 100
3, 31100, Note_off_c, 1, 46, 100
3, 31100, Note_off_c, 1, 42, 100
3, 31488, Note_on_c, 1, 54, 110
3, 31488, Note_on_c, 1, 42, 110
3, 31868, Note_off_c, 1, 54, 100
3, 31868, Note_off_c, 1, 42, 100
3, 32256, Note_on_c, 1, 42, 110
3, 32256, Note_on_c, 1, 30, 110
3, 32636, Note_off_c, 1, 42, 100
3, 32636, Note_off_c, 1, 30, 100
3, 37632, Note_on_c, 1, 60, 80
3, 37632, Note_on_c, 1, 63, 80
3, 38396, Note_off_c, 1, 60, 100
3, 38396, Note_off_c, 1, 63, 100
3, 38400, Note_on_c, 1, 61, 80
3, 38400, Note_on_c, 1, 64, 80
3, 39164, Note_off_c, 1, 61, 100
3, 39164, Note_off_c, 1, 64, 100
3, 43776, Note_on_c, 1, 61, 80
3, 43776, Note_on_c, 1, 58, 80
3, 44540, Note_off_c, 1, 61, 100
3, 44540, Note_off_c, 1, 58, 100
3, 44544, Note_on_c, 1, 59, 80
3, 44544, Note_on_c, 1, 63, 80
3, 45308, Note_off_c, 1, 59, 100
3, 45308, Note_off_c, 1, 63, 100
3, 45312, Note_on_c, 1, 66, 80
3, 45500, Note_off_c, 1, 66, 100
3, 45504, Note_on_c, 1, 64, 80
3, 45692, Note_off_c, 1, 64, 100
3, 45696, Note_on_c, 1, 63, 80
3, 45884, Note_off_c, 1, 63, 100
3, 45888, Note_on_c, 1, 61, 80
3, 46076, Note_off_c, 1, 61, 100
3, 46080, Note_on_c, 1, 59, 80
3, 46844, Note_off_c, 1, 59, 100
3, 46848, Note_on_c, 1, 60, 80
3, 47228, Note_off_c, 1, 60, 100
3, 47232, Note_on_c, 1, 61, 80
3, 47612, Note_off_c, 1, 61, 100
3, 47616, Note_on_c, 1, 62, 80
3, 47996, Note_off_c, 1, 62, 100
3, 48000, Note_on_c, 1, 63, 80
3, 48380, Note_off_c, 1, 63, 100
3, 48384, Note_on_c, 1, 64, 80
3, 48764, Note_off_c, 1, 64, 100
3, 48768, Note_on_c, 1, 66, 80
3, 49148, Note_off_c, 1, 66, 100
3, 49152, Note_on_c, 1, 56, 80
3, 49152, Note_on_c, 1, 67, 80
3, 49532, Note_off_c, 1, 67, 100
3, 49536, Note_on_c, 1, 68, 80
3, 50300, Note_off_c, 1, 68, 100
3, 50304, Note_on_c, 1, 66, 80
3, 50684, Note_off_c, 1, 56, 100
3, 50688, Note_on_c, 1, 61, 80
3, 51068, Note_off_c, 1, 66, 100
3, 51072, Note_on_c, 1, 64, 80
3, 51452, Note_off_c, 1, 61, 100
3, 51452, Note_off_c, 1, 64, 100
3, 51456, Note_on_c, 1, 64, 80
3, 51644, Note_off_c, 1, 64, 100
3, 51648, Note_on_c, 1, 63, 80
3, 51836, Note_off_c, 1, 63, 100
3, 51840, Note_on_c, 1, 61, 80
3, 52028, Note_off_c, 1, 61, 100
3, 52032, Note_on_c, 1, 59, 80
3, 52220, Note_off_c, 1, 59, 100
3, 52224, Note_on_c, 1, 58, 80
3, 52988, Note_off_c, 1, 58, 100
3, 52992, Note_on_c, 1, 59, 80
3, 53372, Note_off_c, 1, 59, 100
3, 53376, Note_on_c, 1, 60, 80
3, 53756, Note_off_c, 1, 60, 100
3, 53760, Note_on_c, 1, 61, 80
3, 54140, Note_off_c, 1, 61, 100
3, 54144, Note_on_c, 1, 63, 80
3, 54524, Note_off_c, 1, 63, 100
3, 54528, Note_on_c, 1, 64, 80
3, 54908, Note_off_c, 1, 64, 100
3, 54912, Note_on_c, 1, 65, 80
3, 55296, Note_on_c, 1, 54, 80
3, 55676, Note_off_c, 1, 65, 100
3, 55680, Note_on_c, 1, 66, 80
3, 56444, Note_off_c, 1, 66, 100
3, 56448, Note_on_c, 1, 64, 80
3, 56828, Note_off_c, 1, 54, 100
3, 56832, Note_on_c, 1, 59, 80
3, 57212, Note_off_c, 1, 64, 100
3, 57216, Note_on_c, 1, 63, 80
3, 57596, Note_off_c, 1, 59, 100
3, 57596, Note_off_c, 1, 63, 100
3, 57600, Note_on_c, 1, 59, 80
3, 57600, Note_on_c, 1, 51, 80
3, 57788, Note_off_c, 1, 51, 100
3, 57792, Note_on_c, 1, 54, 80
3, 57980, Note_off_c, 1, 59, 100
3, 57980, Note_off_c, 1, 54, 100
3, 57984, Note_on_c, 1, 59, 80
3, 57984, Note_on_c, 1, 51, 80
3, 58172, Note_off_c, 1, 51, 100
3, 58176, Note_on_c, 1, 54, 80
3, 58364, Note_off_c, 1, 59, 100
3, 58364, Note_off_c, 1, 54, 100
3, 58368, Note_on_c, 1, 61, 80
3, 58368, Note_on_c, 1, 52, 80
3, 58556, Note_off_c, 1, 52, 100
3, 58560, Note_on_c, 1, 54, 80
3, 58748, Note_off_c, 1, 54, 100
3, 58752, Note_on_c, 1, 52, 80
3, 58940, Note_off_c, 1, 52, 100
3, 58944, Note_on_c, 1, 54, 80
3, 59132, Note_off_c, 1, 61, 100
3, 59132, Note_off_c, 1, 54, 100
3, 59136, Note_on_c, 1, 59, 80
3, 59136, Note_on_c, 1, 51, 80
3, 59324, Note_off_c, 1, 51, 100
3, 59328, Note_on_c, 1, 54, 80
3, 59516, Note_off_c, 1, 59, 100
3, 59516, Note_off_c, 1, 54, 100
3, 59520, Note_on_c, 1, 59, 80
3, 59520, Note_on_c, 1, 51, 80
3, 59708, Note_off_c, 1, 51, 100
3, 59712, Note_on_c, 1, 54, 80
3, 59900, Note_off_c, 1, 59, 100
3, 59900, Note_off_c, 1, 54, 100
3, 59904, Note_on_c, 1, 61, 80
3, 59904, Note_on_c, 1, 52, 80
3, 60092, Note_off_c, 1, 52, 100
3, 60096, Note_on_c, 1, 54, 80
3, 60284, Note_off_c, 1, 54, 100
3, 60288, Note_on_c, 1, 52, 80
3, 60476, Note_off_c, 1, 52, 100
3, 60480, Note_on_c, 1, 54, 80
3, 60668, Note_off_c, 1, 61, 100
3, 60668, Note_off_c, 1, 54, 100
3, 60672, Note_on_c, 1, 59, 80
3, 60672, Note_on_c, 1, 51, 80
3, 60860, Note_off_c, 1, 51, 100
3, 60864, Note_on_c, 1, 54, 80
3, 61052, Note_off_c, 1, 59, 100
3, 61052, Note_off_c, 1, 54, 100
3, 61056, Note_on_c, 1, 51, 80
3, 61056, Note_on_c, 1, 57, 80
3, 61244, Note_off_c, 1, 51, 100
3, 61248, Note_on_c, 1, 54, 80
3, 61436, Note_off_c, 1, 57, 100
3, 61436, Note_off_c, 1, 54, 100
3, 61440, Note_on_c, 1, 52, 80
3, 61440, Note_on_c, 1, 56, 80
3, 61628, Note_off_c, 1, 56, 100
3, 61632, Note_on_c, 1, 61, 80
3, 61820, Note_off_c, 1, 52, 100
3, 61820, Note_off_c, 1, 61, 100
3, 61824, Note_on_c, 1, 52, 80
3, 61824, Note_on_c, 1, 56, 80
3, 62012, Note_off_c, 1, 56, 100
3, 62016, Note_on_c, 1, 61, 80
3, 62204, Note_off_c, 1, 52, 100
3, 62204, Note_off_c, 1, 61, 100
3, 62208, Note_on_c, 1, 54, 80
3, 62208, Note_on_c, 1, 58, 80
3, 62396, Note_off_c, 1, 58, 100
3, 62400, Note_on_c, 1, 61, 80
3, 62588, Note_off_c, 1, 54, 100
3, 62588, Note_off_c, 1, 61, 100
3, 62592, Note_on_c, 1, 54, 80
3, 62592, Note_on_c, 1, 58, 80
3, 62780, Note_off_c, 1, 58, 100
3, 62784, Note_on_c, 1, 61, 80
3, 62972, Note_off_c, 1, 54, 100
3, 62972, Note_off_c, 1, 61, 100
3, 62976, Note_on_c, 1, 47, 80
3, 62976, Note_on_c, 1, 59, 80
3, 63164, Note_off_c, 1, 59, 100
3, 63168, Note_on_c, 1, 54, 80
3, 63356, Note_off_c, 1, 54, 100
3, 63360, Note_on_c, 1, 59, 80
3, 63548, Note_off_c, 1, 59, 100
3, 63552, Note_on_c, 1, 54, 80
3, 63740, Note_off_c, 1, 54, 100
3, 63744, Note_on_c, 1, 59, 80
3, 63932, Note_off_c, 1, 59, 100
3, 63936, Note_on_c, 1, 54, 80
3, 64124, Note_off_c, 1, 47, 100
3, 64124, Note_off_c, 1, 54, 100
3, 64128, Note_on_c, 1, 59, 80
3, 64128, Note_on_c, 1, 51, 80
3, 64316, Note_off_c, 1, 51, 100
3, 64320, Note_on_c, 1, 54, 80
3, 64508, Note_off_c, 1, 59, 100
3, 64508, Note_off_c, 1, 54, 100
3, 64512, Note_on_c, 1, 61, 80
3, 64512, Note_on_c, 1, 52, 80
3, 64700, Note_off_c, 1, 52, 100
3, 64704, Note_on_c, 1, 54, 80
3, 64892, Note_off_c, 1, 54, 100
3, 64896, Note_on_c, 1, 52, 80
3, 65084, Note_off_c, 1, 52, 100
3, 65088, Note_on_c, 1, 54, 80
3, 65276, Note_off_c, 1, 61, 100
3, 65276, Note_off_c, 1, 54, 100
3, 65280, Note_on_c, 1, 59, 80
3, 65280, Note_on_c, 1, 51, 80
3, 65468, Note_off_c, 1, 51, 100
3, 65472, Note_on_c, 1, 54, 80
3, 65660, Note_off_c, 1, 59, 100
3, 65660, Note_off_c, 1, 54, 100
3, 65664, Note_on_c, 1, 59, 80
3, 65664, Note_on_c, 1, 51, 80
3, 65852, Note_off_c, 1, 51, 100
3, 65856, Note_on_c, 1, 54, 80
3, 66044, Note_off_c, 1, 59, 100
3, 66044, Note_off_c, 1, 54, 100
3, 66048, Note_on_c, 1, 61, 80
3, 66048, Note_on_c, 1, 52, 80
3, 66236, Note_off_c, 1, 52, 100
3, 66240, Note_on_c, 1, 54, 80
3, 66428, Note_off_c, 1, 54, 100
3, 66432, Note_on_c, 1, 52, 80
3, 66620, Note_off_c, 1, 52, 100
3, 66624, Note_on_c, 1, 54, 80
3, 66812, Note_off_c, 1, 61, 100
3, 66812, Note_off_c, 1, 54, 100
3, 66816, Note_on_c, 1, 59, 80
3, 66816, Note_on_c, 1, 51, 80
3, 67004, Note_off_c, 1, 51, 100
3, 67008, Note_on_c, 1, 54, 80
3, 67196, Note_off_c, 1, 59, 100
3, 67196, Note_off_c, 1, 54, 100
3, 67200, Note_on_c, 1, 51, 80
3, 67200, Note_on_c, 1, 57, 80
3, 67388, Note_off_c, 1, 51, 100
3, 67392, Note_on_c, 1, 54, 80
3, 67580, Note_off_c, 1, 57, 100
3, 67580, Note_off_c, 1, 54, 100
3, 67584, Note_on_c, 1, 52, 80
3, 67584, Note_on_c, 1, 56, 80
3, 67772, Note_off_c, 1, 56, 100
3, 67776, Note_on_c, 1, 61, 80
3, 67964, Note_off_c, 1, 52, 100
3, 67964, Note_off_c, 1, 61, 100
3, 67968, Note_on_c, 1, 52, 80
3, 67968, Note_on_c, 1, 56, 80
3, 68156, Note_off_c, 1, 56, 100
3, 68160, Note_on_c, 1, 61, 80
3, 68348, Note_off_c, 1, 52, 100
3, 68348, Note_off_c, 1, 61, 100
3, 68352, Note_on_c, 1, 54, 80
3, 68352, Note_on_c, 1, 61, 80
3, 68540, Note_off_c, 1, 61, 100
3, 68544, Note_on_c, 1, 64, 80
3, 68732, Note_off_c, 1, 54, 100
3, 68732, Note_off_c, 1, 64, 100
3, 68736, Note_on_c, 1, 54, 80
3, 68736, Note_on_c, 1, 61, 80
3, 68924, Note_off_c, 1, 61, 100
3, 68928, Note_on_c, 1, 64, 80
3, 69116, Note_off_c, 1, 54, 100
3, 69116, Note_off_c, 1, 64, 100
3, 69120, Note_on_c, 1, 59, 80
3, 69120, Note_on_c, 1, 47, 80
3, 69500, Note_off_c, 1, 59, 100
3, 69500, Note_off_c, 1, 47, 100
3, 70464, Note_on_c, 1, 42, 110
3, 70524, Note_off_c, 1, 42, 100
3, 70528, Note_on_c, 1, 44, 110
3, 70588, Note_off_c, 1, 44, 100
3, 70592, Note_on_c, 1, 46, 110
3, 70652, Note_off_c, 1, 46, 100
3, 70656, Note_on_c, 1, 47, 110
3, 71036, Note_off_c, 1, 47, 100
3, 72000, Note_on_c, 1, 42, 110
3, 72060, Note_off_c, 1, 42, 100
3, 72064, Note_on_c, 1, 44, 110
3, 72124, Note_off_c, 1, 44, 100
3, 72128, Note_on_c, 1, 46, 110
3, 72188, Note_off_c, 1, 46, 100
3, 72192, Note_on_c, 1, 47, 110
3, 72572, Note_off_c, 1, 47, 100
3, 73536, Note_on_c, 1, 42, 110
3, 73596, Note_off_c, 1, 42, 100
3, 73600, Note_on_c, 1, 44, 110
3, 73660, Note_off_c, 1, 44, 100
3, 73664, Note_on_c, 1, 46, 110
3, 73724, Note_off_c, 1, 46, 100
3, 73728, Note_on_c, 1, 47, 110
3, 74108, Note_off_c, 1, 47, 100
3, 75072, Note_on_c, 1, 42, 110
3, 75132, Note_off_c, 1, 42, 100
3, 75136, Note_on_c, 1, 44, 110
3, 75196, Note_off_c, 1, 44, 100
3, 75200, Note_on_c, 1, 46, 110
3, 75260, Note_off_c, 1, 46, 100
3, 75264, Note_on_c, 1, 47, 110
3, 75644, Note_off_c, 1, 47, 100
3, 75648, Note_on_c, 1, 54, 80
3, 75648, Note_on_c, 1, 47, 80
3, 76028, Note_off_c, 1, 54, 100
3, 76028, Note_off_c, 1, 47, 100
3, 76032, Note_on_c, 1, 54, 80
3, 76032, Note_on_c, 1, 49, 80
3, 76412, Note_off_c, 1, 54, 100
3, 76412, Note_off_c, 1, 49, 100
3, 76416, Note_on_c, 1, 54, 80
3, 76416, Note_on_c, 1, 51, 80
3, 76796, Note_off_c, 1, 54, 100
3, 76796, Note_off_c, 1, 51, 100
3, 76800, Note_on_c, 1, 61, 80
3, 76800, Note_on_c, 1, 56, 80
3, 76800, Note_on_c, 1, 52, 80
3, 77564, Note_off_c, 1, 61, 100
3, 77564, Note_off_c, 1, 56, 100
3, 77564, Note_off_c, 1, 52, 100
3, 77568, Note_on_c, 1, 61, 80
3, 77568, Note_on_c, 1, 54, 80
3, 77948, Note_off_c, 1, 61, 100
3, 77948, Note_off_c, 1, 54, 100
3, 77952, Note_on_c, 1, 61, 80
3, 77952, Note_on_c, 1, 54, 80
3, 78332, Note_off_c, 1, 61, 100
3, 78332, Note_off_c, 1, 54, 100
3, 78720, Note_on_c, 1, 59, 82
3, 78720, Note_on_c, 1, 51, 82
3, 79100, Note_off_c, 1, 59, 100
3, 79100, Note_off_c, 1, 51, 100
3, 79104, Note_on_c, 1, 58, 85
3, 79104, Note_on_c, 1, 49, 85
3, 79484, Note_off_c, 1, 58, 100
3, 79484, Note_off_c, 1, 49, 100
3, 79488, Note_on_c, 1, 59, 88
3, 79488, Note_on_c, 1, 47, 88
3, 79868, Note_off_c, 1, 59, 100
3, 79868, Note_off_c, 1, 47, 100
3, 79872, Note_on_c, 1, 63, 91
3, 79872, Note_on_c, 1, 52, 91
3, 80444, Note_off_c, 1, 63, 100
3, 80448, Note_on_c, 1, 61, 95
3, 80636, Note_off_c, 1, 52, 100
3, 80636, Note_off_c, 1, 61, 100
3, 80640, Note_on_c, 1, 59, 97
3, 80640, Note_on_c, 1, 54, 97
3, 81020, Note_off_c, 1, 59, 100
3, 81020, Note_off_c, 1, 54, 100
3, 81024, Note_on_c, 1, 58, 99
3, 81024, Note_on_c, 1, 54, 99
3, 81404, Note_off_c, 1, 58, 100
3, 81404, Note_off_c, 1, 54, 100
3, 81792, Note_on_c, 1, 59, 120
3, 81792, Note_on_c, 1, 54, 120
3, 81792, Note_on_c, 1, 51, 120
3, 82172, Note_off_c, 1, 59, 100
3, 82172, Note_off_c, 1, 54, 100
3, 82172, Note_off_c, 1, 51, 100
3, 82176, Note_on_c, 1, 58, 120
3, 82176, Note_on_c, 1, 52, 120
3, 82176, Note_on_c, 1, 49, 120
3, 82556, Note_off_c, 1, 58, 100
3, 82556, Note_off_c, 1, 52, 100
3, 82556, Note_off_c, 1, 49, 100
3, 82560, Note_on_c, 1, 59, 120
3, 82560, Note_on_c, 1, 51, 120
3, 82560, Note_on_c, 1, 47, 120
3, 82940, Note_off_c, 1, 59, 100
3, 82940, Note_off_c, 1, 51, 100
3, 82940, Note_off_c, 1, 47, 100
3, 82944, Note_on_c, 1, 52, 120
3, 82944, Note_on_c, 1, 49, 120
3, 82944, Note_on_c, 1, 44, 120
3, 82944, Note_on_c, 1, 40, 120
3, 83324, Note_off_c, 1, 52, 100
3, 83324, Note_off_c, 1, 49, 100
3, 83324, Note_off_c, 1, 44, 100
3, 83324, Note_off_c, 1, 40, 100
3, 84480, Note_on_c, 1, 42, 80
3, 84860, Note_off_c, 1, 42, 100
3, 86016, Note_on_c, 1, 35, 70
3, 86780, Note_off_c, 1, 35, 100
3, 86784, Note_on_c, 1, 40, 70
3, 87548, Note_off_c, 1, 40, 100
3, 87552, Note_on_c, 1, 39, 70
3, 88316, Note_off_c, 1, 39, 100
3, 88320, Note_on_c, 1, 44, 70
3, 89084, Note_off_c, 1, 44, 100
3, 89088, Note_on_c, 1, 42, 70
3, 89852, Note_off_c, 1, 42, 100
3, 89856, Note_on_c, 1, 40, 70
3, 90620, Note_off_c, 1, 40, 100
3, 90624, Note_on_c, 1, 39, 70
3, 91388, Note_off_c, 1, 39, 100
3, 91392, Note_on_c, 1, 35, 70
3, 92156, Note_off_c, 1, 35, 100
3, 92160, Note_on_c, 1, 40, 80
3, 92348, Note_off_c, 1, 40, 100
3, 92352, Note_on_c, 1, 59, 80
3, 92352, Note_on_c, 1, 56, 80
3, 92352, Note_on_c, 1, 52, 80
3, 92540, Note_off_c, 1, 59, 100
3, 92540, Note_off_c, 1, 56, 100
3, 92540, Note_off_c, 1, 52, 100
3, 92544, Note_on_c, 1, 59, 80
3, 92544, Note_on_c, 1, 56, 80
3, 92544, Note_on_c, 1, 52, 80
3, 92732, Note_off_c, 1, 59, 100
3, 92732, Note_off_c, 1, 56, 100
3, 92732, Note_off_c, 1, 52, 100
3, 92736, Note_on_c, 1, 59, 80
3, 92736, Note_on_c, 1, 56, 80
3, 92736, Note_on_c, 1, 52, 80
3, 92924, Note_off_c, 1, 59, 100
3, 92924, Note_off_c, 1, 56, 100
3, 92924, Note_off_c, 1, 52, 100
3, 93120, Note_on_c, 1, 59, 80
3, 93120, Note_on_c, 1, 56, 80
3, 93120, Note_on_c, 1, 52, 80
3, 93308, Note_off_c, 1, 59, 100
3, 93308, Note_off_c, 1, 56, 100
3, 93308, Note_off_c, 1, 52, 100
3, 93312, Note_on_c, 1, 59, 80
3, 93312, Note_on_c, 1, 56, 80
3, 93312, Note_on_c, 1, 52, 80
3, 93500, Note_off_c, 1, 59, 100
3, 93500, Note_off_c, 1, 56, 100
3, 93500, Note_off_c, 1, 52, 100
3, 93504, Note_on_c, 1, 59, 80
3, 93504, Note_on_c, 1, 56, 80
3, 93504, Note_on_c, 1, 52, 80
3, 93692, Note_off_c, 1, 59, 100
3, 93692, Note_off_c, 1, 56, 100
3, 93692, Note_off_c, 1, 52, 100
3, 93888, Note_on_c, 1, 61, 80
3, 93888, Note_on_c, 1, 57, 80
3, 93888, Note_on_c, 1, 52, 80
3, 94076, Note_off_c, 1, 61, 100
3, 94076, Note_off_c, 1, 57, 100
3, 94076, Note_off_c, 1, 52, 100
3, 94080, Note_on_c, 1, 61, 80
3, 94080, Note_on_c, 1, 57, 80
3, 94080, Note_on_c, 1, 52, 80
3, 94268, Note_off_c, 1, 61, 100
3, 94268, Note_off_c, 1, 57, 100
3, 94268, Note_off_c, 1, 52, 100
3, 94272, Note_on_c, 1, 61, 80
3, 94272, Note_on_c, 1, 57, 80
3, 94272, Note_on_c, 1, 52, 80
3, 94460, Note_off_c, 1, 61, 100
3, 94460, Note_off_c, 1, 57, 100
3, 94460, Note_off_c, 1, 52, 100
3, 94656, Note_on_c, 1, 61, 80
3, 94656, Note_on_c, 1, 57, 80
3, 94656, Note_on_c, 1, 52, 80
3, 94844, Note_off_c, 1, 61, 100
3, 94844, Note_off_c, 1, 57, 100
3, 94844, Note_off_c, 1, 52, 100
3, 94848, Note_on_c, 1, 61, 80
3, 94848, Note_on_c, 1, 57, 80
3, 94848, Note_on_c, 1, 52, 80
3, 95036, Note_off_c, 1, 61, 100
3, 95036, Note_off_c, 1, 57, 100
3, 95036, Note_off_c, 1, 52, 100
3, 95040, Note_on_c, 1, 61, 80
3, 95040, Note_on_c, 1, 57, 80
3, 95040, Note_on_c, 1, 52, 80
3, 95228, Note_off_c, 1, 61, 100
3, 95228, Note_off_c, 1, 57, 100
3, 95228, Note_off_c, 1, 52, 100
3, 95424, Note_on_c, 1, 63, 80
3, 95424, Note_on_c, 1, 57, 80
3, 95424, Note_on_c, 1, 54, 80
3, 95424, Note_on_c, 1, 52, 80
3, 95612, Note_off_c, 1, 63, 100
3, 95612, Note_off_c, 1, 57, 100
3, 95612, Note_off_c, 1, 54, 100
3, 95612, Note_off_c, 1, 52, 100
3, 95616, Note_on_c, 1, 63, 80
3, 95616, Note_on_c, 1, 57, 80
3, 95616, Note_on_c, 1, 54, 80
3, 95616, Note_on_c, 1, 52, 80
3, 95804, Note_off_c, 1, 63, 100
3, 95804, Note_off_c, 1, 57, 100
3, 95804, Note_off_c, 1, 54, 100
3, 95804, Note_off_c, 1, 52, 100
3, 95808, Note_on_c, 1, 63, 80
3, 95808, Note_on_c, 1, 57, 80
3, 95808, Note_on_c, 1, 54, 80
3, 95808, Note_on_c, 1, 52, 80
3, 95996, Note_off_c, 1, 63, 100
3, 95996, Note_off_c, 1, 57, 100
3, 95996, Note_off_c, 1, 54, 100
3, 95996, Note_off_c, 1, 52, 100
3, 96192, Note_on_c, 1, 63, 80
3, 96192, Note_on_c, 1, 57, 80
3, 96192, Note_on_c, 1, 54, 80
3, 96192, Note_on_c, 1, 52, 80
3, 96380, Note_off_c, 1, 63, 100
3, 96380, Note_off_c, 1, 57, 100
3, 96380, Note_off_c, 1, 54, 100
3, 96380, Note_off_c, 1, 52, 100
3, 96384, Note_on_c, 1, 63, 80
3, 96384, Note_on_c, 1, 57, 80
3, 96384, Note_on_c, 1, 54, 80
3, 96384, Note_on_c, 1, 52, 80
3, 96572, Note_off_c, 1, 63, 100
3, 96572, Note_off_c, 1, 57, 100
3, 96572, Note_off_c, 1, 54, 100
3, 96572, Note_off_c, 1, 52, 100
3, 96576, Note_on_c, 1, 63, 80
3, 96576, Note_on_c, 1, 57, 80
3, 96576, Note_on_c, 1, 54, 80
3, 96576, Note_on_c, 1, 52, 80
3, 96764, Note_off_c, 1, 63, 100
3, 96764, Note_off_c, 1, 57, 100
3, 96764, Note_off_c, 1, 54, 100
3, 96764, Note_off_c, 1, 52, 100
3, 96768, Note_on_c, 1, 59, 80
3, 96768, Note_on_c, 1, 56, 80
3, 96768, Note_on_c, 1, 52, 80
3, 96768, Note_on_c, 1, 64, 80
3, 97916, Note_off_c, 1, 59, 100
3, 97916, Note_off_c, 1, 56, 100
3, 97916, Note_off_c, 1, 52, 100
3, 97916, Note_off_c, 1, 64, 100
3, 99072, Note_on_c, 1, 68, 80
3, 99164, Note_off_c, 1, 68, 100
3, 99168, Note_on_c, 1, 64, 80
3, 99260, Note_off_c, 1, 64, 100
3, 99264, Note_on_c, 1, 69, 80
3, 99356, Note_off_c, 1, 69, 100
3, 99360, Note_on_c, 1, 66, 80
3, 99452, Note_off_c, 1, 66, 100
3, 99456, Note_on_c, 1, 71, 80
3, 99548, Note_off_c, 1, 71, 100
3, 99552, Note_on_c, 1, 68, 80
3, 99644, Note_off_c, 1, 68, 100
3, 99648, Note_on_c, 1, 73, 80
3, 99740, Note_off_c, 1, 73, 100
3, 99744, Note_on_c, 1, 69, 80
3, 99836, Note_off_c, 1, 69, 100
3, 99840, Note_on_c, 1, 71, 80
3, 100220, Note_off_c, 1, 71, 100
3, 100608, Note_on_c, 1, 44, 80
3, 100700, Note_off_c, 1, 44, 100
3, 100704, Note_on_c, 1, 40, 80
3, 100796, Note_off_c, 1, 40, 100
3, 100800, Note_on_c, 1, 45, 80
3, 100892, Note_off_c, 1, 45, 100
3, 100896, Note_on_c, 1, 42, 80
3, 100988, Note_off_c, 1, 42, 100
3, 100992, Note_on_c, 1, 47, 80
3, 101084, Note_off_c, 1, 47, 100
3, 101088, Note_on_c, 1, 44, 80
3, 101180, Note_off_c, 1, 44, 100
3, 101184, Note_on_c, 1, 49, 80
3, 101276, Note_off_c, 1, 49, 100
3, 101280, Note_on_c, 1, 45, 80
3, 101372, Note_off_c, 1, 45, 100
3, 101376, Note_on_c, 1, 47, 80
3, 101952, Note_on_c, 1, 56, 80
3, 102140, Note_off_c, 1, 56, 100
3, 102144, Note_on_c, 1, 51, 80
3, 102332, Note_off_c, 1, 51, 100
3, 102336, Note_on_c, 1, 54, 80
3, 102524, Note_off_c, 1, 54, 100
3, 102528, Note_on_c, 1, 57, 80
3, 102908, Note_off_c, 1, 47, 100
3, 102908, Note_off_c, 1, 57, 100
3, 102912, Note_on_c, 1, 49, 80
3, 102972, Note_off_c, 1, 49, 100
3, 102976, Note_on_c, 1, 52, 80
3, 103036, Note_off_c, 1, 52, 100
3, 103040, Note_on_c, 1, 56, 80
3, 103100, Note_off_c, 1, 56, 100
3, 103104, Note_on_c, 1, 59, 80
3, 103488, Note_on_c, 1, 68, 80
3, 103676, Note_off_c, 1, 68, 100
3, 103680, Note_on_c, 1, 63, 80
3, 103868, Note_off_c, 1, 63, 100
3, 103872, Note_on_c, 1, 66, 80
3, 104060, Note_off_c, 1, 66, 100
3, 104064, Note_on_c, 1, 69, 80
3, 104444, Note_off_c, 1, 59, 100
3, 104444, Note_off_c, 1, 69, 100
3, 104448, Note_on_c, 1, 64, 80
3, 104448, Note_on_c, 1, 68, 80
3, 104828, Note_off_c, 1, 64, 100
3, 104828, Note_off_c, 1, 68, 100
3, 104832, Note_on_c, 1, 56, 80
3, 105212, Note_off_c, 1, 56, 100
3, 105216, Note_on_c, 1, 57, 80
3, 105596, Note_off_c, 1, 57, 100
3, 105600, Note_on_c, 1, 58, 80
3, 105980, Note_off_c, 1, 58, 100
3, 105984, Note_on_c, 1, 59, 80
3, 106748, Note_off_c, 1, 59, 100
3, 106752, Note_on_c, 1, 47, 80
3, 106752, Note_on_c, 1, 58, 80
3, 107132, Note_off_c, 1, 58, 100
3, 107136, Note_on_c, 1, 57, 80
3, 107516, Note_off_c, 1, 47, 100
3, 107516, Note_off_c, 1, 57, 100
3, 107520, Note_on_c, 1, 52, 80
3, 107520, Note_on_c, 1, 56, 80
3, 107900, Note_off_c, 1, 52, 100
3, 107900, Note_off_c, 1, 56, 100
3, 107904, Note_on_c, 1, 44, 80
3, 108284, Note_off_c, 1, 44, 100
3, 108288, Note_on_c, 1, 45, 80
3, 108668, Note_off_c, 1, 45, 100
3, 108672, Note_on_c, 1, 46, 80
3, 109052, Note_off_c, 1, 46, 100
3, 109056, Note_on_c, 1, 47, 80
3, 109820, Note_off_c, 1, 47, 100
3, 109824, Note_on_c, 1, 35, 80
3, 109824, Note_on_c, 1, 46, 80
3, 110204, Note_off_c, 1, 46, 100
3, 110208, Note_on_c, 1, 45, 80
3, 110588, Note_off_c, 1, 35, 100
3, 110588, Note_off_c, 1, 45, 100
3, 110784, Note_on_c, 1, 44, 80
3, 110784, Note_on_c, 1, 40, 80
3, 110972, Note_off_c, 1, 44, 100
3, 110972, Note_off_c, 1, 40, 100
3, 110976, Note_on_c, 1, 44, 80
3, 110976, Note_on_c, 1, 40, 80
3, 111164, Note_off_c, 1, 44, 100
3, 111164, Note_off_c, 1, 40, 100
3, 111168, Note_on_c, 1, 44, 80
3, 111168, Note_on_c, 1, 40, 80
3, 111356, Note_off_c, 1, 44, 100
3, 111356, Note_off_c, 1, 40, 100
3, 111552, Note_on_c, 1, 44, 80
3, 111552, Note_on_c, 1, 40, 80
3, 111740, Note_off_c, 1, 44, 100
3, 111740, Note_off_c, 1, 40, 100
3, 111744, Note_on_c, 1, 44, 80
3, 111744, Note_on_c, 1, 40, 80
3, 111932, Note_off_c, 1, 44, 100
3, 111932, Note_off_c, 1, 40, 100
3, 111936, Note_on_c, 1, 44, 80
3, 111936, Note_on_c, 1, 40, 80
3, 112124, Note_off_c, 1, 44, 100
3, 112124, Note_off_c, 1, 40, 100
3, 112320, Note_on_c, 1, 45, 80
3, 112320, Note_on_c, 1, 40, 80
3, 112508, Note_off_c, 1, 45, 100
3, 112508, Note_off_c, 1, 40, 100
3, 112512, Note_on_c, 1, 45, 80
3, 112512, Note_on_c, 1, 40, 80
3, 112700, Note_off_c, 1, 45, 100
3, 112700, Note_off_c, 1, 40, 100
3, 112704, Note_on_c, 1, 45, 80
3, 112704, Note_on_c, 1, 40, 80
3, 112892, Note_off_c, 1, 45, 100
3, 112892, Note_off_c, 1, 40, 100
3, 113088, Note_on_c, 1, 46, 80
3, 113088, Note_on_c, 1, 40, 80
3, 113276, Note_off_c, 1, 46, 100
3, 113276, Note_off_c, 1, 40, 100
3, 113280, Note_on_c, 1, 46, 80
3, 113280, Note_on_c, 1, 40, 80
3, 113468, Note_off_c, 1, 46, 100
3, 113468, Note_off_c, 1, 40, 100
3, 113472, Note_on_c, 1, 46, 80
3, 113472, Note_on_c, 1, 40, 80
3, 113660, Note_off_c, 1, 46, 100
3, 113660, Note_off_c, 1, 40, 100
3, 113856, Note_on_c, 1, 47, 81
3, 113856, Note_on_c, 1, 40, 81
3, 114044, Note_off_c, 1, 47, 100
3, 114044, Note_off_c, 1, 40, 100
3, 114048, Note_on_c, 1, 47, 82
3, 114048, Note_on_c, 1, 40, 82
3, 114236, Note_off_c, 1, 47, 100
3, 114236, Note_off_c, 1, 40, 100
3, 114240, Note_on_c, 1, 47, 83
3, 114240, Note_on_c, 1, 40, 83
3, 114428, Note_off_c, 1, 47, 100
3, 114428, Note_off_c, 1, 40, 100
3, 114624, Note_on_c, 1, 48, 86
3, 114624, Note_on_c, 1, 40, 86
3, 114812, Note_off_c, 1, 48, 100
3, 114812, Note_off_c, 1, 40, 100
3, 114816, Note_on_c, 1, 48, 87
3, 114816, Note_on_c, 1, 40, 87
3, 115004, Note_off_c, 1, 48, 100
3, 115004, Note_off_c, 1, 40, 100
3, 115008, Note_on_c, 1, 48, 89
3, 115008, Note_on_c, 1, 40, 89
3, 115196, Note_off_c, 1, 48, 100
3, 115196, Note_off_c, 1, 40, 100
3, 115392, Note_on_c, 1, 49, 91
3, 115392, Note_on_c, 1, 40, 91
3, 115580, Note_off_c, 1, 49, 100
3, 115580, Note_off_c, 1, 40, 100
3, 115584, Note_on_c, 1, 49, 93
3, 115584, Note_on_c, 1, 40, 93
3, 115772, Note_off_c, 1, 49, 100
3, 115772, Note_off_c, 1, 40, 100
3, 115776, Note_on_c, 1, 49, 94
3, 115776, Note_on_c, 1, 40, 94
3, 115964, Note_off_c, 1, 49, 100
3, 115964, Note_off_c, 1, 40, 100
3, 115968, Note_on_c, 1, 51, 95
3, 115968, Note_on_c, 1, 41, 95
3, 116156, Note_off_c, 1, 41, 100
3, 116160, Note_on_c, 1, 41, 97
3, 116348, Note_off_c, 1, 41, 100
3, 116352, Note_on_c, 1, 41, 98
3, 116540, Note_off_c, 1, 41, 100
3, 116544, Note_on_c, 1, 41, 99
3, 116732, Note_off_c, 1, 51, 100
3, 116732, Note_off_c, 1, 41, 100
3, 116736, Note_on_c, 1, 49, 110
3, 116736, Note_on_c, 1, 42, 110
3, 116924, Note_off_c, 1, 42, 100
3, 116928, Note_on_c, 1, 42, 110
3, 117116, Note_off_c, 1, 42, 100
3, 117120, Note_on_c, 1, 42, 110
3, 117308, Note_off_c, 1, 42, 100
3, 117312, Note_on_c, 1, 42, 110
3, 117500, Note_off_c, 1, 49, 100
3, 117500, Note_off_c, 1, 42, 100
3, 117504, Note_on_c, 1, 56, 90
3, 117504, Note_on_c, 1, 47, 90
3, 117504, Note_on_c, 1, 42, 90
3, 117692, Note_off_c, 1, 42, 100
3, 117696, Note_on_c, 1, 42, 90
3, 117884, Note_off_c, 1, 42, 100
3, 117888, Note_on_c, 1, 42, 90
3, 118076, Note_off_c, 1, 42, 100
3, 118080, Note_on_c, 1, 42, 90
3, 118268, Note_off_c, 1, 56, 100
3, 118268, Note_off_c, 1, 47, 100
3, 118268, Note_off_c, 1, 42, 100
3, 118272, Note_on_c, 1, 54, 90
3, 118272, Note_on_c, 1, 46, 90
3, 118272, Note_on_c, 1, 42, 90
3, 118460, Note_off_c, 1, 42, 100
3, 118464, Note_on_c, 1, 42, 90
3, 118652, Note_off_c, 1, 42, 100
3, 118656, Note_on_c, 1, 42, 90
3, 118844, Note_off_c, 1, 42, 100
3, 118848, Note_on_c, 1, 42, 90
3, 119036, Note_off_c, 1, 54, 100
3, 119036, Note_off_c, 1, 46, 100
3, 119036, Note_off_c, 1, 42, 100
3, 119040, Note_on_c, 1, 56, 110
3, 119040, Note_on_c, 1, 50, 110
3, 119040, Note_on_c, 1, 42, 110
3, 119228, Note_off_c, 1, 42, 100
3, 119232, Note_on_c, 1, 42, 110
3, 119420, Note_off_c, 1, 42, 100
3, 119424, Note_on_c, 1, 42, 110
3, 119612, Note_off_c, 1, 42, 100
3, 119616, Note_on_c, 1, 42, 110
3, 119804, Note_off_c, 1, 56, 100
3, 119804, Note_off_c, 1, 50, 100
3, 119804, Note_off_c, 1, 42, 100
3, 119808, Note_on_c, 1, 49, 110
3, 119808, Note_on_c, 1, 42, 110
3, 119996, Note_off_c, 1, 42, 100
3, 120000, Note_on_c, 1, 42, 110
3, 120188, Note_off_c, 1, 42, 100
3, 120192, Note_on_c, 1, 42, 110
3, 120380, Note_off_c, 1, 42, 100
3, 120384, Note_on_c, 1, 42, 110
3, 120572, Note_off_c, 1, 49, 100
3, 120572, Note_off_c, 1, 42, 100
3, 120576, Note_on_c, 1, 56, 90
3, 120576, Note_on_c, 1, 47, 90
3, 120576, Note_on_c, 1, 42, 90
3, 120764, Note_off_c, 1, 42, 100
3, 120768, Note_on_c, 1, 42, 90
3, 120956, Note_off_c, 1, 42, 100
3, 120960, Note_on_c, 1, 42, 90
3, 121148, Note_off_c, 1, 42, 100
3, 121152, Note_on_c, 1, 42, 90
3, 121340, Note_off_c, 1, 56, 100
3, 121340, Note_off_c, 1, 47, 100
3, 121340, Note_off_c, 1, 42, 100
3, 121344, Note_on_c, 1, 54, 90
3, 121344, Note_on_c, 1, 46, 90
3, 121344, Note_on_c, 1, 42, 90
3, 121532, Note_off_c, 1, 42, 100
3, 121536, Note_on_c, 1, 42, 90
3, 121724, Note_off_c, 1, 42, 100
3, 121728, Note_on_c, 1, 42, 90
3, 121916, Note_off_c, 1, 42, 100
3, 121920, Note_on_c, 1, 42, 90
3, 122108, Note_off_c, 1, 54, 100
3, 122108, Note_off_c, 1, 46, 100
3, 122108, Note_off_c, 1, 42, 100
3, 122112, Note_on_c, 1, 56, 110
3, 122112, Note_on_c, 1, 50, 110
3, 122112, Note_on_c, 1, 42, 110
3, 122112, Note_on_c, 1, 47, 110
3, 122300, Note_off_c, 1, 42, 100
3, 122304, Note_on_c, 1, 42, 110
3, 122492, Note_off_c, 1, 42, 100
3, 122496, Note_on_c, 1, 42, 110
3, 122684, Note_off_c, 1, 42, 100
3, 122688, Note_on_c, 1, 42, 110
3, 122876, Note_off_c, 1, 56, 100
3, 122876, Note_off_c, 1, 50, 100
3, 122876, Note_off_c, 1, 47, 100
3, 122876, Note_off_c, 1, 42, 100
3, 122880, Note_on_c, 1, 54, 110
3, 122880, Note_on_c, 1, 49, 110
3, 122880, Note_on_c, 1, 46, 110
3, 122880, Note_on_c, 1, 42, 110
3, 123260, Note_off_c, 1, 54, 100
3, 123260, Note_off_c, 1, 49, 100
3, 123260, Note_off_c, 1, 46, 100
3, 123260, Note_off_c, 1, 42, 100
3, 123648, Note_on_c, 1, 54, 110
3, 123648, Note_on_c, 1, 42, 110
3, 124028, Note_off_c, 1, 54, 100
3, 124028, Note_off_c, 1, 42, 100
3, 124416, Note_on_c, 1, 42, 110
3, 124416, Note_on_c, 1, 30, 110
3, 124796, Note_off_c, 1, 42, 100
3, 124796, Note_off_c, 1, 30, 100
3, 129792, Note_on_c, 1, 60, 80
3, 129792, Note_on_c, 1, 63, 80
3, 130556, Note_off_c, 1, 60, 100
3, 130556, Note_off_c, 1, 63, 100
3, 130560, Note_on_c, 1, 61, 80
3, 130560, Note_on_c, 1, 64, 80
3, 131324, Note_off_c, 1, 61, 100
3, 131324, Note_off_c, 1, 64, 100
3, 135936, Note_on_c, 1, 61, 80
3, 135936, Note_on_c, 1, 58, 80
3, 136700, Note_off_c, 1, 61, 100
3, 136700, Note_off_c, 1, 58, 100
3, 136704, Note_on_c, 1, 59, 80
3, 136704, Note_on_c, 1, 63, 80
3, 137468, Note_off_c, 1, 59, 100
3, 137468, Note_off_c, 1, 63, 100
3, 137472, Note_on_c, 1, 66, 80
3, 137660, Note_off_c, 1, 66, 100
3, 137664, Note_on_c, 1, 64, 80
3, 137852, Note_off_c, 1, 64, 100
3, 137856, Note_on_c, 1, 63, 80
3, 138044, Note_off_c, 1, 63, 100
3, 138048, Note_on_c, 1, 61, 80
3, 138236, Note_off_c, 1, 61, 100
3, 138240, Note_on_c, 1, 59, 80
3, 139004, Note_off_c, 1, 59, 100
3, 139008, Note_on_c, 1, 60, 80
3, 139388, Note_off_c, 1, 60, 100
3, 139392, Note_on_c, 1, 61, 80
3, 139772, Note_off_c, 1, 61, 100
3, 139776, Note_on_c, 1, 62, 80
3, 140156, Note_off_c, 1, 62, 100
3, 140160, Note_on_c, 1, 63, 80
3, 140540, Note_off_c, 1, 63, 100
3, 140544, Note_on_c, 1, 64, 80
3, 140924, Note_off_c, 1, 64, 100
3, 140928, Note_on_c, 1, 66, 80
3, 141308, Note_off_c, 1, 66, 100
3, 141312, Note_on_c, 1, 56, 80
3, 141312, Note_on_c, 1, 67, 80
3, 141692, Note_off_c, 1, 67, 100
3, 141696, Note_on_c, 1, 68, 80
3, 142460, Note_off_c, 1, 68, 100
3, 142464, Note_on_c, 1, 66, 80
3, 142844, Note_off_c, 1, 56, 100
3, 142848, Note_on_c, 1, 61, 80
3, 143228, Note_off_c, 1, 66, 100
3, 143232, Note_on_c, 1, 64, 80
3, 143612, Note_off_c, 1, 61, 100
3, 143612, Note_off_c, 1, 64, 100
3, 143616, Note_on_c, 1, 64, 80
3, 143804, Note_off_c, 1, 64, 100
3, 143808, Note_on_c, 1, 63, 80
3, 143996, Note_off_c, 1, 63, 100
3, 144000, Note_on_c, 1, 61, 80
3, 144188, Note_off_c, 1, 61, 100
3, 144192, Note_on_c, 1, 59, 80
3, 144380, Note_off_c, 1, 59, 100
3, 144384, Note_on_c, 1, 58, 80
3, 145148, Note_off_c, 1, 58, 100
3, 145152, Note_on_c, 1, 59, 80
3, 145532, Note_off_c, 1, 59, 100
3, 145536, Note_on_c, 1, 60, 80
3, 145916, Note_off_c, 1, 60, 100
3, 145920, Note_on_c, 1, 61, 80
3, 146300, Note_off_c, 1, 61, 100
3, 146304, Note_on_c, 1, 63, 80
3, 146684, Note_off_c, 1, 63, 100
3, 146688, Note_on_c, 1, 64, 80
3, 147068, Note_off_c, 1, 64, 100
3, 147072, Note_on_c, 1, 65, 80
3, 147456, Note_on_c, 1, 54, 80
3, 147836, Note_off_c, 1, 65, 100
3, 147840, Note_on_c, 1, 66, 80
3, 148604, Note_off_c, 1, 66, 100
3, 148608, Note_on_c, 1, 64, 80
3, 148988, Note_off_c, 1, 54, 100
3, 148992, Note_on_c, 1, 59, 80
3, 149372, Note_off_c, 1, 64, 100
3, 149376, Note_on_c, 1, 63, 80
3, 149756, Note_off_c, 1, 59, 100
3, 149756, Note_off_c, 1, 63, 100
3, 149760, Note_on_c, 1, 59, 80
3, 149760, Note_on_c, 1, 51, 80
3, 149948, Note_off_c, 1, 51, 100
3, 149952, Note_on_c, 1, 54, 80
3, 150140, Note_off_c, 1, 59, 100
3, 150140, Note_off_c, 1, 54, 100
3, 150144, Note_on_c, 1, 59, 80
3, 150144, Note_on_c, 1, 51, 80
3, 150332, Note_off_c, 1, 51, 100
3, 150336, Note_on_c, 1, 54, 80
3, 150524, Note_off_c, 1, 59, 100
3, 150524, Note_off_c, 1, 54, 100
3, 150528, Note_on_c, 1, 61, 80
3, 150528, Note_on_c, 1, 52, 80
3, 150716, Note_off_c, 1, 52, 100
3, 150720, Note_on_c, 1, 54, 80
3, 150908, Note_off_c, 1, 54, 100
3, 150912, Note_on_c, 1, 52, 80
3, 151100, Note_off_c, 1, 52, 100
3, 151104, Note_on_c, 1, 54, 80
3, 151292, Note_off_c, 1, 61, 100
3, 151292, Note_off_c, 1, 54, 100
3, 151296, Note_on_c, 1, 59, 80
3, 151296, Note_on_c, 1, 51, 80
3, 151484, Note_off_c, 1, 51, 100
3, 151488, Note_on_c, 1, 54, 80
3, 151676, Note_off_c, 1, 59, 100
3, 151676, Note_off_c, 1, 54, 100
3, 151680, Note_on_c, 1, 59, 80
3, 151680, Note_on_c, 1, 51, 80
3, 151868, Note_off_c, 1, 51, 100
3, 151872, Note_on_c, 1, 54, 80
3, 152060, Note_off_c, 1, 59, 100
3, 152060, Note_off_c, 1, 54, 100
3, 152064, Note_on_c, 1, 61, 80
3, 152064, Note_on_c, 1, 52, 80
3, 152252, Note_off_c, 1, 52, 100
3, 152256, Note_on_c, 1, 54, 80
3, 152444, Note_off_c, 1, 54, 100
3, 152448, Note_on_c, 1, 52, 80
3, 152636, Note_off_c, 1, 52, 100
3, 152640, Note_on_c, 1, 54, 80
3, 152828, Note_off_c, 1, 61, 100
3, 152828, Note_off_c, 1, 54, 100
3, 152832, Note_on_c, 1, 59, 80
3, 152832, Note_on_c, 1, 51, 80
3, 153020, Note_off_c, 1, 51, 100
3, 153024, Note_on_c, 1, 54, 80
3, 153212, Note_off_c, 1, 59, 100
3, 153212, Note_off_c, 1, 54, 100
3, 153216, Note_on_c, 1, 51, 80
3, 153216, Note_on_c, 1, 57, 80
3, 153404, Note_off_c, 1, 51, 100
3, 153408, Note_on_c, 1, 54, 80
3, 153596, Note_off_c, 1, 57, 100
3, 153596, Note_off_c, 1, 54, 100
3, 153600, Note_on_c, 1, 52, 80
3, 153600, Note_on_c, 1, 56, 80
3, 153788, Note_off_c, 1, 56, 100
3, 153792, Note_on_c, 1, 61, 80
3, 153980, Note_off_c, 1, 52, 100
3, 153980, Note_off_c, 1, 61, 100
3, 153984, Note_on_c, 1, 52, 80
3, 153984, Note_on_c, 1, 56, 80
3, 154172, Note_off_c, 1, 56, 100
3, 154176, Note_on_c, 1, 61, 80
3, 154364, Note_off_c, 1, 52, 100
3, 154364, Note_off_c, 1, 61, 100
3, 154368, Note_on_c, 1, 54, 80
3, 154368, Note_on_c, 1, 58, 80
3, 154556, Note_off_c, 1, 58, 100
3, 154560, Note_on_c, 1, 61, 80
3, 154748, Note_off_c, 1, 54, 100
3, 154748, Note_off_c, 1, 61, 100
3, 154752, Note_on_c, 1, 54, 80
3, 154752, Note_on_c, 1, 58, 80
3, 154940, Note_off_c, 1, 58, 100
3, 154944, Note_on_c, 1, 61, 80
3, 155132, Note_off_c, 1, 54, 100
3, 155132, Note_off_c, 1, 61, 100
3, 155136, Note_on_c, 1, 47, 80
3, 155136, Note_on_c, 1, 59, 80
3, 155324, Note_off_c, 1, 59, 100
3, 155328, Note_on_c, 1, 54, 80
3, 155516, Note_off_c, 1, 54, 100
3, 155520, Note_on_c, 1, 59, 80
3, 155708, Note_off_c, 1, 59, 100
3, 155712, Note_on_c, 1, 54, 80
3, 155900, Note_off_c, 1, 54, 100
3, 155904, Note_on_c, 1, 59, 80
3, 156092, Note_off_c, 1, 59, 100
3, 156096, Note_on_c, 1, 54, 80
3, 156284, Note_off_c, 1, 47, 100
3, 156284, Note_off_c, 1, 54, 100
3, 156288, Note_on_c, 1, 59, 80
3, 156288, Note_on_c, 1, 51, 80
3, 156476, Note_off_c, 1, 51, 100
3, 156480, Note_on_c, 1, 54, 80
3, 156668, Note_off_c, 1, 59, 100
3, 156668, Note_off_c, 1, 54, 100
3, 156672, Note_on_c, 1, 61, 80
3, 156672, Note_on_c, 1, 52, 80
3, 156860, Note_off_c, 1, 52, 100
3, 156864, Note_on_c, 1, 54, 80
3, 157052, Note_off_c, 1, 54, 100
3, 157056, Note_on_c, 1, 52, 80
3, 157244, Note_off_c, 1, 52, 100
3, 157248, Note_on_c, 1, 54, 80
3, 157436, Note_off_c, 1, 61, 100
3, 157436, Note_off_c, 1, 54, 100
3, 157440, Note_on_c, 1, 59, 80
3, 157440, Note_on_c, 1, 51, 80
3, 157628, Note_off_c, 1, 51, 100
3, 157632, Note_on_c, 1, 54, 80
3, 157820, Note_off_c, 1, 59, 100
3, 157820, Note_off_c, 1, 54, 100
3, 157824, Note_on_c, 1, 59, 80
3, 157824, Note_on_c, 1, 51, 80
3, 158012, Note_off_c, 1, 51, 100
3, 158016, Note_on_c, 1, 54, 80
3, 158204, Note_off_c, 1, 59, 100
3, 158204, Note_off_c, 1, 54, 100
3, 158208, Note_on_c, 1, 61, 80
3, 158208, Note_on_c, 1, 52, 80
3, 158396, Note_off_c, 1, 52, 100
3, 158400, Note_on_c, 1, 54, 80
3, 158588, Note_off_c, 1, 54, 100
3, 158592, Note_on_c, 1, 52, 80
3, 158780, Note_off_c, 1, 52, 100
3, 158784, Note_on_c, 1, 54, 80
3, 158972, Note_off_c, 1, 61, 100
3, 158972, Note_off_c, 1, 54, 100
3, 158976, Note_on_c, 1, 59, 80
3, 158976, Note_on_c, 1, 51, 80
3, 159164, Note_off_c, 1, 51, 100
3, 159168, Note_on_c, 1, 54, 80
3, 159356, Note_off_c, 1, 59, 100
3, 159356, Note_off_c, 1, 54, 100
3, 159360, Note_on_c, 1, 51, 80
3, 159360, Note_on_c, 1, 57, 80
3, 159548, Note_off_c, 1, 51, 100
3, 159552, Note_on_c, 1, 54, 80
3, 159740, Note_off_c, 1, 57, 100
3, 159740, Note_off_c, 1, 54, 100
3, 159744, Note_on_c, 1, 52, 80
3, 159744, Note_on_c, 1, 56, 80
3, 159932, Note_off_c, 1, 56, 100
3, 159936, Note_on_c, 1, 61, 80
3, 160124, Note_off_c, 1, 52, 100
3, 160124, Note_off_c, 1, 61, 100
3, 160128, Note_on_c, 1, 52, 80
3, 160128, Note_on_c, 1, 56, 80
3, 160316, Note_off_c, 1, 56, 100
3, 160320, Note_on_c, 1, 61, 80
3, 160508, Note_off_c, 1, 52, 100
3, 160508, Note_off_c, 1, 61, 100
3, 160512, Note_on_c, 1, 54, 80
3, 160512, Note_on_c, 1, 61, 80
3, 160700, Note_off_c, 1, 61, 100
3, 160704, Note_on_c, 1, 64, 80
3, 160892, Note_off_c, 1, 54, 100
3, 160892, Note_off_c, 1, 64, 100
3, 160896, Note_on_c, 1, 54, 80
3, 160896, Note_on_c, 1, 61, 80
3, 161084, Note_off_c, 1, 61, 100
3, 161088, Note_on_c, 1, 64, 80
3, 161276, Note_off_c, 1, 54, 100
3, 161276, Note_off_c, 1, 64, 100
3, 161280, Note_on_c, 1, 59, 80
3, 161280, Note_on_c, 1, 47, 80
3, 161660, Note_off_c, 1, 59, 100
3, 161660, Note_off_c, 1, 47, 100
3, 162624, Note_on_c, 1, 42, 110
3, 162684, Note_off_c, 1, 42, 100
3, 162688, Note_on_c, 1, 44, 110
3, 162748, Note_off_c, 1, 44, 100
3, 162752, Note_on_c, 1, 46, 110
3, 162812, Note_off_c, 1, 46, 100
3, 162816, Note_on_c, 1, 47, 110
3, 163196, Note_off_c, 1, 47, 100
3, 164160, Note_on_c, 1, 42, 110
3, 164220, Note_off_c, 1, 42, 100
3, 164224, Note_on_c, 1, 44, 110
3, 164284, Note_off_c, 1, 44, 100
3, 164288, Note_on_c, 1, 46, 110
3, 164348, Note_off_c, 1, 46, 100
3, 164352, Note_on_c, 1, 47, 110
3, 164732, Note_off_c, 1, 47, 100
3, 165696, Note_on_c, 1, 42, 110
3, 165756, Note_off_c, 1, 42, 100
3, 165760, Note_on_c, 1, 44, 110
3, 165820, Note_off_c, 1, 44, 100
3, 165824, Note_on_c, 1, 46, 110
3, 165884, Note_off_c, 1, 46, 100
3, 165888, Note_on_c, 1, 47, 110
3, 166268, Note_off_c, 1, 47, 100
3, 167232, Note_on_c, 1, 42, 110
3, 167292, Note_off_c, 1, 42, 100
3, 167296, Note_on_c, 1, 44, 110
3, 167356, Note_off_c, 1, 44, 100
3, 167360, Note_on_c, 1, 46, 110
3, 167420, Note_off_c, 1, 46, 100
3, 167424, Note_on_c, 1, 47, 110
3, 167804, Note_off_c, 1, 47, 100
3, 167808, Note_on_c, 1, 54, 80
3, 167808, Note_on_c, 1, 47, 80
3, 168188, Note_off_c, 1, 54, 100
3, 168188, Note_off_c, 1, 47, 100
3, 168192, Note_on_c, 1, 54, 80
3, 168192, Note_on_c, 1, 49, 80
3, 168572, Note_off_c, 1, 54, 100
3, 168572, Note_off_c, 1, 49, 100
3, 168576, Note_on_c, 1, 54, 80
3, 168576, Note_on_c, 1, 51, 80
3, 168956, Note_off_c, 1, 54, 100
3, 168956, Note_off_c, 1, 51, 100
3, 168960, Note_on_c, 1, 61, 80
3, 168960, Note_on_c, 1, 56, 80
3, 168960, Note_on_c, 1, 52, 80
3, 169724, Note_off_c, 1, 61, 100
3, 169724, Note_off_c, 1, 56, 100
3, 169724, Note_off_c, 1, 52, 100
3, 169728, Note_on_c, 1, 61, 80
3, 169728, Note_on_c, 1, 54, 80
3, 170108, Note_off_c, 1, 61, 100
3, 170108, Note_off_c, 1, 54, 100
3, 170112, Note_on_c, 1, 61, 80
3, 170112, Note_on_c, 1, 54, 80
3, 170492, Note_off_c, 1, 61, 100
3, 170492, Note_off_c, 1, 54, 100
3, 170880, Note_on_c, 1, 59, 86
3, 170880, Note_on_c, 1, 51, 86
3, 171260, Note_off_c, 1, 59, 100
3, 171260, Note_off_c, 1, 51, 100
3, 171264, Note_on_c, 1, 58, 93
3, 171264, Note_on_c, 1, 49, 93
3, 171644, Note_off_c, 1, 58, 100
3, 171644, Note_off_c, 1, 49, 100
3, 171648, Note_on_c, 1, 59, 99
3, 171648, Note_on_c, 1, 47, 99
3, 172028, Note_off_c, 1, 59, 100
3, 172028, Note_off_c, 1, 47, 100
3, 172032, Note_on_c, 1, 63, 110
3, 172032, Note_on_c, 1, 52, 110
3, 172604, Note_off_c, 1, 63, 100
3, 172608, Note_on_c, 1, 61, 110
3, 172796, Note_off_c, 1, 52, 100
3, 172796, Note_off_c, 1, 61, 100
3, 172800, Note_on_c, 1, 59, 110
3, 172800, Note_on_c, 1, 54, 110
3, 173180, Note_off_c, 1, 59, 100
3, 173180, Note_off_c, 1, 54, 100
3, 173184, Note_on_c, 1, 58, 110
3, 173184, Note_on_c, 1, 54, 110
3, 173564, Note_off_c, 1, 58, 100
3, 173564, Note_off_c, 1, 54, 100
3, 173952, Note_on_c, 1, 59, 120
3, 173952, Note_on_c, 1, 54, 120
3, 173952, Note_on_c, 1, 51, 120
3, 174332, Note_off_c, 1, 59, 100
3, 174332, Note_off_c, 1, 54, 100
3, 174332, Note_off_c, 1, 51, 100
3, 174336, Note_on_c, 1, 58, 120
3, 174336, Note_on_c, 1, 52, 120
3, 174336, Note_on_c, 1, 49, 120
3, 174716, Note_off_c, 1, 58, 100
3, 174716, Note_off_c, 1, 52, 100
3, 174716, Note_off_c, 1, 49, 100
3, 174720, Note_on_c, 1, 59, 120
3, 174720, Note_on_c, 1, 51, 120
3, 174720, Note_on_c, 1, 47, 120
3, 175100, Note_off_c, 1, 59, 100
3, 175100, Note_off_c, 1, 51, 100
3, 175100, Note_off_c, 1, 47, 100
3, 175104, Note_on_c, 1, 52, 120
3, 175104, Note_on_c, 1, 49, 120
3, 175104, Note_on_c, 1, 44, 120
3, 175104, Note_on_c, 1, 40, 120
3, 175484, Note_off_c, 1, 52, 100
3, 175484, Note_off_c, 1, 49, 100
3, 175484, Note_off_c, 1, 44, 100
3, 175484, Note_off_c, 1, 40, 100
3, 176640, Note_on_c, 1, 42, 80
3, 177020, Note_off_c, 1, 42, 100
3, 178176, Note_on_c, 1, 35, 70
3, 178940, Note_off_c, 1, 35, 100
3, 178944, Note_on_c, 1, 40, 70
3, 179708, Note_off_c, 1, 40, 100
3, 179712, Note_on_c, 1, 39, 70
3, 180476, Note_off_c, 1, 39, 100
3, 180480, Note_on_c, 1, 44, 70
3, 181244, Note_off_c, 1, 44, 100
3, 181248, Note_on_c, 1, 42, 70
3, 182012, Note_off_c, 1, 42, 100
3, 182016, Note_on_c, 1, 40, 70
3, 182780, Note_off_c, 1, 40, 100
3, 182784, Note_on_c, 1, 39, 70
3, 183548, Note_off_c, 1, 39, 100
3, 183552, Note_on_c, 1, 35, 70
3, 184316, Note_off_c, 1, 35, 100
3, 184320, Note_on_c, 1, 40, 80
3, 184508, Note_off_c, 1, 40, 100
3, 184512, Note_on_c, 1, 52, 80
3, 184512, Note_on_c, 1, 56, 80
3, 184512, Note_on_c, 1, 59, 80
3, 184700, Note_off_c, 1, 52, 100
3, 184700, Note_off_c, 1, 56, 100
3, 184700, Note_off_c, 1, 59, 100
3, 184704, Note_on_c, 1, 52, 81
3, 184704, Note_on_c, 1, 56, 81
3, 184704, Note_on_c, 1, 59, 81
3, 184892, Note_off_c, 1, 52, 100
3, 184892, Note_off_c, 1, 56, 100
3, 184892, Note_off_c, 1, 59, 100
3, 184896, Note_on_c, 1, 52, 82
3, 184896, Note_on_c, 1, 56, 82
3, 184896, Note_on_c, 1, 59, 82
3, 185084, Note_off_c, 1, 52, 100
3, 185084, Note_off_c, 1, 56, 100
3, 185084, Note_off_c, 1, 59, 100
3, 185280, Note_on_c, 1, 52, 84
3, 185280, Note_on_c, 1, 56, 84
3, 185280, Note_on_c, 1, 59, 84
3, 185468, Note_off_c, 1, 52, 100
3, 185468, Note_off_c, 1, 56, 100
3, 185468, Note_off_c, 1, 59, 100
3, 185472, Note_on_c, 1, 52, 85
3, 185472, Note_on_c, 1, 56, 85
3, 185472, Note_on_c, 1, 59, 85
3, 185660, Note_off_c, 1, 52, 100
3, 185660, Note_off_c, 1, 56, 100
3, 185660, Note_off_c, 1, 59, 100
3, 185664, Note_on_c, 1, 52, 86
3, 185664, Note_on_c, 1, 56, 86
3, 185664, Note_on_c, 1, 59, 86
3, 185852, Note_off_c, 1, 52, 100
3, 185852, Note_off_c, 1, 56, 100
3, 185852, Note_off_c, 1, 59, 100
3, 186048, Note_on_c, 1, 52, 88
3, 186048, Note_on_c, 1, 57, 88
3, 186048, Note_on_c, 1, 60, 88
3, 186236, Note_off_c, 1, 52, 100
3, 186236, Note_off_c, 1, 57, 100
3, 186236, Note_off_c, 1, 60, 100
3, 186240, Note_on_c, 1, 52, 89
3, 186240, Note_on_c, 1, 57, 89
3, 186240, Note_on_c, 1, 60, 89
3, 186428, Note_off_c, 1, 52, 100
3, 186428, Note_off_c, 1, 57, 100
3, 186428, Note_off_c, 1, 60, 100
3, 186432, Note_on_c, 1, 52, 90
3, 186432, Note_on_c, 1, 57, 90
3, 186432, Note_on_c, 1, 60, 90
3, 186620, Note_off_c, 1, 52, 100
3, 186620, Note_off_c, 1, 57, 100
3, 186620, Note_off_c, 1, 60, 100
3, 186816, Note_on_c, 1, 52, 92
3, 186816, Note_on_c, 1, 57, 92
3, 186816, Note_on_c, 1, 60, 92
3, 187004, Note_off_c, 1, 52, 100
3, 187004, Note_off_c, 1, 57, 100
3, 187004, Note_off_c, 1, 60, 100
3, 187008, Note_on_c, 1, 52, 93
3, 187008, Note_on_c, 1, 57, 93
3, 187008, Note_on_c, 1, 60, 93
3, 187196, Note_off_c, 1, 52, 100
3, 187196, Note_off_c, 1, 57, 100
3, 187196, Note_off_c, 1, 60, 100
3, 187200, Note_on_c, 1, 52, 94
3, 187200, Note_on_c, 1, 57, 94
3, 187200, Note_on_c, 1, 60, 94
3, 187388, Note_off_c, 1, 52, 100
3, 187388, Note_off_c, 1, 57, 100
3, 187388, Note_off_c, 1, 60, 100
3, 187584, Note_on_c, 1, 50, 96
3, 187584, Note_on_c, 1, 53, 96
3, 187584, Note_on_c, 1, 57, 96
3, 187584, Note_on_c, 1, 59, 96
3, 187772, Note_off_c, 1, 50, 100
3, 187772, Note_off_c, 1, 53, 100
3, 187772, Note_off_c, 1, 57, 100
3, 187772, Note_off_c, 1, 59, 100
3, 187776, Note_on_c, 1, 50, 97
3, 187776, Note_on_c, 1, 53, 97
3, 187776, Note_on_c, 1, 57, 97
3, 187776, Note_on_c, 1, 59, 97
3, 187964, Note_off_c, 1, 50, 100
3, 187964, Note_off_c, 1, 53, 100
3, 187964, Note_off_c, 1, 57, 100
3, 187964, Note_off_c, 1, 59, 100
3, 187968, Note_on_c, 1, 50, 98
3, 187968, Note_on_c, 1, 53, 98
3, 187968, Note_on_c, 1, 57, 98
3, 187968, Note_on_c, 1, 59, 98
3, 188156, Note_off_c, 1, 50, 100
3, 188156, Note_off_c, 1, 53, 100
3, 188156, Note_off_c, 1, 57, 100
3, 188156, Note_off_c, 1, 59, 100
3, 188352, Note_on_c, 1, 53, 100
3, 188352, Note_on_c, 1, 57, 100
3, 188352, Note_on_c, 1, 59, 100
3, 188352, Note_on_c, 1, 50, 100
3, 188540, Note_off_c, 1, 53, 100
3, 188540, Note_off_c, 1, 57, 100
3, 188540, Note_off_c, 1, 59, 100
3, 188540, Note_off_c, 1, 50, 100
3, 188544, Note_on_c, 1, 53, 101
3, 188544, Note_on_c, 1, 57, 101
3, 188544, Note_on_c, 1, 59, 101
3, 188544, Note_on_c, 1, 50, 101
3, 188732, Note_off_c, 1, 53, 100
3, 188732, Note_off_c, 1, 57, 100
3, 188732, Note_off_c, 1, 59, 100
3, 188732, Note_off_c, 1, 50, 100
3, 188736, Note_on_c, 1, 53, 102
3, 188736, Note_on_c, 1, 57, 102
3, 188736, Note_on_c, 1, 59, 102
3, 188736, Note_on_c, 1, 50, 102
3, 188924, Note_off_c, 1, 53, 100
3, 188924, Note_off_c, 1, 57, 100
3, 188924, Note_off_c, 1, 59, 100
3, 188924, Note_off_c, 1, 50, 100
3, 189120, Note_on_c, 1, 50, 104
3, 189120, Note_on_c, 1, 53, 104
3, 189120, Note_on_c, 1, 56, 104
3, 189120, Note_on_c, 1, 59, 104
3, 189308, Note_off_c, 1, 50, 100
3, 189308, Note_off_c, 1, 53, 100
3, 189308, Note_off_c, 1, 56, 100
3, 189308, Note_off_c, 1, 59, 100
3, 189312, Note_on_c, 1, 50, 105
3, 189312, Note_on_c, 1, 53, 105
3, 189312, Note_on_c, 1, 56, 105
3, 189312, Note_on_c, 1, 59, 105
3, 189500, Note_off_c, 1, 50, 100
3, 189500, Note_off_c, 1, 53, 100
3, 189500, Note_off_c, 1, 56, 100
3, 189500, Note_off_c, 1, 59, 100
3, 189504, Note_on_c, 1, 50, 106
3, 189504, Note_on_c, 1, 53, 106
3, 189504, Note_on_c, 1, 56, 106
3, 189504, Note_on_c, 1, 59, 106
3, 189692, Note_off_c, 1, 50, 100
3, 189692, Note_off_c, 1, 53, 100
3, 189692, Note_off_c, 1, 56, 100
3, 189692, Note_off_c, 1, 59, 100
3, 189888, Note_on_c, 1, 50, 108
3, 189888, Note_on_c, 1, 53, 108
3, 189888, Note_on_c, 1, 56, 108
3, 189888, Note_on_c, 1, 59, 108
3, 190076, Note_off_c, 1, 50, 100
3, 190076, Note_off_c, 1, 53, 100
3, 190076, Note_off_c, 1, 56, 100
3, 190076, Note_off_c, 1, 59, 100
3, 190080, Note_on_c, 1, 50, 109
3, 190080, Note_on_c, 1, 53, 109
3, 190080, Note_on_c, 1, 56, 109
3, 190080, Note_on_c, 1, 59, 109
3, 190268, Note_off_c, 1, 50, 100
3, 190268, Note_off_c, 1, 53, 100
3, 190268, Note_off_c, 1, 56, 100
3, 190268, Note_off_c, 1, 59, 100
3, 190272, Note_on_c, 1, 50, 109
3, 190272, Note_on_c, 1, 53, 109
3, 190272, Note_on_c, 1, 56, 109
3, 190272, Note_on_c, 1, 59, 109
3, 190460, Note_off_c, 1, 50, 100
3, 190460, Note_off_c, 1, 53, 100
3, 190460, Note_off_c, 1, 56, 100
3, 190460, Note_off_c, 1, 59, 100
3, 190464, Note_on_c, 1, 48, 80
3, 190556, Note_off_c, 1, 48, 100
3, 190560, Note_on_c, 1, 52, 80
3, 190652, Note_off_c, 1, 52, 100
3, 190656, Note_on_c, 1, 57, 80
3, 190748, Note_off_c, 1, 57, 100
3, 190752, Note_on_c, 1, 60, 80
3, 190844, Note_off_c, 1, 60, 100
3, 190848, Note_on_c, 1, 48, 80
3, 190940, Note_off_c, 1, 48, 100
3, 190944, Note_on_c, 1, 52, 80
3, 191036, Note_off_c, 1, 52, 100
3, 191040, Note_on_c, 1, 57, 80
3, 191132, Note_off_c, 1, 57, 100
3, 191136, Note_on_c, 1, 60, 80
3, 191228, Note_off_c, 1, 60, 100
3, 191232, Note_on_c, 1, 48, 80
3, 191324, Note_off_c, 1, 48, 100
3, 191328, Note_on_c, 1, 52, 80
3, 191420, Note_off_c, 1, 52, 100
3, 191424, Note_on_c, 1, 57, 80
3, 191516, Note_off_c, 1, 57, 100
3, 191520, Note_on_c, 1, 60, 80
3, 191612, Note_off_c, 1, 60, 100
3, 191616, Note_on_c, 1, 48, 80
3, 191708, Note_off_c, 1, 48, 100
3, 191712, Note_on_c, 1, 52, 80
3, 191804, Note_off_c, 1, 52, 100
3, 191808, Note_on_c, 1, 57, 80
3, 191900, Note_off_c, 1, 57, 100
3, 191904, Note_on_c, 1, 60, 80
3, 191996, Note_off_c, 1, 60, 100
3, 192000, Note_on_c, 1, 48, 80
3, 192092, Note_off_c, 1, 48, 100
3, 192096, Note_on_c, 1, 52, 80
3, 192188, Note_off_c, 1, 52, 100
3, 192192, Note_on_c, 1, 57, 80
3, 192284, Note_off_c, 1, 57, 100
3, 192288, Note_on_c, 1, 60, 80
3, 192380, Note_off_c, 1, 60, 100
3, 192384, Note_on_c, 1, 48, 80
3, 192476, Note_off_c, 1, 48, 100
3, 192480, Note_on_c, 1, 52, 80
3, 192572, Note_off_c, 1, 52, 100
3, 192576, Note_on_c, 1, 57, 80
3, 192668, Note_off_c, 1, 57, 100
3, 192672, Note_on_c, 1, 60, 80
3, 192764, Note_off_c, 1, 60, 100
3, 192768, Note_on_c, 1, 48, 80
3, 192860, Note_off_c, 1, 48, 100
3, 192864, Note_on_c, 1, 52, 80
3, 192956, Note_off_c, 1, 52, 100
3, 192960, Note_on_c, 1, 57, 80
3, 193052, Note_off_c, 1, 57, 100
3, 193056, Note_on_c, 1, 60, 80
3, 193148, Note_off_c, 1, 60, 100
3, 193152, Note_on_c, 1, 48, 80
3, 193244, Note_off_c, 1, 48, 100
3, 193248, Note_on_c, 1, 52, 80
3, 193340, Note_off_c, 1, 52, 100
3, 193344, Note_on_c, 1, 57, 80
3, 193436, Note_off_c, 1, 57, 100
3, 193440, Note_on_c, 1, 60, 80
3, 193532, Note_off_c, 1, 60, 100
3, 193536, Note_on_c, 1, 50, 80
3, 193628, Note_off_c, 1, 50, 100
3, 193632, Note_on_c, 1, 53, 80
3, 193724, Note_off_c, 1, 53, 100
3, 193728, Note_on_c, 1, 57, 80
3, 193820, Note_off_c, 1, 57, 100
3, 193824, Note_on_c, 1, 60, 80
3, 193916, Note_off_c, 1, 60, 100
3, 193920, Note_on_c, 1, 50, 80
3, 194012, Note_off_c, 1, 50, 100
3, 194016, Note_on_c, 1, 53, 80
3, 194108, Note_off_c, 1, 53, 100
3, 194112, Note_on_c, 1, 57, 80
3, 194204, Note_off_c, 1, 57, 100
3, 194208, Note_on_c, 1, 60, 80
3, 194300, Note_off_c, 1, 60, 100
3, 194304, Note_on_c, 1, 50, 80
3, 194396, Note_off_c, 1, 50, 100
3, 194400, Note_on_c, 1, 53, 80
3, 194492, Note_off_c, 1, 53, 100
3, 194496, Note_on_c, 1, 57, 80
3, 194588, Note_off_c, 1, 57, 100
3, 194592, Note_on_c, 1, 60, 80
3, 194684, Note_off_c, 1, 60, 100
3, 194688, Note_on_c, 1, 50, 80
3, 194780, Note_off_c, 1, 50, 100
3, 194784, Note_on_c, 1, 53, 80
3, 194876, Note_off_c, 1, 53, 100
3, 194880, Note_on_c, 1, 57, 80
3, 194972, Note_off_c, 1, 57, 100
3, 194976, Note_on_c, 1, 60, 80
3, 195068, Note_off_c, 1, 60, 100
3, 195072, Note_on_c, 1, 50, 80
3, 195164, Note_off_c, 1, 50, 100
3, 195168, Note_on_c, 1, 53, 80
3, 195260, Note_off_c, 1, 53, 100
3, 195264, Note_on_c, 1, 57, 80
3, 195356, Note_off_c, 1, 57, 100
3, 195360, Note_on_c, 1, 60, 80
3, 195452, Note_off_c, 1, 60, 100
3, 195456, Note_on_c, 1, 50, 80
3, 195548, Note_off_c, 1, 50, 100
3, 195552, Note_on_c, 1, 53, 80
3, 195644, Note_off_c, 1, 53, 100
3, 195648, Note_on_c, 1, 57, 80
3, 195740, Note_off_c, 1, 57, 100
3, 195744, Note_on_c, 1, 60, 80
3, 195836, Note_off_c, 1, 60, 100
3, 195840, Note_on_c, 1, 50, 80
3, 195932, Note_off_c, 1, 50, 100
3, 195936, Note_on_c, 1, 53, 80
3, 196028, Note_off_c, 1, 53, 100
3, 196032, Note_on_c, 1, 57, 80
3, 196124, Note_off_c, 1, 57, 100
3, 196128, Note_on_c, 1, 60, 80
3, 196220, Note_off_c, 1, 60, 100
3, 196224, Note_on_c, 1, 50, 80
3, 196316, Note_off_c, 1, 50, 100
3, 196320, Note_on_c, 1, 53, 80
3, 196412, Note_off_c, 1, 53, 100
3, 196416, Note_on_c, 1, 57, 80
3, 196508, Note_off_c, 1, 57, 100
3, 196512, Note_on_c, 1, 60, 80
3, 196604, Note_off_c, 1, 60, 100
3, 196608, Note_on_c, 1, 52, 80
3, 196700, Note_off_c, 1, 52, 100
3, 196704, Note_on_c, 1, 57, 80
3, 196796, Note_off_c, 1, 57, 100
3, 196800, Note_on_c, 1, 60, 81
3, 196892, Note_off_c, 1, 60, 100
3, 196896, Note_on_c, 1, 64, 81
3, 196988, Note_off_c, 1, 64, 100
3, 196992, Note_on_c, 1, 52, 82
3, 197084, Note_off_c, 1, 52, 100
3, 197088, Note_on_c, 1, 57, 83
3, 197180, Note_off_c, 1, 57, 100
3, 197184, Note_on_c, 1, 60, 83
3, 197276, Note_off_c, 1, 60, 100
3, 197280, Note_on_c, 1, 64, 84
3, 197372, Note_off_c, 1, 64, 100
3, 197376, Note_on_c, 1, 52, 85
3, 197468, Note_off_c, 1, 52, 100
3, 197472, Note_on_c, 1, 57, 85
3, 197564, Note_off_c, 1, 57, 100
3, 197568, Note_on_c, 1, 60, 86
3, 197660, Note_off_c, 1, 60, 100
3, 197664, Note_on_c, 1, 64, 87
3, 197756, Note_off_c, 1, 64, 100
3, 197760, Note_on_c, 1, 52, 87
3, 197852, Note_off_c, 1, 52, 100
3, 197856, Note_on_c, 1, 57, 88
3, 197948, Note_off_c, 1, 57, 100
3, 197952, Note_on_c, 1, 60, 89
3, 198044, Note_off_c, 1, 60, 100
3, 198048, Note_on_c, 1, 64, 89
3, 198140, Note_off_c, 1, 64, 100
3, 198144, Note_on_c, 1, 52, 90
3, 198236, Note_off_c, 1, 52, 100
3, 198240, Note_on_c, 1, 57, 90
3, 198332, Note_off_c, 1, 57, 100
3, 198336, Note_on_c, 1, 60, 91
3, 198428, Note_off_c, 1, 60, 100
3, 198432, Note_on_c, 1, 64, 92
3, 198524, Note_off_c, 1, 64, 100
3, 198528, Note_on_c, 1, 52, 92
3, 198620, Note_off_c, 1, 52, 100
3, 198624, Note_on_c, 1, 57, 93
3, 198716, Note_off_c, 1, 57, 100
3, 198720, Note_on_c, 1, 60, 94
3, 198812, Note_off_c, 1, 60, 100
3, 198816, Note_on_c, 1, 64, 94
3, 198908, Note_off_c, 1, 64, 100
3, 198912, Note_on_c, 1, 52, 95
3, 199004, Note_off_c, 1, 52, 100
3, 199008, Note_on_c, 1, 57, 96
3, 199100, Note_off_c, 1, 57, 100
3, 199104, Note_on_c, 1, 60, 96
3, 199196, Note_off_c, 1, 60, 100
3, 199200, Note_on_c, 1, 64, 97
3, 199292, Note_off_c, 1, 64, 100
3, 199296, Note_on_c, 1, 52, 98
3, 199388, Note_off_c, 1, 52, 100
3, 199392, Note_on_c, 1, 57, 98
3, 199484, Note_off_c, 1, 57, 100
3, 199488, Note_on_c, 1, 60, 99
3, 199580, Note_off_c, 1, 60, 100
3, 199584, Note_on_c, 1, 64, 99
3, 199676, Note_off_c, 1, 64, 100
3, 199680, Note_on_c, 1, 53, 80
3, 199772, Note_off_c, 1, 53, 100
3, 199776, Note_on_c, 1, 57, 80
3, 199868, Note_off_c, 1, 57, 100
3, 199872, Note_on_c, 1, 60, 81
3, 199964, Note_off_c, 1, 60, 100
3, 199968, Note_on_c, 1, 62, 81
3, 200060, Note_off_c, 1, 62, 100
3, 200064, Note_on_c, 1, 53, 82
3, 200156, Note_off_c, 1, 53, 100
3, 200160, Note_on_c, 1, 57, 83
3, 200252, Note_off_c, 1, 57, 100
3, 200256, Note_on_c, 1, 60, 83
3, 200348, Note_off_c, 1, 60, 100
3, 200352, Note_on_c, 1, 62, 84
3, 200444, Note_off_c, 1, 62, 100
3, 200448, Note_on_c, 1, 53, 85
3, 200540, Note_off_c, 1, 53, 100
3, 200544, Note_on_c, 1, 57, 85
3, 200636, Note_off_c, 1, 57, 100
3, 200640, Note_on_c, 1, 60, 86
3, 200732, Note_off_c, 1, 60, 100
3, 200736, Note_on_c, 1, 62, 87
3, 200828, Note_off_c, 1, 62, 100
3, 200832, Note_on_c, 1, 53, 87
3, 200924, Note_off_c, 1, 53, 100
3, 200928, Note_on_c, 1, 57, 88
3, 201020, Note_off_c, 1, 57, 100
3, 201024, Note_on_c, 1, 60, 89
3, 201116, Note_off_c, 1, 60, 100
3, 201120, Note_on_c, 1, 62, 89
3, 201212, Note_off_c, 1, 62, 100
3, 201216, Note_on_c, 1, 54, 90
3, 201308, Note_off_c, 1, 54, 100
3, 201312, Note_on_c, 1, 57, 90
3, 201404, Note_off_c, 1, 57, 100
3, 201408, Note_on_c, 1, 60, 91
3, 201500, Note_off_c, 1, 60, 100
3, 201504, Note_on_c, 1, 62, 92
3, 201596, Note_off_c, 1, 62, 100
3, 201600, Note_on_c, 1, 54, 92
3, 201692, Note_off_c, 1, 54, 100
3, 201696, Note_on_c, 1, 57, 93
3, 201788, Note_off_c, 1, 57, 100
3, 201792, Note_on_c, 1, 60, 94
3, 201884, Note_off_c, 1, 60, 100
3, 201888, Note_on_c, 1, 62, 94
3, 201980, Note_off_c, 1, 62, 100
3, 201984, Note_on_c, 1, 54, 95
3, 202076, Note_off_c, 1, 54, 100
3, 202080, Note_on_c, 1, 57, 96
3, 202172, Note_off_c, 1, 57, 100
3, 202176, Note_on_c, 1, 60, 96
3, 202268, Note_off_c, 1, 60, 100
3, 202272, Note_on_c, 1, 62, 97
3, 202364, Note_off_c, 1, 62, 100
3, 202368, Note_on_c, 1, 54, 98
3, 202460, Note_off_c, 1, 54, 100
3, 202464, Note_on_c, 1, 57, 98
3, 202556, Note_off_c, 1, 57, 100
3, 202560, Note_on_c, 1, 60, 99
3, 202652, Note_off_c, 1, 60, 100
3, 202656, Note_on_c, 1, 62, 99
3, 202748, Note_off_c, 1, 62, 100
3, 202752, Note_on_c, 1, 55, 100
3, 202844, Note_off_c, 1, 55, 100
3, 202848, Note_on_c, 1, 60, 100
3, 202940, Note_off_c, 1, 60, 100
3, 202944, Note_on_c, 1, 64, 100
3, 203036, Note_off_c, 1, 64, 100
3, 203040, Note_on_c, 1, 67, 100
3, 203132, Note_off_c, 1, 67, 100
3, 203136, Note_on_c, 1, 55, 99
3, 203228, Note_off_c, 1, 55, 100
3, 203232, Note_on_c, 1, 60, 99
3, 203324, Note_off_c, 1, 60, 100
3, 203328, Note_on_c, 1, 64, 99
3, 203420, Note_off_c, 1, 64, 100
3, 203424, Note_on_c, 1, 67, 98
3, 203516, Note_off_c, 1, 67, 100
3, 203520, Note_on_c, 1, 55, 98
3, 203612, Note_off_c, 1, 55, 100
3, 203616, Note_on_c, 1, 60, 98
3, 203708, Note_off_c, 1, 60, 100
3, 203712, Note_on_c, 1, 64, 97
3, 203804, Note_off_c, 1, 64, 100
3, 203808, Note_on_c, 1, 67, 97
3, 203900, Note_off_c, 1, 67, 100
3, 203904, Note_on_c, 1, 55, 97
3, 203996, Note_off_c, 1, 55, 100
3, 204000, Note_on_c, 1, 60, 96
3, 204092, Note_off_c, 1, 60, 100
3, 204096, Note_on_c, 1, 64, 96
3, 204188, Note_off_c, 1, 64, 100
3, 204192, Note_on_c, 1, 67, 96
3, 204284, Note_off_c, 1, 67, 100
3, 204288, Note_on_c, 1, 43, 95
3, 204380, Note_off_c, 1, 43, 100
3, 204384, Note_on_c, 1, 50, 95
3, 204476, Note_off_c, 1, 50, 100
3, 204480, Note_on_c, 1, 53, 95
3, 204572, Note_off_c, 1, 53, 100
3, 204576, Note_on_c, 1, 55, 94
3, 204668, Note_off_c, 1, 55, 100
3, 204672, Note_on_c, 1, 43, 94
3, 204764, Note_off_c, 1, 43, 100
3, 204768, Note_on_c, 1, 50, 94
3, 204860, Note_off_c, 1, 50, 100
3, 204864, Note_on_c, 1, 53, 93
3, 204956, Note_off_c, 1, 53, 100
3, 204960, Note_on_c, 1, 55, 93
3, 205052, Note_off_c, 1, 55, 100
3, 205056, Note_on_c, 1, 43, 93
3, 205148, Note_off_c, 1, 43, 100
3, 205152, Note_on_c, 1, 50, 92
3, 205244, Note_off_c, 1, 50, 100
3, 205248, Note_on_c, 1, 53, 92
3, 205340, Note_off_c, 1, 53, 100
3, 205344, Note_on_c, 1, 55, 92
3, 205436, Note_off_c, 1, 55, 100
3, 205440, Note_on_c, 1, 43, 91
3, 205532, Note_off_c, 1, 43, 100
3, 205536, Note_on_c, 1, 50, 91
3, 205628, Note_off_c, 1, 50, 100
3, 205632, Note_on_c, 1, 53, 91
3, 205724, Note_off_c, 1, 53, 100
3, 205728, Note_on_c, 1, 55, 91
3, 205820, Note_off_c, 1, 55, 100
3, 205824, Note_on_c, 1, 48, 80
3, 205916, Note_off_c, 1, 48, 100
3, 205920, Note_on_c, 1, 52, 80
3, 206012, Note_off_c, 1, 52, 100
3, 206016, Note_on_c, 1, 55, 80
3, 206108, Note_off_c, 1, 55, 100
3, 206112, Note_on_c, 1, 60, 80
3, 206204, Note_off_c, 1, 60, 100
3, 206208, Note_on_c, 1, 48, 80
3, 206300, Note_off_c, 1, 48, 100
3, 206304, Note_on_c, 1, 52, 80
3, 206396, Note_off_c, 1, 52, 100
3, 206400, Note_on_c, 1, 55, 80
3, 206492, Note_off_c, 1, 55, 100
3, 206496, Note_on_c, 1, 60, 80
3, 206588, Note_off_c, 1, 60, 100
3, 206592, Note_on_c, 1, 48, 80
3, 206684, Note_off_c, 1, 48, 100
3, 206688, Note_on_c, 1, 52, 80
3, 206780, Note_off_c, 1, 52, 100
3, 206784, Note_on_c, 1, 55, 80
3, 206876, Note_off_c, 1, 55, 100
3, 206880, Note_on_c, 1, 60, 80
3, 206972, Note_off_c, 1, 60, 100
3, 206976, Note_on_c, 1, 48, 80
3, 207068, Note_off_c, 1, 48, 100
3, 207072, Note_on_c, 1, 52, 80
3, 207164, Note_off_c, 1, 52, 100
3, 207168, Note_on_c, 1, 55, 80
3, 207260, Note_off_c, 1, 55, 100
3, 207264, Note_on_c, 1, 60, 80
3, 207356, Note_off_c, 1, 60, 100
3, 207360, Note_on_c, 1, 48, 80
3, 207452, Note_off_c, 1, 48, 100
3, 207456, Note_on_c, 1, 52, 80
3, 207548, Note_off_c, 1, 52, 100
3, 207552, Note_on_c, 1, 55, 80
3, 207644, Note_off_c, 1, 55, 100
3, 207648, Note_on_c, 1, 60, 80
3, 207740, Note_off_c, 1, 60, 100
3, 207744, Note_on_c, 1, 48, 80
3, 207836, Note_off_c, 1, 48, 100
3, 207840, Note_on_c, 1, 52, 80
3, 207932, Note_off_c, 1, 52, 100
3, 207936, Note_on_c, 1, 55, 80
3, 208028, Note_off_c, 1, 55, 100
3, 208032, Note_on_c, 1, 60, 80
3, 208124, Note_off_c, 1, 60, 100
3, 208128, Note_on_c, 1, 48, 80
3, 208220, Note_off_c, 1, 48, 100
3, 208224, Note_on_c, 1, 52, 80
3, 208316, Note_off_c, 1, 52, 100
3, 208320, Note_on_c, 1, 55, 80
3, 208412, Note_off_c, 1, 55, 100
3, 208416, Note_on_c, 1, 60, 80
3, 208508, Note_off_c, 1, 60, 100
3, 208512, Note_on_c, 1, 48, 80
3, 208604, Note_off_c, 1, 48, 100
3, 208608, Note_on_c, 1, 52, 80
3, 208700, Note_off_c, 1, 52, 100
3, 208704, Note_on_c, 1, 55, 80
3, 208796, Note_off_c, 1, 55, 100
3, 208800, Note_on_c, 1, 60, 80
3, 208892, Note_off_c, 1, 60, 100
3, 208896, Note_on_c, 1, 47, 80
3, 208988, Note_off_c, 1, 47, 100
3, 208992, Note_on_c, 1, 52, 80
3, 209084, Note_off_c, 1, 52, 100
3, 209088, Note_on_c, 1, 55, 80
3, 209180, Note_off_c, 1, 55, 100
3, 209184, Note_on_c, 1, 59, 80
3, 209276, Note_off_c, 1, 59, 100
3, 209280, Note_on_c, 1, 47, 80
3, 209372, Note_off_c, 1, 47, 100
3, 209376, Note_on_c, 1, 52, 80
3, 209468, Note_off_c, 1, 52, 100
3, 209472, Note_on_c, 1, 55, 80
3, 209564, Note_off_c, 1, 55, 100
3, 209568, Note_on_c, 1, 59, 80
3, 209660, Note_off_c, 1, 59, 100
3, 209664, Note_on_c, 1, 47, 80
3, 209756, Note_off_c, 1, 47, 100
3, 209760, Note_on_c, 1, 52, 80
3, 209852, Note_off_c, 1, 52, 100
3, 209856, Note_on_c, 1, 55, 80
3, 209948, Note_off_c, 1, 55, 100
3, 209952, Note_on_c, 1, 59, 80
3, 210044, Note_off_c, 1, 59, 100
3, 210048, Note_on_c, 1, 47, 80
3, 210140, Note_off_c, 1, 47, 100
3, 210144, Note_on_c, 1, 52, 80
3, 210236, Note_off_c, 1, 52, 100
3, 210240, Note_on_c, 1, 55, 80
3, 210332, Note_off_c, 1, 55, 100
3, 210336, Note_on_c, 1, 59, 80
3, 210428, Note_off_c, 1, 59, 100
3, 210432, Note_on_c, 1, 47, 80
3, 210524, Note_off_c, 1, 47, 100
3, 210528, Note_on_c, 1, 52, 80
3, 210620, Note_off_c, 1, 52, 100
3, 210624, Note_on_c, 1, 55, 80
3, 210716, Note_off_c, 1, 55, 100
3, 210720, Note_on_c, 1, 59, 80
3, 210812, Note_off_c, 1, 59, 100
3, 210816, Note_on_c, 1, 47, 80
3, 210908, Note_off_c, 1, 47, 100
3, 210912, Note_on_c, 1, 52, 80
3, 211004, Note_off_c, 1, 52, 100
3, 211008, Note_on_c, 1, 55, 80
3, 211100, Note_off_c, 1, 55, 100
3, 211104, Note_on_c, 1, 59, 80
3, 211196, Note_off_c, 1, 59, 100
3, 211200, Note_on_c, 1, 47, 80
3, 211292, Note_off_c, 1, 47, 100
3, 211296, Note_on_c, 1, 52, 80
3, 211388, Note_off_c, 1, 52, 100
3, 211392, Note_on_c, 1, 55, 80
3, 211484, Note_off_c, 1, 55, 100
3, 211488, Note_on_c, 1, 59, 80
3, 211580, Note_off_c, 1, 59, 100
3, 211584, Note_on_c, 1, 47, 80
3, 211676, Note_off_c, 1, 47, 100
3, 211680, Note_on_c, 1, 52, 80
3, 211772, Note_off_c, 1, 52, 100
3, 211776, Note_on_c, 1, 55, 80
3, 211868, Note_off_c, 1, 55, 100
3, 211872, Note_on_c, 1, 59, 80
3, 211964, Note_off_c, 1, 59, 100
3, 211968, Note_on_c, 1, 46, 80
3, 212060, Note_off_c, 1, 46, 100
3, 212064, Note_on_c, 1, 52, 80
3, 212156, Note_off_c, 1, 52, 100
3, 212160, Note_on_c, 1, 55, 80
3, 212252, Note_off_c, 1, 55, 100
3, 212256, Note_on_c, 1, 61, 80
3, 212348, Note_off_c, 1, 61, 100
3, 212352, Note_on_c, 1, 46, 80
3, 212444, Note_off_c, 1, 46, 100
3, 212448, Note_on_c, 1, 52, 80
3, 212540, Note_off_c, 1, 52, 100
3, 212544, Note_on_c, 1, 55, 80
3, 212636, Note_off_c, 1, 55, 100
3, 212640, Note_on_c, 1, 61, 80
3, 212732, Note_off_c, 1, 61, 100
3, 212736, Note_on_c, 1, 46, 80
3, 212828, Note_off_c, 1, 46, 100
3, 212832, Note_on_c, 1, 52, 80
3, 212924, Note_off_c, 1, 52, 100
3, 212928, Note_on_c, 1, 55, 80
3, 213020, Note_off_c, 1, 55, 100
3, 213024, Note_on_c, 1, 61, 80
3, 213116, Note_off_c, 1, 61, 100
3, 213120, Note_on_c, 1, 46, 110
3, 213212, Note_off_c, 1, 46, 100
3, 213216, Note_on_c, 1, 52, 110
3, 213308, Note_off_c, 1, 52, 100
3, 213312, Note_on_c, 1, 55, 110
3, 213404, Note_off_c, 1, 55, 100
3, 213408, Note_on_c, 1, 61, 110
3, 213500, Note_off_c, 1, 61, 100
3, 213504, Note_on_c, 1, 46, 110
3, 213596, Note_off_c, 1, 46, 100
3, 213600, Note_on_c, 1, 52, 110
3, 213692, Note_off_c, 1, 52, 100
3, 213696, Note_on_c, 1, 55, 110
3, 213788, Note_off_c, 1, 55, 100
3, 213792, Note_on_c, 1, 61, 110
3, 213884, Note_off_c, 1, 61, 100
3, 213888, Note_on_c, 1, 46, 110
3, 213980, Note_off_c, 1, 46, 100
3, 213984, Note_on_c, 1, 52, 110
3, 214076, Note_off_c, 1, 52, 100
3, 214080, Note_on_c, 1, 55, 110
3, 214172, Note_off_c, 1, 55, 100
3, 214176, Note_on_c, 1, 61, 110
3, 214268, Note_off_c, 1, 61, 100
3, 214272, Note_on_c, 1, 46, 110
3, 214364, Note_off_c, 1, 46, 100
3, 214368, Note_on_c, 1, 52, 80
3, 214460, Note_off_c, 1, 52, 100
3, 214464, Note_on_c, 1, 55, 80
3, 214556, Note_off_c, 1, 55, 100
3, 214560, Note_on_c, 1, 61, 80
3, 214652, Note_off_c, 1, 61, 100
3, 214656, Note_on_c, 1, 46, 80
3, 214748, Note_off_c, 1, 46, 100
3, 214752, Note_on_c, 1, 52, 80
3, 214844, Note_off_c, 1, 52, 100
3, 214848, Note_on_c, 1, 55, 80
3, 214940, Note_off_c, 1, 55, 100
3, 214944, Note_on_c, 1, 61, 80
3, 215036, Note_off_c, 1, 61, 100
3, 215040, Note_on_c, 1, 47, 80
3, 215808, Note_on_c, 1, 52, 80
3, 216572, Note_off_c, 1, 52, 100
3, 216576, Note_on_c, 1, 51, 80
3, 217340, Note_off_c, 1, 51, 100
3, 217344, Note_on_c, 1, 55, 80
3, 218108, Note_off_c, 1, 47, 100
3, 218108, Note_off_c, 1, 55, 100
3, 218112, Note_on_c, 1, 54, 80
3, 218112, Note_on_c, 1, 47, 80
3, 218300, Note_off_c, 1, 54, 100
3, 218300, Note_off_c, 1, 47, 100
3, 218304, Note_on_c, 1, 59, 80
3, 218492, Note_off_c, 1, 59, 100
3, 218496, Note_on_c, 1, 59, 80
3, 218684, Note_off_c, 1, 59, 100
3, 218688, Note_on_c, 1, 59, 80
3, 218876, Note_off_c, 1, 59, 100
3, 219072, Note_on_c, 1, 59, 80
3, 219260, Note_off_c, 1, 59, 100
3, 219264, Note_on_c, 1, 59, 80
3, 219452, Note_off_c, 1, 59, 100
3, 219456, Note_on_c, 1, 59, 80
3, 219644, Note_off_c, 1, 59, 100
3, 219840, Note_on_c, 1, 59, 80
3, 220028, Note_off_c, 1, 59, 100
3, 220032, Note_on_c, 1, 59, 80
3, 220220, Note_off_c, 1, 59, 100
3, 220224, Note_on_c, 1, 59, 80
3, 220412, Note_off_c, 1, 59, 100
3, 220608, Note_on_c, 1, 59, 80
3, 220796, Note_off_c, 1, 59, 100
3, 220800, Note_on_c, 1, 59, 80
3, 220988, Note_off_c, 1, 59, 100
3, 220992, Note_on_c, 1, 59, 80
3, 221180, Note_off_c, 1, 59, 100
3, 221184, Note_on_c, 1, 47, 80
3, 221952, Note_on_c, 1, 52, 80
3, 222716, Note_off_c, 1, 52, 100
3, 222720, Note_on_c, 1, 51, 80
3, 223484, Note_off_c, 1, 51, 100
3, 223488, Note_on_c, 1, 55, 80
3, 224252, Note_off_c, 1, 47, 100
3, 224252, Note_off_c, 1, 55, 100
3, 224256, Note_on_c, 1, 54, 80
3, 224256, Note_on_c, 1, 47, 80
3, 224444, Note_off_c, 1, 54, 100
3, 224444, Note_off_c, 1, 47, 100
3, 224448, Note_on_c, 1, 59, 80
3, 224636, Note_off_c, 1, 59, 100
3, 224640, Note_on_c, 1, 59, 80
3, 224828, Note_off_c, 1, 59, 100
3, 224832, Note_on_c, 1, 59, 80
3, 225020, Note_off_c, 1, 59, 100
3, 225216, Note_on_c, 1, 59, 80
3, 225404, Note_off_c, 1, 59, 100
3, 225408, Note_on_c, 1, 59, 80
3, 225596, Note_off_c, 1, 59, 100
3, 225600, Note_on_c, 1, 59, 80
3, 225788, Note_off_c, 1, 59, 100
3, 225984, Note_on_c, 1, 59, 80
3, 226172, Note_off_c, 1, 59, 100
3, 226176, Note_on_c, 1, 59, 80
3, 226364, Note_off_c, 1, 59, 100
3, 226368, Note_on_c, 1, 59, 80
3, 226556, Note_off_c, 1, 59, 100
3, 226752, Note_on_c, 1, 59, 80
3, 226940, Note_off_c, 1, 59, 100
3, 226944, Note_on_c, 1, 59, 80
3, 227132, Note_off_c, 1, 59, 100
3, 227136, Note_on_c, 1, 59, 80
3, 227324, Note_off_c, 1, 59, 100
3, 227520, Note_on_c, 1, 47, 81
3, 227708, Note_off_c, 1, 47, 100
3, 227712, Note_on_c, 1, 47, 82
3, 227900, Note_off_c, 1, 47, 100
3, 227904, Note_on_c, 1, 47, 83
3, 228092, Note_off_c, 1, 47, 100
3, 228288, Note_on_c, 1, 47, 86
3, 228476, Note_off_c, 1, 47, 100
3, 228480, Note_on_c, 1, 47, 87
3, 228668, Note_off_c, 1, 47, 100
3, 228672, Note_on_c, 1, 47, 89
3, 228860, Note_off_c, 1, 47, 100
3, 229056, Note_on_c, 1, 47, 91
3, 229056, Note_on_c, 1, 35, 91
3, 229244, Note_off_c, 1, 47, 100
3, 229244, Note_off_c, 1, 35, 100
3, 229248, Note_on_c, 1, 47, 93
3, 229248, Note_on_c, 1, 35, 93
3, 229436, Note_off_c, 1, 47, 100
3, 229436, Note_off_c, 1, 35, 100
3, 229440, Note_on_c, 1, 47, 94
3, 229440, Note_on_c, 1, 35, 94
3, 229628, Note_off_c, 1, 47, 100
3, 229628, Note_off_c, 1, 35, 100
3, 229824, Note_on_c, 1, 47, 97
3, 229824, Note_on_c, 1, 35, 97
3, 230012, Note_off_c, 1, 47, 100
3, 230012, Note_off_c, 1, 35, 100
3, 230016, Note_on_c, 1, 47, 98
3, 230016, Note_on_c, 1, 35, 98
3, 230204, Note_off_c, 1, 47, 100
3, 230204, Note_off_c, 1, 35, 100
3, 230208, Note_on_c, 1, 47, 99
3, 230208, Note_on_c, 1, 35, 99
3, 230396, Note_off_c, 1, 47, 100
3, 230396, Note_off_c, 1, 35, 100
3, 230496, Note_on_c, 1, 40, 110
3, 230588, Note_off_c, 1, 40, 100
3, 230592, Note_on_c, 1, 42, 110
3, 230684, Note_off_c, 1, 42, 100
3, 230688, Note_on_c, 1, 44, 110
3, 230780, Note_off_c, 1, 44, 100
3, 230784, Note_on_c, 1, 45, 110
3, 230876, Note_off_c, 1, 45, 100
3, 230880, Note_on_c, 1, 47, 110
3, 230972, Note_off_c, 1, 47, 100
3, 230976, Note_on_c, 1, 49, 110
3, 231068, Note_off_c, 1, 49, 100
3, 231072, Note_on_c, 1, 51, 110
3, 231164, Note_off_c, 1, 51, 100
3, 231168, Note_on_c, 1, 52, 110
3, 231260, Note_off_c, 1, 52, 100
3, 231264, Note_on_c, 1, 54, 110
3, 231356, Note_off_c, 1, 54, 100
3, 231360, Note_on_c, 1, 56, 110
3, 231452, Note_off_c, 1, 56, 100
3, 231456, Note_on_c, 1, 57, 110
3, 231548, Note_off_c, 1, 57, 100
3, 231552, Note_on_c, 1, 59, 110
3, 231644, Note_off_c, 1, 59, 100
3, 231648, Note_on_c, 1, 61, 110
3, 231740, Note_off_c, 1, 61, 100
3, 231744, Note_on_c, 1, 63, 110
3, 231836, Note_off_c, 1, 63, 100
3, 231840, Note_on_c, 1, 64, 110
3, 231932, Note_off_c, 1, 64, 100
3, 232032, Note_on_c, 1, 40, 110
3, 232124, Note_off_c, 1, 40, 100
3, 232128, Note_on_c, 1, 42, 110
3, 232220, Note_off_c, 1, 42, 100
3, 232224, Note_on_c, 1, 44, 110
3, 232316, Note_off_c, 1, 44, 100
3, 232320, Note_on_c, 1, 45, 110
3, 232412, Note_off_c, 1, 45, 100
3, 232416, Note_on_c, 1, 47, 110
3, 232508, Note_off_c, 1, 47, 100
3, 232512, Note_on_c, 1, 49, 110
3, 232604, Note_off_c, 1, 49, 100
3, 232608, Note_on_c, 1, 51, 110
3, 232700, Note_off_c, 1, 51, 100
3, 232704, Note_on_c, 1, 52, 110
3, 232796, Note_off_c, 1, 52, 100
3, 232800, Note_on_c, 1, 54, 110
3, 232892, Note_off_c, 1, 54, 100
3, 232896, Note_on_c, 1, 56, 110
3, 232988, Note_off_c, 1, 56, 100
3, 232992, Note_on_c, 1, 57, 110
3, 233084, Note_off_c, 1, 57, 100
3, 233088, Note_on_c, 1, 59, 110
3, 233180, Note_off_c, 1, 59, 100
3, 233184, Note_on_c, 1, 61, 110
3, 233276, Note_off_c, 1, 61, 100
3, 233280, Note_on_c, 1, 63, 110
3, 233372, Note_off_c, 1, 63, 100
3, 233376, Note_on_c, 1, 64, 110
3, 233468, Note_off_c, 1, 64, 100
3, 233568, Note_on_c, 1, 52, 110
3, 233660, Note_off_c, 1, 52, 100
3, 233664, Note_on_c, 1, 54, 110
3, 233756, Note_off_c, 1, 54, 100
3, 233760, Note_on_c, 1, 56, 110
3, 233852, Note_off_c, 1, 56, 100
3, 233856, Note_on_c, 1, 57, 110
3, 233948, Note_off_c, 1, 57, 100
3, 233952, Note_on_c, 1, 59, 110
3, 234044, Note_off_c, 1, 59, 100
3, 234048, Note_on_c, 1, 61, 110
3, 234140, Note_off_c, 1, 61, 100
3, 234144, Note_on_c, 1, 63, 110
3, 234236, Note_off_c, 1, 63, 100
3, 234240, Note_on_c, 1, 64, 110
3, 234332, Note_off_c, 1, 64, 100
3, 234336, Note_on_c, 1, 66, 110
3, 234428, Note_off_c, 1, 66, 100
3, 234432, Note_on_c, 1, 68, 110
3, 234524, Note_off_c, 1, 68, 100
3, 234528, Note_on_c, 1, 69, 110
3, 234620, Note_off_c, 1, 69, 100
3, 234624, Note_on_c, 1, 71, 110
3, 234716, Note_off_c, 1, 71, 100
3, 234720, Note_on_c, 1, 73, 110
3, 234812, Note_off_c, 1, 73, 100
3, 234816, Note_on_c, 1, 74, 110
3, 234908, Note_off_c, 1, 74, 100
3, 234912, Note_on_c, 1, 75, 110
3, 235004, Note_off_c, 1, 75, 100
3, 235008, Note_on_c, 1, 76, 110
3, 236156, Note_off_c, 1, 76, 100
3, 237312, Note_on_c, 1, 68, 80
3, 237404, Note_off_c, 1, 68, 100
3, 237408, Note_on_c, 1, 64, 80
3, 237500, Note_off_c, 1, 64, 100
3, 237504, Note_on_c, 1, 69, 80
3, 237596, Note_off_c, 1, 69, 100
3, 237600, Note_on_c, 1, 66, 80
3, 237692, Note_off_c, 1, 66, 100
3, 237696, Note_on_c, 1, 71, 80
3, 237788, Note_off_c, 1, 71, 100
3, 237792, Note_on_c, 1, 68, 80
3, 237884, Note_off_c, 1, 68, 100
3, 237888, Note_on_c, 1, 73, 80
3, 237980, Note_off_c, 1, 73, 100
3, 237984, Note_on_c, 1, 69, 80
3, 238076, Note_off_c, 1, 69, 100
3, 238080, Note_on_c, 1, 71, 80
3, 238460, Note_off_c, 1, 71, 100
3, 238848, Note_on_c, 1, 44, 80
3, 238940, Note_off_c, 1, 44, 100
3, 238944, Note_on_c, 1, 40, 80
3, 239036, Note_off_c, 1, 40, 100
3, 239040, Note_on_c, 1, 45, 80
3, 239132, Note_off_c, 1, 45, 100
3, 239136, Note_on_c, 1, 42, 80
3, 239228, Note_off_c, 1, 42, 100
3, 239232, Note_on_c, 1, 47, 80
3, 239324, Note_off_c, 1, 47, 100
3, 239328, Note_on_c, 1, 44, 80
3, 239420, Note_off_c, 1, 44, 100
3, 239424, Note_on_c, 1, 49, 80
3, 239516, Note_off_c, 1, 49, 100
3, 239520, Note_on_c, 1, 45, 80
3, 239612, Note_off_c, 1, 45, 100
3, 239616, Note_on_c, 1, 47, 80
3, 240192, Note_on_c, 1, 56, 80
3, 240380, Note_off_c, 1, 56, 100
3, 240384, Note_on_c, 1, 51, 80
3, 240572, Note_off_c, 1, 51, 100
3, 240576, Note_on_c, 1, 54, 80
3, 240764, Note_off_c, 1, 54, 100
3, 240768, Note_on_c, 1, 57, 80
3, 241148, Note_off_c, 1, 47, 100
3, 241148, Note_off_c, 1, 57, 100
3, 241152, Note_on_c, 1, 49, 80
3, 241212, Note_off_c, 1, 49, 100
3, 241216, Note_on_c, 1, 52, 80
3, 241276, Note_off_c, 1, 52, 100
3, 241280, Note_on_c, 1, 56, 80
3, 241340, Note_off_c, 1, 56, 100
3, 241344, Note_on_c, 1, 59, 80
3, 241728, Note_on_c, 1, 68, 80
3, 241916, Note_off_c, 1, 68, 100
3, 241920, Note_on_c, 1, 63, 80
3, 242108, Note_off_c, 1, 63, 100
3, 242112, Note_on_c, 1, 66, 80
3, 242300, Note_off_c, 1, 66, 100
3, 242304, Note_on_c, 1, 69, 80
3, 242684, Note_off_c, 1, 59, 100
3, 242684, Note_off_c, 1, 69, 100
3, 242688, Note_on_c, 1, 64, 80
3, 242688, Note_on_c, 1, 68, 80
3, 243068, Note_off_c, 1, 64, 100
3, 243068, Note_off_c, 1, 68, 100
3, 243072, Note_on_c, 1, 56, 80
3, 243452, Note_off_c, 1, 56, 100
3, 243456, Note_on_c, 1, 57, 80
3, 243836, Note_off_c, 1, 57, 100
3, 243840, Note_on_c, 1, 58, 80
3, 244220, Note_off_c, 1, 58, 100
3, 244224, Note_on_c, 1, 59, 80
3, 244988, Note_off_c, 1, 59, 100
3, 244992, Note_on_c, 1, 47, 80
3, 244992, Note_on_c, 1, 58, 80
3, 245372, Note_off_c, 1, 58, 100
3, 245376, Note_on_c, 1, 57, 80
3, 245756, Note_off_c, 1, 47, 100
3, 245756, Note_off_c, 1, 57, 100
3, 245760, Note_on_c, 1, 52, 80
3, 245760, Note_on_c, 1, 56, 80
3, 246140, Note_off_c, 1, 52, 100
3, 246140, Note_off_c, 1, 56, 100
3, 246144, Note_on_c, 1, 44, 80
3, 246524, Note_off_c, 1, 44, 100
3, 246528, Note_on_c, 1, 45, 80
3, 246908, Note_off_c, 1, 45, 100
3, 246912, Note_on_c, 1, 46, 80
3, 247292, Note_off_c, 1, 46, 100
3, 247296, Note_on_c, 1, 47, 80
3, 248060, Note_off_c, 1, 47, 100
3, 248064, Note_on_c, 1, 35, 80
3, 248828, Note_off_c, 1, 35, 100
3, 248928, Note_on_c, 1, 36, 70
3, 249020, Note_off_c, 1, 36, 100
3, 249024, Note_on_c, 1, 38, 70
3, 249116, Note_off_c, 1, 38, 100
3, 249120, Note_on_c, 1, 40, 70
3, 249212, Note_off_c, 1, 40, 100
3, 249216, Note_on_c, 1, 41, 70
3, 249308, Note_off_c, 1, 41, 100
3, 249312, Note_on_c, 1, 43, 70
3, 249404, Note_off_c, 1, 43, 100
3, 249408, Note_on_c, 1, 45, 70
3, 249500, Note_off_c, 1, 45, 100
3, 249504, Note_on_c, 1, 47, 70
3, 249596, Note_off_c, 1, 47, 100
3, 249600, Note_on_c, 1, 48, 70
3, 249788, Note_off_c, 1, 48, 100
3, 249792, Note_on_c, 1, 48, 70
3, 249980, Note_off_c, 1, 48, 100
3, 249984, Note_on_c, 1, 48, 70
3, 250172, Note_off_c, 1, 48, 100
3, 250176, Note_on_c, 1, 48, 70
3, 250364, Note_off_c, 1, 48, 100
3, 250464, Note_on_c, 1, 36, 70
3, 250556, Note_off_c, 1, 36, 100
3, 250560, Note_on_c, 1, 38, 70
3, 250652, Note_off_c, 1, 38, 100
3, 250656, Note_on_c, 1, 40, 70
3, 250748, Note_off_c, 1, 40, 100
3, 250752, Note_on_c, 1, 41, 70
3, 250844, Note_off_c, 1, 41, 100
3, 250848, Note_on_c, 1, 43, 70
3, 250940, Note_off_c, 1, 43, 100
3, 250944, Note_on_c, 1, 45, 70
3, 251036, Note_off_c, 1, 45, 100
3, 251040, Note_on_c, 1, 47, 70
3, 251132, Note_off_c, 1, 47, 100
3, 251136, Note_on_c, 1, 48, 70
3, 251324, Note_off_c, 1, 48, 100
3, 251328, Note_on_c, 1, 48, 70
3, 251516, Note_off_c, 1, 48, 100
3, 251520, Note_on_c, 1, 48, 70
3, 251708, Note_off_c, 1, 48, 100
3, 251712, Note_on_c, 1, 48, 70
3, 251900, Note_off_c, 1, 48, 100
3, 251904, Note_on_c, 1, 48, 70
3, 251904, Note_on_c, 1, 55, 70
3, 252668, Note_off_c, 1, 55, 100
3, 252672, Note_on_c, 1, 60, 85
3, 253436, Note_off_c, 1, 60, 100
3, 253440, Note_on_c, 1, 58, 110
3, 254204, Note_off_c, 1, 48, 100
3, 254208, Note_on_c, 1, 48, 110
3, 254972, Note_off_c, 1, 58, 100
3, 254972, Note_off_c, 1, 48, 100
3, 254976, Note_on_c, 1, 59, 110
3, 254976, Note_on_c, 1, 47, 110
3, 255164, Note_off_c, 1, 59, 100
3, 255164, Note_off_c, 1, 47, 100
3, 255168, Note_on_c, 1, 47, 110
3, 255356, Note_off_c, 1, 47, 100
3, 255360, Note_on_c, 1, 47, 110
3, 255548, Note_off_c, 1, 47, 100
3, 255552, Note_on_c, 1, 47, 110
3, 255740, Note_off_c, 1, 47, 100
3, 255744, Note_on_c, 1, 47, 110
3, 255744, Note_on_c, 1, 52, 110
3, 255932, Note_off_c, 1, 47, 100
3, 255936, Note_on_c, 1, 47, 110
3, 256124, Note_off_c, 1, 47, 100
3, 256128, Note_on_c, 1, 47, 110
3, 256316, Note_off_c, 1, 47, 100
3, 256320, Note_on_c, 1, 47, 110
3, 256508, Note_off_c, 1, 52, 100
3, 256508, Note_off_c, 1, 47, 100
3, 256512, Note_on_c, 1, 51, 110
3, 256512, Note_on_c, 1, 47, 110
3, 256700, Note_off_c, 1, 47, 100
3, 256704, Note_on_c, 1, 47, 110
3, 256892, Note_off_c, 1, 47, 100
3, 256896, Note_on_c, 1, 47, 110
3, 257084, Note_off_c, 1, 47, 100
3, 257088, Note_on_c, 1, 47, 110
3, 257276, Note_off_c, 1, 51, 100
3, 257276, Note_off_c, 1, 47, 100
3, 257280, Note_on_c, 1, 55, 90
3, 257280, Note_on_c, 1, 47, 90
3, 257468, Note_off_c, 1, 47, 100
3, 257472, Note_on_c, 1, 47, 90
3, 257660, Note_off_c, 1, 47, 100
3, 257664, Note_on_c, 1, 47, 90
3, 257852, Note_off_c, 1, 47, 100
3, 257856, Note_on_c, 1, 47, 90
3, 258044, Note_off_c, 1, 55, 100
3, 258044, Note_off_c, 1, 47, 100
3, 258048, Note_on_c, 1, 54, 90
3, 258048, Note_on_c, 1, 47, 90
3, 258236, Note_off_c, 1, 47, 100
3, 258240, Note_on_c, 1, 47, 90
3, 258428, Note_off_c, 1, 47, 100
3, 258432, Note_on_c, 1, 47, 90
3, 258620, Note_off_c, 1, 47, 100
3, 258624, Note_on_c, 1, 47, 90
3, 258812, Note_off_c, 1, 54, 100
3, 258812, Note_off_c, 1, 47, 100
3, 258816, Note_on_c, 1, 64, 110
3, 258816, Note_on_c, 1, 59, 110
3, 259004, Note_off_c, 1, 59, 100
3, 259008, Note_on_c, 1, 59, 110
3, 259196, Note_off_c, 1, 59, 100
3, 259200, Note_on_c, 1, 59, 110
3, 259388, Note_off_c, 1, 59, 100
3, 259392, Note_on_c, 1, 59, 110
3, 259580, Note_off_c, 1, 64, 100
3, 259580, Note_off_c, 1, 59, 100
3, 259584, Note_on_c, 1, 63, 110
3, 259584, Note_on_c, 1, 59, 110
3, 259772, Note_off_c, 1, 59, 100
3, 259776, Note_on_c, 1, 59, 110
3, 259964, Note_off_c, 1, 59, 100
3, 259968, Note_on_c, 1, 59, 110
3, 260156, Note_off_c, 1, 59, 100
3, 260160, Note_on_c, 1, 59, 90
3, 260348, Note_off_c, 1, 63, 100
3, 260348, Note_off_c, 1, 59, 100
3, 260352, Note_on_c, 1, 67, 90
3, 260352, Note_on_c, 1, 59, 90
3, 260540, Note_off_c, 1, 59, 100
3, 260544, Note_on_c, 1, 59, 90
3, 260732, Note_off_c, 1, 59, 100
3, 260736, Note_on_c, 1, 59, 90
3, 260924, Note_off_c, 1, 59, 100
3, 260928, Note_on_c, 1, 59, 90
3, 261116, Note_off_c, 1, 67, 100
3, 261116, Note_off_c, 1, 59, 100
3, 261120, Note_on_c, 1, 66, 90
3, 261120, Note_on_c, 1, 59, 90
3, 261308, Note_off_c, 1, 59, 100
3, 261312, Note_on_c, 1, 59, 90
3, 261500, Note_off_c, 1, 59, 100
3, 261504, Note_on_c, 1, 59, 90
3, 261692, Note_off_c, 1, 59, 100
3, 261696, Note_on_c, 1, 59, 90
3, 261884, Note_off_c, 1, 66, 100
3, 261884, Note_off_c, 1, 59, 100
3, 261888, Note_on_c, 1, 67, 110
3, 261888, Note_on_c, 1, 64, 110
3, 261888, Note_on_c, 1, 59, 110
3, 262076, Note_off_c, 1, 59, 100
3, 262080, Note_on_c, 1, 59, 110
3, 262268, Note_off_c, 1, 59, 100
3, 262272, Note_on_c, 1, 59, 110
3, 262460, Note_off_c, 1, 59, 100
3, 262464, Note_on_c, 1, 59, 110
3, 262652, Note_off_c, 1, 67, 100
3, 262652, Note_off_c, 1, 64, 100
3, 262652, Note_off_c, 1, 59, 100
3, 262656, Note_on_c, 1, 66, 110
3, 262656, Note_on_c, 1, 63, 110
3, 262656, Note_on_c, 1, 59, 110
3, 263036, Note_off_c, 1, 66, 100
3, 263036, Note_off_c, 1, 63, 100
3, 263036, Note_off_c, 1, 59, 100
3, 263424, Note_on_c, 1, 59, 110
3, 263424, Note_on_c, 1, 54, 110
3, 263424, Note_on_c, 1, 51, 110
3, 263424, Note_on_c, 1, 47, 110
3, 263804, Note_off_c, 1, 59, 100
3, 263804, Note_off_c, 1, 54, 100
3, 263804, Note_off_c, 1, 51, 100
3, 263804, Note_off_c, 1, 47, 100
3, 264192, Note_on_c, 1, 47, 110
3, 264192, Note_on_c, 1, 35, 110
3, 264572, Note_off_c, 1, 47, 100
3, 264572, Note_off_c, 1, 35, 100
3, 269568, Note_on_c, 1, 68, 80
3, 269568, Note_on_c, 1, 65, 80
3, 270332, Note_off_c, 1, 68, 100
3, 270332, Note_off_c, 1, 65, 100
3, 270336, Note_on_c, 1, 66, 80
3, 270336, Note_on_c, 1, 69, 80
3, 271100, Note_off_c, 1, 66, 100
3, 271100, Note_off_c, 1, 69, 100
3, 275712, Note_on_c, 1, 63, 80
3, 275712, Note_on_c, 1, 66, 80
3, 276476, Note_off_c, 1, 63, 100
3, 276476, Note_off_c, 1, 66, 100
3, 276480, Note_on_c, 1, 64, 80
3, 276480, Note_on_c, 1, 68, 80
3, 277244, Note_off_c, 1, 64, 100
3, 277244, Note_off_c, 1, 68, 100
3, 277248, Note_on_c, 1, 71, 80
3, 277436, Note_off_c, 1, 71, 100
3, 277440, Note_on_c, 1, 69, 80
3, 277628, Note_off_c, 1, 69, 100
3, 277632, Note_on_c, 1, 68, 80
3, 277820, Note_off_c, 1, 68, 100
3, 277824, Note_on_c, 1, 66, 80
3, 278012, Note_off_c, 1, 66, 100
3, 278016, Note_on_c, 1, 64, 80
3, 278780, Note_off_c, 1, 64, 100
3, 278784, Note_on_c, 1, 66, 80
3, 279164, Note_off_c, 1, 66, 100
3, 279168, Note_on_c, 1, 68, 80
3, 279548, Note_off_c, 1, 68, 100
3, 279552, Note_on_c, 1, 69, 80
3, 279932, Note_off_c, 1, 69, 100
3, 279936, Note_on_c, 1, 70, 80
3, 280316, Note_off_c, 1, 70, 100
3, 280320, Note_on_c, 1, 71, 80
3, 280700, Note_off_c, 1, 71, 100
3, 280704, Note_on_c, 1, 72, 80
3, 281088, Note_on_c, 1, 61, 80
3, 281468, Note_off_c, 1, 72, 100
3, 281472, Note_on_c, 1, 73, 80
3, 282236, Note_off_c, 1, 73, 100
3, 282240, Note_on_c, 1, 71, 80
3, 282620, Note_off_c, 1, 61, 100
3, 282624, Note_on_c, 1, 66, 80
3, 283004, Note_off_c, 1, 71, 100
3, 283008, Note_on_c, 1, 69, 80
3, 283388, Note_off_c, 1, 66, 100
3, 283388, Note_off_c, 1, 69, 100
3, 283392, Note_on_c, 1, 69, 80
3, 283580, Note_off_c, 1, 69, 100
3, 283584, Note_on_c, 1, 68, 80
3, 283772, Note_off_c, 1, 68, 100
3, 283776, Note_on_c, 1, 66, 80
3, 283964, Note_off_c, 1, 66, 100
3, 283968, Note_on_c, 1, 64, 80
3, 284156, Note_off_c, 1, 64, 100
3, 284160, Note_on_c, 1, 63, 80
3, 284924, Note_off_c, 1, 63, 100
3, 284928, Note_on_c, 1, 64, 80
3, 285308, Note_off_c, 1, 64, 100
3, 285312, Note_on_c, 1, 66, 80
3, 285692, Note_off_c, 1, 66, 100
3, 285696, Note_on_c, 1, 67, 80
3, 286076, Note_off_c, 1, 67, 100
3, 286080, Note_on_c, 1, 68, 80
3, 286460, Note_off_c, 1, 68, 100
3, 286464, Note_on_c, 1, 69, 80
3, 286844, Note_off_c, 1, 69, 100
3, 286848, Note_on_c, 1, 70, 80
3, 287232, Note_on_c, 1, 59, 80
3, 287612, Note_off_c, 1, 70, 100
3, 287616, Note_on_c, 1, 71, 80
3, 288380, Note_off_c, 1, 71, 100
3, 288384, Note_on_c, 1, 69, 80
3, 288764, Note_off_c, 1, 59, 100
3, 288768, Note_on_c, 1, 64, 80
3, 289148, Note_off_c, 1, 69, 100
3, 289152, Note_on_c, 1, 68, 80
3, 289532, Note_off_c, 1, 64, 100
3, 289532, Note_off_c, 1, 68, 100
3, 289536, Note_on_c, 1, 56, 80
3, 289724, Note_off_c, 1, 56, 100
3, 289728, Note_on_c, 1, 59, 80
3, 289916, Note_off_c, 1, 59, 100
3, 289920, Note_on_c, 1, 56, 80
3, 290108, Note_off_c, 1, 56, 100
3, 290112, Note_on_c, 1, 59, 80
3, 290300, Note_off_c, 1, 59, 100
3, 290304, Note_on_c, 1, 57, 80
3, 290492, Note_off_c, 1, 57, 100
3, 290496, Note_on_c, 1, 59, 80
3, 290684, Note_off_c, 1, 59, 100
3, 290688, Note_on_c, 1, 57, 80
3, 290876, Note_off_c, 1, 57, 100
3, 290880, Note_on_c, 1, 59, 80
3, 291068, Note_off_c, 1, 59, 100
3, 291072, Note_on_c, 1, 56, 80
3, 291260, Note_off_c, 1, 56, 100
3, 291264, Note_on_c, 1, 59, 80
3, 291452, Note_off_c, 1, 59, 100
3, 291456, Note_on_c, 1, 56, 80
3, 291644, Note_off_c, 1, 56, 100
3, 291648, Note_on_c, 1, 59, 80
3, 291836, Note_off_c, 1, 59, 100
3, 291840, Note_on_c, 1, 57, 80
3, 292028, Note_off_c, 1, 57, 100
3, 292032, Note_on_c, 1, 59, 80
3, 292220, Note_off_c, 1, 59, 100
3, 292224, Note_on_c, 1, 57, 80
3, 292412, Note_off_c, 1, 57, 100
3, 292416, Note_on_c, 1, 59, 80
3, 292604, Note_off_c, 1, 59, 100
3, 292608, Note_on_c, 1, 56, 80
3, 292796, Note_off_c, 1, 56, 100
3, 292800, Note_on_c, 1, 59, 80
3, 292988, Note_off_c, 1, 59, 100
3, 292992, Note_on_c, 1, 56, 80
3, 293180, Note_off_c, 1, 56, 100
3, 293184, Note_on_c, 1, 59, 80
3, 293372, Note_off_c, 1, 59, 100
3, 293376, Note_on_c, 1, 57, 80
3, 293564, Note_off_c, 1, 57, 100
3, 293568, Note_on_c, 1, 61, 80
3, 293756, Note_off_c, 1, 61, 100
3, 293760, Note_on_c, 1, 57, 80
3, 293948, Note_off_c, 1, 57, 100
3, 293952, Note_on_c, 1, 61, 80
3, 294140, Note_off_c, 1, 61, 100
3, 294144, Note_on_c, 1, 59, 80
3, 294332, Note_off_c, 1, 59, 100
3, 294336, Note_on_c, 1, 63, 80
3, 294524, Note_off_c, 1, 63, 100
3, 294528, Note_on_c, 1, 59, 80
3, 294716, Note_off_c, 1, 59, 100
3, 294720, Note_on_c, 1, 63, 80
3, 294908, Note_off_c, 1, 63, 100
3, 294912, Note_on_c, 1, 52, 80
3, 295104, Note_on_c, 1, 59, 80
3, 295292, Note_off_c, 1, 59, 100
3, 295296, Note_on_c, 1, 63, 80
3, 295484, Note_off_c, 1, 63, 100
3, 295488, Note_on_c, 1, 59, 80
3, 295676, Note_off_c, 1, 59, 100
3, 295680, Note_on_c, 1, 64, 80
3, 295868, Note_off_c, 1, 64, 100
3, 295872, Note_on_c, 1, 59, 80
3, 296060, Note_off_c, 1, 52, 100
3, 296060, Note_off_c, 1, 59, 100
3, 296064, Note_on_c, 1, 56, 80
3, 296064, Note_on_c, 1, 64, 80
3, 296252, Note_off_c, 1, 64, 100
3, 296256, Note_on_c, 1, 59, 80
3, 296444, Note_off_c, 1, 56, 100
3, 296444, Note_off_c, 1, 59, 100
3, 296448, Note_on_c, 1, 57, 80
3, 296448, Note_on_c, 1, 66, 80
3, 296636, Note_off_c, 1, 57, 100
3, 296640, Note_on_c, 1, 59, 80
3, 296828, Note_off_c, 1, 59, 100
3, 296832, Note_on_c, 1, 57, 80
3, 297020, Note_off_c, 1, 57, 100
3, 297024, Note_on_c, 1, 59, 80
3, 297212, Note_off_c, 1, 66, 100
3, 297212, Note_off_c, 1, 59, 100
3, 297216, Note_on_c, 1, 56, 80
3, 297216, Note_on_c, 1, 64, 80
3, 297404, Note_off_c, 1, 56, 100
3, 297408, Note_on_c, 1, 59, 80
3, 297596, Note_off_c, 1, 64, 100
3, 297596, Note_off_c, 1, 59, 100
3, 297600, Note_on_c, 1, 56, 80
3, 297600, Note_on_c, 1, 64, 80
3, 297788, Note_off_c, 1, 56, 100
3, 297792, Note_on_c, 1, 59, 80
3, 297980, Note_off_c, 1, 64, 100
3, 297980, Note_off_c, 1, 59, 100
3, 297984, Note_on_c, 1, 57, 80
3, 297984, Note_on_c, 1, 66, 80
3, 298172, Note_off_c, 1, 57, 100
3, 298176, Note_on_c, 1, 59, 80
3, 298364, Note_off_c, 1, 59, 100
3, 298368, Note_on_c, 1, 57, 80
3, 298556, Note_off_c, 1, 57, 100
3, 298560, Note_on_c, 1, 59, 80
3, 298748, Note_off_c, 1, 66, 100
3, 298748, Note_off_c, 1, 59, 100
3, 298752, Note_on_c, 1, 64, 80
3, 298752, Note_on_c, 1, 56, 80
3, 298940, Note_off_c, 1, 64, 100
3, 298944, Note_on_c, 1, 59, 80
3, 299132, Note_off_c, 1, 56, 100
3, 299132, Note_off_c, 1, 59, 100
3, 299136, Note_on_c, 1, 65, 80
3, 299136, Note_on_c, 1, 56, 80
3, 299324, Note_off_c, 1, 65, 100
3, 299328, Note_on_c, 1, 59, 80
3, 299516, Note_off_c, 1, 56, 100
3, 299516, Note_off_c, 1, 59, 100
3, 299520, Note_on_c, 1, 66, 80
3, 299520, Note_on_c, 1, 57, 80
3, 299708, Note_off_c, 1, 57, 100
3, 299712, Note_on_c, 1, 61, 80
3, 299900, Note_off_c, 1, 66, 100
3, 299900, Note_off_c, 1, 61, 100
3, 299904, Note_on_c, 1, 57, 80
3, 300092, Note_off_c, 1, 57, 100
3, 300096, Note_on_c, 1, 61, 80
3, 300284, Note_off_c, 1, 61, 100
3, 300288, Note_on_c, 1, 47, 80
3, 300288, Note_on_c, 1, 54, 80
3, 300476, Note_off_c, 1, 54, 100
3, 300480, Note_on_c, 1, 57, 80
3, 300668, Note_off_c, 1, 47, 100
3, 300668, Note_off_c, 1, 57, 100
3, 300672, Note_on_c, 1, 47, 80
3, 300672, Note_on_c, 1, 54, 80
3, 300860, Note_off_c, 1, 54, 100
3, 300864, Note_on_c, 1, 57, 80
3, 301052, Note_off_c, 1, 47, 100
3, 301052, Note_off_c, 1, 57, 100
3, 301056, Note_on_c, 1, 56, 80
3, 301056, Note_on_c, 1, 52, 80
3, 301436, Note_off_c, 1, 56, 100
3, 301436, Note_off_c, 1, 52, 100
3, 302400, Note_on_c, 1, 47, 110
3, 302460, Note_off_c, 1, 47, 100
3, 302464, Note_on_c, 1, 49, 110
3, 302524, Note_off_c, 1, 49, 100
3, 302528, Note_on_c, 1, 51, 110
3, 302588, Note_off_c, 1, 51, 100
3, 302592, Note_on_c, 1, 52, 110
3, 302972, Note_off_c, 1, 52, 100
3, 303936, Note_on_c, 1, 35, 110
3, 303996, Note_off_c, 1, 35, 100
3, 304000, Note_on_c, 1, 37, 110
3, 304060, Note_off_c, 1, 37, 100
3, 304064, Note_on_c, 1, 39, 110
3, 304124, Note_off_c, 1, 39, 100
3, 304128, Note_on_c, 1, 40, 110
3, 304508, Note_off_c, 1, 40, 100
3, 305472, Note_on_c, 1, 47, 110
3, 305532, Note_off_c, 1, 47, 100
3, 305536, Note_on_c, 1, 49, 110
3, 305596, Note_off_c, 1, 49, 100
3, 305600, Note_on_c, 1, 51, 110
3, 305660, Note_off_c, 1, 51, 100
3, 305664, Note_on_c, 1, 52, 110
3, 306044, Note_off_c, 1, 52, 100
3, 307008, Note_on_c, 1, 35, 110
3, 307068, Note_off_c, 1, 35, 100
3, 307072, Note_on_c, 1, 37, 110
3, 307132, Note_off_c, 1, 37, 100
3, 307136, Note_on_c, 1, 39, 110
3, 307196, Note_off_c, 1, 39, 100
3, 307200, Note_on_c, 1, 40, 110
3, 307580, Note_off_c, 1, 40, 100
3, 307584, Note_on_c, 1, 59, 80
3, 307584, Note_on_c, 1, 52, 80
3, 307964, Note_off_c, 1, 59, 100
3, 307964, Note_off_c, 1, 52, 100
3, 307968, Note_on_c, 1, 59, 80
3, 307968, Note_on_c, 1, 54, 80
3, 308348, Note_off_c, 1, 59, 100
3, 308348, Note_off_c, 1, 54, 100
3, 308352, Note_on_c, 1, 59, 80
3, 308352, Note_on_c, 1, 56, 80
3, 308732, Note_off_c, 1, 59, 100
3, 308732, Note_off_c, 1, 56, 100
3, 308736, Note_on_c, 1, 66, 80
3, 308736, Note_on_c, 1, 61, 80
3, 308736, Note_on_c, 1, 57, 80
3, 309500, Note_off_c, 1, 66, 100
3, 309500, Note_off_c, 1, 61, 100
3, 309500, Note_off_c, 1, 57, 100
3, 309504, Note_on_c, 1, 68, 80
3, 309504, Note_on_c, 1, 59, 80
3, 309884, Note_off_c, 1, 68, 100
3, 309884, Note_off_c, 1, 59, 100
3, 309888, Note_on_c, 1, 66, 80
3, 309888, Note_on_c, 1, 59, 80
3, 310268, Note_off_c, 1, 66, 100
3, 310268, Note_off_c, 1, 59, 100
3, 310656, Note_on_c, 1, 59, 86
3, 310656, Note_on_c, 1, 56, 86
3, 311036, Note_off_c, 1, 59, 100
3, 311036, Note_off_c, 1, 56, 100
3, 311040, Note_on_c, 1, 63, 93
3, 311040, Note_on_c, 1, 54, 93
3, 311420, Note_off_c, 1, 63, 100
3, 311420, Note_off_c, 1, 54, 100
3, 311424, Note_on_c, 1, 64, 99
3, 311424, Note_on_c, 1, 52, 99
3, 311804, Note_off_c, 1, 64, 100
3, 311804, Note_off_c, 1, 52, 100
3, 311808, Note_on_c, 1, 57, 110
3, 311808, Note_on_c, 1, 68, 110
3, 312380, Note_off_c, 1, 68, 100
3, 312384, Note_on_c, 1, 66, 110
3, 312572, Note_off_c, 1, 57, 100
3, 312572, Note_off_c, 1, 66, 100
3, 312576, Note_on_c, 1, 64, 110
3, 312576, Note_on_c, 1, 59, 110
3, 312956, Note_off_c, 1, 64, 100
3, 312956, Note_off_c, 1, 59, 100
3, 312960, Note_on_c, 1, 63, 110
3, 312960, Note_on_c, 1, 59, 110
3, 313340, Note_off_c, 1, 63, 100
3, 313340, Note_off_c, 1, 59, 100
3, 313728, Note_on_c, 1, 64, 120
3, 313728, Note_on_c, 1, 59, 120
3, 313728, Note_on_c, 1, 56, 120
3, 314108, Note_off_c, 1, 64, 100
3, 314108, Note_off_c, 1, 59, 100
3, 314108, Note_off_c, 1, 56, 100
3, 314112, Note_on_c, 1, 63, 120
3, 314112, Note_on_c, 1, 57, 120
3, 314112, Note_on_c, 1, 54, 120
3, 314492, Note_off_c, 1, 63, 100
3, 314492, Note_off_c, 1, 57, 100
3, 314492, Note_off_c, 1, 54, 100
3, 314496, Note_on_c, 1, 64, 120
3, 314496, Note_on_c, 1, 59, 120
3, 314496, Note_on_c, 1, 56, 120
3, 314496, Note_on_c, 1, 52, 120
3, 314876, Note_off_c, 1, 64, 100
3, 314876, Note_off_c, 1, 59, 100
3, 314876, Note_off_c, 1, 56, 100
3, 314876, Note_off_c, 1, 52, 100
3, 314880, Note_on_c, 1, 57, 120
3, 314880, Note_on_c, 1, 54, 120
3, 314880, Note_on_c, 1, 49, 120
3, 314880, Note_on_c, 1, 45, 120
3, 315260, Note_off_c, 1, 57, 100
3, 315260, Note_off_c, 1, 54, 100
3, 315260, Note_off_c, 1, 49, 100
3, 315260, Note_off_c, 1, 45, 100
3, 316416, Note_on_c, 1, 47, 80
3, 316416, Note_on_c, 1, 35, 80
3, 316796, Note_off_c, 1, 47, 100
3, 316796, Note_off_c, 1, 35, 100
3, 317952, Note_on_c, 1, 40, 70
3, 318716, Note_off_c, 1, 40, 100
3, 318720, Note_on_c, 1, 45, 70
3, 319484, Note_off_c, 1, 45, 100
3, 319488, Note_on_c, 1, 44, 70
3, 320252, Note_off_c, 1, 44, 100
3, 320256, Note_on_c, 1, 49, 70
3, 321020, Note_off_c, 1, 49, 100
3, 321024, Note_on_c, 1, 47, 70
3, 321788, Note_off_c, 1, 47, 100
3, 321792, Note_on_c, 1, 45, 70
3, 322556, Note_off_c, 1, 45, 100
3, 322560, Note_on_c, 1, 44, 70
3, 323324, Note_off_c, 1, 44, 100
3, 323328, Note_on_c, 1, 41, 100
3, 323328, Note_on_c, 1, 29, 100
3, 324092, Note_off_c, 1, 41, 100
3, 324092, Note_off_c, 1, 29, 100
3, 324096, Note_on_c, 1, 40, 70
3, 324096, Note_on_c, 1, 28, 70
3, 324860, Note_off_c, 1, 40, 100
3, 324860, Note_off_c, 1, 28, 100
3, 324864, Note_on_c, 1, 42, 100
3, 324864, Note_on_c, 1, 30, 100
3, 325628, Note_off_c, 1, 42, 100
3, 325628, Note_off_c, 1, 30, 100
3, 325632, Note_on_c, 1, 40, 70
3, 325632, Note_on_c, 1, 28, 70
3, 326396, Note_off_c, 1, 40, 100
3, 326396, Note_off_c, 1, 28, 100
3, 326400, Note_on_c, 1, 41, 100
3, 326400, Note_on_c, 1, 29, 100
3, 327164, Note_off_c, 1, 41, 100
3, 327164, Note_off_c, 1, 29, 100
3, 327168, Note_on_c, 1, 40, 70
3, 327168, Note_on_c, 1, 28, 70
3, 327932, Note_off_c, 1, 40, 100
3, 327932, Note_off_c, 1, 28, 100
3, 327936, Note_on_c, 1, 42, 100
3, 327936, Note_on_c, 1, 30, 100
3, 328700, Note_off_c, 1, 42, 100
3, 328700, Note_off_c, 1, 30, 100
3, 328896, Note_on_c, 1, 40, 80
3, 329084, Note_off_c, 1, 40, 100
3, 329088, Note_on_c, 1, 40, 80
3, 329276, Note_off_c, 1, 40, 100
3, 329280, Note_on_c, 1, 40, 80
3, 329468, Note_off_c, 1, 40, 100
3, 329664, Note_on_c, 1, 40, 80
3, 329664, Note_on_c, 1, 51, 80
3, 329852, Note_off_c, 1, 40, 100
3, 329852, Note_off_c, 1, 51, 100
3, 329856, Note_on_c, 1, 40, 80
3, 329856, Note_on_c, 1, 51, 80
3, 330044, Note_off_c, 1, 40, 100
3, 330044, Note_off_c, 1, 51, 100
3, 330048, Note_on_c, 1, 40, 80
3, 330048, Note_on_c, 1, 51, 80
3, 330236, Note_off_c, 1, 40, 100
3, 330236, Note_off_c, 1, 51, 100
3, 330432, Note_on_c, 1, 52, 80
3, 330432, Note_on_c, 1, 40, 80
3, 330620, Note_off_c, 1, 52, 100
3, 330620, Note_off_c, 1, 40, 100
3, 330624, Note_on_c, 1, 52, 80
3, 330624, Note_on_c, 1, 40, 80
3, 330812, Note_off_c, 1, 52, 100
3, 330812, Note_off_c, 1, 40, 100
3, 330816, Note_on_c, 1, 52, 80
3, 330816, Note_on_c, 1, 40, 80
3, 331004, Note_off_c, 1, 52, 100
3, 331004, Note_off_c, 1, 40, 100
3, 331200, Note_on_c, 1, 54, 80
3, 331200, Note_on_c, 1, 45, 80
3, 331200, Note_on_c, 1, 40, 80
3, 331388, Note_off_c, 1, 54, 100
3, 331388, Note_off_c, 1, 45, 100
3, 331388, Note_off_c, 1, 40, 100
3, 331392, Note_on_c, 1, 54, 80
3, 331392, Note_on_c, 1, 45, 80
3, 331392, Note_on_c, 1, 40, 80
3, 331580, Note_off_c, 1, 54, 100
3, 331580, Note_off_c, 1, 45, 100
3, 331580, Note_off_c, 1, 40, 100
3, 331584, Note_on_c, 1, 54, 80
3, 331584, Note_on_c, 1, 45, 80
3, 331584, Note_on_c, 1, 40, 80
3, 331772, Note_off_c, 1, 54, 100
3, 331772, Note_off_c, 1, 45, 100
3, 331772, Note_off_c, 1, 40, 100
3, 331968, Note_on_c, 1, 40, 80
3, 332156, Note_off_c, 1, 40, 100
3, 332160, Note_on_c, 1, 40, 80
3, 332348, Note_off_c, 1, 40, 100
3, 332352, Note_on_c, 1, 40, 80
3, 332540, Note_off_c, 1, 40, 100
3, 332736, Note_on_c, 1, 40, 80
3, 332736, Note_on_c, 1, 51, 80
3, 332924, Note_off_c, 1, 40, 100
3, 332924, Note_off_c, 1, 51, 100
3, 332928, Note_on_c, 1, 40, 80
3, 332928, Note_on_c, 1, 51, 80
3, 333116, Note_off_c, 1, 40, 100
3, 333116, Note_off_c, 1, 51, 100
3, 333120, Note_on_c, 1, 40, 80
3, 333120, Note_on_c, 1, 51, 80
3, 333308, Note_off_c, 1, 40, 100
3, 333308, Note_off_c, 1, 51, 100
3, 333504, Note_on_c, 1, 52, 80
3, 333504, Note_on_c, 1, 40, 80
3, 333692, Note_off_c, 1, 52, 100
3, 333692, Note_off_c, 1, 40, 100
3, 333696, Note_on_c, 1, 52, 80
3, 333696, Note_on_c, 1, 40, 80
3, 333884, Note_off_c, 1, 52, 100
3, 333884, Note_off_c, 1, 40, 100
3, 333888, Note_on_c, 1, 52, 80
3, 333888, Note_on_c, 1, 40, 80
3, 334076, Note_off_c, 1, 52, 100
3, 334076, Note_off_c, 1, 40, 100
3, 334272, Note_on_c, 1, 54, 80
3, 334272, Note_on_c, 1, 45, 80
3, 334272, Note_on_c, 1, 40, 80
3, 334460, Note_off_c, 1, 54, 100
3, 334460, Note_off_c, 1, 45, 100
3, 334460, Note_off_c, 1, 40, 100
3, 334464, Note_on_c, 1, 54, 80
3, 334464, Note_on_c, 1, 45, 80
3, 334464, Note_on_c, 1, 40, 80
3, 334652, Note_off_c, 1, 54, 100
3, 334652, Note_off_c, 1, 45, 100
3, 334652, Note_off_c, 1, 40, 100
3, 334656, Note_on_c, 1, 54, 80
3, 334656, Note_on_c, 1, 45, 80
3, 334656, Note_on_c, 1, 40, 80
3, 334844, Note_off_c, 1, 54, 100
3, 334844, Note_off_c, 1, 45, 100
3, 334844, Note_off_c, 1, 40, 100
3, 335040, Note_on_c, 1, 52, 80
3, 335040, Note_on_c, 1, 40, 80
3, 335040, Note_on_c, 1, 44, 80
3, 335228, Note_off_c, 1, 52, 100
3, 335228, Note_off_c, 1, 40, 100
3, 335228, Note_off_c, 1, 44, 100
3, 335232, Note_on_c, 1, 52, 79
3, 335232, Note_on_c, 1, 40, 79
3, 335232, Note_on_c, 1, 44, 79
3, 335420, Note_off_c, 1, 52, 100
3, 335420, Note_off_c, 1, 40, 100
3, 335420, Note_off_c, 1, 44, 100
3, 335424, Note_on_c, 1, 52, 79
3, 335424, Note_on_c, 1, 40, 79
3, 335424, Note_on_c, 1, 44, 79
3, 335612, Note_off_c, 1, 52, 100
3, 335612, Note_off_c, 1, 40, 100
3, 335612, Note_off_c, 1, 44, 100
3, 335808, Note_on_c, 1, 54, 77
3, 335808, Note_on_c, 1, 45, 77
3, 335808, Note_on_c, 1, 40, 77
3, 335996, Note_off_c, 1, 54, 100
3, 335996, Note_off_c, 1, 45, 100
3, 335996, Note_off_c, 1, 40, 100
3, 336000, Note_on_c, 1, 54, 77
3, 336000, Note_on_c, 1, 45, 77
3, 336000, Note_on_c, 1, 40, 77
3, 336188, Note_off_c, 1, 54, 100
3, 336188, Note_off_c, 1, 45, 100
3, 336188, Note_off_c, 1, 40, 100
3, 336192, Note_on_c, 1, 54, 76
3, 336192, Note_on_c, 1, 45, 76
3, 336192, Note_on_c, 1, 40, 76
3, 336380, Note_off_c, 1, 54, 100
3, 336380, Note_off_c, 1, 45, 100
3, 336380, Note_off_c, 1, 40, 100
3, 336576, Note_on_c, 1, 52, 75
3, 336576, Note_on_c, 1, 40, 75
3, 336576, Note_on_c, 1, 44, 75
3, 336764, Note_off_c, 1, 52, 100
3, 336764, Note_off_c, 1, 40, 100
3, 336764, Note_off_c, 1, 44, 100
3, 336768, Note_on_c, 1, 52, 74
3, 336768, Note_on_c, 1, 40, 74
3, 336768, Note_on_c, 1, 44, 74
3, 336956, Note_off_c, 1, 52, 100
3, 336956, Note_off_c, 1, 40, 100
3, 336956, Note_off_c, 1, 44, 100
3, 336960, Note_on_c, 1, 52, 73
3, 336960, Note_on_c, 1, 40, 73
3, 336960, Note_on_c, 1, 44, 73
3, 337148, Note_off_c, 1, 52, 100
3, 337148, Note_off_c, 1, 40, 100
3, 337148, Note_off_c, 1, 44, 100
3, 337344, Note_on_c, 1, 54, 72
3, 337344, Note_on_c, 1, 45, 72
3, 337344, Note_on_c, 1, 40, 72
3, 337532, Note_off_c, 1, 54, 100
3, 337532, Note_off_c, 1, 45, 100
3, 337532, Note_off_c, 1, 40, 100
3, 337536, Note_on_c, 1, 54, 71
3, 337536, Note_on_c, 1, 45, 71
3, 337536, Note_on_c, 1, 40, 71
3, 337724, Note_off_c, 1, 54, 100
3, 337724, Note_off_c, 1, 45, 100
3, 337724, Note_off_c, 1, 40, 100
3, 337728, Note_on_c, 1, 54, 71
3, 337728, Note_on_c, 1, 45, 71
3, 337728, Note_on_c, 1, 40, 71
3, 337916, Note_off_c, 1, 54, 100
3, 337916, Note_off_c, 1, 45, 100
3, 337916, Note_off_c, 1, 40, 100
3, 338112, Note_on_c, 1, 52, 70
3, 338112, Note_on_c, 1, 47, 70
3, 338112, Note_on_c, 1, 44, 70
3, 338112, Note_on_c, 1, 40, 70
3, 338300, Note_off_c, 1, 52, 100
3, 338300, Note_off_c, 1, 47, 100
3, 338300, Note_off_c, 1, 44, 100
3, 338300, Note_off_c, 1, 40, 100
3, 338304, Note_on_c, 1, 52, 70
3, 338304, Note_on_c, 1, 47, 70
3, 338304, Note_on_c, 1, 44, 70
3, 338304, Note_on_c, 1, 40, 70
3, 338492, Note_off_c, 1, 52, 100
3, 338492, Note_off_c, 1, 47, 100
3, 338492, Note_off_c, 1, 44, 100
3, 338492, Note_off_c, 1, 40, 100
3, 338496, Note_on_c, 1, 52, 70
3, 338496, Note_on_c, 1, 47, 70
3, 338496, Note_on_c, 1, 44, 70
3, 338496, Note_on_c, 1, 40, 70
3, 338684, Note_off_c, 1, 52, 100
3, 338684, Note_off_c, 1, 47, 100
3, 338684, Note_off_c, 1, 44, 100
3, 338684, Note_off_c, 1, 40, 100
3, 338880, Note_on_c, 1, 52, 70
3, 338880, Note_on_c, 1, 47, 70
3, 338880, Note_on_c, 1, 44, 70
3, 338880, Note_on_c, 1, 40, 70
3, 339068, Note_off_c, 1, 52, 100
3, 339068, Note_off_c, 1, 47, 100
3, 339068, Note_off_c, 1, 44, 100
3, 339068, Note_off_c, 1, 40, 100
3, 339072, Note_on_c, 1, 52, 70
3, 339072, Note_on_c, 1, 47, 70
3, 339072, Note_on_c, 1, 44, 70
3, 339072, Note_on_c, 1, 40, 70
3, 339260, Note_off_c, 1, 52, 100
3, 339260, Note_off_c, 1, 47, 100
3, 339260, Note_off_c, 1, 44, 100
3, 339260, Note_off_c, 1, 40, 100
3, 339264, Note_on_c, 1, 52, 70
3, 339264, Note_on_c, 1, 47, 70
3, 339264, Note_on_c, 1, 44, 70
3, 339264, Note_on_c, 1, 40, 70
3, 339452, Note_off_c, 1, 52, 100
3, 339452, Note_off_c, 1, 47, 100
3, 339452, Note_off_c, 1, 44, 100
3, 339452, Note_off_c, 1, 40, 100
3, 339840, Note_on_c, 1, 52, 70
3, 339840, Note_on_c, 1, 47, 70
3, 339840, Note_on_c, 1, 44, 70
3, 339840, Note_on_c, 1, 40, 70
3, 340988, Note_off_c, 1, 52, 100
3, 340988, Note_off_c, 1, 47, 100
3, 340988, Note_off_c, 1, 44, 100
3, 340988, Note_off_c, 1, 40, 100
3, 340988, End_track
0, 0, End_of_file
