0, 0, Header, 1, 3, 384
1, 0, Start_track
1, 0, Title_t, "L.v.Beethoven 2mov - Piano Sonata No.9 in E Major Op.14-1\000"
1, 0, Copyright_t, "Copyright(C) 1995-2009, Suzuki Software\000"
1, 0, Sequencer_specific, 9, 67, 123, 0, 88, 70, 48, 50, 0, 1
1, 0, Text_t, "XFhd:2000/05/10:JP:Classical::::L.v.Beethoven:::Kaoru Suzuki\000"
1, 0, Text_t, "XFln:JP:\203s\203A\203m\203\\\203i\203^\221æ9\224Ô\203z\222·\222²\215ì\225i14-1\201`\221æ2\212y\217Í:L.v.\203x\201[\203g\201[\203\224\203F\203\223:::\227é\202¿\202á\202ñ:\227é\202¿\202á\202ñ\000"
1, 0, Time_signature, 3, 2, 96, 8
1, 0, Sequencer_specific, 3, 0, 0, 65
1, 0, Sequencer_specific, 5, 0, 0, 119, 14, 0
1, 0, Tempo, 285714
1, 16128, Tempo, 315789
1, 18432, Tempo, 285714
1, 34560, Tempo, 333333
1, 35328, Tempo, 500000
1, 36864, Tempo, 285714
1, 44928, Tempo, 315789
1, 45696, Tempo, 333333
1, 47232, Tempo, 285714
1, 72576, Tempo, 333333
1, 134784, Tempo, 285714
1, 150912, Tempo, 300000
1, 151680, Tempo, 315789
1, 153216, Tempo, 285714
1, 158976, Tempo, 300000
1, 160128, Tempo, 315789
1, 160896, Tempo, 333333
1, 162432, Tempo, 285714
1, 167040, Tempo, 300000
1, 168192, Tempo, 333333
1, 169344, Tempo, 425531
1, 170112, Tempo, 666666
1, 172800, Tempo, 285714
1, 206208, Tempo, 333333
1, 221184, Tempo, 352941
1, 222336, Tempo, 461538
1, 222336, End_track
2, 0, Start_track
2, 0, Title_t, "Right"
2, 0, Control_c, 0, 0, 0
2, 0, Program_c, 0, 0
2, 0, Control_c, 0, 7, 100
2, 0, Control_c, 0, 10, 74
2, 0, Control_c, 0, 91, 127
2, 0, Key_signature, 1, "minor"
2, 0, Note_on_c, 0, 64, 80
2, 0, Note_on_c, 0, 59, 80
2, 0, Note_on_c, 0, 55, 80
2, 572, Note_off_c, 0, 64, 100
2, 576, Note_on_c, 0, 63, 80
2, 764, Note_off_c, 0, 63, 100
2, 768, Note_on_c, 0, 64, 80
2, 1148, Note_off_c, 0, 59, 100
2, 1148, Note_off_c, 0, 55, 100
2, 1148, Note_off_c, 0, 64, 100
2, 1152, Note_on_c, 0, 64, 80
2, 1152, Note_on_c, 0, 55, 80
2, 1152, Note_on_c, 0, 60, 80
2, 1724, Note_off_c, 0, 64, 100
2, 1728, Note_on_c, 0, 63, 94
2, 1916, Note_off_c, 0, 63, 100
2, 1920, Note_on_c, 0, 64, 99
2, 2300, Note_off_c, 0, 55, 100
2, 2300, Note_off_c, 0, 60, 100
2, 2300, Note_off_c, 0, 64, 100
2, 2304, Note_on_c, 0, 67, 100
2, 2304, Note_on_c, 0, 61, 100
2, 2304, Note_on_c, 0, 58, 100
2, 3452, Note_off_c, 0, 61, 100
2, 3452, Note_off_c, 0, 58, 100
2, 3456, Note_on_c, 0, 60, 80
2, 3456, Note_on_c, 0, 57, 80
2, 3836, Note_off_c, 0, 67, 100
2, 3840, Note_on_c, 0, 66, 80
2, 4028, Note_off_c, 0, 66, 100
2, 4032, Note_on_c, 0, 64, 80
2, 4220, Note_off_c, 0, 64, 100
2, 4224, Note_on_c, 0, 63, 80
2, 4412, Note_off_c, 0, 63, 100
2, 4416, Note_on_c, 0, 66, 80
2, 4604, Note_off_c, 0, 60, 100
2, 4604, Note_off_c, 0, 57, 100
2, 4604, Note_off_c, 0, 66, 100
2, 4608, Note_on_c, 0, 64, 80
2, 4608, Note_on_c, 0, 59, 80
2, 4988, Note_off_c, 0, 64, 100
2, 4988, Note_off_c, 0, 59, 100
2, 4992, Note_on_c, 0, 66, 80
2, 4992, Note_on_c, 0, 59, 80
2, 5372, Note_off_c, 0, 66, 100
2, 5372, Note_off_c, 0, 59, 100
2, 5376, Note_on_c, 0, 67, 80
2, 5376, Note_on_c, 0, 59, 80
2, 5756, Note_off_c, 0, 67, 100
2, 5756, Note_off_c, 0, 59, 100
2, 5760, Note_on_c, 0, 71, 80
2, 5760, Note_on_c, 0, 66, 80
2, 6140, Note_off_c, 0, 71, 100
2, 6144, Note_on_c, 0, 69, 80
2, 6524, Note_off_c, 0, 66, 100
2, 6524, Note_off_c, 0, 69, 100
2, 6528, Note_on_c, 0, 67, 80
2, 6528, Note_on_c, 0, 64, 80
2, 6908, Note_off_c, 0, 67, 100
2, 6908, Note_off_c, 0, 64, 100
2, 6912, Note_on_c, 0, 66, 80
2, 6912, Note_on_c, 0, 63, 80
2, 7676, Note_off_c, 0, 66, 100
2, 7676, Note_off_c, 0, 63, 100
2, 7680, Note_on_c, 0, 64, 80
2, 7680, Note_on_c, 0, 69, 80
2, 7868, Note_off_c, 0, 69, 100
2, 7872, Note_on_c, 0, 67, 80
2, 8060, Note_off_c, 0, 64, 100
2, 8060, Note_off_c, 0, 67, 100
2, 8064, Note_on_c, 0, 66, 80
2, 8064, Note_on_c, 0, 63, 80
2, 8444, Note_off_c, 0, 66, 100
2, 8444, Note_off_c, 0, 63, 100
2, 8832, Note_on_c, 0, 71, 80
2, 9212, Note_off_c, 0, 71, 100
2, 9216, Note_on_c, 0, 76, 80
2, 9216, Note_on_c, 0, 71, 80
2, 9216, Note_on_c, 0, 67, 80
2, 9788, Note_off_c, 0, 76, 100
2, 9792, Note_on_c, 0, 75, 80
2, 9980, Note_off_c, 0, 75, 100
2, 9984, Note_on_c, 0, 76, 80
2, 10364, Note_off_c, 0, 71, 100
2, 10364, Note_off_c, 0, 67, 100
2, 10364, Note_off_c, 0, 76, 100
2, 10368, Note_on_c, 0, 76, 80
2, 10368, Note_on_c, 0, 72, 80
2, 10368, Note_on_c, 0, 67, 80
2, 10940, Note_off_c, 0, 76, 100
2, 10944, Note_on_c, 0, 75, 94
2, 11132, Note_off_c, 0, 75, 100
2, 11136, Note_on_c, 0, 76, 99
2, 11516, Note_off_c, 0, 72, 100
2, 11516, Note_off_c, 0, 67, 100
2, 11516, Note_off_c, 0, 76, 100
2, 11520, Note_on_c, 0, 79, 100
2, 11520, Note_on_c, 0, 73, 100
2, 11520, Note_on_c, 0, 70, 100
2, 12668, Note_off_c, 0, 73, 100
2, 12668, Note_off_c, 0, 70, 100
2, 12672, Note_on_c, 0, 72, 80
2, 12672, Note_on_c, 0, 69, 80
2, 13052, Note_off_c, 0, 79, 100
2, 13056, Note_on_c, 0, 78, 80
2, 13244, Note_off_c, 0, 78, 100
2, 13248, Note_on_c, 0, 76, 80
2, 13436, Note_off_c, 0, 76, 100
2, 13440, Note_on_c, 0, 75, 80
2, 13628, Note_off_c, 0, 75, 100
2, 13632, Note_on_c, 0, 78, 80
2, 13820, Note_off_c, 0, 72, 100
2, 13820, Note_off_c, 0, 69, 100
2, 13820, Note_off_c, 0, 78, 100
2, 13824, Note_on_c, 0, 76, 80
2, 13824, Note_on_c, 0, 71, 80
2, 14204, Note_off_c, 0, 76, 100
2, 14204, Note_off_c, 0, 71, 100
2, 14208, Note_on_c, 0, 78, 80
2, 14208, Note_on_c, 0, 71, 80
2, 14588, Note_off_c, 0, 78, 100
2, 14588, Note_off_c, 0, 71, 100
2, 14592, Note_on_c, 0, 79, 80
2, 14592, Note_on_c, 0, 71, 80
2, 14972, Note_off_c, 0, 79, 100
2, 14972, Note_off_c, 0, 71, 100
2, 14976, Note_on_c, 0, 83, 80
2, 14976, Note_on_c, 0, 78, 80
2, 15356, Note_off_c, 0, 83, 100
2, 15360, Note_on_c, 0, 81, 80
2, 15740, Note_off_c, 0, 78, 100
2, 15740, Note_off_c, 0, 81, 100
2, 15744, Note_on_c, 0, 79, 80
2, 15744, Note_on_c, 0, 76, 80
2, 16124, Note_off_c, 0, 79, 100
2, 16124, Note_off_c, 0, 76, 100
2, 16128, Note_on_c, 0, 79, 80
2, 16128, Note_on_c, 0, 76, 80
2, 16892, Note_off_c, 0, 79, 100
2, 16892, Note_off_c, 0, 76, 100
2, 16896, Note_on_c, 0, 78, 80
2, 16896, Note_on_c, 0, 75, 80
2, 17276, Note_off_c, 0, 78, 100
2, 17276, Note_off_c, 0, 75, 100
2, 17280, Note_on_c, 0, 76, 80
2, 17660, Note_off_c, 0, 76, 100
2, 18432, Note_on_c, 0, 64, 80
2, 18432, Note_on_c, 0, 60, 80
2, 18432, Note_on_c, 0, 55, 80
2, 19004, Note_off_c, 0, 64, 100
2, 19008, Note_on_c, 0, 63, 80
2, 19196, Note_off_c, 0, 63, 100
2, 19200, Note_on_c, 0, 64, 80
2, 19580, Note_off_c, 0, 60, 100
2, 19580, Note_off_c, 0, 55, 100
2, 19580, Note_off_c, 0, 64, 100
2, 19584, Note_on_c, 0, 67, 100
2, 19584, Note_on_c, 0, 62, 100
2, 19584, Note_on_c, 0, 59, 100
2, 20732, Note_off_c, 0, 67, 100
2, 20732, Note_off_c, 0, 62, 100
2, 20732, Note_off_c, 0, 59, 100
2, 20736, Note_on_c, 0, 65, 80
2, 20736, Note_on_c, 0, 62, 80
2, 20736, Note_on_c, 0, 57, 80
2, 21308, Note_off_c, 0, 65, 100
2, 21312, Note_on_c, 0, 64, 80
2, 21500, Note_off_c, 0, 64, 100
2, 21504, Note_on_c, 0, 65, 80
2, 21884, Note_off_c, 0, 62, 100
2, 21884, Note_off_c, 0, 57, 100
2, 21884, Note_off_c, 0, 65, 100
2, 21888, Note_on_c, 0, 67, 100
2, 21888, Note_on_c, 0, 62, 100
2, 23036, Note_off_c, 0, 67, 100
2, 23036, Note_off_c, 0, 62, 100
2, 23040, Note_on_c, 0, 64, 80
2, 23040, Note_on_c, 0, 60, 80
2, 23040, Note_on_c, 0, 55, 80
2, 23612, Note_off_c, 0, 64, 100
2, 23616, Note_on_c, 0, 63, 80
2, 23804, Note_off_c, 0, 63, 100
2, 23808, Note_on_c, 0, 64, 80
2, 24188, Note_off_c, 0, 60, 100
2, 24188, Note_off_c, 0, 55, 100
2, 24188, Note_off_c, 0, 64, 100
2, 24192, Note_on_c, 0, 62, 80
2, 24192, Note_on_c, 0, 59, 80
2, 24192, Note_on_c, 0, 67, 80
2, 24956, Note_off_c, 0, 67, 100
2, 24960, Note_on_c, 0, 67, 80
2, 25340, Note_off_c, 0, 62, 100
2, 25340, Note_off_c, 0, 59, 100
2, 25340, Note_off_c, 0, 67, 100
2, 25344, Note_on_c, 0, 62, 80
2, 25344, Note_on_c, 0, 57, 80
2, 25344, Note_on_c, 0, 67, 80
2, 26108, Note_off_c, 0, 67, 100
2, 26112, Note_on_c, 0, 66, 80
2, 26492, Note_off_c, 0, 62, 100
2, 26492, Note_off_c, 0, 57, 100
2, 26492, Note_off_c, 0, 66, 100
2, 26496, Note_on_c, 0, 67, 80
2, 26496, Note_on_c, 0, 62, 80
2, 26496, Note_on_c, 0, 59, 80
2, 26876, Note_off_c, 0, 67, 100
2, 26876, Note_off_c, 0, 62, 100
2, 26876, Note_off_c, 0, 59, 100
2, 27648, Note_on_c, 0, 76, 80
2, 27648, Note_on_c, 0, 72, 80
2, 27648, Note_on_c, 0, 67, 80
2, 28220, Note_off_c, 0, 76, 100
2, 28224, Note_on_c, 0, 75, 80
2, 28412, Note_off_c, 0, 75, 100
2, 28416, Note_on_c, 0, 76, 80
2, 28796, Note_off_c, 0, 72, 100
2, 28796, Note_off_c, 0, 67, 100
2, 28796, Note_off_c, 0, 76, 100
2, 28800, Note_on_c, 0, 79, 80
2, 28800, Note_on_c, 0, 74, 80
2, 28800, Note_on_c, 0, 71, 80
2, 29948, Note_off_c, 0, 79, 100
2, 29948, Note_off_c, 0, 74, 100
2, 29948, Note_off_c, 0, 71, 100
2, 29952, Note_on_c, 0, 77, 80
2, 29952, Note_on_c, 0, 74, 80
2, 29952, Note_on_c, 0, 69, 80
2, 30524, Note_off_c, 0, 77, 100
2, 30528, Note_on_c, 0, 76, 80
2, 30716, Note_off_c, 0, 76, 100
2, 30720, Note_on_c, 0, 77, 80
2, 31100, Note_off_c, 0, 74, 100
2, 31100, Note_off_c, 0, 69, 100
2, 31100, Note_off_c, 0, 77, 100
2, 31104, Note_on_c, 0, 79, 80
2, 31104, Note_on_c, 0, 74, 80
2, 32252, Note_off_c, 0, 79, 100
2, 32252, Note_off_c, 0, 74, 100
2, 32256, Note_on_c, 0, 76, 80
2, 32256, Note_on_c, 0, 72, 80
2, 32256, Note_on_c, 0, 67, 80
2, 32828, Note_off_c, 0, 76, 100
2, 32832, Note_on_c, 0, 75, 80
2, 33020, Note_off_c, 0, 75, 100
2, 33024, Note_on_c, 0, 76, 80
2, 33404, Note_off_c, 0, 72, 100
2, 33404, Note_off_c, 0, 67, 100
2, 33404, Note_off_c, 0, 76, 100
2, 33408, Note_on_c, 0, 76, 80
2, 33408, Note_on_c, 0, 64, 80
2, 34172, Note_off_c, 0, 76, 100
2, 34172, Note_off_c, 0, 64, 100
2, 34176, Note_on_c, 0, 76, 80
2, 34176, Note_on_c, 0, 64, 80
2, 34556, Note_off_c, 0, 76, 100
2, 34556, Note_off_c, 0, 64, 100
2, 34560, Note_on_c, 0, 76, 80
2, 34560, Note_on_c, 0, 64, 80
2, 35324, Note_off_c, 0, 76, 100
2, 35324, Note_off_c, 0, 64, 100
2, 35328, Note_on_c, 0, 75, 80
2, 35328, Note_on_c, 0, 63, 80
2, 35708, Note_off_c, 0, 75, 100
2, 35708, Note_off_c, 0, 63, 100
2, 35712, Note_on_c, 0, 78, 80
2, 35712, Note_on_c, 0, 66, 80
2, 37628, Note_off_c, 0, 66, 100
2, 37628, Note_off_c, 0, 78, 100
2, 37632, Note_on_c, 0, 71, 80
2, 38012, Note_off_c, 0, 71, 100
2, 38016, Note_on_c, 0, 76, 80
2, 38016, Note_on_c, 0, 71, 80
2, 38016, Note_on_c, 0, 67, 80
2, 38588, Note_off_c, 0, 76, 100
2, 38592, Note_on_c, 0, 75, 80
2, 38780, Note_off_c, 0, 75, 100
2, 38784, Note_on_c, 0, 76, 80
2, 39164, Note_off_c, 0, 71, 100
2, 39164, Note_off_c, 0, 67, 100
2, 39164, Note_off_c, 0, 76, 100
2, 39168, Note_on_c, 0, 76, 80
2, 39168, Note_on_c, 0, 67, 80
2, 39168, Note_on_c, 0, 72, 80
2, 39740, Note_off_c, 0, 76, 100
2, 39744, Note_on_c, 0, 75, 94
2, 39932, Note_off_c, 0, 75, 100
2, 39936, Note_on_c, 0, 76, 99
2, 40316, Note_off_c, 0, 67, 100
2, 40316, Note_off_c, 0, 72, 100
2, 40316, Note_off_c, 0, 76, 100
2, 40320, Note_on_c, 0, 79, 100
2, 40320, Note_on_c, 0, 73, 100
2, 40320, Note_on_c, 0, 70, 100
2, 41468, Note_off_c, 0, 73, 100
2, 41468, Note_off_c, 0, 70, 100
2, 41472, Note_on_c, 0, 72, 80
2, 41472, Note_on_c, 0, 69, 80
2, 41852, Note_off_c, 0, 79, 100
2, 41856, Note_on_c, 0, 78, 80
2, 42044, Note_off_c, 0, 78, 100
2, 42048, Note_on_c, 0, 76, 80
2, 42236, Note_off_c, 0, 76, 100
2, 42240, Note_on_c, 0, 75, 80
2, 42428, Note_off_c, 0, 75, 100
2, 42432, Note_on_c, 0, 78, 80
2, 42620, Note_off_c, 0, 72, 100
2, 42620, Note_off_c, 0, 69, 100
2, 42620, Note_off_c, 0, 78, 100
2, 42624, Note_on_c, 0, 76, 80
2, 42624, Note_on_c, 0, 71, 80
2, 43004, Note_off_c, 0, 76, 100
2, 43004, Note_off_c, 0, 71, 100
2, 43008, Note_on_c, 0, 78, 80
2, 43008, Note_on_c, 0, 71, 80
2, 43388, Note_off_c, 0, 78, 100
2, 43388, Note_off_c, 0, 71, 100
2, 43392, Note_on_c, 0, 79, 80
2, 43392, Note_on_c, 0, 71, 80
2, 43772, Note_off_c, 0, 79, 100
2, 43772, Note_off_c, 0, 71, 100
2, 43776, Note_on_c, 0, 83, 80
2, 43776, Note_on_c, 0, 78, 80
2, 44156, Note_off_c, 0, 83, 100
2, 44160, Note_on_c, 0, 81, 80
2, 44540, Note_off_c, 0, 78, 100
2, 44540, Note_off_c, 0, 81, 100
2, 44544, Note_on_c, 0, 79, 80
2, 44544, Note_on_c, 0, 76, 80
2, 44924, Note_off_c, 0, 79, 100
2, 44924, Note_off_c, 0, 76, 100
2, 44928, Note_on_c, 0, 78, 80
2, 44928, Note_on_c, 0, 75, 80
2, 45692, Note_off_c, 0, 78, 100
2, 45692, Note_off_c, 0, 75, 100
2, 45696, Note_on_c, 0, 76, 80
2, 45696, Note_on_c, 0, 81, 80
2, 45884, Note_off_c, 0, 81, 100
2, 45888, Note_on_c, 0, 79, 80
2, 46076, Note_off_c, 0, 76, 100
2, 46076, Note_off_c, 0, 79, 100
2, 46080, Note_on_c, 0, 78, 80
2, 46080, Note_on_c, 0, 75, 80
2, 46460, Note_off_c, 0, 78, 100
2, 46460, Note_off_c, 0, 75, 100
2, 46848, Note_on_c, 0, 59, 80
2, 47228, Note_off_c, 0, 59, 100
2, 47232, Note_on_c, 0, 64, 80
2, 47804, Note_off_c, 0, 64, 100
2, 47808, Note_on_c, 0, 63, 80
2, 47996, Note_off_c, 0, 63, 100
2, 48000, Note_on_c, 0, 64, 80
2, 48380, Note_off_c, 0, 64, 100
2, 48384, Note_on_c, 0, 64, 80
2, 48956, Note_off_c, 0, 64, 100
2, 48960, Note_on_c, 0, 63, 80
2, 49148, Note_off_c, 0, 63, 100
2, 49152, Note_on_c, 0, 64, 80
2, 49532, Note_off_c, 0, 64, 100
2, 49536, Note_on_c, 0, 72, 100
2, 49536, Note_on_c, 0, 65, 100
2, 49536, Note_on_c, 0, 62, 100
2, 51068, Note_off_c, 0, 72, 100
2, 51072, Note_on_c, 0, 71, 100
2, 51260, Note_off_c, 0, 71, 100
2, 51264, Note_on_c, 0, 69, 100
2, 51452, Note_off_c, 0, 69, 100
2, 51456, Note_on_c, 0, 68, 100
2, 51644, Note_off_c, 0, 68, 100
2, 51648, Note_on_c, 0, 71, 100
2, 51836, Note_off_c, 0, 62, 100
2, 51836, Note_off_c, 0, 65, 100
2, 51836, Note_off_c, 0, 71, 100
2, 51840, Note_on_c, 0, 69, 100
2, 51840, Note_on_c, 0, 64, 100
2, 51840, Note_on_c, 0, 60, 100
2, 52220, Note_off_c, 0, 69, 100
2, 52220, Note_off_c, 0, 64, 100
2, 52220, Note_off_c, 0, 60, 100
2, 52224, Note_on_c, 0, 71, 110
2, 52224, Note_on_c, 0, 65, 110
2, 52224, Note_on_c, 0, 62, 110
2, 52412, Note_off_c, 0, 71, 100
2, 52416, Note_on_c, 0, 69, 100
2, 52604, Note_off_c, 0, 69, 100
2, 52608, Note_on_c, 0, 68, 100
2, 52796, Note_off_c, 0, 68, 100
2, 52800, Note_on_c, 0, 71, 100
2, 52988, Note_off_c, 0, 65, 100
2, 52988, Note_off_c, 0, 62, 100
2, 52988, Note_off_c, 0, 71, 100
2, 52992, Note_on_c, 0, 69, 100
2, 52992, Note_on_c, 0, 64, 100
2, 52992, Note_on_c, 0, 60, 100
2, 53372, Note_off_c, 0, 69, 100
2, 53372, Note_off_c, 0, 64, 100
2, 53372, Note_off_c, 0, 60, 100
2, 53376, Note_on_c, 0, 71, 110
2, 53376, Note_on_c, 0, 65, 110
2, 53376, Note_on_c, 0, 62, 110
2, 53564, Note_off_c, 0, 71, 100
2, 53568, Note_on_c, 0, 69, 100
2, 53756, Note_off_c, 0, 69, 100
2, 53760, Note_on_c, 0, 68, 100
2, 53948, Note_off_c, 0, 68, 100
2, 53952, Note_on_c, 0, 71, 100
2, 54140, Note_off_c, 0, 65, 100
2, 54140, Note_off_c, 0, 62, 100
2, 54140, Note_off_c, 0, 71, 100
2, 54144, Note_on_c, 0, 69, 100
2, 54144, Note_on_c, 0, 64, 100
2, 54144, Note_on_c, 0, 60, 100
2, 54524, Note_off_c, 0, 69, 100
2, 54524, Note_off_c, 0, 64, 100
2, 54524, Note_off_c, 0, 60, 100
2, 54528, Note_on_c, 0, 69, 80
2, 54716, Note_off_c, 0, 69, 100
2, 54720, Note_on_c, 0, 68, 80
2, 54908, Note_off_c, 0, 68, 100
2, 54912, Note_on_c, 0, 69, 80
2, 55100, Note_off_c, 0, 69, 100
2, 55104, Note_on_c, 0, 71, 80
2, 55292, Note_off_c, 0, 71, 100
2, 55296, Note_on_c, 0, 72, 80
2, 55484, Note_off_c, 0, 72, 100
2, 55488, Note_on_c, 0, 74, 80
2, 55676, Note_off_c, 0, 74, 100
2, 55680, Note_on_c, 0, 76, 80
2, 55868, Note_off_c, 0, 76, 100
2, 55872, Note_on_c, 0, 75, 80
2, 56060, Note_off_c, 0, 75, 100
2, 56064, Note_on_c, 0, 76, 80
2, 56252, Note_off_c, 0, 76, 100
2, 56256, Note_on_c, 0, 72, 80
2, 56444, Note_off_c, 0, 72, 100
2, 56448, Note_on_c, 0, 71, 80
2, 56828, Note_off_c, 0, 71, 100
2, 56832, Note_on_c, 0, 71, 80
2, 57020, Note_off_c, 0, 71, 100
2, 57024, Note_on_c, 0, 70, 80
2, 57212, Note_off_c, 0, 70, 100
2, 57216, Note_on_c, 0, 71, 80
2, 57404, Note_off_c, 0, 71, 100
2, 57408, Note_on_c, 0, 67, 80
2, 57596, Note_off_c, 0, 67, 100
2, 57600, Note_on_c, 0, 66, 80
2, 57600, Note_on_c, 0, 63, 80
2, 57980, Note_off_c, 0, 66, 100
2, 57980, Note_off_c, 0, 63, 100
2, 57984, Note_on_c, 0, 71, 80
2, 58172, Note_off_c, 0, 71, 100
2, 58176, Note_on_c, 0, 70, 80
2, 58364, Note_off_c, 0, 70, 100
2, 58368, Note_on_c, 0, 71, 80
2, 58556, Note_off_c, 0, 71, 100
2, 58560, Note_on_c, 0, 66, 80
2, 58748, Note_off_c, 0, 66, 100
2, 58752, Note_on_c, 0, 64, 80
2, 59520, Note_on_c, 0, 56, 80
2, 59900, Note_off_c, 0, 64, 100
2, 59900, Note_off_c, 0, 56, 100
2, 59904, Note_on_c, 0, 63, 80
2, 59904, Note_on_c, 0, 57, 80
2, 60284, Note_off_c, 0, 57, 100
2, 60288, Note_on_c, 0, 57, 80
2, 60476, Note_off_c, 0, 57, 100
2, 60480, Note_on_c, 0, 59, 80
2, 60668, Note_off_c, 0, 59, 100
2, 60672, Note_on_c, 0, 60, 80
2, 60860, Note_off_c, 0, 60, 100
2, 60864, Note_on_c, 0, 57, 80
2, 61052, Note_off_c, 0, 63, 100
2, 61052, Note_off_c, 0, 57, 100
2, 61056, Note_on_c, 0, 64, 80
2, 61056, Note_on_c, 0, 56, 80
2, 61436, Note_off_c, 0, 64, 100
2, 61436, Note_off_c, 0, 56, 100
2, 61824, Note_on_c, 0, 68, 80
2, 61824, Note_on_c, 0, 64, 80
2, 62204, Note_off_c, 0, 68, 100
2, 62204, Note_off_c, 0, 64, 100
2, 62208, Note_on_c, 0, 63, 80
2, 62208, Note_on_c, 0, 69, 80
2, 62588, Note_off_c, 0, 69, 100
2, 62592, Note_on_c, 0, 69, 80
2, 62780, Note_off_c, 0, 69, 100
2, 62784, Note_on_c, 0, 71, 80
2, 62972, Note_off_c, 0, 71, 100
2, 62976, Note_on_c, 0, 72, 80
2, 63164, Note_off_c, 0, 72, 100
2, 63168, Note_on_c, 0, 69, 80
2, 63356, Note_off_c, 0, 63, 100
2, 63356, Note_off_c, 0, 69, 100
2, 63360, Note_on_c, 0, 68, 80
2, 63360, Note_on_c, 0, 64, 80
2, 63740, Note_off_c, 0, 68, 100
2, 63740, Note_off_c, 0, 64, 100
2, 64128, Note_on_c, 0, 76, 80
2, 64128, Note_on_c, 0, 68, 80
2, 64508, Note_off_c, 0, 76, 100
2, 64508, Note_off_c, 0, 68, 100
2, 64512, Note_on_c, 0, 75, 80
2, 64512, Note_on_c, 0, 69, 80
2, 64892, Note_off_c, 0, 69, 100
2, 64896, Note_on_c, 0, 69, 82
2, 65084, Note_off_c, 0, 69, 100
2, 65088, Note_on_c, 0, 71, 83
2, 65276, Note_off_c, 0, 71, 100
2, 65280, Note_on_c, 0, 72, 84
2, 65468, Note_off_c, 0, 72, 100
2, 65472, Note_on_c, 0, 69, 85
2, 65660, Note_off_c, 0, 75, 100
2, 65660, Note_off_c, 0, 69, 100
2, 65664, Note_on_c, 0, 68, 87
2, 65664, Note_on_c, 0, 76, 87
2, 66044, Note_off_c, 0, 68, 100
2, 66044, Note_off_c, 0, 76, 100
2, 66048, Note_on_c, 0, 75, 89
2, 66048, Note_on_c, 0, 69, 89
2, 66236, Note_off_c, 0, 69, 100
2, 66240, Note_on_c, 0, 71, 90
2, 66428, Note_off_c, 0, 71, 100
2, 66432, Note_on_c, 0, 72, 91
2, 66620, Note_off_c, 0, 72, 100
2, 66624, Note_on_c, 0, 69, 92
2, 66812, Note_off_c, 0, 75, 100
2, 66812, Note_off_c, 0, 69, 100
2, 66816, Note_on_c, 0, 68, 94
2, 66816, Note_on_c, 0, 76, 94
2, 67196, Note_off_c, 0, 68, 100
2, 67196, Note_off_c, 0, 76, 100
2, 67200, Note_on_c, 0, 75, 96
2, 67200, Note_on_c, 0, 69, 96
2, 67388, Note_off_c, 0, 69, 100
2, 67392, Note_on_c, 0, 71, 97
2, 67580, Note_off_c, 0, 71, 100
2, 67584, Note_on_c, 0, 72, 98
2, 67772, Note_off_c, 0, 72, 100
2, 67776, Note_on_c, 0, 69, 99
2, 67964, Note_off_c, 0, 75, 100
2, 67964, Note_off_c, 0, 69, 100
2, 67968, Note_on_c, 0, 68, 80
2, 67968, Note_on_c, 0, 76, 80
2, 68348, Note_off_c, 0, 68, 100
2, 68348, Note_off_c, 0, 76, 100
2, 69120, Note_on_c, 0, 80, 80
2, 69120, Note_on_c, 0, 76, 80
2, 69500, Note_off_c, 0, 80, 100
2, 69500, Note_off_c, 0, 76, 100
2, 70272, Note_on_c, 0, 88, 80
2, 70272, Note_on_c, 0, 80, 80
2, 70272, Note_on_c, 0, 76, 80
2, 70652, Note_off_c, 0, 88, 100
2, 70652, Note_off_c, 0, 80, 100
2, 70652, Note_off_c, 0, 76, 100
2, 71424, Note_on_c, 0, 88, 80
2, 72380, Note_off_c, 0, 88, 100
2, 72384, Note_on_c, 0, 64, 80
2, 72572, Note_off_c, 0, 64, 100
2, 72576, Key_signature, 0, "major"
2, 72576, Note_on_c, 0, 64, 80
2, 72576, Note_on_c, 0, 55, 80
2, 73724, Note_off_c, 0, 64, 100
2, 73724, Note_off_c, 0, 55, 100
2, 73728, Note_on_c, 0, 53, 80
2, 73728, Note_on_c, 0, 62, 80
2, 74108, Note_off_c, 0, 62, 100
2, 74112, Note_on_c, 0, 65, 80
2, 74492, Note_off_c, 0, 65, 100
2, 74496, Note_on_c, 0, 59, 80
2, 74876, Note_off_c, 0, 53, 100
2, 74876, Note_off_c, 0, 59, 100
2, 74880, Note_on_c, 0, 60, 80
2, 74880, Note_on_c, 0, 52, 80
2, 75260, Note_off_c, 0, 60, 100
2, 75260, Note_off_c, 0, 52, 100
2, 75264, Note_on_c, 0, 64, 80
2, 75644, Note_off_c, 0, 64, 100
2, 75648, Note_on_c, 0, 67, 80
2, 76032, Note_on_c, 0, 55, 80
2, 76412, Note_off_c, 0, 67, 100
2, 76412, Note_off_c, 0, 55, 100
2, 76416, Note_on_c, 0, 66, 80
2, 76416, Note_on_c, 0, 57, 80
2, 76796, Note_off_c, 0, 66, 100
2, 76796, Note_off_c, 0, 57, 100
2, 76800, Note_on_c, 0, 65, 80
2, 76800, Note_on_c, 0, 59, 80
2, 77180, Note_off_c, 0, 65, 100
2, 77180, Note_off_c, 0, 59, 100
2, 77184, Note_on_c, 0, 64, 80
2, 77184, Note_on_c, 0, 60, 80
2, 77184, Note_on_c, 0, 55, 80
2, 78332, Note_off_c, 0, 64, 100
2, 78332, Note_off_c, 0, 60, 100
2, 78332, Note_off_c, 0, 55, 100
2, 78336, Note_on_c, 0, 53, 80
2, 78336, Note_on_c, 0, 62, 80
2, 78716, Note_off_c, 0, 62, 100
2, 78720, Note_on_c, 0, 65, 80
2, 79100, Note_off_c, 0, 65, 100
2, 79104, Note_on_c, 0, 59, 80
2, 79484, Note_off_c, 0, 53, 100
2, 79484, Note_off_c, 0, 59, 100
2, 79488, Note_on_c, 0, 60, 80
2, 79488, Note_on_c, 0, 52, 80
2, 79868, Note_off_c, 0, 60, 100
2, 79868, Note_off_c, 0, 52, 100
2, 79872, Note_on_c, 0, 64, 80
2, 80252, Note_off_c, 0, 64, 100
2, 80256, Note_on_c, 0, 67, 80
2, 80636, Note_off_c, 0, 67, 100
2, 80640, Note_on_c, 0, 72, 80
2, 81020, Note_off_c, 0, 72, 100
2, 81024, Note_on_c, 0, 74, 80
2, 81404, Note_off_c, 0, 74, 100
2, 81408, Note_on_c, 0, 75, 80
2, 81788, Note_off_c, 0, 75, 100
2, 81792, Note_on_c, 0, 76, 80
2, 82176, Note_on_c, 0, 79, 80
2, 82556, Note_off_c, 0, 76, 100
2, 82560, Note_on_c, 0, 74, 80
2, 82940, Note_off_c, 0, 74, 100
2, 82944, Note_on_c, 0, 72, 80
2, 83324, Note_off_c, 0, 79, 100
2, 83328, Note_on_c, 0, 78, 80
2, 83708, Note_off_c, 0, 72, 100
2, 83708, Note_off_c, 0, 78, 100
2, 83712, Note_on_c, 0, 79, 80
2, 83712, Note_on_c, 0, 71, 80
2, 84092, Note_off_c, 0, 79, 100
2, 84092, Note_off_c, 0, 71, 100
2, 84096, Note_on_c, 0, 69, 80
2, 84480, Note_on_c, 0, 72, 80
2, 84860, Note_off_c, 0, 69, 100
2, 84864, Note_on_c, 0, 67, 80
2, 85244, Note_off_c, 0, 67, 100
2, 85248, Note_on_c, 0, 66, 80
2, 85628, Note_off_c, 0, 72, 100
2, 85632, Note_on_c, 0, 71, 80
2, 86012, Note_off_c, 0, 66, 100
2, 86016, Note_on_c, 0, 67, 80
2, 86396, Note_off_c, 0, 67, 100
2, 86400, Note_on_c, 0, 64, 80
2, 86780, Note_off_c, 0, 71, 100
2, 86784, Note_on_c, 0, 68, 80
2, 87164, Note_off_c, 0, 64, 100
2, 87164, Note_off_c, 0, 68, 100
2, 87168, Note_on_c, 0, 69, 80
2, 87552, Note_on_c, 0, 60, 80
2, 87932, Note_off_c, 0, 69, 100
2, 87936, Note_on_c, 0, 64, 80
2, 88316, Note_off_c, 0, 64, 100
2, 88320, Note_on_c, 0, 66, 80
2, 88700, Note_off_c, 0, 60, 100
2, 88700, Note_off_c, 0, 66, 100
2, 88704, Note_on_c, 0, 59, 80
2, 88704, Note_on_c, 0, 67, 80
2, 89084, Note_off_c, 0, 59, 100
2, 89084, Note_off_c, 0, 67, 100
2, 89088, Note_on_c, 0, 57, 80
2, 89468, Note_off_c, 0, 57, 100
2, 89472, Note_on_c, 0, 55, 80
2, 89852, Note_off_c, 0, 55, 100
2, 91008, Note_on_c, 0, 64, 80
2, 91008, Note_on_c, 0, 55, 80
2, 92156, Note_off_c, 0, 64, 100
2, 92156, Note_off_c, 0, 55, 100
2, 92160, Note_on_c, 0, 53, 80
2, 92160, Note_on_c, 0, 62, 80
2, 92540, Note_off_c, 0, 62, 100
2, 92544, Note_on_c, 0, 65, 80
2, 92924, Note_off_c, 0, 65, 100
2, 92928, Note_on_c, 0, 59, 80
2, 93308, Note_off_c, 0, 53, 100
2, 93308, Note_off_c, 0, 59, 100
2, 93312, Note_on_c, 0, 60, 80
2, 93312, Note_on_c, 0, 52, 80
2, 93692, Note_off_c, 0, 60, 100
2, 93692, Note_off_c, 0, 52, 100
2, 93696, Note_on_c, 0, 64, 80
2, 94076, Note_off_c, 0, 64, 100
2, 94080, Note_on_c, 0, 67, 80
2, 94464, Note_on_c, 0, 55, 80
2, 94844, Note_off_c, 0, 67, 100
2, 94844, Note_off_c, 0, 55, 100
2, 94848, Note_on_c, 0, 66, 80
2, 94848, Note_on_c, 0, 57, 80
2, 95228, Note_off_c, 0, 66, 100
2, 95228, Note_off_c, 0, 57, 100
2, 95232, Note_on_c, 0, 65, 80
2, 95232, Note_on_c, 0, 59, 80
2, 95612, Note_off_c, 0, 65, 100
2, 95612, Note_off_c, 0, 59, 100
2, 95616, Note_on_c, 0, 64, 80
2, 95616, Note_on_c, 0, 60, 80
2, 95616, Note_on_c, 0, 55, 80
2, 96764, Note_off_c, 0, 64, 100
2, 96764, Note_off_c, 0, 60, 100
2, 96764, Note_off_c, 0, 55, 100
2, 96768, Note_on_c, 0, 53, 80
2, 96768, Note_on_c, 0, 62, 80
2, 97148, Note_off_c, 0, 62, 100
2, 97152, Note_on_c, 0, 65, 80
2, 97532, Note_off_c, 0, 65, 100
2, 97536, Note_on_c, 0, 59, 80
2, 97916, Note_off_c, 0, 53, 100
2, 97916, Note_off_c, 0, 59, 100
2, 97920, Note_on_c, 0, 60, 80
2, 97920, Note_on_c, 0, 52, 80
2, 98300, Note_off_c, 0, 60, 100
2, 98300, Note_off_c, 0, 52, 100
2, 98304, Note_on_c, 0, 64, 80
2, 98684, Note_off_c, 0, 64, 100
2, 98688, Note_on_c, 0, 67, 80
2, 99068, Note_off_c, 0, 67, 100
2, 99072, Note_on_c, 0, 72, 80
2, 99452, Note_off_c, 0, 72, 100
2, 99456, Note_on_c, 0, 74, 80
2, 99836, Note_off_c, 0, 74, 100
2, 99840, Note_on_c, 0, 75, 80
2, 100220, Note_off_c, 0, 75, 100
2, 100224, Note_on_c, 0, 76, 80
2, 100608, Note_on_c, 0, 79, 80
2, 100988, Note_off_c, 0, 76, 100
2, 100992, Note_on_c, 0, 74, 80
2, 101372, Note_off_c, 0, 74, 100
2, 101376, Note_on_c, 0, 72, 80
2, 101756, Note_off_c, 0, 79, 100
2, 101760, Note_on_c, 0, 78, 80
2, 102140, Note_off_c, 0, 72, 100
2, 102140, Note_off_c, 0, 78, 100
2, 102144, Note_on_c, 0, 79, 80
2, 102144, Note_on_c, 0, 71, 80
2, 102524, Note_off_c, 0, 79, 100
2, 102524, Note_off_c, 0, 71, 100
2, 102528, Note_on_c, 0, 69, 80
2, 102912, Note_on_c, 0, 72, 80
2, 103292, Note_off_c, 0, 69, 100
2, 103296, Note_on_c, 0, 67, 80
2, 103676, Note_off_c, 0, 67, 100
2, 103680, Note_on_c, 0, 66, 80
2, 104060, Note_off_c, 0, 72, 100
2, 104064, Note_on_c, 0, 71, 80
2, 104444, Note_off_c, 0, 66, 100
2, 104448, Note_on_c, 0, 67, 80
2, 104828, Note_off_c, 0, 67, 100
2, 104832, Note_on_c, 0, 64, 80
2, 105212, Note_off_c, 0, 71, 100
2, 105216, Note_on_c, 0, 68, 80
2, 105596, Note_off_c, 0, 64, 100
2, 105596, Note_off_c, 0, 68, 100
2, 105600, Note_on_c, 0, 69, 80
2, 105984, Note_on_c, 0, 60, 80
2, 106364, Note_off_c, 0, 69, 100
2, 106368, Note_on_c, 0, 64, 80
2, 106748, Note_off_c, 0, 64, 100
2, 106752, Note_on_c, 0, 66, 80
2, 107132, Note_off_c, 0, 60, 100
2, 107132, Note_off_c, 0, 66, 100
2, 107136, Note_on_c, 0, 59, 80
2, 107136, Note_on_c, 0, 67, 80
2, 107516, Note_off_c, 0, 59, 100
2, 107516, Note_off_c, 0, 67, 100
2, 107520, Note_on_c, 0, 57, 80
2, 107900, Note_off_c, 0, 57, 100
2, 107904, Note_on_c, 0, 55, 80
2, 108284, Note_off_c, 0, 55, 100
2, 109824, Note_on_c, 0, 57, 80
2, 110208, Note_on_c, 0, 67, 80
2, 110588, Note_off_c, 0, 67, 100
2, 110592, Note_on_c, 0, 65, 80
2, 110972, Note_off_c, 0, 65, 100
2, 110976, Note_on_c, 0, 64, 80
2, 111356, Note_off_c, 0, 64, 100
2, 111360, Note_on_c, 0, 62, 80
2, 111740, Note_off_c, 0, 57, 100
2, 111740, Note_off_c, 0, 62, 100
2, 112128, Note_on_c, 0, 55, 80
2, 112512, Note_on_c, 0, 65, 80
2, 112892, Note_off_c, 0, 65, 100
2, 112896, Note_on_c, 0, 64, 80
2, 113276, Note_off_c, 0, 64, 100
2, 113280, Note_on_c, 0, 62, 80
2, 113660, Note_off_c, 0, 62, 100
2, 113664, Note_on_c, 0, 60, 80
2, 114044, Note_off_c, 0, 55, 100
2, 114044, Note_off_c, 0, 60, 100
2, 114432, Note_on_c, 0, 69, 83
2, 114816, Note_on_c, 0, 79, 87
2, 115196, Note_off_c, 0, 79, 100
2, 115200, Note_on_c, 0, 77, 91
2, 115580, Note_off_c, 0, 77, 100
2, 115584, Note_on_c, 0, 76, 95
2, 115964, Note_off_c, 0, 76, 100
2, 115968, Note_on_c, 0, 74, 99
2, 116348, Note_off_c, 0, 69, 100
2, 116348, Note_off_c, 0, 74, 100
2, 116736, Note_on_c, 0, 67, 100
2, 117120, Note_on_c, 0, 77, 100
2, 117500, Note_off_c, 0, 77, 100
2, 117504, Note_on_c, 0, 76, 100
2, 117884, Note_off_c, 0, 76, 100
2, 117888, Note_on_c, 0, 74, 100
2, 118268, Note_off_c, 0, 74, 100
2, 118272, Note_on_c, 0, 72, 100
2, 118652, Note_off_c, 0, 67, 100
2, 118652, Note_off_c, 0, 72, 100
2, 118656, Note_on_c, 0, 71, 100
2, 119036, Note_off_c, 0, 71, 100
2, 119040, Note_on_c, 0, 69, 97
2, 119420, Note_off_c, 0, 69, 100
2, 119424, Note_on_c, 0, 67, 93
2, 119804, Note_off_c, 0, 67, 100
2, 119808, Note_on_c, 0, 65, 89
2, 120188, Note_off_c, 0, 65, 100
2, 120192, Note_on_c, 0, 64, 85
2, 120572, Note_off_c, 0, 64, 100
2, 120576, Note_on_c, 0, 62, 81
2, 120956, Note_off_c, 0, 62, 100
2, 120960, Note_on_c, 0, 55, 80
2, 120960, Note_on_c, 0, 64, 80
2, 122108, Note_off_c, 0, 55, 100
2, 122108, Note_off_c, 0, 64, 100
2, 122112, Note_on_c, 0, 53, 80
2, 122112, Note_on_c, 0, 62, 80
2, 122492, Note_off_c, 0, 62, 100
2, 122496, Note_on_c, 0, 65, 80
2, 122876, Note_off_c, 0, 65, 100
2, 122880, Note_on_c, 0, 59, 80
2, 123260, Note_off_c, 0, 53, 100
2, 123260, Note_off_c, 0, 59, 100
2, 123264, Note_on_c, 0, 60, 80
2, 123264, Note_on_c, 0, 52, 80
2, 123644, Note_off_c, 0, 60, 100
2, 123644, Note_off_c, 0, 52, 100
2, 123648, Note_on_c, 0, 64, 80
2, 124028, Note_off_c, 0, 64, 100
2, 124032, Note_on_c, 0, 67, 80
2, 124412, Note_off_c, 0, 67, 100
2, 124416, Note_on_c, 0, 72, 80
2, 124796, Note_off_c, 0, 72, 100
2, 124800, Note_on_c, 0, 74, 80
2, 125180, Note_off_c, 0, 74, 100
2, 125184, Note_on_c, 0, 75, 80
2, 125564, Note_off_c, 0, 75, 100
2, 125568, Note_on_c, 0, 76, 80
2, 125568, Note_on_c, 0, 67, 80
2, 125568, Note_on_c, 0, 64, 80
2, 126716, Note_off_c, 0, 76, 100
2, 126716, Note_off_c, 0, 67, 100
2, 126716, Note_off_c, 0, 64, 100
2, 126720, Note_on_c, 0, 65, 80
2, 126720, Note_on_c, 0, 74, 80
2, 127100, Note_off_c, 0, 74, 100
2, 127104, Note_on_c, 0, 77, 80
2, 127484, Note_off_c, 0, 77, 100
2, 127488, Note_on_c, 0, 71, 80
2, 127868, Note_off_c, 0, 65, 100
2, 127868, Note_off_c, 0, 71, 100
2, 127872, Note_on_c, 0, 72, 80
2, 127872, Note_on_c, 0, 64, 80
2, 128252, Note_off_c, 0, 72, 100
2, 128252, Note_off_c, 0, 64, 100
2, 128256, Note_on_c, 0, 76, 80
2, 128636, Note_off_c, 0, 76, 100
2, 128640, Note_on_c, 0, 79, 80
2, 129020, Note_off_c, 0, 79, 100
2, 129024, Note_on_c, 0, 84, 80
2, 129404, Note_off_c, 0, 84, 100
2, 129408, Note_on_c, 0, 86, 80
2, 129788, Note_off_c, 0, 86, 100
2, 129792, Note_on_c, 0, 87, 80
2, 130172, Note_off_c, 0, 87, 100
2, 130176, Note_on_c, 0, 88, 80
2, 130176, Note_on_c, 0, 76, 80
2, 132476, Note_off_c, 0, 76, 100
2, 132476, Note_off_c, 0, 88, 100
2, 132480, Note_on_c, 0, 83, 80
2, 132480, Note_on_c, 0, 71, 80
2, 134780, Note_off_c, 0, 71, 100
2, 134780, Note_off_c, 0, 83, 100
2, 134784, Key_signature, 1, "major"
2, 134784, Note_on_c, 0, 64, 80
2, 134784, Note_on_c, 0, 59, 80
2, 134784, Note_on_c, 0, 55, 80
2, 135356, Note_off_c, 0, 64, 100
2, 135360, Note_on_c, 0, 63, 80
2, 135548, Note_off_c, 0, 63, 100
2, 135552, Note_on_c, 0, 64, 80
2, 135932, Note_off_c, 0, 59, 100
2, 135932, Note_off_c, 0, 55, 100
2, 135932, Note_off_c, 0, 64, 100
2, 135936, Note_on_c, 0, 64, 80
2, 135936, Note_on_c, 0, 55, 80
2, 135936, Note_on_c, 0, 60, 80
2, 136508, Note_off_c, 0, 64, 100
2, 136512, Note_on_c, 0, 63, 80
2, 136700, Note_off_c, 0, 63, 100
2, 136704, Note_on_c, 0, 64, 80
2, 137084, Note_off_c, 0, 55, 100
2, 137084, Note_off_c, 0, 60, 100
2, 137084, Note_off_c, 0, 64, 100
2, 137088, Note_on_c, 0, 67, 80
2, 137088, Note_on_c, 0, 61, 80
2, 137088, Note_on_c, 0, 58, 80
2, 138236, Note_off_c, 0, 61, 100
2, 138236, Note_off_c, 0, 58, 100
2, 138240, Note_on_c, 0, 60, 80
2, 138240, Note_on_c, 0, 57, 80
2, 138620, Note_off_c, 0, 67, 100
2, 138624, Note_on_c, 0, 66, 80
2, 138812, Note_off_c, 0, 66, 100
2, 138816, Note_on_c, 0, 64, 80
2, 139004, Note_off_c, 0, 64, 100
2, 139008, Note_on_c, 0, 63, 80
2, 139196, Note_off_c, 0, 63, 100
2, 139200, Note_on_c, 0, 66, 80
2, 139388, Note_off_c, 0, 60, 100
2, 139388, Note_off_c, 0, 57, 100
2, 139388, Note_off_c, 0, 66, 100
2, 139392, Note_on_c, 0, 64, 80
2, 139392, Note_on_c, 0, 59, 80
2, 139772, Note_off_c, 0, 64, 100
2, 139772, Note_off_c, 0, 59, 100
2, 139776, Note_on_c, 0, 66, 80
2, 139776, Note_on_c, 0, 59, 80
2, 140156, Note_off_c, 0, 66, 100
2, 140156, Note_off_c, 0, 59, 100
2, 140160, Note_on_c, 0, 67, 80
2, 140160, Note_on_c, 0, 59, 80
2, 140540, Note_off_c, 0, 67, 100
2, 140540, Note_off_c, 0, 59, 100
2, 140544, Note_on_c, 0, 71, 80
2, 140544, Note_on_c, 0, 66, 80
2, 140924, Note_off_c, 0, 71, 100
2, 140928, Note_on_c, 0, 69, 80
2, 141308, Note_off_c, 0, 66, 100
2, 141308, Note_off_c, 0, 69, 100
2, 141312, Note_on_c, 0, 67, 80
2, 141312, Note_on_c, 0, 64, 80
2, 141692, Note_off_c, 0, 67, 100
2, 141692, Note_off_c, 0, 64, 100
2, 141696, Note_on_c, 0, 66, 80
2, 141696, Note_on_c, 0, 63, 80
2, 142460, Note_off_c, 0, 66, 100
2, 142460, Note_off_c, 0, 63, 100
2, 142464, Note_on_c, 0, 64, 80
2, 142464, Note_on_c, 0, 69, 80
2, 142652, Note_off_c, 0, 69, 100
2, 142656, Note_on_c, 0, 67, 80
2, 142844, Note_off_c, 0, 64, 100
2, 142844, Note_off_c, 0, 67, 100
2, 142848, Note_on_c, 0, 66, 80
2, 142848, Note_on_c, 0, 63, 80
2, 143228, Note_off_c, 0, 66, 100
2, 143228, Note_off_c, 0, 63, 100
2, 143616, Note_on_c, 0, 71, 80
2, 143996, Note_off_c, 0, 71, 100
2, 144000, Note_on_c, 0, 76, 80
2, 144000, Note_on_c, 0, 71, 80
2, 144000, Note_on_c, 0, 67, 80
2, 144572, Note_off_c, 0, 76, 100
2, 144576, Note_on_c, 0, 75, 80
2, 144764, Note_off_c, 0, 75, 100
2, 144768, Note_on_c, 0, 76, 80
2, 145148, Note_off_c, 0, 71, 100
2, 145148, Note_off_c, 0, 67, 100
2, 145148, Note_off_c, 0, 76, 100
2, 145152, Note_on_c, 0, 76, 80
2, 145152, Note_on_c, 0, 72, 80
2, 145152, Note_on_c, 0, 67, 80
2, 145724, Note_off_c, 0, 76, 100
2, 145728, Note_on_c, 0, 75, 94
2, 145916, Note_off_c, 0, 75, 100
2, 145920, Note_on_c, 0, 76, 99
2, 146300, Note_off_c, 0, 72, 100
2, 146300, Note_off_c, 0, 67, 100
2, 146300, Note_off_c, 0, 76, 100
2, 146304, Note_on_c, 0, 79, 100
2, 146304, Note_on_c, 0, 73, 100
2, 146304, Note_on_c, 0, 70, 100
2, 147452, Note_off_c, 0, 73, 100
2, 147452, Note_off_c, 0, 70, 100
2, 147456, Note_on_c, 0, 72, 80
2, 147456, Note_on_c, 0, 69, 80
2, 147836, Note_off_c, 0, 79, 100
2, 147840, Note_on_c, 0, 78, 80
2, 148028, Note_off_c, 0, 78, 100
2, 148032, Note_on_c, 0, 76, 80
2, 148220, Note_off_c, 0, 76, 100
2, 148224, Note_on_c, 0, 75, 80
2, 148412, Note_off_c, 0, 75, 100
2, 148416, Note_on_c, 0, 78, 80
2, 148604, Note_off_c, 0, 72, 100
2, 148604, Note_off_c, 0, 69, 100
2, 148604, Note_off_c, 0, 78, 100
2, 148608, Note_on_c, 0, 76, 80
2, 148608, Note_on_c, 0, 71, 80
2, 148988, Note_off_c, 0, 76, 100
2, 148988, Note_off_c, 0, 71, 100
2, 148992, Note_on_c, 0, 78, 80
2, 148992, Note_on_c, 0, 71, 80
2, 149372, Note_off_c, 0, 78, 100
2, 149372, Note_off_c, 0, 71, 100
2, 149376, Note_on_c, 0, 79, 80
2, 149376, Note_on_c, 0, 71, 80
2, 149756, Note_off_c, 0, 79, 100
2, 149756, Note_off_c, 0, 71, 100
2, 149760, Note_on_c, 0, 83, 80
2, 149760, Note_on_c, 0, 78, 80
2, 150140, Note_off_c, 0, 83, 100
2, 150144, Note_on_c, 0, 81, 80
2, 150524, Note_off_c, 0, 78, 100
2, 150524, Note_off_c, 0, 81, 100
2, 150528, Note_on_c, 0, 79, 80
2, 150528, Note_on_c, 0, 76, 80
2, 150908, Note_off_c, 0, 79, 100
2, 150908, Note_off_c, 0, 76, 100
2, 150912, Note_on_c, 0, 79, 80
2, 150912, Note_on_c, 0, 76, 80
2, 151676, Note_off_c, 0, 79, 100
2, 151676, Note_off_c, 0, 76, 100
2, 151680, Note_on_c, 0, 78, 80
2, 151680, Note_on_c, 0, 75, 80
2, 152060, Note_off_c, 0, 78, 100
2, 152060, Note_off_c, 0, 75, 100
2, 152064, Note_on_c, 0, 76, 80
2, 152444, Note_off_c, 0, 76, 100
2, 153216, Note_on_c, 0, 64, 80
2, 153216, Note_on_c, 0, 60, 80
2, 153216, Note_on_c, 0, 55, 80
2, 153788, Note_off_c, 0, 64, 100
2, 153792, Note_on_c, 0, 63, 80
2, 153980, Note_off_c, 0, 63, 100
2, 153984, Note_on_c, 0, 64, 80
2, 154364, Note_off_c, 0, 60, 100
2, 154364, Note_off_c, 0, 55, 100
2, 154364, Note_off_c, 0, 64, 100
2, 154368, Note_on_c, 0, 67, 100
2, 154368, Note_on_c, 0, 62, 100
2, 154368, Note_on_c, 0, 59, 100
2, 155516, Note_off_c, 0, 67, 100
2, 155516, Note_off_c, 0, 62, 100
2, 155516, Note_off_c, 0, 59, 100
2, 155520, Note_on_c, 0, 65, 80
2, 155520, Note_on_c, 0, 62, 80
2, 155520, Note_on_c, 0, 57, 80
2, 156092, Note_off_c, 0, 65, 100
2, 156096, Note_on_c, 0, 64, 80
2, 156284, Note_off_c, 0, 64, 100
2, 156288, Note_on_c, 0, 65, 80
2, 156668, Note_off_c, 0, 62, 100
2, 156668, Note_off_c, 0, 57, 100
2, 156668, Note_off_c, 0, 65, 100
2, 156672, Note_on_c, 0, 67, 100
2, 156672, Note_on_c, 0, 62, 100
2, 157820, Note_off_c, 0, 67, 100
2, 157820, Note_off_c, 0, 62, 100
2, 157824, Note_on_c, 0, 64, 80
2, 157824, Note_on_c, 0, 60, 80
2, 157824, Note_on_c, 0, 55, 80
2, 158396, Note_off_c, 0, 64, 100
2, 158400, Note_on_c, 0, 63, 80
2, 158588, Note_off_c, 0, 63, 100
2, 158592, Note_on_c, 0, 64, 80
2, 158972, Note_off_c, 0, 60, 100
2, 158972, Note_off_c, 0, 55, 100
2, 158972, Note_off_c, 0, 64, 100
2, 158976, Note_on_c, 0, 62, 80
2, 158976, Note_on_c, 0, 59, 80
2, 158976, Note_on_c, 0, 67, 80
2, 159740, Note_off_c, 0, 67, 100
2, 159744, Note_on_c, 0, 67, 80
2, 160124, Note_off_c, 0, 62, 100
2, 160124, Note_off_c, 0, 59, 100
2, 160124, Note_off_c, 0, 67, 100
2, 160128, Note_on_c, 0, 62, 80
2, 160128, Note_on_c, 0, 57, 80
2, 160128, Note_on_c, 0, 67, 80
2, 160892, Note_off_c, 0, 67, 100
2, 160896, Note_on_c, 0, 66, 80
2, 161276, Note_off_c, 0, 62, 100
2, 161276, Note_off_c, 0, 57, 100
2, 161276, Note_off_c, 0, 66, 100
2, 161280, Note_on_c, 0, 67, 80
2, 161280, Note_on_c, 0, 62, 80
2, 161280, Note_on_c, 0, 59, 80
2, 161660, Note_off_c, 0, 67, 100
2, 161660, Note_off_c, 0, 62, 100
2, 161660, Note_off_c, 0, 59, 100
2, 162432, Note_on_c, 0, 76, 80
2, 162432, Note_on_c, 0, 72, 80
2, 162432, Note_on_c, 0, 67, 80
2, 163004, Note_off_c, 0, 76, 100
2, 163008, Note_on_c, 0, 75, 80
2, 163196, Note_off_c, 0, 75, 100
2, 163200, Note_on_c, 0, 76, 80
2, 163580, Note_off_c, 0, 72, 100
2, 163580, Note_off_c, 0, 67, 100
2, 163580, Note_off_c, 0, 76, 100
2, 163584, Note_on_c, 0, 79, 100
2, 163584, Note_on_c, 0, 74, 100
2, 163584, Note_on_c, 0, 71, 100
2, 164732, Note_off_c, 0, 79, 100
2, 164732, Note_off_c, 0, 74, 100
2, 164732, Note_off_c, 0, 71, 100
2, 164736, Note_on_c, 0, 77, 80
2, 164736, Note_on_c, 0, 74, 80
2, 164736, Note_on_c, 0, 69, 80
2, 165308, Note_off_c, 0, 77, 100
2, 165312, Note_on_c, 0, 76, 80
2, 165500, Note_off_c, 0, 76, 100
2, 165504, Note_on_c, 0, 77, 80
2, 165884, Note_off_c, 0, 74, 100
2, 165884, Note_off_c, 0, 69, 100
2, 165884, Note_off_c, 0, 77, 100
2, 165888, Note_on_c, 0, 79, 100
2, 165888, Note_on_c, 0, 74, 100
2, 167036, Note_off_c, 0, 79, 100
2, 167036, Note_off_c, 0, 74, 100
2, 167040, Note_on_c, 0, 76, 80
2, 167040, Note_on_c, 0, 72, 80
2, 167040, Note_on_c, 0, 67, 80
2, 167612, Note_off_c, 0, 76, 100
2, 167616, Note_on_c, 0, 75, 80
2, 167804, Note_off_c, 0, 75, 100
2, 167808, Note_on_c, 0, 76, 80
2, 168188, Note_off_c, 0, 72, 100
2, 168188, Note_off_c, 0, 67, 100
2, 168188, Note_off_c, 0, 76, 100
2, 168192, Note_on_c, 0, 76, 80
2, 168192, Note_on_c, 0, 64, 80
2, 168956, Note_off_c, 0, 76, 100
2, 168956, Note_off_c, 0, 64, 100
2, 168960, Note_on_c, 0, 76, 80
2, 168960, Note_on_c, 0, 64, 80
2, 169340, Note_off_c, 0, 76, 100
2, 169340, Note_off_c, 0, 64, 100
2, 169344, Note_on_c, 0, 76, 80
2, 169344, Note_on_c, 0, 64, 80
2, 170108, Note_off_c, 0, 76, 100
2, 170108, Note_off_c, 0, 64, 100
2, 170112, Note_on_c, 0, 75, 80
2, 170112, Note_on_c, 0, 63, 80
2, 170492, Note_off_c, 0, 75, 100
2, 170492, Note_off_c, 0, 63, 100
2, 170496, Note_on_c, 0, 78, 80
2, 170496, Note_on_c, 0, 66, 80
2, 172412, Note_off_c, 0, 66, 100
2, 172412, Note_off_c, 0, 78, 100
2, 172416, Note_on_c, 0, 71, 80
2, 172796, Note_off_c, 0, 71, 100
2, 172800, Note_on_c, 0, 76, 80
2, 172800, Note_on_c, 0, 71, 80
2, 172800, Note_on_c, 0, 67, 80
2, 173372, Note_off_c, 0, 76, 100
2, 173376, Note_on_c, 0, 75, 80
2, 173564, Note_off_c, 0, 75, 100
2, 173568, Note_on_c, 0, 76, 80
2, 173948, Note_off_c, 0, 71, 100
2, 173948, Note_off_c, 0, 67, 100
2, 173948, Note_off_c, 0, 76, 100
2, 173952, Note_on_c, 0, 76, 80
2, 173952, Note_on_c, 0, 67, 80
2, 173952, Note_on_c, 0, 72, 80
2, 174524, Note_off_c, 0, 76, 100
2, 174528, Note_on_c, 0, 75, 94
2, 174716, Note_off_c, 0, 75, 100
2, 174720, Note_on_c, 0, 76, 99
2, 175100, Note_off_c, 0, 67, 100
2, 175100, Note_off_c, 0, 72, 100
2, 175100, Note_off_c, 0, 76, 100
2, 175104, Note_on_c, 0, 79, 100
2, 175104, Note_on_c, 0, 73, 100
2, 175104, Note_on_c, 0, 70, 100
2, 176252, Note_off_c, 0, 73, 100
2, 176252, Note_off_c, 0, 70, 100
2, 176256, Note_on_c, 0, 72, 80
2, 176256, Note_on_c, 0, 69, 80
2, 176636, Note_off_c, 0, 79, 100
2, 176640, Note_on_c, 0, 78, 80
2, 176828, Note_off_c, 0, 78, 100
2, 176832, Note_on_c, 0, 76, 80
2, 177020, Note_off_c, 0, 76, 100
2, 177024, Note_on_c, 0, 75, 80
2, 177212, Note_off_c, 0, 75, 100
2, 177216, Note_on_c, 0, 78, 80
2, 177404, Note_off_c, 0, 72, 100
2, 177404, Note_off_c, 0, 69, 100
2, 177404, Note_off_c, 0, 78, 100
2, 177408, Note_on_c, 0, 76, 80
2, 177408, Note_on_c, 0, 71, 80
2, 177788, Note_off_c, 0, 76, 100
2, 177788, Note_off_c, 0, 71, 100
2, 177792, Note_on_c, 0, 78, 80
2, 177792, Note_on_c, 0, 71, 80
2, 178172, Note_off_c, 0, 78, 100
2, 178172, Note_off_c, 0, 71, 100
2, 178176, Note_on_c, 0, 79, 80
2, 178176, Note_on_c, 0, 71, 80
2, 178556, Note_off_c, 0, 79, 100
2, 178556, Note_off_c, 0, 71, 100
2, 178560, Note_on_c, 0, 83, 80
2, 178560, Note_on_c, 0, 78, 80
2, 178940, Note_off_c, 0, 83, 100
2, 178944, Note_on_c, 0, 81, 80
2, 179324, Note_off_c, 0, 78, 100
2, 179324, Note_off_c, 0, 81, 100
2, 179328, Note_on_c, 0, 79, 80
2, 179328, Note_on_c, 0, 76, 80
2, 179708, Note_off_c, 0, 79, 100
2, 179708, Note_off_c, 0, 76, 100
2, 179712, Note_on_c, 0, 78, 80
2, 179712, Note_on_c, 0, 75, 80
2, 180476, Note_off_c, 0, 78, 100
2, 180476, Note_off_c, 0, 75, 100
2, 180480, Note_on_c, 0, 76, 80
2, 180480, Note_on_c, 0, 81, 80
2, 180668, Note_off_c, 0, 81, 100
2, 180672, Note_on_c, 0, 79, 80
2, 180860, Note_off_c, 0, 76, 100
2, 180860, Note_off_c, 0, 79, 100
2, 180864, Note_on_c, 0, 78, 80
2, 180864, Note_on_c, 0, 75, 80
2, 181244, Note_off_c, 0, 78, 100
2, 181244, Note_off_c, 0, 75, 100
2, 181632, Note_on_c, 0, 59, 80
2, 182012, Note_off_c, 0, 59, 100
2, 182016, Note_on_c, 0, 64, 80
2, 182588, Note_off_c, 0, 64, 100
2, 182592, Note_on_c, 0, 63, 80
2, 182780, Note_off_c, 0, 63, 100
2, 182784, Note_on_c, 0, 64, 80
2, 183164, Note_off_c, 0, 64, 100
2, 183168, Note_on_c, 0, 64, 80
2, 183740, Note_off_c, 0, 64, 100
2, 183744, Note_on_c, 0, 63, 94
2, 183932, Note_off_c, 0, 63, 100
2, 183936, Note_on_c, 0, 64, 99
2, 184316, Note_off_c, 0, 64, 100
2, 184320, Note_on_c, 0, 72, 100
2, 184320, Note_on_c, 0, 65, 100
2, 184320, Note_on_c, 0, 62, 100
2, 185852, Note_off_c, 0, 72, 100
2, 185856, Note_on_c, 0, 71, 100
2, 186044, Note_off_c, 0, 71, 100
2, 186048, Note_on_c, 0, 69, 100
2, 186236, Note_off_c, 0, 69, 100
2, 186240, Note_on_c, 0, 68, 100
2, 186428, Note_off_c, 0, 68, 100
2, 186432, Note_on_c, 0, 71, 100
2, 186620, Note_off_c, 0, 62, 100
2, 186620, Note_off_c, 0, 65, 100
2, 186620, Note_off_c, 0, 71, 100
2, 186624, Note_on_c, 0, 69, 100
2, 186624, Note_on_c, 0, 64, 100
2, 186624, Note_on_c, 0, 60, 100
2, 187004, Note_off_c, 0, 69, 100
2, 187004, Note_off_c, 0, 64, 100
2, 187004, Note_off_c, 0, 60, 100
2, 187008, Note_on_c, 0, 71, 110
2, 187008, Note_on_c, 0, 65, 110
2, 187008, Note_on_c, 0, 62, 110
2, 187196, Note_off_c, 0, 71, 100
2, 187200, Note_on_c, 0, 69, 100
2, 187388, Note_off_c, 0, 69, 100
2, 187392, Note_on_c, 0, 68, 100
2, 187580, Note_off_c, 0, 68, 100
2, 187584, Note_on_c, 0, 71, 100
2, 187772, Note_off_c, 0, 65, 100
2, 187772, Note_off_c, 0, 62, 100
2, 187772, Note_off_c, 0, 71, 100
2, 187776, Note_on_c, 0, 69, 100
2, 187776, Note_on_c, 0, 64, 100
2, 187776, Note_on_c, 0, 60, 100
2, 188156, Note_off_c, 0, 69, 100
2, 188156, Note_off_c, 0, 64, 100
2, 188156, Note_off_c, 0, 60, 100
2, 188160, Note_on_c, 0, 71, 110
2, 188160, Note_on_c, 0, 65, 110
2, 188160, Note_on_c, 0, 62, 110
2, 188348, Note_off_c, 0, 71, 100
2, 188352, Note_on_c, 0, 69, 100
2, 188540, Note_off_c, 0, 69, 100
2, 188544, Note_on_c, 0, 68, 100
2, 188732, Note_off_c, 0, 68, 100
2, 188736, Note_on_c, 0, 71, 100
2, 188924, Note_off_c, 0, 65, 100
2, 188924, Note_off_c, 0, 62, 100
2, 188924, Note_off_c, 0, 71, 100
2, 188928, Note_on_c, 0, 69, 100
2, 188928, Note_on_c, 0, 64, 100
2, 188928, Note_on_c, 0, 60, 100
2, 189308, Note_off_c, 0, 69, 100
2, 189308, Note_off_c, 0, 64, 100
2, 189308, Note_off_c, 0, 60, 100
2, 189312, Note_on_c, 0, 69, 80
2, 189500, Note_off_c, 0, 69, 100
2, 189504, Note_on_c, 0, 68, 82
2, 189692, Note_off_c, 0, 68, 100
2, 189696, Note_on_c, 0, 69, 84
2, 189884, Note_off_c, 0, 69, 100
2, 189888, Note_on_c, 0, 71, 86
2, 190076, Note_off_c, 0, 71, 100
2, 190080, Note_on_c, 0, 72, 88
2, 190268, Note_off_c, 0, 72, 100
2, 190272, Note_on_c, 0, 74, 91
2, 190460, Note_off_c, 0, 74, 100
2, 190464, Note_on_c, 0, 76, 93
2, 190652, Note_off_c, 0, 76, 100
2, 190656, Note_on_c, 0, 75, 95
2, 190844, Note_off_c, 0, 75, 100
2, 190848, Note_on_c, 0, 76, 97
2, 191036, Note_off_c, 0, 76, 100
2, 191040, Note_on_c, 0, 72, 99
2, 191228, Note_off_c, 0, 72, 100
2, 191232, Note_on_c, 0, 71, 80
2, 191612, Note_off_c, 0, 71, 100
2, 191616, Note_on_c, 0, 71, 80
2, 191804, Note_off_c, 0, 71, 100
2, 191808, Note_on_c, 0, 70, 80
2, 191996, Note_off_c, 0, 70, 100
2, 192000, Note_on_c, 0, 71, 80
2, 192188, Note_off_c, 0, 71, 100
2, 192192, Note_on_c, 0, 67, 80
2, 192380, Note_off_c, 0, 67, 100
2, 192384, Note_on_c, 0, 66, 80
2, 192384, Note_on_c, 0, 63, 80
2, 192764, Note_off_c, 0, 66, 100
2, 192764, Note_off_c, 0, 63, 100
2, 192768, Note_on_c, 0, 71, 80
2, 192956, Note_off_c, 0, 71, 100
2, 192960, Note_on_c, 0, 70, 80
2, 193148, Note_off_c, 0, 70, 100
2, 193152, Note_on_c, 0, 71, 80
2, 193340, Note_off_c, 0, 71, 100
2, 193344, Note_on_c, 0, 66, 80
2, 193532, Note_off_c, 0, 66, 100
2, 193536, Note_on_c, 0, 64, 80
2, 194304, Note_on_c, 0, 56, 80
2, 194684, Note_off_c, 0, 64, 100
2, 194684, Note_off_c, 0, 56, 100
2, 194688, Note_on_c, 0, 63, 81
2, 194688, Note_on_c, 0, 57, 81
2, 195068, Note_off_c, 0, 57, 100
2, 195072, Note_on_c, 0, 57, 83
2, 195260, Note_off_c, 0, 57, 100
2, 195264, Note_on_c, 0, 59, 84
2, 195452, Note_off_c, 0, 59, 100
2, 195456, Note_on_c, 0, 60, 85
2, 195644, Note_off_c, 0, 60, 100
2, 195648, Note_on_c, 0, 57, 86
2, 195836, Note_off_c, 0, 63, 100
2, 195836, Note_off_c, 0, 57, 100
2, 195840, Note_on_c, 0, 64, 87
2, 195840, Note_on_c, 0, 56, 87
2, 196220, Note_off_c, 0, 64, 100
2, 196220, Note_off_c, 0, 56, 100
2, 196608, Note_on_c, 0, 68, 91
2, 196608, Note_on_c, 0, 64, 91
2, 196988, Note_off_c, 0, 68, 100
2, 196988, Note_off_c, 0, 64, 100
2, 196992, Note_on_c, 0, 63, 93
2, 196992, Note_on_c, 0, 69, 93
2, 197372, Note_off_c, 0, 69, 100
2, 197376, Note_on_c, 0, 69, 95
2, 197564, Note_off_c, 0, 69, 100
2, 197568, Note_on_c, 0, 71, 96
2, 197756, Note_off_c, 0, 71, 100
2, 197760, Note_on_c, 0, 72, 97
2, 197948, Note_off_c, 0, 72, 100
2, 197952, Note_on_c, 0, 69, 98
2, 198140, Note_off_c, 0, 63, 100
2, 198140, Note_off_c, 0, 69, 100
2, 198144, Note_on_c, 0, 68, 99
2, 198144, Note_on_c, 0, 64, 99
2, 198524, Note_off_c, 0, 68, 100
2, 198524, Note_off_c, 0, 64, 100
2, 198912, Note_on_c, 0, 76, 100
2, 198912, Note_on_c, 0, 68, 100
2, 199292, Note_off_c, 0, 76, 100
2, 199292, Note_off_c, 0, 68, 100
2, 199296, Note_on_c, 0, 75, 110
2, 199296, Note_on_c, 0, 69, 110
2, 199676, Note_off_c, 0, 69, 100
2, 199680, Note_on_c, 0, 69, 100
2, 199868, Note_off_c, 0, 69, 100
2, 199872, Note_on_c, 0, 71, 100
2, 200060, Note_off_c, 0, 71, 100
2, 200064, Note_on_c, 0, 72, 100
2, 200252, Note_off_c, 0, 72, 100
2, 200256, Note_on_c, 0, 69, 100
2, 200444, Note_off_c, 0, 75, 100
2, 200444, Note_off_c, 0, 69, 100
2, 200448, Note_on_c, 0, 68, 110
2, 200448, Note_on_c, 0, 76, 110
2, 200828, Note_off_c, 0, 68, 100
2, 200828, Note_off_c, 0, 76, 100
2, 200832, Note_on_c, 0, 75, 100
2, 200832, Note_on_c, 0, 69, 100
2, 201020, Note_off_c, 0, 69, 100
2, 201024, Note_on_c, 0, 71, 100
2, 201212, Note_off_c, 0, 71, 100
2, 201216, Note_on_c, 0, 72, 100
2, 201404, Note_off_c, 0, 72, 100
2, 201408, Note_on_c, 0, 69, 100
2, 201596, Note_off_c, 0, 75, 100
2, 201596, Note_off_c, 0, 69, 100
2, 201600, Note_on_c, 0, 68, 110
2, 201600, Note_on_c, 0, 76, 110
2, 201980, Note_off_c, 0, 68, 100
2, 201980, Note_off_c, 0, 76, 100
2, 201984, Note_on_c, 0, 75, 100
2, 201984, Note_on_c, 0, 69, 100
2, 202172, Note_off_c, 0, 69, 100
2, 202176, Note_on_c, 0, 71, 100
2, 202364, Note_off_c, 0, 71, 100
2, 202368, Note_on_c, 0, 72, 100
2, 202556, Note_off_c, 0, 72, 100
2, 202560, Note_on_c, 0, 69, 100
2, 202748, Note_off_c, 0, 75, 100
2, 202748, Note_off_c, 0, 69, 100
2, 202752, Note_on_c, 0, 68, 80
2, 202752, Note_on_c, 0, 76, 80
2, 203132, Note_off_c, 0, 68, 100
2, 203132, Note_off_c, 0, 76, 100
2, 203904, Note_on_c, 0, 80, 80
2, 203904, Note_on_c, 0, 76, 80
2, 204284, Note_off_c, 0, 80, 100
2, 204284, Note_off_c, 0, 76, 100
2, 205056, Note_on_c, 0, 88, 80
2, 205056, Note_on_c, 0, 80, 80
2, 205056, Note_on_c, 0, 76, 80
2, 205436, Note_off_c, 0, 88, 100
2, 205436, Note_off_c, 0, 80, 100
2, 205436, Note_off_c, 0, 76, 100
2, 206208, Note_on_c, 0, 88, 80
2, 207164, Note_off_c, 0, 88, 100
2, 207168, Note_on_c, 0, 64, 80
2, 207356, Note_off_c, 0, 64, 100
2, 207360, Note_on_c, 0, 64, 80
2, 207360, Note_on_c, 0, 55, 80
2, 208508, Note_off_c, 0, 64, 100
2, 208508, Note_off_c, 0, 55, 100
2, 208512, Note_on_c, 0, 53, 80
2, 208512, Note_on_c, 0, 62, 80
2, 208892, Note_off_c, 0, 62, 100
2, 208896, Note_on_c, 0, 65, 80
2, 209276, Note_off_c, 0, 65, 100
2, 209280, Note_on_c, 0, 59, 80
2, 209660, Note_off_c, 0, 53, 100
2, 209660, Note_off_c, 0, 59, 100
2, 209664, Note_on_c, 0, 60, 80
2, 209664, Note_on_c, 0, 52, 80
2, 210044, Note_off_c, 0, 60, 100
2, 210044, Note_off_c, 0, 52, 100
2, 210048, Note_on_c, 0, 64, 80
2, 210428, Note_off_c, 0, 64, 100
2, 210432, Note_on_c, 0, 67, 80
2, 210812, Note_off_c, 0, 67, 100
2, 210816, Note_on_c, 0, 72, 80
2, 211196, Note_off_c, 0, 72, 100
2, 211200, Note_on_c, 0, 74, 80
2, 211580, Note_off_c, 0, 74, 100
2, 211584, Note_on_c, 0, 75, 80
2, 211964, Note_off_c, 0, 75, 100
2, 211968, Note_on_c, 0, 76, 80
2, 211968, Note_on_c, 0, 67, 80
2, 213116, Note_off_c, 0, 76, 100
2, 213116, Note_off_c, 0, 67, 100
2, 213120, Note_on_c, 0, 65, 80
2, 213120, Note_on_c, 0, 74, 80
2, 213500, Note_off_c, 0, 74, 100
2, 213504, Note_on_c, 0, 77, 80
2, 213884, Note_off_c, 0, 77, 100
2, 213888, Note_on_c, 0, 71, 80
2, 214268, Note_off_c, 0, 65, 100
2, 214268, Note_off_c, 0, 71, 100
2, 214272, Note_on_c, 0, 72, 80
2, 214272, Note_on_c, 0, 64, 80
2, 214652, Note_off_c, 0, 72, 100
2, 214652, Note_off_c, 0, 64, 100
2, 214656, Note_on_c, 0, 76, 80
2, 215036, Note_off_c, 0, 76, 100
2, 215040, Note_on_c, 0, 79, 80
2, 215420, Note_off_c, 0, 79, 100
2, 215424, Note_on_c, 0, 84, 80
2, 215804, Note_off_c, 0, 84, 100
2, 215808, Note_on_c, 0, 86, 80
2, 216188, Note_off_c, 0, 86, 100
2, 216192, Note_on_c, 0, 87, 80
2, 216572, Note_off_c, 0, 87, 100
2, 216576, Note_on_c, 0, 76, 80
2, 216576, Note_on_c, 0, 88, 80
2, 218876, Note_off_c, 0, 76, 100
2, 218876, Note_off_c, 0, 88, 100
2, 218880, Note_on_c, 0, 71, 75
2, 218880, Note_on_c, 0, 83, 75
2, 221180, Note_off_c, 0, 71, 100
2, 221180, Note_off_c, 0, 83, 100
2, 221184, Note_on_c, 0, 76, 70
2, 221184, Note_on_c, 0, 64, 70
2, 221564, Note_off_c, 0, 76, 100
2, 221564, Note_off_c, 0, 64, 100
2, 222336, Note_on_c, 0, 64, 70
2, 222716, Note_off_c, 0, 64, 100
2, 223488, Note_on_c, 0, 64, 70
2, 224636, Note_off_c, 0, 64, 100
2, 225408, Control_c, 0, 7, 0
2, 225792, Note_on_c, 0, 64, 1
2, 225980, Note_off_c, 0, 64, 100
2, 225980, End_track
3, 0, Start_track
3, 0, Title_t, "Left"
3, 0, Control_c, 1, 0, 0
3, 0, Program_c, 1, 0
3, 0, Control_c, 1, 7, 100
3, 0, Control_c, 1, 10, 59
3, 0, Control_c, 1, 91, 127
3, 0, Key_signature, 1, "minor"
3, 0, Note_on_c, 1, 52, 80
3, 572, Note_off_c, 1, 52, 100
3, 576, Note_on_c, 1, 51, 80
3, 764, Note_off_c, 1, 51, 100
3, 768, Note_on_c, 1, 52, 80
3, 1148, Note_off_c, 1, 52, 100
3, 1152, Note_on_c, 1, 52, 80
3, 1152, Note_on_c, 1, 48, 80
3, 1724, Note_off_c, 1, 52, 100
3, 1728, Note_on_c, 1, 51, 94
3, 1916, Note_off_c, 1, 51, 100
3, 1920, Note_on_c, 1, 52, 99
3, 2300, Note_off_c, 1, 48, 100
3, 2300, Note_off_c, 1, 52, 100
3, 2304, Note_on_c, 1, 55, 100
3, 2304, Note_on_c, 1, 46, 100
3, 3452, Note_off_c, 1, 46, 100
3, 3456, Note_on_c, 1, 45, 80
3, 3836, Note_off_c, 1, 55, 100
3, 3840, Note_on_c, 1, 54, 80
3, 4028, Note_off_c, 1, 54, 100
3, 4032, Note_on_c, 1, 52, 80
3, 4220, Note_off_c, 1, 52, 100
3, 4224, Note_on_c, 1, 51, 80
3, 4412, Note_off_c, 1, 51, 100
3, 4416, Note_on_c, 1, 54, 80
3, 4604, Note_off_c, 1, 45, 100
3, 4604, Note_off_c, 1, 54, 100
3, 4608, Note_on_c, 1, 52, 80
3, 4608, Note_on_c, 1, 43, 80
3, 4988, Note_off_c, 1, 52, 100
3, 4988, Note_off_c, 1, 43, 100
3, 4992, Note_on_c, 1, 51, 80
3, 4992, Note_on_c, 1, 42, 80
3, 5372, Note_off_c, 1, 51, 100
3, 5372, Note_off_c, 1, 42, 100
3, 5376, Note_on_c, 1, 52, 80
3, 5376, Note_on_c, 1, 40, 80
3, 5756, Note_off_c, 1, 52, 100
3, 5756, Note_off_c, 1, 40, 100
3, 5760, Note_on_c, 1, 47, 80
3, 5760, Note_on_c, 1, 39, 80
3, 6524, Note_off_c, 1, 47, 100
3, 6524, Note_off_c, 1, 39, 100
3, 6528, Note_on_c, 1, 47, 80
3, 6528, Note_on_c, 1, 40, 80
3, 6908, Note_off_c, 1, 47, 100
3, 6908, Note_off_c, 1, 40, 100
3, 6912, Note_on_c, 1, 47, 80
3, 6912, Note_on_c, 1, 35, 80
3, 7676, Note_off_c, 1, 47, 100
3, 7680, Note_on_c, 1, 46, 80
3, 8060, Note_off_c, 1, 46, 100
3, 8064, Note_on_c, 1, 47, 80
3, 8444, Note_off_c, 1, 35, 100
3, 8444, Note_off_c, 1, 47, 100
3, 9216, Note_on_c, 1, 64, 80
3, 9788, Note_off_c, 1, 64, 100
3, 9792, Note_on_c, 1, 63, 80
3, 9980, Note_off_c, 1, 63, 100
3, 9984, Note_on_c, 1, 64, 80
3, 10364, Note_off_c, 1, 64, 100
3, 10368, Note_on_c, 1, 60, 80
3, 10368, Note_on_c, 1, 64, 80
3, 10940, Note_off_c, 1, 64, 100
3, 10944, Note_on_c, 1, 63, 94
3, 11132, Note_off_c, 1, 63, 100
3, 11136, Note_on_c, 1, 64, 99
3, 11516, Note_off_c, 1, 60, 100
3, 11516, Note_off_c, 1, 64, 100
3, 11520, Note_on_c, 1, 58, 100
3, 11520, Note_on_c, 1, 67, 100
3, 12668, Note_off_c, 1, 58, 100
3, 12672, Note_on_c, 1, 57, 80
3, 13052, Note_off_c, 1, 67, 100
3, 13056, Note_on_c, 1, 66, 80
3, 13244, Note_off_c, 1, 66, 100
3, 13248, Note_on_c, 1, 64, 80
3, 13436, Note_off_c, 1, 64, 100
3, 13440, Note_on_c, 1, 63, 80
3, 13628, Note_off_c, 1, 63, 100
3, 13632, Note_on_c, 1, 66, 80
3, 13820, Note_off_c, 1, 57, 100
3, 13820, Note_off_c, 1, 66, 100
3, 13824, Note_on_c, 1, 64, 80
3, 13824, Note_on_c, 1, 55, 80
3, 14204, Note_off_c, 1, 64, 100
3, 14204, Note_off_c, 1, 55, 100
3, 14208, Note_on_c, 1, 63, 80
3, 14208, Note_on_c, 1, 54, 80
3, 14588, Note_off_c, 1, 63, 100
3, 14588, Note_off_c, 1, 54, 100
3, 14592, Note_on_c, 1, 64, 80
3, 14592, Note_on_c, 1, 52, 80
3, 14972, Note_off_c, 1, 64, 100
3, 14972, Note_off_c, 1, 52, 100
3, 14976, Note_on_c, 1, 59, 80
3, 14976, Note_on_c, 1, 51, 80
3, 15740, Note_off_c, 1, 59, 100
3, 15740, Note_off_c, 1, 51, 100
3, 15744, Note_on_c, 1, 59, 80
3, 15744, Note_on_c, 1, 52, 80
3, 16124, Note_off_c, 1, 59, 100
3, 16124, Note_off_c, 1, 52, 100
3, 16128, Note_on_c, 1, 59, 80
3, 16128, Note_on_c, 1, 47, 80
3, 16892, Note_off_c, 1, 59, 100
3, 16896, Note_on_c, 1, 57, 80
3, 17276, Note_off_c, 1, 47, 100
3, 17276, Note_off_c, 1, 57, 100
3, 17280, Note_on_c, 1, 55, 80
3, 17280, Note_on_c, 1, 52, 80
3, 17660, Note_off_c, 1, 55, 100
3, 17660, Note_off_c, 1, 52, 100
3, 18432, Note_on_c, 1, 52, 80
3, 18432, Note_on_c, 1, 48, 80
3, 19580, Note_off_c, 1, 52, 100
3, 19580, Note_off_c, 1, 48, 100
3, 19584, Note_on_c, 1, 55, 100
3, 19584, Note_on_c, 1, 43, 100
3, 20732, Note_off_c, 1, 55, 100
3, 20732, Note_off_c, 1, 43, 100
3, 20736, Note_on_c, 1, 53, 80
3, 20736, Note_on_c, 1, 50, 80
3, 21884, Note_off_c, 1, 53, 100
3, 21884, Note_off_c, 1, 50, 100
3, 21888, Note_on_c, 1, 55, 100
3, 21888, Note_on_c, 1, 47, 100
3, 23036, Note_off_c, 1, 55, 100
3, 23036, Note_off_c, 1, 47, 100
3, 23040, Note_on_c, 1, 52, 80
3, 23040, Note_on_c, 1, 48, 80
3, 24188, Note_off_c, 1, 52, 100
3, 24188, Note_off_c, 1, 48, 100
3, 24192, Note_on_c, 1, 50, 80
3, 24192, Note_on_c, 1, 43, 80
3, 25340, Note_off_c, 1, 50, 100
3, 25340, Note_off_c, 1, 43, 100
3, 25344, Note_on_c, 1, 50, 80
3, 25344, Note_on_c, 1, 38, 80
3, 26492, Note_off_c, 1, 50, 100
3, 26492, Note_off_c, 1, 38, 100
3, 26496, Note_on_c, 1, 31, 80
3, 26496, Note_on_c, 1, 43, 80
3, 26876, Note_off_c, 1, 31, 100
3, 26876, Note_off_c, 1, 43, 100
3, 27648, Note_on_c, 1, 64, 80
3, 27648, Note_on_c, 1, 60, 80
3, 28220, Note_off_c, 1, 64, 100
3, 28224, Note_on_c, 1, 63, 80
3, 28412, Note_off_c, 1, 63, 100
3, 28416, Note_on_c, 1, 64, 80
3, 28796, Note_off_c, 1, 60, 100
3, 28796, Note_off_c, 1, 64, 100
3, 28800, Note_on_c, 1, 67, 80
3, 28800, Note_on_c, 1, 55, 80
3, 29948, Note_off_c, 1, 67, 100
3, 29948, Note_off_c, 1, 55, 100
3, 29952, Note_on_c, 1, 65, 80
3, 29952, Note_on_c, 1, 62, 80
3, 30524, Note_off_c, 1, 65, 100
3, 30528, Note_on_c, 1, 64, 80
3, 30716, Note_off_c, 1, 64, 100
3, 30720, Note_on_c, 1, 65, 80
3, 31100, Note_off_c, 1, 62, 100
3, 31100, Note_off_c, 1, 65, 100
3, 31104, Note_on_c, 1, 67, 80
3, 31104, Note_on_c, 1, 59, 80
3, 32252, Note_off_c, 1, 67, 100
3, 32252, Note_off_c, 1, 59, 100
3, 32256, Note_on_c, 1, 64, 80
3, 32256, Note_on_c, 1, 60, 80
3, 32828, Note_off_c, 1, 64, 100
3, 32832, Note_on_c, 1, 63, 80
3, 33020, Note_off_c, 1, 63, 100
3, 33024, Note_on_c, 1, 64, 80
3, 33404, Note_off_c, 1, 60, 100
3, 33404, Note_off_c, 1, 64, 100
3, 33408, Note_on_c, 1, 57, 80
3, 33408, Note_on_c, 1, 48, 80
3, 34556, Note_off_c, 1, 57, 100
3, 34556, Note_off_c, 1, 48, 100
3, 34560, Note_on_c, 1, 59, 80
3, 34560, Note_on_c, 1, 47, 80
3, 37628, Note_off_c, 1, 47, 100
3, 37628, Note_off_c, 1, 59, 100
3, 38016, Note_on_c, 1, 64, 80
3, 38588, Note_off_c, 1, 64, 100
3, 38592, Note_on_c, 1, 63, 80
3, 38780, Note_off_c, 1, 63, 100
3, 38784, Note_on_c, 1, 64, 80
3, 39164, Note_off_c, 1, 64, 100
3, 39168, Note_on_c, 1, 64, 80
3, 39168, Note_on_c, 1, 60, 80
3, 39740, Note_off_c, 1, 64, 100
3, 39744, Note_on_c, 1, 63, 94
3, 39932, Note_off_c, 1, 63, 100
3, 39936, Note_on_c, 1, 64, 99
3, 40316, Note_off_c, 1, 60, 100
3, 40316, Note_off_c, 1, 64, 100
3, 40320, Note_on_c, 1, 67, 100
3, 40320, Note_on_c, 1, 58, 100
3, 41468, Note_off_c, 1, 58, 100
3, 41472, Note_on_c, 1, 57, 80
3, 41852, Note_off_c, 1, 67, 100
3, 41856, Note_on_c, 1, 66, 80
3, 42044, Note_off_c, 1, 66, 100
3, 42048, Note_on_c, 1, 64, 80
3, 42236, Note_off_c, 1, 64, 100
3, 42240, Note_on_c, 1, 63, 80
3, 42428, Note_off_c, 1, 63, 100
3, 42432, Note_on_c, 1, 66, 80
3, 42620, Note_off_c, 1, 57, 100
3, 42620, Note_off_c, 1, 66, 100
3, 42624, Note_on_c, 1, 64, 80
3, 42624, Note_on_c, 1, 55, 80
3, 43004, Note_off_c, 1, 64, 100
3, 43004, Note_off_c, 1, 55, 100
3, 43008, Note_on_c, 1, 63, 80
3, 43008, Note_on_c, 1, 54, 80
3, 43388, Note_off_c, 1, 63, 100
3, 43388, Note_off_c, 1, 54, 100
3, 43392, Note_on_c, 1, 64, 80
3, 43392, Note_on_c, 1, 52, 80
3, 43772, Note_off_c, 1, 64, 100
3, 43772, Note_off_c, 1, 52, 100
3, 43776, Note_on_c, 1, 59, 80
3, 43776, Note_on_c, 1, 51, 80
3, 44540, Note_off_c, 1, 59, 100
3, 44540, Note_off_c, 1, 51, 100
3, 44544, Note_on_c, 1, 59, 80
3, 44544, Note_on_c, 1, 52, 80
3, 44924, Note_off_c, 1, 59, 100
3, 44924, Note_off_c, 1, 52, 100
3, 44928, Note_on_c, 1, 59, 80
3, 44928, Note_on_c, 1, 47, 80
3, 45692, Note_off_c, 1, 59, 100
3, 45696, Note_on_c, 1, 58, 80
3, 46076, Note_off_c, 1, 58, 100
3, 46080, Note_on_c, 1, 59, 80
3, 46460, Note_off_c, 1, 47, 100
3, 46460, Note_off_c, 1, 59, 100
3, 47232, Note_on_c, 1, 52, 80
3, 47804, Note_off_c, 1, 52, 100
3, 47808, Note_on_c, 1, 51, 80
3, 47996, Note_off_c, 1, 51, 100
3, 48000, Note_on_c, 1, 52, 80
3, 48380, Note_off_c, 1, 52, 100
3, 48384, Note_on_c, 1, 52, 80
3, 48384, Note_on_c, 1, 48, 80
3, 48956, Note_off_c, 1, 52, 100
3, 48960, Note_on_c, 1, 51, 80
3, 49148, Note_off_c, 1, 51, 100
3, 49152, Note_on_c, 1, 52, 80
3, 49532, Note_off_c, 1, 48, 100
3, 49532, Note_off_c, 1, 52, 100
3, 49536, Note_on_c, 1, 53, 100
3, 49536, Note_on_c, 1, 50, 100
3, 49536, Note_on_c, 1, 60, 100
3, 51068, Note_off_c, 1, 60, 100
3, 51072, Note_on_c, 1, 59, 100
3, 51260, Note_off_c, 1, 59, 100
3, 51264, Note_on_c, 1, 57, 100
3, 51452, Note_off_c, 1, 57, 100
3, 51456, Note_on_c, 1, 56, 100
3, 51644, Note_off_c, 1, 56, 100
3, 51648, Note_on_c, 1, 59, 100
3, 51836, Note_off_c, 1, 50, 100
3, 51836, Note_off_c, 1, 53, 100
3, 51836, Note_off_c, 1, 59, 100
3, 51840, Note_on_c, 1, 57, 100
3, 51840, Note_on_c, 1, 52, 100
3, 51840, Note_on_c, 1, 48, 100
3, 52220, Note_off_c, 1, 57, 100
3, 52220, Note_off_c, 1, 52, 100
3, 52220, Note_off_c, 1, 48, 100
3, 52224, Note_on_c, 1, 53, 110
3, 52224, Note_on_c, 1, 50, 110
3, 52224, Note_on_c, 1, 59, 110
3, 52988, Note_off_c, 1, 53, 100
3, 52988, Note_off_c, 1, 50, 100
3, 52988, Note_off_c, 1, 59, 100
3, 52992, Note_on_c, 1, 57, 100
3, 52992, Note_on_c, 1, 52, 100
3, 52992, Note_on_c, 1, 48, 100
3, 53372, Note_off_c, 1, 57, 100
3, 53372, Note_off_c, 1, 52, 100
3, 53372, Note_off_c, 1, 48, 100
3, 53376, Note_on_c, 1, 53, 110
3, 53376, Note_on_c, 1, 50, 110
3, 53376, Note_on_c, 1, 59, 110
3, 54140, Note_off_c, 1, 53, 100
3, 54140, Note_off_c, 1, 50, 100
3, 54140, Note_off_c, 1, 59, 100
3, 54144, Note_on_c, 1, 57, 100
3, 54144, Note_on_c, 1, 52, 100
3, 54144, Note_on_c, 1, 48, 100
3, 54524, Note_off_c, 1, 57, 100
3, 54524, Note_off_c, 1, 52, 100
3, 54524, Note_off_c, 1, 48, 100
3, 56064, Note_on_c, 1, 64, 80
3, 56064, Note_on_c, 1, 57, 80
3, 56444, Note_off_c, 1, 64, 100
3, 56444, Note_off_c, 1, 57, 100
3, 56448, Note_on_c, 1, 64, 80
3, 56448, Note_on_c, 1, 59, 80
3, 56828, Note_off_c, 1, 64, 100
3, 56828, Note_off_c, 1, 59, 100
3, 57600, Note_on_c, 1, 47, 80
3, 57600, Note_on_c, 1, 35, 80
3, 57980, Note_off_c, 1, 47, 100
3, 57980, Note_off_c, 1, 35, 100
3, 58752, Note_on_c, 1, 40, 80
3, 59520, Note_on_c, 1, 47, 80
3, 59900, Note_off_c, 1, 47, 100
3, 59904, Note_on_c, 1, 48, 80
3, 60284, Note_off_c, 1, 48, 100
3, 60288, Note_on_c, 1, 48, 80
3, 60476, Note_off_c, 1, 48, 100
3, 60480, Note_on_c, 1, 47, 80
3, 60668, Note_off_c, 1, 47, 100
3, 60672, Note_on_c, 1, 45, 80
3, 60860, Note_off_c, 1, 45, 100
3, 60864, Note_on_c, 1, 48, 80
3, 61052, Note_off_c, 1, 40, 100
3, 61052, Note_off_c, 1, 48, 100
3, 61056, Note_on_c, 1, 40, 80
3, 61056, Note_on_c, 1, 52, 80
3, 61436, Note_off_c, 1, 40, 100
3, 61824, Note_on_c, 1, 59, 80
3, 62204, Note_off_c, 1, 59, 100
3, 62208, Note_on_c, 1, 60, 80
3, 62588, Note_off_c, 1, 60, 100
3, 62592, Note_on_c, 1, 60, 80
3, 62780, Note_off_c, 1, 60, 100
3, 62784, Note_on_c, 1, 59, 80
3, 62972, Note_off_c, 1, 59, 100
3, 62976, Note_on_c, 1, 57, 80
3, 63164, Note_off_c, 1, 57, 100
3, 63168, Note_on_c, 1, 60, 80
3, 63356, Note_off_c, 1, 52, 100
3, 63356, Note_off_c, 1, 60, 100
3, 63360, Note_on_c, 1, 59, 80
3, 63360, Note_on_c, 1, 52, 80
3, 63740, Note_off_c, 1, 59, 100
3, 64128, Note_on_c, 1, 59, 80
3, 64508, Note_off_c, 1, 59, 100
3, 64512, Note_on_c, 1, 60, 80
3, 64892, Note_off_c, 1, 60, 100
3, 64896, Note_on_c, 1, 60, 82
3, 65084, Note_off_c, 1, 60, 100
3, 65088, Note_on_c, 1, 59, 83
3, 65276, Note_off_c, 1, 59, 100
3, 65280, Note_on_c, 1, 57, 84
3, 65468, Note_off_c, 1, 57, 100
3, 65472, Note_on_c, 1, 60, 85
3, 65660, Note_off_c, 1, 52, 100
3, 65660, Note_off_c, 1, 60, 100
3, 65664, Note_on_c, 1, 59, 87
3, 65664, Note_on_c, 1, 52, 87
3, 66044, Note_off_c, 1, 59, 100
3, 66044, Note_off_c, 1, 52, 100
3, 66048, Note_on_c, 1, 52, 89
3, 66048, Note_on_c, 1, 60, 89
3, 66236, Note_off_c, 1, 60, 100
3, 66240, Note_on_c, 1, 59, 90
3, 66428, Note_off_c, 1, 59, 100
3, 66432, Note_on_c, 1, 57, 91
3, 66620, Note_off_c, 1, 57, 100
3, 66624, Note_on_c, 1, 60, 92
3, 66812, Note_off_c, 1, 52, 100
3, 66812, Note_off_c, 1, 60, 100
3, 66816, Note_on_c, 1, 59, 94
3, 66816, Note_on_c, 1, 52, 94
3, 67196, Note_off_c, 1, 59, 100
3, 67196, Note_off_c, 1, 52, 100
3, 67200, Note_on_c, 1, 52, 96
3, 67200, Note_on_c, 1, 60, 96
3, 67388, Note_off_c, 1, 60, 100
3, 67392, Note_on_c, 1, 59, 97
3, 67580, Note_off_c, 1, 59, 100
3, 67584, Note_on_c, 1, 57, 98
3, 67772, Note_off_c, 1, 57, 100
3, 67776, Note_on_c, 1, 60, 99
3, 67964, Note_off_c, 1, 52, 100
3, 67964, Note_off_c, 1, 60, 100
3, 67968, Note_on_c, 1, 59, 80
3, 67968, Note_on_c, 1, 52, 80
3, 68348, Note_off_c, 1, 59, 100
3, 68348, Note_off_c, 1, 52, 100
3, 69120, Note_on_c, 1, 59, 80
3, 69120, Note_on_c, 1, 52, 80
3, 69500, Note_off_c, 1, 59, 100
3, 69500, Note_off_c, 1, 52, 100
3, 70272, Note_on_c, 1, 52, 80
3, 70272, Note_on_c, 1, 47, 80
3, 70272, Note_on_c, 1, 40, 80
3, 70652, Note_off_c, 1, 52, 100
3, 70652, Note_off_c, 1, 47, 100
3, 70652, Note_off_c, 1, 40, 100
3, 72576, Key_signature, 0, "major"
3, 72576, Note_on_c, 1, 48, 80
3, 72576, Note_on_c, 1, 36, 80
3, 73724, Note_off_c, 1, 48, 100
3, 73728, Note_on_c, 1, 47, 80
3, 74492, Note_off_c, 1, 47, 100
3, 74496, Note_on_c, 1, 50, 80
3, 74876, Note_off_c, 1, 36, 100
3, 74876, Note_off_c, 1, 50, 100
3, 74880, Note_on_c, 1, 48, 80
3, 74880, Note_on_c, 1, 36, 80
3, 75260, Note_off_c, 1, 48, 100
3, 75260, Note_off_c, 1, 36, 100
3, 77184, Note_on_c, 1, 48, 80
3, 77184, Note_on_c, 1, 36, 80
3, 78332, Note_off_c, 1, 48, 100
3, 78336, Note_on_c, 1, 47, 80
3, 79100, Note_off_c, 1, 47, 100
3, 79104, Note_on_c, 1, 50, 80
3, 79484, Note_off_c, 1, 36, 100
3, 79484, Note_off_c, 1, 50, 100
3, 79488, Note_on_c, 1, 48, 80
3, 79488, Note_on_c, 1, 36, 80
3, 79868, Note_off_c, 1, 48, 100
3, 79868, Note_off_c, 1, 36, 100
3, 81792, Note_on_c, 1, 60, 80
3, 82556, Note_off_c, 1, 60, 100
3, 82560, Note_on_c, 1, 59, 80
3, 82940, Note_off_c, 1, 59, 100
3, 82944, Note_on_c, 1, 57, 80
3, 83708, Note_off_c, 1, 57, 100
3, 83712, Note_on_c, 1, 55, 80
3, 84092, Note_off_c, 1, 55, 100
3, 84096, Note_on_c, 1, 54, 80
3, 84860, Note_off_c, 1, 54, 100
3, 84864, Note_on_c, 1, 52, 80
3, 85244, Note_off_c, 1, 52, 100
3, 85248, Note_on_c, 1, 51, 80
3, 86012, Note_off_c, 1, 51, 100
3, 86016, Note_on_c, 1, 52, 80
3, 86396, Note_off_c, 1, 52, 100
3, 86400, Note_on_c, 1, 48, 80
3, 87548, Note_off_c, 1, 48, 100
3, 87552, Note_on_c, 1, 50, 80
3, 88700, Note_off_c, 1, 50, 100
3, 88704, Note_on_c, 1, 43, 80
3, 89084, Note_off_c, 1, 43, 100
3, 89856, Note_on_c, 1, 53, 80
3, 90236, Note_off_c, 1, 53, 100
3, 90240, Note_on_c, 1, 52, 80
3, 90620, Note_off_c, 1, 52, 100
3, 90624, Note_on_c, 1, 50, 80
3, 91004, Note_off_c, 1, 50, 100
3, 91008, Note_on_c, 1, 48, 80
3, 91008, Note_on_c, 1, 36, 80
3, 92156, Note_off_c, 1, 48, 100
3, 92160, Note_on_c, 1, 47, 80
3, 92924, Note_off_c, 1, 47, 100
3, 92928, Note_on_c, 1, 50, 80
3, 93308, Note_off_c, 1, 36, 100
3, 93308, Note_off_c, 1, 50, 100
3, 93312, Note_on_c, 1, 48, 80
3, 93312, Note_on_c, 1, 36, 80
3, 93692, Note_off_c, 1, 48, 100
3, 93692, Note_off_c, 1, 36, 100
3, 95616, Note_on_c, 1, 48, 80
3, 95616, Note_on_c, 1, 36, 80
3, 96764, Note_off_c, 1, 48, 100
3, 96768, Note_on_c, 1, 47, 80
3, 97532, Note_off_c, 1, 47, 100
3, 97536, Note_on_c, 1, 50, 80
3, 97916, Note_off_c, 1, 36, 100
3, 97916, Note_off_c, 1, 50, 100
3, 97920, Note_on_c, 1, 48, 80
3, 97920, Note_on_c, 1, 36, 80
3, 98300, Note_off_c, 1, 48, 100
3, 98300, Note_off_c, 1, 36, 100
3, 100224, Note_on_c, 1, 60, 80
3, 100988, Note_off_c, 1, 60, 100
3, 100992, Note_on_c, 1, 59, 80
3, 101372, Note_off_c, 1, 59, 100
3, 101376, Note_on_c, 1, 57, 80
3, 102140, Note_off_c, 1, 57, 100
3, 102144, Note_on_c, 1, 55, 80
3, 102524, Note_off_c, 1, 55, 100
3, 102528, Note_on_c, 1, 54, 80
3, 103292, Note_off_c, 1, 54, 100
3, 103296, Note_on_c, 1, 52, 80
3, 103676, Note_off_c, 1, 52, 100
3, 103680, Note_on_c, 1, 51, 80
3, 104444, Note_off_c, 1, 51, 100
3, 104448, Note_on_c, 1, 52, 80
3, 104828, Note_off_c, 1, 52, 100
3, 104832, Note_on_c, 1, 48, 80
3, 105980, Note_off_c, 1, 48, 100
3, 105984, Note_on_c, 1, 50, 80
3, 107132, Note_off_c, 1, 50, 100
3, 107136, Note_on_c, 1, 43, 80
3, 107516, Note_off_c, 1, 43, 100
3, 108288, Note_on_c, 1, 53, 80
3, 108668, Note_off_c, 1, 53, 100
3, 108672, Note_on_c, 1, 52, 80
3, 109052, Note_off_c, 1, 52, 100
3, 109056, Note_on_c, 1, 50, 80
3, 109436, Note_off_c, 1, 50, 100
3, 109440, Note_on_c, 1, 43, 80
3, 109440, Note_on_c, 1, 49, 80
3, 110588, Note_off_c, 1, 49, 100
3, 110592, Note_on_c, 1, 50, 80
3, 110972, Note_off_c, 1, 50, 100
3, 110976, Note_on_c, 1, 52, 80
3, 111356, Note_off_c, 1, 52, 100
3, 111360, Note_on_c, 1, 53, 80
3, 111740, Note_off_c, 1, 43, 100
3, 111740, Note_off_c, 1, 53, 100
3, 111744, Note_on_c, 1, 47, 80
3, 111744, Note_on_c, 1, 43, 80
3, 112892, Note_off_c, 1, 47, 100
3, 112896, Note_on_c, 1, 48, 80
3, 113276, Note_off_c, 1, 48, 100
3, 113280, Note_on_c, 1, 50, 80
3, 113660, Note_off_c, 1, 50, 100
3, 113664, Note_on_c, 1, 52, 80
3, 114044, Note_off_c, 1, 43, 100
3, 114044, Note_off_c, 1, 52, 100
3, 114048, Note_on_c, 1, 55, 80
3, 114816, Note_on_c, 1, 61, 87
3, 115196, Note_off_c, 1, 61, 100
3, 115200, Note_on_c, 1, 62, 91
3, 115580, Note_off_c, 1, 62, 100
3, 115584, Note_on_c, 1, 64, 95
3, 115964, Note_off_c, 1, 64, 100
3, 115968, Note_on_c, 1, 65, 99
3, 116348, Note_off_c, 1, 55, 100
3, 116348, Note_off_c, 1, 65, 100
3, 116352, Note_on_c, 1, 55, 100
3, 117120, Note_on_c, 1, 59, 100
3, 117500, Note_off_c, 1, 59, 100
3, 117504, Note_on_c, 1, 60, 100
3, 117884, Note_off_c, 1, 60, 100
3, 117888, Note_on_c, 1, 62, 100
3, 118268, Note_off_c, 1, 62, 100
3, 118272, Note_on_c, 1, 64, 100
3, 118652, Note_off_c, 1, 55, 100
3, 118652, Note_off_c, 1, 64, 100
3, 118656, Note_on_c, 1, 65, 100
3, 118656, Note_on_c, 1, 55, 100
3, 119036, Note_off_c, 1, 65, 100
3, 119036, Note_off_c, 1, 55, 100
3, 120960, Note_on_c, 1, 48, 80
3, 120960, Note_on_c, 1, 36, 80
3, 122108, Note_off_c, 1, 48, 100
3, 122112, Note_on_c, 1, 47, 80
3, 122876, Note_off_c, 1, 47, 100
3, 122880, Note_on_c, 1, 50, 80
3, 123260, Note_off_c, 1, 36, 100
3, 123260, Note_off_c, 1, 50, 100
3, 123264, Note_on_c, 1, 48, 80
3, 123264, Note_on_c, 1, 36, 80
3, 123644, Note_off_c, 1, 48, 100
3, 123644, Note_off_c, 1, 36, 100
3, 125568, Note_on_c, 1, 60, 80
3, 125568, Note_on_c, 1, 48, 80
3, 126716, Note_off_c, 1, 60, 100
3, 126720, Note_on_c, 1, 59, 80
3, 127484, Note_off_c, 1, 59, 100
3, 127488, Note_on_c, 1, 62, 80
3, 127868, Note_off_c, 1, 48, 100
3, 127868, Note_off_c, 1, 62, 100
3, 127872, Note_on_c, 1, 60, 80
3, 127872, Note_on_c, 1, 48, 80
3, 128252, Note_off_c, 1, 60, 100
3, 128252, Note_off_c, 1, 48, 100
3, 130176, Note_on_c, 1, 52, 80
3, 130176, Note_on_c, 1, 48, 80
3, 130176, Note_on_c, 1, 55, 80
3, 131324, Note_off_c, 1, 55, 100
3, 131328, Note_on_c, 1, 57, 80
3, 132476, Note_off_c, 1, 48, 100
3, 132476, Note_off_c, 1, 52, 100
3, 132476, Note_off_c, 1, 57, 100
3, 132480, Note_on_c, 1, 55, 80
3, 132480, Note_on_c, 1, 52, 80
3, 132480, Note_on_c, 1, 59, 80
3, 132480, Note_on_c, 1, 47, 80
3, 133628, Note_off_c, 1, 55, 100
3, 133628, Note_off_c, 1, 52, 100
3, 133632, Note_on_c, 1, 54, 80
3, 133632, Note_on_c, 1, 51, 80
3, 134780, Note_off_c, 1, 47, 100
3, 134780, Note_off_c, 1, 59, 100
3, 134780, Note_off_c, 1, 54, 100
3, 134780, Note_off_c, 1, 51, 100
3, 134784, Key_signature, 1, "major"
3, 134784, Note_on_c, 1, 52, 80
3, 135356, Note_off_c, 1, 52, 100
3, 135360, Note_on_c, 1, 51, 80
3, 135548, Note_off_c, 1, 51, 100
3, 135552, Note_on_c, 1, 52, 80
3, 135932, Note_off_c, 1, 52, 100
3, 135936, Note_on_c, 1, 52, 80
3, 135936, Note_on_c, 1, 48, 80
3, 136508, Note_off_c, 1, 52, 100
3, 136512, Note_on_c, 1, 51, 80
3, 136700, Note_off_c, 1, 51, 100
3, 136704, Note_on_c, 1, 52, 80
3, 137084, Note_off_c, 1, 48, 100
3, 137084, Note_off_c, 1, 52, 100
3, 137088, Note_on_c, 1, 55, 80
3, 137088, Note_on_c, 1, 46, 80
3, 138236, Note_off_c, 1, 46, 100
3, 138240, Note_on_c, 1, 45, 80
3, 138620, Note_off_c, 1, 55, 100
3, 138624, Note_on_c, 1, 54, 80
3, 138812, Note_off_c, 1, 54, 100
3, 138816, Note_on_c, 1, 52, 80
3, 139004, Note_off_c, 1, 52, 100
3, 139008, Note_on_c, 1, 51, 80
3, 139196, Note_off_c, 1, 51, 100
3, 139200, Note_on_c, 1, 54, 80
3, 139388, Note_off_c, 1, 45, 100
3, 139388, Note_off_c, 1, 54, 100
3, 139392, Note_on_c, 1, 52, 80
3, 139392, Note_on_c, 1, 43, 80
3, 139772, Note_off_c, 1, 52, 100
3, 139772, Note_off_c, 1, 43, 100
3, 139776, Note_on_c, 1, 51, 80
3, 139776, Note_on_c, 1, 42, 80
3, 140156, Note_off_c, 1, 51, 100
3, 140156, Note_off_c, 1, 42, 100
3, 140160, Note_on_c, 1, 52, 80
3, 140160, Note_on_c, 1, 40, 80
3, 140540, Note_off_c, 1, 52, 100
3, 140540, Note_off_c, 1, 40, 100
3, 140544, Note_on_c, 1, 47, 80
3, 140544, Note_on_c, 1, 39, 80
3, 141308, Note_off_c, 1, 47, 100
3, 141308, Note_off_c, 1, 39, 100
3, 141312, Note_on_c, 1, 47, 80
3, 141312, Note_on_c, 1, 40, 80
3, 141692, Note_off_c, 1, 47, 100
3, 141692, Note_off_c, 1, 40, 100
3, 141696, Note_on_c, 1, 47, 80
3, 141696, Note_on_c, 1, 35, 80
3, 142460, Note_off_c, 1, 47, 100
3, 142464, Note_on_c, 1, 46, 80
3, 142844, Note_off_c, 1, 46, 100
3, 142848, Note_on_c, 1, 47, 80
3, 143228, Note_off_c, 1, 35, 100
3, 143228, Note_off_c, 1, 47, 100
3, 144000, Note_on_c, 1, 64, 80
3, 144572, Note_off_c, 1, 64, 100
3, 144576, Note_on_c, 1, 63, 80
3, 144764, Note_off_c, 1, 63, 100
3, 144768, Note_on_c, 1, 64, 80
3, 145148, Note_off_c, 1, 64, 100
3, 145152, Note_on_c, 1, 60, 80
3, 145152, Note_on_c, 1, 64, 80
3, 145724, Note_off_c, 1, 64, 100
3, 145728, Note_on_c, 1, 63, 94
3, 145916, Note_off_c, 1, 63, 100
3, 145920, Note_on_c, 1, 64, 99
3, 146300, Note_off_c, 1, 60, 100
3, 146300, Note_off_c, 1, 64, 100
3, 146304, Note_on_c, 1, 58, 100
3, 146304, Note_on_c, 1, 67, 100
3, 147452, Note_off_c, 1, 58, 100
3, 147456, Note_on_c, 1, 57, 80
3, 147836, Note_off_c, 1, 67, 100
3, 147840, Note_on_c, 1, 66, 80
3, 148028, Note_off_c, 1, 66, 100
3, 148032, Note_on_c, 1, 64, 80
3, 148220, Note_off_c, 1, 64, 100
3, 148224, Note_on_c, 1, 63, 80
3, 148412, Note_off_c, 1, 63, 100
3, 148416, Note_on_c, 1, 66, 80
3, 148604, Note_off_c, 1, 57, 100
3, 148604, Note_off_c, 1, 66, 100
3, 148608, Note_on_c, 1, 64, 80
3, 148608, Note_on_c, 1, 55, 80
3, 148988, Note_off_c, 1, 64, 100
3, 148988, Note_off_c, 1, 55, 100
3, 148992, Note_on_c, 1, 63, 80
3, 148992, Note_on_c, 1, 54, 80
3, 149372, Note_off_c, 1, 63, 100
3, 149372, Note_off_c, 1, 54, 100
3, 149376, Note_on_c, 1, 64, 80
3, 149376, Note_on_c, 1, 52, 80
3, 149756, Note_off_c, 1, 64, 100
3, 149756, Note_off_c, 1, 52, 100
3, 149760, Note_on_c, 1, 59, 80
3, 149760, Note_on_c, 1, 51, 80
3, 150524, Note_off_c, 1, 59, 100
3, 150524, Note_off_c, 1, 51, 100
3, 150528, Note_on_c, 1, 59, 80
3, 150528, Note_on_c, 1, 52, 80
3, 150908, Note_off_c, 1, 59, 100
3, 150908, Note_off_c, 1, 52, 100
3, 150912, Note_on_c, 1, 59, 80
3, 150912, Note_on_c, 1, 47, 80
3, 151676, Note_off_c, 1, 59, 100
3, 151680, Note_on_c, 1, 57, 80
3, 152060, Note_off_c, 1, 47, 100
3, 152060, Note_off_c, 1, 57, 100
3, 152064, Note_on_c, 1, 55, 80
3, 152064, Note_on_c, 1, 52, 80
3, 152444, Note_off_c, 1, 55, 100
3, 152444, Note_off_c, 1, 52, 100
3, 153216, Note_on_c, 1, 52, 80
3, 153216, Note_on_c, 1, 48, 80
3, 154364, Note_off_c, 1, 52, 100
3, 154364, Note_off_c, 1, 48, 100
3, 154368, Note_on_c, 1, 55, 100
3, 154368, Note_on_c, 1, 43, 100
3, 155516, Note_off_c, 1, 55, 100
3, 155516, Note_off_c, 1, 43, 100
3, 155520, Note_on_c, 1, 53, 80
3, 155520, Note_on_c, 1, 50, 80
3, 156668, Note_off_c, 1, 53, 100
3, 156668, Note_off_c, 1, 50, 100
3, 156672, Note_on_c, 1, 55, 100
3, 156672, Note_on_c, 1, 47, 100
3, 157820, Note_off_c, 1, 55, 100
3, 157820, Note_off_c, 1, 47, 100
3, 157824, Note_on_c, 1, 52, 80
3, 157824, Note_on_c, 1, 48, 80
3, 158972, Note_off_c, 1, 52, 100
3, 158972, Note_off_c, 1, 48, 100
3, 158976, Note_on_c, 1, 50, 80
3, 158976, Note_on_c, 1, 43, 80
3, 160124, Note_off_c, 1, 50, 100
3, 160124, Note_off_c, 1, 43, 100
3, 160128, Note_on_c, 1, 50, 80
3, 160128, Note_on_c, 1, 38, 80
3, 161276, Note_off_c, 1, 50, 100
3, 161276, Note_off_c, 1, 38, 100
3, 161280, Note_on_c, 1, 31, 80
3, 161280, Note_on_c, 1, 43, 80
3, 161660, Note_off_c, 1, 31, 100
3, 161660, Note_off_c, 1, 43, 100
3, 162432, Note_on_c, 1, 64, 80
3, 162432, Note_on_c, 1, 60, 80
3, 163004, Note_off_c, 1, 64, 100
3, 163008, Note_on_c, 1, 63, 80
3, 163196, Note_off_c, 1, 63, 100
3, 163200, Note_on_c, 1, 64, 80
3, 163580, Note_off_c, 1, 60, 100
3, 163580, Note_off_c, 1, 64, 100
3, 163584, Note_on_c, 1, 67, 100
3, 163584, Note_on_c, 1, 55, 100
3, 164732, Note_off_c, 1, 67, 100
3, 164732, Note_off_c, 1, 55, 100
3, 164736, Note_on_c, 1, 65, 80
3, 164736, Note_on_c, 1, 62, 80
3, 165308, Note_off_c, 1, 65, 100
3, 165312, Note_on_c, 1, 64, 80
3, 165500, Note_off_c, 1, 64, 100
3, 165504, Note_on_c, 1, 65, 80
3, 165884, Note_off_c, 1, 62, 100
3, 165884, Note_off_c, 1, 65, 100
3, 165888, Note_on_c, 1, 67, 100
3, 165888, Note_on_c, 1, 59, 100
3, 167036, Note_off_c, 1, 67, 100
3, 167036, Note_off_c, 1, 59, 100
3, 167040, Note_on_c, 1, 64, 80
3, 167040, Note_on_c, 1, 60, 80
3, 167612, Note_off_c, 1, 64, 100
3, 167616, Note_on_c, 1, 63, 80
3, 167804, Note_off_c, 1, 63, 100
3, 167808, Note_on_c, 1, 64, 80
3, 168188, Note_off_c, 1, 60, 100
3, 168188, Note_off_c, 1, 64, 100
3, 168192, Note_on_c, 1, 57, 80
3, 168192, Note_on_c, 1, 48, 80
3, 169340, Note_off_c, 1, 57, 100
3, 169340, Note_off_c, 1, 48, 100
3, 169344, Note_on_c, 1, 59, 80
3, 169344, Note_on_c, 1, 47, 80
3, 172412, Note_off_c, 1, 47, 100
3, 172412, Note_off_c, 1, 59, 100
3, 172800, Note_on_c, 1, 64, 80
3, 173372, Note_off_c, 1, 64, 100
3, 173376, Note_on_c, 1, 63, 80
3, 173564, Note_off_c, 1, 63, 100
3, 173568, Note_on_c, 1, 64, 80
3, 173948, Note_off_c, 1, 64, 100
3, 173952, Note_on_c, 1, 64, 80
3, 173952, Note_on_c, 1, 60, 80
3, 174524, Note_off_c, 1, 64, 100
3, 174528, Note_on_c, 1, 63, 94
3, 174716, Note_off_c, 1, 63, 100
3, 174720, Note_on_c, 1, 64, 99
3, 175100, Note_off_c, 1, 60, 100
3, 175100, Note_off_c, 1, 64, 100
3, 175104, Note_on_c, 1, 67, 100
3, 175104, Note_on_c, 1, 58, 100
3, 176252, Note_off_c, 1, 58, 100
3, 176256, Note_on_c, 1, 57, 80
3, 176636, Note_off_c, 1, 67, 100
3, 176640, Note_on_c, 1, 66, 80
3, 176828, Note_off_c, 1, 66, 100
3, 176832, Note_on_c, 1, 64, 80
3, 177020, Note_off_c, 1, 64, 100
3, 177024, Note_on_c, 1, 63, 80
3, 177212, Note_off_c, 1, 63, 100
3, 177216, Note_on_c, 1, 66, 80
3, 177404, Note_off_c, 1, 57, 100
3, 177404, Note_off_c, 1, 66, 100
3, 177408, Note_on_c, 1, 64, 80
3, 177408, Note_on_c, 1, 55, 80
3, 177788, Note_off_c, 1, 64, 100
3, 177788, Note_off_c, 1, 55, 100
3, 177792, Note_on_c, 1, 63, 80
3, 177792, Note_on_c, 1, 54, 80
3, 178172, Note_off_c, 1, 63, 100
3, 178172, Note_off_c, 1, 54, 100
3, 178176, Note_on_c, 1, 64, 80
3, 178176, Note_on_c, 1, 52, 80
3, 178556, Note_off_c, 1, 64, 100
3, 178556, Note_off_c, 1, 52, 100
3, 178560, Note_on_c, 1, 59, 80
3, 178560, Note_on_c, 1, 51, 80
3, 179324, Note_off_c, 1, 59, 100
3, 179324, Note_off_c, 1, 51, 100
3, 179328, Note_on_c, 1, 59, 80
3, 179328, Note_on_c, 1, 52, 80
3, 179708, Note_off_c, 1, 59, 100
3, 179708, Note_off_c, 1, 52, 100
3, 179712, Note_on_c, 1, 59, 80
3, 179712, Note_on_c, 1, 47, 80
3, 180476, Note_off_c, 1, 59, 100
3, 180480, Note_on_c, 1, 58, 80
3, 180860, Note_off_c, 1, 58, 100
3, 180864, Note_on_c, 1, 59, 80
3, 181244, Note_off_c, 1, 47, 100
3, 181244, Note_off_c, 1, 59, 100
3, 182016, Note_on_c, 1, 52, 80
3, 182588, Note_off_c, 1, 52, 100
3, 182592, Note_on_c, 1, 51, 80
3, 182780, Note_off_c, 1, 51, 100
3, 182784, Note_on_c, 1, 52, 80
3, 183164, Note_off_c, 1, 52, 100
3, 183168, Note_on_c, 1, 52, 80
3, 183168, Note_on_c, 1, 48, 80
3, 183740, Note_off_c, 1, 52, 100
3, 183744, Note_on_c, 1, 51, 94
3, 183932, Note_off_c, 1, 51, 100
3, 183936, Note_on_c, 1, 52, 99
3, 184316, Note_off_c, 1, 48, 100
3, 184316, Note_off_c, 1, 52, 100
3, 184320, Note_on_c, 1, 53, 100
3, 184320, Note_on_c, 1, 50, 100
3, 184320, Note_on_c, 1, 60, 100
3, 185852, Note_off_c, 1, 60, 100
3, 185856, Note_on_c, 1, 59, 100
3, 186044, Note_off_c, 1, 59, 100
3, 186048, Note_on_c, 1, 57, 100
3, 186236, Note_off_c, 1, 57, 100
3, 186240, Note_on_c, 1, 56, 100
3, 186428, Note_off_c, 1, 56, 100
3, 186432, Note_on_c, 1, 59, 100
3, 186620, Note_off_c, 1, 50, 100
3, 186620, Note_off_c, 1, 53, 100
3, 186620, Note_off_c, 1, 59, 100
3, 186624, Note_on_c, 1, 57, 100
3, 186624, Note_on_c, 1, 52, 100
3, 186624, Note_on_c, 1, 48, 100
3, 187004, Note_off_c, 1, 57, 100
3, 187004, Note_off_c, 1, 52, 100
3, 187004, Note_off_c, 1, 48, 100
3, 187008, Note_on_c, 1, 53, 110
3, 187008, Note_on_c, 1, 50, 110
3, 187008, Note_on_c, 1, 59, 110
3, 187772, Note_off_c, 1, 53, 100
3, 187772, Note_off_c, 1, 50, 100
3, 187772, Note_off_c, 1, 59, 100
3, 187776, Note_on_c, 1, 57, 100
3, 187776, Note_on_c, 1, 52, 100
3, 187776, Note_on_c, 1, 48, 100
3, 188156, Note_off_c, 1, 57, 100
3, 188156, Note_off_c, 1, 52, 100
3, 188156, Note_off_c, 1, 48, 100
3, 188160, Note_on_c, 1, 53, 110
3, 188160, Note_on_c, 1, 50, 110
3, 188160, Note_on_c, 1, 59, 110
3, 188924, Note_off_c, 1, 53, 100
3, 188924, Note_off_c, 1, 50, 100
3, 188924, Note_off_c, 1, 59, 100
3, 188928, Note_on_c, 1, 57, 100
3, 188928, Note_on_c, 1, 52, 100
3, 188928, Note_on_c, 1, 48, 100
3, 189308, Note_off_c, 1, 57, 100
3, 189308, Note_off_c, 1, 52, 100
3, 189308, Note_off_c, 1, 48, 100
3, 190848, Note_on_c, 1, 64, 97
3, 190848, Note_on_c, 1, 57, 97
3, 191228, Note_off_c, 1, 64, 100
3, 191228, Note_off_c, 1, 57, 100
3, 191232, Note_on_c, 1, 64, 80
3, 191232, Note_on_c, 1, 59, 80
3, 191612, Note_off_c, 1, 64, 100
3, 191612, Note_off_c, 1, 59, 100
3, 192384, Note_on_c, 1, 47, 80
3, 192384, Note_on_c, 1, 35, 80
3, 192764, Note_off_c, 1, 47, 100
3, 192764, Note_off_c, 1, 35, 100
3, 193536, Note_on_c, 1, 40, 80
3, 194304, Note_on_c, 1, 47, 80
3, 194684, Note_off_c, 1, 47, 100
3, 194688, Note_on_c, 1, 48, 81
3, 195068, Note_off_c, 1, 48, 100
3, 195072, Note_on_c, 1, 48, 83
3, 195260, Note_off_c, 1, 48, 100
3, 195264, Note_on_c, 1, 47, 84
3, 195452, Note_off_c, 1, 47, 100
3, 195456, Note_on_c, 1, 45, 85
3, 195644, Note_off_c, 1, 45, 100
3, 195648, Note_on_c, 1, 48, 86
3, 195836, Note_off_c, 1, 40, 100
3, 195836, Note_off_c, 1, 48, 100
3, 195840, Note_on_c, 1, 40, 87
3, 195840, Note_on_c, 1, 52, 87
3, 196220, Note_off_c, 1, 40, 100
3, 196608, Note_on_c, 1, 59, 91
3, 196988, Note_off_c, 1, 59, 100
3, 196992, Note_on_c, 1, 60, 93
3, 197372, Note_off_c, 1, 60, 100
3, 197376, Note_on_c, 1, 60, 95
3, 197564, Note_off_c, 1, 60, 100
3, 197568, Note_on_c, 1, 59, 96
3, 197756, Note_off_c, 1, 59, 100
3, 197760, Note_on_c, 1, 57, 97
3, 197948, Note_off_c, 1, 57, 100
3, 197952, Note_on_c, 1, 60, 98
3, 198140, Note_off_c, 1, 52, 100
3, 198140, Note_off_c, 1, 60, 100
3, 198144, Note_on_c, 1, 59, 99
3, 198144, Note_on_c, 1, 52, 99
3, 198524, Note_off_c, 1, 59, 100
3, 198912, Note_on_c, 1, 59, 100
3, 199292, Note_off_c, 1, 59, 100
3, 199296, Note_on_c, 1, 60, 110
3, 199676, Note_off_c, 1, 60, 100
3, 199680, Note_on_c, 1, 60, 100
3, 199868, Note_off_c, 1, 60, 100
3, 199872, Note_on_c, 1, 59, 100
3, 200060, Note_off_c, 1, 59, 100
3, 200064, Note_on_c, 1, 57, 100
3, 200252, Note_off_c, 1, 57, 100
3, 200256, Note_on_c, 1, 60, 100
3, 200444, Note_off_c, 1, 52, 100
3, 200444, Note_off_c, 1, 60, 100
3, 200448, Note_on_c, 1, 59, 110
3, 200448, Note_on_c, 1, 52, 110
3, 200828, Note_off_c, 1, 59, 100
3, 200828, Note_off_c, 1, 52, 100
3, 200832, Note_on_c, 1, 52, 100
3, 200832, Note_on_c, 1, 60, 100
3, 201020, Note_off_c, 1, 60, 100
3, 201024, Note_on_c, 1, 59, 100
3, 201212, Note_off_c, 1, 59, 100
3, 201216, Note_on_c, 1, 57, 100
3, 201404, Note_off_c, 1, 57, 100
3, 201408, Note_on_c, 1, 60, 100
3, 201596, Note_off_c, 1, 52, 100
3, 201596, Note_off_c, 1, 60, 100
3, 201600, Note_on_c, 1, 59, 110
3, 201600, Note_on_c, 1, 52, 110
3, 201980, Note_off_c, 1, 59, 100
3, 201980, Note_off_c, 1, 52, 100
3, 201984, Note_on_c, 1, 52, 100
3, 201984, Note_on_c, 1, 60, 100
3, 202172, Note_off_c, 1, 60, 100
3, 202176, Note_on_c, 1, 59, 100
3, 202364, Note_off_c, 1, 59, 100
3, 202368, Note_on_c, 1, 57, 100
3, 202556, Note_off_c, 1, 57, 100
3, 202560, Note_on_c, 1, 60, 100
3, 202748, Note_off_c, 1, 52, 100
3, 202748, Note_off_c, 1, 60, 100
3, 202752, Note_on_c, 1, 59, 80
3, 202752, Note_on_c, 1, 52, 80
3, 203132, Note_off_c, 1, 59, 100
3, 203132, Note_off_c, 1, 52, 100
3, 203904, Note_on_c, 1, 59, 80
3, 203904, Note_on_c, 1, 52, 80
3, 204284, Note_off_c, 1, 59, 100
3, 204284, Note_off_c, 1, 52, 100
3, 205056, Note_on_c, 1, 52, 80
3, 205056, Note_on_c, 1, 47, 80
3, 205056, Note_on_c, 1, 40, 80
3, 205436, Note_off_c, 1, 52, 100
3, 205436, Note_off_c, 1, 47, 100
3, 205436, Note_off_c, 1, 40, 100
3, 207360, Note_on_c, 1, 48, 80
3, 207360, Note_on_c, 1, 36, 80
3, 208508, Note_off_c, 1, 48, 100
3, 209660, Note_off_c, 1, 36, 100
3, 209664, Note_on_c, 1, 48, 80
3, 209664, Note_on_c, 1, 36, 80
3, 210044, Note_off_c, 1, 48, 100
3, 210044, Note_off_c, 1, 36, 100
3, 211968, Note_on_c, 1, 60, 80
3, 211968, Note_on_c, 1, 48, 80
3, 213116, Note_off_c, 1, 60, 100
3, 213120, Note_on_c, 1, 59, 80
3, 213884, Note_off_c, 1, 59, 100
3, 213888, Note_on_c, 1, 62, 80
3, 214268, Note_off_c, 1, 48, 100
3, 214268, Note_off_c, 1, 62, 100
3, 214272, Note_on_c, 1, 60, 80
3, 214272, Note_on_c, 1, 48, 80
3, 214652, Note_off_c, 1, 60, 100
3, 214652, Note_off_c, 1, 48, 100
3, 216576, Note_on_c, 1, 55, 80
3, 216576, Note_on_c, 1, 52, 80
3, 216576, Note_on_c, 1, 48, 80
3, 217724, Note_off_c, 1, 55, 100
3, 217728, Note_on_c, 1, 57, 80
3, 218876, Note_off_c, 1, 48, 100
3, 218876, Note_off_c, 1, 52, 100
3, 218876, Note_off_c, 1, 57, 100
3, 218880, Note_on_c, 1, 59, 75
3, 218880, Note_on_c, 1, 47, 75
3, 218880, Note_on_c, 1, 55, 75
3, 218880, Note_on_c, 1, 52, 75
3, 220028, Note_off_c, 1, 55, 100
3, 220028, Note_off_c, 1, 52, 100
3, 220032, Note_on_c, 1, 54, 75
3, 220032, Note_on_c, 1, 51, 75
3, 221180, Note_off_c, 1, 47, 100
3, 221180, Note_off_c, 1, 59, 100
3, 221180, Note_off_c, 1, 54, 100
3, 221180, Note_off_c, 1, 51, 100
3, 221184, Note_on_c, 1, 52, 70
3, 221564, Note_off_c, 1, 52, 100
3, 222336, Note_on_c, 1, 52, 70
3, 222336, Note_on_c, 1, 40, 70
3, 222716, Note_off_c, 1, 52, 100
3, 222716, Note_off_c, 1, 40, 100
3, 223488, Note_on_c, 1, 52, 70
3, 223488, Note_on_c, 1, 40, 70
3, 224636, Note_off_c, 1, 52, 100
3, 224636, Note_off_c, 1, 40, 100
3, 224636, End_track
0, 0, End_of_file
