0, 0, Header, 1, 3, 384
1, 0, Start_track
1, 0, Title_t, "L.v.Beethoven 3mov - Piano Sonata No.9 in E Major Op.14-1\000"
1, 0, Copyright_t, "Copyright(C) 1995-2009, Suzuki Software\000"
1, 0, Sequencer_specific, 9, 67, 123, 0, 88, 70, 48, 50, 0, 1
1, 0, Text_t, "XFhd:2000/05/11:JP:Classical::::L.v.Beethoven:::Kaoru Suzuki\000"
1, 0, Text_t, "XFln:JP:\203s\203A\203m\203\\\203i\203^\221æ9\224Ô\203z\222·\222²\215ì\225i14-1\201`\221æ3\212y\217Í:L.v.\203x\201[\203g\201[\203\224\203F\203\223:::\227é\202¿\202á\202ñ:\227é\202¿\202á\202ñ\000"
1, 0, Time_signature, 2, 2, 96, 8
1, 0, Sequencer_specific, 3, 0, 0, 65
1, 0, Sequencer_specific, 5, 0, 0, 119, 14, 0
1, 0, Tempo, 400000
1, 768, Time_signature, 4, 2, 96, 8
1, 43776, Tempo, 428571
1, 44544, Tempo, 461538
1, 44928, Tempo, 500000
1, 45312, Tempo, 545454
1, 45696, Tempo, 600000
1, 46080, Tempo, 400000
1, 125184, Tempo, 428571
1, 125568, Tempo, 461538
1, 125952, Tempo, 500000
1, 126336, Tempo, 545454
1, 126720, Tempo, 600000
1, 129024, Tempo, 400000
1, 163584, Tempo, 428571
1, 164352, Tempo, 461538
1, 165888, Tempo, 500000
1, 168960, Tempo, 400000
1, 186624, Tempo, 428571
1, 187008, Tempo, 461538
1, 187392, Tempo, 500000
1, 187776, Tempo, 545454
1, 188160, Tempo, 461538
1, 190464, Tempo, 400000
1, 201984, Tempo, 413793
1, 202752, Tempo, 428571
1, 203520, Tempo, 461538
1, 204288, Tempo, 500000
1, 204672, Tempo, 750000
1, 204672, End_track
2, 0, Start_track
2, 0, Title_t, "Right"
2, 0, Control_c, 0, 0, 0
2, 0, Program_c, 0, 0
2, 0, Control_c, 0, 7, 100
2, 0, Control_c, 0, 10, 75
2, 0, Control_c, 0, 91, 127
2, 0, Key_signature, 4, "major"
2, 0, Note_on_c, 0, 71, 80
2, 380, Note_off_c, 0, 71, 100
2, 384, Note_on_c, 0, 75, 80
2, 384, Note_on_c, 0, 63, 80
2, 764, Note_off_c, 0, 75, 100
2, 764, Note_off_c, 0, 63, 100
2, 768, Note_on_c, 0, 76, 80
2, 768, Note_on_c, 0, 64, 80
2, 1532, Note_off_c, 0, 76, 100
2, 1532, Note_off_c, 0, 64, 100
2, 1536, Note_on_c, 0, 76, 80
2, 1536, Note_on_c, 0, 64, 80
2, 1916, Note_off_c, 0, 76, 100
2, 1916, Note_off_c, 0, 64, 100
2, 1920, Note_on_c, 0, 64, 80
2, 1920, Note_on_c, 0, 76, 80
2, 2300, Note_off_c, 0, 64, 100
2, 2300, Note_off_c, 0, 76, 100
2, 2304, Note_on_c, 0, 78, 80
2, 2304, Note_on_c, 0, 66, 80
2, 2876, Note_off_c, 0, 78, 100
2, 2876, Note_off_c, 0, 66, 100
2, 2880, Note_on_c, 0, 80, 80
2, 2880, Note_on_c, 0, 68, 80
2, 3068, Note_off_c, 0, 80, 100
2, 3068, Note_off_c, 0, 68, 100
2, 3072, Note_on_c, 0, 81, 80
2, 3072, Note_on_c, 0, 69, 80
2, 3452, Note_off_c, 0, 81, 100
2, 3452, Note_off_c, 0, 69, 100
2, 3456, Note_on_c, 0, 81, 80
2, 3456, Note_on_c, 0, 69, 80
2, 3836, Note_off_c, 0, 81, 100
2, 3836, Note_off_c, 0, 69, 100
2, 3840, Note_on_c, 0, 81, 80
2, 3840, Note_on_c, 0, 69, 80
2, 4220, Note_off_c, 0, 81, 100
2, 4220, Note_off_c, 0, 69, 100
2, 4224, Note_on_c, 0, 81, 80
2, 4224, Note_on_c, 0, 69, 80
2, 4604, Note_off_c, 0, 81, 100
2, 4604, Note_off_c, 0, 69, 100
2, 4608, Note_on_c, 0, 81, 80
2, 4608, Note_on_c, 0, 69, 80
2, 4988, Note_off_c, 0, 81, 100
2, 4988, Note_off_c, 0, 69, 100
2, 4992, Note_on_c, 0, 81, 80
2, 4992, Note_on_c, 0, 69, 80
2, 5372, Note_off_c, 0, 81, 100
2, 5372, Note_off_c, 0, 69, 100
2, 5376, Note_on_c, 0, 81, 80
2, 5376, Note_on_c, 0, 69, 80
2, 6140, Note_off_c, 0, 81, 100
2, 6140, Note_off_c, 0, 69, 100
2, 6144, Note_on_c, 0, 81, 80
2, 6236, Note_off_c, 0, 81, 100
2, 6240, Note_on_c, 0, 80, 80
2, 6332, Note_off_c, 0, 80, 100
2, 6336, Note_on_c, 0, 78, 80
2, 6428, Note_off_c, 0, 78, 100
2, 6432, Note_on_c, 0, 76, 80
2, 6524, Note_off_c, 0, 76, 100
2, 6528, Note_on_c, 0, 75, 80
2, 6620, Note_off_c, 0, 75, 100
2, 6624, Note_on_c, 0, 73, 80
2, 6716, Note_off_c, 0, 73, 100
2, 6720, Note_on_c, 0, 71, 80
2, 6812, Note_off_c, 0, 71, 100
2, 6816, Note_on_c, 0, 69, 80
2, 6908, Note_off_c, 0, 69, 100
2, 6912, Note_on_c, 0, 68, 80
2, 7296, Note_on_c, 0, 71, 100
2, 7676, Note_off_c, 0, 68, 100
2, 7680, Note_on_c, 0, 63, 80
2, 8060, Note_off_c, 0, 71, 100
2, 8064, Note_on_c, 0, 66, 80
2, 8348, Note_off_c, 0, 66, 100
2, 8352, Note_on_c, 0, 68, 80
2, 8444, Note_off_c, 0, 63, 100
2, 8444, Note_off_c, 0, 68, 100
2, 8448, Note_on_c, 0, 64, 80
2, 8828, Note_off_c, 0, 64, 100
2, 9216, Note_on_c, 0, 69, 80
2, 9308, Note_off_c, 0, 69, 100
2, 9312, Note_on_c, 0, 68, 80
2, 9404, Note_off_c, 0, 68, 100
2, 9408, Note_on_c, 0, 66, 80
2, 9500, Note_off_c, 0, 66, 100
2, 9504, Note_on_c, 0, 64, 80
2, 9596, Note_off_c, 0, 64, 100
2, 9600, Note_on_c, 0, 63, 80
2, 9692, Note_off_c, 0, 63, 100
2, 9696, Note_on_c, 0, 61, 80
2, 9788, Note_off_c, 0, 61, 100
2, 9792, Note_on_c, 0, 59, 80
2, 9884, Note_off_c, 0, 59, 100
2, 9888, Note_on_c, 0, 57, 80
2, 9980, Note_off_c, 0, 57, 100
2, 9984, Note_on_c, 0, 56, 80
2, 10368, Note_on_c, 0, 59, 100
2, 10748, Note_off_c, 0, 56, 100
2, 10752, Note_on_c, 0, 51, 80
2, 11132, Note_off_c, 0, 59, 100
2, 11136, Note_on_c, 0, 54, 80
2, 11420, Note_off_c, 0, 54, 100
2, 11424, Note_on_c, 0, 56, 80
2, 11516, Note_off_c, 0, 51, 100
2, 11516, Note_off_c, 0, 56, 100
2, 11520, Note_on_c, 0, 52, 80
2, 11900, Note_off_c, 0, 52, 100
2, 11904, Note_on_c, 0, 52, 80
2, 12284, Note_off_c, 0, 52, 100
2, 12288, Note_on_c, 0, 71, 80
2, 12668, Note_off_c, 0, 71, 100
2, 12672, Note_on_c, 0, 75, 80
2, 12672, Note_on_c, 0, 63, 80
2, 13052, Note_off_c, 0, 75, 100
2, 13052, Note_off_c, 0, 63, 100
2, 13056, Note_on_c, 0, 76, 80
2, 13056, Note_on_c, 0, 64, 80
2, 13820, Note_off_c, 0, 76, 100
2, 13820, Note_off_c, 0, 64, 100
2, 13824, Note_on_c, 0, 76, 80
2, 13824, Note_on_c, 0, 64, 80
2, 14204, Note_off_c, 0, 76, 100
2, 14204, Note_off_c, 0, 64, 100
2, 14208, Note_on_c, 0, 64, 80
2, 14208, Note_on_c, 0, 76, 80
2, 14588, Note_off_c, 0, 64, 100
2, 14588, Note_off_c, 0, 76, 100
2, 14592, Note_on_c, 0, 78, 80
2, 14592, Note_on_c, 0, 66, 80
2, 15164, Note_off_c, 0, 78, 100
2, 15164, Note_off_c, 0, 66, 100
2, 15168, Note_on_c, 0, 80, 80
2, 15168, Note_on_c, 0, 68, 80
2, 15356, Note_off_c, 0, 80, 100
2, 15356, Note_off_c, 0, 68, 100
2, 15360, Note_on_c, 0, 81, 80
2, 15360, Note_on_c, 0, 69, 80
2, 15740, Note_off_c, 0, 81, 100
2, 15740, Note_off_c, 0, 69, 100
2, 15744, Note_on_c, 0, 81, 80
2, 15744, Note_on_c, 0, 69, 80
2, 16124, Note_off_c, 0, 81, 100
2, 16124, Note_off_c, 0, 69, 100
2, 16128, Note_on_c, 0, 81, 80
2, 16128, Note_on_c, 0, 69, 80
2, 16508, Note_off_c, 0, 81, 100
2, 16508, Note_off_c, 0, 69, 100
2, 16512, Note_on_c, 0, 81, 80
2, 16512, Note_on_c, 0, 69, 80
2, 16892, Note_off_c, 0, 81, 100
2, 16892, Note_off_c, 0, 69, 100
2, 16896, Note_on_c, 0, 81, 80
2, 16896, Note_on_c, 0, 69, 80
2, 17276, Note_off_c, 0, 81, 100
2, 17276, Note_off_c, 0, 69, 100
2, 17280, Note_on_c, 0, 81, 80
2, 17280, Note_on_c, 0, 69, 80
2, 17660, Note_off_c, 0, 81, 100
2, 17660, Note_off_c, 0, 69, 100
2, 17664, Note_on_c, 0, 81, 80
2, 17664, Note_on_c, 0, 69, 80
2, 18428, Note_off_c, 0, 81, 100
2, 18428, Note_off_c, 0, 69, 100
2, 18432, Note_on_c, 0, 81, 80
2, 18524, Note_off_c, 0, 81, 100
2, 18528, Note_on_c, 0, 80, 80
2, 18620, Note_off_c, 0, 80, 100
2, 18624, Note_on_c, 0, 78, 80
2, 18716, Note_off_c, 0, 78, 100
2, 18720, Note_on_c, 0, 76, 80
2, 18812, Note_off_c, 0, 76, 100
2, 18816, Note_on_c, 0, 75, 80
2, 18908, Note_off_c, 0, 75, 100
2, 18912, Note_on_c, 0, 73, 80
2, 19004, Note_off_c, 0, 73, 100
2, 19008, Note_on_c, 0, 71, 80
2, 19100, Note_off_c, 0, 71, 100
2, 19104, Note_on_c, 0, 69, 80
2, 19196, Note_off_c, 0, 69, 100
2, 19200, Note_on_c, 0, 68, 80
2, 19584, Note_on_c, 0, 71, 100
2, 19964, Note_off_c, 0, 68, 100
2, 19968, Note_on_c, 0, 63, 80
2, 20348, Note_off_c, 0, 71, 100
2, 20352, Note_on_c, 0, 66, 80
2, 20636, Note_off_c, 0, 66, 100
2, 20640, Note_on_c, 0, 68, 80
2, 20732, Note_off_c, 0, 63, 100
2, 20732, Note_off_c, 0, 68, 100
2, 20736, Note_on_c, 0, 64, 80
2, 21116, Note_off_c, 0, 64, 100
2, 23040, Note_on_c, 0, 76, 80
2, 23132, Note_off_c, 0, 76, 100
2, 23136, Note_on_c, 0, 75, 80
2, 23228, Note_off_c, 0, 75, 100
2, 23232, Note_on_c, 0, 73, 80
2, 23324, Note_off_c, 0, 73, 100
2, 23328, Note_on_c, 0, 71, 80
2, 23420, Note_off_c, 0, 71, 100
2, 23424, Note_on_c, 0, 70, 80
2, 23516, Note_off_c, 0, 70, 100
2, 23520, Note_on_c, 0, 68, 80
2, 23612, Note_off_c, 0, 68, 100
2, 23616, Note_on_c, 0, 66, 80
2, 23708, Note_off_c, 0, 66, 100
2, 23712, Note_on_c, 0, 64, 80
2, 23804, Note_off_c, 0, 64, 100
2, 23808, Note_on_c, 0, 63, 80
2, 24188, Note_off_c, 0, 63, 100
2, 24192, Note_on_c, 0, 66, 80
2, 24572, Note_off_c, 0, 66, 100
2, 24576, Note_on_c, 0, 58, 80
2, 24956, Note_off_c, 0, 58, 100
2, 24960, Note_on_c, 0, 66, 80
2, 25340, Note_off_c, 0, 66, 100
2, 25344, Note_on_c, 0, 59, 80
2, 26108, Note_off_c, 0, 59, 100
2, 26112, Note_on_c, 0, 64, 80
2, 26204, Note_off_c, 0, 64, 100
2, 26208, Note_on_c, 0, 63, 80
2, 26300, Note_off_c, 0, 63, 100
2, 26304, Note_on_c, 0, 61, 80
2, 26396, Note_off_c, 0, 61, 100
2, 26400, Note_on_c, 0, 59, 80
2, 26492, Note_off_c, 0, 59, 100
2, 26496, Note_on_c, 0, 58, 80
2, 26588, Note_off_c, 0, 58, 100
2, 26592, Note_on_c, 0, 56, 80
2, 26684, Note_off_c, 0, 56, 100
2, 26688, Note_on_c, 0, 54, 80
2, 26780, Note_off_c, 0, 54, 100
2, 26784, Note_on_c, 0, 52, 80
2, 26876, Note_off_c, 0, 52, 100
2, 26880, Note_on_c, 0, 51, 80
2, 26972, Note_off_c, 0, 51, 100
2, 26976, Note_on_c, 0, 52, 80
2, 27068, Note_off_c, 0, 52, 100
2, 27072, Note_on_c, 0, 54, 81
2, 27164, Note_off_c, 0, 54, 100
2, 27168, Note_on_c, 0, 56, 82
2, 27260, Note_off_c, 0, 56, 100
2, 27264, Note_on_c, 0, 58, 82
2, 27356, Note_off_c, 0, 58, 100
2, 27360, Note_on_c, 0, 59, 83
2, 27452, Note_off_c, 0, 59, 100
2, 27456, Note_on_c, 0, 61, 84
2, 27548, Note_off_c, 0, 61, 100
2, 27552, Note_on_c, 0, 63, 84
2, 27644, Note_off_c, 0, 63, 100
2, 27648, Note_on_c, 0, 64, 85
2, 28412, Note_off_c, 0, 64, 100
2, 28416, Note_on_c, 0, 66, 91
2, 28508, Note_off_c, 0, 66, 100
2, 28512, Note_on_c, 0, 68, 92
2, 28604, Note_off_c, 0, 68, 100
2, 28608, Note_on_c, 0, 70, 92
2, 28700, Note_off_c, 0, 70, 100
2, 28704, Note_on_c, 0, 71, 93
2, 28796, Note_off_c, 0, 71, 100
2, 28800, Note_on_c, 0, 73, 94
2, 28892, Note_off_c, 0, 73, 100
2, 28896, Note_on_c, 0, 75, 94
2, 28988, Note_off_c, 0, 75, 100
2, 28992, Note_on_c, 0, 76, 95
2, 29084, Note_off_c, 0, 76, 100
2, 29088, Note_on_c, 0, 78, 96
2, 29180, Note_off_c, 0, 78, 100
2, 29184, Note_on_c, 0, 80, 97
2, 29948, Note_off_c, 0, 80, 100
2, 29952, Note_on_c, 0, 82, 100
2, 30000, Note_on_c, 0, 83, 100
2, 30044, Note_off_c, 0, 82, 100
2, 30048, Note_on_c, 0, 82, 100
2, 30092, Note_off_c, 0, 83, 100
2, 30096, Note_on_c, 0, 83, 100
2, 30140, Note_off_c, 0, 82, 100
2, 30144, Note_on_c, 0, 80, 100
2, 30188, Note_off_c, 0, 83, 100
2, 30236, Note_off_c, 0, 80, 100
2, 30240, Note_on_c, 0, 82, 100
2, 30332, Note_off_c, 0, 82, 100
2, 30336, Note_on_c, 0, 83, 100
2, 30716, Note_off_c, 0, 83, 100
2, 30720, Note_on_c, 0, 73, 100
2, 30768, Note_on_c, 0, 75, 100
2, 30812, Note_off_c, 0, 73, 100
2, 30816, Note_on_c, 0, 73, 100
2, 30860, Note_off_c, 0, 75, 100
2, 30864, Note_on_c, 0, 75, 100
2, 30908, Note_off_c, 0, 73, 100
2, 30912, Note_on_c, 0, 72, 100
2, 30956, Note_off_c, 0, 75, 100
2, 31004, Note_off_c, 0, 72, 100
2, 31008, Note_on_c, 0, 73, 100
2, 31100, Note_off_c, 0, 73, 100
2, 31104, Note_on_c, 0, 78, 100
2, 31484, Note_off_c, 0, 78, 100
2, 31488, Note_on_c, 0, 71, 100
2, 31868, Note_off_c, 0, 71, 100
2, 32256, Note_on_c, 0, 83, 80
2, 33020, Note_off_c, 0, 83, 100
2, 33024, Note_on_c, 0, 71, 80
2, 33788, Note_off_c, 0, 71, 100
2, 33792, Note_on_c, 0, 67, 80
2, 34556, Note_off_c, 0, 67, 100
2, 34560, Note_on_c, 0, 68, 80
2, 35328, Note_on_c, 0, 73, 80
2, 35328, Note_on_c, 0, 64, 80
2, 36092, Note_off_c, 0, 68, 100
2, 36092, Note_off_c, 0, 73, 100
2, 36092, Note_off_c, 0, 64, 100
2, 36096, Note_on_c, 0, 71, 80
2, 36096, Note_on_c, 0, 66, 80
2, 36096, Note_on_c, 0, 63, 80
2, 36860, Note_off_c, 0, 71, 100
2, 36860, Note_off_c, 0, 66, 100
2, 36860, Note_off_c, 0, 63, 100
2, 36864, Note_on_c, 0, 64, 80
2, 36864, Note_on_c, 0, 61, 80
2, 36864, Note_on_c, 0, 71, 80
2, 37052, Note_off_c, 0, 71, 100
2, 37056, Note_on_c, 0, 70, 80
2, 37244, Note_off_c, 0, 70, 100
2, 37248, Note_on_c, 0, 68, 80
2, 37436, Note_off_c, 0, 68, 100
2, 37440, Note_on_c, 0, 70, 80
2, 37628, Note_off_c, 0, 64, 100
2, 37628, Note_off_c, 0, 61, 100
2, 37628, Note_off_c, 0, 70, 100
2, 37632, Note_on_c, 0, 71, 80
2, 37632, Note_on_c, 0, 63, 80
2, 37632, Note_on_c, 0, 59, 80
2, 38396, Note_off_c, 0, 71, 100
2, 38396, Note_off_c, 0, 63, 100
2, 38396, Note_off_c, 0, 59, 100
2, 38400, Note_on_c, 0, 83, 80
2, 38780, Note_off_c, 0, 83, 100
2, 38784, Note_on_c, 0, 83, 80
2, 39164, Note_off_c, 0, 83, 100
2, 39168, Note_on_c, 0, 71, 80
2, 39548, Note_off_c, 0, 71, 100
2, 39552, Note_on_c, 0, 71, 80
2, 39932, Note_off_c, 0, 71, 100
2, 39936, Note_on_c, 0, 67, 80
2, 40316, Note_off_c, 0, 67, 100
2, 40320, Note_on_c, 0, 67, 80
2, 40700, Note_off_c, 0, 67, 100
2, 40704, Note_on_c, 0, 68, 80
2, 41472, Note_on_c, 0, 73, 80
2, 41472, Note_on_c, 0, 64, 80
2, 42236, Note_off_c, 0, 68, 100
2, 42236, Note_off_c, 0, 73, 100
2, 42236, Note_off_c, 0, 64, 100
2, 42240, Note_on_c, 0, 71, 80
2, 42240, Note_on_c, 0, 66, 80
2, 42240, Note_on_c, 0, 63, 80
2, 43004, Note_off_c, 0, 71, 100
2, 43004, Note_off_c, 0, 66, 100
2, 43004, Note_off_c, 0, 63, 100
2, 43008, Note_on_c, 0, 64, 80
2, 43008, Note_on_c, 0, 61, 80
2, 43008, Note_on_c, 0, 71, 80
2, 43196, Note_off_c, 0, 71, 100
2, 43200, Note_on_c, 0, 70, 80
2, 43388, Note_off_c, 0, 70, 100
2, 43392, Note_on_c, 0, 68, 80
2, 43580, Note_off_c, 0, 68, 100
2, 43584, Note_on_c, 0, 70, 80
2, 43772, Note_off_c, 0, 64, 100
2, 43772, Note_off_c, 0, 61, 100
2, 43772, Note_off_c, 0, 70, 100
2, 43776, Note_on_c, 0, 71, 80
2, 43776, Note_on_c, 0, 63, 80
2, 43776, Note_on_c, 0, 59, 80
2, 44540, Note_off_c, 0, 71, 100
2, 44540, Note_off_c, 0, 63, 100
2, 44540, Note_off_c, 0, 59, 100
2, 44544, Note_on_c, 0, 71, 77
2, 44544, Note_on_c, 0, 64, 77
2, 44544, Note_on_c, 0, 61, 77
2, 44544, Note_on_c, 0, 59, 77
2, 45308, Note_off_c, 0, 71, 100
2, 45308, Note_off_c, 0, 64, 100
2, 45308, Note_off_c, 0, 61, 100
2, 45308, Note_off_c, 0, 59, 100
2, 45312, Note_on_c, 0, 71, 73
2, 45312, Note_on_c, 0, 66, 73
2, 45312, Note_on_c, 0, 63, 73
2, 45312, Note_on_c, 0, 59, 73
2, 46076, Note_off_c, 0, 71, 100
2, 46076, Note_off_c, 0, 66, 100
2, 46076, Note_off_c, 0, 63, 100
2, 46076, Note_off_c, 0, 59, 100
2, 46080, Note_on_c, 0, 71, 80
2, 46460, Note_off_c, 0, 71, 100
2, 46464, Note_on_c, 0, 75, 80
2, 46464, Note_on_c, 0, 63, 80
2, 46844, Note_off_c, 0, 75, 100
2, 46844, Note_off_c, 0, 63, 100
2, 46848, Note_on_c, 0, 76, 80
2, 46848, Note_on_c, 0, 64, 80
2, 47612, Note_off_c, 0, 76, 100
2, 47612, Note_off_c, 0, 64, 100
2, 47616, Note_on_c, 0, 76, 80
2, 47616, Note_on_c, 0, 64, 80
2, 47996, Note_off_c, 0, 76, 100
2, 47996, Note_off_c, 0, 64, 100
2, 48000, Note_on_c, 0, 64, 80
2, 48000, Note_on_c, 0, 76, 80
2, 48380, Note_off_c, 0, 64, 100
2, 48380, Note_off_c, 0, 76, 100
2, 48384, Note_on_c, 0, 78, 80
2, 48384, Note_on_c, 0, 66, 80
2, 48956, Note_off_c, 0, 78, 100
2, 48956, Note_off_c, 0, 66, 100
2, 48960, Note_on_c, 0, 80, 80
2, 48960, Note_on_c, 0, 68, 80
2, 49148, Note_off_c, 0, 80, 100
2, 49148, Note_off_c, 0, 68, 100
2, 49152, Note_on_c, 0, 81, 80
2, 49152, Note_on_c, 0, 69, 80
2, 49532, Note_off_c, 0, 81, 100
2, 49532, Note_off_c, 0, 69, 100
2, 49536, Note_on_c, 0, 81, 80
2, 49536, Note_on_c, 0, 69, 80
2, 49916, Note_off_c, 0, 81, 100
2, 49916, Note_off_c, 0, 69, 100
2, 49920, Note_on_c, 0, 81, 80
2, 49920, Note_on_c, 0, 69, 80
2, 50300, Note_off_c, 0, 81, 100
2, 50300, Note_off_c, 0, 69, 100
2, 50304, Note_on_c, 0, 81, 82
2, 50304, Note_on_c, 0, 69, 82
2, 50684, Note_off_c, 0, 81, 100
2, 50684, Note_off_c, 0, 69, 100
2, 50688, Note_on_c, 0, 81, 84
2, 50688, Note_on_c, 0, 69, 84
2, 51068, Note_off_c, 0, 81, 100
2, 51068, Note_off_c, 0, 69, 100
2, 51072, Note_on_c, 0, 81, 87
2, 51072, Note_on_c, 0, 69, 87
2, 51452, Note_off_c, 0, 81, 100
2, 51452, Note_off_c, 0, 69, 100
2, 51456, Note_on_c, 0, 81, 89
2, 51456, Note_on_c, 0, 69, 89
2, 52220, Note_off_c, 0, 81, 100
2, 52220, Note_off_c, 0, 69, 100
2, 52224, Note_on_c, 0, 81, 80
2, 52316, Note_off_c, 0, 81, 100
2, 52320, Note_on_c, 0, 80, 80
2, 52412, Note_off_c, 0, 80, 100
2, 52416, Note_on_c, 0, 78, 80
2, 52508, Note_off_c, 0, 78, 100
2, 52512, Note_on_c, 0, 76, 80
2, 52604, Note_off_c, 0, 76, 100
2, 52608, Note_on_c, 0, 75, 80
2, 52700, Note_off_c, 0, 75, 100
2, 52704, Note_on_c, 0, 73, 80
2, 52796, Note_off_c, 0, 73, 100
2, 52800, Note_on_c, 0, 71, 80
2, 52892, Note_off_c, 0, 71, 100
2, 52896, Note_on_c, 0, 69, 80
2, 52988, Note_off_c, 0, 69, 100
2, 52992, Note_on_c, 0, 68, 80
2, 53376, Note_on_c, 0, 71, 80
2, 53756, Note_off_c, 0, 68, 100
2, 53760, Note_on_c, 0, 63, 80
2, 54140, Note_off_c, 0, 71, 100
2, 54144, Note_on_c, 0, 66, 80
2, 54428, Note_off_c, 0, 66, 100
2, 54432, Note_on_c, 0, 68, 80
2, 54524, Note_off_c, 0, 63, 100
2, 54524, Note_off_c, 0, 68, 100
2, 54528, Note_on_c, 0, 64, 80
2, 54908, Note_off_c, 0, 64, 100
2, 55296, Note_on_c, 0, 69, 80
2, 55388, Note_off_c, 0, 69, 100
2, 55392, Note_on_c, 0, 68, 80
2, 55484, Note_off_c, 0, 68, 100
2, 55488, Note_on_c, 0, 66, 80
2, 55580, Note_off_c, 0, 66, 100
2, 55584, Note_on_c, 0, 64, 80
2, 55676, Note_off_c, 0, 64, 100
2, 55680, Note_on_c, 0, 63, 80
2, 55772, Note_off_c, 0, 63, 100
2, 55776, Note_on_c, 0, 61, 80
2, 55868, Note_off_c, 0, 61, 100
2, 55872, Note_on_c, 0, 59, 80
2, 55964, Note_off_c, 0, 59, 100
2, 55968, Note_on_c, 0, 57, 80
2, 56060, Note_off_c, 0, 57, 100
2, 56064, Note_on_c, 0, 56, 80
2, 56448, Note_on_c, 0, 59, 80
2, 56828, Note_off_c, 0, 56, 100
2, 56832, Note_on_c, 0, 51, 80
2, 57212, Note_off_c, 0, 59, 100
2, 57216, Note_on_c, 0, 54, 80
2, 57500, Note_off_c, 0, 54, 100
2, 57504, Note_on_c, 0, 56, 80
2, 57596, Note_off_c, 0, 51, 100
2, 57596, Note_off_c, 0, 56, 100
2, 57600, Note_on_c, 0, 52, 80
2, 57980, Note_off_c, 0, 52, 100
2, 57984, Note_on_c, 0, 52, 80
2, 58364, Note_off_c, 0, 52, 100
2, 58368, Note_on_c, 0, 71, 80
2, 58748, Note_off_c, 0, 71, 100
2, 58752, Note_on_c, 0, 75, 80
2, 58752, Note_on_c, 0, 63, 80
2, 59132, Note_off_c, 0, 75, 100
2, 59132, Note_off_c, 0, 63, 100
2, 59136, Note_on_c, 0, 64, 80
2, 59136, Note_on_c, 0, 76, 80
2, 59900, Note_off_c, 0, 64, 100
2, 59900, Note_off_c, 0, 76, 100
2, 59904, Note_on_c, 0, 76, 80
2, 59904, Note_on_c, 0, 64, 80
2, 60284, Note_off_c, 0, 76, 100
2, 60284, Note_off_c, 0, 64, 100
2, 60288, Note_on_c, 0, 76, 80
2, 60288, Note_on_c, 0, 64, 80
2, 60668, Note_off_c, 0, 76, 100
2, 60668, Note_off_c, 0, 64, 100
2, 60672, Note_on_c, 0, 78, 80
2, 60672, Note_on_c, 0, 66, 80
2, 61244, Note_off_c, 0, 78, 100
2, 61244, Note_off_c, 0, 66, 100
2, 61248, Note_on_c, 0, 79, 84
2, 61248, Note_on_c, 0, 67, 84
2, 61436, Note_off_c, 0, 79, 100
2, 61436, Note_off_c, 0, 67, 100
2, 61440, Note_on_c, 0, 81, 85
2, 61440, Note_on_c, 0, 69, 85
2, 61820, Note_off_c, 0, 81, 100
2, 61820, Note_off_c, 0, 69, 100
2, 61824, Note_on_c, 0, 83, 88
2, 61824, Note_on_c, 0, 71, 88
2, 62204, Note_off_c, 0, 83, 100
2, 62204, Note_off_c, 0, 71, 100
2, 62208, Note_on_c, 0, 84, 91
2, 62208, Note_on_c, 0, 72, 91
2, 62588, Note_off_c, 0, 84, 100
2, 62588, Note_off_c, 0, 72, 100
2, 62592, Note_on_c, 0, 72, 94
2, 62592, Note_on_c, 0, 84, 94
2, 62972, Note_off_c, 0, 72, 100
2, 62972, Note_off_c, 0, 84, 100
2, 62976, Note_on_c, 0, 84, 97
2, 62976, Note_on_c, 0, 72, 97
2, 63356, Note_off_c, 0, 84, 100
2, 63356, Note_off_c, 0, 72, 100
2, 63360, Note_on_c, 0, 72, 99
2, 63360, Note_on_c, 0, 84, 99
2, 63740, Note_off_c, 0, 72, 100
2, 63740, Note_off_c, 0, 84, 100
2, 63744, Note_on_c, 0, 84, 110
2, 63744, Note_on_c, 0, 72, 110
2, 64508, Note_off_c, 0, 84, 100
2, 64508, Note_off_c, 0, 72, 100
2, 64512, Note_on_c, 0, 84, 110
2, 64604, Note_off_c, 0, 84, 100
2, 64608, Note_on_c, 0, 83, 110
2, 64700, Note_off_c, 0, 83, 100
2, 64704, Note_on_c, 0, 81, 110
2, 64796, Note_off_c, 0, 81, 100
2, 64800, Note_on_c, 0, 79, 110
2, 64892, Note_off_c, 0, 79, 100
2, 64896, Note_on_c, 0, 78, 110
2, 64988, Note_off_c, 0, 78, 100
2, 64992, Note_on_c, 0, 76, 110
2, 65084, Note_off_c, 0, 76, 100
2, 65088, Note_on_c, 0, 74, 110
2, 65180, Note_off_c, 0, 74, 100
2, 65184, Note_on_c, 0, 72, 110
2, 65276, Note_off_c, 0, 72, 100
2, 65280, Note_on_c, 0, 79, 110
2, 65280, Note_on_c, 0, 71, 110
2, 66044, Note_off_c, 0, 71, 100
2, 66048, Note_on_c, 0, 73, 110
2, 66140, Note_off_c, 0, 79, 100
2, 66144, Note_on_c, 0, 78, 110
2, 66236, Note_off_c, 0, 78, 100
2, 66240, Note_on_c, 0, 76, 110
2, 66332, Note_off_c, 0, 76, 100
2, 66336, Note_on_c, 0, 74, 110
2, 66428, Note_off_c, 0, 73, 100
2, 66428, Note_off_c, 0, 74, 100
2, 66432, Note_on_c, 0, 73, 110
2, 66524, Note_off_c, 0, 73, 100
2, 66528, Note_on_c, 0, 71, 110
2, 66620, Note_off_c, 0, 71, 100
2, 66624, Note_on_c, 0, 69, 110
2, 66716, Note_off_c, 0, 69, 100
2, 66720, Note_on_c, 0, 67, 110
2, 66812, Note_off_c, 0, 67, 100
2, 66816, Note_on_c, 0, 74, 110
2, 66816, Note_on_c, 0, 66, 110
2, 67580, Note_off_c, 0, 74, 100
2, 67580, Note_off_c, 0, 66, 100
2, 67584, Note_on_c, 0, 72, 110
2, 67676, Note_off_c, 0, 72, 100
2, 67680, Note_on_c, 0, 71, 110
2, 67772, Note_off_c, 0, 71, 100
2, 67776, Note_on_c, 0, 69, 110
2, 67868, Note_off_c, 0, 69, 100
2, 67872, Note_on_c, 0, 67, 110
2, 67964, Note_off_c, 0, 67, 100
2, 67968, Note_on_c, 0, 66, 110
2, 68060, Note_off_c, 0, 66, 100
2, 68064, Note_on_c, 0, 64, 110
2, 68156, Note_off_c, 0, 64, 100
2, 68160, Note_on_c, 0, 62, 110
2, 68252, Note_off_c, 0, 62, 100
2, 68256, Note_on_c, 0, 60, 110
2, 68348, Note_off_c, 0, 60, 100
2, 68352, Note_on_c, 0, 67, 110
2, 68352, Note_on_c, 0, 59, 110
2, 69116, Note_off_c, 0, 59, 100
2, 69120, Note_on_c, 0, 61, 110
2, 69212, Note_off_c, 0, 67, 100
2, 69216, Note_on_c, 0, 66, 110
2, 69308, Note_off_c, 0, 66, 100
2, 69312, Note_on_c, 0, 64, 110
2, 69404, Note_off_c, 0, 64, 100
2, 69408, Note_on_c, 0, 62, 110
2, 69500, Note_off_c, 0, 61, 100
2, 69500, Note_off_c, 0, 62, 100
2, 69504, Note_on_c, 0, 61, 110
2, 69596, Note_off_c, 0, 61, 100
2, 69600, Note_on_c, 0, 59, 110
2, 69692, Note_off_c, 0, 59, 100
2, 69696, Note_on_c, 0, 57, 110
2, 69788, Note_off_c, 0, 57, 100
2, 69792, Note_on_c, 0, 55, 110
2, 69884, Note_off_c, 0, 55, 100
2, 69888, Note_on_c, 0, 54, 110
2, 69980, Note_off_c, 0, 54, 100
2, 69984, Note_on_c, 0, 55, 110
2, 70076, Note_off_c, 0, 55, 100
2, 70080, Note_on_c, 0, 57, 110
2, 70172, Note_off_c, 0, 57, 100
2, 70176, Note_on_c, 0, 59, 110
2, 70268, Note_off_c, 0, 59, 100
2, 70272, Note_on_c, 0, 60, 110
2, 70364, Note_off_c, 0, 60, 100
2, 70368, Note_on_c, 0, 59, 110
2, 70460, Note_off_c, 0, 59, 100
2, 70464, Note_on_c, 0, 57, 110
2, 70556, Note_off_c, 0, 57, 100
2, 70560, Note_on_c, 0, 55, 110
2, 70652, Note_off_c, 0, 55, 100
2, 70656, Note_on_c, 0, 54, 110
2, 70748, Note_off_c, 0, 54, 100
2, 70752, Note_on_c, 0, 55, 110
2, 70844, Note_off_c, 0, 55, 100
2, 70848, Note_on_c, 0, 54, 110
2, 70940, Note_off_c, 0, 54, 100
2, 70944, Note_on_c, 0, 52, 110
2, 71036, Note_off_c, 0, 52, 100
2, 71040, Note_on_c, 0, 50, 110
2, 71132, Note_off_c, 0, 50, 100
2, 71136, Note_on_c, 0, 48, 110
2, 71228, Note_off_c, 0, 48, 100
2, 71232, Note_on_c, 0, 47, 110
2, 71324, Note_off_c, 0, 47, 100
2, 71328, Note_on_c, 0, 45, 110
2, 71420, Note_off_c, 0, 45, 100
2, 71424, Key_signature, 1, "minor"
2, 71552, Note_on_c, 0, 47, 110
2, 71676, Note_off_c, 0, 47, 100
2, 71680, Note_on_c, 0, 50, 110
2, 71804, Note_off_c, 0, 50, 100
2, 71808, Note_on_c, 0, 55, 110
2, 71932, Note_off_c, 0, 55, 100
2, 71936, Note_on_c, 0, 50, 110
2, 72060, Note_off_c, 0, 50, 100
2, 72064, Note_on_c, 0, 47, 110
2, 72188, Note_off_c, 0, 47, 100
2, 72192, Note_on_c, 0, 59, 110
2, 72316, Note_off_c, 0, 59, 100
2, 72320, Note_on_c, 0, 50, 110
2, 72444, Note_off_c, 0, 50, 100
2, 72448, Note_on_c, 0, 55, 110
2, 72572, Note_off_c, 0, 55, 100
2, 72576, Note_on_c, 0, 59, 110
2, 72700, Note_off_c, 0, 59, 100
2, 72704, Note_on_c, 0, 55, 110
2, 72828, Note_off_c, 0, 55, 100
2, 72832, Note_on_c, 0, 50, 110
2, 72956, Note_off_c, 0, 50, 100
2, 72960, Note_on_c, 0, 62, 110
2, 73084, Note_off_c, 0, 62, 100
2, 73088, Note_on_c, 0, 55, 110
2, 73212, Note_off_c, 0, 55, 100
2, 73216, Note_on_c, 0, 59, 110
2, 73340, Note_off_c, 0, 59, 100
2, 73344, Note_on_c, 0, 62, 110
2, 73468, Note_off_c, 0, 62, 100
2, 73472, Note_on_c, 0, 59, 110
2, 73596, Note_off_c, 0, 59, 100
2, 73600, Note_on_c, 0, 55, 110
2, 73724, Note_off_c, 0, 55, 100
2, 73728, Note_on_c, 0, 67, 110
2, 73852, Note_off_c, 0, 67, 100
2, 73856, Note_on_c, 0, 62, 110
2, 73980, Note_off_c, 0, 62, 100
2, 73984, Note_on_c, 0, 59, 110
2, 74108, Note_off_c, 0, 59, 100
2, 74112, Note_on_c, 0, 66, 110
2, 74236, Note_off_c, 0, 66, 100
2, 74240, Note_on_c, 0, 60, 110
2, 74364, Note_off_c, 0, 60, 100
2, 74368, Note_on_c, 0, 57, 110
2, 74492, Note_off_c, 0, 57, 100
2, 74496, Note_on_c, 0, 67, 110
2, 74620, Note_off_c, 0, 67, 100
2, 74624, Note_on_c, 0, 59, 110
2, 74748, Note_off_c, 0, 59, 100
2, 74752, Note_on_c, 0, 62, 110
2, 74876, Note_off_c, 0, 62, 100
2, 74880, Note_on_c, 0, 67, 110
2, 75004, Note_off_c, 0, 67, 100
2, 75008, Note_on_c, 0, 62, 110
2, 75132, Note_off_c, 0, 62, 100
2, 75136, Note_on_c, 0, 59, 110
2, 75260, Note_off_c, 0, 59, 100
2, 75264, Note_on_c, 0, 71, 110
2, 75388, Note_off_c, 0, 71, 100
2, 75392, Note_on_c, 0, 62, 110
2, 75516, Note_off_c, 0, 62, 100
2, 75520, Note_on_c, 0, 67, 110
2, 75644, Note_off_c, 0, 67, 100
2, 75648, Note_on_c, 0, 71, 110
2, 75772, Note_off_c, 0, 71, 100
2, 75776, Note_on_c, 0, 67, 110
2, 75900, Note_off_c, 0, 67, 100
2, 75904, Note_on_c, 0, 62, 110
2, 76028, Note_off_c, 0, 62, 100
2, 76032, Note_on_c, 0, 74, 110
2, 76156, Note_off_c, 0, 74, 100
2, 76160, Note_on_c, 0, 67, 110
2, 76284, Note_off_c, 0, 67, 100
2, 76288, Note_on_c, 0, 71, 110
2, 76412, Note_off_c, 0, 71, 100
2, 76416, Note_on_c, 0, 74, 110
2, 76540, Note_off_c, 0, 74, 100
2, 76544, Note_on_c, 0, 71, 110
2, 76668, Note_off_c, 0, 71, 100
2, 76672, Note_on_c, 0, 67, 110
2, 76796, Note_off_c, 0, 67, 100
2, 76800, Note_on_c, 0, 74, 110
2, 76924, Note_off_c, 0, 74, 100
2, 76928, Note_on_c, 0, 71, 110
2, 77052, Note_off_c, 0, 71, 100
2, 77056, Note_on_c, 0, 68, 110
2, 77180, Note_off_c, 0, 68, 100
2, 77184, Note_on_c, 0, 71, 110
2, 77308, Note_off_c, 0, 71, 100
2, 77312, Note_on_c, 0, 68, 110
2, 77436, Note_off_c, 0, 68, 100
2, 77440, Note_on_c, 0, 62, 110
2, 77564, Note_off_c, 0, 62, 100
2, 77568, Note_on_c, 0, 69, 110
2, 77692, Note_off_c, 0, 69, 100
2, 77696, Note_on_c, 0, 60, 110
2, 77820, Note_off_c, 0, 60, 100
2, 77824, Note_on_c, 0, 64, 110
2, 77948, Note_off_c, 0, 64, 100
2, 77952, Note_on_c, 0, 69, 110
2, 78076, Note_off_c, 0, 69, 100
2, 78080, Note_on_c, 0, 64, 110
2, 78204, Note_off_c, 0, 64, 100
2, 78208, Note_on_c, 0, 60, 110
2, 78332, Note_off_c, 0, 60, 100
2, 78336, Note_on_c, 0, 72, 110
2, 78460, Note_off_c, 0, 72, 100
2, 78464, Note_on_c, 0, 64, 110
2, 78588, Note_off_c, 0, 64, 100
2, 78592, Note_on_c, 0, 69, 110
2, 78716, Note_off_c, 0, 69, 100
2, 78720, Note_on_c, 0, 72, 110
2, 78844, Note_off_c, 0, 72, 100
2, 78848, Note_on_c, 0, 69, 110
2, 78972, Note_off_c, 0, 69, 100
2, 78976, Note_on_c, 0, 64, 110
2, 79100, Note_off_c, 0, 64, 100
2, 79104, Note_on_c, 0, 76, 110
2, 79228, Note_off_c, 0, 76, 100
2, 79232, Note_on_c, 0, 69, 110
2, 79356, Note_off_c, 0, 69, 100
2, 79360, Note_on_c, 0, 72, 110
2, 79484, Note_off_c, 0, 72, 100
2, 79488, Note_on_c, 0, 76, 110
2, 79612, Note_off_c, 0, 76, 100
2, 79616, Note_on_c, 0, 72, 110
2, 79740, Note_off_c, 0, 72, 100
2, 79744, Note_on_c, 0, 69, 110
2, 79868, Note_off_c, 0, 69, 100
2, 79872, Note_on_c, 0, 81, 110
2, 79996, Note_off_c, 0, 81, 100
2, 80000, Note_on_c, 0, 76, 110
2, 80124, Note_off_c, 0, 76, 100
2, 80128, Note_on_c, 0, 72, 110
2, 80252, Note_off_c, 0, 72, 100
2, 80256, Note_on_c, 0, 80, 110
2, 80380, Note_off_c, 0, 80, 100
2, 80384, Note_on_c, 0, 74, 110
2, 80508, Note_off_c, 0, 74, 100
2, 80512, Note_on_c, 0, 71, 110
2, 80636, Note_off_c, 0, 71, 100
2, 80640, Note_on_c, 0, 81, 110
2, 80764, Note_off_c, 0, 81, 100
2, 80768, Note_on_c, 0, 72, 110
2, 80892, Note_off_c, 0, 72, 100
2, 80896, Note_on_c, 0, 76, 110
2, 81020, Note_off_c, 0, 76, 100
2, 81024, Note_on_c, 0, 81, 110
2, 81148, Note_off_c, 0, 81, 100
2, 81152, Note_on_c, 0, 76, 110
2, 81276, Note_off_c, 0, 76, 100
2, 81280, Note_on_c, 0, 72, 110
2, 81404, Note_off_c, 0, 72, 100
2, 81408, Note_on_c, 0, 84, 110
2, 81532, Note_off_c, 0, 84, 100
2, 81536, Note_on_c, 0, 76, 110
2, 81660, Note_off_c, 0, 76, 100
2, 81664, Note_on_c, 0, 81, 110
2, 81788, Note_off_c, 0, 81, 100
2, 81792, Note_on_c, 0, 84, 110
2, 81916, Note_off_c, 0, 84, 100
2, 81920, Note_on_c, 0, 81, 110
2, 82044, Note_off_c, 0, 81, 100
2, 82048, Note_on_c, 0, 76, 110
2, 82172, Note_off_c, 0, 76, 100
2, 82176, Note_on_c, 0, 88, 110
2, 82300, Note_off_c, 0, 88, 100
2, 82304, Note_on_c, 0, 81, 110
2, 82428, Note_off_c, 0, 81, 100
2, 82432, Note_on_c, 0, 84, 110
2, 82556, Note_off_c, 0, 84, 100
2, 82560, Note_on_c, 0, 88, 110
2, 82684, Note_off_c, 0, 88, 100
2, 82688, Note_on_c, 0, 84, 110
2, 82812, Note_off_c, 0, 84, 100
2, 82816, Note_on_c, 0, 81, 110
2, 82940, Note_off_c, 0, 81, 100
2, 82944, Note_on_c, 0, 88, 110
2, 83068, Note_off_c, 0, 88, 100
2, 83072, Note_on_c, 0, 85, 110
2, 83196, Note_off_c, 0, 85, 100
2, 83200, Note_on_c, 0, 82, 110
2, 83324, Note_off_c, 0, 82, 100
2, 83328, Note_on_c, 0, 85, 80
2, 83452, Note_off_c, 0, 85, 100
2, 83456, Note_on_c, 0, 82, 80
2, 83580, Note_off_c, 0, 82, 100
2, 83584, Note_on_c, 0, 76, 80
2, 83708, Note_off_c, 0, 76, 100
2, 83712, Note_on_c, 0, 83, 80
2, 83836, Note_off_c, 0, 83, 100
2, 83840, Note_on_c, 0, 78, 80
2, 83964, Note_off_c, 0, 78, 100
2, 83968, Note_on_c, 0, 74, 80
2, 84092, Note_off_c, 0, 74, 100
2, 84096, Note_on_c, 0, 83, 80
2, 84220, Note_off_c, 0, 83, 100
2, 84224, Note_on_c, 0, 79, 80
2, 84348, Note_off_c, 0, 79, 100
2, 84352, Note_on_c, 0, 74, 80
2, 84476, Note_off_c, 0, 74, 100
2, 84480, Note_on_c, 0, 83, 80
2, 84604, Note_off_c, 0, 83, 100
2, 84608, Note_on_c, 0, 79, 80
2, 84732, Note_off_c, 0, 79, 100
2, 84736, Note_on_c, 0, 73, 80
2, 84860, Note_off_c, 0, 73, 100
2, 84864, Note_on_c, 0, 82, 80
2, 84988, Note_off_c, 0, 82, 100
2, 84992, Note_on_c, 0, 78, 80
2, 85116, Note_off_c, 0, 78, 100
2, 85120, Note_on_c, 0, 73, 80
2, 85244, Note_off_c, 0, 73, 100
2, 85248, Note_on_c, 0, 83, 80
2, 85372, Note_off_c, 0, 83, 100
2, 85376, Note_on_c, 0, 78, 80
2, 85500, Note_off_c, 0, 78, 100
2, 85504, Note_on_c, 0, 74, 80
2, 85628, Note_off_c, 0, 74, 100
2, 85632, Note_on_c, 0, 78, 80
2, 85756, Note_off_c, 0, 78, 100
2, 85760, Note_on_c, 0, 74, 80
2, 85884, Note_off_c, 0, 74, 100
2, 85888, Note_on_c, 0, 71, 80
2, 86012, Note_off_c, 0, 71, 100
2, 86016, Note_on_c, 0, 78, 80
2, 86140, Note_off_c, 0, 78, 100
2, 86144, Note_on_c, 0, 74, 80
2, 86268, Note_off_c, 0, 74, 100
2, 86272, Note_on_c, 0, 71, 80
2, 86396, Note_off_c, 0, 71, 100
2, 86400, Note_on_c, 0, 78, 80
2, 86524, Note_off_c, 0, 78, 100
2, 86528, Note_on_c, 0, 73, 80
2, 86652, Note_off_c, 0, 73, 100
2, 86656, Note_on_c, 0, 70, 80
2, 86780, Note_off_c, 0, 70, 100
2, 86784, Note_on_c, 0, 78, 80
2, 86908, Note_off_c, 0, 78, 100
2, 86912, Note_on_c, 0, 74, 80
2, 87036, Note_off_c, 0, 74, 100
2, 87040, Note_on_c, 0, 71, 80
2, 87164, Note_off_c, 0, 71, 100
2, 87168, Note_on_c, 0, 79, 80
2, 87292, Note_off_c, 0, 79, 100
2, 87296, Note_on_c, 0, 74, 80
2, 87420, Note_off_c, 0, 74, 100
2, 87424, Note_on_c, 0, 71, 80
2, 87548, Note_off_c, 0, 71, 100
2, 87552, Note_on_c, 0, 79, 80
2, 87676, Note_off_c, 0, 79, 100
2, 87680, Note_on_c, 0, 73, 80
2, 87804, Note_off_c, 0, 73, 100
2, 87808, Note_on_c, 0, 71, 80
2, 87932, Note_off_c, 0, 71, 100
2, 87936, Note_on_c, 0, 78, 80
2, 88060, Note_off_c, 0, 78, 100
2, 88064, Note_on_c, 0, 73, 80
2, 88188, Note_off_c, 0, 73, 100
2, 88192, Note_on_c, 0, 70, 80
2, 88316, Note_off_c, 0, 70, 100
2, 88704, Note_on_c, 0, 78, 110
2, 88828, Note_off_c, 0, 78, 100
2, 88832, Note_on_c, 0, 74, 110
2, 88956, Note_off_c, 0, 74, 100
2, 88960, Note_on_c, 0, 71, 110
2, 89084, Note_off_c, 0, 71, 100
2, 89088, Note_on_c, 0, 83, 110
2, 89212, Note_off_c, 0, 83, 100
2, 89216, Note_on_c, 0, 78, 110
2, 89340, Note_off_c, 0, 78, 100
2, 89344, Note_on_c, 0, 74, 110
2, 89468, Note_off_c, 0, 74, 100
2, 89472, Note_on_c, 0, 71, 110
2, 89596, Note_off_c, 0, 71, 100
2, 89600, Note_on_c, 0, 66, 110
2, 89724, Note_off_c, 0, 66, 100
2, 89728, Note_on_c, 0, 62, 110
2, 89852, Note_off_c, 0, 62, 100
2, 89856, Note_on_c, 0, 71, 110
2, 89980, Note_off_c, 0, 71, 100
2, 89984, Note_on_c, 0, 66, 110
2, 90108, Note_off_c, 0, 66, 100
2, 90112, Note_on_c, 0, 62, 110
2, 90236, Note_off_c, 0, 62, 100
2, 90240, Note_on_c, 0, 59, 110
2, 90364, Note_off_c, 0, 59, 100
2, 90368, Note_on_c, 0, 54, 110
2, 90492, Note_off_c, 0, 54, 100
2, 90496, Note_on_c, 0, 50, 110
2, 90620, Note_off_c, 0, 50, 100
2, 90624, Note_on_c, 0, 59, 110
2, 90748, Note_off_c, 0, 59, 100
2, 90752, Note_on_c, 0, 54, 110
2, 90876, Note_off_c, 0, 54, 100
2, 90880, Note_on_c, 0, 50, 110
2, 91004, Note_off_c, 0, 50, 100
2, 91008, Note_on_c, 0, 47, 110
2, 91132, Note_off_c, 0, 47, 100
2, 91136, Note_on_c, 0, 50, 110
2, 91260, Note_off_c, 0, 50, 100
2, 91264, Note_on_c, 0, 54, 110
2, 91388, Note_off_c, 0, 54, 100
2, 91776, Note_on_c, 0, 78, 110
2, 91900, Note_off_c, 0, 78, 100
2, 91904, Note_on_c, 0, 74, 110
2, 92028, Note_off_c, 0, 74, 100
2, 92032, Note_on_c, 0, 72, 110
2, 92156, Note_off_c, 0, 72, 100
2, 92160, Note_on_c, 0, 84, 110
2, 92284, Note_off_c, 0, 84, 100
2, 92288, Note_on_c, 0, 78, 110
2, 92412, Note_off_c, 0, 78, 100
2, 92416, Note_on_c, 0, 74, 110
2, 92540, Note_off_c, 0, 74, 100
2, 92544, Note_on_c, 0, 72, 110
2, 92668, Note_off_c, 0, 72, 100
2, 92672, Note_on_c, 0, 66, 110
2, 92796, Note_off_c, 0, 66, 100
2, 92800, Note_on_c, 0, 62, 110
2, 92924, Note_off_c, 0, 62, 100
2, 92928, Note_on_c, 0, 72, 110
2, 93052, Note_off_c, 0, 72, 100
2, 93056, Note_on_c, 0, 66, 110
2, 93180, Note_off_c, 0, 66, 100
2, 93184, Note_on_c, 0, 62, 110
2, 93308, Note_off_c, 0, 62, 100
2, 93312, Note_on_c, 0, 60, 110
2, 93436, Note_off_c, 0, 60, 100
2, 93440, Note_on_c, 0, 54, 110
2, 93564, Note_off_c, 0, 54, 100
2, 93568, Note_on_c, 0, 50, 110
2, 93692, Note_off_c, 0, 50, 100
2, 93696, Note_on_c, 0, 60, 110
2, 93820, Note_off_c, 0, 60, 100
2, 93824, Note_on_c, 0, 54, 110
2, 93948, Note_off_c, 0, 54, 100
2, 93952, Note_on_c, 0, 50, 110
2, 94076, Note_off_c, 0, 50, 100
2, 94080, Note_on_c, 0, 48, 110
2, 94204, Note_off_c, 0, 48, 100
2, 94208, Note_on_c, 0, 50, 110
2, 94332, Note_off_c, 0, 50, 100
2, 94336, Note_on_c, 0, 54, 110
2, 94460, Note_off_c, 0, 54, 100
2, 94848, Note_on_c, 0, 79, 110
2, 94972, Note_off_c, 0, 79, 100
2, 94976, Note_on_c, 0, 74, 110
2, 95100, Note_off_c, 0, 74, 100
2, 95104, Note_on_c, 0, 71, 110
2, 95228, Note_off_c, 0, 71, 100
2, 95232, Note_on_c, 0, 83, 110
2, 95356, Note_off_c, 0, 83, 100
2, 95360, Note_on_c, 0, 79, 110
2, 95484, Note_off_c, 0, 79, 100
2, 95488, Note_on_c, 0, 74, 110
2, 95612, Note_off_c, 0, 74, 100
2, 95616, Note_on_c, 0, 71, 110
2, 95740, Note_off_c, 0, 71, 100
2, 95744, Note_on_c, 0, 67, 110
2, 95868, Note_off_c, 0, 67, 100
2, 95872, Note_on_c, 0, 62, 110
2, 95996, Note_off_c, 0, 62, 100
2, 96000, Note_on_c, 0, 71, 110
2, 96124, Note_off_c, 0, 71, 100
2, 96128, Note_on_c, 0, 67, 110
2, 96252, Note_off_c, 0, 67, 100
2, 96256, Note_on_c, 0, 62, 110
2, 96380, Note_off_c, 0, 62, 100
2, 96384, Note_on_c, 0, 59, 110
2, 96508, Note_off_c, 0, 59, 100
2, 96512, Note_on_c, 0, 55, 110
2, 96636, Note_off_c, 0, 55, 100
2, 96640, Note_on_c, 0, 50, 110
2, 96764, Note_off_c, 0, 50, 100
2, 96768, Note_on_c, 0, 59, 110
2, 96892, Note_off_c, 0, 59, 100
2, 96896, Note_on_c, 0, 55, 110
2, 97020, Note_off_c, 0, 55, 100
2, 97024, Note_on_c, 0, 50, 110
2, 97148, Note_off_c, 0, 50, 100
2, 97152, Note_on_c, 0, 47, 110
2, 97276, Note_off_c, 0, 47, 100
2, 97280, Note_on_c, 0, 50, 110
2, 97404, Note_off_c, 0, 50, 100
2, 97408, Note_on_c, 0, 55, 110
2, 97532, Note_off_c, 0, 55, 100
2, 97920, Note_on_c, 0, 75, 110
2, 98044, Note_off_c, 0, 75, 100
2, 98048, Note_on_c, 0, 71, 110
2, 98172, Note_off_c, 0, 71, 100
2, 98176, Note_on_c, 0, 69, 110
2, 98300, Note_off_c, 0, 69, 100
2, 98304, Note_on_c, 0, 81, 110
2, 98428, Note_off_c, 0, 81, 100
2, 98432, Note_on_c, 0, 75, 110
2, 98556, Note_off_c, 0, 75, 100
2, 98560, Note_on_c, 0, 71, 110
2, 98684, Note_off_c, 0, 71, 100
2, 98688, Note_on_c, 0, 69, 110
2, 98812, Note_off_c, 0, 69, 100
2, 98816, Note_on_c, 0, 63, 110
2, 98940, Note_off_c, 0, 63, 100
2, 98944, Note_on_c, 0, 59, 110
2, 99068, Note_off_c, 0, 59, 100
2, 99072, Note_on_c, 0, 69, 110
2, 99196, Note_off_c, 0, 69, 100
2, 99200, Note_on_c, 0, 63, 110
2, 99324, Note_off_c, 0, 63, 100
2, 99328, Note_on_c, 0, 59, 110
2, 99452, Note_off_c, 0, 59, 100
2, 99456, Note_on_c, 0, 57, 110
2, 99580, Note_off_c, 0, 57, 100
2, 99584, Note_on_c, 0, 51, 110
2, 99708, Note_off_c, 0, 51, 100
2, 99712, Note_on_c, 0, 47, 110
2, 99836, Note_off_c, 0, 47, 100
2, 99840, Note_on_c, 0, 57, 110
2, 99964, Note_off_c, 0, 57, 100
2, 99968, Note_on_c, 0, 51, 110
2, 100092, Note_off_c, 0, 51, 100
2, 100096, Note_on_c, 0, 47, 110
2, 100220, Note_off_c, 0, 47, 100
2, 100224, Note_on_c, 0, 45, 110
2, 100348, Note_off_c, 0, 45, 100
2, 100352, Note_on_c, 0, 47, 110
2, 100476, Note_off_c, 0, 47, 100
2, 100480, Note_on_c, 0, 51, 110
2, 100604, Note_off_c, 0, 51, 100
2, 100736, Note_on_c, 0, 43, 80
2, 100860, Note_off_c, 0, 43, 100
2, 100864, Note_on_c, 0, 47, 80
2, 100988, Note_off_c, 0, 47, 100
2, 100992, Note_on_c, 0, 52, 80
2, 101116, Note_off_c, 0, 52, 100
2, 101120, Note_on_c, 0, 47, 80
2, 101244, Note_off_c, 0, 47, 100
2, 101248, Note_on_c, 0, 43, 80
2, 101372, Note_off_c, 0, 43, 100
2, 101376, Note_on_c, 0, 55, 80
2, 101500, Note_off_c, 0, 55, 100
2, 101504, Note_on_c, 0, 47, 80
2, 101628, Note_off_c, 0, 47, 100
2, 101632, Note_on_c, 0, 52, 80
2, 101756, Note_off_c, 0, 52, 100
2, 101760, Note_on_c, 0, 55, 80
2, 101884, Note_off_c, 0, 55, 100
2, 101888, Note_on_c, 0, 52, 80
2, 102012, Note_off_c, 0, 52, 100
2, 102016, Note_on_c, 0, 47, 80
2, 102140, Note_off_c, 0, 47, 100
2, 102144, Note_on_c, 0, 59, 80
2, 102268, Note_off_c, 0, 59, 100
2, 102272, Note_on_c, 0, 52, 80
2, 102396, Note_off_c, 0, 52, 100
2, 102400, Note_on_c, 0, 55, 80
2, 102524, Note_off_c, 0, 55, 100
2, 102528, Note_on_c, 0, 59, 80
2, 102652, Note_off_c, 0, 59, 100
2, 102656, Note_on_c, 0, 55, 80
2, 102780, Note_off_c, 0, 55, 100
2, 102784, Note_on_c, 0, 52, 80
2, 102908, Note_off_c, 0, 52, 100
2, 102912, Note_on_c, 0, 64, 80
2, 103036, Note_off_c, 0, 64, 100
2, 103040, Note_on_c, 0, 59, 80
2, 103164, Note_off_c, 0, 59, 100
2, 103168, Note_on_c, 0, 55, 80
2, 103292, Note_off_c, 0, 55, 100
2, 103296, Note_on_c, 0, 63, 80
2, 103420, Note_off_c, 0, 63, 100
2, 103424, Note_on_c, 0, 57, 80
2, 103548, Note_off_c, 0, 57, 100
2, 103552, Note_on_c, 0, 54, 80
2, 103676, Note_off_c, 0, 54, 100
2, 103680, Note_on_c, 0, 64, 80
2, 103804, Note_off_c, 0, 64, 100
2, 103808, Note_on_c, 0, 55, 80
2, 103932, Note_off_c, 0, 55, 100
2, 103936, Note_on_c, 0, 59, 80
2, 104060, Note_off_c, 0, 59, 100
2, 104064, Note_on_c, 0, 64, 80
2, 104188, Note_off_c, 0, 64, 100
2, 104192, Note_on_c, 0, 59, 80
2, 104316, Note_off_c, 0, 59, 100
2, 104320, Note_on_c, 0, 55, 80
2, 104444, Note_off_c, 0, 55, 100
2, 104448, Note_on_c, 0, 67, 80
2, 104572, Note_off_c, 0, 67, 100
2, 104576, Note_on_c, 0, 59, 80
2, 104700, Note_off_c, 0, 59, 100
2, 104704, Note_on_c, 0, 64, 80
2, 104828, Note_off_c, 0, 64, 100
2, 104832, Note_on_c, 0, 67, 80
2, 104956, Note_off_c, 0, 67, 100
2, 104960, Note_on_c, 0, 64, 80
2, 105084, Note_off_c, 0, 64, 100
2, 105088, Note_on_c, 0, 59, 80
2, 105212, Note_off_c, 0, 59, 100
2, 105216, Note_on_c, 0, 71, 80
2, 105340, Note_off_c, 0, 71, 100
2, 105344, Note_on_c, 0, 64, 80
2, 105468, Note_off_c, 0, 64, 100
2, 105472, Note_on_c, 0, 67, 80
2, 105596, Note_off_c, 0, 67, 100
2, 105600, Note_on_c, 0, 71, 80
2, 105724, Note_off_c, 0, 71, 100
2, 105728, Note_on_c, 0, 67, 80
2, 105852, Note_off_c, 0, 67, 100
2, 105856, Note_on_c, 0, 64, 80
2, 105980, Note_off_c, 0, 64, 100
2, 105984, Note_on_c, 0, 76, 80
2, 106108, Note_off_c, 0, 76, 100
2, 106112, Note_on_c, 0, 71, 80
2, 106236, Note_off_c, 0, 71, 100
2, 106240, Note_on_c, 0, 67, 80
2, 106364, Note_off_c, 0, 67, 100
2, 106368, Note_on_c, 0, 75, 80
2, 106492, Note_off_c, 0, 75, 100
2, 106496, Note_on_c, 0, 69, 80
2, 106620, Note_off_c, 0, 69, 100
2, 106624, Note_on_c, 0, 66, 80
2, 106748, Note_off_c, 0, 66, 100
2, 106752, Note_on_c, 0, 76, 80
2, 106876, Note_off_c, 0, 76, 100
2, 106880, Note_on_c, 0, 67, 80
2, 107004, Note_off_c, 0, 67, 100
2, 107008, Note_on_c, 0, 64, 80
2, 107132, Note_off_c, 0, 64, 100
2, 107136, Note_on_c, 0, 72, 80
2, 107260, Note_off_c, 0, 72, 100
2, 107264, Note_on_c, 0, 67, 80
2, 107388, Note_off_c, 0, 67, 100
2, 107392, Note_on_c, 0, 64, 80
2, 107516, Note_off_c, 0, 64, 100
2, 107520, Note_on_c, 0, 72, 80
2, 107644, Note_off_c, 0, 72, 100
2, 107648, Note_on_c, 0, 65, 80
2, 107772, Note_off_c, 0, 65, 100
2, 107776, Note_on_c, 0, 62, 80
2, 107900, Note_off_c, 0, 62, 100
2, 107904, Note_on_c, 0, 71, 80
2, 108028, Note_off_c, 0, 71, 100
2, 108032, Note_on_c, 0, 65, 80
2, 108156, Note_off_c, 0, 65, 100
2, 108160, Note_on_c, 0, 62, 80
2, 108284, Note_off_c, 0, 62, 100
2, 108288, Note_on_c, 0, 72, 80
2, 108412, Note_off_c, 0, 72, 100
2, 108416, Note_on_c, 0, 64, 80
2, 108540, Note_off_c, 0, 64, 100
2, 108544, Note_on_c, 0, 60, 80
2, 108668, Note_off_c, 0, 60, 100
2, 108672, Note_on_c, 0, 69, 80
2, 108796, Note_off_c, 0, 69, 100
2, 108800, Note_on_c, 0, 64, 80
2, 108924, Note_off_c, 0, 64, 100
2, 108928, Note_on_c, 0, 60, 80
2, 109052, Note_off_c, 0, 60, 100
2, 109056, Note_on_c, 0, 69, 80
2, 109180, Note_off_c, 0, 69, 100
2, 109184, Note_on_c, 0, 64, 80
2, 109308, Note_off_c, 0, 64, 100
2, 109312, Note_on_c, 0, 60, 80
2, 109436, Note_off_c, 0, 60, 100
2, 109440, Note_on_c, 0, 66, 80
2, 109564, Note_off_c, 0, 66, 100
2, 109568, Note_on_c, 0, 64, 80
2, 109692, Note_off_c, 0, 64, 100
2, 109696, Note_on_c, 0, 60, 80
2, 109820, Note_off_c, 0, 60, 100
2, 109952, Note_on_c, 0, 59, 80
2, 110076, Note_off_c, 0, 59, 100
2, 110080, Note_on_c, 0, 64, 80
2, 110204, Note_off_c, 0, 64, 100
2, 110208, Note_on_c, 0, 67, 80
2, 110332, Note_off_c, 0, 67, 100
2, 110336, Note_on_c, 0, 64, 80
2, 110460, Note_off_c, 0, 64, 100
2, 110464, Note_on_c, 0, 59, 80
2, 110588, Note_off_c, 0, 59, 100
2, 110720, Note_on_c, 0, 57, 80
2, 110844, Note_off_c, 0, 57, 100
2, 110848, Note_on_c, 0, 63, 80
2, 110972, Note_off_c, 0, 63, 100
2, 110976, Note_on_c, 0, 66, 80
2, 111100, Note_off_c, 0, 66, 100
2, 111104, Note_on_c, 0, 63, 80
2, 111228, Note_off_c, 0, 63, 100
2, 111232, Note_on_c, 0, 57, 80
2, 111356, Note_off_c, 0, 57, 100
2, 111488, Note_on_c, 0, 64, 80
2, 111612, Note_off_c, 0, 64, 100
2, 111616, Note_on_c, 0, 67, 80
2, 111740, Note_off_c, 0, 67, 100
2, 111744, Note_on_c, 0, 76, 80
2, 111868, Note_off_c, 0, 76, 100
2, 111872, Note_on_c, 0, 67, 80
2, 111996, Note_off_c, 0, 67, 100
2, 112000, Note_on_c, 0, 64, 80
2, 112124, Note_off_c, 0, 64, 100
2, 112128, Note_on_c, 0, 72, 80
2, 112252, Note_off_c, 0, 72, 100
2, 112256, Note_on_c, 0, 65, 80
2, 112380, Note_off_c, 0, 65, 100
2, 112384, Note_on_c, 0, 62, 80
2, 112508, Note_off_c, 0, 62, 100
2, 112512, Note_on_c, 0, 71, 80
2, 112636, Note_off_c, 0, 71, 100
2, 112640, Note_on_c, 0, 65, 80
2, 112764, Note_off_c, 0, 65, 100
2, 112768, Note_on_c, 0, 62, 80
2, 112892, Note_off_c, 0, 62, 100
2, 113024, Note_on_c, 0, 60, 80
2, 113148, Note_off_c, 0, 60, 100
2, 113152, Note_on_c, 0, 64, 80
2, 113276, Note_off_c, 0, 64, 100
2, 113280, Note_on_c, 0, 72, 80
2, 113404, Note_off_c, 0, 72, 100
2, 113408, Note_on_c, 0, 64, 80
2, 113532, Note_off_c, 0, 64, 100
2, 113536, Note_on_c, 0, 60, 80
2, 113660, Note_off_c, 0, 60, 100
2, 113664, Note_on_c, 0, 69, 80
2, 113788, Note_off_c, 0, 69, 100
2, 113792, Note_on_c, 0, 64, 80
2, 113916, Note_off_c, 0, 64, 100
2, 113920, Note_on_c, 0, 60, 80
2, 114044, Note_off_c, 0, 60, 100
2, 114048, Note_on_c, 0, 66, 80
2, 114172, Note_off_c, 0, 66, 100
2, 114176, Note_on_c, 0, 64, 80
2, 114300, Note_off_c, 0, 64, 100
2, 114304, Note_on_c, 0, 60, 80
2, 114428, Note_off_c, 0, 60, 100
2, 114560, Note_on_c, 0, 61, 80
2, 114684, Note_off_c, 0, 61, 100
2, 114688, Note_on_c, 0, 64, 80
2, 114812, Note_off_c, 0, 64, 100
2, 114816, Note_on_c, 0, 67, 80
2, 114940, Note_off_c, 0, 67, 100
2, 114944, Note_on_c, 0, 64, 80
2, 115068, Note_off_c, 0, 64, 100
2, 115072, Note_on_c, 0, 61, 80
2, 115196, Note_off_c, 0, 61, 100
2, 115328, Note_on_c, 0, 55, 80
2, 115452, Note_off_c, 0, 55, 100
2, 115456, Note_on_c, 0, 61, 80
2, 115580, Note_off_c, 0, 61, 100
2, 115584, Note_on_c, 0, 64, 80
2, 115708, Note_off_c, 0, 64, 100
2, 115712, Note_on_c, 0, 61, 80
2, 115836, Note_off_c, 0, 61, 100
2, 115840, Note_on_c, 0, 55, 80
2, 115964, Note_off_c, 0, 55, 100
2, 116352, Note_on_c, 0, 63, 80
2, 116476, Note_off_c, 0, 63, 100
2, 116480, Note_on_c, 0, 59, 80
2, 116604, Note_off_c, 0, 59, 100
2, 116608, Note_on_c, 0, 54, 80
2, 116732, Note_off_c, 0, 54, 100
2, 116736, Note_on_c, 0, 66, 80
2, 116736, Note_on_c, 0, 66, 80
2, 116860, Note_off_c, 0, 66, 100
2, 116860, Note_off_c, 0, 66, 100
2, 116864, Note_on_c, 0, 63, 80
2, 116988, Note_off_c, 0, 63, 100
2, 116992, Note_on_c, 0, 59, 80
2, 117116, Note_off_c, 0, 59, 100
2, 117120, Note_on_c, 0, 71, 80
2, 117244, Note_off_c, 0, 71, 100
2, 117248, Note_on_c, 0, 66, 80
2, 117372, Note_off_c, 0, 66, 100
2, 117376, Note_on_c, 0, 63, 80
2, 117500, Note_off_c, 0, 63, 100
2, 117888, Note_on_c, 0, 67, 80
2, 118012, Note_off_c, 0, 67, 100
2, 118016, Note_on_c, 0, 64, 80
2, 118140, Note_off_c, 0, 64, 100
2, 118144, Note_on_c, 0, 59, 80
2, 118268, Note_off_c, 0, 59, 100
2, 118272, Note_on_c, 0, 64, 80
2, 118396, Note_off_c, 0, 64, 100
2, 118400, Note_on_c, 0, 59, 80
2, 118524, Note_off_c, 0, 59, 100
2, 118528, Note_on_c, 0, 55, 80
2, 118652, Note_off_c, 0, 55, 100
2, 118656, Note_on_c, 0, 59, 80
2, 118780, Note_off_c, 0, 59, 100
2, 118784, Note_on_c, 0, 55, 80
2, 118908, Note_off_c, 0, 55, 100
2, 118912, Note_on_c, 0, 52, 80
2, 119036, Note_off_c, 0, 52, 100
2, 119424, Note_on_c, 0, 63, 80
2, 119548, Note_off_c, 0, 63, 100
2, 119552, Note_on_c, 0, 59, 80
2, 119676, Note_off_c, 0, 59, 100
2, 119680, Note_on_c, 0, 54, 80
2, 119804, Note_off_c, 0, 54, 100
2, 119808, Note_on_c, 0, 66, 80
2, 119808, Note_on_c, 0, 66, 80
2, 119932, Note_off_c, 0, 66, 100
2, 119932, Note_off_c, 0, 66, 100
2, 119936, Note_on_c, 0, 63, 80
2, 120060, Note_off_c, 0, 63, 100
2, 120064, Note_on_c, 0, 59, 80
2, 120188, Note_off_c, 0, 59, 100
2, 120192, Note_on_c, 0, 71, 80
2, 120316, Note_off_c, 0, 71, 100
2, 120320, Note_on_c, 0, 66, 80
2, 120444, Note_off_c, 0, 66, 100
2, 120448, Note_on_c, 0, 63, 80
2, 120572, Note_off_c, 0, 63, 100
2, 120960, Note_on_c, 0, 67, 80
2, 121084, Note_off_c, 0, 67, 100
2, 121088, Note_on_c, 0, 64, 80
2, 121212, Note_off_c, 0, 64, 100
2, 121216, Note_on_c, 0, 59, 80
2, 121340, Note_off_c, 0, 59, 100
2, 121344, Note_on_c, 0, 64, 80
2, 121468, Note_off_c, 0, 64, 100
2, 121472, Note_on_c, 0, 59, 80
2, 121596, Note_off_c, 0, 59, 100
2, 121600, Note_on_c, 0, 55, 80
2, 121724, Note_off_c, 0, 55, 100
2, 121728, Note_on_c, 0, 59, 80
2, 121852, Note_off_c, 0, 59, 100
2, 121856, Note_on_c, 0, 55, 80
2, 121980, Note_off_c, 0, 55, 100
2, 121984, Note_on_c, 0, 52, 80
2, 122108, Note_off_c, 0, 52, 100
2, 122112, Note_on_c, 0, 47, 80
2, 122236, Note_off_c, 0, 47, 100
2, 122240, Note_on_c, 0, 48, 80
2, 122364, Note_off_c, 0, 48, 100
2, 122368, Note_on_c, 0, 49, 81
2, 122492, Note_off_c, 0, 49, 100
2, 122496, Note_on_c, 0, 50, 82
2, 122620, Note_off_c, 0, 50, 100
2, 122624, Note_on_c, 0, 51, 83
2, 122748, Note_off_c, 0, 51, 100
2, 122752, Note_on_c, 0, 52, 84
2, 122876, Note_off_c, 0, 52, 100
2, 122880, Note_on_c, 0, 53, 85
2, 123004, Note_off_c, 0, 53, 100
2, 123008, Note_on_c, 0, 54, 86
2, 123132, Note_off_c, 0, 54, 100
2, 123136, Note_on_c, 0, 55, 86
2, 123260, Note_off_c, 0, 55, 100
2, 123264, Note_on_c, 0, 56, 87
2, 123388, Note_off_c, 0, 56, 100
2, 123392, Note_on_c, 0, 57, 88
2, 123516, Note_off_c, 0, 57, 100
2, 123520, Note_on_c, 0, 58, 89
2, 123644, Note_off_c, 0, 58, 100
2, 123648, Note_on_c, 0, 59, 90
2, 123772, Note_off_c, 0, 59, 100
2, 123776, Note_on_c, 0, 60, 91
2, 123900, Note_off_c, 0, 60, 100
2, 123904, Note_on_c, 0, 61, 92
2, 124028, Note_off_c, 0, 61, 100
2, 124032, Note_on_c, 0, 62, 93
2, 124156, Note_off_c, 0, 62, 100
2, 124160, Note_on_c, 0, 63, 93
2, 124284, Note_off_c, 0, 63, 100
2, 124288, Note_on_c, 0, 64, 94
2, 124412, Note_off_c, 0, 64, 100
2, 124416, Note_on_c, 0, 65, 95
2, 124540, Note_off_c, 0, 65, 100
2, 124544, Note_on_c, 0, 66, 96
2, 124668, Note_off_c, 0, 66, 100
2, 124672, Note_on_c, 0, 67, 97
2, 124796, Note_off_c, 0, 67, 100
2, 124800, Note_on_c, 0, 68, 98
2, 124924, Note_off_c, 0, 68, 100
2, 124928, Note_on_c, 0, 69, 99
2, 125052, Note_off_c, 0, 69, 100
2, 125056, Note_on_c, 0, 70, 99
2, 125180, Note_off_c, 0, 70, 100
2, 125184, Note_on_c, 0, 71, 100
2, 125308, Note_off_c, 0, 71, 100
2, 125312, Note_on_c, 0, 72, 99
2, 125436, Note_off_c, 0, 72, 100
2, 125440, Note_on_c, 0, 73, 97
2, 125564, Note_off_c, 0, 73, 100
2, 125568, Note_on_c, 0, 74, 95
2, 125692, Note_off_c, 0, 74, 100
2, 125696, Note_on_c, 0, 75, 93
2, 125820, Note_off_c, 0, 75, 100
2, 125824, Note_on_c, 0, 76, 91
2, 125948, Note_off_c, 0, 76, 100
2, 125952, Note_on_c, 0, 77, 90
2, 126076, Note_off_c, 0, 77, 100
2, 126080, Note_on_c, 0, 78, 88
2, 126204, Note_off_c, 0, 78, 100
2, 126208, Note_on_c, 0, 79, 86
2, 126332, Note_off_c, 0, 79, 100
2, 126336, Note_on_c, 0, 80, 84
2, 126460, Note_off_c, 0, 80, 100
2, 126464, Note_on_c, 0, 81, 82
2, 126588, Note_off_c, 0, 81, 100
2, 126592, Note_on_c, 0, 82, 81
2, 126716, Note_off_c, 0, 82, 100
2, 126720, Note_on_c, 0, 83, 80
2, 128256, Key_signature, 4, "major"
2, 129020, Note_off_c, 0, 83, 100
2, 129024, Note_on_c, 0, 71, 80
2, 129404, Note_off_c, 0, 71, 100
2, 129408, Note_on_c, 0, 75, 80
2, 129408, Note_on_c, 0, 63, 80
2, 129788, Note_off_c, 0, 75, 100
2, 129788, Note_off_c, 0, 63, 100
2, 129792, Note_on_c, 0, 76, 80
2, 129792, Note_on_c, 0, 64, 80
2, 130556, Note_off_c, 0, 76, 100
2, 130556, Note_off_c, 0, 64, 100
2, 130560, Note_on_c, 0, 76, 80
2, 130560, Note_on_c, 0, 64, 80
2, 130940, Note_off_c, 0, 76, 100
2, 130940, Note_off_c, 0, 64, 100
2, 130944, Note_on_c, 0, 64, 80
2, 130944, Note_on_c, 0, 76, 80
2, 131324, Note_off_c, 0, 64, 100
2, 131324, Note_off_c, 0, 76, 100
2, 131328, Note_on_c, 0, 78, 80
2, 131328, Note_on_c, 0, 66, 80
2, 131900, Note_off_c, 0, 78, 100
2, 131900, Note_off_c, 0, 66, 100
2, 131904, Note_on_c, 0, 80, 80
2, 131904, Note_on_c, 0, 68, 80
2, 132092, Note_off_c, 0, 80, 100
2, 132092, Note_off_c, 0, 68, 100
2, 132096, Note_on_c, 0, 81, 80
2, 132096, Note_on_c, 0, 69, 80
2, 132476, Note_off_c, 0, 81, 100
2, 132476, Note_off_c, 0, 69, 100
2, 132480, Note_on_c, 0, 81, 80
2, 132480, Note_on_c, 0, 69, 80
2, 132860, Note_off_c, 0, 81, 100
2, 132860, Note_off_c, 0, 69, 100
2, 132864, Note_on_c, 0, 81, 80
2, 132864, Note_on_c, 0, 69, 80
2, 133244, Note_off_c, 0, 81, 100
2, 133244, Note_off_c, 0, 69, 100
2, 133248, Note_on_c, 0, 81, 83
2, 133248, Note_on_c, 0, 69, 83
2, 133628, Note_off_c, 0, 81, 100
2, 133628, Note_off_c, 0, 69, 100
2, 133632, Note_on_c, 0, 81, 87
2, 133632, Note_on_c, 0, 69, 87
2, 134012, Note_off_c, 0, 81, 100
2, 134012, Note_off_c, 0, 69, 100
2, 134016, Note_on_c, 0, 81, 91
2, 134016, Note_on_c, 0, 69, 91
2, 134396, Note_off_c, 0, 81, 100
2, 134396, Note_off_c, 0, 69, 100
2, 134400, Note_on_c, 0, 81, 95
2, 134400, Note_on_c, 0, 69, 95
2, 135164, Note_off_c, 0, 81, 100
2, 135164, Note_off_c, 0, 69, 100
2, 135168, Note_on_c, 0, 81, 80
2, 135260, Note_off_c, 0, 81, 100
2, 135264, Note_on_c, 0, 80, 80
2, 135356, Note_off_c, 0, 80, 100
2, 135360, Note_on_c, 0, 78, 80
2, 135452, Note_off_c, 0, 78, 100
2, 135456, Note_on_c, 0, 76, 80
2, 135548, Note_off_c, 0, 76, 100
2, 135552, Note_on_c, 0, 75, 80
2, 135644, Note_off_c, 0, 75, 100
2, 135648, Note_on_c, 0, 73, 80
2, 135740, Note_off_c, 0, 73, 100
2, 135744, Note_on_c, 0, 71, 80
2, 135836, Note_off_c, 0, 71, 100
2, 135840, Note_on_c, 0, 69, 80
2, 135932, Note_off_c, 0, 69, 100
2, 135936, Note_on_c, 0, 68, 80
2, 136320, Note_on_c, 0, 71, 80
2, 136700, Note_off_c, 0, 68, 100
2, 136704, Note_on_c, 0, 63, 80
2, 137084, Note_off_c, 0, 71, 100
2, 137088, Note_on_c, 0, 66, 80
2, 137372, Note_off_c, 0, 66, 100
2, 137376, Note_on_c, 0, 68, 80
2, 137468, Note_off_c, 0, 63, 100
2, 137468, Note_off_c, 0, 68, 100
2, 137472, Note_on_c, 0, 64, 80
2, 137852, Note_off_c, 0, 64, 100
2, 138240, Note_on_c, 0, 69, 80
2, 138332, Note_off_c, 0, 69, 100
2, 138336, Note_on_c, 0, 68, 80
2, 138428, Note_off_c, 0, 68, 100
2, 138432, Note_on_c, 0, 66, 80
2, 138524, Note_off_c, 0, 66, 100
2, 138528, Note_on_c, 0, 64, 80
2, 138620, Note_off_c, 0, 64, 100
2, 138624, Note_on_c, 0, 63, 80
2, 138716, Note_off_c, 0, 63, 100
2, 138720, Note_on_c, 0, 61, 80
2, 138812, Note_off_c, 0, 61, 100
2, 138816, Note_on_c, 0, 59, 80
2, 138908, Note_off_c, 0, 59, 100
2, 138912, Note_on_c, 0, 57, 80
2, 139004, Note_off_c, 0, 57, 100
2, 139008, Note_on_c, 0, 56, 80
2, 139392, Note_on_c, 0, 59, 80
2, 139772, Note_off_c, 0, 56, 100
2, 139776, Note_on_c, 0, 51, 80
2, 140156, Note_off_c, 0, 59, 100
2, 140160, Note_on_c, 0, 54, 80
2, 140444, Note_off_c, 0, 54, 100
2, 140448, Note_on_c, 0, 56, 80
2, 140540, Note_off_c, 0, 51, 100
2, 140540, Note_off_c, 0, 56, 100
2, 140544, Note_on_c, 0, 52, 80
2, 140924, Note_off_c, 0, 52, 100
2, 140928, Note_on_c, 0, 52, 80
2, 141308, Note_off_c, 0, 52, 100
2, 142848, Note_on_c, 0, 86, 80
2, 142940, Note_off_c, 0, 86, 100
2, 142944, Note_on_c, 0, 85, 80
2, 143036, Note_off_c, 0, 85, 100
2, 143040, Note_on_c, 0, 83, 80
2, 143132, Note_off_c, 0, 83, 100
2, 143136, Note_on_c, 0, 81, 80
2, 143228, Note_off_c, 0, 81, 100
2, 143232, Note_on_c, 0, 80, 80
2, 143324, Note_off_c, 0, 80, 100
2, 143328, Note_on_c, 0, 78, 80
2, 143420, Note_off_c, 0, 78, 100
2, 143424, Note_on_c, 0, 76, 80
2, 143516, Note_off_c, 0, 76, 100
2, 143520, Note_on_c, 0, 74, 80
2, 143612, Note_off_c, 0, 74, 100
2, 143616, Note_on_c, 0, 73, 80
2, 143996, Note_off_c, 0, 73, 100
2, 144000, Note_on_c, 0, 76, 80
2, 144380, Note_off_c, 0, 76, 100
2, 144384, Note_on_c, 0, 68, 80
2, 144764, Note_off_c, 0, 68, 100
2, 144768, Note_on_c, 0, 76, 80
2, 145148, Note_off_c, 0, 76, 100
2, 145152, Note_on_c, 0, 69, 80
2, 145916, Note_off_c, 0, 69, 100
2, 145920, Note_on_c, 0, 62, 80
2, 146012, Note_off_c, 0, 62, 100
2, 146016, Note_on_c, 0, 61, 80
2, 146108, Note_off_c, 0, 61, 100
2, 146112, Note_on_c, 0, 59, 80
2, 146204, Note_off_c, 0, 59, 100
2, 146208, Note_on_c, 0, 57, 80
2, 146300, Note_off_c, 0, 57, 100
2, 146304, Note_on_c, 0, 56, 80
2, 146396, Note_off_c, 0, 56, 100
2, 146400, Note_on_c, 0, 54, 80
2, 146492, Note_off_c, 0, 54, 100
2, 146496, Note_on_c, 0, 52, 80
2, 146588, Note_off_c, 0, 52, 100
2, 146592, Note_on_c, 0, 50, 80
2, 146684, Note_off_c, 0, 50, 100
2, 146688, Note_on_c, 0, 49, 80
2, 146780, Note_off_c, 0, 49, 100
2, 146784, Note_on_c, 0, 50, 80
2, 146876, Note_off_c, 0, 50, 100
2, 146880, Note_on_c, 0, 52, 80
2, 146972, Note_off_c, 0, 52, 100
2, 146976, Note_on_c, 0, 54, 80
2, 147068, Note_off_c, 0, 54, 100
2, 147072, Note_on_c, 0, 56, 80
2, 147164, Note_off_c, 0, 56, 100
2, 147168, Note_on_c, 0, 57, 80
2, 147260, Note_off_c, 0, 57, 100
2, 147264, Note_on_c, 0, 59, 80
2, 147356, Note_off_c, 0, 59, 100
2, 147360, Note_on_c, 0, 61, 80
2, 147452, Note_off_c, 0, 61, 100
2, 147456, Note_on_c, 0, 62, 80
2, 148220, Note_off_c, 0, 62, 100
2, 148224, Note_on_c, 0, 64, 80
2, 148316, Note_off_c, 0, 64, 100
2, 148320, Note_on_c, 0, 66, 80
2, 148412, Note_off_c, 0, 66, 100
2, 148416, Note_on_c, 0, 68, 80
2, 148508, Note_off_c, 0, 68, 100
2, 148512, Note_on_c, 0, 69, 80
2, 148604, Note_off_c, 0, 69, 100
2, 148608, Note_on_c, 0, 71, 80
2, 148700, Note_off_c, 0, 71, 100
2, 148704, Note_on_c, 0, 73, 80
2, 148796, Note_off_c, 0, 73, 100
2, 148800, Note_on_c, 0, 74, 80
2, 148892, Note_off_c, 0, 74, 100
2, 148896, Note_on_c, 0, 76, 80
2, 148988, Note_off_c, 0, 76, 100
2, 148992, Note_on_c, 0, 78, 80
2, 149756, Note_off_c, 0, 78, 100
2, 149760, Note_on_c, 0, 80, 80
2, 149808, Note_on_c, 0, 81, 80
2, 149852, Note_off_c, 0, 80, 100
2, 149856, Note_on_c, 0, 80, 80
2, 149900, Note_off_c, 0, 81, 100
2, 149904, Note_on_c, 0, 81, 80
2, 149948, Note_off_c, 0, 80, 100
2, 149952, Note_on_c, 0, 78, 80
2, 149996, Note_off_c, 0, 81, 100
2, 150044, Note_off_c, 0, 78, 100
2, 150048, Note_on_c, 0, 80, 80
2, 150140, Note_off_c, 0, 80, 100
2, 150144, Note_on_c, 0, 81, 80
2, 150524, Note_off_c, 0, 81, 100
2, 150528, Note_on_c, 0, 71, 80
2, 150576, Note_on_c, 0, 73, 80
2, 150620, Note_off_c, 0, 71, 100
2, 150624, Note_on_c, 0, 71, 80
2, 150668, Note_off_c, 0, 73, 100
2, 150672, Note_on_c, 0, 73, 80
2, 150716, Note_off_c, 0, 71, 100
2, 150720, Note_on_c, 0, 70, 80
2, 150764, Note_off_c, 0, 73, 100
2, 150812, Note_off_c, 0, 70, 100
2, 150816, Note_on_c, 0, 71, 80
2, 150908, Note_off_c, 0, 71, 100
2, 150912, Note_on_c, 0, 76, 80
2, 151292, Note_off_c, 0, 76, 100
2, 151296, Note_on_c, 0, 69, 80
2, 151676, Note_off_c, 0, 69, 100
2, 152064, Note_on_c, 0, 81, 80
2, 152828, Note_off_c, 0, 81, 100
2, 152832, Note_on_c, 0, 69, 80
2, 153596, Note_off_c, 0, 69, 100
2, 153600, Note_on_c, 0, 65, 80
2, 154364, Note_off_c, 0, 65, 100
2, 154368, Note_on_c, 0, 66, 80
2, 155136, Note_on_c, 0, 71, 80
2, 155136, Note_on_c, 0, 62, 80
2, 155900, Note_off_c, 0, 66, 100
2, 155900, Note_off_c, 0, 71, 100
2, 155900, Note_off_c, 0, 62, 100
2, 155904, Note_on_c, 0, 69, 80
2, 155904, Note_on_c, 0, 64, 80
2, 155904, Note_on_c, 0, 61, 80
2, 156668, Note_off_c, 0, 69, 100
2, 156668, Note_off_c, 0, 64, 100
2, 156668, Note_off_c, 0, 61, 100
2, 156672, Note_on_c, 0, 62, 80
2, 156672, Note_on_c, 0, 59, 80
2, 156672, Note_on_c, 0, 69, 80
2, 156860, Note_off_c, 0, 69, 100
2, 156864, Note_on_c, 0, 68, 80
2, 157052, Note_off_c, 0, 68, 100
2, 157056, Note_on_c, 0, 66, 80
2, 157244, Note_off_c, 0, 66, 100
2, 157248, Note_on_c, 0, 68, 80
2, 157436, Note_off_c, 0, 62, 100
2, 157436, Note_off_c, 0, 59, 100
2, 157436, Note_off_c, 0, 68, 100
2, 157440, Note_on_c, 0, 69, 80
2, 157440, Note_on_c, 0, 61, 80
2, 157440, Note_on_c, 0, 57, 80
2, 157820, Note_off_c, 0, 69, 100
2, 157820, Note_off_c, 0, 61, 100
2, 157820, Note_off_c, 0, 57, 100
2, 158208, Note_on_c, 0, 81, 80
2, 158588, Note_off_c, 0, 81, 100
2, 158592, Note_on_c, 0, 81, 80
2, 158972, Note_off_c, 0, 81, 100
2, 158976, Note_on_c, 0, 69, 80
2, 159356, Note_off_c, 0, 69, 100
2, 159360, Note_on_c, 0, 69, 80
2, 159740, Note_off_c, 0, 69, 100
2, 159744, Note_on_c, 0, 64, 80
2, 160124, Note_off_c, 0, 64, 100
2, 160128, Note_on_c, 0, 64, 80
2, 160508, Note_off_c, 0, 64, 100
2, 160512, Note_on_c, 0, 65, 80
2, 161280, Note_on_c, 0, 70, 80
2, 161280, Note_on_c, 0, 62, 80
2, 162044, Note_off_c, 0, 70, 100
2, 162044, Note_off_c, 0, 62, 100
2, 162048, Note_on_c, 0, 69, 80
2, 162048, Note_on_c, 0, 60, 80
2, 162812, Note_off_c, 0, 65, 100
2, 162812, Note_off_c, 0, 69, 100
2, 162812, Note_off_c, 0, 60, 100
2, 162816, Note_on_c, 0, 64, 80
2, 162816, Note_on_c, 0, 58, 80
2, 162816, Note_on_c, 0, 69, 80
2, 163004, Note_off_c, 0, 69, 100
2, 163008, Note_on_c, 0, 67, 80
2, 163196, Note_off_c, 0, 67, 100
2, 163200, Note_on_c, 0, 65, 80
2, 163388, Note_off_c, 0, 65, 100
2, 163392, Note_on_c, 0, 67, 80
2, 163580, Note_off_c, 0, 64, 100
2, 163580, Note_off_c, 0, 58, 100
2, 163580, Note_off_c, 0, 67, 100
2, 163584, Note_on_c, 0, 65, 80
2, 163584, Note_on_c, 0, 60, 80
2, 163584, Note_on_c, 0, 57, 80
2, 164348, Note_off_c, 0, 65, 100
2, 164348, Note_off_c, 0, 60, 100
2, 164348, Note_off_c, 0, 57, 100
2, 164352, Note_on_c, 0, 64, 80
2, 164352, Note_on_c, 0, 60, 80
2, 164352, Note_on_c, 0, 57, 80
2, 165116, Note_off_c, 0, 64, 100
2, 165116, Note_off_c, 0, 60, 100
2, 165116, Note_off_c, 0, 57, 100
2, 165120, Note_on_c, 0, 63, 80
2, 165120, Note_on_c, 0, 60, 80
2, 165120, Note_on_c, 0, 57, 80
2, 165884, Note_off_c, 0, 63, 100
2, 165884, Note_off_c, 0, 60, 100
2, 165884, Note_off_c, 0, 57, 100
2, 165888, Note_on_c, 0, 63, 80
2, 165888, Note_on_c, 0, 59, 80
2, 165888, Note_on_c, 0, 57, 80
2, 168956, Note_off_c, 0, 57, 100
2, 168956, Note_off_c, 0, 59, 100
2, 168956, Note_off_c, 0, 63, 100
2, 169152, Note_on_c, 0, 71, 80
2, 169532, Note_off_c, 0, 71, 100
2, 169536, Note_on_c, 0, 75, 82
2, 169536, Note_on_c, 0, 63, 82
2, 169916, Note_off_c, 0, 63, 100
2, 169916, Note_off_c, 0, 75, 100
2, 169920, Note_on_c, 0, 76, 84
2, 169920, Note_on_c, 0, 64, 84
2, 170300, Note_off_c, 0, 76, 100
2, 170300, Note_off_c, 0, 64, 100
2, 170304, Note_on_c, 0, 76, 86
2, 170304, Note_on_c, 0, 64, 86
2, 170684, Note_off_c, 0, 76, 100
2, 170684, Note_off_c, 0, 64, 100
2, 170688, Note_on_c, 0, 76, 89
2, 170688, Note_on_c, 0, 64, 89
2, 171068, Note_off_c, 0, 76, 100
2, 171068, Note_off_c, 0, 64, 100
2, 171072, Note_on_c, 0, 76, 91
2, 171072, Note_on_c, 0, 64, 91
2, 171452, Note_off_c, 0, 64, 100
2, 171452, Note_off_c, 0, 76, 100
2, 171456, Note_on_c, 0, 78, 93
2, 171456, Note_on_c, 0, 66, 93
2, 171836, Note_off_c, 0, 78, 100
2, 171836, Note_off_c, 0, 66, 100
2, 171840, Note_on_c, 0, 80, 96
2, 171840, Note_on_c, 0, 68, 96
2, 172220, Note_off_c, 0, 80, 100
2, 172220, Note_off_c, 0, 68, 100
2, 172224, Note_on_c, 0, 81, 98
2, 172224, Note_on_c, 0, 69, 98
2, 172604, Note_off_c, 0, 81, 100
2, 172604, Note_off_c, 0, 69, 100
2, 172608, Note_on_c, 0, 81, 100
2, 172608, Note_on_c, 0, 69, 100
2, 172988, Note_off_c, 0, 69, 100
2, 172988, Note_off_c, 0, 81, 100
2, 172992, Note_on_c, 0, 81, 103
2, 172992, Note_on_c, 0, 69, 103
2, 173372, Note_off_c, 0, 81, 100
2, 173372, Note_off_c, 0, 69, 100
2, 173376, Note_on_c, 0, 81, 105
2, 173376, Note_on_c, 0, 69, 105
2, 173756, Note_off_c, 0, 81, 100
2, 173756, Note_off_c, 0, 69, 100
2, 173760, Note_on_c, 0, 81, 107
2, 173760, Note_on_c, 0, 69, 107
2, 174140, Note_off_c, 0, 81, 100
2, 174140, Note_off_c, 0, 69, 100
2, 174144, Note_on_c, 0, 81, 109
2, 174144, Note_on_c, 0, 69, 109
2, 174332, Note_off_c, 0, 81, 100
2, 174332, Note_off_c, 0, 69, 100
2, 174336, Note_on_c, 0, 81, 120
2, 174336, Note_on_c, 0, 69, 120
2, 175100, Note_off_c, 0, 81, 100
2, 175100, Note_off_c, 0, 69, 100
2, 175104, Note_on_c, 0, 81, 120
2, 175104, Note_on_c, 0, 69, 120
2, 175484, Note_off_c, 0, 81, 100
2, 175484, Note_off_c, 0, 69, 100
2, 175488, Note_on_c, 0, 81, 120
2, 175488, Note_on_c, 0, 69, 120
2, 175868, Note_off_c, 0, 81, 100
2, 175868, Note_off_c, 0, 69, 100
2, 175872, Note_on_c, 0, 80, 120
2, 175872, Note_on_c, 0, 68, 120
2, 176252, Note_off_c, 0, 80, 100
2, 176252, Note_off_c, 0, 68, 100
2, 176256, Note_on_c, 0, 78, 120
2, 176256, Note_on_c, 0, 66, 120
2, 176636, Note_off_c, 0, 78, 100
2, 176636, Note_off_c, 0, 66, 100
2, 176640, Note_on_c, 0, 76, 120
2, 176640, Note_on_c, 0, 64, 120
2, 177020, Note_off_c, 0, 76, 100
2, 177020, Note_off_c, 0, 64, 100
2, 177024, Note_on_c, 0, 75, 120
2, 177024, Note_on_c, 0, 63, 120
2, 177404, Note_off_c, 0, 75, 100
2, 177404, Note_off_c, 0, 63, 100
2, 177408, Note_on_c, 0, 73, 120
2, 177408, Note_on_c, 0, 61, 120
2, 177788, Note_off_c, 0, 73, 100
2, 177788, Note_off_c, 0, 61, 100
2, 177792, Note_on_c, 0, 72, 120
2, 177792, Note_on_c, 0, 60, 120
2, 178172, Note_off_c, 0, 72, 100
2, 178172, Note_off_c, 0, 60, 100
2, 178176, Note_on_c, 0, 73, 120
2, 178176, Note_on_c, 0, 61, 120
2, 178556, Note_off_c, 0, 73, 100
2, 178556, Note_off_c, 0, 61, 100
2, 178560, Note_on_c, 0, 71, 120
2, 178560, Note_on_c, 0, 59, 120
2, 178940, Note_off_c, 0, 71, 100
2, 178940, Note_off_c, 0, 59, 100
2, 178944, Note_on_c, 0, 69, 120
2, 178944, Note_on_c, 0, 57, 120
2, 179324, Note_off_c, 0, 69, 100
2, 179324, Note_off_c, 0, 57, 100
2, 179328, Note_on_c, 0, 68, 120
2, 179328, Note_on_c, 0, 56, 120
2, 179708, Note_off_c, 0, 68, 100
2, 179708, Note_off_c, 0, 56, 100
2, 179712, Note_on_c, 0, 66, 120
2, 180092, Note_off_c, 0, 66, 100
2, 180096, Note_on_c, 0, 64, 120
2, 180476, Note_off_c, 0, 64, 100
2, 180480, Note_on_c, 0, 63, 120
2, 180860, Note_off_c, 0, 63, 100
2, 180864, Note_on_c, 0, 66, 120
2, 181244, Note_off_c, 0, 66, 100
2, 181248, Note_on_c, 0, 69, 120
2, 181628, Note_off_c, 0, 69, 100
2, 181632, Note_on_c, 0, 72, 120
2, 182012, Note_off_c, 0, 72, 100
2, 182016, Note_on_c, 0, 63, 120
2, 182108, Note_off_c, 0, 63, 100
2, 182112, Note_on_c, 0, 66, 120
2, 182204, Note_off_c, 0, 66, 100
2, 182208, Note_on_c, 0, 72, 120
2, 182300, Note_off_c, 0, 72, 100
2, 182304, Note_on_c, 0, 75, 120
2, 182396, Note_off_c, 0, 75, 100
2, 182400, Note_on_c, 0, 63, 120
2, 182492, Note_off_c, 0, 63, 100
2, 182496, Note_on_c, 0, 66, 120
2, 182588, Note_off_c, 0, 66, 100
2, 182592, Note_on_c, 0, 72, 120
2, 182684, Note_off_c, 0, 72, 100
2, 182688, Note_on_c, 0, 75, 120
2, 182780, Note_off_c, 0, 75, 100
2, 182784, Note_on_c, 0, 63, 120
2, 182876, Note_off_c, 0, 63, 100
2, 182880, Note_on_c, 0, 66, 120
2, 182972, Note_off_c, 0, 66, 100
2, 182976, Note_on_c, 0, 69, 120
2, 183068, Note_off_c, 0, 69, 100
2, 183072, Note_on_c, 0, 75, 120
2, 183164, Note_off_c, 0, 75, 100
2, 183168, Note_on_c, 0, 63, 120
2, 183260, Note_off_c, 0, 63, 100
2, 183264, Note_on_c, 0, 66, 120
2, 183356, Note_off_c, 0, 66, 100
2, 183360, Note_on_c, 0, 69, 120
2, 183452, Note_off_c, 0, 69, 100
2, 183456, Note_on_c, 0, 75, 120
2, 183548, Note_off_c, 0, 75, 100
2, 183552, Note_on_c, 0, 63, 120
2, 183644, Note_off_c, 0, 63, 100
2, 183648, Note_on_c, 0, 66, 120
2, 183740, Note_off_c, 0, 66, 100
2, 183744, Note_on_c, 0, 69, 120
2, 183836, Note_off_c, 0, 69, 100
2, 183840, Note_on_c, 0, 75, 120
2, 183932, Note_off_c, 0, 75, 100
2, 183936, Note_on_c, 0, 63, 120
2, 184028, Note_off_c, 0, 63, 100
2, 184032, Note_on_c, 0, 66, 120
2, 184124, Note_off_c, 0, 66, 100
2, 184128, Note_on_c, 0, 69, 120
2, 184220, Note_off_c, 0, 69, 100
2, 184224, Note_on_c, 0, 75, 120
2, 184316, Note_off_c, 0, 75, 100
2, 184320, Note_on_c, 0, 60, 120
2, 184412, Note_off_c, 0, 60, 100
2, 184416, Note_on_c, 0, 66, 120
2, 184508, Note_off_c, 0, 66, 100
2, 184512, Note_on_c, 0, 69, 120
2, 184604, Note_off_c, 0, 69, 100
2, 184608, Note_on_c, 0, 72, 120
2, 184700, Note_off_c, 0, 72, 100
2, 184704, Note_on_c, 0, 60, 120
2, 184796, Note_off_c, 0, 60, 100
2, 184800, Note_on_c, 0, 66, 120
2, 184892, Note_off_c, 0, 66, 100
2, 184896, Note_on_c, 0, 69, 120
2, 184988, Note_off_c, 0, 69, 100
2, 184992, Note_on_c, 0, 72, 120
2, 185084, Note_off_c, 0, 72, 100
2, 185088, Note_on_c, 0, 60, 120
2, 185180, Note_off_c, 0, 60, 100
2, 185184, Note_on_c, 0, 66, 120
2, 185276, Note_off_c, 0, 66, 100
2, 185280, Note_on_c, 0, 69, 119
2, 185372, Note_off_c, 0, 69, 100
2, 185376, Note_on_c, 0, 72, 118
2, 185468, Note_off_c, 0, 72, 100
2, 185472, Note_on_c, 0, 60, 117
2, 185564, Note_off_c, 0, 60, 100
2, 185568, Note_on_c, 0, 66, 116
2, 185660, Note_off_c, 0, 66, 100
2, 185664, Note_on_c, 0, 69, 115
2, 185756, Note_off_c, 0, 69, 100
2, 185760, Note_on_c, 0, 72, 114
2, 185852, Note_off_c, 0, 72, 100
2, 185856, Note_on_c, 0, 59, 113
2, 185948, Note_off_c, 0, 59, 100
2, 185952, Note_on_c, 0, 63, 112
2, 186044, Note_off_c, 0, 63, 100
2, 186048, Note_on_c, 0, 69, 111
2, 186140, Note_off_c, 0, 69, 100
2, 186144, Note_on_c, 0, 71, 110
2, 186236, Note_off_c, 0, 71, 100
2, 186240, Note_on_c, 0, 59, 109
2, 186332, Note_off_c, 0, 59, 100
2, 186336, Note_on_c, 0, 63, 108
2, 186428, Note_off_c, 0, 63, 100
2, 186432, Note_on_c, 0, 69, 107
2, 186524, Note_off_c, 0, 69, 100
2, 186528, Note_on_c, 0, 71, 106
2, 186620, Note_off_c, 0, 71, 100
2, 186624, Note_on_c, 0, 59, 105
2, 186716, Note_off_c, 0, 59, 100
2, 186720, Note_on_c, 0, 63, 104
2, 186812, Note_off_c, 0, 63, 100
2, 186816, Note_on_c, 0, 69, 103
2, 186908, Note_off_c, 0, 69, 100
2, 186912, Note_on_c, 0, 71, 102
2, 187004, Note_off_c, 0, 71, 100
2, 187008, Note_on_c, 0, 59, 101
2, 187100, Note_off_c, 0, 59, 100
2, 187104, Note_on_c, 0, 63, 100
2, 187196, Note_off_c, 0, 63, 100
2, 187200, Note_on_c, 0, 69, 99
2, 187292, Note_off_c, 0, 69, 100
2, 187296, Note_on_c, 0, 71, 98
2, 187388, Note_off_c, 0, 71, 100
2, 187392, Note_on_c, 0, 59, 97
2, 187484, Note_off_c, 0, 59, 100
2, 187488, Note_on_c, 0, 63, 96
2, 187580, Note_off_c, 0, 63, 100
2, 187584, Note_on_c, 0, 69, 95
2, 187676, Note_off_c, 0, 69, 100
2, 187680, Note_on_c, 0, 71, 94
2, 187772, Note_off_c, 0, 71, 100
2, 187776, Note_on_c, 0, 59, 93
2, 187868, Note_off_c, 0, 59, 100
2, 187872, Note_on_c, 0, 63, 92
2, 187964, Note_off_c, 0, 63, 100
2, 187968, Note_on_c, 0, 69, 92
2, 188060, Note_off_c, 0, 69, 100
2, 188064, Note_on_c, 0, 71, 91
2, 188156, Note_off_c, 0, 71, 100
2, 188160, Note_on_c, 0, 71, 80
2, 188160, Note_on_c, 0, 69, 80
2, 188160, Note_on_c, 0, 63, 80
2, 188160, Note_on_c, 0, 59, 80
2, 190460, Note_off_c, 0, 59, 100
2, 190460, Note_off_c, 0, 63, 100
2, 190460, Note_off_c, 0, 69, 100
2, 190460, Note_off_c, 0, 71, 100
2, 190464, Note_on_c, 0, 71, 80
2, 190652, Note_off_c, 0, 71, 100
2, 190656, Note_on_c, 0, 73, 80
2, 190844, Note_off_c, 0, 73, 100
2, 190848, Note_on_c, 0, 74, 80
2, 191036, Note_off_c, 0, 74, 100
2, 191040, Note_on_c, 0, 75, 80
2, 191228, Note_off_c, 0, 75, 100
2, 191232, Note_on_c, 0, 76, 80
2, 191612, Note_off_c, 0, 76, 100
2, 192000, Note_on_c, 0, 64, 80
2, 192188, Note_off_c, 0, 64, 100
2, 192192, Note_on_c, 0, 66, 80
2, 192380, Note_off_c, 0, 66, 100
2, 192384, Note_on_c, 0, 67, 80
2, 192572, Note_off_c, 0, 67, 100
2, 192576, Note_on_c, 0, 68, 80
2, 192764, Note_off_c, 0, 68, 100
2, 192768, Note_on_c, 0, 69, 80
2, 193148, Note_off_c, 0, 69, 100
2, 193536, Note_on_c, 0, 76, 80
2, 193724, Note_off_c, 0, 76, 100
2, 193728, Note_on_c, 0, 78, 80
2, 193916, Note_off_c, 0, 78, 100
2, 193920, Note_on_c, 0, 79, 80
2, 194108, Note_off_c, 0, 79, 100
2, 194112, Note_on_c, 0, 80, 80
2, 194300, Note_off_c, 0, 80, 100
2, 194304, Note_on_c, 0, 81, 80
2, 194684, Note_off_c, 0, 81, 100
2, 195072, Note_on_c, 0, 81, 80
2, 195260, Note_off_c, 0, 81, 100
2, 195264, Note_on_c, 0, 80, 80
2, 195452, Note_off_c, 0, 80, 100
2, 195456, Note_on_c, 0, 81, 80
2, 195644, Note_off_c, 0, 81, 100
2, 195648, Note_on_c, 0, 80, 80
2, 195836, Note_off_c, 0, 80, 100
2, 195840, Note_on_c, 0, 81, 80
2, 196220, Note_off_c, 0, 81, 100
2, 196608, Note_on_c, 0, 81, 80
2, 196700, Note_off_c, 0, 81, 100
2, 196704, Note_on_c, 0, 80, 80
2, 196796, Note_off_c, 0, 80, 100
2, 196800, Note_on_c, 0, 78, 80
2, 196892, Note_off_c, 0, 78, 100
2, 196896, Note_on_c, 0, 76, 80
2, 196988, Note_off_c, 0, 76, 100
2, 196992, Note_on_c, 0, 75, 80
2, 197084, Note_off_c, 0, 75, 100
2, 197088, Note_on_c, 0, 73, 80
2, 197180, Note_off_c, 0, 73, 100
2, 197184, Note_on_c, 0, 71, 80
2, 197276, Note_off_c, 0, 71, 100
2, 197280, Note_on_c, 0, 69, 80
2, 197372, Note_off_c, 0, 69, 100
2, 197376, Note_on_c, 0, 68, 80
2, 197756, Note_off_c, 0, 68, 100
2, 197760, Note_on_c, 0, 71, 80
2, 198140, Note_off_c, 0, 71, 100
2, 198144, Note_on_c, 0, 63, 80
2, 198524, Note_off_c, 0, 63, 100
2, 198528, Note_on_c, 0, 71, 80
2, 198908, Note_off_c, 0, 71, 100
2, 198912, Note_on_c, 0, 64, 80
2, 199676, Note_off_c, 0, 64, 100
2, 199680, Note_on_c, 0, 69, 80
2, 199772, Note_off_c, 0, 69, 100
2, 199776, Note_on_c, 0, 68, 80
2, 199868, Note_off_c, 0, 68, 100
2, 199872, Note_on_c, 0, 66, 80
2, 199964, Note_off_c, 0, 66, 100
2, 199968, Note_on_c, 0, 64, 80
2, 200060, Note_off_c, 0, 64, 100
2, 200064, Note_on_c, 0, 63, 80
2, 200156, Note_off_c, 0, 63, 100
2, 200160, Note_on_c, 0, 61, 80
2, 200252, Note_off_c, 0, 61, 100
2, 200256, Note_on_c, 0, 59, 80
2, 200348, Note_off_c, 0, 59, 100
2, 200352, Note_on_c, 0, 57, 80
2, 200444, Note_off_c, 0, 57, 100
2, 200448, Note_on_c, 0, 56, 80
2, 200540, Note_off_c, 0, 56, 100
2, 200544, Note_on_c, 0, 57, 81
2, 200636, Note_off_c, 0, 57, 100
2, 200640, Note_on_c, 0, 59, 82
2, 200732, Note_off_c, 0, 59, 100
2, 200736, Note_on_c, 0, 61, 83
2, 200828, Note_off_c, 0, 61, 100
2, 200832, Note_on_c, 0, 63, 84
2, 200924, Note_off_c, 0, 63, 100
2, 200928, Note_on_c, 0, 64, 85
2, 201020, Note_off_c, 0, 64, 100
2, 201024, Note_on_c, 0, 66, 86
2, 201116, Note_off_c, 0, 66, 100
2, 201120, Note_on_c, 0, 68, 87
2, 201212, Note_off_c, 0, 68, 100
2, 201216, Note_on_c, 0, 69, 88
2, 201980, Note_off_c, 0, 69, 100
2, 201984, Note_on_c, 0, 71, 97
2, 202076, Note_off_c, 0, 71, 100
2, 202080, Note_on_c, 0, 73, 98
2, 202172, Note_off_c, 0, 73, 100
2, 202176, Note_on_c, 0, 75, 99
2, 202268, Note_off_c, 0, 75, 100
2, 202272, Note_on_c, 0, 76, 100
2, 202364, Note_off_c, 0, 76, 100
2, 202368, Note_on_c, 0, 78, 101
2, 202460, Note_off_c, 0, 78, 100
2, 202464, Note_on_c, 0, 80, 102
2, 202556, Note_off_c, 0, 80, 100
2, 202560, Note_on_c, 0, 81, 103
2, 202652, Note_off_c, 0, 81, 100
2, 202656, Note_on_c, 0, 83, 104
2, 202748, Note_off_c, 0, 83, 100
2, 202752, Note_on_c, 0, 85, 105
2, 203516, Note_off_c, 0, 85, 100
2, 203520, Note_on_c, 0, 82, 110
2, 203568, Note_on_c, 0, 83, 110
2, 203612, Note_off_c, 0, 82, 100
2, 203616, Note_on_c, 0, 82, 110
2, 203660, Note_off_c, 0, 83, 100
2, 203664, Note_on_c, 0, 83, 110
2, 203708, Note_off_c, 0, 82, 100
2, 203712, Note_on_c, 0, 82, 110
2, 203756, Note_off_c, 0, 83, 100
2, 203760, Note_on_c, 0, 83, 110
2, 203804, Note_off_c, 0, 82, 100
2, 203808, Note_on_c, 0, 82, 110
2, 203852, Note_off_c, 0, 83, 100
2, 203856, Note_on_c, 0, 83, 110
2, 203900, Note_off_c, 0, 82, 100
2, 203904, Note_on_c, 0, 82, 110
2, 203948, Note_off_c, 0, 83, 100
2, 203952, Note_on_c, 0, 83, 110
2, 203996, Note_off_c, 0, 82, 100
2, 204000, Note_on_c, 0, 82, 110
2, 204044, Note_off_c, 0, 83, 100
2, 204048, Note_on_c, 0, 83, 110
2, 204092, Note_off_c, 0, 82, 100
2, 204096, Note_on_c, 0, 81, 110
2, 204140, Note_off_c, 0, 83, 100
2, 204188, Note_off_c, 0, 81, 100
2, 204192, Note_on_c, 0, 82, 110
2, 204284, Note_off_c, 0, 82, 100
2, 204288, Note_on_c, 0, 83, 110
2, 204668, Note_off_c, 0, 83, 100
2, 204672, Note_on_c, 0, 83, 110
2, 204672, Note_on_c, 0, 71, 110
2, 205052, Note_off_c, 0, 83, 100
2, 205052, Note_off_c, 0, 71, 100
2, 205056, Note_on_c, 0, 76, 110
2, 205056, Note_on_c, 0, 64, 110
2, 205820, Note_off_c, 0, 76, 100
2, 205820, Note_off_c, 0, 64, 100
2, 206592, Control_c, 0, 7, 0
2, 207360, Note_on_c, 0, 64, 1
2, 207548, Note_off_c, 0, 64, 100
2, 207548, End_track
3, 0, Start_track
3, 0, Title_t, "Left"
3, 0, Control_c, 1, 0, 0
3, 0, Program_c, 1, 0
3, 0, Control_c, 1, 7, 100
3, 0, Control_c, 1, 10, 51
3, 0, Control_c, 1, 91, 127
3, 0, Key_signature, 4, "major"
3, 0, Note_on_c, 1, 56, 80
3, 124, Note_off_c, 1, 56, 100
3, 128, Note_on_c, 1, 59, 80
3, 252, Note_off_c, 1, 59, 100
3, 256, Note_on_c, 1, 64, 80
3, 380, Note_off_c, 1, 64, 100
3, 384, Note_on_c, 1, 54, 80
3, 508, Note_off_c, 1, 54, 100
3, 512, Note_on_c, 1, 57, 80
3, 636, Note_off_c, 1, 57, 100
3, 640, Note_on_c, 1, 59, 80
3, 764, Note_off_c, 1, 59, 100
3, 768, Note_on_c, 1, 52, 80
3, 892, Note_off_c, 1, 52, 100
3, 896, Note_on_c, 1, 56, 80
3, 1020, Note_off_c, 1, 56, 100
3, 1024, Note_on_c, 1, 59, 80
3, 1148, Note_off_c, 1, 59, 100
3, 1152, Note_on_c, 1, 51, 80
3, 1276, Note_off_c, 1, 51, 100
3, 1280, Note_on_c, 1, 54, 80
3, 1404, Note_off_c, 1, 54, 100
3, 1408, Note_on_c, 1, 59, 80
3, 1532, Note_off_c, 1, 59, 100
3, 1536, Note_on_c, 1, 49, 80
3, 1660, Note_off_c, 1, 49, 100
3, 1664, Note_on_c, 1, 52, 80
3, 1788, Note_off_c, 1, 52, 100
3, 1792, Note_on_c, 1, 57, 80
3, 1916, Note_off_c, 1, 57, 100
3, 1920, Note_on_c, 1, 47, 80
3, 2044, Note_off_c, 1, 47, 100
3, 2048, Note_on_c, 1, 51, 80
3, 2172, Note_off_c, 1, 51, 100
3, 2176, Note_on_c, 1, 56, 80
3, 2300, Note_off_c, 1, 56, 100
3, 2304, Note_on_c, 1, 45, 80
3, 2428, Note_off_c, 1, 45, 100
3, 2432, Note_on_c, 1, 49, 80
3, 2556, Note_off_c, 1, 49, 100
3, 2560, Note_on_c, 1, 54, 80
3, 2684, Note_off_c, 1, 54, 100
3, 2688, Note_on_c, 1, 44, 80
3, 2812, Note_off_c, 1, 44, 100
3, 2816, Note_on_c, 1, 47, 80
3, 2940, Note_off_c, 1, 47, 100
3, 2944, Note_on_c, 1, 52, 80
3, 3068, Note_off_c, 1, 52, 100
3, 3072, Note_on_c, 1, 42, 80
3, 3196, Note_off_c, 1, 42, 100
3, 3200, Note_on_c, 1, 45, 80
3, 3324, Note_off_c, 1, 45, 100
3, 3328, Note_on_c, 1, 51, 80
3, 3452, Note_off_c, 1, 51, 100
3, 3456, Note_on_c, 1, 40, 80
3, 3580, Note_off_c, 1, 40, 100
3, 3584, Note_on_c, 1, 44, 80
3, 3708, Note_off_c, 1, 44, 100
3, 3712, Note_on_c, 1, 49, 80
3, 3836, Note_off_c, 1, 49, 100
3, 3840, Note_on_c, 1, 39, 80
3, 3964, Note_off_c, 1, 39, 100
3, 3968, Note_on_c, 1, 42, 80
3, 4092, Note_off_c, 1, 42, 100
3, 4096, Note_on_c, 1, 47, 80
3, 4220, Note_off_c, 1, 47, 100
3, 4224, Note_on_c, 1, 40, 80
3, 4348, Note_off_c, 1, 40, 100
3, 4352, Note_on_c, 1, 44, 80
3, 4476, Note_off_c, 1, 44, 100
3, 4480, Note_on_c, 1, 49, 80
3, 4604, Note_off_c, 1, 49, 100
3, 4608, Note_on_c, 1, 39, 80
3, 4732, Note_off_c, 1, 39, 100
3, 4736, Note_on_c, 1, 42, 80
3, 4860, Note_off_c, 1, 42, 100
3, 4864, Note_on_c, 1, 47, 80
3, 4988, Note_off_c, 1, 47, 100
3, 4992, Note_on_c, 1, 37, 80
3, 5116, Note_off_c, 1, 37, 100
3, 5120, Note_on_c, 1, 40, 80
3, 5244, Note_off_c, 1, 40, 100
3, 5248, Note_on_c, 1, 47, 80
3, 5372, Note_off_c, 1, 47, 100
3, 5376, Note_on_c, 1, 35, 80
3, 5376, Note_on_c, 1, 39, 80
3, 5756, Note_off_c, 1, 39, 100
3, 5760, Note_on_c, 1, 47, 80
3, 6140, Note_off_c, 1, 35, 100
3, 6140, Note_off_c, 1, 47, 100
3, 6912, Note_on_c, 1, 52, 80
3, 7296, Note_on_c, 1, 59, 100
3, 7676, Note_off_c, 1, 52, 100
3, 7680, Note_on_c, 1, 47, 80
3, 8060, Note_off_c, 1, 59, 100
3, 8064, Note_on_c, 1, 57, 80
3, 8444, Note_off_c, 1, 47, 100
3, 8444, Note_off_c, 1, 57, 100
3, 8448, Note_on_c, 1, 56, 80
3, 8448, Note_on_c, 1, 52, 80
3, 8828, Note_off_c, 1, 56, 100
3, 8832, Note_on_c, 1, 59, 80
3, 9212, Note_off_c, 1, 52, 100
3, 9212, Note_off_c, 1, 59, 100
3, 9984, Note_on_c, 1, 40, 80
3, 10368, Note_on_c, 1, 47, 100
3, 10748, Note_off_c, 1, 40, 100
3, 10752, Note_on_c, 1, 35, 80
3, 11132, Note_off_c, 1, 47, 100
3, 11136, Note_on_c, 1, 45, 80
3, 11516, Note_off_c, 1, 35, 100
3, 11516, Note_off_c, 1, 45, 100
3, 11520, Note_on_c, 1, 47, 80
3, 11520, Note_on_c, 1, 44, 80
3, 11900, Note_off_c, 1, 47, 100
3, 11900, Note_off_c, 1, 44, 100
3, 12288, Note_on_c, 1, 56, 80
3, 12412, Note_off_c, 1, 56, 100
3, 12416, Note_on_c, 1, 59, 80
3, 12540, Note_off_c, 1, 59, 100
3, 12544, Note_on_c, 1, 64, 80
3, 12668, Note_off_c, 1, 64, 100
3, 12672, Note_on_c, 1, 54, 80
3, 12796, Note_off_c, 1, 54, 100
3, 12800, Note_on_c, 1, 57, 80
3, 12924, Note_off_c, 1, 57, 100
3, 12928, Note_on_c, 1, 59, 80
3, 13052, Note_off_c, 1, 59, 100
3, 13056, Note_on_c, 1, 52, 80
3, 13180, Note_off_c, 1, 52, 100
3, 13184, Note_on_c, 1, 56, 80
3, 13308, Note_off_c, 1, 56, 100
3, 13312, Note_on_c, 1, 59, 80
3, 13436, Note_off_c, 1, 59, 100
3, 13440, Note_on_c, 1, 51, 80
3, 13564, Note_off_c, 1, 51, 100
3, 13568, Note_on_c, 1, 54, 80
3, 13692, Note_off_c, 1, 54, 100
3, 13696, Note_on_c, 1, 59, 80
3, 13820, Note_off_c, 1, 59, 100
3, 13824, Note_on_c, 1, 49, 80
3, 13948, Note_off_c, 1, 49, 100
3, 13952, Note_on_c, 1, 52, 80
3, 14076, Note_off_c, 1, 52, 100
3, 14080, Note_on_c, 1, 57, 80
3, 14204, Note_off_c, 1, 57, 100
3, 14208, Note_on_c, 1, 47, 80
3, 14332, Note_off_c, 1, 47, 100
3, 14336, Note_on_c, 1, 51, 80
3, 14460, Note_off_c, 1, 51, 100
3, 14464, Note_on_c, 1, 56, 80
3, 14588, Note_off_c, 1, 56, 100
3, 14592, Note_on_c, 1, 45, 80
3, 14716, Note_off_c, 1, 45, 100
3, 14720, Note_on_c, 1, 49, 80
3, 14844, Note_off_c, 1, 49, 100
3, 14848, Note_on_c, 1, 54, 80
3, 14972, Note_off_c, 1, 54, 100
3, 14976, Note_on_c, 1, 44, 80
3, 15100, Note_off_c, 1, 44, 100
3, 15104, Note_on_c, 1, 47, 80
3, 15228, Note_off_c, 1, 47, 100
3, 15232, Note_on_c, 1, 52, 80
3, 15356, Note_off_c, 1, 52, 100
3, 15360, Note_on_c, 1, 42, 80
3, 15484, Note_off_c, 1, 42, 100
3, 15488, Note_on_c, 1, 45, 80
3, 15612, Note_off_c, 1, 45, 100
3, 15616, Note_on_c, 1, 51, 80
3, 15740, Note_off_c, 1, 51, 100
3, 15744, Note_on_c, 1, 40, 80
3, 15868, Note_off_c, 1, 40, 100
3, 15872, Note_on_c, 1, 44, 80
3, 15996, Note_off_c, 1, 44, 100
3, 16000, Note_on_c, 1, 49, 80
3, 16124, Note_off_c, 1, 49, 100
3, 16128, Note_on_c, 1, 39, 80
3, 16252, Note_off_c, 1, 39, 100
3, 16256, Note_on_c, 1, 42, 80
3, 16380, Note_off_c, 1, 42, 100
3, 16384, Note_on_c, 1, 47, 80
3, 16508, Note_off_c, 1, 47, 100
3, 16512, Note_on_c, 1, 40, 80
3, 16636, Note_off_c, 1, 40, 100
3, 16640, Note_on_c, 1, 44, 80
3, 16764, Note_off_c, 1, 44, 100
3, 16768, Note_on_c, 1, 49, 80
3, 16892, Note_off_c, 1, 49, 100
3, 16896, Note_on_c, 1, 39, 80
3, 17020, Note_off_c, 1, 39, 100
3, 17024, Note_on_c, 1, 42, 80
3, 17148, Note_off_c, 1, 42, 100
3, 17152, Note_on_c, 1, 47, 80
3, 17276, Note_off_c, 1, 47, 100
3, 17280, Note_on_c, 1, 37, 80
3, 17404, Note_off_c, 1, 37, 100
3, 17408, Note_on_c, 1, 40, 80
3, 17532, Note_off_c, 1, 40, 100
3, 17536, Note_on_c, 1, 47, 80
3, 17660, Note_off_c, 1, 47, 100
3, 17664, Note_on_c, 1, 35, 80
3, 17664, Note_on_c, 1, 39, 80
3, 18044, Note_off_c, 1, 39, 100
3, 18048, Note_on_c, 1, 47, 80
3, 18428, Note_off_c, 1, 35, 100
3, 18428, Note_off_c, 1, 47, 100
3, 19200, Note_on_c, 1, 52, 80
3, 19584, Note_on_c, 1, 59, 100
3, 19964, Note_off_c, 1, 52, 100
3, 19968, Note_on_c, 1, 47, 80
3, 20348, Note_off_c, 1, 59, 100
3, 20352, Note_on_c, 1, 57, 80
3, 20732, Note_off_c, 1, 47, 100
3, 20732, Note_off_c, 1, 57, 100
3, 20736, Note_on_c, 1, 56, 80
3, 20736, Note_on_c, 1, 52, 80
3, 21116, Note_off_c, 1, 56, 100
3, 21116, Note_off_c, 1, 52, 100
3, 21504, Note_on_c, 1, 64, 80
3, 21596, Note_off_c, 1, 64, 100
3, 21600, Note_on_c, 1, 63, 80
3, 21692, Note_off_c, 1, 63, 100
3, 21696, Note_on_c, 1, 61, 80
3, 21788, Note_off_c, 1, 61, 100
3, 21792, Note_on_c, 1, 59, 80
3, 21884, Note_off_c, 1, 59, 100
3, 21888, Note_on_c, 1, 58, 80
3, 21980, Note_off_c, 1, 58, 100
3, 21984, Note_on_c, 1, 56, 80
3, 22076, Note_off_c, 1, 56, 100
3, 22080, Note_on_c, 1, 54, 80
3, 22172, Note_off_c, 1, 54, 100
3, 22176, Note_on_c, 1, 52, 80
3, 22268, Note_off_c, 1, 52, 100
3, 22272, Note_on_c, 1, 51, 80
3, 22652, Note_off_c, 1, 51, 100
3, 22656, Note_on_c, 1, 54, 80
3, 23036, Note_off_c, 1, 54, 100
3, 23040, Note_on_c, 1, 46, 80
3, 23420, Note_off_c, 1, 46, 100
3, 23424, Note_on_c, 1, 54, 80
3, 23804, Note_off_c, 1, 54, 100
3, 23808, Note_on_c, 1, 47, 80
3, 24572, Note_off_c, 1, 47, 100
3, 24576, Note_on_c, 1, 52, 80
3, 24668, Note_off_c, 1, 52, 100
3, 24672, Note_on_c, 1, 51, 80
3, 24764, Note_off_c, 1, 51, 100
3, 24768, Note_on_c, 1, 49, 80
3, 24860, Note_off_c, 1, 49, 100
3, 24864, Note_on_c, 1, 47, 80
3, 24956, Note_off_c, 1, 47, 100
3, 24960, Note_on_c, 1, 46, 80
3, 25052, Note_off_c, 1, 46, 100
3, 25056, Note_on_c, 1, 44, 80
3, 25148, Note_off_c, 1, 44, 100
3, 25152, Note_on_c, 1, 42, 80
3, 25244, Note_off_c, 1, 42, 100
3, 25248, Note_on_c, 1, 40, 80
3, 25340, Note_off_c, 1, 40, 100
3, 25344, Note_on_c, 1, 39, 80
3, 25724, Note_off_c, 1, 39, 100
3, 25728, Note_on_c, 1, 42, 80
3, 26108, Note_off_c, 1, 42, 100
3, 26112, Note_on_c, 1, 34, 80
3, 26492, Note_off_c, 1, 34, 100
3, 26496, Note_on_c, 1, 42, 80
3, 26876, Note_off_c, 1, 42, 100
3, 26880, Note_on_c, 1, 35, 80
3, 27264, Note_on_c, 1, 47, 82
3, 27644, Note_off_c, 1, 35, 100
3, 27644, Note_off_c, 1, 47, 100
3, 27648, Note_on_c, 1, 49, 85
3, 27648, Note_on_c, 1, 37, 85
3, 28032, Note_on_c, 1, 47, 88
3, 28412, Note_off_c, 1, 49, 100
3, 28412, Note_off_c, 1, 37, 100
3, 28412, Note_off_c, 1, 47, 100
3, 28416, Note_on_c, 1, 51, 91
3, 28416, Note_on_c, 1, 39, 91
3, 28800, Note_on_c, 1, 47, 94
3, 29180, Note_off_c, 1, 51, 100
3, 29180, Note_off_c, 1, 39, 100
3, 29180, Note_off_c, 1, 47, 100
3, 29184, Note_on_c, 1, 52, 97
3, 29184, Note_on_c, 1, 40, 97
3, 29568, Note_on_c, 1, 47, 99
3, 29948, Note_off_c, 1, 52, 100
3, 29948, Note_off_c, 1, 40, 100
3, 29948, Note_off_c, 1, 47, 100
3, 29952, Note_on_c, 1, 54, 100
3, 29952, Note_on_c, 1, 42, 100
3, 30332, Note_off_c, 1, 54, 100
3, 30332, Note_off_c, 1, 42, 100
3, 30336, Note_on_c, 1, 56, 100
3, 30336, Note_on_c, 1, 44, 100
3, 30716, Note_off_c, 1, 56, 100
3, 30716, Note_off_c, 1, 44, 100
3, 30720, Note_on_c, 1, 52, 100
3, 30720, Note_on_c, 1, 40, 100
3, 31100, Note_off_c, 1, 52, 100
3, 31100, Note_off_c, 1, 40, 100
3, 31104, Note_on_c, 1, 54, 100
3, 31104, Note_on_c, 1, 42, 100
3, 31484, Note_off_c, 1, 54, 100
3, 31484, Note_off_c, 1, 42, 100
3, 31488, Note_on_c, 1, 47, 100
3, 31488, Note_on_c, 1, 35, 100
3, 31868, Note_off_c, 1, 47, 100
3, 31868, Note_off_c, 1, 35, 100
3, 35712, Note_on_c, 1, 52, 80
3, 36092, Note_off_c, 1, 52, 100
3, 36480, Note_on_c, 1, 54, 80
3, 36860, Note_off_c, 1, 54, 100
3, 37248, Note_on_c, 1, 42, 80
3, 37628, Note_off_c, 1, 42, 100
3, 38016, Note_on_c, 1, 47, 80
3, 38016, Note_on_c, 1, 35, 80
3, 38396, Note_off_c, 1, 47, 100
3, 38396, Note_off_c, 1, 35, 100
3, 41856, Note_on_c, 1, 52, 80
3, 42236, Note_off_c, 1, 52, 100
3, 42624, Note_on_c, 1, 54, 80
3, 43004, Note_off_c, 1, 54, 100
3, 43392, Note_on_c, 1, 42, 80
3, 43772, Note_off_c, 1, 42, 100
3, 44160, Note_on_c, 1, 47, 79
3, 44540, Note_off_c, 1, 47, 100
3, 44928, Note_on_c, 1, 58, 75
3, 44928, Note_on_c, 1, 46, 75
3, 45308, Note_off_c, 1, 58, 100
3, 45308, Note_off_c, 1, 46, 100
3, 45696, Note_on_c, 1, 57, 71
3, 45696, Note_on_c, 1, 45, 71
3, 46076, Note_off_c, 1, 57, 100
3, 46076, Note_off_c, 1, 45, 100
3, 46080, Note_on_c, 1, 56, 80
3, 46204, Note_off_c, 1, 56, 100
3, 46208, Note_on_c, 1, 59, 80
3, 46332, Note_off_c, 1, 59, 100
3, 46336, Note_on_c, 1, 64, 80
3, 46460, Note_off_c, 1, 64, 100
3, 46464, Note_on_c, 1, 54, 80
3, 46588, Note_off_c, 1, 54, 100
3, 46592, Note_on_c, 1, 57, 80
3, 46716, Note_off_c, 1, 57, 100
3, 46720, Note_on_c, 1, 59, 80
3, 46844, Note_off_c, 1, 59, 100
3, 46848, Note_on_c, 1, 52, 80
3, 46972, Note_off_c, 1, 52, 100
3, 46976, Note_on_c, 1, 56, 80
3, 47100, Note_off_c, 1, 56, 100
3, 47104, Note_on_c, 1, 59, 80
3, 47228, Note_off_c, 1, 59, 100
3, 47232, Note_on_c, 1, 51, 80
3, 47356, Note_off_c, 1, 51, 100
3, 47360, Note_on_c, 1, 54, 80
3, 47484, Note_off_c, 1, 54, 100
3, 47488, Note_on_c, 1, 59, 80
3, 47612, Note_off_c, 1, 59, 100
3, 47616, Note_on_c, 1, 49, 80
3, 47740, Note_off_c, 1, 49, 100
3, 47744, Note_on_c, 1, 52, 80
3, 47868, Note_off_c, 1, 52, 100
3, 47872, Note_on_c, 1, 57, 80
3, 47996, Note_off_c, 1, 57, 100
3, 48000, Note_on_c, 1, 47, 80
3, 48124, Note_off_c, 1, 47, 100
3, 48128, Note_on_c, 1, 51, 80
3, 48252, Note_off_c, 1, 51, 100
3, 48256, Note_on_c, 1, 56, 80
3, 48380, Note_off_c, 1, 56, 100
3, 48384, Note_on_c, 1, 45, 80
3, 48508, Note_off_c, 1, 45, 100
3, 48512, Note_on_c, 1, 49, 80
3, 48636, Note_off_c, 1, 49, 100
3, 48640, Note_on_c, 1, 54, 80
3, 48764, Note_off_c, 1, 54, 100
3, 48768, Note_on_c, 1, 44, 80
3, 48892, Note_off_c, 1, 44, 100
3, 48896, Note_on_c, 1, 47, 80
3, 49020, Note_off_c, 1, 47, 100
3, 49024, Note_on_c, 1, 52, 80
3, 49148, Note_off_c, 1, 52, 100
3, 49152, Note_on_c, 1, 42, 80
3, 49276, Note_off_c, 1, 42, 100
3, 49280, Note_on_c, 1, 45, 80
3, 49404, Note_off_c, 1, 45, 100
3, 49408, Note_on_c, 1, 51, 80
3, 49532, Note_off_c, 1, 51, 100
3, 49536, Note_on_c, 1, 40, 80
3, 49660, Note_off_c, 1, 40, 100
3, 49664, Note_on_c, 1, 44, 80
3, 49788, Note_off_c, 1, 44, 100
3, 49792, Note_on_c, 1, 49, 80
3, 49916, Note_off_c, 1, 49, 100
3, 49920, Note_on_c, 1, 39, 80
3, 50044, Note_off_c, 1, 39, 100
3, 50048, Note_on_c, 1, 42, 80
3, 50172, Note_off_c, 1, 42, 100
3, 50176, Note_on_c, 1, 47, 81
3, 50300, Note_off_c, 1, 47, 100
3, 50304, Note_on_c, 1, 40, 82
3, 50428, Note_off_c, 1, 40, 100
3, 50432, Note_on_c, 1, 44, 83
3, 50556, Note_off_c, 1, 44, 100
3, 50560, Note_on_c, 1, 49, 84
3, 50684, Note_off_c, 1, 49, 100
3, 50688, Note_on_c, 1, 39, 84
3, 50812, Note_off_c, 1, 39, 100
3, 50816, Note_on_c, 1, 42, 85
3, 50940, Note_off_c, 1, 42, 100
3, 50944, Note_on_c, 1, 47, 86
3, 51068, Note_off_c, 1, 47, 100
3, 51072, Note_on_c, 1, 37, 87
3, 51196, Note_off_c, 1, 37, 100
3, 51200, Note_on_c, 1, 40, 88
3, 51324, Note_off_c, 1, 40, 100
3, 51328, Note_on_c, 1, 47, 89
3, 51452, Note_off_c, 1, 47, 100
3, 51456, Note_on_c, 1, 35, 89
3, 51456, Note_on_c, 1, 39, 89
3, 51836, Note_off_c, 1, 39, 100
3, 51840, Note_on_c, 1, 47, 80
3, 52220, Note_off_c, 1, 35, 100
3, 52220, Note_off_c, 1, 47, 100
3, 52992, Note_on_c, 1, 52, 80
3, 53376, Note_on_c, 1, 59, 80
3, 53756, Note_off_c, 1, 52, 100
3, 53760, Note_on_c, 1, 47, 80
3, 54140, Note_off_c, 1, 59, 100
3, 54144, Note_on_c, 1, 57, 80
3, 54524, Note_off_c, 1, 47, 100
3, 54524, Note_off_c, 1, 57, 100
3, 54528, Note_on_c, 1, 56, 80
3, 54528, Note_on_c, 1, 52, 80
3, 54908, Note_off_c, 1, 56, 100
3, 54912, Note_on_c, 1, 59, 80
3, 55292, Note_off_c, 1, 52, 100
3, 55292, Note_off_c, 1, 59, 100
3, 56064, Note_on_c, 1, 40, 80
3, 56448, Note_on_c, 1, 47, 80
3, 56828, Note_off_c, 1, 40, 100
3, 56832, Note_on_c, 1, 35, 80
3, 57212, Note_off_c, 1, 47, 100
3, 57216, Note_on_c, 1, 45, 80
3, 57596, Note_off_c, 1, 35, 100
3, 57596, Note_off_c, 1, 45, 100
3, 57600, Note_on_c, 1, 47, 80
3, 57600, Note_on_c, 1, 44, 80
3, 57980, Note_off_c, 1, 47, 100
3, 57980, Note_off_c, 1, 44, 100
3, 58368, Note_on_c, 1, 55, 80
3, 58492, Note_off_c, 1, 55, 100
3, 58496, Note_on_c, 1, 59, 80
3, 58620, Note_off_c, 1, 59, 100
3, 58624, Note_on_c, 1, 64, 80
3, 58748, Note_off_c, 1, 64, 100
3, 58752, Note_on_c, 1, 54, 80
3, 58876, Note_off_c, 1, 54, 100
3, 58880, Note_on_c, 1, 57, 80
3, 59004, Note_off_c, 1, 57, 100
3, 59008, Note_on_c, 1, 59, 80
3, 59132, Note_off_c, 1, 59, 100
3, 59136, Note_on_c, 1, 52, 80
3, 59260, Note_off_c, 1, 52, 100
3, 59264, Note_on_c, 1, 55, 80
3, 59388, Note_off_c, 1, 55, 100
3, 59392, Note_on_c, 1, 59, 80
3, 59516, Note_off_c, 1, 59, 100
3, 59520, Note_on_c, 1, 50, 80
3, 59644, Note_off_c, 1, 50, 100
3, 59648, Note_on_c, 1, 54, 80
3, 59772, Note_off_c, 1, 54, 100
3, 59776, Note_on_c, 1, 59, 80
3, 59900, Note_off_c, 1, 59, 100
3, 59904, Note_on_c, 1, 48, 80
3, 60028, Note_off_c, 1, 48, 100
3, 60032, Note_on_c, 1, 52, 80
3, 60156, Note_off_c, 1, 52, 100
3, 60160, Note_on_c, 1, 57, 80
3, 60284, Note_off_c, 1, 57, 100
3, 60288, Note_on_c, 1, 47, 80
3, 60412, Note_off_c, 1, 47, 100
3, 60416, Note_on_c, 1, 50, 80
3, 60540, Note_off_c, 1, 50, 100
3, 60544, Note_on_c, 1, 55, 80
3, 60668, Note_off_c, 1, 55, 100
3, 60672, Note_on_c, 1, 45, 80
3, 60796, Note_off_c, 1, 45, 100
3, 60800, Note_on_c, 1, 48, 80
3, 60924, Note_off_c, 1, 48, 100
3, 60928, Note_on_c, 1, 54, 81
3, 61052, Note_off_c, 1, 54, 100
3, 61056, Note_on_c, 1, 43, 82
3, 61180, Note_off_c, 1, 43, 100
3, 61184, Note_on_c, 1, 47, 83
3, 61308, Note_off_c, 1, 47, 100
3, 61312, Note_on_c, 1, 52, 84
3, 61436, Note_off_c, 1, 52, 100
3, 61440, Note_on_c, 1, 42, 85
3, 61564, Note_off_c, 1, 42, 100
3, 61568, Note_on_c, 1, 45, 86
3, 61692, Note_off_c, 1, 45, 100
3, 61696, Note_on_c, 1, 50, 87
3, 61820, Note_off_c, 1, 50, 100
3, 61824, Note_on_c, 1, 40, 88
3, 61948, Note_off_c, 1, 40, 100
3, 61952, Note_on_c, 1, 43, 89
3, 62076, Note_off_c, 1, 43, 100
3, 62080, Note_on_c, 1, 50, 90
3, 62204, Note_off_c, 1, 50, 100
3, 62208, Note_on_c, 1, 38, 91
3, 62332, Note_off_c, 1, 38, 100
3, 62336, Note_on_c, 1, 42, 92
3, 62460, Note_off_c, 1, 42, 100
3, 62464, Note_on_c, 1, 50, 93
3, 62588, Note_off_c, 1, 50, 100
3, 62592, Note_on_c, 1, 43, 94
3, 62716, Note_off_c, 1, 43, 100
3, 62720, Note_on_c, 1, 47, 95
3, 62844, Note_off_c, 1, 47, 100
3, 62848, Note_on_c, 1, 50, 96
3, 62972, Note_off_c, 1, 50, 100
3, 62976, Note_on_c, 1, 42, 97
3, 63100, Note_off_c, 1, 42, 100
3, 63104, Note_on_c, 1, 45, 98
3, 63228, Note_off_c, 1, 45, 100
3, 63232, Note_on_c, 1, 50, 99
3, 63356, Note_off_c, 1, 50, 100
3, 63360, Note_on_c, 1, 40, 99
3, 63484, Note_off_c, 1, 40, 100
3, 63488, Note_on_c, 1, 43, 80
3, 63612, Note_off_c, 1, 43, 100
3, 63616, Note_on_c, 1, 50, 80
3, 63740, Note_off_c, 1, 50, 100
3, 63744, Note_on_c, 1, 38, 110
3, 63744, Note_on_c, 1, 42, 110
3, 64124, Note_off_c, 1, 42, 100
3, 64128, Note_on_c, 1, 50, 110
3, 65276, Note_off_c, 1, 38, 100
3, 65276, Note_off_c, 1, 50, 100
3, 65280, Note_on_c, 1, 38, 110
3, 65664, Note_on_c, 1, 50, 110
3, 66812, Note_off_c, 1, 38, 100
3, 66812, Note_off_c, 1, 50, 100
3, 66816, Note_on_c, 1, 38, 110
3, 67200, Note_on_c, 1, 50, 110
3, 68348, Note_off_c, 1, 38, 100
3, 68348, Note_off_c, 1, 50, 100
3, 68352, Note_on_c, 1, 38, 110
3, 68736, Note_on_c, 1, 50, 110
3, 69884, Note_off_c, 1, 38, 100
3, 69884, Note_off_c, 1, 50, 100
3, 69888, Note_on_c, 1, 38, 110
3, 70268, Note_off_c, 1, 38, 100
3, 71424, Key_signature, 1, "minor"
3, 71424, Note_on_c, 1, 43, 110
3, 71424, Note_on_c, 1, 31, 110
3, 71804, Note_off_c, 1, 43, 100
3, 71804, Note_off_c, 1, 31, 100
3, 74112, Note_on_c, 1, 50, 110
3, 74112, Note_on_c, 1, 38, 110
3, 74492, Note_off_c, 1, 50, 100
3, 74492, Note_off_c, 1, 38, 100
3, 74496, Note_on_c, 1, 55, 110
3, 74496, Note_on_c, 1, 43, 110
3, 74876, Note_off_c, 1, 55, 100
3, 74876, Note_off_c, 1, 43, 100
3, 77184, Note_on_c, 1, 52, 110
3, 77184, Note_on_c, 1, 40, 110
3, 77564, Note_off_c, 1, 52, 100
3, 77564, Note_off_c, 1, 40, 100
3, 77568, Note_on_c, 1, 57, 110
3, 77568, Note_on_c, 1, 45, 110
3, 77948, Note_off_c, 1, 57, 100
3, 77948, Note_off_c, 1, 45, 100
3, 80256, Note_on_c, 1, 52, 110
3, 80256, Note_on_c, 1, 40, 110
3, 80636, Note_off_c, 1, 52, 100
3, 80636, Note_off_c, 1, 40, 100
3, 80640, Note_on_c, 1, 57, 110
3, 80640, Note_on_c, 1, 45, 110
3, 81020, Note_off_c, 1, 57, 100
3, 81020, Note_off_c, 1, 45, 100
3, 83328, Note_on_c, 1, 54, 80
3, 83328, Note_on_c, 1, 66, 80
3, 83708, Note_off_c, 1, 54, 100
3, 83708, Note_off_c, 1, 66, 100
3, 83712, Note_on_c, 1, 59, 80
3, 83712, Note_on_c, 1, 71, 80
3, 84092, Note_off_c, 1, 59, 100
3, 84092, Note_off_c, 1, 71, 100
3, 84096, Note_on_c, 1, 55, 80
3, 84096, Note_on_c, 1, 67, 80
3, 84476, Note_off_c, 1, 55, 100
3, 84476, Note_off_c, 1, 67, 100
3, 84480, Note_on_c, 1, 52, 80
3, 84480, Note_on_c, 1, 64, 80
3, 84860, Note_off_c, 1, 52, 100
3, 84860, Note_off_c, 1, 64, 100
3, 84864, Note_on_c, 1, 54, 80
3, 84864, Note_on_c, 1, 66, 80
3, 85244, Note_off_c, 1, 54, 100
3, 85244, Note_off_c, 1, 66, 100
3, 85248, Note_on_c, 1, 47, 80
3, 85248, Note_on_c, 1, 59, 80
3, 85628, Note_off_c, 1, 47, 100
3, 85628, Note_off_c, 1, 59, 100
3, 86400, Note_on_c, 1, 54, 80
3, 86400, Note_on_c, 1, 42, 80
3, 86780, Note_off_c, 1, 54, 100
3, 86780, Note_off_c, 1, 42, 100
3, 86784, Note_on_c, 1, 59, 80
3, 86784, Note_on_c, 1, 47, 80
3, 87164, Note_off_c, 1, 59, 100
3, 87164, Note_off_c, 1, 47, 100
3, 87168, Note_on_c, 1, 55, 80
3, 87168, Note_on_c, 1, 43, 80
3, 87548, Note_off_c, 1, 55, 100
3, 87548, Note_off_c, 1, 43, 100
3, 87552, Note_on_c, 1, 52, 80
3, 87552, Note_on_c, 1, 40, 80
3, 87932, Note_off_c, 1, 52, 100
3, 87932, Note_off_c, 1, 40, 100
3, 87936, Note_on_c, 1, 54, 80
3, 87936, Note_on_c, 1, 42, 80
3, 88316, Note_off_c, 1, 54, 100
3, 88316, Note_off_c, 1, 42, 100
3, 88320, Note_on_c, 1, 47, 110
3, 88320, Note_on_c, 1, 35, 110
3, 91388, Note_off_c, 1, 35, 100
3, 91388, Note_off_c, 1, 47, 100
3, 91392, Note_on_c, 1, 45, 110
3, 91392, Note_on_c, 1, 33, 110
3, 94460, Note_off_c, 1, 33, 100
3, 94460, Note_off_c, 1, 45, 100
3, 94464, Note_on_c, 1, 43, 110
3, 94464, Note_on_c, 1, 31, 110
3, 97532, Note_off_c, 1, 31, 100
3, 97532, Note_off_c, 1, 43, 100
3, 97536, Note_on_c, 1, 42, 110
3, 97536, Note_on_c, 1, 30, 110
3, 100604, Note_off_c, 1, 30, 100
3, 100604, Note_off_c, 1, 42, 100
3, 100608, Note_on_c, 1, 40, 80
3, 100608, Note_on_c, 1, 28, 80
3, 100988, Note_off_c, 1, 40, 100
3, 100988, Note_off_c, 1, 28, 100
3, 103296, Note_on_c, 1, 47, 80
3, 103296, Note_on_c, 1, 35, 80
3, 103676, Note_off_c, 1, 47, 100
3, 103676, Note_off_c, 1, 35, 100
3, 103680, Note_on_c, 1, 52, 80
3, 103680, Note_on_c, 1, 40, 80
3, 104060, Note_off_c, 1, 52, 100
3, 104060, Note_off_c, 1, 40, 100
3, 106368, Note_on_c, 1, 59, 80
3, 106368, Note_on_c, 1, 47, 80
3, 106748, Note_off_c, 1, 59, 100
3, 106748, Note_off_c, 1, 47, 100
3, 106752, Note_on_c, 1, 60, 80
3, 106752, Note_on_c, 1, 48, 80
3, 107132, Note_off_c, 1, 60, 100
3, 107132, Note_off_c, 1, 48, 100
3, 107904, Note_on_c, 1, 55, 80
3, 107904, Note_on_c, 1, 43, 80
3, 108284, Note_off_c, 1, 55, 100
3, 108284, Note_off_c, 1, 43, 100
3, 108288, Note_on_c, 1, 57, 80
3, 108288, Note_on_c, 1, 45, 80
3, 108668, Note_off_c, 1, 57, 100
3, 108668, Note_off_c, 1, 45, 100
3, 109440, Note_on_c, 1, 45, 80
3, 109440, Note_on_c, 1, 33, 80
3, 109820, Note_off_c, 1, 45, 100
3, 109820, Note_off_c, 1, 33, 100
3, 109824, Note_on_c, 1, 47, 80
3, 109824, Note_on_c, 1, 35, 80
3, 110204, Note_off_c, 1, 47, 100
3, 110204, Note_off_c, 1, 35, 100
3, 110592, Note_on_c, 1, 47, 80
3, 110592, Note_on_c, 1, 35, 80
3, 110972, Note_off_c, 1, 47, 100
3, 110972, Note_off_c, 1, 35, 100
3, 111360, Note_on_c, 1, 48, 80
3, 111360, Note_on_c, 1, 36, 80
3, 111740, Note_off_c, 1, 48, 100
3, 111740, Note_off_c, 1, 36, 100
3, 112512, Note_on_c, 1, 44, 80
3, 112512, Note_on_c, 1, 32, 80
3, 112892, Note_off_c, 1, 44, 100
3, 112892, Note_off_c, 1, 32, 100
3, 112896, Note_on_c, 1, 33, 80
3, 112896, Note_on_c, 1, 45, 80
3, 113276, Note_off_c, 1, 33, 100
3, 113276, Note_off_c, 1, 45, 100
3, 114048, Note_on_c, 1, 45, 80
3, 114048, Note_on_c, 1, 33, 80
3, 114428, Note_off_c, 1, 45, 100
3, 114428, Note_off_c, 1, 33, 100
3, 114432, Note_on_c, 1, 46, 80
3, 114432, Note_on_c, 1, 34, 80
3, 114812, Note_off_c, 1, 46, 100
3, 114812, Note_off_c, 1, 34, 100
3, 115200, Note_on_c, 1, 46, 80
3, 115200, Note_on_c, 1, 34, 80
3, 115580, Note_off_c, 1, 46, 100
3, 115580, Note_off_c, 1, 34, 100
3, 115968, Note_on_c, 1, 47, 80
3, 115968, Note_on_c, 1, 35, 80
3, 117500, Note_off_c, 1, 47, 100
3, 117500, Note_off_c, 1, 35, 100
3, 117504, Note_on_c, 1, 47, 80
3, 117504, Note_on_c, 1, 35, 80
3, 119036, Note_off_c, 1, 47, 100
3, 119036, Note_off_c, 1, 35, 100
3, 119040, Note_on_c, 1, 47, 80
3, 119040, Note_on_c, 1, 35, 80
3, 120572, Note_off_c, 1, 47, 100
3, 120572, Note_off_c, 1, 35, 100
3, 120576, Note_on_c, 1, 47, 80
3, 120576, Note_on_c, 1, 35, 80
3, 122108, Note_off_c, 1, 47, 100
3, 122108, Note_off_c, 1, 35, 100
3, 122112, Note_on_c, 1, 35, 80
3, 123648, Note_on_c, 1, 47, 90
3, 128256, Key_signature, 4, "major"
3, 129020, Note_off_c, 1, 35, 100
3, 129020, Note_off_c, 1, 47, 100
3, 129024, Note_on_c, 1, 56, 80
3, 129148, Note_off_c, 1, 56, 100
3, 129152, Note_on_c, 1, 59, 80
3, 129276, Note_off_c, 1, 59, 100
3, 129280, Note_on_c, 1, 64, 80
3, 129404, Note_off_c, 1, 64, 100
3, 129408, Note_on_c, 1, 54, 80
3, 129532, Note_off_c, 1, 54, 100
3, 129536, Note_on_c, 1, 57, 80
3, 129660, Note_off_c, 1, 57, 100
3, 129664, Note_on_c, 1, 59, 80
3, 129788, Note_off_c, 1, 59, 100
3, 129792, Note_on_c, 1, 52, 80
3, 129916, Note_off_c, 1, 52, 100
3, 129920, Note_on_c, 1, 56, 80
3, 130044, Note_off_c, 1, 56, 100
3, 130048, Note_on_c, 1, 59, 80
3, 130172, Note_off_c, 1, 59, 100
3, 130176, Note_on_c, 1, 51, 80
3, 130300, Note_off_c, 1, 51, 100
3, 130304, Note_on_c, 1, 54, 80
3, 130428, Note_off_c, 1, 54, 100
3, 130432, Note_on_c, 1, 59, 80
3, 130556, Note_off_c, 1, 59, 100
3, 130560, Note_on_c, 1, 49, 80
3, 130684, Note_off_c, 1, 49, 100
3, 130688, Note_on_c, 1, 52, 80
3, 130812, Note_off_c, 1, 52, 100
3, 130816, Note_on_c, 1, 57, 80
3, 130940, Note_off_c, 1, 57, 100
3, 130944, Note_on_c, 1, 47, 80
3, 131068, Note_off_c, 1, 47, 100
3, 131072, Note_on_c, 1, 51, 80
3, 131196, Note_off_c, 1, 51, 100
3, 131200, Note_on_c, 1, 56, 80
3, 131324, Note_off_c, 1, 56, 100
3, 131328, Note_on_c, 1, 45, 80
3, 131452, Note_off_c, 1, 45, 100
3, 131456, Note_on_c, 1, 49, 80
3, 131580, Note_off_c, 1, 49, 100
3, 131584, Note_on_c, 1, 54, 80
3, 131708, Note_off_c, 1, 54, 100
3, 131712, Note_on_c, 1, 44, 80
3, 131836, Note_off_c, 1, 44, 100
3, 131840, Note_on_c, 1, 47, 80
3, 131964, Note_off_c, 1, 47, 100
3, 131968, Note_on_c, 1, 52, 80
3, 132092, Note_off_c, 1, 52, 100
3, 132096, Note_on_c, 1, 42, 80
3, 132220, Note_off_c, 1, 42, 100
3, 132224, Note_on_c, 1, 45, 80
3, 132348, Note_off_c, 1, 45, 100
3, 132352, Note_on_c, 1, 51, 80
3, 132476, Note_off_c, 1, 51, 100
3, 132480, Note_on_c, 1, 40, 80
3, 132604, Note_off_c, 1, 40, 100
3, 132608, Note_on_c, 1, 44, 80
3, 132732, Note_off_c, 1, 44, 100
3, 132736, Note_on_c, 1, 49, 80
3, 132860, Note_off_c, 1, 49, 100
3, 132864, Note_on_c, 1, 39, 80
3, 132988, Note_off_c, 1, 39, 100
3, 132992, Note_on_c, 1, 42, 81
3, 133116, Note_off_c, 1, 42, 100
3, 133120, Note_on_c, 1, 47, 82
3, 133244, Note_off_c, 1, 47, 100
3, 133248, Note_on_c, 1, 40, 83
3, 133372, Note_off_c, 1, 40, 100
3, 133376, Note_on_c, 1, 44, 85
3, 133500, Note_off_c, 1, 44, 100
3, 133504, Note_on_c, 1, 49, 86
3, 133628, Note_off_c, 1, 49, 100
3, 133632, Note_on_c, 1, 39, 87
3, 133756, Note_off_c, 1, 39, 100
3, 133760, Note_on_c, 1, 42, 89
3, 133884, Note_off_c, 1, 42, 100
3, 133888, Note_on_c, 1, 47, 90
3, 134012, Note_off_c, 1, 47, 100
3, 134016, Note_on_c, 1, 37, 91
3, 134140, Note_off_c, 1, 37, 100
3, 134144, Note_on_c, 1, 40, 93
3, 134268, Note_off_c, 1, 40, 100
3, 134272, Note_on_c, 1, 47, 94
3, 134396, Note_off_c, 1, 47, 100
3, 134400, Note_on_c, 1, 35, 95
3, 134400, Note_on_c, 1, 39, 95
3, 134780, Note_off_c, 1, 39, 100
3, 134784, Note_on_c, 1, 47, 99
3, 135164, Note_off_c, 1, 35, 100
3, 135164, Note_off_c, 1, 47, 100
3, 135936, Note_on_c, 1, 52, 80
3, 136320, Note_on_c, 1, 59, 80
3, 136700, Note_off_c, 1, 52, 100
3, 136704, Note_on_c, 1, 47, 80
3, 137084, Note_off_c, 1, 59, 100
3, 137088, Note_on_c, 1, 57, 80
3, 137468, Note_off_c, 1, 47, 100
3, 137468, Note_off_c, 1, 57, 100
3, 137472, Note_on_c, 1, 56, 80
3, 137472, Note_on_c, 1, 52, 80
3, 137852, Note_off_c, 1, 56, 100
3, 137856, Note_on_c, 1, 59, 80
3, 138236, Note_off_c, 1, 52, 100
3, 138236, Note_off_c, 1, 59, 100
3, 139008, Note_on_c, 1, 40, 80
3, 139392, Note_on_c, 1, 47, 80
3, 139772, Note_off_c, 1, 40, 100
3, 139776, Note_on_c, 1, 35, 80
3, 140156, Note_off_c, 1, 47, 100
3, 140160, Note_on_c, 1, 45, 80
3, 140540, Note_off_c, 1, 35, 100
3, 140540, Note_off_c, 1, 45, 100
3, 140544, Note_on_c, 1, 44, 80
3, 140544, Note_on_c, 1, 40, 80
3, 140924, Note_off_c, 1, 44, 100
3, 140924, Note_off_c, 1, 40, 100
3, 141312, Note_on_c, 1, 62, 80
3, 141404, Note_off_c, 1, 62, 100
3, 141408, Note_on_c, 1, 61, 80
3, 141500, Note_off_c, 1, 61, 100
3, 141504, Note_on_c, 1, 59, 80
3, 141596, Note_off_c, 1, 59, 100
3, 141600, Note_on_c, 1, 57, 80
3, 141692, Note_off_c, 1, 57, 100
3, 141696, Note_on_c, 1, 56, 80
3, 141788, Note_off_c, 1, 56, 100
3, 141792, Note_on_c, 1, 54, 80
3, 141884, Note_off_c, 1, 54, 100
3, 141888, Note_on_c, 1, 52, 80
3, 141980, Note_off_c, 1, 52, 100
3, 141984, Note_on_c, 1, 50, 80
3, 142076, Note_off_c, 1, 50, 100
3, 142080, Note_on_c, 1, 49, 80
3, 142460, Note_off_c, 1, 49, 100
3, 142464, Note_on_c, 1, 52, 80
3, 142844, Note_off_c, 1, 52, 100
3, 142848, Note_on_c, 1, 44, 80
3, 143228, Note_off_c, 1, 44, 100
3, 143232, Note_on_c, 1, 52, 80
3, 143612, Note_off_c, 1, 52, 100
3, 143616, Note_on_c, 1, 45, 80
3, 144380, Note_off_c, 1, 45, 100
3, 144384, Note_on_c, 1, 50, 80
3, 144476, Note_off_c, 1, 50, 100
3, 144480, Note_on_c, 1, 49, 80
3, 144572, Note_off_c, 1, 49, 100
3, 144576, Note_on_c, 1, 47, 80
3, 144668, Note_off_c, 1, 47, 100
3, 144672, Note_on_c, 1, 45, 80
3, 144764, Note_off_c, 1, 45, 100
3, 144768, Note_on_c, 1, 44, 80
3, 144860, Note_off_c, 1, 44, 100
3, 144864, Note_on_c, 1, 42, 80
3, 144956, Note_off_c, 1, 42, 100
3, 144960, Note_on_c, 1, 40, 80
3, 145052, Note_off_c, 1, 40, 100
3, 145056, Note_on_c, 1, 38, 80
3, 145148, Note_off_c, 1, 38, 100
3, 145152, Note_on_c, 1, 37, 80
3, 145532, Note_off_c, 1, 37, 100
3, 145536, Note_on_c, 1, 40, 80
3, 145916, Note_off_c, 1, 40, 100
3, 145920, Note_on_c, 1, 32, 80
3, 146304, Note_on_c, 1, 40, 80
3, 146684, Note_off_c, 1, 32, 100
3, 146684, Note_off_c, 1, 40, 100
3, 146688, Note_on_c, 1, 33, 80
3, 147072, Note_on_c, 1, 45, 80
3, 147452, Note_off_c, 1, 33, 100
3, 147452, Note_off_c, 1, 45, 100
3, 147456, Note_on_c, 1, 47, 80
3, 147456, Note_on_c, 1, 35, 80
3, 147840, Note_on_c, 1, 45, 80
3, 148220, Note_off_c, 1, 47, 100
3, 148220, Note_off_c, 1, 35, 100
3, 148220, Note_off_c, 1, 45, 100
3, 148224, Note_on_c, 1, 49, 80
3, 148224, Note_on_c, 1, 37, 80
3, 148608, Note_on_c, 1, 45, 80
3, 148988, Note_off_c, 1, 49, 100
3, 148988, Note_off_c, 1, 37, 100
3, 148988, Note_off_c, 1, 45, 100
3, 148992, Note_on_c, 1, 50, 80
3, 148992, Note_on_c, 1, 38, 80
3, 149376, Note_on_c, 1, 45, 80
3, 149756, Note_off_c, 1, 50, 100
3, 149756, Note_off_c, 1, 38, 100
3, 149756, Note_off_c, 1, 45, 100
3, 149760, Note_on_c, 1, 52, 80
3, 149760, Note_on_c, 1, 40, 80
3, 150140, Note_off_c, 1, 52, 100
3, 150140, Note_off_c, 1, 40, 100
3, 150144, Note_on_c, 1, 54, 80
3, 150144, Note_on_c, 1, 42, 80
3, 150524, Note_off_c, 1, 54, 100
3, 150524, Note_off_c, 1, 42, 100
3, 150528, Note_on_c, 1, 50, 80
3, 150528, Note_on_c, 1, 38, 80
3, 150908, Note_off_c, 1, 50, 100
3, 150908, Note_off_c, 1, 38, 100
3, 150912, Note_on_c, 1, 52, 80
3, 150912, Note_on_c, 1, 40, 80
3, 151292, Note_off_c, 1, 52, 100
3, 151292, Note_off_c, 1, 40, 100
3, 151296, Note_on_c, 1, 45, 80
3, 151296, Note_on_c, 1, 33, 80
3, 151676, Note_off_c, 1, 45, 100
3, 151676, Note_off_c, 1, 33, 100
3, 155520, Note_on_c, 1, 50, 80
3, 155900, Note_off_c, 1, 50, 100
3, 156288, Note_on_c, 1, 52, 80
3, 156668, Note_off_c, 1, 52, 100
3, 157056, Note_on_c, 1, 40, 80
3, 157436, Note_off_c, 1, 40, 100
3, 157440, Note_on_c, 1, 45, 80
3, 157820, Note_off_c, 1, 45, 100
3, 157824, Note_on_c, 1, 57, 80
3, 158204, Note_off_c, 1, 57, 100
3, 161664, Note_on_c, 1, 53, 80
3, 161664, Note_on_c, 1, 41, 80
3, 162044, Note_off_c, 1, 53, 100
3, 162044, Note_off_c, 1, 41, 100
3, 162432, Note_on_c, 1, 53, 80
3, 162432, Note_on_c, 1, 41, 80
3, 162812, Note_off_c, 1, 53, 100
3, 162812, Note_off_c, 1, 41, 100
3, 163200, Note_on_c, 1, 53, 80
3, 163200, Note_on_c, 1, 41, 80
3, 163580, Note_off_c, 1, 53, 100
3, 163580, Note_off_c, 1, 41, 100
3, 163968, Note_on_c, 1, 53, 80
3, 163968, Note_on_c, 1, 41, 80
3, 164348, Note_off_c, 1, 53, 100
3, 164348, Note_off_c, 1, 41, 100
3, 164736, Note_on_c, 1, 53, 80
3, 164736, Note_on_c, 1, 41, 80
3, 165116, Note_off_c, 1, 53, 100
3, 165116, Note_off_c, 1, 41, 100
3, 165504, Note_on_c, 1, 54, 80
3, 165504, Note_on_c, 1, 42, 80
3, 165884, Note_off_c, 1, 54, 100
3, 165884, Note_off_c, 1, 42, 100
3, 166272, Note_on_c, 1, 54, 80
3, 166272, Note_on_c, 1, 42, 80
3, 166652, Note_off_c, 1, 54, 100
3, 166652, Note_off_c, 1, 42, 100
3, 168960, Note_on_c, 1, 56, 80
3, 169084, Note_off_c, 1, 56, 100
3, 169088, Note_on_c, 1, 59, 80
3, 169212, Note_off_c, 1, 59, 100
3, 169216, Note_on_c, 1, 64, 80
3, 169340, Note_off_c, 1, 64, 100
3, 169344, Note_on_c, 1, 54, 81
3, 169468, Note_off_c, 1, 54, 100
3, 169472, Note_on_c, 1, 57, 81
3, 169596, Note_off_c, 1, 57, 100
3, 169600, Note_on_c, 1, 59, 82
3, 169724, Note_off_c, 1, 59, 100
3, 169728, Note_on_c, 1, 52, 83
3, 169852, Note_off_c, 1, 52, 100
3, 169856, Note_on_c, 1, 56, 84
3, 169980, Note_off_c, 1, 56, 100
3, 169984, Note_on_c, 1, 59, 84
3, 170108, Note_off_c, 1, 59, 100
3, 170112, Note_on_c, 1, 51, 85
3, 170236, Note_off_c, 1, 51, 100
3, 170240, Note_on_c, 1, 54, 86
3, 170364, Note_off_c, 1, 54, 100
3, 170368, Note_on_c, 1, 59, 87
3, 170492, Note_off_c, 1, 59, 100
3, 170496, Note_on_c, 1, 49, 88
3, 170620, Note_off_c, 1, 49, 100
3, 170624, Note_on_c, 1, 52, 88
3, 170748, Note_off_c, 1, 52, 100
3, 170752, Note_on_c, 1, 57, 89
3, 170876, Note_off_c, 1, 57, 100
3, 170880, Note_on_c, 1, 47, 90
3, 171004, Note_off_c, 1, 47, 100
3, 171008, Note_on_c, 1, 51, 91
3, 171132, Note_off_c, 1, 51, 100
3, 171136, Note_on_c, 1, 56, 91
3, 171260, Note_off_c, 1, 56, 100
3, 171264, Note_on_c, 1, 45, 92
3, 171388, Note_off_c, 1, 45, 100
3, 171392, Note_on_c, 1, 49, 93
3, 171516, Note_off_c, 1, 49, 100
3, 171520, Note_on_c, 1, 54, 94
3, 171644, Note_off_c, 1, 54, 100
3, 171648, Note_on_c, 1, 44, 94
3, 171772, Note_off_c, 1, 44, 100
3, 171776, Note_on_c, 1, 47, 95
3, 171900, Note_off_c, 1, 47, 100
3, 171904, Note_on_c, 1, 52, 96
3, 172028, Note_off_c, 1, 52, 100
3, 172032, Note_on_c, 1, 42, 97
3, 172156, Note_off_c, 1, 42, 100
3, 172160, Note_on_c, 1, 45, 98
3, 172284, Note_off_c, 1, 45, 100
3, 172288, Note_on_c, 1, 51, 98
3, 172412, Note_off_c, 1, 51, 100
3, 172416, Note_on_c, 1, 40, 99
3, 172540, Note_off_c, 1, 40, 100
3, 172544, Note_on_c, 1, 44, 100
3, 172668, Note_off_c, 1, 44, 100
3, 172672, Note_on_c, 1, 49, 101
3, 172796, Note_off_c, 1, 49, 100
3, 172800, Note_on_c, 1, 39, 101
3, 172924, Note_off_c, 1, 39, 100
3, 172928, Note_on_c, 1, 42, 102
3, 173052, Note_off_c, 1, 42, 100
3, 173056, Note_on_c, 1, 47, 103
3, 173180, Note_off_c, 1, 47, 100
3, 173184, Note_on_c, 1, 40, 104
3, 173308, Note_off_c, 1, 40, 100
3, 173312, Note_on_c, 1, 44, 104
3, 173436, Note_off_c, 1, 44, 100
3, 173440, Note_on_c, 1, 49, 105
3, 173564, Note_off_c, 1, 49, 100
3, 173568, Note_on_c, 1, 39, 106
3, 173692, Note_off_c, 1, 39, 100
3, 173696, Note_on_c, 1, 42, 107
3, 173820, Note_off_c, 1, 42, 100
3, 173824, Note_on_c, 1, 47, 108
3, 173948, Note_off_c, 1, 47, 100
3, 173952, Note_on_c, 1, 37, 108
3, 174076, Note_off_c, 1, 37, 100
3, 174080, Note_on_c, 1, 40, 109
3, 174204, Note_off_c, 1, 40, 100
3, 174208, Note_on_c, 1, 47, 80
3, 174332, Note_off_c, 1, 47, 100
3, 174336, Note_on_c, 1, 35, 120
3, 174336, Note_on_c, 1, 39, 120
3, 174716, Note_off_c, 1, 39, 100
3, 174720, Note_on_c, 1, 47, 120
3, 175100, Note_off_c, 1, 35, 100
3, 175100, Note_off_c, 1, 47, 100
3, 175296, Note_on_c, 1, 47, 120
3, 175296, Note_on_c, 1, 35, 120
3, 175676, Note_off_c, 1, 47, 100
3, 175676, Note_off_c, 1, 35, 100
3, 175680, Note_on_c, 1, 51, 120
3, 175680, Note_on_c, 1, 39, 120
3, 176060, Note_off_c, 1, 39, 100
3, 176060, Note_off_c, 1, 51, 100
3, 176064, Note_on_c, 1, 52, 120
3, 176064, Note_on_c, 1, 40, 120
3, 176444, Note_off_c, 1, 52, 100
3, 176444, Note_off_c, 1, 40, 100
3, 176448, Note_on_c, 1, 52, 120
3, 176448, Note_on_c, 1, 40, 120
3, 176828, Note_off_c, 1, 52, 100
3, 176828, Note_off_c, 1, 40, 100
3, 176832, Note_on_c, 1, 52, 120
3, 176832, Note_on_c, 1, 40, 120
3, 177212, Note_off_c, 1, 52, 100
3, 177212, Note_off_c, 1, 40, 100
3, 177216, Note_on_c, 1, 52, 120
3, 177216, Note_on_c, 1, 40, 120
3, 177596, Note_off_c, 1, 40, 100
3, 177596, Note_off_c, 1, 52, 100
3, 177600, Note_on_c, 1, 52, 120
3, 177600, Note_on_c, 1, 40, 120
3, 177980, Note_off_c, 1, 52, 100
3, 177980, Note_off_c, 1, 40, 100
3, 177984, Note_on_c, 1, 52, 120
3, 177984, Note_on_c, 1, 40, 120
3, 178364, Note_off_c, 1, 52, 100
3, 178364, Note_off_c, 1, 40, 100
3, 178368, Note_on_c, 1, 52, 120
3, 178368, Note_on_c, 1, 40, 120
3, 178748, Note_off_c, 1, 52, 100
3, 178748, Note_off_c, 1, 40, 100
3, 178752, Note_on_c, 1, 53, 120
3, 178752, Note_on_c, 1, 41, 120
3, 179132, Note_off_c, 1, 41, 100
3, 179132, Note_off_c, 1, 53, 100
3, 179136, Note_on_c, 1, 54, 120
3, 179136, Note_on_c, 1, 42, 120
3, 179516, Note_off_c, 1, 54, 100
3, 179516, Note_off_c, 1, 42, 100
3, 179520, Note_on_c, 1, 56, 120
3, 179520, Note_on_c, 1, 44, 120
3, 179900, Note_off_c, 1, 56, 100
3, 179900, Note_off_c, 1, 44, 100
3, 179904, Note_on_c, 1, 57, 120
3, 179904, Note_on_c, 1, 45, 120
3, 180284, Note_off_c, 1, 57, 100
3, 180284, Note_off_c, 1, 45, 100
3, 180288, Note_on_c, 1, 57, 120
3, 180288, Note_on_c, 1, 45, 120
3, 180668, Note_off_c, 1, 45, 100
3, 180668, Note_off_c, 1, 57, 100
3, 180672, Note_on_c, 1, 57, 120
3, 180672, Note_on_c, 1, 45, 120
3, 181052, Note_off_c, 1, 57, 100
3, 181052, Note_off_c, 1, 45, 100
3, 181056, Note_on_c, 1, 57, 120
3, 181056, Note_on_c, 1, 45, 120
3, 181436, Note_off_c, 1, 57, 100
3, 181436, Note_off_c, 1, 45, 100
3, 181440, Note_on_c, 1, 57, 120
3, 181440, Note_on_c, 1, 45, 120
3, 181820, Note_off_c, 1, 57, 100
3, 181820, Note_off_c, 1, 45, 100
3, 181824, Note_on_c, 1, 57, 120
3, 181824, Note_on_c, 1, 45, 120
3, 182012, Note_off_c, 1, 57, 100
3, 182012, Note_off_c, 1, 45, 100
3, 182016, Note_on_c, 1, 57, 120
3, 182016, Note_on_c, 1, 45, 120
3, 182780, Note_off_c, 1, 57, 100
3, 182780, Note_off_c, 1, 45, 100
3, 182784, Note_on_c, 1, 48, 120
3, 182784, Note_on_c, 1, 36, 120
3, 183164, Note_off_c, 1, 48, 100
3, 183164, Note_off_c, 1, 36, 100
3, 183168, Note_on_c, 1, 48, 120
3, 183168, Note_on_c, 1, 36, 120
3, 183548, Note_off_c, 1, 48, 100
3, 183548, Note_off_c, 1, 36, 100
3, 183552, Note_on_c, 1, 48, 120
3, 183552, Note_on_c, 1, 36, 120
3, 184316, Note_off_c, 1, 48, 100
3, 184316, Note_off_c, 1, 36, 100
3, 184320, Note_on_c, 1, 51, 120
3, 184320, Note_on_c, 1, 39, 120
3, 184700, Note_off_c, 1, 51, 100
3, 184700, Note_off_c, 1, 39, 100
3, 184704, Note_on_c, 1, 51, 120
3, 184704, Note_on_c, 1, 39, 120
3, 185084, Note_off_c, 1, 51, 100
3, 185084, Note_off_c, 1, 39, 100
3, 185088, Note_on_c, 1, 51, 120
3, 185088, Note_on_c, 1, 39, 120
3, 185852, Note_off_c, 1, 51, 100
3, 185852, Note_off_c, 1, 39, 100
3, 185856, Note_on_c, 1, 54, 113
3, 185856, Note_on_c, 1, 42, 113
3, 186236, Note_off_c, 1, 54, 100
3, 186236, Note_off_c, 1, 42, 100
3, 186240, Note_on_c, 1, 54, 109
3, 186240, Note_on_c, 1, 42, 109
3, 186620, Note_off_c, 1, 54, 100
3, 186620, Note_off_c, 1, 42, 100
3, 186624, Note_on_c, 1, 54, 105
3, 186624, Note_on_c, 1, 42, 105
3, 187004, Note_off_c, 1, 54, 100
3, 187004, Note_off_c, 1, 42, 100
3, 187008, Note_on_c, 1, 54, 101
3, 187008, Note_on_c, 1, 42, 101
3, 187388, Note_off_c, 1, 54, 100
3, 187388, Note_off_c, 1, 42, 100
3, 187392, Note_on_c, 1, 54, 97
3, 187392, Note_on_c, 1, 42, 97
3, 187772, Note_off_c, 1, 54, 100
3, 187772, Note_off_c, 1, 42, 100
3, 187776, Note_on_c, 1, 54, 93
3, 187776, Note_on_c, 1, 42, 93
3, 188156, Note_off_c, 1, 54, 100
3, 188156, Note_off_c, 1, 42, 100
3, 188160, Note_on_c, 1, 54, 80
3, 188160, Note_on_c, 1, 42, 80
3, 190460, Note_off_c, 1, 42, 100
3, 190460, Note_off_c, 1, 54, 100
3, 190464, Note_on_c, 1, 56, 80
3, 190588, Note_off_c, 1, 56, 100
3, 190592, Note_on_c, 1, 59, 80
3, 190716, Note_off_c, 1, 59, 100
3, 190720, Note_on_c, 1, 64, 80
3, 190844, Note_off_c, 1, 64, 100
3, 190848, Note_on_c, 1, 54, 80
3, 190972, Note_off_c, 1, 54, 100
3, 190976, Note_on_c, 1, 57, 80
3, 191100, Note_off_c, 1, 57, 100
3, 191104, Note_on_c, 1, 59, 80
3, 191228, Note_off_c, 1, 59, 100
3, 191232, Note_on_c, 1, 52, 80
3, 191356, Note_off_c, 1, 52, 100
3, 191360, Note_on_c, 1, 56, 80
3, 191484, Note_off_c, 1, 56, 100
3, 191488, Note_on_c, 1, 59, 80
3, 191612, Note_off_c, 1, 59, 100
3, 191616, Note_on_c, 1, 51, 80
3, 191740, Note_off_c, 1, 51, 100
3, 191744, Note_on_c, 1, 54, 80
3, 191868, Note_off_c, 1, 54, 100
3, 191872, Note_on_c, 1, 59, 80
3, 191996, Note_off_c, 1, 59, 100
3, 192000, Note_on_c, 1, 49, 80
3, 192124, Note_off_c, 1, 49, 100
3, 192128, Note_on_c, 1, 52, 80
3, 192252, Note_off_c, 1, 52, 100
3, 192256, Note_on_c, 1, 57, 80
3, 192380, Note_off_c, 1, 57, 100
3, 192384, Note_on_c, 1, 47, 80
3, 192508, Note_off_c, 1, 47, 100
3, 192512, Note_on_c, 1, 51, 80
3, 192636, Note_off_c, 1, 51, 100
3, 192640, Note_on_c, 1, 56, 80
3, 192764, Note_off_c, 1, 56, 100
3, 192768, Note_on_c, 1, 45, 80
3, 192892, Note_off_c, 1, 45, 100
3, 192896, Note_on_c, 1, 49, 80
3, 193020, Note_off_c, 1, 49, 100
3, 193024, Note_on_c, 1, 54, 80
3, 193148, Note_off_c, 1, 54, 100
3, 193152, Note_on_c, 1, 44, 80
3, 193276, Note_off_c, 1, 44, 100
3, 193280, Note_on_c, 1, 47, 80
3, 193404, Note_off_c, 1, 47, 100
3, 193408, Note_on_c, 1, 52, 80
3, 193532, Note_off_c, 1, 52, 100
3, 193536, Note_on_c, 1, 42, 80
3, 193660, Note_off_c, 1, 42, 100
3, 193664, Note_on_c, 1, 45, 80
3, 193788, Note_off_c, 1, 45, 100
3, 193792, Note_on_c, 1, 51, 80
3, 193916, Note_off_c, 1, 51, 100
3, 193920, Note_on_c, 1, 40, 80
3, 194044, Note_off_c, 1, 40, 100
3, 194048, Note_on_c, 1, 44, 80
3, 194172, Note_off_c, 1, 44, 100
3, 194176, Note_on_c, 1, 49, 80
3, 194300, Note_off_c, 1, 49, 100
3, 194304, Note_on_c, 1, 39, 80
3, 194428, Note_off_c, 1, 39, 100
3, 194432, Note_on_c, 1, 42, 80
3, 194556, Note_off_c, 1, 42, 100
3, 194560, Note_on_c, 1, 47, 80
3, 194684, Note_off_c, 1, 47, 100
3, 194688, Note_on_c, 1, 40, 80
3, 194812, Note_off_c, 1, 40, 100
3, 194816, Note_on_c, 1, 44, 80
3, 194940, Note_off_c, 1, 44, 100
3, 194944, Note_on_c, 1, 49, 80
3, 195068, Note_off_c, 1, 49, 100
3, 195072, Note_on_c, 1, 39, 80
3, 195196, Note_off_c, 1, 39, 100
3, 195200, Note_on_c, 1, 42, 80
3, 195324, Note_off_c, 1, 42, 100
3, 195328, Note_on_c, 1, 47, 80
3, 195452, Note_off_c, 1, 47, 100
3, 195456, Note_on_c, 1, 37, 80
3, 195580, Note_off_c, 1, 37, 100
3, 195584, Note_on_c, 1, 40, 80
3, 195708, Note_off_c, 1, 40, 100
3, 195712, Note_on_c, 1, 47, 80
3, 195836, Note_off_c, 1, 47, 100
3, 195840, Note_on_c, 1, 39, 80
3, 195840, Note_on_c, 1, 35, 80
3, 196220, Note_off_c, 1, 39, 100
3, 196220, Note_off_c, 1, 35, 100
3, 196224, Note_on_c, 1, 47, 80
3, 196604, Note_off_c, 1, 47, 100
3, 198144, Note_on_c, 1, 57, 80
3, 198236, Note_off_c, 1, 57, 100
3, 198240, Note_on_c, 1, 56, 80
3, 198332, Note_off_c, 1, 56, 100
3, 198336, Note_on_c, 1, 54, 80
3, 198428, Note_off_c, 1, 54, 100
3, 198432, Note_on_c, 1, 52, 80
3, 198524, Note_off_c, 1, 52, 100
3, 198528, Note_on_c, 1, 51, 80
3, 198620, Note_off_c, 1, 51, 100
3, 198624, Note_on_c, 1, 49, 80
3, 198716, Note_off_c, 1, 49, 100
3, 198720, Note_on_c, 1, 47, 80
3, 198812, Note_off_c, 1, 47, 100
3, 198816, Note_on_c, 1, 45, 80
3, 198908, Note_off_c, 1, 45, 100
3, 198912, Note_on_c, 1, 44, 80
3, 199292, Note_off_c, 1, 44, 100
3, 199296, Note_on_c, 1, 47, 80
3, 199676, Note_off_c, 1, 47, 100
3, 199680, Note_on_c, 1, 39, 80
3, 200060, Note_off_c, 1, 39, 100
3, 200064, Note_on_c, 1, 47, 80
3, 200444, Note_off_c, 1, 47, 100
3, 200448, Note_on_c, 1, 40, 80
3, 200832, Note_on_c, 1, 52, 84
3, 201212, Note_off_c, 1, 40, 100
3, 201212, Note_off_c, 1, 52, 100
3, 201216, Note_on_c, 1, 54, 88
3, 201216, Note_on_c, 1, 42, 88
3, 201600, Note_on_c, 1, 52, 92
3, 201980, Note_off_c, 1, 54, 100
3, 201980, Note_off_c, 1, 42, 100
3, 201980, Note_off_c, 1, 52, 100
3, 201984, Note_on_c, 1, 56, 97
3, 201984, Note_on_c, 1, 44, 97
3, 202368, Note_on_c, 1, 52, 101
3, 202748, Note_off_c, 1, 56, 100
3, 202748, Note_off_c, 1, 44, 100
3, 202748, Note_off_c, 1, 52, 100
3, 202752, Note_on_c, 1, 57, 105
3, 202752, Note_on_c, 1, 45, 105
3, 203136, Note_on_c, 1, 52, 109
3, 203516, Note_off_c, 1, 57, 100
3, 203516, Note_off_c, 1, 45, 100
3, 203516, Note_off_c, 1, 52, 100
3, 203520, Note_on_c, 1, 61, 110
3, 203520, Note_on_c, 1, 49, 110
3, 203904, Note_on_c, 1, 52, 110
3, 204284, Note_off_c, 1, 61, 100
3, 204284, Note_off_c, 1, 49, 100
3, 204284, Note_off_c, 1, 52, 100
3, 204288, Note_on_c, 1, 59, 110
3, 204288, Note_on_c, 1, 47, 110
3, 204668, Note_off_c, 1, 59, 100
3, 204668, Note_off_c, 1, 47, 100
3, 204672, Note_on_c, 1, 59, 110
3, 204672, Note_on_c, 1, 47, 110
3, 205052, Note_off_c, 1, 59, 100
3, 205052, Note_off_c, 1, 47, 100
3, 205056, Note_on_c, 1, 52, 110
3, 205056, Note_on_c, 1, 40, 110
3, 205820, Note_off_c, 1, 52, 100
3, 205820, Note_off_c, 1, 40, 100
3, 205820, End_track
0, 0, End_of_file
