0, 0, Header, 1, 3, 384
1, 0, Start_track
1, 0, Title_t, "L.v.Beethoven 2mov - Piano Sonata No.10 in G Major Op.14-2\000"
1, 0, Copyright_t, "Copyright(C) 1995-2009, Suzuki Software\000"
1, 0, Sequencer_specific, 9, 67, 123, 0, 88, 70, 48, 50, 0, 1
1, 0, Text_t, "XFhd:2000/05/15:JP:Classical::::L.v.Beethoven:::Kaoru Suzuki\000"
1, 0, Text_t, "XFln:JP:\203s\203A\203m\203\\\203i\203^\221æ10\224Ô\203g\222·\222²\215ì\225i14-2\201`\221æ2\212y\217Í:L.v.\203x\201[\203g\201[\203\224\203F\203\223:::\227é\202¿\202á\202ñ:\227é\202¿\202á\202ñ\000"
1, 0, Time_signature, 1, 2, 96, 8
1, 0, Sequencer_specific, 3, 0, 0, 65
1, 0, Sequencer_specific, 5, 0, 0, 119, 14, 0
1, 0, Tempo, 666666
1, 384, Time_signature, 4, 2, 96, 8
1, 3456, Tempo, 705882
1, 3840, Tempo, 666666
1, 4992, Tempo, 705882
1, 5760, Tempo, 666666
1, 6528, Tempo, 705882
1, 6912, Tempo, 666666
1, 11328, Tempo, 666666
1, 48000, Tempo, 689655
1, 48384, Tempo, 705882
1, 49920, Tempo, 666666
1, 61056, Tempo, 689655
1, 61440, Tempo, 705882
1, 61632, Tempo, 750000
1, 62016, Tempo, 666666
1, 67968, Tempo, 750000
1, 68352, Tempo, 666666
1, 86208, Tempo, 722891
1, 86592, Tempo, 666666
1, 121920, Tempo, 722891
1, 123456, Tempo, 666666
1, 129216, Tempo, 750000
1, 129600, Tempo, 666666
1, 141504, Tempo, 750000
1, 141888, Tempo, 666666
1, 147456, Tempo, 750000
1, 148032, Tempo, 666666
1, 152448, Tempo, 689655
1, 152832, Tempo, 722891
1, 153216, Tempo, 750000
1, 153600, Tempo, 800000
1, 153984, Tempo, 689655
1, 154176, Tempo, 666666
1, 154368, Tempo, 638297
1, 165888, Tempo, 666666
1, 166080, Tempo, 705882
1, 166368, Tempo, 638297
1, 184512, Tempo, 666666
1, 184704, Tempo, 652173
1, 186624, Tempo, 714285
1, 187776, Tempo, 750000
1, 191616, Tempo, 1200000
1, 191616, End_track
2, 0, Start_track
2, 0, Title_t, "Right"
2, 0, Control_c, 0, 0, 0
2, 0, Program_c, 0, 0
2, 0, Control_c, 0, 7, 100
2, 0, Control_c, 0, 10, 77
2, 0, Control_c, 0, 91, 127
2, 0, Key_signature, 0, "major"
2, 288, Note_on_c, 0, 55, 80
2, 380, Note_off_c, 0, 55, 100
2, 384, Note_on_c, 0, 60, 80
2, 384, Note_on_c, 0, 55, 80
2, 384, Note_on_c, 0, 52, 80
2, 572, Note_off_c, 0, 60, 100
2, 572, Note_off_c, 0, 55, 100
2, 572, Note_off_c, 0, 52, 100
2, 768, Note_on_c, 0, 59, 80
2, 768, Note_on_c, 0, 55, 80
2, 768, Note_on_c, 0, 53, 80
2, 956, Note_off_c, 0, 59, 100
2, 956, Note_off_c, 0, 55, 100
2, 956, Note_off_c, 0, 53, 100
2, 1152, Note_on_c, 0, 60, 80
2, 1152, Note_on_c, 0, 55, 80
2, 1340, Note_off_c, 0, 60, 100
2, 1340, Note_off_c, 0, 55, 100
2, 1536, Note_on_c, 0, 62, 80
2, 1536, Note_on_c, 0, 55, 80
2, 1724, Note_off_c, 0, 62, 100
2, 1724, Note_off_c, 0, 55, 100
2, 1920, Note_on_c, 0, 64, 80
2, 1920, Note_on_c, 0, 60, 80
2, 1920, Note_on_c, 0, 55, 80
2, 2108, Note_off_c, 0, 64, 100
2, 2108, Note_off_c, 0, 60, 100
2, 2108, Note_off_c, 0, 55, 100
2, 2304, Note_on_c, 0, 65, 80
2, 2304, Note_on_c, 0, 62, 80
2, 2304, Note_on_c, 0, 57, 80
2, 2492, Note_off_c, 0, 65, 100
2, 2492, Note_off_c, 0, 62, 100
2, 2492, Note_off_c, 0, 57, 100
2, 2688, Note_on_c, 0, 62, 80
2, 2688, Note_on_c, 0, 59, 80
2, 3452, Note_off_c, 0, 62, 100
2, 3452, Note_off_c, 0, 59, 100
2, 3456, Note_on_c, 0, 67, 80
2, 3456, Note_on_c, 0, 60, 80
2, 3644, Note_off_c, 0, 67, 100
2, 3644, Note_off_c, 0, 60, 100
2, 3840, Note_on_c, 0, 67, 80
2, 3840, Note_on_c, 0, 65, 80
2, 3840, Note_on_c, 0, 59, 80
2, 4028, Note_off_c, 0, 67, 100
2, 4028, Note_off_c, 0, 65, 100
2, 4028, Note_off_c, 0, 59, 100
2, 4224, Note_on_c, 0, 67, 80
2, 4224, Note_on_c, 0, 64, 80
2, 4224, Note_on_c, 0, 60, 80
2, 4412, Note_off_c, 0, 67, 100
2, 4412, Note_off_c, 0, 64, 100
2, 4412, Note_off_c, 0, 60, 100
2, 4608, Note_on_c, 0, 68, 80
2, 4608, Note_on_c, 0, 64, 80
2, 4608, Note_on_c, 0, 62, 80
2, 4796, Note_off_c, 0, 68, 100
2, 4796, Note_off_c, 0, 64, 100
2, 4796, Note_off_c, 0, 62, 100
2, 4992, Note_on_c, 0, 69, 80
2, 4992, Note_on_c, 0, 64, 80
2, 4992, Note_on_c, 0, 60, 80
2, 5180, Note_off_c, 0, 69, 100
2, 5180, Note_off_c, 0, 64, 100
2, 5180, Note_off_c, 0, 60, 100
2, 5376, Note_on_c, 0, 69, 80
2, 5376, Note_on_c, 0, 65, 80
2, 5376, Note_on_c, 0, 60, 80
2, 5564, Note_off_c, 0, 69, 100
2, 5564, Note_off_c, 0, 65, 100
2, 5564, Note_off_c, 0, 60, 100
2, 5760, Note_on_c, 0, 62, 80
2, 5760, Note_on_c, 0, 59, 80
2, 6336, Note_on_c, 0, 55, 80
2, 6428, Note_off_c, 0, 62, 100
2, 6428, Note_off_c, 0, 59, 100
2, 6428, Note_off_c, 0, 55, 100
2, 6528, Note_on_c, 0, 60, 80
2, 6528, Note_on_c, 0, 55, 80
2, 6528, Note_on_c, 0, 52, 80
2, 6716, Note_off_c, 0, 60, 100
2, 6716, Note_off_c, 0, 55, 100
2, 6716, Note_off_c, 0, 52, 100
2, 6912, Note_on_c, 0, 59, 80
2, 6912, Note_on_c, 0, 55, 80
2, 6912, Note_on_c, 0, 53, 80
2, 7100, Note_off_c, 0, 59, 100
2, 7100, Note_off_c, 0, 55, 100
2, 7100, Note_off_c, 0, 53, 100
2, 7296, Note_on_c, 0, 60, 80
2, 7296, Note_on_c, 0, 55, 80
2, 7484, Note_off_c, 0, 60, 100
2, 7484, Note_off_c, 0, 55, 100
2, 7680, Note_on_c, 0, 62, 80
2, 7680, Note_on_c, 0, 55, 80
2, 7868, Note_off_c, 0, 62, 100
2, 7868, Note_off_c, 0, 55, 100
2, 8064, Note_on_c, 0, 64, 80
2, 8064, Note_on_c, 0, 55, 80
2, 8252, Note_off_c, 0, 64, 100
2, 8252, Note_off_c, 0, 55, 100
2, 8448, Note_on_c, 0, 66, 80
2, 8448, Note_on_c, 0, 60, 80
2, 8636, Note_off_c, 0, 66, 100
2, 8636, Note_off_c, 0, 60, 100
2, 8832, Note_on_c, 0, 67, 80
2, 8832, Note_on_c, 0, 62, 80
2, 9596, Note_off_c, 0, 67, 100
2, 9596, Note_off_c, 0, 62, 100
2, 9600, Note_on_c, 0, 69, 80
2, 9600, Note_on_c, 0, 64, 80
2, 9788, Note_off_c, 0, 69, 100
2, 9788, Note_off_c, 0, 64, 100
2, 9984, Note_on_c, 0, 70, 80
2, 9984, Note_on_c, 0, 64, 80
2, 10172, Note_off_c, 0, 70, 100
2, 10172, Note_off_c, 0, 64, 100
2, 10368, Note_on_c, 0, 71, 80
2, 10368, Note_on_c, 0, 62, 80
2, 11132, Note_off_c, 0, 71, 100
2, 11132, Note_off_c, 0, 62, 100
2, 11136, Note_on_c, 0, 72, 80
2, 11136, Note_on_c, 0, 66, 80
2, 11324, Note_off_c, 0, 72, 100
2, 11324, Note_off_c, 0, 66, 100
2, 11520, Note_on_c, 0, 69, 80
2, 11520, Note_on_c, 0, 66, 80
2, 11708, Note_off_c, 0, 69, 100
2, 11708, Note_off_c, 0, 66, 100
2, 11904, Note_on_c, 0, 67, 80
2, 12284, Note_off_c, 0, 67, 100
2, 12576, Note_on_c, 0, 67, 80
2, 12668, Note_off_c, 0, 67, 100
2, 12672, Note_on_c, 0, 79, 80
2, 12672, Note_on_c, 0, 72, 80
2, 13052, Note_off_c, 0, 79, 100
2, 13052, Note_off_c, 0, 72, 100
2, 13056, Note_on_c, 0, 77, 80
2, 13056, Note_on_c, 0, 71, 80
2, 13436, Note_off_c, 0, 77, 100
2, 13436, Note_off_c, 0, 71, 100
2, 13440, Note_on_c, 0, 76, 80
2, 13440, Note_on_c, 0, 72, 80
2, 13820, Note_off_c, 0, 76, 100
2, 13820, Note_off_c, 0, 72, 100
2, 13824, Note_on_c, 0, 72, 80
2, 13824, Note_on_c, 0, 76, 80
2, 13872, Note_on_c, 0, 77, 80
2, 13916, Note_off_c, 0, 76, 100
2, 13920, Note_on_c, 0, 76, 80
2, 13964, Note_off_c, 0, 77, 100
2, 13968, Note_on_c, 0, 77, 80
2, 14012, Note_off_c, 0, 76, 100
2, 14016, Note_on_c, 0, 76, 80
2, 14060, Note_off_c, 0, 77, 100
2, 14064, Note_on_c, 0, 77, 80
2, 14108, Note_off_c, 0, 76, 100
2, 14112, Note_on_c, 0, 74, 80
2, 14156, Note_off_c, 0, 77, 100
2, 14160, Note_on_c, 0, 76, 80
2, 14204, Note_off_c, 0, 72, 100
2, 14204, Note_off_c, 0, 74, 100
2, 14204, Note_off_c, 0, 76, 100
2, 14208, Note_on_c, 0, 84, 80
2, 14208, Note_on_c, 0, 72, 80
2, 14588, Note_off_c, 0, 84, 100
2, 14588, Note_off_c, 0, 72, 100
2, 14592, Note_on_c, 0, 82, 80
2, 14592, Note_on_c, 0, 72, 80
2, 14972, Note_off_c, 0, 82, 100
2, 14972, Note_off_c, 0, 72, 100
2, 14976, Note_on_c, 0, 81, 80
2, 14976, Note_on_c, 0, 72, 80
2, 15644, Note_off_c, 0, 81, 100
2, 15644, Note_off_c, 0, 72, 100
2, 15648, Note_on_c, 0, 69, 80
2, 15740, Note_off_c, 0, 69, 100
2, 15744, Note_on_c, 0, 81, 80
2, 15744, Note_on_c, 0, 69, 80
2, 16124, Note_off_c, 0, 81, 100
2, 16124, Note_off_c, 0, 69, 100
2, 16128, Note_on_c, 0, 79, 80
2, 16128, Note_on_c, 0, 69, 80
2, 16508, Note_off_c, 0, 79, 100
2, 16508, Note_off_c, 0, 69, 100
2, 16512, Note_on_c, 0, 77, 80
2, 16512, Note_on_c, 0, 69, 80
2, 16892, Note_off_c, 0, 77, 100
2, 16892, Note_off_c, 0, 69, 100
2, 16896, Note_on_c, 0, 76, 80
2, 16896, Note_on_c, 0, 73, 80
2, 16896, Note_on_c, 0, 67, 80
2, 17276, Note_off_c, 0, 76, 100
2, 17276, Note_off_c, 0, 73, 100
2, 17276, Note_off_c, 0, 67, 100
2, 17280, Note_on_c, 0, 74, 80
2, 17280, Note_on_c, 0, 69, 80
2, 17280, Note_on_c, 0, 65, 80
2, 17660, Note_off_c, 0, 74, 100
2, 17660, Note_off_c, 0, 69, 100
2, 17660, Note_off_c, 0, 65, 100
2, 17664, Note_on_c, 0, 69, 80
2, 17664, Note_on_c, 0, 63, 80
2, 17664, Note_on_c, 0, 72, 80
2, 18044, Note_off_c, 0, 69, 100
2, 18044, Note_off_c, 0, 63, 100
2, 18048, Note_on_c, 0, 67, 80
2, 18048, Note_on_c, 0, 62, 80
2, 18428, Note_off_c, 0, 72, 100
2, 18428, Note_off_c, 0, 67, 100
2, 18428, Note_off_c, 0, 62, 100
2, 18432, Note_on_c, 0, 71, 80
2, 18812, Note_off_c, 0, 71, 100
2, 18816, Note_on_c, 0, 72, 80
2, 18816, Note_on_c, 0, 67, 80
2, 19004, Note_off_c, 0, 72, 100
2, 19004, Note_off_c, 0, 67, 100
2, 19200, Note_on_c, 0, 71, 80
2, 19200, Note_on_c, 0, 67, 80
2, 19200, Note_on_c, 0, 65, 80
2, 19388, Note_off_c, 0, 71, 100
2, 19388, Note_off_c, 0, 67, 100
2, 19388, Note_off_c, 0, 65, 100
2, 19584, Note_on_c, 0, 72, 80
2, 19584, Note_on_c, 0, 67, 80
2, 19584, Note_on_c, 0, 64, 80
2, 19772, Note_off_c, 0, 72, 100
2, 19772, Note_off_c, 0, 67, 100
2, 19772, Note_off_c, 0, 64, 100
2, 19968, Note_on_c, 0, 74, 80
2, 19968, Note_on_c, 0, 67, 80
2, 19968, Note_on_c, 0, 62, 80
2, 20156, Note_off_c, 0, 74, 100
2, 20156, Note_off_c, 0, 67, 100
2, 20156, Note_off_c, 0, 62, 100
2, 20352, Note_on_c, 0, 76, 80
2, 20352, Note_on_c, 0, 72, 80
2, 20352, Note_on_c, 0, 67, 80
2, 20352, Note_on_c, 0, 64, 80
2, 20540, Note_off_c, 0, 76, 100
2, 20540, Note_off_c, 0, 72, 100
2, 20540, Note_off_c, 0, 67, 100
2, 20540, Note_off_c, 0, 64, 100
2, 20736, Note_on_c, 0, 77, 80
2, 20736, Note_on_c, 0, 74, 80
2, 20736, Note_on_c, 0, 65, 80
2, 20736, Note_on_c, 0, 69, 80
2, 20924, Note_off_c, 0, 77, 100
2, 20924, Note_off_c, 0, 74, 100
2, 20924, Note_off_c, 0, 65, 100
2, 20924, Note_off_c, 0, 69, 100
2, 21120, Note_on_c, 0, 74, 80
2, 21120, Note_on_c, 0, 71, 80
2, 21120, Note_on_c, 0, 67, 80
2, 21120, Note_on_c, 0, 62, 80
2, 21308, Note_off_c, 0, 74, 100
2, 21308, Note_off_c, 0, 71, 100
2, 21308, Note_off_c, 0, 67, 100
2, 21308, Note_off_c, 0, 62, 100
2, 21504, Note_on_c, 0, 67, 100
2, 21504, Note_on_c, 0, 79, 100
2, 22268, Note_off_c, 0, 67, 100
2, 22268, Note_off_c, 0, 79, 100
2, 22272, Note_on_c, 0, 79, 100
2, 22272, Note_on_c, 0, 70, 100
2, 22652, Note_off_c, 0, 70, 100
2, 22656, Note_on_c, 0, 69, 100
2, 23036, Note_off_c, 0, 79, 100
2, 23040, Note_on_c, 0, 77, 100
2, 23420, Note_off_c, 0, 69, 100
2, 23420, Note_off_c, 0, 77, 100
2, 23424, Note_on_c, 0, 76, 80
2, 23424, Note_on_c, 0, 72, 80
2, 23424, Note_on_c, 0, 67, 80
2, 23612, Note_off_c, 0, 76, 100
2, 23612, Note_off_c, 0, 72, 100
2, 23612, Note_off_c, 0, 67, 100
2, 23808, Note_on_c, 0, 74, 80
2, 23808, Note_on_c, 0, 71, 80
2, 23808, Note_on_c, 0, 65, 80
2, 23996, Note_off_c, 0, 74, 100
2, 23996, Note_off_c, 0, 71, 100
2, 23996, Note_off_c, 0, 65, 100
2, 24192, Note_on_c, 0, 72, 80
2, 24192, Note_on_c, 0, 67, 80
2, 24192, Note_on_c, 0, 64, 80
2, 24380, Note_off_c, 0, 72, 100
2, 24380, Note_off_c, 0, 67, 100
2, 24380, Note_off_c, 0, 64, 100
2, 24960, Note_on_c, 0, 59, 80
2, 24960, Note_on_c, 0, 53, 80
2, 24960, Note_on_c, 0, 50, 80
2, 25148, Note_off_c, 0, 59, 100
2, 25148, Note_off_c, 0, 53, 100
2, 25148, Note_off_c, 0, 50, 100
2, 25344, Note_on_c, 0, 60, 100
2, 25344, Note_on_c, 0, 55, 100
2, 25344, Note_on_c, 0, 52, 100
2, 25532, Note_off_c, 0, 60, 100
2, 25532, Note_off_c, 0, 55, 100
2, 25532, Note_off_c, 0, 52, 100
2, 25728, Note_on_c, 0, 61, 80
2, 25728, Note_on_c, 0, 55, 80
2, 25728, Note_on_c, 0, 52, 80
2, 25916, Note_off_c, 0, 61, 100
2, 25916, Note_off_c, 0, 55, 100
2, 25916, Note_off_c, 0, 52, 100
2, 26112, Note_on_c, 0, 62, 100
2, 26112, Note_on_c, 0, 57, 100
2, 26112, Note_on_c, 0, 53, 100
2, 26300, Note_off_c, 0, 62, 100
2, 26300, Note_off_c, 0, 57, 100
2, 26300, Note_off_c, 0, 53, 100
2, 26496, Note_on_c, 0, 63, 80
2, 26496, Note_on_c, 0, 57, 80
2, 26496, Note_on_c, 0, 54, 80
2, 26684, Note_off_c, 0, 63, 100
2, 26684, Note_off_c, 0, 57, 100
2, 26684, Note_off_c, 0, 54, 100
2, 26880, Note_on_c, 0, 64, 100
2, 26880, Note_on_c, 0, 59, 100
2, 26880, Note_on_c, 0, 55, 100
2, 27068, Note_off_c, 0, 64, 100
2, 27068, Note_off_c, 0, 59, 100
2, 27068, Note_off_c, 0, 55, 100
2, 27264, Note_on_c, 0, 65, 100
2, 27264, Note_on_c, 0, 59, 100
2, 27264, Note_on_c, 0, 55, 100
2, 28412, Note_off_c, 0, 55, 100
2, 28412, Note_off_c, 0, 59, 100
2, 28412, Note_off_c, 0, 65, 100
2, 28416, Note_on_c, 0, 60, 80
2, 28416, Note_on_c, 0, 64, 80
2, 28416, Note_on_c, 0, 55, 80
2, 28796, Note_off_c, 0, 60, 100
2, 28796, Note_off_c, 0, 64, 100
2, 28796, Note_off_c, 0, 55, 100
2, 28800, Note_on_c, 0, 62, 80
2, 28800, Note_on_c, 0, 60, 80
2, 28800, Note_on_c, 0, 53, 80
2, 29180, Note_off_c, 0, 62, 100
2, 29180, Note_off_c, 0, 60, 100
2, 29180, Note_off_c, 0, 53, 100
2, 29184, Note_on_c, 0, 65, 80
2, 29184, Note_on_c, 0, 60, 80
2, 29184, Note_on_c, 0, 57, 80
2, 29564, Note_off_c, 0, 65, 100
2, 29564, Note_off_c, 0, 60, 100
2, 29564, Note_off_c, 0, 57, 100
2, 29568, Note_on_c, 0, 64, 80
2, 29568, Note_on_c, 0, 60, 80
2, 29568, Note_on_c, 0, 55, 80
2, 29756, Note_off_c, 0, 64, 100
2, 29756, Note_off_c, 0, 60, 100
2, 29756, Note_off_c, 0, 55, 100
2, 29952, Note_on_c, 0, 62, 80
2, 29952, Note_on_c, 0, 59, 80
2, 29952, Note_on_c, 0, 53, 80
2, 30140, Note_off_c, 0, 62, 100
2, 30140, Note_off_c, 0, 59, 100
2, 30140, Note_off_c, 0, 53, 100
2, 30336, Note_on_c, 0, 60, 80
2, 30336, Note_on_c, 0, 55, 80
2, 30336, Note_on_c, 0, 52, 80
2, 30524, Note_off_c, 0, 60, 100
2, 30524, Note_off_c, 0, 55, 100
2, 30524, Note_off_c, 0, 52, 100
2, 31008, Note_on_c, 0, 67, 80
2, 31100, Note_off_c, 0, 67, 100
2, 31104, Note_on_c, 0, 79, 80
2, 31104, Note_on_c, 0, 72, 80
2, 31484, Note_off_c, 0, 79, 100
2, 31484, Note_off_c, 0, 72, 100
2, 31488, Note_on_c, 0, 77, 80
2, 31488, Note_on_c, 0, 71, 80
2, 31868, Note_off_c, 0, 77, 100
2, 31868, Note_off_c, 0, 71, 100
2, 31872, Note_on_c, 0, 76, 80
2, 31872, Note_on_c, 0, 72, 80
2, 32252, Note_off_c, 0, 76, 100
2, 32252, Note_off_c, 0, 72, 100
2, 32256, Note_on_c, 0, 72, 80
2, 32256, Note_on_c, 0, 76, 80
2, 32304, Note_on_c, 0, 77, 80
2, 32348, Note_off_c, 0, 76, 100
2, 32352, Note_on_c, 0, 76, 80
2, 32396, Note_off_c, 0, 77, 100
2, 32400, Note_on_c, 0, 77, 80
2, 32444, Note_off_c, 0, 76, 100
2, 32448, Note_on_c, 0, 76, 80
2, 32492, Note_off_c, 0, 77, 100
2, 32496, Note_on_c, 0, 77, 80
2, 32540, Note_off_c, 0, 76, 100
2, 32544, Note_on_c, 0, 74, 80
2, 32588, Note_off_c, 0, 77, 100
2, 32592, Note_on_c, 0, 76, 80
2, 32636, Note_off_c, 0, 72, 100
2, 32636, Note_off_c, 0, 74, 100
2, 32636, Note_off_c, 0, 76, 100
2, 32640, Note_on_c, 0, 84, 80
2, 32640, Note_on_c, 0, 72, 80
2, 33020, Note_off_c, 0, 84, 100
2, 33020, Note_off_c, 0, 72, 100
2, 33024, Note_on_c, 0, 82, 80
2, 33024, Note_on_c, 0, 72, 80
2, 33404, Note_off_c, 0, 82, 100
2, 33404, Note_off_c, 0, 72, 100
2, 33408, Note_on_c, 0, 81, 80
2, 33408, Note_on_c, 0, 72, 80
2, 34076, Note_off_c, 0, 81, 100
2, 34076, Note_off_c, 0, 72, 100
2, 34080, Note_on_c, 0, 69, 80
2, 34172, Note_off_c, 0, 69, 100
2, 34176, Note_on_c, 0, 81, 80
2, 34176, Note_on_c, 0, 69, 80
2, 34556, Note_off_c, 0, 81, 100
2, 34556, Note_off_c, 0, 69, 100
2, 34560, Note_on_c, 0, 79, 82
2, 34560, Note_on_c, 0, 69, 82
2, 34940, Note_off_c, 0, 79, 100
2, 34940, Note_off_c, 0, 69, 100
2, 34944, Note_on_c, 0, 77, 85
2, 34944, Note_on_c, 0, 69, 85
2, 35324, Note_off_c, 0, 77, 100
2, 35324, Note_off_c, 0, 69, 100
2, 35328, Note_on_c, 0, 76, 87
2, 35328, Note_on_c, 0, 73, 87
2, 35328, Note_on_c, 0, 67, 87
2, 35708, Note_off_c, 0, 76, 100
2, 35708, Note_off_c, 0, 73, 100
2, 35708, Note_off_c, 0, 67, 100
2, 35712, Note_on_c, 0, 74, 90
2, 35712, Note_on_c, 0, 69, 90
2, 35712, Note_on_c, 0, 65, 90
2, 36092, Note_off_c, 0, 74, 100
2, 36092, Note_off_c, 0, 69, 100
2, 36092, Note_off_c, 0, 65, 100
2, 36096, Note_on_c, 0, 69, 92
2, 36096, Note_on_c, 0, 63, 92
2, 36096, Note_on_c, 0, 72, 92
2, 36476, Note_off_c, 0, 69, 100
2, 36476, Note_off_c, 0, 63, 100
2, 36480, Note_on_c, 0, 67, 95
2, 36480, Note_on_c, 0, 62, 95
2, 36860, Note_off_c, 0, 72, 100
2, 36860, Note_off_c, 0, 67, 100
2, 36860, Note_off_c, 0, 62, 100
2, 36864, Note_on_c, 0, 71, 98
2, 37244, Note_off_c, 0, 71, 100
2, 37248, Note_on_c, 0, 72, 80
2, 37248, Note_on_c, 0, 67, 80
2, 37436, Note_off_c, 0, 72, 100
2, 37436, Note_off_c, 0, 67, 100
2, 37632, Note_on_c, 0, 71, 80
2, 37632, Note_on_c, 0, 67, 80
2, 37632, Note_on_c, 0, 65, 80
2, 37820, Note_off_c, 0, 71, 100
2, 37820, Note_off_c, 0, 67, 100
2, 37820, Note_off_c, 0, 65, 100
2, 38016, Note_on_c, 0, 72, 80
2, 38016, Note_on_c, 0, 67, 80
2, 38016, Note_on_c, 0, 64, 80
2, 38204, Note_off_c, 0, 72, 100
2, 38204, Note_off_c, 0, 67, 100
2, 38204, Note_off_c, 0, 64, 100
2, 38400, Note_on_c, 0, 74, 80
2, 38400, Note_on_c, 0, 67, 80
2, 38400, Note_on_c, 0, 62, 80
2, 38588, Note_off_c, 0, 74, 100
2, 38588, Note_off_c, 0, 67, 100
2, 38588, Note_off_c, 0, 62, 100
2, 38784, Note_on_c, 0, 76, 80
2, 38784, Note_on_c, 0, 72, 80
2, 38784, Note_on_c, 0, 67, 80
2, 38784, Note_on_c, 0, 64, 80
2, 38972, Note_off_c, 0, 76, 100
2, 38972, Note_off_c, 0, 72, 100
2, 38972, Note_off_c, 0, 67, 100
2, 38972, Note_off_c, 0, 64, 100
2, 39168, Note_on_c, 0, 77, 80
2, 39168, Note_on_c, 0, 74, 80
2, 39168, Note_on_c, 0, 65, 80
2, 39168, Note_on_c, 0, 69, 80
2, 39356, Note_off_c, 0, 77, 100
2, 39356, Note_off_c, 0, 74, 100
2, 39356, Note_off_c, 0, 65, 100
2, 39356, Note_off_c, 0, 69, 100
2, 39552, Note_on_c, 0, 74, 80
2, 39552, Note_on_c, 0, 71, 80
2, 39552, Note_on_c, 0, 67, 80
2, 39552, Note_on_c, 0, 62, 80
2, 39740, Note_off_c, 0, 74, 100
2, 39740, Note_off_c, 0, 71, 100
2, 39740, Note_off_c, 0, 67, 100
2, 39740, Note_off_c, 0, 62, 100
2, 39936, Note_on_c, 0, 67, 100
2, 39936, Note_on_c, 0, 79, 100
2, 40700, Note_off_c, 0, 67, 100
2, 40700, Note_off_c, 0, 79, 100
2, 40704, Note_on_c, 0, 79, 100
2, 40704, Note_on_c, 0, 70, 100
2, 41084, Note_off_c, 0, 70, 100
2, 41088, Note_on_c, 0, 69, 100
2, 41468, Note_off_c, 0, 79, 100
2, 41472, Note_on_c, 0, 77, 100
2, 41852, Note_off_c, 0, 69, 100
2, 41852, Note_off_c, 0, 77, 100
2, 41856, Note_on_c, 0, 76, 80
2, 41856, Note_on_c, 0, 72, 80
2, 41856, Note_on_c, 0, 67, 80
2, 42044, Note_off_c, 0, 76, 100
2, 42044, Note_off_c, 0, 72, 100
2, 42044, Note_off_c, 0, 67, 100
2, 42240, Note_on_c, 0, 74, 80
2, 42240, Note_on_c, 0, 71, 80
2, 42240, Note_on_c, 0, 65, 80
2, 42428, Note_off_c, 0, 74, 100
2, 42428, Note_off_c, 0, 71, 100
2, 42428, Note_off_c, 0, 65, 100
2, 42624, Note_on_c, 0, 72, 80
2, 42624, Note_on_c, 0, 67, 80
2, 42624, Note_on_c, 0, 64, 80
2, 42812, Note_off_c, 0, 72, 100
2, 42812, Note_off_c, 0, 67, 100
2, 42812, Note_off_c, 0, 64, 100
2, 43392, Note_on_c, 0, 59, 80
2, 43392, Note_on_c, 0, 53, 80
2, 43392, Note_on_c, 0, 50, 80
2, 43580, Note_off_c, 0, 59, 100
2, 43580, Note_off_c, 0, 53, 100
2, 43580, Note_off_c, 0, 50, 100
2, 43776, Note_on_c, 0, 60, 100
2, 43776, Note_on_c, 0, 55, 100
2, 43776, Note_on_c, 0, 52, 100
2, 43964, Note_off_c, 0, 60, 100
2, 43964, Note_off_c, 0, 55, 100
2, 43964, Note_off_c, 0, 52, 100
2, 44160, Note_on_c, 0, 61, 80
2, 44160, Note_on_c, 0, 55, 80
2, 44160, Note_on_c, 0, 52, 80
2, 44348, Note_off_c, 0, 61, 100
2, 44348, Note_off_c, 0, 55, 100
2, 44348, Note_off_c, 0, 52, 100
2, 44544, Note_on_c, 0, 62, 100
2, 44544, Note_on_c, 0, 57, 100
2, 44544, Note_on_c, 0, 53, 100
2, 44732, Note_off_c, 0, 62, 100
2, 44732, Note_off_c, 0, 57, 100
2, 44732, Note_off_c, 0, 53, 100
2, 44928, Note_on_c, 0, 63, 80
2, 44928, Note_on_c, 0, 57, 80
2, 44928, Note_on_c, 0, 54, 80
2, 45116, Note_off_c, 0, 63, 100
2, 45116, Note_off_c, 0, 57, 100
2, 45116, Note_off_c, 0, 54, 100
2, 45312, Note_on_c, 0, 64, 100
2, 45312, Note_on_c, 0, 59, 100
2, 45312, Note_on_c, 0, 55, 100
2, 45500, Note_off_c, 0, 64, 100
2, 45500, Note_off_c, 0, 59, 100
2, 45500, Note_off_c, 0, 55, 100
2, 45696, Note_on_c, 0, 65, 100
2, 45696, Note_on_c, 0, 59, 100
2, 45696, Note_on_c, 0, 55, 100
2, 46844, Note_off_c, 0, 55, 100
2, 46844, Note_off_c, 0, 59, 100
2, 46844, Note_off_c, 0, 65, 100
2, 46848, Note_on_c, 0, 60, 80
2, 46848, Note_on_c, 0, 64, 80
2, 46848, Note_on_c, 0, 55, 80
2, 47228, Note_off_c, 0, 60, 100
2, 47228, Note_off_c, 0, 64, 100
2, 47228, Note_off_c, 0, 55, 100
2, 47232, Note_on_c, 0, 62, 80
2, 47232, Note_on_c, 0, 60, 80
2, 47232, Note_on_c, 0, 53, 80
2, 47612, Note_off_c, 0, 62, 100
2, 47612, Note_off_c, 0, 60, 100
2, 47612, Note_off_c, 0, 53, 100
2, 47616, Note_on_c, 0, 65, 80
2, 47616, Note_on_c, 0, 60, 80
2, 47616, Note_on_c, 0, 57, 80
2, 47996, Note_off_c, 0, 65, 100
2, 47996, Note_off_c, 0, 60, 100
2, 47996, Note_off_c, 0, 57, 100
2, 48000, Note_on_c, 0, 64, 80
2, 48000, Note_on_c, 0, 60, 80
2, 48000, Note_on_c, 0, 55, 80
2, 48188, Note_off_c, 0, 64, 100
2, 48188, Note_off_c, 0, 60, 100
2, 48188, Note_off_c, 0, 55, 100
2, 48384, Note_on_c, 0, 62, 80
2, 48384, Note_on_c, 0, 59, 80
2, 48384, Note_on_c, 0, 53, 80
2, 48572, Note_off_c, 0, 62, 100
2, 48572, Note_off_c, 0, 59, 100
2, 48572, Note_off_c, 0, 53, 100
2, 48768, Note_on_c, 0, 60, 80
2, 48768, Note_on_c, 0, 55, 80
2, 48768, Note_on_c, 0, 52, 80
2, 48956, Note_off_c, 0, 60, 100
2, 48956, Note_off_c, 0, 55, 100
2, 48956, Note_off_c, 0, 52, 100
2, 49728, Note_on_c, 0, 79, 80
2, 50108, Note_off_c, 0, 79, 100
2, 50112, Note_on_c, 0, 79, 80
2, 50492, Note_off_c, 0, 79, 100
2, 50496, Note_on_c, 0, 79, 80
2, 50876, Note_off_c, 0, 79, 100
2, 50880, Note_on_c, 0, 79, 80
2, 51260, Note_off_c, 0, 79, 100
2, 51264, Note_on_c, 0, 79, 80
2, 51644, Note_off_c, 0, 79, 100
2, 51648, Note_on_c, 0, 79, 80
2, 52028, Note_off_c, 0, 79, 100
2, 52032, Note_on_c, 0, 79, 80
2, 52220, Note_off_c, 0, 79, 100
2, 52224, Note_on_c, 0, 79, 80
2, 52412, Note_off_c, 0, 79, 100
2, 52416, Note_on_c, 0, 79, 80
2, 52604, Note_off_c, 0, 79, 100
2, 52800, Note_on_c, 0, 79, 80
2, 53180, Note_off_c, 0, 79, 100
2, 53184, Note_on_c, 0, 77, 80
2, 53564, Note_off_c, 0, 77, 100
2, 53568, Note_on_c, 0, 76, 80
2, 53948, Note_off_c, 0, 76, 100
2, 53952, Note_on_c, 0, 74, 80
2, 54332, Note_off_c, 0, 74, 100
2, 54336, Note_on_c, 0, 72, 80
2, 54528, Note_on_c, 0, 69, 80
2, 54716, Note_off_c, 0, 72, 100
2, 54720, Note_on_c, 0, 74, 80
2, 54908, Note_off_c, 0, 69, 100
2, 54908, Note_off_c, 0, 74, 100
2, 54912, Note_on_c, 0, 62, 80
2, 54912, Note_on_c, 0, 72, 80
2, 55100, Note_off_c, 0, 72, 100
2, 55104, Note_on_c, 0, 71, 80
2, 55292, Note_off_c, 0, 71, 100
2, 55296, Note_on_c, 0, 69, 80
2, 55484, Note_off_c, 0, 69, 100
2, 55488, Note_on_c, 0, 67, 80
2, 55676, Note_off_c, 0, 62, 100
2, 55676, Note_off_c, 0, 67, 100
2, 55680, Note_on_c, 0, 79, 80
2, 55868, Note_off_c, 0, 79, 100
2, 55872, Note_on_c, 0, 79, 80
2, 56252, Note_off_c, 0, 79, 100
2, 56256, Note_on_c, 0, 79, 80
2, 56636, Note_off_c, 0, 79, 100
2, 56640, Note_on_c, 0, 79, 80
2, 57020, Note_off_c, 0, 79, 100
2, 57024, Note_on_c, 0, 79, 80
2, 57404, Note_off_c, 0, 79, 100
2, 57408, Note_on_c, 0, 84, 80
2, 57596, Note_off_c, 0, 84, 100
2, 57600, Note_on_c, 0, 84, 83
2, 57788, Note_off_c, 0, 84, 100
2, 57792, Note_on_c, 0, 84, 86
2, 57980, Note_off_c, 0, 84, 100
2, 57984, Note_on_c, 0, 84, 89
2, 58172, Note_off_c, 0, 84, 100
2, 58176, Note_on_c, 0, 83, 93
2, 58364, Note_off_c, 0, 83, 100
2, 58368, Note_on_c, 0, 81, 96
2, 58556, Note_off_c, 0, 81, 100
2, 58560, Note_on_c, 0, 79, 99
2, 58748, Note_off_c, 0, 79, 100
2, 58944, Note_on_c, 0, 88, 110
2, 59132, Note_off_c, 0, 88, 100
2, 59136, Note_on_c, 0, 88, 110
2, 59324, Note_off_c, 0, 88, 100
2, 59328, Note_on_c, 0, 88, 110
2, 59516, Note_off_c, 0, 88, 100
2, 59520, Note_on_c, 0, 88, 110
2, 59708, Note_off_c, 0, 88, 100
2, 59712, Note_on_c, 0, 86, 110
2, 59900, Note_off_c, 0, 86, 100
2, 59904, Note_on_c, 0, 85, 110
2, 60092, Note_off_c, 0, 85, 100
2, 60096, Note_on_c, 0, 86, 110
2, 60476, Note_off_c, 0, 86, 100
2, 60480, Note_on_c, 0, 74, 110
2, 60668, Note_off_c, 0, 74, 100
2, 60672, Note_on_c, 0, 76, 110
2, 60860, Note_off_c, 0, 76, 100
2, 60864, Note_on_c, 0, 78, 100
2, 61244, Note_off_c, 0, 78, 100
2, 61248, Note_on_c, 0, 79, 91
2, 61436, Note_off_c, 0, 79, 100
2, 61440, Note_on_c, 0, 74, 86
2, 61628, Note_off_c, 0, 74, 100
2, 61632, Note_on_c, 0, 71, 81
2, 61820, Note_off_c, 0, 71, 100
2, 62016, Note_on_c, 0, 79, 80
2, 62396, Note_off_c, 0, 79, 100
2, 62400, Note_on_c, 0, 79, 80
2, 62780, Note_off_c, 0, 79, 100
2, 62784, Note_on_c, 0, 79, 80
2, 63164, Note_off_c, 0, 79, 100
2, 63168, Note_on_c, 0, 79, 80
2, 63360, Note_on_c, 0, 72, 80
2, 63548, Note_off_c, 0, 79, 100
2, 63552, Note_on_c, 0, 77, 80
2, 63740, Note_off_c, 0, 72, 100
2, 63744, Note_on_c, 0, 70, 80
2, 63932, Note_off_c, 0, 77, 100
2, 63936, Note_on_c, 0, 76, 80
2, 64124, Note_off_c, 0, 70, 100
2, 64128, Note_on_c, 0, 69, 80
2, 64316, Note_off_c, 0, 76, 100
2, 64320, Note_on_c, 0, 77, 80
2, 64508, Note_off_c, 0, 77, 100
2, 64512, Note_on_c, 0, 79, 80
2, 64700, Note_off_c, 0, 79, 100
2, 64704, Note_on_c, 0, 80, 80
2, 64892, Note_off_c, 0, 69, 100
2, 64892, Note_off_c, 0, 80, 100
2, 64896, Note_on_c, 0, 81, 80
2, 65084, Note_off_c, 0, 81, 100
2, 65088, Note_on_c, 0, 81, 81
2, 65468, Note_off_c, 0, 81, 100
2, 65472, Note_on_c, 0, 81, 85
2, 65852, Note_off_c, 0, 81, 100
2, 65856, Note_on_c, 0, 81, 89
2, 66236, Note_off_c, 0, 81, 100
2, 66240, Note_on_c, 0, 81, 92
2, 66620, Note_off_c, 0, 81, 100
2, 66624, Note_on_c, 0, 86, 96
2, 67004, Note_off_c, 0, 86, 100
2, 67008, Note_on_c, 0, 74, 99
2, 67388, Note_off_c, 0, 74, 100
2, 67392, Note_on_c, 0, 79, 110
2, 67772, Note_off_c, 0, 79, 100
2, 67776, Note_on_c, 0, 77, 87
2, 67868, Note_off_c, 0, 77, 100
2, 67872, Note_on_c, 0, 74, 81
2, 67964, Note_off_c, 0, 74, 100
2, 67968, Note_on_c, 0, 72, 80
2, 68156, Note_off_c, 0, 72, 100
2, 68160, Note_on_c, 0, 79, 80
2, 68540, Note_off_c, 0, 79, 100
2, 68544, Note_on_c, 0, 79, 80
2, 68924, Note_off_c, 0, 79, 100
2, 68928, Note_on_c, 0, 79, 80
2, 69308, Note_off_c, 0, 79, 100
2, 69312, Note_on_c, 0, 79, 80
2, 69692, Note_off_c, 0, 79, 100
2, 69696, Note_on_c, 0, 79, 80
2, 70076, Note_off_c, 0, 79, 100
2, 70080, Note_on_c, 0, 79, 80
2, 70460, Note_off_c, 0, 79, 100
2, 70464, Note_on_c, 0, 79, 80
2, 70844, Note_off_c, 0, 79, 100
2, 70848, Note_on_c, 0, 71, 80
2, 71228, Note_off_c, 0, 71, 100
2, 71232, Note_on_c, 0, 72, 83
2, 71612, Note_off_c, 0, 72, 100
2, 71616, Note_on_c, 0, 73, 91
2, 71996, Note_off_c, 0, 73, 100
2, 72000, Note_on_c, 0, 74, 98
2, 72380, Note_off_c, 0, 74, 100
2, 72384, Note_on_c, 0, 81, 106
2, 72764, Note_off_c, 0, 81, 100
2, 72768, Note_on_c, 0, 72, 80
2, 73148, Note_off_c, 0, 72, 100
2, 73152, Note_on_c, 0, 71, 80
2, 73340, Note_off_c, 0, 71, 100
2, 73344, Note_on_c, 0, 72, 80
2, 73532, Note_off_c, 0, 72, 100
2, 73536, Note_on_c, 0, 67, 80
2, 73724, Note_off_c, 0, 67, 100
2, 73728, Note_on_c, 0, 64, 80
2, 73916, Note_off_c, 0, 64, 100
2, 73920, Note_on_c, 0, 60, 80
2, 74108, Note_off_c, 0, 60, 100
2, 74304, Note_on_c, 0, 53, 100
2, 74304, Note_on_c, 0, 50, 100
2, 74304, Note_on_c, 0, 59, 100
2, 74684, Note_off_c, 0, 53, 100
2, 74684, Note_off_c, 0, 50, 100
2, 74684, Note_off_c, 0, 59, 100
2, 74688, Note_on_c, 0, 60, 80
2, 74688, Note_on_c, 0, 55, 80
2, 74688, Note_on_c, 0, 52, 80
2, 74876, Note_off_c, 0, 60, 100
2, 74876, Note_off_c, 0, 55, 100
2, 74876, Note_off_c, 0, 52, 100
2, 75072, Note_on_c, 0, 61, 100
2, 75072, Note_on_c, 0, 55, 100
2, 75072, Note_on_c, 0, 52, 100
2, 75452, Note_off_c, 0, 61, 100
2, 75452, Note_off_c, 0, 55, 100
2, 75452, Note_off_c, 0, 52, 100
2, 75456, Note_on_c, 0, 62, 80
2, 75456, Note_on_c, 0, 57, 80
2, 75456, Note_on_c, 0, 53, 80
2, 75644, Note_off_c, 0, 62, 100
2, 75644, Note_off_c, 0, 57, 100
2, 75644, Note_off_c, 0, 53, 100
2, 75840, Note_on_c, 0, 63, 100
2, 75840, Note_on_c, 0, 57, 100
2, 75840, Note_on_c, 0, 53, 100
2, 76220, Note_off_c, 0, 63, 100
2, 76220, Note_off_c, 0, 57, 100
2, 76220, Note_off_c, 0, 53, 100
2, 76224, Note_on_c, 0, 64, 80
2, 76224, Note_on_c, 0, 59, 80
2, 76224, Note_on_c, 0, 55, 80
2, 76412, Note_off_c, 0, 64, 100
2, 76412, Note_off_c, 0, 59, 100
2, 76412, Note_off_c, 0, 55, 100
2, 76608, Note_on_c, 0, 65, 100
2, 76608, Note_on_c, 0, 59, 100
2, 76608, Note_on_c, 0, 55, 100
2, 76988, Note_off_c, 0, 65, 100
2, 76988, Note_off_c, 0, 59, 100
2, 76988, Note_off_c, 0, 55, 100
2, 76992, Note_on_c, 0, 65, 80
2, 76992, Note_on_c, 0, 59, 80
2, 76992, Note_on_c, 0, 55, 80
2, 77372, Note_off_c, 0, 55, 100
2, 77372, Note_off_c, 0, 59, 100
2, 77372, Note_off_c, 0, 65, 100
2, 77376, Note_on_c, 0, 65, 86
2, 77376, Note_on_c, 0, 59, 86
2, 77376, Note_on_c, 0, 55, 86
2, 77756, Note_off_c, 0, 65, 100
2, 77756, Note_off_c, 0, 59, 100
2, 77756, Note_off_c, 0, 55, 100
2, 77760, Note_on_c, 0, 64, 93
2, 77760, Note_on_c, 0, 60, 93
2, 77760, Note_on_c, 0, 57, 93
2, 78140, Note_off_c, 0, 64, 100
2, 78140, Note_off_c, 0, 60, 100
2, 78140, Note_off_c, 0, 57, 100
2, 78144, Note_on_c, 0, 62, 100
2, 78144, Note_on_c, 0, 60, 100
2, 78144, Note_on_c, 0, 53, 100
2, 78524, Note_off_c, 0, 62, 100
2, 78524, Note_off_c, 0, 60, 100
2, 78524, Note_off_c, 0, 53, 100
2, 78528, Note_on_c, 0, 65, 106
2, 78528, Note_on_c, 0, 60, 106
2, 78528, Note_on_c, 0, 57, 106
2, 78908, Note_off_c, 0, 57, 100
2, 78908, Note_off_c, 0, 60, 100
2, 78908, Note_off_c, 0, 65, 100
2, 78912, Note_on_c, 0, 64, 80
2, 78912, Note_on_c, 0, 60, 80
2, 78912, Note_on_c, 0, 55, 80
2, 79292, Note_off_c, 0, 64, 100
2, 79292, Note_off_c, 0, 60, 100
2, 79292, Note_off_c, 0, 55, 100
2, 79296, Note_on_c, 0, 62, 80
2, 79296, Note_on_c, 0, 59, 80
2, 79296, Note_on_c, 0, 53, 80
2, 79484, Note_off_c, 0, 62, 100
2, 79484, Note_off_c, 0, 59, 100
2, 79484, Note_off_c, 0, 53, 100
2, 79488, Note_on_c, 0, 60, 80
2, 79488, Note_on_c, 0, 55, 80
2, 79488, Note_on_c, 0, 52, 80
2, 79868, Note_off_c, 0, 60, 100
2, 79868, Note_off_c, 0, 55, 100
2, 79868, Note_off_c, 0, 52, 100
2, 80064, Note_on_c, 0, 67, 80
2, 80252, Note_off_c, 0, 67, 100
2, 80256, Note_on_c, 0, 79, 80
2, 80444, Note_off_c, 0, 79, 100
2, 80448, Note_on_c, 0, 79, 80
2, 80828, Note_off_c, 0, 79, 100
2, 80832, Note_on_c, 0, 79, 80
2, 81212, Note_off_c, 0, 79, 100
2, 81216, Note_on_c, 0, 79, 80
2, 81596, Note_off_c, 0, 79, 100
2, 81600, Note_on_c, 0, 79, 80
2, 81792, Note_on_c, 0, 72, 80
2, 81980, Note_off_c, 0, 79, 100
2, 81984, Note_on_c, 0, 77, 80
2, 82172, Note_off_c, 0, 72, 100
2, 82176, Note_on_c, 0, 70, 80
2, 82364, Note_off_c, 0, 77, 100
2, 82368, Note_on_c, 0, 76, 80
2, 82556, Note_off_c, 0, 70, 100
2, 82560, Note_on_c, 0, 69, 80
2, 82748, Note_off_c, 0, 76, 100
2, 82752, Note_on_c, 0, 77, 80
2, 82940, Note_off_c, 0, 77, 100
2, 82944, Note_on_c, 0, 79, 80
2, 83132, Note_off_c, 0, 79, 100
2, 83136, Note_on_c, 0, 80, 80
2, 83324, Note_off_c, 0, 69, 100
2, 83324, Note_off_c, 0, 80, 100
2, 83328, Note_on_c, 0, 81, 80
2, 83516, Note_off_c, 0, 81, 100
2, 83520, Note_on_c, 0, 81, 82
2, 83900, Note_off_c, 0, 81, 100
2, 83904, Note_on_c, 0, 81, 87
2, 84284, Note_off_c, 0, 81, 100
2, 84288, Note_on_c, 0, 81, 92
2, 84668, Note_off_c, 0, 81, 100
2, 84672, Note_on_c, 0, 81, 97
2, 85052, Note_off_c, 0, 81, 100
2, 85056, Note_on_c, 0, 86, 102
2, 85436, Note_off_c, 0, 86, 100
2, 85440, Note_on_c, 0, 74, 107
2, 85820, Note_off_c, 0, 74, 100
2, 85824, Note_on_c, 0, 79, 110
2, 86204, Note_off_c, 0, 79, 100
2, 86208, Note_on_c, 0, 77, 87
2, 86300, Note_off_c, 0, 77, 100
2, 86304, Note_on_c, 0, 74, 81
2, 86396, Note_off_c, 0, 74, 100
2, 86400, Note_on_c, 0, 72, 80
2, 86588, Note_off_c, 0, 72, 100
2, 86592, Note_on_c, 0, 79, 80
2, 86972, Note_off_c, 0, 79, 100
2, 86976, Note_on_c, 0, 79, 80
2, 87356, Note_off_c, 0, 79, 100
2, 87360, Note_on_c, 0, 79, 80
2, 87740, Note_off_c, 0, 79, 100
2, 87744, Note_on_c, 0, 79, 80
2, 88124, Note_off_c, 0, 79, 100
2, 88128, Note_on_c, 0, 79, 80
2, 88508, Note_off_c, 0, 79, 100
2, 88512, Note_on_c, 0, 79, 80
2, 88892, Note_off_c, 0, 79, 100
2, 88896, Note_on_c, 0, 79, 80
2, 89276, Note_off_c, 0, 79, 100
2, 89280, Note_on_c, 0, 71, 80
2, 89660, Note_off_c, 0, 71, 100
2, 89664, Note_on_c, 0, 72, 80
2, 90044, Note_off_c, 0, 72, 100
2, 90048, Note_on_c, 0, 73, 80
2, 90428, Note_off_c, 0, 73, 100
2, 90432, Note_on_c, 0, 74, 80
2, 90812, Note_off_c, 0, 74, 100
2, 90816, Note_on_c, 0, 81, 80
2, 91196, Note_off_c, 0, 81, 100
2, 91200, Note_on_c, 0, 72, 80
2, 91580, Note_off_c, 0, 72, 100
2, 91584, Note_on_c, 0, 71, 80
2, 91772, Note_off_c, 0, 71, 100
2, 91776, Note_on_c, 0, 72, 80
2, 91964, Note_off_c, 0, 72, 100
2, 91968, Note_on_c, 0, 67, 80
2, 92156, Note_off_c, 0, 67, 100
2, 92160, Note_on_c, 0, 64, 80
2, 92348, Note_off_c, 0, 64, 100
2, 92352, Note_on_c, 0, 60, 80
2, 92540, Note_off_c, 0, 60, 100
2, 92736, Note_on_c, 0, 53, 100
2, 92736, Note_on_c, 0, 50, 100
2, 92736, Note_on_c, 0, 59, 100
2, 93116, Note_off_c, 0, 53, 100
2, 93116, Note_off_c, 0, 50, 100
2, 93116, Note_off_c, 0, 59, 100
2, 93120, Note_on_c, 0, 60, 80
2, 93120, Note_on_c, 0, 55, 80
2, 93120, Note_on_c, 0, 52, 80
2, 93308, Note_off_c, 0, 60, 100
2, 93308, Note_off_c, 0, 55, 100
2, 93308, Note_off_c, 0, 52, 100
2, 93504, Note_on_c, 0, 61, 100
2, 93504, Note_on_c, 0, 55, 100
2, 93504, Note_on_c, 0, 52, 100
2, 93884, Note_off_c, 0, 61, 100
2, 93884, Note_off_c, 0, 55, 100
2, 93884, Note_off_c, 0, 52, 100
2, 93888, Note_on_c, 0, 62, 80
2, 93888, Note_on_c, 0, 57, 80
2, 93888, Note_on_c, 0, 53, 80
2, 94076, Note_off_c, 0, 62, 100
2, 94076, Note_off_c, 0, 57, 100
2, 94076, Note_off_c, 0, 53, 100
2, 94272, Note_on_c, 0, 63, 100
2, 94272, Note_on_c, 0, 57, 100
2, 94272, Note_on_c, 0, 53, 100
2, 94652, Note_off_c, 0, 63, 100
2, 94652, Note_off_c, 0, 57, 100
2, 94652, Note_off_c, 0, 53, 100
2, 94656, Note_on_c, 0, 64, 80
2, 94656, Note_on_c, 0, 59, 80
2, 94656, Note_on_c, 0, 55, 80
2, 94844, Note_off_c, 0, 64, 100
2, 94844, Note_off_c, 0, 59, 100
2, 94844, Note_off_c, 0, 55, 100
2, 95040, Note_on_c, 0, 65, 100
2, 95040, Note_on_c, 0, 59, 100
2, 95040, Note_on_c, 0, 55, 100
2, 95420, Note_off_c, 0, 65, 100
2, 95420, Note_off_c, 0, 59, 100
2, 95420, Note_off_c, 0, 55, 100
2, 95424, Note_on_c, 0, 65, 100
2, 95424, Note_on_c, 0, 59, 100
2, 95424, Note_on_c, 0, 55, 100
2, 95804, Note_off_c, 0, 55, 100
2, 95804, Note_off_c, 0, 59, 100
2, 95804, Note_off_c, 0, 65, 100
2, 95808, Note_on_c, 0, 65, 80
2, 95808, Note_on_c, 0, 59, 80
2, 95808, Note_on_c, 0, 55, 80
2, 96188, Note_off_c, 0, 65, 100
2, 96188, Note_off_c, 0, 59, 100
2, 96188, Note_off_c, 0, 55, 100
2, 96192, Note_on_c, 0, 64, 80
2, 96192, Note_on_c, 0, 60, 80
2, 96192, Note_on_c, 0, 57, 80
2, 96572, Note_off_c, 0, 64, 100
2, 96572, Note_off_c, 0, 60, 100
2, 96572, Note_off_c, 0, 57, 100
2, 96576, Note_on_c, 0, 62, 80
2, 96576, Note_on_c, 0, 60, 80
2, 96576, Note_on_c, 0, 53, 80
2, 96956, Note_off_c, 0, 62, 100
2, 96956, Note_off_c, 0, 60, 100
2, 96956, Note_off_c, 0, 53, 100
2, 96960, Note_on_c, 0, 65, 80
2, 96960, Note_on_c, 0, 60, 80
2, 96960, Note_on_c, 0, 57, 80
2, 97340, Note_off_c, 0, 57, 100
2, 97340, Note_off_c, 0, 60, 100
2, 97340, Note_off_c, 0, 65, 100
2, 97344, Note_on_c, 0, 64, 80
2, 97344, Note_on_c, 0, 60, 80
2, 97344, Note_on_c, 0, 55, 80
2, 97724, Note_off_c, 0, 64, 100
2, 97724, Note_off_c, 0, 60, 100
2, 97724, Note_off_c, 0, 55, 100
2, 97728, Note_on_c, 0, 62, 80
2, 97728, Note_on_c, 0, 59, 80
2, 97728, Note_on_c, 0, 53, 80
2, 97916, Note_off_c, 0, 62, 100
2, 97916, Note_off_c, 0, 59, 100
2, 97916, Note_off_c, 0, 53, 100
2, 97920, Note_on_c, 0, 60, 80
2, 97920, Note_on_c, 0, 55, 80
2, 97920, Note_on_c, 0, 52, 80
2, 98300, Note_off_c, 0, 60, 100
2, 98300, Note_off_c, 0, 55, 100
2, 98300, Note_off_c, 0, 52, 100
2, 98496, Note_on_c, 0, 67, 80
2, 98684, Note_off_c, 0, 67, 100
2, 98688, Note_on_c, 0, 72, 80
2, 98876, Note_off_c, 0, 72, 100
2, 98880, Note_on_c, 0, 72, 80
2, 98880, Note_on_c, 0, 67, 80
2, 99068, Note_off_c, 0, 72, 100
2, 99068, Note_off_c, 0, 67, 100
2, 99264, Note_on_c, 0, 71, 80
2, 99264, Note_on_c, 0, 67, 80
2, 99264, Note_on_c, 0, 65, 80
2, 99452, Note_off_c, 0, 71, 100
2, 99452, Note_off_c, 0, 67, 100
2, 99452, Note_off_c, 0, 65, 100
2, 99648, Note_on_c, 0, 72, 80
2, 99648, Note_on_c, 0, 67, 80
2, 99648, Note_on_c, 0, 64, 80
2, 99836, Note_off_c, 0, 72, 100
2, 99836, Note_off_c, 0, 67, 100
2, 99836, Note_off_c, 0, 64, 100
2, 100032, Note_on_c, 0, 74, 80
2, 100032, Note_on_c, 0, 67, 80
2, 100032, Note_on_c, 0, 65, 80
2, 100220, Note_off_c, 0, 74, 100
2, 100220, Note_off_c, 0, 67, 100
2, 100220, Note_off_c, 0, 65, 100
2, 100416, Note_on_c, 0, 76, 80
2, 100416, Note_on_c, 0, 72, 80
2, 100416, Note_on_c, 0, 67, 80
2, 100604, Note_off_c, 0, 76, 100
2, 100604, Note_off_c, 0, 72, 100
2, 100604, Note_off_c, 0, 67, 100
2, 100800, Note_on_c, 0, 77, 80
2, 100800, Note_on_c, 0, 72, 80
2, 100800, Note_on_c, 0, 65, 80
2, 100988, Note_off_c, 0, 77, 100
2, 100988, Note_off_c, 0, 72, 100
2, 100988, Note_off_c, 0, 65, 100
2, 101184, Note_on_c, 0, 74, 80
2, 101184, Note_on_c, 0, 72, 80
2, 101184, Note_on_c, 0, 65, 80
2, 101372, Note_off_c, 0, 74, 100
2, 101372, Note_off_c, 0, 72, 100
2, 101372, Note_off_c, 0, 65, 100
2, 101568, Note_on_c, 0, 74, 80
2, 101568, Note_on_c, 0, 71, 80
2, 101568, Note_on_c, 0, 65, 80
2, 101756, Note_off_c, 0, 74, 100
2, 101756, Note_off_c, 0, 71, 100
2, 101756, Note_off_c, 0, 65, 100
2, 101952, Note_on_c, 0, 79, 80
2, 101952, Note_on_c, 0, 74, 80
2, 101952, Note_on_c, 0, 71, 80
2, 101952, Note_on_c, 0, 67, 80
2, 102140, Note_off_c, 0, 79, 100
2, 102140, Note_off_c, 0, 74, 100
2, 102140, Note_off_c, 0, 71, 100
2, 102140, Note_off_c, 0, 67, 100
2, 102336, Note_on_c, 0, 79, 80
2, 102336, Note_on_c, 0, 72, 80
2, 102336, Note_on_c, 0, 67, 80
2, 102524, Note_off_c, 0, 79, 100
2, 102524, Note_off_c, 0, 72, 100
2, 102524, Note_off_c, 0, 67, 100
2, 102720, Note_on_c, 0, 79, 80
2, 102720, Note_on_c, 0, 77, 80
2, 102720, Note_on_c, 0, 71, 80
2, 102908, Note_off_c, 0, 79, 100
2, 102908, Note_off_c, 0, 77, 100
2, 102908, Note_off_c, 0, 71, 100
2, 103104, Note_on_c, 0, 80, 80
2, 103104, Note_on_c, 0, 76, 80
2, 103104, Note_on_c, 0, 70, 80
2, 103292, Note_off_c, 0, 80, 100
2, 103292, Note_off_c, 0, 76, 100
2, 103292, Note_off_c, 0, 70, 100
2, 103488, Note_on_c, 0, 81, 80
2, 103488, Note_on_c, 0, 77, 80
2, 103488, Note_on_c, 0, 69, 80
2, 103676, Note_off_c, 0, 81, 100
2, 103676, Note_off_c, 0, 77, 100
2, 103676, Note_off_c, 0, 69, 100
2, 103872, Note_on_c, 0, 81, 80
2, 103872, Note_on_c, 0, 77, 80
2, 103872, Note_on_c, 0, 69, 80
2, 104060, Note_off_c, 0, 81, 100
2, 104060, Note_off_c, 0, 77, 100
2, 104060, Note_off_c, 0, 69, 100
2, 104256, Note_on_c, 0, 74, 100
2, 104256, Note_on_c, 0, 71, 100
2, 104256, Note_on_c, 0, 68, 100
2, 104636, Note_off_c, 0, 68, 100
2, 104640, Note_on_c, 0, 67, 80
2, 104732, Note_off_c, 0, 67, 100
2, 104736, Note_on_c, 0, 65, 80
2, 104828, Note_off_c, 0, 74, 100
2, 104828, Note_off_c, 0, 71, 100
2, 104828, Note_off_c, 0, 65, 100
2, 105024, Note_on_c, 0, 72, 80
2, 105024, Note_on_c, 0, 67, 80
2, 105212, Note_off_c, 0, 72, 100
2, 105212, Note_off_c, 0, 67, 100
2, 105408, Note_on_c, 0, 71, 80
2, 105408, Note_on_c, 0, 67, 80
2, 105408, Note_on_c, 0, 65, 80
2, 105596, Note_off_c, 0, 71, 100
2, 105596, Note_off_c, 0, 67, 100
2, 105596, Note_off_c, 0, 65, 100
2, 105792, Note_on_c, 0, 72, 80
2, 105792, Note_on_c, 0, 67, 80
2, 105792, Note_on_c, 0, 64, 80
2, 105980, Note_off_c, 0, 72, 100
2, 105980, Note_off_c, 0, 67, 100
2, 105980, Note_off_c, 0, 64, 100
2, 106176, Note_on_c, 0, 74, 80
2, 106176, Note_on_c, 0, 67, 80
2, 106176, Note_on_c, 0, 62, 80
2, 106364, Note_off_c, 0, 74, 100
2, 106364, Note_off_c, 0, 67, 100
2, 106364, Note_off_c, 0, 62, 100
2, 106560, Note_on_c, 0, 76, 80
2, 106560, Note_on_c, 0, 72, 80
2, 106560, Note_on_c, 0, 67, 80
2, 106560, Note_on_c, 0, 64, 80
2, 106748, Note_off_c, 0, 76, 100
2, 106748, Note_off_c, 0, 72, 100
2, 106748, Note_off_c, 0, 67, 100
2, 106748, Note_off_c, 0, 64, 100
2, 106944, Note_on_c, 0, 78, 80
2, 106944, Note_on_c, 0, 75, 80
2, 106944, Note_on_c, 0, 72, 80
2, 106944, Note_on_c, 0, 66, 80
2, 107132, Note_off_c, 0, 78, 100
2, 107132, Note_off_c, 0, 75, 100
2, 107132, Note_off_c, 0, 72, 100
2, 107132, Note_off_c, 0, 66, 100
2, 107328, Note_on_c, 0, 79, 100
2, 107328, Note_on_c, 0, 67, 100
2, 107328, Note_on_c, 0, 74, 100
2, 107708, Note_off_c, 0, 79, 100
2, 107708, Note_off_c, 0, 67, 100
2, 107708, Note_off_c, 0, 74, 100
2, 107712, Note_on_c, 0, 79, 80
2, 107712, Note_on_c, 0, 74, 80
2, 107712, Note_on_c, 0, 67, 80
2, 107900, Note_off_c, 0, 79, 100
2, 107900, Note_off_c, 0, 74, 100
2, 107900, Note_off_c, 0, 67, 100
2, 108096, Note_on_c, 0, 81, 80
2, 108096, Note_on_c, 0, 79, 80
2, 108096, Note_on_c, 0, 76, 80
2, 108096, Note_on_c, 0, 69, 80
2, 108284, Note_off_c, 0, 81, 100
2, 108284, Note_off_c, 0, 79, 100
2, 108284, Note_off_c, 0, 76, 100
2, 108284, Note_off_c, 0, 69, 100
2, 108480, Note_on_c, 0, 82, 80
2, 108480, Note_on_c, 0, 79, 80
2, 108480, Note_on_c, 0, 76, 80
2, 108480, Note_on_c, 0, 70, 80
2, 108668, Note_off_c, 0, 82, 100
2, 108668, Note_off_c, 0, 79, 100
2, 108668, Note_off_c, 0, 76, 100
2, 108668, Note_off_c, 0, 70, 100
2, 108864, Note_on_c, 0, 83, 100
2, 108864, Note_on_c, 0, 79, 100
2, 108864, Note_on_c, 0, 74, 100
2, 108864, Note_on_c, 0, 71, 100
2, 109244, Note_off_c, 0, 83, 100
2, 109244, Note_off_c, 0, 79, 100
2, 109244, Note_off_c, 0, 74, 100
2, 109244, Note_off_c, 0, 71, 100
2, 109248, Note_on_c, 0, 83, 80
2, 109248, Note_on_c, 0, 79, 80
2, 109248, Note_on_c, 0, 74, 80
2, 109248, Note_on_c, 0, 71, 80
2, 109436, Note_off_c, 0, 83, 100
2, 109436, Note_off_c, 0, 79, 100
2, 109436, Note_off_c, 0, 74, 100
2, 109436, Note_off_c, 0, 71, 100
2, 109632, Note_on_c, 0, 84, 80
2, 109632, Note_on_c, 0, 78, 80
2, 109632, Note_on_c, 0, 72, 80
2, 109820, Note_off_c, 0, 84, 100
2, 109820, Note_off_c, 0, 78, 100
2, 109820, Note_off_c, 0, 72, 100
2, 110016, Note_on_c, 0, 81, 80
2, 110016, Note_on_c, 0, 78, 80
2, 110016, Note_on_c, 0, 72, 80
2, 110204, Note_off_c, 0, 81, 100
2, 110204, Note_off_c, 0, 78, 100
2, 110204, Note_off_c, 0, 72, 100
2, 110400, Note_on_c, 0, 79, 105
2, 110780, Note_off_c, 0, 79, 100
2, 110784, Note_on_c, 0, 74, 80
2, 110844, Note_off_c, 0, 74, 100
2, 110848, Note_on_c, 0, 71, 80
2, 110908, Note_off_c, 0, 71, 100
2, 110912, Note_on_c, 0, 67, 80
2, 110972, Note_off_c, 0, 67, 100
2, 111168, Note_on_c, 0, 79, 80
2, 111168, Note_on_c, 0, 73, 80
2, 111168, Note_on_c, 0, 70, 80
2, 111168, Note_on_c, 0, 67, 80
2, 111356, Note_off_c, 0, 79, 100
2, 111356, Note_off_c, 0, 73, 100
2, 111356, Note_off_c, 0, 70, 100
2, 111356, Note_off_c, 0, 67, 100
2, 111552, Note_on_c, 0, 77, 80
2, 111552, Note_on_c, 0, 73, 80
2, 111552, Note_on_c, 0, 70, 80
2, 111552, Note_on_c, 0, 67, 80
2, 111740, Note_off_c, 0, 77, 100
2, 111740, Note_off_c, 0, 73, 100
2, 111740, Note_off_c, 0, 70, 100
2, 111740, Note_off_c, 0, 67, 100
2, 111936, Note_on_c, 0, 76, 80
2, 111936, Note_on_c, 0, 73, 80
2, 111936, Note_on_c, 0, 70, 80
2, 111936, Note_on_c, 0, 67, 80
2, 112124, Note_off_c, 0, 76, 100
2, 112124, Note_off_c, 0, 73, 100
2, 112124, Note_off_c, 0, 70, 100
2, 112124, Note_off_c, 0, 67, 100
2, 112320, Note_on_c, 0, 76, 80
2, 112320, Note_on_c, 0, 72, 80
2, 112320, Note_on_c, 0, 70, 80
2, 112320, Note_on_c, 0, 67, 80
2, 112508, Note_off_c, 0, 76, 100
2, 112508, Note_off_c, 0, 72, 100
2, 112508, Note_off_c, 0, 70, 100
2, 112508, Note_off_c, 0, 67, 100
2, 112704, Note_on_c, 0, 84, 80
2, 112704, Note_on_c, 0, 77, 80
2, 112704, Note_on_c, 0, 72, 80
2, 112892, Note_off_c, 0, 84, 100
2, 112892, Note_off_c, 0, 77, 100
2, 112892, Note_off_c, 0, 72, 100
2, 113088, Note_on_c, 0, 82, 80
2, 113088, Note_on_c, 0, 76, 80
2, 113088, Note_on_c, 0, 72, 80
2, 113088, Note_on_c, 0, 70, 80
2, 113276, Note_off_c, 0, 82, 100
2, 113276, Note_off_c, 0, 76, 100
2, 113276, Note_off_c, 0, 72, 100
2, 113276, Note_off_c, 0, 70, 100
2, 113472, Note_on_c, 0, 81, 80
2, 113472, Note_on_c, 0, 77, 80
2, 113472, Note_on_c, 0, 72, 80
2, 113472, Note_on_c, 0, 69, 80
2, 113660, Note_off_c, 0, 81, 100
2, 113660, Note_off_c, 0, 77, 100
2, 113660, Note_off_c, 0, 72, 100
2, 113660, Note_off_c, 0, 69, 100
2, 113856, Note_on_c, 0, 81, 80
2, 113856, Note_on_c, 0, 77, 80
2, 113856, Note_on_c, 0, 73, 80
2, 113856, Note_on_c, 0, 69, 80
2, 114044, Note_off_c, 0, 81, 100
2, 114044, Note_off_c, 0, 77, 100
2, 114044, Note_off_c, 0, 73, 100
2, 114044, Note_off_c, 0, 69, 100
2, 114240, Note_on_c, 0, 81, 82
2, 114240, Note_on_c, 0, 77, 82
2, 114240, Note_on_c, 0, 74, 82
2, 114240, Note_on_c, 0, 69, 82
2, 114428, Note_off_c, 0, 81, 100
2, 114428, Note_off_c, 0, 77, 100
2, 114428, Note_off_c, 0, 74, 100
2, 114428, Note_off_c, 0, 69, 100
2, 114624, Note_on_c, 0, 79, 86
2, 114624, Note_on_c, 0, 76, 86
2, 114624, Note_on_c, 0, 73, 86
2, 114624, Note_on_c, 0, 70, 86
2, 114624, Note_on_c, 0, 67, 86
2, 114812, Note_off_c, 0, 79, 100
2, 114812, Note_off_c, 0, 76, 100
2, 114812, Note_off_c, 0, 73, 100
2, 114812, Note_off_c, 0, 70, 100
2, 114812, Note_off_c, 0, 67, 100
2, 115008, Note_on_c, 0, 77, 91
2, 115008, Note_on_c, 0, 74, 91
2, 115008, Note_on_c, 0, 69, 91
2, 115008, Note_on_c, 0, 65, 91
2, 115196, Note_off_c, 0, 77, 100
2, 115196, Note_off_c, 0, 74, 100
2, 115196, Note_off_c, 0, 69, 100
2, 115196, Note_off_c, 0, 65, 100
2, 115392, Note_on_c, 0, 76, 96
2, 115392, Note_on_c, 0, 73, 96
2, 115392, Note_on_c, 0, 70, 96
2, 115392, Note_on_c, 0, 67, 96
2, 115392, Note_on_c, 0, 64, 96
2, 115580, Note_off_c, 0, 76, 100
2, 115580, Note_off_c, 0, 73, 100
2, 115580, Note_off_c, 0, 70, 100
2, 115580, Note_off_c, 0, 67, 100
2, 115580, Note_off_c, 0, 64, 100
2, 115776, Note_on_c, 0, 74, 100
2, 115776, Note_on_c, 0, 69, 100
2, 115776, Note_on_c, 0, 65, 100
2, 115776, Note_on_c, 0, 62, 100
2, 115964, Note_off_c, 0, 74, 100
2, 115964, Note_off_c, 0, 69, 100
2, 115964, Note_off_c, 0, 65, 100
2, 115964, Note_off_c, 0, 62, 100
2, 116160, Note_on_c, 0, 72, 105
2, 116160, Note_on_c, 0, 69, 105
2, 116160, Note_on_c, 0, 66, 105
2, 116160, Note_on_c, 0, 63, 105
2, 116160, Note_on_c, 0, 60, 105
2, 116348, Note_off_c, 0, 72, 100
2, 116348, Note_off_c, 0, 69, 100
2, 116348, Note_off_c, 0, 66, 100
2, 116348, Note_off_c, 0, 63, 100
2, 116348, Note_off_c, 0, 60, 100
2, 116544, Note_on_c, 0, 71, 109
2, 116544, Note_on_c, 0, 67, 109
2, 116544, Note_on_c, 0, 62, 109
2, 116544, Note_on_c, 0, 59, 109
2, 117116, Note_off_c, 0, 71, 100
2, 117116, Note_off_c, 0, 67, 100
2, 117116, Note_off_c, 0, 62, 100
2, 117116, Note_off_c, 0, 59, 100
2, 117312, Note_on_c, 0, 72, 80
2, 117312, Note_on_c, 0, 67, 80
2, 117312, Note_on_c, 0, 64, 80
2, 117500, Note_off_c, 0, 72, 100
2, 117500, Note_off_c, 0, 67, 100
2, 117500, Note_off_c, 0, 64, 100
2, 117696, Note_on_c, 0, 71, 80
2, 117696, Note_on_c, 0, 67, 80
2, 117696, Note_on_c, 0, 65, 80
2, 117884, Note_off_c, 0, 71, 100
2, 117884, Note_off_c, 0, 67, 100
2, 117884, Note_off_c, 0, 65, 100
2, 118080, Note_on_c, 0, 72, 80
2, 118080, Note_on_c, 0, 67, 80
2, 118080, Note_on_c, 0, 64, 80
2, 118268, Note_off_c, 0, 72, 100
2, 118268, Note_off_c, 0, 67, 100
2, 118268, Note_off_c, 0, 64, 100
2, 118464, Note_on_c, 0, 74, 80
2, 118464, Note_on_c, 0, 67, 80
2, 118464, Note_on_c, 0, 65, 80
2, 118652, Note_off_c, 0, 74, 100
2, 118652, Note_off_c, 0, 67, 100
2, 118652, Note_off_c, 0, 65, 100
2, 118848, Note_on_c, 0, 76, 80
2, 118848, Note_on_c, 0, 72, 80
2, 118848, Note_on_c, 0, 67, 80
2, 119036, Note_off_c, 0, 76, 100
2, 119036, Note_off_c, 0, 72, 100
2, 119036, Note_off_c, 0, 67, 100
2, 119232, Note_on_c, 0, 77, 80
2, 119232, Note_on_c, 0, 72, 80
2, 119232, Note_on_c, 0, 65, 80
2, 119420, Note_off_c, 0, 77, 100
2, 119420, Note_off_c, 0, 72, 100
2, 119420, Note_off_c, 0, 65, 100
2, 119616, Note_on_c, 0, 74, 80
2, 119616, Note_on_c, 0, 72, 80
2, 119616, Note_on_c, 0, 65, 80
2, 119804, Note_off_c, 0, 74, 100
2, 119804, Note_off_c, 0, 72, 100
2, 119804, Note_off_c, 0, 65, 100
2, 120000, Note_on_c, 0, 74, 80
2, 120000, Note_on_c, 0, 71, 80
2, 120000, Note_on_c, 0, 65, 80
2, 120188, Note_off_c, 0, 74, 100
2, 120188, Note_off_c, 0, 71, 100
2, 120188, Note_off_c, 0, 65, 100
2, 120384, Note_on_c, 0, 79, 84
2, 120384, Note_on_c, 0, 74, 84
2, 120384, Note_on_c, 0, 71, 84
2, 120384, Note_on_c, 0, 67, 84
2, 120572, Note_off_c, 0, 79, 100
2, 120572, Note_off_c, 0, 74, 100
2, 120572, Note_off_c, 0, 71, 100
2, 120572, Note_off_c, 0, 67, 100
2, 120768, Note_on_c, 0, 79, 92
2, 120768, Note_on_c, 0, 73, 92
2, 120768, Note_on_c, 0, 70, 92
2, 120768, Note_on_c, 0, 67, 92
2, 120956, Note_off_c, 0, 79, 100
2, 120956, Note_off_c, 0, 73, 100
2, 120956, Note_off_c, 0, 70, 100
2, 120956, Note_off_c, 0, 67, 100
2, 121152, Note_on_c, 0, 79, 101
2, 121152, Note_on_c, 0, 70, 101
2, 121152, Note_on_c, 0, 67, 101
2, 121152, Note_on_c, 0, 73, 101
2, 121340, Note_off_c, 0, 79, 100
2, 121340, Note_off_c, 0, 70, 100
2, 121340, Note_off_c, 0, 67, 100
2, 121340, Note_off_c, 0, 73, 100
2, 121536, Note_on_c, 0, 77, 109
2, 121536, Note_on_c, 0, 74, 109
2, 121536, Note_on_c, 0, 69, 109
2, 121536, Note_on_c, 0, 65, 109
2, 121724, Note_off_c, 0, 77, 100
2, 121724, Note_off_c, 0, 74, 100
2, 121724, Note_off_c, 0, 69, 100
2, 121724, Note_off_c, 0, 65, 100
2, 121920, Note_on_c, 0, 76, 98
2, 121920, Note_on_c, 0, 72, 98
2, 121920, Note_on_c, 0, 67, 98
2, 121920, Note_on_c, 0, 64, 98
2, 122108, Note_off_c, 0, 76, 100
2, 122108, Note_off_c, 0, 72, 100
2, 122108, Note_off_c, 0, 67, 100
2, 122108, Note_off_c, 0, 64, 100
2, 122304, Note_on_c, 0, 67, 93
2, 122304, Note_on_c, 0, 65, 93
2, 122304, Note_on_c, 0, 74, 93
2, 122492, Note_off_c, 0, 67, 100
2, 122492, Note_off_c, 0, 65, 100
2, 122492, Note_off_c, 0, 74, 100
2, 122688, Note_on_c, 0, 72, 103
2, 123068, Note_off_c, 0, 72, 100
2, 123072, Note_on_c, 0, 67, 82
2, 123132, Note_off_c, 0, 67, 100
2, 123136, Note_on_c, 0, 64, 81
2, 123196, Note_off_c, 0, 64, 100
2, 123200, Note_on_c, 0, 60, 81
2, 123260, Note_off_c, 0, 60, 100
2, 123456, Note_on_c, 0, 59, 80
2, 123456, Note_on_c, 0, 53, 80
2, 123456, Note_on_c, 0, 50, 80
2, 123644, Note_off_c, 0, 59, 100
2, 123644, Note_off_c, 0, 53, 100
2, 123644, Note_off_c, 0, 50, 100
2, 123840, Note_on_c, 0, 60, 80
2, 123840, Note_on_c, 0, 55, 80
2, 123840, Note_on_c, 0, 52, 80
2, 124028, Note_off_c, 0, 60, 100
2, 124028, Note_off_c, 0, 55, 100
2, 124028, Note_off_c, 0, 52, 100
2, 124224, Note_on_c, 0, 61, 80
2, 124224, Note_on_c, 0, 55, 80
2, 124224, Note_on_c, 0, 52, 80
2, 124412, Note_off_c, 0, 61, 100
2, 124412, Note_off_c, 0, 55, 100
2, 124412, Note_off_c, 0, 52, 100
2, 124608, Note_on_c, 0, 62, 80
2, 124608, Note_on_c, 0, 57, 80
2, 124608, Note_on_c, 0, 53, 80
2, 124796, Note_off_c, 0, 62, 100
2, 124796, Note_off_c, 0, 57, 100
2, 124796, Note_off_c, 0, 53, 100
2, 124992, Note_on_c, 0, 63, 80
2, 124992, Note_on_c, 0, 57, 80
2, 124992, Note_on_c, 0, 54, 80
2, 125180, Note_off_c, 0, 63, 100
2, 125180, Note_off_c, 0, 57, 100
2, 125180, Note_off_c, 0, 54, 100
2, 125376, Note_on_c, 0, 64, 80
2, 125376, Note_on_c, 0, 59, 80
2, 125376, Note_on_c, 0, 55, 80
2, 125564, Note_off_c, 0, 64, 100
2, 125564, Note_off_c, 0, 59, 100
2, 125564, Note_off_c, 0, 55, 100
2, 125760, Note_on_c, 0, 65, 100
2, 125760, Note_on_c, 0, 59, 100
2, 125760, Note_on_c, 0, 55, 100
2, 125948, Note_off_c, 0, 65, 100
2, 125948, Note_off_c, 0, 59, 100
2, 125948, Note_off_c, 0, 55, 100
2, 125952, Note_on_c, 0, 65, 100
2, 125952, Note_on_c, 0, 59, 100
2, 125952, Note_on_c, 0, 55, 100
2, 126140, Note_off_c, 0, 65, 100
2, 126140, Note_off_c, 0, 59, 100
2, 126140, Note_off_c, 0, 55, 100
2, 126144, Note_on_c, 0, 59, 100
2, 126144, Note_on_c, 0, 55, 100
2, 126144, Note_on_c, 0, 65, 100
2, 126332, Note_off_c, 0, 59, 100
2, 126332, Note_off_c, 0, 55, 100
2, 126332, Note_off_c, 0, 65, 100
2, 126528, Note_on_c, 0, 65, 98
2, 126528, Note_on_c, 0, 59, 98
2, 126528, Note_on_c, 0, 55, 98
2, 126716, Note_off_c, 0, 65, 100
2, 126716, Note_off_c, 0, 59, 100
2, 126716, Note_off_c, 0, 55, 100
2, 126912, Note_on_c, 0, 64, 92
2, 126912, Note_on_c, 0, 60, 92
2, 126912, Note_on_c, 0, 55, 92
2, 127100, Note_off_c, 0, 64, 100
2, 127100, Note_off_c, 0, 60, 100
2, 127100, Note_off_c, 0, 55, 100
2, 127296, Note_on_c, 0, 62, 86
2, 127296, Note_on_c, 0, 60, 86
2, 127296, Note_on_c, 0, 53, 86
2, 127484, Note_off_c, 0, 62, 100
2, 127484, Note_off_c, 0, 60, 100
2, 127484, Note_off_c, 0, 53, 100
2, 127680, Note_on_c, 0, 65, 81
2, 127680, Note_on_c, 0, 60, 81
2, 127680, Note_on_c, 0, 57, 81
2, 127868, Note_off_c, 0, 65, 100
2, 127868, Note_off_c, 0, 60, 100
2, 127868, Note_off_c, 0, 57, 100
2, 128064, Note_on_c, 0, 64, 80
2, 128064, Note_on_c, 0, 60, 80
2, 128064, Note_on_c, 0, 55, 80
2, 128252, Note_off_c, 0, 64, 100
2, 128252, Note_off_c, 0, 60, 100
2, 128252, Note_off_c, 0, 55, 100
2, 128448, Note_on_c, 0, 62, 80
2, 128448, Note_on_c, 0, 59, 80
2, 128448, Note_on_c, 0, 53, 80
2, 128636, Note_off_c, 0, 62, 100
2, 128636, Note_off_c, 0, 59, 100
2, 128636, Note_off_c, 0, 53, 100
2, 128832, Note_on_c, 0, 60, 80
2, 129020, Note_off_c, 0, 60, 100
2, 129024, Note_on_c, 0, 67, 80
2, 129212, Note_off_c, 0, 67, 100
2, 129216, Note_on_c, 0, 67, 80
2, 129404, Note_off_c, 0, 67, 100
2, 129600, Note_on_c, 0, 79, 80
2, 129600, Note_on_c, 0, 73, 80
2, 129600, Note_on_c, 0, 70, 80
2, 129600, Note_on_c, 0, 67, 80
2, 129788, Note_off_c, 0, 79, 100
2, 129788, Note_off_c, 0, 73, 100
2, 129788, Note_off_c, 0, 70, 100
2, 129788, Note_off_c, 0, 67, 100
2, 129984, Note_on_c, 0, 77, 80
2, 129984, Note_on_c, 0, 73, 80
2, 129984, Note_on_c, 0, 70, 80
2, 129984, Note_on_c, 0, 67, 80
2, 130172, Note_off_c, 0, 77, 100
2, 130172, Note_off_c, 0, 73, 100
2, 130172, Note_off_c, 0, 70, 100
2, 130172, Note_off_c, 0, 67, 100
2, 130368, Note_on_c, 0, 76, 80
2, 130368, Note_on_c, 0, 73, 80
2, 130368, Note_on_c, 0, 70, 80
2, 130368, Note_on_c, 0, 67, 80
2, 130556, Note_off_c, 0, 76, 100
2, 130556, Note_off_c, 0, 73, 100
2, 130556, Note_off_c, 0, 70, 100
2, 130556, Note_off_c, 0, 67, 100
2, 130752, Note_on_c, 0, 76, 80
2, 130752, Note_on_c, 0, 72, 80
2, 130752, Note_on_c, 0, 70, 80
2, 130752, Note_on_c, 0, 67, 80
2, 130940, Note_off_c, 0, 76, 100
2, 130940, Note_off_c, 0, 72, 100
2, 130940, Note_off_c, 0, 70, 100
2, 130940, Note_off_c, 0, 67, 100
2, 131136, Note_on_c, 0, 84, 80
2, 131136, Note_on_c, 0, 77, 80
2, 131136, Note_on_c, 0, 72, 80
2, 131324, Note_off_c, 0, 84, 100
2, 131324, Note_off_c, 0, 77, 100
2, 131324, Note_off_c, 0, 72, 100
2, 131520, Note_on_c, 0, 82, 80
2, 131520, Note_on_c, 0, 76, 80
2, 131520, Note_on_c, 0, 72, 80
2, 131520, Note_on_c, 0, 70, 80
2, 131708, Note_off_c, 0, 82, 100
2, 131708, Note_off_c, 0, 76, 100
2, 131708, Note_off_c, 0, 72, 100
2, 131708, Note_off_c, 0, 70, 100
2, 131904, Note_on_c, 0, 81, 80
2, 131904, Note_on_c, 0, 77, 80
2, 131904, Note_on_c, 0, 72, 80
2, 131904, Note_on_c, 0, 69, 80
2, 132092, Note_off_c, 0, 81, 100
2, 132092, Note_off_c, 0, 77, 100
2, 132092, Note_off_c, 0, 72, 100
2, 132092, Note_off_c, 0, 69, 100
2, 132288, Note_on_c, 0, 81, 80
2, 132288, Note_on_c, 0, 77, 80
2, 132288, Note_on_c, 0, 73, 80
2, 132288, Note_on_c, 0, 69, 80
2, 132476, Note_off_c, 0, 81, 100
2, 132476, Note_off_c, 0, 77, 100
2, 132476, Note_off_c, 0, 73, 100
2, 132476, Note_off_c, 0, 69, 100
2, 132672, Note_on_c, 0, 81, 81
2, 132672, Note_on_c, 0, 77, 81
2, 132672, Note_on_c, 0, 74, 81
2, 132672, Note_on_c, 0, 69, 81
2, 132860, Note_off_c, 0, 81, 100
2, 132860, Note_off_c, 0, 77, 100
2, 132860, Note_off_c, 0, 74, 100
2, 132860, Note_off_c, 0, 69, 100
2, 133056, Note_on_c, 0, 79, 84
2, 133056, Note_on_c, 0, 76, 84
2, 133056, Note_on_c, 0, 73, 84
2, 133056, Note_on_c, 0, 70, 84
2, 133056, Note_on_c, 0, 67, 84
2, 133244, Note_off_c, 0, 79, 100
2, 133244, Note_off_c, 0, 76, 100
2, 133244, Note_off_c, 0, 73, 100
2, 133244, Note_off_c, 0, 70, 100
2, 133244, Note_off_c, 0, 67, 100
2, 133440, Note_on_c, 0, 77, 87
2, 133440, Note_on_c, 0, 74, 87
2, 133440, Note_on_c, 0, 69, 87
2, 133440, Note_on_c, 0, 65, 87
2, 133628, Note_off_c, 0, 77, 100
2, 133628, Note_off_c, 0, 74, 100
2, 133628, Note_off_c, 0, 69, 100
2, 133628, Note_off_c, 0, 65, 100
2, 133824, Note_on_c, 0, 76, 90
2, 133824, Note_on_c, 0, 73, 90
2, 133824, Note_on_c, 0, 70, 90
2, 133824, Note_on_c, 0, 67, 90
2, 133824, Note_on_c, 0, 64, 90
2, 134012, Note_off_c, 0, 76, 100
2, 134012, Note_off_c, 0, 73, 100
2, 134012, Note_off_c, 0, 70, 100
2, 134012, Note_off_c, 0, 67, 100
2, 134012, Note_off_c, 0, 64, 100
2, 134208, Note_on_c, 0, 74, 93
2, 134208, Note_on_c, 0, 69, 93
2, 134208, Note_on_c, 0, 65, 93
2, 134208, Note_on_c, 0, 62, 93
2, 134396, Note_off_c, 0, 74, 100
2, 134396, Note_off_c, 0, 69, 100
2, 134396, Note_off_c, 0, 65, 100
2, 134396, Note_off_c, 0, 62, 100
2, 134592, Note_on_c, 0, 72, 96
2, 134592, Note_on_c, 0, 69, 96
2, 134592, Note_on_c, 0, 66, 96
2, 134592, Note_on_c, 0, 63, 96
2, 134592, Note_on_c, 0, 60, 96
2, 134780, Note_off_c, 0, 72, 100
2, 134780, Note_off_c, 0, 69, 100
2, 134780, Note_off_c, 0, 66, 100
2, 134780, Note_off_c, 0, 63, 100
2, 134780, Note_off_c, 0, 60, 100
2, 134976, Note_on_c, 0, 71, 99
2, 134976, Note_on_c, 0, 67, 99
2, 134976, Note_on_c, 0, 62, 99
2, 134976, Note_on_c, 0, 59, 99
2, 135548, Note_off_c, 0, 71, 100
2, 135548, Note_off_c, 0, 67, 100
2, 135548, Note_off_c, 0, 62, 100
2, 135548, Note_off_c, 0, 59, 100
2, 135744, Note_on_c, 0, 72, 80
2, 135744, Note_on_c, 0, 67, 80
2, 135744, Note_on_c, 0, 64, 80
2, 135932, Note_off_c, 0, 72, 100
2, 135932, Note_off_c, 0, 67, 100
2, 135932, Note_off_c, 0, 64, 100
2, 136128, Note_on_c, 0, 71, 80
2, 136128, Note_on_c, 0, 67, 80
2, 136128, Note_on_c, 0, 65, 80
2, 136316, Note_off_c, 0, 71, 100
2, 136316, Note_off_c, 0, 67, 100
2, 136316, Note_off_c, 0, 65, 100
2, 136512, Note_on_c, 0, 72, 80
2, 136512, Note_on_c, 0, 67, 80
2, 136512, Note_on_c, 0, 64, 80
2, 136700, Note_off_c, 0, 72, 100
2, 136700, Note_off_c, 0, 67, 100
2, 136700, Note_off_c, 0, 64, 100
2, 136896, Note_on_c, 0, 74, 80
2, 136896, Note_on_c, 0, 67, 80
2, 136896, Note_on_c, 0, 65, 80
2, 137084, Note_off_c, 0, 74, 100
2, 137084, Note_off_c, 0, 67, 100
2, 137084, Note_off_c, 0, 65, 100
2, 137280, Note_on_c, 0, 76, 80
2, 137280, Note_on_c, 0, 72, 80
2, 137280, Note_on_c, 0, 67, 80
2, 137468, Note_off_c, 0, 76, 100
2, 137468, Note_off_c, 0, 72, 100
2, 137468, Note_off_c, 0, 67, 100
2, 137664, Note_on_c, 0, 77, 80
2, 137664, Note_on_c, 0, 72, 80
2, 137664, Note_on_c, 0, 65, 80
2, 137852, Note_off_c, 0, 77, 100
2, 137852, Note_off_c, 0, 72, 100
2, 137852, Note_off_c, 0, 65, 100
2, 138048, Note_on_c, 0, 74, 80
2, 138048, Note_on_c, 0, 72, 80
2, 138048, Note_on_c, 0, 65, 80
2, 138236, Note_off_c, 0, 74, 100
2, 138236, Note_off_c, 0, 72, 100
2, 138236, Note_off_c, 0, 65, 100
2, 138432, Note_on_c, 0, 74, 80
2, 138432, Note_on_c, 0, 71, 80
2, 138432, Note_on_c, 0, 65, 80
2, 138620, Note_off_c, 0, 74, 100
2, 138620, Note_off_c, 0, 71, 100
2, 138620, Note_off_c, 0, 65, 100
2, 138816, Note_on_c, 0, 79, 84
2, 138816, Note_on_c, 0, 74, 84
2, 138816, Note_on_c, 0, 71, 84
2, 138816, Note_on_c, 0, 67, 84
2, 139004, Note_off_c, 0, 79, 100
2, 139004, Note_off_c, 0, 74, 100
2, 139004, Note_off_c, 0, 71, 100
2, 139004, Note_off_c, 0, 67, 100
2, 139200, Note_on_c, 0, 79, 92
2, 139200, Note_on_c, 0, 73, 92
2, 139200, Note_on_c, 0, 70, 92
2, 139200, Note_on_c, 0, 67, 92
2, 139388, Note_off_c, 0, 79, 100
2, 139388, Note_off_c, 0, 73, 100
2, 139388, Note_off_c, 0, 70, 100
2, 139388, Note_off_c, 0, 67, 100
2, 139584, Note_on_c, 0, 79, 101
2, 139584, Note_on_c, 0, 70, 101
2, 139584, Note_on_c, 0, 67, 101
2, 139584, Note_on_c, 0, 73, 101
2, 139772, Note_off_c, 0, 79, 100
2, 139772, Note_off_c, 0, 70, 100
2, 139772, Note_off_c, 0, 67, 100
2, 139772, Note_off_c, 0, 73, 100
2, 139968, Note_on_c, 0, 77, 109
2, 139968, Note_on_c, 0, 74, 109
2, 139968, Note_on_c, 0, 69, 109
2, 139968, Note_on_c, 0, 65, 109
2, 140156, Note_off_c, 0, 77, 100
2, 140156, Note_off_c, 0, 74, 100
2, 140156, Note_off_c, 0, 69, 100
2, 140156, Note_off_c, 0, 65, 100
2, 140352, Note_on_c, 0, 76, 98
2, 140352, Note_on_c, 0, 72, 98
2, 140352, Note_on_c, 0, 67, 98
2, 140352, Note_on_c, 0, 64, 98
2, 140540, Note_off_c, 0, 76, 100
2, 140540, Note_off_c, 0, 72, 100
2, 140540, Note_off_c, 0, 67, 100
2, 140540, Note_off_c, 0, 64, 100
2, 140736, Note_on_c, 0, 67, 93
2, 140736, Note_on_c, 0, 65, 93
2, 140736, Note_on_c, 0, 74, 93
2, 140924, Note_off_c, 0, 67, 100
2, 140924, Note_off_c, 0, 65, 100
2, 140924, Note_off_c, 0, 74, 100
2, 141120, Note_on_c, 0, 72, 104
2, 141500, Note_off_c, 0, 72, 100
2, 141504, Note_on_c, 0, 67, 82
2, 141564, Note_off_c, 0, 67, 100
2, 141568, Note_on_c, 0, 64, 81
2, 141628, Note_off_c, 0, 64, 100
2, 141632, Note_on_c, 0, 60, 81
2, 141692, Note_off_c, 0, 60, 100
2, 141888, Note_on_c, 0, 59, 80
2, 141888, Note_on_c, 0, 53, 80
2, 141888, Note_on_c, 0, 50, 80
2, 142076, Note_off_c, 0, 59, 100
2, 142076, Note_off_c, 0, 53, 100
2, 142076, Note_off_c, 0, 50, 100
2, 142272, Note_on_c, 0, 60, 80
2, 142272, Note_on_c, 0, 55, 80
2, 142272, Note_on_c, 0, 52, 80
2, 142460, Note_off_c, 0, 60, 100
2, 142460, Note_off_c, 0, 55, 100
2, 142460, Note_off_c, 0, 52, 100
2, 142656, Note_on_c, 0, 61, 80
2, 142656, Note_on_c, 0, 55, 80
2, 142656, Note_on_c, 0, 52, 80
2, 142844, Note_off_c, 0, 61, 100
2, 142844, Note_off_c, 0, 55, 100
2, 142844, Note_off_c, 0, 52, 100
2, 143040, Note_on_c, 0, 62, 80
2, 143040, Note_on_c, 0, 57, 80
2, 143040, Note_on_c, 0, 53, 80
2, 143228, Note_off_c, 0, 62, 100
2, 143228, Note_off_c, 0, 57, 100
2, 143228, Note_off_c, 0, 53, 100
2, 143424, Note_on_c, 0, 63, 80
2, 143424, Note_on_c, 0, 57, 80
2, 143424, Note_on_c, 0, 54, 80
2, 143612, Note_off_c, 0, 63, 100
2, 143612, Note_off_c, 0, 57, 100
2, 143612, Note_off_c, 0, 54, 100
2, 143808, Note_on_c, 0, 64, 80
2, 143808, Note_on_c, 0, 59, 80
2, 143808, Note_on_c, 0, 55, 80
2, 143996, Note_off_c, 0, 64, 100
2, 143996, Note_off_c, 0, 59, 100
2, 143996, Note_off_c, 0, 55, 100
2, 144192, Note_on_c, 0, 65, 100
2, 144192, Note_on_c, 0, 59, 100
2, 144192, Note_on_c, 0, 55, 100
2, 144380, Note_off_c, 0, 65, 100
2, 144380, Note_off_c, 0, 59, 100
2, 144380, Note_off_c, 0, 55, 100
2, 144384, Note_on_c, 0, 65, 100
2, 144384, Note_on_c, 0, 59, 100
2, 144384, Note_on_c, 0, 55, 100
2, 144572, Note_off_c, 0, 65, 100
2, 144572, Note_off_c, 0, 59, 100
2, 144572, Note_off_c, 0, 55, 100
2, 144576, Note_on_c, 0, 59, 100
2, 144576, Note_on_c, 0, 55, 100
2, 144576, Note_on_c, 0, 65, 100
2, 144764, Note_off_c, 0, 59, 100
2, 144764, Note_off_c, 0, 55, 100
2, 144764, Note_off_c, 0, 65, 100
2, 144960, Note_on_c, 0, 65, 98
2, 144960, Note_on_c, 0, 59, 98
2, 144960, Note_on_c, 0, 55, 98
2, 145148, Note_off_c, 0, 65, 100
2, 145148, Note_off_c, 0, 59, 100
2, 145148, Note_off_c, 0, 55, 100
2, 145344, Note_on_c, 0, 64, 92
2, 145344, Note_on_c, 0, 60, 92
2, 145344, Note_on_c, 0, 55, 92
2, 145532, Note_off_c, 0, 64, 100
2, 145532, Note_off_c, 0, 60, 100
2, 145532, Note_off_c, 0, 55, 100
2, 145728, Note_on_c, 0, 62, 86
2, 145728, Note_on_c, 0, 60, 86
2, 145728, Note_on_c, 0, 53, 86
2, 145916, Note_off_c, 0, 62, 100
2, 145916, Note_off_c, 0, 60, 100
2, 145916, Note_off_c, 0, 53, 100
2, 146112, Note_on_c, 0, 65, 81
2, 146112, Note_on_c, 0, 60, 81
2, 146112, Note_on_c, 0, 57, 81
2, 146300, Note_off_c, 0, 65, 100
2, 146300, Note_off_c, 0, 60, 100
2, 146300, Note_off_c, 0, 57, 100
2, 146496, Note_on_c, 0, 64, 80
2, 146496, Note_on_c, 0, 60, 80
2, 146496, Note_on_c, 0, 55, 80
2, 146684, Note_off_c, 0, 64, 100
2, 146684, Note_off_c, 0, 60, 100
2, 146684, Note_off_c, 0, 55, 100
2, 146880, Note_on_c, 0, 62, 80
2, 146880, Note_on_c, 0, 59, 80
2, 146880, Note_on_c, 0, 53, 80
2, 147068, Note_off_c, 0, 62, 100
2, 147068, Note_off_c, 0, 59, 100
2, 147068, Note_off_c, 0, 53, 100
2, 147264, Note_on_c, 0, 60, 80
2, 147452, Note_off_c, 0, 60, 100
2, 147456, Note_on_c, 0, 72, 80
2, 147644, Note_off_c, 0, 72, 100
2, 147648, Note_on_c, 0, 72, 80
2, 147836, Note_off_c, 0, 72, 100
2, 148032, Note_on_c, 0, 72, 80
2, 148032, Note_on_c, 0, 65, 80
2, 148032, Note_on_c, 0, 62, 80
2, 148220, Note_off_c, 0, 72, 100
2, 148220, Note_off_c, 0, 65, 100
2, 148220, Note_off_c, 0, 62, 100
2, 148416, Note_on_c, 0, 71, 80
2, 148416, Note_on_c, 0, 65, 80
2, 148416, Note_on_c, 0, 62, 80
2, 148604, Note_off_c, 0, 71, 100
2, 148604, Note_off_c, 0, 65, 100
2, 148604, Note_off_c, 0, 62, 100
2, 148800, Note_on_c, 0, 68, 80
2, 148800, Note_on_c, 0, 65, 80
2, 148800, Note_on_c, 0, 62, 80
2, 148988, Note_off_c, 0, 68, 100
2, 148988, Note_off_c, 0, 65, 100
2, 148988, Note_off_c, 0, 62, 100
2, 149184, Note_on_c, 0, 67, 80
2, 149184, Note_on_c, 0, 65, 80
2, 149184, Note_on_c, 0, 62, 80
2, 149372, Note_off_c, 0, 67, 100
2, 149372, Note_off_c, 0, 65, 100
2, 149372, Note_off_c, 0, 62, 100
2, 149568, Note_on_c, 0, 77, 80
2, 149568, Note_on_c, 0, 74, 80
2, 149568, Note_on_c, 0, 72, 80
2, 149756, Note_off_c, 0, 77, 100
2, 149756, Note_off_c, 0, 74, 100
2, 149756, Note_off_c, 0, 72, 100
2, 149952, Note_on_c, 0, 77, 80
2, 149952, Note_on_c, 0, 74, 80
2, 149952, Note_on_c, 0, 71, 80
2, 150140, Note_off_c, 0, 77, 100
2, 150140, Note_off_c, 0, 74, 100
2, 150140, Note_off_c, 0, 71, 100
2, 150336, Note_on_c, 0, 77, 80
2, 150336, Note_on_c, 0, 74, 80
2, 150336, Note_on_c, 0, 68, 80
2, 150524, Note_off_c, 0, 77, 100
2, 150524, Note_off_c, 0, 74, 100
2, 150524, Note_off_c, 0, 68, 100
2, 150720, Note_on_c, 0, 77, 80
2, 150720, Note_on_c, 0, 74, 80
2, 150720, Note_on_c, 0, 67, 80
2, 150908, Note_off_c, 0, 77, 100
2, 150908, Note_off_c, 0, 74, 100
2, 150908, Note_off_c, 0, 67, 100
2, 151104, Note_on_c, 0, 80, 78
2, 151104, Note_on_c, 0, 74, 78
2, 151104, Note_on_c, 0, 71, 78
2, 151292, Note_off_c, 0, 80, 100
2, 151292, Note_off_c, 0, 74, 100
2, 151292, Note_off_c, 0, 71, 100
2, 151488, Note_on_c, 0, 79, 74
2, 151488, Note_on_c, 0, 74, 74
2, 151488, Note_on_c, 0, 71, 74
2, 151676, Note_off_c, 0, 79, 100
2, 151676, Note_off_c, 0, 74, 100
2, 151676, Note_off_c, 0, 71, 100
2, 151872, Note_on_c, 0, 78, 70
2, 151872, Note_on_c, 0, 74, 70
2, 151872, Note_on_c, 0, 71, 70
2, 152060, Note_off_c, 0, 78, 100
2, 152060, Note_off_c, 0, 74, 100
2, 152060, Note_off_c, 0, 71, 100
2, 152256, Note_on_c, 0, 77, 66
2, 152256, Note_on_c, 0, 74, 66
2, 152256, Note_on_c, 0, 71, 66
2, 152444, Note_off_c, 0, 77, 100
2, 152444, Note_off_c, 0, 74, 100
2, 152444, Note_off_c, 0, 71, 100
2, 152640, Note_on_c, 0, 77, 65
2, 152640, Note_on_c, 0, 70, 65
2, 152640, Note_on_c, 0, 74, 65
2, 152828, Note_off_c, 0, 77, 100
2, 152828, Note_off_c, 0, 70, 100
2, 152828, Note_off_c, 0, 74, 100
2, 153024, Note_on_c, 0, 77, 65
2, 153024, Note_on_c, 0, 74, 65
2, 153024, Note_on_c, 0, 69, 65
2, 153212, Note_off_c, 0, 77, 100
2, 153212, Note_off_c, 0, 74, 100
2, 153212, Note_off_c, 0, 69, 100
2, 153408, Note_on_c, 0, 77, 65
2, 153408, Note_on_c, 0, 74, 65
2, 153408, Note_on_c, 0, 68, 65
2, 153596, Note_off_c, 0, 77, 100
2, 153596, Note_off_c, 0, 74, 100
2, 153596, Note_off_c, 0, 68, 100
2, 153792, Note_on_c, 0, 77, 65
2, 153792, Note_on_c, 0, 74, 65
2, 153792, Note_on_c, 0, 67, 65
2, 153980, Note_off_c, 0, 77, 100
2, 153980, Note_off_c, 0, 74, 100
2, 153980, Note_off_c, 0, 67, 100
2, 154080, Note_on_c, 0, 64, 80
2, 154172, Note_off_c, 0, 64, 100
2, 154176, Note_on_c, 0, 72, 80
2, 154268, Note_off_c, 0, 72, 100
2, 154272, Note_on_c, 0, 67, 80
2, 154364, Note_off_c, 0, 67, 100
2, 154464, Note_on_c, 0, 65, 80
2, 154556, Note_off_c, 0, 65, 100
2, 154560, Note_on_c, 0, 71, 80
2, 154652, Note_off_c, 0, 71, 100
2, 154656, Note_on_c, 0, 67, 80
2, 154748, Note_off_c, 0, 67, 100
2, 154848, Note_on_c, 0, 66, 80
2, 154940, Note_off_c, 0, 66, 100
2, 154944, Note_on_c, 0, 72, 80
2, 155036, Note_off_c, 0, 72, 100
2, 155040, Note_on_c, 0, 67, 80
2, 155132, Note_off_c, 0, 67, 100
2, 155232, Note_on_c, 0, 67, 80
2, 155324, Note_off_c, 0, 67, 100
2, 155328, Note_on_c, 0, 74, 80
2, 155420, Note_off_c, 0, 74, 100
2, 155424, Note_on_c, 0, 67, 80
2, 155516, Note_off_c, 0, 67, 100
2, 155616, Note_on_c, 0, 67, 80
2, 155708, Note_off_c, 0, 67, 100
2, 155712, Note_on_c, 0, 76, 80
2, 155804, Note_off_c, 0, 76, 100
2, 155808, Note_on_c, 0, 72, 80
2, 155900, Note_off_c, 0, 72, 100
2, 156000, Note_on_c, 0, 69, 80
2, 156092, Note_off_c, 0, 69, 100
2, 156096, Note_on_c, 0, 77, 80
2, 156188, Note_off_c, 0, 77, 100
2, 156192, Note_on_c, 0, 74, 80
2, 156284, Note_off_c, 0, 74, 100
2, 156384, Note_on_c, 0, 67, 80
2, 156476, Note_off_c, 0, 67, 100
2, 156480, Note_on_c, 0, 74, 80
2, 156572, Note_off_c, 0, 74, 100
2, 156576, Note_on_c, 0, 71, 80
2, 156668, Note_off_c, 0, 71, 100
2, 156672, Note_on_c, 0, 74, 80
2, 156764, Note_off_c, 0, 74, 100
2, 156768, Note_on_c, 0, 71, 80
2, 156860, Note_off_c, 0, 71, 100
2, 156864, Note_on_c, 0, 74, 80
2, 156956, Note_off_c, 0, 74, 100
2, 156960, Note_on_c, 0, 71, 80
2, 157052, Note_off_c, 0, 71, 100
2, 157152, Note_on_c, 0, 67, 80
2, 157244, Note_off_c, 0, 67, 100
2, 157248, Note_on_c, 0, 79, 80
2, 157340, Note_off_c, 0, 79, 100
2, 157344, Note_on_c, 0, 72, 80
2, 157436, Note_off_c, 0, 72, 100
2, 157536, Note_on_c, 0, 67, 80
2, 157628, Note_off_c, 0, 67, 100
2, 157632, Note_on_c, 0, 79, 80
2, 157724, Note_off_c, 0, 79, 100
2, 157728, Note_on_c, 0, 77, 80
2, 157820, Note_off_c, 0, 77, 100
2, 157920, Note_on_c, 0, 67, 80
2, 158012, Note_off_c, 0, 67, 100
2, 158016, Note_on_c, 0, 79, 80
2, 158108, Note_off_c, 0, 79, 100
2, 158112, Note_on_c, 0, 76, 80
2, 158204, Note_off_c, 0, 76, 100
2, 158304, Note_on_c, 0, 68, 80
2, 158396, Note_off_c, 0, 68, 100
2, 158400, Note_on_c, 0, 80, 80
2, 158492, Note_off_c, 0, 80, 100
2, 158496, Note_on_c, 0, 74, 80
2, 158588, Note_off_c, 0, 74, 100
2, 158688, Note_on_c, 0, 69, 80
2, 158780, Note_off_c, 0, 69, 100
2, 158784, Note_on_c, 0, 81, 80
2, 158876, Note_off_c, 0, 81, 100
2, 158880, Note_on_c, 0, 72, 80
2, 158972, Note_off_c, 0, 72, 100
2, 159072, Note_on_c, 0, 69, 80
2, 159164, Note_off_c, 0, 69, 100
2, 159168, Note_on_c, 0, 81, 80
2, 159260, Note_off_c, 0, 81, 100
2, 159264, Note_on_c, 0, 77, 80
2, 159356, Note_off_c, 0, 77, 100
2, 159360, Note_on_c, 0, 74, 80
2, 159452, Note_off_c, 0, 74, 100
2, 159456, Note_on_c, 0, 71, 80
2, 159548, Note_off_c, 0, 71, 100
2, 159552, Note_on_c, 0, 77, 80
2, 159644, Note_off_c, 0, 77, 100
2, 159648, Note_on_c, 0, 74, 80
2, 159740, Note_off_c, 0, 74, 100
2, 159744, Note_on_c, 0, 71, 80
2, 159836, Note_off_c, 0, 71, 100
2, 159840, Note_on_c, 0, 67, 80
2, 159932, Note_off_c, 0, 67, 100
2, 159936, Note_on_c, 0, 65, 80
2, 160028, Note_off_c, 0, 65, 100
2, 160032, Note_on_c, 0, 62, 80
2, 160124, Note_off_c, 0, 62, 100
2, 160224, Note_on_c, 0, 64, 80
2, 160316, Note_off_c, 0, 64, 100
2, 160320, Note_on_c, 0, 72, 81
2, 160412, Note_off_c, 0, 72, 100
2, 160416, Note_on_c, 0, 67, 82
2, 160508, Note_off_c, 0, 67, 100
2, 160608, Note_on_c, 0, 65, 84
2, 160700, Note_off_c, 0, 65, 100
2, 160704, Note_on_c, 0, 71, 85
2, 160796, Note_off_c, 0, 71, 100
2, 160800, Note_on_c, 0, 67, 86
2, 160892, Note_off_c, 0, 67, 100
2, 160992, Note_on_c, 0, 66, 88
2, 161084, Note_off_c, 0, 66, 100
2, 161088, Note_on_c, 0, 72, 89
2, 161180, Note_off_c, 0, 72, 100
2, 161184, Note_on_c, 0, 67, 90
2, 161276, Note_off_c, 0, 67, 100
2, 161376, Note_on_c, 0, 62, 92
2, 161468, Note_off_c, 0, 62, 100
2, 161472, Note_on_c, 0, 74, 93
2, 161564, Note_off_c, 0, 74, 100
2, 161568, Note_on_c, 0, 67, 94
2, 161660, Note_off_c, 0, 67, 100
2, 161760, Note_on_c, 0, 64, 95
2, 161852, Note_off_c, 0, 64, 100
2, 161856, Note_on_c, 0, 76, 95
2, 161948, Note_off_c, 0, 76, 100
2, 161952, Note_on_c, 0, 67, 95
2, 162044, Note_off_c, 0, 67, 100
2, 162144, Note_on_c, 0, 66, 95
2, 162236, Note_off_c, 0, 66, 100
2, 162240, Note_on_c, 0, 78, 95
2, 162332, Note_off_c, 0, 78, 100
2, 162336, Note_on_c, 0, 72, 95
2, 162428, Note_off_c, 0, 72, 100
2, 162528, Note_on_c, 0, 74, 110
2, 162620, Note_off_c, 0, 74, 100
2, 162624, Note_on_c, 0, 79, 110
2, 162716, Note_off_c, 0, 79, 100
2, 162720, Note_on_c, 0, 78, 110
2, 162812, Note_off_c, 0, 78, 100
2, 162816, Note_on_c, 0, 79, 95
2, 162908, Note_off_c, 0, 79, 100
2, 162912, Note_on_c, 0, 74, 95
2, 163004, Note_off_c, 0, 74, 100
2, 163008, Note_on_c, 0, 71, 95
2, 163100, Note_off_c, 0, 71, 100
2, 163104, Note_on_c, 0, 67, 95
2, 163196, Note_off_c, 0, 67, 100
2, 163296, Note_on_c, 0, 76, 95
2, 163388, Note_off_c, 0, 76, 100
2, 163392, Note_on_c, 0, 81, 96
2, 163484, Note_off_c, 0, 81, 100
2, 163488, Note_on_c, 0, 79, 97
2, 163580, Note_off_c, 0, 79, 100
2, 163680, Note_on_c, 0, 76, 99
2, 163772, Note_off_c, 0, 76, 100
2, 163776, Note_on_c, 0, 82, 100
2, 163868, Note_off_c, 0, 82, 100
2, 163872, Note_on_c, 0, 79, 101
2, 163964, Note_off_c, 0, 79, 100
2, 164064, Note_on_c, 0, 79, 103
2, 164156, Note_off_c, 0, 79, 100
2, 164160, Note_on_c, 0, 83, 104
2, 164252, Note_off_c, 0, 83, 100
2, 164256, Note_on_c, 0, 82, 105
2, 164348, Note_off_c, 0, 82, 100
2, 164352, Note_on_c, 0, 83, 106
2, 164444, Note_off_c, 0, 83, 100
2, 164448, Note_on_c, 0, 79, 107
2, 164540, Note_off_c, 0, 79, 100
2, 164544, Note_on_c, 0, 74, 108
2, 164636, Note_off_c, 0, 74, 100
2, 164640, Note_on_c, 0, 71, 109
2, 164732, Note_off_c, 0, 71, 100
2, 164736, Note_on_c, 0, 74, 80
2, 164828, Note_off_c, 0, 74, 100
2, 164832, Note_on_c, 0, 72, 80
2, 164924, Note_off_c, 0, 72, 100
2, 164928, Note_on_c, 0, 76, 80
2, 165020, Note_off_c, 0, 76, 100
2, 165024, Note_on_c, 0, 72, 80
2, 165116, Note_off_c, 0, 72, 100
2, 165120, Note_on_c, 0, 71, 80
2, 165212, Note_off_c, 0, 71, 100
2, 165216, Note_on_c, 0, 69, 80
2, 165308, Note_off_c, 0, 69, 100
2, 165312, Note_on_c, 0, 67, 80
2, 165404, Note_off_c, 0, 67, 100
2, 165408, Note_on_c, 0, 66, 80
2, 165500, Note_off_c, 0, 66, 100
2, 165504, Note_on_c, 0, 67, 80
2, 165596, Note_off_c, 0, 67, 100
2, 165600, Note_on_c, 0, 69, 80
2, 165692, Note_off_c, 0, 69, 100
2, 165696, Note_on_c, 0, 71, 80
2, 165788, Note_off_c, 0, 71, 100
2, 165792, Note_on_c, 0, 72, 80
2, 165884, Note_off_c, 0, 72, 100
2, 165888, Note_on_c, 0, 74, 80
2, 165980, Note_off_c, 0, 74, 100
2, 165984, Note_on_c, 0, 76, 80
2, 166076, Note_off_c, 0, 76, 100
2, 166080, Note_on_c, 0, 77, 80
2, 166172, Note_off_c, 0, 77, 100
2, 166176, Note_on_c, 0, 78, 80
2, 166268, Note_off_c, 0, 78, 100
2, 166368, Note_on_c, 0, 67, 80
2, 166460, Note_off_c, 0, 67, 100
2, 166464, Note_on_c, 0, 79, 80
2, 166556, Note_off_c, 0, 79, 100
2, 166560, Note_on_c, 0, 72, 80
2, 166652, Note_off_c, 0, 72, 100
2, 166752, Note_on_c, 0, 67, 80
2, 166844, Note_off_c, 0, 67, 100
2, 166848, Note_on_c, 0, 77, 80
2, 166940, Note_off_c, 0, 77, 100
2, 166944, Note_on_c, 0, 71, 80
2, 167036, Note_off_c, 0, 71, 100
2, 167136, Note_on_c, 0, 67, 80
2, 167228, Note_off_c, 0, 67, 100
2, 167232, Note_on_c, 0, 76, 80
2, 167324, Note_off_c, 0, 76, 100
2, 167328, Note_on_c, 0, 72, 80
2, 167420, Note_off_c, 0, 72, 100
2, 167520, Note_on_c, 0, 67, 80
2, 167612, Note_off_c, 0, 67, 100
2, 167616, Note_on_c, 0, 76, 80
2, 167708, Note_off_c, 0, 76, 100
2, 167712, Note_on_c, 0, 72, 80
2, 167804, Note_off_c, 0, 72, 100
2, 167904, Note_on_c, 0, 72, 80
2, 167996, Note_off_c, 0, 72, 100
2, 168000, Note_on_c, 0, 84, 80
2, 168092, Note_off_c, 0, 84, 100
2, 168096, Note_on_c, 0, 77, 80
2, 168188, Note_off_c, 0, 77, 100
2, 168288, Note_on_c, 0, 72, 80
2, 168380, Note_off_c, 0, 72, 100
2, 168384, Note_on_c, 0, 82, 80
2, 168476, Note_off_c, 0, 82, 100
2, 168480, Note_on_c, 0, 76, 80
2, 168572, Note_off_c, 0, 76, 100
2, 168672, Note_on_c, 0, 72, 80
2, 168764, Note_off_c, 0, 72, 100
2, 168768, Note_on_c, 0, 81, 80
2, 168860, Note_off_c, 0, 81, 100
2, 168864, Note_on_c, 0, 77, 80
2, 168956, Note_off_c, 0, 77, 100
2, 168960, Note_on_c, 0, 81, 80
2, 169052, Note_off_c, 0, 81, 100
2, 169056, Note_on_c, 0, 77, 80
2, 169148, Note_off_c, 0, 77, 100
2, 169152, Note_on_c, 0, 81, 80
2, 169244, Note_off_c, 0, 81, 100
2, 169248, Note_on_c, 0, 77, 80
2, 169340, Note_off_c, 0, 77, 100
2, 169440, Note_on_c, 0, 69, 80
2, 169532, Note_off_c, 0, 69, 100
2, 169536, Note_on_c, 0, 81, 81
2, 169628, Note_off_c, 0, 81, 100
2, 169632, Note_on_c, 0, 72, 82
2, 169724, Note_off_c, 0, 72, 100
2, 169824, Note_on_c, 0, 69, 84
2, 169916, Note_off_c, 0, 69, 100
2, 169920, Note_on_c, 0, 79, 85
2, 170012, Note_off_c, 0, 79, 100
2, 170016, Note_on_c, 0, 73, 86
2, 170108, Note_off_c, 0, 73, 100
2, 170208, Note_on_c, 0, 69, 88
2, 170300, Note_off_c, 0, 69, 100
2, 170304, Note_on_c, 0, 77, 89
2, 170396, Note_off_c, 0, 77, 100
2, 170400, Note_on_c, 0, 74, 90
2, 170492, Note_off_c, 0, 74, 100
2, 170592, Note_on_c, 0, 67, 92
2, 170684, Note_off_c, 0, 67, 100
2, 170688, Note_on_c, 0, 76, 93
2, 170780, Note_off_c, 0, 76, 100
2, 170784, Note_on_c, 0, 73, 94
2, 170876, Note_off_c, 0, 73, 100
2, 170976, Note_on_c, 0, 65, 96
2, 171068, Note_off_c, 0, 65, 100
2, 171072, Note_on_c, 0, 74, 97
2, 171164, Note_off_c, 0, 74, 100
2, 171168, Note_on_c, 0, 69, 98
2, 171260, Note_off_c, 0, 69, 100
2, 171360, Note_on_c, 0, 63, 100
2, 171452, Note_off_c, 0, 63, 100
2, 171456, Note_on_c, 0, 72, 101
2, 171548, Note_off_c, 0, 72, 100
2, 171552, Note_on_c, 0, 69, 102
2, 171644, Note_off_c, 0, 69, 100
2, 171744, Note_on_c, 0, 62, 104
2, 171836, Note_off_c, 0, 62, 100
2, 171840, Note_on_c, 0, 72, 105
2, 171932, Note_off_c, 0, 72, 100
2, 171936, Note_on_c, 0, 67, 106
2, 172028, Note_off_c, 0, 67, 100
2, 172032, Note_on_c, 0, 71, 107
2, 172124, Note_off_c, 0, 71, 100
2, 172128, Note_on_c, 0, 67, 108
2, 172220, Note_off_c, 0, 67, 100
2, 172224, Note_on_c, 0, 62, 108
2, 172316, Note_off_c, 0, 62, 100
2, 172320, Note_on_c, 0, 67, 109
2, 172412, Note_off_c, 0, 67, 100
2, 172512, Note_on_c, 0, 60, 80
2, 172604, Note_off_c, 0, 60, 100
2, 172608, Note_on_c, 0, 72, 80
2, 172700, Note_off_c, 0, 72, 100
2, 172704, Note_on_c, 0, 67, 80
2, 172796, Note_off_c, 0, 67, 100
2, 172896, Note_on_c, 0, 65, 80
2, 172988, Note_off_c, 0, 65, 100
2, 172992, Note_on_c, 0, 71, 80
2, 173084, Note_off_c, 0, 71, 100
2, 173088, Note_on_c, 0, 67, 80
2, 173180, Note_off_c, 0, 67, 100
2, 173280, Note_on_c, 0, 64, 80
2, 173372, Note_off_c, 0, 64, 100
2, 173376, Note_on_c, 0, 72, 80
2, 173468, Note_off_c, 0, 72, 100
2, 173472, Note_on_c, 0, 67, 80
2, 173564, Note_off_c, 0, 67, 100
2, 173664, Note_on_c, 0, 62, 80
2, 173756, Note_off_c, 0, 62, 100
2, 173760, Note_on_c, 0, 74, 80
2, 173852, Note_off_c, 0, 74, 100
2, 173856, Note_on_c, 0, 67, 80
2, 173948, Note_off_c, 0, 67, 100
2, 174048, Note_on_c, 0, 67, 80
2, 174140, Note_off_c, 0, 67, 100
2, 174144, Note_on_c, 0, 76, 80
2, 174236, Note_off_c, 0, 76, 100
2, 174240, Note_on_c, 0, 72, 80
2, 174332, Note_off_c, 0, 72, 100
2, 174432, Note_on_c, 0, 69, 80
2, 174524, Note_off_c, 0, 69, 100
2, 174528, Note_on_c, 0, 77, 80
2, 174620, Note_off_c, 0, 77, 100
2, 174624, Note_on_c, 0, 74, 80
2, 174716, Note_off_c, 0, 74, 100
2, 174816, Note_on_c, 0, 67, 80
2, 174908, Note_off_c, 0, 67, 100
2, 174912, Note_on_c, 0, 74, 80
2, 175004, Note_off_c, 0, 74, 100
2, 175008, Note_on_c, 0, 71, 80
2, 175100, Note_off_c, 0, 71, 100
2, 175104, Note_on_c, 0, 74, 80
2, 175196, Note_off_c, 0, 74, 100
2, 175200, Note_on_c, 0, 71, 80
2, 175292, Note_off_c, 0, 71, 100
2, 175296, Note_on_c, 0, 74, 80
2, 175388, Note_off_c, 0, 74, 100
2, 175392, Note_on_c, 0, 71, 80
2, 175484, Note_off_c, 0, 71, 100
2, 175584, Note_on_c, 0, 67, 81
2, 175676, Note_off_c, 0, 67, 100
2, 175680, Note_on_c, 0, 79, 82
2, 175772, Note_off_c, 0, 79, 100
2, 175776, Note_on_c, 0, 72, 83
2, 175868, Note_off_c, 0, 72, 100
2, 175968, Note_on_c, 0, 70, 86
2, 176060, Note_off_c, 0, 70, 100
2, 176064, Note_on_c, 0, 79, 87
2, 176156, Note_off_c, 0, 79, 100
2, 176160, Note_on_c, 0, 73, 89
2, 176252, Note_off_c, 0, 73, 100
2, 176352, Note_on_c, 0, 69, 91
2, 176444, Note_off_c, 0, 69, 100
2, 176448, Note_on_c, 0, 79, 93
2, 176540, Note_off_c, 0, 79, 100
2, 176544, Note_on_c, 0, 73, 94
2, 176636, Note_off_c, 0, 73, 100
2, 176736, Note_on_c, 0, 69, 96
2, 176828, Note_off_c, 0, 69, 100
2, 176832, Note_on_c, 0, 77, 98
2, 176924, Note_off_c, 0, 77, 100
2, 176928, Note_on_c, 0, 74, 99
2, 177020, Note_off_c, 0, 74, 100
2, 177120, Note_on_c, 0, 67, 102
2, 177212, Note_off_c, 0, 67, 100
2, 177216, Note_on_c, 0, 76, 103
2, 177308, Note_off_c, 0, 76, 100
2, 177312, Note_on_c, 0, 72, 104
2, 177404, Note_off_c, 0, 72, 100
2, 177504, Note_on_c, 0, 65, 107
2, 177596, Note_off_c, 0, 65, 100
2, 177600, Note_on_c, 0, 74, 108
2, 177692, Note_off_c, 0, 74, 100
2, 177696, Note_on_c, 0, 71, 109
2, 177788, Note_off_c, 0, 71, 100
2, 177888, Note_on_c, 0, 64, 98
2, 177980, Note_off_c, 0, 64, 100
2, 177984, Note_on_c, 0, 72, 95
2, 178076, Note_off_c, 0, 72, 100
2, 178080, Note_on_c, 0, 67, 92
2, 178172, Note_off_c, 0, 67, 100
2, 178176, Note_on_c, 0, 65, 89
2, 178268, Note_off_c, 0, 65, 100
2, 178272, Note_on_c, 0, 64, 86
2, 178364, Note_off_c, 0, 64, 100
2, 178368, Note_on_c, 0, 62, 83
2, 178460, Note_off_c, 0, 62, 100
2, 178464, Note_on_c, 0, 60, 81
2, 178556, Note_off_c, 0, 60, 100
2, 178656, Note_on_c, 0, 50, 80
2, 178748, Note_off_c, 0, 50, 100
2, 178752, Note_on_c, 0, 59, 80
2, 178844, Note_off_c, 0, 59, 100
2, 178848, Note_on_c, 0, 53, 80
2, 178940, Note_off_c, 0, 53, 100
2, 179040, Note_on_c, 0, 52, 80
2, 179132, Note_off_c, 0, 52, 100
2, 179136, Note_on_c, 0, 60, 80
2, 179228, Note_off_c, 0, 60, 100
2, 179232, Note_on_c, 0, 55, 80
2, 179324, Note_off_c, 0, 55, 100
2, 179424, Note_on_c, 0, 52, 80
2, 179516, Note_off_c, 0, 52, 100
2, 179520, Note_on_c, 0, 61, 80
2, 179612, Note_off_c, 0, 61, 100
2, 179616, Note_on_c, 0, 55, 80
2, 179708, Note_off_c, 0, 55, 100
2, 179808, Note_on_c, 0, 53, 80
2, 179900, Note_off_c, 0, 53, 100
2, 179904, Note_on_c, 0, 62, 80
2, 179996, Note_off_c, 0, 62, 100
2, 180000, Note_on_c, 0, 57, 80
2, 180092, Note_off_c, 0, 57, 100
2, 180192, Note_on_c, 0, 54, 80
2, 180284, Note_off_c, 0, 54, 100
2, 180288, Note_on_c, 0, 63, 80
2, 180380, Note_off_c, 0, 63, 100
2, 180384, Note_on_c, 0, 57, 80
2, 180476, Note_off_c, 0, 57, 100
2, 180576, Note_on_c, 0, 55, 80
2, 180668, Note_off_c, 0, 55, 100
2, 180672, Note_on_c, 0, 64, 80
2, 180764, Note_off_c, 0, 64, 100
2, 180768, Note_on_c, 0, 59, 80
2, 180860, Note_off_c, 0, 59, 100
2, 180960, Note_on_c, 0, 55, 100
2, 181052, Note_off_c, 0, 55, 100
2, 181056, Note_on_c, 0, 65, 100
2, 181148, Note_off_c, 0, 65, 100
2, 181152, Note_on_c, 0, 59, 100
2, 181244, Note_off_c, 0, 59, 100
2, 181248, Note_on_c, 0, 65, 100
2, 181340, Note_off_c, 0, 65, 100
2, 181344, Note_on_c, 0, 59, 100
2, 181436, Note_off_c, 0, 59, 100
2, 181440, Note_on_c, 0, 65, 100
2, 181532, Note_off_c, 0, 65, 100
2, 181536, Note_on_c, 0, 59, 100
2, 181628, Note_off_c, 0, 59, 100
2, 181728, Note_on_c, 0, 55, 99
2, 181820, Note_off_c, 0, 55, 100
2, 181824, Note_on_c, 0, 65, 98
2, 181916, Note_off_c, 0, 65, 100
2, 181920, Note_on_c, 0, 59, 97
2, 182012, Note_off_c, 0, 59, 100
2, 182112, Note_on_c, 0, 55, 94
2, 182204, Note_off_c, 0, 55, 100
2, 182208, Note_on_c, 0, 64, 93
2, 182300, Note_off_c, 0, 64, 100
2, 182304, Note_on_c, 0, 60, 91
2, 182396, Note_off_c, 0, 60, 100
2, 182496, Note_on_c, 0, 53, 89
2, 182588, Note_off_c, 0, 53, 100
2, 182592, Note_on_c, 0, 62, 87
2, 182684, Note_off_c, 0, 62, 100
2, 182688, Note_on_c, 0, 60, 86
2, 182780, Note_off_c, 0, 60, 100
2, 182880, Note_on_c, 0, 57, 83
2, 182972, Note_off_c, 0, 57, 100
2, 182976, Note_on_c, 0, 65, 82
2, 183068, Note_off_c, 0, 65, 100
2, 183072, Note_on_c, 0, 60, 81
2, 183164, Note_off_c, 0, 60, 100
2, 183264, Note_on_c, 0, 55, 80
2, 183356, Note_off_c, 0, 55, 100
2, 183360, Note_on_c, 0, 64, 80
2, 183452, Note_off_c, 0, 64, 100
2, 183456, Note_on_c, 0, 60, 80
2, 183548, Note_off_c, 0, 60, 100
2, 183648, Note_on_c, 0, 53, 80
2, 183740, Note_off_c, 0, 53, 100
2, 183744, Note_on_c, 0, 62, 80
2, 183836, Note_off_c, 0, 62, 100
2, 183840, Note_on_c, 0, 59, 80
2, 183932, Note_off_c, 0, 59, 100
2, 184032, Note_on_c, 0, 60, 80
2, 184124, Note_off_c, 0, 60, 100
2, 184128, Note_on_c, 0, 62, 80
2, 184220, Note_off_c, 0, 62, 100
2, 184224, Note_on_c, 0, 64, 80
2, 184316, Note_off_c, 0, 64, 100
2, 184320, Note_on_c, 0, 65, 80
2, 184412, Note_off_c, 0, 65, 100
2, 184416, Note_on_c, 0, 67, 80
2, 184508, Note_off_c, 0, 67, 100
2, 184512, Note_on_c, 0, 69, 80
2, 184604, Note_off_c, 0, 69, 100
2, 184608, Note_on_c, 0, 71, 80
2, 184700, Note_off_c, 0, 71, 100
2, 184704, Note_on_c, 0, 72, 80
2, 184704, Note_on_c, 0, 67, 80
2, 184892, Note_off_c, 0, 72, 100
2, 184892, Note_off_c, 0, 67, 100
2, 185088, Note_on_c, 0, 71, 80
2, 185088, Note_on_c, 0, 67, 80
2, 185276, Note_off_c, 0, 71, 100
2, 185276, Note_off_c, 0, 67, 100
2, 185472, Note_on_c, 0, 72, 80
2, 185472, Note_on_c, 0, 67, 80
2, 185660, Note_off_c, 0, 72, 100
2, 185660, Note_off_c, 0, 67, 100
2, 185856, Note_on_c, 0, 74, 80
2, 185856, Note_on_c, 0, 67, 80
2, 186044, Note_off_c, 0, 74, 100
2, 186044, Note_off_c, 0, 67, 100
2, 186240, Note_on_c, 0, 76, 80
2, 186240, Note_on_c, 0, 67, 80
2, 186428, Note_off_c, 0, 76, 100
2, 186428, Note_off_c, 0, 67, 100
2, 186624, Note_on_c, 0, 77, 80
2, 186624, Note_on_c, 0, 69, 80
2, 186812, Note_off_c, 0, 77, 100
2, 186812, Note_off_c, 0, 69, 100
2, 187008, Note_on_c, 0, 74, 80
2, 187008, Note_on_c, 0, 67, 80
2, 187196, Note_off_c, 0, 74, 100
2, 187196, Note_off_c, 0, 67, 100
2, 187776, Note_on_c, 0, 79, 70
2, 187964, Note_off_c, 0, 79, 100
2, 188160, Note_on_c, 0, 79, 70
2, 188160, Note_on_c, 0, 77, 70
2, 188348, Note_off_c, 0, 79, 100
2, 188348, Note_off_c, 0, 77, 100
2, 188544, Note_on_c, 0, 79, 70
2, 188544, Note_on_c, 0, 76, 70
2, 188732, Note_off_c, 0, 79, 100
2, 188732, Note_off_c, 0, 76, 100
2, 188928, Note_on_c, 0, 80, 70
2, 188928, Note_on_c, 0, 74, 70
2, 189116, Note_off_c, 0, 80, 100
2, 189116, Note_off_c, 0, 74, 100
2, 189312, Note_on_c, 0, 81, 70
2, 189312, Note_on_c, 0, 72, 70
2, 189500, Note_off_c, 0, 81, 100
2, 189500, Note_off_c, 0, 72, 100
2, 190080, Note_on_c, 0, 65, 70
2, 190080, Note_on_c, 0, 62, 70
2, 190080, Note_on_c, 0, 57, 70
2, 190268, Note_off_c, 0, 65, 100
2, 190268, Note_off_c, 0, 62, 100
2, 190268, Note_off_c, 0, 57, 100
2, 190848, Note_on_c, 0, 76, 70
2, 190848, Note_on_c, 0, 72, 70
2, 190848, Note_on_c, 0, 67, 70
2, 191036, Note_off_c, 0, 76, 100
2, 191036, Note_off_c, 0, 72, 100
2, 191036, Note_off_c, 0, 67, 100
2, 191616, Note_on_c, 0, 62, 70
2, 191616, Note_on_c, 0, 59, 70
2, 191616, Note_on_c, 0, 53, 70
2, 191804, Note_off_c, 0, 62, 100
2, 191804, Note_off_c, 0, 59, 100
2, 191804, Note_off_c, 0, 53, 100
2, 192384, Note_on_c, 0, 84, 120
2, 192384, Note_on_c, 0, 79, 120
2, 192384, Note_on_c, 0, 76, 120
2, 192384, Note_on_c, 0, 72, 120
2, 193148, Note_off_c, 0, 84, 100
2, 193148, Note_off_c, 0, 79, 100
2, 193148, Note_off_c, 0, 76, 100
2, 193148, Note_off_c, 0, 72, 100
2, 193920, Control_c, 0, 7, 0
2, 194304, Note_on_c, 0, 72, 1
2, 194492, Note_off_c, 0, 72, 100
2, 194492, End_track
3, 0, Start_track
3, 0, Title_t, "Left"
3, 0, Control_c, 1, 0, 0
3, 0, Program_c, 1, 0
3, 0, Control_c, 1, 7, 100
3, 0, Control_c, 1, 10, 53
3, 0, Control_c, 1, 91, 127
3, 0, Key_signature, 0, "major"
3, 384, Note_on_c, 1, 48, 80
3, 572, Note_off_c, 1, 48, 100
3, 768, Note_on_c, 1, 50, 80
3, 956, Note_off_c, 1, 50, 100
3, 1152, Note_on_c, 1, 52, 80
3, 1340, Note_off_c, 1, 52, 100
3, 1536, Note_on_c, 1, 47, 80
3, 1724, Note_off_c, 1, 47, 100
3, 1920, Note_on_c, 1, 48, 80
3, 2108, Note_off_c, 1, 48, 100
3, 2304, Note_on_c, 1, 41, 80
3, 2492, Note_off_c, 1, 41, 100
3, 2688, Note_on_c, 1, 43, 80
3, 3068, Note_off_c, 1, 43, 100
3, 3072, Note_on_c, 1, 55, 80
3, 3356, Note_off_c, 1, 55, 100
3, 3360, Note_on_c, 1, 53, 80
3, 3452, Note_off_c, 1, 53, 100
3, 3456, Note_on_c, 1, 52, 80
3, 3644, Note_off_c, 1, 52, 100
3, 3840, Note_on_c, 1, 50, 80
3, 4028, Note_off_c, 1, 50, 100
3, 4224, Note_on_c, 1, 48, 80
3, 4412, Note_off_c, 1, 48, 100
3, 4608, Note_on_c, 1, 47, 80
3, 4796, Note_off_c, 1, 47, 100
3, 4992, Note_on_c, 1, 45, 80
3, 5180, Note_off_c, 1, 45, 100
3, 5376, Note_on_c, 1, 41, 80
3, 5564, Note_off_c, 1, 41, 100
3, 5760, Note_on_c, 1, 43, 80
3, 6524, Note_off_c, 1, 43, 100
3, 6528, Note_on_c, 1, 48, 80
3, 6716, Note_off_c, 1, 48, 100
3, 6912, Note_on_c, 1, 50, 80
3, 7100, Note_off_c, 1, 50, 100
3, 7296, Note_on_c, 1, 52, 80
3, 7484, Note_off_c, 1, 52, 100
3, 7680, Note_on_c, 1, 47, 80
3, 7868, Note_off_c, 1, 47, 100
3, 8064, Note_on_c, 1, 48, 80
3, 8252, Note_off_c, 1, 48, 100
3, 8448, Note_on_c, 1, 50, 80
3, 8448, Note_on_c, 1, 45, 80
3, 8636, Note_off_c, 1, 50, 100
3, 8636, Note_off_c, 1, 45, 100
3, 8832, Note_on_c, 1, 50, 80
3, 8832, Note_on_c, 1, 47, 80
3, 9596, Note_off_c, 1, 50, 100
3, 9596, Note_off_c, 1, 47, 100
3, 9600, Note_on_c, 1, 55, 80
3, 9600, Note_on_c, 1, 48, 80
3, 9788, Note_off_c, 1, 55, 100
3, 9788, Note_off_c, 1, 48, 100
3, 9984, Note_on_c, 1, 55, 80
3, 9984, Note_on_c, 1, 49, 80
3, 10172, Note_off_c, 1, 55, 100
3, 10172, Note_off_c, 1, 49, 100
3, 10368, Note_on_c, 1, 55, 80
3, 10368, Note_on_c, 1, 50, 80
3, 11132, Note_off_c, 1, 55, 100
3, 11132, Note_off_c, 1, 50, 100
3, 11136, Note_on_c, 1, 57, 80
3, 11136, Note_on_c, 1, 50, 80
3, 11324, Note_off_c, 1, 57, 100
3, 11324, Note_off_c, 1, 50, 100
3, 11520, Note_on_c, 1, 60, 80
3, 11520, Note_on_c, 1, 50, 80
3, 11708, Note_off_c, 1, 60, 100
3, 11708, Note_off_c, 1, 50, 100
3, 11904, Note_on_c, 1, 55, 80
3, 11904, Note_on_c, 1, 59, 80
3, 12284, Note_off_c, 1, 55, 100
3, 12284, Note_off_c, 1, 59, 100
3, 12672, Note_on_c, 1, 67, 80
3, 12672, Note_on_c, 1, 64, 80
3, 13052, Note_off_c, 1, 67, 100
3, 13052, Note_off_c, 1, 64, 100
3, 13056, Note_on_c, 1, 67, 80
3, 13056, Note_on_c, 1, 62, 80
3, 13436, Note_off_c, 1, 67, 100
3, 13436, Note_off_c, 1, 62, 100
3, 13440, Note_on_c, 1, 67, 80
3, 13440, Note_on_c, 1, 60, 80
3, 13820, Note_off_c, 1, 67, 100
3, 13820, Note_off_c, 1, 60, 100
3, 13824, Note_on_c, 1, 67, 80
3, 13824, Note_on_c, 1, 58, 80
3, 14204, Note_off_c, 1, 67, 100
3, 14204, Note_off_c, 1, 58, 100
3, 14208, Note_on_c, 1, 65, 80
3, 14208, Note_on_c, 1, 57, 80
3, 14588, Note_off_c, 1, 65, 100
3, 14588, Note_off_c, 1, 57, 100
3, 14592, Note_on_c, 1, 64, 80
3, 14592, Note_on_c, 1, 55, 80
3, 14972, Note_off_c, 1, 64, 100
3, 14972, Note_off_c, 1, 55, 100
3, 14976, Note_on_c, 1, 65, 80
3, 14976, Note_on_c, 1, 53, 80
3, 15740, Note_off_c, 1, 65, 100
3, 15740, Note_off_c, 1, 53, 100
3, 15744, Note_on_c, 1, 60, 80
3, 15744, Note_on_c, 1, 53, 80
3, 16124, Note_off_c, 1, 60, 100
3, 16124, Note_off_c, 1, 53, 100
3, 16128, Note_on_c, 1, 60, 80
3, 16128, Note_on_c, 1, 52, 80
3, 16508, Note_off_c, 1, 60, 100
3, 16508, Note_off_c, 1, 52, 100
3, 16512, Note_on_c, 1, 62, 80
3, 16512, Note_on_c, 1, 50, 80
3, 16892, Note_off_c, 1, 62, 100
3, 16892, Note_off_c, 1, 50, 100
3, 16896, Note_on_c, 1, 52, 80
3, 17276, Note_off_c, 1, 52, 100
3, 17280, Note_on_c, 1, 53, 80
3, 17660, Note_off_c, 1, 53, 100
3, 17664, Note_on_c, 1, 54, 80
3, 18044, Note_off_c, 1, 54, 100
3, 18048, Note_on_c, 1, 55, 80
3, 18428, Note_off_c, 1, 55, 100
3, 18432, Note_on_c, 1, 67, 80
3, 18716, Note_off_c, 1, 67, 100
3, 18720, Note_on_c, 1, 65, 80
3, 18812, Note_off_c, 1, 65, 100
3, 18816, Note_on_c, 1, 64, 80
3, 19004, Note_off_c, 1, 64, 100
3, 19200, Note_on_c, 1, 62, 80
3, 19388, Note_off_c, 1, 62, 100
3, 19584, Note_on_c, 1, 60, 80
3, 19772, Note_off_c, 1, 60, 100
3, 19968, Note_on_c, 1, 59, 80
3, 19968, Note_on_c, 1, 55, 80
3, 19968, Note_on_c, 1, 47, 80
3, 19968, Note_on_c, 1, 50, 80
3, 20156, Note_off_c, 1, 59, 100
3, 20156, Note_off_c, 1, 55, 100
3, 20156, Note_off_c, 1, 47, 100
3, 20156, Note_off_c, 1, 50, 100
3, 20352, Note_on_c, 1, 60, 80
3, 20352, Note_on_c, 1, 55, 80
3, 20352, Note_on_c, 1, 52, 80
3, 20352, Note_on_c, 1, 48, 80
3, 20540, Note_off_c, 1, 60, 100
3, 20540, Note_off_c, 1, 55, 100
3, 20540, Note_off_c, 1, 52, 100
3, 20540, Note_off_c, 1, 48, 100
3, 20736, Note_on_c, 1, 53, 80
3, 20736, Note_on_c, 1, 50, 80
3, 20736, Note_on_c, 1, 45, 80
3, 20736, Note_on_c, 1, 41, 80
3, 20924, Note_off_c, 1, 53, 100
3, 20924, Note_off_c, 1, 50, 100
3, 20924, Note_off_c, 1, 45, 100
3, 20924, Note_off_c, 1, 41, 100
3, 21120, Note_on_c, 1, 55, 80
3, 21120, Note_on_c, 1, 50, 80
3, 21120, Note_on_c, 1, 47, 80
3, 21120, Note_on_c, 1, 43, 80
3, 21308, Note_off_c, 1, 55, 100
3, 21308, Note_off_c, 1, 50, 100
3, 21308, Note_off_c, 1, 47, 100
3, 21308, Note_off_c, 1, 43, 100
3, 21696, Note_on_c, 1, 59, 100
3, 21696, Note_on_c, 1, 53, 100
3, 21884, Note_off_c, 1, 59, 100
3, 21884, Note_off_c, 1, 53, 100
3, 21888, Note_on_c, 1, 60, 100
3, 21888, Note_on_c, 1, 52, 100
3, 22268, Note_off_c, 1, 60, 100
3, 22268, Note_off_c, 1, 52, 100
3, 22272, Note_on_c, 1, 52, 100
3, 22272, Note_on_c, 1, 61, 100
3, 22652, Note_off_c, 1, 52, 100
3, 22656, Note_on_c, 1, 53, 100
3, 23036, Note_off_c, 1, 61, 100
3, 23040, Note_on_c, 1, 62, 100
3, 23420, Note_off_c, 1, 53, 100
3, 23420, Note_off_c, 1, 62, 100
3, 23424, Note_on_c, 1, 55, 80
3, 23612, Note_off_c, 1, 55, 100
3, 23808, Note_on_c, 1, 43, 80
3, 23996, Note_off_c, 1, 43, 100
3, 24192, Note_on_c, 1, 48, 80
3, 24380, Note_off_c, 1, 48, 100
3, 24960, Note_on_c, 1, 43, 80
3, 25148, Note_off_c, 1, 43, 100
3, 25344, Note_on_c, 1, 36, 100
3, 25532, Note_off_c, 1, 36, 100
3, 25728, Note_on_c, 1, 45, 80
3, 25916, Note_off_c, 1, 45, 100
3, 26112, Note_on_c, 1, 38, 100
3, 26300, Note_off_c, 1, 38, 100
3, 26496, Note_on_c, 1, 47, 80
3, 26684, Note_off_c, 1, 47, 100
3, 26880, Note_on_c, 1, 40, 100
3, 27068, Note_off_c, 1, 40, 100
3, 27264, Note_on_c, 1, 50, 100
3, 27264, Note_on_c, 1, 38, 100
3, 28028, Note_off_c, 1, 50, 100
3, 28028, Note_off_c, 1, 38, 100
3, 28032, Note_on_c, 1, 36, 80
3, 28412, Note_off_c, 1, 36, 100
3, 28416, Note_on_c, 1, 48, 80
3, 28796, Note_off_c, 1, 48, 100
3, 28800, Note_on_c, 1, 45, 80
3, 29180, Note_off_c, 1, 45, 100
3, 29184, Note_on_c, 1, 41, 80
3, 29564, Note_off_c, 1, 41, 100
3, 29568, Note_on_c, 1, 43, 80
3, 29756, Note_off_c, 1, 43, 100
3, 29952, Note_on_c, 1, 31, 80
3, 30140, Note_off_c, 1, 31, 100
3, 30336, Note_on_c, 1, 36, 80
3, 30524, Note_off_c, 1, 36, 100
3, 31104, Note_on_c, 1, 67, 80
3, 31104, Note_on_c, 1, 64, 80
3, 31484, Note_off_c, 1, 67, 100
3, 31484, Note_off_c, 1, 64, 100
3, 31488, Note_on_c, 1, 67, 80
3, 31488, Note_on_c, 1, 62, 80
3, 31868, Note_off_c, 1, 67, 100
3, 31868, Note_off_c, 1, 62, 100
3, 31872, Note_on_c, 1, 67, 80
3, 31872, Note_on_c, 1, 60, 80
3, 32252, Note_off_c, 1, 67, 100
3, 32252, Note_off_c, 1, 60, 100
3, 32256, Note_on_c, 1, 67, 80
3, 32256, Note_on_c, 1, 58, 80
3, 32636, Note_off_c, 1, 67, 100
3, 32636, Note_off_c, 1, 58, 100
3, 32640, Note_on_c, 1, 65, 80
3, 32640, Note_on_c, 1, 57, 80
3, 33020, Note_off_c, 1, 65, 100
3, 33020, Note_off_c, 1, 57, 100
3, 33024, Note_on_c, 1, 64, 80
3, 33024, Note_on_c, 1, 55, 80
3, 33404, Note_off_c, 1, 64, 100
3, 33404, Note_off_c, 1, 55, 100
3, 33408, Note_on_c, 1, 65, 80
3, 33408, Note_on_c, 1, 53, 80
3, 34172, Note_off_c, 1, 65, 100
3, 34172, Note_off_c, 1, 53, 100
3, 34176, Note_on_c, 1, 60, 80
3, 34176, Note_on_c, 1, 53, 80
3, 34556, Note_off_c, 1, 60, 100
3, 34556, Note_off_c, 1, 53, 100
3, 34560, Note_on_c, 1, 60, 82
3, 34560, Note_on_c, 1, 52, 82
3, 34940, Note_off_c, 1, 60, 100
3, 34940, Note_off_c, 1, 52, 100
3, 34944, Note_on_c, 1, 62, 85
3, 34944, Note_on_c, 1, 50, 85
3, 35324, Note_off_c, 1, 62, 100
3, 35324, Note_off_c, 1, 50, 100
3, 35328, Note_on_c, 1, 52, 87
3, 35708, Note_off_c, 1, 52, 100
3, 35712, Note_on_c, 1, 53, 90
3, 36092, Note_off_c, 1, 53, 100
3, 36096, Note_on_c, 1, 54, 92
3, 36476, Note_off_c, 1, 54, 100
3, 36480, Note_on_c, 1, 55, 95
3, 36860, Note_off_c, 1, 55, 100
3, 36864, Note_on_c, 1, 67, 98
3, 37148, Note_off_c, 1, 67, 100
3, 37152, Note_on_c, 1, 65, 99
3, 37244, Note_off_c, 1, 65, 100
3, 37248, Note_on_c, 1, 64, 80
3, 37436, Note_off_c, 1, 64, 100
3, 37632, Note_on_c, 1, 62, 80
3, 37820, Note_off_c, 1, 62, 100
3, 38016, Note_on_c, 1, 60, 80
3, 38204, Note_off_c, 1, 60, 100
3, 38400, Note_on_c, 1, 59, 80
3, 38400, Note_on_c, 1, 55, 80
3, 38400, Note_on_c, 1, 47, 80
3, 38400, Note_on_c, 1, 50, 80
3, 38588, Note_off_c, 1, 59, 100
3, 38588, Note_off_c, 1, 55, 100
3, 38588, Note_off_c, 1, 47, 100
3, 38588, Note_off_c, 1, 50, 100
3, 38784, Note_on_c, 1, 60, 80
3, 38784, Note_on_c, 1, 55, 80
3, 38784, Note_on_c, 1, 52, 80
3, 38784, Note_on_c, 1, 48, 80
3, 38972, Note_off_c, 1, 60, 100
3, 38972, Note_off_c, 1, 55, 100
3, 38972, Note_off_c, 1, 52, 100
3, 38972, Note_off_c, 1, 48, 100
3, 39168, Note_on_c, 1, 53, 80
3, 39168, Note_on_c, 1, 50, 80
3, 39168, Note_on_c, 1, 45, 80
3, 39168, Note_on_c, 1, 41, 80
3, 39356, Note_off_c, 1, 53, 100
3, 39356, Note_off_c, 1, 50, 100
3, 39356, Note_off_c, 1, 45, 100
3, 39356, Note_off_c, 1, 41, 100
3, 39552, Note_on_c, 1, 55, 80
3, 39552, Note_on_c, 1, 50, 80
3, 39552, Note_on_c, 1, 47, 80
3, 39552, Note_on_c, 1, 43, 80
3, 39740, Note_off_c, 1, 55, 100
3, 39740, Note_off_c, 1, 50, 100
3, 39740, Note_off_c, 1, 47, 100
3, 39740, Note_off_c, 1, 43, 100
3, 40128, Note_on_c, 1, 59, 100
3, 40128, Note_on_c, 1, 53, 100
3, 40316, Note_off_c, 1, 59, 100
3, 40316, Note_off_c, 1, 53, 100
3, 40320, Note_on_c, 1, 60, 100
3, 40320, Note_on_c, 1, 52, 100
3, 40700, Note_off_c, 1, 60, 100
3, 40700, Note_off_c, 1, 52, 100
3, 40704, Note_on_c, 1, 52, 100
3, 40704, Note_on_c, 1, 61, 100
3, 41084, Note_off_c, 1, 52, 100
3, 41088, Note_on_c, 1, 53, 100
3, 41468, Note_off_c, 1, 61, 100
3, 41472, Note_on_c, 1, 62, 100
3, 41852, Note_off_c, 1, 53, 100
3, 41852, Note_off_c, 1, 62, 100
3, 41856, Note_on_c, 1, 55, 80
3, 42044, Note_off_c, 1, 55, 100
3, 42240, Note_on_c, 1, 43, 80
3, 42428, Note_off_c, 1, 43, 100
3, 42624, Note_on_c, 1, 48, 80
3, 42812, Note_off_c, 1, 48, 100
3, 43392, Note_on_c, 1, 43, 80
3, 43580, Note_off_c, 1, 43, 100
3, 43776, Note_on_c, 1, 36, 100
3, 43964, Note_off_c, 1, 36, 100
3, 44160, Note_on_c, 1, 45, 80
3, 44348, Note_off_c, 1, 45, 100
3, 44544, Note_on_c, 1, 38, 100
3, 44732, Note_off_c, 1, 38, 100
3, 44928, Note_on_c, 1, 47, 80
3, 45116, Note_off_c, 1, 47, 100
3, 45312, Note_on_c, 1, 40, 100
3, 45500, Note_off_c, 1, 40, 100
3, 45696, Note_on_c, 1, 50, 100
3, 45696, Note_on_c, 1, 38, 100
3, 46460, Note_off_c, 1, 50, 100
3, 46460, Note_off_c, 1, 38, 100
3, 46464, Note_on_c, 1, 36, 80
3, 46844, Note_off_c, 1, 36, 100
3, 46848, Note_on_c, 1, 48, 80
3, 47228, Note_off_c, 1, 48, 100
3, 47232, Note_on_c, 1, 45, 80
3, 47612, Note_off_c, 1, 45, 100
3, 47616, Note_on_c, 1, 41, 80
3, 47996, Note_off_c, 1, 41, 100
3, 48000, Note_on_c, 1, 43, 80
3, 48188, Note_off_c, 1, 43, 100
3, 48384, Note_on_c, 1, 31, 80
3, 48572, Note_off_c, 1, 31, 100
3, 48768, Note_on_c, 1, 36, 80
3, 48956, Note_off_c, 1, 36, 100
3, 49440, Note_on_c, 1, 55, 80
3, 49532, Note_off_c, 1, 55, 100
3, 49536, Note_on_c, 1, 60, 80
3, 49536, Note_on_c, 1, 52, 80
3, 49916, Note_off_c, 1, 60, 100
3, 49916, Note_off_c, 1, 52, 100
3, 49920, Note_on_c, 1, 59, 80
3, 49920, Note_on_c, 1, 53, 80
3, 50300, Note_off_c, 1, 59, 100
3, 50300, Note_off_c, 1, 53, 100
3, 50304, Note_on_c, 1, 60, 80
3, 50304, Note_on_c, 1, 52, 80
3, 50684, Note_off_c, 1, 60, 100
3, 50684, Note_off_c, 1, 52, 100
3, 50688, Note_on_c, 1, 62, 80
3, 50688, Note_on_c, 1, 59, 80
3, 51068, Note_off_c, 1, 62, 100
3, 51068, Note_off_c, 1, 59, 100
3, 51072, Note_on_c, 1, 64, 80
3, 51072, Note_on_c, 1, 60, 80
3, 51452, Note_off_c, 1, 64, 100
3, 51452, Note_off_c, 1, 60, 100
3, 51456, Note_on_c, 1, 65, 80
3, 51456, Note_on_c, 1, 62, 80
3, 51836, Note_off_c, 1, 65, 100
3, 51836, Note_off_c, 1, 62, 100
3, 51840, Note_on_c, 1, 62, 80
3, 51840, Note_on_c, 1, 59, 80
3, 52604, Note_off_c, 1, 62, 100
3, 52604, Note_off_c, 1, 59, 100
3, 52608, Note_on_c, 1, 67, 80
3, 52608, Note_on_c, 1, 64, 80
3, 52988, Note_off_c, 1, 67, 100
3, 52988, Note_off_c, 1, 64, 100
3, 52992, Note_on_c, 1, 67, 80
3, 52992, Note_on_c, 1, 62, 80
3, 53372, Note_off_c, 1, 67, 100
3, 53372, Note_off_c, 1, 62, 100
3, 53376, Note_on_c, 1, 67, 80
3, 53376, Note_on_c, 1, 60, 80
3, 53756, Note_off_c, 1, 67, 100
3, 53756, Note_off_c, 1, 60, 100
3, 53760, Note_on_c, 1, 68, 80
3, 53760, Note_on_c, 1, 59, 80
3, 54140, Note_off_c, 1, 68, 100
3, 54140, Note_off_c, 1, 59, 100
3, 54144, Note_on_c, 1, 57, 80
3, 54144, Note_on_c, 1, 69, 80
3, 54524, Note_off_c, 1, 57, 100
3, 54524, Note_off_c, 1, 69, 100
3, 54528, Note_on_c, 1, 53, 80
3, 54908, Note_off_c, 1, 53, 100
3, 54912, Note_on_c, 1, 55, 80
3, 55676, Note_off_c, 1, 55, 100
3, 55680, Note_on_c, 1, 60, 80
3, 55680, Note_on_c, 1, 52, 80
3, 56060, Note_off_c, 1, 60, 100
3, 56060, Note_off_c, 1, 52, 100
3, 56064, Note_on_c, 1, 59, 80
3, 56064, Note_on_c, 1, 53, 80
3, 56444, Note_off_c, 1, 59, 100
3, 56444, Note_off_c, 1, 53, 100
3, 56448, Note_on_c, 1, 60, 80
3, 56448, Note_on_c, 1, 52, 80
3, 56828, Note_off_c, 1, 60, 100
3, 56828, Note_off_c, 1, 52, 100
3, 56832, Note_on_c, 1, 62, 80
3, 56832, Note_on_c, 1, 59, 80
3, 57212, Note_off_c, 1, 62, 100
3, 57212, Note_off_c, 1, 59, 100
3, 57216, Note_on_c, 1, 60, 80
3, 57216, Note_on_c, 1, 64, 80
3, 57596, Note_off_c, 1, 60, 100
3, 57596, Note_off_c, 1, 64, 100
3, 57600, Note_on_c, 1, 57, 83
3, 57600, Note_on_c, 1, 66, 83
3, 57980, Note_off_c, 1, 57, 100
3, 57980, Note_off_c, 1, 66, 100
3, 57984, Note_on_c, 1, 59, 89
3, 57984, Note_on_c, 1, 67, 89
3, 58748, Note_off_c, 1, 59, 100
3, 58748, Note_off_c, 1, 67, 100
3, 58752, Note_on_c, 1, 69, 110
3, 58752, Note_on_c, 1, 60, 110
3, 59132, Note_off_c, 1, 69, 100
3, 59132, Note_off_c, 1, 60, 100
3, 59136, Note_on_c, 1, 70, 110
3, 59136, Note_on_c, 1, 61, 110
3, 59516, Note_off_c, 1, 70, 100
3, 59516, Note_off_c, 1, 61, 100
3, 59520, Note_on_c, 1, 71, 110
3, 59520, Note_on_c, 1, 62, 110
3, 60284, Note_off_c, 1, 71, 100
3, 60284, Note_off_c, 1, 62, 100
3, 60288, Note_on_c, 1, 72, 110
3, 60288, Note_on_c, 1, 62, 110
3, 60668, Note_off_c, 1, 72, 100
3, 60668, Note_off_c, 1, 62, 100
3, 60672, Note_on_c, 1, 69, 110
3, 60672, Note_on_c, 1, 62, 110
3, 61052, Note_off_c, 1, 69, 100
3, 61052, Note_off_c, 1, 62, 100
3, 61056, Note_on_c, 1, 55, 96
3, 61056, Note_on_c, 1, 67, 96
3, 61820, Note_off_c, 1, 55, 100
3, 61820, Note_off_c, 1, 67, 100
3, 61824, Note_on_c, 1, 64, 80
3, 61824, Note_on_c, 1, 67, 80
3, 62204, Note_off_c, 1, 64, 100
3, 62204, Note_off_c, 1, 67, 100
3, 62208, Note_on_c, 1, 65, 80
3, 62208, Note_on_c, 1, 62, 80
3, 62588, Note_off_c, 1, 65, 100
3, 62588, Note_off_c, 1, 62, 100
3, 62592, Note_on_c, 1, 64, 80
3, 62592, Note_on_c, 1, 60, 80
3, 62972, Note_off_c, 1, 64, 100
3, 62972, Note_off_c, 1, 60, 100
3, 62976, Note_on_c, 1, 64, 80
3, 62976, Note_on_c, 1, 58, 80
3, 63356, Note_off_c, 1, 64, 100
3, 63356, Note_off_c, 1, 58, 100
3, 63360, Note_on_c, 1, 60, 80
3, 63360, Note_on_c, 1, 57, 80
3, 63740, Note_off_c, 1, 60, 100
3, 63740, Note_off_c, 1, 57, 100
3, 63744, Note_on_c, 1, 60, 80
3, 63744, Note_on_c, 1, 55, 80
3, 64124, Note_off_c, 1, 60, 100
3, 64124, Note_off_c, 1, 55, 100
3, 64128, Note_on_c, 1, 60, 80
3, 64128, Note_on_c, 1, 53, 80
3, 64892, Note_off_c, 1, 60, 100
3, 64892, Note_off_c, 1, 53, 100
3, 64896, Note_on_c, 1, 65, 80
3, 64896, Note_on_c, 1, 69, 80
3, 65276, Note_off_c, 1, 65, 100
3, 65276, Note_off_c, 1, 69, 100
3, 65280, Note_on_c, 1, 67, 83
3, 65280, Note_on_c, 1, 61, 83
3, 65660, Note_off_c, 1, 67, 100
3, 65660, Note_off_c, 1, 61, 100
3, 65664, Note_on_c, 1, 65, 87
3, 65664, Note_on_c, 1, 62, 87
3, 66044, Note_off_c, 1, 65, 100
3, 66044, Note_off_c, 1, 62, 100
3, 66048, Note_on_c, 1, 64, 90
3, 66048, Note_on_c, 1, 55, 90
3, 66428, Note_off_c, 1, 64, 100
3, 66428, Note_off_c, 1, 55, 100
3, 66432, Note_on_c, 1, 62, 94
3, 66432, Note_on_c, 1, 53, 94
3, 66812, Note_off_c, 1, 62, 100
3, 66812, Note_off_c, 1, 53, 100
3, 66816, Note_on_c, 1, 54, 98
3, 66816, Note_on_c, 1, 60, 98
3, 67196, Note_off_c, 1, 54, 100
3, 67196, Note_off_c, 1, 60, 100
3, 67200, Note_on_c, 1, 60, 110
3, 67200, Note_on_c, 1, 55, 110
3, 67580, Note_off_c, 1, 60, 100
3, 67584, Note_on_c, 1, 59, 100
3, 67964, Note_off_c, 1, 55, 100
3, 67964, Note_off_c, 1, 59, 100
3, 67968, Note_on_c, 1, 60, 80
3, 67968, Note_on_c, 1, 52, 80
3, 68348, Note_off_c, 1, 60, 100
3, 68348, Note_off_c, 1, 52, 100
3, 68352, Note_on_c, 1, 59, 80
3, 68352, Note_on_c, 1, 53, 80
3, 68732, Note_off_c, 1, 59, 100
3, 68732, Note_off_c, 1, 53, 100
3, 68736, Note_on_c, 1, 52, 80
3, 68736, Note_on_c, 1, 60, 80
3, 69116, Note_off_c, 1, 52, 100
3, 69116, Note_off_c, 1, 60, 100
3, 69120, Note_on_c, 1, 62, 80
3, 69120, Note_on_c, 1, 59, 80
3, 69500, Note_off_c, 1, 62, 100
3, 69500, Note_off_c, 1, 59, 100
3, 69504, Note_on_c, 1, 64, 80
3, 69504, Note_on_c, 1, 60, 80
3, 69884, Note_off_c, 1, 64, 100
3, 69884, Note_off_c, 1, 60, 100
3, 69888, Note_on_c, 1, 62, 80
3, 69888, Note_on_c, 1, 65, 80
3, 70268, Note_off_c, 1, 62, 100
3, 70268, Note_off_c, 1, 65, 100
3, 70272, Note_on_c, 1, 59, 80
3, 70272, Note_on_c, 1, 62, 80
3, 70652, Note_off_c, 1, 59, 100
3, 70652, Note_off_c, 1, 62, 100
3, 70656, Note_on_c, 1, 65, 80
3, 70656, Note_on_c, 1, 67, 80
3, 71036, Note_off_c, 1, 65, 100
3, 71040, Note_on_c, 1, 64, 80
3, 71420, Note_off_c, 1, 67, 100
3, 71420, Note_off_c, 1, 64, 100
3, 71424, Note_on_c, 1, 67, 87
3, 71424, Note_on_c, 1, 58, 87
3, 71804, Note_off_c, 1, 67, 100
3, 71804, Note_off_c, 1, 58, 100
3, 71808, Note_on_c, 1, 57, 95
3, 71808, Note_on_c, 1, 67, 95
3, 72188, Note_off_c, 1, 57, 100
3, 72188, Note_off_c, 1, 67, 100
3, 72192, Note_on_c, 1, 65, 102
3, 72192, Note_on_c, 1, 57, 102
3, 72572, Note_off_c, 1, 65, 100
3, 72572, Note_off_c, 1, 57, 100
3, 72576, Note_on_c, 1, 64, 80
3, 72576, Note_on_c, 1, 55, 80
3, 72956, Note_off_c, 1, 64, 100
3, 72956, Note_off_c, 1, 55, 100
3, 72960, Note_on_c, 1, 62, 80
3, 72960, Note_on_c, 1, 55, 80
3, 73340, Note_off_c, 1, 62, 100
3, 73340, Note_off_c, 1, 55, 100
3, 73344, Note_on_c, 1, 60, 80
3, 73344, Note_on_c, 1, 48, 80
3, 73724, Note_off_c, 1, 60, 100
3, 73724, Note_off_c, 1, 48, 100
3, 74112, Note_on_c, 1, 43, 100
3, 74492, Note_off_c, 1, 43, 100
3, 74496, Note_on_c, 1, 36, 80
3, 74684, Note_off_c, 1, 36, 100
3, 74880, Note_on_c, 1, 45, 100
3, 75260, Note_off_c, 1, 45, 100
3, 75264, Note_on_c, 1, 38, 80
3, 75452, Note_off_c, 1, 38, 100
3, 75648, Note_on_c, 1, 47, 100
3, 76028, Note_off_c, 1, 47, 100
3, 76032, Note_on_c, 1, 40, 80
3, 76220, Note_off_c, 1, 40, 100
3, 76416, Note_on_c, 1, 50, 100
3, 76416, Note_on_c, 1, 38, 100
3, 77180, Note_off_c, 1, 50, 100
3, 77180, Note_off_c, 1, 38, 100
3, 77184, Note_on_c, 1, 36, 83
3, 77564, Note_off_c, 1, 36, 100
3, 77568, Note_on_c, 1, 48, 90
3, 77948, Note_off_c, 1, 48, 100
3, 77952, Note_on_c, 1, 45, 96
3, 78332, Note_off_c, 1, 45, 100
3, 78336, Note_on_c, 1, 41, 103
3, 78716, Note_off_c, 1, 41, 100
3, 78720, Note_on_c, 1, 43, 80
3, 79100, Note_off_c, 1, 43, 100
3, 79104, Note_on_c, 1, 31, 80
3, 79484, Note_off_c, 1, 31, 100
3, 79488, Note_on_c, 1, 36, 80
3, 79868, Note_off_c, 1, 36, 100
3, 80256, Note_on_c, 1, 64, 80
3, 80256, Note_on_c, 1, 67, 80
3, 80636, Note_off_c, 1, 64, 100
3, 80636, Note_off_c, 1, 67, 100
3, 80640, Note_on_c, 1, 65, 80
3, 80640, Note_on_c, 1, 62, 80
3, 81020, Note_off_c, 1, 65, 100
3, 81020, Note_off_c, 1, 62, 100
3, 81024, Note_on_c, 1, 64, 80
3, 81024, Note_on_c, 1, 60, 80
3, 81404, Note_off_c, 1, 64, 100
3, 81404, Note_off_c, 1, 60, 100
3, 81408, Note_on_c, 1, 64, 80
3, 81408, Note_on_c, 1, 58, 80
3, 81788, Note_off_c, 1, 64, 100
3, 81788, Note_off_c, 1, 58, 100
3, 81792, Note_on_c, 1, 60, 80
3, 81792, Note_on_c, 1, 57, 80
3, 82172, Note_off_c, 1, 60, 100
3, 82172, Note_off_c, 1, 57, 100
3, 82176, Note_on_c, 1, 60, 80
3, 82176, Note_on_c, 1, 55, 80
3, 82556, Note_off_c, 1, 60, 100
3, 82556, Note_off_c, 1, 55, 100
3, 82560, Note_on_c, 1, 60, 80
3, 82560, Note_on_c, 1, 53, 80
3, 83324, Note_off_c, 1, 60, 100
3, 83324, Note_off_c, 1, 53, 100
3, 83328, Note_on_c, 1, 65, 80
3, 83328, Note_on_c, 1, 69, 80
3, 83708, Note_off_c, 1, 65, 100
3, 83708, Note_off_c, 1, 69, 100
3, 83712, Note_on_c, 1, 67, 84
3, 83712, Note_on_c, 1, 61, 84
3, 84092, Note_off_c, 1, 67, 100
3, 84092, Note_off_c, 1, 61, 100
3, 84096, Note_on_c, 1, 65, 89
3, 84096, Note_on_c, 1, 62, 89
3, 84476, Note_off_c, 1, 65, 100
3, 84476, Note_off_c, 1, 62, 100
3, 84480, Note_on_c, 1, 64, 94
3, 84480, Note_on_c, 1, 55, 94
3, 84860, Note_off_c, 1, 64, 100
3, 84860, Note_off_c, 1, 55, 100
3, 84864, Note_on_c, 1, 62, 99
3, 84864, Note_on_c, 1, 53, 99
3, 85244, Note_off_c, 1, 62, 100
3, 85244, Note_off_c, 1, 53, 100
3, 85248, Note_on_c, 1, 54, 104
3, 85248, Note_on_c, 1, 60, 104
3, 85628, Note_off_c, 1, 54, 100
3, 85628, Note_off_c, 1, 60, 100
3, 85632, Note_on_c, 1, 60, 109
3, 85632, Note_on_c, 1, 55, 109
3, 86012, Note_off_c, 1, 60, 100
3, 86016, Note_on_c, 1, 59, 99
3, 86396, Note_off_c, 1, 55, 100
3, 86396, Note_off_c, 1, 59, 100
3, 86400, Note_on_c, 1, 60, 80
3, 86400, Note_on_c, 1, 52, 80
3, 86780, Note_off_c, 1, 60, 100
3, 86780, Note_off_c, 1, 52, 100
3, 86784, Note_on_c, 1, 59, 80
3, 86784, Note_on_c, 1, 53, 80
3, 87164, Note_off_c, 1, 59, 100
3, 87164, Note_off_c, 1, 53, 100
3, 87168, Note_on_c, 1, 52, 80
3, 87168, Note_on_c, 1, 60, 80
3, 87548, Note_off_c, 1, 52, 100
3, 87548, Note_off_c, 1, 60, 100
3, 87552, Note_on_c, 1, 62, 80
3, 87552, Note_on_c, 1, 59, 80
3, 87932, Note_off_c, 1, 62, 100
3, 87932, Note_off_c, 1, 59, 100
3, 87936, Note_on_c, 1, 64, 80
3, 87936, Note_on_c, 1, 60, 80
3, 88316, Note_off_c, 1, 64, 100
3, 88316, Note_off_c, 1, 60, 100
3, 88320, Note_on_c, 1, 62, 80
3, 88320, Note_on_c, 1, 65, 80
3, 88700, Note_off_c, 1, 62, 100
3, 88700, Note_off_c, 1, 65, 100
3, 88704, Note_on_c, 1, 59, 80
3, 88704, Note_on_c, 1, 62, 80
3, 89084, Note_off_c, 1, 59, 100
3, 89084, Note_off_c, 1, 62, 100
3, 89088, Note_on_c, 1, 65, 80
3, 89088, Note_on_c, 1, 67, 80
3, 89468, Note_off_c, 1, 65, 100
3, 89472, Note_on_c, 1, 64, 80
3, 89852, Note_off_c, 1, 67, 100
3, 89852, Note_off_c, 1, 64, 100
3, 89856, Note_on_c, 1, 67, 80
3, 89856, Note_on_c, 1, 58, 80
3, 90236, Note_off_c, 1, 67, 100
3, 90236, Note_off_c, 1, 58, 100
3, 90240, Note_on_c, 1, 57, 80
3, 90240, Note_on_c, 1, 67, 80
3, 90620, Note_off_c, 1, 57, 100
3, 90620, Note_off_c, 1, 67, 100
3, 90624, Note_on_c, 1, 65, 80
3, 90624, Note_on_c, 1, 57, 80
3, 91004, Note_off_c, 1, 65, 100
3, 91004, Note_off_c, 1, 57, 100
3, 91008, Note_on_c, 1, 64, 80
3, 91008, Note_on_c, 1, 55, 80
3, 91388, Note_off_c, 1, 64, 100
3, 91388, Note_off_c, 1, 55, 100
3, 91392, Note_on_c, 1, 62, 80
3, 91392, Note_on_c, 1, 55, 80
3, 91772, Note_off_c, 1, 62, 100
3, 91772, Note_off_c, 1, 55, 100
3, 91776, Note_on_c, 1, 60, 80
3, 91776, Note_on_c, 1, 48, 80
3, 92156, Note_off_c, 1, 60, 100
3, 92156, Note_off_c, 1, 48, 100
3, 92544, Note_on_c, 1, 43, 100
3, 92924, Note_off_c, 1, 43, 100
3, 92928, Note_on_c, 1, 36, 80
3, 93116, Note_off_c, 1, 36, 100
3, 93312, Note_on_c, 1, 45, 100
3, 93692, Note_off_c, 1, 45, 100
3, 93696, Note_on_c, 1, 38, 80
3, 93884, Note_off_c, 1, 38, 100
3, 94080, Note_on_c, 1, 47, 100
3, 94460, Note_off_c, 1, 47, 100
3, 94464, Note_on_c, 1, 40, 80
3, 94652, Note_off_c, 1, 40, 100
3, 94848, Note_on_c, 1, 50, 100
3, 94848, Note_on_c, 1, 38, 100
3, 95612, Note_off_c, 1, 50, 100
3, 95612, Note_off_c, 1, 38, 100
3, 95616, Note_on_c, 1, 36, 80
3, 95996, Note_off_c, 1, 36, 100
3, 96000, Note_on_c, 1, 48, 80
3, 96380, Note_off_c, 1, 48, 100
3, 96384, Note_on_c, 1, 45, 80
3, 96764, Note_off_c, 1, 45, 100
3, 96768, Note_on_c, 1, 41, 80
3, 97148, Note_off_c, 1, 41, 100
3, 97152, Note_on_c, 1, 43, 80
3, 97532, Note_off_c, 1, 43, 100
3, 97536, Note_on_c, 1, 31, 80
3, 97916, Note_off_c, 1, 31, 100
3, 97920, Note_on_c, 1, 36, 80
3, 98300, Note_off_c, 1, 36, 100
3, 98688, Note_on_c, 1, 48, 80
3, 98876, Note_off_c, 1, 48, 100
3, 98880, Note_on_c, 1, 64, 80
3, 99068, Note_off_c, 1, 64, 100
3, 99072, Note_on_c, 1, 48, 80
3, 99260, Note_off_c, 1, 48, 100
3, 99264, Note_on_c, 1, 62, 80
3, 99452, Note_off_c, 1, 62, 100
3, 99456, Note_on_c, 1, 48, 80
3, 99644, Note_off_c, 1, 48, 100
3, 99648, Note_on_c, 1, 60, 80
3, 99836, Note_off_c, 1, 60, 100
3, 99840, Note_on_c, 1, 48, 80
3, 100028, Note_off_c, 1, 48, 100
3, 100032, Note_on_c, 1, 59, 80
3, 100220, Note_off_c, 1, 59, 100
3, 100224, Note_on_c, 1, 48, 80
3, 100412, Note_off_c, 1, 48, 100
3, 100416, Note_on_c, 1, 58, 80
3, 100604, Note_off_c, 1, 58, 100
3, 100608, Note_on_c, 1, 48, 80
3, 100796, Note_off_c, 1, 48, 100
3, 100800, Note_on_c, 1, 57, 80
3, 100988, Note_off_c, 1, 57, 100
3, 100992, Note_on_c, 1, 48, 80
3, 101180, Note_off_c, 1, 48, 100
3, 101184, Note_on_c, 1, 56, 80
3, 101372, Note_off_c, 1, 56, 100
3, 101376, Note_on_c, 1, 48, 80
3, 101564, Note_off_c, 1, 48, 100
3, 101568, Note_on_c, 1, 55, 80
3, 101756, Note_off_c, 1, 55, 100
3, 101760, Note_on_c, 1, 36, 80
3, 101948, Note_off_c, 1, 36, 100
3, 101952, Note_on_c, 1, 53, 80
3, 102140, Note_off_c, 1, 53, 100
3, 102144, Note_on_c, 1, 36, 80
3, 102332, Note_off_c, 1, 36, 100
3, 102336, Note_on_c, 1, 52, 80
3, 102524, Note_off_c, 1, 52, 100
3, 102528, Note_on_c, 1, 36, 80
3, 102716, Note_off_c, 1, 36, 100
3, 102720, Note_on_c, 1, 50, 80
3, 102908, Note_off_c, 1, 50, 100
3, 102912, Note_on_c, 1, 36, 80
3, 103100, Note_off_c, 1, 36, 100
3, 103104, Note_on_c, 1, 48, 80
3, 103292, Note_off_c, 1, 48, 100
3, 103296, Note_on_c, 1, 41, 80
3, 103484, Note_off_c, 1, 41, 100
3, 103488, Note_on_c, 1, 53, 80
3, 103676, Note_off_c, 1, 53, 100
3, 103680, Note_on_c, 1, 38, 80
3, 103868, Note_off_c, 1, 38, 100
3, 103872, Note_on_c, 1, 50, 80
3, 104060, Note_off_c, 1, 50, 100
3, 104064, Note_on_c, 1, 43, 80
3, 104252, Note_off_c, 1, 43, 100
3, 104256, Note_on_c, 1, 55, 100
3, 104828, Note_off_c, 1, 55, 100
3, 104832, Note_on_c, 1, 48, 80
3, 105020, Note_off_c, 1, 48, 100
3, 105024, Note_on_c, 1, 64, 80
3, 105212, Note_off_c, 1, 64, 100
3, 105216, Note_on_c, 1, 48, 80
3, 105404, Note_off_c, 1, 48, 100
3, 105408, Note_on_c, 1, 62, 80
3, 105596, Note_off_c, 1, 62, 100
3, 105600, Note_on_c, 1, 48, 80
3, 105788, Note_off_c, 1, 48, 100
3, 105792, Note_on_c, 1, 60, 80
3, 105980, Note_off_c, 1, 60, 100
3, 105984, Note_on_c, 1, 47, 80
3, 106172, Note_off_c, 1, 47, 100
3, 106176, Note_on_c, 1, 59, 80
3, 106364, Note_off_c, 1, 59, 100
3, 106368, Note_on_c, 1, 48, 80
3, 106556, Note_off_c, 1, 48, 100
3, 106560, Note_on_c, 1, 60, 80
3, 106748, Note_off_c, 1, 60, 100
3, 106752, Note_on_c, 1, 45, 80
3, 106940, Note_off_c, 1, 45, 100
3, 106944, Note_on_c, 1, 57, 80
3, 107132, Note_off_c, 1, 57, 100
3, 107136, Note_on_c, 1, 47, 80
3, 107324, Note_off_c, 1, 47, 100
3, 107328, Note_on_c, 1, 59, 100
3, 107328, Note_on_c, 1, 62, 100
3, 107708, Note_off_c, 1, 59, 100
3, 107708, Note_off_c, 1, 62, 100
3, 107712, Note_on_c, 1, 59, 80
3, 107712, Note_on_c, 1, 62, 80
3, 107900, Note_off_c, 1, 59, 100
3, 107900, Note_off_c, 1, 62, 100
3, 107904, Note_on_c, 1, 50, 80
3, 108092, Note_off_c, 1, 50, 100
3, 108096, Note_on_c, 1, 60, 80
3, 108284, Note_off_c, 1, 60, 100
3, 108288, Note_on_c, 1, 49, 80
3, 108476, Note_off_c, 1, 49, 100
3, 108480, Note_on_c, 1, 61, 80
3, 108668, Note_off_c, 1, 61, 100
3, 108672, Note_on_c, 1, 50, 80
3, 108860, Note_off_c, 1, 50, 100
3, 108864, Note_on_c, 1, 62, 100
3, 108864, Note_on_c, 1, 67, 100
3, 109244, Note_off_c, 1, 62, 100
3, 109244, Note_off_c, 1, 67, 100
3, 109248, Note_on_c, 1, 62, 80
3, 109248, Note_on_c, 1, 67, 80
3, 109436, Note_off_c, 1, 62, 100
3, 109436, Note_off_c, 1, 67, 100
3, 109440, Note_on_c, 1, 50, 80
3, 109628, Note_off_c, 1, 50, 100
3, 109632, Note_on_c, 1, 62, 80
3, 109820, Note_off_c, 1, 62, 100
3, 109824, Note_on_c, 1, 50, 80
3, 110012, Note_off_c, 1, 50, 100
3, 110016, Note_on_c, 1, 62, 80
3, 110204, Note_off_c, 1, 62, 100
3, 110208, Note_on_c, 1, 55, 80
3, 110208, Note_on_c, 1, 43, 80
3, 110588, Note_off_c, 1, 55, 100
3, 110588, Note_off_c, 1, 43, 100
3, 110976, Note_on_c, 1, 55, 80
3, 111164, Note_off_c, 1, 55, 100
3, 111168, Note_on_c, 1, 58, 80
3, 111168, Note_on_c, 1, 61, 80
3, 111168, Note_on_c, 1, 64, 80
3, 111356, Note_off_c, 1, 58, 100
3, 111356, Note_off_c, 1, 61, 100
3, 111356, Note_off_c, 1, 64, 100
3, 111360, Note_on_c, 1, 55, 80
3, 111548, Note_off_c, 1, 55, 100
3, 111552, Note_on_c, 1, 58, 80
3, 111552, Note_on_c, 1, 61, 80
3, 111552, Note_on_c, 1, 64, 80
3, 111740, Note_off_c, 1, 58, 100
3, 111740, Note_off_c, 1, 61, 100
3, 111740, Note_off_c, 1, 64, 100
3, 111744, Note_on_c, 1, 55, 80
3, 111932, Note_off_c, 1, 55, 100
3, 111936, Note_on_c, 1, 58, 80
3, 111936, Note_on_c, 1, 61, 80
3, 111936, Note_on_c, 1, 64, 80
3, 112124, Note_off_c, 1, 58, 100
3, 112124, Note_off_c, 1, 61, 100
3, 112124, Note_off_c, 1, 64, 100
3, 112128, Note_on_c, 1, 55, 80
3, 112316, Note_off_c, 1, 55, 100
3, 112320, Note_on_c, 1, 58, 80
3, 112320, Note_on_c, 1, 60, 80
3, 112320, Note_on_c, 1, 64, 80
3, 112508, Note_off_c, 1, 58, 100
3, 112508, Note_off_c, 1, 60, 100
3, 112508, Note_off_c, 1, 64, 100
3, 112512, Note_on_c, 1, 57, 80
3, 112700, Note_off_c, 1, 57, 100
3, 112704, Note_on_c, 1, 60, 80
3, 112704, Note_on_c, 1, 65, 80
3, 112892, Note_off_c, 1, 60, 100
3, 112892, Note_off_c, 1, 65, 100
3, 112896, Note_on_c, 1, 55, 80
3, 113084, Note_off_c, 1, 55, 100
3, 113088, Note_on_c, 1, 60, 80
3, 113088, Note_on_c, 1, 64, 80
3, 113276, Note_off_c, 1, 60, 100
3, 113276, Note_off_c, 1, 64, 100
3, 113280, Note_on_c, 1, 53, 80
3, 113468, Note_off_c, 1, 53, 100
3, 113472, Note_on_c, 1, 60, 80
3, 113472, Note_on_c, 1, 65, 80
3, 113660, Note_off_c, 1, 60, 100
3, 113660, Note_off_c, 1, 65, 100
3, 113664, Note_on_c, 1, 53, 80
3, 113852, Note_off_c, 1, 53, 100
3, 113856, Note_on_c, 1, 61, 80
3, 113856, Note_on_c, 1, 65, 80
3, 114044, Note_off_c, 1, 61, 100
3, 114044, Note_off_c, 1, 65, 100
3, 114048, Note_on_c, 1, 53, 80
3, 114236, Note_off_c, 1, 53, 100
3, 114240, Note_on_c, 1, 62, 82
3, 114240, Note_on_c, 1, 65, 82
3, 114428, Note_off_c, 1, 62, 100
3, 114428, Note_off_c, 1, 65, 100
3, 114432, Note_on_c, 1, 53, 84
3, 114620, Note_off_c, 1, 53, 100
3, 114624, Note_on_c, 1, 58, 86
3, 114624, Note_on_c, 1, 61, 86
3, 114624, Note_on_c, 1, 64, 86
3, 114812, Note_off_c, 1, 58, 100
3, 114812, Note_off_c, 1, 61, 100
3, 114812, Note_off_c, 1, 64, 100
3, 114816, Note_on_c, 1, 53, 89
3, 115004, Note_off_c, 1, 53, 100
3, 115008, Note_on_c, 1, 57, 91
3, 115008, Note_on_c, 1, 62, 91
3, 115196, Note_off_c, 1, 57, 100
3, 115196, Note_off_c, 1, 62, 100
3, 115200, Note_on_c, 1, 41, 93
3, 115388, Note_off_c, 1, 41, 100
3, 115392, Note_on_c, 1, 55, 96
3, 115392, Note_on_c, 1, 58, 96
3, 115580, Note_off_c, 1, 55, 100
3, 115580, Note_off_c, 1, 58, 100
3, 115584, Note_on_c, 1, 41, 98
3, 115772, Note_off_c, 1, 41, 100
3, 115776, Note_on_c, 1, 53, 100
3, 115776, Note_on_c, 1, 57, 100
3, 115964, Note_off_c, 1, 53, 100
3, 115964, Note_off_c, 1, 57, 100
3, 115968, Note_on_c, 1, 42, 103
3, 116156, Note_off_c, 1, 42, 100
3, 116160, Note_on_c, 1, 54, 105
3, 116160, Note_on_c, 1, 57, 105
3, 116348, Note_off_c, 1, 54, 100
3, 116348, Note_off_c, 1, 57, 100
3, 116352, Note_on_c, 1, 43, 107
3, 116540, Note_off_c, 1, 43, 100
3, 116544, Note_on_c, 1, 55, 109
3, 116924, Note_off_c, 1, 55, 100
3, 116928, Note_on_c, 1, 53, 80
3, 116988, Note_off_c, 1, 53, 100
3, 116992, Note_on_c, 1, 52, 80
3, 117052, Note_off_c, 1, 52, 100
3, 117056, Note_on_c, 1, 50, 80
3, 117116, Note_off_c, 1, 50, 100
3, 117120, Note_on_c, 1, 48, 80
3, 117308, Note_off_c, 1, 48, 100
3, 117312, Note_on_c, 1, 60, 80
3, 117500, Note_off_c, 1, 60, 100
3, 117504, Note_on_c, 1, 48, 80
3, 117692, Note_off_c, 1, 48, 100
3, 117696, Note_on_c, 1, 62, 80
3, 117884, Note_off_c, 1, 62, 100
3, 117888, Note_on_c, 1, 48, 80
3, 118076, Note_off_c, 1, 48, 100
3, 118080, Note_on_c, 1, 60, 80
3, 118268, Note_off_c, 1, 60, 100
3, 118272, Note_on_c, 1, 48, 80
3, 118460, Note_off_c, 1, 48, 100
3, 118464, Note_on_c, 1, 59, 80
3, 118652, Note_off_c, 1, 59, 100
3, 118656, Note_on_c, 1, 48, 80
3, 118844, Note_off_c, 1, 48, 100
3, 118848, Note_on_c, 1, 58, 80
3, 119036, Note_off_c, 1, 58, 100
3, 119040, Note_on_c, 1, 48, 80
3, 119228, Note_off_c, 1, 48, 100
3, 119232, Note_on_c, 1, 57, 80
3, 119420, Note_off_c, 1, 57, 100
3, 119424, Note_on_c, 1, 48, 80
3, 119612, Note_off_c, 1, 48, 100
3, 119616, Note_on_c, 1, 56, 80
3, 119804, Note_off_c, 1, 56, 100
3, 119808, Note_on_c, 1, 48, 80
3, 119996, Note_off_c, 1, 48, 100
3, 120000, Note_on_c, 1, 55, 80
3, 120188, Note_off_c, 1, 55, 100
3, 120192, Note_on_c, 1, 53, 80
3, 120380, Note_off_c, 1, 53, 100
3, 120384, Note_on_c, 1, 59, 84
3, 120384, Note_on_c, 1, 62, 84
3, 120572, Note_off_c, 1, 59, 100
3, 120572, Note_off_c, 1, 62, 100
3, 120576, Note_on_c, 1, 52, 88
3, 120764, Note_off_c, 1, 52, 100
3, 120768, Note_on_c, 1, 58, 92
3, 120768, Note_on_c, 1, 61, 92
3, 120768, Note_on_c, 1, 64, 92
3, 120956, Note_off_c, 1, 58, 100
3, 120956, Note_off_c, 1, 61, 100
3, 120956, Note_off_c, 1, 64, 100
3, 120960, Note_on_c, 1, 53, 97
3, 121148, Note_off_c, 1, 53, 100
3, 121152, Note_on_c, 1, 58, 101
3, 121152, Note_on_c, 1, 61, 101
3, 121152, Note_on_c, 1, 64, 101
3, 121340, Note_off_c, 1, 58, 100
3, 121340, Note_off_c, 1, 61, 100
3, 121340, Note_off_c, 1, 64, 100
3, 121344, Note_on_c, 1, 53, 105
3, 121532, Note_off_c, 1, 53, 100
3, 121536, Note_on_c, 1, 57, 109
3, 121536, Note_on_c, 1, 62, 109
3, 121724, Note_off_c, 1, 57, 100
3, 121724, Note_off_c, 1, 62, 100
3, 121728, Note_on_c, 1, 43, 100
3, 121916, Note_off_c, 1, 43, 100
3, 121920, Note_on_c, 1, 55, 98
3, 121920, Note_on_c, 1, 60, 98
3, 122108, Note_off_c, 1, 55, 100
3, 122108, Note_off_c, 1, 60, 100
3, 122112, Note_on_c, 1, 43, 95
3, 122300, Note_off_c, 1, 43, 100
3, 122304, Note_on_c, 1, 55, 93
3, 122304, Note_on_c, 1, 59, 93
3, 122492, Note_off_c, 1, 55, 100
3, 122492, Note_off_c, 1, 59, 100
3, 122496, Note_on_c, 1, 48, 90
3, 122684, Note_off_c, 1, 48, 100
3, 123264, Note_on_c, 1, 43, 80
3, 123452, Note_off_c, 1, 43, 100
3, 123648, Note_on_c, 1, 36, 80
3, 123836, Note_off_c, 1, 36, 100
3, 124032, Note_on_c, 1, 45, 80
3, 124220, Note_off_c, 1, 45, 100
3, 124416, Note_on_c, 1, 38, 80
3, 124604, Note_off_c, 1, 38, 100
3, 124800, Note_on_c, 1, 47, 80
3, 124988, Note_off_c, 1, 47, 100
3, 125184, Note_on_c, 1, 40, 80
3, 125372, Note_off_c, 1, 40, 100
3, 125568, Note_on_c, 1, 50, 100
3, 125568, Note_on_c, 1, 38, 100
3, 126332, Note_off_c, 1, 50, 100
3, 126332, Note_off_c, 1, 38, 100
3, 126336, Note_on_c, 1, 36, 100
3, 126524, Note_off_c, 1, 36, 100
3, 126720, Note_on_c, 1, 48, 95
3, 126908, Note_off_c, 1, 48, 100
3, 127104, Note_on_c, 1, 45, 89
3, 127292, Note_off_c, 1, 45, 100
3, 127488, Note_on_c, 1, 41, 83
3, 127676, Note_off_c, 1, 41, 100
3, 127872, Note_on_c, 1, 43, 80
3, 128060, Note_off_c, 1, 43, 100
3, 128256, Note_on_c, 1, 31, 80
3, 128444, Note_off_c, 1, 31, 100
3, 128640, Note_on_c, 1, 36, 80
3, 128828, Note_off_c, 1, 36, 100
3, 129408, Note_on_c, 1, 55, 80
3, 129596, Note_off_c, 1, 55, 100
3, 129600, Note_on_c, 1, 58, 80
3, 129600, Note_on_c, 1, 61, 80
3, 129600, Note_on_c, 1, 64, 80
3, 129788, Note_off_c, 1, 58, 100
3, 129788, Note_off_c, 1, 61, 100
3, 129788, Note_off_c, 1, 64, 100
3, 129792, Note_on_c, 1, 55, 80
3, 129980, Note_off_c, 1, 55, 100
3, 129984, Note_on_c, 1, 58, 80
3, 129984, Note_on_c, 1, 61, 80
3, 129984, Note_on_c, 1, 64, 80
3, 130172, Note_off_c, 1, 58, 100
3, 130172, Note_off_c, 1, 61, 100
3, 130172, Note_off_c, 1, 64, 100
3, 130176, Note_on_c, 1, 55, 80
3, 130364, Note_off_c, 1, 55, 100
3, 130368, Note_on_c, 1, 58, 80
3, 130368, Note_on_c, 1, 61, 80
3, 130368, Note_on_c, 1, 64, 80
3, 130556, Note_off_c, 1, 58, 100
3, 130556, Note_off_c, 1, 61, 100
3, 130556, Note_off_c, 1, 64, 100
3, 130560, Note_on_c, 1, 55, 80
3, 130748, Note_off_c, 1, 55, 100
3, 130752, Note_on_c, 1, 58, 80
3, 130752, Note_on_c, 1, 60, 80
3, 130752, Note_on_c, 1, 64, 80
3, 130940, Note_off_c, 1, 58, 100
3, 130940, Note_off_c, 1, 60, 100
3, 130940, Note_off_c, 1, 64, 100
3, 130944, Note_on_c, 1, 57, 80
3, 131132, Note_off_c, 1, 57, 100
3, 131136, Note_on_c, 1, 60, 80
3, 131136, Note_on_c, 1, 65, 80
3, 131324, Note_off_c, 1, 60, 100
3, 131324, Note_off_c, 1, 65, 100
3, 131328, Note_on_c, 1, 55, 80
3, 131516, Note_off_c, 1, 55, 100
3, 131520, Note_on_c, 1, 60, 80
3, 131520, Note_on_c, 1, 64, 80
3, 131708, Note_off_c, 1, 60, 100
3, 131708, Note_off_c, 1, 64, 100
3, 131712, Note_on_c, 1, 53, 80
3, 131900, Note_off_c, 1, 53, 100
3, 131904, Note_on_c, 1, 60, 80
3, 131904, Note_on_c, 1, 65, 80
3, 132092, Note_off_c, 1, 60, 100
3, 132092, Note_off_c, 1, 65, 100
3, 132096, Note_on_c, 1, 53, 80
3, 132284, Note_off_c, 1, 53, 100
3, 132288, Note_on_c, 1, 61, 80
3, 132288, Note_on_c, 1, 65, 80
3, 132476, Note_off_c, 1, 61, 100
3, 132476, Note_off_c, 1, 65, 100
3, 132480, Note_on_c, 1, 53, 80
3, 132668, Note_off_c, 1, 53, 100
3, 132672, Note_on_c, 1, 62, 81
3, 132672, Note_on_c, 1, 65, 81
3, 132860, Note_off_c, 1, 62, 100
3, 132860, Note_off_c, 1, 65, 100
3, 132864, Note_on_c, 1, 53, 83
3, 133052, Note_off_c, 1, 53, 100
3, 133056, Note_on_c, 1, 58, 84
3, 133056, Note_on_c, 1, 61, 84
3, 133056, Note_on_c, 1, 64, 84
3, 133244, Note_off_c, 1, 58, 100
3, 133244, Note_off_c, 1, 61, 100
3, 133244, Note_off_c, 1, 64, 100
3, 133248, Note_on_c, 1, 53, 86
3, 133436, Note_off_c, 1, 53, 100
3, 133440, Note_on_c, 1, 57, 87
3, 133440, Note_on_c, 1, 62, 87
3, 133628, Note_off_c, 1, 57, 100
3, 133628, Note_off_c, 1, 62, 100
3, 133632, Note_on_c, 1, 41, 89
3, 133820, Note_off_c, 1, 41, 100
3, 133824, Note_on_c, 1, 55, 90
3, 133824, Note_on_c, 1, 58, 90
3, 134012, Note_off_c, 1, 55, 100
3, 134012, Note_off_c, 1, 58, 100
3, 134016, Note_on_c, 1, 41, 92
3, 134204, Note_off_c, 1, 41, 100
3, 134208, Note_on_c, 1, 53, 93
3, 134208, Note_on_c, 1, 57, 93
3, 134396, Note_off_c, 1, 53, 100
3, 134396, Note_off_c, 1, 57, 100
3, 134400, Note_on_c, 1, 42, 95
3, 134588, Note_off_c, 1, 42, 100
3, 134592, Note_on_c, 1, 54, 96
3, 134592, Note_on_c, 1, 57, 96
3, 134780, Note_off_c, 1, 54, 100
3, 134780, Note_off_c, 1, 57, 100
3, 134784, Note_on_c, 1, 43, 98
3, 134972, Note_off_c, 1, 43, 100
3, 134976, Note_on_c, 1, 55, 99
3, 135356, Note_off_c, 1, 55, 100
3, 135360, Note_on_c, 1, 53, 80
3, 135420, Note_off_c, 1, 53, 100
3, 135424, Note_on_c, 1, 52, 80
3, 135484, Note_off_c, 1, 52, 100
3, 135488, Note_on_c, 1, 50, 80
3, 135548, Note_off_c, 1, 50, 100
3, 135552, Note_on_c, 1, 48, 80
3, 135740, Note_off_c, 1, 48, 100
3, 135744, Note_on_c, 1, 60, 80
3, 135932, Note_off_c, 1, 60, 100
3, 135936, Note_on_c, 1, 48, 80
3, 136124, Note_off_c, 1, 48, 100
3, 136128, Note_on_c, 1, 62, 80
3, 136316, Note_off_c, 1, 62, 100
3, 136320, Note_on_c, 1, 48, 80
3, 136508, Note_off_c, 1, 48, 100
3, 136512, Note_on_c, 1, 60, 80
3, 136700, Note_off_c, 1, 60, 100
3, 136704, Note_on_c, 1, 48, 80
3, 136892, Note_off_c, 1, 48, 100
3, 136896, Note_on_c, 1, 59, 80
3, 137084, Note_off_c, 1, 59, 100
3, 137088, Note_on_c, 1, 48, 80
3, 137276, Note_off_c, 1, 48, 100
3, 137280, Note_on_c, 1, 58, 80
3, 137468, Note_off_c, 1, 58, 100
3, 137472, Note_on_c, 1, 48, 80
3, 137660, Note_off_c, 1, 48, 100
3, 137664, Note_on_c, 1, 57, 80
3, 137852, Note_off_c, 1, 57, 100
3, 137856, Note_on_c, 1, 48, 80
3, 138044, Note_off_c, 1, 48, 100
3, 138048, Note_on_c, 1, 56, 80
3, 138236, Note_off_c, 1, 56, 100
3, 138240, Note_on_c, 1, 48, 80
3, 138428, Note_off_c, 1, 48, 100
3, 138432, Note_on_c, 1, 55, 80
3, 138620, Note_off_c, 1, 55, 100
3, 138624, Note_on_c, 1, 53, 80
3, 138812, Note_off_c, 1, 53, 100
3, 138816, Note_on_c, 1, 59, 84
3, 138816, Note_on_c, 1, 62, 84
3, 139004, Note_off_c, 1, 59, 100
3, 139004, Note_off_c, 1, 62, 100
3, 139008, Note_on_c, 1, 52, 88
3, 139196, Note_off_c, 1, 52, 100
3, 139200, Note_on_c, 1, 58, 92
3, 139200, Note_on_c, 1, 61, 92
3, 139200, Note_on_c, 1, 64, 92
3, 139388, Note_off_c, 1, 58, 100
3, 139388, Note_off_c, 1, 61, 100
3, 139388, Note_off_c, 1, 64, 100
3, 139392, Note_on_c, 1, 53, 97
3, 139580, Note_off_c, 1, 53, 100
3, 139584, Note_on_c, 1, 58, 101
3, 139584, Note_on_c, 1, 61, 101
3, 139584, Note_on_c, 1, 64, 101
3, 139772, Note_off_c, 1, 58, 100
3, 139772, Note_off_c, 1, 61, 100
3, 139772, Note_off_c, 1, 64, 100
3, 139776, Note_on_c, 1, 53, 105
3, 139964, Note_off_c, 1, 53, 100
3, 139968, Note_on_c, 1, 57, 109
3, 139968, Note_on_c, 1, 62, 109
3, 140156, Note_off_c, 1, 57, 100
3, 140156, Note_off_c, 1, 62, 100
3, 140160, Note_on_c, 1, 43, 100
3, 140348, Note_off_c, 1, 43, 100
3, 140352, Note_on_c, 1, 55, 98
3, 140352, Note_on_c, 1, 60, 98
3, 140540, Note_off_c, 1, 55, 100
3, 140540, Note_off_c, 1, 60, 100
3, 140544, Note_on_c, 1, 43, 95
3, 140732, Note_off_c, 1, 43, 100
3, 140736, Note_on_c, 1, 55, 93
3, 140736, Note_on_c, 1, 59, 93
3, 140924, Note_off_c, 1, 55, 100
3, 140924, Note_off_c, 1, 59, 100
3, 140928, Note_on_c, 1, 48, 90
3, 141116, Note_off_c, 1, 48, 100
3, 141696, Note_on_c, 1, 43, 80
3, 141884, Note_off_c, 1, 43, 100
3, 142080, Note_on_c, 1, 36, 80
3, 142268, Note_off_c, 1, 36, 100
3, 142464, Note_on_c, 1, 45, 80
3, 142652, Note_off_c, 1, 45, 100
3, 142848, Note_on_c, 1, 38, 80
3, 143036, Note_off_c, 1, 38, 100
3, 143232, Note_on_c, 1, 47, 80
3, 143420, Note_off_c, 1, 47, 100
3, 143616, Note_on_c, 1, 40, 80
3, 143804, Note_off_c, 1, 40, 100
3, 144000, Note_on_c, 1, 50, 100
3, 144000, Note_on_c, 1, 38, 100
3, 144764, Note_off_c, 1, 50, 100
3, 144764, Note_off_c, 1, 38, 100
3, 144768, Note_on_c, 1, 36, 100
3, 144956, Note_off_c, 1, 36, 100
3, 145152, Note_on_c, 1, 48, 95
3, 145340, Note_off_c, 1, 48, 100
3, 145536, Note_on_c, 1, 45, 89
3, 145724, Note_off_c, 1, 45, 100
3, 145920, Note_on_c, 1, 41, 83
3, 146108, Note_off_c, 1, 41, 100
3, 146304, Note_on_c, 1, 43, 80
3, 146492, Note_off_c, 1, 43, 100
3, 146688, Note_on_c, 1, 31, 80
3, 146876, Note_off_c, 1, 31, 100
3, 147072, Note_on_c, 1, 36, 80
3, 147260, Note_off_c, 1, 36, 100
3, 147840, Note_on_c, 1, 43, 80
3, 148028, Note_off_c, 1, 43, 100
3, 148224, Note_on_c, 1, 55, 80
3, 148412, Note_off_c, 1, 55, 100
3, 148608, Note_on_c, 1, 55, 80
3, 148796, Note_off_c, 1, 55, 100
3, 148992, Note_on_c, 1, 55, 80
3, 149180, Note_off_c, 1, 55, 100
3, 149376, Note_on_c, 1, 43, 80
3, 149564, Note_off_c, 1, 43, 100
3, 149760, Note_on_c, 1, 55, 80
3, 149948, Note_off_c, 1, 55, 100
3, 150144, Note_on_c, 1, 55, 80
3, 150332, Note_off_c, 1, 55, 100
3, 150528, Note_on_c, 1, 55, 80
3, 150716, Note_off_c, 1, 55, 100
3, 150912, Note_on_c, 1, 43, 80
3, 151100, Note_off_c, 1, 43, 100
3, 151296, Note_on_c, 1, 55, 76
3, 151484, Note_off_c, 1, 55, 100
3, 151680, Note_on_c, 1, 55, 72
3, 151868, Note_off_c, 1, 55, 100
3, 152064, Note_on_c, 1, 55, 68
3, 152252, Note_off_c, 1, 55, 100
3, 152448, Note_on_c, 1, 55, 65
3, 152636, Note_off_c, 1, 55, 100
3, 152832, Note_on_c, 1, 55, 65
3, 153020, Note_off_c, 1, 55, 100
3, 153216, Note_on_c, 1, 55, 65
3, 153404, Note_off_c, 1, 55, 100
3, 153600, Note_on_c, 1, 55, 65
3, 153788, Note_off_c, 1, 55, 100
3, 153984, Note_on_c, 1, 60, 80
3, 154364, Note_off_c, 1, 60, 100
3, 154368, Note_on_c, 1, 62, 80
3, 154748, Note_off_c, 1, 62, 100
3, 154752, Note_on_c, 1, 64, 80
3, 155132, Note_off_c, 1, 64, 100
3, 155136, Note_on_c, 1, 59, 80
3, 155516, Note_off_c, 1, 59, 100
3, 155520, Note_on_c, 1, 60, 80
3, 155900, Note_off_c, 1, 60, 100
3, 155904, Note_on_c, 1, 53, 80
3, 156284, Note_off_c, 1, 53, 100
3, 156288, Note_on_c, 1, 55, 80
3, 156860, Note_off_c, 1, 55, 100
3, 156864, Note_on_c, 1, 53, 80
3, 157052, Note_off_c, 1, 53, 100
3, 157056, Note_on_c, 1, 52, 80
3, 157436, Note_off_c, 1, 52, 100
3, 157440, Note_on_c, 1, 50, 80
3, 157820, Note_off_c, 1, 50, 100
3, 157824, Note_on_c, 1, 48, 80
3, 158204, Note_off_c, 1, 48, 100
3, 158208, Note_on_c, 1, 47, 80
3, 158588, Note_off_c, 1, 47, 100
3, 158592, Note_on_c, 1, 45, 80
3, 158972, Note_off_c, 1, 45, 100
3, 158976, Note_on_c, 1, 41, 80
3, 159356, Note_off_c, 1, 41, 100
3, 159360, Note_on_c, 1, 43, 80
3, 160124, Note_off_c, 1, 43, 100
3, 160128, Note_on_c, 1, 48, 80
3, 160508, Note_off_c, 1, 48, 100
3, 160512, Note_on_c, 1, 50, 83
3, 160892, Note_off_c, 1, 50, 100
3, 160896, Note_on_c, 1, 52, 87
3, 161276, Note_off_c, 1, 52, 100
3, 161280, Note_on_c, 1, 47, 91
3, 161660, Note_off_c, 1, 47, 100
3, 161664, Note_on_c, 1, 48, 95
3, 162044, Note_off_c, 1, 48, 100
3, 162048, Note_on_c, 1, 45, 95
3, 162428, Note_off_c, 1, 45, 100
3, 162432, Note_on_c, 1, 47, 110
3, 163196, Note_off_c, 1, 47, 100
3, 163200, Note_on_c, 1, 48, 95
3, 163580, Note_off_c, 1, 48, 100
3, 163584, Note_on_c, 1, 49, 98
3, 163964, Note_off_c, 1, 49, 100
3, 163968, Note_on_c, 1, 50, 102
3, 164732, Note_off_c, 1, 50, 100
3, 164736, Note_on_c, 1, 38, 80
3, 165116, Note_off_c, 1, 38, 100
3, 165120, Note_on_c, 1, 50, 80
3, 165500, Note_off_c, 1, 50, 100
3, 165504, Note_on_c, 1, 43, 80
3, 166268, Note_off_c, 1, 43, 100
3, 166272, Note_on_c, 1, 64, 80
3, 166652, Note_off_c, 1, 64, 100
3, 166656, Note_on_c, 1, 62, 80
3, 167036, Note_off_c, 1, 62, 100
3, 167040, Note_on_c, 1, 60, 80
3, 167420, Note_off_c, 1, 60, 100
3, 167424, Note_on_c, 1, 58, 80
3, 167804, Note_off_c, 1, 58, 100
3, 167808, Note_on_c, 1, 57, 80
3, 168188, Note_off_c, 1, 57, 100
3, 168192, Note_on_c, 1, 55, 80
3, 168572, Note_off_c, 1, 55, 100
3, 168576, Note_on_c, 1, 53, 80
3, 169340, Note_off_c, 1, 53, 100
3, 169344, Note_on_c, 1, 53, 80
3, 169724, Note_off_c, 1, 53, 100
3, 169728, Note_on_c, 1, 52, 83
3, 170108, Note_off_c, 1, 52, 100
3, 170112, Note_on_c, 1, 50, 87
3, 170492, Note_off_c, 1, 50, 100
3, 170496, Note_on_c, 1, 52, 91
3, 170876, Note_off_c, 1, 52, 100
3, 170880, Note_on_c, 1, 53, 95
3, 171260, Note_off_c, 1, 53, 100
3, 171264, Note_on_c, 1, 54, 99
3, 171644, Note_off_c, 1, 54, 100
3, 171648, Note_on_c, 1, 55, 103
3, 172220, Note_off_c, 1, 55, 100
3, 172224, Note_on_c, 1, 53, 108
3, 172412, Note_off_c, 1, 53, 100
3, 172416, Note_on_c, 1, 52, 80
3, 172796, Note_off_c, 1, 52, 100
3, 172800, Note_on_c, 1, 50, 80
3, 173180, Note_off_c, 1, 50, 100
3, 173184, Note_on_c, 1, 48, 80
3, 173564, Note_off_c, 1, 48, 100
3, 173568, Note_on_c, 1, 47, 80
3, 173948, Note_off_c, 1, 47, 100
3, 173952, Note_on_c, 1, 48, 80
3, 174332, Note_off_c, 1, 48, 100
3, 174336, Note_on_c, 1, 41, 80
3, 174716, Note_off_c, 1, 41, 100
3, 174720, Note_on_c, 1, 43, 80
3, 175292, Note_off_c, 1, 43, 100
3, 175296, Note_on_c, 1, 41, 80
3, 175484, Note_off_c, 1, 41, 100
3, 175488, Note_on_c, 1, 40, 80
3, 175872, Note_on_c, 1, 52, 85
3, 176252, Note_off_c, 1, 40, 100
3, 176252, Note_off_c, 1, 52, 100
3, 176256, Note_on_c, 1, 41, 90
3, 176640, Note_on_c, 1, 53, 95
3, 177020, Note_off_c, 1, 41, 100
3, 177020, Note_off_c, 1, 53, 100
3, 177024, Note_on_c, 1, 43, 100
3, 177408, Note_on_c, 1, 55, 106
3, 177788, Note_off_c, 1, 43, 100
3, 177788, Note_off_c, 1, 55, 100
3, 177792, Note_on_c, 1, 48, 100
3, 178172, Note_off_c, 1, 48, 100
3, 178560, Note_on_c, 1, 43, 110
3, 178940, Note_off_c, 1, 43, 100
3, 178944, Note_on_c, 1, 36, 80
3, 179132, Note_off_c, 1, 36, 100
3, 179328, Note_on_c, 1, 45, 110
3, 179708, Note_off_c, 1, 45, 100
3, 179712, Note_on_c, 1, 38, 80
3, 179900, Note_off_c, 1, 38, 100
3, 180096, Note_on_c, 1, 47, 110
3, 180476, Note_off_c, 1, 47, 100
3, 180480, Note_on_c, 1, 40, 80
3, 180668, Note_off_c, 1, 40, 100
3, 180864, Note_on_c, 1, 50, 100
3, 180864, Note_on_c, 1, 38, 100
3, 181628, Note_off_c, 1, 50, 100
3, 181628, Note_off_c, 1, 38, 100
3, 181632, Note_on_c, 1, 36, 100
3, 182012, Note_off_c, 1, 36, 100
3, 182016, Note_on_c, 1, 48, 95
3, 182396, Note_off_c, 1, 48, 100
3, 182400, Note_on_c, 1, 45, 90
3, 182780, Note_off_c, 1, 45, 100
3, 182784, Note_on_c, 1, 41, 85
3, 183164, Note_off_c, 1, 41, 100
3, 183168, Note_on_c, 1, 43, 80
3, 183548, Note_off_c, 1, 43, 100
3, 183552, Note_on_c, 1, 31, 80
3, 183932, Note_off_c, 1, 31, 100
3, 183936, Note_on_c, 1, 36, 80
3, 184124, Note_off_c, 1, 36, 100
3, 184704, Note_on_c, 1, 60, 80
3, 184704, Note_on_c, 1, 64, 80
3, 184892, Note_off_c, 1, 60, 100
3, 184892, Note_off_c, 1, 64, 100
3, 185088, Note_on_c, 1, 62, 80
3, 185088, Note_on_c, 1, 65, 80
3, 185276, Note_off_c, 1, 62, 100
3, 185276, Note_off_c, 1, 65, 100
3, 185472, Note_on_c, 1, 64, 80
3, 185660, Note_off_c, 1, 64, 100
3, 185856, Note_on_c, 1, 59, 80
3, 185856, Note_on_c, 1, 65, 80
3, 186044, Note_off_c, 1, 59, 100
3, 186044, Note_off_c, 1, 65, 100
3, 186240, Note_on_c, 1, 60, 80
3, 186240, Note_on_c, 1, 64, 80
3, 186428, Note_off_c, 1, 60, 100
3, 186428, Note_off_c, 1, 64, 100
3, 186624, Note_on_c, 1, 53, 80
3, 186624, Note_on_c, 1, 62, 80
3, 186812, Note_off_c, 1, 53, 100
3, 186812, Note_off_c, 1, 62, 100
3, 187008, Note_on_c, 1, 55, 80
3, 187008, Note_on_c, 1, 59, 80
3, 187196, Note_off_c, 1, 55, 100
3, 187196, Note_off_c, 1, 59, 100
3, 187776, Note_on_c, 1, 67, 70
3, 187776, Note_on_c, 1, 64, 70
3, 187964, Note_off_c, 1, 67, 100
3, 187964, Note_off_c, 1, 64, 100
3, 188160, Note_on_c, 1, 67, 70
3, 188160, Note_on_c, 1, 62, 70
3, 188348, Note_off_c, 1, 67, 100
3, 188348, Note_off_c, 1, 62, 100
3, 188544, Note_on_c, 1, 67, 70
3, 188544, Note_on_c, 1, 60, 70
3, 188732, Note_off_c, 1, 67, 100
3, 188732, Note_off_c, 1, 60, 100
3, 188928, Note_on_c, 1, 59, 70
3, 188928, Note_on_c, 1, 64, 70
3, 189116, Note_off_c, 1, 59, 100
3, 189116, Note_off_c, 1, 64, 100
3, 189312, Note_on_c, 1, 64, 70
3, 189312, Note_on_c, 1, 57, 70
3, 189500, Note_off_c, 1, 64, 100
3, 189500, Note_off_c, 1, 57, 100
3, 190080, Note_on_c, 1, 53, 70
3, 190080, Note_on_c, 1, 50, 70
3, 190080, Note_on_c, 1, 45, 70
3, 190080, Note_on_c, 1, 41, 70
3, 190268, Note_off_c, 1, 53, 100
3, 190268, Note_off_c, 1, 50, 100
3, 190268, Note_off_c, 1, 45, 100
3, 190268, Note_off_c, 1, 41, 100
3, 190848, Note_on_c, 1, 64, 70
3, 190848, Note_on_c, 1, 55, 70
3, 190848, Note_on_c, 1, 60, 70
3, 191036, Note_off_c, 1, 64, 100
3, 191036, Note_off_c, 1, 55, 100
3, 191036, Note_off_c, 1, 60, 100
3, 191616, Note_on_c, 1, 50, 70
3, 191616, Note_on_c, 1, 47, 70
3, 191616, Note_on_c, 1, 43, 70
3, 191804, Note_off_c, 1, 50, 100
3, 191804, Note_off_c, 1, 47, 100
3, 191804, Note_off_c, 1, 43, 100
3, 192384, Note_on_c, 1, 48, 120
3, 192384, Note_on_c, 1, 43, 120
3, 192384, Note_on_c, 1, 36, 120
3, 192384, Note_on_c, 1, 40, 120
3, 193148, Note_off_c, 1, 48, 100
3, 193148, Note_off_c, 1, 43, 100
3, 193148, Note_off_c, 1, 36, 100
3, 193148, Note_off_c, 1, 40, 100
3, 193148, End_track
0, 0, End_of_file
