0, 0, Header, 1, 3, 384
1, 0, Start_track
1, 0, Title_t, "L.v.Beethoven 1mov - Piano Sonata No.10 in G Major Op.14-2\000"
1, 0, Copyright_t, "Copyright(C) 1995-2009, Suzuki Software\000"
1, 0, Sequencer_specific, 9, 67, 123, 0, 88, 70, 48, 50, 0, 1
1, 0, Text_t, "XFhd:2000/05/14:JP:Classical::::L.v.Beethoven:::Kaoru Suzuki\000"
1, 0, Text_t, "XFln:JP:\203s\203A\203m\203\\\203i\203^\221æ10\224Ô\203g\222·\222²\215ì\225i14-2\201`\221æ1\212y\217Í:L.v.\203x\201[\203g\201[\203\224\203F\203\223:::\227é\202¿\202á\202ñ:\227é\202¿\202á\202ñ\000"
1, 0, Time_signature, 1, 2, 96, 8
1, 0, Sequencer_specific, 3, 0, 0, 65
1, 0, Sequencer_specific, 5, 0, 0, 119, 14, 0
1, 0, Tempo, 666666
1, 384, Time_signature, 2, 2, 96, 8
1, 18048, Tempo, 705882
1, 18432, Tempo, 750000
1, 19584, Tempo, 666666
1, 29184, Tempo, 705882
1, 29376, Tempo, 750000
1, 29568, Tempo, 666666
1, 34944, Tempo, 705882
1, 35328, Tempo, 750000
1, 35712, Tempo, 689655
1, 47040, Tempo, 740740
1, 47232, Tempo, 674157
1, 66816, Tempo, 705882
1, 67008, Tempo, 821917
1, 68064, Tempo, 666666
1, 81792, Tempo, 705882
1, 82560, Tempo, 666666
1, 83328, Tempo, 705882
1, 83712, Tempo, 750000
1, 84096, Tempo, 689655
1, 95424, Tempo, 722891
1, 95616, Tempo, 666666
1, 104064, Tempo, 705882
1, 104448, Tempo, 750000
1, 104640, Tempo, 800000
1, 104928, Tempo, 666666
1, 108672, Tempo, 689655
1, 109440, Tempo, 714285
1, 109824, Tempo, 750000
1, 110016, Tempo, 800000
1, 110304, Tempo, 666666
1, 122880, Tempo, 800000
1, 124416, Tempo, 666666
1, 130176, Tempo, 689655
1, 130560, Tempo, 714285
1, 130752, Tempo, 750000
1, 131040, Tempo, 666666
1, 136320, Tempo, 689655
1, 136704, Tempo, 714285
1, 136896, Tempo, 750000
1, 137184, Tempo, 666666
1, 141120, Tempo, 705882
1, 141312, Tempo, 750000
1, 141504, Tempo, 857142
1, 141696, Tempo, 705882
1, 142080, Tempo, 705882
1, 143616, Tempo, 750000
1, 143808, Tempo, 800000
1, 145344, Tempo, 666666
1, 165888, Tempo, 705882
1, 166080, Tempo, 750000
1, 167136, Tempo, 666666
1, 180864, Tempo, 705882
1, 181632, Tempo, 666666
1, 182400, Tempo, 705882
1, 182784, Tempo, 750000
1, 183168, Tempo, 689655
1, 192384, Tempo, 705882
1, 192768, Tempo, 750000
1, 192960, Tempo, 800000
1, 193152, Tempo, 689655
1, 196128, Tempo, 722891
1, 196800, Tempo, 689655
1, 198144, Tempo, 722891
1, 198336, Tempo, 857142
1, 198528, Tempo, 722891
1, 200064, Tempo, 769230
1, 201984, Tempo, 857142
1, 202752, Tempo, 1200000
1, 202752, End_track
2, 0, Start_track
2, 0, Title_t, "Right"
2, 0, Control_c, 0, 0, 0
2, 0, Program_c, 0, 0
2, 0, Control_c, 0, 7, 100
2, 0, Control_c, 0, 10, 76
2, 0, Control_c, 0, 91, 127
2, 0, Key_signature, 1, "major"
2, 96, Note_on_c, 0, 62, 80
2, 188, Note_off_c, 0, 62, 100
2, 192, Note_on_c, 0, 74, 80
2, 284, Note_off_c, 0, 74, 100
2, 288, Note_on_c, 0, 70, 80
2, 380, Note_off_c, 0, 70, 100
2, 384, Note_on_c, 0, 71, 80
2, 476, Note_off_c, 0, 71, 100
2, 480, Note_on_c, 0, 66, 80
2, 572, Note_off_c, 0, 66, 100
2, 576, Note_on_c, 0, 67, 80
2, 860, Note_off_c, 0, 67, 100
2, 864, Note_on_c, 0, 62, 80
2, 956, Note_off_c, 0, 62, 100
2, 960, Note_on_c, 0, 74, 80
2, 1052, Note_off_c, 0, 74, 100
2, 1056, Note_on_c, 0, 70, 80
2, 1148, Note_off_c, 0, 70, 100
2, 1152, Note_on_c, 0, 71, 80
2, 1244, Note_off_c, 0, 71, 100
2, 1248, Note_on_c, 0, 66, 80
2, 1340, Note_off_c, 0, 66, 100
2, 1344, Note_on_c, 0, 67, 80
2, 1628, Note_off_c, 0, 67, 100
2, 1632, Note_on_c, 0, 64, 80
2, 1724, Note_off_c, 0, 64, 100
2, 1728, Note_on_c, 0, 76, 80
2, 1820, Note_off_c, 0, 76, 100
2, 1824, Note_on_c, 0, 71, 80
2, 1916, Note_off_c, 0, 71, 100
2, 1920, Note_on_c, 0, 72, 80
2, 2012, Note_off_c, 0, 72, 100
2, 2016, Note_on_c, 0, 68, 80
2, 2108, Note_off_c, 0, 68, 100
2, 2112, Note_on_c, 0, 69, 80
2, 2396, Note_off_c, 0, 69, 100
2, 2400, Note_on_c, 0, 64, 80
2, 2492, Note_off_c, 0, 64, 100
2, 2496, Note_on_c, 0, 76, 80
2, 2588, Note_off_c, 0, 76, 100
2, 2592, Note_on_c, 0, 71, 80
2, 2684, Note_off_c, 0, 71, 100
2, 2688, Note_on_c, 0, 72, 80
2, 2780, Note_off_c, 0, 72, 100
2, 2784, Note_on_c, 0, 68, 80
2, 2876, Note_off_c, 0, 68, 100
2, 2880, Note_on_c, 0, 69, 80
2, 3164, Note_off_c, 0, 69, 100
2, 3168, Note_on_c, 0, 69, 80
2, 3260, Note_off_c, 0, 69, 100
2, 3264, Note_on_c, 0, 84, 80
2, 3356, Note_off_c, 0, 84, 100
2, 3360, Note_on_c, 0, 83, 80
2, 3452, Note_off_c, 0, 83, 100
2, 3456, Note_on_c, 0, 81, 80
2, 3740, Note_off_c, 0, 81, 100
2, 3744, Note_on_c, 0, 79, 80
2, 3836, Note_off_c, 0, 79, 100
2, 3840, Note_on_c, 0, 78, 80
2, 3932, Note_off_c, 0, 78, 100
2, 3936, Note_on_c, 0, 76, 80
2, 4028, Note_off_c, 0, 76, 100
2, 4032, Note_on_c, 0, 74, 80
2, 4124, Note_off_c, 0, 74, 100
2, 4128, Note_on_c, 0, 72, 80
2, 4220, Note_off_c, 0, 72, 100
2, 4224, Note_on_c, 0, 74, 80
2, 4244, Note_off_c, 0, 74, 100
2, 4248, Note_on_c, 0, 72, 80
2, 4316, Note_off_c, 0, 72, 100
2, 4320, Note_on_c, 0, 71, 80
2, 4508, Note_off_c, 0, 71, 100
2, 4512, Note_on_c, 0, 79, 80
2, 4604, Note_off_c, 0, 79, 100
2, 4608, Note_on_c, 0, 79, 80
2, 4700, Note_off_c, 0, 79, 100
2, 4704, Note_on_c, 0, 69, 80
2, 4892, Note_off_c, 0, 69, 100
2, 4896, Note_on_c, 0, 76, 80
2, 4988, Note_off_c, 0, 76, 100
2, 4992, Note_on_c, 0, 76, 80
2, 5084, Note_off_c, 0, 76, 100
2, 5088, Note_on_c, 0, 67, 80
2, 5276, Note_off_c, 0, 67, 100
2, 5280, Note_on_c, 0, 74, 80
2, 5372, Note_off_c, 0, 74, 100
2, 5376, Note_on_c, 0, 74, 80
2, 5468, Note_off_c, 0, 74, 100
2, 5472, Note_on_c, 0, 60, 80
2, 5660, Note_off_c, 0, 60, 100
2, 5664, Note_on_c, 0, 66, 80
2, 5756, Note_off_c, 0, 66, 100
2, 5760, Note_on_c, 0, 67, 80
2, 5760, Note_on_c, 0, 59, 80
2, 6140, Note_off_c, 0, 67, 100
2, 6140, Note_off_c, 0, 59, 100
2, 6336, Note_on_c, 0, 74, 80
2, 6524, Note_off_c, 0, 74, 100
2, 6528, Note_on_c, 0, 74, 80
2, 6716, Note_off_c, 0, 74, 100
2, 6720, Note_on_c, 0, 74, 85
2, 6908, Note_off_c, 0, 74, 100
2, 6912, Note_on_c, 0, 74, 91
2, 7100, Note_off_c, 0, 74, 100
2, 7104, Note_on_c, 0, 74, 97
2, 7152, Note_on_c, 0, 76, 98
2, 7196, Note_off_c, 0, 74, 100
2, 7200, Note_on_c, 0, 73, 99
2, 7244, Note_off_c, 0, 76, 100
2, 7248, Note_on_c, 0, 74, 100
2, 7292, Note_off_c, 0, 73, 100
2, 7296, Note_on_c, 0, 76, 100
2, 7340, Note_off_c, 0, 74, 100
2, 7676, Note_off_c, 0, 76, 100
2, 7680, Note_on_c, 0, 74, 80
2, 7868, Note_off_c, 0, 74, 100
2, 8352, Note_on_c, 0, 74, 83
2, 8444, Note_off_c, 0, 74, 100
2, 8448, Note_on_c, 0, 74, 87
2, 8540, Note_off_c, 0, 74, 100
2, 8544, Note_on_c, 0, 74, 91
2, 8636, Note_off_c, 0, 74, 100
2, 8640, Note_on_c, 0, 74, 95
2, 8732, Note_off_c, 0, 74, 100
2, 8736, Note_on_c, 0, 74, 99
2, 8828, Note_off_c, 0, 74, 100
2, 8832, Note_on_c, 0, 76, 100
2, 9212, Note_off_c, 0, 76, 100
2, 9216, Note_on_c, 0, 74, 80
2, 9404, Note_off_c, 0, 74, 100
2, 9792, Note_on_c, 0, 74, 80
2, 10076, Note_off_c, 0, 74, 100
2, 10080, Note_on_c, 0, 76, 80
2, 10124, Note_off_c, 0, 76, 100
2, 10128, Note_on_c, 0, 74, 80
2, 10172, Note_off_c, 0, 74, 100
2, 10176, Note_on_c, 0, 72, 80
2, 10268, Note_off_c, 0, 72, 100
2, 10272, Note_on_c, 0, 71, 80
2, 10364, Note_off_c, 0, 71, 100
2, 10368, Note_on_c, 0, 71, 80
2, 10556, Note_off_c, 0, 71, 100
2, 10560, Note_on_c, 0, 69, 80
2, 10940, Note_off_c, 0, 69, 100
2, 10944, Note_on_c, 0, 67, 80
2, 11132, Note_off_c, 0, 67, 100
2, 11136, Note_on_c, 0, 66, 80
2, 11168, Note_on_c, 0, 67, 80
2, 11196, Note_off_c, 0, 66, 100
2, 11200, Note_on_c, 0, 69, 80
2, 11228, Note_off_c, 0, 67, 100
2, 11232, Note_on_c, 0, 67, 80
2, 11260, Note_off_c, 0, 69, 100
2, 11324, Note_off_c, 0, 67, 100
2, 11328, Note_on_c, 0, 66, 80
2, 11708, Note_off_c, 0, 66, 100
2, 11712, Note_on_c, 0, 74, 80
2, 11900, Note_off_c, 0, 74, 100
2, 11904, Note_on_c, 0, 74, 80
2, 12092, Note_off_c, 0, 74, 100
2, 12096, Note_on_c, 0, 73, 80
2, 12476, Note_off_c, 0, 73, 100
2, 12480, Note_on_c, 0, 71, 80
2, 12668, Note_off_c, 0, 71, 100
2, 12672, Note_on_c, 0, 69, 80
2, 12704, Note_on_c, 0, 71, 80
2, 12732, Note_off_c, 0, 69, 100
2, 12736, Note_on_c, 0, 73, 80
2, 12764, Note_off_c, 0, 71, 100
2, 12768, Note_on_c, 0, 71, 80
2, 12796, Note_off_c, 0, 73, 100
2, 12860, Note_off_c, 0, 71, 100
2, 12864, Note_on_c, 0, 69, 80
2, 13244, Note_off_c, 0, 69, 100
2, 13248, Note_on_c, 0, 78, 80
2, 13436, Note_off_c, 0, 78, 100
2, 13440, Note_on_c, 0, 78, 80
2, 13628, Note_off_c, 0, 78, 100
2, 13632, Note_on_c, 0, 76, 80
2, 14012, Note_off_c, 0, 76, 100
2, 14016, Note_on_c, 0, 74, 80
2, 14204, Note_off_c, 0, 74, 100
2, 14208, Note_on_c, 0, 74, 80
2, 14396, Note_off_c, 0, 74, 100
2, 14400, Note_on_c, 0, 73, 80
2, 14780, Note_off_c, 0, 73, 100
2, 14784, Note_on_c, 0, 71, 80
2, 14972, Note_off_c, 0, 71, 100
2, 14976, Note_on_c, 0, 71, 80
2, 15164, Note_off_c, 0, 71, 100
2, 15168, Note_on_c, 0, 69, 80
2, 15356, Note_off_c, 0, 69, 100
2, 15424, Note_on_c, 0, 74, 80
2, 15484, Note_off_c, 0, 74, 100
2, 15488, Note_on_c, 0, 76, 80
2, 15548, Note_off_c, 0, 76, 100
2, 15552, Note_on_c, 0, 78, 80
2, 15612, Note_off_c, 0, 78, 100
2, 15616, Note_on_c, 0, 76, 80
2, 15676, Note_off_c, 0, 76, 100
2, 15680, Note_on_c, 0, 74, 80
2, 15740, Note_off_c, 0, 74, 100
2, 15744, Note_on_c, 0, 74, 80
2, 15932, Note_off_c, 0, 74, 100
2, 15936, Note_on_c, 0, 73, 80
2, 16124, Note_off_c, 0, 73, 100
2, 16192, Note_on_c, 0, 71, 80
2, 16252, Note_off_c, 0, 71, 100
2, 16256, Note_on_c, 0, 73, 80
2, 16316, Note_off_c, 0, 73, 100
2, 16320, Note_on_c, 0, 74, 80
2, 16380, Note_off_c, 0, 74, 100
2, 16384, Note_on_c, 0, 73, 80
2, 16444, Note_off_c, 0, 73, 100
2, 16448, Note_on_c, 0, 71, 80
2, 16508, Note_off_c, 0, 71, 100
2, 16512, Note_on_c, 0, 71, 80
2, 16700, Note_off_c, 0, 71, 100
2, 16704, Note_on_c, 0, 69, 80
2, 16892, Note_off_c, 0, 69, 100
2, 16960, Note_on_c, 0, 74, 80
2, 17020, Note_off_c, 0, 74, 100
2, 17024, Note_on_c, 0, 76, 80
2, 17084, Note_off_c, 0, 76, 100
2, 17088, Note_on_c, 0, 78, 80
2, 17148, Note_off_c, 0, 78, 100
2, 17152, Note_on_c, 0, 76, 80
2, 17212, Note_off_c, 0, 76, 100
2, 17216, Note_on_c, 0, 74, 80
2, 17276, Note_off_c, 0, 74, 100
2, 17280, Note_on_c, 0, 74, 80
2, 17340, Note_off_c, 0, 74, 100
2, 17344, Note_on_c, 0, 73, 80
2, 17404, Note_off_c, 0, 73, 100
2, 17408, Note_on_c, 0, 74, 80
2, 17468, Note_off_c, 0, 74, 100
2, 17472, Note_on_c, 0, 76, 80
2, 17532, Note_off_c, 0, 76, 100
2, 17536, Note_on_c, 0, 74, 80
2, 17596, Note_off_c, 0, 74, 100
2, 17600, Note_on_c, 0, 73, 80
2, 17660, Note_off_c, 0, 73, 100
2, 17664, Note_on_c, 0, 73, 80
2, 17724, Note_off_c, 0, 73, 100
2, 17728, Note_on_c, 0, 71, 80
2, 17788, Note_off_c, 0, 71, 100
2, 17792, Note_on_c, 0, 73, 80
2, 17852, Note_off_c, 0, 73, 100
2, 17856, Note_on_c, 0, 74, 80
2, 17916, Note_off_c, 0, 74, 100
2, 17920, Note_on_c, 0, 73, 80
2, 17980, Note_off_c, 0, 73, 100
2, 17984, Note_on_c, 0, 71, 80
2, 18044, Note_off_c, 0, 71, 100
2, 18048, Note_on_c, 0, 71, 80
2, 18108, Note_off_c, 0, 71, 100
2, 18112, Note_on_c, 0, 69, 80
2, 18172, Note_off_c, 0, 69, 100
2, 18176, Note_on_c, 0, 68, 80
2, 18236, Note_off_c, 0, 68, 100
2, 18240, Note_on_c, 0, 69, 80
2, 18300, Note_off_c, 0, 69, 100
2, 18304, Note_on_c, 0, 71, 80
2, 18364, Note_off_c, 0, 71, 100
2, 18368, Note_on_c, 0, 73, 80
2, 18428, Note_off_c, 0, 73, 100
2, 18432, Note_on_c, 0, 74, 80
2, 18492, Note_off_c, 0, 74, 100
2, 18496, Note_on_c, 0, 75, 80
2, 18556, Note_off_c, 0, 75, 100
2, 18560, Note_on_c, 0, 76, 80
2, 18620, Note_off_c, 0, 76, 100
2, 18624, Note_on_c, 0, 77, 80
2, 18668, Note_off_c, 0, 77, 100
2, 18672, Note_on_c, 0, 78, 80
2, 18716, Note_off_c, 0, 78, 100
2, 18720, Note_on_c, 0, 79, 80
2, 18764, Note_off_c, 0, 79, 100
2, 18768, Note_on_c, 0, 80, 80
2, 18812, Note_off_c, 0, 80, 100
2, 18816, Note_on_c, 0, 81, 80
2, 19004, Note_off_c, 0, 81, 100
2, 19008, Note_on_c, 0, 81, 80
2, 19196, Note_off_c, 0, 81, 100
2, 19200, Note_on_c, 0, 81, 80
2, 19388, Note_off_c, 0, 81, 100
2, 19392, Note_on_c, 0, 81, 80
2, 19580, Note_off_c, 0, 81, 100
2, 19584, Note_on_c, 0, 81, 80
2, 19584, Note_on_c, 0, 78, 80
2, 19868, Note_off_c, 0, 81, 100
2, 19868, Note_off_c, 0, 78, 100
2, 19872, Note_on_c, 0, 80, 80
2, 19872, Note_on_c, 0, 77, 80
2, 19964, Note_off_c, 0, 80, 100
2, 19964, Note_off_c, 0, 77, 100
2, 19968, Note_on_c, 0, 81, 80
2, 19968, Note_on_c, 0, 78, 80
2, 20252, Note_off_c, 0, 81, 100
2, 20252, Note_off_c, 0, 78, 100
2, 20256, Note_on_c, 0, 80, 80
2, 20256, Note_on_c, 0, 77, 80
2, 20348, Note_off_c, 0, 80, 100
2, 20348, Note_off_c, 0, 77, 100
2, 20352, Note_on_c, 0, 81, 80
2, 20352, Note_on_c, 0, 78, 80
2, 20636, Note_off_c, 0, 81, 100
2, 20636, Note_off_c, 0, 78, 100
2, 20640, Note_on_c, 0, 79, 80
2, 20640, Note_on_c, 0, 76, 80
2, 20732, Note_off_c, 0, 79, 100
2, 20732, Note_off_c, 0, 76, 100
2, 20736, Note_on_c, 0, 79, 80
2, 20736, Note_on_c, 0, 76, 80
2, 20828, Note_off_c, 0, 79, 100
2, 20828, Note_off_c, 0, 76, 100
2, 20832, Note_on_c, 0, 78, 80
2, 20832, Note_on_c, 0, 74, 80
2, 20924, Note_off_c, 0, 78, 100
2, 20924, Note_off_c, 0, 74, 100
2, 20928, Note_on_c, 0, 74, 80
2, 20928, Note_on_c, 0, 78, 80
2, 21020, Note_off_c, 0, 74, 100
2, 21020, Note_off_c, 0, 78, 100
2, 21024, Note_on_c, 0, 76, 80
2, 21024, Note_on_c, 0, 73, 80
2, 21116, Note_off_c, 0, 76, 100
2, 21116, Note_off_c, 0, 73, 100
2, 21120, Note_on_c, 0, 76, 80
2, 21120, Note_on_c, 0, 73, 80
2, 21212, Note_off_c, 0, 76, 100
2, 21212, Note_off_c, 0, 73, 100
2, 21216, Note_on_c, 0, 74, 80
2, 21216, Note_on_c, 0, 71, 80
2, 21308, Note_off_c, 0, 74, 100
2, 21308, Note_off_c, 0, 71, 100
2, 21312, Note_on_c, 0, 74, 80
2, 21312, Note_on_c, 0, 71, 80
2, 21404, Note_off_c, 0, 74, 100
2, 21404, Note_off_c, 0, 71, 100
2, 21408, Note_on_c, 0, 73, 80
2, 21408, Note_on_c, 0, 69, 80
2, 21500, Note_off_c, 0, 73, 100
2, 21500, Note_off_c, 0, 69, 100
2, 21504, Note_on_c, 0, 73, 80
2, 21504, Note_on_c, 0, 69, 80
2, 21596, Note_off_c, 0, 73, 100
2, 21596, Note_off_c, 0, 69, 100
2, 21600, Note_on_c, 0, 71, 80
2, 21600, Note_on_c, 0, 67, 80
2, 21692, Note_off_c, 0, 71, 100
2, 21692, Note_off_c, 0, 67, 100
2, 21696, Note_on_c, 0, 71, 80
2, 21696, Note_on_c, 0, 67, 80
2, 21788, Note_off_c, 0, 71, 100
2, 21788, Note_off_c, 0, 67, 100
2, 21792, Note_on_c, 0, 69, 80
2, 21792, Note_on_c, 0, 66, 80
2, 21884, Note_off_c, 0, 69, 100
2, 21884, Note_off_c, 0, 66, 100
2, 21888, Note_on_c, 0, 66, 80
2, 21888, Note_on_c, 0, 63, 80
2, 22268, Note_off_c, 0, 66, 100
2, 22268, Note_off_c, 0, 63, 100
2, 22272, Note_on_c, 0, 67, 80
2, 22272, Note_on_c, 0, 64, 80
2, 22460, Note_off_c, 0, 67, 100
2, 22460, Note_off_c, 0, 64, 100
2, 22656, Note_on_c, 0, 79, 80
2, 22656, Note_on_c, 0, 76, 80
2, 22940, Note_off_c, 0, 79, 100
2, 22940, Note_off_c, 0, 76, 100
2, 22944, Note_on_c, 0, 78, 80
2, 22944, Note_on_c, 0, 75, 80
2, 23036, Note_off_c, 0, 78, 100
2, 23036, Note_off_c, 0, 75, 100
2, 23040, Note_on_c, 0, 79, 80
2, 23040, Note_on_c, 0, 76, 80
2, 23324, Note_off_c, 0, 79, 100
2, 23324, Note_off_c, 0, 76, 100
2, 23328, Note_on_c, 0, 78, 80
2, 23328, Note_on_c, 0, 75, 80
2, 23420, Note_off_c, 0, 78, 100
2, 23420, Note_off_c, 0, 75, 100
2, 23424, Note_on_c, 0, 79, 80
2, 23424, Note_on_c, 0, 76, 80
2, 23708, Note_off_c, 0, 79, 100
2, 23708, Note_off_c, 0, 76, 100
2, 23712, Note_on_c, 0, 78, 80
2, 23712, Note_on_c, 0, 74, 80
2, 23804, Note_off_c, 0, 78, 100
2, 23804, Note_off_c, 0, 74, 100
2, 23808, Note_on_c, 0, 78, 80
2, 23808, Note_on_c, 0, 74, 80
2, 23900, Note_off_c, 0, 78, 100
2, 23900, Note_off_c, 0, 74, 100
2, 23904, Note_on_c, 0, 76, 80
2, 23904, Note_on_c, 0, 73, 80
2, 23996, Note_off_c, 0, 76, 100
2, 23996, Note_off_c, 0, 73, 100
2, 24000, Note_on_c, 0, 76, 80
2, 24000, Note_on_c, 0, 73, 80
2, 24092, Note_off_c, 0, 76, 100
2, 24092, Note_off_c, 0, 73, 100
2, 24096, Note_on_c, 0, 74, 80
2, 24096, Note_on_c, 0, 71, 80
2, 24188, Note_off_c, 0, 74, 100
2, 24188, Note_off_c, 0, 71, 100
2, 24192, Note_on_c, 0, 74, 80
2, 24192, Note_on_c, 0, 71, 80
2, 24284, Note_off_c, 0, 74, 100
2, 24284, Note_off_c, 0, 71, 100
2, 24288, Note_on_c, 0, 73, 80
2, 24288, Note_on_c, 0, 69, 80
2, 24380, Note_off_c, 0, 73, 100
2, 24380, Note_off_c, 0, 69, 100
2, 24384, Note_on_c, 0, 73, 80
2, 24384, Note_on_c, 0, 69, 80
2, 24476, Note_off_c, 0, 73, 100
2, 24476, Note_off_c, 0, 69, 100
2, 24480, Note_on_c, 0, 71, 80
2, 24480, Note_on_c, 0, 67, 80
2, 24572, Note_off_c, 0, 71, 100
2, 24572, Note_off_c, 0, 67, 100
2, 24576, Note_on_c, 0, 71, 80
2, 24576, Note_on_c, 0, 67, 80
2, 24668, Note_off_c, 0, 71, 100
2, 24668, Note_off_c, 0, 67, 100
2, 24672, Note_on_c, 0, 69, 80
2, 24672, Note_on_c, 0, 66, 80
2, 24764, Note_off_c, 0, 69, 100
2, 24764, Note_off_c, 0, 66, 100
2, 24768, Note_on_c, 0, 69, 80
2, 24768, Note_on_c, 0, 66, 80
2, 24860, Note_off_c, 0, 69, 100
2, 24860, Note_off_c, 0, 66, 100
2, 24864, Note_on_c, 0, 67, 80
2, 24864, Note_on_c, 0, 64, 80
2, 24956, Note_off_c, 0, 67, 100
2, 24956, Note_off_c, 0, 64, 100
2, 24960, Note_on_c, 0, 66, 80
2, 24960, Note_on_c, 0, 62, 80
2, 25148, Note_off_c, 0, 66, 100
2, 25148, Note_off_c, 0, 62, 100
2, 25152, Note_on_c, 0, 71, 80
2, 25152, Note_on_c, 0, 66, 80
2, 25340, Note_off_c, 0, 71, 100
2, 25340, Note_off_c, 0, 66, 100
2, 25344, Note_on_c, 0, 69, 80
2, 25344, Note_on_c, 0, 64, 80
2, 25532, Note_off_c, 0, 69, 100
2, 25532, Note_off_c, 0, 64, 100
2, 25536, Note_on_c, 0, 67, 80
2, 25536, Note_on_c, 0, 61, 80
2, 25724, Note_off_c, 0, 67, 100
2, 25724, Note_off_c, 0, 61, 100
2, 25728, Note_on_c, 0, 66, 80
2, 25728, Note_on_c, 0, 62, 80
2, 25916, Note_off_c, 0, 66, 100
2, 25916, Note_off_c, 0, 62, 100
2, 25920, Note_on_c, 0, 71, 80
2, 25920, Note_on_c, 0, 66, 80
2, 26108, Note_off_c, 0, 71, 100
2, 26108, Note_off_c, 0, 66, 100
2, 26112, Note_on_c, 0, 69, 80
2, 26112, Note_on_c, 0, 64, 80
2, 26300, Note_off_c, 0, 69, 100
2, 26300, Note_off_c, 0, 64, 100
2, 26304, Note_on_c, 0, 67, 80
2, 26304, Note_on_c, 0, 61, 80
2, 26492, Note_off_c, 0, 67, 100
2, 26492, Note_off_c, 0, 61, 100
2, 26496, Note_on_c, 0, 66, 80
2, 26592, Note_on_c, 0, 62, 80
2, 26684, Note_off_c, 0, 66, 100
2, 26684, Note_off_c, 0, 62, 100
2, 26688, Note_on_c, 0, 71, 80
2, 26688, Note_on_c, 0, 66, 80
2, 26780, Note_off_c, 0, 66, 100
2, 26784, Note_on_c, 0, 62, 80
2, 26876, Note_off_c, 0, 71, 100
2, 26876, Note_off_c, 0, 62, 100
2, 26880, Note_on_c, 0, 69, 80
2, 26880, Note_on_c, 0, 61, 80
2, 26972, Note_off_c, 0, 61, 100
2, 26976, Note_on_c, 0, 64, 80
2, 27068, Note_off_c, 0, 69, 100
2, 27068, Note_off_c, 0, 64, 100
2, 27072, Note_on_c, 0, 68, 80
2, 27072, Note_on_c, 0, 59, 80
2, 27164, Note_off_c, 0, 59, 100
2, 27168, Note_on_c, 0, 62, 80
2, 27260, Note_off_c, 0, 68, 100
2, 27260, Note_off_c, 0, 62, 100
2, 27264, Note_on_c, 0, 69, 80
2, 27452, Note_off_c, 0, 69, 100
2, 28032, Note_on_c, 0, 78, 80
2, 28220, Note_off_c, 0, 78, 100
2, 28224, Note_on_c, 0, 83, 80
2, 28412, Note_off_c, 0, 83, 100
2, 28416, Note_on_c, 0, 81, 80
2, 28604, Note_off_c, 0, 81, 100
2, 28608, Note_on_c, 0, 79, 80
2, 28608, Note_on_c, 0, 73, 80
2, 28796, Note_off_c, 0, 79, 100
2, 28796, Note_off_c, 0, 73, 100
2, 28800, Note_on_c, 0, 78, 80
2, 28988, Note_off_c, 0, 78, 100
2, 28992, Note_on_c, 0, 83, 80
2, 29180, Note_off_c, 0, 83, 100
2, 29184, Note_on_c, 0, 81, 80
2, 29372, Note_off_c, 0, 81, 100
2, 29376, Note_on_c, 0, 79, 80
2, 29376, Note_on_c, 0, 73, 80
2, 29564, Note_off_c, 0, 79, 100
2, 29564, Note_off_c, 0, 73, 100
2, 29568, Note_on_c, 0, 78, 80
2, 29568, Note_on_c, 0, 74, 80
2, 29756, Note_off_c, 0, 78, 100
2, 29756, Note_off_c, 0, 74, 100
2, 29760, Note_on_c, 0, 86, 82
2, 30140, Note_off_c, 0, 86, 100
2, 30144, Note_on_c, 0, 86, 87
2, 30524, Note_off_c, 0, 86, 100
2, 30528, Note_on_c, 0, 86, 93
2, 30716, Note_off_c, 0, 86, 100
2, 30720, Note_on_c, 0, 86, 95
2, 30908, Note_off_c, 0, 86, 100
2, 30912, Note_on_c, 0, 86, 98
2, 31100, Note_off_c, 0, 86, 100
2, 31104, Note_on_c, 0, 83, 80
2, 31152, Note_on_c, 0, 85, 80
2, 31196, Note_off_c, 0, 83, 100
2, 31200, Note_on_c, 0, 83, 80
2, 31244, Note_off_c, 0, 85, 100
2, 31248, Note_on_c, 0, 82, 80
2, 31292, Note_off_c, 0, 83, 100
2, 31296, Note_on_c, 0, 83, 80
2, 31340, Note_off_c, 0, 82, 100
2, 31344, Note_on_c, 0, 85, 80
2, 31388, Note_off_c, 0, 83, 100
2, 31392, Note_on_c, 0, 86, 80
2, 31436, Note_off_c, 0, 85, 100
2, 31440, Note_on_c, 0, 85, 80
2, 31484, Note_off_c, 0, 86, 100
2, 31488, Note_on_c, 0, 83, 80
2, 31532, Note_off_c, 0, 85, 100
2, 31536, Note_on_c, 0, 85, 80
2, 31580, Note_off_c, 0, 83, 100
2, 31584, Note_on_c, 0, 83, 80
2, 31628, Note_off_c, 0, 85, 100
2, 31632, Note_on_c, 0, 82, 80
2, 31676, Note_off_c, 0, 83, 100
2, 31680, Note_on_c, 0, 83, 80
2, 31724, Note_off_c, 0, 82, 100
2, 31728, Note_on_c, 0, 85, 80
2, 31772, Note_off_c, 0, 83, 100
2, 31776, Note_on_c, 0, 86, 80
2, 31820, Note_off_c, 0, 85, 100
2, 31824, Note_on_c, 0, 85, 80
2, 31868, Note_off_c, 0, 86, 100
2, 31872, Note_on_c, 0, 86, 81
2, 31916, Note_off_c, 0, 85, 100
2, 31920, Note_on_c, 0, 88, 82
2, 31964, Note_off_c, 0, 86, 100
2, 31968, Note_on_c, 0, 86, 83
2, 32012, Note_off_c, 0, 88, 100
2, 32016, Note_on_c, 0, 85, 85
2, 32060, Note_off_c, 0, 86, 100
2, 32064, Note_on_c, 0, 86, 86
2, 32108, Note_off_c, 0, 85, 100
2, 32112, Note_on_c, 0, 88, 87
2, 32156, Note_off_c, 0, 86, 100
2, 32160, Note_on_c, 0, 89, 89
2, 32204, Note_off_c, 0, 88, 100
2, 32208, Note_on_c, 0, 88, 90
2, 32252, Note_off_c, 0, 89, 100
2, 32256, Note_on_c, 0, 86, 91
2, 32300, Note_off_c, 0, 88, 100
2, 32304, Note_on_c, 0, 88, 93
2, 32348, Note_off_c, 0, 86, 100
2, 32352, Note_on_c, 0, 86, 94
2, 32396, Note_off_c, 0, 88, 100
2, 32400, Note_on_c, 0, 85, 95
2, 32444, Note_off_c, 0, 86, 100
2, 32448, Note_on_c, 0, 86, 97
2, 32492, Note_off_c, 0, 85, 100
2, 32496, Note_on_c, 0, 88, 98
2, 32540, Note_off_c, 0, 86, 100
2, 32544, Note_on_c, 0, 89, 99
2, 32588, Note_off_c, 0, 88, 100
2, 32592, Note_on_c, 0, 88, 110
2, 32636, Note_off_c, 0, 89, 100
2, 32640, Note_on_c, 0, 86, 110
2, 32684, Note_off_c, 0, 88, 100
2, 32688, Note_on_c, 0, 88, 110
2, 32732, Note_off_c, 0, 86, 100
2, 32736, Note_on_c, 0, 86, 110
2, 32780, Note_off_c, 0, 88, 100
2, 32784, Note_on_c, 0, 85, 110
2, 32828, Note_off_c, 0, 86, 100
2, 32832, Note_on_c, 0, 86, 110
2, 32876, Note_off_c, 0, 85, 100
2, 32880, Note_on_c, 0, 88, 110
2, 32924, Note_off_c, 0, 86, 100
2, 32928, Note_on_c, 0, 90, 110
2, 32972, Note_off_c, 0, 88, 100
2, 32976, Note_on_c, 0, 88, 110
2, 33020, Note_off_c, 0, 90, 100
2, 33024, Note_on_c, 0, 86, 110
2, 33068, Note_off_c, 0, 88, 100
2, 33072, Note_on_c, 0, 85, 110
2, 33116, Note_off_c, 0, 86, 100
2, 33120, Note_on_c, 0, 83, 110
2, 33164, Note_off_c, 0, 85, 100
2, 33168, Note_on_c, 0, 81, 110
2, 33212, Note_off_c, 0, 83, 100
2, 33216, Note_on_c, 0, 79, 110
2, 33260, Note_off_c, 0, 81, 100
2, 33264, Note_on_c, 0, 78, 110
2, 33308, Note_off_c, 0, 79, 100
2, 33312, Note_on_c, 0, 76, 110
2, 33356, Note_off_c, 0, 78, 100
2, 33360, Note_on_c, 0, 74, 110
2, 33404, Note_off_c, 0, 76, 100
2, 33408, Note_on_c, 0, 78, 110
2, 33408, Note_on_c, 0, 74, 110
2, 33452, Note_off_c, 0, 74, 100
2, 33788, Note_off_c, 0, 78, 100
2, 33788, Note_off_c, 0, 74, 100
2, 33792, Note_on_c, 0, 76, 110
2, 33792, Note_on_c, 0, 73, 110
2, 34172, Note_off_c, 0, 76, 100
2, 34172, Note_off_c, 0, 73, 100
2, 34176, Note_on_c, 0, 74, 110
2, 34224, Note_on_c, 0, 76, 110
2, 34268, Note_off_c, 0, 74, 100
2, 34272, Note_on_c, 0, 78, 110
2, 34316, Note_off_c, 0, 76, 100
2, 34320, Note_on_c, 0, 79, 110
2, 34364, Note_off_c, 0, 78, 100
2, 34368, Note_on_c, 0, 81, 110
2, 34412, Note_off_c, 0, 79, 100
2, 34416, Note_on_c, 0, 79, 110
2, 34460, Note_off_c, 0, 81, 100
2, 34464, Note_on_c, 0, 78, 110
2, 34508, Note_off_c, 0, 79, 100
2, 34512, Note_on_c, 0, 76, 110
2, 34556, Note_off_c, 0, 78, 100
2, 34560, Note_on_c, 0, 74, 110
2, 34604, Note_off_c, 0, 76, 100
2, 34608, Note_on_c, 0, 73, 110
2, 34652, Note_off_c, 0, 74, 100
2, 34656, Note_on_c, 0, 71, 110
2, 34700, Note_off_c, 0, 73, 100
2, 34704, Note_on_c, 0, 69, 110
2, 34748, Note_off_c, 0, 71, 100
2, 34752, Note_on_c, 0, 67, 110
2, 34796, Note_off_c, 0, 69, 100
2, 34800, Note_on_c, 0, 66, 110
2, 34844, Note_off_c, 0, 67, 100
2, 34848, Note_on_c, 0, 64, 110
2, 34892, Note_off_c, 0, 66, 100
2, 34896, Note_on_c, 0, 62, 110
2, 34940, Note_off_c, 0, 64, 100
2, 34944, Note_on_c, 0, 66, 110
2, 34944, Note_on_c, 0, 62, 110
2, 34988, Note_off_c, 0, 62, 100
2, 35324, Note_off_c, 0, 66, 100
2, 35324, Note_off_c, 0, 62, 100
2, 35328, Note_on_c, 0, 64, 110
2, 35328, Note_on_c, 0, 61, 110
2, 35708, Note_off_c, 0, 64, 100
2, 35708, Note_off_c, 0, 61, 100
2, 35712, Note_on_c, 0, 62, 80
2, 35804, Note_off_c, 0, 62, 100
2, 35808, Note_on_c, 0, 57, 80
2, 35900, Note_off_c, 0, 57, 100
2, 35904, Note_on_c, 0, 62, 80
2, 35904, Note_on_c, 0, 66, 80
2, 35996, Note_off_c, 0, 62, 100
2, 35996, Note_off_c, 0, 66, 100
2, 36000, Note_on_c, 0, 57, 80
2, 36092, Note_off_c, 0, 57, 100
2, 36096, Note_on_c, 0, 64, 80
2, 36096, Note_on_c, 0, 67, 80
2, 36188, Note_off_c, 0, 64, 100
2, 36188, Note_off_c, 0, 67, 100
2, 36192, Note_on_c, 0, 57, 80
2, 36284, Note_off_c, 0, 57, 100
2, 36288, Note_on_c, 0, 68, 80
2, 36288, Note_on_c, 0, 65, 80
2, 36380, Note_off_c, 0, 68, 100
2, 36380, Note_off_c, 0, 65, 100
2, 36384, Note_on_c, 0, 57, 80
2, 36476, Note_off_c, 0, 57, 100
2, 36480, Note_on_c, 0, 69, 80
2, 36480, Note_on_c, 0, 66, 80
2, 36576, Note_on_c, 0, 57, 80
2, 36764, Note_off_c, 0, 57, 100
2, 36768, Note_on_c, 0, 57, 80
2, 36956, Note_off_c, 0, 57, 100
2, 36960, Note_on_c, 0, 57, 80
2, 37148, Note_off_c, 0, 57, 100
2, 37152, Note_on_c, 0, 57, 80
2, 37340, Note_off_c, 0, 57, 100
2, 37344, Note_on_c, 0, 57, 80
2, 37436, Note_off_c, 0, 66, 100
2, 37436, Note_off_c, 0, 69, 100
2, 37436, Note_off_c, 0, 57, 100
2, 37440, Note_on_c, 0, 66, 80
2, 37440, Note_on_c, 0, 62, 80
2, 37532, Note_off_c, 0, 62, 100
2, 37536, Note_on_c, 0, 57, 80
2, 37628, Note_off_c, 0, 66, 100
2, 37628, Note_off_c, 0, 57, 100
2, 37632, Note_on_c, 0, 71, 80
2, 37632, Note_on_c, 0, 67, 80
2, 37724, Note_off_c, 0, 67, 100
2, 37728, Note_on_c, 0, 57, 80
2, 37820, Note_off_c, 0, 71, 100
2, 37820, Note_off_c, 0, 57, 100
2, 37824, Note_on_c, 0, 69, 80
2, 37824, Note_on_c, 0, 66, 80
2, 37916, Note_off_c, 0, 66, 100
2, 37920, Note_on_c, 0, 57, 80
2, 38012, Note_off_c, 0, 69, 100
2, 38012, Note_off_c, 0, 57, 100
2, 38016, Note_on_c, 0, 67, 80
2, 38016, Note_on_c, 0, 64, 80
2, 38112, Note_on_c, 0, 57, 80
2, 38300, Note_off_c, 0, 57, 100
2, 38304, Note_on_c, 0, 57, 80
2, 38492, Note_off_c, 0, 57, 100
2, 38496, Note_on_c, 0, 57, 80
2, 38684, Note_off_c, 0, 57, 100
2, 38688, Note_on_c, 0, 57, 80
2, 38876, Note_off_c, 0, 57, 100
2, 38880, Note_on_c, 0, 57, 80
2, 38972, Note_off_c, 0, 64, 100
2, 38972, Note_off_c, 0, 67, 100
2, 38972, Note_off_c, 0, 57, 100
2, 38976, Note_on_c, 0, 67, 80
2, 38976, Note_on_c, 0, 64, 80
2, 39068, Note_off_c, 0, 64, 100
2, 39072, Note_on_c, 0, 57, 80
2, 39164, Note_off_c, 0, 67, 100
2, 39164, Note_off_c, 0, 57, 100
2, 39168, Note_on_c, 0, 69, 80
2, 39168, Note_on_c, 0, 66, 80
2, 39260, Note_off_c, 0, 66, 100
2, 39264, Note_on_c, 0, 57, 80
2, 39356, Note_off_c, 0, 69, 100
2, 39356, Note_off_c, 0, 57, 100
2, 39360, Note_on_c, 0, 67, 80
2, 39360, Note_on_c, 0, 64, 80
2, 39452, Note_off_c, 0, 64, 100
2, 39456, Note_on_c, 0, 57, 80
2, 39548, Note_off_c, 0, 67, 100
2, 39548, Note_off_c, 0, 57, 100
2, 39552, Note_on_c, 0, 66, 80
2, 39552, Note_on_c, 0, 62, 80
2, 39648, Note_on_c, 0, 57, 80
2, 39740, Note_off_c, 0, 57, 100
2, 39840, Note_on_c, 0, 58, 80
2, 39932, Note_off_c, 0, 58, 100
2, 40032, Note_on_c, 0, 59, 80
2, 40124, Note_off_c, 0, 59, 100
2, 40224, Note_on_c, 0, 54, 80
2, 40316, Note_off_c, 0, 54, 100
2, 40416, Note_on_c, 0, 55, 80
2, 40508, Note_off_c, 0, 62, 100
2, 40508, Note_off_c, 0, 66, 100
2, 40508, Note_off_c, 0, 55, 100
2, 40512, Note_on_c, 0, 64, 80
2, 40512, Note_on_c, 0, 62, 80
2, 40604, Note_off_c, 0, 62, 100
2, 40608, Note_on_c, 0, 56, 80
2, 40700, Note_off_c, 0, 64, 100
2, 40700, Note_off_c, 0, 56, 100
2, 40704, Note_on_c, 0, 64, 80
2, 40704, Note_on_c, 0, 62, 80
2, 40796, Note_off_c, 0, 62, 100
2, 40800, Note_on_c, 0, 57, 80
2, 40892, Note_off_c, 0, 64, 100
2, 40892, Note_off_c, 0, 57, 100
2, 40896, Note_on_c, 0, 67, 80
2, 40896, Note_on_c, 0, 61, 80
2, 40988, Note_off_c, 0, 61, 100
2, 40992, Note_on_c, 0, 57, 80
2, 41084, Note_off_c, 0, 67, 100
2, 41084, Note_off_c, 0, 57, 100
2, 41088, Note_on_c, 0, 66, 80
2, 41088, Note_on_c, 0, 62, 80
2, 41184, Note_on_c, 0, 57, 80
2, 41276, Note_off_c, 0, 57, 100
2, 41376, Note_on_c, 0, 58, 80
2, 41468, Note_off_c, 0, 58, 100
2, 41568, Note_on_c, 0, 59, 80
2, 41660, Note_off_c, 0, 59, 100
2, 41760, Note_on_c, 0, 54, 80
2, 41852, Note_off_c, 0, 54, 100
2, 41952, Note_on_c, 0, 55, 80
2, 42044, Note_off_c, 0, 62, 100
2, 42044, Note_off_c, 0, 66, 100
2, 42044, Note_off_c, 0, 55, 100
2, 42048, Note_on_c, 0, 64, 80
2, 42048, Note_on_c, 0, 62, 80
2, 42140, Note_off_c, 0, 62, 100
2, 42144, Note_on_c, 0, 56, 80
2, 42236, Note_off_c, 0, 64, 100
2, 42236, Note_off_c, 0, 56, 100
2, 42240, Note_on_c, 0, 64, 80
2, 42240, Note_on_c, 0, 62, 80
2, 42332, Note_off_c, 0, 62, 100
2, 42336, Note_on_c, 0, 57, 80
2, 42428, Note_off_c, 0, 64, 100
2, 42428, Note_off_c, 0, 57, 100
2, 42432, Note_on_c, 0, 67, 80
2, 42432, Note_on_c, 0, 61, 80
2, 42524, Note_off_c, 0, 61, 100
2, 42528, Note_on_c, 0, 57, 80
2, 42620, Note_off_c, 0, 67, 100
2, 42620, Note_off_c, 0, 57, 100
2, 42624, Note_on_c, 0, 66, 80
2, 42624, Note_on_c, 0, 62, 80
2, 42720, Note_on_c, 0, 57, 80
2, 42812, Note_off_c, 0, 57, 100
2, 42912, Note_on_c, 0, 58, 80
2, 43004, Note_off_c, 0, 58, 100
2, 43104, Note_on_c, 0, 59, 80
2, 43196, Note_off_c, 0, 59, 100
2, 43296, Note_on_c, 0, 60, 80
2, 43388, Note_off_c, 0, 60, 100
2, 43488, Note_on_c, 0, 59, 80
2, 43580, Note_off_c, 0, 62, 100
2, 43580, Note_off_c, 0, 66, 100
2, 43580, Note_off_c, 0, 59, 100
2, 43584, Note_on_c, 0, 67, 80
2, 43584, Note_on_c, 0, 64, 80
2, 43676, Note_off_c, 0, 64, 100
2, 43680, Note_on_c, 0, 59, 80
2, 43772, Note_off_c, 0, 67, 100
2, 43772, Note_off_c, 0, 59, 100
2, 43776, Note_on_c, 0, 66, 80
2, 43776, Note_on_c, 0, 62, 80
2, 43868, Note_off_c, 0, 62, 100
2, 43872, Note_on_c, 0, 57, 80
2, 43964, Note_off_c, 0, 66, 100
2, 43964, Note_off_c, 0, 57, 100
2, 43968, Note_on_c, 0, 64, 80
2, 43968, Note_on_c, 0, 61, 80
2, 44060, Note_off_c, 0, 61, 100
2, 44064, Note_on_c, 0, 55, 80
2, 44156, Note_off_c, 0, 64, 100
2, 44156, Note_off_c, 0, 55, 100
2, 44160, Note_on_c, 0, 62, 80
2, 44160, Note_on_c, 0, 54, 80
2, 44252, Note_off_c, 0, 54, 100
2, 44256, Note_on_c, 0, 57, 80
2, 44348, Note_off_c, 0, 57, 100
2, 44352, Note_on_c, 0, 54, 80
2, 44444, Note_off_c, 0, 54, 100
2, 44448, Note_on_c, 0, 57, 80
2, 44540, Note_off_c, 0, 57, 100
2, 44544, Note_on_c, 0, 54, 80
2, 44636, Note_off_c, 0, 54, 100
2, 44640, Note_on_c, 0, 57, 80
2, 44732, Note_off_c, 0, 62, 100
2, 44732, Note_off_c, 0, 57, 100
2, 44736, Note_on_c, 0, 64, 80
2, 44736, Note_on_c, 0, 55, 80
2, 44828, Note_off_c, 0, 55, 100
2, 44832, Note_on_c, 0, 61, 80
2, 44924, Note_off_c, 0, 64, 100
2, 44924, Note_off_c, 0, 61, 100
2, 44928, Note_on_c, 0, 66, 80
2, 44928, Note_on_c, 0, 57, 80
2, 45020, Note_off_c, 0, 57, 100
2, 45024, Note_on_c, 0, 62, 80
2, 45116, Note_off_c, 0, 62, 100
2, 45120, Note_on_c, 0, 57, 80
2, 45212, Note_off_c, 0, 57, 100
2, 45216, Note_on_c, 0, 62, 80
2, 45308, Note_off_c, 0, 62, 100
2, 45312, Note_on_c, 0, 57, 80
2, 45404, Note_off_c, 0, 57, 100
2, 45408, Note_on_c, 0, 62, 80
2, 45500, Note_off_c, 0, 66, 100
2, 45500, Note_off_c, 0, 62, 100
2, 45504, Note_on_c, 0, 64, 80
2, 45504, Note_on_c, 0, 55, 80
2, 45596, Note_off_c, 0, 55, 100
2, 45600, Note_on_c, 0, 61, 80
2, 45692, Note_off_c, 0, 64, 100
2, 45692, Note_off_c, 0, 61, 100
2, 45696, Note_on_c, 0, 62, 80
2, 46268, Note_off_c, 0, 62, 100
2, 46272, Note_on_c, 0, 73, 91
2, 46272, Note_on_c, 0, 64, 94
2, 46460, Note_off_c, 0, 73, 100
2, 46460, Note_off_c, 0, 64, 100
2, 46464, Note_on_c, 0, 74, 80
2, 46464, Note_on_c, 0, 62, 80
2, 46652, Note_off_c, 0, 74, 100
2, 46652, Note_off_c, 0, 62, 100
2, 46656, Note_on_c, 0, 73, 94
2, 46656, Note_on_c, 0, 64, 95
2, 46844, Note_off_c, 0, 73, 100
2, 46844, Note_off_c, 0, 64, 100
2, 46848, Note_on_c, 0, 74, 80
2, 46848, Note_on_c, 0, 62, 80
2, 47036, Note_off_c, 0, 74, 100
2, 47036, Note_off_c, 0, 62, 100
2, 47040, Note_on_c, 0, 73, 80
2, 47040, Note_on_c, 0, 64, 80
2, 47088, Note_on_c, 0, 74, 80
2, 47132, Note_off_c, 0, 73, 100
2, 47136, Note_on_c, 0, 71, 80
2, 47180, Note_off_c, 0, 74, 100
2, 47184, Note_on_c, 0, 73, 80
2, 47228, Note_off_c, 0, 64, 100
2, 47228, Note_off_c, 0, 71, 100
2, 47232, Note_on_c, 0, 76, 80
2, 47232, Note_on_c, 0, 67, 80
2, 47276, Note_off_c, 0, 73, 100
2, 47996, Note_off_c, 0, 76, 100
2, 47996, Note_off_c, 0, 67, 100
2, 48000, Note_on_c, 0, 74, 80
2, 48000, Note_on_c, 0, 66, 80
2, 48188, Note_off_c, 0, 74, 100
2, 48188, Note_off_c, 0, 66, 100
2, 48480, Note_on_c, 0, 62, 80
2, 48572, Note_off_c, 0, 62, 100
2, 48576, Note_on_c, 0, 74, 80
2, 48668, Note_off_c, 0, 74, 100
2, 48672, Note_on_c, 0, 70, 80
2, 48764, Note_off_c, 0, 70, 100
2, 48768, Note_on_c, 0, 71, 80
2, 48860, Note_off_c, 0, 71, 100
2, 48864, Note_on_c, 0, 66, 80
2, 48956, Note_off_c, 0, 66, 100
2, 48960, Note_on_c, 0, 67, 80
2, 49244, Note_off_c, 0, 67, 100
2, 49248, Note_on_c, 0, 62, 80
2, 49340, Note_off_c, 0, 62, 100
2, 49344, Note_on_c, 0, 74, 80
2, 49436, Note_off_c, 0, 74, 100
2, 49440, Note_on_c, 0, 70, 80
2, 49532, Note_off_c, 0, 70, 100
2, 49536, Note_on_c, 0, 71, 80
2, 49628, Note_off_c, 0, 71, 100
2, 49632, Note_on_c, 0, 66, 80
2, 49724, Note_off_c, 0, 66, 100
2, 49728, Note_on_c, 0, 67, 80
2, 50012, Note_off_c, 0, 67, 100
2, 50016, Note_on_c, 0, 64, 80
2, 50108, Note_off_c, 0, 64, 100
2, 50112, Note_on_c, 0, 76, 80
2, 50204, Note_off_c, 0, 76, 100
2, 50208, Note_on_c, 0, 71, 80
2, 50300, Note_off_c, 0, 71, 100
2, 50304, Note_on_c, 0, 72, 80
2, 50396, Note_off_c, 0, 72, 100
2, 50400, Note_on_c, 0, 68, 80
2, 50492, Note_off_c, 0, 68, 100
2, 50496, Note_on_c, 0, 69, 80
2, 50780, Note_off_c, 0, 69, 100
2, 50784, Note_on_c, 0, 64, 80
2, 50876, Note_off_c, 0, 64, 100
2, 50880, Note_on_c, 0, 76, 80
2, 50972, Note_off_c, 0, 76, 100
2, 50976, Note_on_c, 0, 71, 80
2, 51068, Note_off_c, 0, 71, 100
2, 51072, Note_on_c, 0, 72, 80
2, 51164, Note_off_c, 0, 72, 100
2, 51168, Note_on_c, 0, 68, 80
2, 51260, Note_off_c, 0, 68, 100
2, 51264, Note_on_c, 0, 69, 80
2, 51548, Note_off_c, 0, 69, 100
2, 51552, Note_on_c, 0, 69, 80
2, 51644, Note_off_c, 0, 69, 100
2, 51648, Note_on_c, 0, 84, 80
2, 51740, Note_off_c, 0, 84, 100
2, 51744, Note_on_c, 0, 83, 80
2, 51836, Note_off_c, 0, 83, 100
2, 51840, Note_on_c, 0, 81, 80
2, 52124, Note_off_c, 0, 81, 100
2, 52128, Note_on_c, 0, 79, 80
2, 52220, Note_off_c, 0, 79, 100
2, 52224, Note_on_c, 0, 78, 80
2, 52316, Note_off_c, 0, 78, 100
2, 52320, Note_on_c, 0, 76, 80
2, 52412, Note_off_c, 0, 76, 100
2, 52416, Note_on_c, 0, 74, 80
2, 52508, Note_off_c, 0, 74, 100
2, 52512, Note_on_c, 0, 72, 80
2, 52604, Note_off_c, 0, 72, 100
2, 52608, Note_on_c, 0, 74, 80
2, 52628, Note_off_c, 0, 74, 100
2, 52632, Note_on_c, 0, 72, 80
2, 52700, Note_off_c, 0, 72, 100
2, 52704, Note_on_c, 0, 71, 80
2, 52892, Note_off_c, 0, 71, 100
2, 52896, Note_on_c, 0, 79, 80
2, 52988, Note_off_c, 0, 79, 100
2, 52992, Note_on_c, 0, 79, 80
2, 53084, Note_off_c, 0, 79, 100
2, 53088, Note_on_c, 0, 69, 80
2, 53276, Note_off_c, 0, 69, 100
2, 53280, Note_on_c, 0, 76, 80
2, 53372, Note_off_c, 0, 76, 100
2, 53376, Note_on_c, 0, 76, 80
2, 53468, Note_off_c, 0, 76, 100
2, 53472, Note_on_c, 0, 67, 80
2, 53660, Note_off_c, 0, 67, 100
2, 53664, Note_on_c, 0, 74, 80
2, 53756, Note_off_c, 0, 74, 100
2, 53760, Note_on_c, 0, 74, 80
2, 53852, Note_off_c, 0, 74, 100
2, 53856, Note_on_c, 0, 60, 80
2, 54044, Note_off_c, 0, 60, 100
2, 54048, Note_on_c, 0, 66, 80
2, 54140, Note_off_c, 0, 66, 100
2, 54144, Note_on_c, 0, 67, 80
2, 54144, Note_on_c, 0, 59, 80
2, 54524, Note_off_c, 0, 67, 100
2, 54524, Note_off_c, 0, 59, 100
2, 54720, Note_on_c, 0, 74, 80
2, 54908, Note_off_c, 0, 74, 100
2, 54912, Note_on_c, 0, 74, 84
2, 55100, Note_off_c, 0, 74, 100
2, 55104, Note_on_c, 0, 74, 88
2, 55292, Note_off_c, 0, 74, 100
2, 55296, Note_on_c, 0, 74, 93
2, 55484, Note_off_c, 0, 74, 100
2, 55488, Note_on_c, 0, 74, 97
2, 55536, Note_on_c, 0, 76, 98
2, 55580, Note_off_c, 0, 74, 100
2, 55584, Note_on_c, 0, 73, 99
2, 55628, Note_off_c, 0, 76, 100
2, 55632, Note_on_c, 0, 74, 100
2, 55676, Note_off_c, 0, 73, 100
2, 55680, Note_on_c, 0, 76, 100
2, 55724, Note_off_c, 0, 74, 100
2, 56060, Note_off_c, 0, 76, 100
2, 56064, Note_on_c, 0, 74, 80
2, 56252, Note_off_c, 0, 74, 100
2, 56736, Note_on_c, 0, 74, 80
2, 56828, Note_off_c, 0, 74, 100
2, 56832, Note_on_c, 0, 74, 84
2, 56924, Note_off_c, 0, 74, 100
2, 56928, Note_on_c, 0, 74, 89
2, 57020, Note_off_c, 0, 74, 100
2, 57024, Note_on_c, 0, 74, 94
2, 57116, Note_off_c, 0, 74, 100
2, 57120, Note_on_c, 0, 74, 99
2, 57212, Note_off_c, 0, 74, 100
2, 57216, Note_on_c, 0, 76, 100
2, 57596, Note_off_c, 0, 76, 100
2, 57600, Note_on_c, 0, 74, 80
2, 57788, Note_off_c, 0, 74, 100
2, 58176, Note_on_c, 0, 74, 80
2, 58460, Note_off_c, 0, 74, 100
2, 58464, Note_on_c, 0, 76, 80
2, 58508, Note_off_c, 0, 76, 100
2, 58512, Note_on_c, 0, 74, 80
2, 58556, Note_off_c, 0, 74, 100
2, 58560, Note_on_c, 0, 72, 80
2, 58652, Note_off_c, 0, 72, 100
2, 58656, Note_on_c, 0, 71, 80
2, 58748, Note_off_c, 0, 71, 100
2, 58752, Note_on_c, 0, 71, 80
2, 58940, Note_off_c, 0, 71, 100
2, 58944, Note_on_c, 0, 69, 81
2, 59324, Note_off_c, 0, 69, 100
2, 59328, Note_on_c, 0, 67, 83
2, 59516, Note_off_c, 0, 67, 100
2, 59520, Note_on_c, 0, 66, 84
2, 59552, Note_on_c, 0, 67, 84
2, 59580, Note_off_c, 0, 66, 100
2, 59584, Note_on_c, 0, 69, 84
2, 59612, Note_off_c, 0, 67, 100
2, 59616, Note_on_c, 0, 67, 84
2, 59644, Note_off_c, 0, 69, 100
2, 59708, Note_off_c, 0, 67, 100
2, 59712, Note_on_c, 0, 66, 85
2, 60092, Note_off_c, 0, 66, 100
2, 60096, Note_on_c, 0, 74, 87
2, 60284, Note_off_c, 0, 74, 100
2, 60288, Note_on_c, 0, 74, 88
2, 60476, Note_off_c, 0, 74, 100
2, 60480, Note_on_c, 0, 73, 89
2, 60860, Note_off_c, 0, 73, 100
2, 60864, Note_on_c, 0, 71, 91
2, 61052, Note_off_c, 0, 71, 100
2, 61056, Note_on_c, 0, 69, 92
2, 61088, Note_on_c, 0, 71, 92
2, 61116, Note_off_c, 0, 69, 100
2, 61120, Note_on_c, 0, 73, 92
2, 61148, Note_off_c, 0, 71, 100
2, 61152, Note_on_c, 0, 71, 92
2, 61180, Note_off_c, 0, 73, 100
2, 61244, Note_off_c, 0, 71, 100
2, 61248, Note_on_c, 0, 69, 93
2, 61628, Note_off_c, 0, 69, 100
2, 61632, Note_on_c, 0, 78, 95
2, 61820, Note_off_c, 0, 78, 100
2, 61824, Note_on_c, 0, 78, 96
2, 62012, Note_off_c, 0, 78, 100
2, 62016, Note_on_c, 0, 76, 97
2, 62396, Note_off_c, 0, 76, 100
2, 62400, Note_on_c, 0, 74, 99
2, 62588, Note_off_c, 0, 74, 100
2, 62592, Note_on_c, 0, 74, 80
2, 62780, Note_off_c, 0, 74, 100
2, 62784, Note_on_c, 0, 73, 80
2, 63164, Note_off_c, 0, 73, 100
2, 63168, Note_on_c, 0, 71, 80
2, 63356, Note_off_c, 0, 71, 100
2, 63360, Note_on_c, 0, 71, 80
2, 63548, Note_off_c, 0, 71, 100
2, 63552, Note_on_c, 0, 69, 80
2, 63740, Note_off_c, 0, 69, 100
2, 63808, Note_on_c, 0, 74, 80
2, 63868, Note_off_c, 0, 74, 100
2, 63872, Note_on_c, 0, 76, 80
2, 63932, Note_off_c, 0, 76, 100
2, 63936, Note_on_c, 0, 78, 80
2, 63996, Note_off_c, 0, 78, 100
2, 64000, Note_on_c, 0, 76, 80
2, 64060, Note_off_c, 0, 76, 100
2, 64064, Note_on_c, 0, 74, 80
2, 64124, Note_off_c, 0, 74, 100
2, 64128, Note_on_c, 0, 74, 80
2, 64316, Note_off_c, 0, 74, 100
2, 64320, Note_on_c, 0, 73, 80
2, 64508, Note_off_c, 0, 73, 100
2, 64576, Note_on_c, 0, 71, 80
2, 64636, Note_off_c, 0, 71, 100
2, 64640, Note_on_c, 0, 73, 80
2, 64700, Note_off_c, 0, 73, 100
2, 64704, Note_on_c, 0, 74, 80
2, 64764, Note_off_c, 0, 74, 100
2, 64768, Note_on_c, 0, 73, 80
2, 64828, Note_off_c, 0, 73, 100
2, 64832, Note_on_c, 0, 71, 80
2, 64892, Note_off_c, 0, 71, 100
2, 64896, Note_on_c, 0, 71, 80
2, 65084, Note_off_c, 0, 71, 100
2, 65088, Note_on_c, 0, 69, 80
2, 65276, Note_off_c, 0, 69, 100
2, 65344, Note_on_c, 0, 74, 80
2, 65404, Note_off_c, 0, 74, 100
2, 65408, Note_on_c, 0, 76, 80
2, 65468, Note_off_c, 0, 76, 100
2, 65472, Note_on_c, 0, 78, 80
2, 65532, Note_off_c, 0, 78, 100
2, 65536, Note_on_c, 0, 76, 80
2, 65596, Note_off_c, 0, 76, 100
2, 65600, Note_on_c, 0, 74, 80
2, 65660, Note_off_c, 0, 74, 100
2, 65664, Note_on_c, 0, 74, 80
2, 65724, Note_off_c, 0, 74, 100
2, 65728, Note_on_c, 0, 73, 80
2, 65788, Note_off_c, 0, 73, 100
2, 65792, Note_on_c, 0, 74, 80
2, 65852, Note_off_c, 0, 74, 100
2, 65856, Note_on_c, 0, 76, 80
2, 65916, Note_off_c, 0, 76, 100
2, 65920, Note_on_c, 0, 74, 80
2, 65980, Note_off_c, 0, 74, 100
2, 65984, Note_on_c, 0, 73, 80
2, 66044, Note_off_c, 0, 73, 100
2, 66048, Note_on_c, 0, 73, 80
2, 66108, Note_off_c, 0, 73, 100
2, 66112, Note_on_c, 0, 71, 80
2, 66172, Note_off_c, 0, 71, 100
2, 66176, Note_on_c, 0, 73, 80
2, 66236, Note_off_c, 0, 73, 100
2, 66240, Note_on_c, 0, 74, 80
2, 66300, Note_off_c, 0, 74, 100
2, 66304, Note_on_c, 0, 73, 80
2, 66364, Note_off_c, 0, 73, 100
2, 66368, Note_on_c, 0, 71, 80
2, 66428, Note_off_c, 0, 71, 100
2, 66432, Note_on_c, 0, 71, 80
2, 66492, Note_off_c, 0, 71, 100
2, 66496, Note_on_c, 0, 69, 80
2, 66556, Note_off_c, 0, 69, 100
2, 66560, Note_on_c, 0, 68, 80
2, 66620, Note_off_c, 0, 68, 100
2, 66624, Note_on_c, 0, 69, 80
2, 66684, Note_off_c, 0, 69, 100
2, 66688, Note_on_c, 0, 71, 80
2, 66748, Note_off_c, 0, 71, 100
2, 66752, Note_on_c, 0, 73, 80
2, 66812, Note_off_c, 0, 73, 100
2, 66816, Note_on_c, 0, 74, 80
2, 66876, Note_off_c, 0, 74, 100
2, 66880, Note_on_c, 0, 75, 80
2, 66940, Note_off_c, 0, 75, 100
2, 66944, Note_on_c, 0, 76, 80
2, 67004, Note_off_c, 0, 76, 100
2, 67008, Note_on_c, 0, 77, 80
2, 67052, Note_off_c, 0, 77, 100
2, 67056, Note_on_c, 0, 78, 80
2, 67100, Note_off_c, 0, 78, 100
2, 67104, Note_on_c, 0, 79, 80
2, 67148, Note_off_c, 0, 79, 100
2, 67152, Note_on_c, 0, 80, 80
2, 67196, Note_off_c, 0, 80, 100
2, 67200, Note_on_c, 0, 81, 80
2, 67388, Note_off_c, 0, 81, 100
2, 67392, Note_on_c, 0, 81, 80
2, 67580, Note_off_c, 0, 81, 100
2, 67584, Note_on_c, 0, 81, 80
2, 67772, Note_off_c, 0, 81, 100
2, 67776, Note_on_c, 0, 81, 80
2, 67964, Note_off_c, 0, 81, 100
2, 67968, Note_on_c, 0, 81, 80
2, 67968, Note_on_c, 0, 78, 80
2, 68252, Note_off_c, 0, 81, 100
2, 68252, Note_off_c, 0, 78, 100
2, 68256, Note_on_c, 0, 80, 80
2, 68256, Note_on_c, 0, 77, 80
2, 68348, Note_off_c, 0, 80, 100
2, 68348, Note_off_c, 0, 77, 100
2, 68352, Note_on_c, 0, 81, 80
2, 68352, Note_on_c, 0, 78, 80
2, 68636, Note_off_c, 0, 81, 100
2, 68636, Note_off_c, 0, 78, 100
2, 68640, Note_on_c, 0, 80, 80
2, 68640, Note_on_c, 0, 77, 80
2, 68732, Note_off_c, 0, 80, 100
2, 68732, Note_off_c, 0, 77, 100
2, 68736, Note_on_c, 0, 81, 80
2, 68736, Note_on_c, 0, 78, 80
2, 69020, Note_off_c, 0, 81, 100
2, 69020, Note_off_c, 0, 78, 100
2, 69024, Note_on_c, 0, 79, 80
2, 69024, Note_on_c, 0, 76, 80
2, 69116, Note_off_c, 0, 79, 100
2, 69116, Note_off_c, 0, 76, 100
2, 69120, Note_on_c, 0, 79, 80
2, 69120, Note_on_c, 0, 76, 80
2, 69212, Note_off_c, 0, 79, 100
2, 69212, Note_off_c, 0, 76, 100
2, 69216, Note_on_c, 0, 78, 80
2, 69216, Note_on_c, 0, 74, 80
2, 69308, Note_off_c, 0, 78, 100
2, 69308, Note_off_c, 0, 74, 100
2, 69312, Note_on_c, 0, 74, 80
2, 69312, Note_on_c, 0, 78, 80
2, 69404, Note_off_c, 0, 74, 100
2, 69404, Note_off_c, 0, 78, 100
2, 69408, Note_on_c, 0, 76, 80
2, 69408, Note_on_c, 0, 73, 80
2, 69500, Note_off_c, 0, 76, 100
2, 69500, Note_off_c, 0, 73, 100
2, 69504, Note_on_c, 0, 76, 80
2, 69504, Note_on_c, 0, 73, 80
2, 69596, Note_off_c, 0, 76, 100
2, 69596, Note_off_c, 0, 73, 100
2, 69600, Note_on_c, 0, 74, 80
2, 69600, Note_on_c, 0, 71, 80
2, 69692, Note_off_c, 0, 74, 100
2, 69692, Note_off_c, 0, 71, 100
2, 69696, Note_on_c, 0, 74, 80
2, 69696, Note_on_c, 0, 71, 80
2, 69788, Note_off_c, 0, 74, 100
2, 69788, Note_off_c, 0, 71, 100
2, 69792, Note_on_c, 0, 73, 80
2, 69792, Note_on_c, 0, 69, 80
2, 69884, Note_off_c, 0, 73, 100
2, 69884, Note_off_c, 0, 69, 100
2, 69888, Note_on_c, 0, 73, 80
2, 69888, Note_on_c, 0, 69, 80
2, 69980, Note_off_c, 0, 73, 100
2, 69980, Note_off_c, 0, 69, 100
2, 69984, Note_on_c, 0, 71, 80
2, 69984, Note_on_c, 0, 67, 80
2, 70076, Note_off_c, 0, 71, 100
2, 70076, Note_off_c, 0, 67, 100
2, 70080, Note_on_c, 0, 71, 80
2, 70080, Note_on_c, 0, 67, 80
2, 70172, Note_off_c, 0, 71, 100
2, 70172, Note_off_c, 0, 67, 100
2, 70176, Note_on_c, 0, 69, 80
2, 70176, Note_on_c, 0, 66, 80
2, 70268, Note_off_c, 0, 69, 100
2, 70268, Note_off_c, 0, 66, 100
2, 70272, Note_on_c, 0, 66, 80
2, 70272, Note_on_c, 0, 63, 80
2, 70652, Note_off_c, 0, 66, 100
2, 70652, Note_off_c, 0, 63, 100
2, 70656, Note_on_c, 0, 67, 80
2, 70656, Note_on_c, 0, 64, 80
2, 70844, Note_off_c, 0, 67, 100
2, 70844, Note_off_c, 0, 64, 100
2, 71040, Note_on_c, 0, 79, 80
2, 71040, Note_on_c, 0, 76, 80
2, 71324, Note_off_c, 0, 79, 100
2, 71324, Note_off_c, 0, 76, 100
2, 71328, Note_on_c, 0, 78, 80
2, 71328, Note_on_c, 0, 75, 80
2, 71420, Note_off_c, 0, 78, 100
2, 71420, Note_off_c, 0, 75, 100
2, 71424, Note_on_c, 0, 79, 80
2, 71424, Note_on_c, 0, 76, 80
2, 71708, Note_off_c, 0, 79, 100
2, 71708, Note_off_c, 0, 76, 100
2, 71712, Note_on_c, 0, 78, 80
2, 71712, Note_on_c, 0, 75, 80
2, 71804, Note_off_c, 0, 78, 100
2, 71804, Note_off_c, 0, 75, 100
2, 71808, Note_on_c, 0, 79, 80
2, 71808, Note_on_c, 0, 76, 80
2, 72092, Note_off_c, 0, 79, 100
2, 72092, Note_off_c, 0, 76, 100
2, 72096, Note_on_c, 0, 78, 80
2, 72096, Note_on_c, 0, 74, 80
2, 72188, Note_off_c, 0, 78, 100
2, 72188, Note_off_c, 0, 74, 100
2, 72192, Note_on_c, 0, 78, 80
2, 72192, Note_on_c, 0, 74, 80
2, 72284, Note_off_c, 0, 78, 100
2, 72284, Note_off_c, 0, 74, 100
2, 72288, Note_on_c, 0, 76, 80
2, 72288, Note_on_c, 0, 73, 80
2, 72380, Note_off_c, 0, 76, 100
2, 72380, Note_off_c, 0, 73, 100
2, 72384, Note_on_c, 0, 76, 80
2, 72384, Note_on_c, 0, 73, 80
2, 72476, Note_off_c, 0, 76, 100
2, 72476, Note_off_c, 0, 73, 100
2, 72480, Note_on_c, 0, 74, 80
2, 72480, Note_on_c, 0, 71, 80
2, 72572, Note_off_c, 0, 74, 100
2, 72572, Note_off_c, 0, 71, 100
2, 72576, Note_on_c, 0, 74, 80
2, 72576, Note_on_c, 0, 71, 80
2, 72668, Note_off_c, 0, 74, 100
2, 72668, Note_off_c, 0, 71, 100
2, 72672, Note_on_c, 0, 73, 80
2, 72672, Note_on_c, 0, 69, 80
2, 72764, Note_off_c, 0, 73, 100
2, 72764, Note_off_c, 0, 69, 100
2, 72768, Note_on_c, 0, 73, 80
2, 72768, Note_on_c, 0, 69, 80
2, 72860, Note_off_c, 0, 73, 100
2, 72860, Note_off_c, 0, 69, 100
2, 72864, Note_on_c, 0, 71, 80
2, 72864, Note_on_c, 0, 67, 80
2, 72956, Note_off_c, 0, 71, 100
2, 72956, Note_off_c, 0, 67, 100
2, 72960, Note_on_c, 0, 71, 80
2, 72960, Note_on_c, 0, 67, 80
2, 73052, Note_off_c, 0, 71, 100
2, 73052, Note_off_c, 0, 67, 100
2, 73056, Note_on_c, 0, 69, 80
2, 73056, Note_on_c, 0, 66, 80
2, 73148, Note_off_c, 0, 69, 100
2, 73148, Note_off_c, 0, 66, 100
2, 73152, Note_on_c, 0, 69, 80
2, 73152, Note_on_c, 0, 66, 80
2, 73244, Note_off_c, 0, 69, 100
2, 73244, Note_off_c, 0, 66, 100
2, 73248, Note_on_c, 0, 67, 80
2, 73248, Note_on_c, 0, 64, 80
2, 73340, Note_off_c, 0, 67, 100
2, 73340, Note_off_c, 0, 64, 100
2, 73344, Note_on_c, 0, 66, 80
2, 73344, Note_on_c, 0, 62, 80
2, 73532, Note_off_c, 0, 66, 100
2, 73532, Note_off_c, 0, 62, 100
2, 73536, Note_on_c, 0, 71, 80
2, 73536, Note_on_c, 0, 66, 80
2, 73724, Note_off_c, 0, 71, 100
2, 73724, Note_off_c, 0, 66, 100
2, 73728, Note_on_c, 0, 69, 80
2, 73728, Note_on_c, 0, 64, 80
2, 73916, Note_off_c, 0, 69, 100
2, 73916, Note_off_c, 0, 64, 100
2, 73920, Note_on_c, 0, 67, 80
2, 73920, Note_on_c, 0, 61, 80
2, 74108, Note_off_c, 0, 67, 100
2, 74108, Note_off_c, 0, 61, 100
2, 74112, Note_on_c, 0, 66, 80
2, 74112, Note_on_c, 0, 62, 80
2, 74300, Note_off_c, 0, 66, 100
2, 74300, Note_off_c, 0, 62, 100
2, 74304, Note_on_c, 0, 71, 80
2, 74304, Note_on_c, 0, 66, 80
2, 74492, Note_off_c, 0, 71, 100
2, 74492, Note_off_c, 0, 66, 100
2, 74496, Note_on_c, 0, 69, 80
2, 74496, Note_on_c, 0, 64, 80
2, 74684, Note_off_c, 0, 69, 100
2, 74684, Note_off_c, 0, 64, 100
2, 74688, Note_on_c, 0, 67, 80
2, 74688, Note_on_c, 0, 61, 80
2, 74876, Note_off_c, 0, 67, 100
2, 74876, Note_off_c, 0, 61, 100
2, 74880, Note_on_c, 0, 66, 80
2, 74976, Note_on_c, 0, 62, 80
2, 75068, Note_off_c, 0, 66, 100
2, 75068, Note_off_c, 0, 62, 100
2, 75072, Note_on_c, 0, 71, 80
2, 75072, Note_on_c, 0, 66, 80
2, 75164, Note_off_c, 0, 66, 100
2, 75168, Note_on_c, 0, 62, 80
2, 75260, Note_off_c, 0, 71, 100
2, 75260, Note_off_c, 0, 62, 100
2, 75264, Note_on_c, 0, 69, 80
2, 75264, Note_on_c, 0, 61, 80
2, 75356, Note_off_c, 0, 61, 100
2, 75360, Note_on_c, 0, 64, 80
2, 75452, Note_off_c, 0, 69, 100
2, 75452, Note_off_c, 0, 64, 100
2, 75456, Note_on_c, 0, 68, 80
2, 75456, Note_on_c, 0, 59, 80
2, 75548, Note_off_c, 0, 59, 100
2, 75552, Note_on_c, 0, 62, 80
2, 75644, Note_off_c, 0, 68, 100
2, 75644, Note_off_c, 0, 62, 100
2, 75648, Note_on_c, 0, 69, 80
2, 75836, Note_off_c, 0, 69, 100
2, 76416, Note_on_c, 0, 78, 80
2, 76604, Note_off_c, 0, 78, 100
2, 76608, Note_on_c, 0, 83, 80
2, 76796, Note_off_c, 0, 83, 100
2, 76800, Note_on_c, 0, 81, 80
2, 76988, Note_off_c, 0, 81, 100
2, 76992, Note_on_c, 0, 79, 80
2, 76992, Note_on_c, 0, 73, 80
2, 77180, Note_off_c, 0, 79, 100
2, 77180, Note_off_c, 0, 73, 100
2, 77184, Note_on_c, 0, 78, 80
2, 77372, Note_off_c, 0, 78, 100
2, 77376, Note_on_c, 0, 83, 80
2, 77564, Note_off_c, 0, 83, 100
2, 77568, Note_on_c, 0, 81, 80
2, 77756, Note_off_c, 0, 81, 100
2, 77760, Note_on_c, 0, 79, 80
2, 77760, Note_on_c, 0, 73, 80
2, 77948, Note_off_c, 0, 79, 100
2, 77948, Note_off_c, 0, 73, 100
2, 77952, Note_on_c, 0, 78, 80
2, 77952, Note_on_c, 0, 74, 80
2, 78140, Note_off_c, 0, 78, 100
2, 78140, Note_off_c, 0, 74, 100
2, 78144, Note_on_c, 0, 86, 82
2, 78524, Note_off_c, 0, 86, 100
2, 78528, Note_on_c, 0, 86, 87
2, 78908, Note_off_c, 0, 86, 100
2, 78912, Note_on_c, 0, 86, 93
2, 79100, Note_off_c, 0, 86, 100
2, 79104, Note_on_c, 0, 86, 95
2, 79292, Note_off_c, 0, 86, 100
2, 79296, Note_on_c, 0, 86, 98
2, 79484, Note_off_c, 0, 86, 100
2, 79488, Note_on_c, 0, 83, 80
2, 79536, Note_on_c, 0, 85, 80
2, 79580, Note_off_c, 0, 83, 100
2, 79584, Note_on_c, 0, 83, 80
2, 79628, Note_off_c, 0, 85, 100
2, 79632, Note_on_c, 0, 82, 80
2, 79676, Note_off_c, 0, 83, 100
2, 79680, Note_on_c, 0, 83, 80
2, 79724, Note_off_c, 0, 82, 100
2, 79728, Note_on_c, 0, 85, 80
2, 79772, Note_off_c, 0, 83, 100
2, 79776, Note_on_c, 0, 86, 80
2, 79820, Note_off_c, 0, 85, 100
2, 79824, Note_on_c, 0, 85, 80
2, 79868, Note_off_c, 0, 86, 100
2, 79872, Note_on_c, 0, 83, 80
2, 79916, Note_off_c, 0, 85, 100
2, 79920, Note_on_c, 0, 85, 80
2, 79964, Note_off_c, 0, 83, 100
2, 79968, Note_on_c, 0, 83, 80
2, 80012, Note_off_c, 0, 85, 100
2, 80016, Note_on_c, 0, 82, 80
2, 80060, Note_off_c, 0, 83, 100
2, 80064, Note_on_c, 0, 83, 80
2, 80108, Note_off_c, 0, 82, 100
2, 80112, Note_on_c, 0, 85, 80
2, 80156, Note_off_c, 0, 83, 100
2, 80160, Note_on_c, 0, 86, 80
2, 80204, Note_off_c, 0, 85, 100
2, 80208, Note_on_c, 0, 85, 80
2, 80252, Note_off_c, 0, 86, 100
2, 80256, Note_on_c, 0, 86, 81
2, 80300, Note_off_c, 0, 85, 100
2, 80304, Note_on_c, 0, 88, 82
2, 80348, Note_off_c, 0, 86, 100
2, 80352, Note_on_c, 0, 86, 83
2, 80396, Note_off_c, 0, 88, 100
2, 80400, Note_on_c, 0, 85, 85
2, 80444, Note_off_c, 0, 86, 100
2, 80448, Note_on_c, 0, 86, 86
2, 80492, Note_off_c, 0, 85, 100
2, 80496, Note_on_c, 0, 88, 87
2, 80540, Note_off_c, 0, 86, 100
2, 80544, Note_on_c, 0, 89, 89
2, 80588, Note_off_c, 0, 88, 100
2, 80592, Note_on_c, 0, 88, 90
2, 80636, Note_off_c, 0, 89, 100
2, 80640, Note_on_c, 0, 86, 91
2, 80684, Note_off_c, 0, 88, 100
2, 80688, Note_on_c, 0, 88, 93
2, 80732, Note_off_c, 0, 86, 100
2, 80736, Note_on_c, 0, 86, 94
2, 80780, Note_off_c, 0, 88, 100
2, 80784, Note_on_c, 0, 85, 95
2, 80828, Note_off_c, 0, 86, 100
2, 80832, Note_on_c, 0, 86, 97
2, 80876, Note_off_c, 0, 85, 100
2, 80880, Note_on_c, 0, 88, 98
2, 80924, Note_off_c, 0, 86, 100
2, 80928, Note_on_c, 0, 89, 99
2, 80972, Note_off_c, 0, 88, 100
2, 80976, Note_on_c, 0, 88, 110
2, 81020, Note_off_c, 0, 89, 100
2, 81024, Note_on_c, 0, 86, 110
2, 81068, Note_off_c, 0, 88, 100
2, 81072, Note_on_c, 0, 88, 110
2, 81116, Note_off_c, 0, 86, 100
2, 81120, Note_on_c, 0, 86, 110
2, 81164, Note_off_c, 0, 88, 100
2, 81168, Note_on_c, 0, 85, 110
2, 81212, Note_off_c, 0, 86, 100
2, 81216, Note_on_c, 0, 86, 110
2, 81260, Note_off_c, 0, 85, 100
2, 81264, Note_on_c, 0, 88, 110
2, 81308, Note_off_c, 0, 86, 100
2, 81312, Note_on_c, 0, 90, 110
2, 81356, Note_off_c, 0, 88, 100
2, 81360, Note_on_c, 0, 88, 110
2, 81404, Note_off_c, 0, 90, 100
2, 81408, Note_on_c, 0, 86, 110
2, 81452, Note_off_c, 0, 88, 100
2, 81456, Note_on_c, 0, 85, 110
2, 81500, Note_off_c, 0, 86, 100
2, 81504, Note_on_c, 0, 83, 110
2, 81548, Note_off_c, 0, 85, 100
2, 81552, Note_on_c, 0, 81, 110
2, 81596, Note_off_c, 0, 83, 100
2, 81600, Note_on_c, 0, 79, 110
2, 81644, Note_off_c, 0, 81, 100
2, 81648, Note_on_c, 0, 78, 110
2, 81692, Note_off_c, 0, 79, 100
2, 81696, Note_on_c, 0, 76, 110
2, 81740, Note_off_c, 0, 78, 100
2, 81744, Note_on_c, 0, 74, 110
2, 81788, Note_off_c, 0, 76, 100
2, 81792, Note_on_c, 0, 78, 110
2, 81792, Note_on_c, 0, 74, 110
2, 81836, Note_off_c, 0, 74, 100
2, 82172, Note_off_c, 0, 78, 100
2, 82172, Note_off_c, 0, 74, 100
2, 82176, Note_on_c, 0, 76, 110
2, 82176, Note_on_c, 0, 73, 110
2, 82556, Note_off_c, 0, 76, 100
2, 82556, Note_off_c, 0, 73, 100
2, 82560, Note_on_c, 0, 74, 110
2, 82608, Note_on_c, 0, 76, 110
2, 82652, Note_off_c, 0, 74, 100
2, 82656, Note_on_c, 0, 78, 110
2, 82700, Note_off_c, 0, 76, 100
2, 82704, Note_on_c, 0, 79, 110
2, 82748, Note_off_c, 0, 78, 100
2, 82752, Note_on_c, 0, 81, 110
2, 82796, Note_off_c, 0, 79, 100
2, 82800, Note_on_c, 0, 79, 110
2, 82844, Note_off_c, 0, 81, 100
2, 82848, Note_on_c, 0, 78, 110
2, 82892, Note_off_c, 0, 79, 100
2, 82896, Note_on_c, 0, 76, 110
2, 82940, Note_off_c, 0, 78, 100
2, 82944, Note_on_c, 0, 74, 110
2, 82988, Note_off_c, 0, 76, 100
2, 82992, Note_on_c, 0, 73, 110
2, 83036, Note_off_c, 0, 74, 100
2, 83040, Note_on_c, 0, 71, 110
2, 83084, Note_off_c, 0, 73, 100
2, 83088, Note_on_c, 0, 69, 110
2, 83132, Note_off_c, 0, 71, 100
2, 83136, Note_on_c, 0, 67, 110
2, 83180, Note_off_c, 0, 69, 100
2, 83184, Note_on_c, 0, 66, 110
2, 83228, Note_off_c, 0, 67, 100
2, 83232, Note_on_c, 0, 64, 110
2, 83276, Note_off_c, 0, 66, 100
2, 83280, Note_on_c, 0, 62, 110
2, 83324, Note_off_c, 0, 64, 100
2, 83328, Note_on_c, 0, 66, 110
2, 83328, Note_on_c, 0, 62, 110
2, 83372, Note_off_c, 0, 62, 100
2, 83708, Note_off_c, 0, 66, 100
2, 83708, Note_off_c, 0, 62, 100
2, 83712, Note_on_c, 0, 64, 110
2, 83712, Note_on_c, 0, 61, 110
2, 84092, Note_off_c, 0, 64, 100
2, 84092, Note_off_c, 0, 61, 100
2, 84096, Note_on_c, 0, 62, 80
2, 84188, Note_off_c, 0, 62, 100
2, 84192, Note_on_c, 0, 57, 80
2, 84284, Note_off_c, 0, 57, 100
2, 84288, Note_on_c, 0, 62, 80
2, 84288, Note_on_c, 0, 66, 80
2, 84380, Note_off_c, 0, 62, 100
2, 84380, Note_off_c, 0, 66, 100
2, 84384, Note_on_c, 0, 57, 80
2, 84476, Note_off_c, 0, 57, 100
2, 84480, Note_on_c, 0, 64, 80
2, 84480, Note_on_c, 0, 67, 80
2, 84572, Note_off_c, 0, 64, 100
2, 84572, Note_off_c, 0, 67, 100
2, 84576, Note_on_c, 0, 57, 80
2, 84668, Note_off_c, 0, 57, 100
2, 84672, Note_on_c, 0, 68, 80
2, 84672, Note_on_c, 0, 65, 80
2, 84764, Note_off_c, 0, 68, 100
2, 84764, Note_off_c, 0, 65, 100
2, 84768, Note_on_c, 0, 57, 80
2, 84860, Note_off_c, 0, 57, 100
2, 84864, Note_on_c, 0, 69, 80
2, 84864, Note_on_c, 0, 66, 80
2, 84960, Note_on_c, 0, 57, 80
2, 85148, Note_off_c, 0, 57, 100
2, 85152, Note_on_c, 0, 57, 80
2, 85340, Note_off_c, 0, 57, 100
2, 85344, Note_on_c, 0, 57, 80
2, 85532, Note_off_c, 0, 57, 100
2, 85536, Note_on_c, 0, 57, 80
2, 85724, Note_off_c, 0, 57, 100
2, 85728, Note_on_c, 0, 57, 80
2, 85820, Note_off_c, 0, 66, 100
2, 85820, Note_off_c, 0, 69, 100
2, 85820, Note_off_c, 0, 57, 100
2, 85824, Note_on_c, 0, 66, 80
2, 85824, Note_on_c, 0, 62, 80
2, 85916, Note_off_c, 0, 62, 100
2, 85920, Note_on_c, 0, 57, 80
2, 86012, Note_off_c, 0, 66, 100
2, 86012, Note_off_c, 0, 57, 100
2, 86016, Note_on_c, 0, 71, 80
2, 86016, Note_on_c, 0, 67, 80
2, 86108, Note_off_c, 0, 67, 100
2, 86112, Note_on_c, 0, 57, 80
2, 86204, Note_off_c, 0, 71, 100
2, 86204, Note_off_c, 0, 57, 100
2, 86208, Note_on_c, 0, 69, 80
2, 86208, Note_on_c, 0, 66, 80
2, 86300, Note_off_c, 0, 66, 100
2, 86304, Note_on_c, 0, 57, 80
2, 86396, Note_off_c, 0, 69, 100
2, 86396, Note_off_c, 0, 57, 100
2, 86400, Note_on_c, 0, 67, 80
2, 86400, Note_on_c, 0, 64, 80
2, 86496, Note_on_c, 0, 57, 80
2, 86684, Note_off_c, 0, 57, 100
2, 86688, Note_on_c, 0, 57, 80
2, 86876, Note_off_c, 0, 57, 100
2, 86880, Note_on_c, 0, 57, 80
2, 87068, Note_off_c, 0, 57, 100
2, 87072, Note_on_c, 0, 57, 80
2, 87260, Note_off_c, 0, 57, 100
2, 87264, Note_on_c, 0, 57, 80
2, 87356, Note_off_c, 0, 64, 100
2, 87356, Note_off_c, 0, 67, 100
2, 87356, Note_off_c, 0, 57, 100
2, 87360, Note_on_c, 0, 67, 80
2, 87360, Note_on_c, 0, 64, 80
2, 87452, Note_off_c, 0, 64, 100
2, 87456, Note_on_c, 0, 57, 80
2, 87548, Note_off_c, 0, 67, 100
2, 87548, Note_off_c, 0, 57, 100
2, 87552, Note_on_c, 0, 69, 80
2, 87552, Note_on_c, 0, 66, 80
2, 87644, Note_off_c, 0, 66, 100
2, 87648, Note_on_c, 0, 57, 80
2, 87740, Note_off_c, 0, 69, 100
2, 87740, Note_off_c, 0, 57, 100
2, 87744, Note_on_c, 0, 67, 80
2, 87744, Note_on_c, 0, 64, 80
2, 87836, Note_off_c, 0, 64, 100
2, 87840, Note_on_c, 0, 57, 80
2, 87932, Note_off_c, 0, 67, 100
2, 87932, Note_off_c, 0, 57, 100
2, 87936, Note_on_c, 0, 66, 80
2, 87936, Note_on_c, 0, 62, 80
2, 88032, Note_on_c, 0, 57, 80
2, 88124, Note_off_c, 0, 57, 100
2, 88224, Note_on_c, 0, 58, 80
2, 88316, Note_off_c, 0, 58, 100
2, 88416, Note_on_c, 0, 59, 80
2, 88508, Note_off_c, 0, 59, 100
2, 88608, Note_on_c, 0, 54, 80
2, 88700, Note_off_c, 0, 54, 100
2, 88800, Note_on_c, 0, 55, 80
2, 88892, Note_off_c, 0, 62, 100
2, 88892, Note_off_c, 0, 66, 100
2, 88892, Note_off_c, 0, 55, 100
2, 88896, Note_on_c, 0, 64, 80
2, 88896, Note_on_c, 0, 62, 80
2, 88988, Note_off_c, 0, 62, 100
2, 88992, Note_on_c, 0, 56, 80
2, 89084, Note_off_c, 0, 64, 100
2, 89084, Note_off_c, 0, 56, 100
2, 89088, Note_on_c, 0, 64, 80
2, 89088, Note_on_c, 0, 62, 80
2, 89180, Note_off_c, 0, 62, 100
2, 89184, Note_on_c, 0, 57, 80
2, 89276, Note_off_c, 0, 64, 100
2, 89276, Note_off_c, 0, 57, 100
2, 89280, Note_on_c, 0, 67, 80
2, 89280, Note_on_c, 0, 61, 80
2, 89372, Note_off_c, 0, 61, 100
2, 89376, Note_on_c, 0, 57, 80
2, 89468, Note_off_c, 0, 67, 100
2, 89468, Note_off_c, 0, 57, 100
2, 89472, Note_on_c, 0, 66, 80
2, 89472, Note_on_c, 0, 62, 80
2, 89568, Note_on_c, 0, 57, 80
2, 89660, Note_off_c, 0, 57, 100
2, 89760, Note_on_c, 0, 58, 80
2, 89852, Note_off_c, 0, 58, 100
2, 89952, Note_on_c, 0, 59, 80
2, 90044, Note_off_c, 0, 59, 100
2, 90144, Note_on_c, 0, 54, 80
2, 90236, Note_off_c, 0, 54, 100
2, 90336, Note_on_c, 0, 55, 80
2, 90428, Note_off_c, 0, 62, 100
2, 90428, Note_off_c, 0, 66, 100
2, 90428, Note_off_c, 0, 55, 100
2, 90432, Note_on_c, 0, 64, 80
2, 90432, Note_on_c, 0, 62, 80
2, 90524, Note_off_c, 0, 62, 100
2, 90528, Note_on_c, 0, 56, 80
2, 90620, Note_off_c, 0, 64, 100
2, 90620, Note_off_c, 0, 56, 100
2, 90624, Note_on_c, 0, 64, 80
2, 90624, Note_on_c, 0, 62, 80
2, 90716, Note_off_c, 0, 62, 100
2, 90720, Note_on_c, 0, 57, 80
2, 90812, Note_off_c, 0, 64, 100
2, 90812, Note_off_c, 0, 57, 100
2, 90816, Note_on_c, 0, 67, 80
2, 90816, Note_on_c, 0, 61, 80
2, 90908, Note_off_c, 0, 61, 100
2, 90912, Note_on_c, 0, 57, 80
2, 91004, Note_off_c, 0, 67, 100
2, 91004, Note_off_c, 0, 57, 100
2, 91008, Note_on_c, 0, 66, 80
2, 91008, Note_on_c, 0, 62, 80
2, 91104, Note_on_c, 0, 57, 80
2, 91196, Note_off_c, 0, 57, 100
2, 91296, Note_on_c, 0, 58, 80
2, 91388, Note_off_c, 0, 58, 100
2, 91488, Note_on_c, 0, 59, 80
2, 91580, Note_off_c, 0, 59, 100
2, 91680, Note_on_c, 0, 60, 80
2, 91772, Note_off_c, 0, 60, 100
2, 91872, Note_on_c, 0, 59, 80
2, 91964, Note_off_c, 0, 62, 100
2, 91964, Note_off_c, 0, 66, 100
2, 91964, Note_off_c, 0, 59, 100
2, 91968, Note_on_c, 0, 67, 80
2, 91968, Note_on_c, 0, 64, 80
2, 92060, Note_off_c, 0, 64, 100
2, 92064, Note_on_c, 0, 59, 80
2, 92156, Note_off_c, 0, 67, 100
2, 92156, Note_off_c, 0, 59, 100
2, 92160, Note_on_c, 0, 66, 80
2, 92160, Note_on_c, 0, 62, 80
2, 92252, Note_off_c, 0, 62, 100
2, 92256, Note_on_c, 0, 57, 80
2, 92348, Note_off_c, 0, 66, 100
2, 92348, Note_off_c, 0, 57, 100
2, 92352, Note_on_c, 0, 64, 80
2, 92352, Note_on_c, 0, 61, 80
2, 92444, Note_off_c, 0, 61, 100
2, 92448, Note_on_c, 0, 55, 80
2, 92540, Note_off_c, 0, 64, 100
2, 92540, Note_off_c, 0, 55, 100
2, 92544, Note_on_c, 0, 62, 80
2, 92544, Note_on_c, 0, 54, 80
2, 92636, Note_off_c, 0, 54, 100
2, 92640, Note_on_c, 0, 57, 80
2, 92732, Note_off_c, 0, 57, 100
2, 92736, Note_on_c, 0, 54, 80
2, 92828, Note_off_c, 0, 54, 100
2, 92832, Note_on_c, 0, 57, 80
2, 92924, Note_off_c, 0, 57, 100
2, 92928, Note_on_c, 0, 54, 80
2, 93020, Note_off_c, 0, 54, 100
2, 93024, Note_on_c, 0, 57, 80
2, 93116, Note_off_c, 0, 62, 100
2, 93116, Note_off_c, 0, 57, 100
2, 93120, Note_on_c, 0, 64, 80
2, 93120, Note_on_c, 0, 55, 80
2, 93212, Note_off_c, 0, 55, 100
2, 93216, Note_on_c, 0, 61, 80
2, 93308, Note_off_c, 0, 64, 100
2, 93308, Note_off_c, 0, 61, 100
2, 93312, Note_on_c, 0, 66, 80
2, 93312, Note_on_c, 0, 57, 80
2, 93404, Note_off_c, 0, 57, 100
2, 93408, Note_on_c, 0, 62, 80
2, 93500, Note_off_c, 0, 62, 100
2, 93504, Note_on_c, 0, 57, 80
2, 93596, Note_off_c, 0, 57, 100
2, 93600, Note_on_c, 0, 62, 80
2, 93692, Note_off_c, 0, 62, 100
2, 93696, Note_on_c, 0, 57, 80
2, 93788, Note_off_c, 0, 57, 100
2, 93792, Note_on_c, 0, 62, 80
2, 93884, Note_off_c, 0, 66, 100
2, 93884, Note_off_c, 0, 62, 100
2, 93888, Note_on_c, 0, 64, 80
2, 93888, Note_on_c, 0, 55, 80
2, 93980, Note_off_c, 0, 55, 100
2, 93984, Note_on_c, 0, 61, 80
2, 94076, Note_off_c, 0, 64, 100
2, 94076, Note_off_c, 0, 61, 100
2, 94080, Note_on_c, 0, 62, 80
2, 94652, Note_off_c, 0, 62, 100
2, 94656, Note_on_c, 0, 73, 90
2, 94656, Note_on_c, 0, 64, 90
2, 94844, Note_off_c, 0, 73, 100
2, 94844, Note_off_c, 0, 64, 100
2, 94848, Note_on_c, 0, 74, 80
2, 94848, Note_on_c, 0, 62, 80
2, 95036, Note_off_c, 0, 74, 100
2, 95036, Note_off_c, 0, 62, 100
2, 95040, Note_on_c, 0, 73, 90
2, 95040, Note_on_c, 0, 64, 90
2, 95228, Note_off_c, 0, 73, 100
2, 95228, Note_off_c, 0, 64, 100
2, 95232, Note_on_c, 0, 74, 80
2, 95232, Note_on_c, 0, 62, 80
2, 95420, Note_off_c, 0, 74, 100
2, 95420, Note_off_c, 0, 62, 100
2, 95424, Note_on_c, 0, 73, 80
2, 95424, Note_on_c, 0, 64, 80
2, 95472, Note_on_c, 0, 74, 80
2, 95516, Note_off_c, 0, 73, 100
2, 95520, Note_on_c, 0, 71, 80
2, 95564, Note_off_c, 0, 74, 100
2, 95568, Note_on_c, 0, 73, 80
2, 95612, Note_off_c, 0, 64, 100
2, 95612, Note_off_c, 0, 71, 100
2, 95616, Note_on_c, 0, 76, 80
2, 95616, Note_on_c, 0, 67, 80
2, 95660, Note_off_c, 0, 73, 100
2, 96380, Note_off_c, 0, 76, 100
2, 96380, Note_off_c, 0, 67, 100
2, 96384, Note_on_c, 0, 74, 80
2, 96384, Note_on_c, 0, 66, 80
2, 96572, Note_off_c, 0, 74, 100
2, 96572, Note_off_c, 0, 66, 100
2, 96864, Note_on_c, 0, 62, 80
2, 96956, Note_off_c, 0, 62, 100
2, 96960, Note_on_c, 0, 74, 80
2, 97052, Note_off_c, 0, 74, 100
2, 97056, Note_on_c, 0, 69, 80
2, 97148, Note_off_c, 0, 69, 100
2, 97152, Note_on_c, 0, 70, 80
2, 97244, Note_off_c, 0, 70, 100
2, 97248, Note_on_c, 0, 66, 80
2, 97340, Note_off_c, 0, 66, 100
2, 97344, Note_on_c, 0, 67, 80
2, 97628, Note_off_c, 0, 67, 100
2, 97632, Note_on_c, 0, 62, 80
2, 97724, Note_off_c, 0, 62, 100
2, 97728, Note_on_c, 0, 74, 80
2, 97820, Note_off_c, 0, 74, 100
2, 97824, Note_on_c, 0, 69, 80
2, 97916, Note_off_c, 0, 69, 100
2, 97920, Note_on_c, 0, 70, 80
2, 98012, Note_off_c, 0, 70, 100
2, 98016, Note_on_c, 0, 66, 80
2, 98108, Note_off_c, 0, 66, 100
2, 98112, Note_on_c, 0, 67, 80
2, 98396, Note_off_c, 0, 67, 100
2, 98400, Note_on_c, 0, 67, 80
2, 98492, Note_off_c, 0, 67, 100
2, 98496, Note_on_c, 0, 79, 80
2, 98588, Note_off_c, 0, 79, 100
2, 98592, Note_on_c, 0, 74, 80
2, 98684, Note_off_c, 0, 74, 100
2, 98688, Note_on_c, 0, 75, 80
2, 98780, Note_off_c, 0, 75, 100
2, 98784, Note_on_c, 0, 71, 80
2, 98876, Note_off_c, 0, 71, 100
2, 98880, Note_on_c, 0, 72, 80
2, 99164, Note_off_c, 0, 72, 100
2, 99168, Note_on_c, 0, 67, 80
2, 99260, Note_off_c, 0, 67, 100
2, 99264, Note_on_c, 0, 79, 80
2, 99356, Note_off_c, 0, 79, 100
2, 99360, Note_on_c, 0, 74, 80
2, 99452, Note_off_c, 0, 74, 100
2, 99456, Note_on_c, 0, 75, 80
2, 99548, Note_off_c, 0, 75, 100
2, 99552, Note_on_c, 0, 71, 80
2, 99644, Note_off_c, 0, 71, 100
2, 99648, Note_on_c, 0, 72, 80
2, 99932, Note_off_c, 0, 72, 100
2, 99936, Note_on_c, 0, 86, 70
2, 100028, Note_off_c, 0, 86, 100
2, 100032, Note_on_c, 0, 87, 70
2, 100124, Note_off_c, 0, 87, 100
2, 100128, Note_on_c, 0, 83, 70
2, 100220, Note_off_c, 0, 83, 100
2, 100224, Note_on_c, 0, 84, 70
2, 100412, Note_off_c, 0, 84, 100
2, 100704, Note_on_c, 0, 74, 70
2, 100796, Note_off_c, 0, 74, 100
2, 100800, Note_on_c, 0, 75, 70
2, 100892, Note_off_c, 0, 75, 100
2, 100896, Note_on_c, 0, 71, 70
2, 100988, Note_off_c, 0, 71, 100
2, 100992, Note_on_c, 0, 72, 70
2, 101180, Note_off_c, 0, 72, 100
2, 101472, Note_on_c, 0, 86, 70
2, 101564, Note_off_c, 0, 86, 100
2, 101568, Note_on_c, 0, 87, 70
2, 101660, Note_off_c, 0, 87, 100
2, 101664, Note_on_c, 0, 83, 70
2, 101756, Note_off_c, 0, 83, 100
2, 101760, Note_on_c, 0, 84, 70
2, 101948, Note_off_c, 0, 84, 100
2, 102240, Note_on_c, 0, 65, 79
2, 102332, Note_off_c, 0, 65, 100
2, 102336, Note_on_c, 0, 75, 81
2, 102428, Note_off_c, 0, 75, 100
2, 102432, Note_on_c, 0, 71, 83
2, 102524, Note_off_c, 0, 71, 100
2, 102528, Note_on_c, 0, 72, 85
2, 102620, Note_off_c, 0, 72, 100
2, 102624, Note_on_c, 0, 68, 87
2, 102716, Note_off_c, 0, 68, 100
2, 102720, Note_on_c, 0, 69, 89
2, 103004, Note_off_c, 0, 69, 100
2, 103008, Note_on_c, 0, 65, 95
2, 103100, Note_off_c, 0, 65, 100
2, 103104, Note_on_c, 0, 75, 97
2, 103196, Note_off_c, 0, 75, 100
2, 103200, Note_on_c, 0, 71, 99
2, 103292, Note_off_c, 0, 71, 100
2, 103296, Note_on_c, 0, 72, 110
2, 103388, Note_off_c, 0, 72, 100
2, 103392, Note_on_c, 0, 68, 110
2, 103484, Note_off_c, 0, 68, 100
2, 103488, Note_on_c, 0, 69, 110
2, 103772, Note_off_c, 0, 69, 100
2, 104832, Note_on_c, 0, 77, 80
2, 104832, Note_on_c, 0, 74, 80
2, 105116, Note_off_c, 0, 77, 100
2, 105116, Note_off_c, 0, 74, 100
2, 105120, Note_on_c, 0, 76, 80
2, 105120, Note_on_c, 0, 73, 80
2, 105212, Note_off_c, 0, 76, 100
2, 105212, Note_off_c, 0, 73, 100
2, 105216, Note_on_c, 0, 77, 80
2, 105216, Note_on_c, 0, 74, 80
2, 105500, Note_off_c, 0, 77, 100
2, 105500, Note_off_c, 0, 74, 100
2, 105504, Note_on_c, 0, 76, 80
2, 105504, Note_on_c, 0, 73, 80
2, 105596, Note_off_c, 0, 76, 100
2, 105596, Note_off_c, 0, 73, 100
2, 105600, Note_on_c, 0, 77, 80
2, 105600, Note_on_c, 0, 74, 80
2, 105884, Note_off_c, 0, 77, 100
2, 105884, Note_off_c, 0, 74, 100
2, 105888, Note_on_c, 0, 75, 80
2, 105888, Note_on_c, 0, 72, 80
2, 105980, Note_off_c, 0, 75, 100
2, 105980, Note_off_c, 0, 72, 100
2, 105984, Note_on_c, 0, 75, 80
2, 105984, Note_on_c, 0, 72, 80
2, 106076, Note_off_c, 0, 75, 100
2, 106076, Note_off_c, 0, 72, 100
2, 106080, Note_on_c, 0, 74, 80
2, 106080, Note_on_c, 0, 70, 80
2, 106172, Note_off_c, 0, 74, 100
2, 106172, Note_off_c, 0, 70, 100
2, 106176, Note_on_c, 0, 74, 80
2, 106176, Note_on_c, 0, 70, 80
2, 106268, Note_off_c, 0, 74, 100
2, 106268, Note_off_c, 0, 70, 100
2, 106272, Note_on_c, 0, 72, 80
2, 106272, Note_on_c, 0, 69, 80
2, 106364, Note_off_c, 0, 72, 100
2, 106364, Note_off_c, 0, 69, 100
2, 106368, Note_on_c, 0, 72, 80
2, 106368, Note_on_c, 0, 69, 80
2, 106460, Note_off_c, 0, 72, 100
2, 106460, Note_off_c, 0, 69, 100
2, 106464, Note_on_c, 0, 70, 80
2, 106464, Note_on_c, 0, 67, 80
2, 106556, Note_off_c, 0, 70, 100
2, 106556, Note_off_c, 0, 67, 100
2, 106560, Note_on_c, 0, 70, 80
2, 106560, Note_on_c, 0, 67, 80
2, 106652, Note_off_c, 0, 70, 100
2, 106652, Note_off_c, 0, 67, 100
2, 106656, Note_on_c, 0, 69, 80
2, 106656, Note_on_c, 0, 65, 80
2, 106748, Note_off_c, 0, 69, 100
2, 106748, Note_off_c, 0, 65, 100
2, 106752, Note_on_c, 0, 69, 80
2, 106752, Note_on_c, 0, 65, 80
2, 106844, Note_off_c, 0, 69, 100
2, 106844, Note_off_c, 0, 65, 100
2, 106848, Note_on_c, 0, 67, 80
2, 106848, Note_on_c, 0, 63, 80
2, 106940, Note_off_c, 0, 67, 100
2, 106940, Note_off_c, 0, 63, 100
2, 106944, Note_on_c, 0, 67, 80
2, 106944, Note_on_c, 0, 63, 80
2, 107036, Note_off_c, 0, 67, 100
2, 107036, Note_off_c, 0, 63, 100
2, 107040, Note_on_c, 0, 62, 80
2, 107040, Note_on_c, 0, 65, 80
2, 107132, Note_off_c, 0, 62, 100
2, 107132, Note_off_c, 0, 65, 100
2, 107136, Note_on_c, 0, 62, 80
2, 107136, Note_on_c, 0, 59, 80
2, 107516, Note_off_c, 0, 62, 100
2, 107516, Note_off_c, 0, 59, 100
2, 107520, Note_on_c, 0, 63, 80
2, 107520, Note_on_c, 0, 60, 80
2, 107708, Note_off_c, 0, 63, 100
2, 107708, Note_off_c, 0, 60, 100
2, 107904, Note_on_c, 0, 75, 80
2, 107904, Note_on_c, 0, 72, 80
2, 108188, Note_off_c, 0, 75, 100
2, 108188, Note_off_c, 0, 72, 100
2, 108192, Note_on_c, 0, 74, 79
2, 108192, Note_on_c, 0, 71, 79
2, 108284, Note_off_c, 0, 74, 100
2, 108284, Note_off_c, 0, 71, 100
2, 108288, Note_on_c, 0, 75, 79
2, 108288, Note_on_c, 0, 72, 79
2, 108572, Note_off_c, 0, 75, 100
2, 108572, Note_off_c, 0, 72, 100
2, 108576, Note_on_c, 0, 74, 77
2, 108576, Note_on_c, 0, 71, 77
2, 108668, Note_off_c, 0, 74, 100
2, 108668, Note_off_c, 0, 71, 100
2, 108672, Note_on_c, 0, 75, 77
2, 108672, Note_on_c, 0, 72, 77
2, 108956, Note_off_c, 0, 75, 100
2, 108956, Note_off_c, 0, 72, 100
2, 108960, Note_on_c, 0, 74, 76
2, 108960, Note_on_c, 0, 71, 76
2, 109052, Note_off_c, 0, 74, 100
2, 109052, Note_off_c, 0, 71, 100
2, 109056, Note_on_c, 0, 75, 75
2, 109056, Note_on_c, 0, 72, 75
2, 109340, Note_off_c, 0, 75, 100
2, 109340, Note_off_c, 0, 72, 100
2, 109344, Note_on_c, 0, 74, 74
2, 109344, Note_on_c, 0, 71, 74
2, 109436, Note_off_c, 0, 74, 100
2, 109436, Note_off_c, 0, 71, 100
2, 109440, Note_on_c, 0, 75, 74
2, 109440, Note_on_c, 0, 72, 74
2, 109724, Note_off_c, 0, 75, 100
2, 109724, Note_off_c, 0, 72, 100
2, 109728, Note_on_c, 0, 74, 72
2, 109728, Note_on_c, 0, 71, 72
2, 109820, Note_off_c, 0, 74, 100
2, 109820, Note_off_c, 0, 71, 100
2, 109824, Note_on_c, 0, 75, 72
2, 109824, Note_on_c, 0, 72, 72
2, 110108, Note_off_c, 0, 75, 100
2, 110108, Note_off_c, 0, 72, 100
2, 110112, Note_on_c, 0, 74, 71
2, 110112, Note_on_c, 0, 71, 71
2, 110204, Note_off_c, 0, 74, 100
2, 110204, Note_off_c, 0, 71, 100
2, 110208, Note_on_c, 0, 75, 110
2, 110268, Note_off_c, 0, 75, 100
2, 110272, Note_on_c, 0, 72, 110
2, 110332, Note_off_c, 0, 72, 100
2, 110336, Note_on_c, 0, 63, 110
2, 110396, Note_off_c, 0, 63, 100
2, 110400, Note_on_c, 0, 75, 110
2, 110460, Note_off_c, 0, 75, 100
2, 110464, Note_on_c, 0, 72, 110
2, 110524, Note_off_c, 0, 72, 100
2, 110528, Note_on_c, 0, 63, 110
2, 110588, Note_off_c, 0, 63, 100
2, 110592, Note_on_c, 0, 75, 110
2, 110652, Note_off_c, 0, 75, 100
2, 110656, Note_on_c, 0, 72, 110
2, 110716, Note_off_c, 0, 72, 100
2, 110720, Note_on_c, 0, 63, 110
2, 110780, Note_off_c, 0, 63, 100
2, 110784, Note_on_c, 0, 75, 110
2, 110844, Note_off_c, 0, 75, 100
2, 110848, Note_on_c, 0, 72, 110
2, 110908, Note_off_c, 0, 72, 100
2, 110912, Note_on_c, 0, 63, 110
2, 110972, Note_off_c, 0, 63, 100
2, 110976, Note_on_c, 0, 75, 110
2, 111036, Note_off_c, 0, 75, 100
2, 111040, Note_on_c, 0, 72, 110
2, 111100, Note_off_c, 0, 72, 100
2, 111104, Note_on_c, 0, 63, 110
2, 111164, Note_off_c, 0, 63, 100
2, 111168, Note_on_c, 0, 75, 110
2, 111228, Note_off_c, 0, 75, 100
2, 111232, Note_on_c, 0, 72, 110
2, 111292, Note_off_c, 0, 72, 100
2, 111296, Note_on_c, 0, 63, 110
2, 111356, Note_off_c, 0, 63, 100
2, 111360, Note_on_c, 0, 75, 110
2, 111420, Note_off_c, 0, 75, 100
2, 111424, Note_on_c, 0, 72, 110
2, 111484, Note_off_c, 0, 72, 100
2, 111488, Note_on_c, 0, 63, 110
2, 111548, Note_off_c, 0, 63, 100
2, 111552, Note_on_c, 0, 75, 110
2, 111612, Note_off_c, 0, 75, 100
2, 111616, Note_on_c, 0, 72, 110
2, 111676, Note_off_c, 0, 72, 100
2, 111680, Note_on_c, 0, 63, 110
2, 111740, Note_off_c, 0, 63, 100
2, 111744, Note_on_c, 0, 75, 110
2, 111804, Note_off_c, 0, 75, 100
2, 111808, Note_on_c, 0, 72, 110
2, 111868, Note_off_c, 0, 72, 100
2, 111872, Note_on_c, 0, 63, 110
2, 111932, Note_off_c, 0, 63, 100
2, 111936, Note_on_c, 0, 75, 110
2, 111996, Note_off_c, 0, 75, 100
2, 112000, Note_on_c, 0, 72, 110
2, 112060, Note_off_c, 0, 72, 100
2, 112064, Note_on_c, 0, 63, 110
2, 112124, Note_off_c, 0, 63, 100
2, 112128, Note_on_c, 0, 75, 110
2, 112188, Note_off_c, 0, 75, 100
2, 112192, Note_on_c, 0, 72, 110
2, 112252, Note_off_c, 0, 72, 100
2, 112256, Note_on_c, 0, 63, 110
2, 112316, Note_off_c, 0, 63, 100
2, 112320, Note_on_c, 0, 75, 110
2, 112380, Note_off_c, 0, 75, 100
2, 112384, Note_on_c, 0, 72, 110
2, 112444, Note_off_c, 0, 72, 100
2, 112448, Note_on_c, 0, 63, 110
2, 112508, Note_off_c, 0, 63, 100
2, 112512, Note_on_c, 0, 74, 110
2, 112572, Note_off_c, 0, 74, 100
2, 112576, Note_on_c, 0, 72, 110
2, 112636, Note_off_c, 0, 72, 100
2, 112640, Note_on_c, 0, 62, 110
2, 112700, Note_off_c, 0, 62, 100
2, 112704, Note_on_c, 0, 74, 110
2, 112764, Note_off_c, 0, 74, 100
2, 112768, Note_on_c, 0, 72, 110
2, 112828, Note_off_c, 0, 72, 100
2, 112832, Note_on_c, 0, 62, 110
2, 112892, Note_off_c, 0, 62, 100
2, 112896, Note_on_c, 0, 74, 110
2, 112956, Note_off_c, 0, 74, 100
2, 112960, Note_on_c, 0, 72, 110
2, 113020, Note_off_c, 0, 72, 100
2, 113024, Note_on_c, 0, 62, 110
2, 113084, Note_off_c, 0, 62, 100
2, 113088, Note_on_c, 0, 74, 110
2, 113148, Note_off_c, 0, 74, 100
2, 113152, Note_on_c, 0, 72, 110
2, 113212, Note_off_c, 0, 72, 100
2, 113216, Note_on_c, 0, 62, 110
2, 113276, Note_off_c, 0, 62, 100
2, 113280, Note_on_c, 0, 74, 110
2, 113340, Note_off_c, 0, 74, 100
2, 113344, Note_on_c, 0, 72, 110
2, 113404, Note_off_c, 0, 72, 100
2, 113408, Note_on_c, 0, 62, 110
2, 113468, Note_off_c, 0, 62, 100
2, 113472, Note_on_c, 0, 74, 110
2, 113532, Note_off_c, 0, 74, 100
2, 113536, Note_on_c, 0, 72, 110
2, 113596, Note_off_c, 0, 72, 100
2, 113600, Note_on_c, 0, 62, 110
2, 113660, Note_off_c, 0, 62, 100
2, 113664, Note_on_c, 0, 74, 110
2, 113724, Note_off_c, 0, 74, 100
2, 113728, Note_on_c, 0, 72, 110
2, 113788, Note_off_c, 0, 72, 100
2, 113792, Note_on_c, 0, 62, 110
2, 113852, Note_off_c, 0, 62, 100
2, 113856, Note_on_c, 0, 74, 110
2, 113916, Note_off_c, 0, 74, 100
2, 113920, Note_on_c, 0, 72, 110
2, 113980, Note_off_c, 0, 72, 100
2, 113984, Note_on_c, 0, 62, 110
2, 114044, Note_off_c, 0, 62, 100
2, 114048, Note_on_c, 0, 74, 110
2, 114108, Note_off_c, 0, 74, 100
2, 114112, Note_on_c, 0, 70, 110
2, 114172, Note_off_c, 0, 70, 100
2, 114176, Note_on_c, 0, 62, 110
2, 114236, Note_off_c, 0, 62, 100
2, 114240, Note_on_c, 0, 74, 110
2, 114300, Note_off_c, 0, 74, 100
2, 114304, Note_on_c, 0, 70, 110
2, 114364, Note_off_c, 0, 70, 100
2, 114368, Note_on_c, 0, 67, 110
2, 114428, Note_off_c, 0, 67, 100
2, 114432, Note_on_c, 0, 74, 110
2, 114492, Note_off_c, 0, 74, 100
2, 114496, Note_on_c, 0, 70, 110
2, 114556, Note_off_c, 0, 70, 100
2, 114560, Note_on_c, 0, 67, 110
2, 114620, Note_off_c, 0, 67, 100
2, 114624, Note_on_c, 0, 74, 110
2, 114684, Note_off_c, 0, 74, 100
2, 114688, Note_on_c, 0, 70, 110
2, 114748, Note_off_c, 0, 70, 100
2, 114752, Note_on_c, 0, 67, 110
2, 114812, Note_off_c, 0, 67, 100
2, 114816, Note_on_c, 0, 74, 110
2, 114876, Note_off_c, 0, 74, 100
2, 114880, Note_on_c, 0, 70, 110
2, 114940, Note_off_c, 0, 70, 100
2, 114944, Note_on_c, 0, 67, 110
2, 115004, Note_off_c, 0, 67, 100
2, 115008, Note_on_c, 0, 74, 110
2, 115068, Note_off_c, 0, 74, 100
2, 115072, Note_on_c, 0, 70, 110
2, 115132, Note_off_c, 0, 70, 100
2, 115136, Note_on_c, 0, 67, 110
2, 115196, Note_off_c, 0, 67, 100
2, 115200, Note_on_c, 0, 74, 110
2, 115260, Note_off_c, 0, 74, 100
2, 115264, Note_on_c, 0, 70, 110
2, 115324, Note_off_c, 0, 70, 100
2, 115328, Note_on_c, 0, 67, 110
2, 115388, Note_off_c, 0, 67, 100
2, 115392, Note_on_c, 0, 74, 110
2, 115452, Note_off_c, 0, 74, 100
2, 115456, Note_on_c, 0, 70, 110
2, 115516, Note_off_c, 0, 70, 100
2, 115520, Note_on_c, 0, 67, 110
2, 115580, Note_off_c, 0, 67, 100
2, 115584, Note_on_c, 0, 74, 110
2, 115644, Note_off_c, 0, 74, 100
2, 115648, Note_on_c, 0, 70, 110
2, 115708, Note_off_c, 0, 70, 100
2, 115712, Note_on_c, 0, 67, 110
2, 115772, Note_off_c, 0, 67, 100
2, 115776, Note_on_c, 0, 74, 110
2, 115836, Note_off_c, 0, 74, 100
2, 115840, Note_on_c, 0, 70, 110
2, 115900, Note_off_c, 0, 70, 100
2, 115904, Note_on_c, 0, 67, 110
2, 115964, Note_off_c, 0, 67, 100
2, 115968, Note_on_c, 0, 74, 110
2, 116028, Note_off_c, 0, 74, 100
2, 116032, Note_on_c, 0, 70, 110
2, 116092, Note_off_c, 0, 70, 100
2, 116096, Note_on_c, 0, 67, 110
2, 116156, Note_off_c, 0, 67, 100
2, 116160, Note_on_c, 0, 74, 110
2, 116220, Note_off_c, 0, 74, 100
2, 116224, Note_on_c, 0, 70, 110
2, 116284, Note_off_c, 0, 70, 100
2, 116288, Note_on_c, 0, 67, 110
2, 116348, Note_off_c, 0, 67, 100
2, 116352, Note_on_c, 0, 72, 110
2, 116412, Note_off_c, 0, 72, 100
2, 116416, Note_on_c, 0, 70, 110
2, 116476, Note_off_c, 0, 70, 100
2, 116480, Note_on_c, 0, 67, 110
2, 116540, Note_off_c, 0, 67, 100
2, 116544, Note_on_c, 0, 72, 110
2, 116604, Note_off_c, 0, 72, 100
2, 116608, Note_on_c, 0, 70, 110
2, 116668, Note_off_c, 0, 70, 100
2, 116672, Note_on_c, 0, 67, 110
2, 116732, Note_off_c, 0, 67, 100
2, 116736, Note_on_c, 0, 72, 110
2, 116796, Note_off_c, 0, 72, 100
2, 116800, Note_on_c, 0, 70, 110
2, 116860, Note_off_c, 0, 70, 100
2, 116864, Note_on_c, 0, 67, 110
2, 116924, Note_off_c, 0, 67, 100
2, 116928, Note_on_c, 0, 72, 110
2, 116988, Note_off_c, 0, 72, 100
2, 116992, Note_on_c, 0, 70, 110
2, 117052, Note_off_c, 0, 70, 100
2, 117056, Note_on_c, 0, 67, 110
2, 117116, Note_off_c, 0, 67, 100
2, 117120, Note_on_c, 0, 72, 110
2, 117180, Note_off_c, 0, 72, 100
2, 117184, Note_on_c, 0, 70, 110
2, 117244, Note_off_c, 0, 70, 100
2, 117248, Note_on_c, 0, 67, 110
2, 117308, Note_off_c, 0, 67, 100
2, 117312, Note_on_c, 0, 76, 110
2, 117372, Note_off_c, 0, 76, 100
2, 117376, Note_on_c, 0, 71, 110
2, 117436, Note_off_c, 0, 71, 100
2, 117440, Note_on_c, 0, 67, 110
2, 117500, Note_off_c, 0, 67, 100
2, 117504, Note_on_c, 0, 76, 110
2, 117564, Note_off_c, 0, 76, 100
2, 117568, Note_on_c, 0, 71, 110
2, 117628, Note_off_c, 0, 71, 100
2, 117632, Note_on_c, 0, 67, 110
2, 117692, Note_off_c, 0, 67, 100
2, 117696, Note_on_c, 0, 76, 110
2, 117756, Note_off_c, 0, 76, 100
2, 117760, Note_on_c, 0, 71, 110
2, 117820, Note_off_c, 0, 71, 100
2, 117824, Note_on_c, 0, 67, 110
2, 117884, Note_off_c, 0, 67, 100
2, 117888, Note_on_c, 0, 77, 110
2, 117948, Note_off_c, 0, 77, 100
2, 117952, Note_on_c, 0, 68, 110
2, 118012, Note_off_c, 0, 68, 100
2, 118016, Note_on_c, 0, 65, 110
2, 118076, Note_off_c, 0, 65, 100
2, 118080, Note_on_c, 0, 77, 110
2, 118140, Note_off_c, 0, 77, 100
2, 118144, Note_on_c, 0, 68, 110
2, 118204, Note_off_c, 0, 68, 100
2, 118208, Note_on_c, 0, 65, 110
2, 118268, Note_off_c, 0, 65, 100
2, 118272, Note_on_c, 0, 77, 110
2, 118332, Note_off_c, 0, 77, 100
2, 118336, Note_on_c, 0, 68, 110
2, 118396, Note_off_c, 0, 68, 100
2, 118400, Note_on_c, 0, 65, 110
2, 118460, Note_off_c, 0, 65, 100
2, 118464, Note_on_c, 0, 77, 110
2, 118524, Note_off_c, 0, 77, 100
2, 118528, Note_on_c, 0, 68, 110
2, 118588, Note_off_c, 0, 68, 100
2, 118592, Note_on_c, 0, 65, 110
2, 118652, Note_off_c, 0, 65, 100
2, 118656, Note_on_c, 0, 77, 110
2, 118716, Note_off_c, 0, 77, 100
2, 118720, Note_on_c, 0, 69, 110
2, 118780, Note_off_c, 0, 69, 100
2, 118784, Note_on_c, 0, 65, 110
2, 118844, Note_off_c, 0, 65, 100
2, 118848, Note_on_c, 0, 75, 110
2, 118908, Note_off_c, 0, 75, 100
2, 118912, Note_on_c, 0, 69, 110
2, 118972, Note_off_c, 0, 69, 100
2, 118976, Note_on_c, 0, 65, 110
2, 119036, Note_off_c, 0, 65, 100
2, 119040, Note_on_c, 0, 75, 110
2, 119100, Note_off_c, 0, 75, 100
2, 119104, Note_on_c, 0, 69, 110
2, 119164, Note_off_c, 0, 69, 100
2, 119168, Note_on_c, 0, 65, 110
2, 119228, Note_off_c, 0, 65, 100
2, 119232, Note_on_c, 0, 75, 110
2, 119292, Note_off_c, 0, 75, 100
2, 119296, Note_on_c, 0, 69, 110
2, 119356, Note_off_c, 0, 69, 100
2, 119360, Note_on_c, 0, 65, 110
2, 119420, Note_off_c, 0, 65, 100
2, 119424, Note_on_c, 0, 75, 110
2, 119484, Note_off_c, 0, 75, 100
2, 119488, Note_on_c, 0, 70, 110
2, 119548, Note_off_c, 0, 70, 100
2, 119552, Note_on_c, 0, 65, 110
2, 119612, Note_off_c, 0, 65, 100
2, 119616, Note_on_c, 0, 74, 110
2, 119676, Note_off_c, 0, 74, 100
2, 119680, Note_on_c, 0, 70, 110
2, 119740, Note_off_c, 0, 70, 100
2, 119744, Note_on_c, 0, 65, 110
2, 119804, Note_off_c, 0, 65, 100
2, 119808, Note_on_c, 0, 74, 110
2, 119868, Note_off_c, 0, 74, 100
2, 119872, Note_on_c, 0, 70, 110
2, 119932, Note_off_c, 0, 70, 100
2, 119936, Note_on_c, 0, 65, 110
2, 119996, Note_off_c, 0, 65, 100
2, 120000, Note_on_c, 0, 74, 110
2, 120060, Note_off_c, 0, 74, 100
2, 120064, Note_on_c, 0, 70, 110
2, 120124, Note_off_c, 0, 70, 100
2, 120128, Note_on_c, 0, 65, 110
2, 120188, Note_off_c, 0, 65, 100
2, 120192, Note_on_c, 0, 74, 110
2, 120252, Note_off_c, 0, 74, 100
2, 120256, Note_on_c, 0, 70, 110
2, 120316, Note_off_c, 0, 70, 100
2, 120320, Note_on_c, 0, 65, 110
2, 120380, Note_off_c, 0, 65, 100
2, 120384, Note_on_c, 0, 74, 110
2, 120444, Note_off_c, 0, 74, 100
2, 120448, Note_on_c, 0, 70, 110
2, 120508, Note_off_c, 0, 70, 100
2, 120512, Note_on_c, 0, 65, 110
2, 120572, Note_off_c, 0, 65, 100
2, 120576, Note_on_c, 0, 74, 110
2, 120636, Note_off_c, 0, 74, 100
2, 120640, Note_on_c, 0, 70, 110
2, 120700, Note_off_c, 0, 70, 100
2, 120704, Note_on_c, 0, 65, 110
2, 120764, Note_off_c, 0, 65, 100
2, 120768, Note_on_c, 0, 74, 110
2, 120828, Note_off_c, 0, 74, 100
2, 120832, Note_on_c, 0, 70, 110
2, 120892, Note_off_c, 0, 70, 100
2, 120896, Note_on_c, 0, 65, 110
2, 120956, Note_off_c, 0, 65, 100
2, 120960, Note_on_c, 0, 74, 110
2, 121020, Note_off_c, 0, 74, 100
2, 121024, Note_on_c, 0, 70, 110
2, 121084, Note_off_c, 0, 70, 100
2, 121088, Note_on_c, 0, 65, 110
2, 121148, Note_off_c, 0, 65, 100
2, 121152, Note_on_c, 0, 77, 110
2, 121212, Note_off_c, 0, 77, 100
2, 121216, Note_on_c, 0, 74, 110
2, 121276, Note_off_c, 0, 74, 100
2, 121280, Note_on_c, 0, 70, 110
2, 121340, Note_off_c, 0, 70, 100
2, 121344, Note_on_c, 0, 77, 110
2, 121404, Note_off_c, 0, 77, 100
2, 121408, Note_on_c, 0, 74, 110
2, 121468, Note_off_c, 0, 74, 100
2, 121472, Note_on_c, 0, 70, 110
2, 121532, Note_off_c, 0, 70, 100
2, 121536, Note_on_c, 0, 77, 110
2, 121596, Note_off_c, 0, 77, 100
2, 121600, Note_on_c, 0, 74, 110
2, 121660, Note_off_c, 0, 74, 100
2, 121664, Note_on_c, 0, 70, 110
2, 121724, Note_off_c, 0, 70, 100
2, 121728, Note_on_c, 0, 77, 110
2, 121788, Note_off_c, 0, 77, 100
2, 121792, Note_on_c, 0, 74, 110
2, 121852, Note_off_c, 0, 74, 100
2, 121856, Note_on_c, 0, 70, 110
2, 121916, Note_off_c, 0, 70, 100
2, 121920, Note_on_c, 0, 80, 110
2, 121980, Note_off_c, 0, 80, 100
2, 121984, Note_on_c, 0, 74, 110
2, 122044, Note_off_c, 0, 74, 100
2, 122048, Note_on_c, 0, 70, 110
2, 122108, Note_off_c, 0, 70, 100
2, 122112, Note_on_c, 0, 80, 110
2, 122172, Note_off_c, 0, 80, 100
2, 122176, Note_on_c, 0, 74, 110
2, 122236, Note_off_c, 0, 74, 100
2, 122240, Note_on_c, 0, 70, 110
2, 122300, Note_off_c, 0, 70, 100
2, 122304, Note_on_c, 0, 80, 110
2, 122364, Note_off_c, 0, 80, 100
2, 122368, Note_on_c, 0, 74, 110
2, 122428, Note_off_c, 0, 74, 100
2, 122432, Note_on_c, 0, 70, 110
2, 122492, Note_off_c, 0, 70, 100
2, 122496, Note_on_c, 0, 80, 110
2, 122556, Note_off_c, 0, 80, 100
2, 122560, Note_on_c, 0, 74, 110
2, 122620, Note_off_c, 0, 74, 100
2, 122624, Note_on_c, 0, 70, 110
2, 122684, Note_off_c, 0, 70, 100
2, 122688, Note_on_c, 0, 77, 110
2, 122748, Note_off_c, 0, 77, 100
2, 122752, Note_on_c, 0, 74, 110
2, 122812, Note_off_c, 0, 74, 100
2, 122816, Note_on_c, 0, 70, 110
2, 122876, Note_off_c, 0, 70, 100
2, 122880, Note_on_c, 0, 77, 110
2, 122940, Note_off_c, 0, 77, 100
2, 122944, Note_on_c, 0, 74, 110
2, 123004, Note_off_c, 0, 74, 100
2, 123008, Note_on_c, 0, 70, 110
2, 123068, Note_off_c, 0, 70, 100
2, 123072, Note_on_c, 0, 77, 110
2, 123132, Note_off_c, 0, 77, 100
2, 123136, Note_on_c, 0, 74, 110
2, 123196, Note_off_c, 0, 74, 100
2, 123200, Note_on_c, 0, 70, 110
2, 123260, Note_off_c, 0, 70, 100
2, 123264, Note_on_c, 0, 77, 110
2, 123264, Note_on_c, 0, 74, 110
2, 123264, Note_on_c, 0, 70, 110
2, 124412, Note_off_c, 0, 70, 100
2, 124412, Note_off_c, 0, 74, 100
2, 124412, Note_off_c, 0, 77, 100
2, 124512, Note_on_c, 0, 70, 80
2, 124604, Note_off_c, 0, 70, 100
2, 124608, Note_on_c, 0, 82, 80
2, 124700, Note_off_c, 0, 82, 100
2, 124704, Note_on_c, 0, 78, 80
2, 124796, Note_off_c, 0, 78, 100
2, 124800, Note_on_c, 0, 79, 80
2, 124892, Note_off_c, 0, 79, 100
2, 124896, Note_on_c, 0, 74, 80
2, 124988, Note_off_c, 0, 74, 100
2, 124992, Note_on_c, 0, 75, 80
2, 125276, Note_off_c, 0, 75, 100
2, 125280, Note_on_c, 0, 70, 80
2, 125372, Note_off_c, 0, 70, 100
2, 125376, Note_on_c, 0, 82, 80
2, 125468, Note_off_c, 0, 82, 100
2, 125472, Note_on_c, 0, 78, 80
2, 125564, Note_off_c, 0, 78, 100
2, 125568, Note_on_c, 0, 79, 80
2, 125660, Note_off_c, 0, 79, 100
2, 125664, Note_on_c, 0, 74, 80
2, 125756, Note_off_c, 0, 74, 100
2, 125760, Note_on_c, 0, 75, 80
2, 126044, Note_off_c, 0, 75, 100
2, 126048, Note_on_c, 0, 72, 80
2, 126140, Note_off_c, 0, 72, 100
2, 126144, Note_on_c, 0, 84, 80
2, 126236, Note_off_c, 0, 84, 100
2, 126240, Note_on_c, 0, 79, 80
2, 126332, Note_off_c, 0, 79, 100
2, 126336, Note_on_c, 0, 80, 80
2, 126428, Note_off_c, 0, 80, 100
2, 126432, Note_on_c, 0, 76, 80
2, 126524, Note_off_c, 0, 76, 100
2, 126528, Note_on_c, 0, 77, 80
2, 126812, Note_off_c, 0, 77, 100
2, 126816, Note_on_c, 0, 72, 80
2, 126908, Note_off_c, 0, 72, 100
2, 126912, Note_on_c, 0, 84, 80
2, 127004, Note_off_c, 0, 84, 100
2, 127008, Note_on_c, 0, 79, 80
2, 127100, Note_off_c, 0, 79, 100
2, 127104, Note_on_c, 0, 80, 80
2, 127196, Note_off_c, 0, 80, 100
2, 127200, Note_on_c, 0, 76, 80
2, 127292, Note_off_c, 0, 76, 100
2, 127296, Note_on_c, 0, 77, 80
2, 127580, Note_off_c, 0, 77, 100
2, 127584, Note_on_c, 0, 77, 80
2, 127676, Note_off_c, 0, 77, 100
2, 127680, Note_on_c, 0, 89, 80
2, 127772, Note_off_c, 0, 89, 100
2, 127776, Note_on_c, 0, 89, 80
2, 127868, Note_off_c, 0, 89, 100
2, 127872, Note_on_c, 0, 89, 80
2, 128156, Note_off_c, 0, 89, 100
2, 128160, Note_on_c, 0, 87, 80
2, 128252, Note_off_c, 0, 87, 100
2, 128256, Note_on_c, 0, 86, 80
2, 128348, Note_off_c, 0, 86, 100
2, 128352, Note_on_c, 0, 84, 80
2, 128444, Note_off_c, 0, 84, 100
2, 128448, Note_on_c, 0, 82, 80
2, 128540, Note_off_c, 0, 82, 100
2, 128544, Note_on_c, 0, 80, 80
2, 128636, Note_off_c, 0, 80, 100
2, 128640, Note_on_c, 0, 79, 80
2, 128924, Note_off_c, 0, 79, 100
2, 128928, Note_on_c, 0, 77, 82
2, 129020, Note_off_c, 0, 77, 100
2, 129024, Note_on_c, 0, 75, 83
2, 129116, Note_off_c, 0, 75, 100
2, 129120, Note_on_c, 0, 74, 84
2, 129212, Note_off_c, 0, 74, 100
2, 129216, Note_on_c, 0, 72, 85
2, 129308, Note_off_c, 0, 72, 100
2, 129312, Note_on_c, 0, 70, 86
2, 129404, Note_off_c, 0, 70, 100
2, 129408, Note_on_c, 0, 69, 86
2, 129692, Note_off_c, 0, 69, 100
2, 129696, Note_on_c, 0, 67, 89
2, 129788, Note_off_c, 0, 67, 100
2, 129792, Note_on_c, 0, 66, 90
2, 129884, Note_off_c, 0, 66, 100
2, 129888, Note_on_c, 0, 63, 91
2, 129980, Note_off_c, 0, 63, 100
2, 129984, Note_on_c, 0, 62, 92
2, 130076, Note_off_c, 0, 62, 100
2, 130080, Note_on_c, 0, 60, 93
2, 130172, Note_off_c, 0, 60, 100
2, 130176, Note_on_c, 0, 58, 93
2, 130460, Note_off_c, 0, 58, 100
2, 130464, Note_on_c, 0, 57, 96
2, 130556, Note_off_c, 0, 57, 100
2, 130560, Note_on_c, 0, 55, 97
2, 130652, Note_off_c, 0, 55, 100
2, 130656, Note_on_c, 0, 57, 98
2, 130748, Note_off_c, 0, 57, 100
2, 130752, Note_on_c, 0, 58, 99
2, 130844, Note_off_c, 0, 58, 100
2, 130848, Note_on_c, 0, 61, 99
2, 130940, Note_off_c, 0, 61, 100
2, 130992, Note_on_c, 0, 62, 80
2, 131040, Note_on_c, 0, 64, 80
2, 131084, Note_off_c, 0, 62, 100
2, 131088, Note_on_c, 0, 66, 80
2, 131132, Note_off_c, 0, 64, 100
2, 131136, Note_on_c, 0, 67, 110
2, 131180, Note_off_c, 0, 66, 100
2, 131184, Note_on_c, 0, 69, 110
2, 131228, Note_off_c, 0, 67, 100
2, 131232, Note_on_c, 0, 71, 110
2, 131276, Note_off_c, 0, 69, 100
2, 131280, Note_on_c, 0, 73, 110
2, 131324, Note_off_c, 0, 71, 100
2, 131328, Note_on_c, 0, 74, 110
2, 131372, Note_off_c, 0, 73, 100
2, 131376, Note_on_c, 0, 76, 110
2, 131420, Note_off_c, 0, 74, 100
2, 131424, Note_on_c, 0, 78, 110
2, 131468, Note_off_c, 0, 76, 100
2, 131472, Note_on_c, 0, 79, 110
2, 131516, Note_off_c, 0, 78, 100
2, 131520, Note_on_c, 0, 81, 110
2, 131564, Note_off_c, 0, 79, 100
2, 131568, Note_on_c, 0, 74, 110
2, 131612, Note_off_c, 0, 81, 100
2, 131616, Note_on_c, 0, 76, 110
2, 131660, Note_off_c, 0, 74, 100
2, 131664, Note_on_c, 0, 78, 110
2, 131708, Note_off_c, 0, 76, 100
2, 131712, Note_on_c, 0, 79, 110
2, 131756, Note_off_c, 0, 78, 100
2, 131760, Note_on_c, 0, 81, 110
2, 131804, Note_off_c, 0, 79, 100
2, 131808, Note_on_c, 0, 82, 110
2, 131852, Note_off_c, 0, 81, 100
2, 131856, Note_on_c, 0, 84, 110
2, 131900, Note_off_c, 0, 82, 100
2, 131904, Note_on_c, 0, 86, 110
2, 131948, Note_off_c, 0, 84, 100
2, 131952, Note_on_c, 0, 87, 110
2, 131996, Note_off_c, 0, 86, 100
2, 132000, Note_on_c, 0, 86, 110
2, 132044, Note_off_c, 0, 87, 100
2, 132048, Note_on_c, 0, 84, 110
2, 132092, Note_off_c, 0, 86, 100
2, 132096, Note_on_c, 0, 82, 110
2, 132140, Note_off_c, 0, 84, 100
2, 132144, Note_on_c, 0, 84, 110
2, 132188, Note_off_c, 0, 82, 100
2, 132192, Note_on_c, 0, 82, 110
2, 132236, Note_off_c, 0, 84, 100
2, 132240, Note_on_c, 0, 81, 110
2, 132284, Note_off_c, 0, 82, 100
2, 132288, Note_on_c, 0, 79, 110
2, 132332, Note_off_c, 0, 81, 100
2, 132336, Note_on_c, 0, 82, 110
2, 132380, Note_off_c, 0, 79, 100
2, 132384, Note_on_c, 0, 81, 110
2, 132428, Note_off_c, 0, 82, 100
2, 132432, Note_on_c, 0, 79, 110
2, 132476, Note_off_c, 0, 81, 100
2, 132480, Note_on_c, 0, 78, 110
2, 132524, Note_off_c, 0, 79, 100
2, 132528, Note_on_c, 0, 62, 110
2, 132572, Note_off_c, 0, 78, 100
2, 132576, Note_on_c, 0, 64, 110
2, 132620, Note_off_c, 0, 62, 100
2, 132624, Note_on_c, 0, 66, 110
2, 132668, Note_off_c, 0, 64, 100
2, 132672, Note_on_c, 0, 67, 110
2, 132716, Note_off_c, 0, 66, 100
2, 132720, Note_on_c, 0, 69, 110
2, 132764, Note_off_c, 0, 67, 100
2, 132768, Note_on_c, 0, 71, 110
2, 132812, Note_off_c, 0, 69, 100
2, 132816, Note_on_c, 0, 73, 110
2, 132860, Note_off_c, 0, 71, 100
2, 132864, Note_on_c, 0, 74, 110
2, 132908, Note_off_c, 0, 73, 100
2, 132912, Note_on_c, 0, 76, 110
2, 132956, Note_off_c, 0, 74, 100
2, 132960, Note_on_c, 0, 78, 110
2, 133004, Note_off_c, 0, 76, 100
2, 133008, Note_on_c, 0, 79, 110
2, 133052, Note_off_c, 0, 78, 100
2, 133056, Note_on_c, 0, 81, 110
2, 133100, Note_off_c, 0, 79, 100
2, 133104, Note_on_c, 0, 74, 110
2, 133148, Note_off_c, 0, 81, 100
2, 133152, Note_on_c, 0, 76, 110
2, 133196, Note_off_c, 0, 74, 100
2, 133200, Note_on_c, 0, 78, 110
2, 133244, Note_off_c, 0, 76, 100
2, 133248, Note_on_c, 0, 79, 110
2, 133292, Note_off_c, 0, 78, 100
2, 133296, Note_on_c, 0, 81, 110
2, 133340, Note_off_c, 0, 79, 100
2, 133344, Note_on_c, 0, 82, 110
2, 133388, Note_off_c, 0, 81, 100
2, 133392, Note_on_c, 0, 84, 110
2, 133436, Note_off_c, 0, 82, 100
2, 133440, Note_on_c, 0, 86, 110
2, 133484, Note_off_c, 0, 84, 100
2, 133488, Note_on_c, 0, 87, 110
2, 133532, Note_off_c, 0, 86, 100
2, 133536, Note_on_c, 0, 86, 110
2, 133580, Note_off_c, 0, 87, 100
2, 133584, Note_on_c, 0, 84, 110
2, 133628, Note_off_c, 0, 86, 100
2, 133632, Note_on_c, 0, 82, 110
2, 133676, Note_off_c, 0, 84, 100
2, 133680, Note_on_c, 0, 84, 110
2, 133724, Note_off_c, 0, 82, 100
2, 133728, Note_on_c, 0, 82, 110
2, 133772, Note_off_c, 0, 84, 100
2, 133776, Note_on_c, 0, 81, 110
2, 133820, Note_off_c, 0, 82, 100
2, 133824, Note_on_c, 0, 79, 110
2, 133868, Note_off_c, 0, 81, 100
2, 133872, Note_on_c, 0, 82, 110
2, 133916, Note_off_c, 0, 79, 100
2, 133920, Note_on_c, 0, 81, 110
2, 133964, Note_off_c, 0, 82, 100
2, 133968, Note_on_c, 0, 79, 110
2, 134012, Note_off_c, 0, 81, 100
2, 134016, Note_on_c, 0, 78, 110
2, 134060, Note_off_c, 0, 79, 100
2, 134064, Note_on_c, 0, 62, 110
2, 134108, Note_off_c, 0, 78, 100
2, 134112, Note_on_c, 0, 64, 110
2, 134156, Note_off_c, 0, 62, 100
2, 134160, Note_on_c, 0, 66, 110
2, 134204, Note_off_c, 0, 64, 100
2, 134208, Note_on_c, 0, 67, 110
2, 134252, Note_off_c, 0, 66, 100
2, 134256, Note_on_c, 0, 69, 110
2, 134300, Note_off_c, 0, 67, 100
2, 134304, Note_on_c, 0, 71, 110
2, 134348, Note_off_c, 0, 69, 100
2, 134352, Note_on_c, 0, 73, 110
2, 134396, Note_off_c, 0, 71, 100
2, 134400, Note_on_c, 0, 74, 110
2, 134444, Note_off_c, 0, 73, 100
2, 134448, Note_on_c, 0, 76, 110
2, 134492, Note_off_c, 0, 74, 100
2, 134496, Note_on_c, 0, 78, 110
2, 134540, Note_off_c, 0, 76, 100
2, 134544, Note_on_c, 0, 79, 110
2, 134588, Note_off_c, 0, 78, 100
2, 134592, Note_on_c, 0, 81, 110
2, 134636, Note_off_c, 0, 79, 100
2, 134640, Note_on_c, 0, 74, 110
2, 134684, Note_off_c, 0, 81, 100
2, 134688, Note_on_c, 0, 76, 110
2, 134732, Note_off_c, 0, 74, 100
2, 134736, Note_on_c, 0, 78, 110
2, 134780, Note_off_c, 0, 76, 100
2, 134784, Note_on_c, 0, 79, 110
2, 134828, Note_off_c, 0, 78, 100
2, 134832, Note_on_c, 0, 81, 110
2, 134876, Note_off_c, 0, 79, 100
2, 134880, Note_on_c, 0, 82, 110
2, 134924, Note_off_c, 0, 81, 100
2, 134928, Note_on_c, 0, 84, 110
2, 134972, Note_off_c, 0, 82, 100
2, 134976, Note_on_c, 0, 86, 110
2, 135020, Note_off_c, 0, 84, 100
2, 135024, Note_on_c, 0, 87, 110
2, 135068, Note_off_c, 0, 86, 100
2, 135072, Note_on_c, 0, 86, 110
2, 135116, Note_off_c, 0, 87, 100
2, 135120, Note_on_c, 0, 84, 110
2, 135164, Note_off_c, 0, 86, 100
2, 135168, Note_on_c, 0, 82, 110
2, 135212, Note_off_c, 0, 84, 100
2, 135216, Note_on_c, 0, 84, 110
2, 135260, Note_off_c, 0, 82, 100
2, 135264, Note_on_c, 0, 82, 110
2, 135308, Note_off_c, 0, 84, 100
2, 135312, Note_on_c, 0, 81, 110
2, 135356, Note_off_c, 0, 82, 100
2, 135360, Note_on_c, 0, 79, 110
2, 135404, Note_off_c, 0, 81, 100
2, 135408, Note_on_c, 0, 82, 110
2, 135452, Note_off_c, 0, 79, 100
2, 135456, Note_on_c, 0, 81, 110
2, 135500, Note_off_c, 0, 82, 100
2, 135504, Note_on_c, 0, 79, 100
2, 135548, Note_off_c, 0, 81, 100
2, 135552, Note_on_c, 0, 78, 100
2, 135596, Note_off_c, 0, 79, 100
2, 135600, Note_on_c, 0, 81, 99
2, 135644, Note_off_c, 0, 78, 100
2, 135648, Note_on_c, 0, 79, 99
2, 135692, Note_off_c, 0, 81, 100
2, 135696, Note_on_c, 0, 78, 98
2, 135740, Note_off_c, 0, 79, 100
2, 135744, Note_on_c, 0, 79, 97
2, 135788, Note_off_c, 0, 78, 100
2, 135792, Note_on_c, 0, 82, 97
2, 135836, Note_off_c, 0, 79, 100
2, 135840, Note_on_c, 0, 81, 96
2, 135884, Note_off_c, 0, 82, 100
2, 135888, Note_on_c, 0, 79, 95
2, 135932, Note_off_c, 0, 81, 100
2, 135936, Note_on_c, 0, 78, 95
2, 135980, Note_off_c, 0, 79, 100
2, 135984, Note_on_c, 0, 81, 94
2, 136028, Note_off_c, 0, 78, 100
2, 136032, Note_on_c, 0, 79, 93
2, 136076, Note_off_c, 0, 81, 100
2, 136080, Note_on_c, 0, 78, 93
2, 136124, Note_off_c, 0, 79, 100
2, 136128, Note_on_c, 0, 79, 92
2, 136172, Note_off_c, 0, 78, 100
2, 136176, Note_on_c, 0, 82, 91
2, 136220, Note_off_c, 0, 79, 100
2, 136224, Note_on_c, 0, 81, 91
2, 136268, Note_off_c, 0, 82, 100
2, 136272, Note_on_c, 0, 79, 90
2, 136316, Note_off_c, 0, 81, 100
2, 136320, Note_on_c, 0, 78, 90
2, 136364, Note_off_c, 0, 79, 100
2, 136368, Note_on_c, 0, 81, 89
2, 136412, Note_off_c, 0, 78, 100
2, 136416, Note_on_c, 0, 79, 88
2, 136460, Note_off_c, 0, 81, 100
2, 136464, Note_on_c, 0, 78, 88
2, 136508, Note_off_c, 0, 79, 100
2, 136512, Note_on_c, 0, 79, 87
2, 136556, Note_off_c, 0, 78, 100
2, 136560, Note_on_c, 0, 82, 86
2, 136604, Note_off_c, 0, 79, 100
2, 136608, Note_on_c, 0, 81, 86
2, 136652, Note_off_c, 0, 82, 100
2, 136656, Note_on_c, 0, 79, 85
2, 136700, Note_off_c, 0, 81, 100
2, 136704, Note_on_c, 0, 78, 84
2, 136748, Note_off_c, 0, 79, 100
2, 136752, Note_on_c, 0, 81, 84
2, 136796, Note_off_c, 0, 78, 100
2, 136800, Note_on_c, 0, 79, 83
2, 136844, Note_off_c, 0, 81, 100
2, 136848, Note_on_c, 0, 78, 82
2, 136892, Note_off_c, 0, 79, 100
2, 136896, Note_on_c, 0, 79, 82
2, 136940, Note_off_c, 0, 78, 100
2, 136944, Note_on_c, 0, 82, 81
2, 136988, Note_off_c, 0, 79, 100
2, 136992, Note_on_c, 0, 81, 81
2, 137036, Note_off_c, 0, 82, 100
2, 137040, Note_on_c, 0, 79, 70
2, 137084, Note_off_c, 0, 81, 100
2, 137088, Note_on_c, 0, 78, 70
2, 137132, Note_off_c, 0, 79, 100
2, 137276, Note_off_c, 0, 78, 100
2, 137568, Note_on_c, 0, 56, 70
2, 137660, Note_off_c, 0, 56, 100
2, 137664, Note_on_c, 0, 57, 70
2, 137756, Note_off_c, 0, 57, 100
2, 137760, Note_on_c, 0, 53, 70
2, 137852, Note_off_c, 0, 53, 100
2, 137856, Note_on_c, 0, 54, 70
2, 138044, Note_off_c, 0, 54, 100
2, 138336, Note_on_c, 0, 80, 70
2, 138428, Note_off_c, 0, 80, 100
2, 138432, Note_on_c, 0, 81, 70
2, 138524, Note_off_c, 0, 81, 100
2, 138528, Note_on_c, 0, 77, 70
2, 138620, Note_off_c, 0, 77, 100
2, 138624, Note_on_c, 0, 78, 70
2, 138812, Note_off_c, 0, 78, 100
2, 139104, Note_on_c, 0, 59, 70
2, 139196, Note_off_c, 0, 59, 100
2, 139200, Note_on_c, 0, 60, 70
2, 139292, Note_off_c, 0, 60, 100
2, 139296, Note_on_c, 0, 56, 70
2, 139388, Note_off_c, 0, 56, 100
2, 139392, Note_on_c, 0, 57, 70
2, 139580, Note_off_c, 0, 57, 100
2, 139872, Note_on_c, 0, 83, 71
2, 139964, Note_off_c, 0, 83, 100
2, 139968, Note_on_c, 0, 84, 73
2, 140060, Note_off_c, 0, 84, 100
2, 140064, Note_on_c, 0, 80, 74
2, 140156, Note_off_c, 0, 80, 100
2, 140160, Note_on_c, 0, 81, 76
2, 140252, Note_off_c, 0, 81, 100
2, 140256, Note_on_c, 0, 59, 77
2, 140348, Note_off_c, 0, 59, 100
2, 140352, Note_on_c, 0, 60, 79
2, 140444, Note_off_c, 0, 60, 100
2, 140448, Note_on_c, 0, 56, 80
2, 140540, Note_off_c, 0, 56, 100
2, 140544, Note_on_c, 0, 57, 82
2, 140636, Note_off_c, 0, 57, 100
2, 140640, Note_on_c, 0, 83, 83
2, 140732, Note_off_c, 0, 83, 100
2, 140736, Note_on_c, 0, 84, 85
2, 140828, Note_off_c, 0, 84, 100
2, 140832, Note_on_c, 0, 80, 86
2, 140924, Note_off_c, 0, 80, 100
2, 140928, Note_on_c, 0, 81, 88
2, 141020, Note_off_c, 0, 81, 100
2, 141024, Note_on_c, 0, 59, 89
2, 141116, Note_off_c, 0, 59, 100
2, 141120, Note_on_c, 0, 60, 91
2, 141212, Note_off_c, 0, 60, 100
2, 141216, Note_on_c, 0, 56, 92
2, 141308, Note_off_c, 0, 56, 100
2, 141312, Note_on_c, 0, 57, 94
2, 141404, Note_off_c, 0, 57, 100
2, 141408, Note_on_c, 0, 83, 95
2, 141500, Note_off_c, 0, 83, 100
2, 141504, Note_on_c, 0, 84, 97
2, 141596, Note_off_c, 0, 84, 100
2, 141600, Note_on_c, 0, 80, 98
2, 141692, Note_off_c, 0, 80, 100
2, 141696, Note_on_c, 0, 81, 110
2, 141788, Note_off_c, 0, 81, 100
2, 141792, Note_on_c, 0, 87, 110
2, 141884, Note_off_c, 0, 87, 100
2, 141888, Note_on_c, 0, 88, 110
2, 141980, Note_off_c, 0, 88, 100
2, 141984, Note_on_c, 0, 83, 110
2, 142076, Note_off_c, 0, 83, 100
2, 142080, Note_on_c, 0, 84, 110
2, 142172, Note_off_c, 0, 84, 100
2, 142176, Note_on_c, 0, 87, 110
2, 142268, Note_off_c, 0, 87, 100
2, 142272, Note_on_c, 0, 88, 110
2, 142364, Note_off_c, 0, 88, 100
2, 142368, Note_on_c, 0, 83, 110
2, 142460, Note_off_c, 0, 83, 100
2, 142464, Note_on_c, 0, 84, 120
2, 142556, Note_off_c, 0, 84, 100
2, 142560, Note_on_c, 0, 87, 120
2, 142652, Note_off_c, 0, 87, 100
2, 142656, Note_on_c, 0, 88, 120
2, 142748, Note_off_c, 0, 88, 100
2, 142752, Note_on_c, 0, 83, 120
2, 142844, Note_off_c, 0, 83, 100
2, 142848, Note_on_c, 0, 84, 120
2, 142940, Note_off_c, 0, 84, 100
2, 142944, Note_on_c, 0, 80, 120
2, 143036, Note_off_c, 0, 80, 100
2, 143040, Note_on_c, 0, 81, 120
2, 143132, Note_off_c, 0, 81, 100
2, 143136, Note_on_c, 0, 77, 120
2, 143228, Note_off_c, 0, 77, 100
2, 143232, Note_on_c, 0, 78, 120
2, 143324, Note_off_c, 0, 78, 100
2, 143328, Note_on_c, 0, 75, 120
2, 143420, Note_off_c, 0, 75, 100
2, 143424, Note_on_c, 0, 76, 120
2, 143516, Note_off_c, 0, 76, 100
2, 143520, Note_on_c, 0, 71, 120
2, 143612, Note_off_c, 0, 71, 100
2, 143616, Note_on_c, 0, 72, 120
2, 143708, Note_off_c, 0, 72, 100
2, 143712, Note_on_c, 0, 68, 120
2, 143804, Note_off_c, 0, 68, 100
2, 143808, Note_on_c, 0, 69, 120
2, 143900, Note_off_c, 0, 69, 100
2, 143904, Note_on_c, 0, 70, 120
2, 143996, Note_off_c, 0, 70, 100
2, 144000, Note_on_c, 0, 71, 120
2, 144092, Note_off_c, 0, 71, 100
2, 144096, Note_on_c, 0, 72, 120
2, 144188, Note_off_c, 0, 72, 100
2, 144192, Note_on_c, 0, 73, 120
2, 145244, Note_off_c, 0, 73, 100
2, 145248, Note_on_c, 0, 62, 80
2, 145340, Note_off_c, 0, 62, 100
2, 145344, Note_on_c, 0, 74, 80
2, 145436, Note_off_c, 0, 74, 100
2, 145440, Note_on_c, 0, 70, 80
2, 145532, Note_off_c, 0, 70, 100
2, 145536, Note_on_c, 0, 71, 80
2, 145628, Note_off_c, 0, 71, 100
2, 145632, Note_on_c, 0, 66, 80
2, 145724, Note_off_c, 0, 66, 100
2, 145728, Note_on_c, 0, 67, 80
2, 146012, Note_off_c, 0, 67, 100
2, 146016, Note_on_c, 0, 62, 80
2, 146108, Note_off_c, 0, 62, 100
2, 146112, Note_on_c, 0, 74, 80
2, 146204, Note_off_c, 0, 74, 100
2, 146208, Note_on_c, 0, 70, 80
2, 146300, Note_off_c, 0, 70, 100
2, 146304, Note_on_c, 0, 71, 80
2, 146396, Note_off_c, 0, 71, 100
2, 146400, Note_on_c, 0, 66, 80
2, 146492, Note_off_c, 0, 66, 100
2, 146496, Note_on_c, 0, 67, 80
2, 146780, Note_off_c, 0, 67, 100
2, 146784, Note_on_c, 0, 64, 80
2, 146876, Note_off_c, 0, 64, 100
2, 146880, Note_on_c, 0, 76, 80
2, 146972, Note_off_c, 0, 76, 100
2, 146976, Note_on_c, 0, 71, 80
2, 147068, Note_off_c, 0, 71, 100
2, 147072, Note_on_c, 0, 72, 80
2, 147164, Note_off_c, 0, 72, 100
2, 147168, Note_on_c, 0, 68, 80
2, 147260, Note_off_c, 0, 68, 100
2, 147264, Note_on_c, 0, 69, 80
2, 147548, Note_off_c, 0, 69, 100
2, 147552, Note_on_c, 0, 64, 80
2, 147644, Note_off_c, 0, 64, 100
2, 147648, Note_on_c, 0, 76, 80
2, 147740, Note_off_c, 0, 76, 100
2, 147744, Note_on_c, 0, 71, 80
2, 147836, Note_off_c, 0, 71, 100
2, 147840, Note_on_c, 0, 72, 80
2, 147932, Note_off_c, 0, 72, 100
2, 147936, Note_on_c, 0, 68, 80
2, 148028, Note_off_c, 0, 68, 100
2, 148032, Note_on_c, 0, 69, 80
2, 148316, Note_off_c, 0, 69, 100
2, 148320, Note_on_c, 0, 69, 80
2, 148412, Note_off_c, 0, 69, 100
2, 148416, Note_on_c, 0, 84, 80
2, 148508, Note_off_c, 0, 84, 100
2, 148512, Note_on_c, 0, 83, 80
2, 148604, Note_off_c, 0, 83, 100
2, 148608, Note_on_c, 0, 81, 80
2, 148892, Note_off_c, 0, 81, 100
2, 148896, Note_on_c, 0, 79, 80
2, 148988, Note_off_c, 0, 79, 100
2, 148992, Note_on_c, 0, 78, 80
2, 149084, Note_off_c, 0, 78, 100
2, 149088, Note_on_c, 0, 76, 80
2, 149180, Note_off_c, 0, 76, 100
2, 149184, Note_on_c, 0, 74, 80
2, 149276, Note_off_c, 0, 74, 100
2, 149280, Note_on_c, 0, 72, 80
2, 149372, Note_off_c, 0, 72, 100
2, 149376, Note_on_c, 0, 74, 80
2, 149396, Note_off_c, 0, 74, 100
2, 149400, Note_on_c, 0, 72, 80
2, 149468, Note_off_c, 0, 72, 100
2, 149472, Note_on_c, 0, 71, 80
2, 149660, Note_off_c, 0, 71, 100
2, 149664, Note_on_c, 0, 79, 80
2, 149756, Note_off_c, 0, 79, 100
2, 149760, Note_on_c, 0, 79, 80
2, 149852, Note_off_c, 0, 79, 100
2, 149856, Note_on_c, 0, 69, 80
2, 150044, Note_off_c, 0, 69, 100
2, 150048, Note_on_c, 0, 76, 80
2, 150140, Note_off_c, 0, 76, 100
2, 150144, Note_on_c, 0, 76, 80
2, 150236, Note_off_c, 0, 76, 100
2, 150240, Note_on_c, 0, 67, 80
2, 150428, Note_off_c, 0, 67, 100
2, 150432, Note_on_c, 0, 74, 80
2, 150524, Note_off_c, 0, 74, 100
2, 150528, Note_on_c, 0, 74, 80
2, 150620, Note_off_c, 0, 74, 100
2, 150624, Note_on_c, 0, 60, 80
2, 150812, Note_off_c, 0, 60, 100
2, 150816, Note_on_c, 0, 66, 80
2, 150908, Note_off_c, 0, 66, 100
2, 150912, Note_on_c, 0, 67, 80
2, 150912, Note_on_c, 0, 59, 80
2, 151292, Note_off_c, 0, 67, 100
2, 151292, Note_off_c, 0, 59, 100
2, 151488, Note_on_c, 0, 74, 80
2, 151676, Note_off_c, 0, 74, 100
2, 151680, Note_on_c, 0, 74, 84
2, 151868, Note_off_c, 0, 74, 100
2, 151872, Note_on_c, 0, 74, 88
2, 152060, Note_off_c, 0, 74, 100
2, 152064, Note_on_c, 0, 74, 93
2, 152252, Note_off_c, 0, 74, 100
2, 152256, Note_on_c, 0, 74, 97
2, 152304, Note_on_c, 0, 76, 98
2, 152348, Note_off_c, 0, 74, 100
2, 152352, Note_on_c, 0, 73, 99
2, 152396, Note_off_c, 0, 76, 100
2, 152400, Note_on_c, 0, 74, 100
2, 152444, Note_off_c, 0, 73, 100
2, 152448, Note_on_c, 0, 76, 100
2, 152492, Note_off_c, 0, 74, 100
2, 152828, Note_off_c, 0, 76, 100
2, 152832, Note_on_c, 0, 74, 80
2, 153020, Note_off_c, 0, 74, 100
2, 153504, Note_on_c, 0, 74, 80
2, 153596, Note_off_c, 0, 74, 100
2, 153600, Note_on_c, 0, 74, 84
2, 153692, Note_off_c, 0, 74, 100
2, 153696, Note_on_c, 0, 74, 89
2, 153788, Note_off_c, 0, 74, 100
2, 153792, Note_on_c, 0, 74, 94
2, 153884, Note_off_c, 0, 74, 100
2, 153888, Note_on_c, 0, 74, 99
2, 153980, Note_off_c, 0, 74, 100
2, 153984, Note_on_c, 0, 76, 100
2, 154364, Note_off_c, 0, 76, 100
2, 154368, Note_on_c, 0, 74, 80
2, 154556, Note_off_c, 0, 74, 100
2, 154944, Note_on_c, 0, 79, 70
2, 155132, Note_off_c, 0, 79, 100
2, 155136, Note_on_c, 0, 79, 70
2, 155324, Note_off_c, 0, 79, 100
2, 155328, Note_on_c, 0, 79, 70
2, 155376, Note_on_c, 0, 81, 70
2, 155420, Note_off_c, 0, 79, 100
2, 155424, Note_on_c, 0, 78, 70
2, 155468, Note_off_c, 0, 81, 100
2, 155472, Note_on_c, 0, 79, 70
2, 155516, Note_off_c, 0, 78, 100
2, 155516, Note_off_c, 0, 79, 100
2, 155520, Note_on_c, 0, 81, 80
2, 155900, Note_off_c, 0, 81, 100
2, 155904, Note_on_c, 0, 79, 80
2, 156092, Note_off_c, 0, 79, 100
2, 156576, Note_on_c, 0, 79, 83
2, 156668, Note_off_c, 0, 79, 100
2, 156672, Note_on_c, 0, 79, 87
2, 156764, Note_off_c, 0, 79, 100
2, 156768, Note_on_c, 0, 79, 91
2, 156860, Note_off_c, 0, 79, 100
2, 156864, Note_on_c, 0, 79, 95
2, 156956, Note_off_c, 0, 79, 100
2, 156960, Note_on_c, 0, 79, 99
2, 157052, Note_off_c, 0, 79, 100
2, 157056, Note_on_c, 0, 81, 80
2, 157244, Note_off_c, 0, 81, 100
2, 157248, Note_on_c, 0, 79, 80
2, 157532, Note_off_c, 0, 79, 100
2, 157536, Note_on_c, 0, 81, 80
2, 157580, Note_off_c, 0, 81, 100
2, 157584, Note_on_c, 0, 79, 80
2, 157628, Note_off_c, 0, 79, 100
2, 157632, Note_on_c, 0, 77, 80
2, 157724, Note_off_c, 0, 77, 100
2, 157728, Note_on_c, 0, 76, 80
2, 157820, Note_off_c, 0, 76, 100
2, 157824, Note_on_c, 0, 76, 80
2, 158012, Note_off_c, 0, 76, 100
2, 158016, Note_on_c, 0, 74, 80
2, 158396, Note_off_c, 0, 74, 100
2, 158400, Note_on_c, 0, 72, 80
2, 158588, Note_off_c, 0, 72, 100
2, 158592, Note_on_c, 0, 71, 80
2, 158624, Note_on_c, 0, 72, 80
2, 158652, Note_off_c, 0, 71, 100
2, 158656, Note_on_c, 0, 74, 80
2, 158684, Note_off_c, 0, 72, 100
2, 158688, Note_on_c, 0, 72, 80
2, 158716, Note_off_c, 0, 74, 100
2, 158780, Note_off_c, 0, 72, 100
2, 158784, Note_on_c, 0, 71, 80
2, 159164, Note_off_c, 0, 71, 100
2, 159168, Note_on_c, 0, 79, 80
2, 159548, Note_off_c, 0, 79, 100
2, 159552, Note_on_c, 0, 78, 80
2, 159932, Note_off_c, 0, 78, 100
2, 159936, Note_on_c, 0, 76, 80
2, 160124, Note_off_c, 0, 76, 100
2, 160128, Note_on_c, 0, 74, 80
2, 160160, Note_on_c, 0, 76, 80
2, 160188, Note_off_c, 0, 74, 100
2, 160192, Note_on_c, 0, 78, 80
2, 160220, Note_off_c, 0, 76, 100
2, 160224, Note_on_c, 0, 76, 80
2, 160252, Note_off_c, 0, 78, 100
2, 160316, Note_off_c, 0, 76, 100
2, 160320, Note_on_c, 0, 74, 80
2, 160700, Note_off_c, 0, 74, 100
2, 160704, Note_on_c, 0, 83, 80
2, 161084, Note_off_c, 0, 83, 100
2, 161088, Note_on_c, 0, 81, 80
2, 161468, Note_off_c, 0, 81, 100
2, 161472, Note_on_c, 0, 79, 80
2, 161660, Note_off_c, 0, 79, 100
2, 161664, Note_on_c, 0, 79, 80
2, 161852, Note_off_c, 0, 79, 100
2, 161856, Note_on_c, 0, 78, 80
2, 162236, Note_off_c, 0, 78, 100
2, 162240, Note_on_c, 0, 76, 80
2, 162428, Note_off_c, 0, 76, 100
2, 162432, Note_on_c, 0, 76, 80
2, 162620, Note_off_c, 0, 76, 100
2, 162624, Note_on_c, 0, 74, 80
2, 162812, Note_off_c, 0, 74, 100
2, 162880, Note_on_c, 0, 79, 80
2, 162940, Note_off_c, 0, 79, 100
2, 162944, Note_on_c, 0, 81, 80
2, 163004, Note_off_c, 0, 81, 100
2, 163008, Note_on_c, 0, 83, 80
2, 163068, Note_off_c, 0, 83, 100
2, 163072, Note_on_c, 0, 81, 80
2, 163132, Note_off_c, 0, 81, 100
2, 163136, Note_on_c, 0, 79, 80
2, 163196, Note_off_c, 0, 79, 100
2, 163200, Note_on_c, 0, 79, 80
2, 163388, Note_off_c, 0, 79, 100
2, 163392, Note_on_c, 0, 78, 80
2, 163580, Note_off_c, 0, 78, 100
2, 163648, Note_on_c, 0, 76, 80
2, 163708, Note_off_c, 0, 76, 100
2, 163712, Note_on_c, 0, 78, 80
2, 163772, Note_off_c, 0, 78, 100
2, 163776, Note_on_c, 0, 79, 80
2, 163836, Note_off_c, 0, 79, 100
2, 163840, Note_on_c, 0, 78, 80
2, 163900, Note_off_c, 0, 78, 100
2, 163904, Note_on_c, 0, 76, 80
2, 163964, Note_off_c, 0, 76, 100
2, 163968, Note_on_c, 0, 76, 80
2, 164156, Note_off_c, 0, 76, 100
2, 164160, Note_on_c, 0, 74, 80
2, 164348, Note_off_c, 0, 74, 100
2, 164416, Note_on_c, 0, 79, 80
2, 164476, Note_off_c, 0, 79, 100
2, 164480, Note_on_c, 0, 81, 80
2, 164540, Note_off_c, 0, 81, 100
2, 164544, Note_on_c, 0, 83, 80
2, 164604, Note_off_c, 0, 83, 100
2, 164608, Note_on_c, 0, 81, 80
2, 164668, Note_off_c, 0, 81, 100
2, 164672, Note_on_c, 0, 79, 80
2, 164732, Note_off_c, 0, 79, 100
2, 164736, Note_on_c, 0, 79, 80
2, 164796, Note_off_c, 0, 79, 100
2, 164800, Note_on_c, 0, 78, 80
2, 164860, Note_off_c, 0, 78, 100
2, 164864, Note_on_c, 0, 79, 80
2, 164924, Note_off_c, 0, 79, 100
2, 164928, Note_on_c, 0, 81, 80
2, 164988, Note_off_c, 0, 81, 100
2, 164992, Note_on_c, 0, 79, 80
2, 165052, Note_off_c, 0, 79, 100
2, 165056, Note_on_c, 0, 78, 80
2, 165116, Note_off_c, 0, 78, 100
2, 165120, Note_on_c, 0, 78, 80
2, 165180, Note_off_c, 0, 78, 100
2, 165184, Note_on_c, 0, 76, 80
2, 165244, Note_off_c, 0, 76, 100
2, 165248, Note_on_c, 0, 78, 80
2, 165308, Note_off_c, 0, 78, 100
2, 165312, Note_on_c, 0, 79, 80
2, 165372, Note_off_c, 0, 79, 100
2, 165376, Note_on_c, 0, 78, 80
2, 165436, Note_off_c, 0, 78, 100
2, 165440, Note_on_c, 0, 76, 80
2, 165500, Note_off_c, 0, 76, 100
2, 165504, Note_on_c, 0, 76, 80
2, 165564, Note_off_c, 0, 76, 100
2, 165568, Note_on_c, 0, 74, 80
2, 165628, Note_off_c, 0, 74, 100
2, 165632, Note_on_c, 0, 73, 80
2, 165692, Note_off_c, 0, 73, 100
2, 165696, Note_on_c, 0, 74, 80
2, 165756, Note_off_c, 0, 74, 100
2, 165760, Note_on_c, 0, 76, 80
2, 165820, Note_off_c, 0, 76, 100
2, 165824, Note_on_c, 0, 78, 80
2, 165884, Note_off_c, 0, 78, 100
2, 165888, Note_on_c, 0, 79, 80
2, 165948, Note_off_c, 0, 79, 100
2, 165952, Note_on_c, 0, 80, 80
2, 166012, Note_off_c, 0, 80, 100
2, 166016, Note_on_c, 0, 81, 80
2, 166076, Note_off_c, 0, 81, 100
2, 166080, Note_on_c, 0, 82, 80
2, 166128, Note_on_c, 0, 83, 80
2, 166172, Note_off_c, 0, 82, 100
2, 166176, Note_on_c, 0, 84, 80
2, 166220, Note_off_c, 0, 83, 100
2, 166224, Note_on_c, 0, 85, 80
2, 166268, Note_off_c, 0, 84, 100
2, 166268, Note_off_c, 0, 85, 100
2, 166272, Note_on_c, 0, 86, 80
2, 166460, Note_off_c, 0, 86, 100
2, 166464, Note_on_c, 0, 86, 80
2, 166652, Note_off_c, 0, 86, 100
2, 166656, Note_on_c, 0, 86, 80
2, 166844, Note_off_c, 0, 86, 100
2, 166848, Note_on_c, 0, 86, 80
2, 167036, Note_off_c, 0, 86, 100
2, 167040, Note_on_c, 0, 86, 80
2, 167040, Note_on_c, 0, 83, 80
2, 167324, Note_off_c, 0, 86, 100
2, 167324, Note_off_c, 0, 83, 100
2, 167328, Note_on_c, 0, 85, 80
2, 167328, Note_on_c, 0, 82, 80
2, 167420, Note_off_c, 0, 85, 100
2, 167420, Note_off_c, 0, 82, 100
2, 167424, Note_on_c, 0, 86, 80
2, 167424, Note_on_c, 0, 83, 80
2, 167708, Note_off_c, 0, 86, 100
2, 167708, Note_off_c, 0, 83, 100
2, 167712, Note_on_c, 0, 85, 80
2, 167712, Note_on_c, 0, 82, 80
2, 167804, Note_off_c, 0, 85, 100
2, 167804, Note_off_c, 0, 82, 100
2, 167808, Note_on_c, 0, 86, 80
2, 167808, Note_on_c, 0, 83, 80
2, 168092, Note_off_c, 0, 86, 100
2, 168092, Note_off_c, 0, 83, 100
2, 168096, Note_on_c, 0, 84, 80
2, 168096, Note_on_c, 0, 81, 80
2, 168188, Note_off_c, 0, 84, 100
2, 168188, Note_off_c, 0, 81, 100
2, 168192, Note_on_c, 0, 84, 80
2, 168192, Note_on_c, 0, 81, 80
2, 168284, Note_off_c, 0, 84, 100
2, 168284, Note_off_c, 0, 81, 100
2, 168288, Note_on_c, 0, 83, 80
2, 168288, Note_on_c, 0, 79, 80
2, 168380, Note_off_c, 0, 83, 100
2, 168380, Note_off_c, 0, 79, 100
2, 168384, Note_on_c, 0, 83, 80
2, 168384, Note_on_c, 0, 79, 80
2, 168476, Note_off_c, 0, 83, 100
2, 168476, Note_off_c, 0, 79, 100
2, 168480, Note_on_c, 0, 81, 80
2, 168480, Note_on_c, 0, 78, 80
2, 168572, Note_off_c, 0, 81, 100
2, 168572, Note_off_c, 0, 78, 100
2, 168576, Note_on_c, 0, 81, 80
2, 168576, Note_on_c, 0, 78, 80
2, 168668, Note_off_c, 0, 81, 100
2, 168668, Note_off_c, 0, 78, 100
2, 168672, Note_on_c, 0, 79, 80
2, 168672, Note_on_c, 0, 76, 80
2, 168764, Note_off_c, 0, 79, 100
2, 168764, Note_off_c, 0, 76, 100
2, 168768, Note_on_c, 0, 79, 80
2, 168768, Note_on_c, 0, 76, 80
2, 168860, Note_off_c, 0, 79, 100
2, 168860, Note_off_c, 0, 76, 100
2, 168864, Note_on_c, 0, 78, 80
2, 168864, Note_on_c, 0, 74, 80
2, 168956, Note_off_c, 0, 78, 100
2, 168956, Note_off_c, 0, 74, 100
2, 168960, Note_on_c, 0, 78, 80
2, 168960, Note_on_c, 0, 74, 80
2, 169052, Note_off_c, 0, 78, 100
2, 169052, Note_off_c, 0, 74, 100
2, 169056, Note_on_c, 0, 76, 80
2, 169056, Note_on_c, 0, 72, 80
2, 169148, Note_off_c, 0, 76, 100
2, 169148, Note_off_c, 0, 72, 100
2, 169152, Note_on_c, 0, 76, 80
2, 169152, Note_on_c, 0, 72, 80
2, 169244, Note_off_c, 0, 76, 100
2, 169244, Note_off_c, 0, 72, 100
2, 169248, Note_on_c, 0, 74, 80
2, 169248, Note_on_c, 0, 71, 80
2, 169340, Note_off_c, 0, 74, 100
2, 169340, Note_off_c, 0, 71, 100
2, 169344, Note_on_c, 0, 71, 80
2, 169344, Note_on_c, 0, 68, 80
2, 169724, Note_off_c, 0, 71, 100
2, 169724, Note_off_c, 0, 68, 100
2, 169728, Note_on_c, 0, 72, 80
2, 169728, Note_on_c, 0, 69, 80
2, 169916, Note_off_c, 0, 72, 100
2, 169916, Note_off_c, 0, 69, 100
2, 170112, Note_on_c, 0, 81, 80
2, 170112, Note_on_c, 0, 84, 80
2, 170396, Note_off_c, 0, 81, 100
2, 170396, Note_off_c, 0, 84, 100
2, 170400, Note_on_c, 0, 83, 80
2, 170400, Note_on_c, 0, 80, 80
2, 170492, Note_off_c, 0, 83, 100
2, 170492, Note_off_c, 0, 80, 100
2, 170496, Note_on_c, 0, 81, 80
2, 170496, Note_on_c, 0, 84, 80
2, 170780, Note_off_c, 0, 81, 100
2, 170780, Note_off_c, 0, 84, 100
2, 170784, Note_on_c, 0, 83, 80
2, 170784, Note_on_c, 0, 80, 80
2, 170876, Note_off_c, 0, 83, 100
2, 170876, Note_off_c, 0, 80, 100
2, 170880, Note_on_c, 0, 81, 80
2, 170880, Note_on_c, 0, 84, 80
2, 171164, Note_off_c, 0, 81, 100
2, 171164, Note_off_c, 0, 84, 100
2, 171168, Note_on_c, 0, 83, 80
2, 171168, Note_on_c, 0, 79, 80
2, 171260, Note_off_c, 0, 83, 100
2, 171260, Note_off_c, 0, 79, 100
2, 171264, Note_on_c, 0, 83, 80
2, 171264, Note_on_c, 0, 79, 80
2, 171356, Note_off_c, 0, 83, 100
2, 171356, Note_off_c, 0, 79, 100
2, 171360, Note_on_c, 0, 81, 80
2, 171360, Note_on_c, 0, 78, 80
2, 171452, Note_off_c, 0, 81, 100
2, 171452, Note_off_c, 0, 78, 100
2, 171456, Note_on_c, 0, 81, 80
2, 171456, Note_on_c, 0, 78, 80
2, 171548, Note_off_c, 0, 81, 100
2, 171548, Note_off_c, 0, 78, 100
2, 171552, Note_on_c, 0, 79, 80
2, 171552, Note_on_c, 0, 76, 80
2, 171644, Note_off_c, 0, 79, 100
2, 171644, Note_off_c, 0, 76, 100
2, 171648, Note_on_c, 0, 79, 80
2, 171648, Note_on_c, 0, 76, 80
2, 171740, Note_off_c, 0, 79, 100
2, 171740, Note_off_c, 0, 76, 100
2, 171744, Note_on_c, 0, 78, 80
2, 171744, Note_on_c, 0, 74, 80
2, 171836, Note_off_c, 0, 78, 100
2, 171836, Note_off_c, 0, 74, 100
2, 171840, Note_on_c, 0, 78, 80
2, 171840, Note_on_c, 0, 74, 80
2, 171932, Note_off_c, 0, 78, 100
2, 171932, Note_off_c, 0, 74, 100
2, 171936, Note_on_c, 0, 76, 80
2, 171936, Note_on_c, 0, 72, 80
2, 172028, Note_off_c, 0, 76, 100
2, 172028, Note_off_c, 0, 72, 100
2, 172032, Note_on_c, 0, 76, 80
2, 172032, Note_on_c, 0, 72, 80
2, 172124, Note_off_c, 0, 76, 100
2, 172124, Note_off_c, 0, 72, 100
2, 172128, Note_on_c, 0, 74, 80
2, 172128, Note_on_c, 0, 71, 80
2, 172220, Note_off_c, 0, 74, 100
2, 172220, Note_off_c, 0, 71, 100
2, 172224, Note_on_c, 0, 74, 80
2, 172224, Note_on_c, 0, 71, 80
2, 172316, Note_off_c, 0, 74, 100
2, 172316, Note_off_c, 0, 71, 100
2, 172320, Note_on_c, 0, 72, 80
2, 172320, Note_on_c, 0, 69, 80
2, 172412, Note_off_c, 0, 72, 100
2, 172412, Note_off_c, 0, 69, 100
2, 172416, Note_on_c, 0, 71, 80
2, 172416, Note_on_c, 0, 67, 80
2, 172604, Note_off_c, 0, 71, 100
2, 172604, Note_off_c, 0, 67, 100
2, 172608, Note_on_c, 0, 76, 80
2, 172608, Note_on_c, 0, 71, 80
2, 172796, Note_off_c, 0, 76, 100
2, 172796, Note_off_c, 0, 71, 100
2, 172800, Note_on_c, 0, 74, 80
2, 172800, Note_on_c, 0, 69, 80
2, 172988, Note_off_c, 0, 74, 100
2, 172988, Note_off_c, 0, 69, 100
2, 172992, Note_on_c, 0, 72, 80
2, 172992, Note_on_c, 0, 66, 80
2, 173180, Note_off_c, 0, 72, 100
2, 173180, Note_off_c, 0, 66, 100
2, 173184, Note_on_c, 0, 71, 80
2, 173184, Note_on_c, 0, 67, 80
2, 173372, Note_off_c, 0, 71, 100
2, 173372, Note_off_c, 0, 67, 100
2, 173376, Note_on_c, 0, 76, 80
2, 173376, Note_on_c, 0, 71, 80
2, 173564, Note_off_c, 0, 76, 100
2, 173564, Note_off_c, 0, 71, 100
2, 173568, Note_on_c, 0, 74, 80
2, 173568, Note_on_c, 0, 69, 80
2, 173756, Note_off_c, 0, 74, 100
2, 173756, Note_off_c, 0, 69, 100
2, 173760, Note_on_c, 0, 72, 80
2, 173760, Note_on_c, 0, 66, 80
2, 173948, Note_off_c, 0, 72, 100
2, 173948, Note_off_c, 0, 66, 100
2, 173952, Note_on_c, 0, 71, 80
2, 174048, Note_on_c, 0, 67, 80
2, 174140, Note_off_c, 0, 71, 100
2, 174140, Note_off_c, 0, 67, 100
2, 174144, Note_on_c, 0, 76, 80
2, 174144, Note_on_c, 0, 71, 80
2, 174236, Note_off_c, 0, 71, 100
2, 174240, Note_on_c, 0, 67, 80
2, 174332, Note_off_c, 0, 76, 100
2, 174332, Note_off_c, 0, 67, 100
2, 174336, Note_on_c, 0, 74, 80
2, 174336, Note_on_c, 0, 66, 80
2, 174428, Note_off_c, 0, 66, 100
2, 174432, Note_on_c, 0, 69, 80
2, 174524, Note_off_c, 0, 74, 100
2, 174524, Note_off_c, 0, 69, 100
2, 174528, Note_on_c, 0, 73, 80
2, 174528, Note_on_c, 0, 64, 80
2, 174620, Note_off_c, 0, 64, 100
2, 174624, Note_on_c, 0, 67, 80
2, 174716, Note_off_c, 0, 73, 100
2, 174716, Note_off_c, 0, 67, 100
2, 174720, Note_on_c, 0, 74, 80
2, 174720, Note_on_c, 0, 66, 80
2, 174812, Note_off_c, 0, 66, 100
2, 174816, Note_on_c, 0, 62, 80
2, 174908, Note_off_c, 0, 74, 100
2, 174908, Note_off_c, 0, 62, 100
2, 175488, Note_on_c, 0, 83, 80
2, 175676, Note_off_c, 0, 83, 100
2, 175680, Note_on_c, 0, 88, 80
2, 175680, Note_on_c, 0, 76, 80
2, 175868, Note_off_c, 0, 88, 100
2, 175868, Note_off_c, 0, 76, 100
2, 175872, Note_on_c, 0, 86, 80
2, 175872, Note_on_c, 0, 74, 80
2, 176060, Note_off_c, 0, 86, 100
2, 176060, Note_off_c, 0, 74, 100
2, 176064, Note_on_c, 0, 84, 80
2, 176064, Note_on_c, 0, 78, 80
2, 176252, Note_off_c, 0, 84, 100
2, 176252, Note_off_c, 0, 78, 100
2, 176256, Note_on_c, 0, 83, 80
2, 176444, Note_off_c, 0, 83, 100
2, 176448, Note_on_c, 0, 88, 80
2, 176448, Note_on_c, 0, 76, 80
2, 176636, Note_off_c, 0, 88, 100
2, 176636, Note_off_c, 0, 76, 100
2, 176640, Note_on_c, 0, 86, 80
2, 176640, Note_on_c, 0, 74, 80
2, 176828, Note_off_c, 0, 86, 100
2, 176828, Note_off_c, 0, 74, 100
2, 176832, Note_on_c, 0, 84, 80
2, 176832, Note_on_c, 0, 78, 80
2, 177020, Note_off_c, 0, 84, 100
2, 177020, Note_off_c, 0, 78, 100
2, 177024, Note_on_c, 0, 83, 80
2, 177024, Note_on_c, 0, 79, 80
2, 177212, Note_off_c, 0, 83, 100
2, 177212, Note_off_c, 0, 79, 100
2, 177216, Note_on_c, 0, 79, 82
2, 177596, Note_off_c, 0, 79, 100
2, 177600, Note_on_c, 0, 79, 87
2, 177980, Note_off_c, 0, 79, 100
2, 177984, Note_on_c, 0, 79, 93
2, 178172, Note_off_c, 0, 79, 100
2, 178176, Note_on_c, 0, 79, 95
2, 178364, Note_off_c, 0, 79, 100
2, 178368, Note_on_c, 0, 79, 98
2, 178556, Note_off_c, 0, 79, 100
2, 178560, Note_on_c, 0, 76, 80
2, 178608, Note_on_c, 0, 78, 80
2, 178652, Note_off_c, 0, 76, 100
2, 178656, Note_on_c, 0, 76, 80
2, 178700, Note_off_c, 0, 78, 100
2, 178704, Note_on_c, 0, 75, 80
2, 178748, Note_off_c, 0, 76, 100
2, 178752, Note_on_c, 0, 76, 80
2, 178796, Note_off_c, 0, 75, 100
2, 178800, Note_on_c, 0, 78, 80
2, 178844, Note_off_c, 0, 76, 100
2, 178848, Note_on_c, 0, 79, 80
2, 178892, Note_off_c, 0, 78, 100
2, 178896, Note_on_c, 0, 78, 80
2, 178940, Note_off_c, 0, 79, 100
2, 178944, Note_on_c, 0, 76, 80
2, 178988, Note_off_c, 0, 78, 100
2, 178992, Note_on_c, 0, 78, 80
2, 179036, Note_off_c, 0, 76, 100
2, 179040, Note_on_c, 0, 76, 80
2, 179084, Note_off_c, 0, 78, 100
2, 179088, Note_on_c, 0, 75, 80
2, 179132, Note_off_c, 0, 76, 100
2, 179136, Note_on_c, 0, 76, 80
2, 179180, Note_off_c, 0, 75, 100
2, 179184, Note_on_c, 0, 78, 80
2, 179228, Note_off_c, 0, 76, 100
2, 179232, Note_on_c, 0, 79, 80
2, 179276, Note_off_c, 0, 78, 100
2, 179280, Note_on_c, 0, 78, 80
2, 179324, Note_off_c, 0, 79, 100
2, 179328, Note_on_c, 0, 79, 80
2, 179372, Note_off_c, 0, 78, 100
2, 179376, Note_on_c, 0, 81, 81
2, 179420, Note_off_c, 0, 79, 100
2, 179424, Note_on_c, 0, 79, 81
2, 179468, Note_off_c, 0, 81, 100
2, 179472, Note_on_c, 0, 78, 82
2, 179516, Note_off_c, 0, 79, 100
2, 179520, Note_on_c, 0, 79, 83
2, 179564, Note_off_c, 0, 78, 100
2, 179568, Note_on_c, 0, 81, 83
2, 179612, Note_off_c, 0, 79, 100
2, 179616, Note_on_c, 0, 82, 84
2, 179660, Note_off_c, 0, 81, 100
2, 179664, Note_on_c, 0, 81, 85
2, 179708, Note_off_c, 0, 82, 100
2, 179712, Note_on_c, 0, 79, 85
2, 179756, Note_off_c, 0, 81, 100
2, 179760, Note_on_c, 0, 81, 86
2, 179804, Note_off_c, 0, 79, 100
2, 179808, Note_on_c, 0, 79, 87
2, 179852, Note_off_c, 0, 81, 100
2, 179856, Note_on_c, 0, 78, 87
2, 179900, Note_off_c, 0, 79, 100
2, 179904, Note_on_c, 0, 79, 88
2, 179948, Note_off_c, 0, 78, 100
2, 179952, Note_on_c, 0, 81, 89
2, 179996, Note_off_c, 0, 79, 100
2, 180000, Note_on_c, 0, 82, 89
2, 180044, Note_off_c, 0, 81, 100
2, 180048, Note_on_c, 0, 81, 90
2, 180092, Note_off_c, 0, 82, 100
2, 180096, Note_on_c, 0, 79, 90
2, 180140, Note_off_c, 0, 81, 100
2, 180144, Note_on_c, 0, 81, 91
2, 180188, Note_off_c, 0, 79, 100
2, 180192, Note_on_c, 0, 79, 92
2, 180236, Note_off_c, 0, 81, 100
2, 180240, Note_on_c, 0, 78, 92
2, 180284, Note_off_c, 0, 79, 100
2, 180288, Note_on_c, 0, 79, 93
2, 180332, Note_off_c, 0, 78, 100
2, 180336, Note_on_c, 0, 81, 94
2, 180380, Note_off_c, 0, 79, 100
2, 180384, Note_on_c, 0, 83, 94
2, 180428, Note_off_c, 0, 81, 100
2, 180432, Note_on_c, 0, 81, 95
2, 180476, Note_off_c, 0, 83, 100
2, 180480, Note_on_c, 0, 79, 96
2, 180524, Note_off_c, 0, 81, 100
2, 180528, Note_on_c, 0, 78, 96
2, 180572, Note_off_c, 0, 79, 100
2, 180576, Note_on_c, 0, 76, 97
2, 180620, Note_off_c, 0, 78, 100
2, 180624, Note_on_c, 0, 74, 98
2, 180668, Note_off_c, 0, 76, 100
2, 180672, Note_on_c, 0, 72, 98
2, 180716, Note_off_c, 0, 74, 100
2, 180720, Note_on_c, 0, 71, 99
2, 180764, Note_off_c, 0, 72, 100
2, 180768, Note_on_c, 0, 69, 99
2, 180812, Note_off_c, 0, 71, 100
2, 180816, Note_on_c, 0, 67, 110
2, 180860, Note_off_c, 0, 69, 100
2, 180864, Note_on_c, 0, 71, 110
2, 180864, Note_on_c, 0, 67, 110
2, 180908, Note_off_c, 0, 67, 100
2, 181244, Note_off_c, 0, 71, 100
2, 181244, Note_off_c, 0, 67, 100
2, 181248, Note_on_c, 0, 69, 110
2, 181248, Note_on_c, 0, 66, 110
2, 181628, Note_off_c, 0, 69, 100
2, 181628, Note_off_c, 0, 66, 100
2, 181632, Note_on_c, 0, 67, 110
2, 181680, Note_on_c, 0, 69, 110
2, 181724, Note_off_c, 0, 67, 100
2, 181728, Note_on_c, 0, 71, 110
2, 181772, Note_off_c, 0, 69, 100
2, 181776, Note_on_c, 0, 72, 110
2, 181820, Note_off_c, 0, 71, 100
2, 181824, Note_on_c, 0, 74, 110
2, 181868, Note_off_c, 0, 72, 100
2, 181872, Note_on_c, 0, 72, 110
2, 181916, Note_off_c, 0, 74, 100
2, 181920, Note_on_c, 0, 71, 110
2, 181964, Note_off_c, 0, 72, 100
2, 181968, Note_on_c, 0, 69, 110
2, 182012, Note_off_c, 0, 71, 100
2, 182016, Note_on_c, 0, 67, 110
2, 182060, Note_off_c, 0, 69, 100
2, 182064, Note_on_c, 0, 66, 110
2, 182108, Note_off_c, 0, 67, 100
2, 182112, Note_on_c, 0, 64, 110
2, 182156, Note_off_c, 0, 66, 100
2, 182160, Note_on_c, 0, 62, 110
2, 182204, Note_off_c, 0, 64, 100
2, 182208, Note_on_c, 0, 60, 110
2, 182252, Note_off_c, 0, 62, 100
2, 182256, Note_on_c, 0, 59, 110
2, 182300, Note_off_c, 0, 60, 100
2, 182304, Note_on_c, 0, 57, 110
2, 182348, Note_off_c, 0, 59, 100
2, 182352, Note_on_c, 0, 55, 110
2, 182396, Note_off_c, 0, 57, 100
2, 182400, Note_on_c, 0, 55, 110
2, 182400, Note_on_c, 0, 59, 110
2, 182444, Note_off_c, 0, 55, 100
2, 182780, Note_off_c, 0, 55, 100
2, 182780, Note_off_c, 0, 59, 100
2, 182784, Note_on_c, 0, 57, 110
2, 182784, Note_on_c, 0, 54, 110
2, 183164, Note_off_c, 0, 57, 100
2, 183164, Note_off_c, 0, 54, 100
2, 183168, Note_on_c, 0, 55, 80
2, 183260, Note_off_c, 0, 55, 100
2, 183264, Note_on_c, 0, 50, 80
2, 183356, Note_off_c, 0, 50, 100
2, 183360, Note_on_c, 0, 55, 80
2, 183360, Note_on_c, 0, 59, 80
2, 183452, Note_off_c, 0, 55, 100
2, 183452, Note_off_c, 0, 59, 100
2, 183456, Note_on_c, 0, 50, 80
2, 183548, Note_off_c, 0, 50, 100
2, 183552, Note_on_c, 0, 60, 80
2, 183552, Note_on_c, 0, 57, 80
2, 183644, Note_off_c, 0, 60, 100
2, 183644, Note_off_c, 0, 57, 100
2, 183648, Note_on_c, 0, 50, 80
2, 183740, Note_off_c, 0, 50, 100
2, 183744, Note_on_c, 0, 58, 80
2, 183744, Note_on_c, 0, 61, 80
2, 183836, Note_off_c, 0, 58, 100
2, 183836, Note_off_c, 0, 61, 100
2, 183840, Note_on_c, 0, 50, 80
2, 183932, Note_off_c, 0, 50, 100
2, 183936, Note_on_c, 0, 62, 80
2, 183936, Note_on_c, 0, 59, 80
2, 184032, Note_on_c, 0, 50, 80
2, 184220, Note_off_c, 0, 50, 100
2, 184224, Note_on_c, 0, 50, 80
2, 184412, Note_off_c, 0, 50, 100
2, 184416, Note_on_c, 0, 50, 80
2, 184604, Note_off_c, 0, 50, 100
2, 184608, Note_on_c, 0, 50, 80
2, 184792, Note_off_c, 0, 50, 100
2, 184796, Note_on_c, 0, 50, 80
2, 184888, Note_off_c, 0, 59, 100
2, 184888, Note_off_c, 0, 62, 100
2, 184888, Note_off_c, 0, 50, 100
2, 184892, Note_on_c, 0, 59, 80
2, 184892, Note_on_c, 0, 55, 80
2, 184984, Note_off_c, 0, 55, 100
2, 184988, Note_on_c, 0, 50, 80
2, 185080, Note_off_c, 0, 59, 100
2, 185080, Note_off_c, 0, 50, 100
2, 185084, Note_on_c, 0, 64, 80
2, 185084, Note_on_c, 0, 60, 80
2, 185176, Note_off_c, 0, 60, 100
2, 185180, Note_on_c, 0, 50, 80
2, 185272, Note_off_c, 0, 64, 100
2, 185272, Note_off_c, 0, 50, 100
2, 185276, Note_on_c, 0, 62, 80
2, 185276, Note_on_c, 0, 59, 80
2, 185368, Note_off_c, 0, 59, 100
2, 185372, Note_on_c, 0, 50, 80
2, 185464, Note_off_c, 0, 62, 100
2, 185464, Note_off_c, 0, 50, 100
2, 185468, Note_on_c, 0, 57, 80
2, 185468, Note_on_c, 0, 60, 80
2, 185564, Note_on_c, 0, 50, 80
2, 185752, Note_off_c, 0, 50, 100
2, 185756, Note_on_c, 0, 50, 80
2, 185944, Note_off_c, 0, 50, 100
2, 185948, Note_on_c, 0, 50, 80
2, 186136, Note_off_c, 0, 50, 100
2, 186140, Note_on_c, 0, 50, 80
2, 186328, Note_off_c, 0, 50, 100
2, 186332, Note_on_c, 0, 50, 80
2, 186424, Note_off_c, 0, 57, 100
2, 186424, Note_off_c, 0, 60, 100
2, 186424, Note_off_c, 0, 50, 100
2, 186428, Note_on_c, 0, 60, 80
2, 186428, Note_on_c, 0, 57, 80
2, 186520, Note_off_c, 0, 57, 100
2, 186524, Note_on_c, 0, 50, 80
2, 186616, Note_off_c, 0, 60, 100
2, 186616, Note_off_c, 0, 50, 100
2, 186620, Note_on_c, 0, 62, 80
2, 186620, Note_on_c, 0, 59, 80
2, 186712, Note_off_c, 0, 59, 100
2, 186716, Note_on_c, 0, 50, 80
2, 186808, Note_off_c, 0, 62, 100
2, 186808, Note_off_c, 0, 50, 100
2, 186812, Note_on_c, 0, 60, 80
2, 186812, Note_on_c, 0, 57, 80
2, 186904, Note_off_c, 0, 57, 100
2, 186908, Note_on_c, 0, 50, 80
2, 187000, Note_off_c, 0, 60, 100
2, 187000, Note_off_c, 0, 50, 100
2, 187004, Note_on_c, 0, 59, 80
2, 187004, Note_on_c, 0, 55, 80
2, 187100, Note_on_c, 0, 50, 80
2, 187192, Note_off_c, 0, 50, 100
2, 187292, Note_on_c, 0, 51, 80
2, 187384, Note_off_c, 0, 51, 100
2, 187484, Note_on_c, 0, 52, 80
2, 187576, Note_off_c, 0, 52, 100
2, 187676, Note_on_c, 0, 47, 80
2, 187768, Note_off_c, 0, 47, 100
2, 187868, Note_on_c, 0, 48, 80
2, 187960, Note_off_c, 0, 55, 100
2, 187960, Note_off_c, 0, 59, 100
2, 187960, Note_off_c, 0, 48, 100
2, 187964, Note_on_c, 0, 57, 80
2, 187964, Note_on_c, 0, 55, 80
2, 188056, Note_off_c, 0, 55, 100
2, 188060, Note_on_c, 0, 49, 80
2, 188152, Note_off_c, 0, 57, 100
2, 188152, Note_off_c, 0, 49, 100
2, 188156, Note_on_c, 0, 57, 80
2, 188156, Note_on_c, 0, 55, 80
2, 188248, Note_off_c, 0, 55, 100
2, 188252, Note_on_c, 0, 50, 80
2, 188344, Note_off_c, 0, 57, 100
2, 188344, Note_off_c, 0, 50, 100
2, 188348, Note_on_c, 0, 60, 80
2, 188348, Note_on_c, 0, 54, 80
2, 188440, Note_off_c, 0, 54, 100
2, 188444, Note_on_c, 0, 50, 80
2, 188536, Note_off_c, 0, 60, 100
2, 188536, Note_off_c, 0, 50, 100
2, 188540, Note_on_c, 0, 59, 80
2, 188540, Note_on_c, 0, 55, 80
2, 188636, Note_on_c, 0, 50, 80
2, 188728, Note_off_c, 0, 50, 100
2, 188828, Note_on_c, 0, 51, 80
2, 188920, Note_off_c, 0, 51, 100
2, 189020, Note_on_c, 0, 52, 80
2, 189112, Note_off_c, 0, 52, 100
2, 189212, Note_on_c, 0, 47, 80
2, 189304, Note_off_c, 0, 47, 100
2, 189404, Note_on_c, 0, 48, 80
2, 189496, Note_off_c, 0, 55, 100
2, 189496, Note_off_c, 0, 59, 100
2, 189496, Note_off_c, 0, 48, 100
2, 189500, Note_on_c, 0, 57, 80
2, 189500, Note_on_c, 0, 55, 80
2, 189592, Note_off_c, 0, 55, 100
2, 189596, Note_on_c, 0, 49, 80
2, 189688, Note_off_c, 0, 57, 100
2, 189688, Note_off_c, 0, 49, 100
2, 189692, Note_on_c, 0, 57, 80
2, 189692, Note_on_c, 0, 55, 80
2, 189784, Note_off_c, 0, 55, 100
2, 189788, Note_on_c, 0, 50, 80
2, 189880, Note_off_c, 0, 57, 100
2, 189880, Note_off_c, 0, 50, 100
2, 189884, Note_on_c, 0, 60, 80
2, 189884, Note_on_c, 0, 54, 80
2, 189976, Note_off_c, 0, 54, 100
2, 189980, Note_on_c, 0, 50, 80
2, 190072, Note_off_c, 0, 60, 100
2, 190072, Note_off_c, 0, 50, 100
2, 190076, Note_on_c, 0, 59, 80
2, 190076, Note_on_c, 0, 55, 80
2, 190172, Note_on_c, 0, 50, 80
2, 190264, Note_off_c, 0, 50, 100
2, 190364, Note_on_c, 0, 51, 80
2, 190456, Note_off_c, 0, 51, 100
2, 190556, Note_on_c, 0, 52, 80
2, 190648, Note_off_c, 0, 52, 100
2, 190748, Note_on_c, 0, 53, 80
2, 190840, Note_off_c, 0, 53, 100
2, 190940, Note_on_c, 0, 52, 80
2, 191032, Note_off_c, 0, 55, 100
2, 191032, Note_off_c, 0, 59, 100
2, 191032, Note_off_c, 0, 52, 100
2, 191036, Note_on_c, 0, 59, 80
2, 191036, Note_on_c, 0, 55, 80
2, 191128, Note_off_c, 0, 55, 100
2, 191132, Note_on_c, 0, 50, 80
2, 191224, Note_off_c, 0, 59, 100
2, 191224, Note_off_c, 0, 50, 100
2, 191228, Note_on_c, 0, 60, 80
2, 191228, Note_on_c, 0, 55, 80
2, 191320, Note_off_c, 0, 55, 100
2, 191324, Note_on_c, 0, 52, 80
2, 191416, Note_off_c, 0, 60, 100
2, 191416, Note_off_c, 0, 52, 100
2, 191420, Note_on_c, 0, 62, 80
2, 191420, Note_on_c, 0, 59, 80
2, 191512, Note_off_c, 0, 59, 100
2, 191516, Note_on_c, 0, 53, 80
2, 191608, Note_off_c, 0, 62, 100
2, 191608, Note_off_c, 0, 53, 100
2, 191612, Note_on_c, 0, 64, 80
2, 191612, Note_on_c, 0, 55, 80
2, 191704, Note_off_c, 0, 55, 100
2, 191708, Note_on_c, 0, 52, 80
2, 191800, Note_off_c, 0, 52, 100
2, 191804, Note_on_c, 0, 55, 80
2, 191896, Note_off_c, 0, 55, 100
2, 191900, Note_on_c, 0, 52, 80
2, 191992, Note_off_c, 0, 64, 100
2, 191992, Note_off_c, 0, 52, 100
2, 191996, Note_on_c, 0, 57, 80
2, 191996, Note_on_c, 0, 55, 80
2, 192088, Note_off_c, 0, 55, 100
2, 192092, Note_on_c, 0, 52, 80
2, 192184, Note_off_c, 0, 52, 100
2, 192188, Note_on_c, 0, 55, 80
2, 192280, Note_off_c, 0, 55, 100
2, 192284, Note_on_c, 0, 52, 80
2, 192376, Note_off_c, 0, 57, 100
2, 192376, Note_off_c, 0, 52, 100
2, 192380, Note_on_c, 0, 59, 80
2, 192380, Note_on_c, 0, 55, 80
2, 192472, Note_off_c, 0, 55, 100
2, 192476, Note_on_c, 0, 50, 80
2, 192568, Note_off_c, 0, 50, 100
2, 192572, Note_on_c, 0, 55, 80
2, 192664, Note_off_c, 0, 55, 100
2, 192668, Note_on_c, 0, 50, 80
2, 192760, Note_off_c, 0, 59, 100
2, 192760, Note_off_c, 0, 50, 100
2, 192764, Note_on_c, 0, 60, 80
2, 192764, Note_on_c, 0, 54, 80
2, 192856, Note_off_c, 0, 54, 100
2, 192860, Note_on_c, 0, 50, 80
2, 192952, Note_off_c, 0, 50, 100
2, 192956, Note_on_c, 0, 54, 80
2, 193048, Note_off_c, 0, 60, 100
2, 193048, Note_off_c, 0, 54, 100
2, 193052, Note_on_c, 0, 57, 80
2, 193052, Note_on_c, 0, 50, 80
2, 193144, Note_off_c, 0, 57, 100
2, 193144, Note_off_c, 0, 50, 100
2, 193148, Note_on_c, 0, 55, 80
2, 193528, Note_off_c, 0, 55, 100
2, 193628, Note_on_c, 0, 62, 80
2, 193720, Note_off_c, 0, 62, 100
2, 193724, Note_on_c, 0, 74, 80
2, 193816, Note_off_c, 0, 74, 100
2, 193820, Note_on_c, 0, 70, 80
2, 193912, Note_off_c, 0, 70, 100
2, 193916, Note_on_c, 0, 71, 80
2, 194392, Note_off_c, 0, 71, 100
2, 194396, Note_on_c, 0, 67, 80
2, 194488, Note_off_c, 0, 67, 100
2, 194492, Note_on_c, 0, 79, 80
2, 194584, Note_off_c, 0, 79, 100
2, 194588, Note_on_c, 0, 71, 80
2, 194680, Note_off_c, 0, 71, 100
2, 194684, Note_on_c, 0, 72, 80
2, 195160, Note_off_c, 0, 72, 100
2, 195164, Note_on_c, 0, 72, 80
2, 195256, Note_off_c, 0, 72, 100
2, 195260, Note_on_c, 0, 84, 80
2, 195352, Note_off_c, 0, 84, 100
2, 195356, Note_on_c, 0, 83, 80
2, 195448, Note_off_c, 0, 83, 100
2, 195452, Note_on_c, 0, 81, 80
2, 195736, Note_off_c, 0, 81, 100
2, 195740, Note_on_c, 0, 79, 80
2, 195832, Note_off_c, 0, 79, 100
2, 195836, Note_on_c, 0, 78, 80
2, 195928, Note_off_c, 0, 78, 100
2, 195932, Note_on_c, 0, 76, 80
2, 196024, Note_off_c, 0, 76, 100
2, 196028, Note_on_c, 0, 74, 80
2, 196120, Note_off_c, 0, 74, 100
2, 196124, Note_on_c, 0, 72, 80
2, 196216, Note_off_c, 0, 72, 100
2, 196220, Note_on_c, 0, 70, 80
2, 196408, Note_off_c, 0, 70, 100
2, 196412, Note_on_c, 0, 71, 80
2, 196600, Note_off_c, 0, 71, 100
2, 196700, Note_on_c, 0, 62, 80
2, 196792, Note_off_c, 0, 62, 100
2, 196796, Note_on_c, 0, 74, 80
2, 196888, Note_off_c, 0, 74, 100
2, 196892, Note_on_c, 0, 70, 80
2, 196984, Note_off_c, 0, 70, 100
2, 196988, Note_on_c, 0, 71, 80
2, 197464, Note_off_c, 0, 71, 100
2, 197468, Note_on_c, 0, 67, 89
2, 197560, Note_off_c, 0, 67, 100
2, 197564, Note_on_c, 0, 79, 91
2, 197656, Note_off_c, 0, 79, 100
2, 197660, Note_on_c, 0, 71, 93
2, 197752, Note_off_c, 0, 71, 100
2, 197756, Note_on_c, 0, 72, 95
2, 198232, Note_off_c, 0, 72, 100
2, 198236, Note_on_c, 0, 72, 105
2, 198328, Note_off_c, 0, 72, 100
2, 198332, Note_on_c, 0, 88, 107
2, 198424, Note_off_c, 0, 88, 100
2, 198428, Note_on_c, 0, 86, 109
2, 198520, Note_off_c, 0, 86, 100
2, 198524, Note_on_c, 0, 84, 110
2, 199000, Note_off_c, 0, 84, 100
2, 199004, Note_on_c, 0, 83, 104
2, 199096, Note_off_c, 0, 83, 100
2, 199100, Note_on_c, 0, 81, 103
2, 199192, Note_off_c, 0, 81, 100
2, 199196, Note_on_c, 0, 79, 101
2, 199288, Note_off_c, 0, 79, 100
2, 199292, Note_on_c, 0, 78, 100
2, 199384, Note_off_c, 0, 78, 100
2, 199388, Note_on_c, 0, 76, 99
2, 199480, Note_off_c, 0, 76, 100
2, 199484, Note_on_c, 0, 74, 97
2, 199576, Note_off_c, 0, 74, 100
2, 199580, Note_on_c, 0, 72, 96
2, 199672, Note_off_c, 0, 72, 100
2, 199676, Note_on_c, 0, 71, 95
2, 199768, Note_off_c, 0, 71, 100
2, 199772, Note_on_c, 0, 69, 93
2, 199864, Note_off_c, 0, 69, 100
2, 199868, Note_on_c, 0, 67, 92
2, 199960, Note_off_c, 0, 67, 100
2, 199964, Note_on_c, 0, 66, 91
2, 200056, Note_off_c, 0, 66, 100
2, 200060, Note_on_c, 0, 64, 80
2, 200152, Note_off_c, 0, 64, 100
2, 200156, Note_on_c, 0, 62, 80
2, 200248, Note_off_c, 0, 62, 100
2, 200252, Note_on_c, 0, 61, 80
2, 200344, Note_off_c, 0, 61, 100
2, 200348, Note_on_c, 0, 62, 80
2, 200440, Note_off_c, 0, 62, 100
2, 200444, Note_on_c, 0, 61, 80
2, 200536, Note_off_c, 0, 61, 100
2, 200540, Note_on_c, 0, 62, 80
2, 200632, Note_off_c, 0, 62, 100
2, 200636, Note_on_c, 0, 64, 80
2, 200728, Note_off_c, 0, 64, 100
2, 200732, Note_on_c, 0, 60, 80
2, 200824, Note_off_c, 0, 60, 100
2, 200828, Note_on_c, 0, 59, 80
2, 201016, Note_off_c, 0, 59, 100
2, 201308, Note_on_c, 0, 75, 80
2, 201400, Note_off_c, 0, 75, 100
2, 201404, Note_on_c, 0, 76, 80
2, 201496, Note_off_c, 0, 76, 100
2, 201500, Note_on_c, 0, 72, 80
2, 201592, Note_off_c, 0, 72, 100
2, 201596, Note_on_c, 0, 71, 80
2, 201784, Note_off_c, 0, 71, 100
2, 202076, Note_on_c, 0, 87, 80
2, 202168, Note_off_c, 0, 87, 100
2, 202172, Note_on_c, 0, 88, 80
2, 202264, Note_off_c, 0, 88, 100
2, 202268, Note_on_c, 0, 84, 80
2, 202360, Note_off_c, 0, 84, 100
2, 202368, Note_on_c, 0, 84, 80
2, 202940, Note_off_c, 0, 84, 64
2, 202940, Note_on_c, 0, 83, 80
2, 202988, Note_on_c, 0, 84, 80
2, 203032, Note_off_c, 0, 83, 100
2, 203036, Note_on_c, 0, 86, 80
2, 203080, Note_off_c, 0, 84, 100
2, 203084, Note_on_c, 0, 84, 80
2, 203128, Note_off_c, 0, 86, 100
2, 203128, Note_off_c, 0, 84, 100
2, 203132, Note_on_c, 0, 83, 80
2, 203512, Note_off_c, 0, 83, 100
2, 203904, Control_c, 0, 7, 0
2, 204096, Note_on_c, 0, 67, 1
2, 204284, Note_off_c, 0, 67, 100
2, 204284, End_track
3, 0, Start_track
3, 0, Title_t, "Left"
3, 0, Control_c, 1, 0, 0
3, 0, Program_c, 1, 0
3, 0, Control_c, 1, 7, 100
3, 0, Control_c, 1, 10, 54
3, 0, Control_c, 1, 91, 127
3, 0, Key_signature, 1, "major"
3, 576, Note_on_c, 1, 43, 80
3, 672, Note_on_c, 1, 47, 80
3, 768, Note_on_c, 1, 50, 80
3, 1148, Note_off_c, 1, 43, 100
3, 1148, Note_off_c, 1, 47, 100
3, 1148, Note_off_c, 1, 50, 100
3, 1344, Note_on_c, 1, 55, 80
3, 1440, Note_on_c, 1, 59, 80
3, 1536, Note_on_c, 1, 62, 80
3, 1916, Note_off_c, 1, 55, 100
3, 1916, Note_off_c, 1, 59, 100
3, 1916, Note_off_c, 1, 62, 100
3, 2112, Note_on_c, 1, 43, 80
3, 2208, Note_on_c, 1, 48, 80
3, 2304, Note_on_c, 1, 52, 80
3, 2684, Note_off_c, 1, 43, 100
3, 2684, Note_off_c, 1, 48, 100
3, 2684, Note_off_c, 1, 52, 100
3, 2880, Note_on_c, 1, 55, 80
3, 2976, Note_on_c, 1, 60, 80
3, 3072, Note_on_c, 1, 64, 80
3, 3452, Note_off_c, 1, 55, 100
3, 3452, Note_off_c, 1, 60, 100
3, 3452, Note_off_c, 1, 64, 100
3, 3552, Note_on_c, 1, 54, 80
3, 3644, Note_off_c, 1, 54, 100
3, 3648, Note_on_c, 1, 57, 80
3, 3740, Note_off_c, 1, 57, 100
3, 3744, Note_on_c, 1, 62, 80
3, 3836, Note_off_c, 1, 62, 100
3, 3936, Note_on_c, 1, 50, 80
3, 4028, Note_off_c, 1, 50, 100
3, 4032, Note_on_c, 1, 57, 80
3, 4124, Note_off_c, 1, 57, 100
3, 4128, Note_on_c, 1, 60, 80
3, 4220, Note_off_c, 1, 60, 100
3, 4320, Note_on_c, 1, 55, 80
3, 4412, Note_off_c, 1, 55, 100
3, 4416, Note_on_c, 1, 59, 80
3, 4508, Note_off_c, 1, 59, 100
3, 4512, Note_on_c, 1, 62, 80
3, 4604, Note_off_c, 1, 62, 100
3, 4704, Note_on_c, 1, 48, 80
3, 4796, Note_off_c, 1, 48, 100
3, 4800, Note_on_c, 1, 52, 80
3, 4892, Note_off_c, 1, 52, 100
3, 4896, Note_on_c, 1, 57, 80
3, 4988, Note_off_c, 1, 57, 100
3, 5088, Note_on_c, 1, 50, 80
3, 5180, Note_off_c, 1, 50, 100
3, 5184, Note_on_c, 1, 55, 80
3, 5276, Note_off_c, 1, 55, 100
3, 5280, Note_on_c, 1, 59, 80
3, 5372, Note_off_c, 1, 59, 100
3, 5472, Note_on_c, 1, 38, 80
3, 5564, Note_off_c, 1, 38, 100
3, 5568, Note_on_c, 1, 45, 80
3, 5660, Note_off_c, 1, 45, 100
3, 5664, Note_on_c, 1, 50, 80
3, 5756, Note_off_c, 1, 50, 100
3, 5760, Note_on_c, 1, 43, 80
3, 5852, Note_off_c, 1, 43, 100
3, 5856, Note_on_c, 1, 47, 80
3, 5948, Note_off_c, 1, 47, 100
3, 5952, Note_on_c, 1, 50, 80
3, 6044, Note_off_c, 1, 50, 100
3, 6048, Note_on_c, 1, 47, 80
3, 6140, Note_off_c, 1, 47, 100
3, 6144, Note_on_c, 1, 43, 80
3, 6236, Note_off_c, 1, 43, 100
3, 6240, Note_on_c, 1, 47, 80
3, 6332, Note_off_c, 1, 47, 100
3, 6336, Note_on_c, 1, 50, 80
3, 6428, Note_off_c, 1, 50, 100
3, 6432, Note_on_c, 1, 47, 80
3, 6524, Note_off_c, 1, 47, 100
3, 6528, Note_on_c, 1, 43, 80
3, 6620, Note_off_c, 1, 43, 100
3, 6624, Note_on_c, 1, 47, 80
3, 6716, Note_off_c, 1, 47, 100
3, 6720, Note_on_c, 1, 50, 80
3, 6812, Note_off_c, 1, 50, 100
3, 6816, Note_on_c, 1, 47, 80
3, 6908, Note_off_c, 1, 47, 100
3, 6912, Note_on_c, 1, 43, 80
3, 7004, Note_off_c, 1, 43, 100
3, 7008, Note_on_c, 1, 47, 80
3, 7100, Note_off_c, 1, 47, 100
3, 7104, Note_on_c, 1, 50, 80
3, 7196, Note_off_c, 1, 50, 100
3, 7200, Note_on_c, 1, 47, 80
3, 7292, Note_off_c, 1, 47, 100
3, 7296, Note_on_c, 1, 45, 80
3, 7388, Note_off_c, 1, 45, 100
3, 7392, Note_on_c, 1, 48, 80
3, 7484, Note_off_c, 1, 48, 100
3, 7488, Note_on_c, 1, 54, 80
3, 7580, Note_off_c, 1, 54, 100
3, 7584, Note_on_c, 1, 48, 80
3, 7676, Note_off_c, 1, 48, 100
3, 7680, Note_on_c, 1, 45, 80
3, 7772, Note_off_c, 1, 45, 100
3, 7776, Note_on_c, 1, 48, 80
3, 7868, Note_off_c, 1, 48, 100
3, 7872, Note_on_c, 1, 54, 80
3, 7964, Note_off_c, 1, 54, 100
3, 7968, Note_on_c, 1, 48, 80
3, 8060, Note_off_c, 1, 48, 100
3, 8064, Note_on_c, 1, 45, 80
3, 8156, Note_off_c, 1, 45, 100
3, 8160, Note_on_c, 1, 48, 80
3, 8252, Note_off_c, 1, 48, 100
3, 8256, Note_on_c, 1, 54, 80
3, 8348, Note_off_c, 1, 54, 100
3, 8352, Note_on_c, 1, 48, 80
3, 8444, Note_off_c, 1, 48, 100
3, 8448, Note_on_c, 1, 45, 80
3, 8540, Note_off_c, 1, 45, 100
3, 8544, Note_on_c, 1, 48, 80
3, 8636, Note_off_c, 1, 48, 100
3, 8640, Note_on_c, 1, 54, 80
3, 8732, Note_off_c, 1, 54, 100
3, 8736, Note_on_c, 1, 48, 80
3, 8828, Note_off_c, 1, 48, 100
3, 8832, Note_on_c, 1, 47, 80
3, 8924, Note_off_c, 1, 47, 100
3, 8928, Note_on_c, 1, 50, 80
3, 9020, Note_off_c, 1, 50, 100
3, 9024, Note_on_c, 1, 55, 80
3, 9116, Note_off_c, 1, 55, 100
3, 9120, Note_on_c, 1, 50, 80
3, 9212, Note_off_c, 1, 50, 100
3, 9216, Note_on_c, 1, 47, 80
3, 9308, Note_off_c, 1, 47, 100
3, 9312, Note_on_c, 1, 50, 80
3, 9404, Note_off_c, 1, 50, 100
3, 9408, Note_on_c, 1, 55, 80
3, 9500, Note_off_c, 1, 55, 100
3, 9504, Note_on_c, 1, 50, 80
3, 9596, Note_off_c, 1, 50, 100
3, 9600, Note_on_c, 1, 47, 80
3, 9692, Note_off_c, 1, 47, 100
3, 9696, Note_on_c, 1, 50, 80
3, 9788, Note_off_c, 1, 50, 100
3, 9792, Note_on_c, 1, 55, 80
3, 9884, Note_off_c, 1, 55, 100
3, 9888, Note_on_c, 1, 50, 80
3, 9980, Note_off_c, 1, 50, 100
3, 9984, Note_on_c, 1, 47, 80
3, 10076, Note_off_c, 1, 47, 100
3, 10080, Note_on_c, 1, 50, 80
3, 10172, Note_off_c, 1, 50, 100
3, 10176, Note_on_c, 1, 55, 80
3, 10268, Note_off_c, 1, 55, 100
3, 10272, Note_on_c, 1, 50, 80
3, 10364, Note_off_c, 1, 50, 100
3, 10368, Note_on_c, 1, 48, 80
3, 10460, Note_off_c, 1, 48, 100
3, 10464, Note_on_c, 1, 52, 80
3, 10556, Note_off_c, 1, 52, 100
3, 10560, Note_on_c, 1, 57, 80
3, 10652, Note_off_c, 1, 57, 100
3, 10656, Note_on_c, 1, 52, 80
3, 10748, Note_off_c, 1, 52, 100
3, 10752, Note_on_c, 1, 49, 80
3, 10844, Note_off_c, 1, 49, 100
3, 10848, Note_on_c, 1, 52, 80
3, 10940, Note_off_c, 1, 52, 100
3, 10944, Note_on_c, 1, 57, 80
3, 11036, Note_off_c, 1, 57, 100
3, 11040, Note_on_c, 1, 52, 80
3, 11132, Note_off_c, 1, 52, 100
3, 11136, Note_on_c, 1, 50, 80
3, 11228, Note_off_c, 1, 50, 100
3, 11232, Note_on_c, 1, 54, 80
3, 11324, Note_off_c, 1, 54, 100
3, 11328, Note_on_c, 1, 57, 80
3, 11420, Note_off_c, 1, 57, 100
3, 11424, Note_on_c, 1, 54, 80
3, 11516, Note_off_c, 1, 54, 100
3, 11520, Note_on_c, 1, 50, 80
3, 11612, Note_off_c, 1, 50, 100
3, 11616, Note_on_c, 1, 54, 80
3, 11708, Note_off_c, 1, 54, 100
3, 11712, Note_on_c, 1, 59, 80
3, 11804, Note_off_c, 1, 59, 100
3, 11808, Note_on_c, 1, 54, 80
3, 11900, Note_off_c, 1, 54, 100
3, 11904, Note_on_c, 1, 52, 80
3, 11996, Note_off_c, 1, 52, 100
3, 12000, Note_on_c, 1, 55, 80
3, 12092, Note_off_c, 1, 55, 100
3, 12096, Note_on_c, 1, 59, 80
3, 12188, Note_off_c, 1, 59, 100
3, 12192, Note_on_c, 1, 55, 80
3, 12284, Note_off_c, 1, 55, 100
3, 12288, Note_on_c, 1, 52, 80
3, 12380, Note_off_c, 1, 52, 100
3, 12384, Note_on_c, 1, 55, 80
3, 12476, Note_off_c, 1, 55, 100
3, 12480, Note_on_c, 1, 61, 80
3, 12572, Note_off_c, 1, 61, 100
3, 12576, Note_on_c, 1, 55, 80
3, 12668, Note_off_c, 1, 55, 100
3, 12672, Note_on_c, 1, 54, 80
3, 12764, Note_off_c, 1, 54, 100
3, 12768, Note_on_c, 1, 57, 80
3, 12860, Note_off_c, 1, 57, 100
3, 12864, Note_on_c, 1, 61, 80
3, 12956, Note_off_c, 1, 61, 100
3, 12960, Note_on_c, 1, 57, 80
3, 13052, Note_off_c, 1, 57, 100
3, 13056, Note_on_c, 1, 54, 80
3, 13148, Note_off_c, 1, 54, 100
3, 13152, Note_on_c, 1, 57, 80
3, 13244, Note_off_c, 1, 57, 100
3, 13248, Note_on_c, 1, 62, 80
3, 13340, Note_off_c, 1, 62, 100
3, 13344, Note_on_c, 1, 57, 80
3, 13436, Note_off_c, 1, 57, 100
3, 13440, Note_on_c, 1, 55, 80
3, 13532, Note_off_c, 1, 55, 100
3, 13536, Note_on_c, 1, 59, 80
3, 13628, Note_off_c, 1, 59, 100
3, 13632, Note_on_c, 1, 64, 80
3, 13724, Note_off_c, 1, 64, 100
3, 13728, Note_on_c, 1, 59, 80
3, 13820, Note_off_c, 1, 59, 100
3, 13824, Note_on_c, 1, 56, 80
3, 13916, Note_off_c, 1, 56, 100
3, 13920, Note_on_c, 1, 59, 80
3, 14012, Note_off_c, 1, 59, 100
3, 14016, Note_on_c, 1, 64, 80
3, 14108, Note_off_c, 1, 64, 100
3, 14112, Note_on_c, 1, 59, 80
3, 14204, Note_off_c, 1, 59, 100
3, 14208, Note_on_c, 1, 57, 80
3, 14300, Note_off_c, 1, 57, 100
3, 14304, Note_on_c, 1, 64, 80
3, 14396, Note_off_c, 1, 64, 100
3, 14400, Note_on_c, 1, 69, 80
3, 14492, Note_off_c, 1, 69, 100
3, 14496, Note_on_c, 1, 64, 80
3, 14588, Note_off_c, 1, 64, 100
3, 14592, Note_on_c, 1, 57, 80
3, 14684, Note_off_c, 1, 57, 100
3, 14688, Note_on_c, 1, 62, 80
3, 14780, Note_off_c, 1, 62, 100
3, 14784, Note_on_c, 1, 68, 80
3, 14876, Note_off_c, 1, 68, 100
3, 14880, Note_on_c, 1, 62, 80
3, 14972, Note_off_c, 1, 62, 100
3, 14976, Note_on_c, 1, 57, 80
3, 15068, Note_off_c, 1, 57, 100
3, 15072, Note_on_c, 1, 61, 80
3, 15164, Note_off_c, 1, 61, 100
3, 15168, Note_on_c, 1, 64, 80
3, 15260, Note_off_c, 1, 64, 100
3, 15264, Note_on_c, 1, 61, 80
3, 15356, Note_off_c, 1, 61, 100
3, 15360, Note_on_c, 1, 57, 80
3, 15452, Note_off_c, 1, 57, 100
3, 15456, Note_on_c, 1, 64, 80
3, 15548, Note_off_c, 1, 64, 100
3, 15552, Note_on_c, 1, 68, 80
3, 15644, Note_off_c, 1, 68, 100
3, 15648, Note_on_c, 1, 64, 80
3, 15740, Note_off_c, 1, 64, 100
3, 15744, Note_on_c, 1, 57, 80
3, 15836, Note_off_c, 1, 57, 100
3, 15840, Note_on_c, 1, 64, 80
3, 15932, Note_off_c, 1, 64, 100
3, 15936, Note_on_c, 1, 69, 80
3, 16028, Note_off_c, 1, 69, 100
3, 16032, Note_on_c, 1, 64, 80
3, 16124, Note_off_c, 1, 64, 100
3, 16128, Note_on_c, 1, 57, 80
3, 16220, Note_off_c, 1, 57, 100
3, 16224, Note_on_c, 1, 62, 80
3, 16316, Note_off_c, 1, 62, 100
3, 16320, Note_on_c, 1, 68, 80
3, 16412, Note_off_c, 1, 68, 100
3, 16416, Note_on_c, 1, 62, 80
3, 16508, Note_off_c, 1, 62, 100
3, 16512, Note_on_c, 1, 57, 80
3, 16604, Note_off_c, 1, 57, 100
3, 16608, Note_on_c, 1, 61, 80
3, 16700, Note_off_c, 1, 61, 100
3, 16704, Note_on_c, 1, 64, 80
3, 16796, Note_off_c, 1, 64, 100
3, 16800, Note_on_c, 1, 61, 80
3, 16892, Note_off_c, 1, 61, 100
3, 16896, Note_on_c, 1, 57, 80
3, 16988, Note_off_c, 1, 57, 100
3, 16992, Note_on_c, 1, 64, 80
3, 17084, Note_off_c, 1, 64, 100
3, 17088, Note_on_c, 1, 68, 80
3, 17180, Note_off_c, 1, 68, 100
3, 17184, Note_on_c, 1, 64, 80
3, 17276, Note_off_c, 1, 64, 100
3, 17280, Note_on_c, 1, 57, 80
3, 17372, Note_off_c, 1, 57, 100
3, 17376, Note_on_c, 1, 64, 80
3, 17468, Note_off_c, 1, 64, 100
3, 17472, Note_on_c, 1, 69, 80
3, 17564, Note_off_c, 1, 69, 100
3, 17568, Note_on_c, 1, 64, 80
3, 17660, Note_off_c, 1, 64, 100
3, 17664, Note_on_c, 1, 57, 80
3, 17756, Note_off_c, 1, 57, 100
3, 17760, Note_on_c, 1, 62, 80
3, 17852, Note_off_c, 1, 62, 100
3, 17856, Note_on_c, 1, 68, 80
3, 17948, Note_off_c, 1, 68, 100
3, 17952, Note_on_c, 1, 62, 80
3, 18044, Note_off_c, 1, 62, 100
3, 18048, Note_on_c, 1, 61, 80
3, 18048, Note_on_c, 1, 64, 80
3, 18048, Note_on_c, 1, 57, 80
3, 18236, Note_off_c, 1, 61, 100
3, 18236, Note_off_c, 1, 64, 100
3, 18236, Note_off_c, 1, 57, 100
3, 19680, Note_on_c, 1, 38, 80
3, 19772, Note_off_c, 1, 38, 100
3, 19776, Note_on_c, 1, 50, 80
3, 19868, Note_off_c, 1, 50, 100
3, 20064, Note_on_c, 1, 50, 80
3, 20156, Note_off_c, 1, 50, 100
3, 20160, Note_on_c, 1, 62, 80
3, 20252, Note_off_c, 1, 62, 100
3, 20448, Note_on_c, 1, 62, 80
3, 20540, Note_off_c, 1, 62, 100
3, 20544, Note_on_c, 1, 74, 80
3, 20636, Note_off_c, 1, 74, 100
3, 22080, Note_on_c, 1, 33, 80
3, 22268, Note_off_c, 1, 33, 100
3, 22272, Note_on_c, 1, 33, 80
3, 22460, Note_off_c, 1, 33, 100
3, 22464, Note_on_c, 1, 33, 80
3, 22652, Note_off_c, 1, 33, 100
3, 22752, Note_on_c, 1, 33, 80
3, 22844, Note_off_c, 1, 33, 100
3, 22848, Note_on_c, 1, 45, 80
3, 22940, Note_off_c, 1, 45, 100
3, 23136, Note_on_c, 1, 45, 80
3, 23228, Note_off_c, 1, 45, 100
3, 23232, Note_on_c, 1, 57, 80
3, 23324, Note_off_c, 1, 57, 100
3, 23520, Note_on_c, 1, 57, 80
3, 23612, Note_off_c, 1, 57, 100
3, 23616, Note_on_c, 1, 69, 80
3, 23708, Note_off_c, 1, 69, 100
3, 25056, Note_on_c, 1, 57, 80
3, 25148, Note_off_c, 1, 57, 100
3, 25152, Note_on_c, 1, 50, 80
3, 25244, Note_off_c, 1, 50, 100
3, 25248, Note_on_c, 1, 57, 80
3, 25340, Note_off_c, 1, 57, 100
3, 25344, Note_on_c, 1, 49, 80
3, 25436, Note_off_c, 1, 49, 100
3, 25440, Note_on_c, 1, 57, 80
3, 25532, Note_off_c, 1, 57, 100
3, 25536, Note_on_c, 1, 45, 80
3, 25628, Note_off_c, 1, 45, 100
3, 25632, Note_on_c, 1, 57, 80
3, 25724, Note_off_c, 1, 57, 100
3, 25824, Note_on_c, 1, 57, 80
3, 25916, Note_off_c, 1, 57, 100
3, 25920, Note_on_c, 1, 50, 80
3, 26012, Note_off_c, 1, 50, 100
3, 26016, Note_on_c, 1, 57, 80
3, 26108, Note_off_c, 1, 57, 100
3, 26112, Note_on_c, 1, 49, 80
3, 26204, Note_off_c, 1, 49, 100
3, 26208, Note_on_c, 1, 57, 80
3, 26300, Note_off_c, 1, 57, 100
3, 26304, Note_on_c, 1, 45, 80
3, 26396, Note_off_c, 1, 45, 100
3, 26400, Note_on_c, 1, 57, 80
3, 26492, Note_off_c, 1, 57, 100
3, 26496, Note_on_c, 1, 50, 80
3, 26876, Note_off_c, 1, 50, 100
3, 26880, Note_on_c, 1, 52, 80
3, 27260, Note_off_c, 1, 52, 100
3, 27264, Note_on_c, 1, 57, 80
3, 27356, Note_off_c, 1, 57, 100
3, 27360, Note_on_c, 1, 69, 80
3, 27452, Note_off_c, 1, 69, 100
3, 27456, Note_on_c, 1, 64, 80
3, 27456, Note_on_c, 1, 67, 80
3, 27548, Note_off_c, 1, 64, 100
3, 27548, Note_off_c, 1, 67, 100
3, 27552, Note_on_c, 1, 69, 80
3, 27644, Note_off_c, 1, 69, 100
3, 27648, Note_on_c, 1, 66, 80
3, 27648, Note_on_c, 1, 62, 80
3, 27740, Note_off_c, 1, 66, 100
3, 27740, Note_off_c, 1, 62, 100
3, 27744, Note_on_c, 1, 69, 80
3, 27836, Note_off_c, 1, 69, 100
3, 27840, Note_on_c, 1, 64, 80
3, 27840, Note_on_c, 1, 61, 80
3, 27932, Note_off_c, 1, 64, 100
3, 27932, Note_off_c, 1, 61, 100
3, 27936, Note_on_c, 1, 69, 80
3, 28028, Note_off_c, 1, 69, 100
3, 28032, Note_on_c, 1, 66, 80
3, 28032, Note_on_c, 1, 62, 80
3, 28124, Note_off_c, 1, 66, 100
3, 28124, Note_off_c, 1, 62, 100
3, 28128, Note_on_c, 1, 69, 80
3, 28220, Note_off_c, 1, 69, 100
3, 28224, Note_on_c, 1, 66, 80
3, 28224, Note_on_c, 1, 62, 80
3, 28316, Note_off_c, 1, 66, 100
3, 28316, Note_off_c, 1, 62, 100
3, 28320, Note_on_c, 1, 69, 80
3, 28412, Note_off_c, 1, 69, 100
3, 28416, Note_on_c, 1, 64, 80
3, 28416, Note_on_c, 1, 61, 80
3, 28508, Note_off_c, 1, 64, 100
3, 28508, Note_off_c, 1, 61, 100
3, 28512, Note_on_c, 1, 69, 80
3, 28604, Note_off_c, 1, 69, 100
3, 28608, Note_on_c, 1, 64, 80
3, 28608, Note_on_c, 1, 57, 80
3, 28700, Note_off_c, 1, 64, 100
3, 28700, Note_off_c, 1, 57, 100
3, 28704, Note_on_c, 1, 69, 80
3, 28796, Note_off_c, 1, 69, 100
3, 28800, Note_on_c, 1, 66, 80
3, 28800, Note_on_c, 1, 62, 80
3, 28892, Note_off_c, 1, 66, 100
3, 28892, Note_off_c, 1, 62, 100
3, 28896, Note_on_c, 1, 69, 80
3, 28988, Note_off_c, 1, 69, 100
3, 28992, Note_on_c, 1, 66, 80
3, 28992, Note_on_c, 1, 62, 80
3, 29084, Note_off_c, 1, 66, 100
3, 29084, Note_off_c, 1, 62, 100
3, 29088, Note_on_c, 1, 69, 80
3, 29180, Note_off_c, 1, 69, 100
3, 29184, Note_on_c, 1, 64, 80
3, 29184, Note_on_c, 1, 61, 80
3, 29276, Note_off_c, 1, 64, 100
3, 29276, Note_off_c, 1, 61, 100
3, 29280, Note_on_c, 1, 69, 80
3, 29372, Note_off_c, 1, 69, 100
3, 29376, Note_on_c, 1, 64, 80
3, 29376, Note_on_c, 1, 57, 80
3, 29468, Note_off_c, 1, 64, 100
3, 29468, Note_off_c, 1, 57, 100
3, 29472, Note_on_c, 1, 69, 80
3, 29564, Note_off_c, 1, 69, 100
3, 29568, Note_on_c, 1, 66, 80
3, 29568, Note_on_c, 1, 62, 80
3, 29660, Note_off_c, 1, 66, 100
3, 29660, Note_off_c, 1, 62, 100
3, 29664, Note_on_c, 1, 74, 81
3, 29756, Note_off_c, 1, 74, 100
3, 29760, Note_on_c, 1, 67, 82
3, 29760, Note_on_c, 1, 64, 82
3, 29852, Note_off_c, 1, 67, 100
3, 29852, Note_off_c, 1, 64, 100
3, 29856, Note_on_c, 1, 74, 83
3, 29948, Note_off_c, 1, 74, 100
3, 29952, Note_on_c, 1, 69, 85
3, 29952, Note_on_c, 1, 66, 85
3, 30044, Note_off_c, 1, 69, 100
3, 30044, Note_off_c, 1, 66, 100
3, 30048, Note_on_c, 1, 74, 86
3, 30140, Note_off_c, 1, 74, 100
3, 30144, Note_on_c, 1, 71, 87
3, 30144, Note_on_c, 1, 67, 87
3, 30236, Note_off_c, 1, 71, 100
3, 30236, Note_off_c, 1, 67, 100
3, 30240, Note_on_c, 1, 74, 89
3, 30332, Note_off_c, 1, 74, 100
3, 30336, Note_on_c, 1, 72, 90
3, 30336, Note_on_c, 1, 69, 90
3, 30428, Note_off_c, 1, 72, 100
3, 30428, Note_off_c, 1, 69, 100
3, 30432, Note_on_c, 1, 74, 91
3, 30524, Note_off_c, 1, 74, 100
3, 30528, Note_on_c, 1, 68, 93
3, 30528, Note_on_c, 1, 71, 93
3, 30620, Note_off_c, 1, 68, 100
3, 30620, Note_off_c, 1, 71, 100
3, 30624, Note_on_c, 1, 74, 94
3, 30716, Note_off_c, 1, 74, 100
3, 30720, Note_on_c, 1, 69, 95
3, 30720, Note_on_c, 1, 72, 95
3, 30812, Note_off_c, 1, 69, 100
3, 30812, Note_off_c, 1, 72, 100
3, 30816, Note_on_c, 1, 74, 97
3, 30908, Note_off_c, 1, 74, 100
3, 30912, Note_on_c, 1, 66, 98
3, 30912, Note_on_c, 1, 70, 98
3, 31004, Note_off_c, 1, 66, 100
3, 31004, Note_off_c, 1, 70, 100
3, 31008, Note_on_c, 1, 74, 99
3, 31100, Note_off_c, 1, 74, 100
3, 31104, Note_on_c, 1, 67, 80
3, 31104, Note_on_c, 1, 71, 80
3, 31292, Note_off_c, 1, 67, 100
3, 31292, Note_off_c, 1, 71, 100
3, 31488, Note_on_c, 1, 67, 80
3, 31488, Note_on_c, 1, 71, 80
3, 31488, Note_on_c, 1, 74, 80
3, 31676, Note_off_c, 1, 67, 100
3, 31676, Note_off_c, 1, 71, 100
3, 31676, Note_off_c, 1, 74, 100
3, 31872, Note_on_c, 1, 68, 81
3, 31872, Note_on_c, 1, 71, 81
3, 31872, Note_on_c, 1, 74, 81
3, 31872, Note_on_c, 1, 77, 81
3, 32060, Note_off_c, 1, 68, 100
3, 32060, Note_off_c, 1, 71, 100
3, 32060, Note_off_c, 1, 74, 100
3, 32060, Note_off_c, 1, 77, 100
3, 32256, Note_on_c, 1, 68, 91
3, 32256, Note_on_c, 1, 71, 91
3, 32256, Note_on_c, 1, 74, 91
3, 32256, Note_on_c, 1, 77, 91
3, 32444, Note_off_c, 1, 68, 100
3, 32444, Note_off_c, 1, 71, 100
3, 32444, Note_off_c, 1, 74, 100
3, 32444, Note_off_c, 1, 77, 100
3, 32640, Note_on_c, 1, 78, 110
3, 32640, Note_on_c, 1, 74, 110
3, 32640, Note_on_c, 1, 69, 110
3, 32828, Note_off_c, 1, 78, 100
3, 32828, Note_off_c, 1, 74, 100
3, 32828, Note_off_c, 1, 69, 100
3, 33408, Note_on_c, 1, 69, 110
3, 33408, Note_on_c, 1, 57, 110
3, 33788, Note_off_c, 1, 69, 100
3, 33792, Note_on_c, 1, 67, 110
3, 34172, Note_off_c, 1, 57, 100
3, 34172, Note_off_c, 1, 67, 100
3, 34176, Note_on_c, 1, 62, 110
3, 34176, Note_on_c, 1, 66, 110
3, 34364, Note_off_c, 1, 62, 100
3, 34364, Note_off_c, 1, 66, 100
3, 34944, Note_on_c, 1, 57, 110
3, 34944, Note_on_c, 1, 45, 110
3, 35324, Note_off_c, 1, 57, 100
3, 35328, Note_on_c, 1, 55, 110
3, 35708, Note_off_c, 1, 45, 100
3, 35708, Note_off_c, 1, 55, 100
3, 35712, Note_on_c, 1, 54, 80
3, 35712, Note_on_c, 1, 50, 80
3, 35900, Note_off_c, 1, 54, 100
3, 35900, Note_off_c, 1, 50, 100
3, 36672, Note_on_c, 1, 38, 80
3, 36860, Note_off_c, 1, 38, 100
3, 36864, Note_on_c, 1, 42, 80
3, 37052, Note_off_c, 1, 42, 100
3, 37056, Note_on_c, 1, 45, 80
3, 37244, Note_off_c, 1, 45, 100
3, 37248, Note_on_c, 1, 50, 80
3, 38204, Note_off_c, 1, 50, 100
3, 38208, Note_on_c, 1, 50, 80
3, 38396, Note_off_c, 1, 50, 100
3, 38400, Note_on_c, 1, 49, 80
3, 38588, Note_off_c, 1, 49, 100
3, 38592, Note_on_c, 1, 47, 80
3, 38780, Note_off_c, 1, 47, 100
3, 38784, Note_on_c, 1, 49, 80
3, 39164, Note_off_c, 1, 49, 100
3, 39168, Note_on_c, 1, 45, 80
3, 39740, Note_off_c, 1, 45, 100
3, 39744, Note_on_c, 1, 46, 80
3, 39932, Note_off_c, 1, 46, 100
3, 39936, Note_on_c, 1, 47, 80
3, 40124, Note_off_c, 1, 47, 100
3, 40128, Note_on_c, 1, 42, 80
3, 40316, Note_off_c, 1, 42, 100
3, 40320, Note_on_c, 1, 43, 80
3, 40508, Note_off_c, 1, 43, 100
3, 40512, Note_on_c, 1, 44, 80
3, 40700, Note_off_c, 1, 44, 100
3, 40704, Note_on_c, 1, 45, 80
3, 41276, Note_off_c, 1, 45, 100
3, 41280, Note_on_c, 1, 46, 80
3, 41468, Note_off_c, 1, 46, 100
3, 41472, Note_on_c, 1, 47, 80
3, 41660, Note_off_c, 1, 47, 100
3, 41664, Note_on_c, 1, 42, 80
3, 41852, Note_off_c, 1, 42, 100
3, 41856, Note_on_c, 1, 43, 80
3, 42044, Note_off_c, 1, 43, 100
3, 42048, Note_on_c, 1, 44, 80
3, 42236, Note_off_c, 1, 44, 100
3, 42240, Note_on_c, 1, 45, 80
3, 42812, Note_off_c, 1, 45, 100
3, 42816, Note_on_c, 1, 46, 80
3, 43004, Note_off_c, 1, 46, 100
3, 43008, Note_on_c, 1, 47, 80
3, 43196, Note_off_c, 1, 47, 100
3, 43200, Note_on_c, 1, 48, 80
3, 43388, Note_off_c, 1, 48, 100
3, 43392, Note_on_c, 1, 47, 80
3, 43580, Note_off_c, 1, 47, 100
3, 43584, Note_on_c, 1, 43, 80
3, 43772, Note_off_c, 1, 43, 100
3, 43776, Note_on_c, 1, 45, 80
3, 43964, Note_off_c, 1, 45, 100
3, 43968, Note_on_c, 1, 33, 80
3, 44156, Note_off_c, 1, 33, 100
3, 44160, Note_on_c, 1, 38, 80
3, 44736, Note_on_c, 1, 50, 80
3, 44924, Note_off_c, 1, 50, 100
3, 44928, Note_on_c, 1, 50, 80
3, 45500, Note_off_c, 1, 50, 100
3, 45504, Note_on_c, 1, 50, 80
3, 45692, Note_off_c, 1, 38, 100
3, 45692, Note_off_c, 1, 50, 100
3, 45696, Note_on_c, 1, 50, 80
3, 45696, Note_on_c, 1, 54, 80
3, 45788, Note_off_c, 1, 54, 100
3, 45792, Note_on_c, 1, 57, 80
3, 45884, Note_off_c, 1, 57, 100
3, 45888, Note_on_c, 1, 54, 80
3, 45980, Note_off_c, 1, 54, 100
3, 45984, Note_on_c, 1, 57, 80
3, 46076, Note_off_c, 1, 57, 100
3, 46080, Note_on_c, 1, 54, 80
3, 46172, Note_off_c, 1, 54, 100
3, 46176, Note_on_c, 1, 57, 80
3, 46268, Note_off_c, 1, 50, 100
3, 46268, Note_off_c, 1, 57, 100
3, 46272, Note_on_c, 1, 50, 80
3, 46272, Note_on_c, 1, 55, 80
3, 46364, Note_off_c, 1, 55, 100
3, 46368, Note_on_c, 1, 57, 80
3, 46460, Note_off_c, 1, 57, 100
3, 46464, Note_on_c, 1, 54, 80
3, 46556, Note_off_c, 1, 54, 100
3, 46560, Note_on_c, 1, 57, 80
3, 46652, Note_off_c, 1, 50, 100
3, 46652, Note_off_c, 1, 57, 100
3, 46656, Note_on_c, 1, 50, 80
3, 46656, Note_on_c, 1, 55, 80
3, 46748, Note_off_c, 1, 55, 100
3, 46752, Note_on_c, 1, 57, 80
3, 46844, Note_off_c, 1, 57, 100
3, 46848, Note_on_c, 1, 54, 80
3, 46940, Note_off_c, 1, 54, 100
3, 46944, Note_on_c, 1, 57, 80
3, 47036, Note_off_c, 1, 50, 100
3, 47036, Note_off_c, 1, 57, 100
3, 47040, Note_on_c, 1, 50, 80
3, 47040, Note_on_c, 1, 55, 80
3, 47132, Note_off_c, 1, 55, 100
3, 47136, Note_on_c, 1, 57, 80
3, 47228, Note_off_c, 1, 50, 100
3, 47228, Note_off_c, 1, 57, 100
3, 47232, Note_on_c, 1, 57, 80
3, 47232, Note_on_c, 1, 50, 80
3, 47232, Note_on_c, 1, 61, 80
3, 47996, Note_off_c, 1, 61, 100
3, 48000, Note_on_c, 1, 62, 80
3, 48188, Note_off_c, 1, 50, 100
3, 48188, Note_off_c, 1, 57, 100
3, 48188, Note_off_c, 1, 62, 100
3, 48960, Note_on_c, 1, 43, 80
3, 49056, Note_on_c, 1, 47, 80
3, 49152, Note_on_c, 1, 50, 80
3, 49532, Note_off_c, 1, 43, 100
3, 49532, Note_off_c, 1, 47, 100
3, 49532, Note_off_c, 1, 50, 100
3, 49728, Note_on_c, 1, 55, 80
3, 49824, Note_on_c, 1, 59, 80
3, 49920, Note_on_c, 1, 62, 80
3, 50300, Note_off_c, 1, 55, 100
3, 50300, Note_off_c, 1, 59, 100
3, 50300, Note_off_c, 1, 62, 100
3, 50496, Note_on_c, 1, 43, 80
3, 50592, Note_on_c, 1, 48, 80
3, 50688, Note_on_c, 1, 52, 80
3, 51068, Note_off_c, 1, 43, 100
3, 51068, Note_off_c, 1, 48, 100
3, 51068, Note_off_c, 1, 52, 100
3, 51264, Note_on_c, 1, 55, 80
3, 51360, Note_on_c, 1, 60, 80
3, 51456, Note_on_c, 1, 64, 80
3, 51836, Note_off_c, 1, 55, 100
3, 51836, Note_off_c, 1, 60, 100
3, 51836, Note_off_c, 1, 64, 100
3, 51936, Note_on_c, 1, 54, 80
3, 52028, Note_off_c, 1, 54, 100
3, 52032, Note_on_c, 1, 57, 80
3, 52124, Note_off_c, 1, 57, 100
3, 52128, Note_on_c, 1, 62, 80
3, 52220, Note_off_c, 1, 62, 100
3, 52320, Note_on_c, 1, 50, 80
3, 52412, Note_off_c, 1, 50, 100
3, 52416, Note_on_c, 1, 57, 80
3, 52508, Note_off_c, 1, 57, 100
3, 52512, Note_on_c, 1, 60, 80
3, 52604, Note_off_c, 1, 60, 100
3, 52704, Note_on_c, 1, 55, 80
3, 52796, Note_off_c, 1, 55, 100
3, 52800, Note_on_c, 1, 59, 80
3, 52892, Note_off_c, 1, 59, 100
3, 52896, Note_on_c, 1, 62, 80
3, 52988, Note_off_c, 1, 62, 100
3, 53088, Note_on_c, 1, 48, 80
3, 53180, Note_off_c, 1, 48, 100
3, 53184, Note_on_c, 1, 52, 80
3, 53276, Note_off_c, 1, 52, 100
3, 53280, Note_on_c, 1, 57, 80
3, 53372, Note_off_c, 1, 57, 100
3, 53472, Note_on_c, 1, 50, 80
3, 53564, Note_off_c, 1, 50, 100
3, 53568, Note_on_c, 1, 55, 80
3, 53660, Note_off_c, 1, 55, 100
3, 53664, Note_on_c, 1, 59, 80
3, 53756, Note_off_c, 1, 59, 100
3, 53856, Note_on_c, 1, 38, 80
3, 53948, Note_off_c, 1, 38, 100
3, 53952, Note_on_c, 1, 45, 80
3, 54044, Note_off_c, 1, 45, 100
3, 54048, Note_on_c, 1, 50, 80
3, 54140, Note_off_c, 1, 50, 100
3, 54144, Note_on_c, 1, 43, 80
3, 54236, Note_off_c, 1, 43, 100
3, 54240, Note_on_c, 1, 47, 80
3, 54332, Note_off_c, 1, 47, 100
3, 54336, Note_on_c, 1, 50, 80
3, 54428, Note_off_c, 1, 50, 100
3, 54432, Note_on_c, 1, 47, 80
3, 54524, Note_off_c, 1, 47, 100
3, 54528, Note_on_c, 1, 43, 80
3, 54620, Note_off_c, 1, 43, 100
3, 54624, Note_on_c, 1, 47, 80
3, 54716, Note_off_c, 1, 47, 100
3, 54720, Note_on_c, 1, 50, 80
3, 54812, Note_off_c, 1, 50, 100
3, 54816, Note_on_c, 1, 47, 80
3, 54908, Note_off_c, 1, 47, 100
3, 54912, Note_on_c, 1, 43, 80
3, 55004, Note_off_c, 1, 43, 100
3, 55008, Note_on_c, 1, 47, 80
3, 55100, Note_off_c, 1, 47, 100
3, 55104, Note_on_c, 1, 50, 80
3, 55196, Note_off_c, 1, 50, 100
3, 55200, Note_on_c, 1, 47, 80
3, 55292, Note_off_c, 1, 47, 100
3, 55296, Note_on_c, 1, 43, 80
3, 55388, Note_off_c, 1, 43, 100
3, 55392, Note_on_c, 1, 47, 80
3, 55484, Note_off_c, 1, 47, 100
3, 55488, Note_on_c, 1, 50, 80
3, 55580, Note_off_c, 1, 50, 100
3, 55584, Note_on_c, 1, 47, 80
3, 55676, Note_off_c, 1, 47, 100
3, 55680, Note_on_c, 1, 45, 80
3, 55772, Note_off_c, 1, 45, 100
3, 55776, Note_on_c, 1, 48, 80
3, 55868, Note_off_c, 1, 48, 100
3, 55872, Note_on_c, 1, 54, 80
3, 55964, Note_off_c, 1, 54, 100
3, 55968, Note_on_c, 1, 48, 80
3, 56060, Note_off_c, 1, 48, 100
3, 56064, Note_on_c, 1, 45, 80
3, 56156, Note_off_c, 1, 45, 100
3, 56160, Note_on_c, 1, 48, 80
3, 56252, Note_off_c, 1, 48, 100
3, 56256, Note_on_c, 1, 54, 80
3, 56348, Note_off_c, 1, 54, 100
3, 56352, Note_on_c, 1, 48, 80
3, 56444, Note_off_c, 1, 48, 100
3, 56448, Note_on_c, 1, 45, 80
3, 56540, Note_off_c, 1, 45, 100
3, 56544, Note_on_c, 1, 48, 80
3, 56636, Note_off_c, 1, 48, 100
3, 56640, Note_on_c, 1, 54, 80
3, 56732, Note_off_c, 1, 54, 100
3, 56736, Note_on_c, 1, 48, 80
3, 56828, Note_off_c, 1, 48, 100
3, 56832, Note_on_c, 1, 45, 80
3, 56924, Note_off_c, 1, 45, 100
3, 56928, Note_on_c, 1, 48, 80
3, 57020, Note_off_c, 1, 48, 100
3, 57024, Note_on_c, 1, 54, 80
3, 57116, Note_off_c, 1, 54, 100
3, 57120, Note_on_c, 1, 48, 80
3, 57212, Note_off_c, 1, 48, 100
3, 57216, Note_on_c, 1, 47, 80
3, 57308, Note_off_c, 1, 47, 100
3, 57312, Note_on_c, 1, 50, 80
3, 57404, Note_off_c, 1, 50, 100
3, 57408, Note_on_c, 1, 55, 80
3, 57500, Note_off_c, 1, 55, 100
3, 57504, Note_on_c, 1, 50, 80
3, 57596, Note_off_c, 1, 50, 100
3, 57600, Note_on_c, 1, 47, 80
3, 57692, Note_off_c, 1, 47, 100
3, 57696, Note_on_c, 1, 50, 80
3, 57788, Note_off_c, 1, 50, 100
3, 57792, Note_on_c, 1, 55, 80
3, 57884, Note_off_c, 1, 55, 100
3, 57888, Note_on_c, 1, 50, 80
3, 57980, Note_off_c, 1, 50, 100
3, 57984, Note_on_c, 1, 47, 80
3, 58076, Note_off_c, 1, 47, 100
3, 58080, Note_on_c, 1, 50, 80
3, 58172, Note_off_c, 1, 50, 100
3, 58176, Note_on_c, 1, 55, 80
3, 58268, Note_off_c, 1, 55, 100
3, 58272, Note_on_c, 1, 50, 80
3, 58364, Note_off_c, 1, 50, 100
3, 58368, Note_on_c, 1, 47, 80
3, 58460, Note_off_c, 1, 47, 100
3, 58464, Note_on_c, 1, 50, 80
3, 58556, Note_off_c, 1, 50, 100
3, 58560, Note_on_c, 1, 55, 80
3, 58652, Note_off_c, 1, 55, 100
3, 58656, Note_on_c, 1, 50, 80
3, 58748, Note_off_c, 1, 50, 100
3, 58752, Note_on_c, 1, 48, 80
3, 58844, Note_off_c, 1, 48, 100
3, 58848, Note_on_c, 1, 52, 80
3, 58940, Note_off_c, 1, 52, 100
3, 58944, Note_on_c, 1, 57, 81
3, 59036, Note_off_c, 1, 57, 100
3, 59040, Note_on_c, 1, 52, 81
3, 59132, Note_off_c, 1, 52, 100
3, 59136, Note_on_c, 1, 49, 82
3, 59228, Note_off_c, 1, 49, 100
3, 59232, Note_on_c, 1, 52, 82
3, 59324, Note_off_c, 1, 52, 100
3, 59328, Note_on_c, 1, 57, 83
3, 59420, Note_off_c, 1, 57, 100
3, 59424, Note_on_c, 1, 52, 83
3, 59516, Note_off_c, 1, 52, 100
3, 59520, Note_on_c, 1, 50, 84
3, 59612, Note_off_c, 1, 50, 100
3, 59616, Note_on_c, 1, 54, 84
3, 59708, Note_off_c, 1, 54, 100
3, 59712, Note_on_c, 1, 57, 85
3, 59804, Note_off_c, 1, 57, 100
3, 59808, Note_on_c, 1, 54, 85
3, 59900, Note_off_c, 1, 54, 100
3, 59904, Note_on_c, 1, 50, 86
3, 59996, Note_off_c, 1, 50, 100
3, 60000, Note_on_c, 1, 54, 86
3, 60092, Note_off_c, 1, 54, 100
3, 60096, Note_on_c, 1, 59, 87
3, 60188, Note_off_c, 1, 59, 100
3, 60192, Note_on_c, 1, 54, 87
3, 60284, Note_off_c, 1, 54, 100
3, 60288, Note_on_c, 1, 52, 88
3, 60380, Note_off_c, 1, 52, 100
3, 60384, Note_on_c, 1, 55, 88
3, 60476, Note_off_c, 1, 55, 100
3, 60480, Note_on_c, 1, 59, 89
3, 60572, Note_off_c, 1, 59, 100
3, 60576, Note_on_c, 1, 55, 89
3, 60668, Note_off_c, 1, 55, 100
3, 60672, Note_on_c, 1, 52, 90
3, 60764, Note_off_c, 1, 52, 100
3, 60768, Note_on_c, 1, 55, 90
3, 60860, Note_off_c, 1, 55, 100
3, 60864, Note_on_c, 1, 61, 91
3, 60956, Note_off_c, 1, 61, 100
3, 60960, Note_on_c, 1, 55, 91
3, 61052, Note_off_c, 1, 55, 100
3, 61056, Note_on_c, 1, 54, 92
3, 61148, Note_off_c, 1, 54, 100
3, 61152, Note_on_c, 1, 57, 92
3, 61244, Note_off_c, 1, 57, 100
3, 61248, Note_on_c, 1, 61, 93
3, 61340, Note_off_c, 1, 61, 100
3, 61344, Note_on_c, 1, 57, 93
3, 61436, Note_off_c, 1, 57, 100
3, 61440, Note_on_c, 1, 54, 94
3, 61532, Note_off_c, 1, 54, 100
3, 61536, Note_on_c, 1, 57, 94
3, 61628, Note_off_c, 1, 57, 100
3, 61632, Note_on_c, 1, 62, 95
3, 61724, Note_off_c, 1, 62, 100
3, 61728, Note_on_c, 1, 57, 95
3, 61820, Note_off_c, 1, 57, 100
3, 61824, Note_on_c, 1, 55, 96
3, 61916, Note_off_c, 1, 55, 100
3, 61920, Note_on_c, 1, 59, 96
3, 62012, Note_off_c, 1, 59, 100
3, 62016, Note_on_c, 1, 64, 97
3, 62108, Note_off_c, 1, 64, 100
3, 62112, Note_on_c, 1, 59, 97
3, 62204, Note_off_c, 1, 59, 100
3, 62208, Note_on_c, 1, 56, 98
3, 62300, Note_off_c, 1, 56, 100
3, 62304, Note_on_c, 1, 59, 98
3, 62396, Note_off_c, 1, 59, 100
3, 62400, Note_on_c, 1, 64, 99
3, 62492, Note_off_c, 1, 64, 100
3, 62496, Note_on_c, 1, 59, 99
3, 62588, Note_off_c, 1, 59, 100
3, 62592, Note_on_c, 1, 57, 80
3, 62684, Note_off_c, 1, 57, 100
3, 62688, Note_on_c, 1, 64, 80
3, 62780, Note_off_c, 1, 64, 100
3, 62784, Note_on_c, 1, 69, 80
3, 62876, Note_off_c, 1, 69, 100
3, 62880, Note_on_c, 1, 64, 80
3, 62972, Note_off_c, 1, 64, 100
3, 62976, Note_on_c, 1, 57, 80
3, 63068, Note_off_c, 1, 57, 100
3, 63072, Note_on_c, 1, 62, 80
3, 63164, Note_off_c, 1, 62, 100
3, 63168, Note_on_c, 1, 68, 80
3, 63260, Note_off_c, 1, 68, 100
3, 63264, Note_on_c, 1, 62, 80
3, 63356, Note_off_c, 1, 62, 100
3, 63360, Note_on_c, 1, 57, 80
3, 63452, Note_off_c, 1, 57, 100
3, 63456, Note_on_c, 1, 61, 80
3, 63548, Note_off_c, 1, 61, 100
3, 63552, Note_on_c, 1, 64, 80
3, 63644, Note_off_c, 1, 64, 100
3, 63648, Note_on_c, 1, 61, 80
3, 63740, Note_off_c, 1, 61, 100
3, 63744, Note_on_c, 1, 57, 80
3, 63836, Note_off_c, 1, 57, 100
3, 63840, Note_on_c, 1, 64, 80
3, 63932, Note_off_c, 1, 64, 100
3, 63936, Note_on_c, 1, 68, 80
3, 64028, Note_off_c, 1, 68, 100
3, 64032, Note_on_c, 1, 64, 80
3, 64124, Note_off_c, 1, 64, 100
3, 64128, Note_on_c, 1, 57, 80
3, 64220, Note_off_c, 1, 57, 100
3, 64224, Note_on_c, 1, 64, 80
3, 64316, Note_off_c, 1, 64, 100
3, 64320, Note_on_c, 1, 69, 80
3, 64412, Note_off_c, 1, 69, 100
3, 64416, Note_on_c, 1, 64, 80
3, 64508, Note_off_c, 1, 64, 100
3, 64512, Note_on_c, 1, 57, 80
3, 64604, Note_off_c, 1, 57, 100
3, 64608, Note_on_c, 1, 62, 80
3, 64700, Note_off_c, 1, 62, 100
3, 64704, Note_on_c, 1, 68, 80
3, 64796, Note_off_c, 1, 68, 100
3, 64800, Note_on_c, 1, 62, 80
3, 64892, Note_off_c, 1, 62, 100
3, 64896, Note_on_c, 1, 57, 80
3, 64988, Note_off_c, 1, 57, 100
3, 64992, Note_on_c, 1, 61, 80
3, 65084, Note_off_c, 1, 61, 100
3, 65088, Note_on_c, 1, 64, 80
3, 65180, Note_off_c, 1, 64, 100
3, 65184, Note_on_c, 1, 61, 80
3, 65276, Note_off_c, 1, 61, 100
3, 65280, Note_on_c, 1, 57, 80
3, 65372, Note_off_c, 1, 57, 100
3, 65376, Note_on_c, 1, 64, 80
3, 65468, Note_off_c, 1, 64, 100
3, 65472, Note_on_c, 1, 68, 80
3, 65564, Note_off_c, 1, 68, 100
3, 65568, Note_on_c, 1, 64, 80
3, 65660, Note_off_c, 1, 64, 100
3, 65664, Note_on_c, 1, 57, 80
3, 65756, Note_off_c, 1, 57, 100
3, 65760, Note_on_c, 1, 64, 80
3, 65852, Note_off_c, 1, 64, 100
3, 65856, Note_on_c, 1, 69, 80
3, 65948, Note_off_c, 1, 69, 100
3, 65952, Note_on_c, 1, 64, 80
3, 66044, Note_off_c, 1, 64, 100
3, 66048, Note_on_c, 1, 57, 80
3, 66140, Note_off_c, 1, 57, 100
3, 66144, Note_on_c, 1, 62, 80
3, 66236, Note_off_c, 1, 62, 100
3, 66240, Note_on_c, 1, 68, 80
3, 66332, Note_off_c, 1, 68, 100
3, 66336, Note_on_c, 1, 62, 80
3, 66428, Note_off_c, 1, 62, 100
3, 66432, Note_on_c, 1, 61, 80
3, 66432, Note_on_c, 1, 64, 80
3, 66432, Note_on_c, 1, 57, 80
3, 66620, Note_off_c, 1, 61, 100
3, 66620, Note_off_c, 1, 64, 100
3, 66620, Note_off_c, 1, 57, 100
3, 68064, Note_on_c, 1, 38, 80
3, 68156, Note_off_c, 1, 38, 100
3, 68160, Note_on_c, 1, 50, 80
3, 68252, Note_off_c, 1, 50, 100
3, 68448, Note_on_c, 1, 50, 80
3, 68540, Note_off_c, 1, 50, 100
3, 68544, Note_on_c, 1, 62, 80
3, 68636, Note_off_c, 1, 62, 100
3, 68832, Note_on_c, 1, 62, 80
3, 68924, Note_off_c, 1, 62, 100
3, 68928, Note_on_c, 1, 74, 80
3, 69020, Note_off_c, 1, 74, 100
3, 70464, Note_on_c, 1, 33, 80
3, 70652, Note_off_c, 1, 33, 100
3, 70656, Note_on_c, 1, 33, 80
3, 70844, Note_off_c, 1, 33, 100
3, 70848, Note_on_c, 1, 33, 80
3, 71036, Note_off_c, 1, 33, 100
3, 71136, Note_on_c, 1, 33, 80
3, 71228, Note_off_c, 1, 33, 100
3, 71232, Note_on_c, 1, 45, 80
3, 71324, Note_off_c, 1, 45, 100
3, 71520, Note_on_c, 1, 45, 80
3, 71612, Note_off_c, 1, 45, 100
3, 71616, Note_on_c, 1, 57, 80
3, 71708, Note_off_c, 1, 57, 100
3, 71904, Note_on_c, 1, 57, 80
3, 71996, Note_off_c, 1, 57, 100
3, 72000, Note_on_c, 1, 69, 80
3, 72092, Note_off_c, 1, 69, 100
3, 73440, Note_on_c, 1, 57, 80
3, 73532, Note_off_c, 1, 57, 100
3, 73536, Note_on_c, 1, 50, 80
3, 73628, Note_off_c, 1, 50, 100
3, 73632, Note_on_c, 1, 57, 80
3, 73724, Note_off_c, 1, 57, 100
3, 73728, Note_on_c, 1, 49, 80
3, 73820, Note_off_c, 1, 49, 100
3, 73824, Note_on_c, 1, 57, 80
3, 73916, Note_off_c, 1, 57, 100
3, 73920, Note_on_c, 1, 45, 80
3, 74012, Note_off_c, 1, 45, 100
3, 74016, Note_on_c, 1, 57, 80
3, 74108, Note_off_c, 1, 57, 100
3, 74208, Note_on_c, 1, 57, 80
3, 74300, Note_off_c, 1, 57, 100
3, 74304, Note_on_c, 1, 50, 80
3, 74396, Note_off_c, 1, 50, 100
3, 74400, Note_on_c, 1, 57, 80
3, 74492, Note_off_c, 1, 57, 100
3, 74496, Note_on_c, 1, 49, 80
3, 74588, Note_off_c, 1, 49, 100
3, 74592, Note_on_c, 1, 57, 80
3, 74684, Note_off_c, 1, 57, 100
3, 74688, Note_on_c, 1, 45, 80
3, 74780, Note_off_c, 1, 45, 100
3, 74784, Note_on_c, 1, 57, 80
3, 74876, Note_off_c, 1, 57, 100
3, 74880, Note_on_c, 1, 50, 80
3, 75260, Note_off_c, 1, 50, 100
3, 75264, Note_on_c, 1, 52, 80
3, 75644, Note_off_c, 1, 52, 100
3, 75648, Note_on_c, 1, 57, 80
3, 75740, Note_off_c, 1, 57, 100
3, 75744, Note_on_c, 1, 69, 80
3, 75836, Note_off_c, 1, 69, 100
3, 75840, Note_on_c, 1, 64, 80
3, 75840, Note_on_c, 1, 67, 80
3, 75932, Note_off_c, 1, 64, 100
3, 75932, Note_off_c, 1, 67, 100
3, 75936, Note_on_c, 1, 69, 80
3, 76028, Note_off_c, 1, 69, 100
3, 76032, Note_on_c, 1, 66, 80
3, 76032, Note_on_c, 1, 62, 80
3, 76124, Note_off_c, 1, 66, 100
3, 76124, Note_off_c, 1, 62, 100
3, 76128, Note_on_c, 1, 69, 80
3, 76220, Note_off_c, 1, 69, 100
3, 76224, Note_on_c, 1, 64, 80
3, 76224, Note_on_c, 1, 61, 80
3, 76316, Note_off_c, 1, 64, 100
3, 76316, Note_off_c, 1, 61, 100
3, 76320, Note_on_c, 1, 69, 80
3, 76412, Note_off_c, 1, 69, 100
3, 76416, Note_on_c, 1, 66, 80
3, 76416, Note_on_c, 1, 62, 80
3, 76508, Note_off_c, 1, 66, 100
3, 76508, Note_off_c, 1, 62, 100
3, 76512, Note_on_c, 1, 69, 80
3, 76604, Note_off_c, 1, 69, 100
3, 76608, Note_on_c, 1, 66, 80
3, 76608, Note_on_c, 1, 62, 80
3, 76700, Note_off_c, 1, 66, 100
3, 76700, Note_off_c, 1, 62, 100
3, 76704, Note_on_c, 1, 69, 80
3, 76796, Note_off_c, 1, 69, 100
3, 76800, Note_on_c, 1, 64, 80
3, 76800, Note_on_c, 1, 61, 80
3, 76892, Note_off_c, 1, 64, 100
3, 76892, Note_off_c, 1, 61, 100
3, 76896, Note_on_c, 1, 69, 80
3, 76988, Note_off_c, 1, 69, 100
3, 76992, Note_on_c, 1, 64, 80
3, 76992, Note_on_c, 1, 57, 80
3, 77084, Note_off_c, 1, 64, 100
3, 77084, Note_off_c, 1, 57, 100
3, 77088, Note_on_c, 1, 69, 80
3, 77180, Note_off_c, 1, 69, 100
3, 77184, Note_on_c, 1, 66, 80
3, 77184, Note_on_c, 1, 62, 80
3, 77276, Note_off_c, 1, 66, 100
3, 77276, Note_off_c, 1, 62, 100
3, 77280, Note_on_c, 1, 69, 80
3, 77372, Note_off_c, 1, 69, 100
3, 77376, Note_on_c, 1, 66, 80
3, 77376, Note_on_c, 1, 62, 80
3, 77468, Note_off_c, 1, 66, 100
3, 77468, Note_off_c, 1, 62, 100
3, 77472, Note_on_c, 1, 69, 80
3, 77564, Note_off_c, 1, 69, 100
3, 77568, Note_on_c, 1, 64, 80
3, 77568, Note_on_c, 1, 61, 80
3, 77660, Note_off_c, 1, 64, 100
3, 77660, Note_off_c, 1, 61, 100
3, 77664, Note_on_c, 1, 69, 80
3, 77756, Note_off_c, 1, 69, 100
3, 77760, Note_on_c, 1, 64, 80
3, 77760, Note_on_c, 1, 57, 80
3, 77852, Note_off_c, 1, 64, 100
3, 77852, Note_off_c, 1, 57, 100
3, 77856, Note_on_c, 1, 69, 80
3, 77948, Note_off_c, 1, 69, 100
3, 77952, Note_on_c, 1, 66, 80
3, 77952, Note_on_c, 1, 62, 80
3, 78044, Note_off_c, 1, 66, 100
3, 78044, Note_off_c, 1, 62, 100
3, 78048, Note_on_c, 1, 74, 81
3, 78140, Note_off_c, 1, 74, 100
3, 78144, Note_on_c, 1, 67, 82
3, 78144, Note_on_c, 1, 64, 82
3, 78236, Note_off_c, 1, 67, 100
3, 78236, Note_off_c, 1, 64, 100
3, 78240, Note_on_c, 1, 74, 83
3, 78332, Note_off_c, 1, 74, 100
3, 78336, Note_on_c, 1, 69, 85
3, 78336, Note_on_c, 1, 66, 85
3, 78428, Note_off_c, 1, 69, 100
3, 78428, Note_off_c, 1, 66, 100
3, 78432, Note_on_c, 1, 74, 86
3, 78524, Note_off_c, 1, 74, 100
3, 78528, Note_on_c, 1, 71, 87
3, 78528, Note_on_c, 1, 67, 87
3, 78620, Note_off_c, 1, 71, 100
3, 78620, Note_off_c, 1, 67, 100
3, 78624, Note_on_c, 1, 74, 89
3, 78716, Note_off_c, 1, 74, 100
3, 78720, Note_on_c, 1, 72, 90
3, 78720, Note_on_c, 1, 69, 90
3, 78812, Note_off_c, 1, 72, 100
3, 78812, Note_off_c, 1, 69, 100
3, 78816, Note_on_c, 1, 74, 91
3, 78908, Note_off_c, 1, 74, 100
3, 78912, Note_on_c, 1, 68, 93
3, 78912, Note_on_c, 1, 71, 93
3, 79004, Note_off_c, 1, 68, 100
3, 79004, Note_off_c, 1, 71, 100
3, 79008, Note_on_c, 1, 74, 94
3, 79100, Note_off_c, 1, 74, 100
3, 79104, Note_on_c, 1, 69, 95
3, 79104, Note_on_c, 1, 72, 95
3, 79196, Note_off_c, 1, 69, 100
3, 79196, Note_off_c, 1, 72, 100
3, 79200, Note_on_c, 1, 74, 97
3, 79292, Note_off_c, 1, 74, 100
3, 79296, Note_on_c, 1, 66, 98
3, 79296, Note_on_c, 1, 70, 98
3, 79388, Note_off_c, 1, 66, 100
3, 79388, Note_off_c, 1, 70, 100
3, 79392, Note_on_c, 1, 74, 99
3, 79484, Note_off_c, 1, 74, 100
3, 79488, Note_on_c, 1, 67, 80
3, 79488, Note_on_c, 1, 71, 80
3, 79676, Note_off_c, 1, 67, 100
3, 79676, Note_off_c, 1, 71, 100
3, 79872, Note_on_c, 1, 67, 80
3, 79872, Note_on_c, 1, 71, 80
3, 79872, Note_on_c, 1, 74, 80
3, 80060, Note_off_c, 1, 67, 100
3, 80060, Note_off_c, 1, 71, 100
3, 80060, Note_off_c, 1, 74, 100
3, 80256, Note_on_c, 1, 68, 81
3, 80256, Note_on_c, 1, 71, 81
3, 80256, Note_on_c, 1, 74, 81
3, 80256, Note_on_c, 1, 77, 81
3, 80444, Note_off_c, 1, 68, 100
3, 80444, Note_off_c, 1, 71, 100
3, 80444, Note_off_c, 1, 74, 100
3, 80444, Note_off_c, 1, 77, 100
3, 80640, Note_on_c, 1, 68, 91
3, 80640, Note_on_c, 1, 71, 91
3, 80640, Note_on_c, 1, 74, 91
3, 80640, Note_on_c, 1, 77, 91
3, 80828, Note_off_c, 1, 68, 100
3, 80828, Note_off_c, 1, 71, 100
3, 80828, Note_off_c, 1, 74, 100
3, 80828, Note_off_c, 1, 77, 100
3, 81024, Note_on_c, 1, 78, 110
3, 81024, Note_on_c, 1, 74, 110
3, 81024, Note_on_c, 1, 69, 110
3, 81212, Note_off_c, 1, 78, 100
3, 81212, Note_off_c, 1, 74, 100
3, 81212, Note_off_c, 1, 69, 100
3, 81792, Note_on_c, 1, 69, 110
3, 81792, Note_on_c, 1, 57, 110
3, 82172, Note_off_c, 1, 69, 100
3, 82176, Note_on_c, 1, 67, 110
3, 82556, Note_off_c, 1, 57, 100
3, 82556, Note_off_c, 1, 67, 100
3, 82560, Note_on_c, 1, 62, 110
3, 82560, Note_on_c, 1, 66, 110
3, 82748, Note_off_c, 1, 62, 100
3, 82748, Note_off_c, 1, 66, 100
3, 83328, Note_on_c, 1, 57, 110
3, 83328, Note_on_c, 1, 45, 110
3, 83708, Note_off_c, 1, 57, 100
3, 83712, Note_on_c, 1, 55, 110
3, 84092, Note_off_c, 1, 45, 100
3, 84092, Note_off_c, 1, 55, 100
3, 84096, Note_on_c, 1, 54, 80
3, 84096, Note_on_c, 1, 50, 80
3, 84284, Note_off_c, 1, 54, 100
3, 84284, Note_off_c, 1, 50, 100
3, 85056, Note_on_c, 1, 38, 80
3, 85244, Note_off_c, 1, 38, 100
3, 85248, Note_on_c, 1, 42, 80
3, 85436, Note_off_c, 1, 42, 100
3, 85440, Note_on_c, 1, 45, 80
3, 85628, Note_off_c, 1, 45, 100
3, 85632, Note_on_c, 1, 50, 80
3, 86588, Note_off_c, 1, 50, 100
3, 86592, Note_on_c, 1, 50, 80
3, 86780, Note_off_c, 1, 50, 100
3, 86784, Note_on_c, 1, 49, 80
3, 86972, Note_off_c, 1, 49, 100
3, 86976, Note_on_c, 1, 47, 80
3, 87164, Note_off_c, 1, 47, 100
3, 87168, Note_on_c, 1, 49, 80
3, 87548, Note_off_c, 1, 49, 100
3, 87552, Note_on_c, 1, 45, 80
3, 88124, Note_off_c, 1, 45, 100
3, 88128, Note_on_c, 1, 46, 80
3, 88316, Note_off_c, 1, 46, 100
3, 88320, Note_on_c, 1, 47, 80
3, 88508, Note_off_c, 1, 47, 100
3, 88512, Note_on_c, 1, 42, 80
3, 88700, Note_off_c, 1, 42, 100
3, 88704, Note_on_c, 1, 43, 80
3, 88892, Note_off_c, 1, 43, 100
3, 88896, Note_on_c, 1, 44, 80
3, 89084, Note_off_c, 1, 44, 100
3, 89088, Note_on_c, 1, 45, 80
3, 89660, Note_off_c, 1, 45, 100
3, 89664, Note_on_c, 1, 46, 80
3, 89852, Note_off_c, 1, 46, 100
3, 89856, Note_on_c, 1, 47, 80
3, 90044, Note_off_c, 1, 47, 100
3, 90048, Note_on_c, 1, 42, 80
3, 90236, Note_off_c, 1, 42, 100
3, 90240, Note_on_c, 1, 43, 80
3, 90428, Note_off_c, 1, 43, 100
3, 90432, Note_on_c, 1, 44, 80
3, 90620, Note_off_c, 1, 44, 100
3, 90624, Note_on_c, 1, 45, 80
3, 91196, Note_off_c, 1, 45, 100
3, 91200, Note_on_c, 1, 46, 80
3, 91388, Note_off_c, 1, 46, 100
3, 91392, Note_on_c, 1, 47, 80
3, 91580, Note_off_c, 1, 47, 100
3, 91584, Note_on_c, 1, 48, 80
3, 91772, Note_off_c, 1, 48, 100
3, 91776, Note_on_c, 1, 47, 80
3, 91964, Note_off_c, 1, 47, 100
3, 91968, Note_on_c, 1, 43, 80
3, 92156, Note_off_c, 1, 43, 100
3, 92160, Note_on_c, 1, 45, 80
3, 92348, Note_off_c, 1, 45, 100
3, 92352, Note_on_c, 1, 33, 80
3, 92540, Note_off_c, 1, 33, 100
3, 92544, Note_on_c, 1, 38, 80
3, 93120, Note_on_c, 1, 50, 80
3, 93308, Note_off_c, 1, 50, 100
3, 93312, Note_on_c, 1, 50, 80
3, 93884, Note_off_c, 1, 50, 100
3, 93888, Note_on_c, 1, 50, 80
3, 94076, Note_off_c, 1, 38, 100
3, 94076, Note_off_c, 1, 50, 100
3, 94080, Note_on_c, 1, 50, 80
3, 94080, Note_on_c, 1, 54, 80
3, 94172, Note_off_c, 1, 54, 100
3, 94176, Note_on_c, 1, 57, 80
3, 94268, Note_off_c, 1, 57, 100
3, 94272, Note_on_c, 1, 54, 80
3, 94364, Note_off_c, 1, 54, 100
3, 94368, Note_on_c, 1, 57, 80
3, 94460, Note_off_c, 1, 57, 100
3, 94464, Note_on_c, 1, 54, 80
3, 94556, Note_off_c, 1, 54, 100
3, 94560, Note_on_c, 1, 57, 80
3, 94652, Note_off_c, 1, 50, 100
3, 94652, Note_off_c, 1, 57, 100
3, 94656, Note_on_c, 1, 50, 80
3, 94656, Note_on_c, 1, 55, 80
3, 94748, Note_off_c, 1, 55, 100
3, 94752, Note_on_c, 1, 57, 80
3, 94844, Note_off_c, 1, 57, 100
3, 94848, Note_on_c, 1, 54, 80
3, 94940, Note_off_c, 1, 54, 100
3, 94944, Note_on_c, 1, 57, 80
3, 95036, Note_off_c, 1, 50, 100
3, 95036, Note_off_c, 1, 57, 100
3, 95040, Note_on_c, 1, 50, 80
3, 95040, Note_on_c, 1, 55, 80
3, 95132, Note_off_c, 1, 55, 100
3, 95136, Note_on_c, 1, 57, 80
3, 95228, Note_off_c, 1, 57, 100
3, 95232, Note_on_c, 1, 54, 80
3, 95324, Note_off_c, 1, 54, 100
3, 95328, Note_on_c, 1, 57, 80
3, 95420, Note_off_c, 1, 50, 100
3, 95420, Note_off_c, 1, 57, 100
3, 95424, Note_on_c, 1, 50, 80
3, 95424, Note_on_c, 1, 55, 80
3, 95516, Note_off_c, 1, 55, 100
3, 95520, Note_on_c, 1, 57, 80
3, 95612, Note_off_c, 1, 50, 100
3, 95612, Note_off_c, 1, 57, 100
3, 95616, Note_on_c, 1, 57, 80
3, 95616, Note_on_c, 1, 50, 80
3, 95616, Note_on_c, 1, 61, 80
3, 96380, Note_off_c, 1, 61, 100
3, 96384, Note_on_c, 1, 62, 80
3, 96572, Note_off_c, 1, 50, 100
3, 96572, Note_off_c, 1, 57, 100
3, 96572, Note_off_c, 1, 62, 100
3, 97344, Note_on_c, 1, 43, 80
3, 97440, Note_on_c, 1, 46, 80
3, 97536, Note_on_c, 1, 50, 80
3, 97916, Note_off_c, 1, 43, 100
3, 97916, Note_off_c, 1, 46, 100
3, 97916, Note_off_c, 1, 50, 100
3, 98112, Note_on_c, 1, 55, 80
3, 98208, Note_on_c, 1, 58, 80
3, 98304, Note_on_c, 1, 62, 80
3, 98684, Note_off_c, 1, 55, 100
3, 98684, Note_off_c, 1, 58, 100
3, 98684, Note_off_c, 1, 62, 100
3, 98880, Note_on_c, 1, 43, 80
3, 98976, Note_on_c, 1, 48, 80
3, 99072, Note_on_c, 1, 51, 80
3, 99452, Note_off_c, 1, 43, 100
3, 99452, Note_off_c, 1, 48, 100
3, 99452, Note_off_c, 1, 51, 100
3, 99648, Note_on_c, 1, 55, 80
3, 99744, Note_on_c, 1, 60, 80
3, 99840, Note_on_c, 1, 63, 80
3, 100412, Note_off_c, 1, 55, 100
3, 100412, Note_off_c, 1, 60, 100
3, 100412, Note_off_c, 1, 63, 100
3, 100416, Note_on_c, 1, 54, 70
3, 100512, Note_on_c, 1, 60, 70
3, 100608, Note_on_c, 1, 63, 70
3, 101180, Note_off_c, 1, 54, 100
3, 101180, Note_off_c, 1, 60, 100
3, 101180, Note_off_c, 1, 63, 100
3, 101184, Note_on_c, 1, 53, 70
3, 101280, Note_on_c, 1, 60, 70
3, 101376, Note_on_c, 1, 63, 70
3, 101856, Note_on_c, 1, 53, 71
3, 101948, Note_off_c, 1, 53, 100
3, 101948, Note_off_c, 1, 60, 100
3, 101948, Note_off_c, 1, 63, 100
3, 101948, Note_off_c, 1, 53, 100
3, 101952, Note_on_c, 1, 63, 73
3, 102044, Note_off_c, 1, 63, 100
3, 102048, Note_on_c, 1, 59, 75
3, 102140, Note_off_c, 1, 59, 100
3, 102144, Note_on_c, 1, 60, 77
3, 102236, Note_off_c, 1, 60, 100
3, 102240, Note_on_c, 1, 56, 79
3, 102332, Note_off_c, 1, 56, 100
3, 102336, Note_on_c, 1, 57, 81
3, 102620, Note_off_c, 1, 57, 100
3, 102624, Note_on_c, 1, 53, 87
3, 102716, Note_off_c, 1, 53, 100
3, 102720, Note_on_c, 1, 63, 89
3, 102812, Note_off_c, 1, 63, 100
3, 102816, Note_on_c, 1, 59, 91
3, 102908, Note_off_c, 1, 59, 100
3, 102912, Note_on_c, 1, 60, 93
3, 103004, Note_off_c, 1, 60, 100
3, 103008, Note_on_c, 1, 56, 95
3, 103100, Note_off_c, 1, 56, 100
3, 103104, Note_on_c, 1, 57, 97
3, 103388, Note_off_c, 1, 57, 100
3, 103392, Note_on_c, 1, 53, 110
3, 103484, Note_off_c, 1, 53, 100
3, 103488, Note_on_c, 1, 63, 110
3, 103580, Note_off_c, 1, 63, 100
3, 103584, Note_on_c, 1, 59, 110
3, 103676, Note_off_c, 1, 59, 100
3, 103680, Note_on_c, 1, 60, 110
3, 103772, Note_off_c, 1, 60, 100
3, 103776, Note_on_c, 1, 56, 110
3, 103868, Note_off_c, 1, 56, 100
3, 103872, Note_on_c, 1, 57, 110
3, 103964, Note_off_c, 1, 57, 100
3, 103968, Note_on_c, 1, 52, 110
3, 104060, Note_off_c, 1, 52, 100
3, 104064, Note_on_c, 1, 53, 110
3, 104156, Note_off_c, 1, 53, 100
3, 104160, Note_on_c, 1, 54, 110
3, 104252, Note_off_c, 1, 54, 100
3, 104256, Note_on_c, 1, 55, 110
3, 104348, Note_off_c, 1, 55, 100
3, 104352, Note_on_c, 1, 51, 110
3, 104444, Note_off_c, 1, 51, 100
3, 104448, Note_on_c, 1, 53, 110
3, 104540, Note_off_c, 1, 53, 100
3, 104544, Note_on_c, 1, 50, 110
3, 104636, Note_off_c, 1, 50, 100
3, 104640, Note_on_c, 1, 51, 110
3, 104732, Note_off_c, 1, 51, 100
3, 104736, Note_on_c, 1, 48, 110
3, 104828, Note_off_c, 1, 48, 100
3, 104928, Note_on_c, 1, 46, 80
3, 105020, Note_off_c, 1, 46, 100
3, 105024, Note_on_c, 1, 58, 80
3, 105116, Note_off_c, 1, 58, 100
3, 105312, Note_on_c, 1, 58, 80
3, 105404, Note_off_c, 1, 58, 100
3, 105408, Note_on_c, 1, 70, 80
3, 105500, Note_off_c, 1, 70, 100
3, 105696, Note_on_c, 1, 70, 80
3, 105788, Note_off_c, 1, 70, 100
3, 105792, Note_on_c, 1, 82, 80
3, 105884, Note_off_c, 1, 82, 100
3, 107328, Note_on_c, 1, 41, 80
3, 107516, Note_off_c, 1, 41, 100
3, 107520, Note_on_c, 1, 41, 80
3, 107708, Note_off_c, 1, 41, 100
3, 107712, Note_on_c, 1, 41, 80
3, 107900, Note_off_c, 1, 41, 100
3, 108000, Note_on_c, 1, 41, 80
3, 108092, Note_off_c, 1, 41, 100
3, 108096, Note_on_c, 1, 53, 80
3, 108188, Note_off_c, 1, 53, 100
3, 108384, Note_on_c, 1, 53, 78
3, 108476, Note_off_c, 1, 53, 100
3, 108480, Note_on_c, 1, 65, 78
3, 108572, Note_off_c, 1, 65, 100
3, 108768, Note_on_c, 1, 54, 77
3, 108860, Note_off_c, 1, 54, 100
3, 108864, Note_on_c, 1, 66, 76
3, 108956, Note_off_c, 1, 66, 100
3, 109152, Note_on_c, 1, 54, 75
3, 109244, Note_off_c, 1, 54, 100
3, 109248, Note_on_c, 1, 66, 74
3, 109340, Note_off_c, 1, 66, 100
3, 109536, Note_on_c, 1, 55, 73
3, 109628, Note_off_c, 1, 55, 100
3, 109632, Note_on_c, 1, 67, 73
3, 109724, Note_off_c, 1, 67, 100
3, 109920, Note_on_c, 1, 55, 71
3, 110012, Note_off_c, 1, 55, 100
3, 110016, Note_on_c, 1, 67, 71
3, 110108, Note_off_c, 1, 67, 100
3, 110208, Note_on_c, 1, 56, 110
3, 110208, Note_on_c, 1, 44, 110
3, 110684, Note_off_c, 1, 56, 100
3, 110684, Note_off_c, 1, 44, 100
3, 110688, Note_on_c, 1, 50, 110
3, 110780, Note_off_c, 1, 50, 100
3, 110784, Note_on_c, 1, 51, 110
3, 110876, Note_off_c, 1, 51, 100
3, 110880, Note_on_c, 1, 47, 110
3, 110972, Note_off_c, 1, 47, 100
3, 110976, Note_on_c, 1, 48, 110
3, 111068, Note_off_c, 1, 48, 100
3, 111072, Note_on_c, 1, 43, 110
3, 111164, Note_off_c, 1, 43, 100
3, 111168, Note_on_c, 1, 44, 110
3, 111452, Note_off_c, 1, 44, 100
3, 111456, Note_on_c, 1, 50, 110
3, 111548, Note_off_c, 1, 50, 100
3, 111552, Note_on_c, 1, 51, 110
3, 111644, Note_off_c, 1, 51, 100
3, 111648, Note_on_c, 1, 47, 110
3, 111740, Note_off_c, 1, 47, 100
3, 111744, Note_on_c, 1, 48, 110
3, 111836, Note_off_c, 1, 48, 100
3, 111840, Note_on_c, 1, 43, 110
3, 111932, Note_off_c, 1, 43, 100
3, 111936, Note_on_c, 1, 44, 110
3, 112220, Note_off_c, 1, 44, 100
3, 112224, Note_on_c, 1, 48, 110
3, 112316, Note_off_c, 1, 48, 100
3, 112320, Note_on_c, 1, 44, 110
3, 112412, Note_off_c, 1, 44, 100
3, 112416, Note_on_c, 1, 43, 110
3, 112508, Note_off_c, 1, 43, 100
3, 112512, Note_on_c, 1, 42, 110
3, 112604, Note_off_c, 1, 42, 100
3, 112608, Note_on_c, 1, 38, 110
3, 112700, Note_off_c, 1, 38, 100
3, 112704, Note_on_c, 1, 42, 110
3, 112796, Note_off_c, 1, 42, 100
3, 112800, Note_on_c, 1, 45, 110
3, 112892, Note_off_c, 1, 45, 100
3, 112896, Note_on_c, 1, 50, 110
3, 112988, Note_off_c, 1, 50, 100
3, 112992, Note_on_c, 1, 52, 110
3, 113084, Note_off_c, 1, 52, 100
3, 113088, Note_on_c, 1, 54, 110
3, 113180, Note_off_c, 1, 54, 100
3, 113184, Note_on_c, 1, 55, 110
3, 113276, Note_off_c, 1, 55, 100
3, 113280, Note_on_c, 1, 57, 110
3, 113372, Note_off_c, 1, 57, 100
3, 113376, Note_on_c, 1, 55, 110
3, 113468, Note_off_c, 1, 55, 100
3, 113472, Note_on_c, 1, 54, 110
3, 113564, Note_off_c, 1, 54, 100
3, 113568, Note_on_c, 1, 51, 110
3, 113660, Note_off_c, 1, 51, 100
3, 113664, Note_on_c, 1, 50, 110
3, 113756, Note_off_c, 1, 50, 100
3, 113760, Note_on_c, 1, 48, 110
3, 113852, Note_off_c, 1, 48, 100
3, 113856, Note_on_c, 1, 46, 110
3, 113948, Note_off_c, 1, 46, 100
3, 113952, Note_on_c, 1, 45, 110
3, 114044, Note_off_c, 1, 45, 100
3, 114048, Note_on_c, 1, 43, 110
3, 114524, Note_off_c, 1, 43, 100
3, 114528, Note_on_c, 1, 61, 110
3, 114620, Note_off_c, 1, 61, 100
3, 114624, Note_on_c, 1, 62, 110
3, 114716, Note_off_c, 1, 62, 100
3, 114720, Note_on_c, 1, 57, 110
3, 114812, Note_off_c, 1, 57, 100
3, 114816, Note_on_c, 1, 58, 110
3, 114908, Note_off_c, 1, 58, 100
3, 114912, Note_on_c, 1, 54, 110
3, 115004, Note_off_c, 1, 54, 100
3, 115008, Note_on_c, 1, 55, 110
3, 115292, Note_off_c, 1, 55, 100
3, 115296, Note_on_c, 1, 61, 110
3, 115388, Note_off_c, 1, 61, 100
3, 115392, Note_on_c, 1, 62, 110
3, 115484, Note_off_c, 1, 62, 100
3, 115488, Note_on_c, 1, 57, 110
3, 115580, Note_off_c, 1, 57, 100
3, 115584, Note_on_c, 1, 58, 110
3, 115676, Note_off_c, 1, 58, 100
3, 115680, Note_on_c, 1, 54, 110
3, 115772, Note_off_c, 1, 54, 100
3, 115776, Note_on_c, 1, 55, 110
3, 116060, Note_off_c, 1, 55, 100
3, 116064, Note_on_c, 1, 58, 110
3, 116156, Note_off_c, 1, 58, 100
3, 116160, Note_on_c, 1, 55, 110
3, 116252, Note_off_c, 1, 55, 100
3, 116256, Note_on_c, 1, 53, 110
3, 116348, Note_off_c, 1, 53, 100
3, 116352, Note_on_c, 1, 52, 110
3, 116444, Note_off_c, 1, 52, 100
3, 116448, Note_on_c, 1, 48, 110
3, 116540, Note_off_c, 1, 48, 100
3, 116544, Note_on_c, 1, 52, 110
3, 116636, Note_off_c, 1, 52, 100
3, 116640, Note_on_c, 1, 55, 110
3, 116732, Note_off_c, 1, 55, 100
3, 116736, Note_on_c, 1, 60, 110
3, 116828, Note_off_c, 1, 60, 100
3, 116832, Note_on_c, 1, 62, 110
3, 116924, Note_off_c, 1, 62, 100
3, 116928, Note_on_c, 1, 64, 110
3, 117020, Note_off_c, 1, 64, 100
3, 117024, Note_on_c, 1, 65, 110
3, 117116, Note_off_c, 1, 65, 100
3, 117120, Note_on_c, 1, 67, 110
3, 117212, Note_off_c, 1, 67, 100
3, 117216, Note_on_c, 1, 65, 110
3, 117308, Note_off_c, 1, 65, 100
3, 117312, Note_on_c, 1, 64, 110
3, 117404, Note_off_c, 1, 64, 100
3, 117408, Note_on_c, 1, 61, 110
3, 117500, Note_off_c, 1, 61, 100
3, 117504, Note_on_c, 1, 60, 110
3, 117596, Note_off_c, 1, 60, 100
3, 117600, Note_on_c, 1, 58, 110
3, 117692, Note_off_c, 1, 58, 100
3, 117696, Note_on_c, 1, 56, 110
3, 117788, Note_off_c, 1, 56, 100
3, 117792, Note_on_c, 1, 55, 110
3, 117884, Note_off_c, 1, 55, 100
3, 117888, Note_on_c, 1, 53, 110
3, 117980, Note_off_c, 1, 53, 100
3, 117984, Note_on_c, 1, 41, 110
3, 118076, Note_off_c, 1, 41, 100
3, 118080, Note_on_c, 1, 44, 110
3, 118172, Note_off_c, 1, 44, 100
3, 118176, Note_on_c, 1, 48, 110
3, 118268, Note_off_c, 1, 48, 100
3, 118272, Note_on_c, 1, 53, 110
3, 118364, Note_off_c, 1, 53, 100
3, 118368, Note_on_c, 1, 55, 110
3, 118460, Note_off_c, 1, 55, 100
3, 118464, Note_on_c, 1, 56, 110
3, 118556, Note_off_c, 1, 56, 100
3, 118560, Note_on_c, 1, 58, 110
3, 118652, Note_off_c, 1, 58, 100
3, 118656, Note_on_c, 1, 60, 110
3, 118748, Note_off_c, 1, 60, 100
3, 118752, Note_on_c, 1, 58, 110
3, 118844, Note_off_c, 1, 58, 100
3, 118848, Note_on_c, 1, 57, 110
3, 118940, Note_off_c, 1, 57, 100
3, 118944, Note_on_c, 1, 55, 110
3, 119036, Note_off_c, 1, 55, 100
3, 119040, Note_on_c, 1, 53, 110
3, 119132, Note_off_c, 1, 53, 100
3, 119136, Note_on_c, 1, 51, 110
3, 119228, Note_off_c, 1, 51, 100
3, 119232, Note_on_c, 1, 50, 110
3, 119324, Note_off_c, 1, 50, 100
3, 119328, Note_on_c, 1, 48, 110
3, 119420, Note_off_c, 1, 48, 100
3, 119424, Note_on_c, 1, 46, 110
3, 119516, Note_off_c, 1, 46, 100
3, 119520, Note_on_c, 1, 34, 110
3, 119612, Note_off_c, 1, 34, 100
3, 119616, Note_on_c, 1, 38, 110
3, 119708, Note_off_c, 1, 38, 100
3, 119712, Note_on_c, 1, 41, 110
3, 119804, Note_off_c, 1, 41, 100
3, 119808, Note_on_c, 1, 46, 110
3, 119900, Note_off_c, 1, 46, 100
3, 119904, Note_on_c, 1, 48, 110
3, 119996, Note_off_c, 1, 48, 100
3, 120000, Note_on_c, 1, 50, 110
3, 120092, Note_off_c, 1, 50, 100
3, 120096, Note_on_c, 1, 51, 110
3, 120188, Note_off_c, 1, 51, 100
3, 120192, Note_on_c, 1, 53, 110
3, 120284, Note_off_c, 1, 53, 100
3, 120288, Note_on_c, 1, 51, 110
3, 120380, Note_off_c, 1, 51, 100
3, 120384, Note_on_c, 1, 50, 110
3, 120476, Note_off_c, 1, 50, 100
3, 120480, Note_on_c, 1, 48, 110
3, 120572, Note_off_c, 1, 48, 100
3, 120576, Note_on_c, 1, 46, 110
3, 120668, Note_off_c, 1, 46, 100
3, 120672, Note_on_c, 1, 48, 110
3, 120764, Note_off_c, 1, 48, 100
3, 120768, Note_on_c, 1, 50, 110
3, 120860, Note_off_c, 1, 50, 100
3, 120864, Note_on_c, 1, 51, 110
3, 120956, Note_off_c, 1, 51, 100
3, 120960, Note_on_c, 1, 53, 110
3, 121052, Note_off_c, 1, 53, 100
3, 121056, Note_on_c, 1, 51, 110
3, 121148, Note_off_c, 1, 51, 100
3, 121152, Note_on_c, 1, 50, 110
3, 121244, Note_off_c, 1, 50, 100
3, 121248, Note_on_c, 1, 48, 110
3, 121340, Note_off_c, 1, 48, 100
3, 121344, Note_on_c, 1, 46, 110
3, 121436, Note_off_c, 1, 46, 100
3, 121440, Note_on_c, 1, 48, 110
3, 121532, Note_off_c, 1, 48, 100
3, 121536, Note_on_c, 1, 50, 110
3, 121628, Note_off_c, 1, 50, 100
3, 121632, Note_on_c, 1, 51, 110
3, 121724, Note_off_c, 1, 51, 100
3, 121728, Note_on_c, 1, 53, 110
3, 121820, Note_off_c, 1, 53, 100
3, 121824, Note_on_c, 1, 51, 110
3, 121916, Note_off_c, 1, 51, 100
3, 121920, Note_on_c, 1, 50, 110
3, 122012, Note_off_c, 1, 50, 100
3, 122016, Note_on_c, 1, 48, 110
3, 122108, Note_off_c, 1, 48, 100
3, 122112, Note_on_c, 1, 46, 110
3, 122204, Note_off_c, 1, 46, 100
3, 122208, Note_on_c, 1, 48, 110
3, 122300, Note_off_c, 1, 48, 100
3, 122304, Note_on_c, 1, 50, 110
3, 122396, Note_off_c, 1, 50, 100
3, 122400, Note_on_c, 1, 51, 110
3, 122492, Note_off_c, 1, 51, 100
3, 122496, Note_on_c, 1, 53, 110
3, 122588, Note_off_c, 1, 53, 100
3, 122592, Note_on_c, 1, 55, 110
3, 122684, Note_off_c, 1, 55, 100
3, 122688, Note_on_c, 1, 46, 110
3, 122688, Note_on_c, 1, 56, 110
3, 122780, Note_off_c, 1, 56, 100
3, 122784, Note_on_c, 1, 55, 110
3, 122876, Note_off_c, 1, 46, 100
3, 122876, Note_off_c, 1, 55, 100
3, 122880, Note_on_c, 1, 46, 110
3, 122880, Note_on_c, 1, 56, 110
3, 122972, Note_off_c, 1, 56, 100
3, 122976, Note_on_c, 1, 55, 110
3, 123068, Note_off_c, 1, 46, 100
3, 123068, Note_off_c, 1, 55, 100
3, 123072, Note_on_c, 1, 46, 110
3, 123072, Note_on_c, 1, 56, 110
3, 123164, Note_off_c, 1, 56, 100
3, 123168, Note_on_c, 1, 55, 110
3, 123260, Note_off_c, 1, 46, 100
3, 123260, Note_off_c, 1, 55, 100
3, 123264, Note_on_c, 1, 56, 110
3, 123264, Note_on_c, 1, 46, 110
3, 124412, Note_off_c, 1, 46, 100
3, 124412, Note_off_c, 1, 56, 100
3, 124992, Note_on_c, 1, 51, 80
3, 125088, Note_on_c, 1, 55, 80
3, 125184, Note_on_c, 1, 58, 80
3, 125564, Note_off_c, 1, 51, 100
3, 125564, Note_off_c, 1, 55, 100
3, 125564, Note_off_c, 1, 58, 100
3, 125760, Note_on_c, 1, 63, 80
3, 125856, Note_on_c, 1, 67, 80
3, 125952, Note_on_c, 1, 70, 80
3, 126332, Note_off_c, 1, 63, 100
3, 126332, Note_off_c, 1, 67, 100
3, 126332, Note_off_c, 1, 70, 100
3, 126528, Note_on_c, 1, 51, 80
3, 126624, Note_on_c, 1, 56, 80
3, 126720, Note_on_c, 1, 60, 80
3, 127100, Note_off_c, 1, 51, 100
3, 127100, Note_off_c, 1, 56, 100
3, 127100, Note_off_c, 1, 60, 100
3, 127296, Note_on_c, 1, 63, 80
3, 127392, Note_on_c, 1, 68, 80
3, 127488, Note_on_c, 1, 72, 80
3, 127868, Note_off_c, 1, 63, 100
3, 127868, Note_off_c, 1, 68, 100
3, 127868, Note_off_c, 1, 72, 100
3, 127968, Note_on_c, 1, 62, 80
3, 128060, Note_off_c, 1, 62, 100
3, 128064, Note_on_c, 1, 65, 80
3, 128156, Note_off_c, 1, 65, 100
3, 128160, Note_on_c, 1, 70, 80
3, 128252, Note_off_c, 1, 70, 100
3, 128352, Note_on_c, 1, 58, 80
3, 128444, Note_off_c, 1, 58, 100
3, 128448, Note_on_c, 1, 62, 80
3, 128540, Note_off_c, 1, 62, 100
3, 128544, Note_on_c, 1, 65, 80
3, 128636, Note_off_c, 1, 65, 100
3, 128736, Note_on_c, 1, 59, 80
3, 128828, Note_off_c, 1, 59, 100
3, 128832, Note_on_c, 1, 62, 81
3, 128924, Note_off_c, 1, 62, 100
3, 128928, Note_on_c, 1, 67, 82
3, 129020, Note_off_c, 1, 67, 100
3, 129120, Note_on_c, 1, 60, 84
3, 129212, Note_off_c, 1, 60, 100
3, 129216, Note_on_c, 1, 63, 85
3, 129308, Note_off_c, 1, 63, 100
3, 129312, Note_on_c, 1, 55, 86
3, 129404, Note_off_c, 1, 55, 100
3, 129504, Note_on_c, 1, 54, 87
3, 129596, Note_off_c, 1, 54, 100
3, 129600, Note_on_c, 1, 57, 88
3, 129692, Note_off_c, 1, 57, 100
3, 129696, Note_on_c, 1, 62, 89
3, 129788, Note_off_c, 1, 62, 100
3, 129888, Note_on_c, 1, 50, 91
3, 129980, Note_off_c, 1, 50, 100
3, 129984, Note_on_c, 1, 54, 92
3, 130076, Note_off_c, 1, 54, 100
3, 130080, Note_on_c, 1, 57, 93
3, 130172, Note_off_c, 1, 57, 100
3, 130272, Note_on_c, 1, 43, 94
3, 130364, Note_off_c, 1, 43, 100
3, 130368, Note_on_c, 1, 46, 95
3, 130460, Note_off_c, 1, 46, 100
3, 130464, Note_on_c, 1, 50, 96
3, 130556, Note_off_c, 1, 50, 100
3, 130656, Note_on_c, 1, 39, 98
3, 130748, Note_off_c, 1, 39, 100
3, 130752, Note_on_c, 1, 51, 99
3, 130844, Note_off_c, 1, 51, 100
3, 130848, Note_on_c, 1, 51, 99
3, 130940, Note_off_c, 1, 51, 100
3, 130944, Note_on_c, 1, 38, 80
3, 131132, Note_off_c, 1, 38, 100
3, 131136, Note_on_c, 1, 50, 110
3, 131520, Note_on_c, 1, 60, 110
3, 131708, Note_off_c, 1, 60, 100
3, 131712, Note_on_c, 1, 58, 110
3, 131900, Note_off_c, 1, 58, 100
3, 131904, Note_on_c, 1, 54, 110
3, 132092, Note_off_c, 1, 54, 100
3, 132096, Note_on_c, 1, 55, 110
3, 132284, Note_off_c, 1, 55, 100
3, 132288, Note_on_c, 1, 61, 110
3, 132476, Note_off_c, 1, 50, 100
3, 132476, Note_off_c, 1, 61, 100
3, 132480, Note_on_c, 1, 50, 110
3, 132672, Note_on_c, 1, 62, 110
3, 133052, Note_off_c, 1, 62, 100
3, 133056, Note_on_c, 1, 60, 110
3, 133244, Note_off_c, 1, 60, 100
3, 133248, Note_on_c, 1, 58, 110
3, 133436, Note_off_c, 1, 58, 100
3, 133440, Note_on_c, 1, 54, 110
3, 133628, Note_off_c, 1, 54, 100
3, 133632, Note_on_c, 1, 55, 110
3, 133820, Note_off_c, 1, 55, 100
3, 133824, Note_on_c, 1, 61, 110
3, 134012, Note_off_c, 1, 50, 100
3, 134012, Note_off_c, 1, 61, 100
3, 134016, Note_on_c, 1, 50, 110
3, 134208, Note_on_c, 1, 62, 110
3, 134588, Note_off_c, 1, 62, 100
3, 134592, Note_on_c, 1, 60, 110
3, 134780, Note_off_c, 1, 60, 100
3, 134784, Note_on_c, 1, 58, 110
3, 134972, Note_off_c, 1, 58, 100
3, 134976, Note_on_c, 1, 54, 110
3, 135164, Note_off_c, 1, 54, 100
3, 135168, Note_on_c, 1, 55, 110
3, 135356, Note_off_c, 1, 55, 100
3, 135360, Note_on_c, 1, 61, 110
3, 135548, Note_off_c, 1, 50, 100
3, 135548, Note_off_c, 1, 61, 100
3, 135552, Note_on_c, 1, 62, 100
3, 135552, Note_on_c, 1, 50, 100
3, 135740, Note_off_c, 1, 62, 100
3, 135744, Note_on_c, 1, 61, 97
3, 135932, Note_off_c, 1, 61, 100
3, 135936, Note_on_c, 1, 62, 95
3, 136124, Note_off_c, 1, 62, 100
3, 136128, Note_on_c, 1, 61, 92
3, 136316, Note_off_c, 1, 61, 100
3, 136320, Note_on_c, 1, 62, 90
3, 136508, Note_off_c, 1, 62, 100
3, 136512, Note_on_c, 1, 61, 87
3, 136700, Note_off_c, 1, 61, 100
3, 136704, Note_on_c, 1, 62, 84
3, 136892, Note_off_c, 1, 62, 100
3, 136896, Note_on_c, 1, 61, 82
3, 137084, Note_off_c, 1, 50, 100
3, 137084, Note_off_c, 1, 61, 100
3, 137088, Note_on_c, 1, 62, 70
3, 137148, Note_off_c, 1, 62, 100
3, 137152, Note_on_c, 1, 66, 70
3, 137212, Note_off_c, 1, 66, 100
3, 137216, Note_on_c, 1, 69, 70
3, 137276, Note_off_c, 1, 69, 100
3, 137280, Note_on_c, 1, 62, 70
3, 137340, Note_off_c, 1, 62, 100
3, 137344, Note_on_c, 1, 66, 70
3, 137404, Note_off_c, 1, 66, 100
3, 137408, Note_on_c, 1, 69, 70
3, 137468, Note_off_c, 1, 69, 100
3, 137472, Note_on_c, 1, 62, 70
3, 137532, Note_off_c, 1, 62, 100
3, 137536, Note_on_c, 1, 66, 70
3, 137596, Note_off_c, 1, 66, 100
3, 137600, Note_on_c, 1, 69, 70
3, 137660, Note_off_c, 1, 69, 100
3, 137664, Note_on_c, 1, 62, 70
3, 137724, Note_off_c, 1, 62, 100
3, 137728, Note_on_c, 1, 66, 70
3, 137788, Note_off_c, 1, 66, 100
3, 137792, Note_on_c, 1, 69, 70
3, 137852, Note_off_c, 1, 69, 100
3, 137856, Note_on_c, 1, 62, 70
3, 137916, Note_off_c, 1, 62, 100
3, 137920, Note_on_c, 1, 66, 70
3, 137980, Note_off_c, 1, 66, 100
3, 137984, Note_on_c, 1, 69, 70
3, 138044, Note_off_c, 1, 69, 100
3, 138048, Note_on_c, 1, 62, 70
3, 138108, Note_off_c, 1, 62, 100
3, 138112, Note_on_c, 1, 66, 70
3, 138172, Note_off_c, 1, 66, 100
3, 138176, Note_on_c, 1, 69, 70
3, 138236, Note_off_c, 1, 69, 100
3, 138240, Note_on_c, 1, 62, 70
3, 138300, Note_off_c, 1, 62, 100
3, 138304, Note_on_c, 1, 66, 70
3, 138364, Note_off_c, 1, 66, 100
3, 138368, Note_on_c, 1, 69, 70
3, 138428, Note_off_c, 1, 69, 100
3, 138432, Note_on_c, 1, 62, 70
3, 138492, Note_off_c, 1, 62, 100
3, 138496, Note_on_c, 1, 66, 70
3, 138556, Note_off_c, 1, 66, 100
3, 138560, Note_on_c, 1, 69, 70
3, 138620, Note_off_c, 1, 69, 100
3, 138624, Note_on_c, 1, 62, 70
3, 138684, Note_off_c, 1, 62, 100
3, 138688, Note_on_c, 1, 69, 70
3, 138748, Note_off_c, 1, 69, 100
3, 138752, Note_on_c, 1, 72, 70
3, 138812, Note_off_c, 1, 72, 100
3, 138816, Note_on_c, 1, 62, 70
3, 138876, Note_off_c, 1, 62, 100
3, 138880, Note_on_c, 1, 69, 70
3, 138940, Note_off_c, 1, 69, 100
3, 138944, Note_on_c, 1, 72, 70
3, 139004, Note_off_c, 1, 72, 100
3, 139008, Note_on_c, 1, 62, 70
3, 139068, Note_off_c, 1, 62, 100
3, 139072, Note_on_c, 1, 69, 70
3, 139132, Note_off_c, 1, 69, 100
3, 139136, Note_on_c, 1, 72, 70
3, 139196, Note_off_c, 1, 72, 100
3, 139200, Note_on_c, 1, 62, 70
3, 139260, Note_off_c, 1, 62, 100
3, 139264, Note_on_c, 1, 69, 70
3, 139324, Note_off_c, 1, 69, 100
3, 139328, Note_on_c, 1, 72, 70
3, 139388, Note_off_c, 1, 72, 100
3, 139392, Note_on_c, 1, 62, 70
3, 139452, Note_off_c, 1, 62, 100
3, 139456, Note_on_c, 1, 69, 70
3, 139516, Note_off_c, 1, 69, 100
3, 139520, Note_on_c, 1, 72, 70
3, 139580, Note_off_c, 1, 72, 100
3, 139584, Note_on_c, 1, 62, 70
3, 139644, Note_off_c, 1, 62, 100
3, 139648, Note_on_c, 1, 69, 70
3, 139708, Note_off_c, 1, 69, 100
3, 139712, Note_on_c, 1, 72, 70
3, 139772, Note_off_c, 1, 72, 100
3, 139776, Note_on_c, 1, 62, 70
3, 139836, Note_off_c, 1, 62, 100
3, 139840, Note_on_c, 1, 69, 71
3, 139900, Note_off_c, 1, 69, 100
3, 139904, Note_on_c, 1, 72, 72
3, 139964, Note_off_c, 1, 72, 100
3, 139968, Note_on_c, 1, 62, 73
3, 140028, Note_off_c, 1, 62, 100
3, 140032, Note_on_c, 1, 69, 74
3, 140092, Note_off_c, 1, 69, 100
3, 140096, Note_on_c, 1, 72, 75
3, 140156, Note_off_c, 1, 72, 100
3, 140160, Note_on_c, 1, 62, 76
3, 140220, Note_off_c, 1, 62, 100
3, 140224, Note_on_c, 1, 69, 77
3, 140284, Note_off_c, 1, 69, 100
3, 140288, Note_on_c, 1, 72, 78
3, 140348, Note_off_c, 1, 72, 100
3, 140352, Note_on_c, 1, 62, 79
3, 140412, Note_off_c, 1, 62, 100
3, 140416, Note_on_c, 1, 69, 80
3, 140476, Note_off_c, 1, 69, 100
3, 140480, Note_on_c, 1, 72, 81
3, 140540, Note_off_c, 1, 72, 100
3, 140544, Note_on_c, 1, 62, 82
3, 140604, Note_off_c, 1, 62, 100
3, 140608, Note_on_c, 1, 69, 83
3, 140668, Note_off_c, 1, 69, 100
3, 140672, Note_on_c, 1, 72, 84
3, 140732, Note_off_c, 1, 72, 100
3, 140736, Note_on_c, 1, 62, 85
3, 140796, Note_off_c, 1, 62, 100
3, 140800, Note_on_c, 1, 69, 86
3, 140860, Note_off_c, 1, 69, 100
3, 140864, Note_on_c, 1, 72, 87
3, 140924, Note_off_c, 1, 72, 100
3, 140928, Note_on_c, 1, 62, 88
3, 140988, Note_off_c, 1, 62, 100
3, 140992, Note_on_c, 1, 69, 89
3, 141052, Note_off_c, 1, 69, 100
3, 141056, Note_on_c, 1, 72, 90
3, 141116, Note_off_c, 1, 72, 100
3, 141120, Note_on_c, 1, 62, 91
3, 141180, Note_off_c, 1, 62, 100
3, 141184, Note_on_c, 1, 69, 92
3, 141244, Note_off_c, 1, 69, 100
3, 141248, Note_on_c, 1, 72, 93
3, 141308, Note_off_c, 1, 72, 100
3, 141312, Note_on_c, 1, 62, 94
3, 141372, Note_off_c, 1, 62, 100
3, 141376, Note_on_c, 1, 69, 95
3, 141436, Note_off_c, 1, 69, 100
3, 141440, Note_on_c, 1, 72, 96
3, 141500, Note_off_c, 1, 72, 100
3, 141504, Note_on_c, 1, 62, 97
3, 141564, Note_off_c, 1, 62, 100
3, 141568, Note_on_c, 1, 69, 98
3, 141628, Note_off_c, 1, 69, 100
3, 141632, Note_on_c, 1, 72, 99
3, 141692, Note_off_c, 1, 72, 100
3, 141696, Note_on_c, 1, 72, 110
3, 141696, Note_on_c, 1, 69, 110
3, 141696, Note_on_c, 1, 62, 110
3, 141884, Note_off_c, 1, 72, 100
3, 141884, Note_off_c, 1, 69, 100
3, 141884, Note_off_c, 1, 62, 100
3, 145728, Note_on_c, 1, 43, 80
3, 145824, Note_on_c, 1, 47, 80
3, 145920, Note_on_c, 1, 50, 80
3, 146300, Note_off_c, 1, 43, 100
3, 146300, Note_off_c, 1, 47, 100
3, 146300, Note_off_c, 1, 50, 100
3, 146496, Note_on_c, 1, 55, 80
3, 146592, Note_on_c, 1, 59, 80
3, 146688, Note_on_c, 1, 62, 80
3, 147068, Note_off_c, 1, 55, 100
3, 147068, Note_off_c, 1, 59, 100
3, 147068, Note_off_c, 1, 62, 100
3, 147264, Note_on_c, 1, 43, 80
3, 147360, Note_on_c, 1, 48, 80
3, 147456, Note_on_c, 1, 52, 80
3, 147836, Note_off_c, 1, 43, 100
3, 147836, Note_off_c, 1, 48, 100
3, 147836, Note_off_c, 1, 52, 100
3, 148032, Note_on_c, 1, 55, 80
3, 148128, Note_on_c, 1, 60, 80
3, 148224, Note_on_c, 1, 64, 80
3, 148604, Note_off_c, 1, 55, 100
3, 148604, Note_off_c, 1, 60, 100
3, 148604, Note_off_c, 1, 64, 100
3, 148704, Note_on_c, 1, 54, 80
3, 148796, Note_off_c, 1, 54, 100
3, 148800, Note_on_c, 1, 57, 80
3, 148892, Note_off_c, 1, 57, 100
3, 148896, Note_on_c, 1, 62, 80
3, 148988, Note_off_c, 1, 62, 100
3, 149088, Note_on_c, 1, 50, 80
3, 149180, Note_off_c, 1, 50, 100
3, 149184, Note_on_c, 1, 57, 80
3, 149276, Note_off_c, 1, 57, 100
3, 149280, Note_on_c, 1, 60, 80
3, 149372, Note_off_c, 1, 60, 100
3, 149472, Note_on_c, 1, 55, 80
3, 149564, Note_off_c, 1, 55, 100
3, 149568, Note_on_c, 1, 59, 80
3, 149660, Note_off_c, 1, 59, 100
3, 149664, Note_on_c, 1, 62, 80
3, 149756, Note_off_c, 1, 62, 100
3, 149856, Note_on_c, 1, 48, 80
3, 149948, Note_off_c, 1, 48, 100
3, 149952, Note_on_c, 1, 52, 80
3, 150044, Note_off_c, 1, 52, 100
3, 150048, Note_on_c, 1, 57, 80
3, 150140, Note_off_c, 1, 57, 100
3, 150240, Note_on_c, 1, 50, 80
3, 150332, Note_off_c, 1, 50, 100
3, 150336, Note_on_c, 1, 55, 80
3, 150428, Note_off_c, 1, 55, 100
3, 150432, Note_on_c, 1, 59, 80
3, 150524, Note_off_c, 1, 59, 100
3, 150624, Note_on_c, 1, 38, 80
3, 150716, Note_off_c, 1, 38, 100
3, 150720, Note_on_c, 1, 45, 80
3, 150812, Note_off_c, 1, 45, 100
3, 150816, Note_on_c, 1, 50, 80
3, 150908, Note_off_c, 1, 50, 100
3, 150912, Note_on_c, 1, 43, 80
3, 151004, Note_off_c, 1, 43, 100
3, 151008, Note_on_c, 1, 47, 80
3, 151100, Note_off_c, 1, 47, 100
3, 151104, Note_on_c, 1, 50, 80
3, 151196, Note_off_c, 1, 50, 100
3, 151200, Note_on_c, 1, 47, 80
3, 151292, Note_off_c, 1, 47, 100
3, 151296, Note_on_c, 1, 43, 80
3, 151388, Note_off_c, 1, 43, 100
3, 151392, Note_on_c, 1, 47, 80
3, 151484, Note_off_c, 1, 47, 100
3, 151488, Note_on_c, 1, 50, 80
3, 151580, Note_off_c, 1, 50, 100
3, 151584, Note_on_c, 1, 47, 80
3, 151676, Note_off_c, 1, 47, 100
3, 151680, Note_on_c, 1, 43, 80
3, 151772, Note_off_c, 1, 43, 100
3, 151776, Note_on_c, 1, 47, 80
3, 151868, Note_off_c, 1, 47, 100
3, 151872, Note_on_c, 1, 50, 80
3, 151964, Note_off_c, 1, 50, 100
3, 151968, Note_on_c, 1, 47, 80
3, 152060, Note_off_c, 1, 47, 100
3, 152064, Note_on_c, 1, 43, 80
3, 152156, Note_off_c, 1, 43, 100
3, 152160, Note_on_c, 1, 47, 80
3, 152252, Note_off_c, 1, 47, 100
3, 152256, Note_on_c, 1, 50, 80
3, 152348, Note_off_c, 1, 50, 100
3, 152352, Note_on_c, 1, 47, 80
3, 152444, Note_off_c, 1, 47, 100
3, 152448, Note_on_c, 1, 45, 80
3, 152540, Note_off_c, 1, 45, 100
3, 152544, Note_on_c, 1, 48, 80
3, 152636, Note_off_c, 1, 48, 100
3, 152640, Note_on_c, 1, 54, 80
3, 152732, Note_off_c, 1, 54, 100
3, 152736, Note_on_c, 1, 48, 80
3, 152828, Note_off_c, 1, 48, 100
3, 152832, Note_on_c, 1, 45, 80
3, 152924, Note_off_c, 1, 45, 100
3, 152928, Note_on_c, 1, 48, 80
3, 153020, Note_off_c, 1, 48, 100
3, 153024, Note_on_c, 1, 54, 80
3, 153116, Note_off_c, 1, 54, 100
3, 153120, Note_on_c, 1, 48, 80
3, 153212, Note_off_c, 1, 48, 100
3, 153216, Note_on_c, 1, 45, 80
3, 153308, Note_off_c, 1, 45, 100
3, 153312, Note_on_c, 1, 48, 80
3, 153404, Note_off_c, 1, 48, 100
3, 153408, Note_on_c, 1, 54, 80
3, 153500, Note_off_c, 1, 54, 100
3, 153504, Note_on_c, 1, 48, 80
3, 153596, Note_off_c, 1, 48, 100
3, 153600, Note_on_c, 1, 45, 80
3, 153692, Note_off_c, 1, 45, 100
3, 153696, Note_on_c, 1, 48, 80
3, 153788, Note_off_c, 1, 48, 100
3, 153792, Note_on_c, 1, 54, 80
3, 153884, Note_off_c, 1, 54, 100
3, 153888, Note_on_c, 1, 48, 80
3, 153980, Note_off_c, 1, 48, 100
3, 153984, Note_on_c, 1, 47, 80
3, 154076, Note_off_c, 1, 47, 100
3, 154080, Note_on_c, 1, 50, 80
3, 154172, Note_off_c, 1, 50, 100
3, 154176, Note_on_c, 1, 55, 80
3, 154268, Note_off_c, 1, 55, 100
3, 154272, Note_on_c, 1, 50, 80
3, 154364, Note_off_c, 1, 50, 100
3, 154368, Note_on_c, 1, 47, 80
3, 154460, Note_off_c, 1, 47, 100
3, 154464, Note_on_c, 1, 50, 80
3, 154556, Note_off_c, 1, 50, 100
3, 154560, Note_on_c, 1, 55, 80
3, 154652, Note_off_c, 1, 55, 100
3, 154656, Note_on_c, 1, 50, 80
3, 154748, Note_off_c, 1, 50, 100
3, 154752, Note_on_c, 1, 47, 80
3, 154844, Note_off_c, 1, 47, 100
3, 154848, Note_on_c, 1, 53, 80
3, 154940, Note_off_c, 1, 53, 100
3, 154944, Note_on_c, 1, 55, 80
3, 155036, Note_off_c, 1, 55, 100
3, 155040, Note_on_c, 1, 53, 80
3, 155132, Note_off_c, 1, 53, 100
3, 155136, Note_on_c, 1, 47, 80
3, 155228, Note_off_c, 1, 47, 100
3, 155232, Note_on_c, 1, 53, 80
3, 155324, Note_off_c, 1, 53, 100
3, 155328, Note_on_c, 1, 55, 80
3, 155420, Note_off_c, 1, 55, 100
3, 155424, Note_on_c, 1, 53, 80
3, 155516, Note_off_c, 1, 53, 100
3, 155520, Note_on_c, 1, 48, 80
3, 155612, Note_off_c, 1, 48, 100
3, 155616, Note_on_c, 1, 52, 80
3, 155708, Note_off_c, 1, 52, 100
3, 155712, Note_on_c, 1, 55, 80
3, 155804, Note_off_c, 1, 55, 100
3, 155808, Note_on_c, 1, 52, 80
3, 155900, Note_off_c, 1, 52, 100
3, 155904, Note_on_c, 1, 48, 80
3, 155996, Note_off_c, 1, 48, 100
3, 156000, Note_on_c, 1, 52, 80
3, 156092, Note_off_c, 1, 52, 100
3, 156096, Note_on_c, 1, 55, 80
3, 156188, Note_off_c, 1, 55, 100
3, 156192, Note_on_c, 1, 52, 80
3, 156284, Note_off_c, 1, 52, 100
3, 156288, Note_on_c, 1, 50, 80
3, 156380, Note_off_c, 1, 50, 100
3, 156384, Note_on_c, 1, 53, 80
3, 156476, Note_off_c, 1, 53, 100
3, 156480, Note_on_c, 1, 59, 80
3, 156572, Note_off_c, 1, 59, 100
3, 156576, Note_on_c, 1, 53, 80
3, 156668, Note_off_c, 1, 53, 100
3, 156672, Note_on_c, 1, 50, 80
3, 156764, Note_off_c, 1, 50, 100
3, 156768, Note_on_c, 1, 53, 80
3, 156860, Note_off_c, 1, 53, 100
3, 156864, Note_on_c, 1, 59, 80
3, 156956, Note_off_c, 1, 59, 100
3, 156960, Note_on_c, 1, 53, 80
3, 157052, Note_off_c, 1, 53, 100
3, 157056, Note_on_c, 1, 52, 80
3, 157148, Note_off_c, 1, 52, 100
3, 157152, Note_on_c, 1, 55, 80
3, 157244, Note_off_c, 1, 55, 100
3, 157248, Note_on_c, 1, 60, 80
3, 157340, Note_off_c, 1, 60, 100
3, 157344, Note_on_c, 1, 55, 80
3, 157436, Note_off_c, 1, 55, 100
3, 157440, Note_on_c, 1, 52, 80
3, 157532, Note_off_c, 1, 52, 100
3, 157536, Note_on_c, 1, 55, 80
3, 157628, Note_off_c, 1, 55, 100
3, 157632, Note_on_c, 1, 60, 80
3, 157724, Note_off_c, 1, 60, 100
3, 157728, Note_on_c, 1, 55, 80
3, 157820, Note_off_c, 1, 55, 100
3, 157824, Note_on_c, 1, 53, 80
3, 157916, Note_off_c, 1, 53, 100
3, 157920, Note_on_c, 1, 57, 80
3, 158012, Note_off_c, 1, 57, 100
3, 158016, Note_on_c, 1, 62, 80
3, 158108, Note_off_c, 1, 62, 100
3, 158112, Note_on_c, 1, 57, 80
3, 158204, Note_off_c, 1, 57, 100
3, 158208, Note_on_c, 1, 54, 80
3, 158300, Note_off_c, 1, 54, 100
3, 158304, Note_on_c, 1, 57, 80
3, 158396, Note_off_c, 1, 57, 100
3, 158400, Note_on_c, 1, 62, 80
3, 158492, Note_off_c, 1, 62, 100
3, 158496, Note_on_c, 1, 57, 80
3, 158588, Note_off_c, 1, 57, 100
3, 158592, Note_on_c, 1, 55, 80
3, 158684, Note_off_c, 1, 55, 100
3, 158688, Note_on_c, 1, 59, 80
3, 158780, Note_off_c, 1, 59, 100
3, 158784, Note_on_c, 1, 62, 80
3, 158876, Note_off_c, 1, 62, 100
3, 158880, Note_on_c, 1, 59, 80
3, 158972, Note_off_c, 1, 59, 100
3, 158976, Note_on_c, 1, 55, 80
3, 159068, Note_off_c, 1, 55, 100
3, 159072, Note_on_c, 1, 59, 80
3, 159164, Note_off_c, 1, 59, 100
3, 159168, Note_on_c, 1, 64, 80
3, 159260, Note_off_c, 1, 64, 100
3, 159264, Note_on_c, 1, 59, 80
3, 159356, Note_off_c, 1, 59, 100
3, 159360, Note_on_c, 1, 57, 80
3, 159452, Note_off_c, 1, 57, 100
3, 159456, Note_on_c, 1, 60, 80
3, 159548, Note_off_c, 1, 60, 100
3, 159552, Note_on_c, 1, 64, 80
3, 159644, Note_off_c, 1, 64, 100
3, 159648, Note_on_c, 1, 60, 80
3, 159740, Note_off_c, 1, 60, 100
3, 159744, Note_on_c, 1, 57, 80
3, 159836, Note_off_c, 1, 57, 100
3, 159840, Note_on_c, 1, 60, 80
3, 159932, Note_off_c, 1, 60, 100
3, 159936, Note_on_c, 1, 66, 80
3, 160028, Note_off_c, 1, 66, 100
3, 160032, Note_on_c, 1, 60, 80
3, 160124, Note_off_c, 1, 60, 100
3, 160128, Note_on_c, 1, 59, 80
3, 160220, Note_off_c, 1, 59, 100
3, 160224, Note_on_c, 1, 62, 80
3, 160316, Note_off_c, 1, 62, 100
3, 160320, Note_on_c, 1, 66, 80
3, 160412, Note_off_c, 1, 66, 100
3, 160416, Note_on_c, 1, 62, 80
3, 160508, Note_off_c, 1, 62, 100
3, 160512, Note_on_c, 1, 59, 80
3, 160604, Note_off_c, 1, 59, 100
3, 160608, Note_on_c, 1, 62, 80
3, 160700, Note_off_c, 1, 62, 100
3, 160704, Note_on_c, 1, 67, 80
3, 160796, Note_off_c, 1, 67, 100
3, 160800, Note_on_c, 1, 62, 80
3, 160892, Note_off_c, 1, 62, 100
3, 160896, Note_on_c, 1, 60, 80
3, 160988, Note_off_c, 1, 60, 100
3, 160992, Note_on_c, 1, 64, 80
3, 161084, Note_off_c, 1, 64, 100
3, 161088, Note_on_c, 1, 69, 80
3, 161180, Note_off_c, 1, 69, 100
3, 161184, Note_on_c, 1, 64, 80
3, 161276, Note_off_c, 1, 64, 100
3, 161280, Note_on_c, 1, 61, 80
3, 161372, Note_off_c, 1, 61, 100
3, 161376, Note_on_c, 1, 64, 80
3, 161468, Note_off_c, 1, 64, 100
3, 161472, Note_on_c, 1, 69, 80
3, 161564, Note_off_c, 1, 69, 100
3, 161568, Note_on_c, 1, 64, 80
3, 161660, Note_off_c, 1, 64, 100
3, 161664, Note_on_c, 1, 62, 80
3, 161756, Note_off_c, 1, 62, 100
3, 161760, Note_on_c, 1, 69, 80
3, 161852, Note_off_c, 1, 69, 100
3, 161856, Note_on_c, 1, 74, 80
3, 161948, Note_off_c, 1, 74, 100
3, 161952, Note_on_c, 1, 69, 80
3, 162044, Note_off_c, 1, 69, 100
3, 162048, Note_on_c, 1, 62, 80
3, 162140, Note_off_c, 1, 62, 100
3, 162144, Note_on_c, 1, 67, 80
3, 162236, Note_off_c, 1, 67, 100
3, 162240, Note_on_c, 1, 73, 80
3, 162332, Note_off_c, 1, 73, 100
3, 162336, Note_on_c, 1, 67, 80
3, 162428, Note_off_c, 1, 67, 100
3, 162432, Note_on_c, 1, 62, 80
3, 162524, Note_off_c, 1, 62, 100
3, 162528, Note_on_c, 1, 66, 80
3, 162620, Note_off_c, 1, 66, 100
3, 162624, Note_on_c, 1, 69, 80
3, 162716, Note_off_c, 1, 69, 100
3, 162720, Note_on_c, 1, 66, 80
3, 162812, Note_off_c, 1, 66, 100
3, 162816, Note_on_c, 1, 62, 80
3, 162908, Note_off_c, 1, 62, 100
3, 162912, Note_on_c, 1, 69, 80
3, 163004, Note_off_c, 1, 69, 100
3, 163008, Note_on_c, 1, 73, 80
3, 163100, Note_off_c, 1, 73, 100
3, 163104, Note_on_c, 1, 69, 80
3, 163196, Note_off_c, 1, 69, 100
3, 163200, Note_on_c, 1, 62, 80
3, 163292, Note_off_c, 1, 62, 100
3, 163296, Note_on_c, 1, 69, 80
3, 163388, Note_off_c, 1, 69, 100
3, 163392, Note_on_c, 1, 74, 80
3, 163484, Note_off_c, 1, 74, 100
3, 163488, Note_on_c, 1, 69, 80
3, 163580, Note_off_c, 1, 69, 100
3, 163584, Note_on_c, 1, 62, 80
3, 163676, Note_off_c, 1, 62, 100
3, 163680, Note_on_c, 1, 67, 80
3, 163772, Note_off_c, 1, 67, 100
3, 163776, Note_on_c, 1, 73, 80
3, 163868, Note_off_c, 1, 73, 100
3, 163872, Note_on_c, 1, 67, 80
3, 163964, Note_off_c, 1, 67, 100
3, 163968, Note_on_c, 1, 62, 80
3, 164060, Note_off_c, 1, 62, 100
3, 164064, Note_on_c, 1, 66, 80
3, 164156, Note_off_c, 1, 66, 100
3, 164160, Note_on_c, 1, 69, 80
3, 164252, Note_off_c, 1, 69, 100
3, 164256, Note_on_c, 1, 66, 80
3, 164348, Note_off_c, 1, 66, 100
3, 164352, Note_on_c, 1, 62, 80
3, 164444, Note_off_c, 1, 62, 100
3, 164448, Note_on_c, 1, 69, 80
3, 164540, Note_off_c, 1, 69, 100
3, 164544, Note_on_c, 1, 73, 80
3, 164636, Note_off_c, 1, 73, 100
3, 164640, Note_on_c, 1, 69, 80
3, 164732, Note_off_c, 1, 69, 100
3, 164736, Note_on_c, 1, 62, 80
3, 164828, Note_off_c, 1, 62, 100
3, 164832, Note_on_c, 1, 69, 80
3, 164924, Note_off_c, 1, 69, 100
3, 164928, Note_on_c, 1, 74, 80
3, 165020, Note_off_c, 1, 74, 100
3, 165024, Note_on_c, 1, 69, 80
3, 165116, Note_off_c, 1, 69, 100
3, 165120, Note_on_c, 1, 62, 80
3, 165212, Note_off_c, 1, 62, 100
3, 165216, Note_on_c, 1, 67, 80
3, 165308, Note_off_c, 1, 67, 100
3, 165312, Note_on_c, 1, 73, 80
3, 165404, Note_off_c, 1, 73, 100
3, 165408, Note_on_c, 1, 67, 80
3, 165500, Note_off_c, 1, 67, 100
3, 165504, Note_on_c, 1, 69, 80
3, 165504, Note_on_c, 1, 66, 80
3, 165504, Note_on_c, 1, 62, 80
3, 165692, Note_off_c, 1, 69, 100
3, 165692, Note_off_c, 1, 66, 100
3, 165692, Note_off_c, 1, 62, 100
3, 167136, Note_on_c, 1, 43, 80
3, 167228, Note_off_c, 1, 43, 100
3, 167232, Note_on_c, 1, 55, 80
3, 167324, Note_off_c, 1, 55, 100
3, 167520, Note_on_c, 1, 55, 80
3, 167612, Note_off_c, 1, 55, 100
3, 167616, Note_on_c, 1, 67, 80
3, 167708, Note_off_c, 1, 67, 100
3, 167904, Note_on_c, 1, 67, 80
3, 167996, Note_off_c, 1, 67, 100
3, 168000, Note_on_c, 1, 79, 80
3, 168092, Note_off_c, 1, 79, 100
3, 169536, Note_on_c, 1, 38, 80
3, 169724, Note_off_c, 1, 38, 100
3, 169728, Note_on_c, 1, 38, 80
3, 169916, Note_off_c, 1, 38, 100
3, 169920, Note_on_c, 1, 38, 80
3, 170108, Note_off_c, 1, 38, 100
3, 170208, Note_on_c, 1, 38, 80
3, 170300, Note_off_c, 1, 38, 100
3, 170304, Note_on_c, 1, 50, 80
3, 170396, Note_off_c, 1, 50, 100
3, 170592, Note_on_c, 1, 50, 80
3, 170684, Note_off_c, 1, 50, 100
3, 170688, Note_on_c, 1, 62, 80
3, 170780, Note_off_c, 1, 62, 100
3, 170976, Note_on_c, 1, 62, 80
3, 171068, Note_off_c, 1, 62, 100
3, 171072, Note_on_c, 1, 74, 80
3, 171164, Note_off_c, 1, 74, 100
3, 172512, Note_on_c, 1, 62, 80
3, 172604, Note_off_c, 1, 62, 100
3, 172608, Note_on_c, 1, 55, 80
3, 172700, Note_off_c, 1, 55, 100
3, 172704, Note_on_c, 1, 62, 80
3, 172796, Note_off_c, 1, 62, 100
3, 172800, Note_on_c, 1, 54, 80
3, 172892, Note_off_c, 1, 54, 100
3, 172896, Note_on_c, 1, 62, 80
3, 172988, Note_off_c, 1, 62, 100
3, 172992, Note_on_c, 1, 50, 80
3, 173084, Note_off_c, 1, 50, 100
3, 173088, Note_on_c, 1, 62, 80
3, 173180, Note_off_c, 1, 62, 100
3, 173280, Note_on_c, 1, 62, 80
3, 173372, Note_off_c, 1, 62, 100
3, 173376, Note_on_c, 1, 55, 80
3, 173468, Note_off_c, 1, 55, 100
3, 173472, Note_on_c, 1, 62, 80
3, 173564, Note_off_c, 1, 62, 100
3, 173568, Note_on_c, 1, 54, 80
3, 173660, Note_off_c, 1, 54, 100
3, 173664, Note_on_c, 1, 62, 80
3, 173756, Note_off_c, 1, 62, 100
3, 173760, Note_on_c, 1, 50, 80
3, 173852, Note_off_c, 1, 50, 100
3, 173856, Note_on_c, 1, 62, 80
3, 173948, Note_off_c, 1, 62, 100
3, 173952, Note_on_c, 1, 55, 80
3, 174332, Note_off_c, 1, 55, 100
3, 174336, Note_on_c, 1, 57, 80
3, 174716, Note_off_c, 1, 57, 100
3, 174720, Note_on_c, 1, 50, 80
3, 174908, Note_off_c, 1, 50, 100
3, 174912, Note_on_c, 1, 72, 80
3, 174912, Note_on_c, 1, 69, 80
3, 175004, Note_off_c, 1, 72, 100
3, 175004, Note_off_c, 1, 69, 100
3, 175008, Note_on_c, 1, 62, 80
3, 175100, Note_off_c, 1, 62, 100
3, 175104, Note_on_c, 1, 71, 80
3, 175104, Note_on_c, 1, 67, 80
3, 175196, Note_off_c, 1, 71, 100
3, 175196, Note_off_c, 1, 67, 100
3, 175200, Note_on_c, 1, 62, 80
3, 175292, Note_off_c, 1, 62, 100
3, 175296, Note_on_c, 1, 69, 80
3, 175296, Note_on_c, 1, 66, 80
3, 175388, Note_off_c, 1, 69, 100
3, 175388, Note_off_c, 1, 66, 100
3, 175392, Note_on_c, 1, 62, 80
3, 175484, Note_off_c, 1, 62, 100
3, 175488, Note_on_c, 1, 67, 80
3, 175488, Note_on_c, 1, 71, 80
3, 175580, Note_off_c, 1, 67, 100
3, 175580, Note_off_c, 1, 71, 100
3, 175584, Note_on_c, 1, 62, 80
3, 175676, Note_off_c, 1, 62, 100
3, 175680, Note_on_c, 1, 71, 80
3, 175680, Note_on_c, 1, 67, 80
3, 175772, Note_off_c, 1, 71, 100
3, 175772, Note_off_c, 1, 67, 100
3, 175776, Note_on_c, 1, 62, 80
3, 175868, Note_off_c, 1, 62, 100
3, 175872, Note_on_c, 1, 66, 80
3, 175872, Note_on_c, 1, 69, 80
3, 175964, Note_off_c, 1, 66, 100
3, 175964, Note_off_c, 1, 69, 100
3, 175968, Note_on_c, 1, 62, 80
3, 176060, Note_off_c, 1, 62, 100
3, 176064, Note_on_c, 1, 69, 80
3, 176064, Note_on_c, 1, 72, 80
3, 176156, Note_off_c, 1, 69, 100
3, 176156, Note_off_c, 1, 72, 100
3, 176160, Note_on_c, 1, 62, 80
3, 176252, Note_off_c, 1, 62, 100
3, 176256, Note_on_c, 1, 67, 80
3, 176256, Note_on_c, 1, 71, 80
3, 176348, Note_off_c, 1, 67, 100
3, 176348, Note_off_c, 1, 71, 100
3, 176352, Note_on_c, 1, 62, 80
3, 176444, Note_off_c, 1, 62, 100
3, 176448, Note_on_c, 1, 71, 80
3, 176448, Note_on_c, 1, 67, 80
3, 176540, Note_off_c, 1, 71, 100
3, 176540, Note_off_c, 1, 67, 100
3, 176544, Note_on_c, 1, 62, 80
3, 176636, Note_off_c, 1, 62, 100
3, 176640, Note_on_c, 1, 66, 80
3, 176640, Note_on_c, 1, 69, 80
3, 176732, Note_off_c, 1, 66, 100
3, 176732, Note_off_c, 1, 69, 100
3, 176736, Note_on_c, 1, 62, 80
3, 176828, Note_off_c, 1, 62, 100
3, 176832, Note_on_c, 1, 69, 80
3, 176832, Note_on_c, 1, 72, 80
3, 176924, Note_off_c, 1, 69, 100
3, 176924, Note_off_c, 1, 72, 100
3, 176928, Note_on_c, 1, 62, 80
3, 177020, Note_off_c, 1, 62, 100
3, 177024, Note_on_c, 1, 67, 80
3, 177116, Note_off_c, 1, 67, 100
3, 177120, Note_on_c, 1, 71, 81
3, 177212, Note_off_c, 1, 71, 100
3, 177216, Note_on_c, 1, 69, 82
3, 177308, Note_off_c, 1, 69, 100
3, 177312, Note_on_c, 1, 72, 83
3, 177404, Note_off_c, 1, 72, 100
3, 177408, Note_on_c, 1, 71, 85
3, 177500, Note_off_c, 1, 71, 100
3, 177504, Note_on_c, 1, 74, 86
3, 177596, Note_off_c, 1, 74, 100
3, 177600, Note_on_c, 1, 72, 87
3, 177692, Note_off_c, 1, 72, 100
3, 177696, Note_on_c, 1, 76, 89
3, 177788, Note_off_c, 1, 76, 100
3, 177792, Note_on_c, 1, 74, 90
3, 177884, Note_off_c, 1, 74, 100
3, 177888, Note_on_c, 1, 77, 91
3, 177980, Note_off_c, 1, 77, 100
3, 177984, Note_on_c, 1, 73, 93
3, 178076, Note_off_c, 1, 73, 100
3, 178080, Note_on_c, 1, 76, 94
3, 178172, Note_off_c, 1, 76, 100
3, 178176, Note_on_c, 1, 74, 95
3, 178268, Note_off_c, 1, 74, 100
3, 178272, Note_on_c, 1, 77, 97
3, 178364, Note_off_c, 1, 77, 100
3, 178368, Note_on_c, 1, 71, 98
3, 178460, Note_off_c, 1, 71, 100
3, 178464, Note_on_c, 1, 75, 99
3, 178556, Note_off_c, 1, 75, 100
3, 178560, Note_on_c, 1, 72, 80
3, 178748, Note_off_c, 1, 72, 100
3, 178944, Note_on_c, 1, 67, 80
3, 178944, Note_on_c, 1, 64, 80
3, 178944, Note_on_c, 1, 60, 80
3, 179132, Note_off_c, 1, 67, 100
3, 179132, Note_off_c, 1, 64, 100
3, 179132, Note_off_c, 1, 60, 100
3, 179328, Note_on_c, 1, 70, 80
3, 179328, Note_on_c, 1, 67, 80
3, 179328, Note_on_c, 1, 64, 80
3, 179328, Note_on_c, 1, 61, 80
3, 179516, Note_off_c, 1, 70, 100
3, 179516, Note_off_c, 1, 67, 100
3, 179516, Note_off_c, 1, 64, 100
3, 179516, Note_off_c, 1, 61, 100
3, 179712, Note_on_c, 1, 70, 85
3, 179712, Note_on_c, 1, 67, 85
3, 179712, Note_on_c, 1, 64, 85
3, 179712, Note_on_c, 1, 61, 85
3, 179900, Note_off_c, 1, 70, 100
3, 179900, Note_off_c, 1, 67, 100
3, 179900, Note_off_c, 1, 64, 100
3, 179900, Note_off_c, 1, 61, 100
3, 180096, Note_on_c, 1, 71, 90
3, 180096, Note_on_c, 1, 67, 90
3, 180096, Note_on_c, 1, 62, 90
3, 180284, Note_off_c, 1, 71, 100
3, 180284, Note_off_c, 1, 67, 100
3, 180284, Note_off_c, 1, 62, 100
3, 180864, Note_on_c, 1, 62, 110
3, 180864, Note_on_c, 1, 50, 110
3, 181244, Note_off_c, 1, 62, 100
3, 181248, Note_on_c, 1, 60, 110
3, 181628, Note_off_c, 1, 50, 100
3, 181628, Note_off_c, 1, 60, 100
3, 181632, Note_on_c, 1, 55, 110
3, 181632, Note_on_c, 1, 59, 110
3, 181820, Note_off_c, 1, 55, 100
3, 181820, Note_off_c, 1, 59, 100
3, 182400, Note_on_c, 1, 50, 110
3, 182400, Note_on_c, 1, 38, 110
3, 182780, Note_off_c, 1, 50, 100
3, 182784, Note_on_c, 1, 48, 110
3, 183164, Note_off_c, 1, 38, 100
3, 183164, Note_off_c, 1, 48, 100
3, 183168, Note_on_c, 1, 47, 80
3, 183168, Note_on_c, 1, 43, 80
3, 183356, Note_off_c, 1, 47, 100
3, 183356, Note_off_c, 1, 43, 100
3, 184128, Note_on_c, 1, 31, 80
3, 184316, Note_off_c, 1, 31, 100
3, 184320, Note_on_c, 1, 35, 80
3, 184508, Note_off_c, 1, 35, 100
3, 184512, Note_on_c, 1, 38, 80
3, 184700, Note_off_c, 1, 38, 100
3, 184704, Note_on_c, 1, 43, 80
3, 185660, Note_off_c, 1, 43, 100
3, 185664, Note_on_c, 1, 43, 80
3, 185852, Note_off_c, 1, 43, 100
3, 185856, Note_on_c, 1, 42, 80
3, 186044, Note_off_c, 1, 42, 100
3, 186048, Note_on_c, 1, 40, 80
3, 186236, Note_off_c, 1, 40, 100
3, 186240, Note_on_c, 1, 42, 80
3, 186620, Note_off_c, 1, 42, 100
3, 186624, Note_on_c, 1, 38, 80
3, 187196, Note_off_c, 1, 38, 100
3, 187200, Note_on_c, 1, 38, 80
3, 187388, Note_off_c, 1, 38, 100
3, 187392, Note_on_c, 1, 40, 80
3, 187580, Note_off_c, 1, 40, 100
3, 187584, Note_on_c, 1, 35, 80
3, 187772, Note_off_c, 1, 35, 100
3, 187776, Note_on_c, 1, 36, 80
3, 187964, Note_off_c, 1, 36, 100
3, 187968, Note_on_c, 1, 36, 80
3, 188156, Note_off_c, 1, 36, 100
3, 188160, Note_on_c, 1, 38, 80
3, 188732, Note_off_c, 1, 38, 100
3, 188736, Note_on_c, 1, 38, 80
3, 188924, Note_off_c, 1, 38, 100
3, 188928, Note_on_c, 1, 40, 80
3, 189116, Note_off_c, 1, 40, 100
3, 189120, Note_on_c, 1, 35, 80
3, 189308, Note_off_c, 1, 35, 100
3, 189312, Note_on_c, 1, 36, 80
3, 189500, Note_off_c, 1, 36, 100
3, 189504, Note_on_c, 1, 36, 80
3, 189692, Note_off_c, 1, 36, 100
3, 189696, Note_on_c, 1, 38, 80
3, 190268, Note_off_c, 1, 38, 100
3, 190272, Note_on_c, 1, 39, 80
3, 190460, Note_off_c, 1, 39, 100
3, 190464, Note_on_c, 1, 40, 80
3, 190652, Note_off_c, 1, 40, 100
3, 190656, Note_on_c, 1, 41, 80
3, 190844, Note_off_c, 1, 41, 100
3, 190848, Note_on_c, 1, 40, 80
3, 191036, Note_off_c, 1, 40, 100
3, 191040, Note_on_c, 1, 41, 80
3, 191228, Note_off_c, 1, 41, 100
3, 191232, Note_on_c, 1, 40, 80
3, 191420, Note_off_c, 1, 40, 100
3, 191424, Note_on_c, 1, 38, 80
3, 191612, Note_off_c, 1, 38, 100
3, 191616, Note_on_c, 1, 36, 80
3, 191996, Note_off_c, 1, 36, 100
3, 192000, Note_on_c, 1, 37, 80
3, 192380, Note_off_c, 1, 37, 100
3, 192384, Note_on_c, 1, 38, 80
3, 192764, Note_off_c, 1, 38, 100
3, 192768, Note_on_c, 1, 38, 80
3, 193148, Note_off_c, 1, 38, 100
3, 193344, Note_on_c, 1, 43, 80
3, 193440, Note_on_c, 1, 47, 80
3, 193536, Note_on_c, 1, 50, 80
3, 193916, Note_off_c, 1, 43, 100
3, 193916, Note_off_c, 1, 47, 100
3, 193916, Note_off_c, 1, 50, 100
3, 194112, Note_on_c, 1, 43, 80
3, 194208, Note_on_c, 1, 50, 80
3, 194304, Note_on_c, 1, 53, 80
3, 194684, Note_off_c, 1, 43, 100
3, 194684, Note_off_c, 1, 50, 100
3, 194684, Note_off_c, 1, 53, 100
3, 194880, Note_on_c, 1, 43, 80
3, 194976, Note_on_c, 1, 48, 80
3, 195072, Note_on_c, 1, 52, 80
3, 195452, Note_off_c, 1, 43, 100
3, 195452, Note_off_c, 1, 48, 100
3, 195452, Note_off_c, 1, 52, 100
3, 195648, Note_on_c, 1, 43, 80
3, 195744, Note_on_c, 1, 50, 80
3, 195840, Note_on_c, 1, 54, 80
3, 196220, Note_off_c, 1, 43, 100
3, 196220, Note_off_c, 1, 50, 100
3, 196220, Note_off_c, 1, 54, 100
3, 196416, Note_on_c, 1, 43, 80
3, 196512, Note_on_c, 1, 50, 80
3, 196608, Note_on_c, 1, 55, 80
3, 196988, Note_off_c, 1, 43, 100
3, 196988, Note_off_c, 1, 50, 100
3, 196988, Note_off_c, 1, 55, 100
3, 197184, Note_on_c, 1, 43, 84
3, 197280, Note_on_c, 1, 50, 86
3, 197376, Note_on_c, 1, 53, 88
3, 197756, Note_off_c, 1, 43, 100
3, 197756, Note_off_c, 1, 50, 100
3, 197756, Note_off_c, 1, 53, 100
3, 197952, Note_on_c, 1, 43, 100
3, 198048, Note_on_c, 1, 48, 102
3, 198144, Note_on_c, 1, 52, 104
3, 198524, Note_off_c, 1, 43, 100
3, 198524, Note_off_c, 1, 48, 100
3, 198524, Note_off_c, 1, 52, 100
3, 198720, Note_on_c, 1, 43, 108
3, 198816, Note_on_c, 1, 45, 106
3, 198912, Note_on_c, 1, 54, 105
3, 200828, Note_off_c, 1, 43, 100
3, 200828, Note_off_c, 1, 45, 100
3, 200828, Note_off_c, 1, 54, 100
3, 200832, Note_on_c, 1, 55, 80
3, 200832, Note_on_c, 1, 50, 80
3, 200832, Note_on_c, 1, 47, 80
3, 200832, Note_on_c, 1, 43, 80
3, 201020, Note_off_c, 1, 55, 100
3, 201020, Note_off_c, 1, 50, 100
3, 201020, Note_off_c, 1, 47, 100
3, 201020, Note_off_c, 1, 43, 100
3, 201216, Note_on_c, 1, 62, 80
3, 201216, Note_on_c, 1, 66, 80
3, 201596, Note_off_c, 1, 62, 100
3, 201596, Note_off_c, 1, 66, 100
3, 201600, Note_on_c, 1, 67, 80
3, 201600, Note_on_c, 1, 55, 80
3, 201788, Note_off_c, 1, 67, 100
3, 201788, Note_off_c, 1, 55, 100
3, 201984, Note_on_c, 1, 78, 80
3, 201984, Note_on_c, 1, 74, 80
3, 202364, Note_off_c, 1, 78, 100
3, 202364, Note_off_c, 1, 74, 100
3, 202368, Note_on_c, 1, 78, 80
3, 202368, Note_on_c, 1, 74, 80
3, 203132, Note_off_c, 1, 78, 100
3, 203132, Note_off_c, 1, 74, 100
3, 203136, Note_on_c, 1, 79, 80
3, 203136, Note_on_c, 1, 67, 80
3, 203516, Note_off_c, 1, 79, 100
3, 203516, Note_off_c, 1, 67, 100
3, 203516, End_track
0, 0, End_of_file
