0, 0, Header, 1, 3, 384
1, 0, Start_track
1, 0, Title_t, "L.v.Beethoven 3mov - Piano Sonata No.10 in G Major Op.14-2\000"
1, 0, Copyright_t, "Copyright(C) 1995-2009, Suzuki Software\000"
1, 0, Sequencer_specific, 9, 67, 123, 0, 88, 70, 48, 50, 0, 1
1, 0, Text_t, "XFhd:2000/05/16:JP:Classical::::L.v.Beethoven:::Kaoru Suzuki\000"
1, 0, Text_t, "XFln:JP:\203s\203A\203m\203\\\203i\203^\221æ10\224Ô\203g\222·\222²\215ì\225i14-2\201`\221æ3\212y\217Í:L.v.\203x\201[\203g\201[\203\224\203F\203\223:::\227é\202¿\202á\202ñ:\227é\202¿\202á\202ñ\000"
1, 0, Time_signature, 1, 3, 96, 8
1, 0, Sequencer_specific, 3, 0, 0, 65
1, 0, Sequencer_specific, 5, 0, 0, 119, 14, 0
1, 0, Tempo, 480000
1, 192, Time_signature, 3, 3, 96, 8
1, 5376, Tempo, 533333
1, 5760, Tempo, 480000
1, 6528, Tempo, 533333
1, 6912, Tempo, 480000
1, 7680, Tempo, 489795
1, 7872, Tempo, 500000
1, 8064, Tempo, 510638
1, 8256, Tempo, 521739
1, 8448, Tempo, 533333
1, 8640, Tempo, 545454
1, 8832, Tempo, 571428
1, 10080, Tempo, 480000
1, 14592, Tempo, 500000
1, 14784, Tempo, 521739
1, 14976, Tempo, 545454
1, 15744, Tempo, 480000
1, 16896, Tempo, 500000
1, 17088, Tempo, 521739
1, 17280, Tempo, 545454
1, 18048, Tempo, 480000
1, 19200, Tempo, 500000
1, 19392, Tempo, 521739
1, 19584, Tempo, 545454
1, 19776, Tempo, 480000
1, 21312, Tempo, 489795
1, 21504, Tempo, 510638
1, 21696, Tempo, 533333
1, 21888, Tempo, 571428
1, 24384, Tempo, 480000
1, 32448, Tempo, 489795
1, 32640, Tempo, 500000
1, 32832, Tempo, 510638
1, 33024, Tempo, 521739
1, 33216, Tempo, 533333
1, 33408, Tempo, 545454
1, 33600, Tempo, 705882
1, 34560, Tempo, 545454
1, 34848, Tempo, 480000
1, 37440, Tempo, 521739
1, 38016, Tempo, 480000
1, 41664, Tempo, 521739
1, 41856, Tempo, 631578
1, 42240, Tempo, 666666
1, 42864, Tempo, 480000
1, 78912, Tempo, 521739
1, 79104, Tempo, 545454
1, 79488, Tempo, 600000
1, 81216, Tempo, 521739
1, 81600, Tempo, 500000
1, 81792, Tempo, 480000
1, 88896, Tempo, 491803
1, 89088, Tempo, 500000
1, 89280, Tempo, 510638
1, 89472, Tempo, 521739
1, 89664, Tempo, 545454
1, 89856, Tempo, 571428
1, 90048, Tempo, 666666
1, 91008, Tempo, 521739
1, 91392, Tempo, 480000
1, 99264, Tempo, 500000
1, 99840, Tempo, 521739
1, 100416, Tempo, 545454
1, 100992, Tempo, 571428
1, 101184, Tempo, 600000
1, 102528, Tempo, 521739
1, 103296, Tempo, 510638
1, 105216, Tempo, 500000
1, 107136, Tempo, 489795
1, 107712, Tempo, 480000
1, 107904, Tempo, 500000
1, 108096, Tempo, 521739
1, 108288, Tempo, 545454
1, 108480, Tempo, 489795
1, 120384, Tempo, 480000
1, 121728, Tempo, 500000
1, 121920, Tempo, 521739
1, 122112, Tempo, 545454
1, 122496, Tempo, 500000
1, 131136, Tempo, 521739
1, 131328, Tempo, 545454
1, 131520, Tempo, 500000
1, 135552, Tempo, 510638
1, 135744, Tempo, 533333
1, 135936, Tempo, 571428
1, 136320, Tempo, 489795
1, 136896, Tempo, 500000
1, 137472, Tempo, 521739
1, 138048, Tempo, 545454
1, 138480, Tempo, 489795
1, 146112, Tempo, 500000
1, 146304, Tempo, 510638
1, 146496, Tempo, 521739
1, 146688, Tempo, 545454
1, 146880, Tempo, 571428
1, 147072, Tempo, 600000
1, 147072, End_track
2, 0, Start_track
2, 0, Title_t, "Right"
2, 0, Control_c, 0, 0, 0
2, 0, Program_c, 0, 0
2, 0, Control_c, 0, 7, 100
2, 0, Control_c, 0, 10, 75
2, 0, Control_c, 0, 91, 127
2, 0, Key_signature, 1, "major"
2, 0, Note_on_c, 0, 59, 80
2, 92, Note_off_c, 0, 59, 100
2, 96, Note_on_c, 0, 60, 80
2, 188, Note_off_c, 0, 60, 100
2, 192, Note_on_c, 0, 62, 80
2, 380, Note_off_c, 0, 62, 100
2, 384, Note_on_c, 0, 64, 80
2, 476, Note_off_c, 0, 64, 100
2, 480, Note_on_c, 0, 66, 80
2, 572, Note_off_c, 0, 66, 100
2, 576, Note_on_c, 0, 67, 80
2, 764, Note_off_c, 0, 67, 100
2, 768, Note_on_c, 0, 69, 80
2, 860, Note_off_c, 0, 69, 100
2, 864, Note_on_c, 0, 71, 80
2, 956, Note_off_c, 0, 71, 100
2, 960, Note_on_c, 0, 72, 80
2, 1148, Note_off_c, 0, 72, 100
2, 1152, Note_on_c, 0, 73, 80
2, 1340, Note_off_c, 0, 73, 100
2, 1344, Note_on_c, 0, 74, 80
2, 1724, Note_off_c, 0, 74, 100
2, 1728, Note_on_c, 0, 76, 80
2, 1820, Note_off_c, 0, 76, 100
2, 1824, Note_on_c, 0, 73, 80
2, 1916, Note_off_c, 0, 73, 100
2, 1920, Note_on_c, 0, 74, 80
2, 2108, Note_off_c, 0, 74, 100
2, 2304, Note_on_c, 0, 71, 80
2, 2396, Note_off_c, 0, 71, 100
2, 2400, Note_on_c, 0, 72, 80
2, 2492, Note_off_c, 0, 72, 100
2, 2496, Note_on_c, 0, 74, 80
2, 2684, Note_off_c, 0, 74, 100
2, 2688, Note_on_c, 0, 76, 80
2, 2780, Note_off_c, 0, 76, 100
2, 2784, Note_on_c, 0, 78, 80
2, 2876, Note_off_c, 0, 78, 100
2, 2880, Note_on_c, 0, 79, 80
2, 3068, Note_off_c, 0, 79, 100
2, 3072, Note_on_c, 0, 81, 80
2, 3164, Note_off_c, 0, 81, 100
2, 3168, Note_on_c, 0, 83, 80
2, 3260, Note_off_c, 0, 83, 100
2, 3264, Note_on_c, 0, 84, 80
2, 3452, Note_off_c, 0, 84, 100
2, 3456, Note_on_c, 0, 85, 80
2, 3644, Note_off_c, 0, 85, 100
2, 3648, Note_on_c, 0, 74, 100
2, 3692, Note_off_c, 0, 74, 100
2, 3696, Note_on_c, 0, 86, 99
2, 4028, Note_off_c, 0, 86, 100
2, 4032, Note_on_c, 0, 84, 87
2, 4124, Note_off_c, 0, 84, 100
2, 4128, Note_on_c, 0, 81, 84
2, 4220, Note_off_c, 0, 81, 100
2, 4224, Note_on_c, 0, 79, 81
2, 4412, Note_off_c, 0, 79, 100
2, 4608, Note_on_c, 0, 62, 80
2, 4668, Note_off_c, 0, 62, 100
2, 4672, Note_on_c, 0, 64, 80
2, 4732, Note_off_c, 0, 64, 100
2, 4736, Note_on_c, 0, 66, 80
2, 4796, Note_off_c, 0, 66, 100
2, 4800, Note_on_c, 0, 67, 80
2, 4860, Note_off_c, 0, 67, 100
2, 4864, Note_on_c, 0, 69, 80
2, 4924, Note_off_c, 0, 69, 100
2, 4928, Note_on_c, 0, 71, 80
2, 4988, Note_off_c, 0, 71, 100
2, 4992, Note_on_c, 0, 72, 80
2, 5180, Note_off_c, 0, 72, 100
2, 5568, Note_on_c, 0, 84, 80
2, 5756, Note_off_c, 0, 84, 100
2, 5760, Note_on_c, 0, 62, 80
2, 5820, Note_off_c, 0, 62, 100
2, 5824, Note_on_c, 0, 64, 80
2, 5884, Note_off_c, 0, 64, 100
2, 5888, Note_on_c, 0, 66, 80
2, 5948, Note_off_c, 0, 66, 100
2, 5952, Note_on_c, 0, 67, 80
2, 6012, Note_off_c, 0, 67, 100
2, 6016, Note_on_c, 0, 69, 80
2, 6076, Note_off_c, 0, 69, 100
2, 6080, Note_on_c, 0, 71, 80
2, 6140, Note_off_c, 0, 71, 100
2, 6144, Note_on_c, 0, 72, 80
2, 6332, Note_off_c, 0, 72, 100
2, 6720, Note_on_c, 0, 84, 80
2, 6908, Note_off_c, 0, 84, 100
2, 6912, Note_on_c, 0, 62, 80
2, 6972, Note_off_c, 0, 62, 100
2, 6976, Note_on_c, 0, 64, 80
2, 7036, Note_off_c, 0, 64, 100
2, 7040, Note_on_c, 0, 66, 80
2, 7100, Note_off_c, 0, 66, 100
2, 7104, Note_on_c, 0, 67, 80
2, 7164, Note_off_c, 0, 67, 100
2, 7168, Note_on_c, 0, 69, 80
2, 7228, Note_off_c, 0, 69, 100
2, 7232, Note_on_c, 0, 71, 80
2, 7292, Note_off_c, 0, 71, 100
2, 7296, Note_on_c, 0, 72, 80
2, 7356, Note_off_c, 0, 72, 100
2, 7360, Note_on_c, 0, 74, 80
2, 7420, Note_off_c, 0, 74, 100
2, 7424, Note_on_c, 0, 76, 80
2, 7484, Note_off_c, 0, 76, 100
2, 7488, Note_on_c, 0, 78, 80
2, 7532, Note_off_c, 0, 78, 100
2, 7536, Note_on_c, 0, 79, 80
2, 7580, Note_off_c, 0, 79, 100
2, 7584, Note_on_c, 0, 81, 80
2, 7628, Note_off_c, 0, 81, 100
2, 7632, Note_on_c, 0, 83, 80
2, 7676, Note_off_c, 0, 83, 100
2, 7680, Note_on_c, 0, 84, 80
2, 7868, Note_off_c, 0, 84, 100
2, 7872, Note_on_c, 0, 84, 80
2, 8060, Note_off_c, 0, 84, 100
2, 8064, Note_on_c, 0, 84, 80
2, 8252, Note_off_c, 0, 84, 100
2, 8256, Note_on_c, 0, 84, 80
2, 8444, Note_off_c, 0, 84, 100
2, 8448, Note_on_c, 0, 81, 80
2, 8636, Note_off_c, 0, 81, 100
2, 8640, Note_on_c, 0, 79, 80
2, 8828, Note_off_c, 0, 79, 100
2, 8832, Note_on_c, 0, 78, 80
2, 8832, Note_on_c, 0, 69, 80
2, 9596, Note_off_c, 0, 69, 100
2, 9596, Note_off_c, 0, 78, 100
2, 9792, Note_on_c, 0, 71, 80
2, 9884, Note_off_c, 0, 71, 100
2, 9888, Note_on_c, 0, 72, 80
2, 9980, Note_off_c, 0, 72, 100
2, 9984, Note_on_c, 0, 74, 80
2, 10172, Note_off_c, 0, 74, 100
2, 10176, Note_on_c, 0, 76, 80
2, 10268, Note_off_c, 0, 76, 100
2, 10272, Note_on_c, 0, 78, 80
2, 10364, Note_off_c, 0, 78, 100
2, 10368, Note_on_c, 0, 79, 80
2, 10556, Note_off_c, 0, 79, 100
2, 10560, Note_on_c, 0, 81, 80
2, 10652, Note_off_c, 0, 81, 100
2, 10656, Note_on_c, 0, 83, 80
2, 10748, Note_off_c, 0, 83, 100
2, 10752, Note_on_c, 0, 84, 80
2, 10940, Note_off_c, 0, 84, 100
2, 10944, Note_on_c, 0, 85, 80
2, 11132, Note_off_c, 0, 85, 100
2, 11136, Note_on_c, 0, 86, 80
2, 11516, Note_off_c, 0, 86, 100
2, 11520, Note_on_c, 0, 88, 80
2, 11612, Note_off_c, 0, 88, 100
2, 11616, Note_on_c, 0, 85, 80
2, 11708, Note_off_c, 0, 85, 100
2, 11712, Note_on_c, 0, 86, 80
2, 11900, Note_off_c, 0, 86, 100
2, 12096, Note_on_c, 0, 76, 80
2, 12096, Note_on_c, 0, 84, 80
2, 12188, Note_off_c, 0, 84, 100
2, 12192, Note_on_c, 0, 81, 80
2, 12284, Note_off_c, 0, 76, 100
2, 12284, Note_off_c, 0, 81, 100
2, 12288, Note_on_c, 0, 71, 80
2, 12288, Note_on_c, 0, 79, 80
2, 12476, Note_off_c, 0, 71, 100
2, 12476, Note_off_c, 0, 79, 100
2, 12672, Note_on_c, 0, 72, 80
2, 12672, Note_on_c, 0, 81, 80
2, 12764, Note_off_c, 0, 81, 100
2, 12768, Note_on_c, 0, 78, 80
2, 12860, Note_off_c, 0, 72, 100
2, 12860, Note_off_c, 0, 78, 100
2, 12864, Note_on_c, 0, 71, 80
2, 12864, Note_on_c, 0, 79, 80
2, 13052, Note_off_c, 0, 71, 100
2, 13052, Note_off_c, 0, 79, 100
2, 13440, Note_on_c, 0, 71, 100
2, 13440, Note_on_c, 0, 63, 100
2, 13440, Note_on_c, 0, 59, 100
2, 13440, Note_on_c, 0, 66, 100
2, 14012, Note_off_c, 0, 71, 100
2, 14012, Note_off_c, 0, 63, 100
2, 14012, Note_off_c, 0, 59, 100
2, 14012, Note_off_c, 0, 66, 100
2, 14016, Note_on_c, 0, 71, 80
2, 14076, Note_off_c, 0, 71, 100
2, 14080, Note_on_c, 0, 75, 80
2, 14140, Note_off_c, 0, 75, 100
2, 14144, Note_on_c, 0, 78, 80
2, 14204, Note_off_c, 0, 78, 100
2, 14208, Note_on_c, 0, 83, 80
2, 14268, Note_off_c, 0, 83, 100
2, 14272, Note_on_c, 0, 81, 80
2, 14332, Note_off_c, 0, 81, 100
2, 14336, Note_on_c, 0, 79, 80
2, 14396, Note_off_c, 0, 79, 100
2, 14400, Note_on_c, 0, 78, 80
2, 14460, Note_off_c, 0, 78, 100
2, 14464, Note_on_c, 0, 76, 80
2, 14524, Note_off_c, 0, 76, 100
2, 14528, Note_on_c, 0, 75, 80
2, 14588, Note_off_c, 0, 75, 100
2, 14592, Note_on_c, 0, 76, 80
2, 14652, Note_off_c, 0, 76, 100
2, 14656, Note_on_c, 0, 71, 80
2, 14716, Note_off_c, 0, 71, 100
2, 14720, Note_on_c, 0, 79, 80
2, 14780, Note_off_c, 0, 79, 100
2, 14784, Note_on_c, 0, 76, 80
2, 14844, Note_off_c, 0, 76, 100
2, 14848, Note_on_c, 0, 71, 80
2, 14908, Note_off_c, 0, 71, 100
2, 14912, Note_on_c, 0, 79, 80
2, 14972, Note_off_c, 0, 79, 100
2, 14976, Note_on_c, 0, 78, 80
2, 15036, Note_off_c, 0, 78, 100
2, 15040, Note_on_c, 0, 71, 80
2, 15100, Note_off_c, 0, 71, 100
2, 15104, Note_on_c, 0, 81, 80
2, 15164, Note_off_c, 0, 81, 100
2, 15168, Note_on_c, 0, 79, 80
2, 15356, Note_off_c, 0, 79, 100
2, 15744, Note_on_c, 0, 71, 80
2, 15744, Note_on_c, 0, 66, 80
2, 15744, Note_on_c, 0, 63, 80
2, 15744, Note_on_c, 0, 59, 80
2, 16316, Note_off_c, 0, 71, 100
2, 16316, Note_off_c, 0, 66, 100
2, 16316, Note_off_c, 0, 63, 100
2, 16316, Note_off_c, 0, 59, 100
2, 16320, Note_on_c, 0, 71, 80
2, 16380, Note_off_c, 0, 71, 100
2, 16384, Note_on_c, 0, 74, 80
2, 16444, Note_off_c, 0, 74, 100
2, 16448, Note_on_c, 0, 78, 80
2, 16508, Note_off_c, 0, 78, 100
2, 16512, Note_on_c, 0, 83, 80
2, 16572, Note_off_c, 0, 83, 100
2, 16576, Note_on_c, 0, 81, 80
2, 16636, Note_off_c, 0, 81, 100
2, 16640, Note_on_c, 0, 79, 80
2, 16700, Note_off_c, 0, 79, 100
2, 16704, Note_on_c, 0, 78, 80
2, 16764, Note_off_c, 0, 78, 100
2, 16768, Note_on_c, 0, 76, 80
2, 16828, Note_off_c, 0, 76, 100
2, 16832, Note_on_c, 0, 74, 80
2, 16892, Note_off_c, 0, 74, 100
2, 16896, Note_on_c, 0, 76, 80
2, 16956, Note_off_c, 0, 76, 100
2, 16960, Note_on_c, 0, 79, 80
2, 17020, Note_off_c, 0, 79, 100
2, 17024, Note_on_c, 0, 73, 80
2, 17084, Note_off_c, 0, 73, 100
2, 17088, Note_on_c, 0, 74, 80
2, 17148, Note_off_c, 0, 74, 100
2, 17152, Note_on_c, 0, 78, 80
2, 17212, Note_off_c, 0, 78, 100
2, 17216, Note_on_c, 0, 71, 80
2, 17276, Note_off_c, 0, 71, 100
2, 17280, Note_on_c, 0, 73, 80
2, 17340, Note_off_c, 0, 73, 100
2, 17344, Note_on_c, 0, 76, 80
2, 17404, Note_off_c, 0, 76, 100
2, 17408, Note_on_c, 0, 70, 80
2, 17468, Note_off_c, 0, 70, 100
2, 17472, Note_on_c, 0, 71, 80
2, 17660, Note_off_c, 0, 71, 100
2, 18048, Note_on_c, 0, 71, 100
2, 18048, Note_on_c, 0, 66, 100
2, 18048, Note_on_c, 0, 63, 100
2, 18048, Note_on_c, 0, 59, 100
2, 18620, Note_off_c, 0, 71, 100
2, 18620, Note_off_c, 0, 66, 100
2, 18620, Note_off_c, 0, 63, 100
2, 18620, Note_off_c, 0, 59, 100
2, 18624, Note_on_c, 0, 71, 80
2, 18684, Note_off_c, 0, 71, 100
2, 18688, Note_on_c, 0, 75, 80
2, 18748, Note_off_c, 0, 75, 100
2, 18752, Note_on_c, 0, 78, 80
2, 18812, Note_off_c, 0, 78, 100
2, 18816, Note_on_c, 0, 83, 80
2, 18876, Note_off_c, 0, 83, 100
2, 18880, Note_on_c, 0, 81, 80
2, 18940, Note_off_c, 0, 81, 100
2, 18944, Note_on_c, 0, 79, 80
2, 19004, Note_off_c, 0, 79, 100
2, 19008, Note_on_c, 0, 78, 80
2, 19068, Note_off_c, 0, 78, 100
2, 19072, Note_on_c, 0, 76, 80
2, 19132, Note_off_c, 0, 76, 100
2, 19136, Note_on_c, 0, 75, 80
2, 19196, Note_off_c, 0, 75, 100
2, 19200, Note_on_c, 0, 76, 80
2, 19260, Note_off_c, 0, 76, 100
2, 19264, Note_on_c, 0, 82, 80
2, 19324, Note_off_c, 0, 82, 100
2, 19328, Note_on_c, 0, 83, 80
2, 19388, Note_off_c, 0, 83, 100
2, 19392, Note_on_c, 0, 76, 80
2, 19452, Note_off_c, 0, 76, 100
2, 19456, Note_on_c, 0, 82, 80
2, 19516, Note_off_c, 0, 82, 100
2, 19520, Note_on_c, 0, 83, 80
2, 19580, Note_off_c, 0, 83, 100
2, 19584, Note_on_c, 0, 78, 80
2, 19644, Note_off_c, 0, 78, 100
2, 19648, Note_on_c, 0, 82, 80
2, 19708, Note_off_c, 0, 82, 100
2, 19712, Note_on_c, 0, 83, 80
2, 19772, Note_off_c, 0, 83, 100
2, 19776, Note_on_c, 0, 79, 80
2, 19964, Note_off_c, 0, 79, 100
2, 20352, Note_on_c, 0, 76, 100
2, 20352, Note_on_c, 0, 71, 100
2, 20352, Note_on_c, 0, 68, 100
2, 20352, Note_on_c, 0, 64, 100
2, 20924, Note_off_c, 0, 76, 100
2, 20924, Note_off_c, 0, 71, 100
2, 20924, Note_off_c, 0, 68, 100
2, 20924, Note_off_c, 0, 64, 100
2, 20928, Note_on_c, 0, 76, 80
2, 20988, Note_off_c, 0, 76, 100
2, 20992, Note_on_c, 0, 80, 80
2, 21052, Note_off_c, 0, 80, 100
2, 21056, Note_on_c, 0, 83, 80
2, 21116, Note_off_c, 0, 83, 100
2, 21120, Note_on_c, 0, 88, 80
2, 21180, Note_off_c, 0, 88, 100
2, 21184, Note_on_c, 0, 86, 80
2, 21244, Note_off_c, 0, 86, 100
2, 21248, Note_on_c, 0, 84, 80
2, 21308, Note_off_c, 0, 84, 100
2, 21312, Note_on_c, 0, 83, 80
2, 21372, Note_off_c, 0, 83, 100
2, 21376, Note_on_c, 0, 81, 80
2, 21436, Note_off_c, 0, 81, 100
2, 21440, Note_on_c, 0, 80, 80
2, 21500, Note_off_c, 0, 80, 100
2, 21504, Note_on_c, 0, 81, 80
2, 21564, Note_off_c, 0, 81, 100
2, 21568, Note_on_c, 0, 87, 80
2, 21628, Note_off_c, 0, 87, 100
2, 21632, Note_on_c, 0, 88, 80
2, 21692, Note_off_c, 0, 88, 100
2, 21696, Note_on_c, 0, 81, 80
2, 21756, Note_off_c, 0, 81, 100
2, 21760, Note_on_c, 0, 87, 80
2, 21820, Note_off_c, 0, 87, 100
2, 21824, Note_on_c, 0, 88, 80
2, 21884, Note_off_c, 0, 88, 100
2, 21888, Note_on_c, 0, 83, 80
2, 21948, Note_off_c, 0, 83, 100
2, 21952, Note_on_c, 0, 87, 80
2, 22012, Note_off_c, 0, 87, 100
2, 22016, Note_on_c, 0, 88, 80
2, 22076, Note_off_c, 0, 88, 100
2, 22080, Note_on_c, 0, 84, 80
2, 22268, Note_off_c, 0, 84, 100
2, 22656, Note_on_c, 0, 84, 80
2, 22656, Note_on_c, 0, 78, 80
2, 22844, Note_off_c, 0, 84, 100
2, 22844, Note_off_c, 0, 78, 100
2, 23232, Note_on_c, 0, 72, 80
2, 23232, Note_on_c, 0, 66, 80
2, 23420, Note_off_c, 0, 72, 100
2, 23420, Note_off_c, 0, 66, 100
2, 24768, Note_on_c, 0, 59, 80
2, 24860, Note_off_c, 0, 59, 100
2, 24864, Note_on_c, 0, 60, 80
2, 24956, Note_off_c, 0, 60, 100
2, 24960, Note_on_c, 0, 62, 80
2, 25148, Note_off_c, 0, 62, 100
2, 25152, Note_on_c, 0, 64, 80
2, 25244, Note_off_c, 0, 64, 100
2, 25248, Note_on_c, 0, 66, 80
2, 25340, Note_off_c, 0, 66, 100
2, 25344, Note_on_c, 0, 67, 80
2, 25532, Note_off_c, 0, 67, 100
2, 25536, Note_on_c, 0, 69, 80
2, 25628, Note_off_c, 0, 69, 100
2, 25632, Note_on_c, 0, 71, 80
2, 25724, Note_off_c, 0, 71, 100
2, 25728, Note_on_c, 0, 72, 80
2, 25916, Note_off_c, 0, 72, 100
2, 25920, Note_on_c, 0, 73, 80
2, 26108, Note_off_c, 0, 73, 100
2, 26112, Note_on_c, 0, 74, 80
2, 26492, Note_off_c, 0, 74, 100
2, 26496, Note_on_c, 0, 76, 80
2, 26588, Note_off_c, 0, 76, 100
2, 26592, Note_on_c, 0, 73, 80
2, 26684, Note_off_c, 0, 73, 100
2, 26688, Note_on_c, 0, 74, 80
2, 26876, Note_off_c, 0, 74, 100
2, 27072, Note_on_c, 0, 71, 80
2, 27164, Note_off_c, 0, 71, 100
2, 27168, Note_on_c, 0, 72, 80
2, 27260, Note_off_c, 0, 72, 100
2, 27264, Note_on_c, 0, 74, 80
2, 27452, Note_off_c, 0, 74, 100
2, 27456, Note_on_c, 0, 76, 80
2, 27548, Note_off_c, 0, 76, 100
2, 27552, Note_on_c, 0, 78, 80
2, 27644, Note_off_c, 0, 78, 100
2, 27648, Note_on_c, 0, 79, 80
2, 27836, Note_off_c, 0, 79, 100
2, 27840, Note_on_c, 0, 81, 80
2, 27932, Note_off_c, 0, 81, 100
2, 27936, Note_on_c, 0, 83, 80
2, 28028, Note_off_c, 0, 83, 100
2, 28032, Note_on_c, 0, 84, 80
2, 28220, Note_off_c, 0, 84, 100
2, 28224, Note_on_c, 0, 85, 80
2, 28412, Note_off_c, 0, 85, 100
2, 28416, Note_on_c, 0, 74, 100
2, 28460, Note_off_c, 0, 74, 100
2, 28464, Note_on_c, 0, 86, 99
2, 28796, Note_off_c, 0, 86, 100
2, 28800, Note_on_c, 0, 84, 87
2, 28892, Note_off_c, 0, 84, 100
2, 28896, Note_on_c, 0, 81, 84
2, 28988, Note_off_c, 0, 81, 100
2, 28992, Note_on_c, 0, 79, 81
2, 29180, Note_off_c, 0, 79, 100
2, 29376, Note_on_c, 0, 62, 80
2, 29436, Note_off_c, 0, 62, 100
2, 29440, Note_on_c, 0, 64, 80
2, 29500, Note_off_c, 0, 64, 100
2, 29504, Note_on_c, 0, 66, 80
2, 29564, Note_off_c, 0, 66, 100
2, 29568, Note_on_c, 0, 67, 80
2, 29628, Note_off_c, 0, 67, 100
2, 29632, Note_on_c, 0, 69, 80
2, 29692, Note_off_c, 0, 69, 100
2, 29696, Note_on_c, 0, 71, 80
2, 29756, Note_off_c, 0, 71, 100
2, 29760, Note_on_c, 0, 72, 80
2, 29948, Note_off_c, 0, 72, 100
2, 30336, Note_on_c, 0, 84, 80
2, 30524, Note_off_c, 0, 84, 100
2, 30528, Note_on_c, 0, 62, 80
2, 30588, Note_off_c, 0, 62, 100
2, 30592, Note_on_c, 0, 64, 80
2, 30652, Note_off_c, 0, 64, 100
2, 30656, Note_on_c, 0, 66, 80
2, 30716, Note_off_c, 0, 66, 100
2, 30720, Note_on_c, 0, 67, 80
2, 30780, Note_off_c, 0, 67, 100
2, 30784, Note_on_c, 0, 69, 80
2, 30844, Note_off_c, 0, 69, 100
2, 30848, Note_on_c, 0, 71, 80
2, 30908, Note_off_c, 0, 71, 100
2, 30912, Note_on_c, 0, 72, 80
2, 31100, Note_off_c, 0, 72, 100
2, 31488, Note_on_c, 0, 84, 80
2, 31676, Note_off_c, 0, 84, 100
2, 31680, Note_on_c, 0, 62, 80
2, 31740, Note_off_c, 0, 62, 100
2, 31744, Note_on_c, 0, 64, 81
2, 31804, Note_off_c, 0, 64, 100
2, 31808, Note_on_c, 0, 66, 82
2, 31868, Note_off_c, 0, 66, 100
2, 31872, Note_on_c, 0, 67, 83
2, 31932, Note_off_c, 0, 67, 100
2, 31936, Note_on_c, 0, 69, 84
2, 31996, Note_off_c, 0, 69, 100
2, 32000, Note_on_c, 0, 71, 85
2, 32060, Note_off_c, 0, 71, 100
2, 32064, Note_on_c, 0, 72, 86
2, 32124, Note_off_c, 0, 72, 100
2, 32128, Note_on_c, 0, 74, 87
2, 32188, Note_off_c, 0, 74, 100
2, 32192, Note_on_c, 0, 76, 88
2, 32252, Note_off_c, 0, 76, 100
2, 32256, Note_on_c, 0, 78, 89
2, 32300, Note_off_c, 0, 78, 100
2, 32304, Note_on_c, 0, 79, 90
2, 32348, Note_off_c, 0, 79, 100
2, 32352, Note_on_c, 0, 81, 90
2, 32396, Note_off_c, 0, 81, 100
2, 32400, Note_on_c, 0, 83, 91
2, 32444, Note_off_c, 0, 83, 100
2, 32448, Note_on_c, 0, 84, 92
2, 32636, Note_off_c, 0, 84, 100
2, 32640, Note_on_c, 0, 84, 95
2, 32828, Note_off_c, 0, 84, 100
2, 32832, Note_on_c, 0, 84, 98
2, 33020, Note_off_c, 0, 84, 100
2, 33024, Note_on_c, 0, 84, 101
2, 33212, Note_off_c, 0, 84, 100
2, 33216, Note_on_c, 0, 81, 104
2, 33404, Note_off_c, 0, 81, 100
2, 33408, Note_on_c, 0, 79, 107
2, 33596, Note_off_c, 0, 79, 100
2, 33600, Note_on_c, 0, 78, 120
2, 33600, Note_on_c, 0, 69, 120
2, 34364, Note_off_c, 0, 69, 100
2, 34364, Note_off_c, 0, 78, 100
2, 34560, Note_on_c, 0, 71, 80
2, 34652, Note_off_c, 0, 71, 100
2, 34656, Note_on_c, 0, 72, 80
2, 34748, Note_off_c, 0, 72, 100
2, 34752, Note_on_c, 0, 74, 80
2, 34940, Note_off_c, 0, 74, 100
2, 34944, Note_on_c, 0, 76, 80
2, 35036, Note_off_c, 0, 76, 100
2, 35040, Note_on_c, 0, 78, 80
2, 35132, Note_off_c, 0, 78, 100
2, 35136, Note_on_c, 0, 79, 80
2, 35324, Note_off_c, 0, 79, 100
2, 35328, Note_on_c, 0, 81, 80
2, 35420, Note_off_c, 0, 81, 100
2, 35424, Note_on_c, 0, 83, 80
2, 35516, Note_off_c, 0, 83, 100
2, 35520, Note_on_c, 0, 84, 80
2, 35708, Note_off_c, 0, 84, 100
2, 35712, Note_on_c, 0, 85, 80
2, 35900, Note_off_c, 0, 85, 100
2, 35904, Note_on_c, 0, 86, 80
2, 36284, Note_off_c, 0, 86, 100
2, 36288, Note_on_c, 0, 88, 80
2, 36380, Note_off_c, 0, 88, 100
2, 36384, Note_on_c, 0, 85, 80
2, 36476, Note_off_c, 0, 85, 100
2, 36480, Note_on_c, 0, 86, 80
2, 36668, Note_off_c, 0, 86, 100
2, 36864, Note_on_c, 0, 76, 80
2, 36864, Note_on_c, 0, 84, 80
2, 36956, Note_off_c, 0, 84, 100
2, 36960, Note_on_c, 0, 81, 80
2, 37052, Note_off_c, 0, 76, 100
2, 37052, Note_off_c, 0, 81, 100
2, 37056, Note_on_c, 0, 71, 80
2, 37056, Note_on_c, 0, 79, 80
2, 37244, Note_off_c, 0, 71, 100
2, 37244, Note_off_c, 0, 79, 100
2, 37440, Note_on_c, 0, 72, 80
2, 37440, Note_on_c, 0, 81, 80
2, 37532, Note_off_c, 0, 81, 100
2, 37536, Note_on_c, 0, 78, 80
2, 37628, Note_off_c, 0, 72, 100
2, 37628, Note_off_c, 0, 78, 100
2, 37632, Note_on_c, 0, 71, 80
2, 37632, Note_on_c, 0, 79, 80
2, 37820, Note_off_c, 0, 71, 100
2, 37820, Note_off_c, 0, 79, 100
2, 38592, Note_on_c, 0, 67, 80
2, 38592, Note_on_c, 0, 62, 80
2, 38592, Note_on_c, 0, 59, 80
2, 38780, Note_off_c, 0, 67, 100
2, 38780, Note_off_c, 0, 62, 100
2, 38780, Note_off_c, 0, 59, 100
2, 38784, Note_on_c, 0, 79, 80
2, 38784, Note_on_c, 0, 74, 80
2, 38784, Note_on_c, 0, 71, 80
2, 38972, Note_off_c, 0, 79, 100
2, 38972, Note_off_c, 0, 74, 100
2, 38972, Note_off_c, 0, 71, 100
2, 39744, Note_on_c, 0, 67, 80
2, 39744, Note_on_c, 0, 62, 80
2, 39744, Note_on_c, 0, 59, 80
2, 39932, Note_off_c, 0, 67, 100
2, 39932, Note_off_c, 0, 62, 100
2, 39932, Note_off_c, 0, 59, 100
2, 39936, Note_on_c, 0, 79, 80
2, 39936, Note_on_c, 0, 74, 80
2, 39936, Note_on_c, 0, 71, 80
2, 40124, Note_off_c, 0, 79, 100
2, 40124, Note_off_c, 0, 74, 100
2, 40124, Note_off_c, 0, 71, 100
2, 40704, Note_on_c, 0, 55, 87
2, 40764, Note_off_c, 0, 55, 100
2, 40768, Note_on_c, 0, 57, 88
2, 40828, Note_off_c, 0, 57, 100
2, 40832, Note_on_c, 0, 59, 89
2, 40892, Note_off_c, 0, 59, 100
2, 40896, Note_on_c, 0, 60, 91
2, 40956, Note_off_c, 0, 60, 100
2, 40960, Note_on_c, 0, 62, 92
2, 41020, Note_off_c, 0, 62, 100
2, 41024, Note_on_c, 0, 64, 93
2, 41084, Note_off_c, 0, 64, 100
2, 41088, Note_on_c, 0, 65, 94
2, 41276, Note_off_c, 0, 65, 100
2, 41472, Note_on_c, 0, 67, 102
2, 41532, Note_off_c, 0, 67, 100
2, 41536, Note_on_c, 0, 69, 103
2, 41596, Note_off_c, 0, 69, 100
2, 41600, Note_on_c, 0, 71, 104
2, 41660, Note_off_c, 0, 71, 100
2, 41664, Note_on_c, 0, 72, 106
2, 41724, Note_off_c, 0, 72, 100
2, 41728, Note_on_c, 0, 74, 107
2, 41788, Note_off_c, 0, 74, 100
2, 41792, Note_on_c, 0, 76, 108
2, 41852, Note_off_c, 0, 76, 100
2, 41856, Note_on_c, 0, 77, 109
2, 42236, Note_off_c, 0, 77, 100
2, 42240, Note_on_c, 0, 75, 94
2, 42812, Note_off_c, 0, 75, 100
2, 42816, Note_on_c, 0, 76, 80
2, 43388, Note_off_c, 0, 76, 100
2, 43392, Note_on_c, 0, 77, 80
2, 43772, Note_off_c, 0, 77, 100
2, 43776, Note_on_c, 0, 79, 80
2, 43824, Note_on_c, 0, 77, 80
2, 43868, Note_off_c, 0, 79, 100
2, 43872, Note_on_c, 0, 76, 80
2, 43916, Note_off_c, 0, 77, 100
2, 43920, Note_on_c, 0, 77, 80
2, 43964, Note_off_c, 0, 76, 100
2, 43964, Note_off_c, 0, 77, 100
2, 43968, Note_on_c, 0, 78, 80
2, 44156, Note_off_c, 0, 78, 100
2, 44160, Note_on_c, 0, 79, 80
2, 44348, Note_off_c, 0, 79, 100
2, 44352, Note_on_c, 0, 79, 80
2, 44540, Note_off_c, 0, 79, 100
2, 44544, Note_on_c, 0, 79, 80
2, 44924, Note_off_c, 0, 79, 100
2, 44928, Note_on_c, 0, 76, 80
2, 45116, Note_off_c, 0, 76, 100
2, 45120, Note_on_c, 0, 73, 80
2, 45692, Note_off_c, 0, 73, 100
2, 45696, Note_on_c, 0, 74, 80
2, 45884, Note_off_c, 0, 74, 100
2, 45888, Note_on_c, 0, 76, 80
2, 45932, Note_off_c, 0, 76, 100
2, 45936, Note_on_c, 0, 74, 80
2, 45980, Note_off_c, 0, 74, 100
2, 45984, Note_on_c, 0, 73, 80
2, 46076, Note_off_c, 0, 73, 100
2, 46080, Note_on_c, 0, 74, 80
2, 46172, Note_off_c, 0, 74, 100
2, 46176, Note_on_c, 0, 76, 80
2, 46268, Note_off_c, 0, 76, 100
2, 46272, Note_on_c, 0, 77, 80
2, 46460, Note_off_c, 0, 77, 100
2, 46464, Note_on_c, 0, 71, 80
2, 46652, Note_off_c, 0, 71, 100
2, 46656, Note_on_c, 0, 71, 80
2, 46844, Note_off_c, 0, 71, 100
2, 46848, Note_on_c, 0, 72, 80
2, 47228, Note_off_c, 0, 72, 100
2, 47424, Note_on_c, 0, 76, 80
2, 47996, Note_off_c, 0, 76, 100
2, 48000, Note_on_c, 0, 77, 80
2, 48380, Note_off_c, 0, 77, 100
2, 48384, Note_on_c, 0, 79, 80
2, 48432, Note_on_c, 0, 77, 80
2, 48476, Note_off_c, 0, 79, 100
2, 48480, Note_on_c, 0, 76, 80
2, 48524, Note_off_c, 0, 77, 100
2, 48528, Note_on_c, 0, 77, 80
2, 48572, Note_off_c, 0, 76, 100
2, 48572, Note_off_c, 0, 77, 100
2, 48576, Note_on_c, 0, 78, 80
2, 48764, Note_off_c, 0, 78, 100
2, 48768, Note_on_c, 0, 79, 80
2, 48956, Note_off_c, 0, 79, 100
2, 48960, Note_on_c, 0, 79, 80
2, 49148, Note_off_c, 0, 79, 100
2, 49152, Note_on_c, 0, 79, 80
2, 49532, Note_off_c, 0, 79, 100
2, 49536, Note_on_c, 0, 76, 80
2, 49724, Note_off_c, 0, 76, 100
2, 49728, Note_on_c, 0, 73, 80
2, 50300, Note_off_c, 0, 73, 100
2, 50304, Note_on_c, 0, 74, 80
2, 50492, Note_off_c, 0, 74, 100
2, 50496, Note_on_c, 0, 76, 80
2, 50540, Note_off_c, 0, 76, 100
2, 50544, Note_on_c, 0, 74, 80
2, 50588, Note_off_c, 0, 74, 100
2, 50592, Note_on_c, 0, 73, 80
2, 50684, Note_off_c, 0, 73, 100
2, 50688, Note_on_c, 0, 74, 80
2, 50780, Note_off_c, 0, 74, 100
2, 50784, Note_on_c, 0, 76, 80
2, 50876, Note_off_c, 0, 76, 100
2, 50880, Note_on_c, 0, 77, 80
2, 51068, Note_off_c, 0, 77, 100
2, 51072, Note_on_c, 0, 71, 80
2, 51260, Note_off_c, 0, 71, 100
2, 51264, Note_on_c, 0, 71, 80
2, 51452, Note_off_c, 0, 71, 100
2, 51456, Note_on_c, 0, 72, 80
2, 51836, Note_off_c, 0, 72, 100
2, 51840, Note_on_c, 0, 55, 80
2, 52028, Note_off_c, 0, 55, 100
2, 52032, Note_on_c, 0, 65, 80
2, 52032, Note_on_c, 0, 55, 80
2, 52412, Note_off_c, 0, 65, 100
2, 52412, Note_off_c, 0, 55, 100
2, 52416, Note_on_c, 0, 55, 100
2, 52416, Note_on_c, 0, 64, 100
2, 52604, Note_off_c, 0, 64, 100
2, 52608, Note_on_c, 0, 62, 80
2, 52988, Note_off_c, 0, 55, 100
2, 52988, Note_off_c, 0, 62, 100
2, 52992, Note_on_c, 0, 55, 100
2, 52992, Note_on_c, 0, 64, 100
2, 53180, Note_off_c, 0, 64, 100
2, 53184, Note_on_c, 0, 62, 80
2, 53564, Note_off_c, 0, 55, 100
2, 53564, Note_off_c, 0, 62, 100
2, 53568, Note_on_c, 0, 64, 100
2, 53568, Note_on_c, 0, 55, 100
2, 53756, Note_off_c, 0, 64, 100
2, 53760, Note_on_c, 0, 62, 80
2, 53852, Note_off_c, 0, 55, 100
2, 53852, Note_off_c, 0, 62, 100
2, 53856, Note_on_c, 0, 61, 80
2, 53948, Note_off_c, 0, 61, 100
2, 53952, Note_on_c, 0, 62, 80
2, 54044, Note_off_c, 0, 62, 100
2, 54048, Note_on_c, 0, 64, 80
2, 54140, Note_off_c, 0, 64, 100
2, 54144, Note_on_c, 0, 65, 80
2, 54236, Note_off_c, 0, 65, 100
2, 54240, Note_on_c, 0, 66, 80
2, 54332, Note_off_c, 0, 66, 100
2, 54336, Note_on_c, 0, 67, 80
2, 54336, Note_on_c, 0, 64, 80
2, 54716, Note_off_c, 0, 67, 100
2, 54716, Note_off_c, 0, 64, 100
2, 54720, Note_on_c, 0, 65, 80
2, 54720, Note_on_c, 0, 62, 80
2, 54908, Note_off_c, 0, 65, 100
2, 54908, Note_off_c, 0, 62, 100
2, 54912, Note_on_c, 0, 64, 80
2, 54912, Note_on_c, 0, 60, 80
2, 55292, Note_off_c, 0, 64, 100
2, 55292, Note_off_c, 0, 60, 100
2, 55296, Note_on_c, 0, 64, 80
2, 55296, Note_on_c, 0, 60, 80
2, 55484, Note_off_c, 0, 64, 100
2, 55484, Note_off_c, 0, 60, 100
2, 55488, Note_on_c, 0, 69, 80
2, 55488, Note_on_c, 0, 60, 80
2, 55676, Note_off_c, 0, 69, 100
2, 55676, Note_off_c, 0, 60, 100
2, 55680, Note_on_c, 0, 69, 80
2, 55680, Note_on_c, 0, 60, 80
2, 55868, Note_off_c, 0, 69, 100
2, 55868, Note_off_c, 0, 60, 100
2, 55872, Note_on_c, 0, 69, 80
2, 55872, Note_on_c, 0, 60, 80
2, 56060, Note_off_c, 0, 69, 100
2, 56060, Note_off_c, 0, 60, 100
2, 56064, Note_on_c, 0, 62, 80
2, 56064, Note_on_c, 0, 59, 80
2, 56444, Note_off_c, 0, 62, 100
2, 56444, Note_off_c, 0, 59, 100
2, 56736, Note_on_c, 0, 55, 80
2, 56828, Note_off_c, 0, 55, 100
2, 56832, Note_on_c, 0, 57, 80
2, 56924, Note_off_c, 0, 57, 100
2, 56928, Note_on_c, 0, 59, 80
2, 57020, Note_off_c, 0, 59, 100
2, 57024, Note_on_c, 0, 60, 80
2, 57116, Note_off_c, 0, 60, 100
2, 57120, Note_on_c, 0, 54, 80
2, 57212, Note_off_c, 0, 54, 100
2, 57312, Note_on_c, 0, 55, 80
2, 57404, Note_off_c, 0, 55, 100
2, 57408, Note_on_c, 0, 57, 80
2, 57500, Note_off_c, 0, 57, 100
2, 57504, Note_on_c, 0, 59, 80
2, 57596, Note_off_c, 0, 59, 100
2, 57600, Note_on_c, 0, 60, 80
2, 57692, Note_off_c, 0, 60, 100
2, 57696, Note_on_c, 0, 54, 80
2, 57788, Note_off_c, 0, 54, 100
2, 57888, Note_on_c, 0, 55, 80
2, 57980, Note_off_c, 0, 55, 100
2, 57984, Note_on_c, 0, 57, 80
2, 58076, Note_off_c, 0, 57, 100
2, 58080, Note_on_c, 0, 59, 80
2, 58172, Note_off_c, 0, 59, 100
2, 58176, Note_on_c, 0, 60, 80
2, 58268, Note_off_c, 0, 60, 100
2, 58272, Note_on_c, 0, 54, 80
2, 58364, Note_off_c, 0, 54, 100
2, 58368, Note_on_c, 0, 55, 80
2, 58460, Note_off_c, 0, 55, 100
2, 58464, Note_on_c, 0, 59, 80
2, 58556, Note_off_c, 0, 59, 100
2, 58560, Note_on_c, 0, 60, 80
2, 58652, Note_off_c, 0, 60, 100
2, 58656, Note_on_c, 0, 62, 80
2, 58748, Note_off_c, 0, 62, 100
2, 58752, Note_on_c, 0, 64, 80
2, 58844, Note_off_c, 0, 64, 100
2, 58848, Note_on_c, 0, 65, 80
2, 58940, Note_off_c, 0, 65, 100
2, 58944, Note_on_c, 0, 67, 80
2, 58944, Note_on_c, 0, 64, 80
2, 59324, Note_off_c, 0, 67, 100
2, 59324, Note_off_c, 0, 64, 100
2, 59328, Note_on_c, 0, 65, 80
2, 59328, Note_on_c, 0, 62, 80
2, 59516, Note_off_c, 0, 65, 100
2, 59516, Note_off_c, 0, 62, 100
2, 59520, Note_on_c, 0, 64, 80
2, 59520, Note_on_c, 0, 60, 80
2, 59900, Note_off_c, 0, 64, 100
2, 59900, Note_off_c, 0, 60, 100
2, 59904, Note_on_c, 0, 64, 80
2, 59904, Note_on_c, 0, 60, 80
2, 60092, Note_off_c, 0, 64, 100
2, 60092, Note_off_c, 0, 60, 100
2, 60096, Note_on_c, 0, 69, 80
2, 60096, Note_on_c, 0, 60, 80
2, 60284, Note_off_c, 0, 69, 100
2, 60284, Note_off_c, 0, 60, 100
2, 60288, Note_on_c, 0, 69, 80
2, 60288, Note_on_c, 0, 60, 80
2, 60476, Note_off_c, 0, 69, 100
2, 60476, Note_off_c, 0, 60, 100
2, 60480, Note_on_c, 0, 69, 80
2, 60480, Note_on_c, 0, 60, 80
2, 60668, Note_off_c, 0, 69, 100
2, 60668, Note_off_c, 0, 60, 100
2, 60672, Note_on_c, 0, 62, 80
2, 60672, Note_on_c, 0, 59, 80
2, 61052, Note_off_c, 0, 62, 100
2, 61052, Note_off_c, 0, 59, 100
2, 61248, Note_on_c, 0, 74, 80
2, 61248, Note_on_c, 0, 72, 80
2, 61248, Note_on_c, 0, 69, 80
2, 61436, Note_off_c, 0, 74, 100
2, 61436, Note_off_c, 0, 72, 100
2, 61436, Note_off_c, 0, 69, 100
2, 61440, Note_on_c, 0, 74, 80
2, 61440, Note_on_c, 0, 72, 80
2, 61440, Note_on_c, 0, 69, 80
2, 61628, Note_off_c, 0, 74, 100
2, 61628, Note_off_c, 0, 72, 100
2, 61628, Note_off_c, 0, 69, 100
2, 61632, Note_on_c, 0, 74, 80
2, 61632, Note_on_c, 0, 72, 80
2, 61632, Note_on_c, 0, 69, 80
2, 61820, Note_off_c, 0, 74, 100
2, 61820, Note_off_c, 0, 72, 100
2, 61820, Note_off_c, 0, 69, 100
2, 61824, Note_on_c, 0, 74, 80
2, 61824, Note_on_c, 0, 71, 80
2, 61824, Note_on_c, 0, 67, 80
2, 62204, Note_off_c, 0, 74, 100
2, 62204, Note_off_c, 0, 71, 100
2, 62204, Note_off_c, 0, 67, 100
2, 62400, Note_on_c, 0, 72, 80
2, 62400, Note_on_c, 0, 81, 80
2, 62588, Note_off_c, 0, 72, 100
2, 62588, Note_off_c, 0, 81, 100
2, 62592, Note_on_c, 0, 81, 80
2, 62592, Note_on_c, 0, 72, 80
2, 62780, Note_off_c, 0, 81, 100
2, 62780, Note_off_c, 0, 72, 100
2, 62784, Note_on_c, 0, 81, 80
2, 62784, Note_on_c, 0, 72, 80
2, 62972, Note_off_c, 0, 81, 100
2, 62972, Note_off_c, 0, 72, 100
2, 62976, Note_on_c, 0, 74, 80
2, 62976, Note_on_c, 0, 71, 80
2, 63068, Note_off_c, 0, 74, 100
2, 63068, Note_off_c, 0, 71, 100
2, 63072, Note_on_c, 0, 67, 70
2, 63164, Note_off_c, 0, 67, 100
2, 63168, Note_on_c, 0, 69, 70
2, 63260, Note_off_c, 0, 69, 100
2, 63264, Note_on_c, 0, 71, 70
2, 63356, Note_off_c, 0, 71, 100
2, 63360, Note_on_c, 0, 72, 70
2, 63452, Note_off_c, 0, 72, 100
2, 63456, Note_on_c, 0, 74, 70
2, 63548, Note_off_c, 0, 74, 100
2, 63552, Note_on_c, 0, 76, 80
2, 64124, Note_off_c, 0, 76, 100
2, 64128, Note_on_c, 0, 77, 80
2, 64508, Note_off_c, 0, 77, 100
2, 64512, Note_on_c, 0, 79, 80
2, 64560, Note_on_c, 0, 77, 80
2, 64604, Note_off_c, 0, 79, 100
2, 64608, Note_on_c, 0, 76, 80
2, 64652, Note_off_c, 0, 77, 100
2, 64656, Note_on_c, 0, 77, 80
2, 64700, Note_off_c, 0, 76, 100
2, 64700, Note_off_c, 0, 77, 100
2, 64704, Note_on_c, 0, 78, 80
2, 64892, Note_off_c, 0, 78, 100
2, 64896, Note_on_c, 0, 79, 80
2, 65084, Note_off_c, 0, 79, 100
2, 65088, Note_on_c, 0, 79, 80
2, 65276, Note_off_c, 0, 79, 100
2, 65280, Note_on_c, 0, 79, 80
2, 65660, Note_off_c, 0, 79, 100
2, 65664, Note_on_c, 0, 76, 80
2, 65852, Note_off_c, 0, 76, 100
2, 65856, Note_on_c, 0, 73, 80
2, 66428, Note_off_c, 0, 73, 100
2, 66432, Note_on_c, 0, 74, 80
2, 66620, Note_off_c, 0, 74, 100
2, 66624, Note_on_c, 0, 76, 80
2, 66668, Note_off_c, 0, 76, 100
2, 66672, Note_on_c, 0, 74, 80
2, 66716, Note_off_c, 0, 74, 100
2, 66720, Note_on_c, 0, 73, 80
2, 66812, Note_off_c, 0, 73, 100
2, 66816, Note_on_c, 0, 74, 80
2, 66908, Note_off_c, 0, 74, 100
2, 66912, Note_on_c, 0, 76, 80
2, 67004, Note_off_c, 0, 76, 100
2, 67008, Note_on_c, 0, 77, 80
2, 67196, Note_off_c, 0, 77, 100
2, 67200, Note_on_c, 0, 71, 80
2, 67388, Note_off_c, 0, 71, 100
2, 67392, Note_on_c, 0, 71, 80
2, 67580, Note_off_c, 0, 71, 100
2, 67584, Note_on_c, 0, 72, 80
2, 67772, Note_off_c, 0, 72, 100
2, 67776, Note_on_c, 0, 79, 80
2, 67868, Note_off_c, 0, 79, 100
2, 67872, Note_on_c, 0, 77, 80
2, 67964, Note_off_c, 0, 77, 100
2, 67968, Note_on_c, 0, 76, 80
2, 68060, Note_off_c, 0, 76, 100
2, 68064, Note_on_c, 0, 74, 80
2, 68156, Note_off_c, 0, 74, 100
2, 68160, Note_on_c, 0, 73, 80
2, 68732, Note_off_c, 0, 73, 100
2, 68736, Note_on_c, 0, 74, 80
2, 68924, Note_off_c, 0, 74, 100
2, 68928, Note_on_c, 0, 76, 80
2, 68972, Note_off_c, 0, 76, 100
2, 68976, Note_on_c, 0, 74, 80
2, 69020, Note_off_c, 0, 74, 100
2, 69024, Note_on_c, 0, 73, 80
2, 69116, Note_off_c, 0, 73, 100
2, 69120, Note_on_c, 0, 74, 80
2, 69212, Note_off_c, 0, 74, 100
2, 69216, Note_on_c, 0, 76, 80
2, 69308, Note_off_c, 0, 76, 100
2, 69312, Note_on_c, 0, 77, 80
2, 69500, Note_off_c, 0, 77, 100
2, 69504, Note_on_c, 0, 71, 80
2, 69692, Note_off_c, 0, 71, 100
2, 69696, Note_on_c, 0, 71, 80
2, 69884, Note_off_c, 0, 71, 100
2, 69888, Note_on_c, 0, 72, 80
2, 70076, Note_off_c, 0, 72, 100
2, 70464, Note_on_c, 0, 77, 110
2, 70508, Note_off_c, 0, 77, 100
2, 70512, Note_on_c, 0, 89, 108
2, 70844, Note_off_c, 0, 89, 100
2, 70848, Note_on_c, 0, 83, 91
2, 71036, Note_off_c, 0, 83, 100
2, 71040, Note_on_c, 0, 84, 81
2, 71228, Note_off_c, 0, 84, 100
2, 71616, Note_on_c, 0, 65, 80
2, 71660, Note_off_c, 0, 65, 100
2, 71664, Note_on_c, 0, 77, 80
2, 71996, Note_off_c, 0, 77, 100
2, 72000, Note_on_c, 0, 71, 80
2, 72188, Note_off_c, 0, 71, 100
2, 72192, Note_on_c, 0, 72, 80
2, 72380, Note_off_c, 0, 72, 100
2, 72576, Note_on_c, 0, 64, 80
2, 72668, Note_off_c, 0, 64, 100
2, 72672, Note_on_c, 0, 66, 80
2, 72764, Note_off_c, 0, 66, 100
2, 72768, Note_on_c, 0, 67, 80
2, 72956, Note_off_c, 0, 67, 100
2, 72960, Note_on_c, 0, 69, 80
2, 73052, Note_off_c, 0, 69, 100
2, 73056, Note_on_c, 0, 71, 80
2, 73148, Note_off_c, 0, 71, 100
2, 73152, Note_on_c, 0, 72, 80
2, 73340, Note_off_c, 0, 72, 100
2, 73344, Note_on_c, 0, 74, 80
2, 73436, Note_off_c, 0, 74, 100
2, 73440, Note_on_c, 0, 76, 80
2, 73532, Note_off_c, 0, 76, 100
2, 73536, Note_on_c, 0, 77, 80
2, 73724, Note_off_c, 0, 77, 100
2, 73728, Note_on_c, 0, 78, 80
2, 73916, Note_off_c, 0, 78, 100
2, 73920, Note_on_c, 0, 79, 80
2, 74300, Note_off_c, 0, 79, 100
2, 74304, Note_on_c, 0, 81, 80
2, 74396, Note_off_c, 0, 81, 100
2, 74400, Note_on_c, 0, 78, 80
2, 74492, Note_off_c, 0, 78, 100
2, 74496, Note_on_c, 0, 79, 80
2, 74684, Note_off_c, 0, 79, 100
2, 74880, Note_on_c, 0, 64, 80
2, 74972, Note_off_c, 0, 64, 100
2, 74976, Note_on_c, 0, 65, 80
2, 75068, Note_off_c, 0, 65, 100
2, 75072, Note_on_c, 0, 67, 80
2, 75260, Note_off_c, 0, 67, 100
2, 75264, Note_on_c, 0, 69, 80
2, 75356, Note_off_c, 0, 69, 100
2, 75360, Note_on_c, 0, 71, 80
2, 75452, Note_off_c, 0, 71, 100
2, 75456, Note_on_c, 0, 72, 80
2, 75644, Note_off_c, 0, 72, 100
2, 75648, Note_on_c, 0, 74, 80
2, 75740, Note_off_c, 0, 74, 100
2, 75744, Note_on_c, 0, 76, 80
2, 75836, Note_off_c, 0, 76, 100
2, 75840, Note_on_c, 0, 77, 80
2, 76028, Note_off_c, 0, 77, 100
2, 76032, Note_on_c, 0, 78, 80
2, 76220, Note_off_c, 0, 78, 100
2, 76224, Note_on_c, 0, 67, 110
2, 76268, Note_off_c, 0, 67, 100
2, 76272, Note_on_c, 0, 79, 109
2, 76604, Note_off_c, 0, 79, 100
2, 76608, Note_on_c, 0, 77, 101
2, 76700, Note_off_c, 0, 77, 100
2, 76704, Note_on_c, 0, 74, 98
2, 76796, Note_off_c, 0, 74, 100
2, 76800, Note_on_c, 0, 76, 96
2, 76988, Note_off_c, 0, 76, 100
2, 77184, Note_on_c, 0, 74, 86
2, 77276, Note_off_c, 0, 74, 100
2, 77280, Note_on_c, 0, 71, 83
2, 77372, Note_off_c, 0, 71, 100
2, 77376, Note_on_c, 0, 72, 81
2, 77564, Note_off_c, 0, 72, 100
2, 77760, Note_on_c, 0, 71, 80
2, 77852, Note_off_c, 0, 71, 100
2, 77856, Note_on_c, 0, 67, 80
2, 77948, Note_off_c, 0, 67, 100
2, 77952, Note_on_c, 0, 69, 80
2, 78140, Note_off_c, 0, 69, 100
2, 78336, Note_on_c, 0, 67, 80
2, 78428, Note_off_c, 0, 67, 100
2, 78432, Note_on_c, 0, 64, 80
2, 78524, Note_off_c, 0, 64, 100
2, 78528, Note_on_c, 0, 66, 80
2, 78716, Note_off_c, 0, 66, 100
2, 81216, Note_on_c, 0, 59, 80
2, 81308, Note_off_c, 0, 59, 100
2, 81312, Note_on_c, 0, 60, 80
2, 81404, Note_off_c, 0, 60, 100
2, 81408, Note_on_c, 0, 62, 80
2, 81596, Note_off_c, 0, 62, 100
2, 81600, Note_on_c, 0, 64, 80
2, 81692, Note_off_c, 0, 64, 100
2, 81696, Note_on_c, 0, 66, 80
2, 81788, Note_off_c, 0, 66, 100
2, 81792, Note_on_c, 0, 67, 80
2, 81980, Note_off_c, 0, 67, 100
2, 81984, Note_on_c, 0, 69, 80
2, 82076, Note_off_c, 0, 69, 100
2, 82080, Note_on_c, 0, 71, 80
2, 82172, Note_off_c, 0, 71, 100
2, 82176, Note_on_c, 0, 72, 80
2, 82364, Note_off_c, 0, 72, 100
2, 82368, Note_on_c, 0, 73, 80
2, 82556, Note_off_c, 0, 73, 100
2, 82560, Note_on_c, 0, 74, 80
2, 82940, Note_off_c, 0, 74, 100
2, 82944, Note_on_c, 0, 76, 80
2, 83036, Note_off_c, 0, 76, 100
2, 83040, Note_on_c, 0, 73, 80
2, 83132, Note_off_c, 0, 73, 100
2, 83136, Note_on_c, 0, 74, 80
2, 83324, Note_off_c, 0, 74, 100
2, 83520, Note_on_c, 0, 71, 80
2, 83612, Note_off_c, 0, 71, 100
2, 83616, Note_on_c, 0, 72, 80
2, 83708, Note_off_c, 0, 72, 100
2, 83712, Note_on_c, 0, 74, 80
2, 83900, Note_off_c, 0, 74, 100
2, 83904, Note_on_c, 0, 76, 80
2, 83996, Note_off_c, 0, 76, 100
2, 84000, Note_on_c, 0, 78, 80
2, 84092, Note_off_c, 0, 78, 100
2, 84096, Note_on_c, 0, 79, 80
2, 84284, Note_off_c, 0, 79, 100
2, 84288, Note_on_c, 0, 81, 80
2, 84380, Note_off_c, 0, 81, 100
2, 84384, Note_on_c, 0, 83, 80
2, 84476, Note_off_c, 0, 83, 100
2, 84480, Note_on_c, 0, 84, 80
2, 84668, Note_off_c, 0, 84, 100
2, 84672, Note_on_c, 0, 85, 80
2, 84860, Note_off_c, 0, 85, 100
2, 84864, Note_on_c, 0, 74, 100
2, 84908, Note_off_c, 0, 74, 100
2, 84912, Note_on_c, 0, 86, 99
2, 85244, Note_off_c, 0, 86, 100
2, 85248, Note_on_c, 0, 84, 87
2, 85340, Note_off_c, 0, 84, 100
2, 85344, Note_on_c, 0, 81, 84
2, 85436, Note_off_c, 0, 81, 100
2, 85440, Note_on_c, 0, 79, 81
2, 85628, Note_off_c, 0, 79, 100
2, 85824, Note_on_c, 0, 62, 80
2, 85884, Note_off_c, 0, 62, 100
2, 85888, Note_on_c, 0, 64, 80
2, 85948, Note_off_c, 0, 64, 100
2, 85952, Note_on_c, 0, 66, 80
2, 86012, Note_off_c, 0, 66, 100
2, 86016, Note_on_c, 0, 67, 80
2, 86076, Note_off_c, 0, 67, 100
2, 86080, Note_on_c, 0, 69, 80
2, 86140, Note_off_c, 0, 69, 100
2, 86144, Note_on_c, 0, 71, 80
2, 86204, Note_off_c, 0, 71, 100
2, 86208, Note_on_c, 0, 72, 80
2, 86396, Note_off_c, 0, 72, 100
2, 86784, Note_on_c, 0, 84, 80
2, 86972, Note_off_c, 0, 84, 100
2, 86976, Note_on_c, 0, 62, 80
2, 87036, Note_off_c, 0, 62, 100
2, 87040, Note_on_c, 0, 64, 80
2, 87100, Note_off_c, 0, 64, 100
2, 87104, Note_on_c, 0, 66, 80
2, 87164, Note_off_c, 0, 66, 100
2, 87168, Note_on_c, 0, 67, 80
2, 87228, Note_off_c, 0, 67, 100
2, 87232, Note_on_c, 0, 69, 80
2, 87292, Note_off_c, 0, 69, 100
2, 87296, Note_on_c, 0, 71, 80
2, 87356, Note_off_c, 0, 71, 100
2, 87360, Note_on_c, 0, 72, 80
2, 87548, Note_off_c, 0, 72, 100
2, 87936, Note_on_c, 0, 84, 80
2, 88124, Note_off_c, 0, 84, 100
2, 88128, Note_on_c, 0, 62, 80
2, 88188, Note_off_c, 0, 62, 100
2, 88192, Note_on_c, 0, 64, 80
2, 88252, Note_off_c, 0, 64, 100
2, 88256, Note_on_c, 0, 66, 80
2, 88316, Note_off_c, 0, 66, 100
2, 88320, Note_on_c, 0, 67, 80
2, 88380, Note_off_c, 0, 67, 100
2, 88384, Note_on_c, 0, 69, 80
2, 88444, Note_off_c, 0, 69, 100
2, 88448, Note_on_c, 0, 71, 80
2, 88508, Note_off_c, 0, 71, 100
2, 88512, Note_on_c, 0, 72, 80
2, 88572, Note_off_c, 0, 72, 100
2, 88576, Note_on_c, 0, 74, 80
2, 88636, Note_off_c, 0, 74, 100
2, 88640, Note_on_c, 0, 76, 80
2, 88700, Note_off_c, 0, 76, 100
2, 88704, Note_on_c, 0, 78, 80
2, 88748, Note_off_c, 0, 78, 100
2, 88752, Note_on_c, 0, 79, 80
2, 88796, Note_off_c, 0, 79, 100
2, 88800, Note_on_c, 0, 81, 80
2, 88844, Note_off_c, 0, 81, 100
2, 88848, Note_on_c, 0, 83, 80
2, 88892, Note_off_c, 0, 83, 100
2, 88896, Note_on_c, 0, 84, 80
2, 89084, Note_off_c, 0, 84, 100
2, 89088, Note_on_c, 0, 84, 83
2, 89276, Note_off_c, 0, 84, 100
2, 89280, Note_on_c, 0, 84, 87
2, 89468, Note_off_c, 0, 84, 100
2, 89472, Note_on_c, 0, 84, 91
2, 89660, Note_off_c, 0, 84, 100
2, 89664, Note_on_c, 0, 81, 95
2, 89852, Note_off_c, 0, 81, 100
2, 89856, Note_on_c, 0, 79, 99
2, 90044, Note_off_c, 0, 79, 100
2, 90048, Note_on_c, 0, 78, 110
2, 90048, Note_on_c, 0, 69, 110
2, 90812, Note_off_c, 0, 69, 100
2, 90812, Note_off_c, 0, 78, 100
2, 91008, Note_on_c, 0, 71, 80
2, 91100, Note_off_c, 0, 71, 100
2, 91104, Note_on_c, 0, 72, 80
2, 91196, Note_off_c, 0, 72, 100
2, 91200, Note_on_c, 0, 74, 80
2, 91388, Note_off_c, 0, 74, 100
2, 91392, Note_on_c, 0, 76, 80
2, 91484, Note_off_c, 0, 76, 100
2, 91488, Note_on_c, 0, 78, 80
2, 91580, Note_off_c, 0, 78, 100
2, 91584, Note_on_c, 0, 79, 80
2, 91772, Note_off_c, 0, 79, 100
2, 91776, Note_on_c, 0, 81, 80
2, 91868, Note_off_c, 0, 81, 100
2, 91872, Note_on_c, 0, 83, 80
2, 91964, Note_off_c, 0, 83, 100
2, 91968, Note_on_c, 0, 84, 80
2, 92156, Note_off_c, 0, 84, 100
2, 92160, Note_on_c, 0, 85, 80
2, 92348, Note_off_c, 0, 85, 100
2, 92352, Note_on_c, 0, 86, 80
2, 92732, Note_off_c, 0, 86, 100
2, 92736, Note_on_c, 0, 88, 80
2, 92828, Note_off_c, 0, 88, 100
2, 92832, Note_on_c, 0, 85, 80
2, 92924, Note_off_c, 0, 85, 100
2, 92928, Note_on_c, 0, 86, 80
2, 93116, Note_off_c, 0, 86, 100
2, 93312, Note_on_c, 0, 76, 80
2, 93312, Note_on_c, 0, 84, 80
2, 93404, Note_off_c, 0, 84, 100
2, 93408, Note_on_c, 0, 81, 80
2, 93500, Note_off_c, 0, 76, 100
2, 93500, Note_off_c, 0, 81, 100
2, 93504, Note_on_c, 0, 71, 80
2, 93504, Note_on_c, 0, 79, 80
2, 93692, Note_off_c, 0, 71, 100
2, 93692, Note_off_c, 0, 79, 100
2, 93888, Note_on_c, 0, 72, 80
2, 93888, Note_on_c, 0, 81, 80
2, 93980, Note_off_c, 0, 81, 100
2, 93984, Note_on_c, 0, 78, 80
2, 94076, Note_off_c, 0, 72, 100
2, 94076, Note_off_c, 0, 78, 100
2, 94080, Note_on_c, 0, 71, 80
2, 94080, Note_on_c, 0, 79, 80
2, 94268, Note_off_c, 0, 71, 100
2, 94268, Note_off_c, 0, 79, 100
2, 95040, Note_on_c, 0, 74, 80
2, 95040, Note_on_c, 0, 69, 80
2, 95040, Note_on_c, 0, 66, 80
2, 95228, Note_off_c, 0, 74, 100
2, 95228, Note_off_c, 0, 69, 100
2, 95228, Note_off_c, 0, 66, 100
2, 95232, Note_on_c, 0, 86, 80
2, 95232, Note_on_c, 0, 81, 80
2, 95232, Note_on_c, 0, 78, 80
2, 95420, Note_off_c, 0, 86, 100
2, 95420, Note_off_c, 0, 81, 100
2, 95420, Note_off_c, 0, 78, 100
2, 96192, Note_on_c, 0, 74, 80
2, 96192, Note_on_c, 0, 69, 80
2, 96192, Note_on_c, 0, 66, 80
2, 96380, Note_off_c, 0, 74, 100
2, 96380, Note_off_c, 0, 69, 100
2, 96380, Note_off_c, 0, 66, 100
2, 96384, Note_on_c, 0, 86, 80
2, 96384, Note_on_c, 0, 81, 80
2, 96384, Note_on_c, 0, 78, 80
2, 96572, Note_off_c, 0, 86, 100
2, 96572, Note_off_c, 0, 81, 100
2, 96572, Note_off_c, 0, 78, 100
2, 97152, Note_on_c, 0, 62, 80
2, 97212, Note_off_c, 0, 62, 100
2, 97216, Note_on_c, 0, 64, 80
2, 97276, Note_off_c, 0, 64, 100
2, 97280, Note_on_c, 0, 66, 80
2, 97340, Note_off_c, 0, 66, 100
2, 97344, Note_on_c, 0, 67, 80
2, 97404, Note_off_c, 0, 67, 100
2, 97408, Note_on_c, 0, 69, 80
2, 97468, Note_off_c, 0, 69, 100
2, 97472, Note_on_c, 0, 71, 80
2, 97532, Note_off_c, 0, 71, 100
2, 97536, Note_on_c, 0, 72, 80
2, 97724, Note_off_c, 0, 72, 100
2, 97920, Note_on_c, 0, 74, 80
2, 97980, Note_off_c, 0, 74, 100
2, 97984, Note_on_c, 0, 76, 80
2, 98044, Note_off_c, 0, 76, 100
2, 98048, Note_on_c, 0, 78, 80
2, 98108, Note_off_c, 0, 78, 100
2, 98112, Note_on_c, 0, 79, 80
2, 98172, Note_off_c, 0, 79, 100
2, 98176, Note_on_c, 0, 81, 80
2, 98236, Note_off_c, 0, 81, 100
2, 98240, Note_on_c, 0, 83, 80
2, 98300, Note_off_c, 0, 83, 100
2, 98304, Note_on_c, 0, 84, 80
2, 98492, Note_off_c, 0, 84, 100
2, 99840, Note_on_c, 0, 75, 78
2, 99900, Note_off_c, 0, 75, 100
2, 99904, Note_on_c, 0, 76, 77
2, 99964, Note_off_c, 0, 76, 100
2, 99968, Note_on_c, 0, 78, 77
2, 100028, Note_off_c, 0, 78, 100
2, 100032, Note_on_c, 0, 79, 77
2, 100092, Note_off_c, 0, 79, 100
2, 100096, Note_on_c, 0, 81, 77
2, 100156, Note_off_c, 0, 81, 100
2, 100160, Note_on_c, 0, 83, 76
2, 100220, Note_off_c, 0, 83, 100
2, 100224, Note_on_c, 0, 84, 76
2, 100412, Note_off_c, 0, 84, 100
2, 100992, Note_on_c, 0, 76, 72
2, 101052, Note_off_c, 0, 76, 100
2, 101056, Note_on_c, 0, 78, 72
2, 101116, Note_off_c, 0, 78, 100
2, 101120, Note_on_c, 0, 80, 72
2, 101180, Note_off_c, 0, 80, 100
2, 101184, Note_on_c, 0, 81, 71
2, 101244, Note_off_c, 0, 81, 100
2, 101248, Note_on_c, 0, 82, 71
2, 101308, Note_off_c, 0, 82, 100
2, 101312, Note_on_c, 0, 83, 71
2, 101372, Note_off_c, 0, 83, 100
2, 101376, Note_on_c, 0, 84, 71
2, 101564, Note_off_c, 0, 84, 100
2, 102528, Note_on_c, 0, 69, 80
2, 102620, Note_off_c, 0, 69, 100
2, 102624, Note_on_c, 0, 70, 80
2, 102716, Note_off_c, 0, 70, 100
2, 102720, Note_on_c, 0, 72, 80
2, 102908, Note_off_c, 0, 72, 100
2, 102912, Note_on_c, 0, 74, 80
2, 103004, Note_off_c, 0, 74, 100
2, 103008, Note_on_c, 0, 76, 80
2, 103100, Note_off_c, 0, 76, 100
2, 103104, Note_on_c, 0, 77, 80
2, 103292, Note_off_c, 0, 77, 100
2, 103296, Note_on_c, 0, 79, 80
2, 103388, Note_off_c, 0, 79, 100
2, 103392, Note_on_c, 0, 81, 80
2, 103484, Note_off_c, 0, 81, 100
2, 103488, Note_on_c, 0, 82, 80
2, 103676, Note_off_c, 0, 82, 100
2, 103680, Note_on_c, 0, 83, 80
2, 103868, Note_off_c, 0, 83, 100
2, 103872, Note_on_c, 0, 84, 80
2, 104252, Note_off_c, 0, 84, 100
2, 104256, Note_on_c, 0, 86, 80
2, 104348, Note_off_c, 0, 86, 100
2, 104352, Note_on_c, 0, 83, 80
2, 104444, Note_off_c, 0, 83, 100
2, 104448, Note_on_c, 0, 84, 80
2, 104636, Note_off_c, 0, 84, 100
2, 104832, Note_on_c, 0, 69, 80
2, 104924, Note_off_c, 0, 69, 100
2, 104928, Note_on_c, 0, 70, 80
2, 105020, Note_off_c, 0, 70, 100
2, 105024, Note_on_c, 0, 72, 80
2, 105212, Note_off_c, 0, 72, 100
2, 105216, Note_on_c, 0, 74, 80
2, 105308, Note_off_c, 0, 74, 100
2, 105312, Note_on_c, 0, 76, 80
2, 105404, Note_off_c, 0, 76, 100
2, 105408, Note_on_c, 0, 77, 80
2, 105596, Note_off_c, 0, 77, 100
2, 105600, Note_on_c, 0, 79, 80
2, 105692, Note_off_c, 0, 79, 100
2, 105696, Note_on_c, 0, 81, 80
2, 105788, Note_off_c, 0, 81, 100
2, 105792, Note_on_c, 0, 82, 80
2, 105980, Note_off_c, 0, 82, 100
2, 105984, Note_on_c, 0, 83, 80
2, 106172, Note_off_c, 0, 83, 100
2, 106176, Note_on_c, 0, 84, 70
2, 106556, Note_off_c, 0, 84, 100
2, 106560, Note_on_c, 0, 86, 70
2, 106652, Note_off_c, 0, 86, 100
2, 106656, Note_on_c, 0, 83, 70
2, 106748, Note_off_c, 0, 83, 100
2, 106752, Note_on_c, 0, 84, 70
2, 107132, Note_off_c, 0, 84, 100
2, 107136, Note_on_c, 0, 86, 74
2, 107228, Note_off_c, 0, 86, 100
2, 107232, Note_on_c, 0, 83, 76
2, 107324, Note_off_c, 0, 83, 100
2, 107328, Note_on_c, 0, 84, 77
2, 107708, Note_off_c, 0, 84, 100
2, 107712, Note_on_c, 0, 86, 82
2, 107804, Note_off_c, 0, 86, 100
2, 107808, Note_on_c, 0, 83, 83
2, 107900, Note_off_c, 0, 83, 100
2, 107904, Note_on_c, 0, 84, 84
2, 108092, Note_off_c, 0, 84, 100
2, 108096, Note_on_c, 0, 84, 87
2, 108284, Note_off_c, 0, 84, 100
2, 108288, Note_on_c, 0, 84, 89
2, 108476, Note_off_c, 0, 84, 100
2, 108480, Note_on_c, 0, 84, 80
2, 108524, Note_off_c, 0, 84, 100
2, 108528, Note_on_c, 0, 83, 80
2, 108668, Note_off_c, 0, 83, 100
2, 108672, Note_on_c, 0, 81, 80
2, 108716, Note_off_c, 0, 81, 100
2, 108720, Note_on_c, 0, 79, 80
2, 108860, Note_off_c, 0, 79, 100
2, 108864, Note_on_c, 0, 78, 80
2, 108908, Note_off_c, 0, 78, 100
2, 108912, Note_on_c, 0, 79, 80
2, 109052, Note_off_c, 0, 79, 100
2, 109056, Note_on_c, 0, 81, 80
2, 109100, Note_off_c, 0, 81, 100
2, 109104, Note_on_c, 0, 79, 80
2, 109244, Note_off_c, 0, 79, 100
2, 109248, Note_on_c, 0, 78, 80
2, 109292, Note_off_c, 0, 78, 100
2, 109296, Note_on_c, 0, 76, 80
2, 109436, Note_off_c, 0, 76, 100
2, 109440, Note_on_c, 0, 75, 80
2, 109484, Note_off_c, 0, 75, 100
2, 109488, Note_on_c, 0, 76, 80
2, 109628, Note_off_c, 0, 76, 100
2, 109632, Note_on_c, 0, 79, 80
2, 109676, Note_off_c, 0, 79, 100
2, 109680, Note_on_c, 0, 78, 80
2, 109820, Note_off_c, 0, 78, 100
2, 109824, Note_on_c, 0, 76, 80
2, 109868, Note_off_c, 0, 76, 100
2, 109872, Note_on_c, 0, 74, 80
2, 110012, Note_off_c, 0, 74, 100
2, 110016, Note_on_c, 0, 72, 80
2, 110060, Note_off_c, 0, 72, 100
2, 110064, Note_on_c, 0, 71, 80
2, 110204, Note_off_c, 0, 71, 100
2, 110208, Note_on_c, 0, 74, 80
2, 110252, Note_off_c, 0, 74, 100
2, 110256, Note_on_c, 0, 72, 80
2, 110396, Note_off_c, 0, 72, 100
2, 110400, Note_on_c, 0, 71, 80
2, 110444, Note_off_c, 0, 71, 100
2, 110448, Note_on_c, 0, 69, 80
2, 110588, Note_off_c, 0, 69, 100
2, 110592, Note_on_c, 0, 67, 80
2, 110636, Note_off_c, 0, 67, 100
2, 110640, Note_on_c, 0, 66, 80
2, 110780, Note_off_c, 0, 66, 100
2, 110784, Note_on_c, 0, 67, 80
2, 110972, Note_off_c, 0, 67, 100
2, 110976, Note_on_c, 0, 55, 80
2, 111040, Note_on_c, 0, 59, 80
2, 111074, Note_off_c, 0, 55, 100
2, 111104, Note_on_c, 0, 62, 80
2, 111144, Note_off_c, 0, 59, 100
2, 111168, Note_on_c, 0, 55, 80
2, 111200, Note_off_c, 0, 62, 100
2, 111232, Note_on_c, 0, 59, 80
2, 111260, Note_off_c, 0, 55, 100
2, 111296, Note_on_c, 0, 62, 80
2, 111330, Note_off_c, 0, 59, 100
2, 111360, Note_on_c, 0, 55, 80
2, 111394, Note_off_c, 0, 62, 100
2, 111424, Note_on_c, 0, 59, 80
2, 111450, Note_off_c, 0, 55, 100
2, 111488, Note_on_c, 0, 62, 80
2, 111524, Note_off_c, 0, 59, 100
2, 111552, Note_on_c, 0, 55, 80
2, 111594, Note_off_c, 0, 62, 100
2, 111616, Note_on_c, 0, 59, 80
2, 111650, Note_off_c, 0, 55, 100
2, 111680, Note_on_c, 0, 62, 80
2, 111718, Note_off_c, 0, 59, 100
2, 111744, Note_on_c, 0, 55, 80
2, 111788, Note_off_c, 0, 62, 100
2, 111808, Note_on_c, 0, 59, 80
2, 111838, Note_off_c, 0, 55, 100
2, 111872, Note_on_c, 0, 62, 80
2, 111908, Note_off_c, 0, 59, 100
2, 111936, Note_on_c, 0, 57, 80
2, 111972, Note_off_c, 0, 62, 100
2, 112000, Note_on_c, 0, 60, 80
2, 112028, Note_off_c, 0, 57, 100
2, 112064, Note_on_c, 0, 62, 80
2, 112094, Note_off_c, 0, 60, 100
2, 112128, Note_on_c, 0, 57, 80
2, 112158, Note_off_c, 0, 62, 100
2, 112192, Note_on_c, 0, 60, 80
2, 112230, Note_off_c, 0, 57, 100
2, 112256, Note_on_c, 0, 62, 80
2, 112310, Note_off_c, 0, 60, 100
2, 112320, Note_on_c, 0, 57, 80
2, 112364, Note_off_c, 0, 62, 100
2, 112384, Note_on_c, 0, 60, 80
2, 112430, Note_off_c, 0, 57, 100
2, 112448, Note_on_c, 0, 62, 80
2, 112492, Note_off_c, 0, 60, 100
2, 112512, Note_on_c, 0, 57, 80
2, 112554, Note_off_c, 0, 62, 100
2, 112576, Note_on_c, 0, 60, 80
2, 112620, Note_off_c, 0, 57, 100
2, 112640, Note_on_c, 0, 62, 80
2, 112694, Note_off_c, 0, 60, 100
2, 112704, Note_on_c, 0, 57, 80
2, 112754, Note_off_c, 0, 62, 100
2, 112768, Note_on_c, 0, 60, 80
2, 112822, Note_off_c, 0, 57, 100
2, 112832, Note_on_c, 0, 62, 80
2, 112878, Note_off_c, 0, 60, 100
2, 112896, Note_on_c, 0, 57, 80
2, 112938, Note_off_c, 0, 62, 100
2, 112960, Note_on_c, 0, 60, 80
2, 113016, Note_off_c, 0, 57, 100
2, 113024, Note_on_c, 0, 62, 80
2, 113066, Note_off_c, 0, 60, 100
2, 113088, Note_on_c, 0, 55, 80
2, 113126, Note_off_c, 0, 62, 100
2, 113152, Note_on_c, 0, 59, 80
2, 113204, Note_off_c, 0, 55, 100
2, 113216, Note_on_c, 0, 62, 80
2, 113256, Note_off_c, 0, 59, 100
2, 113280, Note_on_c, 0, 55, 80
2, 113338, Note_off_c, 0, 62, 100
2, 113344, Note_on_c, 0, 59, 80
2, 113386, Note_off_c, 0, 55, 100
2, 113408, Note_on_c, 0, 62, 80
2, 113448, Note_off_c, 0, 59, 100
2, 113472, Note_on_c, 0, 55, 80
2, 113512, Note_off_c, 0, 62, 100
2, 113536, Note_on_c, 0, 59, 80
2, 113578, Note_off_c, 0, 55, 100
2, 113600, Note_on_c, 0, 62, 80
2, 113638, Note_off_c, 0, 59, 100
2, 113664, Note_on_c, 0, 55, 80
2, 113710, Note_off_c, 0, 62, 100
2, 113728, Note_on_c, 0, 59, 80
2, 113774, Note_off_c, 0, 55, 100
2, 113792, Note_on_c, 0, 62, 80
2, 113842, Note_off_c, 0, 59, 100
2, 113856, Note_on_c, 0, 55, 80
2, 113904, Note_off_c, 0, 62, 100
2, 113920, Note_on_c, 0, 59, 80
2, 113970, Note_off_c, 0, 55, 100
2, 113984, Note_on_c, 0, 62, 80
2, 114028, Note_off_c, 0, 59, 100
2, 114048, Note_on_c, 0, 55, 80
2, 114092, Note_off_c, 0, 62, 100
2, 114112, Note_on_c, 0, 59, 80
2, 114168, Note_off_c, 0, 55, 100
2, 114176, Note_on_c, 0, 62, 80
2, 114222, Note_off_c, 0, 59, 100
2, 114240, Note_on_c, 0, 57, 80
2, 114298, Note_off_c, 0, 62, 100
2, 114304, Note_on_c, 0, 60, 80
2, 114356, Note_off_c, 0, 57, 100
2, 114368, Note_on_c, 0, 62, 80
2, 114416, Note_off_c, 0, 60, 100
2, 114432, Note_on_c, 0, 57, 80
2, 114490, Note_off_c, 0, 62, 100
2, 114496, Note_on_c, 0, 60, 80
2, 114540, Note_off_c, 0, 57, 100
2, 114560, Note_on_c, 0, 62, 80
2, 114600, Note_off_c, 0, 60, 100
2, 114624, Note_on_c, 0, 57, 80
2, 114666, Note_off_c, 0, 62, 100
2, 114688, Note_on_c, 0, 60, 80
2, 114744, Note_off_c, 0, 57, 100
2, 114752, Note_on_c, 0, 62, 80
2, 114796, Note_off_c, 0, 60, 100
2, 114816, Note_on_c, 0, 57, 80
2, 114880, Note_on_c, 0, 60, 80
2, 114882, Note_off_c, 0, 62, 100
2, 114922, Note_off_c, 0, 57, 100
2, 114944, Note_on_c, 0, 62, 80
2, 114982, Note_off_c, 0, 60, 100
2, 115008, Note_on_c, 0, 57, 80
2, 115060, Note_off_c, 0, 62, 100
2, 115072, Note_on_c, 0, 60, 80
2, 115118, Note_off_c, 0, 57, 100
2, 115136, Note_on_c, 0, 62, 80
2, 115180, Note_off_c, 0, 60, 100
2, 115200, Note_on_c, 0, 57, 80
2, 115242, Note_off_c, 0, 62, 100
2, 115264, Note_on_c, 0, 60, 80
2, 115294, Note_off_c, 0, 57, 100
2, 115328, Note_on_c, 0, 62, 80
2, 115366, Note_off_c, 0, 60, 100
2, 115392, Note_on_c, 0, 55, 80
2, 115426, Note_off_c, 0, 62, 100
2, 115456, Note_on_c, 0, 59, 80
2, 115496, Note_off_c, 0, 55, 100
2, 115520, Note_on_c, 0, 62, 80
2, 115566, Note_off_c, 0, 59, 100
2, 115584, Note_on_c, 0, 55, 80
2, 115620, Note_off_c, 0, 62, 100
2, 115648, Note_on_c, 0, 59, 80
2, 115690, Note_off_c, 0, 55, 100
2, 115712, Note_on_c, 0, 62, 80
2, 115748, Note_off_c, 0, 59, 100
2, 115776, Note_on_c, 0, 55, 80
2, 115816, Note_off_c, 0, 62, 100
2, 115840, Note_on_c, 0, 59, 80
2, 115886, Note_off_c, 0, 55, 100
2, 115904, Note_on_c, 0, 62, 80
2, 115938, Note_off_c, 0, 59, 100
2, 115968, Note_on_c, 0, 57, 80
2, 116010, Note_off_c, 0, 62, 100
2, 116032, Note_on_c, 0, 60, 80
2, 116082, Note_off_c, 0, 57, 100
2, 116096, Note_on_c, 0, 62, 80
2, 116138, Note_off_c, 0, 60, 100
2, 116160, Note_on_c, 0, 57, 80
2, 116196, Note_off_c, 0, 62, 100
2, 116224, Note_on_c, 0, 60, 80
2, 116262, Note_off_c, 0, 57, 100
2, 116288, Note_on_c, 0, 62, 80
2, 116336, Note_off_c, 0, 60, 100
2, 116352, Note_on_c, 0, 57, 80
2, 116396, Note_off_c, 0, 62, 100
2, 116416, Note_on_c, 0, 60, 80
2, 116458, Note_off_c, 0, 57, 100
2, 116480, Note_on_c, 0, 62, 80
2, 116522, Note_off_c, 0, 60, 100
2, 116544, Note_on_c, 0, 55, 80
2, 116586, Note_off_c, 0, 62, 100
2, 116608, Note_on_c, 0, 59, 80
2, 116652, Note_off_c, 0, 55, 100
2, 116672, Note_on_c, 0, 62, 80
2, 116726, Note_off_c, 0, 59, 100
2, 116736, Note_on_c, 0, 55, 80
2, 116778, Note_off_c, 0, 62, 100
2, 116800, Note_on_c, 0, 59, 80
2, 116844, Note_off_c, 0, 55, 100
2, 116864, Note_on_c, 0, 62, 80
2, 116912, Note_off_c, 0, 59, 100
2, 116928, Note_on_c, 0, 55, 80
2, 116968, Note_off_c, 0, 62, 100
2, 116992, Note_on_c, 0, 59, 80
2, 117030, Note_off_c, 0, 55, 100
2, 117056, Note_on_c, 0, 62, 80
2, 117096, Note_off_c, 0, 59, 100
2, 117120, Note_on_c, 0, 57, 80
2, 117150, Note_off_c, 0, 62, 100
2, 117184, Note_on_c, 0, 60, 80
2, 117228, Note_off_c, 0, 57, 100
2, 117248, Note_on_c, 0, 62, 80
2, 117284, Note_off_c, 0, 60, 100
2, 117312, Note_on_c, 0, 57, 80
2, 117358, Note_off_c, 0, 62, 100
2, 117376, Note_on_c, 0, 60, 80
2, 117418, Note_off_c, 0, 57, 100
2, 117440, Note_on_c, 0, 62, 80
2, 117478, Note_off_c, 0, 60, 100
2, 117504, Note_on_c, 0, 57, 80
2, 117546, Note_off_c, 0, 62, 100
2, 117568, Note_on_c, 0, 60, 80
2, 117606, Note_off_c, 0, 57, 100
2, 117632, Note_on_c, 0, 62, 80
2, 117660, Note_off_c, 0, 60, 100
2, 117692, Note_off_c, 0, 62, 100
2, 117696, Note_on_c, 0, 55, 80
2, 117788, Note_off_c, 0, 55, 100
2, 117792, Note_on_c, 0, 59, 80
2, 117884, Note_off_c, 0, 59, 100
2, 117888, Note_on_c, 0, 57, 80
2, 117980, Note_off_c, 0, 57, 100
2, 117984, Note_on_c, 0, 60, 80
2, 118076, Note_off_c, 0, 60, 100
2, 118080, Note_on_c, 0, 59, 80
2, 118172, Note_off_c, 0, 59, 100
2, 118176, Note_on_c, 0, 62, 80
2, 118268, Note_off_c, 0, 62, 100
2, 118272, Note_on_c, 0, 60, 80
2, 118364, Note_off_c, 0, 60, 100
2, 118368, Note_on_c, 0, 64, 80
2, 118460, Note_off_c, 0, 64, 100
2, 118464, Note_on_c, 0, 62, 80
2, 118556, Note_off_c, 0, 62, 100
2, 118560, Note_on_c, 0, 66, 80
2, 118652, Note_off_c, 0, 66, 100
2, 118656, Note_on_c, 0, 64, 80
2, 118748, Note_off_c, 0, 64, 100
2, 118752, Note_on_c, 0, 67, 80
2, 118844, Note_off_c, 0, 67, 100
2, 118848, Note_on_c, 0, 66, 80
2, 118940, Note_off_c, 0, 66, 100
2, 118944, Note_on_c, 0, 69, 80
2, 119036, Note_off_c, 0, 69, 100
2, 119040, Note_on_c, 0, 67, 80
2, 119132, Note_off_c, 0, 67, 100
2, 119136, Note_on_c, 0, 71, 80
2, 119228, Note_off_c, 0, 71, 100
2, 119232, Note_on_c, 0, 69, 80
2, 119324, Note_off_c, 0, 69, 100
2, 119328, Note_on_c, 0, 72, 80
2, 119420, Note_off_c, 0, 72, 100
2, 119424, Note_on_c, 0, 71, 80
2, 119516, Note_off_c, 0, 71, 100
2, 119520, Note_on_c, 0, 73, 81
2, 119612, Note_off_c, 0, 73, 100
2, 119616, Note_on_c, 0, 74, 83
2, 119708, Note_off_c, 0, 74, 100
2, 119712, Note_on_c, 0, 72, 85
2, 119804, Note_off_c, 0, 72, 100
2, 119808, Note_on_c, 0, 71, 86
2, 119900, Note_off_c, 0, 71, 100
2, 119904, Note_on_c, 0, 67, 88
2, 119996, Note_off_c, 0, 67, 100
2, 120000, Note_on_c, 0, 76, 90
2, 120092, Note_off_c, 0, 76, 100
2, 120096, Note_on_c, 0, 74, 92
2, 120188, Note_off_c, 0, 74, 100
2, 120192, Note_on_c, 0, 72, 93
2, 120284, Note_off_c, 0, 72, 100
2, 120288, Note_on_c, 0, 69, 95
2, 120380, Note_off_c, 0, 69, 100
2, 120384, Note_on_c, 0, 78, 97
2, 120476, Note_off_c, 0, 78, 100
2, 120480, Note_on_c, 0, 76, 99
2, 120572, Note_off_c, 0, 76, 100
2, 120576, Note_on_c, 0, 74, 100
2, 120668, Note_off_c, 0, 74, 100
2, 120672, Note_on_c, 0, 71, 102
2, 120764, Note_off_c, 0, 71, 100
2, 120768, Note_on_c, 0, 79, 104
2, 120860, Note_off_c, 0, 79, 100
2, 120864, Note_on_c, 0, 77, 106
2, 120956, Note_off_c, 0, 77, 100
2, 120960, Note_on_c, 0, 76, 107
2, 121052, Note_off_c, 0, 76, 100
2, 121056, Note_on_c, 0, 72, 109
2, 121148, Note_off_c, 0, 72, 100
2, 121152, Note_on_c, 0, 79, 111
2, 121244, Note_off_c, 0, 79, 100
2, 121248, Note_on_c, 0, 77, 113
2, 121340, Note_off_c, 0, 77, 100
2, 121344, Note_on_c, 0, 76, 114
2, 121436, Note_off_c, 0, 76, 100
2, 121440, Note_on_c, 0, 72, 116
2, 121532, Note_off_c, 0, 72, 100
2, 121536, Note_on_c, 0, 79, 118
2, 121628, Note_off_c, 0, 79, 100
2, 121632, Note_on_c, 0, 77, 119
2, 121724, Note_off_c, 0, 77, 100
2, 121728, Note_on_c, 0, 76, 120
2, 121820, Note_off_c, 0, 76, 100
2, 121824, Note_on_c, 0, 72, 120
2, 121916, Note_off_c, 0, 72, 100
2, 121920, Note_on_c, 0, 79, 120
2, 122012, Note_off_c, 0, 79, 100
2, 122016, Note_on_c, 0, 77, 120
2, 122108, Note_off_c, 0, 77, 100
2, 122112, Note_on_c, 0, 76, 120
2, 122204, Note_off_c, 0, 76, 100
2, 122208, Note_on_c, 0, 72, 120
2, 122300, Note_off_c, 0, 72, 100
2, 122496, Note_on_c, 0, 79, 80
2, 122556, Note_off_c, 0, 79, 100
2, 122560, Note_on_c, 0, 78, 80
2, 122620, Note_off_c, 0, 78, 100
2, 122624, Note_on_c, 0, 76, 80
2, 122684, Note_off_c, 0, 76, 100
2, 122688, Note_on_c, 0, 79, 80
2, 122748, Note_off_c, 0, 79, 100
2, 122752, Note_on_c, 0, 78, 80
2, 122812, Note_off_c, 0, 78, 100
2, 122816, Note_on_c, 0, 76, 80
2, 122876, Note_off_c, 0, 76, 100
2, 123072, Note_on_c, 0, 79, 80
2, 123132, Note_off_c, 0, 79, 100
2, 123136, Note_on_c, 0, 78, 80
2, 123196, Note_off_c, 0, 78, 100
2, 123200, Note_on_c, 0, 76, 80
2, 123260, Note_off_c, 0, 76, 100
2, 123264, Note_on_c, 0, 79, 80
2, 123324, Note_off_c, 0, 79, 100
2, 123328, Note_on_c, 0, 78, 80
2, 123388, Note_off_c, 0, 78, 100
2, 123392, Note_on_c, 0, 76, 80
2, 123452, Note_off_c, 0, 76, 100
2, 123648, Note_on_c, 0, 74, 80
2, 123708, Note_off_c, 0, 74, 100
2, 123712, Note_on_c, 0, 72, 80
2, 123772, Note_off_c, 0, 72, 100
2, 123776, Note_on_c, 0, 71, 80
2, 123836, Note_off_c, 0, 71, 100
2, 123840, Note_on_c, 0, 74, 80
2, 123900, Note_off_c, 0, 74, 100
2, 123904, Note_on_c, 0, 72, 80
2, 123964, Note_off_c, 0, 72, 100
2, 123968, Note_on_c, 0, 71, 80
2, 124028, Note_off_c, 0, 71, 100
2, 124224, Note_on_c, 0, 69, 80
2, 124284, Note_off_c, 0, 69, 100
2, 124288, Note_on_c, 0, 67, 80
2, 124348, Note_off_c, 0, 67, 100
2, 124352, Note_on_c, 0, 66, 80
2, 124412, Note_off_c, 0, 66, 100
2, 124416, Note_on_c, 0, 69, 80
2, 124476, Note_off_c, 0, 69, 100
2, 124480, Note_on_c, 0, 67, 80
2, 124540, Note_off_c, 0, 67, 100
2, 124544, Note_on_c, 0, 66, 80
2, 124604, Note_off_c, 0, 66, 100
2, 124608, Note_on_c, 0, 67, 80
2, 124988, Note_off_c, 0, 67, 100
2, 125184, Note_on_c, 0, 43, 90
2, 125756, Note_off_c, 0, 43, 100
2, 125760, Note_on_c, 0, 42, 90
2, 125948, Note_off_c, 0, 42, 100
2, 125952, Note_on_c, 0, 50, 90
2, 126140, Note_off_c, 0, 50, 100
2, 126144, Note_on_c, 0, 50, 90
2, 126332, Note_off_c, 0, 50, 100
2, 126336, Note_on_c, 0, 66, 90
2, 126908, Note_off_c, 0, 66, 100
2, 126912, Note_on_c, 0, 67, 90
2, 127100, Note_off_c, 0, 67, 100
2, 127104, Note_on_c, 0, 74, 90
2, 127292, Note_off_c, 0, 74, 100
2, 127296, Note_on_c, 0, 74, 90
2, 127484, Note_off_c, 0, 74, 100
2, 127488, Note_on_c, 0, 43, 90
2, 128060, Note_off_c, 0, 43, 100
2, 128064, Note_on_c, 0, 42, 90
2, 128252, Note_off_c, 0, 42, 100
2, 128256, Note_on_c, 0, 52, 90
2, 128444, Note_off_c, 0, 52, 100
2, 128448, Note_on_c, 0, 50, 90
2, 128636, Note_off_c, 0, 50, 100
2, 128640, Note_on_c, 0, 66, 90
2, 129212, Note_off_c, 0, 66, 100
2, 129216, Note_on_c, 0, 67, 90
2, 129404, Note_off_c, 0, 67, 100
2, 129408, Note_on_c, 0, 76, 103
2, 129596, Note_off_c, 0, 76, 100
2, 129600, Note_on_c, 0, 74, 90
2, 129788, Note_off_c, 0, 74, 100
2, 129792, Note_on_c, 0, 42, 90
2, 129980, Note_off_c, 0, 42, 100
2, 129984, Note_on_c, 0, 52, 105
2, 130172, Note_off_c, 0, 52, 100
2, 130176, Note_on_c, 0, 50, 90
2, 130364, Note_off_c, 0, 50, 100
2, 130368, Note_on_c, 0, 67, 90
2, 130556, Note_off_c, 0, 67, 100
2, 130560, Note_on_c, 0, 76, 106
2, 130748, Note_off_c, 0, 76, 100
2, 130752, Note_on_c, 0, 74, 90
2, 130940, Note_off_c, 0, 74, 100
2, 130944, Note_on_c, 0, 42, 90
2, 131132, Note_off_c, 0, 42, 100
2, 131136, Note_on_c, 0, 52, 104
2, 131324, Note_off_c, 0, 52, 100
2, 131328, Note_on_c, 0, 50, 90
2, 131516, Note_off_c, 0, 50, 100
2, 131520, Note_on_c, 0, 43, 80
2, 131612, Note_off_c, 0, 43, 100
2, 131616, Note_on_c, 0, 47, 80
2, 131708, Note_off_c, 0, 47, 100
2, 131712, Note_on_c, 0, 45, 80
2, 131804, Note_off_c, 0, 45, 100
2, 131808, Note_on_c, 0, 48, 80
2, 131900, Note_off_c, 0, 48, 100
2, 131904, Note_on_c, 0, 47, 80
2, 131996, Note_off_c, 0, 47, 100
2, 132000, Note_on_c, 0, 50, 80
2, 132092, Note_off_c, 0, 50, 100
2, 132096, Note_on_c, 0, 48, 80
2, 132188, Note_off_c, 0, 48, 100
2, 132192, Note_on_c, 0, 52, 80
2, 132284, Note_off_c, 0, 52, 100
2, 132288, Note_on_c, 0, 50, 80
2, 132380, Note_off_c, 0, 50, 100
2, 132384, Note_on_c, 0, 54, 80
2, 132476, Note_off_c, 0, 54, 100
2, 132480, Note_on_c, 0, 52, 80
2, 132572, Note_off_c, 0, 52, 100
2, 132576, Note_on_c, 0, 55, 80
2, 132668, Note_off_c, 0, 55, 100
2, 132672, Note_on_c, 0, 54, 80
2, 132764, Note_off_c, 0, 54, 100
2, 132768, Note_on_c, 0, 57, 80
2, 132860, Note_off_c, 0, 57, 100
2, 132864, Note_on_c, 0, 55, 80
2, 132956, Note_off_c, 0, 55, 100
2, 132960, Note_on_c, 0, 59, 80
2, 133052, Note_off_c, 0, 59, 100
2, 133056, Note_on_c, 0, 57, 80
2, 133148, Note_off_c, 0, 57, 100
2, 133152, Note_on_c, 0, 60, 80
2, 133244, Note_off_c, 0, 60, 100
2, 133248, Note_on_c, 0, 59, 80
2, 133340, Note_off_c, 0, 59, 100
2, 133344, Note_on_c, 0, 61, 81
2, 133436, Note_off_c, 0, 61, 100
2, 133440, Note_on_c, 0, 62, 83
2, 133532, Note_off_c, 0, 62, 100
2, 133536, Note_on_c, 0, 60, 85
2, 133628, Note_off_c, 0, 60, 100
2, 133632, Note_on_c, 0, 59, 86
2, 133724, Note_off_c, 0, 59, 100
2, 133728, Note_on_c, 0, 57, 88
2, 133820, Note_off_c, 0, 57, 100
2, 133824, Note_on_c, 0, 64, 90
2, 133916, Note_off_c, 0, 64, 100
2, 133920, Note_on_c, 0, 62, 92
2, 134012, Note_off_c, 0, 62, 100
2, 134016, Note_on_c, 0, 60, 93
2, 134108, Note_off_c, 0, 60, 100
2, 134112, Note_on_c, 0, 57, 95
2, 134204, Note_off_c, 0, 57, 100
2, 134208, Note_on_c, 0, 66, 97
2, 134300, Note_off_c, 0, 66, 100
2, 134304, Note_on_c, 0, 64, 99
2, 134396, Note_off_c, 0, 64, 100
2, 134400, Note_on_c, 0, 62, 100
2, 134492, Note_off_c, 0, 62, 100
2, 134496, Note_on_c, 0, 59, 102
2, 134588, Note_off_c, 0, 59, 100
2, 134592, Note_on_c, 0, 67, 104
2, 134684, Note_off_c, 0, 67, 100
2, 134688, Note_on_c, 0, 65, 106
2, 134780, Note_off_c, 0, 65, 100
2, 134784, Note_on_c, 0, 64, 107
2, 134876, Note_off_c, 0, 64, 100
2, 134880, Note_on_c, 0, 60, 109
2, 134972, Note_off_c, 0, 60, 100
2, 134976, Note_on_c, 0, 67, 111
2, 135068, Note_off_c, 0, 67, 100
2, 135072, Note_on_c, 0, 65, 113
2, 135164, Note_off_c, 0, 65, 100
2, 135168, Note_on_c, 0, 64, 114
2, 135260, Note_off_c, 0, 64, 100
2, 135264, Note_on_c, 0, 60, 116
2, 135356, Note_off_c, 0, 60, 100
2, 135360, Note_on_c, 0, 67, 118
2, 135452, Note_off_c, 0, 67, 100
2, 135456, Note_on_c, 0, 65, 119
2, 135548, Note_off_c, 0, 65, 100
2, 135552, Note_on_c, 0, 64, 120
2, 135644, Note_off_c, 0, 64, 100
2, 135648, Note_on_c, 0, 60, 120
2, 135740, Note_off_c, 0, 60, 100
2, 135744, Note_on_c, 0, 67, 120
2, 135836, Note_off_c, 0, 67, 100
2, 135840, Note_on_c, 0, 65, 120
2, 135932, Note_off_c, 0, 65, 100
2, 135936, Note_on_c, 0, 64, 120
2, 136028, Note_off_c, 0, 64, 100
2, 136032, Note_on_c, 0, 60, 120
2, 136124, Note_off_c, 0, 60, 100
2, 136320, Note_on_c, 0, 79, 80
2, 136380, Note_off_c, 0, 79, 100
2, 136384, Note_on_c, 0, 78, 80
2, 136444, Note_off_c, 0, 78, 100
2, 136448, Note_on_c, 0, 76, 80
2, 136508, Note_off_c, 0, 76, 100
2, 136512, Note_on_c, 0, 79, 80
2, 136572, Note_off_c, 0, 79, 100
2, 136576, Note_on_c, 0, 78, 80
2, 136636, Note_off_c, 0, 78, 100
2, 136640, Note_on_c, 0, 76, 80
2, 136700, Note_off_c, 0, 76, 100
2, 136896, Note_on_c, 0, 79, 80
2, 136956, Note_off_c, 0, 79, 100
2, 136960, Note_on_c, 0, 78, 80
2, 137020, Note_off_c, 0, 78, 100
2, 137024, Note_on_c, 0, 76, 80
2, 137084, Note_off_c, 0, 76, 100
2, 137088, Note_on_c, 0, 79, 80
2, 137148, Note_off_c, 0, 79, 100
2, 137152, Note_on_c, 0, 78, 80
2, 137212, Note_off_c, 0, 78, 100
2, 137216, Note_on_c, 0, 76, 80
2, 137276, Note_off_c, 0, 76, 100
2, 137472, Note_on_c, 0, 74, 80
2, 137532, Note_off_c, 0, 74, 100
2, 137536, Note_on_c, 0, 72, 80
2, 137596, Note_off_c, 0, 72, 100
2, 137600, Note_on_c, 0, 71, 80
2, 137660, Note_off_c, 0, 71, 100
2, 137664, Note_on_c, 0, 74, 80
2, 137724, Note_off_c, 0, 74, 100
2, 137728, Note_on_c, 0, 72, 80
2, 137788, Note_off_c, 0, 72, 100
2, 137792, Note_on_c, 0, 71, 80
2, 137852, Note_off_c, 0, 71, 100
2, 138048, Note_on_c, 0, 69, 80
2, 138108, Note_off_c, 0, 69, 100
2, 138112, Note_on_c, 0, 67, 80
2, 138172, Note_off_c, 0, 67, 100
2, 138176, Note_on_c, 0, 66, 80
2, 138236, Note_off_c, 0, 66, 100
2, 138240, Note_on_c, 0, 69, 80
2, 138300, Note_off_c, 0, 69, 100
2, 138304, Note_on_c, 0, 67, 80
2, 138364, Note_off_c, 0, 67, 100
2, 138368, Note_on_c, 0, 66, 80
2, 138428, Note_off_c, 0, 66, 100
2, 138432, Note_on_c, 0, 67, 80
2, 138620, Note_off_c, 0, 67, 100
2, 138816, Note_on_c, 0, 71, 80
2, 138908, Note_off_c, 0, 71, 100
2, 138912, Note_on_c, 0, 72, 80
2, 139004, Note_off_c, 0, 72, 100
2, 139008, Note_on_c, 0, 74, 80
2, 139196, Note_off_c, 0, 74, 100
2, 139200, Note_on_c, 0, 76, 80
2, 139292, Note_off_c, 0, 76, 100
2, 139296, Note_on_c, 0, 78, 80
2, 139388, Note_off_c, 0, 78, 100
2, 139392, Note_on_c, 0, 79, 80
2, 139580, Note_off_c, 0, 79, 100
2, 139584, Note_on_c, 0, 81, 80
2, 139676, Note_off_c, 0, 81, 100
2, 139680, Note_on_c, 0, 83, 80
2, 139772, Note_off_c, 0, 83, 100
2, 139776, Note_on_c, 0, 84, 80
2, 139964, Note_off_c, 0, 84, 100
2, 139968, Note_on_c, 0, 85, 95
2, 139968, Note_on_c, 0, 73, 95
2, 140156, Note_off_c, 0, 85, 100
2, 140156, Note_off_c, 0, 73, 100
2, 140160, Note_on_c, 0, 74, 80
2, 140160, Note_on_c, 0, 86, 80
2, 140540, Note_off_c, 0, 74, 100
2, 140540, Note_off_c, 0, 86, 100
2, 140544, Note_on_c, 0, 88, 80
2, 140636, Note_off_c, 0, 88, 100
2, 140640, Note_on_c, 0, 85, 80
2, 140732, Note_off_c, 0, 85, 100
2, 140736, Note_on_c, 0, 86, 80
2, 140924, Note_off_c, 0, 86, 100
2, 141120, Note_on_c, 0, 71, 80
2, 141212, Note_off_c, 0, 71, 100
2, 141216, Note_on_c, 0, 72, 80
2, 141308, Note_off_c, 0, 72, 100
2, 141312, Note_on_c, 0, 74, 80
2, 141500, Note_off_c, 0, 74, 100
2, 141504, Note_on_c, 0, 76, 80
2, 141596, Note_off_c, 0, 76, 100
2, 141600, Note_on_c, 0, 78, 80
2, 141692, Note_off_c, 0, 78, 100
2, 141696, Note_on_c, 0, 79, 80
2, 141884, Note_off_c, 0, 79, 100
2, 141888, Note_on_c, 0, 81, 80
2, 141980, Note_off_c, 0, 81, 100
2, 141984, Note_on_c, 0, 83, 80
2, 142076, Note_off_c, 0, 83, 100
2, 142080, Note_on_c, 0, 84, 80
2, 142268, Note_off_c, 0, 84, 100
2, 142272, Note_on_c, 0, 85, 95
2, 142272, Note_on_c, 0, 73, 95
2, 142460, Note_off_c, 0, 85, 100
2, 142460, Note_off_c, 0, 73, 100
2, 142464, Note_on_c, 0, 74, 80
2, 142464, Note_on_c, 0, 86, 80
2, 142844, Note_off_c, 0, 74, 100
2, 142844, Note_off_c, 0, 86, 100
2, 142848, Note_on_c, 0, 84, 80
2, 142940, Note_off_c, 0, 84, 100
2, 142944, Note_on_c, 0, 81, 80
2, 143036, Note_off_c, 0, 81, 100
2, 143040, Note_on_c, 0, 79, 80
2, 143228, Note_off_c, 0, 79, 100
2, 143424, Note_on_c, 0, 73, 95
2, 143424, Note_on_c, 0, 61, 95
2, 143612, Note_off_c, 0, 73, 100
2, 143612, Note_off_c, 0, 61, 100
2, 143616, Note_on_c, 0, 74, 80
2, 143616, Note_on_c, 0, 62, 80
2, 143996, Note_off_c, 0, 74, 100
2, 143996, Note_off_c, 0, 62, 100
2, 144000, Note_on_c, 0, 76, 80
2, 144092, Note_off_c, 0, 76, 100
2, 144096, Note_on_c, 0, 73, 80
2, 144188, Note_off_c, 0, 73, 100
2, 144192, Note_on_c, 0, 74, 80
2, 144380, Note_off_c, 0, 74, 100
2, 144576, Note_on_c, 0, 85, 95
2, 144576, Note_on_c, 0, 73, 95
2, 144764, Note_off_c, 0, 85, 100
2, 144764, Note_off_c, 0, 73, 100
2, 144768, Note_on_c, 0, 74, 80
2, 144768, Note_on_c, 0, 86, 80
2, 145148, Note_off_c, 0, 74, 100
2, 145148, Note_off_c, 0, 86, 100
2, 145152, Note_on_c, 0, 84, 80
2, 145244, Note_off_c, 0, 84, 100
2, 145248, Note_on_c, 0, 81, 80
2, 145340, Note_off_c, 0, 81, 100
2, 145344, Note_on_c, 0, 79, 80
2, 145532, Note_off_c, 0, 79, 100
2, 145728, Note_on_c, 0, 72, 80
2, 145820, Note_off_c, 0, 72, 100
2, 145824, Note_on_c, 0, 69, 80
2, 145916, Note_off_c, 0, 69, 100
2, 145920, Note_on_c, 0, 67, 80
2, 146108, Note_off_c, 0, 67, 100
2, 146304, Note_on_c, 0, 84, 80
2, 146396, Note_off_c, 0, 84, 100
2, 146400, Note_on_c, 0, 81, 80
2, 146492, Note_off_c, 0, 81, 100
2, 146496, Note_on_c, 0, 79, 80
2, 146684, Note_off_c, 0, 79, 100
2, 146880, Note_on_c, 0, 72, 80
2, 146972, Note_off_c, 0, 72, 100
2, 146976, Note_on_c, 0, 69, 80
2, 147068, Note_off_c, 0, 69, 100
2, 147072, Note_on_c, 0, 67, 80
2, 147260, Note_off_c, 0, 67, 100
2, 147260, End_track
3, 0, Start_track
3, 0, Title_t, "Left"
3, 0, Control_c, 1, 0, 0
3, 0, Program_c, 1, 0
3, 0, Control_c, 1, 7, 100
3, 0, Control_c, 1, 10, 59
3, 0, Control_c, 1, 91, 127
3, 0, Key_signature, 1, "major"
3, 1344, Note_on_c, 1, 59, 80
3, 1344, Note_on_c, 1, 55, 80
3, 1724, Note_off_c, 1, 59, 100
3, 1728, Note_on_c, 1, 60, 80
3, 1820, Note_off_c, 1, 60, 100
3, 1824, Note_on_c, 1, 58, 80
3, 1916, Note_off_c, 1, 55, 100
3, 1916, Note_off_c, 1, 58, 100
3, 1920, Note_on_c, 1, 59, 80
3, 1920, Note_on_c, 1, 55, 80
3, 2108, Note_off_c, 1, 59, 100
3, 2108, Note_off_c, 1, 55, 100
3, 3648, Note_on_c, 1, 71, 100
3, 3648, Note_on_c, 1, 62, 100
3, 4028, Note_off_c, 1, 71, 100
3, 4032, Note_on_c, 1, 69, 87
3, 4124, Note_off_c, 1, 69, 100
3, 4128, Note_on_c, 1, 66, 84
3, 4220, Note_off_c, 1, 62, 100
3, 4220, Note_off_c, 1, 66, 100
3, 4224, Note_on_c, 1, 67, 81
3, 4412, Note_off_c, 1, 67, 100
3, 5184, Note_on_c, 1, 60, 80
3, 5184, Note_on_c, 1, 57, 80
3, 5184, Note_on_c, 1, 50, 80
3, 5372, Note_off_c, 1, 60, 100
3, 5372, Note_off_c, 1, 57, 100
3, 5372, Note_off_c, 1, 50, 100
3, 5376, Note_on_c, 1, 72, 80
3, 5376, Note_on_c, 1, 69, 80
3, 5376, Note_on_c, 1, 62, 80
3, 5564, Note_off_c, 1, 72, 100
3, 5564, Note_off_c, 1, 69, 100
3, 5564, Note_off_c, 1, 62, 100
3, 6336, Note_on_c, 1, 60, 80
3, 6336, Note_on_c, 1, 57, 80
3, 6336, Note_on_c, 1, 50, 80
3, 6524, Note_off_c, 1, 60, 100
3, 6524, Note_off_c, 1, 57, 100
3, 6524, Note_off_c, 1, 50, 100
3, 6528, Note_on_c, 1, 72, 80
3, 6528, Note_on_c, 1, 69, 80
3, 6528, Note_on_c, 1, 62, 80
3, 6716, Note_off_c, 1, 72, 100
3, 6716, Note_off_c, 1, 69, 100
3, 6716, Note_off_c, 1, 62, 100
3, 8064, Note_on_c, 1, 38, 80
3, 8108, Note_off_c, 1, 38, 100
3, 8112, Note_on_c, 1, 40, 80
3, 8156, Note_off_c, 1, 40, 100
3, 8160, Note_on_c, 1, 42, 80
3, 8204, Note_off_c, 1, 42, 100
3, 8208, Note_on_c, 1, 43, 80
3, 8252, Note_off_c, 1, 43, 100
3, 8256, Note_on_c, 1, 45, 80
3, 8316, Note_off_c, 1, 45, 100
3, 8320, Note_on_c, 1, 47, 80
3, 8380, Note_off_c, 1, 47, 100
3, 8384, Note_on_c, 1, 48, 80
3, 8444, Note_off_c, 1, 48, 100
3, 8448, Note_on_c, 1, 50, 80
3, 8508, Note_off_c, 1, 50, 100
3, 8512, Note_on_c, 1, 52, 80
3, 8572, Note_off_c, 1, 52, 100
3, 8576, Note_on_c, 1, 54, 80
3, 8636, Note_off_c, 1, 54, 100
3, 8640, Note_on_c, 1, 55, 80
3, 8700, Note_off_c, 1, 55, 100
3, 8704, Note_on_c, 1, 57, 80
3, 8764, Note_off_c, 1, 57, 100
3, 8768, Note_on_c, 1, 59, 80
3, 8828, Note_off_c, 1, 59, 100
3, 8832, Note_on_c, 1, 62, 80
3, 8832, Note_on_c, 1, 60, 80
3, 9596, Note_off_c, 1, 60, 100
3, 9596, Note_off_c, 1, 62, 100
3, 11136, Note_on_c, 1, 71, 80
3, 11136, Note_on_c, 1, 67, 80
3, 11516, Note_off_c, 1, 71, 100
3, 11520, Note_on_c, 1, 72, 80
3, 11612, Note_off_c, 1, 72, 100
3, 11616, Note_on_c, 1, 70, 80
3, 11708, Note_off_c, 1, 67, 100
3, 11708, Note_off_c, 1, 70, 100
3, 11712, Note_on_c, 1, 67, 80
3, 11712, Note_on_c, 1, 71, 80
3, 11900, Note_off_c, 1, 67, 100
3, 11900, Note_off_c, 1, 71, 100
3, 12096, Note_on_c, 1, 60, 80
3, 12284, Note_off_c, 1, 60, 100
3, 12288, Note_on_c, 1, 62, 80
3, 12476, Note_off_c, 1, 62, 100
3, 12672, Note_on_c, 1, 50, 80
3, 12860, Note_off_c, 1, 50, 100
3, 12864, Note_on_c, 1, 55, 80
3, 13052, Note_off_c, 1, 55, 100
3, 13440, Note_on_c, 1, 47, 100
3, 13440, Note_on_c, 1, 35, 100
3, 14012, Note_off_c, 1, 47, 100
3, 14012, Note_off_c, 1, 35, 100
3, 14400, Note_on_c, 1, 69, 80
3, 14588, Note_off_c, 1, 69, 100
3, 14592, Note_on_c, 1, 67, 80
3, 14780, Note_off_c, 1, 67, 100
3, 14784, Note_on_c, 1, 67, 80
3, 14972, Note_off_c, 1, 67, 100
3, 14976, Note_on_c, 1, 63, 80
3, 15164, Note_off_c, 1, 63, 100
3, 15168, Note_on_c, 1, 64, 80
3, 15356, Note_off_c, 1, 64, 100
3, 15744, Note_on_c, 1, 47, 80
3, 15744, Note_on_c, 1, 35, 80
3, 16316, Note_off_c, 1, 47, 100
3, 16316, Note_off_c, 1, 35, 100
3, 16896, Note_on_c, 1, 64, 80
3, 16896, Note_on_c, 1, 67, 80
3, 17084, Note_off_c, 1, 64, 100
3, 17084, Note_off_c, 1, 67, 100
3, 17088, Note_on_c, 1, 66, 80
3, 17276, Note_off_c, 1, 66, 100
3, 17280, Note_on_c, 1, 54, 80
3, 17468, Note_off_c, 1, 54, 100
3, 17472, Note_on_c, 1, 59, 80
3, 17660, Note_off_c, 1, 59, 100
3, 18048, Note_on_c, 1, 47, 100
3, 18048, Note_on_c, 1, 35, 100
3, 18620, Note_off_c, 1, 47, 100
3, 18620, Note_off_c, 1, 35, 100
3, 19008, Note_on_c, 1, 69, 80
3, 19196, Note_off_c, 1, 69, 100
3, 19200, Note_on_c, 1, 67, 80
3, 19388, Note_off_c, 1, 67, 100
3, 19392, Note_on_c, 1, 67, 80
3, 19580, Note_off_c, 1, 67, 100
3, 19584, Note_on_c, 1, 63, 80
3, 19772, Note_off_c, 1, 63, 100
3, 19776, Note_on_c, 1, 64, 80
3, 19964, Note_off_c, 1, 64, 100
3, 20352, Note_on_c, 1, 52, 100
3, 20352, Note_on_c, 1, 40, 100
3, 20924, Note_off_c, 1, 52, 100
3, 20924, Note_off_c, 1, 40, 100
3, 21312, Note_on_c, 1, 74, 80
3, 21500, Note_off_c, 1, 74, 100
3, 21504, Note_on_c, 1, 72, 80
3, 21692, Note_off_c, 1, 72, 100
3, 21696, Note_on_c, 1, 72, 80
3, 21884, Note_off_c, 1, 72, 100
3, 21888, Note_on_c, 1, 68, 80
3, 22076, Note_off_c, 1, 68, 100
3, 22080, Note_on_c, 1, 69, 80
3, 22268, Note_off_c, 1, 69, 100
3, 22656, Note_on_c, 1, 69, 80
3, 22656, Note_on_c, 1, 62, 80
3, 22844, Note_off_c, 1, 69, 100
3, 22844, Note_off_c, 1, 62, 100
3, 23232, Note_on_c, 1, 57, 80
3, 23232, Note_on_c, 1, 50, 80
3, 23420, Note_off_c, 1, 57, 100
3, 23420, Note_off_c, 1, 50, 100
3, 26112, Note_on_c, 1, 59, 80
3, 26112, Note_on_c, 1, 55, 80
3, 26492, Note_off_c, 1, 59, 100
3, 26496, Note_on_c, 1, 60, 80
3, 26588, Note_off_c, 1, 60, 100
3, 26592, Note_on_c, 1, 58, 80
3, 26684, Note_off_c, 1, 55, 100
3, 26684, Note_off_c, 1, 58, 100
3, 26688, Note_on_c, 1, 59, 80
3, 26688, Note_on_c, 1, 55, 80
3, 26876, Note_off_c, 1, 59, 100
3, 26876, Note_off_c, 1, 55, 100
3, 28416, Note_on_c, 1, 71, 100
3, 28416, Note_on_c, 1, 62, 100
3, 28796, Note_off_c, 1, 71, 100
3, 28800, Note_on_c, 1, 69, 87
3, 28892, Note_off_c, 1, 69, 100
3, 28896, Note_on_c, 1, 66, 84
3, 28988, Note_off_c, 1, 62, 100
3, 28988, Note_off_c, 1, 66, 100
3, 28992, Note_on_c, 1, 67, 81
3, 29180, Note_off_c, 1, 67, 100
3, 29952, Note_on_c, 1, 60, 80
3, 29952, Note_on_c, 1, 57, 80
3, 29952, Note_on_c, 1, 50, 80
3, 30140, Note_off_c, 1, 60, 100
3, 30140, Note_off_c, 1, 57, 100
3, 30140, Note_off_c, 1, 50, 100
3, 30144, Note_on_c, 1, 72, 80
3, 30144, Note_on_c, 1, 69, 80
3, 30144, Note_on_c, 1, 62, 80
3, 30332, Note_off_c, 1, 72, 100
3, 30332, Note_off_c, 1, 69, 100
3, 30332, Note_off_c, 1, 62, 100
3, 31104, Note_on_c, 1, 60, 80
3, 31104, Note_on_c, 1, 57, 80
3, 31104, Note_on_c, 1, 50, 80
3, 31292, Note_off_c, 1, 60, 100
3, 31292, Note_off_c, 1, 57, 100
3, 31292, Note_off_c, 1, 50, 100
3, 31296, Note_on_c, 1, 72, 80
3, 31296, Note_on_c, 1, 69, 80
3, 31296, Note_on_c, 1, 62, 80
3, 31484, Note_off_c, 1, 72, 100
3, 31484, Note_off_c, 1, 69, 100
3, 31484, Note_off_c, 1, 62, 100
3, 32832, Note_on_c, 1, 38, 98
3, 32876, Note_off_c, 1, 38, 100
3, 32880, Note_on_c, 1, 40, 99
3, 32924, Note_off_c, 1, 40, 100
3, 32928, Note_on_c, 1, 42, 100
3, 32972, Note_off_c, 1, 42, 100
3, 32976, Note_on_c, 1, 43, 100
3, 33020, Note_off_c, 1, 43, 100
3, 33024, Note_on_c, 1, 45, 101
3, 33084, Note_off_c, 1, 45, 100
3, 33088, Note_on_c, 1, 47, 102
3, 33148, Note_off_c, 1, 47, 100
3, 33152, Note_on_c, 1, 48, 103
3, 33212, Note_off_c, 1, 48, 100
3, 33216, Note_on_c, 1, 50, 104
3, 33276, Note_off_c, 1, 50, 100
3, 33280, Note_on_c, 1, 52, 105
3, 33340, Note_off_c, 1, 52, 100
3, 33344, Note_on_c, 1, 54, 106
3, 33404, Note_off_c, 1, 54, 100
3, 33408, Note_on_c, 1, 55, 107
3, 33468, Note_off_c, 1, 55, 100
3, 33472, Note_on_c, 1, 57, 108
3, 33532, Note_off_c, 1, 57, 100
3, 33536, Note_on_c, 1, 59, 109
3, 33596, Note_off_c, 1, 59, 100
3, 33600, Note_on_c, 1, 62, 120
3, 33600, Note_on_c, 1, 60, 120
3, 34364, Note_off_c, 1, 60, 100
3, 34364, Note_off_c, 1, 62, 100
3, 35904, Note_on_c, 1, 71, 80
3, 35904, Note_on_c, 1, 67, 80
3, 36284, Note_off_c, 1, 71, 100
3, 36288, Note_on_c, 1, 72, 80
3, 36380, Note_off_c, 1, 72, 100
3, 36384, Note_on_c, 1, 70, 80
3, 36476, Note_off_c, 1, 67, 100
3, 36476, Note_off_c, 1, 70, 100
3, 36480, Note_on_c, 1, 67, 80
3, 36480, Note_on_c, 1, 71, 80
3, 36668, Note_off_c, 1, 67, 100
3, 36668, Note_off_c, 1, 71, 100
3, 36864, Note_on_c, 1, 60, 80
3, 37052, Note_off_c, 1, 60, 100
3, 37056, Note_on_c, 1, 62, 80
3, 37244, Note_off_c, 1, 62, 100
3, 37440, Note_on_c, 1, 50, 80
3, 37628, Note_off_c, 1, 50, 100
3, 37632, Note_on_c, 1, 55, 80
3, 37820, Note_off_c, 1, 55, 100
3, 38016, Note_on_c, 1, 43, 80
3, 38076, Note_off_c, 1, 43, 100
3, 38080, Note_on_c, 1, 45, 80
3, 38140, Note_off_c, 1, 45, 100
3, 38144, Note_on_c, 1, 47, 80
3, 38204, Note_off_c, 1, 47, 100
3, 38208, Note_on_c, 1, 48, 80
3, 38268, Note_off_c, 1, 48, 100
3, 38272, Note_on_c, 1, 50, 80
3, 38332, Note_off_c, 1, 50, 100
3, 38336, Note_on_c, 1, 52, 80
3, 38396, Note_off_c, 1, 52, 100
3, 38400, Note_on_c, 1, 53, 80
3, 38588, Note_off_c, 1, 53, 100
3, 38976, Note_on_c, 1, 65, 102
3, 39164, Note_off_c, 1, 65, 100
3, 39168, Note_on_c, 1, 43, 80
3, 39228, Note_off_c, 1, 43, 100
3, 39232, Note_on_c, 1, 45, 80
3, 39292, Note_off_c, 1, 45, 100
3, 39296, Note_on_c, 1, 47, 80
3, 39356, Note_off_c, 1, 47, 100
3, 39360, Note_on_c, 1, 48, 80
3, 39420, Note_off_c, 1, 48, 100
3, 39424, Note_on_c, 1, 50, 80
3, 39484, Note_off_c, 1, 50, 100
3, 39488, Note_on_c, 1, 52, 80
3, 39548, Note_off_c, 1, 52, 100
3, 39552, Note_on_c, 1, 53, 80
3, 39740, Note_off_c, 1, 53, 100
3, 40128, Note_on_c, 1, 65, 102
3, 40316, Note_off_c, 1, 65, 100
3, 40320, Note_on_c, 1, 43, 80
3, 40380, Note_off_c, 1, 43, 100
3, 40384, Note_on_c, 1, 45, 81
3, 40444, Note_off_c, 1, 45, 100
3, 40448, Note_on_c, 1, 47, 82
3, 40508, Note_off_c, 1, 47, 100
3, 40512, Note_on_c, 1, 48, 83
3, 40572, Note_off_c, 1, 48, 100
3, 40576, Note_on_c, 1, 50, 84
3, 40636, Note_off_c, 1, 50, 100
3, 40640, Note_on_c, 1, 52, 86
3, 40700, Note_off_c, 1, 52, 100
3, 40704, Note_on_c, 1, 53, 87
3, 40892, Note_off_c, 1, 53, 100
3, 41088, Note_on_c, 1, 55, 94
3, 41148, Note_off_c, 1, 55, 100
3, 41152, Note_on_c, 1, 57, 96
3, 41212, Note_off_c, 1, 57, 100
3, 41216, Note_on_c, 1, 59, 97
3, 41276, Note_off_c, 1, 59, 100
3, 41280, Note_on_c, 1, 60, 98
3, 41340, Note_off_c, 1, 60, 100
3, 41344, Note_on_c, 1, 62, 99
3, 41404, Note_off_c, 1, 62, 100
3, 41408, Note_on_c, 1, 64, 101
3, 41468, Note_off_c, 1, 64, 100
3, 41472, Note_on_c, 1, 65, 102
3, 41660, Note_off_c, 1, 65, 100
3, 42816, Note_on_c, 1, 48, 80
3, 42908, Note_off_c, 1, 48, 100
3, 42912, Note_on_c, 1, 55, 80
3, 43004, Note_off_c, 1, 55, 100
3, 43008, Note_on_c, 1, 60, 80
3, 43100, Note_off_c, 1, 60, 100
3, 43104, Note_on_c, 1, 55, 80
3, 43196, Note_off_c, 1, 55, 100
3, 43200, Note_on_c, 1, 48, 80
3, 43292, Note_off_c, 1, 48, 100
3, 43296, Note_on_c, 1, 55, 80
3, 43388, Note_off_c, 1, 55, 100
3, 43392, Note_on_c, 1, 48, 80
3, 43484, Note_off_c, 1, 48, 100
3, 43488, Note_on_c, 1, 57, 80
3, 43580, Note_off_c, 1, 57, 100
3, 43584, Note_on_c, 1, 60, 80
3, 43676, Note_off_c, 1, 60, 100
3, 43680, Note_on_c, 1, 57, 80
3, 43772, Note_off_c, 1, 57, 100
3, 43776, Note_on_c, 1, 48, 80
3, 43868, Note_off_c, 1, 48, 100
3, 43872, Note_on_c, 1, 57, 80
3, 43964, Note_off_c, 1, 57, 100
3, 43968, Note_on_c, 1, 48, 80
3, 44060, Note_off_c, 1, 48, 100
3, 44064, Note_on_c, 1, 53, 80
3, 44156, Note_off_c, 1, 53, 100
3, 44160, Note_on_c, 1, 59, 80
3, 44252, Note_off_c, 1, 59, 100
3, 44256, Note_on_c, 1, 53, 80
3, 44348, Note_off_c, 1, 53, 100
3, 44352, Note_on_c, 1, 48, 80
3, 44444, Note_off_c, 1, 48, 100
3, 44448, Note_on_c, 1, 53, 80
3, 44540, Note_off_c, 1, 53, 100
3, 44544, Note_on_c, 1, 48, 80
3, 44636, Note_off_c, 1, 48, 100
3, 44640, Note_on_c, 1, 52, 80
3, 44732, Note_off_c, 1, 52, 100
3, 44736, Note_on_c, 1, 60, 80
3, 44828, Note_off_c, 1, 60, 100
3, 44832, Note_on_c, 1, 52, 80
3, 44924, Note_off_c, 1, 52, 100
3, 44928, Note_on_c, 1, 48, 80
3, 45020, Note_off_c, 1, 48, 100
3, 45024, Note_on_c, 1, 52, 80
3, 45116, Note_off_c, 1, 52, 100
3, 45120, Note_on_c, 1, 46, 80
3, 45216, Note_on_c, 1, 52, 80
3, 45308, Note_off_c, 1, 52, 100
3, 45312, Note_on_c, 1, 55, 80
3, 45404, Note_off_c, 1, 55, 100
3, 45408, Note_on_c, 1, 52, 80
3, 45500, Note_off_c, 1, 46, 100
3, 45500, Note_off_c, 1, 52, 100
3, 45504, Note_on_c, 1, 45, 80
3, 45600, Note_on_c, 1, 52, 80
3, 45692, Note_off_c, 1, 45, 100
3, 45692, Note_off_c, 1, 52, 100
3, 45696, Note_on_c, 1, 45, 80
3, 45792, Note_on_c, 1, 50, 80
3, 45884, Note_off_c, 1, 50, 100
3, 45888, Note_on_c, 1, 53, 80
3, 45980, Note_off_c, 1, 53, 100
3, 45984, Note_on_c, 1, 50, 80
3, 46076, Note_off_c, 1, 45, 100
3, 46076, Note_off_c, 1, 50, 100
3, 46080, Note_on_c, 1, 45, 80
3, 46176, Note_on_c, 1, 50, 80
3, 46268, Note_off_c, 1, 45, 100
3, 46268, Note_off_c, 1, 50, 100
3, 46272, Note_on_c, 1, 44, 80
3, 46368, Note_on_c, 1, 50, 80
3, 46460, Note_off_c, 1, 50, 100
3, 46464, Note_on_c, 1, 53, 80
3, 46556, Note_off_c, 1, 53, 100
3, 46560, Note_on_c, 1, 50, 80
3, 46652, Note_off_c, 1, 44, 100
3, 46652, Note_off_c, 1, 50, 100
3, 46656, Note_on_c, 1, 43, 80
3, 46752, Note_on_c, 1, 50, 80
3, 46844, Note_off_c, 1, 43, 100
3, 46844, Note_off_c, 1, 50, 100
3, 46848, Note_on_c, 1, 48, 80
3, 46940, Note_off_c, 1, 48, 100
3, 46944, Note_on_c, 1, 52, 80
3, 47036, Note_off_c, 1, 52, 100
3, 47040, Note_on_c, 1, 55, 80
3, 47132, Note_off_c, 1, 55, 100
3, 47136, Note_on_c, 1, 53, 80
3, 47228, Note_off_c, 1, 53, 100
3, 47232, Note_on_c, 1, 52, 80
3, 47324, Note_off_c, 1, 52, 100
3, 47328, Note_on_c, 1, 50, 80
3, 47420, Note_off_c, 1, 50, 100
3, 47424, Note_on_c, 1, 48, 80
3, 47516, Note_off_c, 1, 48, 100
3, 47520, Note_on_c, 1, 55, 80
3, 47612, Note_off_c, 1, 55, 100
3, 47616, Note_on_c, 1, 60, 80
3, 47708, Note_off_c, 1, 60, 100
3, 47712, Note_on_c, 1, 55, 80
3, 47804, Note_off_c, 1, 55, 100
3, 47808, Note_on_c, 1, 48, 80
3, 47900, Note_off_c, 1, 48, 100
3, 47904, Note_on_c, 1, 55, 80
3, 47996, Note_off_c, 1, 55, 100
3, 48000, Note_on_c, 1, 48, 80
3, 48092, Note_off_c, 1, 48, 100
3, 48096, Note_on_c, 1, 57, 80
3, 48188, Note_off_c, 1, 57, 100
3, 48192, Note_on_c, 1, 60, 80
3, 48284, Note_off_c, 1, 60, 100
3, 48288, Note_on_c, 1, 57, 80
3, 48380, Note_off_c, 1, 57, 100
3, 48384, Note_on_c, 1, 48, 80
3, 48476, Note_off_c, 1, 48, 100
3, 48480, Note_on_c, 1, 57, 80
3, 48572, Note_off_c, 1, 57, 100
3, 48576, Note_on_c, 1, 48, 80
3, 48668, Note_off_c, 1, 48, 100
3, 48672, Note_on_c, 1, 53, 80
3, 48764, Note_off_c, 1, 53, 100
3, 48768, Note_on_c, 1, 59, 80
3, 48860, Note_off_c, 1, 59, 100
3, 48864, Note_on_c, 1, 53, 80
3, 48956, Note_off_c, 1, 53, 100
3, 48960, Note_on_c, 1, 48, 80
3, 49052, Note_off_c, 1, 48, 100
3, 49056, Note_on_c, 1, 53, 80
3, 49148, Note_off_c, 1, 53, 100
3, 49152, Note_on_c, 1, 48, 80
3, 49244, Note_off_c, 1, 48, 100
3, 49248, Note_on_c, 1, 52, 80
3, 49340, Note_off_c, 1, 52, 100
3, 49344, Note_on_c, 1, 60, 80
3, 49436, Note_off_c, 1, 60, 100
3, 49440, Note_on_c, 1, 52, 80
3, 49532, Note_off_c, 1, 52, 100
3, 49536, Note_on_c, 1, 48, 80
3, 49628, Note_off_c, 1, 48, 100
3, 49632, Note_on_c, 1, 52, 80
3, 49724, Note_off_c, 1, 52, 100
3, 49728, Note_on_c, 1, 46, 80
3, 49824, Note_on_c, 1, 52, 80
3, 49916, Note_off_c, 1, 52, 100
3, 49920, Note_on_c, 1, 55, 80
3, 50012, Note_off_c, 1, 55, 100
3, 50016, Note_on_c, 1, 52, 80
3, 50108, Note_off_c, 1, 46, 100
3, 50108, Note_off_c, 1, 52, 100
3, 50112, Note_on_c, 1, 45, 80
3, 50208, Note_on_c, 1, 52, 80
3, 50300, Note_off_c, 1, 45, 100
3, 50300, Note_off_c, 1, 52, 100
3, 50304, Note_on_c, 1, 45, 80
3, 50400, Note_on_c, 1, 50, 80
3, 50492, Note_off_c, 1, 50, 100
3, 50496, Note_on_c, 1, 53, 80
3, 50588, Note_off_c, 1, 53, 100
3, 50592, Note_on_c, 1, 50, 80
3, 50684, Note_off_c, 1, 45, 100
3, 50684, Note_off_c, 1, 50, 100
3, 50688, Note_on_c, 1, 45, 80
3, 50784, Note_on_c, 1, 50, 80
3, 50876, Note_off_c, 1, 45, 100
3, 50876, Note_off_c, 1, 50, 100
3, 50880, Note_on_c, 1, 44, 80
3, 50976, Note_on_c, 1, 50, 80
3, 51068, Note_off_c, 1, 50, 100
3, 51072, Note_on_c, 1, 53, 80
3, 51164, Note_off_c, 1, 53, 100
3, 51168, Note_on_c, 1, 50, 80
3, 51260, Note_off_c, 1, 44, 100
3, 51260, Note_off_c, 1, 50, 100
3, 51264, Note_on_c, 1, 43, 80
3, 51360, Note_on_c, 1, 50, 80
3, 51452, Note_off_c, 1, 43, 100
3, 51452, Note_off_c, 1, 50, 100
3, 51456, Note_on_c, 1, 48, 80
3, 51548, Note_off_c, 1, 48, 100
3, 51552, Note_on_c, 1, 55, 80
3, 51644, Note_off_c, 1, 55, 100
3, 51648, Note_on_c, 1, 53, 80
3, 51740, Note_off_c, 1, 53, 100
3, 51744, Note_on_c, 1, 52, 80
3, 51836, Note_off_c, 1, 52, 100
3, 51840, Note_on_c, 1, 50, 80
3, 51932, Note_off_c, 1, 50, 100
3, 51936, Note_on_c, 1, 48, 80
3, 52028, Note_off_c, 1, 48, 100
3, 52128, Note_on_c, 1, 43, 80
3, 52220, Note_off_c, 1, 43, 100
3, 52224, Note_on_c, 1, 45, 80
3, 52316, Note_off_c, 1, 45, 100
3, 52320, Note_on_c, 1, 47, 80
3, 52412, Note_off_c, 1, 47, 100
3, 52416, Note_on_c, 1, 48, 80
3, 52508, Note_off_c, 1, 48, 100
3, 52512, Note_on_c, 1, 42, 80
3, 52604, Note_off_c, 1, 42, 100
3, 52704, Note_on_c, 1, 43, 80
3, 52796, Note_off_c, 1, 43, 100
3, 52800, Note_on_c, 1, 45, 80
3, 52892, Note_off_c, 1, 45, 100
3, 52896, Note_on_c, 1, 47, 80
3, 52988, Note_off_c, 1, 47, 100
3, 52992, Note_on_c, 1, 48, 80
3, 53084, Note_off_c, 1, 48, 100
3, 53088, Note_on_c, 1, 42, 80
3, 53180, Note_off_c, 1, 42, 100
3, 53280, Note_on_c, 1, 43, 80
3, 53372, Note_off_c, 1, 43, 100
3, 53376, Note_on_c, 1, 45, 80
3, 53468, Note_off_c, 1, 45, 100
3, 53472, Note_on_c, 1, 47, 80
3, 53564, Note_off_c, 1, 47, 100
3, 53568, Note_on_c, 1, 48, 80
3, 53660, Note_off_c, 1, 48, 100
3, 53664, Note_on_c, 1, 42, 80
3, 53756, Note_off_c, 1, 42, 100
3, 53760, Note_on_c, 1, 43, 80
3, 54428, Note_off_c, 1, 43, 100
3, 54432, Note_on_c, 1, 42, 80
3, 54524, Note_off_c, 1, 42, 100
3, 54528, Note_on_c, 1, 43, 80
3, 54620, Note_off_c, 1, 43, 100
3, 54624, Note_on_c, 1, 42, 80
3, 54716, Note_off_c, 1, 42, 100
3, 54720, Note_on_c, 1, 43, 80
3, 54812, Note_off_c, 1, 43, 100
3, 54816, Note_on_c, 1, 44, 80
3, 54908, Note_off_c, 1, 44, 100
3, 54912, Note_on_c, 1, 45, 80
3, 55004, Note_off_c, 1, 45, 100
3, 55008, Note_on_c, 1, 44, 80
3, 55100, Note_off_c, 1, 44, 100
3, 55104, Note_on_c, 1, 45, 80
3, 55196, Note_off_c, 1, 45, 100
3, 55200, Note_on_c, 1, 44, 80
3, 55292, Note_off_c, 1, 44, 100
3, 55296, Note_on_c, 1, 45, 80
3, 55388, Note_off_c, 1, 45, 100
3, 55392, Note_on_c, 1, 43, 80
3, 55484, Note_off_c, 1, 43, 100
3, 55488, Note_on_c, 1, 42, 80
3, 55580, Note_off_c, 1, 42, 100
3, 55584, Note_on_c, 1, 40, 80
3, 55676, Note_off_c, 1, 40, 100
3, 55680, Note_on_c, 1, 42, 80
3, 55772, Note_off_c, 1, 42, 100
3, 55776, Note_on_c, 1, 38, 80
3, 55868, Note_off_c, 1, 38, 100
3, 55872, Note_on_c, 1, 40, 80
3, 55964, Note_off_c, 1, 40, 100
3, 55968, Note_on_c, 1, 42, 80
3, 56060, Note_off_c, 1, 42, 100
3, 56064, Note_on_c, 1, 43, 80
3, 56156, Note_off_c, 1, 43, 100
3, 56160, Note_on_c, 1, 45, 80
3, 56252, Note_off_c, 1, 45, 100
3, 56256, Note_on_c, 1, 47, 80
3, 56348, Note_off_c, 1, 47, 100
3, 56352, Note_on_c, 1, 48, 80
3, 56444, Note_off_c, 1, 48, 100
3, 56448, Note_on_c, 1, 50, 80
3, 56540, Note_off_c, 1, 50, 100
3, 56544, Note_on_c, 1, 52, 80
3, 56636, Note_off_c, 1, 52, 100
3, 56640, Note_on_c, 1, 43, 80
3, 56640, Note_on_c, 1, 53, 80
3, 57020, Note_off_c, 1, 53, 100
3, 57024, Note_on_c, 1, 51, 100
3, 57212, Note_off_c, 1, 43, 100
3, 57212, Note_off_c, 1, 51, 100
3, 57216, Note_on_c, 1, 43, 80
3, 57216, Note_on_c, 1, 50, 80
3, 57596, Note_off_c, 1, 50, 100
3, 57600, Note_on_c, 1, 51, 100
3, 57788, Note_off_c, 1, 43, 100
3, 57788, Note_off_c, 1, 51, 100
3, 57792, Note_on_c, 1, 43, 80
3, 57792, Note_on_c, 1, 50, 80
3, 58172, Note_off_c, 1, 50, 100
3, 58176, Note_on_c, 1, 51, 100
3, 58364, Note_off_c, 1, 43, 100
3, 58364, Note_off_c, 1, 51, 100
3, 58368, Note_on_c, 1, 50, 80
3, 58368, Note_on_c, 1, 43, 80
3, 58748, Note_off_c, 1, 50, 100
3, 59036, Note_off_c, 1, 43, 100
3, 59040, Note_on_c, 1, 42, 80
3, 59132, Note_off_c, 1, 42, 100
3, 59136, Note_on_c, 1, 43, 80
3, 59228, Note_off_c, 1, 43, 100
3, 59232, Note_on_c, 1, 42, 80
3, 59324, Note_off_c, 1, 42, 100
3, 59328, Note_on_c, 1, 43, 80
3, 59420, Note_off_c, 1, 43, 100
3, 59424, Note_on_c, 1, 44, 80
3, 59516, Note_off_c, 1, 44, 100
3, 59520, Note_on_c, 1, 45, 80
3, 59612, Note_off_c, 1, 45, 100
3, 59616, Note_on_c, 1, 44, 80
3, 59708, Note_off_c, 1, 44, 100
3, 59712, Note_on_c, 1, 45, 80
3, 59804, Note_off_c, 1, 45, 100
3, 59808, Note_on_c, 1, 44, 80
3, 59900, Note_off_c, 1, 44, 100
3, 59904, Note_on_c, 1, 45, 80
3, 59996, Note_off_c, 1, 45, 100
3, 60000, Note_on_c, 1, 43, 80
3, 60092, Note_off_c, 1, 43, 100
3, 60096, Note_on_c, 1, 42, 80
3, 60188, Note_off_c, 1, 42, 100
3, 60192, Note_on_c, 1, 40, 80
3, 60284, Note_off_c, 1, 40, 100
3, 60288, Note_on_c, 1, 42, 80
3, 60380, Note_off_c, 1, 42, 100
3, 60384, Note_on_c, 1, 38, 80
3, 60476, Note_off_c, 1, 38, 100
3, 60480, Note_on_c, 1, 40, 80
3, 60572, Note_off_c, 1, 40, 100
3, 60576, Note_on_c, 1, 42, 80
3, 60668, Note_off_c, 1, 42, 100
3, 60672, Note_on_c, 1, 43, 80
3, 60764, Note_off_c, 1, 43, 100
3, 60768, Note_on_c, 1, 45, 80
3, 60860, Note_off_c, 1, 45, 100
3, 60864, Note_on_c, 1, 47, 80
3, 60956, Note_off_c, 1, 47, 100
3, 60960, Note_on_c, 1, 48, 80
3, 61052, Note_off_c, 1, 48, 100
3, 61056, Note_on_c, 1, 50, 80
3, 61148, Note_off_c, 1, 50, 100
3, 61152, Note_on_c, 1, 52, 80
3, 61244, Note_off_c, 1, 52, 100
3, 61248, Note_on_c, 1, 54, 80
3, 61340, Note_off_c, 1, 54, 100
3, 61344, Note_on_c, 1, 52, 80
3, 61436, Note_off_c, 1, 52, 100
3, 61440, Note_on_c, 1, 54, 80
3, 61532, Note_off_c, 1, 54, 100
3, 61536, Note_on_c, 1, 50, 80
3, 61628, Note_off_c, 1, 50, 100
3, 61632, Note_on_c, 1, 52, 80
3, 61724, Note_off_c, 1, 52, 100
3, 61728, Note_on_c, 1, 54, 80
3, 61820, Note_off_c, 1, 54, 100
3, 61824, Note_on_c, 1, 55, 80
3, 61916, Note_off_c, 1, 55, 100
3, 61920, Note_on_c, 1, 57, 80
3, 62012, Note_off_c, 1, 57, 100
3, 62016, Note_on_c, 1, 59, 80
3, 62108, Note_off_c, 1, 59, 100
3, 62112, Note_on_c, 1, 60, 80
3, 62204, Note_off_c, 1, 60, 100
3, 62208, Note_on_c, 1, 62, 80
3, 62300, Note_off_c, 1, 62, 100
3, 62304, Note_on_c, 1, 64, 80
3, 62396, Note_off_c, 1, 64, 100
3, 62400, Note_on_c, 1, 66, 80
3, 62492, Note_off_c, 1, 66, 100
3, 62496, Note_on_c, 1, 64, 80
3, 62588, Note_off_c, 1, 64, 100
3, 62592, Note_on_c, 1, 66, 80
3, 62684, Note_off_c, 1, 66, 100
3, 62688, Note_on_c, 1, 62, 80
3, 62780, Note_off_c, 1, 62, 100
3, 62784, Note_on_c, 1, 64, 80
3, 62876, Note_off_c, 1, 64, 100
3, 62880, Note_on_c, 1, 66, 80
3, 62972, Note_off_c, 1, 66, 100
3, 62976, Note_on_c, 1, 67, 80
3, 63356, Note_off_c, 1, 67, 100
3, 63552, Note_on_c, 1, 48, 80
3, 63644, Note_off_c, 1, 48, 100
3, 63648, Note_on_c, 1, 55, 80
3, 63740, Note_off_c, 1, 55, 100
3, 63744, Note_on_c, 1, 60, 80
3, 63836, Note_off_c, 1, 60, 100
3, 63840, Note_on_c, 1, 55, 80
3, 63932, Note_off_c, 1, 55, 100
3, 63936, Note_on_c, 1, 48, 80
3, 64028, Note_off_c, 1, 48, 100
3, 64032, Note_on_c, 1, 55, 80
3, 64124, Note_off_c, 1, 55, 100
3, 64128, Note_on_c, 1, 48, 80
3, 64220, Note_off_c, 1, 48, 100
3, 64224, Note_on_c, 1, 57, 80
3, 64316, Note_off_c, 1, 57, 100
3, 64320, Note_on_c, 1, 60, 80
3, 64412, Note_off_c, 1, 60, 100
3, 64416, Note_on_c, 1, 57, 80
3, 64508, Note_off_c, 1, 57, 100
3, 64512, Note_on_c, 1, 48, 80
3, 64604, Note_off_c, 1, 48, 100
3, 64608, Note_on_c, 1, 57, 80
3, 64700, Note_off_c, 1, 57, 100
3, 64704, Note_on_c, 1, 48, 80
3, 64796, Note_off_c, 1, 48, 100
3, 64800, Note_on_c, 1, 53, 80
3, 64892, Note_off_c, 1, 53, 100
3, 64896, Note_on_c, 1, 59, 80
3, 64988, Note_off_c, 1, 59, 100
3, 64992, Note_on_c, 1, 53, 80
3, 65084, Note_off_c, 1, 53, 100
3, 65088, Note_on_c, 1, 48, 80
3, 65180, Note_off_c, 1, 48, 100
3, 65184, Note_on_c, 1, 53, 80
3, 65276, Note_off_c, 1, 53, 100
3, 65280, Note_on_c, 1, 48, 80
3, 65372, Note_off_c, 1, 48, 100
3, 65376, Note_on_c, 1, 52, 80
3, 65468, Note_off_c, 1, 52, 100
3, 65472, Note_on_c, 1, 60, 80
3, 65564, Note_off_c, 1, 60, 100
3, 65568, Note_on_c, 1, 52, 80
3, 65660, Note_off_c, 1, 52, 100
3, 65664, Note_on_c, 1, 48, 80
3, 65756, Note_off_c, 1, 48, 100
3, 65760, Note_on_c, 1, 52, 80
3, 65852, Note_off_c, 1, 52, 100
3, 65856, Note_on_c, 1, 46, 80
3, 65952, Note_on_c, 1, 52, 80
3, 66044, Note_off_c, 1, 52, 100
3, 66048, Note_on_c, 1, 55, 80
3, 66140, Note_off_c, 1, 55, 100
3, 66144, Note_on_c, 1, 52, 80
3, 66236, Note_off_c, 1, 46, 100
3, 66236, Note_off_c, 1, 52, 100
3, 66240, Note_on_c, 1, 45, 80
3, 66336, Note_on_c, 1, 52, 80
3, 66428, Note_off_c, 1, 45, 100
3, 66428, Note_off_c, 1, 52, 100
3, 66432, Note_on_c, 1, 45, 80
3, 66528, Note_on_c, 1, 50, 80
3, 66620, Note_off_c, 1, 50, 100
3, 66624, Note_on_c, 1, 53, 80
3, 66716, Note_off_c, 1, 53, 100
3, 66720, Note_on_c, 1, 50, 80
3, 66812, Note_off_c, 1, 45, 100
3, 66812, Note_off_c, 1, 50, 100
3, 66816, Note_on_c, 1, 45, 80
3, 66912, Note_on_c, 1, 50, 80
3, 67004, Note_off_c, 1, 45, 100
3, 67004, Note_off_c, 1, 50, 100
3, 67008, Note_on_c, 1, 44, 80
3, 67104, Note_on_c, 1, 50, 80
3, 67196, Note_off_c, 1, 50, 100
3, 67200, Note_on_c, 1, 53, 80
3, 67292, Note_off_c, 1, 53, 100
3, 67296, Note_on_c, 1, 50, 80
3, 67388, Note_off_c, 1, 44, 100
3, 67388, Note_off_c, 1, 50, 100
3, 67392, Note_on_c, 1, 43, 80
3, 67488, Note_on_c, 1, 50, 80
3, 67580, Note_off_c, 1, 43, 100
3, 67580, Note_off_c, 1, 50, 100
3, 67584, Note_on_c, 1, 48, 80
3, 67676, Note_off_c, 1, 48, 100
3, 67680, Note_on_c, 1, 52, 80
3, 67772, Note_off_c, 1, 52, 100
3, 67776, Note_on_c, 1, 55, 80
3, 67868, Note_off_c, 1, 55, 100
3, 67872, Note_on_c, 1, 52, 80
3, 67964, Note_off_c, 1, 52, 100
3, 67968, Note_on_c, 1, 48, 80
3, 68060, Note_off_c, 1, 48, 100
3, 68064, Note_on_c, 1, 52, 80
3, 68156, Note_off_c, 1, 52, 100
3, 68160, Note_on_c, 1, 46, 80
3, 68256, Note_on_c, 1, 52, 80
3, 68348, Note_off_c, 1, 52, 100
3, 68352, Note_on_c, 1, 55, 80
3, 68444, Note_off_c, 1, 55, 100
3, 68448, Note_on_c, 1, 52, 80
3, 68540, Note_off_c, 1, 46, 100
3, 68540, Note_off_c, 1, 52, 100
3, 68544, Note_on_c, 1, 45, 80
3, 68640, Note_on_c, 1, 52, 80
3, 68732, Note_off_c, 1, 45, 100
3, 68732, Note_off_c, 1, 52, 100
3, 68736, Note_on_c, 1, 45, 80
3, 68832, Note_on_c, 1, 50, 80
3, 68924, Note_off_c, 1, 50, 100
3, 68928, Note_on_c, 1, 53, 80
3, 69020, Note_off_c, 1, 53, 100
3, 69024, Note_on_c, 1, 50, 80
3, 69116, Note_off_c, 1, 45, 100
3, 69116, Note_off_c, 1, 50, 100
3, 69120, Note_on_c, 1, 45, 80
3, 69216, Note_on_c, 1, 50, 80
3, 69308, Note_off_c, 1, 45, 100
3, 69308, Note_off_c, 1, 50, 100
3, 69312, Note_on_c, 1, 44, 80
3, 69408, Note_on_c, 1, 50, 80
3, 69500, Note_off_c, 1, 50, 100
3, 69504, Note_on_c, 1, 53, 80
3, 69596, Note_off_c, 1, 53, 100
3, 69600, Note_on_c, 1, 50, 80
3, 69692, Note_off_c, 1, 44, 100
3, 69692, Note_off_c, 1, 50, 100
3, 69696, Note_on_c, 1, 43, 80
3, 69792, Note_on_c, 1, 50, 80
3, 69884, Note_off_c, 1, 43, 100
3, 69884, Note_off_c, 1, 50, 100
3, 69888, Note_on_c, 1, 48, 80
3, 69980, Note_off_c, 1, 48, 100
3, 69984, Note_on_c, 1, 52, 80
3, 70076, Note_off_c, 1, 52, 100
3, 70080, Note_on_c, 1, 55, 80
3, 70172, Note_off_c, 1, 55, 100
3, 70176, Note_on_c, 1, 52, 80
3, 70268, Note_off_c, 1, 52, 100
3, 70272, Note_on_c, 1, 50, 80
3, 70364, Note_off_c, 1, 50, 100
3, 70368, Note_on_c, 1, 48, 80
3, 70460, Note_off_c, 1, 48, 100
3, 70464, Note_on_c, 1, 43, 80
3, 70556, Note_off_c, 1, 43, 100
3, 70560, Note_on_c, 1, 50, 80
3, 70652, Note_off_c, 1, 50, 100
3, 70656, Note_on_c, 1, 53, 80
3, 70748, Note_off_c, 1, 53, 100
3, 70752, Note_on_c, 1, 50, 80
3, 70844, Note_off_c, 1, 50, 100
3, 70848, Note_on_c, 1, 43, 80
3, 70940, Note_off_c, 1, 43, 100
3, 70944, Note_on_c, 1, 50, 80
3, 71036, Note_off_c, 1, 50, 100
3, 71040, Note_on_c, 1, 48, 80
3, 71132, Note_off_c, 1, 48, 100
3, 71136, Note_on_c, 1, 52, 80
3, 71228, Note_off_c, 1, 52, 100
3, 71232, Note_on_c, 1, 55, 80
3, 71324, Note_off_c, 1, 55, 100
3, 71328, Note_on_c, 1, 52, 80
3, 71420, Note_off_c, 1, 52, 100
3, 71424, Note_on_c, 1, 50, 80
3, 71516, Note_off_c, 1, 50, 100
3, 71520, Note_on_c, 1, 48, 80
3, 71612, Note_off_c, 1, 48, 100
3, 71616, Note_on_c, 1, 43, 80
3, 71708, Note_off_c, 1, 43, 100
3, 71712, Note_on_c, 1, 50, 80
3, 71804, Note_off_c, 1, 50, 100
3, 71808, Note_on_c, 1, 53, 80
3, 71900, Note_off_c, 1, 53, 100
3, 71904, Note_on_c, 1, 50, 80
3, 71996, Note_off_c, 1, 50, 100
3, 72000, Note_on_c, 1, 43, 80
3, 72092, Note_off_c, 1, 43, 100
3, 72096, Note_on_c, 1, 50, 80
3, 72188, Note_off_c, 1, 50, 100
3, 72192, Note_on_c, 1, 48, 80
3, 72192, Note_on_c, 1, 52, 80
3, 72380, Note_off_c, 1, 48, 100
3, 72380, Note_off_c, 1, 52, 100
3, 73920, Note_on_c, 1, 64, 80
3, 73920, Note_on_c, 1, 60, 80
3, 74300, Note_off_c, 1, 64, 100
3, 74304, Note_on_c, 1, 65, 80
3, 74396, Note_off_c, 1, 65, 100
3, 74400, Note_on_c, 1, 63, 80
3, 74492, Note_off_c, 1, 60, 100
3, 74492, Note_off_c, 1, 63, 100
3, 74496, Note_on_c, 1, 60, 80
3, 74496, Note_on_c, 1, 64, 80
3, 74684, Note_off_c, 1, 60, 100
3, 74684, Note_off_c, 1, 64, 100
3, 76224, Note_on_c, 1, 64, 110
3, 76604, Note_off_c, 1, 64, 100
3, 76608, Note_on_c, 1, 62, 101
3, 76700, Note_off_c, 1, 62, 100
3, 76704, Note_on_c, 1, 59, 98
3, 76796, Note_off_c, 1, 59, 100
3, 76800, Note_on_c, 1, 60, 96
3, 76988, Note_off_c, 1, 60, 100
3, 77184, Note_on_c, 1, 59, 86
3, 77276, Note_off_c, 1, 59, 100
3, 77280, Note_on_c, 1, 56, 83
3, 77372, Note_off_c, 1, 56, 100
3, 77376, Note_on_c, 1, 57, 81
3, 77564, Note_off_c, 1, 57, 100
3, 77760, Note_on_c, 1, 55, 80
3, 77852, Note_off_c, 1, 55, 100
3, 77856, Note_on_c, 1, 52, 80
3, 77948, Note_off_c, 1, 52, 100
3, 77952, Note_on_c, 1, 54, 80
3, 78140, Note_off_c, 1, 54, 100
3, 78336, Note_on_c, 1, 52, 80
3, 78428, Note_off_c, 1, 52, 100
3, 78432, Note_on_c, 1, 49, 80
3, 78524, Note_off_c, 1, 49, 100
3, 78528, Note_on_c, 1, 50, 80
3, 78716, Note_off_c, 1, 50, 100
3, 78912, Note_on_c, 1, 40, 80
3, 79004, Note_off_c, 1, 40, 100
3, 79008, Note_on_c, 1, 37, 80
3, 79100, Note_off_c, 1, 37, 100
3, 79104, Note_on_c, 1, 38, 80
3, 79292, Note_off_c, 1, 38, 100
3, 79488, Note_on_c, 1, 40, 80
3, 79580, Note_off_c, 1, 40, 100
3, 79584, Note_on_c, 1, 37, 80
3, 79676, Note_off_c, 1, 37, 100
3, 79680, Note_on_c, 1, 38, 80
3, 81212, Note_off_c, 1, 38, 100
3, 82560, Note_on_c, 1, 59, 80
3, 82560, Note_on_c, 1, 55, 80
3, 82940, Note_off_c, 1, 59, 100
3, 82944, Note_on_c, 1, 60, 80
3, 83036, Note_off_c, 1, 60, 100
3, 83040, Note_on_c, 1, 58, 80
3, 83132, Note_off_c, 1, 55, 100
3, 83132, Note_off_c, 1, 58, 100
3, 83136, Note_on_c, 1, 59, 80
3, 83136, Note_on_c, 1, 55, 80
3, 83324, Note_off_c, 1, 59, 100
3, 83324, Note_off_c, 1, 55, 100
3, 84864, Note_on_c, 1, 71, 100
3, 84864, Note_on_c, 1, 62, 100
3, 85244, Note_off_c, 1, 71, 100
3, 85248, Note_on_c, 1, 69, 87
3, 85340, Note_off_c, 1, 69, 100
3, 85344, Note_on_c, 1, 66, 84
3, 85436, Note_off_c, 1, 62, 100
3, 85436, Note_off_c, 1, 66, 100
3, 85440, Note_on_c, 1, 67, 81
3, 85628, Note_off_c, 1, 67, 100
3, 86400, Note_on_c, 1, 60, 80
3, 86400, Note_on_c, 1, 57, 80
3, 86400, Note_on_c, 1, 50, 80
3, 86588, Note_off_c, 1, 60, 100
3, 86588, Note_off_c, 1, 57, 100
3, 86588, Note_off_c, 1, 50, 100
3, 86592, Note_on_c, 1, 72, 80
3, 86592, Note_on_c, 1, 69, 80
3, 86592, Note_on_c, 1, 62, 80
3, 86780, Note_off_c, 1, 72, 100
3, 86780, Note_off_c, 1, 69, 100
3, 86780, Note_off_c, 1, 62, 100
3, 87552, Note_on_c, 1, 60, 80
3, 87552, Note_on_c, 1, 57, 80
3, 87552, Note_on_c, 1, 50, 80
3, 87740, Note_off_c, 1, 60, 100
3, 87740, Note_off_c, 1, 57, 100
3, 87740, Note_off_c, 1, 50, 100
3, 87744, Note_on_c, 1, 72, 80
3, 87744, Note_on_c, 1, 69, 80
3, 87744, Note_on_c, 1, 62, 80
3, 87932, Note_off_c, 1, 72, 100
3, 87932, Note_off_c, 1, 69, 100
3, 87932, Note_off_c, 1, 62, 100
3, 89280, Note_on_c, 1, 38, 87
3, 89324, Note_off_c, 1, 38, 100
3, 89328, Note_on_c, 1, 40, 88
3, 89372, Note_off_c, 1, 40, 100
3, 89376, Note_on_c, 1, 42, 89
3, 89420, Note_off_c, 1, 42, 100
3, 89424, Note_on_c, 1, 43, 90
3, 89468, Note_off_c, 1, 43, 100
3, 89472, Note_on_c, 1, 45, 91
3, 89532, Note_off_c, 1, 45, 100
3, 89536, Note_on_c, 1, 47, 93
3, 89596, Note_off_c, 1, 47, 100
3, 89600, Note_on_c, 1, 48, 94
3, 89660, Note_off_c, 1, 48, 100
3, 89664, Note_on_c, 1, 50, 95
3, 89724, Note_off_c, 1, 50, 100
3, 89728, Note_on_c, 1, 52, 97
3, 89788, Note_off_c, 1, 52, 100
3, 89792, Note_on_c, 1, 54, 98
3, 89852, Note_off_c, 1, 54, 100
3, 89856, Note_on_c, 1, 55, 99
3, 89916, Note_off_c, 1, 55, 100
3, 89920, Note_on_c, 1, 57, 80
3, 89980, Note_off_c, 1, 57, 100
3, 89984, Note_on_c, 1, 59, 80
3, 90044, Note_off_c, 1, 59, 100
3, 90048, Note_on_c, 1, 62, 110
3, 90048, Note_on_c, 1, 60, 110
3, 90812, Note_off_c, 1, 60, 100
3, 90812, Note_off_c, 1, 62, 100
3, 92352, Note_on_c, 1, 71, 80
3, 92352, Note_on_c, 1, 67, 80
3, 92732, Note_off_c, 1, 71, 100
3, 92736, Note_on_c, 1, 72, 80
3, 92828, Note_off_c, 1, 72, 100
3, 92832, Note_on_c, 1, 70, 80
3, 92924, Note_off_c, 1, 67, 100
3, 92924, Note_off_c, 1, 70, 100
3, 92928, Note_on_c, 1, 67, 80
3, 92928, Note_on_c, 1, 71, 80
3, 93116, Note_off_c, 1, 67, 100
3, 93116, Note_off_c, 1, 71, 100
3, 93312, Note_on_c, 1, 60, 80
3, 93500, Note_off_c, 1, 60, 100
3, 93504, Note_on_c, 1, 62, 80
3, 93692, Note_off_c, 1, 62, 100
3, 93888, Note_on_c, 1, 50, 80
3, 94076, Note_off_c, 1, 50, 100
3, 94080, Note_on_c, 1, 55, 80
3, 94268, Note_off_c, 1, 55, 100
3, 94464, Note_on_c, 1, 50, 80
3, 94524, Note_off_c, 1, 50, 100
3, 94528, Note_on_c, 1, 52, 80
3, 94588, Note_off_c, 1, 52, 100
3, 94592, Note_on_c, 1, 54, 80
3, 94652, Note_off_c, 1, 54, 100
3, 94656, Note_on_c, 1, 55, 80
3, 94716, Note_off_c, 1, 55, 100
3, 94720, Note_on_c, 1, 57, 80
3, 94780, Note_off_c, 1, 57, 100
3, 94784, Note_on_c, 1, 59, 80
3, 94844, Note_off_c, 1, 59, 100
3, 94848, Note_on_c, 1, 60, 80
3, 95036, Note_off_c, 1, 60, 100
3, 95424, Note_on_c, 1, 72, 102
3, 95612, Note_off_c, 1, 72, 100
3, 95616, Note_on_c, 1, 50, 80
3, 95676, Note_off_c, 1, 50, 100
3, 95680, Note_on_c, 1, 52, 80
3, 95740, Note_off_c, 1, 52, 100
3, 95744, Note_on_c, 1, 54, 80
3, 95804, Note_off_c, 1, 54, 100
3, 95808, Note_on_c, 1, 55, 80
3, 95868, Note_off_c, 1, 55, 100
3, 95872, Note_on_c, 1, 57, 80
3, 95932, Note_off_c, 1, 57, 100
3, 95936, Note_on_c, 1, 59, 80
3, 95996, Note_off_c, 1, 59, 100
3, 96000, Note_on_c, 1, 60, 80
3, 96188, Note_off_c, 1, 60, 100
3, 96576, Note_on_c, 1, 72, 103
3, 96764, Note_off_c, 1, 72, 100
3, 96768, Note_on_c, 1, 50, 80
3, 96828, Note_off_c, 1, 50, 100
3, 96832, Note_on_c, 1, 52, 80
3, 96892, Note_off_c, 1, 52, 100
3, 96896, Note_on_c, 1, 54, 80
3, 96956, Note_off_c, 1, 54, 100
3, 96960, Note_on_c, 1, 55, 80
3, 97020, Note_off_c, 1, 55, 100
3, 97024, Note_on_c, 1, 57, 80
3, 97084, Note_off_c, 1, 57, 100
3, 97088, Note_on_c, 1, 59, 80
3, 97148, Note_off_c, 1, 59, 100
3, 97152, Note_on_c, 1, 60, 80
3, 97340, Note_off_c, 1, 60, 100
3, 97536, Note_on_c, 1, 62, 80
3, 97596, Note_off_c, 1, 62, 100
3, 97600, Note_on_c, 1, 64, 80
3, 97660, Note_off_c, 1, 64, 100
3, 97664, Note_on_c, 1, 66, 80
3, 97724, Note_off_c, 1, 66, 100
3, 97728, Note_on_c, 1, 67, 80
3, 97788, Note_off_c, 1, 67, 100
3, 97792, Note_on_c, 1, 69, 80
3, 97852, Note_off_c, 1, 69, 100
3, 97856, Note_on_c, 1, 71, 80
3, 97916, Note_off_c, 1, 71, 100
3, 97920, Note_on_c, 1, 72, 80
3, 98108, Note_off_c, 1, 72, 100
3, 99264, Note_on_c, 1, 63, 80
3, 99324, Note_off_c, 1, 63, 100
3, 99328, Note_on_c, 1, 64, 80
3, 99388, Note_off_c, 1, 64, 100
3, 99392, Note_on_c, 1, 66, 80
3, 99452, Note_off_c, 1, 66, 100
3, 99456, Note_on_c, 1, 67, 80
3, 99516, Note_off_c, 1, 67, 100
3, 99520, Note_on_c, 1, 69, 79
3, 99580, Note_off_c, 1, 69, 100
3, 99584, Note_on_c, 1, 71, 79
3, 99644, Note_off_c, 1, 71, 100
3, 99648, Note_on_c, 1, 72, 79
3, 99836, Note_off_c, 1, 72, 100
3, 100416, Note_on_c, 1, 64, 75
3, 100476, Note_off_c, 1, 64, 100
3, 100480, Note_on_c, 1, 66, 75
3, 100540, Note_off_c, 1, 66, 100
3, 100544, Note_on_c, 1, 68, 74
3, 100604, Note_off_c, 1, 68, 100
3, 100608, Note_on_c, 1, 69, 74
3, 100668, Note_off_c, 1, 69, 100
3, 100672, Note_on_c, 1, 70, 74
3, 100732, Note_off_c, 1, 70, 100
3, 100736, Note_on_c, 1, 71, 74
3, 100796, Note_off_c, 1, 71, 100
3, 100800, Note_on_c, 1, 72, 73
3, 100988, Note_off_c, 1, 72, 100
3, 103872, Note_on_c, 1, 69, 80
3, 103872, Note_on_c, 1, 65, 80
3, 104252, Note_off_c, 1, 69, 100
3, 104256, Note_on_c, 1, 70, 80
3, 104348, Note_off_c, 1, 70, 100
3, 104352, Note_on_c, 1, 68, 80
3, 104444, Note_off_c, 1, 65, 100
3, 104444, Note_off_c, 1, 68, 100
3, 104448, Note_on_c, 1, 69, 80
3, 104448, Note_on_c, 1, 66, 80
3, 104636, Note_off_c, 1, 69, 100
3, 104636, Note_off_c, 1, 66, 100
3, 106176, Note_on_c, 1, 69, 70
3, 106176, Note_on_c, 1, 65, 70
3, 106556, Note_off_c, 1, 69, 100
3, 106560, Note_on_c, 1, 70, 70
3, 106652, Note_off_c, 1, 70, 100
3, 106656, Note_on_c, 1, 68, 70
3, 106748, Note_off_c, 1, 65, 100
3, 106748, Note_off_c, 1, 68, 100
3, 106752, Note_on_c, 1, 69, 70
3, 106752, Note_on_c, 1, 64, 70
3, 107132, Note_off_c, 1, 69, 100
3, 107136, Note_on_c, 1, 71, 74
3, 107228, Note_off_c, 1, 71, 100
3, 107232, Note_on_c, 1, 68, 76
3, 107324, Note_off_c, 1, 64, 100
3, 107324, Note_off_c, 1, 68, 100
3, 107328, Note_on_c, 1, 69, 77
3, 107328, Note_on_c, 1, 63, 77
3, 107708, Note_off_c, 1, 69, 100
3, 107712, Note_on_c, 1, 71, 82
3, 107804, Note_off_c, 1, 71, 100
3, 107808, Note_on_c, 1, 68, 83
3, 107900, Note_off_c, 1, 63, 100
3, 107900, Note_off_c, 1, 68, 100
3, 107904, Note_on_c, 1, 69, 84
3, 107904, Note_on_c, 1, 62, 84
3, 108092, Note_off_c, 1, 69, 100
3, 108096, Note_on_c, 1, 69, 87
3, 108284, Note_off_c, 1, 69, 100
3, 108288, Note_on_c, 1, 69, 89
3, 108476, Note_off_c, 1, 62, 100
3, 108476, Note_off_c, 1, 69, 100
3, 108480, Note_on_c, 1, 67, 80
3, 108668, Note_off_c, 1, 67, 100
3, 109056, Note_on_c, 1, 69, 80
3, 109056, Note_on_c, 1, 67, 80
3, 109056, Note_on_c, 1, 61, 80
3, 109244, Note_off_c, 1, 69, 100
3, 109244, Note_off_c, 1, 67, 100
3, 109244, Note_off_c, 1, 61, 100
3, 109632, Note_on_c, 1, 71, 80
3, 109632, Note_on_c, 1, 67, 80
3, 109632, Note_on_c, 1, 62, 80
3, 109820, Note_off_c, 1, 71, 100
3, 109820, Note_off_c, 1, 67, 100
3, 109820, Note_off_c, 1, 62, 100
3, 110208, Note_on_c, 1, 60, 80
3, 110208, Note_on_c, 1, 57, 80
3, 110208, Note_on_c, 1, 50, 80
3, 110396, Note_off_c, 1, 60, 100
3, 110396, Note_off_c, 1, 57, 100
3, 110396, Note_off_c, 1, 50, 100
3, 110784, Note_on_c, 1, 43, 80
3, 110972, Note_off_c, 1, 43, 100
3, 111360, Note_on_c, 1, 67, 90
3, 111932, Note_off_c, 1, 67, 100
3, 111936, Note_on_c, 1, 66, 90
3, 112124, Note_off_c, 1, 66, 100
3, 112128, Note_on_c, 1, 74, 90
3, 112316, Note_off_c, 1, 74, 100
3, 112320, Note_on_c, 1, 74, 90
3, 112508, Note_off_c, 1, 74, 100
3, 112512, Note_on_c, 1, 42, 90
3, 113084, Note_off_c, 1, 42, 100
3, 113088, Note_on_c, 1, 43, 90
3, 113276, Note_off_c, 1, 43, 100
3, 113280, Note_on_c, 1, 50, 90
3, 113468, Note_off_c, 1, 50, 100
3, 113472, Note_on_c, 1, 50, 90
3, 113660, Note_off_c, 1, 50, 100
3, 113664, Note_on_c, 1, 67, 90
3, 114236, Note_off_c, 1, 67, 100
3, 114240, Note_on_c, 1, 66, 90
3, 114428, Note_off_c, 1, 66, 100
3, 114432, Note_on_c, 1, 76, 90
3, 114620, Note_off_c, 1, 76, 100
3, 114624, Note_on_c, 1, 74, 90
3, 114812, Note_off_c, 1, 74, 100
3, 114816, Note_on_c, 1, 42, 90
3, 115388, Note_off_c, 1, 42, 100
3, 115392, Note_on_c, 1, 43, 90
3, 115580, Note_off_c, 1, 43, 100
3, 115584, Note_on_c, 1, 52, 106
3, 115772, Note_off_c, 1, 52, 100
3, 115776, Note_on_c, 1, 50, 90
3, 115964, Note_off_c, 1, 50, 100
3, 115968, Note_on_c, 1, 66, 90
3, 116156, Note_off_c, 1, 66, 100
3, 116160, Note_on_c, 1, 76, 106
3, 116348, Note_off_c, 1, 76, 100
3, 116352, Note_on_c, 1, 74, 90
3, 116540, Note_off_c, 1, 74, 100
3, 116544, Note_on_c, 1, 43, 90
3, 116732, Note_off_c, 1, 43, 100
3, 116736, Note_on_c, 1, 52, 106
3, 116924, Note_off_c, 1, 52, 100
3, 116928, Note_on_c, 1, 50, 90
3, 117116, Note_off_c, 1, 50, 100
3, 117120, Note_on_c, 1, 66, 90
3, 117308, Note_off_c, 1, 66, 100
3, 117312, Note_on_c, 1, 76, 106
3, 117500, Note_off_c, 1, 76, 100
3, 117504, Note_on_c, 1, 74, 90
3, 117692, Note_off_c, 1, 74, 100
3, 118080, Note_on_c, 1, 55, 80
3, 118268, Note_off_c, 1, 55, 100
3, 118272, Note_on_c, 1, 57, 80
3, 118460, Note_off_c, 1, 57, 100
3, 118464, Note_on_c, 1, 59, 80
3, 118652, Note_off_c, 1, 59, 100
3, 118656, Note_on_c, 1, 60, 80
3, 118844, Note_off_c, 1, 60, 100
3, 118848, Note_on_c, 1, 62, 80
3, 119036, Note_off_c, 1, 62, 100
3, 119040, Note_on_c, 1, 64, 80
3, 119228, Note_off_c, 1, 64, 100
3, 119232, Note_on_c, 1, 66, 80
3, 119420, Note_off_c, 1, 66, 100
3, 119424, Note_on_c, 1, 67, 80
3, 119612, Note_off_c, 1, 67, 100
3, 119616, Note_on_c, 1, 54, 83
3, 119804, Note_off_c, 1, 54, 100
3, 119808, Note_on_c, 1, 55, 86
3, 119996, Note_off_c, 1, 55, 100
3, 120000, Note_on_c, 1, 56, 90
3, 120188, Note_off_c, 1, 56, 100
3, 120192, Note_on_c, 1, 57, 93
3, 120380, Note_off_c, 1, 57, 100
3, 120384, Note_on_c, 1, 58, 97
3, 120572, Note_off_c, 1, 58, 100
3, 120576, Note_on_c, 1, 59, 100
3, 120764, Note_off_c, 1, 59, 100
3, 120768, Note_on_c, 1, 67, 104
3, 120768, Note_on_c, 1, 59, 104
3, 120956, Note_off_c, 1, 67, 100
3, 120956, Note_off_c, 1, 59, 100
3, 120960, Note_on_c, 1, 67, 107
3, 120960, Note_on_c, 1, 60, 107
3, 121148, Note_off_c, 1, 67, 100
3, 121148, Note_off_c, 1, 60, 100
3, 121152, Note_on_c, 1, 67, 111
3, 121152, Note_on_c, 1, 59, 111
3, 121340, Note_off_c, 1, 67, 100
3, 121340, Note_off_c, 1, 59, 100
3, 121344, Note_on_c, 1, 67, 114
3, 121344, Note_on_c, 1, 60, 114
3, 121532, Note_off_c, 1, 67, 100
3, 121532, Note_off_c, 1, 60, 100
3, 121536, Note_on_c, 1, 67, 118
3, 121536, Note_on_c, 1, 59, 118
3, 121724, Note_off_c, 1, 67, 100
3, 121724, Note_off_c, 1, 59, 100
3, 121728, Note_on_c, 1, 67, 120
3, 121728, Note_on_c, 1, 60, 120
3, 121916, Note_off_c, 1, 67, 100
3, 121916, Note_off_c, 1, 60, 100
3, 121920, Note_on_c, 1, 67, 120
3, 121920, Note_on_c, 1, 59, 120
3, 122108, Note_off_c, 1, 67, 100
3, 122108, Note_off_c, 1, 59, 100
3, 122112, Note_on_c, 1, 67, 120
3, 122112, Note_on_c, 1, 60, 120
3, 122300, Note_off_c, 1, 67, 100
3, 122300, Note_off_c, 1, 60, 100
3, 122304, Note_on_c, 1, 60, 120
3, 122304, Note_on_c, 1, 67, 120
3, 122492, Note_off_c, 1, 60, 100
3, 122492, Note_off_c, 1, 67, 100
3, 122880, Note_on_c, 1, 69, 80
3, 122880, Note_on_c, 1, 67, 80
3, 122880, Note_on_c, 1, 61, 80
3, 123068, Note_off_c, 1, 69, 100
3, 123068, Note_off_c, 1, 67, 100
3, 123068, Note_off_c, 1, 61, 100
3, 123456, Note_on_c, 1, 67, 80
3, 123456, Note_on_c, 1, 62, 80
3, 123456, Note_on_c, 1, 71, 80
3, 123644, Note_off_c, 1, 67, 100
3, 123644, Note_off_c, 1, 62, 100
3, 123644, Note_off_c, 1, 71, 100
3, 124032, Note_on_c, 1, 60, 80
3, 124032, Note_on_c, 1, 57, 80
3, 124032, Note_on_c, 1, 50, 80
3, 124220, Note_off_c, 1, 60, 100
3, 124220, Note_off_c, 1, 57, 100
3, 124220, Note_off_c, 1, 50, 100
3, 124608, Note_on_c, 1, 55, 80
3, 124672, Note_on_c, 1, 59, 80
3, 124724, Note_off_c, 1, 55, 100
3, 124736, Note_on_c, 1, 62, 80
3, 124784, Note_off_c, 1, 59, 100
3, 124800, Note_on_c, 1, 55, 80
3, 124850, Note_off_c, 1, 62, 100
3, 124864, Note_on_c, 1, 59, 80
3, 124906, Note_off_c, 1, 55, 100
3, 124928, Note_on_c, 1, 62, 80
3, 124964, Note_off_c, 1, 59, 100
3, 124992, Note_on_c, 1, 55, 80
3, 125040, Note_off_c, 1, 62, 100
3, 125056, Note_on_c, 1, 59, 80
3, 125114, Note_off_c, 1, 55, 100
3, 125120, Note_on_c, 1, 62, 80
3, 125160, Note_off_c, 1, 59, 100
3, 125184, Note_on_c, 1, 55, 80
3, 125220, Note_off_c, 1, 62, 100
3, 125248, Note_on_c, 1, 59, 80
3, 125290, Note_off_c, 1, 55, 100
3, 125312, Note_on_c, 1, 62, 80
3, 125356, Note_off_c, 1, 59, 100
3, 125376, Note_on_c, 1, 55, 80
3, 125410, Note_off_c, 1, 62, 100
3, 125440, Note_on_c, 1, 59, 80
3, 125484, Note_off_c, 1, 55, 100
3, 125504, Note_on_c, 1, 62, 80
3, 125542, Note_off_c, 1, 59, 100
3, 125568, Note_on_c, 1, 55, 80
3, 125608, Note_off_c, 1, 62, 100
3, 125632, Note_on_c, 1, 59, 80
3, 125666, Note_off_c, 1, 55, 100
3, 125696, Note_on_c, 1, 62, 80
3, 125738, Note_off_c, 1, 59, 100
3, 125760, Note_on_c, 1, 57, 80
3, 125804, Note_off_c, 1, 62, 100
3, 125824, Note_on_c, 1, 60, 80
3, 125860, Note_off_c, 1, 57, 100
3, 125888, Note_on_c, 1, 62, 80
3, 125922, Note_off_c, 1, 60, 100
3, 125952, Note_on_c, 1, 57, 80
3, 125990, Note_off_c, 1, 62, 100
3, 126016, Note_on_c, 1, 60, 80
3, 126062, Note_off_c, 1, 57, 100
3, 126080, Note_on_c, 1, 62, 80
3, 126114, Note_off_c, 1, 60, 100
3, 126144, Note_on_c, 1, 57, 80
3, 126190, Note_off_c, 1, 62, 100
3, 126208, Note_on_c, 1, 60, 80
3, 126248, Note_off_c, 1, 57, 100
3, 126272, Note_on_c, 1, 62, 80
3, 126314, Note_off_c, 1, 60, 100
3, 126336, Note_on_c, 1, 57, 80
3, 126378, Note_off_c, 1, 62, 100
3, 126400, Note_on_c, 1, 60, 80
3, 126442, Note_off_c, 1, 57, 100
3, 126464, Note_on_c, 1, 62, 80
3, 126516, Note_off_c, 1, 60, 100
3, 126528, Note_on_c, 1, 57, 80
3, 126582, Note_off_c, 1, 62, 100
3, 126592, Note_on_c, 1, 60, 80
3, 126642, Note_off_c, 1, 57, 100
3, 126656, Note_on_c, 1, 62, 80
3, 126700, Note_off_c, 1, 60, 100
3, 126720, Note_on_c, 1, 57, 80
3, 126764, Note_off_c, 1, 62, 100
3, 126784, Note_on_c, 1, 60, 80
3, 126834, Note_off_c, 1, 57, 100
3, 126848, Note_on_c, 1, 62, 80
3, 126892, Note_off_c, 1, 60, 100
3, 126912, Note_on_c, 1, 55, 80
3, 126948, Note_off_c, 1, 62, 100
3, 126976, Note_on_c, 1, 59, 80
3, 127014, Note_off_c, 1, 55, 100
3, 127040, Note_on_c, 1, 62, 80
3, 127078, Note_off_c, 1, 59, 100
3, 127104, Note_on_c, 1, 55, 80
3, 127146, Note_off_c, 1, 62, 100
3, 127168, Note_on_c, 1, 59, 80
3, 127212, Note_off_c, 1, 55, 100
3, 127232, Note_on_c, 1, 62, 80
3, 127268, Note_off_c, 1, 59, 100
3, 127296, Note_on_c, 1, 55, 80
3, 127338, Note_off_c, 1, 62, 100
3, 127360, Note_on_c, 1, 59, 80
3, 127422, Note_off_c, 1, 55, 100
3, 127424, Note_on_c, 1, 62, 80
3, 127464, Note_off_c, 1, 59, 100
3, 127488, Note_on_c, 1, 55, 80
3, 127536, Note_off_c, 1, 62, 100
3, 127552, Note_on_c, 1, 59, 80
3, 127600, Note_off_c, 1, 55, 100
3, 127616, Note_on_c, 1, 62, 80
3, 127664, Note_off_c, 1, 59, 100
3, 127680, Note_on_c, 1, 55, 80
3, 127720, Note_off_c, 1, 62, 100
3, 127744, Note_on_c, 1, 59, 80
3, 127792, Note_off_c, 1, 55, 100
3, 127808, Note_on_c, 1, 62, 80
3, 127846, Note_off_c, 1, 59, 100
3, 127872, Note_on_c, 1, 55, 80
3, 127912, Note_off_c, 1, 62, 100
3, 127936, Note_on_c, 1, 59, 80
3, 127976, Note_off_c, 1, 55, 100
3, 128000, Note_on_c, 1, 62, 80
3, 128042, Note_off_c, 1, 59, 100
3, 128064, Note_on_c, 1, 57, 80
3, 128104, Note_off_c, 1, 62, 100
3, 128128, Note_on_c, 1, 60, 80
3, 128166, Note_off_c, 1, 57, 100
3, 128192, Note_on_c, 1, 62, 80
3, 128234, Note_off_c, 1, 60, 100
3, 128256, Note_on_c, 1, 57, 80
3, 128300, Note_off_c, 1, 62, 100
3, 128320, Note_on_c, 1, 60, 80
3, 128364, Note_off_c, 1, 57, 100
3, 128384, Note_on_c, 1, 62, 80
3, 128432, Note_off_c, 1, 60, 100
3, 128448, Note_on_c, 1, 57, 80
3, 128490, Note_off_c, 1, 62, 100
3, 128512, Note_on_c, 1, 60, 80
3, 128562, Note_off_c, 1, 57, 100
3, 128576, Note_on_c, 1, 62, 80
3, 128620, Note_off_c, 1, 60, 100
3, 128640, Note_on_c, 1, 57, 80
3, 128686, Note_off_c, 1, 62, 100
3, 128704, Note_on_c, 1, 60, 80
3, 128760, Note_off_c, 1, 57, 100
3, 128768, Note_on_c, 1, 62, 80
3, 128816, Note_off_c, 1, 60, 100
3, 128832, Note_on_c, 1, 57, 80
3, 128880, Note_off_c, 1, 62, 100
3, 128896, Note_on_c, 1, 60, 80
3, 128942, Note_off_c, 1, 57, 100
3, 128960, Note_on_c, 1, 62, 80
3, 129006, Note_off_c, 1, 60, 100
3, 129024, Note_on_c, 1, 57, 80
3, 129070, Note_off_c, 1, 62, 100
3, 129088, Note_on_c, 1, 60, 80
3, 129124, Note_off_c, 1, 57, 100
3, 129152, Note_on_c, 1, 62, 80
3, 129204, Note_off_c, 1, 60, 100
3, 129216, Note_on_c, 1, 55, 80
3, 129258, Note_off_c, 1, 62, 100
3, 129280, Note_on_c, 1, 59, 80
3, 129318, Note_off_c, 1, 55, 100
3, 129344, Note_on_c, 1, 62, 80
3, 129388, Note_off_c, 1, 59, 100
3, 129408, Note_on_c, 1, 55, 80
3, 129454, Note_off_c, 1, 62, 100
3, 129472, Note_on_c, 1, 59, 80
3, 129512, Note_off_c, 1, 55, 100
3, 129536, Note_on_c, 1, 62, 80
3, 129574, Note_off_c, 1, 59, 100
3, 129600, Note_on_c, 1, 55, 80
3, 129636, Note_off_c, 1, 62, 100
3, 129664, Note_on_c, 1, 59, 80
3, 129716, Note_off_c, 1, 55, 100
3, 129728, Note_on_c, 1, 62, 80
3, 129782, Note_off_c, 1, 59, 100
3, 129792, Note_on_c, 1, 57, 80
3, 129844, Note_off_c, 1, 62, 100
3, 129856, Note_on_c, 1, 60, 80
3, 129900, Note_off_c, 1, 57, 100
3, 129920, Note_on_c, 1, 62, 80
3, 129968, Note_off_c, 1, 60, 100
3, 129984, Note_on_c, 1, 57, 80
3, 130012, Note_off_c, 1, 62, 100
3, 130048, Note_on_c, 1, 60, 80
3, 130104, Note_off_c, 1, 57, 100
3, 130112, Note_on_c, 1, 62, 80
3, 130174, Note_off_c, 1, 60, 100
3, 130176, Note_on_c, 1, 57, 80
3, 130232, Note_off_c, 1, 62, 100
3, 130240, Note_on_c, 1, 60, 80
3, 130294, Note_off_c, 1, 57, 100
3, 130304, Note_on_c, 1, 62, 80
3, 130362, Note_off_c, 1, 60, 100
3, 130368, Note_on_c, 1, 55, 80
3, 130424, Note_off_c, 1, 62, 100
3, 130432, Note_on_c, 1, 59, 80
3, 130488, Note_off_c, 1, 55, 100
3, 130496, Note_on_c, 1, 62, 80
3, 130538, Note_off_c, 1, 59, 100
3, 130560, Note_on_c, 1, 55, 80
3, 130618, Note_off_c, 1, 62, 100
3, 130624, Note_on_c, 1, 59, 80
3, 130684, Note_off_c, 1, 55, 100
3, 130688, Note_on_c, 1, 62, 80
3, 130734, Note_off_c, 1, 59, 100
3, 130752, Note_on_c, 1, 55, 80
3, 130816, Note_on_c, 1, 59, 80
3, 130818, Note_off_c, 1, 62, 100
3, 130864, Note_off_c, 1, 55, 100
3, 130880, Note_on_c, 1, 62, 80
3, 130924, Note_off_c, 1, 59, 100
3, 130944, Note_on_c, 1, 57, 80
3, 130994, Note_off_c, 1, 62, 100
3, 131008, Note_on_c, 1, 60, 80
3, 131060, Note_off_c, 1, 57, 100
3, 131072, Note_on_c, 1, 62, 80
3, 131136, Note_on_c, 1, 57, 80
3, 131138, Note_off_c, 1, 60, 100
3, 131178, Note_off_c, 1, 62, 100
3, 131200, Note_on_c, 1, 60, 80
3, 131240, Note_off_c, 1, 57, 100
3, 131264, Note_on_c, 1, 62, 80
3, 131300, Note_off_c, 1, 60, 100
3, 131328, Note_on_c, 1, 57, 80
3, 131368, Note_off_c, 1, 62, 100
3, 131392, Note_on_c, 1, 60, 80
3, 131428, Note_off_c, 1, 57, 100
3, 131456, Note_on_c, 1, 62, 80
3, 131488, Note_off_c, 1, 60, 100
3, 131516, Note_off_c, 1, 62, 100
3, 131904, Note_on_c, 1, 43, 80
3, 131904, Note_on_c, 1, 31, 80
3, 132092, Note_off_c, 1, 43, 100
3, 132092, Note_off_c, 1, 31, 100
3, 132096, Note_on_c, 1, 45, 80
3, 132096, Note_on_c, 1, 33, 80
3, 132284, Note_off_c, 1, 45, 100
3, 132284, Note_off_c, 1, 33, 100
3, 132288, Note_on_c, 1, 47, 80
3, 132288, Note_on_c, 1, 35, 80
3, 132476, Note_off_c, 1, 47, 100
3, 132476, Note_off_c, 1, 35, 100
3, 132480, Note_on_c, 1, 48, 80
3, 132480, Note_on_c, 1, 36, 80
3, 132668, Note_off_c, 1, 48, 100
3, 132668, Note_off_c, 1, 36, 100
3, 132672, Note_on_c, 1, 50, 80
3, 132672, Note_on_c, 1, 38, 80
3, 132860, Note_off_c, 1, 50, 100
3, 132860, Note_off_c, 1, 38, 100
3, 132864, Note_on_c, 1, 52, 80
3, 132864, Note_on_c, 1, 40, 80
3, 133052, Note_off_c, 1, 52, 100
3, 133052, Note_off_c, 1, 40, 100
3, 133056, Note_on_c, 1, 54, 80
3, 133056, Note_on_c, 1, 42, 80
3, 133244, Note_off_c, 1, 54, 100
3, 133244, Note_off_c, 1, 42, 100
3, 133248, Note_on_c, 1, 55, 80
3, 133248, Note_on_c, 1, 43, 80
3, 133436, Note_off_c, 1, 55, 100
3, 133436, Note_off_c, 1, 43, 100
3, 133440, Note_on_c, 1, 42, 83
3, 133628, Note_off_c, 1, 42, 100
3, 133632, Note_on_c, 1, 43, 86
3, 133820, Note_off_c, 1, 43, 100
3, 133824, Note_on_c, 1, 44, 90
3, 134012, Note_off_c, 1, 44, 100
3, 134016, Note_on_c, 1, 45, 93
3, 134204, Note_off_c, 1, 45, 100
3, 134208, Note_on_c, 1, 46, 97
3, 134396, Note_off_c, 1, 46, 100
3, 134400, Note_on_c, 1, 47, 100
3, 134588, Note_off_c, 1, 47, 100
3, 134592, Note_on_c, 1, 55, 104
3, 134592, Note_on_c, 1, 47, 104
3, 134780, Note_off_c, 1, 55, 100
3, 134780, Note_off_c, 1, 47, 100
3, 134784, Note_on_c, 1, 55, 107
3, 134784, Note_on_c, 1, 48, 107
3, 134972, Note_off_c, 1, 55, 100
3, 134972, Note_off_c, 1, 48, 100
3, 134976, Note_on_c, 1, 55, 111
3, 134976, Note_on_c, 1, 47, 111
3, 135164, Note_off_c, 1, 55, 100
3, 135164, Note_off_c, 1, 47, 100
3, 135168, Note_on_c, 1, 55, 114
3, 135168, Note_on_c, 1, 48, 114
3, 135356, Note_off_c, 1, 55, 100
3, 135356, Note_off_c, 1, 48, 100
3, 135360, Note_on_c, 1, 55, 118
3, 135360, Note_on_c, 1, 47, 118
3, 135548, Note_off_c, 1, 55, 100
3, 135548, Note_off_c, 1, 47, 100
3, 135552, Note_on_c, 1, 55, 120
3, 135552, Note_on_c, 1, 48, 120
3, 135740, Note_off_c, 1, 55, 100
3, 135740, Note_off_c, 1, 48, 100
3, 135744, Note_on_c, 1, 55, 120
3, 135744, Note_on_c, 1, 47, 120
3, 135932, Note_off_c, 1, 55, 100
3, 135932, Note_off_c, 1, 47, 100
3, 135936, Note_on_c, 1, 55, 120
3, 135936, Note_on_c, 1, 48, 120
3, 136124, Note_off_c, 1, 55, 100
3, 136124, Note_off_c, 1, 48, 100
3, 136128, Note_on_c, 1, 55, 120
3, 136128, Note_on_c, 1, 48, 120
3, 136316, Note_off_c, 1, 55, 100
3, 136316, Note_off_c, 1, 48, 100
3, 136704, Note_on_c, 1, 57, 80
3, 136704, Note_on_c, 1, 55, 80
3, 136704, Note_on_c, 1, 49, 80
3, 136892, Note_off_c, 1, 57, 100
3, 136892, Note_off_c, 1, 55, 100
3, 136892, Note_off_c, 1, 49, 100
3, 137280, Note_on_c, 1, 55, 80
3, 137280, Note_on_c, 1, 50, 80
3, 137280, Note_on_c, 1, 59, 80
3, 137468, Note_off_c, 1, 55, 100
3, 137468, Note_off_c, 1, 50, 100
3, 137468, Note_off_c, 1, 59, 100
3, 137856, Note_on_c, 1, 60, 80
3, 137856, Note_on_c, 1, 57, 80
3, 137856, Note_on_c, 1, 50, 80
3, 138044, Note_off_c, 1, 60, 100
3, 138044, Note_off_c, 1, 57, 100
3, 138044, Note_off_c, 1, 50, 100
3, 138432, Note_on_c, 1, 43, 70
3, 138496, Note_on_c, 1, 50, 70
3, 138554, Note_off_c, 1, 43, 100
3, 138560, Note_on_c, 1, 55, 70
3, 138618, Note_off_c, 1, 50, 100
3, 138624, Note_on_c, 1, 43, 70
3, 138682, Note_off_c, 1, 55, 100
3, 138688, Note_on_c, 1, 50, 70
3, 138746, Note_off_c, 1, 43, 100
3, 138752, Note_on_c, 1, 55, 70
3, 138810, Note_off_c, 1, 50, 100
3, 138816, Note_on_c, 1, 43, 70
3, 138874, Note_off_c, 1, 55, 100
3, 138880, Note_on_c, 1, 50, 70
3, 138938, Note_off_c, 1, 43, 100
3, 138944, Note_on_c, 1, 55, 70
3, 139002, Note_off_c, 1, 50, 100
3, 139008, Note_on_c, 1, 43, 70
3, 139066, Note_off_c, 1, 55, 100
3, 139072, Note_on_c, 1, 50, 70
3, 139130, Note_off_c, 1, 43, 100
3, 139136, Note_on_c, 1, 55, 70
3, 139194, Note_off_c, 1, 50, 100
3, 139200, Note_on_c, 1, 43, 70
3, 139258, Note_off_c, 1, 55, 100
3, 139264, Note_on_c, 1, 50, 70
3, 139322, Note_off_c, 1, 43, 100
3, 139328, Note_on_c, 1, 55, 70
3, 139386, Note_off_c, 1, 50, 100
3, 139392, Note_on_c, 1, 43, 70
3, 139450, Note_off_c, 1, 55, 100
3, 139456, Note_on_c, 1, 50, 70
3, 139514, Note_off_c, 1, 43, 100
3, 139520, Note_on_c, 1, 55, 70
3, 139578, Note_off_c, 1, 50, 100
3, 139584, Note_on_c, 1, 43, 70
3, 139642, Note_off_c, 1, 55, 100
3, 139648, Note_on_c, 1, 50, 70
3, 139706, Note_off_c, 1, 43, 100
3, 139712, Note_on_c, 1, 55, 70
3, 139770, Note_off_c, 1, 50, 100
3, 139776, Note_on_c, 1, 43, 70
3, 139834, Note_off_c, 1, 55, 100
3, 139840, Note_on_c, 1, 50, 70
3, 139898, Note_off_c, 1, 43, 100
3, 139904, Note_on_c, 1, 55, 70
3, 139962, Note_off_c, 1, 50, 100
3, 139968, Note_on_c, 1, 43, 70
3, 140026, Note_off_c, 1, 55, 100
3, 140032, Note_on_c, 1, 50, 70
3, 140090, Note_off_c, 1, 43, 100
3, 140096, Note_on_c, 1, 55, 70
3, 140154, Note_off_c, 1, 50, 100
3, 140160, Note_on_c, 1, 43, 70
3, 140218, Note_off_c, 1, 55, 100
3, 140224, Note_on_c, 1, 50, 70
3, 140282, Note_off_c, 1, 43, 100
3, 140288, Note_on_c, 1, 55, 70
3, 140346, Note_off_c, 1, 50, 100
3, 140352, Note_on_c, 1, 43, 70
3, 140410, Note_off_c, 1, 55, 100
3, 140416, Note_on_c, 1, 50, 70
3, 140474, Note_off_c, 1, 43, 100
3, 140480, Note_on_c, 1, 55, 70
3, 140538, Note_off_c, 1, 50, 100
3, 140544, Note_on_c, 1, 43, 70
3, 140602, Note_off_c, 1, 55, 100
3, 140608, Note_on_c, 1, 50, 70
3, 140666, Note_off_c, 1, 43, 100
3, 140672, Note_on_c, 1, 55, 70
3, 140730, Note_off_c, 1, 50, 100
3, 140736, Note_on_c, 1, 43, 70
3, 140794, Note_off_c, 1, 55, 100
3, 140800, Note_on_c, 1, 50, 70
3, 140858, Note_off_c, 1, 43, 100
3, 140864, Note_on_c, 1, 55, 70
3, 140922, Note_off_c, 1, 50, 100
3, 140928, Note_on_c, 1, 43, 70
3, 140986, Note_off_c, 1, 55, 100
3, 140992, Note_on_c, 1, 50, 70
3, 141050, Note_off_c, 1, 43, 100
3, 141056, Note_on_c, 1, 55, 70
3, 141114, Note_off_c, 1, 50, 100
3, 141120, Note_on_c, 1, 43, 70
3, 141178, Note_off_c, 1, 55, 100
3, 141184, Note_on_c, 1, 50, 70
3, 141242, Note_off_c, 1, 43, 100
3, 141248, Note_on_c, 1, 55, 70
3, 141306, Note_off_c, 1, 50, 100
3, 141312, Note_on_c, 1, 43, 70
3, 141370, Note_off_c, 1, 55, 100
3, 141376, Note_on_c, 1, 50, 70
3, 141434, Note_off_c, 1, 43, 100
3, 141440, Note_on_c, 1, 55, 70
3, 141498, Note_off_c, 1, 50, 100
3, 141504, Note_on_c, 1, 43, 70
3, 141562, Note_off_c, 1, 55, 100
3, 141568, Note_on_c, 1, 50, 70
3, 141626, Note_off_c, 1, 43, 100
3, 141632, Note_on_c, 1, 55, 70
3, 141690, Note_off_c, 1, 50, 100
3, 141696, Note_on_c, 1, 43, 70
3, 141754, Note_off_c, 1, 55, 100
3, 141760, Note_on_c, 1, 50, 70
3, 141818, Note_off_c, 1, 43, 100
3, 141824, Note_on_c, 1, 55, 70
3, 141882, Note_off_c, 1, 50, 100
3, 141888, Note_on_c, 1, 43, 70
3, 141946, Note_off_c, 1, 55, 100
3, 141952, Note_on_c, 1, 50, 70
3, 142010, Note_off_c, 1, 43, 100
3, 142016, Note_on_c, 1, 55, 70
3, 142074, Note_off_c, 1, 50, 100
3, 142080, Note_on_c, 1, 43, 70
3, 142138, Note_off_c, 1, 55, 100
3, 142144, Note_on_c, 1, 50, 70
3, 142202, Note_off_c, 1, 43, 100
3, 142208, Note_on_c, 1, 55, 70
3, 142266, Note_off_c, 1, 50, 100
3, 142272, Note_on_c, 1, 43, 70
3, 142330, Note_off_c, 1, 55, 100
3, 142336, Note_on_c, 1, 50, 70
3, 142394, Note_off_c, 1, 43, 100
3, 142400, Note_on_c, 1, 55, 70
3, 142458, Note_off_c, 1, 50, 100
3, 142464, Note_on_c, 1, 43, 70
3, 142522, Note_off_c, 1, 55, 100
3, 142528, Note_on_c, 1, 50, 70
3, 142586, Note_off_c, 1, 43, 100
3, 142592, Note_on_c, 1, 55, 70
3, 142650, Note_off_c, 1, 50, 100
3, 142656, Note_on_c, 1, 43, 70
3, 142714, Note_off_c, 1, 55, 100
3, 142720, Note_on_c, 1, 50, 70
3, 142778, Note_off_c, 1, 43, 100
3, 142784, Note_on_c, 1, 55, 70
3, 142842, Note_off_c, 1, 50, 100
3, 142848, Note_on_c, 1, 43, 70
3, 142906, Note_off_c, 1, 55, 100
3, 142912, Note_on_c, 1, 50, 70
3, 142970, Note_off_c, 1, 43, 100
3, 142976, Note_on_c, 1, 55, 70
3, 143034, Note_off_c, 1, 50, 100
3, 143040, Note_on_c, 1, 43, 70
3, 143098, Note_off_c, 1, 55, 100
3, 143104, Note_on_c, 1, 50, 70
3, 143162, Note_off_c, 1, 43, 100
3, 143168, Note_on_c, 1, 55, 70
3, 143226, Note_off_c, 1, 50, 100
3, 143232, Note_on_c, 1, 43, 70
3, 143290, Note_off_c, 1, 55, 100
3, 143296, Note_on_c, 1, 50, 70
3, 143354, Note_off_c, 1, 43, 100
3, 143360, Note_on_c, 1, 55, 70
3, 143418, Note_off_c, 1, 50, 100
3, 143424, Note_on_c, 1, 43, 70
3, 143482, Note_off_c, 1, 55, 100
3, 143488, Note_on_c, 1, 50, 70
3, 143546, Note_off_c, 1, 43, 100
3, 143552, Note_on_c, 1, 55, 70
3, 143610, Note_off_c, 1, 50, 100
3, 143616, Note_on_c, 1, 43, 70
3, 143674, Note_off_c, 1, 55, 100
3, 143680, Note_on_c, 1, 50, 70
3, 143738, Note_off_c, 1, 43, 100
3, 143744, Note_on_c, 1, 55, 70
3, 143802, Note_off_c, 1, 50, 100
3, 143808, Note_on_c, 1, 43, 70
3, 143866, Note_off_c, 1, 55, 100
3, 143872, Note_on_c, 1, 50, 70
3, 143930, Note_off_c, 1, 43, 100
3, 143936, Note_on_c, 1, 55, 70
3, 143994, Note_off_c, 1, 50, 100
3, 144000, Note_on_c, 1, 43, 70
3, 144058, Note_off_c, 1, 55, 100
3, 144064, Note_on_c, 1, 50, 70
3, 144122, Note_off_c, 1, 43, 100
3, 144128, Note_on_c, 1, 55, 70
3, 144186, Note_off_c, 1, 50, 100
3, 144192, Note_on_c, 1, 43, 70
3, 144250, Note_off_c, 1, 55, 100
3, 144256, Note_on_c, 1, 50, 70
3, 144314, Note_off_c, 1, 43, 100
3, 144320, Note_on_c, 1, 55, 70
3, 144378, Note_off_c, 1, 50, 100
3, 144384, Note_on_c, 1, 43, 70
3, 144442, Note_off_c, 1, 55, 100
3, 144448, Note_on_c, 1, 50, 70
3, 144506, Note_off_c, 1, 43, 100
3, 144512, Note_on_c, 1, 55, 70
3, 144570, Note_off_c, 1, 50, 100
3, 144576, Note_on_c, 1, 43, 70
3, 144634, Note_off_c, 1, 55, 100
3, 144640, Note_on_c, 1, 50, 70
3, 144698, Note_off_c, 1, 43, 100
3, 144704, Note_on_c, 1, 55, 70
3, 144762, Note_off_c, 1, 50, 100
3, 144768, Note_on_c, 1, 43, 70
3, 144826, Note_off_c, 1, 55, 100
3, 144832, Note_on_c, 1, 50, 70
3, 144890, Note_off_c, 1, 43, 100
3, 144896, Note_on_c, 1, 55, 70
3, 144954, Note_off_c, 1, 50, 100
3, 144960, Note_on_c, 1, 43, 70
3, 145018, Note_off_c, 1, 55, 100
3, 145024, Note_on_c, 1, 50, 70
3, 145082, Note_off_c, 1, 43, 100
3, 145088, Note_on_c, 1, 55, 70
3, 145146, Note_off_c, 1, 50, 100
3, 145152, Note_on_c, 1, 43, 70
3, 145210, Note_off_c, 1, 55, 100
3, 145216, Note_on_c, 1, 50, 70
3, 145274, Note_off_c, 1, 43, 100
3, 145280, Note_on_c, 1, 55, 70
3, 145338, Note_off_c, 1, 50, 100
3, 145344, Note_on_c, 1, 43, 70
3, 145402, Note_off_c, 1, 55, 100
3, 145408, Note_on_c, 1, 50, 70
3, 145466, Note_off_c, 1, 43, 100
3, 145472, Note_on_c, 1, 55, 70
3, 145530, Note_off_c, 1, 50, 100
3, 145536, Note_on_c, 1, 43, 70
3, 145594, Note_off_c, 1, 55, 100
3, 145600, Note_on_c, 1, 50, 70
3, 145658, Note_off_c, 1, 43, 100
3, 145664, Note_on_c, 1, 55, 70
3, 145722, Note_off_c, 1, 50, 100
3, 145728, Note_on_c, 1, 43, 70
3, 145786, Note_off_c, 1, 55, 100
3, 145792, Note_on_c, 1, 50, 70
3, 145850, Note_off_c, 1, 43, 100
3, 145856, Note_on_c, 1, 55, 70
3, 145914, Note_off_c, 1, 50, 100
3, 145920, Note_on_c, 1, 43, 70
3, 145978, Note_off_c, 1, 55, 100
3, 145984, Note_on_c, 1, 50, 70
3, 146042, Note_off_c, 1, 43, 100
3, 146048, Note_on_c, 1, 55, 70
3, 146106, Note_off_c, 1, 50, 100
3, 146112, Note_on_c, 1, 43, 70
3, 146170, Note_off_c, 1, 55, 100
3, 146176, Note_on_c, 1, 50, 70
3, 146234, Note_off_c, 1, 43, 100
3, 146240, Note_on_c, 1, 55, 70
3, 146298, Note_off_c, 1, 50, 100
3, 146304, Note_on_c, 1, 43, 70
3, 146362, Note_off_c, 1, 55, 100
3, 146368, Note_on_c, 1, 50, 70
3, 146426, Note_off_c, 1, 43, 100
3, 146432, Note_on_c, 1, 55, 70
3, 146490, Note_off_c, 1, 50, 100
3, 146496, Note_on_c, 1, 43, 70
3, 146554, Note_off_c, 1, 55, 100
3, 146560, Note_on_c, 1, 50, 70
3, 146618, Note_off_c, 1, 43, 100
3, 146624, Note_on_c, 1, 55, 70
3, 146682, Note_off_c, 1, 50, 100
3, 146688, Note_on_c, 1, 43, 70
3, 146746, Note_off_c, 1, 55, 100
3, 146752, Note_on_c, 1, 50, 70
3, 146810, Note_off_c, 1, 43, 100
3, 146816, Note_on_c, 1, 55, 70
3, 146874, Note_off_c, 1, 50, 100
3, 146880, Note_on_c, 1, 43, 70
3, 146938, Note_off_c, 1, 55, 100
3, 146944, Note_on_c, 1, 50, 70
3, 147002, Note_off_c, 1, 43, 100
3, 147008, Note_on_c, 1, 55, 70
3, 147066, Note_off_c, 1, 50, 100
3, 147072, Note_on_c, 1, 43, 70
3, 147130, Note_off_c, 1, 55, 100
3, 147260, Note_off_c, 1, 43, 100
3, 147456, Note_on_c, 1, 33, 80
3, 147550, Note_off_c, 1, 33, 100
3, 147552, Note_on_c, 1, 30, 80
3, 147646, Note_off_c, 1, 30, 100
3, 147648, Note_on_c, 1, 31, 80
3, 148220, Note_off_c, 1, 31, 100
3, 148416, Control_c, 1, 7, 0
3, 148608, Note_on_c, 1, 31, 1
3, 148796, Note_off_c, 1, 31, 100
3, 148796, End_track
0, 0, End_of_file
