0, 0, Header, 1, 3, 384
1, 0, Start_track
1, 0, Title_t, "L.v.Beethoven 4mov - Piano Sonata No.11 in Bb Major Op.22\000"
1, 0, Copyright_t, "Copyright(C) 1995-2009, Suzuki Software\000"
1, 0, Sequencer_specific, 9, 67, 123, 0, 88, 70, 48, 50, 0, 1
1, 0, Text_t, "XFhd:2000/05/26:JP:Classical::::L.v.Beethoven:::Kaoru Suzuki\000"
1, 0, Text_t, "XFln:JP:\203s\203A\203m\203\\\203i\203^\221æ11\224Ô\225Ï\203\215\222·\222²\215ì\225i22\201`\221æ4\212y\217Í:L.v.\203x\201[\203g\201[\203\224\203F\203\223:::\227é\202¿\202á\202ñ:\227é\202¿\202á\202ñ\000"
1, 0, Time_signature, 1, 2, 96, 8
1, 0, Sequencer_specific, 3, 0, 0, 65
1, 0, Sequencer_specific, 5, 0, 0, 119, 14, 0
1, 0, Tempo, 769230
1, 384, Time_signature, 2, 2, 96, 8
1, 5568, Tempo, 800000
1, 5656, Tempo, 857142
1, 6336, Tempo, 769230
1, 11328, Tempo, 810810
1, 11416, Tempo, 857142
1, 12288, Tempo, 769230
1, 13336, Tempo, 857142
1, 14208, Tempo, 810810
1, 30136, Tempo, 857142
1, 30232, Tempo, 937500
1, 30912, Tempo, 810810
1, 34944, Tempo, 769230
1, 43008, Tempo, 810810
1, 43200, Tempo, 857142
1, 43968, Tempo, 769230
1, 48768, Tempo, 810810
1, 48960, Tempo, 857142
1, 49920, Tempo, 769230
1, 52608, Tempo, 821917
1, 53376, Tempo, 769230
1, 60864, Tempo, 810810
1, 60952, Tempo, 857142
1, 61440, Tempo, 769230
1, 78528, Tempo, 857142
1, 80256, Tempo, 1000000
1, 80640, Tempo, 857142
1, 81792, Tempo, 1000000
1, 82176, Tempo, 857142
1, 82560, Tempo, 857142
1, 83712, Tempo, 810810
1, 84096, Tempo, 769230
1, 96384, Tempo, 810810
1, 96768, Tempo, 857142
1, 97536, Tempo, 769230
1, 101760, Tempo, 857142
1, 102528, Tempo, 769230
1, 120192, Tempo, 810810
1, 120576, Tempo, 857142
1, 121344, Tempo, 789473
1, 126336, Tempo, 769230
1, 137088, Tempo, 810810
1, 137472, Tempo, 857142
1, 138240, Tempo, 769230
1, 139776, Tempo, 810810
1, 141312, Tempo, 769230
1, 141696, Tempo, 821917
1, 142848, Tempo, 750000
1, 147072, Tempo, 769230
1, 147456, Tempo, 800000
1, 147840, Tempo, 833333
1, 148224, Tempo, 857142
1, 148416, Tempo, 1000000
1, 148608, Tempo, 857142
1, 149760, Tempo, 895522
1, 150912, Tempo, 923076
1, 151680, Tempo, 952380
1, 151872, Tempo, 1000000
1, 152064, Tempo, 1090909
1, 152256, Tempo, 1200000
1, 152256, End_track
2, 0, Start_track
2, 0, Title_t, "Right"
2, 0, Control_c, 0, 0, 0
2, 0, Program_c, 0, 0
2, 0, Control_c, 0, 7, 100
2, 0, Control_c, 0, 10, 72
2, 0, Control_c, 0, 91, 127
2, 0, Key_signature, -2, "major"
2, 96, Note_on_c, 0, 77, 80
2, 188, Note_off_c, 0, 77, 100
2, 192, Note_on_c, 0, 79, 80
2, 284, Note_off_c, 0, 79, 100
2, 288, Note_on_c, 0, 77, 80
2, 380, Note_off_c, 0, 77, 100
2, 384, Note_on_c, 0, 75, 80
2, 476, Note_off_c, 0, 75, 100
2, 480, Note_on_c, 0, 74, 80
2, 572, Note_off_c, 0, 74, 100
2, 576, Note_on_c, 0, 72, 80
2, 668, Note_off_c, 0, 72, 100
2, 672, Note_on_c, 0, 70, 80
2, 764, Note_off_c, 0, 70, 100
2, 768, Note_on_c, 0, 69, 80
2, 956, Note_off_c, 0, 69, 100
2, 960, Note_on_c, 0, 70, 80
2, 1148, Note_off_c, 0, 70, 100
2, 1152, Note_on_c, 0, 71, 80
2, 1340, Note_off_c, 0, 71, 100
2, 1344, Note_on_c, 0, 72, 80
2, 1628, Note_off_c, 0, 72, 100
2, 1632, Note_on_c, 0, 78, 80
2, 1724, Note_off_c, 0, 78, 100
2, 1728, Note_on_c, 0, 81, 80
2, 1820, Note_off_c, 0, 81, 100
2, 1824, Note_on_c, 0, 79, 80
2, 1916, Note_off_c, 0, 79, 100
2, 1920, Note_on_c, 0, 77, 80
2, 2012, Note_off_c, 0, 77, 100
2, 2016, Note_on_c, 0, 75, 80
2, 2108, Note_off_c, 0, 75, 100
2, 2112, Note_on_c, 0, 74, 80
2, 2204, Note_off_c, 0, 74, 100
2, 2208, Note_on_c, 0, 72, 80
2, 2300, Note_off_c, 0, 72, 100
2, 2304, Note_on_c, 0, 70, 80
2, 2492, Note_off_c, 0, 70, 100
2, 2496, Note_on_c, 0, 72, 80
2, 2684, Note_off_c, 0, 72, 100
2, 2688, Note_on_c, 0, 73, 80
2, 2876, Note_off_c, 0, 73, 100
2, 2880, Note_on_c, 0, 74, 80
2, 3164, Note_off_c, 0, 74, 100
2, 3168, Note_on_c, 0, 77, 80
2, 3260, Note_off_c, 0, 77, 100
2, 3264, Note_on_c, 0, 79, 80
2, 3356, Note_off_c, 0, 79, 100
2, 3360, Note_on_c, 0, 74, 80
2, 3452, Note_off_c, 0, 74, 100
2, 3456, Note_on_c, 0, 77, 80
2, 3548, Note_off_c, 0, 77, 100
2, 3552, Note_on_c, 0, 75, 80
2, 3644, Note_off_c, 0, 75, 100
2, 3648, Note_on_c, 0, 77, 80
2, 3740, Note_off_c, 0, 77, 100
2, 3744, Note_on_c, 0, 72, 80
2, 3836, Note_off_c, 0, 72, 100
2, 3840, Note_on_c, 0, 75, 80
2, 3932, Note_off_c, 0, 75, 100
2, 3936, Note_on_c, 0, 74, 80
2, 4028, Note_off_c, 0, 74, 100
2, 4032, Note_on_c, 0, 79, 80
2, 4124, Note_off_c, 0, 79, 100
2, 4128, Note_on_c, 0, 74, 80
2, 4220, Note_off_c, 0, 74, 100
2, 4224, Note_on_c, 0, 77, 80
2, 4316, Note_off_c, 0, 77, 100
2, 4320, Note_on_c, 0, 75, 80
2, 4412, Note_off_c, 0, 75, 100
2, 4416, Note_on_c, 0, 77, 80
2, 4508, Note_off_c, 0, 77, 100
2, 4512, Note_on_c, 0, 72, 80
2, 4604, Note_off_c, 0, 72, 100
2, 4608, Note_on_c, 0, 74, 80
2, 4700, Note_off_c, 0, 74, 100
2, 4704, Note_on_c, 0, 75, 80
2, 4796, Note_off_c, 0, 75, 100
2, 4800, Note_on_c, 0, 76, 80
2, 4892, Note_off_c, 0, 76, 100
2, 4896, Note_on_c, 0, 77, 80
2, 4988, Note_off_c, 0, 77, 100
2, 4992, Note_on_c, 0, 78, 80
2, 5084, Note_off_c, 0, 78, 100
2, 5088, Note_on_c, 0, 79, 80
2, 5180, Note_off_c, 0, 79, 100
2, 5184, Note_on_c, 0, 81, 80
2, 5276, Note_off_c, 0, 81, 100
2, 5280, Note_on_c, 0, 82, 80
2, 5372, Note_off_c, 0, 82, 100
2, 5376, Note_on_c, 0, 84, 80
2, 5468, Note_off_c, 0, 84, 100
2, 5472, Note_on_c, 0, 85, 80
2, 5564, Note_off_c, 0, 85, 100
2, 5568, Note_on_c, 0, 86, 80
2, 5660, Note_off_c, 0, 86, 100
2, 5664, Note_on_c, 0, 76, 80
2, 5756, Note_off_c, 0, 76, 100
2, 5760, Note_on_c, 0, 79, 80
2, 5948, Note_off_c, 0, 79, 100
2, 5952, Note_on_c, 0, 77, 80
2, 6140, Note_off_c, 0, 77, 100
2, 6240, Note_on_c, 0, 77, 80
2, 6240, Note_on_c, 0, 65, 80
2, 6332, Note_off_c, 0, 77, 100
2, 6332, Note_off_c, 0, 65, 100
2, 6336, Note_on_c, 0, 79, 80
2, 6336, Note_on_c, 0, 67, 80
2, 6428, Note_off_c, 0, 79, 100
2, 6428, Note_off_c, 0, 67, 100
2, 6432, Note_on_c, 0, 77, 80
2, 6432, Note_on_c, 0, 65, 80
2, 6524, Note_off_c, 0, 77, 100
2, 6524, Note_off_c, 0, 65, 100
2, 6528, Note_on_c, 0, 75, 80
2, 6528, Note_on_c, 0, 63, 80
2, 6620, Note_off_c, 0, 75, 100
2, 6620, Note_off_c, 0, 63, 100
2, 6624, Note_on_c, 0, 62, 80
2, 6624, Note_on_c, 0, 74, 80
2, 6716, Note_off_c, 0, 62, 100
2, 6716, Note_off_c, 0, 74, 100
2, 6720, Note_on_c, 0, 72, 80
2, 6720, Note_on_c, 0, 60, 80
2, 6812, Note_off_c, 0, 72, 100
2, 6812, Note_off_c, 0, 60, 100
2, 6816, Note_on_c, 0, 70, 80
2, 6816, Note_on_c, 0, 58, 80
2, 6908, Note_off_c, 0, 70, 100
2, 6908, Note_off_c, 0, 58, 100
2, 6912, Note_on_c, 0, 69, 80
2, 6912, Note_on_c, 0, 57, 80
2, 7100, Note_off_c, 0, 69, 100
2, 7100, Note_off_c, 0, 57, 100
2, 7104, Note_on_c, 0, 70, 80
2, 7104, Note_on_c, 0, 58, 80
2, 7292, Note_off_c, 0, 70, 100
2, 7292, Note_off_c, 0, 58, 100
2, 7296, Note_on_c, 0, 71, 80
2, 7296, Note_on_c, 0, 59, 80
2, 7484, Note_off_c, 0, 71, 100
2, 7484, Note_off_c, 0, 59, 100
2, 7488, Note_on_c, 0, 72, 80
2, 7488, Note_on_c, 0, 60, 80
2, 7772, Note_off_c, 0, 72, 100
2, 7772, Note_off_c, 0, 60, 100
2, 7776, Note_on_c, 0, 78, 80
2, 7776, Note_on_c, 0, 66, 80
2, 7868, Note_off_c, 0, 78, 100
2, 7868, Note_off_c, 0, 66, 100
2, 7872, Note_on_c, 0, 81, 80
2, 7872, Note_on_c, 0, 69, 80
2, 7964, Note_off_c, 0, 81, 100
2, 7964, Note_off_c, 0, 69, 100
2, 7968, Note_on_c, 0, 79, 80
2, 7968, Note_on_c, 0, 67, 80
2, 8060, Note_off_c, 0, 79, 100
2, 8060, Note_off_c, 0, 67, 100
2, 8064, Note_on_c, 0, 77, 80
2, 8064, Note_on_c, 0, 65, 80
2, 8156, Note_off_c, 0, 77, 100
2, 8156, Note_off_c, 0, 65, 100
2, 8160, Note_on_c, 0, 75, 80
2, 8160, Note_on_c, 0, 63, 80
2, 8252, Note_off_c, 0, 75, 100
2, 8252, Note_off_c, 0, 63, 100
2, 8256, Note_on_c, 0, 74, 80
2, 8256, Note_on_c, 0, 62, 80
2, 8348, Note_off_c, 0, 74, 100
2, 8348, Note_off_c, 0, 62, 100
2, 8352, Note_on_c, 0, 72, 80
2, 8352, Note_on_c, 0, 60, 80
2, 8444, Note_off_c, 0, 72, 100
2, 8444, Note_off_c, 0, 60, 100
2, 8448, Note_on_c, 0, 70, 80
2, 8448, Note_on_c, 0, 58, 80
2, 8636, Note_off_c, 0, 70, 100
2, 8636, Note_off_c, 0, 58, 100
2, 8640, Note_on_c, 0, 72, 80
2, 8640, Note_on_c, 0, 60, 80
2, 8828, Note_off_c, 0, 72, 100
2, 8828, Note_off_c, 0, 60, 100
2, 8832, Note_on_c, 0, 73, 80
2, 8832, Note_on_c, 0, 61, 80
2, 9020, Note_off_c, 0, 73, 100
2, 9020, Note_off_c, 0, 61, 100
2, 9024, Note_on_c, 0, 74, 80
2, 9024, Note_on_c, 0, 62, 80
2, 9308, Note_off_c, 0, 74, 100
2, 9308, Note_off_c, 0, 62, 100
2, 9312, Note_on_c, 0, 77, 80
2, 9404, Note_off_c, 0, 77, 100
2, 9408, Note_on_c, 0, 68, 80
2, 9408, Note_on_c, 0, 79, 80
2, 9500, Note_off_c, 0, 79, 100
2, 9504, Note_on_c, 0, 74, 80
2, 9596, Note_off_c, 0, 74, 100
2, 9600, Note_on_c, 0, 77, 80
2, 9692, Note_off_c, 0, 77, 100
2, 9696, Note_on_c, 0, 75, 81
2, 9788, Note_off_c, 0, 68, 100
2, 9788, Note_off_c, 0, 75, 100
2, 9792, Note_on_c, 0, 69, 82
2, 9792, Note_on_c, 0, 77, 82
2, 9884, Note_off_c, 0, 77, 100
2, 9888, Note_on_c, 0, 72, 83
2, 9980, Note_off_c, 0, 69, 100
2, 9980, Note_off_c, 0, 72, 100
2, 9984, Note_on_c, 0, 70, 84
2, 9984, Note_on_c, 0, 75, 84
2, 10076, Note_off_c, 0, 75, 100
2, 10080, Note_on_c, 0, 74, 85
2, 10172, Note_off_c, 0, 70, 100
2, 10172, Note_off_c, 0, 74, 100
2, 10176, Note_on_c, 0, 68, 86
2, 10176, Note_on_c, 0, 79, 86
2, 10268, Note_off_c, 0, 79, 100
2, 10272, Note_on_c, 0, 74, 87
2, 10364, Note_off_c, 0, 74, 100
2, 10368, Note_on_c, 0, 77, 88
2, 10460, Note_off_c, 0, 77, 100
2, 10464, Note_on_c, 0, 75, 89
2, 10556, Note_off_c, 0, 68, 100
2, 10556, Note_off_c, 0, 75, 100
2, 10560, Note_on_c, 0, 69, 90
2, 10560, Note_on_c, 0, 77, 90
2, 10652, Note_off_c, 0, 77, 100
2, 10656, Note_on_c, 0, 72, 91
2, 10748, Note_off_c, 0, 69, 100
2, 10748, Note_off_c, 0, 72, 100
2, 10752, Note_on_c, 0, 75, 92
2, 10752, Note_on_c, 0, 70, 92
2, 10844, Note_off_c, 0, 75, 100
2, 10844, Note_off_c, 0, 70, 100
2, 10848, Note_on_c, 0, 74, 93
2, 10848, Note_on_c, 0, 62, 93
2, 10940, Note_off_c, 0, 74, 100
2, 10940, Note_off_c, 0, 62, 100
2, 10944, Note_on_c, 0, 75, 94
2, 10944, Note_on_c, 0, 63, 94
2, 11036, Note_off_c, 0, 75, 100
2, 11036, Note_off_c, 0, 63, 100
2, 11040, Note_on_c, 0, 77, 95
2, 11040, Note_on_c, 0, 65, 95
2, 11132, Note_off_c, 0, 77, 100
2, 11132, Note_off_c, 0, 65, 100
2, 11136, Note_on_c, 0, 78, 96
2, 11136, Note_on_c, 0, 66, 96
2, 11228, Note_off_c, 0, 78, 100
2, 11228, Note_off_c, 0, 66, 100
2, 11232, Note_on_c, 0, 79, 97
2, 11232, Note_on_c, 0, 67, 97
2, 11324, Note_off_c, 0, 79, 100
2, 11324, Note_off_c, 0, 67, 100
2, 11328, Note_on_c, 0, 81, 98
2, 11328, Note_on_c, 0, 69, 98
2, 11420, Note_off_c, 0, 81, 100
2, 11420, Note_off_c, 0, 69, 100
2, 11424, Note_on_c, 0, 82, 99
2, 11424, Note_on_c, 0, 70, 99
2, 11516, Note_off_c, 0, 82, 100
2, 11516, Note_off_c, 0, 70, 100
2, 11520, Note_on_c, 0, 70, 100
2, 11520, Note_on_c, 0, 58, 100
2, 11708, Note_off_c, 0, 70, 100
2, 11708, Note_off_c, 0, 58, 100
2, 11712, Note_on_c, 0, 72, 100
2, 11712, Note_on_c, 0, 60, 100
2, 11900, Note_off_c, 0, 72, 100
2, 11900, Note_off_c, 0, 60, 100
2, 11904, Note_on_c, 0, 73, 80
2, 11904, Note_on_c, 0, 61, 80
2, 12092, Note_off_c, 0, 73, 100
2, 12092, Note_off_c, 0, 61, 100
2, 12096, Note_on_c, 0, 74, 80
2, 12096, Note_on_c, 0, 62, 80
2, 12332, Note_off_c, 0, 74, 100
2, 12332, Note_off_c, 0, 62, 100
2, 12336, Note_on_c, 0, 70, 80
2, 12384, Note_on_c, 0, 69, 80
2, 12428, Note_off_c, 0, 70, 100
2, 12432, Note_on_c, 0, 70, 80
2, 12476, Note_off_c, 0, 69, 100
2, 12480, Note_on_c, 0, 71, 80
2, 12524, Note_off_c, 0, 70, 100
2, 12528, Note_on_c, 0, 72, 80
2, 12572, Note_off_c, 0, 71, 100
2, 12576, Note_on_c, 0, 73, 80
2, 12620, Note_off_c, 0, 72, 100
2, 12624, Note_on_c, 0, 74, 80
2, 12668, Note_off_c, 0, 73, 100
2, 12672, Note_on_c, 0, 75, 80
2, 12716, Note_off_c, 0, 74, 100
2, 12720, Note_on_c, 0, 76, 80
2, 12764, Note_off_c, 0, 75, 100
2, 12768, Note_on_c, 0, 77, 80
2, 12812, Note_off_c, 0, 76, 100
2, 12816, Note_on_c, 0, 78, 80
2, 12860, Note_off_c, 0, 77, 100
2, 12864, Note_on_c, 0, 79, 80
2, 12908, Note_off_c, 0, 78, 100
2, 12912, Note_on_c, 0, 80, 80
2, 12956, Note_off_c, 0, 79, 100
2, 12960, Note_on_c, 0, 81, 80
2, 13004, Note_off_c, 0, 80, 100
2, 13008, Note_on_c, 0, 82, 80
2, 13052, Note_off_c, 0, 81, 100
2, 13056, Note_on_c, 0, 70, 80
2, 13100, Note_off_c, 0, 82, 100
2, 13104, Note_on_c, 0, 72, 80
2, 13148, Note_off_c, 0, 70, 100
2, 13152, Note_on_c, 0, 69, 80
2, 13196, Note_off_c, 0, 72, 100
2, 13200, Note_on_c, 0, 70, 80
2, 13244, Note_off_c, 0, 69, 100
2, 13248, Note_on_c, 0, 74, 80
2, 13248, Note_on_c, 0, 63, 80
2, 13292, Note_off_c, 0, 70, 100
2, 13388, Note_off_c, 0, 74, 100
2, 13392, Note_on_c, 0, 72, 80
2, 13436, Note_off_c, 0, 63, 100
2, 13436, Note_off_c, 0, 72, 100
2, 13440, Note_on_c, 0, 70, 80
2, 13440, Note_on_c, 0, 62, 80
2, 13628, Note_off_c, 0, 70, 100
2, 13628, Note_off_c, 0, 62, 100
2, 13824, Note_on_c, 0, 74, 80
2, 13824, Note_on_c, 0, 65, 80
2, 14204, Note_off_c, 0, 74, 100
2, 14204, Note_off_c, 0, 65, 100
2, 14208, Note_on_c, 0, 72, 80
2, 14256, Note_on_c, 0, 74, 80
2, 14300, Note_off_c, 0, 72, 100
2, 14304, Note_on_c, 0, 72, 80
2, 14348, Note_off_c, 0, 74, 100
2, 14352, Note_on_c, 0, 74, 80
2, 14396, Note_off_c, 0, 72, 100
2, 14400, Note_on_c, 0, 71, 80
2, 14444, Note_off_c, 0, 74, 100
2, 14448, Note_on_c, 0, 72, 80
2, 14492, Note_off_c, 0, 71, 100
2, 14496, Note_on_c, 0, 74, 80
2, 14540, Note_off_c, 0, 72, 100
2, 14544, Note_on_c, 0, 75, 80
2, 14588, Note_off_c, 0, 74, 100
2, 14592, Note_on_c, 0, 67, 80
2, 14636, Note_off_c, 0, 75, 100
2, 14780, Note_off_c, 0, 67, 100
2, 14784, Note_on_c, 0, 69, 80
2, 14784, Note_on_c, 0, 63, 80
2, 14972, Note_off_c, 0, 69, 100
2, 14972, Note_off_c, 0, 63, 100
2, 14976, Note_on_c, 0, 70, 80
2, 14976, Note_on_c, 0, 62, 80
2, 15164, Note_off_c, 0, 70, 100
2, 15168, Note_on_c, 0, 65, 80
2, 15260, Note_off_c, 0, 65, 100
2, 15356, Note_off_c, 0, 62, 100
2, 15360, Note_on_c, 0, 74, 80
2, 15360, Note_on_c, 0, 65, 80
2, 15740, Note_off_c, 0, 74, 100
2, 15740, Note_off_c, 0, 65, 100
2, 15744, Note_on_c, 0, 72, 80
2, 15744, Note_on_c, 0, 67, 80
2, 15836, Note_off_c, 0, 72, 100
2, 15840, Note_on_c, 0, 74, 80
2, 15872, Note_on_c, 0, 72, 80
2, 15900, Note_off_c, 0, 74, 100
2, 15904, Note_on_c, 0, 71, 80
2, 15932, Note_off_c, 0, 72, 100
2, 15936, Note_on_c, 0, 72, 80
2, 15964, Note_off_c, 0, 71, 100
2, 16028, Note_off_c, 0, 72, 100
2, 16032, Note_on_c, 0, 74, 80
2, 16124, Note_off_c, 0, 67, 100
2, 16124, Note_off_c, 0, 74, 100
2, 16128, Note_on_c, 0, 70, 80
2, 16128, Note_on_c, 0, 64, 80
2, 16220, Note_off_c, 0, 70, 100
2, 16224, Note_on_c, 0, 72, 80
2, 16256, Note_on_c, 0, 70, 80
2, 16284, Note_off_c, 0, 72, 100
2, 16288, Note_on_c, 0, 69, 80
2, 16316, Note_off_c, 0, 70, 100
2, 16320, Note_on_c, 0, 70, 80
2, 16348, Note_off_c, 0, 69, 100
2, 16412, Note_off_c, 0, 70, 100
2, 16416, Note_on_c, 0, 72, 80
2, 16508, Note_off_c, 0, 64, 100
2, 16508, Note_off_c, 0, 72, 100
2, 16512, Note_on_c, 0, 65, 80
2, 16512, Note_on_c, 0, 70, 80
2, 16700, Note_off_c, 0, 70, 100
2, 16704, Note_on_c, 0, 69, 80
2, 16796, Note_off_c, 0, 69, 100
2, 16892, Note_off_c, 0, 65, 100
2, 17088, Note_on_c, 0, 69, 80
2, 17136, Note_on_c, 0, 77, 81
2, 17184, Note_on_c, 0, 81, 82
2, 17468, Note_off_c, 0, 69, 100
2, 17468, Note_off_c, 0, 77, 100
2, 17468, Note_off_c, 0, 81, 100
2, 17472, Note_on_c, 0, 69, 89
2, 17520, Note_on_c, 0, 77, 90
2, 17568, Note_on_c, 0, 81, 91
2, 17852, Note_off_c, 0, 69, 100
2, 17852, Note_off_c, 0, 77, 100
2, 17852, Note_off_c, 0, 81, 100
2, 17856, Note_on_c, 0, 69, 98
2, 17904, Note_on_c, 0, 77, 99
2, 17952, Note_on_c, 0, 81, 100
2, 18236, Note_off_c, 0, 69, 100
2, 18236, Note_off_c, 0, 81, 100
2, 18240, Note_on_c, 0, 69, 107
2, 18288, Note_on_c, 0, 77, 108
2, 18336, Note_on_c, 0, 81, 109
2, 18436, Note_off_c, 0, 77, 100
2, 18620, Note_off_c, 0, 69, 100
2, 18620, Note_off_c, 0, 77, 64
2, 18620, Note_off_c, 0, 81, 100
2, 18624, Note_on_c, 0, 77, 110
2, 18624, Note_on_c, 0, 89, 110
2, 19004, Note_off_c, 0, 77, 64
2, 19004, Note_off_c, 0, 89, 100
2, 19008, Note_on_c, 0, 76, 110
2, 19008, Note_on_c, 0, 88, 110
2, 19100, Note_off_c, 0, 76, 100
2, 19100, Note_off_c, 0, 88, 100
2, 19392, Note_on_c, 0, 74, 110
2, 19392, Note_on_c, 0, 86, 110
2, 19772, Note_off_c, 0, 74, 100
2, 19772, Note_off_c, 0, 86, 100
2, 19776, Note_on_c, 0, 72, 110
2, 19776, Note_on_c, 0, 84, 110
2, 19868, Note_off_c, 0, 72, 100
2, 19868, Note_off_c, 0, 84, 100
2, 20160, Note_on_c, 0, 82, 110
2, 20160, Note_on_c, 0, 70, 110
2, 20444, Note_off_c, 0, 70, 100
2, 20444, Note_off_c, 0, 82, 100
2, 20448, Note_on_c, 0, 69, 110
2, 20448, Note_on_c, 0, 81, 110
2, 20636, Note_off_c, 0, 69, 100
2, 20636, Note_off_c, 0, 81, 100
2, 20640, Note_on_c, 0, 79, 110
2, 20640, Note_on_c, 0, 67, 110
2, 20828, Note_off_c, 0, 79, 100
2, 20828, Note_off_c, 0, 67, 100
2, 20832, Note_on_c, 0, 77, 110
2, 20832, Note_on_c, 0, 65, 110
2, 21020, Note_off_c, 0, 77, 64
2, 21020, Note_off_c, 0, 65, 100
2, 21024, Note_on_c, 0, 79, 110
2, 21024, Note_on_c, 0, 67, 110
2, 21116, Note_off_c, 0, 79, 100
2, 21116, Note_off_c, 0, 67, 100
2, 21120, Note_on_c, 0, 80, 110
2, 21120, Note_on_c, 0, 68, 110
2, 21308, Note_off_c, 0, 80, 100
2, 21308, Note_off_c, 0, 68, 100
2, 21312, Note_on_c, 0, 81, 110
2, 21312, Note_on_c, 0, 69, 110
2, 21404, Note_off_c, 0, 81, 100
2, 21404, Note_off_c, 0, 69, 100
2, 21504, Note_on_c, 0, 65, 110
2, 21504, Note_on_c, 0, 69, 110
2, 21692, Note_off_c, 0, 69, 100
2, 21696, Note_on_c, 0, 71, 110
2, 22076, Note_off_c, 0, 65, 100
2, 22076, Note_off_c, 0, 71, 100
2, 22080, Note_on_c, 0, 72, 110
2, 22080, Note_on_c, 0, 64, 110
2, 22268, Note_off_c, 0, 72, 100
2, 22268, Note_off_c, 0, 64, 100
2, 22272, Note_on_c, 0, 62, 110
2, 22272, Note_on_c, 0, 65, 110
2, 22460, Note_off_c, 0, 65, 100
2, 22464, Note_on_c, 0, 67, 110
2, 22652, Note_off_c, 0, 67, 100
2, 22656, Note_on_c, 0, 68, 110
2, 22844, Note_off_c, 0, 62, 100
2, 22844, Note_off_c, 0, 68, 100
2, 22848, Note_on_c, 0, 69, 110
2, 22848, Note_on_c, 0, 60, 110
2, 23036, Note_off_c, 0, 69, 100
2, 23036, Note_off_c, 0, 60, 100
2, 23040, Note_on_c, 0, 62, 110
2, 23040, Note_on_c, 0, 58, 110
2, 23228, Note_off_c, 0, 62, 100
2, 23232, Note_on_c, 0, 64, 110
2, 23420, Note_off_c, 0, 64, 100
2, 23424, Note_on_c, 0, 65, 110
2, 23516, Note_off_c, 0, 58, 100
2, 23516, Note_off_c, 0, 65, 100
2, 23520, Note_on_c, 0, 57, 110
2, 23708, Note_off_c, 0, 57, 100
2, 23712, Note_on_c, 0, 55, 110
2, 23900, Note_off_c, 0, 55, 100
2, 23904, Note_on_c, 0, 53, 110
2, 24092, Note_off_c, 0, 53, 100
2, 24096, Note_on_c, 0, 52, 110
2, 24188, Note_off_c, 0, 52, 100
2, 24192, Note_on_c, 0, 53, 110
2, 24240, Note_on_c, 0, 45, 80
2, 24284, Note_off_c, 0, 53, 100
2, 24288, Note_on_c, 0, 48, 80
2, 24332, Note_off_c, 0, 45, 100
2, 24336, Note_on_c, 0, 53, 80
2, 24380, Note_off_c, 0, 48, 100
2, 24384, Note_on_c, 0, 57, 80
2, 24428, Note_off_c, 0, 53, 100
2, 24432, Note_on_c, 0, 60, 80
2, 24476, Note_off_c, 0, 57, 100
2, 24480, Note_on_c, 0, 65, 80
2, 24524, Note_off_c, 0, 60, 100
2, 24528, Note_on_c, 0, 69, 80
2, 24572, Note_off_c, 0, 65, 100
2, 24576, Note_on_c, 0, 60, 80
2, 24620, Note_off_c, 0, 69, 100
2, 24624, Note_on_c, 0, 65, 80
2, 24668, Note_off_c, 0, 60, 100
2, 24672, Note_on_c, 0, 69, 80
2, 24716, Note_off_c, 0, 65, 100
2, 24720, Note_on_c, 0, 72, 80
2, 24764, Note_off_c, 0, 69, 100
2, 24768, Note_on_c, 0, 65, 80
2, 24812, Note_off_c, 0, 72, 100
2, 24816, Note_on_c, 0, 69, 80
2, 24860, Note_off_c, 0, 65, 100
2, 24864, Note_on_c, 0, 72, 80
2, 24908, Note_off_c, 0, 69, 100
2, 24912, Note_on_c, 0, 77, 80
2, 24956, Note_off_c, 0, 72, 100
2, 24960, Note_on_c, 0, 76, 80
2, 25004, Note_off_c, 0, 77, 64
2, 25008, Note_on_c, 0, 82, 80
2, 25052, Note_off_c, 0, 76, 100
2, 25056, Note_on_c, 0, 79, 80
2, 25100, Note_off_c, 0, 82, 100
2, 25104, Note_on_c, 0, 76, 80
2, 25148, Note_off_c, 0, 79, 100
2, 25152, Note_on_c, 0, 72, 80
2, 25196, Note_off_c, 0, 76, 100
2, 25200, Note_on_c, 0, 79, 80
2, 25244, Note_off_c, 0, 72, 100
2, 25248, Note_on_c, 0, 76, 80
2, 25292, Note_off_c, 0, 79, 100
2, 25296, Note_on_c, 0, 72, 80
2, 25340, Note_off_c, 0, 76, 100
2, 25344, Note_on_c, 0, 70, 80
2, 25388, Note_off_c, 0, 72, 100
2, 25392, Note_on_c, 0, 76, 80
2, 25436, Note_off_c, 0, 70, 100
2, 25440, Note_on_c, 0, 72, 80
2, 25484, Note_off_c, 0, 76, 100
2, 25488, Note_on_c, 0, 70, 80
2, 25532, Note_off_c, 0, 72, 100
2, 25536, Note_on_c, 0, 67, 80
2, 25580, Note_off_c, 0, 70, 100
2, 25584, Note_on_c, 0, 72, 80
2, 25628, Note_off_c, 0, 67, 100
2, 25632, Note_on_c, 0, 70, 80
2, 25676, Note_off_c, 0, 72, 100
2, 25680, Note_on_c, 0, 67, 80
2, 25724, Note_off_c, 0, 70, 100
2, 25728, Note_on_c, 0, 53, 80
2, 25772, Note_off_c, 0, 67, 100
2, 25776, Note_on_c, 0, 45, 80
2, 25820, Note_off_c, 0, 53, 100
2, 25824, Note_on_c, 0, 48, 80
2, 25868, Note_off_c, 0, 45, 100
2, 25872, Note_on_c, 0, 53, 80
2, 25916, Note_off_c, 0, 48, 100
2, 25920, Note_on_c, 0, 57, 80
2, 25964, Note_off_c, 0, 53, 100
2, 25968, Note_on_c, 0, 60, 80
2, 26012, Note_off_c, 0, 57, 100
2, 26016, Note_on_c, 0, 65, 80
2, 26060, Note_off_c, 0, 60, 100
2, 26064, Note_on_c, 0, 69, 80
2, 26108, Note_off_c, 0, 65, 100
2, 26112, Note_on_c, 0, 60, 80
2, 26156, Note_off_c, 0, 69, 100
2, 26160, Note_on_c, 0, 65, 80
2, 26204, Note_off_c, 0, 60, 100
2, 26208, Note_on_c, 0, 69, 80
2, 26252, Note_off_c, 0, 65, 100
2, 26256, Note_on_c, 0, 72, 80
2, 26300, Note_off_c, 0, 69, 100
2, 26304, Note_on_c, 0, 65, 80
2, 26348, Note_off_c, 0, 72, 100
2, 26352, Note_on_c, 0, 69, 80
2, 26396, Note_off_c, 0, 65, 100
2, 26400, Note_on_c, 0, 72, 80
2, 26444, Note_off_c, 0, 69, 100
2, 26448, Note_on_c, 0, 77, 80
2, 26492, Note_off_c, 0, 72, 100
2, 26496, Note_on_c, 0, 76, 80
2, 26540, Note_off_c, 0, 77, 64
2, 26544, Note_on_c, 0, 82, 80
2, 26588, Note_off_c, 0, 76, 100
2, 26592, Note_on_c, 0, 79, 80
2, 26636, Note_off_c, 0, 82, 100
2, 26640, Note_on_c, 0, 76, 80
2, 26684, Note_off_c, 0, 79, 100
2, 26688, Note_on_c, 0, 72, 80
2, 26732, Note_off_c, 0, 76, 100
2, 26736, Note_on_c, 0, 79, 80
2, 26780, Note_off_c, 0, 72, 100
2, 26784, Note_on_c, 0, 76, 80
2, 26828, Note_off_c, 0, 79, 100
2, 26832, Note_on_c, 0, 72, 80
2, 26876, Note_off_c, 0, 76, 100
2, 26880, Note_on_c, 0, 70, 80
2, 26924, Note_off_c, 0, 72, 100
2, 26928, Note_on_c, 0, 76, 80
2, 26972, Note_off_c, 0, 70, 100
2, 26976, Note_on_c, 0, 72, 80
2, 27020, Note_off_c, 0, 76, 100
2, 27024, Note_on_c, 0, 70, 80
2, 27068, Note_off_c, 0, 72, 100
2, 27072, Note_on_c, 0, 67, 80
2, 27116, Note_off_c, 0, 70, 100
2, 27120, Note_on_c, 0, 72, 80
2, 27164, Note_off_c, 0, 67, 100
2, 27168, Note_on_c, 0, 70, 80
2, 27212, Note_off_c, 0, 72, 100
2, 27216, Note_on_c, 0, 67, 80
2, 27260, Note_off_c, 0, 70, 100
2, 27264, Note_on_c, 0, 69, 80
2, 27308, Note_off_c, 0, 67, 100
2, 27312, Note_on_c, 0, 57, 81
2, 27356, Note_off_c, 0, 69, 100
2, 27360, Note_on_c, 0, 60, 81
2, 27404, Note_off_c, 0, 57, 100
2, 27408, Note_on_c, 0, 65, 82
2, 27452, Note_off_c, 0, 60, 100
2, 27456, Note_on_c, 0, 69, 83
2, 27500, Note_off_c, 0, 65, 100
2, 27504, Note_on_c, 0, 72, 83
2, 27548, Note_off_c, 0, 69, 100
2, 27552, Note_on_c, 0, 77, 84
2, 27596, Note_off_c, 0, 72, 100
2, 27600, Note_on_c, 0, 81, 85
2, 27648, Note_on_c, 0, 72, 85
2, 27692, Note_off_c, 0, 81, 100
2, 27696, Note_on_c, 0, 77, 86
2, 27740, Note_off_c, 0, 72, 100
2, 27744, Note_on_c, 0, 81, 87
2, 27788, Note_off_c, 0, 77, 100
2, 27792, Note_on_c, 0, 84, 87
2, 27836, Note_off_c, 0, 81, 100
2, 27840, Note_on_c, 0, 77, 88
2, 27884, Note_off_c, 0, 84, 100
2, 27888, Note_on_c, 0, 81, 88
2, 27932, Note_off_c, 0, 77, 100
2, 27932, Note_off_c, 0, 77, 64
2, 27936, Note_on_c, 0, 84, 89
2, 27980, Note_off_c, 0, 81, 100
2, 27984, Note_on_c, 0, 89, 90
2, 28028, Note_off_c, 0, 84, 100
2, 28076, Note_off_c, 0, 89, 100
2, 28080, Note_on_c, 0, 57, 91
2, 28128, Note_on_c, 0, 60, 92
2, 28172, Note_off_c, 0, 57, 100
2, 28176, Note_on_c, 0, 65, 92
2, 28220, Note_off_c, 0, 60, 100
2, 28224, Note_on_c, 0, 69, 93
2, 28268, Note_off_c, 0, 65, 100
2, 28272, Note_on_c, 0, 72, 94
2, 28316, Note_off_c, 0, 69, 100
2, 28320, Note_on_c, 0, 77, 94
2, 28364, Note_off_c, 0, 72, 100
2, 28368, Note_on_c, 0, 81, 95
2, 28416, Note_on_c, 0, 72, 95
2, 28460, Note_off_c, 0, 81, 100
2, 28464, Note_on_c, 0, 77, 96
2, 28508, Note_off_c, 0, 72, 100
2, 28512, Note_on_c, 0, 81, 97
2, 28556, Note_off_c, 0, 77, 100
2, 28560, Note_on_c, 0, 84, 97
2, 28604, Note_off_c, 0, 81, 100
2, 28608, Note_on_c, 0, 77, 98
2, 28652, Note_off_c, 0, 84, 100
2, 28656, Note_on_c, 0, 81, 99
2, 28700, Note_off_c, 0, 77, 100
2, 28700, Note_off_c, 0, 77, 64
2, 28704, Note_on_c, 0, 84, 99
2, 28748, Note_off_c, 0, 81, 100
2, 28752, Note_on_c, 0, 89, 100
2, 28796, Note_off_c, 0, 84, 100
2, 28844, Note_off_c, 0, 89, 100
2, 28848, Note_on_c, 0, 58, 101
2, 28896, Note_on_c, 0, 61, 102
2, 28940, Note_off_c, 0, 58, 100
2, 28944, Note_on_c, 0, 65, 102
2, 28988, Note_off_c, 0, 61, 100
2, 28992, Note_on_c, 0, 70, 103
2, 29036, Note_off_c, 0, 65, 100
2, 29040, Note_on_c, 0, 73, 104
2, 29084, Note_off_c, 0, 70, 100
2, 29088, Note_on_c, 0, 77, 104
2, 29132, Note_off_c, 0, 73, 100
2, 29136, Note_on_c, 0, 82, 105
2, 29184, Note_on_c, 0, 73, 106
2, 29228, Note_off_c, 0, 82, 100
2, 29232, Note_on_c, 0, 77, 106
2, 29276, Note_off_c, 0, 73, 100
2, 29280, Note_on_c, 0, 82, 107
2, 29324, Note_off_c, 0, 77, 100
2, 29328, Note_on_c, 0, 85, 108
2, 29372, Note_off_c, 0, 82, 100
2, 29376, Note_on_c, 0, 77, 108
2, 29420, Note_off_c, 0, 85, 100
2, 29424, Note_on_c, 0, 82, 109
2, 29468, Note_off_c, 0, 77, 100
2, 29468, Note_off_c, 0, 77, 64
2, 29472, Note_on_c, 0, 85, 109
2, 29516, Note_off_c, 0, 82, 100
2, 29520, Note_on_c, 0, 89, 110
2, 29564, Note_off_c, 0, 85, 100
2, 29568, Note_on_c, 0, 76, 110
2, 29612, Note_off_c, 0, 89, 100
2, 29616, Note_on_c, 0, 88, 110
2, 29660, Note_off_c, 0, 76, 100
2, 29664, Note_on_c, 0, 85, 110
2, 29708, Note_off_c, 0, 88, 100
2, 29712, Note_on_c, 0, 82, 110
2, 29756, Note_off_c, 0, 85, 100
2, 29760, Note_on_c, 0, 76, 110
2, 29804, Note_off_c, 0, 82, 100
2, 29808, Note_on_c, 0, 73, 110
2, 29852, Note_off_c, 0, 76, 100
2, 29856, Note_on_c, 0, 70, 110
2, 29900, Note_off_c, 0, 73, 100
2, 29904, Note_on_c, 0, 64, 110
2, 29948, Note_off_c, 0, 70, 100
2, 29952, Note_on_c, 0, 61, 110
2, 29996, Note_off_c, 0, 64, 100
2, 30000, Note_on_c, 0, 63, 110
2, 30044, Note_off_c, 0, 61, 100
2, 30048, Note_on_c, 0, 61, 110
2, 30092, Note_off_c, 0, 63, 100
2, 30096, Note_on_c, 0, 60, 110
2, 30140, Note_off_c, 0, 61, 100
2, 30144, Note_on_c, 0, 58, 110
2, 30188, Note_off_c, 0, 60, 100
2, 30192, Note_on_c, 0, 61, 110
2, 30236, Note_off_c, 0, 58, 100
2, 30240, Note_on_c, 0, 60, 110
2, 30284, Note_off_c, 0, 61, 100
2, 30288, Note_on_c, 0, 58, 110
2, 30332, Note_off_c, 0, 60, 100
2, 30336, Note_on_c, 0, 57, 110
2, 30380, Note_off_c, 0, 58, 100
2, 30524, Note_off_c, 0, 57, 100
2, 31584, Note_on_c, 0, 60, 80
2, 31676, Note_off_c, 0, 60, 100
2, 31680, Note_on_c, 0, 62, 80
2, 31772, Note_off_c, 0, 62, 100
2, 31776, Note_on_c, 0, 60, 80
2, 31868, Note_off_c, 0, 60, 100
2, 31872, Note_on_c, 0, 58, 80
2, 31964, Note_off_c, 0, 58, 100
2, 31968, Note_on_c, 0, 57, 80
2, 32060, Note_off_c, 0, 57, 100
2, 32064, Note_on_c, 0, 55, 80
2, 32156, Note_off_c, 0, 55, 100
2, 32160, Note_on_c, 0, 53, 80
2, 32252, Note_off_c, 0, 53, 100
2, 32256, Note_on_c, 0, 53, 80
2, 32444, Note_off_c, 0, 53, 100
2, 33120, Note_on_c, 0, 63, 80
2, 33152, Note_on_c, 0, 65, 80
2, 33180, Note_off_c, 0, 63, 100
2, 33184, Note_on_c, 0, 63, 80
2, 33212, Note_off_c, 0, 65, 100
2, 33216, Note_on_c, 0, 65, 80
2, 33244, Note_off_c, 0, 63, 100
2, 33308, Note_off_c, 0, 65, 100
2, 33312, Note_on_c, 0, 63, 80
2, 33404, Note_off_c, 0, 63, 100
2, 33408, Note_on_c, 0, 62, 80
2, 33500, Note_off_c, 0, 62, 100
2, 33504, Note_on_c, 0, 60, 80
2, 33596, Note_off_c, 0, 60, 100
2, 33600, Note_on_c, 0, 58, 80
2, 33692, Note_off_c, 0, 58, 100
2, 33696, Note_on_c, 0, 57, 80
2, 33788, Note_off_c, 0, 57, 100
2, 33792, Note_on_c, 0, 57, 80
2, 33980, Note_off_c, 0, 57, 100
2, 34080, Note_on_c, 0, 72, 80
2, 34172, Note_off_c, 0, 72, 100
2, 34176, Note_on_c, 0, 74, 80
2, 34268, Note_off_c, 0, 74, 100
2, 34272, Note_on_c, 0, 72, 80
2, 34364, Note_off_c, 0, 72, 100
2, 34368, Note_on_c, 0, 70, 80
2, 34460, Note_off_c, 0, 70, 100
2, 34464, Note_on_c, 0, 69, 80
2, 34556, Note_off_c, 0, 69, 100
2, 34560, Note_on_c, 0, 67, 80
2, 34652, Note_off_c, 0, 67, 100
2, 34656, Note_on_c, 0, 65, 80
2, 34748, Note_off_c, 0, 65, 100
2, 34848, Note_on_c, 0, 75, 80
2, 34940, Note_off_c, 0, 75, 100
2, 34944, Note_on_c, 0, 77, 80
2, 35040, Note_on_c, 0, 75, 80
2, 35132, Note_off_c, 0, 75, 100
2, 35136, Note_on_c, 0, 74, 80
2, 35228, Note_off_c, 0, 74, 100
2, 35232, Note_on_c, 0, 72, 80
2, 35324, Note_off_c, 0, 72, 100
2, 35328, Note_on_c, 0, 70, 80
2, 35420, Note_off_c, 0, 70, 100
2, 35424, Note_on_c, 0, 69, 80
2, 35516, Note_off_c, 0, 69, 100
2, 35520, Note_on_c, 0, 77, 80
2, 35612, Note_off_c, 0, 77, 100
2, 35612, Note_off_c, 0, 77, 64
2, 35616, Note_on_c, 0, 75, 80
2, 35708, Note_off_c, 0, 75, 100
2, 35712, Note_on_c, 0, 74, 80
2, 35804, Note_off_c, 0, 74, 100
2, 35808, Note_on_c, 0, 72, 80
2, 35900, Note_off_c, 0, 72, 100
2, 35904, Note_on_c, 0, 70, 80
2, 35996, Note_off_c, 0, 70, 100
2, 36000, Note_on_c, 0, 69, 80
2, 36092, Note_off_c, 0, 69, 100
2, 36096, Note_on_c, 0, 77, 80
2, 36188, Note_off_c, 0, 77, 64
2, 36192, Note_on_c, 0, 75, 80
2, 36284, Note_off_c, 0, 75, 100
2, 36288, Note_on_c, 0, 74, 80
2, 36380, Note_off_c, 0, 74, 100
2, 36384, Note_on_c, 0, 72, 80
2, 36476, Note_off_c, 0, 72, 100
2, 36480, Note_on_c, 0, 70, 80
2, 36544, Note_on_c, 0, 69, 80
2, 36572, Note_off_c, 0, 70, 100
2, 36608, Note_on_c, 0, 77, 80
2, 36636, Note_off_c, 0, 69, 100
2, 36672, Note_on_c, 0, 75, 80
2, 36700, Note_off_c, 0, 77, 100
2, 36736, Note_on_c, 0, 74, 80
2, 36764, Note_off_c, 0, 75, 100
2, 36800, Note_on_c, 0, 72, 80
2, 36828, Note_off_c, 0, 74, 100
2, 36864, Note_on_c, 0, 70, 80
2, 36892, Note_off_c, 0, 72, 100
2, 36912, Note_on_c, 0, 69, 80
2, 36956, Note_off_c, 0, 70, 100
2, 36960, Note_on_c, 0, 77, 80
2, 37004, Note_off_c, 0, 69, 100
2, 37008, Note_on_c, 0, 75, 80
2, 37052, Note_off_c, 0, 77, 64
2, 37056, Note_on_c, 0, 74, 80
2, 37100, Note_off_c, 0, 75, 100
2, 37104, Note_on_c, 0, 72, 80
2, 37148, Note_off_c, 0, 74, 100
2, 37152, Note_on_c, 0, 70, 80
2, 37196, Note_off_c, 0, 72, 100
2, 37200, Note_on_c, 0, 69, 80
2, 37244, Note_off_c, 0, 70, 100
2, 37248, Note_on_c, 0, 77, 80
2, 37292, Note_off_c, 0, 69, 100
2, 37296, Note_on_c, 0, 75, 80
2, 37340, Note_off_c, 0, 77, 100
2, 37344, Note_on_c, 0, 74, 80
2, 37388, Note_off_c, 0, 75, 100
2, 37392, Note_on_c, 0, 72, 80
2, 37436, Note_off_c, 0, 74, 100
2, 37440, Note_on_c, 0, 70, 80
2, 37484, Note_off_c, 0, 72, 100
2, 37488, Note_on_c, 0, 69, 80
2, 37532, Note_off_c, 0, 70, 100
2, 37536, Note_on_c, 0, 78, 80
2, 37580, Note_off_c, 0, 69, 100
2, 37584, Note_on_c, 0, 77, 80
2, 37628, Note_off_c, 0, 78, 100
2, 37632, Note_on_c, 0, 75, 80
2, 37672, Note_on_c, 0, 74, 80
2, 37712, Note_on_c, 0, 72, 80
2, 37724, Note_off_c, 0, 75, 100
2, 37752, Note_on_c, 0, 70, 80
2, 37764, Note_off_c, 0, 74, 100
2, 37788, Note_on_c, 0, 69, 80
2, 37804, Note_off_c, 0, 72, 100
2, 37824, Note_on_c, 0, 79, 80
2, 37844, Note_off_c, 0, 70, 100
2, 37880, Note_off_c, 0, 69, 100
2, 37916, Note_off_c, 0, 79, 100
2, 37920, Note_on_c, 0, 77, 80
2, 38012, Note_off_c, 0, 77, 64
2, 38016, Note_on_c, 0, 75, 80
2, 38060, Note_off_c, 0, 77, 100
2, 38108, Note_off_c, 0, 75, 100
2, 38112, Note_on_c, 0, 74, 80
2, 38204, Note_off_c, 0, 74, 100
2, 38208, Note_on_c, 0, 72, 80
2, 38300, Note_off_c, 0, 72, 100
2, 38304, Note_on_c, 0, 70, 80
2, 38396, Note_off_c, 0, 70, 100
2, 38400, Note_on_c, 0, 69, 80
2, 38588, Note_off_c, 0, 69, 100
2, 38592, Note_on_c, 0, 70, 80
2, 38780, Note_off_c, 0, 70, 100
2, 38784, Note_on_c, 0, 71, 80
2, 38972, Note_off_c, 0, 71, 100
2, 38976, Note_on_c, 0, 72, 80
2, 39260, Note_off_c, 0, 72, 100
2, 39264, Note_on_c, 0, 78, 80
2, 39356, Note_off_c, 0, 78, 100
2, 39360, Note_on_c, 0, 81, 80
2, 39452, Note_off_c, 0, 81, 100
2, 39456, Note_on_c, 0, 79, 80
2, 39548, Note_off_c, 0, 79, 100
2, 39552, Note_on_c, 0, 77, 80
2, 39648, Note_on_c, 0, 75, 80
2, 39740, Note_off_c, 0, 75, 100
2, 39744, Note_on_c, 0, 74, 80
2, 39836, Note_off_c, 0, 74, 100
2, 39840, Note_on_c, 0, 72, 80
2, 39932, Note_off_c, 0, 72, 100
2, 39936, Note_on_c, 0, 69, 80
2, 40028, Note_off_c, 0, 69, 100
2, 40032, Note_on_c, 0, 70, 80
2, 40124, Note_off_c, 0, 70, 100
2, 40128, Note_on_c, 0, 71, 80
2, 40220, Note_off_c, 0, 71, 100
2, 40224, Note_on_c, 0, 72, 80
2, 40316, Note_off_c, 0, 72, 100
2, 40320, Note_on_c, 0, 73, 80
2, 40508, Note_off_c, 0, 73, 100
2, 40512, Note_on_c, 0, 74, 80
2, 40796, Note_off_c, 0, 74, 100
2, 40800, Note_on_c, 0, 77, 80
2, 40892, Note_off_c, 0, 77, 100
2, 40892, Note_off_c, 0, 77, 64
2, 40896, Note_on_c, 0, 79, 80
2, 40988, Note_off_c, 0, 79, 100
2, 40992, Note_on_c, 0, 74, 80
2, 41084, Note_off_c, 0, 74, 100
2, 41088, Note_on_c, 0, 77, 80
2, 41184, Note_on_c, 0, 75, 80
2, 41276, Note_off_c, 0, 75, 100
2, 41280, Note_on_c, 0, 77, 80
2, 41372, Note_off_c, 0, 77, 100
2, 41372, Note_off_c, 0, 77, 64
2, 41376, Note_on_c, 0, 72, 80
2, 41468, Note_off_c, 0, 72, 100
2, 41472, Note_on_c, 0, 75, 80
2, 41564, Note_off_c, 0, 75, 100
2, 41568, Note_on_c, 0, 74, 80
2, 41660, Note_off_c, 0, 74, 100
2, 41664, Note_on_c, 0, 79, 80
2, 41756, Note_off_c, 0, 79, 100
2, 41760, Note_on_c, 0, 74, 80
2, 41852, Note_off_c, 0, 74, 100
2, 41856, Note_on_c, 0, 77, 80
2, 41952, Note_on_c, 0, 75, 81
2, 42044, Note_off_c, 0, 75, 100
2, 42048, Note_on_c, 0, 77, 82
2, 42140, Note_off_c, 0, 77, 100
2, 42144, Note_on_c, 0, 72, 83
2, 42236, Note_off_c, 0, 72, 100
2, 42240, Note_on_c, 0, 74, 85
2, 42332, Note_off_c, 0, 74, 100
2, 42336, Note_on_c, 0, 75, 86
2, 42428, Note_off_c, 0, 75, 100
2, 42432, Note_on_c, 0, 76, 87
2, 42524, Note_off_c, 0, 76, 100
2, 42528, Note_on_c, 0, 77, 89
2, 42620, Note_off_c, 0, 77, 100
2, 42620, Note_off_c, 0, 77, 64
2, 42624, Note_on_c, 0, 78, 90
2, 42716, Note_off_c, 0, 78, 100
2, 42720, Note_on_c, 0, 79, 91
2, 42812, Note_off_c, 0, 79, 100
2, 42816, Note_on_c, 0, 81, 93
2, 42908, Note_off_c, 0, 81, 100
2, 42912, Note_on_c, 0, 82, 94
2, 43004, Note_off_c, 0, 82, 100
2, 43008, Note_on_c, 0, 84, 95
2, 43100, Note_off_c, 0, 84, 100
2, 43104, Note_on_c, 0, 85, 97
2, 43196, Note_off_c, 0, 85, 100
2, 43200, Note_on_c, 0, 86, 98
2, 43292, Note_off_c, 0, 86, 100
2, 43296, Note_on_c, 0, 76, 99
2, 43388, Note_off_c, 0, 76, 100
2, 43392, Note_on_c, 0, 79, 80
2, 43580, Note_off_c, 0, 79, 100
2, 43584, Note_on_c, 0, 77, 80
2, 43872, Note_on_c, 0, 77, 80
2, 43872, Note_on_c, 0, 65, 80
2, 43964, Note_off_c, 0, 77, 100
2, 43964, Note_off_c, 0, 65, 100
2, 43968, Note_on_c, 0, 79, 80
2, 43968, Note_on_c, 0, 67, 80
2, 44060, Note_off_c, 0, 79, 100
2, 44060, Note_off_c, 0, 67, 100
2, 44064, Note_on_c, 0, 77, 80
2, 44064, Note_on_c, 0, 65, 80
2, 44156, Note_off_c, 0, 77, 100
2, 44156, Note_off_c, 0, 77, 64
2, 44156, Note_off_c, 0, 65, 100
2, 44160, Note_on_c, 0, 75, 80
2, 44160, Note_on_c, 0, 63, 80
2, 44252, Note_off_c, 0, 75, 100
2, 44252, Note_off_c, 0, 63, 100
2, 44256, Note_on_c, 0, 62, 80
2, 44256, Note_on_c, 0, 74, 80
2, 44348, Note_off_c, 0, 62, 100
2, 44348, Note_off_c, 0, 74, 100
2, 44352, Note_on_c, 0, 72, 80
2, 44352, Note_on_c, 0, 60, 80
2, 44444, Note_off_c, 0, 72, 100
2, 44444, Note_off_c, 0, 60, 100
2, 44448, Note_on_c, 0, 70, 80
2, 44448, Note_on_c, 0, 58, 80
2, 44540, Note_off_c, 0, 70, 100
2, 44540, Note_off_c, 0, 58, 100
2, 44544, Note_on_c, 0, 69, 80
2, 44544, Note_on_c, 0, 57, 80
2, 44732, Note_off_c, 0, 69, 100
2, 44732, Note_off_c, 0, 57, 100
2, 44736, Note_on_c, 0, 70, 80
2, 44736, Note_on_c, 0, 58, 80
2, 44924, Note_off_c, 0, 70, 100
2, 44924, Note_off_c, 0, 58, 100
2, 44928, Note_on_c, 0, 71, 80
2, 44928, Note_on_c, 0, 59, 80
2, 45116, Note_off_c, 0, 71, 100
2, 45116, Note_off_c, 0, 59, 100
2, 45120, Note_on_c, 0, 72, 80
2, 45120, Note_on_c, 0, 60, 80
2, 45404, Note_off_c, 0, 72, 100
2, 45404, Note_off_c, 0, 60, 100
2, 45408, Note_on_c, 0, 78, 80
2, 45408, Note_on_c, 0, 66, 80
2, 45500, Note_off_c, 0, 78, 100
2, 45500, Note_off_c, 0, 66, 100
2, 45504, Note_on_c, 0, 81, 80
2, 45504, Note_on_c, 0, 69, 80
2, 45596, Note_off_c, 0, 81, 100
2, 45596, Note_off_c, 0, 69, 100
2, 45600, Note_on_c, 0, 79, 80
2, 45600, Note_on_c, 0, 67, 80
2, 45692, Note_off_c, 0, 79, 100
2, 45692, Note_off_c, 0, 67, 100
2, 45696, Note_on_c, 0, 77, 80
2, 45696, Note_on_c, 0, 65, 80
2, 45788, Note_off_c, 0, 77, 64
2, 45788, Note_off_c, 0, 65, 100
2, 45792, Note_on_c, 0, 75, 80
2, 45792, Note_on_c, 0, 63, 80
2, 45884, Note_off_c, 0, 75, 100
2, 45884, Note_off_c, 0, 63, 100
2, 45888, Note_on_c, 0, 74, 80
2, 45888, Note_on_c, 0, 62, 80
2, 45980, Note_off_c, 0, 74, 100
2, 45980, Note_off_c, 0, 62, 100
2, 45984, Note_on_c, 0, 72, 80
2, 45984, Note_on_c, 0, 60, 80
2, 46076, Note_off_c, 0, 72, 100
2, 46076, Note_off_c, 0, 60, 100
2, 46080, Note_on_c, 0, 69, 80
2, 46080, Note_on_c, 0, 57, 80
2, 46172, Note_off_c, 0, 69, 100
2, 46172, Note_off_c, 0, 57, 100
2, 46176, Note_on_c, 0, 70, 80
2, 46176, Note_on_c, 0, 58, 80
2, 46268, Note_off_c, 0, 70, 100
2, 46268, Note_off_c, 0, 58, 100
2, 46272, Note_on_c, 0, 71, 80
2, 46272, Note_on_c, 0, 59, 80
2, 46364, Note_off_c, 0, 71, 100
2, 46364, Note_off_c, 0, 59, 100
2, 46368, Note_on_c, 0, 72, 80
2, 46368, Note_on_c, 0, 60, 80
2, 46460, Note_off_c, 0, 72, 100
2, 46460, Note_off_c, 0, 60, 100
2, 46464, Note_on_c, 0, 73, 80
2, 46464, Note_on_c, 0, 61, 80
2, 46652, Note_off_c, 0, 73, 100
2, 46652, Note_off_c, 0, 61, 100
2, 46656, Note_on_c, 0, 74, 80
2, 46656, Note_on_c, 0, 62, 80
2, 46940, Note_off_c, 0, 74, 100
2, 46940, Note_off_c, 0, 62, 100
2, 46944, Note_on_c, 0, 77, 80
2, 47040, Note_on_c, 0, 68, 80
2, 47040, Note_on_c, 0, 79, 80
2, 47132, Note_off_c, 0, 79, 100
2, 47136, Note_on_c, 0, 74, 80
2, 47228, Note_off_c, 0, 74, 100
2, 47232, Note_on_c, 0, 77, 80
2, 47324, Note_off_c, 0, 77, 100
2, 47328, Note_on_c, 0, 75, 80
2, 47420, Note_off_c, 0, 68, 100
2, 47420, Note_off_c, 0, 75, 100
2, 47424, Note_on_c, 0, 69, 80
2, 47424, Note_on_c, 0, 77, 80
2, 47516, Note_off_c, 0, 77, 100
2, 47520, Note_on_c, 0, 72, 80
2, 47612, Note_off_c, 0, 69, 100
2, 47612, Note_off_c, 0, 72, 100
2, 47616, Note_on_c, 0, 70, 80
2, 47616, Note_on_c, 0, 75, 80
2, 47708, Note_off_c, 0, 75, 100
2, 47712, Note_on_c, 0, 74, 80
2, 47804, Note_off_c, 0, 70, 100
2, 47804, Note_off_c, 0, 74, 100
2, 47808, Note_on_c, 0, 68, 80
2, 47808, Note_on_c, 0, 79, 80
2, 47900, Note_off_c, 0, 79, 100
2, 47904, Note_on_c, 0, 74, 80
2, 47996, Note_off_c, 0, 74, 100
2, 48000, Note_on_c, 0, 77, 80
2, 48092, Note_off_c, 0, 77, 100
2, 48096, Note_on_c, 0, 75, 80
2, 48188, Note_off_c, 0, 68, 100
2, 48188, Note_off_c, 0, 75, 100
2, 48192, Note_on_c, 0, 69, 80
2, 48192, Note_on_c, 0, 77, 80
2, 48284, Note_off_c, 0, 77, 100
2, 48288, Note_on_c, 0, 72, 80
2, 48380, Note_off_c, 0, 69, 100
2, 48380, Note_off_c, 0, 72, 100
2, 48384, Note_on_c, 0, 75, 80
2, 48384, Note_on_c, 0, 70, 80
2, 48476, Note_off_c, 0, 75, 100
2, 48476, Note_off_c, 0, 70, 100
2, 48480, Note_on_c, 0, 74, 80
2, 48480, Note_on_c, 0, 62, 80
2, 48572, Note_off_c, 0, 74, 100
2, 48572, Note_off_c, 0, 62, 100
2, 48576, Note_on_c, 0, 75, 80
2, 48576, Note_on_c, 0, 63, 80
2, 48668, Note_off_c, 0, 75, 100
2, 48668, Note_off_c, 0, 63, 100
2, 48672, Note_on_c, 0, 77, 80
2, 48672, Note_on_c, 0, 65, 80
2, 48764, Note_off_c, 0, 77, 100
2, 48764, Note_off_c, 0, 77, 64
2, 48764, Note_off_c, 0, 65, 100
2, 48768, Note_on_c, 0, 78, 80
2, 48768, Note_on_c, 0, 66, 80
2, 48860, Note_off_c, 0, 78, 100
2, 48860, Note_off_c, 0, 66, 100
2, 48864, Note_on_c, 0, 79, 80
2, 48864, Note_on_c, 0, 67, 80
2, 48956, Note_off_c, 0, 79, 100
2, 48956, Note_off_c, 0, 67, 100
2, 48960, Note_on_c, 0, 81, 80
2, 48960, Note_on_c, 0, 69, 80
2, 49052, Note_off_c, 0, 81, 100
2, 49052, Note_off_c, 0, 69, 100
2, 49056, Note_on_c, 0, 82, 80
2, 49056, Note_on_c, 0, 70, 80
2, 49148, Note_off_c, 0, 82, 100
2, 49148, Note_off_c, 0, 70, 100
2, 49152, Note_on_c, 0, 70, 80
2, 49152, Note_on_c, 0, 58, 80
2, 49340, Note_off_c, 0, 70, 100
2, 49340, Note_off_c, 0, 58, 100
2, 49344, Note_on_c, 0, 72, 80
2, 49344, Note_on_c, 0, 60, 80
2, 49532, Note_off_c, 0, 72, 100
2, 49532, Note_off_c, 0, 60, 100
2, 49536, Note_on_c, 0, 73, 80
2, 49536, Note_on_c, 0, 61, 80
2, 49724, Note_off_c, 0, 73, 100
2, 49724, Note_off_c, 0, 61, 100
2, 49728, Note_on_c, 0, 74, 80
2, 49728, Note_on_c, 0, 62, 80
2, 49964, Note_off_c, 0, 74, 100
2, 49964, Note_off_c, 0, 62, 100
2, 49968, Note_on_c, 0, 70, 80
2, 50016, Note_on_c, 0, 69, 80
2, 50060, Note_off_c, 0, 70, 100
2, 50064, Note_on_c, 0, 70, 80
2, 50108, Note_off_c, 0, 69, 100
2, 50112, Note_on_c, 0, 71, 80
2, 50156, Note_off_c, 0, 70, 100
2, 50160, Note_on_c, 0, 72, 80
2, 50204, Note_off_c, 0, 71, 100
2, 50208, Note_on_c, 0, 73, 80
2, 50252, Note_off_c, 0, 72, 100
2, 50256, Note_on_c, 0, 74, 80
2, 50300, Note_off_c, 0, 73, 100
2, 50304, Note_on_c, 0, 75, 80
2, 50348, Note_off_c, 0, 74, 100
2, 50352, Note_on_c, 0, 76, 80
2, 50396, Note_off_c, 0, 75, 100
2, 50400, Note_on_c, 0, 77, 80
2, 50444, Note_off_c, 0, 76, 100
2, 50448, Note_on_c, 0, 78, 80
2, 50492, Note_off_c, 0, 77, 64
2, 50496, Note_on_c, 0, 79, 80
2, 50540, Note_off_c, 0, 78, 100
2, 50544, Note_on_c, 0, 80, 80
2, 50588, Note_off_c, 0, 79, 100
2, 50592, Note_on_c, 0, 81, 80
2, 50636, Note_off_c, 0, 80, 100
2, 50640, Note_on_c, 0, 82, 80
2, 50684, Note_off_c, 0, 81, 100
2, 50688, Note_on_c, 0, 70, 80
2, 50732, Note_off_c, 0, 82, 100
2, 50736, Note_on_c, 0, 72, 80
2, 50780, Note_off_c, 0, 70, 100
2, 50784, Note_on_c, 0, 69, 80
2, 50828, Note_off_c, 0, 72, 100
2, 50832, Note_on_c, 0, 70, 80
2, 50876, Note_off_c, 0, 69, 100
2, 50880, Note_on_c, 0, 74, 80
2, 50880, Note_on_c, 0, 63, 80
2, 50924, Note_off_c, 0, 70, 100
2, 51020, Note_off_c, 0, 74, 100
2, 51024, Note_on_c, 0, 72, 80
2, 51068, Note_off_c, 0, 63, 100
2, 51068, Note_off_c, 0, 72, 100
2, 51072, Note_on_c, 0, 70, 80
2, 51072, Note_on_c, 0, 62, 80
2, 51260, Note_off_c, 0, 70, 100
2, 51260, Note_off_c, 0, 62, 100
2, 51456, Note_on_c, 0, 61, 110
2, 51456, Note_on_c, 0, 53, 110
2, 51836, Note_off_c, 0, 61, 100
2, 51836, Note_off_c, 0, 53, 100
2, 51840, Note_on_c, 0, 54, 110
2, 51840, Note_on_c, 0, 59, 110
2, 52124, Note_off_c, 0, 59, 100
2, 52128, Note_on_c, 0, 61, 110
2, 52172, Note_off_c, 0, 61, 100
2, 52176, Note_on_c, 0, 63, 110
2, 52220, Note_off_c, 0, 54, 100
2, 52220, Note_off_c, 0, 63, 100
2, 52224, Note_on_c, 0, 54, 110
2, 52412, Note_off_c, 0, 54, 100
2, 52416, Note_on_c, 0, 57, 110
2, 52416, Note_on_c, 0, 53, 110
2, 52604, Note_off_c, 0, 57, 100
2, 52604, Note_off_c, 0, 53, 100
2, 52608, Note_on_c, 0, 58, 110
2, 52608, Note_on_c, 0, 49, 110
2, 52796, Note_off_c, 0, 58, 100
2, 52796, Note_off_c, 0, 49, 100
2, 52800, Note_on_c, 0, 53, 110
2, 52892, Note_off_c, 0, 53, 100
2, 52992, Note_on_c, 0, 61, 110
2, 52992, Note_on_c, 0, 53, 110
2, 53372, Note_off_c, 0, 61, 100
2, 53372, Note_off_c, 0, 53, 100
2, 53376, Note_on_c, 0, 60, 110
2, 53376, Note_on_c, 0, 55, 110
2, 53756, Note_off_c, 0, 60, 100
2, 53756, Note_off_c, 0, 55, 100
2, 53760, Note_on_c, 0, 70, 110
2, 53760, Note_on_c, 0, 60, 110
2, 54140, Note_off_c, 0, 70, 100
2, 54140, Note_off_c, 0, 60, 100
2, 54144, Note_on_c, 0, 68, 110
2, 54144, Note_on_c, 0, 60, 110
2, 54332, Note_off_c, 0, 68, 100
2, 54332, Note_off_c, 0, 60, 100
2, 54336, Note_on_c, 0, 77, 110
2, 54336, Note_on_c, 0, 68, 110
2, 54336, Note_on_c, 0, 65, 110
2, 54716, Note_off_c, 0, 68, 100
2, 54716, Note_off_c, 0, 65, 100
2, 54720, Note_on_c, 0, 76, 110
2, 54720, Note_on_c, 0, 67, 110
2, 54720, Note_on_c, 0, 64, 110
2, 54908, Note_off_c, 0, 76, 100
2, 54908, Note_off_c, 0, 67, 100
2, 54908, Note_off_c, 0, 64, 100
2, 54912, Control_c, 0, 64, 127
2, 54912, Note_on_c, 0, 77, 110
2, 54912, Note_on_c, 0, 68, 110
2, 54912, Note_on_c, 0, 65, 110
2, 55004, Note_off_c, 0, 77, 100
2, 55004, Note_off_c, 0, 68, 100
2, 55004, Note_off_c, 0, 65, 100
2, 55008, Note_on_c, 0, 60, 80
2, 55052, Note_off_c, 0, 60, 100
2, 55056, Note_on_c, 0, 58, 80
2, 55100, Note_off_c, 0, 77, 64
2, 55100, Note_off_c, 0, 58, 100
2, 55104, Note_on_c, 0, 60, 80
2, 55148, Note_off_c, 0, 60, 100
2, 55152, Note_on_c, 0, 56, 80
2, 55196, Note_off_c, 0, 56, 100
2, 55200, Note_on_c, 0, 60, 80
2, 55244, Note_off_c, 0, 60, 100
2, 55248, Note_on_c, 0, 55, 80
2, 55288, Control_c, 0, 64, 0
2, 55292, Note_off_c, 0, 55, 100
2, 55296, Control_c, 0, 64, 127
2, 55296, Note_on_c, 0, 60, 80
2, 55340, Note_off_c, 0, 60, 100
2, 55344, Note_on_c, 0, 53, 80
2, 55388, Note_off_c, 0, 53, 100
2, 55392, Note_on_c, 0, 60, 80
2, 55436, Note_off_c, 0, 60, 100
2, 55440, Note_on_c, 0, 52, 80
2, 55484, Note_off_c, 0, 52, 100
2, 55488, Note_on_c, 0, 60, 80
2, 55532, Note_off_c, 0, 60, 100
2, 55536, Note_on_c, 0, 53, 80
2, 55580, Note_off_c, 0, 53, 100
2, 55584, Note_on_c, 0, 60, 80
2, 55628, Note_off_c, 0, 60, 100
2, 55632, Note_on_c, 0, 55, 80
2, 55672, Control_c, 0, 64, 0
2, 55676, Note_off_c, 0, 55, 100
2, 55680, Control_c, 0, 64, 127
2, 55680, Note_on_c, 0, 60, 80
2, 55728, Note_on_c, 0, 56, 80
2, 55772, Note_off_c, 0, 60, 100
2, 55776, Note_on_c, 0, 65, 80
2, 55820, Note_off_c, 0, 56, 100
2, 55824, Note_on_c, 0, 63, 80
2, 55868, Note_off_c, 0, 65, 100
2, 55872, Note_on_c, 0, 65, 80
2, 55916, Note_off_c, 0, 63, 100
2, 55920, Note_on_c, 0, 61, 80
2, 55964, Note_off_c, 0, 65, 100
2, 55968, Note_on_c, 0, 65, 80
2, 56012, Note_off_c, 0, 61, 100
2, 56016, Note_on_c, 0, 60, 80
2, 56056, Control_c, 0, 64, 0
2, 56060, Note_off_c, 0, 65, 100
2, 56064, Control_c, 0, 64, 127
2, 56064, Note_on_c, 0, 65, 80
2, 56108, Note_off_c, 0, 60, 100
2, 56112, Note_on_c, 0, 58, 80
2, 56156, Note_off_c, 0, 65, 100
2, 56160, Note_on_c, 0, 65, 80
2, 56204, Note_off_c, 0, 58, 100
2, 56208, Note_on_c, 0, 57, 80
2, 56252, Note_off_c, 0, 65, 100
2, 56256, Note_on_c, 0, 65, 80
2, 56300, Note_off_c, 0, 57, 100
2, 56304, Note_on_c, 0, 58, 80
2, 56348, Note_off_c, 0, 65, 100
2, 56352, Note_on_c, 0, 65, 80
2, 56396, Note_off_c, 0, 58, 100
2, 56400, Note_on_c, 0, 60, 80
2, 56440, Control_c, 0, 64, 0
2, 56444, Note_off_c, 0, 65, 100
2, 56448, Control_c, 0, 64, 127
2, 56448, Note_on_c, 0, 65, 80
2, 56492, Note_off_c, 0, 60, 100
2, 56496, Note_on_c, 0, 61, 80
2, 56540, Note_off_c, 0, 65, 100
2, 56544, Note_on_c, 0, 65, 81
2, 56588, Note_off_c, 0, 61, 100
2, 56592, Note_on_c, 0, 61, 81
2, 56636, Note_off_c, 0, 65, 100
2, 56640, Note_on_c, 0, 67, 82
2, 56684, Note_off_c, 0, 61, 100
2, 56688, Note_on_c, 0, 65, 82
2, 56732, Note_off_c, 0, 67, 100
2, 56736, Note_on_c, 0, 67, 83
2, 56780, Note_off_c, 0, 65, 100
2, 56784, Note_on_c, 0, 65, 83
2, 56824, Control_c, 0, 64, 0
2, 56828, Note_off_c, 0, 67, 100
2, 56832, Control_c, 0, 64, 127
2, 56832, Note_on_c, 0, 68, 84
2, 56876, Note_off_c, 0, 65, 100
2, 56880, Note_on_c, 0, 65, 84
2, 56924, Note_off_c, 0, 68, 100
2, 56928, Note_on_c, 0, 68, 85
2, 56972, Note_off_c, 0, 65, 100
2, 56976, Note_on_c, 0, 65, 85
2, 57020, Note_off_c, 0, 68, 100
2, 57024, Note_on_c, 0, 70, 85
2, 57068, Note_off_c, 0, 65, 100
2, 57072, Note_on_c, 0, 64, 86
2, 57116, Note_off_c, 0, 70, 100
2, 57120, Note_on_c, 0, 70, 86
2, 57164, Note_off_c, 0, 64, 100
2, 57168, Note_on_c, 0, 64, 87
2, 57208, Control_c, 0, 64, 0
2, 57212, Note_off_c, 0, 70, 100
2, 57216, Control_c, 0, 64, 127
2, 57216, Note_on_c, 0, 65, 87
2, 57260, Note_off_c, 0, 64, 100
2, 57308, Note_off_c, 0, 65, 100
2, 57312, Note_on_c, 0, 72, 88
2, 57312, Note_on_c, 0, 60, 88
2, 57360, Note_on_c, 0, 70, 89
2, 57404, Note_off_c, 0, 72, 100
2, 57404, Note_off_c, 0, 60, 100
2, 57408, Note_on_c, 0, 72, 89
2, 57408, Note_on_c, 0, 60, 89
2, 57452, Note_off_c, 0, 70, 100
2, 57456, Note_on_c, 0, 68, 90
2, 57500, Note_off_c, 0, 72, 100
2, 57500, Note_off_c, 0, 60, 100
2, 57504, Note_on_c, 0, 72, 90
2, 57504, Note_on_c, 0, 60, 90
2, 57548, Note_off_c, 0, 68, 100
2, 57552, Note_on_c, 0, 67, 91
2, 57592, Control_c, 0, 64, 0
2, 57596, Note_off_c, 0, 72, 100
2, 57596, Note_off_c, 0, 60, 100
2, 57600, Control_c, 0, 64, 127
2, 57600, Note_on_c, 0, 72, 91
2, 57600, Note_on_c, 0, 60, 91
2, 57644, Note_off_c, 0, 67, 100
2, 57648, Note_on_c, 0, 65, 91
2, 57692, Note_off_c, 0, 72, 100
2, 57692, Note_off_c, 0, 60, 100
2, 57696, Note_on_c, 0, 72, 92
2, 57696, Note_on_c, 0, 60, 92
2, 57740, Note_off_c, 0, 65, 100
2, 57744, Note_on_c, 0, 64, 92
2, 57788, Note_off_c, 0, 72, 100
2, 57788, Note_off_c, 0, 60, 100
2, 57792, Note_on_c, 0, 72, 93
2, 57792, Note_on_c, 0, 60, 93
2, 57836, Note_off_c, 0, 64, 100
2, 57840, Note_on_c, 0, 65, 93
2, 57884, Note_off_c, 0, 72, 100
2, 57884, Note_off_c, 0, 60, 100
2, 57888, Note_on_c, 0, 72, 94
2, 57888, Note_on_c, 0, 60, 94
2, 57932, Note_off_c, 0, 65, 100
2, 57936, Note_on_c, 0, 67, 94
2, 57976, Control_c, 0, 64, 0
2, 57980, Note_off_c, 0, 72, 100
2, 57980, Note_off_c, 0, 60, 100
2, 57984, Control_c, 0, 64, 127
2, 57984, Note_on_c, 0, 72, 95
2, 57984, Note_on_c, 0, 60, 95
2, 58028, Note_off_c, 0, 67, 100
2, 58032, Note_on_c, 0, 68, 95
2, 58076, Note_off_c, 0, 72, 100
2, 58076, Note_off_c, 0, 60, 100
2, 58080, Note_on_c, 0, 77, 96
2, 58080, Note_on_c, 0, 65, 96
2, 58124, Note_off_c, 0, 68, 100
2, 58128, Note_on_c, 0, 75, 96
2, 58172, Note_off_c, 0, 65, 100
2, 58176, Note_on_c, 0, 77, 97
2, 58176, Note_on_c, 0, 65, 97
2, 58220, Note_off_c, 0, 75, 100
2, 58224, Note_on_c, 0, 73, 97
2, 58268, Note_off_c, 0, 77, 100
2, 58268, Note_off_c, 0, 65, 100
2, 58272, Note_on_c, 0, 77, 97
2, 58272, Note_on_c, 0, 65, 97
2, 58316, Note_off_c, 0, 73, 100
2, 58320, Note_on_c, 0, 72, 98
2, 58360, Control_c, 0, 64, 0
2, 58364, Note_off_c, 0, 77, 100
2, 58364, Note_off_c, 0, 65, 100
2, 58368, Control_c, 0, 64, 127
2, 58368, Note_on_c, 0, 77, 98
2, 58368, Note_on_c, 0, 65, 98
2, 58412, Note_off_c, 0, 72, 100
2, 58416, Note_on_c, 0, 70, 99
2, 58460, Note_off_c, 0, 77, 100
2, 58460, Note_off_c, 0, 65, 100
2, 58464, Note_on_c, 0, 77, 99
2, 58464, Note_on_c, 0, 65, 99
2, 58508, Note_off_c, 0, 70, 100
2, 58512, Note_on_c, 0, 69, 100
2, 58556, Note_off_c, 0, 77, 100
2, 58556, Note_off_c, 0, 65, 100
2, 58560, Note_on_c, 0, 77, 100
2, 58560, Note_on_c, 0, 65, 100
2, 58604, Note_off_c, 0, 69, 100
2, 58608, Note_on_c, 0, 70, 101
2, 58652, Note_off_c, 0, 77, 100
2, 58652, Note_off_c, 0, 65, 100
2, 58656, Note_on_c, 0, 77, 101
2, 58656, Note_on_c, 0, 65, 101
2, 58700, Note_off_c, 0, 70, 100
2, 58704, Note_on_c, 0, 72, 102
2, 58744, Control_c, 0, 64, 0
2, 58748, Note_off_c, 0, 77, 100
2, 58748, Note_off_c, 0, 65, 100
2, 58752, Control_c, 0, 64, 127
2, 58752, Note_on_c, 0, 77, 102
2, 58752, Note_on_c, 0, 65, 102
2, 58796, Note_off_c, 0, 72, 100
2, 58800, Note_on_c, 0, 73, 103
2, 58844, Note_off_c, 0, 77, 100
2, 58844, Note_off_c, 0, 65, 100
2, 58848, Note_on_c, 0, 77, 103
2, 58848, Note_on_c, 0, 65, 103
2, 58892, Note_off_c, 0, 73, 100
2, 58896, Note_on_c, 0, 73, 103
2, 58940, Note_off_c, 0, 77, 100
2, 58940, Note_off_c, 0, 65, 100
2, 58944, Note_on_c, 0, 79, 104
2, 58944, Note_on_c, 0, 67, 104
2, 58988, Note_off_c, 0, 73, 100
2, 58992, Note_on_c, 0, 77, 104
2, 59036, Note_off_c, 0, 79, 100
2, 59036, Note_off_c, 0, 67, 100
2, 59040, Note_on_c, 0, 79, 105
2, 59040, Note_on_c, 0, 67, 105
2, 59084, Note_off_c, 0, 77, 100
2, 59088, Note_on_c, 0, 77, 105
2, 59128, Control_c, 0, 64, 0
2, 59132, Note_off_c, 0, 79, 100
2, 59132, Note_off_c, 0, 67, 100
2, 59136, Control_c, 0, 64, 127
2, 59136, Note_on_c, 0, 80, 106
2, 59136, Note_on_c, 0, 68, 106
2, 59180, Note_off_c, 0, 77, 100
2, 59184, Note_on_c, 0, 77, 106
2, 59228, Note_off_c, 0, 80, 100
2, 59228, Note_off_c, 0, 68, 100
2, 59232, Note_on_c, 0, 68, 107
2, 59232, Note_on_c, 0, 80, 107
2, 59276, Note_off_c, 0, 77, 100
2, 59280, Note_on_c, 0, 77, 107
2, 59324, Note_off_c, 0, 68, 100
2, 59324, Note_off_c, 0, 80, 100
2, 59328, Note_on_c, 0, 82, 108
2, 59328, Note_on_c, 0, 70, 108
2, 59372, Note_off_c, 0, 77, 100
2, 59376, Note_on_c, 0, 76, 108
2, 59420, Note_off_c, 0, 82, 100
2, 59420, Note_off_c, 0, 70, 100
2, 59424, Note_on_c, 0, 82, 109
2, 59424, Note_on_c, 0, 70, 109
2, 59468, Note_off_c, 0, 76, 100
2, 59472, Note_on_c, 0, 76, 120
2, 59512, Control_c, 0, 64, 0
2, 59516, Note_off_c, 0, 82, 100
2, 59516, Note_off_c, 0, 70, 100
2, 59520, Control_c, 0, 64, 127
2, 59520, Note_on_c, 0, 77, 120
2, 59564, Note_off_c, 0, 76, 100
2, 59612, Note_off_c, 0, 77, 100
2, 59616, Note_on_c, 0, 89, 120
2, 59804, Note_off_c, 0, 89, 100
2, 59808, Note_on_c, 0, 89, 120
2, 59896, Control_c, 0, 64, 0
2, 59900, Note_off_c, 0, 89, 100
2, 59904, Control_c, 0, 64, 127
2, 59904, Note_on_c, 0, 88, 120
2, 59948, Note_off_c, 0, 88, 100
2, 59952, Note_on_c, 0, 85, 120
2, 59996, Note_off_c, 0, 85, 100
2, 60000, Note_on_c, 0, 82, 120
2, 60044, Note_off_c, 0, 82, 100
2, 60048, Note_on_c, 0, 79, 120
2, 60092, Note_off_c, 0, 79, 100
2, 60096, Note_on_c, 0, 76, 120
2, 60096, Note_on_c, 0, 73, 120
2, 60140, Note_off_c, 0, 73, 100
2, 60144, Note_on_c, 0, 72, 120
2, 60188, Note_off_c, 0, 76, 100
2, 60188, Note_off_c, 0, 72, 100
2, 60192, Note_on_c, 0, 76, 120
2, 60192, Note_on_c, 0, 73, 120
2, 60236, Note_off_c, 0, 73, 100
2, 60240, Note_on_c, 0, 70, 120
2, 60280, Control_c, 0, 64, 0
2, 60284, Note_off_c, 0, 77, 64
2, 60284, Note_off_c, 0, 76, 100
2, 60284, Note_off_c, 0, 70, 100
2, 60288, Control_c, 0, 64, 127
2, 60288, Note_on_c, 0, 77, 120
2, 60288, Note_on_c, 0, 68, 120
2, 60380, Note_off_c, 0, 68, 100
2, 60384, Note_on_c, 0, 77, 120
2, 60572, Note_off_c, 0, 77, 100
2, 60572, Note_off_c, 0, 77, 100
2, 60576, Note_on_c, 0, 77, 120
2, 60664, Control_c, 0, 64, 0
2, 60672, Control_c, 0, 64, 127
2, 60672, Note_on_c, 0, 76, 120
2, 60716, Note_off_c, 0, 76, 100
2, 60720, Note_on_c, 0, 73, 120
2, 60764, Note_off_c, 0, 73, 100
2, 60768, Note_on_c, 0, 70, 120
2, 60812, Note_off_c, 0, 70, 100
2, 60816, Note_on_c, 0, 67, 120
2, 60860, Note_off_c, 0, 67, 100
2, 60864, Note_on_c, 0, 64, 120
2, 60864, Note_on_c, 0, 61, 120
2, 60908, Note_off_c, 0, 61, 100
2, 60912, Note_on_c, 0, 60, 120
2, 60956, Note_off_c, 0, 77, 64
2, 60956, Note_off_c, 0, 64, 100
2, 60956, Note_off_c, 0, 60, 100
2, 60960, Note_on_c, 0, 64, 120
2, 60960, Note_on_c, 0, 61, 120
2, 61004, Note_off_c, 0, 61, 100
2, 61008, Note_on_c, 0, 58, 120
2, 61048, Control_c, 0, 64, 0
2, 61052, Note_off_c, 0, 64, 100
2, 61052, Note_off_c, 0, 58, 100
2, 61056, Note_on_c, 0, 65, 120
2, 61056, Note_on_c, 0, 56, 120
2, 61244, Note_off_c, 0, 65, 100
2, 61244, Note_off_c, 0, 56, 100
2, 62016, Note_on_c, 0, 58, 110
2, 62444, Note_off_c, 0, 58, 100
2, 62448, Note_on_c, 0, 61, 110
2, 62492, Note_off_c, 0, 61, 100
2, 62496, Note_on_c, 0, 60, 110
2, 62540, Note_off_c, 0, 60, 100
2, 62544, Note_on_c, 0, 58, 110
2, 62588, Note_off_c, 0, 58, 100
2, 62592, Note_on_c, 0, 56, 110
2, 62780, Note_off_c, 0, 56, 100
2, 62784, Note_on_c, 0, 53, 110
2, 62972, Note_off_c, 0, 53, 100
2, 63552, Note_on_c, 0, 63, 110
2, 63980, Note_off_c, 0, 63, 100
2, 63984, Note_on_c, 0, 66, 110
2, 64028, Note_off_c, 0, 66, 100
2, 64032, Note_on_c, 0, 65, 110
2, 64076, Note_off_c, 0, 65, 100
2, 64080, Note_on_c, 0, 63, 110
2, 64124, Note_off_c, 0, 63, 100
2, 64128, Note_on_c, 0, 61, 110
2, 64316, Note_off_c, 0, 61, 100
2, 64320, Note_on_c, 0, 58, 110
2, 64508, Note_off_c, 0, 58, 100
2, 64512, Note_on_c, 0, 73, 110
2, 64892, Note_off_c, 0, 73, 100
2, 64896, Note_on_c, 0, 72, 110
2, 64896, Note_on_c, 0, 63, 110
2, 65180, Note_off_c, 0, 72, 100
2, 65184, Note_on_c, 0, 73, 110
2, 65228, Note_off_c, 0, 73, 100
2, 65232, Note_on_c, 0, 75, 110
2, 65276, Note_off_c, 0, 75, 100
2, 65280, Note_on_c, 0, 67, 110
2, 65468, Note_off_c, 0, 67, 100
2, 65472, Note_on_c, 0, 69, 110
2, 65516, Note_off_c, 0, 63, 100
2, 65520, Note_on_c, 0, 66, 110
2, 65564, Note_off_c, 0, 66, 100
2, 65568, Note_on_c, 0, 65, 110
2, 65612, Note_off_c, 0, 65, 100
2, 65616, Note_on_c, 0, 63, 110
2, 65660, Note_off_c, 0, 69, 100
2, 65660, Note_off_c, 0, 63, 100
2, 65664, Note_on_c, 0, 70, 110
2, 65664, Note_on_c, 0, 61, 110
2, 65852, Note_off_c, 0, 61, 100
2, 65856, Note_on_c, 0, 58, 110
2, 66044, Note_off_c, 0, 70, 100
2, 66044, Note_off_c, 0, 58, 100
2, 66048, Note_on_c, 0, 78, 110
2, 66428, Note_off_c, 0, 78, 100
2, 66432, Note_on_c, 0, 77, 110
2, 66432, Note_on_c, 0, 68, 110
2, 66720, Note_on_c, 0, 78, 110
2, 66764, Note_off_c, 0, 78, 100
2, 66768, Note_on_c, 0, 80, 110
2, 66812, Note_off_c, 0, 80, 100
2, 66816, Note_on_c, 0, 72, 110
2, 67004, Note_off_c, 0, 72, 100
2, 67008, Note_on_c, 0, 74, 110
2, 67052, Note_off_c, 0, 68, 100
2, 67056, Note_on_c, 0, 71, 110
2, 67100, Note_off_c, 0, 71, 100
2, 67104, Note_on_c, 0, 70, 110
2, 67148, Note_off_c, 0, 70, 100
2, 67152, Note_on_c, 0, 68, 110
2, 67196, Note_off_c, 0, 77, 64
2, 67196, Note_off_c, 0, 74, 100
2, 67196, Note_off_c, 0, 68, 100
2, 67200, Note_on_c, 0, 75, 110
2, 67200, Note_on_c, 0, 66, 110
2, 67388, Note_off_c, 0, 66, 100
2, 67392, Note_on_c, 0, 63, 110
2, 67580, Note_off_c, 0, 75, 100
2, 67580, Note_off_c, 0, 63, 100
2, 68160, Note_on_c, 0, 80, 110
2, 68160, Note_on_c, 0, 83, 110
2, 68636, Note_off_c, 0, 80, 100
2, 68636, Note_off_c, 0, 83, 100
2, 68640, Note_on_c, 0, 82, 110
2, 68640, Note_on_c, 0, 78, 110
2, 68684, Note_off_c, 0, 82, 100
2, 68684, Note_off_c, 0, 78, 100
2, 68688, Note_on_c, 0, 80, 110
2, 68688, Note_on_c, 0, 77, 110
2, 68732, Note_off_c, 0, 80, 100
2, 68736, Note_on_c, 0, 78, 110
2, 68736, Note_on_c, 0, 75, 110
2, 68924, Note_off_c, 0, 78, 100
2, 68924, Note_off_c, 0, 75, 100
2, 68928, Note_on_c, 0, 78, 110
2, 68928, Note_on_c, 0, 82, 110
2, 69404, Note_off_c, 0, 78, 100
2, 69404, Note_off_c, 0, 82, 100
2, 69408, Note_on_c, 0, 80, 110
2, 69408, Note_on_c, 0, 77, 110
2, 69452, Note_off_c, 0, 77, 100
2, 69452, Note_off_c, 0, 80, 100
2, 69456, Note_on_c, 0, 78, 110
2, 69456, Note_on_c, 0, 75, 110
2, 69500, Note_off_c, 0, 78, 100
2, 69500, Note_off_c, 0, 75, 100
2, 69504, Note_on_c, 0, 77, 110
2, 69504, Note_on_c, 0, 73, 110
2, 69788, Note_off_c, 0, 77, 100
2, 69788, Note_off_c, 0, 73, 100
2, 69792, Note_on_c, 0, 78, 110
2, 69792, Note_on_c, 0, 75, 110
2, 69836, Note_off_c, 0, 78, 100
2, 69836, Note_off_c, 0, 75, 100
2, 69840, Note_on_c, 0, 77, 110
2, 69840, Note_on_c, 0, 80, 110
2, 69884, Note_off_c, 0, 77, 100
2, 69884, Note_off_c, 0, 80, 100
2, 69888, Note_on_c, 0, 72, 110
2, 69888, Note_on_c, 0, 68, 110
2, 70076, Note_off_c, 0, 72, 100
2, 70076, Note_off_c, 0, 68, 100
2, 70080, Note_on_c, 0, 73, 110
2, 70080, Note_on_c, 0, 70, 110
2, 70220, Note_off_c, 0, 77, 64
2, 70268, Note_off_c, 0, 73, 100
2, 70268, Note_off_c, 0, 70, 100
2, 70272, Note_on_c, 0, 75, 110
2, 70272, Note_on_c, 0, 72, 110
2, 70556, Note_off_c, 0, 75, 100
2, 70556, Note_off_c, 0, 72, 100
2, 70560, Note_on_c, 0, 77, 110
2, 70560, Note_on_c, 0, 73, 110
2, 70604, Note_off_c, 0, 73, 100
2, 70608, Note_on_c, 0, 78, 110
2, 70608, Note_on_c, 0, 75, 110
2, 70652, Note_off_c, 0, 78, 100
2, 70652, Note_off_c, 0, 75, 100
2, 70656, Note_on_c, 0, 70, 110
2, 70656, Note_on_c, 0, 67, 110
2, 70844, Note_off_c, 0, 70, 100
2, 70844, Note_off_c, 0, 67, 100
2, 70848, Note_on_c, 0, 72, 110
2, 70848, Note_on_c, 0, 69, 110
2, 70940, Note_off_c, 0, 77, 64
2, 71036, Note_off_c, 0, 72, 100
2, 71036, Note_off_c, 0, 69, 100
2, 71040, Note_on_c, 0, 70, 110
2, 71040, Note_on_c, 0, 73, 110
2, 71324, Note_off_c, 0, 73, 100
2, 71328, Note_on_c, 0, 75, 112
2, 71372, Note_off_c, 0, 75, 100
2, 71376, Note_on_c, 0, 77, 112
2, 71420, Note_off_c, 0, 70, 100
2, 71424, Note_on_c, 0, 73, 112
2, 71424, Note_on_c, 0, 78, 112
2, 71612, Note_off_c, 0, 77, 64
2, 71708, Note_off_c, 0, 78, 100
2, 71712, Note_on_c, 0, 80, 114
2, 71756, Note_off_c, 0, 80, 100
2, 71760, Note_on_c, 0, 82, 115
2, 71804, Note_off_c, 0, 73, 100
2, 71804, Note_off_c, 0, 82, 100
2, 71808, Note_on_c, 0, 78, 115
2, 71808, Note_on_c, 0, 83, 115
2, 72092, Note_off_c, 0, 83, 100
2, 72096, Note_on_c, 0, 85, 117
2, 72140, Note_off_c, 0, 85, 100
2, 72144, Note_on_c, 0, 87, 118
2, 72188, Note_off_c, 0, 78, 100
2, 72188, Note_off_c, 0, 87, 100
2, 72192, Note_on_c, 0, 70, 118
2, 72192, Note_on_c, 0, 65, 118
2, 72380, Note_off_c, 0, 70, 100
2, 72380, Note_off_c, 0, 65, 100
2, 72384, Note_on_c, 0, 69, 119
2, 72384, Note_on_c, 0, 63, 119
2, 72572, Note_off_c, 0, 69, 100
2, 72572, Note_off_c, 0, 63, 100
2, 72576, Control_c, 0, 64, 127
2, 72576, Note_on_c, 0, 70, 120
2, 72576, Note_on_c, 0, 61, 120
2, 72668, Note_off_c, 0, 70, 100
2, 72668, Note_off_c, 0, 61, 100
2, 72672, Note_on_c, 0, 65, 80
2, 72720, Note_on_c, 0, 63, 80
2, 72764, Note_off_c, 0, 65, 100
2, 72768, Note_on_c, 0, 65, 80
2, 72812, Note_off_c, 0, 63, 100
2, 72816, Note_on_c, 0, 61, 80
2, 72860, Note_off_c, 0, 65, 100
2, 72864, Note_on_c, 0, 65, 80
2, 72908, Note_off_c, 0, 61, 100
2, 72912, Note_on_c, 0, 60, 80
2, 72952, Control_c, 0, 64, 0
2, 72956, Note_off_c, 0, 65, 100
2, 72960, Control_c, 0, 64, 127
2, 72960, Note_on_c, 0, 65, 80
2, 73004, Note_off_c, 0, 60, 100
2, 73008, Note_on_c, 0, 58, 80
2, 73052, Note_off_c, 0, 65, 100
2, 73056, Note_on_c, 0, 65, 80
2, 73100, Note_off_c, 0, 58, 100
2, 73104, Note_on_c, 0, 57, 80
2, 73148, Note_off_c, 0, 65, 100
2, 73152, Note_on_c, 0, 65, 80
2, 73196, Note_off_c, 0, 57, 100
2, 73200, Note_on_c, 0, 58, 80
2, 73244, Note_off_c, 0, 65, 100
2, 73248, Note_on_c, 0, 65, 80
2, 73292, Note_off_c, 0, 58, 100
2, 73296, Note_on_c, 0, 60, 80
2, 73336, Control_c, 0, 64, 0
2, 73340, Note_off_c, 0, 65, 100
2, 73344, Control_c, 0, 64, 127
2, 73344, Note_on_c, 0, 65, 80
2, 73388, Note_off_c, 0, 60, 100
2, 73392, Note_on_c, 0, 61, 80
2, 73436, Note_off_c, 0, 65, 100
2, 73440, Note_on_c, 0, 70, 80
2, 73484, Note_off_c, 0, 61, 100
2, 73488, Note_on_c, 0, 68, 80
2, 73532, Note_off_c, 0, 70, 100
2, 73536, Note_on_c, 0, 70, 80
2, 73580, Note_off_c, 0, 68, 100
2, 73584, Note_on_c, 0, 66, 80
2, 73628, Note_off_c, 0, 70, 100
2, 73632, Note_on_c, 0, 70, 80
2, 73676, Note_off_c, 0, 66, 100
2, 73680, Note_on_c, 0, 65, 80
2, 73720, Control_c, 0, 64, 0
2, 73724, Note_off_c, 0, 70, 100
2, 73728, Control_c, 0, 64, 127
2, 73728, Note_on_c, 0, 70, 80
2, 73772, Note_off_c, 0, 65, 100
2, 73776, Note_on_c, 0, 63, 80
2, 73820, Note_off_c, 0, 70, 100
2, 73824, Note_on_c, 0, 70, 80
2, 73868, Note_off_c, 0, 63, 100
2, 73872, Note_on_c, 0, 62, 80
2, 73916, Note_off_c, 0, 70, 100
2, 73920, Note_on_c, 0, 70, 80
2, 73964, Note_off_c, 0, 62, 100
2, 73968, Note_on_c, 0, 63, 80
2, 74012, Note_off_c, 0, 70, 100
2, 74016, Note_on_c, 0, 70, 80
2, 74060, Note_off_c, 0, 63, 100
2, 74064, Note_on_c, 0, 65, 80
2, 74104, Control_c, 0, 64, 0
2, 74108, Note_off_c, 0, 70, 100
2, 74112, Control_c, 0, 64, 127
2, 74112, Note_on_c, 0, 70, 80
2, 74156, Note_off_c, 0, 65, 100
2, 74160, Note_on_c, 0, 66, 80
2, 74204, Note_off_c, 0, 70, 100
2, 74208, Note_on_c, 0, 70, 80
2, 74252, Note_off_c, 0, 66, 100
2, 74256, Note_on_c, 0, 66, 80
2, 74300, Note_off_c, 0, 70, 100
2, 74304, Note_on_c, 0, 72, 80
2, 74348, Note_off_c, 0, 66, 100
2, 74352, Note_on_c, 0, 70, 80
2, 74396, Note_off_c, 0, 72, 100
2, 74400, Note_on_c, 0, 72, 80
2, 74444, Note_off_c, 0, 70, 100
2, 74448, Note_on_c, 0, 70, 80
2, 74488, Control_c, 0, 64, 0
2, 74492, Note_off_c, 0, 72, 100
2, 74496, Control_c, 0, 64, 127
2, 74496, Note_on_c, 0, 73, 80
2, 74540, Note_off_c, 0, 70, 100
2, 74544, Note_on_c, 0, 70, 80
2, 74588, Note_off_c, 0, 73, 100
2, 74592, Note_on_c, 0, 73, 80
2, 74636, Note_off_c, 0, 70, 100
2, 74640, Note_on_c, 0, 70, 80
2, 74684, Note_off_c, 0, 73, 100
2, 74688, Note_on_c, 0, 75, 80
2, 74732, Note_off_c, 0, 70, 100
2, 74736, Note_on_c, 0, 69, 80
2, 74780, Note_off_c, 0, 75, 100
2, 74784, Note_on_c, 0, 75, 80
2, 74828, Note_off_c, 0, 69, 100
2, 74832, Note_on_c, 0, 69, 80
2, 74872, Control_c, 0, 64, 0
2, 74876, Note_off_c, 0, 75, 100
2, 74880, Control_c, 0, 64, 127
2, 74880, Note_on_c, 0, 70, 80
2, 74924, Note_off_c, 0, 69, 100
2, 74972, Note_off_c, 0, 70, 100
2, 74976, Note_on_c, 0, 77, 81
2, 74976, Note_on_c, 0, 65, 81
2, 75024, Note_on_c, 0, 75, 82
2, 75068, Note_off_c, 0, 65, 100
2, 75072, Note_on_c, 0, 77, 83
2, 75072, Note_on_c, 0, 65, 83
2, 75116, Note_off_c, 0, 75, 100
2, 75120, Note_on_c, 0, 73, 83
2, 75164, Note_off_c, 0, 77, 100
2, 75164, Note_off_c, 0, 65, 100
2, 75168, Note_on_c, 0, 77, 84
2, 75168, Note_on_c, 0, 65, 84
2, 75212, Note_off_c, 0, 73, 100
2, 75216, Note_on_c, 0, 72, 85
2, 75256, Control_c, 0, 64, 0
2, 75260, Note_off_c, 0, 77, 100
2, 75260, Note_off_c, 0, 65, 100
2, 75264, Control_c, 0, 64, 127
2, 75264, Note_on_c, 0, 77, 85
2, 75264, Note_on_c, 0, 65, 85
2, 75308, Note_off_c, 0, 72, 100
2, 75312, Note_on_c, 0, 70, 86
2, 75356, Note_off_c, 0, 77, 100
2, 75356, Note_off_c, 0, 65, 100
2, 75360, Note_on_c, 0, 77, 87
2, 75360, Note_on_c, 0, 65, 87
2, 75404, Note_off_c, 0, 70, 100
2, 75408, Note_on_c, 0, 69, 87
2, 75452, Note_off_c, 0, 77, 100
2, 75452, Note_off_c, 0, 65, 100
2, 75456, Note_on_c, 0, 77, 88
2, 75456, Note_on_c, 0, 65, 88
2, 75500, Note_off_c, 0, 69, 100
2, 75504, Note_on_c, 0, 70, 88
2, 75548, Note_off_c, 0, 77, 100
2, 75548, Note_off_c, 0, 65, 100
2, 75552, Note_on_c, 0, 77, 89
2, 75552, Note_on_c, 0, 65, 89
2, 75596, Note_off_c, 0, 70, 100
2, 75600, Note_on_c, 0, 72, 90
2, 75640, Control_c, 0, 64, 0
2, 75644, Note_off_c, 0, 77, 100
2, 75644, Note_off_c, 0, 65, 100
2, 75648, Control_c, 0, 64, 127
2, 75648, Note_on_c, 0, 77, 90
2, 75648, Note_on_c, 0, 65, 90
2, 75692, Note_off_c, 0, 72, 100
2, 75696, Note_on_c, 0, 73, 91
2, 75740, Note_off_c, 0, 77, 100
2, 75740, Note_off_c, 0, 65, 100
2, 75744, Note_on_c, 0, 82, 92
2, 75744, Note_on_c, 0, 70, 92
2, 75788, Note_off_c, 0, 73, 100
2, 75792, Note_on_c, 0, 80, 92
2, 75836, Note_off_c, 0, 82, 100
2, 75836, Note_off_c, 0, 70, 100
2, 75840, Note_on_c, 0, 82, 93
2, 75840, Note_on_c, 0, 70, 93
2, 75884, Note_off_c, 0, 80, 100
2, 75888, Note_on_c, 0, 78, 94
2, 75932, Note_off_c, 0, 82, 100
2, 75932, Note_off_c, 0, 70, 100
2, 75936, Note_on_c, 0, 82, 94
2, 75936, Note_on_c, 0, 70, 94
2, 75980, Note_off_c, 0, 78, 100
2, 75984, Note_on_c, 0, 77, 95
2, 76024, Control_c, 0, 64, 0
2, 76028, Note_off_c, 0, 82, 100
2, 76028, Note_off_c, 0, 70, 100
2, 76032, Control_c, 0, 64, 127
2, 76032, Note_on_c, 0, 82, 95
2, 76032, Note_on_c, 0, 70, 95
2, 76076, Note_off_c, 0, 77, 100
2, 76076, Note_off_c, 0, 77, 64
2, 76080, Note_on_c, 0, 75, 96
2, 76124, Note_off_c, 0, 82, 100
2, 76124, Note_off_c, 0, 70, 100
2, 76128, Note_on_c, 0, 82, 97
2, 76128, Note_on_c, 0, 70, 97
2, 76172, Note_off_c, 0, 75, 100
2, 76176, Note_on_c, 0, 74, 97
2, 76220, Note_off_c, 0, 82, 100
2, 76220, Note_off_c, 0, 70, 100
2, 76224, Note_on_c, 0, 82, 98
2, 76224, Note_on_c, 0, 70, 98
2, 76268, Note_off_c, 0, 74, 100
2, 76272, Note_on_c, 0, 75, 99
2, 76316, Note_off_c, 0, 82, 100
2, 76316, Note_off_c, 0, 70, 100
2, 76320, Note_on_c, 0, 82, 99
2, 76320, Note_on_c, 0, 70, 99
2, 76364, Note_off_c, 0, 75, 100
2, 76368, Note_on_c, 0, 77, 100
2, 76408, Control_c, 0, 64, 0
2, 76412, Note_off_c, 0, 82, 100
2, 76412, Note_off_c, 0, 70, 100
2, 76416, Control_c, 0, 64, 127
2, 76416, Note_on_c, 0, 82, 101
2, 76416, Note_on_c, 0, 70, 101
2, 76460, Note_off_c, 0, 77, 64
2, 76464, Note_on_c, 0, 78, 101
2, 76508, Note_off_c, 0, 82, 100
2, 76508, Note_off_c, 0, 70, 100
2, 76512, Note_on_c, 0, 82, 102
2, 76512, Note_on_c, 0, 70, 102
2, 76556, Note_off_c, 0, 78, 100
2, 76560, Note_on_c, 0, 78, 102
2, 76604, Note_off_c, 0, 82, 100
2, 76604, Note_off_c, 0, 70, 100
2, 76608, Note_on_c, 0, 84, 103
2, 76608, Note_on_c, 0, 72, 103
2, 76652, Note_off_c, 0, 78, 100
2, 76656, Note_on_c, 0, 82, 104
2, 76700, Note_off_c, 0, 84, 100
2, 76700, Note_off_c, 0, 72, 100
2, 76704, Note_on_c, 0, 84, 104
2, 76704, Note_on_c, 0, 72, 104
2, 76748, Note_off_c, 0, 82, 100
2, 76752, Note_on_c, 0, 82, 105
2, 76792, Control_c, 0, 64, 0
2, 76796, Note_off_c, 0, 84, 100
2, 76796, Note_off_c, 0, 72, 100
2, 76800, Control_c, 0, 64, 127
2, 76800, Note_on_c, 0, 85, 106
2, 76800, Note_on_c, 0, 73, 106
2, 76844, Note_off_c, 0, 82, 100
2, 76848, Note_on_c, 0, 82, 106
2, 76892, Note_off_c, 0, 85, 100
2, 76892, Note_off_c, 0, 73, 100
2, 76896, Note_on_c, 0, 85, 107
2, 76896, Note_on_c, 0, 73, 107
2, 76940, Note_off_c, 0, 82, 100
2, 76944, Note_on_c, 0, 82, 108
2, 76988, Note_off_c, 0, 85, 100
2, 76988, Note_off_c, 0, 73, 100
2, 76992, Note_on_c, 0, 87, 108
2, 76992, Note_on_c, 0, 75, 108
2, 77036, Note_off_c, 0, 82, 100
2, 77040, Note_on_c, 0, 81, 109
2, 77084, Note_off_c, 0, 87, 100
2, 77084, Note_off_c, 0, 75, 100
2, 77088, Note_on_c, 0, 87, 109
2, 77088, Note_on_c, 0, 75, 109
2, 77132, Note_off_c, 0, 81, 100
2, 77136, Note_on_c, 0, 81, 120
2, 77176, Control_c, 0, 64, 0
2, 77180, Note_off_c, 0, 87, 100
2, 77180, Note_off_c, 0, 75, 100
2, 77184, Control_c, 0, 64, 127
2, 77184, Note_on_c, 0, 82, 120
2, 77228, Note_off_c, 0, 81, 100
2, 77276, Note_off_c, 0, 82, 100
2, 77280, Note_on_c, 0, 89, 120
2, 77468, Note_off_c, 0, 89, 100
2, 77472, Note_on_c, 0, 89, 120
2, 77560, Control_c, 0, 64, 0
2, 77564, Note_off_c, 0, 89, 100
2, 77568, Control_c, 0, 64, 127
2, 77568, Note_on_c, 0, 87, 120
2, 77616, Note_on_c, 0, 84, 120
2, 77660, Note_off_c, 0, 87, 100
2, 77664, Note_on_c, 0, 81, 120
2, 77708, Note_off_c, 0, 84, 100
2, 77712, Note_on_c, 0, 77, 120
2, 77756, Note_off_c, 0, 81, 100
2, 77760, Note_on_c, 0, 75, 120
2, 77804, Note_off_c, 0, 77, 64
2, 77808, Note_on_c, 0, 74, 120
2, 77852, Note_off_c, 0, 75, 100
2, 77856, Note_on_c, 0, 75, 120
2, 77900, Note_off_c, 0, 74, 100
2, 77904, Note_on_c, 0, 72, 120
2, 77944, Control_c, 0, 64, 0
2, 77948, Note_off_c, 0, 75, 100
2, 77948, Note_off_c, 0, 72, 100
2, 77952, Control_c, 0, 64, 127
2, 77952, Note_on_c, 0, 70, 120
2, 78044, Note_off_c, 0, 70, 100
2, 78048, Note_on_c, 0, 77, 120
2, 78236, Note_off_c, 0, 77, 100
2, 78240, Note_on_c, 0, 77, 120
2, 78328, Control_c, 0, 64, 0
2, 78332, Note_off_c, 0, 77, 64
2, 78336, Control_c, 0, 64, 127
2, 78336, Note_on_c, 0, 75, 120
2, 78384, Note_on_c, 0, 72, 120
2, 78428, Note_off_c, 0, 75, 100
2, 78432, Note_on_c, 0, 69, 120
2, 78476, Note_off_c, 0, 72, 100
2, 78480, Note_on_c, 0, 65, 120
2, 78524, Note_off_c, 0, 69, 100
2, 78528, Note_on_c, 0, 63, 120
2, 78572, Note_off_c, 0, 65, 100
2, 78576, Note_on_c, 0, 62, 120
2, 78620, Note_off_c, 0, 63, 100
2, 78624, Note_on_c, 0, 63, 120
2, 78668, Note_off_c, 0, 62, 100
2, 78672, Note_on_c, 0, 60, 120
2, 78712, Control_c, 0, 64, 0
2, 78716, Note_off_c, 0, 63, 100
2, 78716, Note_off_c, 0, 60, 100
2, 78720, Note_on_c, 0, 58, 120
2, 78908, Note_off_c, 0, 58, 100
2, 80256, Note_on_c, 0, 63, 80
2, 80256, Note_on_c, 0, 61, 80
2, 80256, Note_on_c, 0, 58, 80
2, 80444, Note_off_c, 0, 61, 100
2, 80444, Note_off_c, 0, 58, 100
2, 80448, Note_on_c, 0, 59, 80
2, 80448, Note_on_c, 0, 56, 80
2, 80636, Note_off_c, 0, 63, 100
2, 80636, Note_off_c, 0, 59, 100
2, 80636, Note_off_c, 0, 56, 100
2, 81792, Note_on_c, 0, 63, 80
2, 81792, Note_on_c, 0, 60, 80
2, 81792, Note_on_c, 0, 66, 80
2, 81980, Note_off_c, 0, 66, 100
2, 81984, Note_on_c, 0, 65, 80
2, 82268, Note_off_c, 0, 65, 100
2, 82272, Note_on_c, 0, 65, 80
2, 82364, Note_off_c, 0, 65, 100
2, 82368, Note_on_c, 0, 66, 80
2, 82460, Note_off_c, 0, 66, 100
2, 82464, Note_on_c, 0, 65, 80
2, 82556, Note_off_c, 0, 63, 100
2, 82556, Note_off_c, 0, 60, 100
2, 82556, Note_off_c, 0, 65, 100
2, 82560, Note_on_c, 0, 63, 80
2, 82560, Note_on_c, 0, 60, 80
2, 82560, Note_on_c, 0, 66, 80
2, 82748, Note_off_c, 0, 66, 100
2, 82752, Note_on_c, 0, 65, 80
2, 83036, Note_off_c, 0, 65, 100
2, 83040, Note_on_c, 0, 65, 80
2, 83132, Note_off_c, 0, 65, 100
2, 83136, Note_on_c, 0, 66, 80
2, 83228, Note_off_c, 0, 66, 100
2, 83232, Note_on_c, 0, 65, 80
2, 83324, Note_off_c, 0, 63, 100
2, 83324, Note_off_c, 0, 60, 100
2, 83324, Note_off_c, 0, 65, 100
2, 83328, Note_on_c, 0, 66, 80
2, 83328, Note_on_c, 0, 63, 80
2, 83328, Note_on_c, 0, 60, 80
2, 83612, Note_off_c, 0, 66, 100
2, 83612, Note_off_c, 0, 63, 100
2, 83612, Note_off_c, 0, 60, 100
2, 83616, Note_on_c, 0, 65, 80
2, 83708, Note_off_c, 0, 65, 100
2, 83712, Note_on_c, 0, 66, 80
2, 83996, Note_off_c, 0, 66, 100
2, 84000, Note_on_c, 0, 65, 80
2, 84092, Note_off_c, 0, 65, 100
2, 84096, Note_on_c, 0, 66, 80
2, 84144, Note_on_c, 0, 65, 80
2, 84188, Note_off_c, 0, 66, 100
2, 84192, Note_on_c, 0, 66, 80
2, 84236, Note_off_c, 0, 65, 100
2, 84240, Note_on_c, 0, 65, 80
2, 84284, Note_off_c, 0, 66, 100
2, 84288, Note_on_c, 0, 66, 80
2, 84332, Note_off_c, 0, 65, 100
2, 84336, Note_on_c, 0, 65, 80
2, 84380, Note_off_c, 0, 66, 100
2, 84384, Note_on_c, 0, 66, 80
2, 84428, Note_off_c, 0, 65, 100
2, 84432, Note_on_c, 0, 65, 80
2, 84476, Note_off_c, 0, 66, 100
2, 84480, Note_on_c, 0, 66, 80
2, 84524, Note_off_c, 0, 65, 100
2, 84528, Note_on_c, 0, 65, 80
2, 84572, Note_off_c, 0, 66, 100
2, 84576, Note_on_c, 0, 66, 80
2, 84620, Note_off_c, 0, 65, 100
2, 84624, Note_on_c, 0, 65, 80
2, 84668, Note_off_c, 0, 66, 100
2, 84672, Note_on_c, 0, 66, 80
2, 84716, Note_off_c, 0, 65, 100
2, 84720, Note_on_c, 0, 65, 80
2, 84764, Note_off_c, 0, 66, 100
2, 84768, Note_on_c, 0, 66, 80
2, 84812, Note_off_c, 0, 65, 100
2, 84816, Note_on_c, 0, 65, 80
2, 84860, Note_off_c, 0, 66, 100
2, 84864, Note_on_c, 0, 67, 80
2, 84908, Note_off_c, 0, 65, 100
2, 84912, Note_on_c, 0, 65, 80
2, 84956, Note_off_c, 0, 67, 100
2, 84960, Note_on_c, 0, 67, 80
2, 85004, Note_off_c, 0, 65, 100
2, 85008, Note_on_c, 0, 65, 80
2, 85052, Note_off_c, 0, 67, 100
2, 85056, Note_on_c, 0, 67, 80
2, 85100, Note_off_c, 0, 65, 100
2, 85104, Note_on_c, 0, 65, 80
2, 85148, Note_off_c, 0, 67, 100
2, 85152, Note_on_c, 0, 67, 80
2, 85196, Note_off_c, 0, 65, 100
2, 85200, Note_on_c, 0, 65, 80
2, 85244, Note_off_c, 0, 67, 100
2, 85248, Note_on_c, 0, 67, 80
2, 85292, Note_off_c, 0, 65, 100
2, 85296, Note_on_c, 0, 65, 80
2, 85340, Note_off_c, 0, 67, 100
2, 85344, Note_on_c, 0, 67, 80
2, 85388, Note_off_c, 0, 65, 100
2, 85392, Note_on_c, 0, 65, 80
2, 85436, Note_off_c, 0, 67, 100
2, 85440, Note_on_c, 0, 67, 80
2, 85484, Note_off_c, 0, 65, 100
2, 85488, Note_on_c, 0, 65, 80
2, 85532, Note_off_c, 0, 67, 100
2, 85536, Note_on_c, 0, 67, 80
2, 85580, Note_off_c, 0, 65, 100
2, 85584, Note_on_c, 0, 65, 80
2, 85628, Note_off_c, 0, 67, 100
2, 85676, Note_off_c, 0, 65, 100
2, 85728, Note_on_c, 0, 65, 80
2, 85820, Note_off_c, 0, 65, 100
2, 85824, Note_on_c, 0, 77, 80
2, 85916, Note_off_c, 0, 77, 100
2, 85920, Note_on_c, 0, 65, 80
2, 86012, Note_off_c, 0, 65, 100
2, 86112, Note_on_c, 0, 65, 80
2, 86204, Note_off_c, 0, 65, 100
2, 86208, Note_on_c, 0, 77, 80
2, 86300, Note_off_c, 0, 77, 64
2, 86304, Note_on_c, 0, 65, 80
2, 86396, Note_off_c, 0, 65, 100
2, 86496, Note_on_c, 0, 65, 80
2, 86588, Note_off_c, 0, 65, 100
2, 86592, Note_on_c, 0, 77, 80
2, 86684, Note_off_c, 0, 77, 100
2, 86688, Note_on_c, 0, 65, 80
2, 86780, Note_off_c, 0, 65, 100
2, 86784, Note_on_c, 0, 77, 80
2, 86972, Note_off_c, 0, 77, 64
2, 87264, Note_on_c, 0, 65, 80
2, 87356, Note_off_c, 0, 65, 100
2, 87360, Note_on_c, 0, 77, 80
2, 87456, Note_on_c, 0, 65, 80
2, 87548, Note_off_c, 0, 65, 100
2, 87648, Note_on_c, 0, 65, 80
2, 87740, Note_off_c, 0, 65, 100
2, 87744, Note_on_c, 0, 77, 80
2, 87836, Note_off_c, 0, 77, 100
2, 87836, Note_off_c, 0, 77, 64
2, 87840, Note_on_c, 0, 65, 80
2, 87932, Note_off_c, 0, 65, 100
2, 88032, Note_on_c, 0, 65, 80
2, 88124, Note_off_c, 0, 65, 100
2, 88128, Note_on_c, 0, 77, 80
2, 88224, Note_on_c, 0, 65, 80
2, 88316, Note_off_c, 0, 65, 100
2, 88320, Note_on_c, 0, 77, 80
2, 88508, Note_off_c, 0, 77, 100
2, 88508, Note_off_c, 0, 77, 64
2, 88800, Note_on_c, 0, 77, 80
2, 88896, Note_on_c, 0, 89, 80
2, 89084, Note_off_c, 0, 89, 100
2, 89184, Note_on_c, 0, 65, 80
2, 89276, Note_off_c, 0, 65, 100
2, 89280, Note_on_c, 0, 77, 80
2, 89468, Note_off_c, 0, 77, 100
2, 89564, Note_off_c, 0, 77, 64
2, 89568, Note_on_c, 0, 77, 80
2, 89664, Note_on_c, 0, 89, 80
2, 89948, Note_off_c, 0, 89, 100
2, 89952, Note_on_c, 0, 77, 80
2, 90140, Note_off_c, 0, 77, 100
2, 90140, Note_off_c, 0, 77, 64
2, 90144, Note_on_c, 0, 79, 95
2, 90192, Note_on_c, 0, 81, 95
2, 90236, Note_off_c, 0, 79, 100
2, 90240, Note_on_c, 0, 82, 95
2, 90284, Note_off_c, 0, 81, 100
2, 90288, Note_on_c, 0, 84, 95
2, 90332, Note_off_c, 0, 82, 100
2, 90336, Note_on_c, 0, 86, 95
2, 90380, Note_off_c, 0, 84, 100
2, 90384, Note_on_c, 0, 84, 95
2, 90428, Note_off_c, 0, 86, 100
2, 90432, Note_on_c, 0, 82, 95
2, 90476, Note_off_c, 0, 84, 100
2, 90480, Note_on_c, 0, 81, 95
2, 90524, Note_off_c, 0, 82, 100
2, 90528, Note_on_c, 0, 79, 95
2, 90572, Note_off_c, 0, 81, 100
2, 90576, Note_on_c, 0, 77, 95
2, 90620, Note_off_c, 0, 79, 100
2, 90624, Note_on_c, 0, 76, 95
2, 90668, Note_off_c, 0, 77, 64
2, 90672, Note_on_c, 0, 74, 95
2, 90716, Note_off_c, 0, 76, 100
2, 90720, Note_on_c, 0, 72, 95
2, 90764, Note_off_c, 0, 74, 100
2, 90768, Note_on_c, 0, 70, 95
2, 90812, Note_off_c, 0, 72, 100
2, 90816, Note_on_c, 0, 69, 95
2, 90860, Note_off_c, 0, 70, 100
2, 90864, Note_on_c, 0, 67, 95
2, 90908, Note_off_c, 0, 69, 100
2, 90912, Note_on_c, 0, 65, 95
2, 90956, Note_off_c, 0, 67, 100
2, 90960, Note_on_c, 0, 64, 80
2, 91004, Note_off_c, 0, 65, 100
2, 91008, Note_on_c, 0, 67, 80
2, 91052, Note_off_c, 0, 64, 100
2, 91056, Note_on_c, 0, 65, 80
2, 91100, Note_off_c, 0, 67, 100
2, 91104, Note_on_c, 0, 69, 80
2, 91148, Note_off_c, 0, 65, 100
2, 91152, Note_on_c, 0, 67, 80
2, 91196, Note_off_c, 0, 69, 100
2, 91200, Note_on_c, 0, 70, 80
2, 91244, Note_off_c, 0, 67, 100
2, 91248, Note_on_c, 0, 69, 80
2, 91292, Note_off_c, 0, 70, 100
2, 91296, Note_on_c, 0, 72, 80
2, 91340, Note_off_c, 0, 69, 100
2, 91344, Note_on_c, 0, 70, 80
2, 91388, Note_off_c, 0, 72, 100
2, 91392, Note_on_c, 0, 74, 80
2, 91436, Note_off_c, 0, 70, 100
2, 91440, Note_on_c, 0, 72, 80
2, 91484, Note_off_c, 0, 74, 100
2, 91488, Note_on_c, 0, 75, 80
2, 91532, Note_off_c, 0, 72, 100
2, 91536, Note_on_c, 0, 74, 80
2, 91580, Note_off_c, 0, 75, 100
2, 91584, Note_on_c, 0, 77, 80
2, 91628, Note_off_c, 0, 74, 100
2, 91632, Note_on_c, 0, 76, 80
2, 91676, Note_off_c, 0, 77, 64
2, 91680, Note_on_c, 0, 79, 80
2, 91724, Note_off_c, 0, 76, 100
2, 91728, Note_on_c, 0, 77, 80
2, 91772, Note_off_c, 0, 79, 100
2, 91772, Note_off_c, 0, 77, 64
2, 91776, Note_on_c, 0, 75, 80
2, 91776, Note_on_c, 0, 63, 80
2, 91868, Note_off_c, 0, 75, 100
2, 91868, Note_off_c, 0, 63, 100
2, 91872, Note_on_c, 0, 74, 80
2, 91872, Note_on_c, 0, 62, 80
2, 91964, Note_off_c, 0, 74, 100
2, 91964, Note_off_c, 0, 62, 100
2, 91968, Note_on_c, 0, 72, 80
2, 91968, Note_on_c, 0, 60, 80
2, 92060, Note_off_c, 0, 72, 100
2, 92060, Note_off_c, 0, 60, 100
2, 92064, Note_on_c, 0, 70, 80
2, 92064, Note_on_c, 0, 58, 80
2, 92156, Note_off_c, 0, 70, 100
2, 92156, Note_off_c, 0, 58, 100
2, 92160, Note_on_c, 0, 69, 80
2, 92160, Note_on_c, 0, 57, 80
2, 92348, Note_off_c, 0, 69, 100
2, 92348, Note_off_c, 0, 57, 100
2, 92352, Note_on_c, 0, 70, 80
2, 92352, Note_on_c, 0, 58, 80
2, 92540, Note_off_c, 0, 70, 100
2, 92540, Note_off_c, 0, 58, 100
2, 92544, Note_on_c, 0, 71, 80
2, 92544, Note_on_c, 0, 59, 80
2, 92732, Note_off_c, 0, 71, 100
2, 92732, Note_off_c, 0, 59, 100
2, 92736, Note_on_c, 0, 72, 80
2, 92736, Note_on_c, 0, 60, 80
2, 93020, Note_off_c, 0, 72, 100
2, 93020, Note_off_c, 0, 60, 100
2, 93024, Note_on_c, 0, 66, 80
2, 93072, Note_on_c, 0, 78, 80
2, 93116, Note_off_c, 0, 66, 100
2, 93120, Note_on_c, 0, 69, 80
2, 93164, Note_off_c, 0, 78, 100
2, 93168, Note_on_c, 0, 81, 80
2, 93212, Note_off_c, 0, 69, 100
2, 93216, Note_on_c, 0, 67, 80
2, 93260, Note_off_c, 0, 81, 100
2, 93264, Note_on_c, 0, 79, 80
2, 93308, Note_off_c, 0, 67, 100
2, 93312, Note_on_c, 0, 65, 80
2, 93356, Note_off_c, 0, 79, 100
2, 93360, Note_on_c, 0, 77, 80
2, 93404, Note_off_c, 0, 65, 100
2, 93408, Note_on_c, 0, 63, 80
2, 93420, Note_off_c, 0, 77, 64
2, 93452, Note_off_c, 0, 77, 64
2, 93456, Note_on_c, 0, 75, 80
2, 93500, Note_off_c, 0, 63, 100
2, 93504, Note_on_c, 0, 62, 80
2, 93548, Note_off_c, 0, 75, 100
2, 93552, Note_on_c, 0, 74, 80
2, 93596, Note_off_c, 0, 62, 100
2, 93600, Note_on_c, 0, 60, 80
2, 93644, Note_off_c, 0, 74, 100
2, 93648, Note_on_c, 0, 72, 80
2, 93692, Note_off_c, 0, 60, 100
2, 93696, Note_on_c, 0, 57, 80
2, 93740, Note_off_c, 0, 72, 100
2, 93744, Note_on_c, 0, 69, 80
2, 93788, Note_off_c, 0, 57, 100
2, 93792, Note_on_c, 0, 58, 80
2, 93836, Note_off_c, 0, 69, 100
2, 93840, Note_on_c, 0, 70, 80
2, 93884, Note_off_c, 0, 58, 100
2, 93888, Note_on_c, 0, 59, 80
2, 93932, Note_off_c, 0, 70, 100
2, 93936, Note_on_c, 0, 71, 80
2, 93980, Note_off_c, 0, 59, 100
2, 93984, Note_on_c, 0, 60, 80
2, 94028, Note_off_c, 0, 71, 100
2, 94032, Note_on_c, 0, 72, 80
2, 94076, Note_off_c, 0, 60, 100
2, 94080, Note_on_c, 0, 73, 80
2, 94080, Note_on_c, 0, 61, 80
2, 94124, Note_off_c, 0, 72, 100
2, 94268, Note_off_c, 0, 73, 100
2, 94268, Note_off_c, 0, 61, 100
2, 94272, Note_on_c, 0, 62, 80
2, 94272, Note_on_c, 0, 74, 80
2, 94556, Note_off_c, 0, 62, 100
2, 94556, Note_off_c, 0, 74, 100
2, 94560, Note_on_c, 0, 65, 80
2, 94608, Note_on_c, 0, 77, 80
2, 94652, Note_off_c, 0, 65, 100
2, 94656, Note_on_c, 0, 67, 80
2, 94700, Note_off_c, 0, 77, 64
2, 94704, Note_on_c, 0, 79, 80
2, 94748, Note_off_c, 0, 67, 100
2, 94752, Note_on_c, 0, 62, 80
2, 94796, Note_off_c, 0, 79, 100
2, 94800, Note_on_c, 0, 74, 80
2, 94844, Note_off_c, 0, 62, 100
2, 94848, Note_on_c, 0, 65, 80
2, 94892, Note_off_c, 0, 74, 100
2, 94896, Note_on_c, 0, 77, 80
2, 94940, Note_off_c, 0, 65, 100
2, 94944, Note_on_c, 0, 63, 80
2, 94988, Note_off_c, 0, 77, 100
2, 94992, Note_on_c, 0, 75, 80
2, 95036, Note_off_c, 0, 63, 100
2, 95040, Note_on_c, 0, 65, 80
2, 95084, Note_off_c, 0, 75, 100
2, 95088, Note_on_c, 0, 77, 80
2, 95132, Note_off_c, 0, 65, 100
2, 95136, Note_on_c, 0, 60, 80
2, 95180, Note_off_c, 0, 77, 64
2, 95184, Note_on_c, 0, 72, 80
2, 95228, Note_off_c, 0, 60, 100
2, 95232, Note_on_c, 0, 63, 80
2, 95276, Note_off_c, 0, 72, 100
2, 95280, Note_on_c, 0, 75, 80
2, 95324, Note_off_c, 0, 63, 100
2, 95328, Note_on_c, 0, 62, 80
2, 95372, Note_off_c, 0, 75, 100
2, 95376, Note_on_c, 0, 74, 80
2, 95420, Note_off_c, 0, 62, 100
2, 95424, Note_on_c, 0, 67, 80
2, 95468, Note_off_c, 0, 74, 100
2, 95472, Note_on_c, 0, 79, 80
2, 95516, Note_off_c, 0, 67, 100
2, 95520, Note_on_c, 0, 62, 80
2, 95564, Note_off_c, 0, 79, 100
2, 95568, Note_on_c, 0, 74, 80
2, 95612, Note_off_c, 0, 62, 100
2, 95616, Note_on_c, 0, 65, 80
2, 95660, Note_off_c, 0, 74, 100
2, 95664, Note_on_c, 0, 77, 80
2, 95708, Note_off_c, 0, 65, 100
2, 95712, Note_on_c, 0, 63, 80
2, 95756, Note_off_c, 0, 77, 100
2, 95760, Note_on_c, 0, 75, 80
2, 95804, Note_off_c, 0, 63, 100
2, 95808, Note_on_c, 0, 65, 80
2, 95852, Note_off_c, 0, 75, 100
2, 95856, Note_on_c, 0, 77, 80
2, 95900, Note_off_c, 0, 65, 100
2, 95904, Note_on_c, 0, 60, 80
2, 95948, Note_off_c, 0, 77, 64
2, 95952, Note_on_c, 0, 72, 80
2, 95996, Note_off_c, 0, 60, 100
2, 96000, Note_on_c, 0, 63, 80
2, 96044, Note_off_c, 0, 72, 100
2, 96048, Note_on_c, 0, 75, 80
2, 96092, Note_off_c, 0, 63, 100
2, 96096, Note_on_c, 0, 62, 80
2, 96140, Note_off_c, 0, 75, 100
2, 96144, Note_on_c, 0, 74, 80
2, 96188, Note_off_c, 0, 62, 100
2, 96192, Note_on_c, 0, 63, 80
2, 96236, Note_off_c, 0, 74, 100
2, 96240, Note_on_c, 0, 75, 80
2, 96284, Note_off_c, 0, 63, 100
2, 96288, Note_on_c, 0, 65, 80
2, 96332, Note_off_c, 0, 75, 100
2, 96336, Note_on_c, 0, 77, 80
2, 96380, Note_off_c, 0, 65, 100
2, 96384, Note_on_c, 0, 66, 80
2, 96428, Note_off_c, 0, 77, 64
2, 96432, Note_on_c, 0, 78, 80
2, 96476, Note_off_c, 0, 66, 100
2, 96480, Note_on_c, 0, 67, 80
2, 96524, Note_off_c, 0, 78, 100
2, 96528, Note_on_c, 0, 79, 80
2, 96572, Note_off_c, 0, 67, 100
2, 96576, Note_on_c, 0, 69, 80
2, 96620, Note_off_c, 0, 79, 100
2, 96624, Note_on_c, 0, 81, 80
2, 96668, Note_off_c, 0, 69, 100
2, 96672, Note_on_c, 0, 70, 80
2, 96716, Note_off_c, 0, 81, 100
2, 96720, Note_on_c, 0, 82, 80
2, 96764, Note_off_c, 0, 70, 100
2, 96768, Note_on_c, 0, 70, 80
2, 96768, Note_on_c, 0, 58, 80
2, 96812, Note_off_c, 0, 82, 100
2, 96956, Note_off_c, 0, 70, 100
2, 96956, Note_off_c, 0, 58, 100
2, 96960, Note_on_c, 0, 72, 80
2, 96960, Note_on_c, 0, 60, 80
2, 97148, Note_off_c, 0, 72, 100
2, 97148, Note_off_c, 0, 60, 100
2, 97152, Note_on_c, 0, 73, 80
2, 97152, Note_on_c, 0, 61, 80
2, 97340, Note_off_c, 0, 73, 100
2, 97340, Note_off_c, 0, 61, 100
2, 97344, Note_on_c, 0, 74, 80
2, 97344, Note_on_c, 0, 62, 80
2, 97584, Note_on_c, 0, 70, 80
2, 97628, Note_off_c, 0, 74, 100
2, 97628, Note_off_c, 0, 62, 100
2, 97632, Note_on_c, 0, 69, 80
2, 97676, Note_off_c, 0, 70, 100
2, 97680, Note_on_c, 0, 70, 80
2, 97724, Note_off_c, 0, 69, 100
2, 97728, Note_on_c, 0, 71, 80
2, 97772, Note_off_c, 0, 70, 100
2, 97776, Note_on_c, 0, 72, 80
2, 97820, Note_off_c, 0, 71, 100
2, 97824, Note_on_c, 0, 73, 80
2, 97868, Note_off_c, 0, 72, 100
2, 97872, Note_on_c, 0, 74, 80
2, 97916, Note_off_c, 0, 73, 100
2, 97920, Note_on_c, 0, 75, 80
2, 97964, Note_off_c, 0, 74, 100
2, 97968, Note_on_c, 0, 76, 80
2, 98012, Note_off_c, 0, 75, 100
2, 98016, Note_on_c, 0, 77, 80
2, 98060, Note_off_c, 0, 76, 100
2, 98064, Note_on_c, 0, 78, 80
2, 98108, Note_off_c, 0, 77, 64
2, 98112, Note_on_c, 0, 79, 80
2, 98156, Note_off_c, 0, 78, 100
2, 98160, Note_on_c, 0, 80, 80
2, 98204, Note_off_c, 0, 79, 100
2, 98208, Note_on_c, 0, 81, 80
2, 98252, Note_off_c, 0, 80, 100
2, 98256, Note_on_c, 0, 82, 80
2, 98300, Note_off_c, 0, 81, 100
2, 98304, Note_on_c, 0, 70, 80
2, 98348, Note_off_c, 0, 82, 100
2, 98352, Note_on_c, 0, 72, 80
2, 98396, Note_off_c, 0, 70, 100
2, 98400, Note_on_c, 0, 69, 80
2, 98444, Note_off_c, 0, 72, 100
2, 98448, Note_on_c, 0, 70, 80
2, 98492, Note_off_c, 0, 69, 100
2, 98496, Note_on_c, 0, 74, 80
2, 98496, Note_on_c, 0, 63, 80
2, 98540, Note_off_c, 0, 70, 100
2, 98636, Note_off_c, 0, 74, 100
2, 98640, Note_on_c, 0, 72, 80
2, 98684, Note_off_c, 0, 63, 100
2, 98684, Note_off_c, 0, 72, 100
2, 98688, Note_on_c, 0, 70, 80
2, 98688, Note_on_c, 0, 62, 80
2, 98876, Note_off_c, 0, 70, 100
2, 98876, Note_off_c, 0, 62, 100
2, 99072, Note_on_c, 0, 74, 95
2, 99072, Note_on_c, 0, 65, 95
2, 99452, Note_off_c, 0, 74, 100
2, 99452, Note_off_c, 0, 65, 100
2, 99456, Note_on_c, 0, 67, 80
2, 99456, Note_on_c, 0, 72, 80
2, 99504, Note_on_c, 0, 74, 80
2, 99548, Note_off_c, 0, 72, 100
2, 99552, Note_on_c, 0, 72, 80
2, 99596, Note_off_c, 0, 74, 100
2, 99600, Note_on_c, 0, 74, 80
2, 99644, Note_off_c, 0, 72, 100
2, 99648, Note_on_c, 0, 71, 80
2, 99692, Note_off_c, 0, 74, 100
2, 99696, Note_on_c, 0, 72, 80
2, 99740, Note_off_c, 0, 71, 100
2, 99744, Note_on_c, 0, 74, 80
2, 99788, Note_off_c, 0, 72, 100
2, 99792, Note_on_c, 0, 75, 80
2, 99836, Note_off_c, 0, 67, 100
2, 99836, Note_off_c, 0, 74, 100
2, 99840, Note_on_c, 0, 67, 80
2, 99884, Note_off_c, 0, 75, 100
2, 100028, Note_off_c, 0, 67, 100
2, 100032, Note_on_c, 0, 69, 80
2, 100032, Note_on_c, 0, 63, 80
2, 100220, Note_off_c, 0, 69, 100
2, 100220, Note_off_c, 0, 63, 100
2, 100224, Note_on_c, 0, 62, 80
2, 100224, Note_on_c, 0, 70, 80
2, 100412, Note_off_c, 0, 70, 100
2, 100416, Note_on_c, 0, 65, 80
2, 100508, Note_off_c, 0, 65, 100
2, 100604, Note_off_c, 0, 62, 100
2, 100608, Note_on_c, 0, 65, 80
2, 100608, Note_on_c, 0, 74, 80
2, 100988, Note_off_c, 0, 65, 100
2, 100988, Note_off_c, 0, 74, 100
2, 100992, Note_on_c, 0, 67, 80
2, 100992, Note_on_c, 0, 72, 80
2, 101088, Note_on_c, 0, 74, 80
2, 101120, Note_on_c, 0, 72, 80
2, 101148, Note_off_c, 0, 74, 100
2, 101152, Note_on_c, 0, 71, 80
2, 101180, Note_off_c, 0, 72, 100
2, 101180, Note_off_c, 0, 72, 100
2, 101184, Note_on_c, 0, 72, 80
2, 101212, Note_off_c, 0, 71, 100
2, 101324, Note_off_c, 0, 72, 100
2, 101328, Note_on_c, 0, 74, 80
2, 101372, Note_off_c, 0, 67, 100
2, 101372, Note_off_c, 0, 74, 100
2, 101376, Note_on_c, 0, 64, 80
2, 101376, Note_on_c, 0, 70, 80
2, 101472, Note_on_c, 0, 72, 80
2, 101504, Note_on_c, 0, 70, 80
2, 101532, Note_off_c, 0, 72, 100
2, 101536, Note_on_c, 0, 69, 80
2, 101564, Note_off_c, 0, 70, 100
2, 101564, Note_off_c, 0, 70, 100
2, 101568, Note_on_c, 0, 70, 80
2, 101596, Note_off_c, 0, 69, 100
2, 101708, Note_off_c, 0, 70, 100
2, 101712, Note_on_c, 0, 72, 80
2, 101756, Note_off_c, 0, 64, 100
2, 101756, Note_off_c, 0, 72, 100
2, 101760, Note_on_c, 0, 70, 80
2, 101760, Note_on_c, 0, 65, 80
2, 101948, Note_off_c, 0, 70, 100
2, 101952, Note_on_c, 0, 69, 80
2, 102140, Note_off_c, 0, 65, 100
2, 102140, Note_off_c, 0, 69, 100
2, 102144, Note_on_c, 0, 67, 80
2, 102144, Note_on_c, 0, 79, 80
2, 102524, Note_off_c, 0, 67, 100
2, 102524, Note_off_c, 0, 79, 100
2, 102528, Note_on_c, 0, 77, 80
2, 102528, Note_on_c, 0, 72, 80
2, 102624, Note_on_c, 0, 79, 80
2, 102656, Note_on_c, 0, 77, 80
2, 102684, Note_off_c, 0, 79, 100
2, 102688, Note_on_c, 0, 76, 80
2, 102716, Note_off_c, 0, 77, 100
2, 102720, Note_on_c, 0, 77, 80
2, 102748, Note_off_c, 0, 76, 100
2, 102860, Note_off_c, 0, 77, 100
2, 102864, Note_on_c, 0, 79, 80
2, 102908, Note_off_c, 0, 72, 100
2, 102908, Note_off_c, 0, 79, 100
2, 102912, Note_on_c, 0, 75, 80
2, 102912, Note_on_c, 0, 69, 80
2, 103008, Note_on_c, 0, 77, 80
2, 103040, Note_on_c, 0, 75, 80
2, 103068, Note_off_c, 0, 77, 100
2, 103072, Note_on_c, 0, 74, 80
2, 103100, Note_off_c, 0, 75, 100
2, 103100, Note_off_c, 0, 75, 100
2, 103104, Note_on_c, 0, 75, 80
2, 103132, Note_off_c, 0, 74, 100
2, 103244, Note_off_c, 0, 75, 100
2, 103248, Note_on_c, 0, 77, 80
2, 103292, Note_off_c, 0, 69, 100
2, 103292, Note_off_c, 0, 77, 100
2, 103296, Note_on_c, 0, 70, 80
2, 103296, Note_on_c, 0, 75, 80
2, 103484, Note_off_c, 0, 75, 100
2, 103488, Note_on_c, 0, 74, 80
2, 103580, Note_off_c, 0, 77, 64
2, 103676, Note_off_c, 0, 70, 100
2, 103676, Note_off_c, 0, 74, 100
2, 103872, Note_on_c, 0, 74, 83
2, 103920, Note_on_c, 0, 82, 84
2, 103968, Note_on_c, 0, 86, 85
2, 104252, Note_off_c, 0, 74, 100
2, 104252, Note_off_c, 0, 82, 100
2, 104252, Note_off_c, 0, 86, 100
2, 104256, Note_on_c, 0, 74, 91
2, 104304, Note_on_c, 0, 82, 92
2, 104352, Note_on_c, 0, 86, 93
2, 104636, Note_off_c, 0, 74, 100
2, 104636, Note_off_c, 0, 82, 100
2, 104636, Note_off_c, 0, 86, 100
2, 104640, Note_on_c, 0, 74, 99
2, 104688, Note_on_c, 0, 82, 100
2, 104736, Note_on_c, 0, 86, 101
2, 105020, Note_off_c, 0, 74, 100
2, 105020, Note_off_c, 0, 82, 100
2, 105020, Note_off_c, 0, 86, 100
2, 105024, Note_on_c, 0, 74, 107
2, 105072, Note_on_c, 0, 82, 108
2, 105120, Note_on_c, 0, 86, 109
2, 105404, Note_off_c, 0, 74, 100
2, 105404, Note_off_c, 0, 82, 100
2, 105404, Note_off_c, 0, 86, 100
2, 105408, Note_on_c, 0, 74, 110
2, 105408, Note_on_c, 0, 86, 110
2, 105788, Note_off_c, 0, 74, 100
2, 105788, Note_off_c, 0, 86, 100
2, 105792, Note_on_c, 0, 72, 110
2, 105792, Note_on_c, 0, 84, 110
2, 105884, Note_off_c, 0, 72, 100
2, 105884, Note_off_c, 0, 84, 100
2, 106176, Note_on_c, 0, 70, 110
2, 106176, Note_on_c, 0, 82, 110
2, 106556, Note_off_c, 0, 70, 100
2, 106556, Note_off_c, 0, 82, 100
2, 106560, Note_on_c, 0, 69, 110
2, 106560, Note_on_c, 0, 81, 110
2, 106652, Note_off_c, 0, 69, 100
2, 106652, Note_off_c, 0, 81, 100
2, 106944, Note_on_c, 0, 67, 110
2, 106944, Note_on_c, 0, 79, 110
2, 107228, Note_off_c, 0, 67, 100
2, 107228, Note_off_c, 0, 79, 100
2, 107232, Note_on_c, 0, 77, 110
2, 107232, Note_on_c, 0, 65, 110
2, 107420, Note_off_c, 0, 77, 64
2, 107420, Note_off_c, 0, 65, 100
2, 107424, Note_on_c, 0, 75, 110
2, 107424, Note_on_c, 0, 63, 110
2, 107612, Note_off_c, 0, 75, 100
2, 107612, Note_off_c, 0, 63, 100
2, 107616, Note_on_c, 0, 74, 110
2, 107616, Note_on_c, 0, 62, 110
2, 107804, Note_off_c, 0, 74, 100
2, 107804, Note_off_c, 0, 62, 100
2, 107808, Note_on_c, 0, 72, 110
2, 107808, Note_on_c, 0, 60, 110
2, 107900, Note_off_c, 0, 72, 100
2, 107900, Note_off_c, 0, 60, 100
2, 107904, Note_on_c, 0, 73, 110
2, 107904, Note_on_c, 0, 61, 110
2, 108092, Note_off_c, 0, 73, 100
2, 108092, Note_off_c, 0, 61, 100
2, 108096, Note_on_c, 0, 74, 110
2, 108188, Note_off_c, 0, 74, 100
2, 108480, Note_on_c, 0, 64, 110
2, 108480, Note_on_c, 0, 74, 110
2, 108860, Note_off_c, 0, 64, 100
2, 108860, Note_off_c, 0, 74, 100
2, 108864, Note_on_c, 0, 65, 110
2, 108864, Note_on_c, 0, 72, 110
2, 109052, Note_off_c, 0, 65, 100
2, 109052, Note_off_c, 0, 72, 100
2, 109248, Note_on_c, 0, 70, 110
2, 109248, Note_on_c, 0, 61, 110
2, 109628, Note_off_c, 0, 61, 100
2, 109628, Note_off_c, 0, 70, 100
2, 109632, Note_on_c, 0, 69, 110
2, 109632, Note_on_c, 0, 62, 110
2, 109820, Note_off_c, 0, 69, 100
2, 109820, Note_off_c, 0, 62, 100
2, 109824, Note_on_c, 0, 67, 110
2, 109824, Note_on_c, 0, 55, 110
2, 110012, Note_off_c, 0, 67, 100
2, 110012, Note_off_c, 0, 55, 100
2, 110016, Note_on_c, 0, 66, 110
2, 110016, Note_on_c, 0, 57, 110
2, 110204, Note_off_c, 0, 57, 100
2, 110208, Note_on_c, 0, 58, 110
2, 110300, Note_off_c, 0, 66, 100
2, 110304, Note_on_c, 0, 65, 80
2, 110396, Note_off_c, 0, 58, 100
2, 110400, Note_on_c, 0, 60, 80
2, 110400, Note_on_c, 0, 55, 80
2, 110492, Note_off_c, 0, 65, 100
2, 110496, Note_on_c, 0, 63, 80
2, 110588, Note_off_c, 0, 60, 100
2, 110588, Note_off_c, 0, 55, 100
2, 110592, Note_on_c, 0, 58, 80
2, 110592, Note_on_c, 0, 53, 80
2, 110684, Note_off_c, 0, 63, 100
2, 110688, Note_on_c, 0, 62, 80
2, 110780, Note_off_c, 0, 58, 100
2, 110780, Note_off_c, 0, 53, 100
2, 110784, Note_on_c, 0, 57, 80
2, 110784, Note_on_c, 0, 51, 80
2, 110876, Note_off_c, 0, 62, 100
2, 110880, Note_on_c, 0, 60, 80
2, 110972, Note_off_c, 0, 57, 100
2, 110972, Note_off_c, 0, 51, 100
2, 110972, Note_off_c, 0, 60, 100
2, 110976, Note_on_c, 0, 58, 80
2, 111024, Note_on_c, 0, 50, 80
2, 111068, Note_off_c, 0, 58, 100
2, 111072, Note_on_c, 0, 53, 80
2, 111116, Note_off_c, 0, 50, 100
2, 111120, Note_on_c, 0, 58, 80
2, 111164, Note_off_c, 0, 53, 100
2, 111168, Note_on_c, 0, 62, 80
2, 111212, Note_off_c, 0, 58, 100
2, 111216, Note_on_c, 0, 65, 80
2, 111260, Note_off_c, 0, 62, 100
2, 111264, Note_on_c, 0, 70, 80
2, 111308, Note_off_c, 0, 65, 100
2, 111312, Note_on_c, 0, 74, 80
2, 111356, Note_off_c, 0, 70, 100
2, 111360, Note_on_c, 0, 65, 80
2, 111404, Note_off_c, 0, 74, 100
2, 111408, Note_on_c, 0, 70, 80
2, 111452, Note_off_c, 0, 65, 100
2, 111456, Note_on_c, 0, 74, 80
2, 111500, Note_off_c, 0, 70, 100
2, 111504, Note_on_c, 0, 77, 80
2, 111548, Note_off_c, 0, 74, 100
2, 111552, Note_on_c, 0, 70, 80
2, 111596, Note_off_c, 0, 77, 100
2, 111600, Note_on_c, 0, 74, 80
2, 111644, Note_off_c, 0, 70, 100
2, 111648, Note_on_c, 0, 77, 80
2, 111692, Note_off_c, 0, 74, 100
2, 111696, Note_on_c, 0, 82, 80
2, 111740, Note_off_c, 0, 77, 64
2, 111744, Note_on_c, 0, 81, 80
2, 111788, Note_off_c, 0, 82, 100
2, 111792, Note_on_c, 0, 87, 80
2, 111836, Note_off_c, 0, 81, 100
2, 111840, Note_on_c, 0, 84, 80
2, 111884, Note_off_c, 0, 87, 100
2, 111888, Note_on_c, 0, 81, 80
2, 111932, Note_off_c, 0, 84, 100
2, 111936, Note_on_c, 0, 77, 80
2, 111980, Note_off_c, 0, 81, 100
2, 111984, Note_on_c, 0, 84, 80
2, 112032, Note_on_c, 0, 81, 80
2, 112076, Note_off_c, 0, 84, 100
2, 112080, Note_on_c, 0, 77, 80
2, 112124, Note_off_c, 0, 81, 100
2, 112128, Note_on_c, 0, 75, 80
2, 112172, Note_off_c, 0, 77, 100
2, 112172, Note_off_c, 0, 77, 100
2, 112176, Note_on_c, 0, 81, 80
2, 112220, Note_off_c, 0, 75, 100
2, 112224, Note_on_c, 0, 77, 80
2, 112268, Note_off_c, 0, 81, 100
2, 112272, Note_on_c, 0, 75, 80
2, 112316, Note_off_c, 0, 77, 100
2, 112320, Note_on_c, 0, 72, 80
2, 112364, Note_off_c, 0, 75, 100
2, 112368, Note_on_c, 0, 77, 80
2, 112412, Note_off_c, 0, 72, 100
2, 112416, Note_on_c, 0, 75, 80
2, 112460, Note_off_c, 0, 77, 64
2, 112464, Note_on_c, 0, 72, 80
2, 112508, Note_off_c, 0, 75, 100
2, 112512, Note_on_c, 0, 58, 80
2, 112556, Note_off_c, 0, 72, 100
2, 112560, Note_on_c, 0, 50, 80
2, 112604, Note_off_c, 0, 58, 100
2, 112608, Note_on_c, 0, 53, 80
2, 112652, Note_off_c, 0, 50, 100
2, 112656, Note_on_c, 0, 58, 80
2, 112700, Note_off_c, 0, 53, 100
2, 112704, Note_on_c, 0, 62, 80
2, 112748, Note_off_c, 0, 58, 100
2, 112752, Note_on_c, 0, 65, 80
2, 112796, Note_off_c, 0, 62, 100
2, 112800, Note_on_c, 0, 70, 80
2, 112844, Note_off_c, 0, 65, 100
2, 112848, Note_on_c, 0, 74, 80
2, 112892, Note_off_c, 0, 70, 100
2, 112896, Note_on_c, 0, 65, 80
2, 112940, Note_off_c, 0, 74, 100
2, 112944, Note_on_c, 0, 70, 80
2, 112988, Note_off_c, 0, 65, 100
2, 112992, Note_on_c, 0, 74, 80
2, 113036, Note_off_c, 0, 70, 100
2, 113040, Note_on_c, 0, 77, 80
2, 113084, Note_off_c, 0, 74, 100
2, 113088, Note_on_c, 0, 70, 80
2, 113132, Note_off_c, 0, 77, 100
2, 113136, Note_on_c, 0, 74, 80
2, 113180, Note_off_c, 0, 70, 100
2, 113184, Note_on_c, 0, 77, 80
2, 113228, Note_off_c, 0, 74, 100
2, 113232, Note_on_c, 0, 82, 80
2, 113276, Note_off_c, 0, 77, 64
2, 113280, Note_on_c, 0, 81, 80
2, 113324, Note_off_c, 0, 82, 100
2, 113328, Note_on_c, 0, 87, 80
2, 113372, Note_off_c, 0, 81, 100
2, 113376, Note_on_c, 0, 84, 80
2, 113420, Note_off_c, 0, 87, 100
2, 113424, Note_on_c, 0, 81, 80
2, 113468, Note_off_c, 0, 84, 100
2, 113472, Note_on_c, 0, 77, 80
2, 113516, Note_off_c, 0, 81, 100
2, 113520, Note_on_c, 0, 84, 80
2, 113568, Note_on_c, 0, 81, 80
2, 113612, Note_off_c, 0, 84, 100
2, 113616, Note_on_c, 0, 77, 80
2, 113660, Note_off_c, 0, 81, 100
2, 113664, Note_on_c, 0, 75, 80
2, 113708, Note_off_c, 0, 77, 100
2, 113708, Note_off_c, 0, 77, 100
2, 113712, Note_on_c, 0, 81, 80
2, 113756, Note_off_c, 0, 75, 100
2, 113760, Note_on_c, 0, 77, 80
2, 113804, Note_off_c, 0, 81, 100
2, 113808, Note_on_c, 0, 75, 80
2, 113852, Note_off_c, 0, 77, 100
2, 113856, Note_on_c, 0, 72, 80
2, 113900, Note_off_c, 0, 75, 100
2, 113904, Note_on_c, 0, 77, 80
2, 113948, Note_off_c, 0, 72, 100
2, 113952, Note_on_c, 0, 75, 80
2, 113996, Note_off_c, 0, 77, 64
2, 114000, Note_on_c, 0, 72, 80
2, 114044, Note_off_c, 0, 75, 100
2, 114048, Control_c, 0, 64, 127
2, 114048, Note_on_c, 0, 70, 80
2, 114092, Note_off_c, 0, 72, 100
2, 114096, Note_on_c, 0, 50, 80
2, 114140, Note_off_c, 0, 70, 100
2, 114144, Note_on_c, 0, 53, 80
2, 114188, Note_off_c, 0, 50, 100
2, 114192, Note_on_c, 0, 58, 81
2, 114236, Note_off_c, 0, 53, 100
2, 114240, Note_on_c, 0, 62, 81
2, 114284, Note_off_c, 0, 58, 100
2, 114288, Note_on_c, 0, 65, 82
2, 114332, Note_off_c, 0, 62, 100
2, 114336, Note_on_c, 0, 70, 82
2, 114380, Note_off_c, 0, 65, 100
2, 114384, Note_on_c, 0, 74, 83
2, 114428, Note_off_c, 0, 70, 100
2, 114432, Note_on_c, 0, 65, 83
2, 114476, Note_off_c, 0, 74, 100
2, 114480, Note_on_c, 0, 70, 84
2, 114524, Note_off_c, 0, 65, 100
2, 114528, Note_on_c, 0, 74, 84
2, 114572, Note_off_c, 0, 70, 100
2, 114576, Note_on_c, 0, 77, 85
2, 114620, Note_off_c, 0, 74, 100
2, 114624, Note_on_c, 0, 70, 85
2, 114668, Note_off_c, 0, 77, 100
2, 114672, Note_on_c, 0, 74, 86
2, 114716, Note_off_c, 0, 70, 100
2, 114720, Note_on_c, 0, 77, 86
2, 114764, Note_off_c, 0, 74, 100
2, 114768, Note_on_c, 0, 82, 87
2, 114808, Control_c, 0, 64, 0
2, 114812, Note_off_c, 0, 77, 64
2, 114816, Control_c, 0, 64, 127
2, 114860, Note_off_c, 0, 82, 100
2, 114864, Note_on_c, 0, 50, 87
2, 114912, Note_on_c, 0, 53, 88
2, 114956, Note_off_c, 0, 50, 100
2, 114960, Note_on_c, 0, 58, 88
2, 115004, Note_off_c, 0, 53, 100
2, 115008, Note_on_c, 0, 62, 89
2, 115052, Note_off_c, 0, 58, 100
2, 115056, Note_on_c, 0, 65, 89
2, 115100, Note_off_c, 0, 62, 100
2, 115104, Note_on_c, 0, 70, 90
2, 115148, Note_off_c, 0, 65, 100
2, 115152, Note_on_c, 0, 74, 90
2, 115196, Note_off_c, 0, 70, 100
2, 115200, Note_on_c, 0, 65, 91
2, 115244, Note_off_c, 0, 74, 100
2, 115248, Note_on_c, 0, 70, 91
2, 115292, Note_off_c, 0, 65, 100
2, 115296, Note_on_c, 0, 74, 92
2, 115340, Note_off_c, 0, 70, 100
2, 115344, Note_on_c, 0, 77, 92
2, 115388, Note_off_c, 0, 74, 100
2, 115392, Note_on_c, 0, 70, 93
2, 115436, Note_off_c, 0, 77, 100
2, 115440, Note_on_c, 0, 74, 93
2, 115484, Note_off_c, 0, 70, 100
2, 115488, Note_on_c, 0, 77, 94
2, 115532, Note_off_c, 0, 74, 100
2, 115536, Note_on_c, 0, 82, 94
2, 115576, Control_c, 0, 64, 0
2, 115580, Note_off_c, 0, 77, 64
2, 115584, Control_c, 0, 64, 127
2, 115628, Note_off_c, 0, 82, 100
2, 115632, Note_on_c, 0, 51, 95
2, 115680, Note_on_c, 0, 55, 95
2, 115724, Note_off_c, 0, 51, 100
2, 115728, Note_on_c, 0, 58, 96
2, 115772, Note_off_c, 0, 55, 100
2, 115776, Note_on_c, 0, 63, 96
2, 115820, Note_off_c, 0, 58, 100
2, 115824, Note_on_c, 0, 67, 97
2, 115868, Note_off_c, 0, 63, 100
2, 115872, Note_on_c, 0, 70, 97
2, 115916, Note_off_c, 0, 67, 100
2, 115920, Note_on_c, 0, 75, 98
2, 115964, Note_off_c, 0, 70, 100
2, 115968, Note_on_c, 0, 67, 98
2, 116012, Note_off_c, 0, 75, 100
2, 116016, Note_on_c, 0, 70, 99
2, 116060, Note_off_c, 0, 67, 100
2, 116064, Note_on_c, 0, 75, 99
2, 116108, Note_off_c, 0, 70, 100
2, 116112, Note_on_c, 0, 79, 100
2, 116156, Note_off_c, 0, 75, 100
2, 116160, Note_on_c, 0, 70, 100
2, 116204, Note_off_c, 0, 79, 100
2, 116208, Note_on_c, 0, 75, 101
2, 116252, Note_off_c, 0, 70, 100
2, 116256, Note_on_c, 0, 79, 101
2, 116300, Note_off_c, 0, 75, 100
2, 116304, Note_on_c, 0, 82, 102
2, 116344, Control_c, 0, 64, 0
2, 116348, Note_off_c, 0, 79, 100
2, 116352, Control_c, 0, 64, 127
2, 116396, Note_off_c, 0, 82, 100
2, 116736, Note_on_c, 0, 62, 106
2, 116784, Note_on_c, 0, 65, 106
2, 116828, Note_off_c, 0, 62, 100
2, 116832, Note_on_c, 0, 68, 107
2, 116876, Note_off_c, 0, 65, 100
2, 116880, Note_on_c, 0, 70, 107
2, 116924, Note_off_c, 0, 68, 100
2, 116928, Note_on_c, 0, 74, 108
2, 116964, Note_on_c, 0, 77, 108
2, 116972, Note_off_c, 0, 70, 100
2, 117000, Note_on_c, 0, 80, 108
2, 117020, Note_off_c, 0, 74, 100
2, 117036, Note_on_c, 0, 84, 109
2, 117048, Note_off_c, 0, 77, 64
2, 117056, Note_off_c, 0, 77, 64
2, 117072, Note_on_c, 0, 82, 109
2, 117092, Note_off_c, 0, 80, 100
2, 117112, Control_c, 0, 64, 0
2, 117120, Note_on_c, 0, 80, 80
2, 117128, Note_off_c, 0, 84, 100
2, 117164, Note_off_c, 0, 82, 100
2, 117212, Note_off_c, 0, 80, 100
2, 117216, Note_on_c, 0, 79, 80
2, 117308, Note_off_c, 0, 79, 100
2, 117312, Note_on_c, 0, 77, 80
2, 117404, Note_off_c, 0, 77, 64
2, 117408, Note_on_c, 0, 75, 80
2, 117500, Note_off_c, 0, 75, 100
2, 117504, Note_on_c, 0, 74, 80
2, 117692, Note_off_c, 0, 74, 100
2, 117696, Note_on_c, 0, 75, 80
2, 117884, Note_off_c, 0, 75, 100
2, 117888, Note_on_c, 0, 76, 80
2, 118076, Note_off_c, 0, 76, 100
2, 118080, Note_on_c, 0, 77, 80
2, 118268, Note_off_c, 0, 77, 64
2, 118368, Note_on_c, 0, 83, 80
2, 118392, Note_on_c, 0, 84, 80
2, 118412, Note_off_c, 0, 83, 100
2, 118416, Note_on_c, 0, 81, 80
2, 118436, Note_off_c, 0, 84, 100
2, 118440, Note_on_c, 0, 83, 80
2, 118460, Note_off_c, 0, 81, 100
2, 118464, Note_on_c, 0, 86, 80
2, 118484, Note_off_c, 0, 83, 100
2, 118556, Note_off_c, 0, 86, 100
2, 118560, Note_on_c, 0, 84, 80
2, 118652, Note_off_c, 0, 84, 100
2, 118656, Note_on_c, 0, 82, 80
2, 118748, Note_off_c, 0, 82, 100
2, 118752, Note_on_c, 0, 80, 80
2, 118844, Note_off_c, 0, 80, 100
2, 118848, Note_on_c, 0, 79, 80
2, 118940, Note_off_c, 0, 79, 100
2, 118944, Note_on_c, 0, 77, 80
2, 119040, Note_on_c, 0, 74, 80
2, 119132, Note_off_c, 0, 74, 100
2, 119136, Note_on_c, 0, 75, 80
2, 119228, Note_off_c, 0, 75, 100
2, 119232, Note_on_c, 0, 76, 80
2, 119324, Note_off_c, 0, 76, 100
2, 119328, Note_on_c, 0, 77, 80
2, 119420, Note_off_c, 0, 77, 100
2, 119420, Note_off_c, 0, 77, 64
2, 119424, Note_on_c, 0, 78, 80
2, 119612, Note_off_c, 0, 78, 100
2, 119616, Note_on_c, 0, 79, 80
2, 119900, Note_off_c, 0, 79, 100
2, 119904, Note_on_c, 0, 79, 80
2, 119996, Note_off_c, 0, 79, 100
2, 120000, Note_on_c, 0, 80, 80
2, 120092, Note_off_c, 0, 80, 100
2, 120096, Note_on_c, 0, 79, 80
2, 120188, Note_off_c, 0, 79, 100
2, 120192, Note_on_c, 0, 77, 80
2, 120284, Note_off_c, 0, 77, 64
2, 120288, Note_on_c, 0, 75, 80
2, 120380, Note_off_c, 0, 75, 100
2, 120384, Note_on_c, 0, 74, 80
2, 120476, Note_off_c, 0, 74, 100
2, 120480, Note_on_c, 0, 72, 80
2, 120572, Note_off_c, 0, 72, 100
2, 120576, Note_on_c, 0, 71, 80
2, 120764, Note_off_c, 0, 71, 100
2, 120768, Note_on_c, 0, 72, 80
2, 120956, Note_off_c, 0, 72, 100
2, 120960, Note_on_c, 0, 73, 80
2, 121148, Note_off_c, 0, 73, 100
2, 121152, Note_on_c, 0, 74, 80
2, 121340, Note_off_c, 0, 74, 100
2, 121440, Note_on_c, 0, 79, 80
2, 121532, Note_off_c, 0, 79, 100
2, 121536, Note_on_c, 0, 80, 80
2, 121628, Note_off_c, 0, 80, 100
2, 121632, Note_on_c, 0, 79, 80
2, 121724, Note_off_c, 0, 79, 100
2, 121728, Note_on_c, 0, 77, 80
2, 121820, Note_off_c, 0, 77, 100
2, 121824, Note_on_c, 0, 75, 80
2, 121916, Note_off_c, 0, 75, 100
2, 121920, Note_on_c, 0, 74, 80
2, 122012, Note_off_c, 0, 74, 100
2, 122016, Note_on_c, 0, 72, 80
2, 122108, Note_off_c, 0, 72, 100
2, 122208, Note_on_c, 0, 75, 80
2, 122300, Note_off_c, 0, 75, 100
2, 122304, Note_on_c, 0, 77, 80
2, 122396, Note_off_c, 0, 77, 64
2, 122400, Note_on_c, 0, 75, 80
2, 122492, Note_off_c, 0, 75, 100
2, 122496, Note_on_c, 0, 74, 80
2, 122588, Note_off_c, 0, 74, 100
2, 122592, Note_on_c, 0, 72, 80
2, 122684, Note_off_c, 0, 72, 100
2, 122688, Note_on_c, 0, 70, 80
2, 122780, Note_off_c, 0, 70, 100
2, 122784, Note_on_c, 0, 69, 80
2, 122876, Note_off_c, 0, 69, 100
2, 124080, Note_on_c, 0, 57, 80
2, 124128, Note_on_c, 0, 58, 80
2, 124172, Note_off_c, 0, 57, 100
2, 124176, Note_on_c, 0, 60, 80
2, 124220, Note_off_c, 0, 58, 100
2, 124224, Note_on_c, 0, 62, 80
2, 124268, Note_off_c, 0, 60, 100
2, 124272, Note_on_c, 0, 63, 80
2, 124316, Note_off_c, 0, 62, 100
2, 124320, Note_on_c, 0, 65, 80
2, 124364, Note_off_c, 0, 63, 100
2, 124368, Note_on_c, 0, 67, 80
2, 124412, Note_off_c, 0, 65, 100
2, 124416, Note_on_c, 0, 69, 80
2, 124460, Note_off_c, 0, 67, 100
2, 124480, Note_on_c, 0, 70, 80
2, 124508, Note_off_c, 0, 69, 100
2, 124544, Note_on_c, 0, 71, 80
2, 124572, Note_off_c, 0, 70, 100
2, 124608, Note_on_c, 0, 72, 80
2, 124636, Note_off_c, 0, 71, 100
2, 124672, Note_on_c, 0, 73, 80
2, 124700, Note_off_c, 0, 72, 100
2, 124736, Note_on_c, 0, 74, 80
2, 124764, Note_off_c, 0, 73, 100
2, 124800, Note_on_c, 0, 75, 80
2, 124816, Note_off_c, 0, 74, 100
2, 124860, Note_off_c, 0, 75, 100
2, 124864, Note_on_c, 0, 69, 80
2, 124924, Note_off_c, 0, 69, 100
2, 124928, Note_on_c, 0, 70, 80
2, 124988, Note_off_c, 0, 70, 100
2, 124992, Note_on_c, 0, 71, 80
2, 125052, Note_off_c, 0, 71, 100
2, 125056, Note_on_c, 0, 72, 80
2, 125116, Note_off_c, 0, 72, 100
2, 125120, Note_on_c, 0, 74, 80
2, 125180, Note_off_c, 0, 74, 100
2, 125184, Note_on_c, 0, 75, 80
2, 125244, Note_off_c, 0, 75, 100
2, 125248, Note_on_c, 0, 69, 80
2, 125308, Note_off_c, 0, 69, 100
2, 125312, Note_on_c, 0, 70, 80
2, 125372, Note_off_c, 0, 70, 100
2, 125376, Note_on_c, 0, 71, 80
2, 125436, Note_off_c, 0, 71, 100
2, 125440, Note_on_c, 0, 72, 80
2, 125500, Note_off_c, 0, 72, 100
2, 125504, Note_on_c, 0, 74, 80
2, 125564, Note_off_c, 0, 74, 100
2, 125568, Note_on_c, 0, 75, 80
2, 125616, Note_on_c, 0, 69, 80
2, 125660, Note_off_c, 0, 75, 100
2, 125664, Note_on_c, 0, 68, 80
2, 125708, Note_off_c, 0, 69, 100
2, 125712, Note_on_c, 0, 69, 80
2, 125756, Note_off_c, 0, 68, 100
2, 125760, Note_on_c, 0, 70, 80
2, 125804, Note_off_c, 0, 69, 100
2, 125808, Note_on_c, 0, 71, 80
2, 125852, Note_off_c, 0, 70, 100
2, 125856, Note_on_c, 0, 72, 80
2, 125900, Note_off_c, 0, 71, 100
2, 125904, Note_on_c, 0, 73, 80
2, 125948, Note_off_c, 0, 72, 100
2, 125952, Note_on_c, 0, 74, 80
2, 125996, Note_off_c, 0, 73, 100
2, 126012, Note_off_c, 0, 74, 100
2, 126016, Note_on_c, 0, 75, 80
2, 126076, Note_off_c, 0, 75, 100
2, 126080, Note_on_c, 0, 76, 80
2, 126140, Note_off_c, 0, 76, 100
2, 126144, Note_on_c, 0, 79, 80
2, 126236, Note_off_c, 0, 79, 100
2, 126240, Note_on_c, 0, 77, 80
2, 126332, Note_off_c, 0, 77, 64
2, 126336, Note_on_c, 0, 77, 80
2, 126400, Note_on_c, 0, 75, 80
2, 126428, Note_off_c, 0, 77, 64
2, 126460, Note_off_c, 0, 75, 100
2, 126464, Note_on_c, 0, 74, 80
2, 126524, Note_off_c, 0, 74, 100
2, 126528, Note_on_c, 0, 74, 80
2, 126588, Note_off_c, 0, 74, 100
2, 126592, Note_on_c, 0, 72, 80
2, 126652, Note_off_c, 0, 72, 100
2, 126656, Note_on_c, 0, 70, 80
2, 126716, Note_off_c, 0, 70, 100
2, 126720, Note_on_c, 0, 70, 80
2, 126780, Note_off_c, 0, 70, 100
2, 126784, Note_on_c, 0, 68, 80
2, 126844, Note_off_c, 0, 68, 100
2, 126848, Note_on_c, 0, 69, 80
2, 126908, Note_off_c, 0, 69, 100
2, 126912, Note_on_c, 0, 72, 80
2, 126972, Note_off_c, 0, 72, 100
2, 126976, Note_on_c, 0, 69, 80
2, 127036, Note_off_c, 0, 69, 100
2, 127040, Note_on_c, 0, 70, 80
2, 127100, Note_off_c, 0, 70, 100
2, 127104, Note_on_c, 0, 71, 80
2, 127292, Note_off_c, 0, 71, 100
2, 127296, Note_on_c, 0, 72, 80
2, 127580, Note_off_c, 0, 72, 100
2, 127584, Note_on_c, 0, 78, 80
2, 127676, Note_off_c, 0, 78, 100
2, 127680, Note_on_c, 0, 81, 80
2, 127772, Note_off_c, 0, 81, 100
2, 127776, Note_on_c, 0, 79, 80
2, 127868, Note_off_c, 0, 79, 100
2, 127872, Note_on_c, 0, 79, 80
2, 127936, Note_on_c, 0, 77, 80
2, 127976, Note_off_c, 0, 79, 100
2, 128000, Note_on_c, 0, 75, 80
2, 128040, Note_off_c, 0, 77, 64
2, 128060, Note_off_c, 0, 75, 100
2, 128064, Note_on_c, 0, 75, 80
2, 128128, Note_on_c, 0, 74, 80
2, 128148, Note_off_c, 0, 75, 100
2, 128192, Note_on_c, 0, 72, 80
2, 128232, Note_off_c, 0, 74, 100
2, 128252, Note_off_c, 0, 72, 100
2, 128256, Note_on_c, 0, 72, 80
2, 128320, Note_on_c, 0, 69, 80
2, 128356, Note_off_c, 0, 72, 100
2, 128384, Note_on_c, 0, 70, 80
2, 128440, Note_off_c, 0, 69, 100
2, 128448, Note_on_c, 0, 74, 80
2, 128504, Note_off_c, 0, 70, 100
2, 128512, Note_on_c, 0, 71, 80
2, 128556, Note_off_c, 0, 74, 100
2, 128572, Note_off_c, 0, 71, 100
2, 128576, Note_on_c, 0, 72, 80
2, 128640, Note_on_c, 0, 73, 80
2, 128676, Note_off_c, 0, 72, 100
2, 128828, Note_off_c, 0, 73, 100
2, 128832, Note_on_c, 0, 74, 80
2, 129084, Note_off_c, 0, 74, 100
2, 129088, Note_on_c, 0, 77, 80
2, 129152, Note_on_c, 0, 76, 80
2, 129208, Note_off_c, 0, 77, 100
2, 129212, Note_off_c, 0, 76, 100
2, 129216, Note_on_c, 0, 77, 80
2, 129280, Note_on_c, 0, 79, 80
2, 129328, Note_off_c, 0, 77, 64
2, 129344, Note_on_c, 0, 74, 80
2, 129388, Note_off_c, 0, 79, 100
2, 129408, Note_on_c, 0, 77, 80
2, 129460, Note_off_c, 0, 74, 100
2, 129472, Note_on_c, 0, 75, 80
2, 129528, Note_off_c, 0, 77, 100
2, 129532, Note_off_c, 0, 75, 100
2, 129536, Note_on_c, 0, 74, 80
2, 129596, Note_off_c, 0, 74, 100
2, 129600, Note_on_c, 0, 75, 80
2, 129660, Note_off_c, 0, 75, 100
2, 129664, Note_on_c, 0, 77, 80
2, 129728, Note_on_c, 0, 72, 80
2, 129788, Note_off_c, 0, 72, 100
2, 129792, Note_on_c, 0, 75, 80
2, 129852, Note_off_c, 0, 75, 100
2, 129856, Note_on_c, 0, 74, 80
2, 129916, Note_off_c, 0, 74, 100
2, 129920, Note_on_c, 0, 73, 80
2, 129980, Note_off_c, 0, 73, 100
2, 129984, Note_on_c, 0, 74, 80
2, 130044, Note_off_c, 0, 74, 100
2, 130048, Note_on_c, 0, 79, 80
2, 130108, Note_off_c, 0, 79, 100
2, 130112, Note_on_c, 0, 74, 80
2, 130172, Note_off_c, 0, 74, 100
2, 130176, Note_on_c, 0, 77, 80
2, 130236, Note_off_c, 0, 77, 100
2, 130240, Note_on_c, 0, 75, 80
2, 130300, Note_off_c, 0, 75, 100
2, 130304, Note_on_c, 0, 74, 80
2, 130364, Note_off_c, 0, 74, 100
2, 130368, Note_on_c, 0, 75, 80
2, 130428, Note_off_c, 0, 75, 100
2, 130432, Note_on_c, 0, 77, 80
2, 130492, Note_off_c, 0, 77, 100
2, 130496, Note_on_c, 0, 72, 80
2, 130556, Note_off_c, 0, 72, 100
2, 130560, Note_on_c, 0, 75, 80
2, 130608, Note_on_c, 0, 74, 80
2, 130652, Note_off_c, 0, 75, 100
2, 130656, Note_on_c, 0, 73, 80
2, 130700, Note_off_c, 0, 74, 100
2, 130704, Note_on_c, 0, 74, 80
2, 130748, Note_off_c, 0, 73, 100
2, 130752, Note_on_c, 0, 75, 80
2, 130796, Note_off_c, 0, 74, 100
2, 130800, Note_on_c, 0, 76, 80
2, 130844, Note_off_c, 0, 75, 100
2, 130848, Note_on_c, 0, 77, 80
2, 130892, Note_off_c, 0, 76, 100
2, 130896, Note_on_c, 0, 78, 80
2, 130940, Note_off_c, 0, 77, 100
2, 130940, Note_off_c, 0, 77, 64
2, 130944, Note_on_c, 0, 79, 80
2, 130988, Note_off_c, 0, 78, 100
2, 130992, Note_on_c, 0, 80, 80
2, 131036, Note_off_c, 0, 79, 100
2, 131040, Note_on_c, 0, 81, 80
2, 131084, Note_off_c, 0, 80, 100
2, 131088, Note_on_c, 0, 82, 80
2, 131132, Note_off_c, 0, 81, 100
2, 131136, Note_on_c, 0, 83, 80
2, 131180, Note_off_c, 0, 82, 100
2, 131184, Note_on_c, 0, 84, 80
2, 131228, Note_off_c, 0, 83, 100
2, 131232, Note_on_c, 0, 85, 80
2, 131276, Note_off_c, 0, 84, 100
2, 131280, Note_on_c, 0, 86, 80
2, 131324, Note_off_c, 0, 85, 100
2, 131328, Note_on_c, 0, 87, 80
2, 131372, Note_off_c, 0, 86, 100
2, 131376, Note_on_c, 0, 86, 80
2, 131420, Note_off_c, 0, 87, 100
2, 131424, Note_on_c, 0, 84, 80
2, 131468, Note_off_c, 0, 86, 100
2, 131472, Note_on_c, 0, 82, 80
2, 131516, Note_off_c, 0, 84, 100
2, 131520, Note_on_c, 0, 81, 80
2, 131564, Note_off_c, 0, 82, 100
2, 131568, Note_on_c, 0, 79, 80
2, 131612, Note_off_c, 0, 81, 100
2, 131616, Note_on_c, 0, 77, 80
2, 131660, Note_off_c, 0, 79, 100
2, 131664, Note_on_c, 0, 76, 80
2, 131708, Note_off_c, 0, 77, 64
2, 131712, Note_on_c, 0, 79, 80
2, 131756, Note_off_c, 0, 76, 100
2, 131900, Note_off_c, 0, 79, 100
2, 131904, Note_on_c, 0, 77, 80
2, 132188, Note_off_c, 0, 77, 100
2, 132192, Note_on_c, 0, 77, 80
2, 132192, Note_on_c, 0, 65, 80
2, 132284, Note_off_c, 0, 77, 100
2, 132284, Note_off_c, 0, 65, 100
2, 132288, Note_on_c, 0, 79, 80
2, 132288, Note_on_c, 0, 67, 80
2, 132380, Note_off_c, 0, 79, 100
2, 132380, Note_off_c, 0, 67, 100
2, 132384, Note_on_c, 0, 77, 80
2, 132384, Note_on_c, 0, 65, 80
2, 132476, Note_off_c, 0, 77, 64
2, 132476, Note_off_c, 0, 65, 100
2, 132544, Note_on_c, 0, 75, 80
2, 132544, Note_on_c, 0, 63, 80
2, 132604, Note_off_c, 0, 75, 100
2, 132604, Note_off_c, 0, 63, 100
2, 132608, Note_on_c, 0, 74, 80
2, 132608, Note_on_c, 0, 62, 80
2, 132668, Note_off_c, 0, 74, 100
2, 132668, Note_off_c, 0, 62, 100
2, 132736, Note_on_c, 0, 72, 80
2, 132736, Note_on_c, 0, 60, 80
2, 132796, Note_off_c, 0, 72, 100
2, 132796, Note_off_c, 0, 60, 100
2, 132800, Note_on_c, 0, 70, 80
2, 132800, Note_on_c, 0, 58, 80
2, 132860, Note_off_c, 0, 70, 100
2, 132860, Note_off_c, 0, 58, 100
2, 132928, Note_on_c, 0, 68, 80
2, 132928, Note_on_c, 0, 56, 80
2, 132988, Note_off_c, 0, 68, 100
2, 132988, Note_off_c, 0, 56, 100
2, 132992, Note_on_c, 0, 69, 80
2, 132992, Note_on_c, 0, 57, 80
2, 133052, Note_off_c, 0, 69, 100
2, 133052, Note_off_c, 0, 57, 100
2, 133120, Note_on_c, 0, 69, 80
2, 133120, Note_on_c, 0, 57, 80
2, 133180, Note_off_c, 0, 69, 100
2, 133180, Note_off_c, 0, 57, 100
2, 133184, Note_on_c, 0, 70, 80
2, 133184, Note_on_c, 0, 58, 80
2, 133244, Note_off_c, 0, 70, 100
2, 133244, Note_off_c, 0, 58, 100
2, 133248, Note_on_c, 0, 71, 80
2, 133248, Note_on_c, 0, 59, 80
2, 133436, Note_off_c, 0, 71, 100
2, 133436, Note_off_c, 0, 59, 100
2, 133440, Note_on_c, 0, 72, 80
2, 133440, Note_on_c, 0, 60, 80
2, 133724, Note_off_c, 0, 72, 100
2, 133724, Note_off_c, 0, 60, 100
2, 133728, Note_on_c, 0, 78, 80
2, 133728, Note_on_c, 0, 66, 80
2, 133820, Note_off_c, 0, 78, 100
2, 133820, Note_off_c, 0, 66, 100
2, 133824, Note_on_c, 0, 81, 80
2, 133824, Note_on_c, 0, 69, 80
2, 133916, Note_off_c, 0, 81, 100
2, 133916, Note_off_c, 0, 69, 100
2, 133920, Note_on_c, 0, 79, 80
2, 133920, Note_on_c, 0, 67, 80
2, 134012, Note_off_c, 0, 79, 100
2, 134012, Note_off_c, 0, 67, 100
2, 134080, Note_on_c, 0, 77, 80
2, 134080, Note_on_c, 0, 65, 80
2, 134140, Note_off_c, 0, 77, 64
2, 134140, Note_off_c, 0, 65, 100
2, 134144, Note_on_c, 0, 75, 80
2, 134144, Note_on_c, 0, 63, 80
2, 134204, Note_off_c, 0, 75, 100
2, 134204, Note_off_c, 0, 63, 100
2, 134272, Note_on_c, 0, 74, 80
2, 134272, Note_on_c, 0, 62, 80
2, 134332, Note_off_c, 0, 74, 100
2, 134332, Note_off_c, 0, 62, 100
2, 134336, Note_on_c, 0, 72, 80
2, 134336, Note_on_c, 0, 60, 80
2, 134396, Note_off_c, 0, 72, 100
2, 134396, Note_off_c, 0, 60, 100
2, 134464, Note_on_c, 0, 69, 80
2, 134464, Note_on_c, 0, 57, 80
2, 134524, Note_off_c, 0, 69, 100
2, 134524, Note_off_c, 0, 57, 100
2, 134528, Note_on_c, 0, 70, 80
2, 134528, Note_on_c, 0, 58, 80
2, 134588, Note_off_c, 0, 70, 100
2, 134588, Note_off_c, 0, 58, 100
2, 134656, Note_on_c, 0, 71, 80
2, 134656, Note_on_c, 0, 59, 80
2, 134716, Note_off_c, 0, 71, 100
2, 134716, Note_off_c, 0, 59, 100
2, 134720, Note_on_c, 0, 72, 80
2, 134720, Note_on_c, 0, 60, 80
2, 134780, Note_off_c, 0, 72, 100
2, 134780, Note_off_c, 0, 60, 100
2, 134784, Note_on_c, 0, 73, 80
2, 134784, Note_on_c, 0, 61, 80
2, 134972, Note_off_c, 0, 73, 100
2, 134972, Note_off_c, 0, 61, 100
2, 134976, Note_on_c, 0, 62, 80
2, 134976, Note_on_c, 0, 74, 80
2, 135228, Note_off_c, 0, 74, 100
2, 135232, Note_on_c, 0, 77, 80
2, 135292, Note_off_c, 0, 77, 100
2, 135296, Note_on_c, 0, 76, 80
2, 135356, Note_off_c, 0, 62, 100
2, 135356, Note_off_c, 0, 76, 100
2, 135360, Note_on_c, 0, 77, 80
2, 135360, Note_on_c, 0, 68, 80
2, 135424, Note_on_c, 0, 79, 80
2, 135480, Note_off_c, 0, 77, 64
2, 135484, Note_off_c, 0, 79, 100
2, 135488, Note_on_c, 0, 74, 80
2, 135548, Note_off_c, 0, 74, 100
2, 135552, Note_on_c, 0, 77, 80
2, 135616, Note_on_c, 0, 75, 80
2, 135672, Note_off_c, 0, 77, 100
2, 135676, Note_off_c, 0, 75, 100
2, 135680, Note_on_c, 0, 74, 80
2, 135740, Note_off_c, 0, 68, 100
2, 135740, Note_off_c, 0, 74, 100
2, 135744, Note_on_c, 0, 75, 80
2, 135744, Note_on_c, 0, 69, 80
2, 135804, Note_off_c, 0, 75, 100
2, 135808, Note_on_c, 0, 77, 80
2, 135872, Note_on_c, 0, 72, 80
2, 135928, Note_off_c, 0, 77, 64
2, 135932, Note_off_c, 0, 69, 100
2, 135932, Note_off_c, 0, 72, 100
2, 135936, Note_on_c, 0, 75, 80
2, 135936, Note_on_c, 0, 70, 80
2, 135996, Note_off_c, 0, 75, 100
2, 136000, Note_on_c, 0, 74, 80
2, 136060, Note_off_c, 0, 74, 100
2, 136064, Note_on_c, 0, 73, 80
2, 136124, Note_off_c, 0, 70, 100
2, 136124, Note_off_c, 0, 73, 100
2, 136128, Note_on_c, 0, 74, 80
2, 136128, Note_on_c, 0, 68, 80
2, 136188, Note_off_c, 0, 74, 100
2, 136192, Note_on_c, 0, 79, 80
2, 136252, Note_off_c, 0, 79, 100
2, 136256, Note_on_c, 0, 74, 80
2, 136316, Note_off_c, 0, 74, 100
2, 136320, Note_on_c, 0, 77, 80
2, 136384, Note_on_c, 0, 75, 80
2, 136440, Note_off_c, 0, 77, 100
2, 136444, Note_off_c, 0, 75, 100
2, 136448, Note_on_c, 0, 74, 80
2, 136508, Note_off_c, 0, 68, 100
2, 136508, Note_off_c, 0, 74, 100
2, 136512, Note_on_c, 0, 75, 80
2, 136512, Note_on_c, 0, 69, 80
2, 136572, Note_off_c, 0, 75, 100
2, 136576, Note_on_c, 0, 77, 80
2, 136640, Note_on_c, 0, 72, 80
2, 136680, Note_off_c, 0, 77, 64
2, 136700, Note_off_c, 0, 69, 100
2, 136700, Note_off_c, 0, 72, 100
2, 136704, Note_on_c, 0, 75, 80
2, 136704, Note_on_c, 0, 70, 80
2, 136764, Note_off_c, 0, 75, 100
2, 136764, Note_off_c, 0, 70, 100
2, 136768, Note_on_c, 0, 74, 80
2, 136768, Note_on_c, 0, 62, 80
2, 136828, Note_off_c, 0, 74, 100
2, 136828, Note_off_c, 0, 62, 100
2, 136832, Note_on_c, 0, 73, 80
2, 136832, Note_on_c, 0, 61, 80
2, 136892, Note_off_c, 0, 73, 100
2, 136892, Note_off_c, 0, 61, 100
2, 136896, Note_on_c, 0, 74, 80
2, 136896, Note_on_c, 0, 62, 80
2, 136956, Note_off_c, 0, 74, 100
2, 136956, Note_off_c, 0, 62, 100
2, 136960, Note_on_c, 0, 75, 80
2, 136960, Note_on_c, 0, 63, 80
2, 137020, Note_off_c, 0, 75, 100
2, 137020, Note_off_c, 0, 63, 100
2, 137024, Note_on_c, 0, 76, 80
2, 137024, Note_on_c, 0, 64, 80
2, 137084, Note_off_c, 0, 76, 100
2, 137084, Note_off_c, 0, 64, 100
2, 137088, Note_on_c, 0, 77, 80
2, 137088, Note_on_c, 0, 65, 80
2, 137148, Note_off_c, 0, 65, 100
2, 137152, Note_on_c, 0, 78, 80
2, 137152, Note_on_c, 0, 66, 80
2, 137204, Note_off_c, 0, 77, 64
2, 137212, Note_off_c, 0, 78, 100
2, 137212, Note_off_c, 0, 66, 100
2, 137216, Note_on_c, 0, 79, 80
2, 137216, Note_on_c, 0, 67, 80
2, 137276, Note_off_c, 0, 79, 100
2, 137276, Note_off_c, 0, 67, 100
2, 137280, Note_on_c, 0, 80, 80
2, 137280, Note_on_c, 0, 68, 80
2, 137340, Note_off_c, 0, 80, 100
2, 137340, Note_off_c, 0, 68, 100
2, 137344, Note_on_c, 0, 81, 80
2, 137344, Note_on_c, 0, 69, 80
2, 137404, Note_off_c, 0, 81, 100
2, 137404, Note_off_c, 0, 69, 100
2, 137408, Note_on_c, 0, 82, 80
2, 137408, Note_on_c, 0, 70, 80
2, 137468, Note_off_c, 0, 82, 100
2, 137468, Note_off_c, 0, 70, 100
2, 137472, Note_on_c, 0, 70, 80
2, 137472, Note_on_c, 0, 58, 80
2, 137660, Note_off_c, 0, 70, 100
2, 137660, Note_off_c, 0, 58, 100
2, 137664, Note_on_c, 0, 72, 80
2, 137664, Note_on_c, 0, 60, 80
2, 137852, Note_off_c, 0, 72, 100
2, 137852, Note_off_c, 0, 60, 100
2, 137856, Note_on_c, 0, 73, 80
2, 137856, Note_on_c, 0, 61, 80
2, 138044, Note_off_c, 0, 73, 100
2, 138044, Note_off_c, 0, 61, 100
2, 138048, Note_on_c, 0, 74, 80
2, 138048, Note_on_c, 0, 62, 80
2, 138288, Note_on_c, 0, 70, 80
2, 138332, Note_off_c, 0, 74, 100
2, 138332, Note_off_c, 0, 62, 100
2, 138336, Note_on_c, 0, 69, 80
2, 138380, Note_off_c, 0, 70, 100
2, 138384, Note_on_c, 0, 70, 80
2, 138428, Note_off_c, 0, 69, 100
2, 138432, Note_on_c, 0, 71, 80
2, 138476, Note_off_c, 0, 70, 100
2, 138480, Note_on_c, 0, 72, 80
2, 138524, Note_off_c, 0, 71, 100
2, 138528, Note_on_c, 0, 73, 80
2, 138572, Note_off_c, 0, 72, 100
2, 138576, Note_on_c, 0, 74, 80
2, 138620, Note_off_c, 0, 73, 100
2, 138624, Note_on_c, 0, 75, 80
2, 138668, Note_off_c, 0, 74, 100
2, 138672, Note_on_c, 0, 76, 80
2, 138716, Note_off_c, 0, 75, 100
2, 138720, Note_on_c, 0, 77, 80
2, 138764, Note_off_c, 0, 76, 100
2, 138768, Note_on_c, 0, 78, 80
2, 138812, Note_off_c, 0, 77, 64
2, 138816, Note_on_c, 0, 79, 80
2, 138860, Note_off_c, 0, 78, 100
2, 138864, Note_on_c, 0, 80, 80
2, 138908, Note_off_c, 0, 79, 100
2, 138912, Note_on_c, 0, 81, 80
2, 138956, Note_off_c, 0, 80, 100
2, 138960, Note_on_c, 0, 82, 80
2, 139004, Note_off_c, 0, 81, 100
2, 139008, Note_on_c, 0, 70, 80
2, 139052, Note_off_c, 0, 82, 100
2, 139056, Note_on_c, 0, 72, 80
2, 139100, Note_off_c, 0, 70, 100
2, 139104, Note_on_c, 0, 69, 80
2, 139148, Note_off_c, 0, 72, 100
2, 139152, Note_on_c, 0, 70, 80
2, 139196, Note_off_c, 0, 69, 100
2, 139200, Note_on_c, 0, 74, 80
2, 139200, Note_on_c, 0, 63, 80
2, 139244, Note_off_c, 0, 70, 100
2, 139340, Note_off_c, 0, 74, 100
2, 139344, Note_on_c, 0, 72, 80
2, 139388, Note_off_c, 0, 63, 100
2, 139388, Note_off_c, 0, 72, 100
2, 139392, Note_on_c, 0, 62, 80
2, 139392, Note_on_c, 0, 70, 80
2, 139440, Note_on_c, 0, 65, 80
2, 139484, Note_off_c, 0, 70, 100
2, 139488, Note_on_c, 0, 67, 80
2, 139532, Note_off_c, 0, 65, 100
2, 139536, Note_on_c, 0, 69, 80
2, 139580, Note_off_c, 0, 62, 100
2, 139580, Note_off_c, 0, 67, 100
2, 139584, Note_on_c, 0, 70, 80
2, 139628, Note_off_c, 0, 69, 100
2, 139632, Note_on_c, 0, 72, 80
2, 139676, Note_off_c, 0, 70, 100
2, 139680, Note_on_c, 0, 74, 80
2, 139724, Note_off_c, 0, 72, 100
2, 139728, Note_on_c, 0, 75, 80
2, 139772, Note_off_c, 0, 74, 100
2, 139776, Note_on_c, 0, 77, 80
2, 139776, Note_on_c, 0, 70, 80
2, 139820, Note_off_c, 0, 75, 100
2, 140156, Note_off_c, 0, 77, 64
2, 140156, Note_off_c, 0, 70, 100
2, 140160, Note_on_c, 0, 77, 100
2, 140160, Note_on_c, 0, 70, 100
2, 140540, Note_off_c, 0, 77, 100
2, 140540, Note_off_c, 0, 70, 100
2, 140544, Note_on_c, 0, 77, 100
2, 140544, Note_on_c, 0, 70, 100
2, 140828, Note_off_c, 0, 70, 100
2, 140832, Note_on_c, 0, 72, 100
2, 140876, Note_off_c, 0, 72, 100
2, 140880, Note_on_c, 0, 74, 100
2, 140924, Note_off_c, 0, 77, 64
2, 140924, Note_off_c, 0, 74, 100
2, 140928, Note_on_c, 0, 77, 100
2, 140928, Note_on_c, 0, 75, 100
2, 141308, Note_off_c, 0, 77, 100
2, 141308, Note_off_c, 0, 75, 100
2, 141312, Note_on_c, 0, 82, 100
2, 141312, Note_on_c, 0, 74, 100
2, 141596, Note_off_c, 0, 74, 100
2, 141600, Note_on_c, 0, 75, 100
2, 141644, Note_off_c, 0, 75, 100
2, 141648, Note_on_c, 0, 77, 100
2, 141692, Note_off_c, 0, 82, 100
2, 141696, Note_on_c, 0, 82, 100
2, 141696, Note_on_c, 0, 79, 100
2, 141836, Note_off_c, 0, 77, 64
2, 141884, Note_off_c, 0, 82, 100
2, 141884, Note_off_c, 0, 79, 100
2, 141888, Note_on_c, 0, 84, 100
2, 141888, Note_on_c, 0, 79, 100
2, 141888, Note_on_c, 0, 72, 100
2, 142076, Note_off_c, 0, 84, 100
2, 142076, Note_off_c, 0, 79, 100
2, 142076, Note_off_c, 0, 72, 100
2, 142080, Note_on_c, 0, 77, 100
2, 142080, Note_on_c, 0, 74, 100
2, 142080, Note_on_c, 0, 86, 100
2, 142268, Note_off_c, 0, 74, 100
2, 142268, Note_off_c, 0, 86, 100
2, 142272, Note_on_c, 0, 87, 100
2, 142272, Note_on_c, 0, 75, 100
2, 142460, Note_off_c, 0, 77, 64
2, 142460, Note_off_c, 0, 87, 100
2, 142460, Note_off_c, 0, 75, 100
2, 142464, Note_on_c, 0, 86, 100
2, 142464, Note_on_c, 0, 74, 100
2, 142652, Note_off_c, 0, 86, 100
2, 142656, Note_on_c, 0, 82, 100
2, 142844, Note_off_c, 0, 74, 100
2, 142844, Note_off_c, 0, 82, 100
2, 142848, Note_on_c, 0, 77, 100
2, 142848, Note_on_c, 0, 70, 100
2, 143228, Note_off_c, 0, 77, 64
2, 143228, Note_off_c, 0, 70, 100
2, 143232, Note_on_c, 0, 77, 100
2, 143232, Note_on_c, 0, 70, 100
2, 143612, Note_off_c, 0, 77, 100
2, 143612, Note_off_c, 0, 70, 100
2, 143616, Note_on_c, 0, 77, 100
2, 143616, Note_on_c, 0, 70, 100
2, 143900, Note_off_c, 0, 70, 100
2, 143904, Note_on_c, 0, 72, 100
2, 143948, Note_off_c, 0, 72, 100
2, 143952, Note_on_c, 0, 74, 100
2, 143996, Note_off_c, 0, 77, 64
2, 143996, Note_off_c, 0, 74, 100
2, 144000, Note_on_c, 0, 77, 100
2, 144000, Note_on_c, 0, 75, 100
2, 144380, Note_off_c, 0, 77, 100
2, 144380, Note_off_c, 0, 75, 100
2, 144384, Note_on_c, 0, 82, 100
2, 144384, Note_on_c, 0, 74, 100
2, 144668, Note_off_c, 0, 74, 100
2, 144672, Note_on_c, 0, 75, 100
2, 144716, Note_off_c, 0, 75, 100
2, 144720, Note_on_c, 0, 77, 100
2, 144764, Note_off_c, 0, 82, 100
2, 144768, Note_on_c, 0, 82, 100
2, 144768, Note_on_c, 0, 79, 100
2, 144908, Note_off_c, 0, 77, 64
2, 144956, Note_off_c, 0, 82, 100
2, 144956, Note_off_c, 0, 79, 100
2, 144960, Note_on_c, 0, 84, 101
2, 144960, Note_on_c, 0, 79, 101
2, 144960, Note_on_c, 0, 72, 101
2, 145148, Note_off_c, 0, 84, 100
2, 145148, Note_off_c, 0, 79, 100
2, 145148, Note_off_c, 0, 72, 100
2, 145152, Note_on_c, 0, 77, 102
2, 145152, Note_on_c, 0, 74, 102
2, 145152, Note_on_c, 0, 86, 102
2, 145340, Note_off_c, 0, 74, 100
2, 145340, Note_off_c, 0, 86, 100
2, 145344, Note_on_c, 0, 87, 103
2, 145344, Note_on_c, 0, 75, 103
2, 145532, Note_off_c, 0, 77, 64
2, 145532, Note_off_c, 0, 87, 100
2, 145532, Note_off_c, 0, 75, 100
2, 145536, Note_on_c, 0, 86, 104
2, 145536, Note_on_c, 0, 74, 104
2, 145724, Note_off_c, 0, 86, 100
2, 145728, Note_on_c, 0, 82, 105
2, 145916, Note_off_c, 0, 74, 100
2, 145916, Note_off_c, 0, 82, 100
2, 145920, Note_on_c, 0, 82, 106
2, 145920, Note_on_c, 0, 74, 106
2, 145920, Note_on_c, 0, 70, 106
2, 146204, Note_off_c, 0, 74, 100
2, 146204, Note_off_c, 0, 70, 100
2, 146208, Note_on_c, 0, 75, 107
2, 146208, Note_on_c, 0, 72, 107
2, 146252, Note_off_c, 0, 75, 100
2, 146252, Note_off_c, 0, 72, 100
2, 146256, Note_on_c, 0, 77, 107
2, 146256, Note_on_c, 0, 74, 107
2, 146300, Note_off_c, 0, 82, 100
2, 146300, Note_off_c, 0, 74, 100
2, 146304, Note_on_c, 0, 82, 108
2, 146304, Note_on_c, 0, 79, 108
2, 146444, Note_off_c, 0, 77, 64
2, 146492, Note_off_c, 0, 82, 100
2, 146492, Note_off_c, 0, 79, 100
2, 146496, Note_on_c, 0, 84, 109
2, 146496, Note_on_c, 0, 79, 109
2, 146496, Note_on_c, 0, 72, 109
2, 146684, Note_off_c, 0, 84, 100
2, 146684, Note_off_c, 0, 79, 100
2, 146684, Note_off_c, 0, 72, 100
2, 146688, Note_on_c, 0, 77, 110
2, 146688, Note_on_c, 0, 74, 110
2, 146688, Note_on_c, 0, 86, 110
2, 146876, Note_off_c, 0, 74, 100
2, 146876, Note_off_c, 0, 86, 100
2, 146880, Note_on_c, 0, 87, 111
2, 146880, Note_on_c, 0, 75, 111
2, 147068, Note_off_c, 0, 77, 64
2, 147068, Note_off_c, 0, 87, 100
2, 147068, Note_off_c, 0, 75, 100
2, 147072, Note_on_c, 0, 86, 112
2, 147072, Note_on_c, 0, 74, 112
2, 147260, Note_off_c, 0, 86, 100
2, 147264, Note_on_c, 0, 82, 113
2, 147452, Note_off_c, 0, 74, 100
2, 147452, Note_off_c, 0, 82, 100
2, 147456, Note_on_c, 0, 82, 114
2, 147456, Note_on_c, 0, 74, 114
2, 147456, Note_on_c, 0, 70, 114
2, 147740, Note_off_c, 0, 74, 100
2, 147740, Note_off_c, 0, 70, 100
2, 147744, Note_on_c, 0, 75, 115
2, 147744, Note_on_c, 0, 72, 115
2, 147788, Note_off_c, 0, 75, 100
2, 147788, Note_off_c, 0, 72, 100
2, 147792, Note_on_c, 0, 77, 115
2, 147792, Note_on_c, 0, 74, 115
2, 147836, Note_off_c, 0, 82, 100
2, 147836, Note_off_c, 0, 74, 100
2, 147840, Note_on_c, 0, 82, 116
2, 147840, Note_on_c, 0, 79, 116
2, 147840, Note_on_c, 0, 75, 116
2, 147980, Note_off_c, 0, 77, 64
2, 148028, Note_off_c, 0, 82, 100
2, 148028, Note_off_c, 0, 79, 100
2, 148028, Note_off_c, 0, 75, 100
2, 148032, Note_on_c, 0, 84, 117
2, 148032, Note_on_c, 0, 82, 117
2, 148032, Note_on_c, 0, 76, 117
2, 148032, Note_on_c, 0, 72, 117
2, 148220, Note_off_c, 0, 84, 100
2, 148220, Note_off_c, 0, 82, 100
2, 148220, Note_off_c, 0, 76, 100
2, 148220, Note_off_c, 0, 72, 100
2, 148224, Note_on_c, 0, 77, 118
2, 148224, Note_on_c, 0, 82, 118
2, 148224, Note_on_c, 0, 86, 118
2, 148224, Note_on_c, 0, 74, 118
2, 148412, Note_off_c, 0, 77, 64
2, 148412, Note_off_c, 0, 82, 100
2, 148412, Note_off_c, 0, 86, 100
2, 148412, Note_off_c, 0, 74, 100
2, 148416, Note_on_c, 0, 81, 118
2, 148416, Note_on_c, 0, 75, 118
2, 148416, Note_on_c, 0, 69, 118
2, 148604, Note_off_c, 0, 81, 100
2, 148604, Note_off_c, 0, 75, 100
2, 148604, Note_off_c, 0, 69, 100
2, 148608, Note_on_c, 0, 82, 119
2, 148608, Note_on_c, 0, 74, 119
2, 148608, Note_on_c, 0, 70, 119
2, 148700, Note_off_c, 0, 82, 100
2, 148704, Note_on_c, 0, 77, 80
2, 148796, Note_off_c, 0, 74, 100
2, 148796, Note_off_c, 0, 70, 100
2, 148796, Note_off_c, 0, 77, 100
2, 148800, Note_on_c, 0, 79, 80
2, 148892, Note_off_c, 0, 79, 100
2, 148896, Note_on_c, 0, 77, 80
2, 148988, Note_off_c, 0, 77, 64
2, 148992, Note_on_c, 0, 75, 80
2, 149084, Note_off_c, 0, 75, 100
2, 149088, Note_on_c, 0, 74, 80
2, 149180, Note_off_c, 0, 74, 100
2, 149184, Note_on_c, 0, 72, 80
2, 149276, Note_off_c, 0, 72, 100
2, 149280, Note_on_c, 0, 70, 80
2, 149372, Note_off_c, 0, 70, 100
2, 149376, Note_on_c, 0, 69, 80
2, 149376, Note_on_c, 0, 63, 80
2, 149468, Note_off_c, 0, 69, 100
2, 149472, Note_on_c, 0, 67, 80
2, 149564, Note_off_c, 0, 67, 100
2, 149568, Note_on_c, 0, 65, 80
2, 149948, Note_off_c, 0, 63, 100
2, 149948, Note_off_c, 0, 65, 100
2, 149952, Note_on_c, 0, 67, 80
2, 149952, Note_on_c, 0, 63, 80
2, 150044, Note_off_c, 0, 67, 100
2, 150048, Note_on_c, 0, 69, 80
2, 150140, Note_off_c, 0, 63, 100
2, 150140, Note_off_c, 0, 69, 100
2, 150144, Note_on_c, 0, 70, 80
2, 150144, Note_on_c, 0, 62, 80
2, 150236, Note_off_c, 0, 70, 100
2, 150236, Note_off_c, 0, 62, 100
2, 150240, Note_on_c, 0, 65, 80
2, 150332, Note_off_c, 0, 65, 100
2, 150336, Note_on_c, 0, 67, 80
2, 150428, Note_off_c, 0, 67, 100
2, 150432, Note_on_c, 0, 65, 80
2, 150524, Note_off_c, 0, 65, 100
2, 150528, Note_on_c, 0, 63, 80
2, 150620, Note_off_c, 0, 63, 100
2, 150624, Note_on_c, 0, 62, 80
2, 150716, Note_off_c, 0, 62, 100
2, 150720, Note_on_c, 0, 60, 80
2, 150812, Note_off_c, 0, 60, 100
2, 150816, Note_on_c, 0, 58, 80
2, 150908, Note_off_c, 0, 58, 100
2, 150912, Note_on_c, 0, 57, 80
2, 150912, Note_on_c, 0, 51, 80
2, 151004, Note_off_c, 0, 57, 100
2, 151008, Note_on_c, 0, 55, 80
2, 151100, Note_off_c, 0, 55, 100
2, 151104, Note_on_c, 0, 53, 80
2, 151484, Note_off_c, 0, 51, 100
2, 151484, Note_off_c, 0, 53, 100
2, 151488, Note_on_c, 0, 55, 80
2, 151488, Note_on_c, 0, 51, 80
2, 151580, Note_off_c, 0, 55, 100
2, 151584, Note_on_c, 0, 57, 80
2, 151676, Note_off_c, 0, 51, 100
2, 151676, Note_off_c, 0, 57, 100
2, 151680, Note_on_c, 0, 58, 80
2, 151680, Note_on_c, 0, 50, 80
2, 151868, Note_off_c, 0, 58, 100
2, 151868, Note_off_c, 0, 50, 100
2, 151872, Note_on_c, 0, 69, 80
2, 151872, Note_on_c, 0, 63, 80
2, 152060, Note_off_c, 0, 69, 100
2, 152060, Note_off_c, 0, 63, 100
2, 152064, Note_on_c, 0, 70, 80
2, 152064, Note_on_c, 0, 62, 80
2, 152252, Note_off_c, 0, 70, 100
2, 152252, Note_off_c, 0, 62, 100
2, 152256, Note_on_c, 0, 72, 120
2, 152256, Note_on_c, 0, 75, 120
2, 152256, Note_on_c, 0, 81, 120
2, 152540, Note_off_c, 0, 81, 100
2, 152540, Note_off_c, 0, 75, 100
2, 152540, Note_off_c, 0, 72, 100
2, 152544, Note_on_c, 0, 70, 120
2, 152544, Note_on_c, 0, 74, 120
2, 152544, Note_on_c, 0, 82, 120
2, 153116, Note_off_c, 0, 70, 100
2, 153116, Note_off_c, 0, 74, 100
2, 153116, Note_off_c, 0, 82, 100
2, 153216, Control_c, 0, 64, 0
2, 153408, Note_on_c, 0, 82, 1
2, 153596, Note_off_c, 0, 82, 100
2, 153596, End_track
3, 0, Start_track
3, 0, Title_t, "Left"
3, 0, Control_c, 1, 0, 0
3, 0, Program_c, 1, 0
3, 0, Control_c, 1, 7, 100
3, 0, Control_c, 1, 10, 53
3, 0, Control_c, 1, 91, 127
3, 0, Key_signature, -2, "major"
3, 384, Note_on_c, 1, 58, 80
3, 480, Note_on_c, 1, 65, 80
3, 572, Note_off_c, 1, 58, 100
3, 572, Note_off_c, 1, 65, 100
3, 576, Note_on_c, 1, 62, 80
3, 672, Note_on_c, 1, 65, 80
3, 764, Note_off_c, 1, 62, 100
3, 764, Note_off_c, 1, 65, 100
3, 768, Note_on_c, 1, 60, 80
3, 864, Note_on_c, 1, 65, 80
3, 956, Note_off_c, 1, 60, 100
3, 956, Note_off_c, 1, 65, 100
3, 960, Note_on_c, 1, 58, 80
3, 1056, Note_on_c, 1, 65, 80
3, 1148, Note_off_c, 1, 58, 100
3, 1148, Note_off_c, 1, 65, 100
3, 1152, Note_on_c, 1, 63, 80
3, 1152, Note_on_c, 1, 57, 80
3, 1248, Note_on_c, 1, 65, 80
3, 1340, Note_off_c, 1, 65, 100
3, 1344, Note_on_c, 1, 65, 80
3, 1436, Note_off_c, 1, 65, 100
3, 1440, Note_on_c, 1, 65, 80
3, 1532, Note_off_c, 1, 65, 100
3, 1536, Note_on_c, 1, 65, 80
3, 1628, Note_off_c, 1, 65, 100
3, 1632, Note_on_c, 1, 65, 80
3, 1724, Note_off_c, 1, 65, 100
3, 1728, Note_on_c, 1, 65, 80
3, 1820, Note_off_c, 1, 65, 100
3, 1824, Note_on_c, 1, 65, 80
3, 1916, Note_off_c, 1, 63, 100
3, 1916, Note_off_c, 1, 57, 100
3, 1916, Note_off_c, 1, 65, 100
3, 1920, Note_on_c, 1, 57, 80
3, 2016, Note_on_c, 1, 65, 80
3, 2108, Note_off_c, 1, 57, 100
3, 2108, Note_off_c, 1, 65, 100
3, 2112, Note_on_c, 1, 63, 80
3, 2208, Note_on_c, 1, 65, 80
3, 2300, Note_off_c, 1, 63, 100
3, 2300, Note_off_c, 1, 65, 100
3, 2304, Note_on_c, 1, 62, 80
3, 2400, Note_on_c, 1, 65, 80
3, 2492, Note_off_c, 1, 62, 100
3, 2492, Note_off_c, 1, 65, 100
3, 2496, Note_on_c, 1, 57, 80
3, 2592, Note_on_c, 1, 65, 80
3, 2684, Note_off_c, 1, 57, 100
3, 2684, Note_off_c, 1, 65, 100
3, 2688, Note_on_c, 1, 58, 80
3, 2784, Note_on_c, 1, 65, 80
3, 2876, Note_off_c, 1, 65, 100
3, 2880, Note_on_c, 1, 65, 80
3, 2972, Note_off_c, 1, 65, 100
3, 2976, Note_on_c, 1, 65, 80
3, 3068, Note_off_c, 1, 65, 100
3, 3072, Note_on_c, 1, 65, 80
3, 3164, Note_off_c, 1, 65, 100
3, 3168, Note_on_c, 1, 65, 80
3, 3260, Note_off_c, 1, 58, 100
3, 3260, Note_off_c, 1, 65, 100
3, 3264, Note_on_c, 1, 58, 80
3, 3360, Note_on_c, 1, 65, 80
3, 3452, Note_off_c, 1, 58, 100
3, 3452, Note_off_c, 1, 65, 100
3, 3456, Note_on_c, 1, 60, 80
3, 3552, Note_on_c, 1, 65, 80
3, 3644, Note_off_c, 1, 60, 100
3, 3644, Note_off_c, 1, 65, 100
3, 3648, Note_on_c, 1, 57, 80
3, 3744, Note_on_c, 1, 65, 80
3, 3836, Note_off_c, 1, 57, 100
3, 3836, Note_off_c, 1, 65, 100
3, 3840, Note_on_c, 1, 58, 80
3, 3936, Note_on_c, 1, 65, 80
3, 4028, Note_off_c, 1, 58, 100
3, 4028, Note_off_c, 1, 65, 100
3, 4032, Note_on_c, 1, 59, 80
3, 4128, Note_on_c, 1, 65, 80
3, 4220, Note_off_c, 1, 59, 100
3, 4220, Note_off_c, 1, 65, 100
3, 4224, Note_on_c, 1, 60, 80
3, 4320, Note_on_c, 1, 65, 80
3, 4412, Note_off_c, 1, 60, 100
3, 4412, Note_off_c, 1, 65, 100
3, 4416, Note_on_c, 1, 57, 80
3, 4512, Note_on_c, 1, 65, 80
3, 4604, Note_off_c, 1, 57, 100
3, 4604, Note_off_c, 1, 65, 100
3, 4608, Note_on_c, 1, 58, 80
3, 4704, Note_on_c, 1, 62, 80
3, 4796, Note_off_c, 1, 58, 100
3, 4796, Note_off_c, 1, 62, 100
3, 4800, Note_on_c, 1, 57, 80
3, 4896, Note_on_c, 1, 60, 80
3, 4988, Note_off_c, 1, 57, 100
3, 4988, Note_off_c, 1, 60, 100
3, 4992, Note_on_c, 1, 55, 80
3, 5088, Note_on_c, 1, 58, 80
3, 5180, Note_off_c, 1, 55, 100
3, 5180, Note_off_c, 1, 58, 100
3, 5184, Note_on_c, 1, 55, 80
3, 5280, Note_on_c, 1, 58, 80
3, 5372, Note_off_c, 1, 55, 100
3, 5372, Note_off_c, 1, 58, 100
3, 5376, Note_on_c, 1, 48, 80
3, 5472, Note_on_c, 1, 58, 80
3, 5564, Note_off_c, 1, 48, 100
3, 5564, Note_off_c, 1, 58, 100
3, 5568, Note_on_c, 1, 48, 80
3, 5664, Note_on_c, 1, 58, 80
3, 5756, Note_off_c, 1, 48, 100
3, 5756, Note_off_c, 1, 58, 100
3, 5760, Note_on_c, 1, 53, 80
3, 5856, Note_on_c, 1, 58, 80
3, 5948, Note_off_c, 1, 58, 100
3, 5952, Note_on_c, 1, 57, 80
3, 6044, Note_off_c, 1, 57, 100
3, 6048, Note_on_c, 1, 55, 80
3, 6140, Note_off_c, 1, 55, 100
3, 6144, Note_on_c, 1, 57, 80
3, 6332, Note_off_c, 1, 53, 100
3, 6332, Note_off_c, 1, 57, 100
3, 6528, Note_on_c, 1, 46, 80
3, 6624, Note_on_c, 1, 53, 80
3, 6716, Note_off_c, 1, 46, 100
3, 6716, Note_off_c, 1, 53, 100
3, 6720, Note_on_c, 1, 50, 80
3, 6816, Note_on_c, 1, 53, 80
3, 6908, Note_off_c, 1, 50, 100
3, 6908, Note_off_c, 1, 53, 100
3, 6912, Note_on_c, 1, 48, 80
3, 7008, Note_on_c, 1, 53, 80
3, 7100, Note_off_c, 1, 48, 100
3, 7100, Note_off_c, 1, 53, 100
3, 7104, Note_on_c, 1, 46, 80
3, 7200, Note_on_c, 1, 53, 80
3, 7292, Note_off_c, 1, 46, 100
3, 7292, Note_off_c, 1, 53, 100
3, 7296, Note_on_c, 1, 51, 80
3, 7296, Note_on_c, 1, 45, 80
3, 7392, Note_on_c, 1, 53, 80
3, 7484, Note_off_c, 1, 53, 100
3, 7488, Note_on_c, 1, 53, 80
3, 7580, Note_off_c, 1, 53, 100
3, 7584, Note_on_c, 1, 53, 80
3, 7676, Note_off_c, 1, 53, 100
3, 7680, Note_on_c, 1, 53, 80
3, 7772, Note_off_c, 1, 53, 100
3, 7776, Note_on_c, 1, 53, 80
3, 7868, Note_off_c, 1, 53, 100
3, 7872, Note_on_c, 1, 53, 80
3, 7964, Note_off_c, 1, 53, 100
3, 7968, Note_on_c, 1, 53, 80
3, 8060, Note_off_c, 1, 51, 100
3, 8060, Note_off_c, 1, 45, 100
3, 8060, Note_off_c, 1, 53, 100
3, 8064, Note_on_c, 1, 45, 80
3, 8160, Note_on_c, 1, 53, 80
3, 8252, Note_off_c, 1, 45, 100
3, 8252, Note_off_c, 1, 53, 100
3, 8256, Note_on_c, 1, 51, 80
3, 8352, Note_on_c, 1, 53, 80
3, 8444, Note_off_c, 1, 51, 100
3, 8444, Note_off_c, 1, 53, 100
3, 8448, Note_on_c, 1, 50, 80
3, 8544, Note_on_c, 1, 53, 80
3, 8636, Note_off_c, 1, 50, 100
3, 8636, Note_off_c, 1, 53, 100
3, 8640, Note_on_c, 1, 45, 80
3, 8736, Note_on_c, 1, 53, 80
3, 8828, Note_off_c, 1, 45, 100
3, 8828, Note_off_c, 1, 53, 100
3, 8832, Note_on_c, 1, 46, 80
3, 8928, Note_on_c, 1, 53, 80
3, 9020, Note_off_c, 1, 53, 100
3, 9024, Note_on_c, 1, 53, 80
3, 9116, Note_off_c, 1, 53, 100
3, 9120, Note_on_c, 1, 53, 80
3, 9212, Note_off_c, 1, 53, 100
3, 9216, Note_on_c, 1, 53, 80
3, 9308, Note_off_c, 1, 53, 100
3, 9312, Note_on_c, 1, 53, 80
3, 9404, Note_off_c, 1, 46, 100
3, 9404, Note_off_c, 1, 53, 100
3, 9408, Note_on_c, 1, 46, 80
3, 9504, Note_on_c, 1, 53, 80
3, 9596, Note_off_c, 1, 46, 100
3, 9596, Note_off_c, 1, 53, 100
3, 9600, Note_on_c, 1, 48, 80
3, 9696, Note_on_c, 1, 53, 81
3, 9788, Note_off_c, 1, 48, 100
3, 9788, Note_off_c, 1, 53, 100
3, 9792, Note_on_c, 1, 45, 82
3, 9888, Note_on_c, 1, 53, 83
3, 9980, Note_off_c, 1, 45, 100
3, 9980, Note_off_c, 1, 53, 100
3, 9984, Note_on_c, 1, 46, 84
3, 10080, Note_on_c, 1, 53, 85
3, 10172, Note_off_c, 1, 46, 100
3, 10172, Note_off_c, 1, 53, 100
3, 10176, Note_on_c, 1, 47, 86
3, 10272, Note_on_c, 1, 53, 87
3, 10364, Note_off_c, 1, 47, 100
3, 10364, Note_off_c, 1, 53, 100
3, 10368, Note_on_c, 1, 48, 88
3, 10464, Note_on_c, 1, 53, 89
3, 10556, Note_off_c, 1, 48, 100
3, 10556, Note_off_c, 1, 53, 100
3, 10560, Note_on_c, 1, 45, 90
3, 10656, Note_on_c, 1, 53, 91
3, 10748, Note_off_c, 1, 45, 100
3, 10748, Note_off_c, 1, 53, 100
3, 10752, Note_on_c, 1, 46, 92
3, 10848, Note_on_c, 1, 53, 93
3, 10940, Note_off_c, 1, 46, 100
3, 10940, Note_off_c, 1, 53, 100
3, 10944, Note_on_c, 1, 44, 94
3, 11040, Note_on_c, 1, 46, 95
3, 11132, Note_off_c, 1, 44, 100
3, 11132, Note_off_c, 1, 46, 100
3, 11136, Note_on_c, 1, 43, 96
3, 11232, Note_on_c, 1, 46, 97
3, 11324, Note_off_c, 1, 43, 100
3, 11324, Note_off_c, 1, 46, 100
3, 11328, Note_on_c, 1, 39, 98
3, 11424, Note_on_c, 1, 51, 99
3, 11516, Note_off_c, 1, 39, 100
3, 11516, Note_off_c, 1, 51, 100
3, 11520, Note_on_c, 1, 41, 100
3, 11616, Note_on_c, 1, 50, 100
3, 11708, Note_off_c, 1, 41, 100
3, 11708, Note_off_c, 1, 50, 100
3, 11712, Note_on_c, 1, 41, 100
3, 11808, Note_on_c, 1, 45, 100
3, 11900, Note_off_c, 1, 41, 100
3, 11900, Note_off_c, 1, 45, 100
3, 11904, Note_on_c, 1, 38, 80
3, 11996, Note_off_c, 1, 38, 100
3, 12000, Note_on_c, 1, 46, 80
3, 12096, Note_on_c, 1, 58, 80
3, 12188, Note_off_c, 1, 58, 100
3, 12192, Note_on_c, 1, 58, 80
3, 12284, Note_off_c, 1, 58, 100
3, 12288, Note_on_c, 1, 58, 80
3, 12380, Note_off_c, 1, 58, 100
3, 12384, Note_on_c, 1, 58, 80
3, 12476, Note_off_c, 1, 46, 100
3, 12476, Note_off_c, 1, 58, 100
3, 12480, Note_on_c, 1, 57, 80
3, 12576, Note_on_c, 1, 58, 80
3, 12668, Note_off_c, 1, 57, 100
3, 12668, Note_off_c, 1, 58, 100
3, 12672, Note_on_c, 1, 55, 80
3, 12768, Note_on_c, 1, 58, 80
3, 12860, Note_off_c, 1, 55, 100
3, 12860, Note_off_c, 1, 58, 100
3, 12864, Note_on_c, 1, 53, 80
3, 12960, Note_on_c, 1, 63, 80
3, 13052, Note_off_c, 1, 53, 100
3, 13052, Note_off_c, 1, 63, 100
3, 13056, Note_on_c, 1, 53, 80
3, 13152, Note_on_c, 1, 62, 80
3, 13244, Note_off_c, 1, 53, 100
3, 13244, Note_off_c, 1, 62, 100
3, 13248, Note_on_c, 1, 53, 80
3, 13344, Note_on_c, 1, 57, 80
3, 13436, Note_off_c, 1, 53, 100
3, 13436, Note_off_c, 1, 57, 100
3, 13440, Note_on_c, 1, 58, 80
3, 13440, Note_on_c, 1, 46, 80
3, 13628, Note_off_c, 1, 58, 100
3, 13628, Note_off_c, 1, 46, 100
3, 13824, Note_on_c, 1, 62, 80
3, 13824, Note_on_c, 1, 58, 80
3, 14204, Note_off_c, 1, 62, 100
3, 14204, Note_off_c, 1, 58, 100
3, 14208, Note_on_c, 1, 60, 80
3, 14208, Note_on_c, 1, 51, 80
3, 14780, Note_off_c, 1, 60, 100
3, 14780, Note_off_c, 1, 51, 100
3, 14784, Note_on_c, 1, 60, 80
3, 14784, Note_on_c, 1, 53, 80
3, 14972, Note_off_c, 1, 60, 100
3, 14972, Note_off_c, 1, 53, 100
3, 14976, Note_on_c, 1, 58, 80
3, 14976, Note_on_c, 1, 46, 80
3, 15356, Note_off_c, 1, 58, 100
3, 15356, Note_off_c, 1, 46, 100
3, 15360, Note_on_c, 1, 62, 80
3, 15360, Note_on_c, 1, 58, 80
3, 15740, Note_off_c, 1, 62, 100
3, 15740, Note_off_c, 1, 58, 100
3, 15744, Note_on_c, 1, 55, 80
3, 15744, Note_on_c, 1, 52, 80
3, 16124, Note_off_c, 1, 55, 100
3, 16124, Note_off_c, 1, 52, 100
3, 16128, Note_on_c, 1, 60, 80
3, 16128, Note_on_c, 1, 48, 80
3, 16508, Note_off_c, 1, 60, 100
3, 16508, Note_off_c, 1, 48, 100
3, 16512, Note_on_c, 1, 60, 80
3, 16512, Note_on_c, 1, 53, 80
3, 16892, Note_off_c, 1, 60, 100
3, 16892, Note_off_c, 1, 53, 100
3, 16896, Note_on_c, 1, 45, 80
3, 16944, Note_on_c, 1, 53, 80
3, 16992, Note_on_c, 1, 57, 80
3, 17276, Note_off_c, 1, 45, 100
3, 17276, Note_off_c, 1, 53, 100
3, 17276, Note_off_c, 1, 57, 100
3, 17280, Note_on_c, 1, 46, 84
3, 17328, Note_on_c, 1, 53, 85
3, 17376, Note_on_c, 1, 57, 86
3, 17660, Note_off_c, 1, 46, 100
3, 17660, Note_off_c, 1, 53, 100
3, 17660, Note_off_c, 1, 57, 100
3, 17664, Note_on_c, 1, 48, 93
3, 17712, Note_on_c, 1, 53, 94
3, 17760, Note_on_c, 1, 57, 96
3, 18044, Note_off_c, 1, 48, 100
3, 18044, Note_off_c, 1, 53, 100
3, 18044, Note_off_c, 1, 57, 100
3, 18048, Note_on_c, 1, 50, 103
3, 18096, Note_on_c, 1, 53, 104
3, 18144, Note_on_c, 1, 57, 105
3, 18428, Note_off_c, 1, 50, 100
3, 18428, Note_off_c, 1, 53, 100
3, 18428, Note_off_c, 1, 57, 100
3, 18432, Note_on_c, 1, 65, 110
3, 18432, Note_on_c, 1, 62, 110
3, 18432, Note_on_c, 1, 69, 110
3, 18620, Note_off_c, 1, 69, 100
3, 18624, Note_on_c, 1, 71, 110
3, 18812, Note_off_c, 1, 65, 100
3, 18812, Note_off_c, 1, 62, 100
3, 18816, Note_on_c, 1, 67, 110
3, 18816, Note_on_c, 1, 60, 110
3, 19004, Note_off_c, 1, 71, 100
3, 19008, Note_on_c, 1, 72, 110
3, 19100, Note_off_c, 1, 72, 100
3, 19196, Note_off_c, 1, 67, 100
3, 19196, Note_off_c, 1, 60, 100
3, 19200, Note_on_c, 1, 58, 110
3, 19200, Note_on_c, 1, 62, 110
3, 19200, Note_on_c, 1, 65, 110
3, 19388, Note_off_c, 1, 62, 100
3, 19388, Note_off_c, 1, 65, 100
3, 19392, Note_on_c, 1, 67, 110
3, 19392, Note_on_c, 1, 64, 110
3, 19580, Note_off_c, 1, 58, 100
3, 19584, Note_on_c, 1, 57, 110
3, 19772, Note_off_c, 1, 64, 100
3, 19772, Note_off_c, 1, 67, 100
3, 19776, Note_on_c, 1, 65, 110
3, 19776, Note_on_c, 1, 69, 110
3, 19868, Note_off_c, 1, 65, 100
3, 19868, Note_off_c, 1, 69, 100
3, 19964, Note_off_c, 1, 57, 100
3, 19968, Note_on_c, 1, 55, 110
3, 19968, Note_on_c, 1, 58, 110
3, 19968, Note_on_c, 1, 62, 110
3, 20156, Note_off_c, 1, 62, 100
3, 20160, Note_on_c, 1, 64, 110
3, 20348, Note_off_c, 1, 55, 100
3, 20348, Note_off_c, 1, 58, 100
3, 20348, Note_off_c, 1, 64, 100
3, 20352, Note_on_c, 1, 65, 110
3, 20352, Note_on_c, 1, 60, 110
3, 20352, Note_on_c, 1, 53, 110
3, 20540, Note_off_c, 1, 65, 100
3, 20540, Note_off_c, 1, 60, 100
3, 20540, Note_off_c, 1, 53, 100
3, 20544, Note_on_c, 1, 58, 110
3, 20544, Note_on_c, 1, 46, 110
3, 20732, Note_off_c, 1, 58, 100
3, 20732, Note_off_c, 1, 46, 100
3, 20736, Note_on_c, 1, 57, 110
3, 20736, Note_on_c, 1, 48, 110
3, 20924, Note_off_c, 1, 57, 100
3, 20924, Note_off_c, 1, 48, 100
3, 20928, Note_on_c, 1, 52, 110
3, 20928, Note_on_c, 1, 48, 110
3, 21116, Note_off_c, 1, 52, 100
3, 21116, Note_off_c, 1, 48, 100
3, 21120, Note_on_c, 1, 53, 110
3, 21120, Note_on_c, 1, 41, 110
3, 21308, Note_off_c, 1, 53, 100
3, 21308, Note_off_c, 1, 41, 100
3, 21504, Note_on_c, 1, 50, 110
3, 21504, Note_on_c, 1, 53, 110
3, 21692, Note_off_c, 1, 53, 100
3, 21696, Note_on_c, 1, 56, 110
3, 21884, Note_off_c, 1, 50, 64
3, 21888, Note_on_c, 1, 48, 110
3, 22076, Note_off_c, 1, 56, 100
3, 22080, Note_on_c, 1, 57, 110
3, 22268, Note_off_c, 1, 48, 100
3, 22268, Note_off_c, 1, 57, 100
3, 22272, Note_on_c, 1, 46, 110
3, 22272, Note_on_c, 1, 50, 110
3, 22460, Note_off_c, 1, 50, 100
3, 22464, Note_on_c, 1, 52, 110
3, 22652, Note_off_c, 1, 46, 100
3, 22656, Note_on_c, 1, 45, 110
3, 22844, Note_off_c, 1, 52, 100
3, 22848, Note_on_c, 1, 53, 110
3, 23036, Note_off_c, 1, 45, 100
3, 23036, Note_off_c, 1, 53, 100
3, 23040, Note_on_c, 1, 43, 110
3, 23040, Note_on_c, 1, 50, 110
3, 23228, Note_off_c, 1, 50, 100
3, 23232, Note_on_c, 1, 49, 110
3, 23420, Note_off_c, 1, 43, 100
3, 23424, Note_on_c, 1, 41, 110
3, 23516, Note_off_c, 1, 49, 100
3, 23520, Note_on_c, 1, 48, 110
3, 23612, Note_off_c, 1, 41, 100
3, 23616, Note_on_c, 1, 34, 110
3, 23708, Note_off_c, 1, 48, 100
3, 23712, Note_on_c, 1, 46, 110
3, 23804, Note_off_c, 1, 34, 100
3, 23808, Note_on_c, 1, 36, 110
3, 23900, Note_off_c, 1, 46, 100
3, 23904, Note_on_c, 1, 45, 110
3, 23996, Note_off_c, 1, 36, 100
3, 24000, Note_on_c, 1, 36, 110
3, 24092, Note_off_c, 1, 45, 100
3, 24096, Note_on_c, 1, 43, 110
3, 24188, Note_off_c, 1, 36, 100
3, 24188, Note_off_c, 1, 43, 100
3, 24192, Note_on_c, 1, 29, 110
3, 24380, Note_off_c, 1, 29, 100
3, 24384, Note_on_c, 1, 41, 80
3, 24576, Note_on_c, 1, 45, 80
3, 24768, Note_on_c, 1, 48, 80
3, 24956, Note_off_c, 1, 41, 100
3, 24956, Note_off_c, 1, 45, 100
3, 24956, Note_off_c, 1, 48, 100
3, 24960, Note_on_c, 1, 43, 80
3, 24960, Note_on_c, 1, 41, 80
3, 25152, Note_on_c, 1, 46, 80
3, 25344, Note_on_c, 1, 48, 80
3, 25536, Note_on_c, 1, 52, 80
3, 25724, Note_off_c, 1, 43, 100
3, 25724, Note_off_c, 1, 41, 100
3, 25724, Note_off_c, 1, 46, 100
3, 25724, Note_off_c, 1, 48, 100
3, 25724, Note_off_c, 1, 52, 100
3, 25728, Note_on_c, 1, 41, 80
3, 25916, Note_off_c, 1, 41, 100
3, 25920, Note_on_c, 1, 53, 80
3, 26112, Note_on_c, 1, 57, 80
3, 26304, Note_on_c, 1, 60, 80
3, 26492, Note_off_c, 1, 53, 100
3, 26492, Note_off_c, 1, 57, 100
3, 26492, Note_off_c, 1, 60, 100
3, 26496, Note_on_c, 1, 55, 80
3, 26496, Note_on_c, 1, 53, 80
3, 26688, Note_on_c, 1, 58, 80
3, 26880, Note_on_c, 1, 60, 80
3, 27072, Note_on_c, 1, 64, 80
3, 27260, Note_off_c, 1, 55, 100
3, 27260, Note_off_c, 1, 53, 100
3, 27260, Note_off_c, 1, 58, 100
3, 27260, Note_off_c, 1, 60, 100
3, 27260, Note_off_c, 1, 64, 100
3, 27264, Note_on_c, 1, 41, 80
3, 27452, Note_off_c, 1, 41, 100
3, 27456, Note_on_c, 1, 53, 83
3, 27648, Note_on_c, 1, 57, 85
3, 27840, Note_on_c, 1, 60, 88
3, 28028, Note_off_c, 1, 53, 100
3, 28028, Note_off_c, 1, 57, 100
3, 28028, Note_off_c, 1, 60, 100
3, 28032, Note_on_c, 1, 39, 90
3, 28220, Note_off_c, 1, 39, 100
3, 28224, Note_on_c, 1, 51, 93
3, 28416, Note_on_c, 1, 57, 95
3, 28608, Note_on_c, 1, 60, 98
3, 28796, Note_off_c, 1, 51, 100
3, 28796, Note_off_c, 1, 57, 100
3, 28796, Note_off_c, 1, 60, 100
3, 28800, Note_on_c, 1, 37, 101
3, 28988, Note_off_c, 1, 37, 100
3, 28992, Note_on_c, 1, 49, 103
3, 29184, Note_on_c, 1, 53, 106
3, 29376, Note_on_c, 1, 58, 108
3, 29564, Note_off_c, 1, 49, 100
3, 29564, Note_off_c, 1, 53, 100
3, 29564, Note_off_c, 1, 58, 100
3, 29568, Note_on_c, 1, 42, 110
3, 29760, Note_on_c, 1, 46, 110
3, 29948, Note_off_c, 1, 46, 100
3, 29952, Note_on_c, 1, 49, 110
3, 30140, Note_off_c, 1, 49, 100
3, 30144, Note_on_c, 1, 52, 110
3, 30332, Note_off_c, 1, 42, 100
3, 30332, Note_off_c, 1, 52, 100
3, 30336, Note_on_c, 1, 53, 110
3, 30336, Note_on_c, 1, 41, 110
3, 30716, Note_off_c, 1, 53, 100
3, 30716, Note_off_c, 1, 41, 100
3, 30816, Note_on_c, 1, 48, 80
3, 30908, Note_off_c, 1, 48, 100
3, 30912, Note_on_c, 1, 50, 80
3, 31004, Note_off_c, 1, 50, 100
3, 31008, Note_on_c, 1, 48, 80
3, 31100, Note_off_c, 1, 48, 100
3, 31104, Note_on_c, 1, 46, 80
3, 31196, Note_off_c, 1, 46, 100
3, 31200, Note_on_c, 1, 45, 80
3, 31292, Note_off_c, 1, 45, 100
3, 31296, Note_on_c, 1, 43, 80
3, 31388, Note_off_c, 1, 43, 100
3, 31392, Note_on_c, 1, 41, 80
3, 31484, Note_off_c, 1, 41, 100
3, 31488, Note_on_c, 1, 41, 80
3, 31676, Note_off_c, 1, 41, 100
3, 32352, Note_on_c, 1, 51, 80
3, 32384, Note_on_c, 1, 53, 80
3, 32412, Note_off_c, 1, 51, 100
3, 32416, Note_on_c, 1, 51, 80
3, 32444, Note_off_c, 1, 53, 100
3, 32448, Note_on_c, 1, 53, 80
3, 32476, Note_off_c, 1, 51, 100
3, 32540, Note_off_c, 1, 53, 100
3, 32544, Note_on_c, 1, 51, 80
3, 32636, Note_off_c, 1, 51, 100
3, 32640, Note_on_c, 1, 50, 80
3, 32732, Note_off_c, 1, 50, 100
3, 32736, Note_on_c, 1, 48, 80
3, 32828, Note_off_c, 1, 48, 100
3, 32832, Note_on_c, 1, 46, 80
3, 32924, Note_off_c, 1, 46, 100
3, 32928, Note_on_c, 1, 45, 80
3, 33020, Note_off_c, 1, 45, 100
3, 33024, Note_on_c, 1, 45, 80
3, 33212, Note_off_c, 1, 45, 100
3, 33888, Note_on_c, 1, 60, 80
3, 33980, Note_off_c, 1, 60, 100
3, 33984, Note_on_c, 1, 62, 80
3, 34076, Note_off_c, 1, 62, 100
3, 34080, Note_on_c, 1, 60, 80
3, 34172, Note_off_c, 1, 60, 100
3, 34176, Note_on_c, 1, 58, 80
3, 34268, Note_off_c, 1, 58, 100
3, 34272, Note_on_c, 1, 57, 80
3, 34364, Note_off_c, 1, 57, 100
3, 34368, Note_on_c, 1, 55, 80
3, 34460, Note_off_c, 1, 55, 100
3, 34464, Note_on_c, 1, 53, 80
3, 34556, Note_off_c, 1, 53, 100
3, 34656, Note_on_c, 1, 63, 80
3, 34748, Note_off_c, 1, 63, 100
3, 34752, Note_on_c, 1, 65, 80
3, 34844, Note_off_c, 1, 65, 100
3, 34848, Note_on_c, 1, 63, 80
3, 34940, Note_off_c, 1, 63, 100
3, 34944, Note_on_c, 1, 62, 80
3, 35036, Note_off_c, 1, 62, 100
3, 35040, Note_on_c, 1, 60, 80
3, 35132, Note_off_c, 1, 60, 100
3, 35136, Note_on_c, 1, 58, 80
3, 35228, Note_off_c, 1, 58, 100
3, 35232, Note_on_c, 1, 57, 80
3, 35324, Note_off_c, 1, 57, 100
3, 38016, Note_on_c, 1, 58, 80
3, 38112, Note_on_c, 1, 65, 80
3, 38204, Note_off_c, 1, 58, 100
3, 38204, Note_off_c, 1, 65, 100
3, 38208, Note_on_c, 1, 62, 80
3, 38304, Note_on_c, 1, 65, 80
3, 38396, Note_off_c, 1, 62, 100
3, 38396, Note_off_c, 1, 65, 100
3, 38400, Note_on_c, 1, 60, 80
3, 38496, Note_on_c, 1, 65, 80
3, 38588, Note_off_c, 1, 60, 100
3, 38588, Note_off_c, 1, 65, 100
3, 38592, Note_on_c, 1, 58, 80
3, 38688, Note_on_c, 1, 65, 80
3, 38780, Note_off_c, 1, 58, 100
3, 38780, Note_off_c, 1, 65, 100
3, 38784, Note_on_c, 1, 63, 80
3, 38784, Note_on_c, 1, 57, 80
3, 38880, Note_on_c, 1, 65, 80
3, 38972, Note_off_c, 1, 65, 100
3, 38976, Note_on_c, 1, 65, 80
3, 39068, Note_off_c, 1, 65, 100
3, 39072, Note_on_c, 1, 65, 80
3, 39164, Note_off_c, 1, 65, 100
3, 39168, Note_on_c, 1, 65, 80
3, 39260, Note_off_c, 1, 65, 100
3, 39264, Note_on_c, 1, 65, 80
3, 39356, Note_off_c, 1, 65, 100
3, 39360, Note_on_c, 1, 65, 80
3, 39452, Note_off_c, 1, 65, 100
3, 39456, Note_on_c, 1, 65, 80
3, 39548, Note_off_c, 1, 63, 100
3, 39548, Note_off_c, 1, 57, 100
3, 39548, Note_off_c, 1, 65, 100
3, 39552, Note_on_c, 1, 57, 80
3, 39648, Note_on_c, 1, 65, 80
3, 39740, Note_off_c, 1, 57, 100
3, 39740, Note_off_c, 1, 65, 100
3, 39744, Note_on_c, 1, 63, 80
3, 39840, Note_on_c, 1, 65, 80
3, 39932, Note_off_c, 1, 63, 100
3, 39932, Note_off_c, 1, 65, 100
3, 39936, Note_on_c, 1, 62, 80
3, 40032, Note_on_c, 1, 65, 80
3, 40124, Note_off_c, 1, 62, 100
3, 40124, Note_off_c, 1, 65, 100
3, 40128, Note_on_c, 1, 57, 80
3, 40224, Note_on_c, 1, 65, 80
3, 40316, Note_off_c, 1, 57, 100
3, 40316, Note_off_c, 1, 65, 100
3, 40320, Note_on_c, 1, 58, 80
3, 40416, Note_on_c, 1, 65, 80
3, 40508, Note_off_c, 1, 65, 100
3, 40512, Note_on_c, 1, 65, 80
3, 40604, Note_off_c, 1, 65, 100
3, 40608, Note_on_c, 1, 65, 80
3, 40700, Note_off_c, 1, 65, 100
3, 40704, Note_on_c, 1, 65, 80
3, 40796, Note_off_c, 1, 65, 100
3, 40800, Note_on_c, 1, 65, 80
3, 40892, Note_off_c, 1, 58, 100
3, 40892, Note_off_c, 1, 65, 100
3, 40896, Note_on_c, 1, 58, 80
3, 40992, Note_on_c, 1, 65, 80
3, 41084, Note_off_c, 1, 58, 100
3, 41084, Note_off_c, 1, 65, 100
3, 41088, Note_on_c, 1, 60, 80
3, 41184, Note_on_c, 1, 65, 80
3, 41276, Note_off_c, 1, 60, 100
3, 41276, Note_off_c, 1, 65, 100
3, 41280, Note_on_c, 1, 57, 80
3, 41376, Note_on_c, 1, 65, 80
3, 41468, Note_off_c, 1, 57, 100
3, 41468, Note_off_c, 1, 65, 100
3, 41472, Note_on_c, 1, 58, 80
3, 41568, Note_on_c, 1, 65, 80
3, 41660, Note_off_c, 1, 58, 100
3, 41660, Note_off_c, 1, 65, 100
3, 41664, Note_on_c, 1, 59, 80
3, 41760, Note_on_c, 1, 65, 80
3, 41852, Note_off_c, 1, 59, 100
3, 41852, Note_off_c, 1, 65, 100
3, 41856, Note_on_c, 1, 60, 80
3, 41952, Note_on_c, 1, 65, 81
3, 42044, Note_off_c, 1, 60, 100
3, 42044, Note_off_c, 1, 65, 100
3, 42048, Note_on_c, 1, 57, 82
3, 42144, Note_on_c, 1, 65, 83
3, 42236, Note_off_c, 1, 57, 100
3, 42236, Note_off_c, 1, 65, 100
3, 42240, Note_on_c, 1, 58, 85
3, 42336, Note_on_c, 1, 62, 86
3, 42428, Note_off_c, 1, 58, 100
3, 42428, Note_off_c, 1, 62, 100
3, 42432, Note_on_c, 1, 57, 87
3, 42528, Note_on_c, 1, 60, 89
3, 42620, Note_off_c, 1, 57, 100
3, 42620, Note_off_c, 1, 60, 100
3, 42624, Note_on_c, 1, 55, 90
3, 42720, Note_on_c, 1, 58, 91
3, 42812, Note_off_c, 1, 55, 100
3, 42812, Note_off_c, 1, 58, 100
3, 42816, Note_on_c, 1, 55, 93
3, 42912, Note_on_c, 1, 58, 94
3, 43004, Note_off_c, 1, 55, 100
3, 43004, Note_off_c, 1, 58, 100
3, 43008, Note_on_c, 1, 48, 95
3, 43104, Note_on_c, 1, 58, 97
3, 43196, Note_off_c, 1, 48, 100
3, 43196, Note_off_c, 1, 58, 100
3, 43200, Note_on_c, 1, 48, 98
3, 43296, Note_on_c, 1, 58, 99
3, 43388, Note_off_c, 1, 48, 100
3, 43388, Note_off_c, 1, 58, 100
3, 43392, Note_on_c, 1, 53, 80
3, 43488, Note_on_c, 1, 58, 80
3, 43580, Note_off_c, 1, 58, 100
3, 43584, Note_on_c, 1, 57, 80
3, 43676, Note_off_c, 1, 57, 100
3, 43680, Note_on_c, 1, 55, 80
3, 43772, Note_off_c, 1, 55, 100
3, 43776, Note_on_c, 1, 57, 80
3, 43964, Note_off_c, 1, 53, 100
3, 43964, Note_off_c, 1, 57, 100
3, 44160, Note_on_c, 1, 46, 80
3, 44256, Note_on_c, 1, 53, 80
3, 44348, Note_off_c, 1, 46, 100
3, 44348, Note_off_c, 1, 53, 100
3, 44352, Note_on_c, 1, 50, 80
3, 44448, Note_on_c, 1, 53, 80
3, 44540, Note_off_c, 1, 50, 100
3, 44540, Note_off_c, 1, 53, 100
3, 44544, Note_on_c, 1, 48, 80
3, 44640, Note_on_c, 1, 53, 80
3, 44732, Note_off_c, 1, 48, 100
3, 44732, Note_off_c, 1, 53, 100
3, 44736, Note_on_c, 1, 46, 80
3, 44832, Note_on_c, 1, 53, 80
3, 44924, Note_off_c, 1, 46, 100
3, 44924, Note_off_c, 1, 53, 100
3, 44928, Note_on_c, 1, 51, 80
3, 44928, Note_on_c, 1, 45, 80
3, 45024, Note_on_c, 1, 53, 80
3, 45116, Note_off_c, 1, 53, 100
3, 45120, Note_on_c, 1, 53, 80
3, 45212, Note_off_c, 1, 53, 100
3, 45216, Note_on_c, 1, 53, 80
3, 45308, Note_off_c, 1, 53, 100
3, 45312, Note_on_c, 1, 53, 80
3, 45404, Note_off_c, 1, 53, 100
3, 45408, Note_on_c, 1, 53, 80
3, 45500, Note_off_c, 1, 53, 100
3, 45504, Note_on_c, 1, 53, 80
3, 45596, Note_off_c, 1, 53, 100
3, 45600, Note_on_c, 1, 53, 80
3, 45692, Note_off_c, 1, 51, 100
3, 45692, Note_off_c, 1, 45, 100
3, 45692, Note_off_c, 1, 53, 100
3, 45696, Note_on_c, 1, 45, 80
3, 45792, Note_on_c, 1, 53, 80
3, 45884, Note_off_c, 1, 45, 100
3, 45884, Note_off_c, 1, 53, 100
3, 45888, Note_on_c, 1, 51, 80
3, 45984, Note_on_c, 1, 53, 80
3, 46076, Note_off_c, 1, 51, 100
3, 46076, Note_off_c, 1, 53, 100
3, 46080, Note_on_c, 1, 50, 80
3, 46176, Note_on_c, 1, 53, 80
3, 46268, Note_off_c, 1, 50, 100
3, 46268, Note_off_c, 1, 53, 100
3, 46272, Note_on_c, 1, 45, 80
3, 46368, Note_on_c, 1, 53, 80
3, 46460, Note_off_c, 1, 45, 100
3, 46460, Note_off_c, 1, 53, 100
3, 46464, Note_on_c, 1, 46, 80
3, 46560, Note_on_c, 1, 53, 80
3, 46652, Note_off_c, 1, 53, 100
3, 46656, Note_on_c, 1, 53, 80
3, 46748, Note_off_c, 1, 53, 100
3, 46752, Note_on_c, 1, 53, 80
3, 46844, Note_off_c, 1, 53, 100
3, 46848, Note_on_c, 1, 53, 80
3, 46940, Note_off_c, 1, 53, 100
3, 46944, Note_on_c, 1, 53, 80
3, 47036, Note_off_c, 1, 46, 100
3, 47036, Note_off_c, 1, 53, 100
3, 47040, Note_on_c, 1, 46, 80
3, 47136, Note_on_c, 1, 53, 80
3, 47228, Note_off_c, 1, 46, 100
3, 47228, Note_off_c, 1, 53, 100
3, 47232, Note_on_c, 1, 48, 80
3, 47328, Note_on_c, 1, 53, 80
3, 47420, Note_off_c, 1, 48, 100
3, 47420, Note_off_c, 1, 53, 100
3, 47424, Note_on_c, 1, 45, 80
3, 47520, Note_on_c, 1, 53, 80
3, 47612, Note_off_c, 1, 45, 100
3, 47612, Note_off_c, 1, 53, 100
3, 47616, Note_on_c, 1, 46, 80
3, 47712, Note_on_c, 1, 53, 80
3, 47804, Note_off_c, 1, 46, 100
3, 47804, Note_off_c, 1, 53, 100
3, 47808, Note_on_c, 1, 47, 80
3, 47904, Note_on_c, 1, 53, 80
3, 47996, Note_off_c, 1, 47, 100
3, 47996, Note_off_c, 1, 53, 100
3, 48000, Note_on_c, 1, 48, 80
3, 48096, Note_on_c, 1, 53, 80
3, 48188, Note_off_c, 1, 48, 100
3, 48188, Note_off_c, 1, 53, 100
3, 48192, Note_on_c, 1, 45, 80
3, 48288, Note_on_c, 1, 53, 80
3, 48380, Note_off_c, 1, 45, 100
3, 48380, Note_off_c, 1, 53, 100
3, 48384, Note_on_c, 1, 46, 80
3, 48480, Note_on_c, 1, 53, 80
3, 48572, Note_off_c, 1, 46, 100
3, 48572, Note_off_c, 1, 53, 100
3, 48576, Note_on_c, 1, 44, 80
3, 48672, Note_on_c, 1, 46, 80
3, 48764, Note_off_c, 1, 44, 100
3, 48764, Note_off_c, 1, 46, 100
3, 48768, Note_on_c, 1, 43, 80
3, 48864, Note_on_c, 1, 46, 80
3, 48956, Note_off_c, 1, 43, 100
3, 48956, Note_off_c, 1, 46, 100
3, 48960, Note_on_c, 1, 39, 80
3, 49056, Note_on_c, 1, 51, 80
3, 49148, Note_off_c, 1, 39, 100
3, 49148, Note_off_c, 1, 51, 100
3, 49152, Note_on_c, 1, 41, 80
3, 49248, Note_on_c, 1, 50, 80
3, 49340, Note_off_c, 1, 41, 100
3, 49340, Note_off_c, 1, 50, 100
3, 49344, Note_on_c, 1, 41, 80
3, 49440, Note_on_c, 1, 45, 80
3, 49532, Note_off_c, 1, 41, 100
3, 49532, Note_off_c, 1, 45, 100
3, 49536, Note_on_c, 1, 38, 80
3, 49628, Note_off_c, 1, 38, 100
3, 49632, Note_on_c, 1, 46, 80
3, 49728, Note_on_c, 1, 58, 80
3, 49820, Note_off_c, 1, 58, 100
3, 49824, Note_on_c, 1, 58, 80
3, 49916, Note_off_c, 1, 58, 100
3, 49920, Note_on_c, 1, 58, 80
3, 50012, Note_off_c, 1, 58, 100
3, 50016, Note_on_c, 1, 58, 80
3, 50108, Note_off_c, 1, 46, 100
3, 50108, Note_off_c, 1, 58, 100
3, 50112, Note_on_c, 1, 57, 80
3, 50208, Note_on_c, 1, 58, 80
3, 50300, Note_off_c, 1, 57, 100
3, 50300, Note_off_c, 1, 58, 100
3, 50304, Note_on_c, 1, 55, 80
3, 50400, Note_on_c, 1, 58, 80
3, 50492, Note_off_c, 1, 55, 100
3, 50492, Note_off_c, 1, 58, 100
3, 50496, Note_on_c, 1, 53, 80
3, 50592, Note_on_c, 1, 63, 80
3, 50684, Note_off_c, 1, 53, 100
3, 50684, Note_off_c, 1, 63, 100
3, 50688, Note_on_c, 1, 53, 80
3, 50784, Note_on_c, 1, 62, 80
3, 50876, Note_off_c, 1, 53, 100
3, 50876, Note_off_c, 1, 62, 100
3, 50880, Note_on_c, 1, 53, 80
3, 50976, Note_on_c, 1, 57, 80
3, 51068, Note_off_c, 1, 53, 100
3, 51068, Note_off_c, 1, 57, 100
3, 51072, Note_on_c, 1, 58, 80
3, 51072, Note_on_c, 1, 46, 80
3, 51260, Note_off_c, 1, 58, 100
3, 51260, Note_off_c, 1, 46, 100
3, 51456, Note_on_c, 1, 49, 110
3, 51456, Note_on_c, 1, 46, 110
3, 51836, Note_off_c, 1, 49, 100
3, 51836, Note_off_c, 1, 46, 100
3, 51840, Note_on_c, 1, 39, 110
3, 51840, Note_on_c, 1, 47, 110
3, 52124, Note_off_c, 1, 47, 100
3, 52128, Note_on_c, 1, 49, 110
3, 52172, Note_off_c, 1, 49, 100
3, 52176, Note_on_c, 1, 51, 110
3, 52220, Note_off_c, 1, 51, 100
3, 52224, Note_on_c, 1, 42, 110
3, 52412, Note_off_c, 1, 39, 100
3, 52412, Note_off_c, 1, 42, 100
3, 52416, Note_on_c, 1, 45, 110
3, 52416, Note_on_c, 1, 41, 110
3, 52604, Note_off_c, 1, 45, 100
3, 52604, Note_off_c, 1, 41, 100
3, 52608, Note_on_c, 1, 46, 110
3, 52608, Note_on_c, 1, 34, 110
3, 52988, Note_off_c, 1, 46, 100
3, 52988, Note_off_c, 1, 34, 100
3, 52992, Note_on_c, 1, 46, 110
3, 52992, Note_on_c, 1, 49, 110
3, 53372, Note_off_c, 1, 46, 100
3, 53372, Note_off_c, 1, 49, 100
3, 53376, Note_on_c, 1, 48, 110
3, 53376, Note_on_c, 1, 40, 110
3, 53756, Note_off_c, 1, 48, 100
3, 53756, Note_off_c, 1, 40, 100
3, 53760, Note_on_c, 1, 52, 110
3, 53760, Note_on_c, 1, 55, 110
3, 54140, Note_off_c, 1, 52, 100
3, 54140, Note_off_c, 1, 55, 100
3, 54144, Note_on_c, 1, 56, 110
3, 54144, Note_on_c, 1, 53, 110
3, 54332, Note_off_c, 1, 56, 100
3, 54332, Note_off_c, 1, 53, 100
3, 54336, Note_on_c, 1, 59, 110
3, 54336, Note_on_c, 1, 47, 110
3, 54524, Note_off_c, 1, 59, 100
3, 54524, Note_off_c, 1, 47, 100
3, 54528, Note_on_c, 1, 48, 110
3, 54528, Note_on_c, 1, 60, 110
3, 54716, Note_off_c, 1, 48, 100
3, 54716, Note_off_c, 1, 60, 100
3, 54720, Note_on_c, 1, 48, 110
3, 54720, Note_on_c, 1, 36, 110
3, 54908, Note_off_c, 1, 48, 100
3, 54908, Note_off_c, 1, 36, 100
3, 54912, Control_c, 1, 64, 127
3, 54912, Note_on_c, 1, 41, 110
3, 54912, Note_on_c, 1, 53, 110
3, 55004, Note_off_c, 1, 41, 100
3, 55004, Note_off_c, 1, 53, 100
3, 55008, Note_on_c, 1, 43, 80
3, 55008, Note_on_c, 1, 40, 80
3, 55100, Note_off_c, 1, 43, 100
3, 55100, Note_off_c, 1, 40, 100
3, 55104, Note_on_c, 1, 44, 80
3, 55104, Note_on_c, 1, 41, 80
3, 55196, Note_off_c, 1, 44, 100
3, 55196, Note_off_c, 1, 41, 100
3, 55200, Note_on_c, 1, 46, 80
3, 55200, Note_on_c, 1, 43, 80
3, 55288, Control_c, 1, 64, 0
3, 55292, Note_off_c, 1, 46, 100
3, 55292, Note_off_c, 1, 43, 100
3, 55296, Control_c, 1, 64, 127
3, 55296, Note_on_c, 1, 48, 80
3, 55296, Note_on_c, 1, 44, 80
3, 55388, Note_off_c, 1, 48, 100
3, 55388, Note_off_c, 1, 44, 100
3, 55392, Note_on_c, 1, 49, 80
3, 55392, Note_on_c, 1, 46, 80
3, 55484, Note_off_c, 1, 49, 100
3, 55484, Note_off_c, 1, 46, 100
3, 55488, Note_on_c, 1, 48, 80
3, 55488, Note_on_c, 1, 44, 80
3, 55580, Note_off_c, 1, 48, 100
3, 55580, Note_off_c, 1, 44, 100
3, 55584, Note_on_c, 1, 46, 80
3, 55584, Note_on_c, 1, 43, 80
3, 55672, Control_c, 1, 64, 0
3, 55676, Note_off_c, 1, 46, 100
3, 55676, Note_off_c, 1, 43, 100
3, 55680, Control_c, 1, 64, 127
3, 55680, Note_on_c, 1, 44, 80
3, 55680, Note_on_c, 1, 41, 80
3, 55772, Note_off_c, 1, 44, 100
3, 55772, Note_off_c, 1, 41, 100
3, 55776, Note_on_c, 1, 48, 80
3, 55776, Note_on_c, 1, 45, 80
3, 55868, Note_off_c, 1, 48, 100
3, 55868, Note_off_c, 1, 45, 100
3, 55872, Note_on_c, 1, 49, 80
3, 55872, Note_on_c, 1, 46, 80
3, 55964, Note_off_c, 1, 49, 100
3, 55964, Note_off_c, 1, 46, 100
3, 55968, Note_on_c, 1, 51, 80
3, 55968, Note_on_c, 1, 48, 80
3, 56056, Control_c, 1, 64, 0
3, 56060, Note_off_c, 1, 51, 100
3, 56060, Note_off_c, 1, 48, 100
3, 56064, Control_c, 1, 64, 127
3, 56064, Note_on_c, 1, 53, 80
3, 56064, Note_on_c, 1, 49, 80
3, 56156, Note_off_c, 1, 53, 100
3, 56156, Note_off_c, 1, 49, 100
3, 56160, Note_on_c, 1, 54, 80
3, 56160, Note_on_c, 1, 51, 80
3, 56252, Note_off_c, 1, 54, 100
3, 56252, Note_off_c, 1, 51, 100
3, 56256, Note_on_c, 1, 53, 80
3, 56256, Note_on_c, 1, 49, 80
3, 56348, Note_off_c, 1, 53, 100
3, 56348, Note_off_c, 1, 49, 100
3, 56352, Note_on_c, 1, 51, 80
3, 56352, Note_on_c, 1, 48, 80
3, 56440, Control_c, 1, 64, 0
3, 56444, Note_off_c, 1, 51, 100
3, 56444, Note_off_c, 1, 48, 100
3, 56448, Control_c, 1, 64, 127
3, 56448, Note_on_c, 1, 49, 80
3, 56448, Note_on_c, 1, 46, 80
3, 56540, Note_off_c, 1, 49, 100
3, 56540, Note_off_c, 1, 46, 100
3, 56544, Note_on_c, 1, 49, 81
3, 56544, Note_on_c, 1, 46, 81
3, 56636, Note_off_c, 1, 49, 100
3, 56636, Note_off_c, 1, 46, 100
3, 56640, Note_on_c, 1, 50, 82
3, 56640, Note_on_c, 1, 47, 82
3, 56732, Note_off_c, 1, 50, 100
3, 56732, Note_off_c, 1, 47, 100
3, 56736, Note_on_c, 1, 50, 83
3, 56736, Note_on_c, 1, 47, 83
3, 56824, Control_c, 1, 64, 0
3, 56828, Note_off_c, 1, 50, 100
3, 56828, Note_off_c, 1, 47, 100
3, 56832, Control_c, 1, 64, 127
3, 56832, Note_on_c, 1, 53, 84
3, 56832, Note_on_c, 1, 48, 84
3, 56924, Note_off_c, 1, 53, 100
3, 56924, Note_off_c, 1, 48, 100
3, 56928, Note_on_c, 1, 53, 85
3, 56928, Note_on_c, 1, 48, 85
3, 57020, Note_off_c, 1, 53, 100
3, 57020, Note_off_c, 1, 48, 100
3, 57024, Note_on_c, 1, 55, 85
3, 57024, Note_on_c, 1, 48, 85
3, 57116, Note_off_c, 1, 55, 100
3, 57116, Note_off_c, 1, 48, 100
3, 57120, Note_on_c, 1, 55, 86
3, 57120, Note_on_c, 1, 48, 86
3, 57208, Control_c, 1, 64, 0
3, 57212, Note_off_c, 1, 55, 100
3, 57212, Note_off_c, 1, 48, 100
3, 57216, Control_c, 1, 64, 127
3, 57216, Note_on_c, 1, 57, 87
3, 57216, Note_on_c, 1, 53, 87
3, 57308, Note_off_c, 1, 57, 100
3, 57308, Note_off_c, 1, 53, 100
3, 57312, Note_on_c, 1, 40, 88
3, 57312, Note_on_c, 1, 52, 88
3, 57404, Note_off_c, 1, 40, 100
3, 57404, Note_off_c, 1, 52, 100
3, 57408, Note_on_c, 1, 41, 89
3, 57408, Note_on_c, 1, 53, 89
3, 57500, Note_off_c, 1, 41, 100
3, 57500, Note_off_c, 1, 53, 100
3, 57504, Note_on_c, 1, 43, 90
3, 57504, Note_on_c, 1, 55, 90
3, 57592, Control_c, 1, 64, 0
3, 57596, Note_off_c, 1, 43, 100
3, 57596, Note_off_c, 1, 55, 100
3, 57600, Control_c, 1, 64, 127
3, 57600, Note_on_c, 1, 44, 91
3, 57600, Note_on_c, 1, 56, 91
3, 57692, Note_off_c, 1, 44, 100
3, 57692, Note_off_c, 1, 56, 100
3, 57696, Note_on_c, 1, 46, 92
3, 57696, Note_on_c, 1, 58, 92
3, 57788, Note_off_c, 1, 46, 100
3, 57788, Note_off_c, 1, 58, 100
3, 57792, Note_on_c, 1, 44, 93
3, 57792, Note_on_c, 1, 56, 93
3, 57884, Note_off_c, 1, 44, 100
3, 57884, Note_off_c, 1, 56, 100
3, 57888, Note_on_c, 1, 43, 94
3, 57888, Note_on_c, 1, 55, 94
3, 57976, Control_c, 1, 64, 0
3, 57980, Note_off_c, 1, 43, 100
3, 57980, Note_off_c, 1, 55, 100
3, 57984, Control_c, 1, 64, 127
3, 57984, Note_on_c, 1, 41, 95
3, 57984, Note_on_c, 1, 53, 95
3, 58076, Note_off_c, 1, 41, 100
3, 58076, Note_off_c, 1, 53, 100
3, 58080, Note_on_c, 1, 45, 96
3, 58080, Note_on_c, 1, 57, 96
3, 58172, Note_off_c, 1, 45, 100
3, 58172, Note_off_c, 1, 57, 100
3, 58176, Note_on_c, 1, 46, 97
3, 58176, Note_on_c, 1, 58, 97
3, 58268, Note_off_c, 1, 46, 100
3, 58268, Note_off_c, 1, 58, 100
3, 58272, Note_on_c, 1, 48, 97
3, 58272, Note_on_c, 1, 60, 97
3, 58360, Control_c, 1, 64, 0
3, 58364, Note_off_c, 1, 48, 100
3, 58364, Note_off_c, 1, 60, 100
3, 58368, Control_c, 1, 64, 127
3, 58368, Note_on_c, 1, 49, 98
3, 58368, Note_on_c, 1, 61, 98
3, 58460, Note_off_c, 1, 49, 100
3, 58460, Note_off_c, 1, 61, 100
3, 58464, Note_on_c, 1, 51, 99
3, 58464, Note_on_c, 1, 63, 99
3, 58556, Note_off_c, 1, 51, 100
3, 58556, Note_off_c, 1, 63, 100
3, 58560, Note_on_c, 1, 49, 100
3, 58560, Note_on_c, 1, 61, 100
3, 58652, Note_off_c, 1, 49, 100
3, 58652, Note_off_c, 1, 61, 100
3, 58656, Note_on_c, 1, 48, 101
3, 58656, Note_on_c, 1, 60, 101
3, 58744, Control_c, 1, 64, 0
3, 58748, Note_off_c, 1, 48, 100
3, 58748, Note_off_c, 1, 60, 100
3, 58752, Control_c, 1, 64, 127
3, 58752, Note_on_c, 1, 58, 102
3, 58752, Note_on_c, 1, 50, 102
3, 58844, Note_off_c, 1, 58, 100
3, 58844, Note_off_c, 1, 50, 100
3, 58848, Note_on_c, 1, 58, 103
3, 58848, Note_on_c, 1, 61, 103
3, 58940, Note_off_c, 1, 58, 100
3, 58940, Note_off_c, 1, 61, 100
3, 58944, Note_on_c, 1, 59, 104
3, 58944, Note_on_c, 1, 62, 104
3, 59036, Note_off_c, 1, 59, 100
3, 59036, Note_off_c, 1, 62, 100
3, 59040, Note_on_c, 1, 59, 105
3, 59040, Note_on_c, 1, 62, 105
3, 59128, Control_c, 1, 64, 0
3, 59132, Note_off_c, 1, 59, 100
3, 59132, Note_off_c, 1, 62, 100
3, 59136, Control_c, 1, 64, 127
3, 59136, Note_on_c, 1, 60, 106
3, 59136, Note_on_c, 1, 65, 106
3, 59228, Note_off_c, 1, 60, 100
3, 59228, Note_off_c, 1, 65, 100
3, 59232, Note_on_c, 1, 60, 107
3, 59232, Note_on_c, 1, 65, 107
3, 59324, Note_off_c, 1, 60, 100
3, 59324, Note_off_c, 1, 65, 100
3, 59328, Note_on_c, 1, 60, 108
3, 59328, Note_on_c, 1, 67, 108
3, 59420, Note_off_c, 1, 60, 100
3, 59420, Note_off_c, 1, 67, 100
3, 59424, Note_on_c, 1, 60, 109
3, 59424, Note_on_c, 1, 67, 109
3, 59512, Control_c, 1, 64, 0
3, 59516, Note_off_c, 1, 60, 100
3, 59516, Note_off_c, 1, 67, 100
3, 59520, Control_c, 1, 64, 127
3, 59520, Note_on_c, 1, 65, 120
3, 59520, Note_on_c, 1, 60, 120
3, 59520, Note_on_c, 1, 56, 120
3, 59520, Note_on_c, 1, 53, 120
3, 59612, Note_off_c, 1, 65, 100
3, 59612, Note_off_c, 1, 60, 100
3, 59612, Note_off_c, 1, 56, 100
3, 59612, Note_off_c, 1, 53, 100
3, 59616, Note_on_c, 1, 65, 120
3, 59616, Note_on_c, 1, 60, 120
3, 59616, Note_on_c, 1, 56, 120
3, 59616, Note_on_c, 1, 53, 120
3, 59708, Note_off_c, 1, 65, 100
3, 59708, Note_off_c, 1, 60, 100
3, 59708, Note_off_c, 1, 56, 100
3, 59708, Note_off_c, 1, 53, 100
3, 59712, Note_on_c, 1, 65, 120
3, 59712, Note_on_c, 1, 60, 120
3, 59712, Note_on_c, 1, 56, 120
3, 59712, Note_on_c, 1, 53, 120
3, 59804, Note_off_c, 1, 65, 100
3, 59804, Note_off_c, 1, 60, 100
3, 59804, Note_off_c, 1, 56, 100
3, 59804, Note_off_c, 1, 53, 100
3, 59808, Note_on_c, 1, 65, 120
3, 59808, Note_on_c, 1, 60, 120
3, 59808, Note_on_c, 1, 56, 120
3, 59808, Note_on_c, 1, 53, 120
3, 59896, Control_c, 1, 64, 0
3, 59900, Note_off_c, 1, 65, 100
3, 59900, Note_off_c, 1, 60, 100
3, 59900, Note_off_c, 1, 56, 100
3, 59900, Note_off_c, 1, 53, 100
3, 59904, Control_c, 1, 64, 127
3, 59904, Note_on_c, 1, 64, 120
3, 59904, Note_on_c, 1, 60, 120
3, 59904, Note_on_c, 1, 58, 120
3, 59904, Note_on_c, 1, 55, 120
3, 59904, Note_on_c, 1, 53, 120
3, 59996, Note_off_c, 1, 64, 100
3, 59996, Note_off_c, 1, 60, 100
3, 59996, Note_off_c, 1, 58, 100
3, 59996, Note_off_c, 1, 55, 100
3, 59996, Note_off_c, 1, 53, 100
3, 60000, Note_on_c, 1, 64, 120
3, 60000, Note_on_c, 1, 60, 120
3, 60000, Note_on_c, 1, 58, 120
3, 60000, Note_on_c, 1, 55, 120
3, 60000, Note_on_c, 1, 53, 120
3, 60092, Note_off_c, 1, 64, 100
3, 60092, Note_off_c, 1, 60, 100
3, 60092, Note_off_c, 1, 58, 100
3, 60092, Note_off_c, 1, 55, 100
3, 60092, Note_off_c, 1, 53, 100
3, 60096, Note_on_c, 1, 64, 120
3, 60096, Note_on_c, 1, 60, 120
3, 60096, Note_on_c, 1, 58, 120
3, 60096, Note_on_c, 1, 55, 120
3, 60096, Note_on_c, 1, 53, 120
3, 60188, Note_off_c, 1, 64, 100
3, 60188, Note_off_c, 1, 60, 100
3, 60188, Note_off_c, 1, 58, 100
3, 60188, Note_off_c, 1, 55, 100
3, 60188, Note_off_c, 1, 53, 100
3, 60192, Note_on_c, 1, 64, 120
3, 60192, Note_on_c, 1, 60, 120
3, 60192, Note_on_c, 1, 58, 120
3, 60192, Note_on_c, 1, 55, 120
3, 60192, Note_on_c, 1, 53, 120
3, 60280, Control_c, 1, 64, 0
3, 60284, Note_off_c, 1, 64, 100
3, 60284, Note_off_c, 1, 60, 100
3, 60284, Note_off_c, 1, 58, 100
3, 60284, Note_off_c, 1, 55, 100
3, 60284, Note_off_c, 1, 53, 100
3, 60288, Control_c, 1, 64, 127
3, 60288, Note_on_c, 1, 53, 120
3, 60288, Note_on_c, 1, 48, 120
3, 60288, Note_on_c, 1, 44, 120
3, 60288, Note_on_c, 1, 41, 120
3, 60380, Note_off_c, 1, 53, 100
3, 60380, Note_off_c, 1, 48, 100
3, 60380, Note_off_c, 1, 44, 100
3, 60380, Note_off_c, 1, 41, 100
3, 60384, Note_on_c, 1, 53, 120
3, 60384, Note_on_c, 1, 48, 120
3, 60384, Note_on_c, 1, 44, 120
3, 60384, Note_on_c, 1, 41, 120
3, 60476, Note_off_c, 1, 53, 100
3, 60476, Note_off_c, 1, 48, 100
3, 60476, Note_off_c, 1, 44, 100
3, 60476, Note_off_c, 1, 41, 100
3, 60480, Note_on_c, 1, 53, 120
3, 60480, Note_on_c, 1, 48, 120
3, 60480, Note_on_c, 1, 44, 120
3, 60480, Note_on_c, 1, 41, 120
3, 60572, Note_off_c, 1, 53, 100
3, 60572, Note_off_c, 1, 48, 100
3, 60572, Note_off_c, 1, 44, 100
3, 60572, Note_off_c, 1, 41, 100
3, 60576, Note_on_c, 1, 53, 120
3, 60576, Note_on_c, 1, 48, 120
3, 60576, Note_on_c, 1, 44, 120
3, 60576, Note_on_c, 1, 41, 120
3, 60664, Control_c, 1, 64, 0
3, 60668, Note_off_c, 1, 53, 100
3, 60668, Note_off_c, 1, 48, 100
3, 60668, Note_off_c, 1, 44, 100
3, 60668, Note_off_c, 1, 41, 100
3, 60672, Control_c, 1, 64, 127
3, 60672, Note_on_c, 1, 52, 120
3, 60672, Note_on_c, 1, 48, 120
3, 60672, Note_on_c, 1, 46, 120
3, 60672, Note_on_c, 1, 43, 120
3, 60672, Note_on_c, 1, 41, 120
3, 60764, Note_off_c, 1, 52, 100
3, 60764, Note_off_c, 1, 48, 100
3, 60764, Note_off_c, 1, 46, 100
3, 60764, Note_off_c, 1, 43, 100
3, 60764, Note_off_c, 1, 41, 100
3, 60768, Note_on_c, 1, 52, 120
3, 60768, Note_on_c, 1, 48, 120
3, 60768, Note_on_c, 1, 46, 120
3, 60768, Note_on_c, 1, 43, 120
3, 60768, Note_on_c, 1, 41, 120
3, 60860, Note_off_c, 1, 52, 100
3, 60860, Note_off_c, 1, 48, 100
3, 60860, Note_off_c, 1, 46, 100
3, 60860, Note_off_c, 1, 43, 100
3, 60860, Note_off_c, 1, 41, 100
3, 60864, Note_on_c, 1, 52, 120
3, 60864, Note_on_c, 1, 48, 120
3, 60864, Note_on_c, 1, 46, 120
3, 60864, Note_on_c, 1, 43, 120
3, 60864, Note_on_c, 1, 41, 120
3, 60956, Note_off_c, 1, 52, 100
3, 60956, Note_off_c, 1, 48, 100
3, 60956, Note_off_c, 1, 46, 100
3, 60956, Note_off_c, 1, 43, 100
3, 60956, Note_off_c, 1, 41, 100
3, 60960, Note_on_c, 1, 52, 120
3, 60960, Note_on_c, 1, 48, 120
3, 60960, Note_on_c, 1, 46, 120
3, 60960, Note_on_c, 1, 43, 120
3, 60960, Note_on_c, 1, 41, 120
3, 61048, Control_c, 1, 64, 0
3, 61052, Note_off_c, 1, 52, 100
3, 61052, Note_off_c, 1, 48, 100
3, 61052, Note_off_c, 1, 46, 100
3, 61052, Note_off_c, 1, 43, 100
3, 61052, Note_off_c, 1, 41, 100
3, 61056, Note_on_c, 1, 53, 120
3, 61056, Note_on_c, 1, 41, 120
3, 61436, Note_off_c, 1, 53, 100
3, 61436, Note_off_c, 1, 41, 100
3, 61440, Note_on_c, 1, 44, 110
3, 61820, Note_off_c, 1, 44, 100
3, 61824, Note_on_c, 1, 43, 110
3, 62108, Note_off_c, 1, 43, 100
3, 62112, Note_on_c, 1, 44, 110
3, 62156, Note_off_c, 1, 44, 100
3, 62160, Note_on_c, 1, 46, 110
3, 62204, Note_off_c, 1, 46, 100
3, 62208, Note_on_c, 1, 38, 110
3, 62396, Note_off_c, 1, 38, 100
3, 62400, Note_on_c, 1, 40, 110
3, 62588, Note_off_c, 1, 40, 100
3, 62592, Note_on_c, 1, 41, 110
3, 62780, Note_off_c, 1, 41, 100
3, 62976, Note_on_c, 1, 49, 110
3, 63356, Note_off_c, 1, 49, 100
3, 63360, Note_on_c, 1, 48, 110
3, 63644, Note_off_c, 1, 48, 100
3, 63648, Note_on_c, 1, 49, 110
3, 63692, Note_off_c, 1, 49, 100
3, 63696, Note_on_c, 1, 51, 110
3, 63740, Note_off_c, 1, 51, 100
3, 63744, Note_on_c, 1, 43, 110
3, 63932, Note_off_c, 1, 43, 100
3, 63936, Note_on_c, 1, 45, 110
3, 64124, Note_off_c, 1, 45, 100
3, 64128, Note_on_c, 1, 46, 110
3, 64316, Note_off_c, 1, 46, 100
3, 65280, Note_on_c, 1, 53, 110
3, 65660, Note_off_c, 1, 53, 100
3, 65664, Note_on_c, 1, 46, 110
3, 65852, Note_off_c, 1, 46, 100
3, 66816, Note_on_c, 1, 58, 110
3, 67196, Note_off_c, 1, 58, 100
3, 67200, Note_on_c, 1, 51, 110
3, 67388, Note_off_c, 1, 51, 100
3, 67584, Note_on_c, 1, 54, 110
3, 67584, Note_on_c, 1, 58, 110
3, 67964, Note_off_c, 1, 54, 100
3, 67964, Note_off_c, 1, 58, 100
3, 67968, Note_on_c, 1, 53, 110
3, 67968, Note_on_c, 1, 56, 110
3, 68252, Note_off_c, 1, 53, 100
3, 68252, Note_off_c, 1, 56, 100
3, 68256, Note_on_c, 1, 58, 110
3, 68256, Note_on_c, 1, 54, 110
3, 68300, Note_off_c, 1, 58, 100
3, 68300, Note_off_c, 1, 54, 100
3, 68304, Note_on_c, 1, 59, 110
3, 68304, Note_on_c, 1, 56, 110
3, 68348, Note_off_c, 1, 59, 100
3, 68348, Note_off_c, 1, 56, 100
3, 68352, Note_on_c, 1, 51, 110
3, 68352, Note_on_c, 1, 48, 110
3, 68540, Note_off_c, 1, 51, 100
3, 68540, Note_off_c, 1, 48, 100
3, 68544, Note_on_c, 1, 53, 110
3, 68544, Note_on_c, 1, 50, 110
3, 68732, Note_off_c, 1, 53, 100
3, 68732, Note_off_c, 1, 50, 100
3, 68736, Note_on_c, 1, 51, 110
3, 68736, Note_on_c, 1, 54, 110
3, 69020, Note_off_c, 1, 51, 100
3, 69020, Note_off_c, 1, 54, 100
3, 69024, Note_on_c, 1, 56, 110
3, 69024, Note_on_c, 1, 53, 110
3, 69068, Note_off_c, 1, 56, 100
3, 69068, Note_off_c, 1, 53, 100
3, 69072, Note_on_c, 1, 58, 110
3, 69072, Note_on_c, 1, 54, 110
3, 69116, Note_off_c, 1, 58, 100
3, 69116, Note_off_c, 1, 54, 100
3, 69120, Note_on_c, 1, 49, 110
3, 69120, Note_on_c, 1, 46, 110
3, 69308, Note_off_c, 1, 49, 100
3, 69308, Note_off_c, 1, 46, 100
3, 69312, Note_on_c, 1, 53, 110
3, 69312, Note_on_c, 1, 49, 110
3, 69500, Note_off_c, 1, 53, 100
3, 69500, Note_off_c, 1, 49, 100
3, 69504, Note_on_c, 1, 53, 110
3, 69504, Note_on_c, 1, 49, 110
3, 69692, Note_off_c, 1, 53, 100
3, 69692, Note_off_c, 1, 49, 100
3, 69696, Note_on_c, 1, 53, 110
3, 69696, Note_on_c, 1, 56, 110
3, 70172, Note_off_c, 1, 53, 100
3, 70172, Note_off_c, 1, 56, 100
3, 70176, Note_on_c, 1, 54, 110
3, 70176, Note_on_c, 1, 51, 110
3, 70220, Note_off_c, 1, 54, 100
3, 70220, Note_off_c, 1, 51, 100
3, 70224, Note_on_c, 1, 53, 110
3, 70224, Note_on_c, 1, 49, 110
3, 70268, Note_off_c, 1, 53, 100
3, 70268, Note_off_c, 1, 49, 100
3, 70272, Note_on_c, 1, 48, 110
3, 70272, Note_on_c, 1, 51, 110
3, 70460, Note_off_c, 1, 48, 100
3, 70460, Note_off_c, 1, 51, 100
3, 70464, Note_on_c, 1, 63, 110
3, 70464, Note_on_c, 1, 66, 110
3, 70940, Note_off_c, 1, 63, 100
3, 70940, Note_off_c, 1, 66, 100
3, 70944, Note_on_c, 1, 61, 110
3, 70944, Note_on_c, 1, 65, 110
3, 70988, Note_off_c, 1, 61, 100
3, 70988, Note_off_c, 1, 65, 100
3, 70992, Note_on_c, 1, 60, 110
3, 70992, Note_on_c, 1, 63, 110
3, 71036, Note_off_c, 1, 60, 100
3, 71036, Note_off_c, 1, 63, 100
3, 71040, Note_on_c, 1, 58, 110
3, 71040, Note_on_c, 1, 61, 110
3, 71324, Note_off_c, 1, 58, 100
3, 71324, Note_off_c, 1, 61, 100
3, 71328, Note_on_c, 1, 60, 112
3, 71328, Note_on_c, 1, 56, 112
3, 71420, Note_off_c, 1, 60, 100
3, 71420, Note_off_c, 1, 56, 100
3, 71424, Note_on_c, 1, 54, 112
3, 71424, Note_on_c, 1, 58, 112
3, 71708, Note_off_c, 1, 54, 100
3, 71708, Note_off_c, 1, 58, 100
3, 71712, Note_on_c, 1, 56, 114
3, 71712, Note_on_c, 1, 53, 114
3, 71804, Note_off_c, 1, 56, 100
3, 71804, Note_off_c, 1, 53, 100
3, 71808, Note_on_c, 1, 54, 115
3, 71808, Note_on_c, 1, 51, 115
3, 71996, Note_off_c, 1, 54, 100
3, 72000, Note_on_c, 1, 63, 117
3, 72188, Note_off_c, 1, 51, 100
3, 72188, Note_off_c, 1, 63, 100
3, 72192, Note_on_c, 1, 61, 118
3, 72192, Note_on_c, 1, 53, 118
3, 72380, Note_off_c, 1, 61, 100
3, 72380, Note_off_c, 1, 53, 100
3, 72384, Note_on_c, 1, 60, 119
3, 72384, Note_on_c, 1, 53, 119
3, 72572, Note_off_c, 1, 60, 100
3, 72572, Note_off_c, 1, 53, 100
3, 72576, Control_c, 1, 64, 127
3, 72576, Note_on_c, 1, 58, 120
3, 72576, Note_on_c, 1, 46, 120
3, 72668, Note_off_c, 1, 58, 100
3, 72668, Note_off_c, 1, 46, 100
3, 72672, Note_on_c, 1, 45, 80
3, 72672, Note_on_c, 1, 48, 80
3, 72764, Note_off_c, 1, 45, 100
3, 72764, Note_off_c, 1, 48, 100
3, 72768, Note_on_c, 1, 49, 80
3, 72768, Note_on_c, 1, 46, 80
3, 72860, Note_off_c, 1, 49, 100
3, 72860, Note_off_c, 1, 46, 100
3, 72864, Note_on_c, 1, 51, 80
3, 72864, Note_on_c, 1, 48, 80
3, 72952, Control_c, 1, 64, 0
3, 72956, Note_off_c, 1, 51, 100
3, 72956, Note_off_c, 1, 48, 100
3, 72960, Control_c, 1, 64, 127
3, 72960, Note_on_c, 1, 53, 80
3, 72960, Note_on_c, 1, 49, 80
3, 73052, Note_off_c, 1, 53, 100
3, 73052, Note_off_c, 1, 49, 100
3, 73056, Note_on_c, 1, 54, 80
3, 73056, Note_on_c, 1, 51, 80
3, 73148, Note_off_c, 1, 54, 100
3, 73148, Note_off_c, 1, 51, 100
3, 73152, Note_on_c, 1, 53, 80
3, 73152, Note_on_c, 1, 49, 80
3, 73244, Note_off_c, 1, 53, 100
3, 73244, Note_off_c, 1, 49, 100
3, 73248, Note_on_c, 1, 51, 80
3, 73248, Note_on_c, 1, 48, 80
3, 73336, Control_c, 1, 64, 0
3, 73340, Note_off_c, 1, 51, 100
3, 73340, Note_off_c, 1, 48, 100
3, 73344, Control_c, 1, 64, 127
3, 73344, Note_on_c, 1, 49, 80
3, 73344, Note_on_c, 1, 46, 80
3, 73436, Note_off_c, 1, 49, 100
3, 73436, Note_off_c, 1, 46, 100
3, 73440, Note_on_c, 1, 53, 80
3, 73440, Note_on_c, 1, 50, 80
3, 73532, Note_off_c, 1, 53, 100
3, 73532, Note_off_c, 1, 50, 100
3, 73536, Note_on_c, 1, 54, 80
3, 73536, Note_on_c, 1, 51, 80
3, 73628, Note_off_c, 1, 54, 100
3, 73628, Note_off_c, 1, 51, 100
3, 73632, Note_on_c, 1, 56, 80
3, 73632, Note_on_c, 1, 53, 80
3, 73720, Control_c, 1, 64, 0
3, 73724, Note_off_c, 1, 56, 100
3, 73724, Note_off_c, 1, 53, 100
3, 73728, Control_c, 1, 64, 127
3, 73728, Note_on_c, 1, 58, 80
3, 73728, Note_on_c, 1, 54, 80
3, 73820, Note_off_c, 1, 58, 100
3, 73820, Note_off_c, 1, 54, 100
3, 73824, Note_on_c, 1, 59, 80
3, 73824, Note_on_c, 1, 56, 80
3, 73916, Note_off_c, 1, 59, 100
3, 73916, Note_off_c, 1, 56, 100
3, 73920, Note_on_c, 1, 58, 80
3, 73920, Note_on_c, 1, 54, 80
3, 74012, Note_off_c, 1, 58, 100
3, 74012, Note_off_c, 1, 54, 100
3, 74016, Note_on_c, 1, 56, 80
3, 74016, Note_on_c, 1, 53, 80
3, 74104, Control_c, 1, 64, 0
3, 74108, Note_off_c, 1, 56, 100
3, 74108, Note_off_c, 1, 53, 100
3, 74112, Control_c, 1, 64, 127
3, 74112, Note_on_c, 1, 54, 80
3, 74112, Note_on_c, 1, 51, 80
3, 74204, Note_off_c, 1, 54, 100
3, 74204, Note_off_c, 1, 51, 100
3, 74208, Note_on_c, 1, 54, 80
3, 74208, Note_on_c, 1, 51, 80
3, 74300, Note_off_c, 1, 54, 100
3, 74300, Note_off_c, 1, 51, 100
3, 74304, Note_on_c, 1, 55, 80
3, 74304, Note_on_c, 1, 52, 80
3, 74396, Note_off_c, 1, 55, 100
3, 74396, Note_off_c, 1, 52, 100
3, 74400, Note_on_c, 1, 55, 80
3, 74400, Note_on_c, 1, 52, 80
3, 74488, Control_c, 1, 64, 0
3, 74492, Note_off_c, 1, 55, 100
3, 74492, Note_off_c, 1, 52, 100
3, 74496, Control_c, 1, 64, 127
3, 74496, Note_on_c, 1, 58, 80
3, 74496, Note_on_c, 1, 53, 80
3, 74588, Note_off_c, 1, 58, 100
3, 74588, Note_off_c, 1, 53, 100
3, 74592, Note_on_c, 1, 58, 80
3, 74592, Note_on_c, 1, 53, 80
3, 74684, Note_off_c, 1, 58, 100
3, 74684, Note_off_c, 1, 53, 100
3, 74688, Note_on_c, 1, 60, 80
3, 74688, Note_on_c, 1, 53, 80
3, 74780, Note_off_c, 1, 60, 100
3, 74780, Note_off_c, 1, 53, 100
3, 74784, Note_on_c, 1, 60, 80
3, 74784, Note_on_c, 1, 53, 80
3, 74872, Control_c, 1, 64, 0
3, 74876, Note_off_c, 1, 60, 100
3, 74876, Note_off_c, 1, 53, 100
3, 74880, Control_c, 1, 64, 127
3, 74880, Note_on_c, 1, 58, 80
3, 74880, Note_on_c, 1, 46, 80
3, 74972, Note_off_c, 1, 58, 100
3, 74972, Note_off_c, 1, 46, 100
3, 74976, Note_on_c, 1, 57, 81
3, 74976, Note_on_c, 1, 45, 81
3, 75068, Note_off_c, 1, 57, 100
3, 75068, Note_off_c, 1, 45, 100
3, 75072, Note_on_c, 1, 58, 83
3, 75072, Note_on_c, 1, 46, 83
3, 75164, Note_off_c, 1, 58, 100
3, 75164, Note_off_c, 1, 46, 100
3, 75168, Note_on_c, 1, 60, 84
3, 75168, Note_on_c, 1, 48, 84
3, 75256, Control_c, 1, 64, 0
3, 75260, Note_off_c, 1, 60, 100
3, 75260, Note_off_c, 1, 48, 100
3, 75264, Control_c, 1, 64, 127
3, 75264, Note_on_c, 1, 61, 85
3, 75264, Note_on_c, 1, 49, 85
3, 75356, Note_off_c, 1, 61, 100
3, 75356, Note_off_c, 1, 49, 100
3, 75360, Note_on_c, 1, 63, 87
3, 75360, Note_on_c, 1, 51, 87
3, 75452, Note_off_c, 1, 63, 100
3, 75452, Note_off_c, 1, 51, 100
3, 75456, Note_on_c, 1, 61, 88
3, 75456, Note_on_c, 1, 49, 88
3, 75548, Note_off_c, 1, 61, 100
3, 75548, Note_off_c, 1, 49, 100
3, 75552, Note_on_c, 1, 60, 89
3, 75552, Note_on_c, 1, 48, 89
3, 75640, Control_c, 1, 64, 0
3, 75644, Note_off_c, 1, 60, 100
3, 75644, Note_off_c, 1, 48, 100
3, 75648, Control_c, 1, 64, 127
3, 75648, Note_on_c, 1, 58, 90
3, 75648, Note_on_c, 1, 46, 90
3, 75740, Note_off_c, 1, 58, 100
3, 75740, Note_off_c, 1, 46, 100
3, 75744, Note_on_c, 1, 62, 92
3, 75744, Note_on_c, 1, 50, 92
3, 75836, Note_off_c, 1, 62, 100
3, 75836, Note_off_c, 1, 50, 100
3, 75840, Note_on_c, 1, 63, 93
3, 75840, Note_on_c, 1, 51, 93
3, 75932, Note_off_c, 1, 63, 100
3, 75932, Note_off_c, 1, 51, 100
3, 75936, Note_on_c, 1, 65, 94
3, 75936, Note_on_c, 1, 53, 94
3, 76024, Control_c, 1, 64, 0
3, 76028, Note_off_c, 1, 65, 100
3, 76028, Note_off_c, 1, 53, 100
3, 76032, Control_c, 1, 64, 127
3, 76032, Note_on_c, 1, 66, 95
3, 76032, Note_on_c, 1, 54, 95
3, 76124, Note_off_c, 1, 66, 100
3, 76124, Note_off_c, 1, 54, 100
3, 76128, Note_on_c, 1, 68, 97
3, 76128, Note_on_c, 1, 56, 97
3, 76220, Note_off_c, 1, 68, 100
3, 76220, Note_off_c, 1, 56, 100
3, 76224, Note_on_c, 1, 66, 98
3, 76224, Note_on_c, 1, 54, 98
3, 76316, Note_off_c, 1, 66, 100
3, 76316, Note_off_c, 1, 54, 100
3, 76320, Note_on_c, 1, 65, 99
3, 76320, Note_on_c, 1, 53, 99
3, 76408, Control_c, 1, 64, 0
3, 76412, Note_off_c, 1, 65, 100
3, 76412, Note_off_c, 1, 53, 100
3, 76416, Control_c, 1, 64, 127
3, 76416, Note_on_c, 1, 63, 101
3, 76416, Note_on_c, 1, 51, 101
3, 76508, Note_off_c, 1, 63, 100
3, 76508, Note_off_c, 1, 51, 100
3, 76512, Note_on_c, 1, 63, 102
3, 76512, Note_on_c, 1, 66, 102
3, 76604, Note_off_c, 1, 63, 100
3, 76604, Note_off_c, 1, 66, 100
3, 76608, Note_on_c, 1, 67, 103
3, 76608, Note_on_c, 1, 64, 103
3, 76700, Note_off_c, 1, 67, 100
3, 76700, Note_off_c, 1, 64, 100
3, 76704, Note_on_c, 1, 64, 104
3, 76704, Note_on_c, 1, 67, 104
3, 76792, Control_c, 1, 64, 0
3, 76796, Note_off_c, 1, 64, 100
3, 76796, Note_off_c, 1, 67, 100
3, 76800, Control_c, 1, 64, 127
3, 76800, Note_on_c, 1, 70, 106
3, 76800, Note_on_c, 1, 65, 106
3, 76892, Note_off_c, 1, 70, 100
3, 76892, Note_off_c, 1, 65, 100
3, 76896, Note_on_c, 1, 70, 107
3, 76896, Note_on_c, 1, 65, 107
3, 76988, Note_off_c, 1, 70, 100
3, 76988, Note_off_c, 1, 65, 100
3, 76992, Note_on_c, 1, 72, 108
3, 76992, Note_on_c, 1, 65, 108
3, 77084, Note_off_c, 1, 72, 100
3, 77084, Note_off_c, 1, 65, 100
3, 77088, Note_on_c, 1, 72, 109
3, 77088, Note_on_c, 1, 65, 109
3, 77176, Control_c, 1, 64, 0
3, 77180, Note_off_c, 1, 72, 100
3, 77180, Note_off_c, 1, 65, 100
3, 77184, Control_c, 1, 64, 127
3, 77184, Note_on_c, 1, 70, 120
3, 77184, Note_on_c, 1, 65, 120
3, 77184, Note_on_c, 1, 61, 120
3, 77184, Note_on_c, 1, 58, 120
3, 77276, Note_off_c, 1, 70, 100
3, 77276, Note_off_c, 1, 65, 100
3, 77276, Note_off_c, 1, 61, 100
3, 77276, Note_off_c, 1, 58, 100
3, 77280, Note_on_c, 1, 70, 120
3, 77280, Note_on_c, 1, 65, 120
3, 77280, Note_on_c, 1, 61, 120
3, 77280, Note_on_c, 1, 58, 120
3, 77372, Note_off_c, 1, 70, 100
3, 77372, Note_off_c, 1, 65, 100
3, 77372, Note_off_c, 1, 61, 100
3, 77372, Note_off_c, 1, 58, 100
3, 77376, Note_on_c, 1, 70, 120
3, 77376, Note_on_c, 1, 65, 120
3, 77376, Note_on_c, 1, 61, 120
3, 77376, Note_on_c, 1, 58, 120
3, 77468, Note_off_c, 1, 70, 100
3, 77468, Note_off_c, 1, 65, 100
3, 77468, Note_off_c, 1, 61, 100
3, 77468, Note_off_c, 1, 58, 100
3, 77472, Note_on_c, 1, 70, 120
3, 77472, Note_on_c, 1, 65, 120
3, 77472, Note_on_c, 1, 61, 120
3, 77472, Note_on_c, 1, 58, 120
3, 77560, Control_c, 1, 64, 0
3, 77564, Note_off_c, 1, 70, 100
3, 77564, Note_off_c, 1, 65, 100
3, 77564, Note_off_c, 1, 61, 100
3, 77564, Note_off_c, 1, 58, 100
3, 77568, Control_c, 1, 64, 127
3, 77568, Note_on_c, 1, 69, 120
3, 77568, Note_on_c, 1, 65, 120
3, 77568, Note_on_c, 1, 63, 120
3, 77568, Note_on_c, 1, 60, 120
3, 77568, Note_on_c, 1, 58, 120
3, 77660, Note_off_c, 1, 69, 100
3, 77660, Note_off_c, 1, 65, 100
3, 77660, Note_off_c, 1, 63, 100
3, 77660, Note_off_c, 1, 60, 100
3, 77660, Note_off_c, 1, 58, 100
3, 77664, Note_on_c, 1, 69, 120
3, 77664, Note_on_c, 1, 65, 120
3, 77664, Note_on_c, 1, 63, 120
3, 77664, Note_on_c, 1, 60, 120
3, 77664, Note_on_c, 1, 58, 120
3, 77756, Note_off_c, 1, 69, 100
3, 77756, Note_off_c, 1, 65, 100
3, 77756, Note_off_c, 1, 63, 100
3, 77756, Note_off_c, 1, 60, 100
3, 77756, Note_off_c, 1, 58, 100
3, 77760, Note_on_c, 1, 69, 120
3, 77760, Note_on_c, 1, 65, 120
3, 77760, Note_on_c, 1, 63, 120
3, 77760, Note_on_c, 1, 60, 120
3, 77760, Note_on_c, 1, 58, 120
3, 77852, Note_off_c, 1, 69, 100
3, 77852, Note_off_c, 1, 65, 100
3, 77852, Note_off_c, 1, 63, 100
3, 77852, Note_off_c, 1, 60, 100
3, 77852, Note_off_c, 1, 58, 100
3, 77856, Note_on_c, 1, 69, 120
3, 77856, Note_on_c, 1, 65, 120
3, 77856, Note_on_c, 1, 63, 120
3, 77856, Note_on_c, 1, 60, 120
3, 77856, Note_on_c, 1, 58, 120
3, 77944, Control_c, 1, 64, 0
3, 77948, Note_off_c, 1, 69, 100
3, 77948, Note_off_c, 1, 65, 100
3, 77948, Note_off_c, 1, 63, 100
3, 77948, Note_off_c, 1, 60, 100
3, 77948, Note_off_c, 1, 58, 100
3, 77952, Control_c, 1, 64, 127
3, 77952, Note_on_c, 1, 58, 120
3, 77952, Note_on_c, 1, 53, 120
3, 77952, Note_on_c, 1, 49, 120
3, 77952, Note_on_c, 1, 46, 120
3, 78044, Note_off_c, 1, 58, 100
3, 78044, Note_off_c, 1, 53, 100
3, 78044, Note_off_c, 1, 49, 100
3, 78044, Note_off_c, 1, 46, 100
3, 78048, Note_on_c, 1, 58, 120
3, 78048, Note_on_c, 1, 53, 120
3, 78048, Note_on_c, 1, 49, 120
3, 78048, Note_on_c, 1, 46, 120
3, 78140, Note_off_c, 1, 58, 100
3, 78140, Note_off_c, 1, 53, 100
3, 78140, Note_off_c, 1, 49, 100
3, 78140, Note_off_c, 1, 46, 100
3, 78144, Note_on_c, 1, 58, 120
3, 78144, Note_on_c, 1, 53, 120
3, 78144, Note_on_c, 1, 49, 120
3, 78144, Note_on_c, 1, 46, 120
3, 78236, Note_off_c, 1, 58, 100
3, 78236, Note_off_c, 1, 53, 100
3, 78236, Note_off_c, 1, 49, 100
3, 78236, Note_off_c, 1, 46, 100
3, 78240, Note_on_c, 1, 58, 120
3, 78240, Note_on_c, 1, 53, 120
3, 78240, Note_on_c, 1, 49, 120
3, 78240, Note_on_c, 1, 46, 120
3, 78328, Control_c, 1, 64, 0
3, 78332, Note_off_c, 1, 58, 100
3, 78332, Note_off_c, 1, 53, 100
3, 78332, Note_off_c, 1, 49, 100
3, 78332, Note_off_c, 1, 46, 100
3, 78336, Control_c, 1, 64, 127
3, 78336, Note_on_c, 1, 57, 120
3, 78336, Note_on_c, 1, 53, 120
3, 78336, Note_on_c, 1, 51, 120
3, 78336, Note_on_c, 1, 48, 120
3, 78336, Note_on_c, 1, 46, 120
3, 78428, Note_off_c, 1, 57, 100
3, 78428, Note_off_c, 1, 53, 100
3, 78428, Note_off_c, 1, 51, 100
3, 78428, Note_off_c, 1, 48, 100
3, 78428, Note_off_c, 1, 46, 100
3, 78432, Note_on_c, 1, 57, 120
3, 78432, Note_on_c, 1, 53, 120
3, 78432, Note_on_c, 1, 51, 120
3, 78432, Note_on_c, 1, 48, 120
3, 78432, Note_on_c, 1, 46, 120
3, 78524, Note_off_c, 1, 57, 100
3, 78524, Note_off_c, 1, 53, 100
3, 78524, Note_off_c, 1, 51, 100
3, 78524, Note_off_c, 1, 48, 100
3, 78524, Note_off_c, 1, 46, 100
3, 78528, Note_on_c, 1, 57, 120
3, 78528, Note_on_c, 1, 53, 120
3, 78528, Note_on_c, 1, 51, 120
3, 78528, Note_on_c, 1, 48, 120
3, 78528, Note_on_c, 1, 46, 120
3, 78620, Note_off_c, 1, 57, 100
3, 78620, Note_off_c, 1, 53, 100
3, 78620, Note_off_c, 1, 51, 100
3, 78620, Note_off_c, 1, 48, 100
3, 78620, Note_off_c, 1, 46, 100
3, 78624, Note_on_c, 1, 57, 120
3, 78624, Note_on_c, 1, 53, 120
3, 78624, Note_on_c, 1, 51, 120
3, 78624, Note_on_c, 1, 48, 120
3, 78624, Note_on_c, 1, 46, 120
3, 78712, Control_c, 1, 64, 0
3, 78716, Note_off_c, 1, 57, 100
3, 78716, Note_off_c, 1, 53, 100
3, 78716, Note_off_c, 1, 51, 100
3, 78716, Note_off_c, 1, 48, 100
3, 78716, Note_off_c, 1, 46, 100
3, 78720, Note_on_c, 1, 46, 120
3, 79196, Note_off_c, 1, 46, 100
3, 79200, Note_on_c, 1, 49, 80
3, 79292, Note_off_c, 1, 49, 100
3, 79296, Note_on_c, 1, 51, 80
3, 79388, Note_off_c, 1, 51, 100
3, 79392, Note_on_c, 1, 49, 80
3, 79484, Note_off_c, 1, 49, 100
3, 79488, Note_on_c, 1, 47, 80
3, 79580, Note_off_c, 1, 47, 100
3, 79584, Note_on_c, 1, 46, 80
3, 79676, Note_off_c, 1, 46, 100
3, 79680, Note_on_c, 1, 44, 80
3, 79772, Note_off_c, 1, 44, 100
3, 79776, Note_on_c, 1, 42, 80
3, 79868, Note_off_c, 1, 42, 100
3, 79872, Note_on_c, 1, 41, 80
3, 80060, Note_off_c, 1, 41, 100
3, 80064, Note_on_c, 1, 42, 80
3, 80252, Note_off_c, 1, 42, 100
3, 80256, Note_on_c, 1, 43, 80
3, 80444, Note_off_c, 1, 43, 100
3, 80448, Note_on_c, 1, 44, 80
3, 80732, Note_off_c, 1, 44, 100
3, 80736, Note_on_c, 1, 51, 80
3, 80828, Note_off_c, 1, 51, 100
3, 80832, Note_on_c, 1, 52, 80
3, 80924, Note_off_c, 1, 52, 100
3, 80928, Note_on_c, 1, 51, 80
3, 81020, Note_off_c, 1, 51, 100
3, 81024, Note_on_c, 1, 49, 80
3, 81116, Note_off_c, 1, 49, 100
3, 81120, Note_on_c, 1, 47, 80
3, 81212, Note_off_c, 1, 47, 100
3, 81216, Note_on_c, 1, 46, 80
3, 81308, Note_off_c, 1, 46, 100
3, 81312, Note_on_c, 1, 44, 80
3, 81404, Note_off_c, 1, 44, 100
3, 81408, Note_on_c, 1, 43, 80
3, 81596, Note_off_c, 1, 43, 100
3, 81600, Note_on_c, 1, 44, 80
3, 81788, Note_off_c, 1, 44, 100
3, 81792, Note_on_c, 1, 45, 80
3, 82556, Note_off_c, 1, 45, 100
3, 82560, Note_on_c, 1, 46, 80
3, 83324, Note_off_c, 1, 46, 100
3, 83328, Note_on_c, 1, 45, 80
3, 83516, Note_off_c, 1, 45, 100
3, 85632, Note_on_c, 1, 63, 80
3, 85632, Note_on_c, 1, 55, 80
3, 85724, Note_off_c, 1, 63, 100
3, 85724, Note_off_c, 1, 55, 100
3, 85728, Note_on_c, 1, 62, 80
3, 85728, Note_on_c, 1, 53, 80
3, 85820, Note_off_c, 1, 62, 100
3, 85820, Note_off_c, 1, 53, 100
3, 85824, Note_on_c, 1, 60, 80
3, 85824, Note_on_c, 1, 51, 80
3, 85916, Note_off_c, 1, 60, 100
3, 85916, Note_off_c, 1, 51, 100
3, 85920, Note_on_c, 1, 58, 80
3, 85920, Note_on_c, 1, 50, 80
3, 86012, Note_off_c, 1, 58, 100
3, 86012, Note_off_c, 1, 50, 100
3, 86016, Note_on_c, 1, 57, 80
3, 86016, Note_on_c, 1, 48, 80
3, 86204, Note_off_c, 1, 57, 100
3, 86204, Note_off_c, 1, 48, 100
3, 86208, Note_on_c, 1, 50, 80
3, 86208, Note_on_c, 1, 58, 80
3, 86396, Note_off_c, 1, 50, 100
3, 86396, Note_off_c, 1, 58, 100
3, 86400, Note_on_c, 1, 59, 80
3, 86400, Note_on_c, 1, 56, 80
3, 86588, Note_off_c, 1, 59, 100
3, 86588, Note_off_c, 1, 56, 100
3, 86592, Note_on_c, 1, 57, 80
3, 86592, Note_on_c, 1, 60, 80
3, 86876, Note_off_c, 1, 57, 100
3, 86876, Note_off_c, 1, 60, 100
3, 86880, Note_on_c, 1, 66, 80
3, 86972, Note_off_c, 1, 66, 100
3, 86976, Note_on_c, 1, 69, 80
3, 87068, Note_off_c, 1, 69, 100
3, 87072, Note_on_c, 1, 67, 80
3, 87164, Note_off_c, 1, 67, 100
3, 87168, Note_on_c, 1, 65, 80
3, 87260, Note_off_c, 1, 65, 100
3, 87264, Note_on_c, 1, 63, 80
3, 87264, Note_on_c, 1, 55, 80
3, 87356, Note_off_c, 1, 63, 100
3, 87356, Note_off_c, 1, 55, 100
3, 87360, Note_on_c, 1, 62, 80
3, 87360, Note_on_c, 1, 53, 80
3, 87452, Note_off_c, 1, 62, 100
3, 87452, Note_off_c, 1, 53, 100
3, 87456, Note_on_c, 1, 60, 80
3, 87456, Note_on_c, 1, 51, 80
3, 87548, Note_off_c, 1, 60, 100
3, 87548, Note_off_c, 1, 51, 100
3, 87552, Note_on_c, 1, 58, 80
3, 87552, Note_on_c, 1, 50, 80
3, 87740, Note_off_c, 1, 58, 100
3, 87740, Note_off_c, 1, 50, 100
3, 87744, Note_on_c, 1, 60, 80
3, 87744, Note_on_c, 1, 57, 80
3, 87932, Note_off_c, 1, 60, 100
3, 87932, Note_off_c, 1, 57, 100
3, 87936, Note_on_c, 1, 61, 80
3, 87936, Note_on_c, 1, 57, 80
3, 88124, Note_off_c, 1, 61, 100
3, 88124, Note_off_c, 1, 57, 100
3, 88128, Note_on_c, 1, 58, 80
3, 88128, Note_on_c, 1, 62, 80
3, 88412, Note_off_c, 1, 58, 100
3, 88412, Note_off_c, 1, 62, 100
3, 88416, Note_on_c, 1, 65, 80
3, 88508, Note_off_c, 1, 65, 100
3, 88512, Note_on_c, 1, 59, 80
3, 88512, Note_on_c, 1, 67, 80
3, 88604, Note_off_c, 1, 67, 100
3, 88608, Note_on_c, 1, 62, 80
3, 88700, Note_off_c, 1, 59, 100
3, 88700, Note_off_c, 1, 62, 100
3, 88704, Note_on_c, 1, 60, 80
3, 88704, Note_on_c, 1, 65, 80
3, 88796, Note_off_c, 1, 65, 100
3, 88800, Note_on_c, 1, 63, 80
3, 88892, Note_off_c, 1, 60, 100
3, 88892, Note_off_c, 1, 63, 100
3, 88896, Note_on_c, 1, 57, 80
3, 88896, Note_on_c, 1, 65, 80
3, 88988, Note_off_c, 1, 65, 100
3, 88992, Note_on_c, 1, 60, 80
3, 89084, Note_off_c, 1, 57, 100
3, 89084, Note_off_c, 1, 60, 100
3, 89088, Note_on_c, 1, 58, 80
3, 89088, Note_on_c, 1, 63, 80
3, 89180, Note_off_c, 1, 63, 100
3, 89184, Note_on_c, 1, 62, 80
3, 89276, Note_off_c, 1, 58, 100
3, 89276, Note_off_c, 1, 62, 100
3, 89280, Note_on_c, 1, 59, 80
3, 89280, Note_on_c, 1, 67, 80
3, 89372, Note_off_c, 1, 67, 100
3, 89376, Note_on_c, 1, 62, 80
3, 89468, Note_off_c, 1, 59, 100
3, 89468, Note_off_c, 1, 62, 100
3, 89472, Note_on_c, 1, 60, 80
3, 89472, Note_on_c, 1, 65, 80
3, 89564, Note_off_c, 1, 65, 100
3, 89568, Note_on_c, 1, 63, 80
3, 89660, Note_off_c, 1, 60, 100
3, 89660, Note_off_c, 1, 63, 100
3, 89664, Note_on_c, 1, 57, 80
3, 89664, Note_on_c, 1, 65, 80
3, 89756, Note_off_c, 1, 65, 100
3, 89760, Note_on_c, 1, 60, 80
3, 89852, Note_off_c, 1, 57, 100
3, 89852, Note_off_c, 1, 60, 100
3, 89856, Note_on_c, 1, 58, 80
3, 89856, Note_on_c, 1, 63, 80
3, 89948, Note_off_c, 1, 63, 100
3, 89952, Note_on_c, 1, 62, 80
3, 90044, Note_off_c, 1, 58, 100
3, 90048, Note_on_c, 1, 57, 80
3, 90140, Note_off_c, 1, 62, 100
3, 90144, Note_on_c, 1, 60, 80
3, 90236, Note_off_c, 1, 57, 100
3, 90240, Note_on_c, 1, 55, 80
3, 90428, Note_off_c, 1, 60, 100
3, 90432, Note_on_c, 1, 58, 80
3, 90620, Note_off_c, 1, 55, 100
3, 90624, Note_on_c, 1, 48, 80
3, 90812, Note_off_c, 1, 58, 100
3, 90816, Note_on_c, 1, 58, 80
3, 91004, Note_off_c, 1, 48, 100
3, 91008, Note_on_c, 1, 53, 80
3, 91196, Note_off_c, 1, 58, 100
3, 91200, Note_on_c, 1, 57, 80
3, 91388, Note_off_c, 1, 53, 100
3, 91388, Note_off_c, 1, 57, 100
3, 91776, Note_on_c, 1, 46, 80
3, 91872, Note_on_c, 1, 53, 80
3, 91964, Note_off_c, 1, 46, 100
3, 91964, Note_off_c, 1, 53, 100
3, 91968, Note_on_c, 1, 50, 80
3, 92064, Note_on_c, 1, 53, 80
3, 92156, Note_off_c, 1, 50, 100
3, 92156, Note_off_c, 1, 53, 100
3, 92160, Note_on_c, 1, 48, 80
3, 92160, Note_on_c, 1, 51, 80
3, 92252, Note_off_c, 1, 51, 100
3, 92256, Note_on_c, 1, 53, 80
3, 92348, Note_off_c, 1, 48, 100
3, 92348, Note_off_c, 1, 53, 100
3, 92352, Note_on_c, 1, 46, 80
3, 92352, Note_on_c, 1, 50, 80
3, 92444, Note_off_c, 1, 50, 100
3, 92448, Note_on_c, 1, 53, 80
3, 92540, Note_off_c, 1, 46, 100
3, 92540, Note_off_c, 1, 53, 100
3, 92544, Note_on_c, 1, 51, 80
3, 92544, Note_on_c, 1, 45, 80
3, 92640, Note_on_c, 1, 53, 80
3, 92732, Note_off_c, 1, 53, 100
3, 92736, Note_on_c, 1, 53, 80
3, 92828, Note_off_c, 1, 53, 100
3, 92832, Note_on_c, 1, 53, 80
3, 92924, Note_off_c, 1, 53, 100
3, 92928, Note_on_c, 1, 53, 80
3, 93020, Note_off_c, 1, 53, 100
3, 93024, Note_on_c, 1, 53, 80
3, 93116, Note_off_c, 1, 53, 100
3, 93120, Note_on_c, 1, 53, 80
3, 93212, Note_off_c, 1, 53, 100
3, 93216, Note_on_c, 1, 53, 80
3, 93308, Note_off_c, 1, 51, 100
3, 93308, Note_off_c, 1, 45, 100
3, 93308, Note_off_c, 1, 53, 100
3, 93312, Note_on_c, 1, 45, 80
3, 93408, Note_on_c, 1, 53, 80
3, 93500, Note_off_c, 1, 45, 100
3, 93500, Note_off_c, 1, 53, 100
3, 93504, Note_on_c, 1, 51, 80
3, 93600, Note_on_c, 1, 53, 80
3, 93692, Note_off_c, 1, 51, 100
3, 93692, Note_off_c, 1, 53, 100
3, 93696, Note_on_c, 1, 50, 80
3, 93792, Note_on_c, 1, 53, 80
3, 93884, Note_off_c, 1, 50, 100
3, 93884, Note_off_c, 1, 53, 100
3, 93888, Note_on_c, 1, 45, 80
3, 93984, Note_on_c, 1, 53, 80
3, 94076, Note_off_c, 1, 45, 100
3, 94076, Note_off_c, 1, 53, 100
3, 94080, Note_on_c, 1, 46, 80
3, 94176, Note_on_c, 1, 53, 80
3, 94268, Note_off_c, 1, 53, 100
3, 94272, Note_on_c, 1, 53, 80
3, 94364, Note_off_c, 1, 53, 100
3, 94368, Note_on_c, 1, 53, 80
3, 94460, Note_off_c, 1, 53, 100
3, 94464, Note_on_c, 1, 53, 80
3, 94556, Note_off_c, 1, 53, 100
3, 94560, Note_on_c, 1, 53, 80
3, 94652, Note_off_c, 1, 46, 100
3, 94652, Note_off_c, 1, 53, 100
3, 94656, Note_on_c, 1, 53, 80
3, 94656, Note_on_c, 1, 47, 80
3, 94748, Note_off_c, 1, 53, 100
3, 94752, Note_on_c, 1, 53, 80
3, 94844, Note_off_c, 1, 47, 100
3, 94844, Note_off_c, 1, 53, 100
3, 94848, Note_on_c, 1, 48, 80
3, 94944, Note_on_c, 1, 53, 80
3, 95036, Note_off_c, 1, 48, 100
3, 95036, Note_off_c, 1, 53, 100
3, 95040, Note_on_c, 1, 45, 80
3, 95136, Note_on_c, 1, 53, 80
3, 95228, Note_off_c, 1, 45, 100
3, 95228, Note_off_c, 1, 53, 100
3, 95232, Note_on_c, 1, 46, 80
3, 95328, Note_on_c, 1, 53, 80
3, 95420, Note_off_c, 1, 46, 100
3, 95420, Note_off_c, 1, 53, 100
3, 95424, Note_on_c, 1, 47, 80
3, 95520, Note_on_c, 1, 53, 80
3, 95612, Note_off_c, 1, 47, 100
3, 95612, Note_off_c, 1, 53, 100
3, 95616, Note_on_c, 1, 48, 80
3, 95712, Note_on_c, 1, 53, 80
3, 95804, Note_off_c, 1, 48, 100
3, 95804, Note_off_c, 1, 53, 100
3, 95808, Note_on_c, 1, 45, 80
3, 95904, Note_on_c, 1, 53, 80
3, 95996, Note_off_c, 1, 45, 100
3, 95996, Note_off_c, 1, 53, 100
3, 96000, Note_on_c, 1, 46, 80
3, 96096, Note_on_c, 1, 53, 80
3, 96188, Note_off_c, 1, 46, 100
3, 96188, Note_off_c, 1, 53, 100
3, 96192, Note_on_c, 1, 44, 80
3, 96288, Note_on_c, 1, 46, 80
3, 96380, Note_off_c, 1, 44, 100
3, 96380, Note_off_c, 1, 46, 100
3, 96384, Note_on_c, 1, 43, 80
3, 96480, Note_on_c, 1, 46, 80
3, 96572, Note_off_c, 1, 43, 100
3, 96572, Note_off_c, 1, 46, 100
3, 96576, Note_on_c, 1, 39, 80
3, 96672, Note_on_c, 1, 51, 80
3, 96764, Note_off_c, 1, 39, 100
3, 96764, Note_off_c, 1, 51, 100
3, 96768, Note_on_c, 1, 41, 80
3, 96864, Note_on_c, 1, 50, 80
3, 96956, Note_off_c, 1, 41, 100
3, 96956, Note_off_c, 1, 50, 100
3, 96960, Note_on_c, 1, 41, 80
3, 97056, Note_on_c, 1, 45, 80
3, 97148, Note_off_c, 1, 41, 100
3, 97148, Note_off_c, 1, 45, 100
3, 97152, Note_on_c, 1, 34, 80
3, 97244, Note_off_c, 1, 34, 100
3, 97248, Note_on_c, 1, 46, 80
3, 97344, Note_on_c, 1, 58, 80
3, 97436, Note_off_c, 1, 58, 100
3, 97440, Note_on_c, 1, 58, 80
3, 97532, Note_off_c, 1, 58, 100
3, 97536, Note_on_c, 1, 58, 80
3, 97628, Note_off_c, 1, 58, 100
3, 97632, Note_on_c, 1, 58, 80
3, 97724, Note_off_c, 1, 46, 100
3, 97724, Note_off_c, 1, 58, 100
3, 97728, Note_on_c, 1, 56, 80
3, 97824, Note_on_c, 1, 58, 80
3, 97916, Note_off_c, 1, 56, 100
3, 97916, Note_off_c, 1, 58, 100
3, 97920, Note_on_c, 1, 55, 80
3, 98016, Note_on_c, 1, 58, 80
3, 98108, Note_off_c, 1, 55, 100
3, 98108, Note_off_c, 1, 58, 100
3, 98112, Note_on_c, 1, 51, 80
3, 98208, Note_on_c, 1, 63, 80
3, 98300, Note_off_c, 1, 51, 100
3, 98300, Note_off_c, 1, 63, 100
3, 98304, Note_on_c, 1, 53, 80
3, 98400, Note_on_c, 1, 62, 80
3, 98492, Note_off_c, 1, 53, 100
3, 98492, Note_off_c, 1, 62, 100
3, 98496, Note_on_c, 1, 53, 80
3, 98592, Note_on_c, 1, 57, 80
3, 98684, Note_off_c, 1, 53, 100
3, 98684, Note_off_c, 1, 57, 100
3, 98688, Note_on_c, 1, 58, 80
3, 98688, Note_on_c, 1, 46, 80
3, 98876, Note_off_c, 1, 58, 100
3, 98876, Note_off_c, 1, 46, 100
3, 99072, Note_on_c, 1, 62, 95
3, 99072, Note_on_c, 1, 58, 95
3, 99452, Note_off_c, 1, 62, 100
3, 99452, Note_off_c, 1, 58, 100
3, 99456, Note_on_c, 1, 60, 80
3, 99456, Note_on_c, 1, 51, 80
3, 100028, Note_off_c, 1, 60, 100
3, 100028, Note_off_c, 1, 51, 100
3, 100032, Note_on_c, 1, 60, 80
3, 100032, Note_on_c, 1, 53, 80
3, 100220, Note_off_c, 1, 60, 100
3, 100220, Note_off_c, 1, 53, 100
3, 100224, Note_on_c, 1, 58, 80
3, 100224, Note_on_c, 1, 46, 80
3, 100604, Note_off_c, 1, 58, 100
3, 100604, Note_off_c, 1, 46, 100
3, 100608, Note_on_c, 1, 58, 80
3, 100608, Note_on_c, 1, 62, 80
3, 100988, Note_off_c, 1, 58, 100
3, 100988, Note_off_c, 1, 62, 100
3, 100992, Note_on_c, 1, 55, 80
3, 100992, Note_on_c, 1, 52, 80
3, 101372, Note_off_c, 1, 55, 100
3, 101372, Note_off_c, 1, 52, 100
3, 101376, Note_on_c, 1, 60, 80
3, 101376, Note_on_c, 1, 48, 80
3, 101756, Note_off_c, 1, 60, 100
3, 101756, Note_off_c, 1, 48, 100
3, 101760, Note_on_c, 1, 60, 80
3, 101760, Note_on_c, 1, 53, 80
3, 102140, Note_off_c, 1, 60, 100
3, 102140, Note_off_c, 1, 53, 100
3, 102144, Note_on_c, 1, 58, 80
3, 102144, Note_on_c, 1, 62, 80
3, 102524, Note_off_c, 1, 58, 100
3, 102524, Note_off_c, 1, 62, 100
3, 102528, Note_on_c, 1, 60, 80
3, 102528, Note_on_c, 1, 57, 80
3, 102908, Note_off_c, 1, 60, 100
3, 102908, Note_off_c, 1, 57, 100
3, 102912, Note_on_c, 1, 53, 80
3, 102912, Note_on_c, 1, 65, 80
3, 103292, Note_off_c, 1, 53, 100
3, 103292, Note_off_c, 1, 65, 100
3, 103296, Note_on_c, 1, 58, 80
3, 103296, Note_on_c, 1, 65, 80
3, 103676, Note_off_c, 1, 58, 100
3, 103676, Note_off_c, 1, 65, 100
3, 103680, Note_on_c, 1, 50, 80
3, 103728, Note_on_c, 1, 58, 80
3, 103776, Note_on_c, 1, 62, 81
3, 104060, Note_off_c, 1, 50, 100
3, 104060, Note_off_c, 1, 58, 100
3, 104060, Note_off_c, 1, 62, 100
3, 104064, Note_on_c, 1, 51, 87
3, 104112, Note_on_c, 1, 58, 88
3, 104160, Note_on_c, 1, 62, 89
3, 104444, Note_off_c, 1, 51, 100
3, 104444, Note_off_c, 1, 58, 100
3, 104444, Note_off_c, 1, 62, 100
3, 104448, Note_on_c, 1, 53, 95
3, 104496, Note_on_c, 1, 58, 96
3, 104544, Note_on_c, 1, 62, 97
3, 104828, Note_off_c, 1, 53, 100
3, 104828, Note_off_c, 1, 58, 100
3, 104828, Note_off_c, 1, 62, 100
3, 104832, Note_on_c, 1, 55, 103
3, 104880, Note_on_c, 1, 58, 104
3, 104928, Note_on_c, 1, 62, 105
3, 105212, Note_off_c, 1, 55, 100
3, 105212, Note_off_c, 1, 58, 100
3, 105212, Note_off_c, 1, 62, 100
3, 105216, Note_on_c, 1, 70, 110
3, 105216, Note_on_c, 1, 65, 110
3, 105216, Note_on_c, 1, 62, 110
3, 105404, Note_off_c, 1, 70, 100
3, 105404, Note_off_c, 1, 65, 100
3, 105404, Note_off_c, 1, 62, 100
3, 105408, Note_on_c, 1, 64, 110
3, 105408, Note_on_c, 1, 67, 110
3, 105408, Note_on_c, 1, 70, 110
3, 105596, Note_off_c, 1, 64, 100
3, 105596, Note_off_c, 1, 67, 100
3, 105600, Note_on_c, 1, 65, 110
3, 105788, Note_off_c, 1, 70, 100
3, 105792, Note_on_c, 1, 69, 110
3, 105980, Note_off_c, 1, 65, 100
3, 105980, Note_off_c, 1, 69, 100
3, 105984, Note_on_c, 1, 67, 110
3, 105984, Note_on_c, 1, 62, 110
3, 105984, Note_on_c, 1, 58, 110
3, 106172, Note_off_c, 1, 67, 100
3, 106172, Note_off_c, 1, 62, 100
3, 106172, Note_off_c, 1, 58, 100
3, 106176, Note_on_c, 1, 61, 110
3, 106176, Note_on_c, 1, 67, 110
3, 106176, Note_on_c, 1, 64, 110
3, 106364, Note_off_c, 1, 61, 100
3, 106368, Note_on_c, 1, 62, 110
3, 106556, Note_off_c, 1, 64, 100
3, 106556, Note_off_c, 1, 67, 100
3, 106560, Note_on_c, 1, 65, 110
3, 106652, Note_off_c, 1, 62, 100
3, 106748, Note_off_c, 1, 65, 100
3, 106752, Note_on_c, 1, 55, 110
3, 106752, Note_on_c, 1, 58, 110
3, 106752, Note_on_c, 1, 63, 110
3, 106940, Note_off_c, 1, 55, 100
3, 106940, Note_off_c, 1, 58, 100
3, 106940, Note_off_c, 1, 63, 100
3, 106944, Note_on_c, 1, 57, 110
3, 106944, Note_on_c, 1, 60, 110
3, 106944, Note_on_c, 1, 63, 110
3, 107132, Note_off_c, 1, 57, 100
3, 107132, Note_off_c, 1, 60, 100
3, 107136, Note_on_c, 1, 58, 110
3, 107228, Note_off_c, 1, 63, 100
3, 107232, Note_on_c, 1, 62, 110
3, 107324, Note_off_c, 1, 58, 100
3, 107328, Note_on_c, 1, 51, 110
3, 107420, Note_off_c, 1, 62, 100
3, 107424, Note_on_c, 1, 60, 110
3, 107516, Note_off_c, 1, 51, 100
3, 107520, Note_on_c, 1, 53, 110
3, 107612, Note_off_c, 1, 60, 100
3, 107616, Note_on_c, 1, 58, 110
3, 107708, Note_off_c, 1, 53, 100
3, 107712, Note_on_c, 1, 53, 110
3, 107804, Note_off_c, 1, 58, 100
3, 107808, Note_on_c, 1, 57, 110
3, 107900, Note_off_c, 1, 53, 100
3, 107904, Note_on_c, 1, 46, 110
3, 108092, Note_off_c, 1, 57, 100
3, 108096, Note_on_c, 1, 58, 110
3, 108188, Note_off_c, 1, 46, 100
3, 108284, Note_off_c, 1, 58, 100
3, 108288, Note_on_c, 1, 46, 110
3, 108288, Note_on_c, 1, 53, 110
3, 108476, Note_off_c, 1, 53, 100
3, 108480, Note_on_c, 1, 55, 110
3, 108668, Note_off_c, 1, 46, 100
3, 108672, Note_on_c, 1, 45, 110
3, 108860, Note_off_c, 1, 55, 100
3, 108864, Note_on_c, 1, 57, 110
3, 109052, Note_off_c, 1, 45, 100
3, 109052, Note_off_c, 1, 57, 100
3, 109056, Note_on_c, 1, 43, 110
3, 109248, Note_on_c, 1, 52, 110
3, 109436, Note_off_c, 1, 43, 100
3, 109440, Note_on_c, 1, 41, 110
3, 109628, Note_off_c, 1, 52, 100
3, 109632, Note_on_c, 1, 53, 110
3, 109820, Note_off_c, 1, 41, 100
3, 109820, Note_off_c, 1, 53, 100
3, 109824, Note_on_c, 1, 39, 110
3, 109824, Note_on_c, 1, 46, 110
3, 110012, Note_off_c, 1, 46, 100
3, 110016, Note_on_c, 1, 48, 110
3, 110204, Note_off_c, 1, 39, 100
3, 110204, Note_off_c, 1, 48, 100
3, 110208, Note_on_c, 1, 50, 110
3, 110208, Note_on_c, 1, 38, 110
3, 110396, Note_off_c, 1, 50, 100
3, 110396, Note_off_c, 1, 38, 100
3, 110400, Note_on_c, 1, 39, 80
3, 110588, Note_off_c, 1, 39, 100
3, 110592, Note_on_c, 1, 41, 80
3, 110780, Note_off_c, 1, 41, 100
3, 110784, Note_on_c, 1, 29, 80
3, 110972, Note_off_c, 1, 29, 100
3, 110976, Note_on_c, 1, 34, 80
3, 111164, Note_off_c, 1, 34, 100
3, 111168, Note_on_c, 1, 46, 80
3, 111360, Note_on_c, 1, 50, 80
3, 111552, Note_on_c, 1, 53, 80
3, 111740, Note_off_c, 1, 46, 100
3, 111740, Note_off_c, 1, 50, 100
3, 111740, Note_off_c, 1, 53, 100
3, 111744, Note_on_c, 1, 48, 80
3, 111744, Note_on_c, 1, 46, 80
3, 111936, Note_on_c, 1, 51, 80
3, 112128, Note_on_c, 1, 53, 80
3, 112320, Note_on_c, 1, 57, 80
3, 112508, Note_off_c, 1, 48, 100
3, 112508, Note_off_c, 1, 46, 100
3, 112508, Note_off_c, 1, 51, 100
3, 112508, Note_off_c, 1, 53, 100
3, 112508, Note_off_c, 1, 57, 100
3, 112512, Note_on_c, 1, 34, 80
3, 112700, Note_off_c, 1, 34, 100
3, 112704, Note_on_c, 1, 46, 80
3, 112896, Note_on_c, 1, 50, 80
3, 113088, Note_on_c, 1, 53, 80
3, 113276, Note_off_c, 1, 46, 100
3, 113276, Note_off_c, 1, 50, 100
3, 113276, Note_off_c, 1, 53, 100
3, 113280, Note_on_c, 1, 48, 80
3, 113280, Note_on_c, 1, 46, 80
3, 113472, Note_on_c, 1, 51, 80
3, 113664, Note_on_c, 1, 53, 80
3, 113856, Note_on_c, 1, 57, 80
3, 114044, Note_off_c, 1, 48, 100
3, 114044, Note_off_c, 1, 46, 100
3, 114044, Note_off_c, 1, 51, 100
3, 114044, Note_off_c, 1, 53, 100
3, 114044, Note_off_c, 1, 57, 100
3, 114048, Control_c, 1, 64, 127
3, 114048, Note_on_c, 1, 34, 80
3, 114236, Note_off_c, 1, 34, 100
3, 114240, Note_on_c, 1, 46, 81
3, 114432, Note_on_c, 1, 50, 83
3, 114624, Note_on_c, 1, 53, 85
3, 114808, Control_c, 1, 64, 0
3, 114812, Note_off_c, 1, 46, 100
3, 114812, Note_off_c, 1, 50, 100
3, 114812, Note_off_c, 1, 53, 100
3, 114816, Control_c, 1, 64, 127
3, 114816, Note_on_c, 1, 32, 87
3, 115004, Note_off_c, 1, 32, 100
3, 115008, Note_on_c, 1, 44, 89
3, 115200, Note_on_c, 1, 50, 91
3, 115392, Note_on_c, 1, 53, 93
3, 115576, Control_c, 1, 64, 0
3, 115580, Note_off_c, 1, 44, 100
3, 115580, Note_off_c, 1, 50, 100
3, 115580, Note_off_c, 1, 53, 100
3, 115584, Control_c, 1, 64, 127
3, 115584, Note_on_c, 1, 31, 95
3, 115772, Note_off_c, 1, 31, 100
3, 115776, Note_on_c, 1, 43, 96
3, 115968, Note_on_c, 1, 46, 98
3, 116160, Note_on_c, 1, 51, 100
3, 116344, Control_c, 1, 64, 0
3, 116348, Note_off_c, 1, 43, 100
3, 116348, Note_off_c, 1, 46, 100
3, 116348, Note_off_c, 1, 51, 100
3, 116352, Control_c, 1, 64, 127
3, 116352, Note_on_c, 1, 38, 102
3, 116400, Note_on_c, 1, 41, 103
3, 116444, Note_off_c, 1, 38, 100
3, 116448, Note_on_c, 1, 44, 103
3, 116492, Note_off_c, 1, 41, 100
3, 116496, Note_on_c, 1, 46, 103
3, 116540, Note_off_c, 1, 44, 100
3, 116544, Note_on_c, 1, 50, 104
3, 116588, Note_off_c, 1, 46, 100
3, 116592, Note_on_c, 1, 53, 104
3, 116636, Note_off_c, 1, 50, 100
3, 116640, Note_on_c, 1, 56, 105
3, 116684, Note_off_c, 1, 53, 100
3, 116688, Note_on_c, 1, 58, 105
3, 116732, Note_off_c, 1, 56, 100
3, 116780, Note_off_c, 1, 58, 100
3, 117112, Control_c, 1, 64, 0
3, 117120, Note_on_c, 1, 63, 80
3, 117216, Note_on_c, 1, 70, 80
3, 117308, Note_off_c, 1, 63, 100
3, 117308, Note_off_c, 1, 70, 100
3, 117312, Note_on_c, 1, 67, 80
3, 117408, Note_on_c, 1, 70, 80
3, 117500, Note_off_c, 1, 67, 100
3, 117500, Note_off_c, 1, 70, 100
3, 117504, Note_on_c, 1, 65, 80
3, 117504, Note_on_c, 1, 68, 80
3, 117596, Note_off_c, 1, 68, 100
3, 117600, Note_on_c, 1, 70, 80
3, 117692, Note_off_c, 1, 65, 100
3, 117692, Note_off_c, 1, 70, 100
3, 117696, Note_on_c, 1, 63, 80
3, 117696, Note_on_c, 1, 67, 80
3, 117788, Note_off_c, 1, 67, 100
3, 117792, Note_on_c, 1, 70, 80
3, 117884, Note_off_c, 1, 63, 100
3, 117884, Note_off_c, 1, 70, 100
3, 117888, Note_on_c, 1, 68, 80
3, 117888, Note_on_c, 1, 62, 80
3, 117984, Note_on_c, 1, 70, 80
3, 118076, Note_off_c, 1, 70, 100
3, 118080, Note_on_c, 1, 70, 80
3, 118172, Note_off_c, 1, 70, 100
3, 118176, Note_on_c, 1, 70, 80
3, 118268, Note_off_c, 1, 70, 100
3, 118272, Note_on_c, 1, 70, 80
3, 118364, Note_off_c, 1, 70, 100
3, 118368, Note_on_c, 1, 70, 80
3, 118460, Note_off_c, 1, 70, 100
3, 118464, Note_on_c, 1, 70, 80
3, 118556, Note_off_c, 1, 70, 100
3, 118560, Note_on_c, 1, 70, 80
3, 118652, Note_off_c, 1, 68, 100
3, 118652, Note_off_c, 1, 62, 100
3, 118652, Note_off_c, 1, 70, 100
3, 118656, Note_on_c, 1, 62, 80
3, 118752, Note_on_c, 1, 70, 80
3, 118844, Note_off_c, 1, 62, 100
3, 118844, Note_off_c, 1, 70, 100
3, 118848, Note_on_c, 1, 69, 80
3, 118944, Note_on_c, 1, 70, 80
3, 119036, Note_off_c, 1, 69, 100
3, 119036, Note_off_c, 1, 70, 100
3, 119040, Note_on_c, 1, 67, 80
3, 119136, Note_on_c, 1, 70, 80
3, 119228, Note_off_c, 1, 67, 100
3, 119228, Note_off_c, 1, 70, 100
3, 119232, Note_on_c, 1, 62, 80
3, 119328, Note_on_c, 1, 70, 80
3, 119420, Note_off_c, 1, 62, 100
3, 119420, Note_off_c, 1, 70, 100
3, 119424, Note_on_c, 1, 63, 80
3, 119520, Note_on_c, 1, 70, 80
3, 119612, Note_off_c, 1, 63, 100
3, 119612, Note_off_c, 1, 70, 100
3, 119616, Note_on_c, 1, 63, 80
3, 119712, Note_on_c, 1, 71, 80
3, 119804, Note_off_c, 1, 63, 100
3, 119804, Note_off_c, 1, 71, 100
3, 119808, Note_on_c, 1, 63, 80
3, 119904, Note_on_c, 1, 72, 80
3, 119996, Note_off_c, 1, 63, 100
3, 119996, Note_off_c, 1, 72, 100
3, 120288, Note_on_c, 1, 67, 80
3, 120380, Note_off_c, 1, 67, 100
3, 120384, Note_on_c, 1, 63, 80
3, 120480, Note_on_c, 1, 67, 80
3, 120572, Note_off_c, 1, 63, 100
3, 120572, Note_off_c, 1, 67, 100
3, 120576, Note_on_c, 1, 62, 80
3, 120576, Note_on_c, 1, 65, 80
3, 120668, Note_off_c, 1, 65, 100
3, 120672, Note_on_c, 1, 67, 80
3, 120764, Note_off_c, 1, 62, 100
3, 120764, Note_off_c, 1, 67, 100
3, 120768, Note_on_c, 1, 60, 80
3, 120768, Note_on_c, 1, 63, 80
3, 120860, Note_off_c, 1, 63, 100
3, 120864, Note_on_c, 1, 67, 80
3, 120956, Note_off_c, 1, 60, 100
3, 120956, Note_off_c, 1, 67, 100
3, 120960, Note_on_c, 1, 65, 80
3, 120960, Note_on_c, 1, 59, 80
3, 121056, Note_on_c, 1, 67, 80
3, 121148, Note_off_c, 1, 67, 100
3, 121152, Note_on_c, 1, 67, 80
3, 121244, Note_off_c, 1, 67, 100
3, 121248, Note_on_c, 1, 67, 80
3, 121340, Note_off_c, 1, 67, 100
3, 121344, Note_on_c, 1, 67, 80
3, 121436, Note_off_c, 1, 65, 100
3, 121436, Note_off_c, 1, 59, 100
3, 121436, Note_off_c, 1, 67, 100
3, 122208, Note_on_c, 1, 67, 80
3, 122300, Note_off_c, 1, 67, 100
3, 122304, Note_on_c, 1, 68, 80
3, 122396, Note_off_c, 1, 68, 100
3, 122400, Note_on_c, 1, 67, 80
3, 122492, Note_off_c, 1, 67, 100
3, 122496, Note_on_c, 1, 65, 80
3, 122588, Note_off_c, 1, 65, 100
3, 122592, Note_on_c, 1, 63, 80
3, 122684, Note_off_c, 1, 63, 100
3, 122688, Note_on_c, 1, 62, 80
3, 122780, Note_off_c, 1, 62, 100
3, 122784, Note_on_c, 1, 60, 80
3, 122876, Note_off_c, 1, 60, 100
3, 122976, Note_on_c, 1, 63, 80
3, 123068, Note_off_c, 1, 63, 100
3, 123072, Note_on_c, 1, 65, 80
3, 123164, Note_off_c, 1, 65, 100
3, 123168, Note_on_c, 1, 63, 80
3, 123260, Note_off_c, 1, 63, 100
3, 123264, Note_on_c, 1, 62, 80
3, 123356, Note_off_c, 1, 62, 100
3, 123360, Note_on_c, 1, 60, 80
3, 123452, Note_off_c, 1, 60, 100
3, 123456, Note_on_c, 1, 58, 80
3, 123548, Note_off_c, 1, 58, 100
3, 123552, Note_on_c, 1, 57, 80
3, 123644, Note_off_c, 1, 57, 100
3, 123648, Note_on_c, 1, 55, 80
3, 123740, Note_off_c, 1, 55, 100
3, 123744, Note_on_c, 1, 53, 80
3, 123836, Note_off_c, 1, 53, 100
3, 123840, Note_on_c, 1, 51, 80
3, 123932, Note_off_c, 1, 51, 100
3, 123936, Note_on_c, 1, 50, 80
3, 124028, Note_off_c, 1, 50, 100
3, 124032, Note_on_c, 1, 48, 80
3, 124124, Note_off_c, 1, 48, 100
3, 124128, Note_on_c, 1, 46, 80
3, 124220, Note_off_c, 1, 46, 100
3, 124224, Note_on_c, 1, 45, 80
3, 124316, Note_off_c, 1, 45, 100
3, 124320, Note_on_c, 1, 43, 80
3, 124412, Note_off_c, 1, 43, 100
3, 124416, Note_on_c, 1, 41, 80
3, 126332, Note_off_c, 1, 41, 100
3, 126336, Note_on_c, 1, 46, 80
3, 126428, Note_off_c, 1, 46, 100
3, 126432, Note_on_c, 1, 65, 80
3, 126524, Note_off_c, 1, 65, 100
3, 126528, Note_on_c, 1, 62, 80
3, 126624, Note_on_c, 1, 65, 80
3, 126716, Note_off_c, 1, 62, 100
3, 126716, Note_off_c, 1, 65, 100
3, 126720, Note_on_c, 1, 60, 80
3, 126816, Note_on_c, 1, 65, 80
3, 126908, Note_off_c, 1, 60, 100
3, 126908, Note_off_c, 1, 65, 100
3, 126912, Note_on_c, 1, 58, 80
3, 127008, Note_on_c, 1, 65, 80
3, 127100, Note_off_c, 1, 58, 100
3, 127100, Note_off_c, 1, 65, 100
3, 127104, Note_on_c, 1, 63, 80
3, 127104, Note_on_c, 1, 57, 80
3, 127200, Note_on_c, 1, 65, 80
3, 127292, Note_off_c, 1, 65, 100
3, 127296, Note_on_c, 1, 65, 80
3, 127388, Note_off_c, 1, 65, 100
3, 127392, Note_on_c, 1, 65, 80
3, 127484, Note_off_c, 1, 65, 100
3, 127488, Note_on_c, 1, 65, 80
3, 127580, Note_off_c, 1, 65, 100
3, 127584, Note_on_c, 1, 65, 80
3, 127676, Note_off_c, 1, 65, 100
3, 127680, Note_on_c, 1, 65, 80
3, 127772, Note_off_c, 1, 65, 100
3, 127776, Note_on_c, 1, 65, 80
3, 127868, Note_off_c, 1, 63, 100
3, 127868, Note_off_c, 1, 57, 100
3, 127868, Note_off_c, 1, 65, 100
3, 127872, Note_on_c, 1, 57, 80
3, 127968, Note_on_c, 1, 65, 80
3, 128060, Note_off_c, 1, 57, 100
3, 128060, Note_off_c, 1, 65, 100
3, 128064, Note_on_c, 1, 63, 80
3, 128160, Note_on_c, 1, 65, 80
3, 128252, Note_off_c, 1, 63, 100
3, 128252, Note_off_c, 1, 65, 100
3, 128256, Note_on_c, 1, 62, 80
3, 128352, Note_on_c, 1, 65, 80
3, 128444, Note_off_c, 1, 62, 100
3, 128444, Note_off_c, 1, 65, 100
3, 128448, Note_on_c, 1, 57, 80
3, 128544, Note_on_c, 1, 65, 80
3, 128636, Note_off_c, 1, 57, 100
3, 128636, Note_off_c, 1, 65, 100
3, 128640, Note_on_c, 1, 58, 80
3, 128736, Note_on_c, 1, 65, 80
3, 128828, Note_off_c, 1, 65, 100
3, 128832, Note_on_c, 1, 65, 80
3, 128924, Note_off_c, 1, 65, 100
3, 128928, Note_on_c, 1, 65, 80
3, 129020, Note_off_c, 1, 65, 100
3, 129024, Note_on_c, 1, 65, 80
3, 129116, Note_off_c, 1, 65, 100
3, 129120, Note_on_c, 1, 65, 80
3, 129212, Note_off_c, 1, 58, 100
3, 129212, Note_off_c, 1, 65, 100
3, 129216, Note_on_c, 1, 59, 80
3, 129216, Note_on_c, 1, 65, 80
3, 129308, Note_off_c, 1, 65, 100
3, 129312, Note_on_c, 1, 65, 80
3, 129404, Note_off_c, 1, 59, 100
3, 129404, Note_off_c, 1, 65, 100
3, 129408, Note_on_c, 1, 60, 80
3, 129504, Note_on_c, 1, 65, 80
3, 129596, Note_off_c, 1, 60, 100
3, 129596, Note_off_c, 1, 65, 100
3, 129600, Note_on_c, 1, 57, 80
3, 129696, Note_on_c, 1, 65, 80
3, 129788, Note_off_c, 1, 57, 100
3, 129788, Note_off_c, 1, 65, 100
3, 129792, Note_on_c, 1, 58, 80
3, 129888, Note_on_c, 1, 65, 80
3, 129980, Note_off_c, 1, 58, 100
3, 129980, Note_off_c, 1, 65, 100
3, 129984, Note_on_c, 1, 58, 80
3, 130080, Note_on_c, 1, 65, 80
3, 130172, Note_off_c, 1, 58, 100
3, 130172, Note_off_c, 1, 65, 100
3, 130176, Note_on_c, 1, 60, 80
3, 130272, Note_on_c, 1, 65, 80
3, 130364, Note_off_c, 1, 60, 100
3, 130364, Note_off_c, 1, 65, 100
3, 130368, Note_on_c, 1, 57, 80
3, 130464, Note_on_c, 1, 65, 80
3, 130556, Note_off_c, 1, 57, 100
3, 130556, Note_off_c, 1, 65, 100
3, 130560, Note_on_c, 1, 58, 80
3, 130656, Note_on_c, 1, 62, 80
3, 130748, Note_off_c, 1, 58, 100
3, 130748, Note_off_c, 1, 62, 100
3, 130752, Note_on_c, 1, 57, 80
3, 130848, Note_on_c, 1, 60, 80
3, 130940, Note_off_c, 1, 57, 100
3, 130940, Note_off_c, 1, 60, 100
3, 130944, Note_on_c, 1, 55, 80
3, 131040, Note_on_c, 1, 58, 80
3, 131132, Note_off_c, 1, 55, 100
3, 131132, Note_off_c, 1, 58, 100
3, 131136, Note_on_c, 1, 55, 80
3, 131232, Note_on_c, 1, 58, 80
3, 131324, Note_off_c, 1, 55, 100
3, 131324, Note_off_c, 1, 58, 100
3, 131328, Note_on_c, 1, 48, 80
3, 131424, Note_on_c, 1, 58, 80
3, 131516, Note_off_c, 1, 48, 100
3, 131516, Note_off_c, 1, 58, 100
3, 131520, Note_on_c, 1, 48, 80
3, 131616, Note_on_c, 1, 58, 80
3, 131708, Note_off_c, 1, 48, 100
3, 131712, Note_on_c, 1, 53, 80
3, 131804, Note_off_c, 1, 58, 100
3, 131808, Note_on_c, 1, 58, 80
3, 131900, Note_off_c, 1, 58, 100
3, 131904, Note_on_c, 1, 57, 80
3, 131996, Note_off_c, 1, 57, 100
3, 132000, Note_on_c, 1, 55, 80
3, 132092, Note_off_c, 1, 55, 100
3, 132096, Note_on_c, 1, 57, 80
3, 132284, Note_off_c, 1, 53, 100
3, 132284, Note_off_c, 1, 57, 100
3, 132480, Note_on_c, 1, 46, 80
3, 132576, Note_on_c, 1, 53, 80
3, 132668, Note_off_c, 1, 46, 100
3, 132668, Note_off_c, 1, 53, 100
3, 132672, Note_on_c, 1, 50, 80
3, 132768, Note_on_c, 1, 53, 80
3, 132860, Note_off_c, 1, 50, 100
3, 132860, Note_off_c, 1, 53, 100
3, 132864, Note_on_c, 1, 48, 80
3, 132864, Note_on_c, 1, 51, 80
3, 132956, Note_off_c, 1, 51, 100
3, 132960, Note_on_c, 1, 53, 80
3, 133052, Note_off_c, 1, 48, 100
3, 133052, Note_off_c, 1, 53, 100
3, 133056, Note_on_c, 1, 46, 80
3, 133056, Note_on_c, 1, 50, 80
3, 133148, Note_off_c, 1, 50, 100
3, 133152, Note_on_c, 1, 53, 80
3, 133244, Note_off_c, 1, 46, 100
3, 133244, Note_off_c, 1, 53, 100
3, 133248, Note_on_c, 1, 51, 80
3, 133248, Note_on_c, 1, 45, 80
3, 133344, Note_on_c, 1, 53, 80
3, 133436, Note_off_c, 1, 53, 100
3, 133440, Note_on_c, 1, 53, 80
3, 133532, Note_off_c, 1, 53, 100
3, 133536, Note_on_c, 1, 53, 80
3, 133628, Note_off_c, 1, 53, 100
3, 133632, Note_on_c, 1, 53, 80
3, 133724, Note_off_c, 1, 53, 100
3, 133728, Note_on_c, 1, 53, 80
3, 133820, Note_off_c, 1, 53, 100
3, 133824, Note_on_c, 1, 53, 80
3, 133916, Note_off_c, 1, 53, 100
3, 133920, Note_on_c, 1, 53, 80
3, 134012, Note_off_c, 1, 51, 100
3, 134012, Note_off_c, 1, 45, 100
3, 134012, Note_off_c, 1, 53, 100
3, 134016, Note_on_c, 1, 45, 80
3, 134112, Note_on_c, 1, 53, 80
3, 134204, Note_off_c, 1, 45, 100
3, 134204, Note_off_c, 1, 53, 100
3, 134208, Note_on_c, 1, 51, 80
3, 134304, Note_on_c, 1, 53, 80
3, 134396, Note_off_c, 1, 51, 100
3, 134396, Note_off_c, 1, 53, 100
3, 134400, Note_on_c, 1, 50, 80
3, 134496, Note_on_c, 1, 53, 80
3, 134588, Note_off_c, 1, 50, 100
3, 134588, Note_off_c, 1, 53, 100
3, 134592, Note_on_c, 1, 45, 80
3, 134688, Note_on_c, 1, 53, 80
3, 134780, Note_off_c, 1, 45, 100
3, 134780, Note_off_c, 1, 53, 100
3, 134784, Note_on_c, 1, 46, 80
3, 134880, Note_on_c, 1, 53, 80
3, 134972, Note_off_c, 1, 53, 100
3, 134976, Note_on_c, 1, 53, 80
3, 135068, Note_off_c, 1, 53, 100
3, 135072, Note_on_c, 1, 53, 80
3, 135164, Note_off_c, 1, 53, 100
3, 135168, Note_on_c, 1, 53, 80
3, 135260, Note_off_c, 1, 53, 100
3, 135264, Note_on_c, 1, 53, 80
3, 135356, Note_off_c, 1, 46, 100
3, 135356, Note_off_c, 1, 53, 100
3, 135360, Note_on_c, 1, 47, 80
3, 135456, Note_on_c, 1, 53, 80
3, 135548, Note_off_c, 1, 47, 100
3, 135548, Note_off_c, 1, 53, 100
3, 135552, Note_on_c, 1, 48, 80
3, 135648, Note_on_c, 1, 53, 80
3, 135740, Note_off_c, 1, 48, 100
3, 135740, Note_off_c, 1, 53, 100
3, 135744, Note_on_c, 1, 41, 80
3, 135840, Note_on_c, 1, 53, 80
3, 135932, Note_off_c, 1, 41, 100
3, 135932, Note_off_c, 1, 53, 100
3, 135936, Note_on_c, 1, 46, 80
3, 136032, Note_on_c, 1, 53, 80
3, 136124, Note_off_c, 1, 46, 100
3, 136124, Note_off_c, 1, 53, 100
3, 136128, Note_on_c, 1, 46, 80
3, 136224, Note_on_c, 1, 53, 80
3, 136316, Note_off_c, 1, 46, 100
3, 136316, Note_off_c, 1, 53, 100
3, 136320, Note_on_c, 1, 48, 80
3, 136416, Note_on_c, 1, 53, 80
3, 136508, Note_off_c, 1, 48, 100
3, 136508, Note_off_c, 1, 53, 100
3, 136512, Note_on_c, 1, 41, 80
3, 136608, Note_on_c, 1, 53, 80
3, 136700, Note_off_c, 1, 41, 100
3, 136700, Note_off_c, 1, 53, 100
3, 136704, Note_on_c, 1, 46, 80
3, 136800, Note_on_c, 1, 53, 80
3, 136892, Note_off_c, 1, 46, 100
3, 136892, Note_off_c, 1, 53, 100
3, 136896, Note_on_c, 1, 44, 80
3, 136992, Note_on_c, 1, 46, 80
3, 137084, Note_off_c, 1, 44, 100
3, 137084, Note_off_c, 1, 46, 100
3, 137088, Note_on_c, 1, 43, 80
3, 137184, Note_on_c, 1, 46, 80
3, 137276, Note_off_c, 1, 43, 100
3, 137276, Note_off_c, 1, 46, 100
3, 137280, Note_on_c, 1, 39, 80
3, 137376, Note_on_c, 1, 51, 80
3, 137468, Note_off_c, 1, 39, 100
3, 137468, Note_off_c, 1, 51, 100
3, 137472, Note_on_c, 1, 41, 80
3, 137568, Note_on_c, 1, 50, 80
3, 137660, Note_off_c, 1, 41, 100
3, 137660, Note_off_c, 1, 50, 100
3, 137664, Note_on_c, 1, 41, 80
3, 137760, Note_on_c, 1, 45, 80
3, 137852, Note_off_c, 1, 41, 100
3, 137852, Note_off_c, 1, 45, 100
3, 137856, Note_on_c, 1, 34, 80
3, 137948, Note_off_c, 1, 34, 100
3, 137952, Note_on_c, 1, 46, 80
3, 138048, Note_on_c, 1, 58, 80
3, 138140, Note_off_c, 1, 58, 100
3, 138144, Note_on_c, 1, 58, 80
3, 138236, Note_off_c, 1, 58, 100
3, 138240, Note_on_c, 1, 58, 80
3, 138332, Note_off_c, 1, 58, 100
3, 138336, Note_on_c, 1, 58, 80
3, 138428, Note_off_c, 1, 46, 100
3, 138428, Note_off_c, 1, 58, 100
3, 138432, Note_on_c, 1, 56, 80
3, 138528, Note_on_c, 1, 58, 80
3, 138620, Note_off_c, 1, 56, 100
3, 138620, Note_off_c, 1, 58, 100
3, 138624, Note_on_c, 1, 55, 80
3, 138720, Note_on_c, 1, 58, 80
3, 138812, Note_off_c, 1, 55, 100
3, 138812, Note_off_c, 1, 58, 100
3, 138816, Note_on_c, 1, 51, 80
3, 138912, Note_on_c, 1, 63, 80
3, 139004, Note_off_c, 1, 51, 100
3, 139004, Note_off_c, 1, 63, 100
3, 139008, Note_on_c, 1, 53, 80
3, 139104, Note_on_c, 1, 62, 80
3, 139196, Note_off_c, 1, 53, 100
3, 139196, Note_off_c, 1, 62, 100
3, 139200, Note_on_c, 1, 53, 80
3, 139296, Note_on_c, 1, 57, 80
3, 139388, Note_off_c, 1, 53, 100
3, 139388, Note_off_c, 1, 57, 100
3, 139392, Note_on_c, 1, 58, 80
3, 139392, Note_on_c, 1, 46, 80
3, 139580, Note_off_c, 1, 58, 100
3, 139580, Note_off_c, 1, 46, 100
3, 139776, Note_on_c, 1, 65, 80
3, 139776, Note_on_c, 1, 62, 80
3, 140156, Note_off_c, 1, 65, 100
3, 140156, Note_off_c, 1, 62, 100
3, 140160, Note_on_c, 1, 65, 100
3, 140160, Note_on_c, 1, 63, 100
3, 140160, Note_on_c, 1, 60, 100
3, 140540, Note_off_c, 1, 65, 100
3, 140540, Note_off_c, 1, 63, 100
3, 140540, Note_off_c, 1, 60, 100
3, 140544, Note_on_c, 1, 65, 100
3, 140544, Note_on_c, 1, 62, 100
3, 140544, Note_on_c, 1, 58, 100
3, 140924, Note_off_c, 1, 65, 100
3, 140924, Note_off_c, 1, 62, 100
3, 140924, Note_off_c, 1, 58, 100
3, 140928, Note_on_c, 1, 65, 100
3, 140928, Note_on_c, 1, 60, 100
3, 140928, Note_on_c, 1, 57, 100
3, 141308, Note_off_c, 1, 65, 100
3, 141308, Note_off_c, 1, 60, 100
3, 141308, Note_off_c, 1, 57, 100
3, 141312, Note_on_c, 1, 65, 100
3, 141312, Note_on_c, 1, 58, 100
3, 141312, Note_on_c, 1, 56, 100
3, 141692, Note_off_c, 1, 65, 100
3, 141692, Note_off_c, 1, 56, 100
3, 141696, Note_on_c, 1, 63, 100
3, 141696, Note_on_c, 1, 55, 100
3, 141884, Note_off_c, 1, 58, 100
3, 141884, Note_off_c, 1, 63, 100
3, 141884, Note_off_c, 1, 55, 100
3, 141888, Note_on_c, 1, 60, 100
3, 141888, Note_on_c, 1, 58, 100
3, 141888, Note_on_c, 1, 52, 100
3, 142076, Note_off_c, 1, 60, 100
3, 142076, Note_off_c, 1, 58, 100
3, 142076, Note_off_c, 1, 52, 100
3, 142080, Note_on_c, 1, 53, 100
3, 142080, Note_on_c, 1, 58, 100
3, 142080, Note_on_c, 1, 62, 100
3, 142268, Note_off_c, 1, 53, 100
3, 142268, Note_off_c, 1, 58, 100
3, 142268, Note_off_c, 1, 62, 100
3, 142272, Note_on_c, 1, 60, 100
3, 142272, Note_on_c, 1, 57, 100
3, 142272, Note_on_c, 1, 53, 100
3, 142460, Note_off_c, 1, 60, 100
3, 142460, Note_off_c, 1, 57, 100
3, 142460, Note_off_c, 1, 53, 100
3, 142464, Note_on_c, 1, 58, 100
3, 142464, Note_on_c, 1, 46, 100
3, 142652, Note_off_c, 1, 58, 100
3, 142652, Note_off_c, 1, 46, 100
3, 142848, Note_on_c, 1, 62, 100
3, 142896, Note_on_c, 1, 61, 100
3, 142940, Note_off_c, 1, 62, 100
3, 142944, Note_on_c, 1, 62, 100
3, 142988, Note_off_c, 1, 61, 100
3, 142992, Note_on_c, 1, 61, 100
3, 143036, Note_off_c, 1, 62, 100
3, 143040, Note_on_c, 1, 62, 100
3, 143084, Note_off_c, 1, 61, 100
3, 143088, Note_on_c, 1, 65, 100
3, 143132, Note_off_c, 1, 62, 100
3, 143136, Note_on_c, 1, 63, 100
3, 143180, Note_off_c, 1, 65, 100
3, 143184, Note_on_c, 1, 62, 100
3, 143228, Note_off_c, 1, 63, 100
3, 143232, Note_on_c, 1, 60, 100
3, 143276, Note_off_c, 1, 62, 100
3, 143280, Note_on_c, 1, 59, 100
3, 143324, Note_off_c, 1, 60, 100
3, 143328, Note_on_c, 1, 60, 100
3, 143372, Note_off_c, 1, 59, 100
3, 143376, Note_on_c, 1, 59, 100
3, 143420, Note_off_c, 1, 60, 100
3, 143424, Note_on_c, 1, 60, 100
3, 143468, Note_off_c, 1, 59, 100
3, 143472, Note_on_c, 1, 63, 100
3, 143516, Note_off_c, 1, 60, 100
3, 143520, Note_on_c, 1, 62, 100
3, 143564, Note_off_c, 1, 63, 100
3, 143568, Note_on_c, 1, 60, 100
3, 143612, Note_off_c, 1, 62, 100
3, 143616, Note_on_c, 1, 58, 100
3, 143660, Note_off_c, 1, 60, 100
3, 143664, Note_on_c, 1, 57, 100
3, 143708, Note_off_c, 1, 58, 100
3, 143712, Note_on_c, 1, 58, 100
3, 143756, Note_off_c, 1, 57, 100
3, 143760, Note_on_c, 1, 57, 100
3, 143804, Note_off_c, 1, 58, 100
3, 143808, Note_on_c, 1, 58, 100
3, 143852, Note_off_c, 1, 57, 100
3, 143856, Note_on_c, 1, 62, 100
3, 143900, Note_off_c, 1, 58, 100
3, 143904, Note_on_c, 1, 60, 100
3, 143948, Note_off_c, 1, 62, 100
3, 143952, Note_on_c, 1, 58, 100
3, 143996, Note_off_c, 1, 60, 100
3, 144000, Note_on_c, 1, 57, 100
3, 144044, Note_off_c, 1, 58, 100
3, 144048, Note_on_c, 1, 56, 100
3, 144092, Note_off_c, 1, 57, 100
3, 144096, Note_on_c, 1, 57, 100
3, 144140, Note_off_c, 1, 56, 100
3, 144144, Note_on_c, 1, 56, 100
3, 144188, Note_off_c, 1, 57, 100
3, 144192, Note_on_c, 1, 57, 100
3, 144236, Note_off_c, 1, 56, 100
3, 144240, Note_on_c, 1, 60, 100
3, 144284, Note_off_c, 1, 57, 100
3, 144288, Note_on_c, 1, 58, 100
3, 144332, Note_off_c, 1, 60, 100
3, 144336, Note_on_c, 1, 57, 100
3, 144380, Note_off_c, 1, 58, 100
3, 144384, Note_on_c, 1, 56, 100
3, 144428, Note_off_c, 1, 57, 100
3, 144432, Note_on_c, 1, 55, 100
3, 144476, Note_off_c, 1, 56, 100
3, 144480, Note_on_c, 1, 56, 100
3, 144524, Note_off_c, 1, 55, 100
3, 144528, Note_on_c, 1, 55, 100
3, 144572, Note_off_c, 1, 56, 100
3, 144576, Note_on_c, 1, 56, 100
3, 144620, Note_off_c, 1, 55, 100
3, 144624, Note_on_c, 1, 60, 100
3, 144668, Note_off_c, 1, 56, 100
3, 144672, Note_on_c, 1, 58, 100
3, 144716, Note_off_c, 1, 60, 100
3, 144720, Note_on_c, 1, 56, 100
3, 144764, Note_off_c, 1, 58, 100
3, 144768, Note_on_c, 1, 55, 100
3, 144812, Note_off_c, 1, 56, 100
3, 144816, Note_on_c, 1, 58, 100
3, 144860, Note_off_c, 1, 55, 100
3, 144864, Note_on_c, 1, 57, 100
3, 144908, Note_off_c, 1, 58, 100
3, 144912, Note_on_c, 1, 58, 100
3, 144956, Note_off_c, 1, 57, 100
3, 144960, Note_on_c, 1, 52, 101
3, 145004, Note_off_c, 1, 58, 100
3, 145008, Note_on_c, 1, 58, 101
3, 145052, Note_off_c, 1, 52, 100
3, 145056, Note_on_c, 1, 57, 101
3, 145100, Note_off_c, 1, 58, 100
3, 145104, Note_on_c, 1, 58, 101
3, 145148, Note_off_c, 1, 57, 100
3, 145152, Note_on_c, 1, 53, 102
3, 145196, Note_off_c, 1, 58, 100
3, 145200, Note_on_c, 1, 58, 102
3, 145244, Note_off_c, 1, 53, 100
3, 145248, Note_on_c, 1, 57, 102
3, 145292, Note_off_c, 1, 58, 100
3, 145296, Note_on_c, 1, 58, 102
3, 145340, Note_off_c, 1, 57, 100
3, 145344, Note_on_c, 1, 53, 103
3, 145388, Note_off_c, 1, 58, 100
3, 145392, Note_on_c, 1, 57, 103
3, 145436, Note_off_c, 1, 53, 100
3, 145440, Note_on_c, 1, 56, 103
3, 145484, Note_off_c, 1, 57, 100
3, 145488, Note_on_c, 1, 57, 103
3, 145532, Note_off_c, 1, 56, 100
3, 145536, Note_on_c, 1, 58, 104
3, 145580, Note_off_c, 1, 57, 100
3, 145584, Note_on_c, 1, 60, 104
3, 145628, Note_off_c, 1, 58, 100
3, 145632, Note_on_c, 1, 62, 104
3, 145676, Note_off_c, 1, 60, 100
3, 145680, Note_on_c, 1, 63, 104
3, 145724, Note_off_c, 1, 62, 100
3, 145728, Note_on_c, 1, 65, 105
3, 145772, Note_off_c, 1, 63, 100
3, 145776, Note_on_c, 1, 67, 105
3, 145820, Note_off_c, 1, 65, 100
3, 145824, Note_on_c, 1, 69, 105
3, 145868, Note_off_c, 1, 67, 100
3, 145872, Note_on_c, 1, 70, 105
3, 145916, Note_off_c, 1, 69, 100
3, 145920, Note_on_c, 1, 68, 106
3, 145964, Note_off_c, 1, 70, 100
3, 145968, Note_on_c, 1, 67, 106
3, 146012, Note_off_c, 1, 68, 100
3, 146016, Note_on_c, 1, 65, 106
3, 146060, Note_off_c, 1, 67, 100
3, 146064, Note_on_c, 1, 63, 106
3, 146108, Note_off_c, 1, 65, 100
3, 146112, Note_on_c, 1, 62, 107
3, 146156, Note_off_c, 1, 63, 100
3, 146160, Note_on_c, 1, 60, 107
3, 146204, Note_off_c, 1, 62, 100
3, 146208, Note_on_c, 1, 58, 107
3, 146252, Note_off_c, 1, 60, 100
3, 146256, Note_on_c, 1, 56, 107
3, 146300, Note_off_c, 1, 58, 100
3, 146304, Note_on_c, 1, 55, 108
3, 146348, Note_off_c, 1, 56, 100
3, 146352, Note_on_c, 1, 58, 108
3, 146396, Note_off_c, 1, 55, 100
3, 146400, Note_on_c, 1, 57, 108
3, 146444, Note_off_c, 1, 58, 100
3, 146448, Note_on_c, 1, 58, 108
3, 146492, Note_off_c, 1, 57, 100
3, 146496, Note_on_c, 1, 52, 109
3, 146540, Note_off_c, 1, 58, 100
3, 146544, Note_on_c, 1, 58, 109
3, 146588, Note_off_c, 1, 52, 100
3, 146592, Note_on_c, 1, 57, 109
3, 146636, Note_off_c, 1, 58, 100
3, 146640, Note_on_c, 1, 58, 109
3, 146684, Note_off_c, 1, 57, 100
3, 146688, Note_on_c, 1, 53, 110
3, 146732, Note_off_c, 1, 58, 100
3, 146736, Note_on_c, 1, 58, 110
3, 146780, Note_off_c, 1, 53, 100
3, 146784, Note_on_c, 1, 57, 110
3, 146828, Note_off_c, 1, 58, 100
3, 146832, Note_on_c, 1, 58, 110
3, 146876, Note_off_c, 1, 57, 100
3, 146880, Note_on_c, 1, 53, 111
3, 146924, Note_off_c, 1, 58, 100
3, 146928, Note_on_c, 1, 57, 111
3, 146972, Note_off_c, 1, 53, 100
3, 146976, Note_on_c, 1, 56, 111
3, 147020, Note_off_c, 1, 57, 100
3, 147024, Note_on_c, 1, 57, 111
3, 147068, Note_off_c, 1, 56, 100
3, 147072, Note_on_c, 1, 58, 112
3, 147116, Note_off_c, 1, 57, 100
3, 147120, Note_on_c, 1, 57, 112
3, 147164, Note_off_c, 1, 58, 100
3, 147168, Note_on_c, 1, 55, 112
3, 147212, Note_off_c, 1, 57, 100
3, 147216, Note_on_c, 1, 53, 112
3, 147260, Note_off_c, 1, 55, 100
3, 147264, Note_on_c, 1, 51, 113
3, 147308, Note_off_c, 1, 53, 100
3, 147312, Note_on_c, 1, 50, 113
3, 147356, Note_off_c, 1, 51, 100
3, 147360, Note_on_c, 1, 48, 113
3, 147404, Note_off_c, 1, 50, 100
3, 147408, Note_on_c, 1, 46, 113
3, 147452, Note_off_c, 1, 48, 100
3, 147456, Note_on_c, 1, 44, 114
3, 147500, Note_off_c, 1, 46, 100
3, 147504, Note_on_c, 1, 43, 114
3, 147548, Note_off_c, 1, 44, 100
3, 147552, Note_on_c, 1, 41, 114
3, 147596, Note_off_c, 1, 43, 100
3, 147600, Note_on_c, 1, 39, 114
3, 147644, Note_off_c, 1, 41, 100
3, 147648, Note_on_c, 1, 38, 115
3, 147692, Note_off_c, 1, 39, 100
3, 147696, Note_on_c, 1, 36, 115
3, 147740, Note_off_c, 1, 38, 100
3, 147744, Note_on_c, 1, 34, 115
3, 147788, Note_off_c, 1, 36, 100
3, 147792, Note_on_c, 1, 32, 115
3, 147836, Note_off_c, 1, 34, 100
3, 147840, Note_on_c, 1, 31, 116
3, 147884, Note_off_c, 1, 32, 100
3, 147888, Note_on_c, 1, 43, 116
3, 147932, Note_off_c, 1, 31, 100
3, 147936, Note_on_c, 1, 42, 116
3, 147980, Note_off_c, 1, 43, 100
3, 147984, Note_on_c, 1, 43, 116
3, 148028, Note_off_c, 1, 42, 100
3, 148032, Note_on_c, 1, 30, 117
3, 148076, Note_off_c, 1, 43, 100
3, 148080, Note_on_c, 1, 42, 117
3, 148124, Note_off_c, 1, 30, 100
3, 148128, Note_on_c, 1, 41, 117
3, 148172, Note_off_c, 1, 42, 100
3, 148176, Note_on_c, 1, 43, 117
3, 148220, Note_off_c, 1, 41, 100
3, 148224, Note_on_c, 1, 29, 118
3, 148268, Note_off_c, 1, 43, 100
3, 148272, Note_on_c, 1, 41, 118
3, 148316, Note_off_c, 1, 29, 100
3, 148320, Note_on_c, 1, 40, 118
3, 148364, Note_off_c, 1, 41, 100
3, 148368, Note_on_c, 1, 41, 118
3, 148412, Note_off_c, 1, 40, 100
3, 148416, Note_on_c, 1, 29, 118
3, 148460, Note_off_c, 1, 41, 100
3, 148464, Note_on_c, 1, 41, 119
3, 148508, Note_off_c, 1, 29, 100
3, 148512, Note_on_c, 1, 40, 119
3, 148556, Note_off_c, 1, 41, 100
3, 148560, Note_on_c, 1, 41, 119
3, 148604, Note_off_c, 1, 40, 100
3, 148608, Note_on_c, 1, 34, 119
3, 148652, Note_off_c, 1, 41, 100
3, 148796, Note_off_c, 1, 34, 100
3, 148896, Note_on_c, 1, 65, 80
3, 148988, Note_off_c, 1, 65, 100
3, 148992, Note_on_c, 1, 67, 80
3, 149084, Note_off_c, 1, 67, 100
3, 149088, Note_on_c, 1, 65, 80
3, 149180, Note_off_c, 1, 65, 100
3, 149184, Note_on_c, 1, 63, 80
3, 149276, Note_off_c, 1, 63, 100
3, 149280, Note_on_c, 1, 62, 80
3, 149372, Note_off_c, 1, 62, 100
3, 149376, Note_on_c, 1, 60, 80
3, 149376, Note_on_c, 1, 53, 80
3, 149468, Note_off_c, 1, 60, 100
3, 149472, Note_on_c, 1, 58, 80
3, 149564, Note_off_c, 1, 58, 100
3, 149568, Note_on_c, 1, 57, 80
3, 149660, Note_off_c, 1, 57, 100
3, 149664, Note_on_c, 1, 55, 80
3, 149756, Note_off_c, 1, 53, 100
3, 149756, Note_off_c, 1, 55, 100
3, 149760, Note_on_c, 1, 53, 80
3, 149760, Note_on_c, 1, 41, 80
3, 149852, Note_off_c, 1, 53, 100
3, 149856, Note_on_c, 1, 51, 80
3, 149948, Note_off_c, 1, 51, 100
3, 149952, Note_on_c, 1, 50, 80
3, 150044, Note_off_c, 1, 50, 100
3, 150048, Note_on_c, 1, 48, 80
3, 150140, Note_off_c, 1, 41, 100
3, 150140, Note_off_c, 1, 48, 100
3, 150144, Note_on_c, 1, 46, 80
3, 150332, Note_off_c, 1, 46, 100
3, 150432, Note_on_c, 1, 53, 80
3, 150524, Note_off_c, 1, 53, 100
3, 150528, Note_on_c, 1, 55, 80
3, 150620, Note_off_c, 1, 55, 100
3, 150624, Note_on_c, 1, 53, 80
3, 150716, Note_off_c, 1, 53, 100
3, 150720, Note_on_c, 1, 51, 80
3, 150812, Note_off_c, 1, 51, 100
3, 150816, Note_on_c, 1, 50, 80
3, 150908, Note_off_c, 1, 50, 100
3, 150912, Note_on_c, 1, 48, 80
3, 150912, Note_on_c, 1, 41, 80
3, 151004, Note_off_c, 1, 48, 100
3, 151008, Note_on_c, 1, 46, 80
3, 151100, Note_off_c, 1, 46, 100
3, 151104, Note_on_c, 1, 45, 80
3, 151196, Note_off_c, 1, 45, 100
3, 151200, Note_on_c, 1, 43, 80
3, 151292, Note_off_c, 1, 41, 100
3, 151292, Note_off_c, 1, 43, 100
3, 151296, Note_on_c, 1, 41, 80
3, 151296, Note_on_c, 1, 29, 80
3, 151388, Note_off_c, 1, 41, 100
3, 151392, Note_on_c, 1, 39, 80
3, 151484, Note_off_c, 1, 39, 100
3, 151488, Note_on_c, 1, 38, 80
3, 151580, Note_off_c, 1, 38, 100
3, 151584, Note_on_c, 1, 36, 80
3, 151676, Note_off_c, 1, 29, 100
3, 151676, Note_off_c, 1, 36, 100
3, 151680, Note_on_c, 1, 34, 80
3, 151868, Note_off_c, 1, 34, 100
3, 151872, Note_on_c, 1, 60, 80
3, 151872, Note_on_c, 1, 53, 80
3, 152060, Note_off_c, 1, 60, 100
3, 152060, Note_off_c, 1, 53, 100
3, 152064, Note_on_c, 1, 58, 80
3, 152252, Note_off_c, 1, 58, 100
3, 152256, Note_on_c, 1, 41, 120
3, 152256, Note_on_c, 1, 53, 120
3, 152540, Note_off_c, 1, 53, 100
3, 152540, Note_off_c, 1, 41, 100
3, 152544, Note_on_c, 1, 34, 120
3, 152544, Note_on_c, 1, 46, 120
3, 153116, Note_off_c, 1, 34, 100
3, 153116, Note_off_c, 1, 46, 100
3, 153116, End_track
0, 0, End_of_file
