0, 0, Header, 1, 3, 384
1, 0, Start_track
1, 0, Title_t, "L.v.Beethoven 3mov - Piano Sonata No.11 in Bb Major Op.22\000"
1, 0, Copyright_t, "Copyright(C) 1995-2009, Suzuki Software\000"
1, 0, Sequencer_specific, 9, 67, 123, 0, 88, 70, 48, 50, 0, 1
1, 0, Text_t, "XFhd:2000/05/23:JP:Classical::::L.v.Beethoven:::Kaoru Suzuki\000"
1, 0, Text_t, "XFln:JP:\203s\203A\203m\203\\\203i\203^\221æ11\224Ô\225Ï\203\215\222·\222²\215ì\225i22\201`\221æ3\212y\217Í:L.v.\203x\201[\203g\201[\203\224\203F\203\223:::\227é\202¿\202á\202ñ:\227é\202¿\202á\202ñ\000"
1, 0, Time_signature, 1, 2, 96, 8
1, 0, Sequencer_specific, 3, 0, 0, 65
1, 0, Sequencer_specific, 5, 0, 0, 119, 14, 0
1, 0, Tempo, 480000
1, 384, Time_signature, 3, 2, 96, 8
1, 67584, Tempo, 500000
1, 67968, Tempo, 545454
1, 69120, Tempo, 444444
1, 105984, Tempo, 472440
1, 132864, Tempo, 521739
1, 133632, Tempo, 472440
1, 157824, Tempo, 483870
1, 158208, Tempo, 521739
1, 158976, Tempo, 472440
1, 173184, Tempo, 480000
1, 173568, Tempo, 500000
1, 173952, Tempo, 545454
1, 174336, Tempo, 666666
1, 174336, End_track
2, 0, Start_track
2, 0, Title_t, "Right"
2, 0, Control_c, 0, 0, 0
2, 0, Program_c, 0, 0
2, 0, Control_c, 0, 7, 100
2, 0, Control_c, 0, 10, 75
2, 0, Control_c, 0, 91, 127
2, 0, Key_signature, -2, "major"
2, 0, Note_on_c, 0, 62, 80
2, 284, Note_off_c, 0, 62, 100
2, 288, Note_on_c, 0, 63, 80
2, 380, Note_off_c, 0, 63, 100
2, 384, Note_on_c, 0, 65, 80
2, 1148, Note_off_c, 0, 65, 100
2, 1152, Note_on_c, 0, 69, 80
2, 1196, Note_off_c, 0, 69, 100
2, 1200, Note_on_c, 0, 67, 80
2, 1244, Note_off_c, 0, 67, 100
2, 1248, Note_on_c, 0, 65, 80
2, 1340, Note_off_c, 0, 65, 100
2, 1344, Note_on_c, 0, 67, 80
2, 1436, Note_off_c, 0, 67, 100
2, 1440, Note_on_c, 0, 69, 80
2, 1532, Note_off_c, 0, 69, 100
2, 1536, Note_on_c, 0, 70, 80
2, 1916, Note_off_c, 0, 70, 100
2, 1920, Note_on_c, 0, 65, 80
2, 2300, Note_off_c, 0, 65, 100
2, 2304, Note_on_c, 0, 69, 80
2, 2348, Note_off_c, 0, 69, 100
2, 2352, Note_on_c, 0, 67, 80
2, 2396, Note_off_c, 0, 67, 100
2, 2400, Note_on_c, 0, 65, 80
2, 2492, Note_off_c, 0, 65, 100
2, 2496, Note_on_c, 0, 67, 80
2, 2588, Note_off_c, 0, 67, 100
2, 2592, Note_on_c, 0, 69, 80
2, 2684, Note_off_c, 0, 69, 100
2, 2688, Note_on_c, 0, 70, 80
2, 2972, Note_off_c, 0, 70, 100
2, 2976, Note_on_c, 0, 69, 80
2, 3068, Note_off_c, 0, 69, 100
2, 3072, Note_on_c, 0, 70, 80
2, 3356, Note_off_c, 0, 70, 100
2, 3360, Note_on_c, 0, 72, 80
2, 3452, Note_off_c, 0, 72, 100
2, 3456, Note_on_c, 0, 74, 80
2, 3740, Note_off_c, 0, 74, 100
2, 3744, Note_on_c, 0, 76, 80
2, 3836, Note_off_c, 0, 76, 100
2, 3840, Note_on_c, 0, 76, 80
2, 3840, Note_on_c, 0, 70, 80
2, 4220, Note_off_c, 0, 76, 100
2, 4220, Note_off_c, 0, 70, 100
2, 4224, Note_on_c, 0, 77, 80
2, 4224, Note_on_c, 0, 69, 80
2, 4412, Note_off_c, 0, 77, 100
2, 4412, Note_off_c, 0, 69, 100
2, 4608, Note_on_c, 0, 77, 80
2, 4652, Note_off_c, 0, 77, 100
2, 4656, Note_on_c, 0, 75, 80
2, 4700, Note_off_c, 0, 75, 100
2, 4704, Note_on_c, 0, 74, 80
2, 4796, Note_off_c, 0, 74, 100
2, 4800, Note_on_c, 0, 75, 80
2, 4892, Note_off_c, 0, 75, 100
2, 4896, Note_on_c, 0, 77, 80
2, 4988, Note_off_c, 0, 77, 100
2, 4992, Note_on_c, 0, 79, 80
2, 5372, Note_off_c, 0, 79, 100
2, 5376, Note_on_c, 0, 72, 80
2, 5756, Note_off_c, 0, 72, 100
2, 5760, Note_on_c, 0, 74, 80
2, 5804, Note_off_c, 0, 74, 100
2, 5808, Note_on_c, 0, 72, 80
2, 5852, Note_off_c, 0, 72, 100
2, 5856, Note_on_c, 0, 71, 80
2, 5948, Note_off_c, 0, 71, 100
2, 5952, Note_on_c, 0, 72, 80
2, 6044, Note_off_c, 0, 72, 100
2, 6048, Note_on_c, 0, 74, 80
2, 6140, Note_off_c, 0, 74, 100
2, 6144, Note_on_c, 0, 75, 80
2, 6524, Note_off_c, 0, 75, 100
2, 6528, Note_on_c, 0, 69, 80
2, 6908, Note_off_c, 0, 69, 100
2, 6912, Note_on_c, 0, 70, 80
2, 6956, Note_off_c, 0, 70, 100
2, 6960, Note_on_c, 0, 69, 80
2, 7004, Note_off_c, 0, 69, 100
2, 7008, Note_on_c, 0, 67, 80
2, 7100, Note_off_c, 0, 67, 100
2, 7104, Note_on_c, 0, 69, 80
2, 7196, Note_off_c, 0, 69, 100
2, 7200, Note_on_c, 0, 70, 80
2, 7292, Note_off_c, 0, 70, 100
2, 7296, Note_on_c, 0, 74, 80
2, 7316, Note_off_c, 0, 74, 100
2, 7344, Note_on_c, 0, 72, 80
2, 7364, Note_off_c, 0, 72, 100
2, 7392, Note_on_c, 0, 71, 80
2, 7484, Note_off_c, 0, 71, 100
2, 7488, Note_on_c, 0, 72, 80
2, 7580, Note_off_c, 0, 72, 100
2, 7584, Note_on_c, 0, 74, 80
2, 7676, Note_off_c, 0, 74, 100
2, 7680, Note_on_c, 0, 77, 80
2, 7700, Note_off_c, 0, 77, 100
2, 7728, Note_on_c, 0, 75, 80
2, 7748, Note_off_c, 0, 75, 100
2, 7776, Note_on_c, 0, 74, 80
2, 7868, Note_off_c, 0, 74, 100
2, 7872, Note_on_c, 0, 75, 80
2, 7964, Note_off_c, 0, 75, 100
2, 7968, Note_on_c, 0, 77, 80
2, 8060, Note_off_c, 0, 77, 100
2, 8064, Note_on_c, 0, 79, 80
2, 8252, Note_off_c, 0, 79, 100
2, 8352, Note_on_c, 0, 69, 80
2, 8444, Note_off_c, 0, 69, 100
2, 8448, Note_on_c, 0, 72, 80
2, 8828, Note_off_c, 0, 72, 100
2, 8832, Note_on_c, 0, 70, 80
2, 9020, Note_off_c, 0, 70, 100
2, 9216, Note_on_c, 0, 62, 80
2, 9500, Note_off_c, 0, 62, 100
2, 9504, Note_on_c, 0, 63, 80
2, 9596, Note_off_c, 0, 63, 100
2, 9600, Note_on_c, 0, 65, 80
2, 10364, Note_off_c, 0, 65, 100
2, 10368, Note_on_c, 0, 69, 80
2, 10412, Note_off_c, 0, 69, 100
2, 10416, Note_on_c, 0, 67, 80
2, 10460, Note_off_c, 0, 67, 100
2, 10464, Note_on_c, 0, 65, 80
2, 10556, Note_off_c, 0, 65, 100
2, 10560, Note_on_c, 0, 67, 80
2, 10652, Note_off_c, 0, 67, 100
2, 10656, Note_on_c, 0, 69, 80
2, 10748, Note_off_c, 0, 69, 100
2, 10752, Note_on_c, 0, 70, 80
2, 11132, Note_off_c, 0, 70, 100
2, 11136, Note_on_c, 0, 65, 80
2, 11516, Note_off_c, 0, 65, 100
2, 11520, Note_on_c, 0, 69, 80
2, 11564, Note_off_c, 0, 69, 100
2, 11568, Note_on_c, 0, 67, 80
2, 11612, Note_off_c, 0, 67, 100
2, 11616, Note_on_c, 0, 65, 80
2, 11708, Note_off_c, 0, 65, 100
2, 11712, Note_on_c, 0, 67, 80
2, 11804, Note_off_c, 0, 67, 100
2, 11808, Note_on_c, 0, 69, 80
2, 11900, Note_off_c, 0, 69, 100
2, 11904, Note_on_c, 0, 70, 80
2, 12188, Note_off_c, 0, 70, 100
2, 12192, Note_on_c, 0, 69, 80
2, 12284, Note_off_c, 0, 69, 100
2, 12288, Note_on_c, 0, 70, 80
2, 12572, Note_off_c, 0, 70, 100
2, 12576, Note_on_c, 0, 72, 80
2, 12668, Note_off_c, 0, 72, 100
2, 12672, Note_on_c, 0, 74, 80
2, 12956, Note_off_c, 0, 74, 100
2, 12960, Note_on_c, 0, 76, 80
2, 13052, Note_off_c, 0, 76, 100
2, 13056, Note_on_c, 0, 76, 80
2, 13056, Note_on_c, 0, 70, 80
2, 13436, Note_off_c, 0, 76, 100
2, 13436, Note_off_c, 0, 70, 100
2, 13440, Note_on_c, 0, 77, 80
2, 13440, Note_on_c, 0, 69, 80
2, 13628, Note_off_c, 0, 77, 100
2, 13628, Note_off_c, 0, 69, 100
2, 13824, Note_on_c, 0, 77, 80
2, 13868, Note_off_c, 0, 77, 100
2, 13872, Note_on_c, 0, 75, 80
2, 13916, Note_off_c, 0, 75, 100
2, 13920, Note_on_c, 0, 74, 80
2, 14012, Note_off_c, 0, 74, 100
2, 14016, Note_on_c, 0, 75, 80
2, 14108, Note_off_c, 0, 75, 100
2, 14112, Note_on_c, 0, 77, 80
2, 14204, Note_off_c, 0, 77, 100
2, 14208, Note_on_c, 0, 79, 80
2, 14588, Note_off_c, 0, 79, 100
2, 14592, Note_on_c, 0, 72, 80
2, 14972, Note_off_c, 0, 72, 100
2, 14976, Note_on_c, 0, 74, 80
2, 15020, Note_off_c, 0, 74, 100
2, 15024, Note_on_c, 0, 72, 80
2, 15068, Note_off_c, 0, 72, 100
2, 15072, Note_on_c, 0, 71, 80
2, 15164, Note_off_c, 0, 71, 100
2, 15168, Note_on_c, 0, 72, 80
2, 15260, Note_off_c, 0, 72, 100
2, 15264, Note_on_c, 0, 74, 80
2, 15356, Note_off_c, 0, 74, 100
2, 15360, Note_on_c, 0, 75, 80
2, 15740, Note_off_c, 0, 75, 100
2, 15744, Note_on_c, 0, 69, 80
2, 16124, Note_off_c, 0, 69, 100
2, 16128, Note_on_c, 0, 70, 80
2, 16172, Note_off_c, 0, 70, 100
2, 16176, Note_on_c, 0, 69, 80
2, 16220, Note_off_c, 0, 69, 100
2, 16224, Note_on_c, 0, 67, 80
2, 16316, Note_off_c, 0, 67, 100
2, 16320, Note_on_c, 0, 69, 80
2, 16412, Note_off_c, 0, 69, 100
2, 16416, Note_on_c, 0, 70, 80
2, 16508, Note_off_c, 0, 70, 100
2, 16512, Note_on_c, 0, 74, 80
2, 16532, Note_off_c, 0, 74, 100
2, 16560, Note_on_c, 0, 72, 80
2, 16580, Note_off_c, 0, 72, 100
2, 16608, Note_on_c, 0, 71, 80
2, 16700, Note_off_c, 0, 71, 100
2, 16704, Note_on_c, 0, 72, 80
2, 16796, Note_off_c, 0, 72, 100
2, 16800, Note_on_c, 0, 74, 80
2, 16892, Note_off_c, 0, 74, 100
2, 16896, Note_on_c, 0, 77, 80
2, 16916, Note_off_c, 0, 77, 100
2, 16944, Note_on_c, 0, 75, 80
2, 16964, Note_off_c, 0, 75, 100
2, 16992, Note_on_c, 0, 74, 80
2, 17084, Note_off_c, 0, 74, 100
2, 17088, Note_on_c, 0, 75, 80
2, 17180, Note_off_c, 0, 75, 100
2, 17184, Note_on_c, 0, 77, 80
2, 17276, Note_off_c, 0, 77, 100
2, 17280, Note_on_c, 0, 79, 80
2, 17468, Note_off_c, 0, 79, 100
2, 17568, Note_on_c, 0, 69, 80
2, 17660, Note_off_c, 0, 69, 100
2, 17664, Note_on_c, 0, 72, 80
2, 18044, Note_off_c, 0, 72, 100
2, 18048, Note_on_c, 0, 70, 80
2, 18236, Note_off_c, 0, 70, 100
2, 18432, Note_on_c, 0, 74, 80
2, 18432, Note_on_c, 0, 69, 80
2, 18524, Note_off_c, 0, 74, 100
2, 18524, Note_off_c, 0, 69, 100
2, 18528, Note_on_c, 0, 73, 81
2, 18528, Note_on_c, 0, 70, 81
2, 18620, Note_off_c, 0, 73, 100
2, 18620, Note_off_c, 0, 70, 100
2, 18624, Note_on_c, 0, 74, 83
2, 18624, Note_on_c, 0, 69, 83
2, 18716, Note_off_c, 0, 74, 100
2, 18716, Note_off_c, 0, 69, 100
2, 18720, Note_on_c, 0, 73, 85
2, 18720, Note_on_c, 0, 70, 85
2, 18812, Note_off_c, 0, 73, 100
2, 18812, Note_off_c, 0, 70, 100
2, 18816, Note_on_c, 0, 74, 87
2, 18816, Note_on_c, 0, 69, 87
2, 18908, Note_off_c, 0, 74, 100
2, 18908, Note_off_c, 0, 69, 100
2, 18912, Note_on_c, 0, 73, 89
2, 18912, Note_on_c, 0, 70, 89
2, 19004, Note_off_c, 0, 73, 100
2, 19004, Note_off_c, 0, 70, 100
2, 19008, Note_on_c, 0, 74, 91
2, 19008, Note_on_c, 0, 69, 91
2, 19100, Note_off_c, 0, 74, 100
2, 19100, Note_off_c, 0, 69, 100
2, 19104, Note_on_c, 0, 73, 93
2, 19104, Note_on_c, 0, 70, 93
2, 19196, Note_off_c, 0, 73, 100
2, 19196, Note_off_c, 0, 70, 100
2, 19200, Note_on_c, 0, 74, 94
2, 19200, Note_on_c, 0, 69, 94
2, 19292, Note_off_c, 0, 74, 100
2, 19292, Note_off_c, 0, 69, 100
2, 19296, Note_on_c, 0, 73, 96
2, 19296, Note_on_c, 0, 70, 96
2, 19388, Note_off_c, 0, 73, 100
2, 19388, Note_off_c, 0, 70, 100
2, 19392, Note_on_c, 0, 74, 98
2, 19392, Note_on_c, 0, 69, 98
2, 19484, Note_off_c, 0, 74, 100
2, 19484, Note_off_c, 0, 69, 100
2, 19488, Note_on_c, 0, 73, 100
2, 19488, Note_on_c, 0, 70, 100
2, 19580, Note_off_c, 0, 73, 100
2, 19580, Note_off_c, 0, 70, 100
2, 19584, Note_on_c, 0, 74, 102
2, 19584, Note_on_c, 0, 69, 102
2, 19676, Note_off_c, 0, 74, 100
2, 19676, Note_off_c, 0, 69, 100
2, 19680, Note_on_c, 0, 73, 104
2, 19680, Note_on_c, 0, 70, 104
2, 19772, Note_off_c, 0, 73, 100
2, 19772, Note_off_c, 0, 70, 100
2, 19776, Note_on_c, 0, 74, 106
2, 19776, Note_on_c, 0, 69, 106
2, 19868, Note_off_c, 0, 74, 100
2, 19868, Note_off_c, 0, 69, 100
2, 19872, Note_on_c, 0, 73, 108
2, 19872, Note_on_c, 0, 70, 108
2, 19964, Note_off_c, 0, 73, 100
2, 19964, Note_off_c, 0, 70, 100
2, 19968, Note_on_c, 0, 74, 109
2, 19968, Note_on_c, 0, 69, 109
2, 20156, Note_off_c, 0, 74, 100
2, 20156, Note_off_c, 0, 69, 100
2, 20352, Note_on_c, 0, 86, 120
2, 20352, Note_on_c, 0, 78, 120
2, 20924, Note_off_c, 0, 86, 100
2, 20924, Note_off_c, 0, 78, 100
2, 20928, Note_on_c, 0, 84, 120
2, 20928, Note_on_c, 0, 78, 120
2, 21116, Note_off_c, 0, 84, 100
2, 21116, Note_off_c, 0, 78, 100
2, 21120, Note_on_c, 0, 82, 120
2, 21120, Note_on_c, 0, 79, 120
2, 21404, Note_off_c, 0, 82, 100
2, 21404, Note_off_c, 0, 79, 100
2, 21408, Note_on_c, 0, 81, 120
2, 21408, Note_on_c, 0, 75, 120
2, 21500, Note_off_c, 0, 81, 100
2, 21500, Note_off_c, 0, 75, 100
2, 21504, Note_on_c, 0, 79, 120
2, 21504, Note_on_c, 0, 70, 120
2, 21884, Note_off_c, 0, 79, 100
2, 21884, Note_off_c, 0, 70, 100
2, 21888, Note_on_c, 0, 78, 120
2, 21888, Note_on_c, 0, 72, 120
2, 22268, Note_off_c, 0, 78, 100
2, 22268, Note_off_c, 0, 72, 100
2, 22272, Note_on_c, 0, 81, 120
2, 22272, Note_on_c, 0, 72, 120
2, 22652, Note_off_c, 0, 81, 100
2, 22652, Note_off_c, 0, 72, 100
2, 22656, Note_on_c, 0, 79, 120
2, 22656, Note_on_c, 0, 70, 120
2, 22844, Note_off_c, 0, 79, 100
2, 22844, Note_off_c, 0, 70, 100
2, 23040, Note_on_c, 0, 56, 80
2, 23040, Note_on_c, 0, 58, 80
2, 23132, Note_off_c, 0, 56, 100
2, 23132, Note_off_c, 0, 58, 100
2, 23136, Note_on_c, 0, 59, 81
2, 23228, Note_off_c, 0, 59, 100
2, 23232, Note_on_c, 0, 56, 83
2, 23232, Note_on_c, 0, 58, 83
2, 23324, Note_off_c, 0, 56, 100
2, 23324, Note_off_c, 0, 58, 100
2, 23328, Note_on_c, 0, 59, 85
2, 23420, Note_off_c, 0, 59, 100
2, 23424, Note_on_c, 0, 56, 87
2, 23424, Note_on_c, 0, 58, 87
2, 23516, Note_off_c, 0, 56, 100
2, 23516, Note_off_c, 0, 58, 100
2, 23520, Note_on_c, 0, 59, 89
2, 23612, Note_off_c, 0, 59, 100
2, 23616, Note_on_c, 0, 56, 91
2, 23616, Note_on_c, 0, 58, 91
2, 23708, Note_off_c, 0, 56, 100
2, 23708, Note_off_c, 0, 58, 100
2, 23712, Note_on_c, 0, 59, 93
2, 23804, Note_off_c, 0, 59, 100
2, 23808, Note_on_c, 0, 56, 94
2, 23808, Note_on_c, 0, 58, 94
2, 23900, Note_off_c, 0, 56, 100
2, 23900, Note_off_c, 0, 58, 100
2, 23904, Note_on_c, 0, 59, 96
2, 23996, Note_off_c, 0, 59, 100
2, 24000, Note_on_c, 0, 56, 98
2, 24000, Note_on_c, 0, 58, 98
2, 24092, Note_off_c, 0, 56, 100
2, 24092, Note_off_c, 0, 58, 100
2, 24096, Note_on_c, 0, 59, 100
2, 24188, Note_off_c, 0, 59, 100
2, 24192, Note_on_c, 0, 56, 102
2, 24192, Note_on_c, 0, 58, 102
2, 24284, Note_off_c, 0, 56, 100
2, 24284, Note_off_c, 0, 58, 100
2, 24288, Note_on_c, 0, 59, 104
2, 24380, Note_off_c, 0, 59, 100
2, 24384, Note_on_c, 0, 56, 106
2, 24384, Note_on_c, 0, 58, 106
2, 24476, Note_off_c, 0, 56, 100
2, 24476, Note_off_c, 0, 58, 100
2, 24480, Note_on_c, 0, 59, 108
2, 24572, Note_off_c, 0, 59, 100
2, 24576, Note_on_c, 0, 58, 109
2, 24576, Note_on_c, 0, 56, 109
2, 24764, Note_off_c, 0, 58, 100
2, 24764, Note_off_c, 0, 56, 100
2, 24960, Note_on_c, 0, 80, 80
2, 24960, Note_on_c, 0, 71, 80
2, 25532, Note_off_c, 0, 80, 100
2, 25532, Note_off_c, 0, 71, 100
2, 25536, Note_on_c, 0, 79, 80
2, 25536, Note_on_c, 0, 72, 80
2, 25724, Note_off_c, 0, 79, 100
2, 25724, Note_off_c, 0, 72, 100
2, 25728, Note_on_c, 0, 77, 80
2, 25728, Note_on_c, 0, 68, 80
2, 26012, Note_off_c, 0, 77, 100
2, 26012, Note_off_c, 0, 68, 100
2, 26016, Note_on_c, 0, 75, 80
2, 26016, Note_on_c, 0, 67, 80
2, 26108, Note_off_c, 0, 75, 100
2, 26108, Note_off_c, 0, 67, 100
2, 26112, Note_on_c, 0, 74, 80
2, 26112, Note_on_c, 0, 65, 80
2, 26492, Note_off_c, 0, 74, 100
2, 26492, Note_off_c, 0, 65, 100
2, 26496, Note_on_c, 0, 72, 80
2, 26496, Note_on_c, 0, 63, 80
2, 26876, Note_off_c, 0, 72, 100
2, 26876, Note_off_c, 0, 63, 100
2, 26880, Note_on_c, 0, 70, 80
2, 26880, Note_on_c, 0, 62, 80
2, 27260, Note_off_c, 0, 70, 100
2, 27260, Note_off_c, 0, 62, 100
2, 27264, Note_on_c, 0, 69, 80
2, 27264, Note_on_c, 0, 60, 80
2, 27452, Note_off_c, 0, 69, 100
2, 27452, Note_off_c, 0, 60, 100
2, 27648, Note_on_c, 0, 62, 80
2, 27932, Note_off_c, 0, 62, 100
2, 27936, Note_on_c, 0, 63, 80
2, 28028, Note_off_c, 0, 63, 100
2, 28032, Note_on_c, 0, 65, 80
2, 28796, Note_off_c, 0, 65, 100
2, 28800, Note_on_c, 0, 69, 80
2, 28844, Note_off_c, 0, 69, 100
2, 28848, Note_on_c, 0, 67, 80
2, 28892, Note_off_c, 0, 67, 100
2, 28896, Note_on_c, 0, 65, 80
2, 28988, Note_off_c, 0, 65, 100
2, 28992, Note_on_c, 0, 67, 80
2, 29084, Note_off_c, 0, 67, 100
2, 29088, Note_on_c, 0, 69, 80
2, 29180, Note_off_c, 0, 69, 100
2, 29184, Note_on_c, 0, 70, 80
2, 29564, Note_off_c, 0, 70, 100
2, 29568, Note_on_c, 0, 65, 80
2, 29948, Note_off_c, 0, 65, 100
2, 29952, Note_on_c, 0, 69, 80
2, 29996, Note_off_c, 0, 69, 100
2, 30000, Note_on_c, 0, 67, 80
2, 30044, Note_off_c, 0, 67, 100
2, 30048, Note_on_c, 0, 65, 80
2, 30140, Note_off_c, 0, 65, 100
2, 30144, Note_on_c, 0, 67, 80
2, 30236, Note_off_c, 0, 67, 100
2, 30240, Note_on_c, 0, 69, 80
2, 30332, Note_off_c, 0, 69, 100
2, 30336, Note_on_c, 0, 70, 80
2, 30620, Note_off_c, 0, 70, 100
2, 30624, Note_on_c, 0, 69, 80
2, 30716, Note_off_c, 0, 69, 100
2, 30720, Note_on_c, 0, 70, 80
2, 31004, Note_off_c, 0, 70, 100
2, 31008, Note_on_c, 0, 72, 80
2, 31100, Note_off_c, 0, 72, 100
2, 31104, Note_on_c, 0, 74, 80
2, 31388, Note_off_c, 0, 74, 100
2, 31392, Note_on_c, 0, 76, 80
2, 31484, Note_off_c, 0, 76, 100
2, 31488, Note_on_c, 0, 76, 80
2, 31488, Note_on_c, 0, 70, 80
2, 31868, Note_off_c, 0, 76, 100
2, 31868, Note_off_c, 0, 70, 100
2, 31872, Note_on_c, 0, 77, 80
2, 31872, Note_on_c, 0, 69, 80
2, 32060, Note_off_c, 0, 77, 100
2, 32060, Note_off_c, 0, 69, 100
2, 32256, Note_on_c, 0, 77, 80
2, 32300, Note_off_c, 0, 77, 100
2, 32304, Note_on_c, 0, 75, 80
2, 32348, Note_off_c, 0, 75, 100
2, 32352, Note_on_c, 0, 74, 80
2, 32444, Note_off_c, 0, 74, 100
2, 32448, Note_on_c, 0, 75, 80
2, 32540, Note_off_c, 0, 75, 100
2, 32544, Note_on_c, 0, 77, 80
2, 32636, Note_off_c, 0, 77, 100
2, 32640, Note_on_c, 0, 79, 80
2, 33020, Note_off_c, 0, 79, 100
2, 33024, Note_on_c, 0, 72, 80
2, 33404, Note_off_c, 0, 72, 100
2, 33408, Note_on_c, 0, 74, 80
2, 33452, Note_off_c, 0, 74, 100
2, 33456, Note_on_c, 0, 72, 80
2, 33500, Note_off_c, 0, 72, 100
2, 33504, Note_on_c, 0, 71, 80
2, 33596, Note_off_c, 0, 71, 100
2, 33600, Note_on_c, 0, 72, 80
2, 33692, Note_off_c, 0, 72, 100
2, 33696, Note_on_c, 0, 74, 80
2, 33788, Note_off_c, 0, 74, 100
2, 33792, Note_on_c, 0, 75, 80
2, 34172, Note_off_c, 0, 75, 100
2, 34176, Note_on_c, 0, 69, 80
2, 34556, Note_off_c, 0, 69, 100
2, 34560, Note_on_c, 0, 70, 80
2, 34604, Note_off_c, 0, 70, 100
2, 34608, Note_on_c, 0, 69, 80
2, 34652, Note_off_c, 0, 69, 100
2, 34656, Note_on_c, 0, 67, 80
2, 34748, Note_off_c, 0, 67, 100
2, 34752, Note_on_c, 0, 69, 80
2, 34844, Note_off_c, 0, 69, 100
2, 34848, Note_on_c, 0, 70, 80
2, 34940, Note_off_c, 0, 70, 100
2, 34944, Note_on_c, 0, 74, 80
2, 34964, Note_off_c, 0, 74, 100
2, 34992, Note_on_c, 0, 72, 80
2, 35012, Note_off_c, 0, 72, 100
2, 35040, Note_on_c, 0, 71, 80
2, 35132, Note_off_c, 0, 71, 100
2, 35136, Note_on_c, 0, 72, 80
2, 35228, Note_off_c, 0, 72, 100
2, 35232, Note_on_c, 0, 74, 80
2, 35324, Note_off_c, 0, 74, 100
2, 35328, Note_on_c, 0, 77, 80
2, 35348, Note_off_c, 0, 77, 100
2, 35376, Note_on_c, 0, 75, 80
2, 35396, Note_off_c, 0, 75, 100
2, 35424, Note_on_c, 0, 74, 80
2, 35516, Note_off_c, 0, 74, 100
2, 35520, Note_on_c, 0, 75, 80
2, 35612, Note_off_c, 0, 75, 100
2, 35616, Note_on_c, 0, 77, 80
2, 35708, Note_off_c, 0, 77, 100
2, 35712, Note_on_c, 0, 79, 80
2, 35804, Note_off_c, 0, 79, 100
2, 35808, Note_on_c, 0, 75, 80
2, 35900, Note_off_c, 0, 75, 100
2, 35904, Note_on_c, 0, 72, 80
2, 35996, Note_off_c, 0, 72, 100
2, 36000, Note_on_c, 0, 69, 80
2, 36092, Note_off_c, 0, 69, 100
2, 36096, Note_on_c, 0, 70, 80
2, 36476, Note_off_c, 0, 70, 100
2, 36864, Note_on_c, 0, 81, 80
2, 36908, Note_off_c, 0, 81, 100
2, 36912, Note_on_c, 0, 79, 80
2, 36956, Note_off_c, 0, 79, 100
2, 36960, Note_on_c, 0, 78, 80
2, 37052, Note_off_c, 0, 78, 100
2, 37056, Note_on_c, 0, 79, 80
2, 37148, Note_off_c, 0, 79, 100
2, 37152, Note_on_c, 0, 81, 80
2, 37244, Note_off_c, 0, 81, 100
2, 37248, Note_on_c, 0, 82, 80
2, 37628, Note_off_c, 0, 82, 100
2, 37632, Note_on_c, 0, 77, 80
2, 37820, Note_off_c, 0, 77, 100
2, 38016, Note_on_c, 0, 75, 80
2, 38016, Note_on_c, 0, 69, 80
2, 38060, Note_off_c, 0, 69, 100
2, 38064, Note_on_c, 0, 67, 80
2, 38108, Note_off_c, 0, 67, 100
2, 38112, Note_on_c, 0, 65, 80
2, 38204, Note_off_c, 0, 65, 100
2, 38208, Note_on_c, 0, 67, 80
2, 38300, Note_off_c, 0, 67, 100
2, 38304, Note_on_c, 0, 69, 80
2, 38396, Note_off_c, 0, 75, 100
2, 38396, Note_off_c, 0, 69, 100
2, 38400, Note_on_c, 0, 74, 80
2, 38400, Note_on_c, 0, 70, 80
2, 38780, Note_off_c, 0, 74, 100
2, 38780, Note_off_c, 0, 70, 100
2, 38784, Note_on_c, 0, 65, 80
2, 38972, Note_off_c, 0, 65, 100
2, 39168, Note_on_c, 0, 69, 80
2, 39212, Note_off_c, 0, 69, 100
2, 39216, Note_on_c, 0, 67, 80
2, 39260, Note_off_c, 0, 67, 100
2, 39264, Note_on_c, 0, 66, 80
2, 39356, Note_off_c, 0, 66, 100
2, 39360, Note_on_c, 0, 67, 80
2, 39452, Note_off_c, 0, 67, 100
2, 39456, Note_on_c, 0, 69, 80
2, 39548, Note_off_c, 0, 69, 100
2, 39552, Note_on_c, 0, 70, 80
2, 39932, Note_off_c, 0, 70, 100
2, 39936, Note_on_c, 0, 65, 80
2, 40124, Note_off_c, 0, 65, 100
2, 40320, Note_on_c, 0, 63, 80
2, 40320, Note_on_c, 0, 57, 80
2, 40364, Note_off_c, 0, 57, 100
2, 40368, Note_on_c, 0, 55, 80
2, 40412, Note_off_c, 0, 55, 100
2, 40416, Note_on_c, 0, 53, 80
2, 40508, Note_off_c, 0, 53, 100
2, 40512, Note_on_c, 0, 55, 81
2, 40604, Note_off_c, 0, 55, 100
2, 40608, Note_on_c, 0, 57, 82
2, 40700, Note_off_c, 0, 63, 100
2, 40700, Note_off_c, 0, 57, 100
2, 40704, Note_on_c, 0, 58, 82
2, 40704, Note_on_c, 0, 62, 82
2, 40892, Note_off_c, 0, 58, 100
2, 40896, Note_on_c, 0, 53, 84
2, 41084, Note_off_c, 0, 62, 100
2, 41084, Note_off_c, 0, 53, 100
2, 41088, Note_on_c, 0, 63, 85
2, 41088, Note_on_c, 0, 57, 85
2, 41132, Note_off_c, 0, 57, 100
2, 41136, Note_on_c, 0, 55, 86
2, 41180, Note_off_c, 0, 55, 100
2, 41184, Note_on_c, 0, 53, 86
2, 41276, Note_off_c, 0, 53, 100
2, 41280, Note_on_c, 0, 55, 87
2, 41372, Note_off_c, 0, 55, 100
2, 41376, Note_on_c, 0, 57, 88
2, 41468, Note_off_c, 0, 63, 100
2, 41468, Note_off_c, 0, 57, 100
2, 41472, Note_on_c, 0, 58, 88
2, 41472, Note_on_c, 0, 62, 88
2, 41660, Note_off_c, 0, 58, 100
2, 41664, Note_on_c, 0, 53, 90
2, 41852, Note_off_c, 0, 62, 100
2, 41852, Note_off_c, 0, 53, 100
2, 41856, Note_on_c, 0, 63, 91
2, 41856, Note_on_c, 0, 57, 91
2, 41900, Note_off_c, 0, 57, 100
2, 41904, Note_on_c, 0, 55, 92
2, 41948, Note_off_c, 0, 55, 100
2, 41952, Note_on_c, 0, 53, 92
2, 42044, Note_off_c, 0, 53, 100
2, 42048, Note_on_c, 0, 55, 93
2, 42140, Note_off_c, 0, 55, 100
2, 42144, Note_on_c, 0, 57, 94
2, 42236, Note_off_c, 0, 63, 100
2, 42236, Note_off_c, 0, 57, 100
2, 42240, Note_on_c, 0, 62, 94
2, 42240, Note_on_c, 0, 58, 94
2, 42332, Note_off_c, 0, 58, 100
2, 42336, Note_on_c, 0, 53, 95
2, 42428, Note_off_c, 0, 62, 100
2, 42428, Note_off_c, 0, 53, 100
2, 42432, Note_on_c, 0, 63, 96
2, 42432, Note_on_c, 0, 57, 96
2, 42524, Note_off_c, 0, 57, 100
2, 42528, Note_on_c, 0, 53, 97
2, 42620, Note_off_c, 0, 63, 100
2, 42620, Note_off_c, 0, 53, 100
2, 42624, Note_on_c, 0, 62, 97
2, 42624, Note_on_c, 0, 58, 97
2, 42716, Note_off_c, 0, 58, 100
2, 42720, Note_on_c, 0, 53, 98
2, 42812, Note_off_c, 0, 62, 100
2, 42812, Note_off_c, 0, 53, 100
2, 42816, Note_on_c, 0, 63, 99
2, 42816, Note_on_c, 0, 57, 99
2, 42908, Note_off_c, 0, 57, 100
2, 42912, Note_on_c, 0, 53, 99
2, 43004, Note_off_c, 0, 63, 100
2, 43004, Note_off_c, 0, 53, 100
2, 43008, Note_on_c, 0, 62, 100
2, 43008, Note_on_c, 0, 58, 100
2, 43388, Note_off_c, 0, 62, 100
2, 43388, Note_off_c, 0, 58, 100
2, 43392, Note_on_c, 0, 70, 80
2, 43392, Note_on_c, 0, 62, 80
2, 43772, Note_off_c, 0, 70, 100
2, 43772, Note_off_c, 0, 62, 100
2, 43776, Note_on_c, 0, 74, 80
2, 43776, Note_on_c, 0, 69, 80
2, 43868, Note_off_c, 0, 74, 100
2, 43868, Note_off_c, 0, 69, 100
2, 43872, Note_on_c, 0, 73, 81
2, 43872, Note_on_c, 0, 70, 81
2, 43964, Note_off_c, 0, 73, 100
2, 43964, Note_off_c, 0, 70, 100
2, 43968, Note_on_c, 0, 74, 83
2, 43968, Note_on_c, 0, 69, 83
2, 44060, Note_off_c, 0, 74, 100
2, 44060, Note_off_c, 0, 69, 100
2, 44064, Note_on_c, 0, 73, 85
2, 44064, Note_on_c, 0, 70, 85
2, 44156, Note_off_c, 0, 73, 100
2, 44156, Note_off_c, 0, 70, 100
2, 44160, Note_on_c, 0, 74, 87
2, 44160, Note_on_c, 0, 69, 87
2, 44252, Note_off_c, 0, 74, 100
2, 44252, Note_off_c, 0, 69, 100
2, 44256, Note_on_c, 0, 73, 89
2, 44256, Note_on_c, 0, 70, 89
2, 44348, Note_off_c, 0, 73, 100
2, 44348, Note_off_c, 0, 70, 100
2, 44352, Note_on_c, 0, 74, 91
2, 44352, Note_on_c, 0, 69, 91
2, 44444, Note_off_c, 0, 74, 100
2, 44444, Note_off_c, 0, 69, 100
2, 44448, Note_on_c, 0, 73, 93
2, 44448, Note_on_c, 0, 70, 93
2, 44540, Note_off_c, 0, 73, 100
2, 44540, Note_off_c, 0, 70, 100
2, 44544, Note_on_c, 0, 74, 94
2, 44544, Note_on_c, 0, 69, 94
2, 44636, Note_off_c, 0, 74, 100
2, 44636, Note_off_c, 0, 69, 100
2, 44640, Note_on_c, 0, 73, 96
2, 44640, Note_on_c, 0, 70, 96
2, 44732, Note_off_c, 0, 73, 100
2, 44732, Note_off_c, 0, 70, 100
2, 44736, Note_on_c, 0, 74, 98
2, 44736, Note_on_c, 0, 69, 98
2, 44828, Note_off_c, 0, 74, 100
2, 44828, Note_off_c, 0, 69, 100
2, 44832, Note_on_c, 0, 73, 100
2, 44832, Note_on_c, 0, 70, 100
2, 44924, Note_off_c, 0, 73, 100
2, 44924, Note_off_c, 0, 70, 100
2, 44928, Note_on_c, 0, 74, 102
2, 44928, Note_on_c, 0, 69, 102
2, 45020, Note_off_c, 0, 74, 100
2, 45020, Note_off_c, 0, 69, 100
2, 45024, Note_on_c, 0, 73, 104
2, 45024, Note_on_c, 0, 70, 104
2, 45116, Note_off_c, 0, 73, 100
2, 45116, Note_off_c, 0, 70, 100
2, 45120, Note_on_c, 0, 74, 106
2, 45120, Note_on_c, 0, 69, 106
2, 45212, Note_off_c, 0, 74, 100
2, 45212, Note_off_c, 0, 69, 100
2, 45216, Note_on_c, 0, 73, 108
2, 45216, Note_on_c, 0, 70, 108
2, 45308, Note_off_c, 0, 73, 100
2, 45308, Note_off_c, 0, 70, 100
2, 45312, Note_on_c, 0, 74, 109
2, 45312, Note_on_c, 0, 69, 109
2, 45500, Note_off_c, 0, 74, 100
2, 45500, Note_off_c, 0, 69, 100
2, 45696, Note_on_c, 0, 86, 120
2, 45696, Note_on_c, 0, 78, 120
2, 46268, Note_off_c, 0, 86, 100
2, 46268, Note_off_c, 0, 78, 100
2, 46272, Note_on_c, 0, 84, 120
2, 46272, Note_on_c, 0, 78, 120
2, 46460, Note_off_c, 0, 84, 100
2, 46460, Note_off_c, 0, 78, 100
2, 46464, Note_on_c, 0, 82, 120
2, 46464, Note_on_c, 0, 79, 120
2, 46748, Note_off_c, 0, 82, 100
2, 46748, Note_off_c, 0, 79, 100
2, 46752, Note_on_c, 0, 81, 120
2, 46752, Note_on_c, 0, 75, 120
2, 46844, Note_off_c, 0, 81, 100
2, 46844, Note_off_c, 0, 75, 100
2, 46848, Note_on_c, 0, 79, 120
2, 46848, Note_on_c, 0, 70, 120
2, 47228, Note_off_c, 0, 79, 100
2, 47228, Note_off_c, 0, 70, 100
2, 47232, Note_on_c, 0, 78, 120
2, 47232, Note_on_c, 0, 72, 120
2, 47612, Note_off_c, 0, 78, 100
2, 47612, Note_off_c, 0, 72, 100
2, 47616, Note_on_c, 0, 81, 120
2, 47616, Note_on_c, 0, 72, 120
2, 47996, Note_off_c, 0, 81, 100
2, 47996, Note_off_c, 0, 72, 100
2, 48000, Note_on_c, 0, 79, 120
2, 48000, Note_on_c, 0, 70, 120
2, 48188, Note_off_c, 0, 79, 100
2, 48188, Note_off_c, 0, 70, 100
2, 48384, Note_on_c, 0, 56, 80
2, 48384, Note_on_c, 0, 58, 80
2, 48476, Note_off_c, 0, 56, 100
2, 48476, Note_off_c, 0, 58, 100
2, 48480, Note_on_c, 0, 59, 81
2, 48572, Note_off_c, 0, 59, 100
2, 48576, Note_on_c, 0, 56, 82
2, 48576, Note_on_c, 0, 58, 82
2, 48668, Note_off_c, 0, 56, 100
2, 48668, Note_off_c, 0, 58, 100
2, 48672, Note_on_c, 0, 59, 83
2, 48764, Note_off_c, 0, 59, 100
2, 48768, Note_on_c, 0, 56, 84
2, 48768, Note_on_c, 0, 58, 84
2, 48860, Note_off_c, 0, 56, 100
2, 48860, Note_off_c, 0, 58, 100
2, 48864, Note_on_c, 0, 59, 86
2, 48956, Note_off_c, 0, 59, 100
2, 48960, Note_on_c, 0, 56, 87
2, 48960, Note_on_c, 0, 58, 87
2, 49052, Note_off_c, 0, 56, 100
2, 49052, Note_off_c, 0, 58, 100
2, 49056, Note_on_c, 0, 59, 88
2, 49148, Note_off_c, 0, 59, 100
2, 49152, Note_on_c, 0, 56, 89
2, 49152, Note_on_c, 0, 58, 89
2, 49244, Note_off_c, 0, 56, 100
2, 49244, Note_off_c, 0, 58, 100
2, 49248, Note_on_c, 0, 59, 91
2, 49340, Note_off_c, 0, 59, 100
2, 49344, Note_on_c, 0, 56, 92
2, 49344, Note_on_c, 0, 58, 92
2, 49436, Note_off_c, 0, 56, 100
2, 49436, Note_off_c, 0, 58, 100
2, 49440, Note_on_c, 0, 59, 93
2, 49532, Note_off_c, 0, 59, 100
2, 49536, Note_on_c, 0, 56, 94
2, 49536, Note_on_c, 0, 58, 94
2, 49628, Note_off_c, 0, 56, 100
2, 49628, Note_off_c, 0, 58, 100
2, 49632, Note_on_c, 0, 59, 96
2, 49724, Note_off_c, 0, 59, 100
2, 49728, Note_on_c, 0, 56, 97
2, 49728, Note_on_c, 0, 58, 97
2, 49820, Note_off_c, 0, 56, 100
2, 49820, Note_off_c, 0, 58, 100
2, 49824, Note_on_c, 0, 59, 98
2, 49916, Note_off_c, 0, 59, 100
2, 49920, Note_on_c, 0, 58, 99
2, 49920, Note_on_c, 0, 56, 99
2, 50108, Note_off_c, 0, 58, 100
2, 50108, Note_off_c, 0, 56, 100
2, 50304, Note_on_c, 0, 80, 100
2, 50304, Note_on_c, 0, 71, 100
2, 50876, Note_off_c, 0, 80, 100
2, 50876, Note_off_c, 0, 71, 100
2, 50880, Note_on_c, 0, 79, 80
2, 50880, Note_on_c, 0, 72, 80
2, 51068, Note_off_c, 0, 79, 100
2, 51068, Note_off_c, 0, 72, 100
2, 51072, Note_on_c, 0, 77, 80
2, 51072, Note_on_c, 0, 68, 80
2, 51356, Note_off_c, 0, 77, 100
2, 51356, Note_off_c, 0, 68, 100
2, 51360, Note_on_c, 0, 75, 80
2, 51360, Note_on_c, 0, 67, 80
2, 51452, Note_off_c, 0, 75, 100
2, 51452, Note_off_c, 0, 67, 100
2, 51456, Note_on_c, 0, 74, 80
2, 51456, Note_on_c, 0, 65, 80
2, 51836, Note_off_c, 0, 74, 100
2, 51836, Note_off_c, 0, 65, 100
2, 51840, Note_on_c, 0, 72, 80
2, 51840, Note_on_c, 0, 63, 80
2, 52220, Note_off_c, 0, 72, 100
2, 52220, Note_off_c, 0, 63, 100
2, 52224, Note_on_c, 0, 70, 80
2, 52224, Note_on_c, 0, 62, 80
2, 52604, Note_off_c, 0, 70, 100
2, 52604, Note_off_c, 0, 62, 100
2, 52608, Note_on_c, 0, 69, 80
2, 52608, Note_on_c, 0, 60, 80
2, 52796, Note_off_c, 0, 69, 100
2, 52796, Note_off_c, 0, 60, 100
2, 52992, Note_on_c, 0, 62, 80
2, 53276, Note_off_c, 0, 62, 100
2, 53280, Note_on_c, 0, 63, 80
2, 53372, Note_off_c, 0, 63, 100
2, 53376, Note_on_c, 0, 65, 80
2, 54140, Note_off_c, 0, 65, 100
2, 54144, Note_on_c, 0, 69, 80
2, 54188, Note_off_c, 0, 69, 100
2, 54192, Note_on_c, 0, 67, 80
2, 54236, Note_off_c, 0, 67, 100
2, 54240, Note_on_c, 0, 65, 80
2, 54332, Note_off_c, 0, 65, 100
2, 54336, Note_on_c, 0, 67, 80
2, 54428, Note_off_c, 0, 67, 100
2, 54432, Note_on_c, 0, 69, 80
2, 54524, Note_off_c, 0, 69, 100
2, 54528, Note_on_c, 0, 70, 80
2, 54908, Note_off_c, 0, 70, 100
2, 54912, Note_on_c, 0, 65, 80
2, 55292, Note_off_c, 0, 65, 100
2, 55296, Note_on_c, 0, 69, 80
2, 55340, Note_off_c, 0, 69, 100
2, 55344, Note_on_c, 0, 67, 80
2, 55388, Note_off_c, 0, 67, 100
2, 55392, Note_on_c, 0, 65, 80
2, 55484, Note_off_c, 0, 65, 100
2, 55488, Note_on_c, 0, 67, 80
2, 55580, Note_off_c, 0, 67, 100
2, 55584, Note_on_c, 0, 69, 80
2, 55676, Note_off_c, 0, 69, 100
2, 55680, Note_on_c, 0, 70, 80
2, 55964, Note_off_c, 0, 70, 100
2, 55968, Note_on_c, 0, 69, 80
2, 56060, Note_off_c, 0, 69, 100
2, 56064, Note_on_c, 0, 70, 80
2, 56348, Note_off_c, 0, 70, 100
2, 56352, Note_on_c, 0, 72, 80
2, 56444, Note_off_c, 0, 72, 100
2, 56448, Note_on_c, 0, 74, 80
2, 56732, Note_off_c, 0, 74, 100
2, 56736, Note_on_c, 0, 76, 80
2, 56828, Note_off_c, 0, 76, 100
2, 56832, Note_on_c, 0, 76, 80
2, 56832, Note_on_c, 0, 70, 80
2, 57212, Note_off_c, 0, 76, 100
2, 57212, Note_off_c, 0, 70, 100
2, 57216, Note_on_c, 0, 77, 80
2, 57216, Note_on_c, 0, 69, 80
2, 57404, Note_off_c, 0, 77, 100
2, 57404, Note_off_c, 0, 69, 100
2, 57600, Note_on_c, 0, 77, 80
2, 57644, Note_off_c, 0, 77, 100
2, 57648, Note_on_c, 0, 75, 80
2, 57692, Note_off_c, 0, 75, 100
2, 57696, Note_on_c, 0, 74, 80
2, 57788, Note_off_c, 0, 74, 100
2, 57792, Note_on_c, 0, 75, 80
2, 57884, Note_off_c, 0, 75, 100
2, 57888, Note_on_c, 0, 77, 80
2, 57980, Note_off_c, 0, 77, 100
2, 57984, Note_on_c, 0, 79, 80
2, 58364, Note_off_c, 0, 79, 100
2, 58368, Note_on_c, 0, 72, 80
2, 58748, Note_off_c, 0, 72, 100
2, 58752, Note_on_c, 0, 74, 80
2, 58796, Note_off_c, 0, 74, 100
2, 58800, Note_on_c, 0, 72, 80
2, 58844, Note_off_c, 0, 72, 100
2, 58848, Note_on_c, 0, 71, 80
2, 58940, Note_off_c, 0, 71, 100
2, 58944, Note_on_c, 0, 72, 80
2, 59036, Note_off_c, 0, 72, 100
2, 59040, Note_on_c, 0, 74, 80
2, 59132, Note_off_c, 0, 74, 100
2, 59136, Note_on_c, 0, 75, 80
2, 59516, Note_off_c, 0, 75, 100
2, 59520, Note_on_c, 0, 69, 80
2, 59900, Note_off_c, 0, 69, 100
2, 59904, Note_on_c, 0, 70, 80
2, 59948, Note_off_c, 0, 70, 100
2, 59952, Note_on_c, 0, 69, 80
2, 59996, Note_off_c, 0, 69, 100
2, 60000, Note_on_c, 0, 67, 80
2, 60092, Note_off_c, 0, 67, 100
2, 60096, Note_on_c, 0, 69, 80
2, 60188, Note_off_c, 0, 69, 100
2, 60192, Note_on_c, 0, 70, 80
2, 60284, Note_off_c, 0, 70, 100
2, 60288, Note_on_c, 0, 74, 80
2, 60308, Note_off_c, 0, 74, 100
2, 60336, Note_on_c, 0, 72, 80
2, 60356, Note_off_c, 0, 72, 100
2, 60384, Note_on_c, 0, 71, 80
2, 60476, Note_off_c, 0, 71, 100
2, 60480, Note_on_c, 0, 72, 80
2, 60572, Note_off_c, 0, 72, 100
2, 60576, Note_on_c, 0, 74, 80
2, 60668, Note_off_c, 0, 74, 100
2, 60672, Note_on_c, 0, 77, 80
2, 60692, Note_off_c, 0, 77, 100
2, 60720, Note_on_c, 0, 75, 80
2, 60740, Note_off_c, 0, 75, 100
2, 60768, Note_on_c, 0, 74, 80
2, 60860, Note_off_c, 0, 74, 100
2, 60864, Note_on_c, 0, 75, 80
2, 60956, Note_off_c, 0, 75, 100
2, 60960, Note_on_c, 0, 77, 80
2, 61052, Note_off_c, 0, 77, 100
2, 61056, Note_on_c, 0, 79, 80
2, 61148, Note_off_c, 0, 79, 100
2, 61152, Note_on_c, 0, 75, 80
2, 61244, Note_off_c, 0, 75, 100
2, 61248, Note_on_c, 0, 72, 80
2, 61340, Note_off_c, 0, 72, 100
2, 61344, Note_on_c, 0, 69, 80
2, 61436, Note_off_c, 0, 69, 100
2, 61440, Note_on_c, 0, 70, 80
2, 61820, Note_off_c, 0, 70, 100
2, 62208, Note_on_c, 0, 81, 80
2, 62252, Note_off_c, 0, 81, 100
2, 62256, Note_on_c, 0, 79, 80
2, 62300, Note_off_c, 0, 79, 100
2, 62304, Note_on_c, 0, 78, 80
2, 62396, Note_off_c, 0, 78, 100
2, 62400, Note_on_c, 0, 79, 80
2, 62492, Note_off_c, 0, 79, 100
2, 62496, Note_on_c, 0, 81, 80
2, 62588, Note_off_c, 0, 81, 100
2, 62592, Note_on_c, 0, 82, 80
2, 62972, Note_off_c, 0, 82, 100
2, 62976, Note_on_c, 0, 77, 80
2, 63164, Note_off_c, 0, 77, 100
2, 63360, Note_on_c, 0, 75, 80
2, 63360, Note_on_c, 0, 69, 80
2, 63404, Note_off_c, 0, 69, 100
2, 63408, Note_on_c, 0, 67, 80
2, 63452, Note_off_c, 0, 67, 100
2, 63456, Note_on_c, 0, 65, 80
2, 63548, Note_off_c, 0, 65, 100
2, 63552, Note_on_c, 0, 67, 80
2, 63644, Note_off_c, 0, 67, 100
2, 63648, Note_on_c, 0, 69, 80
2, 63740, Note_off_c, 0, 75, 100
2, 63740, Note_off_c, 0, 69, 100
2, 63744, Note_on_c, 0, 74, 80
2, 63744, Note_on_c, 0, 70, 80
2, 64124, Note_off_c, 0, 74, 100
2, 64124, Note_off_c, 0, 70, 100
2, 64128, Note_on_c, 0, 65, 80
2, 64316, Note_off_c, 0, 65, 100
2, 64512, Note_on_c, 0, 69, 80
2, 64556, Note_off_c, 0, 69, 100
2, 64560, Note_on_c, 0, 67, 80
2, 64604, Note_off_c, 0, 67, 100
2, 64608, Note_on_c, 0, 66, 80
2, 64700, Note_off_c, 0, 66, 100
2, 64704, Note_on_c, 0, 67, 80
2, 64796, Note_off_c, 0, 67, 100
2, 64800, Note_on_c, 0, 69, 80
2, 64892, Note_off_c, 0, 69, 100
2, 64896, Note_on_c, 0, 70, 80
2, 65276, Note_off_c, 0, 70, 100
2, 65280, Note_on_c, 0, 65, 80
2, 65468, Note_off_c, 0, 65, 100
2, 65664, Note_on_c, 0, 63, 80
2, 65664, Note_on_c, 0, 57, 80
2, 65708, Note_off_c, 0, 57, 100
2, 65712, Note_on_c, 0, 55, 80
2, 65756, Note_off_c, 0, 55, 100
2, 65760, Note_on_c, 0, 53, 80
2, 65852, Note_off_c, 0, 53, 100
2, 65856, Note_on_c, 0, 55, 81
2, 65948, Note_off_c, 0, 55, 100
2, 65952, Note_on_c, 0, 57, 82
2, 66044, Note_off_c, 0, 63, 100
2, 66044, Note_off_c, 0, 57, 100
2, 66048, Note_on_c, 0, 58, 82
2, 66048, Note_on_c, 0, 62, 82
2, 66236, Note_off_c, 0, 58, 100
2, 66240, Note_on_c, 0, 53, 84
2, 66428, Note_off_c, 0, 62, 100
2, 66428, Note_off_c, 0, 53, 100
2, 66432, Note_on_c, 0, 63, 85
2, 66432, Note_on_c, 0, 57, 85
2, 66476, Note_off_c, 0, 57, 100
2, 66480, Note_on_c, 0, 55, 86
2, 66524, Note_off_c, 0, 55, 100
2, 66528, Note_on_c, 0, 53, 86
2, 66620, Note_off_c, 0, 53, 100
2, 66624, Note_on_c, 0, 55, 87
2, 66716, Note_off_c, 0, 55, 100
2, 66720, Note_on_c, 0, 57, 88
2, 66812, Note_off_c, 0, 63, 100
2, 66812, Note_off_c, 0, 57, 100
2, 66816, Note_on_c, 0, 58, 88
2, 66816, Note_on_c, 0, 62, 88
2, 67004, Note_off_c, 0, 58, 100
2, 67008, Note_on_c, 0, 53, 90
2, 67196, Note_off_c, 0, 62, 100
2, 67196, Note_off_c, 0, 53, 100
2, 67200, Note_on_c, 0, 63, 91
2, 67200, Note_on_c, 0, 57, 91
2, 67244, Note_off_c, 0, 57, 100
2, 67248, Note_on_c, 0, 55, 92
2, 67292, Note_off_c, 0, 55, 100
2, 67296, Note_on_c, 0, 53, 92
2, 67388, Note_off_c, 0, 53, 100
2, 67392, Note_on_c, 0, 55, 93
2, 67484, Note_off_c, 0, 55, 100
2, 67488, Note_on_c, 0, 57, 94
2, 67580, Note_off_c, 0, 63, 100
2, 67580, Note_off_c, 0, 57, 100
2, 67584, Note_on_c, 0, 62, 94
2, 67584, Note_on_c, 0, 58, 94
2, 67676, Note_off_c, 0, 58, 100
2, 67680, Note_on_c, 0, 53, 95
2, 67772, Note_off_c, 0, 62, 100
2, 67772, Note_off_c, 0, 53, 100
2, 67776, Note_on_c, 0, 63, 96
2, 67776, Note_on_c, 0, 57, 96
2, 67868, Note_off_c, 0, 57, 100
2, 67872, Note_on_c, 0, 53, 97
2, 67964, Note_off_c, 0, 63, 100
2, 67964, Note_off_c, 0, 53, 100
2, 67968, Note_on_c, 0, 62, 97
2, 67968, Note_on_c, 0, 58, 97
2, 68060, Note_off_c, 0, 58, 100
2, 68064, Note_on_c, 0, 53, 98
2, 68156, Note_off_c, 0, 62, 100
2, 68156, Note_off_c, 0, 53, 100
2, 68160, Note_on_c, 0, 63, 99
2, 68160, Note_on_c, 0, 57, 99
2, 68252, Note_off_c, 0, 57, 100
2, 68256, Note_on_c, 0, 53, 99
2, 68348, Note_off_c, 0, 63, 100
2, 68348, Note_off_c, 0, 53, 100
2, 68352, Note_on_c, 0, 62, 100
2, 68352, Note_on_c, 0, 58, 100
2, 68732, Note_off_c, 0, 62, 100
2, 68732, Note_off_c, 0, 58, 100
2, 68736, Note_on_c, 0, 70, 80
2, 68736, Note_on_c, 0, 62, 80
2, 69116, Note_off_c, 0, 70, 100
2, 69116, Note_off_c, 0, 62, 100
2, 69888, Note_on_c, 0, 74, 110
2, 69888, Note_on_c, 0, 62, 110
2, 69888, Note_on_c, 0, 70, 110
2, 69888, Note_on_c, 0, 67, 110
2, 70652, Note_off_c, 0, 70, 100
2, 70652, Note_off_c, 0, 67, 100
2, 70656, Note_on_c, 0, 69, 110
2, 70656, Note_on_c, 0, 72, 110
2, 71036, Note_off_c, 0, 62, 100
2, 71036, Note_off_c, 0, 74, 100
2, 71036, Note_off_c, 0, 69, 100
2, 71036, Note_off_c, 0, 72, 100
2, 71040, Note_on_c, 0, 74, 110
2, 71040, Note_on_c, 0, 62, 110
2, 71040, Note_on_c, 0, 69, 110
2, 71040, Note_on_c, 0, 66, 110
2, 71804, Note_off_c, 0, 69, 100
2, 71804, Note_off_c, 0, 66, 100
2, 71808, Note_on_c, 0, 70, 110
2, 71808, Note_on_c, 0, 67, 110
2, 72188, Note_off_c, 0, 62, 100
2, 72188, Note_off_c, 0, 74, 100
2, 72188, Note_off_c, 0, 70, 100
2, 72188, Note_off_c, 0, 67, 100
2, 72192, Note_on_c, 0, 79, 110
2, 72192, Note_on_c, 0, 70, 110
2, 72192, Note_on_c, 0, 67, 110
2, 72956, Note_off_c, 0, 79, 100
2, 72956, Note_off_c, 0, 70, 100
2, 72956, Note_off_c, 0, 67, 100
2, 72960, Note_on_c, 0, 78, 110
2, 72960, Note_on_c, 0, 69, 110
2, 72960, Note_on_c, 0, 66, 110
2, 73340, Note_off_c, 0, 78, 100
2, 73340, Note_off_c, 0, 69, 100
2, 73340, Note_off_c, 0, 66, 100
2, 74496, Note_on_c, 0, 79, 110
2, 74496, Note_on_c, 0, 70, 110
2, 74496, Note_on_c, 0, 67, 110
2, 74496, Note_on_c, 0, 74, 110
2, 74876, Note_off_c, 0, 74, 100
2, 74880, Note_on_c, 0, 73, 110
2, 75260, Note_off_c, 0, 73, 100
2, 75264, Note_on_c, 0, 76, 110
2, 75644, Note_off_c, 0, 67, 100
2, 75644, Note_off_c, 0, 70, 100
2, 75644, Note_off_c, 0, 79, 100
2, 75644, Note_off_c, 0, 76, 100
2, 75648, Note_on_c, 0, 85, 110
2, 75648, Note_on_c, 0, 73, 110
2, 75648, Note_on_c, 0, 76, 110
2, 76028, Note_off_c, 0, 76, 100
2, 76032, Note_on_c, 0, 79, 110
2, 76412, Note_off_c, 0, 85, 100
2, 76412, Note_off_c, 0, 73, 100
2, 76412, Note_off_c, 0, 79, 100
2, 76416, Note_on_c, 0, 86, 110
2, 76416, Note_on_c, 0, 77, 110
2, 76416, Note_on_c, 0, 74, 110
2, 76796, Note_off_c, 0, 86, 100
2, 76796, Note_off_c, 0, 77, 100
2, 76796, Note_off_c, 0, 74, 100
2, 76800, Note_on_c, 0, 86, 110
2, 76800, Note_on_c, 0, 76, 110
2, 76800, Note_on_c, 0, 74, 110
2, 77180, Note_off_c, 0, 86, 100
2, 77180, Note_off_c, 0, 76, 100
2, 77180, Note_off_c, 0, 74, 100
2, 77184, Note_on_c, 0, 85, 110
2, 77184, Note_on_c, 0, 76, 110
2, 77184, Note_on_c, 0, 73, 110
2, 77564, Note_off_c, 0, 85, 100
2, 77564, Note_off_c, 0, 76, 100
2, 77564, Note_off_c, 0, 73, 100
2, 77568, Note_on_c, 0, 74, 110
2, 77568, Note_on_c, 0, 86, 110
2, 77568, Note_on_c, 0, 77, 110
2, 77948, Note_off_c, 0, 74, 100
2, 77948, Note_off_c, 0, 86, 100
2, 77948, Note_off_c, 0, 77, 100
2, 79104, Note_on_c, 0, 74, 110
2, 79104, Note_on_c, 0, 62, 110
2, 79104, Note_on_c, 0, 70, 110
2, 79104, Note_on_c, 0, 67, 110
2, 79868, Note_off_c, 0, 70, 100
2, 79868, Note_off_c, 0, 67, 100
2, 79872, Note_on_c, 0, 69, 110
2, 79872, Note_on_c, 0, 72, 110
2, 80252, Note_off_c, 0, 62, 100
2, 80252, Note_off_c, 0, 74, 100
2, 80252, Note_off_c, 0, 69, 100
2, 80252, Note_off_c, 0, 72, 100
2, 80256, Note_on_c, 0, 74, 110
2, 80256, Note_on_c, 0, 62, 110
2, 80256, Note_on_c, 0, 69, 110
2, 80256, Note_on_c, 0, 66, 110
2, 81020, Note_off_c, 0, 69, 100
2, 81020, Note_off_c, 0, 66, 100
2, 81024, Note_on_c, 0, 70, 110
2, 81024, Note_on_c, 0, 67, 110
2, 81404, Note_off_c, 0, 62, 100
2, 81404, Note_off_c, 0, 74, 100
2, 81404, Note_off_c, 0, 70, 100
2, 81404, Note_off_c, 0, 67, 100
2, 81408, Note_on_c, 0, 79, 110
2, 81408, Note_on_c, 0, 70, 110
2, 81408, Note_on_c, 0, 67, 110
2, 82172, Note_off_c, 0, 79, 100
2, 82172, Note_off_c, 0, 70, 100
2, 82172, Note_off_c, 0, 67, 100
2, 82176, Note_on_c, 0, 78, 110
2, 82176, Note_on_c, 0, 69, 110
2, 82176, Note_on_c, 0, 66, 110
2, 82556, Note_off_c, 0, 78, 100
2, 82556, Note_off_c, 0, 69, 100
2, 82556, Note_off_c, 0, 66, 100
2, 83712, Note_on_c, 0, 79, 110
2, 83712, Note_on_c, 0, 70, 110
2, 83712, Note_on_c, 0, 67, 110
2, 83712, Note_on_c, 0, 74, 110
2, 84092, Note_off_c, 0, 74, 100
2, 84096, Note_on_c, 0, 73, 110
2, 84476, Note_off_c, 0, 73, 100
2, 84480, Note_on_c, 0, 76, 110
2, 84860, Note_off_c, 0, 67, 100
2, 84860, Note_off_c, 0, 70, 100
2, 84860, Note_off_c, 0, 79, 100
2, 84860, Note_off_c, 0, 76, 100
2, 84864, Note_on_c, 0, 85, 110
2, 84864, Note_on_c, 0, 73, 110
2, 84864, Note_on_c, 0, 76, 110
2, 85244, Note_off_c, 0, 76, 100
2, 85248, Note_on_c, 0, 79, 110
2, 85628, Note_off_c, 0, 85, 100
2, 85628, Note_off_c, 0, 73, 100
2, 85628, Note_off_c, 0, 79, 100
2, 85632, Note_on_c, 0, 86, 110
2, 85632, Note_on_c, 0, 77, 110
2, 85632, Note_on_c, 0, 74, 110
2, 86012, Note_off_c, 0, 86, 100
2, 86012, Note_off_c, 0, 77, 100
2, 86012, Note_off_c, 0, 74, 100
2, 86016, Note_on_c, 0, 86, 110
2, 86016, Note_on_c, 0, 76, 110
2, 86016, Note_on_c, 0, 74, 110
2, 86396, Note_off_c, 0, 86, 100
2, 86396, Note_off_c, 0, 76, 100
2, 86396, Note_off_c, 0, 74, 100
2, 86400, Note_on_c, 0, 85, 110
2, 86400, Note_on_c, 0, 76, 110
2, 86400, Note_on_c, 0, 73, 110
2, 86780, Note_off_c, 0, 85, 100
2, 86780, Note_off_c, 0, 76, 100
2, 86780, Note_off_c, 0, 73, 100
2, 86784, Control_c, 0, 64, 127
2, 86784, Note_on_c, 0, 74, 110
2, 86784, Note_on_c, 0, 86, 110
2, 86784, Note_on_c, 0, 77, 110
2, 87160, Control_c, 0, 64, 0
2, 87164, Note_off_c, 0, 74, 100
2, 87164, Note_off_c, 0, 86, 100
2, 87164, Note_off_c, 0, 77, 100
2, 87168, Control_c, 0, 64, 127
2, 87544, Control_c, 0, 64, 0
2, 87552, Control_c, 0, 64, 127
2, 87552, Note_on_c, 0, 80, 110
2, 87644, Note_off_c, 0, 80, 100
2, 87648, Note_on_c, 0, 82, 110
2, 87740, Note_off_c, 0, 82, 100
2, 87744, Note_on_c, 0, 80, 110
2, 87836, Note_off_c, 0, 80, 100
2, 87840, Note_on_c, 0, 79, 110
2, 87928, Control_c, 0, 64, 0
2, 87932, Note_off_c, 0, 79, 100
2, 87936, Control_c, 0, 64, 127
2, 87936, Note_on_c, 0, 77, 110
2, 88028, Note_off_c, 0, 77, 100
2, 88032, Note_on_c, 0, 79, 110
2, 88124, Note_off_c, 0, 79, 100
2, 88128, Note_on_c, 0, 77, 110
2, 88220, Note_off_c, 0, 77, 100
2, 88224, Note_on_c, 0, 75, 110
2, 88312, Control_c, 0, 64, 0
2, 88316, Note_off_c, 0, 75, 100
2, 88320, Control_c, 0, 64, 127
2, 88320, Note_on_c, 0, 74, 110
2, 88412, Note_off_c, 0, 74, 100
2, 88416, Note_on_c, 0, 75, 110
2, 88508, Note_off_c, 0, 75, 100
2, 88512, Note_on_c, 0, 74, 110
2, 88604, Note_off_c, 0, 74, 100
2, 88608, Note_on_c, 0, 72, 110
2, 88696, Control_c, 0, 64, 0
2, 88700, Note_off_c, 0, 72, 100
2, 88704, Control_c, 0, 64, 127
2, 88704, Note_on_c, 0, 79, 110
2, 88704, Note_on_c, 0, 71, 110
2, 88796, Note_off_c, 0, 79, 100
2, 88800, Note_on_c, 0, 80, 110
2, 88892, Note_off_c, 0, 80, 100
2, 88896, Note_on_c, 0, 79, 110
2, 88988, Note_off_c, 0, 79, 100
2, 88992, Note_on_c, 0, 77, 110
2, 89080, Control_c, 0, 64, 0
2, 89084, Note_off_c, 0, 71, 100
2, 89084, Note_off_c, 0, 77, 100
2, 89088, Control_c, 0, 64, 127
2, 89088, Note_on_c, 0, 72, 110
2, 89088, Note_on_c, 0, 75, 110
2, 89180, Note_off_c, 0, 75, 100
2, 89184, Note_on_c, 0, 77, 110
2, 89276, Note_off_c, 0, 72, 100
2, 89276, Note_off_c, 0, 77, 100
2, 89280, Note_on_c, 0, 75, 110
2, 89372, Note_off_c, 0, 75, 100
2, 89376, Note_on_c, 0, 74, 110
2, 89464, Control_c, 0, 64, 0
2, 89468, Note_off_c, 0, 74, 100
2, 89472, Control_c, 0, 64, 127
2, 89472, Note_on_c, 0, 72, 110
2, 89568, Note_on_c, 0, 71, 110
2, 89660, Note_off_c, 0, 72, 100
2, 89660, Note_off_c, 0, 71, 100
2, 89664, Note_on_c, 0, 72, 110
2, 89756, Note_off_c, 0, 72, 100
2, 89760, Note_on_c, 0, 74, 110
2, 89848, Control_c, 0, 64, 0
2, 89852, Note_off_c, 0, 74, 100
2, 89856, Control_c, 0, 64, 127
2, 89856, Note_on_c, 0, 75, 110
2, 89948, Note_off_c, 0, 75, 100
2, 89952, Note_on_c, 0, 77, 110
2, 90044, Note_off_c, 0, 77, 100
2, 90048, Note_on_c, 0, 75, 110
2, 90140, Note_off_c, 0, 75, 100
2, 90144, Note_on_c, 0, 74, 110
2, 90232, Control_c, 0, 64, 0
2, 90236, Note_off_c, 0, 74, 100
2, 90240, Control_c, 0, 64, 127
2, 90240, Note_on_c, 0, 72, 110
2, 90332, Note_off_c, 0, 72, 100
2, 90336, Note_on_c, 0, 74, 110
2, 90428, Note_off_c, 0, 74, 100
2, 90432, Note_on_c, 0, 72, 110
2, 90524, Note_off_c, 0, 72, 100
2, 90528, Note_on_c, 0, 70, 110
2, 90616, Control_c, 0, 64, 0
2, 90620, Note_off_c, 0, 70, 100
2, 90624, Control_c, 0, 64, 127
2, 90624, Note_on_c, 0, 69, 110
2, 90716, Note_off_c, 0, 69, 100
2, 90720, Note_on_c, 0, 70, 110
2, 90812, Note_off_c, 0, 70, 100
2, 90816, Note_on_c, 0, 69, 110
2, 90908, Note_off_c, 0, 69, 100
2, 90912, Note_on_c, 0, 67, 110
2, 91000, Control_c, 0, 64, 0
2, 91004, Note_off_c, 0, 67, 100
2, 91008, Control_c, 0, 64, 127
2, 91008, Note_on_c, 0, 74, 110
2, 91008, Note_on_c, 0, 66, 110
2, 91100, Note_off_c, 0, 74, 100
2, 91104, Note_on_c, 0, 75, 110
2, 91196, Note_off_c, 0, 75, 100
2, 91200, Note_on_c, 0, 74, 110
2, 91292, Note_off_c, 0, 74, 100
2, 91296, Note_on_c, 0, 72, 110
2, 91384, Control_c, 0, 64, 0
2, 91388, Note_off_c, 0, 66, 100
2, 91388, Note_off_c, 0, 72, 100
2, 91392, Control_c, 0, 64, 127
2, 91392, Note_on_c, 0, 67, 110
2, 91392, Note_on_c, 0, 70, 110
2, 91484, Note_off_c, 0, 70, 100
2, 91488, Note_on_c, 0, 72, 110
2, 91580, Note_off_c, 0, 67, 100
2, 91580, Note_off_c, 0, 72, 100
2, 91584, Note_on_c, 0, 70, 110
2, 91676, Note_off_c, 0, 70, 100
2, 91680, Note_on_c, 0, 69, 110
2, 91768, Control_c, 0, 64, 0
2, 91772, Note_off_c, 0, 69, 100
2, 91776, Control_c, 0, 64, 127
2, 91776, Note_on_c, 0, 67, 110
2, 91868, Note_off_c, 0, 67, 100
2, 91872, Note_on_c, 0, 65, 110
2, 91964, Note_off_c, 0, 65, 100
2, 91968, Note_on_c, 0, 67, 110
2, 92060, Note_off_c, 0, 67, 100
2, 92064, Note_on_c, 0, 69, 110
2, 92152, Control_c, 0, 64, 0
2, 92156, Note_off_c, 0, 69, 100
2, 92160, Control_c, 0, 64, 127
2, 92160, Note_on_c, 0, 74, 110
2, 92160, Note_on_c, 0, 70, 110
2, 92160, Note_on_c, 0, 67, 110
2, 92536, Control_c, 0, 64, 0
2, 92924, Note_off_c, 0, 67, 100
2, 92924, Note_off_c, 0, 70, 100
2, 92924, Note_off_c, 0, 74, 100
2, 92928, Note_on_c, 0, 79, 110
2, 92928, Note_on_c, 0, 67, 110
2, 92928, Note_on_c, 0, 74, 110
2, 92928, Note_on_c, 0, 70, 110
2, 93692, Note_off_c, 0, 74, 100
2, 93692, Note_off_c, 0, 70, 100
2, 93696, Note_on_c, 0, 75, 110
2, 93696, Note_on_c, 0, 72, 110
2, 94076, Note_off_c, 0, 67, 100
2, 94076, Note_off_c, 0, 79, 100
2, 94076, Note_off_c, 0, 75, 100
2, 94076, Note_off_c, 0, 72, 100
2, 94080, Note_on_c, 0, 84, 110
2, 94080, Note_on_c, 0, 72, 110
2, 94080, Note_on_c, 0, 75, 110
2, 94460, Note_off_c, 0, 75, 100
2, 94464, Note_on_c, 0, 81, 110
2, 94848, Note_on_c, 0, 78, 110
2, 95228, Note_off_c, 0, 72, 100
2, 95228, Note_off_c, 0, 81, 100
2, 95228, Note_off_c, 0, 84, 100
2, 95228, Note_off_c, 0, 78, 100
2, 95232, Note_on_c, 0, 79, 110
2, 95232, Note_on_c, 0, 82, 110
2, 95232, Note_on_c, 0, 74, 110
2, 95232, Note_on_c, 0, 70, 110
2, 95612, Note_off_c, 0, 79, 100
2, 95612, Note_off_c, 0, 82, 100
2, 95612, Note_off_c, 0, 74, 100
2, 95612, Note_off_c, 0, 70, 100
2, 95616, Note_on_c, 0, 78, 110
2, 95616, Note_on_c, 0, 74, 110
2, 95616, Note_on_c, 0, 69, 110
2, 95616, Note_on_c, 0, 66, 110
2, 95996, Note_off_c, 0, 78, 100
2, 95996, Note_off_c, 0, 74, 100
2, 95996, Note_off_c, 0, 69, 100
2, 95996, Note_off_c, 0, 66, 100
2, 96000, Control_c, 0, 64, 127
2, 96000, Note_on_c, 0, 79, 110
2, 96000, Note_on_c, 0, 74, 110
2, 96000, Note_on_c, 0, 70, 110
2, 96000, Note_on_c, 0, 67, 110
2, 96376, Control_c, 0, 64, 0
2, 96380, Note_off_c, 0, 79, 100
2, 96380, Note_off_c, 0, 74, 100
2, 96380, Note_off_c, 0, 70, 100
2, 96380, Note_off_c, 0, 67, 100
2, 96384, Control_c, 0, 64, 127
2, 96760, Control_c, 0, 64, 0
2, 96768, Control_c, 0, 64, 127
2, 96768, Note_on_c, 0, 80, 110
2, 96860, Note_off_c, 0, 80, 100
2, 96864, Note_on_c, 0, 82, 110
2, 96956, Note_off_c, 0, 82, 100
2, 96960, Note_on_c, 0, 80, 110
2, 97052, Note_off_c, 0, 80, 100
2, 97056, Note_on_c, 0, 79, 110
2, 97144, Control_c, 0, 64, 0
2, 97148, Note_off_c, 0, 79, 100
2, 97152, Control_c, 0, 64, 127
2, 97152, Note_on_c, 0, 77, 110
2, 97244, Note_off_c, 0, 77, 100
2, 97248, Note_on_c, 0, 79, 110
2, 97340, Note_off_c, 0, 79, 100
2, 97344, Note_on_c, 0, 77, 110
2, 97436, Note_off_c, 0, 77, 100
2, 97440, Note_on_c, 0, 75, 110
2, 97528, Control_c, 0, 64, 0
2, 97532, Note_off_c, 0, 75, 100
2, 97536, Control_c, 0, 64, 127
2, 97536, Note_on_c, 0, 74, 110
2, 97628, Note_off_c, 0, 74, 100
2, 97632, Note_on_c, 0, 75, 110
2, 97724, Note_off_c, 0, 75, 100
2, 97728, Note_on_c, 0, 74, 110
2, 97820, Note_off_c, 0, 74, 100
2, 97824, Note_on_c, 0, 72, 110
2, 97912, Control_c, 0, 64, 0
2, 97916, Note_off_c, 0, 72, 100
2, 97920, Control_c, 0, 64, 127
2, 97920, Note_on_c, 0, 79, 110
2, 97920, Note_on_c, 0, 71, 110
2, 98012, Note_off_c, 0, 79, 100
2, 98016, Note_on_c, 0, 80, 110
2, 98108, Note_off_c, 0, 80, 100
2, 98112, Note_on_c, 0, 79, 110
2, 98204, Note_off_c, 0, 79, 100
2, 98208, Note_on_c, 0, 77, 110
2, 98296, Control_c, 0, 64, 0
2, 98300, Note_off_c, 0, 71, 100
2, 98300, Note_off_c, 0, 77, 100
2, 98304, Control_c, 0, 64, 127
2, 98304, Note_on_c, 0, 72, 110
2, 98304, Note_on_c, 0, 75, 110
2, 98396, Note_off_c, 0, 75, 100
2, 98400, Note_on_c, 0, 77, 110
2, 98492, Note_off_c, 0, 72, 100
2, 98492, Note_off_c, 0, 77, 100
2, 98496, Note_on_c, 0, 75, 110
2, 98588, Note_off_c, 0, 75, 100
2, 98592, Note_on_c, 0, 74, 110
2, 98680, Control_c, 0, 64, 0
2, 98684, Note_off_c, 0, 74, 100
2, 98688, Control_c, 0, 64, 127
2, 98688, Note_on_c, 0, 72, 110
2, 98784, Note_on_c, 0, 71, 110
2, 98876, Note_off_c, 0, 72, 100
2, 98876, Note_off_c, 0, 71, 100
2, 98880, Note_on_c, 0, 72, 110
2, 98972, Note_off_c, 0, 72, 100
2, 98976, Note_on_c, 0, 74, 110
2, 99064, Control_c, 0, 64, 0
2, 99068, Note_off_c, 0, 74, 100
2, 99072, Control_c, 0, 64, 127
2, 99072, Note_on_c, 0, 75, 110
2, 99164, Note_off_c, 0, 75, 100
2, 99168, Note_on_c, 0, 77, 110
2, 99260, Note_off_c, 0, 77, 100
2, 99264, Note_on_c, 0, 75, 110
2, 99356, Note_off_c, 0, 75, 100
2, 99360, Note_on_c, 0, 74, 110
2, 99448, Control_c, 0, 64, 0
2, 99452, Note_off_c, 0, 74, 100
2, 99456, Control_c, 0, 64, 127
2, 99456, Note_on_c, 0, 72, 110
2, 99548, Note_off_c, 0, 72, 100
2, 99552, Note_on_c, 0, 74, 110
2, 99644, Note_off_c, 0, 74, 100
2, 99648, Note_on_c, 0, 72, 110
2, 99740, Note_off_c, 0, 72, 100
2, 99744, Note_on_c, 0, 70, 110
2, 99832, Control_c, 0, 64, 0
2, 99836, Note_off_c, 0, 70, 100
2, 99840, Control_c, 0, 64, 127
2, 99840, Note_on_c, 0, 69, 110
2, 99932, Note_off_c, 0, 69, 100
2, 99936, Note_on_c, 0, 70, 110
2, 100028, Note_off_c, 0, 70, 100
2, 100032, Note_on_c, 0, 69, 110
2, 100124, Note_off_c, 0, 69, 100
2, 100128, Note_on_c, 0, 67, 110
2, 100216, Control_c, 0, 64, 0
2, 100220, Note_off_c, 0, 67, 100
2, 100224, Control_c, 0, 64, 127
2, 100224, Note_on_c, 0, 74, 110
2, 100224, Note_on_c, 0, 66, 110
2, 100316, Note_off_c, 0, 74, 100
2, 100320, Note_on_c, 0, 75, 110
2, 100412, Note_off_c, 0, 75, 100
2, 100416, Note_on_c, 0, 74, 110
2, 100508, Note_off_c, 0, 74, 100
2, 100512, Note_on_c, 0, 72, 110
2, 100600, Control_c, 0, 64, 0
2, 100604, Note_off_c, 0, 66, 100
2, 100604, Note_off_c, 0, 72, 100
2, 100608, Control_c, 0, 64, 127
2, 100608, Note_on_c, 0, 67, 110
2, 100608, Note_on_c, 0, 70, 110
2, 100700, Note_off_c, 0, 70, 100
2, 100704, Note_on_c, 0, 72, 110
2, 100796, Note_off_c, 0, 67, 100
2, 100796, Note_off_c, 0, 72, 100
2, 100800, Note_on_c, 0, 70, 110
2, 100892, Note_off_c, 0, 70, 100
2, 100896, Note_on_c, 0, 69, 110
2, 100984, Control_c, 0, 64, 0
2, 100988, Note_off_c, 0, 69, 100
2, 100992, Control_c, 0, 64, 127
2, 100992, Note_on_c, 0, 67, 110
2, 101084, Note_off_c, 0, 67, 100
2, 101088, Note_on_c, 0, 65, 110
2, 101180, Note_off_c, 0, 65, 100
2, 101184, Note_on_c, 0, 67, 110
2, 101276, Note_off_c, 0, 67, 100
2, 101280, Note_on_c, 0, 69, 110
2, 101368, Control_c, 0, 64, 0
2, 101372, Note_off_c, 0, 69, 100
2, 101376, Control_c, 0, 64, 127
2, 101376, Note_on_c, 0, 74, 110
2, 101376, Note_on_c, 0, 70, 110
2, 101376, Note_on_c, 0, 67, 110
2, 101752, Control_c, 0, 64, 0
2, 102140, Note_off_c, 0, 67, 100
2, 102140, Note_off_c, 0, 70, 100
2, 102140, Note_off_c, 0, 74, 100
2, 102144, Note_on_c, 0, 79, 110
2, 102144, Note_on_c, 0, 67, 110
2, 102144, Note_on_c, 0, 74, 110
2, 102144, Note_on_c, 0, 70, 110
2, 102908, Note_off_c, 0, 74, 100
2, 102908, Note_off_c, 0, 70, 100
2, 102912, Note_on_c, 0, 75, 110
2, 102912, Note_on_c, 0, 72, 110
2, 103292, Note_off_c, 0, 67, 100
2, 103292, Note_off_c, 0, 79, 100
2, 103292, Note_off_c, 0, 75, 100
2, 103292, Note_off_c, 0, 72, 100
2, 103296, Note_on_c, 0, 84, 110
2, 103296, Note_on_c, 0, 72, 110
2, 103296, Note_on_c, 0, 75, 110
2, 103676, Note_off_c, 0, 75, 100
2, 103680, Note_on_c, 0, 81, 110
2, 104064, Note_on_c, 0, 78, 110
2, 104444, Note_off_c, 0, 72, 100
2, 104444, Note_off_c, 0, 81, 100
2, 104444, Note_off_c, 0, 84, 100
2, 104444, Note_off_c, 0, 78, 100
2, 104448, Note_on_c, 0, 79, 110
2, 104448, Note_on_c, 0, 82, 110
2, 104448, Note_on_c, 0, 74, 110
2, 104448, Note_on_c, 0, 70, 110
2, 104828, Note_off_c, 0, 79, 100
2, 104828, Note_off_c, 0, 82, 100
2, 104828, Note_off_c, 0, 74, 100
2, 104828, Note_off_c, 0, 70, 100
2, 104832, Note_on_c, 0, 78, 110
2, 104832, Note_on_c, 0, 74, 110
2, 104832, Note_on_c, 0, 69, 110
2, 104832, Note_on_c, 0, 66, 110
2, 105212, Note_off_c, 0, 78, 100
2, 105212, Note_off_c, 0, 74, 100
2, 105212, Note_off_c, 0, 69, 100
2, 105212, Note_off_c, 0, 66, 100
2, 105216, Note_on_c, 0, 79, 110
2, 105216, Note_on_c, 0, 74, 110
2, 105216, Note_on_c, 0, 70, 110
2, 105216, Note_on_c, 0, 67, 110
2, 105596, Note_off_c, 0, 79, 100
2, 105596, Note_off_c, 0, 74, 100
2, 105596, Note_off_c, 0, 70, 100
2, 105596, Note_off_c, 0, 67, 100
2, 105984, Note_on_c, 0, 62, 80
2, 106268, Note_off_c, 0, 62, 100
2, 106272, Note_on_c, 0, 63, 80
2, 106364, Note_off_c, 0, 63, 100
2, 106368, Note_on_c, 0, 65, 80
2, 107132, Note_off_c, 0, 65, 100
2, 107136, Note_on_c, 0, 69, 80
2, 107180, Note_off_c, 0, 69, 100
2, 107184, Note_on_c, 0, 67, 80
2, 107228, Note_off_c, 0, 67, 100
2, 107232, Note_on_c, 0, 65, 80
2, 107324, Note_off_c, 0, 65, 100
2, 107328, Note_on_c, 0, 67, 80
2, 107420, Note_off_c, 0, 67, 100
2, 107424, Note_on_c, 0, 69, 80
2, 107516, Note_off_c, 0, 69, 100
2, 107520, Note_on_c, 0, 70, 80
2, 107900, Note_off_c, 0, 70, 100
2, 107904, Note_on_c, 0, 65, 80
2, 108284, Note_off_c, 0, 65, 100
2, 108288, Note_on_c, 0, 69, 80
2, 108332, Note_off_c, 0, 69, 100
2, 108336, Note_on_c, 0, 67, 80
2, 108380, Note_off_c, 0, 67, 100
2, 108384, Note_on_c, 0, 65, 80
2, 108476, Note_off_c, 0, 65, 100
2, 108480, Note_on_c, 0, 67, 80
2, 108572, Note_off_c, 0, 67, 100
2, 108576, Note_on_c, 0, 69, 80
2, 108668, Note_off_c, 0, 69, 100
2, 108672, Note_on_c, 0, 70, 80
2, 108956, Note_off_c, 0, 70, 100
2, 108960, Note_on_c, 0, 69, 80
2, 109052, Note_off_c, 0, 69, 100
2, 109056, Note_on_c, 0, 70, 80
2, 109340, Note_off_c, 0, 70, 100
2, 109344, Note_on_c, 0, 72, 80
2, 109436, Note_off_c, 0, 72, 100
2, 109440, Note_on_c, 0, 74, 80
2, 109724, Note_off_c, 0, 74, 100
2, 109728, Note_on_c, 0, 76, 80
2, 109820, Note_off_c, 0, 76, 100
2, 109824, Note_on_c, 0, 76, 80
2, 109824, Note_on_c, 0, 70, 80
2, 110204, Note_off_c, 0, 76, 100
2, 110204, Note_off_c, 0, 70, 100
2, 110208, Note_on_c, 0, 77, 80
2, 110208, Note_on_c, 0, 69, 80
2, 110396, Note_off_c, 0, 77, 100
2, 110396, Note_off_c, 0, 69, 100
2, 110592, Note_on_c, 0, 77, 80
2, 110636, Note_off_c, 0, 77, 100
2, 110640, Note_on_c, 0, 75, 80
2, 110684, Note_off_c, 0, 75, 100
2, 110688, Note_on_c, 0, 74, 80
2, 110780, Note_off_c, 0, 74, 100
2, 110784, Note_on_c, 0, 75, 80
2, 110876, Note_off_c, 0, 75, 100
2, 110880, Note_on_c, 0, 77, 80
2, 110972, Note_off_c, 0, 77, 100
2, 110976, Note_on_c, 0, 79, 80
2, 111356, Note_off_c, 0, 79, 100
2, 111360, Note_on_c, 0, 72, 80
2, 111740, Note_off_c, 0, 72, 100
2, 111744, Note_on_c, 0, 74, 80
2, 111788, Note_off_c, 0, 74, 100
2, 111792, Note_on_c, 0, 72, 80
2, 111836, Note_off_c, 0, 72, 100
2, 111840, Note_on_c, 0, 71, 80
2, 111932, Note_off_c, 0, 71, 100
2, 111936, Note_on_c, 0, 72, 80
2, 112028, Note_off_c, 0, 72, 100
2, 112032, Note_on_c, 0, 74, 80
2, 112124, Note_off_c, 0, 74, 100
2, 112128, Note_on_c, 0, 75, 80
2, 112508, Note_off_c, 0, 75, 100
2, 112512, Note_on_c, 0, 69, 80
2, 112892, Note_off_c, 0, 69, 100
2, 112896, Note_on_c, 0, 70, 80
2, 112940, Note_off_c, 0, 70, 100
2, 112944, Note_on_c, 0, 69, 80
2, 112988, Note_off_c, 0, 69, 100
2, 112992, Note_on_c, 0, 67, 80
2, 113084, Note_off_c, 0, 67, 100
2, 113088, Note_on_c, 0, 69, 80
2, 113180, Note_off_c, 0, 69, 100
2, 113184, Note_on_c, 0, 70, 80
2, 113276, Note_off_c, 0, 70, 100
2, 113280, Note_on_c, 0, 74, 80
2, 113300, Note_off_c, 0, 74, 100
2, 113328, Note_on_c, 0, 72, 80
2, 113348, Note_off_c, 0, 72, 100
2, 113376, Note_on_c, 0, 71, 80
2, 113468, Note_off_c, 0, 71, 100
2, 113472, Note_on_c, 0, 72, 80
2, 113564, Note_off_c, 0, 72, 100
2, 113568, Note_on_c, 0, 74, 80
2, 113660, Note_off_c, 0, 74, 100
2, 113664, Note_on_c, 0, 77, 80
2, 113684, Note_off_c, 0, 77, 100
2, 113712, Note_on_c, 0, 75, 80
2, 113732, Note_off_c, 0, 75, 100
2, 113760, Note_on_c, 0, 74, 80
2, 113852, Note_off_c, 0, 74, 100
2, 113856, Note_on_c, 0, 75, 80
2, 113948, Note_off_c, 0, 75, 100
2, 113952, Note_on_c, 0, 77, 80
2, 114044, Note_off_c, 0, 77, 100
2, 114048, Note_on_c, 0, 79, 80
2, 114236, Note_off_c, 0, 79, 100
2, 114336, Note_on_c, 0, 69, 80
2, 114428, Note_off_c, 0, 69, 100
2, 114432, Note_on_c, 0, 72, 80
2, 114812, Note_off_c, 0, 72, 100
2, 114816, Note_on_c, 0, 70, 80
2, 115004, Note_off_c, 0, 70, 100
2, 115200, Note_on_c, 0, 62, 80
2, 115484, Note_off_c, 0, 62, 100
2, 115488, Note_on_c, 0, 63, 80
2, 115580, Note_off_c, 0, 63, 100
2, 115584, Note_on_c, 0, 65, 80
2, 116348, Note_off_c, 0, 65, 100
2, 116352, Note_on_c, 0, 69, 80
2, 116396, Note_off_c, 0, 69, 100
2, 116400, Note_on_c, 0, 67, 80
2, 116444, Note_off_c, 0, 67, 100
2, 116448, Note_on_c, 0, 65, 80
2, 116540, Note_off_c, 0, 65, 100
2, 116544, Note_on_c, 0, 67, 80
2, 116636, Note_off_c, 0, 67, 100
2, 116640, Note_on_c, 0, 69, 80
2, 116732, Note_off_c, 0, 69, 100
2, 116736, Note_on_c, 0, 70, 80
2, 117116, Note_off_c, 0, 70, 100
2, 117120, Note_on_c, 0, 65, 80
2, 117500, Note_off_c, 0, 65, 100
2, 117504, Note_on_c, 0, 69, 80
2, 117548, Note_off_c, 0, 69, 100
2, 117552, Note_on_c, 0, 67, 80
2, 117596, Note_off_c, 0, 67, 100
2, 117600, Note_on_c, 0, 65, 80
2, 117692, Note_off_c, 0, 65, 100
2, 117696, Note_on_c, 0, 67, 80
2, 117788, Note_off_c, 0, 67, 100
2, 117792, Note_on_c, 0, 69, 80
2, 117884, Note_off_c, 0, 69, 100
2, 117888, Note_on_c, 0, 70, 80
2, 118172, Note_off_c, 0, 70, 100
2, 118176, Note_on_c, 0, 69, 80
2, 118268, Note_off_c, 0, 69, 100
2, 118272, Note_on_c, 0, 70, 80
2, 118556, Note_off_c, 0, 70, 100
2, 118560, Note_on_c, 0, 72, 80
2, 118652, Note_off_c, 0, 72, 100
2, 118656, Note_on_c, 0, 74, 80
2, 118940, Note_off_c, 0, 74, 100
2, 118944, Note_on_c, 0, 76, 80
2, 119036, Note_off_c, 0, 76, 100
2, 119040, Note_on_c, 0, 76, 80
2, 119040, Note_on_c, 0, 70, 80
2, 119420, Note_off_c, 0, 76, 100
2, 119420, Note_off_c, 0, 70, 100
2, 119424, Note_on_c, 0, 77, 80
2, 119424, Note_on_c, 0, 69, 80
2, 119612, Note_off_c, 0, 77, 100
2, 119612, Note_off_c, 0, 69, 100
2, 119808, Note_on_c, 0, 77, 80
2, 119852, Note_off_c, 0, 77, 100
2, 119856, Note_on_c, 0, 75, 80
2, 119900, Note_off_c, 0, 75, 100
2, 119904, Note_on_c, 0, 74, 80
2, 119996, Note_off_c, 0, 74, 100
2, 120000, Note_on_c, 0, 75, 80
2, 120092, Note_off_c, 0, 75, 100
2, 120096, Note_on_c, 0, 77, 80
2, 120188, Note_off_c, 0, 77, 100
2, 120192, Note_on_c, 0, 79, 80
2, 120572, Note_off_c, 0, 79, 100
2, 120576, Note_on_c, 0, 72, 80
2, 120956, Note_off_c, 0, 72, 100
2, 120960, Note_on_c, 0, 74, 80
2, 121004, Note_off_c, 0, 74, 100
2, 121008, Note_on_c, 0, 72, 80
2, 121052, Note_off_c, 0, 72, 100
2, 121056, Note_on_c, 0, 71, 80
2, 121148, Note_off_c, 0, 71, 100
2, 121152, Note_on_c, 0, 72, 80
2, 121244, Note_off_c, 0, 72, 100
2, 121248, Note_on_c, 0, 74, 80
2, 121340, Note_off_c, 0, 74, 100
2, 121344, Note_on_c, 0, 75, 80
2, 121724, Note_off_c, 0, 75, 100
2, 121728, Note_on_c, 0, 69, 80
2, 122108, Note_off_c, 0, 69, 100
2, 122112, Note_on_c, 0, 70, 80
2, 122156, Note_off_c, 0, 70, 100
2, 122160, Note_on_c, 0, 69, 80
2, 122204, Note_off_c, 0, 69, 100
2, 122208, Note_on_c, 0, 67, 80
2, 122300, Note_off_c, 0, 67, 100
2, 122304, Note_on_c, 0, 69, 80
2, 122396, Note_off_c, 0, 69, 100
2, 122400, Note_on_c, 0, 70, 80
2, 122492, Note_off_c, 0, 70, 100
2, 122496, Note_on_c, 0, 74, 80
2, 122516, Note_off_c, 0, 74, 100
2, 122544, Note_on_c, 0, 72, 80
2, 122564, Note_off_c, 0, 72, 100
2, 122592, Note_on_c, 0, 71, 80
2, 122684, Note_off_c, 0, 71, 100
2, 122688, Note_on_c, 0, 72, 80
2, 122780, Note_off_c, 0, 72, 100
2, 122784, Note_on_c, 0, 74, 80
2, 122876, Note_off_c, 0, 74, 100
2, 122880, Note_on_c, 0, 77, 80
2, 122900, Note_off_c, 0, 77, 100
2, 122928, Note_on_c, 0, 75, 80
2, 122948, Note_off_c, 0, 75, 100
2, 122976, Note_on_c, 0, 74, 80
2, 123068, Note_off_c, 0, 74, 100
2, 123072, Note_on_c, 0, 75, 80
2, 123164, Note_off_c, 0, 75, 100
2, 123168, Note_on_c, 0, 77, 80
2, 123260, Note_off_c, 0, 77, 100
2, 123264, Note_on_c, 0, 79, 80
2, 123452, Note_off_c, 0, 79, 100
2, 123552, Note_on_c, 0, 69, 80
2, 123644, Note_off_c, 0, 69, 100
2, 123648, Note_on_c, 0, 72, 80
2, 124028, Note_off_c, 0, 72, 100
2, 124032, Note_on_c, 0, 70, 80
2, 124220, Note_off_c, 0, 70, 100
2, 124416, Note_on_c, 0, 74, 80
2, 124416, Note_on_c, 0, 69, 80
2, 124508, Note_off_c, 0, 74, 100
2, 124508, Note_off_c, 0, 69, 100
2, 124512, Note_on_c, 0, 73, 81
2, 124512, Note_on_c, 0, 70, 81
2, 124604, Note_off_c, 0, 73, 100
2, 124604, Note_off_c, 0, 70, 100
2, 124608, Note_on_c, 0, 74, 83
2, 124608, Note_on_c, 0, 69, 83
2, 124700, Note_off_c, 0, 74, 100
2, 124700, Note_off_c, 0, 69, 100
2, 124704, Note_on_c, 0, 73, 85
2, 124704, Note_on_c, 0, 70, 85
2, 124796, Note_off_c, 0, 73, 100
2, 124796, Note_off_c, 0, 70, 100
2, 124800, Note_on_c, 0, 74, 87
2, 124800, Note_on_c, 0, 69, 87
2, 124892, Note_off_c, 0, 74, 100
2, 124892, Note_off_c, 0, 69, 100
2, 124896, Note_on_c, 0, 73, 89
2, 124896, Note_on_c, 0, 70, 89
2, 124988, Note_off_c, 0, 73, 100
2, 124988, Note_off_c, 0, 70, 100
2, 124992, Note_on_c, 0, 74, 91
2, 124992, Note_on_c, 0, 69, 91
2, 125084, Note_off_c, 0, 74, 100
2, 125084, Note_off_c, 0, 69, 100
2, 125088, Note_on_c, 0, 73, 93
2, 125088, Note_on_c, 0, 70, 93
2, 125180, Note_off_c, 0, 73, 100
2, 125180, Note_off_c, 0, 70, 100
2, 125184, Note_on_c, 0, 74, 95
2, 125184, Note_on_c, 0, 69, 95
2, 125276, Note_off_c, 0, 74, 100
2, 125276, Note_off_c, 0, 69, 100
2, 125280, Note_on_c, 0, 73, 96
2, 125280, Note_on_c, 0, 70, 96
2, 125372, Note_off_c, 0, 73, 100
2, 125372, Note_off_c, 0, 70, 100
2, 125376, Note_on_c, 0, 74, 98
2, 125376, Note_on_c, 0, 69, 98
2, 125468, Note_off_c, 0, 74, 100
2, 125468, Note_off_c, 0, 69, 100
2, 125472, Note_on_c, 0, 73, 100
2, 125472, Note_on_c, 0, 70, 100
2, 125564, Note_off_c, 0, 73, 100
2, 125564, Note_off_c, 0, 70, 100
2, 125568, Note_on_c, 0, 74, 102
2, 125568, Note_on_c, 0, 69, 102
2, 125660, Note_off_c, 0, 74, 100
2, 125660, Note_off_c, 0, 69, 100
2, 125664, Note_on_c, 0, 73, 104
2, 125664, Note_on_c, 0, 70, 104
2, 125756, Note_off_c, 0, 73, 100
2, 125756, Note_off_c, 0, 70, 100
2, 125760, Note_on_c, 0, 74, 106
2, 125760, Note_on_c, 0, 69, 106
2, 125852, Note_off_c, 0, 74, 100
2, 125852, Note_off_c, 0, 69, 100
2, 125856, Note_on_c, 0, 73, 108
2, 125856, Note_on_c, 0, 70, 108
2, 125948, Note_off_c, 0, 73, 100
2, 125948, Note_off_c, 0, 70, 100
2, 125952, Note_on_c, 0, 74, 110
2, 125952, Note_on_c, 0, 69, 110
2, 126140, Note_off_c, 0, 74, 100
2, 126140, Note_off_c, 0, 69, 100
2, 126336, Note_on_c, 0, 86, 120
2, 126336, Note_on_c, 0, 78, 120
2, 126908, Note_off_c, 0, 86, 100
2, 126908, Note_off_c, 0, 78, 100
2, 126912, Note_on_c, 0, 84, 120
2, 126912, Note_on_c, 0, 78, 120
2, 127100, Note_off_c, 0, 84, 100
2, 127100, Note_off_c, 0, 78, 100
2, 127104, Note_on_c, 0, 82, 120
2, 127104, Note_on_c, 0, 79, 120
2, 127388, Note_off_c, 0, 82, 100
2, 127388, Note_off_c, 0, 79, 100
2, 127392, Note_on_c, 0, 81, 120
2, 127392, Note_on_c, 0, 75, 120
2, 127484, Note_off_c, 0, 81, 100
2, 127484, Note_off_c, 0, 75, 100
2, 127488, Note_on_c, 0, 79, 120
2, 127488, Note_on_c, 0, 70, 120
2, 127868, Note_off_c, 0, 79, 100
2, 127868, Note_off_c, 0, 70, 100
2, 127872, Note_on_c, 0, 78, 120
2, 127872, Note_on_c, 0, 72, 120
2, 128252, Note_off_c, 0, 78, 100
2, 128252, Note_off_c, 0, 72, 100
2, 128256, Note_on_c, 0, 81, 120
2, 128256, Note_on_c, 0, 72, 120
2, 128636, Note_off_c, 0, 81, 100
2, 128636, Note_off_c, 0, 72, 100
2, 128640, Note_on_c, 0, 79, 120
2, 128640, Note_on_c, 0, 70, 120
2, 128828, Note_off_c, 0, 79, 100
2, 128828, Note_off_c, 0, 70, 100
2, 129024, Note_on_c, 0, 56, 80
2, 129024, Note_on_c, 0, 58, 80
2, 129116, Note_off_c, 0, 56, 100
2, 129116, Note_off_c, 0, 58, 100
2, 129120, Note_on_c, 0, 59, 81
2, 129212, Note_off_c, 0, 59, 100
2, 129216, Note_on_c, 0, 56, 82
2, 129216, Note_on_c, 0, 58, 82
2, 129308, Note_off_c, 0, 56, 100
2, 129308, Note_off_c, 0, 58, 100
2, 129312, Note_on_c, 0, 59, 83
2, 129404, Note_off_c, 0, 59, 100
2, 129408, Note_on_c, 0, 56, 85
2, 129408, Note_on_c, 0, 58, 85
2, 129500, Note_off_c, 0, 56, 100
2, 129500, Note_off_c, 0, 58, 100
2, 129504, Note_on_c, 0, 59, 86
2, 129596, Note_off_c, 0, 59, 100
2, 129600, Note_on_c, 0, 56, 87
2, 129600, Note_on_c, 0, 58, 87
2, 129692, Note_off_c, 0, 56, 100
2, 129692, Note_off_c, 0, 58, 100
2, 129696, Note_on_c, 0, 59, 88
2, 129788, Note_off_c, 0, 59, 100
2, 129792, Note_on_c, 0, 56, 90
2, 129792, Note_on_c, 0, 58, 90
2, 129884, Note_off_c, 0, 56, 100
2, 129884, Note_off_c, 0, 58, 100
2, 129888, Note_on_c, 0, 59, 91
2, 129980, Note_off_c, 0, 59, 100
2, 129984, Note_on_c, 0, 56, 92
2, 129984, Note_on_c, 0, 58, 92
2, 130076, Note_off_c, 0, 56, 100
2, 130076, Note_off_c, 0, 58, 100
2, 130080, Note_on_c, 0, 59, 93
2, 130172, Note_off_c, 0, 59, 100
2, 130176, Note_on_c, 0, 56, 95
2, 130176, Note_on_c, 0, 58, 95
2, 130268, Note_off_c, 0, 56, 100
2, 130268, Note_off_c, 0, 58, 100
2, 130272, Note_on_c, 0, 59, 96
2, 130364, Note_off_c, 0, 59, 100
2, 130368, Note_on_c, 0, 56, 97
2, 130368, Note_on_c, 0, 58, 97
2, 130460, Note_off_c, 0, 56, 100
2, 130460, Note_off_c, 0, 58, 100
2, 130464, Note_on_c, 0, 59, 98
2, 130556, Note_off_c, 0, 59, 100
2, 130560, Note_on_c, 0, 58, 100
2, 130560, Note_on_c, 0, 56, 100
2, 130748, Note_off_c, 0, 58, 100
2, 130748, Note_off_c, 0, 56, 100
2, 130944, Note_on_c, 0, 80, 110
2, 130944, Note_on_c, 0, 71, 110
2, 131516, Note_off_c, 0, 80, 100
2, 131516, Note_off_c, 0, 71, 100
2, 131520, Note_on_c, 0, 79, 80
2, 131520, Note_on_c, 0, 72, 80
2, 131708, Note_off_c, 0, 79, 100
2, 131708, Note_off_c, 0, 72, 100
2, 131712, Note_on_c, 0, 77, 80
2, 131712, Note_on_c, 0, 68, 80
2, 131996, Note_off_c, 0, 77, 100
2, 131996, Note_off_c, 0, 68, 100
2, 132000, Note_on_c, 0, 75, 80
2, 132000, Note_on_c, 0, 67, 80
2, 132092, Note_off_c, 0, 75, 100
2, 132092, Note_off_c, 0, 67, 100
2, 132096, Note_on_c, 0, 74, 80
2, 132096, Note_on_c, 0, 65, 80
2, 132476, Note_off_c, 0, 74, 100
2, 132476, Note_off_c, 0, 65, 100
2, 132480, Note_on_c, 0, 72, 80
2, 132480, Note_on_c, 0, 63, 80
2, 132860, Note_off_c, 0, 72, 100
2, 132860, Note_off_c, 0, 63, 100
2, 132864, Note_on_c, 0, 70, 80
2, 132864, Note_on_c, 0, 62, 80
2, 133244, Note_off_c, 0, 70, 100
2, 133244, Note_off_c, 0, 62, 100
2, 133248, Note_on_c, 0, 69, 80
2, 133248, Note_on_c, 0, 60, 80
2, 133436, Note_off_c, 0, 69, 100
2, 133436, Note_off_c, 0, 60, 100
2, 133632, Note_on_c, 0, 62, 80
2, 133916, Note_off_c, 0, 62, 100
2, 133920, Note_on_c, 0, 63, 80
2, 134012, Note_off_c, 0, 63, 100
2, 134016, Note_on_c, 0, 65, 80
2, 134780, Note_off_c, 0, 65, 100
2, 134784, Note_on_c, 0, 69, 80
2, 134828, Note_off_c, 0, 69, 100
2, 134832, Note_on_c, 0, 67, 80
2, 134876, Note_off_c, 0, 67, 100
2, 134880, Note_on_c, 0, 65, 80
2, 134972, Note_off_c, 0, 65, 100
2, 134976, Note_on_c, 0, 67, 80
2, 135068, Note_off_c, 0, 67, 100
2, 135072, Note_on_c, 0, 69, 80
2, 135164, Note_off_c, 0, 69, 100
2, 135168, Note_on_c, 0, 70, 80
2, 135548, Note_off_c, 0, 70, 100
2, 135552, Note_on_c, 0, 65, 80
2, 135932, Note_off_c, 0, 65, 100
2, 135936, Note_on_c, 0, 69, 80
2, 135980, Note_off_c, 0, 69, 100
2, 135984, Note_on_c, 0, 67, 80
2, 136028, Note_off_c, 0, 67, 100
2, 136032, Note_on_c, 0, 65, 80
2, 136124, Note_off_c, 0, 65, 100
2, 136128, Note_on_c, 0, 67, 80
2, 136220, Note_off_c, 0, 67, 100
2, 136224, Note_on_c, 0, 69, 80
2, 136316, Note_off_c, 0, 69, 100
2, 136320, Note_on_c, 0, 70, 80
2, 136604, Note_off_c, 0, 70, 100
2, 136608, Note_on_c, 0, 69, 80
2, 136700, Note_off_c, 0, 69, 100
2, 136704, Note_on_c, 0, 70, 80
2, 136988, Note_off_c, 0, 70, 100
2, 136992, Note_on_c, 0, 72, 80
2, 137084, Note_off_c, 0, 72, 100
2, 137088, Note_on_c, 0, 74, 80
2, 137372, Note_off_c, 0, 74, 100
2, 137376, Note_on_c, 0, 76, 80
2, 137468, Note_off_c, 0, 76, 100
2, 137472, Note_on_c, 0, 76, 80
2, 137472, Note_on_c, 0, 70, 80
2, 137852, Note_off_c, 0, 76, 100
2, 137852, Note_off_c, 0, 70, 100
2, 137856, Note_on_c, 0, 77, 80
2, 137856, Note_on_c, 0, 69, 80
2, 138044, Note_off_c, 0, 77, 100
2, 138044, Note_off_c, 0, 69, 100
2, 138240, Note_on_c, 0, 77, 80
2, 138284, Note_off_c, 0, 77, 100
2, 138288, Note_on_c, 0, 75, 80
2, 138332, Note_off_c, 0, 75, 100
2, 138336, Note_on_c, 0, 74, 80
2, 138428, Note_off_c, 0, 74, 100
2, 138432, Note_on_c, 0, 75, 80
2, 138524, Note_off_c, 0, 75, 100
2, 138528, Note_on_c, 0, 77, 80
2, 138620, Note_off_c, 0, 77, 100
2, 138624, Note_on_c, 0, 79, 80
2, 139004, Note_off_c, 0, 79, 100
2, 139008, Note_on_c, 0, 72, 80
2, 139388, Note_off_c, 0, 72, 100
2, 139392, Note_on_c, 0, 74, 80
2, 139436, Note_off_c, 0, 74, 100
2, 139440, Note_on_c, 0, 72, 80
2, 139484, Note_off_c, 0, 72, 100
2, 139488, Note_on_c, 0, 71, 80
2, 139580, Note_off_c, 0, 71, 100
2, 139584, Note_on_c, 0, 72, 80
2, 139676, Note_off_c, 0, 72, 100
2, 139680, Note_on_c, 0, 74, 80
2, 139772, Note_off_c, 0, 74, 100
2, 139776, Note_on_c, 0, 75, 80
2, 140156, Note_off_c, 0, 75, 100
2, 140160, Note_on_c, 0, 69, 80
2, 140540, Note_off_c, 0, 69, 100
2, 140544, Note_on_c, 0, 70, 80
2, 140588, Note_off_c, 0, 70, 100
2, 140592, Note_on_c, 0, 69, 80
2, 140636, Note_off_c, 0, 69, 100
2, 140640, Note_on_c, 0, 67, 80
2, 140732, Note_off_c, 0, 67, 100
2, 140736, Note_on_c, 0, 69, 80
2, 140828, Note_off_c, 0, 69, 100
2, 140832, Note_on_c, 0, 70, 80
2, 140924, Note_off_c, 0, 70, 100
2, 140928, Note_on_c, 0, 74, 80
2, 140948, Note_off_c, 0, 74, 100
2, 140976, Note_on_c, 0, 72, 80
2, 140996, Note_off_c, 0, 72, 100
2, 141024, Note_on_c, 0, 71, 80
2, 141116, Note_off_c, 0, 71, 100
2, 141120, Note_on_c, 0, 72, 80
2, 141212, Note_off_c, 0, 72, 100
2, 141216, Note_on_c, 0, 74, 80
2, 141308, Note_off_c, 0, 74, 100
2, 141312, Note_on_c, 0, 77, 80
2, 141332, Note_off_c, 0, 77, 100
2, 141360, Note_on_c, 0, 75, 80
2, 141380, Note_off_c, 0, 75, 100
2, 141408, Note_on_c, 0, 74, 80
2, 141500, Note_off_c, 0, 74, 100
2, 141504, Note_on_c, 0, 75, 80
2, 141596, Note_off_c, 0, 75, 100
2, 141600, Note_on_c, 0, 77, 80
2, 141692, Note_off_c, 0, 77, 100
2, 141696, Note_on_c, 0, 79, 80
2, 141788, Note_off_c, 0, 79, 100
2, 141792, Note_on_c, 0, 75, 80
2, 141884, Note_off_c, 0, 75, 100
2, 141888, Note_on_c, 0, 72, 80
2, 141980, Note_off_c, 0, 72, 100
2, 141984, Note_on_c, 0, 69, 80
2, 142076, Note_off_c, 0, 69, 100
2, 142080, Note_on_c, 0, 70, 80
2, 142460, Note_off_c, 0, 70, 100
2, 142848, Note_on_c, 0, 81, 80
2, 142892, Note_off_c, 0, 81, 100
2, 142896, Note_on_c, 0, 79, 80
2, 142940, Note_off_c, 0, 79, 100
2, 142944, Note_on_c, 0, 78, 80
2, 143036, Note_off_c, 0, 78, 100
2, 143040, Note_on_c, 0, 79, 80
2, 143132, Note_off_c, 0, 79, 100
2, 143136, Note_on_c, 0, 81, 80
2, 143228, Note_off_c, 0, 81, 100
2, 143232, Note_on_c, 0, 82, 80
2, 143612, Note_off_c, 0, 82, 100
2, 143616, Note_on_c, 0, 77, 80
2, 143804, Note_off_c, 0, 77, 100
2, 144000, Note_on_c, 0, 75, 80
2, 144000, Note_on_c, 0, 69, 80
2, 144044, Note_off_c, 0, 69, 100
2, 144048, Note_on_c, 0, 67, 80
2, 144092, Note_off_c, 0, 67, 100
2, 144096, Note_on_c, 0, 65, 80
2, 144188, Note_off_c, 0, 65, 100
2, 144192, Note_on_c, 0, 67, 80
2, 144284, Note_off_c, 0, 67, 100
2, 144288, Note_on_c, 0, 69, 80
2, 144380, Note_off_c, 0, 75, 100
2, 144380, Note_off_c, 0, 69, 100
2, 144384, Note_on_c, 0, 74, 80
2, 144384, Note_on_c, 0, 70, 80
2, 144764, Note_off_c, 0, 74, 100
2, 144764, Note_off_c, 0, 70, 100
2, 144768, Note_on_c, 0, 65, 80
2, 144956, Note_off_c, 0, 65, 100
2, 145152, Note_on_c, 0, 69, 80
2, 145196, Note_off_c, 0, 69, 100
2, 145200, Note_on_c, 0, 67, 80
2, 145244, Note_off_c, 0, 67, 100
2, 145248, Note_on_c, 0, 66, 80
2, 145340, Note_off_c, 0, 66, 100
2, 145344, Note_on_c, 0, 67, 80
2, 145436, Note_off_c, 0, 67, 100
2, 145440, Note_on_c, 0, 69, 80
2, 145532, Note_off_c, 0, 69, 100
2, 145536, Note_on_c, 0, 70, 80
2, 145916, Note_off_c, 0, 70, 100
2, 145920, Note_on_c, 0, 65, 80
2, 146108, Note_off_c, 0, 65, 100
2, 146304, Note_on_c, 0, 63, 80
2, 146304, Note_on_c, 0, 57, 80
2, 146348, Note_off_c, 0, 57, 100
2, 146352, Note_on_c, 0, 55, 80
2, 146396, Note_off_c, 0, 55, 100
2, 146400, Note_on_c, 0, 53, 80
2, 146492, Note_off_c, 0, 53, 100
2, 146496, Note_on_c, 0, 55, 81
2, 146588, Note_off_c, 0, 55, 100
2, 146592, Note_on_c, 0, 57, 82
2, 146684, Note_off_c, 0, 63, 100
2, 146684, Note_off_c, 0, 57, 100
2, 146688, Note_on_c, 0, 58, 82
2, 146688, Note_on_c, 0, 62, 82
2, 146876, Note_off_c, 0, 58, 100
2, 146880, Note_on_c, 0, 53, 84
2, 147068, Note_off_c, 0, 62, 100
2, 147068, Note_off_c, 0, 53, 100
2, 147072, Note_on_c, 0, 63, 85
2, 147072, Note_on_c, 0, 57, 85
2, 147116, Note_off_c, 0, 57, 100
2, 147120, Note_on_c, 0, 55, 86
2, 147164, Note_off_c, 0, 55, 100
2, 147168, Note_on_c, 0, 53, 86
2, 147260, Note_off_c, 0, 53, 100
2, 147264, Note_on_c, 0, 55, 87
2, 147356, Note_off_c, 0, 55, 100
2, 147360, Note_on_c, 0, 57, 87
2, 147452, Note_off_c, 0, 63, 100
2, 147452, Note_off_c, 0, 57, 100
2, 147456, Note_on_c, 0, 58, 88
2, 147456, Note_on_c, 0, 62, 88
2, 147644, Note_off_c, 0, 58, 100
2, 147648, Note_on_c, 0, 53, 89
2, 147836, Note_off_c, 0, 62, 100
2, 147836, Note_off_c, 0, 53, 100
2, 147840, Note_on_c, 0, 63, 91
2, 147840, Note_on_c, 0, 57, 91
2, 147884, Note_off_c, 0, 57, 100
2, 147888, Note_on_c, 0, 55, 91
2, 147932, Note_off_c, 0, 55, 100
2, 147936, Note_on_c, 0, 53, 92
2, 148028, Note_off_c, 0, 53, 100
2, 148032, Note_on_c, 0, 55, 92
2, 148124, Note_off_c, 0, 55, 100
2, 148128, Note_on_c, 0, 57, 93
2, 148220, Note_off_c, 0, 63, 100
2, 148220, Note_off_c, 0, 57, 100
2, 148224, Note_on_c, 0, 62, 94
2, 148224, Note_on_c, 0, 58, 94
2, 148316, Note_off_c, 0, 58, 100
2, 148320, Note_on_c, 0, 53, 94
2, 148412, Note_off_c, 0, 62, 100
2, 148412, Note_off_c, 0, 53, 100
2, 148416, Note_on_c, 0, 63, 95
2, 148416, Note_on_c, 0, 57, 95
2, 148508, Note_off_c, 0, 57, 100
2, 148512, Note_on_c, 0, 53, 96
2, 148604, Note_off_c, 0, 63, 100
2, 148604, Note_off_c, 0, 53, 100
2, 148608, Note_on_c, 0, 62, 97
2, 148608, Note_on_c, 0, 58, 97
2, 148700, Note_off_c, 0, 58, 100
2, 148704, Note_on_c, 0, 53, 97
2, 148796, Note_off_c, 0, 62, 100
2, 148796, Note_off_c, 0, 53, 100
2, 148800, Note_on_c, 0, 63, 98
2, 148800, Note_on_c, 0, 57, 98
2, 148892, Note_off_c, 0, 57, 100
2, 148896, Note_on_c, 0, 53, 99
2, 148988, Note_off_c, 0, 63, 100
2, 148988, Note_off_c, 0, 53, 100
2, 148992, Note_on_c, 0, 62, 99
2, 148992, Note_on_c, 0, 58, 99
2, 149372, Note_off_c, 0, 62, 100
2, 149372, Note_off_c, 0, 58, 100
2, 149376, Note_on_c, 0, 70, 80
2, 149376, Note_on_c, 0, 62, 80
2, 149756, Note_off_c, 0, 70, 100
2, 149756, Note_off_c, 0, 62, 100
2, 149760, Note_on_c, 0, 74, 80
2, 149760, Note_on_c, 0, 69, 80
2, 149852, Note_off_c, 0, 74, 100
2, 149852, Note_off_c, 0, 69, 100
2, 149856, Note_on_c, 0, 73, 81
2, 149856, Note_on_c, 0, 70, 81
2, 149948, Note_off_c, 0, 73, 100
2, 149948, Note_off_c, 0, 70, 100
2, 149952, Note_on_c, 0, 74, 83
2, 149952, Note_on_c, 0, 69, 83
2, 150044, Note_off_c, 0, 74, 100
2, 150044, Note_off_c, 0, 69, 100
2, 150048, Note_on_c, 0, 73, 85
2, 150048, Note_on_c, 0, 70, 85
2, 150140, Note_off_c, 0, 73, 100
2, 150140, Note_off_c, 0, 70, 100
2, 150144, Note_on_c, 0, 74, 87
2, 150144, Note_on_c, 0, 69, 87
2, 150236, Note_off_c, 0, 74, 100
2, 150236, Note_off_c, 0, 69, 100
2, 150240, Note_on_c, 0, 73, 89
2, 150240, Note_on_c, 0, 70, 89
2, 150332, Note_off_c, 0, 73, 100
2, 150332, Note_off_c, 0, 70, 100
2, 150336, Note_on_c, 0, 74, 91
2, 150336, Note_on_c, 0, 69, 91
2, 150428, Note_off_c, 0, 74, 100
2, 150428, Note_off_c, 0, 69, 100
2, 150432, Note_on_c, 0, 73, 93
2, 150432, Note_on_c, 0, 70, 93
2, 150524, Note_off_c, 0, 73, 100
2, 150524, Note_off_c, 0, 70, 100
2, 150528, Note_on_c, 0, 74, 94
2, 150528, Note_on_c, 0, 69, 94
2, 150620, Note_off_c, 0, 74, 100
2, 150620, Note_off_c, 0, 69, 100
2, 150624, Note_on_c, 0, 73, 96
2, 150624, Note_on_c, 0, 70, 96
2, 150716, Note_off_c, 0, 73, 100
2, 150716, Note_off_c, 0, 70, 100
2, 150720, Note_on_c, 0, 74, 98
2, 150720, Note_on_c, 0, 69, 98
2, 150812, Note_off_c, 0, 74, 100
2, 150812, Note_off_c, 0, 69, 100
2, 150816, Note_on_c, 0, 73, 100
2, 150816, Note_on_c, 0, 70, 100
2, 150908, Note_off_c, 0, 73, 100
2, 150908, Note_off_c, 0, 70, 100
2, 150912, Note_on_c, 0, 74, 102
2, 150912, Note_on_c, 0, 69, 102
2, 151004, Note_off_c, 0, 74, 100
2, 151004, Note_off_c, 0, 69, 100
2, 151008, Note_on_c, 0, 73, 104
2, 151008, Note_on_c, 0, 70, 104
2, 151100, Note_off_c, 0, 73, 100
2, 151100, Note_off_c, 0, 70, 100
2, 151104, Note_on_c, 0, 74, 106
2, 151104, Note_on_c, 0, 69, 106
2, 151196, Note_off_c, 0, 74, 100
2, 151196, Note_off_c, 0, 69, 100
2, 151200, Note_on_c, 0, 73, 108
2, 151200, Note_on_c, 0, 70, 108
2, 151292, Note_off_c, 0, 73, 100
2, 151292, Note_off_c, 0, 70, 100
2, 151296, Note_on_c, 0, 74, 109
2, 151296, Note_on_c, 0, 69, 109
2, 151484, Note_off_c, 0, 74, 100
2, 151484, Note_off_c, 0, 69, 100
2, 151680, Note_on_c, 0, 86, 120
2, 151680, Note_on_c, 0, 78, 120
2, 152252, Note_off_c, 0, 86, 100
2, 152252, Note_off_c, 0, 78, 100
2, 152256, Note_on_c, 0, 84, 120
2, 152256, Note_on_c, 0, 78, 120
2, 152444, Note_off_c, 0, 84, 100
2, 152444, Note_off_c, 0, 78, 100
2, 152448, Note_on_c, 0, 82, 120
2, 152448, Note_on_c, 0, 79, 120
2, 152732, Note_off_c, 0, 82, 100
2, 152732, Note_off_c, 0, 79, 100
2, 152736, Note_on_c, 0, 81, 120
2, 152736, Note_on_c, 0, 75, 120
2, 152828, Note_off_c, 0, 81, 100
2, 152828, Note_off_c, 0, 75, 100
2, 152832, Note_on_c, 0, 79, 120
2, 152832, Note_on_c, 0, 70, 120
2, 153212, Note_off_c, 0, 79, 100
2, 153212, Note_off_c, 0, 70, 100
2, 153216, Note_on_c, 0, 78, 120
2, 153216, Note_on_c, 0, 72, 120
2, 153596, Note_off_c, 0, 78, 100
2, 153596, Note_off_c, 0, 72, 100
2, 153600, Note_on_c, 0, 81, 120
2, 153600, Note_on_c, 0, 72, 120
2, 153980, Note_off_c, 0, 81, 100
2, 153980, Note_off_c, 0, 72, 100
2, 153984, Note_on_c, 0, 79, 120
2, 153984, Note_on_c, 0, 70, 120
2, 154172, Note_off_c, 0, 79, 100
2, 154172, Note_off_c, 0, 70, 100
2, 154368, Note_on_c, 0, 56, 80
2, 154368, Note_on_c, 0, 58, 80
2, 154460, Note_off_c, 0, 56, 100
2, 154460, Note_off_c, 0, 58, 100
2, 154464, Note_on_c, 0, 59, 81
2, 154556, Note_off_c, 0, 59, 100
2, 154560, Note_on_c, 0, 56, 82
2, 154560, Note_on_c, 0, 58, 82
2, 154652, Note_off_c, 0, 56, 100
2, 154652, Note_off_c, 0, 58, 100
2, 154656, Note_on_c, 0, 59, 83
2, 154748, Note_off_c, 0, 59, 100
2, 154752, Note_on_c, 0, 56, 84
2, 154752, Note_on_c, 0, 58, 84
2, 154844, Note_off_c, 0, 56, 100
2, 154844, Note_off_c, 0, 58, 100
2, 154848, Note_on_c, 0, 59, 86
2, 154940, Note_off_c, 0, 59, 100
2, 154944, Note_on_c, 0, 56, 87
2, 154944, Note_on_c, 0, 58, 87
2, 155036, Note_off_c, 0, 56, 100
2, 155036, Note_off_c, 0, 58, 100
2, 155040, Note_on_c, 0, 59, 88
2, 155132, Note_off_c, 0, 59, 100
2, 155136, Note_on_c, 0, 56, 89
2, 155136, Note_on_c, 0, 58, 89
2, 155228, Note_off_c, 0, 56, 100
2, 155228, Note_off_c, 0, 58, 100
2, 155232, Note_on_c, 0, 59, 91
2, 155324, Note_off_c, 0, 59, 100
2, 155328, Note_on_c, 0, 56, 92
2, 155328, Note_on_c, 0, 58, 92
2, 155420, Note_off_c, 0, 56, 100
2, 155420, Note_off_c, 0, 58, 100
2, 155424, Note_on_c, 0, 59, 93
2, 155516, Note_off_c, 0, 59, 100
2, 155520, Note_on_c, 0, 56, 94
2, 155520, Note_on_c, 0, 58, 94
2, 155612, Note_off_c, 0, 56, 100
2, 155612, Note_off_c, 0, 58, 100
2, 155616, Note_on_c, 0, 59, 96
2, 155708, Note_off_c, 0, 59, 100
2, 155712, Note_on_c, 0, 56, 97
2, 155712, Note_on_c, 0, 58, 97
2, 155804, Note_off_c, 0, 56, 100
2, 155804, Note_off_c, 0, 58, 100
2, 155808, Note_on_c, 0, 59, 98
2, 155900, Note_off_c, 0, 59, 100
2, 155904, Note_on_c, 0, 58, 99
2, 155904, Note_on_c, 0, 56, 99
2, 156092, Note_off_c, 0, 58, 100
2, 156092, Note_off_c, 0, 56, 100
2, 156288, Note_on_c, 0, 80, 110
2, 156288, Note_on_c, 0, 71, 110
2, 156860, Note_off_c, 0, 80, 100
2, 156860, Note_off_c, 0, 71, 100
2, 156864, Note_on_c, 0, 79, 80
2, 156864, Note_on_c, 0, 72, 80
2, 157052, Note_off_c, 0, 79, 100
2, 157052, Note_off_c, 0, 72, 100
2, 157056, Note_on_c, 0, 77, 80
2, 157056, Note_on_c, 0, 68, 80
2, 157340, Note_off_c, 0, 77, 100
2, 157340, Note_off_c, 0, 68, 100
2, 157344, Note_on_c, 0, 75, 80
2, 157344, Note_on_c, 0, 67, 80
2, 157436, Note_off_c, 0, 75, 100
2, 157436, Note_off_c, 0, 67, 100
2, 157440, Note_on_c, 0, 74, 80
2, 157440, Note_on_c, 0, 65, 80
2, 157820, Note_off_c, 0, 74, 100
2, 157820, Note_off_c, 0, 65, 100
2, 157824, Note_on_c, 0, 72, 80
2, 157824, Note_on_c, 0, 63, 80
2, 158204, Note_off_c, 0, 72, 100
2, 158204, Note_off_c, 0, 63, 100
2, 158208, Note_on_c, 0, 70, 80
2, 158208, Note_on_c, 0, 62, 80
2, 158588, Note_off_c, 0, 70, 100
2, 158588, Note_off_c, 0, 62, 100
2, 158592, Note_on_c, 0, 69, 80
2, 158592, Note_on_c, 0, 60, 80
2, 158780, Note_off_c, 0, 69, 100
2, 158780, Note_off_c, 0, 60, 100
2, 158976, Note_on_c, 0, 62, 80
2, 159260, Note_off_c, 0, 62, 100
2, 159264, Note_on_c, 0, 63, 80
2, 159356, Note_off_c, 0, 63, 100
2, 159360, Note_on_c, 0, 65, 80
2, 160124, Note_off_c, 0, 65, 100
2, 160128, Note_on_c, 0, 69, 80
2, 160172, Note_off_c, 0, 69, 100
2, 160176, Note_on_c, 0, 67, 80
2, 160220, Note_off_c, 0, 67, 100
2, 160224, Note_on_c, 0, 65, 80
2, 160316, Note_off_c, 0, 65, 100
2, 160320, Note_on_c, 0, 67, 80
2, 160412, Note_off_c, 0, 67, 100
2, 160416, Note_on_c, 0, 69, 80
2, 160508, Note_off_c, 0, 69, 100
2, 160512, Note_on_c, 0, 70, 80
2, 160892, Note_off_c, 0, 70, 100
2, 160896, Note_on_c, 0, 65, 80
2, 161276, Note_off_c, 0, 65, 100
2, 161280, Note_on_c, 0, 69, 80
2, 161324, Note_off_c, 0, 69, 100
2, 161328, Note_on_c, 0, 67, 80
2, 161372, Note_off_c, 0, 67, 100
2, 161376, Note_on_c, 0, 65, 80
2, 161468, Note_off_c, 0, 65, 100
2, 161472, Note_on_c, 0, 67, 80
2, 161564, Note_off_c, 0, 67, 100
2, 161568, Note_on_c, 0, 69, 80
2, 161660, Note_off_c, 0, 69, 100
2, 161664, Note_on_c, 0, 70, 80
2, 161948, Note_off_c, 0, 70, 100
2, 161952, Note_on_c, 0, 69, 80
2, 162044, Note_off_c, 0, 69, 100
2, 162048, Note_on_c, 0, 70, 80
2, 162332, Note_off_c, 0, 70, 100
2, 162336, Note_on_c, 0, 72, 80
2, 162428, Note_off_c, 0, 72, 100
2, 162432, Note_on_c, 0, 74, 80
2, 162716, Note_off_c, 0, 74, 100
2, 162720, Note_on_c, 0, 76, 80
2, 162812, Note_off_c, 0, 76, 100
2, 162816, Note_on_c, 0, 76, 80
2, 162816, Note_on_c, 0, 70, 80
2, 163196, Note_off_c, 0, 76, 100
2, 163196, Note_off_c, 0, 70, 100
2, 163200, Note_on_c, 0, 77, 80
2, 163200, Note_on_c, 0, 69, 80
2, 163388, Note_off_c, 0, 77, 100
2, 163388, Note_off_c, 0, 69, 100
2, 163584, Note_on_c, 0, 77, 80
2, 163628, Note_off_c, 0, 77, 100
2, 163632, Note_on_c, 0, 75, 80
2, 163676, Note_off_c, 0, 75, 100
2, 163680, Note_on_c, 0, 74, 80
2, 163772, Note_off_c, 0, 74, 100
2, 163776, Note_on_c, 0, 75, 80
2, 163868, Note_off_c, 0, 75, 100
2, 163872, Note_on_c, 0, 77, 80
2, 163964, Note_off_c, 0, 77, 100
2, 163968, Note_on_c, 0, 79, 80
2, 164348, Note_off_c, 0, 79, 100
2, 164352, Note_on_c, 0, 72, 80
2, 164732, Note_off_c, 0, 72, 100
2, 164736, Note_on_c, 0, 74, 80
2, 164780, Note_off_c, 0, 74, 100
2, 164784, Note_on_c, 0, 72, 80
2, 164828, Note_off_c, 0, 72, 100
2, 164832, Note_on_c, 0, 71, 80
2, 164924, Note_off_c, 0, 71, 100
2, 164928, Note_on_c, 0, 72, 80
2, 165020, Note_off_c, 0, 72, 100
2, 165024, Note_on_c, 0, 74, 80
2, 165116, Note_off_c, 0, 74, 100
2, 165120, Note_on_c, 0, 75, 80
2, 165500, Note_off_c, 0, 75, 100
2, 165504, Note_on_c, 0, 69, 80
2, 165884, Note_off_c, 0, 69, 100
2, 165888, Note_on_c, 0, 70, 80
2, 165932, Note_off_c, 0, 70, 100
2, 165936, Note_on_c, 0, 69, 80
2, 165980, Note_off_c, 0, 69, 100
2, 165984, Note_on_c, 0, 67, 80
2, 166076, Note_off_c, 0, 67, 100
2, 166080, Note_on_c, 0, 69, 80
2, 166172, Note_off_c, 0, 69, 100
2, 166176, Note_on_c, 0, 70, 80
2, 166268, Note_off_c, 0, 70, 100
2, 166272, Note_on_c, 0, 74, 80
2, 166292, Note_off_c, 0, 74, 100
2, 166320, Note_on_c, 0, 72, 80
2, 166340, Note_off_c, 0, 72, 100
2, 166368, Note_on_c, 0, 71, 80
2, 166460, Note_off_c, 0, 71, 100
2, 166464, Note_on_c, 0, 72, 80
2, 166556, Note_off_c, 0, 72, 100
2, 166560, Note_on_c, 0, 74, 80
2, 166652, Note_off_c, 0, 74, 100
2, 166656, Note_on_c, 0, 77, 80
2, 166676, Note_off_c, 0, 77, 100
2, 166704, Note_on_c, 0, 75, 80
2, 166724, Note_off_c, 0, 75, 100
2, 166752, Note_on_c, 0, 74, 80
2, 166844, Note_off_c, 0, 74, 100
2, 166848, Note_on_c, 0, 75, 80
2, 166940, Note_off_c, 0, 75, 100
2, 166944, Note_on_c, 0, 77, 80
2, 167036, Note_off_c, 0, 77, 100
2, 167040, Note_on_c, 0, 79, 80
2, 167132, Note_off_c, 0, 79, 100
2, 167136, Note_on_c, 0, 75, 80
2, 167228, Note_off_c, 0, 75, 100
2, 167232, Note_on_c, 0, 72, 80
2, 167324, Note_off_c, 0, 72, 100
2, 167328, Note_on_c, 0, 69, 80
2, 167420, Note_off_c, 0, 69, 100
2, 167424, Note_on_c, 0, 70, 80
2, 167804, Note_off_c, 0, 70, 100
2, 168192, Note_on_c, 0, 81, 80
2, 168236, Note_off_c, 0, 81, 100
2, 168240, Note_on_c, 0, 79, 80
2, 168284, Note_off_c, 0, 79, 100
2, 168288, Note_on_c, 0, 78, 80
2, 168380, Note_off_c, 0, 78, 100
2, 168384, Note_on_c, 0, 79, 80
2, 168476, Note_off_c, 0, 79, 100
2, 168480, Note_on_c, 0, 81, 80
2, 168572, Note_off_c, 0, 81, 100
2, 168576, Note_on_c, 0, 82, 80
2, 168956, Note_off_c, 0, 82, 100
2, 168960, Note_on_c, 0, 77, 80
2, 169148, Note_off_c, 0, 77, 100
2, 169344, Note_on_c, 0, 75, 80
2, 169344, Note_on_c, 0, 69, 80
2, 169388, Note_off_c, 0, 69, 100
2, 169392, Note_on_c, 0, 67, 80
2, 169436, Note_off_c, 0, 67, 100
2, 169440, Note_on_c, 0, 65, 80
2, 169532, Note_off_c, 0, 65, 100
2, 169536, Note_on_c, 0, 67, 80
2, 169628, Note_off_c, 0, 67, 100
2, 169632, Note_on_c, 0, 69, 80
2, 169724, Note_off_c, 0, 75, 100
2, 169724, Note_off_c, 0, 69, 100
2, 169728, Note_on_c, 0, 74, 80
2, 169728, Note_on_c, 0, 70, 80
2, 170108, Note_off_c, 0, 74, 100
2, 170108, Note_off_c, 0, 70, 100
2, 170112, Note_on_c, 0, 65, 80
2, 170300, Note_off_c, 0, 65, 100
2, 170496, Note_on_c, 0, 69, 80
2, 170540, Note_off_c, 0, 69, 100
2, 170544, Note_on_c, 0, 67, 80
2, 170588, Note_off_c, 0, 67, 100
2, 170592, Note_on_c, 0, 66, 80
2, 170684, Note_off_c, 0, 66, 100
2, 170688, Note_on_c, 0, 67, 80
2, 170780, Note_off_c, 0, 67, 100
2, 170784, Note_on_c, 0, 69, 80
2, 170876, Note_off_c, 0, 69, 100
2, 170880, Note_on_c, 0, 70, 80
2, 171260, Note_off_c, 0, 70, 100
2, 171264, Note_on_c, 0, 65, 80
2, 171452, Note_off_c, 0, 65, 100
2, 171648, Note_on_c, 0, 63, 80
2, 171648, Note_on_c, 0, 57, 80
2, 171692, Note_off_c, 0, 57, 100
2, 171696, Note_on_c, 0, 55, 80
2, 171740, Note_off_c, 0, 55, 100
2, 171744, Note_on_c, 0, 53, 80
2, 171836, Note_off_c, 0, 53, 100
2, 171840, Note_on_c, 0, 55, 81
2, 171932, Note_off_c, 0, 55, 100
2, 171936, Note_on_c, 0, 57, 82
2, 172028, Note_off_c, 0, 63, 100
2, 172028, Note_off_c, 0, 57, 100
2, 172032, Note_on_c, 0, 58, 82
2, 172032, Note_on_c, 0, 62, 82
2, 172220, Note_off_c, 0, 58, 100
2, 172224, Note_on_c, 0, 53, 84
2, 172412, Note_off_c, 0, 62, 100
2, 172412, Note_off_c, 0, 53, 100
2, 172416, Note_on_c, 0, 63, 85
2, 172416, Note_on_c, 0, 57, 85
2, 172460, Note_off_c, 0, 57, 100
2, 172464, Note_on_c, 0, 55, 86
2, 172508, Note_off_c, 0, 55, 100
2, 172512, Note_on_c, 0, 53, 86
2, 172604, Note_off_c, 0, 53, 100
2, 172608, Note_on_c, 0, 55, 87
2, 172700, Note_off_c, 0, 55, 100
2, 172704, Note_on_c, 0, 57, 87
2, 172796, Note_off_c, 0, 63, 100
2, 172796, Note_off_c, 0, 57, 100
2, 172800, Note_on_c, 0, 58, 88
2, 172800, Note_on_c, 0, 62, 88
2, 172988, Note_off_c, 0, 58, 100
2, 172992, Note_on_c, 0, 53, 89
2, 173180, Note_off_c, 0, 62, 100
2, 173180, Note_off_c, 0, 53, 100
2, 173184, Note_on_c, 0, 63, 91
2, 173184, Note_on_c, 0, 57, 91
2, 173228, Note_off_c, 0, 57, 100
2, 173232, Note_on_c, 0, 55, 91
2, 173276, Note_off_c, 0, 55, 100
2, 173280, Note_on_c, 0, 53, 92
2, 173372, Note_off_c, 0, 53, 100
2, 173376, Note_on_c, 0, 55, 92
2, 173468, Note_off_c, 0, 55, 100
2, 173472, Note_on_c, 0, 57, 93
2, 173564, Note_off_c, 0, 63, 100
2, 173564, Note_off_c, 0, 57, 100
2, 173568, Note_on_c, 0, 62, 94
2, 173568, Note_on_c, 0, 58, 94
2, 173660, Note_off_c, 0, 58, 100
2, 173664, Note_on_c, 0, 53, 94
2, 173756, Note_off_c, 0, 62, 100
2, 173756, Note_off_c, 0, 53, 100
2, 173760, Note_on_c, 0, 63, 95
2, 173760, Note_on_c, 0, 57, 95
2, 173852, Note_off_c, 0, 57, 100
2, 173856, Note_on_c, 0, 53, 96
2, 173948, Note_off_c, 0, 63, 100
2, 173948, Note_off_c, 0, 53, 100
2, 173952, Note_on_c, 0, 62, 97
2, 173952, Note_on_c, 0, 58, 97
2, 174044, Note_off_c, 0, 58, 100
2, 174048, Note_on_c, 0, 53, 97
2, 174140, Note_off_c, 0, 62, 100
2, 174140, Note_off_c, 0, 53, 100
2, 174144, Note_on_c, 0, 63, 98
2, 174144, Note_on_c, 0, 57, 98
2, 174236, Note_off_c, 0, 57, 100
2, 174240, Note_on_c, 0, 53, 99
2, 174332, Note_off_c, 0, 63, 100
2, 174332, Note_off_c, 0, 53, 100
2, 174336, Note_on_c, 0, 62, 99
2, 174336, Note_on_c, 0, 58, 99
2, 174716, Note_off_c, 0, 62, 100
2, 174716, Note_off_c, 0, 58, 100
2, 174720, Note_on_c, 0, 70, 80
2, 174720, Note_on_c, 0, 62, 80
2, 175484, Note_off_c, 0, 70, 100
2, 175484, Note_off_c, 0, 62, 100
2, 175872, Control_c, 0, 7, 0
2, 176256, Note_on_c, 0, 70, 1
2, 176636, Note_off_c, 0, 70, 100
2, 176636, End_track
3, 0, Start_track
3, 0, Title_t, "Left"
3, 0, Control_c, 1, 0, 0
3, 0, Program_c, 1, 0
3, 0, Control_c, 1, 7, 100
3, 0, Control_c, 1, 10, 52
3, 0, Control_c, 1, 91, 127
3, 0, Key_signature, -2, "major"
3, 384, Note_on_c, 1, 46, 80
3, 572, Note_off_c, 1, 46, 100
3, 576, Note_on_c, 1, 58, 80
3, 764, Note_off_c, 1, 58, 100
3, 768, Note_on_c, 1, 62, 80
3, 956, Note_off_c, 1, 62, 100
3, 960, Note_on_c, 1, 58, 80
3, 1148, Note_off_c, 1, 58, 100
3, 1152, Note_on_c, 1, 63, 80
3, 1340, Note_off_c, 1, 63, 100
3, 1344, Note_on_c, 1, 60, 80
3, 1532, Note_off_c, 1, 60, 100
3, 1536, Note_on_c, 1, 62, 80
3, 1724, Note_off_c, 1, 62, 100
3, 1728, Note_on_c, 1, 61, 80
3, 1916, Note_off_c, 1, 61, 100
3, 1920, Note_on_c, 1, 62, 80
3, 2108, Note_off_c, 1, 62, 100
3, 2112, Note_on_c, 1, 58, 80
3, 2300, Note_off_c, 1, 58, 100
3, 2304, Note_on_c, 1, 63, 80
3, 2492, Note_off_c, 1, 63, 100
3, 2496, Note_on_c, 1, 60, 80
3, 2684, Note_off_c, 1, 60, 100
3, 2688, Note_on_c, 1, 62, 80
3, 2876, Note_off_c, 1, 62, 100
3, 2880, Note_on_c, 1, 61, 80
3, 3068, Note_off_c, 1, 61, 100
3, 3072, Note_on_c, 1, 62, 80
3, 3260, Note_off_c, 1, 62, 100
3, 3264, Note_on_c, 1, 57, 80
3, 3452, Note_off_c, 1, 57, 100
3, 3456, Note_on_c, 1, 58, 80
3, 3644, Note_off_c, 1, 58, 100
3, 3648, Note_on_c, 1, 55, 80
3, 3836, Note_off_c, 1, 55, 100
3, 3840, Note_on_c, 1, 53, 80
3, 4224, Note_on_c, 1, 65, 80
3, 4412, Note_off_c, 1, 53, 100
3, 4412, Note_off_c, 1, 65, 100
3, 5184, Note_on_c, 1, 53, 80
3, 5376, Note_on_c, 1, 57, 80
3, 5564, Note_off_c, 1, 57, 100
3, 5568, Note_on_c, 1, 60, 80
3, 5756, Note_off_c, 1, 60, 100
3, 5760, Note_on_c, 1, 63, 80
3, 6332, Note_off_c, 1, 63, 100
3, 6336, Note_on_c, 1, 53, 80
3, 6528, Note_on_c, 1, 60, 80
3, 6716, Note_off_c, 1, 60, 100
3, 6720, Note_on_c, 1, 63, 80
3, 6908, Note_off_c, 1, 63, 100
3, 6912, Note_on_c, 1, 66, 80
3, 7676, Note_off_c, 1, 53, 100
3, 7676, Note_off_c, 1, 66, 100
3, 7680, Note_on_c, 1, 65, 80
3, 7680, Note_on_c, 1, 53, 80
3, 8060, Note_off_c, 1, 53, 100
3, 8060, Note_off_c, 1, 65, 100
3, 8064, Note_on_c, 1, 53, 80
3, 8064, Note_on_c, 1, 63, 80
3, 8444, Note_off_c, 1, 53, 100
3, 8444, Note_off_c, 1, 63, 100
3, 8448, Note_on_c, 1, 63, 80
3, 8448, Note_on_c, 1, 58, 80
3, 8828, Note_off_c, 1, 63, 100
3, 9020, Note_off_c, 1, 58, 100
3, 9600, Note_on_c, 1, 46, 80
3, 9788, Note_off_c, 1, 46, 100
3, 9792, Note_on_c, 1, 58, 80
3, 9980, Note_off_c, 1, 58, 100
3, 9984, Note_on_c, 1, 62, 80
3, 10172, Note_off_c, 1, 62, 100
3, 10176, Note_on_c, 1, 58, 80
3, 10364, Note_off_c, 1, 58, 100
3, 10368, Note_on_c, 1, 63, 80
3, 10556, Note_off_c, 1, 63, 100
3, 10560, Note_on_c, 1, 60, 80
3, 10748, Note_off_c, 1, 60, 100
3, 10752, Note_on_c, 1, 62, 80
3, 10940, Note_off_c, 1, 62, 100
3, 10944, Note_on_c, 1, 61, 80
3, 11132, Note_off_c, 1, 61, 100
3, 11136, Note_on_c, 1, 62, 80
3, 11324, Note_off_c, 1, 62, 100
3, 11328, Note_on_c, 1, 58, 80
3, 11516, Note_off_c, 1, 58, 100
3, 11520, Note_on_c, 1, 63, 80
3, 11708, Note_off_c, 1, 63, 100
3, 11712, Note_on_c, 1, 60, 80
3, 11900, Note_off_c, 1, 60, 100
3, 11904, Note_on_c, 1, 62, 80
3, 12092, Note_off_c, 1, 62, 100
3, 12096, Note_on_c, 1, 61, 80
3, 12284, Note_off_c, 1, 61, 100
3, 12288, Note_on_c, 1, 62, 80
3, 12476, Note_off_c, 1, 62, 100
3, 12480, Note_on_c, 1, 57, 80
3, 12668, Note_off_c, 1, 57, 100
3, 12672, Note_on_c, 1, 58, 80
3, 12860, Note_off_c, 1, 58, 100
3, 12864, Note_on_c, 1, 55, 80
3, 13052, Note_off_c, 1, 55, 100
3, 13056, Note_on_c, 1, 53, 80
3, 13440, Note_on_c, 1, 65, 80
3, 13628, Note_off_c, 1, 53, 100
3, 13628, Note_off_c, 1, 65, 100
3, 14400, Note_on_c, 1, 53, 80
3, 14592, Note_on_c, 1, 57, 80
3, 14780, Note_off_c, 1, 57, 100
3, 14784, Note_on_c, 1, 60, 80
3, 14972, Note_off_c, 1, 60, 100
3, 14976, Note_on_c, 1, 63, 80
3, 15364, Note_off_c, 1, 53, 100
3, 15548, Note_off_c, 1, 63, 100
3, 15552, Note_on_c, 1, 53, 80
3, 15744, Note_on_c, 1, 60, 80
3, 15932, Note_off_c, 1, 60, 100
3, 15936, Note_on_c, 1, 63, 80
3, 16124, Note_off_c, 1, 63, 100
3, 16128, Note_on_c, 1, 66, 80
3, 16892, Note_off_c, 1, 53, 100
3, 16892, Note_off_c, 1, 66, 100
3, 16896, Note_on_c, 1, 65, 80
3, 16896, Note_on_c, 1, 53, 80
3, 17276, Note_off_c, 1, 53, 100
3, 17276, Note_off_c, 1, 65, 100
3, 17280, Note_on_c, 1, 53, 80
3, 17280, Note_on_c, 1, 63, 80
3, 17660, Note_off_c, 1, 53, 100
3, 17660, Note_off_c, 1, 53, 64
3, 17660, Note_off_c, 1, 63, 100
3, 17664, Note_on_c, 1, 63, 80
3, 17664, Note_on_c, 1, 58, 80
3, 18044, Note_off_c, 1, 63, 100
3, 18236, Note_off_c, 1, 58, 100
3, 18432, Note_on_c, 1, 66, 80
3, 18524, Note_off_c, 1, 66, 100
3, 18528, Note_on_c, 1, 67, 81
3, 18620, Note_off_c, 1, 67, 100
3, 18624, Note_on_c, 1, 66, 83
3, 18716, Note_off_c, 1, 66, 100
3, 18720, Note_on_c, 1, 67, 85
3, 18812, Note_off_c, 1, 67, 100
3, 18816, Note_on_c, 1, 66, 87
3, 18908, Note_off_c, 1, 66, 100
3, 18912, Note_on_c, 1, 67, 89
3, 19004, Note_off_c, 1, 67, 100
3, 19008, Note_on_c, 1, 66, 91
3, 19100, Note_off_c, 1, 66, 100
3, 19104, Note_on_c, 1, 67, 93
3, 19196, Note_off_c, 1, 67, 100
3, 19200, Note_on_c, 1, 66, 94
3, 19292, Note_off_c, 1, 66, 100
3, 19296, Note_on_c, 1, 67, 96
3, 19388, Note_off_c, 1, 67, 100
3, 19392, Note_on_c, 1, 66, 98
3, 19484, Note_off_c, 1, 66, 100
3, 19488, Note_on_c, 1, 67, 100
3, 19580, Note_off_c, 1, 67, 100
3, 19584, Note_on_c, 1, 66, 102
3, 19676, Note_off_c, 1, 66, 100
3, 19680, Note_on_c, 1, 67, 104
3, 19772, Note_off_c, 1, 67, 100
3, 19776, Note_on_c, 1, 66, 106
3, 19868, Note_off_c, 1, 66, 100
3, 19872, Note_on_c, 1, 67, 108
3, 19964, Note_off_c, 1, 67, 100
3, 19968, Note_on_c, 1, 66, 109
3, 20156, Note_off_c, 1, 66, 100
3, 20352, Note_on_c, 1, 62, 120
3, 20352, Note_on_c, 1, 50, 120
3, 20924, Note_off_c, 1, 62, 100
3, 20924, Note_off_c, 1, 50, 100
3, 20928, Note_on_c, 1, 62, 120
3, 20928, Note_on_c, 1, 50, 120
3, 21116, Note_off_c, 1, 62, 100
3, 21116, Note_off_c, 1, 50, 100
3, 21120, Note_on_c, 1, 63, 120
3, 21120, Note_on_c, 1, 51, 120
3, 21404, Note_off_c, 1, 63, 100
3, 21404, Note_off_c, 1, 51, 100
3, 21408, Note_on_c, 1, 60, 120
3, 21408, Note_on_c, 1, 48, 120
3, 21500, Note_off_c, 1, 60, 100
3, 21500, Note_off_c, 1, 48, 100
3, 21504, Note_on_c, 1, 62, 120
3, 21504, Note_on_c, 1, 50, 120
3, 21884, Note_off_c, 1, 62, 100
3, 21884, Note_off_c, 1, 50, 100
3, 21888, Note_on_c, 1, 50, 120
3, 21888, Note_on_c, 1, 38, 120
3, 22268, Note_off_c, 1, 50, 100
3, 22268, Note_off_c, 1, 38, 100
3, 22272, Note_on_c, 1, 55, 120
3, 22272, Note_on_c, 1, 43, 120
3, 22844, Note_off_c, 1, 55, 100
3, 22844, Note_off_c, 1, 43, 100
3, 23040, Note_on_c, 1, 50, 80
3, 23132, Note_off_c, 1, 50, 100
3, 23136, Note_on_c, 1, 51, 81
3, 23228, Note_off_c, 1, 51, 100
3, 23232, Note_on_c, 1, 50, 83
3, 23324, Note_off_c, 1, 50, 100
3, 23328, Note_on_c, 1, 51, 85
3, 23420, Note_off_c, 1, 51, 100
3, 23424, Note_on_c, 1, 50, 87
3, 23516, Note_off_c, 1, 50, 100
3, 23520, Note_on_c, 1, 51, 89
3, 23612, Note_off_c, 1, 51, 100
3, 23616, Note_on_c, 1, 50, 91
3, 23708, Note_off_c, 1, 50, 100
3, 23712, Note_on_c, 1, 51, 93
3, 23804, Note_off_c, 1, 51, 100
3, 23808, Note_on_c, 1, 50, 94
3, 23900, Note_off_c, 1, 50, 100
3, 23904, Note_on_c, 1, 51, 96
3, 23996, Note_off_c, 1, 51, 100
3, 24000, Note_on_c, 1, 50, 98
3, 24092, Note_off_c, 1, 50, 100
3, 24096, Note_on_c, 1, 51, 100
3, 24188, Note_off_c, 1, 51, 100
3, 24192, Note_on_c, 1, 50, 102
3, 24284, Note_off_c, 1, 50, 100
3, 24288, Note_on_c, 1, 51, 104
3, 24380, Note_off_c, 1, 51, 100
3, 24384, Note_on_c, 1, 50, 106
3, 24476, Note_off_c, 1, 50, 100
3, 24480, Note_on_c, 1, 51, 108
3, 24572, Note_off_c, 1, 51, 100
3, 24576, Note_on_c, 1, 50, 109
3, 24764, Note_off_c, 1, 50, 100
3, 24960, Note_on_c, 1, 53, 80
3, 24960, Note_on_c, 1, 50, 80
3, 25532, Note_off_c, 1, 53, 64
3, 25532, Note_off_c, 1, 50, 100
3, 25536, Note_on_c, 1, 55, 80
3, 25536, Note_on_c, 1, 51, 80
3, 25724, Note_off_c, 1, 55, 100
3, 25724, Note_off_c, 1, 51, 100
3, 25728, Note_on_c, 1, 50, 80
3, 25728, Note_on_c, 1, 47, 80
3, 26012, Note_off_c, 1, 50, 100
3, 26012, Note_off_c, 1, 47, 100
3, 26016, Note_on_c, 1, 51, 80
3, 26016, Note_on_c, 1, 48, 80
3, 26108, Note_off_c, 1, 51, 100
3, 26108, Note_off_c, 1, 48, 100
3, 26112, Note_on_c, 1, 53, 80
3, 26112, Note_on_c, 1, 50, 80
3, 26492, Note_off_c, 1, 53, 64
3, 26492, Note_off_c, 1, 50, 100
3, 26496, Note_on_c, 1, 55, 80
3, 26496, Note_on_c, 1, 51, 80
3, 26876, Note_off_c, 1, 55, 100
3, 26876, Note_off_c, 1, 51, 100
3, 26880, Note_on_c, 1, 53, 80
3, 27264, Note_on_c, 1, 41, 80
3, 27452, Note_off_c, 1, 53, 64
3, 27452, Note_off_c, 1, 41, 100
3, 28032, Note_on_c, 1, 46, 80
3, 28220, Note_off_c, 1, 46, 100
3, 28224, Note_on_c, 1, 58, 80
3, 28412, Note_off_c, 1, 58, 100
3, 28416, Note_on_c, 1, 62, 80
3, 28604, Note_off_c, 1, 62, 100
3, 28608, Note_on_c, 1, 58, 80
3, 28796, Note_off_c, 1, 58, 100
3, 28800, Note_on_c, 1, 63, 80
3, 28988, Note_off_c, 1, 63, 100
3, 28992, Note_on_c, 1, 60, 80
3, 29180, Note_off_c, 1, 60, 100
3, 29184, Note_on_c, 1, 62, 80
3, 29372, Note_off_c, 1, 62, 100
3, 29376, Note_on_c, 1, 61, 80
3, 29564, Note_off_c, 1, 61, 100
3, 29568, Note_on_c, 1, 62, 80
3, 29756, Note_off_c, 1, 62, 100
3, 29760, Note_on_c, 1, 58, 80
3, 29948, Note_off_c, 1, 58, 100
3, 29952, Note_on_c, 1, 63, 80
3, 30140, Note_off_c, 1, 63, 100
3, 30144, Note_on_c, 1, 60, 80
3, 30332, Note_off_c, 1, 60, 100
3, 30336, Note_on_c, 1, 62, 80
3, 30524, Note_off_c, 1, 62, 100
3, 30528, Note_on_c, 1, 61, 80
3, 30716, Note_off_c, 1, 61, 100
3, 30720, Note_on_c, 1, 62, 80
3, 30908, Note_off_c, 1, 62, 100
3, 30912, Note_on_c, 1, 57, 80
3, 31100, Note_off_c, 1, 57, 100
3, 31104, Note_on_c, 1, 58, 80
3, 31292, Note_off_c, 1, 58, 100
3, 31296, Note_on_c, 1, 55, 80
3, 31484, Note_off_c, 1, 55, 100
3, 31488, Note_on_c, 1, 53, 80
3, 31868, Note_off_c, 1, 53, 64
3, 31872, Note_on_c, 1, 65, 80
3, 32060, Note_off_c, 1, 65, 100
3, 32736, Note_on_c, 1, 41, 80
3, 32828, Note_off_c, 1, 41, 100
3, 32832, Note_on_c, 1, 45, 80
3, 32924, Note_off_c, 1, 45, 100
3, 32928, Note_on_c, 1, 48, 80
3, 33020, Note_off_c, 1, 48, 100
3, 33024, Note_on_c, 1, 53, 80
3, 33116, Note_off_c, 1, 53, 64
3, 33120, Note_on_c, 1, 57, 80
3, 33212, Note_off_c, 1, 57, 100
3, 33216, Note_on_c, 1, 60, 80
3, 33308, Note_off_c, 1, 60, 100
3, 33312, Note_on_c, 1, 62, 80
3, 33404, Note_off_c, 1, 62, 100
3, 33408, Note_on_c, 1, 63, 80
3, 33888, Note_on_c, 1, 41, 80
3, 33980, Note_off_c, 1, 63, 64
3, 33980, Note_off_c, 1, 41, 100
3, 33984, Note_on_c, 1, 45, 80
3, 34076, Note_off_c, 1, 45, 100
3, 34080, Note_on_c, 1, 48, 80
3, 34172, Note_off_c, 1, 48, 100
3, 34176, Note_on_c, 1, 53, 80
3, 34268, Note_off_c, 1, 53, 64
3, 34272, Note_on_c, 1, 57, 80
3, 34364, Note_off_c, 1, 57, 100
3, 34368, Note_on_c, 1, 60, 80
3, 34460, Note_off_c, 1, 60, 100
3, 34464, Note_on_c, 1, 63, 80
3, 34556, Note_off_c, 1, 63, 100
3, 34560, Note_on_c, 1, 66, 105
3, 35324, Note_off_c, 1, 66, 100
3, 35328, Note_on_c, 1, 53, 80
3, 35328, Note_on_c, 1, 65, 80
3, 35708, Note_off_c, 1, 53, 64
3, 35708, Note_off_c, 1, 65, 100
3, 35712, Note_on_c, 1, 63, 80
3, 35712, Note_on_c, 1, 51, 80
3, 36092, Note_off_c, 1, 63, 100
3, 36092, Note_off_c, 1, 51, 100
3, 36096, Note_on_c, 1, 46, 80
3, 36284, Note_off_c, 1, 46, 100
3, 36288, Note_on_c, 1, 58, 80
3, 36476, Note_off_c, 1, 58, 100
3, 36480, Note_on_c, 1, 62, 80
3, 36668, Note_off_c, 1, 62, 100
3, 36672, Note_on_c, 1, 58, 80
3, 36860, Note_off_c, 1, 58, 100
3, 36864, Note_on_c, 1, 63, 80
3, 37052, Note_off_c, 1, 63, 100
3, 37056, Note_on_c, 1, 60, 80
3, 37244, Note_off_c, 1, 60, 100
3, 37248, Note_on_c, 1, 62, 80
3, 37436, Note_off_c, 1, 62, 100
3, 37440, Note_on_c, 1, 61, 80
3, 37628, Note_off_c, 1, 61, 100
3, 37632, Note_on_c, 1, 62, 80
3, 37820, Note_off_c, 1, 62, 100
3, 37824, Note_on_c, 1, 58, 80
3, 38012, Note_off_c, 1, 58, 100
3, 38016, Note_on_c, 1, 63, 80
3, 38204, Note_off_c, 1, 63, 100
3, 38208, Note_on_c, 1, 60, 80
3, 38396, Note_off_c, 1, 60, 100
3, 38400, Note_on_c, 1, 58, 80
3, 38588, Note_off_c, 1, 58, 100
3, 38592, Note_on_c, 1, 46, 80
3, 38780, Note_off_c, 1, 46, 100
3, 38784, Note_on_c, 1, 50, 80
3, 38972, Note_off_c, 1, 50, 100
3, 38976, Note_on_c, 1, 46, 80
3, 39164, Note_off_c, 1, 46, 100
3, 39168, Note_on_c, 1, 51, 80
3, 39356, Note_off_c, 1, 51, 100
3, 39360, Note_on_c, 1, 48, 80
3, 39548, Note_off_c, 1, 48, 100
3, 39552, Note_on_c, 1, 50, 80
3, 39740, Note_off_c, 1, 50, 100
3, 39744, Note_on_c, 1, 49, 80
3, 39932, Note_off_c, 1, 49, 100
3, 39936, Note_on_c, 1, 50, 80
3, 40124, Note_off_c, 1, 50, 100
3, 40128, Note_on_c, 1, 46, 80
3, 40316, Note_off_c, 1, 46, 100
3, 40320, Note_on_c, 1, 51, 80
3, 40508, Note_off_c, 1, 51, 100
3, 40512, Note_on_c, 1, 48, 81
3, 40700, Note_off_c, 1, 48, 100
3, 40704, Note_on_c, 1, 46, 82
3, 40892, Note_off_c, 1, 46, 100
3, 40896, Note_on_c, 1, 50, 84
3, 41084, Note_off_c, 1, 50, 100
3, 41088, Note_on_c, 1, 48, 85
3, 41276, Note_off_c, 1, 48, 100
3, 41280, Note_on_c, 1, 41, 87
3, 41468, Note_off_c, 1, 41, 100
3, 41472, Note_on_c, 1, 46, 88
3, 41660, Note_off_c, 1, 46, 100
3, 41664, Note_on_c, 1, 50, 90
3, 41852, Note_off_c, 1, 50, 100
3, 41856, Note_on_c, 1, 48, 91
3, 42044, Note_off_c, 1, 48, 100
3, 42048, Note_on_c, 1, 41, 93
3, 42236, Note_off_c, 1, 41, 100
3, 42240, Note_on_c, 1, 46, 94
3, 42332, Note_off_c, 1, 46, 100
3, 42336, Note_on_c, 1, 50, 95
3, 42428, Note_off_c, 1, 50, 100
3, 42432, Note_on_c, 1, 41, 96
3, 42524, Note_off_c, 1, 41, 100
3, 42528, Note_on_c, 1, 48, 97
3, 42620, Note_off_c, 1, 48, 100
3, 42624, Note_on_c, 1, 46, 97
3, 42716, Note_off_c, 1, 46, 100
3, 42720, Note_on_c, 1, 50, 98
3, 42812, Note_off_c, 1, 50, 100
3, 42816, Note_on_c, 1, 41, 99
3, 42908, Note_off_c, 1, 41, 100
3, 42912, Note_on_c, 1, 48, 99
3, 43004, Note_off_c, 1, 48, 100
3, 43008, Note_on_c, 1, 50, 100
3, 43008, Note_on_c, 1, 46, 100
3, 43388, Note_off_c, 1, 50, 100
3, 43388, Note_off_c, 1, 46, 100
3, 43392, Note_on_c, 1, 46, 80
3, 43392, Note_on_c, 1, 34, 80
3, 43772, Note_off_c, 1, 46, 100
3, 43772, Note_off_c, 1, 34, 100
3, 43776, Note_on_c, 1, 66, 80
3, 43868, Note_off_c, 1, 66, 100
3, 43872, Note_on_c, 1, 67, 81
3, 43964, Note_off_c, 1, 67, 100
3, 43968, Note_on_c, 1, 66, 83
3, 44060, Note_off_c, 1, 66, 100
3, 44064, Note_on_c, 1, 67, 85
3, 44156, Note_off_c, 1, 67, 100
3, 44160, Note_on_c, 1, 66, 87
3, 44252, Note_off_c, 1, 66, 100
3, 44256, Note_on_c, 1, 67, 89
3, 44348, Note_off_c, 1, 67, 100
3, 44352, Note_on_c, 1, 66, 91
3, 44444, Note_off_c, 1, 66, 100
3, 44448, Note_on_c, 1, 67, 93
3, 44540, Note_off_c, 1, 67, 100
3, 44544, Note_on_c, 1, 66, 94
3, 44636, Note_off_c, 1, 66, 100
3, 44640, Note_on_c, 1, 67, 96
3, 44732, Note_off_c, 1, 67, 100
3, 44736, Note_on_c, 1, 66, 98
3, 44828, Note_off_c, 1, 66, 100
3, 44832, Note_on_c, 1, 67, 100
3, 44924, Note_off_c, 1, 67, 100
3, 44928, Note_on_c, 1, 66, 102
3, 45020, Note_off_c, 1, 66, 100
3, 45024, Note_on_c, 1, 67, 104
3, 45116, Note_off_c, 1, 67, 100
3, 45120, Note_on_c, 1, 66, 106
3, 45212, Note_off_c, 1, 66, 100
3, 45216, Note_on_c, 1, 67, 108
3, 45308, Note_off_c, 1, 67, 100
3, 45312, Note_on_c, 1, 66, 109
3, 45500, Note_off_c, 1, 66, 100
3, 45696, Note_on_c, 1, 62, 120
3, 45696, Note_on_c, 1, 50, 120
3, 46268, Note_off_c, 1, 62, 100
3, 46268, Note_off_c, 1, 50, 100
3, 46272, Note_on_c, 1, 62, 120
3, 46272, Note_on_c, 1, 50, 120
3, 46460, Note_off_c, 1, 62, 100
3, 46460, Note_off_c, 1, 50, 100
3, 46464, Note_on_c, 1, 63, 120
3, 46464, Note_on_c, 1, 51, 120
3, 46748, Note_off_c, 1, 63, 100
3, 46748, Note_off_c, 1, 51, 100
3, 46752, Note_on_c, 1, 60, 120
3, 46752, Note_on_c, 1, 48, 120
3, 46844, Note_off_c, 1, 60, 100
3, 46844, Note_off_c, 1, 48, 100
3, 46848, Note_on_c, 1, 62, 120
3, 46848, Note_on_c, 1, 50, 120
3, 47228, Note_off_c, 1, 62, 100
3, 47228, Note_off_c, 1, 50, 100
3, 47232, Note_on_c, 1, 50, 120
3, 47232, Note_on_c, 1, 38, 120
3, 47612, Note_off_c, 1, 50, 100
3, 47612, Note_off_c, 1, 38, 100
3, 47616, Note_on_c, 1, 55, 120
3, 47616, Note_on_c, 1, 43, 120
3, 48188, Note_off_c, 1, 55, 100
3, 48188, Note_off_c, 1, 43, 100
3, 48384, Note_on_c, 1, 50, 80
3, 48476, Note_off_c, 1, 50, 100
3, 48480, Note_on_c, 1, 51, 81
3, 48572, Note_off_c, 1, 51, 100
3, 48576, Note_on_c, 1, 50, 82
3, 48668, Note_off_c, 1, 50, 100
3, 48672, Note_on_c, 1, 51, 83
3, 48764, Note_off_c, 1, 51, 100
3, 48768, Note_on_c, 1, 50, 84
3, 48860, Note_off_c, 1, 50, 100
3, 48864, Note_on_c, 1, 51, 86
3, 48956, Note_off_c, 1, 51, 100
3, 48960, Note_on_c, 1, 50, 87
3, 49052, Note_off_c, 1, 50, 100
3, 49056, Note_on_c, 1, 51, 88
3, 49148, Note_off_c, 1, 51, 100
3, 49152, Note_on_c, 1, 50, 89
3, 49244, Note_off_c, 1, 50, 100
3, 49248, Note_on_c, 1, 51, 91
3, 49340, Note_off_c, 1, 51, 100
3, 49344, Note_on_c, 1, 50, 92
3, 49436, Note_off_c, 1, 50, 100
3, 49440, Note_on_c, 1, 51, 93
3, 49532, Note_off_c, 1, 51, 100
3, 49536, Note_on_c, 1, 50, 94
3, 49628, Note_off_c, 1, 50, 100
3, 49632, Note_on_c, 1, 51, 96
3, 49724, Note_off_c, 1, 51, 100
3, 49728, Note_on_c, 1, 50, 97
3, 49820, Note_off_c, 1, 50, 100
3, 49824, Note_on_c, 1, 51, 98
3, 49916, Note_off_c, 1, 51, 100
3, 49920, Note_on_c, 1, 50, 99
3, 50108, Note_off_c, 1, 50, 100
3, 50304, Note_on_c, 1, 53, 100
3, 50304, Note_on_c, 1, 50, 100
3, 50876, Note_off_c, 1, 53, 64
3, 50876, Note_off_c, 1, 50, 100
3, 50880, Note_on_c, 1, 55, 80
3, 50880, Note_on_c, 1, 51, 80
3, 51068, Note_off_c, 1, 55, 100
3, 51068, Note_off_c, 1, 51, 100
3, 51072, Note_on_c, 1, 50, 80
3, 51072, Note_on_c, 1, 47, 80
3, 51356, Note_off_c, 1, 50, 100
3, 51356, Note_off_c, 1, 47, 100
3, 51360, Note_on_c, 1, 51, 80
3, 51360, Note_on_c, 1, 48, 80
3, 51452, Note_off_c, 1, 51, 100
3, 51452, Note_off_c, 1, 48, 100
3, 51456, Note_on_c, 1, 53, 80
3, 51456, Note_on_c, 1, 50, 80
3, 51836, Note_off_c, 1, 53, 64
3, 51836, Note_off_c, 1, 50, 100
3, 51840, Note_on_c, 1, 55, 80
3, 51840, Note_on_c, 1, 51, 80
3, 52220, Note_off_c, 1, 55, 100
3, 52220, Note_off_c, 1, 51, 100
3, 52224, Note_on_c, 1, 53, 80
3, 52604, Note_off_c, 1, 53, 64
3, 52608, Note_on_c, 1, 41, 80
3, 52796, Note_off_c, 1, 41, 100
3, 53376, Note_on_c, 1, 46, 80
3, 53564, Note_off_c, 1, 46, 100
3, 53568, Note_on_c, 1, 58, 80
3, 53756, Note_off_c, 1, 58, 100
3, 53760, Note_on_c, 1, 62, 80
3, 53948, Note_off_c, 1, 62, 100
3, 53952, Note_on_c, 1, 58, 80
3, 54140, Note_off_c, 1, 58, 100
3, 54144, Note_on_c, 1, 63, 80
3, 54332, Note_off_c, 1, 63, 100
3, 54336, Note_on_c, 1, 60, 80
3, 54524, Note_off_c, 1, 60, 100
3, 54528, Note_on_c, 1, 62, 80
3, 54716, Note_off_c, 1, 62, 100
3, 54720, Note_on_c, 1, 61, 80
3, 54908, Note_off_c, 1, 61, 100
3, 54912, Note_on_c, 1, 62, 80
3, 55100, Note_off_c, 1, 62, 100
3, 55104, Note_on_c, 1, 58, 80
3, 55292, Note_off_c, 1, 58, 100
3, 55296, Note_on_c, 1, 63, 80
3, 55484, Note_off_c, 1, 63, 100
3, 55488, Note_on_c, 1, 60, 80
3, 55676, Note_off_c, 1, 60, 100
3, 55680, Note_on_c, 1, 62, 80
3, 55868, Note_off_c, 1, 62, 100
3, 55872, Note_on_c, 1, 61, 80
3, 56060, Note_off_c, 1, 61, 100
3, 56064, Note_on_c, 1, 62, 80
3, 56252, Note_off_c, 1, 62, 100
3, 56256, Note_on_c, 1, 57, 80
3, 56444, Note_off_c, 1, 57, 100
3, 56448, Note_on_c, 1, 58, 80
3, 56636, Note_off_c, 1, 58, 100
3, 56640, Note_on_c, 1, 55, 80
3, 56828, Note_off_c, 1, 55, 100
3, 56832, Note_on_c, 1, 53, 80
3, 57212, Note_off_c, 1, 53, 64
3, 57216, Note_on_c, 1, 65, 80
3, 57404, Note_off_c, 1, 65, 100
3, 57984, Control_c, 1, 64, 127
3, 58080, Note_on_c, 1, 41, 80
3, 58172, Note_off_c, 1, 41, 100
3, 58176, Note_on_c, 1, 45, 80
3, 58268, Note_off_c, 1, 45, 100
3, 58272, Note_on_c, 1, 48, 80
3, 58364, Note_off_c, 1, 48, 100
3, 58368, Note_on_c, 1, 53, 80
3, 58460, Note_off_c, 1, 53, 64
3, 58464, Note_on_c, 1, 57, 80
3, 58556, Note_off_c, 1, 57, 100
3, 58560, Note_on_c, 1, 60, 80
3, 58652, Note_off_c, 1, 60, 100
3, 58656, Note_on_c, 1, 62, 80
3, 58748, Note_off_c, 1, 62, 100
3, 58752, Note_on_c, 1, 63, 80
3, 59128, Control_c, 1, 64, 0
3, 59136, Control_c, 1, 64, 127
3, 59232, Note_on_c, 1, 41, 80
3, 59324, Note_off_c, 1, 63, 64
3, 59324, Note_off_c, 1, 41, 100
3, 59328, Note_on_c, 1, 45, 80
3, 59420, Note_off_c, 1, 45, 100
3, 59424, Note_on_c, 1, 48, 80
3, 59516, Note_off_c, 1, 48, 100
3, 59520, Note_on_c, 1, 53, 80
3, 59612, Note_off_c, 1, 53, 64
3, 59616, Note_on_c, 1, 57, 80
3, 59708, Note_off_c, 1, 57, 100
3, 59712, Note_on_c, 1, 60, 80
3, 59804, Note_off_c, 1, 60, 100
3, 59808, Note_on_c, 1, 63, 80
3, 59900, Note_off_c, 1, 63, 100
3, 59904, Note_on_c, 1, 66, 80
3, 60280, Control_c, 1, 64, 0
3, 60668, Note_off_c, 1, 66, 100
3, 60672, Note_on_c, 1, 53, 80
3, 60672, Note_on_c, 1, 65, 80
3, 61052, Note_off_c, 1, 53, 64
3, 61052, Note_off_c, 1, 65, 100
3, 61056, Note_on_c, 1, 63, 80
3, 61056, Note_on_c, 1, 51, 80
3, 61436, Note_off_c, 1, 63, 100
3, 61436, Note_off_c, 1, 51, 100
3, 61440, Note_on_c, 1, 46, 80
3, 61628, Note_off_c, 1, 46, 100
3, 61632, Note_on_c, 1, 58, 80
3, 61820, Note_off_c, 1, 58, 100
3, 61824, Note_on_c, 1, 62, 80
3, 62012, Note_off_c, 1, 62, 100
3, 62016, Note_on_c, 1, 58, 80
3, 62204, Note_off_c, 1, 58, 100
3, 62208, Note_on_c, 1, 63, 80
3, 62396, Note_off_c, 1, 63, 100
3, 62400, Note_on_c, 1, 60, 80
3, 62588, Note_off_c, 1, 60, 100
3, 62592, Note_on_c, 1, 62, 80
3, 62780, Note_off_c, 1, 62, 100
3, 62784, Note_on_c, 1, 61, 80
3, 62972, Note_off_c, 1, 61, 100
3, 62976, Note_on_c, 1, 62, 80
3, 63164, Note_off_c, 1, 62, 100
3, 63168, Note_on_c, 1, 58, 80
3, 63356, Note_off_c, 1, 58, 100
3, 63360, Note_on_c, 1, 63, 80
3, 63548, Note_off_c, 1, 63, 100
3, 63552, Note_on_c, 1, 60, 80
3, 63740, Note_off_c, 1, 60, 100
3, 63744, Note_on_c, 1, 58, 80
3, 63932, Note_off_c, 1, 58, 100
3, 63936, Note_on_c, 1, 46, 80
3, 64124, Note_off_c, 1, 46, 100
3, 64128, Note_on_c, 1, 50, 80
3, 64316, Note_off_c, 1, 50, 100
3, 64320, Note_on_c, 1, 46, 80
3, 64508, Note_off_c, 1, 46, 100
3, 64512, Note_on_c, 1, 51, 80
3, 64700, Note_off_c, 1, 51, 100
3, 64704, Note_on_c, 1, 48, 80
3, 64892, Note_off_c, 1, 48, 100
3, 64896, Note_on_c, 1, 50, 80
3, 65084, Note_off_c, 1, 50, 100
3, 65088, Note_on_c, 1, 49, 80
3, 65276, Note_off_c, 1, 49, 100
3, 65280, Note_on_c, 1, 50, 80
3, 65468, Note_off_c, 1, 50, 100
3, 65472, Note_on_c, 1, 46, 80
3, 65660, Note_off_c, 1, 46, 100
3, 65664, Note_on_c, 1, 51, 80
3, 65852, Note_off_c, 1, 51, 100
3, 65856, Note_on_c, 1, 48, 81
3, 66044, Note_off_c, 1, 48, 100
3, 66048, Note_on_c, 1, 46, 82
3, 66236, Note_off_c, 1, 46, 100
3, 66240, Note_on_c, 1, 50, 84
3, 66428, Note_off_c, 1, 50, 100
3, 66432, Note_on_c, 1, 48, 85
3, 66620, Note_off_c, 1, 48, 100
3, 66624, Note_on_c, 1, 41, 87
3, 66812, Note_off_c, 1, 41, 100
3, 66816, Note_on_c, 1, 46, 88
3, 67004, Note_off_c, 1, 46, 100
3, 67008, Note_on_c, 1, 50, 90
3, 67196, Note_off_c, 1, 50, 100
3, 67200, Note_on_c, 1, 48, 91
3, 67388, Note_off_c, 1, 48, 100
3, 67392, Note_on_c, 1, 41, 93
3, 67580, Note_off_c, 1, 41, 100
3, 67584, Note_on_c, 1, 46, 94
3, 67676, Note_off_c, 1, 46, 100
3, 67680, Note_on_c, 1, 50, 95
3, 67772, Note_off_c, 1, 50, 100
3, 67776, Note_on_c, 1, 41, 96
3, 67868, Note_off_c, 1, 41, 100
3, 67872, Note_on_c, 1, 48, 97
3, 67964, Note_off_c, 1, 48, 100
3, 67968, Note_on_c, 1, 46, 97
3, 68060, Note_off_c, 1, 46, 100
3, 68064, Note_on_c, 1, 50, 98
3, 68156, Note_off_c, 1, 50, 100
3, 68160, Note_on_c, 1, 41, 99
3, 68252, Note_off_c, 1, 41, 100
3, 68256, Note_on_c, 1, 48, 99
3, 68348, Note_off_c, 1, 48, 100
3, 68352, Note_on_c, 1, 50, 100
3, 68352, Note_on_c, 1, 46, 100
3, 68732, Note_off_c, 1, 50, 100
3, 68732, Note_off_c, 1, 46, 100
3, 68736, Note_on_c, 1, 46, 80
3, 68736, Note_on_c, 1, 34, 80
3, 69116, Note_off_c, 1, 46, 100
3, 69116, Note_off_c, 1, 34, 100
3, 69120, Control_c, 1, 64, 127
3, 69120, Note_on_c, 1, 62, 110
3, 69212, Note_off_c, 1, 62, 100
3, 69216, Note_on_c, 1, 63, 110
3, 69308, Note_off_c, 1, 63, 100
3, 69312, Note_on_c, 1, 62, 110
3, 69404, Note_off_c, 1, 62, 100
3, 69408, Note_on_c, 1, 60, 110
3, 69496, Control_c, 1, 64, 0
3, 69500, Note_off_c, 1, 60, 100
3, 69504, Control_c, 1, 64, 127
3, 69504, Note_on_c, 1, 58, 110
3, 69596, Note_off_c, 1, 58, 100
3, 69600, Note_on_c, 1, 60, 110
3, 69692, Note_off_c, 1, 60, 100
3, 69696, Note_on_c, 1, 58, 110
3, 69788, Note_off_c, 1, 58, 100
3, 69792, Note_on_c, 1, 57, 110
3, 69880, Control_c, 1, 64, 0
3, 69884, Note_off_c, 1, 57, 100
3, 69888, Control_c, 1, 64, 127
3, 69888, Note_on_c, 1, 55, 110
3, 69980, Note_off_c, 1, 55, 100
3, 69984, Note_on_c, 1, 57, 110
3, 70076, Note_off_c, 1, 57, 100
3, 70080, Note_on_c, 1, 58, 110
3, 70172, Note_off_c, 1, 58, 100
3, 70176, Note_on_c, 1, 57, 110
3, 70264, Control_c, 1, 64, 0
3, 70268, Note_off_c, 1, 57, 100
3, 70272, Control_c, 1, 64, 127
3, 70272, Note_on_c, 1, 55, 110
3, 70364, Note_off_c, 1, 55, 100
3, 70368, Note_on_c, 1, 58, 110
3, 70460, Note_off_c, 1, 58, 100
3, 70464, Note_on_c, 1, 57, 110
3, 70556, Note_off_c, 1, 57, 100
3, 70560, Note_on_c, 1, 55, 110
3, 70648, Control_c, 1, 64, 0
3, 70652, Note_off_c, 1, 55, 100
3, 70656, Control_c, 1, 64, 127
3, 70656, Note_on_c, 1, 54, 110
3, 70748, Note_off_c, 1, 54, 100
3, 70752, Note_on_c, 1, 55, 110
3, 70844, Note_off_c, 1, 55, 100
3, 70848, Note_on_c, 1, 54, 110
3, 70940, Note_off_c, 1, 54, 100
3, 70944, Note_on_c, 1, 51, 110
3, 71032, Control_c, 1, 64, 0
3, 71036, Note_off_c, 1, 51, 100
3, 71040, Control_c, 1, 64, 127
3, 71040, Note_on_c, 1, 50, 110
3, 71132, Note_off_c, 1, 50, 100
3, 71136, Note_on_c, 1, 51, 110
3, 71228, Note_off_c, 1, 51, 100
3, 71232, Note_on_c, 1, 50, 110
3, 71324, Note_off_c, 1, 50, 100
3, 71328, Note_on_c, 1, 48, 110
3, 71416, Control_c, 1, 64, 0
3, 71420, Note_off_c, 1, 48, 100
3, 71424, Control_c, 1, 64, 127
3, 71424, Note_on_c, 1, 46, 110
3, 71516, Note_off_c, 1, 46, 100
3, 71520, Note_on_c, 1, 48, 110
3, 71612, Note_off_c, 1, 48, 100
3, 71616, Note_on_c, 1, 46, 110
3, 71708, Note_off_c, 1, 46, 100
3, 71712, Note_on_c, 1, 45, 110
3, 71800, Control_c, 1, 64, 0
3, 71804, Note_off_c, 1, 45, 100
3, 71808, Control_c, 1, 64, 127
3, 71808, Note_on_c, 1, 43, 110
3, 71900, Note_off_c, 1, 43, 100
3, 71904, Note_on_c, 1, 42, 110
3, 71996, Note_off_c, 1, 42, 100
3, 72000, Note_on_c, 1, 43, 110
3, 72092, Note_off_c, 1, 43, 100
3, 72096, Note_on_c, 1, 45, 110
3, 72184, Control_c, 1, 64, 0
3, 72188, Note_off_c, 1, 45, 100
3, 72192, Control_c, 1, 64, 127
3, 72192, Note_on_c, 1, 46, 110
3, 72284, Note_off_c, 1, 46, 100
3, 72288, Note_on_c, 1, 45, 110
3, 72380, Note_off_c, 1, 45, 100
3, 72384, Note_on_c, 1, 46, 110
3, 72476, Note_off_c, 1, 46, 100
3, 72480, Note_on_c, 1, 47, 110
3, 72568, Control_c, 1, 64, 0
3, 72572, Note_off_c, 1, 47, 100
3, 72576, Control_c, 1, 64, 127
3, 72576, Note_on_c, 1, 48, 110
3, 72668, Note_off_c, 1, 48, 100
3, 72672, Note_on_c, 1, 47, 110
3, 72764, Note_off_c, 1, 47, 100
3, 72768, Note_on_c, 1, 48, 110
3, 72860, Note_off_c, 1, 48, 100
3, 72864, Note_on_c, 1, 49, 110
3, 72952, Control_c, 1, 64, 0
3, 72956, Note_off_c, 1, 49, 100
3, 72960, Control_c, 1, 64, 127
3, 72960, Note_on_c, 1, 50, 110
3, 73052, Note_off_c, 1, 50, 100
3, 73056, Note_on_c, 1, 38, 110
3, 73148, Note_off_c, 1, 38, 100
3, 73152, Note_on_c, 1, 42, 110
3, 73244, Note_off_c, 1, 42, 100
3, 73248, Note_on_c, 1, 45, 110
3, 73336, Control_c, 1, 64, 0
3, 73340, Note_off_c, 1, 45, 100
3, 73344, Control_c, 1, 64, 127
3, 73344, Note_on_c, 1, 50, 110
3, 73436, Note_off_c, 1, 50, 100
3, 73440, Note_on_c, 1, 54, 110
3, 73532, Note_off_c, 1, 54, 100
3, 73536, Note_on_c, 1, 57, 110
3, 73628, Note_off_c, 1, 57, 100
3, 73632, Note_on_c, 1, 61, 110
3, 73720, Control_c, 1, 64, 0
3, 73724, Note_off_c, 1, 61, 100
3, 73728, Control_c, 1, 64, 127
3, 73728, Note_on_c, 1, 62, 110
3, 73820, Note_off_c, 1, 62, 100
3, 73824, Note_on_c, 1, 63, 110
3, 73916, Note_off_c, 1, 63, 100
3, 73920, Note_on_c, 1, 62, 110
3, 74012, Note_off_c, 1, 62, 100
3, 74016, Note_on_c, 1, 60, 110
3, 74104, Control_c, 1, 64, 0
3, 74108, Note_off_c, 1, 60, 100
3, 74112, Control_c, 1, 64, 127
3, 74112, Note_on_c, 1, 58, 110
3, 74204, Note_off_c, 1, 58, 100
3, 74208, Note_on_c, 1, 60, 110
3, 74300, Note_off_c, 1, 60, 100
3, 74304, Note_on_c, 1, 58, 110
3, 74396, Note_off_c, 1, 58, 100
3, 74400, Note_on_c, 1, 57, 110
3, 74488, Control_c, 1, 64, 0
3, 74492, Note_off_c, 1, 57, 100
3, 74496, Control_c, 1, 64, 127
3, 74496, Note_on_c, 1, 55, 110
3, 74588, Note_off_c, 1, 55, 100
3, 74592, Note_on_c, 1, 57, 110
3, 74684, Note_off_c, 1, 57, 100
3, 74688, Note_on_c, 1, 55, 110
3, 74780, Note_off_c, 1, 55, 100
3, 74784, Note_on_c, 1, 53, 110
3, 74872, Control_c, 1, 64, 0
3, 74880, Control_c, 1, 64, 127
3, 74880, Note_on_c, 1, 52, 110
3, 74972, Note_off_c, 1, 52, 100
3, 74976, Note_on_c, 1, 53, 110
3, 75068, Note_off_c, 1, 53, 100
3, 75068, Note_off_c, 1, 53, 64
3, 75072, Note_on_c, 1, 52, 110
3, 75164, Note_off_c, 1, 52, 100
3, 75168, Note_on_c, 1, 50, 110
3, 75256, Control_c, 1, 64, 0
3, 75260, Note_off_c, 1, 50, 100
3, 75264, Control_c, 1, 64, 127
3, 75264, Note_on_c, 1, 49, 110
3, 75356, Note_off_c, 1, 49, 100
3, 75360, Note_on_c, 1, 50, 110
3, 75452, Note_off_c, 1, 50, 100
3, 75456, Note_on_c, 1, 49, 110
3, 75548, Note_off_c, 1, 49, 100
3, 75552, Note_on_c, 1, 46, 110
3, 75640, Control_c, 1, 64, 0
3, 75644, Note_off_c, 1, 46, 100
3, 75648, Control_c, 1, 64, 127
3, 75648, Note_on_c, 1, 45, 110
3, 75740, Note_off_c, 1, 45, 100
3, 75744, Note_on_c, 1, 46, 110
3, 75836, Note_off_c, 1, 46, 100
3, 75840, Note_on_c, 1, 45, 110
3, 75932, Note_off_c, 1, 45, 100
3, 75936, Note_on_c, 1, 43, 110
3, 76024, Control_c, 1, 64, 0
3, 76028, Note_off_c, 1, 43, 100
3, 76032, Control_c, 1, 64, 127
3, 76032, Note_on_c, 1, 41, 110
3, 76124, Note_off_c, 1, 41, 100
3, 76128, Note_on_c, 1, 43, 110
3, 76220, Note_off_c, 1, 43, 100
3, 76224, Note_on_c, 1, 41, 110
3, 76316, Note_off_c, 1, 41, 100
3, 76320, Note_on_c, 1, 40, 110
3, 76408, Control_c, 1, 64, 0
3, 76412, Note_off_c, 1, 40, 100
3, 76416, Control_c, 1, 64, 127
3, 76416, Note_on_c, 1, 38, 110
3, 76508, Note_off_c, 1, 38, 100
3, 76512, Note_on_c, 1, 40, 110
3, 76604, Note_off_c, 1, 40, 100
3, 76608, Note_on_c, 1, 41, 110
3, 76700, Note_off_c, 1, 41, 100
3, 76704, Note_on_c, 1, 38, 110
3, 76792, Control_c, 1, 64, 0
3, 76796, Note_off_c, 1, 38, 100
3, 76800, Control_c, 1, 64, 127
3, 76800, Note_on_c, 1, 43, 110
3, 76892, Note_off_c, 1, 43, 100
3, 76896, Note_on_c, 1, 45, 110
3, 76988, Note_off_c, 1, 45, 100
3, 76992, Note_on_c, 1, 46, 110
3, 77084, Note_off_c, 1, 46, 100
3, 77088, Note_on_c, 1, 43, 110
3, 77176, Control_c, 1, 64, 0
3, 77180, Note_off_c, 1, 43, 100
3, 77184, Control_c, 1, 64, 127
3, 77184, Note_on_c, 1, 45, 110
3, 77276, Note_off_c, 1, 45, 100
3, 77280, Note_on_c, 1, 44, 110
3, 77372, Note_off_c, 1, 44, 100
3, 77376, Note_on_c, 1, 45, 110
3, 77468, Note_off_c, 1, 45, 100
3, 77472, Note_on_c, 1, 33, 110
3, 77560, Control_c, 1, 64, 0
3, 77564, Note_off_c, 1, 33, 100
3, 77568, Control_c, 1, 64, 127
3, 77568, Note_on_c, 1, 38, 110
3, 77660, Note_off_c, 1, 38, 100
3, 77664, Note_on_c, 1, 41, 110
3, 77756, Note_off_c, 1, 41, 100
3, 77760, Note_on_c, 1, 45, 110
3, 77852, Note_off_c, 1, 45, 100
3, 77856, Note_on_c, 1, 50, 110
3, 77944, Control_c, 1, 64, 0
3, 77948, Note_off_c, 1, 50, 100
3, 77952, Control_c, 1, 64, 127
3, 77952, Note_on_c, 1, 38, 110
3, 78328, Control_c, 1, 64, 0
3, 78332, Note_off_c, 1, 38, 100
3, 78336, Control_c, 1, 64, 127
3, 78336, Note_on_c, 1, 62, 110
3, 78428, Note_off_c, 1, 62, 100
3, 78432, Note_on_c, 1, 63, 110
3, 78524, Note_off_c, 1, 63, 100
3, 78528, Note_on_c, 1, 62, 110
3, 78620, Note_off_c, 1, 62, 100
3, 78624, Note_on_c, 1, 60, 110
3, 78712, Control_c, 1, 64, 0
3, 78716, Note_off_c, 1, 60, 100
3, 78720, Control_c, 1, 64, 127
3, 78720, Note_on_c, 1, 58, 110
3, 78812, Note_off_c, 1, 58, 100
3, 78816, Note_on_c, 1, 60, 110
3, 78908, Note_off_c, 1, 60, 100
3, 78912, Note_on_c, 1, 58, 110
3, 79004, Note_off_c, 1, 58, 100
3, 79008, Note_on_c, 1, 57, 110
3, 79096, Control_c, 1, 64, 0
3, 79100, Note_off_c, 1, 57, 100
3, 79104, Control_c, 1, 64, 127
3, 79104, Note_on_c, 1, 55, 110
3, 79196, Note_off_c, 1, 55, 100
3, 79200, Note_on_c, 1, 57, 110
3, 79292, Note_off_c, 1, 57, 100
3, 79296, Note_on_c, 1, 58, 110
3, 79388, Note_off_c, 1, 58, 100
3, 79392, Note_on_c, 1, 57, 110
3, 79480, Control_c, 1, 64, 0
3, 79484, Note_off_c, 1, 57, 100
3, 79488, Control_c, 1, 64, 127
3, 79488, Note_on_c, 1, 55, 110
3, 79580, Note_off_c, 1, 55, 100
3, 79584, Note_on_c, 1, 58, 110
3, 79676, Note_off_c, 1, 58, 100
3, 79680, Note_on_c, 1, 57, 110
3, 79772, Note_off_c, 1, 57, 100
3, 79776, Note_on_c, 1, 55, 110
3, 79864, Control_c, 1, 64, 0
3, 79868, Note_off_c, 1, 55, 100
3, 79872, Control_c, 1, 64, 127
3, 79872, Note_on_c, 1, 54, 110
3, 79964, Note_off_c, 1, 54, 100
3, 79968, Note_on_c, 1, 55, 110
3, 80060, Note_off_c, 1, 55, 100
3, 80064, Note_on_c, 1, 54, 110
3, 80156, Note_off_c, 1, 54, 100
3, 80160, Note_on_c, 1, 51, 110
3, 80248, Control_c, 1, 64, 0
3, 80252, Note_off_c, 1, 51, 100
3, 80256, Control_c, 1, 64, 127
3, 80256, Note_on_c, 1, 50, 110
3, 80348, Note_off_c, 1, 50, 100
3, 80352, Note_on_c, 1, 51, 110
3, 80444, Note_off_c, 1, 51, 100
3, 80448, Note_on_c, 1, 50, 110
3, 80540, Note_off_c, 1, 50, 100
3, 80544, Note_on_c, 1, 48, 110
3, 80632, Control_c, 1, 64, 0
3, 80636, Note_off_c, 1, 48, 100
3, 80640, Control_c, 1, 64, 127
3, 80640, Note_on_c, 1, 46, 110
3, 80732, Note_off_c, 1, 46, 100
3, 80736, Note_on_c, 1, 48, 110
3, 80828, Note_off_c, 1, 48, 100
3, 80832, Note_on_c, 1, 46, 110
3, 80924, Note_off_c, 1, 46, 100
3, 80928, Note_on_c, 1, 45, 110
3, 81016, Control_c, 1, 64, 0
3, 81020, Note_off_c, 1, 45, 100
3, 81024, Control_c, 1, 64, 127
3, 81024, Note_on_c, 1, 43, 110
3, 81116, Note_off_c, 1, 43, 100
3, 81120, Note_on_c, 1, 42, 110
3, 81212, Note_off_c, 1, 42, 100
3, 81216, Note_on_c, 1, 43, 110
3, 81308, Note_off_c, 1, 43, 100
3, 81312, Note_on_c, 1, 45, 110
3, 81400, Control_c, 1, 64, 0
3, 81404, Note_off_c, 1, 45, 100
3, 81408, Control_c, 1, 64, 127
3, 81408, Note_on_c, 1, 46, 110
3, 81500, Note_off_c, 1, 46, 100
3, 81504, Note_on_c, 1, 45, 110
3, 81596, Note_off_c, 1, 45, 100
3, 81600, Note_on_c, 1, 46, 110
3, 81692, Note_off_c, 1, 46, 100
3, 81696, Note_on_c, 1, 47, 110
3, 81784, Control_c, 1, 64, 0
3, 81788, Note_off_c, 1, 47, 100
3, 81792, Control_c, 1, 64, 127
3, 81792, Note_on_c, 1, 48, 110
3, 81884, Note_off_c, 1, 48, 100
3, 81888, Note_on_c, 1, 47, 110
3, 81980, Note_off_c, 1, 47, 100
3, 81984, Note_on_c, 1, 48, 110
3, 82076, Note_off_c, 1, 48, 100
3, 82080, Note_on_c, 1, 49, 110
3, 82168, Control_c, 1, 64, 0
3, 82172, Note_off_c, 1, 49, 100
3, 82176, Control_c, 1, 64, 127
3, 82176, Note_on_c, 1, 50, 110
3, 82268, Note_off_c, 1, 50, 100
3, 82272, Note_on_c, 1, 38, 110
3, 82364, Note_off_c, 1, 38, 100
3, 82368, Note_on_c, 1, 42, 110
3, 82460, Note_off_c, 1, 42, 100
3, 82464, Note_on_c, 1, 45, 110
3, 82552, Control_c, 1, 64, 0
3, 82556, Note_off_c, 1, 45, 100
3, 82560, Control_c, 1, 64, 127
3, 82560, Note_on_c, 1, 50, 110
3, 82652, Note_off_c, 1, 50, 100
3, 82656, Note_on_c, 1, 54, 110
3, 82748, Note_off_c, 1, 54, 100
3, 82752, Note_on_c, 1, 57, 110
3, 82844, Note_off_c, 1, 57, 100
3, 82848, Note_on_c, 1, 61, 110
3, 82936, Control_c, 1, 64, 0
3, 82940, Note_off_c, 1, 61, 100
3, 82944, Control_c, 1, 64, 127
3, 82944, Note_on_c, 1, 62, 110
3, 83036, Note_off_c, 1, 62, 100
3, 83040, Note_on_c, 1, 63, 110
3, 83132, Note_off_c, 1, 63, 100
3, 83136, Note_on_c, 1, 62, 110
3, 83228, Note_off_c, 1, 62, 100
3, 83232, Note_on_c, 1, 60, 110
3, 83320, Control_c, 1, 64, 0
3, 83324, Note_off_c, 1, 60, 100
3, 83328, Control_c, 1, 64, 127
3, 83328, Note_on_c, 1, 58, 110
3, 83420, Note_off_c, 1, 58, 100
3, 83424, Note_on_c, 1, 60, 110
3, 83516, Note_off_c, 1, 60, 100
3, 83520, Note_on_c, 1, 58, 110
3, 83612, Note_off_c, 1, 58, 100
3, 83616, Note_on_c, 1, 57, 110
3, 83704, Control_c, 1, 64, 0
3, 83708, Note_off_c, 1, 57, 100
3, 83712, Control_c, 1, 64, 127
3, 83712, Note_on_c, 1, 55, 110
3, 83804, Note_off_c, 1, 55, 100
3, 83808, Note_on_c, 1, 57, 110
3, 83900, Note_off_c, 1, 57, 100
3, 83904, Note_on_c, 1, 55, 110
3, 83996, Note_off_c, 1, 55, 100
3, 84000, Note_on_c, 1, 53, 110
3, 84088, Control_c, 1, 64, 0
3, 84096, Control_c, 1, 64, 127
3, 84096, Note_on_c, 1, 52, 110
3, 84188, Note_off_c, 1, 52, 100
3, 84192, Note_on_c, 1, 53, 110
3, 84284, Note_off_c, 1, 53, 100
3, 84284, Note_off_c, 1, 53, 64
3, 84288, Note_on_c, 1, 52, 110
3, 84380, Note_off_c, 1, 52, 100
3, 84384, Note_on_c, 1, 50, 110
3, 84472, Control_c, 1, 64, 0
3, 84476, Note_off_c, 1, 50, 100
3, 84480, Control_c, 1, 64, 127
3, 84480, Note_on_c, 1, 49, 110
3, 84572, Note_off_c, 1, 49, 100
3, 84576, Note_on_c, 1, 50, 110
3, 84668, Note_off_c, 1, 50, 100
3, 84672, Note_on_c, 1, 49, 110
3, 84764, Note_off_c, 1, 49, 100
3, 84768, Note_on_c, 1, 46, 110
3, 84856, Control_c, 1, 64, 0
3, 84860, Note_off_c, 1, 46, 100
3, 84864, Control_c, 1, 64, 127
3, 84864, Note_on_c, 1, 45, 110
3, 84956, Note_off_c, 1, 45, 100
3, 84960, Note_on_c, 1, 46, 110
3, 85052, Note_off_c, 1, 46, 100
3, 85056, Note_on_c, 1, 45, 110
3, 85148, Note_off_c, 1, 45, 100
3, 85152, Note_on_c, 1, 43, 110
3, 85240, Control_c, 1, 64, 0
3, 85244, Note_off_c, 1, 43, 100
3, 85248, Control_c, 1, 64, 127
3, 85248, Note_on_c, 1, 41, 110
3, 85340, Note_off_c, 1, 41, 100
3, 85344, Note_on_c, 1, 43, 110
3, 85436, Note_off_c, 1, 43, 100
3, 85440, Note_on_c, 1, 41, 110
3, 85532, Note_off_c, 1, 41, 100
3, 85536, Note_on_c, 1, 40, 110
3, 85624, Control_c, 1, 64, 0
3, 85628, Note_off_c, 1, 40, 100
3, 85632, Control_c, 1, 64, 127
3, 85632, Note_on_c, 1, 38, 110
3, 85724, Note_off_c, 1, 38, 100
3, 85728, Note_on_c, 1, 40, 110
3, 85820, Note_off_c, 1, 40, 100
3, 85824, Note_on_c, 1, 41, 110
3, 85916, Note_off_c, 1, 41, 100
3, 85920, Note_on_c, 1, 38, 110
3, 86008, Control_c, 1, 64, 0
3, 86012, Note_off_c, 1, 38, 100
3, 86016, Control_c, 1, 64, 127
3, 86016, Note_on_c, 1, 43, 110
3, 86108, Note_off_c, 1, 43, 100
3, 86112, Note_on_c, 1, 45, 110
3, 86204, Note_off_c, 1, 45, 100
3, 86208, Note_on_c, 1, 46, 110
3, 86300, Note_off_c, 1, 46, 100
3, 86304, Note_on_c, 1, 43, 110
3, 86392, Control_c, 1, 64, 0
3, 86396, Note_off_c, 1, 43, 100
3, 86400, Control_c, 1, 64, 127
3, 86400, Note_on_c, 1, 45, 110
3, 86492, Note_off_c, 1, 45, 100
3, 86496, Note_on_c, 1, 44, 110
3, 86588, Note_off_c, 1, 44, 100
3, 86592, Note_on_c, 1, 45, 110
3, 86684, Note_off_c, 1, 45, 100
3, 86688, Note_on_c, 1, 33, 110
3, 86776, Control_c, 1, 64, 0
3, 86780, Note_off_c, 1, 33, 100
3, 86784, Control_c, 1, 64, 127
3, 86784, Note_on_c, 1, 38, 110
3, 86876, Note_off_c, 1, 38, 100
3, 86880, Note_on_c, 1, 41, 110
3, 86972, Note_off_c, 1, 41, 100
3, 86976, Note_on_c, 1, 45, 110
3, 87068, Note_off_c, 1, 45, 100
3, 87072, Note_on_c, 1, 50, 110
3, 87160, Control_c, 1, 64, 0
3, 87164, Note_off_c, 1, 50, 100
3, 87168, Control_c, 1, 64, 127
3, 87168, Note_on_c, 1, 38, 110
3, 87544, Control_c, 1, 64, 0
3, 87548, Note_off_c, 1, 38, 100
3, 87552, Control_c, 1, 64, 127
3, 87928, Control_c, 1, 64, 0
3, 87936, Control_c, 1, 64, 127
3, 87936, Note_on_c, 1, 68, 110
3, 88028, Note_off_c, 1, 68, 100
3, 88032, Note_on_c, 1, 70, 110
3, 88124, Note_off_c, 1, 70, 100
3, 88128, Note_on_c, 1, 68, 110
3, 88220, Note_off_c, 1, 68, 100
3, 88224, Note_on_c, 1, 67, 110
3, 88312, Control_c, 1, 64, 0
3, 88316, Note_off_c, 1, 67, 100
3, 88320, Control_c, 1, 64, 127
3, 88320, Note_on_c, 1, 65, 110
3, 88412, Note_off_c, 1, 65, 100
3, 88416, Note_on_c, 1, 67, 110
3, 88508, Note_off_c, 1, 67, 100
3, 88512, Note_on_c, 1, 65, 110
3, 88604, Note_off_c, 1, 65, 100
3, 88608, Note_on_c, 1, 63, 110
3, 88696, Control_c, 1, 64, 0
3, 88700, Note_off_c, 1, 63, 100
3, 88704, Note_on_c, 1, 62, 110
3, 88704, Note_on_c, 1, 55, 110
3, 88704, Control_c, 1, 64, 127
3, 89080, Control_c, 1, 64, 0
3, 89084, Note_off_c, 1, 62, 100
3, 89084, Note_off_c, 1, 55, 100
3, 89088, Note_on_c, 1, 63, 110
3, 89088, Note_on_c, 1, 60, 110
3, 89088, Control_c, 1, 64, 127
3, 89276, Note_off_c, 1, 63, 100
3, 89276, Note_off_c, 1, 60, 100
3, 89464, Control_c, 1, 64, 0
3, 89472, Control_c, 1, 64, 127
3, 89848, Control_c, 1, 64, 0
3, 89856, Control_c, 1, 64, 127
3, 90232, Control_c, 1, 64, 0
3, 90240, Control_c, 1, 64, 127
3, 90240, Note_on_c, 1, 63, 110
3, 90332, Note_off_c, 1, 63, 100
3, 90336, Note_on_c, 1, 65, 110
3, 90428, Note_off_c, 1, 65, 100
3, 90432, Note_on_c, 1, 63, 110
3, 90524, Note_off_c, 1, 63, 100
3, 90528, Note_on_c, 1, 62, 110
3, 90616, Control_c, 1, 64, 0
3, 90620, Note_off_c, 1, 62, 100
3, 90624, Control_c, 1, 64, 127
3, 90624, Note_on_c, 1, 60, 110
3, 90716, Note_off_c, 1, 60, 100
3, 90720, Note_on_c, 1, 62, 110
3, 90812, Note_off_c, 1, 62, 100
3, 90816, Note_on_c, 1, 60, 110
3, 90908, Note_off_c, 1, 60, 100
3, 90912, Note_on_c, 1, 58, 110
3, 91000, Control_c, 1, 64, 0
3, 91004, Note_off_c, 1, 58, 100
3, 91008, Control_c, 1, 64, 127
3, 91008, Note_on_c, 1, 57, 110
3, 91008, Note_on_c, 1, 50, 110
3, 91384, Control_c, 1, 64, 0
3, 91388, Note_off_c, 1, 57, 100
3, 91388, Note_off_c, 1, 50, 100
3, 91392, Control_c, 1, 64, 127
3, 91392, Note_on_c, 1, 58, 110
3, 91392, Note_on_c, 1, 55, 110
3, 91580, Note_off_c, 1, 58, 100
3, 91580, Note_off_c, 1, 55, 100
3, 91768, Control_c, 1, 64, 0
3, 91776, Control_c, 1, 64, 127
3, 92152, Control_c, 1, 64, 0
3, 92160, Control_c, 1, 64, 127
3, 92160, Note_on_c, 1, 62, 110
3, 92252, Note_off_c, 1, 62, 100
3, 92256, Note_on_c, 1, 63, 110
3, 92348, Note_off_c, 1, 63, 100
3, 92352, Note_on_c, 1, 62, 110
3, 92444, Note_off_c, 1, 62, 100
3, 92448, Note_on_c, 1, 60, 110
3, 92536, Control_c, 1, 64, 0
3, 92540, Note_off_c, 1, 60, 100
3, 92544, Control_c, 1, 64, 127
3, 92544, Note_on_c, 1, 58, 110
3, 92636, Note_off_c, 1, 58, 100
3, 92640, Note_on_c, 1, 60, 110
3, 92732, Note_off_c, 1, 60, 100
3, 92736, Note_on_c, 1, 58, 110
3, 92828, Note_off_c, 1, 58, 100
3, 92832, Note_on_c, 1, 57, 110
3, 92920, Control_c, 1, 64, 0
3, 92924, Note_off_c, 1, 57, 100
3, 92928, Control_c, 1, 64, 127
3, 92928, Note_on_c, 1, 55, 110
3, 93020, Note_off_c, 1, 55, 100
3, 93024, Note_on_c, 1, 57, 110
3, 93116, Note_off_c, 1, 57, 100
3, 93120, Note_on_c, 1, 55, 110
3, 93212, Note_off_c, 1, 55, 100
3, 93216, Note_on_c, 1, 53, 110
3, 93304, Control_c, 1, 64, 0
3, 93312, Control_c, 1, 64, 127
3, 93312, Note_on_c, 1, 51, 110
3, 93404, Note_off_c, 1, 51, 100
3, 93408, Note_on_c, 1, 53, 110
3, 93500, Note_off_c, 1, 53, 100
3, 93500, Note_off_c, 1, 53, 64
3, 93504, Note_on_c, 1, 51, 110
3, 93596, Note_off_c, 1, 51, 100
3, 93600, Note_on_c, 1, 50, 110
3, 93688, Control_c, 1, 64, 0
3, 93692, Note_off_c, 1, 50, 100
3, 93696, Control_c, 1, 64, 127
3, 93696, Note_on_c, 1, 48, 110
3, 93788, Note_off_c, 1, 48, 100
3, 93792, Note_on_c, 1, 50, 110
3, 93884, Note_off_c, 1, 50, 100
3, 93888, Note_on_c, 1, 48, 110
3, 93980, Note_off_c, 1, 48, 100
3, 93984, Note_on_c, 1, 46, 110
3, 94072, Control_c, 1, 64, 0
3, 94076, Note_off_c, 1, 46, 100
3, 94080, Control_c, 1, 64, 127
3, 94080, Note_on_c, 1, 44, 110
3, 94172, Note_off_c, 1, 44, 100
3, 94176, Note_on_c, 1, 46, 110
3, 94268, Note_off_c, 1, 46, 100
3, 94272, Note_on_c, 1, 44, 110
3, 94364, Note_off_c, 1, 44, 100
3, 94368, Note_on_c, 1, 43, 110
3, 94456, Control_c, 1, 64, 0
3, 94460, Note_off_c, 1, 43, 100
3, 94464, Control_c, 1, 64, 127
3, 94464, Note_on_c, 1, 42, 110
3, 94556, Note_off_c, 1, 42, 100
3, 94560, Note_on_c, 1, 43, 110
3, 94652, Note_off_c, 1, 43, 100
3, 94656, Note_on_c, 1, 42, 110
3, 94748, Note_off_c, 1, 42, 100
3, 94752, Note_on_c, 1, 40, 110
3, 94840, Control_c, 1, 64, 0
3, 94844, Note_off_c, 1, 40, 100
3, 94848, Control_c, 1, 64, 127
3, 94848, Note_on_c, 1, 38, 110
3, 94940, Note_off_c, 1, 38, 100
3, 94944, Note_on_c, 1, 40, 110
3, 95036, Note_off_c, 1, 40, 100
3, 95040, Note_on_c, 1, 42, 110
3, 95132, Note_off_c, 1, 42, 100
3, 95136, Note_on_c, 1, 38, 110
3, 95224, Control_c, 1, 64, 0
3, 95228, Note_off_c, 1, 38, 100
3, 95232, Control_c, 1, 64, 127
3, 95232, Note_on_c, 1, 43, 110
3, 95324, Note_off_c, 1, 43, 100
3, 95328, Note_on_c, 1, 45, 110
3, 95420, Note_off_c, 1, 45, 100
3, 95424, Note_on_c, 1, 46, 110
3, 95516, Note_off_c, 1, 46, 100
3, 95520, Note_on_c, 1, 43, 110
3, 95608, Control_c, 1, 64, 0
3, 95612, Note_off_c, 1, 43, 100
3, 95616, Control_c, 1, 64, 127
3, 95616, Note_on_c, 1, 50, 110
3, 95708, Note_off_c, 1, 50, 100
3, 95712, Note_on_c, 1, 48, 110
3, 95804, Note_off_c, 1, 48, 100
3, 95808, Note_on_c, 1, 46, 110
3, 95900, Note_off_c, 1, 46, 100
3, 95904, Note_on_c, 1, 45, 110
3, 95992, Control_c, 1, 64, 0
3, 95996, Note_off_c, 1, 45, 100
3, 96000, Control_c, 1, 64, 127
3, 96000, Note_on_c, 1, 43, 110
3, 96092, Note_off_c, 1, 43, 100
3, 96096, Note_on_c, 1, 46, 110
3, 96188, Note_off_c, 1, 46, 100
3, 96192, Note_on_c, 1, 50, 110
3, 96284, Note_off_c, 1, 50, 100
3, 96288, Note_on_c, 1, 55, 110
3, 96376, Control_c, 1, 64, 0
3, 96380, Note_off_c, 1, 55, 100
3, 96384, Control_c, 1, 64, 127
3, 96384, Note_on_c, 1, 43, 110
3, 96760, Control_c, 1, 64, 0
3, 96764, Note_off_c, 1, 43, 100
3, 96768, Control_c, 1, 64, 127
3, 97144, Control_c, 1, 64, 0
3, 97152, Control_c, 1, 64, 127
3, 97152, Note_on_c, 1, 68, 110
3, 97244, Note_off_c, 1, 68, 100
3, 97248, Note_on_c, 1, 70, 110
3, 97340, Note_off_c, 1, 70, 100
3, 97344, Note_on_c, 1, 68, 110
3, 97436, Note_off_c, 1, 68, 100
3, 97440, Note_on_c, 1, 67, 110
3, 97528, Control_c, 1, 64, 0
3, 97532, Note_off_c, 1, 67, 100
3, 97536, Control_c, 1, 64, 127
3, 97536, Note_on_c, 1, 65, 110
3, 97628, Note_off_c, 1, 65, 100
3, 97632, Note_on_c, 1, 67, 110
3, 97724, Note_off_c, 1, 67, 100
3, 97728, Note_on_c, 1, 65, 110
3, 97820, Note_off_c, 1, 65, 100
3, 97824, Note_on_c, 1, 63, 110
3, 97912, Control_c, 1, 64, 0
3, 97916, Note_off_c, 1, 63, 100
3, 97920, Note_on_c, 1, 62, 110
3, 97920, Note_on_c, 1, 55, 110
3, 97920, Control_c, 1, 64, 127
3, 98296, Control_c, 1, 64, 0
3, 98300, Note_off_c, 1, 62, 100
3, 98300, Note_off_c, 1, 55, 100
3, 98304, Note_on_c, 1, 63, 110
3, 98304, Note_on_c, 1, 60, 110
3, 98492, Note_off_c, 1, 63, 100
3, 98492, Note_off_c, 1, 60, 100
3, 99456, Control_c, 1, 64, 127
3, 99456, Note_on_c, 1, 63, 110
3, 99548, Note_off_c, 1, 63, 100
3, 99552, Note_on_c, 1, 65, 110
3, 99644, Note_off_c, 1, 65, 100
3, 99648, Note_on_c, 1, 63, 110
3, 99740, Note_off_c, 1, 63, 100
3, 99744, Note_on_c, 1, 62, 110
3, 99832, Control_c, 1, 64, 0
3, 99836, Note_off_c, 1, 62, 100
3, 99840, Control_c, 1, 64, 127
3, 99840, Note_on_c, 1, 60, 110
3, 99932, Note_off_c, 1, 60, 100
3, 99936, Note_on_c, 1, 62, 110
3, 100028, Note_off_c, 1, 62, 100
3, 100032, Note_on_c, 1, 60, 110
3, 100124, Note_off_c, 1, 60, 100
3, 100128, Note_on_c, 1, 58, 110
3, 100216, Control_c, 1, 64, 0
3, 100220, Note_off_c, 1, 58, 100
3, 100224, Control_c, 1, 64, 127
3, 100224, Note_on_c, 1, 57, 110
3, 100224, Note_on_c, 1, 50, 110
3, 100600, Control_c, 1, 64, 0
3, 100604, Note_off_c, 1, 57, 100
3, 100604, Note_off_c, 1, 50, 100
3, 100608, Control_c, 1, 64, 127
3, 100608, Note_on_c, 1, 58, 110
3, 100608, Note_on_c, 1, 55, 110
3, 100796, Note_off_c, 1, 58, 100
3, 100796, Note_off_c, 1, 55, 100
3, 100984, Control_c, 1, 64, 0
3, 100992, Control_c, 1, 64, 127
3, 101368, Control_c, 1, 64, 0
3, 101376, Control_c, 1, 64, 127
3, 101376, Note_on_c, 1, 62, 110
3, 101468, Note_off_c, 1, 62, 100
3, 101472, Note_on_c, 1, 63, 110
3, 101564, Note_off_c, 1, 63, 100
3, 101568, Note_on_c, 1, 62, 110
3, 101660, Note_off_c, 1, 62, 100
3, 101664, Note_on_c, 1, 60, 110
3, 101752, Control_c, 1, 64, 0
3, 101756, Note_off_c, 1, 60, 100
3, 101760, Control_c, 1, 64, 127
3, 101760, Note_on_c, 1, 58, 110
3, 101852, Note_off_c, 1, 58, 100
3, 101856, Note_on_c, 1, 60, 110
3, 101948, Note_off_c, 1, 60, 100
3, 101952, Note_on_c, 1, 58, 110
3, 102044, Note_off_c, 1, 58, 100
3, 102048, Note_on_c, 1, 57, 110
3, 102136, Control_c, 1, 64, 0
3, 102140, Note_off_c, 1, 57, 100
3, 102144, Control_c, 1, 64, 127
3, 102144, Note_on_c, 1, 55, 110
3, 102236, Note_off_c, 1, 55, 100
3, 102240, Note_on_c, 1, 57, 110
3, 102332, Note_off_c, 1, 57, 100
3, 102336, Note_on_c, 1, 55, 110
3, 102428, Note_off_c, 1, 55, 100
3, 102432, Note_on_c, 1, 53, 110
3, 102520, Control_c, 1, 64, 0
3, 102528, Control_c, 1, 64, 127
3, 102528, Note_on_c, 1, 51, 110
3, 102620, Note_off_c, 1, 51, 100
3, 102624, Note_on_c, 1, 53, 110
3, 102716, Note_off_c, 1, 53, 100
3, 102716, Note_off_c, 1, 53, 64
3, 102720, Note_on_c, 1, 51, 110
3, 102812, Note_off_c, 1, 51, 100
3, 102816, Note_on_c, 1, 50, 110
3, 102904, Control_c, 1, 64, 0
3, 102908, Note_off_c, 1, 50, 100
3, 102912, Control_c, 1, 64, 127
3, 102912, Note_on_c, 1, 48, 110
3, 103004, Note_off_c, 1, 48, 100
3, 103008, Note_on_c, 1, 50, 110
3, 103100, Note_off_c, 1, 50, 100
3, 103104, Note_on_c, 1, 48, 110
3, 103196, Note_off_c, 1, 48, 100
3, 103200, Note_on_c, 1, 46, 110
3, 103288, Control_c, 1, 64, 0
3, 103292, Note_off_c, 1, 46, 100
3, 103296, Control_c, 1, 64, 127
3, 103296, Note_on_c, 1, 44, 110
3, 103388, Note_off_c, 1, 44, 100
3, 103392, Note_on_c, 1, 46, 110
3, 103484, Note_off_c, 1, 46, 100
3, 103488, Note_on_c, 1, 44, 110
3, 103580, Note_off_c, 1, 44, 100
3, 103584, Note_on_c, 1, 43, 110
3, 103672, Control_c, 1, 64, 0
3, 103676, Note_off_c, 1, 43, 100
3, 103680, Control_c, 1, 64, 127
3, 103680, Note_on_c, 1, 42, 110
3, 103772, Note_off_c, 1, 42, 100
3, 103776, Note_on_c, 1, 43, 110
3, 103868, Note_off_c, 1, 43, 100
3, 103872, Note_on_c, 1, 42, 110
3, 103964, Note_off_c, 1, 42, 100
3, 103968, Note_on_c, 1, 40, 110
3, 104056, Control_c, 1, 64, 0
3, 104060, Note_off_c, 1, 40, 100
3, 104064, Control_c, 1, 64, 127
3, 104064, Note_on_c, 1, 38, 110
3, 104156, Note_off_c, 1, 38, 100
3, 104160, Note_on_c, 1, 40, 110
3, 104252, Note_off_c, 1, 40, 100
3, 104256, Note_on_c, 1, 42, 110
3, 104348, Note_off_c, 1, 42, 100
3, 104352, Note_on_c, 1, 38, 110
3, 104440, Control_c, 1, 64, 0
3, 104444, Note_off_c, 1, 38, 100
3, 104448, Control_c, 1, 64, 127
3, 104448, Note_on_c, 1, 43, 110
3, 104540, Note_off_c, 1, 43, 100
3, 104544, Note_on_c, 1, 45, 110
3, 104636, Note_off_c, 1, 45, 100
3, 104640, Note_on_c, 1, 46, 110
3, 104732, Note_off_c, 1, 46, 100
3, 104736, Note_on_c, 1, 43, 110
3, 104824, Control_c, 1, 64, 0
3, 104828, Note_off_c, 1, 43, 100
3, 104832, Control_c, 1, 64, 127
3, 104832, Note_on_c, 1, 50, 110
3, 104924, Note_off_c, 1, 50, 100
3, 104928, Note_on_c, 1, 48, 110
3, 105020, Note_off_c, 1, 48, 100
3, 105024, Note_on_c, 1, 46, 110
3, 105116, Note_off_c, 1, 46, 100
3, 105120, Note_on_c, 1, 45, 110
3, 105208, Control_c, 1, 64, 0
3, 105212, Note_off_c, 1, 45, 100
3, 105216, Control_c, 1, 64, 127
3, 105216, Note_on_c, 1, 43, 110
3, 105308, Note_off_c, 1, 43, 100
3, 105312, Note_on_c, 1, 46, 80
3, 105404, Note_off_c, 1, 46, 100
3, 105408, Note_on_c, 1, 50, 80
3, 105500, Note_off_c, 1, 50, 100
3, 105504, Note_on_c, 1, 55, 80
3, 105592, Control_c, 1, 64, 0
3, 105596, Note_off_c, 1, 55, 100
3, 105600, Control_c, 1, 64, 127
3, 105600, Note_on_c, 1, 43, 80
3, 105976, Control_c, 1, 64, 0
3, 105980, Note_off_c, 1, 43, 100
3, 105984, Control_c, 1, 64, 127
3, 106360, Control_c, 1, 64, 0
3, 106368, Note_on_c, 1, 46, 80
3, 106556, Note_off_c, 1, 46, 100
3, 106560, Note_on_c, 1, 58, 80
3, 106748, Note_off_c, 1, 58, 100
3, 106752, Note_on_c, 1, 62, 80
3, 106940, Note_off_c, 1, 62, 100
3, 106944, Note_on_c, 1, 58, 80
3, 107132, Note_off_c, 1, 58, 100
3, 107136, Note_on_c, 1, 63, 80
3, 107324, Note_off_c, 1, 63, 100
3, 107328, Note_on_c, 1, 60, 80
3, 107516, Note_off_c, 1, 60, 100
3, 107520, Note_on_c, 1, 62, 80
3, 107708, Note_off_c, 1, 62, 100
3, 107712, Note_on_c, 1, 61, 80
3, 107900, Note_off_c, 1, 61, 100
3, 107904, Note_on_c, 1, 62, 80
3, 108092, Note_off_c, 1, 62, 100
3, 108096, Note_on_c, 1, 58, 80
3, 108284, Note_off_c, 1, 58, 100
3, 108288, Note_on_c, 1, 63, 80
3, 108476, Note_off_c, 1, 63, 100
3, 108480, Note_on_c, 1, 60, 80
3, 108668, Note_off_c, 1, 60, 100
3, 108672, Note_on_c, 1, 62, 80
3, 108860, Note_off_c, 1, 62, 100
3, 108864, Note_on_c, 1, 61, 80
3, 109052, Note_off_c, 1, 61, 100
3, 109056, Note_on_c, 1, 62, 80
3, 109244, Note_off_c, 1, 62, 100
3, 109248, Note_on_c, 1, 57, 80
3, 109436, Note_off_c, 1, 57, 100
3, 109440, Note_on_c, 1, 58, 80
3, 109628, Note_off_c, 1, 58, 100
3, 109632, Note_on_c, 1, 55, 80
3, 109820, Note_off_c, 1, 55, 100
3, 109824, Note_on_c, 1, 53, 80
3, 110204, Note_off_c, 1, 53, 64
3, 110208, Note_on_c, 1, 65, 80
3, 110396, Note_off_c, 1, 65, 100
3, 111168, Note_on_c, 1, 53, 80
3, 111356, Note_off_c, 1, 53, 64
3, 111360, Note_on_c, 1, 57, 80
3, 111548, Note_off_c, 1, 57, 100
3, 111552, Note_on_c, 1, 60, 80
3, 111740, Note_off_c, 1, 60, 100
3, 111744, Note_on_c, 1, 63, 80
3, 112316, Note_off_c, 1, 63, 100
3, 112320, Note_on_c, 1, 53, 80
3, 112508, Note_off_c, 1, 53, 64
3, 112512, Note_on_c, 1, 60, 80
3, 112700, Note_off_c, 1, 60, 100
3, 112704, Note_on_c, 1, 63, 80
3, 112892, Note_off_c, 1, 63, 100
3, 112896, Note_on_c, 1, 66, 80
3, 113660, Note_off_c, 1, 66, 100
3, 113664, Note_on_c, 1, 65, 80
3, 113664, Note_on_c, 1, 53, 80
3, 114044, Note_off_c, 1, 65, 100
3, 114048, Note_on_c, 1, 53, 80
3, 114048, Note_on_c, 1, 63, 80
3, 114428, Note_off_c, 1, 53, 100
3, 114428, Note_off_c, 1, 53, 64
3, 114428, Note_off_c, 1, 63, 100
3, 114432, Note_on_c, 1, 63, 80
3, 114432, Note_on_c, 1, 58, 80
3, 114812, Note_off_c, 1, 63, 100
3, 115004, Note_off_c, 1, 58, 100
3, 115584, Note_on_c, 1, 46, 80
3, 115772, Note_off_c, 1, 46, 100
3, 115776, Note_on_c, 1, 58, 80
3, 115964, Note_off_c, 1, 58, 100
3, 115968, Note_on_c, 1, 62, 80
3, 116156, Note_off_c, 1, 62, 100
3, 116160, Note_on_c, 1, 58, 80
3, 116348, Note_off_c, 1, 58, 100
3, 116352, Note_on_c, 1, 63, 80
3, 116540, Note_off_c, 1, 63, 100
3, 116544, Note_on_c, 1, 60, 80
3, 116732, Note_off_c, 1, 60, 100
3, 116736, Note_on_c, 1, 62, 80
3, 116924, Note_off_c, 1, 62, 100
3, 116928, Note_on_c, 1, 61, 80
3, 117116, Note_off_c, 1, 61, 100
3, 117120, Note_on_c, 1, 62, 80
3, 117308, Note_off_c, 1, 62, 100
3, 117312, Note_on_c, 1, 58, 80
3, 117500, Note_off_c, 1, 58, 100
3, 117504, Note_on_c, 1, 63, 80
3, 117692, Note_off_c, 1, 63, 100
3, 117696, Note_on_c, 1, 60, 80
3, 117884, Note_off_c, 1, 60, 100
3, 117888, Note_on_c, 1, 62, 80
3, 118076, Note_off_c, 1, 62, 100
3, 118080, Note_on_c, 1, 61, 80
3, 118268, Note_off_c, 1, 61, 100
3, 118272, Note_on_c, 1, 62, 80
3, 118460, Note_off_c, 1, 62, 100
3, 118464, Note_on_c, 1, 57, 80
3, 118652, Note_off_c, 1, 57, 100
3, 118656, Note_on_c, 1, 58, 80
3, 118844, Note_off_c, 1, 58, 100
3, 118848, Note_on_c, 1, 55, 80
3, 119036, Note_off_c, 1, 55, 100
3, 119040, Note_on_c, 1, 53, 80
3, 119420, Note_off_c, 1, 53, 64
3, 119424, Note_on_c, 1, 65, 80
3, 119612, Note_off_c, 1, 65, 100
3, 120384, Note_on_c, 1, 53, 80
3, 120572, Note_off_c, 1, 53, 64
3, 120576, Note_on_c, 1, 57, 80
3, 120764, Note_off_c, 1, 57, 100
3, 120768, Note_on_c, 1, 60, 80
3, 120956, Note_off_c, 1, 60, 100
3, 120960, Note_on_c, 1, 63, 80
3, 121532, Note_off_c, 1, 63, 100
3, 121536, Note_on_c, 1, 53, 80
3, 121724, Note_off_c, 1, 53, 64
3, 121728, Note_on_c, 1, 60, 80
3, 121916, Note_off_c, 1, 60, 100
3, 121920, Note_on_c, 1, 63, 80
3, 122108, Note_off_c, 1, 63, 100
3, 122112, Note_on_c, 1, 66, 80
3, 122876, Note_off_c, 1, 66, 100
3, 122880, Note_on_c, 1, 65, 80
3, 122880, Note_on_c, 1, 53, 80
3, 123260, Note_off_c, 1, 65, 100
3, 123264, Note_on_c, 1, 53, 80
3, 123264, Note_on_c, 1, 63, 80
3, 123644, Note_off_c, 1, 53, 100
3, 123644, Note_off_c, 1, 53, 64
3, 123644, Note_off_c, 1, 63, 100
3, 123648, Note_on_c, 1, 63, 80
3, 123648, Note_on_c, 1, 58, 80
3, 124028, Note_off_c, 1, 63, 100
3, 124220, Note_off_c, 1, 58, 100
3, 124416, Note_on_c, 1, 66, 80
3, 124508, Note_off_c, 1, 66, 100
3, 124512, Note_on_c, 1, 67, 81
3, 124604, Note_off_c, 1, 67, 100
3, 124608, Note_on_c, 1, 66, 83
3, 124700, Note_off_c, 1, 66, 100
3, 124704, Note_on_c, 1, 67, 85
3, 124796, Note_off_c, 1, 67, 100
3, 124800, Note_on_c, 1, 66, 87
3, 124892, Note_off_c, 1, 66, 100
3, 124896, Note_on_c, 1, 67, 89
3, 124988, Note_off_c, 1, 67, 100
3, 124992, Note_on_c, 1, 66, 91
3, 125084, Note_off_c, 1, 66, 100
3, 125088, Note_on_c, 1, 67, 93
3, 125180, Note_off_c, 1, 67, 100
3, 125184, Note_on_c, 1, 66, 95
3, 125276, Note_off_c, 1, 66, 100
3, 125280, Note_on_c, 1, 67, 96
3, 125372, Note_off_c, 1, 67, 100
3, 125376, Note_on_c, 1, 66, 98
3, 125468, Note_off_c, 1, 66, 100
3, 125472, Note_on_c, 1, 67, 100
3, 125564, Note_off_c, 1, 67, 100
3, 125568, Note_on_c, 1, 66, 102
3, 125660, Note_off_c, 1, 66, 100
3, 125664, Note_on_c, 1, 67, 104
3, 125756, Note_off_c, 1, 67, 100
3, 125760, Note_on_c, 1, 66, 106
3, 125852, Note_off_c, 1, 66, 100
3, 125856, Note_on_c, 1, 67, 108
3, 125948, Note_off_c, 1, 67, 100
3, 125952, Note_on_c, 1, 66, 110
3, 126140, Note_off_c, 1, 66, 100
3, 126336, Note_on_c, 1, 62, 120
3, 126336, Note_on_c, 1, 50, 120
3, 126908, Note_off_c, 1, 62, 100
3, 126908, Note_off_c, 1, 50, 100
3, 126912, Note_on_c, 1, 62, 120
3, 126912, Note_on_c, 1, 50, 120
3, 127100, Note_off_c, 1, 62, 100
3, 127100, Note_off_c, 1, 50, 100
3, 127104, Note_on_c, 1, 63, 120
3, 127104, Note_on_c, 1, 51, 120
3, 127388, Note_off_c, 1, 63, 100
3, 127388, Note_off_c, 1, 51, 100
3, 127392, Note_on_c, 1, 60, 120
3, 127392, Note_on_c, 1, 48, 120
3, 127484, Note_off_c, 1, 60, 100
3, 127484, Note_off_c, 1, 48, 100
3, 127488, Note_on_c, 1, 62, 120
3, 127488, Note_on_c, 1, 50, 120
3, 127868, Note_off_c, 1, 62, 100
3, 127868, Note_off_c, 1, 50, 100
3, 127872, Note_on_c, 1, 50, 120
3, 127872, Note_on_c, 1, 38, 120
3, 128252, Note_off_c, 1, 50, 100
3, 128252, Note_off_c, 1, 38, 100
3, 128256, Note_on_c, 1, 55, 120
3, 128256, Note_on_c, 1, 43, 120
3, 128828, Note_off_c, 1, 55, 100
3, 128828, Note_off_c, 1, 43, 100
3, 129024, Note_on_c, 1, 50, 80
3, 129116, Note_off_c, 1, 50, 100
3, 129120, Note_on_c, 1, 51, 81
3, 129212, Note_off_c, 1, 51, 100
3, 129216, Note_on_c, 1, 50, 82
3, 129308, Note_off_c, 1, 50, 100
3, 129312, Note_on_c, 1, 51, 83
3, 129404, Note_off_c, 1, 51, 100
3, 129408, Note_on_c, 1, 50, 85
3, 129500, Note_off_c, 1, 50, 100
3, 129504, Note_on_c, 1, 51, 86
3, 129596, Note_off_c, 1, 51, 100
3, 129600, Note_on_c, 1, 50, 87
3, 129692, Note_off_c, 1, 50, 100
3, 129696, Note_on_c, 1, 51, 88
3, 129788, Note_off_c, 1, 51, 100
3, 129792, Note_on_c, 1, 50, 90
3, 129884, Note_off_c, 1, 50, 100
3, 129888, Note_on_c, 1, 51, 91
3, 129980, Note_off_c, 1, 51, 100
3, 129984, Note_on_c, 1, 50, 92
3, 130076, Note_off_c, 1, 50, 100
3, 130080, Note_on_c, 1, 51, 93
3, 130172, Note_off_c, 1, 51, 100
3, 130176, Note_on_c, 1, 50, 95
3, 130268, Note_off_c, 1, 50, 100
3, 130272, Note_on_c, 1, 51, 96
3, 130364, Note_off_c, 1, 51, 100
3, 130368, Note_on_c, 1, 50, 97
3, 130460, Note_off_c, 1, 50, 100
3, 130464, Note_on_c, 1, 51, 98
3, 130556, Note_off_c, 1, 51, 100
3, 130560, Note_on_c, 1, 50, 100
3, 130748, Note_off_c, 1, 50, 100
3, 130944, Note_on_c, 1, 53, 110
3, 130944, Note_on_c, 1, 50, 110
3, 131516, Note_off_c, 1, 53, 64
3, 131516, Note_off_c, 1, 50, 100
3, 131520, Note_on_c, 1, 55, 80
3, 131520, Note_on_c, 1, 51, 80
3, 131708, Note_off_c, 1, 55, 100
3, 131708, Note_off_c, 1, 51, 100
3, 131712, Note_on_c, 1, 50, 80
3, 131712, Note_on_c, 1, 47, 80
3, 131996, Note_off_c, 1, 50, 100
3, 131996, Note_off_c, 1, 47, 100
3, 132000, Note_on_c, 1, 51, 80
3, 132000, Note_on_c, 1, 48, 80
3, 132092, Note_off_c, 1, 51, 100
3, 132092, Note_off_c, 1, 48, 100
3, 132096, Note_on_c, 1, 53, 80
3, 132096, Note_on_c, 1, 50, 80
3, 132476, Note_off_c, 1, 53, 64
3, 132476, Note_off_c, 1, 50, 100
3, 132480, Note_on_c, 1, 55, 80
3, 132480, Note_on_c, 1, 51, 80
3, 132860, Note_off_c, 1, 55, 100
3, 132860, Note_off_c, 1, 51, 100
3, 132864, Note_on_c, 1, 53, 80
3, 133244, Note_off_c, 1, 53, 64
3, 133248, Note_on_c, 1, 41, 80
3, 133436, Note_off_c, 1, 41, 100
3, 134016, Note_on_c, 1, 46, 80
3, 134204, Note_off_c, 1, 46, 100
3, 134208, Note_on_c, 1, 58, 80
3, 134396, Note_off_c, 1, 58, 100
3, 134400, Note_on_c, 1, 62, 80
3, 134588, Note_off_c, 1, 62, 100
3, 134592, Note_on_c, 1, 58, 80
3, 134780, Note_off_c, 1, 58, 100
3, 134784, Note_on_c, 1, 63, 80
3, 134972, Note_off_c, 1, 63, 100
3, 134976, Note_on_c, 1, 60, 80
3, 135164, Note_off_c, 1, 60, 100
3, 135168, Note_on_c, 1, 62, 80
3, 135356, Note_off_c, 1, 62, 100
3, 135360, Note_on_c, 1, 61, 80
3, 135548, Note_off_c, 1, 61, 100
3, 135552, Note_on_c, 1, 62, 80
3, 135740, Note_off_c, 1, 62, 100
3, 135744, Note_on_c, 1, 58, 80
3, 135932, Note_off_c, 1, 58, 100
3, 135936, Note_on_c, 1, 63, 80
3, 136124, Note_off_c, 1, 63, 100
3, 136128, Note_on_c, 1, 60, 80
3, 136316, Note_off_c, 1, 60, 100
3, 136320, Note_on_c, 1, 62, 80
3, 136508, Note_off_c, 1, 62, 100
3, 136512, Note_on_c, 1, 61, 80
3, 136700, Note_off_c, 1, 61, 100
3, 136704, Note_on_c, 1, 62, 80
3, 136892, Note_off_c, 1, 62, 100
3, 136896, Note_on_c, 1, 57, 80
3, 137084, Note_off_c, 1, 57, 100
3, 137088, Note_on_c, 1, 58, 80
3, 137276, Note_off_c, 1, 58, 100
3, 137280, Note_on_c, 1, 55, 80
3, 137468, Note_off_c, 1, 55, 100
3, 137472, Note_on_c, 1, 53, 80
3, 137852, Note_off_c, 1, 53, 64
3, 137856, Note_on_c, 1, 65, 80
3, 138044, Note_off_c, 1, 65, 100
3, 138720, Note_on_c, 1, 41, 80
3, 138816, Note_on_c, 1, 45, 80
3, 138908, Note_off_c, 1, 41, 100
3, 138912, Note_on_c, 1, 48, 80
3, 139004, Note_off_c, 1, 45, 100
3, 139008, Note_on_c, 1, 53, 80
3, 139100, Note_off_c, 1, 48, 100
3, 139104, Note_on_c, 1, 57, 80
3, 139196, Note_off_c, 1, 53, 64
3, 139200, Note_on_c, 1, 60, 80
3, 139292, Note_off_c, 1, 57, 100
3, 139296, Note_on_c, 1, 62, 80
3, 139388, Note_off_c, 1, 60, 100
3, 139392, Note_on_c, 1, 63, 80
3, 139484, Note_off_c, 1, 62, 100
3, 139872, Note_on_c, 1, 41, 80
3, 139964, Note_off_c, 1, 63, 64
3, 139968, Note_on_c, 1, 45, 80
3, 140060, Note_off_c, 1, 41, 100
3, 140064, Note_on_c, 1, 48, 80
3, 140156, Note_off_c, 1, 45, 100
3, 140160, Note_on_c, 1, 53, 80
3, 140252, Note_off_c, 1, 48, 100
3, 140256, Note_on_c, 1, 57, 80
3, 140348, Note_off_c, 1, 53, 64
3, 140352, Note_on_c, 1, 60, 80
3, 140444, Note_off_c, 1, 57, 100
3, 140448, Note_on_c, 1, 63, 80
3, 140540, Note_off_c, 1, 60, 100
3, 140540, Note_off_c, 1, 63, 100
3, 140544, Note_on_c, 1, 66, 80
3, 141308, Note_off_c, 1, 66, 100
3, 141312, Note_on_c, 1, 53, 80
3, 141312, Note_on_c, 1, 65, 80
3, 141500, Note_off_c, 1, 53, 64
3, 141692, Note_off_c, 1, 65, 100
3, 141696, Note_on_c, 1, 63, 80
3, 141696, Note_on_c, 1, 51, 80
3, 142076, Note_off_c, 1, 63, 100
3, 142076, Note_off_c, 1, 51, 100
3, 142080, Note_on_c, 1, 46, 80
3, 142268, Note_off_c, 1, 46, 100
3, 142272, Note_on_c, 1, 58, 80
3, 142460, Note_off_c, 1, 58, 100
3, 142464, Note_on_c, 1, 62, 80
3, 142652, Note_off_c, 1, 62, 100
3, 142656, Note_on_c, 1, 58, 80
3, 142844, Note_off_c, 1, 58, 100
3, 142848, Note_on_c, 1, 63, 80
3, 143036, Note_off_c, 1, 63, 100
3, 143040, Note_on_c, 1, 60, 80
3, 143228, Note_off_c, 1, 60, 100
3, 143232, Note_on_c, 1, 62, 80
3, 143420, Note_off_c, 1, 62, 100
3, 143424, Note_on_c, 1, 61, 80
3, 143612, Note_off_c, 1, 61, 100
3, 143616, Note_on_c, 1, 62, 80
3, 143804, Note_off_c, 1, 62, 100
3, 143808, Note_on_c, 1, 58, 80
3, 143996, Note_off_c, 1, 58, 100
3, 144000, Note_on_c, 1, 63, 80
3, 144188, Note_off_c, 1, 63, 100
3, 144192, Note_on_c, 1, 60, 80
3, 144380, Note_off_c, 1, 60, 100
3, 144384, Note_on_c, 1, 58, 80
3, 144572, Note_off_c, 1, 58, 100
3, 144576, Note_on_c, 1, 46, 80
3, 144764, Note_off_c, 1, 46, 100
3, 144768, Note_on_c, 1, 50, 80
3, 144956, Note_off_c, 1, 50, 100
3, 144960, Note_on_c, 1, 46, 80
3, 145148, Note_off_c, 1, 46, 100
3, 145152, Note_on_c, 1, 51, 80
3, 145340, Note_off_c, 1, 51, 100
3, 145344, Note_on_c, 1, 48, 80
3, 145532, Note_off_c, 1, 48, 100
3, 145536, Note_on_c, 1, 50, 80
3, 145724, Note_off_c, 1, 50, 100
3, 145728, Note_on_c, 1, 49, 80
3, 145916, Note_off_c, 1, 49, 100
3, 145920, Note_on_c, 1, 50, 80
3, 146108, Note_off_c, 1, 50, 100
3, 146112, Note_on_c, 1, 46, 80
3, 146300, Note_off_c, 1, 46, 100
3, 146304, Note_on_c, 1, 51, 80
3, 146492, Note_off_c, 1, 51, 100
3, 146496, Note_on_c, 1, 48, 81
3, 146684, Note_off_c, 1, 48, 100
3, 146688, Note_on_c, 1, 46, 82
3, 146876, Note_off_c, 1, 46, 100
3, 146880, Note_on_c, 1, 50, 84
3, 147068, Note_off_c, 1, 50, 100
3, 147072, Note_on_c, 1, 48, 85
3, 147260, Note_off_c, 1, 48, 100
3, 147264, Note_on_c, 1, 41, 87
3, 147452, Note_off_c, 1, 41, 100
3, 147456, Note_on_c, 1, 46, 88
3, 147644, Note_off_c, 1, 46, 100
3, 147648, Note_on_c, 1, 50, 89
3, 147836, Note_off_c, 1, 50, 100
3, 147840, Note_on_c, 1, 48, 91
3, 148028, Note_off_c, 1, 48, 100
3, 148032, Note_on_c, 1, 41, 92
3, 148220, Note_off_c, 1, 41, 100
3, 148224, Note_on_c, 1, 46, 94
3, 148316, Note_off_c, 1, 46, 100
3, 148320, Note_on_c, 1, 50, 94
3, 148412, Note_off_c, 1, 50, 100
3, 148416, Note_on_c, 1, 41, 95
3, 148508, Note_off_c, 1, 41, 100
3, 148512, Note_on_c, 1, 48, 96
3, 148604, Note_off_c, 1, 48, 100
3, 148608, Note_on_c, 1, 46, 97
3, 148700, Note_off_c, 1, 46, 100
3, 148704, Note_on_c, 1, 50, 97
3, 148796, Note_off_c, 1, 50, 100
3, 148800, Note_on_c, 1, 41, 98
3, 148892, Note_off_c, 1, 41, 100
3, 148896, Note_on_c, 1, 48, 99
3, 148988, Note_off_c, 1, 48, 100
3, 148992, Note_on_c, 1, 50, 99
3, 148992, Note_on_c, 1, 46, 99
3, 149372, Note_off_c, 1, 50, 100
3, 149372, Note_off_c, 1, 46, 100
3, 149376, Note_on_c, 1, 46, 80
3, 149376, Note_on_c, 1, 34, 80
3, 149756, Note_off_c, 1, 46, 100
3, 149756, Note_off_c, 1, 34, 100
3, 149760, Note_on_c, 1, 66, 80
3, 149852, Note_off_c, 1, 66, 100
3, 149856, Note_on_c, 1, 67, 81
3, 149948, Note_off_c, 1, 67, 100
3, 149952, Note_on_c, 1, 66, 83
3, 150044, Note_off_c, 1, 66, 100
3, 150048, Note_on_c, 1, 67, 85
3, 150140, Note_off_c, 1, 67, 100
3, 150144, Note_on_c, 1, 66, 87
3, 150236, Note_off_c, 1, 66, 100
3, 150240, Note_on_c, 1, 67, 89
3, 150332, Note_off_c, 1, 67, 100
3, 150336, Note_on_c, 1, 66, 91
3, 150428, Note_off_c, 1, 66, 100
3, 150432, Note_on_c, 1, 67, 93
3, 150524, Note_off_c, 1, 67, 100
3, 150528, Note_on_c, 1, 66, 94
3, 150620, Note_off_c, 1, 66, 100
3, 150624, Note_on_c, 1, 67, 96
3, 150716, Note_off_c, 1, 67, 100
3, 150720, Note_on_c, 1, 66, 98
3, 150812, Note_off_c, 1, 66, 100
3, 150816, Note_on_c, 1, 67, 100
3, 150908, Note_off_c, 1, 67, 100
3, 150912, Note_on_c, 1, 66, 102
3, 151004, Note_off_c, 1, 66, 100
3, 151008, Note_on_c, 1, 67, 104
3, 151100, Note_off_c, 1, 67, 100
3, 151104, Note_on_c, 1, 66, 106
3, 151196, Note_off_c, 1, 66, 100
3, 151200, Note_on_c, 1, 67, 108
3, 151292, Note_off_c, 1, 67, 100
3, 151296, Note_on_c, 1, 66, 109
3, 151484, Note_off_c, 1, 66, 100
3, 151680, Note_on_c, 1, 62, 120
3, 151680, Note_on_c, 1, 50, 120
3, 152252, Note_off_c, 1, 62, 100
3, 152252, Note_off_c, 1, 50, 100
3, 152256, Note_on_c, 1, 62, 120
3, 152256, Note_on_c, 1, 50, 120
3, 152444, Note_off_c, 1, 62, 100
3, 152444, Note_off_c, 1, 50, 100
3, 152448, Note_on_c, 1, 63, 120
3, 152448, Note_on_c, 1, 51, 120
3, 152732, Note_off_c, 1, 63, 100
3, 152732, Note_off_c, 1, 51, 100
3, 152736, Note_on_c, 1, 60, 120
3, 152736, Note_on_c, 1, 48, 120
3, 152828, Note_off_c, 1, 60, 100
3, 152828, Note_off_c, 1, 48, 100
3, 152832, Note_on_c, 1, 62, 120
3, 152832, Note_on_c, 1, 50, 120
3, 153212, Note_off_c, 1, 62, 100
3, 153212, Note_off_c, 1, 50, 100
3, 153216, Note_on_c, 1, 50, 120
3, 153216, Note_on_c, 1, 38, 120
3, 153596, Note_off_c, 1, 50, 100
3, 153596, Note_off_c, 1, 38, 100
3, 153600, Note_on_c, 1, 55, 120
3, 153600, Note_on_c, 1, 43, 120
3, 154172, Note_off_c, 1, 55, 100
3, 154172, Note_off_c, 1, 43, 100
3, 154368, Note_on_c, 1, 50, 80
3, 154460, Note_off_c, 1, 50, 100
3, 154464, Note_on_c, 1, 51, 81
3, 154556, Note_off_c, 1, 51, 100
3, 154560, Note_on_c, 1, 50, 82
3, 154652, Note_off_c, 1, 50, 100
3, 154656, Note_on_c, 1, 51, 83
3, 154748, Note_off_c, 1, 51, 100
3, 154752, Note_on_c, 1, 50, 84
3, 154844, Note_off_c, 1, 50, 100
3, 154848, Note_on_c, 1, 51, 86
3, 154940, Note_off_c, 1, 51, 100
3, 154944, Note_on_c, 1, 50, 87
3, 155036, Note_off_c, 1, 50, 100
3, 155040, Note_on_c, 1, 51, 88
3, 155132, Note_off_c, 1, 51, 100
3, 155136, Note_on_c, 1, 50, 89
3, 155228, Note_off_c, 1, 50, 100
3, 155232, Note_on_c, 1, 51, 91
3, 155324, Note_off_c, 1, 51, 100
3, 155328, Note_on_c, 1, 50, 92
3, 155420, Note_off_c, 1, 50, 100
3, 155424, Note_on_c, 1, 51, 93
3, 155516, Note_off_c, 1, 51, 100
3, 155520, Note_on_c, 1, 50, 94
3, 155612, Note_off_c, 1, 50, 100
3, 155616, Note_on_c, 1, 51, 96
3, 155708, Note_off_c, 1, 51, 100
3, 155712, Note_on_c, 1, 50, 97
3, 155804, Note_off_c, 1, 50, 100
3, 155808, Note_on_c, 1, 51, 98
3, 155900, Note_off_c, 1, 51, 100
3, 155904, Note_on_c, 1, 50, 99
3, 156092, Note_off_c, 1, 50, 100
3, 156288, Note_on_c, 1, 53, 110
3, 156288, Note_on_c, 1, 50, 110
3, 156860, Note_off_c, 1, 53, 64
3, 156860, Note_off_c, 1, 50, 100
3, 156864, Note_on_c, 1, 55, 80
3, 156864, Note_on_c, 1, 51, 80
3, 157052, Note_off_c, 1, 55, 100
3, 157052, Note_off_c, 1, 51, 100
3, 157056, Note_on_c, 1, 50, 80
3, 157056, Note_on_c, 1, 47, 80
3, 157340, Note_off_c, 1, 50, 100
3, 157340, Note_off_c, 1, 47, 100
3, 157344, Note_on_c, 1, 51, 80
3, 157344, Note_on_c, 1, 48, 80
3, 157436, Note_off_c, 1, 51, 100
3, 157436, Note_off_c, 1, 48, 100
3, 157440, Note_on_c, 1, 53, 80
3, 157440, Note_on_c, 1, 50, 80
3, 157820, Note_off_c, 1, 53, 64
3, 157820, Note_off_c, 1, 50, 100
3, 157824, Note_on_c, 1, 55, 80
3, 157824, Note_on_c, 1, 51, 80
3, 158204, Note_off_c, 1, 55, 100
3, 158204, Note_off_c, 1, 51, 100
3, 158208, Note_on_c, 1, 53, 80
3, 158588, Note_off_c, 1, 53, 64
3, 158592, Note_on_c, 1, 41, 80
3, 158780, Note_off_c, 1, 41, 100
3, 159360, Note_on_c, 1, 46, 80
3, 159548, Note_off_c, 1, 46, 100
3, 159552, Note_on_c, 1, 58, 80
3, 159740, Note_off_c, 1, 58, 100
3, 159744, Note_on_c, 1, 62, 80
3, 159932, Note_off_c, 1, 62, 100
3, 159936, Note_on_c, 1, 58, 80
3, 160124, Note_off_c, 1, 58, 100
3, 160128, Note_on_c, 1, 63, 80
3, 160316, Note_off_c, 1, 63, 100
3, 160320, Note_on_c, 1, 60, 80
3, 160508, Note_off_c, 1, 60, 100
3, 160512, Note_on_c, 1, 62, 80
3, 160700, Note_off_c, 1, 62, 100
3, 160704, Note_on_c, 1, 61, 80
3, 160892, Note_off_c, 1, 61, 100
3, 160896, Note_on_c, 1, 62, 80
3, 161084, Note_off_c, 1, 62, 100
3, 161088, Note_on_c, 1, 58, 80
3, 161276, Note_off_c, 1, 58, 100
3, 161280, Note_on_c, 1, 63, 80
3, 161468, Note_off_c, 1, 63, 100
3, 161472, Note_on_c, 1, 60, 80
3, 161660, Note_off_c, 1, 60, 100
3, 161664, Note_on_c, 1, 62, 80
3, 161852, Note_off_c, 1, 62, 100
3, 161856, Note_on_c, 1, 61, 80
3, 162044, Note_off_c, 1, 61, 100
3, 162048, Note_on_c, 1, 62, 80
3, 162236, Note_off_c, 1, 62, 100
3, 162240, Note_on_c, 1, 57, 80
3, 162428, Note_off_c, 1, 57, 100
3, 162432, Note_on_c, 1, 58, 80
3, 162620, Note_off_c, 1, 58, 100
3, 162624, Note_on_c, 1, 55, 80
3, 162812, Note_off_c, 1, 55, 100
3, 162816, Note_on_c, 1, 53, 80
3, 163196, Note_off_c, 1, 53, 64
3, 163200, Note_on_c, 1, 65, 80
3, 163388, Note_off_c, 1, 65, 100
3, 164064, Note_on_c, 1, 41, 80
3, 164160, Note_on_c, 1, 45, 80
3, 164248, Note_off_c, 1, 41, 100
3, 164256, Note_on_c, 1, 48, 80
3, 164348, Note_off_c, 1, 45, 100
3, 164352, Note_on_c, 1, 53, 80
3, 164428, Note_off_c, 1, 48, 100
3, 164448, Note_on_c, 1, 57, 80
3, 164536, Note_off_c, 1, 53, 64
3, 164544, Note_on_c, 1, 60, 80
3, 164620, Note_off_c, 1, 57, 100
3, 164640, Note_on_c, 1, 62, 80
3, 164712, Note_off_c, 1, 60, 100
3, 164736, Note_on_c, 1, 63, 80
3, 164828, Note_off_c, 1, 62, 100
3, 165216, Note_on_c, 1, 41, 80
3, 165308, Note_off_c, 1, 63, 64
3, 165312, Note_on_c, 1, 45, 80
3, 165404, Note_off_c, 1, 41, 100
3, 165408, Note_on_c, 1, 48, 80
3, 165484, Note_off_c, 1, 45, 100
3, 165504, Note_on_c, 1, 53, 80
3, 165596, Note_off_c, 1, 48, 100
3, 165600, Note_on_c, 1, 57, 80
3, 165688, Note_off_c, 1, 53, 64
3, 165696, Note_on_c, 1, 60, 80
3, 165788, Note_off_c, 1, 57, 100
3, 165792, Note_on_c, 1, 63, 80
3, 165884, Note_off_c, 1, 60, 100
3, 165888, Note_on_c, 1, 66, 102
3, 165964, Note_off_c, 1, 63, 100
3, 166652, Note_off_c, 1, 66, 100
3, 166656, Note_on_c, 1, 53, 80
3, 166656, Note_on_c, 1, 65, 80
3, 167036, Note_off_c, 1, 53, 64
3, 167036, Note_off_c, 1, 65, 100
3, 167040, Note_on_c, 1, 63, 80
3, 167040, Note_on_c, 1, 51, 80
3, 167420, Note_off_c, 1, 63, 100
3, 167420, Note_off_c, 1, 51, 100
3, 167424, Note_on_c, 1, 46, 80
3, 167612, Note_off_c, 1, 46, 100
3, 167616, Note_on_c, 1, 58, 80
3, 167804, Note_off_c, 1, 58, 100
3, 167808, Note_on_c, 1, 62, 80
3, 167996, Note_off_c, 1, 62, 100
3, 168000, Note_on_c, 1, 58, 80
3, 168188, Note_off_c, 1, 58, 100
3, 168192, Note_on_c, 1, 63, 80
3, 168380, Note_off_c, 1, 63, 100
3, 168384, Note_on_c, 1, 60, 80
3, 168572, Note_off_c, 1, 60, 100
3, 168576, Note_on_c, 1, 62, 80
3, 168764, Note_off_c, 1, 62, 100
3, 168768, Note_on_c, 1, 61, 80
3, 168956, Note_off_c, 1, 61, 100
3, 168960, Note_on_c, 1, 62, 80
3, 169148, Note_off_c, 1, 62, 100
3, 169152, Note_on_c, 1, 58, 80
3, 169340, Note_off_c, 1, 58, 100
3, 169344, Note_on_c, 1, 63, 80
3, 169532, Note_off_c, 1, 63, 100
3, 169536, Note_on_c, 1, 60, 80
3, 169724, Note_off_c, 1, 60, 100
3, 169728, Note_on_c, 1, 58, 80
3, 169916, Note_off_c, 1, 58, 100
3, 169920, Note_on_c, 1, 46, 80
3, 170108, Note_off_c, 1, 46, 100
3, 170112, Note_on_c, 1, 50, 80
3, 170300, Note_off_c, 1, 50, 100
3, 170304, Note_on_c, 1, 46, 80
3, 170492, Note_off_c, 1, 46, 100
3, 170496, Note_on_c, 1, 51, 80
3, 170684, Note_off_c, 1, 51, 100
3, 170688, Note_on_c, 1, 48, 80
3, 170876, Note_off_c, 1, 48, 100
3, 170880, Note_on_c, 1, 50, 80
3, 171068, Note_off_c, 1, 50, 100
3, 171072, Note_on_c, 1, 49, 80
3, 171260, Note_off_c, 1, 49, 100
3, 171264, Note_on_c, 1, 50, 80
3, 171452, Note_off_c, 1, 50, 100
3, 171456, Note_on_c, 1, 46, 80
3, 171644, Note_off_c, 1, 46, 100
3, 171648, Note_on_c, 1, 51, 80
3, 171836, Note_off_c, 1, 51, 100
3, 171840, Note_on_c, 1, 48, 81
3, 172028, Note_off_c, 1, 48, 100
3, 172032, Note_on_c, 1, 46, 82
3, 172220, Note_off_c, 1, 46, 100
3, 172224, Note_on_c, 1, 50, 84
3, 172412, Note_off_c, 1, 50, 100
3, 172416, Note_on_c, 1, 48, 85
3, 172604, Note_off_c, 1, 48, 100
3, 172608, Note_on_c, 1, 41, 87
3, 172796, Note_off_c, 1, 41, 100
3, 172800, Note_on_c, 1, 46, 88
3, 172988, Note_off_c, 1, 46, 100
3, 172992, Note_on_c, 1, 50, 89
3, 173180, Note_off_c, 1, 50, 100
3, 173184, Note_on_c, 1, 48, 91
3, 173372, Note_off_c, 1, 48, 100
3, 173376, Note_on_c, 1, 41, 92
3, 173564, Note_off_c, 1, 41, 100
3, 173568, Note_on_c, 1, 46, 94
3, 173660, Note_off_c, 1, 46, 100
3, 173664, Note_on_c, 1, 50, 94
3, 173756, Note_off_c, 1, 50, 100
3, 173760, Note_on_c, 1, 41, 95
3, 173852, Note_off_c, 1, 41, 100
3, 173856, Note_on_c, 1, 48, 96
3, 173948, Note_off_c, 1, 48, 100
3, 173952, Note_on_c, 1, 46, 97
3, 174044, Note_off_c, 1, 46, 100
3, 174048, Note_on_c, 1, 50, 97
3, 174140, Note_off_c, 1, 50, 100
3, 174144, Note_on_c, 1, 41, 98
3, 174236, Note_off_c, 1, 41, 100
3, 174240, Note_on_c, 1, 48, 99
3, 174332, Note_off_c, 1, 48, 100
3, 174336, Note_on_c, 1, 50, 99
3, 174336, Note_on_c, 1, 46, 99
3, 174716, Note_off_c, 1, 50, 100
3, 174716, Note_off_c, 1, 46, 100
3, 174720, Note_on_c, 1, 46, 80
3, 174720, Note_on_c, 1, 34, 80
3, 175484, Note_off_c, 1, 46, 100
3, 175484, Note_off_c, 1, 34, 100
3, 175484, End_track
0, 0, End_of_file
