0, 0, Header, 1, 3, 384
1, 0, Start_track
1, 0, Title_t, "L.v.Beethoven 2mov - Piano Sonata No.11 in Bb Major Op.22\000"
1, 0, Copyright_t, "Copyright(C) 1995-2009, Suzuki Software\000"
1, 0, Sequencer_specific, 9, 67, 123, 0, 88, 70, 48, 50, 0, 1
1, 0, Text_t, "XFhd:2000/05/23:JP:Classical::::L.v.Beethoven:::Kaoru Suzuki\000"
1, 0, Text_t, "XFln:JP:\203s\203A\203m\203\\\203i\203^\221æ11\224Ô\225Ï\203\215\222·\222²\215ì\225i22\201`\221æ2\212y\217Í:L.v.\203x\201[\203g\201[\203\224\203F\203\223:::\227é\202¿\202á\202ñ:\227é\202¿\202á\202ñ\000"
1, 0, Time_signature, 3, 3, 96, 8
1, 0, Sequencer_specific, 3, 0, 0, 65
1, 0, Sequencer_specific, 5, 0, 0, 119, 14, 0
1, 0, Tempo, 1000000
1, 3456, Tempo, 1043478
1, 3840, Tempo, 1090909
1, 4032, Tempo, 1000000
1, 8064, Tempo, 1090909
1, 8448, Tempo, 1142857
1, 8736, Tempo, 1000000
1, 17856, Tempo, 1043478
1, 18432, Tempo, 1090909
1, 20256, Tempo, 1000000
1, 22464, Tempo, 1090909
1, 23616, Tempo, 1052631
1, 28800, Tempo, 1090909
1, 28992, Tempo, 1142857
1, 29184, Tempo, 1200000
1, 29472, Tempo, 1043478
1, 32448, Tempo, 1090909
1, 32640, Tempo, 1142857
1, 32928, Tempo, 1090909
1, 33408, Tempo, 1043478
1, 36096, Tempo, 1090909
1, 36384, Tempo, 1043478
1, 40896, Tempo, 1071428
1, 41088, Tempo, 1142857
1, 41280, Tempo, 1200000
1, 41856, Tempo, 1043478
1, 49152, Tempo, 1090909
1, 49728, Tempo, 1200000
1, 50112, Tempo, 1333333
1, 51264, Tempo, 1043478
1, 65664, Tempo, 1016949
1, 72192, Tempo, 1043478
1, 72384, Tempo, 1071428
1, 72672, Tempo, 1016949
1, 73920, Tempo, 1061946
1, 74112, Tempo, 1090909
1, 74304, Tempo, 1052631
1, 75648, Tempo, 1081081
1, 75840, Tempo, 1121495
1, 76128, Tempo, 1061946
1, 76704, Tempo, 1025641
1, 77280, Tempo, 1000000
1, 79104, Tempo, 1061946
1, 79296, Tempo, 1142857
1, 79392, Tempo, 1500000
1, 79584, Tempo, 1000000
1, 83136, Tempo, 1043478
1, 83328, Tempo, 1090909
1, 83616, Tempo, 1000000
1, 87360, Tempo, 1025641
1, 87552, Tempo, 1071428
1, 87936, Tempo, 1142857
1, 88176, Tempo, 1000000
1, 97344, Tempo, 1025641
1, 97728, Tempo, 1061946
1, 98112, Tempo, 1090909
1, 98304, Tempo, 1142857
1, 98544, Tempo, 1000000
1, 102528, Tempo, 1043478
1, 103104, Tempo, 1090909
1, 103488, Tempo, 1142857
1, 104304, Tempo, 1043478
1, 109440, Tempo, 1071428
1, 110016, Tempo, 1121495
1, 110400, Tempo, 1200000
1, 110640, Tempo, 1000000
1, 113664, Tempo, 1043478
1, 113856, Tempo, 1090909
1, 114288, Tempo, 1000000
1, 117120, Tempo, 1043478
1, 117312, Tempo, 1090909
1, 117552, Tempo, 1000000
1, 122304, Tempo, 1043478
1, 122496, Tempo, 1090909
1, 123072, Tempo, 1000000
1, 129408, Tempo, 1090909
1, 130752, Tempo, 1276595
1, 131136, Tempo, 1500000
1, 131520, Tempo, 1714285
1, 131520, End_track
2, 0, Start_track
2, 0, Title_t, "Right"
2, 0, Control_c, 0, 0, 0
2, 0, Program_c, 0, 0
2, 0, Control_c, 0, 7, 100
2, 0, Control_c, 0, 10, 75
2, 0, Control_c, 0, 91, 127
2, 0, Key_signature, -3, "major"
2, 1152, Note_on_c, 0, 67, 80
2, 1340, Note_off_c, 0, 67, 100
2, 1344, Note_on_c, 0, 68, 80
2, 1364, Note_off_c, 0, 68, 100
2, 1366, Note_on_c, 0, 67, 80
2, 1438, Note_off_c, 0, 67, 100
2, 1440, Note_on_c, 0, 65, 80
2, 1532, Note_off_c, 0, 65, 100
2, 1536, Note_on_c, 0, 67, 80
2, 1628, Note_off_c, 0, 67, 100
2, 1632, Note_on_c, 0, 68, 80
2, 1724, Note_off_c, 0, 68, 100
2, 1728, Note_on_c, 0, 69, 80
2, 2300, Note_off_c, 0, 69, 100
2, 2304, Note_on_c, 0, 70, 80
2, 3068, Note_off_c, 0, 70, 100
2, 3072, Note_on_c, 0, 72, 80
2, 3092, Note_off_c, 0, 72, 100
2, 3094, Note_on_c, 0, 70, 80
2, 3166, Note_off_c, 0, 70, 100
2, 3168, Note_on_c, 0, 69, 80
2, 3260, Note_off_c, 0, 69, 100
2, 3264, Note_on_c, 0, 70, 80
2, 3356, Note_off_c, 0, 70, 100
2, 3360, Note_on_c, 0, 71, 80
2, 3452, Note_off_c, 0, 71, 100
2, 3456, Note_on_c, 0, 71, 80
2, 3644, Note_off_c, 0, 71, 100
2, 3648, Note_on_c, 0, 72, 80
2, 3696, Note_on_c, 0, 71, 80
2, 3740, Note_off_c, 0, 72, 100
2, 3744, Note_on_c, 0, 69, 80
2, 3788, Note_off_c, 0, 71, 100
2, 3792, Note_on_c, 0, 71, 80
2, 3836, Note_off_c, 0, 69, 100
2, 3840, Note_on_c, 0, 74, 80
2, 3884, Note_off_c, 0, 71, 100
2, 3980, Note_off_c, 0, 74, 100
2, 3984, Note_on_c, 0, 72, 80
2, 4028, Note_off_c, 0, 72, 100
2, 4032, Note_on_c, 0, 65, 80
2, 4796, Note_off_c, 0, 65, 100
2, 4800, Note_on_c, 0, 67, 80
2, 4820, Note_off_c, 0, 67, 100
2, 4822, Note_on_c, 0, 65, 80
2, 4892, Note_off_c, 0, 65, 100
2, 4896, Note_on_c, 0, 64, 80
2, 4988, Note_off_c, 0, 64, 100
2, 4992, Note_on_c, 0, 65, 80
2, 5084, Note_off_c, 0, 65, 100
2, 5088, Note_on_c, 0, 67, 80
2, 5180, Note_off_c, 0, 67, 100
2, 5184, Note_on_c, 0, 68, 80
2, 5852, Note_off_c, 0, 68, 100
2, 5856, Note_on_c, 0, 67, 80
2, 5948, Note_off_c, 0, 67, 100
2, 5952, Note_on_c, 0, 65, 80
2, 6044, Note_off_c, 0, 65, 100
2, 6048, Note_on_c, 0, 64, 80
2, 6140, Note_off_c, 0, 64, 100
2, 6144, Note_on_c, 0, 65, 80
2, 6236, Note_off_c, 0, 65, 100
2, 6240, Note_on_c, 0, 67, 80
2, 6332, Note_off_c, 0, 67, 100
2, 6336, Note_on_c, 0, 68, 80
2, 6428, Note_off_c, 0, 68, 100
2, 6432, Note_on_c, 0, 70, 80
2, 6524, Note_off_c, 0, 70, 100
2, 6528, Note_on_c, 0, 72, 80
2, 6620, Note_off_c, 0, 72, 100
2, 6624, Note_on_c, 0, 71, 80
2, 6716, Note_off_c, 0, 71, 100
2, 6720, Note_on_c, 0, 72, 80
2, 6812, Note_off_c, 0, 72, 100
2, 6816, Note_on_c, 0, 68, 80
2, 6908, Note_off_c, 0, 68, 100
2, 6912, Note_on_c, 0, 66, 80
2, 7484, Note_off_c, 0, 66, 100
2, 7488, Note_on_c, 0, 67, 80
2, 8156, Note_off_c, 0, 67, 100
2, 8160, Note_on_c, 0, 63, 80
2, 8252, Note_off_c, 0, 63, 100
2, 8256, Note_on_c, 0, 67, 83
2, 8348, Note_off_c, 0, 67, 100
2, 8352, Note_on_c, 0, 70, 87
2, 8444, Note_off_c, 0, 70, 100
2, 8448, Note_on_c, 0, 75, 91
2, 8540, Note_off_c, 0, 75, 100
2, 8544, Note_on_c, 0, 79, 95
2, 8636, Note_off_c, 0, 79, 100
2, 8640, Note_on_c, 0, 82, 99
2, 9404, Note_off_c, 0, 82, 100
2, 9408, Note_on_c, 0, 79, 90
2, 9596, Note_off_c, 0, 79, 100
2, 9600, Note_on_c, 0, 75, 90
2, 9788, Note_off_c, 0, 75, 100
2, 9792, Note_on_c, 0, 70, 90
2, 9980, Note_off_c, 0, 70, 100
2, 9984, Note_on_c, 0, 67, 90
2, 10172, Note_off_c, 0, 67, 100
2, 10176, Note_on_c, 0, 63, 90
2, 10364, Note_off_c, 0, 63, 100
2, 10368, Note_on_c, 0, 60, 90
2, 10940, Note_off_c, 0, 60, 100
2, 10944, Note_on_c, 0, 84, 106
2, 11708, Note_off_c, 0, 84, 100
2, 11712, Note_on_c, 0, 82, 90
2, 11804, Note_off_c, 0, 82, 100
2, 11808, Note_on_c, 0, 80, 90
2, 11900, Note_off_c, 0, 80, 100
2, 11904, Note_on_c, 0, 79, 90
2, 11996, Note_off_c, 0, 79, 100
2, 12000, Note_on_c, 0, 77, 90
2, 12092, Note_off_c, 0, 77, 100
2, 12096, Note_on_c, 0, 77, 90
2, 12284, Note_off_c, 0, 77, 100
2, 12288, Note_on_c, 0, 75, 90
2, 12860, Note_off_c, 0, 75, 100
2, 12864, Note_on_c, 0, 75, 90
2, 13052, Note_off_c, 0, 75, 100
2, 13056, Note_on_c, 0, 75, 90
2, 13244, Note_off_c, 0, 75, 100
2, 13248, Note_on_c, 0, 75, 90
2, 13272, Note_on_c, 0, 77, 90
2, 13292, Note_off_c, 0, 75, 100
2, 13296, Note_on_c, 0, 75, 90
2, 13316, Note_off_c, 0, 77, 100
2, 13320, Note_on_c, 0, 77, 90
2, 13340, Note_off_c, 0, 75, 100
2, 13344, Note_on_c, 0, 75, 90
2, 13364, Note_off_c, 0, 77, 100
2, 13368, Note_on_c, 0, 77, 90
2, 13388, Note_off_c, 0, 75, 100
2, 13392, Note_on_c, 0, 74, 90
2, 13412, Note_off_c, 0, 77, 100
2, 13416, Note_on_c, 0, 75, 90
2, 13436, Note_off_c, 0, 74, 100
2, 13440, Note_on_c, 0, 77, 90
2, 13460, Note_off_c, 0, 75, 100
2, 13628, Note_off_c, 0, 77, 100
2, 13632, Note_on_c, 0, 74, 90
2, 13820, Note_off_c, 0, 74, 100
2, 13824, Note_on_c, 0, 75, 90
2, 14012, Note_off_c, 0, 75, 100
2, 14016, Note_on_c, 0, 70, 80
2, 14204, Note_off_c, 0, 70, 100
2, 14208, Note_on_c, 0, 70, 80
2, 14396, Note_off_c, 0, 70, 100
2, 14400, Note_on_c, 0, 70, 80
2, 14588, Note_off_c, 0, 70, 100
2, 14592, Note_on_c, 0, 72, 80
2, 14780, Note_off_c, 0, 72, 100
2, 14784, Note_on_c, 0, 68, 80
2, 14972, Note_off_c, 0, 68, 100
2, 14976, Note_on_c, 0, 67, 80
2, 14976, Note_on_c, 0, 63, 80
2, 15164, Note_off_c, 0, 67, 100
2, 15168, Note_on_c, 0, 68, 80
2, 15356, Note_off_c, 0, 63, 100
2, 15356, Note_off_c, 0, 68, 100
2, 15360, Note_on_c, 0, 65, 80
2, 15360, Note_on_c, 0, 62, 80
2, 15548, Note_off_c, 0, 65, 100
2, 15548, Note_off_c, 0, 62, 100
2, 15552, Note_on_c, 0, 63, 80
2, 15740, Note_off_c, 0, 63, 100
2, 15744, Note_on_c, 0, 58, 80
2, 15932, Note_off_c, 0, 58, 100
2, 15936, Note_on_c, 0, 58, 80
2, 16124, Note_off_c, 0, 58, 100
2, 16128, Note_on_c, 0, 58, 80
2, 16152, Note_on_c, 0, 60, 80
2, 16172, Note_off_c, 0, 58, 100
2, 16176, Note_on_c, 0, 58, 80
2, 16196, Note_off_c, 0, 60, 100
2, 16200, Note_on_c, 0, 60, 80
2, 16220, Note_off_c, 0, 58, 100
2, 16224, Note_on_c, 0, 58, 80
2, 16244, Note_off_c, 0, 60, 100
2, 16248, Note_on_c, 0, 60, 80
2, 16268, Note_off_c, 0, 58, 100
2, 16272, Note_on_c, 0, 57, 80
2, 16292, Note_off_c, 0, 60, 100
2, 16296, Note_on_c, 0, 58, 80
2, 16316, Note_off_c, 0, 57, 100
2, 16320, Note_on_c, 0, 60, 80
2, 16340, Note_off_c, 0, 58, 100
2, 16508, Note_off_c, 0, 60, 100
2, 16512, Note_on_c, 0, 56, 80
2, 16700, Note_off_c, 0, 56, 100
2, 16704, Note_on_c, 0, 51, 80
2, 16704, Note_on_c, 0, 55, 80
2, 16728, Note_on_c, 0, 56, 80
2, 16748, Note_off_c, 0, 55, 100
2, 16752, Note_on_c, 0, 55, 80
2, 16772, Note_off_c, 0, 56, 100
2, 16776, Note_on_c, 0, 56, 80
2, 16796, Note_off_c, 0, 55, 100
2, 16800, Note_on_c, 0, 55, 80
2, 16820, Note_off_c, 0, 56, 100
2, 16824, Note_on_c, 0, 56, 80
2, 16844, Note_off_c, 0, 55, 100
2, 16848, Note_on_c, 0, 53, 80
2, 16868, Note_off_c, 0, 56, 100
2, 16872, Note_on_c, 0, 55, 80
2, 16892, Note_off_c, 0, 53, 100
2, 16896, Note_on_c, 0, 56, 80
2, 16916, Note_off_c, 0, 55, 100
2, 17084, Note_off_c, 0, 51, 100
2, 17084, Note_off_c, 0, 56, 100
2, 17088, Note_on_c, 0, 53, 80
2, 17088, Note_on_c, 0, 50, 80
2, 17276, Note_off_c, 0, 53, 100
2, 17276, Note_off_c, 0, 50, 100
2, 17280, Note_on_c, 0, 51, 80
2, 17660, Note_off_c, 0, 51, 100
2, 17664, Note_on_c, 0, 53, 90
2, 17664, Note_on_c, 0, 50, 90
2, 17852, Note_off_c, 0, 53, 100
2, 17852, Note_off_c, 0, 50, 100
2, 17856, Note_on_c, 0, 51, 80
2, 18236, Note_off_c, 0, 51, 100
2, 18240, Note_on_c, 0, 53, 90
2, 18240, Note_on_c, 0, 50, 90
2, 18428, Note_off_c, 0, 53, 100
2, 18428, Note_off_c, 0, 50, 100
2, 18432, Note_on_c, 0, 51, 80
2, 18812, Note_off_c, 0, 51, 100
2, 18816, Note_on_c, 0, 53, 90
2, 18816, Note_on_c, 0, 50, 90
2, 18816, Note_on_c, 0, 58, 90
2, 19004, Note_off_c, 0, 53, 100
2, 19004, Note_off_c, 0, 50, 100
2, 19004, Note_off_c, 0, 58, 100
2, 19008, Note_on_c, 0, 58, 80
2, 19008, Note_on_c, 0, 53, 80
2, 19008, Note_on_c, 0, 50, 80
2, 19580, Note_off_c, 0, 58, 100
2, 19580, Note_off_c, 0, 53, 100
2, 19580, Note_off_c, 0, 50, 100
2, 19584, Note_on_c, 0, 51, 71
2, 19964, Note_off_c, 0, 51, 100
2, 20160, Note_on_c, 0, 55, 80
2, 20348, Note_off_c, 0, 55, 100
2, 20352, Note_on_c, 0, 58, 80
2, 20540, Note_off_c, 0, 58, 100
2, 20544, Note_on_c, 0, 63, 80
2, 20732, Note_off_c, 0, 63, 100
2, 20736, Note_on_c, 0, 67, 80
2, 20736, Note_on_c, 0, 63, 80
2, 20736, Note_on_c, 0, 58, 80
2, 20736, Note_on_c, 0, 55, 80
2, 21500, Note_off_c, 0, 55, 100
2, 21500, Note_off_c, 0, 58, 100
2, 21500, Note_off_c, 0, 63, 100
2, 21500, Note_off_c, 0, 67, 100
2, 21504, Note_on_c, 0, 67, 80
2, 21504, Note_on_c, 0, 63, 80
2, 21504, Note_on_c, 0, 58, 80
2, 21692, Note_off_c, 0, 67, 100
2, 21692, Note_off_c, 0, 63, 100
2, 21692, Note_off_c, 0, 58, 100
2, 21696, Note_on_c, 0, 67, 80
2, 21696, Note_on_c, 0, 63, 80
2, 21884, Note_off_c, 0, 67, 100
2, 21884, Note_off_c, 0, 63, 100
2, 21888, Note_on_c, 0, 63, 80
2, 21888, Note_on_c, 0, 67, 80
2, 21912, Note_on_c, 0, 68, 80
2, 21932, Note_off_c, 0, 67, 100
2, 21936, Note_on_c, 0, 67, 80
2, 21956, Note_off_c, 0, 68, 100
2, 21960, Note_on_c, 0, 68, 80
2, 21980, Note_off_c, 0, 67, 100
2, 21984, Note_on_c, 0, 67, 80
2, 22004, Note_off_c, 0, 68, 100
2, 22008, Note_on_c, 0, 68, 80
2, 22028, Note_off_c, 0, 67, 100
2, 22032, Note_on_c, 0, 65, 80
2, 22052, Note_off_c, 0, 68, 100
2, 22056, Note_on_c, 0, 67, 80
2, 22076, Note_off_c, 0, 63, 100
2, 22076, Note_off_c, 0, 65, 100
2, 22080, Note_on_c, 0, 68, 80
2, 22080, Note_on_c, 0, 65, 80
2, 22100, Note_off_c, 0, 67, 100
2, 22268, Note_off_c, 0, 68, 100
2, 22268, Note_off_c, 0, 65, 100
2, 22272, Note_on_c, 0, 65, 80
2, 22272, Note_on_c, 0, 62, 80
2, 22272, Note_on_c, 0, 58, 80
2, 22460, Note_off_c, 0, 65, 100
2, 22460, Note_off_c, 0, 62, 100
2, 22460, Note_off_c, 0, 58, 100
2, 22464, Note_on_c, 0, 65, 80
2, 22464, Note_on_c, 0, 62, 80
2, 22464, Note_on_c, 0, 58, 80
2, 23036, Note_off_c, 0, 65, 100
2, 23036, Note_off_c, 0, 62, 100
2, 23036, Note_off_c, 0, 58, 100
2, 23040, Note_on_c, 0, 63, 80
2, 23040, Note_on_c, 0, 58, 80
2, 23420, Note_off_c, 0, 63, 100
2, 23420, Note_off_c, 0, 58, 100
2, 23616, Note_on_c, 0, 58, 80
2, 23616, Note_on_c, 0, 55, 80
2, 23804, Note_off_c, 0, 58, 100
2, 23804, Note_off_c, 0, 55, 100
2, 23808, Note_on_c, 0, 63, 80
2, 23808, Note_on_c, 0, 58, 80
2, 23996, Note_off_c, 0, 63, 100
2, 23996, Note_off_c, 0, 58, 100
2, 24000, Note_on_c, 0, 67, 80
2, 24000, Note_on_c, 0, 63, 80
2, 24188, Note_off_c, 0, 67, 100
2, 24188, Note_off_c, 0, 63, 100
2, 24192, Note_on_c, 0, 70, 80
2, 24192, Note_on_c, 0, 67, 80
2, 24960, Note_on_c, 0, 75, 80
2, 25148, Note_off_c, 0, 75, 100
2, 25152, Note_on_c, 0, 75, 85
2, 25340, Note_off_c, 0, 75, 100
2, 25344, Note_on_c, 0, 75, 91
2, 25532, Note_off_c, 0, 67, 100
2, 25532, Note_off_c, 0, 70, 100
2, 25532, Note_off_c, 0, 75, 100
2, 25536, Note_on_c, 0, 75, 97
2, 25536, Note_on_c, 0, 69, 97
2, 25536, Note_on_c, 0, 66, 97
2, 25724, Note_off_c, 0, 75, 100
2, 25724, Note_off_c, 0, 69, 100
2, 25724, Note_off_c, 0, 66, 100
2, 25728, Note_on_c, 0, 75, 103
2, 25728, Note_on_c, 0, 70, 103
2, 25728, Note_on_c, 0, 66, 103
2, 25916, Note_off_c, 0, 75, 100
2, 25916, Note_off_c, 0, 70, 100
2, 25916, Note_off_c, 0, 66, 100
2, 25920, Note_on_c, 0, 75, 109
2, 25920, Note_on_c, 0, 72, 109
2, 25920, Note_on_c, 0, 66, 109
2, 26300, Note_off_c, 0, 66, 100
2, 26304, Note_on_c, 0, 65, 80
2, 26492, Note_off_c, 0, 75, 100
2, 26492, Note_off_c, 0, 72, 100
2, 26492, Note_off_c, 0, 65, 100
2, 26688, Note_on_c, 0, 72, 80
2, 26688, Note_on_c, 0, 75, 80
2, 26688, Note_on_c, 0, 66, 80
2, 26876, Note_off_c, 0, 66, 100
2, 26880, Note_on_c, 0, 65, 80
2, 27068, Note_off_c, 0, 72, 100
2, 27068, Note_off_c, 0, 75, 100
2, 27068, Note_off_c, 0, 65, 100
2, 27264, Note_on_c, 0, 73, 80
2, 27264, Note_on_c, 0, 70, 80
2, 27264, Note_on_c, 0, 66, 80
2, 27452, Note_off_c, 0, 66, 100
2, 27456, Note_on_c, 0, 65, 80
2, 27644, Note_off_c, 0, 73, 100
2, 27644, Note_off_c, 0, 70, 100
2, 27644, Note_off_c, 0, 65, 100
2, 27840, Note_on_c, 0, 66, 79
2, 27840, Note_on_c, 0, 63, 79
2, 27840, Note_on_c, 0, 73, 79
2, 28028, Note_off_c, 0, 73, 100
2, 28032, Note_on_c, 0, 71, 78
2, 28220, Note_off_c, 0, 66, 100
2, 28220, Note_off_c, 0, 63, 100
2, 28220, Note_off_c, 0, 71, 100
2, 28416, Note_on_c, 0, 67, 76
2, 28416, Note_on_c, 0, 61, 76
2, 28416, Note_on_c, 0, 71, 76
2, 28604, Note_off_c, 0, 71, 100
2, 28608, Note_on_c, 0, 70, 74
2, 28796, Note_off_c, 0, 67, 100
2, 28796, Note_off_c, 0, 61, 100
2, 28796, Note_off_c, 0, 70, 100
2, 28992, Note_on_c, 0, 63, 72
2, 28992, Note_on_c, 0, 60, 72
2, 28992, Note_on_c, 0, 70, 72
2, 29180, Note_off_c, 0, 70, 100
2, 29184, Note_on_c, 0, 69, 71
2, 29372, Note_off_c, 0, 63, 100
2, 29372, Note_off_c, 0, 60, 100
2, 29372, Note_off_c, 0, 69, 100
2, 29376, Note_on_c, 0, 70, 70
2, 29376, Note_on_c, 0, 62, 70
2, 29756, Note_off_c, 0, 70, 100
2, 29756, Note_off_c, 0, 62, 100
2, 30528, Note_on_c, 0, 74, 80
2, 30908, Note_off_c, 0, 74, 100
2, 30912, Note_on_c, 0, 72, 80
2, 31004, Note_off_c, 0, 72, 100
2, 31008, Note_on_c, 0, 70, 80
2, 31100, Note_off_c, 0, 70, 100
2, 31104, Note_on_c, 0, 70, 80
2, 31104, Note_on_c, 0, 63, 80
2, 31104, Note_on_c, 0, 60, 80
2, 31292, Note_off_c, 0, 70, 100
2, 31296, Note_on_c, 0, 69, 80
2, 31484, Note_off_c, 0, 63, 100
2, 31484, Note_off_c, 0, 60, 100
2, 31484, Note_off_c, 0, 69, 100
2, 31488, Note_on_c, 0, 63, 80
2, 31488, Note_on_c, 0, 67, 80
2, 31580, Note_off_c, 0, 67, 100
2, 31584, Note_on_c, 0, 65, 80
2, 31676, Note_off_c, 0, 63, 100
2, 31676, Note_off_c, 0, 65, 100
2, 31680, Note_on_c, 0, 65, 80
2, 31680, Note_on_c, 0, 63, 80
2, 32444, Note_off_c, 0, 63, 100
2, 32444, Note_off_c, 0, 65, 100
2, 32448, Note_on_c, 0, 67, 80
2, 32636, Note_off_c, 0, 67, 100
2, 32640, Note_on_c, 0, 69, 80
2, 32828, Note_off_c, 0, 69, 100
2, 32832, Note_on_c, 0, 70, 80
2, 32924, Note_off_c, 0, 70, 100
2, 32928, Note_on_c, 0, 72, 80
2, 32956, Note_off_c, 0, 72, 100
2, 32960, Note_on_c, 0, 70, 80
2, 32988, Note_off_c, 0, 70, 100
2, 32992, Note_on_c, 0, 69, 80
2, 33020, Note_off_c, 0, 69, 100
2, 33024, Note_on_c, 0, 70, 80
2, 33116, Note_off_c, 0, 70, 100
2, 33120, Note_on_c, 0, 72, 80
2, 33212, Note_off_c, 0, 72, 100
2, 33216, Note_on_c, 0, 74, 80
2, 33308, Note_off_c, 0, 74, 100
2, 33312, Note_on_c, 0, 75, 80
2, 33404, Note_off_c, 0, 75, 100
2, 33408, Note_on_c, 0, 74, 80
2, 33428, Note_off_c, 0, 74, 100
2, 33430, Note_on_c, 0, 77, 80
2, 33980, Note_off_c, 0, 77, 100
2, 33984, Note_on_c, 0, 76, 80
2, 34076, Note_off_c, 0, 76, 100
2, 34080, Note_on_c, 0, 77, 80
2, 34172, Note_off_c, 0, 77, 100
2, 34176, Note_on_c, 0, 79, 80
2, 34268, Note_off_c, 0, 79, 100
2, 34272, Note_on_c, 0, 77, 80
2, 34364, Note_off_c, 0, 77, 100
2, 34368, Note_on_c, 0, 75, 80
2, 34460, Note_off_c, 0, 75, 100
2, 34464, Note_on_c, 0, 74, 80
2, 34556, Note_off_c, 0, 74, 100
2, 34560, Note_on_c, 0, 74, 80
2, 34560, Note_on_c, 0, 67, 80
2, 34560, Note_on_c, 0, 63, 80
2, 34748, Note_off_c, 0, 74, 100
2, 34752, Note_on_c, 0, 72, 80
2, 34940, Note_off_c, 0, 67, 100
2, 34940, Note_off_c, 0, 63, 100
2, 34940, Note_off_c, 0, 72, 100
2, 34944, Note_on_c, 0, 70, 80
2, 34944, Note_on_c, 0, 65, 80
2, 34944, Note_on_c, 0, 62, 80
2, 35036, Note_off_c, 0, 70, 100
2, 35036, Note_off_c, 0, 65, 100
2, 35036, Note_off_c, 0, 62, 100
2, 35040, Note_on_c, 0, 69, 80
2, 35040, Note_on_c, 0, 63, 80
2, 35040, Note_on_c, 0, 60, 80
2, 35132, Note_off_c, 0, 69, 100
2, 35132, Note_off_c, 0, 63, 100
2, 35132, Note_off_c, 0, 60, 100
2, 35136, Note_on_c, 0, 69, 80
2, 35136, Note_on_c, 0, 63, 80
2, 35136, Note_on_c, 0, 60, 80
2, 35516, Note_off_c, 0, 69, 100
2, 35516, Note_off_c, 0, 63, 100
2, 35516, Note_off_c, 0, 60, 100
2, 35520, Note_on_c, 0, 67, 80
2, 35520, Note_on_c, 0, 63, 80
2, 35612, Note_off_c, 0, 67, 100
2, 35616, Note_on_c, 0, 65, 80
2, 35708, Note_off_c, 0, 63, 100
2, 35708, Note_off_c, 0, 65, 100
2, 35712, Note_on_c, 0, 63, 80
2, 35712, Note_on_c, 0, 65, 80
2, 35900, Note_off_c, 0, 65, 100
2, 35904, Note_on_c, 0, 67, 80
2, 36092, Note_off_c, 0, 67, 100
2, 36096, Note_on_c, 0, 69, 80
2, 36284, Note_off_c, 0, 63, 100
2, 36284, Note_off_c, 0, 69, 100
2, 36288, Note_on_c, 0, 70, 80
2, 36288, Note_on_c, 0, 62, 80
2, 36476, Note_off_c, 0, 70, 100
2, 36476, Note_off_c, 0, 62, 100
2, 36480, Note_on_c, 0, 73, 80
2, 36668, Note_off_c, 0, 73, 100
2, 36672, Note_on_c, 0, 74, 80
2, 36860, Note_off_c, 0, 74, 100
2, 37056, Note_on_c, 0, 76, 80
2, 37244, Note_off_c, 0, 76, 100
2, 37248, Note_on_c, 0, 77, 80
2, 37436, Note_off_c, 0, 77, 100
2, 37632, Note_on_c, 0, 81, 80
2, 37820, Note_off_c, 0, 81, 100
2, 37824, Note_on_c, 0, 82, 80
2, 38012, Note_off_c, 0, 82, 100
2, 38208, Note_on_c, 0, 78, 80
2, 38396, Note_off_c, 0, 78, 100
2, 38400, Note_on_c, 0, 79, 80
2, 38588, Note_off_c, 0, 79, 100
2, 38784, Note_on_c, 0, 74, 80
2, 38972, Note_off_c, 0, 74, 100
2, 38976, Note_on_c, 0, 75, 80
2, 39164, Note_off_c, 0, 75, 100
2, 39360, Note_on_c, 0, 71, 80
2, 39548, Note_off_c, 0, 71, 100
2, 39552, Note_on_c, 0, 72, 80
2, 39740, Note_off_c, 0, 72, 100
2, 39936, Note_on_c, 0, 77, 80
2, 40412, Note_off_c, 0, 77, 100
2, 40416, Note_on_c, 0, 79, 80
2, 40464, Note_on_c, 0, 81, 83
2, 40508, Note_off_c, 0, 79, 100
2, 40512, Note_on_c, 0, 82, 86
2, 40556, Note_off_c, 0, 81, 100
2, 40560, Note_on_c, 0, 84, 90
2, 40604, Note_off_c, 0, 82, 100
2, 40608, Note_on_c, 0, 86, 93
2, 40652, Note_off_c, 0, 84, 100
2, 40656, Note_on_c, 0, 87, 96
2, 40700, Note_off_c, 0, 86, 100
2, 40704, Note_on_c, 0, 89, 114
2, 40748, Note_off_c, 0, 87, 100
2, 41084, Note_off_c, 0, 89, 100
2, 41088, Note_on_c, 0, 87, 100
2, 41276, Note_off_c, 0, 87, 100
2, 41280, Note_on_c, 0, 84, 100
2, 41468, Note_off_c, 0, 84, 100
2, 41472, Note_on_c, 0, 82, 80
2, 41712, Note_on_c, 0, 81, 80
2, 41756, Note_off_c, 0, 82, 100
2, 41760, Note_on_c, 0, 86, 80
2, 41804, Note_off_c, 0, 81, 100
2, 41808, Note_on_c, 0, 84, 80
2, 41852, Note_off_c, 0, 86, 100
2, 41856, Note_on_c, 0, 82, 80
2, 41900, Note_off_c, 0, 84, 100
2, 41904, Note_on_c, 0, 81, 80
2, 41948, Note_off_c, 0, 82, 100
2, 41952, Note_on_c, 0, 79, 80
2, 41996, Note_off_c, 0, 81, 100
2, 42000, Note_on_c, 0, 77, 80
2, 42044, Note_off_c, 0, 79, 100
2, 42048, Note_on_c, 0, 76, 80
2, 42092, Note_off_c, 0, 77, 100
2, 42096, Note_on_c, 0, 77, 80
2, 42140, Note_off_c, 0, 76, 100
2, 42144, Note_on_c, 0, 82, 80
2, 42188, Note_off_c, 0, 77, 100
2, 42192, Note_on_c, 0, 81, 80
2, 42236, Note_off_c, 0, 82, 100
2, 42240, Note_on_c, 0, 79, 80
2, 42284, Note_off_c, 0, 81, 100
2, 42288, Note_on_c, 0, 77, 80
2, 42332, Note_off_c, 0, 79, 100
2, 42336, Note_on_c, 0, 75, 80
2, 42380, Note_off_c, 0, 77, 100
2, 42384, Note_on_c, 0, 74, 80
2, 42428, Note_off_c, 0, 75, 100
2, 42432, Note_on_c, 0, 73, 80
2, 42476, Note_off_c, 0, 74, 100
2, 42480, Note_on_c, 0, 74, 80
2, 42524, Note_off_c, 0, 73, 100
2, 42528, Note_on_c, 0, 79, 80
2, 42572, Note_off_c, 0, 74, 100
2, 42576, Note_on_c, 0, 77, 80
2, 42620, Note_off_c, 0, 79, 100
2, 42624, Note_on_c, 0, 75, 80
2, 42668, Note_off_c, 0, 77, 100
2, 42672, Note_on_c, 0, 74, 80
2, 42716, Note_off_c, 0, 75, 100
2, 42720, Note_on_c, 0, 72, 80
2, 42764, Note_off_c, 0, 74, 100
2, 42768, Note_on_c, 0, 70, 80
2, 42812, Note_off_c, 0, 72, 100
2, 42816, Note_on_c, 0, 69, 80
2, 42860, Note_off_c, 0, 70, 100
2, 42864, Note_on_c, 0, 70, 80
2, 42908, Note_off_c, 0, 69, 100
2, 42912, Note_on_c, 0, 75, 80
2, 42956, Note_off_c, 0, 70, 100
2, 42960, Note_on_c, 0, 74, 80
2, 43004, Note_off_c, 0, 75, 100
2, 43008, Note_on_c, 0, 72, 80
2, 43052, Note_off_c, 0, 74, 100
2, 43056, Note_on_c, 0, 70, 80
2, 43100, Note_off_c, 0, 72, 100
2, 43104, Note_on_c, 0, 69, 80
2, 43148, Note_off_c, 0, 70, 100
2, 43152, Note_on_c, 0, 67, 80
2, 43196, Note_off_c, 0, 69, 100
2, 43200, Note_on_c, 0, 64, 80
2, 43244, Note_off_c, 0, 67, 100
2, 43248, Note_on_c, 0, 65, 81
2, 43292, Note_off_c, 0, 64, 100
2, 43296, Note_on_c, 0, 66, 82
2, 43340, Note_off_c, 0, 65, 100
2, 43344, Note_on_c, 0, 67, 83
2, 43388, Note_off_c, 0, 66, 100
2, 43392, Note_on_c, 0, 68, 84
2, 43436, Note_off_c, 0, 67, 100
2, 43440, Note_on_c, 0, 69, 86
2, 43484, Note_off_c, 0, 68, 100
2, 43488, Note_on_c, 0, 70, 87
2, 43532, Note_off_c, 0, 69, 100
2, 43536, Note_on_c, 0, 71, 88
2, 43580, Note_off_c, 0, 70, 100
2, 43584, Note_on_c, 0, 72, 89
2, 43628, Note_off_c, 0, 71, 100
2, 43632, Note_on_c, 0, 73, 91
2, 43676, Note_off_c, 0, 72, 100
2, 43680, Note_on_c, 0, 74, 92
2, 43724, Note_off_c, 0, 73, 100
2, 43728, Note_on_c, 0, 75, 93
2, 43772, Note_off_c, 0, 74, 100
2, 43776, Note_on_c, 0, 76, 94
2, 43820, Note_off_c, 0, 75, 100
2, 43824, Note_on_c, 0, 77, 96
2, 43868, Note_off_c, 0, 76, 100
2, 43872, Note_on_c, 0, 78, 97
2, 43916, Note_off_c, 0, 77, 100
2, 43920, Note_on_c, 0, 79, 98
2, 43964, Note_off_c, 0, 78, 100
2, 43968, Note_on_c, 0, 80, 99
2, 44012, Note_off_c, 0, 79, 100
2, 44016, Note_on_c, 0, 81, 101
2, 44060, Note_off_c, 0, 80, 100
2, 44064, Note_on_c, 0, 82, 102
2, 44108, Note_off_c, 0, 81, 100
2, 44112, Note_on_c, 0, 83, 103
2, 44156, Note_off_c, 0, 82, 100
2, 44160, Note_on_c, 0, 84, 104
2, 44196, Note_on_c, 0, 85, 105
2, 44204, Note_off_c, 0, 83, 100
2, 44234, Note_on_c, 0, 86, 106
2, 44252, Note_off_c, 0, 84, 100
2, 44272, Note_on_c, 0, 87, 107
2, 44288, Note_off_c, 0, 85, 100
2, 44308, Note_on_c, 0, 88, 108
2, 44326, Note_off_c, 0, 86, 100
2, 44352, Note_on_c, 0, 89, 123
2, 44364, Note_off_c, 0, 87, 100
2, 44400, Note_off_c, 0, 88, 100
2, 44592, Note_on_c, 0, 87, 110
2, 44636, Note_off_c, 0, 89, 100
2, 44640, Note_on_c, 0, 84, 108
2, 44684, Note_off_c, 0, 87, 100
2, 44688, Note_on_c, 0, 81, 105
2, 44732, Note_off_c, 0, 84, 100
2, 44736, Note_on_c, 0, 77, 102
2, 44780, Note_off_c, 0, 81, 100
2, 44784, Note_on_c, 0, 75, 99
2, 44828, Note_off_c, 0, 77, 100
2, 44832, Note_on_c, 0, 72, 96
2, 44876, Note_off_c, 0, 75, 100
2, 44880, Note_on_c, 0, 69, 93
2, 44924, Note_off_c, 0, 72, 100
2, 44928, Note_on_c, 0, 70, 91
2, 44972, Note_off_c, 0, 69, 100
2, 45308, Note_off_c, 0, 70, 100
2, 45888, Note_on_c, 0, 73, 80
2, 45888, Note_on_c, 0, 70, 80
2, 46272, Note_on_c, 0, 74, 80
2, 46460, Note_off_c, 0, 70, 100
2, 46460, Note_off_c, 0, 73, 100
2, 46460, Note_off_c, 0, 74, 100
2, 46464, Note_on_c, 0, 69, 80
2, 46464, Note_on_c, 0, 75, 80
2, 46604, Note_off_c, 0, 75, 100
2, 46608, Note_on_c, 0, 72, 80
2, 46652, Note_off_c, 0, 69, 100
2, 46652, Note_off_c, 0, 72, 100
2, 46656, Note_on_c, 0, 62, 80
2, 46656, Note_on_c, 0, 70, 80
2, 47036, Note_off_c, 0, 62, 100
2, 47036, Note_off_c, 0, 70, 100
2, 47616, Note_on_c, 0, 61, 80
2, 47616, Note_on_c, 0, 58, 80
2, 48000, Note_on_c, 0, 62, 80
2, 48188, Note_off_c, 0, 58, 100
2, 48188, Note_off_c, 0, 61, 100
2, 48188, Note_off_c, 0, 62, 100
2, 48192, Note_on_c, 0, 57, 80
2, 48192, Note_on_c, 0, 63, 80
2, 48332, Note_off_c, 0, 63, 100
2, 48336, Note_on_c, 0, 60, 80
2, 48380, Note_off_c, 0, 57, 100
2, 48380, Note_off_c, 0, 60, 100
2, 48384, Note_on_c, 0, 58, 80
2, 48572, Note_off_c, 0, 58, 100
2, 48576, Note_on_c, 0, 63, 80
2, 48576, Note_on_c, 0, 57, 80
2, 48860, Note_off_c, 0, 63, 100
2, 48864, Note_on_c, 0, 60, 80
2, 48956, Note_off_c, 0, 57, 100
2, 48956, Note_off_c, 0, 60, 100
2, 48960, Note_on_c, 0, 58, 80
2, 49148, Note_off_c, 0, 58, 100
2, 49152, Note_on_c, 0, 63, 80
2, 49152, Note_on_c, 0, 57, 80
2, 49436, Note_off_c, 0, 63, 100
2, 49440, Note_on_c, 0, 60, 80
2, 49532, Note_off_c, 0, 57, 100
2, 49532, Note_off_c, 0, 60, 100
2, 49536, Note_on_c, 0, 58, 80
2, 49724, Note_off_c, 0, 58, 100
2, 49728, Note_on_c, 0, 57, 80
2, 49728, Note_on_c, 0, 63, 80
2, 49820, Note_off_c, 0, 63, 100
2, 49824, Note_on_c, 0, 62, 80
2, 49916, Note_off_c, 0, 57, 100
2, 49916, Note_off_c, 0, 62, 100
2, 49920, Note_on_c, 0, 57, 80
2, 49920, Note_on_c, 0, 63, 80
2, 50012, Note_off_c, 0, 63, 100
2, 50016, Note_on_c, 0, 60, 80
2, 50108, Note_off_c, 0, 57, 100
2, 50108, Note_off_c, 0, 60, 100
2, 50112, Note_on_c, 0, 59, 80
2, 50144, Note_on_c, 0, 60, 80
2, 50172, Note_off_c, 0, 59, 100
2, 50176, Note_on_c, 0, 62, 80
2, 50204, Note_off_c, 0, 60, 100
2, 50208, Note_on_c, 0, 60, 80
2, 50208, Note_on_c, 0, 57, 80
2, 50236, Note_off_c, 0, 62, 100
2, 50684, Note_off_c, 0, 60, 100
2, 50684, Note_off_c, 0, 57, 100
2, 50688, Note_on_c, 0, 58, 80
2, 51068, Note_off_c, 0, 58, 100
2, 52992, Note_on_c, 0, 59, 80
2, 53180, Note_off_c, 0, 59, 100
2, 53184, Note_on_c, 0, 60, 80
2, 53204, Note_off_c, 0, 60, 100
2, 53206, Note_on_c, 0, 59, 80
2, 53278, Note_off_c, 0, 59, 100
2, 53280, Note_on_c, 0, 57, 80
2, 53372, Note_off_c, 0, 57, 100
2, 53376, Note_on_c, 0, 59, 80
2, 53468, Note_off_c, 0, 59, 100
2, 53472, Note_on_c, 0, 60, 80
2, 53564, Note_off_c, 0, 60, 100
2, 53568, Note_on_c, 0, 61, 80
2, 53568, Note_on_c, 0, 59, 80
2, 53568, Note_on_c, 0, 56, 80
2, 53568, Note_on_c, 0, 53, 80
2, 54140, Note_off_c, 0, 61, 100
2, 54144, Note_on_c, 0, 62, 80
2, 54524, Note_off_c, 0, 53, 100
2, 54524, Note_off_c, 0, 56, 100
2, 54524, Note_off_c, 0, 59, 100
2, 54524, Note_off_c, 0, 62, 100
2, 54912, Note_on_c, 0, 63, 80
2, 54932, Note_off_c, 0, 63, 100
2, 54934, Note_on_c, 0, 62, 80
2, 55006, Note_off_c, 0, 62, 100
2, 55008, Note_on_c, 0, 61, 80
2, 55100, Note_off_c, 0, 61, 100
2, 55104, Note_on_c, 0, 62, 80
2, 55196, Note_off_c, 0, 62, 100
2, 55200, Note_on_c, 0, 63, 80
2, 55292, Note_off_c, 0, 63, 100
2, 55296, Note_on_c, 0, 64, 80
2, 55296, Note_on_c, 0, 56, 80
2, 55296, Note_on_c, 0, 62, 80
2, 55296, Note_on_c, 0, 59, 80
2, 55868, Note_off_c, 0, 64, 100
2, 55868, Note_off_c, 0, 56, 100
2, 55872, Note_on_c, 0, 65, 80
2, 55872, Note_on_c, 0, 55, 80
2, 56252, Note_off_c, 0, 59, 100
2, 56252, Note_off_c, 0, 62, 100
2, 56252, Note_off_c, 0, 65, 100
2, 56252, Note_off_c, 0, 55, 100
2, 56640, Note_on_c, 0, 72, 80
2, 56640, Note_on_c, 0, 60, 80
2, 56660, Note_off_c, 0, 72, 100
2, 56660, Note_off_c, 0, 60, 100
2, 56662, Note_on_c, 0, 59, 81
2, 56662, Note_on_c, 0, 71, 81
2, 56734, Note_off_c, 0, 59, 100
2, 56734, Note_off_c, 0, 71, 100
2, 56736, Note_on_c, 0, 69, 84
2, 56736, Note_on_c, 0, 57, 84
2, 56828, Note_off_c, 0, 69, 100
2, 56828, Note_off_c, 0, 57, 100
2, 56832, Note_on_c, 0, 71, 89
2, 56832, Note_on_c, 0, 59, 89
2, 56924, Note_off_c, 0, 71, 100
2, 56924, Note_off_c, 0, 59, 100
2, 56928, Note_on_c, 0, 72, 94
2, 56928, Note_on_c, 0, 60, 94
2, 57020, Note_off_c, 0, 72, 100
2, 57020, Note_off_c, 0, 60, 100
2, 57024, Note_on_c, 0, 73, 99
2, 57024, Note_on_c, 0, 61, 99
2, 57596, Note_off_c, 0, 73, 100
2, 57596, Note_off_c, 0, 61, 100
2, 57600, Note_on_c, 0, 74, 80
2, 57600, Note_on_c, 0, 62, 80
2, 57788, Note_off_c, 0, 74, 100
2, 57788, Note_off_c, 0, 62, 100
2, 57792, Note_on_c, 0, 75, 80
2, 57812, Note_off_c, 0, 75, 100
2, 57814, Note_on_c, 0, 74, 80
2, 57886, Note_off_c, 0, 74, 100
2, 57888, Note_on_c, 0, 73, 80
2, 57980, Note_off_c, 0, 73, 100
2, 57984, Note_on_c, 0, 74, 80
2, 58076, Note_off_c, 0, 74, 100
2, 58080, Note_on_c, 0, 75, 80
2, 58172, Note_off_c, 0, 75, 100
2, 58176, Note_on_c, 0, 77, 80
2, 58268, Note_off_c, 0, 77, 100
2, 58272, Note_on_c, 0, 79, 80
2, 58364, Note_off_c, 0, 79, 100
2, 58368, Note_on_c, 0, 80, 80
2, 58460, Note_off_c, 0, 80, 100
2, 58464, Note_on_c, 0, 79, 80
2, 58556, Note_off_c, 0, 79, 100
2, 58560, Note_on_c, 0, 80, 80
2, 58652, Note_off_c, 0, 80, 100
2, 58656, Note_on_c, 0, 77, 80
2, 58748, Note_off_c, 0, 77, 100
2, 58752, Note_on_c, 0, 77, 80
2, 59324, Note_off_c, 0, 77, 100
2, 59328, Note_on_c, 0, 76, 80
2, 59328, Note_on_c, 0, 67, 80
2, 59516, Note_off_c, 0, 67, 100
2, 59520, Note_on_c, 0, 68, 80
2, 59540, Note_off_c, 0, 68, 100
2, 59542, Note_on_c, 0, 67, 80
2, 59614, Note_off_c, 0, 67, 100
2, 59616, Note_on_c, 0, 66, 80
2, 59708, Note_off_c, 0, 76, 100
2, 59708, Note_off_c, 0, 66, 100
2, 59712, Note_on_c, 0, 67, 80
2, 59804, Note_off_c, 0, 67, 100
2, 59808, Note_on_c, 0, 69, 80
2, 59900, Note_off_c, 0, 69, 100
2, 59904, Note_on_c, 0, 70, 80
2, 59996, Note_off_c, 0, 70, 100
2, 60000, Note_on_c, 0, 72, 80
2, 60092, Note_off_c, 0, 72, 100
2, 60096, Note_on_c, 0, 73, 80
2, 60188, Note_off_c, 0, 73, 100
2, 60192, Note_on_c, 0, 72, 80
2, 60284, Note_off_c, 0, 72, 100
2, 60288, Note_on_c, 0, 73, 80
2, 60380, Note_off_c, 0, 73, 100
2, 60384, Note_on_c, 0, 70, 80
2, 60476, Note_off_c, 0, 70, 100
2, 60480, Note_on_c, 0, 70, 80
2, 61052, Note_off_c, 0, 70, 100
2, 61056, Note_on_c, 0, 69, 80
2, 61056, Note_on_c, 0, 72, 80
2, 61244, Note_off_c, 0, 72, 100
2, 61248, Note_on_c, 0, 73, 80
2, 61268, Note_off_c, 0, 73, 100
2, 61270, Note_on_c, 0, 72, 80
2, 61342, Note_off_c, 0, 72, 100
2, 61344, Note_on_c, 0, 71, 80
2, 61436, Note_off_c, 0, 69, 100
2, 61436, Note_off_c, 0, 71, 100
2, 61440, Note_on_c, 0, 72, 80
2, 61532, Note_off_c, 0, 72, 100
2, 61536, Note_on_c, 0, 74, 80
2, 61628, Note_off_c, 0, 74, 100
2, 61632, Note_on_c, 0, 75, 80
2, 61724, Note_off_c, 0, 75, 100
2, 61728, Note_on_c, 0, 77, 80
2, 61820, Note_off_c, 0, 77, 100
2, 61824, Note_on_c, 0, 78, 80
2, 61916, Note_off_c, 0, 78, 100
2, 61920, Note_on_c, 0, 77, 80
2, 62012, Note_off_c, 0, 77, 100
2, 62016, Note_on_c, 0, 78, 80
2, 62108, Note_off_c, 0, 78, 100
2, 62112, Note_on_c, 0, 75, 80
2, 62204, Note_off_c, 0, 75, 100
2, 62208, Note_on_c, 0, 75, 80
2, 62780, Note_off_c, 0, 75, 100
2, 62784, Note_on_c, 0, 74, 80
2, 62784, Note_on_c, 0, 65, 80
2, 62972, Note_off_c, 0, 65, 100
2, 62976, Note_on_c, 0, 66, 80
2, 62996, Note_off_c, 0, 66, 100
2, 62998, Note_on_c, 0, 65, 80
2, 63070, Note_off_c, 0, 65, 100
2, 63072, Note_on_c, 0, 64, 80
2, 63164, Note_off_c, 0, 74, 100
2, 63164, Note_off_c, 0, 64, 100
2, 63168, Note_on_c, 0, 65, 80
2, 63260, Note_off_c, 0, 65, 100
2, 63264, Note_on_c, 0, 67, 80
2, 63356, Note_off_c, 0, 67, 100
2, 63360, Note_on_c, 0, 68, 80
2, 63452, Note_off_c, 0, 68, 100
2, 63456, Note_on_c, 0, 70, 80
2, 63548, Note_off_c, 0, 70, 100
2, 63552, Note_on_c, 0, 71, 80
2, 63644, Note_off_c, 0, 71, 100
2, 63648, Note_on_c, 0, 70, 80
2, 63740, Note_off_c, 0, 70, 100
2, 63744, Note_on_c, 0, 71, 80
2, 63836, Note_off_c, 0, 71, 100
2, 63840, Note_on_c, 0, 68, 80
2, 63932, Note_off_c, 0, 68, 100
2, 63936, Note_on_c, 0, 68, 80
2, 64508, Note_off_c, 0, 68, 100
2, 64512, Note_on_c, 0, 70, 80
2, 64512, Note_on_c, 0, 67, 80
2, 64700, Note_off_c, 0, 70, 100
2, 64704, Note_on_c, 0, 71, 80
2, 64724, Note_off_c, 0, 71, 100
2, 64726, Note_on_c, 0, 70, 80
2, 64798, Note_off_c, 0, 70, 100
2, 64800, Note_on_c, 0, 69, 80
2, 64892, Note_off_c, 0, 69, 100
2, 64896, Note_on_c, 0, 70, 80
2, 64988, Note_off_c, 0, 70, 100
2, 64992, Note_on_c, 0, 71, 80
2, 65084, Note_off_c, 0, 71, 100
2, 65088, Note_on_c, 0, 73, 80
2, 65180, Note_off_c, 0, 73, 100
2, 65184, Note_on_c, 0, 75, 80
2, 65276, Note_off_c, 0, 67, 100
2, 65276, Note_off_c, 0, 75, 100
2, 65280, Note_on_c, 0, 67, 80
2, 65280, Note_on_c, 0, 76, 80
2, 65372, Note_off_c, 0, 76, 100
2, 65376, Note_on_c, 0, 75, 80
2, 65468, Note_off_c, 0, 67, 100
2, 65468, Note_off_c, 0, 75, 100
2, 65472, Note_on_c, 0, 67, 80
2, 65472, Note_on_c, 0, 76, 80
2, 65564, Note_off_c, 0, 76, 100
2, 65568, Note_on_c, 0, 73, 80
2, 65660, Note_off_c, 0, 67, 100
2, 65660, Note_off_c, 0, 73, 100
2, 65664, Note_on_c, 0, 68, 80
2, 65664, Note_on_c, 0, 71, 80
2, 65756, Note_off_c, 0, 71, 100
2, 65760, Note_on_c, 0, 73, 80
2, 65852, Note_off_c, 0, 73, 100
2, 65856, Note_on_c, 0, 75, 80
2, 65948, Note_off_c, 0, 75, 100
2, 65952, Note_on_c, 0, 73, 80
2, 66044, Note_off_c, 0, 68, 100
2, 66044, Note_off_c, 0, 73, 100
2, 66048, Note_on_c, 0, 75, 80
2, 66140, Note_off_c, 0, 75, 100
2, 66144, Note_on_c, 0, 71, 80
2, 66236, Note_off_c, 0, 71, 100
2, 66240, Note_on_c, 0, 70, 80
2, 66332, Note_off_c, 0, 70, 100
2, 66336, Note_on_c, 0, 71, 80
2, 66428, Note_off_c, 0, 71, 100
2, 66432, Note_on_c, 0, 73, 80
2, 66524, Note_off_c, 0, 73, 100
2, 66528, Note_on_c, 0, 71, 80
2, 66620, Note_off_c, 0, 71, 100
2, 66624, Note_on_c, 0, 73, 80
2, 66716, Note_off_c, 0, 73, 100
2, 66720, Note_on_c, 0, 70, 80
2, 66812, Note_off_c, 0, 70, 100
2, 66816, Note_on_c, 0, 68, 80
2, 66908, Note_off_c, 0, 68, 100
2, 66912, Note_on_c, 0, 70, 80
2, 67004, Note_off_c, 0, 70, 100
2, 67008, Note_on_c, 0, 71, 80
2, 67008, Note_on_c, 0, 75, 80
2, 67100, Note_off_c, 0, 71, 100
2, 67104, Note_on_c, 0, 70, 80
2, 67196, Note_off_c, 0, 75, 100
2, 67196, Note_off_c, 0, 70, 100
2, 67200, Note_on_c, 0, 71, 80
2, 67200, Note_on_c, 0, 75, 80
2, 67292, Note_off_c, 0, 71, 100
2, 67296, Note_on_c, 0, 68, 80
2, 67388, Note_off_c, 0, 75, 100
2, 67388, Note_off_c, 0, 68, 100
2, 67392, Note_on_c, 0, 76, 80
2, 67392, Note_on_c, 0, 67, 80
2, 67484, Note_off_c, 0, 67, 100
2, 67488, Note_on_c, 0, 68, 80
2, 67580, Note_off_c, 0, 68, 100
2, 67584, Note_on_c, 0, 70, 80
2, 67676, Note_off_c, 0, 70, 100
2, 67680, Note_on_c, 0, 68, 80
2, 67772, Note_off_c, 0, 76, 100
2, 67772, Note_off_c, 0, 68, 100
2, 67776, Note_on_c, 0, 75, 80
2, 67776, Note_on_c, 0, 70, 80
2, 67868, Note_off_c, 0, 70, 100
2, 67872, Note_on_c, 0, 67, 80
2, 67964, Note_off_c, 0, 75, 100
2, 67964, Note_off_c, 0, 67, 100
2, 67968, Note_on_c, 0, 68, 80
2, 68060, Note_off_c, 0, 68, 100
2, 68064, Note_on_c, 0, 70, 80
2, 68156, Note_off_c, 0, 70, 100
2, 68160, Note_on_c, 0, 71, 80
2, 68252, Note_off_c, 0, 71, 100
2, 68256, Note_on_c, 0, 70, 80
2, 68348, Note_off_c, 0, 70, 100
2, 68352, Note_on_c, 0, 71, 80
2, 68444, Note_off_c, 0, 71, 100
2, 68448, Note_on_c, 0, 68, 80
2, 68540, Note_off_c, 0, 68, 100
2, 68544, Note_on_c, 0, 65, 80
2, 68636, Note_off_c, 0, 65, 100
2, 68640, Note_on_c, 0, 66, 80
2, 68732, Note_off_c, 0, 66, 100
2, 68736, Note_on_c, 0, 74, 80
2, 68736, Note_on_c, 0, 68, 80
2, 68828, Note_off_c, 0, 68, 100
2, 68832, Note_on_c, 0, 66, 80
2, 68924, Note_off_c, 0, 74, 100
2, 68924, Note_off_c, 0, 66, 100
2, 68928, Note_on_c, 0, 74, 80
2, 68928, Note_on_c, 0, 68, 80
2, 69020, Note_off_c, 0, 68, 100
2, 69024, Note_on_c, 0, 65, 80
2, 69116, Note_off_c, 0, 74, 100
2, 69116, Note_off_c, 0, 65, 100
2, 69120, Note_on_c, 0, 75, 80
2, 69120, Note_on_c, 0, 63, 80
2, 69212, Note_off_c, 0, 63, 100
2, 69216, Note_on_c, 0, 65, 80
2, 69308, Note_off_c, 0, 65, 100
2, 69312, Note_on_c, 0, 66, 80
2, 69404, Note_off_c, 0, 66, 100
2, 69408, Note_on_c, 0, 65, 80
2, 69500, Note_off_c, 0, 75, 100
2, 69500, Note_off_c, 0, 65, 100
2, 69504, Note_on_c, 0, 70, 80
2, 69504, Note_on_c, 0, 66, 80
2, 69596, Note_off_c, 0, 66, 100
2, 69600, Note_on_c, 0, 63, 80
2, 69692, Note_off_c, 0, 70, 100
2, 69692, Note_off_c, 0, 63, 100
2, 69696, Note_on_c, 0, 62, 80
2, 69788, Note_off_c, 0, 62, 100
2, 69792, Note_on_c, 0, 63, 80
2, 69884, Note_off_c, 0, 63, 100
2, 69888, Note_on_c, 0, 65, 80
2, 69980, Note_off_c, 0, 65, 100
2, 69984, Note_on_c, 0, 63, 80
2, 70076, Note_off_c, 0, 63, 100
2, 70080, Note_on_c, 0, 65, 80
2, 70172, Note_off_c, 0, 65, 100
2, 70176, Note_on_c, 0, 62, 80
2, 70268, Note_off_c, 0, 62, 100
2, 70272, Note_on_c, 0, 63, 80
2, 70364, Note_off_c, 0, 63, 100
2, 70368, Note_on_c, 0, 65, 80
2, 70460, Note_off_c, 0, 65, 100
2, 70464, Note_on_c, 0, 70, 80
2, 70464, Note_on_c, 0, 66, 80
2, 70556, Note_off_c, 0, 66, 100
2, 70560, Note_on_c, 0, 65, 80
2, 70652, Note_off_c, 0, 70, 100
2, 70652, Note_off_c, 0, 65, 100
2, 70656, Note_on_c, 0, 70, 80
2, 70656, Note_on_c, 0, 66, 80
2, 70748, Note_off_c, 0, 66, 100
2, 70752, Note_on_c, 0, 63, 80
2, 70844, Note_off_c, 0, 70, 100
2, 70844, Note_off_c, 0, 63, 100
2, 70848, Note_on_c, 0, 71, 80
2, 70848, Note_on_c, 0, 65, 80
2, 70940, Note_off_c, 0, 65, 100
2, 70944, Note_on_c, 0, 66, 80
2, 71036, Note_off_c, 0, 66, 100
2, 71040, Note_on_c, 0, 68, 80
2, 71132, Note_off_c, 0, 68, 100
2, 71136, Note_on_c, 0, 66, 80
2, 71228, Note_off_c, 0, 71, 100
2, 71228, Note_off_c, 0, 66, 100
2, 71232, Note_on_c, 0, 70, 80
2, 71232, Note_on_c, 0, 68, 80
2, 71324, Note_off_c, 0, 68, 100
2, 71328, Note_on_c, 0, 65, 80
2, 71420, Note_off_c, 0, 70, 100
2, 71420, Note_off_c, 0, 65, 100
2, 71424, Note_on_c, 0, 66, 80
2, 71516, Note_off_c, 0, 66, 100
2, 71520, Note_on_c, 0, 68, 80
2, 71612, Note_off_c, 0, 68, 100
2, 71616, Note_on_c, 0, 70, 80
2, 71708, Note_off_c, 0, 70, 100
2, 71712, Note_on_c, 0, 68, 80
2, 71804, Note_off_c, 0, 68, 100
2, 71808, Note_on_c, 0, 70, 80
2, 71900, Note_off_c, 0, 70, 100
2, 71904, Note_on_c, 0, 66, 80
2, 71996, Note_off_c, 0, 66, 100
2, 72000, Note_on_c, 0, 63, 80
2, 72092, Note_off_c, 0, 63, 100
2, 72096, Note_on_c, 0, 65, 80
2, 72188, Note_off_c, 0, 65, 100
2, 72192, Note_on_c, 0, 69, 80
2, 72192, Note_on_c, 0, 66, 80
2, 72284, Note_off_c, 0, 66, 100
2, 72288, Note_on_c, 0, 65, 80
2, 72380, Note_off_c, 0, 69, 100
2, 72380, Note_off_c, 0, 65, 100
2, 72384, Note_on_c, 0, 69, 80
2, 72384, Note_on_c, 0, 66, 80
2, 72476, Note_off_c, 0, 66, 100
2, 72480, Note_on_c, 0, 63, 80
2, 72572, Note_off_c, 0, 69, 100
2, 72572, Note_off_c, 0, 63, 100
2, 72576, Note_on_c, 0, 70, 80
2, 72576, Note_on_c, 0, 62, 80
2, 72668, Note_off_c, 0, 62, 100
2, 72672, Note_on_c, 0, 63, 80
2, 72764, Note_off_c, 0, 63, 100
2, 72768, Note_on_c, 0, 65, 80
2, 72860, Note_off_c, 0, 65, 100
2, 72864, Note_on_c, 0, 63, 80
2, 72956, Note_off_c, 0, 63, 100
2, 72960, Note_on_c, 0, 62, 80
2, 73052, Note_off_c, 0, 62, 100
2, 73056, Note_on_c, 0, 63, 80
2, 73148, Note_off_c, 0, 63, 100
2, 73152, Note_on_c, 0, 65, 80
2, 73244, Note_off_c, 0, 65, 100
2, 73248, Note_on_c, 0, 66, 80
2, 73340, Note_off_c, 0, 66, 100
2, 73344, Note_on_c, 0, 68, 80
2, 73436, Note_off_c, 0, 68, 100
2, 73440, Note_on_c, 0, 66, 80
2, 73532, Note_off_c, 0, 66, 100
2, 73536, Note_on_c, 0, 65, 80
2, 73628, Note_off_c, 0, 65, 100
2, 73632, Note_on_c, 0, 68, 80
2, 73724, Note_off_c, 0, 68, 100
2, 73728, Note_on_c, 0, 66, 80
2, 73820, Note_off_c, 0, 66, 100
2, 73824, Note_on_c, 0, 65, 80
2, 73916, Note_off_c, 0, 70, 100
2, 73916, Note_off_c, 0, 65, 100
2, 73920, Note_on_c, 0, 69, 80
2, 73920, Note_on_c, 0, 63, 80
2, 74012, Note_off_c, 0, 63, 100
2, 74016, Note_on_c, 0, 65, 80
2, 74108, Note_off_c, 0, 69, 100
2, 74108, Note_off_c, 0, 65, 100
2, 74112, Note_on_c, 0, 69, 80
2, 74112, Note_on_c, 0, 66, 80
2, 74204, Note_off_c, 0, 66, 100
2, 74208, Note_on_c, 0, 63, 80
2, 74300, Note_off_c, 0, 69, 100
2, 74300, Note_off_c, 0, 63, 100
2, 74304, Note_on_c, 0, 70, 80
2, 74304, Note_on_c, 0, 58, 80
2, 74396, Note_off_c, 0, 58, 100
2, 74400, Note_on_c, 0, 60, 80
2, 74492, Note_off_c, 0, 60, 100
2, 74496, Note_on_c, 0, 62, 80
2, 74588, Note_off_c, 0, 62, 100
2, 74592, Note_on_c, 0, 60, 80
2, 74684, Note_off_c, 0, 60, 100
2, 74688, Note_on_c, 0, 58, 80
2, 74780, Note_off_c, 0, 58, 100
2, 74784, Note_on_c, 0, 60, 80
2, 74876, Note_off_c, 0, 60, 100
2, 74880, Note_on_c, 0, 62, 80
2, 74972, Note_off_c, 0, 62, 100
2, 74976, Note_on_c, 0, 63, 80
2, 75068, Note_off_c, 0, 63, 100
2, 75072, Note_on_c, 0, 65, 80
2, 75164, Note_off_c, 0, 65, 100
2, 75168, Note_on_c, 0, 63, 80
2, 75260, Note_off_c, 0, 63, 100
2, 75264, Note_on_c, 0, 62, 80
2, 75356, Note_off_c, 0, 62, 100
2, 75360, Note_on_c, 0, 65, 80
2, 75452, Note_off_c, 0, 65, 100
2, 75456, Note_on_c, 0, 63, 80
2, 75548, Note_off_c, 0, 63, 100
2, 75552, Note_on_c, 0, 62, 80
2, 75644, Note_off_c, 0, 70, 100
2, 75644, Note_off_c, 0, 62, 100
2, 75648, Note_on_c, 0, 69, 80
2, 75648, Note_on_c, 0, 60, 80
2, 75740, Note_off_c, 0, 60, 100
2, 75744, Note_on_c, 0, 62, 80
2, 75836, Note_off_c, 0, 69, 100
2, 75836, Note_off_c, 0, 62, 100
2, 75840, Note_on_c, 0, 69, 80
2, 75840, Note_on_c, 0, 63, 80
2, 75932, Note_off_c, 0, 63, 100
2, 75936, Note_on_c, 0, 60, 80
2, 76028, Note_off_c, 0, 69, 100
2, 76028, Note_off_c, 0, 60, 100
2, 76032, Note_on_c, 0, 70, 80
2, 76032, Note_on_c, 0, 58, 80
2, 76124, Note_off_c, 0, 58, 100
2, 76128, Note_on_c, 0, 60, 80
2, 76220, Note_off_c, 0, 60, 100
2, 76224, Note_on_c, 0, 62, 80
2, 76316, Note_off_c, 0, 62, 100
2, 76320, Note_on_c, 0, 61, 80
2, 76412, Note_off_c, 0, 70, 100
2, 76412, Note_off_c, 0, 61, 100
2, 76416, Note_on_c, 0, 62, 80
2, 76508, Note_off_c, 0, 62, 100
2, 76512, Note_on_c, 0, 58, 80
2, 76604, Note_off_c, 0, 58, 100
2, 76608, Note_on_c, 0, 62, 80
2, 76700, Note_off_c, 0, 62, 100
2, 76704, Note_on_c, 0, 64, 80
2, 76796, Note_off_c, 0, 64, 100
2, 76800, Note_on_c, 0, 65, 80
2, 76892, Note_off_c, 0, 65, 100
2, 76896, Note_on_c, 0, 64, 80
2, 76988, Note_off_c, 0, 64, 100
2, 76992, Note_on_c, 0, 65, 80
2, 77084, Note_off_c, 0, 65, 100
2, 77088, Note_on_c, 0, 62, 80
2, 77180, Note_off_c, 0, 62, 100
2, 77184, Note_on_c, 0, 65, 80
2, 77276, Note_off_c, 0, 65, 100
2, 77280, Note_on_c, 0, 67, 80
2, 77372, Note_off_c, 0, 67, 100
2, 77376, Note_on_c, 0, 68, 80
2, 77468, Note_off_c, 0, 68, 100
2, 77472, Note_on_c, 0, 67, 80
2, 77564, Note_off_c, 0, 67, 100
2, 77568, Note_on_c, 0, 68, 80
2, 77660, Note_off_c, 0, 68, 100
2, 77664, Note_on_c, 0, 65, 80
2, 77756, Note_off_c, 0, 65, 100
2, 77760, Note_on_c, 0, 68, 80
2, 77852, Note_off_c, 0, 68, 100
2, 77856, Note_on_c, 0, 71, 80
2, 77948, Note_off_c, 0, 71, 100
2, 77952, Note_on_c, 0, 72, 80
2, 78044, Note_off_c, 0, 72, 100
2, 78048, Note_on_c, 0, 71, 80
2, 78140, Note_off_c, 0, 71, 100
2, 78144, Note_on_c, 0, 74, 80
2, 78236, Note_off_c, 0, 74, 100
2, 78240, Note_on_c, 0, 72, 80
2, 78332, Note_off_c, 0, 72, 100
2, 78336, Note_on_c, 0, 70, 80
2, 78428, Note_off_c, 0, 70, 100
2, 78432, Note_on_c, 0, 68, 80
2, 78524, Note_off_c, 0, 68, 100
2, 78528, Note_on_c, 0, 67, 80
2, 78620, Note_off_c, 0, 67, 100
2, 78624, Note_on_c, 0, 65, 80
2, 78716, Note_off_c, 0, 65, 100
2, 78720, Note_on_c, 0, 64, 80
2, 78812, Note_off_c, 0, 64, 100
2, 78816, Note_on_c, 0, 65, 80
2, 78908, Note_off_c, 0, 65, 100
2, 78912, Note_on_c, 0, 67, 80
2, 79004, Note_off_c, 0, 67, 100
2, 79008, Note_on_c, 0, 65, 80
2, 79100, Note_off_c, 0, 65, 100
2, 79104, Note_on_c, 0, 68, 80
2, 79196, Note_off_c, 0, 68, 100
2, 79200, Note_on_c, 0, 65, 80
2, 79292, Note_off_c, 0, 65, 100
2, 79296, Note_on_c, 0, 60, 80
2, 79388, Note_off_c, 0, 60, 100
2, 79392, Note_on_c, 0, 62, 80
2, 79484, Note_off_c, 0, 62, 100
2, 79488, Note_on_c, 0, 63, 80
2, 79868, Note_off_c, 0, 63, 100
2, 80640, Note_on_c, 0, 67, 80
2, 80828, Note_off_c, 0, 67, 100
2, 80832, Note_on_c, 0, 68, 80
2, 80852, Note_off_c, 0, 68, 100
2, 80854, Note_on_c, 0, 67, 80
2, 80926, Note_off_c, 0, 67, 100
2, 80928, Note_on_c, 0, 65, 80
2, 81020, Note_off_c, 0, 65, 100
2, 81024, Note_on_c, 0, 67, 80
2, 81116, Note_off_c, 0, 67, 100
2, 81120, Note_on_c, 0, 68, 80
2, 81212, Note_off_c, 0, 68, 100
2, 81216, Note_on_c, 0, 69, 80
2, 81788, Note_off_c, 0, 69, 100
2, 81792, Note_on_c, 0, 70, 80
2, 82556, Note_off_c, 0, 70, 100
2, 82560, Note_on_c, 0, 72, 80
2, 82580, Note_off_c, 0, 72, 100
2, 82582, Note_on_c, 0, 70, 80
2, 82654, Note_off_c, 0, 70, 100
2, 82656, Note_on_c, 0, 69, 80
2, 82748, Note_off_c, 0, 69, 100
2, 82752, Note_on_c, 0, 70, 80
2, 82844, Note_off_c, 0, 70, 100
2, 82848, Note_on_c, 0, 71, 80
2, 82940, Note_off_c, 0, 71, 100
2, 82944, Note_on_c, 0, 71, 80
2, 83132, Note_off_c, 0, 71, 100
2, 83136, Note_on_c, 0, 72, 80
2, 83184, Note_on_c, 0, 71, 80
2, 83228, Note_off_c, 0, 72, 100
2, 83232, Note_on_c, 0, 69, 80
2, 83276, Note_off_c, 0, 71, 100
2, 83280, Note_on_c, 0, 71, 80
2, 83324, Note_off_c, 0, 69, 100
2, 83328, Note_on_c, 0, 74, 80
2, 83372, Note_off_c, 0, 71, 100
2, 83468, Note_off_c, 0, 74, 100
2, 83472, Note_on_c, 0, 72, 80
2, 83516, Note_off_c, 0, 72, 100
2, 83520, Note_on_c, 0, 65, 80
2, 84284, Note_off_c, 0, 65, 100
2, 84288, Note_on_c, 0, 67, 80
2, 84308, Note_off_c, 0, 67, 100
2, 84310, Note_on_c, 0, 65, 80
2, 84380, Note_off_c, 0, 65, 100
2, 84384, Note_on_c, 0, 64, 80
2, 84476, Note_off_c, 0, 64, 100
2, 84480, Note_on_c, 0, 65, 80
2, 84572, Note_off_c, 0, 65, 100
2, 84576, Note_on_c, 0, 67, 80
2, 84668, Note_off_c, 0, 67, 100
2, 84672, Note_on_c, 0, 68, 80
2, 85296, Note_on_c, 0, 67, 80
2, 85340, Note_off_c, 0, 68, 100
2, 85344, Note_on_c, 0, 65, 81
2, 85388, Note_off_c, 0, 67, 100
2, 85392, Note_on_c, 0, 64, 82
2, 85436, Note_off_c, 0, 65, 100
2, 85440, Note_on_c, 0, 65, 83
2, 85484, Note_off_c, 0, 64, 100
2, 85488, Note_on_c, 0, 67, 85
2, 85532, Note_off_c, 0, 65, 100
2, 85536, Note_on_c, 0, 68, 86
2, 85580, Note_off_c, 0, 67, 100
2, 85584, Note_on_c, 0, 70, 87
2, 85628, Note_off_c, 0, 68, 100
2, 85632, Note_on_c, 0, 72, 89
2, 85676, Note_off_c, 0, 70, 100
2, 85680, Note_on_c, 0, 74, 90
2, 85724, Note_off_c, 0, 72, 100
2, 85728, Note_on_c, 0, 75, 91
2, 85772, Note_off_c, 0, 74, 100
2, 85776, Note_on_c, 0, 76, 93
2, 85820, Note_off_c, 0, 75, 100
2, 85824, Note_on_c, 0, 77, 94
2, 85868, Note_off_c, 0, 76, 100
2, 85872, Note_on_c, 0, 79, 95
2, 85916, Note_off_c, 0, 77, 100
2, 85920, Note_on_c, 0, 80, 96
2, 85964, Note_off_c, 0, 79, 100
2, 85968, Note_on_c, 0, 82, 98
2, 86012, Note_off_c, 0, 80, 100
2, 86016, Note_on_c, 0, 84, 99
2, 86060, Note_off_c, 0, 82, 100
2, 86064, Note_on_c, 0, 82, 100
2, 86108, Note_off_c, 0, 84, 100
2, 86112, Note_on_c, 0, 86, 102
2, 86156, Note_off_c, 0, 82, 100
2, 86160, Note_on_c, 0, 84, 103
2, 86204, Note_off_c, 0, 86, 100
2, 86208, Note_on_c, 0, 82, 104
2, 86252, Note_off_c, 0, 84, 100
2, 86256, Note_on_c, 0, 80, 106
2, 86300, Note_off_c, 0, 82, 100
2, 86304, Note_on_c, 0, 79, 107
2, 86348, Note_off_c, 0, 80, 100
2, 86352, Note_on_c, 0, 77, 108
2, 86396, Note_off_c, 0, 79, 100
2, 86400, Note_on_c, 0, 78, 109
2, 86444, Note_off_c, 0, 77, 64
2, 86972, Note_off_c, 0, 78, 100
2, 86976, Note_on_c, 0, 79, 80
2, 87644, Note_off_c, 0, 79, 100
2, 87648, Note_on_c, 0, 63, 80
2, 87740, Note_off_c, 0, 63, 100
2, 87744, Note_on_c, 0, 67, 80
2, 87836, Note_off_c, 0, 67, 100
2, 87840, Note_on_c, 0, 70, 80
2, 87932, Note_off_c, 0, 70, 100
2, 87936, Note_on_c, 0, 75, 80
2, 88028, Note_off_c, 0, 75, 100
2, 88032, Note_on_c, 0, 79, 80
2, 88124, Note_off_c, 0, 79, 100
2, 88128, Note_on_c, 0, 82, 80
2, 88796, Note_off_c, 0, 82, 100
2, 88800, Note_on_c, 0, 78, 80
2, 88892, Note_off_c, 0, 78, 100
2, 88896, Note_on_c, 0, 79, 80
2, 88988, Note_off_c, 0, 79, 100
2, 88992, Note_on_c, 0, 74, 80
2, 89084, Note_off_c, 0, 74, 100
2, 89088, Note_on_c, 0, 75, 80
2, 89180, Note_off_c, 0, 75, 100
2, 89184, Note_on_c, 0, 69, 80
2, 89276, Note_off_c, 0, 69, 100
2, 89280, Note_on_c, 0, 70, 80
2, 89372, Note_off_c, 0, 70, 100
2, 89376, Note_on_c, 0, 66, 80
2, 89468, Note_off_c, 0, 66, 100
2, 89472, Note_on_c, 0, 67, 80
2, 89564, Note_off_c, 0, 67, 100
2, 89568, Note_on_c, 0, 62, 80
2, 89660, Note_off_c, 0, 62, 100
2, 89664, Note_on_c, 0, 63, 80
2, 89756, Note_off_c, 0, 63, 100
2, 89760, Note_on_c, 0, 67, 80
2, 89852, Note_off_c, 0, 67, 100
2, 89856, Note_on_c, 0, 67, 80
2, 90044, Note_off_c, 0, 67, 100
2, 90048, Note_on_c, 0, 60, 80
2, 90620, Note_off_c, 0, 60, 100
2, 90624, Note_on_c, 0, 72, 80
2, 91196, Note_off_c, 0, 72, 100
2, 91200, Note_on_c, 0, 84, 80
2, 91248, Note_on_c, 0, 83, 80
2, 91292, Note_off_c, 0, 84, 100
2, 91296, Note_on_c, 0, 86, 80
2, 91340, Note_off_c, 0, 83, 100
2, 91344, Note_on_c, 0, 84, 80
2, 91388, Note_off_c, 0, 86, 100
2, 91392, Note_on_c, 0, 82, 80
2, 91436, Note_off_c, 0, 84, 100
2, 91440, Note_on_c, 0, 80, 80
2, 91484, Note_off_c, 0, 82, 100
2, 91488, Note_on_c, 0, 79, 80
2, 91532, Note_off_c, 0, 80, 100
2, 91536, Note_on_c, 0, 77, 80
2, 91580, Note_off_c, 0, 79, 100
2, 91582, Note_off_c, 0, 77, 64
2, 91584, Note_on_c, 0, 77, 80
2, 91776, Note_on_c, 0, 75, 80
2, 91844, Note_off_c, 0, 77, 64
2, 92348, Note_off_c, 0, 75, 100
2, 92352, Note_on_c, 0, 75, 80
2, 92540, Note_off_c, 0, 75, 100
2, 92544, Note_on_c, 0, 75, 80
2, 92732, Note_off_c, 0, 75, 100
2, 92736, Note_on_c, 0, 75, 80
2, 92760, Note_on_c, 0, 77, 80
2, 92782, Note_off_c, 0, 75, 100
2, 92784, Note_on_c, 0, 75, 80
2, 92806, Note_off_c, 0, 77, 100
2, 92808, Note_on_c, 0, 77, 80
2, 92830, Note_off_c, 0, 75, 100
2, 92832, Note_on_c, 0, 75, 80
2, 92854, Note_off_c, 0, 77, 100
2, 92856, Note_on_c, 0, 77, 80
2, 92878, Note_off_c, 0, 75, 100
2, 92880, Note_on_c, 0, 74, 80
2, 92902, Note_off_c, 0, 77, 100
2, 92904, Note_on_c, 0, 75, 80
2, 92926, Note_off_c, 0, 74, 100
2, 92928, Note_on_c, 0, 77, 80
2, 92950, Note_off_c, 0, 75, 100
2, 93120, Note_on_c, 0, 74, 80
2, 93212, Note_off_c, 0, 77, 64
2, 93308, Note_off_c, 0, 74, 100
2, 93312, Note_on_c, 0, 75, 80
2, 93500, Note_off_c, 0, 75, 100
2, 93504, Note_on_c, 0, 70, 80
2, 93692, Note_off_c, 0, 70, 100
2, 93696, Note_on_c, 0, 70, 80
2, 93884, Note_off_c, 0, 70, 100
2, 93888, Note_on_c, 0, 70, 80
2, 94076, Note_off_c, 0, 70, 100
2, 94080, Note_on_c, 0, 72, 80
2, 94268, Note_off_c, 0, 72, 100
2, 94272, Note_on_c, 0, 68, 80
2, 94460, Note_off_c, 0, 68, 100
2, 94464, Note_on_c, 0, 67, 80
2, 94464, Note_on_c, 0, 63, 80
2, 94652, Note_off_c, 0, 67, 100
2, 94656, Note_on_c, 0, 68, 80
2, 94844, Note_off_c, 0, 63, 100
2, 94844, Note_off_c, 0, 68, 100
2, 94848, Note_on_c, 0, 65, 80
2, 94848, Note_on_c, 0, 62, 80
2, 95036, Note_off_c, 0, 65, 100
2, 95036, Note_off_c, 0, 62, 100
2, 95040, Note_on_c, 0, 63, 80
2, 95228, Note_off_c, 0, 63, 100
2, 95232, Note_on_c, 0, 58, 80
2, 95420, Note_off_c, 0, 58, 100
2, 95424, Note_on_c, 0, 58, 80
2, 95612, Note_off_c, 0, 58, 100
2, 95616, Note_on_c, 0, 58, 80
2, 95640, Note_on_c, 0, 60, 80
2, 95660, Note_off_c, 0, 58, 100
2, 95664, Note_on_c, 0, 58, 80
2, 95684, Note_off_c, 0, 60, 100
2, 95688, Note_on_c, 0, 60, 80
2, 95708, Note_off_c, 0, 58, 100
2, 95712, Note_on_c, 0, 58, 80
2, 95732, Note_off_c, 0, 60, 100
2, 95736, Note_on_c, 0, 60, 80
2, 95756, Note_off_c, 0, 58, 100
2, 95760, Note_on_c, 0, 57, 80
2, 95780, Note_off_c, 0, 60, 100
2, 95784, Note_on_c, 0, 58, 80
2, 95804, Note_off_c, 0, 57, 100
2, 95808, Note_on_c, 0, 60, 80
2, 95828, Note_off_c, 0, 58, 100
2, 95996, Note_off_c, 0, 60, 100
2, 96000, Note_on_c, 0, 56, 80
2, 96188, Note_off_c, 0, 56, 100
2, 96192, Note_on_c, 0, 51, 80
2, 96192, Note_on_c, 0, 55, 80
2, 96216, Note_on_c, 0, 56, 80
2, 96236, Note_off_c, 0, 55, 100
2, 96240, Note_on_c, 0, 55, 80
2, 96260, Note_off_c, 0, 56, 100
2, 96264, Note_on_c, 0, 56, 80
2, 96284, Note_off_c, 0, 55, 100
2, 96288, Note_on_c, 0, 55, 80
2, 96308, Note_off_c, 0, 56, 100
2, 96312, Note_on_c, 0, 56, 80
2, 96332, Note_off_c, 0, 55, 100
2, 96336, Note_on_c, 0, 53, 80
2, 96356, Note_off_c, 0, 56, 100
2, 96360, Note_on_c, 0, 55, 80
2, 96380, Note_off_c, 0, 53, 100
2, 96384, Note_on_c, 0, 56, 80
2, 96404, Note_off_c, 0, 55, 100
2, 96572, Note_off_c, 0, 51, 100
2, 96572, Note_off_c, 0, 56, 100
2, 96576, Note_on_c, 0, 53, 80
2, 96576, Note_on_c, 0, 50, 80
2, 96764, Note_off_c, 0, 53, 100
2, 96764, Note_off_c, 0, 50, 100
2, 96768, Note_on_c, 0, 51, 80
2, 96956, Note_off_c, 0, 51, 100
2, 96960, Note_on_c, 0, 55, 80
2, 97148, Note_off_c, 0, 55, 100
2, 97152, Note_on_c, 0, 58, 80
2, 97340, Note_off_c, 0, 58, 100
2, 97344, Note_on_c, 0, 55, 80
2, 97532, Note_off_c, 0, 55, 100
2, 97536, Note_on_c, 0, 58, 80
2, 97724, Note_off_c, 0, 58, 100
2, 97728, Note_on_c, 0, 63, 80
2, 97916, Note_off_c, 0, 63, 100
2, 97920, Note_on_c, 0, 58, 80
2, 98108, Note_off_c, 0, 58, 100
2, 98112, Note_on_c, 0, 63, 80
2, 98300, Note_off_c, 0, 63, 100
2, 98304, Note_on_c, 0, 67, 80
2, 98492, Note_off_c, 0, 67, 100
2, 98496, Note_on_c, 0, 67, 80
2, 98496, Note_on_c, 0, 63, 80
2, 98496, Note_on_c, 0, 58, 80
2, 98496, Note_on_c, 0, 55, 80
2, 99260, Note_off_c, 0, 55, 100
2, 99260, Note_off_c, 0, 58, 100
2, 99260, Note_off_c, 0, 63, 100
2, 99260, Note_off_c, 0, 67, 100
2, 99264, Note_on_c, 0, 67, 80
2, 99264, Note_on_c, 0, 63, 80
2, 99264, Note_on_c, 0, 58, 80
2, 99452, Note_off_c, 0, 67, 100
2, 99452, Note_off_c, 0, 63, 100
2, 99452, Note_off_c, 0, 58, 100
2, 99456, Note_on_c, 0, 67, 80
2, 99456, Note_on_c, 0, 63, 80
2, 99644, Note_off_c, 0, 67, 100
2, 99644, Note_off_c, 0, 63, 100
2, 99648, Note_on_c, 0, 67, 80
2, 99648, Note_on_c, 0, 63, 80
2, 99672, Note_on_c, 0, 68, 80
2, 99692, Note_off_c, 0, 67, 100
2, 99696, Note_on_c, 0, 67, 80
2, 99716, Note_off_c, 0, 68, 100
2, 99720, Note_on_c, 0, 68, 80
2, 99740, Note_off_c, 0, 67, 100
2, 99744, Note_on_c, 0, 67, 80
2, 99764, Note_off_c, 0, 68, 100
2, 99768, Note_on_c, 0, 68, 80
2, 99788, Note_off_c, 0, 67, 100
2, 99792, Note_on_c, 0, 65, 80
2, 99812, Note_off_c, 0, 68, 100
2, 99816, Note_on_c, 0, 67, 80
2, 99836, Note_off_c, 0, 63, 100
2, 99836, Note_off_c, 0, 65, 100
2, 99840, Note_on_c, 0, 68, 80
2, 99840, Note_on_c, 0, 65, 80
2, 99860, Note_off_c, 0, 67, 100
2, 100028, Note_off_c, 0, 68, 100
2, 100028, Note_off_c, 0, 65, 100
2, 100032, Note_on_c, 0, 65, 80
2, 100032, Note_on_c, 0, 62, 80
2, 100032, Note_on_c, 0, 58, 80
2, 100220, Note_off_c, 0, 65, 100
2, 100220, Note_off_c, 0, 62, 100
2, 100220, Note_off_c, 0, 58, 100
2, 100224, Note_on_c, 0, 65, 80
2, 100224, Note_on_c, 0, 62, 80
2, 100224, Note_on_c, 0, 58, 80
2, 100796, Note_off_c, 0, 65, 100
2, 100796, Note_off_c, 0, 62, 100
2, 100796, Note_off_c, 0, 58, 100
2, 100800, Note_on_c, 0, 63, 80
2, 100800, Note_on_c, 0, 58, 80
2, 101180, Note_off_c, 0, 63, 100
2, 101180, Note_off_c, 0, 58, 100
2, 101376, Note_on_c, 0, 58, 80
2, 101376, Note_on_c, 0, 54, 80
2, 101564, Note_off_c, 0, 58, 100
2, 101564, Note_off_c, 0, 54, 100
2, 101568, Note_on_c, 0, 63, 80
2, 101568, Note_on_c, 0, 58, 80
2, 101756, Note_off_c, 0, 63, 100
2, 101756, Note_off_c, 0, 58, 100
2, 101760, Note_on_c, 0, 66, 80
2, 101760, Note_on_c, 0, 63, 80
2, 101948, Note_off_c, 0, 66, 100
2, 101948, Note_off_c, 0, 63, 100
2, 101952, Note_on_c, 0, 70, 80
2, 101952, Note_on_c, 0, 66, 80
2, 102720, Note_on_c, 0, 75, 80
2, 102908, Note_off_c, 0, 75, 100
2, 102912, Note_on_c, 0, 75, 80
2, 103100, Note_off_c, 0, 75, 100
2, 103104, Note_on_c, 0, 75, 80
2, 103292, Note_off_c, 0, 66, 100
2, 103292, Note_off_c, 0, 70, 100
2, 103292, Note_off_c, 0, 75, 100
2, 103296, Note_on_c, 0, 75, 80
2, 103296, Note_on_c, 0, 68, 80
2, 103484, Note_off_c, 0, 75, 100
2, 103484, Note_off_c, 0, 68, 100
2, 103488, Note_on_c, 0, 75, 80
2, 103488, Note_on_c, 0, 70, 80
2, 103488, Note_on_c, 0, 66, 80
2, 103676, Note_off_c, 0, 75, 100
2, 103676, Note_off_c, 0, 70, 100
2, 103676, Note_off_c, 0, 66, 100
2, 103680, Note_on_c, 0, 75, 80
2, 103680, Note_on_c, 0, 71, 80
2, 103680, Note_on_c, 0, 65, 80
2, 104060, Note_off_c, 0, 75, 100
2, 104064, Note_on_c, 0, 73, 80
2, 104252, Note_off_c, 0, 71, 100
2, 104252, Note_off_c, 0, 65, 100
2, 104252, Note_off_c, 0, 73, 100
2, 104448, Note_on_c, 0, 75, 80
2, 104448, Note_on_c, 0, 71, 80
2, 104448, Note_on_c, 0, 68, 80
2, 104636, Note_off_c, 0, 75, 100
2, 104640, Note_on_c, 0, 73, 80
2, 104828, Note_off_c, 0, 71, 100
2, 104828, Note_off_c, 0, 68, 100
2, 104828, Note_off_c, 0, 73, 100
2, 105024, Note_on_c, 0, 75, 80
2, 105024, Note_on_c, 0, 70, 80
2, 105024, Note_on_c, 0, 66, 80
2, 105212, Note_off_c, 0, 75, 100
2, 105216, Note_on_c, 0, 73, 80
2, 105404, Note_off_c, 0, 70, 100
2, 105404, Note_off_c, 0, 66, 100
2, 105404, Note_off_c, 0, 73, 100
2, 105600, Note_on_c, 0, 68, 80
2, 105600, Note_on_c, 0, 63, 80
2, 105600, Note_on_c, 0, 73, 80
2, 105788, Note_off_c, 0, 73, 100
2, 105792, Note_on_c, 0, 71, 80
2, 105980, Note_off_c, 0, 68, 100
2, 105980, Note_off_c, 0, 63, 100
2, 105980, Note_off_c, 0, 71, 100
2, 106176, Note_on_c, 0, 71, 80
2, 106176, Note_on_c, 0, 66, 80
2, 106176, Note_on_c, 0, 61, 80
2, 106364, Note_off_c, 0, 71, 100
2, 106368, Note_on_c, 0, 70, 80
2, 106556, Note_off_c, 0, 66, 100
2, 106556, Note_off_c, 0, 61, 100
2, 106556, Note_off_c, 0, 70, 100
2, 106752, Note_on_c, 0, 70, 80
2, 106752, Note_on_c, 0, 59, 80
2, 106752, Note_on_c, 0, 65, 80
2, 106940, Note_off_c, 0, 70, 100
2, 106944, Note_on_c, 0, 68, 80
2, 107132, Note_off_c, 0, 59, 100
2, 107132, Note_off_c, 0, 65, 100
2, 107132, Note_off_c, 0, 68, 100
2, 107136, Note_on_c, 0, 68, 80
2, 107136, Note_on_c, 0, 65, 80
2, 107136, Note_on_c, 0, 59, 80
2, 107516, Note_off_c, 0, 59, 100
2, 107520, Note_on_c, 0, 58, 80
2, 107708, Note_off_c, 0, 68, 100
2, 107708, Note_off_c, 0, 65, 100
2, 107708, Note_off_c, 0, 58, 100
2, 107904, Note_on_c, 0, 59, 80
2, 107904, Note_on_c, 0, 65, 80
2, 107904, Note_on_c, 0, 68, 80
2, 108092, Note_off_c, 0, 59, 100
2, 108096, Note_on_c, 0, 58, 80
2, 108284, Note_off_c, 0, 65, 100
2, 108284, Note_off_c, 0, 68, 100
2, 108284, Note_off_c, 0, 58, 100
2, 108480, Note_on_c, 0, 59, 80
2, 108480, Note_on_c, 0, 63, 80
2, 108480, Note_on_c, 0, 66, 80
2, 108668, Note_off_c, 0, 59, 100
2, 108672, Note_on_c, 0, 58, 80
2, 108860, Note_off_c, 0, 63, 100
2, 108860, Note_off_c, 0, 66, 100
2, 108860, Note_off_c, 0, 58, 100
2, 109056, Note_on_c, 0, 66, 80
2, 109056, Note_on_c, 0, 59, 80
2, 109056, Note_on_c, 0, 56, 80
2, 109244, Note_off_c, 0, 66, 100
2, 109248, Note_on_c, 0, 64, 80
2, 109436, Note_off_c, 0, 59, 100
2, 109436, Note_off_c, 0, 56, 100
2, 109436, Note_off_c, 0, 64, 100
2, 109632, Note_on_c, 0, 64, 80
2, 109632, Note_on_c, 0, 60, 80
2, 109632, Note_on_c, 0, 54, 80
2, 109820, Note_off_c, 0, 64, 100
2, 109824, Note_on_c, 0, 63, 80
2, 110012, Note_off_c, 0, 60, 100
2, 110012, Note_off_c, 0, 54, 100
2, 110012, Note_off_c, 0, 63, 100
2, 110208, Note_on_c, 0, 63, 80
2, 110208, Note_on_c, 0, 56, 80
2, 110208, Note_on_c, 0, 53, 80
2, 110396, Note_off_c, 0, 63, 100
2, 110400, Note_on_c, 0, 62, 80
2, 110588, Note_off_c, 0, 56, 100
2, 110588, Note_off_c, 0, 53, 100
2, 110588, Note_off_c, 0, 62, 100
2, 110592, Note_on_c, 0, 63, 80
2, 110592, Note_on_c, 0, 55, 80
2, 110972, Note_off_c, 0, 63, 100
2, 110972, Note_off_c, 0, 55, 100
2, 111744, Note_on_c, 0, 79, 80
2, 112124, Note_off_c, 0, 79, 100
2, 112128, Note_on_c, 0, 77, 80
2, 112224, Note_on_c, 0, 75, 80
2, 112284, Note_off_c, 0, 77, 64
2, 112316, Note_off_c, 0, 75, 100
2, 112320, Note_on_c, 0, 68, 80
2, 112320, Note_on_c, 0, 65, 80
2, 112320, Note_on_c, 0, 75, 80
2, 112508, Note_off_c, 0, 75, 100
2, 112512, Note_on_c, 0, 74, 80
2, 112700, Note_off_c, 0, 68, 100
2, 112700, Note_off_c, 0, 65, 100
2, 112700, Note_off_c, 0, 74, 100
2, 112704, Note_on_c, 0, 72, 80
2, 112704, Note_on_c, 0, 68, 80
2, 112796, Note_off_c, 0, 72, 100
2, 112800, Note_on_c, 0, 70, 80
2, 112892, Note_off_c, 0, 68, 100
2, 112892, Note_off_c, 0, 70, 100
2, 112896, Note_on_c, 0, 70, 80
2, 112896, Note_on_c, 0, 68, 80
2, 113660, Note_off_c, 0, 70, 100
2, 113664, Note_on_c, 0, 72, 80
2, 113852, Note_off_c, 0, 72, 100
2, 113856, Note_on_c, 0, 74, 80
2, 114044, Note_off_c, 0, 68, 100
2, 114044, Note_off_c, 0, 74, 100
2, 114048, Note_on_c, 0, 75, 80
2, 114140, Note_off_c, 0, 75, 100
2, 114144, Note_on_c, 0, 77, 80
2, 114176, Note_on_c, 0, 75, 80
2, 114208, Note_on_c, 0, 74, 80
2, 114236, Note_off_c, 0, 75, 100
2, 114240, Note_on_c, 0, 75, 80
2, 114268, Note_off_c, 0, 74, 100
2, 114332, Note_off_c, 0, 75, 100
2, 114336, Note_on_c, 0, 77, 80
2, 114428, Note_off_c, 0, 77, 100
2, 114428, Note_off_c, 0, 77, 64
2, 114432, Note_on_c, 0, 79, 80
2, 114524, Note_off_c, 0, 79, 100
2, 114528, Note_on_c, 0, 80, 80
2, 114620, Note_off_c, 0, 80, 100
2, 114624, Note_on_c, 0, 79, 80
2, 114644, Note_off_c, 0, 79, 100
2, 114646, Note_on_c, 0, 82, 80
2, 115196, Note_off_c, 0, 82, 100
2, 115200, Note_on_c, 0, 81, 80
2, 115292, Note_off_c, 0, 81, 100
2, 115296, Note_on_c, 0, 82, 80
2, 115388, Note_off_c, 0, 82, 100
2, 115392, Note_on_c, 0, 84, 80
2, 115484, Note_off_c, 0, 84, 100
2, 115488, Note_on_c, 0, 82, 80
2, 115580, Note_off_c, 0, 82, 100
2, 115584, Note_on_c, 0, 80, 80
2, 115676, Note_off_c, 0, 80, 100
2, 115680, Note_on_c, 0, 79, 80
2, 115772, Note_off_c, 0, 79, 100
2, 115776, Note_on_c, 0, 79, 80
2, 115776, Note_on_c, 0, 72, 80
2, 115776, Note_on_c, 0, 68, 80
2, 115964, Note_off_c, 0, 79, 100
2, 115968, Note_on_c, 0, 77, 80
2, 116156, Note_off_c, 0, 72, 100
2, 116156, Note_off_c, 0, 68, 100
2, 116158, Note_off_c, 0, 77, 64
2, 116160, Note_on_c, 0, 75, 80
2, 116160, Note_on_c, 0, 70, 80
2, 116160, Note_on_c, 0, 67, 80
2, 116252, Note_off_c, 0, 75, 100
2, 116252, Note_off_c, 0, 70, 100
2, 116252, Note_off_c, 0, 67, 100
2, 116256, Note_on_c, 0, 74, 80
2, 116256, Note_on_c, 0, 68, 80
2, 116256, Note_on_c, 0, 65, 80
2, 116348, Note_off_c, 0, 74, 100
2, 116348, Note_off_c, 0, 68, 100
2, 116348, Note_off_c, 0, 65, 100
2, 116352, Note_on_c, 0, 74, 80
2, 116352, Note_on_c, 0, 68, 80
2, 116352, Note_on_c, 0, 65, 80
2, 116732, Note_off_c, 0, 74, 100
2, 116732, Note_off_c, 0, 68, 100
2, 116732, Note_off_c, 0, 65, 100
2, 116736, Note_on_c, 0, 72, 80
2, 116736, Note_on_c, 0, 68, 80
2, 116828, Note_off_c, 0, 72, 100
2, 116832, Note_on_c, 0, 70, 80
2, 116924, Note_off_c, 0, 68, 100
2, 116924, Note_off_c, 0, 70, 100
2, 116928, Note_on_c, 0, 70, 80
2, 116928, Note_on_c, 0, 68, 80
2, 117116, Note_off_c, 0, 70, 100
2, 117120, Note_on_c, 0, 72, 80
2, 117308, Note_off_c, 0, 72, 100
2, 117312, Note_on_c, 0, 74, 80
2, 117500, Note_off_c, 0, 68, 100
2, 117500, Note_off_c, 0, 74, 100
2, 117504, Note_on_c, 0, 75, 80
2, 117504, Note_on_c, 0, 67, 80
2, 117692, Note_off_c, 0, 75, 100
2, 117692, Note_off_c, 0, 67, 100
2, 117696, Note_on_c, 0, 78, 80
2, 117884, Note_off_c, 0, 78, 100
2, 117888, Note_on_c, 0, 79, 80
2, 118076, Note_off_c, 0, 79, 100
2, 118272, Note_on_c, 0, 81, 80
2, 118460, Note_off_c, 0, 81, 100
2, 118464, Note_on_c, 0, 82, 80
2, 118652, Note_off_c, 0, 82, 100
2, 118848, Note_on_c, 0, 86, 80
2, 119036, Note_off_c, 0, 86, 100
2, 119040, Note_on_c, 0, 87, 80
2, 119228, Note_off_c, 0, 87, 100
2, 119424, Note_on_c, 0, 83, 80
2, 119612, Note_off_c, 0, 83, 100
2, 119616, Note_on_c, 0, 84, 80
2, 119804, Note_off_c, 0, 84, 100
2, 120000, Note_on_c, 0, 71, 80
2, 120188, Note_off_c, 0, 71, 100
2, 120192, Note_on_c, 0, 72, 80
2, 120380, Note_off_c, 0, 72, 100
2, 120576, Note_on_c, 0, 64, 80
2, 120764, Note_off_c, 0, 64, 100
2, 120768, Note_on_c, 0, 65, 80
2, 120956, Note_off_c, 0, 65, 100
2, 121152, Note_on_c, 0, 70, 80
2, 121630, Note_off_c, 0, 70, 64
2, 121632, Note_on_c, 0, 72, 80
2, 121680, Note_on_c, 0, 74, 84
2, 121726, Note_off_c, 0, 72, 100
2, 121728, Note_on_c, 0, 75, 89
2, 121774, Note_off_c, 0, 74, 100
2, 121776, Note_on_c, 0, 77, 94
2, 121822, Note_off_c, 0, 75, 100
2, 121824, Note_on_c, 0, 79, 99
2, 121870, Note_off_c, 0, 77, 64
2, 121872, Note_on_c, 0, 80, 104
2, 121918, Note_off_c, 0, 79, 100
2, 121920, Note_on_c, 0, 82, 109
2, 121966, Note_off_c, 0, 80, 100
2, 122300, Note_off_c, 0, 82, 100
2, 122304, Note_on_c, 0, 80, 100
2, 122494, Note_off_c, 0, 80, 100
2, 122496, Note_on_c, 0, 77, 100
2, 122686, Note_off_c, 0, 77, 64
2, 122688, Note_on_c, 0, 75, 100
2, 122928, Note_on_c, 0, 74, 80
2, 122974, Note_off_c, 0, 75, 100
2, 122976, Note_on_c, 0, 79, 80
2, 123022, Note_off_c, 0, 74, 100
2, 123024, Note_on_c, 0, 77, 80
2, 123070, Note_off_c, 0, 79, 100
2, 123072, Note_on_c, 0, 75, 80
2, 123118, Note_off_c, 0, 77, 64
2, 123120, Note_on_c, 0, 74, 80
2, 123166, Note_off_c, 0, 75, 100
2, 123168, Note_on_c, 0, 72, 80
2, 123214, Note_off_c, 0, 74, 100
2, 123216, Note_on_c, 0, 70, 80
2, 123262, Note_off_c, 0, 72, 100
2, 123264, Note_on_c, 0, 69, 80
2, 123310, Note_off_c, 0, 70, 64
2, 123312, Note_on_c, 0, 70, 80
2, 123358, Note_off_c, 0, 69, 100
2, 123360, Note_on_c, 0, 75, 80
2, 123404, Note_off_c, 0, 70, 100
2, 123408, Note_on_c, 0, 74, 80
2, 123452, Note_off_c, 0, 75, 100
2, 123456, Note_on_c, 0, 72, 80
2, 123500, Note_off_c, 0, 74, 100
2, 123504, Note_on_c, 0, 70, 80
2, 123548, Note_off_c, 0, 72, 100
2, 123552, Note_on_c, 0, 68, 80
2, 123596, Note_off_c, 0, 70, 100
2, 123600, Note_on_c, 0, 67, 80
2, 123644, Note_off_c, 0, 68, 100
2, 123648, Note_on_c, 0, 66, 80
2, 123692, Note_off_c, 0, 67, 100
2, 123696, Note_on_c, 0, 67, 80
2, 123740, Note_off_c, 0, 66, 100
2, 123744, Note_on_c, 0, 72, 80
2, 123788, Note_off_c, 0, 67, 100
2, 123792, Note_on_c, 0, 70, 80
2, 123836, Note_off_c, 0, 72, 100
2, 123840, Note_on_c, 0, 68, 80
2, 123884, Note_off_c, 0, 70, 100
2, 123888, Note_on_c, 0, 67, 80
2, 123932, Note_off_c, 0, 68, 100
2, 123936, Note_on_c, 0, 65, 80
2, 123980, Note_off_c, 0, 67, 100
2, 123984, Note_on_c, 0, 63, 80
2, 124028, Note_off_c, 0, 65, 100
2, 124032, Note_on_c, 0, 62, 80
2, 124076, Note_off_c, 0, 63, 100
2, 124080, Note_on_c, 0, 63, 80
2, 124124, Note_off_c, 0, 62, 100
2, 124128, Note_on_c, 0, 68, 80
2, 124172, Note_off_c, 0, 63, 100
2, 124176, Note_on_c, 0, 67, 80
2, 124220, Note_off_c, 0, 68, 100
2, 124224, Note_on_c, 0, 65, 80
2, 124268, Note_off_c, 0, 67, 100
2, 124272, Note_on_c, 0, 63, 80
2, 124316, Note_off_c, 0, 65, 100
2, 124320, Note_on_c, 0, 62, 80
2, 124364, Note_off_c, 0, 63, 100
2, 124368, Note_on_c, 0, 60, 80
2, 124412, Note_off_c, 0, 62, 100
2, 124416, Note_on_c, 0, 57, 80
2, 124460, Note_off_c, 0, 60, 100
2, 124464, Note_on_c, 0, 58, 81
2, 124508, Note_off_c, 0, 57, 100
2, 124512, Note_on_c, 0, 59, 83
2, 124556, Note_off_c, 0, 58, 100
2, 124560, Note_on_c, 0, 60, 84
2, 124604, Note_off_c, 0, 59, 100
2, 124608, Note_on_c, 0, 61, 86
2, 124652, Note_off_c, 0, 60, 100
2, 124656, Note_on_c, 0, 62, 88
2, 124700, Note_off_c, 0, 61, 100
2, 124704, Note_on_c, 0, 63, 89
2, 124748, Note_off_c, 0, 62, 100
2, 124752, Note_on_c, 0, 64, 91
2, 124796, Note_off_c, 0, 63, 100
2, 124800, Note_on_c, 0, 65, 93
2, 124844, Note_off_c, 0, 64, 100
2, 124848, Note_on_c, 0, 66, 94
2, 124892, Note_off_c, 0, 65, 100
2, 124896, Note_on_c, 0, 67, 96
2, 124940, Note_off_c, 0, 66, 100
2, 124944, Note_on_c, 0, 68, 98
2, 124988, Note_off_c, 0, 67, 100
2, 124992, Note_on_c, 0, 69, 99
2, 125036, Note_off_c, 0, 68, 100
2, 125040, Note_on_c, 0, 70, 101
2, 125084, Note_off_c, 0, 69, 100
2, 125088, Note_on_c, 0, 71, 103
2, 125132, Note_off_c, 0, 70, 100
2, 125136, Note_on_c, 0, 72, 104
2, 125180, Note_off_c, 0, 71, 100
2, 125184, Note_on_c, 0, 73, 106
2, 125228, Note_off_c, 0, 72, 100
2, 125232, Note_on_c, 0, 74, 108
2, 125276, Note_off_c, 0, 73, 100
2, 125280, Note_on_c, 0, 75, 109
2, 125324, Note_off_c, 0, 74, 100
2, 125328, Note_on_c, 0, 76, 111
2, 125372, Note_off_c, 0, 75, 100
2, 125376, Note_on_c, 0, 77, 113
2, 125412, Note_on_c, 0, 78, 114
2, 125420, Note_off_c, 0, 76, 100
2, 125450, Note_on_c, 0, 79, 115
2, 125470, Note_off_c, 0, 77, 64
2, 125488, Note_on_c, 0, 80, 117
2, 125504, Note_off_c, 0, 78, 100
2, 125524, Note_on_c, 0, 81, 118
2, 125542, Note_off_c, 0, 79, 100
2, 125568, Note_on_c, 0, 82, 119
2, 125580, Note_off_c, 0, 80, 100
2, 125616, Note_off_c, 0, 81, 100
2, 125808, Note_on_c, 0, 80, 110
2, 125852, Note_off_c, 0, 82, 100
2, 125856, Note_on_c, 0, 77, 108
2, 125900, Note_off_c, 0, 80, 100
2, 125904, Note_on_c, 0, 74, 105
2, 125948, Note_off_c, 0, 77, 64
2, 125952, Note_on_c, 0, 70, 102
2, 125996, Note_off_c, 0, 74, 100
2, 126000, Note_on_c, 0, 68, 99
2, 126044, Note_off_c, 0, 70, 100
2, 126048, Note_on_c, 0, 65, 96
2, 126092, Note_off_c, 0, 68, 100
2, 126096, Note_on_c, 0, 62, 93
2, 126140, Note_off_c, 0, 65, 100
2, 126144, Note_on_c, 0, 63, 91
2, 126188, Note_off_c, 0, 62, 100
2, 126524, Note_off_c, 0, 63, 100
2, 127104, Note_on_c, 0, 78, 100
2, 127104, Note_on_c, 0, 75, 100
2, 127484, Note_off_c, 0, 75, 100
2, 127484, Note_off_c, 0, 78, 100
2, 127488, Note_on_c, 0, 79, 80
2, 127676, Note_off_c, 0, 79, 100
2, 127680, Note_on_c, 0, 70, 80
2, 127680, Note_on_c, 0, 80, 80
2, 127820, Note_off_c, 0, 80, 100
2, 127824, Note_on_c, 0, 77, 80
2, 127868, Note_off_c, 0, 70, 100
2, 127872, Note_off_c, 0, 77, 64
2, 127872, Note_on_c, 0, 75, 80
2, 127872, Note_on_c, 0, 67, 80
2, 128252, Note_off_c, 0, 75, 100
2, 128252, Note_off_c, 0, 67, 100
2, 128832, Note_on_c, 0, 66, 100
2, 128832, Note_on_c, 0, 63, 100
2, 129212, Note_off_c, 0, 63, 100
2, 129212, Note_off_c, 0, 66, 100
2, 129216, Note_on_c, 0, 67, 80
2, 129404, Note_off_c, 0, 67, 100
2, 129408, Note_on_c, 0, 58, 80
2, 129408, Note_on_c, 0, 68, 80
2, 129548, Note_off_c, 0, 68, 100
2, 129552, Note_on_c, 0, 65, 80
2, 129596, Note_off_c, 0, 58, 100
2, 129596, Note_off_c, 0, 65, 100
2, 129600, Note_on_c, 0, 63, 80
2, 129788, Note_off_c, 0, 63, 100
2, 129792, Note_on_c, 0, 68, 80
2, 129792, Note_on_c, 0, 62, 80
2, 130076, Note_off_c, 0, 68, 100
2, 130080, Note_on_c, 0, 65, 80
2, 130172, Note_off_c, 0, 62, 100
2, 130172, Note_off_c, 0, 65, 100
2, 130176, Note_on_c, 0, 63, 80
2, 130364, Note_off_c, 0, 63, 100
2, 130368, Note_on_c, 0, 68, 80
2, 130368, Note_on_c, 0, 62, 80
2, 130652, Note_off_c, 0, 68, 100
2, 130656, Note_on_c, 0, 65, 80
2, 130748, Note_off_c, 0, 62, 100
2, 130748, Note_off_c, 0, 65, 100
2, 130752, Note_on_c, 0, 63, 80
2, 130940, Note_off_c, 0, 63, 100
2, 130944, Note_on_c, 0, 56, 80
2, 130944, Note_on_c, 0, 68, 80
2, 131036, Note_off_c, 0, 68, 100
2, 131040, Note_on_c, 0, 67, 80
2, 131132, Note_off_c, 0, 56, 100
2, 131132, Note_off_c, 0, 67, 100
2, 131136, Note_on_c, 0, 56, 80
2, 131136, Note_on_c, 0, 68, 80
2, 131228, Note_off_c, 0, 68, 100
2, 131232, Note_on_c, 0, 65, 80
2, 131324, Note_off_c, 0, 56, 100
2, 131324, Note_off_c, 0, 65, 100
2, 131328, Note_on_c, 0, 64, 80
2, 131388, Note_off_c, 0, 64, 100
2, 131392, Note_on_c, 0, 65, 80
2, 131452, Note_off_c, 0, 65, 100
2, 131456, Note_on_c, 0, 67, 80
2, 131516, Note_off_c, 0, 67, 100
2, 131520, Note_on_c, 0, 65, 80
2, 131520, Note_on_c, 0, 56, 80
2, 131900, Note_off_c, 0, 65, 100
2, 131900, Note_off_c, 0, 56, 100
2, 131904, Note_on_c, 0, 63, 80
2, 131904, Note_on_c, 0, 55, 80
2, 132476, Note_off_c, 0, 63, 100
2, 132476, Note_off_c, 0, 55, 100
2, 132672, Control_c, 0, 7, 0
2, 132864, Note_on_c, 0, 63, 1
2, 133052, Note_off_c, 0, 63, 100
2, 133052, End_track
3, 0, Start_track
3, 0, Title_t, "Left"
3, 0, Control_c, 1, 0, 0
3, 0, Program_c, 1, 0
3, 0, Control_c, 1, 7, 100
3, 0, Control_c, 1, 10, 55
3, 0, Control_c, 1, 91, 127
3, 0, Key_signature, -3, "major"
3, 0, Note_on_c, 1, 58, 70
3, 0, Note_on_c, 1, 51, 70
3, 0, Note_on_c, 1, 55, 70
3, 188, Note_off_c, 1, 58, 100
3, 188, Note_off_c, 1, 51, 100
3, 188, Note_off_c, 1, 55, 100
3, 192, Note_on_c, 1, 58, 70
3, 192, Note_on_c, 1, 55, 70
3, 192, Note_on_c, 1, 51, 70
3, 380, Note_off_c, 1, 58, 100
3, 380, Note_off_c, 1, 55, 100
3, 380, Note_off_c, 1, 51, 100
3, 384, Note_on_c, 1, 58, 70
3, 384, Note_on_c, 1, 55, 70
3, 384, Note_on_c, 1, 51, 70
3, 572, Note_off_c, 1, 58, 100
3, 572, Note_off_c, 1, 55, 100
3, 572, Note_off_c, 1, 51, 100
3, 576, Note_on_c, 1, 58, 70
3, 576, Note_on_c, 1, 51, 70
3, 576, Note_on_c, 1, 55, 70
3, 764, Note_off_c, 1, 58, 100
3, 764, Note_off_c, 1, 51, 100
3, 764, Note_off_c, 1, 55, 100
3, 768, Note_on_c, 1, 58, 70
3, 768, Note_on_c, 1, 55, 70
3, 768, Note_on_c, 1, 51, 70
3, 956, Note_off_c, 1, 58, 100
3, 956, Note_off_c, 1, 55, 100
3, 956, Note_off_c, 1, 51, 100
3, 960, Note_on_c, 1, 58, 70
3, 960, Note_on_c, 1, 55, 70
3, 960, Note_on_c, 1, 51, 70
3, 1148, Note_off_c, 1, 58, 100
3, 1148, Note_off_c, 1, 55, 100
3, 1148, Note_off_c, 1, 51, 100
3, 1152, Note_on_c, 1, 58, 70
3, 1152, Note_on_c, 1, 51, 70
3, 1152, Note_on_c, 1, 55, 70
3, 1340, Note_off_c, 1, 58, 100
3, 1340, Note_off_c, 1, 51, 100
3, 1340, Note_off_c, 1, 55, 100
3, 1344, Note_on_c, 1, 58, 70
3, 1344, Note_on_c, 1, 55, 70
3, 1344, Note_on_c, 1, 51, 70
3, 1532, Note_off_c, 1, 58, 100
3, 1532, Note_off_c, 1, 55, 100
3, 1532, Note_off_c, 1, 51, 100
3, 1536, Note_on_c, 1, 58, 70
3, 1536, Note_on_c, 1, 55, 70
3, 1536, Note_on_c, 1, 51, 70
3, 1724, Note_off_c, 1, 58, 100
3, 1724, Note_off_c, 1, 55, 100
3, 1724, Note_off_c, 1, 51, 100
3, 1728, Note_on_c, 1, 58, 70
3, 1728, Note_on_c, 1, 51, 70
3, 1728, Note_on_c, 1, 55, 70
3, 1916, Note_off_c, 1, 58, 100
3, 1916, Note_off_c, 1, 51, 100
3, 1916, Note_off_c, 1, 55, 100
3, 1920, Note_on_c, 1, 58, 70
3, 1920, Note_on_c, 1, 55, 70
3, 1920, Note_on_c, 1, 51, 70
3, 2108, Note_off_c, 1, 58, 100
3, 2108, Note_off_c, 1, 55, 100
3, 2108, Note_off_c, 1, 51, 100
3, 2112, Note_on_c, 1, 58, 70
3, 2112, Note_on_c, 1, 55, 70
3, 2112, Note_on_c, 1, 51, 70
3, 2300, Note_off_c, 1, 58, 100
3, 2300, Note_off_c, 1, 55, 100
3, 2300, Note_off_c, 1, 51, 100
3, 2304, Note_on_c, 1, 58, 70
3, 2304, Note_on_c, 1, 51, 70
3, 2304, Note_on_c, 1, 55, 70
3, 2492, Note_off_c, 1, 58, 100
3, 2492, Note_off_c, 1, 51, 100
3, 2492, Note_off_c, 1, 55, 100
3, 2496, Note_on_c, 1, 58, 70
3, 2496, Note_on_c, 1, 55, 70
3, 2496, Note_on_c, 1, 51, 70
3, 2684, Note_off_c, 1, 58, 100
3, 2684, Note_off_c, 1, 55, 100
3, 2684, Note_off_c, 1, 51, 100
3, 2688, Note_on_c, 1, 58, 70
3, 2688, Note_on_c, 1, 55, 70
3, 2688, Note_on_c, 1, 51, 70
3, 2876, Note_off_c, 1, 58, 100
3, 2876, Note_off_c, 1, 55, 100
3, 2876, Note_off_c, 1, 51, 100
3, 2880, Note_on_c, 1, 58, 70
3, 2880, Note_on_c, 1, 51, 70
3, 2880, Note_on_c, 1, 55, 70
3, 3068, Note_off_c, 1, 58, 100
3, 3068, Note_off_c, 1, 51, 100
3, 3068, Note_off_c, 1, 55, 100
3, 3072, Note_on_c, 1, 58, 70
3, 3072, Note_on_c, 1, 55, 70
3, 3072, Note_on_c, 1, 51, 70
3, 3260, Note_off_c, 1, 58, 100
3, 3260, Note_off_c, 1, 55, 100
3, 3260, Note_off_c, 1, 51, 100
3, 3264, Note_on_c, 1, 58, 70
3, 3264, Note_on_c, 1, 55, 70
3, 3264, Note_on_c, 1, 51, 70
3, 3452, Note_off_c, 1, 58, 100
3, 3452, Note_off_c, 1, 55, 100
3, 3452, Note_off_c, 1, 51, 100
3, 3456, Note_on_c, 1, 58, 70
3, 3456, Note_on_c, 1, 56, 70
3, 3456, Note_on_c, 1, 50, 70
3, 3644, Note_off_c, 1, 58, 100
3, 3644, Note_off_c, 1, 56, 100
3, 3644, Note_off_c, 1, 50, 100
3, 3648, Note_on_c, 1, 58, 70
3, 3648, Note_on_c, 1, 56, 70
3, 3648, Note_on_c, 1, 50, 70
3, 3836, Note_off_c, 1, 58, 100
3, 3836, Note_off_c, 1, 56, 100
3, 3836, Note_off_c, 1, 50, 100
3, 3840, Note_on_c, 1, 58, 70
3, 3840, Note_on_c, 1, 56, 70
3, 3840, Note_on_c, 1, 50, 70
3, 4028, Note_off_c, 1, 58, 100
3, 4028, Note_off_c, 1, 56, 100
3, 4028, Note_off_c, 1, 50, 100
3, 4032, Note_on_c, 1, 58, 70
3, 4032, Note_on_c, 1, 56, 70
3, 4032, Note_on_c, 1, 50, 70
3, 4220, Note_off_c, 1, 58, 100
3, 4220, Note_off_c, 1, 56, 100
3, 4220, Note_off_c, 1, 50, 100
3, 4224, Note_on_c, 1, 58, 70
3, 4224, Note_on_c, 1, 56, 70
3, 4224, Note_on_c, 1, 50, 70
3, 4412, Note_off_c, 1, 58, 100
3, 4412, Note_off_c, 1, 56, 100
3, 4412, Note_off_c, 1, 50, 100
3, 4416, Note_on_c, 1, 58, 70
3, 4416, Note_on_c, 1, 56, 70
3, 4416, Note_on_c, 1, 50, 70
3, 4604, Note_off_c, 1, 58, 100
3, 4604, Note_off_c, 1, 56, 100
3, 4604, Note_off_c, 1, 50, 100
3, 4608, Note_on_c, 1, 58, 70
3, 4608, Note_on_c, 1, 56, 70
3, 4608, Note_on_c, 1, 50, 70
3, 4796, Note_off_c, 1, 58, 100
3, 4796, Note_off_c, 1, 56, 100
3, 4796, Note_off_c, 1, 50, 100
3, 4800, Note_on_c, 1, 58, 70
3, 4800, Note_on_c, 1, 56, 70
3, 4800, Note_on_c, 1, 50, 70
3, 4988, Note_off_c, 1, 58, 100
3, 4988, Note_off_c, 1, 56, 100
3, 4988, Note_off_c, 1, 50, 100
3, 4992, Note_on_c, 1, 58, 70
3, 4992, Note_on_c, 1, 56, 70
3, 4992, Note_on_c, 1, 50, 70
3, 5180, Note_off_c, 1, 58, 100
3, 5180, Note_off_c, 1, 56, 100
3, 5180, Note_off_c, 1, 50, 100
3, 5184, Note_on_c, 1, 58, 70
3, 5184, Note_on_c, 1, 56, 70
3, 5184, Note_on_c, 1, 53, 70
3, 5184, Note_on_c, 1, 50, 70
3, 5372, Note_off_c, 1, 58, 100
3, 5372, Note_off_c, 1, 56, 100
3, 5372, Note_off_c, 1, 53, 100
3, 5372, Note_off_c, 1, 50, 100
3, 5376, Note_on_c, 1, 58, 70
3, 5376, Note_on_c, 1, 56, 70
3, 5376, Note_on_c, 1, 53, 70
3, 5376, Note_on_c, 1, 50, 70
3, 5564, Note_off_c, 1, 58, 100
3, 5564, Note_off_c, 1, 56, 100
3, 5564, Note_off_c, 1, 53, 100
3, 5564, Note_off_c, 1, 50, 100
3, 5568, Note_on_c, 1, 58, 70
3, 5568, Note_on_c, 1, 56, 70
3, 5568, Note_on_c, 1, 53, 70
3, 5568, Note_on_c, 1, 50, 70
3, 5756, Note_off_c, 1, 58, 100
3, 5756, Note_off_c, 1, 56, 100
3, 5756, Note_off_c, 1, 53, 100
3, 5756, Note_off_c, 1, 50, 100
3, 5760, Note_on_c, 1, 58, 70
3, 5760, Note_on_c, 1, 56, 70
3, 5760, Note_on_c, 1, 53, 70
3, 5760, Note_on_c, 1, 50, 70
3, 5948, Note_off_c, 1, 58, 100
3, 5948, Note_off_c, 1, 56, 100
3, 5948, Note_off_c, 1, 53, 100
3, 5948, Note_off_c, 1, 50, 100
3, 5952, Note_on_c, 1, 58, 70
3, 5952, Note_on_c, 1, 56, 70
3, 5952, Note_on_c, 1, 53, 70
3, 5952, Note_on_c, 1, 50, 70
3, 6140, Note_off_c, 1, 58, 100
3, 6140, Note_off_c, 1, 56, 100
3, 6140, Note_off_c, 1, 53, 100
3, 6140, Note_off_c, 1, 50, 100
3, 6144, Note_on_c, 1, 58, 70
3, 6144, Note_on_c, 1, 56, 70
3, 6144, Note_on_c, 1, 53, 70
3, 6144, Note_on_c, 1, 50, 70
3, 6332, Note_off_c, 1, 58, 100
3, 6332, Note_off_c, 1, 56, 100
3, 6332, Note_off_c, 1, 53, 100
3, 6332, Note_off_c, 1, 50, 100
3, 6336, Note_on_c, 1, 58, 70
3, 6336, Note_on_c, 1, 56, 70
3, 6336, Note_on_c, 1, 53, 70
3, 6336, Note_on_c, 1, 50, 70
3, 6524, Note_off_c, 1, 58, 100
3, 6524, Note_off_c, 1, 56, 100
3, 6524, Note_off_c, 1, 53, 100
3, 6524, Note_off_c, 1, 50, 100
3, 6528, Note_on_c, 1, 58, 70
3, 6528, Note_on_c, 1, 56, 70
3, 6528, Note_on_c, 1, 53, 70
3, 6528, Note_on_c, 1, 50, 70
3, 6716, Note_off_c, 1, 58, 100
3, 6716, Note_off_c, 1, 56, 100
3, 6716, Note_off_c, 1, 53, 100
3, 6716, Note_off_c, 1, 50, 100
3, 6720, Note_on_c, 1, 58, 70
3, 6720, Note_on_c, 1, 56, 70
3, 6720, Note_on_c, 1, 53, 70
3, 6720, Note_on_c, 1, 50, 70
3, 6908, Note_off_c, 1, 58, 100
3, 6908, Note_off_c, 1, 56, 100
3, 6908, Note_off_c, 1, 53, 100
3, 6908, Note_off_c, 1, 50, 100
3, 6912, Note_on_c, 1, 58, 70
3, 6912, Note_on_c, 1, 56, 70
3, 6912, Note_on_c, 1, 51, 70
3, 7100, Note_off_c, 1, 58, 100
3, 7100, Note_off_c, 1, 56, 100
3, 7100, Note_off_c, 1, 51, 100
3, 7104, Note_on_c, 1, 58, 70
3, 7104, Note_on_c, 1, 56, 70
3, 7104, Note_on_c, 1, 51, 70
3, 7292, Note_off_c, 1, 58, 100
3, 7292, Note_off_c, 1, 56, 100
3, 7292, Note_off_c, 1, 51, 100
3, 7296, Note_on_c, 1, 58, 70
3, 7296, Note_on_c, 1, 56, 70
3, 7296, Note_on_c, 1, 51, 70
3, 7484, Note_off_c, 1, 58, 100
3, 7484, Note_off_c, 1, 56, 100
3, 7484, Note_off_c, 1, 51, 100
3, 7488, Note_on_c, 1, 58, 70
3, 7488, Note_on_c, 1, 55, 70
3, 7488, Note_on_c, 1, 51, 70
3, 7676, Note_off_c, 1, 58, 100
3, 7676, Note_off_c, 1, 55, 100
3, 7676, Note_off_c, 1, 51, 100
3, 7680, Note_on_c, 1, 55, 70
3, 7680, Note_on_c, 1, 51, 70
3, 7680, Note_on_c, 1, 58, 70
3, 7868, Note_off_c, 1, 55, 100
3, 7868, Note_off_c, 1, 51, 100
3, 7868, Note_off_c, 1, 58, 100
3, 7872, Note_on_c, 1, 58, 70
3, 7872, Note_on_c, 1, 55, 70
3, 7872, Note_on_c, 1, 51, 70
3, 8060, Note_off_c, 1, 58, 100
3, 8060, Note_off_c, 1, 55, 100
3, 8060, Note_off_c, 1, 51, 100
3, 8064, Note_on_c, 1, 51, 70
3, 8252, Note_off_c, 1, 51, 100
3, 8256, Note_on_c, 1, 46, 70
3, 8444, Note_off_c, 1, 46, 100
3, 8448, Note_on_c, 1, 44, 70
3, 8636, Note_off_c, 1, 44, 100
3, 8640, Note_on_c, 1, 43, 80
3, 8828, Note_off_c, 1, 43, 100
3, 8832, Note_on_c, 1, 51, 80
3, 8832, Note_on_c, 1, 46, 80
3, 8832, Note_on_c, 1, 43, 80
3, 9020, Note_off_c, 1, 51, 100
3, 9020, Note_off_c, 1, 46, 100
3, 9020, Note_off_c, 1, 43, 100
3, 9024, Note_on_c, 1, 51, 80
3, 9024, Note_on_c, 1, 46, 80
3, 9024, Note_on_c, 1, 43, 80
3, 9212, Note_off_c, 1, 51, 100
3, 9212, Note_off_c, 1, 46, 100
3, 9212, Note_off_c, 1, 43, 100
3, 9216, Note_on_c, 1, 51, 80
3, 9216, Note_on_c, 1, 46, 80
3, 9216, Note_on_c, 1, 43, 80
3, 9404, Note_off_c, 1, 51, 100
3, 9404, Note_off_c, 1, 46, 100
3, 9404, Note_off_c, 1, 43, 100
3, 9408, Note_on_c, 1, 51, 80
3, 9408, Note_on_c, 1, 46, 80
3, 9408, Note_on_c, 1, 43, 80
3, 9596, Note_off_c, 1, 51, 100
3, 9596, Note_off_c, 1, 46, 100
3, 9596, Note_off_c, 1, 43, 100
3, 9600, Note_on_c, 1, 51, 80
3, 9600, Note_on_c, 1, 46, 80
3, 9600, Note_on_c, 1, 43, 80
3, 9788, Note_off_c, 1, 51, 100
3, 9788, Note_off_c, 1, 46, 100
3, 9788, Note_off_c, 1, 43, 100
3, 9792, Note_on_c, 1, 51, 80
3, 9792, Note_on_c, 1, 46, 80
3, 9792, Note_on_c, 1, 43, 80
3, 9980, Note_off_c, 1, 51, 100
3, 9980, Note_off_c, 1, 46, 100
3, 9980, Note_off_c, 1, 43, 100
3, 9984, Note_on_c, 1, 51, 80
3, 9984, Note_on_c, 1, 46, 80
3, 9984, Note_on_c, 1, 43, 80
3, 10172, Note_off_c, 1, 51, 100
3, 10172, Note_off_c, 1, 46, 100
3, 10172, Note_off_c, 1, 43, 100
3, 10176, Note_on_c, 1, 51, 80
3, 10176, Note_on_c, 1, 46, 80
3, 10176, Note_on_c, 1, 43, 80
3, 10364, Note_off_c, 1, 51, 100
3, 10364, Note_off_c, 1, 46, 100
3, 10364, Note_off_c, 1, 43, 100
3, 10368, Note_on_c, 1, 51, 80
3, 10368, Note_on_c, 1, 48, 80
3, 10368, Note_on_c, 1, 44, 80
3, 10556, Note_off_c, 1, 51, 100
3, 10556, Note_off_c, 1, 48, 100
3, 10556, Note_off_c, 1, 44, 100
3, 10560, Note_on_c, 1, 51, 80
3, 10560, Note_on_c, 1, 48, 80
3, 10560, Note_on_c, 1, 44, 80
3, 10748, Note_off_c, 1, 51, 100
3, 10748, Note_off_c, 1, 48, 100
3, 10748, Note_off_c, 1, 44, 100
3, 10752, Note_on_c, 1, 51, 80
3, 10752, Note_on_c, 1, 48, 80
3, 10752, Note_on_c, 1, 44, 80
3, 10940, Note_off_c, 1, 51, 100
3, 10940, Note_off_c, 1, 48, 100
3, 10940, Note_off_c, 1, 44, 100
3, 10944, Note_on_c, 1, 52, 80
3, 10944, Note_on_c, 1, 48, 80
3, 10944, Note_on_c, 1, 44, 80
3, 11132, Note_off_c, 1, 52, 100
3, 11132, Note_off_c, 1, 48, 100
3, 11132, Note_off_c, 1, 44, 100
3, 11136, Note_on_c, 1, 52, 80
3, 11136, Note_on_c, 1, 48, 80
3, 11136, Note_on_c, 1, 44, 80
3, 11324, Note_off_c, 1, 52, 100
3, 11324, Note_off_c, 1, 48, 100
3, 11324, Note_off_c, 1, 44, 100
3, 11328, Note_on_c, 1, 52, 80
3, 11328, Note_on_c, 1, 48, 80
3, 11328, Note_on_c, 1, 44, 80
3, 11516, Note_off_c, 1, 52, 100
3, 11516, Note_off_c, 1, 48, 100
3, 11516, Note_off_c, 1, 44, 100
3, 11520, Note_on_c, 1, 53, 80
3, 11520, Note_on_c, 1, 48, 80
3, 11520, Note_on_c, 1, 44, 80
3, 11708, Note_off_c, 1, 53, 100
3, 11708, Note_off_c, 1, 48, 100
3, 11708, Note_off_c, 1, 44, 100
3, 11712, Note_on_c, 1, 53, 80
3, 11712, Note_on_c, 1, 48, 80
3, 11712, Note_on_c, 1, 44, 80
3, 11900, Note_off_c, 1, 53, 100
3, 11900, Note_off_c, 1, 48, 100
3, 11900, Note_off_c, 1, 44, 100
3, 11904, Note_on_c, 1, 53, 80
3, 11904, Note_on_c, 1, 48, 80
3, 11904, Note_on_c, 1, 44, 80
3, 12092, Note_off_c, 1, 53, 100
3, 12092, Note_off_c, 1, 48, 100
3, 12092, Note_off_c, 1, 44, 100
3, 12096, Note_on_c, 1, 55, 80
3, 12096, Note_on_c, 1, 51, 80
3, 12096, Note_on_c, 1, 46, 80
3, 12284, Note_off_c, 1, 55, 100
3, 12284, Note_off_c, 1, 51, 100
3, 12284, Note_off_c, 1, 46, 100
3, 12288, Note_on_c, 1, 55, 80
3, 12288, Note_on_c, 1, 51, 80
3, 12288, Note_on_c, 1, 46, 80
3, 12476, Note_off_c, 1, 55, 100
3, 12476, Note_off_c, 1, 51, 100
3, 12476, Note_off_c, 1, 46, 100
3, 12480, Note_on_c, 1, 55, 80
3, 12480, Note_on_c, 1, 51, 80
3, 12480, Note_on_c, 1, 46, 80
3, 12668, Note_off_c, 1, 55, 100
3, 12668, Note_off_c, 1, 51, 100
3, 12668, Note_off_c, 1, 46, 100
3, 12672, Note_on_c, 1, 55, 80
3, 12672, Note_on_c, 1, 51, 80
3, 12672, Note_on_c, 1, 46, 80
3, 12860, Note_off_c, 1, 55, 100
3, 12860, Note_off_c, 1, 51, 100
3, 12860, Note_off_c, 1, 46, 100
3, 12864, Note_on_c, 1, 55, 80
3, 12864, Note_on_c, 1, 51, 80
3, 12864, Note_on_c, 1, 46, 80
3, 13052, Note_off_c, 1, 55, 100
3, 13052, Note_off_c, 1, 51, 100
3, 13052, Note_off_c, 1, 46, 100
3, 13056, Note_on_c, 1, 55, 80
3, 13056, Note_on_c, 1, 51, 80
3, 13056, Note_on_c, 1, 46, 80
3, 13244, Note_off_c, 1, 55, 100
3, 13244, Note_off_c, 1, 51, 100
3, 13244, Note_off_c, 1, 46, 100
3, 13248, Note_on_c, 1, 56, 80
3, 13248, Note_on_c, 1, 53, 80
3, 13248, Note_on_c, 1, 46, 80
3, 13436, Note_off_c, 1, 56, 100
3, 13436, Note_off_c, 1, 53, 100
3, 13436, Note_off_c, 1, 46, 100
3, 13440, Note_on_c, 1, 56, 80
3, 13440, Note_on_c, 1, 53, 80
3, 13440, Note_on_c, 1, 46, 80
3, 13628, Note_off_c, 1, 56, 100
3, 13628, Note_off_c, 1, 53, 100
3, 13628, Note_off_c, 1, 46, 100
3, 13632, Note_on_c, 1, 56, 80
3, 13632, Note_on_c, 1, 53, 80
3, 13632, Note_on_c, 1, 46, 80
3, 13820, Note_off_c, 1, 56, 100
3, 13820, Note_off_c, 1, 53, 100
3, 13820, Note_off_c, 1, 46, 100
3, 13824, Note_on_c, 1, 55, 80
3, 13824, Note_on_c, 1, 51, 80
3, 14204, Note_off_c, 1, 55, 100
3, 14204, Note_off_c, 1, 51, 100
3, 14976, Note_on_c, 1, 58, 80
3, 14976, Note_on_c, 1, 46, 80
3, 15356, Note_off_c, 1, 58, 100
3, 15360, Note_on_c, 1, 56, 80
3, 15548, Note_off_c, 1, 46, 100
3, 15548, Note_off_c, 1, 56, 100
3, 15552, Note_on_c, 1, 55, 80
3, 15552, Note_on_c, 1, 51, 80
3, 15932, Note_off_c, 1, 55, 100
3, 15932, Note_off_c, 1, 51, 100
3, 16704, Note_on_c, 1, 46, 80
3, 16704, Note_on_c, 1, 34, 80
3, 17084, Note_off_c, 1, 46, 100
3, 17088, Note_on_c, 1, 44, 80
3, 17276, Note_off_c, 1, 34, 100
3, 17276, Note_off_c, 1, 44, 100
3, 17280, Note_on_c, 1, 43, 80
3, 17280, Note_on_c, 1, 39, 80
3, 17660, Note_off_c, 1, 43, 100
3, 17660, Note_off_c, 1, 39, 100
3, 17664, Note_on_c, 1, 44, 90
3, 17664, Note_on_c, 1, 34, 90
3, 17852, Note_off_c, 1, 44, 100
3, 17852, Note_off_c, 1, 34, 100
3, 17856, Note_on_c, 1, 43, 80
3, 17856, Note_on_c, 1, 39, 80
3, 18236, Note_off_c, 1, 43, 100
3, 18236, Note_off_c, 1, 39, 100
3, 18240, Note_on_c, 1, 44, 90
3, 18240, Note_on_c, 1, 34, 90
3, 18428, Note_off_c, 1, 44, 100
3, 18428, Note_off_c, 1, 34, 100
3, 18432, Note_on_c, 1, 43, 80
3, 18432, Note_on_c, 1, 39, 80
3, 18812, Note_off_c, 1, 43, 100
3, 18812, Note_off_c, 1, 39, 100
3, 18816, Note_on_c, 1, 44, 90
3, 18816, Note_on_c, 1, 34, 90
3, 19004, Note_off_c, 1, 44, 100
3, 19004, Note_off_c, 1, 34, 100
3, 19008, Note_on_c, 1, 44, 80
3, 19008, Note_on_c, 1, 39, 80
3, 19580, Note_off_c, 1, 44, 100
3, 19584, Note_on_c, 1, 43, 70
3, 19964, Note_off_c, 1, 39, 100
3, 19964, Note_off_c, 1, 43, 100
3, 20736, Note_on_c, 1, 39, 80
3, 20924, Note_off_c, 1, 39, 100
3, 20928, Note_on_c, 1, 43, 80
3, 21116, Note_off_c, 1, 43, 100
3, 21120, Note_on_c, 1, 46, 80
3, 21308, Note_off_c, 1, 46, 100
3, 21312, Note_on_c, 1, 51, 80
3, 21500, Note_off_c, 1, 51, 100
3, 21504, Note_on_c, 1, 55, 80
3, 21692, Note_off_c, 1, 55, 100
3, 21696, Note_on_c, 1, 58, 80
3, 21884, Note_off_c, 1, 58, 100
3, 21888, Note_on_c, 1, 58, 80
3, 21888, Note_on_c, 1, 46, 80
3, 22268, Note_off_c, 1, 58, 100
3, 22268, Note_off_c, 1, 46, 100
3, 22272, Note_on_c, 1, 56, 80
3, 22272, Note_on_c, 1, 46, 80
3, 22460, Note_off_c, 1, 56, 100
3, 22460, Note_off_c, 1, 46, 100
3, 22464, Note_on_c, 1, 56, 80
3, 22464, Note_on_c, 1, 51, 80
3, 23036, Note_off_c, 1, 56, 100
3, 23040, Note_on_c, 1, 55, 80
3, 23420, Note_off_c, 1, 51, 100
3, 23420, Note_off_c, 1, 55, 100
3, 24192, Note_on_c, 1, 39, 80
3, 24380, Note_off_c, 1, 39, 100
3, 24384, Note_on_c, 1, 43, 80
3, 24572, Note_off_c, 1, 43, 100
3, 24576, Note_on_c, 1, 46, 80
3, 24764, Note_off_c, 1, 46, 100
3, 24768, Note_on_c, 1, 51, 80
3, 24956, Note_off_c, 1, 51, 100
3, 24960, Note_on_c, 1, 55, 80
3, 25148, Note_off_c, 1, 55, 100
3, 25152, Note_on_c, 1, 58, 85
3, 25340, Note_off_c, 1, 58, 100
3, 25344, Note_on_c, 1, 63, 91
3, 25532, Note_off_c, 1, 63, 100
3, 25536, Note_on_c, 1, 60, 97
3, 25724, Note_off_c, 1, 60, 100
3, 25728, Note_on_c, 1, 58, 103
3, 25916, Note_off_c, 1, 58, 100
3, 25920, Note_on_c, 1, 57, 109
3, 26492, Note_off_c, 1, 57, 100
3, 26496, Note_on_c, 1, 57, 80
3, 27068, Note_off_c, 1, 57, 100
3, 27072, Note_on_c, 1, 58, 80
3, 27644, Note_off_c, 1, 58, 100
3, 27648, Note_on_c, 1, 51, 80
3, 28220, Note_off_c, 1, 51, 100
3, 28224, Note_on_c, 1, 52, 77
3, 28796, Note_off_c, 1, 52, 100
3, 28800, Note_on_c, 1, 53, 73
3, 29372, Note_off_c, 1, 53, 100
3, 29376, Note_on_c, 1, 34, 80
3, 29568, Note_on_c, 1, 46, 80
3, 29756, Note_off_c, 1, 46, 100
3, 29760, Note_on_c, 1, 46, 80
3, 29948, Note_off_c, 1, 46, 100
3, 29952, Note_on_c, 1, 46, 80
3, 30140, Note_off_c, 1, 46, 100
3, 30144, Note_on_c, 1, 46, 80
3, 30332, Note_off_c, 1, 46, 100
3, 30336, Note_on_c, 1, 46, 80
3, 30524, Note_off_c, 1, 46, 100
3, 30528, Note_on_c, 1, 46, 80
3, 30716, Note_off_c, 1, 46, 100
3, 30720, Note_on_c, 1, 46, 80
3, 30908, Note_off_c, 1, 46, 100
3, 30912, Note_on_c, 1, 46, 80
3, 31100, Note_off_c, 1, 34, 100
3, 31100, Note_off_c, 1, 46, 100
3, 31104, Note_on_c, 1, 46, 80
3, 31292, Note_off_c, 1, 46, 100
3, 31296, Note_on_c, 1, 46, 80
3, 31484, Note_off_c, 1, 46, 100
3, 31488, Note_on_c, 1, 46, 80
3, 31488, Note_on_c, 1, 58, 80
3, 31580, Note_off_c, 1, 58, 100
3, 31584, Note_on_c, 1, 57, 80
3, 31676, Note_off_c, 1, 46, 100
3, 31676, Note_off_c, 1, 57, 100
3, 31680, Note_on_c, 1, 46, 80
3, 31680, Note_on_c, 1, 57, 80
3, 31868, Note_off_c, 1, 46, 100
3, 31872, Note_on_c, 1, 46, 80
3, 32060, Note_off_c, 1, 57, 100
3, 32060, Note_off_c, 1, 46, 100
3, 32064, Note_on_c, 1, 46, 80
3, 32064, Note_on_c, 1, 55, 80
3, 32156, Note_off_c, 1, 55, 100
3, 32160, Note_on_c, 1, 53, 80
3, 32252, Note_off_c, 1, 46, 100
3, 32252, Note_off_c, 1, 53, 100
3, 32256, Note_on_c, 1, 46, 80
3, 32256, Note_on_c, 1, 53, 80
3, 32444, Note_off_c, 1, 46, 100
3, 32448, Note_on_c, 1, 46, 80
3, 32540, Note_off_c, 1, 53, 100
3, 32544, Note_on_c, 1, 51, 80
3, 32636, Note_off_c, 1, 46, 100
3, 32636, Note_off_c, 1, 51, 100
3, 32640, Note_on_c, 1, 46, 80
3, 32640, Note_on_c, 1, 50, 80
3, 32732, Note_off_c, 1, 50, 100
3, 32736, Note_on_c, 1, 51, 80
3, 32828, Note_off_c, 1, 46, 100
3, 32828, Note_off_c, 1, 51, 100
3, 32832, Note_on_c, 1, 50, 80
3, 32832, Note_on_c, 1, 46, 80
3, 33020, Note_off_c, 1, 46, 100
3, 33024, Note_on_c, 1, 46, 80
3, 33212, Note_off_c, 1, 50, 100
3, 33212, Note_off_c, 1, 46, 100
3, 33216, Note_on_c, 1, 46, 80
3, 33404, Note_off_c, 1, 46, 100
3, 33408, Note_on_c, 1, 46, 80
3, 33596, Note_off_c, 1, 46, 100
3, 33600, Note_on_c, 1, 46, 80
3, 33788, Note_off_c, 1, 46, 100
3, 33792, Note_on_c, 1, 46, 80
3, 33980, Note_off_c, 1, 46, 100
3, 33984, Note_on_c, 1, 46, 80
3, 34172, Note_off_c, 1, 46, 100
3, 34176, Note_on_c, 1, 46, 80
3, 34364, Note_off_c, 1, 46, 100
3, 34368, Note_on_c, 1, 46, 80
3, 34556, Note_off_c, 1, 46, 100
3, 34560, Note_on_c, 1, 46, 80
3, 34748, Note_off_c, 1, 46, 100
3, 34752, Note_on_c, 1, 46, 80
3, 34940, Note_off_c, 1, 46, 100
3, 34944, Note_on_c, 1, 46, 80
3, 35132, Note_off_c, 1, 46, 100
3, 35136, Note_on_c, 1, 46, 80
3, 35324, Note_off_c, 1, 46, 100
3, 35328, Note_on_c, 1, 46, 80
3, 35516, Note_off_c, 1, 46, 100
3, 35520, Note_on_c, 1, 46, 80
3, 35520, Note_on_c, 1, 58, 80
3, 35612, Note_off_c, 1, 58, 100
3, 35616, Note_on_c, 1, 57, 80
3, 35708, Note_off_c, 1, 46, 100
3, 35708, Note_off_c, 1, 57, 100
3, 35712, Note_on_c, 1, 46, 80
3, 35712, Note_on_c, 1, 57, 80
3, 35804, Note_off_c, 1, 57, 100
3, 35808, Note_on_c, 1, 55, 80
3, 35900, Note_off_c, 1, 46, 100
3, 35900, Note_off_c, 1, 55, 100
3, 35904, Note_on_c, 1, 46, 80
3, 35904, Note_on_c, 1, 53, 80
3, 35996, Note_off_c, 1, 53, 100
3, 36000, Note_on_c, 1, 51, 80
3, 36092, Note_off_c, 1, 46, 100
3, 36092, Note_off_c, 1, 51, 100
3, 36096, Note_on_c, 1, 46, 80
3, 36096, Note_on_c, 1, 50, 80
3, 36188, Note_off_c, 1, 50, 100
3, 36192, Note_on_c, 1, 48, 80
3, 36284, Note_off_c, 1, 46, 100
3, 36284, Note_off_c, 1, 48, 100
3, 36288, Note_on_c, 1, 46, 80
3, 36668, Note_off_c, 1, 46, 100
3, 36864, Note_on_c, 1, 58, 80
3, 36864, Note_on_c, 1, 53, 80
3, 36864, Note_on_c, 1, 50, 80
3, 37244, Note_off_c, 1, 58, 100
3, 37244, Note_off_c, 1, 53, 100
3, 37244, Note_off_c, 1, 50, 100
3, 37440, Note_on_c, 1, 65, 80
3, 37440, Note_on_c, 1, 62, 80
3, 37440, Note_on_c, 1, 70, 80
3, 37820, Note_off_c, 1, 65, 100
3, 37820, Note_off_c, 1, 62, 100
3, 37820, Note_off_c, 1, 70, 100
3, 38016, Note_on_c, 1, 70, 80
3, 38016, Note_on_c, 1, 67, 80
3, 38016, Note_on_c, 1, 63, 80
3, 38396, Note_off_c, 1, 70, 100
3, 38396, Note_off_c, 1, 67, 100
3, 38396, Note_off_c, 1, 63, 100
3, 38592, Note_on_c, 1, 55, 80
3, 38592, Note_on_c, 1, 58, 80
3, 38592, Note_on_c, 1, 63, 80
3, 38972, Note_off_c, 1, 55, 100
3, 38972, Note_off_c, 1, 58, 100
3, 38972, Note_off_c, 1, 63, 100
3, 39168, Note_on_c, 1, 52, 80
3, 39168, Note_on_c, 1, 60, 80
3, 39168, Note_on_c, 1, 58, 80
3, 39548, Note_off_c, 1, 52, 100
3, 39548, Note_off_c, 1, 60, 100
3, 39548, Note_off_c, 1, 58, 100
3, 39744, Note_on_c, 1, 53, 80
3, 39936, Note_on_c, 1, 58, 80
3, 39936, Note_on_c, 1, 62, 80
3, 40124, Note_off_c, 1, 58, 100
3, 40124, Note_off_c, 1, 62, 100
3, 40128, Note_on_c, 1, 58, 80
3, 40128, Note_on_c, 1, 62, 80
3, 40316, Note_off_c, 1, 58, 100
3, 40316, Note_off_c, 1, 62, 100
3, 40320, Note_on_c, 1, 58, 80
3, 40320, Note_on_c, 1, 62, 80
3, 40508, Note_off_c, 1, 58, 100
3, 40508, Note_off_c, 1, 62, 100
3, 40512, Note_on_c, 1, 58, 80
3, 40512, Note_on_c, 1, 62, 80
3, 40700, Note_off_c, 1, 58, 100
3, 40700, Note_off_c, 1, 62, 100
3, 40704, Note_on_c, 1, 58, 80
3, 40704, Note_on_c, 1, 62, 80
3, 40892, Note_off_c, 1, 53, 100
3, 40892, Note_off_c, 1, 58, 100
3, 40892, Note_off_c, 1, 62, 100
3, 40896, Note_on_c, 1, 53, 80
3, 40896, Note_on_c, 1, 57, 80
3, 40896, Note_on_c, 1, 63, 80
3, 41084, Note_off_c, 1, 57, 100
3, 41084, Note_off_c, 1, 63, 100
3, 41088, Note_on_c, 1, 57, 80
3, 41088, Note_on_c, 1, 63, 80
3, 41276, Note_off_c, 1, 57, 100
3, 41276, Note_off_c, 1, 63, 100
3, 41280, Note_on_c, 1, 57, 80
3, 41280, Note_on_c, 1, 63, 80
3, 41468, Note_off_c, 1, 53, 100
3, 41468, Note_off_c, 1, 57, 100
3, 41468, Note_off_c, 1, 63, 100
3, 41472, Note_on_c, 1, 58, 80
3, 41472, Note_on_c, 1, 62, 80
3, 41852, Note_off_c, 1, 58, 100
3, 41852, Note_off_c, 1, 62, 100
3, 43200, Note_on_c, 1, 41, 80
3, 43392, Note_on_c, 1, 50, 80
3, 43392, Note_on_c, 1, 46, 80
3, 43580, Note_off_c, 1, 50, 100
3, 43580, Note_off_c, 1, 46, 100
3, 43584, Note_on_c, 1, 50, 80
3, 43584, Note_on_c, 1, 46, 80
3, 43772, Note_off_c, 1, 50, 100
3, 43772, Note_off_c, 1, 46, 100
3, 43776, Note_on_c, 1, 50, 80
3, 43776, Note_on_c, 1, 46, 80
3, 43964, Note_off_c, 1, 50, 100
3, 43964, Note_off_c, 1, 46, 100
3, 43968, Note_on_c, 1, 50, 80
3, 43968, Note_on_c, 1, 46, 80
3, 44156, Note_off_c, 1, 50, 100
3, 44156, Note_off_c, 1, 46, 100
3, 44160, Note_on_c, 1, 50, 80
3, 44160, Note_on_c, 1, 46, 80
3, 44348, Note_off_c, 1, 41, 100
3, 44348, Note_off_c, 1, 50, 100
3, 44348, Note_off_c, 1, 46, 100
3, 44352, Note_on_c, 1, 41, 80
3, 44352, Note_on_c, 1, 45, 80
3, 44352, Note_on_c, 1, 51, 80
3, 44540, Note_off_c, 1, 45, 100
3, 44540, Note_off_c, 1, 51, 100
3, 44544, Note_on_c, 1, 51, 80
3, 44544, Note_on_c, 1, 48, 80
3, 44732, Note_off_c, 1, 51, 100
3, 44732, Note_off_c, 1, 48, 100
3, 44736, Note_on_c, 1, 51, 80
3, 44736, Note_on_c, 1, 48, 80
3, 44924, Note_off_c, 1, 41, 100
3, 44924, Note_off_c, 1, 51, 100
3, 44924, Note_off_c, 1, 48, 100
3, 44928, Note_on_c, 1, 46, 80
3, 45116, Note_off_c, 1, 46, 100
3, 45120, Note_on_c, 1, 50, 80
3, 45308, Note_off_c, 1, 50, 100
3, 45312, Note_on_c, 1, 53, 80
3, 45500, Note_off_c, 1, 53, 100
3, 45504, Note_on_c, 1, 58, 80
3, 45692, Note_off_c, 1, 58, 100
3, 45696, Note_on_c, 1, 62, 80
3, 45884, Note_off_c, 1, 62, 100
3, 45888, Note_on_c, 1, 64, 80
3, 46076, Note_off_c, 1, 64, 100
3, 46080, Note_on_c, 1, 65, 80
3, 46460, Note_off_c, 1, 65, 100
3, 46464, Note_on_c, 1, 53, 80
3, 46464, Note_on_c, 1, 60, 80
3, 46604, Note_off_c, 1, 60, 100
3, 46608, Note_on_c, 1, 63, 80
3, 46652, Note_off_c, 1, 53, 100
3, 46652, Note_off_c, 1, 63, 100
3, 46656, Note_on_c, 1, 34, 80
3, 46844, Note_off_c, 1, 34, 100
3, 46848, Note_on_c, 1, 38, 80
3, 47036, Note_off_c, 1, 38, 100
3, 47040, Note_on_c, 1, 41, 80
3, 47228, Note_off_c, 1, 41, 100
3, 47232, Note_on_c, 1, 46, 80
3, 47420, Note_off_c, 1, 46, 100
3, 47424, Note_on_c, 1, 50, 80
3, 47612, Note_off_c, 1, 50, 100
3, 47616, Note_on_c, 1, 52, 80
3, 47804, Note_off_c, 1, 52, 100
3, 47808, Note_on_c, 1, 53, 80
3, 48188, Note_off_c, 1, 53, 100
3, 48192, Note_on_c, 1, 41, 80
3, 48192, Note_on_c, 1, 48, 80
3, 48332, Note_off_c, 1, 48, 100
3, 48336, Note_on_c, 1, 51, 80
3, 48380, Note_off_c, 1, 41, 100
3, 48380, Note_off_c, 1, 51, 100
3, 48384, Note_on_c, 1, 50, 80
3, 48384, Note_on_c, 1, 46, 80
3, 48572, Note_off_c, 1, 50, 100
3, 48572, Note_off_c, 1, 46, 100
3, 48576, Note_on_c, 1, 48, 80
3, 48576, Note_on_c, 1, 41, 80
3, 48860, Note_off_c, 1, 48, 100
3, 48864, Note_on_c, 1, 51, 80
3, 48956, Note_off_c, 1, 41, 100
3, 48956, Note_off_c, 1, 51, 100
3, 48960, Note_on_c, 1, 50, 80
3, 48960, Note_on_c, 1, 46, 80
3, 49148, Note_off_c, 1, 50, 100
3, 49148, Note_off_c, 1, 46, 100
3, 49152, Note_on_c, 1, 48, 80
3, 49152, Note_on_c, 1, 41, 80
3, 49436, Note_off_c, 1, 48, 100
3, 49440, Note_on_c, 1, 51, 80
3, 49532, Note_off_c, 1, 41, 100
3, 49532, Note_off_c, 1, 51, 100
3, 49536, Note_on_c, 1, 46, 80
3, 49536, Note_on_c, 1, 50, 80
3, 49724, Note_off_c, 1, 46, 100
3, 49724, Note_off_c, 1, 50, 100
3, 49728, Note_on_c, 1, 41, 80
3, 49728, Note_on_c, 1, 48, 80
3, 49820, Note_off_c, 1, 48, 100
3, 49824, Note_on_c, 1, 47, 80
3, 49916, Note_off_c, 1, 41, 100
3, 49916, Note_off_c, 1, 47, 100
3, 49920, Note_on_c, 1, 41, 80
3, 49920, Note_on_c, 1, 48, 80
3, 50012, Note_off_c, 1, 48, 100
3, 50016, Note_on_c, 1, 51, 80
3, 50108, Note_off_c, 1, 41, 100
3, 50108, Note_off_c, 1, 51, 100
3, 50208, Note_on_c, 1, 51, 80
3, 50208, Note_on_c, 1, 46, 80
3, 50684, Note_off_c, 1, 51, 100
3, 50684, Note_off_c, 1, 46, 100
3, 50688, Note_on_c, 1, 50, 80
3, 50688, Note_on_c, 1, 46, 80
3, 51068, Note_off_c, 1, 50, 100
3, 51068, Note_off_c, 1, 46, 100
3, 51840, Note_on_c, 1, 43, 80
3, 51840, Note_on_c, 1, 31, 80
3, 52028, Note_off_c, 1, 43, 100
3, 52028, Note_off_c, 1, 31, 100
3, 52032, Note_on_c, 1, 31, 80
3, 52032, Note_on_c, 1, 43, 80
3, 52220, Note_off_c, 1, 31, 100
3, 52220, Note_off_c, 1, 43, 100
3, 52224, Note_on_c, 1, 43, 80
3, 52224, Note_on_c, 1, 31, 80
3, 52412, Note_off_c, 1, 43, 100
3, 52412, Note_off_c, 1, 31, 100
3, 52416, Note_on_c, 1, 43, 80
3, 52416, Note_on_c, 1, 31, 80
3, 52604, Note_off_c, 1, 43, 100
3, 52604, Note_off_c, 1, 31, 100
3, 52608, Note_on_c, 1, 31, 80
3, 52608, Note_on_c, 1, 43, 80
3, 52796, Note_off_c, 1, 31, 100
3, 52796, Note_off_c, 1, 43, 100
3, 52800, Note_on_c, 1, 43, 80
3, 52800, Note_on_c, 1, 31, 80
3, 52988, Note_off_c, 1, 43, 100
3, 52988, Note_off_c, 1, 31, 100
3, 52992, Note_on_c, 1, 43, 80
3, 52992, Note_on_c, 1, 31, 80
3, 53180, Note_off_c, 1, 43, 100
3, 53180, Note_off_c, 1, 31, 100
3, 53184, Note_on_c, 1, 31, 80
3, 53184, Note_on_c, 1, 43, 80
3, 53372, Note_off_c, 1, 31, 100
3, 53372, Note_off_c, 1, 43, 100
3, 53376, Note_on_c, 1, 43, 80
3, 53376, Note_on_c, 1, 31, 80
3, 53564, Note_off_c, 1, 43, 100
3, 53564, Note_off_c, 1, 31, 100
3, 53568, Note_on_c, 1, 43, 80
3, 53568, Note_on_c, 1, 31, 80
3, 53756, Note_off_c, 1, 43, 100
3, 53756, Note_off_c, 1, 31, 100
3, 53760, Note_on_c, 1, 31, 80
3, 53760, Note_on_c, 1, 43, 80
3, 53948, Note_off_c, 1, 31, 100
3, 53948, Note_off_c, 1, 43, 100
3, 53952, Note_on_c, 1, 43, 80
3, 53952, Note_on_c, 1, 31, 80
3, 54140, Note_off_c, 1, 43, 100
3, 54140, Note_off_c, 1, 31, 100
3, 54144, Note_on_c, 1, 43, 80
3, 54144, Note_on_c, 1, 31, 80
3, 54332, Note_off_c, 1, 43, 100
3, 54332, Note_off_c, 1, 31, 100
3, 54336, Note_on_c, 1, 31, 80
3, 54336, Note_on_c, 1, 43, 80
3, 54524, Note_off_c, 1, 31, 100
3, 54524, Note_off_c, 1, 43, 100
3, 54528, Note_on_c, 1, 43, 80
3, 54528, Note_on_c, 1, 31, 80
3, 54716, Note_off_c, 1, 43, 100
3, 54716, Note_off_c, 1, 31, 100
3, 54720, Note_on_c, 1, 43, 80
3, 54720, Note_on_c, 1, 31, 80
3, 54908, Note_off_c, 1, 43, 100
3, 54908, Note_off_c, 1, 31, 100
3, 54912, Note_on_c, 1, 31, 80
3, 54912, Note_on_c, 1, 43, 80
3, 55100, Note_off_c, 1, 31, 100
3, 55100, Note_off_c, 1, 43, 100
3, 55104, Note_on_c, 1, 43, 80
3, 55104, Note_on_c, 1, 31, 80
3, 55292, Note_off_c, 1, 43, 100
3, 55292, Note_off_c, 1, 31, 100
3, 55296, Note_on_c, 1, 43, 80
3, 55296, Note_on_c, 1, 31, 80
3, 55484, Note_off_c, 1, 43, 100
3, 55484, Note_off_c, 1, 31, 100
3, 55488, Note_on_c, 1, 31, 80
3, 55488, Note_on_c, 1, 43, 80
3, 55676, Note_off_c, 1, 31, 100
3, 55676, Note_off_c, 1, 43, 100
3, 55680, Note_on_c, 1, 43, 80
3, 55680, Note_on_c, 1, 31, 80
3, 55868, Note_off_c, 1, 43, 100
3, 55868, Note_off_c, 1, 31, 100
3, 55872, Note_on_c, 1, 43, 80
3, 55872, Note_on_c, 1, 31, 80
3, 56060, Note_off_c, 1, 43, 100
3, 56060, Note_off_c, 1, 31, 100
3, 56064, Note_on_c, 1, 31, 80
3, 56064, Note_on_c, 1, 43, 80
3, 56252, Note_off_c, 1, 31, 100
3, 56252, Note_off_c, 1, 43, 100
3, 56256, Note_on_c, 1, 43, 80
3, 56256, Note_on_c, 1, 31, 80
3, 56444, Note_off_c, 1, 43, 100
3, 56444, Note_off_c, 1, 31, 100
3, 56448, Note_on_c, 1, 43, 80
3, 56448, Note_on_c, 1, 31, 80
3, 56636, Note_off_c, 1, 43, 100
3, 56636, Note_off_c, 1, 31, 100
3, 56640, Note_on_c, 1, 31, 80
3, 56640, Note_on_c, 1, 43, 80
3, 56828, Note_off_c, 1, 31, 100
3, 56828, Note_off_c, 1, 43, 100
3, 56832, Note_on_c, 1, 43, 80
3, 56832, Note_on_c, 1, 31, 80
3, 57020, Note_off_c, 1, 43, 100
3, 57020, Note_off_c, 1, 31, 100
3, 57024, Note_on_c, 1, 43, 80
3, 57024, Note_on_c, 1, 31, 80
3, 57212, Note_off_c, 1, 43, 100
3, 57212, Note_off_c, 1, 31, 100
3, 57216, Note_on_c, 1, 53, 80
3, 57216, Note_on_c, 1, 50, 80
3, 57216, Note_on_c, 1, 43, 80
3, 57216, Note_on_c, 1, 47, 80
3, 57404, Note_off_c, 1, 53, 100
3, 57404, Note_off_c, 1, 50, 100
3, 57404, Note_off_c, 1, 43, 100
3, 57404, Note_off_c, 1, 47, 100
3, 57408, Note_on_c, 1, 53, 80
3, 57408, Note_on_c, 1, 50, 80
3, 57408, Note_on_c, 1, 43, 80
3, 57408, Note_on_c, 1, 47, 80
3, 57596, Note_off_c, 1, 53, 100
3, 57596, Note_off_c, 1, 50, 100
3, 57596, Note_off_c, 1, 43, 100
3, 57596, Note_off_c, 1, 47, 100
3, 57600, Note_on_c, 1, 53, 80
3, 57600, Note_on_c, 1, 50, 80
3, 57600, Note_on_c, 1, 43, 80
3, 57600, Note_on_c, 1, 47, 80
3, 57788, Note_off_c, 1, 53, 100
3, 57788, Note_off_c, 1, 50, 100
3, 57788, Note_off_c, 1, 43, 100
3, 57788, Note_off_c, 1, 47, 100
3, 57792, Note_on_c, 1, 53, 80
3, 57792, Note_on_c, 1, 50, 80
3, 57792, Note_on_c, 1, 43, 80
3, 57792, Note_on_c, 1, 47, 80
3, 57980, Note_off_c, 1, 53, 100
3, 57980, Note_off_c, 1, 50, 100
3, 57980, Note_off_c, 1, 43, 100
3, 57980, Note_off_c, 1, 47, 100
3, 57984, Note_on_c, 1, 53, 80
3, 57984, Note_on_c, 1, 50, 80
3, 57984, Note_on_c, 1, 43, 80
3, 57984, Note_on_c, 1, 47, 80
3, 58172, Note_off_c, 1, 53, 100
3, 58172, Note_off_c, 1, 50, 100
3, 58172, Note_off_c, 1, 43, 100
3, 58172, Note_off_c, 1, 47, 100
3, 58176, Note_on_c, 1, 53, 80
3, 58176, Note_on_c, 1, 50, 80
3, 58176, Note_on_c, 1, 43, 80
3, 58176, Note_on_c, 1, 47, 80
3, 58364, Note_off_c, 1, 53, 100
3, 58364, Note_off_c, 1, 50, 100
3, 58364, Note_off_c, 1, 43, 100
3, 58364, Note_off_c, 1, 47, 100
3, 58368, Note_on_c, 1, 53, 80
3, 58368, Note_on_c, 1, 50, 80
3, 58368, Note_on_c, 1, 43, 80
3, 58368, Note_on_c, 1, 47, 80
3, 58556, Note_off_c, 1, 53, 100
3, 58556, Note_off_c, 1, 50, 100
3, 58556, Note_off_c, 1, 43, 100
3, 58556, Note_off_c, 1, 47, 100
3, 58560, Note_on_c, 1, 53, 80
3, 58560, Note_on_c, 1, 50, 80
3, 58560, Note_on_c, 1, 43, 80
3, 58560, Note_on_c, 1, 47, 80
3, 58748, Note_off_c, 1, 53, 100
3, 58748, Note_off_c, 1, 50, 100
3, 58748, Note_off_c, 1, 43, 100
3, 58748, Note_off_c, 1, 47, 100
3, 58752, Note_on_c, 1, 48, 80
3, 58752, Note_on_c, 1, 36, 80
3, 58940, Note_off_c, 1, 48, 100
3, 58940, Note_off_c, 1, 36, 100
3, 58944, Note_on_c, 1, 58, 80
3, 58944, Note_on_c, 1, 55, 80
3, 58944, Note_on_c, 1, 48, 80
3, 59132, Note_off_c, 1, 58, 100
3, 59132, Note_off_c, 1, 55, 100
3, 59132, Note_off_c, 1, 48, 100
3, 59136, Note_on_c, 1, 58, 80
3, 59136, Note_on_c, 1, 55, 80
3, 59136, Note_on_c, 1, 48, 80
3, 59324, Note_off_c, 1, 58, 100
3, 59324, Note_off_c, 1, 55, 100
3, 59324, Note_off_c, 1, 48, 100
3, 59328, Note_on_c, 1, 58, 80
3, 59328, Note_on_c, 1, 55, 80
3, 59328, Note_on_c, 1, 48, 80
3, 59516, Note_off_c, 1, 58, 100
3, 59516, Note_off_c, 1, 55, 100
3, 59516, Note_off_c, 1, 48, 100
3, 59520, Note_on_c, 1, 58, 80
3, 59520, Note_on_c, 1, 55, 80
3, 59520, Note_on_c, 1, 48, 80
3, 59708, Note_off_c, 1, 58, 100
3, 59708, Note_off_c, 1, 55, 100
3, 59708, Note_off_c, 1, 48, 100
3, 59712, Note_on_c, 1, 58, 80
3, 59712, Note_on_c, 1, 55, 80
3, 59712, Note_on_c, 1, 48, 80
3, 59900, Note_off_c, 1, 58, 100
3, 59900, Note_off_c, 1, 55, 100
3, 59900, Note_off_c, 1, 48, 100
3, 59904, Note_on_c, 1, 58, 80
3, 59904, Note_on_c, 1, 55, 80
3, 59904, Note_on_c, 1, 48, 80
3, 60092, Note_off_c, 1, 58, 100
3, 60092, Note_off_c, 1, 55, 100
3, 60092, Note_off_c, 1, 48, 100
3, 60096, Note_on_c, 1, 58, 80
3, 60096, Note_on_c, 1, 55, 80
3, 60096, Note_on_c, 1, 48, 80
3, 60284, Note_off_c, 1, 58, 100
3, 60284, Note_off_c, 1, 55, 100
3, 60284, Note_off_c, 1, 48, 100
3, 60288, Note_on_c, 1, 58, 80
3, 60288, Note_on_c, 1, 55, 80
3, 60288, Note_on_c, 1, 48, 80
3, 60476, Note_off_c, 1, 58, 100
3, 60476, Note_off_c, 1, 55, 100
3, 60476, Note_off_c, 1, 48, 100
3, 60480, Note_on_c, 1, 53, 80
3, 60480, Note_on_c, 1, 41, 80
3, 60668, Note_off_c, 1, 53, 100
3, 60668, Note_off_c, 1, 41, 100
3, 60672, Note_on_c, 1, 63, 80
3, 60672, Note_on_c, 1, 60, 80
3, 60672, Note_on_c, 1, 53, 80
3, 60860, Note_off_c, 1, 63, 100
3, 60860, Note_off_c, 1, 60, 100
3, 60860, Note_off_c, 1, 53, 100
3, 60864, Note_on_c, 1, 63, 80
3, 60864, Note_on_c, 1, 60, 80
3, 60864, Note_on_c, 1, 53, 80
3, 61052, Note_off_c, 1, 63, 100
3, 61052, Note_off_c, 1, 60, 100
3, 61052, Note_off_c, 1, 53, 100
3, 61056, Note_on_c, 1, 63, 80
3, 61056, Note_on_c, 1, 60, 80
3, 61056, Note_on_c, 1, 53, 80
3, 61244, Note_off_c, 1, 63, 100
3, 61244, Note_off_c, 1, 60, 100
3, 61244, Note_off_c, 1, 53, 100
3, 61248, Note_on_c, 1, 63, 80
3, 61248, Note_on_c, 1, 60, 80
3, 61248, Note_on_c, 1, 53, 80
3, 61436, Note_off_c, 1, 63, 100
3, 61436, Note_off_c, 1, 60, 100
3, 61436, Note_off_c, 1, 53, 100
3, 61440, Note_on_c, 1, 63, 80
3, 61440, Note_on_c, 1, 60, 80
3, 61440, Note_on_c, 1, 53, 80
3, 61628, Note_off_c, 1, 63, 100
3, 61628, Note_off_c, 1, 60, 100
3, 61628, Note_off_c, 1, 53, 100
3, 61632, Note_on_c, 1, 63, 80
3, 61632, Note_on_c, 1, 60, 80
3, 61632, Note_on_c, 1, 53, 80
3, 61820, Note_off_c, 1, 63, 100
3, 61820, Note_off_c, 1, 60, 100
3, 61820, Note_off_c, 1, 53, 100
3, 61824, Note_on_c, 1, 63, 80
3, 61824, Note_on_c, 1, 60, 80
3, 61824, Note_on_c, 1, 53, 80
3, 62012, Note_off_c, 1, 63, 100
3, 62012, Note_off_c, 1, 60, 100
3, 62012, Note_off_c, 1, 53, 100
3, 62016, Note_on_c, 1, 63, 80
3, 62016, Note_on_c, 1, 60, 80
3, 62016, Note_on_c, 1, 53, 80
3, 62204, Note_off_c, 1, 63, 100
3, 62204, Note_off_c, 1, 60, 100
3, 62204, Note_off_c, 1, 53, 100
3, 62208, Note_on_c, 1, 46, 80
3, 62208, Note_on_c, 1, 34, 80
3, 62396, Note_off_c, 1, 46, 100
3, 62396, Note_off_c, 1, 34, 100
3, 62400, Note_on_c, 1, 56, 80
3, 62400, Note_on_c, 1, 53, 80
3, 62400, Note_on_c, 1, 46, 80
3, 62588, Note_off_c, 1, 56, 100
3, 62588, Note_off_c, 1, 53, 100
3, 62588, Note_off_c, 1, 46, 100
3, 62592, Note_on_c, 1, 56, 80
3, 62592, Note_on_c, 1, 53, 80
3, 62592, Note_on_c, 1, 46, 80
3, 62780, Note_off_c, 1, 56, 100
3, 62780, Note_off_c, 1, 53, 100
3, 62780, Note_off_c, 1, 46, 100
3, 62784, Note_on_c, 1, 56, 80
3, 62784, Note_on_c, 1, 53, 80
3, 62784, Note_on_c, 1, 46, 80
3, 62972, Note_off_c, 1, 56, 100
3, 62972, Note_off_c, 1, 53, 100
3, 62972, Note_off_c, 1, 46, 100
3, 62976, Note_on_c, 1, 56, 80
3, 62976, Note_on_c, 1, 53, 80
3, 62976, Note_on_c, 1, 46, 80
3, 63164, Note_off_c, 1, 56, 100
3, 63164, Note_off_c, 1, 53, 100
3, 63164, Note_off_c, 1, 46, 100
3, 63168, Note_on_c, 1, 56, 80
3, 63168, Note_on_c, 1, 53, 80
3, 63168, Note_on_c, 1, 46, 80
3, 63356, Note_off_c, 1, 56, 100
3, 63356, Note_off_c, 1, 53, 100
3, 63356, Note_off_c, 1, 46, 100
3, 63360, Note_on_c, 1, 56, 80
3, 63360, Note_on_c, 1, 53, 80
3, 63360, Note_on_c, 1, 46, 80
3, 63548, Note_off_c, 1, 56, 100
3, 63548, Note_off_c, 1, 53, 100
3, 63548, Note_off_c, 1, 46, 100
3, 63552, Note_on_c, 1, 56, 80
3, 63552, Note_on_c, 1, 53, 80
3, 63552, Note_on_c, 1, 46, 80
3, 63740, Note_off_c, 1, 56, 100
3, 63740, Note_off_c, 1, 53, 100
3, 63740, Note_off_c, 1, 46, 100
3, 63744, Note_on_c, 1, 56, 80
3, 63744, Note_on_c, 1, 53, 80
3, 63744, Note_on_c, 1, 46, 80
3, 63932, Note_off_c, 1, 56, 100
3, 63932, Note_off_c, 1, 53, 100
3, 63932, Note_off_c, 1, 46, 100
3, 63936, Note_on_c, 1, 39, 80
3, 64124, Note_off_c, 1, 39, 100
3, 64128, Note_on_c, 1, 61, 80
3, 64128, Note_on_c, 1, 58, 80
3, 64128, Note_on_c, 1, 51, 80
3, 64316, Note_off_c, 1, 61, 100
3, 64316, Note_off_c, 1, 58, 100
3, 64316, Note_off_c, 1, 51, 100
3, 64320, Note_on_c, 1, 61, 80
3, 64320, Note_on_c, 1, 58, 80
3, 64320, Note_on_c, 1, 51, 80
3, 64508, Note_off_c, 1, 61, 100
3, 64508, Note_off_c, 1, 58, 100
3, 64508, Note_off_c, 1, 51, 100
3, 64512, Note_on_c, 1, 51, 80
3, 64512, Note_on_c, 1, 58, 80
3, 64512, Note_on_c, 1, 61, 80
3, 64700, Note_off_c, 1, 51, 100
3, 64700, Note_off_c, 1, 58, 100
3, 64700, Note_off_c, 1, 61, 100
3, 64704, Note_on_c, 1, 61, 80
3, 64704, Note_on_c, 1, 58, 80
3, 64704, Note_on_c, 1, 51, 80
3, 64892, Note_off_c, 1, 61, 100
3, 64892, Note_off_c, 1, 58, 100
3, 64892, Note_off_c, 1, 51, 100
3, 64896, Note_on_c, 1, 61, 80
3, 64896, Note_on_c, 1, 58, 80
3, 64896, Note_on_c, 1, 51, 80
3, 65084, Note_off_c, 1, 61, 100
3, 65084, Note_off_c, 1, 58, 100
3, 65084, Note_off_c, 1, 51, 100
3, 65088, Note_on_c, 1, 51, 80
3, 65088, Note_on_c, 1, 58, 80
3, 65088, Note_on_c, 1, 61, 80
3, 65276, Note_off_c, 1, 51, 100
3, 65276, Note_off_c, 1, 58, 100
3, 65276, Note_off_c, 1, 61, 100
3, 65280, Note_on_c, 1, 61, 80
3, 65280, Note_on_c, 1, 58, 80
3, 65280, Note_on_c, 1, 51, 80
3, 65468, Note_off_c, 1, 61, 100
3, 65468, Note_off_c, 1, 58, 100
3, 65468, Note_off_c, 1, 51, 100
3, 65472, Note_on_c, 1, 61, 80
3, 65472, Note_on_c, 1, 58, 80
3, 65472, Note_on_c, 1, 51, 80
3, 65660, Note_off_c, 1, 61, 100
3, 65660, Note_off_c, 1, 58, 100
3, 65660, Note_off_c, 1, 51, 100
3, 65664, Note_on_c, 1, 63, 80
3, 65664, Note_on_c, 1, 59, 80
3, 65664, Note_on_c, 1, 51, 80
3, 66044, Note_off_c, 1, 63, 100
3, 66044, Note_off_c, 1, 59, 100
3, 66044, Note_off_c, 1, 51, 100
3, 66240, Note_on_c, 1, 61, 80
3, 66332, Note_off_c, 1, 61, 100
3, 66336, Note_on_c, 1, 63, 80
3, 66428, Note_off_c, 1, 63, 100
3, 66432, Note_on_c, 1, 64, 80
3, 66524, Note_off_c, 1, 64, 100
3, 66528, Note_on_c, 1, 63, 80
3, 66620, Note_off_c, 1, 63, 100
3, 66624, Note_on_c, 1, 64, 80
3, 66716, Note_off_c, 1, 64, 100
3, 66720, Note_on_c, 1, 61, 80
3, 66812, Note_off_c, 1, 61, 100
3, 66816, Note_on_c, 1, 59, 80
3, 66908, Note_off_c, 1, 59, 100
3, 66912, Note_on_c, 1, 61, 80
3, 67004, Note_off_c, 1, 61, 100
3, 67008, Note_on_c, 1, 63, 80
3, 67100, Note_off_c, 1, 63, 100
3, 67104, Note_on_c, 1, 61, 80
3, 67196, Note_off_c, 1, 61, 100
3, 67200, Note_on_c, 1, 63, 80
3, 67292, Note_off_c, 1, 63, 100
3, 67296, Note_on_c, 1, 59, 80
3, 67388, Note_off_c, 1, 59, 100
3, 67392, Note_on_c, 1, 58, 80
3, 67484, Note_off_c, 1, 58, 100
3, 67488, Note_on_c, 1, 59, 80
3, 67580, Note_off_c, 1, 59, 100
3, 67584, Note_on_c, 1, 61, 80
3, 67676, Note_off_c, 1, 61, 100
3, 67680, Note_on_c, 1, 59, 80
3, 67772, Note_off_c, 1, 59, 100
3, 67776, Note_on_c, 1, 61, 80
3, 67868, Note_off_c, 1, 61, 100
3, 67872, Note_on_c, 1, 58, 80
3, 67964, Note_off_c, 1, 58, 100
3, 67968, Note_on_c, 1, 59, 80
3, 68060, Note_off_c, 1, 59, 100
3, 68064, Note_on_c, 1, 61, 80
3, 68156, Note_off_c, 1, 61, 100
3, 68160, Note_on_c, 1, 63, 80
3, 68252, Note_off_c, 1, 63, 100
3, 68256, Note_on_c, 1, 61, 80
3, 68348, Note_off_c, 1, 61, 100
3, 68352, Note_on_c, 1, 63, 80
3, 68444, Note_off_c, 1, 63, 100
3, 68448, Note_on_c, 1, 59, 80
3, 68540, Note_off_c, 1, 59, 100
3, 68544, Note_on_c, 1, 56, 80
3, 68636, Note_off_c, 1, 56, 100
3, 68640, Note_on_c, 1, 58, 80
3, 68732, Note_off_c, 1, 58, 100
3, 68736, Note_on_c, 1, 59, 80
3, 68828, Note_off_c, 1, 59, 100
3, 68832, Note_on_c, 1, 58, 80
3, 68924, Note_off_c, 1, 58, 100
3, 68928, Note_on_c, 1, 59, 80
3, 69020, Note_off_c, 1, 59, 100
3, 69024, Note_on_c, 1, 56, 80
3, 69116, Note_off_c, 1, 56, 100
3, 69120, Note_on_c, 1, 54, 80
3, 69212, Note_off_c, 1, 54, 100
3, 69216, Note_on_c, 1, 56, 80
3, 69308, Note_off_c, 1, 56, 100
3, 69312, Note_on_c, 1, 58, 80
3, 69404, Note_off_c, 1, 58, 100
3, 69408, Note_on_c, 1, 56, 80
3, 69500, Note_off_c, 1, 56, 100
3, 69504, Note_on_c, 1, 58, 80
3, 69596, Note_off_c, 1, 58, 100
3, 69600, Note_on_c, 1, 54, 80
3, 69692, Note_off_c, 1, 54, 100
3, 69696, Note_on_c, 1, 53, 80
3, 69788, Note_off_c, 1, 53, 100
3, 69792, Note_on_c, 1, 54, 80
3, 69884, Note_off_c, 1, 54, 100
3, 69888, Note_on_c, 1, 56, 80
3, 69980, Note_off_c, 1, 56, 100
3, 69984, Note_on_c, 1, 54, 80
3, 70076, Note_off_c, 1, 54, 100
3, 70080, Note_on_c, 1, 56, 80
3, 70172, Note_off_c, 1, 56, 100
3, 70176, Note_on_c, 1, 53, 80
3, 70268, Note_off_c, 1, 53, 100
3, 70272, Note_on_c, 1, 54, 80
3, 70364, Note_off_c, 1, 54, 100
3, 70368, Note_on_c, 1, 56, 80
3, 70460, Note_off_c, 1, 56, 100
3, 70464, Note_on_c, 1, 58, 80
3, 70556, Note_off_c, 1, 58, 100
3, 70560, Note_on_c, 1, 56, 80
3, 70652, Note_off_c, 1, 56, 100
3, 70656, Note_on_c, 1, 58, 80
3, 70748, Note_off_c, 1, 58, 100
3, 70752, Note_on_c, 1, 54, 80
3, 70844, Note_off_c, 1, 54, 100
3, 70848, Note_on_c, 1, 50, 80
3, 70940, Note_off_c, 1, 50, 100
3, 70944, Note_on_c, 1, 51, 80
3, 71036, Note_off_c, 1, 51, 100
3, 71040, Note_on_c, 1, 53, 80
3, 71132, Note_off_c, 1, 53, 100
3, 71136, Note_on_c, 1, 51, 80
3, 71228, Note_off_c, 1, 51, 100
3, 71232, Note_on_c, 1, 53, 80
3, 71324, Note_off_c, 1, 53, 100
3, 71328, Note_on_c, 1, 50, 80
3, 71420, Note_off_c, 1, 50, 100
3, 71424, Note_on_c, 1, 51, 80
3, 71516, Note_off_c, 1, 51, 100
3, 71520, Note_on_c, 1, 53, 80
3, 71612, Note_off_c, 1, 53, 100
3, 71616, Note_on_c, 1, 54, 80
3, 71708, Note_off_c, 1, 54, 100
3, 71712, Note_on_c, 1, 53, 80
3, 71804, Note_off_c, 1, 53, 100
3, 71808, Note_on_c, 1, 54, 80
3, 71900, Note_off_c, 1, 54, 100
3, 71904, Note_on_c, 1, 51, 80
3, 71996, Note_off_c, 1, 51, 100
3, 72000, Note_on_c, 1, 48, 80
3, 72092, Note_off_c, 1, 48, 100
3, 72096, Note_on_c, 1, 50, 80
3, 72188, Note_off_c, 1, 50, 100
3, 72192, Note_on_c, 1, 51, 80
3, 72284, Note_off_c, 1, 51, 100
3, 72288, Note_on_c, 1, 50, 80
3, 72380, Note_off_c, 1, 50, 100
3, 72384, Note_on_c, 1, 51, 80
3, 72476, Note_off_c, 1, 51, 100
3, 72480, Note_on_c, 1, 47, 80
3, 72572, Note_off_c, 1, 47, 100
3, 72576, Note_on_c, 1, 46, 80
3, 72672, Note_on_c, 1, 48, 80
3, 72764, Note_off_c, 1, 48, 100
3, 72768, Note_on_c, 1, 50, 80
3, 72860, Note_off_c, 1, 50, 100
3, 72864, Note_on_c, 1, 48, 80
3, 72956, Note_off_c, 1, 48, 100
3, 72960, Note_on_c, 1, 46, 80
3, 73052, Note_off_c, 1, 46, 100
3, 73056, Note_on_c, 1, 48, 80
3, 73148, Note_off_c, 1, 48, 100
3, 73152, Note_on_c, 1, 50, 80
3, 73244, Note_off_c, 1, 50, 100
3, 73248, Note_on_c, 1, 51, 80
3, 73340, Note_off_c, 1, 51, 100
3, 73344, Note_on_c, 1, 53, 80
3, 73436, Note_off_c, 1, 53, 100
3, 73440, Note_on_c, 1, 51, 80
3, 73532, Note_off_c, 1, 51, 100
3, 73536, Note_on_c, 1, 50, 80
3, 73628, Note_off_c, 1, 50, 100
3, 73632, Note_on_c, 1, 53, 80
3, 73724, Note_off_c, 1, 53, 100
3, 73728, Note_on_c, 1, 51, 80
3, 73820, Note_off_c, 1, 51, 100
3, 73824, Note_on_c, 1, 50, 80
3, 73916, Note_off_c, 1, 46, 100
3, 73916, Note_off_c, 1, 50, 100
3, 73920, Note_on_c, 1, 46, 80
3, 73920, Note_on_c, 1, 48, 80
3, 74012, Note_off_c, 1, 48, 100
3, 74016, Note_on_c, 1, 50, 80
3, 74108, Note_off_c, 1, 46, 100
3, 74108, Note_off_c, 1, 50, 100
3, 74112, Note_on_c, 1, 46, 80
3, 74112, Note_on_c, 1, 51, 80
3, 74204, Note_off_c, 1, 51, 100
3, 74208, Note_on_c, 1, 48, 80
3, 74300, Note_off_c, 1, 46, 100
3, 74300, Note_off_c, 1, 48, 100
3, 74304, Note_on_c, 1, 46, 80
3, 74304, Note_on_c, 1, 50, 80
3, 74396, Note_off_c, 1, 50, 100
3, 74400, Note_on_c, 1, 51, 80
3, 74492, Note_off_c, 1, 51, 100
3, 74496, Note_on_c, 1, 53, 80
3, 74588, Note_off_c, 1, 53, 100
3, 74592, Note_on_c, 1, 51, 80
3, 74684, Note_off_c, 1, 51, 100
3, 74688, Note_on_c, 1, 50, 80
3, 74780, Note_off_c, 1, 50, 100
3, 74784, Note_on_c, 1, 51, 80
3, 74876, Note_off_c, 1, 51, 100
3, 74880, Note_on_c, 1, 53, 80
3, 74972, Note_off_c, 1, 53, 100
3, 74976, Note_on_c, 1, 54, 80
3, 75068, Note_off_c, 1, 54, 100
3, 75072, Note_on_c, 1, 56, 80
3, 75164, Note_off_c, 1, 56, 100
3, 75168, Note_on_c, 1, 54, 80
3, 75260, Note_off_c, 1, 54, 100
3, 75264, Note_on_c, 1, 53, 80
3, 75356, Note_off_c, 1, 53, 100
3, 75360, Note_on_c, 1, 56, 80
3, 75452, Note_off_c, 1, 56, 100
3, 75456, Note_on_c, 1, 54, 80
3, 75548, Note_off_c, 1, 54, 100
3, 75552, Note_on_c, 1, 53, 80
3, 75644, Note_off_c, 1, 46, 100
3, 75644, Note_off_c, 1, 53, 100
3, 75648, Note_on_c, 1, 46, 80
3, 75648, Note_on_c, 1, 51, 80
3, 75740, Note_off_c, 1, 51, 100
3, 75744, Note_on_c, 1, 53, 80
3, 75836, Note_off_c, 1, 46, 100
3, 75836, Note_off_c, 1, 53, 100
3, 75840, Note_on_c, 1, 46, 80
3, 75840, Note_on_c, 1, 54, 80
3, 75932, Note_off_c, 1, 54, 100
3, 75936, Note_on_c, 1, 51, 80
3, 76028, Note_off_c, 1, 46, 100
3, 76028, Note_off_c, 1, 51, 100
3, 76032, Note_on_c, 1, 53, 80
3, 76032, Note_on_c, 1, 50, 80
3, 76032, Note_on_c, 1, 46, 80
3, 76412, Note_off_c, 1, 53, 100
3, 76412, Note_off_c, 1, 50, 100
3, 76412, Note_off_c, 1, 46, 100
3, 79488, Note_on_c, 1, 58, 70
3, 79488, Note_on_c, 1, 51, 70
3, 79488, Note_on_c, 1, 55, 70
3, 79676, Note_off_c, 1, 58, 100
3, 79676, Note_off_c, 1, 51, 100
3, 79676, Note_off_c, 1, 55, 100
3, 79680, Note_on_c, 1, 58, 70
3, 79680, Note_on_c, 1, 55, 70
3, 79680, Note_on_c, 1, 51, 70
3, 79868, Note_off_c, 1, 58, 100
3, 79868, Note_off_c, 1, 55, 100
3, 79868, Note_off_c, 1, 51, 100
3, 79872, Note_on_c, 1, 58, 70
3, 79872, Note_on_c, 1, 55, 70
3, 79872, Note_on_c, 1, 51, 70
3, 80060, Note_off_c, 1, 58, 100
3, 80060, Note_off_c, 1, 55, 100
3, 80060, Note_off_c, 1, 51, 100
3, 80064, Note_on_c, 1, 58, 70
3, 80064, Note_on_c, 1, 51, 70
3, 80064, Note_on_c, 1, 55, 70
3, 80252, Note_off_c, 1, 58, 100
3, 80252, Note_off_c, 1, 51, 100
3, 80252, Note_off_c, 1, 55, 100
3, 80256, Note_on_c, 1, 58, 70
3, 80256, Note_on_c, 1, 55, 70
3, 80256, Note_on_c, 1, 51, 70
3, 80444, Note_off_c, 1, 58, 100
3, 80444, Note_off_c, 1, 55, 100
3, 80444, Note_off_c, 1, 51, 100
3, 80448, Note_on_c, 1, 58, 70
3, 80448, Note_on_c, 1, 55, 70
3, 80448, Note_on_c, 1, 51, 70
3, 80636, Note_off_c, 1, 58, 100
3, 80636, Note_off_c, 1, 55, 100
3, 80636, Note_off_c, 1, 51, 100
3, 80640, Note_on_c, 1, 58, 70
3, 80640, Note_on_c, 1, 51, 70
3, 80640, Note_on_c, 1, 55, 70
3, 80828, Note_off_c, 1, 58, 100
3, 80828, Note_off_c, 1, 51, 100
3, 80828, Note_off_c, 1, 55, 100
3, 80832, Note_on_c, 1, 58, 70
3, 80832, Note_on_c, 1, 55, 70
3, 80832, Note_on_c, 1, 51, 70
3, 81020, Note_off_c, 1, 58, 100
3, 81020, Note_off_c, 1, 55, 100
3, 81020, Note_off_c, 1, 51, 100
3, 81024, Note_on_c, 1, 58, 70
3, 81024, Note_on_c, 1, 55, 70
3, 81024, Note_on_c, 1, 51, 70
3, 81212, Note_off_c, 1, 58, 100
3, 81212, Note_off_c, 1, 55, 100
3, 81212, Note_off_c, 1, 51, 100
3, 81216, Note_on_c, 1, 58, 70
3, 81216, Note_on_c, 1, 51, 70
3, 81216, Note_on_c, 1, 55, 70
3, 81404, Note_off_c, 1, 58, 100
3, 81404, Note_off_c, 1, 51, 100
3, 81404, Note_off_c, 1, 55, 100
3, 81408, Note_on_c, 1, 58, 70
3, 81408, Note_on_c, 1, 55, 70
3, 81408, Note_on_c, 1, 51, 70
3, 81596, Note_off_c, 1, 58, 100
3, 81596, Note_off_c, 1, 55, 100
3, 81596, Note_off_c, 1, 51, 100
3, 81600, Note_on_c, 1, 58, 70
3, 81600, Note_on_c, 1, 55, 70
3, 81600, Note_on_c, 1, 51, 70
3, 81788, Note_off_c, 1, 58, 100
3, 81788, Note_off_c, 1, 55, 100
3, 81788, Note_off_c, 1, 51, 100
3, 81792, Note_on_c, 1, 58, 70
3, 81792, Note_on_c, 1, 51, 70
3, 81792, Note_on_c, 1, 55, 70
3, 81980, Note_off_c, 1, 58, 100
3, 81980, Note_off_c, 1, 51, 100
3, 81980, Note_off_c, 1, 55, 100
3, 81984, Note_on_c, 1, 58, 70
3, 81984, Note_on_c, 1, 55, 70
3, 81984, Note_on_c, 1, 51, 70
3, 82172, Note_off_c, 1, 58, 100
3, 82172, Note_off_c, 1, 55, 100
3, 82172, Note_off_c, 1, 51, 100
3, 82176, Note_on_c, 1, 58, 70
3, 82176, Note_on_c, 1, 55, 70
3, 82176, Note_on_c, 1, 51, 70
3, 82364, Note_off_c, 1, 58, 100
3, 82364, Note_off_c, 1, 55, 100
3, 82364, Note_off_c, 1, 51, 100
3, 82368, Note_on_c, 1, 58, 70
3, 82368, Note_on_c, 1, 51, 70
3, 82368, Note_on_c, 1, 55, 70
3, 82556, Note_off_c, 1, 58, 100
3, 82556, Note_off_c, 1, 51, 100
3, 82556, Note_off_c, 1, 55, 100
3, 82560, Note_on_c, 1, 58, 70
3, 82560, Note_on_c, 1, 55, 70
3, 82560, Note_on_c, 1, 51, 70
3, 82748, Note_off_c, 1, 58, 100
3, 82748, Note_off_c, 1, 55, 100
3, 82748, Note_off_c, 1, 51, 100
3, 82752, Note_on_c, 1, 58, 70
3, 82752, Note_on_c, 1, 55, 70
3, 82752, Note_on_c, 1, 51, 70
3, 82940, Note_off_c, 1, 58, 100
3, 82940, Note_off_c, 1, 55, 100
3, 82940, Note_off_c, 1, 51, 100
3, 82944, Note_on_c, 1, 58, 70
3, 82944, Note_on_c, 1, 56, 70
3, 82944, Note_on_c, 1, 50, 70
3, 83132, Note_off_c, 1, 58, 100
3, 83132, Note_off_c, 1, 56, 100
3, 83132, Note_off_c, 1, 50, 100
3, 83136, Note_on_c, 1, 58, 70
3, 83136, Note_on_c, 1, 56, 70
3, 83136, Note_on_c, 1, 50, 70
3, 83324, Note_off_c, 1, 58, 100
3, 83324, Note_off_c, 1, 56, 100
3, 83324, Note_off_c, 1, 50, 100
3, 83328, Note_on_c, 1, 58, 70
3, 83328, Note_on_c, 1, 56, 70
3, 83328, Note_on_c, 1, 50, 70
3, 83516, Note_off_c, 1, 58, 100
3, 83516, Note_off_c, 1, 56, 100
3, 83516, Note_off_c, 1, 50, 100
3, 83520, Note_on_c, 1, 58, 70
3, 83520, Note_on_c, 1, 56, 70
3, 83520, Note_on_c, 1, 50, 70
3, 83708, Note_off_c, 1, 58, 100
3, 83708, Note_off_c, 1, 56, 100
3, 83708, Note_off_c, 1, 50, 100
3, 83712, Note_on_c, 1, 58, 70
3, 83712, Note_on_c, 1, 56, 70
3, 83712, Note_on_c, 1, 50, 70
3, 83900, Note_off_c, 1, 58, 100
3, 83900, Note_off_c, 1, 56, 100
3, 83900, Note_off_c, 1, 50, 100
3, 83904, Note_on_c, 1, 58, 70
3, 83904, Note_on_c, 1, 56, 70
3, 83904, Note_on_c, 1, 50, 70
3, 84092, Note_off_c, 1, 58, 100
3, 84092, Note_off_c, 1, 56, 100
3, 84092, Note_off_c, 1, 50, 100
3, 84096, Note_on_c, 1, 58, 70
3, 84096, Note_on_c, 1, 56, 70
3, 84096, Note_on_c, 1, 50, 70
3, 84284, Note_off_c, 1, 58, 100
3, 84284, Note_off_c, 1, 56, 100
3, 84284, Note_off_c, 1, 50, 100
3, 84288, Note_on_c, 1, 58, 70
3, 84288, Note_on_c, 1, 56, 70
3, 84288, Note_on_c, 1, 50, 70
3, 84476, Note_off_c, 1, 58, 100
3, 84476, Note_off_c, 1, 56, 100
3, 84476, Note_off_c, 1, 50, 100
3, 84480, Note_on_c, 1, 58, 70
3, 84480, Note_on_c, 1, 56, 70
3, 84480, Note_on_c, 1, 50, 70
3, 84668, Note_off_c, 1, 58, 100
3, 84668, Note_off_c, 1, 56, 100
3, 84668, Note_off_c, 1, 50, 100
3, 84672, Note_on_c, 1, 58, 70
3, 84672, Note_on_c, 1, 56, 70
3, 84672, Note_on_c, 1, 53, 70
3, 84672, Note_on_c, 1, 50, 70
3, 84860, Note_off_c, 1, 58, 100
3, 84860, Note_off_c, 1, 56, 100
3, 84860, Note_off_c, 1, 53, 100
3, 84860, Note_off_c, 1, 50, 100
3, 84864, Note_on_c, 1, 58, 70
3, 84864, Note_on_c, 1, 56, 70
3, 84864, Note_on_c, 1, 53, 70
3, 84864, Note_on_c, 1, 50, 70
3, 85052, Note_off_c, 1, 58, 100
3, 85052, Note_off_c, 1, 56, 100
3, 85052, Note_off_c, 1, 53, 100
3, 85052, Note_off_c, 1, 50, 100
3, 85056, Note_on_c, 1, 58, 70
3, 85056, Note_on_c, 1, 56, 70
3, 85056, Note_on_c, 1, 53, 70
3, 85056, Note_on_c, 1, 50, 70
3, 85244, Note_off_c, 1, 58, 100
3, 85244, Note_off_c, 1, 56, 100
3, 85244, Note_off_c, 1, 53, 100
3, 85244, Note_off_c, 1, 50, 100
3, 85248, Note_on_c, 1, 58, 70
3, 85248, Note_on_c, 1, 56, 70
3, 85248, Note_on_c, 1, 53, 70
3, 85248, Note_on_c, 1, 50, 70
3, 85436, Note_off_c, 1, 58, 100
3, 85436, Note_off_c, 1, 56, 100
3, 85436, Note_off_c, 1, 53, 100
3, 85436, Note_off_c, 1, 50, 100
3, 85440, Note_on_c, 1, 58, 70
3, 85440, Note_on_c, 1, 56, 70
3, 85440, Note_on_c, 1, 53, 70
3, 85440, Note_on_c, 1, 50, 70
3, 85628, Note_off_c, 1, 58, 100
3, 85628, Note_off_c, 1, 56, 100
3, 85628, Note_off_c, 1, 53, 100
3, 85628, Note_off_c, 1, 50, 100
3, 85632, Note_on_c, 1, 58, 70
3, 85632, Note_on_c, 1, 56, 70
3, 85632, Note_on_c, 1, 53, 70
3, 85632, Note_on_c, 1, 50, 70
3, 85820, Note_off_c, 1, 58, 100
3, 85820, Note_off_c, 1, 56, 100
3, 85820, Note_off_c, 1, 53, 100
3, 85820, Note_off_c, 1, 50, 100
3, 85824, Note_on_c, 1, 58, 70
3, 85824, Note_on_c, 1, 56, 70
3, 85824, Note_on_c, 1, 53, 70
3, 85824, Note_on_c, 1, 50, 70
3, 86012, Note_off_c, 1, 58, 100
3, 86012, Note_off_c, 1, 56, 100
3, 86012, Note_off_c, 1, 53, 100
3, 86012, Note_off_c, 1, 50, 100
3, 86016, Note_on_c, 1, 58, 70
3, 86016, Note_on_c, 1, 56, 70
3, 86016, Note_on_c, 1, 53, 70
3, 86016, Note_on_c, 1, 50, 70
3, 86204, Note_off_c, 1, 58, 100
3, 86204, Note_off_c, 1, 56, 100
3, 86204, Note_off_c, 1, 53, 100
3, 86204, Note_off_c, 1, 50, 100
3, 86208, Note_on_c, 1, 58, 70
3, 86208, Note_on_c, 1, 56, 70
3, 86208, Note_on_c, 1, 53, 70
3, 86208, Note_on_c, 1, 50, 70
3, 86396, Note_off_c, 1, 58, 100
3, 86396, Note_off_c, 1, 56, 100
3, 86396, Note_off_c, 1, 53, 100
3, 86396, Note_off_c, 1, 50, 100
3, 86400, Note_on_c, 1, 58, 70
3, 86400, Note_on_c, 1, 56, 70
3, 86400, Note_on_c, 1, 51, 70
3, 86588, Note_off_c, 1, 58, 100
3, 86588, Note_off_c, 1, 56, 100
3, 86588, Note_off_c, 1, 51, 100
3, 86592, Note_on_c, 1, 58, 70
3, 86592, Note_on_c, 1, 56, 70
3, 86592, Note_on_c, 1, 51, 70
3, 86780, Note_off_c, 1, 58, 100
3, 86780, Note_off_c, 1, 56, 100
3, 86780, Note_off_c, 1, 51, 100
3, 86784, Note_on_c, 1, 58, 70
3, 86784, Note_on_c, 1, 56, 70
3, 86784, Note_on_c, 1, 51, 70
3, 86972, Note_off_c, 1, 58, 100
3, 86972, Note_off_c, 1, 56, 100
3, 86972, Note_off_c, 1, 51, 100
3, 86976, Note_on_c, 1, 58, 70
3, 86976, Note_on_c, 1, 55, 70
3, 86976, Note_on_c, 1, 51, 70
3, 87164, Note_off_c, 1, 58, 100
3, 87164, Note_off_c, 1, 55, 100
3, 87164, Note_off_c, 1, 51, 100
3, 87168, Note_on_c, 1, 55, 70
3, 87168, Note_on_c, 1, 51, 70
3, 87168, Note_on_c, 1, 58, 70
3, 87356, Note_off_c, 1, 55, 100
3, 87356, Note_off_c, 1, 51, 100
3, 87356, Note_off_c, 1, 58, 100
3, 87360, Note_on_c, 1, 58, 70
3, 87360, Note_on_c, 1, 55, 70
3, 87360, Note_on_c, 1, 51, 70
3, 87548, Note_off_c, 1, 58, 100
3, 87548, Note_off_c, 1, 55, 100
3, 87548, Note_off_c, 1, 51, 100
3, 87552, Note_on_c, 1, 51, 70
3, 87740, Note_off_c, 1, 51, 100
3, 87744, Note_on_c, 1, 46, 70
3, 87932, Note_off_c, 1, 46, 100
3, 87936, Note_on_c, 1, 44, 70
3, 88124, Note_off_c, 1, 44, 100
3, 88128, Note_on_c, 1, 43, 70
3, 88316, Note_off_c, 1, 43, 100
3, 88320, Note_on_c, 1, 51, 70
3, 88320, Note_on_c, 1, 46, 70
3, 88320, Note_on_c, 1, 43, 70
3, 88508, Note_off_c, 1, 51, 100
3, 88508, Note_off_c, 1, 46, 100
3, 88508, Note_off_c, 1, 43, 100
3, 88512, Note_on_c, 1, 51, 70
3, 88512, Note_on_c, 1, 46, 70
3, 88512, Note_on_c, 1, 43, 70
3, 88700, Note_off_c, 1, 51, 100
3, 88700, Note_off_c, 1, 46, 100
3, 88700, Note_off_c, 1, 43, 100
3, 88704, Note_on_c, 1, 51, 70
3, 88704, Note_on_c, 1, 46, 70
3, 88704, Note_on_c, 1, 43, 70
3, 88892, Note_off_c, 1, 51, 100
3, 88892, Note_off_c, 1, 46, 100
3, 88892, Note_off_c, 1, 43, 100
3, 88896, Note_on_c, 1, 51, 70
3, 88896, Note_on_c, 1, 46, 70
3, 88896, Note_on_c, 1, 43, 70
3, 89084, Note_off_c, 1, 51, 100
3, 89084, Note_off_c, 1, 46, 100
3, 89084, Note_off_c, 1, 43, 100
3, 89088, Note_on_c, 1, 51, 70
3, 89088, Note_on_c, 1, 46, 70
3, 89088, Note_on_c, 1, 43, 70
3, 89276, Note_off_c, 1, 51, 100
3, 89276, Note_off_c, 1, 46, 100
3, 89276, Note_off_c, 1, 43, 100
3, 89280, Note_on_c, 1, 51, 70
3, 89280, Note_on_c, 1, 46, 70
3, 89280, Note_on_c, 1, 43, 70
3, 89468, Note_off_c, 1, 51, 100
3, 89468, Note_off_c, 1, 46, 100
3, 89468, Note_off_c, 1, 43, 100
3, 89472, Note_on_c, 1, 51, 70
3, 89472, Note_on_c, 1, 46, 70
3, 89472, Note_on_c, 1, 43, 70
3, 89660, Note_off_c, 1, 51, 100
3, 89660, Note_off_c, 1, 46, 100
3, 89660, Note_off_c, 1, 43, 100
3, 89664, Note_on_c, 1, 51, 70
3, 89664, Note_on_c, 1, 46, 70
3, 89664, Note_on_c, 1, 43, 70
3, 89852, Note_off_c, 1, 51, 100
3, 89852, Note_off_c, 1, 46, 100
3, 89852, Note_off_c, 1, 43, 100
3, 89856, Note_on_c, 1, 51, 70
3, 89856, Note_on_c, 1, 48, 70
3, 89856, Note_on_c, 1, 44, 70
3, 90044, Note_off_c, 1, 51, 100
3, 90044, Note_off_c, 1, 48, 100
3, 90044, Note_off_c, 1, 44, 100
3, 90048, Note_on_c, 1, 51, 70
3, 90048, Note_on_c, 1, 48, 70
3, 90048, Note_on_c, 1, 44, 70
3, 90236, Note_off_c, 1, 51, 100
3, 90236, Note_off_c, 1, 48, 100
3, 90236, Note_off_c, 1, 44, 100
3, 90240, Note_on_c, 1, 51, 70
3, 90240, Note_on_c, 1, 48, 70
3, 90240, Note_on_c, 1, 44, 70
3, 90428, Note_off_c, 1, 51, 100
3, 90428, Note_off_c, 1, 48, 100
3, 90428, Note_off_c, 1, 44, 100
3, 90432, Note_on_c, 1, 52, 70
3, 90432, Note_on_c, 1, 48, 70
3, 90432, Note_on_c, 1, 44, 70
3, 90620, Note_off_c, 1, 52, 100
3, 90620, Note_off_c, 1, 48, 100
3, 90620, Note_off_c, 1, 44, 100
3, 90624, Note_on_c, 1, 52, 70
3, 90624, Note_on_c, 1, 48, 70
3, 90624, Note_on_c, 1, 44, 70
3, 90812, Note_off_c, 1, 52, 100
3, 90812, Note_off_c, 1, 48, 100
3, 90812, Note_off_c, 1, 44, 100
3, 90816, Note_on_c, 1, 52, 70
3, 90816, Note_on_c, 1, 48, 70
3, 90816, Note_on_c, 1, 44, 70
3, 91004, Note_off_c, 1, 52, 100
3, 91004, Note_off_c, 1, 48, 100
3, 91004, Note_off_c, 1, 44, 100
3, 91008, Note_on_c, 1, 53, 70
3, 91008, Note_on_c, 1, 48, 70
3, 91008, Note_on_c, 1, 44, 70
3, 91196, Note_off_c, 1, 53, 100
3, 91196, Note_off_c, 1, 48, 100
3, 91196, Note_off_c, 1, 44, 100
3, 91200, Note_on_c, 1, 53, 70
3, 91200, Note_on_c, 1, 48, 70
3, 91200, Note_on_c, 1, 44, 70
3, 91388, Note_off_c, 1, 53, 100
3, 91388, Note_off_c, 1, 48, 100
3, 91388, Note_off_c, 1, 44, 100
3, 91392, Note_on_c, 1, 53, 70
3, 91392, Note_on_c, 1, 48, 70
3, 91392, Note_on_c, 1, 44, 70
3, 91580, Note_off_c, 1, 53, 100
3, 91580, Note_off_c, 1, 48, 100
3, 91580, Note_off_c, 1, 44, 100
3, 91584, Note_on_c, 1, 55, 70
3, 91584, Note_on_c, 1, 51, 70
3, 91584, Note_on_c, 1, 46, 70
3, 91772, Note_off_c, 1, 55, 100
3, 91772, Note_off_c, 1, 51, 100
3, 91772, Note_off_c, 1, 46, 100
3, 91776, Note_on_c, 1, 55, 70
3, 91776, Note_on_c, 1, 51, 70
3, 91776, Note_on_c, 1, 46, 70
3, 91964, Note_off_c, 1, 55, 100
3, 91964, Note_off_c, 1, 51, 100
3, 91964, Note_off_c, 1, 46, 100
3, 91968, Note_on_c, 1, 55, 70
3, 91968, Note_on_c, 1, 51, 70
3, 91968, Note_on_c, 1, 46, 70
3, 92156, Note_off_c, 1, 55, 100
3, 92156, Note_off_c, 1, 51, 100
3, 92156, Note_off_c, 1, 46, 100
3, 92160, Note_on_c, 1, 55, 70
3, 92160, Note_on_c, 1, 51, 70
3, 92160, Note_on_c, 1, 46, 70
3, 92348, Note_off_c, 1, 55, 100
3, 92348, Note_off_c, 1, 51, 100
3, 92348, Note_off_c, 1, 46, 100
3, 92352, Note_on_c, 1, 55, 70
3, 92352, Note_on_c, 1, 51, 70
3, 92352, Note_on_c, 1, 46, 70
3, 92540, Note_off_c, 1, 55, 100
3, 92540, Note_off_c, 1, 51, 100
3, 92540, Note_off_c, 1, 46, 100
3, 92544, Note_on_c, 1, 55, 70
3, 92544, Note_on_c, 1, 51, 70
3, 92544, Note_on_c, 1, 46, 70
3, 92732, Note_off_c, 1, 55, 100
3, 92732, Note_off_c, 1, 51, 100
3, 92732, Note_off_c, 1, 46, 100
3, 92736, Note_on_c, 1, 56, 70
3, 92736, Note_on_c, 1, 53, 70
3, 92736, Note_on_c, 1, 46, 70
3, 92924, Note_off_c, 1, 56, 100
3, 92924, Note_off_c, 1, 53, 100
3, 92924, Note_off_c, 1, 46, 100
3, 92928, Note_on_c, 1, 56, 70
3, 92928, Note_on_c, 1, 53, 70
3, 92928, Note_on_c, 1, 46, 70
3, 93116, Note_off_c, 1, 56, 100
3, 93116, Note_off_c, 1, 53, 100
3, 93116, Note_off_c, 1, 46, 100
3, 93120, Note_on_c, 1, 56, 70
3, 93120, Note_on_c, 1, 53, 70
3, 93120, Note_on_c, 1, 46, 70
3, 93308, Note_off_c, 1, 56, 100
3, 93308, Note_off_c, 1, 53, 100
3, 93308, Note_off_c, 1, 46, 100
3, 93312, Note_on_c, 1, 55, 80
3, 93312, Note_on_c, 1, 51, 80
3, 93692, Note_off_c, 1, 55, 100
3, 93692, Note_off_c, 1, 51, 100
3, 94464, Note_on_c, 1, 58, 80
3, 94464, Note_on_c, 1, 46, 80
3, 94844, Note_off_c, 1, 58, 100
3, 94848, Note_on_c, 1, 56, 80
3, 95036, Note_off_c, 1, 46, 100
3, 95036, Note_off_c, 1, 56, 100
3, 95040, Note_on_c, 1, 55, 80
3, 95040, Note_on_c, 1, 51, 80
3, 95420, Note_off_c, 1, 55, 100
3, 95420, Note_off_c, 1, 51, 100
3, 96192, Note_on_c, 1, 46, 80
3, 96192, Note_on_c, 1, 34, 80
3, 96572, Note_off_c, 1, 46, 100
3, 96576, Note_on_c, 1, 44, 80
3, 96764, Note_off_c, 1, 34, 100
3, 96764, Note_off_c, 1, 44, 100
3, 96768, Note_on_c, 1, 39, 80
3, 96768, Note_on_c, 1, 43, 80
3, 97148, Note_off_c, 1, 39, 100
3, 97148, Note_off_c, 1, 43, 100
3, 98496, Note_on_c, 1, 39, 80
3, 98684, Note_off_c, 1, 39, 100
3, 98688, Note_on_c, 1, 43, 80
3, 98876, Note_off_c, 1, 43, 100
3, 98880, Note_on_c, 1, 46, 80
3, 99068, Note_off_c, 1, 46, 100
3, 99072, Note_on_c, 1, 51, 80
3, 99260, Note_off_c, 1, 51, 100
3, 99264, Note_on_c, 1, 55, 80
3, 99452, Note_off_c, 1, 55, 100
3, 99456, Note_on_c, 1, 58, 80
3, 99644, Note_off_c, 1, 58, 100
3, 99648, Note_on_c, 1, 58, 80
3, 100028, Note_off_c, 1, 58, 100
3, 100032, Note_on_c, 1, 56, 80
3, 100032, Note_on_c, 1, 46, 80
3, 100220, Note_off_c, 1, 56, 100
3, 100220, Note_off_c, 1, 46, 100
3, 100224, Note_on_c, 1, 56, 80
3, 100224, Note_on_c, 1, 51, 80
3, 100796, Note_off_c, 1, 56, 100
3, 100796, Note_off_c, 1, 51, 100
3, 100800, Note_on_c, 1, 55, 80
3, 100800, Note_on_c, 1, 51, 80
3, 101180, Note_off_c, 1, 55, 100
3, 101180, Note_off_c, 1, 51, 100
3, 101952, Note_on_c, 1, 39, 80
3, 102140, Note_off_c, 1, 39, 100
3, 102144, Note_on_c, 1, 42, 80
3, 102332, Note_off_c, 1, 42, 100
3, 102336, Note_on_c, 1, 46, 80
3, 102524, Note_off_c, 1, 46, 100
3, 102528, Note_on_c, 1, 51, 80
3, 102716, Note_off_c, 1, 51, 100
3, 102720, Note_on_c, 1, 54, 80
3, 102908, Note_off_c, 1, 54, 100
3, 102912, Note_on_c, 1, 58, 80
3, 103100, Note_off_c, 1, 58, 100
3, 103104, Note_on_c, 1, 63, 80
3, 103292, Note_off_c, 1, 63, 100
3, 103296, Note_on_c, 1, 59, 80
3, 103484, Note_off_c, 1, 59, 100
3, 103488, Note_on_c, 1, 58, 80
3, 103676, Note_off_c, 1, 58, 100
3, 103680, Note_on_c, 1, 56, 80
3, 104252, Note_off_c, 1, 56, 100
3, 104256, Note_on_c, 1, 53, 80
3, 104828, Note_off_c, 1, 53, 100
3, 104832, Note_on_c, 1, 54, 80
3, 105404, Note_off_c, 1, 54, 100
3, 105408, Note_on_c, 1, 47, 80
3, 105980, Note_off_c, 1, 47, 100
3, 105984, Note_on_c, 1, 49, 80
3, 106556, Note_off_c, 1, 49, 100
3, 106560, Note_on_c, 1, 37, 80
3, 107132, Note_off_c, 1, 37, 100
3, 107136, Note_on_c, 1, 38, 80
3, 107708, Note_off_c, 1, 38, 100
3, 107712, Note_on_c, 1, 50, 80
3, 108284, Note_off_c, 1, 50, 100
3, 108288, Note_on_c, 1, 51, 80
3, 108860, Note_off_c, 1, 51, 100
3, 108864, Note_on_c, 1, 44, 80
3, 109436, Note_off_c, 1, 44, 100
3, 109440, Note_on_c, 1, 45, 80
3, 110012, Note_off_c, 1, 45, 100
3, 110016, Note_on_c, 1, 46, 80
3, 110588, Note_off_c, 1, 46, 100
3, 110592, Note_on_c, 1, 39, 80
3, 110784, Note_on_c, 1, 51, 80
3, 110972, Note_off_c, 1, 51, 100
3, 110976, Note_on_c, 1, 51, 80
3, 111164, Note_off_c, 1, 51, 100
3, 111168, Note_on_c, 1, 51, 80
3, 111356, Note_off_c, 1, 51, 100
3, 111360, Note_on_c, 1, 51, 80
3, 111548, Note_off_c, 1, 51, 100
3, 111552, Note_on_c, 1, 51, 80
3, 111740, Note_off_c, 1, 51, 100
3, 111744, Note_on_c, 1, 51, 80
3, 111932, Note_off_c, 1, 51, 100
3, 111936, Note_on_c, 1, 51, 80
3, 112124, Note_off_c, 1, 51, 100
3, 112128, Note_on_c, 1, 51, 80
3, 112316, Note_off_c, 1, 39, 100
3, 112316, Note_off_c, 1, 51, 100
3, 112320, Note_on_c, 1, 51, 80
3, 112508, Note_off_c, 1, 51, 100
3, 112512, Note_on_c, 1, 51, 80
3, 112700, Note_off_c, 1, 51, 100
3, 112704, Note_on_c, 1, 51, 80
3, 112704, Note_on_c, 1, 63, 80
3, 112796, Note_off_c, 1, 63, 100
3, 112800, Note_on_c, 1, 62, 80
3, 112892, Note_off_c, 1, 51, 100
3, 112892, Note_off_c, 1, 62, 100
3, 112896, Note_on_c, 1, 51, 80
3, 112896, Note_on_c, 1, 62, 80
3, 113084, Note_off_c, 1, 51, 100
3, 113088, Note_on_c, 1, 51, 80
3, 113276, Note_off_c, 1, 62, 100
3, 113276, Note_off_c, 1, 51, 100
3, 113280, Note_on_c, 1, 51, 80
3, 113280, Note_on_c, 1, 60, 80
3, 113372, Note_off_c, 1, 60, 100
3, 113376, Note_on_c, 1, 58, 80
3, 113468, Note_off_c, 1, 51, 100
3, 113468, Note_off_c, 1, 58, 100
3, 113472, Note_on_c, 1, 51, 80
3, 113472, Note_on_c, 1, 58, 80
3, 113660, Note_off_c, 1, 51, 100
3, 113664, Note_on_c, 1, 51, 80
3, 113756, Note_off_c, 1, 58, 100
3, 113760, Note_on_c, 1, 56, 80
3, 113852, Note_off_c, 1, 51, 100
3, 113852, Note_off_c, 1, 56, 100
3, 113856, Note_on_c, 1, 51, 80
3, 113856, Note_on_c, 1, 55, 80
3, 113948, Note_off_c, 1, 55, 100
3, 113952, Note_on_c, 1, 56, 80
3, 114044, Note_off_c, 1, 51, 100
3, 114044, Note_off_c, 1, 56, 100
3, 114048, Note_on_c, 1, 55, 80
3, 114048, Note_on_c, 1, 51, 80
3, 114236, Note_off_c, 1, 51, 100
3, 114240, Note_on_c, 1, 51, 80
3, 114428, Note_off_c, 1, 55, 100
3, 114428, Note_off_c, 1, 51, 100
3, 114432, Note_on_c, 1, 51, 80
3, 114620, Note_off_c, 1, 51, 100
3, 114624, Note_on_c, 1, 51, 80
3, 114812, Note_off_c, 1, 51, 100
3, 114816, Note_on_c, 1, 51, 80
3, 115004, Note_off_c, 1, 51, 100
3, 115008, Note_on_c, 1, 51, 80
3, 115196, Note_off_c, 1, 51, 100
3, 115200, Note_on_c, 1, 51, 80
3, 115388, Note_off_c, 1, 51, 100
3, 115392, Note_on_c, 1, 51, 80
3, 115580, Note_off_c, 1, 51, 100
3, 115584, Note_on_c, 1, 51, 80
3, 115772, Note_off_c, 1, 51, 100
3, 115776, Note_on_c, 1, 51, 80
3, 115964, Note_off_c, 1, 51, 100
3, 115968, Note_on_c, 1, 51, 80
3, 116156, Note_off_c, 1, 51, 100
3, 116160, Note_on_c, 1, 51, 80
3, 116348, Note_off_c, 1, 51, 100
3, 116352, Note_on_c, 1, 51, 80
3, 116540, Note_off_c, 1, 51, 100
3, 116544, Note_on_c, 1, 51, 80
3, 116732, Note_off_c, 1, 51, 100
3, 116736, Note_on_c, 1, 51, 80
3, 116736, Note_on_c, 1, 63, 80
3, 116828, Note_off_c, 1, 63, 100
3, 116832, Note_on_c, 1, 62, 80
3, 116924, Note_off_c, 1, 51, 100
3, 116924, Note_off_c, 1, 62, 100
3, 116928, Note_on_c, 1, 51, 80
3, 116928, Note_on_c, 1, 62, 80
3, 117020, Note_off_c, 1, 62, 100
3, 117024, Note_on_c, 1, 60, 80
3, 117116, Note_off_c, 1, 51, 100
3, 117116, Note_off_c, 1, 60, 100
3, 117120, Note_on_c, 1, 51, 80
3, 117120, Note_on_c, 1, 58, 80
3, 117212, Note_off_c, 1, 58, 100
3, 117216, Note_on_c, 1, 56, 80
3, 117308, Note_off_c, 1, 51, 100
3, 117308, Note_off_c, 1, 56, 100
3, 117312, Note_on_c, 1, 51, 80
3, 117312, Note_on_c, 1, 55, 80
3, 117404, Note_off_c, 1, 55, 100
3, 117408, Note_on_c, 1, 53, 80
3, 117500, Note_off_c, 1, 51, 100
3, 117500, Note_off_c, 1, 53, 100
3, 117504, Note_on_c, 1, 51, 80
3, 117884, Note_off_c, 1, 51, 100
3, 118080, Note_on_c, 1, 55, 80
3, 118080, Note_on_c, 1, 58, 80
3, 118080, Note_on_c, 1, 63, 80
3, 118460, Note_off_c, 1, 55, 100
3, 118460, Note_off_c, 1, 58, 100
3, 118460, Note_off_c, 1, 63, 100
3, 118656, Note_on_c, 1, 67, 80
3, 118656, Note_on_c, 1, 70, 80
3, 118656, Note_on_c, 1, 75, 80
3, 119036, Note_off_c, 1, 67, 100
3, 119036, Note_off_c, 1, 70, 100
3, 119036, Note_off_c, 1, 75, 100
3, 119232, Note_on_c, 1, 68, 80
3, 119232, Note_on_c, 1, 72, 80
3, 119232, Note_on_c, 1, 75, 80
3, 119612, Note_off_c, 1, 68, 100
3, 119612, Note_off_c, 1, 72, 100
3, 119612, Note_off_c, 1, 75, 100
3, 119808, Note_on_c, 1, 56, 80
3, 119808, Note_on_c, 1, 60, 80
3, 119808, Note_on_c, 1, 63, 80
3, 120188, Note_off_c, 1, 56, 100
3, 120188, Note_off_c, 1, 60, 100
3, 120188, Note_off_c, 1, 63, 100
3, 120384, Note_on_c, 1, 57, 80
3, 120384, Note_on_c, 1, 60, 80
3, 120384, Note_on_c, 1, 63, 80
3, 120764, Note_off_c, 1, 57, 100
3, 120764, Note_off_c, 1, 60, 100
3, 120764, Note_off_c, 1, 63, 100
3, 120960, Note_on_c, 1, 58, 80
3, 121152, Note_on_c, 1, 63, 80
3, 121152, Note_on_c, 1, 67, 80
3, 121340, Note_off_c, 1, 63, 100
3, 121340, Note_off_c, 1, 67, 100
3, 121344, Note_on_c, 1, 67, 80
3, 121344, Note_on_c, 1, 63, 80
3, 121532, Note_off_c, 1, 67, 100
3, 121532, Note_off_c, 1, 63, 100
3, 121536, Note_on_c, 1, 67, 80
3, 121536, Note_on_c, 1, 63, 80
3, 121724, Note_off_c, 1, 67, 100
3, 121724, Note_off_c, 1, 63, 100
3, 121728, Note_on_c, 1, 67, 80
3, 121728, Note_on_c, 1, 63, 80
3, 121916, Note_off_c, 1, 67, 100
3, 121916, Note_off_c, 1, 63, 100
3, 121920, Note_on_c, 1, 67, 80
3, 121920, Note_on_c, 1, 63, 80
3, 122108, Note_off_c, 1, 58, 100
3, 122108, Note_off_c, 1, 67, 100
3, 122108, Note_off_c, 1, 63, 100
3, 122112, Note_on_c, 1, 58, 80
3, 122112, Note_on_c, 1, 68, 80
3, 122112, Note_on_c, 1, 62, 80
3, 122300, Note_off_c, 1, 68, 100
3, 122300, Note_off_c, 1, 62, 100
3, 122304, Note_on_c, 1, 68, 80
3, 122304, Note_on_c, 1, 62, 80
3, 122492, Note_off_c, 1, 68, 100
3, 122492, Note_off_c, 1, 62, 100
3, 122496, Note_on_c, 1, 68, 80
3, 122496, Note_on_c, 1, 62, 80
3, 122684, Note_off_c, 1, 58, 100
3, 122684, Note_off_c, 1, 68, 100
3, 122684, Note_off_c, 1, 62, 100
3, 122688, Note_on_c, 1, 63, 80
3, 122688, Note_on_c, 1, 67, 80
3, 123068, Note_off_c, 1, 63, 100
3, 123068, Note_off_c, 1, 67, 100
3, 124416, Note_on_c, 1, 58, 80
3, 124608, Note_on_c, 1, 63, 80
3, 124608, Note_on_c, 1, 67, 80
3, 124796, Note_off_c, 1, 63, 100
3, 124796, Note_off_c, 1, 67, 100
3, 124800, Note_on_c, 1, 67, 80
3, 124800, Note_on_c, 1, 63, 80
3, 124988, Note_off_c, 1, 67, 100
3, 124988, Note_off_c, 1, 63, 100
3, 124992, Note_on_c, 1, 67, 80
3, 124992, Note_on_c, 1, 63, 80
3, 125180, Note_off_c, 1, 67, 100
3, 125180, Note_off_c, 1, 63, 100
3, 125184, Note_on_c, 1, 67, 80
3, 125184, Note_on_c, 1, 63, 80
3, 125372, Note_off_c, 1, 67, 100
3, 125372, Note_off_c, 1, 63, 100
3, 125376, Note_on_c, 1, 67, 80
3, 125376, Note_on_c, 1, 63, 80
3, 125564, Note_off_c, 1, 58, 100
3, 125564, Note_off_c, 1, 67, 100
3, 125564, Note_off_c, 1, 63, 100
3, 125568, Note_on_c, 1, 58, 80
3, 125568, Note_on_c, 1, 68, 80
3, 125568, Note_on_c, 1, 62, 80
3, 125756, Note_off_c, 1, 68, 100
3, 125756, Note_off_c, 1, 62, 100
3, 125760, Note_on_c, 1, 68, 80
3, 125760, Note_on_c, 1, 62, 80
3, 125948, Note_off_c, 1, 68, 100
3, 125948, Note_off_c, 1, 62, 100
3, 125952, Note_on_c, 1, 68, 80
3, 125952, Note_on_c, 1, 62, 80
3, 126140, Note_off_c, 1, 58, 100
3, 126140, Note_off_c, 1, 68, 100
3, 126140, Note_off_c, 1, 62, 100
3, 126144, Note_on_c, 1, 51, 80
3, 126332, Note_off_c, 1, 51, 100
3, 126336, Note_on_c, 1, 55, 80
3, 126524, Note_off_c, 1, 55, 100
3, 126528, Note_on_c, 1, 58, 80
3, 126716, Note_off_c, 1, 58, 100
3, 126720, Note_on_c, 1, 63, 80
3, 126908, Note_off_c, 1, 63, 100
3, 126912, Note_on_c, 1, 67, 80
3, 127100, Note_off_c, 1, 67, 100
3, 127104, Note_on_c, 1, 69, 80
3, 127292, Note_off_c, 1, 69, 100
3, 127296, Note_on_c, 1, 70, 80
3, 127676, Note_off_c, 1, 70, 100
3, 127680, Note_on_c, 1, 65, 80
3, 127680, Note_on_c, 1, 58, 80
3, 127820, Note_off_c, 1, 65, 100
3, 127824, Note_on_c, 1, 68, 80
3, 127868, Note_off_c, 1, 58, 100
3, 127868, Note_off_c, 1, 68, 100
3, 127872, Note_on_c, 1, 39, 80
3, 128060, Note_off_c, 1, 39, 100
3, 128064, Note_on_c, 1, 43, 80
3, 128252, Note_off_c, 1, 43, 100
3, 128256, Note_on_c, 1, 46, 80
3, 128444, Note_off_c, 1, 46, 100
3, 128448, Note_on_c, 1, 51, 80
3, 128636, Note_off_c, 1, 51, 100
3, 128640, Note_on_c, 1, 55, 80
3, 128828, Note_off_c, 1, 55, 100
3, 128832, Note_on_c, 1, 57, 80
3, 129020, Note_off_c, 1, 57, 100
3, 129024, Note_on_c, 1, 58, 80
3, 129404, Note_off_c, 1, 58, 100
3, 129408, Note_on_c, 1, 53, 80
3, 129408, Note_on_c, 1, 46, 80
3, 129548, Note_off_c, 1, 53, 100
3, 129552, Note_on_c, 1, 56, 80
3, 129596, Note_off_c, 1, 46, 100
3, 129596, Note_off_c, 1, 56, 100
3, 129600, Note_on_c, 1, 55, 80
3, 129600, Note_on_c, 1, 51, 80
3, 129788, Note_off_c, 1, 55, 100
3, 129788, Note_off_c, 1, 51, 100
3, 129792, Note_on_c, 1, 53, 80
3, 129792, Note_on_c, 1, 46, 80
3, 130076, Note_off_c, 1, 53, 100
3, 130080, Note_on_c, 1, 56, 80
3, 130172, Note_off_c, 1, 46, 100
3, 130172, Note_off_c, 1, 56, 100
3, 130176, Note_on_c, 1, 55, 80
3, 130176, Note_on_c, 1, 51, 80
3, 130364, Note_off_c, 1, 55, 100
3, 130364, Note_off_c, 1, 51, 100
3, 130368, Note_on_c, 1, 53, 80
3, 130368, Note_on_c, 1, 46, 80
3, 130652, Note_off_c, 1, 53, 100
3, 130656, Note_on_c, 1, 56, 80
3, 130748, Note_off_c, 1, 46, 100
3, 130748, Note_off_c, 1, 56, 100
3, 130752, Note_on_c, 1, 55, 80
3, 130752, Note_on_c, 1, 51, 80
3, 130940, Note_off_c, 1, 55, 100
3, 130940, Note_off_c, 1, 51, 100
3, 130944, Note_on_c, 1, 46, 80
3, 130944, Note_on_c, 1, 53, 80
3, 131036, Note_off_c, 1, 53, 100
3, 131040, Note_on_c, 1, 52, 80
3, 131132, Note_off_c, 1, 46, 100
3, 131132, Note_off_c, 1, 52, 100
3, 131136, Note_on_c, 1, 46, 80
3, 131136, Note_on_c, 1, 53, 80
3, 131228, Note_off_c, 1, 53, 100
3, 131232, Note_on_c, 1, 50, 80
3, 131324, Note_off_c, 1, 46, 100
3, 131324, Note_off_c, 1, 50, 100
3, 131520, Note_on_c, 1, 50, 80
3, 131520, Note_on_c, 1, 46, 80
3, 131520, Note_on_c, 1, 39, 80
3, 131900, Note_off_c, 1, 50, 100
3, 131904, Note_on_c, 1, 51, 80
3, 132476, Note_off_c, 1, 39, 100
3, 132476, Note_off_c, 1, 46, 100
3, 132476, Note_off_c, 1, 51, 100
3, 132476, End_track
0, 0, End_of_file
