0, 0, Header, 1, 3, 384
1, 0, Start_track
1, 0, Title_t, "L.v.Beethoven 1mov - Piano Sonata No.11 in Bb Major Op.22\000"
1, 0, Copyright_t, "Copyright(C) 1995-2009, Suzuki Software\000"
1, 0, Sequencer_specific, 9, 67, 123, 0, 88, 70, 48, 50, 0, 1
1, 0, Text_t, "XFhd:2000/05/21:JP:Classical::::L.v.Beethoven:::Kaoru Suzuki\000"
1, 0, Text_t, "XFln:JP:\203s\203A\203m\203\\\203i\203^\221æ11\224Ô\225Ï\203\215\222·\222²\215ì\225i22\201`\221æ1\212y\217Í:L.v.\203x\201[\203g\201[\203\224\203F\203\223:::\227é\202¿\202á\202ñ:\227é\202¿\202á\202ñ\000"
1, 0, Time_signature, 1, 2, 96, 8
1, 0, Sequencer_specific, 3, 0, 0, 65
1, 0, Sequencer_specific, 5, 0, 0, 119, 14, 0
1, 0, Tempo, 400000
1, 384, Time_signature, 4, 2, 96, 8
1, 18816, Tempo, 428571
1, 20352, Tempo, 444444
1, 21888, Tempo, 461538
1, 22656, Tempo, 480000
1, 23040, Tempo, 500000
1, 23424, Tempo, 400000
1, 84864, Tempo, 413793
1, 91008, Tempo, 428571
1, 93312, Tempo, 461538
1, 94080, Tempo, 400000
1, 123264, Tempo, 413793
1, 126336, Tempo, 428571
1, 127104, Tempo, 444444
1, 127488, Tempo, 461538
1, 127872, Tempo, 400000
1, 189312, Tempo, 413793
1, 195456, Tempo, 428571
1, 196992, Tempo, 444444
1, 197760, Tempo, 461538
1, 198528, Tempo, 400000
1, 296064, Tempo, 428571
1, 296448, Tempo, 461538
1, 299136, Tempo, 400000
1, 321408, Tempo, 428571
1, 322944, Tempo, 461538
1, 329088, Tempo, 400000
1, 361344, Tempo, 428571
1, 362112, Tempo, 444444
1, 363264, Tempo, 400000
1, 370944, Tempo, 413793
1, 371328, Tempo, 428571
1, 371712, Tempo, 444444
1, 372096, Tempo, 400000
1, 398208, Tempo, 413793
1, 398976, Tempo, 428571
1, 399360, Tempo, 444444
1, 399744, Tempo, 400000
1, 408192, Tempo, 500000
1, 408192, End_track
2, 0, Start_track
2, 0, Title_t, "Right"
2, 0, Control_c, 0, 0, 0
2, 0, Program_c, 0, 0
2, 0, Control_c, 0, 7, 100
2, 0, Control_c, 0, 10, 70
2, 0, Control_c, 0, 91, 127
2, 0, Key_signature, -2, "major"
2, 0, Note_on_c, 0, 62, 80
2, 0, Note_on_c, 0, 58, 80
2, 92, Note_off_c, 0, 58, 100
2, 96, Note_on_c, 0, 57, 80
2, 188, Note_off_c, 0, 57, 100
2, 192, Note_on_c, 0, 58, 80
2, 284, Note_off_c, 0, 58, 100
2, 288, Note_on_c, 0, 53, 80
2, 380, Note_off_c, 0, 62, 100
2, 380, Note_off_c, 0, 53, 100
2, 384, Note_on_c, 0, 65, 80
2, 384, Note_on_c, 0, 62, 80
2, 764, Note_off_c, 0, 65, 100
2, 764, Note_off_c, 0, 62, 100
2, 768, Note_on_c, 0, 62, 80
2, 768, Note_on_c, 0, 58, 80
2, 1148, Note_off_c, 0, 62, 100
2, 1148, Note_off_c, 0, 58, 100
2, 1536, Note_on_c, 0, 62, 80
2, 1536, Note_on_c, 0, 58, 80
2, 1628, Note_off_c, 0, 58, 100
2, 1632, Note_on_c, 0, 57, 80
2, 1724, Note_off_c, 0, 57, 100
2, 1728, Note_on_c, 0, 58, 80
2, 1820, Note_off_c, 0, 58, 100
2, 1824, Note_on_c, 0, 53, 80
2, 1916, Note_off_c, 0, 62, 100
2, 1916, Note_off_c, 0, 53, 100
2, 1920, Note_on_c, 0, 65, 80
2, 1920, Note_on_c, 0, 62, 80
2, 2300, Note_off_c, 0, 65, 100
2, 2300, Note_off_c, 0, 62, 100
2, 2304, Note_on_c, 0, 62, 80
2, 2304, Note_on_c, 0, 58, 80
2, 2684, Note_off_c, 0, 62, 100
2, 2684, Note_off_c, 0, 58, 100
2, 3072, Note_on_c, 0, 62, 80
2, 3072, Note_on_c, 0, 58, 80
2, 3168, Note_on_c, 0, 57, 81
2, 3248, Note_off_c, 0, 58, 100
2, 3264, Note_on_c, 0, 58, 82
2, 3352, Note_off_c, 0, 57, 100
2, 3360, Note_on_c, 0, 53, 84
2, 3424, Note_off_c, 0, 58, 100
2, 3452, Note_off_c, 0, 62, 100
2, 3456, Note_on_c, 0, 65, 85
2, 3456, Note_on_c, 0, 62, 85
2, 3516, Note_off_c, 0, 53, 100
2, 3552, Note_on_c, 0, 61, 87
2, 3628, Note_off_c, 0, 62, 100
2, 3648, Note_on_c, 0, 62, 88
2, 3712, Note_off_c, 0, 61, 100
2, 3744, Note_on_c, 0, 58, 90
2, 3812, Note_off_c, 0, 62, 100
2, 3836, Note_off_c, 0, 65, 100
2, 3840, Note_on_c, 0, 70, 91
2, 3840, Note_on_c, 0, 65, 91
2, 3896, Note_off_c, 0, 58, 100
2, 3936, Note_on_c, 0, 64, 93
2, 4008, Note_off_c, 0, 65, 100
2, 4032, Note_on_c, 0, 65, 94
2, 4080, Note_off_c, 0, 64, 100
2, 4128, Note_on_c, 0, 62, 96
2, 4204, Note_off_c, 0, 65, 100
2, 4220, Note_off_c, 0, 70, 100
2, 4224, Note_on_c, 0, 74, 97
2, 4224, Note_on_c, 0, 70, 97
2, 4296, Note_off_c, 0, 62, 100
2, 4320, Note_on_c, 0, 69, 99
2, 4380, Note_off_c, 0, 70, 100
2, 4416, Note_on_c, 0, 70, 100
2, 4476, Note_off_c, 0, 69, 100
2, 4512, Note_on_c, 0, 65, 102
2, 4576, Note_off_c, 0, 70, 100
2, 4604, Note_off_c, 0, 74, 100
2, 4608, Note_on_c, 0, 77, 103
2, 4608, Note_on_c, 0, 74, 103
2, 4680, Note_off_c, 0, 65, 100
2, 4704, Note_on_c, 0, 73, 105
2, 4776, Note_off_c, 0, 74, 100
2, 4800, Note_on_c, 0, 74, 106
2, 4884, Note_off_c, 0, 73, 100
2, 4896, Note_on_c, 0, 70, 108
2, 4976, Note_off_c, 0, 74, 100
2, 4988, Note_off_c, 0, 77, 100
2, 4988, Note_off_c, 0, 70, 100
2, 4992, Note_on_c, 0, 82, 109
2, 6140, Note_off_c, 0, 82, 100
2, 6144, Note_on_c, 0, 81, 90
2, 6236, Note_off_c, 0, 81, 100
2, 6240, Note_on_c, 0, 82, 90
2, 6332, Note_off_c, 0, 82, 100
2, 6336, Note_on_c, 0, 84, 90
2, 6428, Note_off_c, 0, 84, 100
2, 6432, Note_on_c, 0, 82, 90
2, 6524, Note_off_c, 0, 82, 100
2, 6528, Note_on_c, 0, 81, 90
2, 6716, Note_off_c, 0, 81, 100
2, 6720, Note_on_c, 0, 79, 90
2, 6908, Note_off_c, 0, 79, 100
2, 6912, Note_on_c, 0, 77, 90
2, 7100, Note_off_c, 0, 77, 100
2, 7104, Note_on_c, 0, 75, 90
2, 7292, Note_off_c, 0, 75, 100
2, 7296, Note_on_c, 0, 74, 90
2, 7484, Note_off_c, 0, 74, 100
2, 7488, Note_on_c, 0, 72, 90
2, 7676, Note_off_c, 0, 72, 100
2, 7680, Note_on_c, 0, 79, 90
2, 7868, Note_off_c, 0, 79, 100
2, 7872, Note_on_c, 0, 77, 90
2, 8060, Note_off_c, 0, 77, 100
2, 8064, Note_on_c, 0, 75, 90
2, 8444, Note_off_c, 0, 75, 100
2, 8448, Note_on_c, 0, 74, 90
2, 8828, Note_off_c, 0, 74, 100
2, 9216, Note_on_c, 0, 69, 90
2, 9308, Note_off_c, 0, 69, 100
2, 9312, Note_on_c, 0, 70, 90
2, 9404, Note_off_c, 0, 70, 100
2, 9408, Note_on_c, 0, 72, 90
2, 9500, Note_off_c, 0, 72, 100
2, 9504, Note_on_c, 0, 70, 90
2, 9596, Note_off_c, 0, 70, 100
2, 9600, Note_on_c, 0, 68, 90
2, 9788, Note_off_c, 0, 68, 100
2, 9792, Note_on_c, 0, 67, 90
2, 9980, Note_off_c, 0, 67, 100
2, 9984, Note_on_c, 0, 65, 90
2, 10172, Note_off_c, 0, 65, 100
2, 10176, Note_on_c, 0, 63, 90
2, 10364, Note_off_c, 0, 63, 100
2, 10368, Note_on_c, 0, 62, 90
2, 10556, Note_off_c, 0, 62, 100
2, 10560, Note_on_c, 0, 60, 90
2, 10748, Note_off_c, 0, 60, 100
2, 10752, Note_on_c, 0, 63, 90
2, 10940, Note_off_c, 0, 63, 100
2, 10944, Note_on_c, 0, 57, 90
2, 11132, Note_off_c, 0, 57, 100
2, 11136, Note_on_c, 0, 58, 110
2, 11324, Note_off_c, 0, 58, 100
2, 11328, Note_on_c, 0, 62, 110
2, 11420, Note_off_c, 0, 62, 100
2, 11424, Note_on_c, 0, 60, 110
2, 11516, Note_off_c, 0, 60, 100
2, 11520, Note_on_c, 0, 58, 110
2, 11612, Note_off_c, 0, 58, 100
2, 11616, Note_on_c, 0, 57, 110
2, 11708, Note_off_c, 0, 57, 100
2, 11712, Note_on_c, 0, 58, 110
2, 11804, Note_off_c, 0, 58, 100
2, 11808, Note_on_c, 0, 55, 110
2, 11900, Note_off_c, 0, 55, 100
2, 11904, Note_on_c, 0, 53, 110
2, 12092, Note_off_c, 0, 53, 100
2, 12096, Note_on_c, 0, 67, 110
2, 12188, Note_off_c, 0, 67, 100
2, 12192, Note_on_c, 0, 65, 110
2, 12284, Note_off_c, 0, 65, 100
2, 12288, Note_on_c, 0, 63, 110
2, 12380, Note_off_c, 0, 63, 100
2, 12384, Note_on_c, 0, 62, 110
2, 12476, Note_off_c, 0, 62, 100
2, 12480, Note_on_c, 0, 63, 110
2, 12572, Note_off_c, 0, 63, 100
2, 12576, Note_on_c, 0, 60, 110
2, 12576, Note_on_c, 0, 60, 110
2, 12668, Note_off_c, 0, 60, 100
2, 12668, Note_off_c, 0, 60, 100
2, 12672, Note_on_c, 0, 58, 110
2, 12860, Note_off_c, 0, 58, 100
2, 12864, Note_on_c, 0, 74, 110
2, 12956, Note_off_c, 0, 74, 100
2, 12960, Note_on_c, 0, 72, 110
2, 13052, Note_off_c, 0, 72, 100
2, 13056, Note_on_c, 0, 70, 110
2, 13148, Note_off_c, 0, 70, 100
2, 13152, Note_on_c, 0, 69, 110
2, 13244, Note_off_c, 0, 69, 100
2, 13248, Note_on_c, 0, 70, 110
2, 13340, Note_off_c, 0, 70, 100
2, 13344, Note_on_c, 0, 67, 110
2, 13436, Note_off_c, 0, 67, 100
2, 13440, Note_on_c, 0, 65, 110
2, 13628, Note_off_c, 0, 65, 100
2, 13632, Note_on_c, 0, 79, 110
2, 13724, Note_off_c, 0, 79, 100
2, 13728, Note_on_c, 0, 77, 110
2, 13820, Note_off_c, 0, 77, 100
2, 13824, Note_on_c, 0, 75, 110
2, 13916, Note_off_c, 0, 75, 100
2, 13920, Note_on_c, 0, 74, 110
2, 14012, Note_off_c, 0, 74, 100
2, 14016, Note_on_c, 0, 75, 110
2, 14108, Note_off_c, 0, 75, 100
2, 14112, Note_on_c, 0, 72, 110
2, 14112, Note_on_c, 0, 72, 110
2, 14204, Note_off_c, 0, 72, 100
2, 14204, Note_off_c, 0, 72, 100
2, 14208, Note_on_c, 0, 70, 110
2, 14396, Note_off_c, 0, 70, 100
2, 14400, Note_on_c, 0, 72, 110
2, 14492, Note_off_c, 0, 72, 100
2, 14496, Note_on_c, 0, 74, 110
2, 14588, Note_off_c, 0, 74, 100
2, 14592, Note_on_c, 0, 75, 110
2, 14684, Note_off_c, 0, 75, 100
2, 14688, Note_on_c, 0, 77, 110
2, 14780, Note_off_c, 0, 77, 100
2, 14784, Note_on_c, 0, 79, 110
2, 14876, Note_off_c, 0, 79, 100
2, 14880, Note_on_c, 0, 81, 110
2, 14972, Note_off_c, 0, 81, 100
2, 14976, Note_on_c, 0, 82, 110
2, 15000, Note_on_c, 0, 84, 110
2, 15020, Note_off_c, 0, 82, 100
2, 15024, Note_on_c, 0, 82, 110
2, 15044, Note_off_c, 0, 84, 100
2, 15068, Note_off_c, 0, 82, 100
2, 15072, Note_on_c, 0, 81, 110
2, 15164, Note_off_c, 0, 81, 100
2, 15168, Note_on_c, 0, 82, 110
2, 15260, Note_off_c, 0, 82, 100
2, 15264, Note_on_c, 0, 84, 110
2, 15356, Note_off_c, 0, 84, 100
2, 15360, Note_on_c, 0, 86, 110
2, 15384, Note_on_c, 0, 88, 110
2, 15404, Note_off_c, 0, 86, 100
2, 15408, Note_on_c, 0, 86, 110
2, 15428, Note_off_c, 0, 88, 100
2, 15452, Note_off_c, 0, 86, 100
2, 15456, Note_on_c, 0, 84, 110
2, 15548, Note_off_c, 0, 84, 100
2, 15552, Note_on_c, 0, 86, 110
2, 15644, Note_off_c, 0, 86, 100
2, 15648, Note_on_c, 0, 88, 110
2, 15740, Note_off_c, 0, 88, 100
2, 15744, Note_on_c, 0, 89, 110
2, 16124, Note_off_c, 0, 89, 100
2, 16128, Note_on_c, 0, 65, 110
2, 16508, Note_off_c, 0, 65, 100
2, 19584, Note_on_c, 0, 77, 110
2, 20736, Note_on_c, 0, 71, 80
2, 21116, Note_off_c, 0, 77, 100
2, 21116, Note_off_c, 0, 71, 100
2, 21120, Note_on_c, 0, 75, 80
2, 21120, Note_on_c, 0, 72, 80
2, 21500, Note_off_c, 0, 75, 100
2, 21500, Note_off_c, 0, 72, 100
2, 21504, Note_on_c, 0, 69, 80
2, 21504, Note_on_c, 0, 74, 80
2, 21884, Note_off_c, 0, 69, 100
2, 21888, Note_on_c, 0, 70, 80
2, 22268, Note_off_c, 0, 74, 100
2, 22268, Note_off_c, 0, 70, 100
2, 22272, Note_on_c, 0, 67, 80
2, 22272, Note_on_c, 0, 72, 80
2, 22652, Note_off_c, 0, 67, 100
2, 22656, Note_on_c, 0, 69, 80
2, 23036, Note_off_c, 0, 72, 100
2, 23036, Note_off_c, 0, 69, 100
2, 23040, Note_on_c, 0, 65, 80
2, 23040, Note_on_c, 0, 71, 80
2, 23420, Note_off_c, 0, 65, 100
2, 23420, Note_off_c, 0, 71, 100
2, 23424, Note_on_c, 0, 72, 110
2, 23516, Note_off_c, 0, 72, 100
2, 23520, Note_on_c, 0, 67, 80
2, 23520, Note_on_c, 0, 64, 80
2, 23612, Note_off_c, 0, 67, 100
2, 23612, Note_off_c, 0, 64, 100
2, 23616, Note_on_c, 0, 72, 80
2, 23708, Note_off_c, 0, 72, 100
2, 23712, Note_on_c, 0, 67, 80
2, 23712, Note_on_c, 0, 64, 80
2, 23804, Note_off_c, 0, 67, 100
2, 23804, Note_off_c, 0, 64, 100
2, 23808, Note_on_c, 0, 72, 80
2, 23900, Note_off_c, 0, 72, 100
2, 23904, Note_on_c, 0, 67, 80
2, 23904, Note_on_c, 0, 64, 80
2, 23996, Note_off_c, 0, 67, 100
2, 23996, Note_off_c, 0, 64, 100
2, 24000, Note_on_c, 0, 74, 80
2, 24092, Note_off_c, 0, 74, 100
2, 24096, Note_on_c, 0, 67, 80
2, 24096, Note_on_c, 0, 64, 80
2, 24188, Note_off_c, 0, 67, 100
2, 24188, Note_off_c, 0, 64, 100
2, 24192, Note_on_c, 0, 76, 80
2, 24284, Note_off_c, 0, 76, 100
2, 24288, Note_on_c, 0, 70, 80
2, 24288, Note_on_c, 0, 67, 80
2, 24380, Note_off_c, 0, 70, 100
2, 24380, Note_off_c, 0, 67, 100
2, 24384, Note_on_c, 0, 72, 80
2, 24476, Note_off_c, 0, 72, 100
2, 24480, Note_on_c, 0, 70, 80
2, 24480, Note_on_c, 0, 67, 80
2, 24572, Note_off_c, 0, 70, 100
2, 24572, Note_off_c, 0, 67, 100
2, 24576, Note_on_c, 0, 74, 80
2, 24668, Note_off_c, 0, 74, 100
2, 24672, Note_on_c, 0, 70, 80
2, 24672, Note_on_c, 0, 67, 80
2, 24764, Note_off_c, 0, 70, 100
2, 24764, Note_off_c, 0, 67, 100
2, 24768, Note_on_c, 0, 76, 80
2, 24860, Note_off_c, 0, 76, 100
2, 24864, Note_on_c, 0, 70, 80
2, 24864, Note_on_c, 0, 67, 80
2, 24956, Note_off_c, 0, 70, 100
2, 24956, Note_off_c, 0, 67, 100
2, 24960, Note_on_c, 0, 77, 80
2, 25052, Note_off_c, 0, 77, 100
2, 25056, Note_on_c, 0, 69, 80
2, 25056, Note_on_c, 0, 65, 80
2, 25148, Note_off_c, 0, 69, 100
2, 25148, Note_off_c, 0, 65, 100
2, 25152, Note_on_c, 0, 77, 80
2, 25244, Note_off_c, 0, 77, 100
2, 25248, Note_on_c, 0, 69, 80
2, 25248, Note_on_c, 0, 65, 80
2, 25340, Note_off_c, 0, 69, 100
2, 25340, Note_off_c, 0, 65, 100
2, 25344, Note_on_c, 0, 77, 80
2, 25436, Note_off_c, 0, 77, 100
2, 25440, Note_on_c, 0, 69, 80
2, 25440, Note_on_c, 0, 65, 80
2, 25532, Note_off_c, 0, 69, 100
2, 25532, Note_off_c, 0, 65, 100
2, 25536, Note_on_c, 0, 76, 80
2, 25628, Note_off_c, 0, 76, 100
2, 25632, Note_on_c, 0, 69, 80
2, 25632, Note_on_c, 0, 65, 80
2, 25724, Note_off_c, 0, 69, 100
2, 25724, Note_off_c, 0, 65, 100
2, 25728, Note_on_c, 0, 74, 80
2, 25820, Note_off_c, 0, 74, 100
2, 25824, Note_on_c, 0, 68, 80
2, 25824, Note_on_c, 0, 65, 80
2, 25916, Note_off_c, 0, 68, 100
2, 25916, Note_off_c, 0, 65, 100
2, 25920, Note_on_c, 0, 72, 80
2, 26012, Note_off_c, 0, 72, 100
2, 26016, Note_on_c, 0, 68, 80
2, 26016, Note_on_c, 0, 65, 80
2, 26108, Note_off_c, 0, 68, 100
2, 26108, Note_off_c, 0, 65, 100
2, 26112, Note_on_c, 0, 71, 80
2, 26204, Note_off_c, 0, 71, 100
2, 26208, Note_on_c, 0, 68, 80
2, 26208, Note_on_c, 0, 65, 80
2, 26300, Note_off_c, 0, 68, 100
2, 26300, Note_off_c, 0, 65, 100
2, 26304, Note_on_c, 0, 74, 80
2, 26396, Note_off_c, 0, 74, 100
2, 26400, Note_on_c, 0, 68, 80
2, 26400, Note_on_c, 0, 65, 80
2, 26492, Note_off_c, 0, 68, 100
2, 26492, Note_off_c, 0, 65, 100
2, 26496, Note_on_c, 0, 72, 110
2, 26588, Note_off_c, 0, 72, 100
2, 26592, Note_on_c, 0, 67, 80
2, 26592, Note_on_c, 0, 64, 80
2, 26684, Note_off_c, 0, 67, 100
2, 26684, Note_off_c, 0, 64, 100
2, 26688, Note_on_c, 0, 72, 80
2, 26780, Note_off_c, 0, 72, 100
2, 26784, Note_on_c, 0, 67, 80
2, 26784, Note_on_c, 0, 64, 80
2, 26876, Note_off_c, 0, 67, 100
2, 26876, Note_off_c, 0, 64, 100
2, 26880, Note_on_c, 0, 72, 80
2, 26972, Note_off_c, 0, 72, 100
2, 26976, Note_on_c, 0, 67, 80
2, 26976, Note_on_c, 0, 64, 80
2, 27068, Note_off_c, 0, 67, 100
2, 27068, Note_off_c, 0, 64, 100
2, 27072, Note_on_c, 0, 74, 80
2, 27164, Note_off_c, 0, 74, 100
2, 27168, Note_on_c, 0, 67, 80
2, 27168, Note_on_c, 0, 64, 80
2, 27260, Note_off_c, 0, 67, 100
2, 27260, Note_off_c, 0, 64, 100
2, 27264, Note_on_c, 0, 76, 80
2, 27356, Note_off_c, 0, 76, 100
2, 27360, Note_on_c, 0, 70, 80
2, 27360, Note_on_c, 0, 67, 80
2, 27452, Note_off_c, 0, 70, 100
2, 27452, Note_off_c, 0, 67, 100
2, 27456, Note_on_c, 0, 72, 80
2, 27548, Note_off_c, 0, 72, 100
2, 27552, Note_on_c, 0, 70, 80
2, 27552, Note_on_c, 0, 67, 80
2, 27644, Note_off_c, 0, 70, 100
2, 27644, Note_off_c, 0, 67, 100
2, 27648, Note_on_c, 0, 74, 80
2, 27740, Note_off_c, 0, 74, 100
2, 27744, Note_on_c, 0, 70, 80
2, 27744, Note_on_c, 0, 67, 80
2, 27836, Note_off_c, 0, 70, 100
2, 27836, Note_off_c, 0, 67, 100
2, 27840, Note_on_c, 0, 76, 80
2, 27932, Note_off_c, 0, 76, 100
2, 27936, Note_on_c, 0, 70, 80
2, 27936, Note_on_c, 0, 67, 80
2, 28028, Note_off_c, 0, 70, 100
2, 28028, Note_off_c, 0, 67, 100
2, 28032, Note_on_c, 0, 77, 80
2, 28124, Note_off_c, 0, 77, 100
2, 28128, Note_on_c, 0, 69, 80
2, 28128, Note_on_c, 0, 65, 80
2, 28220, Note_off_c, 0, 69, 100
2, 28220, Note_off_c, 0, 65, 100
2, 28224, Note_on_c, 0, 77, 80
2, 28316, Note_off_c, 0, 77, 100
2, 28320, Note_on_c, 0, 69, 80
2, 28320, Note_on_c, 0, 65, 80
2, 28412, Note_off_c, 0, 69, 100
2, 28412, Note_off_c, 0, 65, 100
2, 28416, Note_on_c, 0, 77, 80
2, 28508, Note_off_c, 0, 77, 100
2, 28512, Note_on_c, 0, 69, 80
2, 28512, Note_on_c, 0, 65, 80
2, 28604, Note_off_c, 0, 69, 100
2, 28604, Note_off_c, 0, 65, 100
2, 28608, Note_on_c, 0, 76, 80
2, 28700, Note_off_c, 0, 76, 100
2, 28704, Note_on_c, 0, 69, 80
2, 28704, Note_on_c, 0, 65, 80
2, 28796, Note_off_c, 0, 69, 100
2, 28796, Note_off_c, 0, 65, 100
2, 28800, Note_on_c, 0, 74, 80
2, 28892, Note_off_c, 0, 74, 100
2, 28896, Note_on_c, 0, 68, 80
2, 28896, Note_on_c, 0, 65, 80
2, 28988, Note_off_c, 0, 68, 100
2, 28988, Note_off_c, 0, 65, 100
2, 28992, Note_on_c, 0, 72, 80
2, 29084, Note_off_c, 0, 72, 100
2, 29088, Note_on_c, 0, 68, 80
2, 29088, Note_on_c, 0, 65, 80
2, 29180, Note_off_c, 0, 68, 100
2, 29180, Note_off_c, 0, 65, 100
2, 29184, Note_on_c, 0, 71, 80
2, 29276, Note_off_c, 0, 71, 100
2, 29280, Note_on_c, 0, 68, 80
2, 29280, Note_on_c, 0, 65, 80
2, 29372, Note_off_c, 0, 68, 100
2, 29372, Note_off_c, 0, 65, 100
2, 29376, Note_on_c, 0, 74, 80
2, 29468, Note_off_c, 0, 74, 100
2, 29472, Note_on_c, 0, 68, 80
2, 29472, Note_on_c, 0, 65, 80
2, 29564, Note_off_c, 0, 68, 100
2, 29564, Note_off_c, 0, 65, 100
2, 29568, Note_on_c, 0, 72, 80
2, 29660, Note_off_c, 0, 72, 100
2, 29664, Note_on_c, 0, 67, 80
2, 29664, Note_on_c, 0, 64, 80
2, 29756, Note_off_c, 0, 67, 100
2, 29756, Note_off_c, 0, 64, 100
2, 29760, Note_on_c, 0, 72, 80
2, 29852, Note_off_c, 0, 72, 100
2, 29856, Note_on_c, 0, 67, 80
2, 29856, Note_on_c, 0, 64, 80
2, 29948, Note_off_c, 0, 67, 100
2, 29948, Note_off_c, 0, 64, 100
2, 29952, Note_on_c, 0, 71, 80
2, 30044, Note_off_c, 0, 71, 100
2, 30048, Note_on_c, 0, 68, 80
2, 30048, Note_on_c, 0, 65, 80
2, 30140, Note_off_c, 0, 68, 100
2, 30140, Note_off_c, 0, 65, 100
2, 30144, Note_on_c, 0, 74, 80
2, 30236, Note_off_c, 0, 74, 100
2, 30240, Note_on_c, 0, 68, 80
2, 30240, Note_on_c, 0, 65, 80
2, 30332, Note_off_c, 0, 68, 100
2, 30332, Note_off_c, 0, 65, 100
2, 30336, Note_on_c, 0, 72, 80
2, 30428, Note_off_c, 0, 72, 100
2, 30432, Note_on_c, 0, 67, 80
2, 30432, Note_on_c, 0, 64, 80
2, 30524, Note_off_c, 0, 67, 100
2, 30524, Note_off_c, 0, 64, 100
2, 30528, Note_on_c, 0, 72, 80
2, 30620, Note_off_c, 0, 72, 100
2, 30624, Note_on_c, 0, 67, 80
2, 30624, Note_on_c, 0, 64, 80
2, 30716, Note_off_c, 0, 67, 100
2, 30716, Note_off_c, 0, 64, 100
2, 30720, Note_on_c, 0, 71, 80
2, 30812, Note_off_c, 0, 71, 100
2, 30816, Note_on_c, 0, 68, 80
2, 30816, Note_on_c, 0, 65, 80
2, 30908, Note_off_c, 0, 68, 100
2, 30908, Note_off_c, 0, 65, 100
2, 30912, Note_on_c, 0, 74, 80
2, 31004, Note_off_c, 0, 74, 100
2, 31008, Note_on_c, 0, 68, 80
2, 31008, Note_on_c, 0, 65, 80
2, 31100, Note_off_c, 0, 68, 100
2, 31100, Note_off_c, 0, 65, 100
2, 31104, Note_on_c, 0, 72, 80
2, 31104, Note_on_c, 0, 67, 80
2, 31104, Note_on_c, 0, 64, 80
2, 31200, Note_on_c, 0, 60, 80
2, 31248, Note_off_c, 0, 72, 100
2, 31264, Note_off_c, 0, 64, 100
2, 31268, Note_off_c, 0, 67, 100
2, 31296, Note_on_c, 0, 62, 80
2, 31356, Note_off_c, 0, 60, 100
2, 31392, Note_on_c, 0, 64, 80
2, 31472, Note_off_c, 0, 62, 100
2, 31488, Note_on_c, 0, 65, 80
2, 31556, Note_off_c, 0, 64, 100
2, 31584, Note_on_c, 0, 67, 80
2, 31648, Note_off_c, 0, 65, 100
2, 31680, Note_on_c, 0, 69, 80
2, 31728, Note_off_c, 0, 67, 100
2, 31776, Note_on_c, 0, 71, 80
2, 31844, Note_off_c, 0, 69, 100
2, 31872, Note_on_c, 0, 72, 80
2, 31928, Note_off_c, 0, 71, 100
2, 31968, Note_on_c, 0, 71, 80
2, 32028, Note_off_c, 0, 72, 100
2, 32064, Note_on_c, 0, 72, 80
2, 32132, Note_off_c, 0, 71, 100
2, 32160, Note_on_c, 0, 71, 80
2, 32228, Note_off_c, 0, 72, 100
2, 32256, Note_on_c, 0, 72, 80
2, 32324, Note_off_c, 0, 71, 100
2, 32352, Note_on_c, 0, 71, 80
2, 32420, Note_off_c, 0, 72, 100
2, 32448, Note_on_c, 0, 72, 80
2, 32512, Note_off_c, 0, 71, 100
2, 32544, Note_on_c, 0, 71, 80
2, 32616, Note_off_c, 0, 72, 100
2, 32636, Note_off_c, 0, 71, 100
2, 32640, Note_on_c, 0, 72, 77
2, 32640, Note_on_c, 0, 69, 77
2, 33404, Note_off_c, 0, 72, 100
2, 33404, Note_off_c, 0, 69, 100
2, 33408, Note_on_c, 0, 69, 77
2, 33788, Note_off_c, 0, 69, 100
2, 33792, Note_on_c, 0, 77, 77
2, 34172, Note_off_c, 0, 77, 100
2, 34176, Note_on_c, 0, 69, 77
2, 34176, Note_on_c, 0, 72, 77
2, 34556, Note_off_c, 0, 69, 100
2, 34556, Note_off_c, 0, 72, 100
2, 34560, Note_on_c, 0, 77, 77
2, 34560, Note_on_c, 0, 81, 77
2, 34940, Note_off_c, 0, 77, 100
2, 34940, Note_off_c, 0, 81, 100
2, 34944, Note_on_c, 0, 69, 77
2, 34944, Note_on_c, 0, 72, 77
2, 35324, Note_off_c, 0, 69, 100
2, 35324, Note_off_c, 0, 72, 100
2, 35328, Note_on_c, 0, 84, 77
2, 35328, Note_on_c, 0, 81, 77
2, 35708, Note_off_c, 0, 84, 100
2, 35708, Note_off_c, 0, 81, 100
2, 35712, Note_on_c, 0, 72, 77
2, 35712, Note_on_c, 0, 69, 77
2, 36476, Note_off_c, 0, 72, 100
2, 36476, Note_off_c, 0, 69, 100
2, 36480, Note_on_c, 0, 69, 77
2, 36860, Note_off_c, 0, 69, 100
2, 36864, Note_on_c, 0, 77, 77
2, 37244, Note_off_c, 0, 77, 100
2, 37248, Note_on_c, 0, 69, 77
2, 37248, Note_on_c, 0, 72, 77
2, 37628, Note_off_c, 0, 69, 100
2, 37628, Note_off_c, 0, 72, 100
2, 37632, Note_on_c, 0, 77, 77
2, 37632, Note_on_c, 0, 81, 77
2, 38012, Note_off_c, 0, 77, 100
2, 38012, Note_off_c, 0, 81, 100
2, 38016, Note_on_c, 0, 69, 77
2, 38016, Note_on_c, 0, 72, 77
2, 38396, Note_off_c, 0, 69, 100
2, 38396, Note_off_c, 0, 72, 100
2, 38400, Note_on_c, 0, 84, 77
2, 38400, Note_on_c, 0, 81, 77
2, 38780, Note_off_c, 0, 84, 100
2, 38780, Note_off_c, 0, 81, 100
2, 38784, Note_on_c, 0, 78, 77
2, 38784, Note_on_c, 0, 74, 77
2, 38784, Note_on_c, 0, 72, 77
2, 38784, Note_on_c, 0, 69, 77
2, 39548, Note_off_c, 0, 78, 100
2, 39548, Note_off_c, 0, 74, 100
2, 39548, Note_off_c, 0, 72, 100
2, 39548, Note_off_c, 0, 69, 100
2, 40704, Note_on_c, 0, 78, 77
2, 41084, Note_off_c, 0, 78, 100
2, 41088, Note_on_c, 0, 81, 82
2, 41468, Note_off_c, 0, 81, 100
2, 41472, Note_on_c, 0, 84, 89
2, 41856, Note_on_c, 0, 78, 95
2, 42236, Note_off_c, 0, 84, 100
2, 42240, Note_on_c, 0, 82, 102
2, 42620, Note_off_c, 0, 78, 100
2, 42624, Note_on_c, 0, 79, 108
2, 43008, Note_on_c, 0, 73, 115
2, 43388, Note_off_c, 0, 73, 100
2, 43392, Note_on_c, 0, 72, 121
2, 43772, Note_off_c, 0, 79, 100
2, 43772, Note_off_c, 0, 82, 100
2, 43776, Note_on_c, 0, 81, 121
2, 43776, Note_on_c, 0, 77, 121
2, 44156, Note_off_c, 0, 72, 100
2, 44156, Note_off_c, 0, 81, 100
2, 44156, Note_off_c, 0, 77, 100
2, 44160, Note_on_c, 0, 79, 121
2, 44160, Note_on_c, 0, 74, 121
2, 44160, Note_on_c, 0, 70, 121
2, 44540, Note_off_c, 0, 79, 100
2, 44540, Note_off_c, 0, 74, 100
2, 44540, Note_off_c, 0, 70, 100
2, 44544, Note_on_c, 0, 76, 121
2, 44544, Note_on_c, 0, 70, 121
2, 44544, Note_on_c, 0, 67, 121
2, 44924, Note_off_c, 0, 76, 100
2, 44924, Note_off_c, 0, 70, 100
2, 44924, Note_off_c, 0, 67, 100
2, 44928, Note_on_c, 0, 77, 110
2, 44928, Note_on_c, 0, 69, 110
2, 44928, Note_on_c, 0, 65, 110
2, 45308, Note_off_c, 0, 77, 100
2, 45308, Note_off_c, 0, 69, 100
2, 45308, Note_off_c, 0, 65, 100
2, 45696, Note_on_c, 0, 69, 110
2, 45696, Note_on_c, 0, 65, 110
2, 46460, Note_off_c, 0, 69, 100
2, 46460, Note_off_c, 0, 65, 100
2, 46464, Note_on_c, 0, 65, 110
2, 46464, Note_on_c, 0, 62, 110
2, 46844, Note_off_c, 0, 65, 100
2, 46844, Note_off_c, 0, 62, 100
2, 46848, Note_on_c, 0, 62, 110
2, 46848, Note_on_c, 0, 58, 110
2, 47228, Note_off_c, 0, 62, 100
2, 47228, Note_off_c, 0, 58, 100
2, 47232, Note_on_c, 0, 70, 110
2, 47232, Note_on_c, 0, 67, 110
2, 47804, Note_off_c, 0, 70, 100
2, 47804, Note_off_c, 0, 67, 100
2, 47808, Note_on_c, 0, 65, 110
2, 47808, Note_on_c, 0, 69, 110
2, 47996, Note_off_c, 0, 65, 100
2, 47996, Note_off_c, 0, 69, 100
2, 48000, Note_on_c, 0, 67, 110
2, 48000, Note_on_c, 0, 64, 110
2, 48380, Note_off_c, 0, 67, 100
2, 48380, Note_off_c, 0, 64, 100
2, 48384, Note_on_c, 0, 64, 110
2, 48384, Note_on_c, 0, 60, 110
2, 48764, Note_off_c, 0, 64, 100
2, 48764, Note_off_c, 0, 60, 100
2, 48768, Note_on_c, 0, 72, 110
2, 48768, Note_on_c, 0, 69, 110
2, 49532, Note_off_c, 0, 72, 100
2, 49532, Note_off_c, 0, 69, 100
2, 49536, Note_on_c, 0, 69, 110
2, 49536, Note_on_c, 0, 65, 110
2, 49916, Note_off_c, 0, 69, 100
2, 49916, Note_off_c, 0, 65, 100
2, 49920, Note_on_c, 0, 65, 110
2, 49920, Note_on_c, 0, 62, 110
2, 50300, Note_off_c, 0, 65, 100
2, 50300, Note_off_c, 0, 62, 100
2, 50304, Note_on_c, 0, 74, 110
2, 50304, Note_on_c, 0, 70, 110
2, 50876, Note_off_c, 0, 74, 100
2, 50876, Note_off_c, 0, 70, 100
2, 50880, Note_on_c, 0, 72, 110
2, 50880, Note_on_c, 0, 69, 110
2, 51068, Note_off_c, 0, 72, 100
2, 51068, Note_off_c, 0, 69, 100
2, 51072, Note_on_c, 0, 67, 110
2, 51072, Note_on_c, 0, 70, 110
2, 51452, Note_off_c, 0, 67, 100
2, 51452, Note_off_c, 0, 70, 100
2, 51456, Note_on_c, 0, 67, 110
2, 51456, Note_on_c, 0, 64, 110
2, 51836, Note_off_c, 0, 67, 100
2, 51836, Note_off_c, 0, 64, 100
2, 51840, Note_on_c, 0, 79, 110
2, 51840, Note_on_c, 0, 70, 110
2, 52412, Note_off_c, 0, 79, 100
2, 52412, Note_off_c, 0, 70, 100
2, 52416, Note_on_c, 0, 77, 110
2, 52416, Note_on_c, 0, 69, 110
2, 52604, Note_off_c, 0, 77, 100
2, 52604, Note_off_c, 0, 69, 100
2, 52608, Note_on_c, 0, 76, 110
2, 52608, Note_on_c, 0, 67, 110
2, 53180, Note_off_c, 0, 76, 100
2, 53180, Note_off_c, 0, 67, 100
2, 53184, Note_on_c, 0, 74, 110
2, 53184, Note_on_c, 0, 65, 110
2, 53372, Note_off_c, 0, 74, 100
2, 53372, Note_off_c, 0, 65, 100
2, 53376, Note_on_c, 0, 72, 110
2, 53376, Note_on_c, 0, 64, 110
2, 53756, Note_off_c, 0, 72, 100
2, 53756, Note_off_c, 0, 64, 100
2, 53760, Note_on_c, 0, 70, 105
2, 53760, Note_on_c, 0, 58, 105
2, 54140, Note_off_c, 0, 70, 100
2, 54140, Note_off_c, 0, 58, 100
2, 54144, Note_on_c, 0, 69, 99
2, 54144, Note_on_c, 0, 57, 99
2, 54524, Note_off_c, 0, 69, 100
2, 54524, Note_off_c, 0, 57, 100
2, 54528, Note_on_c, 0, 67, 93
2, 54528, Note_on_c, 0, 61, 93
2, 54908, Note_off_c, 0, 67, 100
2, 54908, Note_off_c, 0, 61, 100
2, 54912, Note_on_c, 0, 65, 87
2, 54912, Note_on_c, 0, 62, 87
2, 55292, Note_off_c, 0, 65, 100
2, 55292, Note_off_c, 0, 62, 100
2, 55296, Note_on_c, 0, 62, 81
2, 55296, Note_on_c, 0, 55, 81
2, 55296, Note_on_c, 0, 53, 81
2, 55676, Note_off_c, 0, 62, 100
2, 55676, Note_off_c, 0, 55, 100
2, 55676, Note_off_c, 0, 53, 100
2, 56064, Note_on_c, 0, 60, 70
2, 56064, Note_on_c, 0, 57, 70
2, 56064, Note_on_c, 0, 53, 70
2, 56444, Note_off_c, 0, 60, 100
2, 56444, Note_off_c, 0, 57, 100
2, 56444, Note_off_c, 0, 53, 100
2, 56832, Note_on_c, 0, 60, 70
2, 56832, Note_on_c, 0, 55, 70
2, 56832, Note_on_c, 0, 52, 70
2, 56832, Note_on_c, 0, 48, 70
2, 57212, Note_off_c, 0, 60, 100
2, 57212, Note_off_c, 0, 55, 100
2, 57212, Note_off_c, 0, 52, 100
2, 57212, Note_off_c, 0, 48, 100
2, 57600, Note_on_c, 0, 57, 80
2, 57600, Note_on_c, 0, 53, 80
2, 57600, Note_on_c, 0, 48, 80
2, 57980, Note_off_c, 0, 57, 100
2, 57980, Note_off_c, 0, 53, 100
2, 57980, Note_off_c, 0, 48, 100
2, 58176, Note_on_c, 0, 69, 110
2, 58176, Note_on_c, 0, 65, 110
2, 58556, Note_off_c, 0, 69, 100
2, 58556, Note_off_c, 0, 65, 100
2, 58560, Note_on_c, 0, 69, 110
2, 58560, Note_on_c, 0, 65, 110
2, 58748, Note_off_c, 0, 69, 100
2, 58748, Note_off_c, 0, 65, 100
2, 58944, Note_on_c, 0, 65, 110
2, 58944, Note_on_c, 0, 62, 110
2, 59132, Note_off_c, 0, 65, 100
2, 59132, Note_off_c, 0, 62, 100
2, 59328, Note_on_c, 0, 62, 110
2, 59328, Note_on_c, 0, 58, 110
2, 59516, Note_off_c, 0, 62, 100
2, 59516, Note_off_c, 0, 58, 100
2, 59712, Note_on_c, 0, 70, 110
2, 59712, Note_on_c, 0, 67, 110
2, 60092, Note_off_c, 0, 70, 100
2, 60092, Note_off_c, 0, 67, 100
2, 60096, Note_on_c, 0, 69, 110
2, 60096, Note_on_c, 0, 65, 110
2, 60284, Note_off_c, 0, 69, 100
2, 60284, Note_off_c, 0, 65, 100
2, 60480, Note_on_c, 0, 64, 110
2, 60480, Note_on_c, 0, 67, 110
2, 60668, Note_off_c, 0, 64, 100
2, 60668, Note_off_c, 0, 67, 100
2, 60864, Note_on_c, 0, 64, 110
2, 60864, Note_on_c, 0, 60, 110
2, 61052, Note_off_c, 0, 64, 100
2, 61052, Note_off_c, 0, 60, 100
2, 61248, Note_on_c, 0, 72, 110
2, 61248, Note_on_c, 0, 69, 110
2, 61628, Note_off_c, 0, 72, 100
2, 61628, Note_off_c, 0, 69, 100
2, 61632, Note_on_c, 0, 72, 110
2, 61632, Note_on_c, 0, 69, 110
2, 61820, Note_off_c, 0, 72, 100
2, 61820, Note_off_c, 0, 69, 100
2, 62016, Note_on_c, 0, 69, 110
2, 62016, Note_on_c, 0, 65, 110
2, 62204, Note_off_c, 0, 69, 100
2, 62204, Note_off_c, 0, 65, 100
2, 62400, Note_on_c, 0, 65, 110
2, 62400, Note_on_c, 0, 62, 110
2, 62588, Note_off_c, 0, 65, 100
2, 62588, Note_off_c, 0, 62, 100
2, 62784, Note_on_c, 0, 74, 110
2, 62784, Note_on_c, 0, 70, 110
2, 63164, Note_off_c, 0, 74, 100
2, 63164, Note_off_c, 0, 70, 100
2, 63168, Note_on_c, 0, 72, 110
2, 63168, Note_on_c, 0, 69, 110
2, 63356, Note_off_c, 0, 72, 100
2, 63356, Note_off_c, 0, 69, 100
2, 63552, Note_on_c, 0, 70, 110
2, 63552, Note_on_c, 0, 67, 110
2, 63740, Note_off_c, 0, 70, 100
2, 63740, Note_off_c, 0, 67, 100
2, 63936, Note_on_c, 0, 67, 110
2, 63936, Note_on_c, 0, 64, 110
2, 64124, Note_off_c, 0, 67, 100
2, 64124, Note_off_c, 0, 64, 100
2, 64320, Note_on_c, 0, 79, 110
2, 64320, Note_on_c, 0, 70, 110
2, 64700, Note_off_c, 0, 79, 100
2, 64700, Note_off_c, 0, 70, 100
2, 64704, Note_on_c, 0, 77, 110
2, 64704, Note_on_c, 0, 69, 110
2, 64892, Note_off_c, 0, 77, 100
2, 64892, Note_off_c, 0, 69, 100
2, 65088, Note_on_c, 0, 76, 110
2, 65088, Note_on_c, 0, 67, 110
2, 65468, Note_off_c, 0, 76, 100
2, 65468, Note_off_c, 0, 67, 100
2, 65472, Note_on_c, 0, 74, 110
2, 65472, Note_on_c, 0, 65, 110
2, 65660, Note_off_c, 0, 74, 100
2, 65660, Note_off_c, 0, 65, 100
2, 65856, Note_on_c, 0, 72, 110
2, 65856, Note_on_c, 0, 64, 110
2, 66044, Note_off_c, 0, 72, 100
2, 66044, Note_off_c, 0, 64, 100
2, 66240, Note_on_c, 0, 70, 110
2, 66240, Note_on_c, 0, 58, 110
2, 66428, Note_off_c, 0, 70, 100
2, 66428, Note_off_c, 0, 58, 100
2, 66432, Note_on_c, 0, 69, 80
2, 66528, Note_on_c, 0, 57, 80
2, 66592, Note_off_c, 0, 69, 100
2, 66624, Note_on_c, 0, 61, 80
2, 66664, Note_off_c, 0, 57, 100
2, 66720, Note_on_c, 0, 64, 81
2, 66788, Note_off_c, 0, 61, 100
2, 66816, Note_on_c, 0, 69, 81
2, 66864, Note_off_c, 0, 64, 100
2, 66912, Note_on_c, 0, 73, 82
2, 66976, Note_off_c, 0, 69, 100
2, 67008, Note_on_c, 0, 76, 82
2, 67092, Note_off_c, 0, 73, 100
2, 67104, Note_on_c, 0, 80, 82
2, 67176, Note_off_c, 0, 76, 100
2, 67200, Note_on_c, 0, 81, 83
2, 67260, Note_off_c, 0, 80, 100
2, 67296, Note_on_c, 0, 80, 83
2, 67384, Note_off_c, 0, 81, 100
2, 67392, Note_on_c, 0, 81, 84
2, 67480, Note_off_c, 0, 80, 100
2, 67488, Note_on_c, 0, 80, 84
2, 67564, Note_off_c, 0, 81, 100
2, 67584, Note_on_c, 0, 81, 85
2, 67644, Note_off_c, 0, 80, 100
2, 67680, Note_on_c, 0, 76, 85
2, 67744, Note_off_c, 0, 81, 100
2, 67776, Note_on_c, 0, 73, 85
2, 67864, Note_off_c, 0, 76, 100
2, 67872, Note_on_c, 0, 69, 86
2, 67944, Note_off_c, 0, 73, 100
2, 68040, Note_off_c, 0, 69, 100
2, 68064, Note_on_c, 0, 57, 87
2, 68160, Note_on_c, 0, 62, 87
2, 68212, Note_off_c, 0, 57, 100
2, 68256, Note_on_c, 0, 65, 88
2, 68332, Note_off_c, 0, 62, 100
2, 68352, Note_on_c, 0, 69, 88
2, 68428, Note_off_c, 0, 65, 100
2, 68448, Note_on_c, 0, 74, 88
2, 68532, Note_off_c, 0, 69, 100
2, 68544, Note_on_c, 0, 77, 89
2, 68588, Note_off_c, 0, 74, 100
2, 68640, Note_on_c, 0, 80, 89
2, 68696, Note_off_c, 0, 77, 100
2, 68736, Note_on_c, 0, 81, 90
2, 68796, Note_off_c, 0, 80, 100
2, 68832, Note_on_c, 0, 80, 90
2, 68904, Note_off_c, 0, 81, 100
2, 68928, Note_on_c, 0, 81, 91
2, 69012, Note_off_c, 0, 80, 100
2, 69024, Note_on_c, 0, 80, 91
2, 69092, Note_off_c, 0, 81, 100
2, 69120, Note_on_c, 0, 81, 91
2, 69204, Note_off_c, 0, 80, 100
2, 69216, Note_on_c, 0, 77, 92
2, 69296, Note_off_c, 0, 81, 100
2, 69312, Note_on_c, 0, 74, 92
2, 69368, Note_off_c, 0, 77, 100
2, 69408, Note_on_c, 0, 69, 93
2, 69464, Note_off_c, 0, 74, 100
2, 69580, Note_off_c, 0, 69, 100
2, 69600, Note_on_c, 0, 56, 94
2, 69696, Note_on_c, 0, 59, 94
2, 69756, Note_off_c, 0, 56, 100
2, 69792, Note_on_c, 0, 62, 94
2, 69860, Note_off_c, 0, 59, 100
2, 69888, Note_on_c, 0, 65, 95
2, 69960, Note_off_c, 0, 62, 100
2, 69984, Note_on_c, 0, 68, 95
2, 70056, Note_off_c, 0, 65, 100
2, 70080, Note_on_c, 0, 71, 96
2, 70144, Note_off_c, 0, 68, 100
2, 70176, Note_on_c, 0, 74, 96
2, 70244, Note_off_c, 0, 71, 100
2, 70272, Note_on_c, 0, 77, 97
2, 70352, Note_off_c, 0, 74, 100
2, 70368, Note_on_c, 0, 74, 97
2, 70444, Note_off_c, 0, 77, 100
2, 70464, Note_on_c, 0, 80, 97
2, 70528, Note_off_c, 0, 74, 100
2, 70560, Note_on_c, 0, 77, 98
2, 70628, Note_off_c, 0, 80, 100
2, 70656, Note_on_c, 0, 74, 98
2, 70740, Note_off_c, 0, 77, 100
2, 70752, Note_on_c, 0, 71, 99
2, 70840, Note_off_c, 0, 74, 100
2, 70848, Note_on_c, 0, 68, 99
2, 70936, Note_off_c, 0, 71, 100
2, 70944, Note_on_c, 0, 65, 99
2, 71012, Note_off_c, 0, 68, 100
2, 71036, Note_off_c, 0, 65, 100
2, 71136, Note_on_c, 0, 64, 100
2, 71232, Note_on_c, 0, 67, 100
2, 71324, Note_off_c, 0, 64, 100
2, 71328, Note_on_c, 0, 70, 100
2, 71396, Note_off_c, 0, 67, 100
2, 71424, Note_on_c, 0, 73, 100
2, 71512, Note_off_c, 0, 70, 100
2, 71520, Note_on_c, 0, 76, 100
2, 71616, Note_on_c, 0, 79, 100
2, 71620, Note_off_c, 0, 73, 100
2, 71680, Note_off_c, 0, 76, 100
2, 71712, Note_on_c, 0, 82, 100
2, 71796, Note_off_c, 0, 79, 100
2, 71808, Note_on_c, 0, 85, 100
2, 71892, Note_off_c, 0, 82, 100
2, 71904, Note_on_c, 0, 88, 100
2, 71980, Note_off_c, 0, 85, 100
2, 72000, Note_on_c, 0, 76, 100
2, 72080, Note_off_c, 0, 88, 100
2, 72096, Note_on_c, 0, 88, 100
2, 72172, Note_off_c, 0, 76, 100
2, 72192, Note_on_c, 0, 76, 100
2, 72260, Note_off_c, 0, 88, 100
2, 72288, Note_on_c, 0, 88, 100
2, 72368, Note_off_c, 0, 76, 100
2, 72384, Note_on_c, 0, 76, 100
2, 72452, Note_off_c, 0, 88, 100
2, 72480, Note_on_c, 0, 88, 100
2, 72568, Note_off_c, 0, 76, 100
2, 72576, Note_on_c, 0, 77, 110
2, 72652, Note_off_c, 0, 88, 100
2, 72672, Note_on_c, 0, 89, 110
2, 72740, Note_off_c, 0, 77, 100
2, 72768, Note_on_c, 0, 76, 110
2, 72856, Note_off_c, 0, 89, 100
2, 72864, Note_on_c, 0, 88, 110
2, 72932, Note_off_c, 0, 76, 100
2, 72960, Note_on_c, 0, 77, 110
2, 73052, Note_off_c, 0, 88, 100
2, 73056, Note_on_c, 0, 89, 110
2, 73144, Note_off_c, 0, 77, 100
2, 73152, Note_on_c, 0, 70, 110
2, 73228, Note_off_c, 0, 89, 100
2, 73248, Note_on_c, 0, 82, 110
2, 73324, Note_off_c, 0, 70, 100
2, 73344, Note_on_c, 0, 69, 110
2, 73428, Note_off_c, 0, 82, 100
2, 73440, Note_on_c, 0, 81, 110
2, 73532, Note_off_c, 0, 69, 100
2, 73536, Note_on_c, 0, 76, 110
2, 73628, Note_off_c, 0, 81, 100
2, 73632, Note_on_c, 0, 88, 110
2, 73712, Note_off_c, 0, 76, 100
2, 73728, Note_on_c, 0, 77, 110
2, 73820, Note_off_c, 0, 88, 100
2, 73824, Note_on_c, 0, 89, 110
2, 73892, Note_off_c, 0, 77, 100
2, 73920, Note_on_c, 0, 70, 110
2, 74012, Note_off_c, 0, 89, 100
2, 74016, Note_on_c, 0, 82, 110
2, 74084, Note_off_c, 0, 70, 100
2, 74112, Note_on_c, 0, 69, 110
2, 74176, Note_off_c, 0, 82, 100
2, 74208, Note_on_c, 0, 81, 110
2, 74284, Note_off_c, 0, 69, 100
2, 74304, Note_on_c, 0, 76, 110
2, 74376, Note_off_c, 0, 81, 100
2, 74400, Note_on_c, 0, 88, 110
2, 74460, Note_off_c, 0, 76, 100
2, 74496, Note_on_c, 0, 77, 110
2, 74560, Note_off_c, 0, 88, 100
2, 74592, Note_on_c, 0, 89, 110
2, 74660, Note_off_c, 0, 77, 100
2, 74688, Note_on_c, 0, 70, 110
2, 74764, Note_off_c, 0, 89, 100
2, 74784, Note_on_c, 0, 82, 110
2, 74864, Note_off_c, 0, 70, 100
2, 74880, Note_on_c, 0, 69, 110
2, 74960, Note_off_c, 0, 82, 100
2, 74976, Note_on_c, 0, 81, 110
2, 75048, Note_off_c, 0, 69, 100
2, 75072, Note_on_c, 0, 76, 110
2, 75148, Note_off_c, 0, 81, 100
2, 75168, Note_on_c, 0, 88, 110
2, 75236, Note_off_c, 0, 76, 100
2, 75264, Note_on_c, 0, 77, 110
2, 75320, Note_off_c, 0, 88, 100
2, 75360, Note_on_c, 0, 89, 110
2, 75420, Note_off_c, 0, 77, 100
2, 75456, Note_on_c, 0, 70, 110
2, 75524, Note_off_c, 0, 89, 100
2, 75552, Note_on_c, 0, 82, 110
2, 75612, Note_off_c, 0, 70, 100
2, 75648, Note_on_c, 0, 69, 110
2, 75728, Note_off_c, 0, 82, 100
2, 75744, Note_on_c, 0, 81, 110
2, 75824, Note_off_c, 0, 69, 100
2, 75840, Note_on_c, 0, 67, 110
2, 75908, Note_off_c, 0, 81, 100
2, 75936, Note_on_c, 0, 79, 110
2, 75996, Note_off_c, 0, 67, 100
2, 76032, Note_on_c, 0, 65, 110
2, 76100, Note_off_c, 0, 79, 100
2, 76128, Note_on_c, 0, 77, 110
2, 76196, Note_off_c, 0, 65, 100
2, 76224, Note_on_c, 0, 64, 110
2, 76312, Note_off_c, 0, 77, 100
2, 76320, Note_on_c, 0, 76, 110
2, 76396, Note_off_c, 0, 64, 100
2, 76416, Note_on_c, 0, 62, 110
2, 76496, Note_off_c, 0, 76, 100
2, 76512, Note_on_c, 0, 74, 110
2, 76584, Note_off_c, 0, 62, 100
2, 76608, Note_on_c, 0, 60, 110
2, 76680, Note_off_c, 0, 74, 100
2, 76704, Note_on_c, 0, 72, 110
2, 76772, Note_off_c, 0, 60, 100
2, 76800, Note_on_c, 0, 58, 110
2, 76868, Note_off_c, 0, 72, 100
2, 76896, Note_on_c, 0, 70, 110
2, 76972, Note_off_c, 0, 58, 100
2, 76992, Note_on_c, 0, 57, 110
2, 77036, Note_off_c, 0, 70, 100
2, 77088, Note_on_c, 0, 69, 110
2, 77156, Note_off_c, 0, 57, 100
2, 77184, Note_on_c, 0, 55, 110
2, 77240, Note_off_c, 0, 69, 100
2, 77280, Note_on_c, 0, 67, 110
2, 77336, Note_off_c, 0, 55, 100
2, 77376, Note_on_c, 0, 53, 110
2, 77468, Note_off_c, 0, 67, 100
2, 77472, Note_on_c, 0, 65, 110
2, 77528, Note_off_c, 0, 53, 100
2, 77568, Note_on_c, 0, 52, 110
2, 77652, Note_off_c, 0, 65, 100
2, 77664, Note_on_c, 0, 64, 110
2, 77756, Note_off_c, 0, 52, 100
2, 77760, Note_on_c, 0, 50, 110
2, 77840, Note_off_c, 0, 64, 100
2, 77856, Note_on_c, 0, 62, 110
2, 77944, Note_off_c, 0, 50, 100
2, 77952, Note_on_c, 0, 48, 110
2, 78016, Note_off_c, 0, 62, 100
2, 78048, Note_on_c, 0, 60, 110
2, 78124, Note_off_c, 0, 48, 100
2, 78144, Note_on_c, 0, 46, 110
2, 78216, Note_off_c, 0, 60, 100
2, 78240, Note_on_c, 0, 58, 110
2, 78324, Note_off_c, 0, 46, 100
2, 78336, Note_on_c, 0, 45, 110
2, 78404, Note_off_c, 0, 58, 100
2, 78432, Note_on_c, 0, 57, 110
2, 78516, Note_off_c, 0, 45, 100
2, 78528, Note_on_c, 0, 43, 110
2, 78596, Note_off_c, 0, 57, 100
2, 78624, Note_on_c, 0, 55, 110
2, 78696, Note_off_c, 0, 43, 100
2, 78720, Note_on_c, 0, 53, 110
2, 78800, Note_off_c, 0, 55, 100
2, 78908, Note_off_c, 0, 53, 100
2, 78912, Note_on_c, 0, 52, 80
2, 79008, Note_on_c, 0, 60, 80
2, 79076, Note_off_c, 0, 52, 100
2, 79104, Note_on_c, 0, 53, 80
2, 79184, Note_off_c, 0, 60, 100
2, 79200, Note_on_c, 0, 60, 80
2, 79260, Note_off_c, 0, 53, 100
2, 79296, Note_on_c, 0, 58, 80
2, 79368, Note_off_c, 0, 60, 100
2, 79392, Note_on_c, 0, 60, 80
2, 79484, Note_off_c, 0, 58, 100
2, 79488, Note_on_c, 0, 57, 80
2, 79564, Note_off_c, 0, 60, 100
2, 79584, Note_on_c, 0, 60, 80
2, 79664, Note_off_c, 0, 57, 100
2, 79680, Note_on_c, 0, 52, 80
2, 79748, Note_off_c, 0, 60, 100
2, 79776, Note_on_c, 0, 60, 80
2, 79840, Note_off_c, 0, 52, 100
2, 79872, Note_on_c, 0, 53, 80
2, 79932, Note_off_c, 0, 60, 100
2, 79968, Note_on_c, 0, 60, 80
2, 80028, Note_off_c, 0, 53, 100
2, 80064, Note_on_c, 0, 58, 80
2, 80148, Note_off_c, 0, 60, 100
2, 80160, Note_on_c, 0, 60, 80
2, 80240, Note_off_c, 0, 58, 100
2, 80256, Note_on_c, 0, 57, 80
2, 80332, Note_off_c, 0, 60, 100
2, 80352, Note_on_c, 0, 60, 81
2, 80416, Note_off_c, 0, 57, 100
2, 80448, Note_on_c, 0, 52, 83
2, 80508, Note_off_c, 0, 60, 100
2, 80544, Note_on_c, 0, 60, 84
2, 80596, Note_off_c, 0, 52, 100
2, 80640, Note_on_c, 0, 53, 86
2, 80716, Note_off_c, 0, 60, 100
2, 80736, Note_on_c, 0, 60, 87
2, 80804, Note_off_c, 0, 53, 100
2, 80832, Note_on_c, 0, 58, 89
2, 80900, Note_off_c, 0, 60, 100
2, 80928, Note_on_c, 0, 60, 91
2, 80992, Note_off_c, 0, 58, 100
2, 81024, Note_on_c, 0, 57, 92
2, 81092, Note_off_c, 0, 60, 100
2, 81120, Note_on_c, 0, 60, 94
2, 81188, Note_off_c, 0, 57, 100
2, 81216, Note_on_c, 0, 49, 95
2, 81300, Note_off_c, 0, 60, 100
2, 81312, Note_on_c, 0, 61, 97
2, 81388, Note_off_c, 0, 49, 100
2, 81408, Note_on_c, 0, 50, 98
2, 81496, Note_off_c, 0, 61, 100
2, 81504, Note_on_c, 0, 62, 100
2, 81576, Note_off_c, 0, 50, 100
2, 81600, Note_on_c, 0, 52, 102
2, 81668, Note_off_c, 0, 62, 100
2, 81696, Note_on_c, 0, 64, 103
2, 81764, Note_off_c, 0, 52, 100
2, 81792, Note_on_c, 0, 53, 105
2, 81856, Note_off_c, 0, 64, 100
2, 81888, Note_on_c, 0, 65, 106
2, 81960, Note_off_c, 0, 53, 100
2, 81984, Note_on_c, 0, 54, 108
2, 82052, Note_off_c, 0, 65, 100
2, 82080, Note_on_c, 0, 66, 109
2, 82148, Note_off_c, 0, 54, 100
2, 82176, Note_on_c, 0, 55, 120
2, 82248, Note_off_c, 0, 66, 100
2, 82272, Note_on_c, 0, 67, 120
2, 82348, Note_off_c, 0, 55, 100
2, 82368, Note_on_c, 0, 57, 120
2, 82440, Note_off_c, 0, 67, 100
2, 82464, Note_on_c, 0, 69, 120
2, 82532, Note_off_c, 0, 57, 100
2, 82560, Note_on_c, 0, 58, 120
2, 82620, Note_off_c, 0, 69, 100
2, 82656, Note_on_c, 0, 70, 120
2, 82720, Note_off_c, 0, 58, 100
2, 82752, Note_on_c, 0, 60, 120
2, 82820, Note_off_c, 0, 70, 100
2, 82848, Note_on_c, 0, 72, 120
2, 82924, Note_off_c, 0, 60, 100
2, 82944, Note_on_c, 0, 62, 120
2, 83016, Note_off_c, 0, 72, 100
2, 83040, Note_on_c, 0, 74, 120
2, 83120, Note_off_c, 0, 62, 100
2, 83136, Note_on_c, 0, 60, 120
2, 83212, Note_off_c, 0, 74, 100
2, 83232, Note_on_c, 0, 72, 120
2, 83304, Note_off_c, 0, 60, 100
2, 83328, Note_on_c, 0, 58, 120
2, 83396, Note_off_c, 0, 72, 100
2, 83424, Note_on_c, 0, 70, 120
2, 83496, Note_off_c, 0, 58, 100
2, 83520, Note_on_c, 0, 57, 120
2, 83592, Note_off_c, 0, 70, 100
2, 83616, Note_on_c, 0, 69, 120
2, 83708, Note_off_c, 0, 57, 100
2, 83712, Note_on_c, 0, 55, 120
2, 83780, Note_off_c, 0, 69, 100
2, 83808, Note_on_c, 0, 67, 120
2, 83876, Note_off_c, 0, 55, 100
2, 83904, Note_on_c, 0, 53, 120
2, 83980, Note_off_c, 0, 67, 100
2, 84000, Note_on_c, 0, 65, 120
2, 84068, Note_off_c, 0, 53, 100
2, 84096, Note_on_c, 0, 52, 120
2, 84180, Note_off_c, 0, 65, 100
2, 84192, Note_on_c, 0, 64, 120
2, 84284, Note_off_c, 0, 52, 100
2, 84288, Note_on_c, 0, 50, 120
2, 84340, Note_off_c, 0, 64, 100
2, 84384, Note_on_c, 0, 62, 120
2, 84448, Note_off_c, 0, 50, 100
2, 84480, Note_on_c, 0, 48, 120
2, 84556, Note_off_c, 0, 62, 100
2, 84576, Note_on_c, 0, 60, 120
2, 84636, Note_off_c, 0, 48, 100
2, 84672, Note_on_c, 0, 52, 120
2, 84740, Note_off_c, 0, 60, 100
2, 84768, Note_on_c, 0, 64, 120
2, 84828, Note_off_c, 0, 52, 100
2, 84860, Note_off_c, 0, 64, 100
2, 84864, Note_on_c, 0, 65, 120
2, 84864, Note_on_c, 0, 53, 120
2, 85244, Note_off_c, 0, 65, 100
2, 85244, Note_off_c, 0, 53, 100
2, 85632, Note_on_c, 0, 60, 80
2, 85632, Note_on_c, 0, 57, 80
2, 86208, Note_on_c, 0, 53, 80
2, 86396, Note_off_c, 0, 60, 100
2, 86396, Note_off_c, 0, 57, 100
2, 86396, Note_off_c, 0, 53, 100
2, 86400, Note_on_c, 0, 61, 80
2, 86400, Note_on_c, 0, 58, 80
2, 86976, Note_on_c, 0, 56, 80
2, 87164, Note_off_c, 0, 61, 100
2, 87164, Note_off_c, 0, 58, 100
2, 87164, Note_off_c, 0, 56, 100
2, 87168, Note_on_c, 0, 60, 80
2, 87168, Note_on_c, 0, 58, 80
2, 87168, Note_on_c, 0, 55, 80
2, 87356, Note_off_c, 0, 55, 100
2, 87360, Note_on_c, 0, 53, 80
2, 87548, Note_off_c, 0, 60, 100
2, 87548, Note_off_c, 0, 58, 100
2, 87548, Note_off_c, 0, 53, 100
2, 87552, Note_on_c, 0, 60, 80
2, 87552, Note_on_c, 0, 58, 80
2, 87552, Note_on_c, 0, 55, 80
2, 87740, Note_off_c, 0, 55, 100
2, 87744, Note_on_c, 0, 52, 80
2, 87932, Note_off_c, 0, 60, 100
2, 87932, Note_off_c, 0, 58, 100
2, 87932, Note_off_c, 0, 52, 100
2, 87936, Note_on_c, 0, 60, 80
2, 87936, Note_on_c, 0, 57, 80
2, 87936, Note_on_c, 0, 53, 80
2, 88508, Note_off_c, 0, 60, 100
2, 88508, Note_off_c, 0, 57, 100
2, 88508, Note_off_c, 0, 53, 100
2, 88704, Note_on_c, 0, 57, 80
2, 88704, Note_on_c, 0, 60, 80
2, 88704, Note_on_c, 0, 69, 80
2, 89276, Note_off_c, 0, 69, 100
2, 89280, Note_on_c, 0, 65, 80
2, 89468, Note_off_c, 0, 57, 100
2, 89468, Note_off_c, 0, 60, 100
2, 89468, Note_off_c, 0, 65, 100
2, 89472, Note_on_c, 0, 61, 80
2, 89472, Note_on_c, 0, 58, 80
2, 89472, Note_on_c, 0, 70, 80
2, 90044, Note_off_c, 0, 70, 100
2, 90048, Note_on_c, 0, 68, 80
2, 90236, Note_off_c, 0, 61, 100
2, 90236, Note_off_c, 0, 58, 100
2, 90236, Note_off_c, 0, 68, 100
2, 90240, Note_on_c, 0, 66, 80
2, 90240, Note_on_c, 0, 61, 80
2, 90240, Note_on_c, 0, 58, 80
2, 90428, Note_off_c, 0, 66, 100
2, 90432, Note_on_c, 0, 65, 80
2, 90620, Note_off_c, 0, 61, 100
2, 90620, Note_off_c, 0, 58, 100
2, 90620, Note_off_c, 0, 65, 100
2, 90624, Note_on_c, 0, 66, 80
2, 90624, Note_on_c, 0, 61, 80
2, 90624, Note_on_c, 0, 58, 80
2, 90812, Note_off_c, 0, 66, 100
2, 90816, Note_on_c, 0, 64, 80
2, 91004, Note_off_c, 0, 61, 100
2, 91004, Note_off_c, 0, 58, 100
2, 91004, Note_off_c, 0, 64, 100
2, 91008, Note_on_c, 0, 65, 80
2, 91008, Note_on_c, 0, 60, 80
2, 91008, Note_on_c, 0, 57, 80
2, 91580, Note_off_c, 0, 65, 100
2, 91580, Note_off_c, 0, 60, 100
2, 91580, Note_off_c, 0, 57, 100
2, 91776, Note_on_c, 0, 67, 80
2, 91776, Note_on_c, 0, 61, 80
2, 91776, Note_on_c, 0, 58, 80
2, 91964, Note_off_c, 0, 67, 100
2, 91968, Note_on_c, 0, 65, 80
2, 92156, Note_off_c, 0, 61, 100
2, 92156, Note_off_c, 0, 58, 100
2, 92156, Note_off_c, 0, 65, 100
2, 92160, Note_on_c, 0, 67, 80
2, 92160, Note_on_c, 0, 61, 80
2, 92160, Note_on_c, 0, 58, 80
2, 92348, Note_off_c, 0, 67, 100
2, 92352, Note_on_c, 0, 64, 80
2, 92540, Note_off_c, 0, 61, 100
2, 92540, Note_off_c, 0, 58, 100
2, 92540, Note_off_c, 0, 64, 100
2, 92544, Note_on_c, 0, 65, 80
2, 92544, Note_on_c, 0, 60, 80
2, 92544, Note_on_c, 0, 57, 80
2, 93116, Note_off_c, 0, 65, 100
2, 93116, Note_off_c, 0, 60, 100
2, 93116, Note_off_c, 0, 57, 100
2, 93312, Note_on_c, 0, 66, 70
2, 93312, Note_on_c, 0, 61, 70
2, 93312, Note_on_c, 0, 58, 70
2, 93500, Note_off_c, 0, 66, 100
2, 93504, Note_on_c, 0, 65, 70
2, 93692, Note_off_c, 0, 61, 100
2, 93692, Note_off_c, 0, 58, 100
2, 93692, Note_off_c, 0, 65, 100
2, 93696, Note_on_c, 0, 66, 70
2, 93696, Note_on_c, 0, 61, 70
2, 93696, Note_on_c, 0, 58, 70
2, 93884, Note_off_c, 0, 66, 100
2, 93888, Note_on_c, 0, 64, 70
2, 94076, Note_off_c, 0, 61, 100
2, 94076, Note_off_c, 0, 58, 100
2, 94076, Note_off_c, 0, 64, 100
2, 94080, Note_on_c, 0, 53, 120
2, 94080, Note_on_c, 0, 65, 120
2, 94652, Note_off_c, 0, 53, 100
2, 94652, Note_off_c, 0, 65, 100
2, 94656, Note_on_c, 0, 55, 120
2, 94656, Note_on_c, 0, 67, 120
2, 94844, Note_off_c, 0, 55, 100
2, 94844, Note_off_c, 0, 67, 100
2, 94848, Note_on_c, 0, 57, 120
2, 94848, Note_on_c, 0, 69, 120
2, 95420, Note_off_c, 0, 57, 100
2, 95420, Note_off_c, 0, 69, 100
2, 95424, Note_on_c, 0, 58, 120
2, 95424, Note_on_c, 0, 70, 120
2, 95612, Note_off_c, 0, 58, 100
2, 95612, Note_off_c, 0, 70, 100
2, 95616, Note_on_c, 0, 60, 120
2, 95616, Note_on_c, 0, 72, 120
2, 96188, Note_off_c, 0, 60, 100
2, 96188, Note_off_c, 0, 72, 100
2, 96192, Note_on_c, 0, 62, 120
2, 96192, Note_on_c, 0, 74, 120
2, 96380, Note_off_c, 0, 62, 100
2, 96380, Note_off_c, 0, 74, 100
2, 96384, Note_on_c, 0, 64, 120
2, 96384, Note_on_c, 0, 76, 120
2, 96572, Note_off_c, 0, 64, 100
2, 96572, Note_off_c, 0, 76, 100
2, 96576, Note_on_c, 0, 65, 120
2, 96576, Note_on_c, 0, 77, 120
2, 96764, Note_off_c, 0, 65, 100
2, 96764, Note_off_c, 0, 77, 100
2, 96768, Note_on_c, 0, 67, 120
2, 96768, Note_on_c, 0, 79, 120
2, 96956, Note_off_c, 0, 67, 100
2, 96956, Note_off_c, 0, 79, 100
2, 96960, Note_on_c, 0, 69, 120
2, 96960, Note_on_c, 0, 81, 120
2, 97148, Note_off_c, 0, 69, 100
2, 97148, Note_off_c, 0, 81, 100
2, 97152, Note_on_c, 0, 70, 120
2, 97152, Note_on_c, 0, 82, 120
2, 97724, Note_off_c, 0, 70, 100
2, 97724, Note_off_c, 0, 82, 100
2, 97728, Note_on_c, 0, 69, 120
2, 97728, Note_on_c, 0, 81, 120
2, 97916, Note_off_c, 0, 69, 100
2, 97916, Note_off_c, 0, 81, 100
2, 97920, Note_on_c, 0, 67, 120
2, 97920, Note_on_c, 0, 79, 120
2, 98492, Note_off_c, 0, 67, 100
2, 98492, Note_off_c, 0, 79, 100
2, 98496, Note_on_c, 0, 65, 120
2, 98496, Note_on_c, 0, 77, 120
2, 98684, Note_off_c, 0, 65, 100
2, 98684, Note_off_c, 0, 77, 100
2, 98688, Note_on_c, 0, 64, 120
2, 98688, Note_on_c, 0, 76, 120
2, 99260, Note_off_c, 0, 64, 100
2, 99260, Note_off_c, 0, 76, 100
2, 99264, Note_on_c, 0, 62, 120
2, 99264, Note_on_c, 0, 74, 120
2, 99452, Note_off_c, 0, 62, 100
2, 99452, Note_off_c, 0, 74, 100
2, 99456, Note_on_c, 0, 60, 120
2, 99456, Note_on_c, 0, 72, 120
2, 99644, Note_off_c, 0, 60, 100
2, 99644, Note_off_c, 0, 72, 100
2, 99648, Note_on_c, 0, 58, 120
2, 99648, Note_on_c, 0, 70, 120
2, 99836, Note_off_c, 0, 58, 100
2, 99836, Note_off_c, 0, 70, 100
2, 99840, Note_on_c, 0, 57, 120
2, 99840, Note_on_c, 0, 69, 120
2, 100028, Note_off_c, 0, 57, 100
2, 100028, Note_off_c, 0, 69, 100
2, 100032, Note_on_c, 0, 55, 120
2, 100032, Note_on_c, 0, 67, 120
2, 100220, Note_off_c, 0, 55, 100
2, 100220, Note_off_c, 0, 67, 100
2, 100224, Note_on_c, 0, 53, 120
2, 100224, Note_on_c, 0, 65, 120
2, 100604, Note_off_c, 0, 53, 100
2, 100604, Note_off_c, 0, 65, 100
2, 100608, Note_on_c, 0, 64, 80
2, 100704, Note_on_c, 0, 63, 80
2, 100744, Note_off_c, 0, 64, 100
2, 100800, Note_on_c, 0, 64, 80
2, 100844, Note_off_c, 0, 63, 100
2, 100896, Note_on_c, 0, 60, 80
2, 100944, Note_off_c, 0, 64, 100
2, 100988, Note_off_c, 0, 60, 100
2, 100992, Note_on_c, 0, 65, 80
2, 101372, Note_off_c, 0, 65, 100
2, 101376, Note_on_c, 0, 76, 80
2, 101472, Note_on_c, 0, 75, 80
2, 101544, Note_off_c, 0, 76, 100
2, 101568, Note_on_c, 0, 76, 80
2, 101632, Note_off_c, 0, 75, 100
2, 101664, Note_on_c, 0, 72, 80
2, 101716, Note_off_c, 0, 76, 100
2, 101756, Note_off_c, 0, 72, 100
2, 101760, Note_on_c, 0, 77, 80
2, 102140, Note_off_c, 0, 77, 100
2, 102528, Note_on_c, 0, 88, 120
2, 102528, Note_on_c, 0, 84, 120
2, 102528, Note_on_c, 0, 82, 120
2, 102528, Note_on_c, 0, 79, 120
2, 102528, Note_on_c, 0, 76, 120
2, 102908, Note_off_c, 0, 88, 100
2, 102908, Note_off_c, 0, 84, 100
2, 102908, Note_off_c, 0, 82, 100
2, 102908, Note_off_c, 0, 79, 100
2, 102908, Note_off_c, 0, 76, 100
2, 103296, Note_on_c, 0, 89, 120
2, 103296, Note_on_c, 0, 84, 120
2, 103296, Note_on_c, 0, 81, 120
2, 103296, Note_on_c, 0, 77, 120
2, 103676, Note_off_c, 0, 89, 100
2, 103676, Note_off_c, 0, 84, 100
2, 103676, Note_off_c, 0, 81, 100
2, 103676, Note_off_c, 0, 77, 100
2, 104448, Note_on_c, 0, 62, 80
2, 104448, Note_on_c, 0, 58, 80
2, 104540, Note_off_c, 0, 58, 100
2, 104544, Note_on_c, 0, 57, 80
2, 104636, Note_off_c, 0, 57, 100
2, 104640, Note_on_c, 0, 58, 80
2, 104732, Note_off_c, 0, 58, 100
2, 104736, Note_on_c, 0, 53, 80
2, 104828, Note_off_c, 0, 62, 100
2, 104828, Note_off_c, 0, 53, 100
2, 104832, Note_on_c, 0, 65, 80
2, 104832, Note_on_c, 0, 62, 80
2, 105212, Note_off_c, 0, 65, 100
2, 105212, Note_off_c, 0, 62, 100
2, 105216, Note_on_c, 0, 62, 80
2, 105216, Note_on_c, 0, 58, 80
2, 105596, Note_off_c, 0, 62, 100
2, 105596, Note_off_c, 0, 58, 100
2, 105984, Note_on_c, 0, 62, 80
2, 105984, Note_on_c, 0, 58, 80
2, 106076, Note_off_c, 0, 58, 100
2, 106080, Note_on_c, 0, 57, 80
2, 106172, Note_off_c, 0, 57, 100
2, 106176, Note_on_c, 0, 58, 80
2, 106268, Note_off_c, 0, 58, 100
2, 106272, Note_on_c, 0, 53, 80
2, 106364, Note_off_c, 0, 62, 100
2, 106364, Note_off_c, 0, 53, 100
2, 106368, Note_on_c, 0, 65, 80
2, 106368, Note_on_c, 0, 62, 80
2, 106748, Note_off_c, 0, 65, 100
2, 106748, Note_off_c, 0, 62, 100
2, 106752, Note_on_c, 0, 62, 80
2, 106752, Note_on_c, 0, 58, 80
2, 107132, Note_off_c, 0, 62, 100
2, 107132, Note_off_c, 0, 58, 100
2, 107520, Note_on_c, 0, 62, 80
2, 107520, Note_on_c, 0, 58, 80
2, 107616, Note_on_c, 0, 57, 81
2, 107696, Note_off_c, 0, 58, 100
2, 107712, Note_on_c, 0, 58, 82
2, 107800, Note_off_c, 0, 57, 100
2, 107808, Note_on_c, 0, 53, 84
2, 107872, Note_off_c, 0, 58, 100
2, 107900, Note_off_c, 0, 62, 100
2, 107904, Note_on_c, 0, 65, 85
2, 107904, Note_on_c, 0, 62, 85
2, 107964, Note_off_c, 0, 53, 100
2, 108000, Note_on_c, 0, 61, 87
2, 108076, Note_off_c, 0, 62, 100
2, 108096, Note_on_c, 0, 62, 88
2, 108160, Note_off_c, 0, 61, 100
2, 108192, Note_on_c, 0, 58, 90
2, 108260, Note_off_c, 0, 62, 100
2, 108284, Note_off_c, 0, 65, 100
2, 108288, Note_on_c, 0, 70, 91
2, 108288, Note_on_c, 0, 65, 91
2, 108344, Note_off_c, 0, 58, 100
2, 108384, Note_on_c, 0, 64, 93
2, 108456, Note_off_c, 0, 65, 100
2, 108480, Note_on_c, 0, 65, 94
2, 108528, Note_off_c, 0, 64, 100
2, 108576, Note_on_c, 0, 62, 96
2, 108652, Note_off_c, 0, 65, 100
2, 108668, Note_off_c, 0, 70, 100
2, 108672, Note_on_c, 0, 74, 97
2, 108672, Note_on_c, 0, 70, 97
2, 108744, Note_off_c, 0, 62, 100
2, 108768, Note_on_c, 0, 69, 99
2, 108828, Note_off_c, 0, 70, 100
2, 108864, Note_on_c, 0, 70, 100
2, 108924, Note_off_c, 0, 69, 100
2, 108960, Note_on_c, 0, 65, 102
2, 109024, Note_off_c, 0, 70, 100
2, 109052, Note_off_c, 0, 74, 100
2, 109056, Note_on_c, 0, 77, 103
2, 109056, Note_on_c, 0, 74, 103
2, 109128, Note_off_c, 0, 65, 100
2, 109152, Note_on_c, 0, 73, 105
2, 109224, Note_off_c, 0, 74, 100
2, 109248, Note_on_c, 0, 74, 106
2, 109332, Note_off_c, 0, 73, 100
2, 109344, Note_on_c, 0, 70, 108
2, 109424, Note_off_c, 0, 74, 100
2, 109436, Note_off_c, 0, 77, 100
2, 109436, Note_off_c, 0, 70, 100
2, 109440, Note_on_c, 0, 82, 119
2, 110588, Note_off_c, 0, 82, 100
2, 110592, Note_on_c, 0, 81, 88
2, 110684, Note_off_c, 0, 81, 100
2, 110688, Note_on_c, 0, 82, 88
2, 110780, Note_off_c, 0, 82, 100
2, 110784, Note_on_c, 0, 84, 88
2, 110876, Note_off_c, 0, 84, 100
2, 110880, Note_on_c, 0, 82, 88
2, 110972, Note_off_c, 0, 82, 100
2, 110976, Note_on_c, 0, 81, 88
2, 111164, Note_off_c, 0, 81, 100
2, 111168, Note_on_c, 0, 79, 88
2, 111356, Note_off_c, 0, 79, 100
2, 111360, Note_on_c, 0, 77, 88
2, 111548, Note_off_c, 0, 77, 100
2, 111552, Note_on_c, 0, 75, 88
2, 111740, Note_off_c, 0, 75, 100
2, 111744, Note_on_c, 0, 74, 88
2, 111932, Note_off_c, 0, 74, 100
2, 111936, Note_on_c, 0, 72, 88
2, 112124, Note_off_c, 0, 72, 100
2, 112128, Note_on_c, 0, 79, 88
2, 112316, Note_off_c, 0, 79, 100
2, 112320, Note_on_c, 0, 77, 88
2, 112508, Note_off_c, 0, 77, 100
2, 112512, Note_on_c, 0, 75, 88
2, 112892, Note_off_c, 0, 75, 100
2, 112896, Note_on_c, 0, 74, 88
2, 113276, Note_off_c, 0, 74, 100
2, 113664, Note_on_c, 0, 69, 88
2, 113756, Note_off_c, 0, 69, 100
2, 113760, Note_on_c, 0, 70, 88
2, 113852, Note_off_c, 0, 70, 100
2, 113856, Note_on_c, 0, 72, 88
2, 113948, Note_off_c, 0, 72, 100
2, 113952, Note_on_c, 0, 70, 88
2, 114044, Note_off_c, 0, 70, 100
2, 114048, Note_on_c, 0, 68, 88
2, 114236, Note_off_c, 0, 68, 100
2, 114240, Note_on_c, 0, 67, 88
2, 114428, Note_off_c, 0, 67, 100
2, 114432, Note_on_c, 0, 65, 88
2, 114620, Note_off_c, 0, 65, 100
2, 114624, Note_on_c, 0, 63, 88
2, 114812, Note_off_c, 0, 63, 100
2, 114816, Note_on_c, 0, 62, 88
2, 115004, Note_off_c, 0, 62, 100
2, 115008, Note_on_c, 0, 60, 88
2, 115196, Note_off_c, 0, 60, 100
2, 115200, Note_on_c, 0, 63, 88
2, 115388, Note_off_c, 0, 63, 100
2, 115392, Note_on_c, 0, 57, 88
2, 115580, Note_off_c, 0, 57, 100
2, 115584, Note_on_c, 0, 58, 110
2, 115772, Note_off_c, 0, 58, 100
2, 115776, Note_on_c, 0, 62, 110
2, 115868, Note_off_c, 0, 62, 100
2, 115872, Note_on_c, 0, 60, 110
2, 115964, Note_off_c, 0, 60, 100
2, 115968, Note_on_c, 0, 58, 110
2, 116060, Note_off_c, 0, 58, 100
2, 116064, Note_on_c, 0, 57, 110
2, 116156, Note_off_c, 0, 57, 100
2, 116160, Note_on_c, 0, 58, 110
2, 116252, Note_off_c, 0, 58, 100
2, 116256, Note_on_c, 0, 55, 110
2, 116348, Note_off_c, 0, 55, 100
2, 116352, Note_on_c, 0, 53, 110
2, 116540, Note_off_c, 0, 53, 100
2, 116544, Note_on_c, 0, 67, 110
2, 116636, Note_off_c, 0, 67, 100
2, 116640, Note_on_c, 0, 65, 110
2, 116732, Note_off_c, 0, 65, 100
2, 116736, Note_on_c, 0, 63, 110
2, 116828, Note_off_c, 0, 63, 100
2, 116832, Note_on_c, 0, 62, 110
2, 116924, Note_off_c, 0, 62, 100
2, 116928, Note_on_c, 0, 63, 110
2, 117020, Note_off_c, 0, 63, 100
2, 117024, Note_on_c, 0, 60, 110
2, 117024, Note_on_c, 0, 60, 110
2, 117116, Note_off_c, 0, 60, 100
2, 117116, Note_off_c, 0, 60, 100
2, 117120, Note_on_c, 0, 58, 110
2, 117308, Note_off_c, 0, 58, 100
2, 117312, Note_on_c, 0, 74, 110
2, 117404, Note_off_c, 0, 74, 100
2, 117408, Note_on_c, 0, 72, 110
2, 117500, Note_off_c, 0, 72, 100
2, 117504, Note_on_c, 0, 70, 110
2, 117596, Note_off_c, 0, 70, 100
2, 117600, Note_on_c, 0, 69, 110
2, 117692, Note_off_c, 0, 69, 100
2, 117696, Note_on_c, 0, 70, 110
2, 117788, Note_off_c, 0, 70, 100
2, 117792, Note_on_c, 0, 67, 110
2, 117884, Note_off_c, 0, 67, 100
2, 117888, Note_on_c, 0, 65, 110
2, 118076, Note_off_c, 0, 65, 100
2, 118080, Note_on_c, 0, 79, 110
2, 118172, Note_off_c, 0, 79, 100
2, 118176, Note_on_c, 0, 77, 110
2, 118268, Note_off_c, 0, 77, 100
2, 118272, Note_on_c, 0, 75, 110
2, 118364, Note_off_c, 0, 75, 100
2, 118368, Note_on_c, 0, 74, 110
2, 118460, Note_off_c, 0, 74, 100
2, 118464, Note_on_c, 0, 75, 110
2, 118556, Note_off_c, 0, 75, 100
2, 118560, Note_on_c, 0, 72, 110
2, 118560, Note_on_c, 0, 72, 110
2, 118652, Note_off_c, 0, 72, 100
2, 118652, Note_off_c, 0, 72, 100
2, 118656, Note_on_c, 0, 70, 110
2, 118844, Note_off_c, 0, 70, 100
2, 118848, Note_on_c, 0, 72, 110
2, 118940, Note_off_c, 0, 72, 100
2, 118944, Note_on_c, 0, 74, 110
2, 119036, Note_off_c, 0, 74, 100
2, 119040, Note_on_c, 0, 75, 110
2, 119132, Note_off_c, 0, 75, 100
2, 119136, Note_on_c, 0, 77, 110
2, 119228, Note_off_c, 0, 77, 100
2, 119232, Note_on_c, 0, 79, 110
2, 119324, Note_off_c, 0, 79, 100
2, 119328, Note_on_c, 0, 81, 110
2, 119420, Note_off_c, 0, 81, 100
2, 119424, Note_on_c, 0, 82, 110
2, 119448, Note_on_c, 0, 84, 110
2, 119468, Note_off_c, 0, 82, 100
2, 119472, Note_on_c, 0, 82, 110
2, 119492, Note_off_c, 0, 84, 100
2, 119516, Note_off_c, 0, 82, 100
2, 119520, Note_on_c, 0, 81, 110
2, 119612, Note_off_c, 0, 81, 100
2, 119616, Note_on_c, 0, 82, 110
2, 119708, Note_off_c, 0, 82, 100
2, 119712, Note_on_c, 0, 84, 110
2, 119804, Note_off_c, 0, 84, 100
2, 119808, Note_on_c, 0, 86, 110
2, 119832, Note_on_c, 0, 88, 110
2, 119852, Note_off_c, 0, 86, 100
2, 119856, Note_on_c, 0, 86, 110
2, 119876, Note_off_c, 0, 88, 100
2, 119900, Note_off_c, 0, 86, 100
2, 119904, Note_on_c, 0, 84, 110
2, 119996, Note_off_c, 0, 84, 100
2, 120000, Note_on_c, 0, 86, 110
2, 120092, Note_off_c, 0, 86, 100
2, 120096, Note_on_c, 0, 88, 110
2, 120188, Note_off_c, 0, 88, 100
2, 120192, Note_on_c, 0, 89, 110
2, 120572, Note_off_c, 0, 89, 100
2, 120576, Note_on_c, 0, 65, 110
2, 120956, Note_off_c, 0, 65, 100
2, 124032, Note_on_c, 0, 77, 110
2, 125184, Note_on_c, 0, 71, 80
2, 125564, Note_off_c, 0, 77, 64
2, 125564, Note_off_c, 0, 71, 100
2, 125568, Note_on_c, 0, 75, 80
2, 125568, Note_on_c, 0, 72, 80
2, 125948, Note_off_c, 0, 75, 100
2, 125948, Note_off_c, 0, 72, 100
2, 125952, Note_on_c, 0, 69, 80
2, 125952, Note_on_c, 0, 74, 80
2, 126332, Note_off_c, 0, 69, 100
2, 126336, Note_on_c, 0, 70, 80
2, 126716, Note_off_c, 0, 74, 64
2, 126716, Note_off_c, 0, 70, 100
2, 126720, Note_on_c, 0, 67, 80
2, 126720, Note_on_c, 0, 72, 80
2, 127100, Note_off_c, 0, 67, 100
2, 127104, Note_on_c, 0, 69, 80
2, 127484, Note_off_c, 0, 72, 100
2, 127484, Note_off_c, 0, 69, 100
2, 127488, Note_on_c, 0, 65, 80
2, 127488, Note_on_c, 0, 71, 80
2, 127868, Note_off_c, 0, 65, 100
2, 127868, Note_off_c, 0, 71, 100
2, 127872, Note_on_c, 0, 72, 110
2, 127964, Note_off_c, 0, 72, 100
2, 127968, Note_on_c, 0, 67, 80
2, 127968, Note_on_c, 0, 64, 80
2, 128060, Note_off_c, 0, 67, 100
2, 128060, Note_off_c, 0, 64, 100
2, 128064, Note_on_c, 0, 72, 80
2, 128156, Note_off_c, 0, 72, 100
2, 128160, Note_on_c, 0, 67, 80
2, 128160, Note_on_c, 0, 64, 80
2, 128252, Note_off_c, 0, 67, 100
2, 128252, Note_off_c, 0, 64, 100
2, 128256, Note_on_c, 0, 72, 80
2, 128348, Note_off_c, 0, 72, 100
2, 128352, Note_on_c, 0, 67, 80
2, 128352, Note_on_c, 0, 64, 80
2, 128444, Note_off_c, 0, 67, 100
2, 128444, Note_off_c, 0, 64, 100
2, 128448, Note_on_c, 0, 74, 80
2, 128540, Note_off_c, 0, 74, 100
2, 128544, Note_on_c, 0, 67, 80
2, 128544, Note_on_c, 0, 64, 80
2, 128636, Note_off_c, 0, 67, 100
2, 128636, Note_off_c, 0, 64, 100
2, 128640, Note_on_c, 0, 76, 80
2, 128732, Note_off_c, 0, 76, 100
2, 128736, Note_on_c, 0, 70, 80
2, 128736, Note_on_c, 0, 67, 80
2, 128828, Note_off_c, 0, 70, 100
2, 128828, Note_off_c, 0, 67, 100
2, 128832, Note_on_c, 0, 72, 80
2, 128924, Note_off_c, 0, 72, 100
2, 128928, Note_on_c, 0, 70, 80
2, 128928, Note_on_c, 0, 67, 80
2, 129020, Note_off_c, 0, 70, 100
2, 129020, Note_off_c, 0, 67, 100
2, 129024, Note_on_c, 0, 74, 80
2, 129116, Note_off_c, 0, 74, 100
2, 129120, Note_on_c, 0, 70, 80
2, 129120, Note_on_c, 0, 67, 80
2, 129212, Note_off_c, 0, 70, 100
2, 129212, Note_off_c, 0, 67, 100
2, 129216, Note_on_c, 0, 76, 80
2, 129308, Note_off_c, 0, 76, 100
2, 129312, Note_on_c, 0, 70, 80
2, 129312, Note_on_c, 0, 67, 80
2, 129404, Note_off_c, 0, 70, 100
2, 129404, Note_off_c, 0, 67, 100
2, 129408, Note_on_c, 0, 77, 80
2, 129500, Note_off_c, 0, 77, 100
2, 129504, Note_on_c, 0, 69, 80
2, 129504, Note_on_c, 0, 65, 80
2, 129596, Note_off_c, 0, 69, 100
2, 129596, Note_off_c, 0, 65, 100
2, 129600, Note_on_c, 0, 77, 80
2, 129692, Note_off_c, 0, 77, 100
2, 129696, Note_on_c, 0, 69, 80
2, 129696, Note_on_c, 0, 65, 80
2, 129788, Note_off_c, 0, 69, 100
2, 129788, Note_off_c, 0, 65, 100
2, 129792, Note_on_c, 0, 77, 80
2, 129884, Note_off_c, 0, 77, 100
2, 129888, Note_on_c, 0, 69, 80
2, 129888, Note_on_c, 0, 65, 80
2, 129980, Note_off_c, 0, 69, 100
2, 129980, Note_off_c, 0, 65, 100
2, 129984, Note_on_c, 0, 76, 80
2, 130076, Note_off_c, 0, 76, 100
2, 130080, Note_on_c, 0, 69, 80
2, 130080, Note_on_c, 0, 65, 80
2, 130172, Note_off_c, 0, 69, 100
2, 130172, Note_off_c, 0, 65, 100
2, 130176, Note_on_c, 0, 74, 80
2, 130268, Note_off_c, 0, 74, 100
2, 130272, Note_on_c, 0, 68, 80
2, 130272, Note_on_c, 0, 65, 80
2, 130364, Note_off_c, 0, 68, 100
2, 130364, Note_off_c, 0, 65, 100
2, 130368, Note_on_c, 0, 72, 80
2, 130460, Note_off_c, 0, 72, 100
2, 130464, Note_on_c, 0, 68, 80
2, 130464, Note_on_c, 0, 65, 80
2, 130556, Note_off_c, 0, 68, 100
2, 130556, Note_off_c, 0, 65, 100
2, 130560, Note_on_c, 0, 71, 80
2, 130652, Note_off_c, 0, 71, 100
2, 130656, Note_on_c, 0, 68, 80
2, 130656, Note_on_c, 0, 65, 80
2, 130748, Note_off_c, 0, 68, 100
2, 130748, Note_off_c, 0, 65, 100
2, 130752, Note_on_c, 0, 74, 80
2, 130844, Note_off_c, 0, 74, 100
2, 130848, Note_on_c, 0, 68, 80
2, 130848, Note_on_c, 0, 65, 80
2, 130940, Note_off_c, 0, 68, 100
2, 130940, Note_off_c, 0, 65, 100
2, 130944, Note_on_c, 0, 72, 110
2, 131036, Note_off_c, 0, 72, 100
2, 131040, Note_on_c, 0, 67, 80
2, 131040, Note_on_c, 0, 64, 80
2, 131132, Note_off_c, 0, 67, 100
2, 131132, Note_off_c, 0, 64, 100
2, 131136, Note_on_c, 0, 72, 80
2, 131228, Note_off_c, 0, 72, 100
2, 131232, Note_on_c, 0, 67, 80
2, 131232, Note_on_c, 0, 64, 80
2, 131324, Note_off_c, 0, 67, 100
2, 131324, Note_off_c, 0, 64, 100
2, 131328, Note_on_c, 0, 72, 80
2, 131420, Note_off_c, 0, 72, 100
2, 131424, Note_on_c, 0, 67, 80
2, 131424, Note_on_c, 0, 64, 80
2, 131516, Note_off_c, 0, 67, 100
2, 131516, Note_off_c, 0, 64, 100
2, 131520, Note_on_c, 0, 74, 80
2, 131612, Note_off_c, 0, 74, 100
2, 131616, Note_on_c, 0, 67, 80
2, 131616, Note_on_c, 0, 64, 80
2, 131708, Note_off_c, 0, 67, 100
2, 131708, Note_off_c, 0, 64, 100
2, 131712, Note_on_c, 0, 76, 80
2, 131804, Note_off_c, 0, 76, 100
2, 131808, Note_on_c, 0, 70, 80
2, 131808, Note_on_c, 0, 67, 80
2, 131900, Note_off_c, 0, 70, 100
2, 131900, Note_off_c, 0, 67, 100
2, 131904, Note_on_c, 0, 72, 80
2, 131996, Note_off_c, 0, 72, 100
2, 132000, Note_on_c, 0, 70, 80
2, 132000, Note_on_c, 0, 67, 80
2, 132092, Note_off_c, 0, 70, 100
2, 132092, Note_off_c, 0, 67, 100
2, 132096, Note_on_c, 0, 74, 80
2, 132188, Note_off_c, 0, 74, 100
2, 132192, Note_on_c, 0, 70, 80
2, 132192, Note_on_c, 0, 67, 80
2, 132284, Note_off_c, 0, 70, 100
2, 132284, Note_off_c, 0, 67, 100
2, 132288, Note_on_c, 0, 76, 80
2, 132380, Note_off_c, 0, 76, 100
2, 132384, Note_on_c, 0, 70, 80
2, 132384, Note_on_c, 0, 67, 80
2, 132476, Note_off_c, 0, 70, 100
2, 132476, Note_off_c, 0, 67, 100
2, 132480, Note_on_c, 0, 77, 80
2, 132572, Note_off_c, 0, 77, 100
2, 132576, Note_on_c, 0, 69, 80
2, 132576, Note_on_c, 0, 65, 80
2, 132668, Note_off_c, 0, 69, 100
2, 132668, Note_off_c, 0, 65, 100
2, 132672, Note_on_c, 0, 77, 80
2, 132764, Note_off_c, 0, 77, 100
2, 132768, Note_on_c, 0, 69, 80
2, 132768, Note_on_c, 0, 65, 80
2, 132860, Note_off_c, 0, 69, 100
2, 132860, Note_off_c, 0, 65, 100
2, 132864, Note_on_c, 0, 77, 80
2, 132956, Note_off_c, 0, 77, 100
2, 132960, Note_on_c, 0, 69, 80
2, 132960, Note_on_c, 0, 65, 80
2, 133052, Note_off_c, 0, 69, 100
2, 133052, Note_off_c, 0, 65, 100
2, 133056, Note_on_c, 0, 76, 80
2, 133148, Note_off_c, 0, 76, 100
2, 133152, Note_on_c, 0, 69, 80
2, 133152, Note_on_c, 0, 65, 80
2, 133244, Note_off_c, 0, 69, 100
2, 133244, Note_off_c, 0, 65, 100
2, 133248, Note_on_c, 0, 74, 80
2, 133340, Note_off_c, 0, 74, 100
2, 133344, Note_on_c, 0, 68, 80
2, 133344, Note_on_c, 0, 65, 80
2, 133436, Note_off_c, 0, 68, 100
2, 133436, Note_off_c, 0, 65, 100
2, 133440, Note_on_c, 0, 72, 80
2, 133532, Note_off_c, 0, 72, 100
2, 133536, Note_on_c, 0, 68, 80
2, 133536, Note_on_c, 0, 65, 80
2, 133628, Note_off_c, 0, 68, 100
2, 133628, Note_off_c, 0, 65, 100
2, 133632, Note_on_c, 0, 71, 80
2, 133724, Note_off_c, 0, 71, 100
2, 133728, Note_on_c, 0, 68, 80
2, 133728, Note_on_c, 0, 65, 80
2, 133820, Note_off_c, 0, 68, 100
2, 133820, Note_off_c, 0, 65, 100
2, 133824, Note_on_c, 0, 74, 80
2, 133916, Note_off_c, 0, 74, 100
2, 133920, Note_on_c, 0, 68, 80
2, 133920, Note_on_c, 0, 65, 80
2, 134012, Note_off_c, 0, 68, 100
2, 134012, Note_off_c, 0, 65, 100
2, 134016, Note_on_c, 0, 72, 80
2, 134108, Note_off_c, 0, 72, 100
2, 134112, Note_on_c, 0, 67, 80
2, 134112, Note_on_c, 0, 64, 80
2, 134204, Note_off_c, 0, 67, 100
2, 134204, Note_off_c, 0, 64, 100
2, 134208, Note_on_c, 0, 72, 80
2, 134300, Note_off_c, 0, 72, 100
2, 134304, Note_on_c, 0, 67, 80
2, 134304, Note_on_c, 0, 64, 80
2, 134396, Note_off_c, 0, 67, 100
2, 134396, Note_off_c, 0, 64, 100
2, 134400, Note_on_c, 0, 71, 80
2, 134492, Note_off_c, 0, 71, 100
2, 134496, Note_on_c, 0, 68, 80
2, 134496, Note_on_c, 0, 65, 80
2, 134588, Note_off_c, 0, 68, 100
2, 134588, Note_off_c, 0, 65, 100
2, 134592, Note_on_c, 0, 74, 80
2, 134684, Note_off_c, 0, 74, 100
2, 134688, Note_on_c, 0, 68, 80
2, 134688, Note_on_c, 0, 65, 80
2, 134780, Note_off_c, 0, 68, 100
2, 134780, Note_off_c, 0, 65, 100
2, 134784, Note_on_c, 0, 72, 80
2, 134876, Note_off_c, 0, 72, 100
2, 134880, Note_on_c, 0, 67, 80
2, 134880, Note_on_c, 0, 64, 80
2, 134972, Note_off_c, 0, 67, 100
2, 134972, Note_off_c, 0, 64, 100
2, 134976, Note_on_c, 0, 72, 80
2, 135068, Note_off_c, 0, 72, 100
2, 135072, Note_on_c, 0, 67, 80
2, 135072, Note_on_c, 0, 64, 80
2, 135164, Note_off_c, 0, 67, 100
2, 135164, Note_off_c, 0, 64, 100
2, 135168, Note_on_c, 0, 71, 80
2, 135260, Note_off_c, 0, 71, 100
2, 135264, Note_on_c, 0, 68, 80
2, 135264, Note_on_c, 0, 65, 80
2, 135356, Note_off_c, 0, 68, 100
2, 135356, Note_off_c, 0, 65, 100
2, 135360, Note_on_c, 0, 74, 80
2, 135452, Note_off_c, 0, 74, 100
2, 135456, Note_on_c, 0, 68, 80
2, 135456, Note_on_c, 0, 65, 80
2, 135548, Note_off_c, 0, 68, 100
2, 135548, Note_off_c, 0, 65, 100
2, 135552, Note_on_c, 0, 72, 80
2, 135552, Note_on_c, 0, 67, 80
2, 135552, Note_on_c, 0, 64, 80
2, 135648, Note_on_c, 0, 60, 80
2, 135696, Note_off_c, 0, 72, 100
2, 135712, Note_off_c, 0, 64, 100
2, 135716, Note_off_c, 0, 67, 100
2, 135744, Note_on_c, 0, 62, 80
2, 135804, Note_off_c, 0, 60, 100
2, 135840, Note_on_c, 0, 64, 80
2, 135920, Note_off_c, 0, 62, 100
2, 135936, Note_on_c, 0, 65, 80
2, 136004, Note_off_c, 0, 64, 100
2, 136032, Note_on_c, 0, 67, 80
2, 136096, Note_off_c, 0, 65, 100
2, 136128, Note_on_c, 0, 69, 80
2, 136176, Note_off_c, 0, 67, 100
2, 136224, Note_on_c, 0, 71, 80
2, 136292, Note_off_c, 0, 69, 100
2, 136320, Note_on_c, 0, 72, 80
2, 136376, Note_off_c, 0, 71, 100
2, 136416, Note_on_c, 0, 71, 80
2, 136476, Note_off_c, 0, 72, 100
2, 136512, Note_on_c, 0, 72, 80
2, 136580, Note_off_c, 0, 71, 100
2, 136608, Note_on_c, 0, 71, 80
2, 136676, Note_off_c, 0, 72, 100
2, 136704, Note_on_c, 0, 72, 80
2, 136772, Note_off_c, 0, 71, 100
2, 136800, Note_on_c, 0, 71, 80
2, 136868, Note_off_c, 0, 72, 100
2, 136896, Note_on_c, 0, 72, 80
2, 136960, Note_off_c, 0, 71, 100
2, 136992, Note_on_c, 0, 71, 80
2, 137064, Note_off_c, 0, 72, 100
2, 137084, Note_off_c, 0, 71, 100
2, 137088, Note_on_c, 0, 72, 77
2, 137088, Note_on_c, 0, 69, 77
2, 137852, Note_off_c, 0, 72, 100
2, 137852, Note_off_c, 0, 69, 100
2, 137856, Note_on_c, 0, 69, 77
2, 138236, Note_off_c, 0, 69, 100
2, 138240, Note_on_c, 0, 77, 77
2, 138620, Note_off_c, 0, 77, 100
2, 138624, Note_on_c, 0, 69, 77
2, 138624, Note_on_c, 0, 72, 77
2, 139004, Note_off_c, 0, 69, 100
2, 139004, Note_off_c, 0, 72, 100
2, 139008, Note_on_c, 0, 77, 77
2, 139008, Note_on_c, 0, 81, 77
2, 139388, Note_off_c, 0, 77, 100
2, 139388, Note_off_c, 0, 81, 100
2, 139392, Note_on_c, 0, 69, 77
2, 139392, Note_on_c, 0, 72, 77
2, 139772, Note_off_c, 0, 69, 100
2, 139772, Note_off_c, 0, 72, 100
2, 139776, Note_on_c, 0, 84, 77
2, 139776, Note_on_c, 0, 81, 77
2, 140156, Note_off_c, 0, 84, 100
2, 140156, Note_off_c, 0, 81, 100
2, 140160, Note_on_c, 0, 72, 77
2, 140160, Note_on_c, 0, 69, 77
2, 140924, Note_off_c, 0, 72, 100
2, 140924, Note_off_c, 0, 69, 100
2, 140928, Note_on_c, 0, 69, 77
2, 141308, Note_off_c, 0, 69, 100
2, 141312, Note_on_c, 0, 77, 77
2, 141692, Note_off_c, 0, 77, 100
2, 141696, Note_on_c, 0, 69, 77
2, 141696, Note_on_c, 0, 72, 77
2, 142076, Note_off_c, 0, 69, 100
2, 142076, Note_off_c, 0, 72, 100
2, 142080, Note_on_c, 0, 77, 77
2, 142080, Note_on_c, 0, 81, 77
2, 142460, Note_off_c, 0, 77, 100
2, 142460, Note_off_c, 0, 81, 100
2, 142464, Note_on_c, 0, 69, 77
2, 142464, Note_on_c, 0, 72, 77
2, 142844, Note_off_c, 0, 69, 100
2, 142844, Note_off_c, 0, 72, 100
2, 142848, Note_on_c, 0, 84, 77
2, 142848, Note_on_c, 0, 81, 77
2, 143228, Note_off_c, 0, 84, 100
2, 143228, Note_off_c, 0, 81, 100
2, 143232, Note_on_c, 0, 78, 77
2, 143232, Note_on_c, 0, 74, 77
2, 143232, Note_on_c, 0, 72, 77
2, 143232, Note_on_c, 0, 69, 77
2, 143996, Note_off_c, 0, 78, 100
2, 143996, Note_off_c, 0, 74, 100
2, 143996, Note_off_c, 0, 72, 100
2, 143996, Note_off_c, 0, 69, 100
2, 145152, Note_on_c, 0, 78, 77
2, 145532, Note_off_c, 0, 78, 100
2, 145536, Note_on_c, 0, 81, 82
2, 145916, Note_off_c, 0, 81, 100
2, 145920, Note_on_c, 0, 84, 89
2, 146304, Note_on_c, 0, 78, 95
2, 146684, Note_off_c, 0, 84, 64
2, 146688, Note_on_c, 0, 82, 102
2, 147068, Note_off_c, 0, 78, 100
2, 147072, Note_on_c, 0, 79, 108
2, 147456, Note_on_c, 0, 73, 115
2, 147836, Note_off_c, 0, 73, 100
2, 147840, Note_on_c, 0, 72, 121
2, 148220, Note_off_c, 0, 79, 64
2, 148220, Note_off_c, 0, 82, 64
2, 148224, Note_on_c, 0, 81, 121
2, 148224, Note_on_c, 0, 77, 121
2, 148604, Note_off_c, 0, 72, 100
2, 148604, Note_off_c, 0, 81, 100
2, 148604, Note_off_c, 0, 77, 100
2, 148608, Note_on_c, 0, 79, 121
2, 148608, Note_on_c, 0, 74, 121
2, 148608, Note_on_c, 0, 70, 121
2, 148988, Note_off_c, 0, 79, 100
2, 148988, Note_off_c, 0, 74, 100
2, 148988, Note_off_c, 0, 70, 100
2, 148992, Note_on_c, 0, 76, 121
2, 148992, Note_on_c, 0, 70, 121
2, 148992, Note_on_c, 0, 67, 121
2, 149372, Note_off_c, 0, 76, 100
2, 149372, Note_off_c, 0, 70, 100
2, 149372, Note_off_c, 0, 67, 100
2, 149376, Note_on_c, 0, 77, 110
2, 149376, Note_on_c, 0, 69, 110
2, 149376, Note_on_c, 0, 65, 110
2, 149756, Note_off_c, 0, 77, 100
2, 149756, Note_off_c, 0, 69, 100
2, 149756, Note_off_c, 0, 65, 100
2, 150144, Note_on_c, 0, 69, 110
2, 150144, Note_on_c, 0, 65, 110
2, 150908, Note_off_c, 0, 69, 100
2, 150908, Note_off_c, 0, 65, 100
2, 150912, Note_on_c, 0, 65, 110
2, 150912, Note_on_c, 0, 62, 110
2, 151292, Note_off_c, 0, 65, 100
2, 151292, Note_off_c, 0, 62, 100
2, 151296, Note_on_c, 0, 62, 110
2, 151296, Note_on_c, 0, 58, 110
2, 151676, Note_off_c, 0, 62, 100
2, 151676, Note_off_c, 0, 58, 100
2, 151680, Note_on_c, 0, 70, 110
2, 151680, Note_on_c, 0, 67, 110
2, 152252, Note_off_c, 0, 70, 100
2, 152252, Note_off_c, 0, 67, 100
2, 152256, Note_on_c, 0, 65, 110
2, 152256, Note_on_c, 0, 69, 110
2, 152444, Note_off_c, 0, 65, 100
2, 152444, Note_off_c, 0, 69, 100
2, 152448, Note_on_c, 0, 67, 110
2, 152448, Note_on_c, 0, 64, 110
2, 152828, Note_off_c, 0, 67, 100
2, 152828, Note_off_c, 0, 64, 100
2, 152832, Note_on_c, 0, 64, 110
2, 152832, Note_on_c, 0, 60, 110
2, 153212, Note_off_c, 0, 64, 100
2, 153212, Note_off_c, 0, 60, 100
2, 153216, Note_on_c, 0, 72, 110
2, 153216, Note_on_c, 0, 69, 110
2, 153980, Note_off_c, 0, 72, 100
2, 153980, Note_off_c, 0, 69, 100
2, 153984, Note_on_c, 0, 69, 110
2, 153984, Note_on_c, 0, 65, 110
2, 154364, Note_off_c, 0, 69, 100
2, 154364, Note_off_c, 0, 65, 100
2, 154368, Note_on_c, 0, 65, 110
2, 154368, Note_on_c, 0, 62, 110
2, 154748, Note_off_c, 0, 65, 100
2, 154748, Note_off_c, 0, 62, 100
2, 154752, Note_on_c, 0, 74, 110
2, 154752, Note_on_c, 0, 70, 110
2, 155324, Note_off_c, 0, 74, 100
2, 155324, Note_off_c, 0, 70, 100
2, 155328, Note_on_c, 0, 72, 110
2, 155328, Note_on_c, 0, 69, 110
2, 155516, Note_off_c, 0, 72, 100
2, 155516, Note_off_c, 0, 69, 100
2, 155520, Note_on_c, 0, 67, 110
2, 155520, Note_on_c, 0, 70, 110
2, 155900, Note_off_c, 0, 67, 100
2, 155900, Note_off_c, 0, 70, 100
2, 155904, Note_on_c, 0, 67, 110
2, 155904, Note_on_c, 0, 64, 110
2, 156284, Note_off_c, 0, 67, 100
2, 156284, Note_off_c, 0, 64, 100
2, 156288, Note_on_c, 0, 79, 110
2, 156288, Note_on_c, 0, 70, 110
2, 156860, Note_off_c, 0, 79, 100
2, 156860, Note_off_c, 0, 70, 100
2, 156864, Note_on_c, 0, 77, 110
2, 156864, Note_on_c, 0, 69, 110
2, 157052, Note_off_c, 0, 77, 100
2, 157052, Note_off_c, 0, 69, 100
2, 157056, Note_on_c, 0, 76, 110
2, 157056, Note_on_c, 0, 67, 110
2, 157628, Note_off_c, 0, 76, 100
2, 157628, Note_off_c, 0, 67, 100
2, 157632, Note_on_c, 0, 74, 110
2, 157632, Note_on_c, 0, 65, 110
2, 157820, Note_off_c, 0, 74, 100
2, 157820, Note_off_c, 0, 65, 100
2, 157824, Note_on_c, 0, 72, 110
2, 157824, Note_on_c, 0, 64, 110
2, 158204, Note_off_c, 0, 72, 100
2, 158204, Note_off_c, 0, 64, 100
2, 158208, Note_on_c, 0, 70, 105
2, 158208, Note_on_c, 0, 58, 105
2, 158588, Note_off_c, 0, 70, 100
2, 158588, Note_off_c, 0, 58, 100
2, 158592, Note_on_c, 0, 69, 99
2, 158592, Note_on_c, 0, 57, 99
2, 158972, Note_off_c, 0, 69, 100
2, 158972, Note_off_c, 0, 57, 100
2, 158976, Note_on_c, 0, 67, 93
2, 158976, Note_on_c, 0, 61, 93
2, 159356, Note_off_c, 0, 67, 100
2, 159356, Note_off_c, 0, 61, 100
2, 159360, Note_on_c, 0, 65, 87
2, 159360, Note_on_c, 0, 62, 87
2, 159740, Note_off_c, 0, 65, 100
2, 159740, Note_off_c, 0, 62, 100
2, 159744, Note_on_c, 0, 62, 81
2, 159744, Note_on_c, 0, 55, 81
2, 159744, Note_on_c, 0, 53, 81
2, 160124, Note_off_c, 0, 62, 100
2, 160124, Note_off_c, 0, 55, 100
2, 160124, Note_off_c, 0, 53, 100
2, 160512, Note_on_c, 0, 60, 70
2, 160512, Note_on_c, 0, 57, 70
2, 160512, Note_on_c, 0, 53, 70
2, 160892, Note_off_c, 0, 60, 100
2, 160892, Note_off_c, 0, 57, 100
2, 160892, Note_off_c, 0, 53, 100
2, 161280, Note_on_c, 0, 60, 70
2, 161280, Note_on_c, 0, 55, 70
2, 161280, Note_on_c, 0, 52, 70
2, 161280, Note_on_c, 0, 48, 70
2, 161660, Note_off_c, 0, 60, 100
2, 161660, Note_off_c, 0, 55, 100
2, 161660, Note_off_c, 0, 52, 100
2, 161660, Note_off_c, 0, 48, 100
2, 162048, Note_on_c, 0, 57, 80
2, 162048, Note_on_c, 0, 53, 80
2, 162048, Note_on_c, 0, 48, 80
2, 162428, Note_off_c, 0, 57, 100
2, 162428, Note_off_c, 0, 53, 100
2, 162428, Note_off_c, 0, 48, 100
2, 162624, Note_on_c, 0, 69, 110
2, 162624, Note_on_c, 0, 65, 110
2, 163004, Note_off_c, 0, 69, 100
2, 163004, Note_off_c, 0, 65, 100
2, 163008, Note_on_c, 0, 69, 110
2, 163008, Note_on_c, 0, 65, 110
2, 163196, Note_off_c, 0, 69, 100
2, 163196, Note_off_c, 0, 65, 100
2, 163392, Note_on_c, 0, 65, 110
2, 163392, Note_on_c, 0, 62, 110
2, 163580, Note_off_c, 0, 65, 100
2, 163580, Note_off_c, 0, 62, 100
2, 163776, Note_on_c, 0, 62, 110
2, 163776, Note_on_c, 0, 58, 110
2, 163964, Note_off_c, 0, 62, 100
2, 163964, Note_off_c, 0, 58, 100
2, 164160, Note_on_c, 0, 70, 110
2, 164160, Note_on_c, 0, 67, 110
2, 164540, Note_off_c, 0, 70, 100
2, 164540, Note_off_c, 0, 67, 100
2, 164544, Note_on_c, 0, 69, 110
2, 164544, Note_on_c, 0, 65, 110
2, 164732, Note_off_c, 0, 69, 100
2, 164732, Note_off_c, 0, 65, 100
2, 164928, Note_on_c, 0, 64, 110
2, 164928, Note_on_c, 0, 67, 110
2, 165116, Note_off_c, 0, 64, 100
2, 165116, Note_off_c, 0, 67, 100
2, 165312, Note_on_c, 0, 64, 110
2, 165312, Note_on_c, 0, 60, 110
2, 165500, Note_off_c, 0, 64, 100
2, 165500, Note_off_c, 0, 60, 100
2, 165696, Note_on_c, 0, 72, 110
2, 165696, Note_on_c, 0, 69, 110
2, 166076, Note_off_c, 0, 72, 100
2, 166076, Note_off_c, 0, 69, 100
2, 166080, Note_on_c, 0, 72, 110
2, 166080, Note_on_c, 0, 69, 110
2, 166268, Note_off_c, 0, 72, 100
2, 166268, Note_off_c, 0, 69, 100
2, 166464, Note_on_c, 0, 69, 110
2, 166464, Note_on_c, 0, 65, 110
2, 166652, Note_off_c, 0, 69, 100
2, 166652, Note_off_c, 0, 65, 100
2, 166848, Note_on_c, 0, 65, 110
2, 166848, Note_on_c, 0, 62, 110
2, 167036, Note_off_c, 0, 65, 100
2, 167036, Note_off_c, 0, 62, 100
2, 167232, Note_on_c, 0, 74, 110
2, 167232, Note_on_c, 0, 70, 110
2, 167612, Note_off_c, 0, 74, 100
2, 167612, Note_off_c, 0, 70, 100
2, 167616, Note_on_c, 0, 72, 110
2, 167616, Note_on_c, 0, 69, 110
2, 167804, Note_off_c, 0, 72, 100
2, 167804, Note_off_c, 0, 69, 100
2, 168000, Note_on_c, 0, 70, 110
2, 168000, Note_on_c, 0, 67, 110
2, 168188, Note_off_c, 0, 70, 100
2, 168188, Note_off_c, 0, 67, 100
2, 168384, Note_on_c, 0, 67, 110
2, 168384, Note_on_c, 0, 64, 110
2, 168572, Note_off_c, 0, 67, 100
2, 168572, Note_off_c, 0, 64, 100
2, 168768, Note_on_c, 0, 79, 110
2, 168768, Note_on_c, 0, 70, 110
2, 169148, Note_off_c, 0, 79, 100
2, 169148, Note_off_c, 0, 70, 100
2, 169152, Note_on_c, 0, 77, 110
2, 169152, Note_on_c, 0, 69, 110
2, 169340, Note_off_c, 0, 77, 100
2, 169340, Note_off_c, 0, 69, 100
2, 169536, Note_on_c, 0, 76, 110
2, 169536, Note_on_c, 0, 67, 110
2, 169916, Note_off_c, 0, 76, 100
2, 169916, Note_off_c, 0, 67, 100
2, 169920, Note_on_c, 0, 74, 110
2, 169920, Note_on_c, 0, 65, 110
2, 170108, Note_off_c, 0, 74, 100
2, 170108, Note_off_c, 0, 65, 100
2, 170304, Note_on_c, 0, 72, 110
2, 170304, Note_on_c, 0, 64, 110
2, 170492, Note_off_c, 0, 72, 100
2, 170492, Note_off_c, 0, 64, 100
2, 170688, Note_on_c, 0, 70, 110
2, 170688, Note_on_c, 0, 58, 110
2, 170876, Note_off_c, 0, 70, 100
2, 170876, Note_off_c, 0, 58, 100
2, 170880, Note_on_c, 0, 69, 80
2, 170976, Note_on_c, 0, 57, 80
2, 171040, Note_off_c, 0, 69, 100
2, 171072, Note_on_c, 0, 61, 80
2, 171112, Note_off_c, 0, 57, 100
2, 171168, Note_on_c, 0, 64, 81
2, 171236, Note_off_c, 0, 61, 100
2, 171264, Note_on_c, 0, 69, 81
2, 171312, Note_off_c, 0, 64, 100
2, 171360, Note_on_c, 0, 73, 82
2, 171424, Note_off_c, 0, 69, 100
2, 171456, Note_on_c, 0, 76, 82
2, 171540, Note_off_c, 0, 73, 100
2, 171552, Note_on_c, 0, 80, 82
2, 171624, Note_off_c, 0, 76, 100
2, 171648, Note_on_c, 0, 81, 83
2, 171708, Note_off_c, 0, 80, 100
2, 171744, Note_on_c, 0, 80, 83
2, 171832, Note_off_c, 0, 81, 100
2, 171840, Note_on_c, 0, 81, 84
2, 171928, Note_off_c, 0, 80, 100
2, 171936, Note_on_c, 0, 80, 84
2, 172012, Note_off_c, 0, 81, 100
2, 172032, Note_on_c, 0, 81, 85
2, 172092, Note_off_c, 0, 80, 100
2, 172128, Note_on_c, 0, 76, 85
2, 172192, Note_off_c, 0, 81, 100
2, 172224, Note_on_c, 0, 73, 85
2, 172312, Note_off_c, 0, 76, 100
2, 172320, Note_on_c, 0, 69, 86
2, 172392, Note_off_c, 0, 73, 100
2, 172488, Note_off_c, 0, 69, 100
2, 172512, Note_on_c, 0, 57, 87
2, 172608, Note_on_c, 0, 62, 87
2, 172660, Note_off_c, 0, 57, 100
2, 172704, Note_on_c, 0, 65, 88
2, 172780, Note_off_c, 0, 62, 100
2, 172800, Note_on_c, 0, 69, 88
2, 172876, Note_off_c, 0, 65, 100
2, 172896, Note_on_c, 0, 74, 88
2, 172980, Note_off_c, 0, 69, 100
2, 172992, Note_on_c, 0, 77, 89
2, 173036, Note_off_c, 0, 74, 100
2, 173088, Note_on_c, 0, 80, 89
2, 173144, Note_off_c, 0, 77, 100
2, 173184, Note_on_c, 0, 81, 90
2, 173244, Note_off_c, 0, 80, 100
2, 173280, Note_on_c, 0, 80, 90
2, 173352, Note_off_c, 0, 81, 100
2, 173376, Note_on_c, 0, 81, 91
2, 173460, Note_off_c, 0, 80, 100
2, 173472, Note_on_c, 0, 80, 91
2, 173540, Note_off_c, 0, 81, 100
2, 173568, Note_on_c, 0, 81, 91
2, 173652, Note_off_c, 0, 80, 100
2, 173664, Note_on_c, 0, 77, 92
2, 173744, Note_off_c, 0, 81, 100
2, 173760, Note_on_c, 0, 74, 92
2, 173816, Note_off_c, 0, 77, 100
2, 173856, Note_on_c, 0, 69, 93
2, 173912, Note_off_c, 0, 74, 100
2, 174028, Note_off_c, 0, 69, 100
2, 174048, Note_on_c, 0, 56, 94
2, 174144, Note_on_c, 0, 59, 94
2, 174204, Note_off_c, 0, 56, 100
2, 174240, Note_on_c, 0, 62, 94
2, 174308, Note_off_c, 0, 59, 100
2, 174336, Note_on_c, 0, 65, 95
2, 174408, Note_off_c, 0, 62, 100
2, 174432, Note_on_c, 0, 68, 95
2, 174504, Note_off_c, 0, 65, 100
2, 174528, Note_on_c, 0, 71, 96
2, 174592, Note_off_c, 0, 68, 100
2, 174624, Note_on_c, 0, 74, 96
2, 174692, Note_off_c, 0, 71, 100
2, 174720, Note_on_c, 0, 77, 97
2, 174800, Note_off_c, 0, 74, 100
2, 174816, Note_on_c, 0, 74, 97
2, 174892, Note_off_c, 0, 77, 100
2, 174912, Note_on_c, 0, 80, 97
2, 174976, Note_off_c, 0, 74, 100
2, 175008, Note_on_c, 0, 77, 98
2, 175076, Note_off_c, 0, 80, 100
2, 175104, Note_on_c, 0, 74, 98
2, 175188, Note_off_c, 0, 77, 100
2, 175200, Note_on_c, 0, 71, 99
2, 175288, Note_off_c, 0, 74, 100
2, 175296, Note_on_c, 0, 68, 99
2, 175384, Note_off_c, 0, 71, 100
2, 175392, Note_on_c, 0, 65, 99
2, 175460, Note_off_c, 0, 68, 100
2, 175484, Note_off_c, 0, 65, 100
2, 175584, Note_on_c, 0, 64, 100
2, 175680, Note_on_c, 0, 67, 100
2, 175772, Note_off_c, 0, 64, 100
2, 175776, Note_on_c, 0, 70, 100
2, 175844, Note_off_c, 0, 67, 100
2, 175872, Note_on_c, 0, 73, 100
2, 175960, Note_off_c, 0, 70, 100
2, 175968, Note_on_c, 0, 76, 100
2, 176064, Note_on_c, 0, 79, 100
2, 176068, Note_off_c, 0, 73, 100
2, 176128, Note_off_c, 0, 76, 100
2, 176160, Note_on_c, 0, 82, 100
2, 176244, Note_off_c, 0, 79, 100
2, 176256, Note_on_c, 0, 85, 100
2, 176340, Note_off_c, 0, 82, 100
2, 176352, Note_on_c, 0, 88, 100
2, 176428, Note_off_c, 0, 85, 100
2, 176448, Note_on_c, 0, 76, 100
2, 176528, Note_off_c, 0, 88, 100
2, 176544, Note_on_c, 0, 88, 100
2, 176620, Note_off_c, 0, 76, 100
2, 176640, Note_on_c, 0, 76, 100
2, 176708, Note_off_c, 0, 88, 100
2, 176736, Note_on_c, 0, 88, 100
2, 176816, Note_off_c, 0, 76, 100
2, 176832, Note_on_c, 0, 76, 100
2, 176900, Note_off_c, 0, 88, 100
2, 176928, Note_on_c, 0, 88, 100
2, 177016, Note_off_c, 0, 76, 100
2, 177024, Note_on_c, 0, 77, 110
2, 177100, Note_off_c, 0, 88, 100
2, 177120, Note_on_c, 0, 89, 110
2, 177188, Note_off_c, 0, 77, 100
2, 177216, Note_on_c, 0, 76, 110
2, 177304, Note_off_c, 0, 89, 100
2, 177312, Note_on_c, 0, 88, 110
2, 177380, Note_off_c, 0, 76, 100
2, 177408, Note_on_c, 0, 77, 110
2, 177500, Note_off_c, 0, 88, 100
2, 177504, Note_on_c, 0, 89, 110
2, 177592, Note_off_c, 0, 77, 100
2, 177600, Note_on_c, 0, 70, 110
2, 177676, Note_off_c, 0, 89, 100
2, 177696, Note_on_c, 0, 82, 110
2, 177772, Note_off_c, 0, 70, 100
2, 177792, Note_on_c, 0, 69, 110
2, 177876, Note_off_c, 0, 82, 100
2, 177888, Note_on_c, 0, 81, 110
2, 177980, Note_off_c, 0, 69, 100
2, 177984, Note_on_c, 0, 76, 110
2, 178076, Note_off_c, 0, 81, 100
2, 178080, Note_on_c, 0, 88, 110
2, 178160, Note_off_c, 0, 76, 100
2, 178176, Note_on_c, 0, 77, 110
2, 178268, Note_off_c, 0, 88, 100
2, 178272, Note_on_c, 0, 89, 110
2, 178340, Note_off_c, 0, 77, 100
2, 178368, Note_on_c, 0, 70, 110
2, 178460, Note_off_c, 0, 89, 100
2, 178464, Note_on_c, 0, 82, 110
2, 178532, Note_off_c, 0, 70, 100
2, 178560, Note_on_c, 0, 69, 110
2, 178624, Note_off_c, 0, 82, 100
2, 178656, Note_on_c, 0, 81, 110
2, 178732, Note_off_c, 0, 69, 100
2, 178752, Note_on_c, 0, 76, 110
2, 178824, Note_off_c, 0, 81, 100
2, 178848, Note_on_c, 0, 88, 110
2, 178908, Note_off_c, 0, 76, 100
2, 178944, Note_on_c, 0, 77, 110
2, 179008, Note_off_c, 0, 88, 100
2, 179040, Note_on_c, 0, 89, 110
2, 179108, Note_off_c, 0, 77, 100
2, 179136, Note_on_c, 0, 70, 110
2, 179212, Note_off_c, 0, 89, 100
2, 179232, Note_on_c, 0, 82, 110
2, 179312, Note_off_c, 0, 70, 100
2, 179328, Note_on_c, 0, 69, 110
2, 179408, Note_off_c, 0, 82, 100
2, 179424, Note_on_c, 0, 81, 110
2, 179496, Note_off_c, 0, 69, 100
2, 179520, Note_on_c, 0, 76, 110
2, 179596, Note_off_c, 0, 81, 100
2, 179616, Note_on_c, 0, 88, 110
2, 179684, Note_off_c, 0, 76, 100
2, 179712, Note_on_c, 0, 77, 110
2, 179768, Note_off_c, 0, 88, 100
2, 179808, Note_on_c, 0, 89, 110
2, 179868, Note_off_c, 0, 77, 100
2, 179904, Note_on_c, 0, 70, 110
2, 179972, Note_off_c, 0, 89, 100
2, 180000, Note_on_c, 0, 82, 110
2, 180060, Note_off_c, 0, 70, 100
2, 180096, Note_on_c, 0, 69, 110
2, 180176, Note_off_c, 0, 82, 100
2, 180192, Note_on_c, 0, 81, 110
2, 180272, Note_off_c, 0, 69, 100
2, 180288, Note_on_c, 0, 67, 110
2, 180356, Note_off_c, 0, 81, 100
2, 180384, Note_on_c, 0, 79, 110
2, 180444, Note_off_c, 0, 67, 100
2, 180480, Note_on_c, 0, 65, 110
2, 180548, Note_off_c, 0, 79, 100
2, 180576, Note_on_c, 0, 77, 110
2, 180644, Note_off_c, 0, 65, 100
2, 180672, Note_on_c, 0, 64, 110
2, 180760, Note_off_c, 0, 77, 100
2, 180768, Note_on_c, 0, 76, 110
2, 180844, Note_off_c, 0, 64, 100
2, 180864, Note_on_c, 0, 62, 110
2, 180944, Note_off_c, 0, 76, 100
2, 180960, Note_on_c, 0, 74, 110
2, 181032, Note_off_c, 0, 62, 100
2, 181056, Note_on_c, 0, 60, 110
2, 181128, Note_off_c, 0, 74, 100
2, 181152, Note_on_c, 0, 72, 110
2, 181220, Note_off_c, 0, 60, 100
2, 181248, Note_on_c, 0, 58, 110
2, 181316, Note_off_c, 0, 72, 100
2, 181344, Note_on_c, 0, 70, 110
2, 181420, Note_off_c, 0, 58, 100
2, 181440, Note_on_c, 0, 57, 110
2, 181484, Note_off_c, 0, 70, 100
2, 181536, Note_on_c, 0, 69, 110
2, 181604, Note_off_c, 0, 57, 100
2, 181632, Note_on_c, 0, 55, 110
2, 181688, Note_off_c, 0, 69, 100
2, 181728, Note_on_c, 0, 67, 110
2, 181784, Note_off_c, 0, 55, 100
2, 181824, Note_on_c, 0, 53, 110
2, 181916, Note_off_c, 0, 67, 100
2, 181920, Note_on_c, 0, 65, 110
2, 181976, Note_off_c, 0, 53, 100
2, 182016, Note_on_c, 0, 52, 110
2, 182100, Note_off_c, 0, 65, 100
2, 182112, Note_on_c, 0, 64, 110
2, 182204, Note_off_c, 0, 52, 100
2, 182208, Note_on_c, 0, 50, 110
2, 182288, Note_off_c, 0, 64, 100
2, 182304, Note_on_c, 0, 62, 110
2, 182392, Note_off_c, 0, 50, 100
2, 182400, Note_on_c, 0, 48, 110
2, 182464, Note_off_c, 0, 62, 100
2, 182496, Note_on_c, 0, 60, 110
2, 182572, Note_off_c, 0, 48, 100
2, 182592, Note_on_c, 0, 46, 110
2, 182664, Note_off_c, 0, 60, 100
2, 182688, Note_on_c, 0, 58, 110
2, 182772, Note_off_c, 0, 46, 100
2, 182784, Note_on_c, 0, 45, 110
2, 182852, Note_off_c, 0, 58, 100
2, 182880, Note_on_c, 0, 57, 110
2, 182964, Note_off_c, 0, 45, 100
2, 182976, Note_on_c, 0, 43, 110
2, 183044, Note_off_c, 0, 57, 100
2, 183072, Note_on_c, 0, 55, 110
2, 183144, Note_off_c, 0, 43, 100
2, 183168, Note_on_c, 0, 53, 110
2, 183248, Note_off_c, 0, 55, 100
2, 183356, Note_off_c, 0, 53, 100
2, 183360, Note_on_c, 0, 52, 80
2, 183456, Note_on_c, 0, 60, 80
2, 183524, Note_off_c, 0, 52, 100
2, 183552, Note_on_c, 0, 53, 80
2, 183632, Note_off_c, 0, 60, 100
2, 183648, Note_on_c, 0, 60, 80
2, 183708, Note_off_c, 0, 53, 100
2, 183744, Note_on_c, 0, 58, 80
2, 183816, Note_off_c, 0, 60, 100
2, 183840, Note_on_c, 0, 60, 80
2, 183932, Note_off_c, 0, 58, 100
2, 183936, Note_on_c, 0, 57, 80
2, 184012, Note_off_c, 0, 60, 100
2, 184032, Note_on_c, 0, 60, 80
2, 184112, Note_off_c, 0, 57, 100
2, 184128, Note_on_c, 0, 52, 80
2, 184196, Note_off_c, 0, 60, 100
2, 184224, Note_on_c, 0, 60, 80
2, 184288, Note_off_c, 0, 52, 100
2, 184320, Note_on_c, 0, 53, 80
2, 184380, Note_off_c, 0, 60, 100
2, 184416, Note_on_c, 0, 60, 80
2, 184476, Note_off_c, 0, 53, 100
2, 184512, Note_on_c, 0, 58, 80
2, 184596, Note_off_c, 0, 60, 100
2, 184608, Note_on_c, 0, 60, 80
2, 184688, Note_off_c, 0, 58, 100
2, 184704, Note_on_c, 0, 57, 80
2, 184780, Note_off_c, 0, 60, 100
2, 184800, Note_on_c, 0, 60, 81
2, 184864, Note_off_c, 0, 57, 100
2, 184896, Note_on_c, 0, 52, 83
2, 184956, Note_off_c, 0, 60, 100
2, 184992, Note_on_c, 0, 60, 84
2, 185044, Note_off_c, 0, 52, 100
2, 185088, Note_on_c, 0, 53, 86
2, 185164, Note_off_c, 0, 60, 100
2, 185184, Note_on_c, 0, 60, 87
2, 185252, Note_off_c, 0, 53, 100
2, 185280, Note_on_c, 0, 58, 89
2, 185348, Note_off_c, 0, 60, 100
2, 185376, Note_on_c, 0, 60, 91
2, 185440, Note_off_c, 0, 58, 100
2, 185472, Note_on_c, 0, 57, 92
2, 185540, Note_off_c, 0, 60, 100
2, 185568, Note_on_c, 0, 60, 94
2, 185636, Note_off_c, 0, 57, 100
2, 185664, Note_on_c, 0, 49, 95
2, 185748, Note_off_c, 0, 60, 100
2, 185760, Note_on_c, 0, 61, 97
2, 185836, Note_off_c, 0, 49, 100
2, 185856, Note_on_c, 0, 50, 98
2, 185944, Note_off_c, 0, 61, 100
2, 185952, Note_on_c, 0, 62, 100
2, 186024, Note_off_c, 0, 50, 100
2, 186048, Note_on_c, 0, 52, 102
2, 186116, Note_off_c, 0, 62, 100
2, 186144, Note_on_c, 0, 64, 103
2, 186212, Note_off_c, 0, 52, 100
2, 186240, Note_on_c, 0, 53, 105
2, 186304, Note_off_c, 0, 64, 100
2, 186336, Note_on_c, 0, 65, 106
2, 186408, Note_off_c, 0, 53, 100
2, 186432, Note_on_c, 0, 54, 108
2, 186500, Note_off_c, 0, 65, 100
2, 186528, Note_on_c, 0, 66, 109
2, 186596, Note_off_c, 0, 54, 100
2, 186624, Note_on_c, 0, 55, 120
2, 186696, Note_off_c, 0, 66, 100
2, 186720, Note_on_c, 0, 67, 120
2, 186796, Note_off_c, 0, 55, 100
2, 186816, Note_on_c, 0, 57, 120
2, 186888, Note_off_c, 0, 67, 100
2, 186912, Note_on_c, 0, 69, 120
2, 186980, Note_off_c, 0, 57, 100
2, 187008, Note_on_c, 0, 58, 120
2, 187068, Note_off_c, 0, 69, 100
2, 187104, Note_on_c, 0, 70, 120
2, 187168, Note_off_c, 0, 58, 100
2, 187200, Note_on_c, 0, 60, 120
2, 187268, Note_off_c, 0, 70, 100
2, 187296, Note_on_c, 0, 72, 120
2, 187372, Note_off_c, 0, 60, 100
2, 187392, Note_on_c, 0, 62, 120
2, 187464, Note_off_c, 0, 72, 100
2, 187488, Note_on_c, 0, 74, 120
2, 187568, Note_off_c, 0, 62, 100
2, 187584, Note_on_c, 0, 60, 120
2, 187660, Note_off_c, 0, 74, 100
2, 187680, Note_on_c, 0, 72, 120
2, 187752, Note_off_c, 0, 60, 100
2, 187776, Note_on_c, 0, 58, 120
2, 187844, Note_off_c, 0, 72, 100
2, 187872, Note_on_c, 0, 70, 120
2, 187944, Note_off_c, 0, 58, 100
2, 187968, Note_on_c, 0, 57, 120
2, 188040, Note_off_c, 0, 70, 100
2, 188064, Note_on_c, 0, 69, 120
2, 188156, Note_off_c, 0, 57, 100
2, 188160, Note_on_c, 0, 55, 120
2, 188228, Note_off_c, 0, 69, 100
2, 188256, Note_on_c, 0, 67, 120
2, 188324, Note_off_c, 0, 55, 100
2, 188352, Note_on_c, 0, 53, 120
2, 188428, Note_off_c, 0, 67, 100
2, 188448, Note_on_c, 0, 65, 120
2, 188516, Note_off_c, 0, 53, 100
2, 188544, Note_on_c, 0, 52, 120
2, 188628, Note_off_c, 0, 65, 100
2, 188640, Note_on_c, 0, 64, 120
2, 188732, Note_off_c, 0, 52, 100
2, 188736, Note_on_c, 0, 50, 120
2, 188788, Note_off_c, 0, 64, 100
2, 188832, Note_on_c, 0, 62, 120
2, 188896, Note_off_c, 0, 50, 100
2, 188928, Note_on_c, 0, 48, 120
2, 189004, Note_off_c, 0, 62, 100
2, 189024, Note_on_c, 0, 60, 120
2, 189084, Note_off_c, 0, 48, 100
2, 189120, Note_on_c, 0, 52, 120
2, 189188, Note_off_c, 0, 60, 100
2, 189216, Note_on_c, 0, 64, 120
2, 189276, Note_off_c, 0, 52, 100
2, 189308, Note_off_c, 0, 64, 100
2, 189312, Note_on_c, 0, 65, 120
2, 189312, Note_on_c, 0, 53, 120
2, 189692, Note_off_c, 0, 65, 100
2, 189692, Note_off_c, 0, 53, 100
2, 190080, Note_on_c, 0, 60, 80
2, 190080, Note_on_c, 0, 57, 80
2, 190656, Note_on_c, 0, 53, 80
2, 190844, Note_off_c, 0, 60, 100
2, 190844, Note_off_c, 0, 57, 100
2, 190844, Note_off_c, 0, 53, 100
2, 190848, Note_on_c, 0, 61, 80
2, 190848, Note_on_c, 0, 58, 80
2, 191424, Note_on_c, 0, 56, 80
2, 191612, Note_off_c, 0, 61, 100
2, 191612, Note_off_c, 0, 58, 100
2, 191612, Note_off_c, 0, 56, 100
2, 191616, Note_on_c, 0, 60, 80
2, 191616, Note_on_c, 0, 58, 80
2, 191616, Note_on_c, 0, 55, 80
2, 191804, Note_off_c, 0, 55, 100
2, 191808, Note_on_c, 0, 53, 80
2, 191996, Note_off_c, 0, 60, 100
2, 191996, Note_off_c, 0, 58, 100
2, 191996, Note_off_c, 0, 53, 100
2, 192000, Note_on_c, 0, 60, 80
2, 192000, Note_on_c, 0, 58, 80
2, 192000, Note_on_c, 0, 55, 80
2, 192188, Note_off_c, 0, 55, 100
2, 192192, Note_on_c, 0, 52, 80
2, 192380, Note_off_c, 0, 60, 100
2, 192380, Note_off_c, 0, 58, 100
2, 192380, Note_off_c, 0, 52, 100
2, 192384, Note_on_c, 0, 60, 80
2, 192384, Note_on_c, 0, 57, 80
2, 192384, Note_on_c, 0, 53, 80
2, 192956, Note_off_c, 0, 60, 100
2, 192956, Note_off_c, 0, 57, 100
2, 192956, Note_off_c, 0, 53, 100
2, 193152, Note_on_c, 0, 57, 80
2, 193152, Note_on_c, 0, 60, 80
2, 193152, Note_on_c, 0, 69, 80
2, 193724, Note_off_c, 0, 69, 100
2, 193728, Note_on_c, 0, 65, 80
2, 193916, Note_off_c, 0, 57, 100
2, 193916, Note_off_c, 0, 60, 100
2, 193916, Note_off_c, 0, 65, 100
2, 193920, Note_on_c, 0, 61, 80
2, 193920, Note_on_c, 0, 58, 80
2, 193920, Note_on_c, 0, 70, 80
2, 194492, Note_off_c, 0, 70, 100
2, 194496, Note_on_c, 0, 68, 80
2, 194684, Note_off_c, 0, 61, 100
2, 194684, Note_off_c, 0, 58, 100
2, 194684, Note_off_c, 0, 68, 100
2, 194688, Note_on_c, 0, 66, 80
2, 194688, Note_on_c, 0, 61, 80
2, 194688, Note_on_c, 0, 58, 80
2, 194876, Note_off_c, 0, 66, 100
2, 194880, Note_on_c, 0, 65, 80
2, 195068, Note_off_c, 0, 61, 100
2, 195068, Note_off_c, 0, 58, 100
2, 195068, Note_off_c, 0, 65, 100
2, 195072, Note_on_c, 0, 66, 80
2, 195072, Note_on_c, 0, 61, 80
2, 195072, Note_on_c, 0, 58, 80
2, 195260, Note_off_c, 0, 66, 100
2, 195264, Note_on_c, 0, 64, 80
2, 195452, Note_off_c, 0, 61, 100
2, 195452, Note_off_c, 0, 58, 100
2, 195452, Note_off_c, 0, 64, 100
2, 195456, Note_on_c, 0, 65, 80
2, 195456, Note_on_c, 0, 60, 80
2, 195456, Note_on_c, 0, 57, 80
2, 196028, Note_off_c, 0, 65, 100
2, 196028, Note_off_c, 0, 60, 100
2, 196028, Note_off_c, 0, 57, 100
2, 196224, Note_on_c, 0, 67, 80
2, 196224, Note_on_c, 0, 61, 80
2, 196224, Note_on_c, 0, 58, 80
2, 196412, Note_off_c, 0, 67, 100
2, 196416, Note_on_c, 0, 65, 80
2, 196604, Note_off_c, 0, 61, 100
2, 196604, Note_off_c, 0, 58, 100
2, 196604, Note_off_c, 0, 65, 100
2, 196608, Note_on_c, 0, 67, 80
2, 196608, Note_on_c, 0, 61, 80
2, 196608, Note_on_c, 0, 58, 80
2, 196796, Note_off_c, 0, 67, 100
2, 196800, Note_on_c, 0, 64, 80
2, 196988, Note_off_c, 0, 61, 100
2, 196988, Note_off_c, 0, 58, 100
2, 196988, Note_off_c, 0, 64, 100
2, 196992, Note_on_c, 0, 65, 80
2, 196992, Note_on_c, 0, 60, 80
2, 196992, Note_on_c, 0, 57, 80
2, 197564, Note_off_c, 0, 65, 100
2, 197564, Note_off_c, 0, 60, 100
2, 197564, Note_off_c, 0, 57, 100
2, 197760, Note_on_c, 0, 66, 70
2, 197760, Note_on_c, 0, 61, 70
2, 197760, Note_on_c, 0, 58, 70
2, 197948, Note_off_c, 0, 66, 100
2, 197952, Note_on_c, 0, 65, 70
2, 198140, Note_off_c, 0, 61, 100
2, 198140, Note_off_c, 0, 58, 100
2, 198140, Note_off_c, 0, 65, 100
2, 198144, Note_on_c, 0, 66, 70
2, 198144, Note_on_c, 0, 61, 70
2, 198144, Note_on_c, 0, 58, 70
2, 198332, Note_off_c, 0, 66, 100
2, 198336, Note_on_c, 0, 64, 70
2, 198524, Note_off_c, 0, 61, 100
2, 198524, Note_off_c, 0, 58, 100
2, 198524, Note_off_c, 0, 64, 100
2, 198528, Note_on_c, 0, 53, 120
2, 198528, Note_on_c, 0, 65, 120
2, 199100, Note_off_c, 0, 53, 100
2, 199100, Note_off_c, 0, 65, 100
2, 199104, Note_on_c, 0, 55, 120
2, 199104, Note_on_c, 0, 67, 120
2, 199292, Note_off_c, 0, 55, 100
2, 199292, Note_off_c, 0, 67, 100
2, 199296, Note_on_c, 0, 57, 120
2, 199296, Note_on_c, 0, 69, 120
2, 199868, Note_off_c, 0, 57, 100
2, 199868, Note_off_c, 0, 69, 100
2, 199872, Note_on_c, 0, 58, 120
2, 199872, Note_on_c, 0, 70, 120
2, 200060, Note_off_c, 0, 58, 100
2, 200060, Note_off_c, 0, 70, 100
2, 200064, Note_on_c, 0, 60, 120
2, 200064, Note_on_c, 0, 72, 120
2, 200636, Note_off_c, 0, 60, 100
2, 200636, Note_off_c, 0, 72, 100
2, 200640, Note_on_c, 0, 62, 120
2, 200640, Note_on_c, 0, 74, 120
2, 200828, Note_off_c, 0, 62, 100
2, 200828, Note_off_c, 0, 74, 100
2, 200832, Note_on_c, 0, 64, 120
2, 200832, Note_on_c, 0, 76, 120
2, 201020, Note_off_c, 0, 64, 100
2, 201020, Note_off_c, 0, 76, 100
2, 201024, Note_on_c, 0, 65, 120
2, 201024, Note_on_c, 0, 77, 120
2, 201212, Note_off_c, 0, 65, 100
2, 201212, Note_off_c, 0, 77, 100
2, 201216, Note_on_c, 0, 67, 120
2, 201216, Note_on_c, 0, 79, 120
2, 201404, Note_off_c, 0, 67, 100
2, 201404, Note_off_c, 0, 79, 100
2, 201408, Note_on_c, 0, 69, 120
2, 201408, Note_on_c, 0, 81, 120
2, 201596, Note_off_c, 0, 69, 100
2, 201596, Note_off_c, 0, 81, 100
2, 201600, Note_on_c, 0, 70, 120
2, 201600, Note_on_c, 0, 82, 120
2, 202172, Note_off_c, 0, 70, 100
2, 202172, Note_off_c, 0, 82, 100
2, 202176, Note_on_c, 0, 69, 120
2, 202176, Note_on_c, 0, 81, 120
2, 202364, Note_off_c, 0, 69, 100
2, 202364, Note_off_c, 0, 81, 100
2, 202368, Note_on_c, 0, 67, 120
2, 202368, Note_on_c, 0, 79, 120
2, 202940, Note_off_c, 0, 67, 100
2, 202940, Note_off_c, 0, 79, 100
2, 202944, Note_on_c, 0, 65, 120
2, 202944, Note_on_c, 0, 77, 120
2, 203132, Note_off_c, 0, 65, 100
2, 203132, Note_off_c, 0, 77, 100
2, 203136, Note_on_c, 0, 64, 120
2, 203136, Note_on_c, 0, 76, 120
2, 203708, Note_off_c, 0, 64, 100
2, 203708, Note_off_c, 0, 76, 100
2, 203712, Note_on_c, 0, 62, 120
2, 203712, Note_on_c, 0, 74, 120
2, 203900, Note_off_c, 0, 62, 100
2, 203900, Note_off_c, 0, 74, 100
2, 203904, Note_on_c, 0, 60, 120
2, 203904, Note_on_c, 0, 72, 120
2, 204092, Note_off_c, 0, 60, 100
2, 204092, Note_off_c, 0, 72, 100
2, 204096, Note_on_c, 0, 58, 120
2, 204096, Note_on_c, 0, 70, 120
2, 204284, Note_off_c, 0, 58, 100
2, 204284, Note_off_c, 0, 70, 100
2, 204288, Note_on_c, 0, 57, 120
2, 204288, Note_on_c, 0, 69, 120
2, 204476, Note_off_c, 0, 57, 100
2, 204476, Note_off_c, 0, 69, 100
2, 204480, Note_on_c, 0, 55, 120
2, 204480, Note_on_c, 0, 67, 120
2, 204668, Note_off_c, 0, 55, 100
2, 204668, Note_off_c, 0, 67, 100
2, 204672, Note_on_c, 0, 53, 120
2, 204672, Note_on_c, 0, 65, 120
2, 205052, Note_off_c, 0, 53, 100
2, 205052, Note_off_c, 0, 65, 100
2, 205056, Note_on_c, 0, 64, 80
2, 205152, Note_on_c, 0, 63, 80
2, 205192, Note_off_c, 0, 64, 100
2, 205248, Note_on_c, 0, 64, 80
2, 205292, Note_off_c, 0, 63, 100
2, 205344, Note_on_c, 0, 60, 80
2, 205392, Note_off_c, 0, 64, 100
2, 205436, Note_off_c, 0, 60, 100
2, 205440, Note_on_c, 0, 65, 80
2, 205820, Note_off_c, 0, 65, 100
2, 205824, Note_on_c, 0, 76, 80
2, 205920, Note_on_c, 0, 75, 80
2, 205992, Note_off_c, 0, 76, 100
2, 206016, Note_on_c, 0, 76, 80
2, 206080, Note_off_c, 0, 75, 100
2, 206112, Note_on_c, 0, 72, 80
2, 206164, Note_off_c, 0, 76, 100
2, 206204, Note_off_c, 0, 72, 100
2, 206208, Note_on_c, 0, 77, 80
2, 206588, Note_off_c, 0, 77, 100
2, 206976, Note_on_c, 0, 88, 120
2, 206976, Note_on_c, 0, 84, 120
2, 206976, Note_on_c, 0, 82, 120
2, 206976, Note_on_c, 0, 79, 120
2, 206976, Note_on_c, 0, 76, 120
2, 207356, Note_off_c, 0, 88, 100
2, 207356, Note_off_c, 0, 84, 100
2, 207356, Note_off_c, 0, 82, 100
2, 207356, Note_off_c, 0, 79, 100
2, 207356, Note_off_c, 0, 76, 100
2, 207744, Note_on_c, 0, 89, 120
2, 207744, Note_on_c, 0, 84, 120
2, 207744, Note_on_c, 0, 81, 120
2, 207744, Note_on_c, 0, 77, 120
2, 208124, Note_off_c, 0, 89, 100
2, 208124, Note_off_c, 0, 84, 100
2, 208124, Note_off_c, 0, 81, 100
2, 208124, Note_off_c, 0, 77, 100
2, 208896, Note_on_c, 0, 60, 80
2, 208988, Note_off_c, 0, 60, 100
2, 208992, Note_on_c, 0, 59, 80
2, 209084, Note_off_c, 0, 59, 100
2, 209088, Note_on_c, 0, 60, 80
2, 209180, Note_off_c, 0, 60, 100
2, 209184, Note_on_c, 0, 57, 80
2, 209276, Note_off_c, 0, 57, 100
2, 209280, Note_on_c, 0, 65, 80
2, 209660, Note_off_c, 0, 65, 100
2, 210432, Note_on_c, 0, 60, 80
2, 210524, Note_off_c, 0, 60, 100
2, 210528, Note_on_c, 0, 59, 80
2, 210620, Note_off_c, 0, 59, 100
2, 210624, Note_on_c, 0, 60, 80
2, 210716, Note_off_c, 0, 60, 100
2, 210720, Note_on_c, 0, 57, 80
2, 210812, Note_off_c, 0, 57, 100
2, 210816, Note_on_c, 0, 65, 80
2, 211196, Note_off_c, 0, 65, 100
2, 211968, Note_on_c, 0, 60, 90
2, 212060, Note_off_c, 0, 60, 100
2, 212064, Note_on_c, 0, 59, 96
2, 212156, Note_off_c, 0, 59, 100
2, 212160, Note_on_c, 0, 60, 103
2, 212252, Note_off_c, 0, 60, 100
2, 212256, Note_on_c, 0, 57, 109
2, 212348, Note_off_c, 0, 57, 100
2, 212352, Note_on_c, 0, 65, 110
2, 212924, Note_off_c, 0, 65, 100
2, 212928, Note_on_c, 0, 67, 110
2, 213116, Note_off_c, 0, 67, 100
2, 213120, Note_on_c, 0, 69, 110
2, 213692, Note_off_c, 0, 69, 100
2, 213696, Note_on_c, 0, 70, 110
2, 213884, Note_off_c, 0, 70, 100
2, 213888, Note_on_c, 0, 72, 110
2, 214460, Note_off_c, 0, 72, 100
2, 214464, Note_on_c, 0, 74, 110
2, 214652, Note_off_c, 0, 74, 100
2, 214656, Note_on_c, 0, 75, 110
2, 214844, Note_off_c, 0, 75, 100
2, 214848, Note_on_c, 0, 74, 110
2, 215036, Note_off_c, 0, 74, 100
2, 215040, Note_on_c, 0, 72, 110
2, 215228, Note_off_c, 0, 72, 100
2, 215232, Note_on_c, 0, 74, 110
2, 215420, Note_off_c, 0, 74, 100
2, 215424, Note_on_c, 0, 75, 110
2, 215996, Note_off_c, 0, 75, 100
2, 216000, Note_on_c, 0, 74, 110
2, 216188, Note_off_c, 0, 74, 100
2, 216192, Note_on_c, 0, 72, 110
2, 216380, Note_off_c, 0, 72, 100
2, 216384, Note_on_c, 0, 70, 110
2, 216572, Note_off_c, 0, 70, 100
2, 216576, Note_on_c, 0, 69, 110
2, 216764, Note_off_c, 0, 69, 100
2, 216768, Note_on_c, 0, 70, 110
2, 216956, Note_off_c, 0, 70, 100
2, 216960, Note_on_c, 0, 72, 110
2, 217532, Note_off_c, 0, 72, 100
2, 217536, Note_on_c, 0, 70, 110
2, 217724, Note_off_c, 0, 70, 100
2, 217728, Note_on_c, 0, 69, 110
2, 217916, Note_off_c, 0, 69, 100
2, 217920, Note_on_c, 0, 67, 110
2, 218108, Note_off_c, 0, 67, 100
2, 218112, Note_on_c, 0, 66, 110
2, 218300, Note_off_c, 0, 66, 100
2, 218304, Note_on_c, 0, 64, 110
2, 218492, Note_off_c, 0, 64, 100
2, 218496, Note_on_c, 0, 62, 110
2, 219260, Note_off_c, 0, 62, 100
2, 219264, Note_on_c, 0, 60, 80
2, 219264, Note_on_c, 0, 57, 80
2, 219264, Note_on_c, 0, 66, 80
2, 219836, Note_off_c, 0, 66, 100
2, 219840, Note_on_c, 0, 62, 80
2, 220028, Note_off_c, 0, 60, 100
2, 220028, Note_off_c, 0, 57, 100
2, 220028, Note_off_c, 0, 62, 100
2, 220032, Note_on_c, 0, 58, 80
2, 220032, Note_on_c, 0, 55, 80
2, 220032, Note_on_c, 0, 67, 80
2, 220604, Note_off_c, 0, 67, 100
2, 220608, Note_on_c, 0, 65, 80
2, 220796, Note_off_c, 0, 58, 100
2, 220796, Note_off_c, 0, 55, 100
2, 220796, Note_off_c, 0, 65, 100
2, 220800, Note_on_c, 0, 63, 80
2, 220800, Note_on_c, 0, 58, 80
2, 220800, Note_on_c, 0, 55, 80
2, 220988, Note_off_c, 0, 63, 100
2, 220992, Note_on_c, 0, 62, 80
2, 221180, Note_off_c, 0, 58, 100
2, 221180, Note_off_c, 0, 55, 100
2, 221180, Note_off_c, 0, 62, 100
2, 221184, Note_on_c, 0, 63, 80
2, 221184, Note_on_c, 0, 58, 80
2, 221184, Note_on_c, 0, 55, 80
2, 221372, Note_off_c, 0, 63, 100
2, 221376, Note_on_c, 0, 61, 80
2, 221564, Note_off_c, 0, 58, 100
2, 221564, Note_off_c, 0, 55, 100
2, 221564, Note_off_c, 0, 61, 100
2, 221568, Note_on_c, 0, 62, 80
2, 221568, Note_on_c, 0, 57, 80
2, 221568, Note_on_c, 0, 54, 80
2, 222140, Note_off_c, 0, 62, 100
2, 222140, Note_off_c, 0, 57, 100
2, 222140, Note_off_c, 0, 54, 100
2, 222336, Note_on_c, 0, 72, 80
2, 222336, Note_on_c, 0, 69, 80
2, 222336, Note_on_c, 0, 78, 80
2, 222908, Note_off_c, 0, 78, 100
2, 222912, Note_on_c, 0, 74, 80
2, 223100, Note_off_c, 0, 72, 100
2, 223100, Note_off_c, 0, 69, 100
2, 223100, Note_off_c, 0, 74, 100
2, 223104, Note_on_c, 0, 70, 80
2, 223104, Note_on_c, 0, 67, 80
2, 223104, Note_on_c, 0, 79, 80
2, 223676, Note_off_c, 0, 79, 100
2, 223680, Note_on_c, 0, 77, 80
2, 223868, Note_off_c, 0, 70, 100
2, 223868, Note_off_c, 0, 67, 100
2, 223868, Note_off_c, 0, 77, 100
2, 223872, Note_on_c, 0, 75, 80
2, 223872, Note_on_c, 0, 70, 80
2, 223872, Note_on_c, 0, 67, 80
2, 224060, Note_off_c, 0, 75, 100
2, 224064, Note_on_c, 0, 74, 80
2, 224252, Note_off_c, 0, 70, 100
2, 224252, Note_off_c, 0, 67, 100
2, 224252, Note_off_c, 0, 74, 100
2, 224256, Note_on_c, 0, 75, 80
2, 224256, Note_on_c, 0, 70, 80
2, 224256, Note_on_c, 0, 67, 80
2, 224444, Note_off_c, 0, 75, 100
2, 224448, Note_on_c, 0, 73, 80
2, 224636, Note_off_c, 0, 70, 100
2, 224636, Note_off_c, 0, 67, 100
2, 224636, Note_off_c, 0, 73, 100
2, 224640, Note_on_c, 0, 74, 80
2, 224640, Note_on_c, 0, 69, 80
2, 224640, Note_on_c, 0, 66, 80
2, 225212, Note_off_c, 0, 74, 100
2, 225212, Note_off_c, 0, 69, 100
2, 225212, Note_off_c, 0, 66, 100
2, 225408, Note_on_c, 0, 76, 80
2, 225408, Note_on_c, 0, 70, 80
2, 225408, Note_on_c, 0, 67, 80
2, 225596, Note_off_c, 0, 76, 100
2, 225600, Note_on_c, 0, 74, 80
2, 225788, Note_off_c, 0, 70, 100
2, 225788, Note_off_c, 0, 67, 100
2, 225788, Note_off_c, 0, 74, 100
2, 225792, Note_on_c, 0, 76, 80
2, 225792, Note_on_c, 0, 70, 80
2, 225792, Note_on_c, 0, 67, 80
2, 225980, Note_off_c, 0, 76, 100
2, 225984, Note_on_c, 0, 73, 80
2, 226172, Note_off_c, 0, 70, 100
2, 226172, Note_off_c, 0, 67, 100
2, 226172, Note_off_c, 0, 73, 100
2, 226176, Note_on_c, 0, 74, 80
2, 226176, Note_on_c, 0, 69, 80
2, 226176, Note_on_c, 0, 66, 80
2, 226748, Note_off_c, 0, 74, 100
2, 226748, Note_off_c, 0, 69, 100
2, 226748, Note_off_c, 0, 66, 100
2, 226944, Note_on_c, 0, 75, 75
2, 226944, Note_on_c, 0, 70, 75
2, 226944, Note_on_c, 0, 67, 75
2, 227132, Note_off_c, 0, 75, 100
2, 227136, Note_on_c, 0, 74, 74
2, 227324, Note_off_c, 0, 70, 100
2, 227324, Note_off_c, 0, 67, 100
2, 227324, Note_off_c, 0, 74, 100
2, 227328, Note_on_c, 0, 75, 72
2, 227328, Note_on_c, 0, 70, 72
2, 227328, Note_on_c, 0, 67, 72
2, 227516, Note_off_c, 0, 75, 100
2, 227520, Note_on_c, 0, 73, 71
2, 227708, Note_off_c, 0, 70, 100
2, 227708, Note_off_c, 0, 67, 100
2, 227708, Note_off_c, 0, 73, 100
2, 227712, Note_on_c, 0, 74, 120
2, 227712, Note_on_c, 0, 69, 120
2, 227712, Note_on_c, 0, 66, 120
2, 228284, Note_off_c, 0, 74, 100
2, 228284, Note_off_c, 0, 69, 100
2, 228284, Note_off_c, 0, 66, 100
2, 229632, Note_on_c, 0, 75, 120
2, 229820, Note_off_c, 0, 75, 100
2, 229824, Note_on_c, 0, 74, 120
2, 230012, Note_off_c, 0, 74, 100
2, 230016, Note_on_c, 0, 72, 120
2, 230204, Note_off_c, 0, 72, 100
2, 230208, Note_on_c, 0, 70, 120
2, 230396, Note_off_c, 0, 70, 100
2, 230400, Note_on_c, 0, 69, 120
2, 230588, Note_off_c, 0, 69, 100
2, 230592, Note_on_c, 0, 67, 120
2, 230780, Note_off_c, 0, 67, 100
2, 230784, Note_on_c, 0, 66, 120
2, 231164, Note_off_c, 0, 66, 100
2, 231168, Note_on_c, 0, 81, 120
2, 231260, Note_off_c, 0, 81, 100
2, 231264, Note_on_c, 0, 80, 120
2, 231356, Note_off_c, 0, 80, 100
2, 231360, Note_on_c, 0, 81, 120
2, 231452, Note_off_c, 0, 81, 100
2, 231456, Note_on_c, 0, 78, 120
2, 231548, Note_off_c, 0, 78, 100
2, 231552, Note_on_c, 0, 84, 120
2, 231644, Note_off_c, 0, 84, 100
2, 231648, Note_on_c, 0, 83, 120
2, 231740, Note_off_c, 0, 83, 100
2, 231744, Note_on_c, 0, 84, 120
2, 231836, Note_off_c, 0, 84, 100
2, 231840, Note_on_c, 0, 81, 120
2, 231932, Note_off_c, 0, 81, 100
2, 231936, Note_on_c, 0, 87, 120
2, 232028, Note_off_c, 0, 87, 100
2, 232032, Note_on_c, 0, 86, 120
2, 232124, Note_off_c, 0, 86, 100
2, 232128, Note_on_c, 0, 84, 120
2, 232220, Note_off_c, 0, 84, 100
2, 232224, Note_on_c, 0, 82, 120
2, 232316, Note_off_c, 0, 82, 100
2, 232320, Note_on_c, 0, 81, 120
2, 232412, Note_off_c, 0, 81, 100
2, 232416, Note_on_c, 0, 82, 120
2, 232508, Note_off_c, 0, 82, 100
2, 232512, Note_on_c, 0, 84, 120
2, 232604, Note_off_c, 0, 84, 100
2, 232608, Note_on_c, 0, 82, 120
2, 232700, Note_off_c, 0, 82, 100
2, 232704, Note_on_c, 0, 81, 120
2, 232796, Note_off_c, 0, 81, 100
2, 232800, Note_on_c, 0, 79, 120
2, 232892, Note_off_c, 0, 79, 100
2, 232896, Note_on_c, 0, 78, 120
2, 232988, Note_off_c, 0, 78, 100
2, 232992, Note_on_c, 0, 79, 120
2, 233084, Note_off_c, 0, 79, 100
2, 233088, Note_on_c, 0, 81, 120
2, 233180, Note_off_c, 0, 81, 100
2, 233184, Note_on_c, 0, 79, 120
2, 233276, Note_off_c, 0, 79, 100
2, 233280, Note_on_c, 0, 78, 120
2, 233372, Note_off_c, 0, 78, 100
2, 233376, Note_on_c, 0, 75, 120
2, 233468, Note_off_c, 0, 75, 100
2, 233472, Note_on_c, 0, 74, 120
2, 233564, Note_off_c, 0, 74, 100
2, 233568, Note_on_c, 0, 72, 120
2, 233660, Note_off_c, 0, 72, 100
2, 233664, Note_on_c, 0, 71, 120
2, 233756, Note_off_c, 0, 71, 100
2, 233760, Note_on_c, 0, 72, 120
2, 233852, Note_off_c, 0, 72, 100
2, 233856, Note_on_c, 0, 71, 120
2, 234236, Note_off_c, 0, 71, 100
2, 235776, Note_on_c, 0, 80, 120
2, 235964, Note_off_c, 0, 80, 100
2, 235968, Note_on_c, 0, 79, 120
2, 236156, Note_off_c, 0, 79, 100
2, 236160, Note_on_c, 0, 77, 120
2, 236348, Note_off_c, 0, 77, 100
2, 236352, Note_on_c, 0, 75, 120
2, 236540, Note_off_c, 0, 75, 100
2, 236544, Note_on_c, 0, 74, 120
2, 236732, Note_off_c, 0, 74, 100
2, 236736, Note_on_c, 0, 72, 120
2, 236924, Note_off_c, 0, 72, 100
2, 236928, Note_on_c, 0, 71, 120
2, 237308, Note_off_c, 0, 71, 100
2, 237312, Note_on_c, 0, 74, 120
2, 237404, Note_off_c, 0, 74, 100
2, 237408, Note_on_c, 0, 73, 120
2, 237500, Note_off_c, 0, 73, 100
2, 237504, Note_on_c, 0, 74, 120
2, 237596, Note_off_c, 0, 74, 100
2, 237600, Note_on_c, 0, 71, 120
2, 237692, Note_off_c, 0, 71, 100
2, 237696, Note_on_c, 0, 77, 120
2, 237788, Note_off_c, 0, 77, 100
2, 237792, Note_on_c, 0, 76, 120
2, 237884, Note_off_c, 0, 76, 100
2, 237888, Note_on_c, 0, 77, 120
2, 237980, Note_off_c, 0, 77, 100
2, 237984, Note_on_c, 0, 74, 120
2, 238076, Note_off_c, 0, 74, 100
2, 238080, Note_on_c, 0, 80, 120
2, 238172, Note_off_c, 0, 80, 100
2, 238176, Note_on_c, 0, 79, 120
2, 238268, Note_off_c, 0, 79, 100
2, 238272, Note_on_c, 0, 77, 120
2, 238364, Note_off_c, 0, 77, 100
2, 238368, Note_on_c, 0, 75, 120
2, 238460, Note_off_c, 0, 75, 100
2, 238464, Note_on_c, 0, 74, 120
2, 238556, Note_off_c, 0, 74, 100
2, 238560, Note_on_c, 0, 75, 120
2, 238652, Note_off_c, 0, 75, 100
2, 238656, Note_on_c, 0, 77, 120
2, 238748, Note_off_c, 0, 77, 100
2, 238752, Note_on_c, 0, 75, 120
2, 238844, Note_off_c, 0, 75, 100
2, 238848, Note_on_c, 0, 74, 120
2, 238940, Note_off_c, 0, 74, 100
2, 238944, Note_on_c, 0, 72, 120
2, 239036, Note_off_c, 0, 72, 100
2, 239040, Note_on_c, 0, 71, 120
2, 239132, Note_off_c, 0, 71, 100
2, 239136, Note_on_c, 0, 72, 120
2, 239228, Note_off_c, 0, 72, 100
2, 239232, Note_on_c, 0, 74, 120
2, 239324, Note_off_c, 0, 74, 100
2, 239328, Note_on_c, 0, 72, 120
2, 239420, Note_off_c, 0, 72, 100
2, 239424, Note_on_c, 0, 71, 120
2, 239516, Note_off_c, 0, 71, 100
2, 239520, Note_on_c, 0, 68, 120
2, 239612, Note_off_c, 0, 68, 100
2, 239616, Note_on_c, 0, 67, 120
2, 239708, Note_off_c, 0, 67, 100
2, 239712, Note_on_c, 0, 65, 120
2, 239804, Note_off_c, 0, 65, 100
2, 239808, Note_on_c, 0, 64, 120
2, 239900, Note_off_c, 0, 64, 100
2, 239904, Note_on_c, 0, 65, 120
2, 239996, Note_off_c, 0, 65, 100
2, 240000, Note_on_c, 0, 64, 120
2, 240380, Note_off_c, 0, 64, 100
2, 241920, Note_on_c, 0, 73, 120
2, 242108, Note_off_c, 0, 73, 100
2, 242112, Note_on_c, 0, 72, 120
2, 242300, Note_off_c, 0, 72, 100
2, 242304, Note_on_c, 0, 70, 120
2, 242492, Note_off_c, 0, 70, 100
2, 242496, Note_on_c, 0, 68, 120
2, 242684, Note_off_c, 0, 68, 100
2, 242688, Note_on_c, 0, 67, 120
2, 242876, Note_off_c, 0, 67, 100
2, 242880, Note_on_c, 0, 65, 120
2, 243068, Note_off_c, 0, 65, 100
2, 243072, Note_on_c, 0, 64, 120
2, 243452, Note_off_c, 0, 64, 100
2, 243456, Note_on_c, 0, 79, 120
2, 243548, Note_off_c, 0, 79, 100
2, 243552, Note_on_c, 0, 78, 120
2, 243644, Note_off_c, 0, 78, 100
2, 243648, Note_on_c, 0, 79, 120
2, 243740, Note_off_c, 0, 79, 100
2, 243744, Note_on_c, 0, 76, 120
2, 243836, Note_off_c, 0, 76, 100
2, 243840, Note_on_c, 0, 82, 120
2, 243932, Note_off_c, 0, 82, 100
2, 243936, Note_on_c, 0, 81, 120
2, 244028, Note_off_c, 0, 81, 100
2, 244032, Note_on_c, 0, 82, 120
2, 244124, Note_off_c, 0, 82, 100
2, 244128, Note_on_c, 0, 79, 120
2, 244220, Note_off_c, 0, 79, 100
2, 244224, Note_on_c, 0, 85, 120
2, 244316, Note_off_c, 0, 85, 100
2, 244320, Note_on_c, 0, 84, 120
2, 244412, Note_off_c, 0, 84, 100
2, 244416, Note_on_c, 0, 85, 120
2, 244508, Note_off_c, 0, 85, 100
2, 244512, Note_on_c, 0, 84, 120
2, 244604, Note_off_c, 0, 84, 100
2, 244608, Control_c, 0, 64, 127
2, 244608, Note_on_c, 0, 85, 120
2, 244704, Note_on_c, 0, 82, 120
2, 244772, Note_off_c, 0, 85, 100
2, 244800, Note_on_c, 0, 79, 120
2, 244856, Note_off_c, 0, 82, 100
2, 244896, Note_on_c, 0, 76, 120
2, 244968, Note_off_c, 0, 79, 100
2, 244984, Control_c, 0, 64, 0
2, 244992, Control_c, 0, 64, 127
2, 244992, Note_on_c, 0, 82, 120
2, 245044, Note_off_c, 0, 76, 100
2, 245088, Note_on_c, 0, 79, 120
2, 245148, Note_off_c, 0, 82, 100
2, 245184, Note_on_c, 0, 76, 120
2, 245244, Note_off_c, 0, 79, 100
2, 245280, Note_on_c, 0, 73, 120
2, 245352, Note_off_c, 0, 76, 100
2, 245368, Control_c, 0, 64, 0
2, 245376, Control_c, 0, 64, 127
2, 245376, Note_on_c, 0, 79, 120
2, 245432, Note_off_c, 0, 73, 100
2, 245472, Note_on_c, 0, 76, 120
2, 245536, Note_off_c, 0, 79, 100
2, 245568, Note_on_c, 0, 73, 120
2, 245632, Note_off_c, 0, 76, 100
2, 245664, Note_on_c, 0, 70, 120
2, 245736, Note_off_c, 0, 73, 100
2, 245752, Control_c, 0, 64, 0
2, 245760, Control_c, 0, 64, 127
2, 245760, Note_on_c, 0, 76, 120
2, 245820, Note_off_c, 0, 70, 100
2, 245856, Note_on_c, 0, 73, 120
2, 245928, Note_off_c, 0, 76, 100
2, 245952, Note_on_c, 0, 70, 120
2, 246024, Note_off_c, 0, 73, 100
2, 246048, Note_on_c, 0, 67, 120
2, 246112, Note_off_c, 0, 70, 100
2, 246136, Control_c, 0, 64, 0
2, 246140, Note_off_c, 0, 67, 100
2, 246144, Control_c, 0, 64, 127
2, 246520, Control_c, 0, 64, 0
2, 246528, Control_c, 0, 64, 127
2, 246528, Note_on_c, 0, 77, 109
2, 246620, Note_off_c, 0, 77, 100
2, 246624, Note_on_c, 0, 76, 109
2, 246716, Note_off_c, 0, 76, 100
2, 246720, Note_on_c, 0, 77, 109
2, 246812, Note_off_c, 0, 77, 100
2, 246816, Note_on_c, 0, 72, 108
2, 246904, Control_c, 0, 64, 0
2, 246908, Note_off_c, 0, 72, 100
2, 246912, Control_c, 0, 64, 127
2, 246912, Note_on_c, 0, 80, 108
2, 247004, Note_off_c, 0, 80, 100
2, 247008, Note_on_c, 0, 79, 108
2, 247100, Note_off_c, 0, 79, 100
2, 247104, Note_on_c, 0, 80, 107
2, 247196, Note_off_c, 0, 80, 100
2, 247200, Note_on_c, 0, 77, 107
2, 247288, Control_c, 0, 64, 0
2, 247292, Note_off_c, 0, 77, 100
2, 247296, Control_c, 0, 64, 127
2, 247296, Note_on_c, 0, 84, 107
2, 247388, Note_off_c, 0, 84, 100
2, 247392, Note_on_c, 0, 83, 106
2, 247484, Note_off_c, 0, 83, 100
2, 247488, Note_on_c, 0, 84, 106
2, 247580, Note_off_c, 0, 84, 100
2, 247584, Note_on_c, 0, 80, 106
2, 247672, Control_c, 0, 64, 0
2, 247676, Note_off_c, 0, 80, 100
2, 247680, Control_c, 0, 64, 127
2, 247680, Note_on_c, 0, 89, 105
2, 247772, Note_off_c, 0, 89, 100
2, 247776, Note_on_c, 0, 84, 105
2, 247868, Note_off_c, 0, 84, 100
2, 247872, Note_on_c, 0, 80, 105
2, 247964, Note_off_c, 0, 80, 100
2, 247968, Note_on_c, 0, 77, 105
2, 248056, Control_c, 0, 64, 0
2, 248060, Note_off_c, 0, 77, 100
2, 248064, Control_c, 0, 64, 127
2, 248064, Note_on_c, 0, 84, 104
2, 248156, Note_off_c, 0, 84, 100
2, 248160, Note_on_c, 0, 80, 104
2, 248252, Note_off_c, 0, 80, 100
2, 248256, Note_on_c, 0, 77, 104
2, 248348, Note_off_c, 0, 77, 100
2, 248352, Note_on_c, 0, 72, 103
2, 248440, Control_c, 0, 64, 0
2, 248444, Note_off_c, 0, 72, 100
2, 248448, Control_c, 0, 64, 127
2, 248448, Note_on_c, 0, 80, 103
2, 248540, Note_off_c, 0, 80, 100
2, 248544, Note_on_c, 0, 77, 103
2, 248636, Note_off_c, 0, 77, 100
2, 248640, Note_on_c, 0, 72, 102
2, 248732, Note_off_c, 0, 72, 100
2, 248736, Note_on_c, 0, 68, 102
2, 248824, Control_c, 0, 64, 0
2, 248828, Note_off_c, 0, 68, 100
2, 248832, Control_c, 0, 64, 127
2, 248832, Note_on_c, 0, 77, 102
2, 248924, Note_off_c, 0, 77, 100
2, 248928, Note_on_c, 0, 72, 101
2, 249020, Note_off_c, 0, 72, 100
2, 249024, Note_on_c, 0, 68, 101
2, 249116, Note_off_c, 0, 68, 100
2, 249120, Note_on_c, 0, 65, 101
2, 249208, Control_c, 0, 64, 0
2, 249212, Note_off_c, 0, 65, 100
2, 249216, Control_c, 0, 64, 127
2, 249592, Control_c, 0, 64, 0
2, 249600, Control_c, 0, 64, 127
2, 249600, Note_on_c, 0, 77, 95
2, 249692, Note_off_c, 0, 77, 100
2, 249696, Note_on_c, 0, 76, 95
2, 249788, Note_off_c, 0, 76, 100
2, 249792, Note_on_c, 0, 77, 95
2, 249884, Note_off_c, 0, 77, 100
2, 249888, Note_on_c, 0, 74, 95
2, 249976, Control_c, 0, 64, 0
2, 249980, Note_off_c, 0, 74, 100
2, 249984, Control_c, 0, 64, 127
2, 249984, Note_on_c, 0, 83, 95
2, 250076, Note_off_c, 0, 83, 100
2, 250080, Note_on_c, 0, 82, 95
2, 250172, Note_off_c, 0, 82, 100
2, 250176, Note_on_c, 0, 83, 95
2, 250268, Note_off_c, 0, 83, 100
2, 250272, Note_on_c, 0, 77, 95
2, 250360, Control_c, 0, 64, 0
2, 250364, Note_off_c, 0, 77, 100
2, 250368, Control_c, 0, 64, 127
2, 250368, Note_on_c, 0, 86, 95
2, 250460, Note_off_c, 0, 86, 100
2, 250464, Note_on_c, 0, 85, 95
2, 250556, Note_off_c, 0, 85, 100
2, 250560, Note_on_c, 0, 86, 95
2, 250652, Note_off_c, 0, 86, 100
2, 250656, Note_on_c, 0, 83, 95
2, 250744, Control_c, 0, 64, 0
2, 250748, Note_off_c, 0, 83, 100
2, 250752, Control_c, 0, 64, 127
2, 250752, Note_on_c, 0, 89, 95
2, 250844, Note_off_c, 0, 89, 100
2, 250848, Note_on_c, 0, 86, 95
2, 250940, Note_off_c, 0, 86, 100
2, 250944, Note_on_c, 0, 83, 95
2, 251036, Note_off_c, 0, 83, 100
2, 251040, Note_on_c, 0, 77, 95
2, 251128, Control_c, 0, 64, 0
2, 251132, Note_off_c, 0, 77, 100
2, 251136, Control_c, 0, 64, 127
2, 251136, Note_on_c, 0, 86, 95
2, 251228, Note_off_c, 0, 86, 100
2, 251232, Note_on_c, 0, 83, 95
2, 251324, Note_off_c, 0, 83, 100
2, 251328, Note_on_c, 0, 77, 95
2, 251420, Note_off_c, 0, 77, 100
2, 251424, Note_on_c, 0, 74, 95
2, 251512, Control_c, 0, 64, 0
2, 251516, Note_off_c, 0, 74, 100
2, 251520, Control_c, 0, 64, 127
2, 251520, Note_on_c, 0, 83, 95
2, 251612, Note_off_c, 0, 83, 100
2, 251616, Note_on_c, 0, 77, 95
2, 251708, Note_off_c, 0, 77, 100
2, 251712, Note_on_c, 0, 74, 95
2, 251804, Note_off_c, 0, 74, 100
2, 251808, Note_on_c, 0, 71, 95
2, 251896, Control_c, 0, 64, 0
2, 251900, Note_off_c, 0, 71, 100
2, 251904, Control_c, 0, 64, 127
2, 251904, Note_on_c, 0, 77, 95
2, 251996, Note_off_c, 0, 77, 100
2, 252000, Note_on_c, 0, 74, 95
2, 252092, Note_off_c, 0, 74, 100
2, 252096, Note_on_c, 0, 71, 95
2, 252188, Note_off_c, 0, 71, 100
2, 252192, Note_on_c, 0, 65, 95
2, 252280, Control_c, 0, 64, 0
2, 252284, Note_off_c, 0, 65, 100
2, 252288, Control_c, 0, 64, 127
2, 252664, Control_c, 0, 64, 0
2, 252672, Control_c, 0, 64, 127
2, 252672, Note_on_c, 0, 75, 95
2, 252764, Note_off_c, 0, 75, 100
2, 252768, Note_on_c, 0, 74, 95
2, 252860, Note_off_c, 0, 74, 100
2, 252864, Note_on_c, 0, 75, 95
2, 252956, Note_off_c, 0, 75, 100
2, 252960, Note_on_c, 0, 72, 95
2, 253048, Control_c, 0, 64, 0
2, 253052, Note_off_c, 0, 72, 100
2, 253056, Control_c, 0, 64, 127
2, 253056, Note_on_c, 0, 79, 95
2, 253148, Note_off_c, 0, 79, 100
2, 253152, Note_on_c, 0, 78, 95
2, 253244, Note_off_c, 0, 78, 100
2, 253248, Note_on_c, 0, 79, 95
2, 253340, Note_off_c, 0, 79, 100
2, 253344, Note_on_c, 0, 75, 95
2, 253432, Control_c, 0, 64, 0
2, 253436, Note_off_c, 0, 75, 100
2, 253440, Control_c, 0, 64, 127
2, 253440, Note_on_c, 0, 84, 95
2, 253532, Note_off_c, 0, 84, 100
2, 253536, Note_on_c, 0, 83, 95
2, 253628, Note_off_c, 0, 83, 100
2, 253632, Note_on_c, 0, 84, 95
2, 253724, Note_off_c, 0, 84, 100
2, 253728, Note_on_c, 0, 79, 95
2, 253816, Control_c, 0, 64, 0
2, 253820, Note_off_c, 0, 79, 100
2, 253824, Control_c, 0, 64, 127
2, 253824, Note_on_c, 0, 87, 95
2, 253916, Note_off_c, 0, 87, 100
2, 253920, Note_on_c, 0, 84, 95
2, 254012, Note_off_c, 0, 84, 100
2, 254016, Note_on_c, 0, 81, 95
2, 254108, Note_off_c, 0, 81, 100
2, 254112, Note_on_c, 0, 75, 95
2, 254200, Control_c, 0, 64, 0
2, 254204, Note_off_c, 0, 75, 100
2, 254208, Control_c, 0, 64, 127
2, 254208, Note_on_c, 0, 84, 95
2, 254300, Note_off_c, 0, 84, 100
2, 254304, Note_on_c, 0, 81, 95
2, 254396, Note_off_c, 0, 81, 100
2, 254400, Note_on_c, 0, 75, 95
2, 254492, Note_off_c, 0, 75, 100
2, 254496, Note_on_c, 0, 72, 95
2, 254584, Control_c, 0, 64, 0
2, 254588, Note_off_c, 0, 72, 100
2, 254592, Control_c, 0, 64, 127
2, 254592, Note_on_c, 0, 81, 95
2, 254684, Note_off_c, 0, 81, 100
2, 254688, Note_on_c, 0, 75, 95
2, 254780, Note_off_c, 0, 75, 100
2, 254784, Note_on_c, 0, 72, 95
2, 254876, Note_off_c, 0, 72, 100
2, 254880, Note_on_c, 0, 69, 95
2, 254968, Control_c, 0, 64, 0
2, 254972, Note_off_c, 0, 69, 100
2, 254976, Control_c, 0, 64, 127
2, 254976, Note_on_c, 0, 75, 95
2, 255068, Note_off_c, 0, 75, 100
2, 255072, Note_on_c, 0, 72, 95
2, 255164, Note_off_c, 0, 72, 100
2, 255168, Note_on_c, 0, 69, 95
2, 255260, Note_off_c, 0, 69, 100
2, 255264, Note_on_c, 0, 63, 95
2, 255352, Control_c, 0, 64, 0
2, 255356, Note_off_c, 0, 63, 100
2, 255360, Control_c, 0, 64, 127
2, 255736, Control_c, 0, 64, 0
2, 255744, Control_c, 0, 64, 127
2, 255744, Note_on_c, 0, 75, 95
2, 255836, Note_off_c, 0, 75, 100
2, 255840, Note_on_c, 0, 74, 95
2, 255932, Note_off_c, 0, 74, 100
2, 255936, Note_on_c, 0, 75, 95
2, 256028, Note_off_c, 0, 75, 100
2, 256032, Note_on_c, 0, 72, 95
2, 256120, Control_c, 0, 64, 0
2, 256124, Note_off_c, 0, 72, 100
2, 256128, Control_c, 0, 64, 127
2, 256128, Note_on_c, 0, 81, 95
2, 256220, Note_off_c, 0, 81, 100
2, 256224, Note_on_c, 0, 80, 95
2, 256316, Note_off_c, 0, 80, 100
2, 256320, Note_on_c, 0, 81, 95
2, 256412, Note_off_c, 0, 81, 100
2, 256416, Note_on_c, 0, 75, 95
2, 256504, Control_c, 0, 64, 0
2, 256508, Note_off_c, 0, 75, 100
2, 256512, Control_c, 0, 64, 127
2, 256512, Note_on_c, 0, 84, 95
2, 256604, Note_off_c, 0, 84, 100
2, 256608, Note_on_c, 0, 83, 95
2, 256700, Note_off_c, 0, 83, 100
2, 256704, Note_on_c, 0, 84, 95
2, 256796, Note_off_c, 0, 84, 100
2, 256800, Note_on_c, 0, 81, 95
2, 256888, Control_c, 0, 64, 0
2, 256892, Note_off_c, 0, 81, 100
2, 256896, Control_c, 0, 64, 127
2, 256896, Note_on_c, 0, 87, 95
2, 256988, Note_off_c, 0, 87, 100
2, 256992, Note_on_c, 0, 84, 95
2, 257084, Note_off_c, 0, 84, 100
2, 257088, Note_on_c, 0, 81, 95
2, 257180, Note_off_c, 0, 81, 100
2, 257184, Note_on_c, 0, 75, 95
2, 257272, Control_c, 0, 64, 0
2, 257276, Note_off_c, 0, 75, 100
2, 257280, Control_c, 0, 64, 127
2, 257280, Note_on_c, 0, 84, 95
2, 257372, Note_off_c, 0, 84, 100
2, 257376, Note_on_c, 0, 81, 95
2, 257468, Note_off_c, 0, 81, 100
2, 257472, Note_on_c, 0, 75, 95
2, 257564, Note_off_c, 0, 75, 100
2, 257568, Note_on_c, 0, 72, 95
2, 257656, Control_c, 0, 64, 0
2, 257660, Note_off_c, 0, 72, 100
2, 257664, Control_c, 0, 64, 127
2, 257664, Note_on_c, 0, 81, 95
2, 257756, Note_off_c, 0, 81, 100
2, 257760, Note_on_c, 0, 75, 95
2, 257852, Note_off_c, 0, 75, 100
2, 257856, Note_on_c, 0, 72, 95
2, 257948, Note_off_c, 0, 72, 100
2, 257952, Note_on_c, 0, 69, 95
2, 258040, Control_c, 0, 64, 0
2, 258044, Note_off_c, 0, 69, 100
2, 258048, Control_c, 0, 64, 127
2, 258048, Note_on_c, 0, 75, 95
2, 258140, Note_off_c, 0, 75, 100
2, 258144, Note_on_c, 0, 72, 95
2, 258236, Note_off_c, 0, 72, 100
2, 258240, Note_on_c, 0, 69, 95
2, 258332, Note_off_c, 0, 69, 100
2, 258336, Note_on_c, 0, 63, 95
2, 258424, Control_c, 0, 64, 0
2, 258428, Note_off_c, 0, 63, 100
2, 258432, Control_c, 0, 64, 127
2, 258808, Control_c, 0, 64, 0
2, 258816, Control_c, 0, 64, 127
2, 258816, Note_on_c, 0, 73, 80
2, 258908, Note_off_c, 0, 73, 100
2, 258912, Note_on_c, 0, 72, 80
2, 259004, Note_off_c, 0, 72, 100
2, 259008, Note_on_c, 0, 73, 80
2, 259100, Note_off_c, 0, 73, 100
2, 259104, Note_on_c, 0, 70, 80
2, 259192, Control_c, 0, 64, 0
2, 259196, Note_off_c, 0, 70, 100
2, 259200, Control_c, 0, 64, 127
2, 259200, Note_on_c, 0, 77, 80
2, 259292, Note_off_c, 0, 77, 100
2, 259296, Note_on_c, 0, 76, 80
2, 259388, Note_off_c, 0, 76, 100
2, 259392, Note_on_c, 0, 77, 80
2, 259484, Note_off_c, 0, 77, 100
2, 259488, Note_on_c, 0, 73, 80
2, 259576, Control_c, 0, 64, 0
2, 259580, Note_off_c, 0, 73, 100
2, 259584, Control_c, 0, 64, 127
2, 259584, Note_on_c, 0, 82, 80
2, 259676, Note_off_c, 0, 82, 100
2, 259680, Note_on_c, 0, 81, 80
2, 259772, Note_off_c, 0, 81, 100
2, 259776, Note_on_c, 0, 82, 80
2, 259868, Note_off_c, 0, 82, 100
2, 259872, Note_on_c, 0, 77, 80
2, 259960, Control_c, 0, 64, 0
2, 259964, Note_off_c, 0, 77, 100
2, 259968, Control_c, 0, 64, 127
2, 259968, Note_on_c, 0, 85, 80
2, 260060, Note_off_c, 0, 85, 100
2, 260064, Note_on_c, 0, 82, 80
2, 260156, Note_off_c, 0, 82, 100
2, 260160, Note_on_c, 0, 79, 80
2, 260252, Note_off_c, 0, 79, 100
2, 260256, Note_on_c, 0, 73, 80
2, 260344, Control_c, 0, 64, 0
2, 260348, Note_off_c, 0, 73, 100
2, 260352, Control_c, 0, 64, 127
2, 260352, Note_on_c, 0, 82, 80
2, 260444, Note_off_c, 0, 82, 100
2, 260448, Note_on_c, 0, 79, 80
2, 260540, Note_off_c, 0, 79, 100
2, 260544, Note_on_c, 0, 73, 80
2, 260636, Note_off_c, 0, 73, 100
2, 260640, Note_on_c, 0, 70, 80
2, 260728, Control_c, 0, 64, 0
2, 260732, Note_off_c, 0, 70, 100
2, 260736, Control_c, 0, 64, 127
2, 260736, Note_on_c, 0, 79, 80
2, 260828, Note_off_c, 0, 79, 100
2, 260832, Note_on_c, 0, 73, 80
2, 260924, Note_off_c, 0, 73, 100
2, 260928, Note_on_c, 0, 70, 80
2, 261020, Note_off_c, 0, 70, 100
2, 261024, Note_on_c, 0, 67, 80
2, 261112, Control_c, 0, 64, 0
2, 261116, Note_off_c, 0, 67, 100
2, 261120, Control_c, 0, 64, 127
2, 261120, Note_on_c, 0, 73, 80
2, 261212, Note_off_c, 0, 73, 100
2, 261216, Note_on_c, 0, 70, 80
2, 261308, Note_off_c, 0, 70, 100
2, 261312, Note_on_c, 0, 67, 80
2, 261404, Note_off_c, 0, 67, 100
2, 261408, Note_on_c, 0, 61, 80
2, 261496, Control_c, 0, 64, 0
2, 261500, Note_off_c, 0, 61, 100
2, 261504, Control_c, 0, 64, 127
2, 261880, Control_c, 0, 64, 0
2, 261888, Control_c, 0, 64, 127
2, 261888, Note_on_c, 0, 73, 80
2, 261980, Note_off_c, 0, 73, 100
2, 261984, Note_on_c, 0, 72, 80
2, 262076, Note_off_c, 0, 72, 100
2, 262080, Note_on_c, 0, 73, 80
2, 262172, Note_off_c, 0, 73, 100
2, 262176, Note_on_c, 0, 70, 80
2, 262264, Control_c, 0, 64, 0
2, 262268, Note_off_c, 0, 70, 100
2, 262272, Control_c, 0, 64, 127
2, 262272, Note_on_c, 0, 79, 80
2, 262364, Note_off_c, 0, 79, 100
2, 262368, Note_on_c, 0, 78, 80
2, 262460, Note_off_c, 0, 78, 100
2, 262464, Note_on_c, 0, 79, 80
2, 262556, Note_off_c, 0, 79, 100
2, 262560, Note_on_c, 0, 73, 80
2, 262648, Control_c, 0, 64, 0
2, 262652, Note_off_c, 0, 73, 100
2, 262656, Control_c, 0, 64, 127
2, 262656, Note_on_c, 0, 82, 80
2, 262748, Note_off_c, 0, 82, 100
2, 262752, Note_on_c, 0, 81, 80
2, 262844, Note_off_c, 0, 81, 100
2, 262848, Note_on_c, 0, 82, 80
2, 262940, Note_off_c, 0, 82, 100
2, 262944, Note_on_c, 0, 79, 80
2, 263032, Control_c, 0, 64, 0
2, 263036, Note_off_c, 0, 79, 100
2, 263040, Control_c, 0, 64, 127
2, 263040, Note_on_c, 0, 85, 80
2, 263132, Note_off_c, 0, 85, 100
2, 263136, Note_on_c, 0, 82, 80
2, 263228, Note_off_c, 0, 82, 100
2, 263232, Note_on_c, 0, 79, 80
2, 263324, Note_off_c, 0, 79, 100
2, 263328, Note_on_c, 0, 73, 80
2, 263416, Control_c, 0, 64, 0
2, 263420, Note_off_c, 0, 73, 100
2, 263424, Control_c, 0, 64, 127
2, 263424, Note_on_c, 0, 82, 80
2, 263516, Note_off_c, 0, 82, 100
2, 263520, Note_on_c, 0, 79, 80
2, 263612, Note_off_c, 0, 79, 100
2, 263616, Note_on_c, 0, 73, 80
2, 263708, Note_off_c, 0, 73, 100
2, 263712, Note_on_c, 0, 70, 80
2, 263800, Control_c, 0, 64, 0
2, 263804, Note_off_c, 0, 70, 100
2, 263808, Control_c, 0, 64, 127
2, 263808, Note_on_c, 0, 79, 80
2, 263900, Note_off_c, 0, 79, 100
2, 263904, Note_on_c, 0, 73, 80
2, 263996, Note_off_c, 0, 73, 100
2, 264000, Note_on_c, 0, 70, 80
2, 264092, Note_off_c, 0, 70, 100
2, 264096, Note_on_c, 0, 67, 80
2, 264184, Control_c, 0, 64, 0
2, 264188, Note_off_c, 0, 67, 100
2, 264192, Control_c, 0, 64, 127
2, 264192, Note_on_c, 0, 73, 80
2, 264284, Note_off_c, 0, 73, 100
2, 264288, Note_on_c, 0, 70, 80
2, 264380, Note_off_c, 0, 70, 100
2, 264384, Note_on_c, 0, 67, 80
2, 264476, Note_off_c, 0, 67, 100
2, 264480, Note_on_c, 0, 61, 80
2, 264568, Control_c, 0, 64, 0
2, 264572, Note_off_c, 0, 61, 100
2, 264576, Control_c, 0, 64, 127
2, 264576, Note_on_c, 0, 70, 80
2, 264668, Note_off_c, 0, 70, 100
2, 264672, Note_on_c, 0, 67, 80
2, 264764, Note_off_c, 0, 67, 100
2, 264768, Note_on_c, 0, 61, 80
2, 264860, Note_off_c, 0, 61, 100
2, 264864, Note_on_c, 0, 58, 80
2, 264952, Control_c, 0, 64, 0
2, 264956, Note_off_c, 0, 58, 100
2, 264960, Control_c, 0, 64, 127
2, 264960, Note_on_c, 0, 67, 80
2, 265052, Note_off_c, 0, 67, 100
2, 265056, Note_on_c, 0, 61, 80
2, 265148, Note_off_c, 0, 61, 100
2, 265152, Note_on_c, 0, 58, 80
2, 265244, Note_off_c, 0, 58, 100
2, 265248, Note_on_c, 0, 55, 80
2, 265336, Control_c, 0, 64, 0
2, 265340, Note_off_c, 0, 55, 100
2, 265344, Control_c, 0, 64, 127
2, 265344, Note_on_c, 0, 63, 80
2, 265436, Note_off_c, 0, 63, 100
2, 265440, Note_on_c, 0, 61, 80
2, 265532, Note_off_c, 0, 61, 100
2, 265536, Note_on_c, 0, 58, 80
2, 265628, Note_off_c, 0, 58, 100
2, 265632, Note_on_c, 0, 55, 80
2, 265720, Control_c, 0, 64, 0
2, 265724, Note_off_c, 0, 55, 100
2, 265728, Control_c, 0, 64, 127
2, 265728, Note_on_c, 0, 63, 80
2, 265820, Note_off_c, 0, 63, 100
2, 265824, Note_on_c, 0, 61, 80
2, 265916, Note_off_c, 0, 61, 100
2, 265920, Note_on_c, 0, 58, 80
2, 266012, Note_off_c, 0, 58, 100
2, 266016, Note_on_c, 0, 55, 80
2, 266104, Control_c, 0, 64, 0
2, 266108, Note_off_c, 0, 55, 100
2, 266112, Control_c, 0, 64, 127
2, 266112, Note_on_c, 0, 63, 80
2, 266204, Note_off_c, 0, 63, 100
2, 266208, Note_on_c, 0, 61, 80
2, 266300, Note_off_c, 0, 61, 100
2, 266304, Note_on_c, 0, 58, 80
2, 266396, Note_off_c, 0, 58, 100
2, 266400, Note_on_c, 0, 55, 80
2, 266488, Control_c, 0, 64, 0
2, 266492, Note_off_c, 0, 55, 100
2, 266496, Control_c, 0, 64, 127
2, 266496, Note_on_c, 0, 63, 80
2, 266588, Note_off_c, 0, 63, 100
2, 266592, Note_on_c, 0, 61, 80
2, 266684, Note_off_c, 0, 61, 100
2, 266688, Note_on_c, 0, 58, 80
2, 266780, Note_off_c, 0, 58, 100
2, 266784, Note_on_c, 0, 55, 80
2, 266872, Control_c, 0, 64, 0
2, 266876, Note_off_c, 0, 55, 100
2, 266880, Control_c, 0, 64, 127
2, 266880, Note_on_c, 0, 63, 80
2, 266972, Note_off_c, 0, 63, 100
2, 266976, Note_on_c, 0, 61, 80
2, 267068, Note_off_c, 0, 61, 100
2, 267072, Note_on_c, 0, 58, 80
2, 267164, Note_off_c, 0, 58, 100
2, 267168, Note_on_c, 0, 55, 80
2, 267256, Control_c, 0, 64, 0
2, 267260, Note_off_c, 0, 55, 100
2, 267264, Control_c, 0, 64, 127
2, 267264, Note_on_c, 0, 63, 80
2, 267356, Note_off_c, 0, 63, 100
2, 267360, Note_on_c, 0, 61, 80
2, 267452, Note_off_c, 0, 61, 100
2, 267456, Note_on_c, 0, 58, 80
2, 267548, Note_off_c, 0, 58, 100
2, 267552, Note_on_c, 0, 55, 79
2, 267640, Control_c, 0, 64, 0
2, 267644, Note_off_c, 0, 55, 100
2, 267648, Control_c, 0, 64, 127
2, 267648, Note_on_c, 0, 63, 79
2, 267740, Note_off_c, 0, 63, 100
2, 267744, Note_on_c, 0, 61, 79
2, 267836, Note_off_c, 0, 61, 100
2, 267840, Note_on_c, 0, 58, 79
2, 267932, Note_off_c, 0, 58, 100
2, 267936, Note_on_c, 0, 55, 79
2, 268024, Control_c, 0, 64, 0
2, 268028, Note_off_c, 0, 55, 100
2, 268032, Control_c, 0, 64, 127
2, 268032, Note_on_c, 0, 63, 79
2, 268124, Note_off_c, 0, 63, 100
2, 268128, Note_on_c, 0, 61, 79
2, 268220, Note_off_c, 0, 61, 100
2, 268224, Note_on_c, 0, 58, 79
2, 268316, Note_off_c, 0, 58, 100
2, 268320, Note_on_c, 0, 55, 79
2, 268408, Control_c, 0, 64, 0
2, 268412, Note_off_c, 0, 55, 100
2, 268416, Control_c, 0, 64, 127
2, 268416, Note_on_c, 0, 63, 79
2, 268508, Note_off_c, 0, 63, 100
2, 268512, Note_on_c, 0, 61, 79
2, 268604, Note_off_c, 0, 61, 100
2, 268608, Note_on_c, 0, 58, 79
2, 268700, Note_off_c, 0, 58, 100
2, 268704, Note_on_c, 0, 55, 79
2, 268792, Control_c, 0, 64, 0
2, 268796, Note_off_c, 0, 55, 100
2, 268800, Control_c, 0, 64, 127
2, 268800, Note_on_c, 0, 63, 79
2, 268892, Note_off_c, 0, 63, 100
2, 268896, Note_on_c, 0, 61, 79
2, 268988, Note_off_c, 0, 61, 100
2, 268992, Note_on_c, 0, 58, 79
2, 269084, Note_off_c, 0, 58, 100
2, 269088, Note_on_c, 0, 55, 79
2, 269176, Control_c, 0, 64, 0
2, 269180, Note_off_c, 0, 55, 100
2, 269184, Control_c, 0, 64, 127
2, 269184, Note_on_c, 0, 63, 79
2, 269276, Note_off_c, 0, 63, 100
2, 269280, Note_on_c, 0, 61, 79
2, 269372, Note_off_c, 0, 61, 100
2, 269376, Note_on_c, 0, 58, 79
2, 269468, Note_off_c, 0, 58, 100
2, 269472, Note_on_c, 0, 55, 79
2, 269560, Control_c, 0, 64, 0
2, 269564, Note_off_c, 0, 55, 100
2, 269568, Control_c, 0, 64, 127
2, 269568, Note_on_c, 0, 63, 79
2, 269660, Note_off_c, 0, 63, 100
2, 269664, Note_on_c, 0, 61, 79
2, 269756, Note_off_c, 0, 61, 100
2, 269760, Note_on_c, 0, 58, 79
2, 269852, Note_off_c, 0, 58, 100
2, 269856, Note_on_c, 0, 55, 79
2, 269944, Control_c, 0, 64, 0
2, 269948, Note_off_c, 0, 55, 100
2, 269952, Control_c, 0, 64, 127
2, 269952, Note_on_c, 0, 63, 79
2, 270044, Note_off_c, 0, 63, 100
2, 270048, Note_on_c, 0, 61, 79
2, 270140, Note_off_c, 0, 61, 100
2, 270144, Note_on_c, 0, 58, 79
2, 270236, Note_off_c, 0, 58, 100
2, 270240, Note_on_c, 0, 55, 79
2, 270328, Control_c, 0, 64, 0
2, 270332, Note_off_c, 0, 55, 100
2, 270336, Control_c, 0, 64, 127
2, 270336, Note_on_c, 0, 63, 79
2, 270428, Note_off_c, 0, 63, 100
2, 270432, Note_on_c, 0, 61, 78
2, 270524, Note_off_c, 0, 61, 100
2, 270528, Note_on_c, 0, 58, 78
2, 270620, Note_off_c, 0, 58, 100
2, 270624, Note_on_c, 0, 55, 78
2, 270712, Control_c, 0, 64, 0
2, 270716, Note_off_c, 0, 55, 100
2, 270720, Control_c, 0, 64, 127
2, 270720, Note_on_c, 0, 64, 78
2, 270812, Note_off_c, 0, 64, 100
2, 270816, Note_on_c, 0, 61, 78
2, 270908, Note_off_c, 0, 61, 100
2, 270912, Note_on_c, 0, 58, 78
2, 271004, Note_off_c, 0, 58, 100
2, 271008, Note_on_c, 0, 55, 78
2, 271096, Control_c, 0, 64, 0
2, 271100, Note_off_c, 0, 55, 100
2, 271104, Control_c, 0, 64, 127
2, 271104, Note_on_c, 0, 64, 78
2, 271196, Note_off_c, 0, 64, 100
2, 271200, Note_on_c, 0, 61, 78
2, 271292, Note_off_c, 0, 61, 100
2, 271296, Note_on_c, 0, 58, 78
2, 271388, Note_off_c, 0, 58, 100
2, 271392, Note_on_c, 0, 55, 78
2, 271480, Control_c, 0, 64, 0
2, 271484, Note_off_c, 0, 55, 100
2, 271488, Control_c, 0, 64, 127
2, 271488, Note_on_c, 0, 64, 78
2, 271580, Note_off_c, 0, 64, 100
2, 271584, Note_on_c, 0, 61, 78
2, 271676, Note_off_c, 0, 61, 100
2, 271680, Note_on_c, 0, 58, 78
2, 271772, Note_off_c, 0, 58, 100
2, 271776, Note_on_c, 0, 55, 78
2, 271864, Control_c, 0, 64, 0
2, 271868, Note_off_c, 0, 55, 100
2, 271872, Control_c, 0, 64, 127
2, 271872, Note_on_c, 0, 64, 78
2, 271964, Note_off_c, 0, 64, 100
2, 271968, Note_on_c, 0, 61, 78
2, 272060, Note_off_c, 0, 61, 100
2, 272064, Note_on_c, 0, 58, 78
2, 272156, Note_off_c, 0, 58, 100
2, 272160, Note_on_c, 0, 55, 78
2, 272248, Control_c, 0, 64, 0
2, 272252, Note_off_c, 0, 55, 100
2, 272256, Control_c, 0, 64, 127
2, 272256, Note_on_c, 0, 64, 78
2, 272348, Note_off_c, 0, 64, 100
2, 272352, Note_on_c, 0, 61, 78
2, 272444, Note_off_c, 0, 61, 100
2, 272448, Note_on_c, 0, 58, 78
2, 272540, Note_off_c, 0, 58, 100
2, 272544, Note_on_c, 0, 55, 78
2, 272632, Control_c, 0, 64, 0
2, 272636, Note_off_c, 0, 55, 100
2, 272640, Control_c, 0, 64, 127
2, 272640, Note_on_c, 0, 64, 78
2, 272732, Note_off_c, 0, 64, 100
2, 272736, Note_on_c, 0, 61, 78
2, 272828, Note_off_c, 0, 61, 100
2, 272832, Note_on_c, 0, 58, 78
2, 272924, Note_off_c, 0, 58, 100
2, 272928, Note_on_c, 0, 55, 78
2, 273016, Control_c, 0, 64, 0
2, 273020, Note_off_c, 0, 55, 100
2, 273024, Control_c, 0, 64, 127
2, 273024, Note_on_c, 0, 64, 78
2, 273116, Note_off_c, 0, 64, 100
2, 273120, Note_on_c, 0, 61, 78
2, 273212, Note_off_c, 0, 61, 100
2, 273216, Note_on_c, 0, 58, 78
2, 273308, Note_off_c, 0, 58, 100
2, 273312, Note_on_c, 0, 55, 78
2, 273400, Control_c, 0, 64, 0
2, 273404, Note_off_c, 0, 55, 100
2, 273408, Control_c, 0, 64, 127
2, 273408, Note_on_c, 0, 64, 77
2, 273500, Note_off_c, 0, 64, 100
2, 273504, Note_on_c, 0, 61, 77
2, 273596, Note_off_c, 0, 61, 100
2, 273600, Note_on_c, 0, 58, 77
2, 273692, Note_off_c, 0, 58, 100
2, 273696, Note_on_c, 0, 55, 77
2, 273784, Control_c, 0, 64, 0
2, 273788, Note_off_c, 0, 55, 100
2, 273792, Control_c, 0, 64, 127
2, 273792, Note_on_c, 0, 64, 77
2, 273884, Note_off_c, 0, 64, 100
2, 273888, Note_on_c, 0, 61, 77
2, 273980, Note_off_c, 0, 61, 100
2, 273984, Note_on_c, 0, 58, 77
2, 274076, Note_off_c, 0, 58, 100
2, 274080, Note_on_c, 0, 55, 77
2, 274168, Control_c, 0, 64, 0
2, 274172, Note_off_c, 0, 55, 100
2, 274176, Control_c, 0, 64, 127
2, 274176, Note_on_c, 0, 64, 77
2, 274268, Note_off_c, 0, 64, 100
2, 274272, Note_on_c, 0, 61, 77
2, 274364, Note_off_c, 0, 61, 100
2, 274368, Note_on_c, 0, 58, 77
2, 274460, Note_off_c, 0, 58, 100
2, 274464, Note_on_c, 0, 55, 77
2, 274552, Control_c, 0, 64, 0
2, 274556, Note_off_c, 0, 55, 100
2, 274560, Control_c, 0, 64, 127
2, 274560, Note_on_c, 0, 64, 77
2, 274652, Note_off_c, 0, 64, 100
2, 274656, Note_on_c, 0, 61, 77
2, 274748, Note_off_c, 0, 61, 100
2, 274752, Note_on_c, 0, 58, 77
2, 274844, Note_off_c, 0, 58, 100
2, 274848, Note_on_c, 0, 55, 77
2, 274936, Control_c, 0, 64, 0
2, 274940, Note_off_c, 0, 55, 100
2, 274944, Control_c, 0, 64, 127
2, 274944, Note_on_c, 0, 64, 77
2, 275036, Note_off_c, 0, 64, 100
2, 275040, Note_on_c, 0, 61, 77
2, 275132, Note_off_c, 0, 61, 100
2, 275136, Note_on_c, 0, 58, 77
2, 275228, Note_off_c, 0, 58, 100
2, 275232, Note_on_c, 0, 55, 77
2, 275320, Control_c, 0, 64, 0
2, 275324, Note_off_c, 0, 55, 100
2, 275328, Control_c, 0, 64, 127
2, 275328, Note_on_c, 0, 64, 77
2, 275420, Note_off_c, 0, 64, 100
2, 275424, Note_on_c, 0, 61, 77
2, 275516, Note_off_c, 0, 61, 100
2, 275520, Note_on_c, 0, 58, 77
2, 275612, Note_off_c, 0, 58, 100
2, 275616, Note_on_c, 0, 55, 77
2, 275704, Control_c, 0, 64, 0
2, 275708, Note_off_c, 0, 55, 100
2, 275712, Control_c, 0, 64, 127
2, 275712, Note_on_c, 0, 64, 77
2, 275804, Note_off_c, 0, 64, 100
2, 275808, Note_on_c, 0, 61, 77
2, 275900, Note_off_c, 0, 61, 100
2, 275904, Note_on_c, 0, 58, 77
2, 275996, Note_off_c, 0, 58, 100
2, 276000, Note_on_c, 0, 55, 77
2, 276088, Control_c, 0, 64, 0
2, 276092, Note_off_c, 0, 55, 100
2, 276096, Control_c, 0, 64, 127
2, 276096, Note_on_c, 0, 64, 77
2, 276188, Note_off_c, 0, 64, 100
2, 276192, Note_on_c, 0, 60, 77
2, 276284, Note_off_c, 0, 60, 100
2, 276288, Note_on_c, 0, 58, 76
2, 276380, Note_off_c, 0, 58, 100
2, 276384, Note_on_c, 0, 55, 76
2, 276472, Control_c, 0, 64, 0
2, 276476, Note_off_c, 0, 55, 100
2, 276480, Control_c, 0, 64, 127
2, 276480, Note_on_c, 0, 64, 76
2, 276572, Note_off_c, 0, 64, 100
2, 276576, Note_on_c, 0, 60, 76
2, 276668, Note_off_c, 0, 60, 100
2, 276672, Note_on_c, 0, 58, 76
2, 276764, Note_off_c, 0, 58, 100
2, 276768, Note_on_c, 0, 55, 76
2, 276856, Control_c, 0, 64, 0
2, 276860, Note_off_c, 0, 55, 100
2, 276864, Control_c, 0, 64, 127
2, 276864, Note_on_c, 0, 63, 76
2, 276956, Note_off_c, 0, 63, 100
2, 276960, Note_on_c, 0, 60, 76
2, 277052, Note_off_c, 0, 60, 100
2, 277056, Note_on_c, 0, 57, 76
2, 277148, Note_off_c, 0, 57, 100
2, 277152, Note_on_c, 0, 54, 76
2, 277240, Control_c, 0, 64, 0
2, 277244, Note_off_c, 0, 54, 100
2, 277248, Control_c, 0, 64, 127
2, 277248, Note_on_c, 0, 63, 76
2, 277340, Note_off_c, 0, 63, 100
2, 277344, Note_on_c, 0, 60, 76
2, 277436, Note_off_c, 0, 60, 100
2, 277440, Note_on_c, 0, 57, 76
2, 277532, Note_off_c, 0, 57, 100
2, 277536, Note_on_c, 0, 54, 76
2, 277624, Control_c, 0, 64, 0
2, 277628, Note_off_c, 0, 54, 100
2, 277632, Control_c, 0, 64, 127
2, 277632, Note_on_c, 0, 63, 76
2, 277724, Note_off_c, 0, 63, 100
2, 277728, Note_on_c, 0, 60, 76
2, 277820, Note_off_c, 0, 60, 100
2, 277824, Note_on_c, 0, 57, 76
2, 277916, Note_off_c, 0, 57, 100
2, 277920, Note_on_c, 0, 54, 76
2, 278008, Control_c, 0, 64, 0
2, 278012, Note_off_c, 0, 54, 100
2, 278016, Control_c, 0, 64, 127
2, 278016, Note_on_c, 0, 63, 76
2, 278108, Note_off_c, 0, 63, 100
2, 278112, Note_on_c, 0, 60, 76
2, 278204, Note_off_c, 0, 60, 100
2, 278208, Note_on_c, 0, 57, 76
2, 278300, Note_off_c, 0, 57, 100
2, 278304, Note_on_c, 0, 54, 76
2, 278392, Control_c, 0, 64, 0
2, 278396, Note_off_c, 0, 54, 100
2, 278400, Control_c, 0, 64, 127
2, 278400, Control_c, 0, 64, 127
2, 278400, Note_on_c, 0, 63, 76
2, 278492, Note_off_c, 0, 63, 100
2, 278496, Note_on_c, 0, 60, 76
2, 278588, Note_off_c, 0, 60, 100
2, 278592, Note_on_c, 0, 57, 76
2, 278684, Note_off_c, 0, 57, 100
2, 278688, Note_on_c, 0, 54, 76
2, 278776, Control_c, 0, 64, 0
2, 278776, Control_c, 0, 64, 0
2, 278780, Note_off_c, 0, 54, 100
2, 278784, Control_c, 0, 64, 127
2, 278784, Control_c, 0, 64, 127
2, 278784, Note_on_c, 0, 63, 76
2, 278876, Note_off_c, 0, 63, 100
2, 278880, Note_on_c, 0, 60, 76
2, 278972, Note_off_c, 0, 60, 100
2, 278976, Note_on_c, 0, 57, 76
2, 279068, Note_off_c, 0, 57, 100
2, 279072, Note_on_c, 0, 54, 76
2, 279160, Control_c, 0, 64, 0
2, 279160, Control_c, 0, 64, 0
2, 279164, Note_off_c, 0, 54, 100
2, 279168, Control_c, 0, 64, 127
2, 279168, Control_c, 0, 64, 127
2, 279168, Note_on_c, 0, 63, 75
2, 279260, Note_off_c, 0, 63, 100
2, 279264, Note_on_c, 0, 60, 75
2, 279356, Note_off_c, 0, 60, 100
2, 279360, Note_on_c, 0, 57, 75
2, 279452, Note_off_c, 0, 57, 100
2, 279456, Note_on_c, 0, 54, 75
2, 279544, Control_c, 0, 64, 0
2, 279544, Control_c, 0, 64, 0
2, 279548, Note_off_c, 0, 54, 100
2, 279552, Control_c, 0, 64, 127
2, 279552, Control_c, 0, 64, 127
2, 279552, Note_on_c, 0, 63, 75
2, 279644, Note_off_c, 0, 63, 100
2, 279648, Note_on_c, 0, 60, 75
2, 279740, Note_off_c, 0, 60, 100
2, 279744, Note_on_c, 0, 57, 75
2, 279836, Note_off_c, 0, 57, 100
2, 279840, Note_on_c, 0, 54, 75
2, 279928, Control_c, 0, 64, 0
2, 279928, Control_c, 0, 64, 0
2, 279932, Note_off_c, 0, 54, 100
2, 279936, Control_c, 0, 64, 127
2, 279936, Note_on_c, 0, 63, 75
2, 280028, Note_off_c, 0, 63, 100
2, 280032, Note_on_c, 0, 60, 75
2, 280124, Note_off_c, 0, 60, 100
2, 280128, Note_on_c, 0, 57, 75
2, 280220, Note_off_c, 0, 57, 100
2, 280224, Note_on_c, 0, 54, 75
2, 280312, Control_c, 0, 64, 0
2, 280316, Note_off_c, 0, 54, 100
2, 280320, Control_c, 0, 64, 127
2, 280320, Note_on_c, 0, 63, 75
2, 280412, Note_off_c, 0, 63, 100
2, 280416, Note_on_c, 0, 60, 75
2, 280508, Note_off_c, 0, 60, 100
2, 280512, Note_on_c, 0, 57, 75
2, 280604, Note_off_c, 0, 57, 100
2, 280608, Note_on_c, 0, 54, 75
2, 280696, Control_c, 0, 64, 0
2, 280700, Note_off_c, 0, 54, 100
2, 280704, Control_c, 0, 64, 127
2, 280704, Note_on_c, 0, 63, 75
2, 280796, Note_off_c, 0, 63, 100
2, 280800, Note_on_c, 0, 60, 75
2, 280892, Note_off_c, 0, 60, 100
2, 280896, Note_on_c, 0, 57, 75
2, 280988, Note_off_c, 0, 57, 100
2, 280992, Note_on_c, 0, 54, 75
2, 281080, Control_c, 0, 64, 0
2, 281084, Note_off_c, 0, 54, 100
2, 281088, Control_c, 0, 64, 127
2, 281088, Note_on_c, 0, 63, 75
2, 281180, Note_off_c, 0, 63, 100
2, 281184, Note_on_c, 0, 60, 75
2, 281276, Note_off_c, 0, 60, 100
2, 281280, Note_on_c, 0, 57, 75
2, 281372, Note_off_c, 0, 57, 100
2, 281376, Note_on_c, 0, 54, 75
2, 281464, Control_c, 0, 64, 0
2, 281468, Note_off_c, 0, 54, 100
2, 281472, Control_c, 0, 64, 127
2, 281472, Note_on_c, 0, 63, 75
2, 281564, Note_off_c, 0, 63, 100
2, 281568, Note_on_c, 0, 60, 75
2, 281660, Note_off_c, 0, 60, 100
2, 281664, Note_on_c, 0, 57, 75
2, 281756, Note_off_c, 0, 57, 100
2, 281760, Note_on_c, 0, 54, 75
2, 281848, Control_c, 0, 64, 0
2, 281852, Note_off_c, 0, 54, 100
2, 281856, Control_c, 0, 64, 127
2, 281856, Note_on_c, 0, 63, 75
2, 281948, Note_off_c, 0, 63, 100
2, 281952, Note_on_c, 0, 60, 75
2, 282044, Note_off_c, 0, 60, 100
2, 282048, Note_on_c, 0, 57, 75
2, 282140, Note_off_c, 0, 57, 100
2, 282144, Note_on_c, 0, 54, 74
2, 282232, Control_c, 0, 64, 0
2, 282236, Note_off_c, 0, 54, 100
2, 282240, Control_c, 0, 64, 127
2, 282240, Note_on_c, 0, 63, 74
2, 282332, Note_off_c, 0, 63, 100
2, 282336, Note_on_c, 0, 60, 74
2, 282428, Note_off_c, 0, 60, 100
2, 282432, Note_on_c, 0, 57, 74
2, 282524, Note_off_c, 0, 57, 100
2, 282528, Note_on_c, 0, 53, 74
2, 282616, Control_c, 0, 64, 0
2, 282620, Note_off_c, 0, 53, 100
2, 282624, Control_c, 0, 64, 127
2, 282624, Note_on_c, 0, 63, 74
2, 282716, Note_off_c, 0, 63, 100
2, 282720, Note_on_c, 0, 60, 74
2, 282812, Note_off_c, 0, 60, 100
2, 282816, Note_on_c, 0, 57, 74
2, 282908, Note_off_c, 0, 57, 100
2, 282912, Note_on_c, 0, 53, 74
2, 283000, Control_c, 0, 64, 0
2, 283004, Note_off_c, 0, 53, 100
2, 283008, Control_c, 0, 64, 127
2, 283008, Note_on_c, 0, 63, 74
2, 283100, Note_off_c, 0, 63, 100
2, 283104, Note_on_c, 0, 60, 74
2, 283196, Note_off_c, 0, 60, 100
2, 283200, Note_on_c, 0, 57, 74
2, 283292, Note_off_c, 0, 57, 100
2, 283296, Note_on_c, 0, 53, 74
2, 283384, Control_c, 0, 64, 0
2, 283388, Note_off_c, 0, 53, 100
2, 283392, Control_c, 0, 64, 127
2, 283392, Note_on_c, 0, 63, 74
2, 283484, Note_off_c, 0, 63, 100
2, 283488, Note_on_c, 0, 60, 74
2, 283580, Note_off_c, 0, 60, 100
2, 283584, Note_on_c, 0, 57, 74
2, 283676, Note_off_c, 0, 57, 100
2, 283680, Note_on_c, 0, 53, 74
2, 283768, Control_c, 0, 64, 0
2, 283772, Note_off_c, 0, 53, 100
2, 283776, Control_c, 0, 64, 127
2, 283776, Note_on_c, 0, 63, 74
2, 283868, Note_off_c, 0, 63, 100
2, 283872, Note_on_c, 0, 60, 74
2, 283964, Note_off_c, 0, 60, 100
2, 283968, Note_on_c, 0, 57, 74
2, 284060, Note_off_c, 0, 57, 100
2, 284064, Note_on_c, 0, 53, 74
2, 284152, Control_c, 0, 64, 0
2, 284156, Note_off_c, 0, 53, 100
2, 284160, Control_c, 0, 64, 127
2, 284160, Note_on_c, 0, 63, 74
2, 284252, Note_off_c, 0, 63, 100
2, 284256, Note_on_c, 0, 60, 74
2, 284348, Note_off_c, 0, 60, 100
2, 284352, Note_on_c, 0, 57, 74
2, 284444, Note_off_c, 0, 57, 100
2, 284448, Note_on_c, 0, 53, 74
2, 284536, Control_c, 0, 64, 0
2, 284540, Note_off_c, 0, 53, 100
2, 284544, Control_c, 0, 64, 127
2, 284544, Note_on_c, 0, 63, 74
2, 284636, Note_off_c, 0, 63, 100
2, 284640, Note_on_c, 0, 60, 74
2, 284732, Note_off_c, 0, 60, 100
2, 284736, Note_on_c, 0, 57, 74
2, 284828, Note_off_c, 0, 57, 100
2, 284832, Note_on_c, 0, 53, 74
2, 284920, Control_c, 0, 64, 0
2, 284924, Note_off_c, 0, 53, 100
2, 284928, Control_c, 0, 64, 127
2, 284928, Note_on_c, 0, 63, 74
2, 285020, Note_off_c, 0, 63, 100
2, 285024, Note_on_c, 0, 60, 73
2, 285116, Note_off_c, 0, 60, 100
2, 285120, Note_on_c, 0, 57, 73
2, 285212, Note_off_c, 0, 57, 100
2, 285216, Note_on_c, 0, 53, 73
2, 285304, Control_c, 0, 64, 0
2, 285308, Note_off_c, 0, 53, 100
2, 285312, Control_c, 0, 64, 127
2, 285312, Note_on_c, 0, 63, 73
2, 285404, Note_off_c, 0, 63, 100
2, 285408, Note_on_c, 0, 60, 73
2, 285500, Note_off_c, 0, 60, 100
2, 285504, Note_on_c, 0, 57, 73
2, 285596, Note_off_c, 0, 57, 100
2, 285600, Note_on_c, 0, 53, 73
2, 285688, Control_c, 0, 64, 0
2, 285692, Note_off_c, 0, 53, 100
2, 285696, Control_c, 0, 64, 127
2, 285696, Note_on_c, 0, 63, 73
2, 285788, Note_off_c, 0, 63, 100
2, 285792, Note_on_c, 0, 60, 73
2, 285884, Note_off_c, 0, 60, 100
2, 285888, Note_on_c, 0, 57, 73
2, 285980, Note_off_c, 0, 57, 100
2, 285984, Note_on_c, 0, 53, 73
2, 286072, Control_c, 0, 64, 0
2, 286076, Note_off_c, 0, 53, 100
2, 286080, Control_c, 0, 64, 127
2, 286080, Note_on_c, 0, 63, 73
2, 286172, Note_off_c, 0, 63, 100
2, 286176, Note_on_c, 0, 60, 73
2, 286268, Note_off_c, 0, 60, 100
2, 286272, Note_on_c, 0, 57, 73
2, 286364, Note_off_c, 0, 57, 100
2, 286368, Note_on_c, 0, 53, 73
2, 286456, Control_c, 0, 64, 0
2, 286460, Note_off_c, 0, 53, 100
2, 286464, Control_c, 0, 64, 127
2, 286464, Note_on_c, 0, 63, 73
2, 286556, Note_off_c, 0, 63, 100
2, 286560, Note_on_c, 0, 60, 73
2, 286652, Note_off_c, 0, 60, 100
2, 286656, Note_on_c, 0, 57, 73
2, 286748, Note_off_c, 0, 57, 100
2, 286752, Note_on_c, 0, 53, 73
2, 286840, Control_c, 0, 64, 0
2, 286844, Note_off_c, 0, 53, 100
2, 286848, Control_c, 0, 64, 127
2, 286848, Note_on_c, 0, 63, 73
2, 286940, Note_off_c, 0, 63, 100
2, 286944, Note_on_c, 0, 60, 73
2, 287036, Note_off_c, 0, 60, 100
2, 287040, Note_on_c, 0, 57, 73
2, 287132, Note_off_c, 0, 57, 100
2, 287136, Note_on_c, 0, 53, 73
2, 287224, Control_c, 0, 64, 0
2, 287228, Note_off_c, 0, 53, 100
2, 287232, Control_c, 0, 64, 127
2, 287232, Note_on_c, 0, 63, 73
2, 287324, Note_off_c, 0, 63, 100
2, 287328, Note_on_c, 0, 60, 73
2, 287420, Note_off_c, 0, 60, 100
2, 287424, Note_on_c, 0, 57, 73
2, 287516, Note_off_c, 0, 57, 100
2, 287520, Note_on_c, 0, 53, 73
2, 287608, Control_c, 0, 64, 0
2, 287612, Note_off_c, 0, 53, 100
2, 287616, Control_c, 0, 64, 127
2, 287616, Note_on_c, 0, 63, 73
2, 287708, Note_off_c, 0, 63, 100
2, 287712, Note_on_c, 0, 60, 73
2, 287804, Note_off_c, 0, 60, 100
2, 287808, Note_on_c, 0, 57, 73
2, 287900, Note_off_c, 0, 57, 100
2, 287904, Note_on_c, 0, 53, 73
2, 287992, Control_c, 0, 64, 0
2, 287996, Note_off_c, 0, 53, 100
2, 288000, Control_c, 0, 64, 127
2, 288000, Note_on_c, 0, 63, 72
2, 288092, Note_off_c, 0, 63, 100
2, 288096, Note_on_c, 0, 60, 72
2, 288188, Note_off_c, 0, 60, 100
2, 288192, Note_on_c, 0, 57, 72
2, 288284, Note_off_c, 0, 57, 100
2, 288288, Note_on_c, 0, 53, 72
2, 288376, Control_c, 0, 64, 0
2, 288380, Note_off_c, 0, 53, 100
2, 288384, Control_c, 0, 64, 127
2, 288384, Note_on_c, 0, 63, 72
2, 288476, Note_off_c, 0, 63, 100
2, 288480, Note_on_c, 0, 60, 72
2, 288572, Note_off_c, 0, 60, 100
2, 288576, Note_on_c, 0, 57, 72
2, 288668, Note_off_c, 0, 57, 100
2, 288672, Note_on_c, 0, 53, 72
2, 288760, Control_c, 0, 64, 0
2, 288764, Note_off_c, 0, 53, 100
2, 288768, Control_c, 0, 64, 127
2, 288768, Note_on_c, 0, 63, 72
2, 288860, Note_off_c, 0, 63, 100
2, 288864, Note_on_c, 0, 60, 72
2, 288956, Note_off_c, 0, 60, 100
2, 288960, Note_on_c, 0, 57, 72
2, 289052, Note_off_c, 0, 57, 100
2, 289056, Note_on_c, 0, 53, 72
2, 289144, Control_c, 0, 64, 0
2, 289148, Note_off_c, 0, 53, 100
2, 289152, Control_c, 0, 64, 127
2, 289152, Note_on_c, 0, 63, 72
2, 289244, Note_off_c, 0, 63, 100
2, 289248, Note_on_c, 0, 60, 72
2, 289340, Note_off_c, 0, 60, 100
2, 289344, Note_on_c, 0, 57, 72
2, 289436, Note_off_c, 0, 57, 100
2, 289440, Note_on_c, 0, 53, 72
2, 289528, Control_c, 0, 64, 0
2, 289532, Note_off_c, 0, 53, 100
2, 289536, Control_c, 0, 64, 127
2, 289536, Note_on_c, 0, 63, 72
2, 289628, Note_off_c, 0, 63, 100
2, 289632, Note_on_c, 0, 60, 72
2, 289724, Note_off_c, 0, 60, 100
2, 289728, Note_on_c, 0, 57, 72
2, 289820, Note_off_c, 0, 57, 100
2, 289824, Note_on_c, 0, 53, 72
2, 289912, Control_c, 0, 64, 0
2, 289916, Note_off_c, 0, 53, 100
2, 289920, Control_c, 0, 64, 127
2, 289920, Note_on_c, 0, 63, 72
2, 290012, Note_off_c, 0, 63, 100
2, 290016, Note_on_c, 0, 60, 72
2, 290108, Note_off_c, 0, 60, 100
2, 290112, Note_on_c, 0, 57, 72
2, 290204, Note_off_c, 0, 57, 100
2, 290208, Note_on_c, 0, 53, 72
2, 290296, Control_c, 0, 64, 0
2, 290300, Note_off_c, 0, 53, 100
2, 290304, Control_c, 0, 64, 127
2, 290304, Note_on_c, 0, 63, 72
2, 290396, Note_off_c, 0, 63, 100
2, 290400, Note_on_c, 0, 60, 72
2, 290492, Note_off_c, 0, 60, 100
2, 290496, Note_on_c, 0, 57, 72
2, 290588, Note_off_c, 0, 57, 100
2, 290592, Note_on_c, 0, 53, 72
2, 290680, Control_c, 0, 64, 0
2, 290684, Note_off_c, 0, 53, 100
2, 290688, Control_c, 0, 64, 127
2, 290688, Note_on_c, 0, 63, 72
2, 290780, Note_off_c, 0, 63, 100
2, 290784, Note_on_c, 0, 60, 72
2, 290876, Note_off_c, 0, 60, 100
2, 290880, Note_on_c, 0, 57, 71
2, 290972, Note_off_c, 0, 57, 100
2, 290976, Note_on_c, 0, 53, 71
2, 291064, Control_c, 0, 64, 0
2, 291068, Note_off_c, 0, 53, 100
2, 291072, Control_c, 0, 64, 127
2, 291072, Note_on_c, 0, 63, 71
2, 291164, Note_off_c, 0, 63, 100
2, 291168, Note_on_c, 0, 60, 71
2, 291260, Note_off_c, 0, 60, 100
2, 291264, Note_on_c, 0, 57, 71
2, 291356, Note_off_c, 0, 57, 100
2, 291360, Note_on_c, 0, 53, 71
2, 291448, Control_c, 0, 64, 0
2, 291452, Note_off_c, 0, 53, 100
2, 291456, Control_c, 0, 64, 127
2, 291456, Note_on_c, 0, 63, 71
2, 291548, Note_off_c, 0, 63, 100
2, 291552, Note_on_c, 0, 60, 71
2, 291644, Note_off_c, 0, 60, 100
2, 291648, Note_on_c, 0, 57, 71
2, 291740, Note_off_c, 0, 57, 100
2, 291744, Note_on_c, 0, 53, 71
2, 291832, Control_c, 0, 64, 0
2, 291836, Note_off_c, 0, 53, 100
2, 291840, Control_c, 0, 64, 127
2, 291840, Note_on_c, 0, 63, 71
2, 291932, Note_off_c, 0, 63, 100
2, 291936, Note_on_c, 0, 60, 71
2, 292028, Note_off_c, 0, 60, 100
2, 292032, Note_on_c, 0, 57, 71
2, 292124, Note_off_c, 0, 57, 100
2, 292128, Note_on_c, 0, 53, 71
2, 292216, Control_c, 0, 64, 0
2, 292220, Note_off_c, 0, 53, 100
2, 292224, Control_c, 0, 64, 127
2, 292224, Note_on_c, 0, 63, 71
2, 292316, Note_off_c, 0, 63, 100
2, 292320, Note_on_c, 0, 60, 71
2, 292412, Note_off_c, 0, 60, 100
2, 292416, Note_on_c, 0, 57, 71
2, 292508, Note_off_c, 0, 57, 100
2, 292512, Note_on_c, 0, 53, 71
2, 292600, Control_c, 0, 64, 0
2, 292604, Note_off_c, 0, 53, 100
2, 292608, Control_c, 0, 64, 127
2, 292608, Note_on_c, 0, 63, 71
2, 292700, Note_off_c, 0, 63, 100
2, 292704, Note_on_c, 0, 60, 71
2, 292796, Note_off_c, 0, 60, 100
2, 292800, Note_on_c, 0, 57, 71
2, 292892, Note_off_c, 0, 57, 100
2, 292896, Note_on_c, 0, 53, 71
2, 292984, Control_c, 0, 64, 0
2, 292988, Note_off_c, 0, 53, 100
2, 292992, Control_c, 0, 64, 127
2, 292992, Note_on_c, 0, 63, 71
2, 293084, Note_off_c, 0, 63, 100
2, 293088, Note_on_c, 0, 60, 71
2, 293180, Note_off_c, 0, 60, 100
2, 293184, Note_on_c, 0, 57, 71
2, 293276, Note_off_c, 0, 57, 100
2, 293280, Note_on_c, 0, 53, 71
2, 293368, Control_c, 0, 64, 0
2, 293372, Note_off_c, 0, 53, 100
2, 293376, Control_c, 0, 64, 127
2, 293376, Note_on_c, 0, 63, 71
2, 293468, Note_off_c, 0, 63, 100
2, 293472, Note_on_c, 0, 60, 71
2, 293564, Note_off_c, 0, 60, 100
2, 293568, Note_on_c, 0, 57, 71
2, 293660, Note_off_c, 0, 57, 100
2, 293664, Note_on_c, 0, 53, 71
2, 293752, Control_c, 0, 64, 0
2, 293756, Note_off_c, 0, 53, 100
2, 295296, Note_on_c, 0, 63, 80
2, 295484, Note_off_c, 0, 63, 100
2, 295488, Note_on_c, 0, 64, 80
2, 295676, Note_off_c, 0, 64, 100
2, 295680, Note_on_c, 0, 65, 80
2, 295868, Note_off_c, 0, 65, 100
2, 295872, Note_on_c, 0, 67, 80
2, 296060, Note_off_c, 0, 67, 100
2, 296064, Note_on_c, 0, 69, 80
2, 296252, Note_off_c, 0, 69, 100
2, 296256, Note_on_c, 0, 70, 80
2, 296444, Note_off_c, 0, 70, 100
2, 296448, Note_on_c, 0, 72, 80
2, 296636, Note_off_c, 0, 72, 100
2, 296640, Note_on_c, 0, 74, 80
2, 296828, Note_off_c, 0, 74, 100
2, 296832, Note_on_c, 0, 75, 80
2, 296832, Note_on_c, 0, 72, 80
2, 296832, Note_on_c, 0, 63, 80
2, 299132, Note_off_c, 0, 63, 100
2, 299132, Note_off_c, 0, 72, 100
2, 299132, Note_off_c, 0, 75, 100
2, 299520, Note_on_c, 0, 62, 80
2, 299520, Note_on_c, 0, 58, 80
2, 299612, Note_off_c, 0, 58, 100
2, 299616, Note_on_c, 0, 57, 80
2, 299708, Note_off_c, 0, 57, 100
2, 299712, Note_on_c, 0, 58, 80
2, 299804, Note_off_c, 0, 58, 100
2, 299808, Note_on_c, 0, 53, 80
2, 299900, Note_off_c, 0, 62, 100
2, 299900, Note_off_c, 0, 53, 100
2, 299904, Note_on_c, 0, 65, 80
2, 299904, Note_on_c, 0, 62, 80
2, 300284, Note_off_c, 0, 65, 100
2, 300284, Note_off_c, 0, 62, 100
2, 300288, Note_on_c, 0, 62, 80
2, 300288, Note_on_c, 0, 58, 80
2, 300668, Note_off_c, 0, 62, 100
2, 300668, Note_off_c, 0, 58, 100
2, 301056, Note_on_c, 0, 62, 80
2, 301056, Note_on_c, 0, 58, 80
2, 301148, Note_off_c, 0, 58, 100
2, 301152, Note_on_c, 0, 57, 80
2, 301244, Note_off_c, 0, 57, 100
2, 301248, Note_on_c, 0, 58, 80
2, 301340, Note_off_c, 0, 58, 100
2, 301344, Note_on_c, 0, 53, 80
2, 301436, Note_off_c, 0, 62, 100
2, 301436, Note_off_c, 0, 53, 100
2, 301440, Note_on_c, 0, 65, 80
2, 301440, Note_on_c, 0, 62, 80
2, 301820, Note_off_c, 0, 65, 100
2, 301820, Note_off_c, 0, 62, 100
2, 301824, Note_on_c, 0, 62, 80
2, 301824, Note_on_c, 0, 58, 80
2, 302204, Note_off_c, 0, 62, 100
2, 302204, Note_off_c, 0, 58, 100
2, 302592, Note_on_c, 0, 62, 80
2, 302592, Note_on_c, 0, 58, 80
2, 302688, Note_on_c, 0, 57, 80
2, 302748, Note_off_c, 0, 58, 100
2, 302784, Note_on_c, 0, 58, 81
2, 302844, Note_off_c, 0, 57, 100
2, 302880, Note_on_c, 0, 53, 82
2, 302952, Note_off_c, 0, 58, 100
2, 302972, Note_off_c, 0, 62, 100
2, 302976, Note_on_c, 0, 65, 83
2, 302976, Note_on_c, 0, 62, 83
2, 303028, Note_off_c, 0, 53, 100
2, 303072, Note_on_c, 0, 61, 84
2, 303148, Note_off_c, 0, 62, 100
2, 303168, Note_on_c, 0, 62, 85
2, 303224, Note_off_c, 0, 61, 100
2, 303264, Note_on_c, 0, 58, 86
2, 303328, Note_off_c, 0, 62, 100
2, 303356, Note_off_c, 0, 65, 100
2, 303356, Note_off_c, 0, 58, 100
2, 303360, Note_on_c, 0, 70, 87
2, 303360, Note_on_c, 0, 65, 87
2, 303452, Note_off_c, 0, 65, 100
2, 303456, Note_on_c, 0, 64, 88
2, 303548, Note_off_c, 0, 64, 100
2, 303552, Note_on_c, 0, 65, 89
2, 303644, Note_off_c, 0, 65, 100
2, 303648, Note_on_c, 0, 62, 90
2, 303740, Note_off_c, 0, 70, 100
2, 303740, Note_off_c, 0, 62, 100
2, 303744, Note_on_c, 0, 74, 91
2, 303744, Note_on_c, 0, 70, 91
2, 303836, Note_off_c, 0, 70, 100
2, 303840, Note_on_c, 0, 69, 92
2, 303932, Note_off_c, 0, 69, 100
2, 303936, Note_on_c, 0, 70, 93
2, 304028, Note_off_c, 0, 70, 100
2, 304032, Note_on_c, 0, 65, 94
2, 304124, Note_off_c, 0, 74, 100
2, 304124, Note_off_c, 0, 65, 100
2, 304128, Note_on_c, 0, 77, 95
2, 304128, Note_on_c, 0, 74, 95
2, 304220, Note_off_c, 0, 74, 100
2, 304224, Note_on_c, 0, 73, 96
2, 304316, Note_off_c, 0, 73, 100
2, 304320, Note_on_c, 0, 74, 97
2, 304412, Note_off_c, 0, 74, 100
2, 304416, Note_on_c, 0, 70, 98
2, 304508, Note_off_c, 0, 77, 100
2, 304508, Note_off_c, 0, 70, 100
2, 304512, Note_on_c, 0, 82, 108
2, 305660, Note_off_c, 0, 82, 100
2, 305664, Note_on_c, 0, 81, 88
2, 305756, Note_off_c, 0, 81, 100
2, 305760, Note_on_c, 0, 82, 88
2, 305852, Note_off_c, 0, 82, 100
2, 305856, Note_on_c, 0, 84, 88
2, 305948, Note_off_c, 0, 84, 100
2, 305952, Note_on_c, 0, 82, 88
2, 306044, Note_off_c, 0, 82, 100
2, 306048, Note_on_c, 0, 81, 88
2, 306236, Note_off_c, 0, 81, 100
2, 306240, Note_on_c, 0, 79, 88
2, 306428, Note_off_c, 0, 79, 100
2, 306432, Note_on_c, 0, 77, 88
2, 306620, Note_off_c, 0, 77, 100
2, 306624, Note_on_c, 0, 75, 88
2, 306812, Note_off_c, 0, 75, 100
2, 306816, Note_on_c, 0, 74, 88
2, 307004, Note_off_c, 0, 74, 100
2, 307008, Note_on_c, 0, 72, 88
2, 307196, Note_off_c, 0, 72, 100
2, 307200, Note_on_c, 0, 79, 88
2, 307388, Note_off_c, 0, 79, 100
2, 307392, Note_on_c, 0, 77, 88
2, 307580, Note_off_c, 0, 77, 100
2, 307584, Note_on_c, 0, 75, 88
2, 307964, Note_off_c, 0, 75, 100
2, 307968, Note_on_c, 0, 74, 88
2, 308348, Note_off_c, 0, 74, 100
2, 308736, Note_on_c, 0, 69, 88
2, 308828, Note_off_c, 0, 69, 100
2, 308832, Note_on_c, 0, 70, 88
2, 308924, Note_off_c, 0, 70, 100
2, 308928, Note_on_c, 0, 72, 88
2, 309020, Note_off_c, 0, 72, 100
2, 309024, Note_on_c, 0, 70, 88
2, 309116, Note_off_c, 0, 70, 100
2, 309120, Note_on_c, 0, 68, 90
2, 309308, Note_off_c, 0, 68, 100
2, 309312, Note_on_c, 0, 67, 91
2, 309500, Note_off_c, 0, 67, 100
2, 309504, Note_on_c, 0, 65, 92
2, 309692, Note_off_c, 0, 65, 100
2, 309696, Note_on_c, 0, 63, 94
2, 309884, Note_off_c, 0, 63, 100
2, 309888, Note_on_c, 0, 62, 95
2, 310076, Note_off_c, 0, 62, 100
2, 310080, Note_on_c, 0, 60, 97
2, 310268, Note_off_c, 0, 60, 100
2, 310272, Note_on_c, 0, 63, 98
2, 310460, Note_off_c, 0, 63, 100
2, 310464, Note_on_c, 0, 57, 99
2, 310652, Note_off_c, 0, 57, 100
2, 310656, Note_on_c, 0, 58, 110
2, 310844, Note_off_c, 0, 58, 100
2, 310848, Note_on_c, 0, 62, 110
2, 310940, Note_off_c, 0, 62, 100
2, 310944, Note_on_c, 0, 60, 110
2, 311036, Note_off_c, 0, 60, 100
2, 311040, Note_on_c, 0, 58, 110
2, 311132, Note_off_c, 0, 58, 100
2, 311136, Note_on_c, 0, 57, 110
2, 311228, Note_off_c, 0, 57, 100
2, 311232, Note_on_c, 0, 58, 110
2, 311324, Note_off_c, 0, 58, 100
2, 311328, Note_on_c, 0, 55, 110
2, 311420, Note_off_c, 0, 55, 100
2, 311424, Note_on_c, 0, 53, 110
2, 311612, Note_off_c, 0, 53, 100
2, 311616, Note_on_c, 0, 67, 110
2, 311708, Note_off_c, 0, 67, 100
2, 311712, Note_on_c, 0, 65, 110
2, 311804, Note_off_c, 0, 65, 100
2, 311808, Note_on_c, 0, 63, 110
2, 311900, Note_off_c, 0, 63, 100
2, 311904, Note_on_c, 0, 62, 110
2, 311996, Note_off_c, 0, 62, 100
2, 312000, Note_on_c, 0, 63, 110
2, 312092, Note_off_c, 0, 63, 100
2, 312096, Note_on_c, 0, 60, 110
2, 312096, Note_on_c, 0, 60, 110
2, 312188, Note_off_c, 0, 60, 100
2, 312188, Note_off_c, 0, 60, 100
2, 312192, Note_on_c, 0, 58, 110
2, 312380, Note_off_c, 0, 58, 100
2, 312384, Note_on_c, 0, 74, 110
2, 312476, Note_off_c, 0, 74, 100
2, 312480, Note_on_c, 0, 72, 110
2, 312572, Note_off_c, 0, 72, 100
2, 312576, Note_on_c, 0, 70, 110
2, 312668, Note_off_c, 0, 70, 100
2, 312672, Note_on_c, 0, 69, 110
2, 312764, Note_off_c, 0, 69, 100
2, 312768, Note_on_c, 0, 70, 110
2, 312860, Note_off_c, 0, 70, 100
2, 312864, Note_on_c, 0, 67, 110
2, 312956, Note_off_c, 0, 67, 100
2, 312960, Note_on_c, 0, 65, 110
2, 313148, Note_off_c, 0, 65, 100
2, 313152, Note_on_c, 0, 79, 110
2, 313244, Note_off_c, 0, 79, 100
2, 313248, Note_on_c, 0, 77, 110
2, 313340, Note_off_c, 0, 77, 100
2, 313344, Note_on_c, 0, 75, 110
2, 313436, Note_off_c, 0, 75, 100
2, 313440, Note_on_c, 0, 74, 110
2, 313532, Note_off_c, 0, 74, 100
2, 313536, Note_on_c, 0, 75, 110
2, 313628, Note_off_c, 0, 75, 100
2, 313632, Note_on_c, 0, 72, 110
2, 313632, Note_on_c, 0, 72, 110
2, 313724, Note_off_c, 0, 72, 100
2, 313724, Note_off_c, 0, 72, 100
2, 313728, Note_on_c, 0, 70, 110
2, 313916, Note_off_c, 0, 70, 100
2, 313920, Note_on_c, 0, 72, 110
2, 314012, Note_off_c, 0, 72, 100
2, 314016, Note_on_c, 0, 74, 110
2, 314108, Note_off_c, 0, 74, 100
2, 314112, Note_on_c, 0, 75, 110
2, 314204, Note_off_c, 0, 75, 100
2, 314208, Note_on_c, 0, 77, 110
2, 314300, Note_off_c, 0, 77, 100
2, 314304, Note_on_c, 0, 79, 110
2, 314396, Note_off_c, 0, 79, 100
2, 314400, Note_on_c, 0, 81, 110
2, 314492, Note_off_c, 0, 81, 100
2, 314496, Note_on_c, 0, 82, 110
2, 314520, Note_on_c, 0, 84, 110
2, 314540, Note_off_c, 0, 82, 100
2, 314544, Note_on_c, 0, 82, 110
2, 314564, Note_off_c, 0, 84, 100
2, 314588, Note_off_c, 0, 82, 100
2, 314592, Note_on_c, 0, 81, 110
2, 314684, Note_off_c, 0, 81, 100
2, 314688, Note_on_c, 0, 82, 110
2, 314780, Note_off_c, 0, 82, 100
2, 314784, Note_on_c, 0, 84, 110
2, 314876, Note_off_c, 0, 84, 100
2, 314880, Note_on_c, 0, 86, 110
2, 314904, Note_on_c, 0, 88, 110
2, 314924, Note_off_c, 0, 86, 100
2, 314928, Note_on_c, 0, 86, 110
2, 314948, Note_off_c, 0, 88, 100
2, 314972, Note_off_c, 0, 86, 100
2, 314976, Note_on_c, 0, 84, 110
2, 315068, Note_off_c, 0, 84, 100
2, 315072, Note_on_c, 0, 86, 110
2, 315164, Note_off_c, 0, 86, 100
2, 315168, Note_on_c, 0, 88, 110
2, 315260, Note_off_c, 0, 88, 100
2, 315264, Note_on_c, 0, 89, 110
2, 315644, Note_off_c, 0, 89, 100
2, 315648, Note_on_c, 0, 65, 110
2, 316028, Note_off_c, 0, 65, 100
2, 317184, Note_on_c, 0, 65, 110
2, 317184, Note_on_c, 0, 62, 110
2, 317276, Note_off_c, 0, 62, 100
2, 317280, Note_on_c, 0, 61, 110
2, 317372, Note_off_c, 0, 61, 100
2, 317376, Note_on_c, 0, 62, 110
2, 317468, Note_off_c, 0, 62, 100
2, 317472, Note_on_c, 0, 58, 110
2, 317564, Note_off_c, 0, 65, 100
2, 317564, Note_off_c, 0, 58, 100
2, 317568, Note_on_c, 0, 65, 110
2, 317568, Note_on_c, 0, 74, 110
2, 317948, Note_off_c, 0, 65, 100
2, 317948, Note_off_c, 0, 74, 100
2, 317952, Note_on_c, 0, 70, 110
2, 317952, Note_on_c, 0, 62, 110
2, 318332, Note_off_c, 0, 70, 100
2, 318332, Note_off_c, 0, 62, 100
2, 318720, Note_on_c, 0, 65, 110
2, 318720, Note_on_c, 0, 62, 110
2, 318812, Note_off_c, 0, 62, 100
2, 318816, Note_on_c, 0, 61, 110
2, 318908, Note_off_c, 0, 61, 100
2, 318912, Note_on_c, 0, 62, 110
2, 319004, Note_off_c, 0, 62, 100
2, 319008, Note_on_c, 0, 58, 110
2, 319100, Note_off_c, 0, 65, 100
2, 319100, Note_off_c, 0, 58, 100
2, 319104, Note_on_c, 0, 65, 110
2, 319104, Note_on_c, 0, 74, 110
2, 319484, Note_off_c, 0, 65, 100
2, 319484, Note_off_c, 0, 74, 100
2, 319488, Note_on_c, 0, 70, 110
2, 319488, Note_on_c, 0, 62, 110
2, 319868, Note_off_c, 0, 70, 100
2, 319868, Note_off_c, 0, 62, 100
2, 322176, Note_on_c, 0, 80, 110
2, 322944, Note_on_c, 0, 74, 80
2, 323324, Note_off_c, 0, 80, 100
2, 323328, Note_on_c, 0, 79, 80
2, 323708, Note_off_c, 0, 74, 100
2, 323712, Note_on_c, 0, 75, 80
2, 324092, Note_off_c, 0, 79, 100
2, 324092, Note_off_c, 0, 75, 100
2, 324096, Note_on_c, 0, 77, 80
2, 324096, Note_on_c, 0, 72, 80
2, 324476, Note_off_c, 0, 72, 100
2, 324480, Note_on_c, 0, 74, 80
2, 324860, Note_off_c, 0, 77, 100
2, 324860, Note_off_c, 0, 74, 100
2, 324864, Note_on_c, 0, 75, 80
2, 324864, Note_on_c, 0, 71, 80
2, 325244, Note_off_c, 0, 71, 100
2, 325248, Note_on_c, 0, 72, 80
2, 325628, Note_off_c, 0, 75, 100
2, 325628, Note_off_c, 0, 72, 100
2, 325632, Note_on_c, 0, 74, 80
2, 325632, Note_on_c, 0, 69, 80
2, 326012, Note_off_c, 0, 69, 100
2, 326016, Note_on_c, 0, 70, 80
2, 326396, Note_off_c, 0, 74, 100
2, 326396, Note_off_c, 0, 70, 100
2, 326400, Note_on_c, 0, 72, 80
2, 326400, Note_on_c, 0, 67, 80
2, 326780, Note_off_c, 0, 67, 100
2, 326784, Note_on_c, 0, 68, 80
2, 327164, Note_off_c, 0, 72, 100
2, 327164, Note_off_c, 0, 68, 100
2, 327168, Note_on_c, 0, 70, 80
2, 327168, Note_on_c, 0, 65, 80
2, 327548, Note_off_c, 0, 65, 100
2, 327552, Note_on_c, 0, 67, 80
2, 327932, Note_off_c, 0, 70, 100
2, 327932, Note_off_c, 0, 67, 100
2, 327936, Note_on_c, 0, 69, 80
2, 327936, Note_on_c, 0, 63, 80
2, 328316, Note_off_c, 0, 69, 100
2, 328316, Note_off_c, 0, 63, 100
2, 328320, Note_on_c, 0, 70, 80
2, 328320, Note_on_c, 0, 62, 80
2, 328700, Note_off_c, 0, 70, 100
2, 328700, Note_off_c, 0, 62, 100
2, 328704, Note_on_c, 0, 62, 80
2, 328704, Note_on_c, 0, 58, 80
2, 329084, Note_off_c, 0, 62, 100
2, 329084, Note_off_c, 0, 58, 100
2, 329088, Control_c, 0, 64, 127
2, 329088, Note_on_c, 0, 60, 95
2, 329088, Note_on_c, 0, 57, 95
2, 329276, Note_off_c, 0, 60, 100
2, 329276, Note_off_c, 0, 57, 100
2, 329280, Note_on_c, 0, 65, 80
2, 329372, Note_off_c, 0, 65, 100
2, 329376, Note_on_c, 0, 60, 80
2, 329376, Note_on_c, 0, 57, 80
2, 329464, Control_c, 0, 64, 0
2, 329468, Note_off_c, 0, 60, 100
2, 329468, Note_off_c, 0, 57, 100
2, 329472, Control_c, 0, 64, 127
2, 329472, Note_on_c, 0, 65, 80
2, 329564, Note_off_c, 0, 65, 100
2, 329568, Note_on_c, 0, 60, 80
2, 329568, Note_on_c, 0, 57, 80
2, 329660, Note_off_c, 0, 60, 100
2, 329660, Note_off_c, 0, 57, 100
2, 329664, Note_on_c, 0, 67, 80
2, 329756, Note_off_c, 0, 67, 100
2, 329760, Note_on_c, 0, 60, 80
2, 329760, Note_on_c, 0, 57, 80
2, 329848, Control_c, 0, 64, 0
2, 329852, Note_off_c, 0, 60, 100
2, 329852, Note_off_c, 0, 57, 100
2, 329856, Control_c, 0, 64, 127
2, 329856, Note_on_c, 0, 69, 80
2, 329948, Note_off_c, 0, 69, 100
2, 329952, Note_on_c, 0, 63, 80
2, 329952, Note_on_c, 0, 60, 80
2, 330044, Note_off_c, 0, 63, 100
2, 330044, Note_off_c, 0, 60, 100
2, 330048, Note_on_c, 0, 65, 80
2, 330140, Note_off_c, 0, 65, 100
2, 330144, Note_on_c, 0, 63, 80
2, 330144, Note_on_c, 0, 60, 80
2, 330232, Control_c, 0, 64, 0
2, 330236, Note_off_c, 0, 63, 100
2, 330236, Note_off_c, 0, 60, 100
2, 330240, Control_c, 0, 64, 127
2, 330240, Note_on_c, 0, 67, 80
2, 330332, Note_off_c, 0, 67, 100
2, 330336, Note_on_c, 0, 63, 80
2, 330336, Note_on_c, 0, 60, 80
2, 330428, Note_off_c, 0, 63, 100
2, 330428, Note_off_c, 0, 60, 100
2, 330432, Note_on_c, 0, 69, 80
2, 330524, Note_off_c, 0, 69, 100
2, 330528, Note_on_c, 0, 63, 80
2, 330528, Note_on_c, 0, 60, 80
2, 330616, Control_c, 0, 64, 0
2, 330620, Note_off_c, 0, 63, 100
2, 330620, Note_off_c, 0, 60, 100
2, 330624, Control_c, 0, 64, 127
2, 330624, Note_on_c, 0, 70, 95
2, 330716, Note_off_c, 0, 70, 100
2, 330720, Note_on_c, 0, 61, 80
2, 330720, Note_on_c, 0, 58, 80
2, 330812, Note_off_c, 0, 61, 100
2, 330812, Note_off_c, 0, 58, 100
2, 330816, Note_on_c, 0, 70, 80
2, 330908, Note_off_c, 0, 70, 100
2, 330912, Note_on_c, 0, 61, 80
2, 330912, Note_on_c, 0, 58, 80
2, 331000, Control_c, 0, 64, 0
2, 331004, Note_off_c, 0, 61, 100
2, 331004, Note_off_c, 0, 58, 100
2, 331008, Control_c, 0, 64, 127
2, 331008, Note_on_c, 0, 70, 80
2, 331100, Note_off_c, 0, 70, 100
2, 331104, Note_on_c, 0, 61, 80
2, 331104, Note_on_c, 0, 58, 80
2, 331196, Note_off_c, 0, 61, 100
2, 331196, Note_off_c, 0, 58, 100
2, 331200, Note_on_c, 0, 68, 80
2, 331292, Note_off_c, 0, 68, 100
2, 331296, Note_on_c, 0, 61, 80
2, 331296, Note_on_c, 0, 58, 80
2, 331384, Control_c, 0, 64, 0
2, 331388, Note_off_c, 0, 61, 100
2, 331388, Note_off_c, 0, 58, 100
2, 331392, Control_c, 0, 64, 127
2, 331392, Note_on_c, 0, 67, 80
2, 331484, Note_off_c, 0, 67, 100
2, 331488, Note_on_c, 0, 61, 80
2, 331488, Note_on_c, 0, 58, 80
2, 331580, Note_off_c, 0, 61, 100
2, 331580, Note_off_c, 0, 58, 100
2, 331584, Note_on_c, 0, 65, 80
2, 331676, Note_off_c, 0, 65, 100
2, 331680, Note_on_c, 0, 61, 80
2, 331680, Note_on_c, 0, 58, 80
2, 331768, Control_c, 0, 64, 0
2, 331772, Note_off_c, 0, 61, 100
2, 331772, Note_off_c, 0, 58, 100
2, 331776, Control_c, 0, 64, 127
2, 331776, Note_on_c, 0, 64, 80
2, 331868, Note_off_c, 0, 64, 100
2, 331872, Note_on_c, 0, 61, 80
2, 331872, Note_on_c, 0, 58, 80
2, 331964, Note_off_c, 0, 61, 100
2, 331964, Note_off_c, 0, 58, 100
2, 331968, Note_on_c, 0, 67, 80
2, 332060, Note_off_c, 0, 67, 100
2, 332064, Note_on_c, 0, 61, 80
2, 332064, Note_on_c, 0, 58, 80
2, 332152, Control_c, 0, 64, 0
2, 332156, Note_off_c, 0, 61, 100
2, 332156, Note_off_c, 0, 58, 100
2, 332160, Control_c, 0, 64, 127
2, 332160, Note_on_c, 0, 60, 80
2, 332160, Note_on_c, 0, 57, 80
2, 332348, Note_off_c, 0, 60, 100
2, 332348, Note_off_c, 0, 57, 100
2, 332352, Note_on_c, 0, 77, 80
2, 332444, Note_off_c, 0, 77, 100
2, 332448, Note_on_c, 0, 72, 80
2, 332448, Note_on_c, 0, 69, 80
2, 332536, Control_c, 0, 64, 0
2, 332540, Note_off_c, 0, 72, 100
2, 332540, Note_off_c, 0, 69, 100
2, 332544, Control_c, 0, 64, 127
2, 332544, Note_on_c, 0, 77, 80
2, 332636, Note_off_c, 0, 77, 100
2, 332640, Note_on_c, 0, 72, 80
2, 332640, Note_on_c, 0, 69, 80
2, 332732, Note_off_c, 0, 72, 100
2, 332732, Note_off_c, 0, 69, 100
2, 332736, Note_on_c, 0, 79, 80
2, 332828, Note_off_c, 0, 79, 100
2, 332832, Note_on_c, 0, 72, 80
2, 332832, Note_on_c, 0, 69, 80
2, 332920, Control_c, 0, 64, 0
2, 332924, Note_off_c, 0, 72, 100
2, 332924, Note_off_c, 0, 69, 100
2, 332928, Control_c, 0, 64, 127
2, 332928, Note_on_c, 0, 81, 80
2, 333020, Note_off_c, 0, 81, 100
2, 333024, Note_on_c, 0, 75, 80
2, 333024, Note_on_c, 0, 72, 80
2, 333116, Note_off_c, 0, 75, 100
2, 333116, Note_off_c, 0, 72, 100
2, 333120, Note_on_c, 0, 77, 80
2, 333212, Note_off_c, 0, 77, 100
2, 333216, Note_on_c, 0, 75, 80
2, 333216, Note_on_c, 0, 72, 80
2, 333304, Control_c, 0, 64, 0
2, 333308, Note_off_c, 0, 75, 100
2, 333308, Note_off_c, 0, 72, 100
2, 333312, Control_c, 0, 64, 127
2, 333312, Note_on_c, 0, 79, 80
2, 333404, Note_off_c, 0, 79, 100
2, 333408, Note_on_c, 0, 75, 80
2, 333408, Note_on_c, 0, 72, 80
2, 333500, Note_off_c, 0, 75, 100
2, 333500, Note_off_c, 0, 72, 100
2, 333504, Note_on_c, 0, 81, 80
2, 333596, Note_off_c, 0, 81, 100
2, 333600, Note_on_c, 0, 75, 80
2, 333600, Note_on_c, 0, 72, 80
2, 333688, Control_c, 0, 64, 0
2, 333692, Note_off_c, 0, 75, 100
2, 333692, Note_off_c, 0, 72, 100
2, 333696, Control_c, 0, 64, 127
2, 333696, Note_on_c, 0, 82, 80
2, 333788, Note_off_c, 0, 82, 100
2, 333792, Note_on_c, 0, 73, 80
2, 333792, Note_on_c, 0, 70, 80
2, 333884, Note_off_c, 0, 73, 100
2, 333884, Note_off_c, 0, 70, 100
2, 333888, Note_on_c, 0, 82, 80
2, 333980, Note_off_c, 0, 82, 100
2, 333984, Note_on_c, 0, 73, 80
2, 333984, Note_on_c, 0, 70, 80
2, 334072, Control_c, 0, 64, 0
2, 334076, Note_off_c, 0, 73, 100
2, 334076, Note_off_c, 0, 70, 100
2, 334080, Control_c, 0, 64, 127
2, 334080, Note_on_c, 0, 82, 80
2, 334172, Note_off_c, 0, 82, 100
2, 334176, Note_on_c, 0, 73, 80
2, 334176, Note_on_c, 0, 70, 80
2, 334268, Note_off_c, 0, 73, 100
2, 334268, Note_off_c, 0, 70, 100
2, 334272, Note_on_c, 0, 80, 80
2, 334364, Note_off_c, 0, 80, 100
2, 334368, Note_on_c, 0, 73, 80
2, 334368, Note_on_c, 0, 70, 80
2, 334456, Control_c, 0, 64, 0
2, 334460, Note_off_c, 0, 73, 100
2, 334460, Note_off_c, 0, 70, 100
2, 334464, Control_c, 0, 64, 127
2, 334464, Note_on_c, 0, 79, 80
2, 334556, Note_off_c, 0, 79, 100
2, 334560, Note_on_c, 0, 73, 80
2, 334560, Note_on_c, 0, 70, 80
2, 334652, Note_off_c, 0, 73, 100
2, 334652, Note_off_c, 0, 70, 100
2, 334656, Note_on_c, 0, 77, 80
2, 334748, Note_off_c, 0, 77, 100
2, 334752, Note_on_c, 0, 73, 80
2, 334752, Note_on_c, 0, 70, 80
2, 334840, Control_c, 0, 64, 0
2, 334844, Note_off_c, 0, 73, 100
2, 334844, Note_off_c, 0, 70, 100
2, 334848, Control_c, 0, 64, 127
2, 334848, Note_on_c, 0, 76, 80
2, 334940, Note_off_c, 0, 76, 100
2, 334944, Note_on_c, 0, 73, 80
2, 334944, Note_on_c, 0, 70, 80
2, 335036, Note_off_c, 0, 73, 100
2, 335036, Note_off_c, 0, 70, 100
2, 335040, Note_on_c, 0, 79, 80
2, 335132, Note_off_c, 0, 79, 100
2, 335136, Note_on_c, 0, 73, 80
2, 335136, Note_on_c, 0, 70, 80
2, 335224, Control_c, 0, 64, 0
2, 335228, Note_off_c, 0, 73, 100
2, 335228, Note_off_c, 0, 70, 100
2, 335232, Control_c, 0, 64, 127
2, 335232, Note_on_c, 0, 77, 80
2, 335324, Note_off_c, 0, 77, 100
2, 335328, Note_on_c, 0, 72, 80
2, 335328, Note_on_c, 0, 69, 80
2, 335420, Note_off_c, 0, 72, 100
2, 335420, Note_off_c, 0, 69, 100
2, 335424, Note_on_c, 0, 77, 80
2, 335516, Note_off_c, 0, 77, 100
2, 335520, Note_on_c, 0, 72, 80
2, 335520, Note_on_c, 0, 69, 80
2, 335608, Control_c, 0, 64, 0
2, 335612, Note_off_c, 0, 72, 100
2, 335612, Note_off_c, 0, 69, 100
2, 335616, Control_c, 0, 64, 127
2, 335616, Note_on_c, 0, 76, 80
2, 335708, Note_off_c, 0, 76, 100
2, 335712, Note_on_c, 0, 73, 80
2, 335712, Note_on_c, 0, 70, 80
2, 335804, Note_off_c, 0, 73, 100
2, 335804, Note_off_c, 0, 70, 100
2, 335808, Note_on_c, 0, 79, 80
2, 335900, Note_off_c, 0, 79, 100
2, 335904, Note_on_c, 0, 73, 80
2, 335904, Note_on_c, 0, 70, 80
2, 335992, Control_c, 0, 64, 0
2, 335996, Note_off_c, 0, 73, 100
2, 335996, Note_off_c, 0, 70, 100
2, 336000, Control_c, 0, 64, 127
2, 336000, Note_on_c, 0, 77, 80
2, 336092, Note_off_c, 0, 77, 100
2, 336096, Note_on_c, 0, 72, 80
2, 336096, Note_on_c, 0, 69, 80
2, 336188, Note_off_c, 0, 72, 100
2, 336188, Note_off_c, 0, 69, 100
2, 336192, Note_on_c, 0, 77, 80
2, 336284, Note_off_c, 0, 77, 100
2, 336288, Note_on_c, 0, 72, 80
2, 336288, Note_on_c, 0, 69, 80
2, 336376, Control_c, 0, 64, 0
2, 336380, Note_off_c, 0, 72, 100
2, 336380, Note_off_c, 0, 69, 100
2, 336384, Control_c, 0, 64, 127
2, 336384, Note_on_c, 0, 76, 80
2, 336476, Note_off_c, 0, 76, 100
2, 336480, Note_on_c, 0, 73, 80
2, 336480, Note_on_c, 0, 70, 80
2, 336572, Note_off_c, 0, 73, 100
2, 336572, Note_off_c, 0, 70, 100
2, 336576, Note_on_c, 0, 79, 80
2, 336668, Note_off_c, 0, 79, 100
2, 336672, Note_on_c, 0, 73, 80
2, 336672, Note_on_c, 0, 70, 80
2, 336760, Control_c, 0, 64, 0
2, 336764, Note_off_c, 0, 73, 100
2, 336764, Note_off_c, 0, 70, 100
2, 336768, Note_on_c, 0, 77, 80
2, 336768, Note_on_c, 0, 72, 80
2, 336768, Note_on_c, 0, 69, 80
2, 336860, Note_off_c, 0, 77, 100
2, 336860, Note_off_c, 0, 72, 100
2, 336860, Note_off_c, 0, 69, 100
2, 336864, Note_on_c, 0, 65, 80
2, 336956, Note_off_c, 0, 65, 100
2, 336960, Note_on_c, 0, 67, 80
2, 337052, Note_off_c, 0, 67, 100
2, 337056, Note_on_c, 0, 69, 80
2, 337148, Note_off_c, 0, 69, 100
2, 337152, Note_on_c, 0, 70, 80
2, 337244, Note_off_c, 0, 70, 100
2, 337248, Note_on_c, 0, 72, 80
2, 337340, Note_off_c, 0, 72, 100
2, 337344, Note_on_c, 0, 74, 80
2, 337436, Note_off_c, 0, 74, 100
2, 337440, Note_on_c, 0, 76, 80
2, 337532, Note_off_c, 0, 76, 100
2, 337536, Note_on_c, 0, 77, 80
2, 337628, Note_off_c, 0, 77, 100
2, 337632, Note_on_c, 0, 76, 80
2, 337724, Note_off_c, 0, 76, 100
2, 337728, Note_on_c, 0, 77, 80
2, 337820, Note_off_c, 0, 77, 100
2, 337824, Note_on_c, 0, 76, 80
2, 337916, Note_off_c, 0, 76, 100
2, 337920, Note_on_c, 0, 77, 80
2, 338012, Note_off_c, 0, 77, 100
2, 338016, Note_on_c, 0, 76, 80
2, 338108, Note_off_c, 0, 76, 100
2, 338112, Note_on_c, 0, 77, 80
2, 338204, Note_off_c, 0, 77, 100
2, 338208, Note_on_c, 0, 76, 80
2, 338300, Note_off_c, 0, 76, 100
2, 338304, Note_on_c, 0, 77, 70
2, 338304, Note_on_c, 0, 74, 70
2, 339068, Note_off_c, 0, 77, 100
2, 339068, Note_off_c, 0, 74, 100
2, 339072, Note_on_c, 0, 74, 70
2, 339452, Note_off_c, 0, 74, 100
2, 339456, Note_on_c, 0, 82, 70
2, 339836, Note_off_c, 0, 82, 100
2, 339840, Note_on_c, 0, 77, 70
2, 339840, Note_on_c, 0, 74, 70
2, 340220, Note_off_c, 0, 77, 100
2, 340220, Note_off_c, 0, 74, 100
2, 340224, Note_on_c, 0, 82, 70
2, 340224, Note_on_c, 0, 86, 70
2, 340604, Note_off_c, 0, 82, 100
2, 340604, Note_off_c, 0, 86, 100
2, 340608, Note_on_c, 0, 77, 70
2, 340608, Note_on_c, 0, 74, 70
2, 340988, Note_off_c, 0, 77, 100
2, 340988, Note_off_c, 0, 74, 100
2, 340992, Note_on_c, 0, 86, 70
2, 340992, Note_on_c, 0, 89, 70
2, 341372, Note_off_c, 0, 86, 100
2, 341372, Note_off_c, 0, 89, 100
2, 341376, Note_on_c, 0, 77, 70
2, 341376, Note_on_c, 0, 74, 70
2, 342140, Note_off_c, 0, 77, 100
2, 342140, Note_off_c, 0, 74, 100
2, 342144, Note_on_c, 0, 74, 70
2, 342524, Note_off_c, 0, 74, 100
2, 342528, Note_on_c, 0, 82, 70
2, 342908, Note_off_c, 0, 82, 100
2, 342912, Note_on_c, 0, 77, 70
2, 342912, Note_on_c, 0, 74, 70
2, 343292, Note_off_c, 0, 77, 100
2, 343292, Note_off_c, 0, 74, 100
2, 343296, Note_on_c, 0, 82, 70
2, 343296, Note_on_c, 0, 86, 70
2, 343676, Note_off_c, 0, 82, 100
2, 343676, Note_off_c, 0, 86, 100
2, 343680, Note_on_c, 0, 77, 70
2, 343680, Note_on_c, 0, 74, 70
2, 344060, Note_off_c, 0, 77, 100
2, 344060, Note_off_c, 0, 74, 100
2, 344064, Note_on_c, 0, 86, 70
2, 344064, Note_on_c, 0, 89, 70
2, 344444, Note_off_c, 0, 86, 100
2, 344444, Note_off_c, 0, 89, 100
2, 344448, Note_on_c, 0, 83, 70
2, 344448, Note_on_c, 0, 79, 70
2, 344448, Note_on_c, 0, 77, 70
2, 344448, Note_on_c, 0, 74, 70
2, 345212, Note_off_c, 0, 83, 100
2, 345212, Note_off_c, 0, 79, 100
2, 345212, Note_off_c, 0, 77, 100
2, 345212, Note_off_c, 0, 74, 100
2, 346368, Note_on_c, 0, 83, 75
2, 346748, Note_off_c, 0, 83, 100
2, 346752, Note_on_c, 0, 86, 80
2, 347132, Note_off_c, 0, 86, 100
2, 347136, Note_on_c, 0, 89, 85
2, 347520, Note_on_c, 0, 83, 90
2, 347900, Note_off_c, 0, 89, 100
2, 347904, Note_on_c, 0, 87, 95
2, 348284, Note_off_c, 0, 83, 100
2, 348288, Note_on_c, 0, 84, 100
2, 348672, Note_on_c, 0, 78, 106
2, 349052, Note_off_c, 0, 78, 100
2, 349056, Note_on_c, 0, 77, 110
2, 349436, Note_off_c, 0, 84, 100
2, 349436, Note_off_c, 0, 87, 100
2, 349440, Note_on_c, 0, 86, 110
2, 349440, Note_on_c, 0, 82, 110
2, 349820, Note_off_c, 0, 77, 100
2, 349820, Note_off_c, 0, 86, 100
2, 349820, Note_off_c, 0, 82, 100
2, 349824, Note_on_c, 0, 84, 110
2, 349824, Note_on_c, 0, 79, 110
2, 349824, Note_on_c, 0, 75, 110
2, 350204, Note_off_c, 0, 84, 100
2, 350204, Note_off_c, 0, 79, 100
2, 350204, Note_off_c, 0, 75, 100
2, 350208, Note_on_c, 0, 81, 110
2, 350208, Note_on_c, 0, 75, 110
2, 350208, Note_on_c, 0, 72, 110
2, 350588, Note_off_c, 0, 81, 100
2, 350588, Note_off_c, 0, 75, 100
2, 350588, Note_off_c, 0, 72, 100
2, 350592, Note_on_c, 0, 82, 110
2, 350592, Note_on_c, 0, 74, 110
2, 350592, Note_on_c, 0, 70, 110
2, 350972, Note_off_c, 0, 82, 100
2, 350972, Note_off_c, 0, 74, 100
2, 350972, Note_off_c, 0, 70, 100
2, 351360, Note_on_c, 0, 74, 110
2, 351360, Note_on_c, 0, 70, 110
2, 352124, Note_off_c, 0, 74, 100
2, 352124, Note_off_c, 0, 70, 100
2, 352128, Note_on_c, 0, 70, 110
2, 352128, Note_on_c, 0, 67, 110
2, 352508, Note_off_c, 0, 70, 100
2, 352508, Note_off_c, 0, 67, 100
2, 352512, Note_on_c, 0, 67, 110
2, 352512, Note_on_c, 0, 63, 110
2, 352892, Note_off_c, 0, 67, 100
2, 352892, Note_off_c, 0, 63, 100
2, 352896, Note_on_c, 0, 75, 110
2, 352896, Note_on_c, 0, 72, 110
2, 353468, Note_off_c, 0, 75, 100
2, 353468, Note_off_c, 0, 72, 100
2, 353472, Note_on_c, 0, 74, 110
2, 353472, Note_on_c, 0, 70, 110
2, 353660, Note_off_c, 0, 74, 100
2, 353660, Note_off_c, 0, 70, 100
2, 353664, Note_on_c, 0, 72, 110
2, 353664, Note_on_c, 0, 69, 110
2, 354044, Note_off_c, 0, 72, 100
2, 354044, Note_off_c, 0, 69, 100
2, 354048, Note_on_c, 0, 69, 110
2, 354048, Note_on_c, 0, 65, 110
2, 354428, Note_off_c, 0, 69, 100
2, 354428, Note_off_c, 0, 65, 100
2, 354432, Note_on_c, 0, 77, 110
2, 354432, Note_on_c, 0, 74, 110
2, 355196, Note_off_c, 0, 77, 100
2, 355196, Note_off_c, 0, 74, 100
2, 355200, Note_on_c, 0, 74, 110
2, 355200, Note_on_c, 0, 70, 110
2, 355580, Note_off_c, 0, 74, 100
2, 355580, Note_off_c, 0, 70, 100
2, 355584, Note_on_c, 0, 70, 110
2, 355584, Note_on_c, 0, 67, 110
2, 355964, Note_off_c, 0, 70, 100
2, 355964, Note_off_c, 0, 67, 100
2, 355968, Note_on_c, 0, 79, 110
2, 355968, Note_on_c, 0, 75, 110
2, 356540, Note_off_c, 0, 79, 100
2, 356540, Note_off_c, 0, 75, 100
2, 356544, Note_on_c, 0, 77, 110
2, 356544, Note_on_c, 0, 74, 110
2, 356732, Note_off_c, 0, 77, 100
2, 356732, Note_off_c, 0, 74, 100
2, 356736, Note_on_c, 0, 72, 110
2, 356736, Note_on_c, 0, 75, 110
2, 357116, Note_off_c, 0, 72, 100
2, 357116, Note_off_c, 0, 75, 100
2, 357120, Note_on_c, 0, 69, 110
2, 357120, Note_on_c, 0, 72, 110
2, 357500, Note_off_c, 0, 69, 100
2, 357500, Note_off_c, 0, 72, 100
2, 357504, Note_on_c, 0, 84, 110
2, 357504, Note_on_c, 0, 75, 110
2, 358076, Note_off_c, 0, 84, 100
2, 358076, Note_off_c, 0, 75, 100
2, 358080, Note_on_c, 0, 82, 110
2, 358080, Note_on_c, 0, 74, 110
2, 358268, Note_off_c, 0, 82, 100
2, 358268, Note_off_c, 0, 74, 100
2, 358272, Note_on_c, 0, 81, 110
2, 358272, Note_on_c, 0, 72, 110
2, 358844, Note_off_c, 0, 81, 100
2, 358844, Note_off_c, 0, 72, 100
2, 358848, Note_on_c, 0, 79, 110
2, 358848, Note_on_c, 0, 70, 110
2, 359036, Note_off_c, 0, 79, 100
2, 359036, Note_off_c, 0, 70, 100
2, 359040, Note_on_c, 0, 77, 110
2, 359040, Note_on_c, 0, 69, 110
2, 359420, Note_off_c, 0, 77, 100
2, 359420, Note_off_c, 0, 69, 100
2, 359424, Note_on_c, 0, 75, 105
2, 359424, Note_on_c, 0, 63, 105
2, 359804, Note_off_c, 0, 75, 100
2, 359804, Note_off_c, 0, 63, 100
2, 359808, Note_on_c, 0, 74, 99
2, 359808, Note_on_c, 0, 62, 99
2, 360188, Note_off_c, 0, 74, 100
2, 360188, Note_off_c, 0, 62, 100
2, 360192, Note_on_c, 0, 72, 93
2, 360192, Note_on_c, 0, 66, 93
2, 360572, Note_off_c, 0, 72, 100
2, 360572, Note_off_c, 0, 66, 100
2, 360576, Note_on_c, 0, 70, 87
2, 360576, Note_on_c, 0, 67, 87
2, 360956, Note_off_c, 0, 70, 100
2, 360956, Note_off_c, 0, 67, 100
2, 360960, Note_on_c, 0, 67, 81
2, 360960, Note_on_c, 0, 60, 81
2, 361340, Note_off_c, 0, 67, 100
2, 361340, Note_off_c, 0, 60, 100
2, 361728, Note_on_c, 0, 65, 80
2, 361728, Note_on_c, 0, 62, 80
2, 361728, Note_on_c, 0, 58, 80
2, 362108, Note_off_c, 0, 65, 100
2, 362108, Note_off_c, 0, 62, 100
2, 362108, Note_off_c, 0, 58, 100
2, 362496, Note_on_c, 0, 65, 80
2, 362496, Note_on_c, 0, 60, 80
2, 362496, Note_on_c, 0, 57, 80
2, 362876, Note_off_c, 0, 65, 100
2, 362876, Note_off_c, 0, 60, 100
2, 362876, Note_off_c, 0, 57, 100
2, 363264, Note_on_c, 0, 62, 80
2, 363264, Note_on_c, 0, 58, 80
2, 363264, Note_on_c, 0, 53, 80
2, 363644, Note_off_c, 0, 62, 100
2, 363644, Note_off_c, 0, 58, 100
2, 363644, Note_off_c, 0, 53, 100
2, 363840, Note_on_c, 0, 74, 110
2, 363840, Note_on_c, 0, 70, 110
2, 364220, Note_off_c, 0, 74, 100
2, 364220, Note_off_c, 0, 70, 100
2, 364224, Note_on_c, 0, 74, 110
2, 364224, Note_on_c, 0, 70, 110
2, 364412, Note_off_c, 0, 74, 100
2, 364412, Note_off_c, 0, 70, 100
2, 364608, Note_on_c, 0, 70, 110
2, 364608, Note_on_c, 0, 67, 110
2, 364796, Note_off_c, 0, 70, 100
2, 364796, Note_off_c, 0, 67, 100
2, 364992, Note_on_c, 0, 67, 110
2, 364992, Note_on_c, 0, 63, 110
2, 365180, Note_off_c, 0, 67, 100
2, 365180, Note_off_c, 0, 63, 100
2, 365376, Note_on_c, 0, 75, 110
2, 365376, Note_on_c, 0, 72, 110
2, 365756, Note_off_c, 0, 75, 100
2, 365756, Note_off_c, 0, 72, 100
2, 365760, Note_on_c, 0, 74, 110
2, 365760, Note_on_c, 0, 70, 110
2, 365948, Note_off_c, 0, 74, 100
2, 365948, Note_off_c, 0, 70, 100
2, 366144, Note_on_c, 0, 72, 110
2, 366144, Note_on_c, 0, 69, 110
2, 366332, Note_off_c, 0, 72, 100
2, 366332, Note_off_c, 0, 69, 100
2, 366528, Note_on_c, 0, 69, 110
2, 366528, Note_on_c, 0, 65, 110
2, 366716, Note_off_c, 0, 69, 100
2, 366716, Note_off_c, 0, 65, 100
2, 366912, Note_on_c, 0, 77, 110
2, 366912, Note_on_c, 0, 74, 110
2, 367292, Note_off_c, 0, 77, 100
2, 367292, Note_off_c, 0, 74, 100
2, 367296, Note_on_c, 0, 77, 110
2, 367296, Note_on_c, 0, 74, 110
2, 367484, Note_off_c, 0, 77, 100
2, 367484, Note_off_c, 0, 74, 100
2, 367680, Note_on_c, 0, 74, 110
2, 367680, Note_on_c, 0, 70, 110
2, 367868, Note_off_c, 0, 74, 100
2, 367868, Note_off_c, 0, 70, 100
2, 368064, Note_on_c, 0, 70, 110
2, 368064, Note_on_c, 0, 67, 110
2, 368252, Note_off_c, 0, 70, 100
2, 368252, Note_off_c, 0, 67, 100
2, 368448, Note_on_c, 0, 75, 110
2, 368448, Note_on_c, 0, 79, 110
2, 368828, Note_off_c, 0, 75, 100
2, 368828, Note_off_c, 0, 79, 100
2, 368832, Note_on_c, 0, 77, 110
2, 368832, Note_on_c, 0, 74, 110
2, 369020, Note_off_c, 0, 77, 100
2, 369020, Note_off_c, 0, 74, 100
2, 369216, Note_on_c, 0, 75, 110
2, 369216, Note_on_c, 0, 72, 110
2, 369404, Note_off_c, 0, 75, 100
2, 369404, Note_off_c, 0, 72, 100
2, 369600, Note_on_c, 0, 72, 110
2, 369600, Note_on_c, 0, 69, 110
2, 369788, Note_off_c, 0, 72, 100
2, 369788, Note_off_c, 0, 69, 100
2, 369984, Note_on_c, 0, 75, 110
2, 369984, Note_on_c, 0, 84, 110
2, 370364, Note_off_c, 0, 75, 100
2, 370364, Note_off_c, 0, 84, 100
2, 370368, Note_on_c, 0, 82, 110
2, 370368, Note_on_c, 0, 74, 110
2, 370556, Note_off_c, 0, 82, 100
2, 370556, Note_off_c, 0, 74, 100
2, 370752, Note_on_c, 0, 81, 110
2, 370752, Note_on_c, 0, 72, 110
2, 371132, Note_off_c, 0, 81, 100
2, 371132, Note_off_c, 0, 72, 100
2, 371136, Note_on_c, 0, 79, 110
2, 371136, Note_on_c, 0, 70, 110
2, 371324, Note_off_c, 0, 79, 100
2, 371324, Note_off_c, 0, 70, 100
2, 371520, Note_on_c, 0, 69, 110
2, 371520, Note_on_c, 0, 77, 110
2, 371708, Note_off_c, 0, 69, 100
2, 371708, Note_off_c, 0, 77, 100
2, 371904, Note_on_c, 0, 63, 110
2, 371904, Note_on_c, 0, 75, 110
2, 372092, Note_off_c, 0, 63, 100
2, 372092, Note_off_c, 0, 75, 100
2, 372096, Control_c, 0, 64, 127
2, 372096, Note_on_c, 0, 74, 80
2, 372188, Note_off_c, 0, 74, 100
2, 372192, Note_on_c, 0, 62, 80
2, 372284, Note_off_c, 0, 62, 100
2, 372288, Note_on_c, 0, 66, 80
2, 372380, Note_off_c, 0, 66, 100
2, 372384, Note_on_c, 0, 69, 81
2, 372472, Control_c, 0, 64, 0
2, 372476, Note_off_c, 0, 69, 100
2, 372480, Control_c, 0, 64, 127
2, 372480, Note_on_c, 0, 74, 81
2, 372572, Note_off_c, 0, 74, 100
2, 372576, Note_on_c, 0, 78, 82
2, 372668, Note_off_c, 0, 78, 100
2, 372672, Note_on_c, 0, 81, 82
2, 372764, Note_off_c, 0, 81, 100
2, 372768, Note_on_c, 0, 85, 82
2, 372856, Control_c, 0, 64, 0
2, 372860, Note_off_c, 0, 85, 100
2, 372864, Control_c, 0, 64, 127
2, 372864, Note_on_c, 0, 86, 83
2, 372956, Note_off_c, 0, 86, 100
2, 372960, Note_on_c, 0, 85, 83
2, 373052, Note_off_c, 0, 85, 100
2, 373056, Note_on_c, 0, 86, 84
2, 373148, Note_off_c, 0, 86, 100
2, 373152, Note_on_c, 0, 85, 84
2, 373240, Control_c, 0, 64, 0
2, 373244, Note_off_c, 0, 85, 100
2, 373248, Control_c, 0, 64, 127
2, 373248, Note_on_c, 0, 86, 85
2, 373340, Note_off_c, 0, 86, 100
2, 373344, Note_on_c, 0, 81, 85
2, 373436, Note_off_c, 0, 81, 100
2, 373440, Note_on_c, 0, 78, 85
2, 373532, Note_off_c, 0, 78, 100
2, 373536, Note_on_c, 0, 74, 86
2, 373624, Control_c, 0, 64, 0
2, 373628, Note_off_c, 0, 74, 100
2, 373632, Control_c, 0, 64, 127
2, 373632, Control_c, 0, 64, 127
2, 373728, Note_on_c, 0, 62, 87
2, 373820, Note_off_c, 0, 62, 100
2, 373824, Note_on_c, 0, 67, 87
2, 373916, Note_off_c, 0, 67, 100
2, 373920, Note_on_c, 0, 70, 87
2, 374008, Control_c, 0, 64, 0
2, 374008, Control_c, 0, 64, 0
2, 374012, Note_off_c, 0, 70, 100
2, 374016, Control_c, 0, 64, 127
2, 374016, Control_c, 0, 64, 127
2, 374016, Note_on_c, 0, 74, 88
2, 374108, Note_off_c, 0, 74, 100
2, 374112, Note_on_c, 0, 79, 88
2, 374204, Note_off_c, 0, 79, 100
2, 374208, Note_on_c, 0, 82, 89
2, 374300, Note_off_c, 0, 82, 100
2, 374304, Note_on_c, 0, 85, 89
2, 374392, Control_c, 0, 64, 0
2, 374392, Control_c, 0, 64, 0
2, 374396, Note_off_c, 0, 85, 100
2, 374400, Control_c, 0, 64, 127
2, 374400, Control_c, 0, 64, 127
2, 374400, Note_on_c, 0, 86, 90
2, 374492, Note_off_c, 0, 86, 100
2, 374496, Note_on_c, 0, 85, 90
2, 374588, Note_off_c, 0, 85, 100
2, 374592, Note_on_c, 0, 86, 90
2, 374684, Note_off_c, 0, 86, 100
2, 374688, Note_on_c, 0, 85, 91
2, 374776, Control_c, 0, 64, 0
2, 374776, Control_c, 0, 64, 0
2, 374780, Note_off_c, 0, 85, 100
2, 374784, Control_c, 0, 64, 127
2, 374784, Control_c, 0, 64, 127
2, 374784, Note_on_c, 0, 86, 91
2, 374876, Note_off_c, 0, 86, 100
2, 374880, Note_on_c, 0, 82, 92
2, 374972, Note_off_c, 0, 82, 100
2, 374976, Note_on_c, 0, 79, 92
2, 375068, Note_off_c, 0, 79, 100
2, 375072, Note_on_c, 0, 74, 92
2, 375160, Control_c, 0, 64, 0
2, 375160, Control_c, 0, 64, 0
2, 375164, Note_off_c, 0, 74, 100
2, 375168, Control_c, 0, 64, 127
2, 375264, Note_on_c, 0, 61, 93
2, 375356, Note_off_c, 0, 61, 100
2, 375360, Note_on_c, 0, 64, 94
2, 375452, Note_off_c, 0, 64, 100
2, 375456, Note_on_c, 0, 67, 94
2, 375544, Control_c, 0, 64, 0
2, 375548, Note_off_c, 0, 67, 100
2, 375552, Control_c, 0, 64, 127
2, 375552, Note_on_c, 0, 70, 95
2, 375644, Note_off_c, 0, 70, 100
2, 375648, Note_on_c, 0, 73, 95
2, 375740, Note_off_c, 0, 73, 100
2, 375744, Note_on_c, 0, 76, 95
2, 375836, Note_off_c, 0, 76, 100
2, 375840, Note_on_c, 0, 79, 96
2, 375928, Control_c, 0, 64, 0
2, 375932, Note_off_c, 0, 79, 100
2, 375936, Control_c, 0, 64, 127
2, 375936, Note_on_c, 0, 82, 96
2, 376028, Note_off_c, 0, 82, 100
2, 376032, Note_on_c, 0, 79, 97
2, 376124, Note_off_c, 0, 79, 100
2, 376128, Note_on_c, 0, 85, 97
2, 376220, Note_off_c, 0, 85, 100
2, 376224, Note_on_c, 0, 82, 97
2, 376312, Control_c, 0, 64, 0
2, 376316, Note_off_c, 0, 82, 100
2, 376320, Control_c, 0, 64, 127
2, 376320, Note_on_c, 0, 79, 98
2, 376412, Note_off_c, 0, 79, 100
2, 376416, Note_on_c, 0, 76, 98
2, 376508, Note_off_c, 0, 76, 100
2, 376512, Note_on_c, 0, 73, 99
2, 376604, Note_off_c, 0, 73, 100
2, 376608, Note_on_c, 0, 70, 99
2, 376696, Control_c, 0, 64, 0
2, 376700, Note_off_c, 0, 70, 100
2, 376704, Control_c, 0, 64, 127
2, 376800, Note_on_c, 0, 57, 100
2, 376892, Note_off_c, 0, 57, 100
2, 376896, Note_on_c, 0, 60, 100
2, 376988, Note_off_c, 0, 60, 100
2, 376992, Note_on_c, 0, 63, 100
2, 377080, Control_c, 0, 64, 0
2, 377084, Note_off_c, 0, 63, 100
2, 377088, Control_c, 0, 64, 127
2, 377088, Note_on_c, 0, 66, 100
2, 377180, Note_off_c, 0, 66, 100
2, 377184, Note_on_c, 0, 69, 100
2, 377276, Note_off_c, 0, 69, 100
2, 377280, Note_on_c, 0, 72, 100
2, 377372, Note_off_c, 0, 72, 100
2, 377376, Note_on_c, 0, 75, 100
2, 377464, Control_c, 0, 64, 0
2, 377468, Note_off_c, 0, 75, 100
2, 377472, Control_c, 0, 64, 127
2, 377472, Note_on_c, 0, 78, 100
2, 377564, Note_off_c, 0, 78, 100
2, 377568, Note_on_c, 0, 81, 100
2, 377660, Note_off_c, 0, 81, 100
2, 377664, Note_on_c, 0, 69, 100
2, 377756, Note_off_c, 0, 69, 100
2, 377760, Note_on_c, 0, 81, 100
2, 377848, Control_c, 0, 64, 0
2, 377852, Note_off_c, 0, 81, 100
2, 377856, Control_c, 0, 64, 127
2, 377856, Note_on_c, 0, 69, 100
2, 377948, Note_off_c, 0, 69, 100
2, 377952, Note_on_c, 0, 81, 100
2, 378044, Note_off_c, 0, 81, 100
2, 378048, Note_on_c, 0, 69, 100
2, 378140, Note_off_c, 0, 69, 100
2, 378144, Note_on_c, 0, 81, 100
2, 378232, Control_c, 0, 64, 0
2, 378236, Note_off_c, 0, 81, 100
2, 378240, Control_c, 0, 64, 127
2, 378240, Note_on_c, 0, 70, 110
2, 378332, Note_off_c, 0, 70, 100
2, 378336, Note_on_c, 0, 82, 110
2, 378428, Note_off_c, 0, 82, 100
2, 378432, Note_on_c, 0, 69, 110
2, 378524, Note_off_c, 0, 69, 100
2, 378528, Note_on_c, 0, 81, 110
2, 378616, Control_c, 0, 64, 0
2, 378620, Note_off_c, 0, 81, 100
2, 378624, Control_c, 0, 64, 127
2, 378624, Note_on_c, 0, 70, 110
2, 378716, Note_off_c, 0, 70, 100
2, 378720, Note_on_c, 0, 82, 110
2, 378812, Note_off_c, 0, 82, 100
2, 378816, Note_on_c, 0, 63, 110
2, 378908, Note_off_c, 0, 63, 100
2, 378912, Note_on_c, 0, 75, 110
2, 379000, Control_c, 0, 64, 0
2, 379004, Note_off_c, 0, 75, 100
2, 379008, Control_c, 0, 64, 127
2, 379008, Note_on_c, 0, 62, 110
2, 379100, Note_off_c, 0, 62, 100
2, 379104, Note_on_c, 0, 74, 110
2, 379196, Note_off_c, 0, 74, 100
2, 379200, Note_on_c, 0, 69, 110
2, 379292, Note_off_c, 0, 69, 100
2, 379296, Note_on_c, 0, 81, 110
2, 379384, Control_c, 0, 64, 0
2, 379388, Note_off_c, 0, 81, 100
2, 379392, Control_c, 0, 64, 127
2, 379392, Note_on_c, 0, 70, 110
2, 379484, Note_off_c, 0, 70, 100
2, 379488, Note_on_c, 0, 82, 110
2, 379580, Note_off_c, 0, 82, 100
2, 379584, Note_on_c, 0, 63, 110
2, 379676, Note_off_c, 0, 63, 100
2, 379680, Note_on_c, 0, 75, 110
2, 379768, Control_c, 0, 64, 0
2, 379772, Note_off_c, 0, 75, 100
2, 379776, Control_c, 0, 64, 127
2, 379776, Note_on_c, 0, 62, 110
2, 379868, Note_off_c, 0, 62, 100
2, 379872, Note_on_c, 0, 74, 110
2, 379964, Note_off_c, 0, 74, 100
2, 379968, Note_on_c, 0, 69, 110
2, 380060, Note_off_c, 0, 69, 100
2, 380064, Note_on_c, 0, 81, 110
2, 380152, Control_c, 0, 64, 0
2, 380156, Note_off_c, 0, 81, 100
2, 380160, Control_c, 0, 64, 127
2, 380160, Note_on_c, 0, 70, 110
2, 380252, Note_off_c, 0, 70, 100
2, 380256, Note_on_c, 0, 82, 110
2, 380348, Note_off_c, 0, 82, 100
2, 380352, Note_on_c, 0, 63, 110
2, 380444, Note_off_c, 0, 63, 100
2, 380448, Note_on_c, 0, 75, 110
2, 380536, Control_c, 0, 64, 0
2, 380540, Note_off_c, 0, 75, 100
2, 380544, Control_c, 0, 64, 127
2, 380544, Note_on_c, 0, 62, 110
2, 380636, Note_off_c, 0, 62, 100
2, 380640, Note_on_c, 0, 74, 110
2, 380732, Note_off_c, 0, 74, 100
2, 380736, Note_on_c, 0, 69, 110
2, 380828, Note_off_c, 0, 69, 100
2, 380832, Note_on_c, 0, 81, 110
2, 380920, Control_c, 0, 64, 0
2, 380924, Note_off_c, 0, 81, 100
2, 380928, Control_c, 0, 64, 127
2, 380928, Note_on_c, 0, 70, 110
2, 381020, Note_off_c, 0, 70, 100
2, 381024, Note_on_c, 0, 82, 110
2, 381116, Note_off_c, 0, 82, 100
2, 381120, Note_on_c, 0, 63, 110
2, 381212, Note_off_c, 0, 63, 100
2, 381216, Note_on_c, 0, 75, 110
2, 381304, Control_c, 0, 64, 0
2, 381308, Note_off_c, 0, 75, 100
2, 381312, Control_c, 0, 64, 127
2, 381312, Note_on_c, 0, 62, 110
2, 381404, Note_off_c, 0, 62, 100
2, 381408, Note_on_c, 0, 74, 110
2, 381500, Note_off_c, 0, 74, 100
2, 381504, Note_on_c, 0, 69, 110
2, 381596, Note_off_c, 0, 69, 100
2, 381600, Note_on_c, 0, 81, 110
2, 381688, Control_c, 0, 64, 0
2, 381692, Note_off_c, 0, 81, 100
2, 381696, Control_c, 0, 64, 127
2, 381696, Note_on_c, 0, 70, 110
2, 381788, Note_off_c, 0, 70, 100
2, 381792, Note_on_c, 0, 82, 110
2, 381884, Note_off_c, 0, 82, 100
2, 381888, Note_on_c, 0, 69, 110
2, 381980, Note_off_c, 0, 69, 100
2, 381984, Note_on_c, 0, 81, 110
2, 382072, Control_c, 0, 64, 0
2, 382076, Note_off_c, 0, 81, 100
2, 382080, Control_c, 0, 64, 127
2, 382080, Note_on_c, 0, 67, 110
2, 382172, Note_off_c, 0, 67, 100
2, 382176, Note_on_c, 0, 79, 110
2, 382268, Note_off_c, 0, 79, 100
2, 382272, Note_on_c, 0, 65, 110
2, 382364, Note_off_c, 0, 65, 100
2, 382368, Note_on_c, 0, 77, 110
2, 382456, Control_c, 0, 64, 0
2, 382460, Note_off_c, 0, 77, 100
2, 382464, Control_c, 0, 64, 127
2, 382464, Note_on_c, 0, 63, 110
2, 382556, Note_off_c, 0, 63, 100
2, 382560, Note_on_c, 0, 75, 110
2, 382652, Note_off_c, 0, 75, 100
2, 382656, Note_on_c, 0, 62, 110
2, 382748, Note_off_c, 0, 62, 100
2, 382752, Note_on_c, 0, 74, 110
2, 382840, Control_c, 0, 64, 0
2, 382844, Note_off_c, 0, 74, 100
2, 382848, Note_on_c, 0, 60, 110
2, 382940, Note_off_c, 0, 60, 100
2, 382944, Note_on_c, 0, 72, 110
2, 383036, Note_off_c, 0, 72, 100
2, 383040, Note_on_c, 0, 58, 110
2, 383132, Note_off_c, 0, 58, 100
2, 383136, Note_on_c, 0, 70, 110
2, 383228, Note_off_c, 0, 70, 100
2, 383232, Note_on_c, 0, 57, 110
2, 383324, Note_off_c, 0, 57, 100
2, 383328, Note_on_c, 0, 69, 110
2, 383420, Note_off_c, 0, 69, 100
2, 383424, Note_on_c, 0, 55, 110
2, 383516, Note_off_c, 0, 55, 100
2, 383520, Note_on_c, 0, 67, 110
2, 383612, Note_off_c, 0, 67, 100
2, 383616, Note_on_c, 0, 53, 110
2, 383708, Note_off_c, 0, 53, 100
2, 383712, Note_on_c, 0, 65, 110
2, 383804, Note_off_c, 0, 65, 100
2, 383808, Note_on_c, 0, 51, 110
2, 383900, Note_off_c, 0, 51, 100
2, 383904, Note_on_c, 0, 63, 110
2, 383996, Note_off_c, 0, 63, 100
2, 384000, Note_on_c, 0, 50, 110
2, 384092, Note_off_c, 0, 50, 100
2, 384096, Note_on_c, 0, 62, 110
2, 384188, Note_off_c, 0, 62, 100
2, 384192, Note_on_c, 0, 48, 110
2, 384284, Note_off_c, 0, 48, 100
2, 384288, Note_on_c, 0, 60, 110
2, 384380, Note_off_c, 0, 60, 100
2, 384384, Control_c, 0, 64, 127
2, 384384, Note_on_c, 0, 58, 110
2, 384384, Note_on_c, 0, 46, 110
2, 384572, Note_off_c, 0, 58, 100
2, 384572, Note_off_c, 0, 46, 100
2, 384576, Note_on_c, 0, 57, 80
2, 384668, Note_off_c, 0, 57, 100
2, 384672, Note_on_c, 0, 53, 80
2, 384760, Control_c, 0, 64, 0
2, 384764, Note_off_c, 0, 53, 100
2, 384768, Control_c, 0, 64, 127
2, 384768, Note_on_c, 0, 58, 80
2, 384860, Note_off_c, 0, 58, 100
2, 384864, Note_on_c, 0, 53, 80
2, 384956, Note_off_c, 0, 53, 100
2, 384960, Note_on_c, 0, 63, 80
2, 385052, Note_off_c, 0, 63, 100
2, 385056, Note_on_c, 0, 53, 80
2, 385144, Control_c, 0, 64, 0
2, 385148, Note_off_c, 0, 53, 100
2, 385152, Control_c, 0, 64, 127
2, 385152, Note_on_c, 0, 62, 80
2, 385244, Note_off_c, 0, 62, 100
2, 385248, Note_on_c, 0, 53, 80
2, 385340, Note_off_c, 0, 53, 100
2, 385344, Note_on_c, 0, 57, 80
2, 385436, Note_off_c, 0, 57, 100
2, 385440, Note_on_c, 0, 53, 80
2, 385528, Control_c, 0, 64, 0
2, 385532, Note_off_c, 0, 53, 100
2, 385536, Control_c, 0, 64, 127
2, 385536, Note_on_c, 0, 58, 80
2, 385628, Note_off_c, 0, 58, 100
2, 385632, Note_on_c, 0, 53, 80
2, 385724, Note_off_c, 0, 53, 100
2, 385728, Note_on_c, 0, 63, 80
2, 385820, Note_off_c, 0, 63, 100
2, 385824, Note_on_c, 0, 53, 80
2, 385912, Control_c, 0, 64, 0
2, 385916, Note_off_c, 0, 53, 100
2, 385920, Control_c, 0, 64, 127
2, 385920, Note_on_c, 0, 62, 80
2, 386012, Note_off_c, 0, 62, 100
2, 386016, Note_on_c, 0, 53, 81
2, 386108, Note_off_c, 0, 53, 100
2, 386112, Note_on_c, 0, 57, 82
2, 386204, Note_off_c, 0, 57, 100
2, 386208, Note_on_c, 0, 53, 83
2, 386296, Control_c, 0, 64, 0
2, 386300, Note_off_c, 0, 53, 100
2, 386304, Control_c, 0, 64, 127
2, 386304, Note_on_c, 0, 58, 85
2, 386396, Note_off_c, 0, 58, 100
2, 386400, Note_on_c, 0, 53, 86
2, 386492, Note_off_c, 0, 53, 100
2, 386496, Note_on_c, 0, 63, 87
2, 386588, Note_off_c, 0, 63, 100
2, 386592, Note_on_c, 0, 53, 89
2, 386680, Control_c, 0, 64, 0
2, 386684, Note_off_c, 0, 53, 100
2, 386688, Control_c, 0, 64, 127
2, 386688, Note_on_c, 0, 62, 90
2, 386876, Note_off_c, 0, 62, 100
2, 386880, Note_on_c, 0, 54, 93
2, 386972, Note_off_c, 0, 54, 100
2, 386976, Note_on_c, 0, 66, 94
2, 387064, Control_c, 0, 64, 0
2, 387068, Note_off_c, 0, 66, 100
2, 387072, Control_c, 0, 64, 127
2, 387072, Note_on_c, 0, 55, 95
2, 387164, Note_off_c, 0, 55, 100
2, 387168, Note_on_c, 0, 67, 96
2, 387260, Note_off_c, 0, 67, 100
2, 387264, Note_on_c, 0, 57, 98
2, 387356, Note_off_c, 0, 57, 100
2, 387360, Note_on_c, 0, 69, 99
2, 387448, Control_c, 0, 64, 0
2, 387452, Note_off_c, 0, 69, 100
2, 387456, Control_c, 0, 64, 127
2, 387456, Note_on_c, 0, 58, 100
2, 387548, Note_off_c, 0, 58, 100
2, 387552, Note_on_c, 0, 70, 102
2, 387644, Note_off_c, 0, 70, 100
2, 387648, Note_on_c, 0, 59, 103
2, 387740, Note_off_c, 0, 59, 100
2, 387744, Note_on_c, 0, 71, 104
2, 387832, Control_c, 0, 64, 0
2, 387836, Note_off_c, 0, 71, 100
2, 387840, Control_c, 0, 64, 127
2, 387840, Note_on_c, 0, 60, 106
2, 387932, Note_off_c, 0, 60, 100
2, 387936, Note_on_c, 0, 72, 107
2, 388028, Note_off_c, 0, 72, 100
2, 388032, Note_on_c, 0, 62, 108
2, 388124, Note_off_c, 0, 62, 100
2, 388128, Note_on_c, 0, 74, 109
2, 388216, Control_c, 0, 64, 0
2, 388220, Note_off_c, 0, 74, 100
2, 388224, Control_c, 0, 64, 127
2, 388224, Note_on_c, 0, 63, 110
2, 388316, Note_off_c, 0, 63, 100
2, 388320, Note_on_c, 0, 75, 110
2, 388412, Note_off_c, 0, 75, 100
2, 388416, Note_on_c, 0, 65, 110
2, 388508, Note_off_c, 0, 65, 100
2, 388512, Note_on_c, 0, 77, 110
2, 388600, Control_c, 0, 64, 0
2, 388604, Note_off_c, 0, 77, 100
2, 388608, Control_c, 0, 64, 127
2, 388608, Note_on_c, 0, 67, 110
2, 388700, Note_off_c, 0, 67, 100
2, 388704, Note_on_c, 0, 79, 110
2, 388796, Note_off_c, 0, 79, 100
2, 388800, Note_on_c, 0, 65, 110
2, 388892, Note_off_c, 0, 65, 100
2, 388896, Note_on_c, 0, 77, 110
2, 388984, Control_c, 0, 64, 0
2, 388988, Note_off_c, 0, 77, 100
2, 388992, Control_c, 0, 64, 127
2, 388992, Note_on_c, 0, 63, 110
2, 389084, Note_off_c, 0, 63, 100
2, 389088, Note_on_c, 0, 75, 110
2, 389180, Note_off_c, 0, 75, 100
2, 389184, Note_on_c, 0, 62, 110
2, 389276, Note_off_c, 0, 62, 100
2, 389280, Note_on_c, 0, 74, 110
2, 389368, Control_c, 0, 64, 0
2, 389372, Note_off_c, 0, 74, 100
2, 389376, Control_c, 0, 64, 127
2, 389376, Note_on_c, 0, 60, 110
2, 389468, Note_off_c, 0, 60, 100
2, 389472, Note_on_c, 0, 72, 110
2, 389564, Note_off_c, 0, 72, 100
2, 389568, Note_on_c, 0, 58, 110
2, 389660, Note_off_c, 0, 58, 100
2, 389664, Note_on_c, 0, 70, 110
2, 389752, Control_c, 0, 64, 0
2, 389756, Note_off_c, 0, 70, 100
2, 389760, Control_c, 0, 64, 127
2, 389760, Note_on_c, 0, 57, 110
2, 389852, Note_off_c, 0, 57, 100
2, 389856, Note_on_c, 0, 69, 110
2, 389948, Note_off_c, 0, 69, 100
2, 389952, Note_on_c, 0, 55, 110
2, 390044, Note_off_c, 0, 55, 100
2, 390048, Note_on_c, 0, 67, 110
2, 390136, Control_c, 0, 64, 0
2, 390140, Note_off_c, 0, 67, 100
2, 390144, Control_c, 0, 64, 127
2, 390144, Note_on_c, 0, 53, 110
2, 390236, Note_off_c, 0, 53, 100
2, 390240, Note_on_c, 0, 65, 110
2, 390332, Note_off_c, 0, 65, 100
2, 390336, Note_on_c, 0, 57, 110
2, 390428, Note_off_c, 0, 57, 100
2, 390432, Note_on_c, 0, 69, 110
2, 390520, Control_c, 0, 64, 0
2, 390524, Note_off_c, 0, 69, 100
2, 390528, Note_on_c, 0, 70, 110
2, 390528, Note_on_c, 0, 58, 110
2, 390908, Note_off_c, 0, 70, 100
2, 390908, Note_off_c, 0, 58, 100
2, 391296, Note_on_c, 0, 65, 80
2, 391296, Note_on_c, 0, 62, 80
2, 391872, Note_on_c, 0, 58, 80
2, 392060, Note_off_c, 0, 65, 100
2, 392060, Note_off_c, 0, 62, 100
2, 392060, Note_off_c, 0, 58, 100
2, 392064, Note_on_c, 0, 66, 80
2, 392064, Note_on_c, 0, 63, 80
2, 392640, Note_on_c, 0, 61, 80
2, 392828, Note_off_c, 0, 66, 100
2, 392828, Note_off_c, 0, 63, 100
2, 392828, Note_off_c, 0, 61, 100
2, 392832, Note_on_c, 0, 66, 80
2, 392832, Note_on_c, 0, 63, 80
2, 392832, Note_on_c, 0, 59, 80
2, 393020, Note_off_c, 0, 59, 100
2, 393024, Note_on_c, 0, 58, 80
2, 393212, Note_off_c, 0, 66, 100
2, 393212, Note_off_c, 0, 63, 100
2, 393212, Note_off_c, 0, 58, 100
2, 393216, Note_on_c, 0, 66, 80
2, 393216, Note_on_c, 0, 63, 80
2, 393216, Note_on_c, 0, 59, 80
2, 393404, Note_off_c, 0, 59, 100
2, 393408, Note_on_c, 0, 57, 80
2, 393596, Note_off_c, 0, 66, 100
2, 393596, Note_off_c, 0, 63, 100
2, 393596, Note_off_c, 0, 57, 100
2, 393600, Note_on_c, 0, 65, 80
2, 393600, Note_on_c, 0, 62, 80
2, 393600, Note_on_c, 0, 58, 80
2, 394172, Note_off_c, 0, 65, 100
2, 394172, Note_off_c, 0, 62, 100
2, 394172, Note_off_c, 0, 58, 100
2, 394368, Note_on_c, 0, 65, 80
2, 394368, Note_on_c, 0, 62, 80
2, 394368, Note_on_c, 0, 74, 80
2, 394940, Note_off_c, 0, 74, 100
2, 394944, Note_on_c, 0, 70, 80
2, 395132, Note_off_c, 0, 65, 100
2, 395132, Note_off_c, 0, 62, 100
2, 395132, Note_off_c, 0, 70, 100
2, 395136, Note_on_c, 0, 66, 80
2, 395136, Note_on_c, 0, 63, 80
2, 395136, Note_on_c, 0, 75, 80
2, 395708, Note_off_c, 0, 75, 100
2, 395712, Note_on_c, 0, 73, 80
2, 395900, Note_off_c, 0, 66, 100
2, 395900, Note_off_c, 0, 63, 100
2, 395900, Note_off_c, 0, 73, 100
2, 395904, Note_on_c, 0, 71, 80
2, 395904, Note_on_c, 0, 66, 80
2, 395904, Note_on_c, 0, 63, 80
2, 396092, Note_off_c, 0, 71, 100
2, 396096, Note_on_c, 0, 70, 80
2, 396284, Note_off_c, 0, 66, 100
2, 396284, Note_off_c, 0, 63, 100
2, 396284, Note_off_c, 0, 70, 100
2, 396288, Note_on_c, 0, 71, 79
2, 396288, Note_on_c, 0, 66, 79
2, 396288, Note_on_c, 0, 63, 79
2, 396476, Note_off_c, 0, 71, 100
2, 396480, Note_on_c, 0, 69, 79
2, 396668, Note_off_c, 0, 66, 100
2, 396668, Note_off_c, 0, 63, 100
2, 396668, Note_off_c, 0, 69, 100
2, 396672, Note_on_c, 0, 70, 78
2, 396672, Note_on_c, 0, 65, 78
2, 396672, Note_on_c, 0, 62, 78
2, 397244, Note_off_c, 0, 70, 100
2, 397244, Note_off_c, 0, 65, 100
2, 397244, Note_off_c, 0, 62, 100
2, 397440, Note_on_c, 0, 66, 75
2, 397440, Note_on_c, 0, 63, 75
2, 397440, Note_on_c, 0, 72, 75
2, 397628, Note_off_c, 0, 72, 100
2, 397632, Note_on_c, 0, 70, 75
2, 397820, Note_off_c, 0, 66, 100
2, 397820, Note_off_c, 0, 63, 100
2, 397820, Note_off_c, 0, 70, 100
2, 397824, Note_on_c, 0, 66, 74
2, 397824, Note_on_c, 0, 63, 74
2, 397824, Note_on_c, 0, 72, 74
2, 398012, Note_off_c, 0, 72, 100
2, 398016, Note_on_c, 0, 69, 73
2, 398204, Note_off_c, 0, 66, 100
2, 398204, Note_off_c, 0, 63, 100
2, 398204, Note_off_c, 0, 69, 100
2, 398208, Note_on_c, 0, 70, 73
2, 398208, Note_on_c, 0, 65, 73
2, 398208, Note_on_c, 0, 62, 73
2, 398780, Note_off_c, 0, 70, 100
2, 398780, Note_off_c, 0, 65, 100
2, 398780, Note_off_c, 0, 62, 100
2, 398976, Note_on_c, 0, 66, 70
2, 398976, Note_on_c, 0, 63, 70
2, 398976, Note_on_c, 0, 71, 70
2, 399164, Note_off_c, 0, 71, 100
2, 399168, Note_on_c, 0, 70, 70
2, 399356, Note_off_c, 0, 66, 100
2, 399356, Note_off_c, 0, 63, 100
2, 399356, Note_off_c, 0, 70, 100
2, 399360, Note_on_c, 0, 66, 70
2, 399360, Note_on_c, 0, 63, 70
2, 399360, Note_on_c, 0, 71, 70
2, 399548, Note_off_c, 0, 71, 100
2, 399552, Note_on_c, 0, 69, 70
2, 399740, Note_off_c, 0, 66, 100
2, 399740, Note_off_c, 0, 63, 100
2, 399740, Note_off_c, 0, 69, 100
2, 399744, Note_on_c, 0, 58, 120
2, 399744, Note_on_c, 0, 70, 120
2, 400316, Note_off_c, 0, 58, 100
2, 400316, Note_off_c, 0, 70, 100
2, 400320, Note_on_c, 0, 60, 120
2, 400320, Note_on_c, 0, 72, 120
2, 400508, Note_off_c, 0, 60, 100
2, 400508, Note_off_c, 0, 72, 100
2, 400512, Note_on_c, 0, 62, 120
2, 400512, Note_on_c, 0, 74, 120
2, 401084, Note_off_c, 0, 62, 100
2, 401084, Note_off_c, 0, 74, 100
2, 401088, Note_on_c, 0, 63, 120
2, 401088, Note_on_c, 0, 75, 120
2, 401276, Note_off_c, 0, 63, 100
2, 401276, Note_off_c, 0, 75, 100
2, 401280, Note_on_c, 0, 65, 120
2, 401280, Note_on_c, 0, 77, 120
2, 401852, Note_off_c, 0, 65, 100
2, 401852, Note_off_c, 0, 77, 100
2, 401856, Note_on_c, 0, 67, 120
2, 401856, Note_on_c, 0, 79, 120
2, 402044, Note_off_c, 0, 67, 100
2, 402044, Note_off_c, 0, 79, 100
2, 402048, Note_on_c, 0, 69, 120
2, 402048, Note_on_c, 0, 81, 120
2, 402236, Note_off_c, 0, 69, 100
2, 402236, Note_off_c, 0, 81, 100
2, 402240, Note_on_c, 0, 70, 120
2, 402240, Note_on_c, 0, 82, 120
2, 402428, Note_off_c, 0, 70, 100
2, 402428, Note_off_c, 0, 82, 100
2, 402432, Note_on_c, 0, 72, 120
2, 402432, Note_on_c, 0, 84, 120
2, 402620, Note_off_c, 0, 72, 100
2, 402620, Note_off_c, 0, 84, 100
2, 402624, Note_on_c, 0, 74, 120
2, 402624, Note_on_c, 0, 86, 120
2, 402812, Note_off_c, 0, 74, 100
2, 402812, Note_off_c, 0, 86, 100
2, 402816, Note_on_c, 0, 75, 120
2, 402816, Note_on_c, 0, 87, 120
2, 403388, Note_off_c, 0, 75, 100
2, 403388, Note_off_c, 0, 87, 100
2, 403392, Note_on_c, 0, 74, 120
2, 403392, Note_on_c, 0, 86, 120
2, 403580, Note_off_c, 0, 74, 100
2, 403580, Note_off_c, 0, 86, 100
2, 403584, Note_on_c, 0, 72, 120
2, 403584, Note_on_c, 0, 84, 120
2, 404156, Note_off_c, 0, 72, 100
2, 404156, Note_off_c, 0, 84, 100
2, 404160, Note_on_c, 0, 70, 120
2, 404160, Note_on_c, 0, 82, 120
2, 404348, Note_off_c, 0, 70, 100
2, 404348, Note_off_c, 0, 82, 100
2, 404352, Note_on_c, 0, 69, 120
2, 404352, Note_on_c, 0, 81, 120
2, 404924, Note_off_c, 0, 69, 100
2, 404924, Note_off_c, 0, 81, 100
2, 404928, Note_on_c, 0, 67, 120
2, 404928, Note_on_c, 0, 79, 120
2, 405116, Note_off_c, 0, 67, 100
2, 405116, Note_off_c, 0, 79, 100
2, 405120, Note_on_c, 0, 65, 120
2, 405120, Note_on_c, 0, 77, 120
2, 405308, Note_off_c, 0, 65, 100
2, 405308, Note_off_c, 0, 77, 100
2, 405312, Note_on_c, 0, 63, 120
2, 405312, Note_on_c, 0, 75, 120
2, 405500, Note_off_c, 0, 63, 100
2, 405500, Note_off_c, 0, 75, 100
2, 405504, Note_on_c, 0, 62, 120
2, 405504, Note_on_c, 0, 74, 120
2, 405692, Note_off_c, 0, 62, 100
2, 405692, Note_off_c, 0, 74, 100
2, 405696, Note_on_c, 0, 60, 120
2, 405696, Note_on_c, 0, 72, 120
2, 405884, Note_off_c, 0, 60, 100
2, 405884, Note_off_c, 0, 72, 100
2, 405888, Note_on_c, 0, 58, 120
2, 405888, Note_on_c, 0, 70, 120
2, 406268, Note_off_c, 0, 58, 100
2, 406268, Note_off_c, 0, 70, 100
2, 406272, Note_on_c, 0, 69, 80
2, 406368, Note_on_c, 0, 68, 80
2, 406428, Note_off_c, 0, 69, 100
2, 406464, Note_on_c, 0, 69, 80
2, 406536, Note_off_c, 0, 68, 100
2, 406560, Note_on_c, 0, 65, 80
2, 406624, Note_off_c, 0, 69, 100
2, 406656, Note_on_c, 0, 70, 80
2, 406728, Note_off_c, 0, 65, 100
2, 407036, Note_off_c, 0, 70, 100
2, 407040, Note_on_c, 0, 81, 80
2, 407136, Note_on_c, 0, 80, 80
2, 407204, Note_off_c, 0, 81, 100
2, 407232, Note_on_c, 0, 81, 80
2, 407308, Note_off_c, 0, 80, 100
2, 407328, Note_on_c, 0, 77, 80
2, 407408, Note_off_c, 0, 81, 100
2, 407424, Note_on_c, 0, 82, 80
2, 407480, Note_off_c, 0, 77, 100
2, 407804, Note_off_c, 0, 82, 100
2, 408192, Note_on_c, 0, 81, 120
2, 408192, Note_on_c, 0, 69, 120
2, 408192, Note_on_c, 0, 72, 120
2, 408192, Note_on_c, 0, 77, 120
2, 408192, Note_on_c, 0, 75, 120
2, 408572, Note_off_c, 0, 81, 100
2, 408572, Note_off_c, 0, 69, 100
2, 408572, Note_off_c, 0, 72, 100
2, 408572, Note_off_c, 0, 77, 100
2, 408572, Note_off_c, 0, 75, 100
2, 408960, Note_on_c, 0, 82, 120
2, 408960, Note_on_c, 0, 77, 120
2, 408960, Note_on_c, 0, 74, 120
2, 408960, Note_on_c, 0, 70, 120
2, 409724, Note_off_c, 0, 82, 100
2, 409724, Note_off_c, 0, 77, 100
2, 409724, Note_off_c, 0, 74, 100
2, 409724, Note_off_c, 0, 70, 100
2, 410496, Control_c, 0, 7, 0
2, 410880, Note_on_c, 0, 70, 1
2, 411260, Note_off_c, 0, 70, 100
2, 411260, End_track
3, 0, Start_track
3, 0, Title_t, "Left"
3, 0, Control_c, 1, 0, 0
3, 0, Program_c, 1, 0
3, 0, Control_c, 1, 7, 100
3, 0, Control_c, 1, 10, 59
3, 0, Control_c, 1, 91, 127
3, 0, Key_signature, -2, "major"
3, 384, Note_on_c, 1, 46, 80
3, 384, Note_on_c, 1, 34, 80
3, 764, Note_off_c, 1, 46, 100
3, 764, Note_off_c, 1, 34, 100
3, 768, Note_on_c, 1, 46, 80
3, 768, Note_on_c, 1, 34, 80
3, 1148, Note_off_c, 1, 46, 100
3, 1148, Note_off_c, 1, 34, 100
3, 1920, Note_on_c, 1, 46, 80
3, 1920, Note_on_c, 1, 34, 80
3, 2300, Note_off_c, 1, 46, 100
3, 2300, Note_off_c, 1, 34, 100
3, 2304, Note_on_c, 1, 46, 80
3, 2304, Note_on_c, 1, 34, 80
3, 2684, Note_off_c, 1, 46, 100
3, 2684, Note_off_c, 1, 34, 100
3, 4992, Note_on_c, 1, 46, 109
3, 5088, Note_on_c, 1, 50, 80
3, 5160, Note_off_c, 1, 46, 100
3, 5184, Note_on_c, 1, 53, 80
3, 5264, Note_off_c, 1, 50, 100
3, 5280, Note_on_c, 1, 58, 80
3, 5356, Note_off_c, 1, 53, 100
3, 5376, Note_on_c, 1, 46, 80
3, 5464, Note_off_c, 1, 58, 100
3, 5472, Note_on_c, 1, 50, 80
3, 5536, Note_off_c, 1, 46, 100
3, 5568, Note_on_c, 1, 53, 80
3, 5652, Note_off_c, 1, 50, 100
3, 5664, Note_on_c, 1, 58, 80
3, 5732, Note_off_c, 1, 53, 100
3, 5760, Note_on_c, 1, 46, 80
3, 5836, Note_off_c, 1, 58, 100
3, 5856, Note_on_c, 1, 50, 80
3, 5936, Note_off_c, 1, 46, 100
3, 5952, Note_on_c, 1, 53, 80
3, 6020, Note_off_c, 1, 50, 100
3, 6048, Note_on_c, 1, 58, 80
3, 6108, Note_off_c, 1, 53, 100
3, 6144, Note_on_c, 1, 46, 80
3, 6200, Note_off_c, 1, 58, 100
3, 6240, Note_on_c, 1, 50, 80
3, 6324, Note_off_c, 1, 46, 100
3, 6336, Note_on_c, 1, 53, 80
3, 6400, Note_off_c, 1, 50, 100
3, 6432, Note_on_c, 1, 58, 80
3, 6508, Note_off_c, 1, 53, 100
3, 6528, Note_on_c, 1, 48, 80
3, 6596, Note_off_c, 1, 58, 100
3, 6624, Note_on_c, 1, 51, 80
3, 6692, Note_off_c, 1, 48, 100
3, 6720, Note_on_c, 1, 55, 80
3, 6800, Note_off_c, 1, 51, 100
3, 6816, Note_on_c, 1, 58, 80
3, 6888, Note_off_c, 1, 55, 100
3, 6912, Note_on_c, 1, 48, 80
3, 6984, Note_off_c, 1, 58, 100
3, 7008, Note_on_c, 1, 51, 80
3, 7080, Note_off_c, 1, 48, 100
3, 7104, Note_on_c, 1, 55, 80
3, 7172, Note_off_c, 1, 51, 100
3, 7200, Note_on_c, 1, 58, 80
3, 7264, Note_off_c, 1, 55, 100
3, 7296, Note_on_c, 1, 46, 80
3, 7364, Note_off_c, 1, 58, 100
3, 7392, Note_on_c, 1, 51, 80
3, 7452, Note_off_c, 1, 46, 100
3, 7488, Note_on_c, 1, 53, 80
3, 7560, Note_off_c, 1, 51, 100
3, 7584, Note_on_c, 1, 57, 80
3, 7636, Note_off_c, 1, 53, 100
3, 7680, Note_on_c, 1, 46, 80
3, 7760, Note_off_c, 1, 57, 100
3, 7776, Note_on_c, 1, 51, 80
3, 7848, Note_off_c, 1, 46, 100
3, 7872, Note_on_c, 1, 53, 80
3, 7944, Note_off_c, 1, 51, 100
3, 7968, Note_on_c, 1, 57, 80
3, 8028, Note_off_c, 1, 53, 100
3, 8064, Note_on_c, 1, 46, 80
3, 8132, Note_off_c, 1, 57, 100
3, 8160, Note_on_c, 1, 50, 80
3, 8228, Note_off_c, 1, 46, 100
3, 8256, Note_on_c, 1, 53, 80
3, 8324, Note_off_c, 1, 50, 100
3, 8352, Note_on_c, 1, 58, 80
3, 8428, Note_off_c, 1, 53, 100
3, 8448, Note_on_c, 1, 46, 80
3, 8516, Note_off_c, 1, 58, 100
3, 8544, Note_on_c, 1, 50, 80
3, 8608, Note_off_c, 1, 46, 100
3, 8640, Note_on_c, 1, 53, 80
3, 8708, Note_off_c, 1, 50, 100
3, 8736, Note_on_c, 1, 58, 80
3, 8812, Note_off_c, 1, 53, 100
3, 8832, Note_on_c, 1, 46, 80
3, 8888, Note_off_c, 1, 58, 100
3, 8928, Note_on_c, 1, 50, 80
3, 9008, Note_off_c, 1, 46, 100
3, 9024, Note_on_c, 1, 53, 80
3, 9108, Note_off_c, 1, 50, 100
3, 9120, Note_on_c, 1, 56, 80
3, 9192, Note_off_c, 1, 53, 100
3, 9216, Note_on_c, 1, 46, 80
3, 9284, Note_off_c, 1, 56, 100
3, 9312, Note_on_c, 1, 50, 80
3, 9384, Note_off_c, 1, 46, 100
3, 9408, Note_on_c, 1, 53, 80
3, 9476, Note_off_c, 1, 50, 100
3, 9504, Note_on_c, 1, 56, 80
3, 9572, Note_off_c, 1, 53, 100
3, 9600, Note_on_c, 1, 46, 80
3, 9672, Note_off_c, 1, 56, 100
3, 9696, Note_on_c, 1, 51, 80
3, 9780, Note_off_c, 1, 46, 100
3, 9792, Note_on_c, 1, 57, 80
3, 9868, Note_off_c, 1, 51, 100
3, 9888, Note_on_c, 1, 51, 80
3, 9960, Note_off_c, 1, 57, 100
3, 9984, Note_on_c, 1, 46, 80
3, 10064, Note_off_c, 1, 51, 100
3, 10080, Note_on_c, 1, 51, 80
3, 10168, Note_off_c, 1, 46, 100
3, 10176, Note_on_c, 1, 57, 80
3, 10264, Note_off_c, 1, 51, 100
3, 10272, Note_on_c, 1, 51, 80
3, 10360, Note_off_c, 1, 57, 100
3, 10368, Note_on_c, 1, 46, 80
3, 10452, Note_off_c, 1, 51, 100
3, 10464, Note_on_c, 1, 48, 80
3, 10520, Note_off_c, 1, 46, 100
3, 10560, Note_on_c, 1, 51, 80
3, 10628, Note_off_c, 1, 48, 100
3, 10656, Note_on_c, 1, 53, 80
3, 10732, Note_off_c, 1, 51, 100
3, 10752, Note_on_c, 1, 46, 80
3, 10820, Note_off_c, 1, 53, 100
3, 10848, Note_on_c, 1, 48, 80
3, 10916, Note_off_c, 1, 46, 100
3, 10944, Note_on_c, 1, 51, 80
3, 11024, Note_off_c, 1, 48, 100
3, 11040, Note_on_c, 1, 53, 80
3, 11112, Note_off_c, 1, 51, 100
3, 11132, Note_off_c, 1, 53, 100
3, 11136, Note_on_c, 1, 46, 110
3, 11516, Note_off_c, 1, 46, 100
3, 11520, Note_on_c, 1, 46, 110
3, 11612, Note_off_c, 1, 46, 100
3, 11616, Note_on_c, 1, 45, 110
3, 11708, Note_off_c, 1, 45, 100
3, 11712, Note_on_c, 1, 46, 110
3, 11804, Note_off_c, 1, 46, 100
3, 11808, Note_on_c, 1, 43, 110
3, 11900, Note_off_c, 1, 43, 100
3, 11904, Note_on_c, 1, 41, 110
3, 12284, Note_off_c, 1, 41, 100
3, 12288, Note_on_c, 1, 51, 110
3, 12380, Note_off_c, 1, 51, 100
3, 12384, Note_on_c, 1, 50, 110
3, 12476, Note_off_c, 1, 50, 100
3, 12480, Note_on_c, 1, 51, 110
3, 12572, Note_off_c, 1, 51, 100
3, 12576, Note_on_c, 1, 48, 110
3, 12668, Note_off_c, 1, 48, 100
3, 12672, Note_on_c, 1, 46, 110
3, 13052, Note_off_c, 1, 46, 100
3, 13056, Note_on_c, 1, 58, 110
3, 13148, Note_off_c, 1, 58, 100
3, 13152, Note_on_c, 1, 57, 110
3, 13244, Note_off_c, 1, 57, 100
3, 13248, Note_on_c, 1, 58, 110
3, 13340, Note_off_c, 1, 58, 100
3, 13344, Note_on_c, 1, 55, 110
3, 13436, Note_off_c, 1, 55, 100
3, 13440, Note_on_c, 1, 53, 110
3, 13820, Note_off_c, 1, 53, 100
3, 13824, Note_on_c, 1, 63, 110
3, 13916, Note_off_c, 1, 63, 100
3, 13920, Note_on_c, 1, 62, 110
3, 14012, Note_off_c, 1, 62, 100
3, 14016, Note_on_c, 1, 63, 110
3, 14108, Note_off_c, 1, 63, 100
3, 14112, Note_on_c, 1, 60, 110
3, 14204, Note_off_c, 1, 60, 100
3, 14208, Note_on_c, 1, 58, 110
3, 14396, Note_off_c, 1, 58, 100
3, 14400, Note_on_c, 1, 60, 110
3, 14496, Note_on_c, 1, 62, 110
3, 14524, Note_off_c, 1, 60, 100
3, 14588, Note_off_c, 1, 62, 100
3, 14592, Note_on_c, 1, 63, 110
3, 14684, Note_off_c, 1, 63, 100
3, 14688, Note_on_c, 1, 65, 110
3, 14780, Note_off_c, 1, 65, 100
3, 14784, Note_on_c, 1, 67, 110
3, 14876, Note_off_c, 1, 67, 100
3, 14880, Note_on_c, 1, 69, 110
3, 14972, Note_off_c, 1, 69, 100
3, 14976, Note_on_c, 1, 70, 110
3, 15068, Note_off_c, 1, 70, 100
3, 15072, Note_on_c, 1, 69, 110
3, 15164, Note_off_c, 1, 69, 100
3, 15168, Note_on_c, 1, 70, 110
3, 15260, Note_off_c, 1, 70, 100
3, 15264, Note_on_c, 1, 72, 110
3, 15356, Note_off_c, 1, 72, 100
3, 15360, Note_on_c, 1, 74, 110
3, 15452, Note_off_c, 1, 74, 100
3, 15456, Note_on_c, 1, 72, 110
3, 15548, Note_off_c, 1, 72, 100
3, 15552, Note_on_c, 1, 74, 110
3, 15644, Note_off_c, 1, 74, 100
3, 15648, Note_on_c, 1, 76, 110
3, 15740, Note_off_c, 1, 76, 100
3, 15744, Note_on_c, 1, 77, 110
3, 16124, Note_off_c, 1, 77, 100
3, 16128, Note_on_c, 1, 53, 110
3, 16508, Note_off_c, 1, 53, 100
3, 16896, Note_on_c, 1, 46, 110
3, 16992, Note_on_c, 1, 45, 110
3, 17060, Note_off_c, 1, 46, 100
3, 17088, Note_on_c, 1, 46, 110
3, 17152, Note_off_c, 1, 45, 100
3, 17184, Note_on_c, 1, 41, 110
3, 17264, Note_off_c, 1, 46, 100
3, 17280, Note_on_c, 1, 50, 110
3, 17336, Note_off_c, 1, 41, 100
3, 17376, Note_on_c, 1, 49, 110
3, 17436, Note_off_c, 1, 50, 100
3, 17472, Note_on_c, 1, 50, 110
3, 17532, Note_off_c, 1, 49, 100
3, 17568, Note_on_c, 1, 46, 110
3, 17632, Note_off_c, 1, 50, 100
3, 17664, Note_on_c, 1, 53, 110
3, 17732, Note_off_c, 1, 46, 100
3, 17760, Note_on_c, 1, 52, 110
3, 17836, Note_off_c, 1, 53, 100
3, 17856, Note_on_c, 1, 53, 110
3, 17920, Note_off_c, 1, 52, 100
3, 17952, Note_on_c, 1, 50, 110
3, 18012, Note_off_c, 1, 53, 100
3, 18048, Note_on_c, 1, 58, 110
3, 18112, Note_off_c, 1, 50, 100
3, 18144, Note_on_c, 1, 57, 110
3, 18208, Note_off_c, 1, 58, 100
3, 18240, Note_on_c, 1, 58, 110
3, 18300, Note_off_c, 1, 57, 100
3, 18336, Note_on_c, 1, 53, 110
3, 18396, Note_off_c, 1, 58, 100
3, 18432, Note_on_c, 1, 62, 110
3, 18500, Note_off_c, 1, 53, 100
3, 18528, Note_on_c, 1, 61, 110
3, 18604, Note_off_c, 1, 62, 100
3, 18624, Note_on_c, 1, 62, 110
3, 18692, Note_off_c, 1, 61, 100
3, 18720, Note_on_c, 1, 58, 110
3, 18788, Note_off_c, 1, 62, 100
3, 18812, Note_off_c, 1, 58, 100
3, 18816, Note_on_c, 1, 65, 110
3, 19484, Note_off_c, 1, 65, 100
3, 19488, Note_on_c, 1, 63, 80
3, 19580, Note_off_c, 1, 63, 100
3, 19584, Note_on_c, 1, 62, 80
3, 19868, Note_off_c, 1, 62, 100
3, 19872, Note_on_c, 1, 60, 80
3, 19964, Note_off_c, 1, 60, 100
3, 19968, Note_on_c, 1, 58, 80
3, 20252, Note_off_c, 1, 58, 100
3, 20256, Note_on_c, 1, 56, 80
3, 20348, Note_off_c, 1, 56, 100
3, 20352, Note_on_c, 1, 55, 80
3, 21116, Note_off_c, 1, 55, 100
3, 21120, Note_on_c, 1, 56, 80
3, 21500, Note_off_c, 1, 56, 100
3, 21504, Note_on_c, 1, 54, 80
3, 21884, Note_off_c, 1, 54, 100
3, 21888, Note_on_c, 1, 55, 80
3, 22268, Note_off_c, 1, 55, 100
3, 22272, Note_on_c, 1, 52, 80
3, 22652, Note_off_c, 1, 52, 100
3, 22656, Note_on_c, 1, 53, 80
3, 23036, Note_off_c, 1, 53, 100
3, 23040, Note_on_c, 1, 50, 80
3, 23420, Note_off_c, 1, 50, 100
3, 23424, Note_on_c, 1, 48, 110
3, 23424, Note_on_c, 1, 36, 110
3, 23612, Note_off_c, 1, 48, 100
3, 23612, Note_off_c, 1, 36, 100
3, 23616, Note_on_c, 1, 60, 80
3, 23804, Note_off_c, 1, 60, 100
3, 23808, Note_on_c, 1, 60, 80
3, 23996, Note_off_c, 1, 60, 100
3, 24000, Note_on_c, 1, 60, 80
3, 24188, Note_off_c, 1, 60, 100
3, 24192, Note_on_c, 1, 60, 80
3, 24380, Note_off_c, 1, 60, 100
3, 24384, Note_on_c, 1, 60, 80
3, 24572, Note_off_c, 1, 60, 100
3, 24576, Note_on_c, 1, 60, 80
3, 24764, Note_off_c, 1, 60, 100
3, 24768, Note_on_c, 1, 60, 80
3, 24956, Note_off_c, 1, 60, 100
3, 24960, Note_on_c, 1, 60, 80
3, 25148, Note_off_c, 1, 60, 100
3, 25152, Note_on_c, 1, 60, 80
3, 25340, Note_off_c, 1, 60, 100
3, 25344, Note_on_c, 1, 60, 80
3, 25532, Note_off_c, 1, 60, 100
3, 25536, Note_on_c, 1, 60, 80
3, 25724, Note_off_c, 1, 60, 100
3, 25728, Note_on_c, 1, 60, 80
3, 25916, Note_off_c, 1, 60, 100
3, 25920, Note_on_c, 1, 60, 80
3, 26108, Note_off_c, 1, 60, 100
3, 26112, Note_on_c, 1, 60, 80
3, 26300, Note_off_c, 1, 60, 100
3, 26304, Note_on_c, 1, 60, 80
3, 26492, Note_off_c, 1, 60, 100
3, 26496, Note_on_c, 1, 48, 110
3, 26496, Note_on_c, 1, 36, 110
3, 26684, Note_off_c, 1, 48, 100
3, 26684, Note_off_c, 1, 36, 100
3, 26688, Note_on_c, 1, 60, 80
3, 26876, Note_off_c, 1, 60, 100
3, 26880, Note_on_c, 1, 60, 80
3, 27068, Note_off_c, 1, 60, 100
3, 27072, Note_on_c, 1, 60, 80
3, 27260, Note_off_c, 1, 60, 100
3, 27264, Note_on_c, 1, 60, 80
3, 27452, Note_off_c, 1, 60, 100
3, 27456, Note_on_c, 1, 60, 80
3, 27644, Note_off_c, 1, 60, 100
3, 27648, Note_on_c, 1, 60, 80
3, 27836, Note_off_c, 1, 60, 100
3, 27840, Note_on_c, 1, 60, 80
3, 28028, Note_off_c, 1, 60, 100
3, 28032, Note_on_c, 1, 60, 80
3, 28220, Note_off_c, 1, 60, 100
3, 28224, Note_on_c, 1, 60, 80
3, 28412, Note_off_c, 1, 60, 100
3, 28416, Note_on_c, 1, 60, 80
3, 28604, Note_off_c, 1, 60, 100
3, 28608, Note_on_c, 1, 60, 80
3, 28796, Note_off_c, 1, 60, 100
3, 28800, Note_on_c, 1, 60, 80
3, 28988, Note_off_c, 1, 60, 100
3, 28992, Note_on_c, 1, 60, 80
3, 29180, Note_off_c, 1, 60, 100
3, 29184, Note_on_c, 1, 60, 80
3, 29372, Note_off_c, 1, 60, 100
3, 29376, Note_on_c, 1, 60, 80
3, 29564, Note_off_c, 1, 60, 100
3, 29568, Note_on_c, 1, 48, 80
3, 29756, Note_off_c, 1, 48, 100
3, 29760, Note_on_c, 1, 60, 80
3, 29948, Note_off_c, 1, 60, 100
3, 29952, Note_on_c, 1, 60, 80
3, 30140, Note_off_c, 1, 60, 100
3, 30144, Note_on_c, 1, 60, 80
3, 30332, Note_off_c, 1, 60, 100
3, 30336, Note_on_c, 1, 48, 80
3, 30524, Note_off_c, 1, 48, 100
3, 30528, Note_on_c, 1, 60, 80
3, 30716, Note_off_c, 1, 60, 100
3, 30720, Note_on_c, 1, 60, 80
3, 30908, Note_off_c, 1, 60, 100
3, 30912, Note_on_c, 1, 60, 80
3, 31100, Note_off_c, 1, 60, 100
3, 31104, Note_on_c, 1, 48, 80
3, 31484, Note_off_c, 1, 48, 100
3, 32736, Note_on_c, 1, 53, 70
3, 32832, Note_on_c, 1, 55, 70
3, 32896, Note_off_c, 1, 53, 100
3, 32928, Note_on_c, 1, 57, 70
3, 32992, Note_off_c, 1, 55, 100
3, 33024, Note_on_c, 1, 58, 70
3, 33092, Note_off_c, 1, 57, 100
3, 33120, Note_on_c, 1, 60, 70
3, 33204, Note_off_c, 1, 58, 100
3, 33216, Note_on_c, 1, 62, 70
3, 33276, Note_off_c, 1, 60, 100
3, 33312, Note_on_c, 1, 64, 70
3, 33396, Note_off_c, 1, 62, 100
3, 33408, Note_on_c, 1, 65, 70
3, 33500, Note_off_c, 1, 64, 100
3, 33504, Note_on_c, 1, 64, 70
3, 33596, Note_off_c, 1, 65, 100
3, 33600, Note_on_c, 1, 65, 70
3, 33664, Note_off_c, 1, 64, 100
3, 33696, Note_on_c, 1, 64, 70
3, 33768, Note_off_c, 1, 65, 100
3, 33792, Note_on_c, 1, 65, 70
3, 33872, Note_off_c, 1, 64, 100
3, 33888, Note_on_c, 1, 64, 70
3, 33948, Note_off_c, 1, 65, 100
3, 33984, Note_on_c, 1, 65, 70
3, 34056, Note_off_c, 1, 64, 100
3, 34080, Note_on_c, 1, 64, 70
3, 34144, Note_off_c, 1, 65, 100
3, 34176, Note_on_c, 1, 65, 70
3, 34232, Note_off_c, 1, 64, 100
3, 34272, Note_on_c, 1, 64, 70
3, 34348, Note_off_c, 1, 65, 100
3, 34368, Note_on_c, 1, 65, 70
3, 34432, Note_off_c, 1, 64, 100
3, 34464, Note_on_c, 1, 64, 70
3, 34536, Note_off_c, 1, 65, 100
3, 34560, Note_on_c, 1, 65, 70
3, 34632, Note_off_c, 1, 64, 100
3, 34656, Note_on_c, 1, 64, 70
3, 34748, Note_off_c, 1, 65, 100
3, 34752, Note_on_c, 1, 65, 70
3, 34832, Note_off_c, 1, 64, 100
3, 34848, Note_on_c, 1, 64, 70
3, 34928, Note_off_c, 1, 65, 100
3, 34944, Note_on_c, 1, 65, 70
3, 35024, Note_off_c, 1, 64, 100
3, 35040, Note_on_c, 1, 64, 70
3, 35120, Note_off_c, 1, 65, 100
3, 35136, Note_on_c, 1, 65, 70
3, 35204, Note_off_c, 1, 64, 100
3, 35232, Note_on_c, 1, 64, 70
3, 35300, Note_off_c, 1, 65, 100
3, 35328, Note_on_c, 1, 65, 70
3, 35392, Note_off_c, 1, 64, 100
3, 35424, Note_on_c, 1, 64, 70
3, 35500, Note_off_c, 1, 65, 100
3, 35520, Note_on_c, 1, 65, 70
3, 35592, Note_off_c, 1, 64, 100
3, 35616, Note_on_c, 1, 64, 70
3, 35668, Note_off_c, 1, 65, 100
3, 35712, Note_on_c, 1, 65, 70
3, 35784, Note_off_c, 1, 64, 100
3, 35808, Note_on_c, 1, 53, 70
3, 35868, Note_off_c, 1, 65, 100
3, 35904, Note_on_c, 1, 55, 70
3, 35968, Note_off_c, 1, 53, 100
3, 36000, Note_on_c, 1, 57, 70
3, 36068, Note_off_c, 1, 55, 100
3, 36096, Note_on_c, 1, 58, 70
3, 36160, Note_off_c, 1, 57, 100
3, 36192, Note_on_c, 1, 60, 70
3, 36268, Note_off_c, 1, 58, 100
3, 36288, Note_on_c, 1, 62, 70
3, 36364, Note_off_c, 1, 60, 100
3, 36384, Note_on_c, 1, 64, 70
3, 36472, Note_off_c, 1, 62, 100
3, 36480, Note_on_c, 1, 65, 70
3, 36556, Note_off_c, 1, 64, 100
3, 36576, Note_on_c, 1, 64, 70
3, 36656, Note_off_c, 1, 65, 100
3, 36672, Note_on_c, 1, 65, 70
3, 36744, Note_off_c, 1, 64, 100
3, 36768, Note_on_c, 1, 64, 70
3, 36836, Note_off_c, 1, 65, 100
3, 36864, Note_on_c, 1, 65, 70
3, 36936, Note_off_c, 1, 64, 100
3, 36960, Note_on_c, 1, 64, 70
3, 37028, Note_off_c, 1, 65, 100
3, 37056, Note_on_c, 1, 65, 70
3, 37120, Note_off_c, 1, 64, 100
3, 37152, Note_on_c, 1, 64, 70
3, 37244, Note_off_c, 1, 65, 100
3, 37248, Note_on_c, 1, 65, 70
3, 37316, Note_off_c, 1, 64, 100
3, 37344, Note_on_c, 1, 64, 70
3, 37412, Note_off_c, 1, 65, 100
3, 37440, Note_on_c, 1, 65, 70
3, 37512, Note_off_c, 1, 64, 100
3, 37536, Note_on_c, 1, 64, 70
3, 37608, Note_off_c, 1, 65, 100
3, 37632, Note_on_c, 1, 65, 70
3, 37700, Note_off_c, 1, 64, 100
3, 37728, Note_on_c, 1, 64, 70
3, 37796, Note_off_c, 1, 65, 100
3, 37824, Note_on_c, 1, 65, 70
3, 37900, Note_off_c, 1, 64, 100
3, 37920, Note_on_c, 1, 64, 70
3, 38004, Note_off_c, 1, 65, 100
3, 38016, Note_on_c, 1, 65, 70
3, 38096, Note_off_c, 1, 64, 100
3, 38112, Note_on_c, 1, 64, 70
3, 38192, Note_off_c, 1, 65, 100
3, 38208, Note_on_c, 1, 65, 70
3, 38288, Note_off_c, 1, 64, 100
3, 38304, Note_on_c, 1, 64, 70
3, 38384, Note_off_c, 1, 65, 100
3, 38400, Note_on_c, 1, 65, 70
3, 38464, Note_off_c, 1, 64, 100
3, 38496, Note_on_c, 1, 62, 70
3, 38572, Note_off_c, 1, 65, 100
3, 38592, Note_on_c, 1, 65, 70
3, 38660, Note_off_c, 1, 62, 100
3, 38688, Note_on_c, 1, 63, 70
3, 38756, Note_off_c, 1, 65, 100
3, 38784, Note_on_c, 1, 61, 70
3, 38876, Note_off_c, 1, 63, 100
3, 38880, Note_on_c, 1, 62, 70
3, 38972, Note_off_c, 1, 61, 100
3, 38976, Note_on_c, 1, 61, 70
3, 39040, Note_off_c, 1, 62, 100
3, 39072, Note_on_c, 1, 62, 70
3, 39148, Note_off_c, 1, 61, 100
3, 39168, Note_on_c, 1, 59, 70
3, 39232, Note_off_c, 1, 62, 100
3, 39264, Note_on_c, 1, 60, 70
3, 39332, Note_off_c, 1, 59, 100
3, 39360, Note_on_c, 1, 59, 70
3, 39428, Note_off_c, 1, 60, 100
3, 39456, Note_on_c, 1, 60, 70
3, 39528, Note_off_c, 1, 59, 100
3, 39552, Note_on_c, 1, 56, 70
3, 39616, Note_off_c, 1, 60, 100
3, 39648, Note_on_c, 1, 57, 70
3, 39704, Note_off_c, 1, 56, 100
3, 39744, Note_on_c, 1, 56, 70
3, 39832, Note_off_c, 1, 57, 100
3, 39840, Note_on_c, 1, 57, 70
3, 39912, Note_off_c, 1, 56, 100
3, 39936, Note_on_c, 1, 53, 70
3, 40004, Note_off_c, 1, 57, 100
3, 40032, Note_on_c, 1, 54, 70
3, 40108, Note_off_c, 1, 53, 100
3, 40128, Note_on_c, 1, 53, 70
3, 40192, Note_off_c, 1, 54, 100
3, 40224, Note_on_c, 1, 54, 70
3, 40288, Note_off_c, 1, 53, 100
3, 40320, Note_on_c, 1, 49, 70
3, 40408, Note_off_c, 1, 54, 100
3, 40416, Note_on_c, 1, 50, 70
3, 40476, Note_off_c, 1, 49, 100
3, 40512, Note_on_c, 1, 49, 70
3, 40580, Note_off_c, 1, 50, 100
3, 40608, Note_on_c, 1, 50, 70
3, 40676, Note_off_c, 1, 49, 100
3, 40704, Note_on_c, 1, 47, 70
3, 40780, Note_off_c, 1, 50, 100
3, 40800, Note_on_c, 1, 48, 71
3, 40876, Note_off_c, 1, 47, 100
3, 40896, Note_on_c, 1, 47, 72
3, 40976, Note_off_c, 1, 48, 100
3, 40992, Note_on_c, 1, 48, 74
3, 41060, Note_off_c, 1, 47, 100
3, 41088, Note_on_c, 1, 44, 75
3, 41180, Note_off_c, 1, 48, 100
3, 41184, Note_on_c, 1, 45, 77
3, 41260, Note_off_c, 1, 44, 100
3, 41280, Note_on_c, 1, 44, 78
3, 41352, Note_off_c, 1, 45, 100
3, 41376, Note_on_c, 1, 45, 80
3, 41456, Note_off_c, 1, 44, 100
3, 41472, Note_on_c, 1, 41, 81
3, 41528, Note_off_c, 1, 45, 100
3, 41568, Note_on_c, 1, 42, 83
3, 41628, Note_off_c, 1, 41, 100
3, 41664, Note_on_c, 1, 41, 84
3, 41728, Note_off_c, 1, 42, 100
3, 41760, Note_on_c, 1, 42, 86
3, 41816, Note_off_c, 1, 41, 100
3, 41856, Note_on_c, 1, 37, 87
3, 41928, Note_off_c, 1, 42, 100
3, 41952, Note_on_c, 1, 38, 89
3, 42024, Note_off_c, 1, 37, 100
3, 42048, Note_on_c, 1, 37, 90
3, 42136, Note_off_c, 1, 38, 100
3, 42144, Note_on_c, 1, 38, 92
3, 42224, Note_off_c, 1, 37, 100
3, 42240, Note_on_c, 1, 37, 93
3, 42328, Note_off_c, 1, 38, 100
3, 42336, Note_on_c, 1, 38, 95
3, 42412, Note_off_c, 1, 37, 100
3, 42432, Note_on_c, 1, 37, 96
3, 42516, Note_off_c, 1, 38, 100
3, 42528, Note_on_c, 1, 38, 98
3, 42608, Note_off_c, 1, 37, 100
3, 42624, Note_on_c, 1, 38, 99
3, 42704, Note_off_c, 1, 38, 100
3, 42720, Note_on_c, 1, 39, 101
3, 42792, Note_off_c, 1, 38, 100
3, 42816, Note_on_c, 1, 38, 102
3, 42892, Note_off_c, 1, 39, 100
3, 42912, Note_on_c, 1, 39, 104
3, 42980, Note_off_c, 1, 38, 100
3, 43008, Note_on_c, 1, 39, 105
3, 43084, Note_off_c, 1, 39, 100
3, 43104, Note_on_c, 1, 40, 106
3, 43176, Note_off_c, 1, 39, 100
3, 43200, Note_on_c, 1, 39, 108
3, 43268, Note_off_c, 1, 40, 100
3, 43296, Note_on_c, 1, 40, 109
3, 43384, Note_off_c, 1, 39, 100
3, 43392, Note_on_c, 1, 40, 110
3, 43464, Note_off_c, 1, 40, 100
3, 43488, Note_on_c, 1, 41, 110
3, 43552, Note_off_c, 1, 40, 100
3, 43584, Note_on_c, 1, 40, 110
3, 43664, Note_off_c, 1, 41, 100
3, 43680, Note_on_c, 1, 41, 110
3, 43752, Note_off_c, 1, 40, 100
3, 43776, Note_on_c, 1, 40, 110
3, 43852, Note_off_c, 1, 41, 100
3, 43872, Note_on_c, 1, 41, 110
3, 43948, Note_off_c, 1, 40, 100
3, 43968, Note_on_c, 1, 40, 110
3, 44044, Note_off_c, 1, 41, 100
3, 44064, Note_on_c, 1, 41, 110
3, 44124, Note_off_c, 1, 40, 100
3, 44160, Note_on_c, 1, 33, 110
3, 44252, Note_off_c, 1, 41, 100
3, 44256, Note_on_c, 1, 34, 110
3, 44320, Note_off_c, 1, 33, 100
3, 44352, Note_on_c, 1, 33, 110
3, 44412, Note_off_c, 1, 34, 100
3, 44448, Note_on_c, 1, 34, 110
3, 44528, Note_off_c, 1, 33, 100
3, 44544, Note_on_c, 1, 35, 110
3, 44604, Note_off_c, 1, 34, 100
3, 44640, Note_on_c, 1, 36, 110
3, 44704, Note_off_c, 1, 35, 100
3, 44736, Note_on_c, 1, 35, 110
3, 44812, Note_off_c, 1, 36, 100
3, 44832, Note_on_c, 1, 36, 110
3, 44884, Note_off_c, 1, 35, 100
3, 44924, Note_off_c, 1, 36, 100
3, 44928, Note_on_c, 1, 29, 110
3, 45308, Note_off_c, 1, 29, 100
3, 45696, Note_on_c, 1, 57, 110
3, 45696, Note_on_c, 1, 53, 110
3, 46460, Note_off_c, 1, 57, 100
3, 46460, Note_off_c, 1, 53, 100
3, 46464, Note_on_c, 1, 53, 110
3, 46464, Note_on_c, 1, 50, 110
3, 46844, Note_off_c, 1, 53, 100
3, 46844, Note_off_c, 1, 50, 100
3, 46848, Note_on_c, 1, 50, 110
3, 46848, Note_on_c, 1, 46, 110
3, 47228, Note_off_c, 1, 50, 100
3, 47228, Note_off_c, 1, 46, 100
3, 47232, Note_on_c, 1, 58, 110
3, 47232, Note_on_c, 1, 55, 110
3, 47804, Note_off_c, 1, 58, 100
3, 47804, Note_off_c, 1, 55, 100
3, 47808, Note_on_c, 1, 57, 110
3, 47808, Note_on_c, 1, 53, 110
3, 47996, Note_off_c, 1, 57, 100
3, 47996, Note_off_c, 1, 53, 100
3, 48000, Note_on_c, 1, 55, 110
3, 48000, Note_on_c, 1, 52, 110
3, 48380, Note_off_c, 1, 55, 100
3, 48380, Note_off_c, 1, 52, 100
3, 48384, Note_on_c, 1, 52, 110
3, 48384, Note_on_c, 1, 48, 110
3, 48764, Note_off_c, 1, 52, 100
3, 48764, Note_off_c, 1, 48, 100
3, 48768, Note_on_c, 1, 60, 110
3, 48768, Note_on_c, 1, 57, 110
3, 49532, Note_off_c, 1, 60, 100
3, 49532, Note_off_c, 1, 57, 100
3, 49536, Note_on_c, 1, 57, 110
3, 49536, Note_on_c, 1, 53, 110
3, 49916, Note_off_c, 1, 57, 100
3, 49916, Note_off_c, 1, 53, 100
3, 49920, Note_on_c, 1, 53, 110
3, 49920, Note_on_c, 1, 50, 110
3, 50300, Note_off_c, 1, 53, 100
3, 50300, Note_off_c, 1, 50, 100
3, 50304, Note_on_c, 1, 62, 110
3, 50304, Note_on_c, 1, 58, 110
3, 50876, Note_off_c, 1, 62, 100
3, 50876, Note_off_c, 1, 58, 100
3, 50880, Note_on_c, 1, 60, 110
3, 50880, Note_on_c, 1, 57, 110
3, 51068, Note_off_c, 1, 60, 100
3, 51068, Note_off_c, 1, 57, 100
3, 51072, Note_on_c, 1, 55, 110
3, 51072, Note_on_c, 1, 58, 110
3, 51452, Note_off_c, 1, 55, 100
3, 51452, Note_off_c, 1, 58, 100
3, 51456, Note_on_c, 1, 55, 110
3, 51456, Note_on_c, 1, 52, 110
3, 51836, Note_off_c, 1, 55, 100
3, 51836, Note_off_c, 1, 52, 100
3, 51840, Note_on_c, 1, 67, 110
3, 51840, Note_on_c, 1, 58, 110
3, 52412, Note_off_c, 1, 67, 100
3, 52412, Note_off_c, 1, 58, 100
3, 52416, Note_on_c, 1, 65, 110
3, 52416, Note_on_c, 1, 57, 110
3, 52604, Note_off_c, 1, 65, 100
3, 52604, Note_off_c, 1, 57, 100
3, 52608, Note_on_c, 1, 64, 110
3, 52608, Note_on_c, 1, 55, 110
3, 53180, Note_off_c, 1, 64, 100
3, 53180, Note_off_c, 1, 55, 100
3, 53184, Note_on_c, 1, 62, 110
3, 53184, Note_on_c, 1, 53, 110
3, 53372, Note_off_c, 1, 62, 100
3, 53372, Note_off_c, 1, 53, 100
3, 53376, Note_on_c, 1, 60, 110
3, 53376, Note_on_c, 1, 52, 110
3, 53756, Note_off_c, 1, 60, 100
3, 53756, Note_off_c, 1, 52, 100
3, 53760, Note_on_c, 1, 53, 105
3, 53760, Note_on_c, 1, 50, 105
3, 54140, Note_off_c, 1, 53, 100
3, 54140, Note_off_c, 1, 50, 100
3, 54144, Note_on_c, 1, 52, 99
3, 54144, Note_on_c, 1, 49, 99
3, 54524, Note_off_c, 1, 52, 100
3, 54524, Note_off_c, 1, 49, 100
3, 54528, Note_on_c, 1, 52, 93
3, 54528, Note_on_c, 1, 45, 93
3, 54908, Note_off_c, 1, 52, 100
3, 54908, Note_off_c, 1, 45, 100
3, 54912, Note_on_c, 1, 50, 87
3, 54912, Note_on_c, 1, 46, 87
3, 55292, Note_off_c, 1, 50, 100
3, 55292, Note_off_c, 1, 46, 100
3, 55296, Note_on_c, 1, 47, 81
3, 55676, Note_off_c, 1, 47, 100
3, 55680, Note_on_c, 1, 48, 70
3, 56444, Note_off_c, 1, 48, 100
3, 56448, Note_on_c, 1, 36, 70
3, 57212, Note_off_c, 1, 36, 100
3, 57216, Note_on_c, 1, 29, 80
3, 57980, Note_off_c, 1, 29, 100
3, 57984, Note_on_c, 1, 57, 110
3, 57984, Note_on_c, 1, 53, 110
3, 58556, Note_off_c, 1, 57, 100
3, 58556, Note_off_c, 1, 53, 100
3, 58560, Note_on_c, 1, 57, 110
3, 58560, Note_on_c, 1, 53, 110
3, 58748, Note_off_c, 1, 57, 100
3, 58748, Note_off_c, 1, 53, 100
3, 58752, Note_on_c, 1, 53, 110
3, 58752, Note_on_c, 1, 50, 110
3, 58940, Note_off_c, 1, 53, 100
3, 58940, Note_off_c, 1, 50, 100
3, 59136, Note_on_c, 1, 50, 110
3, 59136, Note_on_c, 1, 46, 110
3, 59324, Note_off_c, 1, 50, 100
3, 59324, Note_off_c, 1, 46, 100
3, 59520, Note_on_c, 1, 55, 110
3, 59520, Note_on_c, 1, 58, 110
3, 60092, Note_off_c, 1, 55, 100
3, 60092, Note_off_c, 1, 58, 100
3, 60096, Note_on_c, 1, 57, 110
3, 60096, Note_on_c, 1, 53, 110
3, 60284, Note_off_c, 1, 57, 100
3, 60284, Note_off_c, 1, 53, 100
3, 60288, Note_on_c, 1, 55, 110
3, 60288, Note_on_c, 1, 52, 110
3, 60476, Note_off_c, 1, 55, 100
3, 60476, Note_off_c, 1, 52, 100
3, 60672, Note_on_c, 1, 52, 110
3, 60672, Note_on_c, 1, 48, 110
3, 60860, Note_off_c, 1, 52, 100
3, 60860, Note_off_c, 1, 48, 100
3, 61056, Note_on_c, 1, 57, 110
3, 61056, Note_on_c, 1, 60, 110
3, 61628, Note_off_c, 1, 57, 100
3, 61628, Note_off_c, 1, 60, 100
3, 61632, Note_on_c, 1, 60, 110
3, 61632, Note_on_c, 1, 57, 110
3, 61820, Note_off_c, 1, 60, 100
3, 61820, Note_off_c, 1, 57, 100
3, 61824, Note_on_c, 1, 57, 110
3, 61824, Note_on_c, 1, 53, 110
3, 62012, Note_off_c, 1, 57, 100
3, 62012, Note_off_c, 1, 53, 100
3, 62208, Note_on_c, 1, 53, 110
3, 62208, Note_on_c, 1, 50, 110
3, 62396, Note_off_c, 1, 53, 100
3, 62396, Note_off_c, 1, 50, 100
3, 62592, Note_on_c, 1, 58, 110
3, 62592, Note_on_c, 1, 62, 110
3, 63164, Note_off_c, 1, 58, 100
3, 63164, Note_off_c, 1, 62, 100
3, 63168, Note_on_c, 1, 60, 110
3, 63168, Note_on_c, 1, 57, 110
3, 63356, Note_off_c, 1, 60, 100
3, 63356, Note_off_c, 1, 57, 100
3, 63360, Note_on_c, 1, 55, 110
3, 63360, Note_on_c, 1, 58, 110
3, 63548, Note_off_c, 1, 55, 100
3, 63548, Note_off_c, 1, 58, 100
3, 63744, Note_on_c, 1, 55, 110
3, 63744, Note_on_c, 1, 52, 110
3, 63932, Note_off_c, 1, 55, 100
3, 63932, Note_off_c, 1, 52, 100
3, 64128, Note_on_c, 1, 58, 110
3, 64128, Note_on_c, 1, 67, 110
3, 64700, Note_off_c, 1, 58, 100
3, 64700, Note_off_c, 1, 67, 100
3, 64704, Note_on_c, 1, 65, 110
3, 64704, Note_on_c, 1, 57, 110
3, 64892, Note_off_c, 1, 65, 100
3, 64892, Note_off_c, 1, 57, 100
3, 64896, Note_on_c, 1, 55, 110
3, 64896, Note_on_c, 1, 64, 110
3, 65468, Note_off_c, 1, 55, 100
3, 65468, Note_off_c, 1, 64, 100
3, 65472, Note_on_c, 1, 53, 110
3, 65472, Note_on_c, 1, 62, 110
3, 65660, Note_off_c, 1, 53, 100
3, 65660, Note_off_c, 1, 62, 100
3, 65664, Note_on_c, 1, 52, 110
3, 65664, Note_on_c, 1, 60, 110
3, 65852, Note_off_c, 1, 52, 100
3, 65852, Note_off_c, 1, 60, 100
3, 66048, Note_on_c, 1, 50, 110
3, 66048, Note_on_c, 1, 53, 110
3, 66236, Note_off_c, 1, 50, 100
3, 66236, Note_off_c, 1, 53, 100
3, 66432, Note_on_c, 1, 55, 80
3, 66432, Note_on_c, 1, 52, 80
3, 66432, Note_on_c, 1, 49, 80
3, 67964, Note_off_c, 1, 55, 100
3, 67964, Note_off_c, 1, 52, 100
3, 67964, Note_off_c, 1, 49, 100
3, 67968, Note_on_c, 1, 53, 86
3, 67968, Note_on_c, 1, 50, 86
3, 69500, Note_off_c, 1, 53, 100
3, 69500, Note_off_c, 1, 50, 100
3, 69504, Note_on_c, 1, 53, 93
3, 69504, Note_on_c, 1, 50, 93
3, 69504, Note_on_c, 1, 47, 93
3, 71036, Note_off_c, 1, 53, 100
3, 71036, Note_off_c, 1, 50, 100
3, 71036, Note_off_c, 1, 47, 100
3, 71040, Note_on_c, 1, 55, 100
3, 71040, Note_on_c, 1, 52, 100
3, 71040, Note_on_c, 1, 49, 100
3, 71040, Note_on_c, 1, 46, 100
3, 71996, Note_off_c, 1, 55, 100
3, 71996, Note_off_c, 1, 52, 100
3, 71996, Note_off_c, 1, 49, 100
3, 71996, Note_off_c, 1, 46, 100
3, 72000, Note_on_c, 1, 55, 100
3, 72000, Note_on_c, 1, 48, 100
3, 72000, Note_on_c, 1, 46, 100
3, 72188, Note_off_c, 1, 55, 100
3, 72188, Note_off_c, 1, 48, 100
3, 72188, Note_off_c, 1, 46, 100
3, 72192, Note_on_c, 1, 55, 100
3, 72192, Note_on_c, 1, 48, 100
3, 72192, Note_on_c, 1, 46, 100
3, 72380, Note_off_c, 1, 55, 100
3, 72380, Note_off_c, 1, 48, 100
3, 72380, Note_off_c, 1, 46, 100
3, 72384, Note_on_c, 1, 55, 100
3, 72384, Note_on_c, 1, 48, 100
3, 72384, Note_on_c, 1, 46, 100
3, 72572, Note_off_c, 1, 55, 100
3, 72572, Note_off_c, 1, 48, 100
3, 72572, Note_off_c, 1, 46, 100
3, 72576, Note_on_c, 1, 53, 110
3, 72576, Note_on_c, 1, 48, 110
3, 72576, Note_on_c, 1, 45, 110
3, 72956, Note_off_c, 1, 53, 100
3, 72956, Note_off_c, 1, 48, 100
3, 72956, Note_off_c, 1, 45, 100
3, 73152, Note_on_c, 1, 40, 110
3, 73152, Note_on_c, 1, 48, 110
3, 73340, Note_off_c, 1, 40, 100
3, 73340, Note_off_c, 1, 48, 100
3, 73344, Note_on_c, 1, 41, 110
3, 73344, Note_on_c, 1, 48, 110
3, 73532, Note_off_c, 1, 41, 100
3, 73532, Note_off_c, 1, 48, 100
3, 73536, Note_on_c, 1, 46, 110
3, 73536, Note_on_c, 1, 48, 110
3, 73724, Note_off_c, 1, 46, 100
3, 73724, Note_off_c, 1, 48, 100
3, 73728, Note_on_c, 1, 45, 110
3, 73728, Note_on_c, 1, 48, 110
3, 73916, Note_off_c, 1, 45, 100
3, 73916, Note_off_c, 1, 48, 100
3, 73920, Note_on_c, 1, 40, 110
3, 73920, Note_on_c, 1, 48, 110
3, 74108, Note_off_c, 1, 40, 100
3, 74108, Note_off_c, 1, 48, 100
3, 74112, Note_on_c, 1, 41, 110
3, 74112, Note_on_c, 1, 48, 110
3, 74300, Note_off_c, 1, 41, 100
3, 74300, Note_off_c, 1, 48, 100
3, 74304, Note_on_c, 1, 46, 110
3, 74304, Note_on_c, 1, 48, 110
3, 74492, Note_off_c, 1, 46, 100
3, 74492, Note_off_c, 1, 48, 100
3, 74496, Note_on_c, 1, 45, 110
3, 74496, Note_on_c, 1, 48, 110
3, 74684, Note_off_c, 1, 45, 100
3, 74684, Note_off_c, 1, 48, 100
3, 74688, Note_on_c, 1, 40, 110
3, 74688, Note_on_c, 1, 48, 110
3, 74876, Note_off_c, 1, 40, 100
3, 74876, Note_off_c, 1, 48, 100
3, 74880, Note_on_c, 1, 41, 110
3, 74880, Note_on_c, 1, 48, 110
3, 75068, Note_off_c, 1, 41, 100
3, 75068, Note_off_c, 1, 48, 100
3, 75072, Note_on_c, 1, 46, 110
3, 75072, Note_on_c, 1, 48, 110
3, 75260, Note_off_c, 1, 46, 100
3, 75260, Note_off_c, 1, 48, 100
3, 75264, Note_on_c, 1, 45, 110
3, 75264, Note_on_c, 1, 48, 110
3, 75452, Note_off_c, 1, 45, 100
3, 75452, Note_off_c, 1, 48, 100
3, 75456, Note_on_c, 1, 40, 110
3, 75456, Note_on_c, 1, 48, 110
3, 75644, Note_off_c, 1, 40, 100
3, 75644, Note_off_c, 1, 48, 100
3, 75648, Note_on_c, 1, 41, 110
3, 76412, Note_off_c, 1, 41, 100
3, 76416, Note_on_c, 1, 38, 110
3, 77180, Note_off_c, 1, 38, 100
3, 77184, Note_on_c, 1, 34, 110
3, 77948, Note_off_c, 1, 34, 100
3, 77952, Note_on_c, 1, 36, 110
3, 78716, Note_off_c, 1, 36, 100
3, 78720, Note_on_c, 1, 41, 110
3, 78720, Note_on_c, 1, 29, 110
3, 78908, Note_off_c, 1, 41, 100
3, 78908, Note_off_c, 1, 29, 100
3, 78912, Note_on_c, 1, 46, 80
3, 79100, Note_off_c, 1, 46, 100
3, 79104, Note_on_c, 1, 45, 80
3, 79292, Note_off_c, 1, 45, 100
3, 79296, Note_on_c, 1, 40, 80
3, 79484, Note_off_c, 1, 40, 100
3, 79488, Note_on_c, 1, 41, 80
3, 79676, Note_off_c, 1, 41, 100
3, 79680, Note_on_c, 1, 46, 80
3, 79868, Note_off_c, 1, 46, 100
3, 79872, Note_on_c, 1, 45, 80
3, 80060, Note_off_c, 1, 45, 100
3, 80064, Note_on_c, 1, 40, 80
3, 80252, Note_off_c, 1, 40, 100
3, 80256, Note_on_c, 1, 41, 80
3, 80444, Note_off_c, 1, 41, 100
3, 80448, Note_on_c, 1, 46, 83
3, 80636, Note_off_c, 1, 46, 100
3, 80640, Note_on_c, 1, 45, 86
3, 80828, Note_off_c, 1, 45, 100
3, 80832, Note_on_c, 1, 40, 89
3, 81020, Note_off_c, 1, 40, 100
3, 81024, Note_on_c, 1, 41, 92
3, 81212, Note_off_c, 1, 41, 100
3, 81216, Note_on_c, 1, 43, 95
3, 81404, Note_off_c, 1, 43, 100
3, 81408, Note_on_c, 1, 41, 98
3, 81596, Note_off_c, 1, 41, 100
3, 81600, Note_on_c, 1, 40, 102
3, 81788, Note_off_c, 1, 40, 100
3, 81792, Note_on_c, 1, 38, 105
3, 81980, Note_off_c, 1, 38, 100
3, 81984, Note_on_c, 1, 36, 108
3, 82172, Note_off_c, 1, 36, 100
3, 82176, Note_on_c, 1, 34, 120
3, 82364, Note_off_c, 1, 34, 100
3, 82368, Note_on_c, 1, 33, 120
3, 82556, Note_off_c, 1, 33, 100
3, 82560, Note_on_c, 1, 31, 120
3, 84096, Note_on_c, 1, 36, 120
3, 84188, Note_off_c, 1, 31, 100
3, 84860, Note_off_c, 1, 36, 100
3, 84864, Note_on_c, 1, 29, 120
3, 84960, Note_on_c, 1, 41, 80
3, 85020, Note_off_c, 1, 29, 100
3, 85056, Note_on_c, 1, 29, 80
3, 85116, Note_off_c, 1, 41, 100
3, 85152, Note_on_c, 1, 41, 80
3, 85228, Note_off_c, 1, 29, 100
3, 85248, Note_on_c, 1, 29, 80
3, 85324, Note_off_c, 1, 41, 100
3, 85344, Note_on_c, 1, 41, 80
3, 85424, Note_off_c, 1, 29, 100
3, 85440, Note_on_c, 1, 29, 80
3, 85516, Note_off_c, 1, 41, 100
3, 85536, Note_on_c, 1, 41, 80
3, 85624, Note_off_c, 1, 29, 100
3, 85632, Note_on_c, 1, 29, 80
3, 85704, Note_off_c, 1, 41, 100
3, 85728, Note_on_c, 1, 41, 80
3, 85812, Note_off_c, 1, 29, 100
3, 85824, Note_on_c, 1, 29, 80
3, 85892, Note_off_c, 1, 41, 100
3, 85920, Note_on_c, 1, 41, 80
3, 86004, Note_off_c, 1, 29, 100
3, 86016, Note_on_c, 1, 29, 80
3, 86084, Note_off_c, 1, 41, 100
3, 86112, Note_on_c, 1, 41, 80
3, 86204, Note_off_c, 1, 29, 100
3, 86208, Note_on_c, 1, 29, 80
3, 86276, Note_off_c, 1, 41, 100
3, 86304, Note_on_c, 1, 41, 80
3, 86384, Note_off_c, 1, 29, 100
3, 86400, Note_on_c, 1, 29, 120
3, 86468, Note_off_c, 1, 41, 100
3, 86496, Note_on_c, 1, 41, 80
3, 86556, Note_off_c, 1, 29, 100
3, 86592, Note_on_c, 1, 29, 80
3, 86652, Note_off_c, 1, 41, 100
3, 86688, Note_on_c, 1, 41, 80
3, 86764, Note_off_c, 1, 29, 100
3, 86784, Note_on_c, 1, 29, 80
3, 86860, Note_off_c, 1, 41, 100
3, 86880, Note_on_c, 1, 41, 80
3, 86960, Note_off_c, 1, 29, 100
3, 86976, Note_on_c, 1, 29, 80
3, 87052, Note_off_c, 1, 41, 100
3, 87072, Note_on_c, 1, 41, 80
3, 87160, Note_off_c, 1, 29, 100
3, 87168, Note_on_c, 1, 29, 80
3, 87240, Note_off_c, 1, 41, 100
3, 87264, Note_on_c, 1, 41, 80
3, 87348, Note_off_c, 1, 29, 100
3, 87360, Note_on_c, 1, 29, 80
3, 87428, Note_off_c, 1, 41, 100
3, 87456, Note_on_c, 1, 41, 80
3, 87540, Note_off_c, 1, 29, 100
3, 87552, Note_on_c, 1, 29, 80
3, 87620, Note_off_c, 1, 41, 100
3, 87648, Note_on_c, 1, 41, 80
3, 87740, Note_off_c, 1, 29, 100
3, 87744, Note_on_c, 1, 29, 80
3, 87812, Note_off_c, 1, 41, 100
3, 87840, Note_on_c, 1, 41, 80
3, 87920, Note_off_c, 1, 29, 100
3, 87936, Note_on_c, 1, 29, 120
3, 88004, Note_off_c, 1, 41, 100
3, 88032, Note_on_c, 1, 41, 80
3, 88092, Note_off_c, 1, 29, 100
3, 88128, Note_on_c, 1, 29, 80
3, 88188, Note_off_c, 1, 41, 100
3, 88224, Note_on_c, 1, 41, 80
3, 88300, Note_off_c, 1, 29, 100
3, 88320, Note_on_c, 1, 29, 80
3, 88396, Note_off_c, 1, 41, 100
3, 88416, Note_on_c, 1, 41, 80
3, 88496, Note_off_c, 1, 29, 100
3, 88512, Note_on_c, 1, 29, 80
3, 88588, Note_off_c, 1, 41, 100
3, 88608, Note_on_c, 1, 41, 80
3, 88696, Note_off_c, 1, 29, 100
3, 88704, Note_on_c, 1, 29, 80
3, 88776, Note_off_c, 1, 41, 100
3, 88800, Note_on_c, 1, 41, 80
3, 88884, Note_off_c, 1, 29, 100
3, 88896, Note_on_c, 1, 29, 80
3, 88964, Note_off_c, 1, 41, 100
3, 88992, Note_on_c, 1, 41, 80
3, 89076, Note_off_c, 1, 29, 100
3, 89088, Note_on_c, 1, 29, 80
3, 89156, Note_off_c, 1, 41, 100
3, 89184, Note_on_c, 1, 41, 80
3, 89276, Note_off_c, 1, 29, 100
3, 89280, Note_on_c, 1, 29, 80
3, 89348, Note_off_c, 1, 41, 100
3, 89376, Note_on_c, 1, 41, 80
3, 89456, Note_off_c, 1, 29, 100
3, 89472, Note_on_c, 1, 29, 120
3, 89540, Note_off_c, 1, 41, 100
3, 89568, Note_on_c, 1, 41, 80
3, 89628, Note_off_c, 1, 29, 100
3, 89664, Note_on_c, 1, 29, 80
3, 89724, Note_off_c, 1, 41, 100
3, 89760, Note_on_c, 1, 41, 80
3, 89836, Note_off_c, 1, 29, 100
3, 89856, Note_on_c, 1, 29, 80
3, 89932, Note_off_c, 1, 41, 100
3, 89952, Note_on_c, 1, 41, 80
3, 90032, Note_off_c, 1, 29, 100
3, 90048, Note_on_c, 1, 29, 80
3, 90124, Note_off_c, 1, 41, 100
3, 90144, Note_on_c, 1, 41, 80
3, 90232, Note_off_c, 1, 29, 100
3, 90240, Note_on_c, 1, 29, 80
3, 90312, Note_off_c, 1, 41, 100
3, 90336, Note_on_c, 1, 41, 80
3, 90420, Note_off_c, 1, 29, 100
3, 90432, Note_on_c, 1, 29, 80
3, 90500, Note_off_c, 1, 41, 100
3, 90528, Note_on_c, 1, 41, 80
3, 90612, Note_off_c, 1, 29, 100
3, 90624, Note_on_c, 1, 29, 80
3, 90692, Note_off_c, 1, 41, 100
3, 90720, Note_on_c, 1, 41, 80
3, 90812, Note_off_c, 1, 29, 100
3, 90816, Note_on_c, 1, 29, 80
3, 90884, Note_off_c, 1, 41, 100
3, 90912, Note_on_c, 1, 41, 80
3, 90992, Note_off_c, 1, 29, 100
3, 91008, Note_on_c, 1, 29, 120
3, 91076, Note_off_c, 1, 41, 100
3, 91104, Note_on_c, 1, 41, 80
3, 91164, Note_off_c, 1, 29, 100
3, 91200, Note_on_c, 1, 29, 80
3, 91260, Note_off_c, 1, 41, 100
3, 91296, Note_on_c, 1, 41, 80
3, 91372, Note_off_c, 1, 29, 100
3, 91392, Note_on_c, 1, 29, 80
3, 91468, Note_off_c, 1, 41, 100
3, 91488, Note_on_c, 1, 41, 80
3, 91568, Note_off_c, 1, 29, 100
3, 91584, Note_on_c, 1, 29, 80
3, 91660, Note_off_c, 1, 41, 100
3, 91680, Note_on_c, 1, 41, 80
3, 91768, Note_off_c, 1, 29, 100
3, 91776, Note_on_c, 1, 29, 80
3, 91848, Note_off_c, 1, 41, 100
3, 91872, Note_on_c, 1, 41, 80
3, 91956, Note_off_c, 1, 29, 100
3, 91968, Note_on_c, 1, 29, 80
3, 92036, Note_off_c, 1, 41, 100
3, 92064, Note_on_c, 1, 41, 80
3, 92148, Note_off_c, 1, 29, 100
3, 92160, Note_on_c, 1, 29, 80
3, 92228, Note_off_c, 1, 41, 100
3, 92256, Note_on_c, 1, 41, 80
3, 92348, Note_off_c, 1, 29, 100
3, 92352, Note_on_c, 1, 29, 80
3, 92420, Note_off_c, 1, 41, 100
3, 92448, Note_on_c, 1, 41, 80
3, 92528, Note_off_c, 1, 29, 100
3, 92544, Note_on_c, 1, 29, 120
3, 92612, Note_off_c, 1, 41, 100
3, 92640, Note_on_c, 1, 41, 80
3, 92700, Note_off_c, 1, 29, 100
3, 92736, Note_on_c, 1, 29, 80
3, 92796, Note_off_c, 1, 41, 100
3, 92832, Note_on_c, 1, 41, 80
3, 92908, Note_off_c, 1, 29, 100
3, 92928, Note_on_c, 1, 29, 80
3, 93004, Note_off_c, 1, 41, 100
3, 93024, Note_on_c, 1, 41, 80
3, 93104, Note_off_c, 1, 29, 100
3, 93120, Note_on_c, 1, 29, 80
3, 93196, Note_off_c, 1, 41, 100
3, 93216, Note_on_c, 1, 41, 80
3, 93304, Note_off_c, 1, 29, 100
3, 93312, Note_on_c, 1, 29, 70
3, 93384, Note_off_c, 1, 41, 100
3, 93408, Note_on_c, 1, 41, 70
3, 93492, Note_off_c, 1, 29, 100
3, 93504, Note_on_c, 1, 29, 70
3, 93572, Note_off_c, 1, 41, 100
3, 93600, Note_on_c, 1, 41, 70
3, 93684, Note_off_c, 1, 29, 100
3, 93696, Note_on_c, 1, 29, 70
3, 93764, Note_off_c, 1, 41, 100
3, 93792, Note_on_c, 1, 41, 70
3, 93884, Note_off_c, 1, 29, 100
3, 93888, Note_on_c, 1, 29, 70
3, 93956, Note_off_c, 1, 41, 100
3, 93984, Note_on_c, 1, 41, 70
3, 94064, Note_off_c, 1, 29, 100
3, 94076, Note_off_c, 1, 41, 100
3, 94080, Note_on_c, 1, 29, 120
3, 94080, Note_on_c, 1, 41, 120
3, 94652, Note_off_c, 1, 29, 100
3, 94652, Note_off_c, 1, 41, 100
3, 94656, Note_on_c, 1, 31, 120
3, 94656, Note_on_c, 1, 43, 120
3, 94844, Note_off_c, 1, 31, 100
3, 94844, Note_off_c, 1, 43, 100
3, 94848, Note_on_c, 1, 33, 120
3, 94848, Note_on_c, 1, 45, 120
3, 95420, Note_off_c, 1, 33, 100
3, 95420, Note_off_c, 1, 45, 100
3, 95424, Note_on_c, 1, 34, 120
3, 95424, Note_on_c, 1, 46, 120
3, 95612, Note_off_c, 1, 34, 100
3, 95612, Note_off_c, 1, 46, 100
3, 95616, Note_on_c, 1, 36, 120
3, 95616, Note_on_c, 1, 48, 120
3, 96188, Note_off_c, 1, 36, 100
3, 96188, Note_off_c, 1, 48, 100
3, 96192, Note_on_c, 1, 38, 120
3, 96192, Note_on_c, 1, 50, 120
3, 96380, Note_off_c, 1, 38, 100
3, 96380, Note_off_c, 1, 50, 100
3, 96384, Note_on_c, 1, 40, 120
3, 96384, Note_on_c, 1, 52, 120
3, 96572, Note_off_c, 1, 40, 100
3, 96572, Note_off_c, 1, 52, 100
3, 96576, Note_on_c, 1, 41, 120
3, 96576, Note_on_c, 1, 53, 120
3, 96764, Note_off_c, 1, 41, 100
3, 96764, Note_off_c, 1, 53, 100
3, 96768, Note_on_c, 1, 43, 120
3, 96768, Note_on_c, 1, 55, 120
3, 96956, Note_off_c, 1, 43, 100
3, 96956, Note_off_c, 1, 55, 100
3, 96960, Note_on_c, 1, 45, 120
3, 96960, Note_on_c, 1, 57, 120
3, 97148, Note_off_c, 1, 45, 100
3, 97148, Note_off_c, 1, 57, 100
3, 97152, Note_on_c, 1, 46, 120
3, 97152, Note_on_c, 1, 58, 120
3, 97724, Note_off_c, 1, 46, 100
3, 97724, Note_off_c, 1, 58, 100
3, 97728, Note_on_c, 1, 45, 120
3, 97728, Note_on_c, 1, 57, 120
3, 97916, Note_off_c, 1, 45, 100
3, 97916, Note_off_c, 1, 57, 100
3, 97920, Note_on_c, 1, 43, 120
3, 97920, Note_on_c, 1, 55, 120
3, 98492, Note_off_c, 1, 43, 100
3, 98492, Note_off_c, 1, 55, 100
3, 98496, Note_on_c, 1, 41, 120
3, 98496, Note_on_c, 1, 53, 120
3, 98684, Note_off_c, 1, 41, 100
3, 98684, Note_off_c, 1, 53, 100
3, 98688, Note_on_c, 1, 40, 120
3, 98688, Note_on_c, 1, 52, 120
3, 99260, Note_off_c, 1, 40, 100
3, 99260, Note_off_c, 1, 52, 100
3, 99264, Note_on_c, 1, 38, 120
3, 99264, Note_on_c, 1, 50, 120
3, 99452, Note_off_c, 1, 38, 100
3, 99452, Note_off_c, 1, 50, 100
3, 99456, Note_on_c, 1, 36, 120
3, 99456, Note_on_c, 1, 48, 120
3, 99644, Note_off_c, 1, 36, 100
3, 99644, Note_off_c, 1, 48, 100
3, 99648, Note_on_c, 1, 34, 120
3, 99648, Note_on_c, 1, 46, 120
3, 99836, Note_off_c, 1, 34, 100
3, 99836, Note_off_c, 1, 46, 100
3, 99840, Note_on_c, 1, 33, 120
3, 99840, Note_on_c, 1, 45, 120
3, 100028, Note_off_c, 1, 33, 100
3, 100028, Note_off_c, 1, 45, 100
3, 100032, Note_on_c, 1, 31, 120
3, 100032, Note_on_c, 1, 43, 120
3, 100220, Note_off_c, 1, 31, 100
3, 100220, Note_off_c, 1, 43, 100
3, 100224, Note_on_c, 1, 29, 120
3, 100224, Note_on_c, 1, 41, 120
3, 100604, Note_off_c, 1, 29, 100
3, 100604, Note_off_c, 1, 41, 100
3, 100608, Note_on_c, 1, 58, 80
3, 100608, Note_on_c, 1, 55, 80
3, 100608, Note_on_c, 1, 48, 80
3, 100988, Note_off_c, 1, 58, 100
3, 100988, Note_off_c, 1, 55, 100
3, 100988, Note_off_c, 1, 48, 100
3, 100992, Note_on_c, 1, 57, 80
3, 100992, Note_on_c, 1, 53, 80
3, 101372, Note_off_c, 1, 57, 100
3, 101372, Note_off_c, 1, 53, 100
3, 101376, Note_on_c, 1, 70, 80
3, 101376, Note_on_c, 1, 67, 80
3, 101376, Note_on_c, 1, 60, 80
3, 101756, Note_off_c, 1, 70, 100
3, 101756, Note_off_c, 1, 67, 100
3, 101756, Note_off_c, 1, 60, 100
3, 101760, Note_on_c, 1, 65, 80
3, 101760, Note_on_c, 1, 69, 80
3, 102140, Note_off_c, 1, 65, 100
3, 102140, Note_off_c, 1, 69, 100
3, 102528, Note_on_c, 1, 60, 120
3, 102528, Note_on_c, 1, 48, 120
3, 102908, Note_off_c, 1, 60, 100
3, 102908, Note_off_c, 1, 48, 100
3, 103296, Note_on_c, 1, 53, 120
3, 103296, Note_on_c, 1, 41, 120
3, 103676, Note_off_c, 1, 53, 100
3, 103676, Note_off_c, 1, 41, 100
3, 104832, Note_on_c, 1, 46, 80
3, 104832, Note_on_c, 1, 34, 80
3, 105212, Note_off_c, 1, 46, 100
3, 105212, Note_off_c, 1, 34, 100
3, 105216, Note_on_c, 1, 46, 80
3, 105216, Note_on_c, 1, 34, 80
3, 105596, Note_off_c, 1, 46, 100
3, 105596, Note_off_c, 1, 34, 100
3, 106368, Note_on_c, 1, 46, 80
3, 106368, Note_on_c, 1, 34, 80
3, 106748, Note_off_c, 1, 46, 100
3, 106748, Note_off_c, 1, 34, 100
3, 106752, Note_on_c, 1, 46, 80
3, 106752, Note_on_c, 1, 34, 80
3, 107132, Note_off_c, 1, 46, 100
3, 107132, Note_off_c, 1, 34, 100
3, 109440, Note_on_c, 1, 46, 109
3, 109536, Note_on_c, 1, 50, 80
3, 109608, Note_off_c, 1, 46, 100
3, 109632, Note_on_c, 1, 53, 80
3, 109712, Note_off_c, 1, 50, 100
3, 109728, Note_on_c, 1, 58, 80
3, 109804, Note_off_c, 1, 53, 100
3, 109824, Note_on_c, 1, 46, 80
3, 109912, Note_off_c, 1, 58, 100
3, 109920, Note_on_c, 1, 50, 80
3, 109984, Note_off_c, 1, 46, 100
3, 110016, Note_on_c, 1, 53, 80
3, 110100, Note_off_c, 1, 50, 100
3, 110112, Note_on_c, 1, 58, 80
3, 110180, Note_off_c, 1, 53, 100
3, 110208, Note_on_c, 1, 46, 80
3, 110284, Note_off_c, 1, 58, 100
3, 110304, Note_on_c, 1, 50, 80
3, 110384, Note_off_c, 1, 46, 100
3, 110400, Note_on_c, 1, 53, 80
3, 110468, Note_off_c, 1, 50, 100
3, 110496, Note_on_c, 1, 58, 80
3, 110556, Note_off_c, 1, 53, 100
3, 110592, Note_on_c, 1, 46, 80
3, 110648, Note_off_c, 1, 58, 100
3, 110688, Note_on_c, 1, 50, 80
3, 110772, Note_off_c, 1, 46, 100
3, 110784, Note_on_c, 1, 53, 80
3, 110848, Note_off_c, 1, 50, 100
3, 110880, Note_on_c, 1, 58, 80
3, 110956, Note_off_c, 1, 53, 100
3, 110976, Note_on_c, 1, 48, 80
3, 111044, Note_off_c, 1, 58, 100
3, 111072, Note_on_c, 1, 51, 80
3, 111140, Note_off_c, 1, 48, 100
3, 111168, Note_on_c, 1, 55, 80
3, 111248, Note_off_c, 1, 51, 100
3, 111264, Note_on_c, 1, 58, 80
3, 111336, Note_off_c, 1, 55, 100
3, 111360, Note_on_c, 1, 48, 80
3, 111432, Note_off_c, 1, 58, 100
3, 111456, Note_on_c, 1, 51, 80
3, 111528, Note_off_c, 1, 48, 100
3, 111552, Note_on_c, 1, 55, 80
3, 111620, Note_off_c, 1, 51, 100
3, 111648, Note_on_c, 1, 58, 80
3, 111712, Note_off_c, 1, 55, 100
3, 111744, Note_on_c, 1, 46, 80
3, 111812, Note_off_c, 1, 58, 100
3, 111840, Note_on_c, 1, 51, 80
3, 111900, Note_off_c, 1, 46, 100
3, 111936, Note_on_c, 1, 53, 80
3, 112008, Note_off_c, 1, 51, 100
3, 112032, Note_on_c, 1, 57, 80
3, 112084, Note_off_c, 1, 53, 100
3, 112128, Note_on_c, 1, 46, 80
3, 112208, Note_off_c, 1, 57, 100
3, 112224, Note_on_c, 1, 51, 80
3, 112296, Note_off_c, 1, 46, 100
3, 112320, Note_on_c, 1, 53, 80
3, 112392, Note_off_c, 1, 51, 100
3, 112416, Note_on_c, 1, 57, 80
3, 112476, Note_off_c, 1, 53, 100
3, 112512, Note_on_c, 1, 46, 80
3, 112580, Note_off_c, 1, 57, 100
3, 112608, Note_on_c, 1, 50, 80
3, 112676, Note_off_c, 1, 46, 100
3, 112704, Note_on_c, 1, 53, 80
3, 112772, Note_off_c, 1, 50, 100
3, 112800, Note_on_c, 1, 58, 80
3, 112876, Note_off_c, 1, 53, 100
3, 112896, Note_on_c, 1, 46, 80
3, 112964, Note_off_c, 1, 58, 100
3, 112992, Note_on_c, 1, 50, 80
3, 113056, Note_off_c, 1, 46, 100
3, 113088, Note_on_c, 1, 53, 80
3, 113156, Note_off_c, 1, 50, 100
3, 113184, Note_on_c, 1, 58, 80
3, 113260, Note_off_c, 1, 53, 100
3, 113280, Note_on_c, 1, 46, 80
3, 113336, Note_off_c, 1, 58, 100
3, 113376, Note_on_c, 1, 50, 80
3, 113456, Note_off_c, 1, 46, 100
3, 113472, Note_on_c, 1, 53, 80
3, 113556, Note_off_c, 1, 50, 100
3, 113568, Note_on_c, 1, 56, 80
3, 113640, Note_off_c, 1, 53, 100
3, 113664, Note_on_c, 1, 46, 80
3, 113732, Note_off_c, 1, 56, 100
3, 113760, Note_on_c, 1, 50, 80
3, 113832, Note_off_c, 1, 46, 100
3, 113856, Note_on_c, 1, 53, 80
3, 113924, Note_off_c, 1, 50, 100
3, 113952, Note_on_c, 1, 56, 80
3, 114020, Note_off_c, 1, 53, 100
3, 114048, Note_on_c, 1, 46, 80
3, 114120, Note_off_c, 1, 56, 100
3, 114144, Note_on_c, 1, 51, 80
3, 114228, Note_off_c, 1, 46, 100
3, 114240, Note_on_c, 1, 57, 80
3, 114316, Note_off_c, 1, 51, 100
3, 114336, Note_on_c, 1, 51, 80
3, 114408, Note_off_c, 1, 57, 100
3, 114432, Note_on_c, 1, 46, 80
3, 114512, Note_off_c, 1, 51, 100
3, 114528, Note_on_c, 1, 51, 80
3, 114616, Note_off_c, 1, 46, 100
3, 114624, Note_on_c, 1, 57, 80
3, 114712, Note_off_c, 1, 51, 100
3, 114720, Note_on_c, 1, 51, 80
3, 114808, Note_off_c, 1, 57, 100
3, 114816, Note_on_c, 1, 46, 80
3, 114900, Note_off_c, 1, 51, 100
3, 114912, Note_on_c, 1, 48, 80
3, 114968, Note_off_c, 1, 46, 100
3, 115008, Note_on_c, 1, 51, 80
3, 115076, Note_off_c, 1, 48, 100
3, 115104, Note_on_c, 1, 53, 80
3, 115180, Note_off_c, 1, 51, 100
3, 115200, Note_on_c, 1, 46, 80
3, 115268, Note_off_c, 1, 53, 100
3, 115296, Note_on_c, 1, 48, 80
3, 115364, Note_off_c, 1, 46, 100
3, 115392, Note_on_c, 1, 51, 80
3, 115472, Note_off_c, 1, 48, 100
3, 115488, Note_on_c, 1, 53, 80
3, 115560, Note_off_c, 1, 51, 100
3, 115580, Note_off_c, 1, 53, 100
3, 115584, Note_on_c, 1, 46, 110
3, 115964, Note_off_c, 1, 46, 100
3, 115968, Note_on_c, 1, 46, 110
3, 116060, Note_off_c, 1, 46, 100
3, 116064, Note_on_c, 1, 45, 110
3, 116156, Note_off_c, 1, 45, 100
3, 116160, Note_on_c, 1, 46, 110
3, 116252, Note_off_c, 1, 46, 100
3, 116256, Note_on_c, 1, 43, 110
3, 116348, Note_off_c, 1, 43, 100
3, 116352, Note_on_c, 1, 41, 110
3, 116732, Note_off_c, 1, 41, 100
3, 116736, Note_on_c, 1, 51, 110
3, 116828, Note_off_c, 1, 51, 100
3, 116832, Note_on_c, 1, 50, 110
3, 116924, Note_off_c, 1, 50, 100
3, 116928, Note_on_c, 1, 51, 110
3, 117020, Note_off_c, 1, 51, 100
3, 117024, Note_on_c, 1, 48, 110
3, 117116, Note_off_c, 1, 48, 100
3, 117120, Note_on_c, 1, 46, 110
3, 117500, Note_off_c, 1, 46, 100
3, 117504, Note_on_c, 1, 58, 110
3, 117596, Note_off_c, 1, 58, 100
3, 117600, Note_on_c, 1, 57, 110
3, 117692, Note_off_c, 1, 57, 100
3, 117696, Note_on_c, 1, 58, 110
3, 117788, Note_off_c, 1, 58, 100
3, 117792, Note_on_c, 1, 55, 110
3, 117884, Note_off_c, 1, 55, 100
3, 117888, Note_on_c, 1, 53, 110
3, 118268, Note_off_c, 1, 53, 100
3, 118272, Note_on_c, 1, 63, 110
3, 118364, Note_off_c, 1, 63, 100
3, 118368, Note_on_c, 1, 62, 110
3, 118460, Note_off_c, 1, 62, 100
3, 118464, Note_on_c, 1, 63, 110
3, 118556, Note_off_c, 1, 63, 100
3, 118560, Note_on_c, 1, 60, 110
3, 118652, Note_off_c, 1, 60, 100
3, 118656, Note_on_c, 1, 58, 110
3, 118844, Note_off_c, 1, 58, 100
3, 118848, Note_on_c, 1, 60, 110
3, 118944, Note_on_c, 1, 62, 110
3, 118972, Note_off_c, 1, 60, 100
3, 119036, Note_off_c, 1, 62, 100
3, 119040, Note_on_c, 1, 63, 110
3, 119132, Note_off_c, 1, 63, 100
3, 119136, Note_on_c, 1, 65, 110
3, 119228, Note_off_c, 1, 65, 100
3, 119232, Note_on_c, 1, 67, 110
3, 119324, Note_off_c, 1, 67, 100
3, 119328, Note_on_c, 1, 69, 110
3, 119420, Note_off_c, 1, 69, 100
3, 119424, Note_on_c, 1, 70, 110
3, 119516, Note_off_c, 1, 70, 100
3, 119520, Note_on_c, 1, 69, 110
3, 119612, Note_off_c, 1, 69, 100
3, 119616, Note_on_c, 1, 70, 110
3, 119708, Note_off_c, 1, 70, 100
3, 119712, Note_on_c, 1, 72, 110
3, 119804, Note_off_c, 1, 72, 100
3, 119808, Note_on_c, 1, 74, 110
3, 119900, Note_off_c, 1, 74, 100
3, 119904, Note_on_c, 1, 72, 110
3, 119996, Note_off_c, 1, 72, 100
3, 120000, Note_on_c, 1, 74, 110
3, 120092, Note_off_c, 1, 74, 100
3, 120096, Note_on_c, 1, 76, 110
3, 120188, Note_off_c, 1, 76, 100
3, 120192, Note_on_c, 1, 77, 110
3, 120572, Note_off_c, 1, 77, 100
3, 120576, Note_on_c, 1, 53, 110
3, 120956, Note_off_c, 1, 53, 100
3, 121344, Note_on_c, 1, 46, 110
3, 121440, Note_on_c, 1, 45, 110
3, 121508, Note_off_c, 1, 46, 100
3, 121536, Note_on_c, 1, 46, 110
3, 121600, Note_off_c, 1, 45, 100
3, 121632, Note_on_c, 1, 41, 110
3, 121712, Note_off_c, 1, 46, 100
3, 121728, Note_on_c, 1, 50, 110
3, 121784, Note_off_c, 1, 41, 100
3, 121824, Note_on_c, 1, 49, 110
3, 121884, Note_off_c, 1, 50, 100
3, 121920, Note_on_c, 1, 50, 110
3, 121980, Note_off_c, 1, 49, 100
3, 122016, Note_on_c, 1, 46, 110
3, 122080, Note_off_c, 1, 50, 100
3, 122112, Note_on_c, 1, 53, 110
3, 122180, Note_off_c, 1, 46, 100
3, 122208, Note_on_c, 1, 52, 110
3, 122284, Note_off_c, 1, 53, 100
3, 122304, Note_on_c, 1, 53, 110
3, 122368, Note_off_c, 1, 52, 100
3, 122400, Note_on_c, 1, 50, 110
3, 122460, Note_off_c, 1, 53, 100
3, 122496, Note_on_c, 1, 58, 110
3, 122560, Note_off_c, 1, 50, 100
3, 122592, Note_on_c, 1, 57, 110
3, 122656, Note_off_c, 1, 58, 100
3, 122688, Note_on_c, 1, 58, 110
3, 122748, Note_off_c, 1, 57, 100
3, 122784, Note_on_c, 1, 53, 110
3, 122844, Note_off_c, 1, 58, 100
3, 122880, Note_on_c, 1, 62, 110
3, 122948, Note_off_c, 1, 53, 100
3, 122976, Note_on_c, 1, 61, 110
3, 123052, Note_off_c, 1, 62, 100
3, 123072, Note_on_c, 1, 62, 110
3, 123140, Note_off_c, 1, 61, 100
3, 123168, Note_on_c, 1, 58, 110
3, 123236, Note_off_c, 1, 62, 100
3, 123260, Note_off_c, 1, 58, 100
3, 123264, Note_on_c, 1, 65, 110
3, 123932, Note_off_c, 1, 65, 100
3, 123936, Note_on_c, 1, 63, 80
3, 124028, Note_off_c, 1, 63, 100
3, 124032, Note_on_c, 1, 62, 80
3, 124316, Note_off_c, 1, 62, 100
3, 124320, Note_on_c, 1, 60, 80
3, 124412, Note_off_c, 1, 60, 100
3, 124416, Note_on_c, 1, 58, 80
3, 124700, Note_off_c, 1, 58, 100
3, 124704, Note_on_c, 1, 56, 80
3, 124796, Note_off_c, 1, 56, 100
3, 124800, Note_on_c, 1, 55, 80
3, 125564, Note_off_c, 1, 55, 100
3, 125568, Note_on_c, 1, 56, 80
3, 125948, Note_off_c, 1, 56, 100
3, 125952, Note_on_c, 1, 54, 80
3, 126332, Note_off_c, 1, 54, 100
3, 126336, Note_on_c, 1, 55, 80
3, 126716, Note_off_c, 1, 55, 100
3, 126720, Note_on_c, 1, 52, 80
3, 127100, Note_off_c, 1, 52, 100
3, 127104, Note_on_c, 1, 53, 80
3, 127484, Note_off_c, 1, 53, 100
3, 127488, Note_on_c, 1, 50, 80
3, 127868, Note_off_c, 1, 50, 100
3, 127872, Note_on_c, 1, 48, 110
3, 127872, Note_on_c, 1, 36, 110
3, 128060, Note_off_c, 1, 48, 100
3, 128060, Note_off_c, 1, 36, 100
3, 128064, Note_on_c, 1, 60, 80
3, 128252, Note_off_c, 1, 60, 100
3, 128256, Note_on_c, 1, 60, 80
3, 128444, Note_off_c, 1, 60, 100
3, 128448, Note_on_c, 1, 60, 80
3, 128636, Note_off_c, 1, 60, 100
3, 128640, Note_on_c, 1, 60, 80
3, 128828, Note_off_c, 1, 60, 100
3, 128832, Note_on_c, 1, 60, 80
3, 129020, Note_off_c, 1, 60, 100
3, 129024, Note_on_c, 1, 60, 80
3, 129212, Note_off_c, 1, 60, 100
3, 129216, Note_on_c, 1, 60, 80
3, 129404, Note_off_c, 1, 60, 100
3, 129408, Note_on_c, 1, 60, 80
3, 129596, Note_off_c, 1, 60, 100
3, 129600, Note_on_c, 1, 60, 80
3, 129788, Note_off_c, 1, 60, 100
3, 129792, Note_on_c, 1, 60, 80
3, 129980, Note_off_c, 1, 60, 100
3, 129984, Note_on_c, 1, 60, 80
3, 130172, Note_off_c, 1, 60, 100
3, 130176, Note_on_c, 1, 60, 80
3, 130364, Note_off_c, 1, 60, 100
3, 130368, Note_on_c, 1, 60, 80
3, 130556, Note_off_c, 1, 60, 100
3, 130560, Note_on_c, 1, 60, 80
3, 130748, Note_off_c, 1, 60, 100
3, 130752, Note_on_c, 1, 60, 80
3, 130940, Note_off_c, 1, 60, 100
3, 130944, Note_on_c, 1, 48, 110
3, 130944, Note_on_c, 1, 36, 110
3, 131132, Note_off_c, 1, 48, 100
3, 131132, Note_off_c, 1, 36, 100
3, 131136, Note_on_c, 1, 60, 80
3, 131324, Note_off_c, 1, 60, 100
3, 131328, Note_on_c, 1, 60, 80
3, 131516, Note_off_c, 1, 60, 100
3, 131520, Note_on_c, 1, 60, 80
3, 131708, Note_off_c, 1, 60, 100
3, 131712, Note_on_c, 1, 60, 80
3, 131900, Note_off_c, 1, 60, 100
3, 131904, Note_on_c, 1, 60, 80
3, 132092, Note_off_c, 1, 60, 100
3, 132096, Note_on_c, 1, 60, 80
3, 132284, Note_off_c, 1, 60, 100
3, 132288, Note_on_c, 1, 60, 80
3, 132476, Note_off_c, 1, 60, 100
3, 132480, Note_on_c, 1, 60, 80
3, 132668, Note_off_c, 1, 60, 100
3, 132672, Note_on_c, 1, 60, 80
3, 132860, Note_off_c, 1, 60, 100
3, 132864, Note_on_c, 1, 60, 80
3, 133052, Note_off_c, 1, 60, 100
3, 133056, Note_on_c, 1, 60, 80
3, 133244, Note_off_c, 1, 60, 100
3, 133248, Note_on_c, 1, 60, 80
3, 133436, Note_off_c, 1, 60, 100
3, 133440, Note_on_c, 1, 60, 80
3, 133628, Note_off_c, 1, 60, 100
3, 133632, Note_on_c, 1, 60, 80
3, 133820, Note_off_c, 1, 60, 100
3, 133824, Note_on_c, 1, 60, 80
3, 134012, Note_off_c, 1, 60, 100
3, 134016, Note_on_c, 1, 48, 80
3, 134204, Note_off_c, 1, 48, 100
3, 134208, Note_on_c, 1, 60, 80
3, 134396, Note_off_c, 1, 60, 100
3, 134400, Note_on_c, 1, 60, 80
3, 134588, Note_off_c, 1, 60, 100
3, 134592, Note_on_c, 1, 60, 80
3, 134780, Note_off_c, 1, 60, 100
3, 134784, Note_on_c, 1, 48, 80
3, 134972, Note_off_c, 1, 48, 100
3, 134976, Note_on_c, 1, 60, 80
3, 135164, Note_off_c, 1, 60, 100
3, 135168, Note_on_c, 1, 60, 80
3, 135356, Note_off_c, 1, 60, 100
3, 135360, Note_on_c, 1, 60, 80
3, 135548, Note_off_c, 1, 60, 100
3, 135552, Note_on_c, 1, 48, 80
3, 135932, Note_off_c, 1, 48, 100
3, 137184, Note_on_c, 1, 53, 70
3, 137280, Note_on_c, 1, 55, 70
3, 137344, Note_off_c, 1, 53, 100
3, 137376, Note_on_c, 1, 57, 70
3, 137440, Note_off_c, 1, 55, 100
3, 137472, Note_on_c, 1, 58, 70
3, 137540, Note_off_c, 1, 57, 100
3, 137568, Note_on_c, 1, 60, 70
3, 137652, Note_off_c, 1, 58, 100
3, 137664, Note_on_c, 1, 62, 70
3, 137724, Note_off_c, 1, 60, 100
3, 137760, Note_on_c, 1, 64, 70
3, 137844, Note_off_c, 1, 62, 100
3, 137856, Note_on_c, 1, 65, 70
3, 137948, Note_off_c, 1, 64, 100
3, 137952, Note_on_c, 1, 64, 70
3, 138044, Note_off_c, 1, 65, 100
3, 138048, Note_on_c, 1, 65, 70
3, 138112, Note_off_c, 1, 64, 100
3, 138144, Note_on_c, 1, 64, 70
3, 138216, Note_off_c, 1, 65, 100
3, 138240, Note_on_c, 1, 65, 70
3, 138320, Note_off_c, 1, 64, 100
3, 138336, Note_on_c, 1, 64, 70
3, 138396, Note_off_c, 1, 65, 100
3, 138432, Note_on_c, 1, 65, 70
3, 138504, Note_off_c, 1, 64, 100
3, 138528, Note_on_c, 1, 64, 70
3, 138592, Note_off_c, 1, 65, 100
3, 138624, Note_on_c, 1, 65, 70
3, 138680, Note_off_c, 1, 64, 100
3, 138720, Note_on_c, 1, 64, 70
3, 138796, Note_off_c, 1, 65, 100
3, 138816, Note_on_c, 1, 65, 70
3, 138880, Note_off_c, 1, 64, 100
3, 138912, Note_on_c, 1, 64, 70
3, 138984, Note_off_c, 1, 65, 100
3, 139008, Note_on_c, 1, 65, 70
3, 139080, Note_off_c, 1, 64, 100
3, 139104, Note_on_c, 1, 64, 70
3, 139196, Note_off_c, 1, 65, 100
3, 139200, Note_on_c, 1, 65, 70
3, 139280, Note_off_c, 1, 64, 100
3, 139296, Note_on_c, 1, 64, 70
3, 139376, Note_off_c, 1, 65, 100
3, 139392, Note_on_c, 1, 65, 70
3, 139472, Note_off_c, 1, 64, 100
3, 139488, Note_on_c, 1, 64, 70
3, 139568, Note_off_c, 1, 65, 100
3, 139584, Note_on_c, 1, 65, 70
3, 139652, Note_off_c, 1, 64, 100
3, 139680, Note_on_c, 1, 64, 70
3, 139748, Note_off_c, 1, 65, 100
3, 139776, Note_on_c, 1, 65, 70
3, 139840, Note_off_c, 1, 64, 100
3, 139872, Note_on_c, 1, 64, 70
3, 139948, Note_off_c, 1, 65, 100
3, 139968, Note_on_c, 1, 65, 70
3, 140040, Note_off_c, 1, 64, 100
3, 140064, Note_on_c, 1, 64, 70
3, 140116, Note_off_c, 1, 65, 100
3, 140160, Note_on_c, 1, 65, 70
3, 140232, Note_off_c, 1, 64, 100
3, 140256, Note_on_c, 1, 53, 70
3, 140316, Note_off_c, 1, 65, 100
3, 140352, Note_on_c, 1, 55, 70
3, 140416, Note_off_c, 1, 53, 100
3, 140448, Note_on_c, 1, 57, 70
3, 140516, Note_off_c, 1, 55, 100
3, 140544, Note_on_c, 1, 58, 70
3, 140608, Note_off_c, 1, 57, 100
3, 140640, Note_on_c, 1, 60, 70
3, 140716, Note_off_c, 1, 58, 100
3, 140736, Note_on_c, 1, 62, 70
3, 140812, Note_off_c, 1, 60, 100
3, 140832, Note_on_c, 1, 64, 70
3, 140920, Note_off_c, 1, 62, 100
3, 140928, Note_on_c, 1, 65, 70
3, 141004, Note_off_c, 1, 64, 100
3, 141024, Note_on_c, 1, 64, 70
3, 141104, Note_off_c, 1, 65, 100
3, 141120, Note_on_c, 1, 65, 70
3, 141192, Note_off_c, 1, 64, 100
3, 141216, Note_on_c, 1, 64, 70
3, 141284, Note_off_c, 1, 65, 100
3, 141312, Note_on_c, 1, 65, 70
3, 141384, Note_off_c, 1, 64, 100
3, 141408, Note_on_c, 1, 64, 70
3, 141476, Note_off_c, 1, 65, 100
3, 141504, Note_on_c, 1, 65, 70
3, 141568, Note_off_c, 1, 64, 100
3, 141600, Note_on_c, 1, 64, 70
3, 141692, Note_off_c, 1, 65, 100
3, 141696, Note_on_c, 1, 65, 70
3, 141764, Note_off_c, 1, 64, 100
3, 141792, Note_on_c, 1, 64, 70
3, 141860, Note_off_c, 1, 65, 100
3, 141888, Note_on_c, 1, 65, 70
3, 141960, Note_off_c, 1, 64, 100
3, 141984, Note_on_c, 1, 64, 70
3, 142056, Note_off_c, 1, 65, 100
3, 142080, Note_on_c, 1, 65, 70
3, 142148, Note_off_c, 1, 64, 100
3, 142176, Note_on_c, 1, 64, 70
3, 142244, Note_off_c, 1, 65, 100
3, 142272, Note_on_c, 1, 65, 70
3, 142348, Note_off_c, 1, 64, 100
3, 142368, Note_on_c, 1, 64, 70
3, 142452, Note_off_c, 1, 65, 100
3, 142464, Note_on_c, 1, 65, 70
3, 142544, Note_off_c, 1, 64, 100
3, 142560, Note_on_c, 1, 64, 70
3, 142640, Note_off_c, 1, 65, 100
3, 142656, Note_on_c, 1, 65, 70
3, 142736, Note_off_c, 1, 64, 100
3, 142752, Note_on_c, 1, 64, 70
3, 142832, Note_off_c, 1, 65, 100
3, 142848, Note_on_c, 1, 65, 70
3, 142912, Note_off_c, 1, 64, 100
3, 142944, Note_on_c, 1, 62, 70
3, 143020, Note_off_c, 1, 65, 100
3, 143040, Note_on_c, 1, 65, 70
3, 143108, Note_off_c, 1, 62, 100
3, 143136, Note_on_c, 1, 63, 70
3, 143204, Note_off_c, 1, 65, 100
3, 143232, Note_on_c, 1, 61, 70
3, 143324, Note_off_c, 1, 63, 100
3, 143328, Note_on_c, 1, 62, 70
3, 143420, Note_off_c, 1, 61, 100
3, 143424, Note_on_c, 1, 61, 70
3, 143488, Note_off_c, 1, 62, 100
3, 143520, Note_on_c, 1, 62, 70
3, 143596, Note_off_c, 1, 61, 100
3, 143616, Note_on_c, 1, 59, 70
3, 143680, Note_off_c, 1, 62, 100
3, 143712, Note_on_c, 1, 60, 70
3, 143780, Note_off_c, 1, 59, 100
3, 143808, Note_on_c, 1, 59, 70
3, 143876, Note_off_c, 1, 60, 100
3, 143904, Note_on_c, 1, 60, 70
3, 143976, Note_off_c, 1, 59, 100
3, 144000, Note_on_c, 1, 56, 70
3, 144064, Note_off_c, 1, 60, 100
3, 144096, Note_on_c, 1, 57, 70
3, 144152, Note_off_c, 1, 56, 100
3, 144192, Note_on_c, 1, 56, 70
3, 144280, Note_off_c, 1, 57, 100
3, 144288, Note_on_c, 1, 57, 70
3, 144360, Note_off_c, 1, 56, 100
3, 144384, Note_on_c, 1, 53, 70
3, 144452, Note_off_c, 1, 57, 100
3, 144480, Note_on_c, 1, 54, 70
3, 144556, Note_off_c, 1, 53, 100
3, 144576, Note_on_c, 1, 53, 70
3, 144640, Note_off_c, 1, 54, 100
3, 144672, Note_on_c, 1, 54, 70
3, 144736, Note_off_c, 1, 53, 100
3, 144768, Note_on_c, 1, 49, 70
3, 144856, Note_off_c, 1, 54, 100
3, 144864, Note_on_c, 1, 50, 70
3, 144924, Note_off_c, 1, 49, 100
3, 144960, Note_on_c, 1, 49, 70
3, 145028, Note_off_c, 1, 50, 100
3, 145056, Note_on_c, 1, 50, 70
3, 145124, Note_off_c, 1, 49, 100
3, 145152, Note_on_c, 1, 47, 70
3, 145228, Note_off_c, 1, 50, 100
3, 145248, Note_on_c, 1, 48, 71
3, 145324, Note_off_c, 1, 47, 100
3, 145344, Note_on_c, 1, 47, 72
3, 145424, Note_off_c, 1, 48, 100
3, 145440, Note_on_c, 1, 48, 74
3, 145508, Note_off_c, 1, 47, 100
3, 145536, Note_on_c, 1, 44, 75
3, 145628, Note_off_c, 1, 48, 100
3, 145632, Note_on_c, 1, 45, 77
3, 145708, Note_off_c, 1, 44, 100
3, 145728, Note_on_c, 1, 44, 78
3, 145800, Note_off_c, 1, 45, 100
3, 145824, Note_on_c, 1, 45, 80
3, 145904, Note_off_c, 1, 44, 100
3, 145920, Note_on_c, 1, 41, 81
3, 145976, Note_off_c, 1, 45, 100
3, 146016, Note_on_c, 1, 42, 83
3, 146076, Note_off_c, 1, 41, 100
3, 146112, Note_on_c, 1, 41, 84
3, 146176, Note_off_c, 1, 42, 100
3, 146208, Note_on_c, 1, 42, 86
3, 146264, Note_off_c, 1, 41, 100
3, 146304, Note_on_c, 1, 37, 87
3, 146376, Note_off_c, 1, 42, 100
3, 146400, Note_on_c, 1, 38, 89
3, 146472, Note_off_c, 1, 37, 100
3, 146496, Note_on_c, 1, 37, 90
3, 146584, Note_off_c, 1, 38, 100
3, 146592, Note_on_c, 1, 38, 92
3, 146672, Note_off_c, 1, 37, 100
3, 146688, Note_on_c, 1, 37, 93
3, 146776, Note_off_c, 1, 38, 100
3, 146784, Note_on_c, 1, 38, 95
3, 146860, Note_off_c, 1, 37, 100
3, 146880, Note_on_c, 1, 37, 96
3, 146964, Note_off_c, 1, 38, 100
3, 146976, Note_on_c, 1, 38, 98
3, 147056, Note_off_c, 1, 37, 100
3, 147072, Note_on_c, 1, 38, 99
3, 147152, Note_off_c, 1, 38, 100
3, 147168, Note_on_c, 1, 39, 101
3, 147240, Note_off_c, 1, 38, 100
3, 147264, Note_on_c, 1, 38, 102
3, 147340, Note_off_c, 1, 39, 100
3, 147360, Note_on_c, 1, 39, 104
3, 147428, Note_off_c, 1, 38, 100
3, 147456, Note_on_c, 1, 39, 105
3, 147532, Note_off_c, 1, 39, 100
3, 147552, Note_on_c, 1, 40, 106
3, 147624, Note_off_c, 1, 39, 100
3, 147648, Note_on_c, 1, 39, 108
3, 147716, Note_off_c, 1, 40, 100
3, 147744, Note_on_c, 1, 40, 109
3, 147832, Note_off_c, 1, 39, 100
3, 147840, Note_on_c, 1, 40, 110
3, 147912, Note_off_c, 1, 40, 100
3, 147936, Note_on_c, 1, 41, 110
3, 148000, Note_off_c, 1, 40, 100
3, 148032, Note_on_c, 1, 40, 110
3, 148112, Note_off_c, 1, 41, 100
3, 148128, Note_on_c, 1, 41, 110
3, 148200, Note_off_c, 1, 40, 100
3, 148224, Note_on_c, 1, 40, 110
3, 148300, Note_off_c, 1, 41, 100
3, 148320, Note_on_c, 1, 41, 110
3, 148396, Note_off_c, 1, 40, 100
3, 148416, Note_on_c, 1, 40, 110
3, 148492, Note_off_c, 1, 41, 100
3, 148512, Note_on_c, 1, 41, 110
3, 148572, Note_off_c, 1, 40, 100
3, 148608, Note_on_c, 1, 33, 110
3, 148700, Note_off_c, 1, 41, 100
3, 148704, Note_on_c, 1, 34, 110
3, 148768, Note_off_c, 1, 33, 100
3, 148800, Note_on_c, 1, 33, 110
3, 148860, Note_off_c, 1, 34, 100
3, 148896, Note_on_c, 1, 34, 110
3, 148976, Note_off_c, 1, 33, 100
3, 148992, Note_on_c, 1, 35, 110
3, 149052, Note_off_c, 1, 34, 100
3, 149088, Note_on_c, 1, 36, 110
3, 149152, Note_off_c, 1, 35, 100
3, 149184, Note_on_c, 1, 35, 110
3, 149260, Note_off_c, 1, 36, 100
3, 149280, Note_on_c, 1, 36, 110
3, 149332, Note_off_c, 1, 35, 100
3, 149372, Note_off_c, 1, 36, 100
3, 149376, Note_on_c, 1, 29, 110
3, 149756, Note_off_c, 1, 29, 100
3, 150144, Note_on_c, 1, 57, 110
3, 150144, Note_on_c, 1, 53, 110
3, 150908, Note_off_c, 1, 57, 100
3, 150908, Note_off_c, 1, 53, 100
3, 150912, Note_on_c, 1, 53, 110
3, 150912, Note_on_c, 1, 50, 110
3, 151292, Note_off_c, 1, 53, 100
3, 151292, Note_off_c, 1, 50, 100
3, 151296, Note_on_c, 1, 50, 110
3, 151296, Note_on_c, 1, 46, 110
3, 151676, Note_off_c, 1, 50, 100
3, 151676, Note_off_c, 1, 46, 100
3, 151680, Note_on_c, 1, 58, 110
3, 151680, Note_on_c, 1, 55, 110
3, 152252, Note_off_c, 1, 58, 100
3, 152252, Note_off_c, 1, 55, 100
3, 152256, Note_on_c, 1, 57, 110
3, 152256, Note_on_c, 1, 53, 110
3, 152444, Note_off_c, 1, 57, 100
3, 152444, Note_off_c, 1, 53, 100
3, 152448, Note_on_c, 1, 55, 110
3, 152448, Note_on_c, 1, 52, 110
3, 152828, Note_off_c, 1, 55, 100
3, 152828, Note_off_c, 1, 52, 100
3, 152832, Note_on_c, 1, 52, 110
3, 152832, Note_on_c, 1, 48, 110
3, 153212, Note_off_c, 1, 52, 100
3, 153212, Note_off_c, 1, 48, 100
3, 153216, Note_on_c, 1, 60, 110
3, 153216, Note_on_c, 1, 57, 110
3, 153980, Note_off_c, 1, 60, 100
3, 153980, Note_off_c, 1, 57, 100
3, 153984, Note_on_c, 1, 57, 110
3, 153984, Note_on_c, 1, 53, 110
3, 154364, Note_off_c, 1, 57, 100
3, 154364, Note_off_c, 1, 53, 100
3, 154368, Note_on_c, 1, 53, 110
3, 154368, Note_on_c, 1, 50, 110
3, 154748, Note_off_c, 1, 53, 100
3, 154748, Note_off_c, 1, 50, 100
3, 154752, Note_on_c, 1, 62, 110
3, 154752, Note_on_c, 1, 58, 110
3, 155324, Note_off_c, 1, 62, 100
3, 155324, Note_off_c, 1, 58, 100
3, 155328, Note_on_c, 1, 60, 110
3, 155328, Note_on_c, 1, 57, 110
3, 155516, Note_off_c, 1, 60, 100
3, 155516, Note_off_c, 1, 57, 100
3, 155520, Note_on_c, 1, 55, 110
3, 155520, Note_on_c, 1, 58, 110
3, 155900, Note_off_c, 1, 55, 100
3, 155900, Note_off_c, 1, 58, 100
3, 155904, Note_on_c, 1, 55, 110
3, 155904, Note_on_c, 1, 52, 110
3, 156284, Note_off_c, 1, 55, 100
3, 156284, Note_off_c, 1, 52, 100
3, 156288, Note_on_c, 1, 67, 110
3, 156288, Note_on_c, 1, 58, 110
3, 156860, Note_off_c, 1, 67, 100
3, 156860, Note_off_c, 1, 58, 100
3, 156864, Note_on_c, 1, 65, 110
3, 156864, Note_on_c, 1, 57, 110
3, 157052, Note_off_c, 1, 65, 100
3, 157052, Note_off_c, 1, 57, 100
3, 157056, Note_on_c, 1, 64, 110
3, 157056, Note_on_c, 1, 55, 110
3, 157628, Note_off_c, 1, 64, 100
3, 157628, Note_off_c, 1, 55, 100
3, 157632, Note_on_c, 1, 62, 110
3, 157632, Note_on_c, 1, 53, 110
3, 157820, Note_off_c, 1, 62, 100
3, 157820, Note_off_c, 1, 53, 100
3, 157824, Note_on_c, 1, 60, 110
3, 157824, Note_on_c, 1, 52, 110
3, 158204, Note_off_c, 1, 60, 100
3, 158204, Note_off_c, 1, 52, 100
3, 158208, Note_on_c, 1, 53, 105
3, 158208, Note_on_c, 1, 50, 105
3, 158588, Note_off_c, 1, 53, 100
3, 158588, Note_off_c, 1, 50, 100
3, 158592, Note_on_c, 1, 52, 99
3, 158592, Note_on_c, 1, 49, 99
3, 158972, Note_off_c, 1, 52, 100
3, 158972, Note_off_c, 1, 49, 100
3, 158976, Note_on_c, 1, 52, 93
3, 158976, Note_on_c, 1, 45, 93
3, 159356, Note_off_c, 1, 52, 100
3, 159356, Note_off_c, 1, 45, 100
3, 159360, Note_on_c, 1, 50, 87
3, 159360, Note_on_c, 1, 46, 87
3, 159740, Note_off_c, 1, 50, 100
3, 159740, Note_off_c, 1, 46, 100
3, 159744, Note_on_c, 1, 47, 81
3, 160124, Note_off_c, 1, 47, 100
3, 160128, Note_on_c, 1, 48, 70
3, 160892, Note_off_c, 1, 48, 100
3, 160896, Note_on_c, 1, 36, 70
3, 161660, Note_off_c, 1, 36, 100
3, 161664, Note_on_c, 1, 29, 80
3, 162428, Note_off_c, 1, 29, 100
3, 162432, Note_on_c, 1, 57, 110
3, 162432, Note_on_c, 1, 53, 110
3, 163004, Note_off_c, 1, 57, 100
3, 163004, Note_off_c, 1, 53, 100
3, 163008, Note_on_c, 1, 57, 110
3, 163008, Note_on_c, 1, 53, 110
3, 163196, Note_off_c, 1, 57, 100
3, 163196, Note_off_c, 1, 53, 100
3, 163200, Note_on_c, 1, 53, 110
3, 163200, Note_on_c, 1, 50, 110
3, 163388, Note_off_c, 1, 53, 100
3, 163388, Note_off_c, 1, 50, 100
3, 163584, Note_on_c, 1, 50, 110
3, 163584, Note_on_c, 1, 46, 110
3, 163772, Note_off_c, 1, 50, 100
3, 163772, Note_off_c, 1, 46, 100
3, 163968, Note_on_c, 1, 55, 110
3, 163968, Note_on_c, 1, 58, 110
3, 164540, Note_off_c, 1, 55, 100
3, 164540, Note_off_c, 1, 58, 100
3, 164544, Note_on_c, 1, 57, 110
3, 164544, Note_on_c, 1, 53, 110
3, 164732, Note_off_c, 1, 57, 100
3, 164732, Note_off_c, 1, 53, 100
3, 164736, Note_on_c, 1, 55, 110
3, 164736, Note_on_c, 1, 52, 110
3, 164924, Note_off_c, 1, 55, 100
3, 164924, Note_off_c, 1, 52, 100
3, 165120, Note_on_c, 1, 52, 110
3, 165120, Note_on_c, 1, 48, 110
3, 165308, Note_off_c, 1, 52, 100
3, 165308, Note_off_c, 1, 48, 100
3, 165504, Note_on_c, 1, 57, 110
3, 165504, Note_on_c, 1, 60, 110
3, 166076, Note_off_c, 1, 57, 100
3, 166076, Note_off_c, 1, 60, 100
3, 166080, Note_on_c, 1, 60, 110
3, 166080, Note_on_c, 1, 57, 110
3, 166268, Note_off_c, 1, 60, 100
3, 166268, Note_off_c, 1, 57, 100
3, 166272, Note_on_c, 1, 57, 110
3, 166272, Note_on_c, 1, 53, 110
3, 166460, Note_off_c, 1, 57, 100
3, 166460, Note_off_c, 1, 53, 100
3, 166656, Note_on_c, 1, 53, 110
3, 166656, Note_on_c, 1, 50, 110
3, 166844, Note_off_c, 1, 53, 100
3, 166844, Note_off_c, 1, 50, 100
3, 167040, Note_on_c, 1, 58, 110
3, 167040, Note_on_c, 1, 62, 110
3, 167612, Note_off_c, 1, 58, 100
3, 167612, Note_off_c, 1, 62, 100
3, 167616, Note_on_c, 1, 60, 110
3, 167616, Note_on_c, 1, 57, 110
3, 167804, Note_off_c, 1, 60, 100
3, 167804, Note_off_c, 1, 57, 100
3, 167808, Note_on_c, 1, 55, 110
3, 167808, Note_on_c, 1, 58, 110
3, 167996, Note_off_c, 1, 55, 100
3, 167996, Note_off_c, 1, 58, 100
3, 168192, Note_on_c, 1, 55, 110
3, 168192, Note_on_c, 1, 52, 110
3, 168380, Note_off_c, 1, 55, 100
3, 168380, Note_off_c, 1, 52, 100
3, 168576, Note_on_c, 1, 58, 110
3, 168576, Note_on_c, 1, 67, 110
3, 169148, Note_off_c, 1, 58, 100
3, 169148, Note_off_c, 1, 67, 100
3, 169152, Note_on_c, 1, 65, 110
3, 169152, Note_on_c, 1, 57, 110
3, 169340, Note_off_c, 1, 65, 100
3, 169340, Note_off_c, 1, 57, 100
3, 169344, Note_on_c, 1, 55, 110
3, 169344, Note_on_c, 1, 64, 110
3, 169916, Note_off_c, 1, 55, 100
3, 169916, Note_off_c, 1, 64, 100
3, 169920, Note_on_c, 1, 53, 110
3, 169920, Note_on_c, 1, 62, 110
3, 170108, Note_off_c, 1, 53, 100
3, 170108, Note_off_c, 1, 62, 100
3, 170112, Note_on_c, 1, 52, 110
3, 170112, Note_on_c, 1, 60, 110
3, 170300, Note_off_c, 1, 52, 100
3, 170300, Note_off_c, 1, 60, 100
3, 170496, Note_on_c, 1, 50, 110
3, 170496, Note_on_c, 1, 53, 110
3, 170684, Note_off_c, 1, 50, 100
3, 170684, Note_off_c, 1, 53, 100
3, 170880, Note_on_c, 1, 55, 80
3, 170880, Note_on_c, 1, 52, 80
3, 170880, Note_on_c, 1, 49, 80
3, 172412, Note_off_c, 1, 55, 100
3, 172412, Note_off_c, 1, 52, 100
3, 172412, Note_off_c, 1, 49, 100
3, 172416, Note_on_c, 1, 53, 86
3, 172416, Note_on_c, 1, 50, 86
3, 173948, Note_off_c, 1, 53, 100
3, 173948, Note_off_c, 1, 50, 100
3, 173952, Note_on_c, 1, 53, 93
3, 173952, Note_on_c, 1, 50, 93
3, 173952, Note_on_c, 1, 47, 93
3, 175484, Note_off_c, 1, 53, 100
3, 175484, Note_off_c, 1, 50, 100
3, 175484, Note_off_c, 1, 47, 100
3, 175488, Note_on_c, 1, 55, 100
3, 175488, Note_on_c, 1, 52, 100
3, 175488, Note_on_c, 1, 49, 100
3, 175488, Note_on_c, 1, 46, 100
3, 176444, Note_off_c, 1, 55, 100
3, 176444, Note_off_c, 1, 52, 100
3, 176444, Note_off_c, 1, 49, 100
3, 176444, Note_off_c, 1, 46, 100
3, 176448, Note_on_c, 1, 55, 100
3, 176448, Note_on_c, 1, 48, 100
3, 176448, Note_on_c, 1, 46, 100
3, 176636, Note_off_c, 1, 55, 100
3, 176636, Note_off_c, 1, 48, 100
3, 176636, Note_off_c, 1, 46, 100
3, 176640, Note_on_c, 1, 55, 100
3, 176640, Note_on_c, 1, 48, 100
3, 176640, Note_on_c, 1, 46, 100
3, 176828, Note_off_c, 1, 55, 100
3, 176828, Note_off_c, 1, 48, 100
3, 176828, Note_off_c, 1, 46, 100
3, 176832, Note_on_c, 1, 55, 100
3, 176832, Note_on_c, 1, 48, 100
3, 176832, Note_on_c, 1, 46, 100
3, 177020, Note_off_c, 1, 55, 100
3, 177020, Note_off_c, 1, 48, 100
3, 177020, Note_off_c, 1, 46, 100
3, 177024, Note_on_c, 1, 53, 110
3, 177024, Note_on_c, 1, 48, 110
3, 177024, Note_on_c, 1, 45, 110
3, 177404, Note_off_c, 1, 53, 100
3, 177404, Note_off_c, 1, 48, 100
3, 177404, Note_off_c, 1, 45, 100
3, 177600, Note_on_c, 1, 40, 110
3, 177600, Note_on_c, 1, 48, 110
3, 177788, Note_off_c, 1, 40, 100
3, 177788, Note_off_c, 1, 48, 100
3, 177792, Note_on_c, 1, 41, 110
3, 177792, Note_on_c, 1, 48, 110
3, 177980, Note_off_c, 1, 41, 100
3, 177980, Note_off_c, 1, 48, 100
3, 177984, Note_on_c, 1, 46, 110
3, 177984, Note_on_c, 1, 48, 110
3, 178172, Note_off_c, 1, 46, 100
3, 178172, Note_off_c, 1, 48, 100
3, 178176, Note_on_c, 1, 45, 110
3, 178176, Note_on_c, 1, 48, 110
3, 178364, Note_off_c, 1, 45, 100
3, 178364, Note_off_c, 1, 48, 100
3, 178368, Note_on_c, 1, 40, 110
3, 178368, Note_on_c, 1, 48, 110
3, 178556, Note_off_c, 1, 40, 100
3, 178556, Note_off_c, 1, 48, 100
3, 178560, Note_on_c, 1, 41, 110
3, 178560, Note_on_c, 1, 48, 110
3, 178748, Note_off_c, 1, 41, 100
3, 178748, Note_off_c, 1, 48, 100
3, 178752, Note_on_c, 1, 46, 110
3, 178752, Note_on_c, 1, 48, 110
3, 178940, Note_off_c, 1, 46, 100
3, 178940, Note_off_c, 1, 48, 100
3, 178944, Note_on_c, 1, 45, 110
3, 178944, Note_on_c, 1, 48, 110
3, 179132, Note_off_c, 1, 45, 100
3, 179132, Note_off_c, 1, 48, 100
3, 179136, Note_on_c, 1, 40, 110
3, 179136, Note_on_c, 1, 48, 110
3, 179324, Note_off_c, 1, 40, 100
3, 179324, Note_off_c, 1, 48, 100
3, 179328, Note_on_c, 1, 41, 110
3, 179328, Note_on_c, 1, 48, 110
3, 179516, Note_off_c, 1, 41, 100
3, 179516, Note_off_c, 1, 48, 100
3, 179520, Note_on_c, 1, 46, 110
3, 179520, Note_on_c, 1, 48, 110
3, 179708, Note_off_c, 1, 46, 100
3, 179708, Note_off_c, 1, 48, 100
3, 179712, Note_on_c, 1, 45, 110
3, 179712, Note_on_c, 1, 48, 110
3, 179900, Note_off_c, 1, 45, 100
3, 179900, Note_off_c, 1, 48, 100
3, 179904, Note_on_c, 1, 40, 110
3, 179904, Note_on_c, 1, 48, 110
3, 180092, Note_off_c, 1, 40, 100
3, 180092, Note_off_c, 1, 48, 100
3, 180096, Note_on_c, 1, 41, 110
3, 180860, Note_off_c, 1, 41, 100
3, 180864, Note_on_c, 1, 38, 110
3, 181628, Note_off_c, 1, 38, 100
3, 181632, Note_on_c, 1, 34, 110
3, 182396, Note_off_c, 1, 34, 100
3, 182400, Note_on_c, 1, 36, 110
3, 183164, Note_off_c, 1, 36, 100
3, 183168, Note_on_c, 1, 41, 110
3, 183168, Note_on_c, 1, 29, 110
3, 183356, Note_off_c, 1, 41, 100
3, 183356, Note_off_c, 1, 29, 100
3, 183360, Note_on_c, 1, 46, 80
3, 183548, Note_off_c, 1, 46, 100
3, 183552, Note_on_c, 1, 45, 80
3, 183740, Note_off_c, 1, 45, 100
3, 183744, Note_on_c, 1, 40, 80
3, 183932, Note_off_c, 1, 40, 100
3, 183936, Note_on_c, 1, 41, 80
3, 184124, Note_off_c, 1, 41, 100
3, 184128, Note_on_c, 1, 46, 80
3, 184316, Note_off_c, 1, 46, 100
3, 184320, Note_on_c, 1, 45, 80
3, 184508, Note_off_c, 1, 45, 100
3, 184512, Note_on_c, 1, 40, 80
3, 184700, Note_off_c, 1, 40, 100
3, 184704, Note_on_c, 1, 41, 80
3, 184892, Note_off_c, 1, 41, 100
3, 184896, Note_on_c, 1, 46, 83
3, 185084, Note_off_c, 1, 46, 100
3, 185088, Note_on_c, 1, 45, 86
3, 185276, Note_off_c, 1, 45, 100
3, 185280, Note_on_c, 1, 40, 89
3, 185468, Note_off_c, 1, 40, 100
3, 185472, Note_on_c, 1, 41, 92
3, 185660, Note_off_c, 1, 41, 100
3, 185664, Note_on_c, 1, 43, 95
3, 185852, Note_off_c, 1, 43, 100
3, 185856, Note_on_c, 1, 41, 98
3, 186044, Note_off_c, 1, 41, 100
3, 186048, Note_on_c, 1, 40, 102
3, 186236, Note_off_c, 1, 40, 100
3, 186240, Note_on_c, 1, 38, 105
3, 186428, Note_off_c, 1, 38, 100
3, 186432, Note_on_c, 1, 36, 108
3, 186620, Note_off_c, 1, 36, 100
3, 186624, Note_on_c, 1, 34, 120
3, 186812, Note_off_c, 1, 34, 100
3, 186816, Note_on_c, 1, 33, 120
3, 187004, Note_off_c, 1, 33, 100
3, 187008, Note_on_c, 1, 31, 120
3, 188544, Note_on_c, 1, 36, 120
3, 188636, Note_off_c, 1, 31, 64
3, 189308, Note_off_c, 1, 36, 100
3, 189312, Note_on_c, 1, 29, 120
3, 189408, Note_on_c, 1, 41, 80
3, 189468, Note_off_c, 1, 29, 100
3, 189504, Note_on_c, 1, 29, 80
3, 189564, Note_off_c, 1, 41, 100
3, 189600, Note_on_c, 1, 41, 80
3, 189676, Note_off_c, 1, 29, 100
3, 189696, Note_on_c, 1, 29, 80
3, 189772, Note_off_c, 1, 41, 100
3, 189792, Note_on_c, 1, 41, 80
3, 189872, Note_off_c, 1, 29, 100
3, 189888, Note_on_c, 1, 29, 80
3, 189964, Note_off_c, 1, 41, 100
3, 189984, Note_on_c, 1, 41, 80
3, 190072, Note_off_c, 1, 29, 100
3, 190080, Note_on_c, 1, 29, 80
3, 190152, Note_off_c, 1, 41, 100
3, 190176, Note_on_c, 1, 41, 80
3, 190260, Note_off_c, 1, 29, 100
3, 190272, Note_on_c, 1, 29, 80
3, 190340, Note_off_c, 1, 41, 100
3, 190368, Note_on_c, 1, 41, 80
3, 190452, Note_off_c, 1, 29, 100
3, 190464, Note_on_c, 1, 29, 80
3, 190532, Note_off_c, 1, 41, 100
3, 190560, Note_on_c, 1, 41, 80
3, 190652, Note_off_c, 1, 29, 100
3, 190656, Note_on_c, 1, 29, 80
3, 190724, Note_off_c, 1, 41, 100
3, 190752, Note_on_c, 1, 41, 80
3, 190832, Note_off_c, 1, 29, 100
3, 190848, Note_on_c, 1, 29, 120
3, 190916, Note_off_c, 1, 41, 100
3, 190944, Note_on_c, 1, 41, 80
3, 191004, Note_off_c, 1, 29, 100
3, 191040, Note_on_c, 1, 29, 80
3, 191100, Note_off_c, 1, 41, 100
3, 191136, Note_on_c, 1, 41, 80
3, 191212, Note_off_c, 1, 29, 100
3, 191232, Note_on_c, 1, 29, 80
3, 191308, Note_off_c, 1, 41, 100
3, 191328, Note_on_c, 1, 41, 80
3, 191408, Note_off_c, 1, 29, 100
3, 191424, Note_on_c, 1, 29, 80
3, 191500, Note_off_c, 1, 41, 100
3, 191520, Note_on_c, 1, 41, 80
3, 191608, Note_off_c, 1, 29, 100
3, 191616, Note_on_c, 1, 29, 80
3, 191688, Note_off_c, 1, 41, 100
3, 191712, Note_on_c, 1, 41, 80
3, 191796, Note_off_c, 1, 29, 100
3, 191808, Note_on_c, 1, 29, 80
3, 191876, Note_off_c, 1, 41, 100
3, 191904, Note_on_c, 1, 41, 80
3, 191988, Note_off_c, 1, 29, 100
3, 192000, Note_on_c, 1, 29, 80
3, 192068, Note_off_c, 1, 41, 100
3, 192096, Note_on_c, 1, 41, 80
3, 192188, Note_off_c, 1, 29, 100
3, 192192, Note_on_c, 1, 29, 80
3, 192260, Note_off_c, 1, 41, 100
3, 192288, Note_on_c, 1, 41, 80
3, 192368, Note_off_c, 1, 29, 100
3, 192384, Note_on_c, 1, 29, 120
3, 192452, Note_off_c, 1, 41, 100
3, 192480, Note_on_c, 1, 41, 80
3, 192540, Note_off_c, 1, 29, 100
3, 192576, Note_on_c, 1, 29, 80
3, 192636, Note_off_c, 1, 41, 100
3, 192672, Note_on_c, 1, 41, 80
3, 192748, Note_off_c, 1, 29, 100
3, 192768, Note_on_c, 1, 29, 80
3, 192844, Note_off_c, 1, 41, 100
3, 192864, Note_on_c, 1, 41, 80
3, 192944, Note_off_c, 1, 29, 100
3, 192960, Note_on_c, 1, 29, 80
3, 193036, Note_off_c, 1, 41, 100
3, 193056, Note_on_c, 1, 41, 80
3, 193144, Note_off_c, 1, 29, 100
3, 193152, Note_on_c, 1, 29, 80
3, 193224, Note_off_c, 1, 41, 100
3, 193248, Note_on_c, 1, 41, 80
3, 193332, Note_off_c, 1, 29, 100
3, 193344, Note_on_c, 1, 29, 80
3, 193412, Note_off_c, 1, 41, 100
3, 193440, Note_on_c, 1, 41, 80
3, 193524, Note_off_c, 1, 29, 100
3, 193536, Note_on_c, 1, 29, 80
3, 193604, Note_off_c, 1, 41, 100
3, 193632, Note_on_c, 1, 41, 80
3, 193724, Note_off_c, 1, 29, 100
3, 193728, Note_on_c, 1, 29, 80
3, 193796, Note_off_c, 1, 41, 100
3, 193824, Note_on_c, 1, 41, 80
3, 193904, Note_off_c, 1, 29, 100
3, 193920, Note_on_c, 1, 29, 120
3, 193988, Note_off_c, 1, 41, 100
3, 194016, Note_on_c, 1, 41, 80
3, 194076, Note_off_c, 1, 29, 100
3, 194112, Note_on_c, 1, 29, 80
3, 194172, Note_off_c, 1, 41, 100
3, 194208, Note_on_c, 1, 41, 80
3, 194284, Note_off_c, 1, 29, 100
3, 194304, Note_on_c, 1, 29, 80
3, 194380, Note_off_c, 1, 41, 100
3, 194400, Note_on_c, 1, 41, 80
3, 194480, Note_off_c, 1, 29, 100
3, 194496, Note_on_c, 1, 29, 80
3, 194572, Note_off_c, 1, 41, 100
3, 194592, Note_on_c, 1, 41, 80
3, 194680, Note_off_c, 1, 29, 100
3, 194688, Note_on_c, 1, 29, 80
3, 194760, Note_off_c, 1, 41, 100
3, 194784, Note_on_c, 1, 41, 80
3, 194868, Note_off_c, 1, 29, 100
3, 194880, Note_on_c, 1, 29, 80
3, 194948, Note_off_c, 1, 41, 100
3, 194976, Note_on_c, 1, 41, 80
3, 195060, Note_off_c, 1, 29, 100
3, 195072, Note_on_c, 1, 29, 80
3, 195140, Note_off_c, 1, 41, 100
3, 195168, Note_on_c, 1, 41, 80
3, 195260, Note_off_c, 1, 29, 100
3, 195264, Note_on_c, 1, 29, 80
3, 195332, Note_off_c, 1, 41, 100
3, 195360, Note_on_c, 1, 41, 80
3, 195440, Note_off_c, 1, 29, 100
3, 195456, Note_on_c, 1, 29, 120
3, 195524, Note_off_c, 1, 41, 100
3, 195552, Note_on_c, 1, 41, 80
3, 195612, Note_off_c, 1, 29, 100
3, 195648, Note_on_c, 1, 29, 80
3, 195708, Note_off_c, 1, 41, 100
3, 195744, Note_on_c, 1, 41, 80
3, 195820, Note_off_c, 1, 29, 100
3, 195840, Note_on_c, 1, 29, 80
3, 195916, Note_off_c, 1, 41, 100
3, 195936, Note_on_c, 1, 41, 80
3, 196016, Note_off_c, 1, 29, 100
3, 196032, Note_on_c, 1, 29, 80
3, 196108, Note_off_c, 1, 41, 100
3, 196128, Note_on_c, 1, 41, 80
3, 196216, Note_off_c, 1, 29, 100
3, 196224, Note_on_c, 1, 29, 80
3, 196296, Note_off_c, 1, 41, 100
3, 196320, Note_on_c, 1, 41, 80
3, 196404, Note_off_c, 1, 29, 100
3, 196416, Note_on_c, 1, 29, 80
3, 196484, Note_off_c, 1, 41, 100
3, 196512, Note_on_c, 1, 41, 80
3, 196596, Note_off_c, 1, 29, 100
3, 196608, Note_on_c, 1, 29, 80
3, 196676, Note_off_c, 1, 41, 100
3, 196704, Note_on_c, 1, 41, 80
3, 196796, Note_off_c, 1, 29, 100
3, 196800, Note_on_c, 1, 29, 80
3, 196868, Note_off_c, 1, 41, 100
3, 196896, Note_on_c, 1, 41, 80
3, 196976, Note_off_c, 1, 29, 100
3, 196992, Note_on_c, 1, 29, 120
3, 197060, Note_off_c, 1, 41, 100
3, 197088, Note_on_c, 1, 41, 80
3, 197148, Note_off_c, 1, 29, 100
3, 197184, Note_on_c, 1, 29, 80
3, 197244, Note_off_c, 1, 41, 100
3, 197280, Note_on_c, 1, 41, 80
3, 197356, Note_off_c, 1, 29, 100
3, 197376, Note_on_c, 1, 29, 80
3, 197452, Note_off_c, 1, 41, 100
3, 197472, Note_on_c, 1, 41, 80
3, 197552, Note_off_c, 1, 29, 100
3, 197568, Note_on_c, 1, 29, 80
3, 197644, Note_off_c, 1, 41, 100
3, 197664, Note_on_c, 1, 41, 80
3, 197752, Note_off_c, 1, 29, 100
3, 197760, Note_on_c, 1, 29, 70
3, 197832, Note_off_c, 1, 41, 100
3, 197856, Note_on_c, 1, 41, 70
3, 197940, Note_off_c, 1, 29, 100
3, 197952, Note_on_c, 1, 29, 70
3, 198020, Note_off_c, 1, 41, 100
3, 198048, Note_on_c, 1, 41, 70
3, 198132, Note_off_c, 1, 29, 100
3, 198144, Note_on_c, 1, 29, 70
3, 198212, Note_off_c, 1, 41, 100
3, 198240, Note_on_c, 1, 41, 70
3, 198332, Note_off_c, 1, 29, 100
3, 198336, Note_on_c, 1, 29, 70
3, 198404, Note_off_c, 1, 41, 100
3, 198432, Note_on_c, 1, 41, 70
3, 198512, Note_off_c, 1, 29, 100
3, 198524, Note_off_c, 1, 41, 100
3, 198528, Note_on_c, 1, 29, 120
3, 198528, Note_on_c, 1, 41, 120
3, 199100, Note_off_c, 1, 29, 100
3, 199100, Note_off_c, 1, 41, 100
3, 199104, Note_on_c, 1, 31, 120
3, 199104, Note_on_c, 1, 43, 120
3, 199292, Note_off_c, 1, 31, 100
3, 199292, Note_off_c, 1, 43, 100
3, 199296, Note_on_c, 1, 33, 120
3, 199296, Note_on_c, 1, 45, 120
3, 199868, Note_off_c, 1, 33, 100
3, 199868, Note_off_c, 1, 45, 100
3, 199872, Note_on_c, 1, 34, 120
3, 199872, Note_on_c, 1, 46, 120
3, 200060, Note_off_c, 1, 34, 100
3, 200060, Note_off_c, 1, 46, 100
3, 200064, Note_on_c, 1, 36, 120
3, 200064, Note_on_c, 1, 48, 120
3, 200636, Note_off_c, 1, 36, 100
3, 200636, Note_off_c, 1, 48, 100
3, 200640, Note_on_c, 1, 38, 120
3, 200640, Note_on_c, 1, 50, 120
3, 200828, Note_off_c, 1, 38, 100
3, 200828, Note_off_c, 1, 50, 100
3, 200832, Note_on_c, 1, 40, 120
3, 200832, Note_on_c, 1, 52, 120
3, 201020, Note_off_c, 1, 40, 100
3, 201020, Note_off_c, 1, 52, 100
3, 201024, Note_on_c, 1, 41, 120
3, 201024, Note_on_c, 1, 53, 120
3, 201212, Note_off_c, 1, 41, 100
3, 201212, Note_off_c, 1, 53, 100
3, 201216, Note_on_c, 1, 43, 120
3, 201216, Note_on_c, 1, 55, 120
3, 201404, Note_off_c, 1, 43, 100
3, 201404, Note_off_c, 1, 55, 100
3, 201408, Note_on_c, 1, 45, 120
3, 201408, Note_on_c, 1, 57, 120
3, 201596, Note_off_c, 1, 45, 100
3, 201596, Note_off_c, 1, 57, 100
3, 201600, Note_on_c, 1, 46, 120
3, 201600, Note_on_c, 1, 58, 120
3, 202172, Note_off_c, 1, 46, 100
3, 202172, Note_off_c, 1, 58, 100
3, 202176, Note_on_c, 1, 45, 120
3, 202176, Note_on_c, 1, 57, 120
3, 202364, Note_off_c, 1, 45, 100
3, 202364, Note_off_c, 1, 57, 100
3, 202368, Note_on_c, 1, 43, 120
3, 202368, Note_on_c, 1, 55, 120
3, 202940, Note_off_c, 1, 43, 100
3, 202940, Note_off_c, 1, 55, 100
3, 202944, Note_on_c, 1, 41, 120
3, 202944, Note_on_c, 1, 53, 120
3, 203132, Note_off_c, 1, 41, 100
3, 203132, Note_off_c, 1, 53, 100
3, 203136, Note_on_c, 1, 40, 120
3, 203136, Note_on_c, 1, 52, 120
3, 203708, Note_off_c, 1, 40, 100
3, 203708, Note_off_c, 1, 52, 100
3, 203712, Note_on_c, 1, 38, 120
3, 203712, Note_on_c, 1, 50, 120
3, 203900, Note_off_c, 1, 38, 100
3, 203900, Note_off_c, 1, 50, 100
3, 203904, Note_on_c, 1, 36, 120
3, 203904, Note_on_c, 1, 48, 120
3, 204092, Note_off_c, 1, 36, 100
3, 204092, Note_off_c, 1, 48, 100
3, 204096, Note_on_c, 1, 34, 120
3, 204096, Note_on_c, 1, 46, 120
3, 204284, Note_off_c, 1, 34, 100
3, 204284, Note_off_c, 1, 46, 100
3, 204288, Note_on_c, 1, 33, 120
3, 204288, Note_on_c, 1, 45, 120
3, 204476, Note_off_c, 1, 33, 100
3, 204476, Note_off_c, 1, 45, 100
3, 204480, Note_on_c, 1, 31, 120
3, 204480, Note_on_c, 1, 43, 120
3, 204668, Note_off_c, 1, 31, 100
3, 204668, Note_off_c, 1, 43, 100
3, 204672, Note_on_c, 1, 29, 120
3, 204672, Note_on_c, 1, 41, 120
3, 205052, Note_off_c, 1, 29, 100
3, 205052, Note_off_c, 1, 41, 100
3, 205056, Note_on_c, 1, 58, 80
3, 205056, Note_on_c, 1, 55, 80
3, 205056, Note_on_c, 1, 48, 80
3, 205436, Note_off_c, 1, 58, 100
3, 205436, Note_off_c, 1, 55, 100
3, 205436, Note_off_c, 1, 48, 100
3, 205440, Note_on_c, 1, 57, 80
3, 205440, Note_on_c, 1, 53, 80
3, 205820, Note_off_c, 1, 57, 100
3, 205820, Note_off_c, 1, 53, 100
3, 205824, Note_on_c, 1, 70, 80
3, 205824, Note_on_c, 1, 67, 80
3, 205824, Note_on_c, 1, 60, 80
3, 206204, Note_off_c, 1, 70, 100
3, 206204, Note_off_c, 1, 67, 100
3, 206204, Note_off_c, 1, 60, 100
3, 206208, Note_on_c, 1, 65, 80
3, 206208, Note_on_c, 1, 69, 80
3, 206588, Note_off_c, 1, 65, 100
3, 206588, Note_off_c, 1, 69, 100
3, 206976, Note_on_c, 1, 60, 120
3, 206976, Note_on_c, 1, 48, 120
3, 207356, Note_off_c, 1, 60, 100
3, 207356, Note_off_c, 1, 48, 100
3, 207744, Note_on_c, 1, 53, 120
3, 207744, Note_on_c, 1, 41, 120
3, 208124, Note_off_c, 1, 53, 100
3, 208124, Note_off_c, 1, 41, 100
3, 209664, Note_on_c, 1, 48, 80
3, 209756, Note_off_c, 1, 48, 100
3, 209760, Note_on_c, 1, 47, 80
3, 209852, Note_off_c, 1, 47, 100
3, 209856, Note_on_c, 1, 48, 80
3, 209948, Note_off_c, 1, 48, 100
3, 209952, Note_on_c, 1, 45, 80
3, 210044, Note_off_c, 1, 45, 100
3, 210048, Note_on_c, 1, 53, 80
3, 210428, Note_off_c, 1, 53, 100
3, 211200, Note_on_c, 1, 48, 80
3, 211292, Note_off_c, 1, 48, 100
3, 211296, Note_on_c, 1, 47, 80
3, 211388, Note_off_c, 1, 47, 100
3, 211392, Note_on_c, 1, 48, 80
3, 211484, Note_off_c, 1, 48, 100
3, 211488, Note_on_c, 1, 45, 80
3, 211580, Note_off_c, 1, 45, 100
3, 211584, Note_on_c, 1, 53, 80
3, 211964, Note_off_c, 1, 53, 100
3, 211968, Note_on_c, 1, 48, 90
3, 212060, Note_off_c, 1, 48, 100
3, 212064, Note_on_c, 1, 47, 96
3, 212156, Note_off_c, 1, 47, 100
3, 212160, Note_on_c, 1, 48, 103
3, 212252, Note_off_c, 1, 48, 100
3, 212256, Note_on_c, 1, 45, 109
3, 212348, Note_off_c, 1, 45, 100
3, 212352, Note_on_c, 1, 41, 110
3, 212352, Note_on_c, 1, 53, 110
3, 212924, Note_off_c, 1, 41, 100
3, 212924, Note_off_c, 1, 53, 100
3, 212928, Note_on_c, 1, 43, 110
3, 212928, Note_on_c, 1, 55, 110
3, 213116, Note_off_c, 1, 43, 100
3, 213116, Note_off_c, 1, 55, 100
3, 213120, Note_on_c, 1, 45, 110
3, 213120, Note_on_c, 1, 57, 110
3, 213692, Note_off_c, 1, 45, 100
3, 213692, Note_off_c, 1, 57, 100
3, 213696, Note_on_c, 1, 46, 110
3, 213696, Note_on_c, 1, 58, 110
3, 213884, Note_off_c, 1, 46, 100
3, 213884, Note_off_c, 1, 58, 100
3, 213888, Note_on_c, 1, 48, 110
3, 213888, Note_on_c, 1, 60, 110
3, 214460, Note_off_c, 1, 48, 100
3, 214460, Note_off_c, 1, 60, 100
3, 214464, Note_on_c, 1, 50, 110
3, 214464, Note_on_c, 1, 62, 110
3, 214652, Note_off_c, 1, 50, 100
3, 214652, Note_off_c, 1, 62, 100
3, 214656, Note_on_c, 1, 51, 110
3, 214656, Note_on_c, 1, 63, 110
3, 214844, Note_off_c, 1, 51, 100
3, 214844, Note_off_c, 1, 63, 100
3, 214848, Note_on_c, 1, 50, 110
3, 214848, Note_on_c, 1, 62, 110
3, 215036, Note_off_c, 1, 50, 100
3, 215036, Note_off_c, 1, 62, 100
3, 215040, Note_on_c, 1, 48, 110
3, 215040, Note_on_c, 1, 60, 110
3, 215228, Note_off_c, 1, 48, 100
3, 215228, Note_off_c, 1, 60, 100
3, 215232, Note_on_c, 1, 50, 110
3, 215232, Note_on_c, 1, 62, 110
3, 215420, Note_off_c, 1, 50, 100
3, 215420, Note_off_c, 1, 62, 100
3, 215424, Note_on_c, 1, 51, 110
3, 215424, Note_on_c, 1, 63, 110
3, 215996, Note_off_c, 1, 51, 100
3, 215996, Note_off_c, 1, 63, 100
3, 216000, Note_on_c, 1, 50, 110
3, 216000, Note_on_c, 1, 62, 110
3, 216188, Note_off_c, 1, 50, 100
3, 216188, Note_off_c, 1, 62, 100
3, 216192, Note_on_c, 1, 48, 110
3, 216192, Note_on_c, 1, 60, 110
3, 216380, Note_off_c, 1, 48, 100
3, 216380, Note_off_c, 1, 60, 100
3, 216384, Note_on_c, 1, 46, 110
3, 216384, Note_on_c, 1, 58, 110
3, 216572, Note_off_c, 1, 46, 100
3, 216572, Note_off_c, 1, 58, 100
3, 216576, Note_on_c, 1, 45, 110
3, 216576, Note_on_c, 1, 57, 110
3, 216764, Note_off_c, 1, 45, 100
3, 216764, Note_off_c, 1, 57, 100
3, 216768, Note_on_c, 1, 46, 110
3, 216768, Note_on_c, 1, 58, 110
3, 216956, Note_off_c, 1, 46, 100
3, 216956, Note_off_c, 1, 58, 100
3, 216960, Note_on_c, 1, 48, 110
3, 216960, Note_on_c, 1, 60, 110
3, 217532, Note_off_c, 1, 48, 100
3, 217532, Note_off_c, 1, 60, 100
3, 217536, Note_on_c, 1, 46, 110
3, 217536, Note_on_c, 1, 58, 110
3, 217724, Note_off_c, 1, 46, 100
3, 217724, Note_off_c, 1, 58, 100
3, 217728, Note_on_c, 1, 45, 110
3, 217728, Note_on_c, 1, 57, 110
3, 217916, Note_off_c, 1, 45, 100
3, 217916, Note_off_c, 1, 57, 100
3, 217920, Note_on_c, 1, 43, 110
3, 217920, Note_on_c, 1, 55, 110
3, 218108, Note_off_c, 1, 43, 100
3, 218108, Note_off_c, 1, 55, 100
3, 218112, Note_on_c, 1, 42, 110
3, 218112, Note_on_c, 1, 54, 110
3, 218300, Note_off_c, 1, 42, 100
3, 218300, Note_off_c, 1, 54, 100
3, 218304, Note_on_c, 1, 40, 110
3, 218304, Note_on_c, 1, 52, 110
3, 218492, Note_off_c, 1, 40, 100
3, 218492, Note_off_c, 1, 52, 100
3, 218496, Note_on_c, 1, 38, 110
3, 218592, Note_on_c, 1, 50, 80
3, 218668, Note_off_c, 1, 38, 100
3, 218688, Note_on_c, 1, 38, 80
3, 218772, Note_off_c, 1, 50, 100
3, 218784, Note_on_c, 1, 50, 80
3, 218864, Note_off_c, 1, 38, 100
3, 218880, Note_on_c, 1, 38, 80
3, 218960, Note_off_c, 1, 50, 100
3, 218976, Note_on_c, 1, 50, 80
3, 219068, Note_off_c, 1, 38, 100
3, 219072, Note_on_c, 1, 38, 80
3, 219152, Note_off_c, 1, 50, 100
3, 219168, Note_on_c, 1, 50, 80
3, 219244, Note_off_c, 1, 38, 100
3, 219264, Note_on_c, 1, 38, 80
3, 219340, Note_off_c, 1, 50, 100
3, 219360, Note_on_c, 1, 50, 80
3, 219432, Note_off_c, 1, 38, 100
3, 219456, Note_on_c, 1, 38, 80
3, 219548, Note_off_c, 1, 50, 100
3, 219552, Note_on_c, 1, 50, 80
3, 219628, Note_off_c, 1, 38, 100
3, 219648, Note_on_c, 1, 38, 80
3, 219716, Note_off_c, 1, 50, 100
3, 219744, Note_on_c, 1, 50, 80
3, 219824, Note_off_c, 1, 38, 100
3, 219840, Note_on_c, 1, 38, 80
3, 219928, Note_off_c, 1, 50, 100
3, 219936, Note_on_c, 1, 50, 80
3, 220008, Note_off_c, 1, 38, 100
3, 220032, Note_on_c, 1, 38, 110
3, 220108, Note_off_c, 1, 50, 100
3, 220128, Note_on_c, 1, 50, 80
3, 220204, Note_off_c, 1, 38, 100
3, 220224, Note_on_c, 1, 38, 80
3, 220308, Note_off_c, 1, 50, 100
3, 220320, Note_on_c, 1, 50, 80
3, 220400, Note_off_c, 1, 38, 100
3, 220416, Note_on_c, 1, 38, 80
3, 220496, Note_off_c, 1, 50, 100
3, 220512, Note_on_c, 1, 50, 80
3, 220604, Note_off_c, 1, 38, 100
3, 220608, Note_on_c, 1, 38, 80
3, 220688, Note_off_c, 1, 50, 100
3, 220704, Note_on_c, 1, 50, 80
3, 220780, Note_off_c, 1, 38, 100
3, 220800, Note_on_c, 1, 38, 80
3, 220876, Note_off_c, 1, 50, 100
3, 220896, Note_on_c, 1, 50, 80
3, 220968, Note_off_c, 1, 38, 100
3, 220992, Note_on_c, 1, 38, 80
3, 221084, Note_off_c, 1, 50, 100
3, 221088, Note_on_c, 1, 50, 80
3, 221164, Note_off_c, 1, 38, 100
3, 221184, Note_on_c, 1, 38, 80
3, 221252, Note_off_c, 1, 50, 100
3, 221280, Note_on_c, 1, 50, 80
3, 221360, Note_off_c, 1, 38, 100
3, 221376, Note_on_c, 1, 38, 80
3, 221464, Note_off_c, 1, 50, 100
3, 221472, Note_on_c, 1, 50, 80
3, 221544, Note_off_c, 1, 38, 100
3, 221568, Note_on_c, 1, 38, 110
3, 221644, Note_off_c, 1, 50, 100
3, 221664, Note_on_c, 1, 50, 80
3, 221740, Note_off_c, 1, 38, 100
3, 221760, Note_on_c, 1, 38, 80
3, 221844, Note_off_c, 1, 50, 100
3, 221856, Note_on_c, 1, 50, 80
3, 221936, Note_off_c, 1, 38, 100
3, 221952, Note_on_c, 1, 38, 80
3, 222032, Note_off_c, 1, 50, 100
3, 222048, Note_on_c, 1, 50, 80
3, 222140, Note_off_c, 1, 38, 100
3, 222144, Note_on_c, 1, 38, 80
3, 222224, Note_off_c, 1, 50, 100
3, 222240, Note_on_c, 1, 50, 80
3, 222316, Note_off_c, 1, 38, 100
3, 222336, Note_on_c, 1, 38, 80
3, 222412, Note_off_c, 1, 50, 100
3, 222432, Note_on_c, 1, 50, 80
3, 222504, Note_off_c, 1, 38, 100
3, 222528, Note_on_c, 1, 38, 80
3, 222620, Note_off_c, 1, 50, 100
3, 222624, Note_on_c, 1, 50, 80
3, 222700, Note_off_c, 1, 38, 100
3, 222720, Note_on_c, 1, 38, 80
3, 222788, Note_off_c, 1, 50, 100
3, 222816, Note_on_c, 1, 50, 80
3, 222896, Note_off_c, 1, 38, 100
3, 222912, Note_on_c, 1, 38, 80
3, 223000, Note_off_c, 1, 50, 100
3, 223008, Note_on_c, 1, 50, 80
3, 223080, Note_off_c, 1, 38, 100
3, 223104, Note_on_c, 1, 38, 110
3, 223180, Note_off_c, 1, 50, 100
3, 223200, Note_on_c, 1, 50, 80
3, 223276, Note_off_c, 1, 38, 100
3, 223296, Note_on_c, 1, 38, 80
3, 223380, Note_off_c, 1, 50, 100
3, 223392, Note_on_c, 1, 50, 80
3, 223472, Note_off_c, 1, 38, 100
3, 223488, Note_on_c, 1, 38, 80
3, 223568, Note_off_c, 1, 50, 100
3, 223584, Note_on_c, 1, 50, 80
3, 223676, Note_off_c, 1, 38, 100
3, 223680, Note_on_c, 1, 38, 80
3, 223760, Note_off_c, 1, 50, 100
3, 223776, Note_on_c, 1, 50, 80
3, 223852, Note_off_c, 1, 38, 100
3, 223872, Note_on_c, 1, 38, 80
3, 223948, Note_off_c, 1, 50, 100
3, 223968, Note_on_c, 1, 50, 80
3, 224040, Note_off_c, 1, 38, 100
3, 224064, Note_on_c, 1, 38, 80
3, 224156, Note_off_c, 1, 50, 100
3, 224160, Note_on_c, 1, 50, 80
3, 224236, Note_off_c, 1, 38, 100
3, 224256, Note_on_c, 1, 38, 80
3, 224324, Note_off_c, 1, 50, 100
3, 224352, Note_on_c, 1, 50, 80
3, 224432, Note_off_c, 1, 38, 100
3, 224448, Note_on_c, 1, 38, 80
3, 224536, Note_off_c, 1, 50, 100
3, 224544, Note_on_c, 1, 50, 80
3, 224616, Note_off_c, 1, 38, 100
3, 224640, Note_on_c, 1, 38, 110
3, 224716, Note_off_c, 1, 50, 100
3, 224736, Note_on_c, 1, 50, 80
3, 224812, Note_off_c, 1, 38, 100
3, 224832, Note_on_c, 1, 38, 80
3, 224916, Note_off_c, 1, 50, 100
3, 224928, Note_on_c, 1, 50, 80
3, 225008, Note_off_c, 1, 38, 100
3, 225024, Note_on_c, 1, 38, 80
3, 225104, Note_off_c, 1, 50, 100
3, 225120, Note_on_c, 1, 50, 80
3, 225212, Note_off_c, 1, 38, 100
3, 225216, Note_on_c, 1, 38, 80
3, 225296, Note_off_c, 1, 50, 100
3, 225312, Note_on_c, 1, 50, 80
3, 225388, Note_off_c, 1, 38, 100
3, 225408, Note_on_c, 1, 38, 80
3, 225484, Note_off_c, 1, 50, 100
3, 225504, Note_on_c, 1, 50, 80
3, 225576, Note_off_c, 1, 38, 100
3, 225600, Note_on_c, 1, 38, 80
3, 225692, Note_off_c, 1, 50, 100
3, 225696, Note_on_c, 1, 50, 80
3, 225772, Note_off_c, 1, 38, 100
3, 225792, Note_on_c, 1, 38, 80
3, 225860, Note_off_c, 1, 50, 100
3, 225888, Note_on_c, 1, 50, 80
3, 225968, Note_off_c, 1, 38, 100
3, 225984, Note_on_c, 1, 38, 80
3, 226072, Note_off_c, 1, 50, 100
3, 226080, Note_on_c, 1, 50, 80
3, 226152, Note_off_c, 1, 38, 100
3, 226176, Note_on_c, 1, 38, 80
3, 226252, Note_off_c, 1, 50, 100
3, 226272, Note_on_c, 1, 50, 79
3, 226348, Note_off_c, 1, 38, 100
3, 226368, Note_on_c, 1, 38, 79
3, 226452, Note_off_c, 1, 50, 100
3, 226464, Note_on_c, 1, 50, 78
3, 226544, Note_off_c, 1, 38, 100
3, 226560, Note_on_c, 1, 38, 77
3, 226640, Note_off_c, 1, 50, 100
3, 226656, Note_on_c, 1, 50, 77
3, 226748, Note_off_c, 1, 38, 100
3, 226752, Note_on_c, 1, 38, 76
3, 226832, Note_off_c, 1, 50, 100
3, 226848, Note_on_c, 1, 50, 76
3, 226924, Note_off_c, 1, 38, 100
3, 226944, Note_on_c, 1, 38, 75
3, 227020, Note_off_c, 1, 50, 100
3, 227040, Note_on_c, 1, 50, 74
3, 227112, Note_off_c, 1, 38, 100
3, 227136, Note_on_c, 1, 38, 74
3, 227228, Note_off_c, 1, 50, 100
3, 227232, Note_on_c, 1, 50, 73
3, 227308, Note_off_c, 1, 38, 100
3, 227328, Note_on_c, 1, 38, 72
3, 227396, Note_off_c, 1, 50, 100
3, 227424, Note_on_c, 1, 50, 72
3, 227504, Note_off_c, 1, 38, 100
3, 227520, Note_on_c, 1, 38, 71
3, 227608, Note_off_c, 1, 50, 100
3, 227616, Note_on_c, 1, 50, 71
3, 227688, Note_off_c, 1, 38, 100
3, 227708, Note_off_c, 1, 50, 100
3, 227712, Note_on_c, 1, 38, 120
3, 228284, Note_off_c, 1, 38, 100
3, 228288, Note_on_c, 1, 40, 120
3, 228476, Note_off_c, 1, 40, 100
3, 228480, Note_on_c, 1, 50, 120
3, 228480, Note_on_c, 1, 42, 120
3, 229052, Note_off_c, 1, 50, 100
3, 229052, Note_off_c, 1, 42, 100
3, 229056, Note_on_c, 1, 43, 120
3, 229056, Note_on_c, 1, 52, 120
3, 229244, Note_off_c, 1, 43, 100
3, 229244, Note_off_c, 1, 52, 100
3, 229248, Note_on_c, 1, 54, 120
3, 229248, Note_on_c, 1, 48, 120
3, 229248, Note_on_c, 1, 45, 120
3, 229820, Note_off_c, 1, 54, 100
3, 229820, Note_off_c, 1, 48, 100
3, 229820, Note_off_c, 1, 45, 100
3, 229824, Note_on_c, 1, 55, 120
3, 229824, Note_on_c, 1, 50, 120
3, 229824, Note_on_c, 1, 46, 120
3, 230012, Note_off_c, 1, 55, 100
3, 230012, Note_off_c, 1, 50, 100
3, 230012, Note_off_c, 1, 46, 100
3, 230016, Note_on_c, 1, 57, 120
3, 230016, Note_on_c, 1, 54, 120
3, 230204, Note_off_c, 1, 57, 100
3, 230204, Note_off_c, 1, 54, 100
3, 230208, Note_on_c, 1, 58, 120
3, 230208, Note_on_c, 1, 55, 120
3, 230396, Note_off_c, 1, 58, 100
3, 230396, Note_off_c, 1, 55, 100
3, 230400, Note_on_c, 1, 60, 120
3, 230400, Note_on_c, 1, 57, 120
3, 230588, Note_off_c, 1, 60, 100
3, 230588, Note_off_c, 1, 57, 100
3, 230592, Note_on_c, 1, 62, 120
3, 230592, Note_on_c, 1, 58, 120
3, 230780, Note_off_c, 1, 62, 100
3, 230780, Note_off_c, 1, 58, 100
3, 230784, Note_on_c, 1, 63, 120
3, 230784, Note_on_c, 1, 60, 120
3, 231164, Note_off_c, 1, 63, 100
3, 231164, Note_off_c, 1, 60, 100
3, 233856, Note_on_c, 1, 43, 120
3, 234428, Note_off_c, 1, 43, 100
3, 234432, Note_on_c, 1, 45, 120
3, 234620, Note_off_c, 1, 45, 100
3, 234624, Note_on_c, 1, 55, 120
3, 234624, Note_on_c, 1, 47, 120
3, 235196, Note_off_c, 1, 55, 100
3, 235196, Note_off_c, 1, 47, 100
3, 235200, Note_on_c, 1, 57, 120
3, 235200, Note_on_c, 1, 48, 120
3, 235388, Note_off_c, 1, 57, 100
3, 235388, Note_off_c, 1, 48, 100
3, 235392, Note_on_c, 1, 59, 120
3, 235392, Note_on_c, 1, 53, 120
3, 235392, Note_on_c, 1, 50, 120
3, 235964, Note_off_c, 1, 59, 100
3, 235964, Note_off_c, 1, 53, 100
3, 235964, Note_off_c, 1, 50, 100
3, 235968, Note_on_c, 1, 60, 120
3, 235968, Note_on_c, 1, 55, 120
3, 235968, Note_on_c, 1, 51, 120
3, 236156, Note_off_c, 1, 60, 100
3, 236156, Note_off_c, 1, 55, 100
3, 236156, Note_off_c, 1, 51, 100
3, 236160, Note_on_c, 1, 62, 120
3, 236160, Note_on_c, 1, 59, 120
3, 236348, Note_off_c, 1, 62, 100
3, 236348, Note_off_c, 1, 59, 100
3, 236352, Note_on_c, 1, 63, 120
3, 236352, Note_on_c, 1, 60, 120
3, 236540, Note_off_c, 1, 63, 100
3, 236540, Note_off_c, 1, 60, 100
3, 236544, Note_on_c, 1, 65, 120
3, 236544, Note_on_c, 1, 62, 120
3, 236732, Note_off_c, 1, 65, 100
3, 236732, Note_off_c, 1, 62, 100
3, 236736, Note_on_c, 1, 67, 120
3, 236736, Note_on_c, 1, 63, 120
3, 236924, Note_off_c, 1, 67, 100
3, 236924, Note_off_c, 1, 63, 100
3, 236928, Note_on_c, 1, 68, 120
3, 236928, Note_on_c, 1, 65, 120
3, 237308, Note_off_c, 1, 68, 100
3, 237308, Note_off_c, 1, 65, 100
3, 240000, Note_on_c, 1, 36, 120
3, 240572, Note_off_c, 1, 36, 100
3, 240576, Note_on_c, 1, 38, 120
3, 240764, Note_off_c, 1, 38, 100
3, 240768, Note_on_c, 1, 48, 120
3, 240768, Note_on_c, 1, 40, 120
3, 241340, Note_off_c, 1, 48, 100
3, 241340, Note_off_c, 1, 40, 100
3, 241344, Note_on_c, 1, 41, 120
3, 241344, Note_on_c, 1, 50, 120
3, 241532, Note_off_c, 1, 41, 100
3, 241532, Note_off_c, 1, 50, 100
3, 241536, Note_on_c, 1, 52, 120
3, 241536, Note_on_c, 1, 46, 120
3, 241536, Note_on_c, 1, 43, 120
3, 242108, Note_off_c, 1, 52, 100
3, 242108, Note_off_c, 1, 46, 100
3, 242108, Note_off_c, 1, 43, 100
3, 242112, Note_on_c, 1, 53, 120
3, 242112, Note_on_c, 1, 48, 120
3, 242112, Note_on_c, 1, 44, 120
3, 242300, Note_off_c, 1, 53, 100
3, 242300, Note_off_c, 1, 48, 100
3, 242300, Note_off_c, 1, 44, 100
3, 242304, Note_on_c, 1, 55, 120
3, 242304, Note_on_c, 1, 52, 120
3, 242492, Note_off_c, 1, 55, 100
3, 242492, Note_off_c, 1, 52, 100
3, 242496, Note_on_c, 1, 56, 120
3, 242496, Note_on_c, 1, 53, 120
3, 242684, Note_off_c, 1, 56, 100
3, 242684, Note_off_c, 1, 53, 100
3, 242688, Note_on_c, 1, 58, 120
3, 242688, Note_on_c, 1, 55, 120
3, 242876, Note_off_c, 1, 58, 100
3, 242876, Note_off_c, 1, 55, 100
3, 242880, Note_on_c, 1, 60, 120
3, 242880, Note_on_c, 1, 56, 120
3, 243068, Note_off_c, 1, 60, 100
3, 243068, Note_off_c, 1, 56, 100
3, 243072, Note_on_c, 1, 58, 120
3, 243072, Note_on_c, 1, 61, 120
3, 243452, Note_off_c, 1, 58, 100
3, 243452, Note_off_c, 1, 61, 100
3, 244608, Note_on_c, 1, 46, 120
3, 244992, Note_on_c, 1, 49, 120
3, 245376, Note_on_c, 1, 52, 120
3, 245760, Note_on_c, 1, 55, 120
3, 246140, Note_off_c, 1, 46, 100
3, 246140, Note_off_c, 1, 49, 100
3, 246140, Note_off_c, 1, 52, 100
3, 246140, Note_off_c, 1, 55, 100
3, 246144, Note_on_c, 1, 44, 110
3, 246528, Note_on_c, 1, 48, 109
3, 246912, Note_on_c, 1, 53, 108
3, 247296, Note_on_c, 1, 56, 107
3, 247676, Note_off_c, 1, 44, 100
3, 247676, Note_off_c, 1, 48, 100
3, 247676, Note_off_c, 1, 53, 100
3, 247676, Note_off_c, 1, 56, 100
3, 247680, Note_on_c, 1, 44, 105
3, 248064, Note_on_c, 1, 48, 104
3, 248448, Note_on_c, 1, 53, 103
3, 248832, Note_on_c, 1, 56, 102
3, 249212, Note_off_c, 1, 44, 100
3, 249212, Note_off_c, 1, 48, 100
3, 249212, Note_off_c, 1, 53, 100
3, 249212, Note_off_c, 1, 56, 100
3, 249216, Note_on_c, 1, 43, 95
3, 249600, Note_on_c, 1, 50, 95
3, 249984, Note_on_c, 1, 53, 95
3, 250368, Note_on_c, 1, 55, 95
3, 250748, Note_off_c, 1, 43, 100
3, 250748, Note_off_c, 1, 50, 100
3, 250748, Note_off_c, 1, 53, 100
3, 250748, Note_off_c, 1, 55, 100
3, 250752, Note_on_c, 1, 43, 95
3, 251136, Note_on_c, 1, 47, 95
3, 251520, Note_on_c, 1, 50, 95
3, 251904, Note_on_c, 1, 55, 95
3, 252284, Note_off_c, 1, 43, 100
3, 252284, Note_off_c, 1, 47, 100
3, 252284, Note_off_c, 1, 50, 100
3, 252284, Note_off_c, 1, 55, 100
3, 252288, Note_on_c, 1, 43, 95
3, 252672, Note_on_c, 1, 48, 95
3, 253056, Note_on_c, 1, 51, 95
3, 253440, Note_on_c, 1, 55, 95
3, 253820, Note_off_c, 1, 43, 100
3, 253820, Note_off_c, 1, 48, 100
3, 253820, Note_off_c, 1, 51, 100
3, 253820, Note_off_c, 1, 55, 100
3, 253824, Note_on_c, 1, 42, 95
3, 254208, Note_on_c, 1, 48, 95
3, 254592, Note_on_c, 1, 51, 95
3, 254976, Note_on_c, 1, 54, 95
3, 255356, Note_off_c, 1, 42, 100
3, 255356, Note_off_c, 1, 48, 100
3, 255356, Note_off_c, 1, 51, 100
3, 255356, Note_off_c, 1, 54, 100
3, 255360, Note_on_c, 1, 41, 95
3, 255744, Note_on_c, 1, 48, 95
3, 256128, Note_on_c, 1, 51, 95
3, 256512, Note_on_c, 1, 53, 95
3, 256892, Note_off_c, 1, 41, 100
3, 256892, Note_off_c, 1, 48, 100
3, 256892, Note_off_c, 1, 51, 100
3, 256892, Note_off_c, 1, 53, 100
3, 256896, Note_on_c, 1, 41, 95
3, 257280, Note_on_c, 1, 45, 95
3, 257664, Note_on_c, 1, 48, 95
3, 258048, Note_on_c, 1, 53, 95
3, 258428, Note_off_c, 1, 41, 100
3, 258428, Note_off_c, 1, 45, 100
3, 258428, Note_off_c, 1, 48, 100
3, 258428, Note_off_c, 1, 53, 100
3, 258432, Note_on_c, 1, 41, 80
3, 258816, Note_on_c, 1, 46, 80
3, 259200, Note_on_c, 1, 49, 80
3, 259584, Note_on_c, 1, 53, 80
3, 259964, Note_off_c, 1, 41, 100
3, 259964, Note_off_c, 1, 46, 100
3, 259964, Note_off_c, 1, 49, 100
3, 259964, Note_off_c, 1, 53, 100
3, 259968, Note_on_c, 1, 40, 80
3, 260352, Note_on_c, 1, 46, 80
3, 260736, Note_on_c, 1, 49, 80
3, 261120, Note_on_c, 1, 52, 80
3, 261500, Note_off_c, 1, 40, 100
3, 261500, Note_off_c, 1, 46, 100
3, 261500, Note_off_c, 1, 49, 100
3, 261500, Note_off_c, 1, 52, 100
3, 261504, Note_on_c, 1, 39, 80
3, 261888, Note_on_c, 1, 46, 80
3, 262272, Note_on_c, 1, 49, 80
3, 262656, Note_on_c, 1, 51, 80
3, 263036, Note_off_c, 1, 39, 100
3, 263036, Note_off_c, 1, 46, 100
3, 263036, Note_off_c, 1, 49, 100
3, 263036, Note_off_c, 1, 51, 100
3, 263040, Note_on_c, 1, 39, 80
3, 263424, Note_on_c, 1, 46, 80
3, 263808, Note_on_c, 1, 49, 80
3, 264192, Note_on_c, 1, 51, 80
3, 264572, Note_off_c, 1, 39, 100
3, 264572, Note_off_c, 1, 46, 100
3, 264572, Note_off_c, 1, 49, 100
3, 264572, Note_off_c, 1, 51, 100
3, 264576, Note_on_c, 1, 39, 90
3, 265148, Note_off_c, 1, 39, 100
3, 265152, Note_on_c, 1, 41, 90
3, 265340, Note_off_c, 1, 41, 100
3, 265344, Note_on_c, 1, 43, 90
3, 265916, Note_off_c, 1, 43, 100
3, 265920, Note_on_c, 1, 45, 90
3, 266108, Note_off_c, 1, 45, 100
3, 266112, Note_on_c, 1, 46, 90
3, 266684, Note_off_c, 1, 46, 100
3, 266688, Note_on_c, 1, 48, 90
3, 266876, Note_off_c, 1, 48, 100
3, 266880, Note_on_c, 1, 49, 90
3, 267068, Note_off_c, 1, 49, 100
3, 267072, Note_on_c, 1, 48, 90
3, 267260, Note_off_c, 1, 48, 100
3, 267264, Note_on_c, 1, 46, 90
3, 267452, Note_off_c, 1, 46, 100
3, 267456, Note_on_c, 1, 44, 90
3, 267644, Note_off_c, 1, 44, 100
3, 267648, Note_on_c, 1, 43, 89
3, 268220, Note_off_c, 1, 43, 100
3, 268224, Note_on_c, 1, 44, 89
3, 268412, Note_off_c, 1, 44, 100
3, 268416, Note_on_c, 1, 46, 89
3, 268604, Note_off_c, 1, 46, 100
3, 268608, Note_on_c, 1, 44, 89
3, 268796, Note_off_c, 1, 44, 100
3, 268800, Note_on_c, 1, 43, 89
3, 268988, Note_off_c, 1, 43, 100
3, 268992, Note_on_c, 1, 41, 89
3, 269180, Note_off_c, 1, 41, 100
3, 269184, Note_on_c, 1, 39, 89
3, 269564, Note_off_c, 1, 39, 100
3, 270720, Note_on_c, 1, 36, 88
3, 271292, Note_off_c, 1, 36, 100
3, 271296, Note_on_c, 1, 38, 88
3, 271484, Note_off_c, 1, 38, 100
3, 271488, Note_on_c, 1, 40, 88
3, 272060, Note_off_c, 1, 40, 100
3, 272064, Note_on_c, 1, 41, 88
3, 272252, Note_off_c, 1, 41, 100
3, 272256, Note_on_c, 1, 43, 88
3, 272828, Note_off_c, 1, 43, 100
3, 272832, Note_on_c, 1, 44, 88
3, 273020, Note_off_c, 1, 44, 100
3, 273024, Note_on_c, 1, 46, 88
3, 273212, Note_off_c, 1, 46, 100
3, 273216, Note_on_c, 1, 44, 88
3, 273404, Note_off_c, 1, 44, 100
3, 273408, Note_on_c, 1, 43, 87
3, 273596, Note_off_c, 1, 43, 100
3, 273600, Note_on_c, 1, 41, 87
3, 273788, Note_off_c, 1, 41, 100
3, 273792, Note_on_c, 1, 40, 87
3, 274364, Note_off_c, 1, 40, 100
3, 274368, Note_on_c, 1, 41, 87
3, 274556, Note_off_c, 1, 41, 100
3, 274560, Note_on_c, 1, 43, 87
3, 274748, Note_off_c, 1, 43, 100
3, 274752, Note_on_c, 1, 41, 87
3, 274940, Note_off_c, 1, 41, 100
3, 274944, Note_on_c, 1, 40, 87
3, 275132, Note_off_c, 1, 40, 100
3, 275136, Note_on_c, 1, 38, 87
3, 275324, Note_off_c, 1, 38, 100
3, 275328, Note_on_c, 1, 36, 87
3, 275708, Note_off_c, 1, 36, 100
3, 276864, Note_on_c, 1, 29, 86
3, 277436, Note_off_c, 1, 29, 100
3, 277440, Note_on_c, 1, 31, 86
3, 277628, Note_off_c, 1, 31, 100
3, 277632, Note_on_c, 1, 33, 86
3, 278204, Note_off_c, 1, 33, 100
3, 278208, Note_on_c, 1, 34, 86
3, 278396, Note_off_c, 1, 34, 100
3, 278400, Note_on_c, 1, 36, 86
3, 278972, Note_off_c, 1, 36, 100
3, 278976, Note_on_c, 1, 37, 86
3, 279164, Note_off_c, 1, 37, 100
3, 279168, Note_on_c, 1, 39, 85
3, 279356, Note_off_c, 1, 39, 100
3, 279360, Note_on_c, 1, 37, 85
3, 279548, Note_off_c, 1, 37, 100
3, 279552, Note_on_c, 1, 36, 85
3, 279740, Note_off_c, 1, 36, 100
3, 279744, Note_on_c, 1, 34, 85
3, 279932, Note_off_c, 1, 34, 100
3, 279936, Note_on_c, 1, 33, 85
3, 280508, Note_off_c, 1, 33, 100
3, 280512, Note_on_c, 1, 34, 85
3, 280700, Note_off_c, 1, 34, 100
3, 280704, Note_on_c, 1, 36, 85
3, 280892, Note_off_c, 1, 36, 100
3, 280896, Note_on_c, 1, 34, 85
3, 281084, Note_off_c, 1, 34, 100
3, 281088, Note_on_c, 1, 33, 85
3, 281276, Note_off_c, 1, 33, 100
3, 281280, Note_on_c, 1, 31, 85
3, 281468, Note_off_c, 1, 31, 100
3, 281472, Note_on_c, 1, 29, 85
3, 283772, Note_off_c, 1, 29, 100
3, 283776, Note_on_c, 1, 36, 84
3, 283964, Note_off_c, 1, 36, 100
3, 283968, Note_on_c, 1, 34, 84
3, 284156, Note_off_c, 1, 34, 100
3, 284160, Note_on_c, 1, 33, 84
3, 284348, Note_off_c, 1, 33, 100
3, 284352, Note_on_c, 1, 31, 84
3, 284540, Note_off_c, 1, 31, 100
3, 284544, Note_on_c, 1, 29, 84
3, 286844, Note_off_c, 1, 29, 100
3, 286848, Note_on_c, 1, 36, 83
3, 287036, Note_off_c, 1, 36, 100
3, 287040, Note_on_c, 1, 34, 83
3, 287228, Note_off_c, 1, 34, 100
3, 287232, Note_on_c, 1, 33, 83
3, 287420, Note_off_c, 1, 33, 100
3, 287424, Note_on_c, 1, 31, 83
3, 287612, Note_off_c, 1, 31, 100
3, 287616, Note_on_c, 1, 29, 83
3, 288380, Note_off_c, 1, 29, 100
3, 288384, Note_on_c, 1, 36, 82
3, 288572, Note_off_c, 1, 36, 100
3, 288576, Note_on_c, 1, 34, 82
3, 288764, Note_off_c, 1, 34, 100
3, 288768, Note_on_c, 1, 33, 82
3, 288956, Note_off_c, 1, 33, 100
3, 288960, Note_on_c, 1, 31, 82
3, 289148, Note_off_c, 1, 31, 100
3, 289152, Note_on_c, 1, 29, 82
3, 289916, Note_off_c, 1, 29, 100
3, 289920, Note_on_c, 1, 36, 82
3, 290108, Note_off_c, 1, 36, 100
3, 290112, Note_on_c, 1, 34, 82
3, 290300, Note_off_c, 1, 34, 100
3, 290304, Note_on_c, 1, 33, 82
3, 290492, Note_off_c, 1, 33, 100
3, 290496, Note_on_c, 1, 31, 82
3, 290684, Note_off_c, 1, 31, 100
3, 290688, Note_on_c, 1, 29, 81
3, 291260, Note_off_c, 1, 29, 100
3, 291264, Note_on_c, 1, 31, 81
3, 291452, Note_off_c, 1, 31, 100
3, 291456, Note_on_c, 1, 33, 81
3, 291644, Note_off_c, 1, 33, 100
3, 291648, Note_on_c, 1, 34, 81
3, 291836, Note_off_c, 1, 34, 100
3, 291840, Note_on_c, 1, 36, 81
3, 292028, Note_off_c, 1, 36, 100
3, 292032, Note_on_c, 1, 38, 81
3, 292220, Note_off_c, 1, 38, 100
3, 292224, Note_on_c, 1, 39, 81
3, 292412, Note_off_c, 1, 39, 100
3, 292416, Note_on_c, 1, 39, 81
3, 292604, Note_off_c, 1, 39, 100
3, 292608, Note_on_c, 1, 41, 81
3, 292796, Note_off_c, 1, 41, 100
3, 292800, Note_on_c, 1, 43, 81
3, 292988, Note_off_c, 1, 43, 100
3, 292992, Note_on_c, 1, 45, 81
3, 293180, Note_off_c, 1, 45, 100
3, 293184, Note_on_c, 1, 46, 81
3, 293372, Note_off_c, 1, 46, 100
3, 293376, Note_on_c, 1, 48, 81
3, 293564, Note_off_c, 1, 48, 100
3, 293568, Note_on_c, 1, 50, 81
3, 293756, Note_off_c, 1, 50, 100
3, 293760, Note_on_c, 1, 51, 80
3, 293760, Note_on_c, 1, 39, 80
3, 293952, Note_on_c, 1, 52, 80
3, 294140, Note_off_c, 1, 52, 100
3, 294144, Note_on_c, 1, 53, 80
3, 294332, Note_off_c, 1, 53, 100
3, 294336, Note_on_c, 1, 55, 80
3, 294524, Note_off_c, 1, 55, 100
3, 294528, Note_on_c, 1, 57, 80
3, 294716, Note_off_c, 1, 57, 100
3, 294720, Note_on_c, 1, 58, 80
3, 294908, Note_off_c, 1, 58, 100
3, 294912, Note_on_c, 1, 60, 80
3, 295100, Note_off_c, 1, 60, 100
3, 295104, Note_on_c, 1, 62, 80
3, 295292, Note_off_c, 1, 51, 100
3, 295292, Note_off_c, 1, 39, 100
3, 295292, Note_off_c, 1, 62, 100
3, 295296, Note_on_c, 1, 48, 80
3, 295296, Note_on_c, 1, 41, 80
3, 296060, Note_off_c, 1, 48, 100
3, 296060, Note_off_c, 1, 41, 100
3, 296064, Note_on_c, 1, 46, 80
3, 296064, Note_on_c, 1, 41, 80
3, 296828, Note_off_c, 1, 46, 100
3, 296828, Note_off_c, 1, 41, 100
3, 296832, Note_on_c, 1, 53, 80
3, 296832, Note_on_c, 1, 45, 80
3, 296832, Note_on_c, 1, 41, 80
3, 299132, Note_off_c, 1, 41, 100
3, 299132, Note_off_c, 1, 45, 100
3, 299132, Note_off_c, 1, 53, 100
3, 299904, Note_on_c, 1, 46, 80
3, 299904, Note_on_c, 1, 34, 80
3, 300284, Note_off_c, 1, 46, 100
3, 300284, Note_off_c, 1, 34, 100
3, 300288, Note_on_c, 1, 46, 80
3, 300288, Note_on_c, 1, 34, 80
3, 300668, Note_off_c, 1, 46, 100
3, 300668, Note_off_c, 1, 34, 100
3, 301440, Note_on_c, 1, 46, 80
3, 301440, Note_on_c, 1, 34, 80
3, 301820, Note_off_c, 1, 46, 100
3, 301820, Note_off_c, 1, 34, 100
3, 301824, Note_on_c, 1, 46, 80
3, 301824, Note_on_c, 1, 34, 80
3, 302204, Note_off_c, 1, 46, 100
3, 302204, Note_off_c, 1, 34, 100
3, 304512, Note_on_c, 1, 46, 99
3, 304608, Note_on_c, 1, 50, 80
3, 304700, Note_off_c, 1, 46, 100
3, 304704, Note_on_c, 1, 53, 80
3, 304772, Note_off_c, 1, 50, 100
3, 304800, Note_on_c, 1, 58, 80
3, 304868, Note_off_c, 1, 53, 100
3, 304896, Note_on_c, 1, 46, 80
3, 304964, Note_off_c, 1, 58, 100
3, 304992, Note_on_c, 1, 50, 80
3, 305048, Note_off_c, 1, 46, 100
3, 305088, Note_on_c, 1, 53, 80
3, 305160, Note_off_c, 1, 50, 100
3, 305184, Note_on_c, 1, 58, 80
3, 305240, Note_off_c, 1, 53, 100
3, 305280, Note_on_c, 1, 46, 80
3, 305356, Note_off_c, 1, 58, 100
3, 305376, Note_on_c, 1, 50, 80
3, 305436, Note_off_c, 1, 46, 100
3, 305472, Note_on_c, 1, 53, 80
3, 305536, Note_off_c, 1, 50, 100
3, 305568, Note_on_c, 1, 58, 80
3, 305628, Note_off_c, 1, 53, 100
3, 305664, Note_on_c, 1, 46, 80
3, 305732, Note_off_c, 1, 58, 100
3, 305760, Note_on_c, 1, 50, 80
3, 305828, Note_off_c, 1, 46, 100
3, 305856, Note_on_c, 1, 53, 80
3, 305920, Note_off_c, 1, 50, 100
3, 305952, Note_on_c, 1, 58, 80
3, 306020, Note_off_c, 1, 53, 100
3, 306048, Note_on_c, 1, 48, 80
3, 306108, Note_off_c, 1, 58, 100
3, 306144, Note_on_c, 1, 51, 80
3, 306224, Note_off_c, 1, 48, 100
3, 306240, Note_on_c, 1, 55, 80
3, 306312, Note_off_c, 1, 51, 100
3, 306336, Note_on_c, 1, 58, 80
3, 306412, Note_off_c, 1, 55, 100
3, 306432, Note_on_c, 1, 48, 80
3, 306488, Note_off_c, 1, 58, 100
3, 306528, Note_on_c, 1, 51, 80
3, 306596, Note_off_c, 1, 48, 100
3, 306624, Note_on_c, 1, 55, 80
3, 306700, Note_off_c, 1, 51, 100
3, 306720, Note_on_c, 1, 58, 80
3, 306772, Note_off_c, 1, 55, 100
3, 306816, Note_on_c, 1, 46, 80
3, 306876, Note_off_c, 1, 58, 100
3, 306912, Note_on_c, 1, 51, 80
3, 306976, Note_off_c, 1, 46, 100
3, 307008, Note_on_c, 1, 53, 80
3, 307076, Note_off_c, 1, 51, 100
3, 307104, Note_on_c, 1, 57, 80
3, 307196, Note_off_c, 1, 53, 100
3, 307200, Note_on_c, 1, 46, 80
3, 307284, Note_off_c, 1, 57, 100
3, 307296, Note_on_c, 1, 51, 80
3, 307364, Note_off_c, 1, 46, 100
3, 307392, Note_on_c, 1, 53, 80
3, 307448, Note_off_c, 1, 51, 100
3, 307488, Note_on_c, 1, 57, 80
3, 307560, Note_off_c, 1, 53, 100
3, 307584, Note_on_c, 1, 46, 80
3, 307644, Note_off_c, 1, 57, 100
3, 307680, Note_on_c, 1, 50, 80
3, 307732, Note_off_c, 1, 46, 100
3, 307776, Note_on_c, 1, 53, 80
3, 307844, Note_off_c, 1, 50, 100
3, 307872, Note_on_c, 1, 58, 80
3, 307944, Note_off_c, 1, 53, 100
3, 307968, Note_on_c, 1, 46, 80
3, 308036, Note_off_c, 1, 58, 100
3, 308064, Note_on_c, 1, 50, 80
3, 308136, Note_off_c, 1, 46, 100
3, 308160, Note_on_c, 1, 53, 80
3, 308232, Note_off_c, 1, 50, 100
3, 308256, Note_on_c, 1, 58, 80
3, 308320, Note_off_c, 1, 53, 100
3, 308352, Note_on_c, 1, 46, 80
3, 308444, Note_off_c, 1, 58, 100
3, 308448, Note_on_c, 1, 50, 80
3, 308528, Note_off_c, 1, 46, 100
3, 308544, Note_on_c, 1, 53, 80
3, 308608, Note_off_c, 1, 50, 100
3, 308640, Note_on_c, 1, 56, 80
3, 308704, Note_off_c, 1, 53, 100
3, 308736, Note_on_c, 1, 46, 80
3, 308804, Note_off_c, 1, 56, 100
3, 308832, Note_on_c, 1, 50, 80
3, 308904, Note_off_c, 1, 46, 100
3, 308928, Note_on_c, 1, 53, 80
3, 308996, Note_off_c, 1, 50, 100
3, 309024, Note_on_c, 1, 56, 80
3, 309084, Note_off_c, 1, 53, 100
3, 309120, Note_on_c, 1, 46, 80
3, 309180, Note_off_c, 1, 56, 100
3, 309216, Note_on_c, 1, 51, 80
3, 309288, Note_off_c, 1, 46, 100
3, 309312, Note_on_c, 1, 57, 81
3, 309388, Note_off_c, 1, 51, 100
3, 309408, Note_on_c, 1, 51, 81
3, 309484, Note_off_c, 1, 57, 100
3, 309504, Note_on_c, 1, 46, 82
3, 309572, Note_off_c, 1, 51, 100
3, 309600, Note_on_c, 1, 51, 83
3, 309680, Note_off_c, 1, 46, 100
3, 309696, Note_on_c, 1, 57, 83
3, 309776, Note_off_c, 1, 51, 100
3, 309792, Note_on_c, 1, 51, 84
3, 309864, Note_off_c, 1, 57, 100
3, 309888, Note_on_c, 1, 46, 85
3, 309956, Note_off_c, 1, 51, 100
3, 309984, Note_on_c, 1, 48, 85
3, 310056, Note_off_c, 1, 46, 100
3, 310080, Note_on_c, 1, 51, 86
3, 310140, Note_off_c, 1, 48, 100
3, 310176, Note_on_c, 1, 53, 87
3, 310256, Note_off_c, 1, 51, 100
3, 310272, Note_on_c, 1, 46, 87
3, 310348, Note_off_c, 1, 53, 100
3, 310368, Note_on_c, 1, 48, 88
3, 310444, Note_off_c, 1, 46, 100
3, 310464, Note_on_c, 1, 51, 89
3, 310536, Note_off_c, 1, 48, 100
3, 310560, Note_on_c, 1, 53, 89
3, 310624, Note_off_c, 1, 51, 100
3, 310652, Note_off_c, 1, 53, 100
3, 310656, Note_on_c, 1, 46, 110
3, 311036, Note_off_c, 1, 46, 100
3, 311040, Note_on_c, 1, 46, 110
3, 311132, Note_off_c, 1, 46, 100
3, 311136, Note_on_c, 1, 45, 110
3, 311228, Note_off_c, 1, 45, 100
3, 311232, Note_on_c, 1, 46, 110
3, 311324, Note_off_c, 1, 46, 100
3, 311328, Note_on_c, 1, 43, 110
3, 311420, Note_off_c, 1, 43, 100
3, 311424, Note_on_c, 1, 41, 110
3, 311804, Note_off_c, 1, 41, 100
3, 311808, Note_on_c, 1, 51, 110
3, 311900, Note_off_c, 1, 51, 100
3, 311904, Note_on_c, 1, 50, 110
3, 311996, Note_off_c, 1, 50, 100
3, 312000, Note_on_c, 1, 51, 110
3, 312092, Note_off_c, 1, 51, 100
3, 312096, Note_on_c, 1, 48, 110
3, 312188, Note_off_c, 1, 48, 100
3, 312192, Note_on_c, 1, 46, 110
3, 312572, Note_off_c, 1, 46, 100
3, 312576, Note_on_c, 1, 58, 110
3, 312668, Note_off_c, 1, 58, 100
3, 312672, Note_on_c, 1, 57, 110
3, 312764, Note_off_c, 1, 57, 100
3, 312768, Note_on_c, 1, 58, 110
3, 312860, Note_off_c, 1, 58, 100
3, 312864, Note_on_c, 1, 55, 110
3, 312956, Note_off_c, 1, 55, 100
3, 312960, Note_on_c, 1, 53, 110
3, 313340, Note_off_c, 1, 53, 100
3, 313344, Note_on_c, 1, 63, 110
3, 313436, Note_off_c, 1, 63, 100
3, 313440, Note_on_c, 1, 62, 110
3, 313532, Note_off_c, 1, 62, 100
3, 313536, Note_on_c, 1, 63, 110
3, 313628, Note_off_c, 1, 63, 100
3, 313632, Note_on_c, 1, 60, 110
3, 313724, Note_off_c, 1, 60, 100
3, 313728, Note_on_c, 1, 58, 110
3, 313916, Note_off_c, 1, 58, 100
3, 313920, Note_on_c, 1, 60, 110
3, 314012, Note_off_c, 1, 60, 100
3, 314016, Note_on_c, 1, 62, 110
3, 314108, Note_off_c, 1, 62, 100
3, 314112, Note_on_c, 1, 63, 110
3, 314204, Note_off_c, 1, 63, 100
3, 314208, Note_on_c, 1, 65, 110
3, 314300, Note_off_c, 1, 65, 100
3, 314304, Note_on_c, 1, 67, 110
3, 314396, Note_off_c, 1, 67, 100
3, 314400, Note_on_c, 1, 69, 110
3, 314492, Note_off_c, 1, 69, 100
3, 314496, Note_on_c, 1, 70, 110
3, 314588, Note_off_c, 1, 70, 100
3, 314592, Note_on_c, 1, 69, 110
3, 314684, Note_off_c, 1, 69, 100
3, 314688, Note_on_c, 1, 70, 110
3, 314780, Note_off_c, 1, 70, 100
3, 314784, Note_on_c, 1, 72, 110
3, 314876, Note_off_c, 1, 72, 100
3, 314880, Note_on_c, 1, 74, 110
3, 314972, Note_off_c, 1, 74, 100
3, 314976, Note_on_c, 1, 72, 110
3, 315068, Note_off_c, 1, 72, 100
3, 315072, Note_on_c, 1, 74, 110
3, 315164, Note_off_c, 1, 74, 100
3, 315168, Note_on_c, 1, 76, 110
3, 315260, Note_off_c, 1, 76, 100
3, 315264, Note_on_c, 1, 77, 110
3, 315644, Note_off_c, 1, 77, 100
3, 315648, Note_on_c, 1, 53, 110
3, 316028, Note_off_c, 1, 53, 100
3, 316416, Note_on_c, 1, 50, 110
3, 316416, Note_on_c, 1, 46, 110
3, 316508, Note_off_c, 1, 46, 100
3, 316512, Note_on_c, 1, 45, 110
3, 316604, Note_off_c, 1, 45, 100
3, 316608, Note_on_c, 1, 46, 110
3, 316700, Note_off_c, 1, 46, 100
3, 316704, Note_on_c, 1, 41, 110
3, 316796, Note_off_c, 1, 50, 100
3, 316796, Note_off_c, 1, 41, 100
3, 316800, Note_on_c, 1, 53, 110
3, 316800, Note_on_c, 1, 50, 110
3, 317180, Note_off_c, 1, 53, 100
3, 317180, Note_off_c, 1, 50, 100
3, 317184, Note_on_c, 1, 50, 110
3, 317184, Note_on_c, 1, 46, 110
3, 317564, Note_off_c, 1, 50, 100
3, 317564, Note_off_c, 1, 46, 100
3, 317952, Note_on_c, 1, 50, 110
3, 317952, Note_on_c, 1, 46, 110
3, 318044, Note_off_c, 1, 46, 100
3, 318048, Note_on_c, 1, 45, 110
3, 318140, Note_off_c, 1, 45, 100
3, 318144, Note_on_c, 1, 46, 110
3, 318236, Note_off_c, 1, 46, 100
3, 318240, Note_on_c, 1, 41, 110
3, 318332, Note_off_c, 1, 50, 100
3, 318332, Note_off_c, 1, 41, 100
3, 318336, Note_on_c, 1, 53, 110
3, 318336, Note_on_c, 1, 50, 110
3, 318716, Note_off_c, 1, 53, 100
3, 318716, Note_off_c, 1, 50, 100
3, 318720, Note_on_c, 1, 50, 110
3, 318720, Note_on_c, 1, 46, 110
3, 319100, Note_off_c, 1, 50, 100
3, 319100, Note_off_c, 1, 46, 100
3, 319488, Note_on_c, 1, 50, 110
3, 319580, Note_off_c, 1, 50, 100
3, 319584, Note_on_c, 1, 49, 110
3, 319676, Note_off_c, 1, 49, 100
3, 319680, Note_on_c, 1, 50, 110
3, 319772, Note_off_c, 1, 50, 100
3, 319776, Note_on_c, 1, 46, 110
3, 319868, Note_off_c, 1, 46, 100
3, 319872, Note_on_c, 1, 53, 110
3, 319964, Note_off_c, 1, 53, 100
3, 319968, Note_on_c, 1, 52, 110
3, 320060, Note_off_c, 1, 52, 100
3, 320064, Note_on_c, 1, 53, 110
3, 320156, Note_off_c, 1, 53, 100
3, 320160, Note_on_c, 1, 50, 110
3, 320252, Note_off_c, 1, 50, 100
3, 320256, Note_on_c, 1, 58, 110
3, 320348, Note_off_c, 1, 58, 100
3, 320352, Note_on_c, 1, 57, 110
3, 320444, Note_off_c, 1, 57, 100
3, 320448, Note_on_c, 1, 58, 110
3, 320540, Note_off_c, 1, 58, 100
3, 320544, Note_on_c, 1, 53, 110
3, 320636, Note_off_c, 1, 53, 100
3, 320640, Note_on_c, 1, 62, 110
3, 320732, Note_off_c, 1, 62, 100
3, 320736, Note_on_c, 1, 61, 110
3, 320828, Note_off_c, 1, 61, 100
3, 320832, Note_on_c, 1, 62, 110
3, 320924, Note_off_c, 1, 62, 100
3, 320928, Note_on_c, 1, 58, 110
3, 321020, Note_off_c, 1, 58, 100
3, 321024, Note_on_c, 1, 65, 110
3, 321116, Note_off_c, 1, 65, 100
3, 321120, Note_on_c, 1, 64, 110
3, 321212, Note_off_c, 1, 64, 100
3, 321216, Note_on_c, 1, 65, 110
3, 321308, Note_off_c, 1, 65, 100
3, 321312, Note_on_c, 1, 62, 110
3, 321404, Note_off_c, 1, 62, 100
3, 321408, Note_on_c, 1, 68, 110
3, 322076, Note_off_c, 1, 68, 100
3, 322080, Note_on_c, 1, 67, 80
3, 322172, Note_off_c, 1, 67, 100
3, 322176, Note_on_c, 1, 65, 80
3, 322460, Note_off_c, 1, 65, 100
3, 322464, Note_on_c, 1, 63, 80
3, 322556, Note_off_c, 1, 63, 100
3, 322560, Note_on_c, 1, 62, 80
3, 322844, Note_off_c, 1, 62, 100
3, 322848, Note_on_c, 1, 60, 80
3, 322940, Note_off_c, 1, 60, 100
3, 322944, Note_on_c, 1, 59, 80
3, 323708, Note_off_c, 1, 59, 100
3, 323712, Note_on_c, 1, 60, 80
3, 324092, Note_off_c, 1, 60, 100
3, 324096, Note_on_c, 1, 57, 80
3, 324476, Note_off_c, 1, 57, 100
3, 324480, Note_on_c, 1, 58, 80
3, 324860, Note_off_c, 1, 58, 100
3, 324864, Note_on_c, 1, 55, 80
3, 325244, Note_off_c, 1, 55, 100
3, 325248, Note_on_c, 1, 56, 80
3, 325628, Note_off_c, 1, 56, 100
3, 325632, Note_on_c, 1, 54, 80
3, 326012, Note_off_c, 1, 54, 100
3, 326016, Note_on_c, 1, 55, 80
3, 326396, Note_off_c, 1, 55, 100
3, 326400, Note_on_c, 1, 52, 80
3, 326780, Note_off_c, 1, 52, 100
3, 326784, Note_on_c, 1, 53, 80
3, 327164, Note_off_c, 1, 53, 100
3, 327168, Note_on_c, 1, 50, 80
3, 327548, Note_off_c, 1, 50, 100
3, 327552, Note_on_c, 1, 51, 80
3, 327932, Note_off_c, 1, 51, 100
3, 327936, Note_on_c, 1, 48, 80
3, 328316, Note_off_c, 1, 48, 100
3, 328320, Note_on_c, 1, 50, 80
3, 328700, Note_off_c, 1, 50, 100
3, 328704, Note_on_c, 1, 52, 80
3, 329084, Note_off_c, 1, 52, 100
3, 329088, Note_on_c, 1, 41, 95
3, 329276, Note_off_c, 1, 41, 100
3, 329280, Note_on_c, 1, 53, 80
3, 329468, Note_off_c, 1, 53, 100
3, 329472, Note_on_c, 1, 53, 80
3, 329660, Note_off_c, 1, 53, 100
3, 329664, Note_on_c, 1, 53, 80
3, 329852, Note_off_c, 1, 53, 100
3, 329856, Note_on_c, 1, 53, 80
3, 330044, Note_off_c, 1, 53, 100
3, 330048, Note_on_c, 1, 53, 80
3, 330236, Note_off_c, 1, 53, 100
3, 330240, Note_on_c, 1, 53, 80
3, 330428, Note_off_c, 1, 53, 100
3, 330432, Note_on_c, 1, 53, 80
3, 330620, Note_off_c, 1, 53, 100
3, 330624, Note_on_c, 1, 53, 95
3, 330812, Note_off_c, 1, 53, 100
3, 330816, Note_on_c, 1, 53, 80
3, 331004, Note_off_c, 1, 53, 100
3, 331008, Note_on_c, 1, 53, 80
3, 331196, Note_off_c, 1, 53, 100
3, 331200, Note_on_c, 1, 53, 80
3, 331388, Note_off_c, 1, 53, 100
3, 331392, Note_on_c, 1, 53, 80
3, 331580, Note_off_c, 1, 53, 100
3, 331584, Note_on_c, 1, 53, 80
3, 331772, Note_off_c, 1, 53, 100
3, 331776, Note_on_c, 1, 53, 80
3, 331964, Note_off_c, 1, 53, 100
3, 331968, Note_on_c, 1, 53, 80
3, 332156, Note_off_c, 1, 53, 100
3, 332160, Note_on_c, 1, 41, 80
3, 332160, Note_on_c, 1, 53, 80
3, 332348, Note_off_c, 1, 41, 100
3, 332348, Note_off_c, 1, 53, 100
3, 332352, Note_on_c, 1, 65, 80
3, 332540, Note_off_c, 1, 65, 100
3, 332544, Note_on_c, 1, 65, 80
3, 332732, Note_off_c, 1, 65, 100
3, 332736, Note_on_c, 1, 65, 80
3, 332924, Note_off_c, 1, 65, 100
3, 332928, Note_on_c, 1, 65, 80
3, 333116, Note_off_c, 1, 65, 100
3, 333120, Note_on_c, 1, 65, 80
3, 333308, Note_off_c, 1, 65, 100
3, 333312, Note_on_c, 1, 65, 80
3, 333500, Note_off_c, 1, 65, 100
3, 333504, Note_on_c, 1, 65, 80
3, 333692, Note_off_c, 1, 65, 100
3, 333696, Note_on_c, 1, 65, 80
3, 333884, Note_off_c, 1, 65, 100
3, 333888, Note_on_c, 1, 65, 80
3, 334076, Note_off_c, 1, 65, 100
3, 334080, Note_on_c, 1, 65, 80
3, 334268, Note_off_c, 1, 65, 100
3, 334272, Note_on_c, 1, 65, 80
3, 334460, Note_off_c, 1, 65, 100
3, 334464, Note_on_c, 1, 65, 80
3, 334652, Note_off_c, 1, 65, 100
3, 334656, Note_on_c, 1, 65, 80
3, 334844, Note_off_c, 1, 65, 100
3, 334848, Note_on_c, 1, 65, 80
3, 335036, Note_off_c, 1, 65, 100
3, 335040, Note_on_c, 1, 65, 80
3, 335228, Note_off_c, 1, 65, 100
3, 335232, Note_on_c, 1, 53, 80
3, 335420, Note_off_c, 1, 53, 100
3, 335424, Note_on_c, 1, 65, 80
3, 335612, Note_off_c, 1, 65, 100
3, 335616, Note_on_c, 1, 65, 80
3, 335804, Note_off_c, 1, 65, 100
3, 335808, Note_on_c, 1, 65, 80
3, 335996, Note_off_c, 1, 65, 100
3, 336000, Note_on_c, 1, 53, 80
3, 336188, Note_off_c, 1, 53, 100
3, 336192, Note_on_c, 1, 65, 80
3, 336380, Note_off_c, 1, 65, 100
3, 336384, Note_on_c, 1, 65, 80
3, 336572, Note_off_c, 1, 65, 100
3, 336576, Note_on_c, 1, 65, 80
3, 336764, Note_off_c, 1, 65, 100
3, 336768, Note_on_c, 1, 53, 80
3, 337148, Note_off_c, 1, 53, 100
3, 338400, Note_on_c, 1, 58, 70
3, 338492, Note_off_c, 1, 58, 100
3, 338496, Note_on_c, 1, 60, 70
3, 338588, Note_off_c, 1, 60, 100
3, 338592, Note_on_c, 1, 62, 70
3, 338684, Note_off_c, 1, 62, 100
3, 338688, Note_on_c, 1, 63, 70
3, 338780, Note_off_c, 1, 63, 100
3, 338784, Note_on_c, 1, 65, 70
3, 338876, Note_off_c, 1, 65, 100
3, 338880, Note_on_c, 1, 67, 70
3, 338972, Note_off_c, 1, 67, 100
3, 338976, Note_on_c, 1, 69, 70
3, 339068, Note_off_c, 1, 69, 100
3, 339072, Note_on_c, 1, 70, 70
3, 339164, Note_off_c, 1, 70, 100
3, 339168, Note_on_c, 1, 69, 70
3, 339260, Note_off_c, 1, 69, 100
3, 339264, Note_on_c, 1, 70, 70
3, 339356, Note_off_c, 1, 70, 100
3, 339360, Note_on_c, 1, 69, 70
3, 339452, Note_off_c, 1, 69, 100
3, 339456, Note_on_c, 1, 70, 70
3, 339548, Note_off_c, 1, 70, 100
3, 339552, Note_on_c, 1, 69, 70
3, 339644, Note_off_c, 1, 69, 100
3, 339648, Note_on_c, 1, 70, 70
3, 339740, Note_off_c, 1, 70, 100
3, 339744, Note_on_c, 1, 69, 70
3, 339836, Note_off_c, 1, 69, 100
3, 339840, Note_on_c, 1, 70, 70
3, 339932, Note_off_c, 1, 70, 100
3, 339936, Note_on_c, 1, 69, 70
3, 340028, Note_off_c, 1, 69, 100
3, 340032, Note_on_c, 1, 70, 70
3, 340124, Note_off_c, 1, 70, 100
3, 340128, Note_on_c, 1, 69, 70
3, 340220, Note_off_c, 1, 69, 100
3, 340224, Note_on_c, 1, 70, 70
3, 340316, Note_off_c, 1, 70, 100
3, 340320, Note_on_c, 1, 69, 70
3, 340412, Note_off_c, 1, 69, 100
3, 340416, Note_on_c, 1, 70, 70
3, 340508, Note_off_c, 1, 70, 100
3, 340512, Note_on_c, 1, 69, 70
3, 340604, Note_off_c, 1, 69, 100
3, 340608, Note_on_c, 1, 70, 70
3, 340700, Note_off_c, 1, 70, 100
3, 340704, Note_on_c, 1, 69, 70
3, 340796, Note_off_c, 1, 69, 100
3, 340800, Note_on_c, 1, 70, 70
3, 340892, Note_off_c, 1, 70, 100
3, 340896, Note_on_c, 1, 69, 70
3, 340988, Note_off_c, 1, 69, 100
3, 340992, Note_on_c, 1, 70, 70
3, 341084, Note_off_c, 1, 70, 100
3, 341088, Note_on_c, 1, 69, 70
3, 341180, Note_off_c, 1, 69, 100
3, 341184, Note_on_c, 1, 70, 70
3, 341276, Note_off_c, 1, 70, 100
3, 341280, Note_on_c, 1, 69, 70
3, 341372, Note_off_c, 1, 69, 100
3, 341376, Note_on_c, 1, 70, 70
3, 341468, Note_off_c, 1, 70, 100
3, 341472, Note_on_c, 1, 58, 70
3, 341564, Note_off_c, 1, 58, 100
3, 341568, Note_on_c, 1, 60, 70
3, 341660, Note_off_c, 1, 60, 100
3, 341664, Note_on_c, 1, 62, 70
3, 341756, Note_off_c, 1, 62, 100
3, 341760, Note_on_c, 1, 63, 70
3, 341852, Note_off_c, 1, 63, 100
3, 341856, Note_on_c, 1, 65, 70
3, 341948, Note_off_c, 1, 65, 100
3, 341952, Note_on_c, 1, 67, 70
3, 342044, Note_off_c, 1, 67, 100
3, 342048, Note_on_c, 1, 69, 70
3, 342140, Note_off_c, 1, 69, 100
3, 342144, Note_on_c, 1, 70, 70
3, 342236, Note_off_c, 1, 70, 100
3, 342240, Note_on_c, 1, 69, 70
3, 342332, Note_off_c, 1, 69, 100
3, 342336, Note_on_c, 1, 70, 70
3, 342428, Note_off_c, 1, 70, 100
3, 342432, Note_on_c, 1, 69, 70
3, 342524, Note_off_c, 1, 69, 100
3, 342528, Note_on_c, 1, 70, 70
3, 342620, Note_off_c, 1, 70, 100
3, 342624, Note_on_c, 1, 69, 70
3, 342716, Note_off_c, 1, 69, 100
3, 342720, Note_on_c, 1, 70, 70
3, 342812, Note_off_c, 1, 70, 100
3, 342816, Note_on_c, 1, 69, 70
3, 342908, Note_off_c, 1, 69, 100
3, 342912, Note_on_c, 1, 70, 70
3, 343004, Note_off_c, 1, 70, 100
3, 343008, Note_on_c, 1, 69, 70
3, 343100, Note_off_c, 1, 69, 100
3, 343104, Note_on_c, 1, 70, 70
3, 343196, Note_off_c, 1, 70, 100
3, 343200, Note_on_c, 1, 69, 70
3, 343292, Note_off_c, 1, 69, 100
3, 343296, Note_on_c, 1, 70, 70
3, 343388, Note_off_c, 1, 70, 100
3, 343392, Note_on_c, 1, 69, 70
3, 343484, Note_off_c, 1, 69, 100
3, 343488, Note_on_c, 1, 70, 70
3, 343580, Note_off_c, 1, 70, 100
3, 343584, Note_on_c, 1, 69, 70
3, 343676, Note_off_c, 1, 69, 100
3, 343680, Note_on_c, 1, 70, 70
3, 343772, Note_off_c, 1, 70, 100
3, 343776, Note_on_c, 1, 69, 70
3, 343868, Note_off_c, 1, 69, 100
3, 343872, Note_on_c, 1, 70, 70
3, 343964, Note_off_c, 1, 70, 100
3, 343968, Note_on_c, 1, 69, 70
3, 344060, Note_off_c, 1, 69, 100
3, 344064, Note_on_c, 1, 70, 70
3, 344156, Note_off_c, 1, 70, 100
3, 344160, Note_on_c, 1, 68, 70
3, 344252, Note_off_c, 1, 68, 100
3, 344256, Note_on_c, 1, 70, 70
3, 344348, Note_off_c, 1, 70, 100
3, 344352, Note_on_c, 1, 68, 70
3, 344444, Note_off_c, 1, 68, 100
3, 344448, Note_on_c, 1, 66, 70
3, 344540, Note_off_c, 1, 66, 100
3, 344544, Note_on_c, 1, 67, 70
3, 344636, Note_off_c, 1, 67, 100
3, 344640, Note_on_c, 1, 66, 70
3, 344732, Note_off_c, 1, 66, 100
3, 344736, Note_on_c, 1, 67, 70
3, 344828, Note_off_c, 1, 67, 100
3, 344832, Note_on_c, 1, 64, 70
3, 344924, Note_off_c, 1, 64, 100
3, 344928, Note_on_c, 1, 65, 70
3, 345020, Note_off_c, 1, 65, 100
3, 345024, Note_on_c, 1, 64, 70
3, 345116, Note_off_c, 1, 64, 100
3, 345120, Note_on_c, 1, 65, 70
3, 345212, Note_off_c, 1, 65, 100
3, 345216, Note_on_c, 1, 61, 70
3, 345308, Note_off_c, 1, 61, 100
3, 345312, Note_on_c, 1, 62, 70
3, 345404, Note_off_c, 1, 62, 100
3, 345408, Note_on_c, 1, 61, 70
3, 345500, Note_off_c, 1, 61, 100
3, 345504, Note_on_c, 1, 62, 70
3, 345596, Note_off_c, 1, 62, 100
3, 345600, Note_on_c, 1, 58, 70
3, 345692, Note_off_c, 1, 58, 100
3, 345696, Note_on_c, 1, 59, 70
3, 345788, Note_off_c, 1, 59, 100
3, 345792, Note_on_c, 1, 58, 70
3, 345884, Note_off_c, 1, 58, 100
3, 345888, Note_on_c, 1, 59, 70
3, 345980, Note_off_c, 1, 59, 100
3, 345984, Note_on_c, 1, 54, 70
3, 346076, Note_off_c, 1, 54, 100
3, 346080, Note_on_c, 1, 55, 71
3, 346172, Note_off_c, 1, 55, 100
3, 346176, Note_on_c, 1, 54, 72
3, 346268, Note_off_c, 1, 54, 100
3, 346272, Note_on_c, 1, 55, 73
3, 346364, Note_off_c, 1, 55, 100
3, 346368, Note_on_c, 1, 52, 75
3, 346460, Note_off_c, 1, 52, 100
3, 346464, Note_on_c, 1, 53, 76
3, 346556, Note_off_c, 1, 53, 100
3, 346560, Note_on_c, 1, 52, 77
3, 346652, Note_off_c, 1, 52, 100
3, 346656, Note_on_c, 1, 53, 79
3, 346748, Note_off_c, 1, 53, 100
3, 346752, Note_on_c, 1, 49, 80
3, 346844, Note_off_c, 1, 49, 100
3, 346848, Note_on_c, 1, 50, 81
3, 346940, Note_off_c, 1, 50, 100
3, 346944, Note_on_c, 1, 49, 82
3, 347036, Note_off_c, 1, 49, 100
3, 347040, Note_on_c, 1, 50, 84
3, 347132, Note_off_c, 1, 50, 100
3, 347136, Note_on_c, 1, 46, 85
3, 347228, Note_off_c, 1, 46, 100
3, 347232, Note_on_c, 1, 47, 86
3, 347324, Note_off_c, 1, 47, 100
3, 347328, Note_on_c, 1, 46, 88
3, 347420, Note_off_c, 1, 46, 100
3, 347424, Note_on_c, 1, 47, 89
3, 347516, Note_off_c, 1, 47, 100
3, 347520, Note_on_c, 1, 42, 90
3, 347612, Note_off_c, 1, 42, 100
3, 347616, Note_on_c, 1, 43, 91
3, 347708, Note_off_c, 1, 43, 100
3, 347712, Note_on_c, 1, 42, 93
3, 347804, Note_off_c, 1, 42, 100
3, 347808, Note_on_c, 1, 43, 94
3, 347900, Note_off_c, 1, 43, 100
3, 347904, Note_on_c, 1, 42, 95
3, 347996, Note_off_c, 1, 42, 100
3, 348000, Note_on_c, 1, 43, 97
3, 348092, Note_off_c, 1, 43, 100
3, 348096, Note_on_c, 1, 42, 98
3, 348188, Note_off_c, 1, 42, 100
3, 348192, Note_on_c, 1, 43, 99
3, 348284, Note_off_c, 1, 43, 100
3, 348288, Note_on_c, 1, 43, 100
3, 348380, Note_off_c, 1, 43, 100
3, 348384, Note_on_c, 1, 44, 102
3, 348476, Note_off_c, 1, 44, 100
3, 348480, Note_on_c, 1, 43, 103
3, 348572, Note_off_c, 1, 43, 100
3, 348576, Note_on_c, 1, 44, 104
3, 348668, Note_off_c, 1, 44, 100
3, 348672, Note_on_c, 1, 44, 106
3, 348764, Note_off_c, 1, 44, 100
3, 348768, Note_on_c, 1, 45, 107
3, 348860, Note_off_c, 1, 45, 100
3, 348864, Note_on_c, 1, 44, 108
3, 348956, Note_off_c, 1, 44, 100
3, 348960, Note_on_c, 1, 45, 109
3, 349052, Note_off_c, 1, 45, 100
3, 349056, Note_on_c, 1, 45, 110
3, 349148, Note_off_c, 1, 45, 100
3, 349152, Note_on_c, 1, 46, 110
3, 349244, Note_off_c, 1, 46, 100
3, 349248, Note_on_c, 1, 45, 110
3, 349340, Note_off_c, 1, 45, 100
3, 349344, Note_on_c, 1, 46, 110
3, 349436, Note_off_c, 1, 46, 100
3, 349440, Note_on_c, 1, 45, 110
3, 349532, Note_off_c, 1, 45, 100
3, 349536, Note_on_c, 1, 46, 110
3, 349628, Note_off_c, 1, 46, 100
3, 349632, Note_on_c, 1, 45, 110
3, 349724, Note_off_c, 1, 45, 100
3, 349728, Note_on_c, 1, 46, 110
3, 349820, Note_off_c, 1, 46, 100
3, 349824, Note_on_c, 1, 38, 110
3, 349916, Note_off_c, 1, 38, 100
3, 349920, Note_on_c, 1, 39, 110
3, 350012, Note_off_c, 1, 39, 100
3, 350016, Note_on_c, 1, 38, 110
3, 350108, Note_off_c, 1, 38, 100
3, 350112, Note_on_c, 1, 39, 110
3, 350204, Note_off_c, 1, 39, 100
3, 350208, Note_on_c, 1, 40, 110
3, 350300, Note_off_c, 1, 40, 100
3, 350304, Note_on_c, 1, 41, 110
3, 350396, Note_off_c, 1, 41, 100
3, 350400, Note_on_c, 1, 40, 110
3, 350492, Note_off_c, 1, 40, 100
3, 350496, Note_on_c, 1, 41, 110
3, 350588, Note_off_c, 1, 41, 100
3, 350592, Note_on_c, 1, 34, 110
3, 350972, Note_off_c, 1, 34, 100
3, 351360, Note_on_c, 1, 62, 110
3, 351360, Note_on_c, 1, 58, 110
3, 352124, Note_off_c, 1, 62, 100
3, 352124, Note_off_c, 1, 58, 100
3, 352128, Note_on_c, 1, 58, 110
3, 352128, Note_on_c, 1, 55, 110
3, 352508, Note_off_c, 1, 58, 100
3, 352508, Note_off_c, 1, 55, 100
3, 352512, Note_on_c, 1, 55, 110
3, 352512, Note_on_c, 1, 51, 110
3, 352892, Note_off_c, 1, 55, 100
3, 352892, Note_off_c, 1, 51, 100
3, 352896, Note_on_c, 1, 63, 110
3, 352896, Note_on_c, 1, 60, 110
3, 353468, Note_off_c, 1, 63, 100
3, 353468, Note_off_c, 1, 60, 100
3, 353472, Note_on_c, 1, 62, 110
3, 353472, Note_on_c, 1, 58, 110
3, 353660, Note_off_c, 1, 62, 100
3, 353660, Note_off_c, 1, 58, 100
3, 353664, Note_on_c, 1, 60, 110
3, 353664, Note_on_c, 1, 57, 110
3, 354044, Note_off_c, 1, 60, 100
3, 354044, Note_off_c, 1, 57, 100
3, 354048, Note_on_c, 1, 57, 110
3, 354048, Note_on_c, 1, 53, 110
3, 354428, Note_off_c, 1, 57, 100
3, 354428, Note_off_c, 1, 53, 100
3, 354432, Note_on_c, 1, 65, 110
3, 354432, Note_on_c, 1, 62, 110
3, 355196, Note_off_c, 1, 65, 100
3, 355196, Note_off_c, 1, 62, 100
3, 355200, Note_on_c, 1, 62, 110
3, 355200, Note_on_c, 1, 58, 110
3, 355580, Note_off_c, 1, 62, 100
3, 355580, Note_off_c, 1, 58, 100
3, 355584, Note_on_c, 1, 58, 110
3, 355584, Note_on_c, 1, 55, 110
3, 355964, Note_off_c, 1, 58, 100
3, 355964, Note_off_c, 1, 55, 100
3, 355968, Note_on_c, 1, 67, 110
3, 355968, Note_on_c, 1, 63, 110
3, 356540, Note_off_c, 1, 67, 100
3, 356540, Note_off_c, 1, 63, 100
3, 356544, Note_on_c, 1, 65, 110
3, 356544, Note_on_c, 1, 62, 110
3, 356732, Note_off_c, 1, 65, 100
3, 356732, Note_off_c, 1, 62, 100
3, 356736, Note_on_c, 1, 60, 110
3, 356736, Note_on_c, 1, 63, 110
3, 357116, Note_off_c, 1, 60, 100
3, 357116, Note_off_c, 1, 63, 100
3, 357120, Note_on_c, 1, 57, 110
3, 357120, Note_on_c, 1, 60, 110
3, 357500, Note_off_c, 1, 57, 100
3, 357500, Note_off_c, 1, 60, 100
3, 357504, Note_on_c, 1, 72, 110
3, 357504, Note_on_c, 1, 63, 110
3, 358076, Note_off_c, 1, 72, 100
3, 358076, Note_off_c, 1, 63, 100
3, 358080, Note_on_c, 1, 70, 110
3, 358080, Note_on_c, 1, 62, 110
3, 358268, Note_off_c, 1, 70, 100
3, 358268, Note_off_c, 1, 62, 100
3, 358272, Note_on_c, 1, 69, 110
3, 358272, Note_on_c, 1, 60, 110
3, 358844, Note_off_c, 1, 69, 100
3, 358844, Note_off_c, 1, 60, 100
3, 358848, Note_on_c, 1, 67, 110
3, 358848, Note_on_c, 1, 58, 110
3, 359036, Note_off_c, 1, 67, 100
3, 359036, Note_off_c, 1, 58, 100
3, 359040, Note_on_c, 1, 65, 110
3, 359040, Note_on_c, 1, 57, 110
3, 359420, Note_off_c, 1, 65, 100
3, 359420, Note_off_c, 1, 57, 100
3, 359424, Note_on_c, 1, 55, 105
3, 359424, Note_on_c, 1, 58, 105
3, 359804, Note_off_c, 1, 55, 100
3, 359804, Note_off_c, 1, 58, 100
3, 359808, Note_on_c, 1, 57, 99
3, 359808, Note_on_c, 1, 54, 99
3, 360188, Note_off_c, 1, 57, 100
3, 360188, Note_off_c, 1, 54, 100
3, 360192, Note_on_c, 1, 57, 93
3, 360192, Note_on_c, 1, 50, 93
3, 360572, Note_off_c, 1, 57, 100
3, 360572, Note_off_c, 1, 50, 100
3, 360576, Note_on_c, 1, 55, 87
3, 360576, Note_on_c, 1, 51, 87
3, 360956, Note_off_c, 1, 55, 100
3, 360956, Note_off_c, 1, 51, 100
3, 360960, Note_on_c, 1, 58, 81
3, 360960, Note_on_c, 1, 52, 81
3, 361340, Note_off_c, 1, 58, 100
3, 361340, Note_off_c, 1, 52, 100
3, 361344, Note_on_c, 1, 53, 80
3, 362108, Note_off_c, 1, 53, 100
3, 362112, Note_on_c, 1, 41, 80
3, 362876, Note_off_c, 1, 41, 100
3, 362880, Note_on_c, 1, 34, 80
3, 363644, Note_off_c, 1, 34, 100
3, 363648, Note_on_c, 1, 58, 110
3, 363648, Note_on_c, 1, 62, 110
3, 364220, Note_off_c, 1, 58, 100
3, 364220, Note_off_c, 1, 62, 100
3, 364224, Note_on_c, 1, 62, 110
3, 364224, Note_on_c, 1, 58, 110
3, 364412, Note_off_c, 1, 62, 100
3, 364412, Note_off_c, 1, 58, 100
3, 364416, Note_on_c, 1, 58, 110
3, 364416, Note_on_c, 1, 55, 110
3, 364604, Note_off_c, 1, 58, 100
3, 364604, Note_off_c, 1, 55, 100
3, 364800, Note_on_c, 1, 55, 110
3, 364800, Note_on_c, 1, 51, 110
3, 364988, Note_off_c, 1, 55, 100
3, 364988, Note_off_c, 1, 51, 100
3, 365184, Note_on_c, 1, 60, 110
3, 365184, Note_on_c, 1, 63, 110
3, 365756, Note_off_c, 1, 60, 100
3, 365756, Note_off_c, 1, 63, 100
3, 365760, Note_on_c, 1, 62, 110
3, 365760, Note_on_c, 1, 58, 110
3, 365948, Note_off_c, 1, 62, 100
3, 365948, Note_off_c, 1, 58, 100
3, 365952, Note_on_c, 1, 60, 110
3, 365952, Note_on_c, 1, 57, 110
3, 366140, Note_off_c, 1, 60, 100
3, 366140, Note_off_c, 1, 57, 100
3, 366336, Note_on_c, 1, 57, 110
3, 366336, Note_on_c, 1, 53, 110
3, 366524, Note_off_c, 1, 57, 100
3, 366524, Note_off_c, 1, 53, 100
3, 366720, Note_on_c, 1, 62, 110
3, 366720, Note_on_c, 1, 65, 110
3, 367292, Note_off_c, 1, 62, 100
3, 367292, Note_off_c, 1, 65, 100
3, 367296, Note_on_c, 1, 62, 110
3, 367296, Note_on_c, 1, 65, 110
3, 367484, Note_off_c, 1, 62, 100
3, 367484, Note_off_c, 1, 65, 100
3, 367488, Note_on_c, 1, 58, 110
3, 367488, Note_on_c, 1, 62, 110
3, 367676, Note_off_c, 1, 58, 100
3, 367676, Note_off_c, 1, 62, 100
3, 367872, Note_on_c, 1, 55, 110
3, 367872, Note_on_c, 1, 58, 110
3, 368060, Note_off_c, 1, 55, 100
3, 368060, Note_off_c, 1, 58, 100
3, 368256, Note_on_c, 1, 63, 110
3, 368256, Note_on_c, 1, 67, 110
3, 368828, Note_off_c, 1, 63, 100
3, 368828, Note_off_c, 1, 67, 100
3, 368832, Note_on_c, 1, 65, 110
3, 368832, Note_on_c, 1, 62, 110
3, 369020, Note_off_c, 1, 65, 100
3, 369020, Note_off_c, 1, 62, 100
3, 369024, Note_on_c, 1, 63, 110
3, 369024, Note_on_c, 1, 60, 110
3, 369212, Note_off_c, 1, 63, 100
3, 369212, Note_off_c, 1, 60, 100
3, 369408, Note_on_c, 1, 60, 110
3, 369408, Note_on_c, 1, 57, 110
3, 369596, Note_off_c, 1, 60, 100
3, 369596, Note_off_c, 1, 57, 100
3, 369792, Note_on_c, 1, 72, 110
3, 369792, Note_on_c, 1, 63, 110
3, 370364, Note_off_c, 1, 72, 100
3, 370364, Note_off_c, 1, 63, 100
3, 370368, Note_on_c, 1, 70, 110
3, 370368, Note_on_c, 1, 62, 110
3, 370556, Note_off_c, 1, 70, 100
3, 370556, Note_off_c, 1, 62, 100
3, 370560, Note_on_c, 1, 69, 110
3, 370560, Note_on_c, 1, 60, 110
3, 371132, Note_off_c, 1, 69, 100
3, 371132, Note_off_c, 1, 60, 100
3, 371136, Note_on_c, 1, 67, 110
3, 371136, Note_on_c, 1, 58, 110
3, 371324, Note_off_c, 1, 67, 100
3, 371324, Note_off_c, 1, 58, 100
3, 371328, Note_on_c, 1, 57, 110
3, 371328, Note_on_c, 1, 65, 110
3, 371516, Note_off_c, 1, 57, 100
3, 371516, Note_off_c, 1, 65, 100
3, 371712, Note_on_c, 1, 55, 110
3, 371712, Note_on_c, 1, 58, 110
3, 371900, Note_off_c, 1, 55, 100
3, 371900, Note_off_c, 1, 58, 100
3, 372096, Note_on_c, 1, 60, 80
3, 372096, Note_on_c, 1, 57, 80
3, 372096, Note_on_c, 1, 54, 80
3, 373628, Note_off_c, 1, 60, 100
3, 373628, Note_off_c, 1, 57, 100
3, 373628, Note_off_c, 1, 54, 100
3, 373632, Note_on_c, 1, 55, 86
3, 373632, Note_on_c, 1, 58, 86
3, 375164, Note_off_c, 1, 55, 100
3, 375164, Note_off_c, 1, 58, 100
3, 375168, Note_on_c, 1, 55, 93
3, 375168, Note_on_c, 1, 52, 93
3, 376700, Note_off_c, 1, 55, 100
3, 376700, Note_off_c, 1, 52, 100
3, 376704, Note_on_c, 1, 54, 100
3, 376704, Note_on_c, 1, 51, 100
3, 377660, Note_off_c, 1, 54, 100
3, 377660, Note_off_c, 1, 51, 100
3, 377664, Note_on_c, 1, 60, 100
3, 377664, Note_on_c, 1, 53, 100
3, 377664, Note_on_c, 1, 51, 100
3, 377852, Note_off_c, 1, 60, 100
3, 377852, Note_off_c, 1, 53, 100
3, 377852, Note_off_c, 1, 51, 100
3, 377856, Note_on_c, 1, 60, 100
3, 377856, Note_on_c, 1, 53, 100
3, 377856, Note_on_c, 1, 51, 100
3, 378044, Note_off_c, 1, 60, 100
3, 378044, Note_off_c, 1, 53, 100
3, 378044, Note_off_c, 1, 51, 100
3, 378048, Note_on_c, 1, 60, 100
3, 378048, Note_on_c, 1, 53, 100
3, 378048, Note_on_c, 1, 51, 100
3, 378236, Note_off_c, 1, 60, 100
3, 378236, Note_off_c, 1, 53, 100
3, 378236, Note_off_c, 1, 51, 100
3, 378240, Note_on_c, 1, 58, 110
3, 378240, Note_on_c, 1, 53, 110
3, 378240, Note_on_c, 1, 50, 110
3, 378620, Note_off_c, 1, 58, 100
3, 378620, Note_off_c, 1, 53, 100
3, 378620, Note_off_c, 1, 50, 100
3, 378816, Note_on_c, 1, 53, 110
3, 378816, Note_on_c, 1, 45, 110
3, 379004, Note_off_c, 1, 53, 100
3, 379004, Note_off_c, 1, 45, 100
3, 379008, Note_on_c, 1, 53, 110
3, 379008, Note_on_c, 1, 46, 110
3, 379196, Note_off_c, 1, 53, 100
3, 379196, Note_off_c, 1, 46, 100
3, 379200, Note_on_c, 1, 53, 110
3, 379200, Note_on_c, 1, 51, 110
3, 379388, Note_off_c, 1, 53, 100
3, 379388, Note_off_c, 1, 51, 100
3, 379392, Note_on_c, 1, 53, 110
3, 379392, Note_on_c, 1, 50, 110
3, 379580, Note_off_c, 1, 53, 100
3, 379580, Note_off_c, 1, 50, 100
3, 379584, Note_on_c, 1, 53, 110
3, 379584, Note_on_c, 1, 45, 110
3, 379772, Note_off_c, 1, 53, 100
3, 379772, Note_off_c, 1, 45, 100
3, 379776, Note_on_c, 1, 53, 110
3, 379776, Note_on_c, 1, 46, 110
3, 379964, Note_off_c, 1, 53, 100
3, 379964, Note_off_c, 1, 46, 100
3, 379968, Note_on_c, 1, 53, 110
3, 379968, Note_on_c, 1, 51, 110
3, 380156, Note_off_c, 1, 53, 100
3, 380156, Note_off_c, 1, 51, 100
3, 380160, Note_on_c, 1, 53, 110
3, 380160, Note_on_c, 1, 50, 110
3, 380348, Note_off_c, 1, 53, 100
3, 380348, Note_off_c, 1, 50, 100
3, 380352, Note_on_c, 1, 53, 110
3, 380352, Note_on_c, 1, 45, 110
3, 380540, Note_off_c, 1, 53, 100
3, 380540, Note_off_c, 1, 45, 100
3, 380544, Note_on_c, 1, 53, 110
3, 380544, Note_on_c, 1, 46, 110
3, 380732, Note_off_c, 1, 53, 100
3, 380732, Note_off_c, 1, 46, 100
3, 380736, Note_on_c, 1, 53, 110
3, 380736, Note_on_c, 1, 51, 110
3, 380924, Note_off_c, 1, 53, 100
3, 380924, Note_off_c, 1, 51, 100
3, 380928, Note_on_c, 1, 53, 110
3, 380928, Note_on_c, 1, 50, 110
3, 381116, Note_off_c, 1, 53, 100
3, 381116, Note_off_c, 1, 50, 100
3, 381120, Note_on_c, 1, 53, 110
3, 381120, Note_on_c, 1, 45, 110
3, 381308, Note_off_c, 1, 53, 100
3, 381308, Note_off_c, 1, 45, 100
3, 381312, Note_on_c, 1, 46, 110
3, 382076, Note_off_c, 1, 46, 100
3, 382080, Note_on_c, 1, 43, 110
3, 382844, Note_off_c, 1, 43, 100
3, 382848, Note_on_c, 1, 39, 110
3, 383612, Note_off_c, 1, 39, 100
3, 383616, Note_on_c, 1, 41, 110
3, 384380, Note_off_c, 1, 41, 100
3, 384384, Note_on_c, 1, 34, 110
3, 384572, Note_off_c, 1, 34, 100
3, 384576, Note_on_c, 1, 51, 80
3, 384764, Note_off_c, 1, 51, 100
3, 384768, Note_on_c, 1, 50, 80
3, 384956, Note_off_c, 1, 50, 100
3, 384960, Note_on_c, 1, 45, 80
3, 385148, Note_off_c, 1, 45, 100
3, 385152, Note_on_c, 1, 46, 80
3, 385340, Note_off_c, 1, 46, 100
3, 385344, Note_on_c, 1, 51, 80
3, 385532, Note_off_c, 1, 51, 100
3, 385536, Note_on_c, 1, 50, 80
3, 385724, Note_off_c, 1, 50, 100
3, 385728, Note_on_c, 1, 45, 80
3, 385916, Note_off_c, 1, 45, 100
3, 385920, Note_on_c, 1, 46, 80
3, 386108, Note_off_c, 1, 46, 100
3, 386112, Note_on_c, 1, 51, 82
3, 386300, Note_off_c, 1, 51, 100
3, 386304, Note_on_c, 1, 50, 85
3, 386492, Note_off_c, 1, 50, 100
3, 386496, Note_on_c, 1, 45, 87
3, 386684, Note_off_c, 1, 45, 100
3, 386688, Note_on_c, 1, 46, 90
3, 386876, Note_off_c, 1, 46, 100
3, 386880, Note_on_c, 1, 48, 93
3, 387068, Note_off_c, 1, 48, 100
3, 387072, Note_on_c, 1, 46, 95
3, 387260, Note_off_c, 1, 46, 100
3, 387264, Note_on_c, 1, 45, 98
3, 387452, Note_off_c, 1, 45, 100
3, 387456, Note_on_c, 1, 43, 100
3, 387644, Note_off_c, 1, 43, 100
3, 387648, Note_on_c, 1, 41, 103
3, 387836, Note_off_c, 1, 41, 100
3, 387840, Note_on_c, 1, 39, 106
3, 388028, Note_off_c, 1, 39, 100
3, 388032, Note_on_c, 1, 38, 108
3, 388220, Note_off_c, 1, 38, 100
3, 388224, Note_on_c, 1, 36, 110
3, 389756, Note_off_c, 1, 36, 100
3, 389760, Note_on_c, 1, 41, 110
3, 389760, Note_on_c, 1, 29, 110
3, 390524, Note_off_c, 1, 41, 100
3, 390524, Note_off_c, 1, 29, 100
3, 390528, Control_c, 1, 64, 127
3, 390528, Note_on_c, 1, 34, 110
3, 390620, Note_off_c, 1, 34, 100
3, 390624, Note_on_c, 1, 46, 80
3, 390716, Note_off_c, 1, 46, 100
3, 390720, Note_on_c, 1, 34, 80
3, 390812, Note_off_c, 1, 34, 100
3, 390816, Note_on_c, 1, 46, 80
3, 390904, Control_c, 1, 64, 0
3, 390908, Note_off_c, 1, 46, 100
3, 390912, Control_c, 1, 64, 127
3, 390912, Note_on_c, 1, 34, 80
3, 391004, Note_off_c, 1, 34, 100
3, 391008, Note_on_c, 1, 46, 80
3, 391100, Note_off_c, 1, 46, 100
3, 391104, Note_on_c, 1, 34, 80
3, 391196, Note_off_c, 1, 34, 100
3, 391200, Note_on_c, 1, 46, 80
3, 391288, Control_c, 1, 64, 0
3, 391292, Note_off_c, 1, 46, 100
3, 391296, Control_c, 1, 64, 127
3, 391296, Note_on_c, 1, 34, 80
3, 391388, Note_off_c, 1, 34, 100
3, 391392, Note_on_c, 1, 46, 80
3, 391484, Note_off_c, 1, 46, 100
3, 391488, Note_on_c, 1, 34, 80
3, 391580, Note_off_c, 1, 34, 100
3, 391584, Note_on_c, 1, 46, 80
3, 391672, Control_c, 1, 64, 0
3, 391676, Note_off_c, 1, 46, 100
3, 391680, Control_c, 1, 64, 127
3, 391680, Note_on_c, 1, 34, 80
3, 391772, Note_off_c, 1, 34, 100
3, 391776, Note_on_c, 1, 46, 80
3, 391868, Note_off_c, 1, 46, 100
3, 391872, Note_on_c, 1, 34, 80
3, 391964, Note_off_c, 1, 34, 100
3, 391968, Note_on_c, 1, 46, 80
3, 392056, Control_c, 1, 64, 0
3, 392060, Note_off_c, 1, 46, 100
3, 392064, Control_c, 1, 64, 127
3, 392064, Note_on_c, 1, 34, 80
3, 392156, Note_off_c, 1, 34, 100
3, 392160, Note_on_c, 1, 46, 80
3, 392252, Note_off_c, 1, 46, 100
3, 392256, Note_on_c, 1, 34, 80
3, 392348, Note_off_c, 1, 34, 100
3, 392352, Note_on_c, 1, 46, 80
3, 392440, Control_c, 1, 64, 0
3, 392444, Note_off_c, 1, 46, 100
3, 392448, Control_c, 1, 64, 127
3, 392448, Note_on_c, 1, 34, 80
3, 392540, Note_off_c, 1, 34, 100
3, 392544, Note_on_c, 1, 46, 80
3, 392636, Note_off_c, 1, 46, 100
3, 392640, Note_on_c, 1, 34, 80
3, 392732, Note_off_c, 1, 34, 100
3, 392736, Note_on_c, 1, 46, 80
3, 392824, Control_c, 1, 64, 0
3, 392828, Note_off_c, 1, 46, 100
3, 392832, Control_c, 1, 64, 127
3, 392832, Note_on_c, 1, 34, 80
3, 392924, Note_off_c, 1, 34, 100
3, 392928, Note_on_c, 1, 46, 80
3, 393020, Note_off_c, 1, 46, 100
3, 393024, Note_on_c, 1, 34, 80
3, 393116, Note_off_c, 1, 34, 100
3, 393120, Note_on_c, 1, 46, 80
3, 393208, Control_c, 1, 64, 0
3, 393212, Note_off_c, 1, 46, 100
3, 393216, Control_c, 1, 64, 127
3, 393216, Note_on_c, 1, 34, 80
3, 393308, Note_off_c, 1, 34, 100
3, 393312, Note_on_c, 1, 46, 80
3, 393404, Note_off_c, 1, 46, 100
3, 393408, Note_on_c, 1, 34, 80
3, 393500, Note_off_c, 1, 34, 100
3, 393504, Note_on_c, 1, 46, 80
3, 393592, Control_c, 1, 64, 0
3, 393596, Note_off_c, 1, 46, 100
3, 393600, Control_c, 1, 64, 127
3, 393600, Note_on_c, 1, 34, 80
3, 393692, Note_off_c, 1, 34, 100
3, 393696, Note_on_c, 1, 46, 80
3, 393788, Note_off_c, 1, 46, 100
3, 393792, Note_on_c, 1, 34, 80
3, 393884, Note_off_c, 1, 34, 100
3, 393888, Note_on_c, 1, 46, 80
3, 393976, Control_c, 1, 64, 0
3, 393980, Note_off_c, 1, 46, 100
3, 393984, Control_c, 1, 64, 127
3, 393984, Note_on_c, 1, 34, 80
3, 394076, Note_off_c, 1, 34, 100
3, 394080, Note_on_c, 1, 46, 80
3, 394172, Note_off_c, 1, 46, 100
3, 394176, Note_on_c, 1, 34, 80
3, 394268, Note_off_c, 1, 34, 100
3, 394272, Note_on_c, 1, 46, 80
3, 394360, Control_c, 1, 64, 0
3, 394364, Note_off_c, 1, 46, 100
3, 394368, Control_c, 1, 64, 127
3, 394368, Note_on_c, 1, 34, 80
3, 394460, Note_off_c, 1, 34, 100
3, 394464, Note_on_c, 1, 46, 80
3, 394556, Note_off_c, 1, 46, 100
3, 394560, Note_on_c, 1, 34, 80
3, 394652, Note_off_c, 1, 34, 100
3, 394656, Note_on_c, 1, 46, 80
3, 394744, Control_c, 1, 64, 0
3, 394748, Note_off_c, 1, 46, 100
3, 394752, Control_c, 1, 64, 127
3, 394752, Note_on_c, 1, 34, 80
3, 394844, Note_off_c, 1, 34, 100
3, 394848, Note_on_c, 1, 46, 80
3, 394940, Note_off_c, 1, 46, 100
3, 394944, Note_on_c, 1, 34, 80
3, 395036, Note_off_c, 1, 34, 100
3, 395040, Note_on_c, 1, 46, 80
3, 395128, Control_c, 1, 64, 0
3, 395132, Note_off_c, 1, 46, 100
3, 395136, Control_c, 1, 64, 127
3, 395136, Note_on_c, 1, 34, 80
3, 395228, Note_off_c, 1, 34, 100
3, 395232, Note_on_c, 1, 46, 80
3, 395324, Note_off_c, 1, 46, 100
3, 395328, Note_on_c, 1, 34, 80
3, 395420, Note_off_c, 1, 34, 100
3, 395424, Note_on_c, 1, 46, 80
3, 395512, Control_c, 1, 64, 0
3, 395516, Note_off_c, 1, 46, 100
3, 395520, Control_c, 1, 64, 127
3, 395520, Note_on_c, 1, 34, 80
3, 395612, Note_off_c, 1, 34, 100
3, 395616, Note_on_c, 1, 46, 80
3, 395708, Note_off_c, 1, 46, 100
3, 395712, Note_on_c, 1, 34, 80
3, 395804, Note_off_c, 1, 34, 100
3, 395808, Note_on_c, 1, 46, 80
3, 395896, Control_c, 1, 64, 0
3, 395900, Note_off_c, 1, 46, 100
3, 395904, Control_c, 1, 64, 127
3, 395904, Note_on_c, 1, 34, 80
3, 395996, Note_off_c, 1, 34, 100
3, 396000, Note_on_c, 1, 46, 80
3, 396092, Note_off_c, 1, 46, 100
3, 396096, Note_on_c, 1, 34, 80
3, 396188, Note_off_c, 1, 34, 100
3, 396192, Note_on_c, 1, 46, 80
3, 396280, Control_c, 1, 64, 0
3, 396284, Note_off_c, 1, 46, 100
3, 396288, Control_c, 1, 64, 127
3, 396288, Note_on_c, 1, 34, 79
3, 396380, Note_off_c, 1, 34, 100
3, 396384, Note_on_c, 1, 46, 79
3, 396476, Note_off_c, 1, 46, 100
3, 396480, Note_on_c, 1, 34, 79
3, 396572, Note_off_c, 1, 34, 100
3, 396576, Note_on_c, 1, 46, 78
3, 396664, Control_c, 1, 64, 0
3, 396668, Note_off_c, 1, 46, 100
3, 396672, Control_c, 1, 64, 127
3, 396672, Note_on_c, 1, 34, 78
3, 396764, Note_off_c, 1, 34, 100
3, 396768, Note_on_c, 1, 46, 78
3, 396860, Note_off_c, 1, 46, 100
3, 396864, Note_on_c, 1, 34, 77
3, 396956, Note_off_c, 1, 34, 100
3, 396960, Note_on_c, 1, 46, 77
3, 397048, Control_c, 1, 64, 0
3, 397052, Note_off_c, 1, 46, 100
3, 397056, Control_c, 1, 64, 127
3, 397056, Note_on_c, 1, 34, 77
3, 397148, Note_off_c, 1, 34, 100
3, 397152, Note_on_c, 1, 46, 76
3, 397244, Note_off_c, 1, 46, 100
3, 397248, Note_on_c, 1, 34, 76
3, 397340, Note_off_c, 1, 34, 100
3, 397344, Note_on_c, 1, 46, 76
3, 397432, Control_c, 1, 64, 0
3, 397436, Note_off_c, 1, 46, 100
3, 397440, Control_c, 1, 64, 127
3, 397440, Note_on_c, 1, 34, 75
3, 397532, Note_off_c, 1, 34, 100
3, 397536, Note_on_c, 1, 46, 75
3, 397628, Note_off_c, 1, 46, 100
3, 397632, Note_on_c, 1, 34, 75
3, 397724, Note_off_c, 1, 34, 100
3, 397728, Note_on_c, 1, 46, 74
3, 397816, Control_c, 1, 64, 0
3, 397820, Note_off_c, 1, 46, 100
3, 397824, Control_c, 1, 64, 127
3, 397824, Note_on_c, 1, 34, 74
3, 397916, Note_off_c, 1, 34, 100
3, 397920, Note_on_c, 1, 46, 74
3, 398012, Note_off_c, 1, 46, 100
3, 398016, Note_on_c, 1, 34, 73
3, 398108, Note_off_c, 1, 34, 100
3, 398112, Note_on_c, 1, 46, 73
3, 398200, Control_c, 1, 64, 0
3, 398204, Note_off_c, 1, 46, 100
3, 398208, Control_c, 1, 64, 127
3, 398208, Note_on_c, 1, 34, 73
3, 398300, Note_off_c, 1, 34, 100
3, 398304, Note_on_c, 1, 46, 72
3, 398396, Note_off_c, 1, 46, 100
3, 398400, Note_on_c, 1, 34, 72
3, 398492, Note_off_c, 1, 34, 100
3, 398496, Note_on_c, 1, 46, 72
3, 398584, Control_c, 1, 64, 0
3, 398588, Note_off_c, 1, 46, 100
3, 398592, Control_c, 1, 64, 127
3, 398592, Note_on_c, 1, 34, 71
3, 398684, Note_off_c, 1, 34, 100
3, 398688, Note_on_c, 1, 46, 71
3, 398780, Note_off_c, 1, 46, 100
3, 398784, Note_on_c, 1, 34, 71
3, 398876, Note_off_c, 1, 34, 100
3, 398880, Note_on_c, 1, 46, 71
3, 398968, Control_c, 1, 64, 0
3, 398972, Note_off_c, 1, 46, 100
3, 398976, Control_c, 1, 64, 127
3, 398976, Note_on_c, 1, 34, 70
3, 399068, Note_off_c, 1, 34, 100
3, 399072, Note_on_c, 1, 46, 70
3, 399164, Note_off_c, 1, 46, 100
3, 399168, Note_on_c, 1, 34, 70
3, 399260, Note_off_c, 1, 34, 100
3, 399264, Note_on_c, 1, 46, 70
3, 399352, Control_c, 1, 64, 0
3, 399356, Note_off_c, 1, 46, 100
3, 399360, Control_c, 1, 64, 127
3, 399360, Note_on_c, 1, 34, 70
3, 399452, Note_off_c, 1, 34, 100
3, 399456, Note_on_c, 1, 46, 70
3, 399548, Note_off_c, 1, 46, 100
3, 399552, Note_on_c, 1, 34, 70
3, 399644, Note_off_c, 1, 34, 100
3, 399648, Note_on_c, 1, 46, 70
3, 399736, Control_c, 1, 64, 0
3, 399740, Note_off_c, 1, 46, 100
3, 399744, Note_on_c, 1, 34, 120
3, 399744, Note_on_c, 1, 46, 120
3, 400316, Note_off_c, 1, 34, 100
3, 400316, Note_off_c, 1, 46, 100
3, 400320, Note_on_c, 1, 36, 120
3, 400320, Note_on_c, 1, 48, 120
3, 400508, Note_off_c, 1, 36, 100
3, 400508, Note_off_c, 1, 48, 100
3, 400512, Note_on_c, 1, 38, 120
3, 400512, Note_on_c, 1, 50, 120
3, 401084, Note_off_c, 1, 38, 100
3, 401084, Note_off_c, 1, 50, 100
3, 401088, Note_on_c, 1, 39, 120
3, 401088, Note_on_c, 1, 51, 120
3, 401276, Note_off_c, 1, 39, 100
3, 401276, Note_off_c, 1, 51, 100
3, 401280, Note_on_c, 1, 41, 120
3, 401280, Note_on_c, 1, 53, 120
3, 401852, Note_off_c, 1, 41, 100
3, 401852, Note_off_c, 1, 53, 100
3, 401856, Note_on_c, 1, 43, 120
3, 401856, Note_on_c, 1, 55, 120
3, 402044, Note_off_c, 1, 43, 100
3, 402044, Note_off_c, 1, 55, 100
3, 402048, Note_on_c, 1, 45, 120
3, 402048, Note_on_c, 1, 57, 120
3, 402236, Note_off_c, 1, 45, 100
3, 402236, Note_off_c, 1, 57, 100
3, 402240, Note_on_c, 1, 46, 120
3, 402240, Note_on_c, 1, 58, 120
3, 402428, Note_off_c, 1, 46, 100
3, 402428, Note_off_c, 1, 58, 100
3, 402432, Note_on_c, 1, 48, 120
3, 402432, Note_on_c, 1, 60, 120
3, 402620, Note_off_c, 1, 48, 100
3, 402620, Note_off_c, 1, 60, 100
3, 402624, Note_on_c, 1, 50, 120
3, 402624, Note_on_c, 1, 62, 120
3, 402812, Note_off_c, 1, 50, 100
3, 402812, Note_off_c, 1, 62, 100
3, 402816, Note_on_c, 1, 51, 120
3, 402816, Note_on_c, 1, 63, 120
3, 403388, Note_off_c, 1, 51, 100
3, 403388, Note_off_c, 1, 63, 100
3, 403392, Note_on_c, 1, 50, 120
3, 403392, Note_on_c, 1, 62, 120
3, 403580, Note_off_c, 1, 50, 100
3, 403580, Note_off_c, 1, 62, 100
3, 403584, Note_on_c, 1, 48, 120
3, 403584, Note_on_c, 1, 60, 120
3, 404156, Note_off_c, 1, 48, 100
3, 404156, Note_off_c, 1, 60, 100
3, 404160, Note_on_c, 1, 46, 120
3, 404160, Note_on_c, 1, 58, 120
3, 404348, Note_off_c, 1, 46, 100
3, 404348, Note_off_c, 1, 58, 100
3, 404352, Note_on_c, 1, 45, 120
3, 404352, Note_on_c, 1, 57, 120
3, 404924, Note_off_c, 1, 45, 100
3, 404924, Note_off_c, 1, 57, 100
3, 404928, Note_on_c, 1, 43, 120
3, 404928, Note_on_c, 1, 55, 120
3, 405116, Note_off_c, 1, 43, 100
3, 405116, Note_off_c, 1, 55, 100
3, 405120, Note_on_c, 1, 41, 120
3, 405120, Note_on_c, 1, 53, 120
3, 405308, Note_off_c, 1, 41, 100
3, 405308, Note_off_c, 1, 53, 100
3, 405312, Note_on_c, 1, 39, 120
3, 405312, Note_on_c, 1, 51, 120
3, 405500, Note_off_c, 1, 39, 100
3, 405500, Note_off_c, 1, 51, 100
3, 405504, Note_on_c, 1, 38, 120
3, 405504, Note_on_c, 1, 50, 120
3, 405692, Note_off_c, 1, 38, 100
3, 405692, Note_off_c, 1, 50, 100
3, 405696, Note_on_c, 1, 36, 120
3, 405696, Note_on_c, 1, 48, 120
3, 405884, Note_off_c, 1, 36, 100
3, 405884, Note_off_c, 1, 48, 100
3, 405888, Note_on_c, 1, 34, 120
3, 405888, Note_on_c, 1, 46, 120
3, 406268, Note_off_c, 1, 34, 100
3, 406268, Note_off_c, 1, 46, 100
3, 406272, Note_on_c, 1, 53, 80
3, 406272, Note_on_c, 1, 63, 80
3, 406272, Note_on_c, 1, 60, 80
3, 406652, Note_off_c, 1, 53, 100
3, 406652, Note_off_c, 1, 63, 100
3, 406652, Note_off_c, 1, 60, 100
3, 406656, Note_on_c, 1, 58, 80
3, 406656, Note_on_c, 1, 62, 80
3, 407036, Note_off_c, 1, 58, 100
3, 407036, Note_off_c, 1, 62, 100
3, 407040, Note_on_c, 1, 65, 80
3, 407040, Note_on_c, 1, 72, 80
3, 407040, Note_on_c, 1, 75, 80
3, 407420, Note_off_c, 1, 65, 100
3, 407420, Note_off_c, 1, 72, 100
3, 407420, Note_off_c, 1, 75, 100
3, 407424, Note_on_c, 1, 74, 80
3, 407424, Note_on_c, 1, 70, 80
3, 407804, Note_off_c, 1, 74, 100
3, 407804, Note_off_c, 1, 70, 100
3, 408192, Note_on_c, 1, 41, 120
3, 408192, Note_on_c, 1, 53, 120
3, 408572, Note_off_c, 1, 41, 100
3, 408572, Note_off_c, 1, 53, 100
3, 408960, Note_on_c, 1, 46, 120
3, 408960, Note_on_c, 1, 34, 120
3, 409724, Note_off_c, 1, 46, 100
3, 409724, Note_off_c, 1, 34, 100
3, 409724, End_track
0, 0, End_of_file
