0, 0, Header, 1, 3, 384
1, 0, Start_track
1, 0, Title_t, "L.v.Beethoven 1mov - Piano Sonata No.12 in Ab Major Op.26\000"
1, 0, Copyright_t, "Copyright(C) 1995-2009, Suzuki Software\000"
1, 0, Sequencer_specific, 9, 67, 123, 0, 88, 70, 48, 50, 0, 1
1, 0, Text_t, "XFhd:2000/05/27:JP:Classical::::L.v.Beethoven:::Kaoru Suzuki\000"
1, 0, Text_t, "XFln:JP:\203s\203A\203m\203\\\203i\203^\221æ12\224Ô\225Ï\203C\222·\222²\215ì\225i26\201`\221æ1\212y\217Í:L.v.\203x\201[\203g\201[\203\224\203F\203\223:::\227é\202¿\202á\202ñ:\227é\202¿\202á\202ñ\000"
1, 0, Time_signature, 1, 3, 96, 8
1, 0, Sequencer_specific, 3, 0, 0, 65
1, 0, Sequencer_specific, 5, 0, 0, 119, 14, 0
1, 0, Tempo, 1333333
1, 192, Time_signature, 3, 3, 96, 8
1, 3456, Tempo, 1411764
1, 3648, Tempo, 1333333
1, 4032, Tempo, 1428571
1, 4800, Tempo, 1333333
1, 7968, Tempo, 1445783
1, 8256, Tempo, 1333333
1, 14880, Tempo, 1445783
1, 15264, Tempo, 1333333
1, 34368, Tempo, 1395348
1, 34560, Tempo, 1445783
1, 34656, Tempo, 1500000
1, 34848, Tempo, 1333333
1, 39168, Tempo, 1200000
1, 43488, Tempo, 1263157
1, 43680, Tempo, 1333333
1, 43968, Tempo, 1200000
1, 53856, Tempo, 1263157
1, 54048, Tempo, 1333333
1, 54336, Tempo, 1200000
1, 57984, Tempo, 1263157
1, 58176, Tempo, 1333333
1, 58944, Tempo, 1200000
1, 62592, Tempo, 1263157
1, 62976, Tempo, 1333333
1, 63552, Tempo, 1200000
1, 66816, Tempo, 1263157
1, 67008, Tempo, 1333333
1, 68160, Tempo, 1200000
1, 69696, Tempo, 1263157
1, 69888, Tempo, 1333333
1, 70464, Tempo, 1200000
1, 73152, Tempo, 1263157
1, 73344, Tempo, 1333333
1, 73920, Tempo, 1200000
1, 77568, Tempo, 1263157
1, 77760, Tempo, 1333333
1, 77952, Tempo, 1500000
1, 78432, Tempo, 800000
1, 82176, Tempo, 827586
1, 82368, Tempo, 857142
1, 82560, Tempo, 923076
1, 83136, Tempo, 800000
1, 86208, Tempo, 827586
1, 86400, Tempo, 857142
1, 86592, Tempo, 888888
1, 87744, Tempo, 800000
1, 96000, Tempo, 857142
1, 96384, Tempo, 800000
1, 96576, Tempo, 827586
1, 96768, Tempo, 857142
1, 96960, Tempo, 923076
1, 97920, Tempo, 1000000
1, 112512, Tempo, 1043478
1, 112704, Tempo, 1090909
1, 112896, Tempo, 1142857
1, 113184, Tempo, 1000000
1, 116352, Tempo, 1043478
1, 116736, Tempo, 1090909
1, 116928, Tempo, 1121495
1, 117120, Tempo, 1153846
1, 117696, Tempo, 1176470
1, 122304, Tempo, 1200000
1, 122880, Tempo, 1250000
1, 124032, Tempo, 1276595
1, 124608, Tempo, 1333333
1, 124992, Tempo, 2000000
1, 124992, End_track
2, 0, Start_track
2, 0, Title_t, "Right"
2, 0, Control_c, 0, 0, 0
2, 0, Program_c, 0, 0
2, 0, Control_c, 0, 7, 100
2, 0, Control_c, 0, 10, 74
2, 0, Control_c, 0, 91, 127
2, 0, Key_signature, -4, "major"
2, 0, Note_on_c, 0, 63, 80
2, 188, Note_off_c, 0, 63, 100
2, 192, Note_on_c, 0, 60, 80
2, 192, Note_on_c, 0, 63, 80
2, 384, Note_on_c, 0, 68, 80
2, 572, Note_off_c, 0, 68, 100
2, 576, Note_on_c, 0, 68, 80
2, 764, Note_off_c, 0, 60, 100
2, 764, Note_off_c, 0, 63, 100
2, 764, Note_off_c, 0, 68, 100
2, 768, Note_on_c, 0, 63, 80
2, 768, Note_on_c, 0, 61, 80
2, 768, Note_on_c, 0, 68, 80
2, 860, Note_off_c, 0, 68, 100
2, 864, Note_on_c, 0, 67, 80
2, 956, Note_off_c, 0, 67, 100
2, 960, Note_on_c, 0, 67, 80
2, 1100, Note_off_c, 0, 67, 100
2, 1104, Note_on_c, 0, 65, 80
2, 1148, Note_off_c, 0, 65, 100
2, 1152, Note_on_c, 0, 67, 80
2, 1292, Note_off_c, 0, 67, 100
2, 1296, Note_on_c, 0, 63, 80
2, 1340, Note_off_c, 0, 63, 100
2, 1340, Note_off_c, 0, 61, 100
2, 1340, Note_off_c, 0, 63, 100
2, 1344, Note_on_c, 0, 68, 80
2, 1536, Note_on_c, 0, 63, 80
2, 1724, Note_off_c, 0, 68, 100
2, 1724, Note_off_c, 0, 63, 100
2, 1728, Note_on_c, 0, 58, 90
2, 1728, Note_on_c, 0, 63, 90
2, 1728, Note_on_c, 0, 70, 90
2, 1916, Note_off_c, 0, 58, 100
2, 1916, Note_off_c, 0, 63, 100
2, 1916, Note_off_c, 0, 70, 100
2, 1920, Note_on_c, 0, 68, 99
2, 1920, Note_on_c, 0, 63, 99
2, 1920, Note_on_c, 0, 60, 99
2, 1920, Note_on_c, 0, 73, 99
2, 2060, Note_off_c, 0, 73, 100
2, 2064, Note_on_c, 0, 72, 80
2, 2108, Note_off_c, 0, 68, 100
2, 2108, Note_off_c, 0, 63, 100
2, 2108, Note_off_c, 0, 60, 100
2, 2108, Note_off_c, 0, 72, 100
2, 2112, Note_on_c, 0, 70, 80
2, 2112, Note_on_c, 0, 67, 80
2, 2112, Note_on_c, 0, 58, 80
2, 2112, Note_on_c, 0, 63, 80
2, 2300, Note_off_c, 0, 70, 100
2, 2300, Note_off_c, 0, 67, 100
2, 2300, Note_off_c, 0, 58, 100
2, 2300, Note_off_c, 0, 63, 100
2, 2304, Note_on_c, 0, 72, 80
2, 2320, Note_off_c, 0, 72, 100
2, 2322, Note_on_c, 0, 70, 80
2, 2348, Note_off_c, 0, 70, 100
2, 2352, Note_on_c, 0, 69, 80
2, 2396, Note_off_c, 0, 69, 100
2, 2400, Note_on_c, 0, 70, 80
2, 2444, Note_off_c, 0, 70, 100
2, 2448, Note_on_c, 0, 72, 80
2, 2492, Note_off_c, 0, 72, 100
2, 2496, Note_on_c, 0, 73, 80
2, 2496, Note_on_c, 0, 68, 80
2, 2876, Note_off_c, 0, 73, 100
2, 2876, Note_off_c, 0, 68, 100
2, 2880, Note_on_c, 0, 72, 80
2, 2880, Note_on_c, 0, 68, 80
2, 3068, Note_off_c, 0, 72, 100
2, 3068, Note_off_c, 0, 68, 100
2, 3072, Note_on_c, 0, 70, 80
2, 3072, Note_on_c, 0, 68, 80
2, 3072, Note_on_c, 0, 77, 80
2, 3260, Note_off_c, 0, 70, 100
2, 3260, Note_off_c, 0, 68, 100
2, 3260, Note_off_c, 0, 77, 100
2, 3264, Note_on_c, 0, 70, 80
2, 3264, Note_on_c, 0, 67, 80
2, 3452, Note_off_c, 0, 70, 100
2, 3452, Note_off_c, 0, 67, 100
2, 3456, Note_on_c, 0, 75, 80
2, 3456, Note_on_c, 0, 68, 80
2, 3644, Note_off_c, 0, 75, 100
2, 3644, Note_off_c, 0, 68, 100
2, 3648, Note_on_c, 0, 68, 80
2, 3648, Note_on_c, 0, 65, 80
2, 3836, Note_off_c, 0, 68, 100
2, 3836, Note_off_c, 0, 65, 100
2, 3840, Note_on_c, 0, 73, 80
2, 3840, Note_on_c, 0, 70, 80
2, 3840, Note_on_c, 0, 64, 80
2, 4028, Note_off_c, 0, 73, 100
2, 4028, Note_off_c, 0, 70, 100
2, 4028, Note_off_c, 0, 64, 100
2, 4032, Note_on_c, 0, 72, 80
2, 4032, Note_on_c, 0, 68, 80
2, 4032, Note_on_c, 0, 63, 80
2, 4220, Note_off_c, 0, 72, 100
2, 4220, Note_off_c, 0, 68, 100
2, 4220, Note_off_c, 0, 63, 100
2, 4224, Note_on_c, 0, 63, 80
2, 4224, Note_on_c, 0, 69, 80
2, 4224, Note_on_c, 0, 66, 80
2, 4412, Note_off_c, 0, 69, 100
2, 4412, Note_off_c, 0, 66, 100
2, 4416, Note_on_c, 0, 70, 80
2, 4416, Note_on_c, 0, 67, 80
2, 4508, Note_off_c, 0, 70, 100
2, 4508, Note_off_c, 0, 67, 100
2, 4604, Note_off_c, 0, 63, 100
2, 4608, Note_on_c, 0, 63, 80
2, 4748, Note_off_c, 0, 63, 100
2, 4752, Note_on_c, 0, 63, 80
2, 4796, Note_off_c, 0, 63, 100
2, 4800, Note_on_c, 0, 63, 80
2, 4800, Note_on_c, 0, 60, 80
2, 4896, Note_on_c, 0, 68, 80
2, 4988, Note_off_c, 0, 68, 100
2, 4992, Note_on_c, 0, 68, 80
2, 5084, Note_off_c, 0, 68, 100
2, 5088, Note_on_c, 0, 68, 80
2, 5180, Note_off_c, 0, 68, 100
2, 5184, Note_on_c, 0, 68, 80
2, 5276, Note_off_c, 0, 68, 100
2, 5280, Note_on_c, 0, 68, 80
2, 5372, Note_off_c, 0, 63, 100
2, 5372, Note_off_c, 0, 60, 100
2, 5372, Note_off_c, 0, 68, 100
2, 5376, Note_on_c, 0, 63, 80
2, 5376, Note_on_c, 0, 61, 80
2, 5376, Note_on_c, 0, 68, 80
2, 5468, Note_off_c, 0, 68, 100
2, 5472, Note_on_c, 0, 67, 80
2, 5564, Note_off_c, 0, 67, 100
2, 5568, Note_on_c, 0, 67, 80
2, 5708, Note_off_c, 0, 67, 100
2, 5712, Note_on_c, 0, 65, 80
2, 5756, Note_off_c, 0, 65, 100
2, 5760, Note_on_c, 0, 67, 80
2, 5900, Note_off_c, 0, 67, 100
2, 5904, Note_on_c, 0, 63, 80
2, 5948, Note_off_c, 0, 63, 100
2, 5948, Note_off_c, 0, 61, 100
2, 5948, Note_off_c, 0, 63, 100
2, 5952, Note_on_c, 0, 68, 80
2, 6144, Note_on_c, 0, 63, 80
2, 6332, Note_off_c, 0, 68, 100
2, 6332, Note_off_c, 0, 63, 100
2, 6336, Note_on_c, 0, 58, 80
2, 6336, Note_on_c, 0, 63, 80
2, 6336, Note_on_c, 0, 70, 80
2, 6524, Note_off_c, 0, 58, 100
2, 6524, Note_off_c, 0, 63, 100
2, 6524, Note_off_c, 0, 70, 100
2, 6528, Note_on_c, 0, 68, 80
2, 6528, Note_on_c, 0, 63, 80
2, 6528, Note_on_c, 0, 60, 80
2, 6528, Note_on_c, 0, 73, 80
2, 6668, Note_off_c, 0, 73, 100
2, 6672, Note_on_c, 0, 72, 80
2, 6716, Note_off_c, 0, 68, 100
2, 6716, Note_off_c, 0, 63, 100
2, 6716, Note_off_c, 0, 60, 100
2, 6716, Note_off_c, 0, 72, 100
2, 6720, Note_on_c, 0, 70, 80
2, 6720, Note_on_c, 0, 67, 80
2, 6720, Note_on_c, 0, 58, 80
2, 6720, Note_on_c, 0, 63, 80
2, 6908, Note_off_c, 0, 70, 100
2, 6908, Note_off_c, 0, 67, 100
2, 6908, Note_off_c, 0, 58, 100
2, 6908, Note_off_c, 0, 63, 100
2, 6912, Note_on_c, 0, 72, 80
2, 6928, Note_off_c, 0, 72, 100
2, 6930, Note_on_c, 0, 70, 80
2, 6956, Note_off_c, 0, 70, 100
2, 6960, Note_on_c, 0, 69, 80
2, 7004, Note_off_c, 0, 69, 100
2, 7008, Note_on_c, 0, 70, 80
2, 7052, Note_off_c, 0, 70, 100
2, 7056, Note_on_c, 0, 72, 80
2, 7100, Note_off_c, 0, 72, 100
2, 7104, Note_on_c, 0, 73, 80
2, 7104, Note_on_c, 0, 68, 80
2, 7484, Note_off_c, 0, 73, 100
2, 7484, Note_off_c, 0, 68, 100
2, 7488, Note_on_c, 0, 72, 80
2, 7488, Note_on_c, 0, 68, 80
2, 7676, Note_off_c, 0, 72, 100
2, 7676, Note_off_c, 0, 68, 100
2, 7680, Note_on_c, 0, 70, 80
2, 7680, Note_on_c, 0, 68, 80
2, 7680, Note_on_c, 0, 77, 80
2, 7868, Note_off_c, 0, 70, 100
2, 7868, Note_off_c, 0, 68, 100
2, 7868, Note_off_c, 0, 77, 100
2, 7872, Note_on_c, 0, 70, 80
2, 7872, Note_on_c, 0, 67, 80
2, 8060, Note_off_c, 0, 70, 100
2, 8060, Note_off_c, 0, 67, 100
2, 8064, Note_on_c, 0, 75, 80
2, 8064, Note_on_c, 0, 68, 80
2, 8252, Note_off_c, 0, 75, 100
2, 8252, Note_off_c, 0, 68, 100
2, 8256, Note_on_c, 0, 70, 80
2, 8272, Note_off_c, 0, 70, 100
2, 8274, Note_on_c, 0, 68, 80
2, 8302, Note_off_c, 0, 68, 100
2, 8304, Note_on_c, 0, 67, 80
2, 8348, Note_off_c, 0, 67, 100
2, 8352, Note_on_c, 0, 68, 80
2, 8396, Note_off_c, 0, 68, 100
2, 8400, Note_on_c, 0, 70, 80
2, 8444, Note_off_c, 0, 70, 100
2, 8448, Note_on_c, 0, 72, 80
2, 8448, Note_on_c, 0, 68, 80
2, 8448, Note_on_c, 0, 63, 80
2, 8636, Note_off_c, 0, 72, 100
2, 8636, Note_off_c, 0, 68, 100
2, 8636, Note_off_c, 0, 63, 100
2, 8640, Note_on_c, 0, 70, 80
2, 8640, Note_on_c, 0, 67, 80
2, 8640, Note_on_c, 0, 61, 80
2, 8828, Note_off_c, 0, 70, 100
2, 8828, Note_off_c, 0, 67, 100
2, 8828, Note_off_c, 0, 61, 100
2, 8832, Note_on_c, 0, 68, 80
2, 8832, Note_on_c, 0, 60, 80
2, 9020, Note_off_c, 0, 68, 100
2, 9020, Note_off_c, 0, 60, 100
2, 9408, Note_on_c, 0, 72, 80
2, 9408, Note_on_c, 0, 69, 80
2, 9596, Note_off_c, 0, 72, 100
2, 9596, Note_off_c, 0, 69, 100
2, 9600, Note_on_c, 0, 70, 80
2, 9600, Note_on_c, 0, 67, 80
2, 9788, Note_off_c, 0, 70, 100
2, 9788, Note_off_c, 0, 67, 100
2, 9792, Note_on_c, 0, 72, 80
2, 9792, Note_on_c, 0, 69, 80
2, 9980, Note_off_c, 0, 72, 100
2, 9980, Note_off_c, 0, 69, 100
2, 9984, Note_on_c, 0, 73, 80
2, 9984, Note_on_c, 0, 70, 80
2, 10172, Note_off_c, 0, 73, 100
2, 10172, Note_off_c, 0, 70, 100
2, 10176, Note_on_c, 0, 77, 80
2, 10176, Note_on_c, 0, 73, 80
2, 10364, Note_off_c, 0, 77, 100
2, 10364, Note_off_c, 0, 73, 100
2, 10560, Note_on_c, 0, 70, 80
2, 10560, Note_on_c, 0, 67, 80
2, 10748, Note_off_c, 0, 70, 100
2, 10748, Note_off_c, 0, 67, 100
2, 10752, Note_on_c, 0, 68, 80
2, 10752, Note_on_c, 0, 65, 80
2, 10940, Note_off_c, 0, 68, 100
2, 10940, Note_off_c, 0, 65, 100
2, 10944, Note_on_c, 0, 70, 80
2, 10944, Note_on_c, 0, 67, 80
2, 11132, Note_off_c, 0, 70, 100
2, 11132, Note_off_c, 0, 67, 100
2, 11136, Note_on_c, 0, 72, 80
2, 11136, Note_on_c, 0, 68, 80
2, 11324, Note_off_c, 0, 72, 100
2, 11324, Note_off_c, 0, 68, 100
2, 11328, Note_on_c, 0, 75, 80
2, 11328, Note_on_c, 0, 72, 80
2, 11516, Note_off_c, 0, 75, 100
2, 11516, Note_off_c, 0, 72, 100
2, 11520, Note_on_c, 0, 75, 80
2, 11520, Note_on_c, 0, 63, 80
2, 11900, Note_off_c, 0, 63, 100
2, 11900, Note_off_c, 0, 75, 100
2, 11904, Note_on_c, 0, 74, 85
2, 11904, Note_on_c, 0, 62, 85
2, 12092, Note_off_c, 0, 74, 100
2, 12092, Note_off_c, 0, 62, 100
2, 12096, Note_on_c, 0, 64, 88
2, 12096, Note_on_c, 0, 76, 88
2, 12284, Note_off_c, 0, 64, 100
2, 12284, Note_off_c, 0, 76, 100
2, 12288, Note_on_c, 0, 77, 91
2, 12288, Note_on_c, 0, 65, 91
2, 12476, Note_off_c, 0, 77, 100
2, 12476, Note_off_c, 0, 65, 100
2, 12480, Note_on_c, 0, 79, 94
2, 12480, Note_on_c, 0, 67, 94
2, 12668, Note_off_c, 0, 79, 100
2, 12668, Note_off_c, 0, 67, 100
2, 12672, Note_on_c, 0, 68, 97
2, 12672, Note_on_c, 0, 80, 97
2, 12812, Note_off_c, 0, 80, 100
2, 12816, Note_on_c, 0, 77, 99
2, 12860, Note_off_c, 0, 68, 100
2, 12860, Note_off_c, 0, 77, 100
2, 12864, Note_on_c, 0, 75, 100
2, 12864, Note_on_c, 0, 67, 100
2, 13056, Note_on_c, 0, 70, 100
2, 13244, Note_off_c, 0, 75, 100
2, 13244, Note_off_c, 0, 67, 100
2, 13244, Note_off_c, 0, 70, 100
2, 13248, Note_on_c, 0, 68, 100
2, 13248, Note_on_c, 0, 65, 100
2, 13248, Note_on_c, 0, 74, 100
2, 13272, Note_on_c, 0, 75, 100
2, 13292, Note_off_c, 0, 74, 100
2, 13296, Note_on_c, 0, 74, 100
2, 13316, Note_off_c, 0, 75, 100
2, 13320, Note_on_c, 0, 75, 100
2, 13340, Note_off_c, 0, 74, 100
2, 13344, Note_on_c, 0, 74, 100
2, 13364, Note_off_c, 0, 75, 100
2, 13368, Note_on_c, 0, 75, 100
2, 13388, Note_off_c, 0, 74, 100
2, 13392, Note_on_c, 0, 72, 100
2, 13412, Note_off_c, 0, 75, 100
2, 13416, Note_on_c, 0, 74, 100
2, 13436, Note_off_c, 0, 68, 100
2, 13436, Note_off_c, 0, 65, 100
2, 13436, Note_off_c, 0, 72, 100
2, 13440, Note_on_c, 0, 75, 100
2, 13440, Note_on_c, 0, 67, 100
2, 13440, Note_on_c, 0, 63, 100
2, 13460, Note_off_c, 0, 74, 100
2, 13628, Note_off_c, 0, 67, 100
2, 13628, Note_off_c, 0, 63, 100
2, 13632, Note_on_c, 0, 72, 100
2, 13820, Note_off_c, 0, 75, 100
2, 13820, Note_off_c, 0, 72, 100
2, 13824, Note_on_c, 0, 72, 100
2, 13824, Note_on_c, 0, 65, 100
2, 13824, Note_on_c, 0, 79, 100
2, 13964, Note_off_c, 0, 79, 100
2, 13968, Note_on_c, 0, 77, 100
2, 14012, Note_off_c, 0, 72, 100
2, 14012, Note_off_c, 0, 65, 100
2, 14012, Note_off_c, 0, 77, 100
2, 14016, Note_on_c, 0, 75, 100
2, 14016, Note_on_c, 0, 67, 100
2, 14208, Note_on_c, 0, 70, 100
2, 14396, Note_off_c, 0, 75, 100
2, 14396, Note_off_c, 0, 67, 100
2, 14396, Note_off_c, 0, 70, 100
2, 14400, Note_on_c, 0, 68, 100
2, 14400, Note_on_c, 0, 65, 100
2, 14400, Note_on_c, 0, 74, 100
2, 14424, Note_on_c, 0, 75, 100
2, 14444, Note_off_c, 0, 74, 100
2, 14448, Note_on_c, 0, 74, 100
2, 14468, Note_off_c, 0, 75, 100
2, 14472, Note_on_c, 0, 75, 100
2, 14492, Note_off_c, 0, 74, 100
2, 14496, Note_on_c, 0, 74, 100
2, 14516, Note_off_c, 0, 75, 100
2, 14520, Note_on_c, 0, 75, 100
2, 14540, Note_off_c, 0, 74, 100
2, 14544, Note_on_c, 0, 72, 100
2, 14564, Note_off_c, 0, 75, 100
2, 14568, Note_on_c, 0, 74, 100
2, 14588, Note_off_c, 0, 68, 100
2, 14588, Note_off_c, 0, 65, 100
2, 14588, Note_off_c, 0, 72, 100
2, 14592, Note_on_c, 0, 75, 100
2, 14592, Note_on_c, 0, 67, 100
2, 14592, Note_on_c, 0, 63, 100
2, 14612, Note_off_c, 0, 74, 100
2, 14780, Note_off_c, 0, 75, 100
2, 14780, Note_off_c, 0, 67, 100
2, 14780, Note_off_c, 0, 63, 100
2, 14784, Note_on_c, 0, 75, 100
2, 14784, Note_on_c, 0, 68, 100
2, 14784, Note_on_c, 0, 62, 100
2, 14972, Note_off_c, 0, 75, 100
2, 14972, Note_off_c, 0, 68, 100
2, 14972, Note_off_c, 0, 62, 100
2, 14976, Note_on_c, 0, 75, 100
2, 14976, Note_on_c, 0, 70, 100
2, 14976, Note_on_c, 0, 61, 100
2, 15164, Note_off_c, 0, 75, 100
2, 15164, Note_off_c, 0, 70, 100
2, 15164, Note_off_c, 0, 61, 100
2, 15168, Note_on_c, 0, 63, 80
2, 15168, Note_on_c, 0, 60, 80
2, 15264, Note_on_c, 0, 68, 80
2, 15356, Note_off_c, 0, 68, 100
2, 15360, Note_on_c, 0, 68, 80
2, 15452, Note_off_c, 0, 68, 100
2, 15456, Note_on_c, 0, 68, 80
2, 15548, Note_off_c, 0, 68, 100
2, 15552, Note_on_c, 0, 68, 80
2, 15644, Note_off_c, 0, 68, 100
2, 15648, Note_on_c, 0, 68, 80
2, 15740, Note_off_c, 0, 63, 100
2, 15740, Note_off_c, 0, 60, 100
2, 15740, Note_off_c, 0, 68, 100
2, 15744, Note_on_c, 0, 63, 80
2, 15744, Note_on_c, 0, 61, 80
2, 15744, Note_on_c, 0, 68, 80
2, 15836, Note_off_c, 0, 68, 100
2, 15840, Note_on_c, 0, 67, 80
2, 15932, Note_off_c, 0, 67, 100
2, 15936, Note_on_c, 0, 67, 80
2, 16076, Note_off_c, 0, 67, 100
2, 16080, Note_on_c, 0, 65, 80
2, 16124, Note_off_c, 0, 65, 100
2, 16128, Note_on_c, 0, 67, 80
2, 16268, Note_off_c, 0, 67, 100
2, 16272, Note_on_c, 0, 63, 80
2, 16316, Note_off_c, 0, 63, 100
2, 16316, Note_off_c, 0, 61, 100
2, 16316, Note_off_c, 0, 63, 100
2, 16320, Note_on_c, 0, 68, 80
2, 16512, Note_on_c, 0, 63, 84
2, 16700, Note_off_c, 0, 68, 100
2, 16700, Note_off_c, 0, 63, 100
2, 16704, Note_on_c, 0, 58, 89
2, 16704, Note_on_c, 0, 63, 89
2, 16704, Note_on_c, 0, 70, 89
2, 16892, Note_off_c, 0, 58, 100
2, 16892, Note_off_c, 0, 63, 100
2, 16892, Note_off_c, 0, 70, 100
2, 16896, Note_on_c, 0, 68, 94
2, 16896, Note_on_c, 0, 63, 94
2, 16896, Note_on_c, 0, 60, 94
2, 16896, Note_on_c, 0, 73, 94
2, 17036, Note_off_c, 0, 73, 100
2, 17040, Note_on_c, 0, 72, 98
2, 17084, Note_off_c, 0, 68, 100
2, 17084, Note_off_c, 0, 63, 100
2, 17084, Note_off_c, 0, 60, 100
2, 17084, Note_off_c, 0, 72, 100
2, 17088, Note_on_c, 0, 70, 99
2, 17088, Note_on_c, 0, 67, 99
2, 17088, Note_on_c, 0, 58, 99
2, 17088, Note_on_c, 0, 63, 99
2, 17276, Note_off_c, 0, 70, 100
2, 17276, Note_off_c, 0, 67, 100
2, 17276, Note_off_c, 0, 58, 100
2, 17276, Note_off_c, 0, 63, 100
2, 17280, Note_on_c, 0, 72, 80
2, 17296, Note_off_c, 0, 72, 100
2, 17298, Note_on_c, 0, 70, 80
2, 17324, Note_off_c, 0, 70, 100
2, 17328, Note_on_c, 0, 69, 80
2, 17372, Note_off_c, 0, 69, 100
2, 17376, Note_on_c, 0, 70, 80
2, 17420, Note_off_c, 0, 70, 100
2, 17424, Note_on_c, 0, 72, 80
2, 17468, Note_off_c, 0, 72, 100
2, 17472, Note_on_c, 0, 73, 80
2, 17472, Note_on_c, 0, 68, 80
2, 17852, Note_off_c, 0, 73, 100
2, 17852, Note_off_c, 0, 68, 100
2, 17856, Note_on_c, 0, 72, 80
2, 17856, Note_on_c, 0, 68, 80
2, 18044, Note_off_c, 0, 72, 100
2, 18044, Note_off_c, 0, 68, 100
2, 18048, Note_on_c, 0, 70, 80
2, 18048, Note_on_c, 0, 68, 80
2, 18048, Note_on_c, 0, 77, 80
2, 18236, Note_off_c, 0, 70, 100
2, 18236, Note_off_c, 0, 68, 100
2, 18236, Note_off_c, 0, 77, 100
2, 18240, Note_on_c, 0, 70, 84
2, 18240, Note_on_c, 0, 67, 84
2, 18428, Note_off_c, 0, 70, 100
2, 18428, Note_off_c, 0, 67, 100
2, 18432, Note_on_c, 0, 75, 89
2, 18432, Note_on_c, 0, 68, 89
2, 18620, Note_off_c, 0, 75, 100
2, 18620, Note_off_c, 0, 68, 100
2, 18624, Note_on_c, 0, 70, 80
2, 18640, Note_off_c, 0, 70, 100
2, 18642, Note_on_c, 0, 68, 80
2, 18670, Note_off_c, 0, 68, 100
2, 18672, Note_on_c, 0, 67, 80
2, 18716, Note_off_c, 0, 67, 100
2, 18720, Note_on_c, 0, 68, 80
2, 18764, Note_off_c, 0, 68, 100
2, 18768, Note_on_c, 0, 70, 80
2, 18812, Note_off_c, 0, 70, 100
2, 18816, Note_on_c, 0, 72, 80
2, 18816, Note_on_c, 0, 68, 80
2, 18816, Note_on_c, 0, 63, 80
2, 19004, Note_off_c, 0, 72, 100
2, 19004, Note_off_c, 0, 68, 100
2, 19004, Note_off_c, 0, 63, 100
2, 19008, Note_on_c, 0, 70, 80
2, 19008, Note_on_c, 0, 67, 80
2, 19008, Note_on_c, 0, 61, 80
2, 19196, Note_off_c, 0, 70, 100
2, 19196, Note_off_c, 0, 67, 100
2, 19196, Note_off_c, 0, 61, 100
2, 19200, Note_on_c, 0, 68, 80
2, 19200, Note_on_c, 0, 60, 80
2, 19388, Note_off_c, 0, 68, 100
2, 19388, Note_off_c, 0, 60, 100
2, 19584, Note_on_c, 0, 51, 80
2, 19820, Note_off_c, 0, 51, 100
2, 19824, Note_on_c, 0, 48, 80
2, 19868, Note_off_c, 0, 48, 100
2, 19872, Note_on_c, 0, 51, 80
2, 19916, Note_off_c, 0, 51, 100
2, 19920, Note_on_c, 0, 56, 80
2, 19964, Note_off_c, 0, 56, 100
2, 19968, Note_on_c, 0, 60, 80
2, 20156, Note_off_c, 0, 60, 100
2, 20160, Note_on_c, 0, 56, 80
2, 20348, Note_off_c, 0, 56, 100
2, 20352, Note_on_c, 0, 55, 80
2, 20396, Note_off_c, 0, 55, 100
2, 20400, Note_on_c, 0, 61, 80
2, 20444, Note_off_c, 0, 61, 100
2, 20448, Note_on_c, 0, 63, 80
2, 20492, Note_off_c, 0, 63, 100
2, 20496, Note_on_c, 0, 67, 80
2, 20540, Note_off_c, 0, 67, 100
2, 20544, Note_on_c, 0, 73, 80
2, 20732, Note_off_c, 0, 73, 100
2, 20736, Note_on_c, 0, 67, 80
2, 20924, Note_off_c, 0, 67, 100
2, 20928, Note_on_c, 0, 68, 80
2, 20972, Note_off_c, 0, 68, 100
2, 20976, Note_on_c, 0, 51, 80
2, 21020, Note_off_c, 0, 51, 100
2, 21024, Note_on_c, 0, 56, 80
2, 21068, Note_off_c, 0, 56, 100
2, 21072, Note_on_c, 0, 60, 80
2, 21116, Note_off_c, 0, 60, 100
2, 21120, Note_on_c, 0, 63, 80
2, 21308, Note_off_c, 0, 63, 100
2, 21312, Note_on_c, 0, 63, 80
2, 21312, Note_on_c, 0, 58, 80
2, 21500, Note_off_c, 0, 63, 100
2, 21500, Note_off_c, 0, 58, 100
2, 21504, Note_on_c, 0, 63, 90
2, 21504, Note_on_c, 0, 56, 90
2, 21504, Note_on_c, 0, 61, 90
2, 21596, Note_off_c, 0, 61, 100
2, 21600, Note_on_c, 0, 60, 80
2, 21692, Note_off_c, 0, 63, 100
2, 21692, Note_off_c, 0, 56, 100
2, 21692, Note_off_c, 0, 60, 100
2, 21696, Note_on_c, 0, 63, 80
2, 21696, Note_on_c, 0, 58, 80
2, 21696, Note_on_c, 0, 55, 80
2, 21884, Note_off_c, 0, 63, 100
2, 21884, Note_off_c, 0, 58, 100
2, 21884, Note_off_c, 0, 55, 100
2, 21888, Note_on_c, 0, 60, 80
2, 21904, Note_off_c, 0, 60, 100
2, 21906, Note_on_c, 0, 58, 80
2, 21934, Note_off_c, 0, 58, 100
2, 21936, Note_on_c, 0, 57, 80
2, 21980, Note_off_c, 0, 57, 100
2, 21984, Note_on_c, 0, 58, 80
2, 22028, Note_off_c, 0, 58, 100
2, 22032, Note_on_c, 0, 60, 80
2, 22076, Note_off_c, 0, 60, 100
2, 22080, Note_on_c, 0, 61, 80
2, 22124, Note_off_c, 0, 61, 100
2, 22128, Note_on_c, 0, 61, 80
2, 22172, Note_off_c, 0, 61, 100
2, 22176, Note_on_c, 0, 65, 80
2, 22220, Note_off_c, 0, 65, 100
2, 22224, Note_on_c, 0, 68, 80
2, 22268, Note_off_c, 0, 68, 100
2, 22272, Note_on_c, 0, 73, 80
2, 22460, Note_off_c, 0, 73, 100
2, 22464, Note_on_c, 0, 72, 80
2, 22556, Note_off_c, 0, 72, 100
2, 22704, Note_on_c, 0, 65, 80
2, 22748, Note_off_c, 0, 65, 100
2, 22752, Note_on_c, 0, 68, 80
2, 22796, Note_off_c, 0, 68, 100
2, 22800, Note_on_c, 0, 70, 80
2, 22844, Note_off_c, 0, 70, 100
2, 22848, Note_on_c, 0, 77, 100
2, 23036, Note_off_c, 0, 77, 100
2, 23040, Note_on_c, 0, 75, 80
2, 23132, Note_off_c, 0, 75, 100
2, 23280, Note_on_c, 0, 49, 80
2, 23324, Note_off_c, 0, 49, 100
2, 23328, Note_on_c, 0, 53, 80
2, 23372, Note_off_c, 0, 53, 100
2, 23376, Note_on_c, 0, 56, 80
2, 23420, Note_off_c, 0, 56, 100
2, 23424, Note_on_c, 0, 61, 80
2, 23424, Note_on_c, 0, 58, 80
2, 23424, Note_on_c, 0, 52, 80
2, 23612, Note_off_c, 0, 61, 100
2, 23612, Note_off_c, 0, 58, 100
2, 23612, Note_off_c, 0, 52, 100
2, 23616, Note_on_c, 0, 51, 80
2, 23616, Note_on_c, 0, 56, 80
2, 23616, Note_on_c, 0, 60, 80
2, 23804, Note_off_c, 0, 51, 100
2, 23804, Note_off_c, 0, 56, 100
2, 23804, Note_off_c, 0, 60, 100
2, 23808, Note_on_c, 0, 57, 80
2, 23808, Note_on_c, 0, 54, 80
2, 23996, Note_off_c, 0, 57, 100
2, 23996, Note_off_c, 0, 54, 100
2, 24000, Note_on_c, 0, 58, 80
2, 24000, Note_on_c, 0, 55, 80
2, 24092, Note_off_c, 0, 58, 100
2, 24092, Note_off_c, 0, 55, 100
2, 24192, Note_on_c, 0, 51, 80
2, 24428, Note_off_c, 0, 51, 100
2, 24432, Note_on_c, 0, 48, 80
2, 24476, Note_off_c, 0, 48, 100
2, 24480, Note_on_c, 0, 51, 80
2, 24524, Note_off_c, 0, 51, 100
2, 24528, Note_on_c, 0, 56, 80
2, 24572, Note_off_c, 0, 56, 100
2, 24576, Note_on_c, 0, 60, 80
2, 24764, Note_off_c, 0, 60, 100
2, 24768, Note_on_c, 0, 56, 80
2, 24956, Note_off_c, 0, 56, 100
2, 24960, Note_on_c, 0, 55, 80
2, 25004, Note_off_c, 0, 55, 100
2, 25008, Note_on_c, 0, 61, 80
2, 25052, Note_off_c, 0, 61, 100
2, 25056, Note_on_c, 0, 63, 80
2, 25100, Note_off_c, 0, 63, 100
2, 25104, Note_on_c, 0, 67, 80
2, 25148, Note_off_c, 0, 67, 100
2, 25152, Note_on_c, 0, 73, 80
2, 25340, Note_off_c, 0, 73, 100
2, 25344, Note_on_c, 0, 67, 80
2, 25532, Note_off_c, 0, 67, 100
2, 25536, Note_on_c, 0, 68, 80
2, 25580, Note_off_c, 0, 68, 100
2, 25584, Note_on_c, 0, 51, 80
2, 25628, Note_off_c, 0, 51, 100
2, 25632, Note_on_c, 0, 56, 80
2, 25676, Note_off_c, 0, 56, 100
2, 25680, Note_on_c, 0, 60, 80
2, 25724, Note_off_c, 0, 60, 100
2, 25728, Note_on_c, 0, 63, 81
2, 25820, Note_off_c, 0, 63, 100
2, 25824, Note_on_c, 0, 63, 83
2, 25916, Note_off_c, 0, 63, 100
2, 25920, Note_on_c, 0, 58, 85
2, 25920, Note_on_c, 0, 63, 85
2, 26012, Note_off_c, 0, 63, 100
2, 26016, Note_on_c, 0, 63, 87
2, 26108, Note_off_c, 0, 58, 100
2, 26108, Note_off_c, 0, 63, 100
2, 26112, Note_on_c, 0, 63, 89
2, 26112, Note_on_c, 0, 56, 89
2, 26112, Note_on_c, 0, 61, 89
2, 26204, Note_off_c, 0, 61, 100
2, 26208, Note_on_c, 0, 60, 80
2, 26300, Note_off_c, 0, 63, 100
2, 26300, Note_off_c, 0, 56, 100
2, 26300, Note_off_c, 0, 60, 100
2, 26304, Note_on_c, 0, 63, 80
2, 26304, Note_on_c, 0, 58, 80
2, 26304, Note_on_c, 0, 55, 80
2, 26492, Note_off_c, 0, 63, 100
2, 26492, Note_off_c, 0, 58, 100
2, 26492, Note_off_c, 0, 55, 100
2, 26496, Note_on_c, 0, 60, 80
2, 26512, Note_off_c, 0, 60, 100
2, 26514, Note_on_c, 0, 58, 80
2, 26542, Note_off_c, 0, 58, 100
2, 26544, Note_on_c, 0, 57, 80
2, 26588, Note_off_c, 0, 57, 100
2, 26592, Note_on_c, 0, 58, 80
2, 26636, Note_off_c, 0, 58, 100
2, 26640, Note_on_c, 0, 60, 80
2, 26684, Note_off_c, 0, 60, 100
2, 26688, Note_on_c, 0, 61, 80
2, 26732, Note_off_c, 0, 61, 100
2, 26736, Note_on_c, 0, 61, 80
2, 26780, Note_off_c, 0, 61, 100
2, 26784, Note_on_c, 0, 65, 80
2, 26828, Note_off_c, 0, 65, 100
2, 26832, Note_on_c, 0, 68, 80
2, 26876, Note_off_c, 0, 68, 100
2, 26880, Note_on_c, 0, 73, 80
2, 27068, Note_off_c, 0, 73, 100
2, 27072, Note_on_c, 0, 72, 80
2, 27164, Note_off_c, 0, 72, 100
2, 27312, Note_on_c, 0, 77, 80
2, 27356, Note_off_c, 0, 77, 100
2, 27360, Note_on_c, 0, 80, 80
2, 27404, Note_off_c, 0, 80, 100
2, 27408, Note_on_c, 0, 82, 80
2, 27452, Note_off_c, 0, 82, 100
2, 27456, Note_on_c, 0, 89, 100
2, 27644, Note_off_c, 0, 89, 100
2, 27648, Note_on_c, 0, 87, 80
2, 27740, Note_off_c, 0, 87, 100
2, 27888, Note_on_c, 0, 60, 80
2, 27932, Note_off_c, 0, 60, 100
2, 27936, Note_on_c, 0, 63, 80
2, 27984, Note_on_c, 0, 68, 80
2, 28032, Note_on_c, 0, 72, 80
2, 28220, Note_off_c, 0, 63, 100
2, 28220, Note_off_c, 0, 68, 100
2, 28224, Note_on_c, 0, 67, 80
2, 28224, Note_on_c, 0, 61, 80
2, 28316, Note_off_c, 0, 72, 100
2, 28320, Note_on_c, 0, 70, 80
2, 28412, Note_off_c, 0, 67, 100
2, 28412, Note_off_c, 0, 61, 100
2, 28412, Note_off_c, 0, 70, 100
2, 28416, Note_on_c, 0, 68, 80
2, 28416, Note_on_c, 0, 60, 80
2, 28604, Note_off_c, 0, 68, 100
2, 28604, Note_off_c, 0, 60, 100
2, 28992, Note_on_c, 0, 72, 80
2, 28992, Note_on_c, 0, 69, 80
2, 29180, Note_off_c, 0, 72, 100
2, 29180, Note_off_c, 0, 69, 100
2, 29184, Note_on_c, 0, 70, 80
2, 29184, Note_on_c, 0, 67, 80
2, 29372, Note_off_c, 0, 70, 100
2, 29372, Note_off_c, 0, 67, 100
2, 29376, Note_on_c, 0, 72, 80
2, 29376, Note_on_c, 0, 69, 80
2, 29564, Note_off_c, 0, 72, 100
2, 29564, Note_off_c, 0, 69, 100
2, 29568, Note_on_c, 0, 73, 80
2, 29568, Note_on_c, 0, 70, 80
2, 29756, Note_off_c, 0, 73, 100
2, 29756, Note_off_c, 0, 70, 100
2, 29760, Note_on_c, 0, 77, 80
2, 29760, Note_on_c, 0, 73, 80
2, 29948, Note_off_c, 0, 77, 100
2, 29948, Note_off_c, 0, 73, 100
2, 30048, Note_on_c, 0, 73, 80
2, 30048, Note_on_c, 0, 70, 80
2, 30092, Note_off_c, 0, 73, 100
2, 30092, Note_off_c, 0, 70, 100
2, 30096, Note_on_c, 0, 72, 80
2, 30096, Note_on_c, 0, 68, 80
2, 30140, Note_off_c, 0, 72, 100
2, 30140, Note_off_c, 0, 68, 100
2, 30144, Note_on_c, 0, 70, 80
2, 30144, Note_on_c, 0, 67, 80
2, 30332, Note_off_c, 0, 70, 100
2, 30332, Note_off_c, 0, 67, 100
2, 30336, Note_on_c, 0, 68, 80
2, 30336, Note_on_c, 0, 65, 80
2, 30524, Note_off_c, 0, 68, 100
2, 30524, Note_off_c, 0, 65, 100
2, 30528, Note_on_c, 0, 70, 80
2, 30528, Note_on_c, 0, 67, 80
2, 30716, Note_off_c, 0, 70, 100
2, 30716, Note_off_c, 0, 67, 100
2, 30720, Note_on_c, 0, 72, 80
2, 30720, Note_on_c, 0, 68, 80
2, 30908, Note_off_c, 0, 72, 100
2, 30908, Note_off_c, 0, 68, 100
2, 30912, Note_on_c, 0, 75, 80
2, 30912, Note_on_c, 0, 72, 80
2, 31100, Note_off_c, 0, 75, 100
2, 31100, Note_off_c, 0, 72, 100
2, 31200, Note_on_c, 0, 75, 80
2, 31200, Note_on_c, 0, 63, 80
2, 31340, Note_off_c, 0, 63, 100
2, 31340, Note_off_c, 0, 75, 100
2, 31344, Note_on_c, 0, 63, 80
2, 31388, Note_off_c, 0, 63, 100
2, 31392, Note_on_c, 0, 75, 80
2, 31436, Note_off_c, 0, 75, 100
2, 31440, Note_on_c, 0, 63, 81
2, 31484, Note_off_c, 0, 63, 100
2, 31536, Note_on_c, 0, 62, 82
2, 31580, Note_off_c, 0, 62, 100
2, 31584, Note_on_c, 0, 74, 82
2, 31628, Note_off_c, 0, 74, 100
2, 31632, Note_on_c, 0, 62, 83
2, 31676, Note_off_c, 0, 62, 100
2, 31728, Note_on_c, 0, 64, 83
2, 31772, Note_off_c, 0, 64, 100
2, 31776, Note_on_c, 0, 76, 84
2, 31820, Note_off_c, 0, 76, 100
2, 31824, Note_on_c, 0, 64, 84
2, 31868, Note_off_c, 0, 64, 100
2, 31920, Note_on_c, 0, 65, 85
2, 31964, Note_off_c, 0, 65, 100
2, 31968, Note_on_c, 0, 77, 86
2, 32012, Note_off_c, 0, 77, 100
2, 32016, Note_on_c, 0, 65, 86
2, 32060, Note_off_c, 0, 65, 100
2, 32112, Note_on_c, 0, 67, 87
2, 32156, Note_off_c, 0, 67, 100
2, 32160, Note_on_c, 0, 79, 87
2, 32204, Note_off_c, 0, 79, 100
2, 32208, Note_on_c, 0, 67, 88
2, 32252, Note_off_c, 0, 67, 100
2, 32304, Note_on_c, 0, 68, 89
2, 32348, Note_off_c, 0, 68, 100
2, 32352, Note_on_c, 0, 80, 89
2, 32396, Note_off_c, 0, 80, 100
2, 32400, Note_on_c, 0, 68, 89
2, 32444, Note_off_c, 0, 68, 100
2, 32448, Note_on_c, 0, 75, 80
2, 32448, Note_on_c, 0, 70, 80
2, 32448, Note_on_c, 0, 67, 80
2, 32828, Note_off_c, 0, 75, 100
2, 32828, Note_off_c, 0, 70, 100
2, 32828, Note_off_c, 0, 67, 100
2, 32832, Note_on_c, 0, 74, 90
2, 32832, Note_on_c, 0, 68, 90
2, 32832, Note_on_c, 0, 65, 90
2, 33020, Note_off_c, 0, 74, 100
2, 33020, Note_off_c, 0, 68, 100
2, 33020, Note_off_c, 0, 65, 100
2, 33024, Note_on_c, 0, 75, 80
2, 33024, Note_on_c, 0, 67, 80
2, 33024, Note_on_c, 0, 63, 80
2, 33404, Note_off_c, 0, 75, 100
2, 33404, Note_off_c, 0, 67, 100
2, 33404, Note_off_c, 0, 63, 100
2, 33408, Note_on_c, 0, 77, 90
2, 33408, Note_on_c, 0, 72, 90
2, 33408, Note_on_c, 0, 65, 90
2, 33596, Note_off_c, 0, 77, 100
2, 33596, Note_off_c, 0, 72, 100
2, 33596, Note_off_c, 0, 65, 100
2, 33600, Note_on_c, 0, 75, 80
2, 33600, Note_on_c, 0, 70, 80
2, 33600, Note_on_c, 0, 67, 80
2, 33980, Note_off_c, 0, 75, 100
2, 33980, Note_off_c, 0, 70, 100
2, 33980, Note_off_c, 0, 67, 100
2, 33984, Note_on_c, 0, 74, 80
2, 33984, Note_on_c, 0, 68, 80
2, 33984, Note_on_c, 0, 65, 80
2, 34008, Note_on_c, 0, 75, 80
2, 34028, Note_off_c, 0, 74, 100
2, 34032, Note_on_c, 0, 74, 80
2, 34052, Note_off_c, 0, 75, 100
2, 34056, Note_on_c, 0, 75, 80
2, 34076, Note_off_c, 0, 74, 100
2, 34080, Note_on_c, 0, 74, 80
2, 34100, Note_off_c, 0, 75, 100
2, 34104, Note_on_c, 0, 75, 80
2, 34124, Note_off_c, 0, 74, 100
2, 34128, Note_on_c, 0, 72, 80
2, 34148, Note_off_c, 0, 75, 100
2, 34152, Note_on_c, 0, 74, 80
2, 34172, Note_off_c, 0, 68, 100
2, 34172, Note_off_c, 0, 65, 100
2, 34172, Note_off_c, 0, 72, 100
2, 34172, Note_off_c, 0, 74, 100
2, 34176, Note_on_c, 0, 75, 80
2, 34176, Note_on_c, 0, 67, 80
2, 34176, Note_on_c, 0, 63, 80
2, 34220, Note_off_c, 0, 75, 100
2, 34220, Note_off_c, 0, 67, 100
2, 34220, Note_off_c, 0, 63, 100
2, 34224, Note_on_c, 0, 63, 80
2, 34268, Note_off_c, 0, 63, 100
2, 34272, Note_on_c, 0, 67, 80
2, 34316, Note_off_c, 0, 67, 100
2, 34320, Note_on_c, 0, 75, 80
2, 34364, Note_off_c, 0, 75, 100
2, 34416, Note_on_c, 0, 62, 80
2, 34460, Note_off_c, 0, 62, 100
2, 34464, Note_on_c, 0, 68, 80
2, 34508, Note_off_c, 0, 68, 100
2, 34512, Note_on_c, 0, 75, 80
2, 34556, Note_off_c, 0, 75, 100
2, 34608, Note_on_c, 0, 61, 80
2, 34652, Note_off_c, 0, 61, 100
2, 34656, Note_on_c, 0, 70, 80
2, 34700, Note_off_c, 0, 70, 100
2, 34704, Note_on_c, 0, 75, 80
2, 34748, Note_off_c, 0, 75, 100
2, 34752, Note_on_c, 0, 60, 80
2, 34796, Note_off_c, 0, 60, 100
2, 34800, Note_on_c, 0, 48, 80
2, 34844, Note_off_c, 0, 48, 100
2, 34848, Note_on_c, 0, 51, 80
2, 34892, Note_off_c, 0, 51, 100
2, 34896, Note_on_c, 0, 56, 80
2, 34940, Note_off_c, 0, 56, 100
2, 34944, Note_on_c, 0, 60, 80
2, 35132, Note_off_c, 0, 60, 100
2, 35136, Note_on_c, 0, 56, 80
2, 35324, Note_off_c, 0, 56, 100
2, 35328, Note_on_c, 0, 55, 80
2, 35372, Note_off_c, 0, 55, 100
2, 35376, Note_on_c, 0, 61, 80
2, 35420, Note_off_c, 0, 61, 100
2, 35424, Note_on_c, 0, 63, 80
2, 35468, Note_off_c, 0, 63, 100
2, 35472, Note_on_c, 0, 67, 80
2, 35516, Note_off_c, 0, 67, 100
2, 35520, Note_on_c, 0, 73, 80
2, 35708, Note_off_c, 0, 73, 100
2, 35712, Note_on_c, 0, 67, 80
2, 35900, Note_off_c, 0, 67, 100
2, 35904, Note_on_c, 0, 68, 80
2, 35948, Note_off_c, 0, 68, 100
2, 35952, Note_on_c, 0, 51, 80
2, 35996, Note_off_c, 0, 51, 100
2, 36000, Note_on_c, 0, 56, 80
2, 36044, Note_off_c, 0, 56, 100
2, 36048, Note_on_c, 0, 60, 80
2, 36092, Note_off_c, 0, 60, 100
2, 36096, Note_on_c, 0, 63, 80
2, 36188, Note_off_c, 0, 63, 100
2, 36192, Note_on_c, 0, 63, 80
2, 36284, Note_off_c, 0, 63, 100
2, 36288, Note_on_c, 0, 58, 80
2, 36288, Note_on_c, 0, 63, 80
2, 36380, Note_off_c, 0, 63, 100
2, 36384, Note_on_c, 0, 63, 80
2, 36476, Note_off_c, 0, 58, 100
2, 36476, Note_off_c, 0, 63, 100
2, 36480, Note_on_c, 0, 63, 80
2, 36480, Note_on_c, 0, 56, 80
2, 36480, Note_on_c, 0, 61, 80
2, 36572, Note_off_c, 0, 61, 100
2, 36576, Note_on_c, 0, 60, 80
2, 36668, Note_off_c, 0, 63, 100
2, 36668, Note_off_c, 0, 56, 100
2, 36668, Note_off_c, 0, 60, 100
2, 36672, Note_on_c, 0, 63, 80
2, 36672, Note_on_c, 0, 58, 80
2, 36672, Note_on_c, 0, 55, 80
2, 36860, Note_off_c, 0, 63, 100
2, 36860, Note_off_c, 0, 58, 100
2, 36860, Note_off_c, 0, 55, 100
2, 36864, Note_on_c, 0, 60, 80
2, 36880, Note_off_c, 0, 60, 100
2, 36882, Note_on_c, 0, 58, 80
2, 36910, Note_off_c, 0, 58, 100
2, 36912, Note_on_c, 0, 57, 80
2, 36956, Note_off_c, 0, 57, 100
2, 36960, Note_on_c, 0, 58, 80
2, 37004, Note_off_c, 0, 58, 100
2, 37008, Note_on_c, 0, 60, 80
2, 37052, Note_off_c, 0, 60, 100
2, 37056, Note_on_c, 0, 61, 80
2, 37100, Note_off_c, 0, 61, 100
2, 37104, Note_on_c, 0, 61, 80
2, 37148, Note_off_c, 0, 61, 100
2, 37152, Note_on_c, 0, 65, 80
2, 37196, Note_off_c, 0, 65, 100
2, 37200, Note_on_c, 0, 68, 80
2, 37244, Note_off_c, 0, 68, 100
2, 37248, Note_on_c, 0, 73, 80
2, 37436, Note_off_c, 0, 73, 100
2, 37440, Note_on_c, 0, 72, 80
2, 37532, Note_off_c, 0, 72, 100
2, 37680, Note_on_c, 0, 77, 80
2, 37724, Note_off_c, 0, 77, 100
2, 37728, Note_on_c, 0, 80, 80
2, 37772, Note_off_c, 0, 80, 100
2, 37776, Note_on_c, 0, 82, 80
2, 37820, Note_off_c, 0, 82, 100
2, 37824, Note_on_c, 0, 89, 101
2, 38012, Note_off_c, 0, 89, 100
2, 38016, Note_on_c, 0, 87, 80
2, 38108, Note_off_c, 0, 87, 100
2, 38256, Note_on_c, 0, 60, 80
2, 38300, Note_off_c, 0, 60, 100
2, 38304, Note_on_c, 0, 63, 80
2, 38352, Note_on_c, 0, 68, 80
2, 38400, Note_on_c, 0, 72, 93
2, 38588, Note_off_c, 0, 63, 100
2, 38588, Note_off_c, 0, 68, 100
2, 38592, Note_on_c, 0, 67, 80
2, 38592, Note_on_c, 0, 61, 80
2, 38684, Note_off_c, 0, 72, 100
2, 38688, Note_on_c, 0, 70, 80
2, 38780, Note_off_c, 0, 67, 100
2, 38780, Note_off_c, 0, 61, 100
2, 38780, Note_off_c, 0, 70, 100
2, 38784, Note_on_c, 0, 68, 80
2, 38784, Note_on_c, 0, 60, 80
2, 38972, Note_off_c, 0, 68, 100
2, 38972, Note_off_c, 0, 60, 100
2, 39216, Note_on_c, 0, 63, 80
2, 39216, Note_on_c, 0, 60, 80
2, 39308, Note_off_c, 0, 63, 100
2, 39308, Note_off_c, 0, 60, 100
2, 39312, Note_on_c, 0, 63, 80
2, 39312, Note_on_c, 0, 60, 80
2, 39404, Note_off_c, 0, 60, 100
2, 39404, Note_off_c, 0, 63, 100
2, 39408, Note_on_c, 0, 63, 80
2, 39408, Note_on_c, 0, 60, 80
2, 39500, Note_off_c, 0, 63, 100
2, 39500, Note_off_c, 0, 60, 100
2, 39504, Note_on_c, 0, 63, 80
2, 39504, Note_on_c, 0, 60, 80
2, 39596, Note_off_c, 0, 63, 100
2, 39596, Note_off_c, 0, 60, 100
2, 39600, Note_on_c, 0, 63, 80
2, 39600, Note_on_c, 0, 60, 80
2, 39692, Note_off_c, 0, 63, 100
2, 39692, Note_off_c, 0, 60, 100
2, 39696, Note_on_c, 0, 63, 80
2, 39696, Note_on_c, 0, 60, 80
2, 39788, Note_off_c, 0, 63, 100
2, 39788, Note_off_c, 0, 60, 100
2, 39792, Note_on_c, 0, 63, 80
2, 39792, Note_on_c, 0, 60, 80
2, 39884, Note_off_c, 0, 63, 100
2, 39884, Note_off_c, 0, 60, 100
2, 39888, Note_on_c, 0, 63, 80
2, 39888, Note_on_c, 0, 60, 80
2, 39980, Note_off_c, 0, 60, 100
2, 39980, Note_off_c, 0, 63, 100
2, 39984, Note_on_c, 0, 61, 80
2, 39984, Note_on_c, 0, 58, 80
2, 39984, Note_on_c, 0, 63, 80
2, 40076, Note_off_c, 0, 61, 100
2, 40076, Note_off_c, 0, 58, 100
2, 40076, Note_off_c, 0, 63, 100
2, 40080, Note_on_c, 0, 63, 80
2, 40080, Note_on_c, 0, 61, 80
2, 40080, Note_on_c, 0, 58, 80
2, 40172, Note_off_c, 0, 63, 100
2, 40172, Note_off_c, 0, 61, 100
2, 40172, Note_off_c, 0, 58, 100
2, 40176, Note_on_c, 0, 61, 80
2, 40176, Note_on_c, 0, 58, 80
2, 40176, Note_on_c, 0, 63, 80
2, 40268, Note_off_c, 0, 61, 100
2, 40268, Note_off_c, 0, 58, 100
2, 40268, Note_off_c, 0, 63, 100
2, 40272, Note_on_c, 0, 63, 80
2, 40272, Note_on_c, 0, 61, 80
2, 40272, Note_on_c, 0, 58, 80
2, 40364, Note_off_c, 0, 63, 100
2, 40364, Note_off_c, 0, 61, 100
2, 40364, Note_off_c, 0, 58, 100
2, 40368, Note_on_c, 0, 61, 80
2, 40368, Note_on_c, 0, 58, 80
2, 40368, Note_on_c, 0, 63, 80
2, 40460, Note_off_c, 0, 61, 100
2, 40460, Note_off_c, 0, 58, 100
2, 40460, Note_off_c, 0, 63, 100
2, 40464, Note_on_c, 0, 63, 80
2, 40464, Note_on_c, 0, 61, 80
2, 40464, Note_on_c, 0, 58, 80
2, 40556, Note_off_c, 0, 58, 100
2, 40556, Note_off_c, 0, 61, 100
2, 40556, Note_off_c, 0, 63, 100
2, 40560, Note_on_c, 0, 63, 80
2, 40560, Note_on_c, 0, 60, 80
2, 40652, Note_off_c, 0, 63, 100
2, 40652, Note_off_c, 0, 60, 100
2, 40656, Note_on_c, 0, 63, 80
2, 40656, Note_on_c, 0, 60, 80
2, 40748, Note_off_c, 0, 63, 100
2, 40748, Note_off_c, 0, 60, 100
2, 40752, Note_on_c, 0, 68, 80
2, 40752, Note_on_c, 0, 63, 80
2, 40752, Note_on_c, 0, 60, 80
2, 40844, Note_off_c, 0, 68, 100
2, 40844, Note_off_c, 0, 63, 100
2, 40844, Note_off_c, 0, 60, 100
2, 40848, Note_on_c, 0, 68, 80
2, 40848, Note_on_c, 0, 63, 80
2, 40848, Note_on_c, 0, 60, 80
2, 40940, Note_off_c, 0, 68, 100
2, 40940, Note_off_c, 0, 63, 100
2, 40940, Note_off_c, 0, 60, 100
2, 40944, Note_on_c, 0, 67, 80
2, 40944, Note_on_c, 0, 63, 80
2, 40944, Note_on_c, 0, 61, 80
2, 41036, Note_off_c, 0, 67, 100
2, 41036, Note_off_c, 0, 63, 100
2, 41036, Note_off_c, 0, 61, 100
2, 41040, Note_on_c, 0, 67, 80
2, 41040, Note_on_c, 0, 63, 80
2, 41040, Note_on_c, 0, 61, 80
2, 41132, Note_off_c, 0, 61, 100
2, 41132, Note_off_c, 0, 63, 100
2, 41132, Note_off_c, 0, 67, 100
2, 41136, Note_on_c, 0, 68, 80
2, 41136, Note_on_c, 0, 63, 80
2, 41228, Note_off_c, 0, 68, 100
2, 41228, Note_off_c, 0, 63, 100
2, 41232, Note_on_c, 0, 68, 80
2, 41232, Note_on_c, 0, 63, 80
2, 41324, Note_off_c, 0, 68, 100
2, 41324, Note_off_c, 0, 63, 100
2, 41328, Note_on_c, 0, 67, 80
2, 41328, Note_on_c, 0, 63, 80
2, 41420, Note_off_c, 0, 67, 100
2, 41420, Note_off_c, 0, 63, 100
2, 41424, Note_on_c, 0, 67, 80
2, 41424, Note_on_c, 0, 63, 80
2, 41516, Note_off_c, 0, 67, 100
2, 41516, Note_off_c, 0, 63, 100
2, 41520, Note_on_c, 0, 68, 80
2, 41520, Note_on_c, 0, 66, 80
2, 41520, Note_on_c, 0, 63, 80
2, 41612, Note_off_c, 0, 68, 100
2, 41612, Note_off_c, 0, 66, 100
2, 41612, Note_off_c, 0, 63, 100
2, 41616, Note_on_c, 0, 68, 80
2, 41616, Note_on_c, 0, 66, 80
2, 41616, Note_on_c, 0, 63, 80
2, 41708, Note_off_c, 0, 63, 100
2, 41708, Note_off_c, 0, 66, 100
2, 41708, Note_off_c, 0, 68, 100
2, 41712, Note_on_c, 0, 68, 80
2, 41712, Note_on_c, 0, 65, 80
2, 41804, Note_off_c, 0, 68, 100
2, 41804, Note_off_c, 0, 65, 100
2, 41808, Note_on_c, 0, 68, 80
2, 41808, Note_on_c, 0, 65, 80
2, 41900, Note_off_c, 0, 68, 100
2, 41900, Note_off_c, 0, 65, 100
2, 41904, Note_on_c, 0, 68, 80
2, 41904, Note_on_c, 0, 80, 80
2, 41996, Note_off_c, 0, 68, 100
2, 41996, Note_off_c, 0, 80, 100
2, 42000, Note_on_c, 0, 68, 80
2, 42000, Note_on_c, 0, 80, 80
2, 42092, Note_off_c, 0, 68, 100
2, 42092, Note_off_c, 0, 80, 100
2, 42096, Note_on_c, 0, 80, 80
2, 42096, Note_on_c, 0, 68, 80
2, 42188, Note_off_c, 0, 80, 100
2, 42188, Note_off_c, 0, 68, 100
2, 42192, Note_on_c, 0, 80, 80
2, 42192, Note_on_c, 0, 68, 80
2, 42284, Note_off_c, 0, 68, 100
2, 42284, Note_off_c, 0, 80, 100
2, 42288, Note_on_c, 0, 80, 80
2, 42288, Note_on_c, 0, 68, 80
2, 42380, Note_off_c, 0, 80, 100
2, 42380, Note_off_c, 0, 68, 100
2, 42384, Note_on_c, 0, 80, 80
2, 42384, Note_on_c, 0, 68, 80
2, 42476, Note_off_c, 0, 80, 100
2, 42476, Note_off_c, 0, 68, 100
2, 42480, Note_on_c, 0, 79, 80
2, 42480, Note_on_c, 0, 67, 80
2, 42572, Note_off_c, 0, 79, 100
2, 42572, Note_off_c, 0, 67, 100
2, 42576, Note_on_c, 0, 79, 80
2, 42576, Note_on_c, 0, 67, 80
2, 42668, Note_off_c, 0, 79, 100
2, 42668, Note_off_c, 0, 67, 100
2, 42672, Note_on_c, 0, 80, 80
2, 42672, Note_on_c, 0, 68, 80
2, 42764, Note_off_c, 0, 80, 100
2, 42764, Note_off_c, 0, 68, 100
2, 42768, Note_on_c, 0, 80, 80
2, 42768, Note_on_c, 0, 68, 80
2, 42860, Note_off_c, 0, 68, 100
2, 42860, Note_off_c, 0, 80, 100
2, 42864, Note_on_c, 0, 85, 80
2, 42864, Note_on_c, 0, 73, 80
2, 42956, Note_off_c, 0, 85, 100
2, 42956, Note_off_c, 0, 73, 100
2, 42960, Note_on_c, 0, 77, 80
2, 42960, Note_on_c, 0, 65, 80
2, 43052, Note_off_c, 0, 77, 100
2, 43052, Note_off_c, 0, 65, 100
2, 43056, Note_on_c, 0, 76, 80
2, 43056, Note_on_c, 0, 64, 80
2, 43148, Note_off_c, 0, 76, 100
2, 43148, Note_off_c, 0, 64, 100
2, 43152, Note_on_c, 0, 75, 80
2, 43152, Note_on_c, 0, 63, 80
2, 43244, Note_off_c, 0, 75, 100
2, 43244, Note_off_c, 0, 63, 100
2, 43248, Note_on_c, 0, 75, 80
2, 43248, Note_on_c, 0, 63, 80
2, 43340, Note_off_c, 0, 75, 100
2, 43340, Note_off_c, 0, 63, 100
2, 43344, Note_on_c, 0, 75, 80
2, 43344, Note_on_c, 0, 63, 80
2, 43436, Note_off_c, 0, 63, 100
2, 43436, Note_off_c, 0, 75, 100
2, 43440, Note_on_c, 0, 75, 80
2, 43440, Note_on_c, 0, 66, 80
2, 43440, Note_on_c, 0, 63, 80
2, 43532, Note_off_c, 0, 75, 100
2, 43532, Note_off_c, 0, 66, 100
2, 43532, Note_off_c, 0, 63, 100
2, 43536, Note_on_c, 0, 75, 80
2, 43536, Note_on_c, 0, 66, 80
2, 43536, Note_on_c, 0, 63, 80
2, 43628, Note_off_c, 0, 75, 100
2, 43628, Note_off_c, 0, 66, 100
2, 43628, Note_off_c, 0, 63, 100
2, 43632, Note_on_c, 0, 75, 80
2, 43632, Note_on_c, 0, 67, 80
2, 43632, Note_on_c, 0, 63, 80
2, 43724, Note_off_c, 0, 75, 100
2, 43724, Note_off_c, 0, 67, 100
2, 43724, Note_off_c, 0, 63, 100
2, 43728, Note_on_c, 0, 75, 80
2, 43728, Note_on_c, 0, 67, 80
2, 43728, Note_on_c, 0, 63, 80
2, 43820, Note_off_c, 0, 75, 100
2, 43820, Note_off_c, 0, 67, 100
2, 43820, Note_off_c, 0, 63, 100
2, 43824, Note_on_c, 0, 75, 80
2, 43824, Note_on_c, 0, 63, 80
2, 43916, Note_off_c, 0, 75, 100
2, 43916, Note_off_c, 0, 63, 100
2, 43920, Note_on_c, 0, 75, 80
2, 43920, Note_on_c, 0, 63, 80
2, 44012, Note_off_c, 0, 63, 100
2, 44012, Note_off_c, 0, 75, 100
2, 44016, Note_on_c, 0, 75, 80
2, 44016, Note_on_c, 0, 72, 80
2, 44016, Note_on_c, 0, 63, 80
2, 44108, Note_off_c, 0, 75, 100
2, 44108, Note_off_c, 0, 72, 100
2, 44108, Note_off_c, 0, 63, 100
2, 44112, Note_on_c, 0, 75, 80
2, 44112, Note_on_c, 0, 72, 80
2, 44112, Note_on_c, 0, 63, 80
2, 44204, Note_off_c, 0, 75, 100
2, 44204, Note_off_c, 0, 72, 100
2, 44204, Note_off_c, 0, 63, 100
2, 44208, Note_on_c, 0, 75, 80
2, 44208, Note_on_c, 0, 72, 80
2, 44208, Note_on_c, 0, 63, 80
2, 44300, Note_off_c, 0, 75, 100
2, 44300, Note_off_c, 0, 72, 100
2, 44300, Note_off_c, 0, 63, 100
2, 44304, Note_on_c, 0, 75, 80
2, 44304, Note_on_c, 0, 72, 80
2, 44304, Note_on_c, 0, 63, 80
2, 44396, Note_off_c, 0, 75, 100
2, 44396, Note_off_c, 0, 72, 100
2, 44396, Note_off_c, 0, 63, 100
2, 44400, Note_on_c, 0, 75, 80
2, 44400, Note_on_c, 0, 72, 80
2, 44400, Note_on_c, 0, 63, 80
2, 44492, Note_off_c, 0, 75, 100
2, 44492, Note_off_c, 0, 72, 100
2, 44492, Note_off_c, 0, 63, 100
2, 44496, Note_on_c, 0, 75, 80
2, 44496, Note_on_c, 0, 72, 80
2, 44496, Note_on_c, 0, 63, 80
2, 44588, Note_off_c, 0, 63, 100
2, 44588, Note_off_c, 0, 72, 100
2, 44588, Note_off_c, 0, 75, 100
2, 44592, Note_on_c, 0, 75, 80
2, 44592, Note_on_c, 0, 73, 80
2, 44592, Note_on_c, 0, 63, 80
2, 44684, Note_off_c, 0, 75, 100
2, 44684, Note_off_c, 0, 73, 100
2, 44684, Note_off_c, 0, 63, 100
2, 44688, Note_on_c, 0, 75, 80
2, 44688, Note_on_c, 0, 73, 80
2, 44688, Note_on_c, 0, 63, 80
2, 44780, Note_off_c, 0, 75, 100
2, 44780, Note_off_c, 0, 73, 100
2, 44780, Note_off_c, 0, 63, 100
2, 44784, Note_on_c, 0, 75, 80
2, 44784, Note_on_c, 0, 73, 80
2, 44784, Note_on_c, 0, 63, 80
2, 44876, Note_off_c, 0, 75, 100
2, 44876, Note_off_c, 0, 73, 100
2, 44876, Note_off_c, 0, 63, 100
2, 44880, Note_on_c, 0, 75, 80
2, 44880, Note_on_c, 0, 73, 80
2, 44880, Note_on_c, 0, 63, 80
2, 44972, Note_off_c, 0, 75, 100
2, 44972, Note_off_c, 0, 73, 100
2, 44972, Note_off_c, 0, 63, 100
2, 44976, Note_on_c, 0, 75, 80
2, 44976, Note_on_c, 0, 73, 80
2, 44976, Note_on_c, 0, 63, 80
2, 45068, Note_off_c, 0, 75, 100
2, 45068, Note_off_c, 0, 73, 100
2, 45068, Note_off_c, 0, 63, 100
2, 45072, Note_on_c, 0, 75, 80
2, 45072, Note_on_c, 0, 63, 80
2, 45072, Note_on_c, 0, 67, 80
2, 45164, Note_off_c, 0, 63, 100
2, 45164, Note_off_c, 0, 67, 100
2, 45164, Note_off_c, 0, 75, 100
2, 45168, Note_on_c, 0, 75, 80
2, 45168, Note_on_c, 0, 68, 80
2, 45168, Note_on_c, 0, 63, 80
2, 45260, Note_off_c, 0, 75, 100
2, 45260, Note_off_c, 0, 68, 100
2, 45260, Note_off_c, 0, 63, 100
2, 45264, Note_on_c, 0, 75, 80
2, 45264, Note_on_c, 0, 72, 80
2, 45264, Note_on_c, 0, 63, 80
2, 45356, Note_off_c, 0, 75, 100
2, 45356, Note_off_c, 0, 72, 100
2, 45356, Note_off_c, 0, 63, 100
2, 45360, Note_on_c, 0, 75, 80
2, 45360, Note_on_c, 0, 68, 80
2, 45360, Note_on_c, 0, 63, 80
2, 45452, Note_off_c, 0, 75, 100
2, 45452, Note_off_c, 0, 68, 100
2, 45452, Note_off_c, 0, 63, 100
2, 45456, Note_on_c, 0, 75, 80
2, 45456, Note_on_c, 0, 72, 80
2, 45456, Note_on_c, 0, 63, 80
2, 45548, Note_off_c, 0, 75, 100
2, 45548, Note_off_c, 0, 72, 100
2, 45548, Note_off_c, 0, 63, 100
2, 45552, Note_on_c, 0, 75, 80
2, 45552, Note_on_c, 0, 70, 80
2, 45552, Note_on_c, 0, 63, 80
2, 45644, Note_off_c, 0, 75, 100
2, 45644, Note_off_c, 0, 70, 100
2, 45644, Note_off_c, 0, 63, 100
2, 45648, Note_on_c, 0, 75, 80
2, 45648, Note_on_c, 0, 73, 80
2, 45648, Note_on_c, 0, 63, 80
2, 45740, Note_off_c, 0, 63, 100
2, 45740, Note_off_c, 0, 73, 100
2, 45740, Note_off_c, 0, 75, 100
2, 45744, Note_on_c, 0, 75, 80
2, 45744, Note_on_c, 0, 72, 80
2, 45744, Note_on_c, 0, 68, 80
2, 45744, Note_on_c, 0, 63, 80
2, 45836, Note_off_c, 0, 75, 100
2, 45836, Note_off_c, 0, 72, 100
2, 45836, Note_off_c, 0, 68, 100
2, 45836, Note_off_c, 0, 63, 100
2, 45840, Note_on_c, 0, 75, 80
2, 45840, Note_on_c, 0, 72, 80
2, 45840, Note_on_c, 0, 68, 80
2, 45840, Note_on_c, 0, 63, 80
2, 45932, Note_off_c, 0, 75, 100
2, 45932, Note_off_c, 0, 72, 100
2, 45932, Note_off_c, 0, 68, 100
2, 45932, Note_off_c, 0, 63, 100
2, 45936, Note_on_c, 0, 75, 80
2, 45936, Note_on_c, 0, 70, 80
2, 45936, Note_on_c, 0, 67, 80
2, 45936, Note_on_c, 0, 63, 80
2, 46028, Note_off_c, 0, 75, 100
2, 46028, Note_off_c, 0, 70, 100
2, 46028, Note_off_c, 0, 67, 100
2, 46028, Note_off_c, 0, 63, 100
2, 46032, Note_on_c, 0, 75, 80
2, 46032, Note_on_c, 0, 70, 80
2, 46032, Note_on_c, 0, 67, 80
2, 46032, Note_on_c, 0, 63, 80
2, 46124, Note_off_c, 0, 75, 100
2, 46124, Note_off_c, 0, 70, 100
2, 46124, Note_off_c, 0, 67, 100
2, 46124, Note_off_c, 0, 63, 100
2, 46128, Note_on_c, 0, 75, 80
2, 46128, Note_on_c, 0, 68, 80
2, 46128, Note_on_c, 0, 66, 80
2, 46128, Note_on_c, 0, 63, 80
2, 46220, Note_off_c, 0, 75, 100
2, 46220, Note_off_c, 0, 68, 100
2, 46220, Note_off_c, 0, 66, 100
2, 46220, Note_off_c, 0, 63, 100
2, 46224, Note_on_c, 0, 75, 80
2, 46224, Note_on_c, 0, 68, 80
2, 46224, Note_on_c, 0, 66, 80
2, 46224, Note_on_c, 0, 63, 80
2, 46316, Note_off_c, 0, 63, 100
2, 46316, Note_off_c, 0, 66, 100
2, 46316, Note_off_c, 0, 68, 100
2, 46316, Note_off_c, 0, 75, 100
2, 46320, Note_on_c, 0, 77, 80
2, 46320, Note_on_c, 0, 68, 80
2, 46320, Note_on_c, 0, 65, 80
2, 46412, Note_off_c, 0, 77, 100
2, 46412, Note_off_c, 0, 68, 100
2, 46412, Note_off_c, 0, 65, 100
2, 46416, Note_on_c, 0, 77, 80
2, 46416, Note_on_c, 0, 68, 80
2, 46416, Note_on_c, 0, 65, 80
2, 46508, Note_off_c, 0, 77, 100
2, 46508, Note_off_c, 0, 68, 100
2, 46508, Note_off_c, 0, 65, 100
2, 46512, Note_on_c, 0, 80, 80
2, 46512, Note_on_c, 0, 68, 80
2, 46604, Note_off_c, 0, 80, 100
2, 46604, Note_off_c, 0, 68, 100
2, 46608, Note_on_c, 0, 80, 80
2, 46608, Note_on_c, 0, 68, 80
2, 46700, Note_off_c, 0, 80, 100
2, 46700, Note_off_c, 0, 68, 100
2, 46704, Note_on_c, 0, 80, 80
2, 46704, Note_on_c, 0, 68, 80
2, 46796, Note_off_c, 0, 80, 100
2, 46796, Note_off_c, 0, 68, 100
2, 46800, Note_on_c, 0, 80, 80
2, 46800, Note_on_c, 0, 68, 80
2, 46892, Note_off_c, 0, 68, 100
2, 46892, Note_off_c, 0, 80, 100
2, 46896, Note_on_c, 0, 80, 80
2, 46896, Note_on_c, 0, 68, 80
2, 46988, Note_off_c, 0, 80, 100
2, 46988, Note_off_c, 0, 68, 100
2, 46992, Note_on_c, 0, 80, 80
2, 46992, Note_on_c, 0, 68, 80
2, 47084, Note_off_c, 0, 80, 100
2, 47084, Note_off_c, 0, 68, 100
2, 47088, Note_on_c, 0, 79, 80
2, 47088, Note_on_c, 0, 67, 80
2, 47180, Note_off_c, 0, 79, 100
2, 47180, Note_off_c, 0, 67, 100
2, 47184, Note_on_c, 0, 79, 80
2, 47184, Note_on_c, 0, 67, 80
2, 47276, Note_off_c, 0, 79, 100
2, 47276, Note_off_c, 0, 67, 100
2, 47280, Note_on_c, 0, 80, 80
2, 47280, Note_on_c, 0, 68, 80
2, 47372, Note_off_c, 0, 80, 100
2, 47372, Note_off_c, 0, 68, 100
2, 47376, Note_on_c, 0, 80, 80
2, 47376, Note_on_c, 0, 68, 80
2, 47468, Note_off_c, 0, 68, 100
2, 47468, Note_off_c, 0, 80, 100
2, 47472, Note_on_c, 0, 75, 80
2, 47472, Note_on_c, 0, 72, 80
2, 47472, Note_on_c, 0, 63, 80
2, 47564, Note_off_c, 0, 75, 100
2, 47564, Note_off_c, 0, 72, 100
2, 47564, Note_off_c, 0, 63, 100
2, 47568, Note_on_c, 0, 75, 80
2, 47568, Note_on_c, 0, 72, 80
2, 47568, Note_on_c, 0, 63, 80
2, 47660, Note_off_c, 0, 75, 100
2, 47660, Note_off_c, 0, 72, 100
2, 47660, Note_off_c, 0, 63, 100
2, 47664, Note_on_c, 0, 75, 80
2, 47664, Note_on_c, 0, 72, 80
2, 47664, Note_on_c, 0, 68, 80
2, 47664, Note_on_c, 0, 63, 80
2, 47756, Note_off_c, 0, 75, 100
2, 47756, Note_off_c, 0, 72, 100
2, 47756, Note_off_c, 0, 68, 100
2, 47756, Note_off_c, 0, 63, 100
2, 47760, Note_on_c, 0, 75, 80
2, 47760, Note_on_c, 0, 72, 80
2, 47760, Note_on_c, 0, 68, 80
2, 47760, Note_on_c, 0, 63, 80
2, 47852, Note_off_c, 0, 75, 100
2, 47852, Note_off_c, 0, 72, 100
2, 47852, Note_off_c, 0, 68, 100
2, 47852, Note_off_c, 0, 63, 100
2, 47856, Note_on_c, 0, 67, 80
2, 47856, Note_on_c, 0, 63, 80
2, 47856, Note_on_c, 0, 61, 80
2, 47948, Note_off_c, 0, 67, 100
2, 47948, Note_off_c, 0, 63, 100
2, 47948, Note_off_c, 0, 61, 100
2, 47952, Note_on_c, 0, 67, 80
2, 47952, Note_on_c, 0, 63, 80
2, 47952, Note_on_c, 0, 61, 80
2, 48044, Note_off_c, 0, 61, 100
2, 48044, Note_off_c, 0, 63, 100
2, 48044, Note_off_c, 0, 67, 100
2, 48048, Note_on_c, 0, 68, 80
2, 48048, Note_on_c, 0, 63, 80
2, 48048, Note_on_c, 0, 60, 80
2, 48140, Note_off_c, 0, 68, 100
2, 48140, Note_off_c, 0, 63, 100
2, 48140, Note_off_c, 0, 60, 100
2, 48144, Note_on_c, 0, 68, 80
2, 48144, Note_on_c, 0, 63, 80
2, 48144, Note_on_c, 0, 60, 80
2, 48236, Note_off_c, 0, 68, 100
2, 48236, Note_off_c, 0, 63, 100
2, 48236, Note_off_c, 0, 60, 100
2, 48432, Note_on_c, 0, 77, 80
2, 48432, Note_on_c, 0, 65, 80
2, 48524, Note_off_c, 0, 77, 100
2, 48524, Note_off_c, 0, 65, 100
2, 48528, Note_on_c, 0, 77, 80
2, 48528, Note_on_c, 0, 65, 80
2, 48620, Note_off_c, 0, 65, 100
2, 48620, Note_off_c, 0, 77, 100
2, 48624, Note_on_c, 0, 77, 80
2, 48624, Note_on_c, 0, 65, 80
2, 48716, Note_off_c, 0, 77, 100
2, 48716, Note_off_c, 0, 65, 100
2, 48720, Note_on_c, 0, 77, 80
2, 48720, Note_on_c, 0, 89, 80
2, 48812, Note_off_c, 0, 77, 100
2, 48812, Note_off_c, 0, 89, 100
2, 48816, Note_on_c, 0, 76, 80
2, 48816, Note_on_c, 0, 88, 80
2, 48908, Note_off_c, 0, 76, 100
2, 48908, Note_off_c, 0, 88, 100
2, 48912, Note_on_c, 0, 88, 80
2, 48912, Note_on_c, 0, 76, 80
2, 49004, Note_off_c, 0, 88, 100
2, 49004, Note_off_c, 0, 76, 100
2, 49008, Note_on_c, 0, 75, 80
2, 49008, Note_on_c, 0, 87, 80
2, 49100, Note_off_c, 0, 75, 100
2, 49100, Note_off_c, 0, 87, 100
2, 49104, Note_on_c, 0, 87, 80
2, 49104, Note_on_c, 0, 75, 80
2, 49196, Note_off_c, 0, 75, 100
2, 49196, Note_off_c, 0, 87, 100
2, 49200, Note_on_c, 0, 85, 80
2, 49200, Note_on_c, 0, 73, 80
2, 49292, Note_off_c, 0, 85, 100
2, 49292, Note_off_c, 0, 73, 100
2, 49296, Note_on_c, 0, 85, 80
2, 49296, Note_on_c, 0, 73, 80
2, 49388, Note_off_c, 0, 85, 100
2, 49388, Note_off_c, 0, 73, 100
2, 49392, Note_on_c, 0, 82, 80
2, 49392, Note_on_c, 0, 70, 80
2, 49484, Note_off_c, 0, 82, 100
2, 49484, Note_off_c, 0, 70, 100
2, 49488, Note_on_c, 0, 82, 80
2, 49488, Note_on_c, 0, 70, 80
2, 49580, Note_off_c, 0, 82, 100
2, 49580, Note_off_c, 0, 70, 100
2, 49584, Note_on_c, 0, 77, 80
2, 49584, Note_on_c, 0, 73, 80
2, 49584, Note_on_c, 0, 65, 80
2, 49676, Note_off_c, 0, 77, 100
2, 49676, Note_off_c, 0, 73, 100
2, 49676, Note_off_c, 0, 65, 100
2, 49680, Note_on_c, 0, 76, 80
2, 49680, Note_on_c, 0, 73, 80
2, 49680, Note_on_c, 0, 64, 80
2, 49772, Note_off_c, 0, 64, 100
2, 49772, Note_off_c, 0, 73, 100
2, 49772, Note_off_c, 0, 76, 100
2, 49776, Note_on_c, 0, 73, 80
2, 49776, Note_on_c, 0, 63, 80
2, 49776, Note_on_c, 0, 75, 80
2, 49868, Note_off_c, 0, 73, 100
2, 49868, Note_off_c, 0, 63, 100
2, 49868, Note_off_c, 0, 75, 100
2, 49872, Note_on_c, 0, 75, 80
2, 49872, Note_on_c, 0, 87, 80
2, 49964, Note_off_c, 0, 75, 100
2, 49964, Note_off_c, 0, 87, 100
2, 49968, Note_on_c, 0, 86, 80
2, 49968, Note_on_c, 0, 74, 80
2, 50060, Note_off_c, 0, 86, 100
2, 50060, Note_off_c, 0, 74, 100
2, 50064, Note_on_c, 0, 86, 80
2, 50064, Note_on_c, 0, 74, 80
2, 50156, Note_off_c, 0, 86, 100
2, 50156, Note_off_c, 0, 74, 100
2, 50160, Note_on_c, 0, 73, 80
2, 50160, Note_on_c, 0, 85, 80
2, 50252, Note_off_c, 0, 73, 100
2, 50252, Note_off_c, 0, 85, 100
2, 50256, Note_on_c, 0, 73, 80
2, 50256, Note_on_c, 0, 85, 80
2, 50348, Note_off_c, 0, 73, 100
2, 50348, Note_off_c, 0, 85, 100
2, 50352, Note_on_c, 0, 72, 80
2, 50352, Note_on_c, 0, 84, 80
2, 50444, Note_off_c, 0, 72, 100
2, 50444, Note_off_c, 0, 84, 100
2, 50448, Note_on_c, 0, 72, 80
2, 50448, Note_on_c, 0, 84, 80
2, 50540, Note_off_c, 0, 72, 100
2, 50540, Note_off_c, 0, 84, 100
2, 50544, Note_on_c, 0, 68, 80
2, 50544, Note_on_c, 0, 80, 80
2, 50636, Note_off_c, 0, 68, 100
2, 50636, Note_off_c, 0, 80, 100
2, 50640, Note_on_c, 0, 68, 80
2, 50640, Note_on_c, 0, 80, 80
2, 50732, Note_off_c, 0, 68, 100
2, 50732, Note_off_c, 0, 80, 100
2, 50736, Note_on_c, 0, 68, 80
2, 50736, Note_on_c, 0, 80, 80
2, 50828, Note_off_c, 0, 68, 100
2, 50828, Note_off_c, 0, 80, 100
2, 50832, Note_on_c, 0, 68, 80
2, 50832, Note_on_c, 0, 80, 80
2, 50924, Note_off_c, 0, 68, 100
2, 50924, Note_off_c, 0, 80, 100
2, 50928, Note_on_c, 0, 68, 80
2, 50928, Note_on_c, 0, 80, 80
2, 51020, Note_off_c, 0, 68, 100
2, 51020, Note_off_c, 0, 80, 100
2, 51024, Note_on_c, 0, 68, 80
2, 51024, Note_on_c, 0, 80, 80
2, 51116, Note_off_c, 0, 68, 100
2, 51116, Note_off_c, 0, 80, 100
2, 51120, Note_on_c, 0, 80, 80
2, 51120, Note_on_c, 0, 68, 80
2, 51212, Note_off_c, 0, 80, 100
2, 51212, Note_off_c, 0, 68, 100
2, 51216, Note_on_c, 0, 80, 80
2, 51216, Note_on_c, 0, 68, 80
2, 51308, Note_off_c, 0, 80, 100
2, 51308, Note_off_c, 0, 68, 100
2, 51312, Note_on_c, 0, 79, 80
2, 51312, Note_on_c, 0, 67, 80
2, 51404, Note_off_c, 0, 79, 100
2, 51404, Note_off_c, 0, 67, 100
2, 51408, Note_on_c, 0, 79, 80
2, 51408, Note_on_c, 0, 67, 80
2, 51500, Note_off_c, 0, 67, 100
2, 51500, Note_off_c, 0, 79, 100
2, 51504, Note_on_c, 0, 72, 80
2, 51504, Note_on_c, 0, 84, 80
2, 51596, Note_off_c, 0, 72, 100
2, 51596, Note_off_c, 0, 84, 100
2, 51600, Note_on_c, 0, 72, 80
2, 51600, Note_on_c, 0, 84, 80
2, 51692, Note_off_c, 0, 72, 100
2, 51692, Note_off_c, 0, 84, 100
2, 51696, Note_on_c, 0, 76, 80
2, 51696, Note_on_c, 0, 72, 80
2, 51696, Note_on_c, 0, 70, 80
2, 51788, Note_off_c, 0, 76, 100
2, 51788, Note_off_c, 0, 72, 100
2, 51788, Note_off_c, 0, 70, 100
2, 51792, Note_on_c, 0, 76, 80
2, 51792, Note_on_c, 0, 72, 80
2, 51792, Note_on_c, 0, 70, 80
2, 51884, Note_off_c, 0, 76, 100
2, 51884, Note_off_c, 0, 72, 100
2, 51884, Note_off_c, 0, 70, 100
2, 51888, Note_on_c, 0, 77, 80
2, 51888, Note_on_c, 0, 72, 80
2, 51888, Note_on_c, 0, 68, 80
2, 51980, Note_off_c, 0, 77, 100
2, 51980, Note_off_c, 0, 72, 100
2, 51980, Note_off_c, 0, 68, 100
2, 51984, Note_on_c, 0, 77, 80
2, 51984, Note_on_c, 0, 72, 80
2, 51984, Note_on_c, 0, 68, 80
2, 52076, Note_off_c, 0, 68, 100
2, 52076, Note_off_c, 0, 72, 100
2, 52076, Note_off_c, 0, 77, 100
2, 52080, Note_on_c, 0, 79, 80
2, 52080, Note_on_c, 0, 67, 80
2, 52172, Note_off_c, 0, 79, 100
2, 52172, Note_off_c, 0, 67, 100
2, 52176, Note_on_c, 0, 79, 80
2, 52176, Note_on_c, 0, 67, 80
2, 52268, Note_off_c, 0, 79, 100
2, 52268, Note_off_c, 0, 67, 100
2, 52272, Note_on_c, 0, 79, 80
2, 52272, Note_on_c, 0, 67, 80
2, 52364, Note_off_c, 0, 79, 100
2, 52364, Note_off_c, 0, 67, 100
2, 52368, Note_on_c, 0, 79, 80
2, 52368, Note_on_c, 0, 67, 80
2, 52460, Note_off_c, 0, 79, 100
2, 52460, Note_off_c, 0, 67, 100
2, 52464, Note_on_c, 0, 80, 80
2, 52464, Note_on_c, 0, 77, 80
2, 52464, Note_on_c, 0, 68, 80
2, 52556, Note_off_c, 0, 80, 100
2, 52556, Note_off_c, 0, 77, 100
2, 52556, Note_off_c, 0, 68, 100
2, 52560, Note_on_c, 0, 80, 80
2, 52560, Note_on_c, 0, 77, 80
2, 52560, Note_on_c, 0, 68, 80
2, 52652, Note_off_c, 0, 68, 100
2, 52652, Note_off_c, 0, 77, 100
2, 52652, Note_off_c, 0, 80, 100
2, 52656, Note_on_c, 0, 79, 80
2, 52656, Note_on_c, 0, 67, 80
2, 52656, Note_on_c, 0, 77, 80
2, 52748, Note_off_c, 0, 79, 100
2, 52748, Note_off_c, 0, 67, 100
2, 52748, Note_off_c, 0, 77, 100
2, 52752, Note_on_c, 0, 79, 80
2, 52752, Note_on_c, 0, 75, 80
2, 52752, Note_on_c, 0, 67, 80
2, 52844, Note_off_c, 0, 79, 100
2, 52844, Note_off_c, 0, 75, 100
2, 52844, Note_off_c, 0, 67, 100
2, 52848, Note_on_c, 0, 79, 80
2, 52848, Note_on_c, 0, 75, 80
2, 52848, Note_on_c, 0, 67, 80
2, 52940, Note_off_c, 0, 79, 100
2, 52940, Note_off_c, 0, 75, 100
2, 52940, Note_off_c, 0, 67, 100
2, 52944, Note_on_c, 0, 79, 80
2, 52944, Note_on_c, 0, 75, 80
2, 52944, Note_on_c, 0, 67, 80
2, 53036, Note_off_c, 0, 79, 100
2, 53036, Note_off_c, 0, 75, 100
2, 53036, Note_off_c, 0, 67, 100
2, 53040, Note_on_c, 0, 84, 80
2, 53040, Note_on_c, 0, 75, 80
2, 53040, Note_on_c, 0, 72, 80
2, 53132, Note_off_c, 0, 84, 100
2, 53132, Note_off_c, 0, 75, 100
2, 53132, Note_off_c, 0, 72, 100
2, 53136, Note_on_c, 0, 84, 80
2, 53136, Note_on_c, 0, 75, 80
2, 53136, Note_on_c, 0, 72, 80
2, 53228, Note_off_c, 0, 72, 100
2, 53228, Note_off_c, 0, 75, 100
2, 53228, Note_off_c, 0, 84, 100
2, 53232, Note_on_c, 0, 82, 80
2, 53232, Note_on_c, 0, 79, 80
2, 53232, Note_on_c, 0, 75, 80
2, 53232, Note_on_c, 0, 70, 80
2, 53324, Note_off_c, 0, 82, 100
2, 53324, Note_off_c, 0, 79, 100
2, 53324, Note_off_c, 0, 75, 100
2, 53324, Note_off_c, 0, 70, 100
2, 53328, Note_on_c, 0, 82, 80
2, 53328, Note_on_c, 0, 79, 80
2, 53328, Note_on_c, 0, 75, 80
2, 53328, Note_on_c, 0, 70, 80
2, 53420, Note_off_c, 0, 82, 100
2, 53420, Note_off_c, 0, 79, 100
2, 53420, Note_off_c, 0, 75, 100
2, 53420, Note_off_c, 0, 70, 100
2, 53424, Note_on_c, 0, 75, 80
2, 53424, Note_on_c, 0, 70, 80
2, 53424, Note_on_c, 0, 67, 80
2, 53516, Note_off_c, 0, 75, 100
2, 53516, Note_off_c, 0, 70, 100
2, 53516, Note_off_c, 0, 67, 100
2, 53520, Note_on_c, 0, 75, 80
2, 53520, Note_on_c, 0, 70, 80
2, 53520, Note_on_c, 0, 67, 80
2, 53612, Note_off_c, 0, 75, 100
2, 53612, Note_off_c, 0, 70, 100
2, 53612, Note_off_c, 0, 67, 100
2, 53616, Note_on_c, 0, 77, 80
2, 53616, Note_on_c, 0, 70, 80
2, 53616, Note_on_c, 0, 68, 80
2, 53708, Note_off_c, 0, 77, 100
2, 53708, Note_off_c, 0, 70, 100
2, 53708, Note_off_c, 0, 68, 100
2, 53712, Note_on_c, 0, 77, 80
2, 53712, Note_on_c, 0, 70, 80
2, 53712, Note_on_c, 0, 68, 80
2, 53804, Note_off_c, 0, 68, 100
2, 53804, Note_off_c, 0, 70, 100
2, 53804, Note_off_c, 0, 77, 100
2, 53808, Note_on_c, 0, 75, 80
2, 53808, Note_on_c, 0, 70, 80
2, 53808, Note_on_c, 0, 67, 80
2, 53900, Note_off_c, 0, 75, 100
2, 53900, Note_off_c, 0, 70, 100
2, 53900, Note_off_c, 0, 67, 100
2, 53904, Note_on_c, 0, 75, 80
2, 53904, Note_on_c, 0, 70, 80
2, 53904, Note_on_c, 0, 67, 80
2, 53996, Note_off_c, 0, 75, 100
2, 53996, Note_off_c, 0, 70, 100
2, 53996, Note_off_c, 0, 67, 100
2, 54000, Note_on_c, 0, 74, 80
2, 54000, Note_on_c, 0, 68, 80
2, 54000, Note_on_c, 0, 63, 80
2, 54092, Note_off_c, 0, 74, 100
2, 54092, Note_off_c, 0, 68, 100
2, 54092, Note_off_c, 0, 63, 100
2, 54096, Note_on_c, 0, 74, 80
2, 54096, Note_on_c, 0, 68, 80
2, 54096, Note_on_c, 0, 63, 80
2, 54188, Note_off_c, 0, 74, 100
2, 54188, Note_off_c, 0, 68, 100
2, 54188, Note_off_c, 0, 63, 100
2, 54192, Note_on_c, 0, 73, 80
2, 54192, Note_on_c, 0, 70, 80
2, 54192, Note_on_c, 0, 63, 80
2, 54284, Note_off_c, 0, 73, 100
2, 54284, Note_off_c, 0, 70, 100
2, 54284, Note_off_c, 0, 63, 100
2, 54288, Note_on_c, 0, 73, 80
2, 54288, Note_on_c, 0, 70, 80
2, 54288, Note_on_c, 0, 63, 80
2, 54380, Note_off_c, 0, 63, 100
2, 54380, Note_off_c, 0, 70, 100
2, 54380, Note_off_c, 0, 73, 100
2, 54384, Note_on_c, 0, 72, 80
2, 54384, Note_on_c, 0, 68, 80
2, 54384, Note_on_c, 0, 63, 80
2, 54476, Note_off_c, 0, 72, 100
2, 54476, Note_off_c, 0, 68, 100
2, 54476, Note_off_c, 0, 63, 100
2, 54480, Note_on_c, 0, 75, 80
2, 54480, Note_on_c, 0, 72, 80
2, 54480, Note_on_c, 0, 68, 80
2, 54480, Note_on_c, 0, 63, 80
2, 54572, Note_off_c, 0, 75, 100
2, 54572, Note_off_c, 0, 72, 100
2, 54572, Note_off_c, 0, 68, 100
2, 54572, Note_off_c, 0, 63, 100
2, 54576, Note_on_c, 0, 75, 80
2, 54576, Note_on_c, 0, 72, 80
2, 54576, Note_on_c, 0, 68, 80
2, 54576, Note_on_c, 0, 63, 80
2, 54668, Note_off_c, 0, 75, 100
2, 54668, Note_off_c, 0, 72, 100
2, 54668, Note_off_c, 0, 68, 100
2, 54668, Note_off_c, 0, 63, 100
2, 54672, Note_on_c, 0, 75, 80
2, 54672, Note_on_c, 0, 72, 80
2, 54672, Note_on_c, 0, 68, 80
2, 54672, Note_on_c, 0, 63, 80
2, 54764, Note_off_c, 0, 75, 100
2, 54764, Note_off_c, 0, 72, 100
2, 54764, Note_off_c, 0, 68, 100
2, 54764, Note_off_c, 0, 63, 100
2, 54768, Note_on_c, 0, 75, 80
2, 54768, Note_on_c, 0, 72, 80
2, 54768, Note_on_c, 0, 68, 80
2, 54768, Note_on_c, 0, 63, 80
2, 54860, Note_off_c, 0, 75, 100
2, 54860, Note_off_c, 0, 72, 100
2, 54860, Note_off_c, 0, 68, 100
2, 54860, Note_off_c, 0, 63, 100
2, 54864, Note_on_c, 0, 75, 80
2, 54864, Note_on_c, 0, 72, 80
2, 54864, Note_on_c, 0, 68, 80
2, 54864, Note_on_c, 0, 63, 80
2, 54956, Note_off_c, 0, 63, 100
2, 54956, Note_off_c, 0, 68, 100
2, 54956, Note_off_c, 0, 72, 100
2, 54956, Note_off_c, 0, 75, 100
2, 54960, Note_on_c, 0, 75, 80
2, 54960, Note_on_c, 0, 73, 80
2, 54960, Note_on_c, 0, 70, 80
2, 54960, Note_on_c, 0, 63, 80
2, 55052, Note_off_c, 0, 75, 100
2, 55052, Note_off_c, 0, 73, 100
2, 55052, Note_off_c, 0, 70, 100
2, 55052, Note_off_c, 0, 63, 100
2, 55056, Note_on_c, 0, 75, 80
2, 55056, Note_on_c, 0, 73, 80
2, 55056, Note_on_c, 0, 70, 80
2, 55056, Note_on_c, 0, 63, 80
2, 55148, Note_off_c, 0, 75, 100
2, 55148, Note_off_c, 0, 73, 100
2, 55148, Note_off_c, 0, 70, 100
2, 55148, Note_off_c, 0, 63, 100
2, 55152, Note_on_c, 0, 75, 80
2, 55152, Note_on_c, 0, 73, 80
2, 55152, Note_on_c, 0, 70, 80
2, 55152, Note_on_c, 0, 63, 80
2, 55244, Note_off_c, 0, 75, 100
2, 55244, Note_off_c, 0, 73, 100
2, 55244, Note_off_c, 0, 70, 100
2, 55244, Note_off_c, 0, 63, 100
2, 55248, Note_on_c, 0, 75, 80
2, 55248, Note_on_c, 0, 73, 80
2, 55248, Note_on_c, 0, 70, 80
2, 55248, Note_on_c, 0, 63, 80
2, 55340, Note_off_c, 0, 75, 100
2, 55340, Note_off_c, 0, 73, 100
2, 55340, Note_off_c, 0, 70, 100
2, 55340, Note_off_c, 0, 63, 100
2, 55344, Note_on_c, 0, 75, 80
2, 55344, Note_on_c, 0, 73, 80
2, 55344, Note_on_c, 0, 70, 80
2, 55344, Note_on_c, 0, 63, 80
2, 55436, Note_off_c, 0, 75, 100
2, 55436, Note_off_c, 0, 73, 100
2, 55436, Note_off_c, 0, 70, 100
2, 55436, Note_off_c, 0, 63, 100
2, 55440, Note_on_c, 0, 75, 80
2, 55440, Note_on_c, 0, 73, 80
2, 55440, Note_on_c, 0, 70, 80
2, 55440, Note_on_c, 0, 63, 80
2, 55532, Note_off_c, 0, 63, 100
2, 55532, Note_off_c, 0, 70, 100
2, 55532, Note_off_c, 0, 73, 100
2, 55532, Note_off_c, 0, 75, 100
2, 55536, Note_on_c, 0, 75, 80
2, 55536, Note_on_c, 0, 68, 80
2, 55536, Note_on_c, 0, 63, 80
2, 55536, Note_on_c, 0, 72, 80
2, 55628, Note_off_c, 0, 75, 100
2, 55628, Note_off_c, 0, 68, 100
2, 55628, Note_off_c, 0, 63, 100
2, 55628, Note_off_c, 0, 72, 100
2, 55632, Note_on_c, 0, 75, 80
2, 55632, Note_on_c, 0, 72, 80
2, 55632, Note_on_c, 0, 63, 80
2, 55632, Note_on_c, 0, 68, 80
2, 55724, Note_off_c, 0, 75, 100
2, 55724, Note_off_c, 0, 72, 100
2, 55724, Note_off_c, 0, 63, 100
2, 55724, Note_off_c, 0, 68, 100
2, 55728, Note_on_c, 0, 75, 80
2, 55728, Note_on_c, 0, 68, 80
2, 55728, Note_on_c, 0, 63, 80
2, 55728, Note_on_c, 0, 72, 80
2, 55820, Note_off_c, 0, 75, 100
2, 55820, Note_off_c, 0, 68, 100
2, 55820, Note_off_c, 0, 63, 100
2, 55820, Note_off_c, 0, 72, 100
2, 55824, Note_on_c, 0, 75, 80
2, 55824, Note_on_c, 0, 72, 80
2, 55824, Note_on_c, 0, 63, 80
2, 55824, Note_on_c, 0, 68, 80
2, 55916, Note_off_c, 0, 75, 100
2, 55916, Note_off_c, 0, 72, 100
2, 55916, Note_off_c, 0, 63, 100
2, 55916, Note_off_c, 0, 68, 100
2, 55920, Note_on_c, 0, 75, 80
2, 55920, Note_on_c, 0, 63, 80
2, 55920, Note_on_c, 0, 67, 80
2, 55920, Note_on_c, 0, 73, 80
2, 56012, Note_off_c, 0, 75, 100
2, 56012, Note_off_c, 0, 63, 100
2, 56012, Note_off_c, 0, 67, 100
2, 56012, Note_off_c, 0, 73, 100
2, 56016, Note_on_c, 0, 75, 80
2, 56016, Note_on_c, 0, 63, 80
2, 56016, Note_on_c, 0, 67, 80
2, 56108, Note_off_c, 0, 63, 100
2, 56108, Note_off_c, 0, 67, 100
2, 56108, Note_off_c, 0, 75, 100
2, 56112, Note_on_c, 0, 75, 80
2, 56112, Note_on_c, 0, 68, 80
2, 56112, Note_on_c, 0, 63, 80
2, 56204, Note_off_c, 0, 75, 100
2, 56204, Note_off_c, 0, 68, 100
2, 56204, Note_off_c, 0, 63, 100
2, 56208, Note_on_c, 0, 75, 80
2, 56208, Note_on_c, 0, 68, 80
2, 56208, Note_on_c, 0, 63, 80
2, 56300, Note_off_c, 0, 75, 100
2, 56300, Note_off_c, 0, 68, 100
2, 56300, Note_off_c, 0, 63, 100
2, 56304, Note_on_c, 0, 75, 80
2, 56304, Note_on_c, 0, 67, 80
2, 56304, Note_on_c, 0, 63, 80
2, 56396, Note_off_c, 0, 75, 100
2, 56396, Note_off_c, 0, 67, 100
2, 56396, Note_off_c, 0, 63, 100
2, 56400, Note_on_c, 0, 75, 80
2, 56400, Note_on_c, 0, 67, 80
2, 56400, Note_on_c, 0, 63, 80
2, 56492, Note_off_c, 0, 75, 100
2, 56492, Note_off_c, 0, 67, 100
2, 56492, Note_off_c, 0, 63, 100
2, 56496, Note_on_c, 0, 75, 80
2, 56496, Note_on_c, 0, 68, 80
2, 56496, Note_on_c, 0, 66, 80
2, 56496, Note_on_c, 0, 63, 80
2, 56588, Note_off_c, 0, 75, 100
2, 56588, Note_off_c, 0, 68, 100
2, 56588, Note_off_c, 0, 66, 100
2, 56588, Note_off_c, 0, 63, 100
2, 56592, Note_on_c, 0, 75, 80
2, 56592, Note_on_c, 0, 68, 80
2, 56592, Note_on_c, 0, 66, 80
2, 56592, Note_on_c, 0, 63, 80
2, 56684, Note_off_c, 0, 63, 100
2, 56684, Note_off_c, 0, 66, 100
2, 56684, Note_off_c, 0, 68, 100
2, 56684, Note_off_c, 0, 75, 100
2, 56688, Note_on_c, 0, 77, 80
2, 56688, Note_on_c, 0, 68, 80
2, 56688, Note_on_c, 0, 65, 80
2, 56780, Note_off_c, 0, 77, 100
2, 56780, Note_off_c, 0, 68, 100
2, 56780, Note_off_c, 0, 65, 100
2, 56784, Note_on_c, 0, 77, 80
2, 56784, Note_on_c, 0, 68, 80
2, 56784, Note_on_c, 0, 65, 80
2, 56876, Note_off_c, 0, 77, 100
2, 56876, Note_off_c, 0, 68, 100
2, 56876, Note_off_c, 0, 65, 100
2, 56880, Note_on_c, 0, 80, 80
2, 56880, Note_on_c, 0, 68, 80
2, 56972, Note_off_c, 0, 80, 100
2, 56972, Note_off_c, 0, 68, 100
2, 56976, Note_on_c, 0, 80, 80
2, 56976, Note_on_c, 0, 68, 80
2, 57068, Note_off_c, 0, 80, 100
2, 57068, Note_off_c, 0, 68, 100
2, 57072, Note_on_c, 0, 80, 80
2, 57072, Note_on_c, 0, 68, 80
2, 57164, Note_off_c, 0, 80, 100
2, 57164, Note_off_c, 0, 68, 100
2, 57168, Note_on_c, 0, 80, 80
2, 57168, Note_on_c, 0, 68, 80
2, 57260, Note_off_c, 0, 68, 100
2, 57260, Note_off_c, 0, 80, 100
2, 57264, Note_on_c, 0, 80, 80
2, 57264, Note_on_c, 0, 68, 80
2, 57356, Note_off_c, 0, 80, 100
2, 57356, Note_off_c, 0, 68, 100
2, 57360, Note_on_c, 0, 80, 80
2, 57360, Note_on_c, 0, 68, 80
2, 57452, Note_off_c, 0, 80, 100
2, 57452, Note_off_c, 0, 68, 100
2, 57456, Note_on_c, 0, 79, 80
2, 57456, Note_on_c, 0, 67, 80
2, 57548, Note_off_c, 0, 79, 100
2, 57548, Note_off_c, 0, 67, 100
2, 57552, Note_on_c, 0, 79, 80
2, 57552, Note_on_c, 0, 67, 80
2, 57644, Note_off_c, 0, 79, 100
2, 57644, Note_off_c, 0, 67, 100
2, 57648, Note_on_c, 0, 80, 80
2, 57648, Note_on_c, 0, 68, 80
2, 57740, Note_off_c, 0, 80, 100
2, 57740, Note_off_c, 0, 68, 100
2, 57744, Note_on_c, 0, 80, 80
2, 57744, Note_on_c, 0, 68, 80
2, 57836, Note_off_c, 0, 68, 100
2, 57836, Note_off_c, 0, 80, 100
2, 57840, Note_on_c, 0, 75, 80
2, 57840, Note_on_c, 0, 72, 80
2, 57840, Note_on_c, 0, 63, 80
2, 57932, Note_off_c, 0, 75, 100
2, 57932, Note_off_c, 0, 72, 100
2, 57932, Note_off_c, 0, 63, 100
2, 57936, Note_on_c, 0, 75, 80
2, 57936, Note_on_c, 0, 72, 80
2, 57936, Note_on_c, 0, 63, 80
2, 58028, Note_off_c, 0, 75, 100
2, 58028, Note_off_c, 0, 72, 100
2, 58028, Note_off_c, 0, 63, 100
2, 58032, Note_on_c, 0, 75, 80
2, 58032, Note_on_c, 0, 72, 80
2, 58032, Note_on_c, 0, 68, 80
2, 58032, Note_on_c, 0, 63, 80
2, 58124, Note_off_c, 0, 75, 100
2, 58124, Note_off_c, 0, 72, 100
2, 58124, Note_off_c, 0, 68, 100
2, 58124, Note_off_c, 0, 63, 100
2, 58128, Note_on_c, 0, 75, 80
2, 58128, Note_on_c, 0, 72, 80
2, 58128, Note_on_c, 0, 68, 80
2, 58128, Note_on_c, 0, 63, 80
2, 58220, Note_off_c, 0, 75, 100
2, 58220, Note_off_c, 0, 72, 100
2, 58220, Note_off_c, 0, 68, 100
2, 58220, Note_off_c, 0, 63, 100
2, 58224, Note_on_c, 0, 67, 80
2, 58224, Note_on_c, 0, 63, 80
2, 58224, Note_on_c, 0, 61, 80
2, 58316, Note_off_c, 0, 67, 100
2, 58316, Note_off_c, 0, 63, 100
2, 58316, Note_off_c, 0, 61, 100
2, 58320, Note_on_c, 0, 67, 80
2, 58320, Note_on_c, 0, 63, 80
2, 58320, Note_on_c, 0, 61, 80
2, 58412, Note_off_c, 0, 61, 100
2, 58412, Note_off_c, 0, 63, 100
2, 58412, Note_off_c, 0, 67, 100
2, 58416, Note_on_c, 0, 68, 80
2, 58416, Note_on_c, 0, 63, 80
2, 58416, Note_on_c, 0, 60, 80
2, 58508, Note_off_c, 0, 68, 100
2, 58508, Note_off_c, 0, 63, 100
2, 58508, Note_off_c, 0, 60, 100
2, 58512, Note_on_c, 0, 68, 80
2, 58512, Note_on_c, 0, 63, 80
2, 58512, Note_on_c, 0, 60, 80
2, 58604, Note_off_c, 0, 68, 100
2, 58604, Note_off_c, 0, 63, 100
2, 58604, Note_off_c, 0, 60, 100
2, 58752, Note_on_c, 0, 51, 80
2, 58844, Note_off_c, 0, 51, 100
2, 58848, Note_on_c, 0, 51, 80
2, 58944, Key_signature, -7, "minor"
2, 59036, Note_off_c, 0, 51, 100
2, 59040, Note_on_c, 0, 56, 80
2, 59228, Note_off_c, 0, 56, 100
2, 59232, Note_on_c, 0, 56, 80
2, 59420, Note_off_c, 0, 56, 100
2, 59424, Note_on_c, 0, 56, 80
2, 59612, Note_off_c, 0, 56, 100
2, 59616, Note_on_c, 0, 55, 80
2, 59804, Note_off_c, 0, 55, 100
2, 59808, Note_on_c, 0, 55, 80
2, 59996, Note_off_c, 0, 55, 100
2, 60000, Note_on_c, 0, 55, 80
2, 60188, Note_off_c, 0, 55, 100
2, 60192, Note_on_c, 0, 56, 80
2, 60380, Note_off_c, 0, 56, 100
2, 60384, Note_on_c, 0, 56, 80
2, 60572, Note_off_c, 0, 56, 100
2, 60576, Note_on_c, 0, 56, 80
2, 60764, Note_off_c, 0, 56, 100
2, 60768, Note_on_c, 0, 57, 80
2, 60956, Note_off_c, 0, 57, 100
2, 60960, Note_on_c, 0, 57, 80
2, 61148, Note_off_c, 0, 57, 100
2, 61152, Note_on_c, 0, 57, 80
2, 61340, Note_off_c, 0, 57, 100
2, 61344, Note_on_c, 0, 60, 81
2, 61532, Note_off_c, 0, 60, 100
2, 61536, Note_on_c, 0, 60, 83
2, 61724, Note_off_c, 0, 60, 100
2, 61728, Note_on_c, 0, 60, 85
2, 61916, Note_off_c, 0, 60, 100
2, 61920, Note_on_c, 0, 61, 87
2, 62108, Note_off_c, 0, 61, 100
2, 62112, Note_on_c, 0, 61, 89
2, 62300, Note_off_c, 0, 61, 100
2, 62304, Note_on_c, 0, 61, 92
2, 62492, Note_off_c, 0, 61, 100
2, 62496, Note_on_c, 0, 62, 94
2, 62684, Note_off_c, 0, 62, 100
2, 62688, Note_on_c, 0, 62, 96
2, 62876, Note_off_c, 0, 62, 100
2, 62880, Note_on_c, 0, 62, 98
2, 63164, Note_off_c, 0, 62, 100
2, 63168, Note_on_c, 0, 63, 80
2, 63356, Note_off_c, 0, 63, 100
2, 63360, Note_on_c, 0, 63, 80
2, 63360, Note_on_c, 0, 51, 80
2, 63452, Note_off_c, 0, 63, 100
2, 63452, Note_off_c, 0, 51, 100
2, 63456, Note_on_c, 0, 63, 80
2, 63456, Note_on_c, 0, 51, 80
2, 63644, Note_off_c, 0, 51, 100
2, 63644, Note_off_c, 0, 63, 100
2, 63648, Note_on_c, 0, 68, 80
2, 63648, Note_on_c, 0, 56, 80
2, 63836, Note_off_c, 0, 68, 100
2, 63836, Note_off_c, 0, 56, 100
2, 63840, Note_on_c, 0, 68, 80
2, 63840, Note_on_c, 0, 56, 80
2, 64028, Note_off_c, 0, 68, 100
2, 64028, Note_off_c, 0, 56, 100
2, 64032, Note_on_c, 0, 68, 80
2, 64032, Note_on_c, 0, 56, 80
2, 64220, Note_off_c, 0, 56, 100
2, 64220, Note_off_c, 0, 68, 100
2, 64224, Note_on_c, 0, 67, 80
2, 64224, Note_on_c, 0, 55, 80
2, 64412, Note_off_c, 0, 67, 100
2, 64412, Note_off_c, 0, 55, 100
2, 64416, Note_on_c, 0, 67, 80
2, 64416, Note_on_c, 0, 55, 80
2, 64604, Note_off_c, 0, 67, 100
2, 64604, Note_off_c, 0, 55, 100
2, 64608, Note_on_c, 0, 67, 80
2, 64608, Note_on_c, 0, 55, 80
2, 64796, Note_off_c, 0, 55, 100
2, 64796, Note_off_c, 0, 67, 100
2, 64800, Note_on_c, 0, 68, 80
2, 64800, Note_on_c, 0, 56, 80
2, 64988, Note_off_c, 0, 68, 100
2, 64988, Note_off_c, 0, 56, 100
2, 64992, Note_on_c, 0, 68, 80
2, 64992, Note_on_c, 0, 56, 80
2, 65180, Note_off_c, 0, 68, 100
2, 65180, Note_off_c, 0, 56, 100
2, 65184, Note_on_c, 0, 68, 80
2, 65184, Note_on_c, 0, 56, 80
2, 65372, Note_off_c, 0, 56, 100
2, 65372, Note_off_c, 0, 68, 100
2, 65376, Note_on_c, 0, 69, 80
2, 65376, Note_on_c, 0, 57, 80
2, 65564, Note_off_c, 0, 69, 100
2, 65564, Note_off_c, 0, 57, 100
2, 65568, Note_on_c, 0, 69, 80
2, 65568, Note_on_c, 0, 57, 80
2, 65756, Note_off_c, 0, 69, 100
2, 65756, Note_off_c, 0, 57, 100
2, 65760, Note_on_c, 0, 69, 80
2, 65760, Note_on_c, 0, 57, 80
2, 65948, Note_off_c, 0, 57, 100
2, 65948, Note_off_c, 0, 69, 100
2, 65952, Note_on_c, 0, 72, 81
2, 65952, Note_on_c, 0, 60, 81
2, 66140, Note_off_c, 0, 72, 100
2, 66140, Note_off_c, 0, 60, 100
2, 66144, Note_on_c, 0, 72, 84
2, 66144, Note_on_c, 0, 60, 84
2, 66332, Note_off_c, 0, 72, 100
2, 66332, Note_off_c, 0, 60, 100
2, 66336, Note_on_c, 0, 72, 88
2, 66336, Note_on_c, 0, 60, 88
2, 66524, Note_off_c, 0, 60, 100
2, 66524, Note_off_c, 0, 72, 100
2, 66528, Note_on_c, 0, 73, 91
2, 66528, Note_on_c, 0, 61, 91
2, 66716, Note_off_c, 0, 73, 100
2, 66716, Note_off_c, 0, 61, 100
2, 66720, Note_on_c, 0, 73, 94
2, 66720, Note_on_c, 0, 61, 94
2, 66908, Note_off_c, 0, 73, 100
2, 66908, Note_off_c, 0, 61, 100
2, 66912, Note_on_c, 0, 74, 98
2, 66912, Note_on_c, 0, 62, 98
2, 67100, Note_off_c, 0, 62, 100
2, 67100, Note_off_c, 0, 74, 100
2, 67104, Note_on_c, 0, 75, 97
2, 67104, Note_on_c, 0, 63, 97
2, 67292, Note_off_c, 0, 75, 100
2, 67292, Note_off_c, 0, 63, 100
2, 67296, Note_on_c, 0, 75, 89
2, 67296, Note_on_c, 0, 63, 89
2, 67484, Note_off_c, 0, 75, 100
2, 67484, Note_off_c, 0, 63, 100
2, 67488, Note_on_c, 0, 75, 81
2, 67488, Note_on_c, 0, 63, 81
2, 67580, Note_off_c, 0, 75, 100
2, 67580, Note_off_c, 0, 63, 100
2, 67584, Note_on_c, 0, 68, 80
2, 67772, Note_off_c, 0, 68, 100
2, 67968, Note_on_c, 0, 69, 101
2, 68160, Note_on_c, 0, 78, 100
2, 68160, Note_on_c, 0, 75, 80
2, 68348, Note_off_c, 0, 69, 100
2, 68352, Note_on_c, 0, 68, 80
2, 68544, Note_on_c, 0, 72, 80
2, 68732, Note_off_c, 0, 75, 100
2, 68732, Note_off_c, 0, 68, 100
2, 68732, Note_off_c, 0, 72, 100
2, 68736, Note_on_c, 0, 73, 80
2, 68736, Note_on_c, 0, 68, 80
2, 68924, Note_off_c, 0, 78, 100
2, 68928, Note_on_c, 0, 76, 80
2, 69116, Note_off_c, 0, 73, 100
2, 69116, Note_off_c, 0, 68, 100
2, 69116, Note_off_c, 0, 76, 100
2, 69120, Note_on_c, 0, 64, 102
2, 69312, Note_on_c, 0, 73, 104
2, 69312, Note_on_c, 0, 70, 80
2, 69500, Note_off_c, 0, 64, 100
2, 69504, Note_on_c, 0, 63, 80
2, 69696, Note_on_c, 0, 67, 80
2, 69884, Note_off_c, 0, 70, 100
2, 69884, Note_off_c, 0, 67, 100
2, 69888, Note_on_c, 0, 68, 80
2, 70076, Note_off_c, 0, 73, 100
2, 70080, Note_on_c, 0, 71, 80
2, 70268, Note_off_c, 0, 63, 100
2, 70268, Note_off_c, 0, 68, 100
2, 70268, Note_off_c, 0, 71, 100
2, 70272, Note_on_c, 0, 71, 80
2, 70272, Note_on_c, 0, 59, 80
2, 70364, Note_off_c, 0, 71, 100
2, 70364, Note_off_c, 0, 59, 100
2, 70368, Note_on_c, 0, 59, 90
2, 70368, Note_on_c, 0, 71, 90
2, 70556, Note_off_c, 0, 59, 100
2, 70556, Note_off_c, 0, 71, 100
2, 70560, Note_on_c, 0, 70, 80
2, 70560, Note_on_c, 0, 58, 80
2, 70748, Note_off_c, 0, 70, 100
2, 70748, Note_off_c, 0, 58, 100
2, 70752, Note_on_c, 0, 70, 80
2, 70752, Note_on_c, 0, 58, 80
2, 70844, Note_off_c, 0, 70, 100
2, 70844, Note_off_c, 0, 58, 100
2, 70848, Note_on_c, 0, 80, 80
2, 70848, Note_on_c, 0, 68, 80
2, 70940, Note_off_c, 0, 80, 100
2, 70940, Note_off_c, 0, 68, 100
2, 70944, Note_on_c, 0, 80, 90
2, 70944, Note_on_c, 0, 68, 90
2, 71132, Note_off_c, 0, 68, 100
2, 71132, Note_off_c, 0, 80, 100
2, 71136, Note_on_c, 0, 78, 80
2, 71136, Note_on_c, 0, 66, 80
2, 71324, Note_off_c, 0, 78, 100
2, 71324, Note_off_c, 0, 66, 100
2, 71328, Note_on_c, 0, 78, 80
2, 71328, Note_on_c, 0, 66, 80
2, 71420, Note_off_c, 0, 78, 100
2, 71420, Note_off_c, 0, 66, 100
2, 71424, Note_on_c, 0, 77, 80
2, 71424, Note_on_c, 0, 65, 80
2, 71516, Note_off_c, 0, 77, 100
2, 71516, Note_off_c, 0, 65, 100
2, 71520, Note_on_c, 0, 77, 90
2, 71520, Note_on_c, 0, 65, 90
2, 71708, Note_off_c, 0, 65, 100
2, 71708, Note_off_c, 0, 77, 100
2, 71712, Note_on_c, 0, 75, 80
2, 71712, Note_on_c, 0, 63, 80
2, 71900, Note_off_c, 0, 75, 100
2, 71900, Note_off_c, 0, 63, 100
2, 71904, Note_on_c, 0, 75, 80
2, 71904, Note_on_c, 0, 63, 80
2, 71996, Note_off_c, 0, 75, 100
2, 71996, Note_off_c, 0, 63, 100
2, 72000, Note_on_c, 0, 74, 80
2, 72000, Note_on_c, 0, 62, 80
2, 72092, Note_off_c, 0, 74, 100
2, 72092, Note_off_c, 0, 62, 100
2, 72096, Note_on_c, 0, 74, 90
2, 72096, Note_on_c, 0, 62, 90
2, 72284, Note_off_c, 0, 62, 100
2, 72284, Note_off_c, 0, 74, 100
2, 72288, Note_on_c, 0, 75, 80
2, 72288, Note_on_c, 0, 63, 80
2, 72476, Note_off_c, 0, 75, 100
2, 72476, Note_off_c, 0, 63, 100
2, 72480, Note_on_c, 0, 75, 80
2, 72480, Note_on_c, 0, 63, 80
2, 72572, Note_off_c, 0, 75, 100
2, 72572, Note_off_c, 0, 63, 100
2, 72576, Note_on_c, 0, 77, 80
2, 72576, Note_on_c, 0, 65, 80
2, 72668, Note_off_c, 0, 77, 100
2, 72668, Note_off_c, 0, 65, 100
2, 72672, Note_on_c, 0, 77, 90
2, 72672, Note_on_c, 0, 65, 90
2, 72860, Note_off_c, 0, 65, 100
2, 72860, Note_off_c, 0, 77, 100
2, 72864, Note_on_c, 0, 75, 80
2, 72864, Note_on_c, 0, 63, 80
2, 73052, Note_off_c, 0, 75, 100
2, 73052, Note_off_c, 0, 63, 100
2, 73056, Note_on_c, 0, 75, 80
2, 73056, Note_on_c, 0, 63, 80
2, 73148, Note_off_c, 0, 75, 100
2, 73148, Note_off_c, 0, 63, 100
2, 73152, Note_on_c, 0, 74, 80
2, 73152, Note_on_c, 0, 62, 80
2, 73244, Note_off_c, 0, 74, 100
2, 73244, Note_off_c, 0, 62, 100
2, 73248, Note_on_c, 0, 74, 90
2, 73248, Note_on_c, 0, 62, 90
2, 73436, Note_off_c, 0, 62, 100
2, 73436, Note_off_c, 0, 74, 100
2, 73440, Note_on_c, 0, 75, 80
2, 73440, Note_on_c, 0, 63, 80
2, 73628, Note_off_c, 0, 75, 100
2, 73628, Note_off_c, 0, 63, 100
2, 73632, Note_on_c, 0, 63, 80
2, 73632, Note_on_c, 0, 51, 80
2, 73820, Note_off_c, 0, 63, 100
2, 73820, Note_off_c, 0, 51, 100
2, 73824, Note_on_c, 0, 63, 80
2, 73824, Note_on_c, 0, 51, 80
2, 74012, Note_off_c, 0, 51, 100
2, 74012, Note_off_c, 0, 63, 100
2, 74016, Note_on_c, 0, 68, 80
2, 74016, Note_on_c, 0, 56, 80
2, 74204, Note_off_c, 0, 68, 100
2, 74204, Note_off_c, 0, 56, 100
2, 74208, Note_on_c, 0, 68, 80
2, 74208, Note_on_c, 0, 56, 80
2, 74396, Note_off_c, 0, 68, 100
2, 74396, Note_off_c, 0, 56, 100
2, 74400, Note_on_c, 0, 68, 80
2, 74400, Note_on_c, 0, 56, 80
2, 74588, Note_off_c, 0, 56, 100
2, 74588, Note_off_c, 0, 68, 100
2, 74592, Note_on_c, 0, 67, 80
2, 74592, Note_on_c, 0, 55, 80
2, 74780, Note_off_c, 0, 67, 100
2, 74780, Note_off_c, 0, 55, 100
2, 74784, Note_on_c, 0, 67, 80
2, 74784, Note_on_c, 0, 55, 80
2, 74972, Note_off_c, 0, 67, 100
2, 74972, Note_off_c, 0, 55, 100
2, 74976, Note_on_c, 0, 67, 80
2, 74976, Note_on_c, 0, 55, 80
2, 75164, Note_off_c, 0, 55, 100
2, 75164, Note_off_c, 0, 67, 100
2, 75168, Note_on_c, 0, 68, 80
2, 75168, Note_on_c, 0, 56, 80
2, 75356, Note_off_c, 0, 68, 100
2, 75356, Note_off_c, 0, 56, 100
2, 75360, Note_on_c, 0, 68, 80
2, 75360, Note_on_c, 0, 56, 80
2, 75548, Note_off_c, 0, 68, 100
2, 75548, Note_off_c, 0, 56, 100
2, 75552, Note_on_c, 0, 68, 80
2, 75552, Note_on_c, 0, 56, 80
2, 75740, Note_off_c, 0, 56, 100
2, 75740, Note_off_c, 0, 68, 100
2, 75744, Note_on_c, 0, 69, 80
2, 75744, Note_on_c, 0, 57, 80
2, 75932, Note_off_c, 0, 69, 100
2, 75932, Note_off_c, 0, 57, 100
2, 75936, Note_on_c, 0, 69, 80
2, 75936, Note_on_c, 0, 57, 80
2, 76124, Note_off_c, 0, 69, 100
2, 76124, Note_off_c, 0, 57, 100
2, 76128, Note_on_c, 0, 69, 80
2, 76128, Note_on_c, 0, 57, 80
2, 76316, Note_off_c, 0, 57, 100
2, 76316, Note_off_c, 0, 69, 100
2, 76320, Note_on_c, 0, 72, 81
2, 76320, Note_on_c, 0, 60, 81
2, 76508, Note_off_c, 0, 72, 100
2, 76508, Note_off_c, 0, 60, 100
2, 76512, Note_on_c, 0, 72, 84
2, 76512, Note_on_c, 0, 60, 84
2, 76700, Note_off_c, 0, 72, 100
2, 76700, Note_off_c, 0, 60, 100
2, 76704, Note_on_c, 0, 72, 88
2, 76704, Note_on_c, 0, 60, 88
2, 76892, Note_off_c, 0, 60, 100
2, 76892, Note_off_c, 0, 72, 100
2, 76896, Note_on_c, 0, 73, 91
2, 76896, Note_on_c, 0, 61, 91
2, 77084, Note_off_c, 0, 73, 100
2, 77084, Note_off_c, 0, 61, 100
2, 77088, Note_on_c, 0, 73, 94
2, 77088, Note_on_c, 0, 61, 94
2, 77276, Note_off_c, 0, 73, 100
2, 77276, Note_off_c, 0, 61, 100
2, 77280, Note_on_c, 0, 74, 98
2, 77280, Note_on_c, 0, 62, 98
2, 77468, Note_off_c, 0, 62, 100
2, 77468, Note_off_c, 0, 74, 100
2, 77472, Note_on_c, 0, 75, 97
2, 77472, Note_on_c, 0, 63, 97
2, 77660, Note_off_c, 0, 75, 100
2, 77660, Note_off_c, 0, 63, 100
2, 77664, Note_on_c, 0, 75, 91
2, 77664, Note_on_c, 0, 63, 91
2, 77852, Note_off_c, 0, 75, 100
2, 77852, Note_off_c, 0, 63, 100
2, 77856, Note_on_c, 0, 75, 84
2, 77856, Note_on_c, 0, 63, 84
2, 77948, Note_off_c, 0, 75, 100
2, 77948, Note_off_c, 0, 63, 100
2, 77952, Note_on_c, 0, 68, 81
2, 78140, Note_off_c, 0, 68, 100
2, 78336, Note_on_c, 0, 63, 80
2, 78528, Key_signature, -4, "major"
2, 78716, Note_off_c, 0, 63, 100
2, 78720, Note_on_c, 0, 68, 80
2, 78908, Note_off_c, 0, 68, 100
2, 78912, Note_on_c, 0, 80, 80
2, 79292, Note_off_c, 0, 80, 100
2, 79296, Note_on_c, 0, 79, 80
2, 79484, Note_off_c, 0, 79, 100
2, 79488, Note_on_c, 0, 67, 80
2, 79868, Note_off_c, 0, 67, 100
2, 79872, Note_on_c, 0, 68, 80
2, 80060, Note_off_c, 0, 68, 100
2, 80064, Note_on_c, 0, 80, 80
2, 80064, Note_on_c, 0, 84, 80
2, 80444, Note_off_c, 0, 80, 100
2, 80444, Note_off_c, 0, 84, 100
2, 80448, Note_on_c, 0, 82, 80
2, 80448, Note_on_c, 0, 79, 80
2, 80636, Note_off_c, 0, 82, 100
2, 80636, Note_off_c, 0, 79, 100
2, 80640, Note_on_c, 0, 73, 80
2, 80640, Note_on_c, 0, 65, 80
2, 80828, Note_off_c, 0, 65, 100
2, 80832, Note_on_c, 0, 64, 80
2, 81020, Note_off_c, 0, 73, 100
2, 81020, Note_off_c, 0, 64, 100
2, 81024, Note_on_c, 0, 72, 80
2, 81024, Note_on_c, 0, 63, 80
2, 81212, Note_off_c, 0, 72, 100
2, 81212, Note_off_c, 0, 63, 100
2, 81216, Note_on_c, 0, 77, 80
2, 81216, Note_on_c, 0, 89, 80
2, 81596, Note_off_c, 0, 77, 100
2, 81596, Note_off_c, 0, 89, 100
2, 81600, Note_on_c, 0, 87, 80
2, 81600, Note_on_c, 0, 75, 80
2, 81788, Note_off_c, 0, 87, 100
2, 81788, Note_off_c, 0, 75, 100
2, 81792, Note_on_c, 0, 62, 80
2, 81792, Note_on_c, 0, 59, 80
2, 81792, Note_on_c, 0, 56, 80
2, 81980, Note_off_c, 0, 62, 100
2, 81980, Note_off_c, 0, 59, 100
2, 81980, Note_off_c, 0, 56, 100
2, 81984, Note_on_c, 0, 61, 80
2, 81984, Note_on_c, 0, 58, 80
2, 81984, Note_on_c, 0, 52, 80
2, 82172, Note_off_c, 0, 61, 100
2, 82172, Note_off_c, 0, 58, 100
2, 82172, Note_off_c, 0, 52, 100
2, 82176, Note_on_c, 0, 60, 83
2, 82176, Note_on_c, 0, 56, 83
2, 82176, Note_on_c, 0, 51, 83
2, 82364, Note_off_c, 0, 60, 100
2, 82364, Note_off_c, 0, 56, 100
2, 82364, Note_off_c, 0, 51, 100
2, 82368, Note_on_c, 0, 59, 87
2, 82368, Note_on_c, 0, 56, 87
2, 82368, Note_on_c, 0, 53, 87
2, 82748, Note_off_c, 0, 53, 100
2, 82748, Note_off_c, 0, 56, 100
2, 82748, Note_off_c, 0, 59, 100
2, 82752, Note_on_c, 0, 58, 94
2, 82752, Note_on_c, 0, 55, 94
2, 82940, Note_off_c, 0, 58, 100
2, 82940, Note_off_c, 0, 55, 100
2, 82944, Note_on_c, 0, 63, 80
2, 82944, Note_on_c, 0, 51, 80
2, 83324, Note_off_c, 0, 51, 100
2, 83324, Note_off_c, 0, 63, 100
2, 83328, Note_on_c, 0, 68, 80
2, 83328, Note_on_c, 0, 56, 80
2, 83516, Note_off_c, 0, 68, 100
2, 83516, Note_off_c, 0, 56, 100
2, 83520, Note_on_c, 0, 80, 80
2, 83520, Note_on_c, 0, 68, 80
2, 83900, Note_off_c, 0, 68, 100
2, 83900, Note_off_c, 0, 80, 100
2, 83904, Note_on_c, 0, 79, 80
2, 83904, Note_on_c, 0, 67, 80
2, 84092, Note_off_c, 0, 79, 100
2, 84092, Note_off_c, 0, 67, 100
2, 84096, Note_on_c, 0, 67, 80
2, 84096, Note_on_c, 0, 55, 80
2, 84476, Note_off_c, 0, 55, 100
2, 84476, Note_off_c, 0, 67, 100
2, 84480, Note_on_c, 0, 68, 80
2, 84480, Note_on_c, 0, 56, 80
2, 84668, Note_off_c, 0, 68, 100
2, 84668, Note_off_c, 0, 56, 100
2, 84672, Note_on_c, 0, 80, 80
2, 84672, Note_on_c, 0, 84, 80
2, 85052, Note_off_c, 0, 80, 100
2, 85052, Note_off_c, 0, 84, 100
2, 85056, Note_on_c, 0, 82, 80
2, 85056, Note_on_c, 0, 79, 80
2, 85244, Note_off_c, 0, 82, 100
2, 85244, Note_off_c, 0, 79, 100
2, 85248, Note_on_c, 0, 73, 80
2, 85248, Note_on_c, 0, 65, 80
2, 85436, Note_off_c, 0, 65, 100
2, 85440, Note_on_c, 0, 64, 80
2, 85628, Note_off_c, 0, 73, 100
2, 85628, Note_off_c, 0, 64, 100
2, 85632, Note_on_c, 0, 72, 80
2, 85632, Note_on_c, 0, 63, 80
2, 85820, Note_off_c, 0, 72, 100
2, 85820, Note_off_c, 0, 63, 100
2, 85824, Note_on_c, 0, 77, 80
2, 85824, Note_on_c, 0, 89, 80
2, 86204, Note_off_c, 0, 77, 100
2, 86204, Note_off_c, 0, 89, 100
2, 86208, Note_on_c, 0, 75, 80
2, 86208, Note_on_c, 0, 87, 80
2, 86396, Note_off_c, 0, 75, 100
2, 86396, Note_off_c, 0, 87, 100
2, 86400, Note_on_c, 0, 68, 80
2, 86400, Note_on_c, 0, 62, 80
2, 86400, Note_on_c, 0, 59, 80
2, 86780, Note_off_c, 0, 59, 100
2, 86780, Note_off_c, 0, 62, 100
2, 86784, Note_on_c, 0, 63, 80
2, 86784, Note_on_c, 0, 60, 80
2, 86972, Note_off_c, 0, 68, 100
2, 86972, Note_off_c, 0, 63, 100
2, 86972, Note_off_c, 0, 60, 100
2, 86976, Note_on_c, 0, 67, 80
2, 86976, Note_on_c, 0, 61, 80
2, 86976, Note_on_c, 0, 58, 80
2, 87164, Note_off_c, 0, 67, 100
2, 87164, Note_off_c, 0, 61, 100
2, 87164, Note_off_c, 0, 58, 100
2, 87168, Note_on_c, 0, 68, 80
2, 87168, Note_on_c, 0, 60, 80
2, 87168, Note_on_c, 0, 56, 80
2, 87356, Note_off_c, 0, 68, 100
2, 87356, Note_off_c, 0, 60, 100
2, 87356, Note_off_c, 0, 56, 100
2, 87552, Note_on_c, 0, 66, 80
2, 87552, Note_on_c, 0, 54, 80
2, 87932, Note_off_c, 0, 54, 100
2, 87932, Note_off_c, 0, 66, 100
2, 87936, Note_on_c, 0, 65, 80
2, 87936, Note_on_c, 0, 53, 80
2, 88124, Note_off_c, 0, 65, 100
2, 88124, Note_off_c, 0, 53, 100
2, 88128, Note_on_c, 0, 75, 80
2, 88128, Note_on_c, 0, 87, 80
2, 88508, Note_off_c, 0, 75, 100
2, 88508, Note_off_c, 0, 87, 100
2, 88512, Note_on_c, 0, 85, 80
2, 88512, Note_on_c, 0, 73, 80
2, 88700, Note_off_c, 0, 85, 100
2, 88700, Note_off_c, 0, 73, 100
2, 88704, Note_on_c, 0, 64, 80
2, 88704, Note_on_c, 0, 52, 80
2, 89084, Note_off_c, 0, 52, 100
2, 89084, Note_off_c, 0, 64, 100
2, 89088, Note_on_c, 0, 63, 80
2, 89088, Note_on_c, 0, 51, 80
2, 89276, Note_off_c, 0, 63, 100
2, 89276, Note_off_c, 0, 51, 100
2, 89280, Note_on_c, 0, 73, 80
2, 89280, Note_on_c, 0, 85, 80
2, 89660, Note_off_c, 0, 73, 100
2, 89660, Note_off_c, 0, 85, 100
2, 89664, Note_on_c, 0, 72, 80
2, 89664, Note_on_c, 0, 84, 80
2, 89852, Note_off_c, 0, 72, 100
2, 89852, Note_off_c, 0, 84, 100
2, 89856, Note_on_c, 0, 60, 80
2, 89856, Note_on_c, 0, 53, 80
2, 89856, Note_on_c, 0, 48, 80
2, 90044, Note_off_c, 0, 53, 100
2, 90044, Note_off_c, 0, 48, 100
2, 90048, Note_on_c, 0, 53, 80
2, 90048, Note_on_c, 0, 50, 80
2, 90236, Note_off_c, 0, 60, 100
2, 90240, Note_on_c, 0, 59, 80
2, 90428, Note_off_c, 0, 53, 100
2, 90428, Note_off_c, 0, 50, 100
2, 90428, Note_off_c, 0, 59, 100
2, 90432, Note_on_c, 0, 70, 80
2, 90432, Note_on_c, 0, 67, 80
2, 90432, Note_on_c, 0, 64, 80
2, 90432, Note_on_c, 0, 61, 80
2, 90812, Note_off_c, 0, 61, 100
2, 90812, Note_off_c, 0, 64, 100
2, 90812, Note_off_c, 0, 67, 100
2, 90812, Note_off_c, 0, 70, 100
2, 90816, Note_on_c, 0, 69, 80
2, 90816, Note_on_c, 0, 65, 80
2, 90816, Note_on_c, 0, 60, 80
2, 91004, Note_off_c, 0, 69, 100
2, 91004, Note_off_c, 0, 65, 100
2, 91004, Note_off_c, 0, 60, 100
2, 91008, Note_on_c, 0, 77, 80
2, 91008, Note_on_c, 0, 72, 80
2, 91008, Note_on_c, 0, 65, 80
2, 91196, Note_off_c, 0, 72, 100
2, 91196, Note_off_c, 0, 65, 100
2, 91200, Note_on_c, 0, 70, 80
2, 91200, Note_on_c, 0, 67, 80
2, 91388, Note_off_c, 0, 77, 100
2, 91392, Note_on_c, 0, 75, 80
2, 91580, Note_off_c, 0, 70, 100
2, 91580, Note_off_c, 0, 67, 100
2, 91580, Note_off_c, 0, 75, 100
2, 91584, Note_on_c, 0, 62, 80
2, 91584, Note_on_c, 0, 56, 80
2, 91584, Note_on_c, 0, 53, 80
2, 91964, Note_off_c, 0, 53, 100
2, 91964, Note_off_c, 0, 56, 100
2, 91964, Note_off_c, 0, 62, 100
2, 91968, Note_on_c, 0, 63, 80
2, 91968, Note_on_c, 0, 55, 80
2, 91968, Note_on_c, 0, 51, 80
2, 92156, Note_off_c, 0, 63, 100
2, 92156, Note_off_c, 0, 55, 100
2, 92156, Note_off_c, 0, 51, 100
2, 92160, Note_on_c, 0, 77, 80
2, 92160, Note_on_c, 0, 72, 80
2, 92160, Note_on_c, 0, 65, 80
2, 92348, Note_off_c, 0, 72, 100
2, 92348, Note_off_c, 0, 65, 100
2, 92352, Note_on_c, 0, 70, 80
2, 92352, Note_on_c, 0, 67, 80
2, 92540, Note_off_c, 0, 77, 100
2, 92544, Note_on_c, 0, 75, 80
2, 92732, Note_off_c, 0, 70, 100
2, 92732, Note_off_c, 0, 67, 100
2, 92732, Note_off_c, 0, 75, 100
2, 92736, Note_on_c, 0, 62, 80
2, 92736, Note_on_c, 0, 56, 80
2, 92736, Note_on_c, 0, 53, 80
2, 92924, Note_off_c, 0, 62, 100
2, 92924, Note_off_c, 0, 56, 100
2, 92924, Note_off_c, 0, 53, 100
2, 92928, Note_on_c, 0, 63, 80
2, 92928, Note_on_c, 0, 55, 80
2, 92928, Note_on_c, 0, 51, 80
2, 93116, Note_off_c, 0, 63, 100
2, 93116, Note_off_c, 0, 55, 100
2, 93116, Note_off_c, 0, 51, 100
2, 93120, Note_on_c, 0, 63, 80
2, 93120, Note_on_c, 0, 56, 80
2, 93120, Note_on_c, 0, 53, 80
2, 93308, Note_off_c, 0, 63, 100
2, 93308, Note_off_c, 0, 56, 100
2, 93308, Note_off_c, 0, 53, 100
2, 93312, Note_on_c, 0, 63, 80
2, 93312, Note_on_c, 0, 58, 80
2, 93312, Note_on_c, 0, 55, 80
2, 93500, Note_off_c, 0, 58, 100
2, 93500, Note_off_c, 0, 55, 100
2, 93504, Note_on_c, 0, 60, 80
2, 93504, Note_on_c, 0, 56, 80
2, 93692, Note_off_c, 0, 63, 100
2, 93692, Note_off_c, 0, 60, 100
2, 93692, Note_off_c, 0, 56, 100
2, 93696, Note_on_c, 0, 68, 80
2, 93884, Note_off_c, 0, 68, 100
2, 93888, Note_on_c, 0, 80, 80
2, 93888, Note_on_c, 0, 68, 80
2, 94268, Note_off_c, 0, 68, 100
2, 94268, Note_off_c, 0, 80, 100
2, 94272, Note_on_c, 0, 79, 80
2, 94272, Note_on_c, 0, 67, 80
2, 94460, Note_off_c, 0, 79, 100
2, 94460, Note_off_c, 0, 67, 100
2, 94464, Note_on_c, 0, 67, 80
2, 94464, Note_on_c, 0, 55, 80
2, 94844, Note_off_c, 0, 55, 100
2, 94844, Note_off_c, 0, 67, 100
2, 94848, Note_on_c, 0, 68, 80
2, 94848, Note_on_c, 0, 56, 80
2, 95036, Note_off_c, 0, 68, 100
2, 95036, Note_off_c, 0, 56, 100
2, 95040, Note_on_c, 0, 80, 80
2, 95040, Note_on_c, 0, 84, 80
2, 95420, Note_off_c, 0, 80, 100
2, 95420, Note_off_c, 0, 84, 100
2, 95424, Note_on_c, 0, 82, 80
2, 95424, Note_on_c, 0, 79, 80
2, 95612, Note_off_c, 0, 82, 100
2, 95612, Note_off_c, 0, 79, 100
2, 95616, Note_on_c, 0, 73, 80
2, 95616, Note_on_c, 0, 65, 80
2, 95804, Note_off_c, 0, 65, 100
2, 95808, Note_on_c, 0, 64, 80
2, 95996, Note_off_c, 0, 73, 100
2, 95996, Note_off_c, 0, 64, 100
2, 96000, Note_on_c, 0, 72, 80
2, 96000, Note_on_c, 0, 63, 80
2, 96188, Note_off_c, 0, 72, 100
2, 96188, Note_off_c, 0, 63, 100
2, 96192, Note_on_c, 0, 77, 80
2, 96192, Note_on_c, 0, 89, 80
2, 96572, Note_off_c, 0, 77, 100
2, 96572, Note_off_c, 0, 89, 100
2, 96576, Note_on_c, 0, 75, 80
2, 96576, Note_on_c, 0, 87, 80
2, 96764, Note_off_c, 0, 75, 100
2, 96764, Note_off_c, 0, 87, 100
2, 96768, Note_on_c, 0, 68, 80
2, 96768, Note_on_c, 0, 62, 80
2, 96768, Note_on_c, 0, 59, 80
2, 97148, Note_off_c, 0, 59, 100
2, 97148, Note_off_c, 0, 62, 100
2, 97152, Note_on_c, 0, 63, 80
2, 97152, Note_on_c, 0, 60, 80
2, 97340, Note_off_c, 0, 68, 100
2, 97340, Note_off_c, 0, 63, 100
2, 97340, Note_off_c, 0, 60, 100
2, 97344, Note_on_c, 0, 67, 80
2, 97344, Note_on_c, 0, 61, 80
2, 97344, Note_on_c, 0, 58, 80
2, 97532, Note_off_c, 0, 67, 100
2, 97532, Note_off_c, 0, 61, 100
2, 97532, Note_off_c, 0, 58, 100
2, 97536, Note_on_c, 0, 68, 80
2, 97536, Note_on_c, 0, 60, 80
2, 97536, Note_on_c, 0, 56, 80
2, 97724, Note_off_c, 0, 68, 100
2, 97724, Note_off_c, 0, 60, 100
2, 97724, Note_off_c, 0, 56, 100
2, 97920, Control_c, 0, 64, 127
2, 97920, Note_on_c, 0, 60, 80
2, 97980, Note_off_c, 0, 60, 100
2, 97984, Note_on_c, 0, 65, 80
2, 98044, Note_off_c, 0, 65, 100
2, 98048, Note_on_c, 0, 63, 80
2, 98108, Note_off_c, 0, 63, 100
2, 98108, Control_c, 0, 64, 0
2, 98112, Control_c, 0, 64, 127
2, 98112, Note_on_c, 0, 60, 80
2, 98172, Note_off_c, 0, 60, 100
2, 98176, Note_on_c, 0, 65, 80
2, 98236, Note_off_c, 0, 65, 100
2, 98240, Note_on_c, 0, 63, 80
2, 98300, Note_off_c, 0, 63, 100
2, 98300, Control_c, 0, 64, 0
2, 98304, Control_c, 0, 64, 127
2, 98304, Note_on_c, 0, 60, 80
2, 98364, Note_off_c, 0, 60, 100
2, 98368, Note_on_c, 0, 70, 80
2, 98428, Note_off_c, 0, 70, 100
2, 98432, Note_on_c, 0, 68, 80
2, 98492, Note_off_c, 0, 68, 100
2, 98492, Control_c, 0, 64, 0
2, 98496, Control_c, 0, 64, 127
2, 98496, Note_on_c, 0, 60, 80
2, 98556, Note_off_c, 0, 60, 100
2, 98560, Note_on_c, 0, 70, 80
2, 98620, Note_off_c, 0, 70, 100
2, 98624, Note_on_c, 0, 68, 80
2, 98684, Note_off_c, 0, 68, 100
2, 98684, Control_c, 0, 64, 0
2, 98688, Control_c, 0, 64, 127
2, 98688, Note_on_c, 0, 61, 80
2, 98748, Note_off_c, 0, 61, 100
2, 98752, Note_on_c, 0, 68, 80
2, 98812, Note_off_c, 0, 68, 100
2, 98816, Note_on_c, 0, 67, 80
2, 98876, Note_off_c, 0, 67, 100
2, 98876, Control_c, 0, 64, 0
2, 98880, Control_c, 0, 64, 127
2, 98880, Note_on_c, 0, 61, 80
2, 98940, Note_off_c, 0, 61, 100
2, 98944, Note_on_c, 0, 67, 80
2, 99004, Note_off_c, 0, 67, 100
2, 99008, Note_on_c, 0, 65, 80
2, 99068, Note_off_c, 0, 65, 100
2, 99068, Control_c, 0, 64, 0
2, 99072, Control_c, 0, 64, 127
2, 99072, Note_on_c, 0, 61, 80
2, 99132, Note_off_c, 0, 61, 100
2, 99136, Note_on_c, 0, 67, 80
2, 99196, Note_off_c, 0, 67, 100
2, 99200, Note_on_c, 0, 63, 80
2, 99260, Note_off_c, 0, 63, 100
2, 99260, Control_c, 0, 64, 0
2, 99264, Control_c, 0, 64, 127
2, 99264, Note_on_c, 0, 63, 80
2, 99324, Note_off_c, 0, 63, 100
2, 99328, Note_on_c, 0, 70, 80
2, 99388, Note_off_c, 0, 70, 100
2, 99392, Note_on_c, 0, 68, 80
2, 99452, Note_off_c, 0, 68, 100
2, 99452, Control_c, 0, 64, 0
2, 99456, Control_c, 0, 64, 127
2, 99456, Note_on_c, 0, 63, 80
2, 99516, Note_off_c, 0, 63, 100
2, 99520, Note_on_c, 0, 70, 80
2, 99580, Note_off_c, 0, 70, 100
2, 99584, Note_on_c, 0, 68, 80
2, 99644, Note_off_c, 0, 68, 100
2, 99644, Control_c, 0, 64, 0
2, 99648, Control_c, 0, 64, 127
2, 99648, Note_on_c, 0, 63, 80
2, 99708, Note_off_c, 0, 63, 100
2, 99712, Note_on_c, 0, 72, 80
2, 99772, Note_off_c, 0, 72, 100
2, 99776, Note_on_c, 0, 70, 80
2, 99836, Note_off_c, 0, 70, 100
2, 99836, Control_c, 0, 64, 0
2, 99840, Control_c, 0, 64, 127
2, 99840, Note_on_c, 0, 63, 80
2, 99900, Note_off_c, 0, 63, 100
2, 99904, Note_on_c, 0, 73, 80
2, 99904, Note_on_c, 0, 70, 80
2, 99964, Note_off_c, 0, 73, 100
2, 99964, Note_off_c, 0, 70, 100
2, 99968, Note_on_c, 0, 72, 80
2, 99968, Note_on_c, 0, 68, 80
2, 100028, Note_off_c, 0, 72, 100
2, 100028, Note_off_c, 0, 68, 100
2, 100028, Control_c, 0, 64, 0
2, 100032, Control_c, 0, 64, 127
2, 100032, Note_on_c, 0, 63, 80
2, 100092, Note_off_c, 0, 63, 100
2, 100096, Note_on_c, 0, 72, 80
2, 100096, Note_on_c, 0, 68, 80
2, 100156, Note_off_c, 0, 72, 100
2, 100156, Note_off_c, 0, 68, 100
2, 100160, Note_on_c, 0, 70, 80
2, 100160, Note_on_c, 0, 67, 80
2, 100220, Note_off_c, 0, 70, 100
2, 100220, Note_off_c, 0, 67, 100
2, 100220, Control_c, 0, 64, 0
2, 100224, Control_c, 0, 64, 127
2, 100224, Note_on_c, 0, 72, 80
2, 100236, Note_off_c, 0, 72, 100
2, 100238, Note_on_c, 0, 70, 80
2, 100270, Note_off_c, 0, 70, 100
2, 100272, Note_on_c, 0, 69, 80
2, 100316, Note_off_c, 0, 69, 100
2, 100320, Note_on_c, 0, 70, 80
2, 100364, Note_off_c, 0, 70, 100
2, 100368, Note_on_c, 0, 72, 80
2, 100412, Note_off_c, 0, 72, 100
2, 100412, Control_c, 0, 64, 0
2, 100416, Control_c, 0, 64, 127
2, 100416, Note_on_c, 0, 68, 80
2, 100476, Note_off_c, 0, 68, 100
2, 100480, Note_on_c, 0, 75, 80
2, 100540, Note_off_c, 0, 75, 100
2, 100544, Note_on_c, 0, 73, 80
2, 100604, Note_off_c, 0, 73, 100
2, 100604, Control_c, 0, 64, 0
2, 100608, Control_c, 0, 64, 127
2, 100608, Note_on_c, 0, 68, 80
2, 100668, Note_off_c, 0, 68, 100
2, 100672, Note_on_c, 0, 75, 80
2, 100732, Note_off_c, 0, 75, 100
2, 100736, Note_on_c, 0, 73, 80
2, 100796, Note_off_c, 0, 73, 100
2, 100796, Control_c, 0, 64, 0
2, 100800, Control_c, 0, 64, 127
2, 100800, Note_on_c, 0, 68, 80
2, 100860, Note_off_c, 0, 68, 100
2, 100864, Note_on_c, 0, 73, 80
2, 100924, Note_off_c, 0, 73, 100
2, 100928, Note_on_c, 0, 72, 80
2, 100988, Note_off_c, 0, 72, 100
2, 100988, Control_c, 0, 64, 0
2, 100992, Control_c, 0, 64, 127
2, 100992, Note_on_c, 0, 68, 80
2, 101052, Note_off_c, 0, 68, 100
2, 101056, Note_on_c, 0, 79, 80
2, 101116, Note_off_c, 0, 79, 100
2, 101120, Note_on_c, 0, 77, 80
2, 101180, Note_off_c, 0, 77, 100
2, 101180, Control_c, 0, 64, 0
2, 101184, Control_c, 0, 64, 127
2, 101184, Note_on_c, 0, 67, 80
2, 101244, Note_off_c, 0, 67, 100
2, 101248, Note_on_c, 0, 72, 80
2, 101308, Note_off_c, 0, 72, 100
2, 101312, Note_on_c, 0, 70, 80
2, 101372, Note_off_c, 0, 70, 100
2, 101372, Control_c, 0, 64, 0
2, 101376, Control_c, 0, 64, 127
2, 101376, Note_on_c, 0, 68, 80
2, 101436, Note_off_c, 0, 68, 100
2, 101440, Note_on_c, 0, 77, 80
2, 101500, Note_off_c, 0, 77, 100
2, 101504, Note_on_c, 0, 75, 80
2, 101564, Note_off_c, 0, 75, 100
2, 101564, Control_c, 0, 64, 0
2, 101568, Control_c, 0, 64, 127
2, 101568, Note_on_c, 0, 68, 80
2, 101628, Note_off_c, 0, 68, 100
2, 101632, Note_on_c, 0, 75, 80
2, 101692, Note_off_c, 0, 75, 100
2, 101696, Note_on_c, 0, 73, 80
2, 101756, Note_off_c, 0, 73, 100
2, 101756, Control_c, 0, 64, 0
2, 101760, Control_c, 0, 64, 127
2, 101760, Note_on_c, 0, 65, 80
2, 101820, Note_off_c, 0, 65, 100
2, 101824, Note_on_c, 0, 75, 80
2, 101824, Note_on_c, 0, 72, 80
2, 101884, Note_off_c, 0, 75, 100
2, 101884, Note_off_c, 0, 72, 100
2, 101888, Note_on_c, 0, 73, 80
2, 101888, Note_on_c, 0, 70, 80
2, 101948, Note_off_c, 0, 73, 100
2, 101948, Note_off_c, 0, 70, 100
2, 101948, Control_c, 0, 64, 0
2, 101952, Control_c, 0, 64, 127
2, 101952, Note_on_c, 0, 63, 80
2, 102012, Note_off_c, 0, 63, 100
2, 102016, Note_on_c, 0, 73, 80
2, 102016, Note_on_c, 0, 70, 80
2, 102076, Note_off_c, 0, 73, 100
2, 102076, Note_off_c, 0, 70, 100
2, 102080, Note_on_c, 0, 72, 80
2, 102080, Note_on_c, 0, 68, 80
2, 102140, Note_off_c, 0, 72, 100
2, 102140, Note_off_c, 0, 68, 100
2, 102140, Control_c, 0, 64, 0
2, 102144, Control_c, 0, 64, 127
2, 102144, Note_on_c, 0, 69, 80
2, 102144, Note_on_c, 0, 66, 80
2, 102332, Note_off_c, 0, 69, 100
2, 102332, Note_off_c, 0, 66, 100
2, 102332, Control_c, 0, 64, 0
2, 102336, Control_c, 0, 64, 127
2, 102336, Note_on_c, 0, 70, 80
2, 102336, Note_on_c, 0, 67, 80
2, 102524, Note_off_c, 0, 70, 100
2, 102524, Note_off_c, 0, 67, 100
2, 102524, Control_c, 0, 64, 0
2, 102528, Control_c, 0, 64, 127
2, 102528, Note_on_c, 0, 63, 80
2, 102572, Note_off_c, 0, 63, 100
2, 102576, Note_on_c, 0, 75, 80
2, 102620, Note_off_c, 0, 75, 100
2, 102624, Note_on_c, 0, 63, 80
2, 102668, Note_off_c, 0, 63, 100
2, 102672, Note_on_c, 0, 75, 80
2, 102716, Note_off_c, 0, 75, 100
2, 102716, Control_c, 0, 64, 0
2, 102720, Control_c, 0, 64, 127
2, 102720, Note_on_c, 0, 63, 80
2, 102768, Note_on_c, 0, 75, 80
2, 102812, Note_off_c, 0, 75, 100
2, 102816, Note_on_c, 0, 77, 80
2, 102860, Note_off_c, 0, 77, 100
2, 102864, Note_on_c, 0, 75, 80
2, 102908, Note_off_c, 0, 63, 100
2, 102908, Note_off_c, 0, 75, 100
2, 102908, Control_c, 0, 64, 0
2, 102912, Control_c, 0, 64, 127
2, 102912, Note_on_c, 0, 68, 80
2, 102960, Note_on_c, 0, 75, 80
2, 103004, Note_off_c, 0, 75, 100
2, 103008, Note_on_c, 0, 77, 80
2, 103052, Note_off_c, 0, 77, 100
2, 103056, Note_on_c, 0, 75, 80
2, 103100, Note_off_c, 0, 68, 100
2, 103100, Note_off_c, 0, 75, 100
2, 103100, Control_c, 0, 64, 0
2, 103104, Control_c, 0, 64, 127
2, 103104, Note_on_c, 0, 68, 80
2, 103152, Note_on_c, 0, 75, 80
2, 103196, Note_off_c, 0, 75, 100
2, 103200, Note_on_c, 0, 77, 80
2, 103244, Note_off_c, 0, 77, 100
2, 103248, Note_on_c, 0, 75, 80
2, 103292, Note_off_c, 0, 68, 100
2, 103292, Note_off_c, 0, 75, 100
2, 103292, Control_c, 0, 64, 0
2, 103296, Control_c, 0, 64, 127
2, 103296, Note_on_c, 0, 68, 80
2, 103296, Note_on_c, 0, 77, 80
2, 103340, Note_off_c, 0, 77, 100
2, 103344, Note_on_c, 0, 75, 80
2, 103388, Note_off_c, 0, 68, 100
2, 103388, Note_off_c, 0, 75, 100
2, 103392, Note_on_c, 0, 67, 80
2, 103392, Note_on_c, 0, 77, 80
2, 103436, Note_off_c, 0, 77, 100
2, 103440, Note_on_c, 0, 75, 80
2, 103484, Note_off_c, 0, 67, 100
2, 103484, Note_off_c, 0, 75, 100
2, 103484, Control_c, 0, 64, 0
2, 103488, Control_c, 0, 64, 127
2, 103488, Note_on_c, 0, 67, 80
2, 103488, Note_on_c, 0, 77, 80
2, 103532, Note_off_c, 0, 77, 100
2, 103536, Note_on_c, 0, 75, 80
2, 103580, Note_off_c, 0, 67, 100
2, 103580, Note_off_c, 0, 75, 100
2, 103584, Note_on_c, 0, 65, 80
2, 103584, Note_on_c, 0, 77, 80
2, 103628, Note_off_c, 0, 77, 100
2, 103632, Note_on_c, 0, 75, 80
2, 103676, Note_off_c, 0, 65, 100
2, 103676, Note_off_c, 0, 75, 100
2, 103676, Control_c, 0, 64, 0
2, 103680, Control_c, 0, 64, 127
2, 103680, Note_on_c, 0, 67, 80
2, 103680, Note_on_c, 0, 77, 80
2, 103724, Note_off_c, 0, 77, 100
2, 103728, Note_on_c, 0, 75, 80
2, 103772, Note_off_c, 0, 67, 100
2, 103772, Note_off_c, 0, 75, 100
2, 103776, Note_on_c, 0, 63, 80
2, 103776, Note_on_c, 0, 77, 80
2, 103820, Note_off_c, 0, 77, 100
2, 103824, Note_on_c, 0, 75, 80
2, 103868, Note_off_c, 0, 63, 100
2, 103868, Note_off_c, 0, 75, 100
2, 103868, Control_c, 0, 64, 0
2, 103872, Control_c, 0, 64, 127
2, 103872, Note_on_c, 0, 68, 80
2, 103920, Note_on_c, 0, 75, 80
2, 103964, Note_off_c, 0, 75, 100
2, 103968, Note_on_c, 0, 77, 80
2, 104012, Note_off_c, 0, 77, 100
2, 104016, Note_on_c, 0, 75, 80
2, 104060, Note_off_c, 0, 68, 100
2, 104060, Note_off_c, 0, 75, 100
2, 104060, Control_c, 0, 64, 0
2, 104064, Control_c, 0, 64, 127
2, 104064, Note_on_c, 0, 68, 80
2, 104112, Note_on_c, 0, 75, 80
2, 104156, Note_off_c, 0, 75, 100
2, 104160, Note_on_c, 0, 77, 80
2, 104204, Note_off_c, 0, 77, 100
2, 104208, Note_on_c, 0, 75, 80
2, 104252, Note_off_c, 0, 68, 100
2, 104252, Note_off_c, 0, 75, 100
2, 104252, Control_c, 0, 64, 0
2, 104256, Control_c, 0, 64, 127
2, 104256, Note_on_c, 0, 70, 80
2, 104304, Note_on_c, 0, 75, 80
2, 104348, Note_off_c, 0, 75, 100
2, 104352, Note_on_c, 0, 77, 80
2, 104396, Note_off_c, 0, 77, 100
2, 104400, Note_on_c, 0, 75, 80
2, 104444, Note_off_c, 0, 70, 100
2, 104444, Note_off_c, 0, 75, 100
2, 104444, Control_c, 0, 64, 0
2, 104448, Control_c, 0, 64, 127
2, 104448, Note_on_c, 0, 68, 80
2, 104448, Note_on_c, 0, 72, 80
2, 104492, Note_off_c, 0, 72, 100
2, 104496, Note_on_c, 0, 75, 80
2, 104540, Note_off_c, 0, 75, 100
2, 104544, Note_on_c, 0, 77, 80
2, 104588, Note_off_c, 0, 77, 100
2, 104592, Note_on_c, 0, 75, 80
2, 104636, Note_off_c, 0, 68, 100
2, 104636, Note_off_c, 0, 75, 100
2, 104636, Control_c, 0, 64, 0
2, 104640, Control_c, 0, 64, 127
2, 104640, Note_on_c, 0, 67, 80
2, 104640, Note_on_c, 0, 70, 80
2, 104684, Note_off_c, 0, 70, 100
2, 104688, Note_on_c, 0, 75, 80
2, 104732, Note_off_c, 0, 75, 100
2, 104736, Note_on_c, 0, 77, 80
2, 104780, Note_off_c, 0, 77, 100
2, 104784, Note_on_c, 0, 75, 80
2, 104828, Note_off_c, 0, 67, 100
2, 104828, Note_off_c, 0, 75, 100
2, 104828, Control_c, 0, 64, 0
2, 104832, Control_c, 0, 64, 127
2, 104832, Note_on_c, 0, 72, 80
2, 104844, Note_off_c, 0, 72, 100
2, 104846, Note_on_c, 0, 70, 80
2, 104878, Note_off_c, 0, 70, 100
2, 104880, Note_on_c, 0, 69, 80
2, 104924, Note_off_c, 0, 69, 100
2, 104928, Note_on_c, 0, 70, 80
2, 104972, Note_off_c, 0, 70, 100
2, 104976, Note_on_c, 0, 72, 80
2, 105020, Note_off_c, 0, 72, 100
2, 105020, Control_c, 0, 64, 0
2, 105024, Control_c, 0, 64, 127
2, 105024, Note_on_c, 0, 73, 80
2, 105072, Note_on_c, 0, 80, 80
2, 105116, Note_off_c, 0, 80, 100
2, 105120, Note_on_c, 0, 82, 80
2, 105164, Note_off_c, 0, 82, 100
2, 105168, Note_on_c, 0, 80, 80
2, 105212, Note_off_c, 0, 73, 100
2, 105212, Note_off_c, 0, 80, 100
2, 105212, Control_c, 0, 64, 0
2, 105216, Control_c, 0, 64, 127
2, 105216, Note_on_c, 0, 73, 80
2, 105264, Note_on_c, 0, 80, 80
2, 105308, Note_off_c, 0, 80, 100
2, 105312, Note_on_c, 0, 82, 80
2, 105356, Note_off_c, 0, 82, 100
2, 105360, Note_on_c, 0, 80, 80
2, 105404, Note_off_c, 0, 73, 100
2, 105404, Note_off_c, 0, 80, 100
2, 105404, Control_c, 0, 64, 0
2, 105408, Control_c, 0, 64, 127
2, 105408, Note_on_c, 0, 72, 80
2, 105456, Note_on_c, 0, 80, 80
2, 105500, Note_off_c, 0, 80, 100
2, 105504, Note_on_c, 0, 82, 80
2, 105548, Note_off_c, 0, 82, 100
2, 105552, Note_on_c, 0, 80, 80
2, 105596, Note_off_c, 0, 72, 100
2, 105596, Note_off_c, 0, 80, 100
2, 105596, Control_c, 0, 64, 0
2, 105600, Control_c, 0, 64, 127
2, 105600, Note_on_c, 0, 77, 80
2, 105648, Note_on_c, 0, 80, 80
2, 105692, Note_off_c, 0, 80, 100
2, 105696, Note_on_c, 0, 82, 80
2, 105740, Note_off_c, 0, 82, 100
2, 105744, Note_on_c, 0, 80, 80
2, 105788, Note_off_c, 0, 77, 100
2, 105788, Note_off_c, 0, 80, 100
2, 105788, Control_c, 0, 64, 0
2, 105792, Control_c, 0, 64, 127
2, 105792, Note_on_c, 0, 70, 80
2, 105840, Note_on_c, 0, 79, 80
2, 105884, Note_off_c, 0, 79, 100
2, 105888, Note_on_c, 0, 80, 80
2, 105932, Note_off_c, 0, 80, 100
2, 105936, Note_on_c, 0, 79, 80
2, 105980, Note_off_c, 0, 70, 100
2, 105980, Note_off_c, 0, 79, 100
2, 105980, Control_c, 0, 64, 0
2, 105984, Control_c, 0, 64, 127
2, 105984, Note_on_c, 0, 75, 80
2, 106032, Note_on_c, 0, 80, 80
2, 106076, Note_off_c, 0, 80, 100
2, 106080, Note_on_c, 0, 82, 80
2, 106124, Note_off_c, 0, 82, 100
2, 106128, Note_on_c, 0, 80, 80
2, 106172, Note_off_c, 0, 75, 100
2, 106172, Note_off_c, 0, 80, 100
2, 106172, Control_c, 0, 64, 0
2, 106176, Control_c, 0, 64, 127
2, 106176, Note_on_c, 0, 68, 80
2, 106224, Note_on_c, 0, 75, 80
2, 106268, Note_off_c, 0, 75, 100
2, 106272, Note_on_c, 0, 77, 80
2, 106316, Note_off_c, 0, 77, 100
2, 106320, Note_on_c, 0, 75, 80
2, 106364, Note_off_c, 0, 68, 100
2, 106364, Note_off_c, 0, 75, 100
2, 106364, Control_c, 0, 64, 0
2, 106368, Control_c, 0, 64, 127
2, 106368, Note_on_c, 0, 68, 80
2, 106368, Note_on_c, 0, 72, 80
2, 106412, Note_off_c, 0, 72, 100
2, 106416, Note_on_c, 0, 75, 80
2, 106460, Note_off_c, 0, 75, 100
2, 106464, Note_on_c, 0, 77, 80
2, 106508, Note_off_c, 0, 77, 100
2, 106512, Note_on_c, 0, 75, 80
2, 106556, Note_off_c, 0, 68, 100
2, 106556, Note_off_c, 0, 75, 100
2, 106556, Control_c, 0, 64, 0
2, 106560, Control_c, 0, 64, 127
2, 106560, Note_on_c, 0, 67, 80
2, 106560, Note_on_c, 0, 70, 80
2, 106604, Note_off_c, 0, 70, 100
2, 106608, Note_on_c, 0, 75, 80
2, 106652, Note_off_c, 0, 75, 100
2, 106656, Note_on_c, 0, 77, 80
2, 106700, Note_off_c, 0, 77, 100
2, 106704, Note_on_c, 0, 75, 80
2, 106748, Note_off_c, 0, 67, 100
2, 106748, Note_off_c, 0, 75, 100
2, 106748, Control_c, 0, 64, 0
2, 106752, Control_c, 0, 64, 127
2, 106752, Note_on_c, 0, 68, 80
2, 106940, Note_off_c, 0, 68, 100
2, 106940, Control_c, 0, 64, 0
2, 106944, Control_c, 0, 64, 127
2, 107132, Control_c, 0, 64, 0
2, 107136, Control_c, 0, 64, 127
2, 107136, Note_on_c, 0, 76, 80
2, 107180, Note_off_c, 0, 76, 100
2, 107184, Note_on_c, 0, 77, 80
2, 107228, Note_off_c, 0, 77, 100
2, 107232, Note_on_c, 0, 76, 80
2, 107276, Note_off_c, 0, 76, 100
2, 107280, Note_on_c, 0, 77, 80
2, 107324, Note_off_c, 0, 77, 100
2, 107324, Control_c, 0, 64, 0
2, 107328, Note_on_c, 0, 77, 80
2, 107420, Note_off_c, 0, 77, 100
2, 107424, Note_on_c, 0, 89, 80
2, 107612, Note_off_c, 0, 89, 100
2, 107616, Note_on_c, 0, 88, 80
2, 107804, Note_off_c, 0, 88, 100
2, 107808, Note_on_c, 0, 87, 80
2, 107904, Control_c, 0, 64, 127
2, 107948, Note_off_c, 0, 87, 100
2, 107952, Note_on_c, 0, 85, 80
2, 107996, Note_off_c, 0, 85, 100
2, 108000, Note_on_c, 0, 84, 80
2, 108044, Note_off_c, 0, 84, 100
2, 108048, Note_on_c, 0, 82, 80
2, 108092, Note_off_c, 0, 82, 100
2, 108092, Control_c, 0, 64, 0
2, 108096, Control_c, 0, 64, 127
2, 108096, Note_on_c, 0, 81, 80
2, 108140, Note_off_c, 0, 81, 100
2, 108144, Note_on_c, 0, 82, 80
2, 108188, Note_off_c, 0, 82, 100
2, 108192, Note_on_c, 0, 78, 80
2, 108236, Note_off_c, 0, 78, 100
2, 108240, Note_on_c, 0, 77, 80
2, 108284, Note_off_c, 0, 77, 100
2, 108284, Control_c, 0, 64, 0
2, 108288, Control_c, 0, 64, 127
2, 108288, Note_on_c, 0, 75, 80
2, 108332, Note_off_c, 0, 75, 100
2, 108336, Note_on_c, 0, 73, 80
2, 108380, Note_off_c, 0, 73, 100
2, 108384, Note_on_c, 0, 72, 80
2, 108428, Note_off_c, 0, 72, 100
2, 108432, Note_on_c, 0, 70, 80
2, 108476, Note_off_c, 0, 70, 100
2, 108476, Control_c, 0, 64, 0
2, 108480, Note_on_c, 0, 75, 80
2, 108572, Note_off_c, 0, 75, 100
2, 108576, Note_on_c, 0, 87, 80
2, 108764, Note_off_c, 0, 87, 100
2, 108768, Note_on_c, 0, 86, 80
2, 108956, Note_off_c, 0, 86, 100
2, 108960, Note_on_c, 0, 85, 80
2, 109056, Control_c, 0, 64, 127
2, 109100, Note_off_c, 0, 85, 100
2, 109104, Note_on_c, 0, 84, 80
2, 109148, Note_off_c, 0, 84, 100
2, 109152, Note_on_c, 0, 82, 80
2, 109196, Note_off_c, 0, 82, 100
2, 109200, Note_on_c, 0, 80, 80
2, 109244, Note_off_c, 0, 80, 100
2, 109244, Control_c, 0, 64, 0
2, 109248, Control_c, 0, 64, 127
2, 109248, Note_on_c, 0, 79, 80
2, 109292, Note_off_c, 0, 79, 100
2, 109296, Note_on_c, 0, 80, 80
2, 109340, Note_off_c, 0, 80, 100
2, 109344, Note_on_c, 0, 74, 80
2, 109388, Note_off_c, 0, 74, 100
2, 109392, Note_on_c, 0, 75, 80
2, 109436, Note_off_c, 0, 75, 100
2, 109436, Control_c, 0, 64, 0
2, 109440, Control_c, 0, 64, 127
2, 109440, Note_on_c, 0, 71, 80
2, 109484, Note_off_c, 0, 71, 100
2, 109488, Note_on_c, 0, 72, 80
2, 109532, Note_off_c, 0, 72, 100
2, 109536, Note_on_c, 0, 73, 80
2, 109580, Note_off_c, 0, 73, 100
2, 109584, Note_on_c, 0, 74, 80
2, 109628, Note_off_c, 0, 74, 100
2, 109628, Control_c, 0, 64, 0
2, 109632, Control_c, 0, 64, 127
2, 109632, Note_on_c, 0, 75, 80
2, 109680, Note_on_c, 0, 63, 80
2, 109724, Note_off_c, 0, 63, 100
2, 109728, Note_on_c, 0, 68, 81
2, 109772, Note_off_c, 0, 68, 100
2, 109776, Note_on_c, 0, 63, 82
2, 109820, Note_off_c, 0, 75, 100
2, 109820, Note_off_c, 0, 63, 100
2, 109820, Control_c, 0, 64, 0
2, 109824, Control_c, 0, 64, 127
2, 109824, Note_on_c, 0, 74, 83
2, 109872, Note_on_c, 0, 65, 84
2, 109916, Note_off_c, 0, 65, 100
2, 109920, Note_on_c, 0, 68, 85
2, 109964, Note_off_c, 0, 68, 100
2, 109968, Note_on_c, 0, 65, 86
2, 110012, Note_off_c, 0, 74, 100
2, 110012, Note_off_c, 0, 65, 100
2, 110012, Control_c, 0, 64, 0
2, 110016, Control_c, 0, 64, 127
2, 110016, Note_on_c, 0, 76, 86
2, 110064, Note_on_c, 0, 67, 87
2, 110108, Note_off_c, 0, 67, 100
2, 110112, Note_on_c, 0, 73, 88
2, 110156, Note_off_c, 0, 73, 100
2, 110160, Note_on_c, 0, 67, 89
2, 110204, Note_off_c, 0, 76, 100
2, 110204, Note_off_c, 0, 67, 100
2, 110204, Control_c, 0, 64, 0
2, 110208, Control_c, 0, 64, 127
2, 110208, Note_on_c, 0, 77, 90
2, 110256, Note_on_c, 0, 68, 91
2, 110300, Note_off_c, 0, 68, 100
2, 110304, Note_on_c, 0, 72, 92
2, 110348, Note_off_c, 0, 72, 100
2, 110352, Note_on_c, 0, 68, 93
2, 110396, Note_off_c, 0, 77, 100
2, 110396, Note_off_c, 0, 68, 100
2, 110396, Control_c, 0, 64, 0
2, 110400, Control_c, 0, 64, 127
2, 110400, Note_on_c, 0, 79, 93
2, 110448, Note_on_c, 0, 70, 94
2, 110492, Note_off_c, 0, 70, 100
2, 110496, Note_on_c, 0, 76, 95
2, 110540, Note_off_c, 0, 76, 100
2, 110544, Note_on_c, 0, 70, 96
2, 110588, Note_off_c, 0, 79, 100
2, 110588, Note_off_c, 0, 70, 100
2, 110588, Control_c, 0, 64, 0
2, 110592, Control_c, 0, 64, 127
2, 110592, Note_on_c, 0, 80, 97
2, 110640, Note_on_c, 0, 72, 98
2, 110684, Note_off_c, 0, 72, 100
2, 110688, Note_on_c, 0, 77, 99
2, 110732, Note_off_c, 0, 77, 100
2, 110736, Note_on_c, 0, 72, 99
2, 110780, Note_off_c, 0, 80, 100
2, 110780, Note_off_c, 0, 72, 100
2, 110780, Control_c, 0, 64, 0
2, 110784, Control_c, 0, 64, 127
2, 110784, Note_on_c, 0, 75, 80
2, 110784, Note_on_c, 0, 67, 80
2, 110828, Note_off_c, 0, 67, 100
2, 110832, Note_on_c, 0, 66, 80
2, 110876, Note_off_c, 0, 66, 100
2, 110880, Note_on_c, 0, 67, 80
2, 110924, Note_off_c, 0, 67, 100
2, 110928, Note_on_c, 0, 66, 80
2, 110972, Note_off_c, 0, 66, 100
2, 110972, Control_c, 0, 64, 0
2, 110976, Control_c, 0, 64, 127
2, 110976, Note_on_c, 0, 67, 80
2, 111020, Note_off_c, 0, 67, 100
2, 111024, Note_on_c, 0, 70, 80
2, 111068, Note_off_c, 0, 70, 100
2, 111072, Note_on_c, 0, 68, 80
2, 111116, Note_off_c, 0, 68, 100
2, 111120, Note_on_c, 0, 67, 80
2, 111164, Note_off_c, 0, 75, 100
2, 111164, Note_off_c, 0, 67, 100
2, 111164, Control_c, 0, 64, 0
2, 111168, Control_c, 0, 64, 127
2, 111168, Note_on_c, 0, 74, 100
2, 111168, Note_on_c, 0, 65, 80
2, 111212, Note_off_c, 0, 65, 100
2, 111216, Note_on_c, 0, 68, 80
2, 111260, Note_off_c, 0, 68, 100
2, 111264, Note_on_c, 0, 67, 80
2, 111308, Note_off_c, 0, 67, 100
2, 111312, Note_on_c, 0, 65, 80
2, 111356, Note_off_c, 0, 74, 100
2, 111356, Note_off_c, 0, 65, 100
2, 111356, Control_c, 0, 64, 0
2, 111360, Control_c, 0, 64, 127
2, 111360, Note_on_c, 0, 75, 80
2, 111360, Note_on_c, 0, 63, 80
2, 111404, Note_off_c, 0, 63, 100
2, 111408, Note_on_c, 0, 65, 80
2, 111452, Note_off_c, 0, 65, 100
2, 111456, Note_on_c, 0, 67, 80
2, 111500, Note_off_c, 0, 67, 100
2, 111504, Note_on_c, 0, 68, 80
2, 111548, Note_off_c, 0, 68, 100
2, 111548, Control_c, 0, 64, 0
2, 111552, Control_c, 0, 64, 127
2, 111552, Note_on_c, 0, 70, 80
2, 111596, Note_off_c, 0, 70, 100
2, 111600, Note_on_c, 0, 71, 80
2, 111644, Note_off_c, 0, 71, 100
2, 111648, Note_on_c, 0, 72, 80
2, 111692, Note_off_c, 0, 72, 100
2, 111696, Note_on_c, 0, 70, 80
2, 111740, Note_off_c, 0, 75, 100
2, 111740, Note_off_c, 0, 70, 100
2, 111740, Control_c, 0, 64, 0
2, 111744, Control_c, 0, 64, 127
2, 111744, Note_on_c, 0, 77, 100
2, 111744, Note_on_c, 0, 72, 80
2, 111788, Note_off_c, 0, 72, 100
2, 111792, Note_on_c, 0, 70, 80
2, 111836, Note_off_c, 0, 70, 100
2, 111840, Note_on_c, 0, 74, 80
2, 111884, Note_off_c, 0, 74, 100
2, 111888, Note_on_c, 0, 72, 80
2, 111932, Note_off_c, 0, 77, 100
2, 111932, Note_off_c, 0, 72, 100
2, 111932, Control_c, 0, 64, 0
2, 111936, Control_c, 0, 64, 127
2, 111936, Note_on_c, 0, 75, 80
2, 111936, Note_on_c, 0, 67, 80
2, 111980, Note_off_c, 0, 67, 100
2, 111984, Note_on_c, 0, 66, 80
2, 112028, Note_off_c, 0, 66, 100
2, 112032, Note_on_c, 0, 67, 80
2, 112076, Note_off_c, 0, 67, 100
2, 112080, Note_on_c, 0, 66, 80
2, 112124, Note_off_c, 0, 66, 100
2, 112124, Control_c, 0, 64, 0
2, 112128, Control_c, 0, 64, 127
2, 112128, Note_on_c, 0, 67, 80
2, 112172, Note_off_c, 0, 67, 100
2, 112176, Note_on_c, 0, 70, 80
2, 112220, Note_off_c, 0, 70, 100
2, 112224, Note_on_c, 0, 68, 80
2, 112268, Note_off_c, 0, 68, 100
2, 112272, Note_on_c, 0, 67, 80
2, 112316, Note_off_c, 0, 75, 100
2, 112316, Note_off_c, 0, 67, 100
2, 112316, Control_c, 0, 64, 0
2, 112320, Control_c, 0, 64, 127
2, 112320, Note_on_c, 0, 74, 102
2, 112320, Note_on_c, 0, 65, 80
2, 112364, Note_off_c, 0, 65, 100
2, 112368, Note_on_c, 0, 68, 80
2, 112412, Note_off_c, 0, 68, 100
2, 112416, Note_on_c, 0, 67, 80
2, 112460, Note_off_c, 0, 67, 100
2, 112464, Note_on_c, 0, 65, 80
2, 112508, Note_off_c, 0, 74, 100
2, 112508, Note_off_c, 0, 65, 100
2, 112508, Control_c, 0, 64, 0
2, 112512, Control_c, 0, 64, 127
2, 112512, Note_on_c, 0, 75, 80
2, 112560, Note_on_c, 0, 63, 80
2, 112604, Note_off_c, 0, 63, 100
2, 112608, Note_on_c, 0, 67, 80
2, 112652, Note_off_c, 0, 67, 100
2, 112656, Note_on_c, 0, 63, 80
2, 112700, Note_off_c, 0, 75, 100
2, 112700, Note_off_c, 0, 63, 100
2, 112700, Control_c, 0, 64, 0
2, 112704, Control_c, 0, 64, 127
2, 112704, Note_on_c, 0, 74, 80
2, 112752, Note_on_c, 0, 63, 80
2, 112796, Note_off_c, 0, 63, 100
2, 112800, Note_on_c, 0, 68, 80
2, 112844, Note_off_c, 0, 68, 100
2, 112848, Note_on_c, 0, 63, 80
2, 112892, Note_off_c, 0, 74, 100
2, 112892, Note_off_c, 0, 63, 100
2, 112892, Control_c, 0, 64, 0
2, 112896, Control_c, 0, 64, 127
2, 112896, Note_on_c, 0, 73, 80
2, 112944, Note_on_c, 0, 63, 80
2, 112988, Note_off_c, 0, 63, 100
2, 112992, Note_on_c, 0, 70, 80
2, 113036, Note_off_c, 0, 70, 100
2, 113040, Note_on_c, 0, 63, 80
2, 113084, Note_off_c, 0, 73, 100
2, 113084, Note_off_c, 0, 63, 100
2, 113084, Control_c, 0, 64, 0
2, 113088, Control_c, 0, 64, 127
2, 113088, Note_on_c, 0, 63, 80
2, 113088, Note_on_c, 0, 72, 80
2, 113132, Note_off_c, 0, 72, 100
2, 113136, Note_on_c, 0, 75, 80
2, 113180, Note_off_c, 0, 63, 100
2, 113180, Note_off_c, 0, 75, 100
2, 113184, Note_on_c, 0, 68, 80
2, 113184, Note_on_c, 0, 77, 80
2, 113228, Note_off_c, 0, 77, 100
2, 113232, Note_on_c, 0, 75, 80
2, 113276, Note_off_c, 0, 68, 100
2, 113276, Note_off_c, 0, 75, 100
2, 113276, Control_c, 0, 64, 0
2, 113280, Control_c, 0, 64, 127
2, 113280, Note_on_c, 0, 68, 80
2, 113280, Note_on_c, 0, 77, 80
2, 113324, Note_off_c, 0, 77, 100
2, 113328, Note_on_c, 0, 75, 80
2, 113372, Note_off_c, 0, 68, 100
2, 113372, Note_off_c, 0, 75, 100
2, 113376, Note_on_c, 0, 68, 80
2, 113376, Note_on_c, 0, 77, 80
2, 113420, Note_off_c, 0, 77, 100
2, 113424, Note_on_c, 0, 75, 80
2, 113468, Note_off_c, 0, 68, 100
2, 113468, Note_off_c, 0, 75, 100
2, 113468, Control_c, 0, 64, 0
2, 113472, Control_c, 0, 64, 127
2, 113472, Note_on_c, 0, 68, 80
2, 113472, Note_on_c, 0, 77, 80
2, 113516, Note_off_c, 0, 77, 100
2, 113520, Note_on_c, 0, 75, 80
2, 113564, Note_off_c, 0, 68, 100
2, 113564, Note_off_c, 0, 75, 100
2, 113568, Note_on_c, 0, 68, 80
2, 113568, Note_on_c, 0, 77, 80
2, 113612, Note_off_c, 0, 77, 100
2, 113616, Note_on_c, 0, 75, 80
2, 113660, Note_off_c, 0, 68, 100
2, 113660, Note_off_c, 0, 75, 100
2, 113660, Control_c, 0, 64, 0
2, 113664, Control_c, 0, 64, 127
2, 113664, Note_on_c, 0, 68, 80
2, 113664, Note_on_c, 0, 77, 80
2, 113708, Note_off_c, 0, 77, 100
2, 113712, Note_on_c, 0, 75, 80
2, 113756, Note_off_c, 0, 68, 100
2, 113756, Note_off_c, 0, 75, 100
2, 113760, Note_on_c, 0, 67, 80
2, 113760, Note_on_c, 0, 77, 80
2, 113804, Note_off_c, 0, 77, 100
2, 113808, Note_on_c, 0, 75, 80
2, 113852, Note_off_c, 0, 67, 100
2, 113852, Note_off_c, 0, 75, 100
2, 113852, Control_c, 0, 64, 0
2, 113856, Control_c, 0, 64, 127
2, 113856, Note_on_c, 0, 67, 80
2, 113856, Note_on_c, 0, 77, 80
2, 113900, Note_off_c, 0, 77, 100
2, 113904, Note_on_c, 0, 75, 80
2, 113948, Note_off_c, 0, 67, 100
2, 113948, Note_off_c, 0, 75, 100
2, 113952, Note_on_c, 0, 65, 80
2, 113952, Note_on_c, 0, 77, 80
2, 113996, Note_off_c, 0, 77, 100
2, 114000, Note_on_c, 0, 75, 80
2, 114044, Note_off_c, 0, 65, 100
2, 114044, Note_off_c, 0, 75, 100
2, 114044, Control_c, 0, 64, 0
2, 114048, Control_c, 0, 64, 127
2, 114048, Note_on_c, 0, 67, 80
2, 114048, Note_on_c, 0, 77, 80
2, 114092, Note_off_c, 0, 77, 100
2, 114096, Note_on_c, 0, 75, 80
2, 114140, Note_off_c, 0, 67, 100
2, 114140, Note_off_c, 0, 75, 100
2, 114144, Note_on_c, 0, 63, 80
2, 114144, Note_on_c, 0, 77, 80
2, 114188, Note_off_c, 0, 77, 100
2, 114192, Note_on_c, 0, 75, 80
2, 114236, Note_off_c, 0, 63, 100
2, 114236, Note_off_c, 0, 75, 100
2, 114236, Control_c, 0, 64, 0
2, 114240, Control_c, 0, 64, 127
2, 114240, Note_on_c, 0, 77, 80
2, 114240, Note_on_c, 0, 68, 80
2, 114284, Note_off_c, 0, 77, 100
2, 114288, Note_on_c, 0, 75, 80
2, 114332, Note_off_c, 0, 75, 100
2, 114336, Note_on_c, 0, 77, 80
2, 114380, Note_off_c, 0, 77, 100
2, 114384, Note_on_c, 0, 75, 80
2, 114428, Note_off_c, 0, 68, 100
2, 114428, Note_off_c, 0, 75, 100
2, 114428, Control_c, 0, 64, 0
2, 114432, Control_c, 0, 64, 127
2, 114432, Note_on_c, 0, 77, 80
2, 114432, Note_on_c, 0, 68, 80
2, 114476, Note_off_c, 0, 77, 100
2, 114480, Note_on_c, 0, 75, 80
2, 114524, Note_off_c, 0, 75, 100
2, 114528, Note_on_c, 0, 77, 80
2, 114572, Note_off_c, 0, 77, 100
2, 114576, Note_on_c, 0, 75, 80
2, 114620, Note_off_c, 0, 68, 100
2, 114620, Note_off_c, 0, 75, 100
2, 114620, Control_c, 0, 64, 0
2, 114624, Control_c, 0, 64, 127
2, 114624, Note_on_c, 0, 77, 80
2, 114624, Note_on_c, 0, 70, 80
2, 114668, Note_off_c, 0, 77, 100
2, 114672, Note_on_c, 0, 75, 80
2, 114716, Note_off_c, 0, 75, 100
2, 114720, Note_on_c, 0, 77, 80
2, 114764, Note_off_c, 0, 77, 100
2, 114768, Note_on_c, 0, 75, 80
2, 114812, Note_off_c, 0, 70, 100
2, 114812, Note_off_c, 0, 75, 100
2, 114812, Control_c, 0, 64, 0
2, 114816, Control_c, 0, 64, 127
2, 114816, Note_on_c, 0, 77, 80
2, 114816, Note_on_c, 0, 72, 80
2, 114816, Note_on_c, 0, 68, 80
2, 114860, Note_off_c, 0, 77, 100
2, 114864, Note_on_c, 0, 75, 80
2, 114908, Note_off_c, 0, 75, 100
2, 114912, Note_on_c, 0, 77, 80
2, 114956, Note_off_c, 0, 77, 100
2, 114960, Note_on_c, 0, 75, 80
2, 115004, Note_off_c, 0, 72, 100
2, 115004, Note_off_c, 0, 68, 100
2, 115004, Note_off_c, 0, 75, 100
2, 115004, Control_c, 0, 64, 0
2, 115008, Control_c, 0, 64, 127
2, 115008, Note_on_c, 0, 77, 80
2, 115008, Note_on_c, 0, 70, 80
2, 115008, Note_on_c, 0, 67, 80
2, 115052, Note_off_c, 0, 77, 100
2, 115056, Note_on_c, 0, 75, 80
2, 115100, Note_off_c, 0, 75, 100
2, 115104, Note_on_c, 0, 77, 80
2, 115148, Note_off_c, 0, 77, 100
2, 115152, Note_on_c, 0, 75, 80
2, 115196, Note_off_c, 0, 70, 100
2, 115196, Note_off_c, 0, 67, 100
2, 115196, Note_off_c, 0, 75, 100
2, 115196, Control_c, 0, 64, 0
2, 115200, Control_c, 0, 64, 127
2, 115200, Note_on_c, 0, 72, 80
2, 115212, Note_off_c, 0, 72, 100
2, 115214, Note_on_c, 0, 70, 80
2, 115246, Note_off_c, 0, 70, 100
2, 115248, Note_on_c, 0, 69, 80
2, 115292, Note_off_c, 0, 69, 100
2, 115296, Note_on_c, 0, 70, 80
2, 115340, Note_off_c, 0, 70, 100
2, 115344, Note_on_c, 0, 72, 80
2, 115388, Note_off_c, 0, 72, 100
2, 115388, Control_c, 0, 64, 0
2, 115392, Control_c, 0, 64, 127
2, 115392, Note_on_c, 0, 73, 80
2, 115440, Note_on_c, 0, 80, 80
2, 115484, Note_off_c, 0, 80, 100
2, 115488, Note_on_c, 0, 82, 80
2, 115532, Note_off_c, 0, 82, 100
2, 115536, Note_on_c, 0, 80, 80
2, 115580, Note_off_c, 0, 73, 100
2, 115580, Note_off_c, 0, 80, 100
2, 115580, Control_c, 0, 64, 0
2, 115584, Control_c, 0, 64, 127
2, 115584, Note_on_c, 0, 73, 80
2, 115584, Note_on_c, 0, 82, 80
2, 115628, Note_off_c, 0, 82, 100
2, 115632, Note_on_c, 0, 80, 80
2, 115676, Note_off_c, 0, 80, 100
2, 115680, Note_on_c, 0, 82, 80
2, 115724, Note_off_c, 0, 82, 100
2, 115728, Note_on_c, 0, 80, 80
2, 115772, Note_off_c, 0, 73, 100
2, 115772, Note_off_c, 0, 80, 100
2, 115772, Control_c, 0, 64, 0
2, 115776, Control_c, 0, 64, 127
2, 115776, Note_on_c, 0, 72, 80
2, 115776, Note_on_c, 0, 82, 80
2, 115820, Note_off_c, 0, 82, 100
2, 115824, Note_on_c, 0, 80, 80
2, 115868, Note_off_c, 0, 80, 100
2, 115872, Note_on_c, 0, 82, 80
2, 115916, Note_off_c, 0, 82, 100
2, 115920, Note_on_c, 0, 80, 80
2, 115964, Note_off_c, 0, 72, 100
2, 115964, Note_off_c, 0, 80, 100
2, 115964, Control_c, 0, 64, 0
2, 115968, Control_c, 0, 64, 127
2, 115968, Note_on_c, 0, 77, 80
2, 115968, Note_on_c, 0, 82, 80
2, 116012, Note_off_c, 0, 82, 100
2, 116016, Note_on_c, 0, 80, 80
2, 116060, Note_off_c, 0, 80, 100
2, 116064, Note_on_c, 0, 82, 80
2, 116108, Note_off_c, 0, 82, 100
2, 116112, Note_on_c, 0, 80, 80
2, 116156, Note_off_c, 0, 77, 100
2, 116156, Note_off_c, 0, 80, 100
2, 116156, Control_c, 0, 64, 0
2, 116160, Control_c, 0, 64, 127
2, 116160, Note_on_c, 0, 70, 80
2, 116160, Note_on_c, 0, 80, 80
2, 116204, Note_off_c, 0, 80, 100
2, 116208, Note_on_c, 0, 79, 80
2, 116252, Note_off_c, 0, 79, 100
2, 116256, Note_on_c, 0, 80, 80
2, 116300, Note_off_c, 0, 80, 100
2, 116304, Note_on_c, 0, 79, 80
2, 116348, Note_off_c, 0, 70, 100
2, 116348, Note_off_c, 0, 79, 100
2, 116348, Control_c, 0, 64, 0
2, 116352, Control_c, 0, 64, 127
2, 116352, Note_on_c, 0, 75, 80
2, 116352, Note_on_c, 0, 82, 80
2, 116396, Note_off_c, 0, 82, 100
2, 116400, Note_on_c, 0, 80, 80
2, 116444, Note_off_c, 0, 80, 100
2, 116448, Note_on_c, 0, 82, 80
2, 116492, Note_off_c, 0, 82, 100
2, 116496, Note_on_c, 0, 80, 80
2, 116540, Note_off_c, 0, 75, 100
2, 116540, Note_off_c, 0, 80, 100
2, 116540, Control_c, 0, 64, 0
2, 116544, Control_c, 0, 64, 127
2, 116544, Note_on_c, 0, 68, 80
2, 116544, Note_on_c, 0, 77, 80
2, 116588, Note_off_c, 0, 77, 100
2, 116592, Note_on_c, 0, 75, 80
2, 116636, Note_off_c, 0, 75, 100
2, 116640, Note_on_c, 0, 77, 80
2, 116684, Note_off_c, 0, 77, 100
2, 116688, Note_on_c, 0, 75, 80
2, 116732, Note_off_c, 0, 68, 100
2, 116732, Note_off_c, 0, 75, 100
2, 116732, Control_c, 0, 64, 0
2, 116736, Control_c, 0, 64, 127
2, 116736, Note_on_c, 0, 68, 80
2, 116736, Note_on_c, 0, 72, 80
2, 116736, Note_on_c, 0, 77, 80
2, 116780, Note_off_c, 0, 77, 100
2, 116784, Note_on_c, 0, 75, 80
2, 116828, Note_off_c, 0, 75, 100
2, 116832, Note_on_c, 0, 77, 80
2, 116876, Note_off_c, 0, 77, 100
2, 116880, Note_on_c, 0, 75, 80
2, 116924, Note_off_c, 0, 68, 100
2, 116924, Note_off_c, 0, 72, 100
2, 116924, Note_off_c, 0, 75, 100
2, 116924, Control_c, 0, 64, 0
2, 116928, Control_c, 0, 64, 127
2, 116928, Note_on_c, 0, 70, 80
2, 116928, Note_on_c, 0, 67, 80
2, 116928, Note_on_c, 0, 77, 80
2, 116972, Note_off_c, 0, 77, 100
2, 116976, Note_on_c, 0, 75, 80
2, 117020, Note_off_c, 0, 75, 100
2, 117024, Note_on_c, 0, 77, 80
2, 117068, Note_off_c, 0, 77, 100
2, 117072, Note_on_c, 0, 75, 80
2, 117116, Note_off_c, 0, 70, 100
2, 117116, Note_off_c, 0, 67, 100
2, 117116, Note_off_c, 0, 75, 100
2, 117116, Control_c, 0, 64, 0
2, 117120, Note_on_c, 0, 68, 80
2, 117212, Note_off_c, 0, 68, 100
2, 117216, Note_on_c, 0, 63, 80
2, 117308, Note_off_c, 0, 63, 100
2, 117312, Note_on_c, 0, 63, 80
2, 117404, Note_off_c, 0, 63, 100
2, 117408, Note_on_c, 0, 63, 80
2, 117500, Note_off_c, 0, 63, 100
2, 117504, Note_on_c, 0, 63, 80
2, 117596, Note_off_c, 0, 63, 100
2, 117600, Note_on_c, 0, 63, 80
2, 117692, Note_off_c, 0, 63, 100
2, 117696, Note_on_c, 0, 63, 70
2, 117696, Note_on_c, 0, 60, 71
2, 117696, Note_on_c, 0, 72, 80
2, 117788, Note_off_c, 0, 63, 100
2, 117788, Note_off_c, 0, 60, 100
2, 117792, Note_on_c, 0, 63, 71
2, 117792, Note_on_c, 0, 60, 67
2, 117884, Note_off_c, 0, 63, 100
2, 117884, Note_off_c, 0, 60, 100
2, 117888, Note_on_c, 0, 63, 68
2, 117888, Note_on_c, 0, 60, 72
2, 117980, Note_off_c, 0, 63, 100
2, 117980, Note_off_c, 0, 60, 100
2, 117984, Note_on_c, 0, 63, 67
2, 117984, Note_on_c, 0, 60, 68
2, 118076, Note_off_c, 0, 72, 100
2, 118076, Note_off_c, 0, 63, 100
2, 118076, Note_off_c, 0, 60, 100
2, 118080, Note_on_c, 0, 63, 68
2, 118080, Note_on_c, 0, 60, 68
2, 118080, Note_on_c, 0, 70, 80
2, 118172, Note_off_c, 0, 63, 100
2, 118172, Note_off_c, 0, 60, 100
2, 118172, Note_off_c, 0, 70, 100
2, 118176, Note_on_c, 0, 63, 68
2, 118176, Note_on_c, 0, 60, 76
2, 118176, Note_on_c, 0, 68, 80
2, 118268, Note_off_c, 0, 63, 100
2, 118268, Note_off_c, 0, 60, 100
2, 118268, Note_off_c, 0, 68, 100
2, 118272, Note_on_c, 0, 63, 71
2, 118272, Note_on_c, 0, 61, 69
2, 118272, Note_on_c, 0, 68, 80
2, 118364, Note_off_c, 0, 63, 100
2, 118364, Note_off_c, 0, 61, 100
2, 118368, Note_on_c, 0, 63, 67
2, 118368, Note_on_c, 0, 61, 68
2, 118460, Note_off_c, 0, 68, 100
2, 118460, Note_off_c, 0, 63, 100
2, 118460, Note_off_c, 0, 61, 100
2, 118464, Note_on_c, 0, 63, 69
2, 118464, Note_on_c, 0, 61, 70
2, 118464, Note_on_c, 0, 67, 80
2, 118556, Note_off_c, 0, 63, 100
2, 118556, Note_off_c, 0, 61, 100
2, 118560, Note_on_c, 0, 63, 69
2, 118560, Note_on_c, 0, 61, 67
2, 118652, Note_off_c, 0, 67, 100
2, 118652, Note_off_c, 0, 63, 100
2, 118652, Note_off_c, 0, 61, 100
2, 118656, Note_on_c, 0, 63, 68
2, 118656, Note_on_c, 0, 61, 69
2, 118656, Note_on_c, 0, 67, 80
2, 118748, Note_off_c, 0, 63, 100
2, 118748, Note_off_c, 0, 61, 100
2, 118752, Note_on_c, 0, 63, 65
2, 118752, Note_on_c, 0, 61, 68
2, 118796, Note_off_c, 0, 67, 100
2, 118800, Note_on_c, 0, 68, 80
2, 118844, Note_off_c, 0, 63, 100
2, 118844, Note_off_c, 0, 61, 100
2, 118844, Note_off_c, 0, 68, 100
2, 118848, Note_on_c, 0, 63, 70
2, 118848, Note_on_c, 0, 61, 68
2, 118848, Note_on_c, 0, 70, 80
2, 118940, Note_off_c, 0, 63, 100
2, 118940, Note_off_c, 0, 61, 100
2, 118944, Note_on_c, 0, 63, 69
2, 118944, Note_on_c, 0, 61, 70
2, 119036, Note_off_c, 0, 70, 100
2, 119036, Note_off_c, 0, 63, 100
2, 119036, Note_off_c, 0, 61, 100
2, 119040, Note_on_c, 0, 63, 70
2, 119040, Note_on_c, 0, 61, 70
2, 119040, Note_on_c, 0, 70, 80
2, 119132, Note_off_c, 0, 63, 100
2, 119132, Note_off_c, 0, 61, 100
2, 119136, Note_on_c, 0, 63, 70
2, 119136, Note_on_c, 0, 61, 68
2, 119228, Note_off_c, 0, 70, 100
2, 119228, Note_off_c, 0, 63, 100
2, 119228, Note_off_c, 0, 61, 100
2, 119232, Note_on_c, 0, 63, 69
2, 119232, Note_on_c, 0, 61, 69
2, 119232, Note_on_c, 0, 70, 80
2, 119324, Note_off_c, 0, 63, 100
2, 119324, Note_off_c, 0, 61, 100
2, 119328, Note_on_c, 0, 63, 69
2, 119328, Note_on_c, 0, 61, 70
2, 119372, Note_off_c, 0, 70, 100
2, 119376, Note_on_c, 0, 72, 80
2, 119420, Note_off_c, 0, 63, 100
2, 119420, Note_off_c, 0, 61, 100
2, 119420, Note_off_c, 0, 72, 100
2, 119424, Note_on_c, 0, 63, 70
2, 119424, Note_on_c, 0, 60, 68
2, 119424, Note_on_c, 0, 68, 80
2, 119516, Note_off_c, 0, 63, 100
2, 119516, Note_off_c, 0, 60, 100
2, 119520, Note_on_c, 0, 63, 70
2, 119520, Note_on_c, 0, 60, 69
2, 119612, Note_off_c, 0, 68, 100
2, 119612, Note_off_c, 0, 63, 100
2, 119612, Note_off_c, 0, 60, 100
2, 119616, Note_on_c, 0, 63, 69
2, 119616, Note_on_c, 0, 60, 70
2, 119708, Note_off_c, 0, 63, 100
2, 119708, Note_off_c, 0, 60, 100
2, 119712, Note_on_c, 0, 63, 70
2, 119712, Note_on_c, 0, 60, 69
2, 119804, Note_off_c, 0, 63, 100
2, 119804, Note_off_c, 0, 60, 100
2, 119808, Note_on_c, 0, 63, 69
2, 119808, Note_on_c, 0, 60, 68
2, 119900, Note_off_c, 0, 63, 100
2, 119900, Note_off_c, 0, 60, 100
2, 119904, Note_on_c, 0, 63, 68
2, 119904, Note_on_c, 0, 60, 69
2, 119996, Note_off_c, 0, 63, 100
2, 119996, Note_off_c, 0, 60, 100
2, 120000, Note_on_c, 0, 63, 71
2, 120000, Note_on_c, 0, 60, 68
2, 120000, Note_on_c, 0, 72, 80
2, 120092, Note_off_c, 0, 63, 100
2, 120092, Note_off_c, 0, 60, 100
2, 120092, Note_off_c, 0, 72, 100
2, 120096, Note_on_c, 0, 63, 68
2, 120096, Note_on_c, 0, 60, 69
2, 120096, Note_on_c, 0, 71, 80
2, 120188, Note_off_c, 0, 63, 100
2, 120188, Note_off_c, 0, 60, 100
2, 120188, Note_off_c, 0, 71, 100
2, 120192, Note_on_c, 0, 63, 68
2, 120192, Note_on_c, 0, 60, 69
2, 120192, Note_on_c, 0, 73, 80
2, 120284, Note_off_c, 0, 63, 100
2, 120284, Note_off_c, 0, 60, 100
2, 120284, Note_off_c, 0, 73, 100
2, 120288, Note_on_c, 0, 63, 70
2, 120288, Note_on_c, 0, 60, 70
2, 120288, Note_on_c, 0, 72, 80
2, 120380, Note_off_c, 0, 63, 100
2, 120380, Note_off_c, 0, 60, 100
2, 120380, Note_off_c, 0, 72, 100
2, 120384, Note_on_c, 0, 63, 70
2, 120384, Note_on_c, 0, 60, 70
2, 120384, Note_on_c, 0, 70, 80
2, 120476, Note_off_c, 0, 63, 100
2, 120476, Note_off_c, 0, 60, 100
2, 120476, Note_off_c, 0, 70, 100
2, 120480, Note_on_c, 0, 63, 70
2, 120480, Note_on_c, 0, 60, 70
2, 120480, Note_on_c, 0, 68, 80
2, 120572, Note_off_c, 0, 63, 100
2, 120572, Note_off_c, 0, 60, 100
2, 120572, Note_off_c, 0, 68, 100
2, 120576, Note_on_c, 0, 63, 69
2, 120576, Note_on_c, 0, 61, 69
2, 120576, Note_on_c, 0, 68, 80
2, 120668, Note_off_c, 0, 63, 100
2, 120668, Note_off_c, 0, 61, 100
2, 120668, Note_off_c, 0, 68, 100
2, 120672, Note_on_c, 0, 63, 70
2, 120672, Note_on_c, 0, 61, 69
2, 120672, Note_on_c, 0, 67, 80
2, 120764, Note_off_c, 0, 63, 100
2, 120764, Note_off_c, 0, 61, 100
2, 120764, Note_off_c, 0, 67, 100
2, 120768, Note_on_c, 0, 63, 70
2, 120768, Note_on_c, 0, 61, 68
2, 120768, Note_on_c, 0, 67, 80
2, 120860, Note_off_c, 0, 63, 100
2, 120860, Note_off_c, 0, 61, 100
2, 120860, Note_off_c, 0, 67, 100
2, 120864, Note_on_c, 0, 63, 70
2, 120864, Note_on_c, 0, 61, 63
2, 120864, Note_on_c, 0, 66, 80
2, 120956, Note_off_c, 0, 63, 100
2, 120956, Note_off_c, 0, 61, 100
2, 120956, Note_off_c, 0, 66, 100
2, 120960, Note_on_c, 0, 63, 67
2, 120960, Note_on_c, 0, 61, 69
2, 120960, Note_on_c, 0, 67, 80
2, 121052, Note_off_c, 0, 63, 100
2, 121052, Note_off_c, 0, 61, 100
2, 121052, Note_off_c, 0, 67, 100
2, 121056, Note_on_c, 0, 63, 68
2, 121056, Note_on_c, 0, 61, 69
2, 121056, Note_on_c, 0, 68, 80
2, 121148, Note_off_c, 0, 63, 100
2, 121148, Note_off_c, 0, 61, 100
2, 121148, Note_off_c, 0, 68, 100
2, 121152, Note_on_c, 0, 63, 64
2, 121152, Note_on_c, 0, 61, 66
2, 121152, Note_on_c, 0, 70, 80
2, 121244, Note_off_c, 0, 63, 100
2, 121244, Note_off_c, 0, 61, 100
2, 121244, Note_off_c, 0, 70, 100
2, 121248, Note_on_c, 0, 63, 70
2, 121248, Note_on_c, 0, 61, 69
2, 121248, Note_on_c, 0, 69, 80
2, 121340, Note_off_c, 0, 63, 100
2, 121340, Note_off_c, 0, 61, 100
2, 121340, Note_off_c, 0, 69, 100
2, 121344, Note_on_c, 0, 63, 69
2, 121344, Note_on_c, 0, 61, 70
2, 121344, Note_on_c, 0, 70, 80
2, 121436, Note_off_c, 0, 63, 100
2, 121436, Note_off_c, 0, 61, 100
2, 121436, Note_off_c, 0, 70, 100
2, 121440, Note_on_c, 0, 63, 70
2, 121440, Note_on_c, 0, 61, 70
2, 121440, Note_on_c, 0, 69, 80
2, 121532, Note_off_c, 0, 63, 100
2, 121532, Note_off_c, 0, 61, 100
2, 121532, Note_off_c, 0, 69, 100
2, 121536, Note_on_c, 0, 63, 70
2, 121536, Note_on_c, 0, 61, 68
2, 121536, Note_on_c, 0, 70, 80
2, 121628, Note_off_c, 0, 63, 100
2, 121628, Note_off_c, 0, 61, 100
2, 121628, Note_off_c, 0, 70, 100
2, 121632, Note_on_c, 0, 63, 70
2, 121632, Note_on_c, 0, 61, 68
2, 121632, Note_on_c, 0, 72, 80
2, 121724, Note_off_c, 0, 63, 100
2, 121724, Note_off_c, 0, 61, 100
2, 121724, Note_off_c, 0, 72, 100
2, 121728, Note_on_c, 0, 63, 80
2, 121728, Note_on_c, 0, 60, 80
2, 121728, Note_on_c, 0, 68, 80
2, 121820, Note_off_c, 0, 63, 100
2, 121820, Note_off_c, 0, 60, 100
2, 121824, Note_on_c, 0, 63, 80
2, 121824, Note_on_c, 0, 60, 80
2, 121916, Note_off_c, 0, 68, 100
2, 121916, Note_off_c, 0, 63, 100
2, 121916, Note_off_c, 0, 60, 100
2, 121920, Note_on_c, 0, 63, 80
2, 121920, Note_on_c, 0, 60, 80
2, 122012, Note_off_c, 0, 63, 100
2, 122012, Note_off_c, 0, 60, 100
2, 122016, Note_on_c, 0, 63, 80
2, 122016, Note_on_c, 0, 60, 80
2, 122108, Note_off_c, 0, 63, 100
2, 122108, Note_off_c, 0, 60, 100
2, 122112, Note_on_c, 0, 63, 80
2, 122112, Note_on_c, 0, 60, 80
2, 122204, Note_off_c, 0, 63, 100
2, 122204, Note_off_c, 0, 60, 100
2, 122208, Note_on_c, 0, 63, 80
2, 122208, Note_on_c, 0, 60, 80
2, 122208, Note_on_c, 0, 69, 80
2, 122300, Note_off_c, 0, 63, 100
2, 122300, Note_off_c, 0, 60, 100
2, 122300, Note_off_c, 0, 69, 100
2, 122304, Note_on_c, 0, 63, 70
2, 122304, Note_on_c, 0, 61, 70
2, 122304, Note_on_c, 0, 70, 70
2, 122396, Note_off_c, 0, 63, 100
2, 122396, Note_off_c, 0, 61, 100
2, 122400, Note_on_c, 0, 63, 70
2, 122400, Note_on_c, 0, 61, 70
2, 122492, Note_off_c, 0, 70, 100
2, 122492, Note_off_c, 0, 63, 100
2, 122492, Note_off_c, 0, 61, 100
2, 122496, Note_on_c, 0, 63, 70
2, 122496, Note_on_c, 0, 61, 70
2, 122588, Note_off_c, 0, 63, 100
2, 122588, Note_off_c, 0, 61, 100
2, 122592, Note_on_c, 0, 63, 69
2, 122592, Note_on_c, 0, 61, 69
2, 122684, Note_off_c, 0, 63, 100
2, 122684, Note_off_c, 0, 61, 100
2, 122688, Note_on_c, 0, 63, 69
2, 122688, Note_on_c, 0, 61, 69
2, 122780, Note_off_c, 0, 63, 100
2, 122780, Note_off_c, 0, 61, 100
2, 122784, Note_on_c, 0, 63, 68
2, 122784, Note_on_c, 0, 61, 68
2, 122784, Note_on_c, 0, 72, 68
2, 122876, Note_off_c, 0, 63, 100
2, 122876, Note_off_c, 0, 61, 100
2, 122876, Note_off_c, 0, 72, 100
2, 122880, Note_on_c, 0, 63, 68
2, 122880, Note_on_c, 0, 60, 68
2, 122880, Note_on_c, 0, 68, 68
2, 122972, Note_off_c, 0, 63, 100
2, 122972, Note_off_c, 0, 60, 100
2, 122976, Note_on_c, 0, 63, 67
2, 122976, Note_on_c, 0, 60, 67
2, 123068, Note_off_c, 0, 68, 100
2, 123068, Note_off_c, 0, 63, 100
2, 123068, Note_off_c, 0, 60, 100
2, 123072, Note_on_c, 0, 63, 67
2, 123072, Note_on_c, 0, 60, 67
2, 123164, Note_off_c, 0, 63, 100
2, 123164, Note_off_c, 0, 60, 100
2, 123168, Note_on_c, 0, 63, 66
2, 123168, Note_on_c, 0, 60, 66
2, 123260, Note_off_c, 0, 63, 100
2, 123260, Note_off_c, 0, 60, 100
2, 123264, Note_on_c, 0, 63, 66
2, 123264, Note_on_c, 0, 60, 66
2, 123356, Note_off_c, 0, 63, 100
2, 123356, Note_off_c, 0, 60, 100
2, 123360, Note_on_c, 0, 63, 66
2, 123360, Note_on_c, 0, 60, 66
2, 123360, Note_on_c, 0, 69, 66
2, 123452, Note_off_c, 0, 63, 100
2, 123452, Note_off_c, 0, 60, 100
2, 123452, Note_off_c, 0, 69, 100
2, 123456, Note_on_c, 0, 63, 65
2, 123456, Note_on_c, 0, 61, 65
2, 123456, Note_on_c, 0, 70, 65
2, 123548, Note_off_c, 0, 63, 100
2, 123548, Note_off_c, 0, 61, 100
2, 123552, Note_on_c, 0, 63, 65
2, 123552, Note_on_c, 0, 61, 65
2, 123644, Note_off_c, 0, 70, 100
2, 123644, Note_off_c, 0, 63, 100
2, 123644, Note_off_c, 0, 61, 100
2, 123648, Note_on_c, 0, 63, 65
2, 123648, Note_on_c, 0, 61, 65
2, 123740, Note_off_c, 0, 63, 100
2, 123740, Note_off_c, 0, 61, 100
2, 123744, Note_on_c, 0, 63, 65
2, 123744, Note_on_c, 0, 61, 65
2, 123836, Note_off_c, 0, 63, 100
2, 123836, Note_off_c, 0, 61, 100
2, 123840, Note_on_c, 0, 63, 65
2, 123840, Note_on_c, 0, 61, 65
2, 123932, Note_off_c, 0, 63, 100
2, 123932, Note_off_c, 0, 61, 100
2, 123936, Note_on_c, 0, 63, 65
2, 123936, Note_on_c, 0, 61, 65
2, 123936, Note_on_c, 0, 72, 65
2, 124028, Note_off_c, 0, 63, 100
2, 124028, Note_off_c, 0, 61, 100
2, 124028, Note_off_c, 0, 72, 100
2, 124032, Note_on_c, 0, 63, 65
2, 124032, Note_on_c, 0, 60, 65
2, 124032, Note_on_c, 0, 68, 65
2, 124124, Note_off_c, 0, 63, 100
2, 124124, Note_off_c, 0, 60, 100
2, 124128, Note_on_c, 0, 63, 65
2, 124128, Note_on_c, 0, 60, 65
2, 124220, Note_off_c, 0, 63, 100
2, 124220, Note_off_c, 0, 60, 100
2, 124224, Note_on_c, 0, 63, 65
2, 124224, Note_on_c, 0, 60, 65
2, 124316, Note_off_c, 0, 63, 100
2, 124316, Note_off_c, 0, 60, 100
2, 124320, Note_on_c, 0, 63, 65
2, 124320, Note_on_c, 0, 60, 65
2, 124412, Note_off_c, 0, 63, 100
2, 124412, Note_off_c, 0, 60, 100
2, 124416, Note_on_c, 0, 63, 65
2, 124416, Note_on_c, 0, 60, 65
2, 124508, Note_off_c, 0, 63, 100
2, 124508, Note_off_c, 0, 60, 100
2, 124512, Note_on_c, 0, 63, 65
2, 124512, Note_on_c, 0, 60, 65
2, 124604, Note_off_c, 0, 63, 100
2, 124604, Note_off_c, 0, 60, 100
2, 124608, Note_on_c, 0, 63, 65
2, 124608, Note_on_c, 0, 60, 65
2, 124700, Note_off_c, 0, 63, 100
2, 124700, Note_off_c, 0, 60, 100
2, 124704, Note_on_c, 0, 63, 65
2, 124704, Note_on_c, 0, 60, 65
2, 124796, Note_off_c, 0, 68, 100
2, 124796, Note_off_c, 0, 63, 100
2, 124796, Note_off_c, 0, 60, 100
2, 124800, Note_on_c, 0, 63, 65
2, 124800, Note_on_c, 0, 60, 65
2, 124800, Note_on_c, 0, 68, 65
2, 124892, Note_off_c, 0, 63, 100
2, 124892, Note_off_c, 0, 60, 100
2, 124896, Note_on_c, 0, 63, 65
2, 124896, Note_on_c, 0, 60, 65
2, 124988, Note_off_c, 0, 68, 100
2, 124988, Note_off_c, 0, 63, 100
2, 124988, Note_off_c, 0, 60, 100
2, 124992, Note_on_c, 0, 63, 65
2, 124992, Note_on_c, 0, 60, 65
2, 124992, Note_on_c, 0, 68, 65
2, 125084, Note_off_c, 0, 63, 100
2, 125084, Note_off_c, 0, 60, 100
2, 125088, Note_on_c, 0, 63, 65
2, 125088, Note_on_c, 0, 60, 65
2, 125180, Note_off_c, 0, 68, 100
2, 125180, Note_off_c, 0, 63, 100
2, 125180, Note_off_c, 0, 60, 100
2, 125184, Note_on_c, 0, 60, 65
2, 125184, Note_on_c, 0, 63, 65
2, 125184, Note_on_c, 0, 68, 65
2, 126140, Note_off_c, 0, 60, 100
2, 126140, Note_off_c, 0, 63, 100
2, 126140, Note_off_c, 0, 68, 100
2, 126336, Control_c, 0, 7, 0
2, 126528, Note_on_c, 0, 68, 1
2, 126716, Note_off_c, 0, 68, 100
2, 126716, End_track
3, 0, Start_track
3, 0, Title_t, "Left"
3, 0, Control_c, 1, 0, 0
3, 0, Program_c, 1, 0
3, 0, Control_c, 1, 7, 100
3, 0, Control_c, 1, 10, 58
3, 0, Control_c, 1, 91, 127
3, 0, Key_signature, -4, "major"
3, 0, Note_on_c, 1, 51, 80
3, 188, Note_off_c, 1, 51, 100
3, 192, Note_on_c, 1, 44, 80
3, 192, Note_on_c, 1, 51, 80
3, 384, Note_on_c, 1, 56, 80
3, 572, Note_off_c, 1, 56, 100
3, 576, Note_on_c, 1, 56, 80
3, 764, Note_off_c, 1, 44, 100
3, 764, Note_off_c, 1, 51, 100
3, 764, Note_off_c, 1, 56, 100
3, 768, Note_on_c, 1, 51, 80
3, 768, Note_on_c, 1, 46, 80
3, 768, Note_on_c, 1, 56, 80
3, 860, Note_off_c, 1, 56, 100
3, 864, Note_on_c, 1, 55, 80
3, 956, Note_off_c, 1, 55, 100
3, 960, Note_on_c, 1, 55, 80
3, 1100, Note_off_c, 1, 55, 100
3, 1104, Note_on_c, 1, 53, 80
3, 1148, Note_off_c, 1, 53, 100
3, 1152, Note_on_c, 1, 55, 80
3, 1292, Note_off_c, 1, 55, 100
3, 1296, Note_on_c, 1, 51, 80
3, 1340, Note_off_c, 1, 51, 100
3, 1340, Note_off_c, 1, 46, 100
3, 1340, Note_off_c, 1, 51, 100
3, 1344, Note_on_c, 1, 56, 80
3, 1536, Note_on_c, 1, 48, 80
3, 1724, Note_off_c, 1, 56, 100
3, 1724, Note_off_c, 1, 48, 100
3, 1728, Note_on_c, 1, 43, 90
3, 1728, Note_on_c, 1, 51, 90
3, 1916, Note_off_c, 1, 43, 100
3, 1916, Note_off_c, 1, 51, 100
3, 1920, Note_on_c, 1, 51, 99
3, 1920, Note_on_c, 1, 44, 99
3, 2108, Note_off_c, 1, 51, 100
3, 2108, Note_off_c, 1, 44, 100
3, 2112, Note_on_c, 1, 51, 80
3, 2112, Note_on_c, 1, 39, 80
3, 2300, Note_off_c, 1, 51, 100
3, 2300, Note_off_c, 1, 39, 100
3, 2496, Note_on_c, 1, 53, 80
3, 2684, Note_off_c, 1, 53, 100
3, 2688, Note_on_c, 1, 65, 80
3, 2876, Note_off_c, 1, 65, 100
3, 2880, Note_on_c, 1, 63, 80
3, 3068, Note_off_c, 1, 63, 100
3, 3072, Note_on_c, 1, 62, 80
3, 3260, Note_off_c, 1, 62, 100
3, 3264, Note_on_c, 1, 61, 80
3, 3452, Note_off_c, 1, 61, 100
3, 3456, Note_on_c, 1, 60, 80
3, 3644, Note_off_c, 1, 60, 100
3, 3648, Note_on_c, 1, 53, 80
3, 3836, Note_off_c, 1, 53, 100
3, 3840, Note_on_c, 1, 55, 80
3, 4028, Note_off_c, 1, 55, 100
3, 4032, Note_on_c, 1, 56, 80
3, 4220, Note_off_c, 1, 56, 100
3, 4224, Note_on_c, 1, 51, 80
3, 4604, Note_off_c, 1, 51, 100
3, 4608, Note_on_c, 1, 51, 80
3, 4748, Note_off_c, 1, 51, 100
3, 4752, Note_on_c, 1, 51, 80
3, 4796, Note_off_c, 1, 51, 100
3, 4800, Note_on_c, 1, 51, 80
3, 4800, Note_on_c, 1, 44, 80
3, 4896, Note_on_c, 1, 56, 80
3, 4988, Note_off_c, 1, 56, 100
3, 4992, Note_on_c, 1, 56, 80
3, 5084, Note_off_c, 1, 56, 100
3, 5088, Note_on_c, 1, 56, 80
3, 5180, Note_off_c, 1, 56, 100
3, 5184, Note_on_c, 1, 56, 80
3, 5276, Note_off_c, 1, 56, 100
3, 5280, Note_on_c, 1, 56, 80
3, 5372, Note_off_c, 1, 51, 100
3, 5372, Note_off_c, 1, 44, 100
3, 5372, Note_off_c, 1, 56, 100
3, 5376, Note_on_c, 1, 51, 80
3, 5376, Note_on_c, 1, 46, 80
3, 5376, Note_on_c, 1, 56, 80
3, 5468, Note_off_c, 1, 56, 100
3, 5472, Note_on_c, 1, 55, 80
3, 5564, Note_off_c, 1, 55, 100
3, 5568, Note_on_c, 1, 55, 80
3, 5708, Note_off_c, 1, 55, 100
3, 5712, Note_on_c, 1, 53, 80
3, 5756, Note_off_c, 1, 53, 100
3, 5760, Note_on_c, 1, 55, 80
3, 5900, Note_off_c, 1, 55, 100
3, 5904, Note_on_c, 1, 51, 80
3, 5948, Note_off_c, 1, 51, 100
3, 5948, Note_off_c, 1, 46, 100
3, 5948, Note_off_c, 1, 51, 100
3, 5952, Note_on_c, 1, 56, 80
3, 6144, Note_on_c, 1, 48, 80
3, 6332, Note_off_c, 1, 56, 100
3, 6332, Note_off_c, 1, 48, 100
3, 6336, Note_on_c, 1, 43, 80
3, 6336, Note_on_c, 1, 51, 80
3, 6524, Note_off_c, 1, 43, 100
3, 6524, Note_off_c, 1, 51, 100
3, 6528, Note_on_c, 1, 51, 80
3, 6528, Note_on_c, 1, 44, 80
3, 6716, Note_off_c, 1, 51, 100
3, 6716, Note_off_c, 1, 44, 100
3, 6720, Note_on_c, 1, 51, 80
3, 6720, Note_on_c, 1, 39, 80
3, 6908, Note_off_c, 1, 51, 100
3, 6908, Note_off_c, 1, 39, 100
3, 7104, Note_on_c, 1, 53, 80
3, 7292, Note_off_c, 1, 53, 100
3, 7296, Note_on_c, 1, 65, 80
3, 7484, Note_off_c, 1, 65, 100
3, 7488, Note_on_c, 1, 63, 80
3, 7676, Note_off_c, 1, 63, 100
3, 7680, Note_on_c, 1, 62, 80
3, 7868, Note_off_c, 1, 62, 100
3, 7872, Note_on_c, 1, 61, 80
3, 8060, Note_off_c, 1, 61, 100
3, 8064, Note_on_c, 1, 60, 80
3, 8252, Note_off_c, 1, 60, 100
3, 8448, Note_on_c, 1, 51, 80
3, 8636, Note_off_c, 1, 51, 100
3, 8640, Note_on_c, 1, 39, 80
3, 8828, Note_off_c, 1, 39, 100
3, 8832, Note_on_c, 1, 44, 80
3, 9020, Note_off_c, 1, 44, 100
3, 9024, Note_on_c, 1, 32, 80
3, 9212, Note_off_c, 1, 32, 100
3, 9216, Note_on_c, 1, 65, 80
3, 9788, Note_off_c, 1, 65, 100
3, 9792, Note_on_c, 1, 63, 80
3, 9980, Note_off_c, 1, 63, 100
3, 9984, Note_on_c, 1, 63, 80
3, 10076, Note_off_c, 1, 63, 100
3, 10080, Note_on_c, 1, 61, 80
3, 10172, Note_off_c, 1, 61, 100
3, 10176, Note_on_c, 1, 60, 80
3, 10268, Note_off_c, 1, 60, 100
3, 10272, Note_on_c, 1, 58, 80
3, 10364, Note_off_c, 1, 58, 100
3, 10368, Note_on_c, 1, 63, 80
3, 10940, Note_off_c, 1, 63, 100
3, 10944, Note_on_c, 1, 61, 80
3, 11132, Note_off_c, 1, 61, 100
3, 11136, Note_on_c, 1, 61, 80
3, 11228, Note_off_c, 1, 61, 100
3, 11232, Note_on_c, 1, 60, 80
3, 11324, Note_off_c, 1, 60, 100
3, 11328, Note_on_c, 1, 58, 80
3, 11420, Note_off_c, 1, 58, 100
3, 11424, Note_on_c, 1, 56, 80
3, 11516, Note_off_c, 1, 56, 100
3, 11712, Note_on_c, 1, 56, 82
3, 11712, Note_on_c, 1, 60, 82
3, 11900, Note_off_c, 1, 60, 100
3, 11904, Note_on_c, 1, 59, 85
3, 12092, Note_off_c, 1, 56, 100
3, 12092, Note_off_c, 1, 59, 100
3, 12096, Note_on_c, 1, 61, 88
3, 12096, Note_on_c, 1, 58, 88
3, 12096, Note_on_c, 1, 55, 88
3, 12284, Note_off_c, 1, 61, 100
3, 12284, Note_off_c, 1, 58, 100
3, 12284, Note_off_c, 1, 55, 100
3, 12288, Note_on_c, 1, 60, 91
3, 12288, Note_on_c, 1, 56, 91
3, 12476, Note_off_c, 1, 60, 100
3, 12476, Note_off_c, 1, 56, 100
3, 12480, Note_on_c, 1, 60, 94
3, 12480, Note_on_c, 1, 52, 94
3, 12668, Note_off_c, 1, 60, 100
3, 12668, Note_off_c, 1, 52, 100
3, 12672, Note_on_c, 1, 60, 97
3, 12672, Note_on_c, 1, 53, 97
3, 12764, Note_off_c, 1, 53, 100
3, 12768, Note_on_c, 1, 56, 99
3, 12860, Note_off_c, 1, 60, 100
3, 12860, Note_off_c, 1, 56, 100
3, 12864, Note_on_c, 1, 58, 100
3, 12864, Note_on_c, 1, 46, 100
3, 13244, Note_off_c, 1, 58, 100
3, 13244, Note_off_c, 1, 46, 100
3, 13248, Note_on_c, 1, 59, 100
3, 13248, Note_on_c, 1, 47, 100
3, 13436, Note_off_c, 1, 59, 100
3, 13436, Note_off_c, 1, 47, 100
3, 13440, Note_on_c, 1, 60, 100
3, 13440, Note_on_c, 1, 48, 100
3, 13628, Note_off_c, 1, 60, 100
3, 13628, Note_off_c, 1, 48, 100
3, 13632, Note_on_c, 1, 56, 100
3, 13632, Note_on_c, 1, 44, 100
3, 13820, Note_off_c, 1, 56, 100
3, 13820, Note_off_c, 1, 44, 100
3, 13824, Note_on_c, 1, 57, 100
3, 13824, Note_on_c, 1, 45, 100
3, 14012, Note_off_c, 1, 57, 100
3, 14012, Note_off_c, 1, 45, 100
3, 14016, Note_on_c, 1, 58, 100
3, 14016, Note_on_c, 1, 46, 100
3, 14396, Note_off_c, 1, 58, 100
3, 14396, Note_off_c, 1, 46, 100
3, 14400, Note_on_c, 1, 34, 100
3, 14400, Note_on_c, 1, 46, 100
3, 14588, Note_off_c, 1, 34, 100
3, 14588, Note_off_c, 1, 46, 100
3, 14592, Note_on_c, 1, 51, 100
3, 14592, Note_on_c, 1, 39, 100
3, 14780, Note_off_c, 1, 51, 100
3, 14780, Note_off_c, 1, 39, 100
3, 14784, Note_on_c, 1, 51, 100
3, 14784, Note_on_c, 1, 41, 100
3, 14972, Note_off_c, 1, 51, 100
3, 14972, Note_off_c, 1, 41, 100
3, 14976, Note_on_c, 1, 51, 100
3, 14976, Note_on_c, 1, 43, 100
3, 15164, Note_off_c, 1, 51, 100
3, 15164, Note_off_c, 1, 43, 100
3, 15168, Note_on_c, 1, 51, 80
3, 15168, Note_on_c, 1, 44, 80
3, 15264, Note_on_c, 1, 56, 80
3, 15356, Note_off_c, 1, 56, 100
3, 15360, Note_on_c, 1, 56, 80
3, 15452, Note_off_c, 1, 56, 100
3, 15456, Note_on_c, 1, 56, 80
3, 15548, Note_off_c, 1, 56, 100
3, 15552, Note_on_c, 1, 56, 80
3, 15644, Note_off_c, 1, 56, 100
3, 15648, Note_on_c, 1, 56, 80
3, 15740, Note_off_c, 1, 51, 100
3, 15740, Note_off_c, 1, 44, 100
3, 15740, Note_off_c, 1, 56, 100
3, 15744, Note_on_c, 1, 51, 80
3, 15744, Note_on_c, 1, 46, 80
3, 15744, Note_on_c, 1, 56, 80
3, 15836, Note_off_c, 1, 56, 100
3, 15840, Note_on_c, 1, 55, 80
3, 15932, Note_off_c, 1, 55, 100
3, 15936, Note_on_c, 1, 55, 80
3, 16076, Note_off_c, 1, 55, 100
3, 16080, Note_on_c, 1, 53, 80
3, 16124, Note_off_c, 1, 53, 100
3, 16128, Note_on_c, 1, 55, 80
3, 16268, Note_off_c, 1, 55, 100
3, 16272, Note_on_c, 1, 51, 80
3, 16316, Note_off_c, 1, 51, 100
3, 16316, Note_off_c, 1, 46, 100
3, 16316, Note_off_c, 1, 51, 100
3, 16320, Note_on_c, 1, 56, 80
3, 16512, Note_on_c, 1, 48, 84
3, 16700, Note_off_c, 1, 56, 100
3, 16700, Note_off_c, 1, 48, 100
3, 16704, Note_on_c, 1, 43, 89
3, 16704, Note_on_c, 1, 51, 89
3, 16892, Note_off_c, 1, 43, 100
3, 16892, Note_off_c, 1, 51, 100
3, 16896, Note_on_c, 1, 51, 94
3, 16896, Note_on_c, 1, 44, 94
3, 17084, Note_off_c, 1, 51, 100
3, 17084, Note_off_c, 1, 44, 100
3, 17088, Note_on_c, 1, 51, 99
3, 17088, Note_on_c, 1, 39, 99
3, 17276, Note_off_c, 1, 51, 100
3, 17276, Note_off_c, 1, 39, 100
3, 17472, Note_on_c, 1, 53, 80
3, 17660, Note_off_c, 1, 53, 100
3, 17664, Note_on_c, 1, 65, 80
3, 17852, Note_off_c, 1, 65, 100
3, 17856, Note_on_c, 1, 63, 80
3, 18044, Note_off_c, 1, 63, 100
3, 18048, Note_on_c, 1, 62, 80
3, 18236, Note_off_c, 1, 62, 100
3, 18240, Note_on_c, 1, 61, 84
3, 18428, Note_off_c, 1, 61, 100
3, 18432, Note_on_c, 1, 60, 89
3, 18620, Note_off_c, 1, 60, 100
3, 18816, Note_on_c, 1, 51, 80
3, 19004, Note_off_c, 1, 51, 100
3, 19008, Note_on_c, 1, 39, 80
3, 19196, Note_off_c, 1, 39, 100
3, 19200, Note_on_c, 1, 44, 80
3, 19388, Note_off_c, 1, 44, 100
3, 19392, Note_on_c, 1, 32, 80
3, 19580, Note_off_c, 1, 32, 100
3, 19776, Note_on_c, 1, 44, 80
3, 19776, Note_on_c, 1, 39, 80
3, 19776, Note_on_c, 1, 32, 80
3, 20348, Note_off_c, 1, 44, 100
3, 20348, Note_off_c, 1, 39, 100
3, 20348, Note_off_c, 1, 32, 100
3, 20352, Note_on_c, 1, 46, 80
3, 20352, Note_on_c, 1, 39, 80
3, 20352, Note_on_c, 1, 34, 80
3, 20924, Note_off_c, 1, 46, 100
3, 20924, Note_off_c, 1, 39, 100
3, 20924, Note_off_c, 1, 34, 100
3, 20928, Note_on_c, 1, 48, 80
3, 20928, Note_on_c, 1, 39, 80
3, 20928, Note_on_c, 1, 36, 80
3, 21308, Note_off_c, 1, 48, 100
3, 21308, Note_off_c, 1, 39, 100
3, 21308, Note_off_c, 1, 36, 100
3, 21312, Note_on_c, 1, 51, 80
3, 21312, Note_on_c, 1, 43, 80
3, 21500, Note_off_c, 1, 51, 100
3, 21500, Note_off_c, 1, 43, 100
3, 21504, Note_on_c, 1, 51, 80
3, 21504, Note_on_c, 1, 44, 80
3, 21692, Note_off_c, 1, 51, 100
3, 21692, Note_off_c, 1, 44, 100
3, 21696, Note_on_c, 1, 51, 80
3, 21696, Note_on_c, 1, 39, 80
3, 21884, Note_off_c, 1, 51, 100
3, 21884, Note_off_c, 1, 39, 100
3, 22080, Note_on_c, 1, 41, 80
3, 22268, Note_off_c, 1, 41, 100
3, 22272, Note_on_c, 1, 56, 80
3, 22272, Note_on_c, 1, 53, 80
3, 22460, Note_off_c, 1, 56, 100
3, 22460, Note_off_c, 1, 53, 100
3, 22464, Note_on_c, 1, 56, 80
3, 22464, Note_on_c, 1, 51, 80
3, 22652, Note_off_c, 1, 56, 100
3, 22652, Note_off_c, 1, 51, 100
3, 22656, Note_on_c, 1, 56, 80
3, 22656, Note_on_c, 1, 50, 80
3, 22844, Note_off_c, 1, 56, 100
3, 22844, Note_off_c, 1, 50, 100
3, 22848, Note_on_c, 1, 55, 80
3, 22848, Note_on_c, 1, 49, 80
3, 23036, Note_off_c, 1, 55, 100
3, 23036, Note_off_c, 1, 49, 100
3, 23040, Note_on_c, 1, 56, 80
3, 23040, Note_on_c, 1, 48, 80
3, 23228, Note_off_c, 1, 56, 100
3, 23228, Note_off_c, 1, 48, 100
3, 23232, Note_on_c, 1, 41, 80
3, 23420, Note_off_c, 1, 41, 100
3, 23424, Note_on_c, 1, 43, 80
3, 23612, Note_off_c, 1, 43, 100
3, 23616, Note_on_c, 1, 44, 80
3, 23804, Note_off_c, 1, 44, 100
3, 23808, Note_on_c, 1, 51, 80
3, 23808, Note_on_c, 1, 39, 80
3, 24188, Note_off_c, 1, 51, 100
3, 24188, Note_off_c, 1, 39, 100
3, 24384, Note_on_c, 1, 44, 80
3, 24384, Note_on_c, 1, 39, 80
3, 24384, Note_on_c, 1, 32, 80
3, 24956, Note_off_c, 1, 44, 100
3, 24956, Note_off_c, 1, 39, 100
3, 24956, Note_off_c, 1, 32, 100
3, 24960, Note_on_c, 1, 46, 80
3, 24960, Note_on_c, 1, 39, 80
3, 24960, Note_on_c, 1, 34, 80
3, 25532, Note_off_c, 1, 46, 100
3, 25532, Note_off_c, 1, 39, 100
3, 25532, Note_off_c, 1, 34, 100
3, 25536, Note_on_c, 1, 48, 80
3, 25536, Note_on_c, 1, 39, 80
3, 25536, Note_on_c, 1, 36, 80
3, 25728, Note_on_c, 1, 51, 81
3, 25820, Note_off_c, 1, 51, 100
3, 25824, Note_on_c, 1, 51, 83
3, 25916, Note_off_c, 1, 48, 100
3, 25916, Note_off_c, 1, 39, 100
3, 25916, Note_off_c, 1, 36, 100
3, 25916, Note_off_c, 1, 51, 100
3, 25920, Note_on_c, 1, 43, 85
3, 25920, Note_on_c, 1, 51, 85
3, 26012, Note_off_c, 1, 51, 100
3, 26016, Note_on_c, 1, 51, 87
3, 26108, Note_off_c, 1, 43, 100
3, 26108, Note_off_c, 1, 51, 100
3, 26112, Note_on_c, 1, 51, 89
3, 26112, Note_on_c, 1, 44, 89
3, 26300, Note_off_c, 1, 51, 100
3, 26300, Note_off_c, 1, 44, 100
3, 26304, Note_on_c, 1, 51, 80
3, 26304, Note_on_c, 1, 39, 80
3, 26492, Note_off_c, 1, 51, 100
3, 26492, Note_off_c, 1, 39, 100
3, 26688, Note_on_c, 1, 41, 80
3, 26876, Note_off_c, 1, 41, 100
3, 26880, Note_on_c, 1, 56, 80
3, 26880, Note_on_c, 1, 53, 80
3, 27068, Note_off_c, 1, 56, 100
3, 27068, Note_off_c, 1, 53, 100
3, 27072, Note_on_c, 1, 56, 80
3, 27072, Note_on_c, 1, 51, 80
3, 27260, Note_off_c, 1, 56, 100
3, 27260, Note_off_c, 1, 51, 100
3, 27264, Note_on_c, 1, 56, 80
3, 27264, Note_on_c, 1, 50, 80
3, 27452, Note_off_c, 1, 56, 100
3, 27452, Note_off_c, 1, 50, 100
3, 27456, Note_on_c, 1, 55, 80
3, 27456, Note_on_c, 1, 49, 80
3, 27644, Note_off_c, 1, 55, 100
3, 27644, Note_off_c, 1, 49, 100
3, 27648, Note_on_c, 1, 56, 80
3, 27648, Note_on_c, 1, 48, 80
3, 27836, Note_off_c, 1, 56, 100
3, 27836, Note_off_c, 1, 48, 100
3, 27840, Note_on_c, 1, 51, 80
3, 28220, Note_off_c, 1, 51, 100
3, 28224, Note_on_c, 1, 39, 80
3, 28412, Note_off_c, 1, 39, 100
3, 28416, Note_on_c, 1, 44, 80
3, 28604, Note_off_c, 1, 44, 100
3, 28608, Note_on_c, 1, 32, 80
3, 28796, Note_off_c, 1, 32, 100
3, 28800, Note_on_c, 1, 65, 80
3, 29036, Note_off_c, 1, 65, 100
3, 29040, Note_on_c, 1, 53, 80
3, 29084, Note_off_c, 1, 53, 100
3, 29088, Note_on_c, 1, 57, 80
3, 29132, Note_off_c, 1, 57, 100
3, 29136, Note_on_c, 1, 60, 80
3, 29180, Note_off_c, 1, 60, 100
3, 29184, Note_on_c, 1, 65, 93
3, 29468, Note_off_c, 1, 65, 100
3, 29472, Note_on_c, 1, 63, 80
3, 29564, Note_off_c, 1, 63, 100
3, 29568, Note_on_c, 1, 63, 80
3, 29612, Note_off_c, 1, 63, 100
3, 29616, Note_on_c, 1, 61, 80
3, 29660, Note_off_c, 1, 61, 100
3, 29664, Note_on_c, 1, 60, 80
3, 29708, Note_off_c, 1, 60, 100
3, 29712, Note_on_c, 1, 58, 80
3, 29756, Note_off_c, 1, 58, 100
3, 29760, Note_on_c, 1, 57, 80
3, 29804, Note_off_c, 1, 57, 100
3, 29808, Note_on_c, 1, 58, 80
3, 29852, Note_off_c, 1, 58, 100
3, 29856, Note_on_c, 1, 61, 80
3, 29900, Note_off_c, 1, 61, 100
3, 29904, Note_on_c, 1, 58, 80
3, 29948, Note_off_c, 1, 58, 100
3, 29952, Note_on_c, 1, 46, 80
3, 30140, Note_off_c, 1, 46, 100
3, 30144, Note_on_c, 1, 63, 80
3, 30188, Note_off_c, 1, 63, 100
3, 30192, Note_on_c, 1, 51, 80
3, 30236, Note_off_c, 1, 51, 100
3, 30240, Note_on_c, 1, 55, 80
3, 30284, Note_off_c, 1, 55, 100
3, 30288, Note_on_c, 1, 58, 80
3, 30332, Note_off_c, 1, 58, 100
3, 30336, Note_on_c, 1, 63, 102
3, 30620, Note_off_c, 1, 63, 100
3, 30624, Note_on_c, 1, 61, 80
3, 30716, Note_off_c, 1, 61, 100
3, 30720, Note_on_c, 1, 61, 80
3, 30764, Note_off_c, 1, 61, 100
3, 30768, Note_on_c, 1, 60, 80
3, 30812, Note_off_c, 1, 60, 100
3, 30816, Note_on_c, 1, 58, 80
3, 30860, Note_off_c, 1, 58, 100
3, 30864, Note_on_c, 1, 56, 80
3, 30908, Note_off_c, 1, 56, 100
3, 30912, Note_on_c, 1, 55, 80
3, 30956, Note_off_c, 1, 55, 100
3, 30960, Note_on_c, 1, 56, 80
3, 31004, Note_off_c, 1, 56, 100
3, 31008, Note_on_c, 1, 60, 80
3, 31052, Note_off_c, 1, 60, 100
3, 31056, Note_on_c, 1, 56, 80
3, 31100, Note_off_c, 1, 56, 100
3, 31104, Note_on_c, 1, 44, 80
3, 31292, Note_off_c, 1, 44, 100
3, 31296, Note_on_c, 1, 60, 80
3, 31296, Note_on_c, 1, 56, 80
3, 31484, Note_off_c, 1, 60, 100
3, 31484, Note_off_c, 1, 56, 100
3, 31488, Note_on_c, 1, 59, 81
3, 31488, Note_on_c, 1, 56, 81
3, 31676, Note_off_c, 1, 59, 100
3, 31676, Note_off_c, 1, 56, 100
3, 31680, Note_on_c, 1, 61, 83
3, 31680, Note_on_c, 1, 58, 83
3, 31680, Note_on_c, 1, 55, 83
3, 31868, Note_off_c, 1, 61, 100
3, 31868, Note_off_c, 1, 58, 100
3, 31868, Note_off_c, 1, 55, 100
3, 31872, Note_on_c, 1, 60, 85
3, 31872, Note_on_c, 1, 56, 85
3, 32060, Note_off_c, 1, 60, 100
3, 32060, Note_off_c, 1, 56, 100
3, 32064, Note_on_c, 1, 60, 86
3, 32064, Note_on_c, 1, 52, 86
3, 32252, Note_off_c, 1, 60, 100
3, 32252, Note_off_c, 1, 52, 100
3, 32256, Note_on_c, 1, 60, 88
3, 32256, Note_on_c, 1, 53, 88
3, 32444, Note_off_c, 1, 60, 100
3, 32444, Note_off_c, 1, 53, 100
3, 32496, Note_on_c, 1, 34, 80
3, 32540, Note_off_c, 1, 34, 100
3, 32544, Note_on_c, 1, 39, 80
3, 32588, Note_off_c, 1, 39, 100
3, 32592, Note_on_c, 1, 43, 80
3, 32636, Note_off_c, 1, 43, 100
3, 32640, Note_on_c, 1, 46, 80
3, 32684, Note_off_c, 1, 46, 100
3, 32688, Note_on_c, 1, 51, 80
3, 32732, Note_off_c, 1, 51, 100
3, 32736, Note_on_c, 1, 55, 80
3, 32780, Note_off_c, 1, 55, 100
3, 32784, Note_on_c, 1, 57, 80
3, 32828, Note_off_c, 1, 57, 100
3, 32832, Note_on_c, 1, 59, 90
3, 33020, Note_off_c, 1, 59, 100
3, 33072, Note_on_c, 1, 36, 80
3, 33116, Note_off_c, 1, 36, 100
3, 33120, Note_on_c, 1, 39, 80
3, 33164, Note_off_c, 1, 39, 100
3, 33168, Note_on_c, 1, 43, 80
3, 33212, Note_off_c, 1, 43, 100
3, 33216, Note_on_c, 1, 48, 80
3, 33260, Note_off_c, 1, 48, 100
3, 33264, Note_on_c, 1, 51, 80
3, 33308, Note_off_c, 1, 51, 100
3, 33312, Note_on_c, 1, 55, 80
3, 33356, Note_off_c, 1, 55, 100
3, 33360, Note_on_c, 1, 60, 80
3, 33404, Note_off_c, 1, 60, 100
3, 33408, Note_on_c, 1, 57, 90
3, 33596, Note_off_c, 1, 57, 100
3, 33648, Note_on_c, 1, 34, 80
3, 33692, Note_off_c, 1, 34, 100
3, 33696, Note_on_c, 1, 39, 80
3, 33740, Note_off_c, 1, 39, 100
3, 33744, Note_on_c, 1, 43, 80
3, 33788, Note_off_c, 1, 43, 100
3, 33792, Note_on_c, 1, 46, 80
3, 33836, Note_off_c, 1, 46, 100
3, 33840, Note_on_c, 1, 51, 80
3, 33884, Note_off_c, 1, 51, 100
3, 33888, Note_on_c, 1, 55, 80
3, 33932, Note_off_c, 1, 55, 100
3, 33936, Note_on_c, 1, 57, 80
3, 33980, Note_off_c, 1, 57, 100
3, 33984, Note_on_c, 1, 58, 80
3, 34076, Note_off_c, 1, 58, 100
3, 34080, Note_on_c, 1, 46, 80
3, 34172, Note_off_c, 1, 46, 100
3, 34176, Note_on_c, 1, 51, 80
3, 34268, Note_off_c, 1, 51, 100
3, 34272, Note_on_c, 1, 39, 80
3, 34364, Note_off_c, 1, 39, 100
3, 34368, Note_on_c, 1, 41, 80
3, 34460, Note_off_c, 1, 41, 100
3, 34464, Note_on_c, 1, 39, 80
3, 34556, Note_off_c, 1, 39, 100
3, 34560, Note_on_c, 1, 43, 80
3, 34652, Note_off_c, 1, 43, 100
3, 34656, Note_on_c, 1, 39, 80
3, 34748, Note_off_c, 1, 39, 100
3, 34752, Note_on_c, 1, 44, 80
3, 34752, Note_on_c, 1, 39, 80
3, 34752, Note_on_c, 1, 32, 80
3, 35324, Note_off_c, 1, 44, 100
3, 35324, Note_off_c, 1, 39, 100
3, 35324, Note_off_c, 1, 32, 100
3, 35328, Note_on_c, 1, 46, 80
3, 35328, Note_on_c, 1, 39, 80
3, 35328, Note_on_c, 1, 34, 80
3, 35900, Note_off_c, 1, 46, 100
3, 35900, Note_off_c, 1, 39, 100
3, 35900, Note_off_c, 1, 34, 100
3, 35904, Note_on_c, 1, 48, 80
3, 35904, Note_on_c, 1, 39, 80
3, 35904, Note_on_c, 1, 36, 80
3, 36096, Note_on_c, 1, 51, 80
3, 36188, Note_off_c, 1, 51, 100
3, 36192, Note_on_c, 1, 51, 80
3, 36284, Note_off_c, 1, 48, 100
3, 36284, Note_off_c, 1, 39, 100
3, 36284, Note_off_c, 1, 36, 100
3, 36284, Note_off_c, 1, 51, 100
3, 36288, Note_on_c, 1, 43, 80
3, 36288, Note_on_c, 1, 51, 80
3, 36380, Note_off_c, 1, 51, 100
3, 36384, Note_on_c, 1, 51, 80
3, 36476, Note_off_c, 1, 43, 100
3, 36476, Note_off_c, 1, 51, 100
3, 36480, Note_on_c, 1, 51, 80
3, 36480, Note_on_c, 1, 44, 80
3, 36668, Note_off_c, 1, 51, 100
3, 36668, Note_off_c, 1, 44, 100
3, 36672, Note_on_c, 1, 51, 80
3, 36672, Note_on_c, 1, 39, 80
3, 36860, Note_off_c, 1, 51, 100
3, 36860, Note_off_c, 1, 39, 100
3, 37056, Note_on_c, 1, 41, 80
3, 37244, Note_off_c, 1, 41, 100
3, 37248, Note_on_c, 1, 56, 80
3, 37248, Note_on_c, 1, 53, 80
3, 37436, Note_off_c, 1, 56, 100
3, 37436, Note_off_c, 1, 53, 100
3, 37440, Note_on_c, 1, 56, 80
3, 37440, Note_on_c, 1, 51, 80
3, 37628, Note_off_c, 1, 56, 100
3, 37628, Note_off_c, 1, 51, 100
3, 37632, Note_on_c, 1, 56, 80
3, 37632, Note_on_c, 1, 50, 80
3, 37820, Note_off_c, 1, 56, 100
3, 37820, Note_off_c, 1, 50, 100
3, 37824, Note_on_c, 1, 55, 80
3, 37824, Note_on_c, 1, 49, 80
3, 37824, Note_on_c, 1, 58, 80
3, 38012, Note_off_c, 1, 55, 100
3, 38012, Note_off_c, 1, 49, 100
3, 38012, Note_off_c, 1, 58, 100
3, 38016, Note_on_c, 1, 56, 80
3, 38016, Note_on_c, 1, 48, 80
3, 38016, Note_on_c, 1, 60, 80
3, 38204, Note_off_c, 1, 56, 100
3, 38204, Note_off_c, 1, 48, 100
3, 38204, Note_off_c, 1, 60, 100
3, 38208, Note_on_c, 1, 51, 80
3, 38588, Note_off_c, 1, 51, 100
3, 38592, Note_on_c, 1, 39, 80
3, 38780, Note_off_c, 1, 39, 100
3, 38784, Note_on_c, 1, 44, 80
3, 38972, Note_off_c, 1, 44, 100
3, 38976, Note_on_c, 1, 32, 80
3, 39164, Note_off_c, 1, 32, 100
3, 39168, Note_on_c, 1, 39, 80
3, 39168, Note_on_c, 1, 51, 80
3, 39260, Note_off_c, 1, 39, 100
3, 39260, Note_off_c, 1, 51, 100
3, 39264, Note_on_c, 1, 39, 80
3, 39264, Note_on_c, 1, 51, 80
3, 39356, Note_off_c, 1, 39, 100
3, 39356, Note_off_c, 1, 51, 100
3, 39360, Note_on_c, 1, 51, 80
3, 39360, Note_on_c, 1, 39, 80
3, 39452, Note_off_c, 1, 51, 100
3, 39452, Note_off_c, 1, 39, 100
3, 39456, Note_on_c, 1, 56, 80
3, 39456, Note_on_c, 1, 44, 80
3, 39548, Note_off_c, 1, 56, 100
3, 39548, Note_off_c, 1, 44, 100
3, 39552, Note_on_c, 1, 56, 80
3, 39552, Note_on_c, 1, 44, 80
3, 39644, Note_off_c, 1, 56, 100
3, 39644, Note_off_c, 1, 44, 100
3, 39648, Note_on_c, 1, 56, 80
3, 39648, Note_on_c, 1, 44, 80
3, 39740, Note_off_c, 1, 56, 100
3, 39740, Note_off_c, 1, 44, 100
3, 39744, Note_on_c, 1, 56, 80
3, 39744, Note_on_c, 1, 44, 80
3, 39836, Note_off_c, 1, 56, 100
3, 39836, Note_off_c, 1, 44, 100
3, 39840, Note_on_c, 1, 56, 80
3, 39840, Note_on_c, 1, 44, 80
3, 39932, Note_off_c, 1, 56, 100
3, 39932, Note_off_c, 1, 44, 100
3, 39936, Note_on_c, 1, 56, 80
3, 39936, Note_on_c, 1, 44, 80
3, 40028, Note_off_c, 1, 56, 100
3, 40028, Note_off_c, 1, 44, 100
3, 40032, Note_on_c, 1, 55, 80
3, 40032, Note_on_c, 1, 43, 80
3, 40124, Note_off_c, 1, 55, 100
3, 40124, Note_off_c, 1, 43, 100
3, 40128, Note_on_c, 1, 55, 80
3, 40128, Note_on_c, 1, 43, 80
3, 40220, Note_off_c, 1, 55, 100
3, 40220, Note_off_c, 1, 43, 100
3, 40224, Note_on_c, 1, 53, 80
3, 40224, Note_on_c, 1, 41, 80
3, 40316, Note_off_c, 1, 53, 100
3, 40316, Note_off_c, 1, 41, 100
3, 40320, Note_on_c, 1, 55, 80
3, 40320, Note_on_c, 1, 43, 80
3, 40412, Note_off_c, 1, 55, 100
3, 40412, Note_off_c, 1, 43, 100
3, 40416, Note_on_c, 1, 51, 80
3, 40416, Note_on_c, 1, 39, 80
3, 40508, Note_off_c, 1, 51, 100
3, 40508, Note_off_c, 1, 39, 100
3, 40512, Note_on_c, 1, 51, 80
3, 40512, Note_on_c, 1, 39, 80
3, 40604, Note_off_c, 1, 51, 100
3, 40604, Note_off_c, 1, 39, 100
3, 40608, Note_on_c, 1, 56, 80
3, 40608, Note_on_c, 1, 44, 80
3, 40700, Note_off_c, 1, 56, 100
3, 40700, Note_off_c, 1, 44, 100
3, 40704, Note_on_c, 1, 51, 80
3, 40704, Note_on_c, 1, 39, 80
3, 40796, Note_off_c, 1, 51, 100
3, 40796, Note_off_c, 1, 39, 100
3, 40800, Note_on_c, 1, 56, 80
3, 40800, Note_on_c, 1, 44, 80
3, 40892, Note_off_c, 1, 56, 100
3, 40892, Note_off_c, 1, 44, 100
3, 40896, Note_on_c, 1, 51, 80
3, 40896, Note_on_c, 1, 39, 80
3, 40988, Note_off_c, 1, 51, 100
3, 40988, Note_off_c, 1, 39, 100
3, 40992, Note_on_c, 1, 58, 80
3, 40992, Note_on_c, 1, 46, 80
3, 41084, Note_off_c, 1, 58, 100
3, 41084, Note_off_c, 1, 46, 100
3, 41088, Note_on_c, 1, 51, 80
3, 41088, Note_on_c, 1, 39, 80
3, 41180, Note_off_c, 1, 51, 100
3, 41180, Note_off_c, 1, 39, 100
3, 41184, Note_on_c, 1, 60, 80
3, 41184, Note_on_c, 1, 48, 80
3, 41276, Note_off_c, 1, 60, 100
3, 41276, Note_off_c, 1, 48, 100
3, 41280, Note_on_c, 1, 51, 80
3, 41280, Note_on_c, 1, 39, 80
3, 41372, Note_off_c, 1, 51, 100
3, 41372, Note_off_c, 1, 39, 100
3, 41376, Note_on_c, 1, 58, 80
3, 41376, Note_on_c, 1, 46, 80
3, 41468, Note_off_c, 1, 58, 100
3, 41468, Note_off_c, 1, 46, 100
3, 41472, Note_on_c, 1, 60, 80
3, 41486, Note_off_c, 1, 60, 100
3, 41488, Note_on_c, 1, 58, 80
3, 41518, Note_off_c, 1, 58, 100
3, 41520, Note_on_c, 1, 57, 80
3, 41564, Note_off_c, 1, 57, 100
3, 41568, Note_on_c, 1, 58, 80
3, 41612, Note_off_c, 1, 58, 100
3, 41616, Note_on_c, 1, 60, 80
3, 41660, Note_off_c, 1, 60, 100
3, 41664, Note_on_c, 1, 49, 80
3, 41756, Note_off_c, 1, 49, 100
3, 41760, Note_on_c, 1, 61, 80
3, 41852, Note_off_c, 1, 61, 100
3, 41856, Note_on_c, 1, 53, 80
3, 41948, Note_off_c, 1, 53, 100
3, 41952, Note_on_c, 1, 61, 80
3, 42044, Note_off_c, 1, 61, 100
3, 42048, Note_on_c, 1, 51, 80
3, 42140, Note_off_c, 1, 51, 100
3, 42144, Note_on_c, 1, 60, 80
3, 42236, Note_off_c, 1, 60, 100
3, 42240, Note_on_c, 1, 50, 80
3, 42332, Note_off_c, 1, 50, 100
3, 42336, Note_on_c, 1, 65, 80
3, 42428, Note_off_c, 1, 65, 100
3, 42432, Note_on_c, 1, 49, 80
3, 42524, Note_off_c, 1, 49, 100
3, 42528, Note_on_c, 1, 58, 80
3, 42620, Note_off_c, 1, 58, 100
3, 42624, Note_on_c, 1, 48, 80
3, 42716, Note_off_c, 1, 48, 100
3, 42720, Note_on_c, 1, 63, 80
3, 42812, Note_off_c, 1, 63, 100
3, 42816, Note_on_c, 1, 41, 80
3, 42908, Note_off_c, 1, 41, 100
3, 42912, Note_on_c, 1, 56, 80
3, 43004, Note_off_c, 1, 56, 100
3, 43008, Note_on_c, 1, 43, 80
3, 43100, Note_off_c, 1, 43, 100
3, 43104, Note_on_c, 1, 61, 80
3, 43196, Note_off_c, 1, 61, 100
3, 43200, Note_on_c, 1, 44, 80
3, 43292, Note_off_c, 1, 44, 100
3, 43296, Note_on_c, 1, 60, 80
3, 43388, Note_off_c, 1, 60, 100
3, 43392, Note_on_c, 1, 39, 80
3, 43484, Note_off_c, 1, 39, 100
3, 43488, Note_on_c, 1, 57, 80
3, 43580, Note_off_c, 1, 57, 100
3, 43584, Note_on_c, 1, 39, 80
3, 43676, Note_off_c, 1, 39, 100
3, 43680, Note_on_c, 1, 58, 80
3, 43772, Note_off_c, 1, 58, 100
3, 43776, Note_on_c, 1, 51, 80
3, 43776, Note_on_c, 1, 39, 80
3, 43868, Note_off_c, 1, 51, 100
3, 43868, Note_off_c, 1, 39, 100
3, 43872, Note_on_c, 1, 51, 80
3, 43872, Note_on_c, 1, 39, 80
3, 43964, Note_off_c, 1, 51, 100
3, 43964, Note_off_c, 1, 39, 100
3, 43968, Note_on_c, 1, 51, 80
3, 43968, Note_on_c, 1, 39, 80
3, 44060, Note_off_c, 1, 51, 100
3, 44060, Note_off_c, 1, 39, 100
3, 44064, Note_on_c, 1, 56, 80
3, 44064, Note_on_c, 1, 44, 80
3, 44156, Note_off_c, 1, 56, 100
3, 44156, Note_off_c, 1, 44, 100
3, 44160, Note_on_c, 1, 56, 80
3, 44160, Note_on_c, 1, 44, 80
3, 44252, Note_off_c, 1, 56, 100
3, 44252, Note_off_c, 1, 44, 100
3, 44256, Note_on_c, 1, 56, 80
3, 44256, Note_on_c, 1, 44, 80
3, 44348, Note_off_c, 1, 56, 100
3, 44348, Note_off_c, 1, 44, 100
3, 44352, Note_on_c, 1, 56, 80
3, 44352, Note_on_c, 1, 44, 80
3, 44444, Note_off_c, 1, 56, 100
3, 44444, Note_off_c, 1, 44, 100
3, 44448, Note_on_c, 1, 56, 80
3, 44448, Note_on_c, 1, 44, 80
3, 44540, Note_off_c, 1, 56, 100
3, 44540, Note_off_c, 1, 44, 100
3, 44544, Note_on_c, 1, 56, 80
3, 44544, Note_on_c, 1, 46, 80
3, 44636, Note_off_c, 1, 56, 100
3, 44636, Note_off_c, 1, 46, 100
3, 44640, Note_on_c, 1, 55, 80
3, 44640, Note_on_c, 1, 46, 80
3, 44732, Note_off_c, 1, 55, 100
3, 44732, Note_off_c, 1, 46, 100
3, 44736, Note_on_c, 1, 55, 80
3, 44736, Note_on_c, 1, 46, 80
3, 44828, Note_off_c, 1, 55, 100
3, 44828, Note_off_c, 1, 46, 100
3, 44832, Note_on_c, 1, 53, 80
3, 44832, Note_on_c, 1, 46, 80
3, 44924, Note_off_c, 1, 53, 100
3, 44924, Note_off_c, 1, 46, 100
3, 44928, Note_on_c, 1, 55, 80
3, 44928, Note_on_c, 1, 46, 80
3, 45020, Note_off_c, 1, 55, 100
3, 45020, Note_off_c, 1, 46, 100
3, 45024, Note_on_c, 1, 51, 80
3, 45024, Note_on_c, 1, 46, 80
3, 45116, Note_off_c, 1, 51, 100
3, 45116, Note_off_c, 1, 46, 100
3, 45120, Note_on_c, 1, 51, 80
3, 45120, Note_on_c, 1, 48, 80
3, 45212, Note_off_c, 1, 51, 100
3, 45212, Note_off_c, 1, 48, 100
3, 45216, Note_on_c, 1, 56, 80
3, 45308, Note_off_c, 1, 56, 100
3, 45312, Note_on_c, 1, 51, 80
3, 45312, Note_on_c, 1, 48, 80
3, 45404, Note_off_c, 1, 51, 100
3, 45404, Note_off_c, 1, 48, 100
3, 45408, Note_on_c, 1, 56, 80
3, 45500, Note_off_c, 1, 56, 100
3, 45504, Note_on_c, 1, 51, 80
3, 45504, Note_on_c, 1, 43, 80
3, 45596, Note_off_c, 1, 51, 100
3, 45596, Note_off_c, 1, 43, 100
3, 45600, Note_on_c, 1, 58, 80
3, 45692, Note_off_c, 1, 58, 100
3, 45696, Note_on_c, 1, 51, 80
3, 45696, Note_on_c, 1, 44, 80
3, 45788, Note_off_c, 1, 51, 100
3, 45788, Note_off_c, 1, 44, 100
3, 45792, Note_on_c, 1, 60, 80
3, 45884, Note_off_c, 1, 60, 100
3, 45888, Note_on_c, 1, 51, 80
3, 45888, Note_on_c, 1, 39, 80
3, 45980, Note_off_c, 1, 51, 100
3, 45980, Note_off_c, 1, 39, 100
3, 45984, Note_on_c, 1, 58, 80
3, 46076, Note_off_c, 1, 58, 100
3, 46080, Note_on_c, 1, 60, 80
3, 46092, Note_off_c, 1, 60, 100
3, 46094, Note_on_c, 1, 58, 80
3, 46126, Note_off_c, 1, 58, 100
3, 46128, Note_on_c, 1, 57, 80
3, 46172, Note_off_c, 1, 57, 100
3, 46176, Note_on_c, 1, 58, 80
3, 46220, Note_off_c, 1, 58, 100
3, 46224, Note_on_c, 1, 60, 80
3, 46268, Note_off_c, 1, 60, 100
3, 46272, Note_on_c, 1, 49, 80
3, 46364, Note_off_c, 1, 49, 100
3, 46368, Note_on_c, 1, 61, 80
3, 46460, Note_off_c, 1, 61, 100
3, 46464, Note_on_c, 1, 53, 80
3, 46556, Note_off_c, 1, 53, 100
3, 46560, Note_on_c, 1, 61, 80
3, 46652, Note_off_c, 1, 61, 100
3, 46656, Note_on_c, 1, 51, 80
3, 46748, Note_off_c, 1, 51, 100
3, 46752, Note_on_c, 1, 60, 80
3, 46844, Note_off_c, 1, 60, 100
3, 46848, Note_on_c, 1, 50, 80
3, 46940, Note_off_c, 1, 50, 100
3, 46944, Note_on_c, 1, 65, 80
3, 47036, Note_off_c, 1, 65, 100
3, 47040, Note_on_c, 1, 49, 80
3, 47132, Note_off_c, 1, 49, 100
3, 47136, Note_on_c, 1, 58, 80
3, 47228, Note_off_c, 1, 58, 100
3, 47232, Note_on_c, 1, 48, 80
3, 47324, Note_off_c, 1, 48, 100
3, 47328, Note_on_c, 1, 63, 80
3, 47420, Note_off_c, 1, 63, 100
3, 47424, Note_on_c, 1, 51, 80
3, 47516, Note_off_c, 1, 51, 100
3, 47520, Note_on_c, 1, 56, 80
3, 47612, Note_off_c, 1, 56, 100
3, 47616, Note_on_c, 1, 39, 80
3, 47708, Note_off_c, 1, 39, 100
3, 47712, Note_on_c, 1, 60, 80
3, 47804, Note_off_c, 1, 60, 100
3, 47808, Note_on_c, 1, 39, 80
3, 47900, Note_off_c, 1, 39, 100
3, 47904, Note_on_c, 1, 58, 80
3, 47996, Note_off_c, 1, 58, 100
3, 48000, Note_on_c, 1, 44, 80
3, 48092, Note_off_c, 1, 44, 100
3, 48096, Note_on_c, 1, 56, 80
3, 48188, Note_off_c, 1, 56, 100
3, 48192, Note_on_c, 1, 32, 80
3, 48380, Note_off_c, 1, 32, 100
3, 48384, Note_on_c, 1, 45, 80
3, 48476, Note_off_c, 1, 45, 100
3, 48480, Note_on_c, 1, 60, 80
3, 48572, Note_off_c, 1, 60, 100
3, 48576, Note_on_c, 1, 45, 80
3, 48668, Note_off_c, 1, 45, 100
3, 48672, Note_on_c, 1, 60, 80
3, 48764, Note_off_c, 1, 60, 100
3, 48768, Note_on_c, 1, 43, 80
3, 48860, Note_off_c, 1, 43, 100
3, 48864, Note_on_c, 1, 58, 80
3, 48956, Note_off_c, 1, 58, 100
3, 48960, Note_on_c, 1, 45, 80
3, 49052, Note_off_c, 1, 45, 100
3, 49056, Note_on_c, 1, 60, 80
3, 49148, Note_off_c, 1, 60, 100
3, 49152, Note_on_c, 1, 46, 80
3, 49244, Note_off_c, 1, 46, 100
3, 49248, Note_on_c, 1, 61, 80
3, 49340, Note_off_c, 1, 61, 100
3, 49344, Note_on_c, 1, 49, 80
3, 49436, Note_off_c, 1, 49, 100
3, 49440, Note_on_c, 1, 65, 80
3, 49532, Note_off_c, 1, 65, 100
3, 49536, Note_on_c, 1, 46, 90
3, 49536, Note_on_c, 1, 34, 90
3, 49628, Note_off_c, 1, 46, 100
3, 49628, Note_off_c, 1, 34, 100
3, 49632, Note_on_c, 1, 44, 80
3, 49632, Note_on_c, 1, 32, 80
3, 49724, Note_off_c, 1, 44, 100
3, 49724, Note_off_c, 1, 32, 100
3, 49728, Note_on_c, 1, 43, 80
3, 49728, Note_on_c, 1, 31, 80
3, 49820, Note_off_c, 1, 43, 100
3, 49820, Note_off_c, 1, 31, 100
3, 49824, Note_on_c, 1, 58, 80
3, 49916, Note_off_c, 1, 58, 100
3, 49920, Note_on_c, 1, 41, 80
3, 50012, Note_off_c, 1, 41, 100
3, 50016, Note_on_c, 1, 56, 80
3, 50108, Note_off_c, 1, 56, 100
3, 50112, Note_on_c, 1, 44, 80
3, 50204, Note_off_c, 1, 44, 100
3, 50208, Note_on_c, 1, 58, 80
3, 50300, Note_off_c, 1, 58, 100
3, 50304, Note_on_c, 1, 44, 80
3, 50396, Note_off_c, 1, 44, 100
3, 50400, Note_on_c, 1, 60, 80
3, 50492, Note_off_c, 1, 60, 100
3, 50496, Note_on_c, 1, 48, 80
3, 50588, Note_off_c, 1, 48, 100
3, 50592, Note_on_c, 1, 63, 80
3, 50684, Note_off_c, 1, 63, 100
3, 50688, Note_on_c, 1, 48, 80
3, 50780, Note_off_c, 1, 48, 100
3, 50784, Note_on_c, 1, 51, 80
3, 50876, Note_off_c, 1, 51, 100
3, 50880, Note_on_c, 1, 48, 80
3, 50972, Note_off_c, 1, 48, 100
3, 50976, Note_on_c, 1, 51, 80
3, 51068, Note_off_c, 1, 51, 100
3, 51072, Note_on_c, 1, 47, 80
3, 51164, Note_off_c, 1, 47, 100
3, 51168, Note_on_c, 1, 50, 80
3, 51260, Note_off_c, 1, 50, 100
3, 51264, Note_on_c, 1, 46, 80
3, 51356, Note_off_c, 1, 46, 100
3, 51360, Note_on_c, 1, 52, 80
3, 51452, Note_off_c, 1, 52, 100
3, 51456, Note_on_c, 1, 44, 80
3, 51548, Note_off_c, 1, 44, 100
3, 51552, Note_on_c, 1, 53, 80
3, 51644, Note_off_c, 1, 53, 100
3, 51648, Note_on_c, 1, 43, 80
3, 51740, Note_off_c, 1, 43, 100
3, 51744, Note_on_c, 1, 55, 80
3, 51836, Note_off_c, 1, 55, 100
3, 51840, Note_on_c, 1, 41, 80
3, 51932, Note_off_c, 1, 41, 100
3, 51936, Note_on_c, 1, 56, 80
3, 51980, Note_off_c, 1, 56, 100
3, 51984, Note_on_c, 1, 53, 80
3, 52028, Note_off_c, 1, 53, 100
3, 52032, Note_on_c, 1, 46, 80
3, 52124, Note_off_c, 1, 46, 100
3, 52128, Note_on_c, 1, 51, 80
3, 52220, Note_off_c, 1, 51, 100
3, 52224, Note_on_c, 1, 46, 80
3, 52316, Note_off_c, 1, 46, 100
3, 52320, Note_on_c, 1, 51, 80
3, 52412, Note_off_c, 1, 51, 100
3, 52416, Note_on_c, 1, 47, 80
3, 52508, Note_off_c, 1, 47, 100
3, 52512, Note_on_c, 1, 50, 80
3, 52604, Note_off_c, 1, 50, 100
3, 52608, Note_on_c, 1, 48, 80
3, 52700, Note_off_c, 1, 48, 100
3, 52704, Note_on_c, 1, 51, 80
3, 52796, Note_off_c, 1, 51, 100
3, 52800, Note_on_c, 1, 48, 80
3, 52892, Note_off_c, 1, 48, 100
3, 52896, Note_on_c, 1, 51, 80
3, 52988, Note_off_c, 1, 51, 100
3, 52992, Note_on_c, 1, 45, 80
3, 53084, Note_off_c, 1, 45, 100
3, 53088, Note_on_c, 1, 55, 80
3, 53132, Note_off_c, 1, 55, 100
3, 53136, Note_on_c, 1, 53, 80
3, 53180, Note_off_c, 1, 53, 100
3, 53184, Note_on_c, 1, 46, 80
3, 53276, Note_off_c, 1, 46, 100
3, 53280, Note_on_c, 1, 51, 80
3, 53372, Note_off_c, 1, 51, 100
3, 53376, Note_on_c, 1, 46, 80
3, 53468, Note_off_c, 1, 46, 100
3, 53472, Note_on_c, 1, 51, 80
3, 53564, Note_off_c, 1, 51, 100
3, 53568, Note_on_c, 1, 34, 80
3, 53660, Note_off_c, 1, 34, 100
3, 53664, Note_on_c, 1, 50, 80
3, 53756, Note_off_c, 1, 50, 100
3, 53760, Note_on_c, 1, 39, 80
3, 53852, Note_off_c, 1, 39, 100
3, 53856, Note_on_c, 1, 51, 80
3, 53948, Note_off_c, 1, 51, 100
3, 53952, Note_on_c, 1, 41, 80
3, 54044, Note_off_c, 1, 41, 100
3, 54048, Note_on_c, 1, 51, 80
3, 54140, Note_off_c, 1, 51, 100
3, 54144, Note_on_c, 1, 43, 80
3, 54236, Note_off_c, 1, 43, 100
3, 54240, Note_on_c, 1, 51, 80
3, 54332, Note_off_c, 1, 51, 100
3, 54336, Note_on_c, 1, 53, 80
3, 54336, Note_on_c, 1, 44, 80
3, 54428, Note_off_c, 1, 53, 100
3, 54428, Note_off_c, 1, 44, 100
3, 54432, Note_on_c, 1, 56, 80
3, 54432, Note_on_c, 1, 44, 80
3, 54524, Note_off_c, 1, 56, 100
3, 54524, Note_off_c, 1, 44, 100
3, 54528, Note_on_c, 1, 56, 80
3, 54528, Note_on_c, 1, 44, 80
3, 54620, Note_off_c, 1, 56, 100
3, 54620, Note_off_c, 1, 44, 100
3, 54624, Note_on_c, 1, 56, 80
3, 54624, Note_on_c, 1, 44, 80
3, 54716, Note_off_c, 1, 56, 100
3, 54716, Note_off_c, 1, 44, 100
3, 54720, Note_on_c, 1, 56, 80
3, 54720, Note_on_c, 1, 44, 80
3, 54812, Note_off_c, 1, 56, 100
3, 54812, Note_off_c, 1, 44, 100
3, 54816, Note_on_c, 1, 56, 80
3, 54816, Note_on_c, 1, 44, 80
3, 54908, Note_off_c, 1, 56, 100
3, 54908, Note_off_c, 1, 44, 100
3, 54912, Note_on_c, 1, 56, 80
3, 54912, Note_on_c, 1, 44, 80
3, 55004, Note_off_c, 1, 56, 100
3, 55004, Note_off_c, 1, 44, 100
3, 55008, Note_on_c, 1, 55, 80
3, 55008, Note_on_c, 1, 43, 80
3, 55100, Note_off_c, 1, 55, 100
3, 55100, Note_off_c, 1, 43, 100
3, 55104, Note_on_c, 1, 55, 80
3, 55104, Note_on_c, 1, 43, 80
3, 55196, Note_off_c, 1, 55, 100
3, 55196, Note_off_c, 1, 43, 100
3, 55200, Note_on_c, 1, 53, 80
3, 55200, Note_on_c, 1, 41, 80
3, 55292, Note_off_c, 1, 53, 100
3, 55292, Note_off_c, 1, 41, 100
3, 55296, Note_on_c, 1, 55, 80
3, 55296, Note_on_c, 1, 43, 80
3, 55388, Note_off_c, 1, 55, 100
3, 55388, Note_off_c, 1, 43, 100
3, 55392, Note_on_c, 1, 51, 80
3, 55392, Note_on_c, 1, 39, 80
3, 55484, Note_off_c, 1, 51, 100
3, 55484, Note_off_c, 1, 39, 100
3, 55488, Note_on_c, 1, 51, 80
3, 55488, Note_on_c, 1, 39, 80
3, 55580, Note_off_c, 1, 51, 100
3, 55580, Note_off_c, 1, 39, 100
3, 55584, Note_on_c, 1, 56, 80
3, 55584, Note_on_c, 1, 44, 80
3, 55676, Note_off_c, 1, 56, 100
3, 55676, Note_off_c, 1, 44, 100
3, 55680, Note_on_c, 1, 51, 80
3, 55680, Note_on_c, 1, 39, 80
3, 55772, Note_off_c, 1, 51, 100
3, 55772, Note_off_c, 1, 39, 100
3, 55776, Note_on_c, 1, 56, 80
3, 55776, Note_on_c, 1, 44, 80
3, 55868, Note_off_c, 1, 56, 100
3, 55868, Note_off_c, 1, 44, 100
3, 55872, Note_on_c, 1, 51, 80
3, 55872, Note_on_c, 1, 39, 80
3, 55964, Note_off_c, 1, 51, 100
3, 55964, Note_off_c, 1, 39, 100
3, 55968, Note_on_c, 1, 58, 80
3, 55968, Note_on_c, 1, 46, 80
3, 56060, Note_off_c, 1, 58, 100
3, 56060, Note_off_c, 1, 46, 100
3, 56064, Note_on_c, 1, 51, 80
3, 56064, Note_on_c, 1, 44, 80
3, 56156, Note_off_c, 1, 51, 100
3, 56156, Note_off_c, 1, 44, 100
3, 56160, Note_on_c, 1, 60, 80
3, 56252, Note_off_c, 1, 60, 100
3, 56256, Note_on_c, 1, 51, 80
3, 56256, Note_on_c, 1, 39, 80
3, 56348, Note_off_c, 1, 51, 100
3, 56348, Note_off_c, 1, 39, 100
3, 56352, Note_on_c, 1, 58, 80
3, 56444, Note_off_c, 1, 58, 100
3, 56448, Note_on_c, 1, 60, 80
3, 56460, Note_off_c, 1, 60, 100
3, 56462, Note_on_c, 1, 58, 80
3, 56494, Note_off_c, 1, 58, 100
3, 56496, Note_on_c, 1, 57, 80
3, 56540, Note_off_c, 1, 57, 100
3, 56544, Note_on_c, 1, 58, 80
3, 56588, Note_off_c, 1, 58, 100
3, 56592, Note_on_c, 1, 60, 80
3, 56636, Note_off_c, 1, 60, 100
3, 56640, Note_on_c, 1, 49, 80
3, 56732, Note_off_c, 1, 49, 100
3, 56736, Note_on_c, 1, 61, 80
3, 56828, Note_off_c, 1, 61, 100
3, 56832, Note_on_c, 1, 53, 80
3, 56924, Note_off_c, 1, 53, 100
3, 56928, Note_on_c, 1, 61, 80
3, 57020, Note_off_c, 1, 61, 100
3, 57024, Note_on_c, 1, 51, 80
3, 57116, Note_off_c, 1, 51, 100
3, 57120, Note_on_c, 1, 60, 80
3, 57212, Note_off_c, 1, 60, 100
3, 57216, Note_on_c, 1, 50, 80
3, 57308, Note_off_c, 1, 50, 100
3, 57312, Note_on_c, 1, 65, 80
3, 57404, Note_off_c, 1, 65, 100
3, 57408, Note_on_c, 1, 49, 80
3, 57500, Note_off_c, 1, 49, 100
3, 57504, Note_on_c, 1, 58, 80
3, 57596, Note_off_c, 1, 58, 100
3, 57600, Note_on_c, 1, 48, 80
3, 57692, Note_off_c, 1, 48, 100
3, 57696, Note_on_c, 1, 63, 80
3, 57788, Note_off_c, 1, 63, 100
3, 57792, Note_on_c, 1, 51, 80
3, 57884, Note_off_c, 1, 51, 100
3, 57888, Note_on_c, 1, 56, 80
3, 57980, Note_off_c, 1, 56, 100
3, 57984, Note_on_c, 1, 39, 80
3, 58076, Note_off_c, 1, 39, 100
3, 58080, Note_on_c, 1, 60, 80
3, 58172, Note_off_c, 1, 60, 100
3, 58176, Note_on_c, 1, 39, 80
3, 58268, Note_off_c, 1, 39, 100
3, 58272, Note_on_c, 1, 58, 80
3, 58364, Note_off_c, 1, 58, 100
3, 58368, Note_on_c, 1, 44, 80
3, 58460, Note_off_c, 1, 44, 100
3, 58464, Note_on_c, 1, 56, 80
3, 58556, Note_off_c, 1, 56, 100
3, 58560, Note_on_c, 1, 32, 80
3, 58748, Note_off_c, 1, 32, 100
3, 58944, Key_signature, -7, "minor"
3, 58944, Note_on_c, 1, 47, 80
3, 58944, Note_on_c, 1, 44, 80
3, 59132, Note_off_c, 1, 47, 100
3, 59132, Note_off_c, 1, 44, 100
3, 59136, Note_on_c, 1, 47, 80
3, 59136, Note_on_c, 1, 44, 80
3, 59324, Note_off_c, 1, 47, 100
3, 59324, Note_off_c, 1, 44, 100
3, 59328, Note_on_c, 1, 47, 80
3, 59328, Note_on_c, 1, 44, 80
3, 59516, Note_off_c, 1, 47, 100
3, 59516, Note_off_c, 1, 44, 100
3, 59520, Note_on_c, 1, 49, 80
3, 59520, Note_on_c, 1, 46, 80
3, 59708, Note_off_c, 1, 49, 100
3, 59708, Note_off_c, 1, 46, 100
3, 59712, Note_on_c, 1, 49, 80
3, 59712, Note_on_c, 1, 46, 80
3, 59900, Note_off_c, 1, 49, 100
3, 59900, Note_off_c, 1, 46, 100
3, 59904, Note_on_c, 1, 49, 80
3, 59904, Note_on_c, 1, 46, 80
3, 60092, Note_off_c, 1, 49, 100
3, 60092, Note_off_c, 1, 46, 100
3, 60096, Note_on_c, 1, 51, 80
3, 60096, Note_on_c, 1, 47, 80
3, 60284, Note_off_c, 1, 51, 100
3, 60284, Note_off_c, 1, 47, 100
3, 60288, Note_on_c, 1, 51, 80
3, 60288, Note_on_c, 1, 47, 80
3, 60476, Note_off_c, 1, 51, 100
3, 60476, Note_off_c, 1, 47, 100
3, 60480, Note_on_c, 1, 51, 80
3, 60480, Note_on_c, 1, 47, 80
3, 60668, Note_off_c, 1, 51, 100
3, 60668, Note_off_c, 1, 47, 100
3, 60672, Note_on_c, 1, 52, 80
3, 60672, Note_on_c, 1, 49, 80
3, 60860, Note_off_c, 1, 52, 100
3, 60860, Note_off_c, 1, 49, 100
3, 60864, Note_on_c, 1, 52, 80
3, 60864, Note_on_c, 1, 49, 80
3, 61052, Note_off_c, 1, 52, 100
3, 61052, Note_off_c, 1, 49, 100
3, 61056, Note_on_c, 1, 52, 80
3, 61056, Note_on_c, 1, 49, 80
3, 61244, Note_off_c, 1, 52, 100
3, 61244, Note_off_c, 1, 49, 100
3, 61248, Note_on_c, 1, 54, 80
3, 61248, Note_on_c, 1, 51, 80
3, 61436, Note_off_c, 1, 54, 100
3, 61436, Note_off_c, 1, 51, 100
3, 61440, Note_on_c, 1, 57, 82
3, 61440, Note_on_c, 1, 54, 82
3, 61440, Note_on_c, 1, 51, 82
3, 61628, Note_off_c, 1, 57, 100
3, 61628, Note_off_c, 1, 54, 100
3, 61628, Note_off_c, 1, 51, 100
3, 61632, Note_on_c, 1, 57, 84
3, 61632, Note_on_c, 1, 54, 84
3, 61632, Note_on_c, 1, 51, 84
3, 61820, Note_off_c, 1, 57, 100
3, 61820, Note_off_c, 1, 54, 100
3, 61820, Note_off_c, 1, 51, 100
3, 61824, Note_on_c, 1, 56, 86
3, 61824, Note_on_c, 1, 52, 86
3, 62012, Note_off_c, 1, 56, 100
3, 62012, Note_off_c, 1, 52, 100
3, 62016, Note_on_c, 1, 56, 88
3, 62016, Note_on_c, 1, 52, 88
3, 62204, Note_off_c, 1, 56, 100
3, 62204, Note_off_c, 1, 52, 100
3, 62208, Note_on_c, 1, 56, 91
3, 62208, Note_on_c, 1, 52, 91
3, 62396, Note_off_c, 1, 56, 100
3, 62396, Note_off_c, 1, 52, 100
3, 62400, Note_on_c, 1, 59, 93
3, 62400, Note_on_c, 1, 53, 93
3, 62588, Note_off_c, 1, 59, 100
3, 62588, Note_off_c, 1, 53, 100
3, 62592, Note_on_c, 1, 58, 95
3, 62592, Note_on_c, 1, 53, 95
3, 62780, Note_off_c, 1, 58, 100
3, 62780, Note_off_c, 1, 53, 100
3, 62784, Note_on_c, 1, 56, 97
3, 62784, Note_on_c, 1, 53, 97
3, 62972, Note_off_c, 1, 56, 100
3, 62972, Note_off_c, 1, 53, 100
3, 62976, Note_on_c, 1, 56, 99
3, 62976, Note_on_c, 1, 51, 99
3, 63164, Note_off_c, 1, 56, 100
3, 63168, Note_on_c, 1, 55, 80
3, 63356, Note_off_c, 1, 51, 100
3, 63356, Note_off_c, 1, 55, 100
3, 63552, Note_on_c, 1, 32, 80
3, 63740, Note_off_c, 1, 32, 100
3, 63744, Note_on_c, 1, 44, 80
3, 63744, Note_on_c, 1, 47, 80
3, 63932, Note_off_c, 1, 44, 100
3, 63932, Note_off_c, 1, 47, 100
3, 63936, Note_on_c, 1, 47, 80
3, 63936, Note_on_c, 1, 44, 80
3, 64124, Note_off_c, 1, 47, 100
3, 64124, Note_off_c, 1, 44, 100
3, 64128, Note_on_c, 1, 34, 80
3, 64316, Note_off_c, 1, 34, 100
3, 64320, Note_on_c, 1, 46, 80
3, 64320, Note_on_c, 1, 49, 80
3, 64508, Note_off_c, 1, 46, 100
3, 64508, Note_off_c, 1, 49, 100
3, 64512, Note_on_c, 1, 46, 80
3, 64512, Note_on_c, 1, 49, 80
3, 64700, Note_off_c, 1, 46, 100
3, 64700, Note_off_c, 1, 49, 100
3, 64704, Note_on_c, 1, 35, 80
3, 64892, Note_off_c, 1, 35, 100
3, 64896, Note_on_c, 1, 47, 80
3, 64896, Note_on_c, 1, 51, 80
3, 65084, Note_off_c, 1, 47, 100
3, 65084, Note_off_c, 1, 51, 100
3, 65088, Note_on_c, 1, 47, 80
3, 65088, Note_on_c, 1, 51, 80
3, 65276, Note_off_c, 1, 47, 100
3, 65276, Note_off_c, 1, 51, 100
3, 65280, Note_on_c, 1, 37, 80
3, 65468, Note_off_c, 1, 37, 100
3, 65472, Note_on_c, 1, 49, 80
3, 65472, Note_on_c, 1, 52, 80
3, 65660, Note_off_c, 1, 49, 100
3, 65660, Note_off_c, 1, 52, 100
3, 65664, Note_on_c, 1, 49, 80
3, 65664, Note_on_c, 1, 52, 80
3, 65852, Note_off_c, 1, 49, 100
3, 65852, Note_off_c, 1, 52, 100
3, 65856, Note_on_c, 1, 39, 80
3, 66044, Note_off_c, 1, 39, 100
3, 66048, Note_on_c, 1, 57, 83
3, 66048, Note_on_c, 1, 54, 83
3, 66048, Note_on_c, 1, 51, 83
3, 66236, Note_off_c, 1, 57, 100
3, 66236, Note_off_c, 1, 54, 100
3, 66236, Note_off_c, 1, 51, 100
3, 66240, Note_on_c, 1, 57, 86
3, 66240, Note_on_c, 1, 54, 86
3, 66240, Note_on_c, 1, 51, 86
3, 66428, Note_off_c, 1, 57, 100
3, 66428, Note_off_c, 1, 54, 100
3, 66428, Note_off_c, 1, 51, 100
3, 66432, Note_on_c, 1, 40, 89
3, 66620, Note_off_c, 1, 40, 100
3, 66624, Note_on_c, 1, 56, 93
3, 66624, Note_on_c, 1, 52, 93
3, 66812, Note_off_c, 1, 56, 100
3, 66812, Note_off_c, 1, 52, 100
3, 66816, Note_on_c, 1, 59, 96
3, 66816, Note_on_c, 1, 56, 96
3, 66816, Note_on_c, 1, 53, 96
3, 67004, Note_off_c, 1, 59, 100
3, 67004, Note_off_c, 1, 56, 100
3, 67004, Note_off_c, 1, 53, 100
3, 67008, Note_on_c, 1, 59, 100
3, 67008, Note_on_c, 1, 56, 100
3, 67008, Note_on_c, 1, 51, 100
3, 67196, Note_off_c, 1, 59, 100
3, 67196, Note_off_c, 1, 56, 100
3, 67196, Note_off_c, 1, 51, 100
3, 67200, Note_on_c, 1, 51, 93
3, 67200, Note_on_c, 1, 47, 93
3, 67200, Note_on_c, 1, 44, 93
3, 67200, Note_on_c, 1, 39, 93
3, 67388, Note_off_c, 1, 51, 100
3, 67388, Note_off_c, 1, 47, 100
3, 67388, Note_off_c, 1, 44, 100
3, 67388, Note_off_c, 1, 39, 100
3, 67392, Note_on_c, 1, 51, 85
3, 67392, Note_on_c, 1, 46, 85
3, 67392, Note_on_c, 1, 43, 85
3, 67392, Note_on_c, 1, 39, 85
3, 67580, Note_off_c, 1, 51, 100
3, 67580, Note_off_c, 1, 46, 100
3, 67580, Note_off_c, 1, 43, 100
3, 67580, Note_off_c, 1, 39, 100
3, 67584, Note_on_c, 1, 56, 80
3, 67584, Note_on_c, 1, 44, 80
3, 67772, Note_off_c, 1, 56, 100
3, 67772, Note_off_c, 1, 44, 100
3, 67776, Note_on_c, 1, 32, 80
3, 67964, Note_off_c, 1, 32, 100
3, 68352, Note_on_c, 1, 60, 80
3, 68540, Note_off_c, 1, 60, 100
3, 68544, Note_on_c, 1, 56, 80
3, 68732, Note_off_c, 1, 56, 100
3, 68736, Note_on_c, 1, 61, 80
3, 68924, Note_off_c, 1, 61, 100
3, 68928, Note_on_c, 1, 49, 80
3, 69116, Note_off_c, 1, 49, 100
3, 69504, Note_on_c, 1, 55, 80
3, 69692, Note_off_c, 1, 55, 100
3, 69696, Note_on_c, 1, 51, 80
3, 69884, Note_off_c, 1, 51, 100
3, 69888, Note_on_c, 1, 56, 80
3, 70076, Note_off_c, 1, 56, 100
3, 70080, Note_on_c, 1, 44, 80
3, 70268, Note_off_c, 1, 44, 100
3, 70464, Note_on_c, 1, 38, 80
3, 70652, Note_off_c, 1, 38, 100
3, 70656, Note_on_c, 1, 50, 80
3, 70656, Note_on_c, 1, 53, 80
3, 70844, Note_off_c, 1, 50, 100
3, 70844, Note_off_c, 1, 53, 100
3, 70848, Note_on_c, 1, 58, 80
3, 70848, Note_on_c, 1, 50, 80
3, 71036, Note_off_c, 1, 58, 100
3, 71036, Note_off_c, 1, 50, 100
3, 71040, Note_on_c, 1, 39, 80
3, 71228, Note_off_c, 1, 39, 100
3, 71232, Note_on_c, 1, 51, 80
3, 71232, Note_on_c, 1, 58, 80
3, 71420, Note_off_c, 1, 51, 100
3, 71420, Note_off_c, 1, 58, 100
3, 71424, Note_on_c, 1, 56, 80
3, 71424, Note_on_c, 1, 44, 80
3, 71612, Note_off_c, 1, 56, 100
3, 71612, Note_off_c, 1, 44, 100
3, 71616, Note_on_c, 1, 34, 80
3, 71804, Note_off_c, 1, 34, 100
3, 71808, Note_on_c, 1, 54, 80
3, 71808, Note_on_c, 1, 46, 80
3, 71996, Note_off_c, 1, 54, 100
3, 71996, Note_off_c, 1, 46, 100
3, 72000, Note_on_c, 1, 46, 80
3, 72000, Note_on_c, 1, 34, 80
3, 72188, Note_off_c, 1, 46, 100
3, 72188, Note_off_c, 1, 34, 100
3, 72192, Note_on_c, 1, 47, 80
3, 72192, Note_on_c, 1, 35, 80
3, 72380, Note_off_c, 1, 47, 100
3, 72380, Note_off_c, 1, 35, 100
3, 72384, Note_on_c, 1, 54, 80
3, 72384, Note_on_c, 1, 47, 80
3, 72572, Note_off_c, 1, 54, 100
3, 72572, Note_off_c, 1, 47, 100
3, 72576, Note_on_c, 1, 45, 80
3, 72576, Note_on_c, 1, 33, 80
3, 72764, Note_off_c, 1, 45, 100
3, 72764, Note_off_c, 1, 33, 100
3, 72768, Note_on_c, 1, 46, 80
3, 72768, Note_on_c, 1, 34, 80
3, 72956, Note_off_c, 1, 46, 100
3, 72956, Note_off_c, 1, 34, 100
3, 72960, Note_on_c, 1, 54, 80
3, 72960, Note_on_c, 1, 51, 80
3, 72960, Note_on_c, 1, 46, 80
3, 73148, Note_off_c, 1, 54, 100
3, 73148, Note_off_c, 1, 51, 100
3, 73148, Note_off_c, 1, 46, 100
3, 73152, Note_on_c, 1, 46, 80
3, 73152, Note_on_c, 1, 34, 80
3, 73340, Note_off_c, 1, 46, 100
3, 73340, Note_off_c, 1, 34, 100
3, 73344, Note_on_c, 1, 51, 80
3, 73344, Note_on_c, 1, 39, 80
3, 73532, Note_off_c, 1, 51, 100
3, 73532, Note_off_c, 1, 39, 100
3, 73536, Note_on_c, 1, 49, 80
3, 73536, Note_on_c, 1, 37, 80
3, 73724, Note_off_c, 1, 49, 100
3, 73724, Note_off_c, 1, 37, 100
3, 73728, Note_on_c, 1, 47, 80
3, 73728, Note_on_c, 1, 35, 80
3, 73916, Note_off_c, 1, 47, 100
3, 73916, Note_off_c, 1, 35, 100
3, 73920, Note_on_c, 1, 32, 80
3, 74108, Note_off_c, 1, 32, 100
3, 74112, Note_on_c, 1, 44, 80
3, 74112, Note_on_c, 1, 47, 80
3, 74300, Note_off_c, 1, 44, 100
3, 74300, Note_off_c, 1, 47, 100
3, 74304, Note_on_c, 1, 47, 80
3, 74304, Note_on_c, 1, 44, 80
3, 74492, Note_off_c, 1, 47, 100
3, 74492, Note_off_c, 1, 44, 100
3, 74496, Note_on_c, 1, 34, 80
3, 74684, Note_off_c, 1, 34, 100
3, 74688, Note_on_c, 1, 46, 80
3, 74688, Note_on_c, 1, 49, 80
3, 74876, Note_off_c, 1, 46, 100
3, 74876, Note_off_c, 1, 49, 100
3, 74880, Note_on_c, 1, 46, 80
3, 74880, Note_on_c, 1, 49, 80
3, 75068, Note_off_c, 1, 46, 100
3, 75068, Note_off_c, 1, 49, 100
3, 75072, Note_on_c, 1, 35, 80
3, 75260, Note_off_c, 1, 35, 100
3, 75264, Note_on_c, 1, 47, 80
3, 75264, Note_on_c, 1, 51, 80
3, 75452, Note_off_c, 1, 47, 100
3, 75452, Note_off_c, 1, 51, 100
3, 75456, Note_on_c, 1, 47, 80
3, 75456, Note_on_c, 1, 51, 80
3, 75644, Note_off_c, 1, 47, 100
3, 75644, Note_off_c, 1, 51, 100
3, 75648, Note_on_c, 1, 37, 80
3, 75836, Note_off_c, 1, 37, 100
3, 75840, Note_on_c, 1, 49, 80
3, 75840, Note_on_c, 1, 52, 80
3, 76028, Note_off_c, 1, 49, 100
3, 76028, Note_off_c, 1, 52, 100
3, 76032, Note_on_c, 1, 49, 80
3, 76032, Note_on_c, 1, 52, 80
3, 76220, Note_off_c, 1, 49, 100
3, 76220, Note_off_c, 1, 52, 100
3, 76224, Note_on_c, 1, 39, 80
3, 76412, Note_off_c, 1, 39, 100
3, 76416, Note_on_c, 1, 57, 83
3, 76416, Note_on_c, 1, 54, 83
3, 76416, Note_on_c, 1, 51, 83
3, 76604, Note_off_c, 1, 57, 100
3, 76604, Note_off_c, 1, 54, 100
3, 76604, Note_off_c, 1, 51, 100
3, 76608, Note_on_c, 1, 57, 86
3, 76608, Note_on_c, 1, 54, 86
3, 76608, Note_on_c, 1, 51, 86
3, 76796, Note_off_c, 1, 57, 100
3, 76796, Note_off_c, 1, 54, 100
3, 76796, Note_off_c, 1, 51, 100
3, 76800, Note_on_c, 1, 40, 89
3, 76988, Note_off_c, 1, 40, 100
3, 76992, Note_on_c, 1, 56, 93
3, 76992, Note_on_c, 1, 52, 93
3, 77180, Note_off_c, 1, 56, 100
3, 77180, Note_off_c, 1, 52, 100
3, 77184, Note_on_c, 1, 59, 96
3, 77184, Note_on_c, 1, 56, 96
3, 77184, Note_on_c, 1, 53, 96
3, 77372, Note_off_c, 1, 59, 100
3, 77372, Note_off_c, 1, 56, 100
3, 77372, Note_off_c, 1, 53, 100
3, 77376, Note_on_c, 1, 59, 100
3, 77376, Note_on_c, 1, 56, 100
3, 77376, Note_on_c, 1, 51, 100
3, 77564, Note_off_c, 1, 59, 100
3, 77564, Note_off_c, 1, 56, 100
3, 77564, Note_off_c, 1, 51, 100
3, 77568, Note_on_c, 1, 51, 94
3, 77568, Note_on_c, 1, 47, 94
3, 77568, Note_on_c, 1, 44, 94
3, 77568, Note_on_c, 1, 39, 94
3, 77756, Note_off_c, 1, 51, 100
3, 77756, Note_off_c, 1, 47, 100
3, 77756, Note_off_c, 1, 44, 100
3, 77756, Note_off_c, 1, 39, 100
3, 77760, Note_on_c, 1, 51, 87
3, 77760, Note_on_c, 1, 46, 87
3, 77760, Note_on_c, 1, 43, 87
3, 77760, Note_on_c, 1, 39, 87
3, 77948, Note_off_c, 1, 51, 100
3, 77948, Note_off_c, 1, 46, 100
3, 77948, Note_off_c, 1, 43, 100
3, 77948, Note_off_c, 1, 39, 100
3, 77952, Note_on_c, 1, 56, 81
3, 77952, Note_on_c, 1, 44, 81
3, 78140, Note_off_c, 1, 56, 100
3, 78140, Note_off_c, 1, 44, 100
3, 78144, Note_on_c, 1, 32, 80
3, 78332, Note_off_c, 1, 32, 100
3, 78528, Key_signature, -4, "major"
3, 78528, Note_on_c, 1, 48, 80
3, 78528, Note_on_c, 1, 44, 80
3, 78716, Note_off_c, 1, 48, 100
3, 78716, Note_off_c, 1, 44, 100
3, 78912, Note_on_c, 1, 56, 80
3, 78912, Note_on_c, 1, 60, 80
3, 79100, Note_off_c, 1, 56, 100
3, 79100, Note_off_c, 1, 60, 100
3, 79104, Note_on_c, 1, 58, 80
3, 79104, Note_on_c, 1, 61, 80
3, 79292, Note_off_c, 1, 58, 100
3, 79292, Note_off_c, 1, 61, 100
3, 79488, Note_on_c, 1, 49, 80
3, 79488, Note_on_c, 1, 46, 80
3, 79676, Note_off_c, 1, 49, 100
3, 79676, Note_off_c, 1, 46, 100
3, 79680, Note_on_c, 1, 51, 80
3, 79680, Note_on_c, 1, 48, 80
3, 79868, Note_off_c, 1, 51, 100
3, 79868, Note_off_c, 1, 48, 100
3, 80064, Note_on_c, 1, 63, 80
3, 80064, Note_on_c, 1, 60, 80
3, 80252, Note_off_c, 1, 63, 100
3, 80252, Note_off_c, 1, 60, 100
3, 80256, Note_on_c, 1, 65, 80
3, 80256, Note_on_c, 1, 62, 80
3, 80444, Note_off_c, 1, 65, 100
3, 80444, Note_off_c, 1, 62, 100
3, 80448, Note_on_c, 1, 67, 80
3, 80448, Note_on_c, 1, 63, 80
3, 80636, Note_off_c, 1, 67, 100
3, 80636, Note_off_c, 1, 63, 100
3, 80640, Note_on_c, 1, 56, 80
3, 80640, Note_on_c, 1, 53, 80
3, 80828, Note_off_c, 1, 56, 100
3, 80828, Note_off_c, 1, 53, 100
3, 80832, Note_on_c, 1, 58, 80
3, 80832, Note_on_c, 1, 55, 80
3, 81020, Note_off_c, 1, 58, 100
3, 81020, Note_off_c, 1, 55, 100
3, 81024, Note_on_c, 1, 60, 80
3, 81024, Note_on_c, 1, 56, 80
3, 81212, Note_off_c, 1, 60, 100
3, 81212, Note_off_c, 1, 56, 100
3, 81216, Note_on_c, 1, 62, 80
3, 81216, Note_on_c, 1, 68, 80
3, 81404, Note_off_c, 1, 62, 100
3, 81404, Note_off_c, 1, 68, 100
3, 81408, Note_on_c, 1, 70, 80
3, 81408, Note_on_c, 1, 67, 80
3, 81408, Note_on_c, 1, 61, 80
3, 81596, Note_off_c, 1, 70, 100
3, 81596, Note_off_c, 1, 67, 100
3, 81596, Note_off_c, 1, 61, 100
3, 81600, Note_on_c, 1, 72, 80
3, 81600, Note_on_c, 1, 60, 80
3, 81600, Note_on_c, 1, 68, 80
3, 81788, Note_off_c, 1, 72, 100
3, 81788, Note_off_c, 1, 60, 100
3, 81788, Note_off_c, 1, 68, 100
3, 81792, Note_on_c, 1, 41, 80
3, 81980, Note_off_c, 1, 41, 100
3, 81984, Note_on_c, 1, 43, 80
3, 82172, Note_off_c, 1, 43, 100
3, 82176, Note_on_c, 1, 44, 83
3, 82364, Note_off_c, 1, 44, 100
3, 82368, Note_on_c, 1, 38, 87
3, 82556, Note_off_c, 1, 38, 100
3, 82560, Note_on_c, 1, 39, 91
3, 82748, Note_off_c, 1, 39, 100
3, 82752, Note_on_c, 1, 51, 94
3, 82940, Note_off_c, 1, 51, 100
3, 83136, Note_on_c, 1, 44, 80
3, 83136, Note_on_c, 1, 32, 80
3, 83324, Note_off_c, 1, 44, 100
3, 83324, Note_off_c, 1, 32, 100
3, 83520, Note_on_c, 1, 60, 80
3, 83520, Note_on_c, 1, 56, 80
3, 83612, Note_off_c, 1, 60, 100
3, 83612, Note_off_c, 1, 56, 100
3, 83616, Note_on_c, 1, 56, 80
3, 83616, Note_on_c, 1, 60, 80
3, 83708, Note_off_c, 1, 56, 100
3, 83708, Note_off_c, 1, 60, 100
3, 83712, Note_on_c, 1, 58, 80
3, 83712, Note_on_c, 1, 61, 80
3, 83900, Note_off_c, 1, 58, 100
3, 83900, Note_off_c, 1, 61, 100
3, 84096, Note_on_c, 1, 49, 80
3, 84096, Note_on_c, 1, 46, 80
3, 84188, Note_off_c, 1, 49, 100
3, 84188, Note_off_c, 1, 46, 100
3, 84192, Note_on_c, 1, 49, 80
3, 84192, Note_on_c, 1, 46, 80
3, 84284, Note_off_c, 1, 49, 100
3, 84284, Note_off_c, 1, 46, 100
3, 84288, Note_on_c, 1, 48, 80
3, 84288, Note_on_c, 1, 51, 80
3, 84476, Note_off_c, 1, 48, 100
3, 84476, Note_off_c, 1, 51, 100
3, 84672, Note_on_c, 1, 60, 80
3, 84672, Note_on_c, 1, 63, 80
3, 84764, Note_off_c, 1, 60, 100
3, 84764, Note_off_c, 1, 63, 100
3, 84768, Note_on_c, 1, 60, 80
3, 84768, Note_on_c, 1, 63, 80
3, 84860, Note_off_c, 1, 60, 100
3, 84860, Note_off_c, 1, 63, 100
3, 84864, Note_on_c, 1, 65, 80
3, 84864, Note_on_c, 1, 62, 80
3, 84956, Note_off_c, 1, 65, 100
3, 84956, Note_off_c, 1, 62, 100
3, 84960, Note_on_c, 1, 65, 80
3, 84960, Note_on_c, 1, 62, 80
3, 85052, Note_off_c, 1, 65, 100
3, 85052, Note_off_c, 1, 62, 100
3, 85056, Note_on_c, 1, 67, 80
3, 85056, Note_on_c, 1, 63, 80
3, 85244, Note_off_c, 1, 67, 100
3, 85244, Note_off_c, 1, 63, 100
3, 85248, Note_on_c, 1, 56, 80
3, 85248, Note_on_c, 1, 53, 80
3, 85340, Note_off_c, 1, 56, 100
3, 85340, Note_off_c, 1, 53, 100
3, 85344, Note_on_c, 1, 56, 80
3, 85344, Note_on_c, 1, 53, 80
3, 85436, Note_off_c, 1, 56, 100
3, 85436, Note_off_c, 1, 53, 100
3, 85440, Note_on_c, 1, 58, 80
3, 85440, Note_on_c, 1, 55, 80
3, 85532, Note_off_c, 1, 58, 100
3, 85532, Note_off_c, 1, 55, 100
3, 85536, Note_on_c, 1, 58, 80
3, 85536, Note_on_c, 1, 55, 80
3, 85628, Note_off_c, 1, 58, 100
3, 85628, Note_off_c, 1, 55, 100
3, 85632, Note_on_c, 1, 56, 80
3, 85632, Note_on_c, 1, 60, 80
3, 85820, Note_off_c, 1, 56, 100
3, 85820, Note_off_c, 1, 60, 100
3, 85824, Note_on_c, 1, 68, 80
3, 85824, Note_on_c, 1, 62, 80
3, 85916, Note_off_c, 1, 68, 100
3, 85916, Note_off_c, 1, 62, 100
3, 85920, Note_on_c, 1, 68, 80
3, 85920, Note_on_c, 1, 62, 80
3, 86012, Note_off_c, 1, 68, 100
3, 86012, Note_off_c, 1, 62, 100
3, 86016, Note_on_c, 1, 70, 80
3, 86016, Note_on_c, 1, 67, 80
3, 86016, Note_on_c, 1, 61, 80
3, 86108, Note_off_c, 1, 70, 100
3, 86108, Note_off_c, 1, 67, 100
3, 86108, Note_off_c, 1, 61, 100
3, 86112, Note_on_c, 1, 70, 80
3, 86112, Note_on_c, 1, 67, 80
3, 86112, Note_on_c, 1, 61, 80
3, 86204, Note_off_c, 1, 70, 100
3, 86204, Note_off_c, 1, 67, 100
3, 86204, Note_off_c, 1, 61, 100
3, 86208, Note_on_c, 1, 72, 80
3, 86208, Note_on_c, 1, 68, 80
3, 86208, Note_on_c, 1, 60, 80
3, 86396, Note_off_c, 1, 72, 100
3, 86396, Note_off_c, 1, 68, 100
3, 86396, Note_off_c, 1, 60, 100
3, 86400, Note_on_c, 1, 53, 80
3, 86492, Note_off_c, 1, 53, 100
3, 86496, Note_on_c, 1, 53, 80
3, 86588, Note_off_c, 1, 53, 100
3, 86592, Note_on_c, 1, 51, 80
3, 86780, Note_off_c, 1, 51, 100
3, 86976, Note_on_c, 1, 39, 80
3, 87068, Note_off_c, 1, 39, 100
3, 87072, Note_on_c, 1, 39, 80
3, 87164, Note_off_c, 1, 39, 100
3, 87168, Note_on_c, 1, 44, 80
3, 87356, Note_off_c, 1, 44, 100
3, 87360, Note_on_c, 1, 32, 80
3, 87548, Note_off_c, 1, 32, 100
3, 87552, Note_on_c, 1, 49, 80
3, 87552, Note_on_c, 1, 46, 80
3, 87740, Note_off_c, 1, 49, 100
3, 87740, Note_off_c, 1, 46, 100
3, 87744, Note_on_c, 1, 48, 80
3, 87744, Note_on_c, 1, 45, 80
3, 87932, Note_off_c, 1, 48, 100
3, 87932, Note_off_c, 1, 45, 100
3, 88128, Note_on_c, 1, 57, 80
3, 88128, Note_on_c, 1, 65, 80
3, 88316, Note_off_c, 1, 57, 100
3, 88316, Note_off_c, 1, 65, 100
3, 88320, Note_on_c, 1, 58, 80
3, 88320, Note_on_c, 1, 65, 80
3, 88508, Note_off_c, 1, 58, 100
3, 88508, Note_off_c, 1, 65, 100
3, 88704, Note_on_c, 1, 47, 80
3, 88704, Note_on_c, 1, 44, 80
3, 88892, Note_off_c, 1, 47, 100
3, 88892, Note_off_c, 1, 44, 100
3, 88896, Note_on_c, 1, 46, 80
3, 88896, Note_on_c, 1, 43, 80
3, 89084, Note_off_c, 1, 46, 100
3, 89084, Note_off_c, 1, 43, 100
3, 89280, Note_on_c, 1, 55, 80
3, 89280, Note_on_c, 1, 63, 80
3, 89468, Note_off_c, 1, 55, 100
3, 89468, Note_off_c, 1, 63, 100
3, 89472, Note_on_c, 1, 56, 80
3, 89472, Note_on_c, 1, 63, 80
3, 89660, Note_off_c, 1, 56, 100
3, 89660, Note_off_c, 1, 63, 100
3, 89856, Note_on_c, 1, 44, 80
3, 90044, Note_off_c, 1, 44, 100
3, 90048, Note_on_c, 1, 43, 80
3, 90236, Note_off_c, 1, 43, 100
3, 90240, Note_on_c, 1, 31, 80
3, 90428, Note_off_c, 1, 31, 100
3, 90432, Note_on_c, 1, 48, 80
3, 90620, Note_off_c, 1, 48, 100
3, 90624, Note_on_c, 1, 53, 80
3, 90812, Note_off_c, 1, 53, 100
3, 90816, Note_on_c, 1, 41, 80
3, 91004, Note_off_c, 1, 41, 100
3, 91008, Note_on_c, 1, 57, 80
3, 91196, Note_off_c, 1, 57, 100
3, 91200, Note_on_c, 1, 58, 80
3, 91388, Note_off_c, 1, 58, 100
3, 91392, Note_on_c, 1, 46, 80
3, 91580, Note_off_c, 1, 46, 100
3, 91584, Note_on_c, 1, 47, 80
3, 91772, Note_off_c, 1, 47, 100
3, 91776, Note_on_c, 1, 48, 80
3, 91964, Note_off_c, 1, 48, 100
3, 91968, Note_on_c, 1, 36, 80
3, 92156, Note_off_c, 1, 36, 100
3, 92160, Note_on_c, 1, 57, 80
3, 92348, Note_off_c, 1, 57, 100
3, 92352, Note_on_c, 1, 58, 80
3, 92540, Note_off_c, 1, 58, 100
3, 92544, Note_on_c, 1, 46, 80
3, 92732, Note_off_c, 1, 46, 100
3, 92736, Note_on_c, 1, 34, 80
3, 92924, Note_off_c, 1, 34, 100
3, 92928, Note_on_c, 1, 39, 80
3, 93020, Note_off_c, 1, 39, 100
3, 93024, Note_on_c, 1, 49, 80
3, 93068, Note_off_c, 1, 49, 100
3, 93072, Note_on_c, 1, 48, 80
3, 93116, Note_off_c, 1, 48, 100
3, 93120, Note_on_c, 1, 46, 80
3, 93164, Note_off_c, 1, 46, 100
3, 93168, Note_on_c, 1, 44, 80
3, 93212, Note_off_c, 1, 44, 100
3, 93216, Note_on_c, 1, 43, 80
3, 93260, Note_off_c, 1, 43, 100
3, 93264, Note_on_c, 1, 41, 80
3, 93308, Note_off_c, 1, 41, 100
3, 93312, Note_on_c, 1, 39, 80
3, 93356, Note_off_c, 1, 39, 100
3, 93360, Note_on_c, 1, 37, 80
3, 93404, Note_off_c, 1, 37, 100
3, 93408, Note_on_c, 1, 36, 80
3, 93452, Note_off_c, 1, 36, 100
3, 93456, Note_on_c, 1, 34, 80
3, 93500, Note_off_c, 1, 34, 100
3, 93504, Note_on_c, 1, 32, 80
3, 93692, Note_off_c, 1, 32, 100
3, 93888, Note_on_c, 1, 60, 80
3, 93888, Note_on_c, 1, 56, 80
3, 93980, Note_off_c, 1, 60, 100
3, 93980, Note_off_c, 1, 56, 100
3, 93984, Note_on_c, 1, 56, 80
3, 93984, Note_on_c, 1, 60, 80
3, 94076, Note_off_c, 1, 56, 100
3, 94076, Note_off_c, 1, 60, 100
3, 94080, Note_on_c, 1, 58, 80
3, 94080, Note_on_c, 1, 61, 80
3, 94268, Note_off_c, 1, 58, 100
3, 94268, Note_off_c, 1, 61, 100
3, 94464, Note_on_c, 1, 49, 80
3, 94464, Note_on_c, 1, 46, 80
3, 94556, Note_off_c, 1, 49, 100
3, 94556, Note_off_c, 1, 46, 100
3, 94560, Note_on_c, 1, 49, 80
3, 94560, Note_on_c, 1, 46, 80
3, 94652, Note_off_c, 1, 49, 100
3, 94652, Note_off_c, 1, 46, 100
3, 94656, Note_on_c, 1, 48, 80
3, 94656, Note_on_c, 1, 51, 80
3, 94844, Note_off_c, 1, 48, 100
3, 94844, Note_off_c, 1, 51, 100
3, 95040, Note_on_c, 1, 60, 80
3, 95040, Note_on_c, 1, 63, 80
3, 95132, Note_off_c, 1, 60, 100
3, 95132, Note_off_c, 1, 63, 100
3, 95136, Note_on_c, 1, 60, 80
3, 95136, Note_on_c, 1, 63, 80
3, 95228, Note_off_c, 1, 60, 100
3, 95228, Note_off_c, 1, 63, 100
3, 95232, Note_on_c, 1, 65, 80
3, 95232, Note_on_c, 1, 62, 80
3, 95324, Note_off_c, 1, 65, 100
3, 95324, Note_off_c, 1, 62, 100
3, 95328, Note_on_c, 1, 65, 80
3, 95328, Note_on_c, 1, 62, 80
3, 95420, Note_off_c, 1, 65, 100
3, 95420, Note_off_c, 1, 62, 100
3, 95424, Note_on_c, 1, 67, 80
3, 95424, Note_on_c, 1, 63, 80
3, 95612, Note_off_c, 1, 67, 100
3, 95612, Note_off_c, 1, 63, 100
3, 95616, Note_on_c, 1, 56, 80
3, 95616, Note_on_c, 1, 53, 80
3, 95708, Note_off_c, 1, 56, 100
3, 95708, Note_off_c, 1, 53, 100
3, 95712, Note_on_c, 1, 56, 80
3, 95712, Note_on_c, 1, 53, 80
3, 95804, Note_off_c, 1, 56, 100
3, 95804, Note_off_c, 1, 53, 100
3, 95808, Note_on_c, 1, 58, 80
3, 95808, Note_on_c, 1, 55, 80
3, 95900, Note_off_c, 1, 58, 100
3, 95900, Note_off_c, 1, 55, 100
3, 95904, Note_on_c, 1, 58, 80
3, 95904, Note_on_c, 1, 55, 80
3, 95996, Note_off_c, 1, 58, 100
3, 95996, Note_off_c, 1, 55, 100
3, 96000, Note_on_c, 1, 56, 80
3, 96000, Note_on_c, 1, 60, 80
3, 96188, Note_off_c, 1, 56, 100
3, 96188, Note_off_c, 1, 60, 100
3, 96192, Note_on_c, 1, 68, 80
3, 96192, Note_on_c, 1, 62, 80
3, 96284, Note_off_c, 1, 68, 100
3, 96284, Note_off_c, 1, 62, 100
3, 96288, Note_on_c, 1, 68, 80
3, 96288, Note_on_c, 1, 62, 80
3, 96380, Note_off_c, 1, 68, 100
3, 96380, Note_off_c, 1, 62, 100
3, 96384, Note_on_c, 1, 70, 80
3, 96384, Note_on_c, 1, 67, 80
3, 96384, Note_on_c, 1, 61, 80
3, 96476, Note_off_c, 1, 70, 100
3, 96476, Note_off_c, 1, 67, 100
3, 96476, Note_off_c, 1, 61, 100
3, 96480, Note_on_c, 1, 70, 80
3, 96480, Note_on_c, 1, 67, 80
3, 96480, Note_on_c, 1, 61, 80
3, 96572, Note_off_c, 1, 70, 100
3, 96572, Note_off_c, 1, 67, 100
3, 96572, Note_off_c, 1, 61, 100
3, 96576, Note_on_c, 1, 72, 80
3, 96576, Note_on_c, 1, 68, 80
3, 96576, Note_on_c, 1, 60, 80
3, 96764, Note_off_c, 1, 72, 100
3, 96764, Note_off_c, 1, 68, 100
3, 96764, Note_off_c, 1, 60, 100
3, 96768, Note_on_c, 1, 53, 80
3, 96860, Note_off_c, 1, 53, 100
3, 96864, Note_on_c, 1, 53, 80
3, 96956, Note_off_c, 1, 53, 100
3, 96960, Note_on_c, 1, 51, 80
3, 97148, Note_off_c, 1, 51, 100
3, 97344, Note_on_c, 1, 39, 80
3, 97436, Note_off_c, 1, 39, 100
3, 97440, Note_on_c, 1, 39, 80
3, 97532, Note_off_c, 1, 39, 100
3, 97536, Note_on_c, 1, 44, 80
3, 97724, Note_off_c, 1, 44, 100
3, 97728, Note_on_c, 1, 32, 80
3, 97916, Note_off_c, 1, 32, 100
3, 98112, Control_c, 1, 64, 127
3, 98112, Note_on_c, 1, 44, 80
3, 98172, Note_off_c, 1, 44, 100
3, 98176, Note_on_c, 1, 51, 80
3, 98236, Note_off_c, 1, 51, 100
3, 98240, Note_on_c, 1, 56, 80
3, 98300, Note_off_c, 1, 56, 100
3, 98300, Control_c, 1, 64, 0
3, 98304, Control_c, 1, 64, 127
3, 98304, Note_on_c, 1, 44, 80
3, 98364, Note_off_c, 1, 44, 100
3, 98368, Note_on_c, 1, 51, 80
3, 98428, Note_off_c, 1, 51, 100
3, 98432, Note_on_c, 1, 56, 80
3, 98492, Note_off_c, 1, 56, 100
3, 98492, Control_c, 1, 64, 0
3, 98496, Control_c, 1, 64, 127
3, 98496, Note_on_c, 1, 44, 80
3, 98556, Note_off_c, 1, 44, 100
3, 98560, Note_on_c, 1, 51, 80
3, 98620, Note_off_c, 1, 51, 100
3, 98624, Note_on_c, 1, 56, 80
3, 98684, Note_off_c, 1, 56, 100
3, 98684, Control_c, 1, 64, 0
3, 98688, Control_c, 1, 64, 127
3, 98688, Note_on_c, 1, 46, 80
3, 98748, Note_off_c, 1, 46, 100
3, 98752, Note_on_c, 1, 51, 80
3, 98812, Note_off_c, 1, 51, 100
3, 98816, Note_on_c, 1, 58, 80
3, 98876, Note_off_c, 1, 58, 100
3, 98876, Control_c, 1, 64, 0
3, 98880, Control_c, 1, 64, 127
3, 98880, Note_on_c, 1, 46, 80
3, 98940, Note_off_c, 1, 46, 100
3, 98944, Note_on_c, 1, 51, 80
3, 99004, Note_off_c, 1, 51, 100
3, 99008, Note_on_c, 1, 58, 80
3, 99068, Note_off_c, 1, 58, 100
3, 99068, Control_c, 1, 64, 0
3, 99072, Control_c, 1, 64, 127
3, 99072, Note_on_c, 1, 46, 80
3, 99132, Note_off_c, 1, 46, 100
3, 99136, Note_on_c, 1, 51, 80
3, 99196, Note_off_c, 1, 51, 100
3, 99200, Note_on_c, 1, 58, 80
3, 99260, Note_off_c, 1, 58, 100
3, 99260, Control_c, 1, 64, 0
3, 99264, Control_c, 1, 64, 127
3, 99264, Note_on_c, 1, 48, 80
3, 99324, Note_off_c, 1, 48, 100
3, 99328, Note_on_c, 1, 51, 80
3, 99388, Note_off_c, 1, 51, 100
3, 99392, Note_on_c, 1, 60, 80
3, 99452, Note_off_c, 1, 60, 100
3, 99452, Control_c, 1, 64, 0
3, 99456, Control_c, 1, 64, 127
3, 99456, Note_on_c, 1, 48, 80
3, 99516, Note_off_c, 1, 48, 100
3, 99520, Note_on_c, 1, 51, 80
3, 99580, Note_off_c, 1, 51, 100
3, 99584, Note_on_c, 1, 60, 80
3, 99644, Note_off_c, 1, 60, 100
3, 99644, Control_c, 1, 64, 0
3, 99648, Control_c, 1, 64, 127
3, 99648, Note_on_c, 1, 43, 80
3, 99708, Note_off_c, 1, 43, 100
3, 99712, Note_on_c, 1, 51, 80
3, 99772, Note_off_c, 1, 51, 100
3, 99776, Note_on_c, 1, 55, 80
3, 99836, Note_off_c, 1, 55, 100
3, 99836, Control_c, 1, 64, 0
3, 99840, Control_c, 1, 64, 127
3, 99840, Note_on_c, 1, 44, 80
3, 99900, Note_off_c, 1, 44, 100
3, 99904, Note_on_c, 1, 51, 80
3, 99964, Note_off_c, 1, 51, 100
3, 99968, Note_on_c, 1, 56, 80
3, 100028, Note_off_c, 1, 56, 100
3, 100028, Control_c, 1, 64, 0
3, 100032, Control_c, 1, 64, 127
3, 100032, Note_on_c, 1, 39, 80
3, 100092, Note_off_c, 1, 39, 100
3, 100096, Note_on_c, 1, 51, 80
3, 100156, Note_off_c, 1, 51, 100
3, 100160, Note_on_c, 1, 51, 80
3, 100220, Note_off_c, 1, 51, 100
3, 100220, Control_c, 1, 64, 0
3, 100224, Control_c, 1, 64, 127
3, 100224, Note_on_c, 1, 42, 80
3, 100284, Note_off_c, 1, 42, 100
3, 100288, Note_on_c, 1, 51, 80
3, 100348, Note_off_c, 1, 51, 100
3, 100352, Note_on_c, 1, 54, 80
3, 100412, Note_off_c, 1, 54, 100
3, 100412, Control_c, 1, 64, 0
3, 100416, Control_c, 1, 64, 127
3, 100416, Note_on_c, 1, 41, 80
3, 100476, Note_off_c, 1, 41, 100
3, 100480, Note_on_c, 1, 53, 80
3, 100540, Note_off_c, 1, 53, 100
3, 100544, Note_on_c, 1, 56, 80
3, 100604, Note_off_c, 1, 56, 100
3, 100604, Control_c, 1, 64, 0
3, 100608, Control_c, 1, 64, 127
3, 100608, Note_on_c, 1, 53, 80
3, 100668, Note_off_c, 1, 53, 100
3, 100672, Note_on_c, 1, 56, 80
3, 100732, Note_off_c, 1, 56, 100
3, 100796, Control_c, 1, 64, 0
3, 100798, Note_on_c, 1, 61, 80
3, 100800, Control_c, 1, 64, 127
3, 100800, Note_on_c, 1, 51, 80
3, 100858, Note_off_c, 1, 61, 100
3, 100860, Note_off_c, 1, 51, 100
3, 100864, Note_on_c, 1, 56, 80
3, 100924, Note_off_c, 1, 56, 100
3, 100928, Note_on_c, 1, 60, 80
3, 100988, Note_off_c, 1, 60, 100
3, 100988, Control_c, 1, 64, 0
3, 100992, Control_c, 1, 64, 127
3, 100992, Note_on_c, 1, 50, 80
3, 101052, Note_off_c, 1, 50, 100
3, 101056, Note_on_c, 1, 53, 80
3, 101116, Note_off_c, 1, 53, 100
3, 101120, Note_on_c, 1, 58, 80
3, 101180, Note_off_c, 1, 58, 100
3, 101180, Control_c, 1, 64, 0
3, 101184, Control_c, 1, 64, 127
3, 101184, Note_on_c, 1, 49, 80
3, 101244, Note_off_c, 1, 49, 100
3, 101248, Note_on_c, 1, 51, 80
3, 101308, Note_off_c, 1, 51, 100
3, 101312, Note_on_c, 1, 58, 80
3, 101372, Note_off_c, 1, 58, 100
3, 101372, Control_c, 1, 64, 0
3, 101376, Control_c, 1, 64, 127
3, 101376, Note_on_c, 1, 48, 80
3, 101436, Note_off_c, 1, 48, 100
3, 101440, Note_on_c, 1, 51, 80
3, 101500, Note_off_c, 1, 51, 100
3, 101504, Note_on_c, 1, 56, 80
3, 101564, Note_off_c, 1, 56, 100
3, 101564, Control_c, 1, 64, 0
3, 101568, Control_c, 1, 64, 127
3, 101568, Note_on_c, 1, 41, 80
3, 101628, Note_off_c, 1, 41, 100
3, 101632, Note_on_c, 1, 53, 80
3, 101692, Note_off_c, 1, 53, 100
3, 101696, Note_on_c, 1, 56, 80
3, 101756, Note_off_c, 1, 56, 100
3, 101756, Control_c, 1, 64, 0
3, 101760, Control_c, 1, 64, 127
3, 101760, Note_on_c, 1, 43, 80
3, 101820, Note_off_c, 1, 43, 100
3, 101824, Note_on_c, 1, 55, 80
3, 101884, Note_off_c, 1, 55, 100
3, 101888, Note_on_c, 1, 58, 80
3, 101948, Note_off_c, 1, 58, 100
3, 101948, Control_c, 1, 64, 0
3, 101952, Control_c, 1, 64, 127
3, 101952, Note_on_c, 1, 44, 80
3, 102012, Note_off_c, 1, 44, 100
3, 102016, Note_on_c, 1, 56, 80
3, 102076, Note_off_c, 1, 56, 100
3, 102080, Note_on_c, 1, 60, 80
3, 102140, Note_off_c, 1, 60, 100
3, 102140, Control_c, 1, 64, 0
3, 102144, Control_c, 1, 64, 127
3, 102144, Note_on_c, 1, 39, 80
3, 102204, Note_off_c, 1, 39, 100
3, 102208, Note_on_c, 1, 51, 80
3, 102268, Note_off_c, 1, 51, 100
3, 102272, Note_on_c, 1, 51, 80
3, 102332, Note_off_c, 1, 51, 100
3, 102332, Control_c, 1, 64, 0
3, 102336, Control_c, 1, 64, 127
3, 102336, Note_on_c, 1, 51, 80
3, 102396, Note_off_c, 1, 51, 100
3, 102400, Note_on_c, 1, 53, 80
3, 102460, Note_off_c, 1, 53, 100
3, 102464, Note_on_c, 1, 51, 80
3, 102524, Note_off_c, 1, 51, 100
3, 102524, Control_c, 1, 64, 0
3, 102528, Control_c, 1, 64, 127
3, 102528, Note_on_c, 1, 49, 80
3, 102588, Note_off_c, 1, 49, 100
3, 102592, Note_on_c, 1, 48, 80
3, 102652, Note_off_c, 1, 48, 100
3, 102656, Note_on_c, 1, 46, 80
3, 102716, Note_off_c, 1, 46, 100
3, 102716, Control_c, 1, 64, 0
3, 102720, Control_c, 1, 64, 127
3, 102720, Note_on_c, 1, 44, 80
3, 102764, Note_off_c, 1, 44, 100
3, 102768, Note_on_c, 1, 51, 80
3, 102812, Note_off_c, 1, 51, 100
3, 102816, Note_on_c, 1, 56, 80
3, 102860, Note_off_c, 1, 56, 100
3, 102864, Note_on_c, 1, 51, 80
3, 102908, Note_off_c, 1, 51, 100
3, 102908, Control_c, 1, 64, 0
3, 102912, Control_c, 1, 64, 127
3, 102912, Note_on_c, 1, 48, 80
3, 102956, Note_off_c, 1, 48, 100
3, 102960, Note_on_c, 1, 51, 80
3, 103004, Note_off_c, 1, 51, 100
3, 103008, Note_on_c, 1, 56, 80
3, 103052, Note_off_c, 1, 56, 100
3, 103056, Note_on_c, 1, 51, 80
3, 103100, Note_off_c, 1, 51, 100
3, 103100, Control_c, 1, 64, 0
3, 103104, Control_c, 1, 64, 127
3, 103104, Note_on_c, 1, 48, 80
3, 103148, Note_off_c, 1, 48, 100
3, 103152, Note_on_c, 1, 51, 80
3, 103196, Note_off_c, 1, 51, 100
3, 103200, Note_on_c, 1, 56, 80
3, 103244, Note_off_c, 1, 56, 100
3, 103248, Note_on_c, 1, 51, 80
3, 103292, Note_off_c, 1, 51, 100
3, 103292, Control_c, 1, 64, 0
3, 103296, Control_c, 1, 64, 127
3, 103296, Note_on_c, 1, 46, 80
3, 103340, Note_off_c, 1, 46, 100
3, 103344, Note_on_c, 1, 51, 80
3, 103388, Note_off_c, 1, 51, 100
3, 103392, Note_on_c, 1, 55, 80
3, 103436, Note_off_c, 1, 55, 100
3, 103440, Note_on_c, 1, 51, 80
3, 103484, Note_off_c, 1, 51, 100
3, 103484, Control_c, 1, 64, 0
3, 103488, Control_c, 1, 64, 127
3, 103488, Note_on_c, 1, 49, 80
3, 103532, Note_off_c, 1, 49, 100
3, 103536, Note_on_c, 1, 51, 80
3, 103580, Note_off_c, 1, 51, 100
3, 103584, Note_on_c, 1, 58, 80
3, 103628, Note_off_c, 1, 58, 100
3, 103632, Note_on_c, 1, 51, 80
3, 103676, Note_off_c, 1, 51, 100
3, 103676, Control_c, 1, 64, 0
3, 103680, Control_c, 1, 64, 127
3, 103680, Note_on_c, 1, 49, 80
3, 103724, Note_off_c, 1, 49, 100
3, 103728, Note_on_c, 1, 51, 80
3, 103772, Note_off_c, 1, 51, 100
3, 103776, Note_on_c, 1, 58, 80
3, 103820, Note_off_c, 1, 58, 100
3, 103824, Note_on_c, 1, 51, 80
3, 103868, Note_off_c, 1, 51, 100
3, 103868, Control_c, 1, 64, 0
3, 103872, Control_c, 1, 64, 127
3, 103872, Note_on_c, 1, 48, 80
3, 103916, Note_off_c, 1, 48, 100
3, 103920, Note_on_c, 1, 51, 80
3, 103964, Note_off_c, 1, 51, 100
3, 103968, Note_on_c, 1, 56, 80
3, 104012, Note_off_c, 1, 56, 100
3, 104016, Note_on_c, 1, 51, 80
3, 104060, Note_off_c, 1, 51, 100
3, 104060, Control_c, 1, 64, 0
3, 104064, Control_c, 1, 64, 127
3, 104064, Note_on_c, 1, 48, 80
3, 104108, Note_off_c, 1, 48, 100
3, 104112, Note_on_c, 1, 51, 80
3, 104156, Note_off_c, 1, 51, 100
3, 104160, Note_on_c, 1, 56, 80
3, 104204, Note_off_c, 1, 56, 100
3, 104208, Note_on_c, 1, 51, 80
3, 104252, Note_off_c, 1, 51, 100
3, 104252, Control_c, 1, 64, 0
3, 104256, Control_c, 1, 64, 127
3, 104256, Note_on_c, 1, 43, 80
3, 104300, Note_off_c, 1, 43, 100
3, 104304, Note_on_c, 1, 51, 80
3, 104348, Note_off_c, 1, 51, 100
3, 104352, Note_on_c, 1, 55, 80
3, 104396, Note_off_c, 1, 55, 100
3, 104400, Note_on_c, 1, 51, 80
3, 104444, Note_off_c, 1, 51, 100
3, 104444, Control_c, 1, 64, 0
3, 104448, Control_c, 1, 64, 127
3, 104448, Note_on_c, 1, 44, 80
3, 104492, Note_off_c, 1, 44, 100
3, 104496, Note_on_c, 1, 51, 80
3, 104540, Note_off_c, 1, 51, 100
3, 104544, Note_on_c, 1, 56, 80
3, 104588, Note_off_c, 1, 56, 100
3, 104592, Note_on_c, 1, 51, 80
3, 104636, Note_off_c, 1, 51, 100
3, 104636, Control_c, 1, 64, 0
3, 104640, Control_c, 1, 64, 127
3, 104640, Note_on_c, 1, 39, 80
3, 104684, Note_off_c, 1, 39, 100
3, 104688, Note_on_c, 1, 51, 80
3, 104732, Note_off_c, 1, 51, 100
3, 104736, Note_on_c, 1, 55, 80
3, 104780, Note_off_c, 1, 55, 100
3, 104784, Note_on_c, 1, 51, 80
3, 104828, Note_off_c, 1, 51, 100
3, 104828, Control_c, 1, 64, 0
3, 104832, Control_c, 1, 64, 127
3, 104832, Note_on_c, 1, 42, 80
3, 104876, Note_off_c, 1, 42, 100
3, 104880, Note_on_c, 1, 51, 80
3, 104924, Note_off_c, 1, 51, 100
3, 104928, Note_on_c, 1, 54, 80
3, 104972, Note_off_c, 1, 54, 100
3, 104976, Note_on_c, 1, 51, 80
3, 105020, Note_off_c, 1, 51, 100
3, 105020, Control_c, 1, 64, 0
3, 105024, Control_c, 1, 64, 127
3, 105024, Note_on_c, 1, 41, 80
3, 105068, Note_off_c, 1, 41, 100
3, 105072, Note_on_c, 1, 53, 80
3, 105116, Note_off_c, 1, 53, 100
3, 105120, Note_on_c, 1, 56, 80
3, 105164, Note_off_c, 1, 56, 100
3, 105168, Note_on_c, 1, 60, 80
3, 105212, Note_off_c, 1, 60, 100
3, 105212, Control_c, 1, 64, 0
3, 105216, Control_c, 1, 64, 127
3, 105216, Note_on_c, 1, 53, 80
3, 105260, Note_off_c, 1, 53, 100
3, 105264, Note_on_c, 1, 56, 80
3, 105308, Note_off_c, 1, 56, 100
3, 105312, Note_on_c, 1, 61, 80
3, 105356, Note_off_c, 1, 61, 100
3, 105360, Note_on_c, 1, 56, 80
3, 105404, Note_off_c, 1, 56, 100
3, 105404, Control_c, 1, 64, 0
3, 105408, Control_c, 1, 64, 127
3, 105408, Note_on_c, 1, 51, 80
3, 105452, Note_off_c, 1, 51, 100
3, 105456, Note_on_c, 1, 56, 80
3, 105500, Note_off_c, 1, 56, 100
3, 105504, Note_on_c, 1, 60, 80
3, 105548, Note_off_c, 1, 60, 100
3, 105552, Note_on_c, 1, 56, 80
3, 105596, Note_off_c, 1, 56, 100
3, 105596, Control_c, 1, 64, 0
3, 105600, Control_c, 1, 64, 127
3, 105600, Note_on_c, 1, 50, 80
3, 105644, Note_off_c, 1, 50, 100
3, 105648, Note_on_c, 1, 53, 80
3, 105692, Note_off_c, 1, 53, 100
3, 105696, Note_on_c, 1, 58, 80
3, 105740, Note_off_c, 1, 58, 100
3, 105744, Note_on_c, 1, 53, 80
3, 105788, Note_off_c, 1, 53, 100
3, 105788, Control_c, 1, 64, 0
3, 105792, Control_c, 1, 64, 127
3, 105792, Note_on_c, 1, 49, 80
3, 105836, Note_off_c, 1, 49, 100
3, 105840, Note_on_c, 1, 51, 80
3, 105884, Note_off_c, 1, 51, 100
3, 105888, Note_on_c, 1, 58, 80
3, 105932, Note_off_c, 1, 58, 100
3, 105936, Note_on_c, 1, 51, 80
3, 105980, Note_off_c, 1, 51, 100
3, 105980, Control_c, 1, 64, 0
3, 105984, Control_c, 1, 64, 127
3, 105984, Note_on_c, 1, 48, 80
3, 106028, Note_off_c, 1, 48, 100
3, 106032, Note_on_c, 1, 51, 80
3, 106076, Note_off_c, 1, 51, 100
3, 106080, Note_on_c, 1, 56, 80
3, 106124, Note_off_c, 1, 56, 100
3, 106128, Note_on_c, 1, 51, 80
3, 106172, Note_off_c, 1, 51, 100
3, 106172, Control_c, 1, 64, 0
3, 106176, Control_c, 1, 64, 127
3, 106176, Note_on_c, 1, 39, 80
3, 106220, Note_off_c, 1, 39, 100
3, 106224, Note_on_c, 1, 48, 80
3, 106268, Note_off_c, 1, 48, 100
3, 106272, Note_on_c, 1, 51, 80
3, 106316, Note_off_c, 1, 51, 100
3, 106320, Note_on_c, 1, 56, 80
3, 106364, Note_off_c, 1, 56, 100
3, 106364, Control_c, 1, 64, 0
3, 106368, Control_c, 1, 64, 127
3, 106368, Note_on_c, 1, 39, 80
3, 106412, Note_off_c, 1, 39, 100
3, 106416, Note_on_c, 1, 48, 80
3, 106460, Note_off_c, 1, 48, 100
3, 106464, Note_on_c, 1, 51, 80
3, 106508, Note_off_c, 1, 51, 100
3, 106512, Note_on_c, 1, 56, 80
3, 106556, Note_off_c, 1, 56, 100
3, 106556, Control_c, 1, 64, 0
3, 106560, Control_c, 1, 64, 127
3, 106560, Note_on_c, 1, 39, 80
3, 106604, Note_off_c, 1, 39, 100
3, 106608, Note_on_c, 1, 49, 80
3, 106652, Note_off_c, 1, 49, 100
3, 106656, Note_on_c, 1, 51, 80
3, 106700, Note_off_c, 1, 51, 100
3, 106704, Note_on_c, 1, 55, 80
3, 106748, Note_off_c, 1, 55, 100
3, 106748, Control_c, 1, 64, 0
3, 106752, Control_c, 1, 64, 127
3, 106752, Note_on_c, 1, 44, 80
3, 106796, Note_off_c, 1, 44, 100
3, 106800, Note_on_c, 1, 48, 80
3, 106844, Note_off_c, 1, 48, 100
3, 106848, Note_on_c, 1, 51, 80
3, 106892, Note_off_c, 1, 51, 100
3, 106896, Note_on_c, 1, 56, 80
3, 106940, Note_off_c, 1, 56, 100
3, 106940, Control_c, 1, 64, 0
3, 106944, Control_c, 1, 64, 127
3, 106944, Note_on_c, 1, 44, 80
3, 107132, Note_off_c, 1, 44, 100
3, 107132, Control_c, 1, 64, 0
3, 107136, Control_c, 1, 64, 127
3, 107324, Control_c, 1, 64, 0
3, 107328, Control_c, 1, 64, 127
3, 107328, Note_on_c, 1, 57, 80
3, 107372, Note_off_c, 1, 57, 100
3, 107376, Note_on_c, 1, 65, 80
3, 107420, Note_off_c, 1, 65, 100
3, 107424, Note_on_c, 1, 60, 80
3, 107468, Note_off_c, 1, 60, 100
3, 107472, Note_on_c, 1, 65, 80
3, 107516, Note_off_c, 1, 65, 100
3, 107516, Control_c, 1, 64, 0
3, 107520, Control_c, 1, 64, 127
3, 107520, Note_on_c, 1, 55, 80
3, 107564, Note_off_c, 1, 55, 100
3, 107568, Note_on_c, 1, 65, 80
3, 107612, Note_off_c, 1, 65, 100
3, 107616, Note_on_c, 1, 58, 80
3, 107660, Note_off_c, 1, 58, 100
3, 107664, Note_on_c, 1, 65, 80
3, 107708, Note_off_c, 1, 65, 100
3, 107708, Control_c, 1, 64, 0
3, 107712, Control_c, 1, 64, 127
3, 107712, Note_on_c, 1, 57, 80
3, 107756, Note_off_c, 1, 57, 100
3, 107760, Note_on_c, 1, 65, 80
3, 107804, Note_off_c, 1, 65, 100
3, 107808, Note_on_c, 1, 60, 80
3, 107852, Note_off_c, 1, 60, 100
3, 107856, Note_on_c, 1, 65, 80
3, 107900, Note_off_c, 1, 65, 100
3, 107900, Control_c, 1, 64, 0
3, 107904, Control_c, 1, 64, 127
3, 107904, Note_on_c, 1, 58, 80
3, 107948, Note_off_c, 1, 58, 100
3, 107952, Note_on_c, 1, 65, 80
3, 107996, Note_off_c, 1, 65, 100
3, 108000, Note_on_c, 1, 61, 80
3, 108044, Note_off_c, 1, 61, 100
3, 108048, Note_on_c, 1, 65, 80
3, 108092, Note_off_c, 1, 65, 100
3, 108092, Control_c, 1, 64, 0
3, 108096, Control_c, 1, 64, 127
3, 108096, Note_on_c, 1, 46, 80
3, 108284, Note_off_c, 1, 46, 100
3, 108284, Control_c, 1, 64, 0
3, 108288, Control_c, 1, 64, 127
3, 108476, Control_c, 1, 64, 0
3, 108480, Control_c, 1, 64, 127
3, 108480, Note_on_c, 1, 55, 80
3, 108524, Note_off_c, 1, 55, 100
3, 108528, Note_on_c, 1, 63, 80
3, 108572, Note_off_c, 1, 63, 100
3, 108576, Note_on_c, 1, 58, 80
3, 108620, Note_off_c, 1, 58, 100
3, 108624, Note_on_c, 1, 63, 80
3, 108668, Note_off_c, 1, 63, 100
3, 108668, Control_c, 1, 64, 0
3, 108672, Control_c, 1, 64, 127
3, 108672, Note_on_c, 1, 53, 80
3, 108716, Note_off_c, 1, 53, 100
3, 108720, Note_on_c, 1, 63, 80
3, 108764, Note_off_c, 1, 63, 100
3, 108768, Note_on_c, 1, 56, 80
3, 108812, Note_off_c, 1, 56, 100
3, 108816, Note_on_c, 1, 63, 80
3, 108860, Note_off_c, 1, 63, 100
3, 108860, Control_c, 1, 64, 0
3, 108864, Control_c, 1, 64, 127
3, 108864, Note_on_c, 1, 55, 80
3, 108908, Note_off_c, 1, 55, 100
3, 108912, Note_on_c, 1, 63, 80
3, 108956, Note_off_c, 1, 63, 100
3, 108960, Note_on_c, 1, 58, 80
3, 109004, Note_off_c, 1, 58, 100
3, 109008, Note_on_c, 1, 63, 80
3, 109052, Note_off_c, 1, 63, 100
3, 109052, Control_c, 1, 64, 0
3, 109056, Control_c, 1, 64, 127
3, 109056, Note_on_c, 1, 56, 80
3, 109100, Note_off_c, 1, 56, 100
3, 109104, Note_on_c, 1, 63, 80
3, 109148, Note_off_c, 1, 63, 100
3, 109152, Note_on_c, 1, 60, 80
3, 109196, Note_off_c, 1, 60, 100
3, 109200, Note_on_c, 1, 63, 80
3, 109244, Note_off_c, 1, 63, 100
3, 109244, Control_c, 1, 64, 0
3, 109248, Control_c, 1, 64, 127
3, 109248, Note_on_c, 1, 44, 80
3, 109436, Note_off_c, 1, 44, 100
3, 109436, Control_c, 1, 64, 0
3, 109440, Control_c, 1, 64, 127
3, 109628, Control_c, 1, 64, 0
3, 109632, Control_c, 1, 64, 127
3, 109632, Note_on_c, 1, 48, 80
3, 109724, Note_off_c, 1, 48, 100
3, 109728, Note_on_c, 1, 60, 81
3, 109820, Note_off_c, 1, 60, 100
3, 109820, Control_c, 1, 64, 0
3, 109824, Control_c, 1, 64, 127
3, 109824, Note_on_c, 1, 47, 83
3, 109916, Note_off_c, 1, 47, 100
3, 109920, Note_on_c, 1, 59, 85
3, 110012, Note_off_c, 1, 59, 100
3, 110012, Control_c, 1, 64, 0
3, 110016, Control_c, 1, 64, 127
3, 110016, Note_on_c, 1, 46, 86
3, 110108, Note_off_c, 1, 46, 100
3, 110112, Note_on_c, 1, 58, 88
3, 110204, Note_off_c, 1, 58, 100
3, 110204, Control_c, 1, 64, 0
3, 110208, Control_c, 1, 64, 127
3, 110208, Note_on_c, 1, 44, 90
3, 110300, Note_off_c, 1, 44, 100
3, 110304, Note_on_c, 1, 56, 92
3, 110396, Note_off_c, 1, 56, 100
3, 110396, Control_c, 1, 64, 0
3, 110400, Control_c, 1, 64, 127
3, 110400, Note_on_c, 1, 43, 93
3, 110492, Note_off_c, 1, 43, 100
3, 110496, Note_on_c, 1, 55, 95
3, 110588, Note_off_c, 1, 55, 100
3, 110588, Control_c, 1, 64, 0
3, 110592, Control_c, 1, 64, 127
3, 110592, Note_on_c, 1, 41, 97
3, 110684, Note_off_c, 1, 41, 100
3, 110688, Note_on_c, 1, 53, 99
3, 110780, Note_off_c, 1, 53, 100
3, 110780, Control_c, 1, 64, 0
3, 110784, Control_c, 1, 64, 127
3, 110784, Note_on_c, 1, 46, 80
3, 110876, Note_off_c, 1, 46, 100
3, 110880, Note_on_c, 1, 58, 80
3, 110972, Note_off_c, 1, 58, 100
3, 110972, Control_c, 1, 64, 0
3, 110976, Control_c, 1, 64, 127
3, 110976, Note_on_c, 1, 46, 80
3, 111068, Note_off_c, 1, 46, 100
3, 111072, Note_on_c, 1, 58, 80
3, 111164, Note_off_c, 1, 58, 100
3, 111164, Control_c, 1, 64, 0
3, 111168, Control_c, 1, 64, 127
3, 111168, Note_on_c, 1, 47, 80
3, 111260, Note_off_c, 1, 47, 100
3, 111264, Note_on_c, 1, 59, 80
3, 111356, Note_off_c, 1, 59, 100
3, 111356, Control_c, 1, 64, 0
3, 111360, Control_c, 1, 64, 127
3, 111360, Note_on_c, 1, 48, 80
3, 111452, Note_off_c, 1, 48, 100
3, 111456, Note_on_c, 1, 60, 80
3, 111548, Note_off_c, 1, 60, 100
3, 111548, Control_c, 1, 64, 0
3, 111552, Control_c, 1, 64, 127
3, 111552, Note_on_c, 1, 44, 80
3, 111644, Note_off_c, 1, 44, 100
3, 111648, Note_on_c, 1, 56, 80
3, 111740, Note_off_c, 1, 56, 100
3, 111740, Control_c, 1, 64, 0
3, 111744, Control_c, 1, 64, 127
3, 111744, Note_on_c, 1, 45, 80
3, 111836, Note_off_c, 1, 45, 100
3, 111840, Note_on_c, 1, 57, 80
3, 111932, Note_off_c, 1, 57, 100
3, 111932, Control_c, 1, 64, 0
3, 111936, Control_c, 1, 64, 127
3, 111936, Note_on_c, 1, 46, 80
3, 112028, Note_off_c, 1, 46, 100
3, 112032, Note_on_c, 1, 58, 80
3, 112124, Note_off_c, 1, 58, 100
3, 112124, Control_c, 1, 64, 0
3, 112128, Control_c, 1, 64, 127
3, 112128, Note_on_c, 1, 46, 80
3, 112220, Note_off_c, 1, 46, 100
3, 112224, Note_on_c, 1, 58, 80
3, 112316, Note_off_c, 1, 58, 100
3, 112316, Control_c, 1, 64, 0
3, 112320, Control_c, 1, 64, 127
3, 112320, Note_on_c, 1, 34, 80
3, 112412, Note_off_c, 1, 34, 100
3, 112416, Note_on_c, 1, 46, 80
3, 112508, Note_off_c, 1, 46, 100
3, 112508, Control_c, 1, 64, 0
3, 112512, Control_c, 1, 64, 127
3, 112512, Note_on_c, 1, 39, 80
3, 112604, Note_off_c, 1, 39, 100
3, 112608, Note_on_c, 1, 51, 80
3, 112700, Note_off_c, 1, 51, 100
3, 112700, Control_c, 1, 64, 0
3, 112704, Control_c, 1, 64, 127
3, 112704, Note_on_c, 1, 41, 80
3, 112796, Note_off_c, 1, 41, 100
3, 112800, Note_on_c, 1, 53, 80
3, 112892, Note_off_c, 1, 53, 100
3, 112892, Control_c, 1, 64, 0
3, 112896, Control_c, 1, 64, 127
3, 112896, Note_on_c, 1, 43, 80
3, 112988, Note_off_c, 1, 43, 100
3, 112992, Note_on_c, 1, 55, 80
3, 113084, Note_off_c, 1, 55, 100
3, 113084, Control_c, 1, 64, 0
3, 113088, Control_c, 1, 64, 127
3, 113088, Note_on_c, 1, 44, 80
3, 113132, Note_off_c, 1, 44, 100
3, 113136, Note_on_c, 1, 51, 80
3, 113180, Note_off_c, 1, 51, 100
3, 113184, Note_on_c, 1, 56, 80
3, 113228, Note_off_c, 1, 56, 100
3, 113232, Note_on_c, 1, 51, 80
3, 113276, Note_off_c, 1, 51, 100
3, 113276, Control_c, 1, 64, 0
3, 113280, Control_c, 1, 64, 127
3, 113280, Note_on_c, 1, 48, 80
3, 113324, Note_off_c, 1, 48, 100
3, 113328, Note_on_c, 1, 51, 80
3, 113372, Note_off_c, 1, 51, 100
3, 113376, Note_on_c, 1, 56, 80
3, 113420, Note_off_c, 1, 56, 100
3, 113424, Note_on_c, 1, 51, 80
3, 113468, Note_off_c, 1, 51, 100
3, 113468, Control_c, 1, 64, 0
3, 113472, Control_c, 1, 64, 127
3, 113472, Note_on_c, 1, 48, 80
3, 113516, Note_off_c, 1, 48, 100
3, 113520, Note_on_c, 1, 51, 80
3, 113564, Note_off_c, 1, 51, 100
3, 113568, Note_on_c, 1, 56, 80
3, 113612, Note_off_c, 1, 56, 100
3, 113616, Note_on_c, 1, 51, 80
3, 113660, Note_off_c, 1, 51, 100
3, 113660, Control_c, 1, 64, 0
3, 113664, Control_c, 1, 64, 127
3, 113664, Note_on_c, 1, 46, 80
3, 113708, Note_off_c, 1, 46, 100
3, 113712, Note_on_c, 1, 51, 80
3, 113756, Note_off_c, 1, 51, 100
3, 113760, Note_on_c, 1, 55, 80
3, 113804, Note_off_c, 1, 55, 100
3, 113808, Note_on_c, 1, 51, 80
3, 113852, Note_off_c, 1, 51, 100
3, 113852, Control_c, 1, 64, 0
3, 113856, Control_c, 1, 64, 127
3, 113856, Note_on_c, 1, 49, 80
3, 113900, Note_off_c, 1, 49, 100
3, 113904, Note_on_c, 1, 51, 80
3, 113948, Note_off_c, 1, 51, 100
3, 113952, Note_on_c, 1, 58, 80
3, 113996, Note_off_c, 1, 58, 100
3, 114000, Note_on_c, 1, 51, 80
3, 114044, Note_off_c, 1, 51, 100
3, 114044, Control_c, 1, 64, 0
3, 114048, Control_c, 1, 64, 127
3, 114048, Note_on_c, 1, 49, 80
3, 114092, Note_off_c, 1, 49, 100
3, 114096, Note_on_c, 1, 51, 80
3, 114140, Note_off_c, 1, 51, 100
3, 114144, Note_on_c, 1, 58, 80
3, 114188, Note_off_c, 1, 58, 100
3, 114192, Note_on_c, 1, 51, 80
3, 114236, Note_off_c, 1, 51, 100
3, 114236, Control_c, 1, 64, 0
3, 114240, Control_c, 1, 64, 127
3, 114240, Note_on_c, 1, 48, 80
3, 114284, Note_off_c, 1, 48, 100
3, 114288, Note_on_c, 1, 51, 80
3, 114332, Note_off_c, 1, 51, 100
3, 114336, Note_on_c, 1, 56, 80
3, 114380, Note_off_c, 1, 56, 100
3, 114384, Note_on_c, 1, 51, 80
3, 114428, Note_off_c, 1, 51, 100
3, 114428, Control_c, 1, 64, 0
3, 114432, Control_c, 1, 64, 127
3, 114432, Note_on_c, 1, 48, 80
3, 114476, Note_off_c, 1, 48, 100
3, 114480, Note_on_c, 1, 51, 80
3, 114524, Note_off_c, 1, 51, 100
3, 114528, Note_on_c, 1, 56, 80
3, 114572, Note_off_c, 1, 56, 100
3, 114576, Note_on_c, 1, 51, 80
3, 114620, Note_off_c, 1, 51, 100
3, 114620, Control_c, 1, 64, 0
3, 114624, Control_c, 1, 64, 127
3, 114624, Note_on_c, 1, 43, 80
3, 114668, Note_off_c, 1, 43, 100
3, 114672, Note_on_c, 1, 51, 80
3, 114716, Note_off_c, 1, 51, 100
3, 114720, Note_on_c, 1, 55, 80
3, 114764, Note_off_c, 1, 55, 100
3, 114768, Note_on_c, 1, 51, 80
3, 114812, Note_off_c, 1, 51, 100
3, 114812, Control_c, 1, 64, 0
3, 114816, Control_c, 1, 64, 127
3, 114816, Note_on_c, 1, 44, 80
3, 114860, Note_off_c, 1, 44, 100
3, 114864, Note_on_c, 1, 51, 80
3, 114908, Note_off_c, 1, 51, 100
3, 114912, Note_on_c, 1, 56, 80
3, 114956, Note_off_c, 1, 56, 100
3, 114960, Note_on_c, 1, 51, 80
3, 115004, Note_off_c, 1, 51, 100
3, 115004, Control_c, 1, 64, 0
3, 115008, Control_c, 1, 64, 127
3, 115008, Note_on_c, 1, 39, 80
3, 115052, Note_off_c, 1, 39, 100
3, 115056, Note_on_c, 1, 51, 80
3, 115100, Note_off_c, 1, 51, 100
3, 115104, Note_on_c, 1, 55, 80
3, 115148, Note_off_c, 1, 55, 100
3, 115152, Note_on_c, 1, 51, 80
3, 115196, Note_off_c, 1, 51, 100
3, 115196, Control_c, 1, 64, 0
3, 115200, Control_c, 1, 64, 127
3, 115200, Note_on_c, 1, 42, 80
3, 115244, Note_off_c, 1, 42, 100
3, 115248, Note_on_c, 1, 51, 80
3, 115292, Note_off_c, 1, 51, 100
3, 115296, Note_on_c, 1, 54, 80
3, 115340, Note_off_c, 1, 54, 100
3, 115344, Note_on_c, 1, 51, 80
3, 115388, Note_off_c, 1, 51, 100
3, 115388, Control_c, 1, 64, 0
3, 115392, Control_c, 1, 64, 127
3, 115392, Note_on_c, 1, 41, 80
3, 115436, Note_off_c, 1, 41, 100
3, 115440, Note_on_c, 1, 53, 80
3, 115484, Note_off_c, 1, 53, 100
3, 115488, Note_on_c, 1, 56, 80
3, 115532, Note_off_c, 1, 56, 100
3, 115536, Note_on_c, 1, 60, 80
3, 115580, Note_off_c, 1, 60, 100
3, 115580, Control_c, 1, 64, 0
3, 115584, Control_c, 1, 64, 127
3, 115584, Note_on_c, 1, 53, 80
3, 115628, Note_off_c, 1, 53, 100
3, 115632, Note_on_c, 1, 56, 80
3, 115676, Note_off_c, 1, 56, 100
3, 115680, Note_on_c, 1, 61, 80
3, 115724, Note_off_c, 1, 61, 100
3, 115728, Note_on_c, 1, 56, 80
3, 115772, Note_off_c, 1, 56, 100
3, 115772, Control_c, 1, 64, 0
3, 115776, Control_c, 1, 64, 127
3, 115776, Note_on_c, 1, 51, 80
3, 115820, Note_off_c, 1, 51, 100
3, 115824, Note_on_c, 1, 56, 80
3, 115868, Note_off_c, 1, 56, 100
3, 115872, Note_on_c, 1, 60, 80
3, 115916, Note_off_c, 1, 60, 100
3, 115920, Note_on_c, 1, 56, 80
3, 115964, Note_off_c, 1, 56, 100
3, 115964, Control_c, 1, 64, 0
3, 115968, Control_c, 1, 64, 127
3, 115968, Note_on_c, 1, 50, 80
3, 116012, Note_off_c, 1, 50, 100
3, 116016, Note_on_c, 1, 53, 80
3, 116060, Note_off_c, 1, 53, 100
3, 116064, Note_on_c, 1, 58, 80
3, 116108, Note_off_c, 1, 58, 100
3, 116112, Note_on_c, 1, 53, 80
3, 116156, Note_off_c, 1, 53, 100
3, 116156, Control_c, 1, 64, 0
3, 116160, Control_c, 1, 64, 127
3, 116160, Note_on_c, 1, 49, 80
3, 116204, Note_off_c, 1, 49, 100
3, 116208, Note_on_c, 1, 51, 80
3, 116252, Note_off_c, 1, 51, 100
3, 116256, Note_on_c, 1, 58, 80
3, 116300, Note_off_c, 1, 58, 100
3, 116304, Note_on_c, 1, 51, 80
3, 116348, Note_off_c, 1, 51, 100
3, 116348, Control_c, 1, 64, 0
3, 116352, Control_c, 1, 64, 127
3, 116352, Note_on_c, 1, 48, 80
3, 116396, Note_off_c, 1, 48, 100
3, 116400, Note_on_c, 1, 51, 80
3, 116444, Note_off_c, 1, 51, 100
3, 116448, Note_on_c, 1, 56, 80
3, 116492, Note_off_c, 1, 56, 100
3, 116496, Note_on_c, 1, 51, 80
3, 116540, Note_off_c, 1, 51, 100
3, 116540, Control_c, 1, 64, 0
3, 116544, Control_c, 1, 64, 127
3, 116544, Note_on_c, 1, 39, 80
3, 116588, Note_off_c, 1, 39, 100
3, 116592, Note_on_c, 1, 48, 80
3, 116636, Note_off_c, 1, 48, 100
3, 116640, Note_on_c, 1, 51, 80
3, 116684, Note_off_c, 1, 51, 100
3, 116688, Note_on_c, 1, 56, 80
3, 116732, Note_off_c, 1, 56, 100
3, 116732, Control_c, 1, 64, 0
3, 116736, Control_c, 1, 64, 127
3, 116736, Note_on_c, 1, 39, 80
3, 116780, Note_off_c, 1, 39, 100
3, 116784, Note_on_c, 1, 48, 80
3, 116828, Note_off_c, 1, 48, 100
3, 116832, Note_on_c, 1, 51, 80
3, 116876, Note_off_c, 1, 51, 100
3, 116880, Note_on_c, 1, 56, 80
3, 116924, Note_off_c, 1, 56, 100
3, 116924, Control_c, 1, 64, 0
3, 116928, Control_c, 1, 64, 127
3, 116928, Note_on_c, 1, 39, 80
3, 116972, Note_off_c, 1, 39, 100
3, 116976, Note_on_c, 1, 49, 80
3, 117020, Note_off_c, 1, 49, 100
3, 117024, Note_on_c, 1, 51, 80
3, 117068, Note_off_c, 1, 51, 100
3, 117072, Note_on_c, 1, 55, 80
3, 117116, Note_off_c, 1, 55, 100
3, 117116, Control_c, 1, 64, 0
3, 117120, Note_on_c, 1, 56, 80
3, 117120, Note_on_c, 1, 51, 80
3, 117120, Note_on_c, 1, 48, 80
3, 117120, Note_on_c, 1, 44, 80
3, 117308, Note_off_c, 1, 56, 100
3, 117308, Note_off_c, 1, 51, 100
3, 117308, Note_off_c, 1, 48, 100
3, 117308, Note_off_c, 1, 44, 100
3, 117888, Note_on_c, 1, 51, 80
3, 117888, Note_on_c, 1, 39, 80
3, 118076, Note_off_c, 1, 51, 100
3, 118076, Note_off_c, 1, 39, 100
3, 118080, Note_on_c, 1, 56, 80
3, 118080, Note_on_c, 1, 44, 80
3, 118268, Note_off_c, 1, 56, 100
3, 118268, Note_off_c, 1, 44, 100
3, 118464, Note_on_c, 1, 51, 80
3, 118464, Note_on_c, 1, 39, 80
3, 118652, Note_off_c, 1, 51, 100
3, 118652, Note_off_c, 1, 39, 100
3, 118656, Note_on_c, 1, 46, 80
3, 118656, Note_on_c, 1, 58, 80
3, 118844, Note_off_c, 1, 46, 100
3, 118844, Note_off_c, 1, 58, 100
3, 119040, Note_on_c, 1, 51, 80
3, 119040, Note_on_c, 1, 39, 80
3, 119228, Note_off_c, 1, 51, 100
3, 119228, Note_off_c, 1, 39, 100
3, 119232, Note_on_c, 1, 43, 80
3, 119232, Note_on_c, 1, 55, 80
3, 119420, Note_off_c, 1, 43, 100
3, 119420, Note_off_c, 1, 55, 100
3, 119616, Note_on_c, 1, 51, 80
3, 119616, Note_on_c, 1, 39, 80
3, 119804, Note_off_c, 1, 51, 100
3, 119804, Note_off_c, 1, 39, 100
3, 119808, Note_on_c, 1, 56, 80
3, 119808, Note_on_c, 1, 44, 80
3, 119996, Note_off_c, 1, 56, 100
3, 119996, Note_off_c, 1, 44, 100
3, 120192, Note_on_c, 1, 51, 80
3, 120192, Note_on_c, 1, 39, 80
3, 120380, Note_off_c, 1, 51, 100
3, 120380, Note_off_c, 1, 39, 100
3, 120384, Note_on_c, 1, 56, 80
3, 120384, Note_on_c, 1, 44, 80
3, 120572, Note_off_c, 1, 56, 100
3, 120572, Note_off_c, 1, 44, 100
3, 120768, Note_on_c, 1, 51, 80
3, 120768, Note_on_c, 1, 39, 80
3, 120956, Note_off_c, 1, 51, 100
3, 120956, Note_off_c, 1, 39, 100
3, 120960, Note_on_c, 1, 46, 80
3, 120960, Note_on_c, 1, 58, 80
3, 121148, Note_off_c, 1, 46, 100
3, 121148, Note_off_c, 1, 58, 100
3, 121344, Note_on_c, 1, 51, 80
3, 121344, Note_on_c, 1, 39, 80
3, 121532, Note_off_c, 1, 51, 100
3, 121532, Note_off_c, 1, 39, 100
3, 121536, Note_on_c, 1, 43, 80
3, 121536, Note_on_c, 1, 55, 80
3, 121724, Note_off_c, 1, 43, 100
3, 121724, Note_off_c, 1, 55, 100
3, 121920, Note_on_c, 1, 51, 80
3, 122108, Note_off_c, 1, 51, 100
3, 122112, Note_on_c, 1, 56, 80
3, 122300, Note_off_c, 1, 56, 100
3, 122496, Note_on_c, 1, 39, 70
3, 122684, Note_off_c, 1, 39, 100
3, 122688, Note_on_c, 1, 43, 69
3, 122876, Note_off_c, 1, 43, 100
3, 123072, Note_on_c, 1, 51, 67
3, 123260, Note_off_c, 1, 51, 100
3, 123264, Note_on_c, 1, 56, 66
3, 123452, Note_off_c, 1, 56, 100
3, 123648, Note_on_c, 1, 39, 65
3, 123836, Note_off_c, 1, 39, 100
3, 123840, Note_on_c, 1, 43, 65
3, 124028, Note_off_c, 1, 43, 100
3, 124224, Note_on_c, 1, 44, 65
3, 124416, Note_on_c, 1, 39, 65
3, 124608, Note_on_c, 1, 36, 65
3, 124796, Note_off_c, 1, 39, 100
3, 124796, Note_off_c, 1, 44, 100
3, 124800, Note_on_c, 1, 39, 65
3, 124800, Note_on_c, 1, 44, 65
3, 124988, Note_off_c, 1, 36, 100
3, 124988, Note_off_c, 1, 44, 100
3, 124992, Note_on_c, 1, 44, 65
3, 124992, Note_on_c, 1, 36, 65
3, 125180, Note_off_c, 1, 39, 100
3, 125180, Note_off_c, 1, 44, 100
3, 125184, Note_on_c, 1, 44, 65
3, 125184, Note_on_c, 1, 32, 65
3, 126140, Note_off_c, 1, 32, 100
3, 126140, Note_off_c, 1, 36, 100
3, 126140, Note_off_c, 1, 44, 100
3, 126140, End_track
0, 0, End_of_file
