0, 0, Header, 1, 3, 384
1, 0, Start_track
1, 0, Title_t, "L.v.Beethoven 3mov - Piano Sonata No.12 in Ab Major Op.26\000"
1, 0, Copyright_t, "Copyright(C) 1995-2009, Suzuki Software\000"
1, 0, Sequencer_specific, 9, 67, 123, 0, 88, 70, 48, 50, 0, 1
1, 0, Text_t, "XFhd:2000/05/28:JP:Classical::::L.v.Beethoven:::Kaoru Suzuki\000"
1, 0, Text_t, "XFln:JP:\203s\203A\203m\203\\\203i\203^\221æ12\224Ô\225Ï\203C\222·\222²\215ì\225i26\201`\221æ3\212y\217Í:L.v.\203x\201[\203g\201[\203\224\203F\203\223:::\227é\202¿\202á\202ñ:\227é\202¿\202á\202ñ\000"
1, 0, Time_signature, 1, 2, 96, 8
1, 0, Sequencer_specific, 3, 0, 0, 65
1, 0, Sequencer_specific, 5, 0, 0, 119, 14, 0
1, 0, Tempo, 666666
1, 384, Time_signature, 4, 2, 96, 8
1, 4992, Tempo, 705882
1, 5760, Tempo, 750000
1, 6336, Tempo, 666666
1, 11136, Tempo, 705882
1, 11904, Tempo, 750000
1, 12480, Tempo, 666666
1, 17280, Tempo, 705882
1, 18048, Tempo, 750000
1, 18624, Tempo, 666666
1, 23424, Tempo, 705882
1, 24192, Tempo, 750000
1, 24768, Tempo, 666666
1, 35712, Tempo, 705882
1, 36480, Tempo, 750000
1, 36864, Tempo, 666666
1, 44544, Tempo, 705882
1, 44928, Tempo, 750000
1, 46464, Tempo, 666666
1, 69888, Tempo, 750000
1, 70272, Tempo, 1500000
1, 70656, Tempo, 750000
1, 71040, Tempo, 666666
1, 75648, Tempo, 705882
1, 76416, Tempo, 750000
1, 76800, Tempo, 666666
1, 81792, Tempo, 705882
1, 82560, Tempo, 857142
1, 83136, Tempo, 666666
1, 87936, Tempo, 705882
1, 88704, Tempo, 750000
1, 89088, Tempo, 666666
1, 94080, Tempo, 705882
1, 94848, Tempo, 857142
1, 95232, Tempo, 666666
1, 106368, Tempo, 705882
1, 107136, Tempo, 750000
1, 107712, Tempo, 666666
1, 116736, Tempo, 705882
1, 118656, Tempo, 731707
1, 121728, Tempo, 750000
1, 123264, Tempo, 779220
1, 124032, Tempo, 821917
1, 124800, Tempo, 857142
1, 125952, Tempo, 1200000
1, 125952, End_track
2, 0, Start_track
2, 0, Title_t, "Right"
2, 0, Control_c, 0, 0, 0
2, 0, Program_c, 0, 0
2, 0, Control_c, 0, 7, 100
2, 0, Control_c, 0, 10, 75
2, 0, Control_c, 0, 91, 127
2, 0, Key_signature, -7, "minor"
2, 0, Note_on_c, 0, 51, 80
2, 0, Note_on_c, 0, 63, 80
2, 284, Note_off_c, 0, 51, 100
2, 284, Note_off_c, 0, 63, 100
2, 288, Note_on_c, 0, 63, 80
2, 288, Note_on_c, 0, 51, 80
2, 380, Note_off_c, 0, 63, 100
2, 380, Note_off_c, 0, 51, 100
2, 384, Note_on_c, 0, 63, 80
2, 384, Note_on_c, 0, 59, 80
2, 384, Note_on_c, 0, 56, 80
2, 384, Note_on_c, 0, 51, 80
2, 764, Note_off_c, 0, 63, 100
2, 764, Note_off_c, 0, 59, 100
2, 764, Note_off_c, 0, 56, 100
2, 764, Note_off_c, 0, 51, 100
2, 768, Note_on_c, 0, 63, 80
2, 768, Note_on_c, 0, 59, 80
2, 768, Note_on_c, 0, 56, 80
2, 768, Note_on_c, 0, 51, 80
2, 1052, Note_off_c, 0, 63, 100
2, 1052, Note_off_c, 0, 59, 100
2, 1052, Note_off_c, 0, 56, 100
2, 1052, Note_off_c, 0, 51, 100
2, 1056, Note_on_c, 0, 63, 80
2, 1056, Note_on_c, 0, 59, 80
2, 1056, Note_on_c, 0, 56, 80
2, 1056, Note_on_c, 0, 51, 80
2, 1148, Note_off_c, 0, 63, 100
2, 1148, Note_off_c, 0, 59, 100
2, 1148, Note_off_c, 0, 56, 100
2, 1148, Note_off_c, 0, 51, 100
2, 1152, Note_on_c, 0, 63, 80
2, 1152, Note_on_c, 0, 59, 80
2, 1152, Note_on_c, 0, 56, 80
2, 1152, Note_on_c, 0, 51, 80
2, 1436, Note_off_c, 0, 63, 100
2, 1436, Note_off_c, 0, 59, 100
2, 1436, Note_off_c, 0, 56, 100
2, 1436, Note_off_c, 0, 51, 100
2, 1440, Note_on_c, 0, 63, 80
2, 1440, Note_on_c, 0, 59, 80
2, 1440, Note_on_c, 0, 56, 80
2, 1440, Note_on_c, 0, 51, 80
2, 1532, Note_off_c, 0, 63, 100
2, 1532, Note_off_c, 0, 59, 100
2, 1532, Note_off_c, 0, 56, 100
2, 1532, Note_off_c, 0, 51, 100
2, 1536, Note_on_c, 0, 63, 80
2, 1536, Note_on_c, 0, 58, 80
2, 1536, Note_on_c, 0, 55, 80
2, 1536, Note_on_c, 0, 51, 80
2, 1820, Note_off_c, 0, 63, 100
2, 1820, Note_off_c, 0, 58, 100
2, 1820, Note_off_c, 0, 55, 100
2, 1820, Note_off_c, 0, 51, 100
2, 1824, Note_on_c, 0, 63, 80
2, 1824, Note_on_c, 0, 59, 80
2, 1824, Note_on_c, 0, 56, 80
2, 1824, Note_on_c, 0, 51, 80
2, 1916, Note_off_c, 0, 63, 100
2, 1916, Note_off_c, 0, 59, 100
2, 1916, Note_off_c, 0, 56, 100
2, 1916, Note_off_c, 0, 51, 100
2, 1920, Note_on_c, 0, 63, 80
2, 1920, Note_on_c, 0, 61, 80
2, 1920, Note_on_c, 0, 58, 80
2, 1920, Note_on_c, 0, 51, 80
2, 3068, Note_off_c, 0, 63, 100
2, 3068, Note_off_c, 0, 61, 100
2, 3068, Note_off_c, 0, 58, 100
2, 3068, Note_off_c, 0, 51, 100
2, 3072, Note_on_c, 0, 63, 80
2, 3072, Note_on_c, 0, 58, 80
2, 3072, Note_on_c, 0, 55, 80
2, 3356, Note_off_c, 0, 63, 100
2, 3356, Note_off_c, 0, 58, 100
2, 3356, Note_off_c, 0, 55, 100
2, 3360, Note_on_c, 0, 63, 80
2, 3360, Note_on_c, 0, 58, 80
2, 3360, Note_on_c, 0, 55, 80
2, 3452, Note_off_c, 0, 63, 100
2, 3452, Note_off_c, 0, 58, 100
2, 3452, Note_off_c, 0, 55, 100
2, 3456, Note_on_c, 0, 63, 80
2, 3456, Note_on_c, 0, 59, 80
2, 3456, Note_on_c, 0, 56, 80
2, 3836, Note_off_c, 0, 63, 100
2, 3836, Note_off_c, 0, 59, 100
2, 3836, Note_off_c, 0, 56, 100
2, 3840, Note_on_c, 0, 63, 80
2, 3840, Note_on_c, 0, 59, 80
2, 3840, Note_on_c, 0, 56, 80
2, 4124, Note_off_c, 0, 63, 100
2, 4124, Note_off_c, 0, 59, 100
2, 4124, Note_off_c, 0, 56, 100
2, 4128, Note_on_c, 0, 59, 80
2, 4128, Note_on_c, 0, 56, 80
2, 4128, Note_on_c, 0, 63, 80
2, 4220, Note_off_c, 0, 59, 100
2, 4220, Note_off_c, 0, 56, 100
2, 4220, Note_off_c, 0, 63, 100
2, 4224, Note_on_c, 0, 63, 80
2, 4224, Note_on_c, 0, 61, 80
2, 4224, Note_on_c, 0, 58, 80
2, 4604, Note_off_c, 0, 63, 100
2, 4604, Note_off_c, 0, 61, 100
2, 4604, Note_off_c, 0, 58, 100
2, 4608, Note_on_c, 0, 63, 80
2, 4608, Note_on_c, 0, 59, 80
2, 4608, Note_on_c, 0, 56, 80
2, 4892, Note_off_c, 0, 63, 100
2, 4892, Note_off_c, 0, 59, 100
2, 4892, Note_off_c, 0, 56, 100
2, 4896, Note_on_c, 0, 59, 80
2, 4896, Note_on_c, 0, 56, 80
2, 4896, Note_on_c, 0, 63, 80
2, 4988, Note_off_c, 0, 59, 100
2, 4988, Note_off_c, 0, 56, 100
2, 4988, Note_off_c, 0, 63, 100
2, 4992, Note_on_c, 0, 63, 80
2, 4992, Note_on_c, 0, 58, 80
2, 4992, Note_on_c, 0, 55, 80
2, 5372, Note_off_c, 0, 63, 100
2, 5372, Note_off_c, 0, 58, 100
2, 5372, Note_off_c, 0, 55, 100
2, 5376, Note_on_c, 0, 63, 80
2, 5376, Note_on_c, 0, 58, 80
2, 5376, Note_on_c, 0, 55, 80
2, 5756, Note_off_c, 0, 63, 100
2, 5756, Note_off_c, 0, 58, 100
2, 5756, Note_off_c, 0, 55, 100
2, 5760, Note_on_c, 0, 63, 80
2, 5760, Note_on_c, 0, 58, 80
2, 5760, Note_on_c, 0, 55, 80
2, 6140, Note_off_c, 0, 63, 100
2, 6140, Note_off_c, 0, 58, 100
2, 6140, Note_off_c, 0, 55, 100
2, 6144, Note_on_c, 0, 51, 80
2, 6144, Note_on_c, 0, 63, 80
2, 6428, Note_off_c, 0, 51, 100
2, 6428, Note_off_c, 0, 63, 100
2, 6432, Note_on_c, 0, 63, 80
2, 6432, Note_on_c, 0, 51, 80
2, 6524, Note_off_c, 0, 63, 100
2, 6524, Note_off_c, 0, 51, 100
2, 6528, Note_on_c, 0, 63, 80
2, 6528, Note_on_c, 0, 59, 80
2, 6528, Note_on_c, 0, 56, 80
2, 6528, Note_on_c, 0, 51, 80
2, 6908, Note_off_c, 0, 63, 100
2, 6908, Note_off_c, 0, 59, 100
2, 6908, Note_off_c, 0, 56, 100
2, 6908, Note_off_c, 0, 51, 100
2, 6912, Note_on_c, 0, 63, 80
2, 6912, Note_on_c, 0, 59, 80
2, 6912, Note_on_c, 0, 56, 80
2, 6912, Note_on_c, 0, 51, 80
2, 7196, Note_off_c, 0, 63, 100
2, 7196, Note_off_c, 0, 59, 100
2, 7196, Note_off_c, 0, 56, 100
2, 7196, Note_off_c, 0, 51, 100
2, 7200, Note_on_c, 0, 63, 84
2, 7200, Note_on_c, 0, 59, 84
2, 7200, Note_on_c, 0, 56, 84
2, 7200, Note_on_c, 0, 51, 84
2, 7292, Note_off_c, 0, 63, 100
2, 7292, Note_off_c, 0, 59, 100
2, 7292, Note_off_c, 0, 56, 100
2, 7292, Note_off_c, 0, 51, 100
2, 7296, Note_on_c, 0, 63, 86
2, 7296, Note_on_c, 0, 59, 86
2, 7296, Note_on_c, 0, 56, 86
2, 7296, Note_on_c, 0, 51, 86
2, 7580, Note_off_c, 0, 63, 100
2, 7580, Note_off_c, 0, 59, 100
2, 7580, Note_off_c, 0, 56, 100
2, 7580, Note_off_c, 0, 51, 100
2, 7584, Note_on_c, 0, 63, 91
2, 7584, Note_on_c, 0, 59, 91
2, 7584, Note_on_c, 0, 56, 91
2, 7584, Note_on_c, 0, 51, 91
2, 7676, Note_off_c, 0, 63, 100
2, 7676, Note_off_c, 0, 59, 100
2, 7676, Note_off_c, 0, 56, 100
2, 7676, Note_off_c, 0, 51, 100
2, 7680, Note_on_c, 0, 63, 93
2, 7680, Note_on_c, 0, 58, 93
2, 7680, Note_on_c, 0, 54, 93
2, 7680, Note_on_c, 0, 51, 93
2, 7964, Note_off_c, 0, 63, 100
2, 7964, Note_off_c, 0, 58, 100
2, 7964, Note_off_c, 0, 54, 100
2, 7964, Note_off_c, 0, 51, 100
2, 7968, Note_on_c, 0, 63, 98
2, 7968, Note_on_c, 0, 56, 98
2, 7968, Note_on_c, 0, 51, 98
2, 7968, Note_on_c, 0, 53, 98
2, 8060, Note_off_c, 0, 63, 100
2, 8060, Note_off_c, 0, 56, 100
2, 8060, Note_off_c, 0, 51, 100
2, 8060, Note_off_c, 0, 53, 100
2, 8064, Note_on_c, 0, 63, 99
2, 8064, Note_on_c, 0, 58, 99
2, 8064, Note_on_c, 0, 54, 99
2, 8064, Note_on_c, 0, 51, 99
2, 9212, Note_off_c, 0, 63, 100
2, 9212, Note_off_c, 0, 58, 100
2, 9212, Note_off_c, 0, 54, 100
2, 9212, Note_off_c, 0, 51, 100
2, 9216, Note_on_c, 0, 59, 80
2, 9216, Note_on_c, 0, 63, 80
2, 9216, Note_on_c, 0, 54, 80
2, 9500, Note_off_c, 0, 59, 100
2, 9500, Note_off_c, 0, 63, 100
2, 9500, Note_off_c, 0, 54, 100
2, 9504, Note_on_c, 0, 63, 80
2, 9504, Note_on_c, 0, 59, 80
2, 9504, Note_on_c, 0, 54, 80
2, 9596, Note_off_c, 0, 63, 100
2, 9596, Note_off_c, 0, 59, 100
2, 9596, Note_off_c, 0, 54, 100
2, 9600, Note_on_c, 0, 63, 80
2, 9600, Note_on_c, 0, 59, 80
2, 9600, Note_on_c, 0, 56, 80
2, 9980, Note_off_c, 0, 63, 100
2, 9980, Note_off_c, 0, 59, 100
2, 9980, Note_off_c, 0, 56, 100
2, 9984, Note_on_c, 0, 61, 80
2, 9984, Note_on_c, 0, 59, 80
2, 9984, Note_on_c, 0, 56, 80
2, 10268, Note_off_c, 0, 61, 100
2, 10268, Note_off_c, 0, 59, 100
2, 10268, Note_off_c, 0, 56, 100
2, 10272, Note_on_c, 0, 61, 80
2, 10272, Note_on_c, 0, 59, 80
2, 10272, Note_on_c, 0, 56, 80
2, 10364, Note_off_c, 0, 61, 100
2, 10364, Note_off_c, 0, 59, 100
2, 10364, Note_off_c, 0, 56, 100
2, 10368, Note_on_c, 0, 61, 80
2, 10368, Note_on_c, 0, 59, 80
2, 10368, Note_on_c, 0, 54, 80
2, 10748, Note_off_c, 0, 61, 100
2, 10748, Note_off_c, 0, 59, 100
2, 10748, Note_off_c, 0, 54, 100
2, 10752, Note_on_c, 0, 61, 80
2, 10752, Note_on_c, 0, 58, 80
2, 10752, Note_on_c, 0, 54, 80
2, 10752, Note_on_c, 0, 52, 80
2, 11036, Note_off_c, 0, 61, 100
2, 11036, Note_off_c, 0, 58, 100
2, 11036, Note_off_c, 0, 54, 100
2, 11036, Note_off_c, 0, 52, 100
2, 11040, Note_on_c, 0, 61, 80
2, 11040, Note_on_c, 0, 58, 80
2, 11040, Note_on_c, 0, 54, 80
2, 11040, Note_on_c, 0, 52, 80
2, 11132, Note_off_c, 0, 61, 100
2, 11132, Note_off_c, 0, 58, 100
2, 11132, Note_off_c, 0, 54, 100
2, 11132, Note_off_c, 0, 52, 100
2, 11136, Note_on_c, 0, 59, 80
2, 11136, Note_on_c, 0, 51, 80
2, 11136, Note_on_c, 0, 47, 80
2, 11516, Note_off_c, 0, 59, 100
2, 11516, Note_off_c, 0, 51, 100
2, 11516, Note_off_c, 0, 47, 100
2, 11520, Note_on_c, 0, 59, 80
2, 11520, Note_on_c, 0, 51, 80
2, 11520, Note_on_c, 0, 47, 80
2, 11900, Note_off_c, 0, 59, 100
2, 11900, Note_off_c, 0, 51, 100
2, 11900, Note_off_c, 0, 47, 100
2, 11904, Note_on_c, 0, 59, 80
2, 11904, Note_on_c, 0, 51, 80
2, 11904, Note_on_c, 0, 47, 80
2, 12284, Note_off_c, 0, 59, 100
2, 12284, Note_off_c, 0, 51, 100
2, 12284, Note_off_c, 0, 47, 100
2, 12288, Note_on_c, 0, 66, 80
2, 12288, Note_on_c, 0, 54, 80
2, 12572, Note_off_c, 0, 66, 100
2, 12572, Note_off_c, 0, 54, 100
2, 12576, Note_on_c, 0, 54, 80
2, 12576, Note_on_c, 0, 66, 80
2, 12668, Note_off_c, 0, 54, 100
2, 12668, Note_off_c, 0, 66, 100
2, 12672, Note_on_c, 0, 66, 80
2, 12672, Note_on_c, 0, 62, 80
2, 12672, Note_on_c, 0, 59, 80
2, 12672, Note_on_c, 0, 54, 80
2, 13052, Note_off_c, 0, 66, 100
2, 13052, Note_off_c, 0, 62, 100
2, 13052, Note_off_c, 0, 59, 100
2, 13052, Note_off_c, 0, 54, 100
2, 13056, Note_on_c, 0, 66, 80
2, 13056, Note_on_c, 0, 62, 80
2, 13056, Note_on_c, 0, 59, 80
2, 13056, Note_on_c, 0, 54, 80
2, 13340, Note_off_c, 0, 66, 100
2, 13340, Note_off_c, 0, 62, 100
2, 13340, Note_off_c, 0, 59, 100
2, 13340, Note_off_c, 0, 54, 100
2, 13344, Note_on_c, 0, 66, 84
2, 13344, Note_on_c, 0, 62, 84
2, 13344, Note_on_c, 0, 59, 84
2, 13344, Note_on_c, 0, 54, 84
2, 13436, Note_off_c, 0, 66, 100
2, 13436, Note_off_c, 0, 62, 100
2, 13436, Note_off_c, 0, 59, 100
2, 13436, Note_off_c, 0, 54, 100
2, 13440, Note_on_c, 0, 66, 86
2, 13440, Note_on_c, 0, 62, 86
2, 13440, Note_on_c, 0, 59, 86
2, 13440, Note_on_c, 0, 54, 86
2, 13724, Note_off_c, 0, 66, 100
2, 13724, Note_off_c, 0, 62, 100
2, 13724, Note_off_c, 0, 59, 100
2, 13724, Note_off_c, 0, 54, 100
2, 13728, Note_on_c, 0, 66, 91
2, 13728, Note_on_c, 0, 62, 91
2, 13728, Note_on_c, 0, 59, 91
2, 13728, Note_on_c, 0, 54, 91
2, 13820, Note_off_c, 0, 66, 100
2, 13820, Note_off_c, 0, 62, 100
2, 13820, Note_off_c, 0, 59, 100
2, 13820, Note_off_c, 0, 54, 100
2, 13824, Note_on_c, 0, 66, 93
2, 13824, Note_on_c, 0, 61, 93
2, 13824, Note_on_c, 0, 58, 93
2, 13824, Note_on_c, 0, 54, 93
2, 14108, Note_off_c, 0, 66, 100
2, 14108, Note_off_c, 0, 61, 100
2, 14108, Note_off_c, 0, 58, 100
2, 14108, Note_off_c, 0, 54, 100
2, 14112, Note_on_c, 0, 66, 98
2, 14112, Note_on_c, 0, 62, 98
2, 14112, Note_on_c, 0, 59, 98
2, 14112, Note_on_c, 0, 54, 98
2, 14204, Note_off_c, 0, 66, 100
2, 14204, Note_off_c, 0, 62, 100
2, 14204, Note_off_c, 0, 59, 100
2, 14204, Note_off_c, 0, 54, 100
2, 14208, Note_on_c, 0, 66, 100
2, 14208, Note_on_c, 0, 64, 100
2, 14208, Note_on_c, 0, 61, 100
2, 14208, Note_on_c, 0, 54, 100
2, 15356, Note_off_c, 0, 66, 100
2, 15356, Note_off_c, 0, 64, 100
2, 15356, Note_off_c, 0, 61, 100
2, 15356, Note_off_c, 0, 54, 100
2, 15360, Note_on_c, 0, 66, 100
2, 15360, Note_on_c, 0, 61, 100
2, 15360, Note_on_c, 0, 58, 100
2, 15360, Note_on_c, 0, 54, 100
2, 15644, Note_off_c, 0, 66, 100
2, 15644, Note_off_c, 0, 61, 100
2, 15644, Note_off_c, 0, 58, 100
2, 15644, Note_off_c, 0, 54, 100
2, 15648, Note_on_c, 0, 66, 100
2, 15648, Note_on_c, 0, 61, 100
2, 15648, Note_on_c, 0, 58, 100
2, 15648, Note_on_c, 0, 54, 100
2, 15740, Note_off_c, 0, 66, 100
2, 15740, Note_off_c, 0, 61, 100
2, 15740, Note_off_c, 0, 58, 100
2, 15740, Note_off_c, 0, 54, 100
2, 15744, Note_on_c, 0, 66, 100
2, 15744, Note_on_c, 0, 62, 100
2, 15744, Note_on_c, 0, 59, 100
2, 15744, Note_on_c, 0, 54, 100
2, 16124, Note_off_c, 0, 66, 100
2, 16124, Note_off_c, 0, 62, 100
2, 16124, Note_off_c, 0, 59, 100
2, 16124, Note_off_c, 0, 54, 100
2, 16128, Note_on_c, 0, 66, 100
2, 16128, Note_on_c, 0, 62, 100
2, 16128, Note_on_c, 0, 59, 100
2, 16128, Note_on_c, 0, 54, 100
2, 16412, Note_off_c, 0, 66, 100
2, 16412, Note_off_c, 0, 62, 100
2, 16412, Note_off_c, 0, 59, 100
2, 16412, Note_off_c, 0, 54, 100
2, 16416, Note_on_c, 0, 66, 100
2, 16416, Note_on_c, 0, 62, 100
2, 16416, Note_on_c, 0, 59, 100
2, 16416, Note_on_c, 0, 54, 100
2, 16508, Note_off_c, 0, 66, 100
2, 16508, Note_off_c, 0, 62, 100
2, 16508, Note_off_c, 0, 59, 100
2, 16508, Note_off_c, 0, 54, 100
2, 16512, Note_on_c, 0, 66, 100
2, 16512, Note_on_c, 0, 64, 100
2, 16512, Note_on_c, 0, 61, 100
2, 16512, Note_on_c, 0, 54, 100
2, 16892, Note_off_c, 0, 66, 100
2, 16892, Note_off_c, 0, 64, 100
2, 16892, Note_off_c, 0, 61, 100
2, 16892, Note_off_c, 0, 54, 100
2, 16896, Note_on_c, 0, 66, 100
2, 16896, Note_on_c, 0, 62, 100
2, 16896, Note_on_c, 0, 59, 100
2, 16896, Note_on_c, 0, 54, 100
2, 17180, Note_off_c, 0, 66, 100
2, 17180, Note_off_c, 0, 62, 100
2, 17180, Note_off_c, 0, 59, 100
2, 17180, Note_off_c, 0, 54, 100
2, 17184, Note_on_c, 0, 66, 100
2, 17184, Note_on_c, 0, 62, 100
2, 17184, Note_on_c, 0, 59, 100
2, 17184, Note_on_c, 0, 54, 100
2, 17276, Note_off_c, 0, 66, 100
2, 17276, Note_off_c, 0, 62, 100
2, 17276, Note_off_c, 0, 59, 100
2, 17276, Note_off_c, 0, 54, 100
2, 17280, Note_on_c, 0, 66, 100
2, 17280, Note_on_c, 0, 61, 100
2, 17280, Note_on_c, 0, 58, 100
2, 17280, Note_on_c, 0, 54, 100
2, 17660, Note_off_c, 0, 66, 100
2, 17660, Note_off_c, 0, 61, 100
2, 17660, Note_off_c, 0, 58, 100
2, 17660, Note_off_c, 0, 54, 100
2, 17664, Note_on_c, 0, 66, 100
2, 17664, Note_on_c, 0, 61, 100
2, 17664, Note_on_c, 0, 58, 100
2, 17664, Note_on_c, 0, 54, 100
2, 18044, Note_off_c, 0, 66, 100
2, 18044, Note_off_c, 0, 61, 100
2, 18044, Note_off_c, 0, 58, 100
2, 18044, Note_off_c, 0, 54, 100
2, 18048, Note_on_c, 0, 66, 100
2, 18048, Note_on_c, 0, 61, 100
2, 18048, Note_on_c, 0, 58, 100
2, 18048, Note_on_c, 0, 54, 100
2, 18428, Note_off_c, 0, 66, 100
2, 18428, Note_off_c, 0, 61, 100
2, 18428, Note_off_c, 0, 58, 100
2, 18428, Note_off_c, 0, 54, 100
2, 18432, Note_on_c, 0, 66, 80
2, 18432, Note_on_c, 0, 54, 80
2, 18716, Note_off_c, 0, 66, 100
2, 18716, Note_off_c, 0, 54, 100
2, 18720, Note_on_c, 0, 66, 80
2, 18720, Note_on_c, 0, 54, 80
2, 18812, Note_off_c, 0, 66, 100
2, 18812, Note_off_c, 0, 54, 100
2, 18816, Note_on_c, 0, 66, 80
2, 18816, Note_on_c, 0, 62, 80
2, 18816, Note_on_c, 0, 59, 80
2, 18816, Note_on_c, 0, 54, 80
2, 19196, Note_off_c, 0, 66, 100
2, 19196, Note_off_c, 0, 62, 100
2, 19196, Note_off_c, 0, 59, 100
2, 19196, Note_off_c, 0, 54, 100
2, 19200, Note_on_c, 0, 66, 80
2, 19200, Note_on_c, 0, 62, 80
2, 19200, Note_on_c, 0, 59, 80
2, 19200, Note_on_c, 0, 54, 80
2, 19484, Note_off_c, 0, 66, 100
2, 19484, Note_off_c, 0, 62, 100
2, 19484, Note_off_c, 0, 59, 100
2, 19484, Note_off_c, 0, 54, 100
2, 19488, Note_on_c, 0, 66, 80
2, 19488, Note_on_c, 0, 62, 80
2, 19488, Note_on_c, 0, 59, 80
2, 19488, Note_on_c, 0, 54, 80
2, 19580, Note_off_c, 0, 66, 100
2, 19580, Note_off_c, 0, 62, 100
2, 19580, Note_off_c, 0, 59, 100
2, 19580, Note_off_c, 0, 54, 100
2, 19584, Note_on_c, 0, 66, 80
2, 19584, Note_on_c, 0, 62, 80
2, 19584, Note_on_c, 0, 59, 80
2, 19584, Note_on_c, 0, 54, 80
2, 19868, Note_off_c, 0, 66, 100
2, 19868, Note_off_c, 0, 62, 100
2, 19868, Note_off_c, 0, 59, 100
2, 19868, Note_off_c, 0, 54, 100
2, 19872, Note_on_c, 0, 66, 80
2, 19872, Note_on_c, 0, 62, 80
2, 19872, Note_on_c, 0, 59, 80
2, 19872, Note_on_c, 0, 54, 80
2, 19964, Note_off_c, 0, 66, 100
2, 19964, Note_off_c, 0, 62, 100
2, 19964, Note_off_c, 0, 59, 100
2, 19964, Note_off_c, 0, 54, 100
2, 19968, Note_on_c, 0, 64, 80
2, 19968, Note_on_c, 0, 61, 80
2, 19968, Note_on_c, 0, 59, 80
2, 19968, Note_on_c, 0, 52, 80
2, 20252, Note_off_c, 0, 64, 100
2, 20252, Note_off_c, 0, 61, 100
2, 20252, Note_off_c, 0, 59, 100
2, 20252, Note_off_c, 0, 52, 100
2, 20256, Note_on_c, 0, 66, 80
2, 20256, Note_on_c, 0, 62, 80
2, 20256, Note_on_c, 0, 59, 80
2, 20256, Note_on_c, 0, 54, 80
2, 20348, Note_off_c, 0, 66, 100
2, 20348, Note_off_c, 0, 62, 100
2, 20348, Note_off_c, 0, 59, 100
2, 20348, Note_off_c, 0, 54, 100
2, 20352, Note_on_c, 0, 67, 80
2, 20352, Note_on_c, 0, 64, 80
2, 20352, Note_on_c, 0, 59, 80
2, 20352, Note_on_c, 0, 55, 80
2, 21500, Note_off_c, 0, 67, 100
2, 21500, Note_off_c, 0, 64, 100
2, 21500, Note_off_c, 0, 59, 100
2, 21500, Note_off_c, 0, 55, 100
2, 21504, Note_on_c, 0, 67, 80
2, 21504, Note_on_c, 0, 64, 80
2, 21504, Note_on_c, 0, 59, 80
2, 21504, Note_on_c, 0, 55, 80
2, 21788, Note_off_c, 0, 67, 100
2, 21788, Note_off_c, 0, 64, 100
2, 21788, Note_off_c, 0, 59, 100
2, 21788, Note_off_c, 0, 55, 100
2, 21792, Note_on_c, 0, 67, 80
2, 21792, Note_on_c, 0, 64, 80
2, 21792, Note_on_c, 0, 59, 80
2, 21792, Note_on_c, 0, 55, 80
2, 21884, Note_off_c, 0, 67, 100
2, 21884, Note_off_c, 0, 64, 100
2, 21884, Note_off_c, 0, 59, 100
2, 21884, Note_off_c, 0, 55, 100
2, 21888, Note_on_c, 0, 66, 80
2, 21888, Note_on_c, 0, 62, 80
2, 21888, Note_on_c, 0, 57, 80
2, 22268, Note_off_c, 0, 66, 100
2, 22268, Note_off_c, 0, 62, 100
2, 22268, Note_off_c, 0, 57, 100
2, 22272, Note_on_c, 0, 66, 85
2, 22272, Note_on_c, 0, 62, 85
2, 22272, Note_on_c, 0, 57, 85
2, 22556, Note_off_c, 0, 66, 100
2, 22556, Note_off_c, 0, 62, 100
2, 22556, Note_off_c, 0, 57, 100
2, 22560, Note_on_c, 0, 66, 89
2, 22560, Note_on_c, 0, 62, 89
2, 22560, Note_on_c, 0, 57, 89
2, 22652, Note_off_c, 0, 66, 100
2, 22652, Note_off_c, 0, 62, 100
2, 22652, Note_off_c, 0, 57, 100
2, 22656, Note_on_c, 0, 64, 90
2, 22656, Note_on_c, 0, 61, 90
2, 22656, Note_on_c, 0, 57, 90
2, 23036, Note_off_c, 0, 64, 100
2, 23036, Note_off_c, 0, 61, 100
2, 23036, Note_off_c, 0, 57, 100
2, 23040, Note_on_c, 0, 69, 95
2, 23040, Note_on_c, 0, 64, 95
2, 23040, Note_on_c, 0, 61, 95
2, 23040, Note_on_c, 0, 57, 95
2, 23324, Note_off_c, 0, 69, 100
2, 23324, Note_off_c, 0, 64, 100
2, 23324, Note_off_c, 0, 61, 100
2, 23324, Note_off_c, 0, 57, 100
2, 23328, Note_on_c, 0, 69, 99
2, 23328, Note_on_c, 0, 64, 99
2, 23328, Note_on_c, 0, 61, 99
2, 23328, Note_on_c, 0, 57, 99
2, 23420, Note_off_c, 0, 69, 100
2, 23420, Note_off_c, 0, 64, 100
2, 23420, Note_off_c, 0, 61, 100
2, 23420, Note_off_c, 0, 57, 100
2, 23424, Note_on_c, 0, 62, 80
2, 23804, Note_off_c, 0, 62, 100
2, 23808, Note_on_c, 0, 62, 80
2, 24188, Note_off_c, 0, 62, 100
2, 24192, Note_on_c, 0, 62, 80
2, 24572, Note_off_c, 0, 62, 100
2, 24576, Note_on_c, 0, 71, 70
2, 24576, Note_on_c, 0, 65, 70
2, 24860, Note_off_c, 0, 71, 100
2, 24860, Note_off_c, 0, 65, 100
2, 24864, Note_on_c, 0, 71, 73
2, 24864, Note_on_c, 0, 65, 73
2, 24956, Note_off_c, 0, 71, 100
2, 24956, Note_off_c, 0, 65, 100
2, 24960, Note_on_c, 0, 71, 74
2, 24960, Note_on_c, 0, 65, 74
2, 25724, Note_off_c, 0, 71, 100
2, 25724, Note_off_c, 0, 65, 100
2, 25728, Note_on_c, 0, 70, 84
2, 25728, Note_on_c, 0, 65, 84
2, 26108, Note_off_c, 0, 70, 100
2, 26108, Note_off_c, 0, 65, 100
2, 26112, Note_on_c, 0, 68, 89
2, 26112, Note_on_c, 0, 65, 89
2, 26492, Note_off_c, 0, 68, 100
2, 26492, Note_off_c, 0, 65, 100
2, 26496, Note_on_c, 0, 67, 90
2, 26496, Note_on_c, 0, 63, 90
2, 26780, Note_off_c, 0, 67, 100
2, 26780, Note_off_c, 0, 63, 100
2, 26784, Note_on_c, 0, 71, 90
2, 26784, Note_on_c, 0, 65, 90
2, 26876, Note_off_c, 0, 71, 100
2, 26876, Note_off_c, 0, 65, 100
2, 26880, Note_on_c, 0, 71, 100
2, 26880, Note_on_c, 0, 65, 100
2, 27644, Note_off_c, 0, 71, 100
2, 27644, Note_off_c, 0, 65, 100
2, 27648, Note_on_c, 0, 70, 100
2, 27648, Note_on_c, 0, 65, 100
2, 27932, Note_off_c, 0, 70, 100
2, 27932, Note_off_c, 0, 65, 100
2, 27936, Note_on_c, 0, 68, 100
2, 27936, Note_on_c, 0, 65, 100
2, 28028, Note_off_c, 0, 68, 100
2, 28028, Note_off_c, 0, 65, 100
2, 28032, Note_on_c, 0, 67, 100
2, 28032, Note_on_c, 0, 63, 100
2, 28316, Note_off_c, 0, 67, 100
2, 28316, Note_off_c, 0, 63, 100
2, 28320, Note_on_c, 0, 71, 120
2, 28320, Note_on_c, 0, 65, 120
2, 28412, Note_off_c, 0, 71, 100
2, 28412, Note_off_c, 0, 65, 100
2, 28416, Note_on_c, 0, 71, 120
2, 28416, Note_on_c, 0, 65, 120
2, 28700, Note_off_c, 0, 71, 100
2, 28700, Note_off_c, 0, 65, 100
2, 28704, Note_on_c, 0, 71, 120
2, 28704, Note_on_c, 0, 65, 120
2, 28796, Note_off_c, 0, 71, 100
2, 28796, Note_off_c, 0, 65, 100
2, 28800, Note_on_c, 0, 71, 120
2, 28800, Note_on_c, 0, 65, 120
2, 29084, Note_off_c, 0, 71, 100
2, 29084, Note_off_c, 0, 65, 100
2, 29088, Note_on_c, 0, 71, 120
2, 29088, Note_on_c, 0, 65, 120
2, 29180, Note_off_c, 0, 71, 100
2, 29180, Note_off_c, 0, 65, 100
2, 29184, Note_on_c, 0, 70, 120
2, 29184, Note_on_c, 0, 65, 120
2, 29468, Note_off_c, 0, 70, 100
2, 29468, Note_off_c, 0, 65, 100
2, 29472, Note_on_c, 0, 68, 120
2, 29472, Note_on_c, 0, 65, 120
2, 29564, Note_off_c, 0, 68, 100
2, 29564, Note_off_c, 0, 65, 100
2, 29568, Note_on_c, 0, 67, 120
2, 29568, Note_on_c, 0, 63, 120
2, 29948, Note_off_c, 0, 67, 100
2, 29948, Note_off_c, 0, 63, 100
2, 29952, Note_on_c, 0, 64, 120
2, 30716, Note_off_c, 0, 64, 100
2, 30720, Note_on_c, 0, 63, 120
2, 30812, Note_off_c, 0, 63, 100
2, 30816, Note_on_c, 0, 61, 120
2, 30908, Note_off_c, 0, 61, 100
2, 30912, Note_on_c, 0, 59, 120
2, 31004, Note_off_c, 0, 59, 100
2, 31008, Note_on_c, 0, 58, 120
2, 31100, Note_off_c, 0, 58, 100
2, 31104, Note_on_c, 0, 56, 120
2, 31484, Note_off_c, 0, 56, 100
2, 31488, Note_on_c, 0, 63, 80
2, 31488, Note_on_c, 0, 59, 80
2, 31488, Note_on_c, 0, 56, 80
2, 31488, Note_on_c, 0, 51, 80
2, 31772, Note_off_c, 0, 63, 100
2, 31772, Note_off_c, 0, 59, 100
2, 31772, Note_off_c, 0, 56, 100
2, 31772, Note_off_c, 0, 51, 100
2, 31776, Note_on_c, 0, 63, 80
2, 31776, Note_on_c, 0, 59, 80
2, 31776, Note_on_c, 0, 56, 80
2, 31776, Note_on_c, 0, 51, 80
2, 31868, Note_off_c, 0, 63, 100
2, 31868, Note_off_c, 0, 59, 100
2, 31868, Note_off_c, 0, 56, 100
2, 31868, Note_off_c, 0, 51, 100
2, 31872, Note_on_c, 0, 63, 80
2, 31872, Note_on_c, 0, 59, 80
2, 31872, Note_on_c, 0, 56, 80
2, 31872, Note_on_c, 0, 51, 80
2, 32156, Note_off_c, 0, 63, 100
2, 32156, Note_off_c, 0, 59, 100
2, 32156, Note_off_c, 0, 56, 100
2, 32156, Note_off_c, 0, 51, 100
2, 32160, Note_on_c, 0, 63, 80
2, 32160, Note_on_c, 0, 59, 80
2, 32160, Note_on_c, 0, 56, 80
2, 32160, Note_on_c, 0, 51, 80
2, 32252, Note_off_c, 0, 63, 100
2, 32252, Note_off_c, 0, 59, 100
2, 32252, Note_off_c, 0, 56, 100
2, 32252, Note_off_c, 0, 51, 100
2, 32256, Note_on_c, 0, 63, 80
2, 32256, Note_on_c, 0, 58, 80
2, 32256, Note_on_c, 0, 55, 80
2, 32256, Note_on_c, 0, 51, 80
2, 32540, Note_off_c, 0, 63, 100
2, 32540, Note_off_c, 0, 58, 100
2, 32540, Note_off_c, 0, 55, 100
2, 32540, Note_off_c, 0, 51, 100
2, 32544, Note_on_c, 0, 63, 80
2, 32544, Note_on_c, 0, 59, 80
2, 32544, Note_on_c, 0, 56, 80
2, 32544, Note_on_c, 0, 51, 80
2, 32636, Note_off_c, 0, 63, 100
2, 32636, Note_off_c, 0, 59, 100
2, 32636, Note_off_c, 0, 56, 100
2, 32636, Note_off_c, 0, 51, 100
2, 32640, Note_on_c, 0, 63, 80
2, 32640, Note_on_c, 0, 61, 80
2, 32640, Note_on_c, 0, 58, 80
2, 32640, Note_on_c, 0, 51, 80
2, 33788, Note_off_c, 0, 63, 100
2, 33788, Note_off_c, 0, 61, 100
2, 33788, Note_off_c, 0, 58, 100
2, 33788, Note_off_c, 0, 51, 100
2, 33792, Note_on_c, 0, 63, 80
2, 33792, Note_on_c, 0, 58, 80
2, 33792, Note_on_c, 0, 55, 80
2, 33792, Note_on_c, 0, 51, 80
2, 34076, Note_off_c, 0, 63, 100
2, 34076, Note_off_c, 0, 58, 100
2, 34076, Note_off_c, 0, 55, 100
2, 34076, Note_off_c, 0, 51, 100
2, 34080, Note_on_c, 0, 63, 80
2, 34080, Note_on_c, 0, 58, 80
2, 34080, Note_on_c, 0, 55, 80
2, 34080, Note_on_c, 0, 51, 80
2, 34172, Note_off_c, 0, 63, 100
2, 34172, Note_off_c, 0, 58, 100
2, 34172, Note_off_c, 0, 55, 100
2, 34172, Note_off_c, 0, 51, 100
2, 34176, Note_on_c, 0, 63, 80
2, 34176, Note_on_c, 0, 59, 80
2, 34176, Note_on_c, 0, 56, 80
2, 34176, Note_on_c, 0, 51, 80
2, 34556, Note_off_c, 0, 63, 100
2, 34556, Note_off_c, 0, 59, 100
2, 34556, Note_off_c, 0, 56, 100
2, 34556, Note_off_c, 0, 51, 100
2, 34560, Note_on_c, 0, 63, 80
2, 34560, Note_on_c, 0, 59, 80
2, 34560, Note_on_c, 0, 56, 80
2, 34560, Note_on_c, 0, 51, 80
2, 34844, Note_off_c, 0, 63, 100
2, 34844, Note_off_c, 0, 59, 100
2, 34844, Note_off_c, 0, 56, 100
2, 34844, Note_off_c, 0, 51, 100
2, 34848, Note_on_c, 0, 59, 80
2, 34848, Note_on_c, 0, 56, 80
2, 34848, Note_on_c, 0, 63, 80
2, 34848, Note_on_c, 0, 51, 80
2, 34940, Note_off_c, 0, 59, 100
2, 34940, Note_off_c, 0, 56, 100
2, 34940, Note_off_c, 0, 63, 100
2, 34940, Note_off_c, 0, 51, 100
2, 34944, Note_on_c, 0, 63, 80
2, 34944, Note_on_c, 0, 61, 80
2, 34944, Note_on_c, 0, 58, 80
2, 34944, Note_on_c, 0, 51, 80
2, 35324, Note_off_c, 0, 63, 100
2, 35324, Note_off_c, 0, 61, 100
2, 35324, Note_off_c, 0, 58, 100
2, 35324, Note_off_c, 0, 51, 100
2, 35328, Note_on_c, 0, 63, 80
2, 35328, Note_on_c, 0, 59, 80
2, 35328, Note_on_c, 0, 56, 80
2, 35328, Note_on_c, 0, 51, 80
2, 35612, Note_off_c, 0, 63, 100
2, 35612, Note_off_c, 0, 59, 100
2, 35612, Note_off_c, 0, 56, 100
2, 35612, Note_off_c, 0, 51, 100
2, 35616, Note_on_c, 0, 59, 80
2, 35616, Note_on_c, 0, 56, 80
2, 35616, Note_on_c, 0, 63, 80
2, 35616, Note_on_c, 0, 51, 80
2, 35708, Note_off_c, 0, 59, 100
2, 35708, Note_off_c, 0, 56, 100
2, 35708, Note_off_c, 0, 63, 100
2, 35708, Note_off_c, 0, 51, 100
2, 35712, Note_on_c, 0, 63, 80
2, 35712, Note_on_c, 0, 58, 80
2, 35712, Note_on_c, 0, 55, 80
2, 35712, Note_on_c, 0, 51, 80
2, 36092, Note_off_c, 0, 63, 100
2, 36092, Note_off_c, 0, 58, 100
2, 36092, Note_off_c, 0, 55, 100
2, 36092, Note_off_c, 0, 51, 100
2, 36096, Note_on_c, 0, 63, 80
2, 36096, Note_on_c, 0, 58, 80
2, 36096, Note_on_c, 0, 55, 80
2, 36096, Note_on_c, 0, 51, 80
2, 36476, Note_off_c, 0, 63, 100
2, 36476, Note_off_c, 0, 58, 100
2, 36476, Note_off_c, 0, 55, 100
2, 36476, Note_off_c, 0, 51, 100
2, 36480, Note_on_c, 0, 63, 80
2, 36480, Note_on_c, 0, 58, 80
2, 36480, Note_on_c, 0, 55, 80
2, 36480, Note_on_c, 0, 51, 80
2, 36860, Note_off_c, 0, 63, 100
2, 36860, Note_off_c, 0, 58, 100
2, 36860, Note_off_c, 0, 55, 100
2, 36860, Note_off_c, 0, 51, 100
2, 36864, Note_on_c, 0, 51, 80
2, 36864, Note_on_c, 0, 63, 80
2, 37148, Note_off_c, 0, 51, 100
2, 37148, Note_off_c, 0, 63, 100
2, 37152, Note_on_c, 0, 63, 80
2, 37152, Note_on_c, 0, 51, 80
2, 37244, Note_off_c, 0, 63, 100
2, 37244, Note_off_c, 0, 51, 100
2, 37248, Note_on_c, 0, 63, 80
2, 37248, Note_on_c, 0, 60, 80
2, 37248, Note_on_c, 0, 56, 80
2, 37248, Note_on_c, 0, 51, 80
2, 37628, Note_off_c, 0, 63, 100
2, 37628, Note_off_c, 0, 60, 100
2, 37628, Note_off_c, 0, 56, 100
2, 37628, Note_off_c, 0, 51, 100
2, 37632, Note_on_c, 0, 63, 80
2, 37632, Note_on_c, 0, 60, 80
2, 37632, Note_on_c, 0, 56, 80
2, 37632, Note_on_c, 0, 51, 80
2, 37916, Note_off_c, 0, 63, 100
2, 37916, Note_off_c, 0, 60, 100
2, 37916, Note_off_c, 0, 56, 100
2, 37916, Note_off_c, 0, 51, 100
2, 37920, Note_on_c, 0, 63, 80
2, 37920, Note_on_c, 0, 60, 80
2, 37920, Note_on_c, 0, 56, 80
2, 37920, Note_on_c, 0, 51, 80
2, 38012, Note_off_c, 0, 63, 100
2, 38012, Note_off_c, 0, 60, 100
2, 38012, Note_off_c, 0, 56, 100
2, 38012, Note_off_c, 0, 51, 100
2, 38016, Note_on_c, 0, 63, 80
2, 38016, Note_on_c, 0, 60, 80
2, 38016, Note_on_c, 0, 56, 80
2, 38016, Note_on_c, 0, 51, 80
2, 38300, Note_off_c, 0, 63, 100
2, 38300, Note_off_c, 0, 60, 100
2, 38300, Note_off_c, 0, 56, 100
2, 38300, Note_off_c, 0, 51, 100
2, 38304, Note_on_c, 0, 63, 80
2, 38304, Note_on_c, 0, 60, 80
2, 38304, Note_on_c, 0, 56, 80
2, 38304, Note_on_c, 0, 51, 80
2, 38396, Note_off_c, 0, 63, 100
2, 38396, Note_off_c, 0, 60, 100
2, 38396, Note_off_c, 0, 56, 100
2, 38396, Note_off_c, 0, 51, 100
2, 38400, Note_on_c, 0, 58, 80
2, 38400, Note_on_c, 0, 61, 80
2, 38400, Note_on_c, 0, 49, 80
2, 38400, Note_on_c, 0, 56, 80
2, 38684, Note_off_c, 0, 58, 100
2, 38684, Note_off_c, 0, 61, 100
2, 38684, Note_off_c, 0, 49, 100
2, 38684, Note_off_c, 0, 56, 100
2, 38688, Note_on_c, 0, 63, 80
2, 38688, Note_on_c, 0, 51, 80
2, 38688, Note_on_c, 0, 60, 80
2, 38688, Note_on_c, 0, 56, 80
2, 38780, Note_off_c, 0, 63, 100
2, 38780, Note_off_c, 0, 51, 100
2, 38780, Note_off_c, 0, 60, 100
2, 38780, Note_off_c, 0, 56, 100
2, 38784, Note_on_c, 0, 64, 80
2, 38784, Note_on_c, 0, 61, 80
2, 38784, Note_on_c, 0, 56, 80
2, 38784, Note_on_c, 0, 52, 80
2, 39932, Note_off_c, 0, 64, 100
2, 39932, Note_off_c, 0, 61, 100
2, 39932, Note_off_c, 0, 56, 100
2, 39932, Note_off_c, 0, 52, 100
2, 39936, Note_on_c, 0, 64, 88
2, 39936, Note_on_c, 0, 61, 88
2, 39936, Note_on_c, 0, 56, 88
2, 39936, Note_on_c, 0, 52, 88
2, 40316, Note_off_c, 0, 64, 100
2, 40316, Note_off_c, 0, 61, 100
2, 40316, Note_off_c, 0, 56, 100
2, 40316, Note_off_c, 0, 52, 100
2, 40320, Note_on_c, 0, 73, 91
2, 40320, Note_on_c, 0, 69, 91
2, 40320, Note_on_c, 0, 64, 91
2, 40320, Note_on_c, 0, 61, 91
2, 41468, Note_off_c, 0, 73, 100
2, 41468, Note_off_c, 0, 69, 100
2, 41468, Note_off_c, 0, 64, 100
2, 41468, Note_off_c, 0, 61, 100
2, 41472, Note_on_c, 0, 73, 99
2, 41472, Note_on_c, 0, 69, 99
2, 41472, Note_on_c, 0, 64, 99
2, 41472, Note_on_c, 0, 61, 99
2, 41852, Note_off_c, 0, 73, 100
2, 41852, Note_off_c, 0, 69, 100
2, 41852, Note_off_c, 0, 64, 100
2, 41852, Note_off_c, 0, 61, 100
2, 41856, Note_on_c, 0, 82, 110
2, 41856, Note_on_c, 0, 75, 110
2, 41856, Note_on_c, 0, 73, 110
2, 41856, Note_on_c, 0, 70, 110
2, 43004, Note_off_c, 0, 82, 100
2, 43004, Note_off_c, 0, 75, 100
2, 43004, Note_off_c, 0, 73, 100
2, 43004, Note_off_c, 0, 70, 100
2, 43008, Note_on_c, 0, 82, 119
2, 43008, Note_on_c, 0, 75, 119
2, 43008, Note_on_c, 0, 73, 119
2, 43008, Note_on_c, 0, 70, 119
2, 43388, Note_off_c, 0, 82, 100
2, 43388, Note_off_c, 0, 75, 100
2, 43388, Note_off_c, 0, 73, 100
2, 43388, Note_off_c, 0, 70, 100
2, 43392, Note_on_c, 0, 83, 120
2, 43392, Note_on_c, 0, 75, 120
2, 43392, Note_on_c, 0, 71, 120
2, 44156, Note_off_c, 0, 83, 100
2, 44156, Note_off_c, 0, 75, 100
2, 44156, Note_off_c, 0, 71, 100
2, 44160, Note_on_c, 0, 82, 120
2, 44160, Note_on_c, 0, 76, 120
2, 44160, Note_on_c, 0, 73, 120
2, 44160, Note_on_c, 0, 70, 120
2, 44540, Note_off_c, 0, 82, 100
2, 44540, Note_off_c, 0, 76, 100
2, 44540, Note_off_c, 0, 73, 100
2, 44540, Note_off_c, 0, 70, 100
2, 44544, Note_on_c, 0, 79, 120
2, 44544, Note_on_c, 0, 73, 120
2, 44544, Note_on_c, 0, 70, 120
2, 44544, Note_on_c, 0, 67, 120
2, 44924, Note_off_c, 0, 79, 100
2, 44924, Note_off_c, 0, 73, 100
2, 44924, Note_off_c, 0, 70, 100
2, 44924, Note_off_c, 0, 67, 100
2, 44928, Note_on_c, 0, 80, 120
2, 44928, Note_on_c, 0, 71, 120
2, 44928, Note_on_c, 0, 68, 120
2, 45308, Note_off_c, 0, 80, 100
2, 45308, Note_off_c, 0, 71, 100
2, 45308, Note_off_c, 0, 68, 100
2, 45312, Note_on_c, 0, 56, 120
2, 45312, Note_on_c, 0, 51, 120
2, 45312, Note_on_c, 0, 47, 120
2, 45692, Note_off_c, 0, 56, 100
2, 45692, Note_off_c, 0, 51, 100
2, 45692, Note_off_c, 0, 47, 100
2, 45696, Note_on_c, 0, 44, 120
2, 46076, Note_off_c, 0, 44, 100
2, 46464, Key_signature, -4, "major"
2, 46464, Control_c, 0, 64, 127
2, 46464, Note_on_c, 0, 60, 80
2, 46512, Note_on_c, 0, 51, 81
2, 46556, Note_off_c, 0, 60, 100
2, 46560, Note_on_c, 0, 60, 83
2, 46604, Note_off_c, 0, 51, 100
2, 46608, Note_on_c, 0, 51, 85
2, 46652, Note_off_c, 0, 60, 100
2, 46656, Note_on_c, 0, 60, 87
2, 46700, Note_off_c, 0, 51, 100
2, 46704, Note_on_c, 0, 51, 89
2, 46748, Note_off_c, 0, 60, 100
2, 46752, Note_on_c, 0, 60, 91
2, 46796, Note_off_c, 0, 51, 100
2, 46800, Note_on_c, 0, 51, 93
2, 46844, Note_off_c, 0, 60, 100
2, 46848, Note_on_c, 0, 60, 94
2, 46892, Note_off_c, 0, 51, 100
2, 46896, Note_on_c, 0, 51, 96
2, 46940, Note_off_c, 0, 60, 100
2, 46944, Note_on_c, 0, 60, 98
2, 46988, Note_off_c, 0, 51, 100
2, 46992, Note_on_c, 0, 51, 100
2, 47036, Note_off_c, 0, 60, 100
2, 47040, Note_on_c, 0, 60, 102
2, 47084, Note_off_c, 0, 51, 100
2, 47088, Note_on_c, 0, 51, 104
2, 47132, Note_off_c, 0, 60, 100
2, 47136, Note_on_c, 0, 60, 106
2, 47180, Note_off_c, 0, 51, 100
2, 47184, Note_on_c, 0, 51, 107
2, 47228, Note_off_c, 0, 60, 100
2, 47232, Note_on_c, 0, 56, 109
2, 47232, Note_on_c, 0, 48, 109
2, 47276, Note_off_c, 0, 51, 100
2, 47420, Note_off_c, 0, 56, 100
2, 47420, Note_off_c, 0, 48, 100
2, 47424, Control_c, 0, 64, 0
2, 47520, Note_on_c, 0, 68, 120
2, 47520, Note_on_c, 0, 72, 120
2, 47612, Note_off_c, 0, 68, 100
2, 47612, Note_off_c, 0, 72, 100
2, 47616, Note_on_c, 0, 75, 120
2, 47616, Note_on_c, 0, 72, 120
2, 47804, Note_off_c, 0, 75, 100
2, 47804, Note_off_c, 0, 72, 100
2, 48000, Control_c, 0, 64, 127
2, 48000, Note_on_c, 0, 60, 80
2, 48048, Note_on_c, 0, 51, 81
2, 48092, Note_off_c, 0, 60, 100
2, 48096, Note_on_c, 0, 60, 83
2, 48140, Note_off_c, 0, 51, 100
2, 48144, Note_on_c, 0, 51, 85
2, 48188, Note_off_c, 0, 60, 100
2, 48192, Note_on_c, 0, 60, 87
2, 48236, Note_off_c, 0, 51, 100
2, 48240, Note_on_c, 0, 51, 89
2, 48284, Note_off_c, 0, 60, 100
2, 48288, Note_on_c, 0, 60, 91
2, 48332, Note_off_c, 0, 51, 100
2, 48336, Note_on_c, 0, 51, 93
2, 48380, Note_off_c, 0, 60, 100
2, 48384, Note_on_c, 0, 60, 94
2, 48428, Note_off_c, 0, 51, 100
2, 48432, Note_on_c, 0, 51, 96
2, 48476, Note_off_c, 0, 60, 100
2, 48480, Note_on_c, 0, 60, 98
2, 48524, Note_off_c, 0, 51, 100
2, 48528, Note_on_c, 0, 51, 100
2, 48572, Note_off_c, 0, 60, 100
2, 48576, Note_on_c, 0, 60, 102
2, 48620, Note_off_c, 0, 51, 100
2, 48624, Note_on_c, 0, 51, 104
2, 48668, Note_off_c, 0, 60, 100
2, 48672, Note_on_c, 0, 60, 106
2, 48716, Note_off_c, 0, 51, 100
2, 48720, Note_on_c, 0, 51, 107
2, 48764, Note_off_c, 0, 60, 100
2, 48768, Note_on_c, 0, 56, 109
2, 48768, Note_on_c, 0, 48, 109
2, 48812, Note_off_c, 0, 51, 100
2, 48956, Note_off_c, 0, 56, 100
2, 48956, Note_off_c, 0, 48, 100
2, 48960, Control_c, 0, 64, 0
2, 49056, Note_on_c, 0, 80, 120
2, 49056, Note_on_c, 0, 84, 120
2, 49148, Note_off_c, 0, 80, 100
2, 49148, Note_off_c, 0, 84, 100
2, 49152, Note_on_c, 0, 87, 120
2, 49152, Note_on_c, 0, 84, 120
2, 49340, Note_off_c, 0, 87, 100
2, 49340, Note_off_c, 0, 84, 100
2, 49536, Note_on_c, 0, 58, 120
2, 49820, Note_off_c, 0, 58, 100
2, 49824, Note_on_c, 0, 79, 120
2, 49824, Note_on_c, 0, 75, 120
2, 49916, Note_off_c, 0, 79, 100
2, 49916, Note_off_c, 0, 75, 100
2, 49920, Note_on_c, 0, 82, 120
2, 50108, Note_off_c, 0, 82, 100
2, 50304, Note_on_c, 0, 58, 120
2, 50588, Note_off_c, 0, 58, 100
2, 50592, Note_on_c, 0, 77, 120
2, 50592, Note_on_c, 0, 74, 120
2, 50684, Note_off_c, 0, 77, 100
2, 50684, Note_off_c, 0, 74, 100
2, 50688, Note_on_c, 0, 82, 120
2, 50876, Note_off_c, 0, 82, 100
2, 50976, Note_on_c, 0, 70, 120
2, 51068, Note_off_c, 0, 70, 100
2, 51072, Note_on_c, 0, 75, 120
2, 51260, Note_off_c, 0, 75, 100
2, 51360, Note_on_c, 0, 58, 120
2, 51452, Note_off_c, 0, 58, 100
2, 51456, Note_on_c, 0, 63, 120
2, 51644, Note_off_c, 0, 63, 100
2, 51744, Note_on_c, 0, 46, 120
2, 51836, Note_off_c, 0, 46, 100
2, 51840, Note_on_c, 0, 51, 120
2, 52028, Note_off_c, 0, 51, 100
2, 52608, Control_c, 0, 64, 127
2, 52608, Note_on_c, 0, 60, 80
2, 52656, Note_on_c, 0, 51, 81
2, 52700, Note_off_c, 0, 60, 100
2, 52704, Note_on_c, 0, 60, 83
2, 52748, Note_off_c, 0, 51, 100
2, 52752, Note_on_c, 0, 51, 85
2, 52796, Note_off_c, 0, 60, 100
2, 52800, Note_on_c, 0, 60, 87
2, 52844, Note_off_c, 0, 51, 100
2, 52848, Note_on_c, 0, 51, 89
2, 52892, Note_off_c, 0, 60, 100
2, 52896, Note_on_c, 0, 60, 91
2, 52940, Note_off_c, 0, 51, 100
2, 52944, Note_on_c, 0, 51, 93
2, 52988, Note_off_c, 0, 60, 100
2, 52992, Note_on_c, 0, 60, 94
2, 53036, Note_off_c, 0, 51, 100
2, 53040, Note_on_c, 0, 51, 96
2, 53084, Note_off_c, 0, 60, 100
2, 53088, Note_on_c, 0, 60, 98
2, 53132, Note_off_c, 0, 51, 100
2, 53136, Note_on_c, 0, 51, 100
2, 53180, Note_off_c, 0, 60, 100
2, 53184, Note_on_c, 0, 60, 102
2, 53228, Note_off_c, 0, 51, 100
2, 53232, Note_on_c, 0, 51, 104
2, 53276, Note_off_c, 0, 60, 100
2, 53280, Note_on_c, 0, 60, 106
2, 53324, Note_off_c, 0, 51, 100
2, 53328, Note_on_c, 0, 51, 107
2, 53372, Note_off_c, 0, 60, 100
2, 53376, Note_on_c, 0, 56, 109
2, 53376, Note_on_c, 0, 48, 109
2, 53420, Note_off_c, 0, 51, 100
2, 53564, Note_off_c, 0, 56, 100
2, 53564, Note_off_c, 0, 48, 100
2, 53568, Control_c, 0, 64, 0
2, 53664, Note_on_c, 0, 68, 120
2, 53664, Note_on_c, 0, 72, 120
2, 53756, Note_off_c, 0, 68, 100
2, 53756, Note_off_c, 0, 72, 100
2, 53760, Note_on_c, 0, 75, 120
2, 53760, Note_on_c, 0, 72, 120
2, 53948, Note_off_c, 0, 75, 100
2, 53948, Note_off_c, 0, 72, 100
2, 54144, Control_c, 0, 64, 127
2, 54144, Note_on_c, 0, 60, 80
2, 54192, Note_on_c, 0, 51, 81
2, 54236, Note_off_c, 0, 60, 100
2, 54240, Note_on_c, 0, 60, 83
2, 54284, Note_off_c, 0, 51, 100
2, 54288, Note_on_c, 0, 51, 85
2, 54332, Note_off_c, 0, 60, 100
2, 54336, Note_on_c, 0, 60, 87
2, 54380, Note_off_c, 0, 51, 100
2, 54384, Note_on_c, 0, 51, 89
2, 54428, Note_off_c, 0, 60, 100
2, 54432, Note_on_c, 0, 60, 91
2, 54476, Note_off_c, 0, 51, 100
2, 54480, Note_on_c, 0, 51, 93
2, 54524, Note_off_c, 0, 60, 100
2, 54528, Note_on_c, 0, 60, 94
2, 54572, Note_off_c, 0, 51, 100
2, 54576, Note_on_c, 0, 51, 96
2, 54620, Note_off_c, 0, 60, 100
2, 54624, Note_on_c, 0, 60, 98
2, 54668, Note_off_c, 0, 51, 100
2, 54672, Note_on_c, 0, 51, 100
2, 54716, Note_off_c, 0, 60, 100
2, 54720, Note_on_c, 0, 60, 102
2, 54764, Note_off_c, 0, 51, 100
2, 54768, Note_on_c, 0, 51, 104
2, 54812, Note_off_c, 0, 60, 100
2, 54816, Note_on_c, 0, 60, 106
2, 54860, Note_off_c, 0, 51, 100
2, 54864, Note_on_c, 0, 51, 107
2, 54908, Note_off_c, 0, 60, 100
2, 54912, Note_on_c, 0, 56, 109
2, 54912, Note_on_c, 0, 48, 109
2, 54956, Note_off_c, 0, 51, 100
2, 55100, Note_off_c, 0, 56, 100
2, 55100, Note_off_c, 0, 48, 100
2, 55104, Control_c, 0, 64, 0
2, 55200, Note_on_c, 0, 80, 120
2, 55200, Note_on_c, 0, 84, 120
2, 55292, Note_off_c, 0, 80, 100
2, 55292, Note_off_c, 0, 84, 100
2, 55296, Note_on_c, 0, 87, 120
2, 55296, Note_on_c, 0, 84, 120
2, 55484, Note_off_c, 0, 87, 100
2, 55484, Note_off_c, 0, 84, 100
2, 55680, Note_on_c, 0, 58, 120
2, 55964, Note_off_c, 0, 58, 100
2, 55968, Note_on_c, 0, 79, 120
2, 55968, Note_on_c, 0, 75, 120
2, 56060, Note_off_c, 0, 79, 100
2, 56060, Note_off_c, 0, 75, 100
2, 56064, Note_on_c, 0, 82, 120
2, 56252, Note_off_c, 0, 82, 100
2, 56448, Note_on_c, 0, 58, 120
2, 56732, Note_off_c, 0, 58, 100
2, 56736, Note_on_c, 0, 77, 120
2, 56736, Note_on_c, 0, 74, 120
2, 56828, Note_off_c, 0, 77, 100
2, 56828, Note_off_c, 0, 74, 100
2, 56832, Note_on_c, 0, 82, 120
2, 57020, Note_off_c, 0, 82, 100
2, 57120, Note_on_c, 0, 70, 120
2, 57212, Note_off_c, 0, 70, 100
2, 57216, Note_on_c, 0, 75, 120
2, 57404, Note_off_c, 0, 75, 100
2, 57504, Note_on_c, 0, 58, 120
2, 57596, Note_off_c, 0, 58, 100
2, 57600, Note_on_c, 0, 63, 120
2, 57788, Note_off_c, 0, 63, 100
2, 57888, Note_on_c, 0, 46, 120
2, 57980, Note_off_c, 0, 46, 100
2, 57984, Note_on_c, 0, 51, 120
2, 58172, Note_off_c, 0, 51, 100
2, 58752, Control_c, 0, 64, 127
2, 58752, Note_on_c, 0, 61, 80
2, 58800, Note_on_c, 0, 58, 81
2, 58844, Note_off_c, 0, 61, 100
2, 58848, Note_on_c, 0, 61, 83
2, 58892, Note_off_c, 0, 58, 100
2, 58896, Note_on_c, 0, 58, 85
2, 58940, Note_off_c, 0, 61, 100
2, 58944, Note_on_c, 0, 61, 87
2, 58988, Note_off_c, 0, 58, 100
2, 58992, Note_on_c, 0, 58, 89
2, 59036, Note_off_c, 0, 61, 100
2, 59040, Note_on_c, 0, 61, 91
2, 59084, Note_off_c, 0, 58, 100
2, 59088, Note_on_c, 0, 58, 93
2, 59132, Note_off_c, 0, 61, 100
2, 59136, Note_on_c, 0, 61, 94
2, 59180, Note_off_c, 0, 58, 100
2, 59184, Note_on_c, 0, 58, 96
2, 59228, Note_off_c, 0, 61, 100
2, 59232, Note_on_c, 0, 61, 98
2, 59276, Note_off_c, 0, 58, 100
2, 59280, Note_on_c, 0, 58, 100
2, 59324, Note_off_c, 0, 61, 100
2, 59328, Note_on_c, 0, 61, 102
2, 59372, Note_off_c, 0, 58, 100
2, 59376, Note_on_c, 0, 58, 104
2, 59420, Note_off_c, 0, 61, 100
2, 59424, Note_on_c, 0, 61, 106
2, 59468, Note_off_c, 0, 58, 100
2, 59472, Note_on_c, 0, 58, 107
2, 59516, Note_off_c, 0, 61, 100
2, 59520, Note_on_c, 0, 58, 109
2, 59520, Note_on_c, 0, 55, 109
2, 59564, Note_off_c, 0, 58, 100
2, 59708, Note_off_c, 0, 58, 100
2, 59708, Note_off_c, 0, 55, 100
2, 59712, Control_c, 0, 64, 0
2, 59808, Note_on_c, 0, 70, 120
2, 59808, Note_on_c, 0, 67, 120
2, 59900, Note_off_c, 0, 70, 100
2, 59900, Note_off_c, 0, 67, 100
2, 59904, Note_on_c, 0, 73, 120
2, 59904, Note_on_c, 0, 70, 120
2, 60092, Note_off_c, 0, 73, 100
2, 60092, Note_off_c, 0, 70, 100
2, 60288, Control_c, 0, 64, 127
2, 60288, Note_on_c, 0, 61, 80
2, 60336, Note_on_c, 0, 58, 81
2, 60380, Note_off_c, 0, 61, 100
2, 60384, Note_on_c, 0, 61, 83
2, 60428, Note_off_c, 0, 58, 100
2, 60432, Note_on_c, 0, 58, 85
2, 60476, Note_off_c, 0, 61, 100
2, 60480, Note_on_c, 0, 61, 87
2, 60524, Note_off_c, 0, 58, 100
2, 60528, Note_on_c, 0, 58, 89
2, 60572, Note_off_c, 0, 61, 100
2, 60576, Note_on_c, 0, 61, 91
2, 60620, Note_off_c, 0, 58, 100
2, 60624, Note_on_c, 0, 58, 93
2, 60668, Note_off_c, 0, 61, 100
2, 60672, Note_on_c, 0, 61, 94
2, 60716, Note_off_c, 0, 58, 100
2, 60720, Note_on_c, 0, 58, 96
2, 60764, Note_off_c, 0, 61, 100
2, 60768, Note_on_c, 0, 61, 98
2, 60812, Note_off_c, 0, 58, 100
2, 60816, Note_on_c, 0, 58, 100
2, 60860, Note_off_c, 0, 61, 100
2, 60864, Note_on_c, 0, 61, 102
2, 60908, Note_off_c, 0, 58, 100
2, 60912, Note_on_c, 0, 58, 104
2, 60956, Note_off_c, 0, 61, 100
2, 60960, Note_on_c, 0, 61, 106
2, 61004, Note_off_c, 0, 58, 100
2, 61008, Note_on_c, 0, 58, 107
2, 61052, Note_off_c, 0, 61, 100
2, 61056, Note_on_c, 0, 58, 109
2, 61056, Note_on_c, 0, 55, 109
2, 61100, Note_off_c, 0, 58, 100
2, 61244, Note_off_c, 0, 58, 100
2, 61244, Note_off_c, 0, 55, 100
2, 61248, Control_c, 0, 64, 0
2, 61344, Note_on_c, 0, 82, 120
2, 61344, Note_on_c, 0, 79, 120
2, 61436, Note_off_c, 0, 82, 100
2, 61436, Note_off_c, 0, 79, 100
2, 61440, Note_on_c, 0, 85, 120
2, 61440, Note_on_c, 0, 82, 120
2, 61628, Note_off_c, 0, 85, 100
2, 61628, Note_off_c, 0, 82, 100
2, 61824, Note_on_c, 0, 68, 120
2, 62108, Note_off_c, 0, 68, 100
2, 62112, Note_on_c, 0, 84, 120
2, 62112, Note_on_c, 0, 80, 120
2, 62204, Note_off_c, 0, 84, 100
2, 62204, Note_off_c, 0, 80, 100
2, 62208, Note_on_c, 0, 87, 120
2, 62396, Note_off_c, 0, 87, 100
2, 62592, Note_on_c, 0, 63, 120
2, 62876, Note_off_c, 0, 63, 100
2, 62880, Note_on_c, 0, 79, 120
2, 62880, Note_on_c, 0, 82, 120
2, 62972, Note_off_c, 0, 79, 100
2, 62972, Note_off_c, 0, 82, 100
2, 62976, Note_on_c, 0, 87, 120
2, 63164, Note_off_c, 0, 87, 100
2, 63264, Note_on_c, 0, 75, 120
2, 63356, Note_off_c, 0, 75, 100
2, 63360, Note_on_c, 0, 80, 120
2, 63548, Note_off_c, 0, 80, 100
2, 63648, Note_on_c, 0, 63, 120
2, 63740, Note_off_c, 0, 63, 100
2, 63744, Note_on_c, 0, 68, 120
2, 63932, Note_off_c, 0, 68, 100
2, 64032, Note_on_c, 0, 51, 120
2, 64124, Note_off_c, 0, 51, 100
2, 64128, Note_on_c, 0, 56, 120
2, 64316, Note_off_c, 0, 56, 100
2, 64896, Note_on_c, 0, 61, 80
2, 64944, Note_on_c, 0, 58, 81
2, 64988, Note_off_c, 0, 61, 100
2, 64992, Note_on_c, 0, 61, 83
2, 65036, Note_off_c, 0, 58, 100
2, 65040, Note_on_c, 0, 58, 85
2, 65084, Note_off_c, 0, 61, 100
2, 65088, Note_on_c, 0, 61, 87
2, 65132, Note_off_c, 0, 58, 100
2, 65136, Note_on_c, 0, 58, 89
2, 65180, Note_off_c, 0, 61, 100
2, 65184, Note_on_c, 0, 61, 91
2, 65228, Note_off_c, 0, 58, 100
2, 65232, Note_on_c, 0, 58, 93
2, 65276, Note_off_c, 0, 61, 100
2, 65280, Note_on_c, 0, 61, 94
2, 65324, Note_off_c, 0, 58, 100
2, 65328, Note_on_c, 0, 58, 96
2, 65372, Note_off_c, 0, 61, 100
2, 65376, Note_on_c, 0, 61, 98
2, 65420, Note_off_c, 0, 58, 100
2, 65424, Note_on_c, 0, 58, 100
2, 65468, Note_off_c, 0, 61, 100
2, 65472, Note_on_c, 0, 61, 102
2, 65516, Note_off_c, 0, 58, 100
2, 65520, Note_on_c, 0, 58, 104
2, 65564, Note_off_c, 0, 61, 100
2, 65568, Note_on_c, 0, 61, 106
2, 65612, Note_off_c, 0, 58, 100
2, 65616, Note_on_c, 0, 58, 107
2, 65660, Note_off_c, 0, 61, 100
2, 65664, Note_on_c, 0, 58, 109
2, 65664, Note_on_c, 0, 55, 109
2, 65708, Note_off_c, 0, 58, 100
2, 65852, Note_off_c, 0, 58, 100
2, 65852, Note_off_c, 0, 55, 100
2, 65952, Note_on_c, 0, 70, 120
2, 65952, Note_on_c, 0, 67, 120
2, 66044, Note_off_c, 0, 70, 100
2, 66044, Note_off_c, 0, 67, 100
2, 66048, Note_on_c, 0, 73, 120
2, 66048, Note_on_c, 0, 70, 120
2, 66236, Note_off_c, 0, 73, 100
2, 66236, Note_off_c, 0, 70, 100
2, 66432, Note_on_c, 0, 61, 80
2, 66480, Note_on_c, 0, 58, 81
2, 66524, Note_off_c, 0, 61, 100
2, 66528, Note_on_c, 0, 61, 83
2, 66572, Note_off_c, 0, 58, 100
2, 66576, Note_on_c, 0, 58, 85
2, 66620, Note_off_c, 0, 61, 100
2, 66624, Note_on_c, 0, 61, 87
2, 66668, Note_off_c, 0, 58, 100
2, 66672, Note_on_c, 0, 58, 89
2, 66716, Note_off_c, 0, 61, 100
2, 66720, Note_on_c, 0, 61, 91
2, 66764, Note_off_c, 0, 58, 100
2, 66768, Note_on_c, 0, 58, 93
2, 66812, Note_off_c, 0, 61, 100
2, 66816, Note_on_c, 0, 61, 94
2, 66860, Note_off_c, 0, 58, 100
2, 66864, Note_on_c, 0, 58, 96
2, 66908, Note_off_c, 0, 61, 100
2, 66912, Note_on_c, 0, 61, 98
2, 66956, Note_off_c, 0, 58, 100
2, 66960, Note_on_c, 0, 58, 100
2, 67004, Note_off_c, 0, 61, 100
2, 67008, Note_on_c, 0, 61, 102
2, 67052, Note_off_c, 0, 58, 100
2, 67056, Note_on_c, 0, 58, 104
2, 67100, Note_off_c, 0, 61, 100
2, 67104, Note_on_c, 0, 61, 106
2, 67148, Note_off_c, 0, 58, 100
2, 67152, Note_on_c, 0, 58, 107
2, 67196, Note_off_c, 0, 61, 100
2, 67200, Note_on_c, 0, 58, 109
2, 67200, Note_on_c, 0, 55, 109
2, 67244, Note_off_c, 0, 58, 100
2, 67388, Note_off_c, 0, 58, 100
2, 67388, Note_off_c, 0, 55, 100
2, 67488, Note_on_c, 0, 82, 120
2, 67488, Note_on_c, 0, 79, 120
2, 67580, Note_off_c, 0, 82, 100
2, 67580, Note_off_c, 0, 79, 100
2, 67584, Note_on_c, 0, 85, 120
2, 67584, Note_on_c, 0, 82, 120
2, 67772, Note_off_c, 0, 85, 100
2, 67772, Note_off_c, 0, 82, 100
2, 67968, Note_on_c, 0, 68, 120
2, 68252, Note_off_c, 0, 68, 100
2, 68256, Note_on_c, 0, 84, 120
2, 68256, Note_on_c, 0, 80, 120
2, 68348, Note_off_c, 0, 84, 100
2, 68348, Note_off_c, 0, 80, 100
2, 68352, Note_on_c, 0, 87, 120
2, 68540, Note_off_c, 0, 87, 100
2, 68736, Note_on_c, 0, 63, 120
2, 69020, Note_off_c, 0, 63, 100
2, 69024, Note_on_c, 0, 79, 120
2, 69024, Note_on_c, 0, 82, 120
2, 69116, Note_off_c, 0, 79, 100
2, 69116, Note_off_c, 0, 82, 100
2, 69120, Note_on_c, 0, 87, 120
2, 69308, Note_off_c, 0, 87, 100
2, 69408, Note_on_c, 0, 75, 120
2, 69500, Note_off_c, 0, 75, 100
2, 69504, Note_on_c, 0, 80, 120
2, 69692, Note_off_c, 0, 80, 100
2, 69792, Note_on_c, 0, 63, 120
2, 69884, Note_off_c, 0, 63, 100
2, 69888, Note_on_c, 0, 68, 120
2, 70076, Note_off_c, 0, 68, 100
2, 70176, Note_on_c, 0, 51, 120
2, 70268, Note_off_c, 0, 51, 100
2, 70272, Note_on_c, 0, 56, 120
2, 70460, Note_off_c, 0, 56, 100
2, 70656, Note_on_c, 0, 63, 80
2, 70656, Note_on_c, 0, 51, 80
2, 70940, Note_off_c, 0, 63, 100
2, 70940, Note_off_c, 0, 51, 100
2, 70944, Note_on_c, 0, 63, 80
2, 70944, Note_on_c, 0, 51, 80
2, 71036, Note_off_c, 0, 63, 100
2, 71036, Note_off_c, 0, 51, 100
2, 71040, Key_signature, -7, "minor"
2, 71040, Note_on_c, 0, 63, 80
2, 71040, Note_on_c, 0, 59, 80
2, 71040, Note_on_c, 0, 56, 80
2, 71040, Note_on_c, 0, 51, 80
2, 71420, Note_off_c, 0, 63, 100
2, 71420, Note_off_c, 0, 59, 100
2, 71420, Note_off_c, 0, 56, 100
2, 71420, Note_off_c, 0, 51, 100
2, 71424, Note_on_c, 0, 63, 80
2, 71424, Note_on_c, 0, 59, 80
2, 71424, Note_on_c, 0, 56, 80
2, 71424, Note_on_c, 0, 51, 80
2, 71708, Note_off_c, 0, 63, 100
2, 71708, Note_off_c, 0, 59, 100
2, 71708, Note_off_c, 0, 56, 100
2, 71708, Note_off_c, 0, 51, 100
2, 71712, Note_on_c, 0, 63, 80
2, 71712, Note_on_c, 0, 59, 80
2, 71712, Note_on_c, 0, 56, 80
2, 71712, Note_on_c, 0, 51, 80
2, 71804, Note_off_c, 0, 63, 100
2, 71804, Note_off_c, 0, 59, 100
2, 71804, Note_off_c, 0, 56, 100
2, 71804, Note_off_c, 0, 51, 100
2, 71808, Note_on_c, 0, 63, 80
2, 71808, Note_on_c, 0, 59, 80
2, 71808, Note_on_c, 0, 56, 80
2, 71808, Note_on_c, 0, 51, 80
2, 72092, Note_off_c, 0, 63, 100
2, 72092, Note_off_c, 0, 59, 100
2, 72092, Note_off_c, 0, 56, 100
2, 72092, Note_off_c, 0, 51, 100
2, 72096, Note_on_c, 0, 63, 80
2, 72096, Note_on_c, 0, 59, 80
2, 72096, Note_on_c, 0, 56, 80
2, 72096, Note_on_c, 0, 51, 80
2, 72188, Note_off_c, 0, 63, 100
2, 72188, Note_off_c, 0, 59, 100
2, 72188, Note_off_c, 0, 56, 100
2, 72188, Note_off_c, 0, 51, 100
2, 72192, Note_on_c, 0, 63, 80
2, 72192, Note_on_c, 0, 58, 80
2, 72192, Note_on_c, 0, 55, 80
2, 72192, Note_on_c, 0, 51, 80
2, 72476, Note_off_c, 0, 63, 100
2, 72476, Note_off_c, 0, 58, 100
2, 72476, Note_off_c, 0, 55, 100
2, 72476, Note_off_c, 0, 51, 100
2, 72480, Note_on_c, 0, 63, 80
2, 72480, Note_on_c, 0, 59, 80
2, 72480, Note_on_c, 0, 56, 80
2, 72480, Note_on_c, 0, 51, 80
2, 72572, Note_off_c, 0, 63, 100
2, 72572, Note_off_c, 0, 59, 100
2, 72572, Note_off_c, 0, 56, 100
2, 72572, Note_off_c, 0, 51, 100
2, 72576, Note_on_c, 0, 63, 80
2, 72576, Note_on_c, 0, 61, 80
2, 72576, Note_on_c, 0, 58, 80
2, 72576, Note_on_c, 0, 51, 80
2, 73724, Note_off_c, 0, 63, 100
2, 73724, Note_off_c, 0, 61, 100
2, 73724, Note_off_c, 0, 58, 100
2, 73724, Note_off_c, 0, 51, 100
2, 73728, Note_on_c, 0, 63, 80
2, 73728, Note_on_c, 0, 58, 80
2, 73728, Note_on_c, 0, 55, 80
2, 74012, Note_off_c, 0, 63, 100
2, 74012, Note_off_c, 0, 58, 100
2, 74012, Note_off_c, 0, 55, 100
2, 74016, Note_on_c, 0, 63, 80
2, 74016, Note_on_c, 0, 58, 80
2, 74016, Note_on_c, 0, 55, 80
2, 74108, Note_off_c, 0, 63, 100
2, 74108, Note_off_c, 0, 58, 100
2, 74108, Note_off_c, 0, 55, 100
2, 74112, Note_on_c, 0, 63, 80
2, 74112, Note_on_c, 0, 59, 80
2, 74112, Note_on_c, 0, 56, 80
2, 74492, Note_off_c, 0, 63, 100
2, 74492, Note_off_c, 0, 59, 100
2, 74492, Note_off_c, 0, 56, 100
2, 74496, Note_on_c, 0, 63, 80
2, 74496, Note_on_c, 0, 59, 80
2, 74496, Note_on_c, 0, 56, 80
2, 74780, Note_off_c, 0, 63, 100
2, 74780, Note_off_c, 0, 59, 100
2, 74780, Note_off_c, 0, 56, 100
2, 74784, Note_on_c, 0, 59, 80
2, 74784, Note_on_c, 0, 56, 80
2, 74784, Note_on_c, 0, 63, 80
2, 74876, Note_off_c, 0, 59, 100
2, 74876, Note_off_c, 0, 56, 100
2, 74876, Note_off_c, 0, 63, 100
2, 74880, Note_on_c, 0, 63, 80
2, 74880, Note_on_c, 0, 61, 80
2, 74880, Note_on_c, 0, 58, 80
2, 75260, Note_off_c, 0, 63, 100
2, 75260, Note_off_c, 0, 61, 100
2, 75260, Note_off_c, 0, 58, 100
2, 75264, Note_on_c, 0, 63, 80
2, 75264, Note_on_c, 0, 59, 80
2, 75264, Note_on_c, 0, 56, 80
2, 75548, Note_off_c, 0, 63, 100
2, 75548, Note_off_c, 0, 59, 100
2, 75548, Note_off_c, 0, 56, 100
2, 75552, Note_on_c, 0, 59, 80
2, 75552, Note_on_c, 0, 56, 80
2, 75552, Note_on_c, 0, 63, 80
2, 75644, Note_off_c, 0, 59, 100
2, 75644, Note_off_c, 0, 56, 100
2, 75644, Note_off_c, 0, 63, 100
2, 75648, Note_on_c, 0, 63, 80
2, 75648, Note_on_c, 0, 58, 80
2, 75648, Note_on_c, 0, 55, 80
2, 76028, Note_off_c, 0, 63, 100
2, 76028, Note_off_c, 0, 58, 100
2, 76028, Note_off_c, 0, 55, 100
2, 76032, Note_on_c, 0, 63, 80
2, 76032, Note_on_c, 0, 58, 80
2, 76032, Note_on_c, 0, 55, 80
2, 76412, Note_off_c, 0, 63, 100
2, 76412, Note_off_c, 0, 58, 100
2, 76412, Note_off_c, 0, 55, 100
2, 76416, Note_on_c, 0, 63, 80
2, 76416, Note_on_c, 0, 58, 80
2, 76416, Note_on_c, 0, 55, 80
2, 76796, Note_off_c, 0, 63, 100
2, 76796, Note_off_c, 0, 58, 100
2, 76796, Note_off_c, 0, 55, 100
2, 76800, Note_on_c, 0, 51, 80
2, 76800, Note_on_c, 0, 63, 80
2, 77084, Note_off_c, 0, 51, 100
2, 77084, Note_off_c, 0, 63, 100
2, 77088, Note_on_c, 0, 63, 80
2, 77088, Note_on_c, 0, 51, 80
2, 77180, Note_off_c, 0, 63, 100
2, 77180, Note_off_c, 0, 51, 100
2, 77184, Note_on_c, 0, 63, 80
2, 77184, Note_on_c, 0, 59, 80
2, 77184, Note_on_c, 0, 56, 80
2, 77184, Note_on_c, 0, 51, 80
2, 77564, Note_off_c, 0, 63, 100
2, 77564, Note_off_c, 0, 59, 100
2, 77564, Note_off_c, 0, 56, 100
2, 77564, Note_off_c, 0, 51, 100
2, 77568, Note_on_c, 0, 63, 87
2, 77568, Note_on_c, 0, 59, 87
2, 77568, Note_on_c, 0, 56, 87
2, 77568, Note_on_c, 0, 51, 87
2, 77852, Note_off_c, 0, 63, 100
2, 77852, Note_off_c, 0, 59, 100
2, 77852, Note_off_c, 0, 56, 100
2, 77852, Note_off_c, 0, 51, 100
2, 77856, Note_on_c, 0, 63, 93
2, 77856, Note_on_c, 0, 59, 93
2, 77856, Note_on_c, 0, 56, 93
2, 77856, Note_on_c, 0, 51, 93
2, 77948, Note_off_c, 0, 63, 100
2, 77948, Note_off_c, 0, 59, 100
2, 77948, Note_off_c, 0, 56, 100
2, 77948, Note_off_c, 0, 51, 100
2, 77952, Note_on_c, 0, 63, 94
2, 77952, Note_on_c, 0, 59, 94
2, 77952, Note_on_c, 0, 56, 94
2, 77952, Note_on_c, 0, 51, 94
2, 78236, Note_off_c, 0, 63, 100
2, 78236, Note_off_c, 0, 59, 100
2, 78236, Note_off_c, 0, 56, 100
2, 78236, Note_off_c, 0, 51, 100
2, 78240, Note_on_c, 0, 63, 100
2, 78240, Note_on_c, 0, 59, 100
2, 78240, Note_on_c, 0, 56, 100
2, 78240, Note_on_c, 0, 51, 100
2, 78332, Note_off_c, 0, 63, 100
2, 78332, Note_off_c, 0, 59, 100
2, 78332, Note_off_c, 0, 56, 100
2, 78332, Note_off_c, 0, 51, 100
2, 78336, Note_on_c, 0, 63, 102
2, 78336, Note_on_c, 0, 58, 102
2, 78336, Note_on_c, 0, 54, 102
2, 78336, Note_on_c, 0, 51, 102
2, 78620, Note_off_c, 0, 63, 100
2, 78620, Note_off_c, 0, 58, 100
2, 78620, Note_off_c, 0, 54, 100
2, 78620, Note_off_c, 0, 51, 100
2, 78624, Note_on_c, 0, 63, 108
2, 78624, Note_on_c, 0, 56, 108
2, 78624, Note_on_c, 0, 51, 108
2, 78624, Note_on_c, 0, 53, 108
2, 78716, Note_off_c, 0, 63, 100
2, 78716, Note_off_c, 0, 56, 100
2, 78716, Note_off_c, 0, 51, 100
2, 78716, Note_off_c, 0, 53, 100
2, 78720, Note_on_c, 0, 63, 109
2, 78720, Note_on_c, 0, 58, 109
2, 78720, Note_on_c, 0, 54, 109
2, 78720, Note_on_c, 0, 51, 109
2, 79868, Note_off_c, 0, 63, 100
2, 79868, Note_off_c, 0, 58, 100
2, 79868, Note_off_c, 0, 54, 100
2, 79868, Note_off_c, 0, 51, 100
2, 79872, Note_on_c, 0, 59, 80
2, 79872, Note_on_c, 0, 63, 80
2, 79872, Note_on_c, 0, 54, 80
2, 80156, Note_off_c, 0, 59, 100
2, 80156, Note_off_c, 0, 63, 100
2, 80156, Note_off_c, 0, 54, 100
2, 80160, Note_on_c, 0, 63, 80
2, 80160, Note_on_c, 0, 59, 80
2, 80160, Note_on_c, 0, 54, 80
2, 80252, Note_off_c, 0, 63, 100
2, 80252, Note_off_c, 0, 59, 100
2, 80252, Note_off_c, 0, 54, 100
2, 80256, Note_on_c, 0, 63, 80
2, 80256, Note_on_c, 0, 59, 80
2, 80256, Note_on_c, 0, 56, 80
2, 80636, Note_off_c, 0, 63, 100
2, 80636, Note_off_c, 0, 59, 100
2, 80636, Note_off_c, 0, 56, 100
2, 80640, Note_on_c, 0, 61, 80
2, 80640, Note_on_c, 0, 59, 80
2, 80640, Note_on_c, 0, 56, 80
2, 80924, Note_off_c, 0, 61, 100
2, 80924, Note_off_c, 0, 59, 100
2, 80924, Note_off_c, 0, 56, 100
2, 80928, Note_on_c, 0, 61, 80
2, 80928, Note_on_c, 0, 59, 80
2, 80928, Note_on_c, 0, 56, 80
2, 81020, Note_off_c, 0, 61, 100
2, 81020, Note_off_c, 0, 59, 100
2, 81020, Note_off_c, 0, 56, 100
2, 81024, Note_on_c, 0, 61, 80
2, 81024, Note_on_c, 0, 59, 80
2, 81024, Note_on_c, 0, 54, 80
2, 81404, Note_off_c, 0, 61, 100
2, 81404, Note_off_c, 0, 59, 100
2, 81404, Note_off_c, 0, 54, 100
2, 81408, Note_on_c, 0, 61, 80
2, 81408, Note_on_c, 0, 58, 80
2, 81408, Note_on_c, 0, 54, 80
2, 81408, Note_on_c, 0, 52, 80
2, 81692, Note_off_c, 0, 61, 100
2, 81692, Note_off_c, 0, 58, 100
2, 81692, Note_off_c, 0, 54, 100
2, 81692, Note_off_c, 0, 52, 100
2, 81696, Note_on_c, 0, 61, 80
2, 81696, Note_on_c, 0, 58, 80
2, 81696, Note_on_c, 0, 54, 80
2, 81696, Note_on_c, 0, 52, 80
2, 81788, Note_off_c, 0, 61, 100
2, 81788, Note_off_c, 0, 58, 100
2, 81788, Note_off_c, 0, 54, 100
2, 81788, Note_off_c, 0, 52, 100
2, 81792, Note_on_c, 0, 59, 80
2, 81792, Note_on_c, 0, 51, 80
2, 81792, Note_on_c, 0, 47, 80
2, 82172, Note_off_c, 0, 59, 100
2, 82172, Note_off_c, 0, 51, 100
2, 82172, Note_off_c, 0, 47, 100
2, 82176, Note_on_c, 0, 59, 80
2, 82176, Note_on_c, 0, 51, 80
2, 82176, Note_on_c, 0, 47, 80
2, 82556, Note_off_c, 0, 59, 100
2, 82556, Note_off_c, 0, 51, 100
2, 82556, Note_off_c, 0, 47, 100
2, 82560, Note_on_c, 0, 59, 80
2, 82560, Note_on_c, 0, 51, 80
2, 82560, Note_on_c, 0, 47, 80
2, 82940, Note_off_c, 0, 59, 100
2, 82940, Note_off_c, 0, 51, 100
2, 82940, Note_off_c, 0, 47, 100
2, 82944, Note_on_c, 0, 66, 80
2, 82944, Note_on_c, 0, 54, 80
2, 83228, Note_off_c, 0, 66, 100
2, 83228, Note_off_c, 0, 54, 100
2, 83232, Note_on_c, 0, 54, 80
2, 83232, Note_on_c, 0, 66, 80
2, 83324, Note_off_c, 0, 54, 100
2, 83324, Note_off_c, 0, 66, 100
2, 83328, Note_on_c, 0, 66, 80
2, 83328, Note_on_c, 0, 62, 80
2, 83328, Note_on_c, 0, 59, 80
2, 83328, Note_on_c, 0, 54, 80
2, 83708, Note_off_c, 0, 66, 100
2, 83708, Note_off_c, 0, 62, 100
2, 83708, Note_off_c, 0, 59, 100
2, 83708, Note_off_c, 0, 54, 100
2, 83712, Note_on_c, 0, 66, 87
2, 83712, Note_on_c, 0, 62, 87
2, 83712, Note_on_c, 0, 59, 87
2, 83712, Note_on_c, 0, 54, 87
2, 83996, Note_off_c, 0, 66, 100
2, 83996, Note_off_c, 0, 62, 100
2, 83996, Note_off_c, 0, 59, 100
2, 83996, Note_off_c, 0, 54, 100
2, 84000, Note_on_c, 0, 66, 93
2, 84000, Note_on_c, 0, 62, 93
2, 84000, Note_on_c, 0, 59, 93
2, 84000, Note_on_c, 0, 54, 93
2, 84092, Note_off_c, 0, 66, 100
2, 84092, Note_off_c, 0, 62, 100
2, 84092, Note_off_c, 0, 59, 100
2, 84092, Note_off_c, 0, 54, 100
2, 84096, Note_on_c, 0, 66, 94
2, 84096, Note_on_c, 0, 62, 94
2, 84096, Note_on_c, 0, 59, 94
2, 84096, Note_on_c, 0, 54, 94
2, 84380, Note_off_c, 0, 66, 100
2, 84380, Note_off_c, 0, 62, 100
2, 84380, Note_off_c, 0, 59, 100
2, 84380, Note_off_c, 0, 54, 100
2, 84384, Note_on_c, 0, 66, 100
2, 84384, Note_on_c, 0, 62, 100
2, 84384, Note_on_c, 0, 59, 100
2, 84384, Note_on_c, 0, 54, 100
2, 84476, Note_off_c, 0, 66, 100
2, 84476, Note_off_c, 0, 62, 100
2, 84476, Note_off_c, 0, 59, 100
2, 84476, Note_off_c, 0, 54, 100
2, 84480, Note_on_c, 0, 66, 102
2, 84480, Note_on_c, 0, 61, 102
2, 84480, Note_on_c, 0, 58, 102
2, 84480, Note_on_c, 0, 54, 102
2, 84764, Note_off_c, 0, 66, 100
2, 84764, Note_off_c, 0, 61, 100
2, 84764, Note_off_c, 0, 58, 100
2, 84764, Note_off_c, 0, 54, 100
2, 84768, Note_on_c, 0, 66, 108
2, 84768, Note_on_c, 0, 62, 108
2, 84768, Note_on_c, 0, 59, 108
2, 84768, Note_on_c, 0, 54, 108
2, 84860, Note_off_c, 0, 66, 100
2, 84860, Note_off_c, 0, 62, 100
2, 84860, Note_off_c, 0, 59, 100
2, 84860, Note_off_c, 0, 54, 100
2, 84864, Note_on_c, 0, 66, 110
2, 84864, Note_on_c, 0, 64, 110
2, 84864, Note_on_c, 0, 61, 110
2, 84864, Note_on_c, 0, 54, 110
2, 86012, Note_off_c, 0, 66, 100
2, 86012, Note_off_c, 0, 64, 100
2, 86012, Note_off_c, 0, 61, 100
2, 86012, Note_off_c, 0, 54, 100
2, 86016, Note_on_c, 0, 66, 110
2, 86016, Note_on_c, 0, 61, 110
2, 86016, Note_on_c, 0, 58, 110
2, 86016, Note_on_c, 0, 54, 110
2, 86300, Note_off_c, 0, 66, 100
2, 86300, Note_off_c, 0, 61, 100
2, 86300, Note_off_c, 0, 58, 100
2, 86300, Note_off_c, 0, 54, 100
2, 86304, Note_on_c, 0, 66, 110
2, 86304, Note_on_c, 0, 61, 110
2, 86304, Note_on_c, 0, 58, 110
2, 86304, Note_on_c, 0, 54, 110
2, 86396, Note_off_c, 0, 66, 100
2, 86396, Note_off_c, 0, 61, 100
2, 86396, Note_off_c, 0, 58, 100
2, 86396, Note_off_c, 0, 54, 100
2, 86400, Note_on_c, 0, 66, 110
2, 86400, Note_on_c, 0, 62, 110
2, 86400, Note_on_c, 0, 59, 110
2, 86400, Note_on_c, 0, 54, 110
2, 86780, Note_off_c, 0, 66, 100
2, 86780, Note_off_c, 0, 62, 100
2, 86780, Note_off_c, 0, 59, 100
2, 86780, Note_off_c, 0, 54, 100
2, 86784, Note_on_c, 0, 66, 110
2, 86784, Note_on_c, 0, 62, 110
2, 86784, Note_on_c, 0, 59, 110
2, 86784, Note_on_c, 0, 54, 110
2, 87068, Note_off_c, 0, 66, 100
2, 87068, Note_off_c, 0, 62, 100
2, 87068, Note_off_c, 0, 59, 100
2, 87068, Note_off_c, 0, 54, 100
2, 87072, Note_on_c, 0, 66, 110
2, 87072, Note_on_c, 0, 62, 110
2, 87072, Note_on_c, 0, 59, 110
2, 87072, Note_on_c, 0, 54, 110
2, 87164, Note_off_c, 0, 66, 100
2, 87164, Note_off_c, 0, 62, 100
2, 87164, Note_off_c, 0, 59, 100
2, 87164, Note_off_c, 0, 54, 100
2, 87168, Note_on_c, 0, 66, 110
2, 87168, Note_on_c, 0, 64, 110
2, 87168, Note_on_c, 0, 61, 110
2, 87168, Note_on_c, 0, 54, 110
2, 87548, Note_off_c, 0, 66, 100
2, 87548, Note_off_c, 0, 64, 100
2, 87548, Note_off_c, 0, 61, 100
2, 87548, Note_off_c, 0, 54, 100
2, 87552, Note_on_c, 0, 66, 110
2, 87552, Note_on_c, 0, 62, 110
2, 87552, Note_on_c, 0, 59, 110
2, 87552, Note_on_c, 0, 54, 110
2, 87836, Note_off_c, 0, 66, 100
2, 87836, Note_off_c, 0, 62, 100
2, 87836, Note_off_c, 0, 59, 100
2, 87836, Note_off_c, 0, 54, 100
2, 87840, Note_on_c, 0, 66, 110
2, 87840, Note_on_c, 0, 62, 110
2, 87840, Note_on_c, 0, 59, 110
2, 87840, Note_on_c, 0, 54, 110
2, 87932, Note_off_c, 0, 66, 100
2, 87932, Note_off_c, 0, 62, 100
2, 87932, Note_off_c, 0, 59, 100
2, 87932, Note_off_c, 0, 54, 100
2, 87936, Note_on_c, 0, 66, 110
2, 87936, Note_on_c, 0, 61, 110
2, 87936, Note_on_c, 0, 58, 110
2, 87936, Note_on_c, 0, 54, 110
2, 88316, Note_off_c, 0, 66, 100
2, 88316, Note_off_c, 0, 61, 100
2, 88316, Note_off_c, 0, 58, 100
2, 88316, Note_off_c, 0, 54, 100
2, 88320, Note_on_c, 0, 66, 110
2, 88320, Note_on_c, 0, 61, 110
2, 88320, Note_on_c, 0, 58, 110
2, 88320, Note_on_c, 0, 54, 110
2, 88700, Note_off_c, 0, 66, 100
2, 88700, Note_off_c, 0, 61, 100
2, 88700, Note_off_c, 0, 58, 100
2, 88700, Note_off_c, 0, 54, 100
2, 88704, Note_on_c, 0, 66, 110
2, 88704, Note_on_c, 0, 61, 110
2, 88704, Note_on_c, 0, 58, 110
2, 88704, Note_on_c, 0, 54, 110
2, 89084, Note_off_c, 0, 66, 100
2, 89084, Note_off_c, 0, 61, 100
2, 89084, Note_off_c, 0, 58, 100
2, 89084, Note_off_c, 0, 54, 100
2, 89088, Note_on_c, 0, 66, 80
2, 89088, Note_on_c, 0, 54, 80
2, 89372, Note_off_c, 0, 66, 100
2, 89372, Note_off_c, 0, 54, 100
2, 89376, Note_on_c, 0, 66, 80
2, 89376, Note_on_c, 0, 54, 80
2, 89468, Note_off_c, 0, 66, 100
2, 89468, Note_off_c, 0, 54, 100
2, 89472, Note_on_c, 0, 66, 80
2, 89472, Note_on_c, 0, 62, 80
2, 89472, Note_on_c, 0, 59, 80
2, 89472, Note_on_c, 0, 54, 80
2, 89852, Note_off_c, 0, 66, 100
2, 89852, Note_off_c, 0, 62, 100
2, 89852, Note_off_c, 0, 59, 100
2, 89852, Note_off_c, 0, 54, 100
2, 89856, Note_on_c, 0, 66, 80
2, 89856, Note_on_c, 0, 62, 80
2, 89856, Note_on_c, 0, 59, 80
2, 89856, Note_on_c, 0, 54, 80
2, 90140, Note_off_c, 0, 66, 100
2, 90140, Note_off_c, 0, 62, 100
2, 90140, Note_off_c, 0, 59, 100
2, 90140, Note_off_c, 0, 54, 100
2, 90144, Note_on_c, 0, 66, 80
2, 90144, Note_on_c, 0, 62, 80
2, 90144, Note_on_c, 0, 59, 80
2, 90144, Note_on_c, 0, 54, 80
2, 90236, Note_off_c, 0, 66, 100
2, 90236, Note_off_c, 0, 62, 100
2, 90236, Note_off_c, 0, 59, 100
2, 90236, Note_off_c, 0, 54, 100
2, 90240, Note_on_c, 0, 66, 80
2, 90240, Note_on_c, 0, 62, 80
2, 90240, Note_on_c, 0, 59, 80
2, 90240, Note_on_c, 0, 54, 80
2, 90524, Note_off_c, 0, 66, 100
2, 90524, Note_off_c, 0, 62, 100
2, 90524, Note_off_c, 0, 59, 100
2, 90524, Note_off_c, 0, 54, 100
2, 90528, Note_on_c, 0, 66, 80
2, 90528, Note_on_c, 0, 62, 80
2, 90528, Note_on_c, 0, 59, 80
2, 90528, Note_on_c, 0, 54, 80
2, 90620, Note_off_c, 0, 66, 100
2, 90620, Note_off_c, 0, 62, 100
2, 90620, Note_off_c, 0, 59, 100
2, 90620, Note_off_c, 0, 54, 100
2, 90624, Note_on_c, 0, 64, 80
2, 90624, Note_on_c, 0, 61, 80
2, 90624, Note_on_c, 0, 59, 80
2, 90624, Note_on_c, 0, 52, 80
2, 90908, Note_off_c, 0, 64, 100
2, 90908, Note_off_c, 0, 61, 100
2, 90908, Note_off_c, 0, 59, 100
2, 90908, Note_off_c, 0, 52, 100
2, 90912, Note_on_c, 0, 66, 80
2, 90912, Note_on_c, 0, 62, 80
2, 90912, Note_on_c, 0, 59, 80
2, 90912, Note_on_c, 0, 54, 80
2, 91004, Note_off_c, 0, 66, 100
2, 91004, Note_off_c, 0, 62, 100
2, 91004, Note_off_c, 0, 59, 100
2, 91004, Note_off_c, 0, 54, 100
2, 91008, Note_on_c, 0, 67, 80
2, 91008, Note_on_c, 0, 64, 80
2, 91008, Note_on_c, 0, 59, 80
2, 91008, Note_on_c, 0, 55, 80
2, 92156, Note_off_c, 0, 67, 100
2, 92156, Note_off_c, 0, 64, 100
2, 92156, Note_off_c, 0, 59, 100
2, 92156, Note_off_c, 0, 55, 100
2, 92160, Note_on_c, 0, 67, 80
2, 92160, Note_on_c, 0, 64, 80
2, 92160, Note_on_c, 0, 59, 80
2, 92160, Note_on_c, 0, 55, 80
2, 92444, Note_off_c, 0, 67, 100
2, 92444, Note_off_c, 0, 64, 100
2, 92444, Note_off_c, 0, 59, 100
2, 92444, Note_off_c, 0, 55, 100
2, 92448, Note_on_c, 0, 67, 80
2, 92448, Note_on_c, 0, 64, 80
2, 92448, Note_on_c, 0, 59, 80
2, 92448, Note_on_c, 0, 55, 80
2, 92540, Note_off_c, 0, 67, 100
2, 92540, Note_off_c, 0, 64, 100
2, 92540, Note_off_c, 0, 59, 100
2, 92540, Note_off_c, 0, 55, 100
2, 92544, Note_on_c, 0, 66, 80
2, 92544, Note_on_c, 0, 62, 80
2, 92544, Note_on_c, 0, 57, 80
2, 92924, Note_off_c, 0, 66, 100
2, 92924, Note_off_c, 0, 62, 100
2, 92924, Note_off_c, 0, 57, 100
2, 92928, Note_on_c, 0, 66, 85
2, 92928, Note_on_c, 0, 62, 85
2, 92928, Note_on_c, 0, 57, 85
2, 93212, Note_off_c, 0, 66, 100
2, 93212, Note_off_c, 0, 62, 100
2, 93212, Note_off_c, 0, 57, 100
2, 93216, Note_on_c, 0, 66, 89
2, 93216, Note_on_c, 0, 62, 89
2, 93216, Note_on_c, 0, 57, 89
2, 93308, Note_off_c, 0, 66, 100
2, 93308, Note_off_c, 0, 62, 100
2, 93308, Note_off_c, 0, 57, 100
2, 93312, Note_on_c, 0, 64, 90
2, 93312, Note_on_c, 0, 61, 90
2, 93312, Note_on_c, 0, 57, 90
2, 93692, Note_off_c, 0, 64, 100
2, 93692, Note_off_c, 0, 61, 100
2, 93692, Note_off_c, 0, 57, 100
2, 93696, Note_on_c, 0, 69, 95
2, 93696, Note_on_c, 0, 64, 95
2, 93696, Note_on_c, 0, 61, 95
2, 93696, Note_on_c, 0, 57, 95
2, 93980, Note_off_c, 0, 69, 100
2, 93980, Note_off_c, 0, 64, 100
2, 93980, Note_off_c, 0, 61, 100
2, 93980, Note_off_c, 0, 57, 100
2, 93984, Note_on_c, 0, 69, 99
2, 93984, Note_on_c, 0, 64, 99
2, 93984, Note_on_c, 0, 61, 99
2, 93984, Note_on_c, 0, 57, 99
2, 94076, Note_off_c, 0, 69, 100
2, 94076, Note_off_c, 0, 64, 100
2, 94076, Note_off_c, 0, 61, 100
2, 94076, Note_off_c, 0, 57, 100
2, 94080, Note_on_c, 0, 62, 80
2, 94460, Note_off_c, 0, 62, 100
2, 94464, Note_on_c, 0, 62, 80
2, 94844, Note_off_c, 0, 62, 100
2, 94848, Note_on_c, 0, 62, 80
2, 95228, Note_off_c, 0, 62, 100
2, 95232, Note_on_c, 0, 71, 70
2, 95232, Note_on_c, 0, 65, 70
2, 95516, Note_off_c, 0, 71, 100
2, 95516, Note_off_c, 0, 65, 100
2, 95520, Note_on_c, 0, 71, 73
2, 95520, Note_on_c, 0, 65, 73
2, 95612, Note_off_c, 0, 71, 100
2, 95612, Note_off_c, 0, 65, 100
2, 95616, Note_on_c, 0, 71, 75
2, 95616, Note_on_c, 0, 65, 75
2, 96380, Note_off_c, 0, 71, 100
2, 96380, Note_off_c, 0, 65, 100
2, 96384, Note_on_c, 0, 70, 85
2, 96384, Note_on_c, 0, 65, 85
2, 96764, Note_off_c, 0, 70, 100
2, 96764, Note_off_c, 0, 65, 100
2, 96768, Note_on_c, 0, 68, 90
2, 96768, Note_on_c, 0, 65, 90
2, 97148, Note_off_c, 0, 68, 100
2, 97148, Note_off_c, 0, 65, 100
2, 97152, Note_on_c, 0, 67, 96
2, 97152, Note_on_c, 0, 63, 96
2, 97436, Note_off_c, 0, 67, 100
2, 97436, Note_off_c, 0, 63, 100
2, 97440, Note_on_c, 0, 71, 99
2, 97440, Note_on_c, 0, 65, 99
2, 97532, Note_off_c, 0, 71, 100
2, 97532, Note_off_c, 0, 65, 100
2, 97536, Note_on_c, 0, 71, 110
2, 97536, Note_on_c, 0, 65, 110
2, 98300, Note_off_c, 0, 71, 100
2, 98300, Note_off_c, 0, 65, 100
2, 98304, Note_on_c, 0, 70, 110
2, 98304, Note_on_c, 0, 65, 110
2, 98588, Note_off_c, 0, 70, 100
2, 98588, Note_off_c, 0, 65, 100
2, 98592, Note_on_c, 0, 68, 110
2, 98592, Note_on_c, 0, 65, 110
2, 98684, Note_off_c, 0, 68, 100
2, 98684, Note_off_c, 0, 65, 100
2, 98688, Note_on_c, 0, 67, 110
2, 98688, Note_on_c, 0, 63, 110
2, 98972, Note_off_c, 0, 67, 100
2, 98972, Note_off_c, 0, 63, 100
2, 98976, Note_on_c, 0, 71, 120
2, 98976, Note_on_c, 0, 65, 120
2, 99068, Note_off_c, 0, 71, 100
2, 99068, Note_off_c, 0, 65, 100
2, 99072, Note_on_c, 0, 71, 120
2, 99072, Note_on_c, 0, 65, 120
2, 99356, Note_off_c, 0, 71, 100
2, 99356, Note_off_c, 0, 65, 100
2, 99360, Note_on_c, 0, 71, 120
2, 99360, Note_on_c, 0, 65, 120
2, 99452, Note_off_c, 0, 71, 100
2, 99452, Note_off_c, 0, 65, 100
2, 99456, Note_on_c, 0, 71, 120
2, 99456, Note_on_c, 0, 65, 120
2, 99740, Note_off_c, 0, 71, 100
2, 99740, Note_off_c, 0, 65, 100
2, 99744, Note_on_c, 0, 71, 120
2, 99744, Note_on_c, 0, 65, 120
2, 99836, Note_off_c, 0, 71, 100
2, 99836, Note_off_c, 0, 65, 100
2, 99840, Note_on_c, 0, 70, 120
2, 99840, Note_on_c, 0, 65, 120
2, 100124, Note_off_c, 0, 70, 100
2, 100124, Note_off_c, 0, 65, 100
2, 100128, Note_on_c, 0, 68, 120
2, 100128, Note_on_c, 0, 65, 120
2, 100220, Note_off_c, 0, 68, 100
2, 100220, Note_off_c, 0, 65, 100
2, 100224, Note_on_c, 0, 67, 120
2, 100224, Note_on_c, 0, 63, 120
2, 100604, Note_off_c, 0, 67, 100
2, 100604, Note_off_c, 0, 63, 100
2, 100608, Note_on_c, 0, 64, 120
2, 101372, Note_off_c, 0, 64, 100
2, 101376, Note_on_c, 0, 63, 120
2, 101468, Note_off_c, 0, 63, 100
2, 101472, Note_on_c, 0, 61, 120
2, 101564, Note_off_c, 0, 61, 100
2, 101568, Note_on_c, 0, 59, 120
2, 101660, Note_off_c, 0, 59, 100
2, 101664, Note_on_c, 0, 58, 120
2, 101756, Note_off_c, 0, 58, 100
2, 101760, Note_on_c, 0, 56, 120
2, 102140, Note_off_c, 0, 56, 100
2, 102144, Note_on_c, 0, 63, 80
2, 102144, Note_on_c, 0, 59, 80
2, 102144, Note_on_c, 0, 56, 80
2, 102144, Note_on_c, 0, 51, 80
2, 102428, Note_off_c, 0, 63, 100
2, 102428, Note_off_c, 0, 59, 100
2, 102428, Note_off_c, 0, 56, 100
2, 102428, Note_off_c, 0, 51, 100
2, 102432, Note_on_c, 0, 63, 80
2, 102432, Note_on_c, 0, 59, 80
2, 102432, Note_on_c, 0, 56, 80
2, 102432, Note_on_c, 0, 51, 80
2, 102524, Note_off_c, 0, 63, 100
2, 102524, Note_off_c, 0, 59, 100
2, 102524, Note_off_c, 0, 56, 100
2, 102524, Note_off_c, 0, 51, 100
2, 102528, Note_on_c, 0, 63, 80
2, 102528, Note_on_c, 0, 59, 80
2, 102528, Note_on_c, 0, 56, 80
2, 102528, Note_on_c, 0, 51, 80
2, 102812, Note_off_c, 0, 63, 100
2, 102812, Note_off_c, 0, 59, 100
2, 102812, Note_off_c, 0, 56, 100
2, 102812, Note_off_c, 0, 51, 100
2, 102816, Note_on_c, 0, 63, 80
2, 102816, Note_on_c, 0, 59, 80
2, 102816, Note_on_c, 0, 56, 80
2, 102816, Note_on_c, 0, 51, 80
2, 102908, Note_off_c, 0, 63, 100
2, 102908, Note_off_c, 0, 59, 100
2, 102908, Note_off_c, 0, 56, 100
2, 102908, Note_off_c, 0, 51, 100
2, 102912, Note_on_c, 0, 63, 80
2, 102912, Note_on_c, 0, 58, 80
2, 102912, Note_on_c, 0, 55, 80
2, 102912, Note_on_c, 0, 51, 80
2, 103196, Note_off_c, 0, 63, 100
2, 103196, Note_off_c, 0, 58, 100
2, 103196, Note_off_c, 0, 55, 100
2, 103196, Note_off_c, 0, 51, 100
2, 103200, Note_on_c, 0, 63, 80
2, 103200, Note_on_c, 0, 59, 80
2, 103200, Note_on_c, 0, 56, 80
2, 103200, Note_on_c, 0, 51, 80
2, 103292, Note_off_c, 0, 63, 100
2, 103292, Note_off_c, 0, 59, 100
2, 103292, Note_off_c, 0, 56, 100
2, 103292, Note_off_c, 0, 51, 100
2, 103296, Note_on_c, 0, 63, 80
2, 103296, Note_on_c, 0, 61, 80
2, 103296, Note_on_c, 0, 58, 80
2, 103296, Note_on_c, 0, 51, 80
2, 104444, Note_off_c, 0, 63, 100
2, 104444, Note_off_c, 0, 61, 100
2, 104444, Note_off_c, 0, 58, 100
2, 104444, Note_off_c, 0, 51, 100
2, 104448, Note_on_c, 0, 63, 80
2, 104448, Note_on_c, 0, 58, 80
2, 104448, Note_on_c, 0, 55, 80
2, 104448, Note_on_c, 0, 51, 80
2, 104732, Note_off_c, 0, 63, 100
2, 104732, Note_off_c, 0, 58, 100
2, 104732, Note_off_c, 0, 55, 100
2, 104732, Note_off_c, 0, 51, 100
2, 104736, Note_on_c, 0, 63, 80
2, 104736, Note_on_c, 0, 58, 80
2, 104736, Note_on_c, 0, 55, 80
2, 104736, Note_on_c, 0, 51, 80
2, 104828, Note_off_c, 0, 63, 100
2, 104828, Note_off_c, 0, 58, 100
2, 104828, Note_off_c, 0, 55, 100
2, 104828, Note_off_c, 0, 51, 100
2, 104832, Note_on_c, 0, 63, 80
2, 104832, Note_on_c, 0, 59, 80
2, 104832, Note_on_c, 0, 56, 80
2, 104832, Note_on_c, 0, 51, 80
2, 105212, Note_off_c, 0, 63, 100
2, 105212, Note_off_c, 0, 59, 100
2, 105212, Note_off_c, 0, 56, 100
2, 105212, Note_off_c, 0, 51, 100
2, 105216, Note_on_c, 0, 63, 80
2, 105216, Note_on_c, 0, 59, 80
2, 105216, Note_on_c, 0, 56, 80
2, 105216, Note_on_c, 0, 51, 80
2, 105500, Note_off_c, 0, 63, 100
2, 105500, Note_off_c, 0, 59, 100
2, 105500, Note_off_c, 0, 56, 100
2, 105500, Note_off_c, 0, 51, 100
2, 105504, Note_on_c, 0, 59, 80
2, 105504, Note_on_c, 0, 56, 80
2, 105504, Note_on_c, 0, 63, 80
2, 105504, Note_on_c, 0, 51, 80
2, 105596, Note_off_c, 0, 59, 100
2, 105596, Note_off_c, 0, 56, 100
2, 105596, Note_off_c, 0, 63, 100
2, 105596, Note_off_c, 0, 51, 100
2, 105600, Note_on_c, 0, 63, 80
2, 105600, Note_on_c, 0, 61, 80
2, 105600, Note_on_c, 0, 58, 80
2, 105600, Note_on_c, 0, 51, 80
2, 105980, Note_off_c, 0, 63, 100
2, 105980, Note_off_c, 0, 61, 100
2, 105980, Note_off_c, 0, 58, 100
2, 105980, Note_off_c, 0, 51, 100
2, 105984, Note_on_c, 0, 63, 80
2, 105984, Note_on_c, 0, 59, 80
2, 105984, Note_on_c, 0, 56, 80
2, 105984, Note_on_c, 0, 51, 80
2, 106268, Note_off_c, 0, 63, 100
2, 106268, Note_off_c, 0, 59, 100
2, 106268, Note_off_c, 0, 56, 100
2, 106268, Note_off_c, 0, 51, 100
2, 106272, Note_on_c, 0, 59, 80
2, 106272, Note_on_c, 0, 56, 80
2, 106272, Note_on_c, 0, 63, 80
2, 106272, Note_on_c, 0, 51, 80
2, 106364, Note_off_c, 0, 59, 100
2, 106364, Note_off_c, 0, 56, 100
2, 106364, Note_off_c, 0, 63, 100
2, 106364, Note_off_c, 0, 51, 100
2, 106368, Note_on_c, 0, 63, 80
2, 106368, Note_on_c, 0, 58, 80
2, 106368, Note_on_c, 0, 55, 80
2, 106368, Note_on_c, 0, 51, 80
2, 106748, Note_off_c, 0, 63, 100
2, 106748, Note_off_c, 0, 58, 100
2, 106748, Note_off_c, 0, 55, 100
2, 106748, Note_off_c, 0, 51, 100
2, 106752, Note_on_c, 0, 63, 80
2, 106752, Note_on_c, 0, 58, 80
2, 106752, Note_on_c, 0, 55, 80
2, 106752, Note_on_c, 0, 51, 80
2, 107132, Note_off_c, 0, 63, 100
2, 107132, Note_off_c, 0, 58, 100
2, 107132, Note_off_c, 0, 55, 100
2, 107132, Note_off_c, 0, 51, 100
2, 107136, Note_on_c, 0, 63, 80
2, 107136, Note_on_c, 0, 58, 80
2, 107136, Note_on_c, 0, 55, 80
2, 107136, Note_on_c, 0, 51, 80
2, 107516, Note_off_c, 0, 63, 100
2, 107516, Note_off_c, 0, 58, 100
2, 107516, Note_off_c, 0, 55, 100
2, 107516, Note_off_c, 0, 51, 100
2, 107520, Note_on_c, 0, 51, 80
2, 107520, Note_on_c, 0, 63, 80
2, 107804, Note_off_c, 0, 51, 100
2, 107804, Note_off_c, 0, 63, 100
2, 107808, Note_on_c, 0, 63, 80
2, 107808, Note_on_c, 0, 51, 80
2, 107900, Note_off_c, 0, 63, 100
2, 107900, Note_off_c, 0, 51, 100
2, 107904, Note_on_c, 0, 63, 80
2, 107904, Note_on_c, 0, 60, 80
2, 107904, Note_on_c, 0, 56, 80
2, 107904, Note_on_c, 0, 51, 80
2, 108284, Note_off_c, 0, 63, 100
2, 108284, Note_off_c, 0, 60, 100
2, 108284, Note_off_c, 0, 56, 100
2, 108284, Note_off_c, 0, 51, 100
2, 108288, Note_on_c, 0, 63, 80
2, 108288, Note_on_c, 0, 60, 80
2, 108288, Note_on_c, 0, 56, 80
2, 108288, Note_on_c, 0, 51, 80
2, 108572, Note_off_c, 0, 63, 100
2, 108572, Note_off_c, 0, 60, 100
2, 108572, Note_off_c, 0, 56, 100
2, 108572, Note_off_c, 0, 51, 100
2, 108576, Note_on_c, 0, 63, 80
2, 108576, Note_on_c, 0, 60, 80
2, 108576, Note_on_c, 0, 56, 80
2, 108576, Note_on_c, 0, 51, 80
2, 108668, Note_off_c, 0, 63, 100
2, 108668, Note_off_c, 0, 60, 100
2, 108668, Note_off_c, 0, 56, 100
2, 108668, Note_off_c, 0, 51, 100
2, 108672, Note_on_c, 0, 63, 80
2, 108672, Note_on_c, 0, 60, 80
2, 108672, Note_on_c, 0, 56, 80
2, 108672, Note_on_c, 0, 51, 80
2, 108956, Note_off_c, 0, 63, 100
2, 108956, Note_off_c, 0, 60, 100
2, 108956, Note_off_c, 0, 56, 100
2, 108956, Note_off_c, 0, 51, 100
2, 108960, Note_on_c, 0, 63, 80
2, 108960, Note_on_c, 0, 60, 80
2, 108960, Note_on_c, 0, 56, 80
2, 108960, Note_on_c, 0, 51, 80
2, 109052, Note_off_c, 0, 63, 100
2, 109052, Note_off_c, 0, 60, 100
2, 109052, Note_off_c, 0, 56, 100
2, 109052, Note_off_c, 0, 51, 100
2, 109056, Note_on_c, 0, 58, 80
2, 109056, Note_on_c, 0, 61, 80
2, 109056, Note_on_c, 0, 49, 80
2, 109056, Note_on_c, 0, 56, 80
2, 109340, Note_off_c, 0, 58, 100
2, 109340, Note_off_c, 0, 61, 100
2, 109340, Note_off_c, 0, 49, 100
2, 109340, Note_off_c, 0, 56, 100
2, 109344, Note_on_c, 0, 63, 80
2, 109344, Note_on_c, 0, 51, 80
2, 109344, Note_on_c, 0, 60, 80
2, 109344, Note_on_c, 0, 56, 80
2, 109436, Note_off_c, 0, 63, 100
2, 109436, Note_off_c, 0, 51, 100
2, 109436, Note_off_c, 0, 60, 100
2, 109436, Note_off_c, 0, 56, 100
2, 109440, Note_on_c, 0, 64, 80
2, 109440, Note_on_c, 0, 61, 80
2, 109440, Note_on_c, 0, 56, 80
2, 109440, Note_on_c, 0, 52, 80
2, 110588, Note_off_c, 0, 64, 100
2, 110588, Note_off_c, 0, 61, 100
2, 110588, Note_off_c, 0, 56, 100
2, 110588, Note_off_c, 0, 52, 100
2, 110592, Note_on_c, 0, 64, 99
2, 110592, Note_on_c, 0, 61, 99
2, 110592, Note_on_c, 0, 56, 99
2, 110592, Note_on_c, 0, 52, 99
2, 110972, Note_off_c, 0, 64, 100
2, 110972, Note_off_c, 0, 61, 100
2, 110972, Note_off_c, 0, 56, 100
2, 110972, Note_off_c, 0, 52, 100
2, 110976, Note_on_c, 0, 73, 110
2, 110976, Note_on_c, 0, 69, 110
2, 110976, Note_on_c, 0, 64, 110
2, 110976, Note_on_c, 0, 61, 110
2, 112124, Note_off_c, 0, 73, 100
2, 112124, Note_off_c, 0, 69, 100
2, 112124, Note_off_c, 0, 64, 100
2, 112124, Note_off_c, 0, 61, 100
2, 112128, Note_on_c, 0, 73, 110
2, 112128, Note_on_c, 0, 69, 110
2, 112128, Note_on_c, 0, 64, 110
2, 112128, Note_on_c, 0, 61, 110
2, 112508, Note_off_c, 0, 73, 100
2, 112508, Note_off_c, 0, 69, 100
2, 112508, Note_off_c, 0, 64, 100
2, 112508, Note_off_c, 0, 61, 100
2, 112512, Note_on_c, 0, 82, 120
2, 112512, Note_on_c, 0, 75, 120
2, 112512, Note_on_c, 0, 73, 120
2, 112512, Note_on_c, 0, 70, 120
2, 113660, Note_off_c, 0, 82, 100
2, 113660, Note_off_c, 0, 75, 100
2, 113660, Note_off_c, 0, 73, 100
2, 113660, Note_off_c, 0, 70, 100
2, 113664, Note_on_c, 0, 82, 120
2, 113664, Note_on_c, 0, 75, 120
2, 113664, Note_on_c, 0, 73, 120
2, 113664, Note_on_c, 0, 70, 120
2, 114044, Note_off_c, 0, 82, 100
2, 114044, Note_off_c, 0, 75, 100
2, 114044, Note_off_c, 0, 73, 100
2, 114044, Note_off_c, 0, 70, 100
2, 114048, Note_on_c, 0, 83, 120
2, 114048, Note_on_c, 0, 75, 120
2, 114048, Note_on_c, 0, 71, 120
2, 114812, Note_off_c, 0, 83, 100
2, 114812, Note_off_c, 0, 75, 100
2, 114812, Note_off_c, 0, 71, 100
2, 114816, Note_on_c, 0, 82, 120
2, 114816, Note_on_c, 0, 76, 120
2, 114816, Note_on_c, 0, 73, 120
2, 114816, Note_on_c, 0, 70, 120
2, 115196, Note_off_c, 0, 82, 100
2, 115196, Note_off_c, 0, 76, 100
2, 115196, Note_off_c, 0, 73, 100
2, 115196, Note_off_c, 0, 70, 100
2, 115200, Note_on_c, 0, 79, 120
2, 115200, Note_on_c, 0, 73, 120
2, 115200, Note_on_c, 0, 70, 120
2, 115200, Note_on_c, 0, 67, 120
2, 115580, Note_off_c, 0, 79, 100
2, 115580, Note_off_c, 0, 73, 100
2, 115580, Note_off_c, 0, 70, 100
2, 115580, Note_off_c, 0, 67, 100
2, 115584, Note_on_c, 0, 80, 120
2, 115584, Note_on_c, 0, 71, 120
2, 115584, Note_on_c, 0, 68, 120
2, 115964, Note_off_c, 0, 80, 100
2, 115964, Note_off_c, 0, 71, 100
2, 115964, Note_off_c, 0, 68, 100
2, 116736, Note_on_c, 0, 69, 80
2, 116736, Note_on_c, 0, 66, 80
2, 117020, Note_off_c, 0, 69, 100
2, 117020, Note_off_c, 0, 66, 100
2, 117024, Note_on_c, 0, 68, 80
2, 117024, Note_on_c, 0, 64, 80
2, 117116, Note_off_c, 0, 68, 100
2, 117116, Note_off_c, 0, 64, 100
2, 117120, Note_on_c, 0, 66, 80
2, 117120, Note_on_c, 0, 63, 80
2, 117788, Note_off_c, 0, 66, 100
2, 117788, Note_off_c, 0, 63, 100
2, 117792, Note_on_c, 0, 64, 80
2, 117792, Note_on_c, 0, 61, 80
2, 117884, Note_off_c, 0, 64, 100
2, 117884, Note_off_c, 0, 61, 100
2, 117888, Note_on_c, 0, 63, 80
2, 117888, Note_on_c, 0, 61, 80
2, 118268, Note_off_c, 0, 63, 100
2, 118268, Note_off_c, 0, 61, 100
2, 118272, Note_on_c, 0, 63, 80
2, 118272, Note_on_c, 0, 61, 80
2, 118652, Note_off_c, 0, 63, 100
2, 118652, Note_off_c, 0, 61, 100
2, 118656, Note_on_c, 0, 60, 80
2, 118656, Note_on_c, 0, 63, 80
2, 119036, Note_off_c, 0, 60, 100
2, 119036, Note_off_c, 0, 63, 100
2, 119808, Note_on_c, 0, 72, 80
2, 119808, Note_on_c, 0, 66, 80
2, 119808, Note_on_c, 0, 63, 80
2, 120140, Note_off_c, 0, 72, 100
2, 120140, Note_off_c, 0, 66, 100
2, 120140, Note_off_c, 0, 63, 100
2, 120144, Note_on_c, 0, 64, 80
2, 120144, Note_on_c, 0, 73, 80
2, 120144, Note_on_c, 0, 68, 80
2, 120188, Note_off_c, 0, 64, 100
2, 120188, Note_off_c, 0, 73, 100
2, 120188, Note_off_c, 0, 68, 100
2, 120192, Note_on_c, 0, 75, 80
2, 120192, Note_on_c, 0, 69, 80
2, 120192, Note_on_c, 0, 66, 80
2, 120860, Note_off_c, 0, 75, 100
2, 120860, Note_off_c, 0, 69, 100
2, 120860, Note_off_c, 0, 66, 100
2, 120864, Note_on_c, 0, 76, 80
2, 120864, Note_on_c, 0, 73, 80
2, 120864, Note_on_c, 0, 68, 80
2, 120956, Note_off_c, 0, 76, 100
2, 120956, Note_off_c, 0, 73, 100
2, 120956, Note_off_c, 0, 68, 100
2, 120960, Note_on_c, 0, 78, 80
2, 120960, Note_on_c, 0, 72, 80
2, 120960, Note_on_c, 0, 69, 80
2, 121340, Note_off_c, 0, 78, 100
2, 121340, Note_off_c, 0, 72, 100
2, 121340, Note_off_c, 0, 69, 100
2, 121344, Note_on_c, 0, 79, 80
2, 121344, Note_on_c, 0, 76, 80
2, 121344, Note_on_c, 0, 70, 80
2, 121724, Note_off_c, 0, 79, 100
2, 121724, Note_off_c, 0, 76, 100
2, 121724, Note_off_c, 0, 70, 100
2, 121728, Note_on_c, 0, 80, 80
2, 121728, Note_on_c, 0, 75, 80
2, 121728, Note_on_c, 0, 72, 80
2, 122492, Note_off_c, 0, 80, 100
2, 122492, Note_off_c, 0, 75, 100
2, 122492, Note_off_c, 0, 72, 100
2, 122496, Note_on_c, 0, 81, 100
2, 122496, Note_on_c, 0, 69, 100
2, 123164, Note_off_c, 0, 81, 100
2, 123164, Note_off_c, 0, 69, 100
2, 123168, Note_on_c, 0, 79, 80
2, 123168, Note_on_c, 0, 67, 80
2, 123260, Note_off_c, 0, 79, 100
2, 123260, Note_off_c, 0, 67, 100
2, 123264, Note_on_c, 0, 80, 80
2, 123264, Note_on_c, 0, 68, 80
2, 123644, Note_off_c, 0, 80, 100
2, 123644, Note_off_c, 0, 68, 100
2, 124032, Note_on_c, 0, 69, 80
2, 124032, Note_on_c, 0, 64, 80
2, 124032, Note_on_c, 0, 61, 80
2, 124700, Note_off_c, 0, 69, 100
2, 124704, Note_on_c, 0, 67, 80
2, 124796, Note_off_c, 0, 64, 100
2, 124796, Note_off_c, 0, 61, 100
2, 124796, Note_off_c, 0, 67, 100
2, 124800, Control_c, 0, 64, 127
2, 124800, Note_on_c, 0, 63, 80
2, 124800, Note_on_c, 0, 60, 80
2, 124800, Note_on_c, 0, 68, 80
2, 125564, Note_off_c, 0, 63, 100
2, 125564, Note_off_c, 0, 60, 100
2, 125568, Note_on_c, 0, 63, 73
2, 125568, Note_on_c, 0, 60, 73
2, 125948, Note_off_c, 0, 63, 100
2, 125948, Note_off_c, 0, 60, 100
2, 125952, Note_on_c, 0, 63, 69
2, 125952, Note_on_c, 0, 60, 69
2, 126332, Note_off_c, 0, 63, 100
2, 126332, Note_off_c, 0, 60, 100
2, 126336, Note_on_c, 0, 63, 66
2, 126336, Note_on_c, 0, 60, 66
2, 126336, Note_on_c, 0, 56, 66
2, 127864, Control_c, 0, 64, 0
2, 127868, Note_off_c, 0, 68, 100
2, 127868, Note_off_c, 0, 63, 100
2, 127868, Note_off_c, 0, 60, 100
2, 127868, Note_off_c, 0, 56, 100
2, 127872, Control_c, 0, 7, 0
2, 128640, Note_on_c, 0, 68, 1
2, 129020, Note_off_c, 0, 68, 100
2, 129020, End_track
3, 0, Start_track
3, 0, Title_t, "Left"
3, 0, Control_c, 1, 0, 0
3, 0, Program_c, 1, 0
3, 0, Control_c, 1, 7, 100
3, 0, Control_c, 1, 10, 52
3, 0, Control_c, 1, 91, 127
3, 0, Key_signature, -7, "minor"
3, 384, Note_on_c, 1, 44, 80
3, 384, Note_on_c, 1, 32, 80
3, 1148, Note_off_c, 1, 32, 100
3, 1152, Note_on_c, 1, 32, 80
3, 1916, Note_off_c, 1, 44, 100
3, 1916, Note_off_c, 1, 32, 100
3, 1920, Note_on_c, 1, 39, 80
3, 2204, Note_off_c, 1, 39, 100
3, 2208, Note_on_c, 1, 39, 80
3, 2300, Note_off_c, 1, 39, 100
3, 2304, Note_on_c, 1, 43, 80
3, 2588, Note_off_c, 1, 43, 100
3, 2592, Note_on_c, 1, 46, 80
3, 2684, Note_off_c, 1, 46, 100
3, 2688, Note_on_c, 1, 51, 80
3, 3068, Note_off_c, 1, 51, 100
3, 3072, Note_on_c, 1, 51, 80
3, 3072, Note_on_c, 1, 49, 80
3, 3356, Note_off_c, 1, 51, 100
3, 3356, Note_off_c, 1, 49, 100
3, 3360, Note_on_c, 1, 51, 80
3, 3360, Note_on_c, 1, 49, 80
3, 3452, Note_off_c, 1, 51, 100
3, 3452, Note_off_c, 1, 49, 100
3, 3456, Note_on_c, 1, 47, 80
3, 3456, Note_on_c, 1, 51, 80
3, 3836, Note_off_c, 1, 47, 100
3, 3836, Note_off_c, 1, 51, 100
3, 3840, Note_on_c, 1, 51, 80
3, 3840, Note_on_c, 1, 44, 80
3, 4124, Note_off_c, 1, 51, 100
3, 4124, Note_off_c, 1, 44, 100
3, 4128, Note_on_c, 1, 51, 80
3, 4128, Note_on_c, 1, 44, 80
3, 4220, Note_off_c, 1, 51, 100
3, 4220, Note_off_c, 1, 44, 100
3, 4224, Note_on_c, 1, 51, 80
3, 4224, Note_on_c, 1, 43, 80
3, 4604, Note_off_c, 1, 51, 100
3, 4604, Note_off_c, 1, 43, 100
3, 4608, Note_on_c, 1, 51, 80
3, 4608, Note_on_c, 1, 44, 80
3, 4892, Note_off_c, 1, 51, 100
3, 4892, Note_off_c, 1, 44, 100
3, 4896, Note_on_c, 1, 51, 80
3, 4896, Note_on_c, 1, 44, 80
3, 4988, Note_off_c, 1, 51, 100
3, 4988, Note_off_c, 1, 44, 100
3, 4992, Note_on_c, 1, 51, 80
3, 4992, Note_on_c, 1, 39, 80
3, 5372, Note_off_c, 1, 51, 100
3, 5372, Note_off_c, 1, 39, 100
3, 5376, Note_on_c, 1, 51, 80
3, 5376, Note_on_c, 1, 39, 80
3, 5756, Note_off_c, 1, 51, 100
3, 5756, Note_off_c, 1, 39, 100
3, 5760, Note_on_c, 1, 51, 80
3, 5760, Note_on_c, 1, 39, 80
3, 6140, Note_off_c, 1, 51, 100
3, 6140, Note_off_c, 1, 39, 100
3, 6528, Note_on_c, 1, 44, 80
3, 6528, Note_on_c, 1, 32, 80
3, 7292, Note_off_c, 1, 32, 100
3, 7296, Note_on_c, 1, 32, 80
3, 8060, Note_off_c, 1, 44, 100
3, 8060, Note_off_c, 1, 32, 100
3, 8064, Note_on_c, 1, 39, 80
3, 8348, Note_off_c, 1, 39, 100
3, 8352, Note_on_c, 1, 39, 80
3, 8444, Note_off_c, 1, 39, 100
3, 8448, Note_on_c, 1, 42, 80
3, 8732, Note_off_c, 1, 42, 100
3, 8736, Note_on_c, 1, 46, 80
3, 8828, Note_off_c, 1, 46, 100
3, 8832, Note_on_c, 1, 51, 80
3, 9212, Note_off_c, 1, 51, 100
3, 9216, Note_on_c, 1, 47, 80
3, 9500, Note_off_c, 1, 47, 100
3, 9504, Note_on_c, 1, 47, 80
3, 9596, Note_off_c, 1, 47, 100
3, 9600, Note_on_c, 1, 44, 80
3, 9980, Note_off_c, 1, 44, 100
3, 9984, Note_on_c, 1, 40, 80
3, 10268, Note_off_c, 1, 40, 100
3, 10272, Note_on_c, 1, 40, 80
3, 10364, Note_off_c, 1, 40, 100
3, 10368, Note_on_c, 1, 42, 80
3, 10748, Note_off_c, 1, 42, 100
3, 10752, Note_on_c, 1, 42, 80
3, 10752, Note_on_c, 1, 30, 80
3, 11036, Note_off_c, 1, 42, 100
3, 11036, Note_off_c, 1, 30, 100
3, 11040, Note_on_c, 1, 42, 80
3, 11040, Note_on_c, 1, 30, 80
3, 11132, Note_off_c, 1, 42, 100
3, 11132, Note_off_c, 1, 30, 100
3, 11136, Note_on_c, 1, 47, 80
3, 11136, Note_on_c, 1, 35, 80
3, 11516, Note_off_c, 1, 47, 100
3, 11516, Note_off_c, 1, 35, 100
3, 11520, Note_on_c, 1, 47, 80
3, 11520, Note_on_c, 1, 35, 80
3, 11900, Note_off_c, 1, 47, 100
3, 11900, Note_off_c, 1, 35, 100
3, 11904, Note_on_c, 1, 47, 80
3, 11904, Note_on_c, 1, 35, 80
3, 12284, Note_off_c, 1, 47, 100
3, 12284, Note_off_c, 1, 35, 100
3, 12672, Note_on_c, 1, 35, 80
3, 12672, Note_on_c, 1, 47, 80
3, 13436, Note_off_c, 1, 35, 100
3, 13440, Note_on_c, 1, 35, 86
3, 14204, Note_off_c, 1, 47, 100
3, 14204, Note_off_c, 1, 35, 100
3, 14208, Note_on_c, 1, 30, 100
3, 14208, Note_on_c, 1, 42, 100
3, 14492, Note_off_c, 1, 30, 100
3, 14492, Note_off_c, 1, 42, 100
3, 14496, Note_on_c, 1, 42, 100
3, 14496, Note_on_c, 1, 30, 100
3, 14588, Note_off_c, 1, 42, 100
3, 14588, Note_off_c, 1, 30, 100
3, 14592, Note_on_c, 1, 46, 100
3, 14592, Note_on_c, 1, 34, 100
3, 14876, Note_off_c, 1, 46, 100
3, 14876, Note_off_c, 1, 34, 100
3, 14880, Note_on_c, 1, 49, 100
3, 14880, Note_on_c, 1, 37, 100
3, 14972, Note_off_c, 1, 49, 100
3, 14972, Note_off_c, 1, 37, 100
3, 14976, Note_on_c, 1, 54, 100
3, 14976, Note_on_c, 1, 42, 100
3, 15356, Note_off_c, 1, 54, 100
3, 15356, Note_off_c, 1, 42, 100
3, 15360, Note_on_c, 1, 52, 100
3, 15360, Note_on_c, 1, 40, 100
3, 15644, Note_off_c, 1, 52, 100
3, 15644, Note_off_c, 1, 40, 100
3, 15648, Note_on_c, 1, 52, 100
3, 15648, Note_on_c, 1, 40, 100
3, 15740, Note_off_c, 1, 52, 100
3, 15740, Note_off_c, 1, 40, 100
3, 15744, Note_on_c, 1, 50, 100
3, 15744, Note_on_c, 1, 38, 100
3, 16124, Note_off_c, 1, 50, 100
3, 16124, Note_off_c, 1, 38, 100
3, 16128, Note_on_c, 1, 47, 100
3, 16128, Note_on_c, 1, 35, 100
3, 16412, Note_off_c, 1, 47, 100
3, 16412, Note_off_c, 1, 35, 100
3, 16416, Note_on_c, 1, 47, 100
3, 16416, Note_on_c, 1, 35, 100
3, 16508, Note_off_c, 1, 47, 100
3, 16508, Note_off_c, 1, 35, 100
3, 16512, Note_on_c, 1, 46, 100
3, 16512, Note_on_c, 1, 34, 100
3, 16892, Note_off_c, 1, 46, 100
3, 16892, Note_off_c, 1, 34, 100
3, 16896, Note_on_c, 1, 47, 100
3, 16896, Note_on_c, 1, 35, 100
3, 17180, Note_off_c, 1, 47, 100
3, 17180, Note_off_c, 1, 35, 100
3, 17184, Note_on_c, 1, 47, 100
3, 17184, Note_on_c, 1, 35, 100
3, 17276, Note_off_c, 1, 47, 100
3, 17276, Note_off_c, 1, 35, 100
3, 17280, Note_on_c, 1, 42, 100
3, 17280, Note_on_c, 1, 30, 100
3, 17660, Note_off_c, 1, 42, 100
3, 17660, Note_off_c, 1, 30, 100
3, 17664, Note_on_c, 1, 42, 100
3, 17664, Note_on_c, 1, 30, 100
3, 18044, Note_off_c, 1, 42, 100
3, 18044, Note_off_c, 1, 30, 100
3, 18048, Note_on_c, 1, 42, 100
3, 18048, Note_on_c, 1, 30, 100
3, 18428, Note_off_c, 1, 42, 100
3, 18428, Note_off_c, 1, 30, 100
3, 18816, Note_on_c, 1, 47, 80
3, 18816, Note_on_c, 1, 35, 80
3, 19580, Note_off_c, 1, 35, 100
3, 19584, Note_on_c, 1, 35, 80
3, 20348, Note_off_c, 1, 47, 100
3, 20348, Note_off_c, 1, 35, 100
3, 20352, Note_on_c, 1, 40, 80
3, 20636, Note_off_c, 1, 40, 100
3, 20640, Note_on_c, 1, 40, 80
3, 20732, Note_off_c, 1, 40, 100
3, 20736, Note_on_c, 1, 43, 80
3, 21020, Note_off_c, 1, 43, 100
3, 21024, Note_on_c, 1, 47, 80
3, 21116, Note_off_c, 1, 47, 100
3, 21120, Note_on_c, 1, 52, 80
3, 21500, Note_off_c, 1, 52, 100
3, 21504, Note_on_c, 1, 52, 80
3, 21504, Note_on_c, 1, 43, 80
3, 21788, Note_off_c, 1, 52, 100
3, 21788, Note_off_c, 1, 43, 100
3, 21792, Note_on_c, 1, 52, 80
3, 21792, Note_on_c, 1, 43, 80
3, 21884, Note_off_c, 1, 52, 100
3, 21884, Note_off_c, 1, 43, 100
3, 21888, Note_on_c, 1, 54, 80
3, 21888, Note_on_c, 1, 50, 80
3, 21888, Note_on_c, 1, 45, 80
3, 22268, Note_off_c, 1, 54, 100
3, 22268, Note_off_c, 1, 50, 100
3, 22268, Note_off_c, 1, 45, 100
3, 22272, Note_on_c, 1, 54, 85
3, 22272, Note_on_c, 1, 50, 85
3, 22272, Note_on_c, 1, 45, 85
3, 22556, Note_off_c, 1, 54, 100
3, 22556, Note_off_c, 1, 50, 100
3, 22556, Note_off_c, 1, 45, 100
3, 22560, Note_on_c, 1, 54, 89
3, 22560, Note_on_c, 1, 50, 89
3, 22560, Note_on_c, 1, 45, 89
3, 22652, Note_off_c, 1, 54, 100
3, 22652, Note_off_c, 1, 50, 100
3, 22652, Note_off_c, 1, 45, 100
3, 22656, Note_on_c, 1, 52, 90
3, 22656, Note_on_c, 1, 49, 90
3, 22656, Note_on_c, 1, 45, 90
3, 23036, Note_off_c, 1, 52, 100
3, 23036, Note_off_c, 1, 49, 100
3, 23036, Note_off_c, 1, 45, 100
3, 23040, Note_on_c, 1, 52, 95
3, 23040, Note_on_c, 1, 49, 95
3, 23040, Note_on_c, 1, 45, 95
3, 23324, Note_off_c, 1, 52, 100
3, 23324, Note_off_c, 1, 49, 100
3, 23324, Note_off_c, 1, 45, 100
3, 23328, Note_on_c, 1, 52, 99
3, 23328, Note_on_c, 1, 49, 99
3, 23328, Note_on_c, 1, 45, 99
3, 23420, Note_off_c, 1, 52, 100
3, 23420, Note_off_c, 1, 49, 100
3, 23420, Note_off_c, 1, 45, 100
3, 23424, Note_on_c, 1, 50, 80
3, 23424, Note_on_c, 1, 38, 80
3, 23804, Note_off_c, 1, 50, 100
3, 23804, Note_off_c, 1, 38, 100
3, 23808, Note_on_c, 1, 50, 80
3, 23808, Note_on_c, 1, 38, 80
3, 24188, Note_off_c, 1, 50, 100
3, 24188, Note_off_c, 1, 38, 100
3, 24192, Note_on_c, 1, 50, 80
3, 24192, Note_on_c, 1, 38, 80
3, 24572, Note_off_c, 1, 50, 100
3, 24572, Note_off_c, 1, 38, 100
3, 24576, Note_on_c, 1, 56, 70
3, 24576, Note_on_c, 1, 50, 70
3, 24860, Note_off_c, 1, 56, 100
3, 24860, Note_off_c, 1, 50, 100
3, 24864, Note_on_c, 1, 56, 73
3, 24864, Note_on_c, 1, 50, 73
3, 24956, Note_off_c, 1, 56, 100
3, 24956, Note_off_c, 1, 50, 100
3, 24960, Note_on_c, 1, 56, 74
3, 24960, Note_on_c, 1, 50, 74
3, 25340, Note_off_c, 1, 50, 100
3, 25344, Note_on_c, 1, 50, 79
3, 25724, Note_off_c, 1, 56, 100
3, 25724, Note_off_c, 1, 50, 100
3, 25728, Note_on_c, 1, 50, 84
3, 25728, Note_on_c, 1, 58, 84
3, 26108, Note_off_c, 1, 50, 100
3, 26108, Note_off_c, 1, 58, 100
3, 26112, Note_on_c, 1, 50, 89
3, 26112, Note_on_c, 1, 59, 89
3, 26492, Note_off_c, 1, 50, 100
3, 26492, Note_off_c, 1, 59, 100
3, 26496, Note_on_c, 1, 58, 90
3, 26496, Note_on_c, 1, 51, 90
3, 26780, Note_off_c, 1, 58, 100
3, 26780, Note_off_c, 1, 51, 100
3, 26784, Note_on_c, 1, 56, 90
3, 26784, Note_on_c, 1, 50, 90
3, 26876, Note_off_c, 1, 56, 100
3, 26876, Note_off_c, 1, 50, 100
3, 26880, Note_on_c, 1, 56, 100
3, 26880, Note_on_c, 1, 50, 100
3, 27260, Note_off_c, 1, 50, 100
3, 27264, Note_on_c, 1, 50, 100
3, 27644, Note_off_c, 1, 56, 100
3, 27644, Note_off_c, 1, 50, 100
3, 27648, Note_on_c, 1, 56, 100
3, 27648, Note_on_c, 1, 50, 100
3, 27932, Note_off_c, 1, 56, 100
3, 27932, Note_off_c, 1, 50, 100
3, 27936, Note_on_c, 1, 59, 100
3, 27936, Note_on_c, 1, 50, 100
3, 28028, Note_off_c, 1, 59, 100
3, 28028, Note_off_c, 1, 50, 100
3, 28032, Note_on_c, 1, 58, 100
3, 28032, Note_on_c, 1, 51, 100
3, 28316, Note_off_c, 1, 58, 100
3, 28316, Note_off_c, 1, 51, 100
3, 28320, Note_on_c, 1, 56, 120
3, 28320, Note_on_c, 1, 50, 120
3, 28412, Note_off_c, 1, 56, 100
3, 28412, Note_off_c, 1, 50, 100
3, 28416, Note_on_c, 1, 56, 120
3, 28416, Note_on_c, 1, 50, 120
3, 28700, Note_off_c, 1, 56, 100
3, 28700, Note_off_c, 1, 50, 100
3, 28704, Note_on_c, 1, 56, 120
3, 28704, Note_on_c, 1, 50, 120
3, 28796, Note_off_c, 1, 56, 100
3, 28796, Note_off_c, 1, 50, 100
3, 28800, Note_on_c, 1, 56, 120
3, 28800, Note_on_c, 1, 50, 120
3, 29084, Note_off_c, 1, 56, 100
3, 29084, Note_off_c, 1, 50, 100
3, 29088, Note_on_c, 1, 56, 120
3, 29088, Note_on_c, 1, 50, 120
3, 29180, Note_off_c, 1, 56, 100
3, 29180, Note_off_c, 1, 50, 100
3, 29184, Note_on_c, 1, 50, 120
3, 29184, Note_on_c, 1, 58, 120
3, 29468, Note_off_c, 1, 50, 100
3, 29468, Note_off_c, 1, 58, 100
3, 29472, Note_on_c, 1, 59, 120
3, 29472, Note_on_c, 1, 50, 120
3, 29564, Note_off_c, 1, 59, 100
3, 29564, Note_off_c, 1, 50, 100
3, 29568, Note_on_c, 1, 58, 120
3, 29568, Note_on_c, 1, 51, 120
3, 29948, Note_off_c, 1, 58, 100
3, 29948, Note_off_c, 1, 51, 100
3, 29952, Note_on_c, 1, 52, 120
3, 30716, Note_off_c, 1, 52, 100
3, 30720, Note_on_c, 1, 51, 120
3, 30812, Note_off_c, 1, 51, 100
3, 30816, Note_on_c, 1, 49, 120
3, 30908, Note_off_c, 1, 49, 100
3, 30912, Note_on_c, 1, 47, 120
3, 31004, Note_off_c, 1, 47, 100
3, 31008, Note_on_c, 1, 46, 120
3, 31100, Note_off_c, 1, 46, 100
3, 31104, Note_on_c, 1, 44, 120
3, 31104, Note_on_c, 1, 32, 120
3, 31868, Note_off_c, 1, 32, 100
3, 31872, Note_on_c, 1, 32, 80
3, 32636, Note_off_c, 1, 44, 100
3, 32636, Note_off_c, 1, 32, 100
3, 32640, Note_on_c, 1, 39, 80
3, 32924, Note_off_c, 1, 39, 100
3, 32928, Note_on_c, 1, 39, 80
3, 33020, Note_off_c, 1, 39, 100
3, 33024, Note_on_c, 1, 43, 80
3, 33308, Note_off_c, 1, 43, 100
3, 33312, Note_on_c, 1, 46, 80
3, 33404, Note_off_c, 1, 46, 100
3, 33408, Note_on_c, 1, 51, 80
3, 33788, Note_off_c, 1, 51, 100
3, 33792, Note_on_c, 1, 51, 80
3, 34076, Note_off_c, 1, 51, 100
3, 34080, Note_on_c, 1, 51, 80
3, 34172, Note_off_c, 1, 51, 100
3, 34176, Note_on_c, 1, 47, 80
3, 34200, Note_on_c, 1, 49, 80
3, 34220, Note_off_c, 1, 47, 100
3, 34224, Note_on_c, 1, 47, 80
3, 34244, Note_off_c, 1, 49, 100
3, 34248, Note_on_c, 1, 49, 80
3, 34268, Note_off_c, 1, 47, 100
3, 34272, Note_on_c, 1, 47, 80
3, 34292, Note_off_c, 1, 49, 100
3, 34296, Note_on_c, 1, 49, 80
3, 34316, Note_off_c, 1, 47, 100
3, 34320, Note_on_c, 1, 47, 80
3, 34340, Note_off_c, 1, 49, 100
3, 34344, Note_on_c, 1, 49, 80
3, 34364, Note_off_c, 1, 47, 100
3, 34368, Note_on_c, 1, 47, 80
3, 34388, Note_off_c, 1, 49, 100
3, 34392, Note_on_c, 1, 49, 80
3, 34412, Note_off_c, 1, 47, 100
3, 34416, Note_on_c, 1, 47, 80
3, 34436, Note_off_c, 1, 49, 100
3, 34440, Note_on_c, 1, 49, 80
3, 34460, Note_off_c, 1, 47, 100
3, 34464, Note_on_c, 1, 47, 80
3, 34484, Note_off_c, 1, 49, 100
3, 34488, Note_on_c, 1, 49, 80
3, 34508, Note_off_c, 1, 47, 100
3, 34512, Note_on_c, 1, 47, 80
3, 34532, Note_off_c, 1, 49, 100
3, 34536, Note_on_c, 1, 49, 80
3, 34556, Note_off_c, 1, 47, 100
3, 34560, Note_on_c, 1, 47, 80
3, 34580, Note_off_c, 1, 49, 100
3, 34584, Note_on_c, 1, 49, 80
3, 34604, Note_off_c, 1, 47, 100
3, 34608, Note_on_c, 1, 47, 80
3, 34628, Note_off_c, 1, 49, 100
3, 34632, Note_on_c, 1, 49, 80
3, 34652, Note_off_c, 1, 47, 100
3, 34656, Note_on_c, 1, 47, 80
3, 34676, Note_off_c, 1, 49, 100
3, 34680, Note_on_c, 1, 49, 80
3, 34700, Note_off_c, 1, 47, 100
3, 34704, Note_on_c, 1, 46, 80
3, 34724, Note_off_c, 1, 49, 100
3, 34728, Note_on_c, 1, 47, 80
3, 34748, Note_off_c, 1, 46, 100
3, 34752, Note_on_c, 1, 46, 80
3, 34772, Note_off_c, 1, 47, 100
3, 34844, Note_off_c, 1, 46, 100
3, 34848, Note_on_c, 1, 44, 80
3, 34940, Note_off_c, 1, 44, 100
3, 34944, Note_on_c, 1, 43, 80
3, 35324, Note_off_c, 1, 43, 100
3, 35328, Note_on_c, 1, 44, 80
3, 35612, Note_off_c, 1, 44, 100
3, 35616, Note_on_c, 1, 44, 80
3, 35708, Note_off_c, 1, 44, 100
3, 35712, Note_on_c, 1, 39, 80
3, 36092, Note_off_c, 1, 39, 100
3, 36096, Note_on_c, 1, 39, 80
3, 36476, Note_off_c, 1, 39, 100
3, 36480, Note_on_c, 1, 39, 80
3, 36860, Note_off_c, 1, 39, 100
3, 37248, Note_on_c, 1, 44, 80
3, 37248, Note_on_c, 1, 32, 80
3, 38012, Note_off_c, 1, 32, 100
3, 38016, Note_on_c, 1, 32, 80
3, 38780, Note_off_c, 1, 44, 100
3, 38780, Note_off_c, 1, 32, 100
3, 38784, Note_on_c, 1, 37, 80
3, 39068, Note_off_c, 1, 37, 100
3, 39072, Note_on_c, 1, 37, 82
3, 39164, Note_off_c, 1, 37, 100
3, 39168, Note_on_c, 1, 40, 82
3, 39452, Note_off_c, 1, 40, 100
3, 39456, Note_on_c, 1, 44, 84
3, 39548, Note_off_c, 1, 44, 100
3, 39552, Note_on_c, 1, 49, 85
3, 39932, Note_off_c, 1, 49, 100
3, 40608, Note_on_c, 1, 45, 93
3, 40608, Note_on_c, 1, 33, 93
3, 40700, Note_off_c, 1, 45, 100
3, 40700, Note_off_c, 1, 33, 100
3, 40704, Note_on_c, 1, 49, 94
3, 40704, Note_on_c, 1, 37, 94
3, 40988, Note_off_c, 1, 49, 100
3, 40988, Note_off_c, 1, 37, 100
3, 40992, Note_on_c, 1, 52, 96
3, 40992, Note_on_c, 1, 40, 96
3, 41084, Note_off_c, 1, 52, 100
3, 41084, Note_off_c, 1, 40, 100
3, 41088, Note_on_c, 1, 57, 97
3, 41088, Note_on_c, 1, 45, 97
3, 41468, Note_off_c, 1, 57, 100
3, 41468, Note_off_c, 1, 45, 100
3, 42144, Note_on_c, 1, 55, 112
3, 42144, Note_on_c, 1, 43, 112
3, 42236, Note_off_c, 1, 55, 100
3, 42236, Note_off_c, 1, 43, 100
3, 42240, Note_on_c, 1, 58, 113
3, 42240, Note_on_c, 1, 46, 113
3, 42524, Note_off_c, 1, 58, 100
3, 42524, Note_off_c, 1, 46, 100
3, 42528, Note_on_c, 1, 63, 115
3, 42528, Note_on_c, 1, 51, 115
3, 42620, Note_off_c, 1, 63, 100
3, 42620, Note_off_c, 1, 51, 100
3, 42624, Note_on_c, 1, 67, 116
3, 42624, Note_on_c, 1, 55, 116
3, 43004, Note_off_c, 1, 67, 100
3, 43004, Note_off_c, 1, 55, 100
3, 43008, Note_on_c, 1, 55, 119
3, 43008, Note_on_c, 1, 43, 119
3, 43388, Note_off_c, 1, 55, 100
3, 43388, Note_off_c, 1, 43, 100
3, 43392, Note_on_c, 1, 56, 120
3, 43392, Note_on_c, 1, 44, 120
3, 44156, Note_off_c, 1, 56, 100
3, 44156, Note_off_c, 1, 44, 100
3, 44160, Note_on_c, 1, 49, 120
3, 44160, Note_on_c, 1, 37, 120
3, 44540, Note_off_c, 1, 49, 100
3, 44540, Note_off_c, 1, 37, 100
3, 44544, Note_on_c, 1, 51, 120
3, 44544, Note_on_c, 1, 39, 120
3, 44924, Note_off_c, 1, 51, 100
3, 44924, Note_off_c, 1, 39, 100
3, 44928, Note_on_c, 1, 32, 120
3, 44928, Note_on_c, 1, 44, 120
3, 45308, Note_off_c, 1, 32, 100
3, 45308, Note_off_c, 1, 44, 100
3, 45312, Note_on_c, 1, 44, 120
3, 45312, Note_on_c, 1, 32, 120
3, 45692, Note_off_c, 1, 44, 100
3, 45692, Note_off_c, 1, 32, 100
3, 45696, Note_on_c, 1, 32, 120
3, 46076, Note_off_c, 1, 32, 100
3, 46464, Key_signature, -4, "major"
3, 46464, Control_c, 1, 64, 127
3, 46464, Note_on_c, 1, 32, 80
3, 46512, Note_on_c, 1, 44, 81
3, 46556, Note_off_c, 1, 32, 100
3, 46560, Note_on_c, 1, 32, 83
3, 46604, Note_off_c, 1, 44, 100
3, 46608, Note_on_c, 1, 44, 85
3, 46652, Note_off_c, 1, 32, 100
3, 46656, Note_on_c, 1, 32, 87
3, 46700, Note_off_c, 1, 44, 100
3, 46704, Note_on_c, 1, 44, 89
3, 46748, Note_off_c, 1, 32, 100
3, 46752, Note_on_c, 1, 32, 91
3, 46796, Note_off_c, 1, 44, 100
3, 46800, Note_on_c, 1, 44, 93
3, 46844, Note_off_c, 1, 32, 100
3, 46848, Note_on_c, 1, 32, 94
3, 46892, Note_off_c, 1, 44, 100
3, 46896, Note_on_c, 1, 44, 96
3, 46940, Note_off_c, 1, 32, 100
3, 46944, Note_on_c, 1, 32, 98
3, 46988, Note_off_c, 1, 44, 100
3, 46992, Note_on_c, 1, 44, 100
3, 47036, Note_off_c, 1, 32, 100
3, 47040, Note_on_c, 1, 32, 102
3, 47084, Note_off_c, 1, 44, 100
3, 47088, Note_on_c, 1, 44, 104
3, 47132, Note_off_c, 1, 32, 100
3, 47136, Note_on_c, 1, 32, 106
3, 47180, Note_off_c, 1, 44, 100
3, 47184, Note_on_c, 1, 44, 107
3, 47228, Note_off_c, 1, 32, 100
3, 47232, Note_on_c, 1, 32, 109
3, 47276, Note_off_c, 1, 44, 100
3, 47420, Note_off_c, 1, 32, 100
3, 47424, Control_c, 1, 64, 0
3, 47520, Note_on_c, 1, 56, 120
3, 47520, Note_on_c, 1, 60, 120
3, 47612, Note_off_c, 1, 56, 100
3, 47612, Note_off_c, 1, 60, 100
3, 47616, Note_on_c, 1, 60, 120
3, 47616, Note_on_c, 1, 63, 120
3, 47804, Note_off_c, 1, 60, 100
3, 47804, Note_off_c, 1, 63, 100
3, 48000, Control_c, 1, 64, 127
3, 48000, Note_on_c, 1, 32, 80
3, 48048, Note_on_c, 1, 44, 81
3, 48092, Note_off_c, 1, 32, 100
3, 48096, Note_on_c, 1, 32, 83
3, 48140, Note_off_c, 1, 44, 100
3, 48144, Note_on_c, 1, 44, 85
3, 48188, Note_off_c, 1, 32, 100
3, 48192, Note_on_c, 1, 32, 87
3, 48236, Note_off_c, 1, 44, 100
3, 48240, Note_on_c, 1, 44, 89
3, 48284, Note_off_c, 1, 32, 100
3, 48288, Note_on_c, 1, 32, 91
3, 48332, Note_off_c, 1, 44, 100
3, 48336, Note_on_c, 1, 44, 93
3, 48380, Note_off_c, 1, 32, 100
3, 48384, Note_on_c, 1, 32, 94
3, 48428, Note_off_c, 1, 44, 100
3, 48432, Note_on_c, 1, 44, 96
3, 48476, Note_off_c, 1, 32, 100
3, 48480, Note_on_c, 1, 32, 98
3, 48524, Note_off_c, 1, 44, 100
3, 48528, Note_on_c, 1, 44, 100
3, 48572, Note_off_c, 1, 32, 100
3, 48576, Note_on_c, 1, 32, 102
3, 48620, Note_off_c, 1, 44, 100
3, 48624, Note_on_c, 1, 44, 104
3, 48668, Note_off_c, 1, 32, 100
3, 48672, Note_on_c, 1, 32, 106
3, 48716, Note_off_c, 1, 44, 100
3, 48720, Note_on_c, 1, 44, 107
3, 48764, Note_off_c, 1, 32, 100
3, 48768, Note_on_c, 1, 32, 109
3, 48812, Note_off_c, 1, 44, 100
3, 48956, Note_off_c, 1, 32, 100
3, 48960, Control_c, 1, 64, 0
3, 49056, Note_on_c, 1, 68, 120
3, 49056, Note_on_c, 1, 72, 120
3, 49148, Note_off_c, 1, 68, 100
3, 49148, Note_off_c, 1, 72, 100
3, 49152, Note_on_c, 1, 72, 120
3, 49152, Note_on_c, 1, 75, 120
3, 49340, Note_off_c, 1, 72, 100
3, 49340, Note_off_c, 1, 75, 100
3, 49536, Note_on_c, 1, 46, 120
3, 49820, Note_off_c, 1, 46, 100
3, 49824, Note_on_c, 1, 63, 120
3, 49824, Note_on_c, 1, 67, 120
3, 49916, Note_off_c, 1, 63, 100
3, 49916, Note_off_c, 1, 67, 100
3, 49920, Note_on_c, 1, 70, 120
3, 50108, Note_off_c, 1, 70, 100
3, 50304, Note_on_c, 1, 46, 120
3, 50588, Note_off_c, 1, 46, 100
3, 50592, Note_on_c, 1, 65, 120
3, 50592, Note_on_c, 1, 62, 120
3, 50684, Note_off_c, 1, 65, 100
3, 50684, Note_off_c, 1, 62, 100
3, 50688, Note_on_c, 1, 70, 120
3, 50876, Note_off_c, 1, 70, 100
3, 50976, Note_on_c, 1, 58, 120
3, 50976, Note_on_c, 1, 46, 120
3, 51068, Note_off_c, 1, 58, 100
3, 51068, Note_off_c, 1, 46, 100
3, 51072, Note_on_c, 1, 63, 120
3, 51072, Note_on_c, 1, 51, 120
3, 51260, Note_off_c, 1, 63, 100
3, 51260, Note_off_c, 1, 51, 100
3, 51456, Note_on_c, 1, 39, 120
3, 51456, Note_on_c, 1, 43, 120
3, 51456, Note_on_c, 1, 46, 120
3, 51456, Note_on_c, 1, 51, 120
3, 51644, Note_off_c, 1, 39, 100
3, 51644, Note_off_c, 1, 43, 100
3, 51644, Note_off_c, 1, 46, 100
3, 51644, Note_off_c, 1, 51, 100
3, 51840, Note_on_c, 1, 43, 120
3, 51840, Note_on_c, 1, 39, 120
3, 52028, Note_off_c, 1, 43, 100
3, 52028, Note_off_c, 1, 39, 100
3, 52608, Control_c, 1, 64, 127
3, 52608, Note_on_c, 1, 32, 80
3, 52656, Note_on_c, 1, 44, 81
3, 52700, Note_off_c, 1, 32, 100
3, 52704, Note_on_c, 1, 32, 83
3, 52748, Note_off_c, 1, 44, 100
3, 52752, Note_on_c, 1, 44, 85
3, 52796, Note_off_c, 1, 32, 100
3, 52800, Note_on_c, 1, 32, 87
3, 52844, Note_off_c, 1, 44, 100
3, 52848, Note_on_c, 1, 44, 89
3, 52892, Note_off_c, 1, 32, 100
3, 52896, Note_on_c, 1, 32, 91
3, 52940, Note_off_c, 1, 44, 100
3, 52944, Note_on_c, 1, 44, 93
3, 52988, Note_off_c, 1, 32, 100
3, 52992, Note_on_c, 1, 32, 94
3, 53036, Note_off_c, 1, 44, 100
3, 53040, Note_on_c, 1, 44, 96
3, 53084, Note_off_c, 1, 32, 100
3, 53088, Note_on_c, 1, 32, 98
3, 53132, Note_off_c, 1, 44, 100
3, 53136, Note_on_c, 1, 44, 100
3, 53180, Note_off_c, 1, 32, 100
3, 53184, Note_on_c, 1, 32, 102
3, 53228, Note_off_c, 1, 44, 100
3, 53232, Note_on_c, 1, 44, 104
3, 53276, Note_off_c, 1, 32, 100
3, 53280, Note_on_c, 1, 32, 106
3, 53324, Note_off_c, 1, 44, 100
3, 53328, Note_on_c, 1, 44, 107
3, 53372, Note_off_c, 1, 32, 100
3, 53376, Note_on_c, 1, 32, 109
3, 53420, Note_off_c, 1, 44, 100
3, 53564, Note_off_c, 1, 32, 100
3, 53568, Control_c, 1, 64, 0
3, 53664, Note_on_c, 1, 56, 120
3, 53664, Note_on_c, 1, 60, 120
3, 53756, Note_off_c, 1, 56, 100
3, 53756, Note_off_c, 1, 60, 100
3, 53760, Note_on_c, 1, 60, 120
3, 53760, Note_on_c, 1, 63, 120
3, 53948, Note_off_c, 1, 60, 100
3, 53948, Note_off_c, 1, 63, 100
3, 54144, Control_c, 1, 64, 127
3, 54144, Note_on_c, 1, 32, 80
3, 54192, Note_on_c, 1, 44, 81
3, 54236, Note_off_c, 1, 32, 100
3, 54240, Note_on_c, 1, 32, 83
3, 54284, Note_off_c, 1, 44, 100
3, 54288, Note_on_c, 1, 44, 85
3, 54332, Note_off_c, 1, 32, 100
3, 54336, Note_on_c, 1, 32, 87
3, 54380, Note_off_c, 1, 44, 100
3, 54384, Note_on_c, 1, 44, 89
3, 54428, Note_off_c, 1, 32, 100
3, 54432, Note_on_c, 1, 32, 91
3, 54476, Note_off_c, 1, 44, 100
3, 54480, Note_on_c, 1, 44, 93
3, 54524, Note_off_c, 1, 32, 100
3, 54528, Note_on_c, 1, 32, 94
3, 54572, Note_off_c, 1, 44, 100
3, 54576, Note_on_c, 1, 44, 96
3, 54620, Note_off_c, 1, 32, 100
3, 54624, Note_on_c, 1, 32, 98
3, 54668, Note_off_c, 1, 44, 100
3, 54672, Note_on_c, 1, 44, 100
3, 54716, Note_off_c, 1, 32, 100
3, 54720, Note_on_c, 1, 32, 102
3, 54764, Note_off_c, 1, 44, 100
3, 54768, Note_on_c, 1, 44, 104
3, 54812, Note_off_c, 1, 32, 100
3, 54816, Note_on_c, 1, 32, 106
3, 54860, Note_off_c, 1, 44, 100
3, 54864, Note_on_c, 1, 44, 107
3, 54908, Note_off_c, 1, 32, 100
3, 54912, Note_on_c, 1, 32, 109
3, 54956, Note_off_c, 1, 44, 100
3, 55100, Note_off_c, 1, 32, 100
3, 55104, Control_c, 1, 64, 0
3, 55200, Note_on_c, 1, 68, 120
3, 55200, Note_on_c, 1, 72, 120
3, 55292, Note_off_c, 1, 68, 100
3, 55292, Note_off_c, 1, 72, 100
3, 55296, Note_on_c, 1, 72, 120
3, 55296, Note_on_c, 1, 75, 120
3, 55484, Note_off_c, 1, 72, 100
3, 55484, Note_off_c, 1, 75, 100
3, 55680, Note_on_c, 1, 46, 120
3, 55964, Note_off_c, 1, 46, 100
3, 55968, Note_on_c, 1, 63, 120
3, 55968, Note_on_c, 1, 67, 120
3, 56060, Note_off_c, 1, 63, 100
3, 56060, Note_off_c, 1, 67, 100
3, 56064, Note_on_c, 1, 70, 120
3, 56252, Note_off_c, 1, 70, 100
3, 56448, Note_on_c, 1, 46, 120
3, 56732, Note_off_c, 1, 46, 100
3, 56736, Note_on_c, 1, 65, 120
3, 56736, Note_on_c, 1, 62, 120
3, 56828, Note_off_c, 1, 65, 100
3, 56828, Note_off_c, 1, 62, 100
3, 56832, Note_on_c, 1, 70, 120
3, 57020, Note_off_c, 1, 70, 100
3, 57120, Note_on_c, 1, 58, 120
3, 57120, Note_on_c, 1, 46, 120
3, 57212, Note_off_c, 1, 58, 100
3, 57212, Note_off_c, 1, 46, 100
3, 57216, Note_on_c, 1, 63, 120
3, 57216, Note_on_c, 1, 51, 120
3, 57404, Note_off_c, 1, 63, 100
3, 57404, Note_off_c, 1, 51, 100
3, 57600, Note_on_c, 1, 39, 120
3, 57600, Note_on_c, 1, 43, 120
3, 57600, Note_on_c, 1, 46, 120
3, 57600, Note_on_c, 1, 51, 120
3, 57788, Note_off_c, 1, 39, 100
3, 57788, Note_off_c, 1, 43, 100
3, 57788, Note_off_c, 1, 46, 100
3, 57788, Note_off_c, 1, 51, 100
3, 57984, Note_on_c, 1, 43, 120
3, 57984, Note_on_c, 1, 39, 120
3, 58172, Note_off_c, 1, 43, 100
3, 58172, Note_off_c, 1, 39, 100
3, 58752, Control_c, 1, 64, 127
3, 58752, Note_on_c, 1, 39, 80
3, 58800, Note_on_c, 1, 51, 81
3, 58844, Note_off_c, 1, 39, 100
3, 58848, Note_on_c, 1, 39, 83
3, 58892, Note_off_c, 1, 51, 100
3, 58896, Note_on_c, 1, 51, 85
3, 58940, Note_off_c, 1, 39, 100
3, 58944, Note_on_c, 1, 39, 87
3, 58988, Note_off_c, 1, 51, 100
3, 58992, Note_on_c, 1, 51, 89
3, 59036, Note_off_c, 1, 39, 100
3, 59040, Note_on_c, 1, 39, 91
3, 59084, Note_off_c, 1, 51, 100
3, 59088, Note_on_c, 1, 51, 93
3, 59132, Note_off_c, 1, 39, 100
3, 59136, Note_on_c, 1, 39, 94
3, 59180, Note_off_c, 1, 51, 100
3, 59184, Note_on_c, 1, 51, 96
3, 59228, Note_off_c, 1, 39, 100
3, 59232, Note_on_c, 1, 39, 98
3, 59276, Note_off_c, 1, 51, 100
3, 59280, Note_on_c, 1, 51, 100
3, 59324, Note_off_c, 1, 39, 100
3, 59328, Note_on_c, 1, 39, 102
3, 59372, Note_off_c, 1, 51, 100
3, 59376, Note_on_c, 1, 51, 104
3, 59420, Note_off_c, 1, 39, 100
3, 59424, Note_on_c, 1, 39, 106
3, 59468, Note_off_c, 1, 51, 100
3, 59472, Note_on_c, 1, 51, 107
3, 59516, Note_off_c, 1, 39, 100
3, 59520, Note_on_c, 1, 39, 109
3, 59564, Note_off_c, 1, 51, 100
3, 59708, Note_off_c, 1, 39, 100
3, 59712, Control_c, 1, 64, 0
3, 59808, Note_on_c, 1, 58, 120
3, 59808, Note_on_c, 1, 55, 120
3, 59900, Note_off_c, 1, 58, 100
3, 59900, Note_off_c, 1, 55, 100
3, 59904, Note_on_c, 1, 58, 120
3, 59904, Note_on_c, 1, 61, 120
3, 60092, Note_off_c, 1, 58, 100
3, 60092, Note_off_c, 1, 61, 100
3, 60288, Control_c, 1, 64, 127
3, 60288, Note_on_c, 1, 39, 80
3, 60336, Note_on_c, 1, 51, 81
3, 60380, Note_off_c, 1, 39, 100
3, 60384, Note_on_c, 1, 39, 83
3, 60428, Note_off_c, 1, 51, 100
3, 60432, Note_on_c, 1, 51, 85
3, 60476, Note_off_c, 1, 39, 100
3, 60480, Note_on_c, 1, 39, 87
3, 60524, Note_off_c, 1, 51, 100
3, 60528, Note_on_c, 1, 51, 89
3, 60572, Note_off_c, 1, 39, 100
3, 60576, Note_on_c, 1, 39, 91
3, 60620, Note_off_c, 1, 51, 100
3, 60624, Note_on_c, 1, 51, 93
3, 60668, Note_off_c, 1, 39, 100
3, 60672, Note_on_c, 1, 39, 94
3, 60716, Note_off_c, 1, 51, 100
3, 60720, Note_on_c, 1, 51, 96
3, 60764, Note_off_c, 1, 39, 100
3, 60768, Note_on_c, 1, 39, 98
3, 60812, Note_off_c, 1, 51, 100
3, 60816, Note_on_c, 1, 51, 100
3, 60860, Note_off_c, 1, 39, 100
3, 60864, Note_on_c, 1, 39, 102
3, 60908, Note_off_c, 1, 51, 100
3, 60912, Note_on_c, 1, 51, 104
3, 60956, Note_off_c, 1, 39, 100
3, 60960, Note_on_c, 1, 39, 106
3, 61004, Note_off_c, 1, 51, 100
3, 61008, Note_on_c, 1, 51, 107
3, 61052, Note_off_c, 1, 39, 100
3, 61056, Note_on_c, 1, 39, 109
3, 61100, Note_off_c, 1, 51, 100
3, 61244, Note_off_c, 1, 39, 100
3, 61248, Control_c, 1, 64, 0
3, 61344, Note_on_c, 1, 70, 120
3, 61344, Note_on_c, 1, 67, 120
3, 61436, Note_off_c, 1, 70, 100
3, 61436, Note_off_c, 1, 67, 100
3, 61440, Note_on_c, 1, 70, 120
3, 61440, Note_on_c, 1, 73, 120
3, 61628, Note_off_c, 1, 70, 100
3, 61628, Note_off_c, 1, 73, 100
3, 61824, Note_on_c, 1, 56, 120
3, 61824, Note_on_c, 1, 44, 120
3, 62108, Note_off_c, 1, 56, 100
3, 62108, Note_off_c, 1, 44, 100
3, 62112, Note_on_c, 1, 72, 120
3, 62112, Note_on_c, 1, 68, 120
3, 62204, Note_off_c, 1, 72, 100
3, 62204, Note_off_c, 1, 68, 100
3, 62208, Note_on_c, 1, 75, 120
3, 62396, Note_off_c, 1, 75, 100
3, 62592, Note_on_c, 1, 51, 120
3, 62592, Note_on_c, 1, 39, 120
3, 62876, Note_off_c, 1, 51, 100
3, 62876, Note_off_c, 1, 39, 100
3, 62880, Note_on_c, 1, 70, 120
3, 62880, Note_on_c, 1, 67, 120
3, 62972, Note_off_c, 1, 70, 100
3, 62972, Note_off_c, 1, 67, 100
3, 62976, Note_on_c, 1, 75, 120
3, 63164, Note_off_c, 1, 75, 100
3, 63264, Note_on_c, 1, 51, 120
3, 63264, Note_on_c, 1, 63, 120
3, 63356, Note_off_c, 1, 51, 100
3, 63356, Note_off_c, 1, 63, 100
3, 63360, Note_on_c, 1, 56, 120
3, 63360, Note_on_c, 1, 68, 120
3, 63548, Note_off_c, 1, 56, 100
3, 63548, Note_off_c, 1, 68, 100
3, 63744, Note_on_c, 1, 56, 120
3, 63744, Note_on_c, 1, 51, 120
3, 63744, Note_on_c, 1, 48, 120
3, 63744, Note_on_c, 1, 44, 120
3, 63932, Note_off_c, 1, 56, 100
3, 63932, Note_off_c, 1, 51, 100
3, 63932, Note_off_c, 1, 48, 100
3, 63932, Note_off_c, 1, 44, 100
3, 64128, Note_on_c, 1, 44, 120
3, 64128, Note_on_c, 1, 39, 120
3, 64128, Note_on_c, 1, 36, 120
3, 64128, Note_on_c, 1, 32, 120
3, 64316, Note_off_c, 1, 44, 100
3, 64316, Note_off_c, 1, 39, 100
3, 64316, Note_off_c, 1, 36, 100
3, 64316, Note_off_c, 1, 32, 100
3, 64896, Note_on_c, 1, 39, 80
3, 64944, Note_on_c, 1, 51, 81
3, 64988, Note_off_c, 1, 39, 100
3, 64992, Note_on_c, 1, 39, 83
3, 65036, Note_off_c, 1, 51, 100
3, 65040, Note_on_c, 1, 51, 85
3, 65084, Note_off_c, 1, 39, 100
3, 65088, Note_on_c, 1, 39, 87
3, 65132, Note_off_c, 1, 51, 100
3, 65136, Note_on_c, 1, 51, 89
3, 65180, Note_off_c, 1, 39, 100
3, 65184, Note_on_c, 1, 39, 91
3, 65228, Note_off_c, 1, 51, 100
3, 65232, Note_on_c, 1, 51, 93
3, 65276, Note_off_c, 1, 39, 100
3, 65280, Note_on_c, 1, 39, 94
3, 65324, Note_off_c, 1, 51, 100
3, 65328, Note_on_c, 1, 51, 96
3, 65372, Note_off_c, 1, 39, 100
3, 65376, Note_on_c, 1, 39, 98
3, 65420, Note_off_c, 1, 51, 100
3, 65424, Note_on_c, 1, 51, 100
3, 65468, Note_off_c, 1, 39, 100
3, 65472, Note_on_c, 1, 39, 102
3, 65516, Note_off_c, 1, 51, 100
3, 65520, Note_on_c, 1, 51, 104
3, 65564, Note_off_c, 1, 39, 100
3, 65568, Note_on_c, 1, 39, 106
3, 65612, Note_off_c, 1, 51, 100
3, 65616, Note_on_c, 1, 51, 107
3, 65660, Note_off_c, 1, 39, 100
3, 65664, Note_on_c, 1, 39, 109
3, 65708, Note_off_c, 1, 51, 100
3, 65852, Note_off_c, 1, 39, 100
3, 65952, Note_on_c, 1, 58, 120
3, 65952, Note_on_c, 1, 55, 120
3, 66044, Note_off_c, 1, 58, 100
3, 66044, Note_off_c, 1, 55, 100
3, 66048, Note_on_c, 1, 58, 120
3, 66048, Note_on_c, 1, 61, 120
3, 66236, Note_off_c, 1, 58, 100
3, 66236, Note_off_c, 1, 61, 100
3, 66432, Note_on_c, 1, 39, 80
3, 66480, Note_on_c, 1, 51, 81
3, 66524, Note_off_c, 1, 39, 100
3, 66528, Note_on_c, 1, 39, 83
3, 66572, Note_off_c, 1, 51, 100
3, 66576, Note_on_c, 1, 51, 85
3, 66620, Note_off_c, 1, 39, 100
3, 66624, Note_on_c, 1, 39, 87
3, 66668, Note_off_c, 1, 51, 100
3, 66672, Note_on_c, 1, 51, 89
3, 66716, Note_off_c, 1, 39, 100
3, 66720, Note_on_c, 1, 39, 91
3, 66764, Note_off_c, 1, 51, 100
3, 66768, Note_on_c, 1, 51, 93
3, 66812, Note_off_c, 1, 39, 100
3, 66816, Note_on_c, 1, 39, 94
3, 66860, Note_off_c, 1, 51, 100
3, 66864, Note_on_c, 1, 51, 96
3, 66908, Note_off_c, 1, 39, 100
3, 66912, Note_on_c, 1, 39, 98
3, 66956, Note_off_c, 1, 51, 100
3, 66960, Note_on_c, 1, 51, 100
3, 67004, Note_off_c, 1, 39, 100
3, 67008, Note_on_c, 1, 39, 102
3, 67052, Note_off_c, 1, 51, 100
3, 67056, Note_on_c, 1, 51, 104
3, 67100, Note_off_c, 1, 39, 100
3, 67104, Note_on_c, 1, 39, 106
3, 67148, Note_off_c, 1, 51, 100
3, 67152, Note_on_c, 1, 51, 107
3, 67196, Note_off_c, 1, 39, 100
3, 67200, Note_on_c, 1, 39, 109
3, 67244, Note_off_c, 1, 51, 100
3, 67388, Note_off_c, 1, 39, 100
3, 67488, Note_on_c, 1, 70, 120
3, 67488, Note_on_c, 1, 67, 120
3, 67580, Note_off_c, 1, 70, 100
3, 67580, Note_off_c, 1, 67, 100
3, 67584, Note_on_c, 1, 70, 120
3, 67584, Note_on_c, 1, 73, 120
3, 67772, Note_off_c, 1, 70, 100
3, 67772, Note_off_c, 1, 73, 100
3, 67968, Note_on_c, 1, 56, 120
3, 67968, Note_on_c, 1, 44, 120
3, 68252, Note_off_c, 1, 56, 100
3, 68252, Note_off_c, 1, 44, 100
3, 68256, Note_on_c, 1, 72, 120
3, 68256, Note_on_c, 1, 68, 120
3, 68348, Note_off_c, 1, 72, 100
3, 68348, Note_off_c, 1, 68, 100
3, 68352, Note_on_c, 1, 75, 120
3, 68540, Note_off_c, 1, 75, 100
3, 68736, Note_on_c, 1, 51, 120
3, 68736, Note_on_c, 1, 39, 120
3, 69020, Note_off_c, 1, 51, 100
3, 69020, Note_off_c, 1, 39, 100
3, 69024, Note_on_c, 1, 70, 120
3, 69024, Note_on_c, 1, 67, 120
3, 69116, Note_off_c, 1, 70, 100
3, 69116, Note_off_c, 1, 67, 100
3, 69120, Note_on_c, 1, 75, 120
3, 69308, Note_off_c, 1, 75, 100
3, 69408, Note_on_c, 1, 51, 120
3, 69408, Note_on_c, 1, 63, 120
3, 69500, Note_off_c, 1, 51, 100
3, 69500, Note_off_c, 1, 63, 100
3, 69504, Note_on_c, 1, 56, 120
3, 69504, Note_on_c, 1, 68, 120
3, 69692, Note_off_c, 1, 56, 100
3, 69692, Note_off_c, 1, 68, 100
3, 69888, Note_on_c, 1, 56, 120
3, 69888, Note_on_c, 1, 51, 120
3, 69888, Note_on_c, 1, 48, 120
3, 69888, Note_on_c, 1, 44, 120
3, 70076, Note_off_c, 1, 56, 100
3, 70076, Note_off_c, 1, 51, 100
3, 70076, Note_off_c, 1, 48, 100
3, 70076, Note_off_c, 1, 44, 100
3, 70272, Note_on_c, 1, 44, 120
3, 70272, Note_on_c, 1, 39, 120
3, 70272, Note_on_c, 1, 36, 120
3, 70272, Note_on_c, 1, 32, 120
3, 70460, Note_off_c, 1, 44, 100
3, 70460, Note_off_c, 1, 39, 100
3, 70460, Note_off_c, 1, 36, 100
3, 70460, Note_off_c, 1, 32, 100
3, 71040, Key_signature, -7, "minor"
3, 71040, Note_on_c, 1, 44, 80
3, 71040, Note_on_c, 1, 32, 80
3, 71804, Note_off_c, 1, 32, 100
3, 71808, Note_on_c, 1, 32, 80
3, 72572, Note_off_c, 1, 44, 100
3, 72572, Note_off_c, 1, 32, 100
3, 72576, Note_on_c, 1, 39, 80
3, 72860, Note_off_c, 1, 39, 100
3, 72864, Note_on_c, 1, 39, 80
3, 72956, Note_off_c, 1, 39, 100
3, 72960, Note_on_c, 1, 43, 80
3, 73244, Note_off_c, 1, 43, 100
3, 73248, Note_on_c, 1, 46, 80
3, 73340, Note_off_c, 1, 46, 100
3, 73344, Note_on_c, 1, 51, 80
3, 73724, Note_off_c, 1, 51, 100
3, 73728, Note_on_c, 1, 51, 80
3, 73728, Note_on_c, 1, 49, 80
3, 74012, Note_off_c, 1, 51, 100
3, 74012, Note_off_c, 1, 49, 100
3, 74016, Note_on_c, 1, 51, 80
3, 74016, Note_on_c, 1, 49, 80
3, 74108, Note_off_c, 1, 51, 100
3, 74108, Note_off_c, 1, 49, 100
3, 74112, Note_on_c, 1, 47, 80
3, 74112, Note_on_c, 1, 51, 80
3, 74492, Note_off_c, 1, 47, 100
3, 74492, Note_off_c, 1, 51, 100
3, 74496, Note_on_c, 1, 51, 80
3, 74496, Note_on_c, 1, 44, 80
3, 74780, Note_off_c, 1, 51, 100
3, 74780, Note_off_c, 1, 44, 100
3, 74784, Note_on_c, 1, 51, 80
3, 74784, Note_on_c, 1, 44, 80
3, 74876, Note_off_c, 1, 51, 100
3, 74876, Note_off_c, 1, 44, 100
3, 74880, Note_on_c, 1, 51, 80
3, 74880, Note_on_c, 1, 43, 80
3, 75260, Note_off_c, 1, 51, 100
3, 75260, Note_off_c, 1, 43, 100
3, 75264, Note_on_c, 1, 51, 80
3, 75264, Note_on_c, 1, 44, 80
3, 75548, Note_off_c, 1, 51, 100
3, 75548, Note_off_c, 1, 44, 100
3, 75552, Note_on_c, 1, 51, 80
3, 75552, Note_on_c, 1, 44, 80
3, 75644, Note_off_c, 1, 51, 100
3, 75644, Note_off_c, 1, 44, 100
3, 75648, Note_on_c, 1, 51, 80
3, 75648, Note_on_c, 1, 39, 80
3, 76028, Note_off_c, 1, 51, 100
3, 76028, Note_off_c, 1, 39, 100
3, 76032, Note_on_c, 1, 51, 80
3, 76032, Note_on_c, 1, 39, 80
3, 76412, Note_off_c, 1, 51, 100
3, 76412, Note_off_c, 1, 39, 100
3, 76416, Note_on_c, 1, 51, 80
3, 76416, Note_on_c, 1, 39, 80
3, 76796, Note_off_c, 1, 51, 100
3, 76796, Note_off_c, 1, 39, 100
3, 77184, Note_on_c, 1, 44, 80
3, 77184, Note_on_c, 1, 32, 80
3, 77948, Note_off_c, 1, 32, 100
3, 77952, Note_on_c, 1, 32, 94
3, 78716, Note_off_c, 1, 44, 100
3, 78716, Note_off_c, 1, 32, 100
3, 78720, Note_on_c, 1, 39, 109
3, 79004, Note_off_c, 1, 39, 100
3, 79008, Note_on_c, 1, 39, 80
3, 79100, Note_off_c, 1, 39, 100
3, 79104, Note_on_c, 1, 42, 80
3, 79388, Note_off_c, 1, 42, 100
3, 79392, Note_on_c, 1, 46, 80
3, 79484, Note_off_c, 1, 46, 100
3, 79488, Note_on_c, 1, 51, 80
3, 79868, Note_off_c, 1, 51, 100
3, 79872, Note_on_c, 1, 47, 80
3, 80156, Note_off_c, 1, 47, 100
3, 80160, Note_on_c, 1, 47, 80
3, 80252, Note_off_c, 1, 47, 100
3, 80256, Note_on_c, 1, 44, 80
3, 80636, Note_off_c, 1, 44, 100
3, 80640, Note_on_c, 1, 40, 80
3, 80924, Note_off_c, 1, 40, 100
3, 80928, Note_on_c, 1, 40, 80
3, 81020, Note_off_c, 1, 40, 100
3, 81024, Note_on_c, 1, 42, 80
3, 81404, Note_off_c, 1, 42, 100
3, 81408, Note_on_c, 1, 42, 80
3, 81408, Note_on_c, 1, 30, 80
3, 81692, Note_off_c, 1, 42, 100
3, 81692, Note_off_c, 1, 30, 100
3, 81696, Note_on_c, 1, 42, 80
3, 81696, Note_on_c, 1, 30, 80
3, 81788, Note_off_c, 1, 42, 100
3, 81788, Note_off_c, 1, 30, 100
3, 81792, Note_on_c, 1, 47, 80
3, 81792, Note_on_c, 1, 35, 80
3, 82172, Note_off_c, 1, 47, 100
3, 82172, Note_off_c, 1, 35, 100
3, 82176, Note_on_c, 1, 47, 80
3, 82176, Note_on_c, 1, 35, 80
3, 82556, Note_off_c, 1, 47, 100
3, 82556, Note_off_c, 1, 35, 100
3, 82560, Note_on_c, 1, 47, 80
3, 82560, Note_on_c, 1, 35, 80
3, 82940, Note_off_c, 1, 47, 100
3, 82940, Note_off_c, 1, 35, 100
3, 83328, Note_on_c, 1, 35, 80
3, 83328, Note_on_c, 1, 47, 80
3, 84092, Note_off_c, 1, 35, 100
3, 84096, Note_on_c, 1, 35, 94
3, 84860, Note_off_c, 1, 47, 100
3, 84860, Note_off_c, 1, 35, 100
3, 84864, Note_on_c, 1, 30, 110
3, 84864, Note_on_c, 1, 42, 110
3, 85148, Note_off_c, 1, 30, 100
3, 85148, Note_off_c, 1, 42, 100
3, 85152, Note_on_c, 1, 42, 110
3, 85152, Note_on_c, 1, 30, 110
3, 85244, Note_off_c, 1, 42, 100
3, 85244, Note_off_c, 1, 30, 100
3, 85248, Note_on_c, 1, 46, 110
3, 85248, Note_on_c, 1, 34, 110
3, 85532, Note_off_c, 1, 46, 100
3, 85532, Note_off_c, 1, 34, 100
3, 85536, Note_on_c, 1, 49, 110
3, 85536, Note_on_c, 1, 37, 110
3, 85628, Note_off_c, 1, 49, 100
3, 85628, Note_off_c, 1, 37, 100
3, 85632, Note_on_c, 1, 54, 110
3, 85632, Note_on_c, 1, 42, 110
3, 86012, Note_off_c, 1, 54, 100
3, 86012, Note_off_c, 1, 42, 100
3, 86016, Note_on_c, 1, 52, 110
3, 86016, Note_on_c, 1, 40, 110
3, 86300, Note_off_c, 1, 52, 100
3, 86300, Note_off_c, 1, 40, 100
3, 86304, Note_on_c, 1, 52, 110
3, 86304, Note_on_c, 1, 40, 110
3, 86396, Note_off_c, 1, 52, 100
3, 86396, Note_off_c, 1, 40, 100
3, 86400, Note_on_c, 1, 50, 110
3, 86400, Note_on_c, 1, 38, 110
3, 86780, Note_off_c, 1, 50, 100
3, 86780, Note_off_c, 1, 38, 100
3, 86784, Note_on_c, 1, 47, 110
3, 86784, Note_on_c, 1, 35, 110
3, 87068, Note_off_c, 1, 47, 100
3, 87068, Note_off_c, 1, 35, 100
3, 87072, Note_on_c, 1, 47, 110
3, 87072, Note_on_c, 1, 35, 110
3, 87164, Note_off_c, 1, 47, 100
3, 87164, Note_off_c, 1, 35, 100
3, 87168, Note_on_c, 1, 46, 110
3, 87168, Note_on_c, 1, 34, 110
3, 87548, Note_off_c, 1, 46, 100
3, 87548, Note_off_c, 1, 34, 100
3, 87552, Note_on_c, 1, 47, 110
3, 87552, Note_on_c, 1, 35, 110
3, 87836, Note_off_c, 1, 47, 100
3, 87836, Note_off_c, 1, 35, 100
3, 87840, Note_on_c, 1, 47, 110
3, 87840, Note_on_c, 1, 35, 110
3, 87932, Note_off_c, 1, 47, 100
3, 87932, Note_off_c, 1, 35, 100
3, 87936, Note_on_c, 1, 42, 110
3, 87936, Note_on_c, 1, 30, 110
3, 88316, Note_off_c, 1, 42, 100
3, 88316, Note_off_c, 1, 30, 100
3, 88320, Note_on_c, 1, 42, 110
3, 88320, Note_on_c, 1, 30, 110
3, 88700, Note_off_c, 1, 42, 100
3, 88700, Note_off_c, 1, 30, 100
3, 88704, Note_on_c, 1, 42, 110
3, 88704, Note_on_c, 1, 30, 110
3, 89084, Note_off_c, 1, 42, 100
3, 89084, Note_off_c, 1, 30, 100
3, 89472, Note_on_c, 1, 47, 80
3, 89472, Note_on_c, 1, 35, 80
3, 90236, Note_off_c, 1, 35, 100
3, 90240, Note_on_c, 1, 35, 80
3, 91004, Note_off_c, 1, 47, 100
3, 91004, Note_off_c, 1, 35, 100
3, 91008, Note_on_c, 1, 40, 80
3, 91292, Note_off_c, 1, 40, 100
3, 91296, Note_on_c, 1, 40, 80
3, 91388, Note_off_c, 1, 40, 100
3, 91392, Note_on_c, 1, 43, 80
3, 91676, Note_off_c, 1, 43, 100
3, 91680, Note_on_c, 1, 47, 80
3, 91772, Note_off_c, 1, 47, 100
3, 91776, Note_on_c, 1, 52, 80
3, 92156, Note_off_c, 1, 52, 100
3, 92160, Note_on_c, 1, 52, 80
3, 92160, Note_on_c, 1, 43, 80
3, 92444, Note_off_c, 1, 52, 100
3, 92444, Note_off_c, 1, 43, 100
3, 92448, Note_on_c, 1, 52, 80
3, 92448, Note_on_c, 1, 43, 80
3, 92540, Note_off_c, 1, 52, 100
3, 92540, Note_off_c, 1, 43, 100
3, 92544, Note_on_c, 1, 54, 80
3, 92544, Note_on_c, 1, 50, 80
3, 92544, Note_on_c, 1, 45, 80
3, 92924, Note_off_c, 1, 54, 100
3, 92924, Note_off_c, 1, 50, 100
3, 92924, Note_off_c, 1, 45, 100
3, 92928, Note_on_c, 1, 54, 85
3, 92928, Note_on_c, 1, 50, 85
3, 92928, Note_on_c, 1, 45, 85
3, 93212, Note_off_c, 1, 54, 100
3, 93212, Note_off_c, 1, 50, 100
3, 93212, Note_off_c, 1, 45, 100
3, 93216, Note_on_c, 1, 54, 89
3, 93216, Note_on_c, 1, 50, 89
3, 93216, Note_on_c, 1, 45, 89
3, 93308, Note_off_c, 1, 54, 100
3, 93308, Note_off_c, 1, 50, 100
3, 93308, Note_off_c, 1, 45, 100
3, 93312, Note_on_c, 1, 52, 90
3, 93312, Note_on_c, 1, 49, 90
3, 93312, Note_on_c, 1, 45, 90
3, 93692, Note_off_c, 1, 52, 100
3, 93692, Note_off_c, 1, 49, 100
3, 93692, Note_off_c, 1, 45, 100
3, 93696, Note_on_c, 1, 52, 95
3, 93696, Note_on_c, 1, 49, 95
3, 93696, Note_on_c, 1, 45, 95
3, 93980, Note_off_c, 1, 52, 100
3, 93980, Note_off_c, 1, 49, 100
3, 93980, Note_off_c, 1, 45, 100
3, 93984, Note_on_c, 1, 52, 99
3, 93984, Note_on_c, 1, 49, 99
3, 93984, Note_on_c, 1, 45, 99
3, 94076, Note_off_c, 1, 52, 100
3, 94076, Note_off_c, 1, 49, 100
3, 94076, Note_off_c, 1, 45, 100
3, 94080, Note_on_c, 1, 50, 80
3, 94080, Note_on_c, 1, 38, 80
3, 94460, Note_off_c, 1, 50, 100
3, 94460, Note_off_c, 1, 38, 100
3, 94464, Note_on_c, 1, 50, 80
3, 94464, Note_on_c, 1, 38, 80
3, 94844, Note_off_c, 1, 50, 100
3, 94844, Note_off_c, 1, 38, 100
3, 94848, Note_on_c, 1, 50, 80
3, 94848, Note_on_c, 1, 38, 80
3, 95228, Note_off_c, 1, 50, 100
3, 95228, Note_off_c, 1, 38, 100
3, 95232, Note_on_c, 1, 56, 70
3, 95232, Note_on_c, 1, 50, 70
3, 95516, Note_off_c, 1, 56, 100
3, 95516, Note_off_c, 1, 50, 100
3, 95520, Note_on_c, 1, 56, 73
3, 95520, Note_on_c, 1, 50, 73
3, 95612, Note_off_c, 1, 56, 100
3, 95612, Note_off_c, 1, 50, 100
3, 95616, Note_on_c, 1, 56, 75
3, 95616, Note_on_c, 1, 50, 75
3, 95996, Note_off_c, 1, 50, 100
3, 96000, Note_on_c, 1, 50, 80
3, 96380, Note_off_c, 1, 56, 100
3, 96380, Note_off_c, 1, 50, 100
3, 96384, Note_on_c, 1, 50, 85
3, 96384, Note_on_c, 1, 58, 85
3, 96764, Note_off_c, 1, 50, 100
3, 96764, Note_off_c, 1, 58, 100
3, 96768, Note_on_c, 1, 50, 90
3, 96768, Note_on_c, 1, 59, 90
3, 97148, Note_off_c, 1, 50, 100
3, 97148, Note_off_c, 1, 59, 100
3, 97152, Note_on_c, 1, 58, 96
3, 97152, Note_on_c, 1, 51, 96
3, 97436, Note_off_c, 1, 58, 100
3, 97436, Note_off_c, 1, 51, 100
3, 97440, Note_on_c, 1, 56, 99
3, 97440, Note_on_c, 1, 50, 99
3, 97532, Note_off_c, 1, 56, 100
3, 97532, Note_off_c, 1, 50, 100
3, 97536, Note_on_c, 1, 56, 110
3, 97536, Note_on_c, 1, 50, 110
3, 97916, Note_off_c, 1, 50, 100
3, 97920, Note_on_c, 1, 50, 110
3, 98300, Note_off_c, 1, 56, 100
3, 98300, Note_off_c, 1, 50, 100
3, 98304, Note_on_c, 1, 56, 110
3, 98304, Note_on_c, 1, 50, 110
3, 98588, Note_off_c, 1, 56, 100
3, 98588, Note_off_c, 1, 50, 100
3, 98592, Note_on_c, 1, 59, 110
3, 98592, Note_on_c, 1, 50, 110
3, 98684, Note_off_c, 1, 59, 100
3, 98684, Note_off_c, 1, 50, 100
3, 98688, Note_on_c, 1, 58, 110
3, 98688, Note_on_c, 1, 51, 110
3, 98972, Note_off_c, 1, 58, 100
3, 98972, Note_off_c, 1, 51, 100
3, 98976, Note_on_c, 1, 56, 120
3, 98976, Note_on_c, 1, 50, 120
3, 99068, Note_off_c, 1, 56, 100
3, 99068, Note_off_c, 1, 50, 100
3, 99072, Note_on_c, 1, 56, 120
3, 99072, Note_on_c, 1, 50, 120
3, 99356, Note_off_c, 1, 56, 100
3, 99356, Note_off_c, 1, 50, 100
3, 99360, Note_on_c, 1, 56, 120
3, 99360, Note_on_c, 1, 50, 120
3, 99452, Note_off_c, 1, 56, 100
3, 99452, Note_off_c, 1, 50, 100
3, 99456, Note_on_c, 1, 56, 120
3, 99456, Note_on_c, 1, 50, 120
3, 99740, Note_off_c, 1, 56, 100
3, 99740, Note_off_c, 1, 50, 100
3, 99744, Note_on_c, 1, 56, 120
3, 99744, Note_on_c, 1, 50, 120
3, 99836, Note_off_c, 1, 56, 100
3, 99836, Note_off_c, 1, 50, 100
3, 99840, Note_on_c, 1, 50, 120
3, 99840, Note_on_c, 1, 58, 120
3, 100124, Note_off_c, 1, 50, 100
3, 100124, Note_off_c, 1, 58, 100
3, 100128, Note_on_c, 1, 59, 120
3, 100128, Note_on_c, 1, 50, 120
3, 100220, Note_off_c, 1, 59, 100
3, 100220, Note_off_c, 1, 50, 100
3, 100224, Note_on_c, 1, 58, 120
3, 100224, Note_on_c, 1, 51, 120
3, 100604, Note_off_c, 1, 58, 100
3, 100604, Note_off_c, 1, 51, 100
3, 100608, Note_on_c, 1, 52, 120
3, 101372, Note_off_c, 1, 52, 100
3, 101376, Note_on_c, 1, 51, 120
3, 101468, Note_off_c, 1, 51, 100
3, 101472, Note_on_c, 1, 49, 120
3, 101564, Note_off_c, 1, 49, 100
3, 101568, Note_on_c, 1, 47, 120
3, 101660, Note_off_c, 1, 47, 100
3, 101664, Note_on_c, 1, 46, 120
3, 101756, Note_off_c, 1, 46, 100
3, 101760, Note_on_c, 1, 44, 120
3, 101760, Note_on_c, 1, 32, 120
3, 102524, Note_off_c, 1, 32, 100
3, 102528, Note_on_c, 1, 32, 80
3, 103292, Note_off_c, 1, 44, 100
3, 103292, Note_off_c, 1, 32, 100
3, 103296, Note_on_c, 1, 39, 80
3, 103580, Note_off_c, 1, 39, 100
3, 103584, Note_on_c, 1, 39, 80
3, 103676, Note_off_c, 1, 39, 100
3, 103680, Note_on_c, 1, 43, 80
3, 103964, Note_off_c, 1, 43, 100
3, 103968, Note_on_c, 1, 46, 80
3, 104060, Note_off_c, 1, 46, 100
3, 104064, Note_on_c, 1, 51, 80
3, 104444, Note_off_c, 1, 51, 100
3, 104448, Note_on_c, 1, 51, 80
3, 104732, Note_off_c, 1, 51, 100
3, 104736, Note_on_c, 1, 51, 80
3, 104828, Note_off_c, 1, 51, 100
3, 104832, Note_on_c, 1, 47, 80
3, 104856, Note_on_c, 1, 49, 80
3, 104876, Note_off_c, 1, 47, 100
3, 104880, Note_on_c, 1, 47, 80
3, 104900, Note_off_c, 1, 49, 100
3, 104904, Note_on_c, 1, 49, 80
3, 104924, Note_off_c, 1, 47, 100
3, 104928, Note_on_c, 1, 47, 80
3, 104948, Note_off_c, 1, 49, 100
3, 104952, Note_on_c, 1, 49, 80
3, 104972, Note_off_c, 1, 47, 100
3, 104976, Note_on_c, 1, 47, 80
3, 104996, Note_off_c, 1, 49, 100
3, 105000, Note_on_c, 1, 49, 80
3, 105020, Note_off_c, 1, 47, 100
3, 105024, Note_on_c, 1, 47, 80
3, 105044, Note_off_c, 1, 49, 100
3, 105048, Note_on_c, 1, 49, 80
3, 105068, Note_off_c, 1, 47, 100
3, 105072, Note_on_c, 1, 47, 80
3, 105092, Note_off_c, 1, 49, 100
3, 105096, Note_on_c, 1, 49, 80
3, 105116, Note_off_c, 1, 47, 100
3, 105120, Note_on_c, 1, 47, 80
3, 105140, Note_off_c, 1, 49, 100
3, 105144, Note_on_c, 1, 49, 80
3, 105164, Note_off_c, 1, 47, 100
3, 105168, Note_on_c, 1, 47, 80
3, 105188, Note_off_c, 1, 49, 100
3, 105192, Note_on_c, 1, 49, 80
3, 105212, Note_off_c, 1, 47, 100
3, 105216, Note_on_c, 1, 47, 80
3, 105236, Note_off_c, 1, 49, 100
3, 105240, Note_on_c, 1, 49, 80
3, 105260, Note_off_c, 1, 47, 100
3, 105264, Note_on_c, 1, 47, 80
3, 105284, Note_off_c, 1, 49, 100
3, 105288, Note_on_c, 1, 49, 80
3, 105308, Note_off_c, 1, 47, 100
3, 105312, Note_on_c, 1, 47, 80
3, 105332, Note_off_c, 1, 49, 100
3, 105336, Note_on_c, 1, 49, 80
3, 105356, Note_off_c, 1, 47, 100
3, 105360, Note_on_c, 1, 46, 80
3, 105380, Note_off_c, 1, 49, 100
3, 105384, Note_on_c, 1, 47, 80
3, 105404, Note_off_c, 1, 46, 100
3, 105408, Note_on_c, 1, 46, 80
3, 105428, Note_off_c, 1, 47, 100
3, 105500, Note_off_c, 1, 46, 100
3, 105504, Note_on_c, 1, 44, 80
3, 105596, Note_off_c, 1, 44, 100
3, 105600, Note_on_c, 1, 43, 80
3, 105980, Note_off_c, 1, 43, 100
3, 105984, Note_on_c, 1, 44, 80
3, 106268, Note_off_c, 1, 44, 100
3, 106272, Note_on_c, 1, 44, 80
3, 106364, Note_off_c, 1, 44, 100
3, 106368, Note_on_c, 1, 39, 80
3, 106748, Note_off_c, 1, 39, 100
3, 106752, Note_on_c, 1, 39, 80
3, 107132, Note_off_c, 1, 39, 100
3, 107136, Note_on_c, 1, 39, 80
3, 107516, Note_off_c, 1, 39, 100
3, 107904, Note_on_c, 1, 44, 80
3, 107904, Note_on_c, 1, 32, 80
3, 108668, Note_off_c, 1, 32, 100
3, 108672, Note_on_c, 1, 32, 80
3, 109436, Note_off_c, 1, 44, 100
3, 109436, Note_off_c, 1, 32, 100
3, 109440, Note_on_c, 1, 37, 80
3, 109724, Note_off_c, 1, 37, 100
3, 109728, Note_on_c, 1, 37, 84
3, 109820, Note_off_c, 1, 37, 100
3, 109824, Note_on_c, 1, 40, 86
3, 110108, Note_off_c, 1, 40, 100
3, 110112, Note_on_c, 1, 44, 91
3, 110204, Note_off_c, 1, 44, 100
3, 110208, Note_on_c, 1, 49, 93
3, 110588, Note_off_c, 1, 49, 100
3, 111264, Note_on_c, 1, 45, 110
3, 111264, Note_on_c, 1, 33, 110
3, 111356, Note_off_c, 1, 45, 100
3, 111356, Note_off_c, 1, 33, 100
3, 111360, Note_on_c, 1, 49, 110
3, 111360, Note_on_c, 1, 37, 110
3, 111644, Note_off_c, 1, 49, 100
3, 111644, Note_off_c, 1, 37, 100
3, 111648, Note_on_c, 1, 52, 110
3, 111648, Note_on_c, 1, 40, 110
3, 111740, Note_off_c, 1, 52, 100
3, 111740, Note_off_c, 1, 40, 100
3, 111744, Note_on_c, 1, 57, 110
3, 111744, Note_on_c, 1, 45, 110
3, 112124, Note_off_c, 1, 57, 100
3, 112124, Note_off_c, 1, 45, 100
3, 112800, Note_on_c, 1, 55, 110
3, 112800, Note_on_c, 1, 43, 110
3, 112892, Note_off_c, 1, 55, 100
3, 112892, Note_off_c, 1, 43, 100
3, 112896, Note_on_c, 1, 58, 110
3, 112896, Note_on_c, 1, 46, 110
3, 113180, Note_off_c, 1, 58, 100
3, 113180, Note_off_c, 1, 46, 100
3, 113184, Note_on_c, 1, 63, 110
3, 113184, Note_on_c, 1, 51, 110
3, 113276, Note_off_c, 1, 63, 100
3, 113276, Note_off_c, 1, 51, 100
3, 113280, Note_on_c, 1, 67, 110
3, 113280, Note_on_c, 1, 55, 110
3, 113660, Note_off_c, 1, 67, 100
3, 113660, Note_off_c, 1, 55, 100
3, 113664, Note_on_c, 1, 55, 120
3, 113664, Note_on_c, 1, 43, 120
3, 114044, Note_off_c, 1, 55, 100
3, 114044, Note_off_c, 1, 43, 100
3, 114048, Note_on_c, 1, 56, 120
3, 114048, Note_on_c, 1, 44, 120
3, 114812, Note_off_c, 1, 56, 100
3, 114812, Note_off_c, 1, 44, 100
3, 114816, Note_on_c, 1, 49, 120
3, 114816, Note_on_c, 1, 37, 120
3, 115196, Note_off_c, 1, 49, 100
3, 115196, Note_off_c, 1, 37, 100
3, 115200, Note_on_c, 1, 51, 120
3, 115200, Note_on_c, 1, 39, 120
3, 115580, Note_off_c, 1, 51, 100
3, 115580, Note_off_c, 1, 39, 100
3, 115584, Note_on_c, 1, 32, 120
3, 115584, Note_on_c, 1, 44, 120
3, 115964, Note_off_c, 1, 32, 100
3, 115964, Note_off_c, 1, 44, 100
3, 115968, Note_on_c, 1, 44, 80
3, 116252, Note_off_c, 1, 44, 100
3, 116256, Note_on_c, 1, 44, 80
3, 116348, Note_off_c, 1, 44, 100
3, 116736, Note_on_c, 1, 44, 80
3, 116736, Note_on_c, 1, 48, 80
3, 117020, Note_off_c, 1, 48, 100
3, 117024, Note_on_c, 1, 49, 80
3, 117116, Note_off_c, 1, 44, 100
3, 117116, Note_off_c, 1, 49, 100
3, 117120, Note_on_c, 1, 51, 80
3, 117120, Note_on_c, 1, 44, 80
3, 117500, Note_off_c, 1, 44, 100
3, 117504, Note_on_c, 1, 44, 80
3, 117788, Note_off_c, 1, 51, 100
3, 117792, Note_on_c, 1, 52, 80
3, 117884, Note_off_c, 1, 44, 100
3, 117884, Note_off_c, 1, 52, 100
3, 117888, Note_on_c, 1, 44, 80
3, 117888, Note_on_c, 1, 54, 80
3, 118268, Note_off_c, 1, 44, 100
3, 118268, Note_off_c, 1, 54, 100
3, 118272, Note_on_c, 1, 44, 80
3, 118272, Note_on_c, 1, 55, 80
3, 118652, Note_off_c, 1, 44, 100
3, 118652, Note_off_c, 1, 55, 100
3, 118656, Note_on_c, 1, 44, 80
3, 118656, Note_on_c, 1, 56, 80
3, 119036, Note_off_c, 1, 44, 100
3, 119036, Note_off_c, 1, 56, 100
3, 119040, Note_on_c, 1, 44, 80
3, 119324, Note_off_c, 1, 44, 100
3, 119328, Note_on_c, 1, 44, 80
3, 119420, Note_off_c, 1, 44, 100
3, 119424, Note_on_c, 1, 44, 80
3, 119804, Note_off_c, 1, 44, 100
3, 119808, Note_on_c, 1, 57, 80
3, 119808, Note_on_c, 1, 44, 80
3, 120140, Note_off_c, 1, 57, 100
3, 120144, Note_on_c, 1, 56, 80
3, 120188, Note_off_c, 1, 44, 100
3, 120188, Note_off_c, 1, 56, 100
3, 120192, Note_on_c, 1, 54, 80
3, 120192, Note_on_c, 1, 44, 80
3, 120572, Note_off_c, 1, 44, 100
3, 120576, Note_on_c, 1, 44, 80
3, 120860, Note_off_c, 1, 54, 100
3, 120864, Note_on_c, 1, 52, 80
3, 120956, Note_off_c, 1, 44, 100
3, 120956, Note_off_c, 1, 52, 100
3, 120960, Note_on_c, 1, 44, 80
3, 120960, Note_on_c, 1, 51, 80
3, 121340, Note_off_c, 1, 44, 100
3, 121340, Note_off_c, 1, 51, 100
3, 121344, Note_on_c, 1, 44, 80
3, 121344, Note_on_c, 1, 49, 80
3, 121724, Note_off_c, 1, 44, 100
3, 121724, Note_off_c, 1, 49, 100
3, 121728, Note_on_c, 1, 48, 80
3, 121728, Note_on_c, 1, 44, 80
3, 122108, Note_off_c, 1, 44, 100
3, 122112, Note_on_c, 1, 44, 80
3, 122396, Note_off_c, 1, 44, 100
3, 122400, Note_on_c, 1, 44, 80
3, 122492, Note_off_c, 1, 48, 100
3, 122492, Note_off_c, 1, 44, 100
3, 122496, Note_on_c, 1, 52, 80
3, 122496, Note_on_c, 1, 49, 80
3, 122496, Note_on_c, 1, 44, 80
3, 122876, Note_off_c, 1, 44, 100
3, 122880, Note_on_c, 1, 44, 80
3, 123164, Note_off_c, 1, 44, 100
3, 123168, Note_on_c, 1, 44, 80
3, 123260, Note_off_c, 1, 52, 100
3, 123260, Note_off_c, 1, 49, 100
3, 123260, Note_off_c, 1, 44, 100
3, 123264, Note_on_c, 1, 48, 80
3, 123264, Note_on_c, 1, 51, 80
3, 123264, Note_on_c, 1, 44, 80
3, 123644, Note_off_c, 1, 48, 100
3, 123644, Note_off_c, 1, 51, 100
3, 123648, Note_on_c, 1, 32, 80
3, 123932, Note_off_c, 1, 32, 100
3, 123936, Note_on_c, 1, 32, 80
3, 124028, Note_off_c, 1, 32, 100
3, 124032, Note_on_c, 1, 32, 80
3, 124412, Note_off_c, 1, 32, 100
3, 124416, Note_on_c, 1, 32, 80
3, 124700, Note_off_c, 1, 32, 100
3, 124704, Note_on_c, 1, 32, 80
3, 124796, Note_off_c, 1, 44, 100
3, 124796, Note_off_c, 1, 32, 100
3, 124800, Control_c, 1, 64, 127
3, 124800, Note_on_c, 1, 44, 80
3, 124800, Note_on_c, 1, 32, 80
3, 125180, Note_off_c, 1, 32, 100
3, 125184, Note_on_c, 1, 32, 77
3, 125468, Note_off_c, 1, 32, 100
3, 125472, Note_on_c, 1, 32, 74
3, 125564, Note_off_c, 1, 32, 100
3, 125568, Note_on_c, 1, 32, 73
3, 125948, Note_off_c, 1, 32, 100
3, 125952, Note_on_c, 1, 32, 69
3, 126236, Note_off_c, 1, 32, 100
3, 126240, Note_on_c, 1, 32, 66
3, 126332, Note_off_c, 1, 44, 100
3, 126332, Note_off_c, 1, 32, 100
3, 126336, Note_on_c, 1, 44, 66
3, 126336, Note_on_c, 1, 32, 66
3, 127864, Control_c, 1, 64, 0
3, 127868, Note_off_c, 1, 44, 100
3, 127868, Note_off_c, 1, 32, 100
3, 127868, End_track
0, 0, End_of_file
