0, 0, Header, 1, 3, 384
1, 0, Start_track
1, 0, Title_t, "L.v.Beethoven 2mov - Piano Sonata No.12 in Ab Major Op.26\000"
1, 0, Copyright_t, "Copyright(C) 1995-2009, Suzuki Software\000"
1, 0, Sequencer_specific, 9, 67, 123, 0, 88, 70, 48, 50, 0, 1
1, 0, Text_t, "XFhd:2000/05/28:JP:Classical::::L.v.Beethoven:::Kaoru Suzuki\000"
1, 0, Text_t, "XFln:JP:\203s\203A\203m\203\\\203i\203^\221æ12\224Ô\225Ï\203C\222·\222²\215ì\225i26\201`\221æ2\212y\217Í:L.v.\203x\201[\203g\201[\203\224\203F\203\223:::\227é\202¿\202á\202ñ:\227é\202¿\202á\202ñ\000"
1, 0, Time_signature, 1, 2, 96, 8
1, 0, Sequencer_specific, 3, 0, 0, 65
1, 0, Sequencer_specific, 5, 0, 0, 119, 14, 0
1, 0, Tempo, 222222
1, 384, Time_signature, 3, 2, 96, 8
1, 48768, Tempo, 230769
1, 49920, Tempo, 240000
1, 51072, Tempo, 222222
1, 75264, Tempo, 230769
1, 76032, Tempo, 240000
1, 77568, Tempo, 222222
1, 106368, Tempo, 230769
1, 107520, Tempo, 240000
1, 108672, Tempo, 250000
1, 109824, Tempo, 222222
1, 134016, Tempo, 230769
1, 134784, Tempo, 240000
1, 135168, Tempo, 250000
1, 136320, Tempo, 230769
1, 150528, Tempo, 240000
1, 152448, Tempo, 230769
1, 188160, Tempo, 240000
1, 189312, Tempo, 250000
1, 191616, Tempo, 230769
1, 196224, Tempo, 222222
1, 244608, Tempo, 230769
1, 245760, Tempo, 240000
1, 246912, Tempo, 222222
1, 271104, Tempo, 230769
1, 271872, Tempo, 250000
1, 273408, Tempo, 222222
1, 302208, Tempo, 230769
1, 303360, Tempo, 240000
1, 304512, Tempo, 250000
1, 305280, Tempo, 222222
1, 329856, Tempo, 240000
1, 330240, Tempo, 260869
1, 330624, Tempo, 333333
1, 330624, End_track
2, 0, Start_track
2, 0, Title_t, "Right"
2, 0, Control_c, 0, 0, 0
2, 0, Program_c, 0, 0
2, 0, Control_c, 0, 7, 100
2, 0, Control_c, 0, 10, 75
2, 0, Control_c, 0, 91, 127
2, 0, Key_signature, -4, "major"
2, 0, Note_on_c, 0, 68, 80
2, 188, Note_off_c, 0, 68, 100
2, 192, Note_on_c, 0, 70, 80
2, 380, Note_off_c, 0, 70, 100
2, 384, Note_on_c, 0, 68, 100
2, 384, Note_on_c, 0, 72, 100
2, 1148, Note_off_c, 0, 72, 100
2, 1152, Note_on_c, 0, 74, 80
2, 1532, Note_off_c, 0, 68, 100
2, 1532, Note_off_c, 0, 74, 100
2, 1536, Note_on_c, 0, 67, 80
2, 1536, Note_on_c, 0, 75, 80
2, 2300, Note_off_c, 0, 67, 100
2, 2304, Note_on_c, 0, 70, 80
2, 2684, Note_off_c, 0, 70, 100
2, 2688, Note_on_c, 0, 72, 80
2, 3068, Note_off_c, 0, 75, 100
2, 3068, Note_off_c, 0, 72, 100
2, 3072, Note_on_c, 0, 77, 80
2, 3072, Note_on_c, 0, 68, 80
2, 3452, Note_off_c, 0, 77, 100
2, 3452, Note_off_c, 0, 68, 100
2, 3456, Note_on_c, 0, 74, 80
2, 3456, Note_on_c, 0, 68, 80
2, 3836, Note_off_c, 0, 74, 100
2, 3836, Note_off_c, 0, 68, 100
2, 3840, Note_on_c, 0, 75, 80
2, 3840, Note_on_c, 0, 67, 80
2, 4220, Note_off_c, 0, 75, 100
2, 4220, Note_off_c, 0, 67, 100
2, 4608, Note_on_c, 0, 73, 80
2, 4796, Note_off_c, 0, 73, 100
2, 4800, Note_on_c, 0, 75, 80
2, 4988, Note_off_c, 0, 75, 100
2, 4992, Note_on_c, 0, 77, 100
2, 4992, Note_on_c, 0, 73, 100
2, 5756, Note_off_c, 0, 77, 100
2, 5760, Note_on_c, 0, 79, 80
2, 6140, Note_off_c, 0, 73, 100
2, 6140, Note_off_c, 0, 79, 100
2, 6144, Note_on_c, 0, 80, 80
2, 6144, Note_on_c, 0, 72, 80
2, 6908, Note_off_c, 0, 72, 100
2, 6912, Note_on_c, 0, 75, 80
2, 7292, Note_off_c, 0, 75, 100
2, 7296, Note_on_c, 0, 77, 80
2, 7676, Note_off_c, 0, 80, 100
2, 7676, Note_off_c, 0, 77, 100
2, 7680, Note_on_c, 0, 82, 80
2, 7680, Note_on_c, 0, 73, 80
2, 8060, Note_off_c, 0, 82, 100
2, 8060, Note_off_c, 0, 73, 100
2, 8064, Note_on_c, 0, 79, 80
2, 8064, Note_on_c, 0, 73, 80
2, 8444, Note_off_c, 0, 79, 100
2, 8444, Note_off_c, 0, 73, 100
2, 8448, Note_on_c, 0, 72, 80
2, 8448, Note_on_c, 0, 80, 80
2, 8828, Note_off_c, 0, 72, 100
2, 8828, Note_off_c, 0, 80, 100
2, 9216, Note_on_c, 0, 68, 80
2, 9404, Note_off_c, 0, 68, 100
2, 9408, Note_on_c, 0, 70, 80
2, 9596, Note_off_c, 0, 70, 100
2, 9600, Note_on_c, 0, 72, 100
2, 9600, Note_on_c, 0, 68, 100
2, 9980, Note_off_c, 0, 72, 100
2, 9984, Note_on_c, 0, 73, 80
2, 10364, Note_off_c, 0, 73, 100
2, 10368, Note_on_c, 0, 74, 80
2, 10748, Note_off_c, 0, 68, 100
2, 10748, Note_off_c, 0, 74, 100
2, 10752, Note_on_c, 0, 67, 80
2, 10752, Note_on_c, 0, 75, 80
2, 11132, Note_off_c, 0, 67, 100
2, 11136, Note_on_c, 0, 68, 80
2, 11516, Note_off_c, 0, 68, 100
2, 11520, Note_on_c, 0, 70, 80
2, 11900, Note_off_c, 0, 70, 100
2, 11904, Note_on_c, 0, 72, 80
2, 12284, Note_off_c, 0, 75, 100
2, 12284, Note_off_c, 0, 72, 100
2, 12288, Note_on_c, 0, 77, 80
2, 12288, Note_on_c, 0, 68, 80
2, 12668, Note_off_c, 0, 77, 100
2, 12668, Note_off_c, 0, 68, 100
2, 12672, Note_on_c, 0, 74, 80
2, 12672, Note_on_c, 0, 68, 80
2, 13052, Note_off_c, 0, 74, 100
2, 13052, Note_off_c, 0, 68, 100
2, 13056, Note_on_c, 0, 75, 80
2, 13056, Note_on_c, 0, 67, 80
2, 13436, Note_off_c, 0, 75, 100
2, 13436, Note_off_c, 0, 67, 100
2, 13824, Note_on_c, 0, 73, 80
2, 14012, Note_off_c, 0, 73, 100
2, 14016, Note_on_c, 0, 75, 80
2, 14204, Note_off_c, 0, 75, 100
2, 14208, Note_on_c, 0, 73, 100
2, 14208, Note_on_c, 0, 77, 100
2, 14588, Note_off_c, 0, 77, 100
2, 14592, Note_on_c, 0, 78, 80
2, 14972, Note_off_c, 0, 78, 100
2, 14976, Note_on_c, 0, 79, 80
2, 15356, Note_off_c, 0, 73, 100
2, 15356, Note_off_c, 0, 79, 100
2, 15360, Note_on_c, 0, 80, 80
2, 15360, Note_on_c, 0, 72, 80
2, 15740, Note_off_c, 0, 72, 100
2, 15744, Note_on_c, 0, 73, 80
2, 16124, Note_off_c, 0, 73, 100
2, 16128, Note_on_c, 0, 75, 80
2, 16508, Note_off_c, 0, 75, 100
2, 16512, Note_on_c, 0, 77, 80
2, 16892, Note_off_c, 0, 80, 100
2, 16892, Note_off_c, 0, 77, 100
2, 16896, Note_on_c, 0, 82, 80
2, 16896, Note_on_c, 0, 73, 80
2, 17276, Note_off_c, 0, 82, 100
2, 17276, Note_off_c, 0, 73, 100
2, 17280, Note_on_c, 0, 73, 80
2, 17280, Note_on_c, 0, 79, 80
2, 17660, Note_off_c, 0, 73, 100
2, 17660, Note_off_c, 0, 79, 100
2, 17664, Note_on_c, 0, 80, 80
2, 17664, Note_on_c, 0, 72, 80
2, 18044, Note_off_c, 0, 80, 100
2, 18044, Note_off_c, 0, 72, 100
2, 18432, Note_on_c, 0, 60, 80
2, 18432, Note_on_c, 0, 56, 80
2, 18620, Note_off_c, 0, 60, 100
2, 18620, Note_off_c, 0, 56, 100
2, 18624, Note_on_c, 0, 61, 80
2, 18624, Note_on_c, 0, 58, 80
2, 18812, Note_off_c, 0, 61, 100
2, 18812, Note_off_c, 0, 58, 100
2, 18816, Note_on_c, 0, 63, 80
2, 18816, Note_on_c, 0, 60, 80
2, 19580, Note_off_c, 0, 63, 100
2, 19580, Note_off_c, 0, 60, 100
2, 19584, Note_on_c, 0, 65, 80
2, 19584, Note_on_c, 0, 61, 80
2, 19964, Note_off_c, 0, 65, 100
2, 19964, Note_off_c, 0, 61, 100
2, 19968, Note_on_c, 0, 66, 80
2, 19968, Note_on_c, 0, 63, 80
2, 20348, Note_off_c, 0, 66, 100
2, 20348, Note_off_c, 0, 63, 100
2, 20736, Note_on_c, 0, 66, 100
2, 20736, Note_on_c, 0, 63, 100
2, 21116, Note_off_c, 0, 66, 100
2, 21116, Note_off_c, 0, 63, 100
2, 21120, Note_on_c, 0, 72, 100
2, 21120, Note_on_c, 0, 66, 100
2, 21500, Note_off_c, 0, 72, 100
2, 21500, Note_off_c, 0, 66, 100
2, 21504, Note_on_c, 0, 75, 100
2, 21504, Note_on_c, 0, 72, 100
2, 21884, Note_off_c, 0, 75, 100
2, 21884, Note_off_c, 0, 72, 100
2, 21888, Note_on_c, 0, 78, 100
2, 21888, Note_on_c, 0, 75, 100
2, 22652, Note_off_c, 0, 75, 100
2, 22652, Note_off_c, 0, 78, 100
2, 22656, Note_on_c, 0, 77, 100
2, 22656, Note_on_c, 0, 74, 100
2, 23036, Note_off_c, 0, 77, 100
2, 23036, Note_off_c, 0, 74, 100
2, 23040, Note_on_c, 0, 62, 80
2, 23040, Note_on_c, 0, 58, 80
2, 23228, Note_off_c, 0, 62, 100
2, 23228, Note_off_c, 0, 58, 100
2, 23232, Note_on_c, 0, 63, 80
2, 23232, Note_on_c, 0, 60, 80
2, 23420, Note_off_c, 0, 63, 100
2, 23420, Note_off_c, 0, 60, 100
2, 23424, Note_on_c, 0, 65, 80
2, 23424, Note_on_c, 0, 62, 80
2, 24188, Note_off_c, 0, 65, 100
2, 24188, Note_off_c, 0, 62, 100
2, 24192, Note_on_c, 0, 67, 80
2, 24192, Note_on_c, 0, 64, 80
2, 24572, Note_off_c, 0, 67, 100
2, 24572, Note_off_c, 0, 64, 100
2, 24576, Note_on_c, 0, 65, 80
2, 24576, Note_on_c, 0, 68, 80
2, 24956, Note_off_c, 0, 65, 100
2, 24956, Note_off_c, 0, 68, 100
2, 25344, Note_on_c, 0, 68, 100
2, 25344, Note_on_c, 0, 65, 100
2, 25724, Note_off_c, 0, 68, 100
2, 25724, Note_off_c, 0, 65, 100
2, 25728, Note_on_c, 0, 74, 100
2, 25728, Note_on_c, 0, 68, 100
2, 26108, Note_off_c, 0, 74, 100
2, 26108, Note_off_c, 0, 68, 100
2, 26112, Note_on_c, 0, 77, 100
2, 26112, Note_on_c, 0, 74, 100
2, 26492, Note_off_c, 0, 77, 100
2, 26492, Note_off_c, 0, 74, 100
2, 26496, Note_on_c, 0, 80, 100
2, 26496, Note_on_c, 0, 77, 100
2, 27260, Note_off_c, 0, 77, 100
2, 27260, Note_off_c, 0, 80, 100
2, 27264, Note_on_c, 0, 79, 80
2, 27264, Note_on_c, 0, 76, 80
2, 27644, Note_off_c, 0, 79, 100
2, 27644, Note_off_c, 0, 76, 100
2, 27648, Note_on_c, 0, 64, 80
2, 27648, Note_on_c, 0, 60, 80
2, 27836, Note_off_c, 0, 64, 100
2, 27836, Note_off_c, 0, 60, 100
2, 27840, Note_on_c, 0, 65, 80
2, 27840, Note_on_c, 0, 62, 80
2, 28028, Note_off_c, 0, 65, 100
2, 28028, Note_off_c, 0, 62, 100
2, 28032, Note_on_c, 0, 67, 80
2, 28032, Note_on_c, 0, 64, 80
2, 28796, Note_off_c, 0, 67, 100
2, 28796, Note_off_c, 0, 64, 100
2, 28800, Note_on_c, 0, 68, 80
2, 28800, Note_on_c, 0, 65, 80
2, 29180, Note_off_c, 0, 68, 100
2, 29180, Note_off_c, 0, 65, 100
2, 29184, Note_on_c, 0, 67, 80
2, 29184, Note_on_c, 0, 70, 80
2, 29564, Note_off_c, 0, 67, 100
2, 29564, Note_off_c, 0, 70, 100
2, 29952, Note_on_c, 0, 64, 100
2, 29952, Note_on_c, 0, 60, 100
2, 30140, Note_off_c, 0, 64, 100
2, 30140, Note_off_c, 0, 60, 100
2, 30144, Note_on_c, 0, 65, 100
2, 30144, Note_on_c, 0, 62, 100
2, 30332, Note_off_c, 0, 65, 100
2, 30332, Note_off_c, 0, 62, 100
2, 30336, Note_on_c, 0, 67, 101
2, 30336, Note_on_c, 0, 64, 101
2, 30716, Note_off_c, 0, 67, 100
2, 30716, Note_off_c, 0, 64, 100
2, 30720, Note_on_c, 0, 64, 103
2, 30720, Note_on_c, 0, 60, 103
2, 30908, Note_off_c, 0, 64, 100
2, 30908, Note_off_c, 0, 60, 100
2, 30912, Note_on_c, 0, 65, 103
2, 30912, Note_on_c, 0, 62, 103
2, 31100, Note_off_c, 0, 65, 100
2, 31100, Note_off_c, 0, 62, 100
2, 31104, Note_on_c, 0, 67, 104
2, 31104, Note_on_c, 0, 64, 104
2, 31292, Note_off_c, 0, 67, 100
2, 31292, Note_off_c, 0, 64, 100
2, 31296, Note_on_c, 0, 68, 105
2, 31296, Note_on_c, 0, 65, 105
2, 31484, Note_off_c, 0, 68, 100
2, 31484, Note_off_c, 0, 65, 100
2, 31488, Note_on_c, 0, 70, 106
2, 31488, Note_on_c, 0, 67, 106
2, 31868, Note_off_c, 0, 70, 100
2, 31868, Note_off_c, 0, 67, 100
2, 31872, Note_on_c, 0, 67, 107
2, 31872, Note_on_c, 0, 64, 107
2, 32060, Note_off_c, 0, 67, 100
2, 32060, Note_off_c, 0, 64, 100
2, 32064, Note_on_c, 0, 68, 108
2, 32064, Note_on_c, 0, 65, 108
2, 32252, Note_off_c, 0, 68, 100
2, 32252, Note_off_c, 0, 65, 100
2, 32256, Note_on_c, 0, 70, 109
2, 32256, Note_on_c, 0, 67, 109
2, 32444, Note_off_c, 0, 70, 100
2, 32444, Note_off_c, 0, 67, 100
2, 32448, Note_on_c, 0, 72, 109
2, 32448, Note_on_c, 0, 68, 109
2, 32636, Note_off_c, 0, 72, 100
2, 32636, Note_off_c, 0, 68, 100
2, 32640, Note_on_c, 0, 73, 80
2, 32640, Note_on_c, 0, 70, 80
2, 33020, Note_off_c, 0, 73, 100
2, 33020, Note_off_c, 0, 70, 100
2, 33408, Note_on_c, 0, 70, 80
2, 33408, Note_on_c, 0, 67, 80
2, 33788, Note_off_c, 0, 70, 100
2, 33788, Note_off_c, 0, 67, 100
2, 33792, Note_on_c, 0, 67, 80
2, 33792, Note_on_c, 0, 64, 80
2, 34172, Note_off_c, 0, 67, 100
2, 34172, Note_off_c, 0, 64, 100
2, 34560, Note_on_c, 0, 70, 80
2, 34560, Note_on_c, 0, 67, 80
2, 34940, Note_off_c, 0, 70, 100
2, 34940, Note_off_c, 0, 67, 100
2, 34944, Note_on_c, 0, 73, 80
2, 34944, Note_on_c, 0, 70, 80
2, 35324, Note_off_c, 0, 73, 100
2, 35324, Note_off_c, 0, 70, 100
2, 35712, Note_on_c, 0, 70, 80
2, 35712, Note_on_c, 0, 67, 80
2, 36092, Note_off_c, 0, 70, 100
2, 36092, Note_off_c, 0, 67, 100
2, 36096, Note_on_c, 0, 67, 80
2, 36096, Note_on_c, 0, 64, 80
2, 36476, Note_off_c, 0, 67, 100
2, 36476, Note_off_c, 0, 64, 100
2, 36864, Note_on_c, 0, 70, 80
2, 36864, Note_on_c, 0, 67, 80
2, 37244, Note_off_c, 0, 70, 100
2, 37244, Note_off_c, 0, 67, 100
2, 37248, Note_on_c, 0, 73, 80
2, 37248, Note_on_c, 0, 70, 80
2, 37248, Note_on_c, 0, 67, 80
2, 38012, Note_off_c, 0, 73, 100
2, 38012, Note_off_c, 0, 70, 100
2, 38012, Note_off_c, 0, 67, 100
2, 38016, Note_on_c, 0, 72, 80
2, 38016, Note_on_c, 0, 70, 80
2, 38016, Note_on_c, 0, 67, 80
2, 38396, Note_off_c, 0, 72, 100
2, 38396, Note_off_c, 0, 70, 100
2, 38396, Note_off_c, 0, 67, 100
2, 38400, Note_on_c, 0, 73, 80
2, 38400, Note_on_c, 0, 70, 80
2, 38400, Note_on_c, 0, 67, 80
2, 39164, Note_off_c, 0, 73, 100
2, 39164, Note_off_c, 0, 70, 100
2, 39164, Note_off_c, 0, 67, 100
2, 39168, Note_on_c, 0, 72, 80
2, 39168, Note_on_c, 0, 70, 80
2, 39168, Note_on_c, 0, 67, 80
2, 39548, Note_off_c, 0, 72, 100
2, 39548, Note_off_c, 0, 70, 100
2, 39548, Note_off_c, 0, 67, 100
2, 39552, Note_on_c, 0, 73, 80
2, 39552, Note_on_c, 0, 70, 80
2, 39552, Note_on_c, 0, 67, 80
2, 40316, Note_off_c, 0, 73, 100
2, 40316, Note_off_c, 0, 70, 100
2, 40316, Note_off_c, 0, 67, 100
2, 40320, Note_on_c, 0, 72, 80
2, 40320, Note_on_c, 0, 70, 80
2, 40320, Note_on_c, 0, 67, 80
2, 40700, Note_off_c, 0, 72, 100
2, 40700, Note_off_c, 0, 70, 100
2, 40700, Note_off_c, 0, 67, 100
2, 40704, Note_on_c, 0, 73, 80
2, 40704, Note_on_c, 0, 70, 80
2, 40704, Note_on_c, 0, 67, 80
2, 41468, Note_off_c, 0, 73, 100
2, 41468, Note_off_c, 0, 70, 100
2, 41468, Note_off_c, 0, 67, 100
2, 41472, Note_on_c, 0, 72, 78
2, 41472, Note_on_c, 0, 70, 78
2, 41472, Note_on_c, 0, 67, 78
2, 41852, Note_off_c, 0, 72, 100
2, 41852, Note_off_c, 0, 70, 100
2, 41852, Note_off_c, 0, 67, 100
2, 41856, Note_on_c, 0, 73, 77
2, 41856, Note_on_c, 0, 64, 77
2, 41856, Note_on_c, 0, 70, 77
2, 42620, Note_off_c, 0, 73, 100
2, 42620, Note_off_c, 0, 64, 100
2, 42620, Note_off_c, 0, 70, 100
2, 42624, Note_on_c, 0, 72, 75
2, 42624, Note_on_c, 0, 70, 75
2, 42624, Note_on_c, 0, 64, 75
2, 43004, Note_off_c, 0, 72, 100
2, 43004, Note_off_c, 0, 70, 100
2, 43004, Note_off_c, 0, 64, 100
2, 43008, Note_on_c, 0, 73, 74
2, 43008, Note_on_c, 0, 64, 74
2, 43008, Note_on_c, 0, 70, 74
2, 43772, Note_off_c, 0, 73, 100
2, 43772, Note_off_c, 0, 64, 100
2, 43772, Note_off_c, 0, 70, 100
2, 43776, Note_on_c, 0, 72, 72
2, 43776, Note_on_c, 0, 70, 72
2, 43776, Note_on_c, 0, 64, 72
2, 44156, Note_off_c, 0, 72, 100
2, 44156, Note_off_c, 0, 70, 100
2, 44156, Note_off_c, 0, 64, 100
2, 44160, Note_on_c, 0, 73, 71
2, 44160, Note_on_c, 0, 64, 71
2, 44160, Note_on_c, 0, 70, 71
2, 44924, Note_off_c, 0, 73, 100
2, 44924, Note_off_c, 0, 64, 100
2, 44924, Note_off_c, 0, 70, 100
2, 44928, Note_on_c, 0, 72, 69
2, 44928, Note_on_c, 0, 70, 69
2, 44928, Note_on_c, 0, 64, 69
2, 45308, Note_off_c, 0, 72, 100
2, 45308, Note_off_c, 0, 70, 100
2, 45308, Note_off_c, 0, 64, 100
2, 45312, Note_on_c, 0, 73, 68
2, 45312, Note_on_c, 0, 64, 68
2, 45312, Note_on_c, 0, 70, 68
2, 46076, Note_off_c, 0, 73, 100
2, 46076, Note_off_c, 0, 64, 100
2, 46076, Note_off_c, 0, 70, 100
2, 46080, Note_on_c, 0, 72, 66
2, 46080, Note_on_c, 0, 70, 66
2, 46080, Note_on_c, 0, 64, 66
2, 46460, Note_off_c, 0, 72, 100
2, 46460, Note_off_c, 0, 70, 100
2, 46460, Note_off_c, 0, 64, 100
2, 46464, Note_on_c, 0, 70, 65
2, 46464, Note_on_c, 0, 64, 65
2, 46464, Note_on_c, 0, 73, 65
2, 47228, Note_off_c, 0, 70, 100
2, 47228, Note_off_c, 0, 64, 100
2, 47228, Note_off_c, 0, 73, 100
2, 47616, Note_on_c, 0, 72, 65
2, 47616, Note_on_c, 0, 70, 65
2, 47616, Note_on_c, 0, 64, 65
2, 48380, Note_off_c, 0, 72, 100
2, 48380, Note_off_c, 0, 70, 100
2, 48380, Note_off_c, 0, 64, 100
2, 48768, Note_on_c, 0, 72, 65
2, 48768, Note_on_c, 0, 70, 65
2, 48768, Note_on_c, 0, 64, 65
2, 49532, Note_off_c, 0, 72, 100
2, 49532, Note_off_c, 0, 70, 100
2, 49532, Note_off_c, 0, 64, 100
2, 49920, Note_on_c, 0, 72, 65
2, 49920, Note_on_c, 0, 70, 65
2, 49920, Note_on_c, 0, 64, 65
2, 50684, Note_off_c, 0, 72, 100
2, 50684, Note_off_c, 0, 70, 100
2, 50684, Note_off_c, 0, 64, 100
2, 51072, Note_on_c, 0, 80, 110
2, 51260, Note_off_c, 0, 80, 100
2, 51264, Note_on_c, 0, 79, 110
2, 51452, Note_off_c, 0, 79, 100
2, 51456, Note_on_c, 0, 80, 110
2, 51644, Note_off_c, 0, 80, 100
2, 51648, Note_on_c, 0, 84, 110
2, 51836, Note_off_c, 0, 84, 100
2, 51840, Note_on_c, 0, 82, 110
2, 52028, Note_off_c, 0, 82, 100
2, 52032, Note_on_c, 0, 80, 110
2, 52220, Note_off_c, 0, 80, 100
2, 52224, Note_on_c, 0, 79, 110
2, 52412, Note_off_c, 0, 79, 100
2, 52416, Note_on_c, 0, 77, 110
2, 52604, Note_off_c, 0, 77, 100
2, 52608, Note_on_c, 0, 75, 110
2, 52796, Note_off_c, 0, 75, 100
2, 52800, Note_on_c, 0, 74, 110
2, 52988, Note_off_c, 0, 74, 100
2, 52992, Note_on_c, 0, 72, 110
2, 53180, Note_off_c, 0, 72, 100
2, 53184, Note_on_c, 0, 70, 110
2, 53372, Note_off_c, 0, 70, 100
2, 53376, Note_on_c, 0, 68, 110
2, 53564, Note_off_c, 0, 68, 100
2, 53568, Note_on_c, 0, 67, 110
2, 53756, Note_off_c, 0, 67, 100
2, 53760, Note_on_c, 0, 68, 110
2, 53948, Note_off_c, 0, 68, 100
2, 53952, Note_on_c, 0, 72, 110
2, 54140, Note_off_c, 0, 72, 100
2, 54144, Note_on_c, 0, 70, 110
2, 54332, Note_off_c, 0, 70, 100
2, 54336, Note_on_c, 0, 68, 110
2, 54524, Note_off_c, 0, 68, 100
2, 54528, Note_on_c, 0, 67, 110
2, 54716, Note_off_c, 0, 67, 100
2, 54720, Note_on_c, 0, 63, 110
2, 54908, Note_off_c, 0, 63, 100
2, 54912, Note_on_c, 0, 67, 110
2, 55100, Note_off_c, 0, 67, 100
2, 55104, Note_on_c, 0, 68, 110
2, 55292, Note_off_c, 0, 68, 100
2, 55296, Note_on_c, 0, 70, 110
2, 55484, Note_off_c, 0, 70, 100
2, 55488, Note_on_c, 0, 72, 110
2, 55676, Note_off_c, 0, 72, 100
2, 55680, Note_on_c, 0, 73, 110
2, 55868, Note_off_c, 0, 73, 100
2, 55872, Note_on_c, 0, 72, 110
2, 56060, Note_off_c, 0, 72, 100
2, 56064, Note_on_c, 0, 73, 110
2, 56252, Note_off_c, 0, 73, 100
2, 56256, Note_on_c, 0, 77, 110
2, 56444, Note_off_c, 0, 77, 100
2, 56448, Note_on_c, 0, 75, 110
2, 56636, Note_off_c, 0, 75, 100
2, 56640, Note_on_c, 0, 73, 110
2, 56828, Note_off_c, 0, 73, 100
2, 56832, Note_on_c, 0, 72, 110
2, 57020, Note_off_c, 0, 72, 100
2, 57024, Note_on_c, 0, 70, 110
2, 57212, Note_off_c, 0, 70, 100
2, 57216, Note_on_c, 0, 68, 110
2, 57404, Note_off_c, 0, 68, 100
2, 57408, Note_on_c, 0, 67, 110
2, 57596, Note_off_c, 0, 67, 100
2, 57600, Note_on_c, 0, 65, 110
2, 57788, Note_off_c, 0, 65, 100
2, 57792, Note_on_c, 0, 63, 110
2, 57980, Note_off_c, 0, 63, 100
2, 57984, Note_on_c, 0, 61, 110
2, 58172, Note_off_c, 0, 61, 100
2, 58176, Note_on_c, 0, 60, 110
2, 58364, Note_off_c, 0, 60, 100
2, 58368, Note_on_c, 0, 61, 110
2, 58556, Note_off_c, 0, 61, 100
2, 58560, Note_on_c, 0, 65, 110
2, 58748, Note_off_c, 0, 65, 100
2, 58752, Note_on_c, 0, 63, 110
2, 58940, Note_off_c, 0, 63, 100
2, 58944, Note_on_c, 0, 61, 110
2, 59132, Note_off_c, 0, 61, 100
2, 59136, Note_on_c, 0, 60, 110
2, 59516, Note_off_c, 0, 60, 100
2, 59904, Note_on_c, 0, 68, 110
2, 60092, Note_off_c, 0, 68, 100
2, 60096, Note_on_c, 0, 70, 110
2, 60284, Note_off_c, 0, 70, 100
2, 60288, Note_on_c, 0, 72, 110
2, 60288, Note_on_c, 0, 60, 110
2, 61052, Note_off_c, 0, 72, 100
2, 61052, Note_off_c, 0, 60, 100
2, 61056, Note_on_c, 0, 74, 110
2, 61056, Note_on_c, 0, 62, 110
2, 61436, Note_off_c, 0, 74, 100
2, 61436, Note_off_c, 0, 62, 100
2, 61440, Note_on_c, 0, 75, 110
2, 61440, Note_on_c, 0, 63, 110
2, 61820, Note_off_c, 0, 75, 100
2, 61820, Note_off_c, 0, 63, 100
2, 62208, Note_on_c, 0, 76, 120
2, 62208, Note_on_c, 0, 64, 120
2, 62972, Note_off_c, 0, 64, 100
2, 62972, Note_off_c, 0, 76, 100
2, 62976, Note_on_c, 0, 77, 110
2, 62976, Note_on_c, 0, 65, 110
2, 63356, Note_off_c, 0, 77, 100
2, 63356, Note_off_c, 0, 65, 100
2, 63360, Note_on_c, 0, 74, 110
2, 63360, Note_on_c, 0, 62, 110
2, 63740, Note_off_c, 0, 74, 100
2, 63740, Note_off_c, 0, 62, 100
2, 63744, Note_on_c, 0, 75, 110
2, 63744, Note_on_c, 0, 63, 110
2, 64124, Note_off_c, 0, 75, 100
2, 64124, Note_off_c, 0, 63, 100
2, 64512, Note_on_c, 0, 73, 110
2, 64700, Note_off_c, 0, 73, 100
2, 64704, Note_on_c, 0, 75, 110
2, 64892, Note_off_c, 0, 75, 100
2, 64896, Note_on_c, 0, 77, 110
2, 64896, Note_on_c, 0, 65, 110
2, 65660, Note_off_c, 0, 77, 100
2, 65660, Note_off_c, 0, 65, 100
2, 65664, Note_on_c, 0, 79, 110
2, 65664, Note_on_c, 0, 67, 110
2, 66044, Note_off_c, 0, 79, 100
2, 66044, Note_off_c, 0, 67, 100
2, 66048, Note_on_c, 0, 68, 110
2, 66048, Note_on_c, 0, 80, 110
2, 66428, Note_off_c, 0, 68, 100
2, 66428, Note_off_c, 0, 80, 100
2, 66816, Note_on_c, 0, 81, 120
2, 66816, Note_on_c, 0, 69, 120
2, 67580, Note_off_c, 0, 69, 100
2, 67580, Note_off_c, 0, 81, 100
2, 67584, Note_on_c, 0, 82, 110
2, 67584, Note_on_c, 0, 70, 110
2, 67964, Note_off_c, 0, 82, 100
2, 67964, Note_off_c, 0, 70, 100
2, 67968, Note_on_c, 0, 79, 110
2, 67968, Note_on_c, 0, 67, 110
2, 68348, Note_off_c, 0, 79, 100
2, 68348, Note_off_c, 0, 67, 100
2, 68352, Note_on_c, 0, 80, 110
2, 68352, Note_on_c, 0, 68, 110
2, 68732, Note_off_c, 0, 80, 100
2, 68732, Note_off_c, 0, 68, 100
2, 69120, Note_on_c, 0, 84, 120
2, 69120, Note_on_c, 0, 81, 120
2, 69120, Note_on_c, 0, 72, 120
2, 69884, Note_off_c, 0, 72, 100
2, 69884, Note_off_c, 0, 81, 100
2, 69884, Note_off_c, 0, 84, 100
2, 69888, Note_on_c, 0, 85, 110
2, 69888, Note_on_c, 0, 82, 110
2, 69888, Note_on_c, 0, 73, 110
2, 70268, Note_off_c, 0, 85, 100
2, 70268, Note_off_c, 0, 82, 100
2, 70268, Note_off_c, 0, 73, 100
2, 70272, Note_on_c, 0, 82, 110
2, 70272, Note_on_c, 0, 79, 110
2, 70272, Note_on_c, 0, 70, 110
2, 70652, Note_off_c, 0, 82, 100
2, 70652, Note_off_c, 0, 79, 100
2, 70652, Note_off_c, 0, 70, 100
2, 70656, Note_on_c, 0, 80, 110
2, 70656, Note_on_c, 0, 84, 110
2, 70656, Note_on_c, 0, 72, 110
2, 71036, Note_off_c, 0, 80, 100
2, 71036, Note_off_c, 0, 84, 100
2, 71036, Note_off_c, 0, 72, 100
2, 71424, Note_on_c, 0, 81, 120
2, 71424, Note_on_c, 0, 72, 120
2, 71424, Note_on_c, 0, 69, 120
2, 72188, Note_off_c, 0, 69, 100
2, 72188, Note_off_c, 0, 72, 100
2, 72188, Note_off_c, 0, 81, 100
2, 72192, Note_on_c, 0, 82, 110
2, 72192, Note_on_c, 0, 73, 110
2, 72192, Note_on_c, 0, 70, 110
2, 72572, Note_off_c, 0, 82, 100
2, 72572, Note_off_c, 0, 73, 100
2, 72572, Note_off_c, 0, 70, 100
2, 72576, Note_on_c, 0, 79, 110
2, 72576, Note_on_c, 0, 70, 110
2, 72576, Note_on_c, 0, 67, 110
2, 72956, Note_off_c, 0, 79, 100
2, 72956, Note_off_c, 0, 70, 100
2, 72956, Note_off_c, 0, 67, 100
2, 72960, Note_on_c, 0, 80, 110
2, 72960, Note_on_c, 0, 72, 110
2, 72960, Note_on_c, 0, 68, 110
2, 73340, Note_off_c, 0, 80, 100
2, 73340, Note_off_c, 0, 72, 100
2, 73340, Note_off_c, 0, 68, 100
2, 73728, Note_on_c, 0, 82, 110
2, 73728, Note_on_c, 0, 79, 110
2, 73728, Note_on_c, 0, 70, 110
2, 74108, Note_off_c, 0, 82, 100
2, 74108, Note_off_c, 0, 79, 100
2, 74108, Note_off_c, 0, 70, 100
2, 74112, Note_on_c, 0, 84, 111
2, 74112, Note_on_c, 0, 80, 111
2, 74112, Note_on_c, 0, 72, 111
2, 74492, Note_off_c, 0, 84, 100
2, 74492, Note_off_c, 0, 80, 100
2, 74492, Note_off_c, 0, 72, 100
2, 74880, Note_on_c, 0, 79, 115
2, 74880, Note_on_c, 0, 70, 115
2, 74880, Note_on_c, 0, 67, 115
2, 75260, Note_off_c, 0, 79, 100
2, 75260, Note_off_c, 0, 70, 100
2, 75260, Note_off_c, 0, 67, 100
2, 75264, Note_on_c, 0, 80, 117
2, 75264, Note_on_c, 0, 72, 117
2, 75264, Note_on_c, 0, 68, 117
2, 75644, Note_off_c, 0, 80, 100
2, 75644, Note_off_c, 0, 72, 100
2, 75644, Note_off_c, 0, 68, 100
2, 76032, Note_on_c, 0, 67, 120
2, 76032, Note_on_c, 0, 58, 120
2, 76032, Note_on_c, 0, 55, 120
2, 76412, Note_off_c, 0, 67, 100
2, 76412, Note_off_c, 0, 58, 100
2, 76412, Note_off_c, 0, 55, 100
2, 76416, Note_on_c, 0, 68, 120
2, 76416, Note_on_c, 0, 60, 120
2, 76416, Note_on_c, 0, 56, 120
2, 76796, Note_off_c, 0, 68, 100
2, 76796, Note_off_c, 0, 60, 100
2, 76796, Note_off_c, 0, 56, 100
2, 77184, Note_on_c, 0, 60, 80
2, 77184, Note_on_c, 0, 56, 80
2, 77372, Note_off_c, 0, 60, 100
2, 77372, Note_off_c, 0, 56, 100
2, 77376, Note_on_c, 0, 61, 80
2, 77376, Note_on_c, 0, 58, 80
2, 77564, Note_off_c, 0, 61, 100
2, 77564, Note_off_c, 0, 58, 100
2, 77568, Note_on_c, 0, 63, 80
2, 77568, Note_on_c, 0, 60, 80
2, 78332, Note_off_c, 0, 63, 100
2, 78332, Note_off_c, 0, 60, 100
2, 78336, Note_on_c, 0, 65, 80
2, 78336, Note_on_c, 0, 61, 80
2, 78716, Note_off_c, 0, 65, 100
2, 78716, Note_off_c, 0, 61, 100
2, 78720, Note_on_c, 0, 66, 80
2, 78720, Note_on_c, 0, 63, 80
2, 79100, Note_off_c, 0, 66, 100
2, 79100, Note_off_c, 0, 63, 100
2, 79488, Note_on_c, 0, 66, 100
2, 79488, Note_on_c, 0, 63, 100
2, 79868, Note_off_c, 0, 66, 100
2, 79868, Note_off_c, 0, 63, 100
2, 79872, Note_on_c, 0, 72, 100
2, 79872, Note_on_c, 0, 66, 100
2, 80252, Note_off_c, 0, 72, 100
2, 80252, Note_off_c, 0, 66, 100
2, 80256, Note_on_c, 0, 75, 100
2, 80256, Note_on_c, 0, 72, 100
2, 80636, Note_off_c, 0, 75, 100
2, 80636, Note_off_c, 0, 72, 100
2, 80640, Note_on_c, 0, 78, 100
2, 80640, Note_on_c, 0, 75, 100
2, 81404, Note_off_c, 0, 75, 64
2, 81404, Note_off_c, 0, 78, 64
2, 81408, Note_on_c, 0, 77, 100
2, 81408, Note_on_c, 0, 74, 100
2, 81788, Note_off_c, 0, 77, 100
2, 81788, Note_off_c, 0, 74, 100
2, 81792, Note_on_c, 0, 62, 80
2, 81792, Note_on_c, 0, 58, 80
2, 81980, Note_off_c, 0, 62, 100
2, 81980, Note_off_c, 0, 58, 100
2, 81984, Note_on_c, 0, 63, 80
2, 81984, Note_on_c, 0, 60, 80
2, 82172, Note_off_c, 0, 63, 100
2, 82172, Note_off_c, 0, 60, 100
2, 82176, Note_on_c, 0, 65, 80
2, 82176, Note_on_c, 0, 62, 80
2, 82940, Note_off_c, 0, 65, 100
2, 82940, Note_off_c, 0, 62, 100
2, 82944, Note_on_c, 0, 67, 80
2, 82944, Note_on_c, 0, 64, 80
2, 83324, Note_off_c, 0, 67, 100
2, 83324, Note_off_c, 0, 64, 100
2, 83328, Note_on_c, 0, 65, 80
2, 83328, Note_on_c, 0, 68, 80
2, 83708, Note_off_c, 0, 65, 100
2, 83708, Note_off_c, 0, 68, 100
2, 84096, Note_on_c, 0, 68, 100
2, 84096, Note_on_c, 0, 65, 100
2, 84476, Note_off_c, 0, 68, 100
2, 84476, Note_off_c, 0, 65, 100
2, 84480, Note_on_c, 0, 74, 100
2, 84480, Note_on_c, 0, 68, 100
2, 84860, Note_off_c, 0, 74, 100
2, 84860, Note_off_c, 0, 68, 100
2, 84864, Note_on_c, 0, 77, 100
2, 84864, Note_on_c, 0, 74, 100
2, 85244, Note_off_c, 0, 77, 100
2, 85244, Note_off_c, 0, 74, 100
2, 85248, Note_on_c, 0, 80, 100
2, 85248, Note_on_c, 0, 77, 100
2, 86012, Note_off_c, 0, 77, 64
2, 86012, Note_off_c, 0, 80, 64
2, 86016, Note_on_c, 0, 79, 80
2, 86016, Note_on_c, 0, 76, 80
2, 86396, Note_off_c, 0, 79, 100
2, 86396, Note_off_c, 0, 76, 100
2, 86400, Note_on_c, 0, 64, 80
2, 86400, Note_on_c, 0, 60, 80
2, 86588, Note_off_c, 0, 64, 100
2, 86588, Note_off_c, 0, 60, 100
2, 86592, Note_on_c, 0, 65, 80
2, 86592, Note_on_c, 0, 62, 80
2, 86780, Note_off_c, 0, 65, 100
2, 86780, Note_off_c, 0, 62, 100
2, 86784, Note_on_c, 0, 67, 80
2, 86784, Note_on_c, 0, 64, 80
2, 87548, Note_off_c, 0, 67, 100
2, 87548, Note_off_c, 0, 64, 100
2, 87552, Note_on_c, 0, 68, 80
2, 87552, Note_on_c, 0, 65, 80
2, 87932, Note_off_c, 0, 68, 100
2, 87932, Note_off_c, 0, 65, 100
2, 87936, Note_on_c, 0, 67, 80
2, 87936, Note_on_c, 0, 70, 80
2, 88316, Note_off_c, 0, 67, 100
2, 88316, Note_off_c, 0, 70, 100
2, 88704, Note_on_c, 0, 64, 100
2, 88704, Note_on_c, 0, 60, 100
2, 88892, Note_off_c, 0, 64, 100
2, 88892, Note_off_c, 0, 60, 100
2, 88896, Note_on_c, 0, 65, 100
2, 88896, Note_on_c, 0, 62, 100
2, 89084, Note_off_c, 0, 65, 100
2, 89084, Note_off_c, 0, 62, 100
2, 89088, Note_on_c, 0, 67, 101
2, 89088, Note_on_c, 0, 64, 101
2, 89468, Note_off_c, 0, 67, 100
2, 89468, Note_off_c, 0, 64, 100
2, 89472, Note_on_c, 0, 64, 103
2, 89472, Note_on_c, 0, 60, 103
2, 89660, Note_off_c, 0, 64, 100
2, 89660, Note_off_c, 0, 60, 100
2, 89664, Note_on_c, 0, 65, 103
2, 89664, Note_on_c, 0, 62, 103
2, 89852, Note_off_c, 0, 65, 100
2, 89852, Note_off_c, 0, 62, 100
2, 89856, Note_on_c, 0, 67, 104
2, 89856, Note_on_c, 0, 64, 104
2, 90044, Note_off_c, 0, 67, 100
2, 90044, Note_off_c, 0, 64, 100
2, 90048, Note_on_c, 0, 68, 105
2, 90048, Note_on_c, 0, 65, 105
2, 90236, Note_off_c, 0, 68, 100
2, 90236, Note_off_c, 0, 65, 100
2, 90240, Note_on_c, 0, 70, 106
2, 90240, Note_on_c, 0, 67, 106
2, 90620, Note_off_c, 0, 70, 100
2, 90620, Note_off_c, 0, 67, 100
2, 90624, Note_on_c, 0, 67, 107
2, 90624, Note_on_c, 0, 64, 107
2, 90812, Note_off_c, 0, 67, 100
2, 90812, Note_off_c, 0, 64, 100
2, 90816, Note_on_c, 0, 68, 108
2, 90816, Note_on_c, 0, 65, 108
2, 91004, Note_off_c, 0, 68, 100
2, 91004, Note_off_c, 0, 65, 100
2, 91008, Note_on_c, 0, 70, 109
2, 91008, Note_on_c, 0, 67, 109
2, 91196, Note_off_c, 0, 70, 100
2, 91196, Note_off_c, 0, 67, 100
2, 91200, Note_on_c, 0, 72, 109
2, 91200, Note_on_c, 0, 68, 109
2, 91388, Note_off_c, 0, 72, 100
2, 91388, Note_off_c, 0, 68, 100
2, 91392, Note_on_c, 0, 73, 80
2, 91392, Note_on_c, 0, 70, 80
2, 91772, Note_off_c, 0, 73, 100
2, 91772, Note_off_c, 0, 70, 100
2, 92160, Note_on_c, 0, 70, 80
2, 92160, Note_on_c, 0, 67, 80
2, 92540, Note_off_c, 0, 70, 100
2, 92540, Note_off_c, 0, 67, 100
2, 92544, Note_on_c, 0, 67, 80
2, 92544, Note_on_c, 0, 64, 80
2, 92924, Note_off_c, 0, 67, 100
2, 92924, Note_off_c, 0, 64, 100
2, 93312, Note_on_c, 0, 70, 80
2, 93312, Note_on_c, 0, 67, 80
2, 93692, Note_off_c, 0, 70, 100
2, 93692, Note_off_c, 0, 67, 100
2, 93696, Note_on_c, 0, 73, 80
2, 93696, Note_on_c, 0, 70, 80
2, 94076, Note_off_c, 0, 73, 100
2, 94076, Note_off_c, 0, 70, 100
2, 94464, Note_on_c, 0, 70, 80
2, 94464, Note_on_c, 0, 67, 80
2, 94844, Note_off_c, 0, 70, 100
2, 94844, Note_off_c, 0, 67, 100
2, 94848, Note_on_c, 0, 67, 80
2, 94848, Note_on_c, 0, 64, 80
2, 95228, Note_off_c, 0, 67, 100
2, 95228, Note_off_c, 0, 64, 100
2, 95616, Note_on_c, 0, 70, 80
2, 95616, Note_on_c, 0, 67, 80
2, 95996, Note_off_c, 0, 70, 100
2, 95996, Note_off_c, 0, 67, 100
2, 96000, Note_on_c, 0, 73, 80
2, 96000, Note_on_c, 0, 70, 80
2, 96000, Note_on_c, 0, 67, 80
2, 96764, Note_off_c, 0, 73, 100
2, 96764, Note_off_c, 0, 70, 100
2, 96764, Note_off_c, 0, 67, 100
2, 96768, Note_on_c, 0, 72, 80
2, 96768, Note_on_c, 0, 70, 80
2, 96768, Note_on_c, 0, 67, 80
2, 97148, Note_off_c, 0, 72, 100
2, 97148, Note_off_c, 0, 70, 100
2, 97148, Note_off_c, 0, 67, 100
2, 97152, Note_on_c, 0, 73, 80
2, 97152, Note_on_c, 0, 70, 80
2, 97152, Note_on_c, 0, 67, 80
2, 97916, Note_off_c, 0, 73, 100
2, 97916, Note_off_c, 0, 70, 100
2, 97916, Note_off_c, 0, 67, 100
2, 97920, Note_on_c, 0, 72, 80
2, 97920, Note_on_c, 0, 70, 80
2, 97920, Note_on_c, 0, 67, 80
2, 98300, Note_off_c, 0, 72, 100
2, 98300, Note_off_c, 0, 70, 100
2, 98300, Note_off_c, 0, 67, 100
2, 98304, Note_on_c, 0, 73, 80
2, 98304, Note_on_c, 0, 70, 80
2, 98304, Note_on_c, 0, 67, 80
2, 99068, Note_off_c, 0, 73, 100
2, 99068, Note_off_c, 0, 70, 100
2, 99068, Note_off_c, 0, 67, 100
2, 99072, Note_on_c, 0, 72, 80
2, 99072, Note_on_c, 0, 70, 80
2, 99072, Note_on_c, 0, 67, 80
2, 99452, Note_off_c, 0, 72, 100
2, 99452, Note_off_c, 0, 70, 100
2, 99452, Note_off_c, 0, 67, 100
2, 99456, Note_on_c, 0, 73, 80
2, 99456, Note_on_c, 0, 70, 80
2, 99456, Note_on_c, 0, 67, 80
2, 100220, Note_off_c, 0, 73, 100
2, 100220, Note_off_c, 0, 70, 100
2, 100220, Note_off_c, 0, 67, 100
2, 100224, Note_on_c, 0, 72, 78
2, 100224, Note_on_c, 0, 70, 78
2, 100224, Note_on_c, 0, 67, 78
2, 100604, Note_off_c, 0, 72, 100
2, 100604, Note_off_c, 0, 70, 100
2, 100604, Note_off_c, 0, 67, 100
2, 100608, Note_on_c, 0, 73, 77
2, 100608, Note_on_c, 0, 64, 77
2, 100608, Note_on_c, 0, 70, 77
2, 101372, Note_off_c, 0, 73, 100
2, 101372, Note_off_c, 0, 64, 100
2, 101372, Note_off_c, 0, 70, 100
2, 101376, Note_on_c, 0, 72, 75
2, 101376, Note_on_c, 0, 70, 75
2, 101376, Note_on_c, 0, 64, 75
2, 101756, Note_off_c, 0, 72, 100
2, 101756, Note_off_c, 0, 70, 100
2, 101756, Note_off_c, 0, 64, 100
2, 101760, Note_on_c, 0, 73, 74
2, 101760, Note_on_c, 0, 64, 74
2, 101760, Note_on_c, 0, 70, 74
2, 102524, Note_off_c, 0, 73, 100
2, 102524, Note_off_c, 0, 64, 100
2, 102524, Note_off_c, 0, 70, 100
2, 102528, Note_on_c, 0, 72, 72
2, 102528, Note_on_c, 0, 70, 72
2, 102528, Note_on_c, 0, 64, 72
2, 102908, Note_off_c, 0, 72, 100
2, 102908, Note_off_c, 0, 70, 100
2, 102908, Note_off_c, 0, 64, 100
2, 102912, Note_on_c, 0, 73, 71
2, 102912, Note_on_c, 0, 64, 71
2, 102912, Note_on_c, 0, 70, 71
2, 103676, Note_off_c, 0, 73, 100
2, 103676, Note_off_c, 0, 64, 100
2, 103676, Note_off_c, 0, 70, 100
2, 103680, Note_on_c, 0, 72, 69
2, 103680, Note_on_c, 0, 70, 69
2, 103680, Note_on_c, 0, 64, 69
2, 104060, Note_off_c, 0, 72, 100
2, 104060, Note_off_c, 0, 70, 100
2, 104060, Note_off_c, 0, 64, 100
2, 104064, Note_on_c, 0, 73, 68
2, 104064, Note_on_c, 0, 64, 68
2, 104064, Note_on_c, 0, 70, 68
2, 104828, Note_off_c, 0, 73, 100
2, 104828, Note_off_c, 0, 64, 100
2, 104828, Note_off_c, 0, 70, 100
2, 104832, Note_on_c, 0, 72, 66
2, 104832, Note_on_c, 0, 70, 66
2, 104832, Note_on_c, 0, 64, 66
2, 105212, Note_off_c, 0, 72, 100
2, 105212, Note_off_c, 0, 70, 100
2, 105212, Note_off_c, 0, 64, 100
2, 105216, Note_on_c, 0, 70, 65
2, 105216, Note_on_c, 0, 64, 65
2, 105216, Note_on_c, 0, 73, 65
2, 105980, Note_off_c, 0, 70, 100
2, 105980, Note_off_c, 0, 64, 100
2, 105980, Note_off_c, 0, 73, 100
2, 106368, Note_on_c, 0, 72, 65
2, 106368, Note_on_c, 0, 70, 65
2, 106368, Note_on_c, 0, 64, 65
2, 107132, Note_off_c, 0, 72, 100
2, 107132, Note_off_c, 0, 70, 100
2, 107132, Note_off_c, 0, 64, 100
2, 107520, Note_on_c, 0, 72, 65
2, 107520, Note_on_c, 0, 70, 65
2, 107520, Note_on_c, 0, 64, 65
2, 108284, Note_off_c, 0, 72, 100
2, 108284, Note_off_c, 0, 70, 100
2, 108284, Note_off_c, 0, 64, 100
2, 108672, Note_on_c, 0, 72, 65
2, 108672, Note_on_c, 0, 70, 65
2, 108672, Note_on_c, 0, 64, 65
2, 109436, Note_off_c, 0, 72, 100
2, 109436, Note_off_c, 0, 70, 100
2, 109436, Note_off_c, 0, 64, 100
2, 109824, Note_on_c, 0, 80, 110
2, 110012, Note_off_c, 0, 80, 100
2, 110016, Note_on_c, 0, 79, 110
2, 110204, Note_off_c, 0, 79, 100
2, 110208, Note_on_c, 0, 80, 110
2, 110396, Note_off_c, 0, 80, 100
2, 110400, Note_on_c, 0, 84, 110
2, 110588, Note_off_c, 0, 84, 100
2, 110592, Note_on_c, 0, 82, 110
2, 110780, Note_off_c, 0, 82, 100
2, 110784, Note_on_c, 0, 80, 110
2, 110972, Note_off_c, 0, 80, 100
2, 110976, Note_on_c, 0, 79, 110
2, 111164, Note_off_c, 0, 79, 100
2, 111168, Note_on_c, 0, 77, 110
2, 111356, Note_off_c, 0, 77, 100
2, 111360, Note_on_c, 0, 75, 110
2, 111548, Note_off_c, 0, 75, 100
2, 111552, Note_on_c, 0, 74, 110
2, 111740, Note_off_c, 0, 74, 100
2, 111744, Note_on_c, 0, 72, 110
2, 111932, Note_off_c, 0, 72, 100
2, 111936, Note_on_c, 0, 70, 110
2, 112124, Note_off_c, 0, 70, 100
2, 112128, Note_on_c, 0, 68, 110
2, 112316, Note_off_c, 0, 68, 100
2, 112320, Note_on_c, 0, 67, 110
2, 112508, Note_off_c, 0, 67, 100
2, 112512, Note_on_c, 0, 68, 110
2, 112700, Note_off_c, 0, 68, 100
2, 112704, Note_on_c, 0, 72, 110
2, 112892, Note_off_c, 0, 72, 100
2, 112896, Note_on_c, 0, 70, 110
2, 113084, Note_off_c, 0, 70, 100
2, 113088, Note_on_c, 0, 68, 110
2, 113276, Note_off_c, 0, 68, 100
2, 113280, Note_on_c, 0, 67, 110
2, 113468, Note_off_c, 0, 67, 100
2, 113472, Note_on_c, 0, 63, 110
2, 113660, Note_off_c, 0, 63, 100
2, 113664, Note_on_c, 0, 67, 110
2, 113852, Note_off_c, 0, 67, 100
2, 113856, Note_on_c, 0, 68, 110
2, 114044, Note_off_c, 0, 68, 100
2, 114048, Note_on_c, 0, 70, 110
2, 114236, Note_off_c, 0, 70, 100
2, 114240, Note_on_c, 0, 72, 110
2, 114428, Note_off_c, 0, 72, 100
2, 114432, Note_on_c, 0, 73, 110
2, 114620, Note_off_c, 0, 73, 100
2, 114624, Note_on_c, 0, 72, 110
2, 114812, Note_off_c, 0, 72, 100
2, 114816, Note_on_c, 0, 73, 110
2, 115004, Note_off_c, 0, 73, 100
2, 115008, Note_on_c, 0, 77, 110
2, 115196, Note_off_c, 0, 77, 100
2, 115200, Note_on_c, 0, 75, 110
2, 115388, Note_off_c, 0, 75, 100
2, 115392, Note_on_c, 0, 73, 110
2, 115580, Note_off_c, 0, 73, 100
2, 115584, Note_on_c, 0, 72, 110
2, 115772, Note_off_c, 0, 72, 100
2, 115776, Note_on_c, 0, 70, 110
2, 115964, Note_off_c, 0, 70, 100
2, 115968, Note_on_c, 0, 68, 110
2, 116156, Note_off_c, 0, 68, 100
2, 116160, Note_on_c, 0, 67, 110
2, 116348, Note_off_c, 0, 67, 100
2, 116352, Note_on_c, 0, 65, 110
2, 116540, Note_off_c, 0, 65, 100
2, 116544, Note_on_c, 0, 63, 110
2, 116732, Note_off_c, 0, 63, 100
2, 116736, Note_on_c, 0, 61, 110
2, 116924, Note_off_c, 0, 61, 100
2, 116928, Note_on_c, 0, 60, 110
2, 117116, Note_off_c, 0, 60, 100
2, 117120, Note_on_c, 0, 61, 110
2, 117308, Note_off_c, 0, 61, 100
2, 117312, Note_on_c, 0, 65, 110
2, 117500, Note_off_c, 0, 65, 100
2, 117504, Note_on_c, 0, 63, 110
2, 117692, Note_off_c, 0, 63, 100
2, 117696, Note_on_c, 0, 61, 110
2, 117884, Note_off_c, 0, 61, 100
2, 117888, Note_on_c, 0, 60, 110
2, 118268, Note_off_c, 0, 60, 100
2, 118656, Note_on_c, 0, 68, 110
2, 118844, Note_off_c, 0, 68, 100
2, 118848, Note_on_c, 0, 70, 110
2, 119036, Note_off_c, 0, 70, 100
2, 119040, Note_on_c, 0, 72, 110
2, 119040, Note_on_c, 0, 60, 110
2, 119804, Note_off_c, 0, 72, 100
2, 119804, Note_off_c, 0, 60, 100
2, 119808, Note_on_c, 0, 74, 110
2, 119808, Note_on_c, 0, 62, 110
2, 120188, Note_off_c, 0, 74, 100
2, 120188, Note_off_c, 0, 62, 100
2, 120192, Note_on_c, 0, 75, 110
2, 120192, Note_on_c, 0, 63, 110
2, 120572, Note_off_c, 0, 75, 100
2, 120572, Note_off_c, 0, 63, 100
2, 120960, Note_on_c, 0, 76, 120
2, 120960, Note_on_c, 0, 64, 120
2, 121724, Note_off_c, 0, 64, 64
2, 121724, Note_off_c, 0, 76, 64
2, 121728, Note_on_c, 0, 77, 110
2, 121728, Note_on_c, 0, 65, 110
2, 122108, Note_off_c, 0, 77, 100
2, 122108, Note_off_c, 0, 65, 100
2, 122112, Note_on_c, 0, 74, 110
2, 122112, Note_on_c, 0, 62, 110
2, 122492, Note_off_c, 0, 74, 100
2, 122492, Note_off_c, 0, 62, 100
2, 122496, Note_on_c, 0, 75, 110
2, 122496, Note_on_c, 0, 63, 110
2, 122876, Note_off_c, 0, 75, 100
2, 122876, Note_off_c, 0, 63, 100
2, 123264, Note_on_c, 0, 73, 110
2, 123452, Note_off_c, 0, 73, 100
2, 123456, Note_on_c, 0, 75, 110
2, 123644, Note_off_c, 0, 75, 100
2, 123648, Note_on_c, 0, 77, 110
2, 123648, Note_on_c, 0, 65, 110
2, 124412, Note_off_c, 0, 77, 100
2, 124412, Note_off_c, 0, 65, 100
2, 124416, Note_on_c, 0, 79, 110
2, 124416, Note_on_c, 0, 67, 110
2, 124796, Note_off_c, 0, 79, 100
2, 124796, Note_off_c, 0, 67, 100
2, 124800, Note_on_c, 0, 68, 110
2, 124800, Note_on_c, 0, 80, 110
2, 125180, Note_off_c, 0, 68, 100
2, 125180, Note_off_c, 0, 80, 100
2, 125568, Note_on_c, 0, 81, 120
2, 125568, Note_on_c, 0, 69, 120
2, 126332, Note_off_c, 0, 69, 64
2, 126332, Note_off_c, 0, 81, 64
2, 126336, Note_on_c, 0, 82, 110
2, 126336, Note_on_c, 0, 70, 110
2, 126716, Note_off_c, 0, 82, 100
2, 126716, Note_off_c, 0, 70, 100
2, 126720, Note_on_c, 0, 79, 110
2, 126720, Note_on_c, 0, 67, 110
2, 127100, Note_off_c, 0, 79, 100
2, 127100, Note_off_c, 0, 67, 100
2, 127104, Note_on_c, 0, 80, 110
2, 127104, Note_on_c, 0, 68, 110
2, 127484, Note_off_c, 0, 80, 100
2, 127484, Note_off_c, 0, 68, 100
2, 127872, Note_on_c, 0, 84, 120
2, 127872, Note_on_c, 0, 81, 120
2, 127872, Note_on_c, 0, 72, 120
2, 128636, Note_off_c, 0, 72, 64
2, 128636, Note_off_c, 0, 81, 64
2, 128636, Note_off_c, 0, 84, 64
2, 128640, Note_on_c, 0, 85, 110
2, 128640, Note_on_c, 0, 82, 110
2, 128640, Note_on_c, 0, 73, 110
2, 129020, Note_off_c, 0, 85, 100
2, 129020, Note_off_c, 0, 82, 100
2, 129020, Note_off_c, 0, 73, 100
2, 129024, Note_on_c, 0, 82, 110
2, 129024, Note_on_c, 0, 79, 110
2, 129024, Note_on_c, 0, 70, 110
2, 129404, Note_off_c, 0, 82, 100
2, 129404, Note_off_c, 0, 79, 100
2, 129404, Note_off_c, 0, 70, 100
2, 129408, Note_on_c, 0, 80, 110
2, 129408, Note_on_c, 0, 84, 110
2, 129408, Note_on_c, 0, 72, 110
2, 129788, Note_off_c, 0, 80, 100
2, 129788, Note_off_c, 0, 84, 100
2, 129788, Note_off_c, 0, 72, 100
2, 130176, Note_on_c, 0, 81, 120
2, 130176, Note_on_c, 0, 72, 120
2, 130176, Note_on_c, 0, 69, 120
2, 130940, Note_off_c, 0, 69, 64
2, 130940, Note_off_c, 0, 72, 64
2, 130940, Note_off_c, 0, 81, 64
2, 130944, Note_on_c, 0, 82, 110
2, 130944, Note_on_c, 0, 73, 110
2, 130944, Note_on_c, 0, 70, 110
2, 131324, Note_off_c, 0, 82, 100
2, 131324, Note_off_c, 0, 73, 100
2, 131324, Note_off_c, 0, 70, 100
2, 131328, Note_on_c, 0, 79, 110
2, 131328, Note_on_c, 0, 70, 110
2, 131328, Note_on_c, 0, 67, 110
2, 131708, Note_off_c, 0, 79, 100
2, 131708, Note_off_c, 0, 70, 100
2, 131708, Note_off_c, 0, 67, 100
2, 131712, Note_on_c, 0, 80, 110
2, 131712, Note_on_c, 0, 72, 110
2, 131712, Note_on_c, 0, 68, 110
2, 132092, Note_off_c, 0, 80, 100
2, 132092, Note_off_c, 0, 72, 100
2, 132092, Note_off_c, 0, 68, 100
2, 132480, Note_on_c, 0, 82, 110
2, 132480, Note_on_c, 0, 79, 110
2, 132480, Note_on_c, 0, 70, 110
2, 132860, Note_off_c, 0, 82, 100
2, 132860, Note_off_c, 0, 79, 100
2, 132860, Note_off_c, 0, 70, 100
2, 132864, Note_on_c, 0, 84, 111
2, 132864, Note_on_c, 0, 80, 111
2, 132864, Note_on_c, 0, 72, 111
2, 133244, Note_off_c, 0, 84, 100
2, 133244, Note_off_c, 0, 80, 100
2, 133244, Note_off_c, 0, 72, 100
2, 133632, Note_on_c, 0, 79, 115
2, 133632, Note_on_c, 0, 70, 115
2, 133632, Note_on_c, 0, 67, 115
2, 134012, Note_off_c, 0, 79, 100
2, 134012, Note_off_c, 0, 70, 100
2, 134012, Note_off_c, 0, 67, 100
2, 134016, Note_on_c, 0, 80, 117
2, 134016, Note_on_c, 0, 72, 117
2, 134016, Note_on_c, 0, 68, 117
2, 134396, Note_off_c, 0, 80, 100
2, 134396, Note_off_c, 0, 72, 100
2, 134396, Note_off_c, 0, 68, 100
2, 134784, Note_on_c, 0, 67, 120
2, 134784, Note_on_c, 0, 58, 120
2, 134784, Note_on_c, 0, 55, 120
2, 135164, Note_off_c, 0, 67, 100
2, 135164, Note_off_c, 0, 58, 100
2, 135164, Note_off_c, 0, 55, 100
2, 135168, Note_on_c, 0, 68, 120
2, 135168, Note_on_c, 0, 60, 120
2, 135168, Note_on_c, 0, 56, 120
2, 135548, Note_off_c, 0, 68, 100
2, 135548, Note_off_c, 0, 60, 100
2, 135548, Note_off_c, 0, 56, 100
2, 135936, Note_on_c, 0, 56, 80
2, 136316, Note_off_c, 0, 56, 100
2, 136320, Key_signature, -5, "major"
2, 136320, Note_on_c, 0, 65, 80
2, 136320, Note_on_c, 0, 53, 80
2, 137084, Note_off_c, 0, 65, 100
2, 137084, Note_off_c, 0, 53, 100
2, 137088, Note_on_c, 0, 56, 80
2, 137468, Note_off_c, 0, 56, 100
2, 137472, Note_on_c, 0, 63, 80
2, 137472, Note_on_c, 0, 51, 80
2, 138236, Note_off_c, 0, 63, 100
2, 138236, Note_off_c, 0, 51, 100
2, 138240, Note_on_c, 0, 56, 80
2, 138620, Note_off_c, 0, 56, 100
2, 138624, Note_on_c, 0, 66, 80
2, 138624, Note_on_c, 0, 60, 80
2, 138624, Note_on_c, 0, 54, 80
2, 139388, Note_off_c, 0, 66, 100
2, 139388, Note_off_c, 0, 60, 100
2, 139388, Note_off_c, 0, 54, 100
2, 139392, Note_on_c, 0, 56, 80
2, 139772, Note_off_c, 0, 56, 100
2, 139776, Note_on_c, 0, 65, 80
2, 139776, Note_on_c, 0, 56, 80
2, 139776, Note_on_c, 0, 53, 80
2, 140540, Note_off_c, 0, 65, 100
2, 140540, Note_off_c, 0, 56, 100
2, 140540, Note_off_c, 0, 53, 100
2, 140544, Note_on_c, 0, 61, 80
2, 140924, Note_off_c, 0, 61, 100
2, 140928, Note_on_c, 0, 68, 80
2, 140928, Note_on_c, 0, 56, 80
2, 141692, Note_off_c, 0, 68, 100
2, 141692, Note_off_c, 0, 56, 100
2, 141696, Note_on_c, 0, 61, 93
2, 142076, Note_off_c, 0, 61, 100
2, 142080, Note_on_c, 0, 61, 99
2, 142080, Note_on_c, 0, 58, 99
2, 142080, Note_on_c, 0, 70, 99
2, 142844, Note_off_c, 0, 61, 100
2, 142844, Note_off_c, 0, 58, 100
2, 142844, Note_off_c, 0, 70, 100
2, 142848, Note_on_c, 0, 63, 80
2, 142848, Note_on_c, 0, 61, 80
2, 142848, Note_on_c, 0, 58, 80
2, 143228, Note_off_c, 0, 63, 100
2, 143228, Note_off_c, 0, 61, 100
2, 143228, Note_off_c, 0, 58, 100
2, 143232, Note_on_c, 0, 63, 80
2, 143232, Note_on_c, 0, 61, 80
2, 143232, Note_on_c, 0, 58, 80
2, 143996, Note_off_c, 0, 63, 100
2, 143996, Note_off_c, 0, 61, 100
2, 143996, Note_off_c, 0, 58, 100
2, 144000, Note_on_c, 0, 63, 80
2, 144000, Note_on_c, 0, 61, 80
2, 144000, Note_on_c, 0, 58, 80
2, 144380, Note_off_c, 0, 63, 100
2, 144380, Note_off_c, 0, 61, 100
2, 144380, Note_off_c, 0, 58, 100
2, 144384, Note_on_c, 0, 60, 80
2, 144384, Note_on_c, 0, 63, 80
2, 144764, Note_off_c, 0, 60, 100
2, 144764, Note_off_c, 0, 63, 100
2, 145152, Note_on_c, 0, 56, 80
2, 145532, Note_off_c, 0, 56, 100
2, 145536, Note_on_c, 0, 65, 80
2, 145536, Note_on_c, 0, 53, 80
2, 146300, Note_off_c, 0, 65, 100
2, 146300, Note_off_c, 0, 53, 100
2, 146304, Note_on_c, 0, 56, 80
2, 146684, Note_off_c, 0, 56, 100
2, 146688, Note_on_c, 0, 63, 80
2, 146688, Note_on_c, 0, 51, 80
2, 147452, Note_off_c, 0, 63, 100
2, 147452, Note_off_c, 0, 51, 100
2, 147456, Note_on_c, 0, 56, 80
2, 147836, Note_off_c, 0, 56, 100
2, 147840, Note_on_c, 0, 66, 80
2, 147840, Note_on_c, 0, 60, 80
2, 147840, Note_on_c, 0, 54, 80
2, 148604, Note_off_c, 0, 66, 100
2, 148604, Note_off_c, 0, 60, 100
2, 148604, Note_off_c, 0, 54, 100
2, 148608, Note_on_c, 0, 56, 80
2, 148988, Note_off_c, 0, 56, 100
2, 148992, Note_on_c, 0, 65, 80
2, 148992, Note_on_c, 0, 56, 80
2, 148992, Note_on_c, 0, 53, 80
2, 149756, Note_off_c, 0, 65, 100
2, 149756, Note_off_c, 0, 56, 100
2, 149756, Note_off_c, 0, 53, 100
2, 149760, Note_on_c, 0, 61, 80
2, 150140, Note_off_c, 0, 61, 100
2, 150144, Note_on_c, 0, 68, 80
2, 150144, Note_on_c, 0, 56, 80
2, 150908, Note_off_c, 0, 68, 100
2, 150908, Note_off_c, 0, 56, 100
2, 150912, Note_on_c, 0, 61, 93
2, 151292, Note_off_c, 0, 61, 100
2, 151296, Note_on_c, 0, 61, 99
2, 151296, Note_on_c, 0, 58, 99
2, 151296, Note_on_c, 0, 70, 99
2, 152060, Note_off_c, 0, 61, 100
2, 152060, Note_off_c, 0, 58, 100
2, 152060, Note_off_c, 0, 70, 100
2, 152064, Note_on_c, 0, 63, 80
2, 152064, Note_on_c, 0, 61, 80
2, 152064, Note_on_c, 0, 58, 80
2, 152444, Note_off_c, 0, 63, 100
2, 152444, Note_off_c, 0, 61, 100
2, 152444, Note_off_c, 0, 58, 100
2, 152448, Note_on_c, 0, 63, 80
2, 152448, Note_on_c, 0, 61, 80
2, 152448, Note_on_c, 0, 58, 80
2, 153212, Note_off_c, 0, 63, 100
2, 153212, Note_off_c, 0, 61, 100
2, 153212, Note_off_c, 0, 58, 100
2, 153216, Note_on_c, 0, 63, 80
2, 153216, Note_on_c, 0, 61, 80
2, 153216, Note_on_c, 0, 58, 80
2, 153596, Note_off_c, 0, 63, 100
2, 153596, Note_off_c, 0, 61, 100
2, 153596, Note_off_c, 0, 58, 100
2, 153600, Note_on_c, 0, 60, 80
2, 153600, Note_on_c, 0, 63, 80
2, 153980, Note_off_c, 0, 60, 100
2, 153980, Note_off_c, 0, 63, 100
2, 154368, Note_on_c, 0, 68, 80
2, 154748, Note_off_c, 0, 68, 100
2, 154752, Note_on_c, 0, 72, 80
2, 154752, Note_on_c, 0, 60, 80
2, 155516, Note_off_c, 0, 72, 100
2, 155516, Note_off_c, 0, 60, 100
2, 155520, Note_on_c, 0, 68, 80
2, 155900, Note_off_c, 0, 68, 100
2, 155904, Note_on_c, 0, 73, 80
2, 155904, Note_on_c, 0, 61, 80
2, 156668, Note_off_c, 0, 73, 100
2, 156668, Note_off_c, 0, 61, 100
2, 156672, Note_on_c, 0, 67, 80
2, 157052, Note_off_c, 0, 67, 100
2, 157056, Note_on_c, 0, 75, 80
2, 157056, Note_on_c, 0, 66, 80
2, 157056, Note_on_c, 0, 63, 80
2, 157820, Note_off_c, 0, 75, 100
2, 157820, Note_off_c, 0, 66, 100
2, 157820, Note_off_c, 0, 63, 100
2, 157824, Note_on_c, 0, 68, 80
2, 158204, Note_off_c, 0, 68, 100
2, 158208, Note_on_c, 0, 77, 80
2, 158208, Note_on_c, 0, 65, 80
2, 158972, Note_off_c, 0, 77, 100
2, 158972, Note_off_c, 0, 65, 100
2, 158976, Note_on_c, 0, 68, 80
2, 159356, Note_off_c, 0, 68, 100
2, 159360, Note_on_c, 0, 77, 80
2, 159360, Note_on_c, 0, 65, 80
2, 160124, Note_off_c, 0, 77, 100
2, 160124, Note_off_c, 0, 65, 100
2, 160128, Note_on_c, 0, 73, 80
2, 160508, Note_off_c, 0, 73, 100
2, 160512, Note_on_c, 0, 78, 80
2, 160512, Note_on_c, 0, 66, 80
2, 161276, Note_off_c, 0, 78, 100
2, 161276, Note_off_c, 0, 66, 100
2, 161280, Note_on_c, 0, 72, 80
2, 161660, Note_off_c, 0, 72, 100
2, 161664, Note_on_c, 0, 80, 80
2, 161664, Note_on_c, 0, 71, 80
2, 161664, Note_on_c, 0, 68, 80
2, 162428, Note_off_c, 0, 80, 100
2, 162428, Note_off_c, 0, 71, 100
2, 162428, Note_off_c, 0, 68, 100
2, 162432, Note_on_c, 0, 73, 80
2, 162812, Note_off_c, 0, 73, 100
2, 162816, Note_on_c, 0, 82, 80
2, 162816, Note_on_c, 0, 70, 80
2, 163580, Note_off_c, 0, 82, 100
2, 163580, Note_off_c, 0, 70, 100
2, 163584, Note_on_c, 0, 73, 80
2, 163964, Note_off_c, 0, 73, 100
2, 163968, Note_on_c, 0, 82, 80
2, 163968, Note_on_c, 0, 70, 80
2, 164732, Note_off_c, 0, 82, 100
2, 164736, Note_on_c, 0, 73, 82
2, 165116, Note_off_c, 0, 70, 100
2, 165116, Note_off_c, 0, 73, 100
2, 165120, Note_on_c, 0, 83, 84
2, 165120, Note_on_c, 0, 71, 84
2, 165884, Note_off_c, 0, 83, 100
2, 165888, Note_on_c, 0, 73, 87
2, 166268, Note_off_c, 0, 71, 100
2, 166268, Note_off_c, 0, 73, 100
2, 166272, Note_on_c, 0, 81, 88
2, 166272, Note_on_c, 0, 69, 88
2, 167036, Note_off_c, 0, 81, 100
2, 167040, Note_on_c, 0, 73, 91
2, 167420, Note_off_c, 0, 69, 100
2, 167420, Note_off_c, 0, 73, 100
2, 167424, Note_on_c, 0, 82, 92
2, 167424, Note_on_c, 0, 70, 92
2, 168188, Note_off_c, 0, 82, 100
2, 168192, Note_on_c, 0, 73, 95
2, 168572, Note_off_c, 0, 70, 100
2, 168572, Note_off_c, 0, 73, 100
2, 168576, Note_on_c, 0, 76, 97
2, 168576, Note_on_c, 0, 70, 97
2, 169340, Note_off_c, 0, 76, 100
2, 169344, Note_on_c, 0, 76, 99
2, 169344, Note_on_c, 0, 73, 99
2, 169724, Note_off_c, 0, 70, 100
2, 169724, Note_off_c, 0, 76, 100
2, 169724, Note_off_c, 0, 73, 100
2, 169728, Note_on_c, 0, 68, 80
2, 169728, Note_on_c, 0, 77, 80
2, 170492, Note_off_c, 0, 68, 100
2, 170496, Note_on_c, 0, 73, 80
2, 170876, Note_off_c, 0, 73, 100
2, 170880, Note_on_c, 0, 72, 80
2, 170880, Note_on_c, 0, 66, 80
2, 171260, Note_off_c, 0, 77, 100
2, 171264, Note_on_c, 0, 78, 80
2, 171644, Note_off_c, 0, 72, 100
2, 171644, Note_off_c, 0, 66, 100
2, 171644, Note_off_c, 0, 78, 100
2, 171648, Note_on_c, 0, 75, 80
2, 171648, Note_on_c, 0, 72, 80
2, 171648, Note_on_c, 0, 66, 80
2, 172028, Note_off_c, 0, 75, 100
2, 172028, Note_off_c, 0, 72, 100
2, 172028, Note_off_c, 0, 66, 100
2, 172032, Note_on_c, 0, 73, 80
2, 172032, Note_on_c, 0, 65, 80
2, 172412, Note_off_c, 0, 73, 100
2, 172412, Note_off_c, 0, 65, 100
2, 172800, Note_on_c, 0, 68, 80
2, 173180, Note_off_c, 0, 68, 100
2, 173184, Note_on_c, 0, 72, 80
2, 173184, Note_on_c, 0, 60, 80
2, 173948, Note_off_c, 0, 72, 100
2, 173948, Note_off_c, 0, 60, 100
2, 173952, Note_on_c, 0, 68, 80
2, 174332, Note_off_c, 0, 68, 100
2, 174336, Note_on_c, 0, 73, 80
2, 174336, Note_on_c, 0, 61, 80
2, 175100, Note_off_c, 0, 73, 100
2, 175100, Note_off_c, 0, 61, 100
2, 175104, Note_on_c, 0, 67, 80
2, 175484, Note_off_c, 0, 67, 100
2, 175488, Note_on_c, 0, 75, 80
2, 175488, Note_on_c, 0, 66, 80
2, 175488, Note_on_c, 0, 63, 80
2, 176252, Note_off_c, 0, 75, 100
2, 176252, Note_off_c, 0, 66, 100
2, 176252, Note_off_c, 0, 63, 100
2, 176256, Note_on_c, 0, 68, 80
2, 176636, Note_off_c, 0, 68, 100
2, 176640, Note_on_c, 0, 77, 80
2, 176640, Note_on_c, 0, 65, 80
2, 177404, Note_off_c, 0, 77, 100
2, 177404, Note_off_c, 0, 65, 100
2, 177408, Note_on_c, 0, 68, 80
2, 177788, Note_off_c, 0, 68, 100
2, 177792, Note_on_c, 0, 77, 80
2, 177792, Note_on_c, 0, 65, 80
2, 178556, Note_off_c, 0, 77, 100
2, 178556, Note_off_c, 0, 65, 100
2, 178560, Note_on_c, 0, 73, 80
2, 178940, Note_off_c, 0, 73, 100
2, 178944, Note_on_c, 0, 78, 80
2, 178944, Note_on_c, 0, 66, 80
2, 179708, Note_off_c, 0, 78, 100
2, 179708, Note_off_c, 0, 66, 100
2, 179712, Note_on_c, 0, 72, 80
2, 180092, Note_off_c, 0, 72, 100
2, 180096, Note_on_c, 0, 80, 80
2, 180096, Note_on_c, 0, 71, 80
2, 180096, Note_on_c, 0, 68, 80
2, 180860, Note_off_c, 0, 80, 100
2, 180860, Note_off_c, 0, 71, 100
2, 180860, Note_off_c, 0, 68, 100
2, 180864, Note_on_c, 0, 73, 80
2, 181244, Note_off_c, 0, 73, 100
2, 181248, Note_on_c, 0, 82, 80
2, 181248, Note_on_c, 0, 70, 80
2, 182012, Note_off_c, 0, 82, 100
2, 182012, Note_off_c, 0, 70, 100
2, 182016, Note_on_c, 0, 73, 80
2, 182396, Note_off_c, 0, 73, 100
2, 182400, Note_on_c, 0, 82, 80
2, 182400, Note_on_c, 0, 70, 80
2, 183164, Note_off_c, 0, 82, 100
2, 183168, Note_on_c, 0, 73, 82
2, 183548, Note_off_c, 0, 70, 100
2, 183548, Note_off_c, 0, 73, 100
2, 183552, Note_on_c, 0, 83, 84
2, 183552, Note_on_c, 0, 71, 84
2, 184316, Note_off_c, 0, 83, 100
2, 184320, Note_on_c, 0, 73, 87
2, 184700, Note_off_c, 0, 71, 100
2, 184700, Note_off_c, 0, 73, 100
2, 184704, Note_on_c, 0, 81, 88
2, 184704, Note_on_c, 0, 69, 88
2, 185468, Note_off_c, 0, 81, 100
2, 185472, Note_on_c, 0, 73, 91
2, 185852, Note_off_c, 0, 69, 100
2, 185852, Note_off_c, 0, 73, 100
2, 185856, Note_on_c, 0, 82, 92
2, 185856, Note_on_c, 0, 70, 92
2, 186620, Note_off_c, 0, 82, 100
2, 186624, Note_on_c, 0, 73, 95
2, 187004, Note_off_c, 0, 70, 100
2, 187004, Note_off_c, 0, 73, 100
2, 187008, Note_on_c, 0, 76, 97
2, 187008, Note_on_c, 0, 70, 97
2, 187772, Note_off_c, 0, 76, 100
2, 187776, Note_on_c, 0, 76, 99
2, 187776, Note_on_c, 0, 73, 99
2, 188156, Note_off_c, 0, 70, 100
2, 188156, Note_off_c, 0, 76, 100
2, 188156, Note_off_c, 0, 73, 100
2, 188160, Note_on_c, 0, 68, 80
2, 188160, Note_on_c, 0, 77, 80
2, 188924, Note_off_c, 0, 68, 100
2, 188928, Note_on_c, 0, 73, 80
2, 189308, Note_off_c, 0, 73, 100
2, 189312, Note_on_c, 0, 72, 80
2, 189312, Note_on_c, 0, 66, 80
2, 189692, Note_off_c, 0, 77, 100
2, 189696, Note_on_c, 0, 78, 80
2, 190076, Note_off_c, 0, 72, 100
2, 190076, Note_off_c, 0, 66, 100
2, 190076, Note_off_c, 0, 78, 100
2, 190080, Note_on_c, 0, 75, 80
2, 190080, Note_on_c, 0, 72, 80
2, 190080, Note_on_c, 0, 66, 80
2, 190460, Note_off_c, 0, 75, 100
2, 190460, Note_off_c, 0, 72, 100
2, 190460, Note_off_c, 0, 66, 100
2, 190464, Note_on_c, 0, 73, 80
2, 190464, Note_on_c, 0, 65, 80
2, 190844, Note_off_c, 0, 73, 100
2, 190844, Note_off_c, 0, 65, 100
2, 192000, Note_on_c, 0, 73, 100
2, 192000, Note_on_c, 0, 61, 100
2, 193148, Note_off_c, 0, 61, 100
2, 193148, Note_off_c, 0, 73, 100
2, 193152, Note_on_c, 0, 72, 80
2, 193152, Note_on_c, 0, 60, 80
2, 193532, Note_off_c, 0, 72, 100
2, 193532, Note_off_c, 0, 60, 100
2, 194304, Note_on_c, 0, 80, 100
2, 194304, Note_on_c, 0, 68, 100
2, 195452, Note_off_c, 0, 68, 100
2, 195452, Note_off_c, 0, 80, 100
2, 195456, Note_on_c, 0, 79, 80
2, 195456, Note_on_c, 0, 67, 80
2, 195836, Note_off_c, 0, 79, 100
2, 195836, Note_off_c, 0, 67, 100
2, 195840, Note_on_c, 0, 68, 80
2, 196028, Note_off_c, 0, 68, 100
2, 196032, Note_on_c, 0, 70, 80
2, 196220, Note_off_c, 0, 70, 100
2, 196224, Key_signature, -4, "major"
2, 196224, Note_on_c, 0, 68, 100
2, 196224, Note_on_c, 0, 72, 100
2, 196988, Note_off_c, 0, 72, 100
2, 196992, Note_on_c, 0, 74, 80
2, 197372, Note_off_c, 0, 68, 100
2, 197372, Note_off_c, 0, 74, 100
2, 197376, Note_on_c, 0, 67, 80
2, 197376, Note_on_c, 0, 75, 80
2, 198140, Note_off_c, 0, 67, 100
2, 198144, Note_on_c, 0, 70, 80
2, 198524, Note_off_c, 0, 70, 100
2, 198528, Note_on_c, 0, 72, 80
2, 198908, Note_off_c, 0, 75, 100
2, 198908, Note_off_c, 0, 72, 100
2, 198912, Note_on_c, 0, 77, 80
2, 198912, Note_on_c, 0, 68, 80
2, 199292, Note_off_c, 0, 77, 100
2, 199292, Note_off_c, 0, 68, 100
2, 199296, Note_on_c, 0, 74, 80
2, 199296, Note_on_c, 0, 68, 80
2, 199676, Note_off_c, 0, 74, 100
2, 199676, Note_off_c, 0, 68, 100
2, 199680, Note_on_c, 0, 75, 80
2, 199680, Note_on_c, 0, 67, 80
2, 200060, Note_off_c, 0, 75, 100
2, 200060, Note_off_c, 0, 67, 100
2, 200448, Note_on_c, 0, 73, 80
2, 200636, Note_off_c, 0, 73, 100
2, 200640, Note_on_c, 0, 75, 80
2, 200828, Note_off_c, 0, 75, 100
2, 200832, Note_on_c, 0, 77, 100
2, 200832, Note_on_c, 0, 73, 100
2, 201596, Note_off_c, 0, 77, 100
2, 201600, Note_on_c, 0, 79, 80
2, 201980, Note_off_c, 0, 73, 100
2, 201980, Note_off_c, 0, 79, 100
2, 201984, Note_on_c, 0, 80, 80
2, 201984, Note_on_c, 0, 72, 80
2, 202748, Note_off_c, 0, 72, 100
2, 202752, Note_on_c, 0, 75, 80
2, 203132, Note_off_c, 0, 75, 100
2, 203136, Note_on_c, 0, 77, 80
2, 203516, Note_off_c, 0, 80, 100
2, 203516, Note_off_c, 0, 77, 100
2, 203520, Note_on_c, 0, 82, 80
2, 203520, Note_on_c, 0, 73, 80
2, 203900, Note_off_c, 0, 82, 100
2, 203900, Note_off_c, 0, 73, 100
2, 203904, Note_on_c, 0, 79, 80
2, 203904, Note_on_c, 0, 73, 80
2, 204284, Note_off_c, 0, 79, 100
2, 204284, Note_off_c, 0, 73, 100
2, 204288, Note_on_c, 0, 72, 80
2, 204288, Note_on_c, 0, 80, 80
2, 204668, Note_off_c, 0, 72, 100
2, 204668, Note_off_c, 0, 80, 100
2, 205056, Note_on_c, 0, 68, 80
2, 205244, Note_off_c, 0, 68, 100
2, 205248, Note_on_c, 0, 70, 80
2, 205436, Note_off_c, 0, 70, 100
2, 205440, Note_on_c, 0, 72, 100
2, 205440, Note_on_c, 0, 68, 100
2, 205820, Note_off_c, 0, 72, 100
2, 205824, Note_on_c, 0, 73, 80
2, 206204, Note_off_c, 0, 73, 100
2, 206208, Note_on_c, 0, 74, 80
2, 206588, Note_off_c, 0, 68, 100
2, 206588, Note_off_c, 0, 74, 100
2, 206592, Note_on_c, 0, 67, 80
2, 206592, Note_on_c, 0, 75, 80
2, 206972, Note_off_c, 0, 67, 100
2, 206976, Note_on_c, 0, 68, 80
2, 207356, Note_off_c, 0, 68, 100
2, 207360, Note_on_c, 0, 70, 80
2, 207740, Note_off_c, 0, 70, 100
2, 207744, Note_on_c, 0, 72, 80
2, 208124, Note_off_c, 0, 75, 100
2, 208124, Note_off_c, 0, 72, 100
2, 208128, Note_on_c, 0, 77, 80
2, 208128, Note_on_c, 0, 68, 80
2, 208508, Note_off_c, 0, 77, 100
2, 208508, Note_off_c, 0, 68, 100
2, 208512, Note_on_c, 0, 74, 80
2, 208512, Note_on_c, 0, 68, 80
2, 208892, Note_off_c, 0, 74, 100
2, 208892, Note_off_c, 0, 68, 100
2, 208896, Note_on_c, 0, 75, 80
2, 208896, Note_on_c, 0, 67, 80
2, 209276, Note_off_c, 0, 75, 100
2, 209276, Note_off_c, 0, 67, 100
2, 209664, Note_on_c, 0, 73, 80
2, 209852, Note_off_c, 0, 73, 100
2, 209856, Note_on_c, 0, 75, 80
2, 210044, Note_off_c, 0, 75, 100
2, 210048, Note_on_c, 0, 73, 100
2, 210048, Note_on_c, 0, 77, 100
2, 210428, Note_off_c, 0, 77, 100
2, 210432, Note_on_c, 0, 78, 80
2, 210812, Note_off_c, 0, 78, 100
2, 210816, Note_on_c, 0, 79, 80
2, 211196, Note_off_c, 0, 73, 100
2, 211196, Note_off_c, 0, 79, 100
2, 211200, Note_on_c, 0, 80, 80
2, 211200, Note_on_c, 0, 72, 80
2, 211580, Note_off_c, 0, 72, 100
2, 211584, Note_on_c, 0, 73, 80
2, 211964, Note_off_c, 0, 73, 100
2, 211968, Note_on_c, 0, 75, 80
2, 212348, Note_off_c, 0, 75, 100
2, 212352, Note_on_c, 0, 77, 80
2, 212732, Note_off_c, 0, 80, 100
2, 212732, Note_off_c, 0, 77, 100
2, 212736, Note_on_c, 0, 82, 80
2, 212736, Note_on_c, 0, 73, 80
2, 213116, Note_off_c, 0, 82, 100
2, 213116, Note_off_c, 0, 73, 100
2, 213120, Note_on_c, 0, 73, 80
2, 213120, Note_on_c, 0, 79, 80
2, 213500, Note_off_c, 0, 73, 100
2, 213500, Note_off_c, 0, 79, 100
2, 213504, Note_on_c, 0, 80, 80
2, 213504, Note_on_c, 0, 72, 80
2, 213884, Note_off_c, 0, 80, 100
2, 213884, Note_off_c, 0, 72, 100
2, 214272, Note_on_c, 0, 60, 80
2, 214272, Note_on_c, 0, 56, 80
2, 214460, Note_off_c, 0, 60, 100
2, 214460, Note_off_c, 0, 56, 100
2, 214464, Note_on_c, 0, 61, 80
2, 214464, Note_on_c, 0, 58, 80
2, 214652, Note_off_c, 0, 61, 100
2, 214652, Note_off_c, 0, 58, 100
2, 214656, Note_on_c, 0, 63, 80
2, 214656, Note_on_c, 0, 60, 80
2, 215420, Note_off_c, 0, 63, 100
2, 215420, Note_off_c, 0, 60, 100
2, 215424, Note_on_c, 0, 65, 80
2, 215424, Note_on_c, 0, 61, 80
2, 215804, Note_off_c, 0, 65, 100
2, 215804, Note_off_c, 0, 61, 100
2, 215808, Note_on_c, 0, 66, 80
2, 215808, Note_on_c, 0, 63, 80
2, 216188, Note_off_c, 0, 66, 100
2, 216188, Note_off_c, 0, 63, 100
2, 216576, Note_on_c, 0, 66, 100
2, 216576, Note_on_c, 0, 63, 100
2, 216956, Note_off_c, 0, 66, 100
2, 216956, Note_off_c, 0, 63, 100
2, 216960, Note_on_c, 0, 72, 100
2, 216960, Note_on_c, 0, 66, 100
2, 217340, Note_off_c, 0, 72, 100
2, 217340, Note_off_c, 0, 66, 100
2, 217344, Note_on_c, 0, 75, 100
2, 217344, Note_on_c, 0, 72, 100
2, 217724, Note_off_c, 0, 75, 100
2, 217724, Note_off_c, 0, 72, 100
2, 217728, Note_on_c, 0, 78, 100
2, 217728, Note_on_c, 0, 75, 100
2, 218492, Note_off_c, 0, 75, 64
2, 218492, Note_off_c, 0, 78, 64
2, 218496, Note_on_c, 0, 77, 100
2, 218496, Note_on_c, 0, 74, 100
2, 218876, Note_off_c, 0, 77, 100
2, 218876, Note_off_c, 0, 74, 100
2, 218880, Note_on_c, 0, 62, 80
2, 218880, Note_on_c, 0, 58, 80
2, 219068, Note_off_c, 0, 62, 100
2, 219068, Note_off_c, 0, 58, 100
2, 219072, Note_on_c, 0, 63, 80
2, 219072, Note_on_c, 0, 60, 80
2, 219260, Note_off_c, 0, 63, 100
2, 219260, Note_off_c, 0, 60, 100
2, 219264, Note_on_c, 0, 65, 80
2, 219264, Note_on_c, 0, 62, 80
2, 220028, Note_off_c, 0, 65, 100
2, 220028, Note_off_c, 0, 62, 100
2, 220032, Note_on_c, 0, 67, 80
2, 220032, Note_on_c, 0, 64, 80
2, 220412, Note_off_c, 0, 67, 100
2, 220412, Note_off_c, 0, 64, 100
2, 220416, Note_on_c, 0, 65, 80
2, 220416, Note_on_c, 0, 68, 80
2, 220796, Note_off_c, 0, 65, 100
2, 220796, Note_off_c, 0, 68, 100
2, 221184, Note_on_c, 0, 68, 100
2, 221184, Note_on_c, 0, 65, 100
2, 221564, Note_off_c, 0, 68, 100
2, 221564, Note_off_c, 0, 65, 100
2, 221568, Note_on_c, 0, 74, 100
2, 221568, Note_on_c, 0, 68, 100
2, 221948, Note_off_c, 0, 74, 100
2, 221948, Note_off_c, 0, 68, 100
2, 221952, Note_on_c, 0, 77, 100
2, 221952, Note_on_c, 0, 74, 100
2, 222332, Note_off_c, 0, 77, 100
2, 222332, Note_off_c, 0, 74, 100
2, 222336, Note_on_c, 0, 80, 100
2, 222336, Note_on_c, 0, 77, 100
2, 223100, Note_off_c, 0, 77, 64
2, 223100, Note_off_c, 0, 80, 64
2, 223104, Note_on_c, 0, 79, 80
2, 223104, Note_on_c, 0, 76, 80
2, 223484, Note_off_c, 0, 79, 100
2, 223484, Note_off_c, 0, 76, 100
2, 223488, Note_on_c, 0, 64, 80
2, 223488, Note_on_c, 0, 60, 80
2, 223676, Note_off_c, 0, 64, 100
2, 223676, Note_off_c, 0, 60, 100
2, 223680, Note_on_c, 0, 65, 80
2, 223680, Note_on_c, 0, 62, 80
2, 223868, Note_off_c, 0, 65, 100
2, 223868, Note_off_c, 0, 62, 100
2, 223872, Note_on_c, 0, 67, 80
2, 223872, Note_on_c, 0, 64, 80
2, 224636, Note_off_c, 0, 67, 100
2, 224636, Note_off_c, 0, 64, 100
2, 224640, Note_on_c, 0, 68, 80
2, 224640, Note_on_c, 0, 65, 80
2, 225020, Note_off_c, 0, 68, 100
2, 225020, Note_off_c, 0, 65, 100
2, 225024, Note_on_c, 0, 67, 80
2, 225024, Note_on_c, 0, 70, 80
2, 225404, Note_off_c, 0, 67, 100
2, 225404, Note_off_c, 0, 70, 100
2, 225792, Note_on_c, 0, 64, 100
2, 225792, Note_on_c, 0, 60, 100
2, 225980, Note_off_c, 0, 64, 100
2, 225980, Note_off_c, 0, 60, 100
2, 225984, Note_on_c, 0, 65, 100
2, 225984, Note_on_c, 0, 62, 100
2, 226172, Note_off_c, 0, 65, 100
2, 226172, Note_off_c, 0, 62, 100
2, 226176, Note_on_c, 0, 67, 101
2, 226176, Note_on_c, 0, 64, 101
2, 226556, Note_off_c, 0, 67, 100
2, 226556, Note_off_c, 0, 64, 100
2, 226560, Note_on_c, 0, 64, 103
2, 226560, Note_on_c, 0, 60, 103
2, 226748, Note_off_c, 0, 64, 100
2, 226748, Note_off_c, 0, 60, 100
2, 226752, Note_on_c, 0, 65, 103
2, 226752, Note_on_c, 0, 62, 103
2, 226940, Note_off_c, 0, 65, 100
2, 226940, Note_off_c, 0, 62, 100
2, 226944, Note_on_c, 0, 67, 104
2, 226944, Note_on_c, 0, 64, 104
2, 227132, Note_off_c, 0, 67, 100
2, 227132, Note_off_c, 0, 64, 100
2, 227136, Note_on_c, 0, 68, 105
2, 227136, Note_on_c, 0, 65, 105
2, 227324, Note_off_c, 0, 68, 100
2, 227324, Note_off_c, 0, 65, 100
2, 227328, Note_on_c, 0, 70, 106
2, 227328, Note_on_c, 0, 67, 106
2, 227708, Note_off_c, 0, 70, 100
2, 227708, Note_off_c, 0, 67, 100
2, 227712, Note_on_c, 0, 67, 107
2, 227712, Note_on_c, 0, 64, 107
2, 227900, Note_off_c, 0, 67, 100
2, 227900, Note_off_c, 0, 64, 100
2, 227904, Note_on_c, 0, 68, 108
2, 227904, Note_on_c, 0, 65, 108
2, 228092, Note_off_c, 0, 68, 100
2, 228092, Note_off_c, 0, 65, 100
2, 228096, Note_on_c, 0, 70, 109
2, 228096, Note_on_c, 0, 67, 109
2, 228284, Note_off_c, 0, 70, 100
2, 228284, Note_off_c, 0, 67, 100
2, 228288, Note_on_c, 0, 72, 109
2, 228288, Note_on_c, 0, 68, 109
2, 228476, Note_off_c, 0, 72, 100
2, 228476, Note_off_c, 0, 68, 100
2, 228480, Note_on_c, 0, 73, 80
2, 228480, Note_on_c, 0, 70, 80
2, 228860, Note_off_c, 0, 73, 100
2, 228860, Note_off_c, 0, 70, 100
2, 229248, Note_on_c, 0, 70, 80
2, 229248, Note_on_c, 0, 67, 80
2, 229628, Note_off_c, 0, 70, 100
2, 229628, Note_off_c, 0, 67, 100
2, 229632, Note_on_c, 0, 67, 80
2, 229632, Note_on_c, 0, 64, 80
2, 230012, Note_off_c, 0, 67, 100
2, 230012, Note_off_c, 0, 64, 100
2, 230400, Note_on_c, 0, 70, 80
2, 230400, Note_on_c, 0, 67, 80
2, 230780, Note_off_c, 0, 70, 100
2, 230780, Note_off_c, 0, 67, 100
2, 230784, Note_on_c, 0, 73, 80
2, 230784, Note_on_c, 0, 70, 80
2, 231164, Note_off_c, 0, 73, 100
2, 231164, Note_off_c, 0, 70, 100
2, 231552, Note_on_c, 0, 70, 80
2, 231552, Note_on_c, 0, 67, 80
2, 231932, Note_off_c, 0, 70, 100
2, 231932, Note_off_c, 0, 67, 100
2, 231936, Note_on_c, 0, 67, 80
2, 231936, Note_on_c, 0, 64, 80
2, 232316, Note_off_c, 0, 67, 100
2, 232316, Note_off_c, 0, 64, 100
2, 232704, Note_on_c, 0, 70, 80
2, 232704, Note_on_c, 0, 67, 80
2, 233084, Note_off_c, 0, 70, 100
2, 233084, Note_off_c, 0, 67, 100
2, 233088, Note_on_c, 0, 73, 80
2, 233088, Note_on_c, 0, 70, 80
2, 233088, Note_on_c, 0, 67, 80
2, 233852, Note_off_c, 0, 73, 100
2, 233852, Note_off_c, 0, 70, 100
2, 233852, Note_off_c, 0, 67, 100
2, 233856, Note_on_c, 0, 72, 80
2, 233856, Note_on_c, 0, 70, 80
2, 233856, Note_on_c, 0, 67, 80
2, 234236, Note_off_c, 0, 72, 100
2, 234236, Note_off_c, 0, 70, 100
2, 234236, Note_off_c, 0, 67, 100
2, 234240, Note_on_c, 0, 73, 80
2, 234240, Note_on_c, 0, 70, 80
2, 234240, Note_on_c, 0, 67, 80
2, 235004, Note_off_c, 0, 73, 100
2, 235004, Note_off_c, 0, 70, 100
2, 235004, Note_off_c, 0, 67, 100
2, 235008, Note_on_c, 0, 72, 80
2, 235008, Note_on_c, 0, 70, 80
2, 235008, Note_on_c, 0, 67, 80
2, 235388, Note_off_c, 0, 72, 100
2, 235388, Note_off_c, 0, 70, 100
2, 235388, Note_off_c, 0, 67, 100
2, 235392, Note_on_c, 0, 73, 80
2, 235392, Note_on_c, 0, 70, 80
2, 235392, Note_on_c, 0, 67, 80
2, 236156, Note_off_c, 0, 73, 100
2, 236156, Note_off_c, 0, 70, 100
2, 236156, Note_off_c, 0, 67, 100
2, 236160, Note_on_c, 0, 72, 80
2, 236160, Note_on_c, 0, 70, 80
2, 236160, Note_on_c, 0, 67, 80
2, 236540, Note_off_c, 0, 72, 100
2, 236540, Note_off_c, 0, 70, 100
2, 236540, Note_off_c, 0, 67, 100
2, 236544, Note_on_c, 0, 73, 80
2, 236544, Note_on_c, 0, 70, 80
2, 236544, Note_on_c, 0, 67, 80
2, 237308, Note_off_c, 0, 73, 100
2, 237308, Note_off_c, 0, 70, 100
2, 237308, Note_off_c, 0, 67, 100
2, 237312, Note_on_c, 0, 72, 78
2, 237312, Note_on_c, 0, 70, 78
2, 237312, Note_on_c, 0, 67, 78
2, 237692, Note_off_c, 0, 72, 100
2, 237692, Note_off_c, 0, 70, 100
2, 237692, Note_off_c, 0, 67, 100
2, 237696, Note_on_c, 0, 73, 77
2, 237696, Note_on_c, 0, 64, 77
2, 237696, Note_on_c, 0, 70, 77
2, 238460, Note_off_c, 0, 73, 100
2, 238460, Note_off_c, 0, 64, 100
2, 238460, Note_off_c, 0, 70, 100
2, 238464, Note_on_c, 0, 72, 75
2, 238464, Note_on_c, 0, 70, 75
2, 238464, Note_on_c, 0, 64, 75
2, 238844, Note_off_c, 0, 72, 100
2, 238844, Note_off_c, 0, 70, 100
2, 238844, Note_off_c, 0, 64, 100
2, 238848, Note_on_c, 0, 73, 74
2, 238848, Note_on_c, 0, 64, 74
2, 238848, Note_on_c, 0, 70, 74
2, 239612, Note_off_c, 0, 73, 100
2, 239612, Note_off_c, 0, 64, 100
2, 239612, Note_off_c, 0, 70, 100
2, 239616, Note_on_c, 0, 72, 72
2, 239616, Note_on_c, 0, 70, 72
2, 239616, Note_on_c, 0, 64, 72
2, 239996, Note_off_c, 0, 72, 100
2, 239996, Note_off_c, 0, 70, 100
2, 239996, Note_off_c, 0, 64, 100
2, 240000, Note_on_c, 0, 73, 71
2, 240000, Note_on_c, 0, 64, 71
2, 240000, Note_on_c, 0, 70, 71
2, 240764, Note_off_c, 0, 73, 100
2, 240764, Note_off_c, 0, 64, 100
2, 240764, Note_off_c, 0, 70, 100
2, 240768, Note_on_c, 0, 72, 69
2, 240768, Note_on_c, 0, 70, 69
2, 240768, Note_on_c, 0, 64, 69
2, 241148, Note_off_c, 0, 72, 100
2, 241148, Note_off_c, 0, 70, 100
2, 241148, Note_off_c, 0, 64, 100
2, 241152, Note_on_c, 0, 73, 68
2, 241152, Note_on_c, 0, 64, 68
2, 241152, Note_on_c, 0, 70, 68
2, 241916, Note_off_c, 0, 73, 100
2, 241916, Note_off_c, 0, 64, 100
2, 241916, Note_off_c, 0, 70, 100
2, 241920, Note_on_c, 0, 72, 66
2, 241920, Note_on_c, 0, 70, 66
2, 241920, Note_on_c, 0, 64, 66
2, 242300, Note_off_c, 0, 72, 100
2, 242300, Note_off_c, 0, 70, 100
2, 242300, Note_off_c, 0, 64, 100
2, 242304, Note_on_c, 0, 70, 65
2, 242304, Note_on_c, 0, 64, 65
2, 242304, Note_on_c, 0, 73, 65
2, 243068, Note_off_c, 0, 70, 100
2, 243068, Note_off_c, 0, 64, 100
2, 243068, Note_off_c, 0, 73, 100
2, 243456, Note_on_c, 0, 72, 65
2, 243456, Note_on_c, 0, 70, 65
2, 243456, Note_on_c, 0, 64, 65
2, 244220, Note_off_c, 0, 72, 100
2, 244220, Note_off_c, 0, 70, 100
2, 244220, Note_off_c, 0, 64, 100
2, 244608, Note_on_c, 0, 72, 65
2, 244608, Note_on_c, 0, 70, 65
2, 244608, Note_on_c, 0, 64, 65
2, 245372, Note_off_c, 0, 72, 100
2, 245372, Note_off_c, 0, 70, 100
2, 245372, Note_off_c, 0, 64, 100
2, 245760, Note_on_c, 0, 72, 65
2, 245760, Note_on_c, 0, 70, 65
2, 245760, Note_on_c, 0, 64, 65
2, 246524, Note_off_c, 0, 72, 100
2, 246524, Note_off_c, 0, 70, 100
2, 246524, Note_off_c, 0, 64, 100
2, 246912, Note_on_c, 0, 80, 110
2, 247100, Note_off_c, 0, 80, 100
2, 247104, Note_on_c, 0, 79, 110
2, 247292, Note_off_c, 0, 79, 100
2, 247296, Note_on_c, 0, 80, 110
2, 247484, Note_off_c, 0, 80, 100
2, 247488, Note_on_c, 0, 84, 110
2, 247676, Note_off_c, 0, 84, 100
2, 247680, Note_on_c, 0, 82, 110
2, 247868, Note_off_c, 0, 82, 100
2, 247872, Note_on_c, 0, 80, 110
2, 248060, Note_off_c, 0, 80, 100
2, 248064, Note_on_c, 0, 79, 110
2, 248252, Note_off_c, 0, 79, 100
2, 248256, Note_on_c, 0, 77, 110
2, 248444, Note_off_c, 0, 77, 100
2, 248448, Note_on_c, 0, 75, 110
2, 248636, Note_off_c, 0, 75, 100
2, 248640, Note_on_c, 0, 74, 110
2, 248828, Note_off_c, 0, 74, 100
2, 248832, Note_on_c, 0, 72, 110
2, 249020, Note_off_c, 0, 72, 100
2, 249024, Note_on_c, 0, 70, 110
2, 249212, Note_off_c, 0, 70, 100
2, 249216, Note_on_c, 0, 68, 110
2, 249404, Note_off_c, 0, 68, 100
2, 249408, Note_on_c, 0, 67, 110
2, 249596, Note_off_c, 0, 67, 100
2, 249600, Note_on_c, 0, 68, 110
2, 249788, Note_off_c, 0, 68, 100
2, 249792, Note_on_c, 0, 72, 110
2, 249980, Note_off_c, 0, 72, 100
2, 249984, Note_on_c, 0, 70, 110
2, 250172, Note_off_c, 0, 70, 100
2, 250176, Note_on_c, 0, 68, 110
2, 250364, Note_off_c, 0, 68, 100
2, 250368, Note_on_c, 0, 67, 110
2, 250556, Note_off_c, 0, 67, 100
2, 250560, Note_on_c, 0, 63, 110
2, 250748, Note_off_c, 0, 63, 100
2, 250752, Note_on_c, 0, 67, 110
2, 250940, Note_off_c, 0, 67, 100
2, 250944, Note_on_c, 0, 68, 110
2, 251132, Note_off_c, 0, 68, 100
2, 251136, Note_on_c, 0, 70, 110
2, 251324, Note_off_c, 0, 70, 100
2, 251328, Note_on_c, 0, 72, 110
2, 251516, Note_off_c, 0, 72, 100
2, 251520, Note_on_c, 0, 73, 110
2, 251708, Note_off_c, 0, 73, 100
2, 251712, Note_on_c, 0, 72, 110
2, 251900, Note_off_c, 0, 72, 100
2, 251904, Note_on_c, 0, 73, 110
2, 252092, Note_off_c, 0, 73, 100
2, 252096, Note_on_c, 0, 77, 110
2, 252284, Note_off_c, 0, 77, 100
2, 252288, Note_on_c, 0, 75, 110
2, 252476, Note_off_c, 0, 75, 100
2, 252480, Note_on_c, 0, 73, 110
2, 252668, Note_off_c, 0, 73, 100
2, 252672, Note_on_c, 0, 72, 110
2, 252860, Note_off_c, 0, 72, 100
2, 252864, Note_on_c, 0, 70, 110
2, 253052, Note_off_c, 0, 70, 100
2, 253056, Note_on_c, 0, 68, 110
2, 253244, Note_off_c, 0, 68, 100
2, 253248, Note_on_c, 0, 67, 110
2, 253436, Note_off_c, 0, 67, 100
2, 253440, Note_on_c, 0, 65, 110
2, 253628, Note_off_c, 0, 65, 100
2, 253632, Note_on_c, 0, 63, 110
2, 253820, Note_off_c, 0, 63, 100
2, 253824, Note_on_c, 0, 61, 110
2, 254012, Note_off_c, 0, 61, 100
2, 254016, Note_on_c, 0, 60, 110
2, 254204, Note_off_c, 0, 60, 100
2, 254208, Note_on_c, 0, 61, 110
2, 254396, Note_off_c, 0, 61, 100
2, 254400, Note_on_c, 0, 65, 110
2, 254588, Note_off_c, 0, 65, 100
2, 254592, Note_on_c, 0, 63, 110
2, 254780, Note_off_c, 0, 63, 100
2, 254784, Note_on_c, 0, 61, 110
2, 254972, Note_off_c, 0, 61, 100
2, 254976, Note_on_c, 0, 60, 110
2, 255356, Note_off_c, 0, 60, 100
2, 255744, Note_on_c, 0, 68, 110
2, 255932, Note_off_c, 0, 68, 100
2, 255936, Note_on_c, 0, 70, 110
2, 256124, Note_off_c, 0, 70, 100
2, 256128, Note_on_c, 0, 72, 110
2, 256128, Note_on_c, 0, 60, 110
2, 256892, Note_off_c, 0, 72, 100
2, 256892, Note_off_c, 0, 60, 100
2, 256896, Note_on_c, 0, 74, 110
2, 256896, Note_on_c, 0, 62, 110
2, 257276, Note_off_c, 0, 74, 100
2, 257276, Note_off_c, 0, 62, 100
2, 257280, Note_on_c, 0, 75, 110
2, 257280, Note_on_c, 0, 63, 110
2, 257660, Note_off_c, 0, 75, 100
2, 257660, Note_off_c, 0, 63, 100
2, 258048, Note_on_c, 0, 76, 120
2, 258048, Note_on_c, 0, 64, 120
2, 258812, Note_off_c, 0, 64, 64
2, 258812, Note_off_c, 0, 76, 64
2, 258816, Note_on_c, 0, 77, 110
2, 258816, Note_on_c, 0, 65, 110
2, 259196, Note_off_c, 0, 77, 100
2, 259196, Note_off_c, 0, 65, 100
2, 259200, Note_on_c, 0, 74, 110
2, 259200, Note_on_c, 0, 62, 110
2, 259580, Note_off_c, 0, 74, 100
2, 259580, Note_off_c, 0, 62, 100
2, 259584, Note_on_c, 0, 75, 110
2, 259584, Note_on_c, 0, 63, 110
2, 259964, Note_off_c, 0, 75, 100
2, 259964, Note_off_c, 0, 63, 100
2, 260352, Note_on_c, 0, 73, 110
2, 260540, Note_off_c, 0, 73, 100
2, 260544, Note_on_c, 0, 75, 110
2, 260732, Note_off_c, 0, 75, 100
2, 260736, Note_on_c, 0, 77, 110
2, 260736, Note_on_c, 0, 65, 110
2, 261500, Note_off_c, 0, 77, 100
2, 261500, Note_off_c, 0, 65, 100
2, 261504, Note_on_c, 0, 79, 110
2, 261504, Note_on_c, 0, 67, 110
2, 261884, Note_off_c, 0, 79, 100
2, 261884, Note_off_c, 0, 67, 100
2, 261888, Note_on_c, 0, 68, 110
2, 261888, Note_on_c, 0, 80, 110
2, 262268, Note_off_c, 0, 68, 100
2, 262268, Note_off_c, 0, 80, 100
2, 262656, Note_on_c, 0, 81, 120
2, 262656, Note_on_c, 0, 69, 120
2, 263420, Note_off_c, 0, 69, 64
2, 263420, Note_off_c, 0, 81, 64
2, 263424, Note_on_c, 0, 82, 110
2, 263424, Note_on_c, 0, 70, 110
2, 263804, Note_off_c, 0, 82, 100
2, 263804, Note_off_c, 0, 70, 100
2, 263808, Note_on_c, 0, 79, 110
2, 263808, Note_on_c, 0, 67, 110
2, 264188, Note_off_c, 0, 79, 100
2, 264188, Note_off_c, 0, 67, 100
2, 264192, Note_on_c, 0, 80, 110
2, 264192, Note_on_c, 0, 68, 110
2, 264572, Note_off_c, 0, 80, 100
2, 264572, Note_off_c, 0, 68, 100
2, 264960, Note_on_c, 0, 84, 120
2, 264960, Note_on_c, 0, 81, 120
2, 264960, Note_on_c, 0, 72, 120
2, 265724, Note_off_c, 0, 72, 64
2, 265724, Note_off_c, 0, 81, 64
2, 265724, Note_off_c, 0, 84, 64
2, 265728, Note_on_c, 0, 85, 110
2, 265728, Note_on_c, 0, 82, 110
2, 265728, Note_on_c, 0, 73, 110
2, 266108, Note_off_c, 0, 85, 100
2, 266108, Note_off_c, 0, 82, 100
2, 266108, Note_off_c, 0, 73, 100
2, 266112, Note_on_c, 0, 82, 110
2, 266112, Note_on_c, 0, 79, 110
2, 266112, Note_on_c, 0, 70, 110
2, 266492, Note_off_c, 0, 82, 100
2, 266492, Note_off_c, 0, 79, 100
2, 266492, Note_off_c, 0, 70, 100
2, 266496, Note_on_c, 0, 80, 110
2, 266496, Note_on_c, 0, 84, 110
2, 266496, Note_on_c, 0, 72, 110
2, 266876, Note_off_c, 0, 80, 100
2, 266876, Note_off_c, 0, 84, 100
2, 266876, Note_off_c, 0, 72, 100
2, 267264, Note_on_c, 0, 81, 120
2, 267264, Note_on_c, 0, 72, 120
2, 267264, Note_on_c, 0, 69, 120
2, 268028, Note_off_c, 0, 69, 64
2, 268028, Note_off_c, 0, 72, 64
2, 268028, Note_off_c, 0, 81, 64
2, 268032, Note_on_c, 0, 82, 110
2, 268032, Note_on_c, 0, 73, 110
2, 268032, Note_on_c, 0, 70, 110
2, 268412, Note_off_c, 0, 82, 100
2, 268412, Note_off_c, 0, 73, 100
2, 268412, Note_off_c, 0, 70, 100
2, 268416, Note_on_c, 0, 79, 110
2, 268416, Note_on_c, 0, 70, 110
2, 268416, Note_on_c, 0, 67, 110
2, 268796, Note_off_c, 0, 79, 100
2, 268796, Note_off_c, 0, 70, 100
2, 268796, Note_off_c, 0, 67, 100
2, 268800, Note_on_c, 0, 80, 110
2, 268800, Note_on_c, 0, 72, 110
2, 268800, Note_on_c, 0, 68, 110
2, 269180, Note_off_c, 0, 80, 100
2, 269180, Note_off_c, 0, 72, 100
2, 269180, Note_off_c, 0, 68, 100
2, 269568, Note_on_c, 0, 82, 110
2, 269568, Note_on_c, 0, 79, 110
2, 269568, Note_on_c, 0, 70, 110
2, 269948, Note_off_c, 0, 82, 100
2, 269948, Note_off_c, 0, 79, 100
2, 269948, Note_off_c, 0, 70, 100
2, 269952, Note_on_c, 0, 84, 111
2, 269952, Note_on_c, 0, 80, 111
2, 269952, Note_on_c, 0, 72, 111
2, 270332, Note_off_c, 0, 84, 100
2, 270332, Note_off_c, 0, 80, 100
2, 270332, Note_off_c, 0, 72, 100
2, 270720, Note_on_c, 0, 79, 115
2, 270720, Note_on_c, 0, 70, 115
2, 270720, Note_on_c, 0, 67, 115
2, 271100, Note_off_c, 0, 79, 100
2, 271100, Note_off_c, 0, 70, 100
2, 271100, Note_off_c, 0, 67, 100
2, 271104, Note_on_c, 0, 80, 117
2, 271104, Note_on_c, 0, 72, 117
2, 271104, Note_on_c, 0, 68, 117
2, 271484, Note_off_c, 0, 80, 100
2, 271484, Note_off_c, 0, 72, 100
2, 271484, Note_off_c, 0, 68, 100
2, 271872, Note_on_c, 0, 67, 120
2, 271872, Note_on_c, 0, 58, 120
2, 271872, Note_on_c, 0, 55, 120
2, 272252, Note_off_c, 0, 67, 100
2, 272252, Note_off_c, 0, 58, 100
2, 272252, Note_off_c, 0, 55, 100
2, 272256, Note_on_c, 0, 68, 120
2, 272256, Note_on_c, 0, 60, 120
2, 272256, Note_on_c, 0, 56, 120
2, 272636, Note_off_c, 0, 68, 100
2, 272636, Note_off_c, 0, 60, 100
2, 272636, Note_off_c, 0, 56, 100
2, 273024, Note_on_c, 0, 60, 80
2, 273024, Note_on_c, 0, 56, 80
2, 273212, Note_off_c, 0, 60, 100
2, 273212, Note_off_c, 0, 56, 100
2, 273216, Note_on_c, 0, 61, 80
2, 273216, Note_on_c, 0, 58, 80
2, 273404, Note_off_c, 0, 61, 100
2, 273404, Note_off_c, 0, 58, 100
2, 273408, Note_on_c, 0, 63, 80
2, 273408, Note_on_c, 0, 60, 80
2, 274172, Note_off_c, 0, 63, 100
2, 274172, Note_off_c, 0, 60, 100
2, 274176, Note_on_c, 0, 65, 80
2, 274176, Note_on_c, 0, 61, 80
2, 274556, Note_off_c, 0, 65, 100
2, 274556, Note_off_c, 0, 61, 100
2, 274560, Note_on_c, 0, 66, 80
2, 274560, Note_on_c, 0, 63, 80
2, 274940, Note_off_c, 0, 66, 100
2, 274940, Note_off_c, 0, 63, 100
2, 275328, Note_on_c, 0, 66, 100
2, 275328, Note_on_c, 0, 63, 100
2, 275708, Note_off_c, 0, 66, 100
2, 275708, Note_off_c, 0, 63, 100
2, 275712, Note_on_c, 0, 72, 100
2, 275712, Note_on_c, 0, 66, 100
2, 276092, Note_off_c, 0, 72, 100
2, 276092, Note_off_c, 0, 66, 100
2, 276096, Note_on_c, 0, 75, 100
2, 276096, Note_on_c, 0, 72, 100
2, 276476, Note_off_c, 0, 75, 100
2, 276476, Note_off_c, 0, 72, 100
2, 276480, Note_on_c, 0, 78, 100
2, 276480, Note_on_c, 0, 75, 100
2, 277244, Note_off_c, 0, 75, 64
2, 277244, Note_off_c, 0, 78, 64
2, 277248, Note_on_c, 0, 77, 100
2, 277248, Note_on_c, 0, 74, 100
2, 277628, Note_off_c, 0, 77, 100
2, 277628, Note_off_c, 0, 74, 100
2, 277632, Note_on_c, 0, 62, 80
2, 277632, Note_on_c, 0, 58, 80
2, 277820, Note_off_c, 0, 62, 100
2, 277820, Note_off_c, 0, 58, 100
2, 277824, Note_on_c, 0, 63, 80
2, 277824, Note_on_c, 0, 60, 80
2, 278012, Note_off_c, 0, 63, 100
2, 278012, Note_off_c, 0, 60, 100
2, 278016, Note_on_c, 0, 65, 80
2, 278016, Note_on_c, 0, 62, 80
2, 278780, Note_off_c, 0, 65, 100
2, 278780, Note_off_c, 0, 62, 100
2, 278784, Note_on_c, 0, 67, 80
2, 278784, Note_on_c, 0, 64, 80
2, 279164, Note_off_c, 0, 67, 100
2, 279164, Note_off_c, 0, 64, 100
2, 279168, Note_on_c, 0, 65, 80
2, 279168, Note_on_c, 0, 68, 80
2, 279548, Note_off_c, 0, 65, 100
2, 279548, Note_off_c, 0, 68, 100
2, 279936, Note_on_c, 0, 68, 100
2, 279936, Note_on_c, 0, 65, 100
2, 280316, Note_off_c, 0, 68, 100
2, 280316, Note_off_c, 0, 65, 100
2, 280320, Note_on_c, 0, 74, 100
2, 280320, Note_on_c, 0, 68, 100
2, 280700, Note_off_c, 0, 74, 100
2, 280700, Note_off_c, 0, 68, 100
2, 280704, Note_on_c, 0, 77, 100
2, 280704, Note_on_c, 0, 74, 100
2, 281084, Note_off_c, 0, 77, 100
2, 281084, Note_off_c, 0, 74, 100
2, 281088, Note_on_c, 0, 80, 100
2, 281088, Note_on_c, 0, 77, 100
2, 281852, Note_off_c, 0, 77, 64
2, 281852, Note_off_c, 0, 80, 64
2, 281856, Note_on_c, 0, 79, 80
2, 281856, Note_on_c, 0, 76, 80
2, 282236, Note_off_c, 0, 79, 100
2, 282236, Note_off_c, 0, 76, 100
2, 282240, Note_on_c, 0, 64, 80
2, 282240, Note_on_c, 0, 60, 80
2, 282428, Note_off_c, 0, 64, 100
2, 282428, Note_off_c, 0, 60, 100
2, 282432, Note_on_c, 0, 65, 80
2, 282432, Note_on_c, 0, 62, 80
2, 282620, Note_off_c, 0, 65, 100
2, 282620, Note_off_c, 0, 62, 100
2, 282624, Note_on_c, 0, 67, 80
2, 282624, Note_on_c, 0, 64, 80
2, 283388, Note_off_c, 0, 67, 100
2, 283388, Note_off_c, 0, 64, 100
2, 283392, Note_on_c, 0, 68, 80
2, 283392, Note_on_c, 0, 65, 80
2, 283772, Note_off_c, 0, 68, 100
2, 283772, Note_off_c, 0, 65, 100
2, 283776, Note_on_c, 0, 67, 80
2, 283776, Note_on_c, 0, 70, 80
2, 284156, Note_off_c, 0, 67, 100
2, 284156, Note_off_c, 0, 70, 100
2, 284544, Note_on_c, 0, 64, 100
2, 284544, Note_on_c, 0, 60, 100
2, 284732, Note_off_c, 0, 64, 100
2, 284732, Note_off_c, 0, 60, 100
2, 284736, Note_on_c, 0, 65, 100
2, 284736, Note_on_c, 0, 62, 100
2, 284924, Note_off_c, 0, 65, 100
2, 284924, Note_off_c, 0, 62, 100
2, 284928, Note_on_c, 0, 67, 101
2, 284928, Note_on_c, 0, 64, 101
2, 285308, Note_off_c, 0, 67, 100
2, 285308, Note_off_c, 0, 64, 100
2, 285312, Note_on_c, 0, 64, 103
2, 285312, Note_on_c, 0, 60, 103
2, 285500, Note_off_c, 0, 64, 100
2, 285500, Note_off_c, 0, 60, 100
2, 285504, Note_on_c, 0, 65, 103
2, 285504, Note_on_c, 0, 62, 103
2, 285692, Note_off_c, 0, 65, 100
2, 285692, Note_off_c, 0, 62, 100
2, 285696, Note_on_c, 0, 67, 104
2, 285696, Note_on_c, 0, 64, 104
2, 285884, Note_off_c, 0, 67, 100
2, 285884, Note_off_c, 0, 64, 100
2, 285888, Note_on_c, 0, 68, 105
2, 285888, Note_on_c, 0, 65, 105
2, 286076, Note_off_c, 0, 68, 100
2, 286076, Note_off_c, 0, 65, 100
2, 286080, Note_on_c, 0, 70, 106
2, 286080, Note_on_c, 0, 67, 106
2, 286460, Note_off_c, 0, 70, 100
2, 286460, Note_off_c, 0, 67, 100
2, 286464, Note_on_c, 0, 67, 107
2, 286464, Note_on_c, 0, 64, 107
2, 286652, Note_off_c, 0, 67, 100
2, 286652, Note_off_c, 0, 64, 100
2, 286656, Note_on_c, 0, 68, 108
2, 286656, Note_on_c, 0, 65, 108
2, 286844, Note_off_c, 0, 68, 100
2, 286844, Note_off_c, 0, 65, 100
2, 286848, Note_on_c, 0, 70, 109
2, 286848, Note_on_c, 0, 67, 109
2, 287036, Note_off_c, 0, 70, 100
2, 287036, Note_off_c, 0, 67, 100
2, 287040, Note_on_c, 0, 72, 109
2, 287040, Note_on_c, 0, 68, 109
2, 287228, Note_off_c, 0, 72, 100
2, 287228, Note_off_c, 0, 68, 100
2, 287232, Note_on_c, 0, 73, 80
2, 287232, Note_on_c, 0, 70, 80
2, 287612, Note_off_c, 0, 73, 100
2, 287612, Note_off_c, 0, 70, 100
2, 288000, Note_on_c, 0, 70, 80
2, 288000, Note_on_c, 0, 67, 80
2, 288380, Note_off_c, 0, 70, 100
2, 288380, Note_off_c, 0, 67, 100
2, 288384, Note_on_c, 0, 67, 80
2, 288384, Note_on_c, 0, 64, 80
2, 288764, Note_off_c, 0, 67, 100
2, 288764, Note_off_c, 0, 64, 100
2, 289152, Note_on_c, 0, 70, 80
2, 289152, Note_on_c, 0, 67, 80
2, 289532, Note_off_c, 0, 70, 100
2, 289532, Note_off_c, 0, 67, 100
2, 289536, Note_on_c, 0, 73, 80
2, 289536, Note_on_c, 0, 70, 80
2, 289916, Note_off_c, 0, 73, 100
2, 289916, Note_off_c, 0, 70, 100
2, 290304, Note_on_c, 0, 70, 80
2, 290304, Note_on_c, 0, 67, 80
2, 290684, Note_off_c, 0, 70, 100
2, 290684, Note_off_c, 0, 67, 100
2, 290688, Note_on_c, 0, 67, 80
2, 290688, Note_on_c, 0, 64, 80
2, 291068, Note_off_c, 0, 67, 100
2, 291068, Note_off_c, 0, 64, 100
2, 291456, Note_on_c, 0, 70, 80
2, 291456, Note_on_c, 0, 67, 80
2, 291836, Note_off_c, 0, 70, 100
2, 291836, Note_off_c, 0, 67, 100
2, 291840, Note_on_c, 0, 73, 80
2, 291840, Note_on_c, 0, 70, 80
2, 291840, Note_on_c, 0, 67, 80
2, 292604, Note_off_c, 0, 73, 100
2, 292604, Note_off_c, 0, 70, 100
2, 292604, Note_off_c, 0, 67, 100
2, 292608, Note_on_c, 0, 72, 80
2, 292608, Note_on_c, 0, 70, 80
2, 292608, Note_on_c, 0, 67, 80
2, 292988, Note_off_c, 0, 72, 100
2, 292988, Note_off_c, 0, 70, 100
2, 292988, Note_off_c, 0, 67, 100
2, 292992, Note_on_c, 0, 73, 80
2, 292992, Note_on_c, 0, 70, 80
2, 292992, Note_on_c, 0, 67, 80
2, 293756, Note_off_c, 0, 73, 100
2, 293756, Note_off_c, 0, 70, 100
2, 293756, Note_off_c, 0, 67, 100
2, 293760, Note_on_c, 0, 72, 80
2, 293760, Note_on_c, 0, 70, 80
2, 293760, Note_on_c, 0, 67, 80
2, 294140, Note_off_c, 0, 72, 100
2, 294140, Note_off_c, 0, 70, 100
2, 294140, Note_off_c, 0, 67, 100
2, 294144, Note_on_c, 0, 73, 80
2, 294144, Note_on_c, 0, 70, 80
2, 294144, Note_on_c, 0, 67, 80
2, 294908, Note_off_c, 0, 73, 100
2, 294908, Note_off_c, 0, 70, 100
2, 294908, Note_off_c, 0, 67, 100
2, 294912, Note_on_c, 0, 72, 80
2, 294912, Note_on_c, 0, 70, 80
2, 294912, Note_on_c, 0, 67, 80
2, 295292, Note_off_c, 0, 72, 100
2, 295292, Note_off_c, 0, 70, 100
2, 295292, Note_off_c, 0, 67, 100
2, 295296, Note_on_c, 0, 73, 80
2, 295296, Note_on_c, 0, 70, 80
2, 295296, Note_on_c, 0, 67, 80
2, 296060, Note_off_c, 0, 73, 100
2, 296060, Note_off_c, 0, 70, 100
2, 296060, Note_off_c, 0, 67, 100
2, 296064, Note_on_c, 0, 72, 78
2, 296064, Note_on_c, 0, 70, 78
2, 296064, Note_on_c, 0, 67, 78
2, 296444, Note_off_c, 0, 72, 100
2, 296444, Note_off_c, 0, 70, 100
2, 296444, Note_off_c, 0, 67, 100
2, 296448, Note_on_c, 0, 73, 77
2, 296448, Note_on_c, 0, 64, 77
2, 296448, Note_on_c, 0, 70, 77
2, 297212, Note_off_c, 0, 73, 100
2, 297212, Note_off_c, 0, 64, 100
2, 297212, Note_off_c, 0, 70, 100
2, 297216, Note_on_c, 0, 72, 75
2, 297216, Note_on_c, 0, 70, 75
2, 297216, Note_on_c, 0, 64, 75
2, 297596, Note_off_c, 0, 72, 100
2, 297596, Note_off_c, 0, 70, 100
2, 297596, Note_off_c, 0, 64, 100
2, 297600, Note_on_c, 0, 73, 74
2, 297600, Note_on_c, 0, 64, 74
2, 297600, Note_on_c, 0, 70, 74
2, 298364, Note_off_c, 0, 73, 100
2, 298364, Note_off_c, 0, 64, 100
2, 298364, Note_off_c, 0, 70, 100
2, 298368, Note_on_c, 0, 72, 72
2, 298368, Note_on_c, 0, 70, 72
2, 298368, Note_on_c, 0, 64, 72
2, 298748, Note_off_c, 0, 72, 100
2, 298748, Note_off_c, 0, 70, 100
2, 298748, Note_off_c, 0, 64, 100
2, 298752, Note_on_c, 0, 73, 71
2, 298752, Note_on_c, 0, 64, 71
2, 298752, Note_on_c, 0, 70, 71
2, 299516, Note_off_c, 0, 73, 100
2, 299516, Note_off_c, 0, 64, 100
2, 299516, Note_off_c, 0, 70, 100
2, 299520, Note_on_c, 0, 72, 69
2, 299520, Note_on_c, 0, 70, 69
2, 299520, Note_on_c, 0, 64, 69
2, 299900, Note_off_c, 0, 72, 100
2, 299900, Note_off_c, 0, 70, 100
2, 299900, Note_off_c, 0, 64, 100
2, 299904, Note_on_c, 0, 73, 68
2, 299904, Note_on_c, 0, 64, 68
2, 299904, Note_on_c, 0, 70, 68
2, 300668, Note_off_c, 0, 73, 100
2, 300668, Note_off_c, 0, 64, 100
2, 300668, Note_off_c, 0, 70, 100
2, 300672, Note_on_c, 0, 72, 66
2, 300672, Note_on_c, 0, 70, 66
2, 300672, Note_on_c, 0, 64, 66
2, 301052, Note_off_c, 0, 72, 100
2, 301052, Note_off_c, 0, 70, 100
2, 301052, Note_off_c, 0, 64, 100
2, 301056, Note_on_c, 0, 70, 65
2, 301056, Note_on_c, 0, 64, 65
2, 301056, Note_on_c, 0, 73, 65
2, 301820, Note_off_c, 0, 70, 100
2, 301820, Note_off_c, 0, 64, 100
2, 301820, Note_off_c, 0, 73, 100
2, 302208, Note_on_c, 0, 72, 65
2, 302208, Note_on_c, 0, 70, 65
2, 302208, Note_on_c, 0, 64, 65
2, 302972, Note_off_c, 0, 72, 100
2, 302972, Note_off_c, 0, 70, 100
2, 302972, Note_off_c, 0, 64, 100
2, 303360, Note_on_c, 0, 72, 65
2, 303360, Note_on_c, 0, 70, 65
2, 303360, Note_on_c, 0, 64, 65
2, 304124, Note_off_c, 0, 72, 100
2, 304124, Note_off_c, 0, 70, 100
2, 304124, Note_off_c, 0, 64, 100
2, 304512, Note_on_c, 0, 72, 65
2, 304512, Note_on_c, 0, 70, 65
2, 304512, Note_on_c, 0, 64, 65
2, 305276, Note_off_c, 0, 72, 100
2, 305276, Note_off_c, 0, 70, 100
2, 305276, Note_off_c, 0, 64, 100
2, 305664, Note_on_c, 0, 80, 110
2, 305852, Note_off_c, 0, 80, 100
2, 305856, Note_on_c, 0, 79, 110
2, 306044, Note_off_c, 0, 79, 100
2, 306048, Note_on_c, 0, 80, 110
2, 306236, Note_off_c, 0, 80, 100
2, 306240, Note_on_c, 0, 84, 110
2, 306428, Note_off_c, 0, 84, 100
2, 306432, Note_on_c, 0, 82, 110
2, 306620, Note_off_c, 0, 82, 100
2, 306624, Note_on_c, 0, 80, 110
2, 306812, Note_off_c, 0, 80, 100
2, 306816, Note_on_c, 0, 79, 110
2, 307004, Note_off_c, 0, 79, 100
2, 307008, Note_on_c, 0, 77, 110
2, 307196, Note_off_c, 0, 77, 100
2, 307200, Note_on_c, 0, 75, 110
2, 307388, Note_off_c, 0, 75, 100
2, 307392, Note_on_c, 0, 74, 110
2, 307580, Note_off_c, 0, 74, 100
2, 307584, Note_on_c, 0, 72, 110
2, 307772, Note_off_c, 0, 72, 100
2, 307776, Note_on_c, 0, 70, 110
2, 307964, Note_off_c, 0, 70, 100
2, 307968, Note_on_c, 0, 68, 110
2, 308156, Note_off_c, 0, 68, 100
2, 308160, Note_on_c, 0, 67, 110
2, 308348, Note_off_c, 0, 67, 100
2, 308352, Note_on_c, 0, 68, 110
2, 308540, Note_off_c, 0, 68, 100
2, 308544, Note_on_c, 0, 72, 110
2, 308732, Note_off_c, 0, 72, 100
2, 308736, Note_on_c, 0, 70, 110
2, 308924, Note_off_c, 0, 70, 100
2, 308928, Note_on_c, 0, 68, 110
2, 309116, Note_off_c, 0, 68, 100
2, 309120, Note_on_c, 0, 67, 110
2, 309308, Note_off_c, 0, 67, 100
2, 309312, Note_on_c, 0, 63, 110
2, 309500, Note_off_c, 0, 63, 100
2, 309504, Note_on_c, 0, 67, 110
2, 309692, Note_off_c, 0, 67, 100
2, 309696, Note_on_c, 0, 68, 110
2, 309884, Note_off_c, 0, 68, 100
2, 309888, Note_on_c, 0, 70, 110
2, 310076, Note_off_c, 0, 70, 100
2, 310080, Note_on_c, 0, 72, 110
2, 310268, Note_off_c, 0, 72, 100
2, 310272, Note_on_c, 0, 73, 110
2, 310460, Note_off_c, 0, 73, 100
2, 310464, Note_on_c, 0, 72, 110
2, 310652, Note_off_c, 0, 72, 100
2, 310656, Note_on_c, 0, 73, 110
2, 310844, Note_off_c, 0, 73, 100
2, 310848, Note_on_c, 0, 77, 110
2, 311036, Note_off_c, 0, 77, 100
2, 311040, Note_on_c, 0, 75, 110
2, 311228, Note_off_c, 0, 75, 100
2, 311232, Note_on_c, 0, 73, 110
2, 311420, Note_off_c, 0, 73, 100
2, 311424, Note_on_c, 0, 72, 110
2, 311612, Note_off_c, 0, 72, 100
2, 311616, Note_on_c, 0, 70, 110
2, 311804, Note_off_c, 0, 70, 100
2, 311808, Note_on_c, 0, 68, 110
2, 311996, Note_off_c, 0, 68, 100
2, 312000, Note_on_c, 0, 67, 110
2, 312188, Note_off_c, 0, 67, 100
2, 312192, Note_on_c, 0, 65, 110
2, 312380, Note_off_c, 0, 65, 100
2, 312384, Note_on_c, 0, 63, 110
2, 312572, Note_off_c, 0, 63, 100
2, 312576, Note_on_c, 0, 61, 110
2, 312764, Note_off_c, 0, 61, 100
2, 312768, Note_on_c, 0, 60, 110
2, 312956, Note_off_c, 0, 60, 100
2, 312960, Note_on_c, 0, 61, 110
2, 313148, Note_off_c, 0, 61, 100
2, 313152, Note_on_c, 0, 65, 110
2, 313340, Note_off_c, 0, 65, 100
2, 313344, Note_on_c, 0, 63, 110
2, 313532, Note_off_c, 0, 63, 100
2, 313536, Note_on_c, 0, 61, 110
2, 313724, Note_off_c, 0, 61, 100
2, 313728, Note_on_c, 0, 60, 110
2, 314108, Note_off_c, 0, 60, 100
2, 314496, Note_on_c, 0, 68, 110
2, 314684, Note_off_c, 0, 68, 100
2, 314688, Note_on_c, 0, 70, 110
2, 314876, Note_off_c, 0, 70, 100
2, 314880, Note_on_c, 0, 72, 110
2, 314880, Note_on_c, 0, 60, 110
2, 315644, Note_off_c, 0, 72, 100
2, 315644, Note_off_c, 0, 60, 100
2, 315648, Note_on_c, 0, 74, 110
2, 315648, Note_on_c, 0, 62, 110
2, 316028, Note_off_c, 0, 74, 100
2, 316028, Note_off_c, 0, 62, 100
2, 316032, Note_on_c, 0, 75, 110
2, 316032, Note_on_c, 0, 63, 110
2, 316412, Note_off_c, 0, 75, 100
2, 316412, Note_off_c, 0, 63, 100
2, 316800, Note_on_c, 0, 76, 120
2, 316800, Note_on_c, 0, 64, 120
2, 317564, Note_off_c, 0, 64, 64
2, 317564, Note_off_c, 0, 76, 64
2, 317568, Note_on_c, 0, 77, 110
2, 317568, Note_on_c, 0, 65, 110
2, 317948, Note_off_c, 0, 77, 100
2, 317948, Note_off_c, 0, 65, 100
2, 317952, Note_on_c, 0, 74, 110
2, 317952, Note_on_c, 0, 62, 110
2, 318332, Note_off_c, 0, 74, 100
2, 318332, Note_off_c, 0, 62, 100
2, 318336, Note_on_c, 0, 75, 110
2, 318336, Note_on_c, 0, 63, 110
2, 318716, Note_off_c, 0, 75, 100
2, 318716, Note_off_c, 0, 63, 100
2, 319104, Note_on_c, 0, 73, 110
2, 319292, Note_off_c, 0, 73, 100
2, 319296, Note_on_c, 0, 75, 110
2, 319484, Note_off_c, 0, 75, 100
2, 319488, Note_on_c, 0, 77, 110
2, 319488, Note_on_c, 0, 65, 110
2, 320252, Note_off_c, 0, 77, 100
2, 320252, Note_off_c, 0, 65, 100
2, 320256, Note_on_c, 0, 79, 110
2, 320256, Note_on_c, 0, 67, 110
2, 320636, Note_off_c, 0, 79, 100
2, 320636, Note_off_c, 0, 67, 100
2, 320640, Note_on_c, 0, 68, 110
2, 320640, Note_on_c, 0, 80, 110
2, 321020, Note_off_c, 0, 68, 100
2, 321020, Note_off_c, 0, 80, 100
2, 321408, Note_on_c, 0, 81, 120
2, 321408, Note_on_c, 0, 69, 120
2, 322172, Note_off_c, 0, 69, 64
2, 322172, Note_off_c, 0, 81, 64
2, 322176, Note_on_c, 0, 82, 110
2, 322176, Note_on_c, 0, 70, 110
2, 322556, Note_off_c, 0, 82, 100
2, 322556, Note_off_c, 0, 70, 100
2, 322560, Note_on_c, 0, 79, 110
2, 322560, Note_on_c, 0, 67, 110
2, 322940, Note_off_c, 0, 79, 100
2, 322940, Note_off_c, 0, 67, 100
2, 322944, Note_on_c, 0, 80, 110
2, 322944, Note_on_c, 0, 68, 110
2, 323324, Note_off_c, 0, 80, 100
2, 323324, Note_off_c, 0, 68, 100
2, 323712, Note_on_c, 0, 84, 120
2, 323712, Note_on_c, 0, 81, 120
2, 323712, Note_on_c, 0, 72, 120
2, 324476, Note_off_c, 0, 72, 64
2, 324476, Note_off_c, 0, 81, 64
2, 324476, Note_off_c, 0, 84, 64
2, 324480, Note_on_c, 0, 85, 110
2, 324480, Note_on_c, 0, 82, 110
2, 324480, Note_on_c, 0, 73, 110
2, 324860, Note_off_c, 0, 85, 100
2, 324860, Note_off_c, 0, 82, 100
2, 324860, Note_off_c, 0, 73, 100
2, 324864, Note_on_c, 0, 82, 110
2, 324864, Note_on_c, 0, 79, 110
2, 324864, Note_on_c, 0, 70, 110
2, 325244, Note_off_c, 0, 82, 100
2, 325244, Note_off_c, 0, 79, 100
2, 325244, Note_off_c, 0, 70, 100
2, 325248, Note_on_c, 0, 80, 110
2, 325248, Note_on_c, 0, 84, 110
2, 325248, Note_on_c, 0, 72, 110
2, 325628, Note_off_c, 0, 80, 100
2, 325628, Note_off_c, 0, 84, 100
2, 325628, Note_off_c, 0, 72, 100
2, 326016, Note_on_c, 0, 81, 120
2, 326016, Note_on_c, 0, 72, 120
2, 326016, Note_on_c, 0, 69, 120
2, 326780, Note_off_c, 0, 69, 64
2, 326780, Note_off_c, 0, 72, 64
2, 326780, Note_off_c, 0, 81, 64
2, 326784, Note_on_c, 0, 82, 110
2, 326784, Note_on_c, 0, 73, 110
2, 326784, Note_on_c, 0, 70, 110
2, 327164, Note_off_c, 0, 82, 100
2, 327164, Note_off_c, 0, 73, 100
2, 327164, Note_off_c, 0, 70, 100
2, 327168, Note_on_c, 0, 79, 110
2, 327168, Note_on_c, 0, 70, 110
2, 327168, Note_on_c, 0, 67, 110
2, 327548, Note_off_c, 0, 79, 100
2, 327548, Note_off_c, 0, 70, 100
2, 327548, Note_off_c, 0, 67, 100
2, 327552, Note_on_c, 0, 80, 110
2, 327552, Note_on_c, 0, 72, 110
2, 327552, Note_on_c, 0, 68, 110
2, 327932, Note_off_c, 0, 80, 100
2, 327932, Note_off_c, 0, 72, 100
2, 327932, Note_off_c, 0, 68, 100
2, 328320, Note_on_c, 0, 82, 110
2, 328320, Note_on_c, 0, 79, 110
2, 328320, Note_on_c, 0, 70, 110
2, 328700, Note_off_c, 0, 82, 100
2, 328700, Note_off_c, 0, 79, 100
2, 328700, Note_off_c, 0, 70, 100
2, 328704, Note_on_c, 0, 84, 111
2, 328704, Note_on_c, 0, 80, 111
2, 328704, Note_on_c, 0, 72, 111
2, 329084, Note_off_c, 0, 84, 100
2, 329084, Note_off_c, 0, 80, 100
2, 329084, Note_off_c, 0, 72, 100
2, 329472, Note_on_c, 0, 79, 115
2, 329472, Note_on_c, 0, 70, 115
2, 329472, Note_on_c, 0, 67, 115
2, 329852, Note_off_c, 0, 79, 100
2, 329852, Note_off_c, 0, 70, 100
2, 329852, Note_off_c, 0, 67, 100
2, 329856, Note_on_c, 0, 80, 117
2, 329856, Note_on_c, 0, 72, 117
2, 329856, Note_on_c, 0, 68, 117
2, 330236, Note_off_c, 0, 80, 100
2, 330236, Note_off_c, 0, 72, 100
2, 330236, Note_off_c, 0, 68, 100
2, 330624, Note_on_c, 0, 67, 120
2, 330624, Note_on_c, 0, 58, 120
2, 330624, Note_on_c, 0, 55, 120
2, 331004, Note_off_c, 0, 67, 100
2, 331004, Note_off_c, 0, 58, 100
2, 331004, Note_off_c, 0, 55, 100
2, 331008, Note_on_c, 0, 68, 120
2, 331008, Note_on_c, 0, 60, 120
2, 331008, Note_on_c, 0, 56, 120
2, 331772, Note_off_c, 0, 68, 100
2, 331772, Note_off_c, 0, 60, 100
2, 331772, Note_off_c, 0, 56, 100
2, 332160, Control_c, 0, 7, 0
2, 332544, Note_on_c, 0, 68, 1
2, 332924, Note_off_c, 0, 68, 100
2, 332924, End_track
3, 0, Start_track
3, 0, Title_t, "Left"
3, 0, Control_c, 1, 0, 0
3, 0, Program_c, 1, 0
3, 0, Control_c, 1, 7, 100
3, 0, Control_c, 1, 10, 59
3, 0, Control_c, 1, 91, 127
3, 0, Key_signature, -4, "major"
3, 384, Note_on_c, 1, 65, 100
3, 1532, Note_off_c, 1, 65, 100
3, 1536, Note_on_c, 1, 63, 80
3, 1916, Note_off_c, 1, 63, 100
3, 2304, Note_on_c, 1, 55, 80
3, 2684, Note_off_c, 1, 55, 100
3, 2688, Note_on_c, 1, 56, 80
3, 3068, Note_off_c, 1, 56, 100
3, 3072, Note_on_c, 1, 53, 80
3, 3452, Note_off_c, 1, 53, 100
3, 3456, Note_on_c, 1, 58, 80
3, 3836, Note_off_c, 1, 58, 100
3, 3840, Note_on_c, 1, 51, 80
3, 4220, Note_off_c, 1, 51, 100
3, 4992, Note_on_c, 1, 70, 100
3, 6140, Note_off_c, 1, 70, 100
3, 6144, Note_on_c, 1, 68, 80
3, 6524, Note_off_c, 1, 68, 100
3, 6912, Note_on_c, 1, 60, 80
3, 7292, Note_off_c, 1, 60, 100
3, 7296, Note_on_c, 1, 61, 80
3, 7676, Note_off_c, 1, 61, 100
3, 7680, Note_on_c, 1, 58, 80
3, 8060, Note_off_c, 1, 58, 100
3, 8064, Note_on_c, 1, 63, 80
3, 8444, Note_off_c, 1, 63, 100
3, 8448, Note_on_c, 1, 56, 80
3, 8828, Note_off_c, 1, 56, 100
3, 9600, Note_on_c, 1, 65, 100
3, 10748, Note_off_c, 1, 65, 100
3, 10752, Note_on_c, 1, 63, 80
3, 11132, Note_off_c, 1, 63, 100
3, 11136, Note_on_c, 1, 65, 80
3, 11516, Note_off_c, 1, 65, 100
3, 11520, Note_on_c, 1, 67, 80
3, 11900, Note_off_c, 1, 67, 100
3, 11904, Note_on_c, 1, 56, 80
3, 12284, Note_off_c, 1, 56, 100
3, 12288, Note_on_c, 1, 53, 80
3, 12668, Note_off_c, 1, 53, 100
3, 12672, Note_on_c, 1, 58, 80
3, 13052, Note_off_c, 1, 58, 100
3, 13056, Note_on_c, 1, 51, 80
3, 13436, Note_off_c, 1, 51, 100
3, 14208, Note_on_c, 1, 70, 100
3, 15356, Note_off_c, 1, 70, 100
3, 15360, Note_on_c, 1, 68, 80
3, 15740, Note_off_c, 1, 68, 100
3, 15744, Note_on_c, 1, 70, 80
3, 16124, Note_off_c, 1, 70, 100
3, 16128, Note_on_c, 1, 72, 80
3, 16508, Note_off_c, 1, 72, 100
3, 16512, Note_on_c, 1, 61, 80
3, 16892, Note_off_c, 1, 61, 100
3, 16896, Note_on_c, 1, 58, 80
3, 17276, Note_off_c, 1, 58, 100
3, 17280, Note_on_c, 1, 63, 80
3, 17660, Note_off_c, 1, 63, 100
3, 17664, Note_on_c, 1, 56, 80
3, 18044, Note_off_c, 1, 56, 100
3, 18816, Note_on_c, 1, 32, 80
3, 19196, Note_off_c, 1, 32, 100
3, 19200, Note_on_c, 1, 44, 80
3, 19580, Note_off_c, 1, 44, 100
3, 19968, Note_on_c, 1, 32, 80
3, 20348, Note_off_c, 1, 32, 100
3, 20352, Note_on_c, 1, 44, 80
3, 20732, Note_off_c, 1, 44, 100
3, 21120, Note_on_c, 1, 32, 100
3, 21500, Note_off_c, 1, 32, 100
3, 21504, Note_on_c, 1, 44, 100
3, 21884, Note_off_c, 1, 44, 100
3, 21888, Note_on_c, 1, 32, 100
3, 22268, Note_off_c, 1, 32, 100
3, 22272, Note_on_c, 1, 33, 100
3, 22652, Note_off_c, 1, 33, 100
3, 22656, Note_on_c, 1, 34, 100
3, 23036, Note_off_c, 1, 34, 100
3, 23424, Note_on_c, 1, 34, 80
3, 23804, Note_off_c, 1, 34, 100
3, 23808, Note_on_c, 1, 46, 80
3, 24188, Note_off_c, 1, 46, 100
3, 24576, Note_on_c, 1, 34, 80
3, 24956, Note_off_c, 1, 34, 100
3, 24960, Note_on_c, 1, 46, 80
3, 25340, Note_off_c, 1, 46, 100
3, 25728, Note_on_c, 1, 34, 100
3, 26108, Note_off_c, 1, 34, 100
3, 26112, Note_on_c, 1, 46, 100
3, 26492, Note_off_c, 1, 46, 100
3, 26496, Note_on_c, 1, 34, 100
3, 26876, Note_off_c, 1, 34, 100
3, 26880, Note_on_c, 1, 35, 100
3, 27260, Note_off_c, 1, 35, 100
3, 27264, Note_on_c, 1, 36, 80
3, 27644, Note_off_c, 1, 36, 100
3, 28032, Note_on_c, 1, 36, 80
3, 28412, Note_off_c, 1, 36, 100
3, 28416, Note_on_c, 1, 48, 80
3, 28796, Note_off_c, 1, 48, 100
3, 29184, Note_on_c, 1, 36, 80
3, 29564, Note_off_c, 1, 36, 100
3, 29568, Note_on_c, 1, 48, 80
3, 29948, Note_off_c, 1, 48, 100
3, 30336, Note_on_c, 1, 36, 101
3, 30716, Note_off_c, 1, 36, 100
3, 30720, Note_on_c, 1, 48, 103
3, 31100, Note_off_c, 1, 48, 100
3, 31488, Note_on_c, 1, 36, 106
3, 31868, Note_off_c, 1, 36, 100
3, 31872, Note_on_c, 1, 48, 107
3, 32252, Note_off_c, 1, 48, 100
3, 32640, Note_on_c, 1, 48, 80
3, 33020, Note_off_c, 1, 48, 100
3, 33024, Note_on_c, 1, 60, 80
3, 33404, Note_off_c, 1, 60, 100
3, 33792, Note_on_c, 1, 48, 80
3, 34172, Note_off_c, 1, 48, 100
3, 34176, Note_on_c, 1, 60, 80
3, 34556, Note_off_c, 1, 60, 100
3, 34944, Note_on_c, 1, 48, 80
3, 35324, Note_off_c, 1, 48, 100
3, 35328, Note_on_c, 1, 60, 80
3, 35708, Note_off_c, 1, 60, 100
3, 36096, Note_on_c, 1, 48, 80
3, 36476, Note_off_c, 1, 48, 100
3, 36480, Note_on_c, 1, 60, 80
3, 36860, Note_off_c, 1, 60, 100
3, 37248, Note_on_c, 1, 52, 80
3, 37628, Note_off_c, 1, 52, 100
3, 37632, Note_on_c, 1, 64, 80
3, 38012, Note_off_c, 1, 64, 100
3, 38400, Note_on_c, 1, 52, 80
3, 38780, Note_off_c, 1, 52, 100
3, 38784, Note_on_c, 1, 64, 80
3, 39164, Note_off_c, 1, 64, 100
3, 39552, Note_on_c, 1, 52, 80
3, 39932, Note_off_c, 1, 52, 100
3, 39936, Note_on_c, 1, 64, 80
3, 40316, Note_off_c, 1, 64, 100
3, 40704, Note_on_c, 1, 52, 80
3, 41084, Note_off_c, 1, 52, 100
3, 41088, Note_on_c, 1, 64, 79
3, 41468, Note_off_c, 1, 64, 100
3, 41856, Note_on_c, 1, 55, 77
3, 42236, Note_off_c, 1, 55, 100
3, 42240, Note_on_c, 1, 67, 76
3, 42620, Note_off_c, 1, 67, 100
3, 43008, Note_on_c, 1, 55, 74
3, 43388, Note_off_c, 1, 55, 100
3, 43392, Note_on_c, 1, 67, 73
3, 43772, Note_off_c, 1, 67, 100
3, 44160, Note_on_c, 1, 55, 71
3, 44540, Note_off_c, 1, 55, 100
3, 44544, Note_on_c, 1, 67, 70
3, 44924, Note_off_c, 1, 67, 100
3, 45312, Note_on_c, 1, 55, 68
3, 45692, Note_off_c, 1, 55, 100
3, 45696, Note_on_c, 1, 67, 67
3, 46076, Note_off_c, 1, 67, 100
3, 46848, Note_on_c, 1, 55, 65
3, 47228, Note_off_c, 1, 55, 100
3, 47232, Note_on_c, 1, 67, 65
3, 47612, Note_off_c, 1, 67, 100
3, 48000, Note_on_c, 1, 55, 65
3, 48380, Note_off_c, 1, 55, 100
3, 48384, Note_on_c, 1, 67, 65
3, 48764, Note_off_c, 1, 67, 100
3, 49152, Note_on_c, 1, 55, 65
3, 49532, Note_off_c, 1, 55, 100
3, 49536, Note_on_c, 1, 67, 65
3, 49916, Note_off_c, 1, 67, 100
3, 50304, Note_on_c, 1, 55, 65
3, 50684, Note_off_c, 1, 55, 100
3, 50688, Note_on_c, 1, 56, 110
3, 50876, Note_off_c, 1, 56, 100
3, 50880, Note_on_c, 1, 58, 110
3, 51068, Note_off_c, 1, 58, 100
3, 51072, Note_on_c, 1, 53, 110
3, 51072, Note_on_c, 1, 60, 110
3, 51836, Note_off_c, 1, 60, 100
3, 51840, Note_on_c, 1, 62, 110
3, 52220, Note_off_c, 1, 53, 100
3, 52220, Note_off_c, 1, 62, 100
3, 52224, Note_on_c, 1, 63, 110
3, 52224, Note_on_c, 1, 51, 110
3, 52604, Note_off_c, 1, 63, 100
3, 52604, Note_off_c, 1, 51, 100
3, 52992, Note_on_c, 1, 64, 120
3, 52992, Note_on_c, 1, 52, 120
3, 53756, Note_off_c, 1, 52, 100
3, 53756, Note_off_c, 1, 64, 100
3, 53760, Note_on_c, 1, 65, 110
3, 53760, Note_on_c, 1, 53, 110
3, 54140, Note_off_c, 1, 65, 100
3, 54140, Note_off_c, 1, 53, 100
3, 54144, Note_on_c, 1, 62, 110
3, 54144, Note_on_c, 1, 50, 110
3, 54524, Note_off_c, 1, 62, 100
3, 54524, Note_off_c, 1, 50, 100
3, 54528, Note_on_c, 1, 51, 110
3, 54528, Note_on_c, 1, 63, 110
3, 54908, Note_off_c, 1, 51, 100
3, 54908, Note_off_c, 1, 63, 100
3, 55296, Note_on_c, 1, 49, 110
3, 55484, Note_off_c, 1, 49, 100
3, 55488, Note_on_c, 1, 51, 110
3, 55676, Note_off_c, 1, 51, 100
3, 55680, Note_on_c, 1, 46, 110
3, 55680, Note_on_c, 1, 53, 110
3, 56444, Note_off_c, 1, 53, 100
3, 56448, Note_on_c, 1, 55, 110
3, 56828, Note_off_c, 1, 46, 100
3, 56828, Note_off_c, 1, 55, 100
3, 56832, Note_on_c, 1, 56, 110
3, 56832, Note_on_c, 1, 44, 110
3, 57212, Note_off_c, 1, 56, 100
3, 57212, Note_off_c, 1, 44, 100
3, 57600, Note_on_c, 1, 57, 120
3, 57600, Note_on_c, 1, 45, 120
3, 58364, Note_off_c, 1, 45, 100
3, 58364, Note_off_c, 1, 57, 100
3, 58368, Note_on_c, 1, 58, 110
3, 58368, Note_on_c, 1, 46, 110
3, 58748, Note_off_c, 1, 58, 100
3, 58748, Note_off_c, 1, 46, 100
3, 58752, Note_on_c, 1, 55, 110
3, 58752, Note_on_c, 1, 43, 110
3, 59132, Note_off_c, 1, 55, 100
3, 59132, Note_off_c, 1, 43, 100
3, 59136, Note_on_c, 1, 44, 110
3, 59324, Note_off_c, 1, 44, 100
3, 59328, Note_on_c, 1, 48, 110
3, 59516, Note_off_c, 1, 48, 100
3, 59520, Note_on_c, 1, 49, 110
3, 59708, Note_off_c, 1, 49, 100
3, 59712, Note_on_c, 1, 51, 110
3, 59900, Note_off_c, 1, 51, 100
3, 59904, Note_on_c, 1, 53, 110
3, 60092, Note_off_c, 1, 53, 100
3, 60096, Note_on_c, 1, 55, 110
3, 60284, Note_off_c, 1, 55, 100
3, 60288, Note_on_c, 1, 56, 110
3, 60476, Note_off_c, 1, 56, 100
3, 60480, Note_on_c, 1, 55, 110
3, 60668, Note_off_c, 1, 55, 100
3, 60672, Note_on_c, 1, 56, 110
3, 60860, Note_off_c, 1, 56, 100
3, 60864, Note_on_c, 1, 53, 110
3, 61052, Note_off_c, 1, 53, 100
3, 61056, Note_on_c, 1, 58, 110
3, 61244, Note_off_c, 1, 58, 100
3, 61248, Note_on_c, 1, 56, 110
3, 61436, Note_off_c, 1, 56, 100
3, 61440, Note_on_c, 1, 55, 110
3, 61628, Note_off_c, 1, 55, 100
3, 61632, Note_on_c, 1, 53, 110
3, 61820, Note_off_c, 1, 53, 100
3, 61824, Note_on_c, 1, 51, 110
3, 62012, Note_off_c, 1, 51, 100
3, 62016, Note_on_c, 1, 50, 110
3, 62204, Note_off_c, 1, 50, 100
3, 62208, Note_on_c, 1, 48, 110
3, 62396, Note_off_c, 1, 48, 100
3, 62400, Note_on_c, 1, 46, 110
3, 62588, Note_off_c, 1, 46, 100
3, 62592, Note_on_c, 1, 44, 110
3, 62780, Note_off_c, 1, 44, 100
3, 62784, Note_on_c, 1, 43, 110
3, 62972, Note_off_c, 1, 43, 100
3, 62976, Note_on_c, 1, 44, 110
3, 63164, Note_off_c, 1, 44, 100
3, 63168, Note_on_c, 1, 48, 110
3, 63356, Note_off_c, 1, 48, 100
3, 63360, Note_on_c, 1, 46, 110
3, 63548, Note_off_c, 1, 46, 100
3, 63552, Note_on_c, 1, 44, 110
3, 63740, Note_off_c, 1, 44, 100
3, 63744, Note_on_c, 1, 43, 110
3, 63932, Note_off_c, 1, 43, 100
3, 63936, Note_on_c, 1, 39, 110
3, 64124, Note_off_c, 1, 39, 100
3, 64128, Note_on_c, 1, 43, 110
3, 64316, Note_off_c, 1, 43, 100
3, 64320, Note_on_c, 1, 44, 110
3, 64508, Note_off_c, 1, 44, 100
3, 64512, Note_on_c, 1, 46, 110
3, 64700, Note_off_c, 1, 46, 100
3, 64704, Note_on_c, 1, 48, 110
3, 64892, Note_off_c, 1, 48, 100
3, 64896, Note_on_c, 1, 49, 110
3, 65084, Note_off_c, 1, 49, 100
3, 65088, Note_on_c, 1, 48, 110
3, 65276, Note_off_c, 1, 48, 100
3, 65280, Note_on_c, 1, 49, 110
3, 65468, Note_off_c, 1, 49, 100
3, 65472, Note_on_c, 1, 46, 110
3, 65660, Note_off_c, 1, 46, 100
3, 65664, Note_on_c, 1, 51, 110
3, 65852, Note_off_c, 1, 51, 100
3, 65856, Note_on_c, 1, 49, 110
3, 66044, Note_off_c, 1, 49, 100
3, 66048, Note_on_c, 1, 48, 110
3, 66236, Note_off_c, 1, 48, 100
3, 66240, Note_on_c, 1, 46, 110
3, 66428, Note_off_c, 1, 46, 100
3, 66432, Note_on_c, 1, 44, 110
3, 66620, Note_off_c, 1, 44, 100
3, 66624, Note_on_c, 1, 43, 110
3, 66812, Note_off_c, 1, 43, 100
3, 66816, Note_on_c, 1, 41, 110
3, 67004, Note_off_c, 1, 41, 100
3, 67008, Note_on_c, 1, 39, 110
3, 67196, Note_off_c, 1, 39, 100
3, 67200, Note_on_c, 1, 37, 110
3, 67388, Note_off_c, 1, 37, 100
3, 67392, Note_on_c, 1, 36, 110
3, 67580, Note_off_c, 1, 36, 100
3, 67584, Note_on_c, 1, 37, 110
3, 67772, Note_off_c, 1, 37, 100
3, 67776, Note_on_c, 1, 41, 110
3, 67964, Note_off_c, 1, 41, 100
3, 67968, Note_on_c, 1, 39, 110
3, 68156, Note_off_c, 1, 39, 100
3, 68160, Note_on_c, 1, 37, 110
3, 68348, Note_off_c, 1, 37, 100
3, 68352, Note_on_c, 1, 36, 110
3, 68540, Note_off_c, 1, 36, 100
3, 68544, Note_on_c, 1, 39, 110
3, 68732, Note_off_c, 1, 39, 100
3, 68736, Note_on_c, 1, 44, 110
3, 68924, Note_off_c, 1, 44, 100
3, 68928, Note_on_c, 1, 43, 110
3, 69116, Note_off_c, 1, 43, 100
3, 69120, Note_on_c, 1, 41, 110
3, 69308, Note_off_c, 1, 41, 100
3, 69312, Note_on_c, 1, 41, 110
3, 69500, Note_off_c, 1, 41, 100
3, 69504, Note_on_c, 1, 37, 110
3, 69692, Note_off_c, 1, 37, 100
3, 69696, Note_on_c, 1, 34, 110
3, 69884, Note_off_c, 1, 34, 100
3, 69888, Note_on_c, 1, 37, 110
3, 70076, Note_off_c, 1, 37, 100
3, 70080, Note_on_c, 1, 34, 110
3, 70268, Note_off_c, 1, 34, 100
3, 70272, Note_on_c, 1, 39, 110
3, 70460, Note_off_c, 1, 39, 100
3, 70464, Note_on_c, 1, 37, 110
3, 70652, Note_off_c, 1, 37, 100
3, 70656, Note_on_c, 1, 36, 110
3, 70844, Note_off_c, 1, 36, 100
3, 70848, Note_on_c, 1, 39, 110
3, 71036, Note_off_c, 1, 39, 100
3, 71040, Note_on_c, 1, 44, 110
3, 71228, Note_off_c, 1, 44, 100
3, 71232, Note_on_c, 1, 43, 110
3, 71420, Note_off_c, 1, 43, 100
3, 71424, Note_on_c, 1, 41, 110
3, 71612, Note_off_c, 1, 41, 100
3, 71616, Note_on_c, 1, 39, 110
3, 71804, Note_off_c, 1, 39, 100
3, 71808, Note_on_c, 1, 37, 110
3, 71996, Note_off_c, 1, 37, 100
3, 72000, Note_on_c, 1, 34, 110
3, 72188, Note_off_c, 1, 34, 100
3, 72192, Note_on_c, 1, 37, 110
3, 72380, Note_off_c, 1, 37, 100
3, 72384, Note_on_c, 1, 34, 110
3, 72572, Note_off_c, 1, 34, 100
3, 72576, Note_on_c, 1, 39, 110
3, 72764, Note_off_c, 1, 39, 100
3, 72768, Note_on_c, 1, 39, 110
3, 72956, Note_off_c, 1, 39, 100
3, 72960, Note_on_c, 1, 32, 110
3, 73148, Note_off_c, 1, 32, 100
3, 73152, Note_on_c, 1, 36, 110
3, 73340, Note_off_c, 1, 36, 100
3, 73344, Note_on_c, 1, 39, 110
3, 73532, Note_off_c, 1, 39, 100
3, 73536, Note_on_c, 1, 37, 110
3, 73724, Note_off_c, 1, 37, 100
3, 73728, Note_on_c, 1, 36, 110
3, 73916, Note_off_c, 1, 36, 100
3, 73920, Note_on_c, 1, 34, 110
3, 74108, Note_off_c, 1, 34, 100
3, 74112, Note_on_c, 1, 32, 111
3, 74300, Note_off_c, 1, 32, 100
3, 74304, Note_on_c, 1, 36, 112
3, 74492, Note_off_c, 1, 36, 100
3, 74496, Note_on_c, 1, 39, 113
3, 74684, Note_off_c, 1, 39, 100
3, 74688, Note_on_c, 1, 37, 114
3, 74876, Note_off_c, 1, 37, 100
3, 74880, Note_on_c, 1, 36, 115
3, 75068, Note_off_c, 1, 36, 100
3, 75072, Note_on_c, 1, 34, 116
3, 75260, Note_off_c, 1, 34, 100
3, 75264, Note_on_c, 1, 32, 117
3, 75452, Note_off_c, 1, 32, 100
3, 75456, Note_on_c, 1, 36, 118
3, 75644, Note_off_c, 1, 36, 100
3, 75648, Note_on_c, 1, 39, 119
3, 75836, Note_off_c, 1, 39, 100
3, 75840, Note_on_c, 1, 37, 119
3, 76028, Note_off_c, 1, 37, 100
3, 76032, Note_on_c, 1, 36, 120
3, 76220, Note_off_c, 1, 36, 100
3, 76224, Note_on_c, 1, 34, 120
3, 76412, Note_off_c, 1, 34, 100
3, 76416, Note_on_c, 1, 32, 120
3, 76796, Note_off_c, 1, 32, 100
3, 77568, Note_on_c, 1, 32, 80
3, 77948, Note_off_c, 1, 32, 100
3, 77952, Note_on_c, 1, 44, 80
3, 78332, Note_off_c, 1, 44, 100
3, 78720, Note_on_c, 1, 32, 80
3, 79100, Note_off_c, 1, 32, 100
3, 79104, Note_on_c, 1, 44, 80
3, 79484, Note_off_c, 1, 44, 100
3, 79872, Note_on_c, 1, 32, 100
3, 80252, Note_off_c, 1, 32, 100
3, 80256, Note_on_c, 1, 44, 100
3, 80636, Note_off_c, 1, 44, 100
3, 80640, Note_on_c, 1, 32, 100
3, 81020, Note_off_c, 1, 32, 100
3, 81024, Note_on_c, 1, 33, 100
3, 81404, Note_off_c, 1, 33, 100
3, 81408, Note_on_c, 1, 34, 100
3, 81788, Note_off_c, 1, 34, 100
3, 82176, Note_on_c, 1, 34, 80
3, 82556, Note_off_c, 1, 34, 100
3, 82560, Note_on_c, 1, 46, 80
3, 82940, Note_off_c, 1, 46, 100
3, 83328, Note_on_c, 1, 34, 80
3, 83708, Note_off_c, 1, 34, 100
3, 83712, Note_on_c, 1, 46, 80
3, 84092, Note_off_c, 1, 46, 100
3, 84480, Note_on_c, 1, 34, 100
3, 84860, Note_off_c, 1, 34, 100
3, 84864, Note_on_c, 1, 46, 100
3, 85244, Note_off_c, 1, 46, 100
3, 85248, Note_on_c, 1, 34, 100
3, 85628, Note_off_c, 1, 34, 100
3, 85632, Note_on_c, 1, 35, 100
3, 86012, Note_off_c, 1, 35, 100
3, 86016, Note_on_c, 1, 36, 80
3, 86396, Note_off_c, 1, 36, 100
3, 86784, Note_on_c, 1, 36, 80
3, 87164, Note_off_c, 1, 36, 100
3, 87168, Note_on_c, 1, 48, 80
3, 87548, Note_off_c, 1, 48, 100
3, 87936, Note_on_c, 1, 36, 80
3, 88316, Note_off_c, 1, 36, 100
3, 88320, Note_on_c, 1, 48, 80
3, 88700, Note_off_c, 1, 48, 100
3, 89088, Note_on_c, 1, 36, 101
3, 89468, Note_off_c, 1, 36, 100
3, 89472, Note_on_c, 1, 48, 103
3, 89852, Note_off_c, 1, 48, 100
3, 90240, Note_on_c, 1, 36, 106
3, 90620, Note_off_c, 1, 36, 100
3, 90624, Note_on_c, 1, 48, 107
3, 91004, Note_off_c, 1, 48, 100
3, 91392, Note_on_c, 1, 48, 80
3, 91772, Note_off_c, 1, 48, 100
3, 91776, Note_on_c, 1, 60, 80
3, 92156, Note_off_c, 1, 60, 100
3, 92544, Note_on_c, 1, 48, 80
3, 92924, Note_off_c, 1, 48, 100
3, 92928, Note_on_c, 1, 60, 80
3, 93308, Note_off_c, 1, 60, 100
3, 93696, Note_on_c, 1, 48, 80
3, 94076, Note_off_c, 1, 48, 100
3, 94080, Note_on_c, 1, 60, 80
3, 94460, Note_off_c, 1, 60, 100
3, 94848, Note_on_c, 1, 48, 80
3, 95228, Note_off_c, 1, 48, 100
3, 95232, Note_on_c, 1, 60, 80
3, 95612, Note_off_c, 1, 60, 100
3, 96000, Note_on_c, 1, 52, 80
3, 96380, Note_off_c, 1, 52, 100
3, 96384, Note_on_c, 1, 64, 80
3, 96764, Note_off_c, 1, 64, 100
3, 97152, Note_on_c, 1, 52, 80
3, 97532, Note_off_c, 1, 52, 100
3, 97536, Note_on_c, 1, 64, 80
3, 97916, Note_off_c, 1, 64, 100
3, 98304, Note_on_c, 1, 52, 80
3, 98684, Note_off_c, 1, 52, 100
3, 98688, Note_on_c, 1, 64, 80
3, 99068, Note_off_c, 1, 64, 100
3, 99456, Note_on_c, 1, 52, 80
3, 99836, Note_off_c, 1, 52, 100
3, 99840, Note_on_c, 1, 64, 79
3, 100220, Note_off_c, 1, 64, 100
3, 100608, Note_on_c, 1, 55, 77
3, 100988, Note_off_c, 1, 55, 100
3, 100992, Note_on_c, 1, 67, 76
3, 101372, Note_off_c, 1, 67, 100
3, 101760, Note_on_c, 1, 55, 74
3, 102140, Note_off_c, 1, 55, 100
3, 102144, Note_on_c, 1, 67, 73
3, 102524, Note_off_c, 1, 67, 100
3, 102912, Note_on_c, 1, 55, 71
3, 103292, Note_off_c, 1, 55, 100
3, 103296, Note_on_c, 1, 67, 70
3, 103676, Note_off_c, 1, 67, 100
3, 104064, Note_on_c, 1, 55, 68
3, 104444, Note_off_c, 1, 55, 100
3, 104448, Note_on_c, 1, 67, 67
3, 104828, Note_off_c, 1, 67, 100
3, 105600, Note_on_c, 1, 55, 65
3, 105980, Note_off_c, 1, 55, 100
3, 105984, Note_on_c, 1, 67, 65
3, 106364, Note_off_c, 1, 67, 100
3, 106752, Note_on_c, 1, 55, 65
3, 107132, Note_off_c, 1, 55, 100
3, 107136, Note_on_c, 1, 67, 65
3, 107516, Note_off_c, 1, 67, 100
3, 107904, Note_on_c, 1, 55, 65
3, 108284, Note_off_c, 1, 55, 100
3, 108288, Note_on_c, 1, 67, 65
3, 108668, Note_off_c, 1, 67, 100
3, 109056, Note_on_c, 1, 55, 65
3, 109436, Note_off_c, 1, 55, 100
3, 109440, Note_on_c, 1, 56, 110
3, 109628, Note_off_c, 1, 56, 100
3, 109632, Note_on_c, 1, 58, 110
3, 109820, Note_off_c, 1, 58, 100
3, 109824, Note_on_c, 1, 53, 110
3, 109824, Note_on_c, 1, 60, 110
3, 110588, Note_off_c, 1, 60, 100
3, 110592, Note_on_c, 1, 62, 110
3, 110972, Note_off_c, 1, 53, 100
3, 110972, Note_off_c, 1, 62, 100
3, 110976, Note_on_c, 1, 63, 110
3, 110976, Note_on_c, 1, 51, 110
3, 111356, Note_off_c, 1, 63, 100
3, 111356, Note_off_c, 1, 51, 100
3, 111744, Note_on_c, 1, 64, 120
3, 111744, Note_on_c, 1, 52, 120
3, 112508, Note_off_c, 1, 52, 64
3, 112508, Note_off_c, 1, 64, 64
3, 112512, Note_on_c, 1, 65, 110
3, 112512, Note_on_c, 1, 53, 110
3, 112892, Note_off_c, 1, 65, 100
3, 112892, Note_off_c, 1, 53, 100
3, 112896, Note_on_c, 1, 62, 110
3, 112896, Note_on_c, 1, 50, 110
3, 113276, Note_off_c, 1, 62, 100
3, 113276, Note_off_c, 1, 50, 100
3, 113280, Note_on_c, 1, 51, 110
3, 113280, Note_on_c, 1, 63, 110
3, 113660, Note_off_c, 1, 51, 100
3, 113660, Note_off_c, 1, 63, 100
3, 114048, Note_on_c, 1, 49, 110
3, 114236, Note_off_c, 1, 49, 100
3, 114240, Note_on_c, 1, 51, 110
3, 114428, Note_off_c, 1, 51, 100
3, 114432, Note_on_c, 1, 46, 110
3, 114432, Note_on_c, 1, 53, 110
3, 115196, Note_off_c, 1, 53, 100
3, 115200, Note_on_c, 1, 55, 110
3, 115580, Note_off_c, 1, 46, 100
3, 115580, Note_off_c, 1, 55, 100
3, 115584, Note_on_c, 1, 56, 110
3, 115584, Note_on_c, 1, 44, 110
3, 115964, Note_off_c, 1, 56, 100
3, 115964, Note_off_c, 1, 44, 100
3, 116352, Note_on_c, 1, 57, 120
3, 116352, Note_on_c, 1, 45, 120
3, 117116, Note_off_c, 1, 45, 64
3, 117116, Note_off_c, 1, 57, 64
3, 117120, Note_on_c, 1, 58, 110
3, 117120, Note_on_c, 1, 46, 110
3, 117500, Note_off_c, 1, 58, 100
3, 117500, Note_off_c, 1, 46, 100
3, 117504, Note_on_c, 1, 55, 110
3, 117504, Note_on_c, 1, 43, 110
3, 117884, Note_off_c, 1, 55, 100
3, 117884, Note_off_c, 1, 43, 100
3, 117888, Note_on_c, 1, 44, 110
3, 118076, Note_off_c, 1, 44, 100
3, 118080, Note_on_c, 1, 48, 110
3, 118268, Note_off_c, 1, 48, 100
3, 118272, Note_on_c, 1, 49, 110
3, 118460, Note_off_c, 1, 49, 100
3, 118464, Note_on_c, 1, 51, 110
3, 118652, Note_off_c, 1, 51, 100
3, 118656, Note_on_c, 1, 53, 110
3, 118844, Note_off_c, 1, 53, 100
3, 118848, Note_on_c, 1, 55, 110
3, 119036, Note_off_c, 1, 55, 100
3, 119040, Note_on_c, 1, 56, 110
3, 119228, Note_off_c, 1, 56, 100
3, 119232, Note_on_c, 1, 55, 110
3, 119420, Note_off_c, 1, 55, 100
3, 119424, Note_on_c, 1, 56, 110
3, 119612, Note_off_c, 1, 56, 100
3, 119616, Note_on_c, 1, 53, 110
3, 119804, Note_off_c, 1, 53, 100
3, 119808, Note_on_c, 1, 58, 110
3, 119996, Note_off_c, 1, 58, 100
3, 120000, Note_on_c, 1, 56, 110
3, 120188, Note_off_c, 1, 56, 100
3, 120192, Note_on_c, 1, 55, 110
3, 120380, Note_off_c, 1, 55, 100
3, 120384, Note_on_c, 1, 53, 110
3, 120572, Note_off_c, 1, 53, 100
3, 120576, Note_on_c, 1, 51, 110
3, 120764, Note_off_c, 1, 51, 100
3, 120768, Note_on_c, 1, 50, 110
3, 120956, Note_off_c, 1, 50, 100
3, 120960, Note_on_c, 1, 48, 110
3, 121148, Note_off_c, 1, 48, 100
3, 121152, Note_on_c, 1, 46, 110
3, 121340, Note_off_c, 1, 46, 100
3, 121344, Note_on_c, 1, 44, 110
3, 121532, Note_off_c, 1, 44, 100
3, 121536, Note_on_c, 1, 43, 110
3, 121724, Note_off_c, 1, 43, 100
3, 121728, Note_on_c, 1, 44, 110
3, 121916, Note_off_c, 1, 44, 100
3, 121920, Note_on_c, 1, 48, 110
3, 122108, Note_off_c, 1, 48, 100
3, 122112, Note_on_c, 1, 46, 110
3, 122300, Note_off_c, 1, 46, 100
3, 122304, Note_on_c, 1, 44, 110
3, 122492, Note_off_c, 1, 44, 100
3, 122496, Note_on_c, 1, 43, 110
3, 122684, Note_off_c, 1, 43, 100
3, 122688, Note_on_c, 1, 39, 110
3, 122876, Note_off_c, 1, 39, 100
3, 122880, Note_on_c, 1, 43, 110
3, 123068, Note_off_c, 1, 43, 100
3, 123072, Note_on_c, 1, 44, 110
3, 123260, Note_off_c, 1, 44, 100
3, 123264, Note_on_c, 1, 46, 110
3, 123452, Note_off_c, 1, 46, 100
3, 123456, Note_on_c, 1, 48, 110
3, 123644, Note_off_c, 1, 48, 100
3, 123648, Note_on_c, 1, 49, 110
3, 123836, Note_off_c, 1, 49, 100
3, 123840, Note_on_c, 1, 48, 110
3, 124028, Note_off_c, 1, 48, 100
3, 124032, Note_on_c, 1, 49, 110
3, 124220, Note_off_c, 1, 49, 100
3, 124224, Note_on_c, 1, 46, 110
3, 124412, Note_off_c, 1, 46, 100
3, 124416, Note_on_c, 1, 51, 110
3, 124604, Note_off_c, 1, 51, 100
3, 124608, Note_on_c, 1, 49, 110
3, 124796, Note_off_c, 1, 49, 100
3, 124800, Note_on_c, 1, 48, 110
3, 124988, Note_off_c, 1, 48, 100
3, 124992, Note_on_c, 1, 46, 110
3, 125180, Note_off_c, 1, 46, 100
3, 125184, Note_on_c, 1, 44, 110
3, 125372, Note_off_c, 1, 44, 100
3, 125376, Note_on_c, 1, 43, 110
3, 125564, Note_off_c, 1, 43, 100
3, 125568, Note_on_c, 1, 41, 110
3, 125756, Note_off_c, 1, 41, 100
3, 125760, Note_on_c, 1, 39, 110
3, 125948, Note_off_c, 1, 39, 100
3, 125952, Note_on_c, 1, 37, 110
3, 126140, Note_off_c, 1, 37, 100
3, 126144, Note_on_c, 1, 36, 110
3, 126332, Note_off_c, 1, 36, 100
3, 126336, Note_on_c, 1, 37, 110
3, 126524, Note_off_c, 1, 37, 100
3, 126528, Note_on_c, 1, 41, 110
3, 126716, Note_off_c, 1, 41, 100
3, 126720, Note_on_c, 1, 39, 110
3, 126908, Note_off_c, 1, 39, 100
3, 126912, Note_on_c, 1, 37, 110
3, 127100, Note_off_c, 1, 37, 100
3, 127104, Note_on_c, 1, 36, 110
3, 127292, Note_off_c, 1, 36, 100
3, 127296, Note_on_c, 1, 39, 110
3, 127484, Note_off_c, 1, 39, 100
3, 127488, Note_on_c, 1, 44, 110
3, 127676, Note_off_c, 1, 44, 100
3, 127680, Note_on_c, 1, 43, 110
3, 127868, Note_off_c, 1, 43, 100
3, 127872, Note_on_c, 1, 41, 110
3, 128060, Note_off_c, 1, 41, 100
3, 128064, Note_on_c, 1, 41, 110
3, 128252, Note_off_c, 1, 41, 100
3, 128256, Note_on_c, 1, 37, 110
3, 128444, Note_off_c, 1, 37, 100
3, 128448, Note_on_c, 1, 34, 110
3, 128636, Note_off_c, 1, 34, 100
3, 128640, Note_on_c, 1, 37, 110
3, 128828, Note_off_c, 1, 37, 100
3, 128832, Note_on_c, 1, 34, 110
3, 129020, Note_off_c, 1, 34, 100
3, 129024, Note_on_c, 1, 39, 110
3, 129212, Note_off_c, 1, 39, 100
3, 129216, Note_on_c, 1, 37, 110
3, 129404, Note_off_c, 1, 37, 100
3, 129408, Note_on_c, 1, 36, 110
3, 129596, Note_off_c, 1, 36, 100
3, 129600, Note_on_c, 1, 39, 110
3, 129788, Note_off_c, 1, 39, 100
3, 129792, Note_on_c, 1, 44, 110
3, 129980, Note_off_c, 1, 44, 100
3, 129984, Note_on_c, 1, 43, 110
3, 130172, Note_off_c, 1, 43, 100
3, 130176, Note_on_c, 1, 41, 110
3, 130364, Note_off_c, 1, 41, 100
3, 130368, Note_on_c, 1, 39, 110
3, 130556, Note_off_c, 1, 39, 100
3, 130560, Note_on_c, 1, 37, 110
3, 130748, Note_off_c, 1, 37, 100
3, 130752, Note_on_c, 1, 34, 110
3, 130940, Note_off_c, 1, 34, 100
3, 130944, Note_on_c, 1, 37, 110
3, 131132, Note_off_c, 1, 37, 100
3, 131136, Note_on_c, 1, 34, 110
3, 131324, Note_off_c, 1, 34, 100
3, 131328, Note_on_c, 1, 39, 110
3, 131516, Note_off_c, 1, 39, 100
3, 131520, Note_on_c, 1, 39, 110
3, 131708, Note_off_c, 1, 39, 100
3, 131712, Note_on_c, 1, 32, 110
3, 131900, Note_off_c, 1, 32, 100
3, 131904, Note_on_c, 1, 36, 110
3, 132092, Note_off_c, 1, 36, 100
3, 132096, Note_on_c, 1, 39, 110
3, 132284, Note_off_c, 1, 39, 100
3, 132288, Note_on_c, 1, 37, 110
3, 132476, Note_off_c, 1, 37, 100
3, 132480, Note_on_c, 1, 36, 110
3, 132668, Note_off_c, 1, 36, 100
3, 132672, Note_on_c, 1, 34, 110
3, 132860, Note_off_c, 1, 34, 100
3, 132864, Note_on_c, 1, 32, 111
3, 133052, Note_off_c, 1, 32, 100
3, 133056, Note_on_c, 1, 36, 112
3, 133244, Note_off_c, 1, 36, 100
3, 133248, Note_on_c, 1, 39, 113
3, 133436, Note_off_c, 1, 39, 100
3, 133440, Note_on_c, 1, 37, 114
3, 133628, Note_off_c, 1, 37, 100
3, 133632, Note_on_c, 1, 36, 115
3, 133820, Note_off_c, 1, 36, 100
3, 133824, Note_on_c, 1, 34, 116
3, 134012, Note_off_c, 1, 34, 100
3, 134016, Note_on_c, 1, 32, 117
3, 134204, Note_off_c, 1, 32, 100
3, 134208, Note_on_c, 1, 36, 118
3, 134396, Note_off_c, 1, 36, 100
3, 134400, Note_on_c, 1, 39, 119
3, 134588, Note_off_c, 1, 39, 100
3, 134592, Note_on_c, 1, 37, 119
3, 134780, Note_off_c, 1, 37, 100
3, 134784, Note_on_c, 1, 36, 120
3, 134972, Note_off_c, 1, 36, 100
3, 134976, Note_on_c, 1, 34, 120
3, 135164, Note_off_c, 1, 34, 100
3, 135168, Note_on_c, 1, 32, 120
3, 135548, Note_off_c, 1, 32, 100
3, 136320, Key_signature, -5, "major"
3, 136320, Note_on_c, 1, 49, 80
3, 136320, Note_on_c, 1, 37, 80
3, 137084, Note_off_c, 1, 49, 100
3, 137088, Note_on_c, 1, 44, 80
3, 137468, Note_off_c, 1, 37, 100
3, 137468, Note_off_c, 1, 44, 100
3, 137472, Note_on_c, 1, 48, 80
3, 137472, Note_on_c, 1, 36, 80
3, 138236, Note_off_c, 1, 48, 100
3, 138240, Note_on_c, 1, 44, 80
3, 138620, Note_off_c, 1, 36, 100
3, 138620, Note_off_c, 1, 44, 100
3, 138624, Note_on_c, 1, 51, 80
3, 138624, Note_on_c, 1, 39, 80
3, 139388, Note_off_c, 1, 51, 100
3, 139392, Note_on_c, 1, 44, 80
3, 139772, Note_off_c, 1, 39, 100
3, 139772, Note_off_c, 1, 44, 100
3, 139776, Note_on_c, 1, 49, 80
3, 139776, Note_on_c, 1, 37, 80
3, 140540, Note_off_c, 1, 49, 100
3, 140544, Note_on_c, 1, 44, 80
3, 140924, Note_off_c, 1, 37, 100
3, 140924, Note_off_c, 1, 44, 100
3, 140928, Note_on_c, 1, 53, 80
3, 140928, Note_on_c, 1, 41, 80
3, 141692, Note_off_c, 1, 53, 100
3, 141696, Note_on_c, 1, 49, 93
3, 142076, Note_off_c, 1, 41, 100
3, 142076, Note_off_c, 1, 49, 100
3, 142080, Note_on_c, 1, 54, 99
3, 142080, Note_on_c, 1, 42, 99
3, 142080, Note_on_c, 1, 49, 99
3, 142844, Note_off_c, 1, 54, 100
3, 142844, Note_off_c, 1, 42, 100
3, 142844, Note_off_c, 1, 49, 100
3, 142848, Note_on_c, 1, 53, 80
3, 142848, Note_on_c, 1, 41, 80
3, 143228, Note_off_c, 1, 53, 100
3, 143228, Note_off_c, 1, 41, 100
3, 143232, Note_on_c, 1, 54, 80
3, 143232, Note_on_c, 1, 42, 80
3, 143996, Note_off_c, 1, 54, 100
3, 143996, Note_off_c, 1, 42, 100
3, 144000, Note_on_c, 1, 55, 80
3, 144000, Note_on_c, 1, 43, 80
3, 144380, Note_off_c, 1, 55, 100
3, 144380, Note_off_c, 1, 43, 100
3, 144384, Note_on_c, 1, 56, 80
3, 144384, Note_on_c, 1, 44, 80
3, 144764, Note_off_c, 1, 56, 100
3, 144764, Note_off_c, 1, 44, 100
3, 145536, Note_on_c, 1, 49, 80
3, 145536, Note_on_c, 1, 37, 80
3, 146300, Note_off_c, 1, 49, 100
3, 146304, Note_on_c, 1, 44, 80
3, 146684, Note_off_c, 1, 37, 100
3, 146684, Note_off_c, 1, 44, 100
3, 146688, Note_on_c, 1, 48, 80
3, 146688, Note_on_c, 1, 36, 80
3, 147452, Note_off_c, 1, 48, 100
3, 147456, Note_on_c, 1, 44, 80
3, 147836, Note_off_c, 1, 36, 100
3, 147836, Note_off_c, 1, 44, 100
3, 147840, Note_on_c, 1, 51, 80
3, 147840, Note_on_c, 1, 39, 80
3, 148604, Note_off_c, 1, 51, 100
3, 148608, Note_on_c, 1, 44, 80
3, 148988, Note_off_c, 1, 39, 100
3, 148988, Note_off_c, 1, 44, 100
3, 148992, Note_on_c, 1, 49, 80
3, 148992, Note_on_c, 1, 37, 80
3, 149756, Note_off_c, 1, 49, 100
3, 149760, Note_on_c, 1, 44, 80
3, 150140, Note_off_c, 1, 37, 100
3, 150140, Note_off_c, 1, 44, 100
3, 150144, Note_on_c, 1, 53, 80
3, 150144, Note_on_c, 1, 41, 80
3, 150908, Note_off_c, 1, 53, 100
3, 150912, Note_on_c, 1, 49, 93
3, 151292, Note_off_c, 1, 41, 100
3, 151292, Note_off_c, 1, 49, 100
3, 151296, Note_on_c, 1, 54, 99
3, 151296, Note_on_c, 1, 42, 99
3, 151296, Note_on_c, 1, 49, 99
3, 152060, Note_off_c, 1, 54, 100
3, 152060, Note_off_c, 1, 42, 100
3, 152060, Note_off_c, 1, 49, 100
3, 152064, Note_on_c, 1, 53, 80
3, 152064, Note_on_c, 1, 41, 80
3, 152444, Note_off_c, 1, 53, 100
3, 152444, Note_off_c, 1, 41, 100
3, 152448, Note_on_c, 1, 54, 80
3, 152448, Note_on_c, 1, 42, 80
3, 153212, Note_off_c, 1, 54, 100
3, 153212, Note_off_c, 1, 42, 100
3, 153216, Note_on_c, 1, 55, 80
3, 153216, Note_on_c, 1, 43, 80
3, 153596, Note_off_c, 1, 55, 100
3, 153596, Note_off_c, 1, 43, 100
3, 153600, Note_on_c, 1, 56, 80
3, 153600, Note_on_c, 1, 44, 80
3, 153980, Note_off_c, 1, 56, 100
3, 153980, Note_off_c, 1, 44, 100
3, 154752, Note_on_c, 1, 56, 80
3, 154752, Note_on_c, 1, 44, 80
3, 155516, Note_off_c, 1, 56, 100
3, 155520, Note_on_c, 1, 51, 80
3, 155900, Note_off_c, 1, 44, 100
3, 155900, Note_off_c, 1, 51, 100
3, 155904, Note_on_c, 1, 58, 80
3, 155904, Note_on_c, 1, 46, 80
3, 156668, Note_off_c, 1, 58, 100
3, 156672, Note_on_c, 1, 51, 80
3, 157052, Note_off_c, 1, 46, 100
3, 157052, Note_off_c, 1, 51, 100
3, 157056, Note_on_c, 1, 60, 80
3, 157056, Note_on_c, 1, 48, 80
3, 157820, Note_off_c, 1, 60, 100
3, 157824, Note_on_c, 1, 56, 80
3, 158204, Note_off_c, 1, 48, 100
3, 158204, Note_off_c, 1, 56, 100
3, 158208, Note_on_c, 1, 61, 80
3, 158208, Note_on_c, 1, 49, 80
3, 158972, Note_off_c, 1, 61, 100
3, 158976, Note_on_c, 1, 56, 80
3, 159356, Note_off_c, 1, 49, 100
3, 159356, Note_off_c, 1, 56, 100
3, 159360, Note_on_c, 1, 49, 80
3, 159360, Note_on_c, 1, 61, 80
3, 160124, Note_off_c, 1, 61, 100
3, 160128, Note_on_c, 1, 56, 80
3, 160508, Note_off_c, 1, 49, 100
3, 160508, Note_off_c, 1, 56, 100
3, 160512, Note_on_c, 1, 63, 80
3, 160512, Note_on_c, 1, 51, 80
3, 161276, Note_off_c, 1, 63, 100
3, 161280, Note_on_c, 1, 56, 80
3, 161660, Note_off_c, 1, 51, 100
3, 161660, Note_off_c, 1, 56, 100
3, 161664, Note_on_c, 1, 65, 80
3, 161664, Note_on_c, 1, 53, 80
3, 162428, Note_off_c, 1, 65, 100
3, 162432, Note_on_c, 1, 61, 80
3, 162812, Note_off_c, 1, 53, 100
3, 162812, Note_off_c, 1, 61, 100
3, 162816, Note_on_c, 1, 66, 80
3, 162816, Note_on_c, 1, 54, 80
3, 163580, Note_off_c, 1, 66, 100
3, 163584, Note_on_c, 1, 61, 80
3, 163964, Note_off_c, 1, 54, 100
3, 163964, Note_off_c, 1, 61, 100
3, 163968, Note_on_c, 1, 66, 80
3, 163968, Note_on_c, 1, 54, 80
3, 164732, Note_off_c, 1, 66, 100
3, 164736, Note_on_c, 1, 61, 82
3, 165116, Note_off_c, 1, 54, 100
3, 165116, Note_off_c, 1, 61, 100
3, 165120, Note_on_c, 1, 68, 84
3, 165120, Note_on_c, 1, 56, 84
3, 165884, Note_off_c, 1, 68, 100
3, 165888, Note_on_c, 1, 61, 87
3, 166268, Note_off_c, 1, 56, 100
3, 166268, Note_off_c, 1, 61, 100
3, 166272, Note_on_c, 1, 65, 88
3, 166272, Note_on_c, 1, 53, 88
3, 167036, Note_off_c, 1, 65, 100
3, 167040, Note_on_c, 1, 61, 91
3, 167420, Note_off_c, 1, 53, 100
3, 167420, Note_off_c, 1, 61, 100
3, 167424, Note_on_c, 1, 66, 92
3, 167424, Note_on_c, 1, 54, 92
3, 168188, Note_off_c, 1, 66, 100
3, 168192, Note_on_c, 1, 61, 95
3, 168572, Note_off_c, 1, 54, 100
3, 168572, Note_off_c, 1, 61, 100
3, 168576, Note_on_c, 1, 64, 97
3, 168576, Note_on_c, 1, 55, 97
3, 169340, Note_off_c, 1, 64, 100
3, 169344, Note_on_c, 1, 64, 99
3, 169344, Note_on_c, 1, 61, 99
3, 169724, Note_off_c, 1, 55, 100
3, 169724, Note_off_c, 1, 64, 100
3, 169724, Note_off_c, 1, 61, 100
3, 169728, Note_on_c, 1, 65, 80
3, 169728, Note_on_c, 1, 56, 80
3, 170492, Note_off_c, 1, 65, 100
3, 170496, Note_on_c, 1, 61, 80
3, 170876, Note_off_c, 1, 56, 100
3, 170876, Note_off_c, 1, 61, 100
3, 170880, Note_on_c, 1, 44, 80
3, 171648, Note_on_c, 1, 56, 80
3, 172028, Note_off_c, 1, 44, 100
3, 172028, Note_off_c, 1, 56, 100
3, 172032, Note_on_c, 1, 49, 80
3, 172412, Note_off_c, 1, 49, 100
3, 173184, Note_on_c, 1, 56, 80
3, 173184, Note_on_c, 1, 44, 80
3, 173948, Note_off_c, 1, 56, 100
3, 173952, Note_on_c, 1, 51, 80
3, 174332, Note_off_c, 1, 44, 100
3, 174332, Note_off_c, 1, 51, 100
3, 174336, Note_on_c, 1, 58, 80
3, 174336, Note_on_c, 1, 46, 80
3, 175100, Note_off_c, 1, 58, 100
3, 175104, Note_on_c, 1, 51, 80
3, 175484, Note_off_c, 1, 46, 100
3, 175484, Note_off_c, 1, 51, 100
3, 175488, Note_on_c, 1, 60, 80
3, 175488, Note_on_c, 1, 48, 80
3, 176252, Note_off_c, 1, 60, 100
3, 176256, Note_on_c, 1, 56, 80
3, 176636, Note_off_c, 1, 48, 100
3, 176636, Note_off_c, 1, 56, 100
3, 176640, Note_on_c, 1, 61, 80
3, 176640, Note_on_c, 1, 49, 80
3, 177404, Note_off_c, 1, 61, 100
3, 177408, Note_on_c, 1, 56, 80
3, 177788, Note_off_c, 1, 49, 100
3, 177788, Note_off_c, 1, 56, 100
3, 177792, Note_on_c, 1, 49, 80
3, 177792, Note_on_c, 1, 61, 80
3, 178556, Note_off_c, 1, 61, 100
3, 178560, Note_on_c, 1, 56, 80
3, 178940, Note_off_c, 1, 49, 100
3, 178940, Note_off_c, 1, 56, 100
3, 178944, Note_on_c, 1, 63, 80
3, 178944, Note_on_c, 1, 51, 80
3, 179708, Note_off_c, 1, 63, 100
3, 179712, Note_on_c, 1, 56, 80
3, 180092, Note_off_c, 1, 51, 100
3, 180092, Note_off_c, 1, 56, 100
3, 180096, Note_on_c, 1, 65, 80
3, 180096, Note_on_c, 1, 53, 80
3, 180860, Note_off_c, 1, 65, 100
3, 180864, Note_on_c, 1, 61, 80
3, 181244, Note_off_c, 1, 53, 100
3, 181244, Note_off_c, 1, 61, 100
3, 181248, Note_on_c, 1, 66, 80
3, 181248, Note_on_c, 1, 54, 80
3, 182012, Note_off_c, 1, 66, 100
3, 182016, Note_on_c, 1, 61, 80
3, 182396, Note_off_c, 1, 54, 100
3, 182396, Note_off_c, 1, 61, 100
3, 182400, Note_on_c, 1, 66, 80
3, 182400, Note_on_c, 1, 54, 80
3, 183164, Note_off_c, 1, 66, 100
3, 183168, Note_on_c, 1, 61, 82
3, 183548, Note_off_c, 1, 54, 100
3, 183548, Note_off_c, 1, 61, 100
3, 183552, Note_on_c, 1, 68, 84
3, 183552, Note_on_c, 1, 56, 84
3, 184316, Note_off_c, 1, 68, 100
3, 184320, Note_on_c, 1, 61, 87
3, 184700, Note_off_c, 1, 56, 100
3, 184700, Note_off_c, 1, 61, 100
3, 184704, Note_on_c, 1, 65, 88
3, 184704, Note_on_c, 1, 53, 88
3, 185468, Note_off_c, 1, 65, 100
3, 185472, Note_on_c, 1, 61, 91
3, 185852, Note_off_c, 1, 53, 100
3, 185852, Note_off_c, 1, 61, 100
3, 185856, Note_on_c, 1, 66, 92
3, 185856, Note_on_c, 1, 54, 92
3, 186620, Note_off_c, 1, 66, 100
3, 186624, Note_on_c, 1, 61, 95
3, 187004, Note_off_c, 1, 54, 100
3, 187004, Note_off_c, 1, 61, 100
3, 187008, Note_on_c, 1, 64, 97
3, 187008, Note_on_c, 1, 55, 97
3, 187772, Note_off_c, 1, 64, 100
3, 187776, Note_on_c, 1, 64, 99
3, 187776, Note_on_c, 1, 61, 99
3, 188156, Note_off_c, 1, 55, 100
3, 188156, Note_off_c, 1, 64, 100
3, 188156, Note_off_c, 1, 61, 100
3, 188160, Note_on_c, 1, 65, 80
3, 188160, Note_on_c, 1, 56, 80
3, 188924, Note_off_c, 1, 65, 100
3, 188928, Note_on_c, 1, 61, 80
3, 189308, Note_off_c, 1, 56, 100
3, 189308, Note_off_c, 1, 61, 100
3, 189312, Note_on_c, 1, 44, 80
3, 190080, Note_on_c, 1, 56, 80
3, 190460, Note_off_c, 1, 44, 100
3, 190460, Note_off_c, 1, 56, 100
3, 190464, Note_on_c, 1, 49, 80
3, 190844, Note_off_c, 1, 49, 100
3, 191232, Note_on_c, 1, 49, 80
3, 191420, Note_off_c, 1, 49, 100
3, 191424, Note_on_c, 1, 51, 80
3, 191612, Note_off_c, 1, 51, 100
3, 191616, Note_on_c, 1, 53, 80
3, 191616, Note_on_c, 1, 46, 80
3, 192380, Note_off_c, 1, 53, 100
3, 192384, Note_on_c, 1, 55, 80
3, 192764, Note_off_c, 1, 46, 100
3, 192764, Note_off_c, 1, 55, 100
3, 192768, Note_on_c, 1, 44, 80
3, 192768, Note_on_c, 1, 56, 80
3, 193148, Note_off_c, 1, 44, 100
3, 193148, Note_off_c, 1, 56, 100
3, 193536, Note_on_c, 1, 56, 80
3, 193724, Note_off_c, 1, 56, 100
3, 193728, Note_on_c, 1, 58, 80
3, 193916, Note_off_c, 1, 58, 100
3, 193920, Note_on_c, 1, 60, 80
3, 193920, Note_on_c, 1, 53, 80
3, 194684, Note_off_c, 1, 60, 100
3, 194688, Note_on_c, 1, 62, 80
3, 195068, Note_off_c, 1, 53, 100
3, 195068, Note_off_c, 1, 62, 100
3, 195072, Note_on_c, 1, 63, 80
3, 195072, Note_on_c, 1, 51, 80
3, 195452, Note_off_c, 1, 63, 100
3, 195452, Note_off_c, 1, 51, 100
3, 196224, Key_signature, -4, "major"
3, 196224, Note_on_c, 1, 65, 80
3, 197372, Note_off_c, 1, 65, 100
3, 197376, Note_on_c, 1, 63, 80
3, 197756, Note_off_c, 1, 63, 100
3, 198144, Note_on_c, 1, 55, 80
3, 198524, Note_off_c, 1, 55, 100
3, 198528, Note_on_c, 1, 56, 80
3, 198908, Note_off_c, 1, 56, 100
3, 198912, Note_on_c, 1, 53, 80
3, 199292, Note_off_c, 1, 53, 100
3, 199296, Note_on_c, 1, 58, 80
3, 199676, Note_off_c, 1, 58, 100
3, 199680, Note_on_c, 1, 51, 80
3, 200060, Note_off_c, 1, 51, 100
3, 200832, Note_on_c, 1, 70, 80
3, 201980, Note_off_c, 1, 70, 100
3, 201984, Note_on_c, 1, 68, 80
3, 202364, Note_off_c, 1, 68, 100
3, 202752, Note_on_c, 1, 60, 80
3, 203132, Note_off_c, 1, 60, 100
3, 203136, Note_on_c, 1, 61, 80
3, 203516, Note_off_c, 1, 61, 100
3, 203520, Note_on_c, 1, 58, 80
3, 203900, Note_off_c, 1, 58, 100
3, 203904, Note_on_c, 1, 63, 80
3, 204284, Note_off_c, 1, 63, 100
3, 204288, Note_on_c, 1, 56, 80
3, 204668, Note_off_c, 1, 56, 100
3, 205440, Note_on_c, 1, 65, 80
3, 206588, Note_off_c, 1, 65, 100
3, 206592, Note_on_c, 1, 63, 80
3, 206972, Note_off_c, 1, 63, 100
3, 206976, Note_on_c, 1, 65, 80
3, 207356, Note_off_c, 1, 65, 100
3, 207360, Note_on_c, 1, 67, 80
3, 207740, Note_off_c, 1, 67, 100
3, 207744, Note_on_c, 1, 56, 80
3, 208124, Note_off_c, 1, 56, 100
3, 208128, Note_on_c, 1, 53, 80
3, 208508, Note_off_c, 1, 53, 100
3, 208512, Note_on_c, 1, 58, 80
3, 208892, Note_off_c, 1, 58, 100
3, 208896, Note_on_c, 1, 51, 80
3, 209276, Note_off_c, 1, 51, 100
3, 210048, Note_on_c, 1, 70, 80
3, 211196, Note_off_c, 1, 70, 100
3, 211200, Note_on_c, 1, 68, 80
3, 211580, Note_off_c, 1, 68, 100
3, 211584, Note_on_c, 1, 70, 80
3, 211964, Note_off_c, 1, 70, 100
3, 211968, Note_on_c, 1, 72, 80
3, 212348, Note_off_c, 1, 72, 100
3, 212352, Note_on_c, 1, 61, 80
3, 212732, Note_off_c, 1, 61, 100
3, 212736, Note_on_c, 1, 58, 80
3, 213116, Note_off_c, 1, 58, 100
3, 213120, Note_on_c, 1, 63, 80
3, 213500, Note_off_c, 1, 63, 100
3, 213504, Note_on_c, 1, 56, 80
3, 213884, Note_off_c, 1, 56, 100
3, 214656, Note_on_c, 1, 32, 80
3, 215036, Note_off_c, 1, 32, 100
3, 215040, Note_on_c, 1, 44, 80
3, 215420, Note_off_c, 1, 44, 100
3, 215808, Note_on_c, 1, 32, 80
3, 216188, Note_off_c, 1, 32, 100
3, 216192, Note_on_c, 1, 44, 80
3, 216572, Note_off_c, 1, 44, 100
3, 216960, Note_on_c, 1, 32, 100
3, 217340, Note_off_c, 1, 32, 100
3, 217344, Note_on_c, 1, 44, 100
3, 217724, Note_off_c, 1, 44, 100
3, 217728, Note_on_c, 1, 32, 100
3, 218108, Note_off_c, 1, 32, 100
3, 218112, Note_on_c, 1, 33, 100
3, 218492, Note_off_c, 1, 33, 100
3, 218496, Note_on_c, 1, 34, 100
3, 218876, Note_off_c, 1, 34, 100
3, 219264, Note_on_c, 1, 34, 80
3, 219644, Note_off_c, 1, 34, 100
3, 219648, Note_on_c, 1, 46, 80
3, 220028, Note_off_c, 1, 46, 100
3, 220416, Note_on_c, 1, 34, 80
3, 220796, Note_off_c, 1, 34, 100
3, 220800, Note_on_c, 1, 46, 80
3, 221180, Note_off_c, 1, 46, 100
3, 221568, Note_on_c, 1, 34, 100
3, 221948, Note_off_c, 1, 34, 100
3, 221952, Note_on_c, 1, 46, 100
3, 222332, Note_off_c, 1, 46, 100
3, 222336, Note_on_c, 1, 34, 100
3, 222716, Note_off_c, 1, 34, 100
3, 222720, Note_on_c, 1, 35, 100
3, 223100, Note_off_c, 1, 35, 100
3, 223104, Note_on_c, 1, 36, 80
3, 223484, Note_off_c, 1, 36, 100
3, 223872, Note_on_c, 1, 36, 80
3, 224252, Note_off_c, 1, 36, 100
3, 224256, Note_on_c, 1, 48, 80
3, 224636, Note_off_c, 1, 48, 100
3, 225024, Note_on_c, 1, 36, 80
3, 225404, Note_off_c, 1, 36, 100
3, 225408, Note_on_c, 1, 48, 80
3, 225788, Note_off_c, 1, 48, 100
3, 226176, Note_on_c, 1, 36, 101
3, 226556, Note_off_c, 1, 36, 100
3, 226560, Note_on_c, 1, 48, 103
3, 226940, Note_off_c, 1, 48, 100
3, 227328, Note_on_c, 1, 36, 106
3, 227708, Note_off_c, 1, 36, 100
3, 227712, Note_on_c, 1, 48, 107
3, 228092, Note_off_c, 1, 48, 100
3, 228480, Note_on_c, 1, 48, 80
3, 228860, Note_off_c, 1, 48, 100
3, 228864, Note_on_c, 1, 60, 80
3, 229244, Note_off_c, 1, 60, 100
3, 229632, Note_on_c, 1, 48, 80
3, 230012, Note_off_c, 1, 48, 100
3, 230016, Note_on_c, 1, 60, 80
3, 230396, Note_off_c, 1, 60, 100
3, 230784, Note_on_c, 1, 48, 80
3, 231164, Note_off_c, 1, 48, 100
3, 231168, Note_on_c, 1, 60, 80
3, 231548, Note_off_c, 1, 60, 100
3, 231936, Note_on_c, 1, 48, 80
3, 232316, Note_off_c, 1, 48, 100
3, 232320, Note_on_c, 1, 60, 80
3, 232700, Note_off_c, 1, 60, 100
3, 233088, Note_on_c, 1, 52, 80
3, 233468, Note_off_c, 1, 52, 100
3, 233472, Note_on_c, 1, 64, 80
3, 233852, Note_off_c, 1, 64, 100
3, 234240, Note_on_c, 1, 52, 80
3, 234620, Note_off_c, 1, 52, 100
3, 234624, Note_on_c, 1, 64, 80
3, 235004, Note_off_c, 1, 64, 100
3, 235392, Note_on_c, 1, 52, 80
3, 235772, Note_off_c, 1, 52, 100
3, 235776, Note_on_c, 1, 64, 80
3, 236156, Note_off_c, 1, 64, 100
3, 236544, Note_on_c, 1, 52, 80
3, 236924, Note_off_c, 1, 52, 100
3, 236928, Note_on_c, 1, 64, 79
3, 237308, Note_off_c, 1, 64, 100
3, 237696, Note_on_c, 1, 55, 77
3, 238076, Note_off_c, 1, 55, 100
3, 238080, Note_on_c, 1, 67, 76
3, 238460, Note_off_c, 1, 67, 100
3, 238848, Note_on_c, 1, 55, 74
3, 239228, Note_off_c, 1, 55, 100
3, 239232, Note_on_c, 1, 67, 73
3, 239612, Note_off_c, 1, 67, 100
3, 240000, Note_on_c, 1, 55, 71
3, 240380, Note_off_c, 1, 55, 100
3, 240384, Note_on_c, 1, 67, 70
3, 240764, Note_off_c, 1, 67, 100
3, 241152, Note_on_c, 1, 55, 68
3, 241532, Note_off_c, 1, 55, 100
3, 241536, Note_on_c, 1, 67, 67
3, 241916, Note_off_c, 1, 67, 100
3, 242688, Note_on_c, 1, 55, 65
3, 243068, Note_off_c, 1, 55, 100
3, 243072, Note_on_c, 1, 67, 65
3, 243452, Note_off_c, 1, 67, 100
3, 243840, Note_on_c, 1, 55, 65
3, 244220, Note_off_c, 1, 55, 100
3, 244224, Note_on_c, 1, 67, 65
3, 244604, Note_off_c, 1, 67, 100
3, 244992, Note_on_c, 1, 55, 65
3, 245372, Note_off_c, 1, 55, 100
3, 245376, Note_on_c, 1, 67, 65
3, 245756, Note_off_c, 1, 67, 100
3, 246144, Note_on_c, 1, 55, 65
3, 246524, Note_off_c, 1, 55, 100
3, 246528, Note_on_c, 1, 56, 110
3, 246716, Note_off_c, 1, 56, 100
3, 246720, Note_on_c, 1, 58, 110
3, 246908, Note_off_c, 1, 58, 100
3, 246912, Note_on_c, 1, 53, 110
3, 246912, Note_on_c, 1, 60, 110
3, 247676, Note_off_c, 1, 60, 100
3, 247680, Note_on_c, 1, 62, 110
3, 248060, Note_off_c, 1, 53, 100
3, 248060, Note_off_c, 1, 62, 100
3, 248064, Note_on_c, 1, 63, 110
3, 248064, Note_on_c, 1, 51, 110
3, 248444, Note_off_c, 1, 63, 100
3, 248444, Note_off_c, 1, 51, 100
3, 248832, Note_on_c, 1, 64, 120
3, 248832, Note_on_c, 1, 52, 120
3, 249596, Note_off_c, 1, 52, 64
3, 249596, Note_off_c, 1, 64, 64
3, 249600, Note_on_c, 1, 65, 110
3, 249600, Note_on_c, 1, 53, 110
3, 249980, Note_off_c, 1, 65, 100
3, 249980, Note_off_c, 1, 53, 100
3, 249984, Note_on_c, 1, 62, 110
3, 249984, Note_on_c, 1, 50, 110
3, 250364, Note_off_c, 1, 62, 100
3, 250364, Note_off_c, 1, 50, 100
3, 250368, Note_on_c, 1, 51, 110
3, 250368, Note_on_c, 1, 63, 110
3, 250748, Note_off_c, 1, 51, 100
3, 250748, Note_off_c, 1, 63, 100
3, 251136, Note_on_c, 1, 49, 110
3, 251324, Note_off_c, 1, 49, 100
3, 251328, Note_on_c, 1, 51, 110
3, 251516, Note_off_c, 1, 51, 100
3, 251520, Note_on_c, 1, 46, 110
3, 251520, Note_on_c, 1, 53, 110
3, 252284, Note_off_c, 1, 53, 100
3, 252288, Note_on_c, 1, 55, 110
3, 252668, Note_off_c, 1, 46, 100
3, 252668, Note_off_c, 1, 55, 100
3, 252672, Note_on_c, 1, 56, 110
3, 252672, Note_on_c, 1, 44, 110
3, 253052, Note_off_c, 1, 56, 100
3, 253052, Note_off_c, 1, 44, 100
3, 253440, Note_on_c, 1, 57, 120
3, 253440, Note_on_c, 1, 45, 120
3, 254204, Note_off_c, 1, 45, 64
3, 254204, Note_off_c, 1, 57, 64
3, 254208, Note_on_c, 1, 58, 110
3, 254208, Note_on_c, 1, 46, 110
3, 254588, Note_off_c, 1, 58, 100
3, 254588, Note_off_c, 1, 46, 100
3, 254592, Note_on_c, 1, 55, 110
3, 254592, Note_on_c, 1, 43, 110
3, 254972, Note_off_c, 1, 55, 100
3, 254972, Note_off_c, 1, 43, 100
3, 254976, Note_on_c, 1, 44, 110
3, 255164, Note_off_c, 1, 44, 100
3, 255168, Note_on_c, 1, 48, 110
3, 255356, Note_off_c, 1, 48, 100
3, 255360, Note_on_c, 1, 49, 110
3, 255548, Note_off_c, 1, 49, 100
3, 255552, Note_on_c, 1, 51, 110
3, 255740, Note_off_c, 1, 51, 100
3, 255744, Note_on_c, 1, 53, 110
3, 255932, Note_off_c, 1, 53, 100
3, 255936, Note_on_c, 1, 55, 110
3, 256124, Note_off_c, 1, 55, 100
3, 256128, Note_on_c, 1, 56, 110
3, 256316, Note_off_c, 1, 56, 100
3, 256320, Note_on_c, 1, 55, 110
3, 256508, Note_off_c, 1, 55, 100
3, 256512, Note_on_c, 1, 56, 110
3, 256700, Note_off_c, 1, 56, 100
3, 256704, Note_on_c, 1, 53, 110
3, 256892, Note_off_c, 1, 53, 100
3, 256896, Note_on_c, 1, 58, 110
3, 257084, Note_off_c, 1, 58, 100
3, 257088, Note_on_c, 1, 56, 110
3, 257276, Note_off_c, 1, 56, 100
3, 257280, Note_on_c, 1, 55, 110
3, 257468, Note_off_c, 1, 55, 100
3, 257472, Note_on_c, 1, 53, 110
3, 257660, Note_off_c, 1, 53, 100
3, 257664, Note_on_c, 1, 51, 110
3, 257852, Note_off_c, 1, 51, 100
3, 257856, Note_on_c, 1, 50, 110
3, 258044, Note_off_c, 1, 50, 100
3, 258048, Note_on_c, 1, 48, 110
3, 258236, Note_off_c, 1, 48, 100
3, 258240, Note_on_c, 1, 46, 110
3, 258428, Note_off_c, 1, 46, 100
3, 258432, Note_on_c, 1, 44, 110
3, 258620, Note_off_c, 1, 44, 100
3, 258624, Note_on_c, 1, 43, 110
3, 258812, Note_off_c, 1, 43, 100
3, 258816, Note_on_c, 1, 44, 110
3, 259004, Note_off_c, 1, 44, 100
3, 259008, Note_on_c, 1, 48, 110
3, 259196, Note_off_c, 1, 48, 100
3, 259200, Note_on_c, 1, 46, 110
3, 259388, Note_off_c, 1, 46, 100
3, 259392, Note_on_c, 1, 44, 110
3, 259580, Note_off_c, 1, 44, 100
3, 259584, Note_on_c, 1, 43, 110
3, 259772, Note_off_c, 1, 43, 100
3, 259776, Note_on_c, 1, 39, 110
3, 259964, Note_off_c, 1, 39, 100
3, 259968, Note_on_c, 1, 43, 110
3, 260156, Note_off_c, 1, 43, 100
3, 260160, Note_on_c, 1, 44, 110
3, 260348, Note_off_c, 1, 44, 100
3, 260352, Note_on_c, 1, 46, 110
3, 260540, Note_off_c, 1, 46, 100
3, 260544, Note_on_c, 1, 48, 110
3, 260732, Note_off_c, 1, 48, 100
3, 260736, Note_on_c, 1, 49, 110
3, 260924, Note_off_c, 1, 49, 100
3, 260928, Note_on_c, 1, 48, 110
3, 261116, Note_off_c, 1, 48, 100
3, 261120, Note_on_c, 1, 49, 110
3, 261308, Note_off_c, 1, 49, 100
3, 261312, Note_on_c, 1, 46, 110
3, 261500, Note_off_c, 1, 46, 100
3, 261504, Note_on_c, 1, 51, 110
3, 261692, Note_off_c, 1, 51, 100
3, 261696, Note_on_c, 1, 49, 110
3, 261884, Note_off_c, 1, 49, 100
3, 261888, Note_on_c, 1, 48, 110
3, 262076, Note_off_c, 1, 48, 100
3, 262080, Note_on_c, 1, 46, 110
3, 262268, Note_off_c, 1, 46, 100
3, 262272, Note_on_c, 1, 44, 110
3, 262460, Note_off_c, 1, 44, 100
3, 262464, Note_on_c, 1, 43, 110
3, 262652, Note_off_c, 1, 43, 100
3, 262656, Note_on_c, 1, 41, 110
3, 262844, Note_off_c, 1, 41, 100
3, 262848, Note_on_c, 1, 39, 110
3, 263036, Note_off_c, 1, 39, 100
3, 263040, Note_on_c, 1, 37, 110
3, 263228, Note_off_c, 1, 37, 100
3, 263232, Note_on_c, 1, 36, 110
3, 263420, Note_off_c, 1, 36, 100
3, 263424, Note_on_c, 1, 37, 110
3, 263612, Note_off_c, 1, 37, 100
3, 263616, Note_on_c, 1, 41, 110
3, 263804, Note_off_c, 1, 41, 100
3, 263808, Note_on_c, 1, 39, 110
3, 263996, Note_off_c, 1, 39, 100
3, 264000, Note_on_c, 1, 37, 110
3, 264188, Note_off_c, 1, 37, 100
3, 264192, Note_on_c, 1, 36, 110
3, 264380, Note_off_c, 1, 36, 100
3, 264384, Note_on_c, 1, 39, 110
3, 264572, Note_off_c, 1, 39, 100
3, 264576, Note_on_c, 1, 44, 110
3, 264764, Note_off_c, 1, 44, 100
3, 264768, Note_on_c, 1, 43, 110
3, 264956, Note_off_c, 1, 43, 100
3, 264960, Note_on_c, 1, 41, 110
3, 265148, Note_off_c, 1, 41, 100
3, 265152, Note_on_c, 1, 41, 110
3, 265340, Note_off_c, 1, 41, 100
3, 265344, Note_on_c, 1, 37, 110
3, 265532, Note_off_c, 1, 37, 100
3, 265536, Note_on_c, 1, 34, 110
3, 265724, Note_off_c, 1, 34, 100
3, 265728, Note_on_c, 1, 37, 110
3, 265916, Note_off_c, 1, 37, 100
3, 265920, Note_on_c, 1, 34, 110
3, 266108, Note_off_c, 1, 34, 100
3, 266112, Note_on_c, 1, 39, 110
3, 266300, Note_off_c, 1, 39, 100
3, 266304, Note_on_c, 1, 37, 110
3, 266492, Note_off_c, 1, 37, 100
3, 266496, Note_on_c, 1, 36, 110
3, 266684, Note_off_c, 1, 36, 100
3, 266688, Note_on_c, 1, 39, 110
3, 266876, Note_off_c, 1, 39, 100
3, 266880, Note_on_c, 1, 44, 110
3, 267068, Note_off_c, 1, 44, 100
3, 267072, Note_on_c, 1, 43, 110
3, 267260, Note_off_c, 1, 43, 100
3, 267264, Note_on_c, 1, 41, 110
3, 267452, Note_off_c, 1, 41, 100
3, 267456, Note_on_c, 1, 39, 110
3, 267644, Note_off_c, 1, 39, 100
3, 267648, Note_on_c, 1, 37, 110
3, 267836, Note_off_c, 1, 37, 100
3, 267840, Note_on_c, 1, 34, 110
3, 268028, Note_off_c, 1, 34, 100
3, 268032, Note_on_c, 1, 37, 110
3, 268220, Note_off_c, 1, 37, 100
3, 268224, Note_on_c, 1, 34, 110
3, 268412, Note_off_c, 1, 34, 100
3, 268416, Note_on_c, 1, 39, 110
3, 268604, Note_off_c, 1, 39, 100
3, 268608, Note_on_c, 1, 39, 110
3, 268796, Note_off_c, 1, 39, 100
3, 268800, Note_on_c, 1, 32, 110
3, 268988, Note_off_c, 1, 32, 100
3, 268992, Note_on_c, 1, 36, 110
3, 269180, Note_off_c, 1, 36, 100
3, 269184, Note_on_c, 1, 39, 110
3, 269372, Note_off_c, 1, 39, 100
3, 269376, Note_on_c, 1, 37, 110
3, 269564, Note_off_c, 1, 37, 100
3, 269568, Note_on_c, 1, 36, 110
3, 269756, Note_off_c, 1, 36, 100
3, 269760, Note_on_c, 1, 34, 110
3, 269948, Note_off_c, 1, 34, 100
3, 269952, Note_on_c, 1, 32, 111
3, 270140, Note_off_c, 1, 32, 100
3, 270144, Note_on_c, 1, 36, 112
3, 270332, Note_off_c, 1, 36, 100
3, 270336, Note_on_c, 1, 39, 113
3, 270524, Note_off_c, 1, 39, 100
3, 270528, Note_on_c, 1, 37, 114
3, 270716, Note_off_c, 1, 37, 100
3, 270720, Note_on_c, 1, 36, 115
3, 270908, Note_off_c, 1, 36, 100
3, 270912, Note_on_c, 1, 34, 116
3, 271100, Note_off_c, 1, 34, 100
3, 271104, Note_on_c, 1, 32, 117
3, 271292, Note_off_c, 1, 32, 100
3, 271296, Note_on_c, 1, 36, 118
3, 271484, Note_off_c, 1, 36, 100
3, 271488, Note_on_c, 1, 39, 119
3, 271676, Note_off_c, 1, 39, 100
3, 271680, Note_on_c, 1, 37, 119
3, 271868, Note_off_c, 1, 37, 100
3, 271872, Note_on_c, 1, 36, 120
3, 272060, Note_off_c, 1, 36, 100
3, 272064, Note_on_c, 1, 34, 120
3, 272252, Note_off_c, 1, 34, 100
3, 272256, Note_on_c, 1, 32, 120
3, 272636, Note_off_c, 1, 32, 100
3, 273408, Note_on_c, 1, 32, 80
3, 273788, Note_off_c, 1, 32, 100
3, 273792, Note_on_c, 1, 44, 80
3, 274172, Note_off_c, 1, 44, 100
3, 274560, Note_on_c, 1, 32, 80
3, 274940, Note_off_c, 1, 32, 100
3, 274944, Note_on_c, 1, 44, 80
3, 275324, Note_off_c, 1, 44, 100
3, 275712, Note_on_c, 1, 32, 100
3, 276092, Note_off_c, 1, 32, 100
3, 276096, Note_on_c, 1, 44, 100
3, 276476, Note_off_c, 1, 44, 100
3, 276480, Note_on_c, 1, 32, 100
3, 276860, Note_off_c, 1, 32, 100
3, 276864, Note_on_c, 1, 33, 100
3, 277244, Note_off_c, 1, 33, 100
3, 277248, Note_on_c, 1, 34, 100
3, 277628, Note_off_c, 1, 34, 100
3, 278016, Note_on_c, 1, 34, 80
3, 278396, Note_off_c, 1, 34, 100
3, 278400, Note_on_c, 1, 46, 80
3, 278780, Note_off_c, 1, 46, 100
3, 279168, Note_on_c, 1, 34, 80
3, 279548, Note_off_c, 1, 34, 100
3, 279552, Note_on_c, 1, 46, 80
3, 279932, Note_off_c, 1, 46, 100
3, 280320, Note_on_c, 1, 34, 100
3, 280700, Note_off_c, 1, 34, 100
3, 280704, Note_on_c, 1, 46, 100
3, 281084, Note_off_c, 1, 46, 100
3, 281088, Note_on_c, 1, 34, 100
3, 281468, Note_off_c, 1, 34, 100
3, 281472, Note_on_c, 1, 35, 100
3, 281852, Note_off_c, 1, 35, 100
3, 281856, Note_on_c, 1, 36, 80
3, 282236, Note_off_c, 1, 36, 100
3, 282624, Note_on_c, 1, 36, 80
3, 283004, Note_off_c, 1, 36, 100
3, 283008, Note_on_c, 1, 48, 80
3, 283388, Note_off_c, 1, 48, 100
3, 283776, Note_on_c, 1, 36, 80
3, 284156, Note_off_c, 1, 36, 100
3, 284160, Note_on_c, 1, 48, 80
3, 284540, Note_off_c, 1, 48, 100
3, 284928, Note_on_c, 1, 36, 101
3, 285308, Note_off_c, 1, 36, 100
3, 285312, Note_on_c, 1, 48, 103
3, 285692, Note_off_c, 1, 48, 100
3, 286080, Note_on_c, 1, 36, 106
3, 286460, Note_off_c, 1, 36, 100
3, 286464, Note_on_c, 1, 48, 107
3, 286844, Note_off_c, 1, 48, 100
3, 287232, Note_on_c, 1, 48, 80
3, 287612, Note_off_c, 1, 48, 100
3, 287616, Note_on_c, 1, 60, 80
3, 287996, Note_off_c, 1, 60, 100
3, 288384, Note_on_c, 1, 48, 80
3, 288764, Note_off_c, 1, 48, 100
3, 288768, Note_on_c, 1, 60, 80
3, 289148, Note_off_c, 1, 60, 100
3, 289536, Note_on_c, 1, 48, 80
3, 289916, Note_off_c, 1, 48, 100
3, 289920, Note_on_c, 1, 60, 80
3, 290300, Note_off_c, 1, 60, 100
3, 290688, Note_on_c, 1, 48, 80
3, 291068, Note_off_c, 1, 48, 100
3, 291072, Note_on_c, 1, 60, 80
3, 291452, Note_off_c, 1, 60, 100
3, 291840, Note_on_c, 1, 52, 80
3, 292220, Note_off_c, 1, 52, 100
3, 292224, Note_on_c, 1, 64, 80
3, 292604, Note_off_c, 1, 64, 100
3, 292992, Note_on_c, 1, 52, 80
3, 293372, Note_off_c, 1, 52, 100
3, 293376, Note_on_c, 1, 64, 80
3, 293756, Note_off_c, 1, 64, 100
3, 294144, Note_on_c, 1, 52, 80
3, 294524, Note_off_c, 1, 52, 100
3, 294528, Note_on_c, 1, 64, 80
3, 294908, Note_off_c, 1, 64, 100
3, 295296, Note_on_c, 1, 52, 80
3, 295676, Note_off_c, 1, 52, 100
3, 295680, Note_on_c, 1, 64, 79
3, 296060, Note_off_c, 1, 64, 100
3, 296448, Note_on_c, 1, 55, 77
3, 296828, Note_off_c, 1, 55, 100
3, 296832, Note_on_c, 1, 67, 76
3, 297212, Note_off_c, 1, 67, 100
3, 297600, Note_on_c, 1, 55, 74
3, 297980, Note_off_c, 1, 55, 100
3, 297984, Note_on_c, 1, 67, 73
3, 298364, Note_off_c, 1, 67, 100
3, 298752, Note_on_c, 1, 55, 71
3, 299132, Note_off_c, 1, 55, 100
3, 299136, Note_on_c, 1, 67, 70
3, 299516, Note_off_c, 1, 67, 100
3, 299904, Note_on_c, 1, 55, 68
3, 300284, Note_off_c, 1, 55, 100
3, 300288, Note_on_c, 1, 67, 67
3, 300668, Note_off_c, 1, 67, 100
3, 301440, Note_on_c, 1, 55, 65
3, 301820, Note_off_c, 1, 55, 100
3, 301824, Note_on_c, 1, 67, 65
3, 302204, Note_off_c, 1, 67, 100
3, 302592, Note_on_c, 1, 55, 65
3, 302972, Note_off_c, 1, 55, 100
3, 302976, Note_on_c, 1, 67, 65
3, 303356, Note_off_c, 1, 67, 100
3, 303744, Note_on_c, 1, 55, 65
3, 304124, Note_off_c, 1, 55, 100
3, 304128, Note_on_c, 1, 67, 65
3, 304508, Note_off_c, 1, 67, 100
3, 304896, Note_on_c, 1, 55, 65
3, 305276, Note_off_c, 1, 55, 100
3, 305280, Note_on_c, 1, 56, 110
3, 305468, Note_off_c, 1, 56, 100
3, 305472, Note_on_c, 1, 58, 110
3, 305660, Note_off_c, 1, 58, 100
3, 305664, Note_on_c, 1, 53, 110
3, 305664, Note_on_c, 1, 60, 110
3, 306428, Note_off_c, 1, 60, 100
3, 306432, Note_on_c, 1, 62, 110
3, 306812, Note_off_c, 1, 53, 100
3, 306812, Note_off_c, 1, 62, 100
3, 306816, Note_on_c, 1, 63, 110
3, 306816, Note_on_c, 1, 51, 110
3, 307196, Note_off_c, 1, 63, 100
3, 307196, Note_off_c, 1, 51, 100
3, 307584, Note_on_c, 1, 64, 120
3, 307584, Note_on_c, 1, 52, 120
3, 308348, Note_off_c, 1, 52, 64
3, 308348, Note_off_c, 1, 64, 64
3, 308352, Note_on_c, 1, 65, 110
3, 308352, Note_on_c, 1, 53, 110
3, 308732, Note_off_c, 1, 65, 100
3, 308732, Note_off_c, 1, 53, 100
3, 308736, Note_on_c, 1, 62, 110
3, 308736, Note_on_c, 1, 50, 110
3, 309116, Note_off_c, 1, 62, 100
3, 309116, Note_off_c, 1, 50, 100
3, 309120, Note_on_c, 1, 51, 110
3, 309120, Note_on_c, 1, 63, 110
3, 309500, Note_off_c, 1, 51, 100
3, 309500, Note_off_c, 1, 63, 100
3, 309888, Note_on_c, 1, 49, 110
3, 310076, Note_off_c, 1, 49, 100
3, 310080, Note_on_c, 1, 51, 110
3, 310268, Note_off_c, 1, 51, 100
3, 310272, Note_on_c, 1, 46, 110
3, 310272, Note_on_c, 1, 53, 110
3, 311036, Note_off_c, 1, 53, 100
3, 311040, Note_on_c, 1, 55, 110
3, 311420, Note_off_c, 1, 46, 100
3, 311420, Note_off_c, 1, 55, 100
3, 311424, Note_on_c, 1, 56, 110
3, 311424, Note_on_c, 1, 44, 110
3, 311804, Note_off_c, 1, 56, 100
3, 311804, Note_off_c, 1, 44, 100
3, 312192, Note_on_c, 1, 57, 120
3, 312192, Note_on_c, 1, 45, 120
3, 312956, Note_off_c, 1, 45, 64
3, 312956, Note_off_c, 1, 57, 64
3, 312960, Note_on_c, 1, 58, 110
3, 312960, Note_on_c, 1, 46, 110
3, 313340, Note_off_c, 1, 58, 100
3, 313340, Note_off_c, 1, 46, 100
3, 313344, Note_on_c, 1, 55, 110
3, 313344, Note_on_c, 1, 43, 110
3, 313724, Note_off_c, 1, 55, 100
3, 313724, Note_off_c, 1, 43, 100
3, 313728, Note_on_c, 1, 44, 110
3, 313916, Note_off_c, 1, 44, 100
3, 313920, Note_on_c, 1, 48, 110
3, 314108, Note_off_c, 1, 48, 100
3, 314112, Note_on_c, 1, 49, 110
3, 314300, Note_off_c, 1, 49, 100
3, 314304, Note_on_c, 1, 51, 110
3, 314492, Note_off_c, 1, 51, 100
3, 314496, Note_on_c, 1, 53, 110
3, 314684, Note_off_c, 1, 53, 100
3, 314688, Note_on_c, 1, 55, 110
3, 314876, Note_off_c, 1, 55, 100
3, 314880, Note_on_c, 1, 56, 110
3, 315068, Note_off_c, 1, 56, 100
3, 315072, Note_on_c, 1, 55, 110
3, 315260, Note_off_c, 1, 55, 100
3, 315264, Note_on_c, 1, 56, 110
3, 315452, Note_off_c, 1, 56, 100
3, 315456, Note_on_c, 1, 53, 110
3, 315644, Note_off_c, 1, 53, 100
3, 315648, Note_on_c, 1, 58, 110
3, 315836, Note_off_c, 1, 58, 100
3, 315840, Note_on_c, 1, 56, 110
3, 316028, Note_off_c, 1, 56, 100
3, 316032, Note_on_c, 1, 55, 110
3, 316220, Note_off_c, 1, 55, 100
3, 316224, Note_on_c, 1, 53, 110
3, 316412, Note_off_c, 1, 53, 100
3, 316416, Note_on_c, 1, 51, 110
3, 316604, Note_off_c, 1, 51, 100
3, 316608, Note_on_c, 1, 50, 110
3, 316796, Note_off_c, 1, 50, 100
3, 316800, Note_on_c, 1, 48, 110
3, 316988, Note_off_c, 1, 48, 100
3, 316992, Note_on_c, 1, 46, 110
3, 317180, Note_off_c, 1, 46, 100
3, 317184, Note_on_c, 1, 44, 110
3, 317372, Note_off_c, 1, 44, 100
3, 317376, Note_on_c, 1, 43, 110
3, 317564, Note_off_c, 1, 43, 100
3, 317568, Note_on_c, 1, 44, 110
3, 317756, Note_off_c, 1, 44, 100
3, 317760, Note_on_c, 1, 48, 110
3, 317948, Note_off_c, 1, 48, 100
3, 317952, Note_on_c, 1, 46, 110
3, 318140, Note_off_c, 1, 46, 100
3, 318144, Note_on_c, 1, 44, 110
3, 318332, Note_off_c, 1, 44, 100
3, 318336, Note_on_c, 1, 43, 110
3, 318524, Note_off_c, 1, 43, 100
3, 318528, Note_on_c, 1, 39, 110
3, 318716, Note_off_c, 1, 39, 100
3, 318720, Note_on_c, 1, 43, 110
3, 318908, Note_off_c, 1, 43, 100
3, 318912, Note_on_c, 1, 44, 110
3, 319100, Note_off_c, 1, 44, 100
3, 319104, Note_on_c, 1, 46, 110
3, 319292, Note_off_c, 1, 46, 100
3, 319296, Note_on_c, 1, 48, 110
3, 319484, Note_off_c, 1, 48, 100
3, 319488, Note_on_c, 1, 49, 110
3, 319676, Note_off_c, 1, 49, 100
3, 319680, Note_on_c, 1, 48, 110
3, 319868, Note_off_c, 1, 48, 100
3, 319872, Note_on_c, 1, 49, 110
3, 320060, Note_off_c, 1, 49, 100
3, 320064, Note_on_c, 1, 46, 110
3, 320252, Note_off_c, 1, 46, 100
3, 320256, Note_on_c, 1, 51, 110
3, 320444, Note_off_c, 1, 51, 100
3, 320448, Note_on_c, 1, 49, 110
3, 320636, Note_off_c, 1, 49, 100
3, 320640, Note_on_c, 1, 48, 110
3, 320828, Note_off_c, 1, 48, 100
3, 320832, Note_on_c, 1, 46, 110
3, 321020, Note_off_c, 1, 46, 100
3, 321024, Note_on_c, 1, 44, 110
3, 321212, Note_off_c, 1, 44, 100
3, 321216, Note_on_c, 1, 43, 110
3, 321404, Note_off_c, 1, 43, 100
3, 321408, Note_on_c, 1, 41, 110
3, 321596, Note_off_c, 1, 41, 100
3, 321600, Note_on_c, 1, 39, 110
3, 321788, Note_off_c, 1, 39, 100
3, 321792, Note_on_c, 1, 37, 110
3, 321980, Note_off_c, 1, 37, 100
3, 321984, Note_on_c, 1, 36, 110
3, 322172, Note_off_c, 1, 36, 100
3, 322176, Note_on_c, 1, 37, 110
3, 322364, Note_off_c, 1, 37, 100
3, 322368, Note_on_c, 1, 41, 110
3, 322556, Note_off_c, 1, 41, 100
3, 322560, Note_on_c, 1, 39, 110
3, 322748, Note_off_c, 1, 39, 100
3, 322752, Note_on_c, 1, 37, 110
3, 322940, Note_off_c, 1, 37, 100
3, 322944, Note_on_c, 1, 36, 110
3, 323132, Note_off_c, 1, 36, 100
3, 323136, Note_on_c, 1, 39, 110
3, 323324, Note_off_c, 1, 39, 100
3, 323328, Note_on_c, 1, 44, 110
3, 323516, Note_off_c, 1, 44, 100
3, 323520, Note_on_c, 1, 43, 110
3, 323708, Note_off_c, 1, 43, 100
3, 323712, Note_on_c, 1, 41, 110
3, 323900, Note_off_c, 1, 41, 100
3, 323904, Note_on_c, 1, 41, 110
3, 324092, Note_off_c, 1, 41, 100
3, 324096, Note_on_c, 1, 37, 110
3, 324284, Note_off_c, 1, 37, 100
3, 324288, Note_on_c, 1, 34, 110
3, 324476, Note_off_c, 1, 34, 100
3, 324480, Note_on_c, 1, 37, 110
3, 324668, Note_off_c, 1, 37, 100
3, 324672, Note_on_c, 1, 34, 110
3, 324860, Note_off_c, 1, 34, 100
3, 324864, Note_on_c, 1, 39, 110
3, 325052, Note_off_c, 1, 39, 100
3, 325056, Note_on_c, 1, 37, 110
3, 325244, Note_off_c, 1, 37, 100
3, 325248, Note_on_c, 1, 36, 110
3, 325436, Note_off_c, 1, 36, 100
3, 325440, Note_on_c, 1, 39, 110
3, 325628, Note_off_c, 1, 39, 100
3, 325632, Note_on_c, 1, 44, 110
3, 325820, Note_off_c, 1, 44, 100
3, 325824, Note_on_c, 1, 43, 110
3, 326012, Note_off_c, 1, 43, 100
3, 326016, Note_on_c, 1, 41, 110
3, 326204, Note_off_c, 1, 41, 100
3, 326208, Note_on_c, 1, 39, 110
3, 326396, Note_off_c, 1, 39, 100
3, 326400, Note_on_c, 1, 37, 110
3, 326588, Note_off_c, 1, 37, 100
3, 326592, Note_on_c, 1, 34, 110
3, 326780, Note_off_c, 1, 34, 100
3, 326784, Note_on_c, 1, 37, 110
3, 326972, Note_off_c, 1, 37, 100
3, 326976, Note_on_c, 1, 34, 110
3, 327164, Note_off_c, 1, 34, 100
3, 327168, Note_on_c, 1, 39, 110
3, 327356, Note_off_c, 1, 39, 100
3, 327360, Note_on_c, 1, 39, 110
3, 327548, Note_off_c, 1, 39, 100
3, 327552, Note_on_c, 1, 32, 110
3, 327740, Note_off_c, 1, 32, 100
3, 327744, Note_on_c, 1, 36, 110
3, 327932, Note_off_c, 1, 36, 100
3, 327936, Note_on_c, 1, 39, 110
3, 328124, Note_off_c, 1, 39, 100
3, 328128, Note_on_c, 1, 37, 110
3, 328316, Note_off_c, 1, 37, 100
3, 328320, Note_on_c, 1, 36, 110
3, 328508, Note_off_c, 1, 36, 100
3, 328512, Note_on_c, 1, 34, 110
3, 328700, Note_off_c, 1, 34, 100
3, 328704, Note_on_c, 1, 32, 111
3, 328892, Note_off_c, 1, 32, 100
3, 328896, Note_on_c, 1, 36, 112
3, 329084, Note_off_c, 1, 36, 100
3, 329088, Note_on_c, 1, 39, 113
3, 329276, Note_off_c, 1, 39, 100
3, 329280, Note_on_c, 1, 37, 114
3, 329468, Note_off_c, 1, 37, 100
3, 329472, Note_on_c, 1, 36, 115
3, 329660, Note_off_c, 1, 36, 100
3, 329664, Note_on_c, 1, 34, 116
3, 329852, Note_off_c, 1, 34, 100
3, 329856, Note_on_c, 1, 32, 117
3, 330044, Note_off_c, 1, 32, 100
3, 330048, Note_on_c, 1, 36, 118
3, 330236, Note_off_c, 1, 36, 100
3, 330240, Note_on_c, 1, 39, 119
3, 330428, Note_off_c, 1, 39, 100
3, 330432, Note_on_c, 1, 37, 119
3, 330620, Note_off_c, 1, 37, 100
3, 330624, Note_on_c, 1, 36, 120
3, 330812, Note_off_c, 1, 36, 100
3, 330816, Note_on_c, 1, 34, 120
3, 331004, Note_off_c, 1, 34, 100
3, 331008, Note_on_c, 1, 32, 120
3, 331772, Note_off_c, 1, 32, 100
3, 331772, End_track
0, 0, End_of_file
