0, 0, Header, 1, 3, 384
1, 0, Start_track
1, 0, Title_t, "L.v.Beethoven 2mov - Piano Sonata No.13 in Eb Major Op.27-1\000"
1, 0, Copyright_t, "Copyright(C) 1995-2009, Suzuki Software\000"
1, 0, Sequencer_specific, 9, 67, 123, 0, 88, 70, 48, 50, 0, 1
1, 0, Text_t, "XFhd:2000/06/04:JP:Classical::::L.v.Beethoven:::Kaoru Suzuki\000"
1, 0, Text_t, "XFln:JP:\203s\203A\203m\203\\\203i\203^\221æ13\224Ô\225Ï\203z\222·\222²\215ì\225i27-1\201`\221æ2\212y\217Í:L.v.\203x\201[\203g\201[\203\224\203F\203\223:::\227é\202¿\202á\202ñ:\227é\202¿\202á\202ñ\000"
1, 0, Time_signature, 3, 2, 96, 8
1, 0, Sequencer_specific, 3, 0, 0, 65
1, 0, Sequencer_specific, 5, 0, 0, 119, 14, 0
1, 0, Tempo, 200000
1, 91008, Tempo, 206896
1, 91392, Tempo, 214285
1, 91776, Tempo, 222222
1, 92160, Tempo, 240000
1, 93312, Tempo, 200000
1, 162432, Tempo, 206896
1, 163584, Tempo, 214285
1, 164736, Tempo, 222222
1, 166272, Tempo, 200000
1, 240768, Tempo, 206896
1, 241920, Tempo, 214285
1, 242304, Tempo, 222222
1, 242688, Tempo, 230769
1, 243072, Tempo, 300000
1, 243072, End_track
2, 0, Start_track
2, 0, Title_t, "Right"
2, 0, Control_c, 0, 0, 0
2, 0, Program_c, 0, 0
2, 0, Control_c, 0, 7, 100
2, 0, Control_c, 0, 10, 74
2, 0, Control_c, 0, 91, 127
2, 0, Key_signature, -3, "minor"
2, 0, Note_on_c, 0, 48, 80
2, 384, Note_on_c, 0, 51, 80
2, 768, Note_on_c, 0, 55, 80
2, 1148, Note_off_c, 0, 48, 100
2, 1152, Note_on_c, 0, 60, 80
2, 1532, Note_off_c, 0, 51, 100
2, 1536, Note_on_c, 0, 63, 80
2, 1916, Note_off_c, 0, 55, 100
2, 1920, Note_on_c, 0, 67, 80
2, 2300, Note_off_c, 0, 60, 100
2, 2304, Note_on_c, 0, 79, 80
2, 2684, Note_off_c, 0, 63, 100
2, 2688, Note_on_c, 0, 75, 80
2, 3068, Note_off_c, 0, 67, 100
2, 3072, Note_on_c, 0, 72, 80
2, 3452, Note_off_c, 0, 79, 100
2, 3456, Note_on_c, 0, 79, 80
2, 3836, Note_off_c, 0, 75, 100
2, 3840, Note_on_c, 0, 74, 80
2, 4220, Note_off_c, 0, 72, 100
2, 4224, Note_on_c, 0, 71, 80
2, 4604, Note_off_c, 0, 79, 100
2, 4608, Note_on_c, 0, 67, 80
2, 4988, Note_off_c, 0, 74, 100
2, 4992, Note_on_c, 0, 62, 80
2, 5372, Note_off_c, 0, 71, 100
2, 5376, Note_on_c, 0, 59, 80
2, 5756, Note_off_c, 0, 67, 100
2, 5760, Note_on_c, 0, 67, 80
2, 6140, Note_off_c, 0, 62, 100
2, 6144, Note_on_c, 0, 62, 80
2, 6524, Note_off_c, 0, 59, 100
2, 6528, Note_on_c, 0, 58, 80
2, 6908, Note_off_c, 0, 67, 100
2, 6912, Note_on_c, 0, 79, 80
2, 7292, Note_off_c, 0, 62, 100
2, 7296, Note_on_c, 0, 74, 80
2, 7676, Note_off_c, 0, 58, 100
2, 7680, Note_on_c, 0, 70, 80
2, 8060, Note_off_c, 0, 79, 100
2, 8064, Note_on_c, 0, 77, 80
2, 8444, Note_off_c, 0, 74, 100
2, 8448, Note_on_c, 0, 72, 80
2, 8828, Note_off_c, 0, 70, 100
2, 8832, Note_on_c, 0, 69, 80
2, 9212, Note_off_c, 0, 77, 100
2, 9212, Note_off_c, 0, 72, 100
2, 9216, Note_on_c, 0, 65, 80
2, 9596, Note_off_c, 0, 69, 100
2, 9600, Note_on_c, 0, 60, 80
2, 9980, Note_off_c, 0, 65, 100
2, 9984, Note_on_c, 0, 57, 80
2, 10364, Note_off_c, 0, 60, 100
2, 10368, Note_on_c, 0, 65, 80
2, 10748, Note_off_c, 0, 57, 100
2, 10752, Note_on_c, 0, 60, 80
2, 11132, Note_off_c, 0, 65, 100
2, 11136, Note_on_c, 0, 56, 80
2, 11516, Note_off_c, 0, 60, 100
2, 11520, Note_on_c, 0, 77, 80
2, 11900, Note_off_c, 0, 56, 100
2, 11904, Note_on_c, 0, 72, 80
2, 12284, Note_off_c, 0, 77, 100
2, 12288, Note_on_c, 0, 68, 80
2, 12668, Note_off_c, 0, 72, 100
2, 12672, Note_on_c, 0, 75, 80
2, 13052, Note_off_c, 0, 68, 100
2, 13056, Note_on_c, 0, 72, 80
2, 13436, Note_off_c, 0, 75, 100
2, 13440, Note_on_c, 0, 67, 80
2, 13820, Note_off_c, 0, 72, 100
2, 13824, Note_on_c, 0, 75, 110
2, 13824, Note_on_c, 0, 63, 110
2, 14204, Note_off_c, 0, 67, 100
2, 14208, Note_on_c, 0, 68, 110
2, 14588, Note_off_c, 0, 75, 100
2, 14588, Note_off_c, 0, 63, 100
2, 14592, Note_on_c, 0, 67, 110
2, 14972, Note_off_c, 0, 68, 100
2, 14976, Note_on_c, 0, 74, 110
2, 14976, Note_on_c, 0, 62, 110
2, 15356, Note_off_c, 0, 67, 100
2, 15360, Note_on_c, 0, 70, 110
2, 15740, Note_off_c, 0, 74, 100
2, 15740, Note_off_c, 0, 62, 100
2, 15744, Note_on_c, 0, 67, 110
2, 16124, Note_off_c, 0, 70, 100
2, 16128, Note_on_c, 0, 74, 110
2, 16128, Note_on_c, 0, 62, 110
2, 16508, Note_off_c, 0, 67, 100
2, 16512, Note_on_c, 0, 69, 110
2, 16892, Note_off_c, 0, 74, 100
2, 16892, Note_off_c, 0, 62, 100
2, 16896, Note_on_c, 0, 66, 110
2, 17276, Note_off_c, 0, 69, 100
2, 17280, Note_on_c, 0, 67, 110
2, 17660, Note_off_c, 0, 66, 100
2, 18044, Note_off_c, 0, 67, 100
2, 18432, Note_on_c, 0, 48, 80
2, 18816, Note_on_c, 0, 51, 80
2, 19196, Note_off_c, 0, 48, 100
2, 19200, Note_on_c, 0, 55, 80
2, 19580, Note_off_c, 0, 51, 100
2, 19584, Note_on_c, 0, 60, 80
2, 19964, Note_off_c, 0, 55, 100
2, 19968, Note_on_c, 0, 63, 80
2, 20348, Note_off_c, 0, 60, 100
2, 20352, Note_on_c, 0, 67, 80
2, 20732, Note_off_c, 0, 63, 100
2, 20736, Note_on_c, 0, 79, 80
2, 21116, Note_off_c, 0, 67, 100
2, 21120, Note_on_c, 0, 75, 80
2, 21500, Note_off_c, 0, 79, 100
2, 21504, Note_on_c, 0, 72, 80
2, 21884, Note_off_c, 0, 75, 100
2, 21888, Note_on_c, 0, 79, 80
2, 22268, Note_off_c, 0, 72, 100
2, 22272, Note_on_c, 0, 74, 80
2, 22652, Note_off_c, 0, 79, 100
2, 22656, Note_on_c, 0, 71, 80
2, 23036, Note_off_c, 0, 74, 100
2, 23040, Note_on_c, 0, 67, 80
2, 23420, Note_off_c, 0, 71, 100
2, 23424, Note_on_c, 0, 62, 80
2, 23804, Note_off_c, 0, 67, 100
2, 23808, Note_on_c, 0, 59, 80
2, 24188, Note_off_c, 0, 62, 100
2, 24192, Note_on_c, 0, 67, 80
2, 24572, Note_off_c, 0, 59, 100
2, 24576, Note_on_c, 0, 62, 80
2, 24956, Note_off_c, 0, 67, 100
2, 24960, Note_on_c, 0, 58, 80
2, 25340, Note_off_c, 0, 62, 100
2, 25344, Note_on_c, 0, 79, 80
2, 25724, Note_off_c, 0, 58, 100
2, 25728, Note_on_c, 0, 74, 80
2, 26108, Note_off_c, 0, 79, 100
2, 26112, Note_on_c, 0, 70, 80
2, 26492, Note_off_c, 0, 74, 100
2, 26496, Note_on_c, 0, 77, 80
2, 26876, Note_off_c, 0, 70, 100
2, 26880, Note_on_c, 0, 72, 80
2, 27260, Note_off_c, 0, 77, 100
2, 27264, Note_on_c, 0, 69, 80
2, 27644, Note_off_c, 0, 72, 100
2, 27648, Note_on_c, 0, 65, 80
2, 28028, Note_off_c, 0, 69, 100
2, 28032, Note_on_c, 0, 60, 80
2, 28412, Note_off_c, 0, 65, 100
2, 28416, Note_on_c, 0, 57, 80
2, 28796, Note_off_c, 0, 60, 100
2, 28800, Note_on_c, 0, 65, 80
2, 29180, Note_off_c, 0, 57, 100
2, 29184, Note_on_c, 0, 60, 80
2, 29564, Note_off_c, 0, 65, 100
2, 29568, Note_on_c, 0, 56, 80
2, 29948, Note_off_c, 0, 60, 100
2, 29952, Note_on_c, 0, 77, 80
2, 30332, Note_off_c, 0, 56, 100
2, 30336, Note_on_c, 0, 72, 80
2, 30716, Note_off_c, 0, 77, 100
2, 30720, Note_on_c, 0, 68, 80
2, 31100, Note_off_c, 0, 72, 100
2, 31104, Note_on_c, 0, 75, 80
2, 31484, Note_off_c, 0, 68, 100
2, 31488, Note_on_c, 0, 72, 80
2, 31868, Note_off_c, 0, 75, 100
2, 31872, Note_on_c, 0, 67, 80
2, 32252, Note_off_c, 0, 72, 100
2, 32256, Note_on_c, 0, 75, 110
2, 32256, Note_on_c, 0, 63, 110
2, 32636, Note_off_c, 0, 67, 100
2, 32640, Note_on_c, 0, 68, 110
2, 33020, Note_off_c, 0, 75, 100
2, 33020, Note_off_c, 0, 63, 100
2, 33024, Note_on_c, 0, 67, 110
2, 33404, Note_off_c, 0, 68, 100
2, 33408, Note_on_c, 0, 74, 110
2, 33408, Note_on_c, 0, 62, 110
2, 33788, Note_off_c, 0, 67, 100
2, 33792, Note_on_c, 0, 70, 110
2, 34172, Note_off_c, 0, 74, 100
2, 34172, Note_off_c, 0, 62, 100
2, 34176, Note_on_c, 0, 67, 110
2, 34556, Note_off_c, 0, 70, 100
2, 34560, Note_on_c, 0, 74, 110
2, 34560, Note_on_c, 0, 62, 110
2, 34940, Note_off_c, 0, 67, 100
2, 34944, Note_on_c, 0, 69, 110
2, 35324, Note_off_c, 0, 74, 100
2, 35324, Note_off_c, 0, 62, 100
2, 35328, Note_on_c, 0, 66, 110
2, 35708, Note_off_c, 0, 69, 100
2, 35712, Note_on_c, 0, 67, 110
2, 36092, Note_off_c, 0, 66, 100
2, 36476, Note_off_c, 0, 67, 100
2, 36864, Note_on_c, 0, 58, 80
2, 37248, Note_on_c, 0, 53, 80
2, 37628, Note_off_c, 0, 58, 100
2, 37632, Note_on_c, 0, 49, 80
2, 38012, Note_off_c, 0, 53, 100
2, 38016, Note_on_c, 0, 58, 80
2, 38396, Note_off_c, 0, 49, 100
2, 38400, Note_on_c, 0, 52, 80
2, 38780, Note_off_c, 0, 58, 100
2, 38784, Note_on_c, 0, 48, 80
2, 39164, Note_off_c, 0, 52, 100
2, 39168, Note_on_c, 0, 70, 80
2, 39548, Note_off_c, 0, 48, 100
2, 39552, Note_on_c, 0, 67, 80
2, 39932, Note_off_c, 0, 70, 100
2, 39936, Note_on_c, 0, 60, 80
2, 40316, Note_off_c, 0, 67, 100
2, 40320, Note_on_c, 0, 68, 80
2, 40700, Note_off_c, 0, 60, 100
2, 40704, Note_on_c, 0, 65, 80
2, 41084, Note_off_c, 0, 68, 100
2, 41088, Note_on_c, 0, 60, 80
2, 41468, Note_off_c, 0, 65, 100
2, 41472, Note_on_c, 0, 56, 80
2, 41852, Note_off_c, 0, 60, 100
2, 41856, Note_on_c, 0, 51, 80
2, 42236, Note_off_c, 0, 56, 100
2, 42240, Note_on_c, 0, 48, 80
2, 42620, Note_off_c, 0, 51, 100
2, 42624, Note_on_c, 0, 55, 80
2, 43004, Note_off_c, 0, 48, 100
2, 43008, Note_on_c, 0, 50, 80
2, 43388, Note_off_c, 0, 55, 100
2, 43392, Note_on_c, 0, 46, 80
2, 43772, Note_off_c, 0, 50, 100
2, 43776, Note_on_c, 0, 77, 80
2, 44156, Note_off_c, 0, 46, 100
2, 44160, Note_on_c, 0, 74, 80
2, 44540, Note_off_c, 0, 77, 100
2, 44544, Note_on_c, 0, 67, 80
2, 44924, Note_off_c, 0, 74, 100
2, 44928, Note_on_c, 0, 75, 80
2, 45308, Note_off_c, 0, 67, 100
2, 45312, Note_on_c, 0, 72, 80
2, 45692, Note_off_c, 0, 75, 100
2, 45696, Note_on_c, 0, 67, 80
2, 46076, Note_off_c, 0, 72, 100
2, 46080, Note_on_c, 0, 48, 80
2, 46460, Note_off_c, 0, 67, 100
2, 46464, Note_on_c, 0, 51, 80
2, 46844, Note_off_c, 0, 48, 100
2, 46848, Note_on_c, 0, 55, 80
2, 47228, Note_off_c, 0, 51, 100
2, 47232, Note_on_c, 0, 60, 80
2, 47612, Note_off_c, 0, 55, 100
2, 47616, Note_on_c, 0, 63, 80
2, 47996, Note_off_c, 0, 60, 100
2, 48000, Note_on_c, 0, 67, 80
2, 48380, Note_off_c, 0, 63, 100
2, 48384, Note_on_c, 0, 80, 80
2, 48764, Note_off_c, 0, 67, 100
2, 48768, Note_on_c, 0, 75, 82
2, 49148, Note_off_c, 0, 80, 100
2, 49152, Note_on_c, 0, 72, 85
2, 49532, Note_off_c, 0, 75, 100
2, 49536, Note_on_c, 0, 80, 88
2, 49916, Note_off_c, 0, 72, 100
2, 49920, Note_on_c, 0, 74, 91
2, 50300, Note_off_c, 0, 80, 100
2, 50304, Note_on_c, 0, 71, 94
2, 50684, Note_off_c, 0, 74, 100
2, 50688, Note_on_c, 0, 68, 95
2, 51068, Note_off_c, 0, 71, 100
2, 51072, Note_on_c, 0, 62, 95
2, 51452, Note_off_c, 0, 68, 100
2, 51456, Note_on_c, 0, 59, 95
2, 51836, Note_off_c, 0, 62, 100
2, 51840, Note_on_c, 0, 67, 95
2, 52220, Note_off_c, 0, 59, 100
2, 52224, Note_on_c, 0, 62, 95
2, 52604, Note_off_c, 0, 67, 100
2, 52608, Note_on_c, 0, 58, 95
2, 52988, Note_off_c, 0, 62, 100
2, 52992, Note_on_c, 0, 79, 95
2, 53372, Note_off_c, 0, 58, 100
2, 53376, Note_on_c, 0, 74, 95
2, 53756, Note_off_c, 0, 79, 100
2, 53760, Note_on_c, 0, 70, 95
2, 54140, Note_off_c, 0, 74, 100
2, 54144, Note_on_c, 0, 79, 95
2, 54524, Note_off_c, 0, 70, 100
2, 54528, Note_on_c, 0, 72, 95
2, 54908, Note_off_c, 0, 79, 100
2, 54912, Note_on_c, 0, 69, 95
2, 55292, Note_off_c, 0, 72, 100
2, 55296, Note_on_c, 0, 67, 95
2, 55676, Note_off_c, 0, 69, 100
2, 55680, Note_on_c, 0, 60, 95
2, 56060, Note_off_c, 0, 67, 100
2, 56064, Note_on_c, 0, 57, 95
2, 56444, Note_off_c, 0, 60, 100
2, 56448, Note_on_c, 0, 65, 95
2, 56828, Note_off_c, 0, 57, 100
2, 56832, Note_on_c, 0, 60, 95
2, 57212, Note_off_c, 0, 65, 100
2, 57216, Note_on_c, 0, 56, 95
2, 57596, Note_off_c, 0, 60, 100
2, 57600, Note_on_c, 0, 77, 95
2, 57980, Note_off_c, 0, 56, 100
2, 57984, Note_on_c, 0, 72, 95
2, 58364, Note_off_c, 0, 77, 100
2, 58368, Note_on_c, 0, 68, 95
2, 58748, Note_off_c, 0, 72, 100
2, 58752, Note_on_c, 0, 75, 95
2, 59132, Note_off_c, 0, 68, 100
2, 59136, Note_on_c, 0, 72, 95
2, 59516, Note_off_c, 0, 75, 100
2, 59520, Note_on_c, 0, 67, 95
2, 59900, Note_off_c, 0, 72, 100
2, 59904, Note_on_c, 0, 72, 110
2, 59904, Note_on_c, 0, 60, 110
2, 60284, Note_off_c, 0, 67, 100
2, 60288, Note_on_c, 0, 69, 110
2, 60668, Note_off_c, 0, 72, 100
2, 60668, Note_off_c, 0, 60, 100
2, 60672, Note_on_c, 0, 63, 110
2, 61052, Note_off_c, 0, 69, 100
2, 61056, Note_on_c, 0, 72, 110
2, 61056, Note_on_c, 0, 60, 110
2, 61436, Note_off_c, 0, 63, 100
2, 61440, Note_on_c, 0, 67, 110
2, 61820, Note_off_c, 0, 72, 100
2, 61820, Note_off_c, 0, 60, 100
2, 61824, Note_on_c, 0, 63, 110
2, 62204, Note_off_c, 0, 67, 100
2, 62208, Note_on_c, 0, 71, 110
2, 62208, Note_on_c, 0, 59, 110
2, 62588, Note_off_c, 0, 63, 100
2, 62592, Note_on_c, 0, 67, 110
2, 62972, Note_off_c, 0, 71, 100
2, 62972, Note_off_c, 0, 59, 100
2, 62976, Note_on_c, 0, 62, 110
2, 63356, Note_off_c, 0, 67, 100
2, 63360, Note_on_c, 0, 72, 110
2, 63360, Note_on_c, 0, 63, 110
2, 63360, Note_on_c, 0, 60, 110
2, 63740, Note_off_c, 0, 62, 100
2, 64124, Note_off_c, 0, 72, 100
2, 64124, Note_off_c, 0, 63, 100
2, 64124, Note_off_c, 0, 60, 100
2, 64512, Note_on_c, 0, 58, 80
2, 64896, Note_on_c, 0, 53, 80
2, 65276, Note_off_c, 0, 58, 100
2, 65280, Note_on_c, 0, 49, 80
2, 65660, Note_off_c, 0, 53, 100
2, 65664, Note_on_c, 0, 58, 80
2, 66044, Note_off_c, 0, 49, 100
2, 66048, Note_on_c, 0, 52, 80
2, 66428, Note_off_c, 0, 58, 100
2, 66432, Note_on_c, 0, 48, 80
2, 66812, Note_off_c, 0, 52, 100
2, 66816, Note_on_c, 0, 70, 80
2, 67196, Note_off_c, 0, 48, 100
2, 67200, Note_on_c, 0, 67, 80
2, 67580, Note_off_c, 0, 70, 100
2, 67584, Note_on_c, 0, 60, 80
2, 67964, Note_off_c, 0, 67, 100
2, 67968, Note_on_c, 0, 68, 80
2, 68348, Note_off_c, 0, 60, 100
2, 68352, Note_on_c, 0, 65, 80
2, 68732, Note_off_c, 0, 68, 100
2, 68736, Note_on_c, 0, 60, 80
2, 69116, Note_off_c, 0, 65, 100
2, 69120, Note_on_c, 0, 56, 80
2, 69500, Note_off_c, 0, 60, 100
2, 69504, Note_on_c, 0, 51, 80
2, 69884, Note_off_c, 0, 56, 100
2, 69888, Note_on_c, 0, 48, 80
2, 70268, Note_off_c, 0, 51, 100
2, 70272, Note_on_c, 0, 55, 80
2, 70652, Note_off_c, 0, 48, 100
2, 70656, Note_on_c, 0, 50, 80
2, 71036, Note_off_c, 0, 55, 100
2, 71040, Note_on_c, 0, 46, 80
2, 71420, Note_off_c, 0, 50, 100
2, 71424, Note_on_c, 0, 77, 80
2, 71804, Note_off_c, 0, 46, 100
2, 71808, Note_on_c, 0, 74, 80
2, 72188, Note_off_c, 0, 77, 100
2, 72192, Note_on_c, 0, 67, 80
2, 72572, Note_off_c, 0, 74, 100
2, 72576, Note_on_c, 0, 75, 80
2, 72956, Note_off_c, 0, 67, 100
2, 72960, Note_on_c, 0, 72, 80
2, 73340, Note_off_c, 0, 75, 100
2, 73344, Note_on_c, 0, 67, 80
2, 73724, Note_off_c, 0, 72, 100
2, 73728, Note_on_c, 0, 48, 80
2, 74108, Note_off_c, 0, 67, 100
2, 74112, Note_on_c, 0, 51, 80
2, 74492, Note_off_c, 0, 48, 100
2, 74496, Note_on_c, 0, 55, 80
2, 74876, Note_off_c, 0, 51, 100
2, 74880, Note_on_c, 0, 60, 80
2, 75260, Note_off_c, 0, 55, 100
2, 75264, Note_on_c, 0, 63, 80
2, 75644, Note_off_c, 0, 60, 100
2, 75648, Note_on_c, 0, 67, 80
2, 76028, Note_off_c, 0, 63, 100
2, 76032, Note_on_c, 0, 80, 80
2, 76412, Note_off_c, 0, 67, 100
2, 76416, Note_on_c, 0, 75, 82
2, 76796, Note_off_c, 0, 80, 100
2, 76800, Note_on_c, 0, 72, 85
2, 77180, Note_off_c, 0, 75, 100
2, 77184, Note_on_c, 0, 80, 88
2, 77564, Note_off_c, 0, 72, 100
2, 77568, Note_on_c, 0, 74, 91
2, 77948, Note_off_c, 0, 80, 100
2, 77952, Note_on_c, 0, 71, 94
2, 78332, Note_off_c, 0, 74, 100
2, 78336, Note_on_c, 0, 68, 95
2, 78716, Note_off_c, 0, 71, 100
2, 78720, Note_on_c, 0, 62, 95
2, 79100, Note_off_c, 0, 68, 100
2, 79104, Note_on_c, 0, 59, 95
2, 79484, Note_off_c, 0, 62, 100
2, 79488, Note_on_c, 0, 67, 95
2, 79868, Note_off_c, 0, 59, 100
2, 79872, Note_on_c, 0, 62, 95
2, 80252, Note_off_c, 0, 67, 100
2, 80256, Note_on_c, 0, 58, 95
2, 80636, Note_off_c, 0, 62, 100
2, 80640, Note_on_c, 0, 79, 95
2, 81020, Note_off_c, 0, 58, 100
2, 81024, Note_on_c, 0, 74, 95
2, 81404, Note_off_c, 0, 79, 100
2, 81408, Note_on_c, 0, 70, 95
2, 81788, Note_off_c, 0, 74, 100
2, 81792, Note_on_c, 0, 79, 95
2, 82172, Note_off_c, 0, 70, 100
2, 82176, Note_on_c, 0, 72, 95
2, 82556, Note_off_c, 0, 79, 100
2, 82560, Note_on_c, 0, 69, 95
2, 82940, Note_off_c, 0, 72, 100
2, 82944, Note_on_c, 0, 67, 95
2, 83324, Note_off_c, 0, 69, 100
2, 83328, Note_on_c, 0, 60, 95
2, 83708, Note_off_c, 0, 67, 100
2, 83712, Note_on_c, 0, 57, 95
2, 84092, Note_off_c, 0, 60, 100
2, 84096, Note_on_c, 0, 65, 95
2, 84476, Note_off_c, 0, 57, 100
2, 84480, Note_on_c, 0, 60, 95
2, 84860, Note_off_c, 0, 65, 100
2, 84864, Note_on_c, 0, 56, 95
2, 85244, Note_off_c, 0, 60, 100
2, 85248, Note_on_c, 0, 77, 95
2, 85628, Note_off_c, 0, 56, 100
2, 85632, Note_on_c, 0, 72, 95
2, 86012, Note_off_c, 0, 77, 100
2, 86016, Note_on_c, 0, 68, 95
2, 86396, Note_off_c, 0, 72, 100
2, 86400, Note_on_c, 0, 75, 95
2, 86780, Note_off_c, 0, 68, 100
2, 86784, Note_on_c, 0, 72, 95
2, 87164, Note_off_c, 0, 75, 100
2, 87168, Note_on_c, 0, 67, 95
2, 87548, Note_off_c, 0, 72, 100
2, 87552, Note_on_c, 0, 72, 110
2, 87552, Note_on_c, 0, 60, 110
2, 87932, Note_off_c, 0, 67, 100
2, 87936, Note_on_c, 0, 69, 110
2, 88316, Note_off_c, 0, 72, 100
2, 88316, Note_off_c, 0, 60, 100
2, 88320, Note_on_c, 0, 63, 110
2, 88700, Note_off_c, 0, 69, 100
2, 88704, Note_on_c, 0, 72, 110
2, 88704, Note_on_c, 0, 60, 110
2, 89084, Note_off_c, 0, 63, 100
2, 89088, Note_on_c, 0, 67, 110
2, 89468, Note_off_c, 0, 72, 100
2, 89468, Note_off_c, 0, 60, 100
2, 89472, Note_on_c, 0, 63, 110
2, 89852, Note_off_c, 0, 67, 100
2, 89856, Note_on_c, 0, 71, 110
2, 89856, Note_on_c, 0, 59, 110
2, 90236, Note_off_c, 0, 63, 100
2, 90240, Note_on_c, 0, 67, 110
2, 90620, Note_off_c, 0, 71, 100
2, 90620, Note_off_c, 0, 59, 100
2, 90624, Note_on_c, 0, 62, 110
2, 91004, Note_off_c, 0, 67, 100
2, 91008, Note_on_c, 0, 72, 110
2, 91008, Note_on_c, 0, 60, 110
2, 91388, Note_off_c, 0, 62, 100
2, 91392, Note_on_c, 0, 67, 110
2, 91772, Note_off_c, 0, 72, 100
2, 91772, Note_off_c, 0, 60, 100
2, 91776, Note_on_c, 0, 63, 110
2, 92156, Note_off_c, 0, 67, 100
2, 92160, Note_on_c, 0, 60, 110
2, 92540, Note_off_c, 0, 63, 100
2, 92924, Note_off_c, 0, 60, 100
2, 92928, Note_on_c, 0, 51, 80
2, 93308, Note_off_c, 0, 51, 100
2, 93312, Note_on_c, 0, 51, 80
2, 93692, Note_off_c, 0, 51, 100
2, 94080, Note_on_c, 0, 51, 80
2, 94460, Note_off_c, 0, 51, 100
2, 94464, Note_on_c, 0, 51, 80
2, 94844, Note_off_c, 0, 51, 100
2, 95232, Note_on_c, 0, 51, 80
2, 95612, Note_off_c, 0, 51, 100
2, 95616, Note_on_c, 0, 51, 80
2, 95996, Note_off_c, 0, 51, 100
2, 96000, Note_on_c, 0, 56, 80
2, 96380, Note_off_c, 0, 56, 100
2, 97152, Note_on_c, 0, 60, 83
2, 97532, Note_off_c, 0, 60, 100
2, 98304, Note_on_c, 0, 63, 89
2, 98684, Note_off_c, 0, 63, 100
2, 99456, Note_on_c, 0, 68, 95
2, 99836, Note_off_c, 0, 68, 100
2, 100608, Note_on_c, 0, 72, 101
2, 100988, Note_off_c, 0, 72, 100
2, 101760, Note_on_c, 0, 75, 107
2, 102140, Note_off_c, 0, 75, 100
2, 102528, Note_on_c, 0, 78, 120
2, 102624, Note_on_c, 0, 80, 120
2, 102720, Note_on_c, 0, 78, 120
2, 102724, Note_off_c, 0, 78, 100
2, 102816, Note_on_c, 0, 80, 120
2, 102820, Note_off_c, 0, 80, 100
2, 102912, Note_on_c, 0, 78, 120
2, 102916, Note_off_c, 0, 78, 100
2, 103008, Note_on_c, 0, 80, 120
2, 103012, Note_off_c, 0, 80, 100
2, 103104, Note_on_c, 0, 78, 120
2, 103108, Note_off_c, 0, 78, 100
2, 103200, Note_on_c, 0, 80, 120
2, 103204, Note_off_c, 0, 80, 100
2, 103296, Note_on_c, 0, 78, 120
2, 103300, Note_off_c, 0, 78, 100
2, 103392, Note_on_c, 0, 80, 120
2, 103396, Note_off_c, 0, 80, 100
2, 103488, Note_on_c, 0, 78, 120
2, 103492, Note_off_c, 0, 78, 100
2, 103584, Note_on_c, 0, 80, 120
2, 103588, Note_off_c, 0, 80, 100
2, 103680, Note_on_c, 0, 78, 120
2, 103684, Note_off_c, 0, 78, 100
2, 103776, Note_on_c, 0, 80, 120
2, 103780, Note_off_c, 0, 80, 100
2, 103872, Note_on_c, 0, 78, 120
2, 103876, Note_off_c, 0, 78, 100
2, 103968, Note_on_c, 0, 80, 120
2, 103972, Note_off_c, 0, 80, 100
2, 104064, Note_on_c, 0, 78, 120
2, 104068, Note_off_c, 0, 78, 100
2, 104160, Note_on_c, 0, 80, 120
2, 104164, Note_off_c, 0, 80, 100
2, 104256, Note_on_c, 0, 78, 120
2, 104260, Note_off_c, 0, 78, 100
2, 104352, Note_on_c, 0, 80, 120
2, 104356, Note_off_c, 0, 80, 100
2, 104448, Note_on_c, 0, 78, 120
2, 104452, Note_off_c, 0, 78, 100
2, 104544, Note_on_c, 0, 80, 120
2, 104548, Note_off_c, 0, 80, 100
2, 104640, Note_on_c, 0, 77, 120
2, 104644, Note_off_c, 0, 78, 100
2, 104736, Note_on_c, 0, 78, 120
2, 104740, Note_off_c, 0, 80, 100
2, 104828, Note_off_c, 0, 78, 100
2, 104832, Note_on_c, 0, 79, 110
2, 104836, Note_off_c, 0, 77, 100
2, 105212, Note_off_c, 0, 79, 100
2, 105216, Note_on_c, 0, 75, 105
2, 105596, Note_off_c, 0, 75, 100
2, 105600, Note_on_c, 0, 70, 99
2, 106364, Note_off_c, 0, 70, 100
2, 106368, Note_on_c, 0, 68, 87
2, 106748, Note_off_c, 0, 68, 100
2, 106752, Note_on_c, 0, 65, 81
2, 107132, Note_off_c, 0, 65, 100
2, 107136, Note_on_c, 0, 63, 80
2, 107136, Note_on_c, 0, 55, 80
2, 107516, Note_off_c, 0, 63, 100
2, 107516, Note_off_c, 0, 55, 100
2, 107520, Note_on_c, 0, 58, 80
2, 107900, Note_off_c, 0, 58, 100
2, 107904, Note_on_c, 0, 55, 80
2, 108284, Note_off_c, 0, 55, 100
2, 109056, Note_on_c, 0, 51, 80
2, 109436, Note_off_c, 0, 51, 100
2, 109440, Note_on_c, 0, 51, 80
2, 109820, Note_off_c, 0, 51, 100
2, 110208, Note_on_c, 0, 51, 80
2, 110588, Note_off_c, 0, 51, 100
2, 110592, Note_on_c, 0, 51, 80
2, 110972, Note_off_c, 0, 51, 100
2, 111360, Note_on_c, 0, 51, 80
2, 111740, Note_off_c, 0, 51, 100
2, 111744, Note_on_c, 0, 51, 80
2, 112124, Note_off_c, 0, 51, 100
2, 112128, Note_on_c, 0, 56, 80
2, 112508, Note_off_c, 0, 56, 100
2, 113280, Note_on_c, 0, 60, 83
2, 113660, Note_off_c, 0, 60, 100
2, 114432, Note_on_c, 0, 63, 89
2, 114812, Note_off_c, 0, 63, 100
2, 115584, Note_on_c, 0, 68, 95
2, 115964, Note_off_c, 0, 68, 100
2, 116736, Note_on_c, 0, 72, 101
2, 117116, Note_off_c, 0, 72, 100
2, 117888, Note_on_c, 0, 75, 107
2, 118268, Note_off_c, 0, 75, 100
2, 118656, Note_on_c, 0, 78, 120
2, 118752, Note_on_c, 0, 80, 120
2, 118848, Note_on_c, 0, 78, 120
2, 118852, Note_off_c, 0, 78, 100
2, 118944, Note_on_c, 0, 80, 120
2, 118948, Note_off_c, 0, 80, 100
2, 119040, Note_on_c, 0, 78, 120
2, 119044, Note_off_c, 0, 78, 100
2, 119136, Note_on_c, 0, 80, 120
2, 119140, Note_off_c, 0, 80, 100
2, 119232, Note_on_c, 0, 78, 120
2, 119236, Note_off_c, 0, 78, 100
2, 119328, Note_on_c, 0, 80, 120
2, 119332, Note_off_c, 0, 80, 100
2, 119424, Note_on_c, 0, 78, 120
2, 119428, Note_off_c, 0, 78, 100
2, 119520, Note_on_c, 0, 80, 120
2, 119524, Note_off_c, 0, 80, 100
2, 119616, Note_on_c, 0, 78, 120
2, 119620, Note_off_c, 0, 78, 100
2, 119712, Note_on_c, 0, 80, 120
2, 119716, Note_off_c, 0, 80, 100
2, 119808, Note_on_c, 0, 78, 120
2, 119812, Note_off_c, 0, 78, 100
2, 119904, Note_on_c, 0, 80, 120
2, 119908, Note_off_c, 0, 80, 100
2, 120000, Note_on_c, 0, 78, 120
2, 120004, Note_off_c, 0, 78, 100
2, 120096, Note_on_c, 0, 80, 120
2, 120100, Note_off_c, 0, 80, 100
2, 120192, Note_on_c, 0, 78, 120
2, 120196, Note_off_c, 0, 78, 100
2, 120288, Note_on_c, 0, 80, 120
2, 120292, Note_off_c, 0, 80, 100
2, 120384, Note_on_c, 0, 78, 120
2, 120388, Note_off_c, 0, 78, 100
2, 120480, Note_on_c, 0, 80, 120
2, 120484, Note_off_c, 0, 80, 100
2, 120576, Note_on_c, 0, 78, 120
2, 120580, Note_off_c, 0, 78, 100
2, 120672, Note_on_c, 0, 80, 120
2, 120676, Note_off_c, 0, 80, 100
2, 120768, Note_on_c, 0, 77, 120
2, 120772, Note_off_c, 0, 78, 100
2, 120864, Note_on_c, 0, 78, 120
2, 120868, Note_off_c, 0, 80, 100
2, 120956, Note_off_c, 0, 78, 100
2, 120960, Note_on_c, 0, 79, 120
2, 120964, Note_off_c, 0, 77, 100
2, 121340, Note_off_c, 0, 79, 100
2, 121344, Note_on_c, 0, 75, 110
2, 121724, Note_off_c, 0, 75, 100
2, 121728, Note_on_c, 0, 70, 103
2, 122492, Note_off_c, 0, 70, 100
2, 122496, Note_on_c, 0, 68, 88
2, 122876, Note_off_c, 0, 68, 100
2, 122880, Note_on_c, 0, 65, 81
2, 123260, Note_off_c, 0, 65, 100
2, 123264, Note_on_c, 0, 63, 80
2, 123264, Note_on_c, 0, 55, 80
2, 123644, Note_off_c, 0, 63, 100
2, 123644, Note_off_c, 0, 55, 100
2, 123648, Note_on_c, 0, 58, 80
2, 124028, Note_off_c, 0, 58, 100
2, 124032, Note_on_c, 0, 55, 80
2, 124412, Note_off_c, 0, 55, 100
2, 124416, Note_on_c, 0, 51, 80
2, 124796, Note_off_c, 0, 51, 100
2, 128256, Note_on_c, 0, 77, 80
2, 128636, Note_off_c, 0, 77, 100
2, 128640, Note_on_c, 0, 75, 80
2, 129020, Note_off_c, 0, 75, 100
2, 129408, Note_on_c, 0, 73, 80
2, 129788, Note_off_c, 0, 73, 100
2, 129792, Note_on_c, 0, 72, 80
2, 130172, Note_off_c, 0, 72, 100
2, 130560, Note_on_c, 0, 70, 80
2, 130940, Note_off_c, 0, 70, 100
2, 130944, Note_on_c, 0, 68, 80
2, 131324, Note_off_c, 0, 68, 100
2, 131712, Note_on_c, 0, 67, 80
2, 132092, Note_off_c, 0, 67, 100
2, 132096, Note_on_c, 0, 68, 80
2, 132476, Note_off_c, 0, 68, 100
2, 132864, Note_on_c, 0, 70, 80
2, 133244, Note_off_c, 0, 70, 100
2, 133248, Note_on_c, 0, 72, 80
2, 133628, Note_off_c, 0, 72, 100
2, 134016, Note_on_c, 0, 73, 80
2, 134396, Note_off_c, 0, 73, 100
2, 134400, Note_on_c, 0, 75, 80
2, 134780, Note_off_c, 0, 75, 100
2, 135168, Note_on_c, 0, 77, 80
2, 135548, Note_off_c, 0, 77, 100
2, 135552, Note_on_c, 0, 75, 80
2, 135932, Note_off_c, 0, 75, 100
2, 136320, Note_on_c, 0, 73, 80
2, 136700, Note_off_c, 0, 73, 100
2, 136704, Note_on_c, 0, 72, 80
2, 137084, Note_off_c, 0, 72, 100
2, 137472, Note_on_c, 0, 70, 81
2, 137852, Note_off_c, 0, 70, 100
2, 137856, Note_on_c, 0, 68, 82
2, 138236, Note_off_c, 0, 68, 100
2, 138624, Note_on_c, 0, 67, 84
2, 139004, Note_off_c, 0, 67, 100
2, 139008, Note_on_c, 0, 65, 85
2, 139388, Note_off_c, 0, 65, 100
2, 139776, Note_on_c, 0, 63, 88
2, 140156, Note_off_c, 0, 63, 100
2, 140160, Note_on_c, 0, 61, 89
2, 140540, Note_off_c, 0, 61, 100
2, 140928, Note_on_c, 0, 60, 91
2, 141308, Note_off_c, 0, 60, 100
2, 141312, Note_on_c, 0, 59, 92
2, 141692, Note_off_c, 0, 59, 100
2, 142080, Note_on_c, 0, 58, 95
2, 142460, Note_off_c, 0, 58, 100
2, 142464, Note_on_c, 0, 60, 96
2, 142844, Note_off_c, 0, 60, 100
2, 143232, Note_on_c, 0, 61, 98
2, 143612, Note_off_c, 0, 61, 100
2, 143616, Note_on_c, 0, 55, 99
2, 143996, Note_off_c, 0, 55, 100
2, 144000, Note_on_c, 0, 58, 80
2, 144000, Note_on_c, 0, 55, 80
2, 145148, Note_off_c, 0, 58, 100
2, 145148, Note_off_c, 0, 55, 100
2, 145152, Note_on_c, 0, 56, 80
2, 145532, Note_off_c, 0, 56, 100
2, 148992, Note_on_c, 0, 77, 80
2, 149372, Note_off_c, 0, 77, 100
2, 149376, Note_on_c, 0, 75, 80
2, 149756, Note_off_c, 0, 75, 100
2, 150144, Note_on_c, 0, 73, 80
2, 150524, Note_off_c, 0, 73, 100
2, 150528, Note_on_c, 0, 72, 80
2, 150908, Note_off_c, 0, 72, 100
2, 151296, Note_on_c, 0, 70, 80
2, 151676, Note_off_c, 0, 70, 100
2, 151680, Note_on_c, 0, 68, 80
2, 152060, Note_off_c, 0, 68, 100
2, 152448, Note_on_c, 0, 67, 80
2, 152828, Note_off_c, 0, 67, 100
2, 152832, Note_on_c, 0, 68, 80
2, 153212, Note_off_c, 0, 68, 100
2, 153600, Note_on_c, 0, 70, 80
2, 153980, Note_off_c, 0, 70, 100
2, 153984, Note_on_c, 0, 72, 80
2, 154364, Note_off_c, 0, 72, 100
2, 154752, Note_on_c, 0, 73, 80
2, 155132, Note_off_c, 0, 73, 100
2, 155136, Note_on_c, 0, 75, 80
2, 155516, Note_off_c, 0, 75, 100
2, 155904, Note_on_c, 0, 77, 80
2, 156284, Note_off_c, 0, 77, 100
2, 156288, Note_on_c, 0, 75, 80
2, 156668, Note_off_c, 0, 75, 100
2, 157056, Note_on_c, 0, 73, 80
2, 157436, Note_off_c, 0, 73, 100
2, 157440, Note_on_c, 0, 72, 80
2, 157820, Note_off_c, 0, 72, 100
2, 158208, Note_on_c, 0, 70, 81
2, 158588, Note_off_c, 0, 70, 100
2, 158592, Note_on_c, 0, 68, 82
2, 158972, Note_off_c, 0, 68, 100
2, 159360, Note_on_c, 0, 67, 84
2, 159740, Note_off_c, 0, 67, 100
2, 159744, Note_on_c, 0, 65, 85
2, 160124, Note_off_c, 0, 65, 100
2, 160512, Note_on_c, 0, 63, 88
2, 160892, Note_off_c, 0, 63, 100
2, 160896, Note_on_c, 0, 61, 89
2, 161276, Note_off_c, 0, 61, 100
2, 161664, Note_on_c, 0, 60, 91
2, 162044, Note_off_c, 0, 60, 100
2, 162048, Note_on_c, 0, 59, 92
2, 162428, Note_off_c, 0, 59, 100
2, 162816, Note_on_c, 0, 58, 95
2, 163196, Note_off_c, 0, 58, 100
2, 163200, Note_on_c, 0, 60, 96
2, 163580, Note_off_c, 0, 60, 100
2, 163968, Note_on_c, 0, 61, 98
2, 164348, Note_off_c, 0, 61, 100
2, 164352, Note_on_c, 0, 55, 99
2, 164732, Note_off_c, 0, 55, 100
2, 164736, Note_on_c, 0, 56, 80
2, 165116, Note_off_c, 0, 56, 100
2, 165120, Note_on_c, 0, 54, 80
2, 165500, Note_off_c, 0, 54, 100
2, 165504, Note_on_c, 0, 55, 80
2, 165884, Note_off_c, 0, 55, 100
2, 165888, Note_on_c, 0, 48, 80
2, 166272, Note_on_c, 0, 51, 80
2, 166652, Note_off_c, 0, 48, 100
2, 166656, Note_on_c, 0, 55, 80
2, 167036, Note_off_c, 0, 51, 100
2, 167040, Note_on_c, 0, 60, 80
2, 167420, Note_off_c, 0, 55, 100
2, 167424, Note_on_c, 0, 63, 80
2, 167804, Note_off_c, 0, 60, 100
2, 167808, Note_on_c, 0, 67, 80
2, 168188, Note_off_c, 0, 63, 100
2, 168192, Note_on_c, 0, 79, 80
2, 168572, Note_off_c, 0, 67, 100
2, 168576, Note_on_c, 0, 75, 80
2, 168956, Note_off_c, 0, 79, 100
2, 168960, Note_on_c, 0, 72, 80
2, 169340, Note_off_c, 0, 75, 100
2, 169344, Note_on_c, 0, 79, 80
2, 169724, Note_off_c, 0, 72, 100
2, 169728, Note_on_c, 0, 74, 80
2, 170108, Note_off_c, 0, 79, 100
2, 170112, Note_on_c, 0, 71, 80
2, 170492, Note_off_c, 0, 74, 100
2, 170496, Note_on_c, 0, 67, 80
2, 170876, Note_off_c, 0, 71, 100
2, 170880, Note_on_c, 0, 62, 80
2, 171260, Note_off_c, 0, 67, 100
2, 171260, Note_off_c, 0, 62, 100
2, 171264, Note_on_c, 0, 59, 80
2, 171648, Note_on_c, 0, 67, 80
2, 172028, Note_off_c, 0, 59, 100
2, 172032, Note_on_c, 0, 62, 80
2, 172412, Note_off_c, 0, 67, 100
2, 172416, Note_on_c, 0, 58, 80
2, 172796, Note_off_c, 0, 62, 100
2, 172800, Note_on_c, 0, 79, 80
2, 173180, Note_off_c, 0, 58, 100
2, 173184, Note_on_c, 0, 74, 80
2, 173564, Note_off_c, 0, 79, 100
2, 173568, Note_on_c, 0, 70, 80
2, 173948, Note_off_c, 0, 74, 100
2, 173952, Note_on_c, 0, 77, 80
2, 174332, Note_off_c, 0, 70, 100
2, 174336, Note_on_c, 0, 72, 80
2, 174716, Note_off_c, 0, 77, 100
2, 174720, Note_on_c, 0, 69, 80
2, 175100, Note_off_c, 0, 72, 100
2, 175104, Note_on_c, 0, 65, 80
2, 175484, Note_off_c, 0, 69, 100
2, 175488, Note_on_c, 0, 60, 80
2, 175868, Note_off_c, 0, 65, 100
2, 175872, Note_on_c, 0, 57, 80
2, 176252, Note_off_c, 0, 60, 100
2, 176256, Note_on_c, 0, 65, 80
2, 176636, Note_off_c, 0, 57, 100
2, 176640, Note_on_c, 0, 60, 80
2, 177020, Note_off_c, 0, 65, 100
2, 177024, Note_on_c, 0, 56, 80
2, 177404, Note_off_c, 0, 60, 100
2, 177408, Note_on_c, 0, 77, 80
2, 177788, Note_off_c, 0, 56, 100
2, 177792, Note_on_c, 0, 72, 80
2, 178172, Note_off_c, 0, 77, 100
2, 178176, Note_on_c, 0, 68, 80
2, 178556, Note_off_c, 0, 72, 100
2, 178560, Note_on_c, 0, 75, 80
2, 178940, Note_off_c, 0, 68, 100
2, 178944, Note_on_c, 0, 72, 80
2, 179324, Note_off_c, 0, 75, 100
2, 179328, Note_on_c, 0, 67, 80
2, 179708, Note_off_c, 0, 72, 100
2, 179712, Control_c, 0, 64, 127
2, 179712, Note_on_c, 0, 75, 110
2, 179712, Note_on_c, 0, 63, 110
2, 180092, Note_off_c, 0, 67, 100
2, 180096, Note_on_c, 0, 68, 110
2, 180476, Note_off_c, 0, 75, 100
2, 180476, Note_off_c, 0, 63, 100
2, 180480, Note_on_c, 0, 67, 110
2, 180856, Control_c, 0, 64, 0
2, 180860, Note_off_c, 0, 68, 100
2, 180864, Control_c, 0, 64, 127
2, 180864, Note_on_c, 0, 74, 110
2, 180864, Note_on_c, 0, 62, 110
2, 181244, Note_off_c, 0, 67, 100
2, 181248, Note_on_c, 0, 70, 110
2, 181628, Note_off_c, 0, 74, 100
2, 181628, Note_off_c, 0, 62, 100
2, 181632, Note_on_c, 0, 67, 110
2, 182008, Control_c, 0, 64, 0
2, 182012, Note_off_c, 0, 70, 100
2, 182016, Control_c, 0, 64, 127
2, 182016, Note_on_c, 0, 74, 110
2, 182016, Note_on_c, 0, 62, 110
2, 182396, Note_off_c, 0, 67, 100
2, 182400, Note_on_c, 0, 69, 110
2, 182780, Note_off_c, 0, 74, 100
2, 182780, Note_off_c, 0, 62, 100
2, 182784, Note_on_c, 0, 66, 110
2, 183160, Control_c, 0, 64, 0
2, 183164, Note_off_c, 0, 69, 100
2, 183168, Note_on_c, 0, 67, 110
2, 183548, Note_off_c, 0, 66, 100
2, 183932, Note_off_c, 0, 67, 100
2, 184512, Note_on_c, 0, 48, 80
2, 184896, Note_on_c, 0, 51, 80
2, 185276, Note_off_c, 0, 48, 100
2, 185280, Note_on_c, 0, 55, 80
2, 185660, Note_off_c, 0, 51, 100
2, 185664, Note_on_c, 0, 60, 80
2, 186044, Note_off_c, 0, 55, 100
2, 186048, Note_on_c, 0, 63, 80
2, 186428, Note_off_c, 0, 60, 100
2, 186432, Note_on_c, 0, 67, 80
2, 186812, Note_off_c, 0, 63, 100
2, 186816, Note_on_c, 0, 79, 80
2, 187196, Note_off_c, 0, 67, 100
2, 187200, Note_on_c, 0, 75, 80
2, 187580, Note_off_c, 0, 79, 100
2, 187584, Note_on_c, 0, 72, 80
2, 187964, Note_off_c, 0, 75, 100
2, 187968, Note_on_c, 0, 79, 80
2, 188348, Note_off_c, 0, 72, 100
2, 188352, Note_on_c, 0, 74, 80
2, 188732, Note_off_c, 0, 79, 100
2, 188736, Note_on_c, 0, 71, 80
2, 189116, Note_off_c, 0, 74, 100
2, 189120, Note_on_c, 0, 67, 80
2, 189500, Note_off_c, 0, 71, 100
2, 189504, Note_on_c, 0, 62, 80
2, 189884, Note_off_c, 0, 67, 100
2, 189888, Note_on_c, 0, 59, 80
2, 190268, Note_off_c, 0, 62, 100
2, 190272, Note_on_c, 0, 67, 80
2, 190652, Note_off_c, 0, 59, 100
2, 190656, Note_on_c, 0, 62, 80
2, 191036, Note_off_c, 0, 67, 100
2, 191040, Note_on_c, 0, 58, 80
2, 191420, Note_off_c, 0, 62, 100
2, 191424, Note_on_c, 0, 79, 80
2, 191804, Note_off_c, 0, 58, 100
2, 191808, Note_on_c, 0, 74, 80
2, 192188, Note_off_c, 0, 79, 100
2, 192192, Note_on_c, 0, 70, 80
2, 192572, Note_off_c, 0, 74, 100
2, 192576, Note_on_c, 0, 77, 80
2, 192956, Note_off_c, 0, 70, 100
2, 192960, Note_on_c, 0, 72, 80
2, 193340, Note_off_c, 0, 77, 100
2, 193344, Note_on_c, 0, 69, 80
2, 193724, Note_off_c, 0, 72, 100
2, 193728, Note_on_c, 0, 65, 80
2, 194108, Note_off_c, 0, 69, 100
2, 194112, Note_on_c, 0, 60, 80
2, 194492, Note_off_c, 0, 65, 100
2, 194496, Note_on_c, 0, 57, 80
2, 194876, Note_off_c, 0, 60, 100
2, 194880, Note_on_c, 0, 65, 80
2, 195260, Note_off_c, 0, 57, 100
2, 195264, Note_on_c, 0, 60, 80
2, 195644, Note_off_c, 0, 65, 100
2, 195648, Note_on_c, 0, 56, 80
2, 196028, Note_off_c, 0, 60, 100
2, 196032, Note_on_c, 0, 77, 80
2, 196412, Note_off_c, 0, 56, 100
2, 196416, Note_on_c, 0, 72, 80
2, 196796, Note_off_c, 0, 77, 100
2, 196800, Note_on_c, 0, 68, 80
2, 197180, Note_off_c, 0, 72, 100
2, 197184, Note_on_c, 0, 75, 80
2, 197564, Note_off_c, 0, 68, 100
2, 197568, Note_on_c, 0, 72, 80
2, 197948, Note_off_c, 0, 75, 100
2, 197952, Note_on_c, 0, 67, 80
2, 198144, Control_c, 0, 64, 127
2, 198332, Note_off_c, 0, 72, 100
2, 198336, Note_on_c, 0, 75, 110
2, 198336, Note_on_c, 0, 63, 110
2, 198716, Note_off_c, 0, 67, 100
2, 198720, Note_on_c, 0, 68, 110
2, 199100, Note_off_c, 0, 75, 100
2, 199100, Note_off_c, 0, 63, 100
2, 199104, Note_on_c, 0, 67, 110
2, 199288, Control_c, 0, 64, 0
2, 199296, Control_c, 0, 64, 127
2, 199484, Note_off_c, 0, 68, 100
2, 199488, Note_on_c, 0, 74, 110
2, 199488, Note_on_c, 0, 62, 110
2, 199868, Note_off_c, 0, 67, 100
2, 199872, Note_on_c, 0, 70, 110
2, 200252, Note_off_c, 0, 74, 100
2, 200252, Note_off_c, 0, 62, 100
2, 200256, Note_on_c, 0, 67, 110
2, 200440, Control_c, 0, 64, 0
2, 200448, Control_c, 0, 64, 127
2, 200636, Note_off_c, 0, 70, 100
2, 200640, Note_on_c, 0, 74, 110
2, 200640, Note_on_c, 0, 62, 110
2, 201020, Note_off_c, 0, 67, 100
2, 201024, Note_on_c, 0, 69, 110
2, 201404, Note_off_c, 0, 74, 100
2, 201404, Note_off_c, 0, 62, 100
2, 201408, Note_on_c, 0, 66, 110
2, 201592, Control_c, 0, 64, 0
2, 201600, Note_on_c, 0, 67, 110
2, 201788, Note_off_c, 0, 69, 100
2, 202172, Note_off_c, 0, 66, 100
2, 202364, Note_off_c, 0, 67, 100
2, 202944, Note_on_c, 0, 58, 80
2, 203328, Note_on_c, 0, 53, 80
2, 203708, Note_off_c, 0, 58, 100
2, 203712, Note_on_c, 0, 49, 80
2, 204092, Note_off_c, 0, 53, 100
2, 204096, Note_on_c, 0, 58, 80
2, 204476, Note_off_c, 0, 49, 100
2, 204480, Note_on_c, 0, 52, 80
2, 204860, Note_off_c, 0, 58, 100
2, 204864, Note_on_c, 0, 48, 80
2, 205244, Note_off_c, 0, 52, 100
2, 205248, Note_on_c, 0, 70, 80
2, 205628, Note_off_c, 0, 48, 100
2, 205632, Note_on_c, 0, 67, 80
2, 206012, Note_off_c, 0, 70, 100
2, 206016, Note_on_c, 0, 60, 80
2, 206396, Note_off_c, 0, 67, 100
2, 206400, Note_on_c, 0, 68, 80
2, 206780, Note_off_c, 0, 60, 100
2, 206784, Note_on_c, 0, 65, 80
2, 207164, Note_off_c, 0, 68, 100
2, 207168, Note_on_c, 0, 60, 80
2, 207548, Note_off_c, 0, 65, 100
2, 207552, Note_on_c, 0, 56, 80
2, 207932, Note_off_c, 0, 60, 100
2, 207936, Note_on_c, 0, 51, 80
2, 208316, Note_off_c, 0, 56, 100
2, 208320, Note_on_c, 0, 48, 80
2, 208700, Note_off_c, 0, 51, 100
2, 208704, Note_on_c, 0, 55, 80
2, 209084, Note_off_c, 0, 48, 100
2, 209088, Note_on_c, 0, 50, 80
2, 209468, Note_off_c, 0, 55, 100
2, 209472, Note_on_c, 0, 46, 80
2, 209852, Note_off_c, 0, 50, 100
2, 209856, Note_on_c, 0, 77, 80
2, 210236, Note_off_c, 0, 46, 100
2, 210240, Note_on_c, 0, 74, 80
2, 210620, Note_off_c, 0, 77, 100
2, 210624, Note_on_c, 0, 67, 80
2, 211004, Note_off_c, 0, 74, 100
2, 211008, Note_on_c, 0, 75, 80
2, 211388, Note_off_c, 0, 67, 100
2, 211392, Note_on_c, 0, 72, 80
2, 211772, Note_off_c, 0, 75, 100
2, 211776, Note_on_c, 0, 67, 80
2, 212156, Note_off_c, 0, 72, 100
2, 212160, Note_on_c, 0, 48, 80
2, 212540, Note_off_c, 0, 67, 100
2, 212544, Note_on_c, 0, 51, 80
2, 212924, Note_off_c, 0, 48, 100
2, 212928, Note_on_c, 0, 55, 80
2, 213308, Note_off_c, 0, 51, 100
2, 213312, Note_on_c, 0, 60, 80
2, 213692, Note_off_c, 0, 55, 100
2, 213696, Note_on_c, 0, 63, 80
2, 214076, Note_off_c, 0, 60, 100
2, 214080, Note_on_c, 0, 67, 80
2, 214460, Note_off_c, 0, 63, 100
2, 214464, Note_on_c, 0, 80, 80
2, 214844, Note_off_c, 0, 67, 100
2, 214848, Note_on_c, 0, 75, 81
2, 215228, Note_off_c, 0, 80, 100
2, 215232, Note_on_c, 0, 72, 81
2, 215612, Note_off_c, 0, 75, 100
2, 215616, Note_on_c, 0, 80, 82
2, 215996, Note_off_c, 0, 72, 100
2, 216000, Note_on_c, 0, 74, 83
2, 216380, Note_off_c, 0, 80, 100
2, 216384, Note_on_c, 0, 71, 83
2, 216764, Note_off_c, 0, 74, 100
2, 216768, Note_on_c, 0, 68, 84
2, 217148, Note_off_c, 0, 71, 100
2, 217152, Note_on_c, 0, 62, 85
2, 217532, Note_off_c, 0, 68, 100
2, 217536, Note_on_c, 0, 59, 85
2, 217916, Note_off_c, 0, 62, 100
2, 217920, Note_on_c, 0, 67, 86
2, 218300, Note_off_c, 0, 59, 100
2, 218304, Note_on_c, 0, 62, 87
2, 218684, Note_off_c, 0, 67, 100
2, 218688, Note_on_c, 0, 58, 87
2, 219068, Note_off_c, 0, 62, 100
2, 219072, Note_on_c, 0, 79, 88
2, 219452, Note_off_c, 0, 58, 100
2, 219456, Note_on_c, 0, 74, 89
2, 219836, Note_off_c, 0, 79, 100
2, 219840, Note_on_c, 0, 70, 89
2, 220220, Note_off_c, 0, 74, 100
2, 220224, Note_on_c, 0, 79, 90
2, 220604, Note_off_c, 0, 70, 100
2, 220608, Note_on_c, 0, 72, 91
2, 220988, Note_off_c, 0, 79, 100
2, 220992, Note_on_c, 0, 69, 92
2, 221372, Note_off_c, 0, 72, 100
2, 221376, Note_on_c, 0, 67, 92
2, 221756, Note_off_c, 0, 69, 100
2, 221760, Note_on_c, 0, 60, 93
2, 222140, Note_off_c, 0, 67, 100
2, 222144, Note_on_c, 0, 57, 94
2, 222524, Note_off_c, 0, 60, 100
2, 222528, Note_on_c, 0, 65, 94
2, 222908, Note_off_c, 0, 57, 100
2, 222912, Note_on_c, 0, 60, 95
2, 223292, Note_off_c, 0, 65, 100
2, 223296, Note_on_c, 0, 56, 96
2, 223676, Note_off_c, 0, 60, 100
2, 223680, Note_on_c, 0, 77, 96
2, 224060, Note_off_c, 0, 56, 100
2, 224064, Note_on_c, 0, 72, 97
2, 224444, Note_off_c, 0, 77, 100
2, 224448, Note_on_c, 0, 68, 98
2, 224828, Note_off_c, 0, 72, 100
2, 224832, Note_on_c, 0, 75, 98
2, 225212, Note_off_c, 0, 68, 100
2, 225216, Note_on_c, 0, 72, 99
2, 225596, Note_off_c, 0, 75, 100
2, 225600, Note_on_c, 0, 67, 80
2, 225792, Control_c, 0, 64, 127
2, 225980, Note_off_c, 0, 72, 100
2, 225984, Note_on_c, 0, 72, 110
2, 225984, Note_on_c, 0, 60, 110
2, 226364, Note_off_c, 0, 67, 100
2, 226368, Note_on_c, 0, 69, 110
2, 226748, Note_off_c, 0, 72, 100
2, 226748, Note_off_c, 0, 60, 100
2, 226752, Note_on_c, 0, 63, 110
2, 227132, Note_off_c, 0, 69, 100
2, 227136, Note_on_c, 0, 72, 110
2, 227136, Note_on_c, 0, 60, 110
2, 227516, Note_off_c, 0, 63, 100
2, 227520, Note_on_c, 0, 67, 110
2, 227900, Note_off_c, 0, 72, 100
2, 227900, Note_off_c, 0, 60, 100
2, 227904, Note_on_c, 0, 63, 110
2, 228284, Note_off_c, 0, 67, 100
2, 228288, Note_on_c, 0, 71, 110
2, 228288, Note_on_c, 0, 59, 110
2, 228668, Note_off_c, 0, 63, 100
2, 228672, Note_on_c, 0, 67, 110
2, 229052, Note_off_c, 0, 71, 100
2, 229052, Note_off_c, 0, 59, 100
2, 229056, Note_on_c, 0, 62, 110
2, 229240, Control_c, 0, 64, 0
2, 229248, Control_c, 0, 64, 127
2, 229436, Note_off_c, 0, 67, 100
2, 229440, Note_on_c, 0, 72, 110
2, 229440, Note_on_c, 0, 60, 110
2, 229820, Note_off_c, 0, 62, 100
2, 229824, Note_on_c, 0, 67, 110
2, 230204, Note_off_c, 0, 72, 100
2, 230204, Note_off_c, 0, 60, 100
2, 230208, Note_on_c, 0, 64, 110
2, 230588, Note_off_c, 0, 67, 100
2, 230592, Note_on_c, 0, 72, 110
2, 230972, Note_off_c, 0, 64, 100
2, 230976, Note_on_c, 0, 68, 110
2, 231356, Note_off_c, 0, 72, 100
2, 231360, Note_on_c, 0, 65, 110
2, 231740, Note_off_c, 0, 68, 100
2, 231744, Note_on_c, 0, 72, 110
2, 232124, Note_off_c, 0, 65, 100
2, 232128, Note_on_c, 0, 70, 110
2, 232508, Note_off_c, 0, 72, 100
2, 232512, Note_on_c, 0, 67, 110
2, 232892, Note_off_c, 0, 70, 100
2, 232896, Note_on_c, 0, 72, 110
2, 233276, Note_off_c, 0, 67, 100
2, 233280, Note_on_c, 0, 68, 110
2, 233660, Note_off_c, 0, 72, 100
2, 233664, Note_on_c, 0, 65, 80
2, 233848, Control_c, 0, 64, 0
2, 233856, Control_c, 0, 64, 127
2, 234044, Note_off_c, 0, 68, 100
2, 234048, Note_on_c, 0, 84, 120
2, 234048, Note_on_c, 0, 72, 120
2, 234428, Note_off_c, 0, 65, 100
2, 234432, Note_on_c, 0, 76, 120
2, 234812, Note_off_c, 0, 84, 100
2, 234812, Note_off_c, 0, 72, 100
2, 234816, Note_on_c, 0, 79, 120
2, 235196, Note_off_c, 0, 76, 100
2, 235200, Note_on_c, 0, 84, 120
2, 235200, Note_on_c, 0, 72, 120
2, 235580, Note_off_c, 0, 79, 100
2, 235584, Note_on_c, 0, 77, 120
2, 235964, Note_off_c, 0, 84, 100
2, 235964, Note_off_c, 0, 72, 100
2, 235968, Note_on_c, 0, 80, 120
2, 236348, Note_off_c, 0, 77, 100
2, 236352, Note_on_c, 0, 84, 120
2, 236352, Note_on_c, 0, 72, 120
2, 236732, Note_off_c, 0, 80, 100
2, 236736, Note_on_c, 0, 79, 120
2, 237116, Note_off_c, 0, 84, 100
2, 237116, Note_off_c, 0, 72, 100
2, 237120, Note_on_c, 0, 82, 120
2, 237500, Note_off_c, 0, 79, 100
2, 237504, Note_on_c, 0, 84, 120
2, 237504, Note_on_c, 0, 72, 120
2, 237884, Note_off_c, 0, 82, 100
2, 237888, Note_on_c, 0, 77, 120
2, 238268, Note_off_c, 0, 84, 100
2, 238268, Note_off_c, 0, 72, 100
2, 238272, Note_on_c, 0, 80, 120
2, 238456, Control_c, 0, 64, 0
2, 238652, Note_off_c, 0, 77, 100
2, 238656, Note_on_c, 0, 84, 120
2, 239036, Note_off_c, 0, 80, 100
2, 239040, Note_on_c, 0, 79, 120
2, 239420, Note_off_c, 0, 84, 100
2, 239424, Note_on_c, 0, 76, 120
2, 239804, Note_off_c, 0, 79, 100
2, 239808, Note_on_c, 0, 72, 120
2, 240188, Note_off_c, 0, 76, 100
2, 240192, Note_on_c, 0, 67, 120
2, 240572, Note_off_c, 0, 72, 100
2, 240576, Note_on_c, 0, 64, 120
2, 240956, Note_off_c, 0, 67, 100
2, 240960, Note_on_c, 0, 60, 120
2, 241340, Note_off_c, 0, 64, 100
2, 241344, Note_on_c, 0, 55, 120
2, 241724, Note_off_c, 0, 60, 100
2, 241728, Note_on_c, 0, 52, 120
2, 242108, Note_off_c, 0, 55, 100
2, 242112, Note_on_c, 0, 48, 120
2, 242496, Note_on_c, 0, 55, 120
2, 242876, Note_off_c, 0, 52, 100
2, 242880, Note_on_c, 0, 52, 120
2, 243260, Note_off_c, 0, 48, 100
2, 243452, Note_off_c, 0, 52, 100
2, 243456, Note_on_c, 0, 48, 120
2, 243644, Note_off_c, 0, 55, 100
2, 246524, Note_off_c, 0, 48, 100
2, 247296, Control_c, 0, 7, 0
2, 247680, Note_on_c, 0, 48, 1
2, 248060, Note_off_c, 0, 48, 100
2, 248060, End_track
3, 0, Start_track
3, 0, Title_t, "Left"
3, 0, Control_c, 1, 0, 0
3, 0, Program_c, 1, 0
3, 0, Control_c, 1, 7, 100
3, 0, Control_c, 1, 10, 53
3, 0, Control_c, 1, 91, 127
3, 0, Key_signature, -3, "minor"
3, 0, Note_on_c, 1, 36, 80
3, 384, Note_on_c, 1, 43, 80
3, 764, Note_off_c, 1, 36, 100
3, 768, Note_on_c, 1, 46, 80
3, 1148, Note_off_c, 1, 43, 100
3, 1152, Note_on_c, 1, 48, 80
3, 1532, Note_off_c, 1, 46, 100
3, 1536, Note_on_c, 1, 51, 80
3, 1916, Note_off_c, 1, 48, 100
3, 1920, Note_on_c, 1, 55, 80
3, 2300, Note_off_c, 1, 51, 100
3, 2304, Note_on_c, 1, 60, 80
3, 2684, Note_off_c, 1, 55, 100
3, 2688, Note_on_c, 1, 63, 80
3, 3068, Note_off_c, 1, 60, 100
3, 3072, Note_on_c, 1, 67, 80
3, 3452, Note_off_c, 1, 63, 100
3, 3456, Note_on_c, 1, 59, 80
3, 3836, Note_off_c, 1, 67, 100
3, 3840, Note_on_c, 1, 62, 80
3, 4220, Note_off_c, 1, 59, 100
3, 4224, Note_on_c, 1, 67, 80
3, 4604, Note_off_c, 1, 62, 100
3, 4608, Note_on_c, 1, 47, 80
3, 4988, Note_off_c, 1, 67, 100
3, 4992, Note_on_c, 1, 50, 80
3, 5372, Note_off_c, 1, 47, 100
3, 5376, Note_on_c, 1, 55, 80
3, 5756, Note_off_c, 1, 50, 100
3, 5760, Note_on_c, 1, 46, 80
3, 6140, Note_off_c, 1, 55, 100
3, 6144, Note_on_c, 1, 50, 80
3, 6524, Note_off_c, 1, 46, 100
3, 6528, Note_on_c, 1, 55, 80
3, 6908, Note_off_c, 1, 50, 100
3, 6912, Note_on_c, 1, 58, 80
3, 7292, Note_off_c, 1, 55, 100
3, 7296, Note_on_c, 1, 62, 80
3, 7676, Note_off_c, 1, 58, 100
3, 7680, Note_on_c, 1, 67, 80
3, 8060, Note_off_c, 1, 62, 100
3, 8064, Note_on_c, 1, 57, 80
3, 8444, Note_off_c, 1, 67, 100
3, 8448, Note_on_c, 1, 60, 80
3, 8828, Note_off_c, 1, 57, 100
3, 8828, Note_off_c, 1, 60, 100
3, 8832, Note_on_c, 1, 65, 80
3, 9212, Note_off_c, 1, 65, 100
3, 9216, Note_on_c, 1, 45, 80
3, 9596, Note_off_c, 1, 45, 100
3, 9600, Note_on_c, 1, 48, 80
3, 9980, Note_off_c, 1, 48, 100
3, 9984, Note_on_c, 1, 53, 80
3, 10364, Note_off_c, 1, 53, 100
3, 10368, Note_on_c, 1, 44, 80
3, 10748, Note_off_c, 1, 44, 100
3, 10752, Note_on_c, 1, 48, 80
3, 11132, Note_off_c, 1, 48, 100
3, 11136, Note_on_c, 1, 53, 80
3, 11516, Note_off_c, 1, 53, 100
3, 11520, Note_on_c, 1, 56, 80
3, 11900, Note_off_c, 1, 56, 100
3, 11904, Note_on_c, 1, 60, 80
3, 12284, Note_off_c, 1, 60, 100
3, 12288, Note_on_c, 1, 65, 80
3, 12668, Note_off_c, 1, 65, 100
3, 12672, Note_on_c, 1, 55, 80
3, 13052, Note_off_c, 1, 55, 100
3, 13056, Note_on_c, 1, 60, 80
3, 13436, Note_off_c, 1, 60, 100
3, 13440, Note_on_c, 1, 63, 80
3, 13820, Note_off_c, 1, 63, 100
3, 13824, Note_on_c, 1, 48, 110
3, 13824, Note_on_c, 1, 36, 110
3, 14208, Note_on_c, 1, 43, 110
3, 14588, Note_off_c, 1, 48, 100
3, 14588, Note_off_c, 1, 36, 100
3, 14592, Note_on_c, 1, 45, 110
3, 14972, Note_off_c, 1, 43, 100
3, 14976, Note_on_c, 1, 50, 110
3, 14976, Note_on_c, 1, 38, 110
3, 15356, Note_off_c, 1, 45, 100
3, 15360, Note_on_c, 1, 43, 110
3, 15740, Note_off_c, 1, 50, 100
3, 15740, Note_off_c, 1, 38, 100
3, 15744, Note_on_c, 1, 46, 110
3, 16124, Note_off_c, 1, 43, 100
3, 16128, Note_on_c, 1, 50, 110
3, 16128, Note_on_c, 1, 38, 110
3, 16508, Note_off_c, 1, 46, 100
3, 16512, Note_on_c, 1, 42, 110
3, 16892, Note_off_c, 1, 50, 100
3, 16892, Note_off_c, 1, 38, 100
3, 16896, Note_on_c, 1, 45, 110
3, 17276, Note_off_c, 1, 42, 100
3, 17280, Note_on_c, 1, 43, 110
3, 17280, Note_on_c, 1, 31, 110
3, 17660, Note_off_c, 1, 45, 100
3, 17664, Note_on_c, 1, 39, 80
3, 18044, Note_off_c, 1, 43, 100
3, 18044, Note_off_c, 1, 31, 100
3, 18044, Note_off_c, 1, 39, 100
3, 18048, Note_on_c, 1, 38, 80
3, 18428, Note_off_c, 1, 38, 100
3, 18432, Note_on_c, 1, 36, 80
3, 18812, Note_off_c, 1, 36, 100
3, 18816, Note_on_c, 1, 43, 80
3, 19196, Note_off_c, 1, 43, 100
3, 19200, Note_on_c, 1, 46, 80
3, 19580, Note_off_c, 1, 46, 100
3, 19584, Note_on_c, 1, 48, 80
3, 19964, Note_off_c, 1, 48, 100
3, 19968, Note_on_c, 1, 51, 80
3, 20348, Note_off_c, 1, 51, 100
3, 20352, Note_on_c, 1, 55, 80
3, 20732, Note_off_c, 1, 55, 100
3, 20736, Note_on_c, 1, 60, 80
3, 21116, Note_off_c, 1, 60, 100
3, 21120, Note_on_c, 1, 63, 80
3, 21500, Note_off_c, 1, 63, 100
3, 21504, Note_on_c, 1, 67, 80
3, 21884, Note_off_c, 1, 67, 100
3, 21888, Note_on_c, 1, 59, 80
3, 22268, Note_off_c, 1, 59, 100
3, 22272, Note_on_c, 1, 62, 80
3, 22652, Note_off_c, 1, 62, 100
3, 22656, Note_on_c, 1, 67, 80
3, 23036, Note_off_c, 1, 67, 100
3, 23040, Note_on_c, 1, 47, 80
3, 23420, Note_off_c, 1, 47, 100
3, 23424, Note_on_c, 1, 50, 80
3, 23804, Note_off_c, 1, 50, 100
3, 23808, Note_on_c, 1, 55, 80
3, 24188, Note_off_c, 1, 55, 100
3, 24192, Note_on_c, 1, 46, 80
3, 24572, Note_off_c, 1, 46, 100
3, 24576, Note_on_c, 1, 50, 80
3, 24956, Note_off_c, 1, 50, 100
3, 24960, Note_on_c, 1, 55, 80
3, 25340, Note_off_c, 1, 55, 100
3, 25344, Note_on_c, 1, 58, 80
3, 25724, Note_off_c, 1, 58, 100
3, 25728, Note_on_c, 1, 62, 80
3, 26108, Note_off_c, 1, 62, 100
3, 26112, Note_on_c, 1, 67, 80
3, 26492, Note_off_c, 1, 67, 100
3, 26496, Note_on_c, 1, 57, 80
3, 26876, Note_off_c, 1, 57, 100
3, 26880, Note_on_c, 1, 60, 80
3, 27260, Note_off_c, 1, 60, 100
3, 27264, Note_on_c, 1, 65, 80
3, 27644, Note_off_c, 1, 65, 100
3, 27648, Note_on_c, 1, 45, 80
3, 28028, Note_off_c, 1, 45, 100
3, 28032, Note_on_c, 1, 48, 80
3, 28412, Note_off_c, 1, 48, 100
3, 28416, Note_on_c, 1, 53, 80
3, 28796, Note_off_c, 1, 53, 100
3, 28800, Note_on_c, 1, 44, 80
3, 29180, Note_off_c, 1, 44, 100
3, 29184, Note_on_c, 1, 48, 80
3, 29564, Note_off_c, 1, 48, 100
3, 29568, Note_on_c, 1, 53, 80
3, 29948, Note_off_c, 1, 53, 100
3, 29952, Note_on_c, 1, 56, 80
3, 30332, Note_off_c, 1, 56, 100
3, 30336, Note_on_c, 1, 60, 80
3, 30716, Note_off_c, 1, 60, 100
3, 30720, Note_on_c, 1, 65, 80
3, 31100, Note_off_c, 1, 65, 100
3, 31104, Note_on_c, 1, 55, 80
3, 31484, Note_off_c, 1, 55, 100
3, 31488, Note_on_c, 1, 60, 80
3, 31868, Note_off_c, 1, 60, 100
3, 31872, Note_on_c, 1, 63, 80
3, 32252, Note_off_c, 1, 63, 100
3, 32256, Note_on_c, 1, 48, 110
3, 32256, Note_on_c, 1, 36, 110
3, 32640, Note_on_c, 1, 43, 110
3, 33020, Note_off_c, 1, 48, 100
3, 33020, Note_off_c, 1, 36, 100
3, 33024, Note_on_c, 1, 45, 110
3, 33404, Note_off_c, 1, 43, 100
3, 33408, Note_on_c, 1, 50, 110
3, 33408, Note_on_c, 1, 38, 110
3, 33788, Note_off_c, 1, 45, 100
3, 33792, Note_on_c, 1, 43, 110
3, 34172, Note_off_c, 1, 50, 100
3, 34172, Note_off_c, 1, 38, 100
3, 34176, Note_on_c, 1, 46, 110
3, 34556, Note_off_c, 1, 43, 100
3, 34560, Note_on_c, 1, 50, 110
3, 34560, Note_on_c, 1, 38, 110
3, 34940, Note_off_c, 1, 46, 100
3, 34944, Note_on_c, 1, 42, 110
3, 35324, Note_off_c, 1, 50, 100
3, 35324, Note_off_c, 1, 38, 100
3, 35328, Note_on_c, 1, 45, 110
3, 35708, Note_off_c, 1, 42, 100
3, 35712, Note_on_c, 1, 43, 110
3, 35712, Note_on_c, 1, 31, 110
3, 36092, Note_off_c, 1, 45, 100
3, 36092, Note_off_c, 1, 43, 100
3, 36092, Note_off_c, 1, 31, 100
3, 36096, Note_on_c, 1, 41, 110
3, 36476, Note_off_c, 1, 41, 100
3, 36480, Note_on_c, 1, 40, 110
3, 36860, Note_off_c, 1, 40, 100
3, 36864, Note_on_c, 1, 37, 80
3, 37244, Note_off_c, 1, 37, 100
3, 37248, Note_on_c, 1, 41, 80
3, 37628, Note_off_c, 1, 41, 100
3, 37632, Note_on_c, 1, 46, 80
3, 38012, Note_off_c, 1, 46, 100
3, 38016, Note_on_c, 1, 36, 80
3, 38396, Note_off_c, 1, 36, 100
3, 38400, Note_on_c, 1, 40, 80
3, 38780, Note_off_c, 1, 40, 100
3, 38784, Note_on_c, 1, 46, 80
3, 39164, Note_off_c, 1, 46, 100
3, 39168, Note_on_c, 1, 40, 80
3, 39548, Note_off_c, 1, 40, 100
3, 39552, Note_on_c, 1, 43, 80
3, 39932, Note_off_c, 1, 43, 100
3, 39936, Note_on_c, 1, 48, 80
3, 40316, Note_off_c, 1, 48, 100
3, 40320, Note_on_c, 1, 41, 80
3, 40700, Note_off_c, 1, 41, 100
3, 40704, Note_on_c, 1, 44, 80
3, 41084, Note_off_c, 1, 44, 100
3, 41088, Note_on_c, 1, 48, 80
3, 41468, Note_off_c, 1, 48, 100
3, 41472, Note_on_c, 1, 36, 80
3, 41852, Note_off_c, 1, 36, 100
3, 41856, Note_on_c, 1, 39, 80
3, 42236, Note_off_c, 1, 39, 100
3, 42240, Note_on_c, 1, 44, 80
3, 42620, Note_off_c, 1, 44, 100
3, 42624, Note_on_c, 1, 35, 80
3, 43004, Note_off_c, 1, 35, 100
3, 43008, Note_on_c, 1, 38, 80
3, 43388, Note_off_c, 1, 38, 100
3, 43392, Note_on_c, 1, 43, 80
3, 43772, Note_off_c, 1, 43, 100
3, 43776, Note_on_c, 1, 47, 80
3, 44156, Note_off_c, 1, 47, 100
3, 44160, Note_on_c, 1, 50, 80
3, 44540, Note_off_c, 1, 50, 100
3, 44544, Note_on_c, 1, 55, 80
3, 44924, Note_off_c, 1, 55, 100
3, 44928, Note_on_c, 1, 48, 80
3, 45308, Note_off_c, 1, 48, 100
3, 45312, Note_on_c, 1, 51, 80
3, 45692, Note_off_c, 1, 51, 100
3, 45696, Note_on_c, 1, 55, 80
3, 46076, Note_off_c, 1, 55, 100
3, 46080, Note_on_c, 1, 36, 80
3, 46460, Note_off_c, 1, 36, 100
3, 46464, Note_on_c, 1, 43, 80
3, 46844, Note_off_c, 1, 43, 100
3, 46848, Note_on_c, 1, 46, 80
3, 47228, Note_off_c, 1, 46, 100
3, 47232, Note_on_c, 1, 48, 80
3, 47612, Note_off_c, 1, 48, 100
3, 47616, Note_on_c, 1, 51, 80
3, 47996, Note_off_c, 1, 51, 100
3, 48000, Note_on_c, 1, 55, 80
3, 48380, Note_off_c, 1, 55, 100
3, 48384, Note_on_c, 1, 60, 80
3, 48764, Note_off_c, 1, 60, 100
3, 48768, Note_on_c, 1, 63, 82
3, 49148, Note_off_c, 1, 63, 100
3, 49152, Note_on_c, 1, 68, 85
3, 49532, Note_off_c, 1, 68, 100
3, 49536, Note_on_c, 1, 59, 88
3, 49916, Note_off_c, 1, 59, 100
3, 49920, Note_on_c, 1, 62, 91
3, 50300, Note_off_c, 1, 62, 100
3, 50304, Note_on_c, 1, 68, 94
3, 50684, Note_off_c, 1, 68, 100
3, 50688, Note_on_c, 1, 47, 95
3, 51068, Note_off_c, 1, 47, 100
3, 51072, Note_on_c, 1, 50, 95
3, 51452, Note_off_c, 1, 50, 100
3, 51456, Note_on_c, 1, 56, 95
3, 51836, Note_off_c, 1, 56, 100
3, 51840, Note_on_c, 1, 46, 95
3, 52220, Note_off_c, 1, 46, 100
3, 52224, Note_on_c, 1, 50, 95
3, 52604, Note_off_c, 1, 50, 100
3, 52608, Note_on_c, 1, 55, 95
3, 52988, Note_off_c, 1, 55, 100
3, 52992, Note_on_c, 1, 58, 95
3, 53372, Note_off_c, 1, 58, 100
3, 53376, Note_on_c, 1, 62, 95
3, 53756, Note_off_c, 1, 62, 100
3, 53760, Note_on_c, 1, 67, 95
3, 54140, Note_off_c, 1, 67, 100
3, 54144, Note_on_c, 1, 57, 95
3, 54524, Note_off_c, 1, 57, 100
3, 54528, Note_on_c, 1, 60, 95
3, 54908, Note_off_c, 1, 60, 100
3, 54912, Note_on_c, 1, 67, 95
3, 55292, Note_off_c, 1, 67, 100
3, 55296, Note_on_c, 1, 45, 95
3, 55676, Note_off_c, 1, 45, 100
3, 55680, Note_on_c, 1, 48, 95
3, 56060, Note_off_c, 1, 48, 100
3, 56064, Note_on_c, 1, 55, 95
3, 56444, Note_off_c, 1, 55, 100
3, 56448, Note_on_c, 1, 44, 95
3, 56828, Note_off_c, 1, 44, 100
3, 56832, Note_on_c, 1, 48, 95
3, 57212, Note_off_c, 1, 48, 100
3, 57216, Note_on_c, 1, 53, 95
3, 57596, Note_off_c, 1, 53, 100
3, 57600, Note_on_c, 1, 56, 95
3, 57980, Note_off_c, 1, 56, 100
3, 57984, Note_on_c, 1, 60, 95
3, 58364, Note_off_c, 1, 60, 100
3, 58368, Note_on_c, 1, 65, 95
3, 58748, Note_off_c, 1, 65, 100
3, 58752, Note_on_c, 1, 55, 95
3, 59132, Note_off_c, 1, 55, 100
3, 59136, Note_on_c, 1, 60, 95
3, 59516, Note_off_c, 1, 60, 100
3, 59520, Note_on_c, 1, 63, 95
3, 59900, Note_off_c, 1, 63, 100
3, 59904, Note_on_c, 1, 54, 110
3, 59904, Note_on_c, 1, 42, 110
3, 60288, Note_on_c, 1, 48, 110
3, 60668, Note_off_c, 1, 54, 100
3, 60668, Note_off_c, 1, 42, 100
3, 60672, Note_on_c, 1, 51, 110
3, 61052, Note_off_c, 1, 48, 100
3, 61056, Note_on_c, 1, 55, 110
3, 61056, Note_on_c, 1, 43, 110
3, 61436, Note_off_c, 1, 51, 100
3, 61440, Note_on_c, 1, 48, 110
3, 61820, Note_off_c, 1, 55, 100
3, 61820, Note_off_c, 1, 43, 100
3, 61824, Note_on_c, 1, 51, 110
3, 62204, Note_off_c, 1, 48, 100
3, 62208, Note_on_c, 1, 55, 110
3, 62208, Note_on_c, 1, 43, 110
3, 62588, Note_off_c, 1, 51, 100
3, 62592, Note_on_c, 1, 47, 110
3, 62972, Note_off_c, 1, 55, 100
3, 62972, Note_off_c, 1, 43, 100
3, 62976, Note_on_c, 1, 50, 110
3, 63356, Note_off_c, 1, 47, 100
3, 63360, Note_on_c, 1, 48, 110
3, 63360, Note_on_c, 1, 36, 110
3, 63740, Note_off_c, 1, 50, 100
3, 63744, Note_on_c, 1, 35, 110
3, 64124, Note_off_c, 1, 48, 100
3, 64124, Note_off_c, 1, 36, 100
3, 64124, Note_off_c, 1, 35, 100
3, 64128, Note_on_c, 1, 36, 110
3, 64508, Note_off_c, 1, 36, 100
3, 64512, Note_on_c, 1, 37, 80
3, 64892, Note_off_c, 1, 37, 100
3, 64896, Note_on_c, 1, 41, 80
3, 65276, Note_off_c, 1, 41, 100
3, 65280, Note_on_c, 1, 46, 80
3, 65660, Note_off_c, 1, 46, 100
3, 65664, Note_on_c, 1, 36, 80
3, 66044, Note_off_c, 1, 36, 100
3, 66048, Note_on_c, 1, 40, 80
3, 66428, Note_off_c, 1, 40, 100
3, 66432, Note_on_c, 1, 46, 80
3, 66812, Note_off_c, 1, 46, 100
3, 66816, Note_on_c, 1, 40, 80
3, 67196, Note_off_c, 1, 40, 100
3, 67200, Note_on_c, 1, 43, 80
3, 67580, Note_off_c, 1, 43, 100
3, 67584, Note_on_c, 1, 48, 80
3, 67964, Note_off_c, 1, 48, 100
3, 67968, Note_on_c, 1, 41, 80
3, 68348, Note_off_c, 1, 41, 100
3, 68352, Note_on_c, 1, 44, 80
3, 68732, Note_off_c, 1, 44, 100
3, 68736, Note_on_c, 1, 48, 80
3, 69116, Note_off_c, 1, 48, 100
3, 69120, Note_on_c, 1, 36, 80
3, 69500, Note_off_c, 1, 36, 100
3, 69504, Note_on_c, 1, 39, 80
3, 69884, Note_off_c, 1, 39, 100
3, 69888, Note_on_c, 1, 44, 80
3, 70268, Note_off_c, 1, 44, 100
3, 70272, Note_on_c, 1, 35, 80
3, 70652, Note_off_c, 1, 35, 100
3, 70656, Note_on_c, 1, 38, 80
3, 71036, Note_off_c, 1, 38, 100
3, 71040, Note_on_c, 1, 43, 80
3, 71420, Note_off_c, 1, 43, 100
3, 71424, Note_on_c, 1, 47, 80
3, 71804, Note_off_c, 1, 47, 100
3, 71808, Note_on_c, 1, 50, 80
3, 72188, Note_off_c, 1, 50, 100
3, 72192, Note_on_c, 1, 55, 80
3, 72572, Note_off_c, 1, 55, 100
3, 72576, Note_on_c, 1, 48, 80
3, 72956, Note_off_c, 1, 48, 100
3, 72960, Note_on_c, 1, 51, 80
3, 73340, Note_off_c, 1, 51, 100
3, 73344, Note_on_c, 1, 55, 80
3, 73724, Note_off_c, 1, 55, 100
3, 73728, Note_on_c, 1, 36, 80
3, 74108, Note_off_c, 1, 36, 100
3, 74112, Note_on_c, 1, 43, 80
3, 74492, Note_off_c, 1, 43, 100
3, 74496, Note_on_c, 1, 46, 80
3, 74876, Note_off_c, 1, 46, 100
3, 74880, Note_on_c, 1, 48, 80
3, 75260, Note_off_c, 1, 48, 100
3, 75264, Note_on_c, 1, 51, 80
3, 75644, Note_off_c, 1, 51, 100
3, 75648, Note_on_c, 1, 55, 80
3, 76028, Note_off_c, 1, 55, 100
3, 76032, Note_on_c, 1, 60, 80
3, 76412, Note_off_c, 1, 60, 100
3, 76416, Note_on_c, 1, 63, 82
3, 76796, Note_off_c, 1, 63, 100
3, 76800, Note_on_c, 1, 68, 85
3, 77180, Note_off_c, 1, 68, 100
3, 77184, Note_on_c, 1, 59, 88
3, 77564, Note_off_c, 1, 59, 100
3, 77568, Note_on_c, 1, 62, 91
3, 77948, Note_off_c, 1, 62, 100
3, 77952, Note_on_c, 1, 68, 94
3, 78332, Note_off_c, 1, 68, 100
3, 78336, Note_on_c, 1, 47, 95
3, 78716, Note_off_c, 1, 47, 100
3, 78720, Note_on_c, 1, 50, 95
3, 79100, Note_off_c, 1, 50, 100
3, 79104, Note_on_c, 1, 56, 95
3, 79484, Note_off_c, 1, 56, 100
3, 79488, Note_on_c, 1, 46, 95
3, 79868, Note_off_c, 1, 46, 100
3, 79872, Note_on_c, 1, 50, 95
3, 80252, Note_off_c, 1, 50, 100
3, 80256, Note_on_c, 1, 55, 95
3, 80636, Note_off_c, 1, 55, 100
3, 80640, Note_on_c, 1, 58, 95
3, 81020, Note_off_c, 1, 58, 100
3, 81024, Note_on_c, 1, 62, 95
3, 81404, Note_off_c, 1, 62, 100
3, 81408, Note_on_c, 1, 67, 95
3, 81788, Note_off_c, 1, 67, 100
3, 81792, Note_on_c, 1, 57, 95
3, 82172, Note_off_c, 1, 57, 100
3, 82176, Note_on_c, 1, 60, 95
3, 82556, Note_off_c, 1, 60, 100
3, 82560, Note_on_c, 1, 67, 95
3, 82940, Note_off_c, 1, 67, 100
3, 82944, Note_on_c, 1, 45, 95
3, 83324, Note_off_c, 1, 45, 100
3, 83328, Note_on_c, 1, 48, 95
3, 83708, Note_off_c, 1, 48, 100
3, 83712, Note_on_c, 1, 55, 95
3, 84092, Note_off_c, 1, 55, 100
3, 84096, Note_on_c, 1, 44, 95
3, 84476, Note_off_c, 1, 44, 100
3, 84480, Note_on_c, 1, 48, 95
3, 84860, Note_off_c, 1, 48, 100
3, 84864, Note_on_c, 1, 53, 95
3, 85244, Note_off_c, 1, 53, 100
3, 85248, Note_on_c, 1, 56, 95
3, 85628, Note_off_c, 1, 56, 100
3, 85632, Note_on_c, 1, 60, 95
3, 86012, Note_off_c, 1, 60, 100
3, 86016, Note_on_c, 1, 65, 95
3, 86396, Note_off_c, 1, 65, 100
3, 86400, Note_on_c, 1, 55, 95
3, 86780, Note_off_c, 1, 55, 100
3, 86784, Note_on_c, 1, 60, 95
3, 87164, Note_off_c, 1, 60, 100
3, 87168, Note_on_c, 1, 63, 95
3, 87548, Note_off_c, 1, 63, 100
3, 87552, Note_on_c, 1, 54, 110
3, 87552, Note_on_c, 1, 42, 110
3, 87936, Note_on_c, 1, 48, 110
3, 88316, Note_off_c, 1, 54, 100
3, 88316, Note_off_c, 1, 42, 100
3, 88320, Note_on_c, 1, 51, 110
3, 88700, Note_off_c, 1, 48, 100
3, 88704, Note_on_c, 1, 55, 110
3, 88704, Note_on_c, 1, 43, 110
3, 89084, Note_off_c, 1, 51, 100
3, 89088, Note_on_c, 1, 48, 110
3, 89468, Note_off_c, 1, 55, 100
3, 89468, Note_off_c, 1, 43, 100
3, 89472, Note_on_c, 1, 51, 110
3, 89852, Note_off_c, 1, 48, 100
3, 89856, Note_on_c, 1, 55, 110
3, 89856, Note_on_c, 1, 43, 110
3, 90236, Note_off_c, 1, 51, 100
3, 90240, Note_on_c, 1, 47, 110
3, 90620, Note_off_c, 1, 55, 100
3, 90620, Note_off_c, 1, 43, 100
3, 90624, Note_on_c, 1, 50, 110
3, 91004, Note_off_c, 1, 47, 100
3, 91008, Note_on_c, 1, 48, 110
3, 91008, Note_on_c, 1, 36, 110
3, 91388, Note_off_c, 1, 50, 100
3, 91388, Note_off_c, 1, 48, 100
3, 91388, Note_off_c, 1, 36, 100
3, 91392, Note_on_c, 1, 39, 110
3, 91772, Note_off_c, 1, 39, 100
3, 91776, Note_on_c, 1, 43, 110
3, 92156, Note_off_c, 1, 43, 100
3, 92160, Note_on_c, 1, 48, 110
3, 92540, Note_off_c, 1, 48, 100
3, 92928, Note_on_c, 1, 48, 80
3, 92928, Note_on_c, 1, 44, 80
3, 93308, Note_off_c, 1, 48, 100
3, 93308, Note_off_c, 1, 44, 100
3, 93312, Note_on_c, 1, 48, 80
3, 93312, Note_on_c, 1, 44, 80
3, 93692, Note_off_c, 1, 48, 100
3, 93692, Note_off_c, 1, 44, 100
3, 94080, Note_on_c, 1, 48, 80
3, 94080, Note_on_c, 1, 44, 80
3, 94460, Note_off_c, 1, 48, 100
3, 94460, Note_off_c, 1, 44, 100
3, 94464, Note_on_c, 1, 48, 80
3, 94464, Note_on_c, 1, 44, 80
3, 94844, Note_off_c, 1, 48, 100
3, 94844, Note_off_c, 1, 44, 100
3, 95232, Note_on_c, 1, 48, 80
3, 95232, Note_on_c, 1, 44, 80
3, 95612, Note_off_c, 1, 48, 100
3, 95612, Note_off_c, 1, 44, 100
3, 95616, Note_on_c, 1, 48, 80
3, 95616, Note_on_c, 1, 44, 80
3, 95996, Note_off_c, 1, 48, 100
3, 95996, Note_off_c, 1, 44, 100
3, 96384, Note_on_c, 1, 51, 80
3, 96384, Note_on_c, 1, 48, 80
3, 96384, Note_on_c, 1, 44, 80
3, 96764, Note_off_c, 1, 51, 100
3, 96764, Note_off_c, 1, 48, 100
3, 96764, Note_off_c, 1, 44, 100
3, 96768, Note_on_c, 1, 51, 81
3, 96768, Note_on_c, 1, 48, 81
3, 96768, Note_on_c, 1, 44, 81
3, 97148, Note_off_c, 1, 51, 100
3, 97148, Note_off_c, 1, 48, 100
3, 97148, Note_off_c, 1, 44, 100
3, 97536, Note_on_c, 1, 51, 85
3, 97536, Note_on_c, 1, 48, 85
3, 97536, Note_on_c, 1, 44, 85
3, 97916, Note_off_c, 1, 51, 100
3, 97916, Note_off_c, 1, 48, 100
3, 97916, Note_off_c, 1, 44, 100
3, 97920, Note_on_c, 1, 51, 87
3, 97920, Note_on_c, 1, 48, 87
3, 97920, Note_on_c, 1, 44, 87
3, 98300, Note_off_c, 1, 51, 100
3, 98300, Note_off_c, 1, 48, 100
3, 98300, Note_off_c, 1, 44, 100
3, 98688, Note_on_c, 1, 51, 91
3, 98688, Note_on_c, 1, 48, 91
3, 98688, Note_on_c, 1, 44, 91
3, 99068, Note_off_c, 1, 51, 100
3, 99068, Note_off_c, 1, 48, 100
3, 99068, Note_off_c, 1, 44, 100
3, 99072, Note_on_c, 1, 51, 93
3, 99072, Note_on_c, 1, 48, 93
3, 99072, Note_on_c, 1, 44, 93
3, 99452, Note_off_c, 1, 51, 100
3, 99452, Note_off_c, 1, 48, 100
3, 99452, Note_off_c, 1, 44, 100
3, 99840, Note_on_c, 1, 51, 97
3, 99840, Note_on_c, 1, 48, 97
3, 99840, Note_on_c, 1, 44, 97
3, 100220, Note_off_c, 1, 51, 100
3, 100220, Note_off_c, 1, 48, 100
3, 100220, Note_off_c, 1, 44, 100
3, 100224, Note_on_c, 1, 51, 99
3, 100224, Note_on_c, 1, 48, 99
3, 100224, Note_on_c, 1, 44, 99
3, 100604, Note_off_c, 1, 51, 100
3, 100604, Note_off_c, 1, 48, 100
3, 100604, Note_off_c, 1, 44, 100
3, 100992, Note_on_c, 1, 51, 103
3, 100992, Note_on_c, 1, 48, 103
3, 100992, Note_on_c, 1, 44, 103
3, 101372, Note_off_c, 1, 51, 100
3, 101372, Note_off_c, 1, 48, 100
3, 101372, Note_off_c, 1, 44, 100
3, 101376, Note_on_c, 1, 51, 105
3, 101376, Note_on_c, 1, 48, 105
3, 101376, Note_on_c, 1, 44, 105
3, 101756, Note_off_c, 1, 51, 100
3, 101756, Note_off_c, 1, 48, 100
3, 101756, Note_off_c, 1, 44, 100
3, 102144, Note_on_c, 1, 51, 109
3, 102144, Note_on_c, 1, 48, 109
3, 102144, Note_on_c, 1, 44, 109
3, 102524, Note_off_c, 1, 51, 100
3, 102524, Note_off_c, 1, 48, 100
3, 102524, Note_off_c, 1, 44, 100
3, 102528, Note_on_c, 1, 54, 120
3, 102528, Note_on_c, 1, 51, 120
3, 102528, Note_on_c, 1, 48, 120
3, 102528, Note_on_c, 1, 45, 120
3, 102908, Note_off_c, 1, 54, 100
3, 102908, Note_off_c, 1, 51, 100
3, 102908, Note_off_c, 1, 48, 100
3, 102908, Note_off_c, 1, 45, 100
3, 103296, Note_on_c, 1, 54, 120
3, 103296, Note_on_c, 1, 51, 120
3, 103296, Note_on_c, 1, 48, 120
3, 103296, Note_on_c, 1, 45, 120
3, 103676, Note_off_c, 1, 54, 100
3, 103676, Note_off_c, 1, 51, 100
3, 103676, Note_off_c, 1, 48, 100
3, 103676, Note_off_c, 1, 45, 100
3, 103680, Note_on_c, 1, 54, 120
3, 103680, Note_on_c, 1, 51, 120
3, 103680, Note_on_c, 1, 48, 120
3, 103680, Note_on_c, 1, 45, 120
3, 104060, Note_off_c, 1, 54, 100
3, 104060, Note_off_c, 1, 51, 100
3, 104060, Note_off_c, 1, 48, 100
3, 104060, Note_off_c, 1, 45, 100
3, 104448, Note_on_c, 1, 54, 120
3, 104448, Note_on_c, 1, 51, 120
3, 104448, Note_on_c, 1, 48, 120
3, 104448, Note_on_c, 1, 45, 120
3, 104828, Note_off_c, 1, 54, 100
3, 104828, Note_off_c, 1, 51, 100
3, 104828, Note_off_c, 1, 48, 100
3, 104828, Note_off_c, 1, 45, 100
3, 104832, Note_on_c, 1, 55, 110
3, 104832, Note_on_c, 1, 51, 110
3, 104832, Note_on_c, 1, 46, 110
3, 105212, Note_off_c, 1, 55, 100
3, 105212, Note_off_c, 1, 51, 100
3, 105212, Note_off_c, 1, 46, 100
3, 105600, Note_on_c, 1, 55, 99
3, 105600, Note_on_c, 1, 51, 99
3, 105600, Note_on_c, 1, 46, 99
3, 105980, Note_off_c, 1, 55, 100
3, 105980, Note_off_c, 1, 51, 100
3, 105980, Note_off_c, 1, 46, 100
3, 105984, Note_on_c, 1, 56, 93
3, 105984, Note_on_c, 1, 50, 93
3, 105984, Note_on_c, 1, 46, 93
3, 106364, Note_off_c, 1, 56, 100
3, 106364, Note_off_c, 1, 50, 100
3, 106364, Note_off_c, 1, 46, 100
3, 106752, Note_on_c, 1, 56, 81
3, 106752, Note_on_c, 1, 50, 81
3, 106752, Note_on_c, 1, 46, 81
3, 107132, Note_off_c, 1, 56, 100
3, 107132, Note_off_c, 1, 50, 100
3, 107132, Note_off_c, 1, 46, 100
3, 107136, Note_on_c, 1, 51, 80
3, 107136, Note_on_c, 1, 39, 80
3, 107516, Note_off_c, 1, 51, 100
3, 107516, Note_off_c, 1, 39, 100
3, 108288, Note_on_c, 1, 51, 80
3, 108668, Note_off_c, 1, 51, 100
3, 108672, Note_on_c, 1, 49, 80
3, 109052, Note_off_c, 1, 49, 100
3, 109056, Note_on_c, 1, 46, 80
3, 109436, Note_off_c, 1, 46, 100
3, 109440, Note_on_c, 1, 48, 80
3, 109440, Note_on_c, 1, 44, 80
3, 109820, Note_off_c, 1, 48, 100
3, 109820, Note_off_c, 1, 44, 100
3, 110208, Note_on_c, 1, 48, 80
3, 110208, Note_on_c, 1, 44, 80
3, 110588, Note_off_c, 1, 48, 100
3, 110588, Note_off_c, 1, 44, 100
3, 110592, Note_on_c, 1, 48, 80
3, 110592, Note_on_c, 1, 44, 80
3, 110972, Note_off_c, 1, 48, 100
3, 110972, Note_off_c, 1, 44, 100
3, 111360, Note_on_c, 1, 48, 80
3, 111360, Note_on_c, 1, 44, 80
3, 111740, Note_off_c, 1, 48, 100
3, 111740, Note_off_c, 1, 44, 100
3, 111744, Note_on_c, 1, 48, 80
3, 111744, Note_on_c, 1, 44, 80
3, 112124, Note_off_c, 1, 48, 100
3, 112124, Note_off_c, 1, 44, 100
3, 112512, Note_on_c, 1, 51, 80
3, 112512, Note_on_c, 1, 48, 80
3, 112512, Note_on_c, 1, 44, 80
3, 112892, Note_off_c, 1, 51, 100
3, 112892, Note_off_c, 1, 48, 100
3, 112892, Note_off_c, 1, 44, 100
3, 112896, Note_on_c, 1, 51, 81
3, 112896, Note_on_c, 1, 48, 81
3, 112896, Note_on_c, 1, 44, 81
3, 113276, Note_off_c, 1, 51, 100
3, 113276, Note_off_c, 1, 48, 100
3, 113276, Note_off_c, 1, 44, 100
3, 113664, Note_on_c, 1, 51, 85
3, 113664, Note_on_c, 1, 48, 85
3, 113664, Note_on_c, 1, 44, 85
3, 114044, Note_off_c, 1, 51, 100
3, 114044, Note_off_c, 1, 48, 100
3, 114044, Note_off_c, 1, 44, 100
3, 114048, Note_on_c, 1, 51, 87
3, 114048, Note_on_c, 1, 48, 87
3, 114048, Note_on_c, 1, 44, 87
3, 114428, Note_off_c, 1, 51, 100
3, 114428, Note_off_c, 1, 48, 100
3, 114428, Note_off_c, 1, 44, 100
3, 114816, Note_on_c, 1, 51, 91
3, 114816, Note_on_c, 1, 48, 91
3, 114816, Note_on_c, 1, 44, 91
3, 115196, Note_off_c, 1, 51, 100
3, 115196, Note_off_c, 1, 48, 100
3, 115196, Note_off_c, 1, 44, 100
3, 115200, Note_on_c, 1, 51, 93
3, 115200, Note_on_c, 1, 48, 93
3, 115200, Note_on_c, 1, 44, 93
3, 115580, Note_off_c, 1, 51, 100
3, 115580, Note_off_c, 1, 48, 100
3, 115580, Note_off_c, 1, 44, 100
3, 115968, Note_on_c, 1, 51, 97
3, 115968, Note_on_c, 1, 48, 97
3, 115968, Note_on_c, 1, 44, 97
3, 116348, Note_off_c, 1, 51, 100
3, 116348, Note_off_c, 1, 48, 100
3, 116348, Note_off_c, 1, 44, 100
3, 116352, Note_on_c, 1, 51, 99
3, 116352, Note_on_c, 1, 48, 99
3, 116352, Note_on_c, 1, 44, 99
3, 116732, Note_off_c, 1, 51, 100
3, 116732, Note_off_c, 1, 48, 100
3, 116732, Note_off_c, 1, 44, 100
3, 117120, Note_on_c, 1, 51, 103
3, 117120, Note_on_c, 1, 48, 103
3, 117120, Note_on_c, 1, 44, 103
3, 117500, Note_off_c, 1, 51, 100
3, 117500, Note_off_c, 1, 48, 100
3, 117500, Note_off_c, 1, 44, 100
3, 117504, Note_on_c, 1, 51, 105
3, 117504, Note_on_c, 1, 48, 105
3, 117504, Note_on_c, 1, 44, 105
3, 117884, Note_off_c, 1, 51, 100
3, 117884, Note_off_c, 1, 48, 100
3, 117884, Note_off_c, 1, 44, 100
3, 118272, Note_on_c, 1, 51, 109
3, 118272, Note_on_c, 1, 48, 109
3, 118272, Note_on_c, 1, 44, 109
3, 118652, Note_off_c, 1, 51, 100
3, 118652, Note_off_c, 1, 48, 100
3, 118652, Note_off_c, 1, 44, 100
3, 118656, Note_on_c, 1, 54, 120
3, 118656, Note_on_c, 1, 51, 120
3, 118656, Note_on_c, 1, 48, 120
3, 118656, Note_on_c, 1, 45, 120
3, 119036, Note_off_c, 1, 54, 100
3, 119036, Note_off_c, 1, 51, 100
3, 119036, Note_off_c, 1, 48, 100
3, 119036, Note_off_c, 1, 45, 100
3, 119424, Note_on_c, 1, 54, 120
3, 119424, Note_on_c, 1, 51, 120
3, 119424, Note_on_c, 1, 48, 120
3, 119424, Note_on_c, 1, 45, 120
3, 119804, Note_off_c, 1, 54, 100
3, 119804, Note_off_c, 1, 51, 100
3, 119804, Note_off_c, 1, 48, 100
3, 119804, Note_off_c, 1, 45, 100
3, 119808, Note_on_c, 1, 54, 120
3, 119808, Note_on_c, 1, 51, 120
3, 119808, Note_on_c, 1, 48, 120
3, 119808, Note_on_c, 1, 45, 120
3, 120188, Note_off_c, 1, 54, 100
3, 120188, Note_off_c, 1, 51, 100
3, 120188, Note_off_c, 1, 48, 100
3, 120188, Note_off_c, 1, 45, 100
3, 120576, Note_on_c, 1, 54, 120
3, 120576, Note_on_c, 1, 51, 120
3, 120576, Note_on_c, 1, 48, 120
3, 120576, Note_on_c, 1, 45, 120
3, 120956, Note_off_c, 1, 54, 100
3, 120956, Note_off_c, 1, 51, 100
3, 120956, Note_off_c, 1, 48, 100
3, 120956, Note_off_c, 1, 45, 100
3, 120960, Note_on_c, 1, 55, 120
3, 120960, Note_on_c, 1, 51, 120
3, 120960, Note_on_c, 1, 46, 120
3, 121340, Note_off_c, 1, 55, 100
3, 121340, Note_off_c, 1, 51, 100
3, 121340, Note_off_c, 1, 46, 100
3, 121728, Note_on_c, 1, 55, 103
3, 121728, Note_on_c, 1, 51, 103
3, 121728, Note_on_c, 1, 46, 103
3, 122108, Note_off_c, 1, 55, 100
3, 122108, Note_off_c, 1, 51, 100
3, 122108, Note_off_c, 1, 46, 100
3, 122112, Note_on_c, 1, 56, 96
3, 122112, Note_on_c, 1, 50, 96
3, 122112, Note_on_c, 1, 46, 96
3, 122492, Note_off_c, 1, 56, 100
3, 122492, Note_off_c, 1, 50, 100
3, 122492, Note_off_c, 1, 46, 100
3, 122880, Note_on_c, 1, 56, 81
3, 122880, Note_on_c, 1, 50, 81
3, 122880, Note_on_c, 1, 46, 81
3, 123260, Note_off_c, 1, 56, 100
3, 123260, Note_off_c, 1, 50, 100
3, 123260, Note_off_c, 1, 46, 100
3, 123264, Note_on_c, 1, 51, 80
3, 123264, Note_on_c, 1, 39, 80
3, 123644, Note_off_c, 1, 51, 100
3, 123644, Note_off_c, 1, 39, 100
3, 125184, Note_on_c, 1, 61, 80
3, 125184, Note_on_c, 1, 58, 80
3, 125184, Note_on_c, 1, 51, 80
3, 125564, Note_off_c, 1, 61, 100
3, 125564, Note_off_c, 1, 58, 100
3, 125564, Note_off_c, 1, 51, 100
3, 125568, Note_on_c, 1, 61, 80
3, 125568, Note_on_c, 1, 58, 80
3, 125568, Note_on_c, 1, 51, 80
3, 125948, Note_off_c, 1, 61, 100
3, 125948, Note_off_c, 1, 58, 100
3, 125948, Note_off_c, 1, 51, 100
3, 126336, Note_on_c, 1, 61, 80
3, 126336, Note_on_c, 1, 58, 80
3, 126336, Note_on_c, 1, 51, 80
3, 126716, Note_off_c, 1, 61, 100
3, 126716, Note_off_c, 1, 58, 100
3, 126716, Note_off_c, 1, 51, 100
3, 126720, Note_on_c, 1, 61, 80
3, 126720, Note_on_c, 1, 58, 80
3, 126720, Note_on_c, 1, 51, 80
3, 127100, Note_off_c, 1, 61, 100
3, 127100, Note_off_c, 1, 58, 100
3, 127100, Note_off_c, 1, 51, 100
3, 127488, Note_on_c, 1, 61, 80
3, 127488, Note_on_c, 1, 58, 80
3, 127488, Note_on_c, 1, 51, 80
3, 127868, Note_off_c, 1, 61, 100
3, 127868, Note_off_c, 1, 58, 100
3, 127868, Note_off_c, 1, 51, 100
3, 127872, Note_on_c, 1, 61, 80
3, 127872, Note_on_c, 1, 58, 80
3, 127872, Note_on_c, 1, 51, 80
3, 128252, Note_off_c, 1, 61, 100
3, 128252, Note_off_c, 1, 58, 100
3, 128252, Note_off_c, 1, 51, 100
3, 128640, Note_on_c, 1, 61, 80
3, 128640, Note_on_c, 1, 58, 80
3, 128640, Note_on_c, 1, 51, 80
3, 129020, Note_off_c, 1, 61, 100
3, 129020, Note_off_c, 1, 58, 100
3, 129020, Note_off_c, 1, 51, 100
3, 129024, Note_on_c, 1, 61, 80
3, 129024, Note_on_c, 1, 58, 80
3, 129024, Note_on_c, 1, 51, 80
3, 129404, Note_off_c, 1, 61, 100
3, 129404, Note_off_c, 1, 58, 100
3, 129404, Note_off_c, 1, 51, 100
3, 129792, Note_on_c, 1, 61, 80
3, 129792, Note_on_c, 1, 58, 80
3, 129792, Note_on_c, 1, 51, 80
3, 130172, Note_off_c, 1, 61, 100
3, 130172, Note_off_c, 1, 58, 100
3, 130172, Note_off_c, 1, 51, 100
3, 130176, Note_on_c, 1, 61, 80
3, 130176, Note_on_c, 1, 58, 80
3, 130176, Note_on_c, 1, 51, 80
3, 130556, Note_off_c, 1, 61, 100
3, 130556, Note_off_c, 1, 58, 100
3, 130556, Note_off_c, 1, 51, 100
3, 130944, Note_on_c, 1, 61, 80
3, 130944, Note_on_c, 1, 58, 80
3, 130944, Note_on_c, 1, 51, 80
3, 131324, Note_off_c, 1, 61, 100
3, 131324, Note_off_c, 1, 58, 100
3, 131324, Note_off_c, 1, 51, 100
3, 131328, Note_on_c, 1, 61, 80
3, 131328, Note_on_c, 1, 58, 80
3, 131328, Note_on_c, 1, 51, 80
3, 131708, Note_off_c, 1, 61, 100
3, 131708, Note_off_c, 1, 58, 100
3, 131708, Note_off_c, 1, 51, 100
3, 132096, Note_on_c, 1, 61, 80
3, 132096, Note_on_c, 1, 58, 80
3, 132096, Note_on_c, 1, 51, 80
3, 132476, Note_off_c, 1, 61, 100
3, 132476, Note_off_c, 1, 58, 100
3, 132476, Note_off_c, 1, 51, 100
3, 132480, Note_on_c, 1, 61, 80
3, 132480, Note_on_c, 1, 58, 80
3, 132480, Note_on_c, 1, 51, 80
3, 132860, Note_off_c, 1, 61, 100
3, 132860, Note_off_c, 1, 58, 100
3, 132860, Note_off_c, 1, 51, 100
3, 133248, Note_on_c, 1, 61, 80
3, 133248, Note_on_c, 1, 58, 80
3, 133248, Note_on_c, 1, 51, 80
3, 133628, Note_off_c, 1, 61, 100
3, 133628, Note_off_c, 1, 58, 100
3, 133628, Note_off_c, 1, 51, 100
3, 133632, Note_on_c, 1, 61, 80
3, 133632, Note_on_c, 1, 58, 80
3, 133632, Note_on_c, 1, 51, 80
3, 134012, Note_off_c, 1, 61, 100
3, 134012, Note_off_c, 1, 58, 100
3, 134012, Note_off_c, 1, 51, 100
3, 134400, Note_on_c, 1, 61, 80
3, 134400, Note_on_c, 1, 58, 80
3, 134400, Note_on_c, 1, 51, 80
3, 134780, Note_off_c, 1, 61, 100
3, 134780, Note_off_c, 1, 58, 100
3, 134780, Note_off_c, 1, 51, 100
3, 134784, Note_on_c, 1, 61, 80
3, 134784, Note_on_c, 1, 58, 80
3, 134784, Note_on_c, 1, 51, 80
3, 135164, Note_off_c, 1, 61, 100
3, 135164, Note_off_c, 1, 58, 100
3, 135164, Note_off_c, 1, 51, 100
3, 135552, Note_on_c, 1, 61, 80
3, 135552, Note_on_c, 1, 58, 80
3, 135552, Note_on_c, 1, 51, 80
3, 135932, Note_off_c, 1, 61, 100
3, 135932, Note_off_c, 1, 58, 100
3, 135932, Note_off_c, 1, 51, 100
3, 135936, Note_on_c, 1, 61, 80
3, 135936, Note_on_c, 1, 58, 80
3, 135936, Note_on_c, 1, 51, 80
3, 136316, Note_off_c, 1, 61, 100
3, 136316, Note_off_c, 1, 58, 100
3, 136316, Note_off_c, 1, 51, 100
3, 136704, Note_on_c, 1, 61, 80
3, 136704, Note_on_c, 1, 58, 80
3, 136704, Note_on_c, 1, 51, 80
3, 137084, Note_off_c, 1, 61, 100
3, 137084, Note_off_c, 1, 58, 100
3, 137084, Note_off_c, 1, 51, 100
3, 137088, Note_on_c, 1, 49, 80
3, 137088, Note_on_c, 1, 46, 80
3, 137088, Note_on_c, 1, 39, 80
3, 137468, Note_off_c, 1, 49, 100
3, 137468, Note_off_c, 1, 46, 100
3, 137468, Note_off_c, 1, 39, 100
3, 137856, Note_on_c, 1, 49, 82
3, 137856, Note_on_c, 1, 46, 82
3, 137856, Note_on_c, 1, 39, 82
3, 138236, Note_off_c, 1, 49, 100
3, 138236, Note_off_c, 1, 46, 100
3, 138236, Note_off_c, 1, 39, 100
3, 138240, Note_on_c, 1, 49, 83
3, 138240, Note_on_c, 1, 46, 83
3, 138240, Note_on_c, 1, 39, 83
3, 138620, Note_off_c, 1, 49, 100
3, 138620, Note_off_c, 1, 46, 100
3, 138620, Note_off_c, 1, 39, 100
3, 139008, Note_on_c, 1, 49, 85
3, 139008, Note_on_c, 1, 46, 85
3, 139008, Note_on_c, 1, 39, 85
3, 139388, Note_off_c, 1, 49, 100
3, 139388, Note_off_c, 1, 46, 100
3, 139388, Note_off_c, 1, 39, 100
3, 139392, Note_on_c, 1, 49, 87
3, 139392, Note_on_c, 1, 46, 87
3, 139392, Note_on_c, 1, 39, 87
3, 139772, Note_off_c, 1, 49, 100
3, 139772, Note_off_c, 1, 46, 100
3, 139772, Note_off_c, 1, 39, 100
3, 140160, Note_on_c, 1, 49, 89
3, 140160, Note_on_c, 1, 46, 89
3, 140160, Note_on_c, 1, 39, 89
3, 140540, Note_off_c, 1, 49, 100
3, 140540, Note_off_c, 1, 46, 100
3, 140540, Note_off_c, 1, 39, 100
3, 140544, Note_on_c, 1, 49, 90
3, 140544, Note_on_c, 1, 46, 90
3, 140544, Note_on_c, 1, 39, 90
3, 140924, Note_off_c, 1, 49, 100
3, 140924, Note_off_c, 1, 46, 100
3, 140924, Note_off_c, 1, 39, 100
3, 141312, Note_on_c, 1, 49, 92
3, 141312, Note_on_c, 1, 46, 92
3, 141312, Note_on_c, 1, 39, 92
3, 141692, Note_off_c, 1, 49, 100
3, 141692, Note_off_c, 1, 46, 100
3, 141692, Note_off_c, 1, 39, 100
3, 141696, Note_on_c, 1, 49, 94
3, 141696, Note_on_c, 1, 46, 94
3, 141696, Note_on_c, 1, 39, 94
3, 142076, Note_off_c, 1, 49, 100
3, 142076, Note_off_c, 1, 46, 100
3, 142076, Note_off_c, 1, 39, 100
3, 142464, Note_on_c, 1, 49, 96
3, 142464, Note_on_c, 1, 46, 96
3, 142464, Note_on_c, 1, 39, 96
3, 142844, Note_off_c, 1, 49, 100
3, 142844, Note_off_c, 1, 46, 100
3, 142844, Note_off_c, 1, 39, 100
3, 142848, Note_on_c, 1, 49, 97
3, 142848, Note_on_c, 1, 46, 97
3, 142848, Note_on_c, 1, 39, 97
3, 143228, Note_off_c, 1, 49, 100
3, 143228, Note_off_c, 1, 46, 100
3, 143228, Note_off_c, 1, 39, 100
3, 143616, Note_on_c, 1, 49, 99
3, 143616, Note_on_c, 1, 46, 99
3, 143616, Note_on_c, 1, 39, 99
3, 143996, Note_off_c, 1, 49, 100
3, 143996, Note_off_c, 1, 46, 100
3, 143996, Note_off_c, 1, 39, 100
3, 144000, Note_on_c, 1, 51, 80
3, 144000, Note_on_c, 1, 49, 80
3, 144000, Note_on_c, 1, 44, 80
3, 145148, Note_off_c, 1, 51, 100
3, 145148, Note_off_c, 1, 49, 100
3, 145148, Note_off_c, 1, 44, 100
3, 145152, Note_on_c, 1, 51, 80
3, 145152, Note_on_c, 1, 48, 80
3, 145152, Note_on_c, 1, 44, 80
3, 145532, Note_off_c, 1, 51, 100
3, 145532, Note_off_c, 1, 48, 100
3, 145532, Note_off_c, 1, 44, 100
3, 145920, Note_on_c, 1, 61, 80
3, 145920, Note_on_c, 1, 58, 80
3, 145920, Note_on_c, 1, 51, 80
3, 146300, Note_off_c, 1, 61, 100
3, 146300, Note_off_c, 1, 58, 100
3, 146300, Note_off_c, 1, 51, 100
3, 146304, Note_on_c, 1, 61, 80
3, 146304, Note_on_c, 1, 58, 80
3, 146304, Note_on_c, 1, 51, 80
3, 146684, Note_off_c, 1, 61, 100
3, 146684, Note_off_c, 1, 58, 100
3, 146684, Note_off_c, 1, 51, 100
3, 147072, Note_on_c, 1, 61, 80
3, 147072, Note_on_c, 1, 58, 80
3, 147072, Note_on_c, 1, 51, 80
3, 147452, Note_off_c, 1, 61, 100
3, 147452, Note_off_c, 1, 58, 100
3, 147452, Note_off_c, 1, 51, 100
3, 147456, Note_on_c, 1, 61, 80
3, 147456, Note_on_c, 1, 58, 80
3, 147456, Note_on_c, 1, 51, 80
3, 147836, Note_off_c, 1, 61, 100
3, 147836, Note_off_c, 1, 58, 100
3, 147836, Note_off_c, 1, 51, 100
3, 148224, Note_on_c, 1, 61, 80
3, 148224, Note_on_c, 1, 58, 80
3, 148224, Note_on_c, 1, 51, 80
3, 148604, Note_off_c, 1, 61, 100
3, 148604, Note_off_c, 1, 58, 100
3, 148604, Note_off_c, 1, 51, 100
3, 148608, Note_on_c, 1, 61, 80
3, 148608, Note_on_c, 1, 58, 80
3, 148608, Note_on_c, 1, 51, 80
3, 148988, Note_off_c, 1, 61, 100
3, 148988, Note_off_c, 1, 58, 100
3, 148988, Note_off_c, 1, 51, 100
3, 149376, Note_on_c, 1, 61, 80
3, 149376, Note_on_c, 1, 58, 80
3, 149376, Note_on_c, 1, 51, 80
3, 149756, Note_off_c, 1, 61, 100
3, 149756, Note_off_c, 1, 58, 100
3, 149756, Note_off_c, 1, 51, 100
3, 149760, Note_on_c, 1, 61, 80
3, 149760, Note_on_c, 1, 58, 80
3, 149760, Note_on_c, 1, 51, 80
3, 150140, Note_off_c, 1, 61, 100
3, 150140, Note_off_c, 1, 58, 100
3, 150140, Note_off_c, 1, 51, 100
3, 150528, Note_on_c, 1, 61, 80
3, 150528, Note_on_c, 1, 58, 80
3, 150528, Note_on_c, 1, 51, 80
3, 150908, Note_off_c, 1, 61, 100
3, 150908, Note_off_c, 1, 58, 100
3, 150908, Note_off_c, 1, 51, 100
3, 150912, Note_on_c, 1, 61, 80
3, 150912, Note_on_c, 1, 58, 80
3, 150912, Note_on_c, 1, 51, 80
3, 151292, Note_off_c, 1, 61, 100
3, 151292, Note_off_c, 1, 58, 100
3, 151292, Note_off_c, 1, 51, 100
3, 151680, Note_on_c, 1, 61, 80
3, 151680, Note_on_c, 1, 58, 80
3, 151680, Note_on_c, 1, 51, 80
3, 152060, Note_off_c, 1, 61, 100
3, 152060, Note_off_c, 1, 58, 100
3, 152060, Note_off_c, 1, 51, 100
3, 152064, Note_on_c, 1, 61, 80
3, 152064, Note_on_c, 1, 58, 80
3, 152064, Note_on_c, 1, 51, 80
3, 152444, Note_off_c, 1, 61, 100
3, 152444, Note_off_c, 1, 58, 100
3, 152444, Note_off_c, 1, 51, 100
3, 152832, Note_on_c, 1, 61, 80
3, 152832, Note_on_c, 1, 58, 80
3, 152832, Note_on_c, 1, 51, 80
3, 153212, Note_off_c, 1, 61, 100
3, 153212, Note_off_c, 1, 58, 100
3, 153212, Note_off_c, 1, 51, 100
3, 153216, Note_on_c, 1, 61, 80
3, 153216, Note_on_c, 1, 58, 80
3, 153216, Note_on_c, 1, 51, 80
3, 153596, Note_off_c, 1, 61, 100
3, 153596, Note_off_c, 1, 58, 100
3, 153596, Note_off_c, 1, 51, 100
3, 153984, Note_on_c, 1, 61, 80
3, 153984, Note_on_c, 1, 58, 80
3, 153984, Note_on_c, 1, 51, 80
3, 154364, Note_off_c, 1, 61, 100
3, 154364, Note_off_c, 1, 58, 100
3, 154364, Note_off_c, 1, 51, 100
3, 154368, Note_on_c, 1, 61, 80
3, 154368, Note_on_c, 1, 58, 80
3, 154368, Note_on_c, 1, 51, 80
3, 154748, Note_off_c, 1, 61, 100
3, 154748, Note_off_c, 1, 58, 100
3, 154748, Note_off_c, 1, 51, 100
3, 155136, Note_on_c, 1, 61, 80
3, 155136, Note_on_c, 1, 58, 80
3, 155136, Note_on_c, 1, 51, 80
3, 155516, Note_off_c, 1, 61, 100
3, 155516, Note_off_c, 1, 58, 100
3, 155516, Note_off_c, 1, 51, 100
3, 155520, Note_on_c, 1, 61, 80
3, 155520, Note_on_c, 1, 58, 80
3, 155520, Note_on_c, 1, 51, 80
3, 155900, Note_off_c, 1, 61, 100
3, 155900, Note_off_c, 1, 58, 100
3, 155900, Note_off_c, 1, 51, 100
3, 156288, Note_on_c, 1, 61, 80
3, 156288, Note_on_c, 1, 58, 80
3, 156288, Note_on_c, 1, 51, 80
3, 156668, Note_off_c, 1, 61, 100
3, 156668, Note_off_c, 1, 58, 100
3, 156668, Note_off_c, 1, 51, 100
3, 156672, Note_on_c, 1, 61, 80
3, 156672, Note_on_c, 1, 58, 80
3, 156672, Note_on_c, 1, 51, 80
3, 157052, Note_off_c, 1, 61, 100
3, 157052, Note_off_c, 1, 58, 100
3, 157052, Note_off_c, 1, 51, 100
3, 157440, Note_on_c, 1, 61, 80
3, 157440, Note_on_c, 1, 58, 80
3, 157440, Note_on_c, 1, 51, 80
3, 157820, Note_off_c, 1, 61, 100
3, 157820, Note_off_c, 1, 58, 100
3, 157820, Note_off_c, 1, 51, 100
3, 157824, Note_on_c, 1, 49, 80
3, 157824, Note_on_c, 1, 46, 80
3, 157824, Note_on_c, 1, 39, 80
3, 158204, Note_off_c, 1, 49, 100
3, 158204, Note_off_c, 1, 46, 100
3, 158204, Note_off_c, 1, 39, 100
3, 158592, Note_on_c, 1, 49, 82
3, 158592, Note_on_c, 1, 46, 82
3, 158592, Note_on_c, 1, 39, 82
3, 158972, Note_off_c, 1, 49, 100
3, 158972, Note_off_c, 1, 46, 100
3, 158972, Note_off_c, 1, 39, 100
3, 158976, Note_on_c, 1, 49, 83
3, 158976, Note_on_c, 1, 46, 83
3, 158976, Note_on_c, 1, 39, 83
3, 159356, Note_off_c, 1, 49, 100
3, 159356, Note_off_c, 1, 46, 100
3, 159356, Note_off_c, 1, 39, 100
3, 159744, Note_on_c, 1, 49, 85
3, 159744, Note_on_c, 1, 46, 85
3, 159744, Note_on_c, 1, 39, 85
3, 160124, Note_off_c, 1, 49, 100
3, 160124, Note_off_c, 1, 46, 100
3, 160124, Note_off_c, 1, 39, 100
3, 160128, Note_on_c, 1, 49, 87
3, 160128, Note_on_c, 1, 46, 87
3, 160128, Note_on_c, 1, 39, 87
3, 160508, Note_off_c, 1, 49, 100
3, 160508, Note_off_c, 1, 46, 100
3, 160508, Note_off_c, 1, 39, 100
3, 160896, Note_on_c, 1, 49, 89
3, 160896, Note_on_c, 1, 46, 89
3, 160896, Note_on_c, 1, 39, 89
3, 161276, Note_off_c, 1, 49, 100
3, 161276, Note_off_c, 1, 46, 100
3, 161276, Note_off_c, 1, 39, 100
3, 161280, Note_on_c, 1, 49, 90
3, 161280, Note_on_c, 1, 46, 90
3, 161280, Note_on_c, 1, 39, 90
3, 161660, Note_off_c, 1, 49, 100
3, 161660, Note_off_c, 1, 46, 100
3, 161660, Note_off_c, 1, 39, 100
3, 162048, Note_on_c, 1, 49, 92
3, 162048, Note_on_c, 1, 46, 92
3, 162048, Note_on_c, 1, 39, 92
3, 162428, Note_off_c, 1, 49, 100
3, 162428, Note_off_c, 1, 46, 100
3, 162428, Note_off_c, 1, 39, 100
3, 162432, Note_on_c, 1, 49, 94
3, 162432, Note_on_c, 1, 46, 94
3, 162432, Note_on_c, 1, 39, 94
3, 162812, Note_off_c, 1, 49, 100
3, 162812, Note_off_c, 1, 46, 100
3, 162812, Note_off_c, 1, 39, 100
3, 163200, Note_on_c, 1, 49, 96
3, 163200, Note_on_c, 1, 46, 96
3, 163200, Note_on_c, 1, 39, 96
3, 163580, Note_off_c, 1, 49, 100
3, 163580, Note_off_c, 1, 46, 100
3, 163580, Note_off_c, 1, 39, 100
3, 163584, Note_on_c, 1, 49, 97
3, 163584, Note_on_c, 1, 46, 97
3, 163584, Note_on_c, 1, 39, 97
3, 163964, Note_off_c, 1, 49, 100
3, 163964, Note_off_c, 1, 46, 100
3, 163964, Note_off_c, 1, 39, 100
3, 164352, Note_on_c, 1, 49, 99
3, 164352, Note_on_c, 1, 46, 99
3, 164352, Note_on_c, 1, 39, 99
3, 164732, Note_off_c, 1, 49, 100
3, 164732, Note_off_c, 1, 46, 100
3, 164732, Note_off_c, 1, 39, 100
3, 164736, Note_on_c, 1, 48, 80
3, 164736, Note_on_c, 1, 44, 80
3, 165116, Note_off_c, 1, 48, 100
3, 165116, Note_off_c, 1, 44, 100
3, 165120, Note_on_c, 1, 42, 80
3, 165500, Note_off_c, 1, 42, 100
3, 165504, Note_on_c, 1, 43, 80
3, 165884, Note_off_c, 1, 43, 100
3, 165888, Note_on_c, 1, 36, 80
3, 166272, Note_on_c, 1, 43, 80
3, 166652, Note_off_c, 1, 36, 100
3, 166656, Note_on_c, 1, 46, 80
3, 167036, Note_off_c, 1, 43, 100
3, 167040, Note_on_c, 1, 48, 80
3, 167420, Note_off_c, 1, 46, 100
3, 167424, Note_on_c, 1, 51, 80
3, 167804, Note_off_c, 1, 48, 100
3, 167808, Note_on_c, 1, 55, 80
3, 168188, Note_off_c, 1, 51, 100
3, 168192, Note_on_c, 1, 60, 80
3, 168572, Note_off_c, 1, 55, 100
3, 168572, Note_off_c, 1, 60, 100
3, 168576, Note_on_c, 1, 63, 80
3, 168956, Note_off_c, 1, 63, 100
3, 168960, Note_on_c, 1, 67, 80
3, 169340, Note_off_c, 1, 67, 100
3, 169344, Note_on_c, 1, 59, 80
3, 169724, Note_off_c, 1, 59, 100
3, 169728, Note_on_c, 1, 62, 80
3, 170108, Note_off_c, 1, 62, 100
3, 170112, Note_on_c, 1, 67, 80
3, 170492, Note_off_c, 1, 67, 100
3, 170496, Note_on_c, 1, 47, 80
3, 170876, Note_off_c, 1, 47, 100
3, 170880, Note_on_c, 1, 50, 80
3, 171260, Note_off_c, 1, 50, 100
3, 171264, Note_on_c, 1, 55, 80
3, 171644, Note_off_c, 1, 55, 100
3, 171648, Note_on_c, 1, 46, 80
3, 172028, Note_off_c, 1, 46, 100
3, 172032, Note_on_c, 1, 50, 80
3, 172412, Note_off_c, 1, 50, 100
3, 172416, Note_on_c, 1, 55, 80
3, 172796, Note_off_c, 1, 55, 100
3, 172800, Note_on_c, 1, 58, 80
3, 173180, Note_off_c, 1, 58, 100
3, 173184, Note_on_c, 1, 62, 80
3, 173564, Note_off_c, 1, 62, 100
3, 173568, Note_on_c, 1, 67, 80
3, 173948, Note_off_c, 1, 67, 100
3, 173952, Note_on_c, 1, 57, 80
3, 174332, Note_off_c, 1, 57, 100
3, 174336, Note_on_c, 1, 60, 80
3, 174716, Note_off_c, 1, 60, 100
3, 174720, Note_on_c, 1, 65, 80
3, 175100, Note_off_c, 1, 65, 100
3, 175104, Note_on_c, 1, 45, 80
3, 175484, Note_off_c, 1, 45, 100
3, 175488, Note_on_c, 1, 48, 80
3, 175868, Note_off_c, 1, 48, 100
3, 175872, Note_on_c, 1, 53, 80
3, 176252, Note_off_c, 1, 53, 100
3, 176256, Note_on_c, 1, 44, 80
3, 176636, Note_off_c, 1, 44, 100
3, 176640, Note_on_c, 1, 48, 80
3, 177020, Note_off_c, 1, 48, 100
3, 177024, Note_on_c, 1, 53, 80
3, 177404, Note_off_c, 1, 53, 100
3, 177408, Note_on_c, 1, 56, 80
3, 177788, Note_off_c, 1, 56, 100
3, 177792, Note_on_c, 1, 60, 80
3, 178172, Note_off_c, 1, 60, 100
3, 178176, Note_on_c, 1, 65, 80
3, 178556, Note_off_c, 1, 65, 100
3, 178560, Note_on_c, 1, 55, 80
3, 178940, Note_off_c, 1, 55, 100
3, 178944, Note_on_c, 1, 60, 80
3, 179324, Note_off_c, 1, 60, 100
3, 179328, Note_on_c, 1, 63, 80
3, 179708, Note_off_c, 1, 63, 100
3, 179712, Control_c, 1, 64, 127
3, 179712, Note_on_c, 1, 48, 110
3, 179712, Note_on_c, 1, 36, 110
3, 180096, Note_on_c, 1, 43, 110
3, 180476, Note_off_c, 1, 48, 100
3, 180476, Note_off_c, 1, 36, 100
3, 180480, Note_on_c, 1, 45, 110
3, 180856, Control_c, 1, 64, 0
3, 180860, Note_off_c, 1, 43, 100
3, 180864, Control_c, 1, 64, 127
3, 180864, Note_on_c, 1, 50, 110
3, 180864, Note_on_c, 1, 38, 110
3, 181244, Note_off_c, 1, 45, 100
3, 181248, Note_on_c, 1, 43, 110
3, 181628, Note_off_c, 1, 50, 100
3, 181628, Note_off_c, 1, 38, 100
3, 181632, Note_on_c, 1, 46, 110
3, 182008, Control_c, 1, 64, 0
3, 182012, Note_off_c, 1, 43, 100
3, 182016, Control_c, 1, 64, 127
3, 182016, Note_on_c, 1, 50, 110
3, 182016, Note_on_c, 1, 38, 110
3, 182396, Note_off_c, 1, 46, 100
3, 182400, Note_on_c, 1, 42, 110
3, 182780, Note_off_c, 1, 50, 100
3, 182780, Note_off_c, 1, 38, 100
3, 182784, Note_on_c, 1, 45, 110
3, 183160, Control_c, 1, 64, 0
3, 183164, Note_off_c, 1, 42, 100
3, 183168, Note_on_c, 1, 43, 110
3, 183168, Note_on_c, 1, 31, 110
3, 183548, Note_off_c, 1, 45, 100
3, 183552, Note_on_c, 1, 39, 110
3, 183932, Note_off_c, 1, 43, 100
3, 183932, Note_off_c, 1, 31, 100
3, 183932, Note_off_c, 1, 39, 100
3, 183936, Note_on_c, 1, 38, 110
3, 184316, Note_off_c, 1, 38, 100
3, 184320, Note_on_c, 1, 36, 80
3, 184700, Note_off_c, 1, 36, 100
3, 184704, Note_on_c, 1, 43, 80
3, 185084, Note_off_c, 1, 43, 100
3, 185088, Note_on_c, 1, 46, 80
3, 185468, Note_off_c, 1, 46, 100
3, 185472, Note_on_c, 1, 48, 80
3, 185852, Note_off_c, 1, 48, 100
3, 185856, Note_on_c, 1, 51, 80
3, 186236, Note_off_c, 1, 51, 100
3, 186240, Note_on_c, 1, 55, 80
3, 186620, Note_off_c, 1, 55, 100
3, 186624, Note_on_c, 1, 60, 80
3, 187004, Note_off_c, 1, 60, 100
3, 187008, Note_on_c, 1, 63, 80
3, 187388, Note_off_c, 1, 63, 100
3, 187392, Note_on_c, 1, 67, 80
3, 187772, Note_off_c, 1, 67, 100
3, 187776, Note_on_c, 1, 59, 80
3, 188156, Note_off_c, 1, 59, 100
3, 188160, Note_on_c, 1, 62, 80
3, 188540, Note_off_c, 1, 62, 100
3, 188544, Note_on_c, 1, 67, 80
3, 188924, Note_off_c, 1, 67, 100
3, 188928, Note_on_c, 1, 47, 80
3, 189308, Note_off_c, 1, 47, 100
3, 189312, Note_on_c, 1, 50, 80
3, 189692, Note_off_c, 1, 50, 100
3, 189696, Note_on_c, 1, 55, 80
3, 190076, Note_off_c, 1, 55, 100
3, 190080, Note_on_c, 1, 46, 80
3, 190460, Note_off_c, 1, 46, 100
3, 190464, Note_on_c, 1, 50, 80
3, 190844, Note_off_c, 1, 50, 100
3, 190848, Note_on_c, 1, 55, 80
3, 191228, Note_off_c, 1, 55, 100
3, 191232, Note_on_c, 1, 58, 80
3, 191612, Note_off_c, 1, 58, 100
3, 191616, Note_on_c, 1, 62, 80
3, 191996, Note_off_c, 1, 62, 100
3, 192000, Note_on_c, 1, 67, 80
3, 192380, Note_off_c, 1, 67, 100
3, 192384, Note_on_c, 1, 57, 80
3, 192764, Note_off_c, 1, 57, 100
3, 192768, Note_on_c, 1, 60, 80
3, 193148, Note_off_c, 1, 60, 100
3, 193152, Note_on_c, 1, 65, 80
3, 193532, Note_off_c, 1, 65, 100
3, 193536, Note_on_c, 1, 45, 80
3, 193916, Note_off_c, 1, 45, 100
3, 193920, Note_on_c, 1, 48, 80
3, 194300, Note_off_c, 1, 48, 100
3, 194304, Note_on_c, 1, 53, 80
3, 194684, Note_off_c, 1, 53, 100
3, 194688, Note_on_c, 1, 44, 80
3, 195068, Note_off_c, 1, 44, 100
3, 195072, Note_on_c, 1, 48, 80
3, 195452, Note_off_c, 1, 48, 100
3, 195456, Note_on_c, 1, 53, 80
3, 195836, Note_off_c, 1, 53, 100
3, 195840, Note_on_c, 1, 56, 80
3, 196220, Note_off_c, 1, 56, 100
3, 196224, Note_on_c, 1, 60, 80
3, 196604, Note_off_c, 1, 60, 100
3, 196608, Note_on_c, 1, 65, 80
3, 196988, Note_off_c, 1, 65, 100
3, 196992, Note_on_c, 1, 55, 80
3, 197372, Note_off_c, 1, 55, 100
3, 197376, Note_on_c, 1, 60, 80
3, 197756, Note_off_c, 1, 60, 100
3, 197760, Note_on_c, 1, 63, 80
3, 198140, Note_off_c, 1, 63, 100
3, 198144, Control_c, 1, 64, 127
3, 198144, Note_on_c, 1, 48, 110
3, 198144, Note_on_c, 1, 36, 110
3, 198528, Note_on_c, 1, 43, 110
3, 198908, Note_off_c, 1, 48, 100
3, 198908, Note_off_c, 1, 36, 100
3, 198912, Note_on_c, 1, 45, 110
3, 199288, Control_c, 1, 64, 0
3, 199292, Note_off_c, 1, 43, 100
3, 199296, Control_c, 1, 64, 127
3, 199296, Note_on_c, 1, 50, 110
3, 199296, Note_on_c, 1, 38, 110
3, 199676, Note_off_c, 1, 45, 100
3, 199680, Note_on_c, 1, 43, 110
3, 200060, Note_off_c, 1, 50, 100
3, 200060, Note_off_c, 1, 38, 100
3, 200064, Note_on_c, 1, 46, 110
3, 200440, Control_c, 1, 64, 0
3, 200444, Note_off_c, 1, 43, 100
3, 200448, Control_c, 1, 64, 127
3, 200448, Note_on_c, 1, 50, 110
3, 200448, Note_on_c, 1, 38, 110
3, 200828, Note_off_c, 1, 46, 100
3, 200832, Note_on_c, 1, 42, 110
3, 201212, Note_off_c, 1, 50, 100
3, 201212, Note_off_c, 1, 38, 100
3, 201216, Note_on_c, 1, 45, 110
3, 201592, Control_c, 1, 64, 0
3, 201596, Note_off_c, 1, 42, 100
3, 201600, Note_on_c, 1, 43, 110
3, 201600, Note_on_c, 1, 31, 110
3, 201980, Note_off_c, 1, 45, 100
3, 201980, Note_off_c, 1, 43, 100
3, 201980, Note_off_c, 1, 31, 100
3, 201984, Note_on_c, 1, 41, 110
3, 202364, Note_off_c, 1, 41, 100
3, 202368, Note_on_c, 1, 40, 110
3, 202748, Note_off_c, 1, 40, 100
3, 202752, Note_on_c, 1, 37, 80
3, 203132, Note_off_c, 1, 37, 100
3, 203136, Note_on_c, 1, 41, 80
3, 203516, Note_off_c, 1, 41, 100
3, 203520, Note_on_c, 1, 46, 80
3, 203900, Note_off_c, 1, 46, 100
3, 203904, Note_on_c, 1, 36, 80
3, 204284, Note_off_c, 1, 36, 100
3, 204288, Note_on_c, 1, 40, 80
3, 204668, Note_off_c, 1, 40, 100
3, 204672, Note_on_c, 1, 46, 80
3, 205052, Note_off_c, 1, 46, 100
3, 205056, Note_on_c, 1, 40, 80
3, 205436, Note_off_c, 1, 40, 100
3, 205440, Note_on_c, 1, 43, 80
3, 205820, Note_off_c, 1, 43, 100
3, 205824, Note_on_c, 1, 48, 80
3, 206204, Note_off_c, 1, 48, 100
3, 206208, Note_on_c, 1, 41, 80
3, 206588, Note_off_c, 1, 41, 100
3, 206592, Note_on_c, 1, 44, 80
3, 206972, Note_off_c, 1, 44, 100
3, 206976, Note_on_c, 1, 48, 80
3, 207356, Note_off_c, 1, 48, 100
3, 207360, Note_on_c, 1, 36, 80
3, 207740, Note_off_c, 1, 36, 100
3, 207744, Note_on_c, 1, 39, 80
3, 208124, Note_off_c, 1, 39, 100
3, 208128, Note_on_c, 1, 44, 80
3, 208508, Note_off_c, 1, 44, 100
3, 208512, Note_on_c, 1, 35, 80
3, 208892, Note_off_c, 1, 35, 100
3, 208896, Note_on_c, 1, 38, 80
3, 209276, Note_off_c, 1, 38, 100
3, 209280, Note_on_c, 1, 43, 80
3, 209660, Note_off_c, 1, 43, 100
3, 209664, Note_on_c, 1, 47, 80
3, 210044, Note_off_c, 1, 47, 100
3, 210048, Note_on_c, 1, 50, 80
3, 210428, Note_off_c, 1, 50, 100
3, 210432, Note_on_c, 1, 55, 80
3, 210812, Note_off_c, 1, 55, 100
3, 210816, Note_on_c, 1, 48, 80
3, 211196, Note_off_c, 1, 48, 100
3, 211200, Note_on_c, 1, 51, 80
3, 211580, Note_off_c, 1, 51, 100
3, 211584, Note_on_c, 1, 55, 80
3, 211964, Note_off_c, 1, 55, 100
3, 211968, Note_on_c, 1, 36, 80
3, 212348, Note_off_c, 1, 36, 100
3, 212352, Note_on_c, 1, 43, 80
3, 212732, Note_off_c, 1, 43, 100
3, 212736, Note_on_c, 1, 46, 80
3, 213116, Note_off_c, 1, 46, 100
3, 213120, Note_on_c, 1, 48, 80
3, 213500, Note_off_c, 1, 48, 100
3, 213504, Note_on_c, 1, 51, 80
3, 213884, Note_off_c, 1, 51, 100
3, 213888, Note_on_c, 1, 55, 80
3, 214268, Note_off_c, 1, 55, 100
3, 214272, Note_on_c, 1, 60, 80
3, 214652, Note_off_c, 1, 60, 100
3, 214656, Note_on_c, 1, 63, 80
3, 215036, Note_off_c, 1, 63, 100
3, 215040, Note_on_c, 1, 68, 81
3, 215420, Note_off_c, 1, 68, 100
3, 215424, Note_on_c, 1, 59, 82
3, 215804, Note_off_c, 1, 59, 100
3, 215808, Note_on_c, 1, 62, 82
3, 216188, Note_off_c, 1, 62, 100
3, 216192, Note_on_c, 1, 68, 83
3, 216572, Note_off_c, 1, 68, 100
3, 216576, Note_on_c, 1, 47, 84
3, 216956, Note_off_c, 1, 47, 100
3, 216960, Note_on_c, 1, 50, 84
3, 217340, Note_off_c, 1, 50, 100
3, 217344, Note_on_c, 1, 56, 85
3, 217724, Note_off_c, 1, 56, 100
3, 217728, Note_on_c, 1, 46, 86
3, 218108, Note_off_c, 1, 46, 100
3, 218112, Note_on_c, 1, 50, 86
3, 218492, Note_off_c, 1, 50, 100
3, 218496, Note_on_c, 1, 55, 87
3, 218876, Note_off_c, 1, 55, 100
3, 218880, Note_on_c, 1, 58, 88
3, 219260, Note_off_c, 1, 58, 100
3, 219264, Note_on_c, 1, 62, 88
3, 219644, Note_off_c, 1, 62, 100
3, 219648, Note_on_c, 1, 67, 89
3, 220028, Note_off_c, 1, 67, 100
3, 220032, Note_on_c, 1, 57, 90
3, 220412, Note_off_c, 1, 57, 100
3, 220416, Note_on_c, 1, 60, 91
3, 220796, Note_off_c, 1, 60, 100
3, 220800, Note_on_c, 1, 67, 91
3, 221180, Note_off_c, 1, 67, 100
3, 221184, Note_on_c, 1, 45, 92
3, 221564, Note_off_c, 1, 45, 100
3, 221568, Note_on_c, 1, 48, 93
3, 221948, Note_off_c, 1, 48, 100
3, 221952, Note_on_c, 1, 55, 93
3, 222332, Note_off_c, 1, 55, 100
3, 222336, Note_on_c, 1, 44, 94
3, 222716, Note_off_c, 1, 44, 100
3, 222720, Note_on_c, 1, 48, 95
3, 223100, Note_off_c, 1, 48, 100
3, 223104, Note_on_c, 1, 53, 95
3, 223484, Note_off_c, 1, 53, 100
3, 223488, Note_on_c, 1, 56, 96
3, 223868, Note_off_c, 1, 56, 100
3, 223872, Note_on_c, 1, 60, 97
3, 224252, Note_off_c, 1, 60, 100
3, 224256, Note_on_c, 1, 65, 97
3, 224636, Note_off_c, 1, 65, 100
3, 224640, Note_on_c, 1, 55, 98
3, 225020, Note_off_c, 1, 55, 100
3, 225024, Note_on_c, 1, 60, 99
3, 225404, Note_off_c, 1, 60, 100
3, 225408, Note_on_c, 1, 63, 99
3, 225788, Note_off_c, 1, 63, 100
3, 225792, Control_c, 1, 64, 127
3, 225792, Note_on_c, 1, 54, 110
3, 225792, Note_on_c, 1, 42, 110
3, 226176, Note_on_c, 1, 48, 110
3, 226556, Note_off_c, 1, 54, 100
3, 226556, Note_off_c, 1, 42, 100
3, 226560, Note_on_c, 1, 51, 110
3, 226940, Note_off_c, 1, 48, 100
3, 226944, Note_on_c, 1, 55, 110
3, 226944, Note_on_c, 1, 43, 110
3, 227324, Note_off_c, 1, 51, 100
3, 227328, Note_on_c, 1, 48, 110
3, 227708, Note_off_c, 1, 55, 100
3, 227708, Note_off_c, 1, 43, 100
3, 227712, Note_on_c, 1, 51, 110
3, 228092, Note_off_c, 1, 48, 100
3, 228096, Note_on_c, 1, 55, 110
3, 228096, Note_on_c, 1, 43, 110
3, 228476, Note_off_c, 1, 51, 100
3, 228480, Note_on_c, 1, 47, 110
3, 228860, Note_off_c, 1, 55, 100
3, 228860, Note_off_c, 1, 43, 100
3, 228864, Note_on_c, 1, 50, 110
3, 229240, Control_c, 1, 64, 0
3, 229244, Note_off_c, 1, 47, 100
3, 229248, Control_c, 1, 64, 127
3, 229248, Note_on_c, 1, 48, 110
3, 229248, Note_on_c, 1, 36, 110
3, 229628, Note_off_c, 1, 50, 100
3, 229632, Note_on_c, 1, 40, 110
3, 230012, Note_off_c, 1, 48, 100
3, 230012, Note_off_c, 1, 36, 100
3, 230012, Note_off_c, 1, 40, 100
3, 230016, Note_on_c, 1, 43, 110
3, 230396, Note_off_c, 1, 43, 100
3, 230400, Note_on_c, 1, 48, 110
3, 230400, Note_on_c, 1, 36, 110
3, 230780, Note_off_c, 1, 48, 100
3, 230780, Note_off_c, 1, 36, 100
3, 230784, Note_on_c, 1, 41, 110
3, 231164, Note_off_c, 1, 41, 100
3, 231168, Note_on_c, 1, 44, 110
3, 231548, Note_off_c, 1, 44, 100
3, 231552, Note_on_c, 1, 48, 110
3, 231552, Note_on_c, 1, 36, 110
3, 231932, Note_off_c, 1, 48, 100
3, 231932, Note_off_c, 1, 36, 100
3, 231936, Note_on_c, 1, 43, 110
3, 232316, Note_off_c, 1, 43, 100
3, 232320, Note_on_c, 1, 46, 110
3, 232700, Note_off_c, 1, 46, 100
3, 232704, Note_on_c, 1, 48, 110
3, 232704, Note_on_c, 1, 36, 110
3, 233084, Note_off_c, 1, 48, 100
3, 233084, Note_off_c, 1, 36, 100
3, 233088, Note_on_c, 1, 41, 110
3, 233468, Note_off_c, 1, 41, 100
3, 233472, Note_on_c, 1, 44, 110
3, 233848, Control_c, 1, 64, 0
3, 233852, Note_off_c, 1, 44, 100
3, 233856, Control_c, 1, 64, 127
3, 233856, Note_on_c, 1, 67, 120
3, 233856, Note_on_c, 1, 55, 120
3, 234236, Note_off_c, 1, 67, 100
3, 234236, Note_off_c, 1, 55, 100
3, 234240, Note_on_c, 1, 64, 120
3, 234240, Note_on_c, 1, 52, 120
3, 234620, Note_off_c, 1, 64, 100
3, 234620, Note_off_c, 1, 52, 100
3, 234624, Note_on_c, 1, 60, 120
3, 234624, Note_on_c, 1, 48, 120
3, 235004, Note_off_c, 1, 60, 100
3, 235004, Note_off_c, 1, 48, 100
3, 235008, Note_on_c, 1, 68, 120
3, 235008, Note_on_c, 1, 56, 120
3, 235388, Note_off_c, 1, 68, 100
3, 235388, Note_off_c, 1, 56, 100
3, 235392, Note_on_c, 1, 65, 120
3, 235392, Note_on_c, 1, 53, 120
3, 235772, Note_off_c, 1, 65, 100
3, 235772, Note_off_c, 1, 53, 100
3, 235776, Note_on_c, 1, 60, 120
3, 235776, Note_on_c, 1, 48, 120
3, 236156, Note_off_c, 1, 60, 100
3, 236156, Note_off_c, 1, 48, 100
3, 236160, Note_on_c, 1, 70, 120
3, 236160, Note_on_c, 1, 58, 120
3, 236540, Note_off_c, 1, 70, 100
3, 236540, Note_off_c, 1, 58, 100
3, 236544, Note_on_c, 1, 67, 120
3, 236544, Note_on_c, 1, 55, 120
3, 236924, Note_off_c, 1, 67, 100
3, 236924, Note_off_c, 1, 55, 100
3, 236928, Note_on_c, 1, 60, 120
3, 236928, Note_on_c, 1, 48, 120
3, 237308, Note_off_c, 1, 60, 100
3, 237308, Note_off_c, 1, 48, 100
3, 237312, Note_on_c, 1, 68, 120
3, 237312, Note_on_c, 1, 56, 120
3, 237692, Note_off_c, 1, 68, 100
3, 237692, Note_off_c, 1, 56, 100
3, 237696, Note_on_c, 1, 65, 120
3, 237696, Note_on_c, 1, 53, 120
3, 238076, Note_off_c, 1, 65, 100
3, 238076, Note_off_c, 1, 53, 100
3, 238080, Note_on_c, 1, 60, 120
3, 238080, Note_on_c, 1, 48, 120
3, 238456, Control_c, 1, 64, 0
3, 238460, Note_off_c, 1, 60, 100
3, 238460, Note_off_c, 1, 48, 100
3, 238464, Note_on_c, 1, 60, 120
3, 238464, Note_on_c, 1, 48, 120
3, 238844, Note_off_c, 1, 60, 100
3, 238844, Note_off_c, 1, 48, 100
3, 238848, Note_on_c, 1, 67, 120
3, 239228, Note_off_c, 1, 67, 100
3, 239232, Note_on_c, 1, 64, 120
3, 239612, Note_off_c, 1, 64, 100
3, 239616, Note_on_c, 1, 60, 120
3, 239996, Note_off_c, 1, 60, 100
3, 240000, Note_on_c, 1, 55, 120
3, 240380, Note_off_c, 1, 55, 100
3, 240384, Note_on_c, 1, 52, 120
3, 240764, Note_off_c, 1, 52, 100
3, 240768, Note_on_c, 1, 48, 120
3, 241148, Note_off_c, 1, 48, 100
3, 241152, Note_on_c, 1, 43, 120
3, 241532, Note_off_c, 1, 43, 100
3, 241536, Note_on_c, 1, 40, 120
3, 241916, Note_off_c, 1, 40, 100
3, 241920, Note_on_c, 1, 36, 120
3, 242300, Note_off_c, 1, 36, 100
3, 242304, Note_on_c, 1, 43, 120
3, 242684, Note_off_c, 1, 43, 100
3, 242688, Note_on_c, 1, 40, 120
3, 243068, Note_off_c, 1, 40, 100
3, 243072, Note_on_c, 1, 36, 120
3, 246524, Note_off_c, 1, 36, 100
3, 246524, End_track
0, 0, End_of_file
