0, 0, Header, 1, 3, 384
1, 0, Start_track
1, 0, Title_t, "L.v.Beethoven 1mov - Piano Sonata No.13 in Eb Major Op.27-1\000"
1, 0, Copyright_t, "Copyright(C) 1995-2009, Suzuki Software\000"
1, 0, Sequencer_specific, 9, 67, 123, 0, 88, 70, 48, 50, 0, 1
1, 0, Text_t, "XFhd:2000/06/04:JP:Classical::::L.v.Beethoven:::Kaoru Suzuki\000"
1, 0, Text_t, "XFln:JP:\203s\203A\203m\203\\\203i\203^\221æ13\224Ô\225Ï\203z\222·\222²\215ì\225i27-1\201`\221æ1\212y\217Í:L.v.\203x\201[\203g\201[\203\224\203F\203\223:::\227é\202¿\202á\202ñ:\227é\202¿\202á\202ñ\000"
1, 0, Time_signature, 4, 2, 96, 8
1, 0, Sequencer_specific, 3, 0, 0, 65
1, 0, Sequencer_specific, 5, 0, 0, 119, 14, 0
1, 0, Tempo, 750000
1, 23040, Tempo, 857142
1, 23808, Tempo, 1000000
1, 24576, Tempo, 857142
1, 41472, Tempo, 895522
1, 41856, Tempo, 923076
1, 42048, Tempo, 1000000
1, 42240, Tempo, 1200000
1, 42624, Tempo, 857142
1, 47616, Tempo, 895522
1, 48000, Tempo, 923076
1, 48192, Tempo, 1000000
1, 48384, Tempo, 1200000
1, 48768, Tempo, 857142
1, 72192, Tempo, 923076
1, 72960, Tempo, 1000000
1, 73536, Tempo, 400000
1, 73728, Time_signature, 3, 2, 96, 8
1, 110592, Tempo, 413793
1, 110976, Tempo, 428571
1, 111168, Tempo, 444444
1, 111360, Tempo, 461538
1, 111552, Tempo, 500000
1, 112896, Time_signature, 4, 2, 96, 8
1, 112896, Tempo, 800000
1, 129792, Tempo, 821917
1, 130176, Tempo, 857142
1, 130368, Tempo, 923076
1, 130560, Tempo, 1000000
1, 131328, Tempo, 800000
1, 135936, Tempo, 821917
1, 136320, Tempo, 857142
1, 136512, Tempo, 923076
1, 136704, Tempo, 1000000
1, 137472, Tempo, 857142
1, 142080, Tempo, 882352
1, 143616, Tempo, 923076
1, 145152, Tempo, 1000000
1, 146688, Tempo, 1090909
1, 146688, End_track
2, 0, Start_track
2, 0, Title_t, "Right"
2, 0, Control_c, 0, 0, 0
2, 0, Program_c, 0, 0
2, 0, Control_c, 0, 7, 100
2, 0, Control_c, 0, 10, 77
2, 0, Control_c, 0, 91, 127
2, 0, Key_signature, -3, "major"
2, 0, Note_on_c, 0, 70, 70
2, 0, Note_on_c, 0, 58, 70
2, 0, Note_on_c, 0, 67, 70
2, 380, Note_off_c, 0, 70, 100
2, 380, Note_off_c, 0, 58, 100
2, 380, Note_off_c, 0, 67, 100
2, 384, Note_on_c, 0, 70, 70
2, 384, Note_on_c, 0, 67, 70
2, 384, Note_on_c, 0, 58, 70
2, 764, Note_off_c, 0, 70, 100
2, 764, Note_off_c, 0, 67, 100
2, 764, Note_off_c, 0, 58, 100
2, 768, Note_on_c, 0, 63, 70
2, 768, Note_on_c, 0, 58, 70
2, 768, Note_on_c, 0, 67, 70
2, 1532, Note_off_c, 0, 63, 100
2, 1532, Note_off_c, 0, 58, 100
2, 1532, Note_off_c, 0, 67, 100
2, 1536, Note_on_c, 0, 65, 70
2, 1536, Note_on_c, 0, 62, 70
2, 1536, Note_on_c, 0, 58, 70
2, 1916, Note_off_c, 0, 65, 100
2, 1916, Note_off_c, 0, 62, 100
2, 1916, Note_off_c, 0, 58, 100
2, 1920, Note_on_c, 0, 65, 70
2, 1920, Note_on_c, 0, 62, 70
2, 1920, Note_on_c, 0, 58, 70
2, 2300, Note_off_c, 0, 65, 100
2, 2300, Note_off_c, 0, 62, 100
2, 2300, Note_off_c, 0, 58, 100
2, 2304, Note_on_c, 0, 70, 70
2, 2304, Note_on_c, 0, 68, 70
2, 2304, Note_on_c, 0, 65, 70
2, 2304, Note_on_c, 0, 58, 70
2, 3068, Note_off_c, 0, 70, 100
2, 3068, Note_off_c, 0, 68, 100
2, 3068, Note_off_c, 0, 65, 100
2, 3068, Note_off_c, 0, 58, 100
2, 3072, Note_on_c, 0, 70, 70
2, 3072, Note_on_c, 0, 58, 70
2, 3072, Note_on_c, 0, 67, 70
2, 3452, Note_off_c, 0, 70, 100
2, 3452, Note_off_c, 0, 58, 100
2, 3452, Note_off_c, 0, 67, 100
2, 3456, Note_on_c, 0, 70, 70
2, 3456, Note_on_c, 0, 67, 70
2, 3456, Note_on_c, 0, 58, 70
2, 3836, Note_off_c, 0, 70, 100
2, 3836, Note_off_c, 0, 67, 100
2, 3836, Note_off_c, 0, 58, 100
2, 3840, Note_on_c, 0, 63, 70
2, 3840, Note_on_c, 0, 58, 70
2, 3840, Note_on_c, 0, 67, 70
2, 4604, Note_off_c, 0, 63, 100
2, 4604, Note_off_c, 0, 58, 100
2, 4604, Note_off_c, 0, 67, 100
2, 4608, Note_on_c, 0, 65, 70
2, 4608, Note_on_c, 0, 62, 70
2, 4608, Note_on_c, 0, 58, 70
2, 4796, Note_off_c, 0, 65, 100
2, 4796, Note_off_c, 0, 62, 100
2, 4796, Note_off_c, 0, 58, 100
2, 4800, Note_on_c, 0, 70, 70
2, 5180, Note_off_c, 0, 70, 100
2, 5184, Note_on_c, 0, 70, 70
2, 5184, Note_on_c, 0, 58, 70
2, 5372, Note_off_c, 0, 70, 100
2, 5372, Note_off_c, 0, 58, 100
2, 5376, Note_on_c, 0, 63, 70
2, 5376, Note_on_c, 0, 55, 70
2, 5756, Note_off_c, 0, 63, 100
2, 5756, Note_off_c, 0, 55, 100
2, 6144, Note_on_c, 0, 70, 70
2, 6144, Note_on_c, 0, 58, 70
2, 6144, Note_on_c, 0, 67, 70
2, 6524, Note_off_c, 0, 70, 100
2, 6524, Note_off_c, 0, 58, 100
2, 6524, Note_off_c, 0, 67, 100
2, 6528, Note_on_c, 0, 70, 70
2, 6528, Note_on_c, 0, 67, 70
2, 6528, Note_on_c, 0, 58, 70
2, 6908, Note_off_c, 0, 70, 100
2, 6908, Note_off_c, 0, 67, 100
2, 6908, Note_off_c, 0, 58, 100
2, 6912, Note_on_c, 0, 63, 70
2, 6912, Note_on_c, 0, 58, 70
2, 6912, Note_on_c, 0, 67, 70
2, 7676, Note_off_c, 0, 63, 100
2, 7676, Note_off_c, 0, 58, 100
2, 7676, Note_off_c, 0, 67, 100
2, 7680, Note_on_c, 0, 65, 70
2, 7680, Note_on_c, 0, 62, 70
2, 7680, Note_on_c, 0, 58, 70
2, 8060, Note_off_c, 0, 65, 100
2, 8060, Note_off_c, 0, 62, 100
2, 8060, Note_off_c, 0, 58, 100
2, 8064, Note_on_c, 0, 65, 70
2, 8064, Note_on_c, 0, 62, 70
2, 8064, Note_on_c, 0, 58, 70
2, 8444, Note_off_c, 0, 65, 100
2, 8444, Note_off_c, 0, 62, 100
2, 8444, Note_off_c, 0, 58, 100
2, 8448, Note_on_c, 0, 70, 70
2, 8448, Note_on_c, 0, 68, 70
2, 8448, Note_on_c, 0, 65, 70
2, 8448, Note_on_c, 0, 58, 70
2, 9212, Note_off_c, 0, 70, 100
2, 9212, Note_off_c, 0, 68, 100
2, 9212, Note_off_c, 0, 65, 100
2, 9212, Note_off_c, 0, 58, 100
2, 9216, Note_on_c, 0, 70, 70
2, 9216, Note_on_c, 0, 58, 70
2, 9216, Note_on_c, 0, 67, 70
2, 9596, Note_off_c, 0, 70, 100
2, 9596, Note_off_c, 0, 58, 100
2, 9596, Note_off_c, 0, 67, 100
2, 9600, Note_on_c, 0, 70, 70
2, 9600, Note_on_c, 0, 67, 70
2, 9600, Note_on_c, 0, 58, 70
2, 9980, Note_off_c, 0, 70, 100
2, 9980, Note_off_c, 0, 67, 100
2, 9980, Note_off_c, 0, 58, 100
2, 9984, Note_on_c, 0, 63, 70
2, 9984, Note_on_c, 0, 58, 70
2, 9984, Note_on_c, 0, 67, 70
2, 10748, Note_off_c, 0, 63, 100
2, 10748, Note_off_c, 0, 58, 100
2, 10748, Note_off_c, 0, 67, 100
2, 10752, Note_on_c, 0, 65, 70
2, 10752, Note_on_c, 0, 62, 70
2, 10752, Note_on_c, 0, 58, 70
2, 10940, Note_off_c, 0, 65, 100
2, 10940, Note_off_c, 0, 62, 100
2, 10940, Note_off_c, 0, 58, 100
2, 10944, Note_on_c, 0, 70, 70
2, 11324, Note_off_c, 0, 70, 100
2, 11328, Note_on_c, 0, 70, 70
2, 11328, Note_on_c, 0, 58, 70
2, 11516, Note_off_c, 0, 70, 100
2, 11516, Note_off_c, 0, 58, 100
2, 11520, Note_on_c, 0, 63, 70
2, 11520, Note_on_c, 0, 55, 70
2, 11900, Note_off_c, 0, 63, 100
2, 11900, Note_off_c, 0, 55, 100
2, 12288, Note_on_c, 0, 68, 70
2, 12288, Note_on_c, 0, 65, 70
2, 12668, Note_off_c, 0, 68, 100
2, 12668, Note_off_c, 0, 65, 100
2, 12672, Note_on_c, 0, 68, 70
2, 12672, Note_on_c, 0, 65, 70
2, 13052, Note_off_c, 0, 68, 100
2, 13052, Note_off_c, 0, 65, 100
2, 13056, Note_on_c, 0, 74, 70
2, 13056, Note_on_c, 0, 68, 70
2, 13056, Note_on_c, 0, 65, 70
2, 13820, Note_off_c, 0, 74, 100
2, 13820, Note_off_c, 0, 68, 100
2, 13820, Note_off_c, 0, 65, 100
2, 13824, Note_on_c, 0, 74, 70
2, 13824, Note_on_c, 0, 62, 70
2, 14204, Note_off_c, 0, 74, 100
2, 14204, Note_off_c, 0, 62, 100
2, 14208, Note_on_c, 0, 62, 76
2, 14208, Note_on_c, 0, 74, 76
2, 14588, Note_off_c, 0, 62, 100
2, 14588, Note_off_c, 0, 74, 100
2, 14592, Note_on_c, 0, 77, 83
2, 14592, Note_on_c, 0, 74, 83
2, 14592, Note_on_c, 0, 68, 83
2, 14592, Note_on_c, 0, 65, 83
2, 15356, Note_off_c, 0, 77, 100
2, 15356, Note_off_c, 0, 74, 100
2, 15356, Note_off_c, 0, 68, 100
2, 15356, Note_off_c, 0, 65, 100
2, 15360, Note_on_c, 0, 77, 96
2, 15360, Note_on_c, 0, 74, 96
2, 15360, Note_on_c, 0, 65, 96
2, 15740, Note_off_c, 0, 77, 100
2, 15740, Note_off_c, 0, 74, 100
2, 15740, Note_off_c, 0, 65, 100
2, 15744, Note_on_c, 0, 77, 103
2, 15744, Note_on_c, 0, 74, 103
2, 15744, Note_on_c, 0, 65, 103
2, 16124, Note_off_c, 0, 77, 100
2, 16124, Note_off_c, 0, 74, 100
2, 16124, Note_off_c, 0, 65, 100
2, 16128, Note_on_c, 0, 77, 109
2, 16128, Note_on_c, 0, 74, 109
2, 16128, Note_on_c, 0, 80, 109
2, 16508, Note_off_c, 0, 77, 100
2, 16508, Note_off_c, 0, 74, 100
2, 16512, Note_on_c, 0, 75, 110
2, 16700, Note_off_c, 0, 80, 100
2, 16700, Note_off_c, 0, 75, 100
2, 16704, Note_on_c, 0, 79, 110
2, 16704, Note_on_c, 0, 71, 110
2, 16892, Note_off_c, 0, 79, 100
2, 16892, Note_off_c, 0, 71, 100
2, 16896, Note_on_c, 0, 79, 100
2, 16896, Note_on_c, 0, 72, 100
2, 17084, Note_off_c, 0, 79, 100
2, 17084, Note_off_c, 0, 72, 100
2, 17088, Note_on_c, 0, 77, 97
2, 17088, Note_on_c, 0, 72, 97
2, 17276, Note_off_c, 0, 77, 100
2, 17276, Note_off_c, 0, 72, 100
2, 17280, Note_on_c, 0, 75, 94
2, 17280, Note_on_c, 0, 67, 94
2, 17468, Note_off_c, 0, 75, 100
2, 17468, Note_off_c, 0, 67, 100
2, 17472, Note_on_c, 0, 74, 91
2, 17472, Note_on_c, 0, 68, 91
2, 17472, Note_on_c, 0, 65, 91
2, 17660, Note_off_c, 0, 74, 100
2, 17660, Note_off_c, 0, 68, 100
2, 17660, Note_off_c, 0, 65, 100
2, 17664, Note_on_c, 0, 77, 87
2, 17664, Note_on_c, 0, 68, 87
2, 18044, Note_off_c, 0, 77, 100
2, 18044, Note_off_c, 0, 68, 100
2, 18048, Note_on_c, 0, 75, 81
2, 18048, Note_on_c, 0, 67, 81
2, 18236, Note_off_c, 0, 75, 100
2, 18236, Note_off_c, 0, 67, 100
2, 18432, Note_on_c, 0, 68, 70
2, 18432, Note_on_c, 0, 65, 70
2, 18812, Note_off_c, 0, 68, 100
2, 18812, Note_off_c, 0, 65, 100
2, 18816, Note_on_c, 0, 68, 70
2, 18816, Note_on_c, 0, 65, 70
2, 19196, Note_off_c, 0, 68, 100
2, 19196, Note_off_c, 0, 65, 100
2, 19200, Note_on_c, 0, 74, 70
2, 19200, Note_on_c, 0, 68, 70
2, 19200, Note_on_c, 0, 65, 70
2, 19964, Note_off_c, 0, 74, 100
2, 19964, Note_off_c, 0, 68, 100
2, 19964, Note_off_c, 0, 65, 100
2, 19968, Note_on_c, 0, 74, 70
2, 19968, Note_on_c, 0, 62, 70
2, 20348, Note_off_c, 0, 74, 100
2, 20348, Note_off_c, 0, 62, 100
2, 20352, Note_on_c, 0, 62, 76
2, 20352, Note_on_c, 0, 74, 76
2, 20732, Note_off_c, 0, 62, 100
2, 20732, Note_off_c, 0, 74, 100
2, 20736, Note_on_c, 0, 77, 83
2, 20736, Note_on_c, 0, 74, 83
2, 20736, Note_on_c, 0, 68, 83
2, 20736, Note_on_c, 0, 65, 83
2, 21500, Note_off_c, 0, 77, 100
2, 21500, Note_off_c, 0, 74, 100
2, 21500, Note_off_c, 0, 68, 100
2, 21500, Note_off_c, 0, 65, 100
2, 21504, Note_on_c, 0, 77, 96
2, 21504, Note_on_c, 0, 74, 96
2, 21504, Note_on_c, 0, 65, 96
2, 21884, Note_off_c, 0, 77, 100
2, 21884, Note_off_c, 0, 74, 100
2, 21884, Note_off_c, 0, 65, 100
2, 21888, Note_on_c, 0, 77, 103
2, 21888, Note_on_c, 0, 74, 103
2, 21888, Note_on_c, 0, 65, 103
2, 22268, Note_off_c, 0, 77, 100
2, 22268, Note_off_c, 0, 74, 100
2, 22268, Note_off_c, 0, 65, 100
2, 22272, Note_on_c, 0, 77, 109
2, 22272, Note_on_c, 0, 74, 109
2, 22272, Note_on_c, 0, 80, 109
2, 22652, Note_off_c, 0, 77, 100
2, 22652, Note_off_c, 0, 74, 100
2, 22656, Note_on_c, 0, 75, 110
2, 22844, Note_off_c, 0, 80, 100
2, 22844, Note_off_c, 0, 75, 100
2, 22848, Note_on_c, 0, 79, 110
2, 22848, Note_on_c, 0, 71, 110
2, 23036, Note_off_c, 0, 79, 100
2, 23036, Note_off_c, 0, 71, 100
2, 23040, Note_on_c, 0, 79, 100
2, 23040, Note_on_c, 0, 72, 100
2, 23228, Note_off_c, 0, 79, 100
2, 23228, Note_off_c, 0, 72, 100
2, 23232, Note_on_c, 0, 77, 97
2, 23232, Note_on_c, 0, 72, 97
2, 23420, Note_off_c, 0, 77, 100
2, 23420, Note_off_c, 0, 72, 100
2, 23424, Note_on_c, 0, 75, 94
2, 23424, Note_on_c, 0, 67, 94
2, 23612, Note_off_c, 0, 75, 100
2, 23612, Note_off_c, 0, 67, 100
2, 23616, Note_on_c, 0, 74, 91
2, 23616, Note_on_c, 0, 68, 91
2, 23616, Note_on_c, 0, 65, 91
2, 23804, Note_off_c, 0, 74, 100
2, 23804, Note_off_c, 0, 68, 100
2, 23804, Note_off_c, 0, 65, 100
2, 23808, Note_on_c, 0, 77, 87
2, 23808, Note_on_c, 0, 68, 87
2, 24188, Note_off_c, 0, 77, 100
2, 24188, Note_off_c, 0, 68, 100
2, 24192, Note_on_c, 0, 75, 81
2, 24192, Note_on_c, 0, 67, 81
2, 24380, Note_off_c, 0, 75, 100
2, 24380, Note_off_c, 0, 67, 100
2, 24384, Note_on_c, 0, 58, 70
2, 24572, Note_off_c, 0, 58, 100
2, 24576, Note_on_c, 0, 63, 70
2, 24576, Note_on_c, 0, 58, 70
2, 24576, Note_on_c, 0, 55, 70
2, 24576, Note_on_c, 0, 67, 91
2, 24764, Note_off_c, 0, 63, 100
2, 24764, Note_off_c, 0, 58, 100
2, 24764, Note_off_c, 0, 55, 100
2, 24768, Note_on_c, 0, 63, 70
2, 24768, Note_on_c, 0, 58, 70
2, 24768, Note_on_c, 0, 55, 70
2, 24956, Note_off_c, 0, 67, 100
2, 24956, Note_off_c, 0, 63, 100
2, 24956, Note_off_c, 0, 58, 100
2, 24956, Note_off_c, 0, 55, 100
2, 24960, Note_on_c, 0, 63, 70
2, 24960, Note_on_c, 0, 58, 70
2, 24960, Note_on_c, 0, 55, 70
2, 24960, Note_on_c, 0, 67, 92
2, 25148, Note_off_c, 0, 63, 100
2, 25148, Note_off_c, 0, 58, 100
2, 25148, Note_off_c, 0, 55, 100
2, 25152, Note_on_c, 0, 63, 70
2, 25152, Note_on_c, 0, 58, 70
2, 25152, Note_on_c, 0, 55, 70
2, 25340, Note_off_c, 0, 67, 100
2, 25340, Note_off_c, 0, 63, 100
2, 25340, Note_off_c, 0, 58, 100
2, 25340, Note_off_c, 0, 55, 100
2, 25344, Note_on_c, 0, 63, 70
2, 25344, Note_on_c, 0, 58, 70
2, 25344, Note_on_c, 0, 55, 70
2, 25344, Note_on_c, 0, 67, 92
2, 25532, Note_off_c, 0, 63, 100
2, 25532, Note_off_c, 0, 58, 100
2, 25532, Note_off_c, 0, 55, 100
2, 25536, Note_on_c, 0, 63, 70
2, 25536, Note_on_c, 0, 58, 70
2, 25536, Note_on_c, 0, 55, 70
2, 25724, Note_off_c, 0, 63, 100
2, 25724, Note_off_c, 0, 58, 100
2, 25724, Note_off_c, 0, 55, 100
2, 25728, Note_on_c, 0, 63, 70
2, 25728, Note_on_c, 0, 58, 70
2, 25728, Note_on_c, 0, 55, 70
2, 25916, Note_off_c, 0, 67, 100
2, 25916, Note_off_c, 0, 63, 100
2, 25916, Note_off_c, 0, 58, 100
2, 25916, Note_off_c, 0, 55, 100
2, 25920, Note_on_c, 0, 63, 70
2, 25920, Note_on_c, 0, 58, 70
2, 25920, Note_on_c, 0, 55, 70
2, 25920, Note_on_c, 0, 65, 93
2, 26108, Note_off_c, 0, 63, 100
2, 26108, Note_off_c, 0, 58, 100
2, 26108, Note_off_c, 0, 55, 100
2, 26108, Note_off_c, 0, 65, 100
2, 26112, Note_on_c, 0, 63, 91
2, 26112, Note_on_c, 0, 55, 70
2, 26300, Note_off_c, 0, 63, 100
2, 26300, Note_off_c, 0, 55, 100
2, 26304, Note_on_c, 0, 63, 70
2, 26304, Note_on_c, 0, 55, 70
2, 26304, Note_on_c, 0, 65, 90
2, 26492, Note_off_c, 0, 63, 100
2, 26492, Note_off_c, 0, 55, 100
2, 26492, Note_off_c, 0, 65, 100
2, 26496, Note_on_c, 0, 63, 70
2, 26496, Note_on_c, 0, 55, 70
2, 26496, Note_on_c, 0, 67, 93
2, 26684, Note_off_c, 0, 63, 100
2, 26684, Note_off_c, 0, 55, 100
2, 26684, Note_off_c, 0, 67, 100
2, 26688, Note_on_c, 0, 63, 70
2, 26688, Note_on_c, 0, 55, 70
2, 26688, Note_on_c, 0, 68, 93
2, 26876, Note_off_c, 0, 63, 100
2, 26876, Note_off_c, 0, 55, 100
2, 26876, Note_off_c, 0, 68, 100
2, 26880, Note_on_c, 0, 63, 70
2, 26880, Note_on_c, 0, 55, 70
2, 26880, Note_on_c, 0, 69, 90
2, 27068, Note_off_c, 0, 63, 100
2, 27068, Note_off_c, 0, 55, 100
2, 27072, Note_on_c, 0, 63, 70
2, 27072, Note_on_c, 0, 55, 70
2, 27260, Note_off_c, 0, 69, 100
2, 27260, Note_off_c, 0, 63, 100
2, 27260, Note_off_c, 0, 55, 100
2, 27264, Note_on_c, 0, 63, 70
2, 27264, Note_on_c, 0, 55, 70
2, 27264, Note_on_c, 0, 70, 92
2, 27452, Note_off_c, 0, 63, 100
2, 27452, Note_off_c, 0, 55, 100
2, 27452, Note_off_c, 0, 70, 100
2, 27456, Note_on_c, 0, 63, 70
2, 27456, Note_on_c, 0, 55, 70
2, 27644, Note_off_c, 0, 63, 100
2, 27644, Note_off_c, 0, 55, 100
2, 27648, Note_on_c, 0, 62, 70
2, 27648, Note_on_c, 0, 56, 70
2, 27648, Note_on_c, 0, 70, 90
2, 27836, Note_off_c, 0, 62, 100
2, 27836, Note_off_c, 0, 56, 100
2, 27840, Note_on_c, 0, 62, 70
2, 27840, Note_on_c, 0, 56, 70
2, 28028, Note_off_c, 0, 70, 100
2, 28028, Note_off_c, 0, 62, 100
2, 28028, Note_off_c, 0, 56, 100
2, 28032, Note_on_c, 0, 62, 70
2, 28032, Note_on_c, 0, 56, 70
2, 28032, Note_on_c, 0, 70, 90
2, 28220, Note_off_c, 0, 62, 100
2, 28220, Note_off_c, 0, 56, 100
2, 28224, Note_on_c, 0, 62, 70
2, 28224, Note_on_c, 0, 56, 70
2, 28412, Note_off_c, 0, 70, 100
2, 28412, Note_off_c, 0, 62, 100
2, 28412, Note_off_c, 0, 56, 100
2, 28416, Note_on_c, 0, 62, 70
2, 28416, Note_on_c, 0, 56, 70
2, 28416, Note_on_c, 0, 70, 90
2, 28604, Note_off_c, 0, 62, 100
2, 28604, Note_off_c, 0, 56, 100
2, 28608, Note_on_c, 0, 62, 70
2, 28608, Note_on_c, 0, 56, 70
2, 28796, Note_off_c, 0, 62, 100
2, 28796, Note_off_c, 0, 56, 100
2, 28800, Note_on_c, 0, 62, 70
2, 28800, Note_on_c, 0, 56, 70
2, 28988, Note_off_c, 0, 70, 100
2, 28988, Note_off_c, 0, 62, 100
2, 28988, Note_off_c, 0, 56, 100
2, 28992, Note_on_c, 0, 62, 70
2, 28992, Note_on_c, 0, 56, 70
2, 28992, Note_on_c, 0, 68, 93
2, 29180, Note_off_c, 0, 62, 100
2, 29180, Note_off_c, 0, 56, 100
2, 29180, Note_off_c, 0, 68, 100
2, 29184, Note_on_c, 0, 62, 70
2, 29184, Note_on_c, 0, 56, 70
2, 29184, Note_on_c, 0, 67, 93
2, 29372, Note_off_c, 0, 62, 100
2, 29372, Note_off_c, 0, 56, 100
2, 29372, Note_off_c, 0, 67, 100
2, 29376, Note_on_c, 0, 62, 70
2, 29376, Note_on_c, 0, 56, 70
2, 29376, Note_on_c, 0, 65, 91
2, 29564, Note_off_c, 0, 62, 100
2, 29564, Note_off_c, 0, 56, 100
2, 29564, Note_off_c, 0, 65, 100
2, 29568, Note_on_c, 0, 62, 70
2, 29568, Note_on_c, 0, 56, 70
2, 29568, Note_on_c, 0, 68, 90
2, 29756, Note_off_c, 0, 62, 100
2, 29756, Note_off_c, 0, 56, 100
2, 29756, Note_off_c, 0, 68, 100
2, 29760, Note_on_c, 0, 62, 93
2, 29760, Note_on_c, 0, 56, 70
2, 29948, Note_off_c, 0, 62, 100
2, 29948, Note_off_c, 0, 56, 100
2, 29952, Note_on_c, 0, 55, 70
2, 29952, Note_on_c, 0, 65, 90
2, 30140, Note_off_c, 0, 55, 100
2, 30144, Note_on_c, 0, 55, 70
2, 30332, Note_off_c, 0, 65, 100
2, 30332, Note_off_c, 0, 55, 100
2, 30336, Note_on_c, 0, 55, 70
2, 30336, Note_on_c, 0, 63, 93
2, 30524, Note_off_c, 0, 55, 100
2, 30524, Note_off_c, 0, 63, 100
2, 30528, Note_on_c, 0, 55, 70
2, 30528, Note_on_c, 0, 58, 70
2, 30716, Note_off_c, 0, 55, 100
2, 30716, Note_off_c, 0, 58, 100
2, 30720, Note_on_c, 0, 63, 70
2, 30720, Note_on_c, 0, 58, 70
2, 30720, Note_on_c, 0, 55, 70
2, 30720, Note_on_c, 0, 67, 91
2, 30908, Note_off_c, 0, 63, 100
2, 30908, Note_off_c, 0, 58, 100
2, 30908, Note_off_c, 0, 55, 100
2, 30912, Note_on_c, 0, 63, 70
2, 30912, Note_on_c, 0, 58, 70
2, 30912, Note_on_c, 0, 55, 70
2, 31100, Note_off_c, 0, 67, 100
2, 31100, Note_off_c, 0, 63, 100
2, 31100, Note_off_c, 0, 58, 100
2, 31100, Note_off_c, 0, 55, 100
2, 31104, Note_on_c, 0, 63, 70
2, 31104, Note_on_c, 0, 58, 70
2, 31104, Note_on_c, 0, 55, 70
2, 31104, Note_on_c, 0, 67, 92
2, 31292, Note_off_c, 0, 63, 100
2, 31292, Note_off_c, 0, 58, 100
2, 31292, Note_off_c, 0, 55, 100
2, 31296, Note_on_c, 0, 63, 70
2, 31296, Note_on_c, 0, 58, 70
2, 31296, Note_on_c, 0, 55, 70
2, 31484, Note_off_c, 0, 67, 100
2, 31484, Note_off_c, 0, 63, 100
2, 31484, Note_off_c, 0, 58, 100
2, 31484, Note_off_c, 0, 55, 100
2, 31488, Note_on_c, 0, 63, 70
2, 31488, Note_on_c, 0, 58, 70
2, 31488, Note_on_c, 0, 55, 70
2, 31488, Note_on_c, 0, 67, 92
2, 31676, Note_off_c, 0, 63, 100
2, 31676, Note_off_c, 0, 58, 100
2, 31676, Note_off_c, 0, 55, 100
2, 31680, Note_on_c, 0, 63, 70
2, 31680, Note_on_c, 0, 58, 70
2, 31680, Note_on_c, 0, 55, 70
2, 31868, Note_off_c, 0, 63, 100
2, 31868, Note_off_c, 0, 58, 100
2, 31868, Note_off_c, 0, 55, 100
2, 31872, Note_on_c, 0, 63, 70
2, 31872, Note_on_c, 0, 58, 70
2, 31872, Note_on_c, 0, 55, 70
2, 32060, Note_off_c, 0, 67, 100
2, 32060, Note_off_c, 0, 63, 100
2, 32060, Note_off_c, 0, 58, 100
2, 32060, Note_off_c, 0, 55, 100
2, 32064, Note_on_c, 0, 63, 70
2, 32064, Note_on_c, 0, 58, 70
2, 32064, Note_on_c, 0, 55, 70
2, 32064, Note_on_c, 0, 65, 93
2, 32252, Note_off_c, 0, 63, 100
2, 32252, Note_off_c, 0, 58, 100
2, 32252, Note_off_c, 0, 55, 100
2, 32252, Note_off_c, 0, 65, 100
2, 32256, Note_on_c, 0, 63, 91
2, 32256, Note_on_c, 0, 55, 70
2, 32444, Note_off_c, 0, 63, 100
2, 32444, Note_off_c, 0, 55, 100
2, 32448, Note_on_c, 0, 63, 70
2, 32448, Note_on_c, 0, 55, 70
2, 32448, Note_on_c, 0, 65, 90
2, 32636, Note_off_c, 0, 63, 100
2, 32636, Note_off_c, 0, 55, 100
2, 32636, Note_off_c, 0, 65, 100
2, 32640, Note_on_c, 0, 63, 70
2, 32640, Note_on_c, 0, 55, 70
2, 32640, Note_on_c, 0, 67, 93
2, 32828, Note_off_c, 0, 63, 100
2, 32828, Note_off_c, 0, 55, 100
2, 32828, Note_off_c, 0, 67, 100
2, 32832, Note_on_c, 0, 63, 70
2, 32832, Note_on_c, 0, 55, 70
2, 32832, Note_on_c, 0, 68, 93
2, 33020, Note_off_c, 0, 63, 100
2, 33020, Note_off_c, 0, 55, 100
2, 33020, Note_off_c, 0, 68, 100
2, 33024, Note_on_c, 0, 63, 70
2, 33024, Note_on_c, 0, 55, 70
2, 33024, Note_on_c, 0, 69, 90
2, 33212, Note_off_c, 0, 63, 100
2, 33212, Note_off_c, 0, 55, 100
2, 33216, Note_on_c, 0, 63, 70
2, 33216, Note_on_c, 0, 55, 70
2, 33404, Note_off_c, 0, 69, 100
2, 33404, Note_off_c, 0, 63, 100
2, 33404, Note_off_c, 0, 55, 100
2, 33408, Note_on_c, 0, 63, 70
2, 33408, Note_on_c, 0, 55, 70
2, 33408, Note_on_c, 0, 70, 92
2, 33596, Note_off_c, 0, 63, 100
2, 33596, Note_off_c, 0, 55, 100
2, 33596, Note_off_c, 0, 70, 100
2, 33600, Note_on_c, 0, 63, 70
2, 33600, Note_on_c, 0, 55, 70
2, 33788, Note_off_c, 0, 63, 100
2, 33788, Note_off_c, 0, 55, 100
2, 33792, Note_on_c, 0, 62, 70
2, 33792, Note_on_c, 0, 56, 70
2, 33792, Note_on_c, 0, 70, 90
2, 33980, Note_off_c, 0, 62, 100
2, 33980, Note_off_c, 0, 56, 100
2, 33984, Note_on_c, 0, 62, 70
2, 33984, Note_on_c, 0, 56, 70
2, 34172, Note_off_c, 0, 70, 100
2, 34172, Note_off_c, 0, 62, 100
2, 34172, Note_off_c, 0, 56, 100
2, 34176, Note_on_c, 0, 62, 70
2, 34176, Note_on_c, 0, 56, 70
2, 34176, Note_on_c, 0, 70, 90
2, 34364, Note_off_c, 0, 62, 100
2, 34364, Note_off_c, 0, 56, 100
2, 34368, Note_on_c, 0, 62, 70
2, 34368, Note_on_c, 0, 56, 70
2, 34556, Note_off_c, 0, 70, 100
2, 34556, Note_off_c, 0, 62, 100
2, 34556, Note_off_c, 0, 56, 100
2, 34560, Note_on_c, 0, 62, 70
2, 34560, Note_on_c, 0, 56, 70
2, 34560, Note_on_c, 0, 70, 90
2, 34748, Note_off_c, 0, 62, 100
2, 34748, Note_off_c, 0, 56, 100
2, 34752, Note_on_c, 0, 62, 70
2, 34752, Note_on_c, 0, 56, 70
2, 34940, Note_off_c, 0, 62, 100
2, 34940, Note_off_c, 0, 56, 100
2, 34944, Note_on_c, 0, 62, 70
2, 34944, Note_on_c, 0, 56, 70
2, 35132, Note_off_c, 0, 70, 100
2, 35132, Note_off_c, 0, 62, 100
2, 35132, Note_off_c, 0, 56, 100
2, 35136, Note_on_c, 0, 62, 70
2, 35136, Note_on_c, 0, 56, 70
2, 35136, Note_on_c, 0, 68, 93
2, 35324, Note_off_c, 0, 62, 100
2, 35324, Note_off_c, 0, 56, 100
2, 35324, Note_off_c, 0, 68, 100
2, 35328, Note_on_c, 0, 62, 70
2, 35328, Note_on_c, 0, 56, 70
2, 35328, Note_on_c, 0, 67, 93
2, 35516, Note_off_c, 0, 62, 100
2, 35516, Note_off_c, 0, 56, 100
2, 35516, Note_off_c, 0, 67, 100
2, 35520, Note_on_c, 0, 62, 70
2, 35520, Note_on_c, 0, 56, 70
2, 35520, Note_on_c, 0, 65, 91
2, 35708, Note_off_c, 0, 62, 100
2, 35708, Note_off_c, 0, 56, 100
2, 35708, Note_off_c, 0, 65, 100
2, 35712, Note_on_c, 0, 62, 70
2, 35712, Note_on_c, 0, 56, 70
2, 35712, Note_on_c, 0, 68, 90
2, 35900, Note_off_c, 0, 62, 100
2, 35900, Note_off_c, 0, 56, 100
2, 35900, Note_off_c, 0, 68, 100
2, 35904, Note_on_c, 0, 62, 93
2, 35904, Note_on_c, 0, 56, 70
2, 36092, Note_off_c, 0, 62, 100
2, 36092, Note_off_c, 0, 56, 100
2, 36096, Note_on_c, 0, 55, 70
2, 36096, Note_on_c, 0, 65, 90
2, 36284, Note_off_c, 0, 55, 100
2, 36288, Note_on_c, 0, 55, 70
2, 36476, Note_off_c, 0, 65, 100
2, 36476, Note_off_c, 0, 55, 100
2, 36480, Note_on_c, 0, 55, 70
2, 36480, Note_on_c, 0, 63, 93
2, 36668, Note_off_c, 0, 55, 100
2, 36668, Note_off_c, 0, 63, 100
2, 36672, Note_on_c, 0, 67, 70
2, 36860, Note_off_c, 0, 67, 100
2, 36864, Note_on_c, 0, 76, 70
2, 36864, Note_on_c, 0, 72, 70
2, 36864, Note_on_c, 0, 67, 70
2, 36864, Note_on_c, 0, 64, 70
2, 37244, Note_off_c, 0, 76, 100
2, 37244, Note_off_c, 0, 72, 100
2, 37244, Note_off_c, 0, 67, 100
2, 37244, Note_off_c, 0, 64, 100
2, 37248, Note_on_c, 0, 76, 70
2, 37248, Note_on_c, 0, 72, 70
2, 37248, Note_on_c, 0, 67, 70
2, 37248, Note_on_c, 0, 64, 70
2, 37628, Note_off_c, 0, 76, 100
2, 37628, Note_off_c, 0, 72, 100
2, 37628, Note_off_c, 0, 67, 100
2, 37628, Note_off_c, 0, 64, 100
2, 37632, Note_on_c, 0, 76, 70
2, 37632, Note_on_c, 0, 72, 70
2, 37632, Note_on_c, 0, 67, 70
2, 37632, Note_on_c, 0, 64, 70
2, 38204, Note_off_c, 0, 76, 100
2, 38204, Note_off_c, 0, 72, 100
2, 38204, Note_off_c, 0, 67, 100
2, 38204, Note_off_c, 0, 64, 100
2, 38208, Note_on_c, 0, 72, 70
2, 38208, Note_on_c, 0, 64, 70
2, 38396, Note_off_c, 0, 72, 100
2, 38396, Note_off_c, 0, 64, 100
2, 38400, Note_on_c, 0, 74, 78
2, 38400, Note_on_c, 0, 65, 78
2, 38588, Note_off_c, 0, 74, 100
2, 38588, Note_off_c, 0, 65, 100
2, 38592, Note_on_c, 0, 76, 87
2, 38592, Note_on_c, 0, 72, 87
2, 38592, Note_on_c, 0, 67, 87
2, 38780, Note_off_c, 0, 76, 100
2, 38780, Note_off_c, 0, 72, 100
2, 38780, Note_off_c, 0, 67, 100
2, 38784, Note_on_c, 0, 77, 96
2, 38784, Note_on_c, 0, 72, 96
2, 38784, Note_on_c, 0, 68, 96
2, 38972, Note_off_c, 0, 77, 100
2, 38972, Note_off_c, 0, 72, 100
2, 38972, Note_off_c, 0, 68, 100
2, 38976, Note_on_c, 0, 79, 104
2, 38976, Note_on_c, 0, 72, 104
2, 38976, Note_on_c, 0, 70, 104
2, 39164, Note_off_c, 0, 79, 100
2, 39164, Note_off_c, 0, 72, 100
2, 39164, Note_off_c, 0, 70, 100
2, 39168, Note_on_c, 0, 72, 110
2, 39168, Note_on_c, 0, 68, 110
2, 39168, Note_on_c, 0, 80, 110
2, 39932, Note_off_c, 0, 72, 100
2, 39932, Note_off_c, 0, 68, 100
2, 40124, Note_off_c, 0, 80, 100
2, 40128, Note_on_c, 0, 80, 98
2, 40220, Note_off_c, 0, 80, 100
2, 40224, Note_on_c, 0, 79, 97
2, 40316, Note_off_c, 0, 79, 100
2, 40320, Note_on_c, 0, 77, 96
2, 40412, Note_off_c, 0, 77, 100
2, 40416, Note_on_c, 0, 75, 94
2, 40508, Note_off_c, 0, 75, 100
2, 40512, Note_on_c, 0, 74, 93
2, 40604, Note_off_c, 0, 74, 100
2, 40608, Note_on_c, 0, 72, 92
2, 40700, Note_off_c, 0, 72, 100
2, 40704, Note_on_c, 0, 70, 105
2, 40896, Note_on_c, 0, 68, 88
2, 40988, Note_off_c, 0, 68, 100
2, 40992, Note_on_c, 0, 67, 87
2, 41084, Note_off_c, 0, 67, 100
2, 41088, Note_on_c, 0, 65, 86
2, 41180, Note_off_c, 0, 65, 100
2, 41184, Note_on_c, 0, 63, 84
2, 41276, Note_off_c, 0, 63, 100
2, 41280, Note_on_c, 0, 62, 83
2, 41372, Note_off_c, 0, 62, 100
2, 41376, Note_on_c, 0, 60, 82
2, 41468, Note_off_c, 0, 60, 100
2, 41472, Note_on_c, 0, 58, 81
2, 41660, Note_off_c, 0, 70, 100
2, 41664, Note_on_c, 0, 69, 70
2, 41852, Note_off_c, 0, 58, 100
2, 41852, Note_off_c, 0, 69, 100
2, 41856, Note_on_c, 0, 68, 70
2, 41856, Note_on_c, 0, 62, 70
2, 42044, Note_off_c, 0, 68, 100
2, 42048, Note_on_c, 0, 65, 70
2, 42236, Note_off_c, 0, 62, 100
2, 42236, Note_off_c, 0, 65, 100
2, 42240, Note_on_c, 0, 63, 70
2, 42620, Note_off_c, 0, 63, 100
2, 42816, Note_on_c, 0, 67, 70
2, 43004, Note_off_c, 0, 67, 100
2, 43008, Note_on_c, 0, 76, 70
2, 43008, Note_on_c, 0, 72, 70
2, 43008, Note_on_c, 0, 67, 70
2, 43008, Note_on_c, 0, 64, 70
2, 43388, Note_off_c, 0, 76, 100
2, 43388, Note_off_c, 0, 72, 100
2, 43388, Note_off_c, 0, 67, 100
2, 43388, Note_off_c, 0, 64, 100
2, 43392, Note_on_c, 0, 76, 70
2, 43392, Note_on_c, 0, 72, 70
2, 43392, Note_on_c, 0, 67, 70
2, 43392, Note_on_c, 0, 64, 70
2, 43772, Note_off_c, 0, 76, 100
2, 43772, Note_off_c, 0, 72, 100
2, 43772, Note_off_c, 0, 67, 100
2, 43772, Note_off_c, 0, 64, 100
2, 43776, Note_on_c, 0, 76, 70
2, 43776, Note_on_c, 0, 72, 70
2, 43776, Note_on_c, 0, 67, 70
2, 43776, Note_on_c, 0, 64, 70
2, 44348, Note_off_c, 0, 76, 100
2, 44348, Note_off_c, 0, 72, 100
2, 44348, Note_off_c, 0, 67, 100
2, 44348, Note_off_c, 0, 64, 100
2, 44352, Note_on_c, 0, 72, 70
2, 44376, Note_on_c, 0, 74, 71
2, 44384, Note_off_c, 0, 72, 100
2, 44400, Note_on_c, 0, 72, 72
2, 44404, Note_off_c, 0, 74, 100
2, 44424, Note_on_c, 0, 74, 73
2, 44436, Note_off_c, 0, 72, 100
2, 44448, Note_on_c, 0, 72, 74
2, 44460, Note_off_c, 0, 74, 100
2, 44472, Note_on_c, 0, 74, 75
2, 44488, Note_off_c, 0, 72, 100
2, 44496, Note_on_c, 0, 71, 76
2, 44508, Note_off_c, 0, 74, 100
2, 44520, Note_on_c, 0, 72, 77
2, 44528, Note_off_c, 0, 71, 100
2, 44540, Note_off_c, 0, 72, 100
2, 44544, Note_on_c, 0, 74, 78
2, 44732, Note_off_c, 0, 74, 100
2, 44736, Note_on_c, 0, 76, 87
2, 44760, Note_on_c, 0, 77, 88
2, 44776, Note_off_c, 0, 76, 100
2, 44784, Note_on_c, 0, 76, 89
2, 44800, Note_off_c, 0, 77, 100
2, 44808, Note_on_c, 0, 77, 90
2, 44824, Note_off_c, 0, 76, 100
2, 44832, Note_on_c, 0, 76, 91
2, 44852, Note_off_c, 0, 77, 100
2, 44856, Note_on_c, 0, 77, 92
2, 44876, Note_off_c, 0, 76, 100
2, 44880, Note_on_c, 0, 74, 93
2, 44896, Note_off_c, 0, 77, 100
2, 44904, Note_on_c, 0, 76, 94
2, 44912, Note_off_c, 0, 74, 100
2, 44924, Note_off_c, 0, 76, 100
2, 44928, Note_on_c, 0, 77, 95
2, 45116, Note_off_c, 0, 77, 100
2, 45120, Note_on_c, 0, 79, 104
2, 45144, Note_on_c, 0, 80, 105
2, 45156, Note_off_c, 0, 79, 100
2, 45168, Note_on_c, 0, 79, 106
2, 45184, Note_off_c, 0, 80, 100
2, 45192, Note_on_c, 0, 80, 107
2, 45208, Note_off_c, 0, 79, 100
2, 45216, Note_on_c, 0, 79, 108
2, 45232, Note_off_c, 0, 80, 100
2, 45240, Note_on_c, 0, 80, 109
2, 45260, Note_off_c, 0, 79, 100
2, 45264, Note_on_c, 0, 77, 110
2, 45280, Note_off_c, 0, 80, 100
2, 45288, Note_on_c, 0, 79, 110
2, 45304, Note_off_c, 0, 77, 100
2, 45308, Note_off_c, 0, 79, 100
2, 45312, Note_on_c, 0, 80, 110
2, 46268, Note_off_c, 0, 80, 100
2, 46272, Note_on_c, 0, 80, 93
2, 46364, Note_off_c, 0, 80, 100
2, 46368, Note_on_c, 0, 79, 92
2, 46460, Note_off_c, 0, 79, 100
2, 46464, Note_on_c, 0, 77, 90
2, 46556, Note_off_c, 0, 77, 100
2, 46560, Note_on_c, 0, 75, 88
2, 46652, Note_off_c, 0, 75, 100
2, 46656, Note_on_c, 0, 74, 87
2, 46748, Note_off_c, 0, 74, 100
2, 46752, Note_on_c, 0, 72, 85
2, 46844, Note_off_c, 0, 72, 100
2, 46848, Note_on_c, 0, 70, 101
2, 47040, Note_on_c, 0, 68, 80
2, 47132, Note_off_c, 0, 68, 100
2, 47136, Note_on_c, 0, 67, 79
2, 47228, Note_off_c, 0, 67, 100
2, 47232, Note_on_c, 0, 65, 77
2, 47324, Note_off_c, 0, 65, 100
2, 47328, Note_on_c, 0, 63, 75
2, 47420, Note_off_c, 0, 63, 100
2, 47424, Note_on_c, 0, 62, 74
2, 47516, Note_off_c, 0, 62, 100
2, 47520, Note_on_c, 0, 60, 72
2, 47612, Note_off_c, 0, 60, 100
2, 47616, Note_on_c, 0, 58, 71
2, 47804, Note_off_c, 0, 70, 100
2, 47808, Note_on_c, 0, 69, 70
2, 47996, Note_off_c, 0, 58, 100
2, 47996, Note_off_c, 0, 69, 100
2, 48000, Note_on_c, 0, 68, 70
2, 48000, Note_on_c, 0, 62, 70
2, 48188, Note_off_c, 0, 68, 100
2, 48192, Note_on_c, 0, 65, 70
2, 48380, Note_off_c, 0, 62, 100
2, 48380, Note_off_c, 0, 65, 100
2, 48384, Note_on_c, 0, 63, 70
2, 48764, Note_off_c, 0, 63, 100
2, 48960, Note_on_c, 0, 58, 70
2, 49148, Note_off_c, 0, 58, 100
2, 49152, Note_on_c, 0, 70, 70
2, 49152, Note_on_c, 0, 58, 70
2, 49152, Note_on_c, 0, 67, 70
2, 49532, Note_off_c, 0, 70, 100
2, 49532, Note_off_c, 0, 58, 100
2, 49532, Note_off_c, 0, 67, 100
2, 49536, Note_on_c, 0, 70, 70
2, 49536, Note_on_c, 0, 67, 70
2, 49536, Note_on_c, 0, 58, 70
2, 49916, Note_off_c, 0, 70, 100
2, 49916, Note_off_c, 0, 67, 100
2, 49916, Note_off_c, 0, 58, 100
2, 49920, Note_on_c, 0, 63, 70
2, 49920, Note_on_c, 0, 58, 70
2, 49920, Note_on_c, 0, 67, 70
2, 50684, Note_off_c, 0, 63, 100
2, 50684, Note_off_c, 0, 58, 100
2, 50684, Note_off_c, 0, 67, 100
2, 50688, Note_on_c, 0, 65, 70
2, 50688, Note_on_c, 0, 62, 70
2, 50688, Note_on_c, 0, 58, 70
2, 51068, Note_off_c, 0, 65, 100
2, 51068, Note_off_c, 0, 62, 100
2, 51068, Note_off_c, 0, 58, 100
2, 51072, Note_on_c, 0, 65, 70
2, 51072, Note_on_c, 0, 62, 70
2, 51072, Note_on_c, 0, 58, 70
2, 51452, Note_off_c, 0, 65, 100
2, 51452, Note_off_c, 0, 62, 100
2, 51452, Note_off_c, 0, 58, 100
2, 51456, Note_on_c, 0, 70, 70
2, 51456, Note_on_c, 0, 68, 70
2, 51456, Note_on_c, 0, 65, 70
2, 51456, Note_on_c, 0, 58, 70
2, 52220, Note_off_c, 0, 70, 100
2, 52220, Note_off_c, 0, 68, 100
2, 52220, Note_off_c, 0, 65, 100
2, 52220, Note_off_c, 0, 58, 100
2, 52224, Note_on_c, 0, 70, 70
2, 52224, Note_on_c, 0, 58, 70
2, 52224, Note_on_c, 0, 67, 70
2, 52604, Note_off_c, 0, 70, 100
2, 52604, Note_off_c, 0, 58, 100
2, 52604, Note_off_c, 0, 67, 100
2, 52608, Note_on_c, 0, 70, 70
2, 52608, Note_on_c, 0, 67, 70
2, 52608, Note_on_c, 0, 58, 70
2, 52988, Note_off_c, 0, 70, 100
2, 52988, Note_off_c, 0, 67, 100
2, 52988, Note_off_c, 0, 58, 100
2, 52992, Note_on_c, 0, 63, 70
2, 52992, Note_on_c, 0, 58, 70
2, 52992, Note_on_c, 0, 67, 70
2, 53756, Note_off_c, 0, 63, 100
2, 53756, Note_off_c, 0, 58, 100
2, 53756, Note_off_c, 0, 67, 100
2, 53760, Note_on_c, 0, 65, 70
2, 53760, Note_on_c, 0, 62, 70
2, 53760, Note_on_c, 0, 58, 70
2, 53948, Note_off_c, 0, 65, 100
2, 53948, Note_off_c, 0, 62, 100
2, 53948, Note_off_c, 0, 58, 100
2, 53952, Note_on_c, 0, 70, 70
2, 54332, Note_off_c, 0, 70, 100
2, 54336, Note_on_c, 0, 70, 70
2, 54336, Note_on_c, 0, 58, 70
2, 54524, Note_off_c, 0, 70, 100
2, 54524, Note_off_c, 0, 58, 100
2, 54528, Note_on_c, 0, 63, 70
2, 54528, Note_on_c, 0, 55, 70
2, 54908, Note_off_c, 0, 63, 100
2, 54908, Note_off_c, 0, 55, 100
2, 55104, Note_on_c, 0, 58, 70
2, 55292, Note_off_c, 0, 58, 100
2, 55296, Note_on_c, 0, 70, 70
2, 55296, Note_on_c, 0, 67, 70
2, 55296, Note_on_c, 0, 58, 70
2, 55484, Note_off_c, 0, 70, 100
2, 55484, Note_off_c, 0, 67, 100
2, 55484, Note_off_c, 0, 58, 100
2, 55488, Note_on_c, 0, 70, 70
2, 55488, Note_on_c, 0, 67, 70
2, 55488, Note_on_c, 0, 58, 70
2, 55676, Note_off_c, 0, 70, 100
2, 55676, Note_off_c, 0, 67, 100
2, 55676, Note_off_c, 0, 58, 100
2, 55680, Note_on_c, 0, 70, 70
2, 55680, Note_on_c, 0, 67, 70
2, 55680, Note_on_c, 0, 58, 70
2, 55868, Note_off_c, 0, 70, 100
2, 55868, Note_off_c, 0, 67, 100
2, 55868, Note_off_c, 0, 58, 100
2, 55872, Note_on_c, 0, 70, 70
2, 55872, Note_on_c, 0, 67, 70
2, 55872, Note_on_c, 0, 58, 70
2, 56060, Note_off_c, 0, 70, 100
2, 56060, Note_off_c, 0, 67, 100
2, 56060, Note_off_c, 0, 58, 100
2, 56064, Note_on_c, 0, 63, 70
2, 56064, Note_on_c, 0, 58, 70
2, 56064, Note_on_c, 0, 67, 70
2, 56828, Note_off_c, 0, 63, 100
2, 56828, Note_off_c, 0, 58, 100
2, 56828, Note_off_c, 0, 67, 100
2, 56832, Note_on_c, 0, 65, 70
2, 56832, Note_on_c, 0, 62, 70
2, 56832, Note_on_c, 0, 58, 70
2, 57020, Note_off_c, 0, 65, 100
2, 57020, Note_off_c, 0, 62, 100
2, 57020, Note_off_c, 0, 58, 100
2, 57024, Note_on_c, 0, 65, 70
2, 57024, Note_on_c, 0, 62, 70
2, 57024, Note_on_c, 0, 58, 70
2, 57212, Note_off_c, 0, 65, 100
2, 57212, Note_off_c, 0, 62, 100
2, 57212, Note_off_c, 0, 58, 100
2, 57216, Note_on_c, 0, 65, 70
2, 57216, Note_on_c, 0, 62, 70
2, 57216, Note_on_c, 0, 58, 70
2, 57404, Note_off_c, 0, 65, 100
2, 57404, Note_off_c, 0, 62, 100
2, 57404, Note_off_c, 0, 58, 100
2, 57408, Note_on_c, 0, 65, 70
2, 57408, Note_on_c, 0, 62, 70
2, 57408, Note_on_c, 0, 58, 70
2, 57596, Note_off_c, 0, 65, 100
2, 57596, Note_off_c, 0, 62, 100
2, 57596, Note_off_c, 0, 58, 100
2, 57600, Note_on_c, 0, 70, 70
2, 57600, Note_on_c, 0, 68, 70
2, 57600, Note_on_c, 0, 65, 70
2, 57600, Note_on_c, 0, 58, 70
2, 58364, Note_off_c, 0, 70, 100
2, 58364, Note_off_c, 0, 68, 100
2, 58364, Note_off_c, 0, 65, 100
2, 58364, Note_off_c, 0, 58, 100
2, 58368, Note_on_c, 0, 70, 70
2, 58368, Note_on_c, 0, 67, 70
2, 58368, Note_on_c, 0, 58, 70
2, 58556, Note_off_c, 0, 70, 100
2, 58556, Note_off_c, 0, 67, 100
2, 58556, Note_off_c, 0, 58, 100
2, 58560, Note_on_c, 0, 70, 70
2, 58560, Note_on_c, 0, 67, 70
2, 58560, Note_on_c, 0, 58, 70
2, 58748, Note_off_c, 0, 70, 100
2, 58748, Note_off_c, 0, 67, 100
2, 58748, Note_off_c, 0, 58, 100
2, 58752, Note_on_c, 0, 70, 70
2, 58752, Note_on_c, 0, 67, 70
2, 58752, Note_on_c, 0, 58, 70
2, 58940, Note_off_c, 0, 70, 100
2, 58940, Note_off_c, 0, 67, 100
2, 58940, Note_off_c, 0, 58, 100
2, 58944, Note_on_c, 0, 70, 70
2, 58944, Note_on_c, 0, 67, 70
2, 58944, Note_on_c, 0, 58, 70
2, 59132, Note_off_c, 0, 70, 100
2, 59132, Note_off_c, 0, 67, 100
2, 59132, Note_off_c, 0, 58, 100
2, 59136, Note_on_c, 0, 63, 70
2, 59136, Note_on_c, 0, 58, 70
2, 59136, Note_on_c, 0, 67, 70
2, 59900, Note_off_c, 0, 63, 100
2, 59900, Note_off_c, 0, 58, 100
2, 59900, Note_off_c, 0, 67, 100
2, 59904, Note_on_c, 0, 65, 70
2, 59904, Note_on_c, 0, 62, 70
2, 59904, Note_on_c, 0, 58, 70
2, 60092, Note_off_c, 0, 65, 100
2, 60092, Note_off_c, 0, 62, 100
2, 60092, Note_off_c, 0, 58, 100
2, 60096, Note_on_c, 0, 70, 70
2, 60476, Note_off_c, 0, 70, 100
2, 60480, Note_on_c, 0, 70, 70
2, 60480, Note_on_c, 0, 58, 70
2, 60668, Note_off_c, 0, 70, 100
2, 60668, Note_off_c, 0, 58, 100
2, 60672, Note_on_c, 0, 63, 70
2, 60672, Note_on_c, 0, 55, 70
2, 61052, Note_off_c, 0, 63, 100
2, 61052, Note_off_c, 0, 55, 100
2, 61440, Note_on_c, 0, 65, 70
2, 61440, Note_on_c, 0, 68, 70
2, 61628, Note_off_c, 0, 65, 100
2, 61628, Note_off_c, 0, 68, 100
2, 61632, Note_on_c, 0, 65, 70
2, 61632, Note_on_c, 0, 68, 70
2, 61820, Note_off_c, 0, 65, 100
2, 61820, Note_off_c, 0, 68, 100
2, 61824, Note_on_c, 0, 65, 70
2, 61824, Note_on_c, 0, 68, 70
2, 62012, Note_off_c, 0, 65, 100
2, 62012, Note_off_c, 0, 68, 100
2, 62016, Note_on_c, 0, 65, 70
2, 62016, Note_on_c, 0, 68, 70
2, 62204, Note_off_c, 0, 65, 100
2, 62204, Note_off_c, 0, 68, 100
2, 62208, Note_on_c, 0, 74, 70
2, 62208, Note_on_c, 0, 68, 70
2, 62208, Note_on_c, 0, 65, 70
2, 62972, Note_off_c, 0, 74, 100
2, 62972, Note_off_c, 0, 68, 100
2, 62972, Note_off_c, 0, 65, 100
2, 62976, Note_on_c, 0, 74, 70
2, 62976, Note_on_c, 0, 65, 70
2, 63164, Note_off_c, 0, 74, 100
2, 63164, Note_off_c, 0, 65, 100
2, 63168, Note_on_c, 0, 74, 73
2, 63168, Note_on_c, 0, 65, 73
2, 63356, Note_off_c, 0, 74, 100
2, 63356, Note_off_c, 0, 65, 100
2, 63360, Note_on_c, 0, 74, 76
2, 63360, Note_on_c, 0, 65, 76
2, 63548, Note_off_c, 0, 74, 100
2, 63548, Note_off_c, 0, 65, 100
2, 63552, Note_on_c, 0, 74, 79
2, 63552, Note_on_c, 0, 65, 79
2, 63740, Note_off_c, 0, 74, 100
2, 63740, Note_off_c, 0, 65, 100
2, 63744, Note_on_c, 0, 77, 83
2, 63744, Note_on_c, 0, 74, 83
2, 63744, Note_on_c, 0, 68, 83
2, 63744, Note_on_c, 0, 65, 83
2, 64508, Note_off_c, 0, 77, 100
2, 64508, Note_off_c, 0, 74, 100
2, 64508, Note_off_c, 0, 68, 100
2, 64508, Note_off_c, 0, 65, 100
2, 64512, Note_on_c, 0, 77, 96
2, 64512, Note_on_c, 0, 74, 96
2, 64512, Note_on_c, 0, 65, 96
2, 64700, Note_off_c, 0, 77, 100
2, 64700, Note_off_c, 0, 74, 100
2, 64700, Note_off_c, 0, 65, 100
2, 64704, Note_on_c, 0, 77, 99
2, 64704, Note_on_c, 0, 74, 99
2, 64704, Note_on_c, 0, 65, 99
2, 64892, Note_off_c, 0, 77, 100
2, 64892, Note_off_c, 0, 74, 100
2, 64892, Note_off_c, 0, 65, 100
2, 64896, Note_on_c, 0, 77, 103
2, 64896, Note_on_c, 0, 74, 103
2, 64896, Note_on_c, 0, 65, 103
2, 65084, Note_off_c, 0, 77, 100
2, 65084, Note_off_c, 0, 74, 100
2, 65084, Note_off_c, 0, 65, 100
2, 65088, Note_on_c, 0, 77, 106
2, 65088, Note_on_c, 0, 74, 106
2, 65088, Note_on_c, 0, 65, 106
2, 65276, Note_off_c, 0, 77, 100
2, 65276, Note_off_c, 0, 74, 100
2, 65276, Note_off_c, 0, 65, 100
2, 65280, Note_on_c, 0, 77, 109
2, 65280, Note_on_c, 0, 74, 109
2, 65280, Note_on_c, 0, 80, 109
2, 65660, Note_off_c, 0, 77, 100
2, 65660, Note_off_c, 0, 74, 100
2, 65664, Note_on_c, 0, 75, 110
2, 65852, Note_off_c, 0, 80, 100
2, 65852, Note_off_c, 0, 75, 100
2, 65856, Note_on_c, 0, 79, 110
2, 65856, Note_on_c, 0, 71, 110
2, 66044, Note_off_c, 0, 79, 100
2, 66044, Note_off_c, 0, 71, 100
2, 66048, Note_on_c, 0, 79, 100
2, 66048, Note_on_c, 0, 72, 100
2, 66236, Note_off_c, 0, 79, 100
2, 66236, Note_off_c, 0, 72, 100
2, 66240, Note_on_c, 0, 77, 91
2, 66240, Note_on_c, 0, 72, 91
2, 66428, Note_off_c, 0, 77, 100
2, 66428, Note_off_c, 0, 72, 100
2, 66432, Note_on_c, 0, 75, 81
2, 66432, Note_on_c, 0, 67, 81
2, 66620, Note_off_c, 0, 75, 100
2, 66620, Note_off_c, 0, 67, 100
2, 66624, Note_on_c, 0, 74, 71
2, 66624, Note_on_c, 0, 68, 71
2, 66624, Note_on_c, 0, 65, 71
2, 66812, Note_off_c, 0, 74, 100
2, 66812, Note_off_c, 0, 68, 100
2, 66812, Note_off_c, 0, 65, 100
2, 66816, Note_on_c, 0, 77, 70
2, 66816, Note_on_c, 0, 68, 70
2, 67196, Note_off_c, 0, 77, 100
2, 67196, Note_off_c, 0, 68, 100
2, 67200, Note_on_c, 0, 75, 70
2, 67200, Note_on_c, 0, 67, 70
2, 67388, Note_off_c, 0, 75, 100
2, 67388, Note_off_c, 0, 67, 100
2, 67584, Note_on_c, 0, 67, 70
2, 67676, Note_off_c, 0, 67, 100
2, 67680, Note_on_c, 0, 68, 70
2, 67772, Note_off_c, 0, 68, 100
2, 67776, Note_on_c, 0, 67, 70
2, 67868, Note_off_c, 0, 67, 100
2, 67872, Note_on_c, 0, 68, 70
2, 67964, Note_off_c, 0, 68, 100
2, 67968, Note_on_c, 0, 67, 70
2, 68060, Note_off_c, 0, 67, 100
2, 68064, Note_on_c, 0, 68, 70
2, 68156, Note_off_c, 0, 68, 100
2, 68160, Note_on_c, 0, 67, 70
2, 68252, Note_off_c, 0, 67, 100
2, 68256, Note_on_c, 0, 68, 70
2, 68348, Note_off_c, 0, 68, 100
2, 68352, Note_on_c, 0, 74, 70
2, 68352, Note_on_c, 0, 68, 70
2, 68352, Note_on_c, 0, 65, 70
2, 69116, Note_off_c, 0, 74, 100
2, 69116, Note_off_c, 0, 68, 100
2, 69116, Note_off_c, 0, 65, 100
2, 69120, Note_on_c, 0, 73, 70
2, 69212, Note_off_c, 0, 73, 100
2, 69216, Note_on_c, 0, 74, 71
2, 69308, Note_off_c, 0, 74, 100
2, 69312, Note_on_c, 0, 73, 73
2, 69404, Note_off_c, 0, 73, 100
2, 69408, Note_on_c, 0, 74, 74
2, 69500, Note_off_c, 0, 74, 100
2, 69504, Note_on_c, 0, 73, 76
2, 69596, Note_off_c, 0, 73, 100
2, 69600, Note_on_c, 0, 74, 78
2, 69692, Note_off_c, 0, 74, 100
2, 69696, Note_on_c, 0, 73, 79
2, 69788, Note_off_c, 0, 73, 100
2, 69792, Note_on_c, 0, 74, 81
2, 69884, Note_off_c, 0, 74, 100
2, 69888, Note_on_c, 0, 68, 83
2, 69888, Note_on_c, 0, 65, 83
2, 69888, Note_on_c, 0, 77, 83
2, 69888, Note_on_c, 0, 74, 83
2, 70652, Note_off_c, 0, 68, 100
2, 70652, Note_off_c, 0, 65, 100
2, 70748, Note_off_c, 0, 74, 100
2, 70748, Note_off_c, 0, 77, 100
2, 70752, Note_on_c, 0, 77, 98
2, 70752, Note_on_c, 0, 74, 98
2, 70844, Note_off_c, 0, 77, 100
2, 70844, Note_off_c, 0, 74, 100
2, 70848, Note_on_c, 0, 76, 110
2, 70848, Note_on_c, 0, 73, 110
2, 70940, Note_off_c, 0, 76, 100
2, 70940, Note_off_c, 0, 73, 100
2, 70944, Note_on_c, 0, 77, 110
2, 70944, Note_on_c, 0, 74, 110
2, 71036, Note_off_c, 0, 77, 100
2, 71036, Note_off_c, 0, 74, 100
2, 71040, Note_on_c, 0, 76, 110
2, 71040, Note_on_c, 0, 73, 110
2, 71132, Note_off_c, 0, 76, 100
2, 71132, Note_off_c, 0, 73, 100
2, 71136, Note_on_c, 0, 77, 110
2, 71136, Note_on_c, 0, 74, 110
2, 71228, Note_off_c, 0, 77, 100
2, 71228, Note_off_c, 0, 74, 100
2, 71232, Note_on_c, 0, 76, 110
2, 71232, Note_on_c, 0, 73, 110
2, 71324, Note_off_c, 0, 76, 100
2, 71324, Note_off_c, 0, 73, 100
2, 71328, Note_on_c, 0, 77, 110
2, 71328, Note_on_c, 0, 74, 110
2, 71420, Note_off_c, 0, 77, 100
2, 71420, Note_off_c, 0, 74, 100
2, 71424, Note_on_c, 0, 77, 110
2, 71424, Note_on_c, 0, 74, 110
2, 71424, Note_on_c, 0, 80, 110
2, 71804, Note_off_c, 0, 77, 100
2, 71804, Note_off_c, 0, 74, 100
2, 71808, Note_on_c, 0, 75, 110
2, 71996, Note_off_c, 0, 80, 100
2, 71996, Note_off_c, 0, 75, 100
2, 72000, Note_on_c, 0, 79, 110
2, 72000, Note_on_c, 0, 71, 110
2, 72188, Note_off_c, 0, 79, 100
2, 72188, Note_off_c, 0, 71, 100
2, 72192, Note_on_c, 0, 79, 100
2, 72192, Note_on_c, 0, 72, 100
2, 72380, Note_off_c, 0, 79, 100
2, 72380, Note_off_c, 0, 72, 100
2, 72384, Note_on_c, 0, 77, 91
2, 72384, Note_on_c, 0, 72, 91
2, 72572, Note_off_c, 0, 77, 100
2, 72572, Note_off_c, 0, 72, 100
2, 72576, Note_on_c, 0, 75, 81
2, 72576, Note_on_c, 0, 67, 81
2, 72764, Note_off_c, 0, 75, 100
2, 72764, Note_off_c, 0, 67, 100
2, 72768, Note_on_c, 0, 74, 71
2, 72768, Note_on_c, 0, 68, 71
2, 72768, Note_on_c, 0, 65, 71
2, 72956, Note_off_c, 0, 74, 100
2, 72956, Note_off_c, 0, 68, 100
2, 72956, Note_off_c, 0, 65, 100
2, 72960, Note_on_c, 0, 77, 70
2, 72960, Note_on_c, 0, 68, 70
2, 73340, Note_off_c, 0, 77, 100
2, 73340, Note_off_c, 0, 68, 100
2, 73344, Note_on_c, 0, 75, 70
2, 73344, Note_on_c, 0, 67, 70
2, 73532, Note_off_c, 0, 75, 100
2, 73532, Note_off_c, 0, 67, 100
2, 73536, Note_on_c, 0, 55, 110
2, 73628, Note_off_c, 0, 55, 100
2, 73632, Note_on_c, 0, 53, 110
2, 73724, Note_off_c, 0, 53, 100
2, 73728, Key_signature, 0, "major"
2, 73728, Note_on_c, 0, 52, 110
2, 73820, Note_off_c, 0, 52, 100
2, 73824, Note_on_c, 0, 55, 110
2, 73916, Note_off_c, 0, 55, 100
2, 73920, Note_on_c, 0, 60, 110
2, 74012, Note_off_c, 0, 60, 100
2, 74016, Note_on_c, 0, 55, 110
2, 74108, Note_off_c, 0, 55, 100
2, 74112, Note_on_c, 0, 64, 110
2, 74204, Note_off_c, 0, 64, 100
2, 74208, Note_on_c, 0, 60, 110
2, 74300, Note_off_c, 0, 60, 100
2, 74304, Note_on_c, 0, 67, 110
2, 74396, Note_off_c, 0, 67, 100
2, 74400, Note_on_c, 0, 64, 110
2, 74492, Note_off_c, 0, 64, 100
2, 74496, Note_on_c, 0, 72, 110
2, 74588, Note_off_c, 0, 72, 100
2, 74592, Note_on_c, 0, 67, 110
2, 74684, Note_off_c, 0, 67, 100
2, 74688, Note_on_c, 0, 76, 110
2, 74780, Note_off_c, 0, 76, 100
2, 74784, Note_on_c, 0, 72, 110
2, 74876, Note_off_c, 0, 72, 100
2, 74880, Note_on_c, 0, 79, 70
2, 75068, Note_off_c, 0, 79, 100
2, 75072, Note_on_c, 0, 76, 70
2, 75260, Note_off_c, 0, 76, 100
2, 75264, Note_on_c, 0, 72, 70
2, 75452, Note_off_c, 0, 72, 100
2, 75456, Note_on_c, 0, 71, 70
2, 75836, Note_off_c, 0, 71, 100
2, 75840, Note_on_c, 0, 62, 70
2, 75932, Note_off_c, 0, 62, 100
2, 75936, Note_on_c, 0, 60, 70
2, 76028, Note_off_c, 0, 60, 100
2, 76032, Note_on_c, 0, 59, 110
2, 76124, Note_off_c, 0, 59, 100
2, 76128, Note_on_c, 0, 62, 110
2, 76220, Note_off_c, 0, 62, 100
2, 76224, Note_on_c, 0, 67, 110
2, 76316, Note_off_c, 0, 67, 100
2, 76320, Note_on_c, 0, 62, 110
2, 76412, Note_off_c, 0, 62, 100
2, 76416, Note_on_c, 0, 71, 110
2, 76508, Note_off_c, 0, 71, 100
2, 76512, Note_on_c, 0, 67, 110
2, 76604, Note_off_c, 0, 67, 100
2, 76608, Note_on_c, 0, 74, 110
2, 76700, Note_off_c, 0, 74, 100
2, 76704, Note_on_c, 0, 71, 110
2, 76796, Note_off_c, 0, 71, 100
2, 76800, Note_on_c, 0, 79, 110
2, 76892, Note_off_c, 0, 79, 100
2, 76896, Note_on_c, 0, 74, 110
2, 76988, Note_off_c, 0, 74, 100
2, 76992, Note_on_c, 0, 83, 110
2, 77084, Note_off_c, 0, 83, 100
2, 77088, Note_on_c, 0, 79, 110
2, 77180, Note_off_c, 0, 79, 100
2, 77184, Note_on_c, 0, 86, 70
2, 77372, Note_off_c, 0, 86, 100
2, 77376, Note_on_c, 0, 83, 70
2, 77564, Note_off_c, 0, 83, 100
2, 77568, Note_on_c, 0, 77, 70
2, 77756, Note_off_c, 0, 77, 100
2, 77760, Note_on_c, 0, 76, 70
2, 78140, Note_off_c, 0, 76, 100
2, 78144, Note_on_c, 0, 79, 70
2, 78236, Note_off_c, 0, 79, 100
2, 78240, Note_on_c, 0, 77, 70
2, 78332, Note_off_c, 0, 77, 100
2, 78336, Note_on_c, 0, 76, 70
2, 78428, Note_off_c, 0, 76, 100
2, 78432, Note_on_c, 0, 79, 70
2, 78524, Note_off_c, 0, 79, 100
2, 78528, Note_on_c, 0, 76, 70
2, 78620, Note_off_c, 0, 76, 100
2, 78624, Note_on_c, 0, 74, 70
2, 78716, Note_off_c, 0, 74, 100
2, 78720, Note_on_c, 0, 72, 70
2, 78812, Note_off_c, 0, 72, 100
2, 78816, Note_on_c, 0, 76, 70
2, 78908, Note_off_c, 0, 76, 100
2, 78912, Note_on_c, 0, 72, 70
2, 79004, Note_off_c, 0, 72, 100
2, 79008, Note_on_c, 0, 71, 70
2, 79100, Note_off_c, 0, 71, 100
2, 79104, Note_on_c, 0, 69, 70
2, 79196, Note_off_c, 0, 69, 100
2, 79200, Note_on_c, 0, 72, 70
2, 79292, Note_off_c, 0, 72, 100
2, 79296, Note_on_c, 0, 69, 70
2, 79388, Note_off_c, 0, 69, 100
2, 79392, Note_on_c, 0, 67, 70
2, 79484, Note_off_c, 0, 67, 100
2, 79488, Note_on_c, 0, 65, 70
2, 79580, Note_off_c, 0, 65, 100
2, 79584, Note_on_c, 0, 69, 70
2, 79676, Note_off_c, 0, 69, 100
2, 79680, Note_on_c, 0, 65, 70
2, 79772, Note_off_c, 0, 65, 100
2, 79776, Note_on_c, 0, 64, 70
2, 79868, Note_off_c, 0, 64, 100
2, 79872, Note_on_c, 0, 62, 70
2, 79964, Note_off_c, 0, 62, 100
2, 79968, Note_on_c, 0, 65, 70
2, 80060, Note_off_c, 0, 65, 100
2, 80064, Note_on_c, 0, 62, 70
2, 80156, Note_off_c, 0, 62, 100
2, 80160, Note_on_c, 0, 60, 70
2, 80252, Note_off_c, 0, 60, 100
2, 80256, Note_on_c, 0, 59, 70
2, 80348, Note_off_c, 0, 59, 100
2, 80352, Note_on_c, 0, 62, 70
2, 80444, Note_off_c, 0, 62, 100
2, 80448, Note_on_c, 0, 59, 70
2, 80540, Note_off_c, 0, 59, 100
2, 80544, Note_on_c, 0, 57, 70
2, 80636, Note_off_c, 0, 57, 100
2, 80640, Note_on_c, 0, 56, 70
2, 80732, Note_off_c, 0, 56, 100
2, 80736, Note_on_c, 0, 59, 70
2, 80828, Note_off_c, 0, 59, 100
2, 80832, Note_on_c, 0, 56, 70
2, 80924, Note_off_c, 0, 56, 100
2, 80928, Note_on_c, 0, 53, 70
2, 81020, Note_off_c, 0, 53, 100
2, 81024, Note_on_c, 0, 52, 70
2, 81116, Note_off_c, 0, 52, 100
2, 81120, Note_on_c, 0, 50, 70
2, 81212, Note_off_c, 0, 50, 100
2, 81216, Note_on_c, 0, 48, 70
2, 81308, Note_off_c, 0, 48, 100
2, 81312, Note_on_c, 0, 64, 70
2, 81404, Note_off_c, 0, 64, 100
2, 81408, Note_on_c, 0, 60, 70
2, 81500, Note_off_c, 0, 60, 100
2, 81504, Note_on_c, 0, 59, 70
2, 81596, Note_off_c, 0, 59, 100
2, 81600, Note_on_c, 0, 57, 70
2, 81692, Note_off_c, 0, 57, 100
2, 81696, Note_on_c, 0, 55, 70
2, 81788, Note_off_c, 0, 55, 100
2, 81792, Note_on_c, 0, 54, 70
2, 81884, Note_off_c, 0, 54, 100
2, 81888, Note_on_c, 0, 52, 70
2, 81980, Note_off_c, 0, 52, 100
2, 81984, Note_on_c, 0, 50, 70
2, 82076, Note_off_c, 0, 50, 100
2, 82080, Note_on_c, 0, 48, 70
2, 82172, Note_off_c, 0, 48, 100
2, 82176, Note_on_c, 0, 47, 70
2, 82268, Note_off_c, 0, 47, 100
2, 82272, Note_on_c, 0, 45, 70
2, 82364, Note_off_c, 0, 45, 100
2, 82752, Note_on_c, 0, 55, 110
2, 82844, Note_off_c, 0, 55, 100
2, 82848, Note_on_c, 0, 53, 110
2, 82940, Note_off_c, 0, 53, 100
2, 82944, Note_on_c, 0, 52, 110
2, 83036, Note_off_c, 0, 52, 100
2, 83040, Note_on_c, 0, 55, 110
2, 83132, Note_off_c, 0, 55, 100
2, 83136, Note_on_c, 0, 60, 110
2, 83228, Note_off_c, 0, 60, 100
2, 83232, Note_on_c, 0, 55, 110
2, 83324, Note_off_c, 0, 55, 100
2, 83328, Note_on_c, 0, 64, 110
2, 83420, Note_off_c, 0, 64, 100
2, 83424, Note_on_c, 0, 60, 110
2, 83516, Note_off_c, 0, 60, 100
2, 83520, Note_on_c, 0, 67, 110
2, 83612, Note_off_c, 0, 67, 100
2, 83616, Note_on_c, 0, 64, 110
2, 83708, Note_off_c, 0, 64, 100
2, 83712, Note_on_c, 0, 72, 110
2, 83804, Note_off_c, 0, 72, 100
2, 83808, Note_on_c, 0, 67, 110
2, 83900, Note_off_c, 0, 67, 100
2, 83904, Note_on_c, 0, 76, 110
2, 83996, Note_off_c, 0, 76, 100
2, 84000, Note_on_c, 0, 72, 110
2, 84092, Note_off_c, 0, 72, 100
2, 84096, Note_on_c, 0, 79, 70
2, 84284, Note_off_c, 0, 79, 100
2, 84288, Note_on_c, 0, 76, 70
2, 84476, Note_off_c, 0, 76, 100
2, 84480, Note_on_c, 0, 72, 70
2, 84668, Note_off_c, 0, 72, 100
2, 84672, Note_on_c, 0, 71, 70
2, 85052, Note_off_c, 0, 71, 100
2, 85056, Note_on_c, 0, 62, 70
2, 85148, Note_off_c, 0, 62, 100
2, 85152, Note_on_c, 0, 60, 70
2, 85244, Note_off_c, 0, 60, 100
2, 85248, Note_on_c, 0, 59, 110
2, 85340, Note_off_c, 0, 59, 100
2, 85344, Note_on_c, 0, 62, 110
2, 85436, Note_off_c, 0, 62, 100
2, 85440, Note_on_c, 0, 67, 110
2, 85532, Note_off_c, 0, 67, 100
2, 85536, Note_on_c, 0, 62, 110
2, 85628, Note_off_c, 0, 62, 100
2, 85632, Note_on_c, 0, 71, 110
2, 85724, Note_off_c, 0, 71, 100
2, 85728, Note_on_c, 0, 67, 110
2, 85820, Note_off_c, 0, 67, 100
2, 85824, Note_on_c, 0, 74, 110
2, 85916, Note_off_c, 0, 74, 100
2, 85920, Note_on_c, 0, 71, 110
2, 86012, Note_off_c, 0, 71, 100
2, 86016, Note_on_c, 0, 79, 110
2, 86108, Note_off_c, 0, 79, 100
2, 86112, Note_on_c, 0, 74, 110
2, 86204, Note_off_c, 0, 74, 100
2, 86208, Note_on_c, 0, 83, 110
2, 86300, Note_off_c, 0, 83, 100
2, 86304, Note_on_c, 0, 79, 110
2, 86396, Note_off_c, 0, 79, 100
2, 86400, Note_on_c, 0, 86, 70
2, 86588, Note_off_c, 0, 86, 100
2, 86592, Note_on_c, 0, 83, 70
2, 86780, Note_off_c, 0, 83, 100
2, 86784, Note_on_c, 0, 77, 70
2, 86972, Note_off_c, 0, 77, 100
2, 86976, Note_on_c, 0, 76, 70
2, 87356, Note_off_c, 0, 76, 100
2, 87360, Note_on_c, 0, 79, 70
2, 87452, Note_off_c, 0, 79, 100
2, 87456, Note_on_c, 0, 77, 70
2, 87548, Note_off_c, 0, 77, 100
2, 87552, Note_on_c, 0, 76, 70
2, 87644, Note_off_c, 0, 76, 100
2, 87648, Note_on_c, 0, 79, 70
2, 87740, Note_off_c, 0, 79, 100
2, 87744, Note_on_c, 0, 76, 70
2, 87836, Note_off_c, 0, 76, 100
2, 87840, Note_on_c, 0, 74, 70
2, 87932, Note_off_c, 0, 74, 100
2, 87936, Note_on_c, 0, 72, 70
2, 88028, Note_off_c, 0, 72, 100
2, 88032, Note_on_c, 0, 76, 70
2, 88124, Note_off_c, 0, 76, 100
2, 88128, Note_on_c, 0, 72, 70
2, 88220, Note_off_c, 0, 72, 100
2, 88224, Note_on_c, 0, 71, 70
2, 88316, Note_off_c, 0, 71, 100
2, 88320, Note_on_c, 0, 69, 70
2, 88412, Note_off_c, 0, 69, 100
2, 88416, Note_on_c, 0, 72, 70
2, 88508, Note_off_c, 0, 72, 100
2, 88512, Note_on_c, 0, 69, 70
2, 88604, Note_off_c, 0, 69, 100
2, 88608, Note_on_c, 0, 67, 70
2, 88700, Note_off_c, 0, 67, 100
2, 88704, Note_on_c, 0, 65, 70
2, 88796, Note_off_c, 0, 65, 100
2, 88800, Note_on_c, 0, 69, 70
2, 88892, Note_off_c, 0, 69, 100
2, 88896, Note_on_c, 0, 65, 70
2, 88988, Note_off_c, 0, 65, 100
2, 88992, Note_on_c, 0, 64, 70
2, 89084, Note_off_c, 0, 64, 100
2, 89088, Note_on_c, 0, 62, 70
2, 89180, Note_off_c, 0, 62, 100
2, 89184, Note_on_c, 0, 65, 70
2, 89276, Note_off_c, 0, 65, 100
2, 89280, Note_on_c, 0, 62, 70
2, 89372, Note_off_c, 0, 62, 100
2, 89376, Note_on_c, 0, 60, 70
2, 89468, Note_off_c, 0, 60, 100
2, 89472, Note_on_c, 0, 59, 70
2, 89564, Note_off_c, 0, 59, 100
2, 89568, Note_on_c, 0, 62, 70
2, 89660, Note_off_c, 0, 62, 100
2, 89664, Note_on_c, 0, 59, 70
2, 89756, Note_off_c, 0, 59, 100
2, 89760, Note_on_c, 0, 57, 70
2, 89852, Note_off_c, 0, 57, 100
2, 89856, Note_on_c, 0, 56, 70
2, 89948, Note_off_c, 0, 56, 100
2, 89952, Note_on_c, 0, 59, 70
2, 90044, Note_off_c, 0, 59, 100
2, 90048, Note_on_c, 0, 56, 70
2, 90140, Note_off_c, 0, 56, 100
2, 90144, Note_on_c, 0, 53, 70
2, 90236, Note_off_c, 0, 53, 100
2, 90240, Note_on_c, 0, 52, 70
2, 90332, Note_off_c, 0, 52, 100
2, 90336, Note_on_c, 0, 50, 70
2, 90428, Note_off_c, 0, 50, 100
2, 90432, Note_on_c, 0, 48, 70
2, 90524, Note_off_c, 0, 48, 100
2, 90528, Note_on_c, 0, 64, 70
2, 90620, Note_off_c, 0, 64, 100
2, 90624, Note_on_c, 0, 60, 70
2, 90716, Note_off_c, 0, 60, 100
2, 90720, Note_on_c, 0, 59, 70
2, 90812, Note_off_c, 0, 59, 100
2, 90816, Note_on_c, 0, 57, 70
2, 90908, Note_off_c, 0, 57, 100
2, 90912, Note_on_c, 0, 55, 70
2, 91004, Note_off_c, 0, 55, 100
2, 91008, Note_on_c, 0, 54, 70
2, 91100, Note_off_c, 0, 54, 100
2, 91104, Note_on_c, 0, 52, 70
2, 91196, Note_off_c, 0, 52, 100
2, 91200, Note_on_c, 0, 50, 70
2, 91292, Note_off_c, 0, 50, 100
2, 91296, Note_on_c, 0, 48, 70
2, 91388, Note_off_c, 0, 48, 100
2, 91392, Note_on_c, 0, 47, 70
2, 91484, Note_off_c, 0, 47, 100
2, 91488, Note_on_c, 0, 45, 70
2, 91580, Note_off_c, 0, 45, 100
2, 91968, Note_on_c, 0, 50, 70
2, 92060, Note_off_c, 0, 50, 100
2, 92064, Note_on_c, 0, 48, 70
2, 92156, Note_off_c, 0, 48, 100
2, 92160, Note_on_c, 0, 47, 70
2, 92252, Note_off_c, 0, 47, 100
2, 92256, Note_on_c, 0, 50, 70
2, 92348, Note_off_c, 0, 50, 100
2, 92352, Note_on_c, 0, 55, 70
2, 92444, Note_off_c, 0, 55, 100
2, 92448, Note_on_c, 0, 50, 70
2, 92540, Note_off_c, 0, 50, 100
2, 92544, Note_on_c, 0, 59, 70
2, 92636, Note_off_c, 0, 59, 100
2, 92640, Note_on_c, 0, 55, 70
2, 92732, Note_off_c, 0, 55, 100
2, 92736, Note_on_c, 0, 62, 70
2, 92828, Note_off_c, 0, 62, 100
2, 92832, Note_on_c, 0, 59, 70
2, 92924, Note_off_c, 0, 59, 100
2, 92928, Note_on_c, 0, 67, 70
2, 93020, Note_off_c, 0, 67, 100
2, 93024, Note_on_c, 0, 62, 70
2, 93116, Note_off_c, 0, 62, 100
2, 93120, Note_on_c, 0, 71, 100
2, 93308, Note_off_c, 0, 71, 100
2, 93312, Note_on_c, 0, 50, 70
2, 93404, Note_off_c, 0, 50, 100
2, 93408, Note_on_c, 0, 53, 70
2, 93500, Note_off_c, 0, 53, 100
2, 93504, Note_on_c, 0, 59, 70
2, 93596, Note_off_c, 0, 59, 100
2, 93600, Note_on_c, 0, 53, 70
2, 93692, Note_off_c, 0, 53, 100
2, 93696, Note_on_c, 0, 62, 70
2, 93788, Note_off_c, 0, 62, 100
2, 93792, Note_on_c, 0, 59, 70
2, 93884, Note_off_c, 0, 59, 100
2, 93888, Note_on_c, 0, 65, 70
2, 93980, Note_off_c, 0, 65, 100
2, 93984, Note_on_c, 0, 62, 70
2, 94076, Note_off_c, 0, 62, 100
2, 94080, Note_on_c, 0, 71, 70
2, 94172, Note_off_c, 0, 71, 100
2, 94176, Note_on_c, 0, 65, 70
2, 94268, Note_off_c, 0, 65, 100
2, 94272, Note_on_c, 0, 74, 100
2, 94460, Note_off_c, 0, 74, 100
2, 94464, Note_on_c, 0, 53, 70
2, 94556, Note_off_c, 0, 53, 100
2, 94560, Note_on_c, 0, 59, 70
2, 94652, Note_off_c, 0, 59, 100
2, 94656, Note_on_c, 0, 62, 70
2, 94748, Note_off_c, 0, 62, 100
2, 94752, Note_on_c, 0, 59, 70
2, 94844, Note_off_c, 0, 59, 100
2, 94848, Note_on_c, 0, 65, 70
2, 94940, Note_off_c, 0, 65, 100
2, 94944, Note_on_c, 0, 62, 70
2, 95036, Note_off_c, 0, 62, 100
2, 95040, Note_on_c, 0, 71, 70
2, 95132, Note_off_c, 0, 71, 100
2, 95136, Note_on_c, 0, 65, 70
2, 95228, Note_off_c, 0, 65, 100
2, 95232, Note_on_c, 0, 74, 70
2, 95324, Note_off_c, 0, 74, 100
2, 95328, Note_on_c, 0, 71, 70
2, 95420, Note_off_c, 0, 71, 100
2, 95424, Note_on_c, 0, 77, 100
2, 95612, Note_off_c, 0, 77, 100
2, 95616, Note_on_c, 0, 71, 70
2, 95708, Note_off_c, 0, 71, 100
2, 95712, Note_on_c, 0, 65, 70
2, 95804, Note_off_c, 0, 65, 100
2, 95808, Note_on_c, 0, 74, 70
2, 95900, Note_off_c, 0, 74, 100
2, 95904, Note_on_c, 0, 71, 70
2, 95996, Note_off_c, 0, 71, 100
2, 96000, Note_on_c, 0, 77, 100
2, 96188, Note_off_c, 0, 77, 100
2, 96192, Note_on_c, 0, 71, 70
2, 96284, Note_off_c, 0, 71, 100
2, 96288, Note_on_c, 0, 65, 70
2, 96380, Note_off_c, 0, 65, 100
2, 96384, Note_on_c, 0, 74, 70
2, 96476, Note_off_c, 0, 74, 100
2, 96480, Note_on_c, 0, 71, 70
2, 96572, Note_off_c, 0, 71, 100
2, 96576, Note_on_c, 0, 77, 100
2, 96764, Note_off_c, 0, 77, 100
2, 96768, Note_on_c, 0, 76, 80
2, 96860, Note_off_c, 0, 76, 100
2, 96864, Note_on_c, 0, 79, 80
2, 96956, Note_off_c, 0, 79, 100
2, 96960, Note_on_c, 0, 76, 81
2, 97052, Note_off_c, 0, 76, 100
2, 97056, Note_on_c, 0, 74, 82
2, 97148, Note_off_c, 0, 74, 100
2, 97152, Note_on_c, 0, 72, 83
2, 97244, Note_off_c, 0, 72, 100
2, 97248, Note_on_c, 0, 76, 84
2, 97340, Note_off_c, 0, 76, 100
2, 97344, Note_on_c, 0, 72, 85
2, 97436, Note_off_c, 0, 72, 100
2, 97440, Note_on_c, 0, 71, 86
2, 97532, Note_off_c, 0, 71, 100
2, 97536, Note_on_c, 0, 69, 86
2, 97628, Note_off_c, 0, 69, 100
2, 97632, Note_on_c, 0, 72, 87
2, 97724, Note_off_c, 0, 72, 100
2, 97728, Note_on_c, 0, 69, 88
2, 97820, Note_off_c, 0, 69, 100
2, 97824, Note_on_c, 0, 67, 89
2, 97916, Note_off_c, 0, 67, 100
2, 97920, Note_on_c, 0, 65, 90
2, 98012, Note_off_c, 0, 65, 100
2, 98016, Note_on_c, 0, 69, 91
2, 98108, Note_off_c, 0, 69, 100
2, 98112, Note_on_c, 0, 65, 92
2, 98204, Note_off_c, 0, 65, 100
2, 98208, Note_on_c, 0, 64, 93
2, 98300, Note_off_c, 0, 64, 100
2, 98304, Note_on_c, 0, 62, 93
2, 98396, Note_off_c, 0, 62, 100
2, 98400, Note_on_c, 0, 65, 94
2, 98492, Note_off_c, 0, 65, 100
2, 98496, Note_on_c, 0, 62, 95
2, 98588, Note_off_c, 0, 62, 100
2, 98592, Note_on_c, 0, 60, 96
2, 98684, Note_off_c, 0, 60, 100
2, 98688, Note_on_c, 0, 59, 97
2, 98780, Note_off_c, 0, 59, 100
2, 98784, Note_on_c, 0, 57, 98
2, 98876, Note_off_c, 0, 57, 100
2, 98880, Note_on_c, 0, 55, 99
2, 98972, Note_off_c, 0, 55, 100
2, 98976, Note_on_c, 0, 53, 99
2, 99068, Note_off_c, 0, 53, 100
2, 99072, Note_on_c, 0, 52, 80
2, 99164, Note_off_c, 0, 52, 100
2, 99168, Note_on_c, 0, 67, 80
2, 99260, Note_off_c, 0, 67, 100
2, 99264, Note_on_c, 0, 64, 80
2, 99356, Note_off_c, 0, 64, 100
2, 99360, Note_on_c, 0, 62, 80
2, 99452, Note_off_c, 0, 62, 100
2, 99456, Note_on_c, 0, 60, 80
2, 99548, Note_off_c, 0, 60, 100
2, 99552, Note_on_c, 0, 58, 80
2, 99644, Note_off_c, 0, 58, 100
2, 99648, Note_on_c, 0, 57, 80
2, 99740, Note_off_c, 0, 57, 100
2, 99744, Note_on_c, 0, 69, 80
2, 99836, Note_off_c, 0, 69, 100
2, 99840, Note_on_c, 0, 65, 80
2, 99932, Note_off_c, 0, 65, 100
2, 99936, Note_on_c, 0, 64, 80
2, 100028, Note_off_c, 0, 64, 100
2, 100032, Note_on_c, 0, 62, 80
2, 100124, Note_off_c, 0, 62, 100
2, 100128, Note_on_c, 0, 60, 80
2, 100220, Note_off_c, 0, 60, 100
2, 100224, Note_on_c, 0, 59, 80
2, 100316, Note_off_c, 0, 59, 100
2, 100320, Note_on_c, 0, 57, 80
2, 100412, Note_off_c, 0, 57, 100
2, 100416, Note_on_c, 0, 55, 80
2, 100508, Note_off_c, 0, 55, 100
2, 100512, Note_on_c, 0, 53, 80
2, 100604, Note_off_c, 0, 53, 100
2, 100608, Note_on_c, 0, 52, 80
2, 100700, Note_off_c, 0, 52, 100
2, 100704, Note_on_c, 0, 50, 80
2, 100796, Note_off_c, 0, 50, 100
2, 100800, Note_on_c, 0, 48, 80
2, 101180, Note_off_c, 0, 48, 100
2, 101184, Note_on_c, 0, 50, 80
2, 101276, Note_off_c, 0, 50, 100
2, 101280, Note_on_c, 0, 48, 80
2, 101372, Note_off_c, 0, 48, 100
2, 101376, Note_on_c, 0, 47, 80
2, 101468, Note_off_c, 0, 47, 100
2, 101472, Note_on_c, 0, 50, 80
2, 101564, Note_off_c, 0, 50, 100
2, 101568, Note_on_c, 0, 55, 80
2, 101660, Note_off_c, 0, 55, 100
2, 101664, Note_on_c, 0, 50, 80
2, 101756, Note_off_c, 0, 50, 100
2, 101760, Note_on_c, 0, 59, 80
2, 101852, Note_off_c, 0, 59, 100
2, 101856, Note_on_c, 0, 55, 80
2, 101948, Note_off_c, 0, 55, 100
2, 101952, Note_on_c, 0, 62, 80
2, 102044, Note_off_c, 0, 62, 100
2, 102048, Note_on_c, 0, 59, 80
2, 102140, Note_off_c, 0, 59, 100
2, 102144, Note_on_c, 0, 67, 80
2, 102236, Note_off_c, 0, 67, 100
2, 102240, Note_on_c, 0, 62, 80
2, 102332, Note_off_c, 0, 62, 100
2, 102336, Note_on_c, 0, 71, 100
2, 102524, Note_off_c, 0, 71, 100
2, 102528, Note_on_c, 0, 50, 80
2, 102620, Note_off_c, 0, 50, 100
2, 102624, Note_on_c, 0, 53, 80
2, 102716, Note_off_c, 0, 53, 100
2, 102720, Note_on_c, 0, 59, 80
2, 102812, Note_off_c, 0, 59, 100
2, 102816, Note_on_c, 0, 53, 80
2, 102908, Note_off_c, 0, 53, 100
2, 102912, Note_on_c, 0, 62, 80
2, 103004, Note_off_c, 0, 62, 100
2, 103008, Note_on_c, 0, 59, 80
2, 103100, Note_off_c, 0, 59, 100
2, 103104, Note_on_c, 0, 65, 80
2, 103196, Note_off_c, 0, 65, 100
2, 103200, Note_on_c, 0, 62, 80
2, 103292, Note_off_c, 0, 62, 100
2, 103296, Note_on_c, 0, 71, 80
2, 103388, Note_off_c, 0, 71, 100
2, 103392, Note_on_c, 0, 65, 80
2, 103484, Note_off_c, 0, 65, 100
2, 103488, Note_on_c, 0, 74, 100
2, 103676, Note_off_c, 0, 74, 100
2, 103680, Note_on_c, 0, 53, 80
2, 103772, Note_off_c, 0, 53, 100
2, 103776, Note_on_c, 0, 59, 80
2, 103868, Note_off_c, 0, 59, 100
2, 103872, Note_on_c, 0, 62, 80
2, 103964, Note_off_c, 0, 62, 100
2, 103968, Note_on_c, 0, 59, 80
2, 104060, Note_off_c, 0, 59, 100
2, 104064, Note_on_c, 0, 65, 80
2, 104156, Note_off_c, 0, 65, 100
2, 104160, Note_on_c, 0, 62, 80
2, 104252, Note_off_c, 0, 62, 100
2, 104256, Note_on_c, 0, 71, 80
2, 104348, Note_off_c, 0, 71, 100
2, 104352, Note_on_c, 0, 65, 80
2, 104444, Note_off_c, 0, 65, 100
2, 104448, Note_on_c, 0, 74, 80
2, 104540, Note_off_c, 0, 74, 100
2, 104544, Note_on_c, 0, 71, 80
2, 104636, Note_off_c, 0, 71, 100
2, 104640, Note_on_c, 0, 77, 100
2, 104828, Note_off_c, 0, 77, 100
2, 104832, Note_on_c, 0, 71, 80
2, 104924, Note_off_c, 0, 71, 100
2, 104928, Note_on_c, 0, 65, 80
2, 105020, Note_off_c, 0, 65, 100
2, 105024, Note_on_c, 0, 74, 80
2, 105116, Note_off_c, 0, 74, 100
2, 105120, Note_on_c, 0, 71, 80
2, 105212, Note_off_c, 0, 71, 100
2, 105216, Note_on_c, 0, 77, 100
2, 105404, Note_off_c, 0, 77, 100
2, 105408, Note_on_c, 0, 71, 80
2, 105500, Note_off_c, 0, 71, 100
2, 105504, Note_on_c, 0, 65, 80
2, 105596, Note_off_c, 0, 65, 100
2, 105600, Note_on_c, 0, 74, 80
2, 105692, Note_off_c, 0, 74, 100
2, 105696, Note_on_c, 0, 71, 80
2, 105788, Note_off_c, 0, 71, 100
2, 105792, Note_on_c, 0, 77, 100
2, 105980, Note_off_c, 0, 77, 100
2, 105984, Note_on_c, 0, 75, 80
2, 106076, Note_off_c, 0, 75, 100
2, 106080, Note_on_c, 0, 79, 80
2, 106172, Note_off_c, 0, 79, 100
2, 106176, Note_on_c, 0, 75, 80
2, 106268, Note_off_c, 0, 75, 100
2, 106272, Note_on_c, 0, 74, 80
2, 106364, Note_off_c, 0, 74, 100
2, 106368, Note_on_c, 0, 72, 80
2, 106460, Note_off_c, 0, 72, 100
2, 106464, Note_on_c, 0, 75, 80
2, 106556, Note_off_c, 0, 75, 100
2, 106560, Note_on_c, 0, 72, 80
2, 106652, Note_off_c, 0, 72, 100
2, 106656, Note_on_c, 0, 70, 80
2, 106748, Note_off_c, 0, 70, 100
2, 106752, Note_on_c, 0, 68, 80
2, 106844, Note_off_c, 0, 68, 100
2, 106848, Note_on_c, 0, 72, 80
2, 106940, Note_off_c, 0, 72, 100
2, 106944, Note_on_c, 0, 68, 80
2, 107036, Note_off_c, 0, 68, 100
2, 107040, Note_on_c, 0, 67, 80
2, 107132, Note_off_c, 0, 67, 100
2, 107136, Note_on_c, 0, 65, 80
2, 107228, Note_off_c, 0, 65, 100
2, 107232, Note_on_c, 0, 68, 80
2, 107324, Note_off_c, 0, 68, 100
2, 107328, Note_on_c, 0, 65, 80
2, 107420, Note_off_c, 0, 65, 100
2, 107424, Note_on_c, 0, 63, 80
2, 107516, Note_off_c, 0, 63, 100
2, 107520, Note_on_c, 0, 62, 80
2, 107612, Note_off_c, 0, 62, 100
2, 107616, Note_on_c, 0, 65, 80
2, 107708, Note_off_c, 0, 65, 100
2, 107712, Note_on_c, 0, 62, 80
2, 107804, Note_off_c, 0, 62, 100
2, 107808, Note_on_c, 0, 60, 80
2, 107900, Note_off_c, 0, 60, 100
2, 107904, Note_on_c, 0, 58, 80
2, 107996, Note_off_c, 0, 58, 100
2, 108000, Note_on_c, 0, 68, 80
2, 108092, Note_off_c, 0, 68, 100
2, 108096, Note_on_c, 0, 65, 80
2, 108188, Note_off_c, 0, 65, 100
2, 108192, Note_on_c, 0, 63, 80
2, 108284, Note_off_c, 0, 63, 100
2, 108288, Note_on_c, 0, 62, 80
2, 108380, Note_off_c, 0, 62, 100
2, 108384, Note_on_c, 0, 65, 81
2, 108476, Note_off_c, 0, 65, 100
2, 108480, Note_on_c, 0, 62, 82
2, 108572, Note_off_c, 0, 62, 100
2, 108576, Note_on_c, 0, 60, 83
2, 108668, Note_off_c, 0, 60, 100
2, 108672, Note_on_c, 0, 58, 85
2, 108764, Note_off_c, 0, 58, 100
2, 108768, Note_on_c, 0, 68, 86
2, 108860, Note_off_c, 0, 68, 100
2, 108864, Note_on_c, 0, 65, 87
2, 108956, Note_off_c, 0, 65, 100
2, 108960, Note_on_c, 0, 63, 89
2, 109052, Note_off_c, 0, 63, 100
2, 109056, Note_on_c, 0, 62, 90
2, 109148, Note_off_c, 0, 62, 100
2, 109152, Note_on_c, 0, 68, 91
2, 109244, Note_off_c, 0, 68, 100
2, 109248, Note_on_c, 0, 65, 93
2, 109340, Note_off_c, 0, 65, 100
2, 109344, Note_on_c, 0, 63, 94
2, 109436, Note_off_c, 0, 63, 100
2, 109440, Note_on_c, 0, 62, 95
2, 109532, Note_off_c, 0, 62, 100
2, 109536, Note_on_c, 0, 68, 96
2, 109628, Note_off_c, 0, 68, 100
2, 109632, Note_on_c, 0, 65, 98
2, 109724, Note_off_c, 0, 65, 100
2, 109728, Note_on_c, 0, 64, 99
2, 109820, Note_off_c, 0, 64, 100
2, 109824, Note_on_c, 0, 62, 100
2, 109916, Note_off_c, 0, 62, 100
2, 109920, Note_on_c, 0, 68, 102
2, 110012, Note_off_c, 0, 68, 100
2, 110016, Note_on_c, 0, 65, 103
2, 110108, Note_off_c, 0, 65, 100
2, 110112, Note_on_c, 0, 63, 104
2, 110204, Note_off_c, 0, 63, 100
2, 110208, Note_on_c, 0, 62, 106
2, 110300, Note_off_c, 0, 62, 100
2, 110304, Note_on_c, 0, 68, 107
2, 110396, Note_off_c, 0, 68, 100
2, 110400, Note_on_c, 0, 65, 108
2, 110492, Note_off_c, 0, 65, 100
2, 110496, Note_on_c, 0, 63, 109
2, 110588, Note_off_c, 0, 63, 100
2, 110592, Note_on_c, 0, 62, 110
2, 110684, Note_off_c, 0, 62, 100
2, 110688, Note_on_c, 0, 63, 110
2, 110780, Note_off_c, 0, 63, 100
2, 110784, Note_on_c, 0, 65, 110
2, 110876, Note_off_c, 0, 65, 100
2, 110880, Note_on_c, 0, 67, 110
2, 110972, Note_off_c, 0, 67, 100
2, 110976, Note_on_c, 0, 68, 110
2, 111068, Note_off_c, 0, 68, 100
2, 111072, Note_on_c, 0, 70, 110
2, 111164, Note_off_c, 0, 70, 100
2, 111168, Note_on_c, 0, 72, 110
2, 111260, Note_off_c, 0, 72, 100
2, 111264, Note_on_c, 0, 74, 110
2, 111356, Note_off_c, 0, 74, 100
2, 111360, Note_on_c, 0, 75, 110
2, 111452, Note_off_c, 0, 75, 100
2, 111456, Note_on_c, 0, 76, 110
2, 111548, Note_off_c, 0, 76, 100
2, 111552, Note_on_c, 0, 77, 110
2, 111644, Note_off_c, 0, 77, 100
2, 111648, Note_on_c, 0, 79, 110
2, 111740, Note_off_c, 0, 79, 100
2, 111744, Note_on_c, 0, 80, 110
2, 111744, Note_on_c, 0, 74, 110
2, 112892, Note_off_c, 0, 80, 100
2, 112892, Note_off_c, 0, 74, 100
2, 112896, Key_signature, -3, "major"
2, 112896, Note_on_c, 0, 70, 70
2, 112896, Note_on_c, 0, 58, 70
2, 112896, Note_on_c, 0, 67, 70
2, 113276, Note_off_c, 0, 70, 100
2, 113276, Note_off_c, 0, 58, 100
2, 113276, Note_off_c, 0, 67, 100
2, 113280, Note_on_c, 0, 70, 70
2, 113280, Note_on_c, 0, 67, 70
2, 113280, Note_on_c, 0, 58, 70
2, 113660, Note_off_c, 0, 70, 100
2, 113660, Note_off_c, 0, 67, 100
2, 113660, Note_off_c, 0, 58, 100
2, 113664, Note_on_c, 0, 63, 70
2, 113664, Note_on_c, 0, 58, 70
2, 113664, Note_on_c, 0, 67, 70
2, 114428, Note_off_c, 0, 63, 100
2, 114428, Note_off_c, 0, 58, 100
2, 114428, Note_off_c, 0, 67, 100
2, 114432, Note_on_c, 0, 65, 70
2, 114432, Note_on_c, 0, 62, 70
2, 114432, Note_on_c, 0, 58, 70
2, 114812, Note_off_c, 0, 65, 100
2, 114812, Note_off_c, 0, 62, 100
2, 114812, Note_off_c, 0, 58, 100
2, 114816, Note_on_c, 0, 65, 70
2, 114816, Note_on_c, 0, 62, 70
2, 114816, Note_on_c, 0, 58, 70
2, 115196, Note_off_c, 0, 65, 100
2, 115196, Note_off_c, 0, 62, 100
2, 115196, Note_off_c, 0, 58, 100
2, 115200, Note_on_c, 0, 70, 70
2, 115200, Note_on_c, 0, 68, 70
2, 115200, Note_on_c, 0, 65, 70
2, 115200, Note_on_c, 0, 58, 70
2, 115964, Note_off_c, 0, 70, 100
2, 115964, Note_off_c, 0, 68, 100
2, 115964, Note_off_c, 0, 65, 100
2, 115964, Note_off_c, 0, 58, 100
2, 115968, Note_on_c, 0, 70, 70
2, 115968, Note_on_c, 0, 58, 70
2, 115968, Note_on_c, 0, 67, 70
2, 116348, Note_off_c, 0, 70, 100
2, 116348, Note_off_c, 0, 58, 100
2, 116348, Note_off_c, 0, 67, 100
2, 116352, Note_on_c, 0, 70, 70
2, 116352, Note_on_c, 0, 67, 70
2, 116352, Note_on_c, 0, 58, 70
2, 116732, Note_off_c, 0, 70, 100
2, 116732, Note_off_c, 0, 67, 100
2, 116732, Note_off_c, 0, 58, 100
2, 116736, Note_on_c, 0, 63, 70
2, 116736, Note_on_c, 0, 58, 70
2, 116736, Note_on_c, 0, 67, 70
2, 117500, Note_off_c, 0, 63, 100
2, 117500, Note_off_c, 0, 58, 100
2, 117500, Note_off_c, 0, 67, 100
2, 117504, Note_on_c, 0, 65, 70
2, 117504, Note_on_c, 0, 62, 70
2, 117504, Note_on_c, 0, 58, 70
2, 117692, Note_off_c, 0, 65, 100
2, 117692, Note_off_c, 0, 62, 100
2, 117692, Note_off_c, 0, 58, 100
2, 117696, Note_on_c, 0, 70, 70
2, 118076, Note_off_c, 0, 70, 100
2, 118080, Note_on_c, 0, 70, 70
2, 118080, Note_on_c, 0, 58, 70
2, 118268, Note_off_c, 0, 70, 100
2, 118268, Note_off_c, 0, 58, 100
2, 118272, Note_on_c, 0, 63, 70
2, 118272, Note_on_c, 0, 55, 70
2, 118652, Note_off_c, 0, 63, 100
2, 118652, Note_off_c, 0, 55, 100
2, 119904, Note_on_c, 0, 70, 70
2, 119996, Note_off_c, 0, 70, 100
2, 120000, Note_on_c, 0, 72, 70
2, 120092, Note_off_c, 0, 72, 100
2, 120096, Note_on_c, 0, 74, 70
2, 120188, Note_off_c, 0, 74, 100
2, 120192, Note_on_c, 0, 75, 70
2, 120284, Note_off_c, 0, 75, 100
2, 120288, Note_on_c, 0, 77, 70
2, 120380, Note_off_c, 0, 77, 100
2, 120384, Note_on_c, 0, 79, 70
2, 120476, Note_off_c, 0, 79, 100
2, 120480, Note_on_c, 0, 75, 70
2, 120572, Note_off_c, 0, 75, 100
2, 120576, Note_on_c, 0, 80, 70
2, 120764, Note_off_c, 0, 80, 100
2, 121344, Note_on_c, 0, 80, 70
2, 121436, Note_off_c, 0, 80, 100
2, 121440, Note_on_c, 0, 79, 70
2, 121532, Note_off_c, 0, 79, 100
2, 121536, Note_on_c, 0, 77, 70
2, 121628, Note_off_c, 0, 77, 100
2, 121632, Note_on_c, 0, 75, 70
2, 121724, Note_off_c, 0, 75, 100
2, 121728, Note_on_c, 0, 74, 70
2, 121820, Note_off_c, 0, 74, 100
2, 121824, Note_on_c, 0, 72, 70
2, 121916, Note_off_c, 0, 72, 100
2, 121920, Note_on_c, 0, 70, 70
2, 122012, Note_off_c, 0, 70, 100
2, 122016, Note_on_c, 0, 74, 70
2, 122108, Note_off_c, 0, 74, 100
2, 122112, Note_on_c, 0, 75, 70
2, 122300, Note_off_c, 0, 75, 100
2, 122976, Note_on_c, 0, 70, 70
2, 123068, Note_off_c, 0, 70, 100
2, 123072, Note_on_c, 0, 72, 70
2, 123164, Note_off_c, 0, 72, 100
2, 123168, Note_on_c, 0, 74, 70
2, 123260, Note_off_c, 0, 74, 100
2, 123264, Note_on_c, 0, 75, 70
2, 123356, Note_off_c, 0, 75, 100
2, 123360, Note_on_c, 0, 77, 70
2, 123452, Note_off_c, 0, 77, 100
2, 123456, Note_on_c, 0, 79, 70
2, 123548, Note_off_c, 0, 79, 100
2, 123552, Note_on_c, 0, 75, 70
2, 123644, Note_off_c, 0, 75, 100
2, 123648, Note_on_c, 0, 80, 70
2, 123740, Note_off_c, 0, 80, 100
2, 123744, Note_on_c, 0, 77, 70
2, 123836, Note_off_c, 0, 77, 100
2, 123840, Note_on_c, 0, 74, 70
2, 123932, Note_off_c, 0, 74, 100
2, 123936, Note_on_c, 0, 70, 70
2, 124028, Note_off_c, 0, 70, 100
2, 124032, Note_on_c, 0, 68, 70
2, 124124, Note_off_c, 0, 68, 100
2, 124128, Note_on_c, 0, 65, 70
2, 124220, Note_off_c, 0, 65, 100
2, 124224, Note_on_c, 0, 62, 70
2, 124316, Note_off_c, 0, 62, 100
2, 124320, Note_on_c, 0, 58, 70
2, 124412, Note_off_c, 0, 58, 100
2, 124416, Note_on_c, 0, 63, 70
2, 124796, Note_off_c, 0, 63, 100
2, 125184, Note_on_c, 0, 68, 70
2, 125184, Note_on_c, 0, 65, 70
2, 125564, Note_off_c, 0, 68, 100
2, 125564, Note_off_c, 0, 65, 100
2, 125568, Note_on_c, 0, 68, 70
2, 125568, Note_on_c, 0, 65, 70
2, 125948, Note_off_c, 0, 68, 100
2, 125948, Note_off_c, 0, 65, 100
2, 125952, Note_on_c, 0, 74, 70
2, 125952, Note_on_c, 0, 68, 70
2, 125952, Note_on_c, 0, 65, 70
2, 126716, Note_off_c, 0, 74, 100
2, 126716, Note_off_c, 0, 68, 100
2, 126716, Note_off_c, 0, 65, 100
2, 126720, Note_on_c, 0, 74, 70
2, 126720, Note_on_c, 0, 62, 70
2, 127100, Note_off_c, 0, 74, 100
2, 127100, Note_off_c, 0, 62, 100
2, 127104, Note_on_c, 0, 62, 76
2, 127104, Note_on_c, 0, 74, 76
2, 127484, Note_off_c, 0, 62, 100
2, 127484, Note_off_c, 0, 74, 100
2, 127488, Note_on_c, 0, 77, 83
2, 127488, Note_on_c, 0, 74, 83
2, 127488, Note_on_c, 0, 68, 83
2, 127488, Note_on_c, 0, 65, 83
2, 128252, Note_off_c, 0, 77, 100
2, 128252, Note_off_c, 0, 74, 100
2, 128252, Note_off_c, 0, 68, 100
2, 128252, Note_off_c, 0, 65, 100
2, 128256, Note_on_c, 0, 77, 96
2, 128256, Note_on_c, 0, 74, 96
2, 128256, Note_on_c, 0, 65, 96
2, 128636, Note_off_c, 0, 77, 100
2, 128636, Note_off_c, 0, 74, 100
2, 128636, Note_off_c, 0, 65, 100
2, 128640, Note_on_c, 0, 77, 103
2, 128640, Note_on_c, 0, 74, 103
2, 128640, Note_on_c, 0, 65, 103
2, 129020, Note_off_c, 0, 77, 100
2, 129020, Note_off_c, 0, 74, 100
2, 129020, Note_off_c, 0, 65, 100
2, 129024, Note_on_c, 0, 77, 110
2, 129024, Note_on_c, 0, 74, 110
2, 129024, Note_on_c, 0, 80, 110
2, 129404, Note_off_c, 0, 77, 100
2, 129404, Note_off_c, 0, 74, 100
2, 129408, Note_on_c, 0, 75, 110
2, 129596, Note_off_c, 0, 80, 100
2, 129596, Note_off_c, 0, 75, 100
2, 129600, Note_on_c, 0, 79, 110
2, 129600, Note_on_c, 0, 71, 110
2, 129788, Note_off_c, 0, 79, 100
2, 129788, Note_off_c, 0, 71, 100
2, 129792, Note_on_c, 0, 79, 100
2, 129792, Note_on_c, 0, 72, 100
2, 129980, Note_off_c, 0, 79, 100
2, 129980, Note_off_c, 0, 72, 100
2, 129984, Note_on_c, 0, 77, 91
2, 129984, Note_on_c, 0, 72, 91
2, 130172, Note_off_c, 0, 77, 100
2, 130172, Note_off_c, 0, 72, 100
2, 130176, Note_on_c, 0, 75, 81
2, 130176, Note_on_c, 0, 67, 81
2, 130364, Note_off_c, 0, 75, 100
2, 130364, Note_off_c, 0, 67, 100
2, 130368, Note_on_c, 0, 74, 71
2, 130368, Note_on_c, 0, 68, 71
2, 130368, Note_on_c, 0, 65, 71
2, 130556, Note_off_c, 0, 74, 100
2, 130556, Note_off_c, 0, 68, 100
2, 130556, Note_off_c, 0, 65, 100
2, 130560, Note_on_c, 0, 77, 70
2, 130560, Note_on_c, 0, 68, 70
2, 130940, Note_off_c, 0, 77, 100
2, 130940, Note_off_c, 0, 68, 100
2, 130944, Note_on_c, 0, 75, 70
2, 130944, Note_on_c, 0, 67, 70
2, 131132, Note_off_c, 0, 75, 100
2, 131132, Note_off_c, 0, 67, 100
2, 132288, Note_on_c, 0, 70, 70
2, 132380, Note_off_c, 0, 70, 100
2, 132384, Note_on_c, 0, 72, 70
2, 132476, Note_off_c, 0, 72, 100
2, 132480, Note_on_c, 0, 74, 70
2, 132572, Note_off_c, 0, 74, 100
2, 132576, Note_on_c, 0, 75, 70
2, 132668, Note_off_c, 0, 75, 100
2, 132672, Note_on_c, 0, 77, 70
2, 132764, Note_off_c, 0, 77, 100
2, 132768, Note_on_c, 0, 79, 70
2, 132860, Note_off_c, 0, 79, 100
2, 132864, Note_on_c, 0, 81, 70
2, 133052, Note_off_c, 0, 81, 100
2, 133056, Note_on_c, 0, 82, 94
2, 133820, Note_off_c, 0, 82, 100
2, 133824, Note_on_c, 0, 70, 86
2, 133916, Note_off_c, 0, 70, 100
2, 133920, Note_on_c, 0, 72, 88
2, 134012, Note_off_c, 0, 72, 100
2, 134016, Note_on_c, 0, 74, 89
2, 134108, Note_off_c, 0, 74, 100
2, 134112, Note_on_c, 0, 75, 91
2, 134204, Note_off_c, 0, 75, 100
2, 134208, Note_on_c, 0, 77, 93
2, 134300, Note_off_c, 0, 77, 100
2, 134304, Note_on_c, 0, 79, 94
2, 134396, Note_off_c, 0, 79, 100
2, 134400, Note_on_c, 0, 81, 96
2, 134588, Note_off_c, 0, 81, 100
2, 134592, Note_on_c, 0, 82, 110
2, 135356, Note_off_c, 0, 82, 100
2, 135360, Note_on_c, 0, 83, 110
2, 135548, Note_off_c, 0, 83, 100
2, 135552, Note_on_c, 0, 84, 110
2, 135740, Note_off_c, 0, 84, 100
2, 135744, Note_on_c, 0, 86, 110
2, 135932, Note_off_c, 0, 86, 100
2, 135936, Note_on_c, 0, 87, 100
2, 136124, Note_off_c, 0, 87, 100
2, 136128, Note_on_c, 0, 84, 91
2, 136316, Note_off_c, 0, 84, 100
2, 136320, Note_on_c, 0, 79, 81
2, 136512, Note_on_c, 0, 80, 71
2, 136892, Note_off_c, 0, 79, 100
2, 136892, Note_off_c, 0, 80, 100
2, 136896, Note_on_c, 0, 74, 70
2, 137084, Note_off_c, 0, 74, 100
2, 137088, Note_on_c, 0, 75, 70
2, 137276, Note_off_c, 0, 75, 100
2, 137472, Note_on_c, 0, 73, 70
2, 137472, Note_on_c, 0, 70, 70
2, 137472, Note_on_c, 0, 67, 70
2, 137852, Note_off_c, 0, 73, 100
2, 137852, Note_off_c, 0, 70, 100
2, 137852, Note_off_c, 0, 67, 100
2, 137856, Note_on_c, 0, 73, 70
2, 137856, Note_on_c, 0, 70, 70
2, 137856, Note_on_c, 0, 67, 70
2, 138236, Note_off_c, 0, 73, 100
2, 138236, Note_off_c, 0, 70, 100
2, 138236, Note_off_c, 0, 67, 100
2, 139008, Note_on_c, 0, 72, 70
2, 139008, Note_on_c, 0, 68, 70
2, 139008, Note_on_c, 0, 63, 70
2, 139388, Note_off_c, 0, 72, 100
2, 139388, Note_off_c, 0, 68, 100
2, 139388, Note_off_c, 0, 63, 100
2, 139392, Note_on_c, 0, 72, 70
2, 139392, Note_on_c, 0, 68, 70
2, 139392, Note_on_c, 0, 63, 70
2, 139772, Note_off_c, 0, 72, 100
2, 139772, Note_off_c, 0, 68, 100
2, 139772, Note_off_c, 0, 63, 100
2, 140544, Note_on_c, 0, 68, 70
2, 140544, Note_on_c, 0, 65, 70
2, 140544, Note_on_c, 0, 62, 70
2, 140924, Note_off_c, 0, 68, 100
2, 140924, Note_off_c, 0, 65, 100
2, 140924, Note_off_c, 0, 62, 100
2, 140928, Note_on_c, 0, 68, 70
2, 140928, Note_on_c, 0, 65, 70
2, 140928, Note_on_c, 0, 62, 70
2, 141308, Note_off_c, 0, 68, 100
2, 141308, Note_off_c, 0, 65, 100
2, 141308, Note_off_c, 0, 62, 100
2, 142080, Note_on_c, 0, 67, 70
2, 142080, Note_on_c, 0, 63, 70
2, 142080, Note_on_c, 0, 58, 70
2, 142460, Note_off_c, 0, 67, 100
2, 142460, Note_off_c, 0, 63, 100
2, 142460, Note_off_c, 0, 58, 100
2, 142848, Note_on_c, 0, 68, 70
2, 142848, Note_on_c, 0, 65, 70
2, 142848, Note_on_c, 0, 62, 70
2, 143228, Note_off_c, 0, 68, 100
2, 143228, Note_off_c, 0, 65, 100
2, 143228, Note_off_c, 0, 62, 100
2, 143616, Note_on_c, 0, 67, 70
2, 143616, Note_on_c, 0, 63, 70
2, 143616, Note_on_c, 0, 58, 70
2, 143996, Note_off_c, 0, 67, 100
2, 143996, Note_off_c, 0, 63, 100
2, 143996, Note_off_c, 0, 58, 100
2, 144384, Note_on_c, 0, 68, 70
2, 144384, Note_on_c, 0, 65, 70
2, 144384, Note_on_c, 0, 62, 70
2, 144764, Note_off_c, 0, 68, 100
2, 144764, Note_off_c, 0, 65, 100
2, 144764, Note_off_c, 0, 62, 100
2, 145152, Note_on_c, 0, 67, 70
2, 145152, Note_on_c, 0, 63, 70
2, 145152, Note_on_c, 0, 58, 70
2, 145532, Note_off_c, 0, 67, 100
2, 145532, Note_off_c, 0, 63, 100
2, 145532, Note_off_c, 0, 58, 100
2, 146688, Note_on_c, 0, 67, 70
2, 146688, Note_on_c, 0, 63, 70
2, 146688, Note_on_c, 0, 58, 70
2, 146688, Note_on_c, 0, 55, 70
2, 147068, Note_off_c, 0, 67, 100
2, 147068, Note_off_c, 0, 63, 100
2, 147068, Note_off_c, 0, 58, 100
2, 147068, Note_off_c, 0, 55, 100
2, 148224, Note_on_c, 0, 87, 70
2, 148224, Note_on_c, 0, 82, 70
2, 148224, Note_on_c, 0, 79, 70
2, 151292, Note_off_c, 0, 79, 100
2, 151292, Note_off_c, 0, 82, 100
2, 151292, Note_off_c, 0, 87, 100
2, 151680, Control_c, 0, 7, 0
2, 152064, Note_on_c, 0, 75, 1
2, 152444, Note_off_c, 0, 75, 100
2, 152444, End_track
3, 0, Start_track
3, 0, Title_t, "Left"
3, 0, Control_c, 1, 0, 0
3, 0, Program_c, 1, 0
3, 0, Control_c, 1, 7, 100
3, 0, Control_c, 1, 10, 54
3, 0, Control_c, 1, 91, 127
3, 0, Key_signature, -3, "major"
3, 864, Note_on_c, 1, 46, 70
3, 956, Note_off_c, 1, 46, 100
3, 960, Note_on_c, 1, 48, 70
3, 1052, Note_off_c, 1, 48, 100
3, 1056, Note_on_c, 1, 50, 70
3, 1148, Note_off_c, 1, 50, 100
3, 1152, Note_on_c, 1, 51, 70
3, 1244, Note_off_c, 1, 51, 100
3, 1248, Note_on_c, 1, 53, 70
3, 1340, Note_off_c, 1, 53, 100
3, 1344, Note_on_c, 1, 55, 70
3, 1436, Note_off_c, 1, 55, 100
3, 1440, Note_on_c, 1, 51, 70
3, 1532, Note_off_c, 1, 51, 100
3, 1536, Note_on_c, 1, 56, 70
3, 1724, Note_off_c, 1, 56, 100
3, 2304, Note_on_c, 1, 56, 70
3, 2396, Note_off_c, 1, 56, 100
3, 2400, Note_on_c, 1, 55, 70
3, 2492, Note_off_c, 1, 55, 100
3, 2496, Note_on_c, 1, 53, 70
3, 2588, Note_off_c, 1, 53, 100
3, 2592, Note_on_c, 1, 51, 70
3, 2684, Note_off_c, 1, 51, 100
3, 2688, Note_on_c, 1, 50, 70
3, 2780, Note_off_c, 1, 50, 100
3, 2784, Note_on_c, 1, 48, 70
3, 2876, Note_off_c, 1, 48, 100
3, 2880, Note_on_c, 1, 46, 70
3, 2972, Note_off_c, 1, 46, 100
3, 2976, Note_on_c, 1, 50, 70
3, 3068, Note_off_c, 1, 50, 100
3, 3072, Note_on_c, 1, 51, 70
3, 3260, Note_off_c, 1, 51, 100
3, 3936, Note_on_c, 1, 46, 70
3, 4028, Note_off_c, 1, 46, 100
3, 4032, Note_on_c, 1, 48, 70
3, 4124, Note_off_c, 1, 48, 100
3, 4128, Note_on_c, 1, 50, 70
3, 4220, Note_off_c, 1, 50, 100
3, 4224, Note_on_c, 1, 51, 70
3, 4316, Note_off_c, 1, 51, 100
3, 4320, Note_on_c, 1, 53, 70
3, 4412, Note_off_c, 1, 53, 100
3, 4416, Note_on_c, 1, 55, 70
3, 4508, Note_off_c, 1, 55, 100
3, 4512, Note_on_c, 1, 51, 70
3, 4604, Note_off_c, 1, 51, 100
3, 4608, Note_on_c, 1, 56, 70
3, 4700, Note_off_c, 1, 56, 100
3, 4704, Note_on_c, 1, 53, 70
3, 4796, Note_off_c, 1, 53, 100
3, 4800, Note_on_c, 1, 50, 70
3, 4892, Note_off_c, 1, 50, 100
3, 4896, Note_on_c, 1, 46, 70
3, 4988, Note_off_c, 1, 46, 100
3, 4992, Note_on_c, 1, 44, 70
3, 5084, Note_off_c, 1, 44, 100
3, 5088, Note_on_c, 1, 41, 70
3, 5180, Note_off_c, 1, 41, 100
3, 5184, Note_on_c, 1, 38, 70
3, 5276, Note_off_c, 1, 38, 100
3, 5280, Note_on_c, 1, 34, 70
3, 5372, Note_off_c, 1, 34, 100
3, 5376, Note_on_c, 1, 39, 70
3, 5756, Note_off_c, 1, 39, 100
3, 5760, Note_on_c, 1, 51, 70
3, 5948, Note_off_c, 1, 51, 100
3, 7008, Note_on_c, 1, 46, 70
3, 7100, Note_off_c, 1, 46, 100
3, 7104, Note_on_c, 1, 48, 70
3, 7196, Note_off_c, 1, 48, 100
3, 7200, Note_on_c, 1, 50, 70
3, 7292, Note_off_c, 1, 50, 100
3, 7296, Note_on_c, 1, 51, 70
3, 7388, Note_off_c, 1, 51, 100
3, 7392, Note_on_c, 1, 53, 70
3, 7484, Note_off_c, 1, 53, 100
3, 7488, Note_on_c, 1, 55, 70
3, 7580, Note_off_c, 1, 55, 100
3, 7584, Note_on_c, 1, 51, 70
3, 7676, Note_off_c, 1, 51, 100
3, 7680, Note_on_c, 1, 56, 70
3, 7868, Note_off_c, 1, 56, 100
3, 8448, Note_on_c, 1, 56, 70
3, 8540, Note_off_c, 1, 56, 100
3, 8544, Note_on_c, 1, 55, 70
3, 8636, Note_off_c, 1, 55, 100
3, 8640, Note_on_c, 1, 53, 70
3, 8732, Note_off_c, 1, 53, 100
3, 8736, Note_on_c, 1, 51, 70
3, 8828, Note_off_c, 1, 51, 100
3, 8832, Note_on_c, 1, 50, 70
3, 8924, Note_off_c, 1, 50, 100
3, 8928, Note_on_c, 1, 48, 70
3, 9020, Note_off_c, 1, 48, 100
3, 9024, Note_on_c, 1, 46, 70
3, 9116, Note_off_c, 1, 46, 100
3, 9120, Note_on_c, 1, 50, 70
3, 9212, Note_off_c, 1, 50, 100
3, 9216, Note_on_c, 1, 51, 70
3, 9404, Note_off_c, 1, 51, 100
3, 10080, Note_on_c, 1, 46, 70
3, 10172, Note_off_c, 1, 46, 100
3, 10176, Note_on_c, 1, 48, 70
3, 10268, Note_off_c, 1, 48, 100
3, 10272, Note_on_c, 1, 50, 70
3, 10364, Note_off_c, 1, 50, 100
3, 10368, Note_on_c, 1, 51, 70
3, 10460, Note_off_c, 1, 51, 100
3, 10464, Note_on_c, 1, 53, 70
3, 10556, Note_off_c, 1, 53, 100
3, 10560, Note_on_c, 1, 55, 70
3, 10652, Note_off_c, 1, 55, 100
3, 10656, Note_on_c, 1, 51, 70
3, 10748, Note_off_c, 1, 51, 100
3, 10752, Note_on_c, 1, 56, 70
3, 10844, Note_off_c, 1, 56, 100
3, 10848, Note_on_c, 1, 53, 70
3, 10940, Note_off_c, 1, 53, 100
3, 10944, Note_on_c, 1, 50, 70
3, 11036, Note_off_c, 1, 50, 100
3, 11040, Note_on_c, 1, 46, 70
3, 11132, Note_off_c, 1, 46, 100
3, 11136, Note_on_c, 1, 44, 70
3, 11228, Note_off_c, 1, 44, 100
3, 11232, Note_on_c, 1, 41, 70
3, 11324, Note_off_c, 1, 41, 100
3, 11328, Note_on_c, 1, 38, 70
3, 11420, Note_off_c, 1, 38, 100
3, 11424, Note_on_c, 1, 34, 70
3, 11516, Note_off_c, 1, 34, 100
3, 11520, Note_on_c, 1, 39, 70
3, 11900, Note_off_c, 1, 39, 100
3, 11904, Note_on_c, 1, 51, 70
3, 12092, Note_off_c, 1, 51, 100
3, 13152, Note_on_c, 1, 34, 70
3, 13244, Note_off_c, 1, 34, 100
3, 13248, Note_on_c, 1, 46, 70
3, 13340, Note_off_c, 1, 46, 100
3, 13344, Note_on_c, 1, 48, 70
3, 13436, Note_off_c, 1, 48, 100
3, 13440, Note_on_c, 1, 50, 70
3, 13532, Note_off_c, 1, 50, 100
3, 13536, Note_on_c, 1, 51, 70
3, 13628, Note_off_c, 1, 51, 100
3, 13632, Note_on_c, 1, 53, 70
3, 13724, Note_off_c, 1, 53, 100
3, 13728, Note_on_c, 1, 55, 70
3, 13820, Note_off_c, 1, 55, 100
3, 13824, Note_on_c, 1, 57, 70
3, 14012, Note_off_c, 1, 57, 100
3, 14016, Note_on_c, 1, 58, 73
3, 14684, Note_off_c, 1, 58, 100
3, 14688, Note_on_c, 1, 34, 84
3, 14780, Note_off_c, 1, 34, 100
3, 14784, Note_on_c, 1, 46, 86
3, 14876, Note_off_c, 1, 46, 100
3, 14880, Note_on_c, 1, 48, 88
3, 14972, Note_off_c, 1, 48, 100
3, 14976, Note_on_c, 1, 50, 89
3, 15068, Note_off_c, 1, 50, 100
3, 15072, Note_on_c, 1, 51, 91
3, 15164, Note_off_c, 1, 51, 100
3, 15168, Note_on_c, 1, 53, 93
3, 15260, Note_off_c, 1, 53, 100
3, 15264, Note_on_c, 1, 55, 94
3, 15356, Note_off_c, 1, 55, 100
3, 15360, Note_on_c, 1, 57, 96
3, 15548, Note_off_c, 1, 57, 100
3, 15552, Note_on_c, 1, 58, 99
3, 16316, Note_off_c, 1, 58, 100
3, 16320, Note_on_c, 1, 59, 110
3, 16508, Note_off_c, 1, 59, 100
3, 16512, Note_on_c, 1, 60, 110
3, 16700, Note_off_c, 1, 60, 100
3, 16704, Note_on_c, 1, 55, 110
3, 16892, Note_off_c, 1, 55, 100
3, 16896, Note_on_c, 1, 56, 100
3, 17084, Note_off_c, 1, 56, 100
3, 17088, Note_on_c, 1, 57, 97
3, 17276, Note_off_c, 1, 57, 100
3, 17280, Note_on_c, 1, 58, 94
3, 17472, Note_on_c, 1, 46, 91
3, 17660, Note_off_c, 1, 46, 100
3, 17664, Note_on_c, 1, 51, 87
3, 17852, Note_off_c, 1, 58, 100
3, 17856, Note_on_c, 1, 62, 84
3, 18044, Note_off_c, 1, 62, 100
3, 18048, Note_on_c, 1, 63, 81
3, 18236, Note_off_c, 1, 51, 100
3, 18236, Note_off_c, 1, 63, 100
3, 19296, Note_on_c, 1, 34, 70
3, 19388, Note_off_c, 1, 34, 100
3, 19392, Note_on_c, 1, 46, 70
3, 19484, Note_off_c, 1, 46, 100
3, 19488, Note_on_c, 1, 48, 70
3, 19580, Note_off_c, 1, 48, 100
3, 19584, Note_on_c, 1, 50, 70
3, 19676, Note_off_c, 1, 50, 100
3, 19680, Note_on_c, 1, 51, 70
3, 19772, Note_off_c, 1, 51, 100
3, 19776, Note_on_c, 1, 53, 70
3, 19868, Note_off_c, 1, 53, 100
3, 19872, Note_on_c, 1, 55, 70
3, 19964, Note_off_c, 1, 55, 100
3, 19968, Note_on_c, 1, 57, 70
3, 20156, Note_off_c, 1, 57, 100
3, 20160, Note_on_c, 1, 58, 73
3, 20828, Note_off_c, 1, 58, 100
3, 20832, Note_on_c, 1, 34, 84
3, 20924, Note_off_c, 1, 34, 100
3, 20928, Note_on_c, 1, 46, 86
3, 21020, Note_off_c, 1, 46, 100
3, 21024, Note_on_c, 1, 48, 88
3, 21116, Note_off_c, 1, 48, 100
3, 21120, Note_on_c, 1, 50, 89
3, 21212, Note_off_c, 1, 50, 100
3, 21216, Note_on_c, 1, 51, 91
3, 21308, Note_off_c, 1, 51, 100
3, 21312, Note_on_c, 1, 53, 93
3, 21404, Note_off_c, 1, 53, 100
3, 21408, Note_on_c, 1, 55, 94
3, 21500, Note_off_c, 1, 55, 100
3, 21504, Note_on_c, 1, 57, 96
3, 21692, Note_off_c, 1, 57, 100
3, 21696, Note_on_c, 1, 58, 99
3, 22460, Note_off_c, 1, 58, 100
3, 22464, Note_on_c, 1, 59, 110
3, 22652, Note_off_c, 1, 59, 100
3, 22656, Note_on_c, 1, 60, 110
3, 22844, Note_off_c, 1, 60, 100
3, 22848, Note_on_c, 1, 55, 110
3, 23036, Note_off_c, 1, 55, 100
3, 23040, Note_on_c, 1, 56, 100
3, 23228, Note_off_c, 1, 56, 100
3, 23232, Note_on_c, 1, 57, 97
3, 23420, Note_off_c, 1, 57, 100
3, 23424, Note_on_c, 1, 58, 94
3, 23616, Note_on_c, 1, 46, 91
3, 23804, Note_off_c, 1, 46, 100
3, 23808, Note_on_c, 1, 51, 87
3, 23996, Note_off_c, 1, 58, 100
3, 24000, Note_on_c, 1, 62, 84
3, 24188, Note_off_c, 1, 62, 100
3, 24192, Note_on_c, 1, 63, 81
3, 24380, Note_off_c, 1, 51, 100
3, 24380, Note_off_c, 1, 63, 100
3, 24576, Note_on_c, 1, 51, 70
3, 24576, Note_on_c, 1, 46, 70
3, 24576, Note_on_c, 1, 39, 70
3, 24764, Note_off_c, 1, 51, 100
3, 24764, Note_off_c, 1, 46, 100
3, 24764, Note_off_c, 1, 39, 100
3, 24768, Note_on_c, 1, 51, 70
3, 24768, Note_on_c, 1, 46, 70
3, 24768, Note_on_c, 1, 39, 70
3, 24956, Note_off_c, 1, 51, 100
3, 24956, Note_off_c, 1, 46, 100
3, 24956, Note_off_c, 1, 39, 100
3, 24960, Note_on_c, 1, 51, 70
3, 24960, Note_on_c, 1, 46, 70
3, 24960, Note_on_c, 1, 39, 70
3, 25148, Note_off_c, 1, 51, 100
3, 25148, Note_off_c, 1, 46, 100
3, 25148, Note_off_c, 1, 39, 100
3, 25152, Note_on_c, 1, 51, 70
3, 25152, Note_on_c, 1, 46, 70
3, 25152, Note_on_c, 1, 39, 70
3, 25340, Note_off_c, 1, 51, 100
3, 25340, Note_off_c, 1, 46, 100
3, 25340, Note_off_c, 1, 39, 100
3, 25344, Note_on_c, 1, 51, 70
3, 25344, Note_on_c, 1, 46, 70
3, 25344, Note_on_c, 1, 39, 70
3, 25532, Note_off_c, 1, 51, 100
3, 25532, Note_off_c, 1, 46, 100
3, 25532, Note_off_c, 1, 39, 100
3, 25536, Note_on_c, 1, 51, 70
3, 25536, Note_on_c, 1, 46, 70
3, 25536, Note_on_c, 1, 39, 70
3, 25724, Note_off_c, 1, 51, 100
3, 25724, Note_off_c, 1, 46, 100
3, 25724, Note_off_c, 1, 39, 100
3, 25728, Note_on_c, 1, 51, 70
3, 25728, Note_on_c, 1, 46, 70
3, 25728, Note_on_c, 1, 39, 70
3, 25916, Note_off_c, 1, 51, 100
3, 25916, Note_off_c, 1, 46, 100
3, 25916, Note_off_c, 1, 39, 100
3, 25920, Note_on_c, 1, 51, 70
3, 25920, Note_on_c, 1, 46, 70
3, 25920, Note_on_c, 1, 39, 70
3, 26108, Note_off_c, 1, 51, 100
3, 26108, Note_off_c, 1, 46, 100
3, 26108, Note_off_c, 1, 39, 100
3, 26112, Note_on_c, 1, 51, 70
3, 26112, Note_on_c, 1, 46, 70
3, 26112, Note_on_c, 1, 39, 70
3, 26300, Note_off_c, 1, 51, 100
3, 26300, Note_off_c, 1, 46, 100
3, 26300, Note_off_c, 1, 39, 100
3, 26304, Note_on_c, 1, 51, 70
3, 26304, Note_on_c, 1, 46, 70
3, 26304, Note_on_c, 1, 39, 70
3, 26492, Note_off_c, 1, 51, 100
3, 26492, Note_off_c, 1, 46, 100
3, 26492, Note_off_c, 1, 39, 100
3, 26496, Note_on_c, 1, 51, 70
3, 26496, Note_on_c, 1, 46, 70
3, 26496, Note_on_c, 1, 39, 70
3, 26684, Note_off_c, 1, 51, 100
3, 26684, Note_off_c, 1, 46, 100
3, 26684, Note_off_c, 1, 39, 100
3, 26688, Note_on_c, 1, 51, 70
3, 26688, Note_on_c, 1, 46, 70
3, 26688, Note_on_c, 1, 39, 70
3, 26876, Note_off_c, 1, 51, 100
3, 26876, Note_off_c, 1, 46, 100
3, 26876, Note_off_c, 1, 39, 100
3, 26880, Note_on_c, 1, 51, 70
3, 26880, Note_on_c, 1, 46, 70
3, 26880, Note_on_c, 1, 39, 70
3, 27068, Note_off_c, 1, 51, 100
3, 27068, Note_off_c, 1, 46, 100
3, 27068, Note_off_c, 1, 39, 100
3, 27072, Note_on_c, 1, 51, 70
3, 27072, Note_on_c, 1, 46, 70
3, 27072, Note_on_c, 1, 39, 70
3, 27260, Note_off_c, 1, 51, 100
3, 27260, Note_off_c, 1, 46, 100
3, 27260, Note_off_c, 1, 39, 100
3, 27264, Note_on_c, 1, 51, 70
3, 27264, Note_on_c, 1, 46, 70
3, 27264, Note_on_c, 1, 39, 70
3, 27452, Note_off_c, 1, 51, 100
3, 27452, Note_off_c, 1, 46, 100
3, 27452, Note_off_c, 1, 39, 100
3, 27456, Note_on_c, 1, 51, 70
3, 27456, Note_on_c, 1, 46, 70
3, 27456, Note_on_c, 1, 39, 70
3, 27644, Note_off_c, 1, 51, 100
3, 27644, Note_off_c, 1, 46, 100
3, 27644, Note_off_c, 1, 39, 100
3, 27648, Note_on_c, 1, 50, 70
3, 27648, Note_on_c, 1, 46, 70
3, 27648, Note_on_c, 1, 41, 70
3, 27836, Note_off_c, 1, 50, 100
3, 27836, Note_off_c, 1, 46, 100
3, 27836, Note_off_c, 1, 41, 100
3, 27840, Note_on_c, 1, 50, 70
3, 27840, Note_on_c, 1, 46, 70
3, 27840, Note_on_c, 1, 41, 70
3, 28028, Note_off_c, 1, 50, 100
3, 28028, Note_off_c, 1, 46, 100
3, 28028, Note_off_c, 1, 41, 100
3, 28032, Note_on_c, 1, 50, 70
3, 28032, Note_on_c, 1, 46, 70
3, 28032, Note_on_c, 1, 41, 70
3, 28220, Note_off_c, 1, 50, 100
3, 28220, Note_off_c, 1, 46, 100
3, 28220, Note_off_c, 1, 41, 100
3, 28224, Note_on_c, 1, 50, 70
3, 28224, Note_on_c, 1, 46, 70
3, 28224, Note_on_c, 1, 41, 70
3, 28412, Note_off_c, 1, 50, 100
3, 28412, Note_off_c, 1, 46, 100
3, 28412, Note_off_c, 1, 41, 100
3, 28416, Note_on_c, 1, 50, 70
3, 28416, Note_on_c, 1, 46, 70
3, 28416, Note_on_c, 1, 41, 70
3, 28604, Note_off_c, 1, 50, 100
3, 28604, Note_off_c, 1, 46, 100
3, 28604, Note_off_c, 1, 41, 100
3, 28608, Note_on_c, 1, 50, 70
3, 28608, Note_on_c, 1, 46, 70
3, 28608, Note_on_c, 1, 41, 70
3, 28796, Note_off_c, 1, 50, 100
3, 28796, Note_off_c, 1, 46, 100
3, 28796, Note_off_c, 1, 41, 100
3, 28800, Note_on_c, 1, 50, 70
3, 28800, Note_on_c, 1, 46, 70
3, 28800, Note_on_c, 1, 41, 70
3, 28988, Note_off_c, 1, 50, 100
3, 28988, Note_off_c, 1, 46, 100
3, 28988, Note_off_c, 1, 41, 100
3, 28992, Note_on_c, 1, 50, 70
3, 28992, Note_on_c, 1, 46, 70
3, 28992, Note_on_c, 1, 41, 70
3, 29180, Note_off_c, 1, 50, 100
3, 29180, Note_off_c, 1, 46, 100
3, 29180, Note_off_c, 1, 41, 100
3, 29184, Note_on_c, 1, 46, 70
3, 29184, Note_on_c, 1, 34, 70
3, 29372, Note_off_c, 1, 46, 100
3, 29372, Note_off_c, 1, 34, 100
3, 29376, Note_on_c, 1, 46, 70
3, 29376, Note_on_c, 1, 34, 70
3, 29564, Note_off_c, 1, 46, 100
3, 29564, Note_off_c, 1, 34, 100
3, 29568, Note_on_c, 1, 46, 70
3, 29568, Note_on_c, 1, 34, 70
3, 29756, Note_off_c, 1, 46, 100
3, 29756, Note_off_c, 1, 34, 100
3, 29760, Note_on_c, 1, 46, 70
3, 29760, Note_on_c, 1, 34, 70
3, 29948, Note_off_c, 1, 46, 100
3, 29948, Note_off_c, 1, 34, 100
3, 29952, Note_on_c, 1, 46, 70
3, 29952, Note_on_c, 1, 39, 70
3, 30140, Note_off_c, 1, 46, 100
3, 30140, Note_off_c, 1, 39, 100
3, 30144, Note_on_c, 1, 46, 70
3, 30144, Note_on_c, 1, 39, 70
3, 30332, Note_off_c, 1, 46, 100
3, 30332, Note_off_c, 1, 39, 100
3, 30336, Note_on_c, 1, 46, 70
3, 30336, Note_on_c, 1, 39, 70
3, 30524, Note_off_c, 1, 46, 100
3, 30524, Note_off_c, 1, 39, 100
3, 30528, Note_on_c, 1, 46, 70
3, 30528, Note_on_c, 1, 39, 70
3, 30716, Note_off_c, 1, 46, 100
3, 30716, Note_off_c, 1, 39, 100
3, 30720, Note_on_c, 1, 51, 70
3, 30720, Note_on_c, 1, 46, 70
3, 30720, Note_on_c, 1, 39, 70
3, 30908, Note_off_c, 1, 51, 100
3, 30908, Note_off_c, 1, 46, 100
3, 30908, Note_off_c, 1, 39, 100
3, 30912, Note_on_c, 1, 51, 70
3, 30912, Note_on_c, 1, 46, 70
3, 30912, Note_on_c, 1, 39, 70
3, 31100, Note_off_c, 1, 51, 100
3, 31100, Note_off_c, 1, 46, 100
3, 31100, Note_off_c, 1, 39, 100
3, 31104, Note_on_c, 1, 51, 70
3, 31104, Note_on_c, 1, 46, 70
3, 31104, Note_on_c, 1, 39, 70
3, 31292, Note_off_c, 1, 51, 100
3, 31292, Note_off_c, 1, 46, 100
3, 31292, Note_off_c, 1, 39, 100
3, 31296, Note_on_c, 1, 51, 70
3, 31296, Note_on_c, 1, 46, 70
3, 31296, Note_on_c, 1, 39, 70
3, 31484, Note_off_c, 1, 51, 100
3, 31484, Note_off_c, 1, 46, 100
3, 31484, Note_off_c, 1, 39, 100
3, 31488, Note_on_c, 1, 51, 70
3, 31488, Note_on_c, 1, 46, 70
3, 31488, Note_on_c, 1, 39, 70
3, 31676, Note_off_c, 1, 51, 100
3, 31676, Note_off_c, 1, 46, 100
3, 31676, Note_off_c, 1, 39, 100
3, 31680, Note_on_c, 1, 51, 70
3, 31680, Note_on_c, 1, 46, 70
3, 31680, Note_on_c, 1, 39, 70
3, 31868, Note_off_c, 1, 51, 100
3, 31868, Note_off_c, 1, 46, 100
3, 31868, Note_off_c, 1, 39, 100
3, 31872, Note_on_c, 1, 51, 70
3, 31872, Note_on_c, 1, 46, 70
3, 31872, Note_on_c, 1, 39, 70
3, 32060, Note_off_c, 1, 51, 100
3, 32060, Note_off_c, 1, 46, 100
3, 32060, Note_off_c, 1, 39, 100
3, 32064, Note_on_c, 1, 51, 70
3, 32064, Note_on_c, 1, 46, 70
3, 32064, Note_on_c, 1, 39, 70
3, 32252, Note_off_c, 1, 51, 100
3, 32252, Note_off_c, 1, 46, 100
3, 32252, Note_off_c, 1, 39, 100
3, 32256, Note_on_c, 1, 51, 70
3, 32256, Note_on_c, 1, 46, 70
3, 32256, Note_on_c, 1, 39, 70
3, 32444, Note_off_c, 1, 51, 100
3, 32444, Note_off_c, 1, 46, 100
3, 32444, Note_off_c, 1, 39, 100
3, 32448, Note_on_c, 1, 51, 70
3, 32448, Note_on_c, 1, 46, 70
3, 32448, Note_on_c, 1, 39, 70
3, 32636, Note_off_c, 1, 51, 100
3, 32636, Note_off_c, 1, 46, 100
3, 32636, Note_off_c, 1, 39, 100
3, 32640, Note_on_c, 1, 51, 70
3, 32640, Note_on_c, 1, 46, 70
3, 32640, Note_on_c, 1, 39, 70
3, 32828, Note_off_c, 1, 51, 100
3, 32828, Note_off_c, 1, 46, 100
3, 32828, Note_off_c, 1, 39, 100
3, 32832, Note_on_c, 1, 51, 70
3, 32832, Note_on_c, 1, 46, 70
3, 32832, Note_on_c, 1, 39, 70
3, 33020, Note_off_c, 1, 51, 100
3, 33020, Note_off_c, 1, 46, 100
3, 33020, Note_off_c, 1, 39, 100
3, 33024, Note_on_c, 1, 51, 70
3, 33024, Note_on_c, 1, 46, 70
3, 33024, Note_on_c, 1, 39, 70
3, 33212, Note_off_c, 1, 51, 100
3, 33212, Note_off_c, 1, 46, 100
3, 33212, Note_off_c, 1, 39, 100
3, 33216, Note_on_c, 1, 51, 70
3, 33216, Note_on_c, 1, 46, 70
3, 33216, Note_on_c, 1, 39, 70
3, 33404, Note_off_c, 1, 51, 100
3, 33404, Note_off_c, 1, 46, 100
3, 33404, Note_off_c, 1, 39, 100
3, 33408, Note_on_c, 1, 51, 70
3, 33408, Note_on_c, 1, 46, 70
3, 33408, Note_on_c, 1, 39, 70
3, 33596, Note_off_c, 1, 51, 100
3, 33596, Note_off_c, 1, 46, 100
3, 33596, Note_off_c, 1, 39, 100
3, 33600, Note_on_c, 1, 51, 70
3, 33600, Note_on_c, 1, 46, 70
3, 33600, Note_on_c, 1, 39, 70
3, 33788, Note_off_c, 1, 51, 100
3, 33788, Note_off_c, 1, 46, 100
3, 33788, Note_off_c, 1, 39, 100
3, 33792, Note_on_c, 1, 50, 70
3, 33792, Note_on_c, 1, 46, 70
3, 33792, Note_on_c, 1, 41, 70
3, 33980, Note_off_c, 1, 50, 100
3, 33980, Note_off_c, 1, 46, 100
3, 33980, Note_off_c, 1, 41, 100
3, 33984, Note_on_c, 1, 50, 70
3, 33984, Note_on_c, 1, 46, 70
3, 33984, Note_on_c, 1, 41, 70
3, 34172, Note_off_c, 1, 50, 100
3, 34172, Note_off_c, 1, 46, 100
3, 34172, Note_off_c, 1, 41, 100
3, 34176, Note_on_c, 1, 50, 70
3, 34176, Note_on_c, 1, 46, 70
3, 34176, Note_on_c, 1, 41, 70
3, 34364, Note_off_c, 1, 50, 100
3, 34364, Note_off_c, 1, 46, 100
3, 34364, Note_off_c, 1, 41, 100
3, 34368, Note_on_c, 1, 50, 70
3, 34368, Note_on_c, 1, 46, 70
3, 34368, Note_on_c, 1, 41, 70
3, 34556, Note_off_c, 1, 50, 100
3, 34556, Note_off_c, 1, 46, 100
3, 34556, Note_off_c, 1, 41, 100
3, 34560, Note_on_c, 1, 50, 70
3, 34560, Note_on_c, 1, 46, 70
3, 34560, Note_on_c, 1, 41, 70
3, 34748, Note_off_c, 1, 50, 100
3, 34748, Note_off_c, 1, 46, 100
3, 34748, Note_off_c, 1, 41, 100
3, 34752, Note_on_c, 1, 50, 70
3, 34752, Note_on_c, 1, 46, 70
3, 34752, Note_on_c, 1, 41, 70
3, 34940, Note_off_c, 1, 50, 100
3, 34940, Note_off_c, 1, 46, 100
3, 34940, Note_off_c, 1, 41, 100
3, 34944, Note_on_c, 1, 50, 70
3, 34944, Note_on_c, 1, 46, 70
3, 34944, Note_on_c, 1, 41, 70
3, 35132, Note_off_c, 1, 50, 100
3, 35132, Note_off_c, 1, 46, 100
3, 35132, Note_off_c, 1, 41, 100
3, 35136, Note_on_c, 1, 50, 70
3, 35136, Note_on_c, 1, 46, 70
3, 35136, Note_on_c, 1, 41, 70
3, 35324, Note_off_c, 1, 50, 100
3, 35324, Note_off_c, 1, 46, 100
3, 35324, Note_off_c, 1, 41, 100
3, 35328, Note_on_c, 1, 46, 70
3, 35328, Note_on_c, 1, 34, 70
3, 35516, Note_off_c, 1, 46, 100
3, 35516, Note_off_c, 1, 34, 100
3, 35520, Note_on_c, 1, 46, 70
3, 35520, Note_on_c, 1, 34, 70
3, 35708, Note_off_c, 1, 46, 100
3, 35708, Note_off_c, 1, 34, 100
3, 35712, Note_on_c, 1, 46, 70
3, 35712, Note_on_c, 1, 34, 70
3, 35900, Note_off_c, 1, 46, 100
3, 35900, Note_off_c, 1, 34, 100
3, 35904, Note_on_c, 1, 46, 70
3, 35904, Note_on_c, 1, 34, 70
3, 36092, Note_off_c, 1, 46, 100
3, 36092, Note_off_c, 1, 34, 100
3, 36096, Note_on_c, 1, 46, 70
3, 36096, Note_on_c, 1, 39, 70
3, 36284, Note_off_c, 1, 46, 100
3, 36284, Note_off_c, 1, 39, 100
3, 36288, Note_on_c, 1, 46, 70
3, 36288, Note_on_c, 1, 39, 70
3, 36476, Note_off_c, 1, 46, 100
3, 36476, Note_off_c, 1, 39, 100
3, 36480, Note_on_c, 1, 46, 70
3, 36480, Note_on_c, 1, 39, 70
3, 36668, Note_off_c, 1, 46, 100
3, 36668, Note_off_c, 1, 39, 100
3, 36864, Note_on_c, 1, 60, 70
3, 36864, Note_on_c, 1, 55, 70
3, 36864, Note_on_c, 1, 52, 70
3, 36864, Note_on_c, 1, 48, 70
3, 37244, Note_off_c, 1, 60, 100
3, 37244, Note_off_c, 1, 55, 100
3, 37244, Note_off_c, 1, 52, 100
3, 37244, Note_off_c, 1, 48, 100
3, 37248, Note_on_c, 1, 60, 70
3, 37248, Note_on_c, 1, 55, 70
3, 37248, Note_on_c, 1, 52, 70
3, 37248, Note_on_c, 1, 48, 70
3, 37628, Note_off_c, 1, 60, 100
3, 37628, Note_off_c, 1, 55, 100
3, 37628, Note_off_c, 1, 52, 100
3, 37628, Note_off_c, 1, 48, 100
3, 37632, Note_on_c, 1, 60, 70
3, 37632, Note_on_c, 1, 55, 70
3, 37632, Note_on_c, 1, 52, 70
3, 37632, Note_on_c, 1, 48, 70
3, 38204, Note_off_c, 1, 60, 100
3, 38204, Note_off_c, 1, 55, 100
3, 38204, Note_off_c, 1, 52, 100
3, 38204, Note_off_c, 1, 48, 100
3, 38208, Note_on_c, 1, 60, 70
3, 38396, Note_off_c, 1, 60, 100
3, 38400, Note_on_c, 1, 60, 78
3, 38400, Note_on_c, 1, 59, 78
3, 38588, Note_off_c, 1, 60, 100
3, 38588, Note_off_c, 1, 59, 100
3, 38592, Note_on_c, 1, 60, 87
3, 38592, Note_on_c, 1, 58, 87
3, 38780, Note_off_c, 1, 60, 100
3, 38780, Note_off_c, 1, 58, 100
3, 38784, Note_on_c, 1, 60, 96
3, 38784, Note_on_c, 1, 56, 96
3, 38972, Note_off_c, 1, 60, 100
3, 38972, Note_off_c, 1, 56, 100
3, 38976, Note_on_c, 1, 60, 104
3, 38976, Note_on_c, 1, 52, 104
3, 39164, Note_off_c, 1, 60, 100
3, 39164, Note_off_c, 1, 52, 100
3, 39168, Note_on_c, 1, 60, 110
3, 39168, Note_on_c, 1, 53, 110
3, 39740, Note_off_c, 1, 60, 100
3, 39740, Note_off_c, 1, 53, 100
3, 39744, Note_on_c, 1, 40, 103
3, 39932, Note_off_c, 1, 40, 100
3, 39936, Note_on_c, 1, 41, 101
3, 40124, Note_off_c, 1, 41, 100
3, 40128, Note_on_c, 1, 43, 98
3, 40316, Note_off_c, 1, 43, 100
3, 40320, Note_on_c, 1, 44, 96
3, 40508, Note_off_c, 1, 44, 100
3, 40512, Note_on_c, 1, 45, 93
3, 40700, Note_off_c, 1, 45, 100
3, 40704, Note_on_c, 1, 46, 91
3, 41468, Note_off_c, 1, 46, 100
3, 41472, Note_on_c, 1, 46, 81
3, 41568, Note_on_c, 1, 48, 70
3, 41660, Note_off_c, 1, 48, 100
3, 41664, Note_on_c, 1, 50, 70
3, 41756, Note_off_c, 1, 50, 100
3, 41760, Note_on_c, 1, 51, 70
3, 41852, Note_off_c, 1, 46, 100
3, 41852, Note_off_c, 1, 51, 100
3, 41856, Note_on_c, 1, 46, 70
3, 41856, Note_on_c, 1, 53, 70
3, 41948, Note_off_c, 1, 53, 100
3, 41952, Note_on_c, 1, 55, 70
3, 42044, Note_off_c, 1, 55, 100
3, 42048, Note_on_c, 1, 56, 70
3, 42140, Note_off_c, 1, 56, 100
3, 42144, Note_on_c, 1, 53, 70
3, 42236, Note_off_c, 1, 46, 100
3, 42236, Note_off_c, 1, 53, 100
3, 42240, Note_on_c, 1, 51, 70
3, 42240, Note_on_c, 1, 55, 70
3, 42620, Note_off_c, 1, 51, 100
3, 42620, Note_off_c, 1, 55, 100
3, 42624, Note_on_c, 1, 39, 70
3, 42812, Note_off_c, 1, 39, 100
3, 43008, Note_on_c, 1, 60, 70
3, 43008, Note_on_c, 1, 55, 70
3, 43008, Note_on_c, 1, 52, 70
3, 43008, Note_on_c, 1, 48, 70
3, 43388, Note_off_c, 1, 60, 100
3, 43388, Note_off_c, 1, 55, 100
3, 43388, Note_off_c, 1, 52, 100
3, 43388, Note_off_c, 1, 48, 100
3, 43392, Note_on_c, 1, 60, 70
3, 43392, Note_on_c, 1, 55, 70
3, 43392, Note_on_c, 1, 52, 70
3, 43392, Note_on_c, 1, 48, 70
3, 43772, Note_off_c, 1, 60, 100
3, 43772, Note_off_c, 1, 55, 100
3, 43772, Note_off_c, 1, 52, 100
3, 43772, Note_off_c, 1, 48, 100
3, 43776, Note_on_c, 1, 60, 70
3, 43776, Note_on_c, 1, 55, 70
3, 43776, Note_on_c, 1, 52, 70
3, 43776, Note_on_c, 1, 48, 70
3, 44348, Note_off_c, 1, 60, 100
3, 44348, Note_off_c, 1, 55, 100
3, 44348, Note_off_c, 1, 52, 100
3, 44348, Note_off_c, 1, 48, 100
3, 44352, Note_on_c, 1, 60, 70
3, 44540, Note_off_c, 1, 60, 100
3, 44544, Note_on_c, 1, 60, 78
3, 44544, Note_on_c, 1, 59, 78
3, 44732, Note_off_c, 1, 60, 100
3, 44732, Note_off_c, 1, 59, 100
3, 44736, Note_on_c, 1, 60, 87
3, 44736, Note_on_c, 1, 58, 87
3, 44924, Note_off_c, 1, 60, 100
3, 44924, Note_off_c, 1, 58, 100
3, 44928, Note_on_c, 1, 60, 95
3, 44928, Note_on_c, 1, 56, 95
3, 45116, Note_off_c, 1, 60, 100
3, 45116, Note_off_c, 1, 56, 100
3, 45120, Note_on_c, 1, 60, 104
3, 45120, Note_on_c, 1, 52, 104
3, 45308, Note_off_c, 1, 60, 100
3, 45308, Note_off_c, 1, 52, 100
3, 45312, Note_on_c, 1, 60, 110
3, 45312, Note_on_c, 1, 53, 110
3, 45884, Note_off_c, 1, 60, 100
3, 45884, Note_off_c, 1, 53, 100
3, 45888, Note_on_c, 1, 40, 100
3, 46076, Note_off_c, 1, 40, 100
3, 46080, Note_on_c, 1, 41, 97
3, 46268, Note_off_c, 1, 41, 100
3, 46272, Note_on_c, 1, 43, 93
3, 46460, Note_off_c, 1, 43, 100
3, 46464, Note_on_c, 1, 44, 90
3, 46652, Note_off_c, 1, 44, 100
3, 46656, Note_on_c, 1, 45, 87
3, 46844, Note_off_c, 1, 45, 100
3, 46848, Note_on_c, 1, 46, 94
3, 47612, Note_off_c, 1, 46, 100
3, 47616, Note_on_c, 1, 46, 71
3, 47712, Note_on_c, 1, 48, 70
3, 47804, Note_off_c, 1, 48, 100
3, 47808, Note_on_c, 1, 50, 70
3, 47900, Note_off_c, 1, 50, 100
3, 47904, Note_on_c, 1, 51, 70
3, 47996, Note_off_c, 1, 46, 100
3, 47996, Note_off_c, 1, 51, 100
3, 48000, Note_on_c, 1, 46, 70
3, 48000, Note_on_c, 1, 53, 70
3, 48092, Note_off_c, 1, 53, 100
3, 48096, Note_on_c, 1, 55, 70
3, 48188, Note_off_c, 1, 55, 100
3, 48192, Note_on_c, 1, 56, 70
3, 48284, Note_off_c, 1, 56, 100
3, 48288, Note_on_c, 1, 53, 70
3, 48380, Note_off_c, 1, 46, 100
3, 48380, Note_off_c, 1, 53, 100
3, 48384, Note_on_c, 1, 51, 70
3, 48384, Note_on_c, 1, 55, 70
3, 48764, Note_off_c, 1, 51, 100
3, 48764, Note_off_c, 1, 55, 100
3, 48768, Note_on_c, 1, 39, 70
3, 48956, Note_off_c, 1, 39, 100
3, 50016, Note_on_c, 1, 46, 70
3, 50108, Note_off_c, 1, 46, 100
3, 50112, Note_on_c, 1, 48, 70
3, 50204, Note_off_c, 1, 48, 100
3, 50208, Note_on_c, 1, 50, 70
3, 50300, Note_off_c, 1, 50, 100
3, 50304, Note_on_c, 1, 51, 70
3, 50396, Note_off_c, 1, 51, 100
3, 50400, Note_on_c, 1, 53, 70
3, 50492, Note_off_c, 1, 53, 100
3, 50496, Note_on_c, 1, 55, 70
3, 50588, Note_off_c, 1, 55, 100
3, 50592, Note_on_c, 1, 51, 70
3, 50684, Note_off_c, 1, 51, 100
3, 50688, Note_on_c, 1, 56, 70
3, 50876, Note_off_c, 1, 56, 100
3, 51456, Note_on_c, 1, 56, 70
3, 51548, Note_off_c, 1, 56, 100
3, 51552, Note_on_c, 1, 55, 70
3, 51644, Note_off_c, 1, 55, 100
3, 51648, Note_on_c, 1, 53, 70
3, 51740, Note_off_c, 1, 53, 100
3, 51744, Note_on_c, 1, 51, 70
3, 51836, Note_off_c, 1, 51, 100
3, 51840, Note_on_c, 1, 50, 70
3, 51932, Note_off_c, 1, 50, 100
3, 51936, Note_on_c, 1, 48, 70
3, 52028, Note_off_c, 1, 48, 100
3, 52032, Note_on_c, 1, 46, 70
3, 52124, Note_off_c, 1, 46, 100
3, 52128, Note_on_c, 1, 50, 70
3, 52220, Note_off_c, 1, 50, 100
3, 52224, Note_on_c, 1, 51, 70
3, 52412, Note_off_c, 1, 51, 100
3, 53088, Note_on_c, 1, 46, 70
3, 53180, Note_off_c, 1, 46, 100
3, 53184, Note_on_c, 1, 48, 70
3, 53276, Note_off_c, 1, 48, 100
3, 53280, Note_on_c, 1, 50, 70
3, 53372, Note_off_c, 1, 50, 100
3, 53376, Note_on_c, 1, 51, 70
3, 53468, Note_off_c, 1, 51, 100
3, 53472, Note_on_c, 1, 53, 70
3, 53564, Note_off_c, 1, 53, 100
3, 53568, Note_on_c, 1, 55, 70
3, 53660, Note_off_c, 1, 55, 100
3, 53664, Note_on_c, 1, 51, 70
3, 53756, Note_off_c, 1, 51, 100
3, 53760, Note_on_c, 1, 56, 70
3, 53852, Note_off_c, 1, 56, 100
3, 53856, Note_on_c, 1, 53, 70
3, 53948, Note_off_c, 1, 53, 100
3, 53952, Note_on_c, 1, 50, 70
3, 54044, Note_off_c, 1, 50, 100
3, 54048, Note_on_c, 1, 46, 70
3, 54140, Note_off_c, 1, 46, 100
3, 54144, Note_on_c, 1, 44, 70
3, 54236, Note_off_c, 1, 44, 100
3, 54240, Note_on_c, 1, 41, 70
3, 54332, Note_off_c, 1, 41, 100
3, 54336, Note_on_c, 1, 38, 70
3, 54428, Note_off_c, 1, 38, 100
3, 54432, Note_on_c, 1, 34, 70
3, 54524, Note_off_c, 1, 34, 100
3, 54528, Note_on_c, 1, 39, 70
3, 54908, Note_off_c, 1, 39, 100
3, 54912, Note_on_c, 1, 51, 70
3, 55100, Note_off_c, 1, 51, 100
3, 56160, Note_on_c, 1, 46, 70
3, 56252, Note_off_c, 1, 46, 100
3, 56256, Note_on_c, 1, 48, 70
3, 56348, Note_off_c, 1, 48, 100
3, 56352, Note_on_c, 1, 50, 70
3, 56444, Note_off_c, 1, 50, 100
3, 56448, Note_on_c, 1, 51, 70
3, 56540, Note_off_c, 1, 51, 100
3, 56544, Note_on_c, 1, 53, 70
3, 56636, Note_off_c, 1, 53, 100
3, 56640, Note_on_c, 1, 55, 70
3, 56732, Note_off_c, 1, 55, 100
3, 56736, Note_on_c, 1, 51, 70
3, 56828, Note_off_c, 1, 51, 100
3, 56832, Note_on_c, 1, 56, 70
3, 57020, Note_off_c, 1, 56, 100
3, 57600, Note_on_c, 1, 56, 70
3, 57692, Note_off_c, 1, 56, 100
3, 57696, Note_on_c, 1, 55, 70
3, 57788, Note_off_c, 1, 55, 100
3, 57792, Note_on_c, 1, 53, 70
3, 57884, Note_off_c, 1, 53, 100
3, 57888, Note_on_c, 1, 51, 70
3, 57980, Note_off_c, 1, 51, 100
3, 57984, Note_on_c, 1, 50, 70
3, 58076, Note_off_c, 1, 50, 100
3, 58080, Note_on_c, 1, 48, 70
3, 58172, Note_off_c, 1, 48, 100
3, 58176, Note_on_c, 1, 46, 70
3, 58268, Note_off_c, 1, 46, 100
3, 58272, Note_on_c, 1, 50, 70
3, 58364, Note_off_c, 1, 50, 100
3, 58368, Note_on_c, 1, 51, 70
3, 58556, Note_off_c, 1, 51, 100
3, 59232, Note_on_c, 1, 46, 70
3, 59324, Note_off_c, 1, 46, 100
3, 59328, Note_on_c, 1, 48, 70
3, 59420, Note_off_c, 1, 48, 100
3, 59424, Note_on_c, 1, 50, 70
3, 59516, Note_off_c, 1, 50, 100
3, 59520, Note_on_c, 1, 51, 70
3, 59612, Note_off_c, 1, 51, 100
3, 59616, Note_on_c, 1, 53, 70
3, 59708, Note_off_c, 1, 53, 100
3, 59712, Note_on_c, 1, 55, 70
3, 59804, Note_off_c, 1, 55, 100
3, 59808, Note_on_c, 1, 51, 70
3, 59900, Note_off_c, 1, 51, 100
3, 59904, Note_on_c, 1, 56, 70
3, 59996, Note_off_c, 1, 56, 100
3, 60000, Note_on_c, 1, 53, 70
3, 60092, Note_off_c, 1, 53, 100
3, 60096, Note_on_c, 1, 50, 70
3, 60188, Note_off_c, 1, 50, 100
3, 60192, Note_on_c, 1, 46, 70
3, 60284, Note_off_c, 1, 46, 100
3, 60288, Note_on_c, 1, 44, 70
3, 60380, Note_off_c, 1, 44, 100
3, 60384, Note_on_c, 1, 41, 70
3, 60476, Note_off_c, 1, 41, 100
3, 60480, Note_on_c, 1, 38, 70
3, 60572, Note_off_c, 1, 38, 100
3, 60576, Note_on_c, 1, 34, 70
3, 60668, Note_off_c, 1, 34, 100
3, 60672, Note_on_c, 1, 39, 70
3, 61052, Note_off_c, 1, 39, 100
3, 61056, Note_on_c, 1, 51, 70
3, 61244, Note_off_c, 1, 51, 100
3, 62304, Note_on_c, 1, 34, 70
3, 62396, Note_off_c, 1, 34, 100
3, 62400, Note_on_c, 1, 46, 70
3, 62492, Note_off_c, 1, 46, 100
3, 62496, Note_on_c, 1, 48, 70
3, 62588, Note_off_c, 1, 48, 100
3, 62592, Note_on_c, 1, 50, 70
3, 62684, Note_off_c, 1, 50, 100
3, 62688, Note_on_c, 1, 51, 70
3, 62780, Note_off_c, 1, 51, 100
3, 62784, Note_on_c, 1, 53, 70
3, 62876, Note_off_c, 1, 53, 100
3, 62880, Note_on_c, 1, 55, 70
3, 62972, Note_off_c, 1, 55, 100
3, 62976, Note_on_c, 1, 57, 70
3, 63164, Note_off_c, 1, 57, 100
3, 63168, Note_on_c, 1, 58, 73
3, 63836, Note_off_c, 1, 58, 100
3, 63840, Note_on_c, 1, 34, 84
3, 63932, Note_off_c, 1, 34, 100
3, 63936, Note_on_c, 1, 46, 86
3, 64028, Note_off_c, 1, 46, 100
3, 64032, Note_on_c, 1, 48, 88
3, 64124, Note_off_c, 1, 48, 100
3, 64128, Note_on_c, 1, 50, 89
3, 64220, Note_off_c, 1, 50, 100
3, 64224, Note_on_c, 1, 51, 91
3, 64316, Note_off_c, 1, 51, 100
3, 64320, Note_on_c, 1, 53, 93
3, 64412, Note_off_c, 1, 53, 100
3, 64416, Note_on_c, 1, 55, 94
3, 64508, Note_off_c, 1, 55, 100
3, 64512, Note_on_c, 1, 57, 96
3, 64700, Note_off_c, 1, 57, 100
3, 64704, Note_on_c, 1, 58, 99
3, 65468, Note_off_c, 1, 58, 100
3, 65472, Note_on_c, 1, 59, 110
3, 65660, Note_off_c, 1, 59, 100
3, 65664, Note_on_c, 1, 60, 110
3, 65852, Note_off_c, 1, 60, 100
3, 65856, Note_on_c, 1, 55, 110
3, 66044, Note_off_c, 1, 55, 100
3, 66048, Note_on_c, 1, 56, 100
3, 66236, Note_off_c, 1, 56, 100
3, 66240, Note_on_c, 1, 57, 91
3, 66428, Note_off_c, 1, 57, 100
3, 66432, Note_on_c, 1, 58, 81
3, 66624, Note_on_c, 1, 46, 71
3, 66812, Note_off_c, 1, 46, 100
3, 66816, Note_on_c, 1, 51, 70
3, 67004, Note_off_c, 1, 58, 100
3, 67008, Note_on_c, 1, 62, 70
3, 67196, Note_off_c, 1, 62, 100
3, 67200, Note_on_c, 1, 63, 70
3, 67388, Note_off_c, 1, 51, 100
3, 67388, Note_off_c, 1, 63, 100
3, 68448, Note_on_c, 1, 34, 70
3, 68540, Note_off_c, 1, 34, 100
3, 68544, Note_on_c, 1, 46, 70
3, 68636, Note_off_c, 1, 46, 100
3, 68640, Note_on_c, 1, 48, 70
3, 68732, Note_off_c, 1, 48, 100
3, 68736, Note_on_c, 1, 50, 70
3, 68828, Note_off_c, 1, 50, 100
3, 68832, Note_on_c, 1, 51, 70
3, 68924, Note_off_c, 1, 51, 100
3, 68928, Note_on_c, 1, 53, 70
3, 69020, Note_off_c, 1, 53, 100
3, 69024, Note_on_c, 1, 55, 70
3, 69116, Note_off_c, 1, 55, 100
3, 69120, Note_on_c, 1, 57, 70
3, 69308, Note_off_c, 1, 57, 100
3, 69312, Note_on_c, 1, 58, 73
3, 69980, Note_off_c, 1, 58, 100
3, 69984, Note_on_c, 1, 34, 84
3, 70076, Note_off_c, 1, 34, 100
3, 70080, Note_on_c, 1, 46, 86
3, 70172, Note_off_c, 1, 46, 100
3, 70176, Note_on_c, 1, 48, 88
3, 70268, Note_off_c, 1, 48, 100
3, 70272, Note_on_c, 1, 50, 89
3, 70364, Note_off_c, 1, 50, 100
3, 70368, Note_on_c, 1, 51, 91
3, 70460, Note_off_c, 1, 51, 100
3, 70464, Note_on_c, 1, 53, 93
3, 70556, Note_off_c, 1, 53, 100
3, 70560, Note_on_c, 1, 55, 94
3, 70652, Note_off_c, 1, 55, 100
3, 70656, Note_on_c, 1, 57, 96
3, 70844, Note_off_c, 1, 57, 100
3, 70848, Note_on_c, 1, 58, 110
3, 71612, Note_off_c, 1, 58, 100
3, 71616, Note_on_c, 1, 59, 110
3, 71804, Note_off_c, 1, 59, 100
3, 71808, Note_on_c, 1, 60, 110
3, 71996, Note_off_c, 1, 60, 100
3, 72000, Note_on_c, 1, 55, 110
3, 72188, Note_off_c, 1, 55, 100
3, 72192, Note_on_c, 1, 56, 100
3, 72380, Note_off_c, 1, 56, 100
3, 72384, Note_on_c, 1, 57, 91
3, 72572, Note_off_c, 1, 57, 100
3, 72576, Note_on_c, 1, 58, 81
3, 72768, Note_on_c, 1, 46, 71
3, 72956, Note_off_c, 1, 46, 100
3, 72960, Note_on_c, 1, 51, 70
3, 73148, Note_off_c, 1, 58, 100
3, 73152, Note_on_c, 1, 62, 70
3, 73340, Note_off_c, 1, 62, 100
3, 73344, Note_on_c, 1, 63, 70
3, 73532, Note_off_c, 1, 51, 100
3, 73532, Note_off_c, 1, 63, 100
3, 73728, Key_signature, 0, "major"
3, 73728, Note_on_c, 1, 50, 110
3, 73728, Note_on_c, 1, 43, 110
3, 73728, Note_on_c, 1, 40, 110
3, 73728, Note_on_c, 1, 36, 110
3, 74108, Note_off_c, 1, 50, 100
3, 74108, Note_off_c, 1, 43, 100
3, 74108, Note_off_c, 1, 40, 100
3, 74108, Note_off_c, 1, 36, 100
3, 74880, Note_on_c, 1, 67, 70
3, 74880, Note_on_c, 1, 64, 70
3, 74880, Note_on_c, 1, 60, 70
3, 75068, Note_off_c, 1, 67, 100
3, 75068, Note_off_c, 1, 64, 100
3, 75068, Note_off_c, 1, 60, 100
3, 75072, Note_on_c, 1, 67, 70
3, 75072, Note_on_c, 1, 64, 70
3, 75072, Note_on_c, 1, 60, 70
3, 75260, Note_off_c, 1, 67, 100
3, 75260, Note_off_c, 1, 64, 100
3, 75260, Note_off_c, 1, 60, 100
3, 75264, Note_on_c, 1, 64, 70
3, 75264, Note_on_c, 1, 60, 70
3, 75264, Note_on_c, 1, 67, 70
3, 75452, Note_off_c, 1, 64, 100
3, 75452, Note_off_c, 1, 60, 100
3, 75452, Note_off_c, 1, 67, 100
3, 75456, Note_on_c, 1, 67, 70
3, 75456, Note_on_c, 1, 65, 70
3, 75456, Note_on_c, 1, 62, 70
3, 75836, Note_off_c, 1, 67, 100
3, 75836, Note_off_c, 1, 65, 100
3, 75836, Note_off_c, 1, 62, 100
3, 76032, Note_on_c, 1, 55, 110
3, 76032, Note_on_c, 1, 50, 110
3, 76032, Note_on_c, 1, 47, 110
3, 76032, Note_on_c, 1, 43, 110
3, 76412, Note_off_c, 1, 55, 100
3, 76412, Note_off_c, 1, 50, 100
3, 76412, Note_off_c, 1, 47, 100
3, 76412, Note_off_c, 1, 43, 100
3, 77184, Note_on_c, 1, 67, 70
3, 77184, Note_on_c, 1, 62, 70
3, 77184, Note_on_c, 1, 59, 70
3, 77372, Note_off_c, 1, 67, 100
3, 77372, Note_off_c, 1, 62, 100
3, 77372, Note_off_c, 1, 59, 100
3, 77376, Note_on_c, 1, 67, 70
3, 77376, Note_on_c, 1, 62, 70
3, 77376, Note_on_c, 1, 59, 70
3, 77564, Note_off_c, 1, 67, 100
3, 77564, Note_off_c, 1, 62, 100
3, 77564, Note_off_c, 1, 59, 100
3, 77568, Note_on_c, 1, 67, 70
3, 77568, Note_on_c, 1, 62, 70
3, 77568, Note_on_c, 1, 59, 70
3, 77756, Note_off_c, 1, 67, 100
3, 77756, Note_off_c, 1, 62, 100
3, 77756, Note_off_c, 1, 59, 100
3, 77760, Note_on_c, 1, 67, 70
3, 77760, Note_on_c, 1, 64, 70
3, 77760, Note_on_c, 1, 60, 70
3, 78140, Note_off_c, 1, 67, 100
3, 78140, Note_off_c, 1, 64, 100
3, 78140, Note_off_c, 1, 60, 100
3, 78528, Note_on_c, 1, 67, 70
3, 78620, Note_off_c, 1, 67, 100
3, 78624, Note_on_c, 1, 65, 70
3, 78716, Note_off_c, 1, 65, 100
3, 78720, Note_on_c, 1, 64, 70
3, 78812, Note_off_c, 1, 64, 100
3, 78816, Note_on_c, 1, 67, 70
3, 78908, Note_off_c, 1, 67, 100
3, 78912, Note_on_c, 1, 64, 70
3, 79004, Note_off_c, 1, 64, 100
3, 79008, Note_on_c, 1, 62, 70
3, 79100, Note_off_c, 1, 62, 100
3, 79104, Note_on_c, 1, 60, 70
3, 79196, Note_off_c, 1, 60, 100
3, 79200, Note_on_c, 1, 64, 70
3, 79292, Note_off_c, 1, 64, 100
3, 79296, Note_on_c, 1, 60, 70
3, 79388, Note_off_c, 1, 60, 100
3, 79392, Note_on_c, 1, 59, 70
3, 79484, Note_off_c, 1, 59, 100
3, 79488, Note_on_c, 1, 57, 70
3, 79580, Note_off_c, 1, 57, 100
3, 79584, Note_on_c, 1, 60, 70
3, 79676, Note_off_c, 1, 60, 100
3, 79680, Note_on_c, 1, 57, 70
3, 79772, Note_off_c, 1, 57, 100
3, 79776, Note_on_c, 1, 55, 70
3, 79868, Note_off_c, 1, 55, 100
3, 79872, Note_on_c, 1, 53, 70
3, 79964, Note_off_c, 1, 53, 100
3, 79968, Note_on_c, 1, 57, 70
3, 80060, Note_off_c, 1, 57, 100
3, 80064, Note_on_c, 1, 53, 70
3, 80156, Note_off_c, 1, 53, 100
3, 80160, Note_on_c, 1, 52, 70
3, 80252, Note_off_c, 1, 52, 100
3, 80256, Note_on_c, 1, 50, 70
3, 80348, Note_off_c, 1, 50, 100
3, 80352, Note_on_c, 1, 53, 70
3, 80444, Note_off_c, 1, 53, 100
3, 80448, Note_on_c, 1, 50, 70
3, 80540, Note_off_c, 1, 50, 100
3, 80544, Note_on_c, 1, 48, 70
3, 80636, Note_off_c, 1, 48, 100
3, 80640, Note_on_c, 1, 47, 70
3, 80828, Note_off_c, 1, 47, 100
3, 80928, Note_on_c, 1, 40, 70
3, 81020, Note_off_c, 1, 40, 100
3, 81024, Note_on_c, 1, 42, 70
3, 81116, Note_off_c, 1, 42, 100
3, 81120, Note_on_c, 1, 44, 70
3, 81212, Note_off_c, 1, 44, 100
3, 81216, Note_on_c, 1, 45, 70
3, 81404, Note_off_c, 1, 45, 100
3, 81504, Note_on_c, 1, 33, 70
3, 81596, Note_off_c, 1, 33, 100
3, 81600, Note_on_c, 1, 35, 70
3, 81692, Note_off_c, 1, 35, 100
3, 81696, Note_on_c, 1, 36, 70
3, 81788, Note_off_c, 1, 36, 100
3, 81792, Note_on_c, 1, 38, 70
3, 81980, Note_off_c, 1, 38, 100
3, 82080, Note_on_c, 1, 38, 70
3, 82172, Note_off_c, 1, 38, 100
3, 82176, Note_on_c, 1, 40, 70
3, 82268, Note_off_c, 1, 40, 100
3, 82272, Note_on_c, 1, 42, 70
3, 82364, Note_off_c, 1, 42, 100
3, 82368, Note_on_c, 1, 43, 70
3, 82368, Note_on_c, 1, 31, 70
3, 82748, Note_off_c, 1, 43, 100
3, 82748, Note_off_c, 1, 31, 100
3, 82944, Note_on_c, 1, 50, 110
3, 82944, Note_on_c, 1, 43, 110
3, 82944, Note_on_c, 1, 40, 110
3, 82944, Note_on_c, 1, 36, 110
3, 83324, Note_off_c, 1, 50, 100
3, 83324, Note_off_c, 1, 43, 100
3, 83324, Note_off_c, 1, 40, 100
3, 83324, Note_off_c, 1, 36, 100
3, 84096, Note_on_c, 1, 67, 70
3, 84096, Note_on_c, 1, 64, 70
3, 84096, Note_on_c, 1, 60, 70
3, 84284, Note_off_c, 1, 67, 100
3, 84284, Note_off_c, 1, 64, 100
3, 84284, Note_off_c, 1, 60, 100
3, 84288, Note_on_c, 1, 67, 70
3, 84288, Note_on_c, 1, 64, 70
3, 84288, Note_on_c, 1, 60, 70
3, 84476, Note_off_c, 1, 67, 100
3, 84476, Note_off_c, 1, 64, 100
3, 84476, Note_off_c, 1, 60, 100
3, 84480, Note_on_c, 1, 64, 70
3, 84480, Note_on_c, 1, 60, 70
3, 84480, Note_on_c, 1, 67, 70
3, 84668, Note_off_c, 1, 64, 100
3, 84668, Note_off_c, 1, 60, 100
3, 84668, Note_off_c, 1, 67, 100
3, 84672, Note_on_c, 1, 67, 70
3, 84672, Note_on_c, 1, 65, 70
3, 84672, Note_on_c, 1, 62, 70
3, 85052, Note_off_c, 1, 67, 100
3, 85052, Note_off_c, 1, 65, 100
3, 85052, Note_off_c, 1, 62, 100
3, 85248, Note_on_c, 1, 55, 110
3, 85248, Note_on_c, 1, 50, 110
3, 85248, Note_on_c, 1, 47, 110
3, 85248, Note_on_c, 1, 43, 110
3, 85628, Note_off_c, 1, 55, 100
3, 85628, Note_off_c, 1, 50, 100
3, 85628, Note_off_c, 1, 47, 100
3, 85628, Note_off_c, 1, 43, 100
3, 86400, Note_on_c, 1, 67, 70
3, 86400, Note_on_c, 1, 62, 70
3, 86400, Note_on_c, 1, 59, 70
3, 86588, Note_off_c, 1, 67, 100
3, 86588, Note_off_c, 1, 62, 100
3, 86588, Note_off_c, 1, 59, 100
3, 86592, Note_on_c, 1, 67, 70
3, 86592, Note_on_c, 1, 62, 70
3, 86592, Note_on_c, 1, 59, 70
3, 86780, Note_off_c, 1, 67, 100
3, 86780, Note_off_c, 1, 62, 100
3, 86780, Note_off_c, 1, 59, 100
3, 86784, Note_on_c, 1, 67, 70
3, 86784, Note_on_c, 1, 62, 70
3, 86784, Note_on_c, 1, 59, 70
3, 86972, Note_off_c, 1, 67, 100
3, 86972, Note_off_c, 1, 62, 100
3, 86972, Note_off_c, 1, 59, 100
3, 86976, Note_on_c, 1, 67, 70
3, 86976, Note_on_c, 1, 64, 70
3, 86976, Note_on_c, 1, 60, 70
3, 87356, Note_off_c, 1, 67, 100
3, 87356, Note_off_c, 1, 64, 100
3, 87356, Note_off_c, 1, 60, 100
3, 87744, Note_on_c, 1, 67, 70
3, 87836, Note_off_c, 1, 67, 100
3, 87840, Note_on_c, 1, 65, 70
3, 87932, Note_off_c, 1, 65, 100
3, 87936, Note_on_c, 1, 64, 70
3, 88028, Note_off_c, 1, 64, 100
3, 88032, Note_on_c, 1, 67, 70
3, 88124, Note_off_c, 1, 67, 100
3, 88128, Note_on_c, 1, 64, 70
3, 88220, Note_off_c, 1, 64, 100
3, 88224, Note_on_c, 1, 62, 70
3, 88316, Note_off_c, 1, 62, 100
3, 88320, Note_on_c, 1, 60, 70
3, 88412, Note_off_c, 1, 60, 100
3, 88416, Note_on_c, 1, 64, 70
3, 88508, Note_off_c, 1, 64, 100
3, 88512, Note_on_c, 1, 60, 70
3, 88604, Note_off_c, 1, 60, 100
3, 88608, Note_on_c, 1, 59, 70
3, 88700, Note_off_c, 1, 59, 100
3, 88704, Note_on_c, 1, 57, 70
3, 88796, Note_off_c, 1, 57, 100
3, 88800, Note_on_c, 1, 60, 70
3, 88892, Note_off_c, 1, 60, 100
3, 88896, Note_on_c, 1, 57, 70
3, 88988, Note_off_c, 1, 57, 100
3, 88992, Note_on_c, 1, 55, 70
3, 89084, Note_off_c, 1, 55, 100
3, 89088, Note_on_c, 1, 53, 70
3, 89180, Note_off_c, 1, 53, 100
3, 89184, Note_on_c, 1, 57, 70
3, 89276, Note_off_c, 1, 57, 100
3, 89280, Note_on_c, 1, 53, 70
3, 89372, Note_off_c, 1, 53, 100
3, 89376, Note_on_c, 1, 52, 70
3, 89468, Note_off_c, 1, 52, 100
3, 89472, Note_on_c, 1, 50, 70
3, 89564, Note_off_c, 1, 50, 100
3, 89568, Note_on_c, 1, 53, 70
3, 89660, Note_off_c, 1, 53, 100
3, 89664, Note_on_c, 1, 50, 70
3, 89756, Note_off_c, 1, 50, 100
3, 89760, Note_on_c, 1, 48, 70
3, 89852, Note_off_c, 1, 48, 100
3, 89856, Note_on_c, 1, 47, 70
3, 90044, Note_off_c, 1, 47, 100
3, 90144, Note_on_c, 1, 40, 70
3, 90236, Note_off_c, 1, 40, 100
3, 90240, Note_on_c, 1, 42, 70
3, 90332, Note_off_c, 1, 42, 100
3, 90336, Note_on_c, 1, 44, 70
3, 90428, Note_off_c, 1, 44, 100
3, 90432, Note_on_c, 1, 45, 70
3, 90620, Note_off_c, 1, 45, 100
3, 90720, Note_on_c, 1, 33, 70
3, 90812, Note_off_c, 1, 33, 100
3, 90816, Note_on_c, 1, 35, 70
3, 90908, Note_off_c, 1, 35, 100
3, 90912, Note_on_c, 1, 36, 70
3, 91004, Note_off_c, 1, 36, 100
3, 91008, Note_on_c, 1, 38, 70
3, 91196, Note_off_c, 1, 38, 100
3, 91296, Note_on_c, 1, 38, 70
3, 91388, Note_off_c, 1, 38, 100
3, 91392, Note_on_c, 1, 40, 70
3, 91484, Note_off_c, 1, 40, 100
3, 91488, Note_on_c, 1, 42, 70
3, 91580, Note_off_c, 1, 42, 100
3, 91584, Note_on_c, 1, 43, 70
3, 91584, Note_on_c, 1, 31, 70
3, 91964, Note_off_c, 1, 43, 100
3, 91964, Note_off_c, 1, 31, 100
3, 93120, Note_on_c, 1, 43, 100
3, 93120, Note_on_c, 1, 38, 100
3, 93120, Note_on_c, 1, 35, 100
3, 93120, Note_on_c, 1, 31, 100
3, 93308, Note_off_c, 1, 43, 100
3, 93308, Note_off_c, 1, 38, 100
3, 93308, Note_off_c, 1, 35, 100
3, 93308, Note_off_c, 1, 31, 100
3, 94272, Note_on_c, 1, 43, 100
3, 94272, Note_on_c, 1, 38, 100
3, 94272, Note_on_c, 1, 35, 100
3, 94272, Note_on_c, 1, 31, 100
3, 94460, Note_off_c, 1, 43, 100
3, 94460, Note_off_c, 1, 38, 100
3, 94460, Note_off_c, 1, 35, 100
3, 94460, Note_off_c, 1, 31, 100
3, 95424, Note_on_c, 1, 55, 100
3, 95424, Note_on_c, 1, 50, 100
3, 95424, Note_on_c, 1, 47, 100
3, 95424, Note_on_c, 1, 43, 100
3, 95612, Note_off_c, 1, 55, 100
3, 95612, Note_off_c, 1, 50, 100
3, 95612, Note_off_c, 1, 47, 100
3, 95612, Note_off_c, 1, 43, 100
3, 96000, Note_on_c, 1, 55, 100
3, 96000, Note_on_c, 1, 50, 100
3, 96000, Note_on_c, 1, 47, 100
3, 96000, Note_on_c, 1, 43, 100
3, 96188, Note_off_c, 1, 55, 100
3, 96188, Note_off_c, 1, 50, 100
3, 96188, Note_off_c, 1, 47, 100
3, 96188, Note_off_c, 1, 43, 100
3, 96576, Note_on_c, 1, 55, 100
3, 96576, Note_on_c, 1, 50, 100
3, 96576, Note_on_c, 1, 47, 100
3, 96576, Note_on_c, 1, 43, 100
3, 96764, Note_off_c, 1, 55, 100
3, 96764, Note_off_c, 1, 50, 100
3, 96764, Note_off_c, 1, 47, 100
3, 96764, Note_off_c, 1, 43, 100
3, 96960, Note_on_c, 1, 67, 81
3, 97052, Note_off_c, 1, 67, 100
3, 97056, Note_on_c, 1, 65, 82
3, 97148, Note_off_c, 1, 65, 100
3, 97152, Note_on_c, 1, 64, 83
3, 97244, Note_off_c, 1, 64, 100
3, 97248, Note_on_c, 1, 67, 84
3, 97340, Note_off_c, 1, 67, 100
3, 97344, Note_on_c, 1, 64, 85
3, 97436, Note_off_c, 1, 64, 100
3, 97440, Note_on_c, 1, 62, 86
3, 97532, Note_off_c, 1, 62, 100
3, 97536, Note_on_c, 1, 60, 86
3, 97628, Note_off_c, 1, 60, 100
3, 97632, Note_on_c, 1, 64, 87
3, 97724, Note_off_c, 1, 64, 100
3, 97728, Note_on_c, 1, 60, 88
3, 97820, Note_off_c, 1, 60, 100
3, 97824, Note_on_c, 1, 59, 89
3, 97916, Note_off_c, 1, 59, 100
3, 97920, Note_on_c, 1, 57, 90
3, 98012, Note_off_c, 1, 57, 100
3, 98016, Note_on_c, 1, 60, 91
3, 98108, Note_off_c, 1, 60, 100
3, 98112, Note_on_c, 1, 57, 92
3, 98204, Note_off_c, 1, 57, 100
3, 98208, Note_on_c, 1, 55, 93
3, 98300, Note_off_c, 1, 55, 100
3, 98304, Note_on_c, 1, 53, 93
3, 98396, Note_off_c, 1, 53, 100
3, 98400, Note_on_c, 1, 57, 94
3, 98492, Note_off_c, 1, 57, 100
3, 98496, Note_on_c, 1, 53, 95
3, 98588, Note_off_c, 1, 53, 100
3, 98592, Note_on_c, 1, 52, 96
3, 98684, Note_off_c, 1, 52, 100
3, 98688, Note_on_c, 1, 50, 97
3, 98780, Note_off_c, 1, 50, 100
3, 98784, Note_on_c, 1, 48, 98
3, 98876, Note_off_c, 1, 48, 100
3, 98880, Note_on_c, 1, 47, 99
3, 98972, Note_off_c, 1, 47, 100
3, 98976, Note_on_c, 1, 50, 99
3, 99068, Note_off_c, 1, 50, 100
3, 99072, Note_on_c, 1, 48, 80
3, 99260, Note_off_c, 1, 48, 100
3, 99360, Note_on_c, 1, 36, 80
3, 99452, Note_off_c, 1, 36, 100
3, 99456, Note_on_c, 1, 38, 80
3, 99548, Note_off_c, 1, 38, 100
3, 99552, Note_on_c, 1, 40, 80
3, 99644, Note_off_c, 1, 40, 100
3, 99648, Note_on_c, 1, 41, 80
3, 99836, Note_off_c, 1, 41, 100
3, 99936, Note_on_c, 1, 38, 80
3, 100028, Note_off_c, 1, 38, 100
3, 100032, Note_on_c, 1, 40, 80
3, 100124, Note_off_c, 1, 40, 100
3, 100128, Note_on_c, 1, 41, 80
3, 100220, Note_off_c, 1, 41, 100
3, 100224, Note_on_c, 1, 43, 80
3, 100412, Note_off_c, 1, 43, 100
3, 100512, Note_on_c, 1, 31, 80
3, 100604, Note_off_c, 1, 31, 100
3, 100608, Note_on_c, 1, 33, 80
3, 100700, Note_off_c, 1, 33, 100
3, 100704, Note_on_c, 1, 35, 80
3, 100796, Note_off_c, 1, 35, 100
3, 100800, Note_on_c, 1, 36, 80
3, 101180, Note_off_c, 1, 36, 100
3, 102336, Note_on_c, 1, 43, 100
3, 102336, Note_on_c, 1, 38, 100
3, 102336, Note_on_c, 1, 35, 100
3, 102336, Note_on_c, 1, 31, 100
3, 102524, Note_off_c, 1, 43, 100
3, 102524, Note_off_c, 1, 38, 100
3, 102524, Note_off_c, 1, 35, 100
3, 102524, Note_off_c, 1, 31, 100
3, 103488, Note_on_c, 1, 43, 100
3, 103488, Note_on_c, 1, 38, 100
3, 103488, Note_on_c, 1, 35, 100
3, 103488, Note_on_c, 1, 31, 100
3, 103676, Note_off_c, 1, 43, 100
3, 103676, Note_off_c, 1, 38, 100
3, 103676, Note_off_c, 1, 35, 100
3, 103676, Note_off_c, 1, 31, 100
3, 104640, Note_on_c, 1, 55, 100
3, 104640, Note_on_c, 1, 50, 100
3, 104640, Note_on_c, 1, 47, 100
3, 104640, Note_on_c, 1, 43, 100
3, 104828, Note_off_c, 1, 55, 100
3, 104828, Note_off_c, 1, 50, 100
3, 104828, Note_off_c, 1, 47, 100
3, 104828, Note_off_c, 1, 43, 100
3, 105216, Note_on_c, 1, 55, 100
3, 105216, Note_on_c, 1, 50, 100
3, 105216, Note_on_c, 1, 47, 100
3, 105216, Note_on_c, 1, 43, 100
3, 105404, Note_off_c, 1, 55, 100
3, 105404, Note_off_c, 1, 50, 100
3, 105404, Note_off_c, 1, 47, 100
3, 105404, Note_off_c, 1, 43, 100
3, 105792, Note_on_c, 1, 55, 100
3, 105792, Note_on_c, 1, 50, 100
3, 105792, Note_on_c, 1, 47, 100
3, 105792, Note_on_c, 1, 43, 100
3, 105980, Note_off_c, 1, 55, 100
3, 105980, Note_off_c, 1, 50, 100
3, 105980, Note_off_c, 1, 47, 100
3, 105980, Note_off_c, 1, 43, 100
3, 106176, Note_on_c, 1, 67, 80
3, 106268, Note_off_c, 1, 67, 100
3, 106272, Note_on_c, 1, 65, 80
3, 106364, Note_off_c, 1, 65, 100
3, 106368, Note_on_c, 1, 63, 80
3, 106460, Note_off_c, 1, 63, 100
3, 106464, Note_on_c, 1, 67, 80
3, 106556, Note_off_c, 1, 67, 100
3, 106560, Note_on_c, 1, 63, 80
3, 106652, Note_off_c, 1, 63, 100
3, 106656, Note_on_c, 1, 62, 80
3, 106748, Note_off_c, 1, 62, 100
3, 106752, Note_on_c, 1, 60, 80
3, 106844, Note_off_c, 1, 60, 100
3, 106848, Note_on_c, 1, 63, 80
3, 106940, Note_off_c, 1, 63, 100
3, 106944, Note_on_c, 1, 60, 80
3, 107036, Note_off_c, 1, 60, 100
3, 107040, Note_on_c, 1, 58, 80
3, 107132, Note_off_c, 1, 58, 100
3, 107136, Note_on_c, 1, 56, 80
3, 107228, Note_off_c, 1, 56, 100
3, 107232, Note_on_c, 1, 60, 80
3, 107324, Note_off_c, 1, 60, 100
3, 107328, Note_on_c, 1, 56, 80
3, 107420, Note_off_c, 1, 56, 100
3, 107424, Note_on_c, 1, 55, 80
3, 107516, Note_off_c, 1, 55, 100
3, 107520, Note_on_c, 1, 53, 80
3, 107612, Note_off_c, 1, 53, 100
3, 107616, Note_on_c, 1, 56, 80
3, 107708, Note_off_c, 1, 56, 100
3, 107712, Note_on_c, 1, 53, 80
3, 107804, Note_off_c, 1, 53, 100
3, 107808, Note_on_c, 1, 51, 80
3, 107900, Note_off_c, 1, 51, 100
3, 107904, Note_on_c, 1, 50, 80
3, 107996, Note_off_c, 1, 50, 100
3, 108000, Note_on_c, 1, 53, 80
3, 108092, Note_off_c, 1, 53, 100
3, 108096, Note_on_c, 1, 50, 80
3, 108188, Note_off_c, 1, 50, 100
3, 108192, Note_on_c, 1, 48, 80
3, 108284, Note_off_c, 1, 48, 100
3, 108288, Note_on_c, 1, 46, 80
3, 108380, Note_off_c, 1, 46, 100
3, 108384, Note_on_c, 1, 56, 81
3, 108476, Note_off_c, 1, 56, 100
3, 108480, Note_on_c, 1, 53, 82
3, 108572, Note_off_c, 1, 53, 100
3, 108576, Note_on_c, 1, 51, 83
3, 108668, Note_off_c, 1, 51, 100
3, 108672, Note_on_c, 1, 50, 85
3, 108764, Note_off_c, 1, 50, 100
3, 108768, Note_on_c, 1, 53, 86
3, 108860, Note_off_c, 1, 53, 100
3, 108864, Note_on_c, 1, 50, 87
3, 108956, Note_off_c, 1, 50, 100
3, 108960, Note_on_c, 1, 48, 89
3, 109052, Note_off_c, 1, 48, 100
3, 109056, Note_on_c, 1, 46, 90
3, 109148, Note_off_c, 1, 46, 100
3, 109152, Note_on_c, 1, 53, 91
3, 109244, Note_off_c, 1, 53, 100
3, 109248, Note_on_c, 1, 50, 93
3, 109340, Note_off_c, 1, 50, 100
3, 109344, Note_on_c, 1, 48, 94
3, 109436, Note_off_c, 1, 48, 100
3, 109440, Note_on_c, 1, 46, 95
3, 109532, Note_off_c, 1, 46, 100
3, 109536, Note_on_c, 1, 53, 96
3, 109628, Note_off_c, 1, 53, 100
3, 109632, Note_on_c, 1, 50, 98
3, 109724, Note_off_c, 1, 50, 100
3, 109728, Note_on_c, 1, 48, 99
3, 109820, Note_off_c, 1, 48, 100
3, 109824, Note_on_c, 1, 46, 100
3, 109916, Note_off_c, 1, 46, 100
3, 109920, Note_on_c, 1, 53, 102
3, 110012, Note_off_c, 1, 53, 100
3, 110016, Note_on_c, 1, 50, 103
3, 110108, Note_off_c, 1, 50, 100
3, 110112, Note_on_c, 1, 48, 104
3, 110204, Note_off_c, 1, 48, 100
3, 110208, Note_on_c, 1, 46, 106
3, 110300, Note_off_c, 1, 46, 100
3, 110304, Note_on_c, 1, 53, 107
3, 110396, Note_off_c, 1, 53, 100
3, 110400, Note_on_c, 1, 50, 108
3, 110492, Note_off_c, 1, 50, 100
3, 110496, Note_on_c, 1, 48, 109
3, 110588, Note_off_c, 1, 48, 100
3, 110592, Note_on_c, 1, 46, 110
3, 110684, Note_off_c, 1, 46, 100
3, 110688, Note_on_c, 1, 48, 110
3, 110780, Note_off_c, 1, 48, 100
3, 110784, Note_on_c, 1, 50, 110
3, 110876, Note_off_c, 1, 50, 100
3, 110880, Note_on_c, 1, 51, 110
3, 110972, Note_off_c, 1, 51, 100
3, 110976, Note_on_c, 1, 53, 110
3, 111068, Note_off_c, 1, 53, 100
3, 111072, Note_on_c, 1, 55, 110
3, 111164, Note_off_c, 1, 55, 100
3, 111168, Note_on_c, 1, 56, 110
3, 111260, Note_off_c, 1, 56, 100
3, 111264, Note_on_c, 1, 58, 110
3, 111356, Note_off_c, 1, 58, 100
3, 111360, Note_on_c, 1, 60, 110
3, 111452, Note_off_c, 1, 60, 100
3, 111456, Note_on_c, 1, 61, 110
3, 111548, Note_off_c, 1, 61, 100
3, 111552, Note_on_c, 1, 62, 110
3, 111644, Note_off_c, 1, 62, 100
3, 111648, Note_on_c, 1, 63, 110
3, 111740, Note_off_c, 1, 63, 100
3, 111744, Note_on_c, 1, 65, 110
3, 111744, Note_on_c, 1, 58, 110
3, 112892, Note_off_c, 1, 65, 100
3, 112892, Note_off_c, 1, 58, 100
3, 112896, Key_signature, -3, "major"
3, 113760, Note_on_c, 1, 46, 70
3, 113852, Note_off_c, 1, 46, 100
3, 113856, Note_on_c, 1, 48, 70
3, 113948, Note_off_c, 1, 48, 100
3, 113952, Note_on_c, 1, 50, 70
3, 114044, Note_off_c, 1, 50, 100
3, 114048, Note_on_c, 1, 51, 70
3, 114140, Note_off_c, 1, 51, 100
3, 114144, Note_on_c, 1, 53, 70
3, 114236, Note_off_c, 1, 53, 100
3, 114240, Note_on_c, 1, 55, 70
3, 114332, Note_off_c, 1, 55, 100
3, 114336, Note_on_c, 1, 51, 70
3, 114428, Note_off_c, 1, 51, 100
3, 114432, Note_on_c, 1, 56, 70
3, 114620, Note_off_c, 1, 56, 100
3, 115200, Note_on_c, 1, 56, 70
3, 115292, Note_off_c, 1, 56, 100
3, 115296, Note_on_c, 1, 55, 70
3, 115388, Note_off_c, 1, 55, 100
3, 115392, Note_on_c, 1, 53, 70
3, 115484, Note_off_c, 1, 53, 100
3, 115488, Note_on_c, 1, 51, 70
3, 115580, Note_off_c, 1, 51, 100
3, 115584, Note_on_c, 1, 50, 70
3, 115676, Note_off_c, 1, 50, 100
3, 115680, Note_on_c, 1, 48, 70
3, 115772, Note_off_c, 1, 48, 100
3, 115776, Note_on_c, 1, 46, 70
3, 115868, Note_off_c, 1, 46, 100
3, 115872, Note_on_c, 1, 50, 70
3, 115964, Note_off_c, 1, 50, 100
3, 115968, Note_on_c, 1, 51, 70
3, 116156, Note_off_c, 1, 51, 100
3, 116832, Note_on_c, 1, 46, 70
3, 116924, Note_off_c, 1, 46, 100
3, 116928, Note_on_c, 1, 48, 70
3, 117020, Note_off_c, 1, 48, 100
3, 117024, Note_on_c, 1, 50, 70
3, 117116, Note_off_c, 1, 50, 100
3, 117120, Note_on_c, 1, 51, 70
3, 117212, Note_off_c, 1, 51, 100
3, 117216, Note_on_c, 1, 53, 70
3, 117308, Note_off_c, 1, 53, 100
3, 117312, Note_on_c, 1, 55, 70
3, 117404, Note_off_c, 1, 55, 100
3, 117408, Note_on_c, 1, 51, 70
3, 117500, Note_off_c, 1, 51, 100
3, 117504, Note_on_c, 1, 56, 70
3, 117596, Note_off_c, 1, 56, 100
3, 117600, Note_on_c, 1, 53, 70
3, 117692, Note_off_c, 1, 53, 100
3, 117696, Note_on_c, 1, 50, 70
3, 117788, Note_off_c, 1, 50, 100
3, 117792, Note_on_c, 1, 46, 70
3, 117884, Note_off_c, 1, 46, 100
3, 117888, Note_on_c, 1, 44, 70
3, 117980, Note_off_c, 1, 44, 100
3, 117984, Note_on_c, 1, 41, 70
3, 118076, Note_off_c, 1, 41, 100
3, 118080, Note_on_c, 1, 38, 70
3, 118172, Note_off_c, 1, 38, 100
3, 118176, Note_on_c, 1, 34, 70
3, 118268, Note_off_c, 1, 34, 100
3, 118272, Note_on_c, 1, 39, 70
3, 118652, Note_off_c, 1, 39, 100
3, 118656, Note_on_c, 1, 51, 70
3, 118844, Note_off_c, 1, 51, 100
3, 119040, Note_on_c, 1, 58, 70
3, 119040, Note_on_c, 1, 46, 70
3, 119040, Note_on_c, 1, 55, 70
3, 119420, Note_off_c, 1, 58, 100
3, 119420, Note_off_c, 1, 46, 100
3, 119420, Note_off_c, 1, 55, 100
3, 119424, Note_on_c, 1, 58, 70
3, 119424, Note_on_c, 1, 55, 70
3, 119424, Note_on_c, 1, 46, 70
3, 119804, Note_off_c, 1, 58, 100
3, 119804, Note_off_c, 1, 55, 100
3, 119804, Note_off_c, 1, 46, 100
3, 119808, Note_on_c, 1, 51, 70
3, 119808, Note_on_c, 1, 46, 70
3, 119808, Note_on_c, 1, 55, 70
3, 120572, Note_off_c, 1, 51, 100
3, 120572, Note_off_c, 1, 46, 100
3, 120572, Note_off_c, 1, 55, 100
3, 120576, Note_on_c, 1, 53, 70
3, 120576, Note_on_c, 1, 50, 70
3, 120576, Note_on_c, 1, 46, 70
3, 120956, Note_off_c, 1, 53, 100
3, 120956, Note_off_c, 1, 50, 100
3, 120956, Note_off_c, 1, 46, 100
3, 120960, Note_on_c, 1, 53, 70
3, 120960, Note_on_c, 1, 50, 70
3, 120960, Note_on_c, 1, 46, 70
3, 121340, Note_off_c, 1, 53, 100
3, 121340, Note_off_c, 1, 50, 100
3, 121340, Note_off_c, 1, 46, 100
3, 121344, Note_on_c, 1, 58, 70
3, 121344, Note_on_c, 1, 56, 70
3, 121344, Note_on_c, 1, 53, 70
3, 121344, Note_on_c, 1, 46, 70
3, 122108, Note_off_c, 1, 58, 100
3, 122108, Note_off_c, 1, 56, 100
3, 122108, Note_off_c, 1, 53, 100
3, 122108, Note_off_c, 1, 46, 100
3, 122112, Note_on_c, 1, 58, 70
3, 122112, Note_on_c, 1, 46, 70
3, 122112, Note_on_c, 1, 55, 70
3, 122492, Note_off_c, 1, 58, 100
3, 122492, Note_off_c, 1, 46, 100
3, 122492, Note_off_c, 1, 55, 100
3, 122496, Note_on_c, 1, 58, 70
3, 122496, Note_on_c, 1, 55, 70
3, 122496, Note_on_c, 1, 46, 70
3, 122876, Note_off_c, 1, 58, 100
3, 122876, Note_off_c, 1, 55, 100
3, 122876, Note_off_c, 1, 46, 100
3, 122880, Note_on_c, 1, 51, 70
3, 122880, Note_on_c, 1, 46, 70
3, 122880, Note_on_c, 1, 55, 70
3, 123644, Note_off_c, 1, 51, 100
3, 123644, Note_off_c, 1, 46, 100
3, 123644, Note_off_c, 1, 55, 100
3, 123648, Note_on_c, 1, 53, 70
3, 123648, Note_on_c, 1, 50, 70
3, 123648, Note_on_c, 1, 46, 70
3, 123836, Note_off_c, 1, 53, 100
3, 123836, Note_off_c, 1, 50, 100
3, 123836, Note_off_c, 1, 46, 100
3, 123840, Note_on_c, 1, 58, 70
3, 124220, Note_off_c, 1, 58, 100
3, 124224, Note_on_c, 1, 58, 70
3, 124224, Note_on_c, 1, 46, 70
3, 124412, Note_off_c, 1, 58, 100
3, 124412, Note_off_c, 1, 46, 100
3, 124416, Note_on_c, 1, 51, 70
3, 124416, Note_on_c, 1, 43, 70
3, 124796, Note_off_c, 1, 51, 100
3, 124796, Note_off_c, 1, 43, 100
3, 126048, Note_on_c, 1, 34, 70
3, 126140, Note_off_c, 1, 34, 100
3, 126144, Note_on_c, 1, 46, 70
3, 126236, Note_off_c, 1, 46, 100
3, 126240, Note_on_c, 1, 48, 70
3, 126332, Note_off_c, 1, 48, 100
3, 126336, Note_on_c, 1, 50, 70
3, 126428, Note_off_c, 1, 50, 100
3, 126432, Note_on_c, 1, 51, 70
3, 126524, Note_off_c, 1, 51, 100
3, 126528, Note_on_c, 1, 53, 70
3, 126620, Note_off_c, 1, 53, 100
3, 126624, Note_on_c, 1, 55, 70
3, 126716, Note_off_c, 1, 55, 100
3, 126720, Note_on_c, 1, 57, 70
3, 126908, Note_off_c, 1, 57, 100
3, 126912, Note_on_c, 1, 58, 73
3, 127580, Note_off_c, 1, 58, 100
3, 127584, Note_on_c, 1, 34, 84
3, 127676, Note_off_c, 1, 34, 100
3, 127680, Note_on_c, 1, 46, 86
3, 127772, Note_off_c, 1, 46, 100
3, 127776, Note_on_c, 1, 48, 88
3, 127868, Note_off_c, 1, 48, 100
3, 127872, Note_on_c, 1, 50, 89
3, 127964, Note_off_c, 1, 50, 100
3, 127968, Note_on_c, 1, 51, 91
3, 128060, Note_off_c, 1, 51, 100
3, 128064, Note_on_c, 1, 53, 93
3, 128156, Note_off_c, 1, 53, 100
3, 128160, Note_on_c, 1, 55, 94
3, 128252, Note_off_c, 1, 55, 100
3, 128256, Note_on_c, 1, 57, 96
3, 128444, Note_off_c, 1, 57, 100
3, 128448, Note_on_c, 1, 58, 99
3, 129212, Note_off_c, 1, 58, 100
3, 129216, Note_on_c, 1, 59, 110
3, 129404, Note_off_c, 1, 59, 100
3, 129408, Note_on_c, 1, 60, 110
3, 129596, Note_off_c, 1, 60, 100
3, 129600, Note_on_c, 1, 55, 110
3, 129788, Note_off_c, 1, 55, 100
3, 129792, Note_on_c, 1, 56, 100
3, 129980, Note_off_c, 1, 56, 100
3, 129984, Note_on_c, 1, 57, 91
3, 130172, Note_off_c, 1, 57, 100
3, 130176, Note_on_c, 1, 58, 81
3, 130368, Note_on_c, 1, 46, 71
3, 130556, Note_off_c, 1, 46, 100
3, 130560, Note_on_c, 1, 51, 70
3, 130748, Note_off_c, 1, 58, 100
3, 130752, Note_on_c, 1, 62, 70
3, 130940, Note_off_c, 1, 62, 100
3, 130944, Note_on_c, 1, 63, 70
3, 131132, Note_off_c, 1, 51, 100
3, 131132, Note_off_c, 1, 63, 100
3, 131328, Note_on_c, 1, 56, 70
3, 131328, Note_on_c, 1, 53, 70
3, 131708, Note_off_c, 1, 56, 100
3, 131708, Note_off_c, 1, 53, 100
3, 131712, Note_on_c, 1, 56, 70
3, 131712, Note_on_c, 1, 53, 70
3, 132092, Note_off_c, 1, 56, 100
3, 132092, Note_off_c, 1, 53, 100
3, 132096, Note_on_c, 1, 62, 70
3, 132096, Note_on_c, 1, 56, 70
3, 132096, Note_on_c, 1, 53, 70
3, 132860, Note_off_c, 1, 62, 100
3, 132860, Note_off_c, 1, 56, 100
3, 132860, Note_off_c, 1, 53, 100
3, 132864, Note_on_c, 1, 62, 70
3, 132864, Note_on_c, 1, 50, 70
3, 133244, Note_off_c, 1, 62, 100
3, 133244, Note_off_c, 1, 50, 100
3, 133248, Note_on_c, 1, 50, 76
3, 133248, Note_on_c, 1, 62, 76
3, 133628, Note_off_c, 1, 50, 100
3, 133628, Note_off_c, 1, 62, 100
3, 133632, Note_on_c, 1, 65, 83
3, 133632, Note_on_c, 1, 62, 83
3, 133632, Note_on_c, 1, 56, 83
3, 133632, Note_on_c, 1, 53, 83
3, 134396, Note_off_c, 1, 65, 100
3, 134396, Note_off_c, 1, 62, 100
3, 134396, Note_off_c, 1, 56, 100
3, 134396, Note_off_c, 1, 53, 100
3, 134400, Note_on_c, 1, 65, 96
3, 134400, Note_on_c, 1, 62, 96
3, 134400, Note_on_c, 1, 53, 96
3, 134780, Note_off_c, 1, 65, 100
3, 134780, Note_off_c, 1, 62, 100
3, 134780, Note_off_c, 1, 53, 100
3, 134784, Note_on_c, 1, 65, 110
3, 134784, Note_on_c, 1, 62, 110
3, 134784, Note_on_c, 1, 53, 110
3, 135164, Note_off_c, 1, 65, 100
3, 135164, Note_off_c, 1, 62, 100
3, 135164, Note_off_c, 1, 53, 100
3, 135168, Note_on_c, 1, 65, 110
3, 135168, Note_on_c, 1, 62, 110
3, 135168, Note_on_c, 1, 68, 110
3, 135548, Note_off_c, 1, 65, 100
3, 135548, Note_off_c, 1, 62, 100
3, 135552, Note_on_c, 1, 63, 110
3, 135740, Note_off_c, 1, 68, 100
3, 135740, Note_off_c, 1, 63, 100
3, 135744, Note_on_c, 1, 67, 110
3, 135744, Note_on_c, 1, 59, 110
3, 135932, Note_off_c, 1, 67, 100
3, 135932, Note_off_c, 1, 59, 100
3, 135936, Note_on_c, 1, 67, 100
3, 135936, Note_on_c, 1, 60, 100
3, 136124, Note_off_c, 1, 67, 100
3, 136124, Note_off_c, 1, 60, 100
3, 136128, Note_on_c, 1, 65, 91
3, 136128, Note_on_c, 1, 57, 91
3, 136316, Note_off_c, 1, 65, 100
3, 136316, Note_off_c, 1, 57, 100
3, 136320, Note_on_c, 1, 63, 81
3, 136320, Note_on_c, 1, 58, 81
3, 136508, Note_off_c, 1, 63, 100
3, 136508, Note_off_c, 1, 58, 100
3, 136512, Note_on_c, 1, 62, 71
3, 136512, Note_on_c, 1, 58, 71
3, 136700, Note_off_c, 1, 62, 100
3, 136700, Note_off_c, 1, 58, 100
3, 136704, Note_on_c, 1, 65, 70
3, 136704, Note_on_c, 1, 58, 70
3, 137084, Note_off_c, 1, 65, 100
3, 137084, Note_off_c, 1, 58, 100
3, 137088, Note_on_c, 1, 63, 70
3, 137088, Note_on_c, 1, 51, 70
3, 137276, Note_off_c, 1, 63, 100
3, 137276, Note_off_c, 1, 51, 100
3, 138240, Note_on_c, 1, 51, 70
3, 138620, Note_off_c, 1, 51, 100
3, 138624, Note_on_c, 1, 39, 70
3, 139004, Note_off_c, 1, 39, 100
3, 139776, Note_on_c, 1, 51, 70
3, 140156, Note_off_c, 1, 51, 100
3, 140160, Note_on_c, 1, 39, 70
3, 140540, Note_off_c, 1, 39, 100
3, 141312, Note_on_c, 1, 51, 70
3, 141692, Note_off_c, 1, 51, 100
3, 141696, Note_on_c, 1, 39, 70
3, 142076, Note_off_c, 1, 39, 100
3, 142464, Note_on_c, 1, 51, 70
3, 142652, Note_off_c, 1, 51, 100
3, 142656, Note_on_c, 1, 39, 70
3, 142844, Note_off_c, 1, 39, 100
3, 143232, Note_on_c, 1, 51, 70
3, 143420, Note_off_c, 1, 51, 100
3, 143424, Note_on_c, 1, 39, 70
3, 143612, Note_off_c, 1, 39, 100
3, 144000, Note_on_c, 1, 51, 70
3, 144188, Note_off_c, 1, 51, 100
3, 144192, Note_on_c, 1, 39, 70
3, 144380, Note_off_c, 1, 39, 100
3, 144768, Note_on_c, 1, 51, 70
3, 144956, Note_off_c, 1, 51, 100
3, 144960, Note_on_c, 1, 39, 70
3, 145148, Note_off_c, 1, 39, 100
3, 145536, Note_on_c, 1, 51, 70
3, 145724, Note_off_c, 1, 51, 100
3, 145728, Note_on_c, 1, 39, 70
3, 145916, Note_off_c, 1, 39, 100
3, 147072, Note_on_c, 1, 51, 70
3, 147260, Note_off_c, 1, 51, 100
3, 147264, Note_on_c, 1, 39, 70
3, 147452, Note_off_c, 1, 39, 100
3, 148992, Note_on_c, 1, 39, 70
3, 151292, Note_off_c, 1, 39, 100
3, 151292, End_track
0, 0, End_of_file
