0, 0, Header, 1, 3, 384
1, 0, Start_track
1, 0, Title_t, "L.v.Beethoven 2mov - Piano Sonata No.14 in C# minor Op.27-2\000"
1, 0, Copyright_t, "Copyright(C) 1995-2009, Suzuki Software\000"
1, 0, Sequencer_specific, 9, 67, 123, 0, 88, 70, 48, 50, 0, 1
1, 0, Text_t, "XFhd:2000/06/09:JP:Classical::::L.v.Beethoven:::Kaoru Suzuki\000"
1, 0, Text_t, "XFln:JP:\203s\203A\203m\203\\\203i\203^\221æ14\224Ô\211d\203n\222Z\222²\215ì\225i27-2\201`\221æ2\212y\217Í:L.v.\203x\201[\203g\201[\203\224\203F\203\223:::\227é\202¿\202á\202ñ:\227é\202¿\202á\202ñ\000"
1, 0, Time_signature, 3, 2, 96, 8
1, 0, Sequencer_specific, 3, 0, 0, 65
1, 0, Sequencer_specific, 5, 0, 0, 119, 14, 0
1, 0, Tempo, 267857
1, 18048, Tempo, 285714
1, 18432, Tempo, 300000
1, 19008, Tempo, 267857
1, 24960, Tempo, 285714
1, 25728, Tempo, 267857
1, 26880, Tempo, 285714
1, 28416, Tempo, 267857
1, 37632, Tempo, 272727
1, 38400, Tempo, 285714
1, 39168, Tempo, 300000
1, 42240, Tempo, 267857
1, 49920, Tempo, 285714
1, 51456, Tempo, 267857
1, 60672, Tempo, 272727
1, 61440, Tempo, 285714
1, 62208, Tempo, 300000
1, 63360, Tempo, 279069
1, 82560, Tempo, 285714
1, 82944, Tempo, 300000
1, 83328, Tempo, 333333
1, 83712, Tempo, 285714
1, 90240, Tempo, 279069
1, 100224, Tempo, 285714
1, 101376, Tempo, 333333
1, 102144, Tempo, 300000
1, 102528, Tempo, 285714
1, 109824, Tempo, 279069
1, 118272, Tempo, 285714
1, 119040, Tempo, 300000
1, 119808, Tempo, 333333
1, 120576, Tempo, 267857
1, 137856, Tempo, 272727
1, 138240, Tempo, 285714
1, 139392, Tempo, 267857
1, 145920, Tempo, 272727
1, 146304, Tempo, 285714
1, 148224, Tempo, 267857
1, 157440, Tempo, 272727
1, 158208, Tempo, 285714
1, 160128, Tempo, 300000
1, 161280, Tempo, 333333
1, 162048, Tempo, 267857
1, 168960, Tempo, 272727
1, 169728, Tempo, 285714
1, 171264, Tempo, 267857
1, 180480, Tempo, 272727
1, 181248, Tempo, 285714
1, 182016, Tempo, 300000
1, 182400, Tempo, 333333
1, 183936, Tempo, 375000
1, 184128, Tempo, 600000
1, 184128, End_track
2, 0, Start_track
2, 0, Title_t, "Right"
2, 0, Control_c, 0, 0, 0
2, 0, Program_c, 0, 0
2, 0, Control_c, 0, 7, 100
2, 0, Control_c, 0, 10, 75
2, 0, Control_c, 0, 91, 127
2, 0, Key_signature, -5, "major"
2, 768, Note_on_c, 0, 68, 80
2, 768, Note_on_c, 0, 73, 80
2, 1148, Note_off_c, 0, 68, 100
2, 1148, Note_off_c, 0, 73, 100
2, 1152, Note_on_c, 0, 68, 80
2, 1152, Note_on_c, 0, 72, 80
2, 1916, Note_off_c, 0, 68, 100
2, 1916, Note_off_c, 0, 72, 100
2, 1920, Note_on_c, 0, 67, 80
2, 1920, Note_on_c, 0, 70, 80
2, 2300, Note_off_c, 0, 67, 100
2, 2300, Note_off_c, 0, 70, 100
2, 2304, Note_on_c, 0, 68, 80
2, 2304, Note_on_c, 0, 75, 80
2, 2684, Note_off_c, 0, 68, 100
2, 2684, Note_off_c, 0, 75, 100
2, 3072, Note_on_c, 0, 65, 80
2, 3072, Note_on_c, 0, 73, 80
2, 3452, Note_off_c, 0, 65, 100
2, 3452, Note_off_c, 0, 73, 100
2, 3456, Note_on_c, 0, 68, 80
2, 3456, Note_on_c, 0, 72, 80
2, 3836, Note_off_c, 0, 68, 100
2, 3836, Note_off_c, 0, 72, 100
2, 4224, Note_on_c, 0, 70, 80
2, 4224, Note_on_c, 0, 67, 80
2, 4604, Note_off_c, 0, 70, 100
2, 4604, Note_off_c, 0, 67, 100
2, 4608, Note_on_c, 0, 68, 80
2, 4988, Note_off_c, 0, 68, 100
2, 5376, Note_on_c, 0, 73, 80
2, 5376, Note_on_c, 0, 78, 80
2, 5756, Note_off_c, 0, 73, 100
2, 5756, Note_off_c, 0, 78, 100
2, 5760, Note_on_c, 0, 73, 80
2, 5760, Note_on_c, 0, 77, 80
2, 6524, Note_off_c, 0, 73, 100
2, 6524, Note_off_c, 0, 77, 100
2, 6528, Note_on_c, 0, 72, 80
2, 6528, Note_on_c, 0, 75, 80
2, 6908, Note_off_c, 0, 72, 100
2, 6908, Note_off_c, 0, 75, 100
2, 6912, Note_on_c, 0, 73, 80
2, 6912, Note_on_c, 0, 80, 80
2, 7292, Note_off_c, 0, 73, 100
2, 7292, Note_off_c, 0, 80, 100
2, 7680, Note_on_c, 0, 70, 80
2, 7680, Note_on_c, 0, 78, 80
2, 8060, Note_off_c, 0, 70, 100
2, 8060, Note_off_c, 0, 78, 100
2, 8064, Note_on_c, 0, 77, 80
2, 8064, Note_on_c, 0, 73, 80
2, 8444, Note_off_c, 0, 77, 100
2, 8444, Note_off_c, 0, 73, 100
2, 8832, Note_on_c, 0, 72, 80
2, 8832, Note_on_c, 0, 75, 80
2, 9212, Note_off_c, 0, 72, 100
2, 9212, Note_off_c, 0, 75, 100
2, 9216, Note_on_c, 0, 73, 80
2, 9596, Note_off_c, 0, 73, 100
2, 9984, Note_on_c, 0, 61, 80
2, 9984, Note_on_c, 0, 73, 80
2, 10748, Note_off_c, 0, 61, 100
2, 10748, Note_off_c, 0, 73, 100
2, 10752, Note_on_c, 0, 60, 80
2, 10752, Note_on_c, 0, 72, 80
2, 11132, Note_off_c, 0, 60, 100
2, 11132, Note_off_c, 0, 72, 100
2, 11136, Note_on_c, 0, 70, 80
2, 11136, Note_on_c, 0, 58, 80
2, 11516, Note_off_c, 0, 58, 100
2, 11520, Note_on_c, 0, 63, 80
2, 11900, Note_off_c, 0, 70, 100
2, 11900, Note_off_c, 0, 63, 100
2, 11904, Note_on_c, 0, 75, 80
2, 12284, Note_off_c, 0, 75, 100
2, 12288, Note_on_c, 0, 73, 80
2, 12288, Note_on_c, 0, 65, 80
2, 12668, Note_off_c, 0, 65, 100
2, 12672, Note_on_c, 0, 68, 80
2, 13052, Note_off_c, 0, 73, 100
2, 13052, Note_off_c, 0, 68, 100
2, 13056, Note_on_c, 0, 72, 80
2, 13436, Note_off_c, 0, 72, 100
2, 13440, Note_on_c, 0, 70, 80
2, 13440, Note_on_c, 0, 67, 80
2, 13820, Note_off_c, 0, 67, 100
2, 14204, Note_off_c, 0, 70, 100
2, 14208, Note_on_c, 0, 68, 80
2, 14588, Note_off_c, 0, 68, 100
2, 14592, Note_on_c, 0, 66, 80
2, 14592, Note_on_c, 0, 78, 80
2, 15356, Note_off_c, 0, 66, 100
2, 15356, Note_off_c, 0, 78, 100
2, 15360, Note_on_c, 0, 65, 80
2, 15360, Note_on_c, 0, 77, 80
2, 15740, Note_off_c, 0, 65, 100
2, 15740, Note_off_c, 0, 77, 100
2, 15744, Note_on_c, 0, 63, 80
2, 15744, Note_on_c, 0, 75, 80
2, 16124, Note_off_c, 0, 63, 100
2, 16128, Note_on_c, 0, 68, 80
2, 16508, Note_off_c, 0, 75, 100
2, 16508, Note_off_c, 0, 68, 100
2, 16512, Note_on_c, 0, 80, 80
2, 16892, Note_off_c, 0, 80, 100
2, 16896, Note_on_c, 0, 70, 80
2, 16896, Note_on_c, 0, 78, 80
2, 17276, Note_off_c, 0, 70, 100
2, 17280, Note_on_c, 0, 73, 80
2, 17660, Note_off_c, 0, 78, 100
2, 17660, Note_off_c, 0, 73, 100
2, 17664, Note_on_c, 0, 77, 80
2, 18044, Note_off_c, 0, 77, 100
2, 18048, Note_on_c, 0, 72, 80
2, 18048, Note_on_c, 0, 75, 80
2, 18428, Note_off_c, 0, 72, 100
2, 18812, Note_off_c, 0, 75, 100
2, 18816, Note_on_c, 0, 73, 80
2, 19196, Note_off_c, 0, 73, 100
2, 19200, Note_on_c, 0, 65, 80
2, 19200, Note_on_c, 0, 73, 80
2, 19580, Note_off_c, 0, 65, 100
2, 19580, Note_off_c, 0, 73, 100
2, 19584, Note_on_c, 0, 65, 80
2, 19584, Note_on_c, 0, 73, 80
2, 20348, Note_off_c, 0, 65, 100
2, 20348, Note_off_c, 0, 73, 100
2, 20352, Note_on_c, 0, 65, 80
2, 20352, Note_on_c, 0, 73, 80
2, 20732, Note_off_c, 0, 65, 100
2, 20732, Note_off_c, 0, 73, 100
2, 20736, Note_on_c, 0, 63, 80
2, 20736, Note_on_c, 0, 73, 80
2, 21116, Note_off_c, 0, 73, 100
2, 21120, Note_on_c, 0, 72, 80
2, 21500, Note_off_c, 0, 63, 100
2, 21500, Note_off_c, 0, 72, 100
2, 21504, Note_on_c, 0, 63, 80
2, 21504, Note_on_c, 0, 71, 80
2, 21884, Note_off_c, 0, 63, 100
2, 21884, Note_off_c, 0, 71, 100
2, 21888, Note_on_c, 0, 63, 80
2, 21888, Note_on_c, 0, 71, 80
2, 22652, Note_off_c, 0, 63, 100
2, 22652, Note_off_c, 0, 71, 100
2, 22656, Note_on_c, 0, 63, 80
2, 22656, Note_on_c, 0, 71, 80
2, 23036, Note_off_c, 0, 63, 100
2, 23036, Note_off_c, 0, 71, 100
2, 23040, Note_on_c, 0, 61, 80
2, 23040, Note_on_c, 0, 71, 80
2, 23420, Note_off_c, 0, 71, 100
2, 23424, Note_on_c, 0, 70, 80
2, 23804, Note_off_c, 0, 61, 100
2, 23804, Note_off_c, 0, 70, 100
2, 23808, Note_on_c, 0, 61, 80
2, 23808, Note_on_c, 0, 70, 80
2, 24188, Note_off_c, 0, 61, 100
2, 24188, Note_off_c, 0, 70, 100
2, 24192, Note_on_c, 0, 66, 90
2, 24192, Note_on_c, 0, 72, 90
2, 24956, Note_off_c, 0, 66, 100
2, 24956, Note_off_c, 0, 72, 100
2, 24960, Note_on_c, 0, 65, 99
2, 24960, Note_on_c, 0, 73, 99
2, 25340, Note_off_c, 0, 65, 100
2, 25340, Note_off_c, 0, 73, 100
2, 25344, Note_on_c, 0, 66, 110
2, 25344, Note_on_c, 0, 75, 110
2, 26108, Note_off_c, 0, 66, 100
2, 26108, Note_off_c, 0, 75, 100
2, 26112, Note_on_c, 0, 63, 80
2, 26112, Note_on_c, 0, 66, 80
2, 26876, Note_off_c, 0, 63, 100
2, 26876, Note_off_c, 0, 66, 100
2, 26880, Note_on_c, 0, 61, 80
2, 26880, Note_on_c, 0, 65, 80
2, 27260, Note_off_c, 0, 61, 100
2, 27260, Note_off_c, 0, 65, 100
2, 27264, Note_on_c, 0, 70, 80
2, 27264, Note_on_c, 0, 58, 80
2, 27452, Note_off_c, 0, 70, 100
2, 27456, Note_on_c, 0, 66, 80
2, 27644, Note_off_c, 0, 58, 100
2, 27644, Note_off_c, 0, 66, 100
2, 27648, Note_on_c, 0, 61, 80
2, 27648, Note_on_c, 0, 65, 80
2, 28028, Note_off_c, 0, 61, 100
2, 28028, Note_off_c, 0, 65, 100
2, 28032, Note_on_c, 0, 60, 80
2, 28032, Note_on_c, 0, 63, 80
2, 28412, Note_off_c, 0, 60, 100
2, 28412, Note_off_c, 0, 63, 100
2, 28416, Note_on_c, 0, 61, 80
2, 28416, Note_on_c, 0, 73, 80
2, 28796, Note_off_c, 0, 61, 100
2, 28796, Note_off_c, 0, 73, 100
2, 28800, Note_on_c, 0, 60, 80
2, 28800, Note_on_c, 0, 72, 80
2, 29564, Note_off_c, 0, 60, 100
2, 29564, Note_off_c, 0, 72, 100
2, 29568, Note_on_c, 0, 58, 80
2, 29568, Note_on_c, 0, 70, 80
2, 29948, Note_off_c, 0, 58, 100
2, 29948, Note_off_c, 0, 70, 100
2, 29952, Note_on_c, 0, 63, 80
2, 29952, Note_on_c, 0, 75, 80
2, 30332, Note_off_c, 0, 63, 100
2, 30332, Note_off_c, 0, 75, 100
2, 30720, Note_on_c, 0, 73, 80
2, 30720, Note_on_c, 0, 65, 80
2, 31100, Note_off_c, 0, 65, 100
2, 31104, Note_on_c, 0, 68, 80
2, 31484, Note_off_c, 0, 73, 100
2, 31484, Note_off_c, 0, 68, 100
2, 31488, Note_on_c, 0, 72, 80
2, 31868, Note_off_c, 0, 72, 100
2, 31872, Note_on_c, 0, 70, 80
2, 31872, Note_on_c, 0, 67, 80
2, 32252, Note_off_c, 0, 67, 100
2, 32636, Note_off_c, 0, 70, 100
2, 32640, Note_on_c, 0, 68, 80
2, 33020, Note_off_c, 0, 68, 100
2, 33024, Note_on_c, 0, 66, 80
2, 33024, Note_on_c, 0, 78, 80
2, 33404, Note_off_c, 0, 66, 100
2, 33404, Note_off_c, 0, 78, 100
2, 33408, Note_on_c, 0, 65, 80
2, 33408, Note_on_c, 0, 77, 80
2, 34172, Note_off_c, 0, 65, 100
2, 34172, Note_off_c, 0, 77, 100
2, 34176, Note_on_c, 0, 63, 80
2, 34176, Note_on_c, 0, 75, 80
2, 34556, Note_off_c, 0, 63, 100
2, 34556, Note_off_c, 0, 75, 100
2, 34560, Note_on_c, 0, 68, 80
2, 34560, Note_on_c, 0, 80, 80
2, 34940, Note_off_c, 0, 68, 100
2, 34940, Note_off_c, 0, 80, 100
2, 35328, Note_on_c, 0, 66, 80
2, 35328, Note_on_c, 0, 78, 80
2, 36092, Note_off_c, 0, 66, 100
2, 36092, Note_off_c, 0, 78, 100
2, 36096, Note_on_c, 0, 65, 80
2, 36096, Note_on_c, 0, 77, 80
2, 36476, Note_off_c, 0, 65, 100
2, 36476, Note_off_c, 0, 77, 100
2, 36480, Note_on_c, 0, 63, 80
2, 36480, Note_on_c, 0, 75, 80
2, 36860, Note_off_c, 0, 63, 100
2, 36860, Note_off_c, 0, 75, 100
2, 36864, Note_on_c, 0, 68, 80
2, 36864, Note_on_c, 0, 80, 80
2, 37244, Note_off_c, 0, 68, 100
2, 37244, Note_off_c, 0, 80, 100
2, 37632, Note_on_c, 0, 66, 91
2, 37632, Note_on_c, 0, 78, 91
2, 38396, Note_off_c, 0, 66, 100
2, 38396, Note_off_c, 0, 78, 100
2, 38400, Note_on_c, 0, 65, 103
2, 38400, Note_on_c, 0, 77, 103
2, 38780, Note_off_c, 0, 65, 100
2, 38780, Note_off_c, 0, 77, 100
2, 38784, Note_on_c, 0, 70, 109
2, 38784, Note_on_c, 0, 82, 109
2, 39548, Note_off_c, 0, 70, 100
2, 39548, Note_off_c, 0, 82, 100
2, 39552, Note_on_c, 0, 68, 100
2, 39552, Note_on_c, 0, 80, 100
2, 39932, Note_off_c, 0, 68, 100
2, 39932, Note_off_c, 0, 80, 100
2, 40320, Note_on_c, 0, 60, 80
2, 40320, Note_on_c, 0, 54, 80
2, 41084, Note_off_c, 0, 60, 100
2, 41088, Note_on_c, 0, 63, 80
2, 41276, Note_off_c, 0, 63, 100
2, 41280, Note_on_c, 0, 61, 80
2, 41468, Note_off_c, 0, 54, 100
2, 41468, Note_off_c, 0, 61, 100
2, 41472, Note_on_c, 0, 53, 80
2, 41472, Note_on_c, 0, 61, 80
2, 41852, Note_off_c, 0, 53, 100
2, 41852, Note_off_c, 0, 61, 100
2, 42240, Note_on_c, 0, 65, 80
2, 42240, Note_on_c, 0, 73, 80
2, 42620, Note_off_c, 0, 65, 100
2, 42620, Note_off_c, 0, 73, 100
2, 42624, Note_on_c, 0, 65, 80
2, 42624, Note_on_c, 0, 73, 80
2, 43388, Note_off_c, 0, 65, 100
2, 43388, Note_off_c, 0, 73, 100
2, 43392, Note_on_c, 0, 65, 80
2, 43392, Note_on_c, 0, 73, 80
2, 43772, Note_off_c, 0, 65, 100
2, 43772, Note_off_c, 0, 73, 100
2, 43776, Note_on_c, 0, 63, 80
2, 43776, Note_on_c, 0, 73, 80
2, 44156, Note_off_c, 0, 73, 100
2, 44160, Note_on_c, 0, 72, 80
2, 44540, Note_off_c, 0, 63, 100
2, 44540, Note_off_c, 0, 72, 100
2, 44544, Note_on_c, 0, 63, 80
2, 44544, Note_on_c, 0, 71, 80
2, 44924, Note_off_c, 0, 63, 100
2, 44924, Note_off_c, 0, 71, 100
2, 44928, Note_on_c, 0, 63, 80
2, 44928, Note_on_c, 0, 71, 80
2, 45692, Note_off_c, 0, 63, 100
2, 45692, Note_off_c, 0, 71, 100
2, 45696, Note_on_c, 0, 63, 80
2, 45696, Note_on_c, 0, 71, 80
2, 46076, Note_off_c, 0, 63, 100
2, 46076, Note_off_c, 0, 71, 100
2, 46080, Note_on_c, 0, 61, 80
2, 46080, Note_on_c, 0, 71, 80
2, 46460, Note_off_c, 0, 71, 100
2, 46464, Note_on_c, 0, 70, 80
2, 46844, Note_off_c, 0, 61, 100
2, 46844, Note_off_c, 0, 70, 100
2, 46848, Note_on_c, 0, 61, 80
2, 46848, Note_on_c, 0, 70, 80
2, 47228, Note_off_c, 0, 61, 100
2, 47228, Note_off_c, 0, 70, 100
2, 47232, Note_on_c, 0, 66, 90
2, 47232, Note_on_c, 0, 72, 90
2, 47996, Note_off_c, 0, 66, 100
2, 47996, Note_off_c, 0, 72, 100
2, 48000, Note_on_c, 0, 65, 99
2, 48000, Note_on_c, 0, 73, 99
2, 48380, Note_off_c, 0, 65, 100
2, 48380, Note_off_c, 0, 73, 100
2, 48384, Note_on_c, 0, 66, 110
2, 48384, Note_on_c, 0, 75, 110
2, 49148, Note_off_c, 0, 66, 100
2, 49148, Note_off_c, 0, 75, 100
2, 49152, Note_on_c, 0, 63, 80
2, 49152, Note_on_c, 0, 66, 80
2, 49916, Note_off_c, 0, 63, 100
2, 49916, Note_off_c, 0, 66, 100
2, 49920, Note_on_c, 0, 61, 80
2, 49920, Note_on_c, 0, 65, 80
2, 50300, Note_off_c, 0, 61, 100
2, 50300, Note_off_c, 0, 65, 100
2, 50304, Note_on_c, 0, 70, 80
2, 50304, Note_on_c, 0, 58, 80
2, 50492, Note_off_c, 0, 70, 100
2, 50496, Note_on_c, 0, 66, 80
2, 50684, Note_off_c, 0, 58, 100
2, 50684, Note_off_c, 0, 66, 100
2, 50688, Note_on_c, 0, 61, 80
2, 50688, Note_on_c, 0, 65, 80
2, 51068, Note_off_c, 0, 61, 100
2, 51068, Note_off_c, 0, 65, 100
2, 51072, Note_on_c, 0, 60, 80
2, 51072, Note_on_c, 0, 63, 80
2, 51452, Note_off_c, 0, 60, 100
2, 51452, Note_off_c, 0, 63, 100
2, 51456, Note_on_c, 0, 61, 80
2, 51456, Note_on_c, 0, 73, 80
2, 51836, Note_off_c, 0, 61, 100
2, 51836, Note_off_c, 0, 73, 100
2, 51840, Note_on_c, 0, 60, 80
2, 51840, Note_on_c, 0, 72, 80
2, 52604, Note_off_c, 0, 60, 100
2, 52604, Note_off_c, 0, 72, 100
2, 52608, Note_on_c, 0, 58, 80
2, 52608, Note_on_c, 0, 70, 80
2, 52988, Note_off_c, 0, 58, 100
2, 52988, Note_off_c, 0, 70, 100
2, 52992, Note_on_c, 0, 63, 80
2, 52992, Note_on_c, 0, 75, 80
2, 53372, Note_off_c, 0, 63, 100
2, 53372, Note_off_c, 0, 75, 100
2, 53760, Note_on_c, 0, 73, 80
2, 53760, Note_on_c, 0, 65, 80
2, 54140, Note_off_c, 0, 65, 100
2, 54144, Note_on_c, 0, 68, 80
2, 54524, Note_off_c, 0, 73, 100
2, 54524, Note_off_c, 0, 68, 100
2, 54528, Note_on_c, 0, 72, 80
2, 54908, Note_off_c, 0, 72, 100
2, 54912, Note_on_c, 0, 70, 80
2, 54912, Note_on_c, 0, 67, 80
2, 55292, Note_off_c, 0, 67, 100
2, 55676, Note_off_c, 0, 70, 100
2, 55680, Note_on_c, 0, 68, 80
2, 56060, Note_off_c, 0, 68, 100
2, 56064, Note_on_c, 0, 66, 80
2, 56064, Note_on_c, 0, 78, 80
2, 56444, Note_off_c, 0, 66, 100
2, 56444, Note_off_c, 0, 78, 100
2, 56448, Note_on_c, 0, 65, 80
2, 56448, Note_on_c, 0, 77, 80
2, 57212, Note_off_c, 0, 65, 100
2, 57212, Note_off_c, 0, 77, 100
2, 57216, Note_on_c, 0, 63, 80
2, 57216, Note_on_c, 0, 75, 80
2, 57596, Note_off_c, 0, 63, 100
2, 57596, Note_off_c, 0, 75, 100
2, 57600, Note_on_c, 0, 68, 80
2, 57600, Note_on_c, 0, 80, 80
2, 57980, Note_off_c, 0, 68, 100
2, 57980, Note_off_c, 0, 80, 100
2, 58368, Note_on_c, 0, 66, 80
2, 58368, Note_on_c, 0, 78, 80
2, 59132, Note_off_c, 0, 66, 100
2, 59132, Note_off_c, 0, 78, 100
2, 59136, Note_on_c, 0, 65, 80
2, 59136, Note_on_c, 0, 77, 80
2, 59516, Note_off_c, 0, 65, 100
2, 59516, Note_off_c, 0, 77, 100
2, 59520, Note_on_c, 0, 63, 80
2, 59520, Note_on_c, 0, 75, 80
2, 59900, Note_off_c, 0, 63, 100
2, 59900, Note_off_c, 0, 75, 100
2, 59904, Note_on_c, 0, 68, 80
2, 59904, Note_on_c, 0, 80, 80
2, 60284, Note_off_c, 0, 68, 100
2, 60284, Note_off_c, 0, 80, 100
2, 60672, Note_on_c, 0, 66, 91
2, 60672, Note_on_c, 0, 78, 91
2, 61436, Note_off_c, 0, 66, 100
2, 61436, Note_off_c, 0, 78, 100
2, 61440, Note_on_c, 0, 65, 103
2, 61440, Note_on_c, 0, 77, 103
2, 61820, Note_off_c, 0, 65, 100
2, 61820, Note_off_c, 0, 77, 100
2, 61824, Note_on_c, 0, 70, 109
2, 61824, Note_on_c, 0, 82, 109
2, 62588, Note_off_c, 0, 70, 100
2, 62588, Note_off_c, 0, 82, 100
2, 62592, Note_on_c, 0, 68, 100
2, 62592, Note_on_c, 0, 80, 100
2, 62972, Note_off_c, 0, 68, 100
2, 62972, Note_off_c, 0, 80, 100
2, 63360, Note_on_c, 0, 60, 80
2, 63360, Note_on_c, 0, 54, 80
2, 64124, Note_off_c, 0, 60, 100
2, 64128, Note_on_c, 0, 63, 80
2, 64316, Note_off_c, 0, 63, 100
2, 64320, Note_on_c, 0, 61, 80
2, 64508, Note_off_c, 0, 54, 100
2, 64508, Note_off_c, 0, 61, 100
2, 64512, Note_on_c, 0, 53, 80
2, 64512, Note_on_c, 0, 61, 80
2, 64892, Note_off_c, 0, 53, 100
2, 64892, Note_off_c, 0, 61, 100
2, 65280, Note_on_c, 0, 53, 100
2, 65280, Note_on_c, 0, 65, 100
2, 66428, Note_off_c, 0, 53, 100
2, 66428, Note_off_c, 0, 65, 100
2, 66432, Note_on_c, 0, 54, 100
2, 66432, Note_on_c, 0, 66, 100
2, 67580, Note_off_c, 0, 54, 100
2, 67580, Note_off_c, 0, 66, 100
2, 67584, Note_on_c, 0, 63, 100
2, 67584, Note_on_c, 0, 75, 100
2, 68348, Note_off_c, 0, 63, 100
2, 68348, Note_off_c, 0, 75, 100
2, 68352, Note_on_c, 0, 60, 80
2, 68352, Note_on_c, 0, 72, 80
2, 68732, Note_off_c, 0, 60, 100
2, 68732, Note_off_c, 0, 72, 100
2, 68736, Note_on_c, 0, 56, 80
2, 68736, Note_on_c, 0, 68, 80
2, 69116, Note_off_c, 0, 56, 100
2, 69116, Note_off_c, 0, 68, 100
2, 69120, Note_on_c, 0, 61, 80
2, 69120, Note_on_c, 0, 73, 80
2, 69500, Note_off_c, 0, 61, 100
2, 69500, Note_off_c, 0, 73, 100
2, 69504, Note_on_c, 0, 65, 80
2, 69504, Note_on_c, 0, 77, 80
2, 69884, Note_off_c, 0, 65, 100
2, 69884, Note_off_c, 0, 77, 100
2, 69888, Note_on_c, 0, 53, 100
2, 69888, Note_on_c, 0, 65, 100
2, 71036, Note_off_c, 0, 53, 100
2, 71036, Note_off_c, 0, 65, 100
2, 71040, Note_on_c, 0, 54, 100
2, 71040, Note_on_c, 0, 66, 100
2, 72188, Note_off_c, 0, 54, 100
2, 72188, Note_off_c, 0, 66, 100
2, 72192, Note_on_c, 0, 66, 100
2, 72192, Note_on_c, 0, 78, 100
2, 72956, Note_off_c, 0, 66, 100
2, 72956, Note_off_c, 0, 78, 100
2, 72960, Note_on_c, 0, 70, 80
2, 72960, Note_on_c, 0, 82, 80
2, 73340, Note_off_c, 0, 70, 100
2, 73340, Note_off_c, 0, 82, 100
2, 73344, Note_on_c, 0, 60, 80
2, 73344, Note_on_c, 0, 72, 80
2, 73724, Note_off_c, 0, 60, 100
2, 73724, Note_off_c, 0, 72, 100
2, 73728, Note_on_c, 0, 63, 80
2, 73728, Note_on_c, 0, 75, 80
2, 74108, Note_off_c, 0, 63, 100
2, 74108, Note_off_c, 0, 75, 100
2, 74112, Note_on_c, 0, 61, 80
2, 74112, Note_on_c, 0, 73, 80
2, 74492, Note_off_c, 0, 61, 100
2, 74492, Note_off_c, 0, 73, 100
2, 74496, Note_on_c, 0, 53, 100
2, 74496, Note_on_c, 0, 65, 100
2, 75644, Note_off_c, 0, 53, 100
2, 75644, Note_off_c, 0, 65, 100
2, 75648, Note_on_c, 0, 54, 100
2, 75648, Note_on_c, 0, 66, 100
2, 76796, Note_off_c, 0, 54, 100
2, 76796, Note_off_c, 0, 66, 100
2, 76800, Note_on_c, 0, 63, 100
2, 76800, Note_on_c, 0, 75, 100
2, 77564, Note_off_c, 0, 63, 100
2, 77564, Note_off_c, 0, 75, 100
2, 77568, Note_on_c, 0, 60, 80
2, 77568, Note_on_c, 0, 72, 80
2, 77948, Note_off_c, 0, 60, 100
2, 77948, Note_off_c, 0, 72, 100
2, 77952, Note_on_c, 0, 56, 80
2, 77952, Note_on_c, 0, 68, 80
2, 78332, Note_off_c, 0, 56, 100
2, 78332, Note_off_c, 0, 68, 100
2, 78336, Note_on_c, 0, 61, 80
2, 78336, Note_on_c, 0, 73, 80
2, 78716, Note_off_c, 0, 61, 100
2, 78716, Note_off_c, 0, 73, 100
2, 78720, Note_on_c, 0, 65, 80
2, 78720, Note_on_c, 0, 77, 80
2, 79100, Note_off_c, 0, 65, 100
2, 79100, Note_off_c, 0, 77, 100
2, 79104, Note_on_c, 0, 53, 100
2, 79104, Note_on_c, 0, 65, 100
2, 80252, Note_off_c, 0, 53, 100
2, 80252, Note_off_c, 0, 65, 100
2, 80256, Note_on_c, 0, 54, 100
2, 80256, Note_on_c, 0, 66, 100
2, 81404, Note_off_c, 0, 54, 100
2, 81404, Note_off_c, 0, 66, 100
2, 81408, Note_on_c, 0, 66, 100
2, 81408, Note_on_c, 0, 78, 100
2, 82172, Note_off_c, 0, 66, 100
2, 82172, Note_off_c, 0, 78, 100
2, 82176, Note_on_c, 0, 70, 80
2, 82176, Note_on_c, 0, 82, 80
2, 82556, Note_off_c, 0, 70, 100
2, 82556, Note_off_c, 0, 82, 100
2, 82560, Note_on_c, 0, 60, 80
2, 82560, Note_on_c, 0, 72, 80
2, 82940, Note_off_c, 0, 60, 100
2, 82940, Note_off_c, 0, 72, 100
2, 82944, Note_on_c, 0, 63, 75
2, 82944, Note_on_c, 0, 75, 75
2, 83324, Note_off_c, 0, 63, 100
2, 83324, Note_off_c, 0, 75, 100
2, 83328, Note_on_c, 0, 61, 71
2, 83328, Note_on_c, 0, 73, 71
2, 83708, Note_off_c, 0, 61, 100
2, 83708, Note_off_c, 0, 73, 100
2, 83712, Note_on_c, 0, 65, 70
2, 83712, Note_on_c, 0, 77, 70
2, 84860, Note_off_c, 0, 65, 100
2, 84860, Note_off_c, 0, 77, 100
2, 84864, Note_on_c, 0, 58, 70
2, 84864, Note_on_c, 0, 70, 70
2, 86012, Note_off_c, 0, 58, 100
2, 86012, Note_off_c, 0, 70, 100
2, 86016, Note_on_c, 0, 63, 70
2, 86016, Note_on_c, 0, 75, 70
2, 87164, Note_off_c, 0, 63, 100
2, 87164, Note_off_c, 0, 75, 100
2, 87168, Note_on_c, 0, 56, 70
2, 87168, Note_on_c, 0, 68, 70
2, 88316, Note_off_c, 0, 56, 100
2, 88316, Note_off_c, 0, 68, 100
2, 88320, Note_on_c, 0, 61, 70
2, 88320, Note_on_c, 0, 73, 70
2, 89468, Note_off_c, 0, 61, 100
2, 89468, Note_off_c, 0, 73, 100
2, 89472, Note_on_c, 0, 54, 80
2, 89472, Note_on_c, 0, 66, 80
2, 90620, Note_off_c, 0, 54, 100
2, 90620, Note_off_c, 0, 66, 100
2, 90624, Note_on_c, 0, 53, 80
2, 90624, Note_on_c, 0, 65, 80
2, 91388, Note_off_c, 0, 53, 100
2, 91388, Note_off_c, 0, 65, 100
2, 91392, Note_on_c, 0, 56, 80
2, 91392, Note_on_c, 0, 68, 80
2, 91772, Note_off_c, 0, 56, 100
2, 91772, Note_off_c, 0, 68, 100
2, 91776, Note_on_c, 0, 59, 80
2, 91776, Note_on_c, 0, 71, 80
2, 92540, Note_off_c, 0, 59, 100
2, 92540, Note_off_c, 0, 71, 100
2, 92544, Note_on_c, 0, 58, 80
2, 92544, Note_on_c, 0, 70, 80
2, 92924, Note_off_c, 0, 58, 100
2, 92924, Note_off_c, 0, 70, 100
2, 92928, Note_on_c, 0, 61, 80
2, 92928, Note_on_c, 0, 73, 80
2, 94076, Note_off_c, 0, 61, 100
2, 94076, Note_off_c, 0, 73, 100
2, 94080, Note_on_c, 0, 54, 80
2, 94080, Note_on_c, 0, 66, 80
2, 95228, Note_off_c, 0, 54, 100
2, 95228, Note_off_c, 0, 66, 100
2, 95232, Note_on_c, 0, 53, 80
2, 95232, Note_on_c, 0, 65, 80
2, 96380, Note_off_c, 0, 53, 100
2, 96380, Note_off_c, 0, 65, 100
2, 96384, Note_on_c, 0, 52, 80
2, 96384, Note_on_c, 0, 64, 80
2, 97532, Note_off_c, 0, 52, 100
2, 97532, Note_off_c, 0, 64, 100
2, 97536, Note_on_c, 0, 65, 80
2, 97536, Note_on_c, 0, 53, 80
2, 98684, Note_off_c, 0, 53, 100
2, 98684, Note_off_c, 0, 65, 100
2, 98688, Note_on_c, 0, 54, 102
2, 98688, Note_on_c, 0, 66, 102
2, 99836, Note_off_c, 0, 54, 100
2, 99836, Note_off_c, 0, 66, 100
2, 99840, Note_on_c, 0, 53, 110
2, 99840, Note_on_c, 0, 65, 110
2, 100604, Note_off_c, 0, 53, 100
2, 100604, Note_off_c, 0, 65, 100
2, 100608, Note_on_c, 0, 54, 80
2, 100608, Note_on_c, 0, 66, 80
2, 100988, Note_off_c, 0, 54, 100
2, 100988, Note_off_c, 0, 66, 100
2, 100992, Note_on_c, 0, 48, 80
2, 100992, Note_on_c, 0, 60, 80
2, 101372, Note_off_c, 0, 48, 100
2, 101372, Note_off_c, 0, 60, 100
2, 101376, Note_on_c, 0, 49, 80
2, 101376, Note_on_c, 0, 61, 80
2, 101756, Note_off_c, 0, 49, 100
2, 101756, Note_off_c, 0, 61, 100
2, 102144, Note_on_c, 0, 65, 70
2, 102144, Note_on_c, 0, 77, 70
2, 103292, Note_off_c, 0, 65, 100
2, 103292, Note_off_c, 0, 77, 100
2, 103296, Note_on_c, 0, 58, 70
2, 103296, Note_on_c, 0, 70, 70
2, 104444, Note_off_c, 0, 58, 100
2, 104444, Note_off_c, 0, 70, 100
2, 104448, Note_on_c, 0, 63, 70
2, 104448, Note_on_c, 0, 75, 70
2, 105596, Note_off_c, 0, 63, 100
2, 105596, Note_off_c, 0, 75, 100
2, 105600, Note_on_c, 0, 56, 70
2, 105600, Note_on_c, 0, 68, 70
2, 106748, Note_off_c, 0, 56, 100
2, 106748, Note_off_c, 0, 68, 100
2, 106752, Note_on_c, 0, 61, 70
2, 106752, Note_on_c, 0, 73, 70
2, 107900, Note_off_c, 0, 61, 100
2, 107900, Note_off_c, 0, 73, 100
2, 107904, Note_on_c, 0, 54, 80
2, 107904, Note_on_c, 0, 66, 80
2, 109052, Note_off_c, 0, 54, 100
2, 109052, Note_off_c, 0, 66, 100
2, 109056, Note_on_c, 0, 53, 80
2, 109056, Note_on_c, 0, 65, 80
2, 109820, Note_off_c, 0, 53, 100
2, 109820, Note_off_c, 0, 65, 100
2, 109824, Note_on_c, 0, 56, 80
2, 109824, Note_on_c, 0, 68, 80
2, 110204, Note_off_c, 0, 56, 100
2, 110204, Note_off_c, 0, 68, 100
2, 110208, Note_on_c, 0, 59, 80
2, 110208, Note_on_c, 0, 71, 80
2, 110972, Note_off_c, 0, 59, 100
2, 110972, Note_off_c, 0, 71, 100
2, 110976, Note_on_c, 0, 58, 80
2, 110976, Note_on_c, 0, 70, 80
2, 111356, Note_off_c, 0, 58, 100
2, 111356, Note_off_c, 0, 70, 100
2, 111360, Note_on_c, 0, 61, 80
2, 111360, Note_on_c, 0, 73, 80
2, 112508, Note_off_c, 0, 61, 100
2, 112508, Note_off_c, 0, 73, 100
2, 112512, Note_on_c, 0, 54, 80
2, 112512, Note_on_c, 0, 66, 80
2, 113660, Note_off_c, 0, 54, 100
2, 113660, Note_off_c, 0, 66, 100
2, 113664, Note_on_c, 0, 53, 80
2, 113664, Note_on_c, 0, 65, 80
2, 114812, Note_off_c, 0, 53, 100
2, 114812, Note_off_c, 0, 65, 100
2, 114816, Note_on_c, 0, 52, 80
2, 114816, Note_on_c, 0, 64, 80
2, 115964, Note_off_c, 0, 52, 100
2, 115964, Note_off_c, 0, 64, 100
2, 115968, Note_on_c, 0, 65, 80
2, 115968, Note_on_c, 0, 53, 80
2, 117116, Note_off_c, 0, 53, 100
2, 117116, Note_off_c, 0, 65, 100
2, 117120, Note_on_c, 0, 54, 102
2, 117120, Note_on_c, 0, 66, 102
2, 118268, Note_off_c, 0, 54, 100
2, 118268, Note_off_c, 0, 66, 100
2, 118272, Note_on_c, 0, 53, 110
2, 118272, Note_on_c, 0, 65, 110
2, 119036, Note_off_c, 0, 53, 100
2, 119036, Note_off_c, 0, 65, 100
2, 119040, Note_on_c, 0, 54, 80
2, 119040, Note_on_c, 0, 66, 80
2, 119420, Note_off_c, 0, 54, 100
2, 119420, Note_off_c, 0, 66, 100
2, 119424, Note_on_c, 0, 48, 80
2, 119424, Note_on_c, 0, 60, 80
2, 119804, Note_off_c, 0, 48, 100
2, 119804, Note_off_c, 0, 60, 100
2, 119808, Note_on_c, 0, 49, 80
2, 119808, Note_on_c, 0, 61, 80
2, 120188, Note_off_c, 0, 49, 100
2, 120188, Note_off_c, 0, 61, 100
2, 120576, Note_on_c, 0, 68, 80
2, 120576, Note_on_c, 0, 73, 80
2, 120956, Note_off_c, 0, 68, 100
2, 120956, Note_off_c, 0, 73, 100
2, 120960, Note_on_c, 0, 68, 80
2, 120960, Note_on_c, 0, 72, 80
2, 121724, Note_off_c, 0, 68, 100
2, 121724, Note_off_c, 0, 72, 100
2, 121728, Note_on_c, 0, 67, 80
2, 121728, Note_on_c, 0, 70, 80
2, 122108, Note_off_c, 0, 67, 100
2, 122108, Note_off_c, 0, 70, 100
2, 122112, Note_on_c, 0, 68, 80
2, 122112, Note_on_c, 0, 75, 80
2, 122492, Note_off_c, 0, 68, 100
2, 122492, Note_off_c, 0, 75, 100
2, 122880, Note_on_c, 0, 65, 80
2, 122880, Note_on_c, 0, 73, 80
2, 123260, Note_off_c, 0, 65, 100
2, 123260, Note_off_c, 0, 73, 100
2, 123264, Note_on_c, 0, 68, 80
2, 123264, Note_on_c, 0, 72, 80
2, 123644, Note_off_c, 0, 68, 100
2, 123644, Note_off_c, 0, 72, 100
2, 124032, Note_on_c, 0, 70, 80
2, 124032, Note_on_c, 0, 67, 80
2, 124412, Note_off_c, 0, 70, 100
2, 124412, Note_off_c, 0, 67, 100
2, 124416, Note_on_c, 0, 68, 80
2, 124796, Note_off_c, 0, 68, 100
2, 125184, Note_on_c, 0, 73, 80
2, 125184, Note_on_c, 0, 78, 80
2, 125564, Note_off_c, 0, 73, 100
2, 125564, Note_off_c, 0, 78, 100
2, 125568, Note_on_c, 0, 73, 80
2, 125568, Note_on_c, 0, 77, 80
2, 126332, Note_off_c, 0, 73, 100
2, 126332, Note_off_c, 0, 77, 100
2, 126336, Note_on_c, 0, 72, 80
2, 126336, Note_on_c, 0, 75, 80
2, 126716, Note_off_c, 0, 72, 100
2, 126716, Note_off_c, 0, 75, 100
2, 126720, Note_on_c, 0, 73, 80
2, 126720, Note_on_c, 0, 80, 80
2, 127100, Note_off_c, 0, 73, 100
2, 127100, Note_off_c, 0, 80, 100
2, 127488, Note_on_c, 0, 70, 80
2, 127488, Note_on_c, 0, 78, 80
2, 127868, Note_off_c, 0, 70, 100
2, 127868, Note_off_c, 0, 78, 100
2, 127872, Note_on_c, 0, 77, 80
2, 127872, Note_on_c, 0, 73, 80
2, 128252, Note_off_c, 0, 77, 100
2, 128252, Note_off_c, 0, 73, 100
2, 128640, Note_on_c, 0, 72, 80
2, 128640, Note_on_c, 0, 75, 80
2, 129020, Note_off_c, 0, 72, 100
2, 129020, Note_off_c, 0, 75, 100
2, 129024, Note_on_c, 0, 73, 80
2, 129404, Note_off_c, 0, 73, 100
2, 129792, Note_on_c, 0, 61, 80
2, 129792, Note_on_c, 0, 73, 80
2, 130556, Note_off_c, 0, 61, 100
2, 130556, Note_off_c, 0, 73, 100
2, 130560, Note_on_c, 0, 60, 80
2, 130560, Note_on_c, 0, 72, 80
2, 130940, Note_off_c, 0, 60, 100
2, 130940, Note_off_c, 0, 72, 100
2, 130944, Note_on_c, 0, 70, 80
2, 130944, Note_on_c, 0, 58, 80
2, 131324, Note_off_c, 0, 58, 100
2, 131328, Note_on_c, 0, 63, 80
2, 131708, Note_off_c, 0, 70, 100
2, 131708, Note_off_c, 0, 63, 100
2, 131712, Note_on_c, 0, 75, 80
2, 132092, Note_off_c, 0, 75, 100
2, 132096, Note_on_c, 0, 73, 80
2, 132096, Note_on_c, 0, 65, 80
2, 132476, Note_off_c, 0, 65, 100
2, 132480, Note_on_c, 0, 68, 80
2, 132860, Note_off_c, 0, 73, 100
2, 132860, Note_off_c, 0, 68, 100
2, 132864, Note_on_c, 0, 72, 80
2, 133244, Note_off_c, 0, 72, 100
2, 133248, Note_on_c, 0, 70, 80
2, 133248, Note_on_c, 0, 67, 80
2, 133628, Note_off_c, 0, 67, 100
2, 134012, Note_off_c, 0, 70, 100
2, 134016, Note_on_c, 0, 68, 80
2, 134396, Note_off_c, 0, 68, 100
2, 134400, Note_on_c, 0, 66, 80
2, 134400, Note_on_c, 0, 78, 80
2, 135164, Note_off_c, 0, 66, 100
2, 135164, Note_off_c, 0, 78, 100
2, 135168, Note_on_c, 0, 65, 80
2, 135168, Note_on_c, 0, 77, 80
2, 135548, Note_off_c, 0, 65, 100
2, 135548, Note_off_c, 0, 77, 100
2, 135552, Note_on_c, 0, 63, 80
2, 135552, Note_on_c, 0, 75, 80
2, 135932, Note_off_c, 0, 63, 100
2, 135936, Note_on_c, 0, 68, 80
2, 136316, Note_off_c, 0, 75, 100
2, 136316, Note_off_c, 0, 68, 100
2, 136320, Note_on_c, 0, 80, 80
2, 136700, Note_off_c, 0, 80, 100
2, 136704, Note_on_c, 0, 70, 80
2, 136704, Note_on_c, 0, 78, 80
2, 137084, Note_off_c, 0, 70, 100
2, 137088, Note_on_c, 0, 73, 80
2, 137468, Note_off_c, 0, 78, 100
2, 137468, Note_off_c, 0, 73, 100
2, 137472, Note_on_c, 0, 77, 80
2, 137852, Note_off_c, 0, 77, 100
2, 137856, Note_on_c, 0, 72, 80
2, 137856, Note_on_c, 0, 75, 80
2, 138236, Note_off_c, 0, 72, 100
2, 138620, Note_off_c, 0, 75, 100
2, 138624, Note_on_c, 0, 73, 80
2, 139004, Note_off_c, 0, 73, 100
2, 139008, Note_on_c, 0, 65, 80
2, 139008, Note_on_c, 0, 73, 80
2, 139388, Note_off_c, 0, 65, 100
2, 139388, Note_off_c, 0, 73, 100
2, 139392, Note_on_c, 0, 65, 80
2, 139392, Note_on_c, 0, 73, 80
2, 140156, Note_off_c, 0, 65, 100
2, 140156, Note_off_c, 0, 73, 100
2, 140160, Note_on_c, 0, 65, 80
2, 140160, Note_on_c, 0, 73, 80
2, 140540, Note_off_c, 0, 65, 100
2, 140540, Note_off_c, 0, 73, 100
2, 140544, Note_on_c, 0, 63, 80
2, 140544, Note_on_c, 0, 73, 80
2, 140924, Note_off_c, 0, 73, 100
2, 140928, Note_on_c, 0, 72, 80
2, 141308, Note_off_c, 0, 63, 100
2, 141308, Note_off_c, 0, 72, 100
2, 141312, Note_on_c, 0, 63, 80
2, 141312, Note_on_c, 0, 71, 80
2, 141692, Note_off_c, 0, 63, 100
2, 141692, Note_off_c, 0, 71, 100
2, 141696, Note_on_c, 0, 63, 80
2, 141696, Note_on_c, 0, 71, 80
2, 142460, Note_off_c, 0, 63, 100
2, 142460, Note_off_c, 0, 71, 100
2, 142464, Note_on_c, 0, 63, 80
2, 142464, Note_on_c, 0, 71, 80
2, 142844, Note_off_c, 0, 63, 100
2, 142844, Note_off_c, 0, 71, 100
2, 142848, Note_on_c, 0, 61, 80
2, 142848, Note_on_c, 0, 71, 80
2, 143228, Note_off_c, 0, 71, 100
2, 143232, Note_on_c, 0, 70, 80
2, 143612, Note_off_c, 0, 61, 100
2, 143612, Note_off_c, 0, 70, 100
2, 143616, Note_on_c, 0, 61, 80
2, 143616, Note_on_c, 0, 70, 80
2, 143996, Note_off_c, 0, 61, 100
2, 143996, Note_off_c, 0, 70, 100
2, 144000, Note_on_c, 0, 66, 90
2, 144000, Note_on_c, 0, 72, 90
2, 144764, Note_off_c, 0, 66, 100
2, 144764, Note_off_c, 0, 72, 100
2, 144768, Note_on_c, 0, 65, 99
2, 144768, Note_on_c, 0, 73, 99
2, 145148, Note_off_c, 0, 65, 100
2, 145148, Note_off_c, 0, 73, 100
2, 145152, Note_on_c, 0, 66, 110
2, 145152, Note_on_c, 0, 75, 110
2, 145916, Note_off_c, 0, 66, 100
2, 145916, Note_off_c, 0, 75, 100
2, 145920, Note_on_c, 0, 63, 80
2, 145920, Note_on_c, 0, 66, 80
2, 146684, Note_off_c, 0, 63, 100
2, 146684, Note_off_c, 0, 66, 100
2, 146688, Note_on_c, 0, 61, 80
2, 146688, Note_on_c, 0, 65, 80
2, 147068, Note_off_c, 0, 61, 100
2, 147068, Note_off_c, 0, 65, 100
2, 147072, Note_on_c, 0, 70, 80
2, 147072, Note_on_c, 0, 58, 80
2, 147260, Note_off_c, 0, 70, 100
2, 147264, Note_on_c, 0, 66, 80
2, 147452, Note_off_c, 0, 58, 100
2, 147452, Note_off_c, 0, 66, 100
2, 147456, Note_on_c, 0, 61, 80
2, 147456, Note_on_c, 0, 65, 80
2, 147836, Note_off_c, 0, 61, 100
2, 147836, Note_off_c, 0, 65, 100
2, 147840, Note_on_c, 0, 60, 80
2, 147840, Note_on_c, 0, 63, 80
2, 148220, Note_off_c, 0, 60, 100
2, 148220, Note_off_c, 0, 63, 100
2, 148224, Note_on_c, 0, 61, 80
2, 148224, Note_on_c, 0, 73, 80
2, 148604, Note_off_c, 0, 61, 100
2, 148604, Note_off_c, 0, 73, 100
2, 148608, Note_on_c, 0, 60, 80
2, 148608, Note_on_c, 0, 72, 80
2, 149372, Note_off_c, 0, 60, 100
2, 149372, Note_off_c, 0, 72, 100
2, 149376, Note_on_c, 0, 58, 80
2, 149376, Note_on_c, 0, 70, 80
2, 149756, Note_off_c, 0, 58, 100
2, 149756, Note_off_c, 0, 70, 100
2, 149760, Note_on_c, 0, 63, 80
2, 149760, Note_on_c, 0, 75, 80
2, 150140, Note_off_c, 0, 63, 100
2, 150140, Note_off_c, 0, 75, 100
2, 150528, Note_on_c, 0, 73, 80
2, 150528, Note_on_c, 0, 65, 80
2, 150908, Note_off_c, 0, 65, 100
2, 150912, Note_on_c, 0, 68, 80
2, 151292, Note_off_c, 0, 73, 100
2, 151292, Note_off_c, 0, 68, 100
2, 151296, Note_on_c, 0, 72, 80
2, 151676, Note_off_c, 0, 72, 100
2, 151680, Note_on_c, 0, 70, 80
2, 151680, Note_on_c, 0, 67, 80
2, 152060, Note_off_c, 0, 67, 100
2, 152444, Note_off_c, 0, 70, 100
2, 152448, Note_on_c, 0, 68, 80
2, 152828, Note_off_c, 0, 68, 100
2, 152832, Note_on_c, 0, 66, 80
2, 152832, Note_on_c, 0, 78, 80
2, 153212, Note_off_c, 0, 66, 100
2, 153212, Note_off_c, 0, 78, 100
2, 153216, Note_on_c, 0, 65, 80
2, 153216, Note_on_c, 0, 77, 80
2, 153980, Note_off_c, 0, 65, 100
2, 153980, Note_off_c, 0, 77, 100
2, 153984, Note_on_c, 0, 63, 80
2, 153984, Note_on_c, 0, 75, 80
2, 154364, Note_off_c, 0, 63, 100
2, 154364, Note_off_c, 0, 75, 100
2, 154368, Note_on_c, 0, 68, 80
2, 154368, Note_on_c, 0, 80, 80
2, 154748, Note_off_c, 0, 68, 100
2, 154748, Note_off_c, 0, 80, 100
2, 155136, Note_on_c, 0, 66, 80
2, 155136, Note_on_c, 0, 78, 80
2, 155900, Note_off_c, 0, 66, 100
2, 155900, Note_off_c, 0, 78, 100
2, 155904, Note_on_c, 0, 65, 80
2, 155904, Note_on_c, 0, 77, 80
2, 156284, Note_off_c, 0, 65, 100
2, 156284, Note_off_c, 0, 77, 100
2, 156288, Note_on_c, 0, 63, 80
2, 156288, Note_on_c, 0, 75, 80
2, 156668, Note_off_c, 0, 63, 100
2, 156668, Note_off_c, 0, 75, 100
2, 156672, Note_on_c, 0, 68, 80
2, 156672, Note_on_c, 0, 80, 80
2, 157052, Note_off_c, 0, 68, 100
2, 157052, Note_off_c, 0, 80, 100
2, 157440, Note_on_c, 0, 66, 91
2, 157440, Note_on_c, 0, 78, 91
2, 158204, Note_off_c, 0, 66, 100
2, 158204, Note_off_c, 0, 78, 100
2, 158208, Note_on_c, 0, 65, 103
2, 158208, Note_on_c, 0, 77, 103
2, 158588, Note_off_c, 0, 65, 100
2, 158588, Note_off_c, 0, 77, 100
2, 158592, Note_on_c, 0, 70, 109
2, 158592, Note_on_c, 0, 82, 109
2, 159356, Note_off_c, 0, 70, 100
2, 159356, Note_off_c, 0, 82, 100
2, 159360, Note_on_c, 0, 68, 100
2, 159360, Note_on_c, 0, 80, 100
2, 159740, Note_off_c, 0, 68, 100
2, 159740, Note_off_c, 0, 80, 100
2, 160128, Note_on_c, 0, 60, 80
2, 160128, Note_on_c, 0, 54, 80
2, 160892, Note_off_c, 0, 60, 100
2, 160896, Note_on_c, 0, 63, 80
2, 161084, Note_off_c, 0, 63, 100
2, 161088, Note_on_c, 0, 61, 80
2, 161276, Note_off_c, 0, 54, 100
2, 161276, Note_off_c, 0, 61, 100
2, 161280, Note_on_c, 0, 53, 80
2, 161280, Note_on_c, 0, 61, 80
2, 161660, Note_off_c, 0, 53, 100
2, 161660, Note_off_c, 0, 61, 100
2, 162048, Note_on_c, 0, 65, 80
2, 162048, Note_on_c, 0, 73, 80
2, 162428, Note_off_c, 0, 65, 100
2, 162428, Note_off_c, 0, 73, 100
2, 162432, Note_on_c, 0, 65, 80
2, 162432, Note_on_c, 0, 73, 80
2, 163196, Note_off_c, 0, 65, 100
2, 163196, Note_off_c, 0, 73, 100
2, 163200, Note_on_c, 0, 65, 80
2, 163200, Note_on_c, 0, 73, 80
2, 163580, Note_off_c, 0, 65, 100
2, 163580, Note_off_c, 0, 73, 100
2, 163584, Note_on_c, 0, 63, 80
2, 163584, Note_on_c, 0, 73, 80
2, 163964, Note_off_c, 0, 73, 100
2, 163968, Note_on_c, 0, 72, 80
2, 164348, Note_off_c, 0, 63, 100
2, 164348, Note_off_c, 0, 72, 100
2, 164352, Note_on_c, 0, 63, 80
2, 164352, Note_on_c, 0, 71, 80
2, 164732, Note_off_c, 0, 63, 100
2, 164732, Note_off_c, 0, 71, 100
2, 164736, Note_on_c, 0, 63, 80
2, 164736, Note_on_c, 0, 71, 80
2, 165500, Note_off_c, 0, 63, 100
2, 165500, Note_off_c, 0, 71, 100
2, 165504, Note_on_c, 0, 63, 80
2, 165504, Note_on_c, 0, 71, 80
2, 165884, Note_off_c, 0, 63, 100
2, 165884, Note_off_c, 0, 71, 100
2, 165888, Note_on_c, 0, 61, 80
2, 165888, Note_on_c, 0, 71, 80
2, 166268, Note_off_c, 0, 71, 100
2, 166272, Note_on_c, 0, 70, 80
2, 166652, Note_off_c, 0, 61, 100
2, 166652, Note_off_c, 0, 70, 100
2, 166656, Note_on_c, 0, 61, 80
2, 166656, Note_on_c, 0, 70, 80
2, 167036, Note_off_c, 0, 61, 100
2, 167036, Note_off_c, 0, 70, 100
2, 167040, Note_on_c, 0, 66, 90
2, 167040, Note_on_c, 0, 72, 90
2, 167804, Note_off_c, 0, 66, 100
2, 167804, Note_off_c, 0, 72, 100
2, 167808, Note_on_c, 0, 65, 99
2, 167808, Note_on_c, 0, 73, 99
2, 168188, Note_off_c, 0, 65, 100
2, 168188, Note_off_c, 0, 73, 100
2, 168192, Note_on_c, 0, 66, 110
2, 168192, Note_on_c, 0, 75, 110
2, 168956, Note_off_c, 0, 66, 100
2, 168956, Note_off_c, 0, 75, 100
2, 168960, Note_on_c, 0, 63, 80
2, 168960, Note_on_c, 0, 66, 80
2, 169724, Note_off_c, 0, 63, 100
2, 169724, Note_off_c, 0, 66, 100
2, 169728, Note_on_c, 0, 61, 80
2, 169728, Note_on_c, 0, 65, 80
2, 170108, Note_off_c, 0, 61, 100
2, 170108, Note_off_c, 0, 65, 100
2, 170112, Note_on_c, 0, 70, 80
2, 170112, Note_on_c, 0, 58, 80
2, 170300, Note_off_c, 0, 70, 100
2, 170304, Note_on_c, 0, 66, 80
2, 170492, Note_off_c, 0, 58, 100
2, 170492, Note_off_c, 0, 66, 100
2, 170496, Note_on_c, 0, 61, 80
2, 170496, Note_on_c, 0, 65, 80
2, 170876, Note_off_c, 0, 61, 100
2, 170876, Note_off_c, 0, 65, 100
2, 170880, Note_on_c, 0, 60, 80
2, 170880, Note_on_c, 0, 63, 80
2, 171260, Note_off_c, 0, 60, 100
2, 171260, Note_off_c, 0, 63, 100
2, 171264, Note_on_c, 0, 61, 80
2, 171264, Note_on_c, 0, 73, 80
2, 171644, Note_off_c, 0, 61, 100
2, 171644, Note_off_c, 0, 73, 100
2, 171648, Note_on_c, 0, 60, 80
2, 171648, Note_on_c, 0, 72, 80
2, 172412, Note_off_c, 0, 60, 100
2, 172412, Note_off_c, 0, 72, 100
2, 172416, Note_on_c, 0, 58, 80
2, 172416, Note_on_c, 0, 70, 80
2, 172796, Note_off_c, 0, 58, 100
2, 172796, Note_off_c, 0, 70, 100
2, 172800, Note_on_c, 0, 63, 80
2, 172800, Note_on_c, 0, 75, 80
2, 173180, Note_off_c, 0, 63, 100
2, 173180, Note_off_c, 0, 75, 100
2, 173568, Note_on_c, 0, 73, 80
2, 173568, Note_on_c, 0, 65, 80
2, 173948, Note_off_c, 0, 65, 100
2, 173952, Note_on_c, 0, 68, 80
2, 174332, Note_off_c, 0, 73, 100
2, 174332, Note_off_c, 0, 68, 100
2, 174336, Note_on_c, 0, 72, 80
2, 174716, Note_off_c, 0, 72, 100
2, 174720, Note_on_c, 0, 70, 80
2, 174720, Note_on_c, 0, 67, 80
2, 175100, Note_off_c, 0, 67, 100
2, 175484, Note_off_c, 0, 70, 100
2, 175488, Note_on_c, 0, 68, 80
2, 175868, Note_off_c, 0, 68, 100
2, 175872, Note_on_c, 0, 66, 80
2, 175872, Note_on_c, 0, 78, 80
2, 176252, Note_off_c, 0, 66, 100
2, 176252, Note_off_c, 0, 78, 100
2, 176256, Note_on_c, 0, 65, 80
2, 176256, Note_on_c, 0, 77, 80
2, 177020, Note_off_c, 0, 65, 100
2, 177020, Note_off_c, 0, 77, 100
2, 177024, Note_on_c, 0, 63, 80
2, 177024, Note_on_c, 0, 75, 80
2, 177404, Note_off_c, 0, 63, 100
2, 177404, Note_off_c, 0, 75, 100
2, 177408, Note_on_c, 0, 68, 80
2, 177408, Note_on_c, 0, 80, 80
2, 177788, Note_off_c, 0, 68, 100
2, 177788, Note_off_c, 0, 80, 100
2, 178176, Note_on_c, 0, 66, 80
2, 178176, Note_on_c, 0, 78, 80
2, 178940, Note_off_c, 0, 66, 100
2, 178940, Note_off_c, 0, 78, 100
2, 178944, Note_on_c, 0, 65, 80
2, 178944, Note_on_c, 0, 77, 80
2, 179324, Note_off_c, 0, 65, 100
2, 179324, Note_off_c, 0, 77, 100
2, 179328, Note_on_c, 0, 63, 80
2, 179328, Note_on_c, 0, 75, 80
2, 179708, Note_off_c, 0, 63, 100
2, 179708, Note_off_c, 0, 75, 100
2, 179712, Note_on_c, 0, 68, 80
2, 179712, Note_on_c, 0, 80, 80
2, 180092, Note_off_c, 0, 68, 100
2, 180092, Note_off_c, 0, 80, 100
2, 180480, Note_on_c, 0, 66, 91
2, 180480, Note_on_c, 0, 78, 91
2, 181244, Note_off_c, 0, 66, 100
2, 181244, Note_off_c, 0, 78, 100
2, 181248, Note_on_c, 0, 65, 103
2, 181248, Note_on_c, 0, 77, 103
2, 181628, Note_off_c, 0, 65, 100
2, 181628, Note_off_c, 0, 77, 100
2, 181632, Note_on_c, 0, 70, 109
2, 181632, Note_on_c, 0, 82, 109
2, 182396, Note_off_c, 0, 70, 100
2, 182396, Note_off_c, 0, 82, 100
2, 182400, Note_on_c, 0, 68, 100
2, 182400, Note_on_c, 0, 80, 100
2, 182780, Note_off_c, 0, 68, 100
2, 182780, Note_off_c, 0, 80, 100
2, 183168, Note_on_c, 0, 60, 80
2, 183168, Note_on_c, 0, 54, 80
2, 183932, Note_off_c, 0, 60, 100
2, 183936, Note_on_c, 0, 63, 80
2, 184124, Note_off_c, 0, 63, 100
2, 184128, Note_on_c, 0, 61, 80
2, 184316, Note_off_c, 0, 54, 100
2, 184316, Note_off_c, 0, 61, 100
2, 184320, Note_on_c, 0, 61, 80
2, 184320, Note_on_c, 0, 53, 80
2, 185852, Note_off_c, 0, 53, 100
2, 185852, Note_off_c, 0, 61, 100
2, 186240, Control_c, 0, 7, 0
2, 186624, Note_on_c, 0, 61, 1
2, 187004, Note_off_c, 0, 61, 100
2, 187004, End_track
3, 0, Start_track
3, 0, Title_t, "Left"
3, 0, Control_c, 1, 0, 0
3, 0, Program_c, 1, 0
3, 0, Control_c, 1, 7, 100
3, 0, Control_c, 1, 10, 59
3, 0, Control_c, 1, 91, 127
3, 0, Key_signature, -5, "major"
3, 768, Note_on_c, 1, 65, 80
3, 1148, Note_off_c, 1, 65, 100
3, 1152, Note_on_c, 1, 63, 80
3, 1916, Note_off_c, 1, 63, 100
3, 1920, Note_on_c, 1, 61, 80
3, 2300, Note_off_c, 1, 61, 100
3, 2304, Note_on_c, 1, 60, 80
3, 2684, Note_off_c, 1, 60, 100
3, 3072, Note_on_c, 1, 49, 80
3, 3072, Note_on_c, 1, 58, 80
3, 3452, Note_off_c, 1, 49, 100
3, 3452, Note_off_c, 1, 58, 100
3, 3456, Note_on_c, 1, 51, 80
3, 3456, Note_on_c, 1, 63, 80
3, 3836, Note_off_c, 1, 51, 100
3, 3836, Note_off_c, 1, 63, 100
3, 4224, Note_on_c, 1, 61, 80
3, 4224, Note_on_c, 1, 51, 80
3, 4604, Note_off_c, 1, 61, 100
3, 4604, Note_off_c, 1, 51, 100
3, 4608, Note_on_c, 1, 60, 80
3, 4608, Note_on_c, 1, 56, 80
3, 4988, Note_off_c, 1, 60, 100
3, 4988, Note_off_c, 1, 56, 100
3, 5376, Note_on_c, 1, 70, 80
3, 5756, Note_off_c, 1, 70, 100
3, 5760, Note_on_c, 1, 68, 80
3, 6524, Note_off_c, 1, 68, 100
3, 6528, Note_on_c, 1, 66, 80
3, 6908, Note_off_c, 1, 66, 100
3, 6912, Note_on_c, 1, 65, 80
3, 7292, Note_off_c, 1, 65, 100
3, 7680, Note_on_c, 1, 54, 80
3, 7680, Note_on_c, 1, 63, 80
3, 8060, Note_off_c, 1, 54, 100
3, 8060, Note_off_c, 1, 63, 100
3, 8064, Note_on_c, 1, 68, 80
3, 8064, Note_on_c, 1, 56, 80
3, 8444, Note_off_c, 1, 68, 100
3, 8444, Note_off_c, 1, 56, 100
3, 8832, Note_on_c, 1, 56, 80
3, 8832, Note_on_c, 1, 66, 80
3, 9212, Note_off_c, 1, 56, 100
3, 9212, Note_off_c, 1, 66, 100
3, 9216, Note_on_c, 1, 65, 80
3, 9216, Note_on_c, 1, 61, 80
3, 9596, Note_off_c, 1, 65, 100
3, 9596, Note_off_c, 1, 61, 100
3, 9984, Note_on_c, 1, 53, 80
3, 9984, Note_on_c, 1, 56, 80
3, 10364, Note_off_c, 1, 53, 100
3, 10364, Note_off_c, 1, 56, 100
3, 10368, Note_on_c, 1, 51, 80
3, 10368, Note_on_c, 1, 56, 80
3, 11132, Note_off_c, 1, 51, 100
3, 11132, Note_off_c, 1, 56, 100
3, 11136, Note_on_c, 1, 49, 80
3, 11136, Note_on_c, 1, 55, 80
3, 11516, Note_off_c, 1, 49, 100
3, 11516, Note_off_c, 1, 55, 100
3, 11520, Note_on_c, 1, 48, 80
3, 11520, Note_on_c, 1, 60, 80
3, 11900, Note_off_c, 1, 48, 100
3, 11900, Note_off_c, 1, 60, 100
3, 12288, Note_on_c, 1, 58, 80
3, 12288, Note_on_c, 1, 49, 80
3, 12668, Note_off_c, 1, 58, 100
3, 12668, Note_off_c, 1, 49, 100
3, 12672, Note_on_c, 1, 51, 80
3, 12672, Note_on_c, 1, 63, 80
3, 13052, Note_off_c, 1, 51, 100
3, 13052, Note_off_c, 1, 63, 100
3, 13440, Note_on_c, 1, 61, 80
3, 13440, Note_on_c, 1, 51, 80
3, 13820, Note_off_c, 1, 61, 100
3, 13820, Note_off_c, 1, 51, 100
3, 13824, Note_on_c, 1, 60, 80
3, 13824, Note_on_c, 1, 56, 80
3, 14204, Note_off_c, 1, 60, 100
3, 14204, Note_off_c, 1, 56, 100
3, 14592, Note_on_c, 1, 58, 80
3, 14592, Note_on_c, 1, 61, 80
3, 14972, Note_off_c, 1, 58, 100
3, 14972, Note_off_c, 1, 61, 100
3, 14976, Note_on_c, 1, 56, 80
3, 14976, Note_on_c, 1, 61, 80
3, 15740, Note_off_c, 1, 56, 100
3, 15740, Note_off_c, 1, 61, 100
3, 15744, Note_on_c, 1, 54, 80
3, 15744, Note_on_c, 1, 60, 80
3, 16124, Note_off_c, 1, 54, 100
3, 16124, Note_off_c, 1, 60, 100
3, 16128, Note_on_c, 1, 53, 80
3, 16128, Note_on_c, 1, 65, 80
3, 16508, Note_off_c, 1, 53, 100
3, 16508, Note_off_c, 1, 65, 100
3, 16896, Note_on_c, 1, 54, 80
3, 16896, Note_on_c, 1, 63, 80
3, 17276, Note_off_c, 1, 54, 100
3, 17276, Note_off_c, 1, 63, 100
3, 17280, Note_on_c, 1, 68, 80
3, 17280, Note_on_c, 1, 56, 80
3, 17660, Note_off_c, 1, 68, 100
3, 17660, Note_off_c, 1, 56, 100
3, 18048, Note_on_c, 1, 56, 80
3, 18048, Note_on_c, 1, 66, 80
3, 18428, Note_off_c, 1, 56, 100
3, 18428, Note_off_c, 1, 66, 100
3, 18432, Note_on_c, 1, 65, 80
3, 18432, Note_on_c, 1, 61, 80
3, 18812, Note_off_c, 1, 65, 100
3, 18812, Note_off_c, 1, 61, 100
3, 19200, Note_on_c, 1, 61, 80
3, 19580, Note_off_c, 1, 61, 100
3, 19584, Note_on_c, 1, 58, 80
3, 20348, Note_off_c, 1, 58, 100
3, 20352, Note_on_c, 1, 56, 80
3, 20732, Note_off_c, 1, 56, 100
3, 20736, Note_on_c, 1, 55, 80
3, 21116, Note_off_c, 1, 55, 100
3, 21120, Note_on_c, 1, 56, 80
3, 21500, Note_off_c, 1, 56, 100
3, 21504, Note_on_c, 1, 56, 80
3, 21884, Note_off_c, 1, 56, 100
3, 21888, Note_on_c, 1, 56, 80
3, 22652, Note_off_c, 1, 56, 100
3, 22656, Note_on_c, 1, 54, 80
3, 23036, Note_off_c, 1, 54, 100
3, 23040, Note_on_c, 1, 53, 80
3, 23420, Note_off_c, 1, 53, 100
3, 23424, Note_on_c, 1, 54, 80
3, 23804, Note_off_c, 1, 54, 100
3, 23808, Note_on_c, 1, 54, 80
3, 24188, Note_off_c, 1, 54, 100
3, 24192, Note_on_c, 1, 51, 90
3, 24192, Note_on_c, 1, 56, 90
3, 24956, Note_off_c, 1, 51, 100
3, 24956, Note_off_c, 1, 56, 100
3, 24960, Note_on_c, 1, 49, 99
3, 24960, Note_on_c, 1, 56, 99
3, 25340, Note_off_c, 1, 49, 100
3, 25340, Note_off_c, 1, 56, 100
3, 25344, Note_on_c, 1, 48, 110
3, 25344, Note_on_c, 1, 56, 110
3, 26492, Note_off_c, 1, 48, 100
3, 26492, Note_off_c, 1, 56, 100
3, 26496, Note_on_c, 1, 49, 80
3, 26496, Note_on_c, 1, 56, 80
3, 27260, Note_off_c, 1, 49, 100
3, 27260, Note_off_c, 1, 56, 100
3, 27264, Note_on_c, 1, 54, 80
3, 27264, Note_on_c, 1, 42, 80
3, 27452, Note_off_c, 1, 54, 100
3, 27456, Note_on_c, 1, 51, 80
3, 27644, Note_off_c, 1, 42, 100
3, 27644, Note_off_c, 1, 51, 100
3, 27648, Note_on_c, 1, 44, 80
3, 27648, Note_on_c, 1, 56, 80
3, 28412, Note_off_c, 1, 44, 100
3, 28412, Note_off_c, 1, 56, 100
3, 28416, Note_on_c, 1, 53, 80
3, 28416, Note_on_c, 1, 56, 80
3, 28796, Note_off_c, 1, 53, 100
3, 28796, Note_off_c, 1, 56, 100
3, 28800, Note_on_c, 1, 51, 80
3, 28800, Note_on_c, 1, 56, 80
3, 29564, Note_off_c, 1, 51, 100
3, 29564, Note_off_c, 1, 56, 100
3, 29568, Note_on_c, 1, 49, 80
3, 29568, Note_on_c, 1, 55, 80
3, 29948, Note_off_c, 1, 49, 100
3, 29948, Note_off_c, 1, 55, 100
3, 29952, Note_on_c, 1, 48, 80
3, 29952, Note_on_c, 1, 60, 80
3, 30332, Note_off_c, 1, 48, 100
3, 30332, Note_off_c, 1, 60, 100
3, 30720, Note_on_c, 1, 49, 80
3, 30720, Note_on_c, 1, 58, 80
3, 31100, Note_off_c, 1, 49, 100
3, 31100, Note_off_c, 1, 58, 100
3, 31104, Note_on_c, 1, 63, 80
3, 31104, Note_on_c, 1, 51, 80
3, 31484, Note_off_c, 1, 63, 100
3, 31484, Note_off_c, 1, 51, 100
3, 31872, Note_on_c, 1, 51, 80
3, 31872, Note_on_c, 1, 61, 80
3, 32252, Note_off_c, 1, 51, 100
3, 32252, Note_off_c, 1, 61, 100
3, 32256, Note_on_c, 1, 56, 80
3, 32256, Note_on_c, 1, 60, 80
3, 32636, Note_off_c, 1, 56, 100
3, 32636, Note_off_c, 1, 60, 100
3, 33024, Note_on_c, 1, 58, 80
3, 33024, Note_on_c, 1, 61, 80
3, 33404, Note_off_c, 1, 58, 100
3, 33404, Note_off_c, 1, 61, 100
3, 33408, Note_on_c, 1, 56, 80
3, 33408, Note_on_c, 1, 61, 80
3, 34172, Note_off_c, 1, 56, 100
3, 34172, Note_off_c, 1, 61, 100
3, 34176, Note_on_c, 1, 54, 80
3, 34176, Note_on_c, 1, 60, 80
3, 34556, Note_off_c, 1, 54, 100
3, 34556, Note_off_c, 1, 60, 100
3, 34560, Note_on_c, 1, 53, 80
3, 34560, Note_on_c, 1, 61, 80
3, 34940, Note_off_c, 1, 53, 100
3, 34940, Note_off_c, 1, 61, 100
3, 35328, Note_on_c, 1, 58, 80
3, 35328, Note_on_c, 1, 61, 80
3, 35708, Note_off_c, 1, 58, 100
3, 35708, Note_off_c, 1, 61, 100
3, 35712, Note_on_c, 1, 61, 80
3, 35712, Note_on_c, 1, 56, 80
3, 36476, Note_off_c, 1, 61, 100
3, 36476, Note_off_c, 1, 56, 100
3, 36480, Note_on_c, 1, 54, 80
3, 36480, Note_on_c, 1, 60, 80
3, 36860, Note_off_c, 1, 54, 100
3, 36860, Note_off_c, 1, 60, 100
3, 36864, Note_on_c, 1, 53, 80
3, 36864, Note_on_c, 1, 61, 80
3, 37244, Note_off_c, 1, 53, 100
3, 37244, Note_off_c, 1, 61, 100
3, 37632, Note_on_c, 1, 61, 91
3, 37632, Note_on_c, 1, 58, 91
3, 38012, Note_off_c, 1, 61, 100
3, 38012, Note_off_c, 1, 58, 100
3, 38016, Note_on_c, 1, 56, 97
3, 38016, Note_on_c, 1, 61, 97
3, 38780, Note_off_c, 1, 56, 100
3, 38780, Note_off_c, 1, 61, 100
3, 38784, Note_on_c, 1, 61, 109
3, 38784, Note_on_c, 1, 64, 109
3, 38784, Note_on_c, 1, 55, 109
3, 39164, Note_off_c, 1, 64, 100
3, 39164, Note_off_c, 1, 55, 100
3, 39168, Note_on_c, 1, 56, 100
3, 39168, Note_on_c, 1, 65, 100
3, 39548, Note_off_c, 1, 61, 100
3, 39548, Note_off_c, 1, 56, 100
3, 39548, Note_off_c, 1, 65, 100
3, 40320, Note_on_c, 1, 32, 80
3, 40320, Note_on_c, 1, 44, 80
3, 41468, Note_off_c, 1, 32, 100
3, 41468, Note_off_c, 1, 44, 100
3, 41472, Note_on_c, 1, 37, 80
3, 41472, Note_on_c, 1, 44, 80
3, 41852, Note_off_c, 1, 37, 100
3, 41852, Note_off_c, 1, 44, 100
3, 42240, Note_on_c, 1, 61, 80
3, 42620, Note_off_c, 1, 61, 100
3, 42624, Note_on_c, 1, 58, 80
3, 43388, Note_off_c, 1, 58, 100
3, 43392, Note_on_c, 1, 56, 80
3, 43772, Note_off_c, 1, 56, 100
3, 43776, Note_on_c, 1, 55, 80
3, 44156, Note_off_c, 1, 55, 100
3, 44160, Note_on_c, 1, 56, 80
3, 44540, Note_off_c, 1, 56, 100
3, 44544, Note_on_c, 1, 56, 80
3, 44924, Note_off_c, 1, 56, 100
3, 44928, Note_on_c, 1, 56, 80
3, 45692, Note_off_c, 1, 56, 100
3, 45696, Note_on_c, 1, 54, 80
3, 46076, Note_off_c, 1, 54, 100
3, 46080, Note_on_c, 1, 53, 80
3, 46460, Note_off_c, 1, 53, 100
3, 46464, Note_on_c, 1, 54, 80
3, 46844, Note_off_c, 1, 54, 100
3, 46848, Note_on_c, 1, 54, 80
3, 47228, Note_off_c, 1, 54, 100
3, 47232, Note_on_c, 1, 51, 90
3, 47232, Note_on_c, 1, 56, 90
3, 47996, Note_off_c, 1, 51, 100
3, 47996, Note_off_c, 1, 56, 100
3, 48000, Note_on_c, 1, 49, 99
3, 48000, Note_on_c, 1, 56, 99
3, 48380, Note_off_c, 1, 49, 100
3, 48380, Note_off_c, 1, 56, 100
3, 48384, Note_on_c, 1, 48, 110
3, 48384, Note_on_c, 1, 56, 110
3, 49532, Note_off_c, 1, 48, 100
3, 49532, Note_off_c, 1, 56, 100
3, 49536, Note_on_c, 1, 49, 80
3, 49536, Note_on_c, 1, 56, 80
3, 50300, Note_off_c, 1, 49, 100
3, 50300, Note_off_c, 1, 56, 100
3, 50304, Note_on_c, 1, 54, 80
3, 50304, Note_on_c, 1, 42, 80
3, 50492, Note_off_c, 1, 54, 100
3, 50496, Note_on_c, 1, 51, 80
3, 50684, Note_off_c, 1, 42, 100
3, 50684, Note_off_c, 1, 51, 100
3, 50688, Note_on_c, 1, 44, 80
3, 50688, Note_on_c, 1, 56, 80
3, 51452, Note_off_c, 1, 44, 100
3, 51452, Note_off_c, 1, 56, 100
3, 51456, Note_on_c, 1, 53, 80
3, 51456, Note_on_c, 1, 56, 80
3, 51836, Note_off_c, 1, 53, 100
3, 51836, Note_off_c, 1, 56, 100
3, 51840, Note_on_c, 1, 51, 80
3, 51840, Note_on_c, 1, 56, 80
3, 52604, Note_off_c, 1, 51, 100
3, 52604, Note_off_c, 1, 56, 100
3, 52608, Note_on_c, 1, 49, 80
3, 52608, Note_on_c, 1, 55, 80
3, 52988, Note_off_c, 1, 49, 100
3, 52988, Note_off_c, 1, 55, 100
3, 52992, Note_on_c, 1, 48, 80
3, 52992, Note_on_c, 1, 60, 80
3, 53372, Note_off_c, 1, 48, 100
3, 53372, Note_off_c, 1, 60, 100
3, 53760, Note_on_c, 1, 49, 80
3, 53760, Note_on_c, 1, 58, 80
3, 54140, Note_off_c, 1, 49, 100
3, 54140, Note_off_c, 1, 58, 100
3, 54144, Note_on_c, 1, 63, 80
3, 54144, Note_on_c, 1, 51, 80
3, 54524, Note_off_c, 1, 63, 100
3, 54524, Note_off_c, 1, 51, 100
3, 54912, Note_on_c, 1, 51, 80
3, 54912, Note_on_c, 1, 61, 80
3, 55292, Note_off_c, 1, 51, 100
3, 55292, Note_off_c, 1, 61, 100
3, 55296, Note_on_c, 1, 56, 80
3, 55296, Note_on_c, 1, 60, 80
3, 55676, Note_off_c, 1, 56, 100
3, 55676, Note_off_c, 1, 60, 100
3, 56064, Note_on_c, 1, 58, 80
3, 56064, Note_on_c, 1, 61, 80
3, 56444, Note_off_c, 1, 58, 100
3, 56444, Note_off_c, 1, 61, 100
3, 56448, Note_on_c, 1, 56, 80
3, 56448, Note_on_c, 1, 61, 80
3, 57212, Note_off_c, 1, 56, 100
3, 57212, Note_off_c, 1, 61, 100
3, 57216, Note_on_c, 1, 54, 80
3, 57216, Note_on_c, 1, 60, 80
3, 57596, Note_off_c, 1, 54, 100
3, 57596, Note_off_c, 1, 60, 100
3, 57600, Note_on_c, 1, 53, 80
3, 57600, Note_on_c, 1, 61, 80
3, 57980, Note_off_c, 1, 53, 100
3, 57980, Note_off_c, 1, 61, 100
3, 58368, Note_on_c, 1, 58, 80
3, 58368, Note_on_c, 1, 61, 80
3, 58748, Note_off_c, 1, 58, 100
3, 58748, Note_off_c, 1, 61, 100
3, 58752, Note_on_c, 1, 61, 80
3, 58752, Note_on_c, 1, 56, 80
3, 59516, Note_off_c, 1, 61, 100
3, 59516, Note_off_c, 1, 56, 100
3, 59520, Note_on_c, 1, 54, 80
3, 59520, Note_on_c, 1, 60, 80
3, 59900, Note_off_c, 1, 54, 100
3, 59900, Note_off_c, 1, 60, 100
3, 59904, Note_on_c, 1, 53, 80
3, 59904, Note_on_c, 1, 61, 80
3, 60284, Note_off_c, 1, 53, 100
3, 60284, Note_off_c, 1, 61, 100
3, 60672, Note_on_c, 1, 61, 91
3, 60672, Note_on_c, 1, 58, 91
3, 61052, Note_off_c, 1, 61, 100
3, 61052, Note_off_c, 1, 58, 100
3, 61056, Note_on_c, 1, 56, 97
3, 61056, Note_on_c, 1, 61, 97
3, 61820, Note_off_c, 1, 56, 100
3, 61820, Note_off_c, 1, 61, 100
3, 61824, Note_on_c, 1, 61, 109
3, 61824, Note_on_c, 1, 64, 109
3, 61824, Note_on_c, 1, 55, 109
3, 62204, Note_off_c, 1, 64, 100
3, 62204, Note_off_c, 1, 55, 100
3, 62208, Note_on_c, 1, 56, 100
3, 62208, Note_on_c, 1, 65, 100
3, 62588, Note_off_c, 1, 61, 100
3, 62588, Note_off_c, 1, 56, 100
3, 62588, Note_off_c, 1, 65, 100
3, 63360, Note_on_c, 1, 32, 80
3, 63360, Note_on_c, 1, 44, 80
3, 64508, Note_off_c, 1, 32, 100
3, 64508, Note_off_c, 1, 44, 100
3, 64512, Note_on_c, 1, 37, 80
3, 64512, Note_on_c, 1, 44, 80
3, 64892, Note_off_c, 1, 37, 100
3, 64892, Note_off_c, 1, 44, 100
3, 65664, Note_on_c, 1, 44, 100
3, 65664, Note_on_c, 1, 37, 100
3, 66812, Note_off_c, 1, 37, 100
3, 66816, Note_on_c, 1, 39, 100
3, 67964, Note_off_c, 1, 39, 100
3, 67968, Note_on_c, 1, 42, 100
3, 69116, Note_off_c, 1, 42, 100
3, 69120, Note_on_c, 1, 41, 100
3, 70268, Note_off_c, 1, 44, 100
3, 70268, Note_off_c, 1, 41, 100
3, 70272, Note_on_c, 1, 44, 100
3, 70272, Note_on_c, 1, 37, 100
3, 71420, Note_off_c, 1, 37, 100
3, 71424, Note_on_c, 1, 39, 80
3, 72572, Note_off_c, 1, 39, 100
3, 72576, Note_on_c, 1, 32, 80
3, 73340, Note_off_c, 1, 44, 100
3, 73340, Note_off_c, 1, 32, 100
3, 73344, Note_on_c, 1, 44, 80
3, 73728, Note_on_c, 1, 37, 80
3, 74492, Note_off_c, 1, 44, 100
3, 74492, Note_off_c, 1, 37, 100
3, 74880, Note_on_c, 1, 44, 100
3, 74880, Note_on_c, 1, 37, 100
3, 76028, Note_off_c, 1, 37, 100
3, 76032, Note_on_c, 1, 39, 100
3, 77180, Note_off_c, 1, 39, 100
3, 77184, Note_on_c, 1, 42, 100
3, 78332, Note_off_c, 1, 42, 100
3, 78336, Note_on_c, 1, 41, 100
3, 79484, Note_off_c, 1, 44, 100
3, 79484, Note_off_c, 1, 41, 100
3, 79488, Note_on_c, 1, 44, 100
3, 79488, Note_on_c, 1, 37, 100
3, 80636, Note_off_c, 1, 37, 100
3, 80640, Note_on_c, 1, 39, 80
3, 81788, Note_off_c, 1, 39, 100
3, 81792, Note_on_c, 1, 32, 80
3, 82556, Note_off_c, 1, 44, 100
3, 82556, Note_off_c, 1, 32, 100
3, 82560, Note_on_c, 1, 44, 80
3, 82944, Note_on_c, 1, 37, 75
3, 83708, Note_off_c, 1, 44, 100
3, 83708, Note_off_c, 1, 37, 100
3, 84096, Note_on_c, 1, 50, 70
3, 84096, Note_on_c, 1, 56, 70
3, 85244, Note_off_c, 1, 50, 100
3, 85244, Note_off_c, 1, 56, 100
3, 85248, Note_on_c, 1, 49, 70
3, 85248, Note_on_c, 1, 55, 70
3, 86396, Note_off_c, 1, 49, 100
3, 86396, Note_off_c, 1, 55, 100
3, 86400, Note_on_c, 1, 48, 70
3, 86400, Note_on_c, 1, 54, 70
3, 87548, Note_off_c, 1, 48, 100
3, 87548, Note_off_c, 1, 54, 100
3, 87552, Note_on_c, 1, 47, 70
3, 87552, Note_on_c, 1, 53, 70
3, 88700, Note_off_c, 1, 47, 100
3, 88700, Note_off_c, 1, 53, 100
3, 88704, Note_on_c, 1, 49, 100
3, 88704, Note_on_c, 1, 46, 100
3, 89852, Note_off_c, 1, 46, 100
3, 89856, Note_on_c, 1, 44, 80
3, 91004, Note_off_c, 1, 44, 100
3, 91008, Note_on_c, 1, 37, 80
3, 91388, Note_off_c, 1, 37, 100
3, 91392, Note_on_c, 1, 41, 80
3, 91772, Note_off_c, 1, 41, 100
3, 91776, Note_on_c, 1, 44, 80
3, 92156, Note_off_c, 1, 44, 100
3, 92160, Note_on_c, 1, 42, 80
3, 93308, Note_off_c, 1, 49, 100
3, 93308, Note_off_c, 1, 42, 100
3, 93312, Note_on_c, 1, 49, 100
3, 93312, Note_on_c, 1, 46, 100
3, 94460, Note_off_c, 1, 46, 100
3, 94464, Note_on_c, 1, 44, 80
3, 95612, Note_off_c, 1, 44, 100
3, 95616, Note_on_c, 1, 43, 80
3, 96764, Note_off_c, 1, 43, 100
3, 96768, Note_on_c, 1, 44, 80
3, 97916, Note_off_c, 1, 49, 100
3, 97916, Note_off_c, 1, 44, 100
3, 97920, Note_on_c, 1, 46, 87
3, 97920, Note_on_c, 1, 49, 87
3, 99068, Note_off_c, 1, 46, 100
3, 99072, Note_on_c, 1, 44, 109
3, 100220, Note_off_c, 1, 49, 100
3, 100224, Note_on_c, 1, 32, 80
3, 100988, Note_off_c, 1, 44, 100
3, 100988, Note_off_c, 1, 32, 100
3, 100992, Note_on_c, 1, 44, 80
3, 101372, Note_off_c, 1, 44, 100
3, 101376, Note_on_c, 1, 37, 80
3, 101756, Note_off_c, 1, 37, 100
3, 102528, Note_on_c, 1, 50, 70
3, 102528, Note_on_c, 1, 56, 70
3, 103676, Note_off_c, 1, 50, 100
3, 103676, Note_off_c, 1, 56, 100
3, 103680, Note_on_c, 1, 49, 70
3, 103680, Note_on_c, 1, 55, 70
3, 104828, Note_off_c, 1, 49, 100
3, 104828, Note_off_c, 1, 55, 100
3, 104832, Note_on_c, 1, 48, 70
3, 104832, Note_on_c, 1, 54, 70
3, 105980, Note_off_c, 1, 48, 100
3, 105980, Note_off_c, 1, 54, 100
3, 105984, Note_on_c, 1, 47, 70
3, 105984, Note_on_c, 1, 53, 70
3, 107132, Note_off_c, 1, 47, 100
3, 107132, Note_off_c, 1, 53, 100
3, 107136, Note_on_c, 1, 49, 100
3, 107136, Note_on_c, 1, 46, 100
3, 108284, Note_off_c, 1, 46, 100
3, 108288, Note_on_c, 1, 44, 80
3, 109436, Note_off_c, 1, 44, 100
3, 109440, Note_on_c, 1, 37, 80
3, 109820, Note_off_c, 1, 37, 100
3, 109824, Note_on_c, 1, 41, 80
3, 110204, Note_off_c, 1, 41, 100
3, 110208, Note_on_c, 1, 44, 80
3, 110588, Note_off_c, 1, 44, 100
3, 110592, Note_on_c, 1, 42, 80
3, 111740, Note_off_c, 1, 49, 100
3, 111740, Note_off_c, 1, 42, 100
3, 111744, Note_on_c, 1, 49, 100
3, 111744, Note_on_c, 1, 46, 100
3, 112892, Note_off_c, 1, 46, 100
3, 112896, Note_on_c, 1, 44, 80
3, 114044, Note_off_c, 1, 44, 100
3, 114048, Note_on_c, 1, 43, 80
3, 115196, Note_off_c, 1, 43, 100
3, 115200, Note_on_c, 1, 44, 80
3, 116348, Note_off_c, 1, 49, 100
3, 116348, Note_off_c, 1, 44, 100
3, 116352, Note_on_c, 1, 46, 87
3, 116352, Note_on_c, 1, 49, 87
3, 117500, Note_off_c, 1, 46, 100
3, 117504, Note_on_c, 1, 44, 109
3, 118652, Note_off_c, 1, 49, 100
3, 118656, Note_on_c, 1, 32, 80
3, 119420, Note_off_c, 1, 44, 100
3, 119420, Note_off_c, 1, 32, 100
3, 119424, Note_on_c, 1, 44, 80
3, 119804, Note_off_c, 1, 44, 100
3, 119808, Note_on_c, 1, 37, 80
3, 120188, Note_off_c, 1, 37, 100
3, 120576, Note_on_c, 1, 65, 80
3, 120956, Note_off_c, 1, 65, 100
3, 120960, Note_on_c, 1, 63, 80
3, 121724, Note_off_c, 1, 63, 100
3, 121728, Note_on_c, 1, 61, 80
3, 122108, Note_off_c, 1, 61, 100
3, 122112, Note_on_c, 1, 60, 80
3, 122492, Note_off_c, 1, 60, 100
3, 122880, Note_on_c, 1, 49, 80
3, 122880, Note_on_c, 1, 58, 80
3, 123260, Note_off_c, 1, 49, 100
3, 123260, Note_off_c, 1, 58, 100
3, 123264, Note_on_c, 1, 51, 80
3, 123264, Note_on_c, 1, 63, 80
3, 123644, Note_off_c, 1, 51, 100
3, 123644, Note_off_c, 1, 63, 100
3, 124032, Note_on_c, 1, 61, 80
3, 124032, Note_on_c, 1, 51, 80
3, 124412, Note_off_c, 1, 61, 100
3, 124412, Note_off_c, 1, 51, 100
3, 124416, Note_on_c, 1, 60, 80
3, 124416, Note_on_c, 1, 56, 80
3, 124796, Note_off_c, 1, 60, 100
3, 124796, Note_off_c, 1, 56, 100
3, 125184, Note_on_c, 1, 70, 80
3, 125564, Note_off_c, 1, 70, 100
3, 125568, Note_on_c, 1, 68, 80
3, 126332, Note_off_c, 1, 68, 100
3, 126336, Note_on_c, 1, 66, 80
3, 126716, Note_off_c, 1, 66, 100
3, 126720, Note_on_c, 1, 65, 80
3, 127100, Note_off_c, 1, 65, 100
3, 127488, Note_on_c, 1, 54, 80
3, 127488, Note_on_c, 1, 63, 80
3, 127868, Note_off_c, 1, 54, 100
3, 127868, Note_off_c, 1, 63, 100
3, 127872, Note_on_c, 1, 68, 80
3, 127872, Note_on_c, 1, 56, 80
3, 128252, Note_off_c, 1, 68, 100
3, 128252, Note_off_c, 1, 56, 100
3, 128640, Note_on_c, 1, 56, 80
3, 128640, Note_on_c, 1, 66, 80
3, 129020, Note_off_c, 1, 56, 100
3, 129020, Note_off_c, 1, 66, 100
3, 129024, Note_on_c, 1, 65, 80
3, 129024, Note_on_c, 1, 61, 80
3, 129404, Note_off_c, 1, 65, 100
3, 129404, Note_off_c, 1, 61, 100
3, 129792, Note_on_c, 1, 53, 80
3, 129792, Note_on_c, 1, 56, 80
3, 130172, Note_off_c, 1, 53, 100
3, 130172, Note_off_c, 1, 56, 100
3, 130176, Note_on_c, 1, 51, 80
3, 130176, Note_on_c, 1, 56, 80
3, 130940, Note_off_c, 1, 51, 100
3, 130940, Note_off_c, 1, 56, 100
3, 130944, Note_on_c, 1, 49, 80
3, 130944, Note_on_c, 1, 55, 80
3, 131324, Note_off_c, 1, 49, 100
3, 131324, Note_off_c, 1, 55, 100
3, 131328, Note_on_c, 1, 48, 80
3, 131328, Note_on_c, 1, 60, 80
3, 131708, Note_off_c, 1, 48, 100
3, 131708, Note_off_c, 1, 60, 100
3, 132096, Note_on_c, 1, 58, 80
3, 132096, Note_on_c, 1, 49, 80
3, 132476, Note_off_c, 1, 58, 100
3, 132476, Note_off_c, 1, 49, 100
3, 132480, Note_on_c, 1, 51, 80
3, 132480, Note_on_c, 1, 63, 80
3, 132860, Note_off_c, 1, 51, 100
3, 132860, Note_off_c, 1, 63, 100
3, 133248, Note_on_c, 1, 61, 80
3, 133248, Note_on_c, 1, 51, 80
3, 133628, Note_off_c, 1, 61, 100
3, 133628, Note_off_c, 1, 51, 100
3, 133632, Note_on_c, 1, 60, 80
3, 133632, Note_on_c, 1, 56, 80
3, 134012, Note_off_c, 1, 60, 100
3, 134012, Note_off_c, 1, 56, 100
3, 134400, Note_on_c, 1, 58, 80
3, 134400, Note_on_c, 1, 61, 80
3, 134780, Note_off_c, 1, 58, 100
3, 134780, Note_off_c, 1, 61, 100
3, 134784, Note_on_c, 1, 56, 80
3, 134784, Note_on_c, 1, 61, 80
3, 135548, Note_off_c, 1, 56, 100
3, 135548, Note_off_c, 1, 61, 100
3, 135552, Note_on_c, 1, 54, 80
3, 135552, Note_on_c, 1, 60, 80
3, 135932, Note_off_c, 1, 54, 100
3, 135932, Note_off_c, 1, 60, 100
3, 135936, Note_on_c, 1, 53, 80
3, 135936, Note_on_c, 1, 65, 80
3, 136316, Note_off_c, 1, 53, 100
3, 136316, Note_off_c, 1, 65, 100
3, 136704, Note_on_c, 1, 54, 80
3, 136704, Note_on_c, 1, 63, 80
3, 137084, Note_off_c, 1, 54, 100
3, 137084, Note_off_c, 1, 63, 100
3, 137088, Note_on_c, 1, 68, 80
3, 137088, Note_on_c, 1, 56, 80
3, 137468, Note_off_c, 1, 68, 100
3, 137468, Note_off_c, 1, 56, 100
3, 137856, Note_on_c, 1, 56, 80
3, 137856, Note_on_c, 1, 66, 80
3, 138236, Note_off_c, 1, 56, 100
3, 138236, Note_off_c, 1, 66, 100
3, 138240, Note_on_c, 1, 65, 80
3, 138240, Note_on_c, 1, 61, 80
3, 138620, Note_off_c, 1, 65, 100
3, 138620, Note_off_c, 1, 61, 100
3, 139008, Note_on_c, 1, 61, 80
3, 139388, Note_off_c, 1, 61, 100
3, 139392, Note_on_c, 1, 58, 80
3, 140156, Note_off_c, 1, 58, 100
3, 140160, Note_on_c, 1, 56, 80
3, 140540, Note_off_c, 1, 56, 100
3, 140544, Note_on_c, 1, 55, 80
3, 140924, Note_off_c, 1, 55, 100
3, 140928, Note_on_c, 1, 56, 80
3, 141308, Note_off_c, 1, 56, 100
3, 141312, Note_on_c, 1, 56, 80
3, 141692, Note_off_c, 1, 56, 100
3, 141696, Note_on_c, 1, 56, 80
3, 142460, Note_off_c, 1, 56, 100
3, 142464, Note_on_c, 1, 54, 80
3, 142844, Note_off_c, 1, 54, 100
3, 142848, Note_on_c, 1, 53, 80
3, 143228, Note_off_c, 1, 53, 100
3, 143232, Note_on_c, 1, 54, 80
3, 143612, Note_off_c, 1, 54, 100
3, 143616, Note_on_c, 1, 54, 80
3, 143996, Note_off_c, 1, 54, 100
3, 144000, Note_on_c, 1, 51, 90
3, 144000, Note_on_c, 1, 56, 90
3, 144764, Note_off_c, 1, 51, 100
3, 144764, Note_off_c, 1, 56, 100
3, 144768, Note_on_c, 1, 49, 99
3, 144768, Note_on_c, 1, 56, 99
3, 145148, Note_off_c, 1, 49, 100
3, 145148, Note_off_c, 1, 56, 100
3, 145152, Note_on_c, 1, 48, 110
3, 145152, Note_on_c, 1, 56, 110
3, 146300, Note_off_c, 1, 48, 100
3, 146300, Note_off_c, 1, 56, 100
3, 146304, Note_on_c, 1, 49, 80
3, 146304, Note_on_c, 1, 56, 80
3, 147068, Note_off_c, 1, 49, 100
3, 147068, Note_off_c, 1, 56, 100
3, 147072, Note_on_c, 1, 54, 80
3, 147072, Note_on_c, 1, 42, 80
3, 147260, Note_off_c, 1, 54, 100
3, 147264, Note_on_c, 1, 51, 80
3, 147452, Note_off_c, 1, 42, 100
3, 147452, Note_off_c, 1, 51, 100
3, 147456, Note_on_c, 1, 44, 80
3, 147456, Note_on_c, 1, 56, 80
3, 148220, Note_off_c, 1, 44, 100
3, 148220, Note_off_c, 1, 56, 100
3, 148224, Note_on_c, 1, 53, 80
3, 148224, Note_on_c, 1, 56, 80
3, 148604, Note_off_c, 1, 53, 100
3, 148604, Note_off_c, 1, 56, 100
3, 148608, Note_on_c, 1, 51, 80
3, 148608, Note_on_c, 1, 56, 80
3, 149372, Note_off_c, 1, 51, 100
3, 149372, Note_off_c, 1, 56, 100
3, 149376, Note_on_c, 1, 49, 80
3, 149376, Note_on_c, 1, 55, 80
3, 149756, Note_off_c, 1, 49, 100
3, 149756, Note_off_c, 1, 55, 100
3, 149760, Note_on_c, 1, 48, 80
3, 149760, Note_on_c, 1, 60, 80
3, 150140, Note_off_c, 1, 48, 100
3, 150140, Note_off_c, 1, 60, 100
3, 150528, Note_on_c, 1, 49, 80
3, 150528, Note_on_c, 1, 58, 80
3, 150908, Note_off_c, 1, 49, 100
3, 150908, Note_off_c, 1, 58, 100
3, 150912, Note_on_c, 1, 63, 80
3, 150912, Note_on_c, 1, 51, 80
3, 151292, Note_off_c, 1, 63, 100
3, 151292, Note_off_c, 1, 51, 100
3, 151680, Note_on_c, 1, 51, 80
3, 151680, Note_on_c, 1, 61, 80
3, 152060, Note_off_c, 1, 51, 100
3, 152060, Note_off_c, 1, 61, 100
3, 152064, Note_on_c, 1, 56, 80
3, 152064, Note_on_c, 1, 60, 80
3, 152444, Note_off_c, 1, 56, 100
3, 152444, Note_off_c, 1, 60, 100
3, 152832, Note_on_c, 1, 58, 80
3, 152832, Note_on_c, 1, 61, 80
3, 153212, Note_off_c, 1, 58, 100
3, 153212, Note_off_c, 1, 61, 100
3, 153216, Note_on_c, 1, 56, 80
3, 153216, Note_on_c, 1, 61, 80
3, 153980, Note_off_c, 1, 56, 100
3, 153980, Note_off_c, 1, 61, 100
3, 153984, Note_on_c, 1, 54, 80
3, 153984, Note_on_c, 1, 60, 80
3, 154364, Note_off_c, 1, 54, 100
3, 154364, Note_off_c, 1, 60, 100
3, 154368, Note_on_c, 1, 53, 80
3, 154368, Note_on_c, 1, 61, 80
3, 154748, Note_off_c, 1, 53, 100
3, 154748, Note_off_c, 1, 61, 100
3, 155136, Note_on_c, 1, 58, 80
3, 155136, Note_on_c, 1, 61, 80
3, 155516, Note_off_c, 1, 58, 100
3, 155516, Note_off_c, 1, 61, 100
3, 155520, Note_on_c, 1, 61, 80
3, 155520, Note_on_c, 1, 56, 80
3, 156284, Note_off_c, 1, 61, 100
3, 156284, Note_off_c, 1, 56, 100
3, 156288, Note_on_c, 1, 54, 80
3, 156288, Note_on_c, 1, 60, 80
3, 156668, Note_off_c, 1, 54, 100
3, 156668, Note_off_c, 1, 60, 100
3, 156672, Note_on_c, 1, 53, 80
3, 156672, Note_on_c, 1, 61, 80
3, 157052, Note_off_c, 1, 53, 100
3, 157052, Note_off_c, 1, 61, 100
3, 157440, Note_on_c, 1, 61, 91
3, 157440, Note_on_c, 1, 58, 91
3, 157820, Note_off_c, 1, 61, 100
3, 157820, Note_off_c, 1, 58, 100
3, 157824, Note_on_c, 1, 56, 97
3, 157824, Note_on_c, 1, 61, 97
3, 158588, Note_off_c, 1, 56, 100
3, 158588, Note_off_c, 1, 61, 100
3, 158592, Note_on_c, 1, 61, 109
3, 158592, Note_on_c, 1, 64, 109
3, 158592, Note_on_c, 1, 55, 109
3, 158972, Note_off_c, 1, 64, 100
3, 158972, Note_off_c, 1, 55, 100
3, 158976, Note_on_c, 1, 56, 100
3, 158976, Note_on_c, 1, 65, 100
3, 159356, Note_off_c, 1, 61, 100
3, 159356, Note_off_c, 1, 56, 100
3, 159356, Note_off_c, 1, 65, 100
3, 160128, Note_on_c, 1, 32, 80
3, 160128, Note_on_c, 1, 44, 80
3, 161276, Note_off_c, 1, 32, 100
3, 161276, Note_off_c, 1, 44, 100
3, 161280, Note_on_c, 1, 37, 80
3, 161280, Note_on_c, 1, 44, 80
3, 161660, Note_off_c, 1, 37, 100
3, 161660, Note_off_c, 1, 44, 100
3, 162048, Note_on_c, 1, 61, 80
3, 162428, Note_off_c, 1, 61, 100
3, 162432, Note_on_c, 1, 58, 80
3, 163196, Note_off_c, 1, 58, 100
3, 163200, Note_on_c, 1, 56, 80
3, 163580, Note_off_c, 1, 56, 100
3, 163584, Note_on_c, 1, 55, 80
3, 163964, Note_off_c, 1, 55, 100
3, 163968, Note_on_c, 1, 56, 80
3, 164348, Note_off_c, 1, 56, 100
3, 164352, Note_on_c, 1, 56, 80
3, 164732, Note_off_c, 1, 56, 100
3, 164736, Note_on_c, 1, 56, 80
3, 165500, Note_off_c, 1, 56, 100
3, 165504, Note_on_c, 1, 54, 80
3, 165884, Note_off_c, 1, 54, 100
3, 165888, Note_on_c, 1, 53, 80
3, 166268, Note_off_c, 1, 53, 100
3, 166272, Note_on_c, 1, 54, 80
3, 166652, Note_off_c, 1, 54, 100
3, 166656, Note_on_c, 1, 54, 80
3, 167036, Note_off_c, 1, 54, 100
3, 167040, Note_on_c, 1, 51, 90
3, 167040, Note_on_c, 1, 56, 90
3, 167804, Note_off_c, 1, 51, 100
3, 167804, Note_off_c, 1, 56, 100
3, 167808, Note_on_c, 1, 49, 99
3, 167808, Note_on_c, 1, 56, 99
3, 168188, Note_off_c, 1, 49, 100
3, 168188, Note_off_c, 1, 56, 100
3, 168192, Note_on_c, 1, 48, 110
3, 168192, Note_on_c, 1, 56, 110
3, 169340, Note_off_c, 1, 48, 100
3, 169340, Note_off_c, 1, 56, 100
3, 169344, Note_on_c, 1, 49, 80
3, 169344, Note_on_c, 1, 56, 80
3, 170108, Note_off_c, 1, 49, 100
3, 170108, Note_off_c, 1, 56, 100
3, 170112, Note_on_c, 1, 54, 80
3, 170112, Note_on_c, 1, 42, 80
3, 170300, Note_off_c, 1, 54, 100
3, 170304, Note_on_c, 1, 51, 80
3, 170492, Note_off_c, 1, 42, 100
3, 170492, Note_off_c, 1, 51, 100
3, 170496, Note_on_c, 1, 44, 80
3, 170496, Note_on_c, 1, 56, 80
3, 171260, Note_off_c, 1, 44, 100
3, 171260, Note_off_c, 1, 56, 100
3, 171264, Note_on_c, 1, 53, 80
3, 171264, Note_on_c, 1, 56, 80
3, 171644, Note_off_c, 1, 53, 100
3, 171644, Note_off_c, 1, 56, 100
3, 171648, Note_on_c, 1, 51, 80
3, 171648, Note_on_c, 1, 56, 80
3, 172412, Note_off_c, 1, 51, 100
3, 172412, Note_off_c, 1, 56, 100
3, 172416, Note_on_c, 1, 49, 80
3, 172416, Note_on_c, 1, 55, 80
3, 172796, Note_off_c, 1, 49, 100
3, 172796, Note_off_c, 1, 55, 100
3, 172800, Note_on_c, 1, 48, 80
3, 172800, Note_on_c, 1, 60, 80
3, 173180, Note_off_c, 1, 48, 100
3, 173180, Note_off_c, 1, 60, 100
3, 173568, Note_on_c, 1, 49, 80
3, 173568, Note_on_c, 1, 58, 80
3, 173948, Note_off_c, 1, 49, 100
3, 173948, Note_off_c, 1, 58, 100
3, 173952, Note_on_c, 1, 63, 80
3, 173952, Note_on_c, 1, 51, 80
3, 174332, Note_off_c, 1, 63, 100
3, 174332, Note_off_c, 1, 51, 100
3, 174720, Note_on_c, 1, 51, 80
3, 174720, Note_on_c, 1, 61, 80
3, 175100, Note_off_c, 1, 51, 100
3, 175100, Note_off_c, 1, 61, 100
3, 175104, Note_on_c, 1, 56, 80
3, 175104, Note_on_c, 1, 60, 80
3, 175484, Note_off_c, 1, 56, 100
3, 175484, Note_off_c, 1, 60, 100
3, 175872, Note_on_c, 1, 58, 80
3, 175872, Note_on_c, 1, 61, 80
3, 176252, Note_off_c, 1, 58, 100
3, 176252, Note_off_c, 1, 61, 100
3, 176256, Note_on_c, 1, 56, 80
3, 176256, Note_on_c, 1, 61, 80
3, 177020, Note_off_c, 1, 56, 100
3, 177020, Note_off_c, 1, 61, 100
3, 177024, Note_on_c, 1, 54, 80
3, 177024, Note_on_c, 1, 60, 80
3, 177404, Note_off_c, 1, 54, 100
3, 177404, Note_off_c, 1, 60, 100
3, 177408, Note_on_c, 1, 53, 80
3, 177408, Note_on_c, 1, 61, 80
3, 177788, Note_off_c, 1, 53, 100
3, 177788, Note_off_c, 1, 61, 100
3, 178176, Note_on_c, 1, 58, 80
3, 178176, Note_on_c, 1, 61, 80
3, 178556, Note_off_c, 1, 58, 100
3, 178556, Note_off_c, 1, 61, 100
3, 178560, Note_on_c, 1, 61, 80
3, 178560, Note_on_c, 1, 56, 80
3, 179324, Note_off_c, 1, 61, 100
3, 179324, Note_off_c, 1, 56, 100
3, 179328, Note_on_c, 1, 54, 80
3, 179328, Note_on_c, 1, 60, 80
3, 179708, Note_off_c, 1, 54, 100
3, 179708, Note_off_c, 1, 60, 100
3, 179712, Note_on_c, 1, 53, 80
3, 179712, Note_on_c, 1, 61, 80
3, 180092, Note_off_c, 1, 53, 100
3, 180092, Note_off_c, 1, 61, 100
3, 180480, Note_on_c, 1, 61, 91
3, 180480, Note_on_c, 1, 58, 91
3, 180860, Note_off_c, 1, 61, 100
3, 180860, Note_off_c, 1, 58, 100
3, 180864, Note_on_c, 1, 56, 97
3, 180864, Note_on_c, 1, 61, 97
3, 181628, Note_off_c, 1, 56, 100
3, 181628, Note_off_c, 1, 61, 100
3, 181632, Note_on_c, 1, 61, 109
3, 181632, Note_on_c, 1, 64, 109
3, 181632, Note_on_c, 1, 55, 109
3, 182012, Note_off_c, 1, 64, 100
3, 182012, Note_off_c, 1, 55, 100
3, 182016, Note_on_c, 1, 56, 100
3, 182016, Note_on_c, 1, 65, 100
3, 182396, Note_off_c, 1, 61, 100
3, 182396, Note_off_c, 1, 56, 100
3, 182396, Note_off_c, 1, 65, 100
3, 183168, Note_on_c, 1, 32, 80
3, 183168, Note_on_c, 1, 44, 80
3, 184316, Note_off_c, 1, 32, 100
3, 184316, Note_off_c, 1, 44, 100
3, 184320, Note_on_c, 1, 44, 80
3, 184320, Note_on_c, 1, 37, 80
3, 185852, Note_off_c, 1, 37, 100
3, 185852, Note_off_c, 1, 44, 100
3, 185852, End_track
0, 0, End_of_file
