0, 0, Header, 1, 5, 384
1, 0, Start_track
1, 0, Time_signature, 4, 2, 96, 8
1, 0, Sequencer_specific, 5, 0, 0, 119, 14, 1
1, 0, Tempo, 1052631
1, 1152, Tempo, 1071428
1, 1344, Tempo, 1111111
1, 1536, Tempo, 1052631
1, 2304, Tempo, 1071428
1, 2688, Tempo, 1090909
1, 2880, Tempo, 1153846
1, 3072, Tempo, 1052631
1, 5376, Tempo, 1071428
1, 5568, Tempo, 1090909
1, 5760, Tempo, 1132075
1, 5952, Tempo, 1200000
1, 6144, Tempo, 1052631
1, 6912, Tempo, 1111111
1, 7488, Tempo, 1250000
1, 7680, Tempo, 1052631
1, 8448, Tempo, 1111111
1, 9024, Tempo, 1250000
1, 9216, Tempo, 1052631
1, 9600, Tempo, 1071428
1, 9792, Tempo, 1200000
1, 9984, Tempo, 1071428
1, 10368, Tempo, 1111111
1, 10752, Tempo, 1071428
1, 11904, Tempo, 1111111
1, 12096, Tempo, 1200000
1, 12288, Tempo, 1052631
1, 13632, Tempo, 1090909
1, 15168, Tempo, 1153846
1, 15360, Tempo, 1052631
1, 16512, Tempo, 1111111
1, 16704, Tempo, 1200000
1, 16896, Tempo, 1071428
1, 18048, Tempo, 1153846
1, 18432, Tempo, 1071428
1, 21120, Tempo, 1111111
1, 21312, Tempo, 1250000
1, 21696, Tempo, 1111111
1, 22272, Tempo, 1052631
1, 23808, Tempo, 1071428
1, 24192, Tempo, 1111111
1, 24384, Tempo, 1200000
1, 24768, Tempo, 1071428
1, 27072, Tempo, 1111111
1, 27264, Tempo, 1153846
1, 27456, Tempo, 1304347
1, 27648, Tempo, 1200000
1, 27840, Tempo, 1071428
1, 28416, Tempo, 1090909
1, 28800, Tempo, 1132075
1, 28992, Tempo, 1250000
1, 29184, Tempo, 1153846
1, 29376, Tempo, 1111111
1, 31488, Tempo, 1153846
1, 31872, Tempo, 1200000
1, 32064, Tempo, 1304347
1, 32256, Tempo, 1200000
1, 32448, Tempo, 1111111
1, 33024, Tempo, 1132075
1, 33408, Tempo, 1200000
1, 33600, Tempo, 1363636
1, 33792, Tempo, 1153846
1, 33984, Tempo, 1052631
1, 34944, Tempo, 1153846
1, 35136, Tempo, 1250000
1, 35328, Tempo, 1153846
1, 35520, Tempo, 1090909
1, 37632, Tempo, 1153846
1, 38016, Tempo, 1250000
1, 38208, Tempo, 1500000
1, 38592, Tempo, 1200000
1, 38784, Tempo, 1111111
1, 41088, Tempo, 1153846
1, 41280, Tempo, 1333333
1, 41664, Tempo, 1090909
1, 41856, Tempo, 1052631
1, 44160, Tempo, 1111111
1, 44352, Tempo, 1363636
1, 44544, Tempo, 1200000
1, 44736, Tempo, 1052631
1, 45696, Tempo, 1200000
1, 45888, Tempo, 1363636
1, 46080, Tempo, 1200000
1, 46272, Tempo, 1132075
1, 47232, Tempo, 1176470
1, 47424, Tempo, 1500000
1, 47808, Tempo, 1071428
1, 48768, Tempo, 1200000
1, 48960, Tempo, 1500000
1, 49344, Tempo, 1052631
1, 50304, Tempo, 1153846
1, 50496, Tempo, 1500000
1, 50880, Tempo, 1132075
1, 51072, Tempo, 1052631
1, 51840, Tempo, 1200000
1, 52032, Tempo, 1500000
1, 52224, Tempo, 1333333
1, 52416, Tempo, 1200000
1, 52608, Tempo, 1111111
1, 56064, Tempo, 1111111
1, 56448, Tempo, 1200000
1, 56640, Tempo, 1500000
1, 56832, Tempo, 1200000
1, 57024, Tempo, 1052631
1, 57984, Tempo, 1304347
1, 58176, Tempo, 1363636
1, 58368, Tempo, 1200000
1, 58560, Tempo, 1132075
1, 59520, Tempo, 1200000
1, 59712, Tempo, 1363636
1, 59904, Tempo, 1250000
1, 60096, Tempo, 1153846
1, 60288, Tempo, 1090909
1, 60480, Tempo, 1200000
1, 60864, Tempo, 1071428
1, 62208, Tempo, 1090909
1, 62592, Tempo, 1153846
1, 62784, Tempo, 1363636
1, 62976, Tempo, 1200000
1, 63168, Tempo, 1111111
1, 63360, Tempo, 1052631
1, 64128, Tempo, 1132075
1, 64320, Tempo, 1250000
1, 64704, Tempo, 1052631
1, 65664, Tempo, 1153846
1, 65856, Tempo, 1250000
1, 66240, Tempo, 1052631
1, 68352, Tempo, 1111111
1, 68736, Tempo, 1200000
1, 68928, Tempo, 1363636
1, 69120, Tempo, 1250000
1, 69312, Tempo, 1153846
1, 69504, Tempo, 1071428
1, 71424, Tempo, 1111111
1, 71808, Tempo, 1200000
1, 72000, Tempo, 1304347
1, 72192, Tempo, 1200000
1, 72384, Tempo, 1111111
1, 73344, Tempo, 1200000
1, 73536, Tempo, 1428571
1, 73920, Tempo, 1052631
1, 75072, Tempo, 1111111
1, 75456, Tempo, 1052631
1, 75840, Tempo, 1111111
1, 76224, Tempo, 1071428
1, 76416, Tempo, 1200000
1, 76608, Tempo, 1363636
1, 76800, Tempo, 1153846
1, 77184, Tempo, 1090909
1, 77568, Tempo, 1052631
1, 79104, Tempo, 1132075
1, 79488, Tempo, 1250000
1, 79680, Tempo, 1363636
1, 79872, Tempo, 1500000
1, 80064, Tempo, 1111111
1, 82176, Tempo, 1153846
1, 82560, Tempo, 1200000
1, 82752, Tempo, 1500000
1, 82944, Tempo, 1363636
1, 83136, Tempo, 1200000
1, 83328, Tempo, 1071428
1, 84288, Tempo, 1111111
1, 84672, Tempo, 1052631
1, 85248, Tempo, 1200000
1, 85440, Tempo, 1304347
1, 85632, Tempo, 1111111
1, 87168, Tempo, 1153846
1, 87360, Tempo, 1304347
1, 87552, Tempo, 1200000
1, 87744, Tempo, 1111111
1, 90240, Tempo, 1200000
1, 90432, Tempo, 1500000
1, 90624, Tempo, 1200000
1, 90816, Tempo, 1132075
1, 91008, Tempo, 1090909
1, 96384, Tempo, 1304347
1, 96576, Tempo, 1500000
1, 96768, Tempo, 1200000
1, 96960, Tempo, 1090909
1, 98688, Tempo, 1132075
1, 99072, Tempo, 1200000
1, 99456, Tempo, 1276595
1, 99648, Tempo, 1428571
1, 100032, Tempo, 1111111
1, 101568, Tempo, 1153846
1, 102336, Tempo, 1200000
1, 102528, Tempo, 1304347
1, 102720, Tempo, 2000000
1, 102912, Tempo, 1333333
1, 103680, Tempo, 1500000
1, 103680, End_track
2, 0, Start_track
2, 0, Title_t, "1mov - Piano Sonata No.14 C# Minor"
2, 0, End_track
3, 0, Start_track
3, 0, Title_t, "Klavier Right"
3, 0, Control_c, 0, 0, 0
3, 0, Program_c, 0, 0
3, 0, Control_c, 0, 7, 100
3, 0, Control_c, 0, 10, 64
3, 0, Control_c, 0, 91, 127
3, 0, Key_signature, 4, "major"
3, 0, Control_c, 0, 64, 127
3, 4, Note_on_c, 0, 56, 70
3, 128, Note_on_c, 0, 61, 70
3, 256, Note_off_c, 0, 56, 100
3, 256, Note_on_c, 0, 64, 70
3, 380, Note_off_c, 0, 61, 100
3, 384, Note_on_c, 0, 56, 70
3, 508, Note_off_c, 0, 64, 100
3, 512, Note_on_c, 0, 61, 70
3, 636, Note_off_c, 0, 56, 100
3, 640, Note_on_c, 0, 64, 70
3, 764, Note_off_c, 0, 61, 100
3, 768, Note_on_c, 0, 56, 70
3, 892, Note_off_c, 0, 64, 100
3, 896, Note_on_c, 0, 61, 70
3, 1020, Note_off_c, 0, 56, 100
3, 1024, Note_on_c, 0, 64, 70
3, 1148, Note_off_c, 0, 61, 100
3, 1152, Note_on_c, 0, 56, 70
3, 1276, Note_off_c, 0, 64, 100
3, 1280, Note_on_c, 0, 61, 70
3, 1404, Note_off_c, 0, 56, 100
3, 1408, Note_on_c, 0, 64, 70
3, 1528, Control_c, 0, 64, 0
3, 1532, Note_off_c, 0, 61, 100
3, 1536, Control_c, 0, 64, 127
3, 1536, Note_on_c, 0, 56, 70
3, 1660, Note_off_c, 0, 64, 100
3, 1664, Note_on_c, 0, 61, 70
3, 1788, Note_off_c, 0, 56, 100
3, 1792, Note_on_c, 0, 64, 70
3, 1916, Note_off_c, 0, 61, 100
3, 1920, Note_on_c, 0, 56, 70
3, 2044, Note_off_c, 0, 64, 100
3, 2048, Note_on_c, 0, 61, 70
3, 2172, Note_off_c, 0, 56, 100
3, 2176, Note_on_c, 0, 64, 70
3, 2300, Note_off_c, 0, 61, 100
3, 2304, Note_on_c, 0, 56, 70
3, 2428, Note_off_c, 0, 64, 100
3, 2432, Note_on_c, 0, 61, 70
3, 2556, Note_off_c, 0, 56, 100
3, 2560, Note_on_c, 0, 64, 70
3, 2684, Note_off_c, 0, 61, 100
3, 2688, Note_on_c, 0, 56, 70
3, 2812, Note_off_c, 0, 64, 100
3, 2816, Note_on_c, 0, 61, 70
3, 2940, Note_off_c, 0, 56, 100
3, 2944, Note_on_c, 0, 64, 70
3, 3064, Control_c, 0, 64, 0
3, 3068, Note_off_c, 0, 61, 100
3, 3068, Note_off_c, 0, 64, 100
3, 3072, Control_c, 0, 64, 127
3, 3072, Note_on_c, 0, 57, 70
3, 3200, Note_on_c, 0, 61, 70
3, 3324, Note_off_c, 0, 57, 100
3, 3328, Note_on_c, 0, 64, 70
3, 3452, Note_off_c, 0, 61, 100
3, 3456, Note_on_c, 0, 57, 70
3, 3580, Note_off_c, 0, 64, 100
3, 3584, Note_on_c, 0, 61, 70
3, 3708, Note_off_c, 0, 57, 100
3, 3712, Note_on_c, 0, 64, 70
3, 3832, Control_c, 0, 64, 0
3, 3836, Note_off_c, 0, 61, 100
3, 3840, Control_c, 0, 64, 127
3, 3840, Note_on_c, 0, 57, 70
3, 3964, Note_off_c, 0, 64, 100
3, 3968, Note_on_c, 0, 62, 70
3, 4092, Note_off_c, 0, 57, 100
3, 4096, Note_on_c, 0, 66, 70
3, 4220, Note_off_c, 0, 62, 100
3, 4224, Note_on_c, 0, 57, 70
3, 4348, Note_off_c, 0, 66, 100
3, 4352, Note_on_c, 0, 62, 70
3, 4476, Note_off_c, 0, 57, 100
3, 4480, Note_on_c, 0, 66, 70
3, 4600, Control_c, 0, 64, 0
3, 4604, Note_off_c, 0, 62, 100
3, 4604, Note_off_c, 0, 66, 100
3, 4608, Control_c, 0, 64, 127
3, 4608, Note_on_c, 0, 56, 70
3, 4736, Note_on_c, 0, 60, 70
3, 4860, Note_off_c, 0, 56, 100
3, 4864, Note_on_c, 0, 66, 70
3, 4988, Note_off_c, 0, 60, 100
3, 4992, Note_on_c, 0, 56, 70
3, 5116, Note_off_c, 0, 66, 100
3, 5120, Note_on_c, 0, 60, 70
3, 5244, Note_off_c, 0, 56, 100
3, 5248, Note_on_c, 0, 66, 70
3, 5368, Control_c, 0, 64, 0
3, 5372, Note_off_c, 0, 60, 100
3, 5376, Control_c, 0, 64, 127
3, 5376, Note_on_c, 0, 56, 70
3, 5500, Note_off_c, 0, 66, 100
3, 5504, Note_on_c, 0, 61, 70
3, 5628, Note_off_c, 0, 56, 100
3, 5632, Note_on_c, 0, 63, 70
3, 5756, Note_off_c, 0, 61, 100
3, 5760, Note_on_c, 0, 54, 70
3, 5884, Note_off_c, 0, 63, 100
3, 5888, Note_on_c, 0, 60, 70
3, 6012, Note_off_c, 0, 54, 100
3, 6016, Note_on_c, 0, 63, 70
3, 6136, Control_c, 0, 64, 0
3, 6140, Note_off_c, 0, 60, 100
3, 6140, Note_off_c, 0, 63, 100
3, 6144, Control_c, 0, 64, 127
3, 6144, Note_on_c, 0, 52, 70
3, 6272, Note_on_c, 0, 56, 70
3, 6396, Note_off_c, 0, 52, 100
3, 6400, Note_on_c, 0, 61, 70
3, 6524, Note_off_c, 0, 56, 100
3, 6528, Note_on_c, 0, 56, 70
3, 6652, Note_off_c, 0, 61, 100
3, 6656, Note_on_c, 0, 61, 70
3, 6780, Note_off_c, 0, 56, 100
3, 6784, Note_on_c, 0, 64, 70
3, 6908, Note_off_c, 0, 61, 100
3, 6912, Note_on_c, 0, 56, 70
3, 7036, Note_off_c, 0, 64, 100
3, 7040, Note_on_c, 0, 61, 70
3, 7164, Note_off_c, 0, 56, 100
3, 7168, Note_on_c, 0, 64, 70
3, 7292, Note_off_c, 0, 61, 100
3, 7296, Note_on_c, 0, 56, 70
3, 7420, Note_off_c, 0, 64, 100
3, 7424, Note_on_c, 0, 61, 70
3, 7548, Note_off_c, 0, 56, 100
3, 7552, Note_on_c, 0, 64, 70
3, 7672, Control_c, 0, 64, 0
3, 7676, Note_off_c, 0, 61, 100
3, 7676, Note_off_c, 0, 64, 100
3, 7680, Control_c, 0, 64, 127
3, 7680, Note_on_c, 0, 56, 70
3, 7808, Note_on_c, 0, 63, 70
3, 7932, Note_off_c, 0, 56, 100
3, 7936, Note_on_c, 0, 66, 70
3, 8060, Note_off_c, 0, 63, 100
3, 8064, Note_on_c, 0, 56, 70
3, 8188, Note_off_c, 0, 66, 100
3, 8192, Note_on_c, 0, 63, 70
3, 8316, Note_off_c, 0, 56, 100
3, 8320, Note_on_c, 0, 66, 70
3, 8444, Note_off_c, 0, 63, 100
3, 8448, Note_on_c, 0, 56, 70
3, 8572, Note_off_c, 0, 66, 100
3, 8576, Note_on_c, 0, 63, 70
3, 8700, Note_off_c, 0, 56, 100
3, 8704, Note_on_c, 0, 66, 70
3, 8828, Note_off_c, 0, 63, 100
3, 8832, Note_on_c, 0, 56, 70
3, 8956, Note_off_c, 0, 66, 100
3, 8960, Note_on_c, 0, 63, 70
3, 9084, Note_off_c, 0, 56, 100
3, 9088, Note_on_c, 0, 66, 70
3, 9208, Control_c, 0, 64, 0
3, 9212, Note_off_c, 0, 63, 100
3, 9212, Note_off_c, 0, 66, 100
3, 9216, Control_c, 0, 64, 127
3, 9216, Note_on_c, 0, 56, 70
3, 9344, Note_on_c, 0, 61, 70
3, 9468, Note_off_c, 0, 56, 100
3, 9472, Note_on_c, 0, 64, 70
3, 9596, Note_off_c, 0, 61, 100
3, 9600, Note_on_c, 0, 56, 70
3, 9724, Note_off_c, 0, 64, 100
3, 9728, Note_on_c, 0, 61, 70
3, 9852, Note_off_c, 0, 56, 100
3, 9856, Note_on_c, 0, 64, 70
3, 9976, Control_c, 0, 64, 0
3, 9980, Note_off_c, 0, 61, 100
3, 9984, Control_c, 0, 64, 127
3, 9984, Note_on_c, 0, 57, 70
3, 10108, Note_off_c, 0, 64, 100
3, 10112, Note_on_c, 0, 61, 70
3, 10236, Note_off_c, 0, 57, 100
3, 10240, Note_on_c, 0, 66, 70
3, 10364, Note_off_c, 0, 61, 100
3, 10368, Note_on_c, 0, 57, 70
3, 10492, Note_off_c, 0, 66, 100
3, 10496, Note_on_c, 0, 61, 70
3, 10620, Note_off_c, 0, 57, 100
3, 10624, Note_on_c, 0, 66, 70
3, 10744, Control_c, 0, 64, 0
3, 10748, Note_off_c, 0, 61, 100
3, 10748, Note_off_c, 0, 66, 100
3, 10752, Control_c, 0, 64, 127
3, 10752, Note_on_c, 0, 56, 70
3, 10880, Note_on_c, 0, 59, 70
3, 11004, Note_off_c, 0, 56, 100
3, 11008, Note_on_c, 0, 64, 70
3, 11132, Note_off_c, 0, 59, 100
3, 11136, Note_on_c, 0, 56, 70
3, 11260, Note_off_c, 0, 64, 100
3, 11264, Note_on_c, 0, 59, 70
3, 11388, Note_off_c, 0, 56, 100
3, 11392, Note_on_c, 0, 64, 70
3, 11512, Control_c, 0, 64, 0
3, 11516, Note_off_c, 0, 59, 100
3, 11520, Control_c, 0, 64, 127
3, 11520, Note_on_c, 0, 57, 70
3, 11644, Note_off_c, 0, 64, 100
3, 11648, Note_on_c, 0, 59, 70
3, 11772, Note_off_c, 0, 57, 100
3, 11776, Note_on_c, 0, 63, 70
3, 11900, Note_off_c, 0, 59, 100
3, 11904, Note_on_c, 0, 57, 70
3, 12028, Note_off_c, 0, 63, 100
3, 12032, Note_on_c, 0, 59, 70
3, 12156, Note_off_c, 0, 57, 100
3, 12160, Note_on_c, 0, 63, 70
3, 12280, Control_c, 0, 64, 0
3, 12284, Note_off_c, 0, 59, 100
3, 12284, Note_off_c, 0, 63, 100
3, 12288, Control_c, 0, 64, 127
3, 12288, Note_on_c, 0, 56, 70
3, 12416, Note_on_c, 0, 59, 70
3, 12540, Note_off_c, 0, 56, 100
3, 12544, Note_on_c, 0, 64, 70
3, 12668, Note_off_c, 0, 59, 100
3, 12672, Note_on_c, 0, 56, 70
3, 12796, Note_off_c, 0, 64, 100
3, 12800, Note_on_c, 0, 59, 70
3, 12924, Note_off_c, 0, 56, 100
3, 12928, Note_on_c, 0, 64, 70
3, 13052, Note_off_c, 0, 59, 100
3, 13056, Note_on_c, 0, 56, 70
3, 13180, Note_off_c, 0, 64, 100
3, 13184, Note_on_c, 0, 59, 70
3, 13308, Note_off_c, 0, 56, 100
3, 13312, Note_on_c, 0, 64, 70
3, 13436, Note_off_c, 0, 59, 100
3, 13440, Note_on_c, 0, 56, 70
3, 13564, Note_off_c, 0, 64, 100
3, 13568, Note_on_c, 0, 59, 70
3, 13692, Note_off_c, 0, 56, 100
3, 13696, Note_on_c, 0, 64, 70
3, 13816, Control_c, 0, 64, 0
3, 13820, Note_off_c, 0, 59, 100
3, 13820, Note_off_c, 0, 64, 100
3, 13824, Control_c, 0, 64, 127
3, 13824, Note_on_c, 0, 55, 70
3, 13952, Note_on_c, 0, 59, 70
3, 14076, Note_off_c, 0, 55, 100
3, 14080, Note_on_c, 0, 64, 70
3, 14204, Note_off_c, 0, 59, 100
3, 14208, Note_on_c, 0, 55, 70
3, 14332, Note_off_c, 0, 64, 100
3, 14336, Note_on_c, 0, 59, 70
3, 14460, Note_off_c, 0, 55, 100
3, 14464, Note_on_c, 0, 64, 70
3, 14588, Note_off_c, 0, 59, 100
3, 14592, Note_on_c, 0, 55, 70
3, 14716, Note_off_c, 0, 64, 100
3, 14720, Note_on_c, 0, 59, 70
3, 14844, Note_off_c, 0, 55, 100
3, 14848, Note_on_c, 0, 64, 70
3, 14972, Note_off_c, 0, 59, 100
3, 14976, Note_on_c, 0, 55, 70
3, 15100, Note_off_c, 0, 64, 100
3, 15104, Note_on_c, 0, 59, 70
3, 15228, Note_off_c, 0, 55, 100
3, 15232, Note_on_c, 0, 64, 70
3, 15352, Control_c, 0, 64, 0
3, 15356, Note_off_c, 0, 59, 100
3, 15356, Note_off_c, 0, 64, 100
3, 15360, Control_c, 0, 64, 127
3, 15360, Note_on_c, 0, 55, 70
3, 15488, Note_on_c, 0, 59, 70
3, 15612, Note_off_c, 0, 55, 100
3, 15616, Note_on_c, 0, 65, 70
3, 15740, Note_off_c, 0, 59, 100
3, 15744, Note_on_c, 0, 55, 70
3, 15868, Note_off_c, 0, 65, 100
3, 15872, Note_on_c, 0, 59, 70
3, 15996, Note_off_c, 0, 55, 100
3, 16000, Note_on_c, 0, 65, 70
3, 16124, Note_off_c, 0, 59, 100
3, 16128, Note_on_c, 0, 55, 70
3, 16252, Note_off_c, 0, 65, 100
3, 16256, Note_on_c, 0, 59, 70
3, 16380, Note_off_c, 0, 55, 100
3, 16384, Note_on_c, 0, 65, 70
3, 16508, Note_off_c, 0, 59, 100
3, 16512, Note_on_c, 0, 55, 70
3, 16636, Note_off_c, 0, 65, 100
3, 16640, Note_on_c, 0, 59, 70
3, 16764, Note_off_c, 0, 55, 100
3, 16768, Note_on_c, 0, 65, 70
3, 16888, Control_c, 0, 64, 0
3, 16892, Note_off_c, 0, 59, 100
3, 16892, Note_off_c, 0, 65, 100
3, 16896, Control_c, 0, 64, 127
3, 16896, Note_on_c, 0, 55, 70
3, 17024, Note_on_c, 0, 60, 70
3, 17148, Note_off_c, 0, 55, 100
3, 17152, Note_on_c, 0, 64, 70
3, 17276, Note_off_c, 0, 60, 100
3, 17280, Note_on_c, 0, 55, 70
3, 17404, Note_off_c, 0, 64, 100
3, 17408, Note_on_c, 0, 59, 70
3, 17532, Note_off_c, 0, 55, 100
3, 17536, Note_on_c, 0, 64, 70
3, 17656, Control_c, 0, 64, 0
3, 17660, Note_off_c, 0, 59, 100
3, 17664, Control_c, 0, 64, 127
3, 17664, Note_on_c, 0, 55, 70
3, 17788, Note_off_c, 0, 64, 100
3, 17792, Note_on_c, 0, 61, 70
3, 17916, Note_off_c, 0, 55, 100
3, 17920, Note_on_c, 0, 64, 70
3, 18044, Note_off_c, 0, 61, 100
3, 18048, Note_on_c, 0, 54, 70
3, 18172, Note_off_c, 0, 64, 100
3, 18176, Note_on_c, 0, 61, 70
3, 18300, Note_off_c, 0, 54, 100
3, 18304, Note_on_c, 0, 64, 70
3, 18424, Control_c, 0, 64, 0
3, 18428, Note_off_c, 0, 61, 100
3, 18428, Note_off_c, 0, 64, 100
3, 18432, Control_c, 0, 64, 127
3, 18432, Note_on_c, 0, 54, 70
3, 18560, Note_on_c, 0, 59, 70
3, 18684, Note_off_c, 0, 54, 100
3, 18688, Note_on_c, 0, 62, 70
3, 18812, Note_off_c, 0, 59, 100
3, 18816, Note_on_c, 0, 54, 70
3, 18940, Note_off_c, 0, 62, 100
3, 18944, Note_on_c, 0, 59, 70
3, 19068, Note_off_c, 0, 54, 100
3, 19072, Note_on_c, 0, 62, 70
3, 19192, Control_c, 0, 64, 0
3, 19196, Note_off_c, 0, 59, 100
3, 19200, Control_c, 0, 64, 127
3, 19200, Note_on_c, 0, 55, 70
3, 19324, Note_off_c, 0, 62, 100
3, 19328, Note_on_c, 0, 59, 70
3, 19452, Note_off_c, 0, 55, 100
3, 19456, Note_on_c, 0, 61, 70
3, 19580, Note_off_c, 0, 59, 100
3, 19584, Note_on_c, 0, 52, 70
3, 19708, Note_off_c, 0, 61, 100
3, 19712, Note_on_c, 0, 59, 70
3, 19836, Note_off_c, 0, 52, 100
3, 19840, Note_on_c, 0, 61, 70
3, 19960, Control_c, 0, 64, 0
3, 19964, Note_off_c, 0, 59, 100
3, 19964, Note_off_c, 0, 61, 100
3, 19968, Control_c, 0, 64, 127
3, 19968, Note_on_c, 0, 54, 70
3, 20096, Note_on_c, 0, 59, 70
3, 20220, Note_off_c, 0, 54, 100
3, 20224, Note_on_c, 0, 62, 70
3, 20348, Note_off_c, 0, 59, 100
3, 20352, Note_on_c, 0, 54, 70
3, 20476, Note_off_c, 0, 62, 100
3, 20480, Note_on_c, 0, 59, 70
3, 20604, Note_off_c, 0, 54, 100
3, 20608, Note_on_c, 0, 62, 70
3, 20728, Control_c, 0, 64, 0
3, 20732, Note_off_c, 0, 59, 100
3, 20736, Control_c, 0, 64, 127
3, 20736, Note_on_c, 0, 54, 70
3, 20860, Note_off_c, 0, 62, 100
3, 20864, Note_on_c, 0, 58, 70
3, 20988, Note_off_c, 0, 54, 100
3, 20992, Note_on_c, 0, 61, 70
3, 21116, Note_off_c, 0, 58, 100
3, 21120, Note_on_c, 0, 54, 70
3, 21244, Note_off_c, 0, 61, 100
3, 21248, Note_on_c, 0, 58, 70
3, 21372, Note_off_c, 0, 54, 100
3, 21376, Note_on_c, 0, 61, 70
3, 21496, Control_c, 0, 64, 0
3, 21500, Note_off_c, 0, 58, 100
3, 21500, Note_off_c, 0, 61, 100
3, 21504, Control_c, 0, 64, 127
3, 21504, Note_on_c, 0, 59, 70
3, 21632, Note_on_c, 0, 62, 70
3, 21756, Note_off_c, 0, 59, 100
3, 21760, Note_on_c, 0, 66, 70
3, 21884, Note_off_c, 0, 62, 100
3, 21888, Note_on_c, 0, 59, 70
3, 22012, Note_off_c, 0, 66, 100
3, 22016, Note_on_c, 0, 62, 70
3, 22140, Note_off_c, 0, 59, 100
3, 22144, Note_on_c, 0, 66, 70
3, 22268, Note_off_c, 0, 62, 100
3, 22272, Note_on_c, 0, 59, 70
3, 22396, Note_off_c, 0, 66, 100
3, 22400, Note_on_c, 0, 63, 70
3, 22524, Note_off_c, 0, 59, 100
3, 22528, Note_on_c, 0, 66, 70
3, 22652, Note_off_c, 0, 63, 100
3, 22656, Note_on_c, 0, 59, 70
3, 22780, Note_off_c, 0, 66, 100
3, 22784, Note_on_c, 0, 63, 70
3, 22908, Note_off_c, 0, 59, 100
3, 22912, Note_on_c, 0, 66, 70
3, 23032, Control_c, 0, 64, 0
3, 23036, Note_off_c, 0, 63, 100
3, 23036, Note_off_c, 0, 66, 100
3, 23040, Control_c, 0, 64, 127
3, 23040, Note_on_c, 0, 59, 70
3, 23168, Note_on_c, 0, 64, 70
3, 23292, Note_off_c, 0, 59, 100
3, 23296, Note_on_c, 0, 67, 70
3, 23420, Note_off_c, 0, 64, 100
3, 23424, Note_on_c, 0, 59, 70
3, 23548, Note_off_c, 0, 67, 100
3, 23552, Note_on_c, 0, 64, 70
3, 23676, Note_off_c, 0, 59, 100
3, 23680, Note_on_c, 0, 67, 70
3, 23804, Note_off_c, 0, 64, 100
3, 23808, Note_on_c, 0, 59, 70
3, 23932, Note_off_c, 0, 67, 100
3, 23936, Note_on_c, 0, 64, 70
3, 24060, Note_off_c, 0, 59, 100
3, 24064, Note_on_c, 0, 67, 70
3, 24188, Note_off_c, 0, 64, 100
3, 24192, Note_on_c, 0, 59, 70
3, 24316, Note_off_c, 0, 67, 100
3, 24320, Note_on_c, 0, 64, 70
3, 24444, Note_off_c, 0, 59, 100
3, 24448, Note_on_c, 0, 67, 70
3, 24568, Control_c, 0, 64, 0
3, 24572, Note_off_c, 0, 64, 100
3, 24572, Note_off_c, 0, 67, 100
3, 24576, Control_c, 0, 64, 127
3, 24576, Note_on_c, 0, 59, 70
3, 24704, Note_on_c, 0, 63, 70
3, 24828, Note_off_c, 0, 59, 100
3, 24832, Note_on_c, 0, 66, 70
3, 24956, Note_off_c, 0, 63, 100
3, 24960, Note_on_c, 0, 59, 70
3, 25084, Note_off_c, 0, 66, 100
3, 25088, Note_on_c, 0, 63, 70
3, 25212, Note_off_c, 0, 59, 100
3, 25216, Note_on_c, 0, 66, 70
3, 25340, Note_off_c, 0, 63, 100
3, 25344, Note_on_c, 0, 59, 70
3, 25468, Note_off_c, 0, 66, 100
3, 25472, Note_on_c, 0, 63, 70
3, 25596, Note_off_c, 0, 59, 100
3, 25600, Note_on_c, 0, 66, 70
3, 25724, Note_off_c, 0, 63, 100
3, 25728, Note_on_c, 0, 59, 70
3, 25852, Note_off_c, 0, 66, 100
3, 25856, Note_on_c, 0, 63, 70
3, 25980, Note_off_c, 0, 59, 100
3, 25984, Note_on_c, 0, 66, 70
3, 26104, Control_c, 0, 64, 0
3, 26108, Note_off_c, 0, 63, 100
3, 26108, Note_off_c, 0, 66, 100
3, 26112, Control_c, 0, 64, 127
3, 26112, Note_on_c, 0, 59, 70
3, 26240, Note_on_c, 0, 64, 70
3, 26364, Note_off_c, 0, 59, 100
3, 26368, Note_on_c, 0, 67, 70
3, 26492, Note_off_c, 0, 64, 100
3, 26496, Note_on_c, 0, 59, 70
3, 26620, Note_off_c, 0, 67, 100
3, 26624, Note_on_c, 0, 64, 70
3, 26748, Note_off_c, 0, 59, 100
3, 26752, Note_on_c, 0, 67, 70
3, 26876, Note_off_c, 0, 64, 100
3, 26880, Note_on_c, 0, 59, 70
3, 27004, Note_off_c, 0, 67, 100
3, 27008, Note_on_c, 0, 64, 70
3, 27132, Note_off_c, 0, 59, 100
3, 27136, Note_on_c, 0, 67, 70
3, 27260, Note_off_c, 0, 64, 100
3, 27264, Note_on_c, 0, 59, 70
3, 27388, Note_off_c, 0, 67, 100
3, 27392, Note_on_c, 0, 64, 70
3, 27516, Note_off_c, 0, 59, 100
3, 27520, Note_on_c, 0, 67, 70
3, 27640, Control_c, 0, 64, 0
3, 27644, Note_off_c, 0, 64, 100
3, 27644, Note_off_c, 0, 67, 100
3, 27648, Control_c, 0, 64, 127
3, 27648, Note_on_c, 0, 59, 70
3, 27776, Note_on_c, 0, 63, 70
3, 27900, Note_off_c, 0, 59, 100
3, 27904, Note_on_c, 0, 66, 70
3, 28028, Note_off_c, 0, 63, 100
3, 28032, Note_on_c, 0, 59, 70
3, 28156, Note_off_c, 0, 66, 100
3, 28160, Note_on_c, 0, 63, 70
3, 28284, Note_off_c, 0, 59, 100
3, 28288, Note_on_c, 0, 66, 70
3, 28408, Control_c, 0, 64, 0
3, 28412, Note_off_c, 0, 63, 100
3, 28416, Control_c, 0, 64, 127
3, 28416, Note_on_c, 0, 59, 70
3, 28540, Note_off_c, 0, 66, 100
3, 28544, Note_on_c, 0, 62, 70
3, 28668, Note_off_c, 0, 59, 100
3, 28672, Note_on_c, 0, 65, 70
3, 28796, Note_off_c, 0, 62, 100
3, 28800, Note_on_c, 0, 59, 70
3, 28924, Note_off_c, 0, 65, 100
3, 28928, Note_on_c, 0, 62, 70
3, 29052, Note_off_c, 0, 59, 100
3, 29056, Note_on_c, 0, 65, 70
3, 29176, Control_c, 0, 64, 0
3, 29180, Note_off_c, 0, 62, 100
3, 29180, Note_off_c, 0, 65, 100
3, 29184, Control_c, 0, 64, 127
3, 29184, Note_on_c, 0, 59, 70
3, 29312, Note_on_c, 0, 61, 70
3, 29436, Note_off_c, 0, 59, 100
3, 29440, Note_on_c, 0, 68, 70
3, 29564, Note_off_c, 0, 61, 100
3, 29568, Note_on_c, 0, 59, 70
3, 29692, Note_off_c, 0, 68, 100
3, 29696, Note_on_c, 0, 61, 70
3, 29820, Note_off_c, 0, 59, 100
3, 29824, Note_on_c, 0, 68, 70
3, 29944, Control_c, 0, 64, 0
3, 29948, Note_off_c, 0, 61, 100
3, 29952, Control_c, 0, 64, 127
3, 29952, Note_on_c, 0, 57, 70
3, 30076, Note_off_c, 0, 68, 100
3, 30080, Note_on_c, 0, 61, 70
3, 30204, Note_off_c, 0, 57, 100
3, 30208, Note_on_c, 0, 66, 70
3, 30332, Note_off_c, 0, 61, 100
3, 30336, Note_on_c, 0, 57, 70
3, 30460, Note_off_c, 0, 66, 100
3, 30464, Note_on_c, 0, 61, 70
3, 30588, Note_off_c, 0, 57, 100
3, 30592, Note_on_c, 0, 66, 70
3, 30712, Control_c, 0, 64, 0
3, 30716, Note_off_c, 0, 61, 100
3, 30716, Note_off_c, 0, 66, 100
3, 30720, Control_c, 0, 64, 127
3, 30720, Note_on_c, 0, 55, 70
3, 30848, Note_on_c, 0, 59, 70
3, 30972, Note_off_c, 0, 55, 100
3, 30976, Note_on_c, 0, 62, 70
3, 31100, Note_off_c, 0, 59, 100
3, 31104, Note_on_c, 0, 55, 70
3, 31228, Note_off_c, 0, 62, 100
3, 31232, Note_on_c, 0, 59, 70
3, 31356, Note_off_c, 0, 55, 100
3, 31360, Note_on_c, 0, 62, 70
3, 31480, Control_c, 0, 64, 0
3, 31484, Note_off_c, 0, 59, 100
3, 31488, Control_c, 0, 64, 127
3, 31488, Note_on_c, 0, 54, 70
3, 31612, Note_off_c, 0, 62, 100
3, 31616, Note_on_c, 0, 57, 70
3, 31740, Note_off_c, 0, 54, 100
3, 31744, Note_on_c, 0, 63, 70
3, 31868, Note_off_c, 0, 57, 100
3, 31872, Note_on_c, 0, 54, 70
3, 31996, Note_off_c, 0, 63, 100
3, 32000, Note_on_c, 0, 57, 70
3, 32124, Note_off_c, 0, 54, 100
3, 32128, Note_on_c, 0, 63, 70
3, 32248, Control_c, 0, 64, 0
3, 32252, Note_off_c, 0, 57, 100
3, 32252, Note_off_c, 0, 63, 100
3, 32256, Control_c, 0, 64, 127
3, 32256, Note_on_c, 0, 49, 70
3, 32384, Note_on_c, 0, 54, 70
3, 32508, Note_off_c, 0, 49, 100
3, 32512, Note_on_c, 0, 57, 70
3, 32636, Note_off_c, 0, 54, 100
3, 32640, Note_on_c, 0, 49, 70
3, 32764, Note_off_c, 0, 57, 100
3, 32768, Note_on_c, 0, 54, 70
3, 32892, Note_off_c, 0, 49, 100
3, 32896, Note_on_c, 0, 57, 70
3, 33016, Control_c, 0, 64, 0
3, 33020, Note_off_c, 0, 54, 100
3, 33024, Control_c, 0, 64, 127
3, 33024, Note_on_c, 0, 49, 70
3, 33148, Note_off_c, 0, 57, 100
3, 33152, Note_on_c, 0, 54, 70
3, 33276, Note_off_c, 0, 49, 100
3, 33280, Note_on_c, 0, 56, 70
3, 33404, Note_off_c, 0, 54, 100
3, 33408, Note_on_c, 0, 49, 70
3, 33532, Note_off_c, 0, 56, 100
3, 33536, Note_on_c, 0, 53, 70
3, 33660, Note_off_c, 0, 49, 100
3, 33664, Note_on_c, 0, 56, 70
3, 33784, Control_c, 0, 64, 0
3, 33788, Note_off_c, 0, 53, 100
3, 33788, Note_off_c, 0, 56, 100
3, 33792, Control_c, 0, 64, 127
3, 33792, Note_on_c, 0, 54, 70
3, 33920, Note_on_c, 0, 57, 70
3, 34044, Note_off_c, 0, 54, 100
3, 34048, Note_on_c, 0, 61, 70
3, 34172, Note_off_c, 0, 57, 100
3, 34176, Note_on_c, 0, 57, 70
3, 34300, Note_off_c, 0, 61, 100
3, 34304, Note_on_c, 0, 61, 70
3, 34428, Note_off_c, 0, 57, 100
3, 34432, Note_on_c, 0, 66, 70
3, 34556, Note_off_c, 0, 61, 100
3, 34560, Note_on_c, 0, 61, 70
3, 34684, Note_off_c, 0, 66, 100
3, 34688, Note_on_c, 0, 66, 70
3, 34812, Note_off_c, 0, 61, 100
3, 34816, Note_on_c, 0, 69, 70
3, 34940, Note_off_c, 0, 66, 100
3, 34944, Note_on_c, 0, 61, 70
3, 35068, Note_off_c, 0, 69, 100
3, 35072, Note_on_c, 0, 66, 70
3, 35196, Note_off_c, 0, 61, 100
3, 35200, Note_on_c, 0, 69, 70
3, 35320, Control_c, 0, 64, 0
3, 35324, Note_off_c, 0, 66, 100
3, 35324, Note_off_c, 0, 69, 100
3, 35328, Control_c, 0, 64, 127
3, 35328, Note_on_c, 0, 61, 70
3, 35456, Note_on_c, 0, 68, 70
3, 35580, Note_off_c, 0, 61, 100
3, 35584, Note_on_c, 0, 71, 70
3, 35708, Note_off_c, 0, 68, 100
3, 35712, Note_on_c, 0, 61, 70
3, 35836, Note_off_c, 0, 71, 100
3, 35840, Note_on_c, 0, 68, 70
3, 35964, Note_off_c, 0, 61, 100
3, 35968, Note_on_c, 0, 71, 70
3, 36092, Note_off_c, 0, 68, 100
3, 36096, Note_on_c, 0, 61, 70
3, 36220, Note_off_c, 0, 71, 100
3, 36224, Note_on_c, 0, 68, 70
3, 36348, Note_off_c, 0, 61, 100
3, 36352, Note_on_c, 0, 71, 70
3, 36476, Note_off_c, 0, 68, 100
3, 36480, Note_on_c, 0, 61, 70
3, 36604, Note_off_c, 0, 71, 100
3, 36608, Note_on_c, 0, 68, 70
3, 36732, Note_off_c, 0, 61, 100
3, 36736, Note_on_c, 0, 71, 70
3, 36856, Control_c, 0, 64, 0
3, 36860, Note_off_c, 0, 68, 100
3, 36860, Note_off_c, 0, 71, 100
3, 36864, Control_c, 0, 64, 127
3, 36864, Note_on_c, 0, 61, 70
3, 36992, Note_on_c, 0, 66, 71
3, 37116, Note_off_c, 0, 61, 100
3, 37120, Note_on_c, 0, 69, 72
3, 37244, Note_off_c, 0, 66, 100
3, 37248, Note_on_c, 0, 61, 73
3, 37372, Note_off_c, 0, 69, 100
3, 37376, Note_on_c, 0, 66, 74
3, 37500, Note_off_c, 0, 61, 100
3, 37504, Note_on_c, 0, 69, 75
3, 37624, Control_c, 0, 64, 0
3, 37628, Note_off_c, 0, 66, 100
3, 37632, Control_c, 0, 64, 127
3, 37632, Note_on_c, 0, 60, 77
3, 37756, Note_off_c, 0, 69, 100
3, 37760, Note_on_c, 0, 66, 78
3, 37884, Note_off_c, 0, 60, 100
3, 37888, Note_on_c, 0, 69, 79
3, 38008, Control_c, 0, 64, 0
3, 38012, Note_off_c, 0, 66, 100
3, 38016, Control_c, 0, 64, 127
3, 38016, Note_on_c, 0, 61, 80
3, 38140, Note_off_c, 0, 69, 100
3, 38144, Note_on_c, 0, 66, 81
3, 38268, Note_off_c, 0, 61, 100
3, 38272, Note_on_c, 0, 69, 82
3, 38392, Control_c, 0, 64, 0
3, 38396, Note_off_c, 0, 66, 100
3, 38396, Note_off_c, 0, 69, 100
3, 38400, Control_c, 0, 64, 127
3, 38400, Note_on_c, 0, 63, 84
3, 38528, Note_on_c, 0, 66, 85
3, 38652, Note_off_c, 0, 63, 100
3, 38656, Note_on_c, 0, 68, 86
3, 38780, Note_off_c, 0, 66, 100
3, 38784, Note_on_c, 0, 63, 87
3, 38908, Note_off_c, 0, 68, 100
3, 38912, Note_on_c, 0, 66, 88
3, 39036, Note_off_c, 0, 63, 100
3, 39040, Note_on_c, 0, 68, 89
3, 39164, Note_off_c, 0, 66, 100
3, 39168, Note_on_c, 0, 63, 90
3, 39292, Note_off_c, 0, 68, 100
3, 39296, Note_on_c, 0, 66, 90
3, 39420, Note_off_c, 0, 63, 100
3, 39424, Note_on_c, 0, 68, 90
3, 39548, Note_off_c, 0, 66, 100
3, 39552, Note_on_c, 0, 63, 90
3, 39676, Note_off_c, 0, 68, 100
3, 39680, Note_on_c, 0, 66, 90
3, 39804, Note_off_c, 0, 63, 100
3, 39808, Note_on_c, 0, 68, 90
3, 39928, Control_c, 0, 64, 0
3, 39932, Note_off_c, 0, 66, 100
3, 39932, Note_off_c, 0, 68, 100
3, 39936, Control_c, 0, 64, 127
3, 39936, Note_on_c, 0, 64, 90
3, 40064, Note_on_c, 0, 68, 90
3, 40188, Note_off_c, 0, 64, 100
3, 40192, Note_on_c, 0, 73, 90
3, 40316, Note_off_c, 0, 68, 100
3, 40320, Note_on_c, 0, 64, 90
3, 40444, Note_off_c, 0, 73, 100
3, 40448, Note_on_c, 0, 68, 90
3, 40572, Note_off_c, 0, 64, 100
3, 40576, Note_on_c, 0, 73, 90
3, 40696, Control_c, 0, 64, 0
3, 40700, Note_off_c, 0, 68, 100
3, 40704, Control_c, 0, 64, 127
3, 40704, Note_on_c, 0, 63, 90
3, 40828, Note_off_c, 0, 73, 100
3, 40832, Note_on_c, 0, 66, 87
3, 40956, Note_off_c, 0, 63, 100
3, 40960, Note_on_c, 0, 69, 83
3, 41084, Note_off_c, 0, 66, 100
3, 41088, Note_on_c, 0, 61, 79
3, 41212, Note_off_c, 0, 69, 100
3, 41216, Note_on_c, 0, 64, 75
3, 41340, Note_off_c, 0, 61, 100
3, 41344, Note_on_c, 0, 70, 71
3, 41464, Control_c, 0, 64, 0
3, 41468, Note_off_c, 0, 64, 100
3, 41468, Note_off_c, 0, 70, 100
3, 41472, Control_c, 0, 64, 127
3, 41472, Note_on_c, 0, 72, 70
3, 41600, Note_on_c, 0, 60, 70
3, 41724, Note_off_c, 0, 72, 100
3, 41728, Note_on_c, 0, 63, 70
3, 41852, Note_off_c, 0, 60, 100
3, 41856, Note_on_c, 0, 68, 76
3, 41980, Note_off_c, 0, 63, 100
3, 41984, Note_on_c, 0, 60, 70
3, 42108, Note_off_c, 0, 68, 100
3, 42112, Note_on_c, 0, 63, 70
3, 42236, Note_off_c, 0, 60, 100
3, 42240, Note_on_c, 0, 69, 80
3, 42364, Note_off_c, 0, 63, 100
3, 42368, Note_on_c, 0, 60, 70
3, 42492, Note_off_c, 0, 69, 100
3, 42496, Note_on_c, 0, 63, 70
3, 42620, Note_off_c, 0, 60, 100
3, 42624, Note_on_c, 0, 66, 75
3, 42748, Note_off_c, 0, 63, 100
3, 42752, Note_on_c, 0, 60, 70
3, 42876, Note_off_c, 0, 66, 100
3, 42880, Note_on_c, 0, 63, 70
3, 43000, Control_c, 0, 64, 0
3, 43004, Note_off_c, 0, 60, 100
3, 43004, Note_off_c, 0, 63, 100
3, 43008, Control_c, 0, 64, 127
3, 43136, Note_on_c, 0, 48, 70
3, 43264, Note_on_c, 0, 51, 70
3, 43388, Note_off_c, 0, 48, 100
3, 43392, Note_on_c, 0, 56, 76
3, 43516, Note_off_c, 0, 51, 100
3, 43520, Note_on_c, 0, 48, 70
3, 43644, Note_off_c, 0, 56, 100
3, 43648, Note_on_c, 0, 51, 70
3, 43772, Note_off_c, 0, 48, 100
3, 43776, Note_on_c, 0, 57, 80
3, 43900, Note_off_c, 0, 51, 100
3, 43904, Note_on_c, 0, 48, 70
3, 44028, Note_off_c, 0, 57, 100
3, 44032, Note_on_c, 0, 51, 70
3, 44156, Note_off_c, 0, 48, 100
3, 44160, Note_on_c, 0, 54, 75
3, 44284, Note_off_c, 0, 51, 100
3, 44288, Note_on_c, 0, 48, 70
3, 44412, Note_off_c, 0, 54, 100
3, 44416, Note_on_c, 0, 51, 70
3, 44536, Control_c, 0, 64, 0
3, 44540, Note_off_c, 0, 48, 100
3, 44540, Note_off_c, 0, 51, 100
3, 44544, Control_c, 0, 64, 127
3, 44544, Note_on_c, 0, 52, 70
3, 44672, Note_on_c, 0, 64, 70
3, 44796, Note_off_c, 0, 52, 100
3, 44800, Note_on_c, 0, 68, 70
3, 44924, Note_off_c, 0, 64, 100
3, 44928, Note_on_c, 0, 73, 80
3, 45052, Note_off_c, 0, 68, 100
3, 45056, Note_on_c, 0, 64, 70
3, 45180, Note_off_c, 0, 73, 100
3, 45184, Note_on_c, 0, 68, 70
3, 45308, Note_off_c, 0, 64, 100
3, 45312, Note_on_c, 0, 76, 91
3, 45436, Note_off_c, 0, 68, 100
3, 45440, Note_on_c, 0, 64, 70
3, 45564, Note_off_c, 0, 76, 100
3, 45568, Note_on_c, 0, 68, 70
3, 45692, Note_off_c, 0, 64, 100
3, 45696, Note_on_c, 0, 73, 82
3, 45820, Note_off_c, 0, 68, 100
3, 45824, Note_on_c, 0, 64, 70
3, 45948, Note_off_c, 0, 73, 100
3, 45952, Note_on_c, 0, 68, 70
3, 46072, Control_c, 0, 64, 0
3, 46076, Note_off_c, 0, 64, 100
3, 46076, Note_off_c, 0, 68, 100
3, 46080, Control_c, 0, 64, 127
3, 46208, Note_on_c, 0, 52, 70
3, 46336, Note_on_c, 0, 56, 70
3, 46460, Note_off_c, 0, 52, 100
3, 46464, Note_on_c, 0, 61, 80
3, 46588, Note_off_c, 0, 56, 100
3, 46592, Note_on_c, 0, 52, 70
3, 46716, Note_off_c, 0, 61, 100
3, 46720, Note_on_c, 0, 56, 70
3, 46844, Note_off_c, 0, 52, 100
3, 46848, Note_on_c, 0, 64, 87
3, 46972, Note_off_c, 0, 56, 100
3, 46976, Note_on_c, 0, 52, 70
3, 47100, Note_off_c, 0, 64, 100
3, 47104, Note_on_c, 0, 56, 70
3, 47228, Note_off_c, 0, 52, 100
3, 47232, Note_on_c, 0, 61, 82
3, 47356, Note_off_c, 0, 56, 100
3, 47360, Note_on_c, 0, 52, 70
3, 47484, Note_off_c, 0, 61, 100
3, 47488, Note_on_c, 0, 56, 70
3, 47608, Control_c, 0, 64, 0
3, 47612, Note_off_c, 0, 52, 100
3, 47612, Note_off_c, 0, 56, 100
3, 47616, Control_c, 0, 64, 127
3, 47616, Note_on_c, 0, 51, 70
3, 47744, Note_on_c, 0, 57, 70
3, 47868, Note_off_c, 0, 51, 100
3, 47872, Note_on_c, 0, 54, 70
3, 47996, Note_off_c, 0, 57, 100
3, 48000, Note_on_c, 0, 60, 70
3, 48124, Note_off_c, 0, 54, 100
3, 48128, Note_on_c, 0, 57, 70
3, 48252, Note_off_c, 0, 60, 100
3, 48256, Note_on_c, 0, 63, 70
3, 48380, Note_off_c, 0, 57, 100
3, 48384, Note_on_c, 0, 60, 70
3, 48508, Note_off_c, 0, 63, 100
3, 48512, Note_on_c, 0, 66, 70
3, 48636, Note_off_c, 0, 60, 100
3, 48640, Note_on_c, 0, 63, 70
3, 48764, Note_off_c, 0, 66, 100
3, 48768, Note_on_c, 0, 69, 70
3, 48892, Note_off_c, 0, 63, 100
3, 48896, Note_on_c, 0, 66, 70
3, 49020, Note_off_c, 0, 69, 100
3, 49024, Note_on_c, 0, 72, 70
3, 49144, Control_c, 0, 64, 0
3, 49148, Note_off_c, 0, 66, 100
3, 49148, Note_off_c, 0, 72, 100
3, 49152, Control_c, 0, 64, 127
3, 49152, Note_on_c, 0, 52, 70
3, 49280, Note_on_c, 0, 61, 70
3, 49404, Note_off_c, 0, 52, 100
3, 49408, Note_on_c, 0, 56, 70
3, 49532, Note_off_c, 0, 61, 100
3, 49536, Note_on_c, 0, 64, 70
3, 49660, Note_off_c, 0, 56, 100
3, 49664, Note_on_c, 0, 61, 70
3, 49788, Note_off_c, 0, 64, 100
3, 49792, Note_on_c, 0, 68, 70
3, 49916, Note_off_c, 0, 61, 100
3, 49920, Note_on_c, 0, 64, 70
3, 50044, Note_off_c, 0, 68, 100
3, 50048, Note_on_c, 0, 73, 70
3, 50172, Note_off_c, 0, 64, 100
3, 50176, Note_on_c, 0, 68, 70
3, 50300, Note_off_c, 0, 73, 100
3, 50304, Note_on_c, 0, 76, 70
3, 50428, Note_off_c, 0, 68, 100
3, 50432, Note_on_c, 0, 73, 70
3, 50556, Note_off_c, 0, 76, 100
3, 50560, Note_on_c, 0, 68, 70
3, 50680, Control_c, 0, 64, 0
3, 50684, Note_off_c, 0, 73, 100
3, 50684, Note_off_c, 0, 68, 100
3, 50688, Control_c, 0, 64, 127
3, 50688, Note_on_c, 0, 61, 70
3, 50816, Note_on_c, 0, 67, 70
3, 50940, Note_off_c, 0, 61, 100
3, 50944, Note_on_c, 0, 64, 70
3, 51068, Note_off_c, 0, 67, 100
3, 51072, Note_on_c, 0, 70, 70
3, 51196, Note_off_c, 0, 64, 100
3, 51200, Note_on_c, 0, 67, 70
3, 51324, Note_off_c, 0, 70, 100
3, 51328, Note_on_c, 0, 73, 70
3, 51452, Note_off_c, 0, 67, 100
3, 51456, Note_on_c, 0, 70, 70
3, 51580, Note_off_c, 0, 73, 100
3, 51584, Note_on_c, 0, 76, 70
3, 51708, Note_off_c, 0, 70, 100
3, 51712, Note_on_c, 0, 73, 70
3, 51836, Note_off_c, 0, 76, 100
3, 51840, Note_on_c, 0, 79, 70
3, 51964, Note_off_c, 0, 73, 100
3, 51968, Note_on_c, 0, 76, 70
3, 52092, Note_off_c, 0, 79, 100
3, 52096, Note_on_c, 0, 82, 70
3, 52216, Control_c, 0, 64, 0
3, 52220, Note_off_c, 0, 76, 100
3, 52220, Note_off_c, 0, 82, 100
3, 52224, Control_c, 0, 64, 127
3, 52224, Note_on_c, 0, 66, 70
3, 52352, Note_on_c, 0, 72, 71
3, 52476, Note_off_c, 0, 66, 100
3, 52480, Note_on_c, 0, 69, 72
3, 52604, Note_off_c, 0, 72, 100
3, 52608, Note_on_c, 0, 75, 74
3, 52732, Note_off_c, 0, 69, 100
3, 52736, Note_on_c, 0, 72, 75
3, 52860, Note_off_c, 0, 75, 100
3, 52864, Note_on_c, 0, 78, 76
3, 52988, Note_off_c, 0, 72, 100
3, 52992, Note_on_c, 0, 75, 78
3, 53116, Note_off_c, 0, 78, 100
3, 53120, Note_on_c, 0, 81, 79
3, 53244, Note_off_c, 0, 75, 100
3, 53248, Note_on_c, 0, 78, 80
3, 53372, Note_off_c, 0, 81, 100
3, 53376, Note_on_c, 0, 84, 82
3, 53500, Note_off_c, 0, 78, 100
3, 53504, Note_on_c, 0, 81, 83
3, 53628, Note_off_c, 0, 84, 100
3, 53632, Note_on_c, 0, 87, 84
3, 53752, Control_c, 0, 64, 0
3, 53756, Note_off_c, 0, 81, 100
3, 53756, Note_off_c, 0, 87, 100
3, 53760, Control_c, 0, 64, 127
3, 53760, Note_on_c, 0, 84, 85
3, 53888, Note_on_c, 0, 78, 85
3, 54012, Note_off_c, 0, 84, 100
3, 54016, Note_on_c, 0, 81, 84
3, 54140, Note_off_c, 0, 78, 100
3, 54144, Note_on_c, 0, 75, 84
3, 54268, Note_off_c, 0, 81, 100
3, 54272, Note_on_c, 0, 78, 83
3, 54396, Note_off_c, 0, 75, 100
3, 54400, Note_on_c, 0, 72, 82
3, 54524, Note_off_c, 0, 78, 100
3, 54528, Note_on_c, 0, 75, 82
3, 54652, Note_off_c, 0, 72, 100
3, 54656, Note_on_c, 0, 69, 81
3, 54780, Note_off_c, 0, 75, 100
3, 54784, Note_on_c, 0, 72, 80
3, 54908, Note_off_c, 0, 69, 100
3, 54912, Note_on_c, 0, 66, 80
3, 55036, Note_off_c, 0, 72, 100
3, 55040, Note_on_c, 0, 69, 79
3, 55164, Note_off_c, 0, 66, 100
3, 55168, Note_on_c, 0, 63, 78
3, 55288, Control_c, 0, 64, 0
3, 55292, Note_off_c, 0, 69, 100
3, 55292, Note_off_c, 0, 63, 100
3, 55296, Control_c, 0, 64, 127
3, 55296, Note_on_c, 0, 66, 78
3, 55424, Note_on_c, 0, 60, 77
3, 55548, Note_off_c, 0, 66, 100
3, 55552, Note_on_c, 0, 63, 76
3, 55676, Note_off_c, 0, 60, 100
3, 55680, Note_on_c, 0, 57, 76
3, 55804, Note_off_c, 0, 63, 100
3, 55808, Note_on_c, 0, 60, 75
3, 55932, Note_off_c, 0, 57, 100
3, 55936, Note_on_c, 0, 54, 74
3, 56060, Note_off_c, 0, 60, 100
3, 56064, Note_on_c, 0, 57, 74
3, 56188, Note_off_c, 0, 54, 100
3, 56192, Note_on_c, 0, 51, 73
3, 56316, Note_off_c, 0, 57, 100
3, 56320, Note_on_c, 0, 54, 72
3, 56444, Note_off_c, 0, 51, 100
3, 56448, Note_on_c, 0, 49, 72
3, 56572, Note_off_c, 0, 54, 100
3, 56576, Note_on_c, 0, 54, 71
3, 56700, Note_off_c, 0, 49, 100
3, 56704, Note_on_c, 0, 57, 71
3, 56824, Control_c, 0, 64, 0
3, 56828, Note_off_c, 0, 54, 100
3, 56828, Note_off_c, 0, 57, 100
3, 56832, Control_c, 0, 64, 127
3, 56832, Note_on_c, 0, 48, 70
3, 56960, Note_on_c, 0, 54, 70
3, 57084, Note_off_c, 0, 48, 100
3, 57088, Note_on_c, 0, 56, 71
3, 57212, Note_off_c, 0, 54, 100
3, 57216, Note_on_c, 0, 57, 72
3, 57340, Note_off_c, 0, 56, 100
3, 57344, Note_on_c, 0, 56, 73
3, 57468, Note_off_c, 0, 57, 100
3, 57472, Note_on_c, 0, 54, 74
3, 57592, Control_c, 0, 64, 0
3, 57596, Note_off_c, 0, 56, 100
3, 57600, Control_c, 0, 64, 127
3, 57600, Note_on_c, 0, 51, 75
3, 57724, Note_off_c, 0, 54, 100
3, 57728, Note_on_c, 0, 54, 75
3, 57852, Note_off_c, 0, 51, 100
3, 57856, Note_on_c, 0, 57, 76
3, 57980, Note_off_c, 0, 54, 100
3, 57984, Note_on_c, 0, 49, 77
3, 58108, Note_off_c, 0, 57, 100
3, 58112, Note_on_c, 0, 54, 78
3, 58236, Note_off_c, 0, 49, 100
3, 58240, Note_on_c, 0, 57, 79
3, 58360, Control_c, 0, 64, 0
3, 58364, Note_off_c, 0, 54, 100
3, 58364, Note_off_c, 0, 57, 100
3, 58368, Control_c, 0, 64, 127
3, 58368, Note_on_c, 0, 48, 80
3, 58496, Note_on_c, 0, 54, 80
3, 58620, Note_off_c, 0, 48, 100
3, 58624, Note_on_c, 0, 56, 80
3, 58748, Note_off_c, 0, 54, 100
3, 58752, Note_on_c, 0, 57, 81
3, 58876, Note_off_c, 0, 56, 100
3, 58880, Note_on_c, 0, 56, 81
3, 59004, Note_off_c, 0, 57, 100
3, 59008, Note_on_c, 0, 54, 82
3, 59128, Control_c, 0, 64, 0
3, 59132, Note_off_c, 0, 56, 100
3, 59136, Control_c, 0, 64, 127
3, 59136, Note_on_c, 0, 50, 82
3, 59260, Note_off_c, 0, 54, 100
3, 59264, Note_on_c, 0, 54, 82
3, 59388, Note_off_c, 0, 50, 100
3, 59392, Note_on_c, 0, 57, 83
3, 59516, Note_off_c, 0, 54, 100
3, 59520, Note_on_c, 0, 49, 83
3, 59644, Note_off_c, 0, 57, 100
3, 59648, Note_on_c, 0, 54, 84
3, 59772, Note_off_c, 0, 49, 100
3, 59776, Note_on_c, 0, 57, 84
3, 59896, Control_c, 0, 64, 0
3, 59900, Note_off_c, 0, 54, 100
3, 59900, Note_off_c, 0, 57, 100
3, 59904, Control_c, 0, 64, 127
3, 59904, Note_on_c, 0, 48, 85
3, 60032, Note_on_c, 0, 54, 85
3, 60156, Note_off_c, 0, 48, 100
3, 60160, Note_on_c, 0, 56, 84
3, 60284, Note_off_c, 0, 54, 100
3, 60288, Note_on_c, 0, 57, 84
3, 60412, Note_off_c, 0, 56, 100
3, 60416, Note_on_c, 0, 56, 83
3, 60540, Note_off_c, 0, 57, 100
3, 60544, Note_on_c, 0, 54, 82
3, 60664, Control_c, 0, 64, 0
3, 60668, Note_off_c, 0, 56, 100
3, 60672, Control_c, 0, 64, 127
3, 60672, Note_on_c, 0, 49, 82
3, 60796, Note_off_c, 0, 54, 100
3, 60800, Note_on_c, 0, 52, 81
3, 60924, Note_off_c, 0, 49, 100
3, 60928, Note_on_c, 0, 61, 80
3, 61052, Note_off_c, 0, 52, 100
3, 61056, Note_on_c, 0, 49, 80
3, 61180, Note_off_c, 0, 61, 100
3, 61184, Note_on_c, 0, 52, 79
3, 61308, Note_off_c, 0, 49, 100
3, 61312, Note_on_c, 0, 61, 78
3, 61432, Control_c, 0, 64, 0
3, 61436, Note_off_c, 0, 52, 100
3, 61436, Note_off_c, 0, 61, 100
3, 61440, Control_c, 0, 64, 127
3, 61440, Note_on_c, 0, 51, 78
3, 61568, Note_on_c, 0, 57, 77
3, 61692, Note_off_c, 0, 51, 100
3, 61696, Note_on_c, 0, 61, 76
3, 61820, Note_off_c, 0, 57, 100
3, 61824, Note_on_c, 0, 51, 76
3, 61948, Note_off_c, 0, 61, 100
3, 61952, Note_on_c, 0, 57, 75
3, 62076, Note_off_c, 0, 51, 100
3, 62080, Note_on_c, 0, 61, 74
3, 62200, Control_c, 0, 64, 0
3, 62204, Note_off_c, 0, 57, 100
3, 62208, Control_c, 0, 64, 127
3, 62208, Note_on_c, 0, 51, 74
3, 62332, Note_off_c, 0, 61, 100
3, 62336, Note_on_c, 0, 56, 73
3, 62460, Note_off_c, 0, 51, 100
3, 62464, Note_on_c, 0, 60, 72
3, 62588, Note_off_c, 0, 56, 100
3, 62592, Note_on_c, 0, 51, 72
3, 62716, Note_off_c, 0, 60, 100
3, 62720, Note_on_c, 0, 54, 71
3, 62844, Note_off_c, 0, 51, 100
3, 62848, Note_on_c, 0, 60, 71
3, 62968, Control_c, 0, 64, 0
3, 62972, Note_off_c, 0, 54, 100
3, 62972, Note_off_c, 0, 60, 100
3, 62976, Control_c, 0, 64, 127
3, 62976, Note_on_c, 0, 52, 70
3, 63104, Note_on_c, 0, 56, 70
3, 63228, Note_off_c, 0, 52, 100
3, 63232, Note_on_c, 0, 61, 70
3, 63356, Note_off_c, 0, 56, 100
3, 63360, Note_on_c, 0, 56, 70
3, 63484, Note_off_c, 0, 61, 100
3, 63488, Note_on_c, 0, 61, 70
3, 63612, Note_off_c, 0, 56, 100
3, 63616, Note_on_c, 0, 64, 70
3, 63740, Note_off_c, 0, 61, 100
3, 63744, Note_on_c, 0, 56, 70
3, 63868, Note_off_c, 0, 64, 100
3, 63872, Note_on_c, 0, 61, 70
3, 63996, Note_off_c, 0, 56, 100
3, 64000, Note_on_c, 0, 64, 70
3, 64124, Note_off_c, 0, 61, 100
3, 64128, Note_on_c, 0, 56, 70
3, 64252, Note_off_c, 0, 64, 100
3, 64256, Note_on_c, 0, 61, 70
3, 64380, Note_off_c, 0, 56, 100
3, 64384, Note_on_c, 0, 64, 70
3, 64504, Control_c, 0, 64, 0
3, 64508, Note_off_c, 0, 61, 100
3, 64508, Note_off_c, 0, 64, 100
3, 64512, Control_c, 0, 64, 127
3, 64512, Note_on_c, 0, 56, 70
3, 64640, Note_on_c, 0, 63, 70
3, 64764, Note_off_c, 0, 56, 100
3, 64768, Note_on_c, 0, 66, 70
3, 64892, Note_off_c, 0, 63, 100
3, 64896, Note_on_c, 0, 56, 70
3, 65020, Note_off_c, 0, 66, 100
3, 65024, Note_on_c, 0, 63, 70
3, 65148, Note_off_c, 0, 56, 100
3, 65152, Note_on_c, 0, 66, 70
3, 65276, Note_off_c, 0, 63, 100
3, 65280, Note_on_c, 0, 56, 70
3, 65404, Note_off_c, 0, 66, 100
3, 65408, Note_on_c, 0, 63, 70
3, 65532, Note_off_c, 0, 56, 100
3, 65536, Note_on_c, 0, 66, 70
3, 65660, Note_off_c, 0, 63, 100
3, 65664, Note_on_c, 0, 56, 70
3, 65788, Note_off_c, 0, 66, 100
3, 65792, Note_on_c, 0, 63, 70
3, 65916, Note_off_c, 0, 56, 100
3, 65920, Note_on_c, 0, 66, 70
3, 66040, Control_c, 0, 64, 0
3, 66044, Note_off_c, 0, 63, 100
3, 66044, Note_off_c, 0, 66, 100
3, 66048, Control_c, 0, 64, 127
3, 66048, Note_on_c, 0, 56, 70
3, 66176, Note_on_c, 0, 61, 70
3, 66300, Note_off_c, 0, 56, 100
3, 66304, Note_on_c, 0, 64, 70
3, 66428, Note_off_c, 0, 61, 100
3, 66432, Note_on_c, 0, 56, 70
3, 66556, Note_off_c, 0, 64, 100
3, 66560, Note_on_c, 0, 61, 70
3, 66684, Note_off_c, 0, 56, 100
3, 66688, Note_on_c, 0, 64, 70
3, 66808, Control_c, 0, 64, 0
3, 66812, Note_off_c, 0, 61, 100
3, 66816, Control_c, 0, 64, 127
3, 66816, Note_on_c, 0, 57, 70
3, 66940, Note_off_c, 0, 64, 100
3, 66944, Note_on_c, 0, 61, 70
3, 67068, Note_off_c, 0, 57, 100
3, 67072, Note_on_c, 0, 66, 70
3, 67196, Note_off_c, 0, 61, 100
3, 67200, Note_on_c, 0, 57, 70
3, 67324, Note_off_c, 0, 66, 100
3, 67328, Note_on_c, 0, 61, 70
3, 67452, Note_off_c, 0, 57, 100
3, 67456, Note_on_c, 0, 66, 70
3, 67576, Control_c, 0, 64, 0
3, 67580, Note_off_c, 0, 61, 100
3, 67580, Note_off_c, 0, 66, 100
3, 67584, Control_c, 0, 64, 127
3, 67584, Note_on_c, 0, 56, 70
3, 67712, Note_on_c, 0, 59, 70
3, 67836, Note_off_c, 0, 56, 100
3, 67840, Note_on_c, 0, 64, 70
3, 67964, Note_off_c, 0, 59, 100
3, 67968, Note_on_c, 0, 56, 70
3, 68092, Note_off_c, 0, 64, 100
3, 68096, Note_on_c, 0, 59, 70
3, 68220, Note_off_c, 0, 56, 100
3, 68224, Note_on_c, 0, 64, 70
3, 68344, Control_c, 0, 64, 0
3, 68348, Note_off_c, 0, 59, 100
3, 68352, Control_c, 0, 64, 127
3, 68352, Note_on_c, 0, 57, 70
3, 68476, Note_off_c, 0, 64, 100
3, 68480, Note_on_c, 0, 59, 70
3, 68604, Note_off_c, 0, 57, 100
3, 68608, Note_on_c, 0, 63, 70
3, 68732, Note_off_c, 0, 59, 100
3, 68736, Note_on_c, 0, 57, 70
3, 68860, Note_off_c, 0, 63, 100
3, 68864, Note_on_c, 0, 59, 70
3, 68988, Note_off_c, 0, 57, 100
3, 68992, Note_on_c, 0, 63, 70
3, 69112, Control_c, 0, 64, 0
3, 69116, Note_off_c, 0, 59, 100
3, 69116, Note_off_c, 0, 63, 100
3, 69120, Control_c, 0, 64, 127
3, 69120, Note_on_c, 0, 56, 70
3, 69248, Note_on_c, 0, 59, 70
3, 69372, Note_off_c, 0, 56, 100
3, 69376, Note_on_c, 0, 64, 70
3, 69500, Note_off_c, 0, 59, 100
3, 69504, Note_on_c, 0, 59, 70
3, 69628, Note_off_c, 0, 64, 100
3, 69632, Note_on_c, 0, 64, 70
3, 69756, Note_off_c, 0, 59, 100
3, 69760, Note_on_c, 0, 68, 70
3, 69884, Note_off_c, 0, 64, 100
3, 69888, Note_on_c, 0, 59, 70
3, 70012, Note_off_c, 0, 68, 100
3, 70016, Note_on_c, 0, 64, 70
3, 70140, Note_off_c, 0, 59, 100
3, 70144, Note_on_c, 0, 68, 70
3, 70268, Note_off_c, 0, 64, 100
3, 70272, Note_on_c, 0, 59, 70
3, 70396, Note_off_c, 0, 68, 100
3, 70400, Note_on_c, 0, 64, 70
3, 70524, Note_off_c, 0, 59, 100
3, 70528, Note_on_c, 0, 68, 70
3, 70648, Control_c, 0, 64, 0
3, 70652, Note_off_c, 0, 64, 100
3, 70652, Note_off_c, 0, 68, 100
3, 70656, Control_c, 0, 64, 127
3, 70656, Note_on_c, 0, 59, 70
3, 70784, Note_on_c, 0, 66, 70
3, 70908, Note_off_c, 0, 59, 100
3, 70912, Note_on_c, 0, 69, 70
3, 71036, Note_off_c, 0, 66, 100
3, 71040, Note_on_c, 0, 59, 70
3, 71164, Note_off_c, 0, 69, 100
3, 71168, Note_on_c, 0, 66, 70
3, 71292, Note_off_c, 0, 59, 100
3, 71296, Note_on_c, 0, 69, 70
3, 71420, Note_off_c, 0, 66, 100
3, 71424, Note_on_c, 0, 59, 70
3, 71548, Note_off_c, 0, 69, 100
3, 71552, Note_on_c, 0, 66, 70
3, 71676, Note_off_c, 0, 59, 100
3, 71680, Note_on_c, 0, 69, 70
3, 71804, Note_off_c, 0, 66, 100
3, 71808, Note_on_c, 0, 59, 70
3, 71932, Note_off_c, 0, 69, 100
3, 71936, Note_on_c, 0, 66, 70
3, 72060, Note_off_c, 0, 59, 100
3, 72064, Note_on_c, 0, 69, 70
3, 72184, Control_c, 0, 64, 0
3, 72188, Note_off_c, 0, 66, 100
3, 72188, Note_off_c, 0, 69, 100
3, 72192, Control_c, 0, 64, 127
3, 72192, Note_on_c, 0, 59, 70
3, 72320, Note_on_c, 0, 64, 71
3, 72444, Note_off_c, 0, 59, 100
3, 72448, Note_on_c, 0, 68, 73
3, 72572, Note_off_c, 0, 64, 100
3, 72576, Note_on_c, 0, 59, 75
3, 72700, Note_off_c, 0, 68, 100
3, 72704, Note_on_c, 0, 64, 77
3, 72828, Note_off_c, 0, 59, 100
3, 72832, Note_on_c, 0, 68, 79
3, 72952, Control_c, 0, 64, 0
3, 72956, Note_off_c, 0, 64, 100
3, 72960, Control_c, 0, 64, 127
3, 72960, Note_on_c, 0, 60, 80
3, 73084, Note_off_c, 0, 68, 100
3, 73088, Note_on_c, 0, 66, 82
3, 73212, Note_off_c, 0, 60, 100
3, 73216, Note_on_c, 0, 68, 84
3, 73336, Control_c, 0, 64, 0
3, 73340, Note_off_c, 0, 66, 100
3, 73344, Control_c, 0, 64, 127
3, 73344, Note_on_c, 0, 61, 86
3, 73468, Note_off_c, 0, 68, 100
3, 73472, Note_on_c, 0, 64, 88
3, 73596, Note_off_c, 0, 61, 100
3, 73600, Note_on_c, 0, 68, 89
3, 73720, Control_c, 0, 64, 0
3, 73724, Note_off_c, 0, 64, 100
3, 73724, Note_off_c, 0, 68, 100
3, 73728, Control_c, 0, 64, 127
3, 73728, Note_on_c, 0, 63, 90
3, 73856, Note_on_c, 0, 66, 90
3, 73980, Note_off_c, 0, 63, 100
3, 73984, Note_on_c, 0, 68, 90
3, 74108, Note_off_c, 0, 66, 100
3, 74112, Note_on_c, 0, 63, 90
3, 74236, Note_off_c, 0, 68, 100
3, 74240, Note_on_c, 0, 66, 90
3, 74364, Note_off_c, 0, 63, 100
3, 74368, Note_on_c, 0, 68, 90
3, 74488, Control_c, 0, 64, 0
3, 74492, Note_off_c, 0, 66, 100
3, 74496, Control_c, 0, 64, 127
3, 74496, Note_on_c, 0, 64, 90
3, 74620, Note_off_c, 0, 68, 100
3, 74624, Note_on_c, 0, 68, 90
3, 74748, Note_off_c, 0, 64, 100
3, 74752, Note_on_c, 0, 73, 90
3, 74876, Note_off_c, 0, 68, 100
3, 74880, Note_on_c, 0, 64, 90
3, 75004, Note_off_c, 0, 73, 100
3, 75008, Note_on_c, 0, 68, 90
3, 75132, Note_off_c, 0, 64, 100
3, 75136, Note_on_c, 0, 73, 90
3, 75256, Control_c, 0, 64, 0
3, 75260, Note_off_c, 0, 68, 100
3, 75260, Note_off_c, 0, 73, 100
3, 75264, Control_c, 0, 64, 127
3, 75264, Note_on_c, 0, 62, 80
3, 75392, Note_on_c, 0, 66, 80
3, 75516, Note_off_c, 0, 62, 100
3, 75520, Note_on_c, 0, 69, 79
3, 75644, Note_off_c, 0, 66, 100
3, 75648, Note_on_c, 0, 62, 78
3, 75772, Note_off_c, 0, 69, 100
3, 75776, Note_on_c, 0, 66, 77
3, 75900, Note_off_c, 0, 62, 100
3, 75904, Note_on_c, 0, 69, 76
3, 76024, Control_c, 0, 64, 0
3, 76028, Note_off_c, 0, 66, 100
3, 76032, Control_c, 0, 64, 127
3, 76032, Note_on_c, 0, 60, 75
3, 76156, Note_off_c, 0, 69, 100
3, 76160, Note_on_c, 0, 66, 74
3, 76284, Note_off_c, 0, 60, 100
3, 76288, Note_on_c, 0, 68, 73
3, 76412, Note_off_c, 0, 66, 100
3, 76416, Note_on_c, 0, 60, 72
3, 76540, Note_off_c, 0, 68, 100
3, 76544, Note_on_c, 0, 66, 71
3, 76668, Note_off_c, 0, 60, 100
3, 76672, Note_on_c, 0, 68, 71
3, 76792, Control_c, 0, 64, 0
3, 76796, Note_off_c, 0, 66, 100
3, 76796, Note_off_c, 0, 68, 100
3, 76800, Control_c, 0, 64, 127
3, 76800, Note_on_c, 0, 61, 70
3, 76928, Note_on_c, 0, 64, 70
3, 77052, Note_off_c, 0, 61, 100
3, 77056, Note_on_c, 0, 68, 70
3, 77180, Note_off_c, 0, 64, 100
3, 77184, Note_on_c, 0, 61, 70
3, 77308, Note_off_c, 0, 68, 100
3, 77312, Note_on_c, 0, 64, 70
3, 77436, Note_off_c, 0, 61, 100
3, 77440, Note_on_c, 0, 68, 70
3, 77560, Control_c, 0, 64, 0
3, 77564, Note_off_c, 0, 64, 100
3, 77568, Control_c, 0, 64, 127
3, 77568, Note_on_c, 0, 61, 70
3, 77692, Note_off_c, 0, 68, 100
3, 77696, Note_on_c, 0, 65, 70
3, 77820, Note_off_c, 0, 61, 100
3, 77824, Note_on_c, 0, 68, 70
3, 77948, Note_off_c, 0, 65, 100
3, 77952, Note_on_c, 0, 61, 70
3, 78076, Note_off_c, 0, 68, 100
3, 78080, Note_on_c, 0, 65, 70
3, 78204, Note_off_c, 0, 61, 100
3, 78208, Note_on_c, 0, 68, 70
3, 78328, Control_c, 0, 64, 0
3, 78332, Note_off_c, 0, 65, 100
3, 78332, Note_off_c, 0, 68, 100
3, 78336, Control_c, 0, 64, 127
3, 78336, Note_on_c, 0, 61, 70
3, 78464, Note_on_c, 0, 66, 70
3, 78588, Note_off_c, 0, 61, 100
3, 78592, Note_on_c, 0, 69, 70
3, 78716, Note_off_c, 0, 66, 100
3, 78720, Note_on_c, 0, 61, 70
3, 78844, Note_off_c, 0, 69, 100
3, 78848, Note_on_c, 0, 66, 70
3, 78972, Note_off_c, 0, 61, 100
3, 78976, Note_on_c, 0, 69, 70
3, 79100, Note_off_c, 0, 66, 100
3, 79104, Note_on_c, 0, 61, 70
3, 79228, Note_off_c, 0, 69, 100
3, 79232, Note_on_c, 0, 66, 70
3, 79356, Note_off_c, 0, 61, 100
3, 79360, Note_on_c, 0, 69, 70
3, 79484, Note_off_c, 0, 66, 100
3, 79488, Note_on_c, 0, 61, 70
3, 79612, Note_off_c, 0, 69, 100
3, 79616, Note_on_c, 0, 66, 70
3, 79740, Note_off_c, 0, 61, 100
3, 79744, Note_on_c, 0, 69, 70
3, 79864, Control_c, 0, 64, 0
3, 79868, Note_off_c, 0, 66, 100
3, 79868, Note_off_c, 0, 69, 100
3, 79872, Control_c, 0, 64, 127
3, 79872, Note_on_c, 0, 61, 70
3, 80000, Note_on_c, 0, 65, 70
3, 80124, Note_off_c, 0, 61, 100
3, 80128, Note_on_c, 0, 68, 70
3, 80252, Note_off_c, 0, 65, 100
3, 80256, Note_on_c, 0, 61, 70
3, 80380, Note_off_c, 0, 68, 100
3, 80384, Note_on_c, 0, 65, 70
3, 80508, Note_off_c, 0, 61, 100
3, 80512, Note_on_c, 0, 68, 70
3, 80636, Note_off_c, 0, 65, 100
3, 80640, Note_on_c, 0, 61, 70
3, 80764, Note_off_c, 0, 68, 100
3, 80768, Note_on_c, 0, 65, 70
3, 80892, Note_off_c, 0, 61, 100
3, 80896, Note_on_c, 0, 68, 70
3, 81020, Note_off_c, 0, 65, 100
3, 81024, Note_on_c, 0, 61, 70
3, 81148, Note_off_c, 0, 68, 100
3, 81152, Note_on_c, 0, 65, 70
3, 81276, Note_off_c, 0, 61, 100
3, 81280, Note_on_c, 0, 68, 70
3, 81400, Control_c, 0, 64, 0
3, 81404, Note_off_c, 0, 65, 100
3, 81404, Note_off_c, 0, 68, 100
3, 81408, Control_c, 0, 64, 127
3, 81408, Note_on_c, 0, 61, 70
3, 81536, Note_on_c, 0, 66, 70
3, 81660, Note_off_c, 0, 61, 100
3, 81664, Note_on_c, 0, 69, 70
3, 81788, Note_off_c, 0, 66, 100
3, 81792, Note_on_c, 0, 61, 70
3, 81916, Note_off_c, 0, 69, 100
3, 81920, Note_on_c, 0, 66, 70
3, 82044, Note_off_c, 0, 61, 100
3, 82048, Note_on_c, 0, 69, 70
3, 82172, Note_off_c, 0, 66, 100
3, 82176, Note_on_c, 0, 61, 70
3, 82300, Note_off_c, 0, 69, 100
3, 82304, Note_on_c, 0, 66, 70
3, 82428, Note_off_c, 0, 61, 100
3, 82432, Note_on_c, 0, 69, 70
3, 82556, Note_off_c, 0, 66, 100
3, 82560, Note_on_c, 0, 61, 70
3, 82684, Note_off_c, 0, 69, 100
3, 82688, Note_on_c, 0, 66, 70
3, 82812, Note_off_c, 0, 61, 100
3, 82816, Note_on_c, 0, 69, 70
3, 82936, Control_c, 0, 64, 0
3, 82940, Note_off_c, 0, 66, 100
3, 82940, Note_off_c, 0, 69, 100
3, 82944, Control_c, 0, 64, 127
3, 82944, Note_on_c, 0, 61, 70
3, 83072, Note_on_c, 0, 65, 70
3, 83196, Note_off_c, 0, 61, 100
3, 83200, Note_on_c, 0, 68, 70
3, 83324, Note_off_c, 0, 65, 100
3, 83328, Note_on_c, 0, 61, 70
3, 83452, Note_off_c, 0, 68, 100
3, 83456, Note_on_c, 0, 65, 70
3, 83580, Note_off_c, 0, 61, 100
3, 83584, Note_on_c, 0, 68, 70
3, 83704, Control_c, 0, 64, 0
3, 83708, Note_off_c, 0, 65, 100
3, 83712, Control_c, 0, 64, 127
3, 83712, Note_on_c, 0, 61, 70
3, 83836, Note_off_c, 0, 68, 100
3, 83840, Note_on_c, 0, 66, 70
3, 83964, Note_off_c, 0, 61, 100
3, 83968, Note_on_c, 0, 69, 70
3, 84092, Note_off_c, 0, 66, 100
3, 84096, Note_on_c, 0, 61, 70
3, 84220, Note_off_c, 0, 69, 100
3, 84224, Note_on_c, 0, 66, 70
3, 84348, Note_off_c, 0, 61, 100
3, 84352, Note_on_c, 0, 69, 70
3, 84472, Control_c, 0, 64, 0
3, 84476, Note_off_c, 0, 66, 100
3, 84476, Note_off_c, 0, 69, 100
3, 84480, Control_c, 0, 64, 127
3, 84480, Note_on_c, 0, 59, 70
3, 84608, Note_on_c, 0, 66, 70
3, 84732, Note_off_c, 0, 59, 100
3, 84736, Note_on_c, 0, 69, 70
3, 84860, Note_off_c, 0, 66, 100
3, 84864, Note_on_c, 0, 59, 70
3, 84988, Note_off_c, 0, 69, 100
3, 84992, Note_on_c, 0, 66, 70
3, 85116, Note_off_c, 0, 59, 100
3, 85120, Note_on_c, 0, 69, 70
3, 85244, Note_off_c, 0, 66, 100
3, 85248, Note_on_c, 0, 59, 70
3, 85372, Note_off_c, 0, 69, 100
3, 85376, Note_on_c, 0, 66, 70
3, 85500, Note_off_c, 0, 59, 100
3, 85504, Note_on_c, 0, 69, 70
3, 85628, Note_off_c, 0, 66, 100
3, 85632, Note_on_c, 0, 59, 70
3, 85756, Note_off_c, 0, 69, 100
3, 85760, Note_on_c, 0, 64, 70
3, 85884, Note_off_c, 0, 59, 100
3, 85888, Note_on_c, 0, 68, 70
3, 86008, Control_c, 0, 64, 0
3, 86012, Note_off_c, 0, 64, 100
3, 86012, Note_off_c, 0, 68, 100
3, 86016, Control_c, 0, 64, 127
3, 86016, Note_on_c, 0, 57, 70
3, 86144, Note_on_c, 0, 64, 70
3, 86268, Note_off_c, 0, 57, 100
3, 86272, Note_on_c, 0, 68, 70
3, 86396, Note_off_c, 0, 64, 100
3, 86400, Note_on_c, 0, 57, 70
3, 86524, Note_off_c, 0, 68, 100
3, 86528, Note_on_c, 0, 63, 70
3, 86652, Note_off_c, 0, 57, 100
3, 86656, Note_on_c, 0, 66, 70
3, 86776, Control_c, 0, 64, 0
3, 86780, Note_off_c, 0, 63, 100
3, 86784, Control_c, 0, 64, 127
3, 86784, Note_on_c, 0, 56, 70
3, 86908, Note_off_c, 0, 66, 100
3, 86912, Note_on_c, 0, 63, 70
3, 87036, Note_off_c, 0, 56, 100
3, 87040, Note_on_c, 0, 66, 70
3, 87164, Note_off_c, 0, 63, 100
3, 87168, Note_on_c, 0, 56, 70
3, 87292, Note_off_c, 0, 66, 100
3, 87296, Note_on_c, 0, 61, 70
3, 87420, Note_off_c, 0, 56, 100
3, 87424, Note_on_c, 0, 64, 70
3, 87544, Control_c, 0, 64, 0
3, 87548, Note_off_c, 0, 61, 100
3, 87548, Note_off_c, 0, 64, 100
3, 87552, Control_c, 0, 64, 127
3, 87552, Note_on_c, 0, 54, 70
3, 87680, Note_on_c, 0, 61, 70
3, 87804, Note_off_c, 0, 54, 100
3, 87808, Note_on_c, 0, 63, 71
3, 87932, Note_off_c, 0, 61, 100
3, 87936, Note_on_c, 0, 54, 72
3, 88060, Note_off_c, 0, 63, 100
3, 88064, Note_on_c, 0, 61, 73
3, 88188, Note_off_c, 0, 54, 100
3, 88192, Note_on_c, 0, 63, 74
3, 88316, Note_off_c, 0, 61, 100
3, 88320, Note_on_c, 0, 56, 75
3, 88444, Note_off_c, 0, 63, 100
3, 88448, Note_on_c, 0, 61, 76
3, 88572, Note_off_c, 0, 56, 100
3, 88576, Note_on_c, 0, 63, 77
3, 88700, Note_off_c, 0, 61, 100
3, 88704, Note_on_c, 0, 57, 78
3, 88828, Note_off_c, 0, 63, 100
3, 88832, Note_on_c, 0, 61, 79
3, 88956, Note_off_c, 0, 57, 100
3, 88960, Note_on_c, 0, 63, 79
3, 89080, Control_c, 0, 64, 0
3, 89084, Note_off_c, 0, 61, 100
3, 89084, Note_off_c, 0, 63, 100
3, 89088, Control_c, 0, 64, 127
3, 89088, Note_on_c, 0, 56, 80
3, 89216, Note_on_c, 0, 61, 80
3, 89340, Note_off_c, 0, 56, 100
3, 89344, Note_on_c, 0, 64, 80
3, 89468, Note_off_c, 0, 61, 100
3, 89472, Note_on_c, 0, 56, 80
3, 89596, Note_off_c, 0, 64, 100
3, 89600, Note_on_c, 0, 61, 80
3, 89724, Note_off_c, 0, 56, 100
3, 89728, Note_on_c, 0, 64, 80
3, 89848, Control_c, 0, 64, 0
3, 89852, Note_off_c, 0, 61, 100
3, 89856, Control_c, 0, 64, 127
3, 89856, Note_on_c, 0, 54, 80
3, 89980, Note_off_c, 0, 64, 100
3, 89984, Note_on_c, 0, 60, 80
3, 90108, Note_off_c, 0, 54, 100
3, 90112, Note_on_c, 0, 63, 80
3, 90236, Note_off_c, 0, 60, 100
3, 90240, Note_on_c, 0, 54, 80
3, 90364, Note_off_c, 0, 63, 100
3, 90368, Note_on_c, 0, 60, 80
3, 90492, Note_off_c, 0, 54, 100
3, 90496, Note_on_c, 0, 63, 80
3, 90616, Control_c, 0, 64, 0
3, 90620, Note_off_c, 0, 60, 100
3, 90620, Note_off_c, 0, 63, 100
3, 90624, Control_c, 0, 64, 127
3, 90624, Note_on_c, 0, 52, 70
3, 90752, Note_on_c, 0, 56, 70
3, 90876, Note_off_c, 0, 52, 100
3, 90880, Note_on_c, 0, 61, 70
3, 91004, Note_off_c, 0, 56, 100
3, 91008, Note_on_c, 0, 56, 70
3, 91132, Note_off_c, 0, 61, 100
3, 91136, Note_on_c, 0, 61, 70
3, 91260, Note_off_c, 0, 56, 100
3, 91264, Note_on_c, 0, 64, 70
3, 91388, Note_off_c, 0, 61, 100
3, 91392, Note_on_c, 0, 56, 70
3, 91516, Note_off_c, 0, 64, 100
3, 91520, Note_on_c, 0, 61, 70
3, 91644, Note_off_c, 0, 56, 100
3, 91648, Note_on_c, 0, 64, 70
3, 91772, Note_off_c, 0, 61, 100
3, 91776, Note_on_c, 0, 56, 70
3, 91900, Note_off_c, 0, 64, 100
3, 91904, Note_on_c, 0, 61, 70
3, 92028, Note_off_c, 0, 56, 100
3, 92032, Note_on_c, 0, 64, 70
3, 92152, Control_c, 0, 64, 0
3, 92156, Note_off_c, 0, 61, 100
3, 92156, Note_off_c, 0, 64, 100
3, 92160, Control_c, 0, 64, 127
3, 92160, Note_on_c, 0, 56, 70
3, 92288, Note_on_c, 0, 63, 70
3, 92412, Note_off_c, 0, 56, 100
3, 92416, Note_on_c, 0, 66, 70
3, 92540, Note_off_c, 0, 63, 100
3, 92544, Note_on_c, 0, 56, 70
3, 92668, Note_off_c, 0, 66, 100
3, 92672, Note_on_c, 0, 63, 70
3, 92796, Note_off_c, 0, 56, 100
3, 92800, Note_on_c, 0, 66, 70
3, 92924, Note_off_c, 0, 63, 100
3, 92928, Note_on_c, 0, 56, 70
3, 93052, Note_off_c, 0, 66, 100
3, 93056, Note_on_c, 0, 63, 70
3, 93180, Note_off_c, 0, 56, 100
3, 93184, Note_on_c, 0, 66, 70
3, 93308, Note_off_c, 0, 63, 100
3, 93312, Note_on_c, 0, 56, 70
3, 93436, Note_off_c, 0, 66, 100
3, 93440, Note_on_c, 0, 63, 70
3, 93564, Note_off_c, 0, 56, 100
3, 93568, Note_on_c, 0, 66, 70
3, 93688, Control_c, 0, 64, 0
3, 93692, Note_off_c, 0, 63, 100
3, 93692, Note_off_c, 0, 66, 100
3, 93696, Control_c, 0, 64, 127
3, 93696, Note_on_c, 0, 56, 70
3, 93824, Note_on_c, 0, 64, 71
3, 93948, Note_off_c, 0, 56, 100
3, 93952, Note_on_c, 0, 61, 73
3, 94076, Note_off_c, 0, 64, 100
3, 94080, Note_on_c, 0, 68, 75
3, 94204, Note_off_c, 0, 61, 100
3, 94208, Note_on_c, 0, 64, 76
3, 94332, Note_off_c, 0, 68, 100
3, 94336, Note_on_c, 0, 73, 78
3, 94460, Note_off_c, 0, 64, 100
3, 94464, Note_on_c, 0, 68, 80
3, 94588, Note_off_c, 0, 73, 100
3, 94592, Note_on_c, 0, 76, 81
3, 94716, Note_off_c, 0, 68, 100
3, 94720, Note_on_c, 0, 73, 83
3, 94844, Note_off_c, 0, 76, 100
3, 94848, Note_on_c, 0, 80, 85
3, 94972, Note_off_c, 0, 73, 100
3, 94976, Note_on_c, 0, 76, 86
3, 95100, Note_off_c, 0, 80, 100
3, 95104, Note_on_c, 0, 73, 88
3, 95224, Control_c, 0, 64, 0
3, 95228, Note_off_c, 0, 76, 100
3, 95228, Note_off_c, 0, 73, 100
3, 95232, Control_c, 0, 64, 127
3, 95232, Note_on_c, 0, 72, 85
3, 95360, Note_on_c, 0, 75, 84
3, 95484, Note_off_c, 0, 72, 100
3, 95488, Note_on_c, 0, 69, 83
3, 95612, Note_off_c, 0, 75, 100
3, 95616, Note_on_c, 0, 72, 82
3, 95740, Note_off_c, 0, 69, 100
3, 95744, Note_on_c, 0, 66, 80
3, 95868, Note_off_c, 0, 72, 100
3, 95872, Note_on_c, 0, 69, 79
3, 95996, Note_off_c, 0, 66, 100
3, 96000, Note_on_c, 0, 63, 78
3, 96124, Note_off_c, 0, 69, 100
3, 96128, Note_on_c, 0, 66, 77
3, 96252, Note_off_c, 0, 63, 100
3, 96256, Note_on_c, 0, 57, 75
3, 96380, Note_off_c, 0, 66, 100
3, 96384, Note_on_c, 0, 60, 74
3, 96508, Note_off_c, 0, 57, 100
3, 96512, Note_on_c, 0, 56, 73
3, 96636, Note_off_c, 0, 60, 100
3, 96640, Note_on_c, 0, 54, 72
3, 96760, Control_c, 0, 64, 0
3, 96764, Note_off_c, 0, 56, 100
3, 96764, Note_off_c, 0, 54, 100
3, 96768, Note_on_c, 0, 52, 70
3, 96768, Note_on_c, 0, 61, 70
3, 96768, Control_c, 0, 64, 127
3, 96896, Note_on_c, 0, 64, 71
3, 97020, Note_off_c, 0, 52, 100
3, 97020, Note_off_c, 0, 61, 100
3, 97024, Note_on_c, 0, 61, 73
3, 97148, Note_off_c, 0, 64, 100
3, 97152, Note_on_c, 0, 68, 75
3, 97276, Note_off_c, 0, 61, 100
3, 97280, Note_on_c, 0, 64, 76
3, 97404, Note_off_c, 0, 68, 100
3, 97408, Note_on_c, 0, 73, 78
3, 97532, Note_off_c, 0, 64, 100
3, 97536, Note_on_c, 0, 68, 80
3, 97660, Note_off_c, 0, 73, 100
3, 97664, Note_on_c, 0, 76, 81
3, 97788, Note_off_c, 0, 68, 100
3, 97792, Note_on_c, 0, 73, 83
3, 97916, Note_off_c, 0, 76, 100
3, 97920, Note_on_c, 0, 80, 85
3, 98044, Note_off_c, 0, 73, 100
3, 98048, Note_on_c, 0, 76, 86
3, 98172, Note_off_c, 0, 80, 100
3, 98176, Note_on_c, 0, 73, 88
3, 98296, Control_c, 0, 64, 0
3, 98300, Note_off_c, 0, 76, 100
3, 98300, Note_off_c, 0, 73, 100
3, 98304, Control_c, 0, 64, 127
3, 98304, Note_on_c, 0, 72, 85
3, 98432, Note_on_c, 0, 75, 84
3, 98556, Note_off_c, 0, 72, 100
3, 98560, Note_on_c, 0, 69, 83
3, 98684, Note_off_c, 0, 75, 100
3, 98688, Note_on_c, 0, 72, 82
3, 98812, Note_off_c, 0, 69, 100
3, 98816, Note_on_c, 0, 66, 80
3, 98940, Note_off_c, 0, 72, 100
3, 98944, Note_on_c, 0, 69, 79
3, 99068, Note_off_c, 0, 66, 100
3, 99072, Note_on_c, 0, 63, 78
3, 99196, Note_off_c, 0, 69, 100
3, 99200, Note_on_c, 0, 66, 77
3, 99324, Note_off_c, 0, 63, 100
3, 99328, Note_on_c, 0, 57, 75
3, 99452, Note_off_c, 0, 66, 100
3, 99456, Note_on_c, 0, 60, 74
3, 99580, Note_off_c, 0, 57, 100
3, 99584, Note_on_c, 0, 56, 73
3, 99708, Note_off_c, 0, 60, 100
3, 99712, Note_on_c, 0, 54, 72
3, 99832, Control_c, 0, 64, 0
3, 99836, Note_off_c, 0, 56, 100
3, 99836, Note_off_c, 0, 54, 100
3, 99840, Control_c, 0, 64, 127
3, 99840, Note_on_c, 0, 52, 70
3, 99840, Note_on_c, 0, 61, 70
3, 99968, Note_on_c, 0, 56, 70
3, 100092, Note_off_c, 0, 52, 100
3, 100092, Note_off_c, 0, 61, 100
3, 100096, Note_on_c, 0, 61, 70
3, 100220, Note_off_c, 0, 56, 100
3, 100224, Note_on_c, 0, 64, 69
3, 100348, Note_off_c, 0, 61, 100
3, 100352, Note_on_c, 0, 61, 69
3, 100476, Note_off_c, 0, 64, 100
3, 100480, Note_on_c, 0, 56, 68
3, 100604, Note_off_c, 0, 61, 100
3, 100732, Note_off_c, 0, 56, 100
3, 100736, Note_on_c, 0, 52, 67
3, 100864, Note_on_c, 0, 56, 67
3, 100988, Note_off_c, 0, 52, 100
3, 100992, Note_on_c, 0, 61, 67
3, 101116, Note_off_c, 0, 56, 100
3, 101120, Note_on_c, 0, 56, 66
3, 101244, Note_off_c, 0, 61, 100
3, 101248, Note_on_c, 0, 52, 66
3, 101372, Note_off_c, 0, 56, 100
3, 101372, Note_off_c, 0, 52, 100
3, 101504, Note_on_c, 0, 49, 65
3, 101632, Note_on_c, 0, 52, 64
3, 101756, Note_off_c, 0, 49, 100
3, 101760, Note_on_c, 0, 56, 64
3, 101884, Note_off_c, 0, 52, 100
3, 101888, Note_on_c, 0, 52, 64
3, 102012, Note_off_c, 0, 56, 100
3, 102016, Note_on_c, 0, 49, 63
3, 102140, Note_off_c, 0, 52, 100
3, 102268, Note_off_c, 0, 49, 100
3, 103672, Control_c, 0, 64, 0
3, 103680, Note_on_c, 0, 61, 60
3, 103680, Note_on_c, 0, 56, 60
3, 103680, Note_on_c, 0, 52, 60
3, 104444, Note_off_c, 0, 61, 100
3, 104444, Note_off_c, 0, 56, 100
3, 104444, Note_off_c, 0, 52, 100
3, 104448, Note_on_c, 0, 52, 60
3, 104448, Note_on_c, 0, 56, 60
3, 104448, Note_on_c, 0, 61, 60
3, 105980, Note_off_c, 0, 52, 100
3, 105980, Note_off_c, 0, 56, 100
3, 105980, Note_off_c, 0, 61, 100
3, 106368, Control_c, 0, 7, 0
3, 106752, Note_on_c, 0, 61, 1
3, 107132, Note_off_c, 0, 61, 100
3, 107132, End_track
4, 0, Start_track
4, 0, Title_t, "Klavier Left"
4, 0, Control_c, 1, 0, 0
4, 0, Program_c, 1, 0
4, 0, Control_c, 1, 7, 100
4, 0, Control_c, 1, 10, 39
4, 0, Control_c, 1, 91, 127
4, 0, Key_signature, 4, "major"
4, 4, Note_on_c, 1, 49, 70
4, 4, Note_on_c, 1, 37, 70
4, 1532, Note_off_c, 1, 49, 100
4, 1532, Note_off_c, 1, 37, 100
4, 1536, Note_on_c, 1, 35, 70
4, 1536, Note_on_c, 1, 47, 70
4, 3068, Note_off_c, 1, 35, 100
4, 3068, Note_off_c, 1, 47, 100
4, 3072, Note_on_c, 1, 33, 70
4, 3072, Note_on_c, 1, 45, 70
4, 3836, Note_off_c, 1, 33, 100
4, 3836, Note_off_c, 1, 45, 100
4, 3840, Note_on_c, 1, 30, 70
4, 3840, Note_on_c, 1, 42, 70
4, 4604, Note_off_c, 1, 30, 100
4, 4604, Note_off_c, 1, 42, 100
4, 4608, Note_on_c, 1, 32, 70
4, 4608, Note_on_c, 1, 44, 70
4, 5372, Note_off_c, 1, 32, 100
4, 5372, Note_off_c, 1, 44, 100
4, 5376, Note_on_c, 1, 32, 70
4, 5376, Note_on_c, 1, 44, 70
4, 6140, Note_off_c, 1, 32, 100
4, 6140, Note_off_c, 1, 44, 100
4, 6144, Note_on_c, 1, 37, 70
4, 6144, Note_on_c, 1, 44, 70
4, 6144, Note_on_c, 1, 49, 70
4, 7676, Note_off_c, 1, 37, 100
4, 7676, Note_off_c, 1, 44, 100
4, 7676, Note_off_c, 1, 49, 100
4, 7680, Note_on_c, 1, 36, 70
4, 7680, Note_on_c, 1, 44, 70
4, 7680, Note_on_c, 1, 48, 70
4, 9212, Note_off_c, 1, 36, 100
4, 9212, Note_off_c, 1, 44, 100
4, 9212, Note_off_c, 1, 48, 100
4, 9216, Note_on_c, 1, 37, 70
4, 9216, Note_on_c, 1, 49, 70
4, 9980, Note_off_c, 1, 37, 100
4, 9980, Note_off_c, 1, 49, 100
4, 9984, Note_on_c, 1, 30, 70
4, 9984, Note_on_c, 1, 42, 70
4, 10748, Note_off_c, 1, 30, 100
4, 10748, Note_off_c, 1, 42, 100
4, 10752, Note_on_c, 1, 35, 70
4, 10752, Note_on_c, 1, 47, 70
4, 11516, Note_off_c, 1, 35, 100
4, 11516, Note_off_c, 1, 47, 100
4, 11520, Note_on_c, 1, 35, 70
4, 11520, Note_on_c, 1, 47, 70
4, 12284, Note_off_c, 1, 35, 100
4, 12284, Note_off_c, 1, 47, 100
4, 12288, Note_on_c, 1, 40, 70
4, 12288, Note_on_c, 1, 52, 70
4, 13820, Note_off_c, 1, 40, 100
4, 13820, Note_off_c, 1, 52, 100
4, 13824, Note_on_c, 1, 40, 70
4, 13824, Note_on_c, 1, 52, 70
4, 15356, Note_off_c, 1, 40, 100
4, 15356, Note_off_c, 1, 52, 100
4, 15360, Note_on_c, 1, 38, 70
4, 15360, Note_on_c, 1, 50, 70
4, 16892, Note_off_c, 1, 38, 100
4, 16892, Note_off_c, 1, 50, 100
4, 16896, Note_on_c, 1, 36, 70
4, 16896, Note_on_c, 1, 48, 70
4, 17276, Note_off_c, 1, 36, 100
4, 17276, Note_off_c, 1, 48, 100
4, 17280, Note_on_c, 1, 35, 70
4, 17280, Note_on_c, 1, 47, 70
4, 17660, Note_off_c, 1, 35, 100
4, 17660, Note_off_c, 1, 47, 100
4, 17664, Note_on_c, 1, 34, 70
4, 17664, Note_on_c, 1, 46, 70
4, 18428, Note_off_c, 1, 34, 100
4, 18428, Note_off_c, 1, 46, 100
4, 18432, Note_on_c, 1, 35, 70
4, 18432, Note_on_c, 1, 47, 70
4, 19196, Note_off_c, 1, 35, 100
4, 19196, Note_off_c, 1, 47, 100
4, 19200, Note_on_c, 1, 40, 70
4, 19580, Note_off_c, 1, 40, 100
4, 19584, Note_on_c, 1, 43, 70
4, 19964, Note_off_c, 1, 43, 100
4, 19968, Note_on_c, 1, 42, 70
4, 20732, Note_off_c, 1, 42, 100
4, 20736, Note_on_c, 1, 30, 70
4, 20736, Note_on_c, 1, 42, 70
4, 21500, Note_off_c, 1, 30, 100
4, 21500, Note_off_c, 1, 42, 100
4, 21504, Note_on_c, 1, 35, 70
4, 21504, Note_on_c, 1, 47, 70
4, 23040, Control_c, 1, 64, 127
4, 23420, Note_off_c, 1, 35, 100
4, 23420, Note_off_c, 1, 47, 100
4, 23424, Note_on_c, 1, 40, 82
4, 23424, Note_on_c, 1, 52, 80
4, 23804, Note_off_c, 1, 40, 100
4, 23804, Note_off_c, 1, 52, 100
4, 23808, Note_on_c, 1, 43, 90
4, 23808, Note_on_c, 1, 55, 90
4, 24188, Note_off_c, 1, 43, 100
4, 24188, Note_off_c, 1, 55, 100
4, 24192, Note_on_c, 1, 40, 82
4, 24192, Note_on_c, 1, 52, 80
4, 24568, Control_c, 1, 64, 0
4, 24572, Note_off_c, 1, 40, 100
4, 24572, Note_off_c, 1, 52, 100
4, 24576, Note_on_c, 1, 47, 70
4, 24576, Note_on_c, 1, 35, 70
4, 26112, Control_c, 1, 64, 127
4, 26492, Note_off_c, 1, 35, 100
4, 26492, Note_off_c, 1, 47, 100
4, 26496, Note_on_c, 1, 40, 80
4, 26496, Note_on_c, 1, 52, 81
4, 26876, Note_off_c, 1, 40, 100
4, 26876, Note_off_c, 1, 52, 100
4, 26880, Note_on_c, 1, 55, 92
4, 26880, Note_on_c, 1, 43, 92
4, 27260, Note_off_c, 1, 55, 100
4, 27260, Note_off_c, 1, 43, 100
4, 27264, Note_on_c, 1, 40, 80
4, 27264, Note_on_c, 1, 52, 80
4, 27640, Control_c, 1, 64, 0
4, 27644, Note_off_c, 1, 40, 100
4, 27644, Note_off_c, 1, 52, 100
4, 27648, Note_on_c, 1, 35, 70
4, 27648, Note_on_c, 1, 47, 70
4, 28412, Note_off_c, 1, 35, 100
4, 28412, Note_off_c, 1, 47, 100
4, 28416, Note_on_c, 1, 32, 70
4, 28416, Note_on_c, 1, 44, 70
4, 29180, Note_off_c, 1, 32, 100
4, 29180, Note_off_c, 1, 44, 100
4, 29184, Note_on_c, 1, 29, 70
4, 29184, Note_on_c, 1, 41, 70
4, 29948, Note_off_c, 1, 29, 100
4, 29948, Note_off_c, 1, 41, 100
4, 29952, Note_on_c, 1, 30, 70
4, 29952, Note_on_c, 1, 42, 70
4, 30716, Note_off_c, 1, 30, 100
4, 30716, Note_off_c, 1, 42, 100
4, 30720, Note_on_c, 1, 47, 70
4, 30720, Note_on_c, 1, 35, 70
4, 31484, Note_off_c, 1, 47, 100
4, 31484, Note_off_c, 1, 35, 100
4, 31488, Note_on_c, 1, 36, 70
4, 31488, Note_on_c, 1, 48, 70
4, 32252, Note_off_c, 1, 36, 100
4, 32252, Note_off_c, 1, 48, 100
4, 32256, Note_on_c, 1, 37, 70
4, 33020, Note_off_c, 1, 37, 100
4, 33024, Note_on_c, 1, 37, 70
4, 33788, Note_off_c, 1, 37, 100
4, 33792, Note_on_c, 1, 30, 70
4, 33792, Note_on_c, 1, 37, 70
4, 33792, Note_on_c, 1, 42, 70
4, 35324, Note_off_c, 1, 30, 100
4, 35324, Note_off_c, 1, 37, 100
4, 35324, Note_off_c, 1, 42, 100
4, 35328, Note_on_c, 1, 41, 70
4, 35328, Note_on_c, 1, 49, 70
4, 35328, Note_on_c, 1, 53, 70
4, 36860, Note_off_c, 1, 41, 100
4, 36860, Note_off_c, 1, 49, 100
4, 36860, Note_off_c, 1, 53, 100
4, 36864, Note_on_c, 1, 42, 70
4, 36864, Note_on_c, 1, 54, 70
4, 37628, Note_off_c, 1, 42, 100
4, 37628, Note_off_c, 1, 54, 100
4, 37632, Note_on_c, 1, 39, 77
4, 37632, Note_on_c, 1, 51, 77
4, 38012, Note_off_c, 1, 39, 100
4, 38012, Note_off_c, 1, 51, 100
4, 38016, Note_on_c, 1, 37, 80
4, 38016, Note_on_c, 1, 49, 80
4, 38396, Note_off_c, 1, 37, 100
4, 38396, Note_off_c, 1, 49, 100
4, 38400, Note_on_c, 1, 36, 84
4, 38400, Note_on_c, 1, 44, 84
4, 38400, Note_on_c, 1, 48, 84
4, 39548, Note_off_c, 1, 36, 100
4, 39548, Note_off_c, 1, 44, 100
4, 39548, Note_off_c, 1, 48, 100
4, 39552, Note_on_c, 1, 36, 90
4, 39552, Note_on_c, 1, 44, 90
4, 39552, Note_on_c, 1, 48, 90
4, 39932, Note_off_c, 1, 36, 100
4, 39932, Note_off_c, 1, 44, 100
4, 39932, Note_off_c, 1, 48, 100
4, 39936, Note_on_c, 1, 37, 90
4, 39936, Note_on_c, 1, 44, 90
4, 39936, Note_on_c, 1, 49, 90
4, 40700, Note_off_c, 1, 37, 100
4, 40700, Note_off_c, 1, 44, 100
4, 40700, Note_off_c, 1, 49, 100
4, 40704, Note_on_c, 1, 30, 90
4, 40704, Note_on_c, 1, 42, 90
4, 41084, Note_off_c, 1, 30, 100
4, 41084, Note_off_c, 1, 42, 100
4, 41088, Note_on_c, 1, 31, 79
4, 41088, Note_on_c, 1, 43, 79
4, 41468, Note_off_c, 1, 31, 100
4, 41468, Note_off_c, 1, 43, 100
4, 41472, Note_on_c, 1, 32, 70
4, 41472, Note_on_c, 1, 44, 70
4, 43004, Note_off_c, 1, 32, 100
4, 43004, Note_off_c, 1, 44, 100
4, 43008, Note_on_c, 1, 32, 70
4, 43008, Note_on_c, 1, 44, 70
4, 44540, Note_off_c, 1, 32, 100
4, 44540, Note_off_c, 1, 44, 100
4, 44544, Note_on_c, 1, 32, 70
4, 44544, Note_on_c, 1, 44, 70
4, 46076, Note_off_c, 1, 32, 100
4, 46076, Note_off_c, 1, 44, 100
4, 46080, Note_on_c, 1, 32, 70
4, 46080, Note_on_c, 1, 44, 70
4, 47612, Note_off_c, 1, 32, 100
4, 47612, Note_off_c, 1, 44, 100
4, 47616, Note_on_c, 1, 32, 70
4, 47616, Note_on_c, 1, 44, 70
4, 49148, Note_off_c, 1, 32, 100
4, 49148, Note_off_c, 1, 44, 100
4, 49152, Note_on_c, 1, 32, 70
4, 49152, Note_on_c, 1, 44, 70
4, 50684, Note_off_c, 1, 32, 100
4, 50684, Note_off_c, 1, 44, 100
4, 50688, Note_on_c, 1, 32, 70
4, 50688, Note_on_c, 1, 44, 70
4, 52220, Note_off_c, 1, 32, 100
4, 52220, Note_off_c, 1, 44, 100
4, 52224, Note_on_c, 1, 44, 70
4, 52224, Note_on_c, 1, 32, 70
4, 56828, Note_off_c, 1, 32, 100
4, 56828, Note_off_c, 1, 44, 100
4, 56832, Note_on_c, 1, 32, 70
4, 56832, Note_on_c, 1, 44, 70
4, 58364, Note_off_c, 1, 32, 100
4, 58364, Note_off_c, 1, 44, 100
4, 58368, Note_on_c, 1, 32, 80
4, 58368, Note_on_c, 1, 44, 80
4, 59900, Note_off_c, 1, 32, 100
4, 59900, Note_off_c, 1, 44, 100
4, 59904, Note_on_c, 1, 32, 85
4, 59904, Note_on_c, 1, 44, 85
4, 60668, Note_off_c, 1, 32, 100
4, 60668, Note_off_c, 1, 44, 100
4, 60672, Note_on_c, 1, 33, 82
4, 60672, Note_on_c, 1, 45, 82
4, 61436, Note_off_c, 1, 33, 100
4, 61436, Note_off_c, 1, 45, 100
4, 61440, Note_on_c, 1, 30, 78
4, 61440, Note_on_c, 1, 42, 78
4, 62204, Note_off_c, 1, 30, 100
4, 62204, Note_off_c, 1, 42, 100
4, 62208, Note_on_c, 1, 32, 74
4, 62208, Note_on_c, 1, 44, 74
4, 62972, Note_off_c, 1, 32, 100
4, 62972, Note_off_c, 1, 44, 100
4, 62976, Note_on_c, 1, 37, 70
4, 62976, Note_on_c, 1, 44, 70
4, 62976, Note_on_c, 1, 49, 70
4, 64508, Note_off_c, 1, 37, 100
4, 64508, Note_off_c, 1, 44, 100
4, 64508, Note_off_c, 1, 49, 100
4, 64512, Note_on_c, 1, 36, 70
4, 64512, Note_on_c, 1, 44, 70
4, 64512, Note_on_c, 1, 48, 70
4, 66044, Note_off_c, 1, 36, 100
4, 66044, Note_off_c, 1, 44, 100
4, 66044, Note_off_c, 1, 48, 100
4, 66048, Note_on_c, 1, 37, 70
4, 66048, Note_on_c, 1, 49, 70
4, 66812, Note_off_c, 1, 37, 100
4, 66812, Note_off_c, 1, 49, 100
4, 66816, Note_on_c, 1, 30, 70
4, 66816, Note_on_c, 1, 42, 70
4, 67580, Note_off_c, 1, 30, 100
4, 67580, Note_off_c, 1, 42, 100
4, 67584, Note_on_c, 1, 35, 70
4, 67584, Note_on_c, 1, 47, 70
4, 68348, Note_off_c, 1, 35, 100
4, 68348, Note_off_c, 1, 47, 100
4, 68352, Note_on_c, 1, 35, 70
4, 68352, Note_on_c, 1, 47, 70
4, 69116, Note_off_c, 1, 35, 100
4, 69116, Note_off_c, 1, 47, 100
4, 69120, Note_on_c, 1, 52, 70
4, 69120, Note_on_c, 1, 40, 70
4, 70652, Note_off_c, 1, 52, 100
4, 70652, Note_off_c, 1, 40, 100
4, 70656, Note_on_c, 1, 39, 70
4, 70656, Note_on_c, 1, 51, 70
4, 72188, Note_off_c, 1, 39, 100
4, 72188, Note_off_c, 1, 51, 100
4, 72192, Note_on_c, 1, 40, 70
4, 72192, Note_on_c, 1, 52, 70
4, 72956, Note_off_c, 1, 40, 100
4, 72956, Note_off_c, 1, 52, 100
4, 72960, Note_on_c, 1, 39, 80
4, 72960, Note_on_c, 1, 51, 80
4, 73340, Note_off_c, 1, 39, 100
4, 73340, Note_off_c, 1, 51, 100
4, 73344, Note_on_c, 1, 37, 86
4, 73344, Note_on_c, 1, 49, 86
4, 73724, Note_off_c, 1, 37, 100
4, 73724, Note_off_c, 1, 49, 100
4, 73728, Note_on_c, 1, 36, 90
4, 73728, Note_on_c, 1, 44, 90
4, 73728, Note_on_c, 1, 48, 90
4, 74492, Note_off_c, 1, 36, 100
4, 74492, Note_off_c, 1, 44, 100
4, 74492, Note_off_c, 1, 48, 100
4, 74496, Note_on_c, 1, 37, 90
4, 74496, Note_on_c, 1, 44, 90
4, 74496, Note_on_c, 1, 49, 90
4, 75260, Note_off_c, 1, 37, 100
4, 75260, Note_off_c, 1, 44, 100
4, 75260, Note_off_c, 1, 49, 100
4, 75264, Note_on_c, 1, 30, 80
4, 75264, Note_on_c, 1, 42, 80
4, 76028, Note_off_c, 1, 30, 100
4, 76028, Note_off_c, 1, 42, 100
4, 76032, Note_on_c, 1, 32, 75
4, 76032, Note_on_c, 1, 44, 75
4, 76796, Note_off_c, 1, 32, 100
4, 76796, Note_off_c, 1, 44, 100
4, 76800, Note_on_c, 1, 49, 70
4, 76800, Note_on_c, 1, 37, 70
4, 78336, Control_c, 1, 64, 127
4, 78716, Note_off_c, 1, 37, 100
4, 78716, Note_off_c, 1, 49, 100
4, 78720, Note_on_c, 1, 42, 76
4, 78720, Note_on_c, 1, 54, 77
4, 79100, Note_off_c, 1, 42, 100
4, 79100, Note_off_c, 1, 54, 100
4, 79104, Note_on_c, 1, 45, 80
4, 79104, Note_on_c, 1, 57, 81
4, 79484, Note_off_c, 1, 45, 100
4, 79484, Note_off_c, 1, 57, 100
4, 79488, Note_on_c, 1, 42, 76
4, 79488, Note_on_c, 1, 54, 76
4, 79864, Control_c, 1, 64, 0
4, 79868, Note_off_c, 1, 42, 100
4, 79868, Note_off_c, 1, 54, 100
4, 79872, Note_on_c, 1, 37, 70
4, 79872, Note_on_c, 1, 49, 70
4, 80252, Note_off_c, 1, 37, 100
4, 80252, Note_off_c, 1, 49, 100
4, 81408, Control_c, 1, 64, 127
4, 81792, Note_on_c, 1, 42, 77
4, 81792, Note_on_c, 1, 54, 76
4, 82172, Note_off_c, 1, 42, 100
4, 82172, Note_off_c, 1, 54, 100
4, 82176, Note_on_c, 1, 45, 81
4, 82176, Note_on_c, 1, 57, 81
4, 82556, Note_off_c, 1, 45, 100
4, 82556, Note_off_c, 1, 57, 100
4, 82560, Note_on_c, 1, 42, 77
4, 82560, Note_on_c, 1, 54, 77
4, 82936, Control_c, 1, 64, 0
4, 82940, Note_off_c, 1, 42, 100
4, 82940, Note_off_c, 1, 54, 100
4, 82944, Note_on_c, 1, 37, 70
4, 82944, Note_on_c, 1, 49, 70
4, 83708, Note_off_c, 1, 37, 100
4, 83708, Note_off_c, 1, 49, 100
4, 83712, Note_on_c, 1, 30, 70
4, 83712, Note_on_c, 1, 42, 70
4, 84476, Note_off_c, 1, 30, 100
4, 84476, Note_off_c, 1, 42, 100
4, 84480, Note_on_c, 1, 39, 70
4, 84480, Note_on_c, 1, 51, 70
4, 85628, Note_off_c, 1, 39, 100
4, 85628, Note_off_c, 1, 51, 100
4, 85632, Note_on_c, 1, 40, 70
4, 85632, Note_on_c, 1, 52, 70
4, 86012, Note_off_c, 1, 40, 100
4, 86012, Note_off_c, 1, 52, 100
4, 86016, Note_on_c, 1, 37, 70
4, 86016, Note_on_c, 1, 49, 70
4, 86396, Note_off_c, 1, 37, 100
4, 86396, Note_off_c, 1, 49, 100
4, 86400, Note_on_c, 1, 39, 70
4, 86400, Note_on_c, 1, 51, 70
4, 86780, Note_off_c, 1, 39, 100
4, 86780, Note_off_c, 1, 51, 100
4, 86784, Note_on_c, 1, 36, 70
4, 86784, Note_on_c, 1, 48, 70
4, 87164, Note_off_c, 1, 36, 100
4, 87164, Note_off_c, 1, 48, 100
4, 87168, Note_on_c, 1, 49, 70
4, 87168, Note_on_c, 1, 37, 70
4, 87548, Note_off_c, 1, 49, 100
4, 87548, Note_off_c, 1, 37, 100
4, 87552, Note_on_c, 1, 33, 70
4, 87552, Note_on_c, 1, 45, 70
4, 88316, Note_off_c, 1, 33, 100
4, 88316, Note_off_c, 1, 45, 100
4, 88320, Note_on_c, 1, 32, 75
4, 88320, Note_on_c, 1, 44, 75
4, 88700, Note_off_c, 1, 32, 100
4, 88700, Note_off_c, 1, 44, 100
4, 88704, Note_on_c, 1, 30, 78
4, 88704, Note_on_c, 1, 42, 78
4, 89084, Note_off_c, 1, 30, 100
4, 89084, Note_off_c, 1, 42, 100
4, 89088, Note_on_c, 1, 32, 80
4, 89088, Note_on_c, 1, 44, 80
4, 89852, Note_off_c, 1, 32, 100
4, 89852, Note_off_c, 1, 44, 100
4, 89856, Note_on_c, 1, 32, 80
4, 89856, Note_on_c, 1, 44, 80
4, 90620, Note_off_c, 1, 32, 100
4, 90620, Note_off_c, 1, 44, 100
4, 90624, Control_c, 1, 64, 127
4, 90624, Note_on_c, 1, 37, 80
4, 90624, Note_on_c, 1, 44, 80
4, 91772, Note_off_c, 1, 44, 100
4, 91776, Note_on_c, 1, 44, 80
4, 92060, Note_off_c, 1, 44, 100
4, 92064, Note_on_c, 1, 44, 101
4, 92152, Control_c, 1, 64, 0
4, 92156, Note_off_c, 1, 37, 100
4, 92156, Note_off_c, 1, 44, 100
4, 92160, Control_c, 1, 64, 127
4, 92160, Note_on_c, 1, 36, 80
4, 92160, Note_on_c, 1, 44, 80
4, 93308, Note_off_c, 1, 44, 100
4, 93312, Note_on_c, 1, 44, 80
4, 93596, Note_off_c, 1, 44, 100
4, 93600, Note_on_c, 1, 44, 100
4, 93688, Control_c, 1, 64, 0
4, 93692, Note_off_c, 1, 36, 100
4, 93692, Note_off_c, 1, 44, 100
4, 93696, Control_c, 1, 64, 127
4, 93696, Note_on_c, 1, 37, 70
4, 93696, Note_on_c, 1, 44, 70
4, 94844, Note_off_c, 1, 44, 100
4, 94848, Note_on_c, 1, 44, 85
4, 95132, Note_off_c, 1, 44, 100
4, 95136, Note_on_c, 1, 44, 102
4, 95224, Control_c, 1, 64, 0
4, 95228, Note_off_c, 1, 37, 100
4, 95228, Note_off_c, 1, 44, 100
4, 95232, Control_c, 1, 64, 127
4, 95232, Note_on_c, 1, 44, 80
4, 95232, Note_on_c, 1, 32, 80
4, 96380, Note_off_c, 1, 44, 100
4, 96384, Note_on_c, 1, 44, 80
4, 96668, Note_off_c, 1, 44, 100
4, 96672, Note_on_c, 1, 44, 80
4, 96760, Control_c, 1, 64, 0
4, 96764, Note_off_c, 1, 32, 100
4, 96764, Note_off_c, 1, 44, 100
4, 96768, Control_c, 1, 64, 127
4, 96768, Note_on_c, 1, 37, 70
4, 96768, Note_on_c, 1, 44, 70
4, 97916, Note_off_c, 1, 44, 100
4, 97920, Note_on_c, 1, 44, 85
4, 98204, Note_off_c, 1, 44, 100
4, 98208, Note_on_c, 1, 44, 88
4, 98296, Control_c, 1, 64, 0
4, 98300, Note_off_c, 1, 37, 100
4, 98300, Note_off_c, 1, 44, 100
4, 98304, Control_c, 1, 64, 127
4, 98304, Note_on_c, 1, 44, 80
4, 98304, Note_on_c, 1, 32, 80
4, 99452, Note_off_c, 1, 44, 100
4, 99456, Note_on_c, 1, 44, 80
4, 99740, Note_off_c, 1, 44, 100
4, 99744, Note_on_c, 1, 44, 80
4, 99832, Control_c, 1, 64, 0
4, 99836, Note_off_c, 1, 32, 100
4, 99836, Note_off_c, 1, 44, 100
4, 99840, Control_c, 1, 64, 127
4, 99840, Note_on_c, 1, 44, 70
4, 99840, Note_on_c, 1, 37, 70
4, 100604, Note_off_c, 1, 44, 100
4, 100608, Note_on_c, 1, 49, 68
4, 101372, Note_off_c, 1, 37, 100
4, 101372, Note_off_c, 1, 49, 100
4, 101376, Note_on_c, 1, 44, 65
4, 102140, Note_off_c, 1, 44, 100
4, 102144, Note_on_c, 1, 44, 63
4, 102272, Note_on_c, 1, 49, 62
4, 102396, Note_off_c, 1, 44, 100
4, 102400, Note_on_c, 1, 44, 62
4, 102524, Note_off_c, 1, 49, 100
4, 102528, Note_on_c, 1, 40, 61
4, 102652, Note_off_c, 1, 44, 100
4, 102656, Note_on_c, 1, 44, 61
4, 102780, Note_off_c, 1, 40, 100
4, 102784, Note_on_c, 1, 40, 61
4, 102908, Note_off_c, 1, 44, 100
4, 102908, Note_off_c, 1, 40, 100
4, 102912, Note_on_c, 1, 37, 70
4, 103672, Control_c, 1, 64, 0
4, 103676, Note_off_c, 1, 37, 100
4, 103680, Note_on_c, 1, 49, 60
4, 103680, Note_on_c, 1, 44, 60
4, 103680, Note_on_c, 1, 37, 60
4, 104444, Note_off_c, 1, 49, 100
4, 104444, Note_off_c, 1, 44, 100
4, 104444, Note_off_c, 1, 37, 100
4, 104448, Note_on_c, 1, 37, 60
4, 104448, Note_on_c, 1, 44, 60
4, 104448, Note_on_c, 1, 49, 60
4, 105980, Note_off_c, 1, 37, 100
4, 105980, Note_off_c, 1, 44, 100
4, 105980, Note_off_c, 1, 49, 100
4, 105980, End_track
5, 0, Start_track
5, 0, Title_t, "Klavier - Right (Sub)"
5, 0, Control_c, 0, 0, 0
5, 0, Program_c, 0, 0
5, 0, Control_c, 0, 7, 100
5, 0, Control_c, 0, 10, 64
5, 0, Control_c, 0, 91, 127
5, 0, Key_signature, 4, "major"
5, 7296, Note_on_c, 0, 68, 80
5, 7580, Note_off_c, 0, 68, 100
5, 7584, Note_on_c, 0, 68, 80
5, 7676, Note_off_c, 0, 68, 100
5, 7680, Note_on_c, 0, 68, 80
5, 8828, Note_off_c, 0, 68, 100
5, 8832, Note_on_c, 0, 68, 80
5, 9116, Note_off_c, 0, 68, 100
5, 9120, Note_on_c, 0, 68, 80
5, 9212, Note_off_c, 0, 68, 100
5, 9216, Note_on_c, 0, 68, 80
5, 9980, Note_off_c, 0, 68, 100
5, 9984, Note_on_c, 0, 69, 80
5, 10748, Note_off_c, 0, 69, 100
5, 10752, Note_on_c, 0, 68, 80
5, 11516, Note_off_c, 0, 68, 100
5, 11520, Note_on_c, 0, 66, 80
5, 11900, Note_off_c, 0, 66, 100
5, 11904, Note_on_c, 0, 71, 80
5, 12284, Note_off_c, 0, 71, 100
5, 12288, Note_on_c, 0, 64, 80
5, 12668, Note_off_c, 0, 64, 100
5, 14976, Note_on_c, 0, 67, 80
5, 15260, Note_off_c, 0, 67, 100
5, 15264, Note_on_c, 0, 67, 80
5, 15356, Note_off_c, 0, 67, 100
5, 15360, Note_on_c, 0, 67, 80
5, 16508, Note_off_c, 0, 67, 100
5, 16512, Note_on_c, 0, 67, 80
5, 16796, Note_off_c, 0, 67, 100
5, 16800, Note_on_c, 0, 67, 80
5, 16892, Note_off_c, 0, 67, 100
5, 16896, Note_on_c, 0, 67, 80
5, 18044, Note_off_c, 0, 67, 100
5, 18048, Note_on_c, 0, 66, 80
5, 18428, Note_off_c, 0, 66, 100
5, 18432, Note_on_c, 0, 66, 80
5, 19196, Note_off_c, 0, 66, 100
5, 19200, Note_on_c, 0, 67, 80
5, 19580, Note_off_c, 0, 67, 100
5, 19584, Note_on_c, 0, 64, 80
5, 19964, Note_off_c, 0, 64, 100
5, 19968, Note_on_c, 0, 66, 80
5, 20732, Note_off_c, 0, 66, 100
5, 20736, Note_on_c, 0, 66, 80
5, 21500, Note_off_c, 0, 66, 100
5, 22656, Note_on_c, 0, 71, 88
5, 23036, Note_off_c, 0, 71, 100
5, 23040, Note_on_c, 0, 72, 80
5, 24188, Note_off_c, 0, 72, 100
5, 24192, Note_on_c, 0, 70, 80
5, 24572, Note_off_c, 0, 70, 100
5, 24576, Note_on_c, 0, 71, 80
5, 25724, Note_off_c, 0, 71, 100
5, 25728, Note_on_c, 0, 71, 80
5, 26108, Note_off_c, 0, 71, 100
5, 26112, Note_on_c, 0, 72, 80
5, 27260, Note_off_c, 0, 72, 100
5, 27264, Note_on_c, 0, 70, 80
5, 27644, Note_off_c, 0, 70, 100
5, 27648, Note_on_c, 0, 71, 80
5, 28412, Note_off_c, 0, 71, 100
5, 28416, Note_on_c, 0, 71, 80
5, 29180, Note_off_c, 0, 71, 100
5, 29184, Note_on_c, 0, 71, 80
5, 29948, Note_off_c, 0, 71, 100
5, 29952, Note_on_c, 0, 69, 80
5, 30716, Note_off_c, 0, 69, 100
5, 30720, Note_on_c, 0, 67, 80
5, 31484, Note_off_c, 0, 67, 100
5, 31488, Note_on_c, 0, 66, 80
5, 32252, Note_off_c, 0, 66, 100
5, 32256, Note_on_c, 0, 61, 80
5, 33020, Note_off_c, 0, 61, 100
5, 33024, Note_on_c, 0, 61, 80
5, 33404, Note_off_c, 0, 61, 100
5, 33408, Note_on_c, 0, 61, 80
5, 33788, Note_off_c, 0, 61, 100
5, 34944, Note_on_c, 0, 73, 80
5, 35228, Note_off_c, 0, 73, 100
5, 35232, Note_on_c, 0, 73, 100
5, 35324, Note_off_c, 0, 73, 100
5, 35328, Note_on_c, 0, 73, 80
5, 36476, Note_off_c, 0, 73, 100
5, 36480, Note_on_c, 0, 73, 80
5, 36764, Note_off_c, 0, 73, 100
5, 36768, Note_on_c, 0, 73, 110
5, 36860, Note_off_c, 0, 73, 100
5, 36864, Note_on_c, 0, 73, 80
5, 37628, Note_off_c, 0, 73, 100
5, 37632, Note_on_c, 0, 72, 87
5, 38012, Note_off_c, 0, 72, 100
5, 38016, Note_on_c, 0, 73, 90
5, 38396, Note_off_c, 0, 73, 100
5, 38400, Note_on_c, 0, 75, 94
5, 39548, Note_off_c, 0, 75, 100
5, 39552, Note_on_c, 0, 75, 100
5, 39932, Note_off_c, 0, 75, 100
5, 39936, Note_on_c, 0, 76, 100
5, 40700, Note_off_c, 0, 76, 100
5, 40704, Note_on_c, 0, 75, 100
5, 41084, Note_off_c, 0, 75, 100
5, 41088, Note_on_c, 0, 73, 89
5, 41468, Note_off_c, 0, 73, 100
5, 62976, Control_c, 0, 64, 127
5, 64128, Note_on_c, 0, 68, 80
5, 64412, Note_off_c, 0, 68, 100
5, 64416, Note_on_c, 0, 68, 80
5, 64504, Control_c, 0, 64, 0
5, 64508, Note_off_c, 0, 68, 100
5, 64512, Control_c, 0, 64, 127
5, 64512, Note_on_c, 0, 68, 80
5, 65660, Note_off_c, 0, 68, 100
5, 65664, Note_on_c, 0, 68, 80
5, 65948, Note_off_c, 0, 68, 100
5, 65952, Note_on_c, 0, 68, 80
5, 66040, Control_c, 0, 64, 0
5, 66044, Note_off_c, 0, 68, 100
5, 66048, Note_on_c, 0, 68, 80
5, 66812, Note_off_c, 0, 68, 100
5, 66816, Note_on_c, 0, 69, 80
5, 67580, Note_off_c, 0, 69, 100
5, 67584, Note_on_c, 0, 68, 80
5, 68348, Note_off_c, 0, 68, 100
5, 68352, Note_on_c, 0, 66, 80
5, 68732, Note_off_c, 0, 66, 100
5, 68736, Note_on_c, 0, 71, 80
5, 69116, Note_off_c, 0, 71, 100
5, 69120, Control_c, 0, 64, 127
5, 69120, Note_on_c, 0, 64, 80
5, 69500, Note_off_c, 0, 64, 100
5, 70272, Note_on_c, 0, 71, 80
5, 70556, Note_off_c, 0, 71, 100
5, 70560, Note_on_c, 0, 71, 80
5, 70648, Control_c, 0, 64, 0
5, 70652, Note_off_c, 0, 71, 100
5, 70656, Control_c, 0, 64, 127
5, 70656, Note_on_c, 0, 71, 80
5, 71804, Note_off_c, 0, 71, 100
5, 71808, Note_on_c, 0, 71, 80
5, 72092, Note_off_c, 0, 71, 100
5, 72096, Note_on_c, 0, 71, 100
5, 72184, Control_c, 0, 64, 0
5, 72188, Note_off_c, 0, 71, 100
5, 72192, Note_on_c, 0, 71, 80
5, 72956, Note_off_c, 0, 71, 100
5, 72960, Note_on_c, 0, 72, 90
5, 73340, Note_off_c, 0, 72, 100
5, 73344, Note_on_c, 0, 73, 96
5, 73724, Note_off_c, 0, 73, 100
5, 73728, Note_on_c, 0, 75, 100
5, 74492, Note_off_c, 0, 75, 100
5, 74496, Note_on_c, 0, 76, 100
5, 75260, Note_off_c, 0, 76, 100
5, 75264, Note_on_c, 0, 74, 90
5, 76028, Note_off_c, 0, 74, 100
5, 76032, Note_on_c, 0, 72, 85
5, 76796, Note_off_c, 0, 72, 100
5, 76800, Note_on_c, 0, 73, 80
5, 77948, Note_off_c, 0, 73, 100
5, 77952, Note_on_c, 0, 73, 80
5, 78332, Note_off_c, 0, 73, 100
5, 78336, Note_on_c, 0, 74, 80
5, 79484, Note_off_c, 0, 74, 100
5, 79488, Note_on_c, 0, 72, 80
5, 79868, Note_off_c, 0, 72, 100
5, 79872, Note_on_c, 0, 73, 80
5, 81020, Note_off_c, 0, 73, 100
5, 81024, Note_on_c, 0, 73, 80
5, 81404, Note_off_c, 0, 73, 100
5, 81408, Note_on_c, 0, 74, 80
5, 82556, Note_off_c, 0, 74, 100
5, 82560, Note_on_c, 0, 72, 80
5, 82940, Note_off_c, 0, 72, 100
5, 82944, Note_on_c, 0, 73, 80
5, 83708, Note_off_c, 0, 73, 100
5, 83712, Note_on_c, 0, 73, 80
5, 84476, Note_off_c, 0, 73, 100
5, 84480, Note_on_c, 0, 71, 80
5, 85628, Note_off_c, 0, 71, 100
5, 85632, Note_on_c, 0, 71, 80
5, 86012, Note_off_c, 0, 71, 100
5, 86016, Note_on_c, 0, 69, 80
5, 86396, Note_off_c, 0, 69, 100
5, 86400, Note_on_c, 0, 69, 80
5, 86780, Note_off_c, 0, 69, 100
5, 86784, Note_on_c, 0, 68, 80
5, 87164, Note_off_c, 0, 68, 100
5, 87168, Note_on_c, 0, 68, 80
5, 87548, Note_off_c, 0, 68, 100
5, 87552, Note_on_c, 0, 66, 70
5, 88316, Note_off_c, 0, 66, 100
5, 88320, Note_on_c, 0, 68, 75
5, 88700, Note_off_c, 0, 68, 100
5, 88704, Note_on_c, 0, 69, 78
5, 89084, Note_off_c, 0, 69, 100
5, 89088, Note_on_c, 0, 68, 80
5, 89852, Note_off_c, 0, 68, 100
5, 89856, Note_on_c, 0, 68, 80
5, 90620, Note_off_c, 0, 68, 100
5, 90624, Note_on_c, 0, 61, 70
5, 91004, Note_off_c, 0, 61, 100
5, 91004, End_track
0, 0, End_of_file
