0, 0, Header, 1, 3, 384
1, 0, Start_track
1, 0, Title_t, "L.v.Beethoven 3mov - Piano Sonata No.14 in C# minor Op.27-2\000"
1, 0, Copyright_t, "Copyright(C) 1995-2009, Suzuki Software\000"
1, 0, Sequencer_specific, 9, 67, 123, 0, 88, 70, 48, 50, 0, 1
1, 0, Text_t, "XFhd:2000/06/13:JP:Classical::::L.v.Beethoven:::Kaoru Suzuki\000"
1, 0, Text_t, "XFln:JP:\203s\203A\203m\203\\\203i\203^\221æ14\224Ô\211d\203n\222Z\222²\215ì\225i27-2\201`\221æ3\212y\217Í:L.v.\203x\201[\203g\201[\203\224\203F\203\223:::\227é\202¿\202á\202ñ:\227é\202¿\202á\202ñ\000"
1, 0, Time_signature, 4, 2, 96, 8
1, 0, Sequencer_specific, 3, 0, 0, 65
1, 0, Sequencer_specific, 5, 0, 0, 119, 14, 0
1, 0, Tempo, 375000
1, 19200, Tempo, 387096
1, 19584, Tempo, 400000
1, 23040, Tempo, 375000
1, 31872, Tempo, 400000
1, 32064, Tempo, 428571
1, 32448, Tempo, 375000
1, 38016, Tempo, 400000
1, 38208, Tempo, 428571
1, 38592, Tempo, 400000
1, 39936, Tempo, 387096
1, 40896, Tempo, 375000
1, 44928, Tempo, 387096
1, 45312, Tempo, 400000
1, 45504, Tempo, 428571
1, 46080, Tempo, 400000
1, 46464, Tempo, 375000
1, 48384, Tempo, 387096
1, 48768, Tempo, 400000
1, 48960, Tempo, 428571
1, 49536, Tempo, 375000
1, 62976, Tempo, 400000
1, 65280, Tempo, 428571
1, 65664, Tempo, 461538
1, 66240, Tempo, 387096
1, 76800, Tempo, 461538
1, 76992, Tempo, 387096
1, 79872, Tempo, 461538
1, 80064, Tempo, 387096
1, 82944, Tempo, 384615
1, 84480, Tempo, 382165
1, 86016, Tempo, 379746
1, 86976, Tempo, 400000
1, 87168, Tempo, 428571
1, 87360, Tempo, 461538
1, 87552, Tempo, 428571
1, 87744, Tempo, 375000
1, 119040, Tempo, 387096
1, 119424, Tempo, 400000
1, 119616, Tempo, 428571
1, 123072, Tempo, 375000
1, 131328, Tempo, 387096
1, 131712, Tempo, 400000
1, 131904, Tempo, 428571
1, 132288, Tempo, 375000
1, 137664, Tempo, 387096
1, 137856, Tempo, 400000
1, 138048, Tempo, 428571
1, 138432, Tempo, 375000
1, 145152, Tempo, 400000
1, 145536, Tempo, 428571
1, 146496, Tempo, 375000
1, 148224, Tempo, 400000
1, 148608, Tempo, 428571
1, 149568, Tempo, 375000
1, 162816, Tempo, 387096
1, 164352, Tempo, 392156
1, 165120, Tempo, 400000
1, 165504, Tempo, 428571
1, 166080, Tempo, 375000
1, 174336, Tempo, 387096
1, 174720, Tempo, 400000
1, 174912, Tempo, 428571
1, 175296, Tempo, 387096
1, 176640, Tempo, 461538
1, 176832, Tempo, 387096
1, 178176, Tempo, 413793
1, 178368, Tempo, 387096
1, 179712, Tempo, 461538
1, 179904, Tempo, 387096
1, 181248, Tempo, 384615
1, 182784, Tempo, 382165
1, 184320, Tempo, 379746
1, 186624, Tempo, 387096
1, 187008, Tempo, 400000
1, 187200, Tempo, 444444
1, 187584, Tempo, 375000
1, 208128, Tempo, 387096
1, 208320, Tempo, 400000
1, 208512, Tempo, 428571
1, 208704, Tempo, 500000
1, 208896, Tempo, 600000
1, 209088, Tempo, 461538
1, 209280, Tempo, 413793
1, 209472, Tempo, 375000
1, 214272, Tempo, 387096
1, 214656, Tempo, 400000
1, 214848, Tempo, 428571
1, 215232, Tempo, 375000
1, 220032, Tempo, 387096
1, 220416, Tempo, 400000
1, 220800, Tempo, 428571
1, 220992, Tempo, 461538
1, 221376, Tempo, 400000
1, 221568, Tempo, 375000
1, 225792, Tempo, 387096
1, 226560, Tempo, 392156
1, 227328, Tempo, 405405
1, 228864, Tempo, 387096
1, 231936, Tempo, 400000
1, 232704, Tempo, 413793
1, 233088, Tempo, 428571
1, 233280, Tempo, 461538
1, 233664, Tempo, 400000
1, 233856, Tempo, 387096
1, 243072, Tempo, 400000
1, 243840, Tempo, 428571
1, 244032, Tempo, 461538
1, 244416, Tempo, 387096
1, 248064, Tempo, 394736
1, 248448, Tempo, 428571
1, 249024, Tempo, 392156
1, 251904, Tempo, 400000
1, 252288, Tempo, 413793
1, 252672, Tempo, 428571
1, 253056, Tempo, 461538
1, 253248, Tempo, 600000
1, 253344, Tempo, 1000000
1, 253440, Tempo, 600000
1, 254976, Tempo, 428571
1, 258048, Tempo, 375000
1, 281088, Tempo, 500000
1, 281280, Tempo, 428571
1, 281472, Tempo, 375000
1, 286464, Tempo, 387096
1, 286848, Tempo, 400000
1, 287040, Tempo, 428571
1, 287424, Tempo, 375000
1, 292608, Tempo, 387096
1, 294144, Tempo, 400000
1, 294528, Tempo, 428571
1, 295488, Tempo, 375000
1, 297216, Tempo, 387096
1, 297600, Tempo, 400000
1, 297984, Tempo, 428571
1, 298368, Tempo, 400000
1, 298560, Tempo, 375000
1, 313344, Tempo, 387096
1, 314112, Tempo, 400000
1, 314496, Tempo, 428571
1, 314688, Tempo, 461538
1, 315264, Tempo, 375000
1, 323712, Tempo, 400000
1, 323904, Tempo, 428571
1, 324288, Tempo, 387096
1, 325632, Tempo, 413793
1, 325824, Tempo, 387096
1, 328704, Tempo, 428571
1, 328896, Tempo, 387096
1, 330624, Tempo, 384615
1, 331776, Tempo, 382165
1, 333312, Tempo, 379746
1, 335616, Tempo, 400000
1, 336000, Tempo, 428571
1, 336192, Tempo, 461538
1, 336576, Tempo, 428571
1, 336768, Tempo, 400000
1, 336960, Tempo, 387096
1, 337152, Tempo, 375000
1, 360960, Tempo, 428571
1, 362496, Tempo, 461538
1, 362688, Tempo, 428571
1, 362880, Tempo, 413793
1, 363072, Tempo, 400000
1, 363264, Tempo, 387096
1, 363456, Tempo, 375000
1, 368064, Tempo, 387096
1, 368256, Tempo, 400000
1, 368448, Tempo, 461538
1, 368832, Tempo, 413793
1, 369024, Tempo, 382165
1, 374784, Tempo, 387096
1, 375552, Tempo, 400000
1, 376320, Tempo, 413793
1, 377088, Tempo, 428571
1, 377472, Tempo, 461538
1, 377664, Tempo, 500000
1, 377760, Tempo, 857142
1, 378048, Tempo, 461538
1, 378240, Tempo, 400000
1, 378432, Tempo, 375000
1, 402432, Tempo, 500000
1, 402624, Tempo, 444444
1, 402816, Tempo, 400000
1, 403008, Tempo, 387096
1, 403200, Tempo, 375000
1, 411264, Tempo, 400000
1, 411456, Tempo, 428571
1, 411840, Tempo, 375000
1, 416256, Tempo, 408163
1, 417024, Tempo, 461538
1, 417024, End_track
2, 0, Start_track
2, 0, Title_t, "Right"
2, 0, Control_c, 0, 0, 0
2, 0, Program_c, 0, 0
2, 0, Control_c, 0, 7, 100
2, 0, Control_c, 0, 10, 74
2, 0, Control_c, 0, 91, 127
2, 0, Key_signature, 4, "major"
2, 96, Note_on_c, 0, 44, 80
2, 192, Note_on_c, 0, 49, 80
2, 284, Note_off_c, 0, 44, 100
2, 288, Note_on_c, 0, 52, 80
2, 380, Note_off_c, 0, 49, 100
2, 384, Note_on_c, 0, 56, 80
2, 476, Note_off_c, 0, 52, 100
2, 480, Note_on_c, 0, 49, 80
2, 572, Note_off_c, 0, 56, 100
2, 576, Note_on_c, 0, 52, 80
2, 668, Note_off_c, 0, 49, 100
2, 672, Note_on_c, 0, 56, 80
2, 764, Note_off_c, 0, 52, 100
2, 768, Note_on_c, 0, 61, 80
2, 860, Note_off_c, 0, 56, 100
2, 864, Note_on_c, 0, 52, 80
2, 956, Note_off_c, 0, 61, 100
2, 960, Note_on_c, 0, 56, 80
2, 1052, Note_off_c, 0, 52, 100
2, 1056, Note_on_c, 0, 61, 80
2, 1148, Note_off_c, 0, 56, 100
2, 1152, Note_on_c, 0, 64, 80
2, 1244, Note_off_c, 0, 61, 100
2, 1248, Note_on_c, 0, 56, 80
2, 1340, Note_off_c, 0, 64, 100
2, 1344, Note_on_c, 0, 61, 80
2, 1436, Note_off_c, 0, 56, 100
2, 1440, Note_on_c, 0, 64, 80
2, 1532, Note_off_c, 0, 61, 100
2, 1536, Note_on_c, 0, 68, 80
2, 1628, Note_off_c, 0, 64, 100
2, 1632, Note_on_c, 0, 61, 80
2, 1724, Note_off_c, 0, 68, 100
2, 1728, Note_on_c, 0, 64, 80
2, 1820, Note_off_c, 0, 61, 100
2, 1824, Note_on_c, 0, 68, 80
2, 1916, Note_off_c, 0, 64, 100
2, 1920, Note_on_c, 0, 73, 80
2, 2012, Note_off_c, 0, 68, 100
2, 2016, Note_on_c, 0, 64, 80
2, 2108, Note_off_c, 0, 73, 100
2, 2112, Note_on_c, 0, 68, 80
2, 2204, Note_off_c, 0, 64, 100
2, 2208, Note_on_c, 0, 73, 80
2, 2300, Note_off_c, 0, 68, 100
2, 2304, Note_on_c, 0, 76, 80
2, 2396, Note_off_c, 0, 73, 100
2, 2400, Note_on_c, 0, 68, 80
2, 2492, Note_off_c, 0, 76, 100
2, 2496, Note_on_c, 0, 73, 80
2, 2588, Note_off_c, 0, 68, 100
2, 2592, Note_on_c, 0, 76, 80
2, 2684, Note_off_c, 0, 73, 100
2, 2684, Note_off_c, 0, 76, 100
2, 2688, Control_c, 0, 64, 127
2, 2688, Note_on_c, 0, 68, 110
2, 2688, Note_on_c, 0, 73, 110
2, 2688, Note_on_c, 0, 76, 110
2, 2688, Note_on_c, 0, 80, 110
2, 2876, Note_off_c, 0, 68, 100
2, 2876, Note_off_c, 0, 73, 100
2, 2876, Note_off_c, 0, 76, 100
2, 2876, Note_off_c, 0, 80, 100
2, 2880, Note_on_c, 0, 80, 100
2, 2880, Note_on_c, 0, 76, 100
2, 2880, Note_on_c, 0, 73, 100
2, 2880, Note_on_c, 0, 68, 100
2, 3064, Control_c, 0, 64, 0
2, 3068, Note_off_c, 0, 80, 100
2, 3068, Note_off_c, 0, 76, 100
2, 3068, Note_off_c, 0, 73, 100
2, 3068, Note_off_c, 0, 68, 100
2, 3168, Note_on_c, 0, 44, 80
2, 3264, Note_on_c, 0, 48, 80
2, 3356, Note_off_c, 0, 44, 100
2, 3360, Note_on_c, 0, 51, 80
2, 3452, Note_off_c, 0, 48, 100
2, 3456, Note_on_c, 0, 56, 80
2, 3548, Note_off_c, 0, 51, 100
2, 3552, Note_on_c, 0, 48, 80
2, 3644, Note_off_c, 0, 56, 100
2, 3648, Note_on_c, 0, 51, 80
2, 3740, Note_off_c, 0, 48, 100
2, 3744, Note_on_c, 0, 56, 80
2, 3836, Note_off_c, 0, 51, 100
2, 3840, Note_on_c, 0, 60, 80
2, 3932, Note_off_c, 0, 56, 100
2, 3936, Note_on_c, 0, 51, 80
2, 4028, Note_off_c, 0, 60, 100
2, 4032, Note_on_c, 0, 56, 80
2, 4124, Note_off_c, 0, 51, 100
2, 4128, Note_on_c, 0, 60, 80
2, 4220, Note_off_c, 0, 56, 100
2, 4224, Note_on_c, 0, 63, 80
2, 4316, Note_off_c, 0, 60, 100
2, 4320, Note_on_c, 0, 56, 80
2, 4412, Note_off_c, 0, 63, 100
2, 4416, Note_on_c, 0, 60, 80
2, 4508, Note_off_c, 0, 56, 100
2, 4512, Note_on_c, 0, 63, 80
2, 4604, Note_off_c, 0, 60, 100
2, 4608, Note_on_c, 0, 68, 80
2, 4700, Note_off_c, 0, 63, 100
2, 4704, Note_on_c, 0, 60, 80
2, 4796, Note_off_c, 0, 68, 100
2, 4800, Note_on_c, 0, 63, 80
2, 4892, Note_off_c, 0, 60, 100
2, 4896, Note_on_c, 0, 68, 80
2, 4988, Note_off_c, 0, 63, 100
2, 4992, Note_on_c, 0, 72, 80
2, 5084, Note_off_c, 0, 68, 100
2, 5088, Note_on_c, 0, 63, 80
2, 5180, Note_off_c, 0, 72, 100
2, 5184, Note_on_c, 0, 68, 80
2, 5276, Note_off_c, 0, 63, 100
2, 5280, Note_on_c, 0, 72, 80
2, 5372, Note_off_c, 0, 68, 100
2, 5376, Note_on_c, 0, 75, 80
2, 5468, Note_off_c, 0, 72, 100
2, 5472, Note_on_c, 0, 68, 80
2, 5564, Note_off_c, 0, 75, 100
2, 5568, Note_on_c, 0, 72, 80
2, 5660, Note_off_c, 0, 68, 100
2, 5664, Note_on_c, 0, 75, 80
2, 5756, Note_off_c, 0, 72, 100
2, 5756, Note_off_c, 0, 75, 100
2, 5760, Control_c, 0, 64, 127
2, 5760, Note_on_c, 0, 68, 110
2, 5760, Note_on_c, 0, 72, 110
2, 5760, Note_on_c, 0, 75, 110
2, 5760, Note_on_c, 0, 80, 110
2, 5948, Note_off_c, 0, 68, 100
2, 5948, Note_off_c, 0, 72, 100
2, 5948, Note_off_c, 0, 75, 100
2, 5948, Note_off_c, 0, 80, 100
2, 5952, Note_on_c, 0, 68, 100
2, 5952, Note_on_c, 0, 72, 100
2, 5952, Note_on_c, 0, 75, 100
2, 5952, Note_on_c, 0, 80, 100
2, 6136, Control_c, 0, 64, 0
2, 6140, Note_off_c, 0, 68, 100
2, 6140, Note_off_c, 0, 72, 100
2, 6140, Note_off_c, 0, 75, 100
2, 6140, Note_off_c, 0, 80, 100
2, 6240, Note_on_c, 0, 49, 80
2, 6336, Note_on_c, 0, 53, 80
2, 6428, Note_off_c, 0, 49, 100
2, 6432, Note_on_c, 0, 56, 80
2, 6524, Note_off_c, 0, 53, 100
2, 6528, Note_on_c, 0, 61, 80
2, 6620, Note_off_c, 0, 56, 100
2, 6624, Note_on_c, 0, 53, 80
2, 6716, Note_off_c, 0, 61, 100
2, 6720, Note_on_c, 0, 56, 80
2, 6812, Note_off_c, 0, 53, 100
2, 6816, Note_on_c, 0, 61, 80
2, 6908, Note_off_c, 0, 56, 100
2, 6912, Note_on_c, 0, 65, 80
2, 7004, Note_off_c, 0, 61, 100
2, 7008, Note_on_c, 0, 56, 80
2, 7100, Note_off_c, 0, 65, 100
2, 7104, Note_on_c, 0, 61, 80
2, 7196, Note_off_c, 0, 56, 100
2, 7200, Note_on_c, 0, 65, 80
2, 7292, Note_off_c, 0, 61, 100
2, 7296, Note_on_c, 0, 68, 80
2, 7388, Note_off_c, 0, 65, 100
2, 7392, Note_on_c, 0, 61, 80
2, 7484, Note_off_c, 0, 68, 100
2, 7488, Note_on_c, 0, 65, 80
2, 7580, Note_off_c, 0, 61, 100
2, 7584, Note_on_c, 0, 68, 80
2, 7676, Note_off_c, 0, 65, 100
2, 7680, Note_on_c, 0, 73, 80
2, 7772, Note_off_c, 0, 68, 100
2, 7776, Note_on_c, 0, 65, 80
2, 7868, Note_off_c, 0, 73, 100
2, 7872, Note_on_c, 0, 68, 80
2, 7964, Note_off_c, 0, 65, 100
2, 7968, Note_on_c, 0, 73, 80
2, 8060, Note_off_c, 0, 68, 100
2, 8064, Note_on_c, 0, 77, 80
2, 8156, Note_off_c, 0, 73, 100
2, 8160, Note_on_c, 0, 68, 80
2, 8252, Note_off_c, 0, 77, 100
2, 8256, Note_on_c, 0, 73, 80
2, 8348, Note_off_c, 0, 68, 100
2, 8352, Note_on_c, 0, 77, 80
2, 8444, Note_off_c, 0, 73, 100
2, 8448, Note_on_c, 0, 80, 80
2, 8540, Note_off_c, 0, 77, 100
2, 8544, Note_on_c, 0, 73, 80
2, 8636, Note_off_c, 0, 80, 100
2, 8640, Note_on_c, 0, 77, 80
2, 8732, Note_off_c, 0, 73, 100
2, 8736, Note_on_c, 0, 80, 80
2, 8828, Note_off_c, 0, 77, 100
2, 8828, Note_off_c, 0, 80, 100
2, 8832, Control_c, 0, 64, 127
2, 8832, Note_on_c, 0, 73, 110
2, 8832, Note_on_c, 0, 77, 110
2, 8832, Note_on_c, 0, 80, 110
2, 8832, Note_on_c, 0, 85, 110
2, 9020, Note_off_c, 0, 73, 100
2, 9020, Note_off_c, 0, 77, 100
2, 9020, Note_off_c, 0, 80, 100
2, 9020, Note_off_c, 0, 85, 100
2, 9024, Note_on_c, 0, 85, 100
2, 9024, Note_on_c, 0, 80, 100
2, 9024, Note_on_c, 0, 77, 100
2, 9024, Note_on_c, 0, 73, 100
2, 9208, Control_c, 0, 64, 0
2, 9212, Note_off_c, 0, 85, 100
2, 9212, Note_off_c, 0, 80, 100
2, 9212, Note_off_c, 0, 77, 100
2, 9212, Note_off_c, 0, 73, 100
2, 9312, Note_on_c, 0, 49, 90
2, 9408, Note_on_c, 0, 54, 90
2, 9500, Note_off_c, 0, 49, 100
2, 9504, Note_on_c, 0, 57, 90
2, 9596, Note_off_c, 0, 54, 100
2, 9600, Note_on_c, 0, 61, 90
2, 9692, Note_off_c, 0, 57, 100
2, 9692, Note_off_c, 0, 61, 100
2, 9696, Note_on_c, 0, 61, 90
2, 9792, Note_on_c, 0, 66, 90
2, 9884, Note_off_c, 0, 61, 100
2, 9888, Note_on_c, 0, 69, 90
2, 9980, Note_off_c, 0, 66, 100
2, 9984, Note_on_c, 0, 73, 90
2, 10076, Note_off_c, 0, 69, 100
2, 10076, Note_off_c, 0, 73, 100
2, 10080, Note_on_c, 0, 73, 90
2, 10176, Note_on_c, 0, 78, 90
2, 10268, Note_off_c, 0, 73, 100
2, 10272, Note_on_c, 0, 81, 90
2, 10364, Note_off_c, 0, 78, 100
2, 10368, Control_c, 0, 64, 127
2, 10368, Note_on_c, 0, 85, 110
2, 10368, Note_on_c, 0, 73, 110
2, 10368, Note_on_c, 0, 78, 110
2, 10460, Note_off_c, 0, 81, 100
2, 10556, Note_off_c, 0, 85, 100
2, 10556, Note_off_c, 0, 73, 100
2, 10556, Note_off_c, 0, 78, 100
2, 10560, Note_on_c, 0, 78, 100
2, 10560, Note_on_c, 0, 85, 100
2, 10560, Note_on_c, 0, 73, 100
2, 10744, Control_c, 0, 64, 0
2, 10748, Note_off_c, 0, 78, 100
2, 10748, Note_off_c, 0, 85, 100
2, 10748, Note_off_c, 0, 73, 100
2, 10848, Note_on_c, 0, 49, 90
2, 10944, Note_on_c, 0, 52, 90
2, 11036, Note_off_c, 0, 49, 100
2, 11040, Note_on_c, 0, 55, 90
2, 11132, Note_off_c, 0, 52, 100
2, 11136, Note_on_c, 0, 61, 90
2, 11228, Note_off_c, 0, 55, 100
2, 11228, Note_off_c, 0, 61, 100
2, 11232, Note_on_c, 0, 61, 90
2, 11328, Note_on_c, 0, 64, 90
2, 11420, Note_off_c, 0, 61, 100
2, 11424, Note_on_c, 0, 67, 90
2, 11516, Note_off_c, 0, 64, 100
2, 11520, Note_on_c, 0, 73, 90
2, 11612, Note_off_c, 0, 67, 100
2, 11612, Note_off_c, 0, 73, 100
2, 11616, Note_on_c, 0, 73, 90
2, 11712, Note_on_c, 0, 76, 90
2, 11804, Note_off_c, 0, 73, 100
2, 11808, Note_on_c, 0, 79, 90
2, 11900, Note_off_c, 0, 76, 100
2, 11900, Note_off_c, 0, 79, 100
2, 11904, Control_c, 0, 64, 127
2, 11904, Note_on_c, 0, 73, 110
2, 11904, Note_on_c, 0, 85, 110
2, 11904, Note_on_c, 0, 79, 110
2, 12092, Note_off_c, 0, 73, 100
2, 12092, Note_off_c, 0, 85, 100
2, 12092, Note_off_c, 0, 79, 100
2, 12096, Note_on_c, 0, 73, 100
2, 12096, Note_on_c, 0, 85, 100
2, 12096, Note_on_c, 0, 79, 100
2, 12280, Control_c, 0, 64, 0
2, 12284, Note_off_c, 0, 73, 100
2, 12284, Note_off_c, 0, 85, 100
2, 12284, Note_off_c, 0, 79, 100
2, 12288, Note_on_c, 0, 72, 110
2, 12288, Note_on_c, 0, 84, 110
2, 12288, Note_on_c, 0, 80, 110
2, 12476, Note_off_c, 0, 72, 100
2, 12476, Note_off_c, 0, 84, 100
2, 12476, Note_off_c, 0, 80, 100
2, 12480, Note_on_c, 0, 68, 110
2, 12576, Note_on_c, 0, 80, 110
2, 12668, Note_off_c, 0, 68, 100
2, 12672, Note_on_c, 0, 68, 110
2, 12764, Note_off_c, 0, 80, 100
2, 12768, Note_on_c, 0, 80, 110
2, 12860, Note_off_c, 0, 68, 100
2, 12864, Note_on_c, 0, 70, 110
2, 12956, Note_off_c, 0, 80, 100
2, 12960, Note_on_c, 0, 80, 110
2, 13052, Note_off_c, 0, 70, 100
2, 13056, Note_on_c, 0, 72, 110
2, 13148, Note_off_c, 0, 80, 100
2, 13152, Note_on_c, 0, 80, 110
2, 13244, Note_off_c, 0, 72, 100
2, 13248, Note_on_c, 0, 73, 110
2, 13340, Note_off_c, 0, 80, 100
2, 13344, Note_on_c, 0, 80, 110
2, 13436, Note_off_c, 0, 73, 100
2, 13440, Note_on_c, 0, 75, 110
2, 13532, Note_off_c, 0, 80, 100
2, 13536, Note_on_c, 0, 80, 110
2, 13628, Note_off_c, 0, 75, 100
2, 13632, Note_on_c, 0, 72, 110
2, 13724, Note_off_c, 0, 80, 100
2, 13728, Note_on_c, 0, 80, 110
2, 13820, Note_off_c, 0, 72, 100
2, 13824, Note_on_c, 0, 75, 110
2, 13916, Note_off_c, 0, 80, 100
2, 13920, Note_on_c, 0, 80, 110
2, 14012, Note_off_c, 0, 75, 100
2, 14016, Note_on_c, 0, 73, 110
2, 14108, Note_off_c, 0, 80, 100
2, 14112, Note_on_c, 0, 80, 110
2, 14204, Note_off_c, 0, 73, 100
2, 14208, Note_on_c, 0, 78, 110
2, 14300, Note_off_c, 0, 80, 100
2, 14304, Note_on_c, 0, 80, 110
2, 14396, Note_off_c, 0, 78, 100
2, 14400, Note_on_c, 0, 76, 110
2, 14492, Note_off_c, 0, 80, 100
2, 14496, Note_on_c, 0, 80, 110
2, 14588, Note_off_c, 0, 76, 100
2, 14592, Note_on_c, 0, 75, 110
2, 14684, Note_off_c, 0, 80, 100
2, 14688, Note_on_c, 0, 80, 110
2, 14780, Note_off_c, 0, 75, 100
2, 14784, Note_on_c, 0, 73, 110
2, 14876, Note_off_c, 0, 80, 100
2, 14880, Note_on_c, 0, 80, 110
2, 14972, Note_off_c, 0, 73, 100
2, 14976, Note_on_c, 0, 72, 110
2, 15068, Note_off_c, 0, 80, 100
2, 15072, Note_on_c, 0, 80, 110
2, 15164, Note_off_c, 0, 72, 100
2, 15168, Note_on_c, 0, 69, 110
2, 15260, Note_off_c, 0, 80, 100
2, 15264, Note_on_c, 0, 79, 110
2, 15356, Note_off_c, 0, 69, 100
2, 15356, Note_off_c, 0, 79, 100
2, 15360, Note_on_c, 0, 68, 110
2, 15456, Note_on_c, 0, 80, 110
2, 15548, Note_off_c, 0, 68, 100
2, 15552, Note_on_c, 0, 68, 110
2, 15644, Note_off_c, 0, 80, 100
2, 15648, Note_on_c, 0, 80, 110
2, 15740, Note_off_c, 0, 68, 100
2, 15744, Note_on_c, 0, 68, 110
2, 15836, Note_off_c, 0, 80, 100
2, 15840, Note_on_c, 0, 80, 110
2, 15932, Note_off_c, 0, 68, 100
2, 15936, Note_on_c, 0, 70, 110
2, 16028, Note_off_c, 0, 80, 100
2, 16032, Note_on_c, 0, 80, 110
2, 16124, Note_off_c, 0, 70, 100
2, 16128, Note_on_c, 0, 72, 110
2, 16220, Note_off_c, 0, 80, 100
2, 16224, Note_on_c, 0, 80, 110
2, 16316, Note_off_c, 0, 72, 100
2, 16320, Note_on_c, 0, 73, 110
2, 16412, Note_off_c, 0, 80, 100
2, 16416, Note_on_c, 0, 80, 110
2, 16508, Note_off_c, 0, 73, 100
2, 16512, Note_on_c, 0, 75, 110
2, 16604, Note_off_c, 0, 80, 100
2, 16608, Note_on_c, 0, 80, 110
2, 16700, Note_off_c, 0, 75, 100
2, 16704, Note_on_c, 0, 72, 110
2, 16796, Note_off_c, 0, 80, 100
2, 16800, Note_on_c, 0, 80, 110
2, 16892, Note_off_c, 0, 72, 100
2, 16896, Note_on_c, 0, 75, 110
2, 16988, Note_off_c, 0, 80, 100
2, 16992, Note_on_c, 0, 80, 110
2, 17084, Note_off_c, 0, 75, 100
2, 17088, Note_on_c, 0, 73, 110
2, 17180, Note_off_c, 0, 80, 100
2, 17184, Note_on_c, 0, 80, 110
2, 17276, Note_off_c, 0, 73, 100
2, 17280, Note_on_c, 0, 78, 110
2, 17372, Note_off_c, 0, 80, 100
2, 17376, Note_on_c, 0, 80, 110
2, 17468, Note_off_c, 0, 78, 100
2, 17472, Note_on_c, 0, 76, 110
2, 17564, Note_off_c, 0, 80, 100
2, 17568, Note_on_c, 0, 80, 110
2, 17660, Note_off_c, 0, 76, 100
2, 17664, Note_on_c, 0, 75, 110
2, 17756, Note_off_c, 0, 80, 100
2, 17760, Note_on_c, 0, 80, 110
2, 17852, Note_off_c, 0, 75, 100
2, 17856, Note_on_c, 0, 73, 110
2, 17948, Note_off_c, 0, 80, 100
2, 17952, Note_on_c, 0, 80, 110
2, 18044, Note_off_c, 0, 73, 100
2, 18048, Note_on_c, 0, 72, 110
2, 18140, Note_off_c, 0, 80, 100
2, 18144, Note_on_c, 0, 80, 110
2, 18236, Note_off_c, 0, 72, 100
2, 18240, Note_on_c, 0, 69, 110
2, 18332, Note_off_c, 0, 80, 100
2, 18336, Note_on_c, 0, 79, 110
2, 18428, Note_off_c, 0, 69, 100
2, 18428, Note_off_c, 0, 79, 100
2, 18432, Note_on_c, 0, 68, 110
2, 18528, Note_on_c, 0, 80, 110
2, 18620, Note_off_c, 0, 68, 100
2, 18624, Note_on_c, 0, 69, 110
2, 18716, Note_off_c, 0, 80, 100
2, 18720, Note_on_c, 0, 79, 110
2, 18812, Note_off_c, 0, 69, 100
2, 18816, Note_on_c, 0, 68, 110
2, 18908, Note_off_c, 0, 79, 100
2, 18912, Note_on_c, 0, 80, 110
2, 19004, Note_off_c, 0, 68, 100
2, 19008, Note_on_c, 0, 69, 110
2, 19100, Note_off_c, 0, 80, 100
2, 19104, Note_on_c, 0, 79, 110
2, 19196, Note_off_c, 0, 69, 100
2, 19200, Note_on_c, 0, 68, 110
2, 19292, Note_off_c, 0, 79, 100
2, 19296, Note_on_c, 0, 80, 110
2, 19388, Note_off_c, 0, 68, 100
2, 19392, Note_on_c, 0, 69, 110
2, 19484, Note_off_c, 0, 80, 100
2, 19488, Note_on_c, 0, 79, 110
2, 19580, Note_off_c, 0, 69, 100
2, 19584, Note_on_c, 0, 68, 110
2, 19676, Note_off_c, 0, 79, 100
2, 19680, Note_on_c, 0, 80, 110
2, 19772, Note_off_c, 0, 68, 100
2, 19776, Note_on_c, 0, 69, 110
2, 19868, Note_off_c, 0, 80, 100
2, 19872, Note_on_c, 0, 79, 110
2, 19964, Note_off_c, 0, 69, 100
2, 19964, Note_off_c, 0, 79, 100
2, 19968, Note_on_c, 0, 68, 110
2, 19968, Note_on_c, 0, 80, 110
2, 20348, Note_off_c, 0, 68, 100
2, 20348, Note_off_c, 0, 80, 100
2, 20352, Note_on_c, 0, 56, 110
2, 23036, Note_off_c, 0, 56, 100
2, 23136, Note_on_c, 0, 44, 80
2, 23232, Note_on_c, 0, 49, 80
2, 23324, Note_off_c, 0, 44, 100
2, 23328, Note_on_c, 0, 52, 80
2, 23420, Note_off_c, 0, 49, 100
2, 23424, Note_on_c, 0, 56, 80
2, 23516, Note_off_c, 0, 52, 100
2, 23520, Note_on_c, 0, 49, 80
2, 23612, Note_off_c, 0, 56, 100
2, 23616, Note_on_c, 0, 52, 80
2, 23708, Note_off_c, 0, 49, 100
2, 23712, Note_on_c, 0, 56, 80
2, 23804, Note_off_c, 0, 52, 100
2, 23808, Note_on_c, 0, 61, 80
2, 23900, Note_off_c, 0, 56, 100
2, 23904, Note_on_c, 0, 52, 80
2, 23996, Note_off_c, 0, 61, 100
2, 24000, Note_on_c, 0, 56, 80
2, 24092, Note_off_c, 0, 52, 100
2, 24096, Note_on_c, 0, 61, 80
2, 24188, Note_off_c, 0, 56, 100
2, 24192, Note_on_c, 0, 64, 80
2, 24284, Note_off_c, 0, 61, 100
2, 24288, Note_on_c, 0, 56, 80
2, 24380, Note_off_c, 0, 64, 100
2, 24384, Note_on_c, 0, 61, 80
2, 24476, Note_off_c, 0, 56, 100
2, 24480, Note_on_c, 0, 64, 80
2, 24572, Note_off_c, 0, 61, 100
2, 24576, Note_on_c, 0, 68, 80
2, 24668, Note_off_c, 0, 64, 100
2, 24672, Note_on_c, 0, 61, 80
2, 24764, Note_off_c, 0, 68, 100
2, 24768, Note_on_c, 0, 64, 80
2, 24860, Note_off_c, 0, 61, 100
2, 24864, Note_on_c, 0, 68, 80
2, 24956, Note_off_c, 0, 64, 100
2, 24960, Note_on_c, 0, 73, 80
2, 25052, Note_off_c, 0, 68, 100
2, 25056, Note_on_c, 0, 64, 80
2, 25148, Note_off_c, 0, 73, 100
2, 25152, Note_on_c, 0, 68, 80
2, 25244, Note_off_c, 0, 64, 100
2, 25248, Note_on_c, 0, 73, 80
2, 25340, Note_off_c, 0, 68, 100
2, 25344, Note_on_c, 0, 76, 80
2, 25436, Note_off_c, 0, 73, 100
2, 25436, Note_off_c, 0, 76, 100
2, 25440, Note_on_c, 0, 76, 80
2, 25536, Note_on_c, 0, 80, 80
2, 25628, Note_off_c, 0, 76, 100
2, 25632, Note_on_c, 0, 85, 80
2, 25724, Note_off_c, 0, 80, 100
2, 25728, Control_c, 0, 64, 127
2, 25728, Note_on_c, 0, 88, 110
2, 25728, Note_on_c, 0, 76, 110
2, 25820, Note_off_c, 0, 85, 100
2, 25916, Note_off_c, 0, 88, 100
2, 25916, Note_off_c, 0, 76, 100
2, 25920, Note_on_c, 0, 76, 100
2, 25920, Note_on_c, 0, 88, 100
2, 26104, Control_c, 0, 64, 0
2, 26108, Note_off_c, 0, 76, 100
2, 26108, Note_off_c, 0, 88, 100
2, 26208, Note_on_c, 0, 52, 80
2, 26304, Note_on_c, 0, 55, 80
2, 26396, Note_off_c, 0, 52, 100
2, 26400, Note_on_c, 0, 61, 80
2, 26492, Note_off_c, 0, 55, 100
2, 26496, Note_on_c, 0, 64, 80
2, 26588, Note_off_c, 0, 61, 100
2, 26592, Note_on_c, 0, 55, 80
2, 26684, Note_off_c, 0, 64, 100
2, 26688, Note_on_c, 0, 61, 80
2, 26780, Note_off_c, 0, 55, 100
2, 26784, Note_on_c, 0, 64, 80
2, 26876, Note_off_c, 0, 61, 100
2, 26880, Note_on_c, 0, 67, 80
2, 26972, Note_off_c, 0, 64, 100
2, 26976, Note_on_c, 0, 61, 80
2, 27068, Note_off_c, 0, 67, 100
2, 27072, Note_on_c, 0, 64, 80
2, 27164, Note_off_c, 0, 61, 100
2, 27168, Note_on_c, 0, 67, 80
2, 27260, Note_off_c, 0, 64, 100
2, 27264, Note_on_c, 0, 73, 80
2, 27356, Note_off_c, 0, 67, 100
2, 27360, Note_on_c, 0, 64, 80
2, 27452, Note_off_c, 0, 73, 100
2, 27456, Note_on_c, 0, 67, 80
2, 27548, Note_off_c, 0, 64, 100
2, 27552, Note_on_c, 0, 73, 80
2, 27644, Note_off_c, 0, 67, 100
2, 27648, Note_on_c, 0, 76, 80
2, 27740, Note_off_c, 0, 73, 100
2, 27744, Note_on_c, 0, 67, 80
2, 27836, Note_off_c, 0, 76, 100
2, 27840, Note_on_c, 0, 73, 80
2, 27932, Note_off_c, 0, 67, 100
2, 27936, Note_on_c, 0, 76, 80
2, 28028, Note_off_c, 0, 73, 100
2, 28032, Note_on_c, 0, 79, 80
2, 28124, Note_off_c, 0, 76, 100
2, 28128, Note_on_c, 0, 73, 80
2, 28220, Note_off_c, 0, 79, 100
2, 28224, Note_on_c, 0, 76, 80
2, 28316, Note_off_c, 0, 73, 100
2, 28320, Note_on_c, 0, 79, 80
2, 28412, Note_off_c, 0, 76, 100
2, 28416, Note_on_c, 0, 85, 80
2, 28508, Note_off_c, 0, 79, 100
2, 28512, Note_on_c, 0, 76, 80
2, 28604, Note_off_c, 0, 85, 100
2, 28608, Note_on_c, 0, 79, 80
2, 28700, Note_off_c, 0, 76, 100
2, 28704, Note_on_c, 0, 85, 80
2, 28796, Note_off_c, 0, 79, 100
2, 28800, Control_c, 0, 64, 127
2, 28800, Note_on_c, 0, 88, 110
2, 28800, Note_on_c, 0, 76, 110
2, 28892, Note_off_c, 0, 85, 100
2, 28988, Note_off_c, 0, 88, 100
2, 28988, Note_off_c, 0, 76, 100
2, 28992, Note_on_c, 0, 88, 100
2, 28992, Note_on_c, 0, 76, 100
2, 29176, Control_c, 0, 64, 0
2, 29180, Note_off_c, 0, 88, 100
2, 29180, Note_off_c, 0, 76, 100
2, 29280, Note_on_c, 0, 51, 90
2, 29376, Note_on_c, 0, 58, 91
2, 29468, Note_off_c, 0, 51, 100
2, 29472, Note_on_c, 0, 61, 91
2, 29564, Note_off_c, 0, 58, 100
2, 29568, Note_on_c, 0, 63, 92
2, 29660, Note_off_c, 0, 61, 100
2, 29664, Note_on_c, 0, 58, 93
2, 29756, Note_off_c, 0, 63, 100
2, 29760, Note_on_c, 0, 61, 93
2, 29852, Note_off_c, 0, 58, 100
2, 29856, Note_on_c, 0, 63, 94
2, 29948, Note_off_c, 0, 61, 100
2, 29952, Note_on_c, 0, 70, 95
2, 30044, Note_off_c, 0, 63, 100
2, 30048, Note_on_c, 0, 61, 95
2, 30140, Note_off_c, 0, 70, 100
2, 30144, Note_on_c, 0, 63, 96
2, 30236, Note_off_c, 0, 61, 100
2, 30240, Note_on_c, 0, 70, 97
2, 30332, Note_off_c, 0, 63, 100
2, 30336, Note_on_c, 0, 73, 97
2, 30428, Note_off_c, 0, 70, 100
2, 30432, Note_on_c, 0, 63, 98
2, 30524, Note_off_c, 0, 73, 100
2, 30528, Note_on_c, 0, 70, 99
2, 30620, Note_off_c, 0, 63, 100
2, 30624, Note_on_c, 0, 73, 99
2, 30716, Note_off_c, 0, 70, 100
2, 30720, Note_on_c, 0, 75, 100
2, 30812, Note_off_c, 0, 73, 100
2, 30816, Note_on_c, 0, 70, 100
2, 30908, Note_off_c, 0, 75, 100
2, 30912, Note_on_c, 0, 73, 101
2, 31004, Note_off_c, 0, 70, 100
2, 31008, Note_on_c, 0, 75, 102
2, 31100, Note_off_c, 0, 73, 100
2, 31104, Note_on_c, 0, 82, 102
2, 31196, Note_off_c, 0, 75, 100
2, 31200, Note_on_c, 0, 73, 103
2, 31292, Note_off_c, 0, 82, 100
2, 31296, Note_on_c, 0, 75, 104
2, 31388, Note_off_c, 0, 73, 100
2, 31392, Note_on_c, 0, 82, 104
2, 31484, Note_off_c, 0, 75, 100
2, 31488, Control_c, 0, 64, 127
2, 31488, Note_on_c, 0, 85, 105
2, 31580, Note_off_c, 0, 82, 100
2, 31584, Note_on_c, 0, 82, 106
2, 31676, Note_off_c, 0, 85, 100
2, 31680, Note_on_c, 0, 75, 106
2, 31772, Note_off_c, 0, 82, 100
2, 31776, Note_on_c, 0, 73, 107
2, 31868, Note_off_c, 0, 75, 100
2, 31872, Note_on_c, 0, 82, 108
2, 31964, Note_off_c, 0, 73, 100
2, 31968, Note_on_c, 0, 75, 108
2, 32060, Note_off_c, 0, 82, 100
2, 32064, Note_on_c, 0, 73, 109
2, 32156, Note_off_c, 0, 75, 100
2, 32160, Note_on_c, 0, 70, 109
2, 32248, Control_c, 0, 64, 0
2, 32252, Note_off_c, 0, 73, 100
2, 32252, Note_off_c, 0, 70, 100
2, 32256, Note_on_c, 0, 71, 90
2, 32636, Note_off_c, 0, 71, 100
2, 32640, Note_on_c, 0, 75, 90
2, 33404, Note_off_c, 0, 75, 100
2, 33408, Note_on_c, 0, 71, 90
2, 33696, Note_on_c, 0, 68, 90
2, 33788, Note_off_c, 0, 71, 100
2, 33788, Note_off_c, 0, 68, 100
2, 33792, Note_on_c, 0, 67, 90
2, 33840, Note_on_c, 0, 68, 90
2, 33884, Note_off_c, 0, 67, 100
2, 33888, Note_on_c, 0, 70, 90
2, 33932, Note_off_c, 0, 68, 100
2, 33936, Note_on_c, 0, 68, 90
2, 33980, Note_off_c, 0, 70, 100
2, 34176, Note_on_c, 0, 67, 90
2, 34316, Note_off_c, 0, 68, 100
2, 34748, Note_off_c, 0, 67, 100
2, 34752, Note_on_c, 0, 67, 90
2, 34940, Note_off_c, 0, 67, 100
2, 34944, Note_on_c, 0, 75, 90
2, 35232, Note_on_c, 0, 67, 90
2, 35324, Note_off_c, 0, 75, 100
2, 35328, Note_on_c, 0, 70, 90
2, 35420, Note_off_c, 0, 67, 100
2, 35708, Note_off_c, 0, 70, 100
2, 35712, Note_on_c, 0, 68, 90
2, 36284, Note_off_c, 0, 68, 100
2, 36288, Note_on_c, 0, 68, 90
2, 36476, Note_off_c, 0, 68, 100
2, 36480, Note_on_c, 0, 75, 90
2, 36768, Note_on_c, 0, 68, 90
2, 36860, Note_off_c, 0, 75, 100
2, 36864, Note_on_c, 0, 71, 90
2, 36956, Note_off_c, 0, 68, 100
2, 37244, Note_off_c, 0, 71, 100
2, 37248, Note_on_c, 0, 70, 90
2, 37820, Note_off_c, 0, 70, 100
2, 37824, Note_on_c, 0, 70, 90
2, 38012, Note_off_c, 0, 70, 100
2, 38016, Note_on_c, 0, 75, 90
2, 38304, Note_on_c, 0, 70, 90
2, 38396, Note_off_c, 0, 75, 100
2, 38400, Note_on_c, 0, 71, 90
2, 38492, Note_off_c, 0, 70, 100
2, 38588, Note_off_c, 0, 71, 100
2, 38592, Note_on_c, 0, 87, 90
2, 38592, Note_on_c, 0, 75, 90
2, 38972, Note_off_c, 0, 87, 100
2, 38972, Note_off_c, 0, 75, 100
2, 38976, Note_on_c, 0, 87, 92
2, 38976, Note_on_c, 0, 75, 92
2, 39356, Note_off_c, 0, 87, 100
2, 39356, Note_off_c, 0, 75, 100
2, 39360, Note_on_c, 0, 87, 94
2, 39360, Note_on_c, 0, 75, 94
2, 39548, Note_off_c, 0, 87, 100
2, 39548, Note_off_c, 0, 75, 100
2, 39552, Note_on_c, 0, 83, 94
2, 39552, Note_on_c, 0, 71, 94
2, 39740, Note_off_c, 0, 83, 100
2, 39740, Note_off_c, 0, 71, 100
2, 39744, Note_on_c, 0, 80, 95
2, 39744, Note_on_c, 0, 68, 95
2, 39932, Note_off_c, 0, 80, 100
2, 39932, Note_off_c, 0, 68, 100
2, 39936, Note_on_c, 0, 80, 96
2, 39936, Note_on_c, 0, 68, 96
2, 40124, Note_off_c, 0, 80, 100
2, 40124, Note_off_c, 0, 68, 100
2, 40128, Note_on_c, 0, 79, 97
2, 40128, Note_on_c, 0, 67, 97
2, 40508, Note_off_c, 0, 79, 100
2, 40508, Note_off_c, 0, 67, 100
2, 40512, Note_on_c, 0, 79, 98
2, 40512, Note_on_c, 0, 67, 98
2, 40892, Note_off_c, 0, 79, 100
2, 40892, Note_off_c, 0, 67, 100
2, 40896, Note_on_c, 0, 79, 100
2, 40896, Note_on_c, 0, 67, 100
2, 41084, Note_off_c, 0, 79, 100
2, 41084, Note_off_c, 0, 67, 100
2, 41088, Note_on_c, 0, 87, 101
2, 41088, Note_on_c, 0, 75, 101
2, 41276, Note_off_c, 0, 87, 100
2, 41276, Note_off_c, 0, 75, 100
2, 41280, Note_on_c, 0, 79, 102
2, 41280, Note_on_c, 0, 67, 102
2, 41468, Note_off_c, 0, 79, 100
2, 41468, Note_off_c, 0, 67, 100
2, 41472, Note_on_c, 0, 82, 102
2, 41472, Note_on_c, 0, 70, 102
2, 41660, Note_off_c, 0, 82, 100
2, 41660, Note_off_c, 0, 70, 100
2, 41664, Note_on_c, 0, 68, 103
2, 41664, Note_on_c, 0, 80, 103
2, 42044, Note_off_c, 0, 68, 100
2, 42044, Note_off_c, 0, 80, 100
2, 42048, Note_on_c, 0, 80, 105
2, 42048, Note_on_c, 0, 68, 105
2, 42428, Note_off_c, 0, 80, 100
2, 42428, Note_off_c, 0, 68, 100
2, 42432, Note_on_c, 0, 80, 106
2, 42432, Note_on_c, 0, 68, 106
2, 42620, Note_off_c, 0, 80, 100
2, 42620, Note_off_c, 0, 68, 100
2, 42624, Note_on_c, 0, 87, 107
2, 42624, Note_on_c, 0, 75, 107
2, 42812, Note_off_c, 0, 87, 100
2, 42812, Note_off_c, 0, 75, 100
2, 42816, Note_on_c, 0, 68, 108
2, 42816, Note_on_c, 0, 80, 108
2, 43004, Note_off_c, 0, 68, 100
2, 43004, Note_off_c, 0, 80, 100
2, 43008, Note_on_c, 0, 83, 109
2, 43008, Note_on_c, 0, 71, 109
2, 43196, Note_off_c, 0, 83, 100
2, 43196, Note_off_c, 0, 71, 100
2, 43200, Note_on_c, 0, 70, 110
2, 43200, Note_on_c, 0, 82, 110
2, 43580, Note_off_c, 0, 70, 100
2, 43580, Note_off_c, 0, 82, 100
2, 43584, Note_on_c, 0, 82, 111
2, 43584, Note_on_c, 0, 70, 111
2, 43964, Note_off_c, 0, 82, 100
2, 43964, Note_off_c, 0, 70, 100
2, 43968, Note_on_c, 0, 82, 113
2, 43968, Note_on_c, 0, 70, 113
2, 44156, Note_off_c, 0, 82, 100
2, 44156, Note_off_c, 0, 70, 100
2, 44160, Note_on_c, 0, 87, 114
2, 44160, Note_on_c, 0, 75, 114
2, 44348, Note_off_c, 0, 87, 100
2, 44348, Note_off_c, 0, 75, 100
2, 44352, Note_on_c, 0, 82, 114
2, 44352, Note_on_c, 0, 70, 114
2, 44540, Note_off_c, 0, 82, 100
2, 44540, Note_off_c, 0, 70, 100
2, 44544, Note_on_c, 0, 84, 110
2, 44544, Note_on_c, 0, 72, 110
2, 45308, Note_off_c, 0, 84, 100
2, 45308, Note_off_c, 0, 72, 100
2, 45312, Note_on_c, 0, 85, 110
2, 45312, Note_on_c, 0, 73, 110
2, 46076, Note_off_c, 0, 85, 100
2, 46076, Note_off_c, 0, 73, 100
2, 46080, Note_on_c, 0, 70, 110
2, 46080, Note_on_c, 0, 83, 110
2, 46144, Note_on_c, 0, 82, 110
2, 46204, Note_off_c, 0, 83, 100
2, 46208, Note_on_c, 0, 83, 110
2, 46268, Note_off_c, 0, 82, 100
2, 46272, Note_on_c, 0, 82, 110
2, 46332, Note_off_c, 0, 83, 100
2, 46336, Note_on_c, 0, 80, 110
2, 46396, Note_off_c, 0, 82, 100
2, 46400, Note_on_c, 0, 82, 110
2, 46460, Note_off_c, 0, 70, 100
2, 46460, Note_off_c, 0, 80, 100
2, 46464, Note_on_c, 0, 71, 120
2, 46464, Note_on_c, 0, 83, 121
2, 46524, Note_off_c, 0, 82, 100
2, 47612, Note_off_c, 0, 71, 100
2, 47612, Note_off_c, 0, 83, 100
2, 47616, Note_on_c, 0, 68, 110
2, 47616, Note_on_c, 0, 80, 110
2, 48380, Note_off_c, 0, 68, 100
2, 48380, Note_off_c, 0, 80, 100
2, 48384, Note_on_c, 0, 81, 110
2, 48384, Note_on_c, 0, 69, 110
2, 49148, Note_off_c, 0, 81, 100
2, 49148, Note_off_c, 0, 69, 100
2, 49152, Note_on_c, 0, 67, 110
2, 49152, Note_on_c, 0, 80, 110
2, 49216, Note_on_c, 0, 79, 110
2, 49276, Note_off_c, 0, 80, 100
2, 49280, Note_on_c, 0, 80, 110
2, 49340, Note_off_c, 0, 79, 100
2, 49344, Note_on_c, 0, 79, 110
2, 49404, Note_off_c, 0, 80, 100
2, 49408, Note_on_c, 0, 77, 110
2, 49468, Note_off_c, 0, 79, 100
2, 49472, Note_on_c, 0, 79, 110
2, 49532, Note_off_c, 0, 67, 100
2, 49532, Note_off_c, 0, 77, 100
2, 49536, Note_on_c, 0, 68, 120
2, 49536, Note_on_c, 0, 80, 121
2, 49596, Note_off_c, 0, 79, 100
2, 50684, Note_off_c, 0, 68, 100
2, 50684, Note_off_c, 0, 80, 100
2, 50688, Note_on_c, 0, 76, 120
2, 50688, Note_on_c, 0, 69, 120
2, 50688, Note_on_c, 0, 73, 120
2, 50688, Note_on_c, 0, 81, 120
2, 51548, Note_off_c, 0, 76, 100
2, 51552, Note_on_c, 0, 76, 80
2, 51648, Note_on_c, 0, 78, 80
2, 51740, Note_off_c, 0, 76, 100
2, 51744, Note_on_c, 0, 80, 80
2, 51836, Note_off_c, 0, 69, 100
2, 51836, Note_off_c, 0, 73, 100
2, 51836, Note_off_c, 0, 81, 100
2, 51836, Note_off_c, 0, 78, 100
2, 51840, Note_on_c, 0, 81, 80
2, 51932, Note_off_c, 0, 80, 100
2, 51936, Note_on_c, 0, 83, 80
2, 52028, Note_off_c, 0, 81, 100
2, 52032, Note_on_c, 0, 85, 80
2, 52124, Note_off_c, 0, 83, 100
2, 52128, Note_on_c, 0, 83, 80
2, 52220, Note_off_c, 0, 85, 100
2, 52224, Note_on_c, 0, 81, 80
2, 52316, Note_off_c, 0, 83, 100
2, 52320, Note_on_c, 0, 76, 80
2, 52412, Note_off_c, 0, 81, 100
2, 52416, Note_on_c, 0, 78, 80
2, 52508, Note_off_c, 0, 76, 100
2, 52512, Note_on_c, 0, 80, 80
2, 52604, Note_off_c, 0, 78, 100
2, 52608, Note_on_c, 0, 81, 80
2, 52700, Note_off_c, 0, 80, 100
2, 52704, Note_on_c, 0, 83, 80
2, 52796, Note_off_c, 0, 81, 100
2, 52800, Note_on_c, 0, 85, 80
2, 52892, Note_off_c, 0, 83, 100
2, 52896, Note_on_c, 0, 83, 80
2, 52988, Note_off_c, 0, 85, 100
2, 52992, Note_on_c, 0, 81, 80
2, 53084, Note_off_c, 0, 83, 100
2, 53088, Note_on_c, 0, 76, 80
2, 53180, Note_off_c, 0, 81, 100
2, 53184, Note_on_c, 0, 78, 80
2, 53276, Note_off_c, 0, 76, 100
2, 53280, Note_on_c, 0, 80, 80
2, 53372, Note_off_c, 0, 78, 100
2, 53376, Note_on_c, 0, 81, 80
2, 53468, Note_off_c, 0, 80, 100
2, 53472, Note_on_c, 0, 83, 80
2, 53564, Note_off_c, 0, 81, 100
2, 53568, Note_on_c, 0, 85, 80
2, 53660, Note_off_c, 0, 83, 100
2, 53664, Note_on_c, 0, 83, 80
2, 53756, Note_off_c, 0, 85, 100
2, 53760, Note_on_c, 0, 81, 80
2, 53852, Note_off_c, 0, 83, 100
2, 53856, Note_on_c, 0, 76, 81
2, 53948, Note_off_c, 0, 81, 100
2, 53952, Note_on_c, 0, 78, 82
2, 54044, Note_off_c, 0, 76, 100
2, 54048, Note_on_c, 0, 80, 83
2, 54140, Note_off_c, 0, 78, 100
2, 54144, Note_on_c, 0, 81, 84
2, 54236, Note_off_c, 0, 80, 100
2, 54240, Note_on_c, 0, 83, 86
2, 54332, Note_off_c, 0, 81, 100
2, 54336, Note_on_c, 0, 85, 87
2, 54428, Note_off_c, 0, 83, 100
2, 54432, Note_on_c, 0, 86, 88
2, 54524, Note_off_c, 0, 85, 100
2, 54528, Note_on_c, 0, 88, 89
2, 54620, Note_off_c, 0, 86, 100
2, 54624, Note_on_c, 0, 87, 91
2, 54716, Note_off_c, 0, 88, 100
2, 54720, Note_on_c, 0, 88, 92
2, 54812, Note_off_c, 0, 87, 100
2, 54816, Note_on_c, 0, 87, 93
2, 54908, Note_off_c, 0, 88, 100
2, 54912, Note_on_c, 0, 88, 94
2, 55004, Note_off_c, 0, 87, 100
2, 55008, Note_on_c, 0, 85, 96
2, 55100, Note_off_c, 0, 88, 100
2, 55104, Note_on_c, 0, 83, 97
2, 55196, Note_off_c, 0, 85, 100
2, 55200, Note_on_c, 0, 81, 98
2, 55292, Note_off_c, 0, 83, 100
2, 55296, Note_on_c, 0, 80, 80
2, 55388, Note_off_c, 0, 81, 100
2, 56060, Note_off_c, 0, 80, 100
2, 56064, Note_on_c, 0, 83, 80
2, 56128, Note_on_c, 0, 82, 80
2, 56188, Note_off_c, 0, 83, 100
2, 56192, Note_on_c, 0, 83, 80
2, 56252, Note_off_c, 0, 82, 100
2, 56256, Note_on_c, 0, 82, 80
2, 56316, Note_off_c, 0, 83, 100
2, 56320, Note_on_c, 0, 83, 80
2, 56380, Note_off_c, 0, 82, 100
2, 56384, Note_on_c, 0, 82, 80
2, 56444, Note_off_c, 0, 83, 100
2, 56448, Note_on_c, 0, 83, 80
2, 56508, Note_off_c, 0, 82, 100
2, 56512, Note_on_c, 0, 82, 80
2, 56572, Note_off_c, 0, 83, 100
2, 56576, Note_on_c, 0, 83, 80
2, 56636, Note_off_c, 0, 82, 100
2, 56640, Note_on_c, 0, 82, 80
2, 56700, Note_off_c, 0, 83, 100
2, 56704, Note_on_c, 0, 80, 80
2, 56764, Note_off_c, 0, 82, 100
2, 56768, Note_on_c, 0, 82, 80
2, 56828, Note_off_c, 0, 80, 100
2, 56832, Note_on_c, 0, 80, 80
2, 56892, Note_off_c, 0, 82, 100
2, 57212, Note_off_c, 0, 80, 100
2, 57216, Note_on_c, 0, 64, 120
2, 57216, Note_on_c, 0, 57, 120
2, 57216, Note_on_c, 0, 61, 120
2, 57216, Note_on_c, 0, 69, 120
2, 57692, Note_off_c, 0, 64, 100
2, 57696, Note_on_c, 0, 64, 80
2, 57792, Note_on_c, 0, 66, 80
2, 57884, Note_off_c, 0, 64, 100
2, 57888, Note_on_c, 0, 68, 80
2, 57980, Note_off_c, 0, 57, 100
2, 57980, Note_off_c, 0, 61, 100
2, 57980, Note_off_c, 0, 69, 100
2, 57980, Note_off_c, 0, 66, 100
2, 57984, Note_on_c, 0, 69, 80
2, 58076, Note_off_c, 0, 68, 100
2, 58080, Note_on_c, 0, 71, 80
2, 58172, Note_off_c, 0, 69, 100
2, 58176, Note_on_c, 0, 73, 80
2, 58268, Note_off_c, 0, 71, 100
2, 58272, Note_on_c, 0, 71, 80
2, 58364, Note_off_c, 0, 73, 100
2, 58368, Note_on_c, 0, 69, 80
2, 58460, Note_off_c, 0, 71, 100
2, 58464, Note_on_c, 0, 64, 80
2, 58556, Note_off_c, 0, 69, 100
2, 58560, Note_on_c, 0, 66, 80
2, 58652, Note_off_c, 0, 64, 100
2, 58656, Note_on_c, 0, 68, 80
2, 58748, Note_off_c, 0, 66, 100
2, 58752, Note_on_c, 0, 69, 80
2, 58844, Note_off_c, 0, 68, 100
2, 58848, Note_on_c, 0, 71, 80
2, 58940, Note_off_c, 0, 69, 100
2, 58944, Note_on_c, 0, 73, 80
2, 59036, Note_off_c, 0, 71, 100
2, 59040, Note_on_c, 0, 71, 80
2, 59132, Note_off_c, 0, 73, 100
2, 59136, Note_on_c, 0, 69, 80
2, 59228, Note_off_c, 0, 71, 100
2, 59232, Note_on_c, 0, 64, 80
2, 59324, Note_off_c, 0, 69, 100
2, 59328, Note_on_c, 0, 66, 80
2, 59420, Note_off_c, 0, 64, 100
2, 59424, Note_on_c, 0, 68, 80
2, 59516, Note_off_c, 0, 66, 100
2, 59520, Note_on_c, 0, 69, 80
2, 59612, Note_off_c, 0, 68, 100
2, 59616, Note_on_c, 0, 71, 80
2, 59708, Note_off_c, 0, 69, 100
2, 59712, Note_on_c, 0, 73, 80
2, 59804, Note_off_c, 0, 71, 100
2, 59808, Note_on_c, 0, 71, 80
2, 59900, Note_off_c, 0, 73, 100
2, 59904, Note_on_c, 0, 69, 80
2, 59996, Note_off_c, 0, 71, 100
2, 60000, Note_on_c, 0, 64, 80
2, 60092, Note_off_c, 0, 69, 100
2, 60096, Note_on_c, 0, 66, 81
2, 60188, Note_off_c, 0, 64, 100
2, 60192, Note_on_c, 0, 68, 82
2, 60284, Note_off_c, 0, 66, 100
2, 60288, Note_on_c, 0, 69, 83
2, 60380, Note_off_c, 0, 68, 100
2, 60384, Note_on_c, 0, 71, 84
2, 60476, Note_off_c, 0, 69, 100
2, 60480, Note_on_c, 0, 73, 85
2, 60572, Note_off_c, 0, 71, 100
2, 60576, Note_on_c, 0, 71, 86
2, 60668, Note_off_c, 0, 73, 100
2, 60672, Note_on_c, 0, 69, 87
2, 60764, Note_off_c, 0, 71, 100
2, 60768, Note_on_c, 0, 64, 88
2, 60860, Note_off_c, 0, 69, 100
2, 60864, Note_on_c, 0, 66, 89
2, 60956, Note_off_c, 0, 64, 100
2, 60960, Note_on_c, 0, 68, 90
2, 61052, Note_off_c, 0, 66, 100
2, 61056, Note_on_c, 0, 69, 91
2, 61148, Note_off_c, 0, 68, 100
2, 61152, Note_on_c, 0, 71, 92
2, 61244, Note_off_c, 0, 69, 100
2, 61248, Note_on_c, 0, 73, 93
2, 61340, Note_off_c, 0, 71, 100
2, 61344, Note_on_c, 0, 71, 94
2, 61436, Note_off_c, 0, 73, 100
2, 61440, Note_on_c, 0, 69, 94
2, 61532, Note_off_c, 0, 71, 100
2, 61536, Note_on_c, 0, 64, 95
2, 61628, Note_off_c, 0, 69, 100
2, 61632, Note_on_c, 0, 66, 96
2, 61724, Note_off_c, 0, 64, 100
2, 61728, Note_on_c, 0, 68, 97
2, 61820, Note_off_c, 0, 66, 100
2, 61824, Note_on_c, 0, 69, 98
2, 61916, Note_off_c, 0, 68, 100
2, 61920, Note_on_c, 0, 71, 99
2, 62012, Note_off_c, 0, 69, 100
2, 62016, Note_on_c, 0, 73, 100
2, 62108, Note_off_c, 0, 71, 100
2, 62112, Note_on_c, 0, 75, 101
2, 62204, Note_off_c, 0, 73, 100
2, 62208, Note_on_c, 0, 76, 102
2, 62300, Note_off_c, 0, 75, 100
2, 62304, Note_on_c, 0, 78, 103
2, 62396, Note_off_c, 0, 76, 100
2, 62400, Note_on_c, 0, 80, 104
2, 62492, Note_off_c, 0, 78, 100
2, 62496, Note_on_c, 0, 81, 105
2, 62588, Note_off_c, 0, 80, 100
2, 62592, Note_on_c, 0, 83, 106
2, 62684, Note_off_c, 0, 81, 100
2, 62688, Note_on_c, 0, 85, 107
2, 62780, Note_off_c, 0, 83, 100
2, 62784, Note_on_c, 0, 86, 108
2, 62876, Note_off_c, 0, 85, 100
2, 62880, Note_on_c, 0, 87, 109
2, 62972, Note_off_c, 0, 86, 100
2, 62976, Note_on_c, 0, 88, 110
2, 62976, Note_on_c, 0, 76, 110
2, 63068, Note_off_c, 0, 87, 100
2, 63740, Note_off_c, 0, 88, 100
2, 63740, Note_off_c, 0, 76, 100
2, 63744, Note_on_c, 0, 80, 110
2, 63744, Note_on_c, 0, 68, 110
2, 64508, Note_off_c, 0, 80, 100
2, 64508, Note_off_c, 0, 68, 100
2, 64512, Note_on_c, 0, 83, 110
2, 64512, Note_on_c, 0, 71, 110
2, 65276, Note_off_c, 0, 83, 100
2, 65276, Note_off_c, 0, 71, 100
2, 65280, Note_on_c, 0, 55, 110
2, 65280, Note_on_c, 0, 61, 110
2, 65280, Note_on_c, 0, 67, 110
2, 66044, Note_off_c, 0, 55, 100
2, 66044, Note_off_c, 0, 61, 100
2, 66044, Note_off_c, 0, 67, 100
2, 66048, Note_on_c, 0, 56, 110
2, 66048, Note_on_c, 0, 59, 110
2, 66048, Note_on_c, 0, 68, 110
2, 66240, Note_on_c, 0, 63, 80
2, 66240, Note_on_c, 0, 71, 80
2, 66428, Note_off_c, 0, 56, 100
2, 66428, Note_off_c, 0, 59, 100
2, 66428, Note_off_c, 0, 68, 100
2, 66428, Note_off_c, 0, 63, 100
2, 66428, Note_off_c, 0, 71, 100
2, 66432, Note_on_c, 0, 63, 80
2, 66432, Note_on_c, 0, 71, 80
2, 66620, Note_off_c, 0, 63, 100
2, 66620, Note_off_c, 0, 71, 100
2, 66624, Note_on_c, 0, 63, 80
2, 66624, Note_on_c, 0, 71, 80
2, 66812, Note_off_c, 0, 63, 100
2, 66812, Note_off_c, 0, 71, 100
2, 66816, Note_on_c, 0, 63, 80
2, 66816, Note_on_c, 0, 71, 80
2, 67004, Note_off_c, 0, 63, 100
2, 67004, Note_off_c, 0, 71, 100
2, 67008, Note_on_c, 0, 63, 80
2, 67008, Note_on_c, 0, 71, 80
2, 67196, Note_off_c, 0, 63, 100
2, 67196, Note_off_c, 0, 71, 100
2, 67200, Note_on_c, 0, 63, 80
2, 67200, Note_on_c, 0, 70, 80
2, 67388, Note_off_c, 0, 63, 100
2, 67388, Note_off_c, 0, 70, 100
2, 67392, Note_on_c, 0, 63, 80
2, 67392, Note_on_c, 0, 68, 80
2, 67580, Note_off_c, 0, 63, 100
2, 67580, Note_off_c, 0, 68, 100
2, 67584, Note_on_c, 0, 63, 80
2, 67584, Note_on_c, 0, 67, 80
2, 67772, Note_off_c, 0, 63, 100
2, 67772, Note_off_c, 0, 67, 100
2, 67776, Note_on_c, 0, 67, 80
2, 67776, Note_on_c, 0, 75, 80
2, 67964, Note_off_c, 0, 67, 100
2, 67964, Note_off_c, 0, 75, 100
2, 67968, Note_on_c, 0, 67, 80
2, 67968, Note_on_c, 0, 75, 80
2, 68156, Note_off_c, 0, 67, 100
2, 68156, Note_off_c, 0, 75, 100
2, 68160, Note_on_c, 0, 67, 80
2, 68160, Note_on_c, 0, 75, 80
2, 68348, Note_off_c, 0, 67, 100
2, 68348, Note_off_c, 0, 75, 100
2, 68352, Note_on_c, 0, 67, 80
2, 68352, Note_on_c, 0, 75, 80
2, 68540, Note_off_c, 0, 67, 100
2, 68540, Note_off_c, 0, 75, 100
2, 68544, Note_on_c, 0, 67, 80
2, 68544, Note_on_c, 0, 75, 80
2, 68732, Note_off_c, 0, 67, 100
2, 68732, Note_off_c, 0, 75, 100
2, 68736, Note_on_c, 0, 68, 80
2, 68736, Note_on_c, 0, 75, 80
2, 68924, Note_off_c, 0, 68, 100
2, 68924, Note_off_c, 0, 75, 100
2, 68928, Note_on_c, 0, 70, 80
2, 68928, Note_on_c, 0, 75, 80
2, 69116, Note_off_c, 0, 70, 100
2, 69116, Note_off_c, 0, 75, 100
2, 69120, Note_on_c, 0, 71, 80
2, 69120, Note_on_c, 0, 75, 80
2, 69308, Note_off_c, 0, 71, 100
2, 69308, Note_off_c, 0, 75, 100
2, 69312, Note_on_c, 0, 63, 80
2, 69312, Note_on_c, 0, 71, 80
2, 69500, Note_off_c, 0, 63, 100
2, 69500, Note_off_c, 0, 71, 100
2, 69504, Note_on_c, 0, 63, 80
2, 69504, Note_on_c, 0, 71, 80
2, 69692, Note_off_c, 0, 63, 100
2, 69692, Note_off_c, 0, 71, 100
2, 69696, Note_on_c, 0, 63, 80
2, 69696, Note_on_c, 0, 71, 80
2, 69884, Note_off_c, 0, 63, 100
2, 69884, Note_off_c, 0, 71, 100
2, 69888, Note_on_c, 0, 63, 80
2, 69888, Note_on_c, 0, 71, 80
2, 70076, Note_off_c, 0, 63, 100
2, 70076, Note_off_c, 0, 71, 100
2, 70080, Note_on_c, 0, 63, 80
2, 70080, Note_on_c, 0, 71, 80
2, 70268, Note_off_c, 0, 63, 100
2, 70268, Note_off_c, 0, 71, 100
2, 70272, Note_on_c, 0, 63, 80
2, 70272, Note_on_c, 0, 70, 80
2, 70460, Note_off_c, 0, 63, 100
2, 70460, Note_off_c, 0, 70, 100
2, 70464, Note_on_c, 0, 63, 80
2, 70464, Note_on_c, 0, 68, 80
2, 70652, Note_off_c, 0, 63, 100
2, 70652, Note_off_c, 0, 68, 100
2, 70656, Note_on_c, 0, 63, 80
2, 70656, Note_on_c, 0, 67, 80
2, 70844, Note_off_c, 0, 63, 100
2, 70844, Note_off_c, 0, 67, 100
2, 70848, Note_on_c, 0, 67, 80
2, 70848, Note_on_c, 0, 75, 80
2, 71036, Note_off_c, 0, 67, 100
2, 71036, Note_off_c, 0, 75, 100
2, 71040, Note_on_c, 0, 67, 80
2, 71040, Note_on_c, 0, 75, 80
2, 71228, Note_off_c, 0, 67, 100
2, 71228, Note_off_c, 0, 75, 100
2, 71232, Note_on_c, 0, 67, 80
2, 71232, Note_on_c, 0, 75, 80
2, 71420, Note_off_c, 0, 67, 100
2, 71420, Note_off_c, 0, 75, 100
2, 71424, Note_on_c, 0, 67, 80
2, 71424, Note_on_c, 0, 75, 80
2, 71612, Note_off_c, 0, 67, 100
2, 71612, Note_off_c, 0, 75, 100
2, 71616, Note_on_c, 0, 67, 80
2, 71616, Note_on_c, 0, 75, 80
2, 71804, Note_off_c, 0, 67, 100
2, 71804, Note_off_c, 0, 75, 100
2, 71808, Note_on_c, 0, 68, 80
2, 71808, Note_on_c, 0, 75, 80
2, 71996, Note_off_c, 0, 68, 100
2, 71996, Note_off_c, 0, 75, 100
2, 72000, Note_on_c, 0, 70, 80
2, 72000, Note_on_c, 0, 75, 80
2, 72188, Note_off_c, 0, 70, 100
2, 72188, Note_off_c, 0, 75, 100
2, 72192, Note_on_c, 0, 71, 80
2, 72192, Note_on_c, 0, 75, 80
2, 72380, Note_off_c, 0, 71, 100
2, 72380, Note_off_c, 0, 75, 100
2, 72384, Note_on_c, 0, 71, 80
2, 72384, Note_on_c, 0, 75, 80
2, 72572, Note_off_c, 0, 71, 100
2, 72572, Note_off_c, 0, 75, 100
2, 72576, Note_on_c, 0, 71, 80
2, 72576, Note_on_c, 0, 75, 80
2, 72764, Note_off_c, 0, 71, 100
2, 72764, Note_off_c, 0, 75, 100
2, 72768, Note_on_c, 0, 68, 80
2, 72768, Note_on_c, 0, 71, 80
2, 72956, Note_off_c, 0, 68, 100
2, 72956, Note_off_c, 0, 71, 100
2, 73152, Note_on_c, 0, 73, 80
2, 73152, Note_on_c, 0, 76, 80
2, 73340, Note_off_c, 0, 73, 100
2, 73340, Note_off_c, 0, 76, 100
2, 73344, Note_on_c, 0, 73, 80
2, 73344, Note_on_c, 0, 76, 80
2, 73532, Note_off_c, 0, 73, 100
2, 73532, Note_off_c, 0, 76, 100
2, 73536, Note_on_c, 0, 68, 80
2, 73536, Note_on_c, 0, 73, 80
2, 73724, Note_off_c, 0, 68, 100
2, 73724, Note_off_c, 0, 73, 100
2, 73920, Note_on_c, 0, 71, 80
2, 73920, Note_on_c, 0, 75, 80
2, 74108, Note_off_c, 0, 71, 100
2, 74108, Note_off_c, 0, 75, 100
2, 74112, Note_on_c, 0, 71, 80
2, 74112, Note_on_c, 0, 75, 80
2, 74300, Note_off_c, 0, 71, 100
2, 74300, Note_off_c, 0, 75, 100
2, 74304, Note_on_c, 0, 68, 80
2, 74304, Note_on_c, 0, 71, 80
2, 74492, Note_off_c, 0, 68, 100
2, 74492, Note_off_c, 0, 71, 100
2, 74688, Note_on_c, 0, 70, 80
2, 74688, Note_on_c, 0, 75, 80
2, 74876, Note_off_c, 0, 70, 100
2, 74876, Note_off_c, 0, 75, 100
2, 74880, Note_on_c, 0, 70, 80
2, 74880, Note_on_c, 0, 75, 80
2, 75068, Note_off_c, 0, 70, 100
2, 75068, Note_off_c, 0, 75, 100
2, 75072, Note_on_c, 0, 67, 80
2, 75072, Note_on_c, 0, 70, 80
2, 75260, Note_off_c, 0, 67, 100
2, 75260, Note_off_c, 0, 70, 100
2, 75264, Note_on_c, 0, 68, 80
2, 75264, Note_on_c, 0, 71, 80
2, 75452, Note_off_c, 0, 68, 100
2, 75452, Note_off_c, 0, 71, 100
2, 75456, Note_on_c, 0, 71, 80
2, 75456, Note_on_c, 0, 75, 80
2, 75456, Note_on_c, 0, 83, 80
2, 75644, Note_off_c, 0, 71, 100
2, 75644, Note_off_c, 0, 75, 100
2, 75644, Note_off_c, 0, 83, 100
2, 75648, Note_on_c, 0, 71, 82
2, 75648, Note_on_c, 0, 75, 82
2, 75648, Note_on_c, 0, 83, 82
2, 75836, Note_off_c, 0, 71, 100
2, 75836, Note_off_c, 0, 75, 100
2, 75836, Note_off_c, 0, 83, 100
2, 75840, Note_on_c, 0, 71, 85
2, 75840, Note_on_c, 0, 75, 85
2, 75840, Note_on_c, 0, 83, 85
2, 76028, Note_off_c, 0, 71, 100
2, 76028, Note_off_c, 0, 75, 100
2, 76028, Note_off_c, 0, 83, 100
2, 76032, Note_on_c, 0, 71, 88
2, 76032, Note_on_c, 0, 75, 88
2, 76032, Note_on_c, 0, 83, 88
2, 76220, Note_off_c, 0, 71, 100
2, 76220, Note_off_c, 0, 75, 100
2, 76220, Note_off_c, 0, 83, 100
2, 76224, Note_on_c, 0, 71, 91
2, 76224, Note_on_c, 0, 75, 91
2, 76224, Note_on_c, 0, 83, 91
2, 76412, Note_off_c, 0, 71, 100
2, 76412, Note_off_c, 0, 75, 100
2, 76412, Note_off_c, 0, 83, 100
2, 76416, Note_on_c, 0, 70, 94
2, 76416, Note_on_c, 0, 73, 94
2, 76416, Note_on_c, 0, 82, 94
2, 76604, Note_off_c, 0, 70, 100
2, 76604, Note_off_c, 0, 73, 100
2, 76604, Note_off_c, 0, 82, 100
2, 76608, Note_on_c, 0, 68, 97
2, 76608, Note_on_c, 0, 71, 97
2, 76608, Note_on_c, 0, 80, 97
2, 76796, Note_off_c, 0, 68, 100
2, 76796, Note_off_c, 0, 71, 100
2, 76796, Note_off_c, 0, 80, 100
2, 76800, Note_on_c, 0, 67, 99
2, 76800, Note_on_c, 0, 70, 99
2, 76800, Note_on_c, 0, 79, 99
2, 76988, Note_off_c, 0, 67, 100
2, 76988, Note_off_c, 0, 70, 100
2, 76988, Note_off_c, 0, 79, 100
2, 76992, Note_on_c, 0, 76, 110
2, 76992, Note_on_c, 0, 88, 110
2, 76992, Note_on_c, 0, 79, 110
2, 77180, Note_off_c, 0, 76, 100
2, 77180, Note_off_c, 0, 88, 100
2, 77180, Note_off_c, 0, 79, 100
2, 77184, Note_on_c, 0, 76, 110
2, 77184, Note_on_c, 0, 88, 110
2, 77184, Note_on_c, 0, 79, 110
2, 77372, Note_off_c, 0, 76, 100
2, 77372, Note_off_c, 0, 88, 100
2, 77372, Note_off_c, 0, 79, 100
2, 77376, Note_on_c, 0, 76, 110
2, 77376, Note_on_c, 0, 88, 110
2, 77376, Note_on_c, 0, 79, 110
2, 77564, Note_off_c, 0, 76, 100
2, 77564, Note_off_c, 0, 88, 100
2, 77564, Note_off_c, 0, 79, 100
2, 77568, Note_on_c, 0, 76, 110
2, 77568, Note_on_c, 0, 88, 110
2, 77568, Note_on_c, 0, 79, 110
2, 77756, Note_off_c, 0, 76, 100
2, 77756, Note_off_c, 0, 88, 100
2, 77756, Note_off_c, 0, 79, 100
2, 77760, Note_on_c, 0, 76, 110
2, 77760, Note_on_c, 0, 88, 110
2, 77760, Note_on_c, 0, 79, 110
2, 77948, Note_off_c, 0, 76, 100
2, 77948, Note_off_c, 0, 88, 100
2, 77948, Note_off_c, 0, 79, 100
2, 77952, Note_on_c, 0, 75, 110
2, 77952, Note_on_c, 0, 87, 110
2, 77952, Note_on_c, 0, 79, 110
2, 78140, Note_off_c, 0, 75, 100
2, 78140, Note_off_c, 0, 87, 100
2, 78140, Note_off_c, 0, 79, 100
2, 78144, Note_on_c, 0, 73, 110
2, 78144, Note_on_c, 0, 85, 110
2, 78144, Note_on_c, 0, 79, 110
2, 78332, Note_off_c, 0, 73, 100
2, 78332, Note_off_c, 0, 85, 100
2, 78332, Note_off_c, 0, 79, 100
2, 78336, Note_on_c, 0, 71, 110
2, 78336, Note_on_c, 0, 80, 110
2, 78336, Note_on_c, 0, 83, 110
2, 78524, Note_off_c, 0, 71, 100
2, 78524, Note_off_c, 0, 80, 100
2, 78524, Note_off_c, 0, 83, 100
2, 78528, Note_on_c, 0, 71, 80
2, 78528, Note_on_c, 0, 75, 80
2, 78528, Note_on_c, 0, 83, 80
2, 78716, Note_off_c, 0, 71, 100
2, 78716, Note_off_c, 0, 75, 100
2, 78716, Note_off_c, 0, 83, 100
2, 78720, Note_on_c, 0, 71, 82
2, 78720, Note_on_c, 0, 75, 82
2, 78720, Note_on_c, 0, 83, 82
2, 78908, Note_off_c, 0, 71, 100
2, 78908, Note_off_c, 0, 75, 100
2, 78908, Note_off_c, 0, 83, 100
2, 78912, Note_on_c, 0, 71, 85
2, 78912, Note_on_c, 0, 75, 85
2, 78912, Note_on_c, 0, 83, 85
2, 79100, Note_off_c, 0, 71, 100
2, 79100, Note_off_c, 0, 75, 100
2, 79100, Note_off_c, 0, 83, 100
2, 79104, Note_on_c, 0, 71, 88
2, 79104, Note_on_c, 0, 75, 88
2, 79104, Note_on_c, 0, 83, 88
2, 79292, Note_off_c, 0, 71, 100
2, 79292, Note_off_c, 0, 75, 100
2, 79292, Note_off_c, 0, 83, 100
2, 79296, Note_on_c, 0, 71, 91
2, 79296, Note_on_c, 0, 75, 91
2, 79296, Note_on_c, 0, 83, 91
2, 79484, Note_off_c, 0, 71, 100
2, 79484, Note_off_c, 0, 75, 100
2, 79484, Note_off_c, 0, 83, 100
2, 79488, Note_on_c, 0, 70, 94
2, 79488, Note_on_c, 0, 73, 94
2, 79488, Note_on_c, 0, 82, 94
2, 79676, Note_off_c, 0, 70, 100
2, 79676, Note_off_c, 0, 73, 100
2, 79676, Note_off_c, 0, 82, 100
2, 79680, Note_on_c, 0, 68, 97
2, 79680, Note_on_c, 0, 71, 97
2, 79680, Note_on_c, 0, 80, 97
2, 79868, Note_off_c, 0, 68, 100
2, 79868, Note_off_c, 0, 71, 100
2, 79868, Note_off_c, 0, 80, 100
2, 79872, Note_on_c, 0, 67, 99
2, 79872, Note_on_c, 0, 70, 99
2, 79872, Note_on_c, 0, 79, 99
2, 80060, Note_off_c, 0, 67, 100
2, 80060, Note_off_c, 0, 70, 100
2, 80060, Note_off_c, 0, 79, 100
2, 80064, Note_on_c, 0, 76, 110
2, 80064, Note_on_c, 0, 88, 110
2, 80064, Note_on_c, 0, 79, 110
2, 80252, Note_off_c, 0, 76, 100
2, 80252, Note_off_c, 0, 88, 100
2, 80252, Note_off_c, 0, 79, 100
2, 80256, Note_on_c, 0, 76, 110
2, 80256, Note_on_c, 0, 88, 110
2, 80256, Note_on_c, 0, 79, 110
2, 80444, Note_off_c, 0, 76, 100
2, 80444, Note_off_c, 0, 88, 100
2, 80444, Note_off_c, 0, 79, 100
2, 80448, Note_on_c, 0, 76, 110
2, 80448, Note_on_c, 0, 88, 110
2, 80448, Note_on_c, 0, 79, 110
2, 80636, Note_off_c, 0, 76, 100
2, 80636, Note_off_c, 0, 88, 100
2, 80636, Note_off_c, 0, 79, 100
2, 80640, Note_on_c, 0, 76, 110
2, 80640, Note_on_c, 0, 88, 110
2, 80640, Note_on_c, 0, 79, 110
2, 80828, Note_off_c, 0, 76, 100
2, 80828, Note_off_c, 0, 88, 100
2, 80828, Note_off_c, 0, 79, 100
2, 80832, Note_on_c, 0, 76, 110
2, 80832, Note_on_c, 0, 88, 110
2, 80832, Note_on_c, 0, 79, 110
2, 81020, Note_off_c, 0, 76, 100
2, 81020, Note_off_c, 0, 88, 100
2, 81020, Note_off_c, 0, 79, 100
2, 81024, Note_on_c, 0, 75, 110
2, 81024, Note_on_c, 0, 87, 110
2, 81024, Note_on_c, 0, 79, 110
2, 81212, Note_off_c, 0, 75, 100
2, 81212, Note_off_c, 0, 87, 100
2, 81212, Note_off_c, 0, 79, 100
2, 81216, Note_on_c, 0, 73, 110
2, 81216, Note_on_c, 0, 85, 110
2, 81216, Note_on_c, 0, 79, 110
2, 81404, Note_off_c, 0, 73, 100
2, 81404, Note_off_c, 0, 85, 100
2, 81404, Note_off_c, 0, 79, 100
2, 81408, Note_on_c, 0, 71, 110
2, 81408, Note_on_c, 0, 80, 110
2, 81408, Note_on_c, 0, 83, 110
2, 81596, Note_off_c, 0, 71, 100
2, 81596, Note_off_c, 0, 80, 100
2, 81596, Note_off_c, 0, 83, 100
2, 81600, Note_on_c, 0, 80, 80
2, 81600, Note_on_c, 0, 83, 80
2, 81788, Note_off_c, 0, 80, 100
2, 81788, Note_off_c, 0, 83, 100
2, 81792, Note_on_c, 0, 80, 80
2, 81792, Note_on_c, 0, 83, 80
2, 81980, Note_off_c, 0, 80, 100
2, 81980, Note_off_c, 0, 83, 100
2, 81984, Note_on_c, 0, 87, 80
2, 81984, Note_on_c, 0, 83, 80
2, 82172, Note_off_c, 0, 87, 100
2, 82172, Note_off_c, 0, 83, 100
2, 82368, Note_on_c, 0, 85, 80
2, 82368, Note_on_c, 0, 80, 80
2, 82556, Note_off_c, 0, 85, 100
2, 82556, Note_off_c, 0, 80, 100
2, 82560, Note_on_c, 0, 85, 80
2, 82560, Note_on_c, 0, 80, 80
2, 82748, Note_off_c, 0, 85, 100
2, 82748, Note_off_c, 0, 80, 100
2, 82752, Note_on_c, 0, 88, 80
2, 82752, Note_on_c, 0, 85, 80
2, 82940, Note_off_c, 0, 88, 100
2, 82940, Note_off_c, 0, 85, 100
2, 83136, Note_on_c, 0, 83, 80
2, 83136, Note_on_c, 0, 80, 80
2, 83324, Note_off_c, 0, 83, 100
2, 83324, Note_off_c, 0, 80, 100
2, 83328, Note_on_c, 0, 83, 80
2, 83328, Note_on_c, 0, 80, 80
2, 83516, Note_off_c, 0, 83, 100
2, 83516, Note_off_c, 0, 80, 100
2, 83520, Note_on_c, 0, 87, 80
2, 83520, Note_on_c, 0, 83, 80
2, 83708, Note_off_c, 0, 87, 100
2, 83708, Note_off_c, 0, 83, 100
2, 83904, Note_on_c, 0, 82, 80
2, 83904, Note_on_c, 0, 79, 80
2, 84092, Note_off_c, 0, 82, 100
2, 84092, Note_off_c, 0, 79, 100
2, 84096, Note_on_c, 0, 82, 80
2, 84096, Note_on_c, 0, 79, 80
2, 84284, Note_off_c, 0, 82, 100
2, 84284, Note_off_c, 0, 79, 100
2, 84288, Note_on_c, 0, 87, 80
2, 84288, Note_on_c, 0, 82, 80
2, 84476, Note_off_c, 0, 87, 100
2, 84476, Note_off_c, 0, 82, 100
2, 84672, Note_on_c, 0, 75, 82
2, 84672, Note_on_c, 0, 83, 82
2, 84860, Note_off_c, 0, 75, 100
2, 84860, Note_off_c, 0, 83, 100
2, 84864, Note_on_c, 0, 75, 85
2, 84864, Note_on_c, 0, 83, 85
2, 85052, Note_off_c, 0, 75, 100
2, 85052, Note_off_c, 0, 83, 100
2, 85056, Note_on_c, 0, 80, 88
2, 85056, Note_on_c, 0, 87, 88
2, 85244, Note_off_c, 0, 80, 100
2, 85244, Note_off_c, 0, 87, 100
2, 85440, Note_on_c, 0, 73, 94
2, 85440, Note_on_c, 0, 81, 94
2, 85628, Note_off_c, 0, 73, 100
2, 85628, Note_off_c, 0, 81, 100
2, 85632, Note_on_c, 0, 73, 97
2, 85632, Note_on_c, 0, 81, 97
2, 85820, Note_off_c, 0, 73, 100
2, 85820, Note_off_c, 0, 81, 100
2, 85824, Note_on_c, 0, 76, 99
2, 85824, Note_on_c, 0, 85, 99
2, 86012, Note_off_c, 0, 76, 100
2, 86012, Note_off_c, 0, 85, 100
2, 86208, Note_on_c, 0, 71, 100
2, 86208, Note_on_c, 0, 80, 100
2, 86396, Note_off_c, 0, 71, 100
2, 86396, Note_off_c, 0, 80, 100
2, 86400, Note_on_c, 0, 71, 100
2, 86400, Note_on_c, 0, 80, 100
2, 86588, Note_off_c, 0, 71, 100
2, 86588, Note_off_c, 0, 80, 100
2, 86592, Note_on_c, 0, 75, 100
2, 86592, Note_on_c, 0, 83, 100
2, 86780, Note_off_c, 0, 75, 100
2, 86780, Note_off_c, 0, 83, 100
2, 86976, Note_on_c, 0, 70, 87
2, 86976, Note_on_c, 0, 79, 87
2, 87164, Note_off_c, 0, 70, 100
2, 87164, Note_off_c, 0, 79, 100
2, 87168, Note_on_c, 0, 70, 84
2, 87168, Note_on_c, 0, 79, 84
2, 87356, Note_off_c, 0, 70, 100
2, 87356, Note_off_c, 0, 79, 100
2, 87360, Note_on_c, 0, 73, 81
2, 87360, Note_on_c, 0, 82, 81
2, 87548, Note_off_c, 0, 73, 100
2, 87548, Note_off_c, 0, 82, 100
2, 87552, Control_c, 0, 64, 127
2, 87552, Note_on_c, 0, 80, 80
2, 87552, Note_on_c, 0, 71, 80
2, 87932, Note_off_c, 0, 80, 100
2, 87932, Note_off_c, 0, 71, 100
2, 88704, Note_on_c, 0, 71, 80
2, 88992, Note_on_c, 0, 68, 80
2, 89080, Control_c, 0, 64, 0
2, 89084, Note_off_c, 0, 71, 100
2, 89088, Control_c, 0, 64, 127
2, 89088, Note_on_c, 0, 67, 80
2, 89180, Note_off_c, 0, 68, 100
2, 89468, Note_off_c, 0, 67, 100
2, 89472, Note_on_c, 0, 75, 80
2, 89472, Note_on_c, 0, 67, 80
2, 89472, Note_on_c, 0, 61, 80
2, 89852, Note_off_c, 0, 75, 100
2, 89852, Note_off_c, 0, 67, 100
2, 89852, Note_off_c, 0, 61, 100
2, 89856, Note_on_c, 0, 61, 80
2, 89856, Note_on_c, 0, 67, 80
2, 89856, Note_on_c, 0, 75, 80
2, 90236, Note_off_c, 0, 61, 100
2, 90236, Note_off_c, 0, 67, 100
2, 90236, Note_off_c, 0, 75, 100
2, 90240, Note_on_c, 0, 61, 80
2, 90240, Note_on_c, 0, 67, 80
2, 90240, Note_on_c, 0, 75, 80
2, 90616, Control_c, 0, 64, 0
2, 90620, Note_off_c, 0, 61, 100
2, 90620, Note_off_c, 0, 67, 100
2, 90620, Note_off_c, 0, 75, 100
2, 90624, Control_c, 0, 64, 127
2, 90624, Note_on_c, 0, 59, 80
2, 90656, Note_on_c, 0, 68, 80
2, 90688, Note_on_c, 0, 75, 80
2, 91004, Note_off_c, 0, 59, 100
2, 91004, Note_off_c, 0, 68, 100
2, 91772, Note_off_c, 0, 75, 100
2, 91776, Note_on_c, 0, 83, 80
2, 92064, Note_on_c, 0, 80, 80
2, 92152, Control_c, 0, 64, 0
2, 92156, Note_off_c, 0, 83, 100
2, 92160, Control_c, 0, 64, 127
2, 92160, Note_on_c, 0, 79, 80
2, 92252, Note_off_c, 0, 80, 100
2, 92540, Note_off_c, 0, 79, 100
2, 92544, Note_on_c, 0, 87, 80
2, 92544, Note_on_c, 0, 73, 80
2, 92544, Note_on_c, 0, 79, 80
2, 92924, Note_off_c, 0, 87, 100
2, 92924, Note_off_c, 0, 73, 100
2, 92924, Note_off_c, 0, 79, 100
2, 92928, Note_on_c, 0, 87, 80
2, 92928, Note_on_c, 0, 73, 80
2, 92928, Note_on_c, 0, 79, 80
2, 93308, Note_off_c, 0, 87, 100
2, 93308, Note_off_c, 0, 73, 100
2, 93308, Note_off_c, 0, 79, 100
2, 93312, Note_on_c, 0, 87, 80
2, 93312, Note_on_c, 0, 73, 80
2, 93312, Note_on_c, 0, 79, 80
2, 93688, Control_c, 0, 64, 0
2, 93692, Note_off_c, 0, 87, 100
2, 93692, Note_off_c, 0, 73, 100
2, 93692, Note_off_c, 0, 79, 100
2, 93696, Control_c, 0, 64, 127
2, 93696, Note_on_c, 0, 71, 80
2, 93728, Note_on_c, 0, 80, 80
2, 93760, Note_on_c, 0, 87, 80
2, 94076, Note_off_c, 0, 71, 100
2, 94076, Note_off_c, 0, 80, 100
2, 94456, Control_c, 0, 64, 0
2, 94460, Note_off_c, 0, 87, 100
2, 94464, Control_c, 0, 64, 127
2, 94464, Note_on_c, 0, 73, 80
2, 94496, Note_on_c, 0, 79, 80
2, 94528, Note_on_c, 0, 87, 80
2, 94844, Note_off_c, 0, 73, 100
2, 94844, Note_off_c, 0, 79, 100
2, 95224, Control_c, 0, 64, 0
2, 95228, Note_off_c, 0, 87, 100
2, 95232, Control_c, 0, 64, 127
2, 95232, Note_on_c, 0, 71, 80
2, 95264, Note_on_c, 0, 80, 80
2, 95296, Note_on_c, 0, 87, 80
2, 95612, Note_off_c, 0, 71, 100
2, 95612, Note_off_c, 0, 80, 100
2, 95992, Control_c, 0, 64, 0
2, 95996, Note_off_c, 0, 87, 100
2, 96000, Control_c, 0, 64, 127
2, 96000, Note_on_c, 0, 73, 80
2, 96032, Note_on_c, 0, 79, 80
2, 96064, Note_on_c, 0, 87, 80
2, 96380, Note_off_c, 0, 73, 100
2, 96380, Note_off_c, 0, 79, 100
2, 96760, Control_c, 0, 64, 0
2, 96764, Note_off_c, 0, 87, 100
2, 96768, Control_c, 0, 64, 127
2, 96768, Note_on_c, 0, 59, 80
2, 96864, Note_on_c, 0, 68, 80
2, 96956, Note_off_c, 0, 59, 100
2, 96960, Note_on_c, 0, 63, 81
2, 97052, Note_off_c, 0, 68, 100
2, 97056, Note_on_c, 0, 68, 82
2, 97148, Note_off_c, 0, 63, 100
2, 97152, Note_on_c, 0, 59, 83
2, 97244, Note_off_c, 0, 68, 100
2, 97248, Note_on_c, 0, 68, 84
2, 97340, Note_off_c, 0, 59, 100
2, 97344, Note_on_c, 0, 63, 85
2, 97436, Note_off_c, 0, 68, 100
2, 97440, Note_on_c, 0, 68, 86
2, 97532, Note_off_c, 0, 63, 100
2, 97536, Note_on_c, 0, 59, 87
2, 97628, Note_off_c, 0, 68, 100
2, 97632, Note_on_c, 0, 68, 88
2, 97724, Note_off_c, 0, 59, 100
2, 97728, Note_on_c, 0, 63, 89
2, 97820, Note_off_c, 0, 68, 100
2, 97824, Note_on_c, 0, 68, 90
2, 97916, Note_off_c, 0, 63, 100
2, 97920, Note_on_c, 0, 59, 91
2, 98012, Note_off_c, 0, 68, 100
2, 98016, Note_on_c, 0, 68, 92
2, 98108, Note_off_c, 0, 59, 100
2, 98112, Note_on_c, 0, 63, 93
2, 98204, Note_off_c, 0, 68, 100
2, 98208, Note_on_c, 0, 68, 94
2, 98296, Control_c, 0, 64, 0
2, 98300, Note_off_c, 0, 63, 100
2, 98304, Control_c, 0, 64, 127
2, 98304, Note_on_c, 0, 60, 94
2, 98396, Note_off_c, 0, 68, 100
2, 98400, Note_on_c, 0, 66, 95
2, 98492, Note_off_c, 0, 60, 100
2, 98496, Note_on_c, 0, 63, 96
2, 98588, Note_off_c, 0, 66, 100
2, 98592, Note_on_c, 0, 66, 97
2, 98684, Note_off_c, 0, 63, 100
2, 98688, Note_on_c, 0, 60, 98
2, 98780, Note_off_c, 0, 66, 100
2, 98784, Note_on_c, 0, 66, 99
2, 98876, Note_off_c, 0, 60, 100
2, 98880, Note_on_c, 0, 63, 100
2, 98972, Note_off_c, 0, 66, 100
2, 98976, Note_on_c, 0, 66, 101
2, 99068, Note_off_c, 0, 63, 100
2, 99072, Note_on_c, 0, 60, 102
2, 99164, Note_off_c, 0, 66, 100
2, 99168, Note_on_c, 0, 66, 103
2, 99260, Note_off_c, 0, 60, 100
2, 99264, Note_on_c, 0, 63, 104
2, 99356, Note_off_c, 0, 66, 100
2, 99360, Note_on_c, 0, 66, 105
2, 99452, Note_off_c, 0, 63, 100
2, 99456, Note_on_c, 0, 60, 106
2, 99548, Note_off_c, 0, 66, 100
2, 99552, Note_on_c, 0, 66, 107
2, 99644, Note_off_c, 0, 60, 100
2, 99648, Note_on_c, 0, 63, 108
2, 99740, Note_off_c, 0, 66, 100
2, 99744, Note_on_c, 0, 66, 109
2, 99832, Control_c, 0, 64, 0
2, 99836, Note_off_c, 0, 63, 100
2, 99840, Note_on_c, 0, 52, 100
2, 99840, Note_on_c, 0, 56, 100
2, 99840, Note_on_c, 0, 61, 100
2, 99840, Note_on_c, 0, 64, 100
2, 99932, Note_off_c, 0, 66, 100
2, 99936, Note_on_c, 0, 44, 80
2, 100032, Note_on_c, 0, 49, 80
2, 100124, Note_off_c, 0, 52, 100
2, 100124, Note_off_c, 0, 44, 100
2, 100128, Note_on_c, 0, 52, 80
2, 100220, Note_off_c, 0, 56, 100
2, 100220, Note_off_c, 0, 61, 100
2, 100220, Note_off_c, 0, 64, 100
2, 100220, Note_off_c, 0, 49, 100
2, 100224, Note_on_c, 0, 56, 80
2, 100316, Note_off_c, 0, 52, 100
2, 100320, Note_on_c, 0, 49, 80
2, 100412, Note_off_c, 0, 56, 100
2, 100416, Note_on_c, 0, 52, 80
2, 100508, Note_off_c, 0, 49, 100
2, 100512, Note_on_c, 0, 56, 80
2, 100604, Note_off_c, 0, 52, 100
2, 100608, Note_on_c, 0, 61, 80
2, 100700, Note_off_c, 0, 56, 100
2, 100704, Note_on_c, 0, 52, 80
2, 100796, Note_off_c, 0, 61, 100
2, 100800, Note_on_c, 0, 56, 80
2, 100892, Note_off_c, 0, 52, 100
2, 100896, Note_on_c, 0, 61, 80
2, 100988, Note_off_c, 0, 56, 100
2, 100992, Note_on_c, 0, 64, 80
2, 101084, Note_off_c, 0, 61, 100
2, 101088, Note_on_c, 0, 56, 80
2, 101180, Note_off_c, 0, 64, 100
2, 101184, Note_on_c, 0, 61, 80
2, 101276, Note_off_c, 0, 56, 100
2, 101280, Note_on_c, 0, 64, 80
2, 101372, Note_off_c, 0, 61, 100
2, 101376, Note_on_c, 0, 68, 80
2, 101468, Note_off_c, 0, 64, 100
2, 101472, Note_on_c, 0, 61, 80
2, 101564, Note_off_c, 0, 68, 100
2, 101568, Note_on_c, 0, 64, 80
2, 101660, Note_off_c, 0, 61, 100
2, 101664, Note_on_c, 0, 68, 80
2, 101756, Note_off_c, 0, 64, 100
2, 101760, Note_on_c, 0, 73, 80
2, 101852, Note_off_c, 0, 68, 100
2, 101856, Note_on_c, 0, 64, 80
2, 101948, Note_off_c, 0, 73, 100
2, 101952, Note_on_c, 0, 68, 80
2, 102044, Note_off_c, 0, 64, 100
2, 102048, Note_on_c, 0, 73, 80
2, 102140, Note_off_c, 0, 68, 100
2, 102144, Note_on_c, 0, 76, 80
2, 102236, Note_off_c, 0, 73, 100
2, 102240, Note_on_c, 0, 68, 80
2, 102332, Note_off_c, 0, 76, 100
2, 102336, Note_on_c, 0, 73, 80
2, 102428, Note_off_c, 0, 68, 100
2, 102432, Note_on_c, 0, 76, 80
2, 102524, Note_off_c, 0, 73, 100
2, 102524, Note_off_c, 0, 76, 100
2, 102528, Control_c, 0, 64, 127
2, 102528, Note_on_c, 0, 68, 110
2, 102528, Note_on_c, 0, 73, 110
2, 102528, Note_on_c, 0, 76, 110
2, 102528, Note_on_c, 0, 80, 110
2, 102716, Note_off_c, 0, 68, 100
2, 102716, Note_off_c, 0, 73, 100
2, 102716, Note_off_c, 0, 76, 100
2, 102716, Note_off_c, 0, 80, 100
2, 102720, Note_on_c, 0, 80, 110
2, 102720, Note_on_c, 0, 76, 110
2, 102720, Note_on_c, 0, 73, 110
2, 102720, Note_on_c, 0, 68, 110
2, 102904, Control_c, 0, 64, 0
2, 102908, Note_off_c, 0, 80, 100
2, 102908, Note_off_c, 0, 76, 100
2, 102908, Note_off_c, 0, 73, 100
2, 102908, Note_off_c, 0, 68, 100
2, 103008, Note_on_c, 0, 44, 80
2, 103104, Note_on_c, 0, 48, 80
2, 103196, Note_off_c, 0, 44, 100
2, 103200, Note_on_c, 0, 51, 80
2, 103292, Note_off_c, 0, 48, 100
2, 103296, Note_on_c, 0, 56, 80
2, 103388, Note_off_c, 0, 51, 100
2, 103392, Note_on_c, 0, 48, 80
2, 103484, Note_off_c, 0, 56, 100
2, 103488, Note_on_c, 0, 51, 80
2, 103580, Note_off_c, 0, 48, 100
2, 103584, Note_on_c, 0, 56, 80
2, 103676, Note_off_c, 0, 51, 100
2, 103680, Note_on_c, 0, 60, 80
2, 103772, Note_off_c, 0, 56, 100
2, 103776, Note_on_c, 0, 51, 80
2, 103868, Note_off_c, 0, 60, 100
2, 103872, Note_on_c, 0, 56, 80
2, 103964, Note_off_c, 0, 51, 100
2, 103968, Note_on_c, 0, 60, 80
2, 104060, Note_off_c, 0, 56, 100
2, 104064, Note_on_c, 0, 63, 80
2, 104156, Note_off_c, 0, 60, 100
2, 104160, Note_on_c, 0, 56, 80
2, 104252, Note_off_c, 0, 63, 100
2, 104256, Note_on_c, 0, 60, 80
2, 104348, Note_off_c, 0, 56, 100
2, 104352, Note_on_c, 0, 63, 80
2, 104444, Note_off_c, 0, 60, 100
2, 104448, Note_on_c, 0, 68, 80
2, 104540, Note_off_c, 0, 63, 100
2, 104544, Note_on_c, 0, 60, 80
2, 104636, Note_off_c, 0, 68, 100
2, 104640, Note_on_c, 0, 63, 80
2, 104732, Note_off_c, 0, 60, 100
2, 104736, Note_on_c, 0, 68, 80
2, 104828, Note_off_c, 0, 63, 100
2, 104832, Note_on_c, 0, 72, 80
2, 104924, Note_off_c, 0, 68, 100
2, 104928, Note_on_c, 0, 63, 80
2, 105020, Note_off_c, 0, 72, 100
2, 105024, Note_on_c, 0, 68, 80
2, 105116, Note_off_c, 0, 63, 100
2, 105120, Note_on_c, 0, 72, 80
2, 105212, Note_off_c, 0, 68, 100
2, 105216, Note_on_c, 0, 75, 80
2, 105308, Note_off_c, 0, 72, 100
2, 105312, Note_on_c, 0, 68, 80
2, 105404, Note_off_c, 0, 75, 100
2, 105408, Note_on_c, 0, 72, 80
2, 105500, Note_off_c, 0, 68, 100
2, 105504, Note_on_c, 0, 75, 80
2, 105596, Note_off_c, 0, 72, 100
2, 105596, Note_off_c, 0, 75, 100
2, 105600, Control_c, 0, 64, 127
2, 105600, Note_on_c, 0, 68, 110
2, 105600, Note_on_c, 0, 72, 110
2, 105600, Note_on_c, 0, 75, 110
2, 105600, Note_on_c, 0, 80, 110
2, 105788, Note_off_c, 0, 68, 100
2, 105788, Note_off_c, 0, 72, 100
2, 105788, Note_off_c, 0, 75, 100
2, 105788, Note_off_c, 0, 80, 100
2, 105792, Note_on_c, 0, 68, 110
2, 105792, Note_on_c, 0, 72, 110
2, 105792, Note_on_c, 0, 75, 110
2, 105792, Note_on_c, 0, 80, 110
2, 105976, Control_c, 0, 64, 0
2, 105980, Note_off_c, 0, 68, 100
2, 105980, Note_off_c, 0, 72, 100
2, 105980, Note_off_c, 0, 75, 100
2, 105980, Note_off_c, 0, 80, 100
2, 106080, Note_on_c, 0, 49, 80
2, 106176, Note_on_c, 0, 53, 80
2, 106268, Note_off_c, 0, 49, 100
2, 106272, Note_on_c, 0, 56, 80
2, 106364, Note_off_c, 0, 53, 100
2, 106368, Note_on_c, 0, 61, 80
2, 106460, Note_off_c, 0, 56, 100
2, 106464, Note_on_c, 0, 53, 80
2, 106556, Note_off_c, 0, 61, 100
2, 106560, Note_on_c, 0, 56, 80
2, 106652, Note_off_c, 0, 53, 100
2, 106656, Note_on_c, 0, 61, 80
2, 106748, Note_off_c, 0, 56, 100
2, 106752, Note_on_c, 0, 65, 80
2, 106844, Note_off_c, 0, 61, 100
2, 106848, Note_on_c, 0, 56, 80
2, 106940, Note_off_c, 0, 65, 100
2, 106944, Note_on_c, 0, 61, 80
2, 107036, Note_off_c, 0, 56, 100
2, 107040, Note_on_c, 0, 65, 80
2, 107132, Note_off_c, 0, 61, 100
2, 107136, Note_on_c, 0, 68, 80
2, 107228, Note_off_c, 0, 65, 100
2, 107232, Note_on_c, 0, 61, 80
2, 107324, Note_off_c, 0, 68, 100
2, 107328, Note_on_c, 0, 65, 80
2, 107420, Note_off_c, 0, 61, 100
2, 107424, Note_on_c, 0, 68, 80
2, 107516, Note_off_c, 0, 65, 100
2, 107520, Note_on_c, 0, 73, 80
2, 107612, Note_off_c, 0, 68, 100
2, 107616, Note_on_c, 0, 65, 80
2, 107708, Note_off_c, 0, 73, 100
2, 107712, Note_on_c, 0, 68, 80
2, 107804, Note_off_c, 0, 65, 100
2, 107808, Note_on_c, 0, 73, 80
2, 107900, Note_off_c, 0, 68, 100
2, 107904, Note_on_c, 0, 77, 80
2, 107996, Note_off_c, 0, 73, 100
2, 108000, Note_on_c, 0, 68, 80
2, 108092, Note_off_c, 0, 77, 100
2, 108096, Note_on_c, 0, 73, 80
2, 108188, Note_off_c, 0, 68, 100
2, 108192, Note_on_c, 0, 77, 80
2, 108284, Note_off_c, 0, 73, 100
2, 108288, Note_on_c, 0, 80, 80
2, 108380, Note_off_c, 0, 77, 100
2, 108384, Note_on_c, 0, 73, 80
2, 108476, Note_off_c, 0, 80, 100
2, 108480, Note_on_c, 0, 77, 80
2, 108572, Note_off_c, 0, 73, 100
2, 108576, Note_on_c, 0, 80, 80
2, 108668, Note_off_c, 0, 77, 100
2, 108668, Note_off_c, 0, 80, 100
2, 108672, Control_c, 0, 64, 127
2, 108672, Note_on_c, 0, 73, 110
2, 108672, Note_on_c, 0, 77, 110
2, 108672, Note_on_c, 0, 80, 110
2, 108672, Note_on_c, 0, 85, 110
2, 108860, Note_off_c, 0, 73, 100
2, 108860, Note_off_c, 0, 77, 100
2, 108860, Note_off_c, 0, 80, 100
2, 108860, Note_off_c, 0, 85, 100
2, 108864, Note_on_c, 0, 85, 110
2, 108864, Note_on_c, 0, 80, 110
2, 108864, Note_on_c, 0, 77, 110
2, 108864, Note_on_c, 0, 73, 110
2, 109048, Control_c, 0, 64, 0
2, 109052, Note_off_c, 0, 85, 100
2, 109052, Note_off_c, 0, 80, 100
2, 109052, Note_off_c, 0, 77, 100
2, 109052, Note_off_c, 0, 73, 100
2, 109152, Note_on_c, 0, 49, 90
2, 109248, Note_on_c, 0, 54, 90
2, 109340, Note_off_c, 0, 49, 100
2, 109344, Note_on_c, 0, 57, 90
2, 109436, Note_off_c, 0, 54, 100
2, 109440, Note_on_c, 0, 61, 90
2, 109532, Note_off_c, 0, 57, 100
2, 109532, Note_off_c, 0, 61, 100
2, 109536, Note_on_c, 0, 61, 90
2, 109632, Note_on_c, 0, 66, 90
2, 109724, Note_off_c, 0, 61, 100
2, 109728, Note_on_c, 0, 69, 90
2, 109820, Note_off_c, 0, 66, 100
2, 109824, Note_on_c, 0, 73, 90
2, 109916, Note_off_c, 0, 69, 100
2, 109916, Note_off_c, 0, 73, 100
2, 109920, Note_on_c, 0, 73, 90
2, 110016, Note_on_c, 0, 78, 90
2, 110108, Note_off_c, 0, 73, 100
2, 110112, Note_on_c, 0, 81, 90
2, 110204, Note_off_c, 0, 78, 100
2, 110208, Control_c, 0, 64, 127
2, 110208, Note_on_c, 0, 85, 110
2, 110208, Note_on_c, 0, 73, 110
2, 110208, Note_on_c, 0, 78, 110
2, 110300, Note_off_c, 0, 81, 100
2, 110396, Note_off_c, 0, 85, 100
2, 110396, Note_off_c, 0, 73, 100
2, 110396, Note_off_c, 0, 78, 100
2, 110400, Note_on_c, 0, 78, 110
2, 110400, Note_on_c, 0, 85, 110
2, 110400, Note_on_c, 0, 73, 110
2, 110584, Control_c, 0, 64, 0
2, 110588, Note_off_c, 0, 78, 100
2, 110588, Note_off_c, 0, 85, 100
2, 110588, Note_off_c, 0, 73, 100
2, 110688, Note_on_c, 0, 49, 90
2, 110784, Note_on_c, 0, 52, 90
2, 110876, Note_off_c, 0, 49, 100
2, 110880, Note_on_c, 0, 55, 90
2, 110972, Note_off_c, 0, 52, 100
2, 110976, Note_on_c, 0, 61, 90
2, 111068, Note_off_c, 0, 55, 100
2, 111068, Note_off_c, 0, 61, 100
2, 111072, Note_on_c, 0, 61, 90
2, 111168, Note_on_c, 0, 64, 90
2, 111260, Note_off_c, 0, 61, 100
2, 111264, Note_on_c, 0, 67, 90
2, 111356, Note_off_c, 0, 64, 100
2, 111360, Note_on_c, 0, 73, 90
2, 111452, Note_off_c, 0, 67, 100
2, 111452, Note_off_c, 0, 73, 100
2, 111456, Note_on_c, 0, 73, 90
2, 111552, Note_on_c, 0, 76, 90
2, 111644, Note_off_c, 0, 73, 100
2, 111648, Note_on_c, 0, 79, 90
2, 111740, Note_off_c, 0, 76, 100
2, 111740, Note_off_c, 0, 79, 100
2, 111744, Control_c, 0, 64, 127
2, 111744, Note_on_c, 0, 73, 110
2, 111744, Note_on_c, 0, 85, 110
2, 111744, Note_on_c, 0, 79, 110
2, 111932, Note_off_c, 0, 73, 100
2, 111932, Note_off_c, 0, 85, 100
2, 111932, Note_off_c, 0, 79, 100
2, 111936, Note_on_c, 0, 73, 110
2, 111936, Note_on_c, 0, 85, 110
2, 111936, Note_on_c, 0, 79, 110
2, 112120, Control_c, 0, 64, 0
2, 112124, Note_off_c, 0, 73, 100
2, 112124, Note_off_c, 0, 85, 100
2, 112124, Note_off_c, 0, 79, 100
2, 112128, Note_on_c, 0, 72, 110
2, 112128, Note_on_c, 0, 84, 110
2, 112128, Note_on_c, 0, 80, 110
2, 112316, Note_off_c, 0, 72, 100
2, 112316, Note_off_c, 0, 84, 100
2, 112316, Note_off_c, 0, 80, 100
2, 112320, Note_on_c, 0, 68, 110
2, 112416, Note_on_c, 0, 80, 110
2, 112508, Note_off_c, 0, 68, 100
2, 112512, Note_on_c, 0, 68, 110
2, 112604, Note_off_c, 0, 80, 100
2, 112608, Note_on_c, 0, 80, 110
2, 112700, Note_off_c, 0, 68, 100
2, 112704, Note_on_c, 0, 70, 110
2, 112796, Note_off_c, 0, 80, 100
2, 112800, Note_on_c, 0, 80, 110
2, 112892, Note_off_c, 0, 70, 100
2, 112896, Note_on_c, 0, 72, 110
2, 112988, Note_off_c, 0, 80, 100
2, 112992, Note_on_c, 0, 80, 110
2, 113084, Note_off_c, 0, 72, 100
2, 113088, Note_on_c, 0, 73, 110
2, 113180, Note_off_c, 0, 80, 100
2, 113184, Note_on_c, 0, 80, 110
2, 113276, Note_off_c, 0, 73, 100
2, 113280, Note_on_c, 0, 75, 110
2, 113372, Note_off_c, 0, 80, 100
2, 113376, Note_on_c, 0, 80, 110
2, 113468, Note_off_c, 0, 75, 100
2, 113472, Note_on_c, 0, 72, 110
2, 113564, Note_off_c, 0, 80, 100
2, 113568, Note_on_c, 0, 80, 110
2, 113660, Note_off_c, 0, 72, 100
2, 113664, Note_on_c, 0, 75, 110
2, 113756, Note_off_c, 0, 80, 100
2, 113760, Note_on_c, 0, 80, 110
2, 113852, Note_off_c, 0, 75, 100
2, 113856, Note_on_c, 0, 73, 110
2, 113948, Note_off_c, 0, 80, 100
2, 113952, Note_on_c, 0, 80, 110
2, 114044, Note_off_c, 0, 73, 100
2, 114048, Note_on_c, 0, 78, 110
2, 114140, Note_off_c, 0, 80, 100
2, 114144, Note_on_c, 0, 80, 110
2, 114236, Note_off_c, 0, 78, 100
2, 114240, Note_on_c, 0, 76, 110
2, 114332, Note_off_c, 0, 80, 100
2, 114336, Note_on_c, 0, 80, 110
2, 114428, Note_off_c, 0, 76, 100
2, 114432, Note_on_c, 0, 75, 110
2, 114524, Note_off_c, 0, 80, 100
2, 114528, Note_on_c, 0, 80, 110
2, 114620, Note_off_c, 0, 75, 100
2, 114624, Note_on_c, 0, 73, 110
2, 114716, Note_off_c, 0, 80, 100
2, 114720, Note_on_c, 0, 80, 110
2, 114812, Note_off_c, 0, 73, 100
2, 114816, Note_on_c, 0, 72, 110
2, 114908, Note_off_c, 0, 80, 100
2, 114912, Note_on_c, 0, 80, 110
2, 115004, Note_off_c, 0, 72, 100
2, 115008, Note_on_c, 0, 69, 110
2, 115100, Note_off_c, 0, 80, 100
2, 115104, Note_on_c, 0, 79, 110
2, 115196, Note_off_c, 0, 69, 100
2, 115196, Note_off_c, 0, 79, 100
2, 115200, Note_on_c, 0, 68, 110
2, 115296, Note_on_c, 0, 80, 110
2, 115388, Note_off_c, 0, 68, 100
2, 115392, Note_on_c, 0, 68, 110
2, 115484, Note_off_c, 0, 80, 100
2, 115488, Note_on_c, 0, 80, 110
2, 115580, Note_off_c, 0, 68, 100
2, 115584, Note_on_c, 0, 68, 110
2, 115676, Note_off_c, 0, 80, 100
2, 115680, Note_on_c, 0, 80, 110
2, 115772, Note_off_c, 0, 68, 100
2, 115776, Note_on_c, 0, 70, 110
2, 115868, Note_off_c, 0, 80, 100
2, 115872, Note_on_c, 0, 80, 110
2, 115964, Note_off_c, 0, 70, 100
2, 115968, Note_on_c, 0, 72, 110
2, 116060, Note_off_c, 0, 80, 100
2, 116064, Note_on_c, 0, 80, 110
2, 116156, Note_off_c, 0, 72, 100
2, 116160, Note_on_c, 0, 73, 110
2, 116252, Note_off_c, 0, 80, 100
2, 116256, Note_on_c, 0, 80, 110
2, 116348, Note_off_c, 0, 73, 100
2, 116352, Note_on_c, 0, 75, 110
2, 116444, Note_off_c, 0, 80, 100
2, 116448, Note_on_c, 0, 80, 110
2, 116540, Note_off_c, 0, 75, 100
2, 116544, Note_on_c, 0, 72, 110
2, 116636, Note_off_c, 0, 80, 100
2, 116640, Note_on_c, 0, 80, 110
2, 116732, Note_off_c, 0, 72, 100
2, 116736, Note_on_c, 0, 75, 110
2, 116828, Note_off_c, 0, 80, 100
2, 116832, Note_on_c, 0, 80, 110
2, 116924, Note_off_c, 0, 75, 100
2, 116928, Note_on_c, 0, 73, 110
2, 117020, Note_off_c, 0, 80, 100
2, 117024, Note_on_c, 0, 80, 110
2, 117116, Note_off_c, 0, 73, 100
2, 117120, Note_on_c, 0, 78, 110
2, 117212, Note_off_c, 0, 80, 100
2, 117216, Note_on_c, 0, 80, 110
2, 117308, Note_off_c, 0, 78, 100
2, 117312, Note_on_c, 0, 76, 110
2, 117404, Note_off_c, 0, 80, 100
2, 117408, Note_on_c, 0, 80, 110
2, 117500, Note_off_c, 0, 76, 100
2, 117504, Note_on_c, 0, 75, 110
2, 117596, Note_off_c, 0, 80, 100
2, 117600, Note_on_c, 0, 80, 110
2, 117692, Note_off_c, 0, 75, 100
2, 117696, Note_on_c, 0, 73, 110
2, 117788, Note_off_c, 0, 80, 100
2, 117792, Note_on_c, 0, 80, 110
2, 117884, Note_off_c, 0, 73, 100
2, 117888, Note_on_c, 0, 72, 110
2, 117980, Note_off_c, 0, 80, 100
2, 117984, Note_on_c, 0, 80, 110
2, 118076, Note_off_c, 0, 72, 100
2, 118080, Note_on_c, 0, 69, 110
2, 118172, Note_off_c, 0, 80, 100
2, 118176, Note_on_c, 0, 79, 110
2, 118268, Note_off_c, 0, 69, 100
2, 118268, Note_off_c, 0, 79, 100
2, 118272, Note_on_c, 0, 68, 110
2, 118368, Note_on_c, 0, 80, 110
2, 118460, Note_off_c, 0, 68, 100
2, 118464, Note_on_c, 0, 69, 110
2, 118556, Note_off_c, 0, 80, 100
2, 118560, Note_on_c, 0, 79, 110
2, 118652, Note_off_c, 0, 69, 100
2, 118656, Note_on_c, 0, 68, 110
2, 118748, Note_off_c, 0, 79, 100
2, 118752, Note_on_c, 0, 80, 110
2, 118844, Note_off_c, 0, 68, 100
2, 118848, Note_on_c, 0, 69, 110
2, 118940, Note_off_c, 0, 80, 100
2, 118944, Note_on_c, 0, 79, 110
2, 119036, Note_off_c, 0, 69, 100
2, 119040, Note_on_c, 0, 68, 110
2, 119132, Note_off_c, 0, 79, 100
2, 119136, Note_on_c, 0, 80, 110
2, 119228, Note_off_c, 0, 68, 100
2, 119232, Note_on_c, 0, 69, 110
2, 119324, Note_off_c, 0, 80, 100
2, 119328, Note_on_c, 0, 79, 110
2, 119420, Note_off_c, 0, 69, 100
2, 119424, Note_on_c, 0, 68, 110
2, 119516, Note_off_c, 0, 79, 100
2, 119520, Note_on_c, 0, 80, 110
2, 119612, Note_off_c, 0, 68, 100
2, 119616, Note_on_c, 0, 69, 110
2, 119708, Note_off_c, 0, 80, 100
2, 119712, Note_on_c, 0, 79, 110
2, 119804, Note_off_c, 0, 69, 100
2, 119804, Note_off_c, 0, 79, 100
2, 119808, Note_on_c, 0, 68, 110
2, 119808, Note_on_c, 0, 80, 110
2, 120188, Note_off_c, 0, 68, 100
2, 120188, Note_off_c, 0, 80, 100
2, 120192, Note_on_c, 0, 56, 110
2, 122876, Note_off_c, 0, 56, 100
2, 122976, Note_on_c, 0, 44, 80
2, 123072, Note_on_c, 0, 49, 80
2, 123164, Note_off_c, 0, 44, 100
2, 123168, Note_on_c, 0, 52, 80
2, 123260, Note_off_c, 0, 49, 100
2, 123264, Note_on_c, 0, 56, 80
2, 123356, Note_off_c, 0, 52, 100
2, 123360, Note_on_c, 0, 49, 80
2, 123452, Note_off_c, 0, 56, 100
2, 123456, Note_on_c, 0, 52, 80
2, 123548, Note_off_c, 0, 49, 100
2, 123552, Note_on_c, 0, 56, 80
2, 123644, Note_off_c, 0, 52, 100
2, 123648, Note_on_c, 0, 61, 80
2, 123740, Note_off_c, 0, 56, 100
2, 123744, Note_on_c, 0, 52, 80
2, 123836, Note_off_c, 0, 61, 100
2, 123840, Note_on_c, 0, 56, 80
2, 123932, Note_off_c, 0, 52, 100
2, 123936, Note_on_c, 0, 61, 80
2, 124028, Note_off_c, 0, 56, 100
2, 124032, Note_on_c, 0, 64, 80
2, 124124, Note_off_c, 0, 61, 100
2, 124128, Note_on_c, 0, 56, 80
2, 124220, Note_off_c, 0, 64, 100
2, 124224, Note_on_c, 0, 61, 80
2, 124316, Note_off_c, 0, 56, 100
2, 124320, Note_on_c, 0, 64, 80
2, 124412, Note_off_c, 0, 61, 100
2, 124416, Note_on_c, 0, 68, 80
2, 124508, Note_off_c, 0, 64, 100
2, 124512, Note_on_c, 0, 61, 80
2, 124604, Note_off_c, 0, 68, 100
2, 124608, Note_on_c, 0, 64, 80
2, 124700, Note_off_c, 0, 61, 100
2, 124704, Note_on_c, 0, 68, 80
2, 124796, Note_off_c, 0, 64, 100
2, 124800, Note_on_c, 0, 73, 80
2, 124892, Note_off_c, 0, 68, 100
2, 124896, Note_on_c, 0, 64, 80
2, 124988, Note_off_c, 0, 73, 100
2, 124992, Note_on_c, 0, 68, 80
2, 125084, Note_off_c, 0, 64, 100
2, 125088, Note_on_c, 0, 73, 80
2, 125180, Note_off_c, 0, 68, 100
2, 125184, Note_on_c, 0, 76, 80
2, 125276, Note_off_c, 0, 73, 100
2, 125276, Note_off_c, 0, 76, 100
2, 125280, Note_on_c, 0, 76, 80
2, 125376, Note_on_c, 0, 80, 80
2, 125468, Note_off_c, 0, 76, 100
2, 125472, Note_on_c, 0, 85, 80
2, 125564, Note_off_c, 0, 80, 100
2, 125568, Control_c, 0, 64, 127
2, 125568, Note_on_c, 0, 88, 110
2, 125568, Note_on_c, 0, 76, 110
2, 125660, Note_off_c, 0, 85, 100
2, 125756, Note_off_c, 0, 88, 100
2, 125756, Note_off_c, 0, 76, 100
2, 125760, Note_on_c, 0, 76, 100
2, 125760, Note_on_c, 0, 88, 100
2, 125944, Control_c, 0, 64, 0
2, 125948, Note_off_c, 0, 76, 100
2, 125948, Note_off_c, 0, 88, 100
2, 126048, Note_on_c, 0, 52, 80
2, 126144, Note_on_c, 0, 55, 80
2, 126236, Note_off_c, 0, 52, 100
2, 126240, Note_on_c, 0, 61, 80
2, 126332, Note_off_c, 0, 55, 100
2, 126336, Note_on_c, 0, 64, 80
2, 126428, Note_off_c, 0, 61, 100
2, 126432, Note_on_c, 0, 55, 80
2, 126524, Note_off_c, 0, 64, 100
2, 126528, Note_on_c, 0, 61, 80
2, 126620, Note_off_c, 0, 55, 100
2, 126624, Note_on_c, 0, 64, 80
2, 126716, Note_off_c, 0, 61, 100
2, 126720, Note_on_c, 0, 67, 80
2, 126812, Note_off_c, 0, 64, 100
2, 126816, Note_on_c, 0, 61, 80
2, 126908, Note_off_c, 0, 67, 100
2, 126912, Note_on_c, 0, 64, 80
2, 127004, Note_off_c, 0, 61, 100
2, 127008, Note_on_c, 0, 67, 80
2, 127100, Note_off_c, 0, 64, 100
2, 127104, Note_on_c, 0, 73, 80
2, 127196, Note_off_c, 0, 67, 100
2, 127200, Note_on_c, 0, 64, 80
2, 127292, Note_off_c, 0, 73, 100
2, 127296, Note_on_c, 0, 67, 80
2, 127388, Note_off_c, 0, 64, 100
2, 127392, Note_on_c, 0, 73, 80
2, 127484, Note_off_c, 0, 67, 100
2, 127488, Note_on_c, 0, 76, 80
2, 127580, Note_off_c, 0, 73, 100
2, 127584, Note_on_c, 0, 67, 80
2, 127676, Note_off_c, 0, 76, 100
2, 127680, Note_on_c, 0, 73, 80
2, 127772, Note_off_c, 0, 67, 100
2, 127776, Note_on_c, 0, 76, 80
2, 127868, Note_off_c, 0, 73, 100
2, 127872, Note_on_c, 0, 79, 80
2, 127964, Note_off_c, 0, 76, 100
2, 127968, Note_on_c, 0, 73, 80
2, 128060, Note_off_c, 0, 79, 100
2, 128064, Note_on_c, 0, 76, 80
2, 128156, Note_off_c, 0, 73, 100
2, 128160, Note_on_c, 0, 79, 80
2, 128252, Note_off_c, 0, 76, 100
2, 128256, Note_on_c, 0, 85, 80
2, 128348, Note_off_c, 0, 79, 100
2, 128352, Note_on_c, 0, 76, 80
2, 128444, Note_off_c, 0, 85, 100
2, 128448, Note_on_c, 0, 79, 80
2, 128540, Note_off_c, 0, 76, 100
2, 128544, Note_on_c, 0, 85, 80
2, 128636, Note_off_c, 0, 79, 100
2, 128640, Control_c, 0, 64, 127
2, 128640, Note_on_c, 0, 88, 110
2, 128640, Note_on_c, 0, 76, 110
2, 128732, Note_off_c, 0, 85, 100
2, 128828, Note_off_c, 0, 88, 100
2, 128828, Note_off_c, 0, 76, 100
2, 128832, Note_on_c, 0, 88, 100
2, 128832, Note_on_c, 0, 76, 100
2, 129016, Control_c, 0, 64, 0
2, 129020, Note_off_c, 0, 88, 100
2, 129020, Note_off_c, 0, 76, 100
2, 129120, Note_on_c, 0, 51, 90
2, 129216, Note_on_c, 0, 58, 91
2, 129308, Note_off_c, 0, 51, 100
2, 129312, Note_on_c, 0, 61, 91
2, 129404, Note_off_c, 0, 58, 100
2, 129408, Note_on_c, 0, 63, 92
2, 129500, Note_off_c, 0, 61, 100
2, 129504, Note_on_c, 0, 58, 93
2, 129596, Note_off_c, 0, 63, 100
2, 129600, Note_on_c, 0, 61, 93
2, 129692, Note_off_c, 0, 58, 100
2, 129696, Note_on_c, 0, 63, 94
2, 129788, Note_off_c, 0, 61, 100
2, 129792, Note_on_c, 0, 70, 95
2, 129884, Note_off_c, 0, 63, 100
2, 129888, Note_on_c, 0, 61, 95
2, 129980, Note_off_c, 0, 70, 100
2, 129984, Note_on_c, 0, 63, 96
2, 130076, Note_off_c, 0, 61, 100
2, 130080, Note_on_c, 0, 70, 97
2, 130172, Note_off_c, 0, 63, 100
2, 130176, Note_on_c, 0, 73, 97
2, 130268, Note_off_c, 0, 70, 100
2, 130272, Note_on_c, 0, 63, 98
2, 130364, Note_off_c, 0, 73, 100
2, 130368, Note_on_c, 0, 70, 99
2, 130460, Note_off_c, 0, 63, 100
2, 130464, Note_on_c, 0, 73, 99
2, 130556, Note_off_c, 0, 70, 100
2, 130560, Note_on_c, 0, 75, 100
2, 130652, Note_off_c, 0, 73, 100
2, 130656, Note_on_c, 0, 70, 100
2, 130748, Note_off_c, 0, 75, 100
2, 130752, Note_on_c, 0, 73, 101
2, 130844, Note_off_c, 0, 70, 100
2, 130848, Note_on_c, 0, 75, 102
2, 130940, Note_off_c, 0, 73, 100
2, 130944, Note_on_c, 0, 82, 102
2, 131036, Note_off_c, 0, 75, 100
2, 131040, Note_on_c, 0, 73, 103
2, 131132, Note_off_c, 0, 82, 100
2, 131136, Note_on_c, 0, 75, 104
2, 131228, Note_off_c, 0, 73, 100
2, 131232, Note_on_c, 0, 82, 104
2, 131324, Note_off_c, 0, 75, 100
2, 131328, Control_c, 0, 64, 127
2, 131328, Note_on_c, 0, 85, 105
2, 131420, Note_off_c, 0, 82, 100
2, 131424, Note_on_c, 0, 82, 106
2, 131516, Note_off_c, 0, 85, 100
2, 131520, Note_on_c, 0, 75, 106
2, 131612, Note_off_c, 0, 82, 100
2, 131616, Note_on_c, 0, 73, 107
2, 131708, Note_off_c, 0, 75, 100
2, 131712, Note_on_c, 0, 82, 108
2, 131804, Note_off_c, 0, 73, 100
2, 131808, Note_on_c, 0, 75, 108
2, 131900, Note_off_c, 0, 82, 100
2, 131904, Note_on_c, 0, 73, 109
2, 131996, Note_off_c, 0, 75, 100
2, 132000, Note_on_c, 0, 70, 109
2, 132088, Control_c, 0, 64, 0
2, 132092, Note_off_c, 0, 73, 100
2, 132092, Note_off_c, 0, 70, 100
2, 132096, Note_on_c, 0, 71, 90
2, 132476, Note_off_c, 0, 71, 100
2, 132480, Note_on_c, 0, 75, 90
2, 133244, Note_off_c, 0, 75, 100
2, 133248, Note_on_c, 0, 71, 90
2, 133536, Note_on_c, 0, 68, 90
2, 133628, Note_off_c, 0, 71, 100
2, 133628, Note_off_c, 0, 68, 100
2, 133632, Note_on_c, 0, 67, 90
2, 133680, Note_on_c, 0, 68, 90
2, 133724, Note_off_c, 0, 67, 100
2, 133728, Note_on_c, 0, 70, 90
2, 133772, Note_off_c, 0, 68, 100
2, 133776, Note_on_c, 0, 68, 90
2, 133820, Note_off_c, 0, 70, 100
2, 134016, Note_on_c, 0, 67, 90
2, 134156, Note_off_c, 0, 68, 100
2, 134588, Note_off_c, 0, 67, 100
2, 134592, Note_on_c, 0, 67, 90
2, 134780, Note_off_c, 0, 67, 100
2, 134784, Note_on_c, 0, 75, 90
2, 135072, Note_on_c, 0, 67, 90
2, 135164, Note_off_c, 0, 75, 100
2, 135168, Note_on_c, 0, 70, 90
2, 135260, Note_off_c, 0, 67, 100
2, 135548, Note_off_c, 0, 70, 100
2, 135552, Note_on_c, 0, 68, 90
2, 136124, Note_off_c, 0, 68, 100
2, 136128, Note_on_c, 0, 68, 90
2, 136316, Note_off_c, 0, 68, 100
2, 136320, Note_on_c, 0, 75, 90
2, 136608, Note_on_c, 0, 68, 90
2, 136700, Note_off_c, 0, 75, 100
2, 136704, Note_on_c, 0, 71, 90
2, 136796, Note_off_c, 0, 68, 100
2, 137084, Note_off_c, 0, 71, 100
2, 137088, Note_on_c, 0, 70, 90
2, 137660, Note_off_c, 0, 70, 100
2, 137664, Note_on_c, 0, 70, 90
2, 137852, Note_off_c, 0, 70, 100
2, 137856, Note_on_c, 0, 75, 90
2, 138144, Note_on_c, 0, 70, 90
2, 138236, Note_off_c, 0, 75, 100
2, 138240, Note_on_c, 0, 71, 90
2, 138332, Note_off_c, 0, 70, 100
2, 138428, Note_off_c, 0, 71, 100
2, 138432, Note_on_c, 0, 87, 90
2, 138432, Note_on_c, 0, 75, 90
2, 138812, Note_off_c, 0, 87, 100
2, 138812, Note_off_c, 0, 75, 100
2, 138816, Note_on_c, 0, 87, 92
2, 138816, Note_on_c, 0, 75, 92
2, 139196, Note_off_c, 0, 87, 100
2, 139196, Note_off_c, 0, 75, 100
2, 139200, Note_on_c, 0, 87, 94
2, 139200, Note_on_c, 0, 75, 94
2, 139388, Note_off_c, 0, 87, 100
2, 139388, Note_off_c, 0, 75, 100
2, 139392, Note_on_c, 0, 83, 94
2, 139392, Note_on_c, 0, 71, 94
2, 139580, Note_off_c, 0, 83, 100
2, 139580, Note_off_c, 0, 71, 100
2, 139584, Note_on_c, 0, 80, 95
2, 139584, Note_on_c, 0, 68, 95
2, 139772, Note_off_c, 0, 80, 100
2, 139772, Note_off_c, 0, 68, 100
2, 139776, Note_on_c, 0, 80, 96
2, 139776, Note_on_c, 0, 68, 96
2, 139964, Note_off_c, 0, 80, 100
2, 139964, Note_off_c, 0, 68, 100
2, 139968, Note_on_c, 0, 79, 97
2, 139968, Note_on_c, 0, 67, 97
2, 140348, Note_off_c, 0, 79, 100
2, 140348, Note_off_c, 0, 67, 100
2, 140352, Note_on_c, 0, 79, 98
2, 140352, Note_on_c, 0, 67, 98
2, 140732, Note_off_c, 0, 79, 100
2, 140732, Note_off_c, 0, 67, 100
2, 140736, Note_on_c, 0, 79, 100
2, 140736, Note_on_c, 0, 67, 100
2, 140924, Note_off_c, 0, 79, 100
2, 140924, Note_off_c, 0, 67, 100
2, 140928, Note_on_c, 0, 87, 101
2, 140928, Note_on_c, 0, 75, 101
2, 141116, Note_off_c, 0, 87, 100
2, 141116, Note_off_c, 0, 75, 100
2, 141120, Note_on_c, 0, 79, 102
2, 141120, Note_on_c, 0, 67, 102
2, 141308, Note_off_c, 0, 79, 100
2, 141308, Note_off_c, 0, 67, 100
2, 141312, Note_on_c, 0, 82, 102
2, 141312, Note_on_c, 0, 70, 102
2, 141500, Note_off_c, 0, 82, 100
2, 141500, Note_off_c, 0, 70, 100
2, 141504, Note_on_c, 0, 68, 103
2, 141504, Note_on_c, 0, 80, 103
2, 141884, Note_off_c, 0, 68, 100
2, 141884, Note_off_c, 0, 80, 100
2, 141888, Note_on_c, 0, 80, 105
2, 141888, Note_on_c, 0, 68, 105
2, 142268, Note_off_c, 0, 80, 100
2, 142268, Note_off_c, 0, 68, 100
2, 142272, Note_on_c, 0, 80, 106
2, 142272, Note_on_c, 0, 68, 106
2, 142460, Note_off_c, 0, 80, 100
2, 142460, Note_off_c, 0, 68, 100
2, 142464, Note_on_c, 0, 87, 107
2, 142464, Note_on_c, 0, 75, 107
2, 142652, Note_off_c, 0, 87, 100
2, 142652, Note_off_c, 0, 75, 100
2, 142656, Note_on_c, 0, 68, 108
2, 142656, Note_on_c, 0, 80, 108
2, 142844, Note_off_c, 0, 68, 100
2, 142844, Note_off_c, 0, 80, 100
2, 142848, Note_on_c, 0, 83, 109
2, 142848, Note_on_c, 0, 71, 109
2, 143036, Note_off_c, 0, 83, 100
2, 143036, Note_off_c, 0, 71, 100
2, 143040, Note_on_c, 0, 70, 110
2, 143040, Note_on_c, 0, 82, 110
2, 143420, Note_off_c, 0, 70, 100
2, 143420, Note_off_c, 0, 82, 100
2, 143424, Note_on_c, 0, 82, 111
2, 143424, Note_on_c, 0, 70, 111
2, 143804, Note_off_c, 0, 82, 100
2, 143804, Note_off_c, 0, 70, 100
2, 143808, Note_on_c, 0, 82, 113
2, 143808, Note_on_c, 0, 70, 113
2, 143996, Note_off_c, 0, 82, 100
2, 143996, Note_off_c, 0, 70, 100
2, 144000, Note_on_c, 0, 87, 114
2, 144000, Note_on_c, 0, 75, 114
2, 144188, Note_off_c, 0, 87, 100
2, 144188, Note_off_c, 0, 75, 100
2, 144192, Note_on_c, 0, 82, 114
2, 144192, Note_on_c, 0, 70, 114
2, 144380, Note_off_c, 0, 82, 100
2, 144380, Note_off_c, 0, 70, 100
2, 144384, Note_on_c, 0, 84, 110
2, 144384, Note_on_c, 0, 72, 110
2, 145148, Note_off_c, 0, 84, 100
2, 145148, Note_off_c, 0, 72, 100
2, 145152, Note_on_c, 0, 85, 110
2, 145152, Note_on_c, 0, 73, 110
2, 145916, Note_off_c, 0, 85, 100
2, 145916, Note_off_c, 0, 73, 100
2, 145920, Note_on_c, 0, 70, 110
2, 145920, Note_on_c, 0, 83, 110
2, 145984, Note_on_c, 0, 82, 110
2, 146044, Note_off_c, 0, 83, 100
2, 146048, Note_on_c, 0, 83, 110
2, 146108, Note_off_c, 0, 82, 100
2, 146112, Note_on_c, 0, 82, 110
2, 146172, Note_off_c, 0, 83, 100
2, 146176, Note_on_c, 0, 80, 110
2, 146236, Note_off_c, 0, 82, 100
2, 146240, Note_on_c, 0, 82, 110
2, 146300, Note_off_c, 0, 70, 100
2, 146300, Note_off_c, 0, 80, 100
2, 146304, Note_on_c, 0, 71, 110
2, 146304, Note_on_c, 0, 83, 110
2, 146364, Note_off_c, 0, 82, 100
2, 147452, Note_off_c, 0, 71, 100
2, 147452, Note_off_c, 0, 83, 100
2, 147456, Note_on_c, 0, 68, 110
2, 147456, Note_on_c, 0, 80, 110
2, 148220, Note_off_c, 0, 68, 100
2, 148220, Note_off_c, 0, 80, 100
2, 148224, Note_on_c, 0, 81, 110
2, 148224, Note_on_c, 0, 69, 110
2, 148988, Note_off_c, 0, 81, 100
2, 148988, Note_off_c, 0, 69, 100
2, 148992, Note_on_c, 0, 67, 110
2, 148992, Note_on_c, 0, 80, 110
2, 149056, Note_on_c, 0, 79, 110
2, 149116, Note_off_c, 0, 80, 100
2, 149120, Note_on_c, 0, 80, 110
2, 149180, Note_off_c, 0, 79, 100
2, 149184, Note_on_c, 0, 79, 110
2, 149244, Note_off_c, 0, 80, 100
2, 149248, Note_on_c, 0, 77, 110
2, 149308, Note_off_c, 0, 79, 100
2, 149312, Note_on_c, 0, 79, 110
2, 149372, Note_off_c, 0, 67, 100
2, 149372, Note_off_c, 0, 77, 100
2, 149376, Note_on_c, 0, 68, 110
2, 149376, Note_on_c, 0, 80, 110
2, 149436, Note_off_c, 0, 79, 100
2, 150524, Note_off_c, 0, 68, 100
2, 150524, Note_off_c, 0, 80, 100
2, 150528, Note_on_c, 0, 76, 120
2, 150528, Note_on_c, 0, 69, 120
2, 150528, Note_on_c, 0, 73, 120
2, 150528, Note_on_c, 0, 81, 120
2, 151388, Note_off_c, 0, 76, 100
2, 151392, Note_on_c, 0, 76, 80
2, 151488, Note_on_c, 0, 78, 80
2, 151580, Note_off_c, 0, 76, 100
2, 151584, Note_on_c, 0, 80, 80
2, 151676, Note_off_c, 0, 69, 100
2, 151676, Note_off_c, 0, 73, 100
2, 151676, Note_off_c, 0, 81, 100
2, 151676, Note_off_c, 0, 78, 100
2, 151680, Note_on_c, 0, 81, 80
2, 151772, Note_off_c, 0, 80, 100
2, 151776, Note_on_c, 0, 83, 80
2, 151868, Note_off_c, 0, 81, 100
2, 151872, Note_on_c, 0, 85, 80
2, 151964, Note_off_c, 0, 83, 100
2, 151968, Note_on_c, 0, 83, 80
2, 152060, Note_off_c, 0, 85, 100
2, 152064, Note_on_c, 0, 81, 80
2, 152156, Note_off_c, 0, 83, 100
2, 152160, Note_on_c, 0, 76, 80
2, 152252, Note_off_c, 0, 81, 100
2, 152256, Note_on_c, 0, 78, 80
2, 152348, Note_off_c, 0, 76, 100
2, 152352, Note_on_c, 0, 80, 80
2, 152444, Note_off_c, 0, 78, 100
2, 152448, Note_on_c, 0, 81, 80
2, 152540, Note_off_c, 0, 80, 100
2, 152544, Note_on_c, 0, 83, 80
2, 152636, Note_off_c, 0, 81, 100
2, 152640, Note_on_c, 0, 85, 80
2, 152732, Note_off_c, 0, 83, 100
2, 152736, Note_on_c, 0, 83, 80
2, 152828, Note_off_c, 0, 85, 100
2, 152832, Note_on_c, 0, 81, 80
2, 152924, Note_off_c, 0, 83, 100
2, 152928, Note_on_c, 0, 76, 80
2, 153020, Note_off_c, 0, 81, 100
2, 153024, Note_on_c, 0, 78, 80
2, 153116, Note_off_c, 0, 76, 100
2, 153120, Note_on_c, 0, 80, 80
2, 153212, Note_off_c, 0, 78, 100
2, 153216, Note_on_c, 0, 81, 80
2, 153308, Note_off_c, 0, 80, 100
2, 153312, Note_on_c, 0, 83, 80
2, 153404, Note_off_c, 0, 81, 100
2, 153408, Note_on_c, 0, 85, 80
2, 153500, Note_off_c, 0, 83, 100
2, 153504, Note_on_c, 0, 83, 80
2, 153596, Note_off_c, 0, 85, 100
2, 153600, Note_on_c, 0, 81, 80
2, 153692, Note_off_c, 0, 83, 100
2, 153696, Note_on_c, 0, 76, 81
2, 153788, Note_off_c, 0, 81, 100
2, 153792, Note_on_c, 0, 78, 82
2, 153884, Note_off_c, 0, 76, 100
2, 153888, Note_on_c, 0, 80, 83
2, 153980, Note_off_c, 0, 78, 100
2, 153984, Note_on_c, 0, 81, 84
2, 154076, Note_off_c, 0, 80, 100
2, 154080, Note_on_c, 0, 83, 86
2, 154172, Note_off_c, 0, 81, 100
2, 154176, Note_on_c, 0, 85, 87
2, 154268, Note_off_c, 0, 83, 100
2, 154272, Note_on_c, 0, 86, 88
2, 154364, Note_off_c, 0, 85, 100
2, 154368, Note_on_c, 0, 88, 89
2, 154460, Note_off_c, 0, 86, 100
2, 154464, Note_on_c, 0, 87, 91
2, 154556, Note_off_c, 0, 88, 100
2, 154560, Note_on_c, 0, 88, 92
2, 154652, Note_off_c, 0, 87, 100
2, 154656, Note_on_c, 0, 87, 93
2, 154748, Note_off_c, 0, 88, 100
2, 154752, Note_on_c, 0, 88, 94
2, 154844, Note_off_c, 0, 87, 100
2, 154848, Note_on_c, 0, 85, 96
2, 154940, Note_off_c, 0, 88, 100
2, 154944, Note_on_c, 0, 83, 97
2, 155036, Note_off_c, 0, 85, 100
2, 155040, Note_on_c, 0, 81, 98
2, 155132, Note_off_c, 0, 83, 100
2, 155136, Note_on_c, 0, 80, 80
2, 155228, Note_off_c, 0, 81, 100
2, 155900, Note_off_c, 0, 80, 100
2, 155904, Note_on_c, 0, 83, 80
2, 155968, Note_on_c, 0, 82, 80
2, 156028, Note_off_c, 0, 83, 100
2, 156032, Note_on_c, 0, 83, 80
2, 156092, Note_off_c, 0, 82, 100
2, 156096, Note_on_c, 0, 82, 80
2, 156156, Note_off_c, 0, 83, 100
2, 156160, Note_on_c, 0, 83, 80
2, 156220, Note_off_c, 0, 82, 100
2, 156224, Note_on_c, 0, 82, 80
2, 156284, Note_off_c, 0, 83, 100
2, 156288, Note_on_c, 0, 83, 80
2, 156348, Note_off_c, 0, 82, 100
2, 156352, Note_on_c, 0, 82, 80
2, 156412, Note_off_c, 0, 83, 100
2, 156416, Note_on_c, 0, 83, 80
2, 156476, Note_off_c, 0, 82, 100
2, 156480, Note_on_c, 0, 82, 80
2, 156540, Note_off_c, 0, 83, 100
2, 156544, Note_on_c, 0, 80, 80
2, 156604, Note_off_c, 0, 82, 100
2, 156608, Note_on_c, 0, 82, 80
2, 156668, Note_off_c, 0, 80, 100
2, 156672, Note_on_c, 0, 80, 80
2, 156732, Note_off_c, 0, 82, 100
2, 157052, Note_off_c, 0, 80, 100
2, 157056, Note_on_c, 0, 64, 120
2, 157056, Note_on_c, 0, 57, 120
2, 157056, Note_on_c, 0, 61, 120
2, 157056, Note_on_c, 0, 69, 120
2, 157532, Note_off_c, 0, 64, 100
2, 157536, Note_on_c, 0, 64, 80
2, 157632, Note_on_c, 0, 66, 80
2, 157724, Note_off_c, 0, 64, 100
2, 157728, Note_on_c, 0, 68, 80
2, 157820, Note_off_c, 0, 57, 100
2, 157820, Note_off_c, 0, 61, 100
2, 157820, Note_off_c, 0, 69, 100
2, 157820, Note_off_c, 0, 66, 100
2, 157824, Note_on_c, 0, 69, 80
2, 157916, Note_off_c, 0, 68, 100
2, 157920, Note_on_c, 0, 71, 80
2, 158012, Note_off_c, 0, 69, 100
2, 158016, Note_on_c, 0, 73, 80
2, 158108, Note_off_c, 0, 71, 100
2, 158112, Note_on_c, 0, 71, 80
2, 158204, Note_off_c, 0, 73, 100
2, 158208, Note_on_c, 0, 69, 80
2, 158300, Note_off_c, 0, 71, 100
2, 158304, Note_on_c, 0, 64, 80
2, 158396, Note_off_c, 0, 69, 100
2, 158400, Note_on_c, 0, 66, 80
2, 158492, Note_off_c, 0, 64, 100
2, 158496, Note_on_c, 0, 68, 80
2, 158588, Note_off_c, 0, 66, 100
2, 158592, Note_on_c, 0, 69, 80
2, 158684, Note_off_c, 0, 68, 100
2, 158688, Note_on_c, 0, 71, 80
2, 158780, Note_off_c, 0, 69, 100
2, 158784, Note_on_c, 0, 73, 80
2, 158876, Note_off_c, 0, 71, 100
2, 158880, Note_on_c, 0, 71, 80
2, 158972, Note_off_c, 0, 73, 100
2, 158976, Note_on_c, 0, 69, 80
2, 159068, Note_off_c, 0, 71, 100
2, 159072, Note_on_c, 0, 64, 80
2, 159164, Note_off_c, 0, 69, 100
2, 159168, Note_on_c, 0, 66, 80
2, 159260, Note_off_c, 0, 64, 100
2, 159264, Note_on_c, 0, 68, 80
2, 159356, Note_off_c, 0, 66, 100
2, 159360, Note_on_c, 0, 69, 80
2, 159452, Note_off_c, 0, 68, 100
2, 159456, Note_on_c, 0, 71, 80
2, 159548, Note_off_c, 0, 69, 100
2, 159552, Note_on_c, 0, 73, 80
2, 159644, Note_off_c, 0, 71, 100
2, 159648, Note_on_c, 0, 71, 80
2, 159740, Note_off_c, 0, 73, 100
2, 159744, Note_on_c, 0, 69, 80
2, 159836, Note_off_c, 0, 71, 100
2, 159840, Note_on_c, 0, 64, 80
2, 159932, Note_off_c, 0, 69, 100
2, 159936, Note_on_c, 0, 66, 81
2, 160028, Note_off_c, 0, 64, 100
2, 160032, Note_on_c, 0, 68, 82
2, 160124, Note_off_c, 0, 66, 100
2, 160128, Note_on_c, 0, 69, 83
2, 160220, Note_off_c, 0, 68, 100
2, 160224, Note_on_c, 0, 71, 84
2, 160316, Note_off_c, 0, 69, 100
2, 160320, Note_on_c, 0, 73, 85
2, 160412, Note_off_c, 0, 71, 100
2, 160416, Note_on_c, 0, 71, 86
2, 160508, Note_off_c, 0, 73, 100
2, 160512, Note_on_c, 0, 69, 87
2, 160604, Note_off_c, 0, 71, 100
2, 160608, Note_on_c, 0, 64, 88
2, 160700, Note_off_c, 0, 69, 100
2, 160704, Note_on_c, 0, 66, 89
2, 160796, Note_off_c, 0, 64, 100
2, 160800, Note_on_c, 0, 68, 90
2, 160892, Note_off_c, 0, 66, 100
2, 160896, Note_on_c, 0, 69, 91
2, 160988, Note_off_c, 0, 68, 100
2, 160992, Note_on_c, 0, 71, 92
2, 161084, Note_off_c, 0, 69, 100
2, 161088, Note_on_c, 0, 73, 93
2, 161180, Note_off_c, 0, 71, 100
2, 161184, Note_on_c, 0, 71, 94
2, 161276, Note_off_c, 0, 73, 100
2, 161280, Note_on_c, 0, 69, 94
2, 161372, Note_off_c, 0, 71, 100
2, 161376, Note_on_c, 0, 64, 95
2, 161468, Note_off_c, 0, 69, 100
2, 161472, Note_on_c, 0, 66, 96
2, 161564, Note_off_c, 0, 64, 100
2, 161568, Note_on_c, 0, 68, 97
2, 161660, Note_off_c, 0, 66, 100
2, 161664, Note_on_c, 0, 69, 98
2, 161756, Note_off_c, 0, 68, 100
2, 161760, Note_on_c, 0, 71, 99
2, 161852, Note_off_c, 0, 69, 100
2, 161856, Note_on_c, 0, 73, 100
2, 161948, Note_off_c, 0, 71, 100
2, 161952, Note_on_c, 0, 75, 101
2, 162044, Note_off_c, 0, 73, 100
2, 162048, Note_on_c, 0, 76, 102
2, 162140, Note_off_c, 0, 75, 100
2, 162144, Note_on_c, 0, 78, 103
2, 162236, Note_off_c, 0, 76, 100
2, 162240, Note_on_c, 0, 80, 104
2, 162332, Note_off_c, 0, 78, 100
2, 162336, Note_on_c, 0, 81, 105
2, 162428, Note_off_c, 0, 80, 100
2, 162432, Note_on_c, 0, 83, 106
2, 162524, Note_off_c, 0, 81, 100
2, 162528, Note_on_c, 0, 85, 107
2, 162620, Note_off_c, 0, 83, 100
2, 162624, Note_on_c, 0, 86, 108
2, 162716, Note_off_c, 0, 85, 100
2, 162720, Note_on_c, 0, 87, 109
2, 162812, Note_off_c, 0, 86, 100
2, 162816, Note_on_c, 0, 88, 110
2, 162816, Note_on_c, 0, 76, 110
2, 162908, Note_off_c, 0, 87, 100
2, 163580, Note_off_c, 0, 88, 100
2, 163580, Note_off_c, 0, 76, 100
2, 163584, Note_on_c, 0, 80, 110
2, 163584, Note_on_c, 0, 68, 110
2, 164348, Note_off_c, 0, 80, 100
2, 164348, Note_off_c, 0, 68, 100
2, 164352, Note_on_c, 0, 83, 110
2, 164352, Note_on_c, 0, 71, 110
2, 165116, Note_off_c, 0, 83, 100
2, 165116, Note_off_c, 0, 71, 100
2, 165120, Note_on_c, 0, 55, 110
2, 165120, Note_on_c, 0, 61, 110
2, 165120, Note_on_c, 0, 67, 110
2, 165884, Note_off_c, 0, 55, 100
2, 165884, Note_off_c, 0, 61, 100
2, 165884, Note_off_c, 0, 67, 100
2, 165888, Note_on_c, 0, 56, 110
2, 165888, Note_on_c, 0, 59, 110
2, 165888, Note_on_c, 0, 68, 110
2, 166080, Note_on_c, 0, 63, 80
2, 166080, Note_on_c, 0, 71, 80
2, 166268, Note_off_c, 0, 56, 100
2, 166268, Note_off_c, 0, 59, 100
2, 166268, Note_off_c, 0, 68, 100
2, 166268, Note_off_c, 0, 63, 100
2, 166268, Note_off_c, 0, 71, 100
2, 166272, Note_on_c, 0, 63, 80
2, 166272, Note_on_c, 0, 71, 80
2, 166460, Note_off_c, 0, 63, 100
2, 166460, Note_off_c, 0, 71, 100
2, 166464, Note_on_c, 0, 63, 80
2, 166464, Note_on_c, 0, 71, 80
2, 166652, Note_off_c, 0, 63, 100
2, 166652, Note_off_c, 0, 71, 100
2, 166656, Note_on_c, 0, 63, 80
2, 166656, Note_on_c, 0, 71, 80
2, 166844, Note_off_c, 0, 63, 100
2, 166844, Note_off_c, 0, 71, 100
2, 166848, Note_on_c, 0, 63, 80
2, 166848, Note_on_c, 0, 71, 80
2, 167036, Note_off_c, 0, 63, 100
2, 167036, Note_off_c, 0, 71, 100
2, 167040, Note_on_c, 0, 63, 80
2, 167040, Note_on_c, 0, 70, 80
2, 167228, Note_off_c, 0, 63, 100
2, 167228, Note_off_c, 0, 70, 100
2, 167232, Note_on_c, 0, 63, 80
2, 167232, Note_on_c, 0, 68, 80
2, 167420, Note_off_c, 0, 63, 100
2, 167420, Note_off_c, 0, 68, 100
2, 167424, Note_on_c, 0, 63, 80
2, 167424, Note_on_c, 0, 67, 80
2, 167612, Note_off_c, 0, 63, 100
2, 167612, Note_off_c, 0, 67, 100
2, 167616, Note_on_c, 0, 67, 80
2, 167616, Note_on_c, 0, 75, 80
2, 167804, Note_off_c, 0, 67, 100
2, 167804, Note_off_c, 0, 75, 100
2, 167808, Note_on_c, 0, 67, 80
2, 167808, Note_on_c, 0, 75, 80
2, 167996, Note_off_c, 0, 67, 100
2, 167996, Note_off_c, 0, 75, 100
2, 168000, Note_on_c, 0, 67, 80
2, 168000, Note_on_c, 0, 75, 80
2, 168188, Note_off_c, 0, 67, 100
2, 168188, Note_off_c, 0, 75, 100
2, 168192, Note_on_c, 0, 67, 80
2, 168192, Note_on_c, 0, 75, 80
2, 168380, Note_off_c, 0, 67, 100
2, 168380, Note_off_c, 0, 75, 100
2, 168384, Note_on_c, 0, 67, 80
2, 168384, Note_on_c, 0, 75, 80
2, 168572, Note_off_c, 0, 67, 100
2, 168572, Note_off_c, 0, 75, 100
2, 168576, Note_on_c, 0, 68, 80
2, 168576, Note_on_c, 0, 75, 80
2, 168764, Note_off_c, 0, 68, 100
2, 168764, Note_off_c, 0, 75, 100
2, 168768, Note_on_c, 0, 70, 80
2, 168768, Note_on_c, 0, 75, 80
2, 168956, Note_off_c, 0, 70, 100
2, 168956, Note_off_c, 0, 75, 100
2, 168960, Note_on_c, 0, 71, 80
2, 168960, Note_on_c, 0, 75, 80
2, 169148, Note_off_c, 0, 71, 100
2, 169148, Note_off_c, 0, 75, 100
2, 169152, Note_on_c, 0, 63, 80
2, 169152, Note_on_c, 0, 71, 80
2, 169340, Note_off_c, 0, 63, 100
2, 169340, Note_off_c, 0, 71, 100
2, 169344, Note_on_c, 0, 63, 80
2, 169344, Note_on_c, 0, 71, 80
2, 169532, Note_off_c, 0, 63, 100
2, 169532, Note_off_c, 0, 71, 100
2, 169536, Note_on_c, 0, 63, 80
2, 169536, Note_on_c, 0, 71, 80
2, 169724, Note_off_c, 0, 63, 100
2, 169724, Note_off_c, 0, 71, 100
2, 169728, Note_on_c, 0, 63, 80
2, 169728, Note_on_c, 0, 71, 80
2, 169916, Note_off_c, 0, 63, 100
2, 169916, Note_off_c, 0, 71, 100
2, 169920, Note_on_c, 0, 63, 80
2, 169920, Note_on_c, 0, 71, 80
2, 170108, Note_off_c, 0, 63, 100
2, 170108, Note_off_c, 0, 71, 100
2, 170112, Note_on_c, 0, 63, 80
2, 170112, Note_on_c, 0, 70, 80
2, 170300, Note_off_c, 0, 63, 100
2, 170300, Note_off_c, 0, 70, 100
2, 170304, Note_on_c, 0, 63, 80
2, 170304, Note_on_c, 0, 68, 80
2, 170492, Note_off_c, 0, 63, 100
2, 170492, Note_off_c, 0, 68, 100
2, 170496, Note_on_c, 0, 63, 80
2, 170496, Note_on_c, 0, 67, 80
2, 170684, Note_off_c, 0, 63, 100
2, 170684, Note_off_c, 0, 67, 100
2, 170688, Note_on_c, 0, 67, 80
2, 170688, Note_on_c, 0, 75, 80
2, 170876, Note_off_c, 0, 67, 100
2, 170876, Note_off_c, 0, 75, 100
2, 170880, Note_on_c, 0, 67, 80
2, 170880, Note_on_c, 0, 75, 80
2, 171068, Note_off_c, 0, 67, 100
2, 171068, Note_off_c, 0, 75, 100
2, 171072, Note_on_c, 0, 67, 80
2, 171072, Note_on_c, 0, 75, 80
2, 171260, Note_off_c, 0, 67, 100
2, 171260, Note_off_c, 0, 75, 100
2, 171264, Note_on_c, 0, 67, 80
2, 171264, Note_on_c, 0, 75, 80
2, 171452, Note_off_c, 0, 67, 100
2, 171452, Note_off_c, 0, 75, 100
2, 171456, Note_on_c, 0, 67, 80
2, 171456, Note_on_c, 0, 75, 80
2, 171644, Note_off_c, 0, 67, 100
2, 171644, Note_off_c, 0, 75, 100
2, 171648, Note_on_c, 0, 68, 80
2, 171648, Note_on_c, 0, 75, 80
2, 171836, Note_off_c, 0, 68, 100
2, 171836, Note_off_c, 0, 75, 100
2, 171840, Note_on_c, 0, 70, 80
2, 171840, Note_on_c, 0, 75, 80
2, 172028, Note_off_c, 0, 70, 100
2, 172028, Note_off_c, 0, 75, 100
2, 172032, Note_on_c, 0, 71, 80
2, 172032, Note_on_c, 0, 75, 80
2, 172220, Note_off_c, 0, 71, 100
2, 172220, Note_off_c, 0, 75, 100
2, 172224, Note_on_c, 0, 71, 80
2, 172224, Note_on_c, 0, 75, 80
2, 172412, Note_off_c, 0, 71, 100
2, 172412, Note_off_c, 0, 75, 100
2, 172416, Note_on_c, 0, 71, 80
2, 172416, Note_on_c, 0, 75, 80
2, 172604, Note_off_c, 0, 71, 100
2, 172604, Note_off_c, 0, 75, 100
2, 172608, Note_on_c, 0, 68, 80
2, 172608, Note_on_c, 0, 71, 80
2, 172796, Note_off_c, 0, 68, 100
2, 172796, Note_off_c, 0, 71, 100
2, 172992, Note_on_c, 0, 73, 80
2, 172992, Note_on_c, 0, 76, 80
2, 173180, Note_off_c, 0, 73, 100
2, 173180, Note_off_c, 0, 76, 100
2, 173184, Note_on_c, 0, 73, 80
2, 173184, Note_on_c, 0, 76, 80
2, 173372, Note_off_c, 0, 73, 100
2, 173372, Note_off_c, 0, 76, 100
2, 173376, Note_on_c, 0, 68, 80
2, 173376, Note_on_c, 0, 73, 80
2, 173564, Note_off_c, 0, 68, 100
2, 173564, Note_off_c, 0, 73, 100
2, 173760, Note_on_c, 0, 71, 80
2, 173760, Note_on_c, 0, 75, 80
2, 173948, Note_off_c, 0, 71, 100
2, 173948, Note_off_c, 0, 75, 100
2, 173952, Note_on_c, 0, 71, 80
2, 173952, Note_on_c, 0, 75, 80
2, 174140, Note_off_c, 0, 71, 100
2, 174140, Note_off_c, 0, 75, 100
2, 174144, Note_on_c, 0, 68, 80
2, 174144, Note_on_c, 0, 71, 80
2, 174332, Note_off_c, 0, 68, 100
2, 174332, Note_off_c, 0, 71, 100
2, 174528, Note_on_c, 0, 70, 80
2, 174528, Note_on_c, 0, 75, 80
2, 174716, Note_off_c, 0, 70, 100
2, 174716, Note_off_c, 0, 75, 100
2, 174720, Note_on_c, 0, 70, 80
2, 174720, Note_on_c, 0, 75, 80
2, 174908, Note_off_c, 0, 70, 100
2, 174908, Note_off_c, 0, 75, 100
2, 174912, Note_on_c, 0, 67, 80
2, 174912, Note_on_c, 0, 70, 80
2, 175100, Note_off_c, 0, 67, 100
2, 175100, Note_off_c, 0, 70, 100
2, 175104, Note_on_c, 0, 68, 80
2, 175104, Note_on_c, 0, 71, 80
2, 175292, Note_off_c, 0, 68, 100
2, 175292, Note_off_c, 0, 71, 100
2, 175296, Note_on_c, 0, 71, 80
2, 175296, Note_on_c, 0, 75, 80
2, 175296, Note_on_c, 0, 83, 80
2, 175484, Note_off_c, 0, 71, 100
2, 175484, Note_off_c, 0, 75, 100
2, 175484, Note_off_c, 0, 83, 100
2, 175488, Note_on_c, 0, 71, 82
2, 175488, Note_on_c, 0, 75, 82
2, 175488, Note_on_c, 0, 83, 82
2, 175676, Note_off_c, 0, 71, 100
2, 175676, Note_off_c, 0, 75, 100
2, 175676, Note_off_c, 0, 83, 100
2, 175680, Note_on_c, 0, 71, 85
2, 175680, Note_on_c, 0, 75, 85
2, 175680, Note_on_c, 0, 83, 85
2, 175868, Note_off_c, 0, 71, 100
2, 175868, Note_off_c, 0, 75, 100
2, 175868, Note_off_c, 0, 83, 100
2, 175872, Note_on_c, 0, 71, 88
2, 175872, Note_on_c, 0, 75, 88
2, 175872, Note_on_c, 0, 83, 88
2, 176060, Note_off_c, 0, 71, 100
2, 176060, Note_off_c, 0, 75, 100
2, 176060, Note_off_c, 0, 83, 100
2, 176064, Note_on_c, 0, 71, 91
2, 176064, Note_on_c, 0, 75, 91
2, 176064, Note_on_c, 0, 83, 91
2, 176252, Note_off_c, 0, 71, 100
2, 176252, Note_off_c, 0, 75, 100
2, 176252, Note_off_c, 0, 83, 100
2, 176256, Note_on_c, 0, 70, 94
2, 176256, Note_on_c, 0, 73, 94
2, 176256, Note_on_c, 0, 82, 94
2, 176444, Note_off_c, 0, 70, 100
2, 176444, Note_off_c, 0, 73, 100
2, 176444, Note_off_c, 0, 82, 100
2, 176448, Note_on_c, 0, 68, 97
2, 176448, Note_on_c, 0, 71, 97
2, 176448, Note_on_c, 0, 80, 97
2, 176636, Note_off_c, 0, 68, 100
2, 176636, Note_off_c, 0, 71, 100
2, 176636, Note_off_c, 0, 80, 100
2, 176640, Note_on_c, 0, 67, 99
2, 176640, Note_on_c, 0, 70, 99
2, 176640, Note_on_c, 0, 79, 99
2, 176828, Note_off_c, 0, 67, 100
2, 176828, Note_off_c, 0, 70, 100
2, 176828, Note_off_c, 0, 79, 100
2, 176832, Note_on_c, 0, 76, 110
2, 176832, Note_on_c, 0, 88, 110
2, 176832, Note_on_c, 0, 79, 110
2, 177020, Note_off_c, 0, 76, 100
2, 177020, Note_off_c, 0, 88, 100
2, 177020, Note_off_c, 0, 79, 100
2, 177024, Note_on_c, 0, 76, 110
2, 177024, Note_on_c, 0, 88, 110
2, 177024, Note_on_c, 0, 79, 110
2, 177212, Note_off_c, 0, 76, 100
2, 177212, Note_off_c, 0, 88, 100
2, 177212, Note_off_c, 0, 79, 100
2, 177216, Note_on_c, 0, 76, 110
2, 177216, Note_on_c, 0, 88, 110
2, 177216, Note_on_c, 0, 79, 110
2, 177404, Note_off_c, 0, 76, 100
2, 177404, Note_off_c, 0, 88, 100
2, 177404, Note_off_c, 0, 79, 100
2, 177408, Note_on_c, 0, 76, 110
2, 177408, Note_on_c, 0, 88, 110
2, 177408, Note_on_c, 0, 79, 110
2, 177596, Note_off_c, 0, 76, 100
2, 177596, Note_off_c, 0, 88, 100
2, 177596, Note_off_c, 0, 79, 100
2, 177600, Note_on_c, 0, 76, 110
2, 177600, Note_on_c, 0, 88, 110
2, 177600, Note_on_c, 0, 79, 110
2, 177788, Note_off_c, 0, 76, 100
2, 177788, Note_off_c, 0, 88, 100
2, 177788, Note_off_c, 0, 79, 100
2, 177792, Note_on_c, 0, 75, 110
2, 177792, Note_on_c, 0, 87, 110
2, 177792, Note_on_c, 0, 79, 110
2, 177980, Note_off_c, 0, 75, 100
2, 177980, Note_off_c, 0, 87, 100
2, 177980, Note_off_c, 0, 79, 100
2, 177984, Note_on_c, 0, 73, 110
2, 177984, Note_on_c, 0, 85, 110
2, 177984, Note_on_c, 0, 79, 110
2, 178172, Note_off_c, 0, 73, 100
2, 178172, Note_off_c, 0, 85, 100
2, 178172, Note_off_c, 0, 79, 100
2, 178176, Note_on_c, 0, 71, 110
2, 178176, Note_on_c, 0, 80, 110
2, 178176, Note_on_c, 0, 83, 110
2, 178364, Note_off_c, 0, 71, 100
2, 178364, Note_off_c, 0, 80, 100
2, 178364, Note_off_c, 0, 83, 100
2, 178368, Note_on_c, 0, 71, 80
2, 178368, Note_on_c, 0, 75, 80
2, 178368, Note_on_c, 0, 83, 80
2, 178556, Note_off_c, 0, 71, 100
2, 178556, Note_off_c, 0, 75, 100
2, 178556, Note_off_c, 0, 83, 100
2, 178560, Note_on_c, 0, 71, 82
2, 178560, Note_on_c, 0, 75, 82
2, 178560, Note_on_c, 0, 83, 82
2, 178748, Note_off_c, 0, 71, 100
2, 178748, Note_off_c, 0, 75, 100
2, 178748, Note_off_c, 0, 83, 100
2, 178752, Note_on_c, 0, 71, 85
2, 178752, Note_on_c, 0, 75, 85
2, 178752, Note_on_c, 0, 83, 85
2, 178940, Note_off_c, 0, 71, 100
2, 178940, Note_off_c, 0, 75, 100
2, 178940, Note_off_c, 0, 83, 100
2, 178944, Note_on_c, 0, 71, 88
2, 178944, Note_on_c, 0, 75, 88
2, 178944, Note_on_c, 0, 83, 88
2, 179132, Note_off_c, 0, 71, 100
2, 179132, Note_off_c, 0, 75, 100
2, 179132, Note_off_c, 0, 83, 100
2, 179136, Note_on_c, 0, 71, 91
2, 179136, Note_on_c, 0, 75, 91
2, 179136, Note_on_c, 0, 83, 91
2, 179324, Note_off_c, 0, 71, 100
2, 179324, Note_off_c, 0, 75, 100
2, 179324, Note_off_c, 0, 83, 100
2, 179328, Note_on_c, 0, 70, 94
2, 179328, Note_on_c, 0, 73, 94
2, 179328, Note_on_c, 0, 82, 94
2, 179516, Note_off_c, 0, 70, 100
2, 179516, Note_off_c, 0, 73, 100
2, 179516, Note_off_c, 0, 82, 100
2, 179520, Note_on_c, 0, 68, 97
2, 179520, Note_on_c, 0, 71, 97
2, 179520, Note_on_c, 0, 80, 97
2, 179708, Note_off_c, 0, 68, 100
2, 179708, Note_off_c, 0, 71, 100
2, 179708, Note_off_c, 0, 80, 100
2, 179712, Note_on_c, 0, 67, 99
2, 179712, Note_on_c, 0, 70, 99
2, 179712, Note_on_c, 0, 79, 99
2, 179900, Note_off_c, 0, 67, 100
2, 179900, Note_off_c, 0, 70, 100
2, 179900, Note_off_c, 0, 79, 100
2, 179904, Note_on_c, 0, 76, 110
2, 179904, Note_on_c, 0, 88, 110
2, 179904, Note_on_c, 0, 79, 110
2, 180092, Note_off_c, 0, 76, 100
2, 180092, Note_off_c, 0, 88, 100
2, 180092, Note_off_c, 0, 79, 100
2, 180096, Note_on_c, 0, 76, 110
2, 180096, Note_on_c, 0, 88, 110
2, 180096, Note_on_c, 0, 79, 110
2, 180284, Note_off_c, 0, 76, 100
2, 180284, Note_off_c, 0, 88, 100
2, 180284, Note_off_c, 0, 79, 100
2, 180288, Note_on_c, 0, 76, 110
2, 180288, Note_on_c, 0, 88, 110
2, 180288, Note_on_c, 0, 79, 110
2, 180476, Note_off_c, 0, 76, 100
2, 180476, Note_off_c, 0, 88, 100
2, 180476, Note_off_c, 0, 79, 100
2, 180480, Note_on_c, 0, 76, 110
2, 180480, Note_on_c, 0, 88, 110
2, 180480, Note_on_c, 0, 79, 110
2, 180668, Note_off_c, 0, 76, 100
2, 180668, Note_off_c, 0, 88, 100
2, 180668, Note_off_c, 0, 79, 100
2, 180672, Note_on_c, 0, 76, 110
2, 180672, Note_on_c, 0, 88, 110
2, 180672, Note_on_c, 0, 79, 110
2, 180860, Note_off_c, 0, 76, 100
2, 180860, Note_off_c, 0, 88, 100
2, 180860, Note_off_c, 0, 79, 100
2, 180864, Note_on_c, 0, 75, 110
2, 180864, Note_on_c, 0, 87, 110
2, 180864, Note_on_c, 0, 79, 110
2, 181052, Note_off_c, 0, 75, 100
2, 181052, Note_off_c, 0, 87, 100
2, 181052, Note_off_c, 0, 79, 100
2, 181056, Note_on_c, 0, 73, 110
2, 181056, Note_on_c, 0, 85, 110
2, 181056, Note_on_c, 0, 79, 110
2, 181244, Note_off_c, 0, 73, 100
2, 181244, Note_off_c, 0, 85, 100
2, 181244, Note_off_c, 0, 79, 100
2, 181248, Note_on_c, 0, 71, 110
2, 181248, Note_on_c, 0, 80, 110
2, 181248, Note_on_c, 0, 83, 110
2, 181436, Note_off_c, 0, 71, 100
2, 181436, Note_off_c, 0, 80, 100
2, 181436, Note_off_c, 0, 83, 100
2, 181440, Note_on_c, 0, 80, 80
2, 181440, Note_on_c, 0, 83, 80
2, 181628, Note_off_c, 0, 80, 100
2, 181628, Note_off_c, 0, 83, 100
2, 181632, Note_on_c, 0, 80, 80
2, 181632, Note_on_c, 0, 83, 80
2, 181820, Note_off_c, 0, 80, 100
2, 181820, Note_off_c, 0, 83, 100
2, 181824, Note_on_c, 0, 87, 80
2, 181824, Note_on_c, 0, 83, 80
2, 182012, Note_off_c, 0, 87, 100
2, 182012, Note_off_c, 0, 83, 100
2, 182208, Note_on_c, 0, 85, 80
2, 182208, Note_on_c, 0, 80, 80
2, 182396, Note_off_c, 0, 85, 100
2, 182396, Note_off_c, 0, 80, 100
2, 182400, Note_on_c, 0, 85, 80
2, 182400, Note_on_c, 0, 80, 80
2, 182588, Note_off_c, 0, 85, 100
2, 182588, Note_off_c, 0, 80, 100
2, 182592, Note_on_c, 0, 88, 80
2, 182592, Note_on_c, 0, 85, 80
2, 182780, Note_off_c, 0, 88, 100
2, 182780, Note_off_c, 0, 85, 100
2, 182976, Note_on_c, 0, 83, 80
2, 182976, Note_on_c, 0, 80, 80
2, 183164, Note_off_c, 0, 83, 100
2, 183164, Note_off_c, 0, 80, 100
2, 183168, Note_on_c, 0, 83, 80
2, 183168, Note_on_c, 0, 80, 80
2, 183356, Note_off_c, 0, 83, 100
2, 183356, Note_off_c, 0, 80, 100
2, 183360, Note_on_c, 0, 87, 80
2, 183360, Note_on_c, 0, 83, 80
2, 183548, Note_off_c, 0, 87, 100
2, 183548, Note_off_c, 0, 83, 100
2, 183744, Note_on_c, 0, 82, 80
2, 183744, Note_on_c, 0, 79, 80
2, 183932, Note_off_c, 0, 82, 100
2, 183932, Note_off_c, 0, 79, 100
2, 183936, Note_on_c, 0, 82, 80
2, 183936, Note_on_c, 0, 79, 80
2, 184124, Note_off_c, 0, 82, 100
2, 184124, Note_off_c, 0, 79, 100
2, 184128, Note_on_c, 0, 87, 80
2, 184128, Note_on_c, 0, 82, 80
2, 184316, Note_off_c, 0, 87, 100
2, 184316, Note_off_c, 0, 82, 100
2, 184512, Note_on_c, 0, 75, 82
2, 184512, Note_on_c, 0, 83, 82
2, 184700, Note_off_c, 0, 75, 100
2, 184700, Note_off_c, 0, 83, 100
2, 184704, Note_on_c, 0, 75, 85
2, 184704, Note_on_c, 0, 83, 85
2, 184892, Note_off_c, 0, 75, 100
2, 184892, Note_off_c, 0, 83, 100
2, 184896, Note_on_c, 0, 80, 88
2, 184896, Note_on_c, 0, 87, 88
2, 185084, Note_off_c, 0, 80, 100
2, 185084, Note_off_c, 0, 87, 100
2, 185280, Note_on_c, 0, 73, 94
2, 185280, Note_on_c, 0, 81, 94
2, 185468, Note_off_c, 0, 73, 100
2, 185468, Note_off_c, 0, 81, 100
2, 185472, Note_on_c, 0, 73, 97
2, 185472, Note_on_c, 0, 81, 97
2, 185660, Note_off_c, 0, 73, 100
2, 185660, Note_off_c, 0, 81, 100
2, 185664, Note_on_c, 0, 76, 99
2, 185664, Note_on_c, 0, 85, 99
2, 185852, Note_off_c, 0, 76, 100
2, 185852, Note_off_c, 0, 85, 100
2, 186048, Note_on_c, 0, 71, 100
2, 186048, Note_on_c, 0, 80, 100
2, 186236, Note_off_c, 0, 71, 100
2, 186236, Note_off_c, 0, 80, 100
2, 186240, Note_on_c, 0, 71, 100
2, 186240, Note_on_c, 0, 80, 100
2, 186428, Note_off_c, 0, 71, 100
2, 186428, Note_off_c, 0, 80, 100
2, 186432, Note_on_c, 0, 75, 100
2, 186432, Note_on_c, 0, 83, 100
2, 186620, Note_off_c, 0, 75, 100
2, 186620, Note_off_c, 0, 83, 100
2, 186816, Note_on_c, 0, 70, 87
2, 186816, Note_on_c, 0, 79, 87
2, 187004, Note_off_c, 0, 70, 100
2, 187004, Note_off_c, 0, 79, 100
2, 187008, Note_on_c, 0, 70, 84
2, 187008, Note_on_c, 0, 79, 84
2, 187196, Note_off_c, 0, 70, 100
2, 187196, Note_off_c, 0, 79, 100
2, 187200, Note_on_c, 0, 73, 81
2, 187200, Note_on_c, 0, 82, 81
2, 187388, Note_off_c, 0, 73, 100
2, 187388, Note_off_c, 0, 82, 100
2, 187392, Control_c, 0, 64, 127
2, 187392, Note_on_c, 0, 80, 80
2, 187392, Note_on_c, 0, 71, 80
2, 187772, Note_off_c, 0, 80, 100
2, 187772, Note_off_c, 0, 71, 100
2, 188544, Note_on_c, 0, 71, 80
2, 188832, Note_on_c, 0, 68, 80
2, 188920, Control_c, 0, 64, 0
2, 188924, Note_off_c, 0, 71, 100
2, 188928, Control_c, 0, 64, 127
2, 188928, Note_on_c, 0, 67, 80
2, 189020, Note_off_c, 0, 68, 100
2, 189308, Note_off_c, 0, 67, 100
2, 189312, Note_on_c, 0, 75, 80
2, 189312, Note_on_c, 0, 67, 80
2, 189312, Note_on_c, 0, 61, 80
2, 189692, Note_off_c, 0, 75, 100
2, 189692, Note_off_c, 0, 67, 100
2, 189692, Note_off_c, 0, 61, 100
2, 189696, Note_on_c, 0, 61, 80
2, 189696, Note_on_c, 0, 67, 80
2, 189696, Note_on_c, 0, 75, 80
2, 190076, Note_off_c, 0, 61, 100
2, 190076, Note_off_c, 0, 67, 100
2, 190076, Note_off_c, 0, 75, 100
2, 190080, Note_on_c, 0, 61, 80
2, 190080, Note_on_c, 0, 67, 80
2, 190080, Note_on_c, 0, 75, 80
2, 190456, Control_c, 0, 64, 0
2, 190460, Note_off_c, 0, 61, 100
2, 190460, Note_off_c, 0, 67, 100
2, 190460, Note_off_c, 0, 75, 100
2, 190464, Control_c, 0, 64, 127
2, 190464, Note_on_c, 0, 59, 80
2, 190496, Note_on_c, 0, 68, 80
2, 190528, Note_on_c, 0, 75, 80
2, 190844, Note_off_c, 0, 59, 100
2, 190844, Note_off_c, 0, 68, 100
2, 191612, Note_off_c, 0, 75, 100
2, 191616, Note_on_c, 0, 83, 80
2, 191904, Note_on_c, 0, 80, 80
2, 191992, Control_c, 0, 64, 0
2, 191996, Note_off_c, 0, 83, 100
2, 192000, Control_c, 0, 64, 127
2, 192000, Note_on_c, 0, 79, 80
2, 192092, Note_off_c, 0, 80, 100
2, 192380, Note_off_c, 0, 79, 100
2, 192384, Note_on_c, 0, 87, 80
2, 192384, Note_on_c, 0, 73, 80
2, 192384, Note_on_c, 0, 79, 80
2, 192764, Note_off_c, 0, 87, 100
2, 192764, Note_off_c, 0, 73, 100
2, 192764, Note_off_c, 0, 79, 100
2, 192768, Note_on_c, 0, 87, 80
2, 192768, Note_on_c, 0, 73, 80
2, 192768, Note_on_c, 0, 79, 80
2, 193148, Note_off_c, 0, 87, 100
2, 193148, Note_off_c, 0, 73, 100
2, 193148, Note_off_c, 0, 79, 100
2, 193152, Note_on_c, 0, 87, 80
2, 193152, Note_on_c, 0, 73, 80
2, 193152, Note_on_c, 0, 79, 80
2, 193528, Control_c, 0, 64, 0
2, 193532, Note_off_c, 0, 87, 100
2, 193532, Note_off_c, 0, 73, 100
2, 193532, Note_off_c, 0, 79, 100
2, 193536, Control_c, 0, 64, 127
2, 193536, Note_on_c, 0, 71, 80
2, 193568, Note_on_c, 0, 80, 80
2, 193600, Note_on_c, 0, 87, 80
2, 193916, Note_off_c, 0, 71, 100
2, 193916, Note_off_c, 0, 80, 100
2, 194296, Control_c, 0, 64, 0
2, 194300, Note_off_c, 0, 87, 100
2, 194304, Control_c, 0, 64, 127
2, 194304, Note_on_c, 0, 73, 80
2, 194336, Note_on_c, 0, 79, 80
2, 194368, Note_on_c, 0, 87, 80
2, 194684, Note_off_c, 0, 73, 100
2, 194684, Note_off_c, 0, 79, 100
2, 195064, Control_c, 0, 64, 0
2, 195068, Note_off_c, 0, 87, 100
2, 195072, Control_c, 0, 64, 127
2, 195072, Note_on_c, 0, 71, 80
2, 195104, Note_on_c, 0, 80, 80
2, 195136, Note_on_c, 0, 87, 80
2, 195452, Note_off_c, 0, 71, 100
2, 195452, Note_off_c, 0, 80, 100
2, 195832, Control_c, 0, 64, 0
2, 195836, Note_off_c, 0, 87, 100
2, 195840, Control_c, 0, 64, 127
2, 195840, Note_on_c, 0, 73, 80
2, 195872, Note_on_c, 0, 79, 80
2, 195904, Note_on_c, 0, 87, 80
2, 196220, Note_off_c, 0, 73, 100
2, 196220, Note_off_c, 0, 79, 100
2, 196600, Control_c, 0, 64, 0
2, 196604, Note_off_c, 0, 87, 100
2, 196608, Control_c, 0, 64, 127
2, 196608, Note_on_c, 0, 59, 80
2, 196704, Note_on_c, 0, 68, 80
2, 196796, Note_off_c, 0, 59, 100
2, 196800, Note_on_c, 0, 63, 81
2, 196892, Note_off_c, 0, 68, 100
2, 196896, Note_on_c, 0, 68, 82
2, 196988, Note_off_c, 0, 63, 100
2, 196992, Note_on_c, 0, 59, 83
2, 197084, Note_off_c, 0, 68, 100
2, 197088, Note_on_c, 0, 68, 84
2, 197180, Note_off_c, 0, 59, 100
2, 197184, Note_on_c, 0, 63, 85
2, 197276, Note_off_c, 0, 68, 100
2, 197280, Note_on_c, 0, 68, 86
2, 197372, Note_off_c, 0, 63, 100
2, 197376, Note_on_c, 0, 59, 87
2, 197468, Note_off_c, 0, 68, 100
2, 197472, Note_on_c, 0, 68, 88
2, 197564, Note_off_c, 0, 59, 100
2, 197568, Note_on_c, 0, 63, 89
2, 197660, Note_off_c, 0, 68, 100
2, 197664, Note_on_c, 0, 68, 90
2, 197756, Note_off_c, 0, 63, 100
2, 197760, Note_on_c, 0, 59, 91
2, 197852, Note_off_c, 0, 68, 100
2, 197856, Note_on_c, 0, 68, 92
2, 197948, Note_off_c, 0, 59, 100
2, 197952, Note_on_c, 0, 63, 93
2, 198044, Note_off_c, 0, 68, 100
2, 198048, Note_on_c, 0, 68, 94
2, 198136, Control_c, 0, 64, 0
2, 198140, Note_off_c, 0, 63, 100
2, 198144, Control_c, 0, 64, 127
2, 198144, Note_on_c, 0, 60, 94
2, 198236, Note_off_c, 0, 68, 100
2, 198240, Note_on_c, 0, 66, 95
2, 198332, Note_off_c, 0, 60, 100
2, 198336, Note_on_c, 0, 63, 96
2, 198428, Note_off_c, 0, 66, 100
2, 198432, Note_on_c, 0, 66, 97
2, 198524, Note_off_c, 0, 63, 100
2, 198528, Note_on_c, 0, 60, 98
2, 198620, Note_off_c, 0, 66, 100
2, 198624, Note_on_c, 0, 66, 99
2, 198716, Note_off_c, 0, 60, 100
2, 198720, Note_on_c, 0, 63, 100
2, 198812, Note_off_c, 0, 66, 100
2, 198816, Note_on_c, 0, 66, 101
2, 198908, Note_off_c, 0, 63, 100
2, 198912, Note_on_c, 0, 60, 102
2, 199004, Note_off_c, 0, 66, 100
2, 199008, Note_on_c, 0, 66, 103
2, 199100, Note_off_c, 0, 60, 100
2, 199104, Note_on_c, 0, 63, 104
2, 199196, Note_off_c, 0, 66, 100
2, 199200, Note_on_c, 0, 66, 105
2, 199292, Note_off_c, 0, 63, 100
2, 199296, Note_on_c, 0, 60, 106
2, 199388, Note_off_c, 0, 66, 100
2, 199392, Note_on_c, 0, 66, 107
2, 199484, Note_off_c, 0, 60, 100
2, 199488, Note_on_c, 0, 63, 108
2, 199580, Note_off_c, 0, 66, 100
2, 199584, Note_on_c, 0, 66, 109
2, 199672, Control_c, 0, 64, 0
2, 199676, Note_off_c, 0, 63, 100
2, 199680, Note_on_c, 0, 53, 110
2, 199680, Note_on_c, 0, 56, 110
2, 199680, Note_on_c, 0, 65, 110
2, 199680, Note_on_c, 0, 61, 110
2, 199772, Note_off_c, 0, 66, 100
2, 199776, Note_on_c, 0, 49, 80
2, 199868, Note_off_c, 0, 53, 100
2, 199872, Note_on_c, 0, 53, 80
2, 199964, Note_off_c, 0, 56, 100
2, 199964, Note_off_c, 0, 49, 100
2, 199968, Note_on_c, 0, 56, 80
2, 200060, Note_off_c, 0, 65, 100
2, 200060, Note_off_c, 0, 61, 100
2, 200060, Note_off_c, 0, 53, 100
2, 200064, Note_on_c, 0, 61, 80
2, 200156, Note_off_c, 0, 56, 100
2, 200160, Note_on_c, 0, 53, 80
2, 200252, Note_off_c, 0, 61, 100
2, 200256, Note_on_c, 0, 56, 80
2, 200348, Note_off_c, 0, 53, 100
2, 200352, Note_on_c, 0, 61, 80
2, 200444, Note_off_c, 0, 56, 100
2, 200448, Note_on_c, 0, 65, 80
2, 200540, Note_off_c, 0, 61, 100
2, 200544, Note_on_c, 0, 56, 80
2, 200636, Note_off_c, 0, 65, 100
2, 200640, Note_on_c, 0, 61, 80
2, 200732, Note_off_c, 0, 56, 100
2, 200736, Note_on_c, 0, 65, 80
2, 200828, Note_off_c, 0, 61, 100
2, 200832, Note_on_c, 0, 68, 80
2, 200924, Note_off_c, 0, 65, 100
2, 200928, Note_on_c, 0, 61, 80
2, 201020, Note_off_c, 0, 68, 100
2, 201024, Note_on_c, 0, 65, 80
2, 201116, Note_off_c, 0, 61, 100
2, 201120, Note_on_c, 0, 68, 80
2, 201212, Note_off_c, 0, 65, 100
2, 201216, Note_on_c, 0, 73, 80
2, 201308, Note_off_c, 0, 68, 100
2, 201312, Note_on_c, 0, 65, 80
2, 201404, Note_off_c, 0, 73, 100
2, 201408, Note_on_c, 0, 68, 80
2, 201500, Note_off_c, 0, 65, 100
2, 201504, Note_on_c, 0, 73, 80
2, 201596, Note_off_c, 0, 68, 100
2, 201600, Note_on_c, 0, 77, 80
2, 201692, Note_off_c, 0, 73, 100
2, 201696, Note_on_c, 0, 68, 80
2, 201788, Note_off_c, 0, 77, 100
2, 201792, Note_on_c, 0, 73, 80
2, 201884, Note_off_c, 0, 68, 100
2, 201888, Note_on_c, 0, 77, 80
2, 201980, Note_off_c, 0, 73, 100
2, 201984, Note_on_c, 0, 80, 80
2, 202076, Note_off_c, 0, 77, 100
2, 202080, Note_on_c, 0, 73, 80
2, 202172, Note_off_c, 0, 80, 100
2, 202176, Note_on_c, 0, 77, 80
2, 202268, Note_off_c, 0, 73, 100
2, 202272, Note_on_c, 0, 80, 80
2, 202364, Note_off_c, 0, 77, 100
2, 202364, Note_off_c, 0, 80, 100
2, 202368, Control_c, 0, 64, 127
2, 202368, Note_on_c, 0, 85, 110
2, 202368, Note_on_c, 0, 80, 110
2, 202368, Note_on_c, 0, 77, 110
2, 202368, Note_on_c, 0, 73, 110
2, 202556, Note_off_c, 0, 85, 100
2, 202556, Note_off_c, 0, 80, 100
2, 202556, Note_off_c, 0, 77, 100
2, 202556, Note_off_c, 0, 73, 100
2, 202560, Note_on_c, 0, 73, 110
2, 202560, Note_on_c, 0, 77, 110
2, 202560, Note_on_c, 0, 80, 110
2, 202560, Note_on_c, 0, 85, 110
2, 202744, Control_c, 0, 64, 0
2, 202748, Note_off_c, 0, 73, 100
2, 202748, Note_off_c, 0, 77, 100
2, 202748, Note_off_c, 0, 80, 100
2, 202748, Note_off_c, 0, 85, 100
2, 202848, Note_on_c, 0, 49, 80
2, 202944, Note_on_c, 0, 53, 80
2, 203036, Note_off_c, 0, 49, 100
2, 203040, Note_on_c, 0, 56, 80
2, 203132, Note_off_c, 0, 53, 100
2, 203136, Note_on_c, 0, 61, 80
2, 203228, Note_off_c, 0, 56, 100
2, 203232, Note_on_c, 0, 53, 80
2, 203324, Note_off_c, 0, 61, 100
2, 203328, Note_on_c, 0, 56, 80
2, 203420, Note_off_c, 0, 53, 100
2, 203424, Note_on_c, 0, 61, 80
2, 203516, Note_off_c, 0, 56, 100
2, 203520, Note_on_c, 0, 65, 80
2, 203612, Note_off_c, 0, 61, 100
2, 203616, Note_on_c, 0, 56, 80
2, 203708, Note_off_c, 0, 65, 100
2, 203712, Note_on_c, 0, 61, 80
2, 203804, Note_off_c, 0, 56, 100
2, 203808, Note_on_c, 0, 65, 80
2, 203900, Note_off_c, 0, 61, 100
2, 203904, Note_on_c, 0, 68, 80
2, 203996, Note_off_c, 0, 65, 100
2, 204000, Note_on_c, 0, 61, 80
2, 204092, Note_off_c, 0, 68, 100
2, 204096, Note_on_c, 0, 65, 80
2, 204188, Note_off_c, 0, 61, 100
2, 204192, Note_on_c, 0, 68, 80
2, 204284, Note_off_c, 0, 65, 100
2, 204288, Note_on_c, 0, 73, 80
2, 204380, Note_off_c, 0, 68, 100
2, 204384, Note_on_c, 0, 65, 80
2, 204476, Note_off_c, 0, 73, 100
2, 204480, Note_on_c, 0, 68, 80
2, 204572, Note_off_c, 0, 65, 100
2, 204576, Note_on_c, 0, 73, 80
2, 204668, Note_off_c, 0, 68, 100
2, 204672, Note_on_c, 0, 77, 80
2, 204764, Note_off_c, 0, 73, 100
2, 204768, Note_on_c, 0, 68, 80
2, 204860, Note_off_c, 0, 77, 100
2, 204864, Note_on_c, 0, 73, 80
2, 204956, Note_off_c, 0, 68, 100
2, 204960, Note_on_c, 0, 77, 80
2, 205052, Note_off_c, 0, 73, 100
2, 205056, Note_on_c, 0, 80, 80
2, 205148, Note_off_c, 0, 77, 100
2, 205152, Note_on_c, 0, 73, 80
2, 205244, Note_off_c, 0, 80, 100
2, 205248, Note_on_c, 0, 77, 80
2, 205340, Note_off_c, 0, 73, 100
2, 205344, Note_on_c, 0, 80, 80
2, 205436, Note_off_c, 0, 77, 100
2, 205436, Note_off_c, 0, 80, 100
2, 205440, Control_c, 0, 64, 127
2, 205440, Note_on_c, 0, 85, 110
2, 205440, Note_on_c, 0, 80, 110
2, 205440, Note_on_c, 0, 77, 110
2, 205440, Note_on_c, 0, 73, 110
2, 205628, Note_off_c, 0, 85, 100
2, 205628, Note_off_c, 0, 80, 100
2, 205628, Note_off_c, 0, 77, 100
2, 205628, Note_off_c, 0, 73, 100
2, 205632, Note_on_c, 0, 73, 110
2, 205632, Note_on_c, 0, 77, 110
2, 205632, Note_on_c, 0, 80, 110
2, 205632, Note_on_c, 0, 85, 110
2, 205816, Control_c, 0, 64, 0
2, 205820, Note_off_c, 0, 73, 100
2, 205820, Note_off_c, 0, 77, 100
2, 205820, Note_off_c, 0, 80, 100
2, 205820, Note_off_c, 0, 85, 100
2, 205920, Note_on_c, 0, 49, 80
2, 206016, Note_on_c, 0, 54, 80
2, 206108, Note_off_c, 0, 49, 100
2, 206112, Note_on_c, 0, 57, 80
2, 206204, Note_off_c, 0, 54, 100
2, 206208, Note_on_c, 0, 61, 80
2, 206300, Note_off_c, 0, 57, 100
2, 206300, Note_off_c, 0, 61, 100
2, 206304, Note_on_c, 0, 61, 80
2, 206400, Note_on_c, 0, 66, 80
2, 206492, Note_off_c, 0, 61, 100
2, 206496, Note_on_c, 0, 69, 80
2, 206588, Note_off_c, 0, 66, 100
2, 206592, Note_on_c, 0, 73, 80
2, 206684, Note_off_c, 0, 69, 100
2, 206684, Note_off_c, 0, 73, 100
2, 206688, Note_on_c, 0, 73, 80
2, 206784, Note_on_c, 0, 78, 80
2, 206876, Note_off_c, 0, 73, 100
2, 206880, Note_on_c, 0, 81, 80
2, 206972, Note_off_c, 0, 78, 100
2, 206972, Note_off_c, 0, 81, 100
2, 206976, Control_c, 0, 64, 127
2, 206976, Note_on_c, 0, 85, 110
2, 206976, Note_on_c, 0, 81, 110
2, 206976, Note_on_c, 0, 78, 110
2, 206976, Note_on_c, 0, 73, 110
2, 207164, Note_off_c, 0, 85, 100
2, 207164, Note_off_c, 0, 81, 100
2, 207164, Note_off_c, 0, 78, 100
2, 207164, Note_off_c, 0, 73, 100
2, 207168, Note_on_c, 0, 73, 110
2, 207168, Note_on_c, 0, 78, 110
2, 207168, Note_on_c, 0, 81, 110
2, 207168, Note_on_c, 0, 85, 110
2, 207352, Control_c, 0, 64, 0
2, 207356, Note_off_c, 0, 73, 100
2, 207356, Note_off_c, 0, 78, 100
2, 207356, Note_off_c, 0, 81, 100
2, 207356, Note_off_c, 0, 85, 100
2, 207456, Note_on_c, 0, 49, 80
2, 207552, Note_on_c, 0, 56, 80
2, 207644, Note_off_c, 0, 49, 100
2, 207648, Note_on_c, 0, 59, 80
2, 207740, Note_off_c, 0, 56, 100
2, 207744, Note_on_c, 0, 61, 80
2, 207836, Note_off_c, 0, 59, 100
2, 207836, Note_off_c, 0, 61, 100
2, 207840, Note_on_c, 0, 61, 80
2, 207936, Note_on_c, 0, 68, 80
2, 208028, Note_off_c, 0, 61, 100
2, 208032, Note_on_c, 0, 71, 80
2, 208124, Note_off_c, 0, 68, 100
2, 208128, Note_on_c, 0, 73, 80
2, 208220, Note_off_c, 0, 71, 100
2, 208220, Note_off_c, 0, 73, 100
2, 208224, Note_on_c, 0, 73, 80
2, 208320, Note_on_c, 0, 80, 80
2, 208412, Note_off_c, 0, 73, 100
2, 208416, Note_on_c, 0, 83, 80
2, 208508, Note_off_c, 0, 80, 100
2, 208508, Note_off_c, 0, 83, 100
2, 208512, Control_c, 0, 64, 127
2, 208512, Note_on_c, 0, 85, 110
2, 208512, Note_on_c, 0, 83, 110
2, 208512, Note_on_c, 0, 73, 110
2, 208512, Note_on_c, 0, 80, 110
2, 208700, Note_off_c, 0, 85, 100
2, 208700, Note_off_c, 0, 83, 100
2, 208700, Note_off_c, 0, 73, 100
2, 208700, Note_off_c, 0, 80, 100
2, 208704, Note_on_c, 0, 85, 110
2, 208704, Note_on_c, 0, 83, 110
2, 208704, Note_on_c, 0, 73, 110
2, 208704, Note_on_c, 0, 80, 110
2, 208888, Control_c, 0, 64, 0
2, 208892, Note_off_c, 0, 85, 100
2, 208892, Note_off_c, 0, 83, 100
2, 208892, Note_off_c, 0, 73, 100
2, 208892, Note_off_c, 0, 80, 100
2, 208896, Note_on_c, 0, 73, 100
2, 208896, Note_on_c, 0, 78, 100
2, 208896, Note_on_c, 0, 85, 100
2, 208896, Note_on_c, 0, 81, 100
2, 209276, Note_off_c, 0, 73, 100
2, 209276, Note_off_c, 0, 78, 100
2, 209276, Note_off_c, 0, 85, 100
2, 209276, Note_off_c, 0, 81, 100
2, 209280, Control_c, 0, 64, 127
2, 209280, Note_on_c, 0, 73, 80
2, 210044, Note_off_c, 0, 73, 100
2, 210048, Note_on_c, 0, 69, 80
2, 210336, Note_on_c, 0, 66, 100
2, 210424, Control_c, 0, 64, 0
2, 210428, Note_off_c, 0, 69, 100
2, 210428, Note_off_c, 0, 66, 100
2, 210432, Control_c, 0, 64, 127
2, 210432, Note_on_c, 0, 65, 80
2, 210464, Note_on_c, 0, 66, 80
2, 210496, Note_on_c, 0, 68, 80
2, 210524, Note_off_c, 0, 66, 100
2, 210528, Note_on_c, 0, 66, 80
2, 210620, Note_off_c, 0, 65, 100
2, 210684, Note_off_c, 0, 68, 100
2, 210812, Note_off_c, 0, 66, 100
2, 210816, Note_on_c, 0, 65, 80
2, 211388, Note_off_c, 0, 65, 100
2, 211392, Note_on_c, 0, 65, 80
2, 211580, Note_off_c, 0, 65, 100
2, 211584, Note_on_c, 0, 73, 93
2, 211872, Note_on_c, 0, 65, 80
2, 211960, Control_c, 0, 64, 0
2, 211964, Note_off_c, 0, 73, 100
2, 211968, Control_c, 0, 64, 127
2, 211968, Note_on_c, 0, 68, 80
2, 212060, Note_off_c, 0, 65, 100
2, 212348, Note_off_c, 0, 68, 100
2, 212352, Note_on_c, 0, 66, 80
2, 212924, Note_off_c, 0, 66, 100
2, 212928, Note_on_c, 0, 66, 80
2, 213116, Note_off_c, 0, 66, 100
2, 213120, Note_on_c, 0, 73, 90
2, 213408, Note_on_c, 0, 66, 80
2, 213496, Control_c, 0, 64, 0
2, 213500, Note_off_c, 0, 73, 100
2, 213504, Control_c, 0, 64, 127
2, 213504, Note_on_c, 0, 69, 80
2, 213596, Note_off_c, 0, 66, 100
2, 213884, Note_off_c, 0, 69, 100
2, 213888, Note_on_c, 0, 68, 80
2, 214460, Note_off_c, 0, 68, 100
2, 214464, Note_on_c, 0, 68, 80
2, 214652, Note_off_c, 0, 68, 100
2, 214656, Note_on_c, 0, 73, 91
2, 214944, Note_on_c, 0, 68, 80
2, 215032, Control_c, 0, 64, 0
2, 215036, Note_off_c, 0, 73, 100
2, 215040, Control_c, 0, 64, 127
2, 215040, Note_on_c, 0, 66, 80
2, 215132, Note_off_c, 0, 68, 100
2, 215136, Note_on_c, 0, 73, 80
2, 215228, Note_off_c, 0, 66, 100
2, 215232, Note_on_c, 0, 69, 80
2, 215324, Note_off_c, 0, 73, 100
2, 215328, Note_on_c, 0, 73, 80
2, 215420, Note_off_c, 0, 69, 100
2, 215424, Note_on_c, 0, 66, 80
2, 215516, Note_off_c, 0, 73, 100
2, 215520, Note_on_c, 0, 73, 80
2, 215612, Note_off_c, 0, 66, 100
2, 215616, Note_on_c, 0, 69, 80
2, 215708, Note_off_c, 0, 73, 100
2, 215712, Note_on_c, 0, 73, 80
2, 215804, Note_off_c, 0, 69, 100
2, 215808, Note_on_c, 0, 66, 80
2, 215900, Note_off_c, 0, 73, 100
2, 215904, Note_on_c, 0, 73, 80
2, 215996, Note_off_c, 0, 66, 100
2, 216000, Note_on_c, 0, 69, 80
2, 216092, Note_off_c, 0, 73, 100
2, 216096, Note_on_c, 0, 73, 80
2, 216188, Note_off_c, 0, 69, 100
2, 216192, Note_on_c, 0, 66, 80
2, 216284, Note_off_c, 0, 73, 100
2, 216288, Note_on_c, 0, 73, 80
2, 216380, Note_off_c, 0, 66, 100
2, 216384, Note_on_c, 0, 69, 80
2, 216476, Note_off_c, 0, 73, 100
2, 216480, Note_on_c, 0, 73, 80
2, 216568, Control_c, 0, 64, 0
2, 216572, Note_off_c, 0, 69, 100
2, 216576, Control_c, 0, 64, 127
2, 216576, Note_on_c, 0, 68, 80
2, 216668, Note_off_c, 0, 73, 100
2, 216672, Note_on_c, 0, 73, 80
2, 216764, Note_off_c, 0, 68, 100
2, 216768, Note_on_c, 0, 71, 80
2, 216860, Note_off_c, 0, 73, 100
2, 216864, Note_on_c, 0, 73, 80
2, 216956, Note_off_c, 0, 71, 100
2, 216960, Note_on_c, 0, 68, 80
2, 217052, Note_off_c, 0, 73, 100
2, 217056, Note_on_c, 0, 73, 80
2, 217148, Note_off_c, 0, 68, 100
2, 217152, Note_on_c, 0, 71, 80
2, 217244, Note_off_c, 0, 73, 100
2, 217248, Note_on_c, 0, 73, 80
2, 217340, Note_off_c, 0, 71, 100
2, 217344, Note_on_c, 0, 68, 80
2, 217436, Note_off_c, 0, 73, 100
2, 217440, Note_on_c, 0, 73, 80
2, 217532, Note_off_c, 0, 68, 100
2, 217536, Note_on_c, 0, 71, 80
2, 217628, Note_off_c, 0, 73, 100
2, 217632, Note_on_c, 0, 73, 80
2, 217724, Note_off_c, 0, 71, 100
2, 217728, Note_on_c, 0, 68, 80
2, 217820, Note_off_c, 0, 73, 100
2, 217824, Note_on_c, 0, 73, 80
2, 217916, Note_off_c, 0, 68, 100
2, 217920, Note_on_c, 0, 71, 80
2, 218012, Note_off_c, 0, 73, 100
2, 218016, Note_on_c, 0, 73, 80
2, 218104, Control_c, 0, 64, 0
2, 218108, Note_off_c, 0, 71, 100
2, 218112, Control_c, 0, 64, 127
2, 218112, Note_on_c, 0, 66, 80
2, 218204, Note_off_c, 0, 73, 100
2, 218208, Note_on_c, 0, 73, 80
2, 218300, Note_off_c, 0, 66, 100
2, 218304, Note_on_c, 0, 69, 80
2, 218396, Note_off_c, 0, 73, 100
2, 218400, Note_on_c, 0, 73, 80
2, 218492, Note_off_c, 0, 69, 100
2, 218496, Note_on_c, 0, 66, 80
2, 218588, Note_off_c, 0, 73, 100
2, 218592, Note_on_c, 0, 73, 80
2, 218684, Note_off_c, 0, 66, 100
2, 218688, Note_on_c, 0, 69, 80
2, 218780, Note_off_c, 0, 73, 100
2, 218784, Note_on_c, 0, 73, 80
2, 218876, Note_off_c, 0, 69, 100
2, 218880, Note_on_c, 0, 66, 80
2, 218972, Note_off_c, 0, 73, 100
2, 218976, Note_on_c, 0, 73, 80
2, 219068, Note_off_c, 0, 66, 100
2, 219072, Note_on_c, 0, 69, 80
2, 219164, Note_off_c, 0, 73, 100
2, 219168, Note_on_c, 0, 73, 80
2, 219260, Note_off_c, 0, 69, 100
2, 219264, Note_on_c, 0, 66, 80
2, 219356, Note_off_c, 0, 73, 100
2, 219360, Note_on_c, 0, 73, 80
2, 219452, Note_off_c, 0, 66, 100
2, 219456, Note_on_c, 0, 69, 80
2, 219548, Note_off_c, 0, 73, 100
2, 219552, Note_on_c, 0, 73, 80
2, 219640, Control_c, 0, 64, 0
2, 219644, Note_off_c, 0, 69, 100
2, 219648, Control_c, 0, 64, 127
2, 219648, Note_on_c, 0, 66, 80
2, 219740, Note_off_c, 0, 73, 100
2, 219744, Note_on_c, 0, 74, 81
2, 219836, Note_off_c, 0, 66, 100
2, 219840, Note_on_c, 0, 69, 82
2, 219932, Note_off_c, 0, 74, 100
2, 219936, Note_on_c, 0, 74, 83
2, 220028, Note_off_c, 0, 69, 100
2, 220032, Note_on_c, 0, 66, 84
2, 220124, Note_off_c, 0, 74, 100
2, 220128, Note_on_c, 0, 74, 86
2, 220220, Note_off_c, 0, 66, 100
2, 220224, Note_on_c, 0, 69, 87
2, 220316, Note_off_c, 0, 74, 100
2, 220320, Note_on_c, 0, 74, 88
2, 220412, Note_off_c, 0, 69, 100
2, 220416, Note_on_c, 0, 69, 89
2, 220508, Note_off_c, 0, 74, 100
2, 220512, Note_on_c, 0, 74, 91
2, 220604, Note_off_c, 0, 69, 100
2, 220608, Note_on_c, 0, 72, 92
2, 220700, Note_off_c, 0, 74, 100
2, 220704, Note_on_c, 0, 74, 93
2, 220796, Note_off_c, 0, 72, 100
2, 220800, Note_on_c, 0, 69, 94
2, 220892, Note_off_c, 0, 74, 100
2, 220896, Note_on_c, 0, 74, 96
2, 220988, Note_off_c, 0, 69, 100
2, 220992, Note_on_c, 0, 72, 97
2, 221084, Note_off_c, 0, 74, 100
2, 221088, Note_on_c, 0, 74, 98
2, 221176, Control_c, 0, 64, 0
2, 221180, Note_off_c, 0, 72, 100
2, 221184, Control_c, 0, 64, 127
2, 221184, Note_on_c, 0, 67, 100
2, 221276, Note_off_c, 0, 74, 100
2, 221280, Note_on_c, 0, 74, 80
2, 221372, Note_off_c, 0, 67, 100
2, 221376, Note_on_c, 0, 71, 80
2, 221468, Note_off_c, 0, 74, 100
2, 221472, Note_on_c, 0, 74, 80
2, 221564, Note_off_c, 0, 71, 100
2, 221568, Note_on_c, 0, 67, 80
2, 221660, Note_off_c, 0, 74, 100
2, 221664, Note_on_c, 0, 74, 80
2, 221756, Note_off_c, 0, 67, 100
2, 221760, Note_on_c, 0, 71, 80
2, 221852, Note_off_c, 0, 74, 100
2, 221856, Note_on_c, 0, 74, 80
2, 221948, Note_off_c, 0, 71, 100
2, 221952, Note_on_c, 0, 67, 80
2, 222044, Note_off_c, 0, 74, 100
2, 222048, Note_on_c, 0, 74, 80
2, 222140, Note_off_c, 0, 67, 100
2, 222144, Note_on_c, 0, 71, 80
2, 222236, Note_off_c, 0, 74, 100
2, 222240, Note_on_c, 0, 74, 80
2, 222332, Note_off_c, 0, 71, 100
2, 222336, Note_on_c, 0, 67, 80
2, 222428, Note_off_c, 0, 74, 100
2, 222432, Note_on_c, 0, 74, 80
2, 222524, Note_off_c, 0, 67, 100
2, 222528, Note_on_c, 0, 71, 80
2, 222620, Note_off_c, 0, 74, 100
2, 222624, Note_on_c, 0, 74, 80
2, 222712, Control_c, 0, 64, 0
2, 222716, Note_off_c, 0, 71, 100
2, 222720, Control_c, 0, 64, 127
2, 222720, Note_on_c, 0, 69, 80
2, 222812, Note_off_c, 0, 74, 100
2, 222816, Note_on_c, 0, 74, 80
2, 222908, Note_off_c, 0, 69, 100
2, 222912, Note_on_c, 0, 72, 80
2, 223004, Note_off_c, 0, 74, 100
2, 223008, Note_on_c, 0, 74, 80
2, 223100, Note_off_c, 0, 72, 100
2, 223104, Note_on_c, 0, 69, 80
2, 223196, Note_off_c, 0, 74, 100
2, 223200, Note_on_c, 0, 74, 80
2, 223292, Note_off_c, 0, 69, 100
2, 223296, Note_on_c, 0, 72, 80
2, 223388, Note_off_c, 0, 74, 100
2, 223392, Note_on_c, 0, 74, 80
2, 223484, Note_off_c, 0, 72, 100
2, 223488, Note_on_c, 0, 69, 80
2, 223580, Note_off_c, 0, 74, 100
2, 223584, Note_on_c, 0, 74, 80
2, 223676, Note_off_c, 0, 69, 100
2, 223680, Note_on_c, 0, 72, 80
2, 223772, Note_off_c, 0, 74, 100
2, 223776, Note_on_c, 0, 74, 80
2, 223868, Note_off_c, 0, 72, 100
2, 223872, Note_on_c, 0, 69, 80
2, 223964, Note_off_c, 0, 74, 100
2, 223968, Note_on_c, 0, 74, 80
2, 224060, Note_off_c, 0, 69, 100
2, 224064, Note_on_c, 0, 72, 80
2, 224156, Note_off_c, 0, 74, 100
2, 224160, Note_on_c, 0, 74, 80
2, 224248, Control_c, 0, 64, 0
2, 224252, Note_off_c, 0, 72, 100
2, 224256, Control_c, 0, 64, 127
2, 224256, Note_on_c, 0, 67, 80
2, 224348, Note_off_c, 0, 74, 100
2, 224352, Note_on_c, 0, 74, 80
2, 224444, Note_off_c, 0, 67, 100
2, 224448, Note_on_c, 0, 71, 80
2, 224540, Note_off_c, 0, 74, 100
2, 224544, Note_on_c, 0, 74, 80
2, 224636, Note_off_c, 0, 71, 100
2, 224640, Note_on_c, 0, 67, 80
2, 224732, Note_off_c, 0, 74, 100
2, 224736, Note_on_c, 0, 74, 80
2, 224828, Note_off_c, 0, 67, 100
2, 224832, Note_on_c, 0, 71, 80
2, 224924, Note_off_c, 0, 74, 100
2, 224928, Note_on_c, 0, 74, 80
2, 225020, Note_off_c, 0, 71, 100
2, 225024, Note_on_c, 0, 67, 80
2, 225116, Note_off_c, 0, 74, 100
2, 225120, Note_on_c, 0, 74, 80
2, 225212, Note_off_c, 0, 67, 100
2, 225216, Note_on_c, 0, 71, 80
2, 225308, Note_off_c, 0, 74, 100
2, 225312, Note_on_c, 0, 74, 80
2, 225404, Note_off_c, 0, 71, 100
2, 225408, Note_on_c, 0, 67, 80
2, 225500, Note_off_c, 0, 74, 100
2, 225504, Note_on_c, 0, 74, 80
2, 225596, Note_off_c, 0, 67, 100
2, 225600, Note_on_c, 0, 71, 80
2, 225692, Note_off_c, 0, 74, 100
2, 225696, Note_on_c, 0, 74, 80
2, 225784, Control_c, 0, 64, 0
2, 225788, Note_off_c, 0, 71, 100
2, 225792, Control_c, 0, 64, 127
2, 225792, Note_on_c, 0, 68, 80
2, 225884, Note_off_c, 0, 74, 100
2, 225888, Note_on_c, 0, 74, 80
2, 225980, Note_off_c, 0, 68, 100
2, 225984, Note_on_c, 0, 71, 80
2, 226076, Note_off_c, 0, 74, 100
2, 226080, Note_on_c, 0, 74, 80
2, 226172, Note_off_c, 0, 71, 100
2, 226176, Note_on_c, 0, 68, 80
2, 226268, Note_off_c, 0, 74, 100
2, 226272, Note_on_c, 0, 73, 80
2, 226364, Note_off_c, 0, 68, 100
2, 226368, Note_on_c, 0, 71, 80
2, 226460, Note_off_c, 0, 73, 100
2, 226464, Note_on_c, 0, 73, 80
2, 226556, Note_off_c, 0, 71, 100
2, 226560, Note_on_c, 0, 68, 80
2, 226652, Note_off_c, 0, 73, 100
2, 226656, Note_on_c, 0, 73, 80
2, 226748, Note_off_c, 0, 68, 100
2, 226752, Note_on_c, 0, 71, 80
2, 226844, Note_off_c, 0, 73, 100
2, 226848, Note_on_c, 0, 73, 80
2, 226940, Note_off_c, 0, 71, 100
2, 226944, Note_on_c, 0, 68, 80
2, 227036, Note_off_c, 0, 73, 100
2, 227040, Note_on_c, 0, 73, 80
2, 227132, Note_off_c, 0, 68, 100
2, 227136, Note_on_c, 0, 71, 80
2, 227228, Note_off_c, 0, 73, 100
2, 227232, Note_on_c, 0, 73, 80
2, 227320, Control_c, 0, 64, 0
2, 227324, Note_off_c, 0, 71, 100
2, 227328, Control_c, 0, 64, 127
2, 227328, Note_on_c, 0, 66, 80
2, 227420, Note_off_c, 0, 73, 100
2, 227424, Note_on_c, 0, 73, 80
2, 227516, Note_off_c, 0, 66, 100
2, 227520, Note_on_c, 0, 69, 81
2, 227612, Note_off_c, 0, 73, 100
2, 227616, Note_on_c, 0, 73, 81
2, 227708, Note_off_c, 0, 69, 100
2, 227712, Note_on_c, 0, 66, 82
2, 227804, Note_off_c, 0, 73, 100
2, 227808, Note_on_c, 0, 73, 83
2, 227900, Note_off_c, 0, 66, 100
2, 227904, Note_on_c, 0, 69, 83
2, 227996, Note_off_c, 0, 73, 100
2, 228000, Note_on_c, 0, 73, 84
2, 228092, Note_off_c, 0, 69, 100
2, 228096, Note_on_c, 0, 66, 84
2, 228188, Note_off_c, 0, 73, 100
2, 228192, Note_on_c, 0, 78, 85
2, 228284, Note_off_c, 0, 66, 100
2, 228288, Note_on_c, 0, 69, 86
2, 228380, Note_off_c, 0, 78, 100
2, 228384, Note_on_c, 0, 78, 86
2, 228476, Note_off_c, 0, 69, 100
2, 228480, Note_on_c, 0, 66, 87
2, 228572, Note_off_c, 0, 78, 100
2, 228576, Note_on_c, 0, 78, 88
2, 228668, Note_off_c, 0, 66, 100
2, 228672, Note_on_c, 0, 69, 88
2, 228764, Note_off_c, 0, 78, 100
2, 228768, Note_on_c, 0, 78, 89
2, 228856, Control_c, 0, 64, 0
2, 228860, Note_off_c, 0, 69, 100
2, 228864, Control_c, 0, 64, 127
2, 228864, Note_on_c, 0, 66, 89
2, 228956, Note_off_c, 0, 78, 100
2, 228960, Note_on_c, 0, 78, 90
2, 229052, Note_off_c, 0, 66, 100
2, 229056, Note_on_c, 0, 68, 91
2, 229056, Note_on_c, 0, 75, 91
2, 229148, Note_off_c, 0, 78, 100
2, 229152, Note_on_c, 0, 78, 91
2, 229244, Note_off_c, 0, 68, 100
2, 229244, Note_off_c, 0, 75, 100
2, 229248, Note_on_c, 0, 66, 92
2, 229340, Note_off_c, 0, 78, 100
2, 229344, Note_on_c, 0, 78, 93
2, 229436, Note_off_c, 0, 66, 100
2, 229440, Note_on_c, 0, 68, 93
2, 229440, Note_on_c, 0, 75, 93
2, 229532, Note_off_c, 0, 78, 100
2, 229536, Note_on_c, 0, 78, 94
2, 229628, Note_off_c, 0, 68, 100
2, 229628, Note_off_c, 0, 75, 100
2, 229632, Note_on_c, 0, 66, 94
2, 229724, Note_off_c, 0, 78, 100
2, 229728, Note_on_c, 0, 78, 95
2, 229820, Note_off_c, 0, 66, 100
2, 229824, Note_on_c, 0, 68, 96
2, 229824, Note_on_c, 0, 75, 96
2, 229916, Note_off_c, 0, 78, 100
2, 229920, Note_on_c, 0, 78, 96
2, 230012, Note_off_c, 0, 68, 100
2, 230012, Note_off_c, 0, 75, 100
2, 230016, Note_on_c, 0, 66, 97
2, 230108, Note_off_c, 0, 78, 100
2, 230112, Note_on_c, 0, 78, 98
2, 230204, Note_off_c, 0, 66, 100
2, 230208, Note_on_c, 0, 68, 98
2, 230208, Note_on_c, 0, 75, 98
2, 230300, Note_off_c, 0, 78, 100
2, 230304, Note_on_c, 0, 78, 99
2, 230392, Control_c, 0, 64, 0
2, 230396, Note_off_c, 0, 68, 100
2, 230396, Note_off_c, 0, 75, 100
2, 230400, Control_c, 0, 64, 127
2, 230400, Note_on_c, 0, 64, 100
2, 230492, Note_off_c, 0, 78, 100
2, 230496, Note_on_c, 0, 76, 100
2, 230588, Note_off_c, 0, 64, 100
2, 230592, Note_on_c, 0, 73, 100
2, 230684, Note_off_c, 0, 76, 100
2, 230688, Note_on_c, 0, 76, 100
2, 230780, Note_off_c, 0, 73, 100
2, 230784, Note_on_c, 0, 64, 100
2, 230876, Note_off_c, 0, 76, 100
2, 230880, Note_on_c, 0, 76, 100
2, 230972, Note_off_c, 0, 64, 100
2, 230976, Note_on_c, 0, 73, 100
2, 231068, Note_off_c, 0, 76, 100
2, 231072, Note_on_c, 0, 76, 100
2, 231164, Note_off_c, 0, 73, 100
2, 231168, Note_on_c, 0, 64, 100
2, 231260, Note_off_c, 0, 76, 100
2, 231264, Note_on_c, 0, 76, 100
2, 231356, Note_off_c, 0, 64, 100
2, 231360, Note_on_c, 0, 73, 100
2, 231452, Note_off_c, 0, 76, 100
2, 231456, Note_on_c, 0, 76, 100
2, 231548, Note_off_c, 0, 73, 100
2, 231552, Note_on_c, 0, 64, 100
2, 231644, Note_off_c, 0, 76, 100
2, 231648, Note_on_c, 0, 76, 100
2, 231740, Note_off_c, 0, 64, 100
2, 231744, Note_on_c, 0, 73, 100
2, 231836, Note_off_c, 0, 76, 100
2, 231840, Note_on_c, 0, 76, 100
2, 231928, Control_c, 0, 64, 0
2, 231932, Note_off_c, 0, 73, 100
2, 231936, Control_c, 0, 64, 127
2, 231936, Note_on_c, 0, 63, 100
2, 232028, Note_off_c, 0, 76, 100
2, 232032, Note_on_c, 0, 75, 99
2, 232124, Note_off_c, 0, 63, 100
2, 232128, Note_on_c, 0, 73, 98
2, 232220, Note_off_c, 0, 75, 100
2, 232224, Note_on_c, 0, 75, 97
2, 232316, Note_off_c, 0, 73, 100
2, 232320, Note_on_c, 0, 63, 96
2, 232412, Note_off_c, 0, 75, 100
2, 232416, Note_on_c, 0, 75, 94
2, 232508, Note_off_c, 0, 63, 100
2, 232512, Note_on_c, 0, 73, 93
2, 232604, Note_off_c, 0, 75, 100
2, 232608, Note_on_c, 0, 75, 92
2, 232700, Note_off_c, 0, 73, 100
2, 232704, Note_on_c, 0, 63, 91
2, 232796, Note_off_c, 0, 75, 100
2, 232800, Note_on_c, 0, 75, 89
2, 232892, Note_off_c, 0, 63, 100
2, 232896, Note_on_c, 0, 73, 88
2, 232988, Note_off_c, 0, 75, 100
2, 232992, Note_on_c, 0, 75, 87
2, 233084, Note_off_c, 0, 73, 100
2, 233088, Note_on_c, 0, 63, 86
2, 233180, Note_off_c, 0, 75, 100
2, 233184, Note_on_c, 0, 75, 84
2, 233276, Note_off_c, 0, 63, 100
2, 233280, Note_on_c, 0, 73, 83
2, 233372, Note_off_c, 0, 75, 100
2, 233376, Note_on_c, 0, 75, 82
2, 233464, Control_c, 0, 64, 0
2, 233468, Note_off_c, 0, 73, 100
2, 233472, Note_on_c, 0, 63, 100
2, 233472, Note_on_c, 0, 72, 100
2, 233472, Note_on_c, 0, 75, 100
2, 233564, Note_off_c, 0, 75, 100
2, 233852, Note_off_c, 0, 63, 100
2, 233852, Note_off_c, 0, 72, 100
2, 233852, Note_off_c, 0, 75, 100
2, 233856, Note_on_c, 0, 68, 80
2, 234620, Note_off_c, 0, 68, 100
2, 234624, Note_on_c, 0, 69, 80
2, 234812, Note_off_c, 0, 69, 100
2, 234816, Note_on_c, 0, 68, 80
2, 235004, Note_off_c, 0, 68, 100
2, 235008, Note_on_c, 0, 57, 80
2, 235008, Note_on_c, 0, 61, 80
2, 235008, Note_on_c, 0, 66, 80
2, 235388, Note_off_c, 0, 66, 100
2, 235392, Note_on_c, 0, 68, 80
2, 235580, Note_off_c, 0, 68, 100
2, 235584, Note_on_c, 0, 66, 80
2, 235772, Note_off_c, 0, 57, 100
2, 235772, Note_off_c, 0, 61, 100
2, 235772, Note_off_c, 0, 66, 100
2, 235776, Note_on_c, 0, 56, 80
2, 235776, Note_on_c, 0, 59, 80
2, 235776, Note_on_c, 0, 64, 80
2, 236156, Note_off_c, 0, 64, 100
2, 236160, Note_on_c, 0, 66, 80
2, 236348, Note_off_c, 0, 66, 100
2, 236352, Note_on_c, 0, 64, 80
2, 236540, Note_off_c, 0, 56, 100
2, 236540, Note_off_c, 0, 59, 100
2, 236540, Note_off_c, 0, 64, 100
2, 236544, Note_on_c, 0, 63, 80
2, 236544, Note_on_c, 0, 54, 80
2, 236544, Note_on_c, 0, 57, 80
2, 236924, Note_off_c, 0, 63, 100
2, 236928, Note_on_c, 0, 64, 80
2, 237116, Note_off_c, 0, 64, 100
2, 237120, Note_on_c, 0, 63, 80
2, 237308, Note_off_c, 0, 54, 100
2, 237308, Note_off_c, 0, 57, 100
2, 237308, Note_off_c, 0, 63, 100
2, 237312, Note_on_c, 0, 61, 80
2, 237312, Note_on_c, 0, 52, 80
2, 237312, Note_on_c, 0, 56, 80
2, 237692, Note_off_c, 0, 61, 100
2, 237696, Note_on_c, 0, 63, 80
2, 237884, Note_off_c, 0, 63, 100
2, 237888, Note_on_c, 0, 61, 80
2, 238076, Note_off_c, 0, 52, 100
2, 238076, Note_off_c, 0, 56, 100
2, 238076, Note_off_c, 0, 61, 100
2, 238080, Note_on_c, 0, 51, 80
2, 238080, Note_on_c, 0, 54, 80
2, 238080, Note_on_c, 0, 60, 80
2, 238844, Note_off_c, 0, 51, 100
2, 238844, Note_off_c, 0, 54, 100
2, 238844, Note_off_c, 0, 60, 100
2, 238848, Note_on_c, 0, 49, 80
2, 238848, Note_on_c, 0, 52, 80
2, 238848, Note_on_c, 0, 61, 80
2, 239520, Note_on_c, 0, 48, 80
2, 239580, Note_on_c, 0, 56, 80
2, 239612, Note_off_c, 0, 49, 100
2, 239612, Note_off_c, 0, 52, 100
2, 239612, Note_off_c, 0, 61, 100
2, 239616, Note_on_c, 0, 63, 81
2, 239996, Note_off_c, 0, 63, 100
2, 240000, Note_on_c, 0, 80, 86
2, 240092, Note_off_c, 0, 48, 100
2, 240152, Note_off_c, 0, 56, 100
2, 240572, Note_off_c, 0, 80, 100
2, 240576, Note_on_c, 0, 80, 94
2, 240764, Note_off_c, 0, 80, 100
2, 240768, Note_on_c, 0, 81, 97
2, 240956, Note_off_c, 0, 81, 100
2, 240960, Note_on_c, 0, 80, 99
2, 241148, Note_off_c, 0, 80, 100
2, 241152, Note_on_c, 0, 78, 100
2, 241340, Note_off_c, 0, 78, 100
2, 241344, Note_on_c, 0, 69, 100
2, 241344, Note_on_c, 0, 73, 100
2, 241344, Note_on_c, 0, 78, 100
2, 241532, Note_off_c, 0, 69, 100
2, 241532, Note_off_c, 0, 73, 100
2, 241532, Note_off_c, 0, 78, 100
2, 241536, Note_on_c, 0, 71, 100
2, 241536, Note_on_c, 0, 75, 100
2, 241536, Note_on_c, 0, 80, 100
2, 241724, Note_off_c, 0, 71, 100
2, 241724, Note_off_c, 0, 75, 100
2, 241724, Note_off_c, 0, 80, 100
2, 241728, Note_on_c, 0, 69, 100
2, 241728, Note_on_c, 0, 73, 100
2, 241728, Note_on_c, 0, 78, 100
2, 241916, Note_off_c, 0, 69, 100
2, 241916, Note_off_c, 0, 73, 100
2, 241916, Note_off_c, 0, 78, 100
2, 241920, Note_on_c, 0, 68, 100
2, 241920, Note_on_c, 0, 71, 100
2, 241920, Note_on_c, 0, 76, 100
2, 242108, Note_off_c, 0, 68, 100
2, 242108, Note_off_c, 0, 71, 100
2, 242108, Note_off_c, 0, 76, 100
2, 242112, Note_on_c, 0, 68, 100
2, 242112, Note_on_c, 0, 71, 100
2, 242112, Note_on_c, 0, 76, 100
2, 242300, Note_off_c, 0, 68, 100
2, 242300, Note_off_c, 0, 71, 100
2, 242300, Note_off_c, 0, 76, 100
2, 242304, Note_on_c, 0, 69, 100
2, 242304, Note_on_c, 0, 73, 100
2, 242304, Note_on_c, 0, 78, 100
2, 242492, Note_off_c, 0, 69, 100
2, 242492, Note_off_c, 0, 73, 100
2, 242492, Note_off_c, 0, 78, 100
2, 242496, Note_on_c, 0, 68, 100
2, 242496, Note_on_c, 0, 71, 100
2, 242496, Note_on_c, 0, 76, 100
2, 242684, Note_off_c, 0, 68, 100
2, 242684, Note_off_c, 0, 71, 100
2, 242684, Note_off_c, 0, 76, 100
2, 242688, Note_on_c, 0, 66, 100
2, 242688, Note_on_c, 0, 69, 100
2, 242688, Note_on_c, 0, 75, 100
2, 242876, Note_off_c, 0, 66, 100
2, 242876, Note_off_c, 0, 69, 100
2, 242876, Note_off_c, 0, 75, 100
2, 242880, Note_on_c, 0, 69, 100
2, 242880, Note_on_c, 0, 66, 100
2, 242880, Note_on_c, 0, 75, 100
2, 243068, Note_off_c, 0, 69, 100
2, 243068, Note_off_c, 0, 66, 100
2, 243068, Note_off_c, 0, 75, 100
2, 243072, Note_on_c, 0, 68, 100
2, 243072, Note_on_c, 0, 71, 100
2, 243072, Note_on_c, 0, 76, 100
2, 243260, Note_off_c, 0, 68, 100
2, 243260, Note_off_c, 0, 71, 100
2, 243260, Note_off_c, 0, 76, 100
2, 243264, Note_on_c, 0, 66, 100
2, 243264, Note_on_c, 0, 69, 100
2, 243264, Note_on_c, 0, 75, 100
2, 243452, Note_off_c, 0, 66, 100
2, 243452, Note_off_c, 0, 69, 100
2, 243452, Note_off_c, 0, 75, 100
2, 243456, Note_on_c, 0, 64, 100
2, 243456, Note_on_c, 0, 68, 100
2, 243456, Note_on_c, 0, 73, 100
2, 243644, Note_off_c, 0, 64, 100
2, 243644, Note_off_c, 0, 68, 100
2, 243644, Note_off_c, 0, 73, 100
2, 243648, Note_on_c, 0, 68, 100
2, 243648, Note_on_c, 0, 64, 100
2, 243648, Note_on_c, 0, 73, 100
2, 243836, Note_off_c, 0, 68, 100
2, 243836, Note_off_c, 0, 64, 100
2, 243836, Note_off_c, 0, 73, 100
2, 243840, Note_on_c, 0, 66, 100
2, 243840, Note_on_c, 0, 69, 100
2, 243840, Note_on_c, 0, 75, 100
2, 244028, Note_off_c, 0, 66, 100
2, 244028, Note_off_c, 0, 69, 100
2, 244028, Note_off_c, 0, 75, 100
2, 244032, Note_on_c, 0, 64, 100
2, 244032, Note_on_c, 0, 68, 100
2, 244032, Note_on_c, 0, 73, 100
2, 244220, Note_off_c, 0, 64, 100
2, 244220, Note_off_c, 0, 68, 100
2, 244220, Note_off_c, 0, 73, 100
2, 244224, Note_on_c, 0, 63, 100
2, 244224, Note_on_c, 0, 66, 100
2, 244224, Note_on_c, 0, 72, 100
2, 244988, Note_off_c, 0, 63, 100
2, 244988, Note_off_c, 0, 66, 100
2, 244988, Note_off_c, 0, 72, 100
2, 244992, Note_on_c, 0, 61, 109
2, 244992, Note_on_c, 0, 64, 109
2, 244992, Note_on_c, 0, 73, 109
2, 245756, Note_off_c, 0, 61, 100
2, 245756, Note_off_c, 0, 64, 100
2, 245756, Note_off_c, 0, 73, 100
2, 245760, Note_on_c, 0, 60, 100
2, 245808, Note_on_c, 0, 66, 100
2, 245856, Note_on_c, 0, 75, 99
2, 246908, Note_off_c, 0, 60, 100
2, 246908, Note_off_c, 0, 66, 100
2, 246908, Note_off_c, 0, 75, 100
2, 246912, Note_on_c, 0, 61, 81
2, 246912, Note_on_c, 0, 64, 81
2, 246912, Note_on_c, 0, 73, 81
2, 247292, Note_off_c, 0, 61, 100
2, 247292, Note_off_c, 0, 64, 100
2, 247292, Note_off_c, 0, 73, 100
2, 247296, Note_on_c, 0, 63, 80
2, 247296, Note_on_c, 0, 66, 80
2, 247296, Note_on_c, 0, 72, 80
2, 247676, Note_off_c, 0, 63, 100
2, 247676, Note_off_c, 0, 66, 100
2, 247676, Note_off_c, 0, 72, 100
2, 247680, Note_on_c, 0, 63, 86
2, 247680, Note_on_c, 0, 66, 86
2, 247680, Note_on_c, 0, 72, 86
2, 248060, Note_off_c, 0, 63, 100
2, 248060, Note_off_c, 0, 66, 100
2, 248060, Note_off_c, 0, 72, 100
2, 248064, Note_on_c, 0, 61, 93
2, 248064, Note_on_c, 0, 64, 93
2, 248064, Note_on_c, 0, 73, 93
2, 248444, Note_off_c, 0, 61, 100
2, 248444, Note_off_c, 0, 64, 100
2, 248444, Note_off_c, 0, 73, 100
2, 248448, Note_on_c, 0, 61, 99
2, 248448, Note_on_c, 0, 64, 99
2, 248448, Note_on_c, 0, 73, 99
2, 248828, Note_off_c, 0, 61, 100
2, 248828, Note_off_c, 0, 64, 100
2, 248828, Note_off_c, 0, 73, 100
2, 248832, Note_on_c, 0, 60, 100
2, 248880, Note_on_c, 0, 66, 100
2, 248928, Note_on_c, 0, 75, 99
2, 249980, Note_off_c, 0, 60, 100
2, 249980, Note_off_c, 0, 66, 100
2, 249980, Note_off_c, 0, 75, 100
2, 249984, Note_on_c, 0, 61, 86
2, 249984, Note_on_c, 0, 64, 86
2, 250176, Note_on_c, 0, 73, 83
2, 250364, Note_off_c, 0, 61, 100
2, 250364, Note_off_c, 0, 64, 100
2, 250368, Note_on_c, 0, 63, 80
2, 250368, Note_on_c, 0, 66, 80
2, 250556, Note_off_c, 0, 73, 100
2, 250560, Note_on_c, 0, 72, 81
2, 250748, Note_off_c, 0, 63, 100
2, 250748, Note_off_c, 0, 66, 100
2, 250752, Note_on_c, 0, 63, 82
2, 250752, Note_on_c, 0, 66, 82
2, 250940, Note_off_c, 0, 72, 100
2, 250944, Note_on_c, 0, 72, 83
2, 251132, Note_off_c, 0, 63, 100
2, 251132, Note_off_c, 0, 66, 100
2, 251136, Note_on_c, 0, 61, 84
2, 251136, Note_on_c, 0, 64, 84
2, 251324, Note_off_c, 0, 72, 100
2, 251328, Note_on_c, 0, 73, 86
2, 251516, Note_off_c, 0, 61, 100
2, 251516, Note_off_c, 0, 64, 100
2, 251520, Note_on_c, 0, 61, 87
2, 251520, Note_on_c, 0, 64, 87
2, 251708, Note_off_c, 0, 73, 100
2, 251712, Note_on_c, 0, 73, 88
2, 251900, Note_off_c, 0, 61, 100
2, 251900, Note_off_c, 0, 64, 100
2, 251904, Note_on_c, 0, 60, 80
2, 251904, Note_on_c, 0, 66, 80
2, 252092, Note_off_c, 0, 73, 100
2, 252096, Note_on_c, 0, 75, 79
2, 252284, Note_off_c, 0, 60, 100
2, 252284, Note_off_c, 0, 66, 100
2, 252288, Note_on_c, 0, 60, 78
2, 252288, Note_on_c, 0, 66, 78
2, 252476, Note_off_c, 0, 75, 100
2, 252480, Note_on_c, 0, 75, 76
2, 252668, Note_off_c, 0, 60, 100
2, 252668, Note_off_c, 0, 66, 100
2, 252672, Note_on_c, 0, 61, 75
2, 252672, Note_on_c, 0, 64, 75
2, 252860, Note_off_c, 0, 75, 100
2, 252864, Note_on_c, 0, 73, 73
2, 253052, Note_off_c, 0, 61, 100
2, 253052, Note_off_c, 0, 64, 100
2, 253056, Note_on_c, 0, 61, 72
2, 253056, Note_on_c, 0, 64, 72
2, 253244, Note_off_c, 0, 73, 100
2, 253248, Note_on_c, 0, 73, 71
2, 253436, Note_off_c, 0, 61, 100
2, 253436, Note_off_c, 0, 64, 100
2, 253436, Note_off_c, 0, 73, 100
2, 253440, Note_on_c, 0, 57, 80
2, 253440, Note_on_c, 0, 61, 80
2, 253440, Note_on_c, 0, 63, 80
2, 253440, Note_on_c, 0, 69, 80
2, 254972, Note_off_c, 0, 57, 100
2, 254972, Note_off_c, 0, 61, 100
2, 254972, Note_off_c, 0, 63, 100
2, 254972, Note_off_c, 0, 69, 100
2, 254976, Note_on_c, 0, 68, 70
2, 254976, Note_on_c, 0, 63, 70
2, 254976, Note_on_c, 0, 60, 70
2, 254976, Note_on_c, 0, 56, 70
2, 258044, Note_off_c, 0, 56, 100
2, 258044, Note_off_c, 0, 60, 100
2, 258044, Note_off_c, 0, 63, 100
2, 258044, Note_off_c, 0, 68, 100
2, 258144, Note_on_c, 0, 44, 80
2, 258240, Note_on_c, 0, 49, 80
2, 258332, Note_off_c, 0, 44, 100
2, 258336, Note_on_c, 0, 52, 80
2, 258428, Note_off_c, 0, 49, 100
2, 258432, Note_on_c, 0, 56, 80
2, 258524, Note_off_c, 0, 52, 100
2, 258528, Note_on_c, 0, 49, 80
2, 258620, Note_off_c, 0, 56, 100
2, 258624, Note_on_c, 0, 52, 80
2, 258716, Note_off_c, 0, 49, 100
2, 258720, Note_on_c, 0, 56, 80
2, 258812, Note_off_c, 0, 52, 100
2, 258816, Note_on_c, 0, 61, 80
2, 258908, Note_off_c, 0, 56, 100
2, 258912, Note_on_c, 0, 52, 80
2, 259004, Note_off_c, 0, 61, 100
2, 259008, Note_on_c, 0, 56, 80
2, 259100, Note_off_c, 0, 52, 100
2, 259104, Note_on_c, 0, 61, 80
2, 259196, Note_off_c, 0, 56, 100
2, 259200, Note_on_c, 0, 64, 80
2, 259292, Note_off_c, 0, 61, 100
2, 259296, Note_on_c, 0, 56, 80
2, 259388, Note_off_c, 0, 64, 100
2, 259392, Note_on_c, 0, 61, 80
2, 259484, Note_off_c, 0, 56, 100
2, 259488, Note_on_c, 0, 64, 80
2, 259580, Note_off_c, 0, 61, 100
2, 259584, Note_on_c, 0, 68, 80
2, 259676, Note_off_c, 0, 64, 100
2, 259680, Note_on_c, 0, 61, 80
2, 259772, Note_off_c, 0, 68, 100
2, 259776, Note_on_c, 0, 64, 80
2, 259868, Note_off_c, 0, 61, 100
2, 259872, Note_on_c, 0, 68, 80
2, 259964, Note_off_c, 0, 64, 100
2, 259968, Note_on_c, 0, 73, 80
2, 260060, Note_off_c, 0, 68, 100
2, 260064, Note_on_c, 0, 64, 80
2, 260156, Note_off_c, 0, 73, 100
2, 260160, Note_on_c, 0, 68, 80
2, 260252, Note_off_c, 0, 64, 100
2, 260256, Note_on_c, 0, 73, 80
2, 260348, Note_off_c, 0, 68, 100
2, 260352, Note_on_c, 0, 76, 80
2, 260444, Note_off_c, 0, 73, 100
2, 260448, Note_on_c, 0, 68, 80
2, 260540, Note_off_c, 0, 76, 100
2, 260544, Note_on_c, 0, 73, 80
2, 260636, Note_off_c, 0, 68, 100
2, 260640, Note_on_c, 0, 76, 80
2, 260732, Note_off_c, 0, 73, 100
2, 260732, Note_off_c, 0, 76, 100
2, 260736, Control_c, 0, 64, 127
2, 260736, Note_on_c, 0, 68, 110
2, 260736, Note_on_c, 0, 73, 110
2, 260736, Note_on_c, 0, 76, 110
2, 260736, Note_on_c, 0, 80, 110
2, 260924, Note_off_c, 0, 68, 100
2, 260924, Note_off_c, 0, 73, 100
2, 260924, Note_off_c, 0, 76, 100
2, 260924, Note_off_c, 0, 80, 100
2, 260928, Note_on_c, 0, 80, 110
2, 260928, Note_on_c, 0, 76, 110
2, 260928, Note_on_c, 0, 73, 110
2, 260928, Note_on_c, 0, 68, 110
2, 261112, Control_c, 0, 64, 0
2, 261116, Note_off_c, 0, 80, 100
2, 261116, Note_off_c, 0, 76, 100
2, 261116, Note_off_c, 0, 73, 100
2, 261116, Note_off_c, 0, 68, 100
2, 261216, Note_on_c, 0, 44, 80
2, 261312, Note_on_c, 0, 48, 80
2, 261404, Note_off_c, 0, 44, 100
2, 261408, Note_on_c, 0, 51, 80
2, 261500, Note_off_c, 0, 48, 100
2, 261504, Note_on_c, 0, 56, 80
2, 261596, Note_off_c, 0, 51, 100
2, 261600, Note_on_c, 0, 48, 80
2, 261692, Note_off_c, 0, 56, 100
2, 261696, Note_on_c, 0, 51, 80
2, 261788, Note_off_c, 0, 48, 100
2, 261792, Note_on_c, 0, 56, 80
2, 261884, Note_off_c, 0, 51, 100
2, 261888, Note_on_c, 0, 60, 80
2, 261980, Note_off_c, 0, 56, 100
2, 261984, Note_on_c, 0, 51, 80
2, 262076, Note_off_c, 0, 60, 100
2, 262080, Note_on_c, 0, 56, 80
2, 262172, Note_off_c, 0, 51, 100
2, 262176, Note_on_c, 0, 60, 80
2, 262268, Note_off_c, 0, 56, 100
2, 262272, Note_on_c, 0, 63, 80
2, 262364, Note_off_c, 0, 60, 100
2, 262368, Note_on_c, 0, 56, 80
2, 262460, Note_off_c, 0, 63, 100
2, 262464, Note_on_c, 0, 60, 80
2, 262556, Note_off_c, 0, 56, 100
2, 262560, Note_on_c, 0, 63, 80
2, 262652, Note_off_c, 0, 60, 100
2, 262656, Note_on_c, 0, 68, 80
2, 262748, Note_off_c, 0, 63, 100
2, 262752, Note_on_c, 0, 60, 80
2, 262844, Note_off_c, 0, 68, 100
2, 262848, Note_on_c, 0, 63, 80
2, 262940, Note_off_c, 0, 60, 100
2, 262944, Note_on_c, 0, 68, 80
2, 263036, Note_off_c, 0, 63, 100
2, 263040, Note_on_c, 0, 72, 80
2, 263132, Note_off_c, 0, 68, 100
2, 263136, Note_on_c, 0, 63, 80
2, 263228, Note_off_c, 0, 72, 100
2, 263232, Note_on_c, 0, 68, 80
2, 263324, Note_off_c, 0, 63, 100
2, 263328, Note_on_c, 0, 72, 80
2, 263420, Note_off_c, 0, 68, 100
2, 263424, Note_on_c, 0, 75, 80
2, 263516, Note_off_c, 0, 72, 100
2, 263520, Note_on_c, 0, 68, 80
2, 263612, Note_off_c, 0, 75, 100
2, 263616, Note_on_c, 0, 72, 80
2, 263708, Note_off_c, 0, 68, 100
2, 263712, Note_on_c, 0, 75, 80
2, 263804, Note_off_c, 0, 72, 100
2, 263804, Note_off_c, 0, 75, 100
2, 263808, Control_c, 0, 64, 127
2, 263808, Note_on_c, 0, 68, 110
2, 263808, Note_on_c, 0, 72, 110
2, 263808, Note_on_c, 0, 75, 110
2, 263808, Note_on_c, 0, 80, 110
2, 263996, Note_off_c, 0, 68, 100
2, 263996, Note_off_c, 0, 72, 100
2, 263996, Note_off_c, 0, 75, 100
2, 263996, Note_off_c, 0, 80, 100
2, 264000, Note_on_c, 0, 68, 110
2, 264000, Note_on_c, 0, 72, 110
2, 264000, Note_on_c, 0, 75, 110
2, 264000, Note_on_c, 0, 80, 110
2, 264184, Control_c, 0, 64, 0
2, 264188, Note_off_c, 0, 68, 100
2, 264188, Note_off_c, 0, 72, 100
2, 264188, Note_off_c, 0, 75, 100
2, 264188, Note_off_c, 0, 80, 100
2, 264288, Note_on_c, 0, 49, 80
2, 264384, Note_on_c, 0, 53, 80
2, 264476, Note_off_c, 0, 49, 100
2, 264480, Note_on_c, 0, 56, 80
2, 264572, Note_off_c, 0, 53, 100
2, 264576, Note_on_c, 0, 61, 80
2, 264668, Note_off_c, 0, 56, 100
2, 264672, Note_on_c, 0, 53, 80
2, 264764, Note_off_c, 0, 61, 100
2, 264768, Note_on_c, 0, 56, 80
2, 264860, Note_off_c, 0, 53, 100
2, 264864, Note_on_c, 0, 61, 80
2, 264956, Note_off_c, 0, 56, 100
2, 264960, Note_on_c, 0, 65, 80
2, 265052, Note_off_c, 0, 61, 100
2, 265056, Note_on_c, 0, 56, 80
2, 265148, Note_off_c, 0, 65, 100
2, 265152, Note_on_c, 0, 61, 80
2, 265244, Note_off_c, 0, 56, 100
2, 265248, Note_on_c, 0, 65, 80
2, 265340, Note_off_c, 0, 61, 100
2, 265344, Note_on_c, 0, 68, 80
2, 265436, Note_off_c, 0, 65, 100
2, 265440, Note_on_c, 0, 61, 80
2, 265532, Note_off_c, 0, 68, 100
2, 265536, Note_on_c, 0, 65, 80
2, 265628, Note_off_c, 0, 61, 100
2, 265632, Note_on_c, 0, 68, 80
2, 265724, Note_off_c, 0, 65, 100
2, 265728, Note_on_c, 0, 73, 80
2, 265820, Note_off_c, 0, 68, 100
2, 265824, Note_on_c, 0, 65, 80
2, 265916, Note_off_c, 0, 73, 100
2, 265920, Note_on_c, 0, 68, 80
2, 266012, Note_off_c, 0, 65, 100
2, 266016, Note_on_c, 0, 73, 80
2, 266108, Note_off_c, 0, 68, 100
2, 266112, Note_on_c, 0, 77, 80
2, 266204, Note_off_c, 0, 73, 100
2, 266208, Note_on_c, 0, 68, 80
2, 266300, Note_off_c, 0, 77, 100
2, 266304, Note_on_c, 0, 73, 80
2, 266396, Note_off_c, 0, 68, 100
2, 266400, Note_on_c, 0, 77, 80
2, 266492, Note_off_c, 0, 73, 100
2, 266496, Note_on_c, 0, 80, 80
2, 266588, Note_off_c, 0, 77, 100
2, 266592, Note_on_c, 0, 73, 80
2, 266684, Note_off_c, 0, 80, 100
2, 266688, Note_on_c, 0, 77, 80
2, 266780, Note_off_c, 0, 73, 100
2, 266784, Note_on_c, 0, 80, 80
2, 266876, Note_off_c, 0, 77, 100
2, 266876, Note_off_c, 0, 80, 100
2, 266880, Control_c, 0, 64, 127
2, 266880, Note_on_c, 0, 73, 110
2, 266880, Note_on_c, 0, 77, 110
2, 266880, Note_on_c, 0, 80, 110
2, 266880, Note_on_c, 0, 85, 110
2, 267068, Note_off_c, 0, 73, 100
2, 267068, Note_off_c, 0, 77, 100
2, 267068, Note_off_c, 0, 80, 100
2, 267068, Note_off_c, 0, 85, 100
2, 267072, Note_on_c, 0, 85, 110
2, 267072, Note_on_c, 0, 80, 110
2, 267072, Note_on_c, 0, 77, 110
2, 267072, Note_on_c, 0, 73, 110
2, 267256, Control_c, 0, 64, 0
2, 267260, Note_off_c, 0, 85, 100
2, 267260, Note_off_c, 0, 80, 100
2, 267260, Note_off_c, 0, 77, 100
2, 267260, Note_off_c, 0, 73, 100
2, 267360, Note_on_c, 0, 49, 90
2, 267456, Note_on_c, 0, 54, 90
2, 267548, Note_off_c, 0, 49, 100
2, 267552, Note_on_c, 0, 57, 90
2, 267644, Note_off_c, 0, 54, 100
2, 267648, Note_on_c, 0, 61, 90
2, 267740, Note_off_c, 0, 57, 100
2, 267740, Note_off_c, 0, 61, 100
2, 267744, Note_on_c, 0, 61, 90
2, 267840, Note_on_c, 0, 66, 90
2, 267932, Note_off_c, 0, 61, 100
2, 267936, Note_on_c, 0, 69, 90
2, 268028, Note_off_c, 0, 66, 100
2, 268032, Note_on_c, 0, 73, 90
2, 268124, Note_off_c, 0, 69, 100
2, 268124, Note_off_c, 0, 73, 100
2, 268128, Note_on_c, 0, 73, 90
2, 268224, Note_on_c, 0, 78, 90
2, 268316, Note_off_c, 0, 73, 100
2, 268320, Note_on_c, 0, 81, 90
2, 268412, Note_off_c, 0, 78, 100
2, 268416, Control_c, 0, 64, 127
2, 268416, Note_on_c, 0, 85, 110
2, 268416, Note_on_c, 0, 73, 110
2, 268416, Note_on_c, 0, 78, 110
2, 268508, Note_off_c, 0, 81, 100
2, 268604, Note_off_c, 0, 85, 100
2, 268604, Note_off_c, 0, 73, 100
2, 268604, Note_off_c, 0, 78, 100
2, 268608, Note_on_c, 0, 78, 110
2, 268608, Note_on_c, 0, 85, 110
2, 268608, Note_on_c, 0, 73, 110
2, 268792, Control_c, 0, 64, 0
2, 268796, Note_off_c, 0, 78, 100
2, 268796, Note_off_c, 0, 85, 100
2, 268796, Note_off_c, 0, 73, 100
2, 268896, Note_on_c, 0, 49, 90
2, 268992, Note_on_c, 0, 52, 90
2, 269084, Note_off_c, 0, 49, 100
2, 269088, Note_on_c, 0, 55, 90
2, 269180, Note_off_c, 0, 52, 100
2, 269184, Note_on_c, 0, 61, 90
2, 269276, Note_off_c, 0, 55, 100
2, 269276, Note_off_c, 0, 61, 100
2, 269280, Note_on_c, 0, 61, 90
2, 269376, Note_on_c, 0, 64, 90
2, 269468, Note_off_c, 0, 61, 100
2, 269472, Note_on_c, 0, 67, 90
2, 269564, Note_off_c, 0, 64, 100
2, 269568, Note_on_c, 0, 73, 90
2, 269660, Note_off_c, 0, 67, 100
2, 269660, Note_off_c, 0, 73, 100
2, 269664, Note_on_c, 0, 73, 90
2, 269760, Note_on_c, 0, 76, 90
2, 269852, Note_off_c, 0, 73, 100
2, 269856, Note_on_c, 0, 79, 90
2, 269948, Note_off_c, 0, 76, 100
2, 269948, Note_off_c, 0, 79, 100
2, 269952, Control_c, 0, 64, 127
2, 269952, Note_on_c, 0, 73, 110
2, 269952, Note_on_c, 0, 85, 110
2, 269952, Note_on_c, 0, 79, 110
2, 270140, Note_off_c, 0, 73, 100
2, 270140, Note_off_c, 0, 85, 100
2, 270140, Note_off_c, 0, 79, 100
2, 270144, Note_on_c, 0, 73, 110
2, 270144, Note_on_c, 0, 85, 110
2, 270144, Note_on_c, 0, 79, 110
2, 270328, Control_c, 0, 64, 0
2, 270332, Note_off_c, 0, 73, 100
2, 270332, Note_off_c, 0, 85, 100
2, 270332, Note_off_c, 0, 79, 100
2, 270336, Note_on_c, 0, 72, 110
2, 270336, Note_on_c, 0, 84, 110
2, 270336, Note_on_c, 0, 80, 110
2, 270524, Note_off_c, 0, 72, 100
2, 270524, Note_off_c, 0, 84, 100
2, 270524, Note_off_c, 0, 80, 100
2, 270528, Note_on_c, 0, 68, 110
2, 270624, Note_on_c, 0, 80, 110
2, 270716, Note_off_c, 0, 68, 100
2, 270720, Note_on_c, 0, 68, 110
2, 270812, Note_off_c, 0, 80, 100
2, 270816, Note_on_c, 0, 80, 110
2, 270908, Note_off_c, 0, 68, 100
2, 270912, Note_on_c, 0, 70, 110
2, 271004, Note_off_c, 0, 80, 100
2, 271008, Note_on_c, 0, 80, 110
2, 271100, Note_off_c, 0, 70, 100
2, 271104, Note_on_c, 0, 72, 110
2, 271196, Note_off_c, 0, 80, 100
2, 271200, Note_on_c, 0, 80, 110
2, 271292, Note_off_c, 0, 72, 100
2, 271296, Note_on_c, 0, 73, 110
2, 271388, Note_off_c, 0, 80, 100
2, 271392, Note_on_c, 0, 80, 110
2, 271484, Note_off_c, 0, 73, 100
2, 271488, Note_on_c, 0, 75, 110
2, 271580, Note_off_c, 0, 80, 100
2, 271584, Note_on_c, 0, 80, 110
2, 271676, Note_off_c, 0, 75, 100
2, 271680, Note_on_c, 0, 72, 110
2, 271772, Note_off_c, 0, 80, 100
2, 271776, Note_on_c, 0, 80, 110
2, 271868, Note_off_c, 0, 72, 100
2, 271872, Note_on_c, 0, 75, 110
2, 271964, Note_off_c, 0, 80, 100
2, 271968, Note_on_c, 0, 80, 110
2, 272060, Note_off_c, 0, 75, 100
2, 272064, Note_on_c, 0, 73, 110
2, 272156, Note_off_c, 0, 80, 100
2, 272160, Note_on_c, 0, 80, 110
2, 272252, Note_off_c, 0, 73, 100
2, 272256, Note_on_c, 0, 78, 110
2, 272348, Note_off_c, 0, 80, 100
2, 272352, Note_on_c, 0, 80, 110
2, 272444, Note_off_c, 0, 78, 100
2, 272448, Note_on_c, 0, 76, 110
2, 272540, Note_off_c, 0, 80, 100
2, 272544, Note_on_c, 0, 80, 110
2, 272636, Note_off_c, 0, 76, 100
2, 272640, Note_on_c, 0, 75, 110
2, 272732, Note_off_c, 0, 80, 100
2, 272736, Note_on_c, 0, 80, 110
2, 272828, Note_off_c, 0, 75, 100
2, 272832, Note_on_c, 0, 73, 110
2, 272924, Note_off_c, 0, 80, 100
2, 272928, Note_on_c, 0, 80, 110
2, 273020, Note_off_c, 0, 73, 100
2, 273024, Note_on_c, 0, 72, 110
2, 273116, Note_off_c, 0, 80, 100
2, 273120, Note_on_c, 0, 80, 110
2, 273212, Note_off_c, 0, 72, 100
2, 273216, Note_on_c, 0, 69, 110
2, 273308, Note_off_c, 0, 80, 100
2, 273312, Note_on_c, 0, 79, 110
2, 273404, Note_off_c, 0, 69, 100
2, 273404, Note_off_c, 0, 79, 100
2, 273408, Note_on_c, 0, 68, 110
2, 273504, Note_on_c, 0, 80, 110
2, 273596, Note_off_c, 0, 68, 100
2, 273600, Note_on_c, 0, 68, 110
2, 273692, Note_off_c, 0, 80, 100
2, 273696, Note_on_c, 0, 80, 110
2, 273788, Note_off_c, 0, 68, 100
2, 273792, Note_on_c, 0, 68, 110
2, 273884, Note_off_c, 0, 80, 100
2, 273888, Note_on_c, 0, 80, 110
2, 273980, Note_off_c, 0, 68, 100
2, 273984, Note_on_c, 0, 70, 110
2, 274076, Note_off_c, 0, 80, 100
2, 274080, Note_on_c, 0, 80, 110
2, 274172, Note_off_c, 0, 70, 100
2, 274176, Note_on_c, 0, 72, 110
2, 274268, Note_off_c, 0, 80, 100
2, 274272, Note_on_c, 0, 80, 110
2, 274364, Note_off_c, 0, 72, 100
2, 274368, Note_on_c, 0, 73, 110
2, 274460, Note_off_c, 0, 80, 100
2, 274464, Note_on_c, 0, 80, 110
2, 274556, Note_off_c, 0, 73, 100
2, 274560, Note_on_c, 0, 75, 110
2, 274652, Note_off_c, 0, 80, 100
2, 274656, Note_on_c, 0, 80, 110
2, 274748, Note_off_c, 0, 75, 100
2, 274752, Note_on_c, 0, 72, 110
2, 274844, Note_off_c, 0, 80, 100
2, 274848, Note_on_c, 0, 80, 110
2, 274940, Note_off_c, 0, 72, 100
2, 274944, Note_on_c, 0, 75, 110
2, 275036, Note_off_c, 0, 80, 100
2, 275040, Note_on_c, 0, 80, 110
2, 275132, Note_off_c, 0, 75, 100
2, 275136, Note_on_c, 0, 73, 110
2, 275228, Note_off_c, 0, 80, 100
2, 275232, Note_on_c, 0, 80, 110
2, 275324, Note_off_c, 0, 73, 100
2, 275328, Note_on_c, 0, 78, 110
2, 275420, Note_off_c, 0, 80, 100
2, 275424, Note_on_c, 0, 80, 110
2, 275516, Note_off_c, 0, 78, 100
2, 275520, Note_on_c, 0, 76, 110
2, 275612, Note_off_c, 0, 80, 100
2, 275616, Note_on_c, 0, 80, 110
2, 275708, Note_off_c, 0, 76, 100
2, 275712, Note_on_c, 0, 75, 110
2, 275804, Note_off_c, 0, 80, 100
2, 275808, Note_on_c, 0, 80, 110
2, 275900, Note_off_c, 0, 75, 100
2, 275904, Note_on_c, 0, 73, 110
2, 275996, Note_off_c, 0, 80, 100
2, 276000, Note_on_c, 0, 80, 110
2, 276092, Note_off_c, 0, 73, 100
2, 276096, Note_on_c, 0, 72, 110
2, 276188, Note_off_c, 0, 80, 100
2, 276192, Note_on_c, 0, 80, 110
2, 276284, Note_off_c, 0, 72, 100
2, 276288, Note_on_c, 0, 69, 110
2, 276380, Note_off_c, 0, 80, 100
2, 276384, Note_on_c, 0, 79, 110
2, 276476, Note_off_c, 0, 69, 100
2, 276476, Note_off_c, 0, 79, 100
2, 276480, Note_on_c, 0, 68, 110
2, 276576, Note_on_c, 0, 80, 110
2, 276668, Note_off_c, 0, 68, 100
2, 276672, Note_on_c, 0, 69, 110
2, 276764, Note_off_c, 0, 80, 100
2, 276768, Note_on_c, 0, 79, 110
2, 276860, Note_off_c, 0, 69, 100
2, 276864, Note_on_c, 0, 68, 110
2, 276956, Note_off_c, 0, 79, 100
2, 276960, Note_on_c, 0, 80, 110
2, 277052, Note_off_c, 0, 68, 100
2, 277056, Note_on_c, 0, 69, 110
2, 277148, Note_off_c, 0, 80, 100
2, 277152, Note_on_c, 0, 79, 110
2, 277244, Note_off_c, 0, 69, 100
2, 277248, Note_on_c, 0, 68, 110
2, 277340, Note_off_c, 0, 79, 100
2, 277344, Note_on_c, 0, 80, 110
2, 277436, Note_off_c, 0, 68, 100
2, 277440, Note_on_c, 0, 69, 110
2, 277532, Note_off_c, 0, 80, 100
2, 277536, Note_on_c, 0, 79, 110
2, 277628, Note_off_c, 0, 69, 100
2, 277632, Note_on_c, 0, 68, 110
2, 277724, Note_off_c, 0, 79, 100
2, 277728, Note_on_c, 0, 80, 110
2, 277820, Note_off_c, 0, 68, 100
2, 277824, Note_on_c, 0, 69, 110
2, 277916, Note_off_c, 0, 80, 100
2, 277920, Note_on_c, 0, 79, 110
2, 278012, Note_off_c, 0, 69, 100
2, 278012, Note_off_c, 0, 79, 100
2, 278016, Note_on_c, 0, 68, 110
2, 278016, Note_on_c, 0, 80, 110
2, 278396, Note_off_c, 0, 68, 100
2, 278396, Note_off_c, 0, 80, 100
2, 278400, Note_on_c, 0, 56, 110
2, 281084, Note_off_c, 0, 56, 100
2, 281472, Note_on_c, 0, 68, 80
2, 282236, Note_off_c, 0, 68, 100
2, 282240, Note_on_c, 0, 64, 80
2, 282620, Note_off_c, 0, 64, 100
2, 282624, Note_on_c, 0, 60, 80
2, 282656, Note_on_c, 0, 61, 80
2, 282688, Note_on_c, 0, 63, 80
2, 282716, Note_off_c, 0, 61, 100
2, 282720, Note_on_c, 0, 61, 80
2, 283004, Note_off_c, 0, 60, 100
2, 283004, Note_off_c, 0, 61, 100
2, 283008, Note_on_c, 0, 60, 80
2, 283068, Note_off_c, 0, 63, 100
2, 283580, Note_off_c, 0, 60, 100
2, 283584, Note_on_c, 0, 60, 80
2, 283772, Note_off_c, 0, 60, 100
2, 283776, Note_on_c, 0, 68, 93
2, 284064, Note_on_c, 0, 60, 80
2, 284156, Note_off_c, 0, 68, 100
2, 284160, Note_on_c, 0, 63, 80
2, 284252, Note_off_c, 0, 60, 100
2, 284540, Note_off_c, 0, 63, 100
2, 284544, Note_on_c, 0, 61, 80
2, 285116, Note_off_c, 0, 61, 100
2, 285120, Note_on_c, 0, 61, 80
2, 285308, Note_off_c, 0, 61, 100
2, 285312, Note_on_c, 0, 68, 93
2, 285600, Note_on_c, 0, 61, 80
2, 285692, Note_off_c, 0, 68, 100
2, 285696, Note_on_c, 0, 64, 80
2, 285788, Note_off_c, 0, 61, 100
2, 286076, Note_off_c, 0, 64, 100
2, 286080, Note_on_c, 0, 63, 80
2, 286652, Note_off_c, 0, 63, 100
2, 286656, Note_on_c, 0, 63, 80
2, 286844, Note_off_c, 0, 63, 100
2, 286848, Note_on_c, 0, 68, 91
2, 287136, Note_on_c, 0, 63, 80
2, 287228, Note_off_c, 0, 68, 100
2, 287232, Note_on_c, 0, 64, 80
2, 287324, Note_off_c, 0, 63, 100
2, 287420, Note_off_c, 0, 64, 100
2, 287424, Note_on_c, 0, 68, 80
2, 287424, Note_on_c, 0, 80, 80
2, 287804, Note_off_c, 0, 68, 100
2, 287804, Note_off_c, 0, 80, 100
2, 287808, Note_on_c, 0, 80, 82
2, 287808, Note_on_c, 0, 68, 82
2, 288188, Note_off_c, 0, 80, 100
2, 288188, Note_off_c, 0, 68, 100
2, 288192, Note_on_c, 0, 80, 84
2, 288192, Note_on_c, 0, 68, 84
2, 288380, Note_off_c, 0, 80, 100
2, 288380, Note_off_c, 0, 68, 100
2, 288384, Note_on_c, 0, 64, 85
2, 288384, Note_on_c, 0, 76, 85
2, 288572, Note_off_c, 0, 64, 100
2, 288572, Note_off_c, 0, 76, 100
2, 288576, Note_on_c, 0, 73, 86
2, 288576, Note_on_c, 0, 61, 86
2, 288764, Note_off_c, 0, 73, 100
2, 288764, Note_off_c, 0, 61, 100
2, 288768, Note_on_c, 0, 61, 87
2, 288768, Note_on_c, 0, 73, 87
2, 288956, Note_off_c, 0, 61, 100
2, 288956, Note_off_c, 0, 73, 100
2, 288960, Note_on_c, 0, 60, 88
2, 288960, Note_on_c, 0, 72, 88
2, 289340, Note_off_c, 0, 60, 100
2, 289340, Note_off_c, 0, 72, 100
2, 289344, Note_on_c, 0, 60, 90
2, 289344, Note_on_c, 0, 72, 90
2, 289724, Note_off_c, 0, 60, 100
2, 289724, Note_off_c, 0, 72, 100
2, 289728, Note_on_c, 0, 60, 92
2, 289728, Note_on_c, 0, 72, 92
2, 289916, Note_off_c, 0, 60, 100
2, 289916, Note_off_c, 0, 72, 100
2, 289920, Note_on_c, 0, 80, 93
2, 289920, Note_on_c, 0, 68, 93
2, 290108, Note_off_c, 0, 80, 100
2, 290108, Note_off_c, 0, 68, 100
2, 290112, Note_on_c, 0, 60, 94
2, 290112, Note_on_c, 0, 72, 94
2, 290300, Note_off_c, 0, 60, 100
2, 290300, Note_off_c, 0, 72, 100
2, 290304, Note_on_c, 0, 63, 94
2, 290304, Note_on_c, 0, 75, 94
2, 290492, Note_off_c, 0, 63, 100
2, 290492, Note_off_c, 0, 75, 100
2, 290496, Note_on_c, 0, 61, 95
2, 290496, Note_on_c, 0, 73, 95
2, 290876, Note_off_c, 0, 61, 100
2, 290876, Note_off_c, 0, 73, 100
2, 290880, Note_on_c, 0, 61, 97
2, 290880, Note_on_c, 0, 73, 97
2, 291260, Note_off_c, 0, 61, 100
2, 291260, Note_off_c, 0, 73, 100
2, 291264, Note_on_c, 0, 61, 99
2, 291264, Note_on_c, 0, 73, 99
2, 291452, Note_off_c, 0, 61, 100
2, 291452, Note_off_c, 0, 73, 100
2, 291456, Note_on_c, 0, 80, 100
2, 291456, Note_on_c, 0, 68, 100
2, 291644, Note_off_c, 0, 80, 100
2, 291644, Note_off_c, 0, 68, 100
2, 291648, Note_on_c, 0, 73, 101
2, 291648, Note_on_c, 0, 61, 101
2, 291836, Note_off_c, 0, 73, 100
2, 291836, Note_off_c, 0, 61, 100
2, 291840, Note_on_c, 0, 64, 102
2, 291840, Note_on_c, 0, 76, 102
2, 292028, Note_off_c, 0, 64, 100
2, 292028, Note_off_c, 0, 76, 100
2, 292032, Note_on_c, 0, 63, 103
2, 292032, Note_on_c, 0, 75, 103
2, 292412, Note_off_c, 0, 63, 100
2, 292412, Note_off_c, 0, 75, 100
2, 292416, Note_on_c, 0, 63, 105
2, 292416, Note_on_c, 0, 75, 105
2, 292796, Note_off_c, 0, 63, 100
2, 292796, Note_off_c, 0, 75, 100
2, 292800, Note_on_c, 0, 63, 107
2, 292800, Note_on_c, 0, 75, 107
2, 292988, Note_off_c, 0, 63, 100
2, 292988, Note_off_c, 0, 75, 100
2, 292992, Note_on_c, 0, 80, 108
2, 292992, Note_on_c, 0, 68, 108
2, 293180, Note_off_c, 0, 80, 100
2, 293180, Note_off_c, 0, 68, 100
2, 293184, Note_on_c, 0, 75, 109
2, 293184, Note_on_c, 0, 63, 109
2, 293372, Note_off_c, 0, 75, 100
2, 293372, Note_off_c, 0, 63, 100
2, 293376, Note_on_c, 0, 65, 110
2, 293376, Note_on_c, 0, 77, 110
2, 294140, Note_off_c, 0, 65, 100
2, 294140, Note_off_c, 0, 77, 100
2, 294144, Note_on_c, 0, 66, 110
2, 294144, Note_on_c, 0, 78, 110
2, 294908, Note_off_c, 0, 66, 100
2, 294908, Note_off_c, 0, 78, 100
2, 294912, Note_on_c, 0, 63, 110
2, 294912, Note_on_c, 0, 76, 110
2, 294976, Note_on_c, 0, 75, 110
2, 295036, Note_off_c, 0, 76, 100
2, 295040, Note_on_c, 0, 76, 110
2, 295100, Note_off_c, 0, 75, 100
2, 295104, Note_on_c, 0, 75, 110
2, 295164, Note_off_c, 0, 76, 100
2, 295168, Note_on_c, 0, 73, 110
2, 295228, Note_off_c, 0, 75, 100
2, 295232, Note_on_c, 0, 75, 110
2, 295292, Note_off_c, 0, 63, 100
2, 295292, Note_off_c, 0, 73, 100
2, 295296, Note_on_c, 0, 64, 110
2, 295296, Note_on_c, 0, 76, 110
2, 295356, Note_off_c, 0, 75, 100
2, 296444, Note_off_c, 0, 64, 100
2, 296444, Note_off_c, 0, 76, 100
2, 296448, Note_on_c, 0, 61, 110
2, 296448, Note_on_c, 0, 73, 110
2, 297212, Note_off_c, 0, 61, 100
2, 297212, Note_off_c, 0, 73, 100
2, 297216, Note_on_c, 0, 62, 110
2, 297216, Note_on_c, 0, 74, 110
2, 297980, Note_off_c, 0, 62, 100
2, 297980, Note_off_c, 0, 74, 100
2, 297984, Note_on_c, 0, 60, 110
2, 297984, Note_on_c, 0, 73, 110
2, 298048, Note_on_c, 0, 72, 110
2, 298108, Note_off_c, 0, 73, 100
2, 298112, Note_on_c, 0, 73, 110
2, 298172, Note_off_c, 0, 72, 100
2, 298176, Note_on_c, 0, 72, 110
2, 298236, Note_off_c, 0, 73, 100
2, 298240, Note_on_c, 0, 69, 110
2, 298300, Note_off_c, 0, 72, 100
2, 298304, Note_on_c, 0, 72, 110
2, 298364, Note_off_c, 0, 60, 100
2, 298364, Note_off_c, 0, 69, 100
2, 298368, Note_on_c, 0, 61, 110
2, 298368, Note_on_c, 0, 73, 110
2, 298428, Note_off_c, 0, 72, 100
2, 299516, Note_off_c, 0, 61, 100
2, 299516, Note_off_c, 0, 73, 100
2, 299520, Note_on_c, 0, 69, 120
2, 299520, Note_on_c, 0, 62, 120
2, 299520, Note_on_c, 0, 66, 120
2, 299520, Note_on_c, 0, 74, 120
2, 300380, Note_off_c, 0, 69, 100
2, 300384, Note_on_c, 0, 69, 80
2, 300480, Note_on_c, 0, 71, 80
2, 300572, Note_off_c, 0, 69, 100
2, 300576, Note_on_c, 0, 73, 80
2, 300668, Note_off_c, 0, 62, 100
2, 300668, Note_off_c, 0, 66, 100
2, 300668, Note_off_c, 0, 74, 100
2, 300668, Note_off_c, 0, 71, 100
2, 300672, Note_on_c, 0, 74, 80
2, 300764, Note_off_c, 0, 73, 100
2, 300768, Note_on_c, 0, 76, 80
2, 300860, Note_off_c, 0, 74, 100
2, 300864, Note_on_c, 0, 78, 80
2, 300956, Note_off_c, 0, 76, 100
2, 300960, Note_on_c, 0, 76, 80
2, 301052, Note_off_c, 0, 78, 100
2, 301056, Note_on_c, 0, 74, 80
2, 301148, Note_off_c, 0, 76, 100
2, 301152, Note_on_c, 0, 69, 80
2, 301244, Note_off_c, 0, 74, 100
2, 301248, Note_on_c, 0, 71, 80
2, 301340, Note_off_c, 0, 69, 100
2, 301344, Note_on_c, 0, 73, 80
2, 301436, Note_off_c, 0, 71, 100
2, 301440, Note_on_c, 0, 74, 80
2, 301532, Note_off_c, 0, 73, 100
2, 301536, Note_on_c, 0, 76, 80
2, 301628, Note_off_c, 0, 74, 100
2, 301632, Note_on_c, 0, 78, 80
2, 301724, Note_off_c, 0, 76, 100
2, 301728, Note_on_c, 0, 76, 80
2, 301820, Note_off_c, 0, 78, 100
2, 301824, Note_on_c, 0, 74, 80
2, 301916, Note_off_c, 0, 76, 100
2, 301920, Note_on_c, 0, 69, 80
2, 302012, Note_off_c, 0, 74, 100
2, 302016, Note_on_c, 0, 71, 80
2, 302108, Note_off_c, 0, 69, 100
2, 302112, Note_on_c, 0, 73, 80
2, 302204, Note_off_c, 0, 71, 100
2, 302208, Note_on_c, 0, 74, 80
2, 302300, Note_off_c, 0, 73, 100
2, 302304, Note_on_c, 0, 76, 80
2, 302396, Note_off_c, 0, 74, 100
2, 302400, Note_on_c, 0, 78, 80
2, 302492, Note_off_c, 0, 76, 100
2, 302496, Note_on_c, 0, 76, 80
2, 302588, Note_off_c, 0, 78, 100
2, 302592, Note_on_c, 0, 74, 80
2, 302684, Note_off_c, 0, 76, 100
2, 302688, Note_on_c, 0, 69, 81
2, 302780, Note_off_c, 0, 74, 100
2, 302784, Note_on_c, 0, 71, 82
2, 302876, Note_off_c, 0, 69, 100
2, 302880, Note_on_c, 0, 73, 83
2, 302972, Note_off_c, 0, 71, 100
2, 302976, Note_on_c, 0, 74, 84
2, 303068, Note_off_c, 0, 73, 100
2, 303072, Note_on_c, 0, 76, 86
2, 303164, Note_off_c, 0, 74, 100
2, 303168, Note_on_c, 0, 78, 87
2, 303260, Note_off_c, 0, 76, 100
2, 303264, Note_on_c, 0, 79, 88
2, 303356, Note_off_c, 0, 78, 100
2, 303360, Note_on_c, 0, 81, 89
2, 303452, Note_off_c, 0, 79, 100
2, 303456, Note_on_c, 0, 80, 91
2, 303548, Note_off_c, 0, 81, 100
2, 303552, Note_on_c, 0, 83, 92
2, 303644, Note_off_c, 0, 80, 100
2, 303648, Note_on_c, 0, 81, 93
2, 303740, Note_off_c, 0, 83, 100
2, 303744, Note_on_c, 0, 79, 94
2, 303836, Note_off_c, 0, 81, 100
2, 303840, Note_on_c, 0, 78, 96
2, 303932, Note_off_c, 0, 79, 100
2, 303936, Note_on_c, 0, 76, 97
2, 304028, Note_off_c, 0, 78, 100
2, 304032, Note_on_c, 0, 74, 98
2, 304124, Note_off_c, 0, 76, 100
2, 304128, Note_on_c, 0, 73, 80
2, 304220, Note_off_c, 0, 74, 100
2, 304892, Note_off_c, 0, 73, 100
2, 304896, Note_on_c, 0, 76, 89
2, 304960, Note_on_c, 0, 75, 90
2, 305020, Note_off_c, 0, 76, 100
2, 305024, Note_on_c, 0, 76, 91
2, 305084, Note_off_c, 0, 75, 100
2, 305088, Note_on_c, 0, 75, 92
2, 305148, Note_off_c, 0, 76, 100
2, 305152, Note_on_c, 0, 76, 93
2, 305212, Note_off_c, 0, 75, 100
2, 305216, Note_on_c, 0, 75, 94
2, 305276, Note_off_c, 0, 76, 100
2, 305280, Note_on_c, 0, 76, 94
2, 305340, Note_off_c, 0, 75, 100
2, 305344, Note_on_c, 0, 75, 95
2, 305404, Note_off_c, 0, 76, 100
2, 305408, Note_on_c, 0, 76, 96
2, 305468, Note_off_c, 0, 75, 100
2, 305472, Note_on_c, 0, 75, 97
2, 305532, Note_off_c, 0, 76, 100
2, 305536, Note_on_c, 0, 73, 98
2, 305596, Note_off_c, 0, 75, 100
2, 305600, Note_on_c, 0, 75, 99
2, 305660, Note_off_c, 0, 73, 100
2, 305664, Note_on_c, 0, 73, 99
2, 305724, Note_off_c, 0, 75, 100
2, 306044, Note_off_c, 0, 73, 100
2, 306048, Note_on_c, 0, 57, 120
2, 306048, Note_on_c, 0, 50, 120
2, 306048, Note_on_c, 0, 54, 120
2, 306048, Note_on_c, 0, 62, 120
2, 306524, Note_off_c, 0, 57, 100
2, 306528, Note_on_c, 0, 57, 90
2, 306624, Note_on_c, 0, 59, 90
2, 306716, Note_off_c, 0, 57, 100
2, 306720, Note_on_c, 0, 61, 90
2, 306812, Note_off_c, 0, 50, 100
2, 306812, Note_off_c, 0, 54, 100
2, 306812, Note_off_c, 0, 62, 100
2, 306812, Note_off_c, 0, 59, 100
2, 306816, Note_on_c, 0, 62, 90
2, 306908, Note_off_c, 0, 61, 100
2, 306912, Note_on_c, 0, 64, 90
2, 307004, Note_off_c, 0, 62, 100
2, 307008, Note_on_c, 0, 66, 90
2, 307100, Note_off_c, 0, 64, 100
2, 307104, Note_on_c, 0, 64, 90
2, 307196, Note_off_c, 0, 66, 100
2, 307200, Note_on_c, 0, 62, 90
2, 307292, Note_off_c, 0, 64, 100
2, 307296, Note_on_c, 0, 57, 90
2, 307388, Note_off_c, 0, 62, 100
2, 307392, Note_on_c, 0, 59, 90
2, 307484, Note_off_c, 0, 57, 100
2, 307488, Note_on_c, 0, 61, 90
2, 307580, Note_off_c, 0, 59, 100
2, 307584, Note_on_c, 0, 62, 90
2, 307676, Note_off_c, 0, 61, 100
2, 307680, Note_on_c, 0, 64, 90
2, 307772, Note_off_c, 0, 62, 100
2, 307776, Note_on_c, 0, 66, 90
2, 307868, Note_off_c, 0, 64, 100
2, 307872, Note_on_c, 0, 64, 90
2, 307964, Note_off_c, 0, 66, 100
2, 307968, Note_on_c, 0, 62, 90
2, 308060, Note_off_c, 0, 64, 100
2, 308064, Note_on_c, 0, 57, 90
2, 308156, Note_off_c, 0, 62, 100
2, 308160, Note_on_c, 0, 59, 90
2, 308252, Note_off_c, 0, 57, 100
2, 308256, Note_on_c, 0, 61, 90
2, 308348, Note_off_c, 0, 59, 100
2, 308352, Note_on_c, 0, 62, 90
2, 308444, Note_off_c, 0, 61, 100
2, 308448, Note_on_c, 0, 64, 90
2, 308540, Note_off_c, 0, 62, 100
2, 308544, Note_on_c, 0, 66, 90
2, 308636, Note_off_c, 0, 64, 100
2, 308640, Note_on_c, 0, 64, 90
2, 308732, Note_off_c, 0, 66, 100
2, 308736, Note_on_c, 0, 62, 90
2, 308828, Note_off_c, 0, 64, 100
2, 308832, Note_on_c, 0, 57, 90
2, 308924, Note_off_c, 0, 62, 100
2, 308928, Note_on_c, 0, 59, 91
2, 309020, Note_off_c, 0, 57, 100
2, 309024, Note_on_c, 0, 61, 91
2, 309116, Note_off_c, 0, 59, 100
2, 309120, Note_on_c, 0, 62, 92
2, 309212, Note_off_c, 0, 61, 100
2, 309216, Note_on_c, 0, 64, 93
2, 309308, Note_off_c, 0, 62, 100
2, 309312, Note_on_c, 0, 66, 93
2, 309404, Note_off_c, 0, 64, 100
2, 309408, Note_on_c, 0, 64, 94
2, 309500, Note_off_c, 0, 66, 100
2, 309504, Note_on_c, 0, 62, 94
2, 309596, Note_off_c, 0, 64, 100
2, 309600, Note_on_c, 0, 57, 95
2, 309692, Note_off_c, 0, 62, 100
2, 309696, Note_on_c, 0, 59, 96
2, 309788, Note_off_c, 0, 57, 100
2, 309792, Note_on_c, 0, 61, 96
2, 309884, Note_off_c, 0, 59, 100
2, 309888, Note_on_c, 0, 62, 97
2, 309980, Note_off_c, 0, 61, 100
2, 309984, Note_on_c, 0, 64, 98
2, 310076, Note_off_c, 0, 62, 100
2, 310080, Note_on_c, 0, 66, 98
2, 310172, Note_off_c, 0, 64, 100
2, 310176, Note_on_c, 0, 64, 99
2, 310268, Note_off_c, 0, 66, 100
2, 310272, Note_on_c, 0, 62, 99
2, 310364, Note_off_c, 0, 64, 100
2, 310368, Note_on_c, 0, 57, 100
2, 310460, Note_off_c, 0, 62, 100
2, 310464, Note_on_c, 0, 59, 101
2, 310556, Note_off_c, 0, 57, 100
2, 310560, Note_on_c, 0, 61, 101
2, 310652, Note_off_c, 0, 59, 100
2, 310656, Note_on_c, 0, 62, 102
2, 310748, Note_off_c, 0, 61, 100
2, 310752, Note_on_c, 0, 64, 103
2, 310844, Note_off_c, 0, 62, 100
2, 310848, Note_on_c, 0, 66, 103
2, 310940, Note_off_c, 0, 64, 100
2, 310944, Note_on_c, 0, 67, 104
2, 311036, Note_off_c, 0, 66, 100
2, 311040, Note_on_c, 0, 69, 104
2, 311132, Note_off_c, 0, 67, 100
2, 311136, Note_on_c, 0, 71, 105
2, 311228, Note_off_c, 0, 69, 100
2, 311232, Note_on_c, 0, 73, 106
2, 311324, Note_off_c, 0, 71, 100
2, 311328, Note_on_c, 0, 74, 106
2, 311420, Note_off_c, 0, 73, 100
2, 311424, Note_on_c, 0, 76, 107
2, 311516, Note_off_c, 0, 74, 100
2, 311520, Note_on_c, 0, 78, 108
2, 311612, Note_off_c, 0, 76, 100
2, 311616, Note_on_c, 0, 79, 108
2, 311708, Note_off_c, 0, 78, 100
2, 311712, Note_on_c, 0, 80, 109
2, 311804, Note_off_c, 0, 79, 100
2, 311808, Note_on_c, 0, 69, 120
2, 311808, Note_on_c, 0, 81, 120
2, 311900, Note_off_c, 0, 80, 100
2, 312572, Note_off_c, 0, 69, 100
2, 312572, Note_off_c, 0, 81, 100
2, 312576, Note_on_c, 0, 61, 120
2, 312576, Note_on_c, 0, 73, 120
2, 313340, Note_off_c, 0, 61, 100
2, 313340, Note_off_c, 0, 73, 100
2, 313344, Note_on_c, 0, 64, 120
2, 313344, Note_on_c, 0, 76, 120
2, 314108, Note_off_c, 0, 64, 100
2, 314108, Note_off_c, 0, 76, 100
2, 314112, Note_on_c, 0, 48, 120
2, 314112, Note_on_c, 0, 54, 120
2, 314112, Note_on_c, 0, 60, 120
2, 314876, Note_off_c, 0, 48, 100
2, 314876, Note_off_c, 0, 54, 100
2, 314876, Note_off_c, 0, 60, 100
2, 314880, Note_on_c, 0, 49, 120
2, 314880, Note_on_c, 0, 52, 120
2, 314880, Note_on_c, 0, 61, 120
2, 315068, Note_off_c, 0, 49, 100
2, 315072, Note_on_c, 0, 56, 80
2, 315072, Note_on_c, 0, 64, 80
2, 315260, Note_off_c, 0, 52, 100
2, 315260, Note_off_c, 0, 61, 100
2, 315260, Note_off_c, 0, 56, 100
2, 315260, Note_off_c, 0, 64, 100
2, 315264, Note_on_c, 0, 56, 80
2, 315264, Note_on_c, 0, 64, 80
2, 315452, Note_off_c, 0, 56, 100
2, 315452, Note_off_c, 0, 64, 100
2, 315456, Note_on_c, 0, 56, 80
2, 315456, Note_on_c, 0, 64, 80
2, 315644, Note_off_c, 0, 56, 100
2, 315644, Note_off_c, 0, 64, 100
2, 315648, Note_on_c, 0, 56, 80
2, 315648, Note_on_c, 0, 64, 80
2, 315836, Note_off_c, 0, 56, 100
2, 315836, Note_off_c, 0, 64, 100
2, 315840, Note_on_c, 0, 56, 80
2, 315840, Note_on_c, 0, 64, 80
2, 316028, Note_off_c, 0, 56, 100
2, 316028, Note_off_c, 0, 64, 100
2, 316032, Note_on_c, 0, 56, 80
2, 316032, Note_on_c, 0, 63, 80
2, 316220, Note_off_c, 0, 56, 100
2, 316220, Note_off_c, 0, 63, 100
2, 316224, Note_on_c, 0, 56, 80
2, 316224, Note_on_c, 0, 61, 80
2, 316412, Note_off_c, 0, 56, 100
2, 316412, Note_off_c, 0, 61, 100
2, 316416, Note_on_c, 0, 60, 80
2, 316416, Note_on_c, 0, 56, 80
2, 316604, Note_off_c, 0, 60, 100
2, 316604, Note_off_c, 0, 56, 100
2, 316608, Note_on_c, 0, 60, 80
2, 316608, Note_on_c, 0, 68, 80
2, 316796, Note_off_c, 0, 60, 100
2, 316796, Note_off_c, 0, 68, 100
2, 316800, Note_on_c, 0, 60, 80
2, 316800, Note_on_c, 0, 68, 80
2, 316988, Note_off_c, 0, 60, 100
2, 316988, Note_off_c, 0, 68, 100
2, 316992, Note_on_c, 0, 60, 80
2, 316992, Note_on_c, 0, 68, 80
2, 317180, Note_off_c, 0, 60, 100
2, 317180, Note_off_c, 0, 68, 100
2, 317184, Note_on_c, 0, 60, 80
2, 317184, Note_on_c, 0, 68, 80
2, 317372, Note_off_c, 0, 60, 100
2, 317372, Note_off_c, 0, 68, 100
2, 317376, Note_on_c, 0, 60, 80
2, 317376, Note_on_c, 0, 68, 80
2, 317564, Note_off_c, 0, 60, 100
2, 317564, Note_off_c, 0, 68, 100
2, 317568, Note_on_c, 0, 61, 80
2, 317568, Note_on_c, 0, 68, 80
2, 317756, Note_off_c, 0, 61, 100
2, 317756, Note_off_c, 0, 68, 100
2, 317760, Note_on_c, 0, 63, 80
2, 317760, Note_on_c, 0, 68, 80
2, 317948, Note_off_c, 0, 63, 100
2, 317948, Note_off_c, 0, 68, 100
2, 317952, Note_on_c, 0, 64, 80
2, 317952, Note_on_c, 0, 68, 80
2, 318140, Note_off_c, 0, 64, 100
2, 318140, Note_off_c, 0, 68, 100
2, 318144, Note_on_c, 0, 56, 80
2, 318144, Note_on_c, 0, 64, 80
2, 318332, Note_off_c, 0, 56, 100
2, 318332, Note_off_c, 0, 64, 100
2, 318336, Note_on_c, 0, 56, 80
2, 318336, Note_on_c, 0, 64, 80
2, 318524, Note_off_c, 0, 56, 100
2, 318524, Note_off_c, 0, 64, 100
2, 318528, Note_on_c, 0, 56, 80
2, 318528, Note_on_c, 0, 64, 80
2, 318716, Note_off_c, 0, 56, 100
2, 318716, Note_off_c, 0, 64, 100
2, 318720, Note_on_c, 0, 56, 80
2, 318720, Note_on_c, 0, 64, 80
2, 318908, Note_off_c, 0, 56, 100
2, 318908, Note_off_c, 0, 64, 100
2, 318912, Note_on_c, 0, 56, 80
2, 318912, Note_on_c, 0, 64, 80
2, 319100, Note_off_c, 0, 56, 100
2, 319100, Note_off_c, 0, 64, 100
2, 319104, Note_on_c, 0, 56, 80
2, 319104, Note_on_c, 0, 63, 80
2, 319292, Note_off_c, 0, 56, 100
2, 319292, Note_off_c, 0, 63, 100
2, 319296, Note_on_c, 0, 56, 80
2, 319296, Note_on_c, 0, 61, 80
2, 319484, Note_off_c, 0, 56, 100
2, 319484, Note_off_c, 0, 61, 100
2, 319488, Note_on_c, 0, 60, 80
2, 319488, Note_on_c, 0, 56, 80
2, 319676, Note_off_c, 0, 60, 100
2, 319676, Note_off_c, 0, 56, 100
2, 319680, Note_on_c, 0, 60, 80
2, 319680, Note_on_c, 0, 68, 80
2, 319868, Note_off_c, 0, 60, 100
2, 319868, Note_off_c, 0, 68, 100
2, 319872, Note_on_c, 0, 60, 80
2, 319872, Note_on_c, 0, 68, 80
2, 320060, Note_off_c, 0, 60, 100
2, 320060, Note_off_c, 0, 68, 100
2, 320064, Note_on_c, 0, 60, 80
2, 320064, Note_on_c, 0, 68, 80
2, 320252, Note_off_c, 0, 60, 100
2, 320252, Note_off_c, 0, 68, 100
2, 320256, Note_on_c, 0, 60, 80
2, 320256, Note_on_c, 0, 68, 80
2, 320444, Note_off_c, 0, 60, 100
2, 320444, Note_off_c, 0, 68, 100
2, 320448, Note_on_c, 0, 60, 80
2, 320448, Note_on_c, 0, 68, 80
2, 320636, Note_off_c, 0, 60, 100
2, 320636, Note_off_c, 0, 68, 100
2, 320640, Note_on_c, 0, 61, 80
2, 320640, Note_on_c, 0, 68, 80
2, 320828, Note_off_c, 0, 61, 100
2, 320828, Note_off_c, 0, 68, 100
2, 320832, Note_on_c, 0, 63, 80
2, 320832, Note_on_c, 0, 68, 80
2, 321020, Note_off_c, 0, 63, 100
2, 321020, Note_off_c, 0, 68, 100
2, 321024, Note_on_c, 0, 64, 80
2, 321024, Note_on_c, 0, 68, 80
2, 321212, Note_off_c, 0, 64, 100
2, 321212, Note_off_c, 0, 68, 100
2, 321216, Note_on_c, 0, 64, 80
2, 321216, Note_on_c, 0, 68, 80
2, 321404, Note_off_c, 0, 64, 100
2, 321404, Note_off_c, 0, 68, 100
2, 321408, Note_on_c, 0, 64, 80
2, 321408, Note_on_c, 0, 68, 80
2, 321596, Note_off_c, 0, 64, 100
2, 321596, Note_off_c, 0, 68, 100
2, 321600, Note_on_c, 0, 61, 80
2, 321600, Note_on_c, 0, 64, 80
2, 321788, Note_off_c, 0, 61, 100
2, 321788, Note_off_c, 0, 64, 100
2, 321984, Note_on_c, 0, 66, 80
2, 321984, Note_on_c, 0, 69, 80
2, 322172, Note_off_c, 0, 66, 100
2, 322172, Note_off_c, 0, 69, 100
2, 322176, Note_on_c, 0, 66, 80
2, 322176, Note_on_c, 0, 69, 80
2, 322364, Note_off_c, 0, 66, 100
2, 322364, Note_off_c, 0, 69, 100
2, 322368, Note_on_c, 0, 61, 80
2, 322368, Note_on_c, 0, 66, 80
2, 322556, Note_off_c, 0, 61, 100
2, 322556, Note_off_c, 0, 66, 100
2, 322752, Note_on_c, 0, 64, 80
2, 322752, Note_on_c, 0, 68, 80
2, 322940, Note_off_c, 0, 64, 100
2, 322940, Note_off_c, 0, 68, 100
2, 322944, Note_on_c, 0, 64, 80
2, 322944, Note_on_c, 0, 68, 80
2, 323132, Note_off_c, 0, 64, 100
2, 323132, Note_off_c, 0, 68, 100
2, 323136, Note_on_c, 0, 61, 80
2, 323136, Note_on_c, 0, 64, 80
2, 323324, Note_off_c, 0, 61, 100
2, 323324, Note_off_c, 0, 64, 100
2, 323520, Note_on_c, 0, 63, 80
2, 323520, Note_on_c, 0, 68, 80
2, 323708, Note_off_c, 0, 63, 100
2, 323708, Note_off_c, 0, 68, 100
2, 323712, Note_on_c, 0, 63, 80
2, 323712, Note_on_c, 0, 68, 80
2, 323900, Note_off_c, 0, 63, 100
2, 323900, Note_off_c, 0, 68, 100
2, 323904, Note_on_c, 0, 60, 80
2, 323904, Note_on_c, 0, 63, 80
2, 324092, Note_off_c, 0, 60, 100
2, 324092, Note_off_c, 0, 63, 100
2, 324096, Note_on_c, 0, 61, 80
2, 324096, Note_on_c, 0, 64, 80
2, 324284, Note_off_c, 0, 61, 100
2, 324284, Note_off_c, 0, 64, 100
2, 324288, Note_on_c, 0, 76, 83
2, 324288, Note_on_c, 0, 68, 83
2, 324288, Note_on_c, 0, 64, 83
2, 324476, Note_off_c, 0, 76, 100
2, 324476, Note_off_c, 0, 68, 100
2, 324476, Note_off_c, 0, 64, 100
2, 324480, Note_on_c, 0, 76, 87
2, 324480, Note_on_c, 0, 68, 87
2, 324480, Note_on_c, 0, 64, 87
2, 324668, Note_off_c, 0, 76, 100
2, 324668, Note_off_c, 0, 68, 100
2, 324668, Note_off_c, 0, 64, 100
2, 324672, Note_on_c, 0, 76, 91
2, 324672, Note_on_c, 0, 68, 91
2, 324672, Note_on_c, 0, 64, 91
2, 324860, Note_off_c, 0, 76, 100
2, 324860, Note_off_c, 0, 68, 100
2, 324860, Note_off_c, 0, 64, 100
2, 324864, Note_on_c, 0, 76, 94
2, 324864, Note_on_c, 0, 68, 94
2, 324864, Note_on_c, 0, 64, 94
2, 325052, Note_off_c, 0, 76, 100
2, 325052, Note_off_c, 0, 68, 100
2, 325052, Note_off_c, 0, 64, 100
2, 325056, Note_on_c, 0, 76, 98
2, 325056, Note_on_c, 0, 68, 98
2, 325056, Note_on_c, 0, 64, 98
2, 325244, Note_off_c, 0, 76, 100
2, 325244, Note_off_c, 0, 68, 100
2, 325244, Note_off_c, 0, 64, 100
2, 325248, Note_on_c, 0, 75, 102
2, 325248, Note_on_c, 0, 66, 102
2, 325248, Note_on_c, 0, 63, 102
2, 325436, Note_off_c, 0, 75, 100
2, 325436, Note_off_c, 0, 66, 100
2, 325436, Note_off_c, 0, 63, 100
2, 325440, Note_on_c, 0, 73, 106
2, 325440, Note_on_c, 0, 64, 106
2, 325440, Note_on_c, 0, 61, 106
2, 325628, Note_off_c, 0, 73, 100
2, 325628, Note_off_c, 0, 64, 100
2, 325628, Note_off_c, 0, 61, 100
2, 325632, Note_on_c, 0, 60, 109
2, 325632, Note_on_c, 0, 63, 109
2, 325632, Note_on_c, 0, 72, 109
2, 325820, Note_off_c, 0, 60, 100
2, 325820, Note_off_c, 0, 63, 100
2, 325820, Note_off_c, 0, 72, 100
2, 325824, Note_on_c, 0, 84, 110
2, 325824, Note_on_c, 0, 72, 110
2, 325824, Note_on_c, 0, 75, 110
2, 326012, Note_off_c, 0, 84, 100
2, 326012, Note_off_c, 0, 72, 100
2, 326012, Note_off_c, 0, 75, 100
2, 326016, Note_on_c, 0, 84, 110
2, 326016, Note_on_c, 0, 72, 110
2, 326016, Note_on_c, 0, 75, 110
2, 326204, Note_off_c, 0, 84, 100
2, 326204, Note_off_c, 0, 72, 100
2, 326204, Note_off_c, 0, 75, 100
2, 326208, Note_on_c, 0, 84, 110
2, 326208, Note_on_c, 0, 72, 110
2, 326208, Note_on_c, 0, 75, 110
2, 326396, Note_off_c, 0, 84, 100
2, 326396, Note_off_c, 0, 72, 100
2, 326396, Note_off_c, 0, 75, 100
2, 326400, Note_on_c, 0, 84, 110
2, 326400, Note_on_c, 0, 72, 110
2, 326400, Note_on_c, 0, 75, 110
2, 326588, Note_off_c, 0, 84, 100
2, 326588, Note_off_c, 0, 72, 100
2, 326588, Note_off_c, 0, 75, 100
2, 326592, Note_on_c, 0, 84, 110
2, 326592, Note_on_c, 0, 72, 110
2, 326592, Note_on_c, 0, 75, 110
2, 326780, Note_off_c, 0, 84, 100
2, 326780, Note_off_c, 0, 72, 100
2, 326780, Note_off_c, 0, 75, 100
2, 326784, Note_on_c, 0, 85, 110
2, 326784, Note_on_c, 0, 73, 110
2, 326784, Note_on_c, 0, 76, 110
2, 326972, Note_off_c, 0, 85, 100
2, 326972, Note_off_c, 0, 73, 100
2, 326972, Note_off_c, 0, 76, 100
2, 326976, Note_on_c, 0, 87, 110
2, 326976, Note_on_c, 0, 75, 110
2, 326976, Note_on_c, 0, 78, 110
2, 327164, Note_off_c, 0, 87, 100
2, 327164, Note_off_c, 0, 75, 100
2, 327164, Note_off_c, 0, 78, 100
2, 327168, Note_on_c, 0, 88, 110
2, 327168, Note_on_c, 0, 80, 110
2, 327168, Note_on_c, 0, 76, 110
2, 327356, Note_off_c, 0, 88, 100
2, 327356, Note_off_c, 0, 80, 100
2, 327356, Note_off_c, 0, 76, 100
2, 327360, Note_on_c, 0, 76, 90
2, 327360, Note_on_c, 0, 68, 90
2, 327360, Note_on_c, 0, 64, 90
2, 327548, Note_off_c, 0, 76, 100
2, 327548, Note_off_c, 0, 68, 100
2, 327548, Note_off_c, 0, 64, 100
2, 327552, Note_on_c, 0, 76, 92
2, 327552, Note_on_c, 0, 68, 92
2, 327552, Note_on_c, 0, 64, 92
2, 327740, Note_off_c, 0, 76, 100
2, 327740, Note_off_c, 0, 68, 100
2, 327740, Note_off_c, 0, 64, 100
2, 327744, Note_on_c, 0, 76, 95
2, 327744, Note_on_c, 0, 68, 95
2, 327744, Note_on_c, 0, 64, 95
2, 327932, Note_off_c, 0, 76, 100
2, 327932, Note_off_c, 0, 68, 100
2, 327932, Note_off_c, 0, 64, 100
2, 327936, Note_on_c, 0, 76, 98
2, 327936, Note_on_c, 0, 68, 98
2, 327936, Note_on_c, 0, 64, 98
2, 328124, Note_off_c, 0, 76, 100
2, 328124, Note_off_c, 0, 68, 100
2, 328124, Note_off_c, 0, 64, 100
2, 328128, Note_on_c, 0, 76, 101
2, 328128, Note_on_c, 0, 68, 101
2, 328128, Note_on_c, 0, 64, 101
2, 328316, Note_off_c, 0, 76, 100
2, 328316, Note_off_c, 0, 68, 100
2, 328316, Note_off_c, 0, 64, 100
2, 328320, Note_on_c, 0, 75, 104
2, 328320, Note_on_c, 0, 66, 104
2, 328320, Note_on_c, 0, 63, 104
2, 328508, Note_off_c, 0, 75, 100
2, 328508, Note_off_c, 0, 66, 100
2, 328508, Note_off_c, 0, 63, 100
2, 328512, Note_on_c, 0, 73, 107
2, 328512, Note_on_c, 0, 64, 107
2, 328512, Note_on_c, 0, 61, 107
2, 328700, Note_off_c, 0, 73, 100
2, 328700, Note_off_c, 0, 64, 100
2, 328700, Note_off_c, 0, 61, 100
2, 328704, Note_on_c, 0, 60, 109
2, 328704, Note_on_c, 0, 63, 109
2, 328704, Note_on_c, 0, 72, 109
2, 328892, Note_off_c, 0, 60, 100
2, 328892, Note_off_c, 0, 63, 100
2, 328892, Note_off_c, 0, 72, 100
2, 328896, Note_on_c, 0, 84, 110
2, 328896, Note_on_c, 0, 72, 110
2, 328896, Note_on_c, 0, 75, 110
2, 329084, Note_off_c, 0, 84, 100
2, 329084, Note_off_c, 0, 72, 100
2, 329084, Note_off_c, 0, 75, 100
2, 329088, Note_on_c, 0, 84, 110
2, 329088, Note_on_c, 0, 72, 110
2, 329088, Note_on_c, 0, 75, 110
2, 329276, Note_off_c, 0, 84, 100
2, 329276, Note_off_c, 0, 72, 100
2, 329276, Note_off_c, 0, 75, 100
2, 329280, Note_on_c, 0, 84, 110
2, 329280, Note_on_c, 0, 72, 110
2, 329280, Note_on_c, 0, 75, 110
2, 329468, Note_off_c, 0, 84, 100
2, 329468, Note_off_c, 0, 72, 100
2, 329468, Note_off_c, 0, 75, 100
2, 329472, Note_on_c, 0, 84, 110
2, 329472, Note_on_c, 0, 72, 110
2, 329472, Note_on_c, 0, 75, 110
2, 329660, Note_off_c, 0, 84, 100
2, 329660, Note_off_c, 0, 72, 100
2, 329660, Note_off_c, 0, 75, 100
2, 329664, Note_on_c, 0, 84, 110
2, 329664, Note_on_c, 0, 72, 110
2, 329664, Note_on_c, 0, 75, 110
2, 329852, Note_off_c, 0, 84, 100
2, 329852, Note_off_c, 0, 72, 100
2, 329852, Note_off_c, 0, 75, 100
2, 329856, Note_on_c, 0, 85, 110
2, 329856, Note_on_c, 0, 73, 110
2, 329856, Note_on_c, 0, 76, 110
2, 330044, Note_off_c, 0, 85, 100
2, 330044, Note_off_c, 0, 73, 100
2, 330044, Note_off_c, 0, 76, 100
2, 330048, Note_on_c, 0, 87, 110
2, 330048, Note_on_c, 0, 75, 110
2, 330048, Note_on_c, 0, 78, 110
2, 330236, Note_off_c, 0, 87, 100
2, 330236, Note_off_c, 0, 75, 100
2, 330236, Note_off_c, 0, 78, 100
2, 330240, Note_on_c, 0, 88, 110
2, 330240, Note_on_c, 0, 80, 110
2, 330240, Note_on_c, 0, 76, 110
2, 330428, Note_off_c, 0, 80, 100
2, 330432, Note_on_c, 0, 80, 80
2, 330432, Note_on_c, 0, 85, 80
2, 330620, Note_off_c, 0, 88, 100
2, 330620, Note_off_c, 0, 76, 100
2, 330620, Note_off_c, 0, 80, 100
2, 330620, Note_off_c, 0, 85, 100
2, 330624, Note_on_c, 0, 80, 80
2, 330624, Note_on_c, 0, 85, 80
2, 330812, Note_off_c, 0, 80, 100
2, 330812, Note_off_c, 0, 85, 100
2, 330816, Note_on_c, 0, 76, 80
2, 330816, Note_on_c, 0, 80, 80
2, 331004, Note_off_c, 0, 76, 100
2, 331004, Note_off_c, 0, 80, 100
2, 331200, Note_on_c, 0, 85, 80
2, 331200, Note_on_c, 0, 81, 80
2, 331388, Note_off_c, 0, 85, 100
2, 331388, Note_off_c, 0, 81, 100
2, 331392, Note_on_c, 0, 85, 80
2, 331392, Note_on_c, 0, 81, 80
2, 331580, Note_off_c, 0, 85, 100
2, 331580, Note_off_c, 0, 81, 100
2, 331584, Note_on_c, 0, 78, 80
2, 331584, Note_on_c, 0, 81, 80
2, 331772, Note_off_c, 0, 78, 100
2, 331772, Note_off_c, 0, 81, 100
2, 331968, Note_on_c, 0, 80, 80
2, 331968, Note_on_c, 0, 76, 80
2, 332156, Note_off_c, 0, 80, 100
2, 332156, Note_off_c, 0, 76, 100
2, 332160, Note_on_c, 0, 80, 80
2, 332160, Note_on_c, 0, 76, 80
2, 332348, Note_off_c, 0, 80, 100
2, 332348, Note_off_c, 0, 76, 100
2, 332352, Note_on_c, 0, 73, 80
2, 332352, Note_on_c, 0, 76, 80
2, 332540, Note_off_c, 0, 73, 100
2, 332540, Note_off_c, 0, 76, 100
2, 332736, Note_on_c, 0, 75, 80
2, 332736, Note_on_c, 0, 80, 80
2, 332924, Note_off_c, 0, 75, 100
2, 332924, Note_off_c, 0, 80, 100
2, 332928, Note_on_c, 0, 75, 80
2, 332928, Note_on_c, 0, 80, 80
2, 333116, Note_off_c, 0, 75, 100
2, 333116, Note_off_c, 0, 80, 100
2, 333120, Note_on_c, 0, 72, 80
2, 333120, Note_on_c, 0, 75, 80
2, 333308, Note_off_c, 0, 72, 100
2, 333308, Note_off_c, 0, 75, 100
2, 333504, Note_on_c, 0, 73, 82
2, 333504, Note_on_c, 0, 80, 82
2, 333692, Note_off_c, 0, 73, 100
2, 333692, Note_off_c, 0, 80, 100
2, 333696, Note_on_c, 0, 73, 85
2, 333696, Note_on_c, 0, 80, 85
2, 333884, Note_off_c, 0, 73, 100
2, 333884, Note_off_c, 0, 80, 100
2, 333888, Note_on_c, 0, 68, 88
2, 333888, Note_on_c, 0, 76, 88
2, 334076, Note_off_c, 0, 68, 100
2, 334076, Note_off_c, 0, 76, 100
2, 334272, Note_on_c, 0, 69, 94
2, 334272, Note_on_c, 0, 78, 94
2, 334460, Note_off_c, 0, 69, 100
2, 334460, Note_off_c, 0, 78, 100
2, 334464, Note_on_c, 0, 69, 97
2, 334464, Note_on_c, 0, 78, 97
2, 334652, Note_off_c, 0, 69, 100
2, 334652, Note_off_c, 0, 78, 100
2, 334656, Note_on_c, 0, 66, 99
2, 334656, Note_on_c, 0, 74, 99
2, 334844, Note_off_c, 0, 66, 100
2, 334844, Note_off_c, 0, 74, 100
2, 335040, Note_on_c, 0, 68, 100
2, 335040, Note_on_c, 0, 76, 100
2, 335228, Note_off_c, 0, 68, 100
2, 335228, Note_off_c, 0, 76, 100
2, 335232, Note_on_c, 0, 68, 100
2, 335232, Note_on_c, 0, 76, 100
2, 335420, Note_off_c, 0, 68, 100
2, 335420, Note_off_c, 0, 76, 100
2, 335424, Note_on_c, 0, 64, 100
2, 335424, Note_on_c, 0, 73, 100
2, 335612, Note_off_c, 0, 64, 100
2, 335612, Note_off_c, 0, 73, 100
2, 335808, Note_on_c, 0, 66, 92
2, 335808, Note_on_c, 0, 75, 92
2, 335996, Note_off_c, 0, 66, 100
2, 335996, Note_off_c, 0, 75, 100
2, 336000, Note_on_c, 0, 66, 89
2, 336000, Note_on_c, 0, 75, 89
2, 336188, Note_off_c, 0, 66, 100
2, 336188, Note_off_c, 0, 75, 100
2, 336192, Note_on_c, 0, 63, 86
2, 336192, Note_on_c, 0, 72, 86
2, 336380, Note_off_c, 0, 63, 100
2, 336380, Note_off_c, 0, 72, 100
2, 336384, Note_on_c, 0, 64, 80
2, 336384, Note_on_c, 0, 73, 80
2, 336764, Note_off_c, 0, 64, 100
2, 336764, Note_off_c, 0, 73, 100
2, 337536, Note_on_c, 0, 64, 80
2, 337824, Note_on_c, 0, 61, 80
2, 337916, Note_off_c, 0, 64, 100
2, 337920, Note_on_c, 0, 60, 80
2, 338012, Note_off_c, 0, 61, 100
2, 338300, Note_off_c, 0, 60, 100
2, 338304, Note_on_c, 0, 54, 80
2, 338304, Note_on_c, 0, 60, 80
2, 338304, Note_on_c, 0, 68, 80
2, 338684, Note_off_c, 0, 54, 100
2, 338684, Note_off_c, 0, 60, 100
2, 338684, Note_off_c, 0, 68, 100
2, 338688, Note_on_c, 0, 54, 80
2, 338688, Note_on_c, 0, 60, 80
2, 338688, Note_on_c, 0, 68, 80
2, 339068, Note_off_c, 0, 54, 100
2, 339068, Note_off_c, 0, 60, 100
2, 339068, Note_off_c, 0, 68, 100
2, 339072, Note_on_c, 0, 54, 80
2, 339072, Note_on_c, 0, 60, 80
2, 339072, Note_on_c, 0, 68, 80
2, 339452, Note_off_c, 0, 54, 100
2, 339452, Note_off_c, 0, 60, 100
2, 339452, Note_off_c, 0, 68, 100
2, 339456, Note_on_c, 0, 52, 80
2, 339504, Note_on_c, 0, 61, 80
2, 339552, Note_on_c, 0, 68, 80
2, 339836, Note_off_c, 0, 52, 100
2, 339836, Note_off_c, 0, 61, 100
2, 340604, Note_off_c, 0, 68, 100
2, 340608, Note_on_c, 0, 76, 80
2, 340896, Note_on_c, 0, 73, 80
2, 340988, Note_off_c, 0, 76, 100
2, 340992, Note_on_c, 0, 72, 80
2, 341084, Note_off_c, 0, 73, 100
2, 341372, Note_off_c, 0, 72, 100
2, 341376, Note_on_c, 0, 66, 80
2, 341376, Note_on_c, 0, 80, 80
2, 341376, Note_on_c, 0, 72, 80
2, 341756, Note_off_c, 0, 66, 100
2, 341756, Note_off_c, 0, 80, 100
2, 341756, Note_off_c, 0, 72, 100
2, 341760, Note_on_c, 0, 66, 80
2, 341760, Note_on_c, 0, 80, 80
2, 341760, Note_on_c, 0, 72, 80
2, 342140, Note_off_c, 0, 66, 100
2, 342140, Note_off_c, 0, 80, 100
2, 342140, Note_off_c, 0, 72, 100
2, 342144, Note_on_c, 0, 66, 80
2, 342144, Note_on_c, 0, 80, 80
2, 342144, Note_on_c, 0, 72, 80
2, 342524, Note_off_c, 0, 66, 100
2, 342524, Note_off_c, 0, 80, 100
2, 342524, Note_off_c, 0, 72, 100
2, 342528, Note_on_c, 0, 64, 80
2, 342576, Note_on_c, 0, 73, 80
2, 342624, Note_on_c, 0, 80, 80
2, 343292, Note_off_c, 0, 64, 100
2, 343292, Note_off_c, 0, 73, 100
2, 343292, Note_off_c, 0, 80, 100
2, 343296, Note_on_c, 0, 66, 80
2, 343344, Note_on_c, 0, 72, 80
2, 343392, Note_on_c, 0, 80, 80
2, 344060, Note_off_c, 0, 66, 100
2, 344060, Note_off_c, 0, 72, 100
2, 344060, Note_off_c, 0, 80, 100
2, 344064, Note_on_c, 0, 64, 80
2, 344112, Note_on_c, 0, 73, 80
2, 344160, Note_on_c, 0, 80, 80
2, 344828, Note_off_c, 0, 64, 100
2, 344828, Note_off_c, 0, 73, 100
2, 344828, Note_off_c, 0, 80, 100
2, 344832, Note_on_c, 0, 66, 80
2, 344880, Note_on_c, 0, 72, 80
2, 344928, Note_on_c, 0, 80, 80
2, 345596, Note_off_c, 0, 66, 100
2, 345596, Note_off_c, 0, 72, 100
2, 345596, Note_off_c, 0, 80, 100
2, 345600, Control_c, 0, 64, 127
2, 345600, Note_on_c, 0, 52, 80
2, 345696, Note_on_c, 0, 61, 80
2, 345788, Note_off_c, 0, 52, 100
2, 345792, Note_on_c, 0, 56, 81
2, 345884, Note_off_c, 0, 61, 100
2, 345888, Note_on_c, 0, 61, 82
2, 345980, Note_off_c, 0, 56, 100
2, 345984, Note_on_c, 0, 52, 83
2, 346076, Note_off_c, 0, 61, 100
2, 346080, Note_on_c, 0, 61, 84
2, 346172, Note_off_c, 0, 52, 100
2, 346176, Note_on_c, 0, 56, 85
2, 346268, Note_off_c, 0, 61, 100
2, 346272, Note_on_c, 0, 61, 86
2, 346364, Note_off_c, 0, 56, 100
2, 346368, Note_on_c, 0, 52, 87
2, 346460, Note_off_c, 0, 61, 100
2, 346464, Note_on_c, 0, 61, 88
2, 346556, Note_off_c, 0, 52, 100
2, 346560, Note_on_c, 0, 56, 89
2, 346652, Note_off_c, 0, 61, 100
2, 346656, Note_on_c, 0, 61, 90
2, 346748, Note_off_c, 0, 56, 100
2, 346752, Note_on_c, 0, 52, 91
2, 346844, Note_off_c, 0, 61, 100
2, 346848, Note_on_c, 0, 61, 92
2, 346940, Note_off_c, 0, 52, 100
2, 346944, Note_on_c, 0, 56, 93
2, 347036, Note_off_c, 0, 61, 100
2, 347040, Note_on_c, 0, 61, 94
2, 347128, Control_c, 0, 64, 0
2, 347132, Note_off_c, 0, 56, 100
2, 347136, Control_c, 0, 64, 127
2, 347136, Note_on_c, 0, 49, 94
2, 347136, Note_on_c, 0, 53, 94
2, 347228, Note_off_c, 0, 61, 100
2, 347232, Note_on_c, 0, 61, 95
2, 347324, Note_off_c, 0, 49, 100
2, 347324, Note_off_c, 0, 53, 100
2, 347328, Note_on_c, 0, 56, 96
2, 347420, Note_off_c, 0, 61, 100
2, 347424, Note_on_c, 0, 61, 97
2, 347516, Note_off_c, 0, 56, 100
2, 347520, Note_on_c, 0, 49, 98
2, 347520, Note_on_c, 0, 53, 98
2, 347612, Note_off_c, 0, 61, 100
2, 347616, Note_on_c, 0, 61, 99
2, 347708, Note_off_c, 0, 49, 100
2, 347708, Note_off_c, 0, 53, 100
2, 347712, Note_on_c, 0, 56, 100
2, 347804, Note_off_c, 0, 61, 100
2, 347808, Note_on_c, 0, 61, 101
2, 347900, Note_off_c, 0, 56, 100
2, 347904, Note_on_c, 0, 49, 102
2, 347904, Note_on_c, 0, 53, 102
2, 347996, Note_off_c, 0, 61, 100
2, 348000, Note_on_c, 0, 61, 103
2, 348092, Note_off_c, 0, 49, 100
2, 348092, Note_off_c, 0, 53, 100
2, 348096, Note_on_c, 0, 56, 104
2, 348188, Note_off_c, 0, 61, 100
2, 348192, Note_on_c, 0, 61, 105
2, 348284, Note_off_c, 0, 56, 100
2, 348288, Note_on_c, 0, 49, 106
2, 348288, Note_on_c, 0, 53, 106
2, 348380, Note_off_c, 0, 61, 100
2, 348384, Note_on_c, 0, 61, 107
2, 348476, Note_off_c, 0, 49, 100
2, 348476, Note_off_c, 0, 53, 100
2, 348480, Note_on_c, 0, 56, 108
2, 348572, Note_off_c, 0, 61, 100
2, 348576, Note_on_c, 0, 61, 109
2, 348664, Control_c, 0, 64, 0
2, 348668, Note_off_c, 0, 56, 100
2, 348668, Note_off_c, 0, 61, 100
2, 348672, Note_on_c, 0, 49, 100
2, 348672, Note_on_c, 0, 54, 100
2, 348672, Note_on_c, 0, 57, 100
2, 348672, Note_on_c, 0, 61, 100
2, 348764, Note_off_c, 0, 49, 100
2, 348768, Note_on_c, 0, 49, 90
2, 348860, Note_off_c, 0, 54, 100
2, 348860, Note_off_c, 0, 57, 100
2, 348860, Note_off_c, 0, 61, 100
2, 348864, Note_on_c, 0, 54, 90
2, 348956, Note_off_c, 0, 49, 100
2, 348960, Note_on_c, 0, 57, 90
2, 349052, Note_off_c, 0, 54, 100
2, 349056, Note_on_c, 0, 61, 90
2, 349148, Note_off_c, 0, 57, 100
2, 349152, Note_on_c, 0, 54, 90
2, 349244, Note_off_c, 0, 61, 100
2, 349248, Note_on_c, 0, 57, 90
2, 349340, Note_off_c, 0, 54, 100
2, 349344, Note_on_c, 0, 61, 90
2, 349436, Note_off_c, 0, 57, 100
2, 349440, Note_on_c, 0, 66, 90
2, 349532, Note_off_c, 0, 61, 100
2, 349536, Note_on_c, 0, 57, 90
2, 349628, Note_off_c, 0, 66, 100
2, 349632, Note_on_c, 0, 61, 90
2, 349724, Note_off_c, 0, 57, 100
2, 349728, Note_on_c, 0, 66, 90
2, 349820, Note_off_c, 0, 61, 100
2, 349824, Note_on_c, 0, 69, 90
2, 349916, Note_off_c, 0, 66, 100
2, 349920, Note_on_c, 0, 61, 90
2, 350012, Note_off_c, 0, 69, 100
2, 350016, Note_on_c, 0, 66, 90
2, 350108, Note_off_c, 0, 61, 100
2, 350112, Note_on_c, 0, 69, 90
2, 350204, Note_off_c, 0, 66, 100
2, 350208, Note_on_c, 0, 73, 90
2, 350300, Note_off_c, 0, 69, 100
2, 350304, Note_on_c, 0, 66, 90
2, 350396, Note_off_c, 0, 73, 100
2, 350400, Note_on_c, 0, 69, 90
2, 350492, Note_off_c, 0, 66, 100
2, 350496, Note_on_c, 0, 73, 90
2, 350588, Note_off_c, 0, 69, 100
2, 350592, Note_on_c, 0, 78, 90
2, 350684, Note_off_c, 0, 73, 100
2, 350688, Note_on_c, 0, 69, 90
2, 350780, Note_off_c, 0, 78, 100
2, 350784, Note_on_c, 0, 73, 90
2, 350876, Note_off_c, 0, 69, 100
2, 350880, Note_on_c, 0, 78, 90
2, 350972, Note_off_c, 0, 73, 100
2, 350976, Note_on_c, 0, 81, 90
2, 351068, Note_off_c, 0, 78, 100
2, 351072, Note_on_c, 0, 73, 90
2, 351164, Note_off_c, 0, 81, 100
2, 351168, Note_on_c, 0, 78, 90
2, 351260, Note_off_c, 0, 73, 100
2, 351264, Note_on_c, 0, 81, 90
2, 351356, Note_off_c, 0, 78, 100
2, 351356, Note_off_c, 0, 81, 100
2, 351360, Control_c, 0, 64, 127
2, 351360, Note_on_c, 0, 85, 110
2, 351360, Note_on_c, 0, 73, 110
2, 351360, Note_on_c, 0, 78, 110
2, 351360, Note_on_c, 0, 81, 110
2, 351548, Note_off_c, 0, 85, 100
2, 351548, Note_off_c, 0, 73, 100
2, 351548, Note_off_c, 0, 78, 100
2, 351548, Note_off_c, 0, 81, 100
2, 351552, Note_on_c, 0, 85, 100
2, 351552, Note_on_c, 0, 81, 100
2, 351552, Note_on_c, 0, 78, 100
2, 351552, Note_on_c, 0, 73, 100
2, 351736, Control_c, 0, 64, 0
2, 351740, Note_off_c, 0, 85, 100
2, 351740, Note_off_c, 0, 81, 100
2, 351740, Note_off_c, 0, 78, 100
2, 351740, Note_off_c, 0, 73, 100
2, 351840, Note_on_c, 0, 49, 90
2, 351936, Note_on_c, 0, 52, 90
2, 352028, Note_off_c, 0, 49, 100
2, 352032, Note_on_c, 0, 56, 90
2, 352124, Note_off_c, 0, 52, 100
2, 352128, Note_on_c, 0, 61, 90
2, 352220, Note_off_c, 0, 56, 100
2, 352224, Note_on_c, 0, 52, 90
2, 352316, Note_off_c, 0, 61, 100
2, 352320, Note_on_c, 0, 56, 90
2, 352412, Note_off_c, 0, 52, 100
2, 352416, Note_on_c, 0, 61, 90
2, 352508, Note_off_c, 0, 56, 100
2, 352512, Note_on_c, 0, 64, 90
2, 352604, Note_off_c, 0, 61, 100
2, 352608, Note_on_c, 0, 56, 90
2, 352700, Note_off_c, 0, 64, 100
2, 352704, Note_on_c, 0, 61, 90
2, 352796, Note_off_c, 0, 56, 100
2, 352800, Note_on_c, 0, 64, 90
2, 352892, Note_off_c, 0, 61, 100
2, 352896, Note_on_c, 0, 68, 90
2, 352988, Note_off_c, 0, 64, 100
2, 352992, Note_on_c, 0, 61, 90
2, 353084, Note_off_c, 0, 68, 100
2, 353088, Note_on_c, 0, 64, 90
2, 353180, Note_off_c, 0, 61, 100
2, 353184, Note_on_c, 0, 68, 90
2, 353276, Note_off_c, 0, 64, 100
2, 353280, Note_on_c, 0, 73, 90
2, 353372, Note_off_c, 0, 68, 100
2, 353376, Note_on_c, 0, 64, 90
2, 353468, Note_off_c, 0, 73, 100
2, 353472, Note_on_c, 0, 68, 90
2, 353564, Note_off_c, 0, 64, 100
2, 353568, Note_on_c, 0, 73, 90
2, 353660, Note_off_c, 0, 68, 100
2, 353664, Note_on_c, 0, 76, 90
2, 353756, Note_off_c, 0, 73, 100
2, 353760, Note_on_c, 0, 68, 90
2, 353852, Note_off_c, 0, 76, 100
2, 353856, Note_on_c, 0, 73, 90
2, 353948, Note_off_c, 0, 68, 100
2, 353952, Note_on_c, 0, 76, 90
2, 354044, Note_off_c, 0, 73, 100
2, 354048, Note_on_c, 0, 80, 90
2, 354140, Note_off_c, 0, 76, 100
2, 354144, Note_on_c, 0, 73, 90
2, 354236, Note_off_c, 0, 80, 100
2, 354240, Note_on_c, 0, 76, 90
2, 354332, Note_off_c, 0, 73, 100
2, 354336, Note_on_c, 0, 80, 90
2, 354428, Note_off_c, 0, 76, 100
2, 354428, Note_off_c, 0, 80, 100
2, 354432, Control_c, 0, 64, 127
2, 354432, Note_on_c, 0, 73, 110
2, 354432, Note_on_c, 0, 76, 110
2, 354432, Note_on_c, 0, 85, 110
2, 354432, Note_on_c, 0, 80, 110
2, 354620, Note_off_c, 0, 73, 100
2, 354620, Note_off_c, 0, 76, 100
2, 354620, Note_off_c, 0, 85, 100
2, 354620, Note_off_c, 0, 80, 100
2, 354624, Note_on_c, 0, 73, 100
2, 354624, Note_on_c, 0, 76, 100
2, 354624, Note_on_c, 0, 85, 100
2, 354624, Note_on_c, 0, 80, 100
2, 354808, Control_c, 0, 64, 0
2, 354812, Note_off_c, 0, 73, 100
2, 354812, Note_off_c, 0, 76, 100
2, 354812, Note_off_c, 0, 85, 100
2, 354812, Note_off_c, 0, 80, 100
2, 354816, Control_c, 0, 64, 127
2, 355008, Note_on_c, 0, 49, 92
2, 355056, Note_on_c, 0, 52, 93
2, 355104, Note_on_c, 0, 55, 94
2, 355152, Note_on_c, 0, 58, 95
2, 355200, Note_on_c, 0, 61, 95
2, 355772, Note_off_c, 0, 49, 100
2, 355772, Note_off_c, 0, 52, 100
2, 355772, Note_off_c, 0, 55, 100
2, 355772, Note_off_c, 0, 58, 100
2, 355772, Note_off_c, 0, 61, 100
2, 355776, Note_on_c, 0, 61, 104
2, 355824, Note_on_c, 0, 64, 105
2, 355872, Note_on_c, 0, 67, 106
2, 355920, Note_on_c, 0, 70, 107
2, 355968, Note_on_c, 0, 73, 107
2, 356540, Note_off_c, 0, 61, 100
2, 356540, Note_off_c, 0, 64, 100
2, 356540, Note_off_c, 0, 67, 100
2, 356540, Note_off_c, 0, 70, 100
2, 356540, Note_off_c, 0, 73, 100
2, 356544, Note_on_c, 0, 73, 116
2, 356592, Note_on_c, 0, 76, 117
2, 356640, Note_on_c, 0, 79, 118
2, 356688, Note_on_c, 0, 82, 119
2, 356736, Note_on_c, 0, 85, 119
2, 357308, Note_off_c, 0, 73, 100
2, 357308, Note_off_c, 0, 76, 100
2, 357308, Note_off_c, 0, 79, 100
2, 357308, Note_off_c, 0, 82, 100
2, 357880, Control_c, 0, 64, 0
2, 357884, Note_off_c, 0, 85, 100
2, 357888, Control_c, 0, 64, 127
2, 358080, Note_on_c, 0, 45, 91
2, 358128, Note_on_c, 0, 48, 92
2, 358176, Note_on_c, 0, 51, 92
2, 358224, Note_on_c, 0, 54, 93
2, 358272, Note_on_c, 0, 57, 93
2, 358844, Note_off_c, 0, 45, 100
2, 358844, Note_off_c, 0, 48, 100
2, 358844, Note_off_c, 0, 51, 100
2, 358844, Note_off_c, 0, 54, 100
2, 358844, Note_off_c, 0, 57, 100
2, 358848, Note_on_c, 0, 57, 99
2, 358896, Note_on_c, 0, 60, 99
2, 358944, Note_on_c, 0, 63, 100
2, 358992, Note_on_c, 0, 66, 100
2, 359040, Note_on_c, 0, 69, 101
2, 359612, Note_off_c, 0, 57, 100
2, 359612, Note_off_c, 0, 60, 100
2, 359612, Note_off_c, 0, 63, 100
2, 359612, Note_off_c, 0, 66, 100
2, 359612, Note_off_c, 0, 69, 100
2, 359616, Note_on_c, 0, 69, 106
2, 359808, Note_on_c, 0, 72, 108
2, 360000, Note_on_c, 0, 75, 110
2, 360192, Note_on_c, 0, 81, 125
2, 362488, Note_off_c, 0, 69, 100
2, 362488, Note_off_c, 0, 75, 100
2, 362488, Control_c, 0, 64, 0
2, 362492, Note_off_c, 0, 72, 100
2, 362492, Note_off_c, 0, 81, 100
2, 362496, Control_c, 0, 64, 127
2, 362496, Note_on_c, 0, 61, 70
2, 362592, Note_on_c, 0, 68, 70
2, 362684, Note_off_c, 0, 61, 100
2, 362688, Note_on_c, 0, 64, 70
2, 362780, Note_off_c, 0, 68, 100
2, 362784, Note_on_c, 0, 68, 70
2, 362876, Note_off_c, 0, 64, 100
2, 362880, Note_on_c, 0, 61, 70
2, 362972, Note_off_c, 0, 68, 100
2, 362976, Note_on_c, 0, 68, 70
2, 363068, Note_off_c, 0, 61, 100
2, 363072, Note_on_c, 0, 64, 70
2, 363164, Note_off_c, 0, 68, 100
2, 363168, Note_on_c, 0, 68, 70
2, 363260, Note_off_c, 0, 64, 100
2, 363264, Note_on_c, 0, 61, 70
2, 363356, Note_off_c, 0, 68, 100
2, 363360, Note_on_c, 0, 68, 70
2, 363452, Note_off_c, 0, 61, 100
2, 363456, Note_on_c, 0, 64, 70
2, 363548, Note_off_c, 0, 68, 100
2, 363552, Note_on_c, 0, 68, 70
2, 363644, Note_off_c, 0, 64, 100
2, 363648, Note_on_c, 0, 61, 70
2, 363740, Note_off_c, 0, 68, 100
2, 363744, Note_on_c, 0, 68, 70
2, 363836, Note_off_c, 0, 61, 100
2, 363840, Note_on_c, 0, 64, 70
2, 363932, Note_off_c, 0, 68, 100
2, 363936, Note_on_c, 0, 68, 70
2, 364024, Control_c, 0, 64, 0
2, 364028, Note_off_c, 0, 64, 100
2, 364032, Control_c, 0, 64, 127
2, 364032, Note_on_c, 0, 63, 70
2, 364124, Note_off_c, 0, 68, 100
2, 364128, Note_on_c, 0, 68, 70
2, 364220, Note_off_c, 0, 63, 100
2, 364224, Note_on_c, 0, 66, 70
2, 364316, Note_off_c, 0, 68, 100
2, 364320, Note_on_c, 0, 68, 70
2, 364412, Note_off_c, 0, 66, 100
2, 364416, Note_on_c, 0, 63, 70
2, 364508, Note_off_c, 0, 68, 100
2, 364512, Note_on_c, 0, 68, 70
2, 364604, Note_off_c, 0, 63, 100
2, 364608, Note_on_c, 0, 66, 70
2, 364700, Note_off_c, 0, 68, 100
2, 364704, Note_on_c, 0, 68, 70
2, 364796, Note_off_c, 0, 66, 100
2, 364800, Note_on_c, 0, 63, 70
2, 364892, Note_off_c, 0, 68, 100
2, 364896, Note_on_c, 0, 68, 70
2, 364988, Note_off_c, 0, 63, 100
2, 364992, Note_on_c, 0, 66, 70
2, 365084, Note_off_c, 0, 68, 100
2, 365088, Note_on_c, 0, 68, 70
2, 365180, Note_off_c, 0, 66, 100
2, 365184, Note_on_c, 0, 63, 70
2, 365276, Note_off_c, 0, 68, 100
2, 365280, Note_on_c, 0, 68, 70
2, 365372, Note_off_c, 0, 63, 100
2, 365376, Note_on_c, 0, 66, 70
2, 365468, Note_off_c, 0, 68, 100
2, 365472, Note_on_c, 0, 68, 70
2, 365560, Control_c, 0, 64, 0
2, 365564, Note_off_c, 0, 66, 100
2, 365568, Control_c, 0, 64, 127
2, 365568, Note_on_c, 0, 61, 70
2, 365660, Note_off_c, 0, 68, 100
2, 365664, Note_on_c, 0, 68, 70
2, 365756, Note_off_c, 0, 61, 100
2, 365760, Note_on_c, 0, 64, 70
2, 365852, Note_off_c, 0, 68, 100
2, 365856, Note_on_c, 0, 68, 70
2, 365948, Note_off_c, 0, 64, 100
2, 365952, Note_on_c, 0, 61, 70
2, 366044, Note_off_c, 0, 68, 100
2, 366048, Note_on_c, 0, 68, 70
2, 366140, Note_off_c, 0, 61, 100
2, 366144, Note_on_c, 0, 64, 70
2, 366236, Note_off_c, 0, 68, 100
2, 366240, Note_on_c, 0, 68, 70
2, 366332, Note_off_c, 0, 64, 100
2, 366336, Note_on_c, 0, 61, 70
2, 366428, Note_off_c, 0, 68, 100
2, 366432, Note_on_c, 0, 68, 70
2, 366524, Note_off_c, 0, 61, 100
2, 366528, Note_on_c, 0, 64, 70
2, 366620, Note_off_c, 0, 68, 100
2, 366624, Note_on_c, 0, 68, 70
2, 366716, Note_off_c, 0, 64, 100
2, 366720, Note_on_c, 0, 61, 70
2, 366812, Note_off_c, 0, 68, 100
2, 366816, Note_on_c, 0, 68, 70
2, 366908, Note_off_c, 0, 61, 100
2, 366912, Note_on_c, 0, 64, 70
2, 367004, Note_off_c, 0, 68, 100
2, 367008, Note_on_c, 0, 68, 70
2, 367096, Control_c, 0, 64, 0
2, 367100, Note_off_c, 0, 64, 100
2, 367104, Control_c, 0, 64, 127
2, 367104, Note_on_c, 0, 60, 70
2, 367196, Note_off_c, 0, 68, 100
2, 367200, Note_on_c, 0, 68, 70
2, 367292, Note_off_c, 0, 60, 100
2, 367296, Note_on_c, 0, 66, 70
2, 367388, Note_off_c, 0, 68, 100
2, 367392, Note_on_c, 0, 68, 70
2, 367484, Note_off_c, 0, 66, 100
2, 367488, Note_on_c, 0, 60, 70
2, 367580, Note_off_c, 0, 68, 100
2, 367584, Note_on_c, 0, 68, 70
2, 367676, Note_off_c, 0, 60, 100
2, 367680, Note_on_c, 0, 66, 70
2, 367772, Note_off_c, 0, 68, 100
2, 367776, Note_on_c, 0, 68, 70
2, 367868, Note_off_c, 0, 66, 100
2, 367872, Note_on_c, 0, 60, 70
2, 367964, Note_off_c, 0, 68, 100
2, 367968, Note_on_c, 0, 68, 70
2, 368060, Note_off_c, 0, 60, 100
2, 368064, Note_on_c, 0, 66, 70
2, 368156, Note_off_c, 0, 68, 100
2, 368160, Note_on_c, 0, 68, 70
2, 368252, Note_off_c, 0, 66, 100
2, 368256, Note_on_c, 0, 60, 70
2, 368348, Note_off_c, 0, 68, 100
2, 368352, Note_on_c, 0, 68, 70
2, 368444, Note_off_c, 0, 60, 100
2, 368448, Note_on_c, 0, 66, 70
2, 368540, Note_off_c, 0, 68, 100
2, 368544, Note_on_c, 0, 68, 70
2, 368632, Control_c, 0, 64, 0
2, 368636, Note_off_c, 0, 66, 100
2, 368640, Note_on_c, 0, 61, 80
2, 368640, Note_on_c, 0, 64, 80
2, 368640, Note_on_c, 0, 68, 80
2, 368732, Note_off_c, 0, 68, 100
2, 369020, Note_off_c, 0, 61, 100
2, 369020, Note_off_c, 0, 64, 100
2, 369020, Note_off_c, 0, 68, 100
2, 369024, Note_on_c, 0, 68, 80
2, 369024, Note_on_c, 0, 80, 80
2, 369788, Note_off_c, 0, 68, 100
2, 369788, Note_off_c, 0, 80, 100
2, 369792, Note_on_c, 0, 64, 80
2, 369792, Note_on_c, 0, 76, 80
2, 370080, Note_on_c, 0, 61, 80
2, 370080, Note_on_c, 0, 73, 80
2, 370172, Note_off_c, 0, 64, 100
2, 370172, Note_off_c, 0, 76, 100
2, 370172, Note_off_c, 0, 61, 100
2, 370172, Note_off_c, 0, 73, 100
2, 370176, Note_on_c, 0, 61, 80
2, 370176, Note_on_c, 0, 73, 80
2, 370556, Note_off_c, 0, 61, 100
2, 370556, Note_off_c, 0, 73, 100
2, 370560, Note_on_c, 0, 60, 80
2, 370560, Note_on_c, 0, 72, 80
2, 371132, Note_off_c, 0, 60, 100
2, 371132, Note_off_c, 0, 72, 100
2, 371136, Note_on_c, 0, 60, 80
2, 371136, Note_on_c, 0, 72, 80
2, 371324, Note_off_c, 0, 60, 100
2, 371324, Note_off_c, 0, 72, 100
2, 371328, Note_on_c, 0, 80, 90
2, 371328, Note_on_c, 0, 68, 90
2, 371616, Note_on_c, 0, 60, 80
2, 371616, Note_on_c, 0, 72, 80
2, 371708, Note_off_c, 0, 80, 100
2, 371708, Note_off_c, 0, 68, 100
2, 371712, Note_on_c, 0, 63, 80
2, 371712, Note_on_c, 0, 75, 80
2, 371804, Note_off_c, 0, 60, 100
2, 371804, Note_off_c, 0, 72, 100
2, 372092, Note_off_c, 0, 63, 100
2, 372092, Note_off_c, 0, 75, 100
2, 372096, Note_on_c, 0, 61, 80
2, 372096, Note_on_c, 0, 73, 80
2, 372668, Note_off_c, 0, 61, 100
2, 372668, Note_off_c, 0, 73, 100
2, 372672, Note_on_c, 0, 61, 80
2, 372672, Note_on_c, 0, 73, 80
2, 372860, Note_off_c, 0, 61, 100
2, 372860, Note_off_c, 0, 73, 100
2, 372864, Note_on_c, 0, 68, 90
2, 372864, Note_on_c, 0, 80, 90
2, 373152, Note_on_c, 0, 61, 80
2, 373152, Note_on_c, 0, 73, 80
2, 373244, Note_off_c, 0, 68, 100
2, 373244, Note_off_c, 0, 80, 100
2, 373248, Note_on_c, 0, 64, 80
2, 373248, Note_on_c, 0, 76, 80
2, 373340, Note_off_c, 0, 61, 100
2, 373340, Note_off_c, 0, 73, 100
2, 373628, Note_off_c, 0, 64, 100
2, 373628, Note_off_c, 0, 76, 100
2, 373632, Note_on_c, 0, 63, 80
2, 373632, Note_on_c, 0, 75, 80
2, 374204, Note_off_c, 0, 63, 100
2, 374204, Note_off_c, 0, 75, 100
2, 374208, Note_on_c, 0, 63, 80
2, 374208, Note_on_c, 0, 75, 80
2, 374396, Note_off_c, 0, 63, 100
2, 374396, Note_off_c, 0, 75, 100
2, 374400, Note_on_c, 0, 68, 90
2, 374400, Note_on_c, 0, 80, 90
2, 374688, Note_on_c, 0, 63, 80
2, 374688, Note_on_c, 0, 75, 80
2, 374780, Note_off_c, 0, 68, 100
2, 374780, Note_off_c, 0, 80, 100
2, 374784, Note_on_c, 0, 66, 90
2, 374784, Note_on_c, 0, 78, 90
2, 374876, Note_off_c, 0, 63, 100
2, 374876, Note_off_c, 0, 75, 100
2, 374972, Note_off_c, 0, 66, 100
2, 374972, Note_off_c, 0, 78, 100
2, 374976, Note_on_c, 0, 64, 91
2, 374976, Note_on_c, 0, 76, 91
2, 375164, Note_off_c, 0, 64, 100
2, 375164, Note_off_c, 0, 76, 100
2, 375168, Note_on_c, 0, 73, 92
2, 375168, Note_on_c, 0, 85, 92
2, 375356, Note_off_c, 0, 73, 100
2, 375356, Note_off_c, 0, 85, 100
2, 375360, Note_on_c, 0, 64, 93
2, 375360, Note_on_c, 0, 76, 93
2, 375548, Note_off_c, 0, 64, 100
2, 375548, Note_off_c, 0, 76, 100
2, 375552, Note_on_c, 0, 66, 94
2, 375552, Note_on_c, 0, 78, 94
2, 375740, Note_off_c, 0, 66, 100
2, 375740, Note_off_c, 0, 78, 100
2, 375744, Note_on_c, 0, 65, 96
2, 375744, Note_on_c, 0, 77, 96
2, 375932, Note_off_c, 0, 65, 100
2, 375932, Note_off_c, 0, 77, 100
2, 375936, Note_on_c, 0, 73, 97
2, 375936, Note_on_c, 0, 85, 97
2, 376124, Note_off_c, 0, 73, 100
2, 376124, Note_off_c, 0, 85, 100
2, 376128, Note_on_c, 0, 65, 98
2, 376128, Note_on_c, 0, 77, 98
2, 376316, Note_off_c, 0, 65, 100
2, 376316, Note_off_c, 0, 77, 100
2, 376320, Note_on_c, 0, 68, 99
2, 376320, Note_on_c, 0, 80, 99
2, 376508, Note_off_c, 0, 68, 100
2, 376508, Note_off_c, 0, 80, 100
2, 376512, Note_on_c, 0, 66, 101
2, 376512, Note_on_c, 0, 78, 101
2, 376700, Note_off_c, 0, 66, 100
2, 376700, Note_off_c, 0, 78, 100
2, 376704, Note_on_c, 0, 73, 102
2, 376704, Note_on_c, 0, 85, 102
2, 376892, Note_off_c, 0, 73, 100
2, 376892, Note_off_c, 0, 85, 100
2, 376896, Note_on_c, 0, 66, 103
2, 376896, Note_on_c, 0, 78, 103
2, 377084, Note_off_c, 0, 66, 100
2, 377084, Note_off_c, 0, 78, 100
2, 377088, Note_on_c, 0, 69, 104
2, 377088, Note_on_c, 0, 81, 104
2, 377276, Note_off_c, 0, 69, 100
2, 377276, Note_off_c, 0, 81, 100
2, 377280, Note_on_c, 0, 68, 106
2, 377280, Note_on_c, 0, 80, 106
2, 377468, Note_off_c, 0, 68, 100
2, 377468, Note_off_c, 0, 80, 100
2, 377472, Note_on_c, 0, 73, 107
2, 377472, Note_on_c, 0, 85, 107
2, 377660, Note_off_c, 0, 73, 100
2, 377660, Note_off_c, 0, 85, 100
2, 377664, Note_on_c, 0, 68, 108
2, 377664, Note_on_c, 0, 80, 108
2, 377852, Note_off_c, 0, 68, 100
2, 377852, Note_off_c, 0, 80, 100
2, 377856, Control_c, 0, 64, 127
2, 377856, Note_on_c, 0, 81, 120
2, 377984, Note_on_c, 0, 78, 120
2, 378108, Note_off_c, 0, 81, 100
2, 378112, Note_on_c, 0, 73, 120
2, 378236, Note_off_c, 0, 78, 100
2, 378240, Note_on_c, 0, 69, 120
2, 378364, Note_off_c, 0, 73, 100
2, 378368, Note_on_c, 0, 66, 120
2, 378492, Note_off_c, 0, 69, 100
2, 378496, Note_on_c, 0, 61, 120
2, 378620, Note_off_c, 0, 66, 100
2, 378624, Note_on_c, 0, 69, 120
2, 378748, Note_off_c, 0, 61, 100
2, 378752, Note_on_c, 0, 66, 120
2, 378876, Note_off_c, 0, 69, 100
2, 378880, Note_on_c, 0, 61, 120
2, 379004, Note_off_c, 0, 66, 100
2, 379008, Note_on_c, 0, 57, 120
2, 379132, Note_off_c, 0, 61, 100
2, 379136, Note_on_c, 0, 54, 120
2, 379260, Note_off_c, 0, 57, 100
2, 379264, Note_on_c, 0, 49, 120
2, 379388, Note_off_c, 0, 54, 100
2, 379392, Note_on_c, 0, 57, 120
2, 379488, Note_on_c, 0, 54, 120
2, 379516, Note_off_c, 0, 49, 100
2, 379580, Note_off_c, 0, 57, 100
2, 379584, Note_on_c, 0, 49, 120
2, 379676, Note_off_c, 0, 54, 100
2, 379680, Note_on_c, 0, 45, 120
2, 379772, Note_off_c, 0, 49, 100
2, 379776, Note_on_c, 0, 49, 120
2, 379868, Note_off_c, 0, 45, 100
2, 379872, Note_on_c, 0, 54, 120
2, 379964, Note_off_c, 0, 49, 100
2, 379968, Note_on_c, 0, 57, 120
2, 380060, Note_off_c, 0, 54, 100
2, 380064, Note_on_c, 0, 61, 120
2, 380156, Note_off_c, 0, 57, 100
2, 380160, Note_on_c, 0, 66, 120
2, 380252, Note_off_c, 0, 61, 100
2, 380256, Note_on_c, 0, 69, 120
2, 380348, Note_off_c, 0, 66, 100
2, 380352, Note_on_c, 0, 73, 120
2, 380444, Note_off_c, 0, 69, 100
2, 380448, Note_on_c, 0, 78, 120
2, 380540, Note_off_c, 0, 73, 100
2, 380544, Note_on_c, 0, 81, 120
2, 380636, Note_off_c, 0, 78, 100
2, 380640, Note_on_c, 0, 78, 120
2, 380732, Note_off_c, 0, 81, 100
2, 380736, Note_on_c, 0, 73, 120
2, 380828, Note_off_c, 0, 78, 100
2, 380832, Note_on_c, 0, 69, 120
2, 380920, Control_c, 0, 64, 0
2, 380924, Note_off_c, 0, 73, 100
2, 380924, Note_off_c, 0, 69, 100
2, 380928, Control_c, 0, 64, 127
2, 380928, Note_on_c, 0, 81, 120
2, 381056, Note_on_c, 0, 78, 120
2, 381180, Note_off_c, 0, 81, 100
2, 381184, Note_on_c, 0, 74, 120
2, 381308, Note_off_c, 0, 78, 100
2, 381312, Note_on_c, 0, 69, 120
2, 381436, Note_off_c, 0, 74, 100
2, 381440, Note_on_c, 0, 66, 120
2, 381564, Note_off_c, 0, 69, 100
2, 381568, Note_on_c, 0, 62, 120
2, 381692, Note_off_c, 0, 66, 100
2, 381696, Note_on_c, 0, 69, 120
2, 381820, Note_off_c, 0, 62, 100
2, 381824, Note_on_c, 0, 66, 120
2, 381948, Note_off_c, 0, 69, 100
2, 381952, Note_on_c, 0, 62, 120
2, 382076, Note_off_c, 0, 66, 100
2, 382080, Note_on_c, 0, 57, 120
2, 382204, Note_off_c, 0, 62, 100
2, 382208, Note_on_c, 0, 54, 120
2, 382332, Note_off_c, 0, 57, 100
2, 382336, Note_on_c, 0, 50, 120
2, 382460, Note_off_c, 0, 54, 100
2, 382464, Note_on_c, 0, 57, 120
2, 382560, Note_on_c, 0, 54, 120
2, 382588, Note_off_c, 0, 50, 100
2, 382652, Note_off_c, 0, 57, 100
2, 382656, Note_on_c, 0, 50, 120
2, 382748, Note_off_c, 0, 54, 100
2, 382752, Note_on_c, 0, 45, 120
2, 382844, Note_off_c, 0, 50, 100
2, 382848, Note_on_c, 0, 50, 120
2, 382940, Note_off_c, 0, 45, 100
2, 382944, Note_on_c, 0, 54, 120
2, 383036, Note_off_c, 0, 50, 100
2, 383040, Note_on_c, 0, 57, 120
2, 383132, Note_off_c, 0, 54, 100
2, 383136, Note_on_c, 0, 62, 120
2, 383228, Note_off_c, 0, 57, 100
2, 383232, Note_on_c, 0, 66, 120
2, 383324, Note_off_c, 0, 62, 100
2, 383328, Note_on_c, 0, 69, 120
2, 383420, Note_off_c, 0, 66, 100
2, 383424, Note_on_c, 0, 74, 120
2, 383516, Note_off_c, 0, 69, 100
2, 383520, Note_on_c, 0, 78, 120
2, 383612, Note_off_c, 0, 74, 100
2, 383616, Note_on_c, 0, 81, 120
2, 383708, Note_off_c, 0, 78, 100
2, 383712, Note_on_c, 0, 78, 120
2, 383804, Note_off_c, 0, 81, 100
2, 383808, Note_on_c, 0, 74, 120
2, 383900, Note_off_c, 0, 78, 100
2, 383904, Note_on_c, 0, 69, 120
2, 383992, Control_c, 0, 64, 0
2, 383996, Note_off_c, 0, 74, 100
2, 383996, Note_off_c, 0, 69, 100
2, 384000, Control_c, 0, 64, 127
2, 384000, Note_on_c, 0, 85, 120
2, 384128, Note_on_c, 0, 82, 120
2, 384252, Note_off_c, 0, 85, 100
2, 384256, Note_on_c, 0, 79, 120
2, 384380, Note_off_c, 0, 82, 100
2, 384384, Note_on_c, 0, 76, 120
2, 384508, Note_off_c, 0, 79, 100
2, 384512, Note_on_c, 0, 73, 120
2, 384636, Note_off_c, 0, 76, 100
2, 384640, Note_on_c, 0, 70, 120
2, 384764, Note_off_c, 0, 73, 100
2, 384768, Note_on_c, 0, 76, 120
2, 384892, Note_off_c, 0, 70, 100
2, 384896, Note_on_c, 0, 73, 120
2, 385020, Note_off_c, 0, 76, 100
2, 385024, Note_on_c, 0, 70, 120
2, 385148, Note_off_c, 0, 73, 100
2, 385152, Note_on_c, 0, 67, 120
2, 385248, Note_on_c, 0, 64, 120
2, 385276, Note_off_c, 0, 70, 100
2, 385340, Note_off_c, 0, 67, 100
2, 385344, Note_on_c, 0, 61, 120
2, 385436, Note_off_c, 0, 64, 100
2, 385440, Note_on_c, 0, 58, 120
2, 385532, Note_off_c, 0, 61, 100
2, 385536, Note_on_c, 0, 64, 120
2, 385628, Note_off_c, 0, 58, 100
2, 385632, Note_on_c, 0, 61, 120
2, 385724, Note_off_c, 0, 64, 100
2, 385728, Note_on_c, 0, 58, 120
2, 385820, Note_off_c, 0, 61, 100
2, 385824, Note_on_c, 0, 55, 120
2, 385916, Note_off_c, 0, 58, 100
2, 385920, Note_on_c, 0, 52, 120
2, 386012, Note_off_c, 0, 55, 100
2, 386016, Note_on_c, 0, 49, 120
2, 386108, Note_off_c, 0, 52, 100
2, 386112, Note_on_c, 0, 52, 120
2, 386204, Note_off_c, 0, 49, 100
2, 386208, Note_on_c, 0, 55, 120
2, 386300, Note_off_c, 0, 52, 100
2, 386304, Note_on_c, 0, 58, 120
2, 386368, Note_on_c, 0, 61, 120
2, 386396, Note_off_c, 0, 55, 100
2, 386428, Note_off_c, 0, 58, 100
2, 386432, Note_on_c, 0, 64, 120
2, 386492, Note_off_c, 0, 61, 100
2, 386496, Note_on_c, 0, 67, 120
2, 386556, Note_off_c, 0, 64, 100
2, 386560, Note_on_c, 0, 70, 120
2, 386620, Note_off_c, 0, 67, 100
2, 386624, Note_on_c, 0, 73, 120
2, 386684, Note_off_c, 0, 70, 100
2, 386688, Note_on_c, 0, 76, 120
2, 386748, Note_off_c, 0, 73, 100
2, 386752, Note_on_c, 0, 79, 120
2, 386812, Note_off_c, 0, 76, 100
2, 386816, Note_on_c, 0, 82, 120
2, 386876, Note_off_c, 0, 79, 100
2, 386880, Note_on_c, 0, 85, 120
2, 386940, Note_off_c, 0, 82, 100
2, 386944, Note_on_c, 0, 82, 120
2, 387004, Note_off_c, 0, 85, 100
2, 387008, Note_on_c, 0, 79, 120
2, 387064, Control_c, 0, 64, 0
2, 387068, Note_off_c, 0, 82, 100
2, 387068, Note_off_c, 0, 79, 100
2, 387072, Control_c, 0, 64, 127
2, 387072, Note_on_c, 0, 88, 120
2, 387200, Note_on_c, 0, 85, 120
2, 387324, Note_off_c, 0, 88, 100
2, 387328, Note_on_c, 0, 80, 120
2, 387452, Note_off_c, 0, 85, 100
2, 387456, Note_on_c, 0, 76, 120
2, 387580, Note_off_c, 0, 80, 100
2, 387584, Note_on_c, 0, 73, 120
2, 387708, Note_off_c, 0, 76, 100
2, 387712, Note_on_c, 0, 68, 120
2, 387836, Note_off_c, 0, 73, 100
2, 387840, Note_on_c, 0, 76, 120
2, 387964, Note_off_c, 0, 68, 100
2, 387968, Note_on_c, 0, 73, 120
2, 388092, Note_off_c, 0, 76, 100
2, 388096, Note_on_c, 0, 68, 120
2, 388220, Note_off_c, 0, 73, 100
2, 388224, Note_on_c, 0, 64, 120
2, 388320, Note_on_c, 0, 73, 120
2, 388348, Note_off_c, 0, 68, 100
2, 388412, Note_off_c, 0, 64, 100
2, 388416, Note_on_c, 0, 68, 120
2, 388508, Note_off_c, 0, 73, 100
2, 388512, Note_on_c, 0, 64, 120
2, 388604, Note_off_c, 0, 68, 100
2, 388608, Note_on_c, 0, 61, 120
2, 388700, Note_off_c, 0, 64, 100
2, 388704, Note_on_c, 0, 68, 120
2, 388796, Note_off_c, 0, 61, 100
2, 388800, Note_on_c, 0, 64, 120
2, 388892, Note_off_c, 0, 68, 100
2, 388896, Note_on_c, 0, 61, 120
2, 388988, Note_off_c, 0, 64, 100
2, 388992, Note_on_c, 0, 56, 120
2, 389084, Note_off_c, 0, 61, 100
2, 389088, Note_on_c, 0, 64, 120
2, 389180, Note_off_c, 0, 56, 100
2, 389184, Note_on_c, 0, 61, 120
2, 389276, Note_off_c, 0, 64, 100
2, 389280, Note_on_c, 0, 56, 120
2, 389372, Note_off_c, 0, 61, 100
2, 389376, Note_on_c, 0, 52, 120
2, 389468, Note_off_c, 0, 56, 100
2, 389472, Note_on_c, 0, 61, 120
2, 389564, Note_off_c, 0, 52, 100
2, 389568, Note_on_c, 0, 56, 120
2, 389660, Note_off_c, 0, 61, 100
2, 389664, Note_on_c, 0, 52, 120
2, 389756, Note_off_c, 0, 56, 100
2, 389760, Note_on_c, 0, 49, 120
2, 389852, Note_off_c, 0, 52, 100
2, 389856, Note_on_c, 0, 56, 120
2, 389948, Note_off_c, 0, 49, 100
2, 389952, Note_on_c, 0, 52, 120
2, 390048, Note_on_c, 0, 49, 120
2, 390136, Control_c, 0, 64, 0
2, 390428, Note_off_c, 0, 56, 100
2, 390524, Note_off_c, 0, 52, 100
2, 390524, Note_off_c, 0, 49, 100
2, 390528, Note_on_c, 0, 48, 110
2, 390624, Note_on_c, 0, 49, 110
2, 390716, Note_off_c, 0, 48, 100
2, 390720, Note_on_c, 0, 50, 110
2, 390812, Note_off_c, 0, 49, 100
2, 390816, Note_on_c, 0, 51, 110
2, 390908, Note_off_c, 0, 50, 100
2, 390912, Note_on_c, 0, 52, 110
2, 391004, Note_off_c, 0, 51, 100
2, 391008, Note_on_c, 0, 53, 110
2, 391100, Note_off_c, 0, 52, 100
2, 391104, Note_on_c, 0, 54, 110
2, 391196, Note_off_c, 0, 53, 100
2, 391200, Note_on_c, 0, 55, 110
2, 391292, Note_off_c, 0, 54, 100
2, 391296, Note_on_c, 0, 56, 110
2, 391388, Note_off_c, 0, 55, 100
2, 391392, Note_on_c, 0, 57, 110
2, 391484, Note_off_c, 0, 56, 100
2, 391488, Note_on_c, 0, 58, 110
2, 391580, Note_off_c, 0, 57, 100
2, 391584, Note_on_c, 0, 59, 110
2, 391676, Note_off_c, 0, 58, 100
2, 391680, Note_on_c, 0, 60, 110
2, 391772, Note_off_c, 0, 59, 100
2, 391776, Note_on_c, 0, 61, 110
2, 391868, Note_off_c, 0, 60, 100
2, 391872, Note_on_c, 0, 62, 110
2, 391964, Note_off_c, 0, 61, 100
2, 391968, Note_on_c, 0, 63, 110
2, 392060, Note_off_c, 0, 62, 100
2, 392064, Note_on_c, 0, 64, 110
2, 392136, Note_on_c, 0, 65, 110
2, 392156, Note_off_c, 0, 63, 100
2, 392208, Note_on_c, 0, 66, 110
2, 392252, Note_off_c, 0, 64, 100
2, 392284, Note_on_c, 0, 67, 110
2, 392324, Note_off_c, 0, 65, 100
2, 392392, Note_on_c, 0, 68, 110
2, 392396, Note_off_c, 0, 66, 100
2, 392448, Note_on_c, 0, 69, 110
2, 392472, Note_off_c, 0, 67, 100
2, 392520, Note_on_c, 0, 70, 110
2, 392580, Note_off_c, 0, 68, 100
2, 392592, Note_on_c, 0, 71, 110
2, 392636, Note_off_c, 0, 69, 100
2, 392668, Note_on_c, 0, 72, 110
2, 392708, Note_off_c, 0, 70, 100
2, 392776, Note_on_c, 0, 73, 110
2, 392780, Note_off_c, 0, 71, 100
2, 392832, Note_on_c, 0, 74, 110
2, 392856, Note_off_c, 0, 72, 100
2, 392896, Note_on_c, 0, 75, 110
2, 392956, Note_off_c, 0, 74, 100
2, 392960, Note_on_c, 0, 76, 110
2, 392964, Note_off_c, 0, 73, 100
2, 393020, Note_off_c, 0, 75, 100
2, 393024, Note_on_c, 0, 77, 110
2, 393072, Note_on_c, 0, 78, 110
2, 393084, Note_off_c, 0, 76, 100
2, 393116, Note_off_c, 0, 77, 100
2, 393120, Note_on_c, 0, 79, 110
2, 393164, Note_off_c, 0, 78, 100
2, 393168, Note_on_c, 0, 80, 110
2, 393212, Note_off_c, 0, 79, 100
2, 393212, Note_off_c, 0, 80, 100
2, 393216, Control_c, 0, 64, 127
2, 393216, Note_on_c, 0, 81, 100
2, 393280, Note_on_c, 0, 83, 100
2, 393340, Note_off_c, 0, 81, 100
2, 393344, Note_on_c, 0, 81, 100
2, 393404, Note_off_c, 0, 83, 100
2, 393408, Note_on_c, 0, 83, 100
2, 393468, Note_off_c, 0, 81, 100
2, 393472, Note_on_c, 0, 81, 100
2, 393532, Note_off_c, 0, 83, 100
2, 393536, Note_on_c, 0, 83, 100
2, 393596, Note_off_c, 0, 81, 100
2, 393600, Note_on_c, 0, 81, 100
2, 393660, Note_off_c, 0, 83, 100
2, 393664, Note_on_c, 0, 83, 100
2, 393724, Note_off_c, 0, 81, 100
2, 393728, Note_on_c, 0, 81, 100
2, 393788, Note_off_c, 0, 83, 100
2, 393792, Note_on_c, 0, 83, 100
2, 393852, Note_off_c, 0, 81, 100
2, 393856, Note_on_c, 0, 81, 100
2, 393916, Note_off_c, 0, 83, 100
2, 393920, Note_on_c, 0, 83, 100
2, 393980, Note_off_c, 0, 81, 100
2, 393984, Note_on_c, 0, 81, 100
2, 394044, Note_off_c, 0, 83, 100
2, 394048, Note_on_c, 0, 83, 100
2, 394108, Note_off_c, 0, 81, 100
2, 394112, Note_on_c, 0, 81, 100
2, 394172, Note_off_c, 0, 83, 100
2, 394176, Note_on_c, 0, 83, 100
2, 394236, Note_off_c, 0, 81, 100
2, 394240, Note_on_c, 0, 81, 100
2, 394300, Note_off_c, 0, 83, 100
2, 394304, Note_on_c, 0, 83, 100
2, 394364, Note_off_c, 0, 81, 100
2, 394368, Note_on_c, 0, 81, 100
2, 394428, Note_off_c, 0, 83, 100
2, 394432, Note_on_c, 0, 83, 100
2, 394492, Note_off_c, 0, 81, 100
2, 394496, Note_on_c, 0, 81, 100
2, 394556, Note_off_c, 0, 83, 100
2, 394560, Note_on_c, 0, 83, 100
2, 394620, Note_off_c, 0, 81, 100
2, 394624, Note_on_c, 0, 81, 100
2, 394684, Note_off_c, 0, 83, 100
2, 394688, Note_on_c, 0, 83, 100
2, 394744, Control_c, 0, 64, 0
2, 394752, Note_on_c, 0, 80, 100
2, 394848, Note_on_c, 0, 78, 100
2, 394944, Note_on_c, 0, 76, 99
2, 395040, Note_on_c, 0, 75, 98
2, 395132, Note_off_c, 0, 81, 100
2, 395132, Note_off_c, 0, 80, 100
2, 395132, Note_off_c, 0, 78, 100
2, 395136, Note_on_c, 0, 78, 98
2, 395196, Note_off_c, 0, 83, 64
2, 395232, Note_on_c, 0, 73, 97
2, 395324, Note_off_c, 0, 76, 100
2, 395328, Note_on_c, 0, 72, 96
2, 395420, Note_off_c, 0, 75, 100
2, 395424, Note_on_c, 0, 75, 95
2, 395516, Note_off_c, 0, 78, 100
2, 395520, Note_on_c, 0, 69, 95
2, 395612, Note_off_c, 0, 73, 100
2, 395616, Note_on_c, 0, 68, 94
2, 395708, Note_off_c, 0, 72, 100
2, 395712, Note_on_c, 0, 66, 93
2, 395804, Note_off_c, 0, 75, 100
2, 395804, Note_off_c, 0, 69, 100
2, 395808, Note_on_c, 0, 69, 92
2, 395904, Note_on_c, 0, 64, 92
2, 395996, Note_off_c, 0, 68, 100
2, 396000, Note_on_c, 0, 63, 91
2, 396092, Note_off_c, 0, 66, 100
2, 396096, Note_on_c, 0, 66, 90
2, 396188, Note_off_c, 0, 69, 100
2, 396192, Note_on_c, 0, 61, 89
2, 396284, Note_off_c, 0, 64, 100
2, 396288, Note_on_c, 0, 60, 89
2, 396380, Note_off_c, 0, 63, 100
2, 396384, Note_on_c, 0, 63, 88
2, 396476, Note_off_c, 0, 66, 100
2, 396480, Note_on_c, 0, 57, 87
2, 396572, Note_off_c, 0, 61, 100
2, 396576, Note_on_c, 0, 56, 86
2, 396668, Note_off_c, 0, 60, 100
2, 396672, Note_on_c, 0, 54, 86
2, 396764, Note_off_c, 0, 63, 100
2, 396764, Note_off_c, 0, 57, 100
2, 396768, Note_on_c, 0, 57, 85
2, 396864, Note_on_c, 0, 52, 84
2, 396956, Note_off_c, 0, 56, 100
2, 397052, Note_off_c, 0, 54, 100
2, 397056, Note_on_c, 0, 51, 83
2, 397148, Note_off_c, 0, 57, 100
2, 397244, Note_off_c, 0, 52, 100
2, 397248, Note_on_c, 0, 54, 81
2, 397436, Note_off_c, 0, 51, 100
2, 397440, Note_on_c, 0, 49, 80
2, 397628, Note_off_c, 0, 54, 100
2, 397632, Note_on_c, 0, 48, 78
2, 397820, Note_off_c, 0, 49, 100
2, 397824, Note_on_c, 0, 51, 77
2, 398208, Note_on_c, 0, 45, 74
2, 398396, Note_off_c, 0, 48, 64
2, 398592, Note_on_c, 0, 44, 71
2, 399356, Note_off_c, 0, 51, 100
2, 399356, Note_off_c, 0, 45, 100
2, 399360, Note_on_c, 0, 43, 70
2, 399740, Note_off_c, 0, 44, 100
2, 400892, Note_off_c, 0, 43, 100
2, 400896, Note_on_c, 0, 44, 70
2, 402428, Note_off_c, 0, 44, 100
2, 403584, Note_on_c, 0, 64, 80
2, 403872, Note_on_c, 0, 61, 80
2, 403964, Note_off_c, 0, 64, 100
2, 403968, Note_on_c, 0, 60, 80
2, 404060, Note_off_c, 0, 61, 100
2, 404348, Note_off_c, 0, 60, 100
2, 404352, Note_on_c, 0, 54, 80
2, 404352, Note_on_c, 0, 60, 80
2, 404352, Note_on_c, 0, 68, 80
2, 404732, Note_off_c, 0, 54, 100
2, 404732, Note_off_c, 0, 60, 100
2, 404732, Note_off_c, 0, 68, 100
2, 404736, Note_on_c, 0, 54, 80
2, 404736, Note_on_c, 0, 60, 80
2, 404736, Note_on_c, 0, 68, 80
2, 405116, Note_off_c, 0, 54, 100
2, 405116, Note_off_c, 0, 60, 100
2, 405116, Note_off_c, 0, 68, 100
2, 405120, Note_on_c, 0, 54, 80
2, 405120, Note_on_c, 0, 60, 80
2, 405120, Note_on_c, 0, 68, 80
2, 405500, Note_off_c, 0, 54, 100
2, 405500, Note_off_c, 0, 60, 100
2, 405500, Note_off_c, 0, 68, 100
2, 405504, Note_on_c, 0, 52, 80
2, 405552, Note_on_c, 0, 61, 80
2, 405600, Note_on_c, 0, 68, 80
2, 405884, Note_off_c, 0, 52, 100
2, 405884, Note_off_c, 0, 61, 100
2, 406652, Note_off_c, 0, 68, 100
2, 406656, Note_on_c, 0, 76, 80
2, 406944, Note_on_c, 0, 73, 80
2, 407036, Note_off_c, 0, 76, 100
2, 407040, Note_on_c, 0, 72, 80
2, 407132, Note_off_c, 0, 73, 100
2, 407420, Note_off_c, 0, 72, 100
2, 407424, Note_on_c, 0, 66, 80
2, 407424, Note_on_c, 0, 80, 80
2, 407424, Note_on_c, 0, 72, 80
2, 407804, Note_off_c, 0, 66, 100
2, 407804, Note_off_c, 0, 80, 100
2, 407804, Note_off_c, 0, 72, 100
2, 407808, Note_on_c, 0, 66, 80
2, 407808, Note_on_c, 0, 80, 80
2, 407808, Note_on_c, 0, 72, 80
2, 408188, Note_off_c, 0, 66, 100
2, 408188, Note_off_c, 0, 80, 100
2, 408188, Note_off_c, 0, 72, 100
2, 408192, Note_on_c, 0, 66, 80
2, 408192, Note_on_c, 0, 80, 80
2, 408192, Note_on_c, 0, 72, 80
2, 408572, Note_off_c, 0, 66, 100
2, 408572, Note_off_c, 0, 80, 100
2, 408572, Note_off_c, 0, 72, 100
2, 408576, Note_on_c, 0, 64, 80
2, 408624, Note_on_c, 0, 73, 80
2, 408672, Note_on_c, 0, 80, 80
2, 409340, Note_off_c, 0, 64, 100
2, 409340, Note_off_c, 0, 73, 100
2, 409340, Note_off_c, 0, 80, 100
2, 409344, Note_on_c, 0, 66, 80
2, 409392, Note_on_c, 0, 72, 80
2, 409440, Note_on_c, 0, 80, 80
2, 410108, Note_off_c, 0, 66, 100
2, 410108, Note_off_c, 0, 72, 100
2, 410108, Note_off_c, 0, 80, 100
2, 410112, Note_on_c, 0, 64, 80
2, 410160, Note_on_c, 0, 73, 80
2, 410208, Note_on_c, 0, 80, 80
2, 410876, Note_off_c, 0, 64, 100
2, 410876, Note_off_c, 0, 73, 100
2, 410876, Note_off_c, 0, 80, 100
2, 410880, Note_on_c, 0, 66, 80
2, 410928, Note_on_c, 0, 72, 80
2, 410976, Note_on_c, 0, 80, 80
2, 411644, Note_off_c, 0, 66, 100
2, 411644, Note_off_c, 0, 72, 100
2, 411644, Note_off_c, 0, 80, 100
2, 411648, Note_on_c, 0, 64, 110
2, 411672, Note_on_c, 0, 73, 110
2, 411696, Note_on_c, 0, 80, 110
2, 411740, Note_off_c, 0, 64, 100
2, 411744, Note_on_c, 0, 64, 110
2, 411840, Note_on_c, 0, 68, 110
2, 411932, Note_off_c, 0, 73, 100
2, 411932, Note_off_c, 0, 64, 100
2, 411936, Note_on_c, 0, 73, 110
2, 412028, Note_off_c, 0, 68, 100
2, 412032, Note_on_c, 0, 76, 110
2, 412124, Note_off_c, 0, 73, 100
2, 412128, Note_on_c, 0, 68, 110
2, 412220, Note_off_c, 0, 76, 100
2, 412224, Note_on_c, 0, 73, 110
2, 412316, Note_off_c, 0, 68, 100
2, 412320, Note_on_c, 0, 76, 110
2, 412412, Note_off_c, 0, 80, 100
2, 412412, Note_off_c, 0, 73, 100
2, 412416, Note_on_c, 0, 80, 110
2, 412508, Note_off_c, 0, 76, 100
2, 412512, Note_on_c, 0, 73, 110
2, 412604, Note_off_c, 0, 80, 100
2, 412608, Note_on_c, 0, 76, 110
2, 412700, Note_off_c, 0, 73, 100
2, 412704, Note_on_c, 0, 80, 110
2, 412796, Note_off_c, 0, 76, 100
2, 412800, Note_on_c, 0, 85, 110
2, 412892, Note_off_c, 0, 80, 100
2, 412896, Note_on_c, 0, 76, 110
2, 412988, Note_off_c, 0, 85, 100
2, 412992, Note_on_c, 0, 80, 110
2, 413084, Note_off_c, 0, 76, 100
2, 413088, Note_on_c, 0, 85, 110
2, 413180, Note_off_c, 0, 80, 100
2, 413184, Note_on_c, 0, 88, 110
2, 413276, Note_off_c, 0, 85, 100
2, 413280, Note_on_c, 0, 85, 110
2, 413376, Note_on_c, 0, 80, 110
2, 413468, Note_off_c, 0, 88, 100
2, 413472, Note_on_c, 0, 76, 110
2, 413564, Note_off_c, 0, 85, 100
2, 413568, Note_on_c, 0, 85, 110
2, 413660, Note_off_c, 0, 80, 100
2, 413664, Note_on_c, 0, 80, 110
2, 413756, Note_off_c, 0, 76, 100
2, 413760, Note_on_c, 0, 76, 110
2, 413852, Note_off_c, 0, 85, 100
2, 413856, Note_on_c, 0, 73, 110
2, 413948, Note_off_c, 0, 80, 100
2, 413952, Note_on_c, 0, 80, 110
2, 414044, Note_off_c, 0, 76, 100
2, 414048, Note_on_c, 0, 76, 110
2, 414140, Note_off_c, 0, 73, 100
2, 414144, Note_on_c, 0, 73, 110
2, 414236, Note_off_c, 0, 80, 100
2, 414240, Note_on_c, 0, 68, 110
2, 414332, Note_off_c, 0, 76, 100
2, 414336, Note_on_c, 0, 76, 110
2, 414428, Note_off_c, 0, 73, 100
2, 414432, Note_on_c, 0, 73, 110
2, 414524, Note_off_c, 0, 68, 100
2, 414528, Note_on_c, 0, 68, 110
2, 414620, Note_off_c, 0, 76, 100
2, 414624, Note_on_c, 0, 64, 110
2, 414716, Note_off_c, 0, 73, 100
2, 414720, Note_on_c, 0, 73, 110
2, 414812, Note_off_c, 0, 68, 100
2, 414816, Note_on_c, 0, 68, 110
2, 414908, Note_off_c, 0, 64, 100
2, 414912, Note_on_c, 0, 64, 110
2, 415004, Note_off_c, 0, 73, 100
2, 415008, Note_on_c, 0, 61, 110
2, 415100, Note_off_c, 0, 68, 100
2, 415104, Note_on_c, 0, 68, 110
2, 415196, Note_off_c, 0, 64, 100
2, 415200, Note_on_c, 0, 64, 110
2, 415292, Note_off_c, 0, 61, 100
2, 415296, Note_on_c, 0, 61, 110
2, 415388, Note_off_c, 0, 68, 100
2, 415392, Note_on_c, 0, 56, 110
2, 415484, Note_off_c, 0, 64, 100
2, 415488, Note_on_c, 0, 64, 110
2, 415580, Note_off_c, 0, 61, 100
2, 415584, Note_on_c, 0, 61, 110
2, 415676, Note_off_c, 0, 56, 100
2, 415680, Note_on_c, 0, 56, 110
2, 415772, Note_off_c, 0, 64, 100
2, 415776, Note_on_c, 0, 52, 110
2, 415868, Note_off_c, 0, 61, 100
2, 415872, Note_on_c, 0, 61, 110
2, 415964, Note_off_c, 0, 56, 100
2, 415968, Note_on_c, 0, 56, 110
2, 416060, Note_off_c, 0, 52, 100
2, 416064, Note_on_c, 0, 52, 110
2, 416156, Note_off_c, 0, 61, 100
2, 416160, Note_on_c, 0, 56, 110
2, 416252, Note_off_c, 0, 56, 100
2, 416252, Note_off_c, 0, 52, 100
2, 416256, Note_on_c, 0, 49, 120
2, 416348, Note_off_c, 0, 56, 100
2, 417020, Note_off_c, 0, 49, 100
2, 417024, Note_on_c, 0, 85, 120
2, 417024, Note_on_c, 0, 80, 120
2, 417024, Note_on_c, 0, 76, 120
2, 417024, Note_on_c, 0, 73, 120
2, 417788, Note_off_c, 0, 85, 100
2, 417788, Note_off_c, 0, 80, 100
2, 417788, Note_off_c, 0, 76, 100
2, 417788, Note_off_c, 0, 73, 100
2, 417792, Note_on_c, 0, 73, 120
2, 417792, Note_on_c, 0, 68, 120
2, 417792, Note_on_c, 0, 64, 120
2, 417792, Note_on_c, 0, 61, 120
2, 419324, Note_off_c, 0, 73, 100
2, 419324, Note_off_c, 0, 68, 100
2, 419324, Note_off_c, 0, 64, 100
2, 419324, Note_off_c, 0, 61, 100
2, 420096, Control_c, 0, 7, 0
2, 420864, Note_on_c, 0, 61, 1
2, 421052, Note_off_c, 0, 61, 100
2, 421052, End_track
3, 0, Start_track
3, 0, Title_t, "Left"
3, 0, Control_c, 1, 0, 0
3, 0, Program_c, 1, 0
3, 0, Control_c, 1, 7, 100
3, 0, Control_c, 1, 10, 54
3, 0, Control_c, 1, 91, 127
3, 0, Key_signature, 4, "major"
3, 0, Note_on_c, 1, 37, 80
3, 188, Note_off_c, 1, 37, 100
3, 192, Note_on_c, 1, 44, 80
3, 380, Note_off_c, 1, 44, 100
3, 384, Note_on_c, 1, 37, 80
3, 572, Note_off_c, 1, 37, 100
3, 576, Note_on_c, 1, 44, 80
3, 764, Note_off_c, 1, 44, 100
3, 768, Note_on_c, 1, 37, 80
3, 956, Note_off_c, 1, 37, 100
3, 960, Note_on_c, 1, 44, 80
3, 1148, Note_off_c, 1, 44, 100
3, 1152, Note_on_c, 1, 37, 80
3, 1340, Note_off_c, 1, 37, 100
3, 1344, Note_on_c, 1, 44, 80
3, 1532, Note_off_c, 1, 44, 100
3, 1536, Note_on_c, 1, 37, 80
3, 1724, Note_off_c, 1, 37, 100
3, 1728, Note_on_c, 1, 44, 80
3, 1916, Note_off_c, 1, 44, 100
3, 1920, Note_on_c, 1, 37, 80
3, 2108, Note_off_c, 1, 37, 100
3, 2112, Note_on_c, 1, 44, 80
3, 2300, Note_off_c, 1, 44, 100
3, 2304, Note_on_c, 1, 37, 80
3, 2492, Note_off_c, 1, 37, 100
3, 2496, Note_on_c, 1, 44, 80
3, 2684, Note_off_c, 1, 44, 100
3, 2688, Note_on_c, 1, 49, 100
3, 2688, Note_on_c, 1, 37, 100
3, 2880, Note_on_c, 1, 44, 100
3, 3068, Note_off_c, 1, 49, 100
3, 3068, Note_off_c, 1, 37, 100
3, 3068, Note_off_c, 1, 44, 100
3, 3072, Note_on_c, 1, 36, 80
3, 3260, Note_off_c, 1, 36, 100
3, 3264, Note_on_c, 1, 44, 80
3, 3452, Note_off_c, 1, 44, 100
3, 3456, Note_on_c, 1, 36, 80
3, 3644, Note_off_c, 1, 36, 100
3, 3648, Note_on_c, 1, 44, 80
3, 3836, Note_off_c, 1, 44, 100
3, 3840, Note_on_c, 1, 36, 80
3, 4028, Note_off_c, 1, 36, 100
3, 4032, Note_on_c, 1, 44, 80
3, 4220, Note_off_c, 1, 44, 100
3, 4224, Note_on_c, 1, 36, 80
3, 4412, Note_off_c, 1, 36, 100
3, 4416, Note_on_c, 1, 44, 80
3, 4604, Note_off_c, 1, 44, 100
3, 4608, Note_on_c, 1, 36, 80
3, 4796, Note_off_c, 1, 36, 100
3, 4800, Note_on_c, 1, 44, 80
3, 4988, Note_off_c, 1, 44, 100
3, 4992, Note_on_c, 1, 36, 80
3, 5180, Note_off_c, 1, 36, 100
3, 5184, Note_on_c, 1, 44, 80
3, 5372, Note_off_c, 1, 44, 100
3, 5376, Note_on_c, 1, 36, 80
3, 5564, Note_off_c, 1, 36, 100
3, 5568, Note_on_c, 1, 44, 80
3, 5756, Note_off_c, 1, 44, 100
3, 5760, Note_on_c, 1, 36, 110
3, 5760, Note_on_c, 1, 48, 110
3, 5952, Note_on_c, 1, 44, 100
3, 6140, Note_off_c, 1, 36, 100
3, 6140, Note_off_c, 1, 48, 100
3, 6140, Note_off_c, 1, 44, 100
3, 6144, Note_on_c, 1, 35, 80
3, 6332, Note_off_c, 1, 35, 100
3, 6336, Note_on_c, 1, 44, 80
3, 6524, Note_off_c, 1, 44, 100
3, 6528, Note_on_c, 1, 35, 80
3, 6716, Note_off_c, 1, 35, 100
3, 6720, Note_on_c, 1, 44, 80
3, 6908, Note_off_c, 1, 44, 100
3, 6912, Note_on_c, 1, 35, 80
3, 7100, Note_off_c, 1, 35, 100
3, 7104, Note_on_c, 1, 44, 80
3, 7292, Note_off_c, 1, 44, 100
3, 7296, Note_on_c, 1, 35, 80
3, 7484, Note_off_c, 1, 35, 100
3, 7488, Note_on_c, 1, 44, 80
3, 7676, Note_off_c, 1, 44, 100
3, 7680, Note_on_c, 1, 35, 80
3, 7868, Note_off_c, 1, 35, 100
3, 7872, Note_on_c, 1, 44, 80
3, 8060, Note_off_c, 1, 44, 100
3, 8064, Note_on_c, 1, 35, 80
3, 8252, Note_off_c, 1, 35, 100
3, 8256, Note_on_c, 1, 44, 80
3, 8444, Note_off_c, 1, 44, 100
3, 8448, Note_on_c, 1, 35, 80
3, 8636, Note_off_c, 1, 35, 100
3, 8640, Note_on_c, 1, 44, 80
3, 8828, Note_off_c, 1, 44, 100
3, 8832, Note_on_c, 1, 35, 110
3, 8832, Note_on_c, 1, 47, 110
3, 9024, Note_on_c, 1, 44, 100
3, 9212, Note_off_c, 1, 35, 100
3, 9212, Note_off_c, 1, 47, 100
3, 9212, Note_off_c, 1, 44, 100
3, 9216, Note_on_c, 1, 33, 90
3, 9404, Note_off_c, 1, 33, 100
3, 9408, Note_on_c, 1, 44, 90
3, 9596, Note_off_c, 1, 44, 100
3, 9600, Note_on_c, 1, 33, 90
3, 9788, Note_off_c, 1, 33, 100
3, 9792, Note_on_c, 1, 44, 90
3, 9980, Note_off_c, 1, 44, 100
3, 9984, Note_on_c, 1, 33, 90
3, 10172, Note_off_c, 1, 33, 100
3, 10176, Note_on_c, 1, 44, 90
3, 10364, Note_off_c, 1, 44, 100
3, 10368, Note_on_c, 1, 33, 110
3, 10560, Note_on_c, 1, 44, 100
3, 10748, Note_off_c, 1, 33, 100
3, 10748, Note_off_c, 1, 44, 100
3, 10752, Note_on_c, 1, 33, 90
3, 10940, Note_off_c, 1, 33, 100
3, 10944, Note_on_c, 1, 45, 90
3, 11132, Note_off_c, 1, 45, 100
3, 11136, Note_on_c, 1, 33, 90
3, 11324, Note_off_c, 1, 33, 100
3, 11328, Note_on_c, 1, 45, 90
3, 11516, Note_off_c, 1, 45, 100
3, 11520, Note_on_c, 1, 33, 90
3, 11708, Note_off_c, 1, 33, 100
3, 11712, Note_on_c, 1, 45, 90
3, 11900, Note_off_c, 1, 45, 100
3, 11904, Note_on_c, 1, 33, 110
3, 12096, Note_on_c, 1, 45, 100
3, 12284, Note_off_c, 1, 33, 100
3, 12284, Note_off_c, 1, 45, 100
3, 12288, Note_on_c, 1, 32, 110
3, 12288, Note_on_c, 1, 44, 110
3, 12480, Note_on_c, 1, 60, 110
3, 12480, Note_on_c, 1, 56, 110
3, 12668, Note_off_c, 1, 32, 100
3, 12668, Note_off_c, 1, 44, 100
3, 12668, Note_off_c, 1, 60, 100
3, 12672, Note_on_c, 1, 60, 110
3, 12860, Note_off_c, 1, 60, 100
3, 12864, Note_on_c, 1, 61, 110
3, 13052, Note_off_c, 1, 61, 100
3, 13056, Note_on_c, 1, 63, 110
3, 13244, Note_off_c, 1, 63, 100
3, 13248, Note_on_c, 1, 64, 110
3, 13436, Note_off_c, 1, 64, 100
3, 13440, Note_on_c, 1, 66, 110
3, 13628, Note_off_c, 1, 66, 100
3, 13632, Note_on_c, 1, 64, 110
3, 13820, Note_off_c, 1, 64, 100
3, 13824, Note_on_c, 1, 66, 110
3, 14012, Note_off_c, 1, 66, 100
3, 14016, Note_on_c, 1, 64, 110
3, 14204, Note_off_c, 1, 64, 100
3, 14208, Note_on_c, 1, 69, 110
3, 14396, Note_off_c, 1, 69, 100
3, 14400, Note_on_c, 1, 68, 110
3, 14588, Note_off_c, 1, 68, 100
3, 14592, Note_on_c, 1, 66, 110
3, 14780, Note_off_c, 1, 66, 100
3, 14784, Note_on_c, 1, 64, 110
3, 14972, Note_off_c, 1, 64, 100
3, 14976, Note_on_c, 1, 63, 110
3, 15164, Note_off_c, 1, 63, 100
3, 15168, Note_on_c, 1, 61, 110
3, 15356, Note_off_c, 1, 56, 100
3, 15356, Note_off_c, 1, 61, 100
3, 15360, Note_on_c, 1, 56, 110
3, 15360, Note_on_c, 1, 60, 110
3, 15548, Note_off_c, 1, 60, 100
3, 15552, Note_on_c, 1, 60, 110
3, 15740, Note_off_c, 1, 60, 100
3, 15744, Note_on_c, 1, 60, 110
3, 15932, Note_off_c, 1, 60, 100
3, 15936, Note_on_c, 1, 61, 110
3, 16124, Note_off_c, 1, 61, 100
3, 16128, Note_on_c, 1, 63, 110
3, 16316, Note_off_c, 1, 63, 100
3, 16320, Note_on_c, 1, 64, 110
3, 16508, Note_off_c, 1, 64, 100
3, 16512, Note_on_c, 1, 66, 110
3, 16700, Note_off_c, 1, 66, 100
3, 16704, Note_on_c, 1, 64, 110
3, 16892, Note_off_c, 1, 64, 100
3, 16896, Note_on_c, 1, 66, 110
3, 17084, Note_off_c, 1, 66, 100
3, 17088, Note_on_c, 1, 64, 110
3, 17276, Note_off_c, 1, 64, 100
3, 17280, Note_on_c, 1, 69, 110
3, 17468, Note_off_c, 1, 69, 100
3, 17472, Note_on_c, 1, 68, 110
3, 17660, Note_off_c, 1, 68, 100
3, 17664, Note_on_c, 1, 66, 110
3, 17852, Note_off_c, 1, 66, 100
3, 17856, Note_on_c, 1, 64, 110
3, 18044, Note_off_c, 1, 64, 100
3, 18048, Note_on_c, 1, 63, 110
3, 18236, Note_off_c, 1, 63, 100
3, 18240, Note_on_c, 1, 61, 110
3, 18428, Note_off_c, 1, 56, 100
3, 18428, Note_off_c, 1, 61, 100
3, 18432, Note_on_c, 1, 60, 110
3, 18432, Note_on_c, 1, 56, 110
3, 18620, Note_off_c, 1, 60, 100
3, 18620, Note_off_c, 1, 56, 100
3, 18624, Note_on_c, 1, 61, 110
3, 18624, Note_on_c, 1, 56, 110
3, 18812, Note_off_c, 1, 61, 100
3, 18812, Note_off_c, 1, 56, 100
3, 18816, Note_on_c, 1, 60, 110
3, 18816, Note_on_c, 1, 56, 110
3, 19004, Note_off_c, 1, 60, 100
3, 19004, Note_off_c, 1, 56, 100
3, 19008, Note_on_c, 1, 61, 110
3, 19008, Note_on_c, 1, 56, 110
3, 19196, Note_off_c, 1, 61, 100
3, 19196, Note_off_c, 1, 56, 100
3, 19200, Note_on_c, 1, 60, 110
3, 19200, Note_on_c, 1, 56, 110
3, 19388, Note_off_c, 1, 60, 100
3, 19388, Note_off_c, 1, 56, 100
3, 19392, Note_on_c, 1, 61, 110
3, 19392, Note_on_c, 1, 56, 110
3, 19580, Note_off_c, 1, 61, 100
3, 19580, Note_off_c, 1, 56, 100
3, 19584, Note_on_c, 1, 60, 110
3, 19584, Note_on_c, 1, 56, 110
3, 19772, Note_off_c, 1, 60, 100
3, 19772, Note_off_c, 1, 56, 100
3, 19776, Note_on_c, 1, 61, 110
3, 19776, Note_on_c, 1, 56, 110
3, 19964, Note_off_c, 1, 61, 100
3, 19964, Note_off_c, 1, 56, 100
3, 19968, Note_on_c, 1, 56, 110
3, 19968, Note_on_c, 1, 60, 110
3, 20348, Note_off_c, 1, 56, 100
3, 20348, Note_off_c, 1, 60, 100
3, 20352, Note_on_c, 1, 44, 110
3, 20352, Note_on_c, 1, 32, 110
3, 23036, Note_off_c, 1, 32, 100
3, 23036, Note_off_c, 1, 44, 100
3, 23040, Note_on_c, 1, 37, 80
3, 23228, Note_off_c, 1, 37, 100
3, 23232, Note_on_c, 1, 44, 80
3, 23420, Note_off_c, 1, 44, 100
3, 23424, Note_on_c, 1, 37, 80
3, 23612, Note_off_c, 1, 37, 100
3, 23616, Note_on_c, 1, 44, 80
3, 23804, Note_off_c, 1, 44, 100
3, 23808, Note_on_c, 1, 37, 80
3, 23996, Note_off_c, 1, 37, 100
3, 24000, Note_on_c, 1, 44, 80
3, 24188, Note_off_c, 1, 44, 100
3, 24192, Note_on_c, 1, 37, 80
3, 24380, Note_off_c, 1, 37, 100
3, 24384, Note_on_c, 1, 44, 80
3, 24572, Note_off_c, 1, 44, 100
3, 24576, Note_on_c, 1, 37, 80
3, 24764, Note_off_c, 1, 37, 100
3, 24768, Note_on_c, 1, 44, 80
3, 24956, Note_off_c, 1, 44, 100
3, 24960, Note_on_c, 1, 37, 80
3, 25148, Note_off_c, 1, 37, 100
3, 25152, Note_on_c, 1, 44, 80
3, 25340, Note_off_c, 1, 44, 100
3, 25344, Note_on_c, 1, 37, 80
3, 25532, Note_off_c, 1, 37, 100
3, 25536, Note_on_c, 1, 44, 80
3, 25724, Note_off_c, 1, 44, 100
3, 25728, Note_on_c, 1, 49, 110
3, 25728, Note_on_c, 1, 37, 110
3, 25920, Note_on_c, 1, 44, 100
3, 26108, Note_off_c, 1, 49, 100
3, 26108, Note_off_c, 1, 37, 100
3, 26108, Note_off_c, 1, 44, 100
3, 26112, Note_on_c, 1, 34, 80
3, 26300, Note_off_c, 1, 34, 100
3, 26304, Note_on_c, 1, 49, 80
3, 26492, Note_off_c, 1, 49, 100
3, 26496, Note_on_c, 1, 46, 80
3, 26684, Note_off_c, 1, 46, 100
3, 26688, Note_on_c, 1, 49, 80
3, 26876, Note_off_c, 1, 49, 100
3, 26880, Note_on_c, 1, 46, 80
3, 27068, Note_off_c, 1, 46, 100
3, 27072, Note_on_c, 1, 49, 80
3, 27260, Note_off_c, 1, 49, 100
3, 27264, Note_on_c, 1, 46, 80
3, 27452, Note_off_c, 1, 46, 100
3, 27456, Note_on_c, 1, 49, 80
3, 27644, Note_off_c, 1, 49, 100
3, 27648, Note_on_c, 1, 46, 80
3, 27836, Note_off_c, 1, 46, 100
3, 27840, Note_on_c, 1, 49, 80
3, 28028, Note_off_c, 1, 49, 100
3, 28032, Note_on_c, 1, 46, 80
3, 28220, Note_off_c, 1, 46, 100
3, 28224, Note_on_c, 1, 49, 80
3, 28412, Note_off_c, 1, 49, 100
3, 28416, Note_on_c, 1, 46, 80
3, 28604, Note_off_c, 1, 46, 100
3, 28608, Note_on_c, 1, 49, 80
3, 28796, Note_off_c, 1, 49, 100
3, 28800, Note_on_c, 1, 34, 110
3, 28800, Note_on_c, 1, 46, 110
3, 28992, Note_on_c, 1, 49, 100
3, 29180, Note_off_c, 1, 34, 100
3, 29180, Note_off_c, 1, 46, 100
3, 29180, Note_off_c, 1, 49, 100
3, 29184, Note_on_c, 1, 31, 90
3, 29372, Note_off_c, 1, 31, 100
3, 29376, Note_on_c, 1, 51, 91
3, 29564, Note_off_c, 1, 51, 100
3, 29568, Note_on_c, 1, 43, 92
3, 29756, Note_off_c, 1, 43, 100
3, 29760, Note_on_c, 1, 51, 93
3, 29948, Note_off_c, 1, 51, 100
3, 29952, Note_on_c, 1, 43, 95
3, 30140, Note_off_c, 1, 43, 100
3, 30144, Note_on_c, 1, 51, 96
3, 30332, Note_off_c, 1, 51, 100
3, 30336, Note_on_c, 1, 43, 97
3, 30524, Note_off_c, 1, 43, 100
3, 30528, Note_on_c, 1, 51, 99
3, 30716, Note_off_c, 1, 51, 100
3, 30720, Note_on_c, 1, 43, 100
3, 30908, Note_off_c, 1, 43, 100
3, 30912, Note_on_c, 1, 51, 101
3, 31100, Note_off_c, 1, 51, 100
3, 31104, Note_on_c, 1, 43, 102
3, 31292, Note_off_c, 1, 43, 100
3, 31296, Note_on_c, 1, 51, 104
3, 31484, Note_off_c, 1, 51, 100
3, 31488, Control_c, 1, 64, 127
3, 31488, Note_on_c, 1, 43, 105
3, 31676, Note_off_c, 1, 43, 100
3, 31680, Note_on_c, 1, 51, 106
3, 31868, Note_off_c, 1, 51, 100
3, 31872, Note_on_c, 1, 43, 108
3, 32064, Note_on_c, 1, 51, 109
3, 32248, Control_c, 1, 64, 0
3, 32252, Note_off_c, 1, 43, 100
3, 32252, Note_off_c, 1, 51, 100
3, 32256, Control_c, 1, 64, 127
3, 32256, Note_on_c, 1, 44, 80
3, 32352, Note_on_c, 1, 51, 80
3, 32444, Note_off_c, 1, 44, 100
3, 32448, Note_on_c, 1, 47, 80
3, 32540, Note_off_c, 1, 51, 100
3, 32544, Note_on_c, 1, 51, 80
3, 32636, Note_off_c, 1, 47, 100
3, 32640, Note_on_c, 1, 44, 80
3, 32732, Note_off_c, 1, 51, 100
3, 32736, Note_on_c, 1, 51, 80
3, 32828, Note_off_c, 1, 44, 100
3, 32832, Note_on_c, 1, 47, 80
3, 32924, Note_off_c, 1, 51, 100
3, 32928, Note_on_c, 1, 51, 80
3, 33020, Note_off_c, 1, 47, 100
3, 33024, Note_on_c, 1, 44, 80
3, 33116, Note_off_c, 1, 51, 100
3, 33120, Note_on_c, 1, 51, 80
3, 33212, Note_off_c, 1, 44, 100
3, 33216, Note_on_c, 1, 47, 80
3, 33308, Note_off_c, 1, 51, 100
3, 33312, Note_on_c, 1, 51, 80
3, 33404, Note_off_c, 1, 47, 100
3, 33408, Note_on_c, 1, 44, 80
3, 33500, Note_off_c, 1, 51, 100
3, 33504, Note_on_c, 1, 51, 80
3, 33596, Note_off_c, 1, 44, 100
3, 33600, Note_on_c, 1, 47, 80
3, 33692, Note_off_c, 1, 51, 100
3, 33696, Note_on_c, 1, 51, 80
3, 33784, Control_c, 1, 64, 0
3, 33788, Note_off_c, 1, 47, 100
3, 33792, Control_c, 1, 64, 127
3, 33792, Note_on_c, 1, 46, 80
3, 33884, Note_off_c, 1, 51, 100
3, 33888, Note_on_c, 1, 51, 80
3, 33980, Note_off_c, 1, 46, 100
3, 33984, Note_on_c, 1, 49, 80
3, 34076, Note_off_c, 1, 51, 100
3, 34080, Note_on_c, 1, 51, 80
3, 34172, Note_off_c, 1, 49, 100
3, 34176, Note_on_c, 1, 46, 80
3, 34268, Note_off_c, 1, 51, 100
3, 34272, Note_on_c, 1, 51, 80
3, 34364, Note_off_c, 1, 46, 100
3, 34368, Note_on_c, 1, 49, 80
3, 34460, Note_off_c, 1, 51, 100
3, 34464, Note_on_c, 1, 51, 80
3, 34556, Note_off_c, 1, 49, 100
3, 34560, Note_on_c, 1, 46, 80
3, 34652, Note_off_c, 1, 51, 100
3, 34656, Note_on_c, 1, 51, 80
3, 34748, Note_off_c, 1, 46, 100
3, 34752, Note_on_c, 1, 49, 80
3, 34844, Note_off_c, 1, 51, 100
3, 34848, Note_on_c, 1, 51, 80
3, 34940, Note_off_c, 1, 49, 100
3, 34944, Note_on_c, 1, 46, 80
3, 35036, Note_off_c, 1, 51, 100
3, 35040, Note_on_c, 1, 51, 80
3, 35132, Note_off_c, 1, 46, 100
3, 35136, Note_on_c, 1, 49, 80
3, 35228, Note_off_c, 1, 51, 100
3, 35232, Note_on_c, 1, 51, 80
3, 35320, Control_c, 1, 64, 0
3, 35324, Note_off_c, 1, 49, 100
3, 35328, Control_c, 1, 64, 127
3, 35328, Note_on_c, 1, 47, 80
3, 35420, Note_off_c, 1, 51, 100
3, 35424, Note_on_c, 1, 51, 80
3, 35516, Note_off_c, 1, 47, 100
3, 35520, Note_on_c, 1, 47, 80
3, 35612, Note_off_c, 1, 51, 100
3, 35616, Note_on_c, 1, 51, 80
3, 35708, Note_off_c, 1, 47, 100
3, 35712, Note_on_c, 1, 47, 80
3, 35804, Note_off_c, 1, 51, 100
3, 35808, Note_on_c, 1, 51, 80
3, 35900, Note_off_c, 1, 47, 100
3, 35904, Note_on_c, 1, 47, 80
3, 35996, Note_off_c, 1, 51, 100
3, 36000, Note_on_c, 1, 51, 80
3, 36092, Note_off_c, 1, 47, 100
3, 36096, Note_on_c, 1, 47, 80
3, 36188, Note_off_c, 1, 51, 100
3, 36192, Note_on_c, 1, 51, 80
3, 36284, Note_off_c, 1, 47, 100
3, 36288, Note_on_c, 1, 47, 80
3, 36380, Note_off_c, 1, 51, 100
3, 36384, Note_on_c, 1, 51, 80
3, 36476, Note_off_c, 1, 47, 100
3, 36480, Note_on_c, 1, 47, 80
3, 36572, Note_off_c, 1, 51, 100
3, 36576, Note_on_c, 1, 51, 80
3, 36668, Note_off_c, 1, 47, 100
3, 36672, Note_on_c, 1, 47, 80
3, 36764, Note_off_c, 1, 51, 100
3, 36768, Note_on_c, 1, 51, 80
3, 36856, Control_c, 1, 64, 0
3, 36860, Note_off_c, 1, 47, 100
3, 36864, Control_c, 1, 64, 127
3, 36864, Note_on_c, 1, 43, 80
3, 36956, Note_off_c, 1, 51, 100
3, 36960, Note_on_c, 1, 51, 80
3, 37052, Note_off_c, 1, 43, 100
3, 37056, Note_on_c, 1, 43, 80
3, 37148, Note_off_c, 1, 51, 100
3, 37152, Note_on_c, 1, 51, 80
3, 37244, Note_off_c, 1, 43, 100
3, 37248, Note_on_c, 1, 43, 80
3, 37340, Note_off_c, 1, 51, 100
3, 37344, Note_on_c, 1, 51, 80
3, 37436, Note_off_c, 1, 43, 100
3, 37440, Note_on_c, 1, 43, 80
3, 37532, Note_off_c, 1, 51, 100
3, 37536, Note_on_c, 1, 51, 80
3, 37628, Note_off_c, 1, 43, 100
3, 37632, Note_on_c, 1, 43, 80
3, 37724, Note_off_c, 1, 51, 100
3, 37728, Note_on_c, 1, 51, 80
3, 37820, Note_off_c, 1, 43, 100
3, 37824, Note_on_c, 1, 43, 80
3, 37916, Note_off_c, 1, 51, 100
3, 37920, Note_on_c, 1, 51, 80
3, 38012, Note_off_c, 1, 43, 100
3, 38016, Note_on_c, 1, 43, 80
3, 38108, Note_off_c, 1, 51, 100
3, 38112, Note_on_c, 1, 51, 80
3, 38204, Note_off_c, 1, 43, 100
3, 38208, Note_on_c, 1, 43, 80
3, 38300, Note_off_c, 1, 51, 100
3, 38304, Note_on_c, 1, 51, 80
3, 38392, Control_c, 1, 64, 0
3, 38396, Note_off_c, 1, 43, 100
3, 38400, Note_on_c, 1, 44, 80
3, 38492, Note_off_c, 1, 51, 100
3, 38496, Note_on_c, 1, 51, 80
3, 38588, Note_off_c, 1, 44, 100
3, 38592, Note_on_c, 1, 47, 80
3, 38684, Note_off_c, 1, 51, 100
3, 38688, Note_on_c, 1, 51, 81
3, 38780, Note_off_c, 1, 47, 100
3, 38784, Note_on_c, 1, 44, 81
3, 38876, Note_off_c, 1, 51, 100
3, 38880, Note_on_c, 1, 51, 82
3, 38972, Note_off_c, 1, 44, 100
3, 38976, Note_on_c, 1, 47, 82
3, 39068, Note_off_c, 1, 51, 100
3, 39072, Note_on_c, 1, 51, 82
3, 39164, Note_off_c, 1, 47, 100
3, 39168, Note_on_c, 1, 44, 83
3, 39260, Note_off_c, 1, 51, 100
3, 39264, Note_on_c, 1, 51, 83
3, 39356, Note_off_c, 1, 44, 100
3, 39360, Note_on_c, 1, 47, 84
3, 39452, Note_off_c, 1, 51, 100
3, 39456, Note_on_c, 1, 51, 84
3, 39548, Note_off_c, 1, 47, 100
3, 39552, Note_on_c, 1, 44, 84
3, 39644, Note_off_c, 1, 51, 100
3, 39648, Note_on_c, 1, 51, 85
3, 39740, Note_off_c, 1, 44, 100
3, 39744, Note_on_c, 1, 47, 85
3, 39836, Note_off_c, 1, 51, 100
3, 39840, Note_on_c, 1, 51, 86
3, 39932, Note_off_c, 1, 47, 100
3, 39936, Note_on_c, 1, 46, 86
3, 40028, Note_off_c, 1, 51, 100
3, 40032, Note_on_c, 1, 51, 86
3, 40124, Note_off_c, 1, 46, 100
3, 40128, Note_on_c, 1, 49, 87
3, 40220, Note_off_c, 1, 51, 100
3, 40224, Note_on_c, 1, 51, 87
3, 40316, Note_off_c, 1, 49, 100
3, 40320, Note_on_c, 1, 46, 88
3, 40412, Note_off_c, 1, 51, 100
3, 40416, Note_on_c, 1, 51, 88
3, 40508, Note_off_c, 1, 46, 100
3, 40512, Note_on_c, 1, 49, 88
3, 40604, Note_off_c, 1, 51, 100
3, 40608, Note_on_c, 1, 51, 89
3, 40700, Note_off_c, 1, 49, 100
3, 40704, Note_on_c, 1, 46, 89
3, 40796, Note_off_c, 1, 51, 100
3, 40800, Note_on_c, 1, 51, 90
3, 40892, Note_off_c, 1, 46, 100
3, 40896, Note_on_c, 1, 49, 90
3, 40988, Note_off_c, 1, 51, 100
3, 40992, Note_on_c, 1, 51, 90
3, 41084, Note_off_c, 1, 49, 100
3, 41088, Note_on_c, 1, 46, 91
3, 41180, Note_off_c, 1, 51, 100
3, 41184, Note_on_c, 1, 51, 91
3, 41276, Note_off_c, 1, 46, 100
3, 41280, Note_on_c, 1, 49, 92
3, 41372, Note_off_c, 1, 51, 100
3, 41376, Note_on_c, 1, 51, 92
3, 41468, Note_off_c, 1, 49, 100
3, 41472, Note_on_c, 1, 47, 92
3, 41564, Note_off_c, 1, 51, 100
3, 41568, Note_on_c, 1, 51, 93
3, 41660, Note_off_c, 1, 47, 100
3, 41664, Note_on_c, 1, 47, 93
3, 41756, Note_off_c, 1, 51, 100
3, 41760, Note_on_c, 1, 51, 94
3, 41852, Note_off_c, 1, 47, 100
3, 41856, Note_on_c, 1, 47, 94
3, 41948, Note_off_c, 1, 51, 100
3, 41952, Note_on_c, 1, 51, 94
3, 42044, Note_off_c, 1, 47, 100
3, 42048, Note_on_c, 1, 47, 95
3, 42140, Note_off_c, 1, 51, 100
3, 42144, Note_on_c, 1, 51, 95
3, 42236, Note_off_c, 1, 47, 100
3, 42240, Note_on_c, 1, 47, 96
3, 42332, Note_off_c, 1, 51, 100
3, 42336, Note_on_c, 1, 51, 96
3, 42428, Note_off_c, 1, 47, 100
3, 42432, Note_on_c, 1, 47, 96
3, 42524, Note_off_c, 1, 51, 100
3, 42528, Note_on_c, 1, 51, 97
3, 42620, Note_off_c, 1, 47, 100
3, 42624, Note_on_c, 1, 47, 97
3, 42716, Note_off_c, 1, 51, 100
3, 42720, Note_on_c, 1, 51, 98
3, 42812, Note_off_c, 1, 47, 100
3, 42816, Note_on_c, 1, 47, 98
3, 42908, Note_off_c, 1, 51, 100
3, 42912, Note_on_c, 1, 51, 98
3, 43004, Note_off_c, 1, 47, 100
3, 43008, Note_on_c, 1, 43, 99
3, 43100, Note_off_c, 1, 51, 100
3, 43104, Note_on_c, 1, 51, 99
3, 43196, Note_off_c, 1, 43, 100
3, 43200, Note_on_c, 1, 43, 100
3, 43292, Note_off_c, 1, 51, 100
3, 43296, Note_on_c, 1, 51, 100
3, 43388, Note_off_c, 1, 43, 100
3, 43392, Note_on_c, 1, 43, 100
3, 43484, Note_off_c, 1, 51, 100
3, 43488, Note_on_c, 1, 51, 101
3, 43580, Note_off_c, 1, 43, 100
3, 43584, Note_on_c, 1, 43, 101
3, 43676, Note_off_c, 1, 51, 100
3, 43680, Note_on_c, 1, 51, 102
3, 43772, Note_off_c, 1, 43, 100
3, 43776, Note_on_c, 1, 43, 102
3, 43868, Note_off_c, 1, 51, 100
3, 43872, Note_on_c, 1, 51, 102
3, 43964, Note_off_c, 1, 43, 100
3, 43968, Note_on_c, 1, 43, 103
3, 44060, Note_off_c, 1, 51, 100
3, 44064, Note_on_c, 1, 51, 103
3, 44156, Note_off_c, 1, 43, 100
3, 44160, Note_on_c, 1, 43, 104
3, 44252, Note_off_c, 1, 51, 100
3, 44256, Note_on_c, 1, 51, 104
3, 44348, Note_off_c, 1, 43, 100
3, 44352, Note_on_c, 1, 43, 104
3, 44444, Note_off_c, 1, 51, 100
3, 44448, Note_on_c, 1, 51, 80
3, 44540, Note_off_c, 1, 43, 100
3, 44544, Note_on_c, 1, 42, 100
3, 44636, Note_off_c, 1, 51, 100
3, 44640, Note_on_c, 1, 51, 100
3, 44732, Note_off_c, 1, 42, 100
3, 44736, Note_on_c, 1, 44, 100
3, 44828, Note_off_c, 1, 51, 100
3, 44832, Note_on_c, 1, 51, 100
3, 44924, Note_off_c, 1, 44, 100
3, 44928, Note_on_c, 1, 42, 100
3, 45020, Note_off_c, 1, 51, 100
3, 45024, Note_on_c, 1, 51, 100
3, 45116, Note_off_c, 1, 42, 100
3, 45120, Note_on_c, 1, 44, 100
3, 45212, Note_off_c, 1, 51, 100
3, 45216, Note_on_c, 1, 51, 100
3, 45308, Note_off_c, 1, 44, 100
3, 45312, Note_on_c, 1, 40, 100
3, 45404, Note_off_c, 1, 51, 100
3, 45408, Note_on_c, 1, 49, 100
3, 45500, Note_off_c, 1, 40, 100
3, 45504, Note_on_c, 1, 44, 100
3, 45596, Note_off_c, 1, 49, 100
3, 45600, Note_on_c, 1, 49, 100
3, 45692, Note_off_c, 1, 44, 100
3, 45696, Note_on_c, 1, 40, 100
3, 45788, Note_off_c, 1, 49, 100
3, 45792, Note_on_c, 1, 49, 100
3, 45884, Note_off_c, 1, 40, 100
3, 45888, Note_on_c, 1, 44, 100
3, 45980, Note_off_c, 1, 49, 100
3, 45984, Note_on_c, 1, 49, 100
3, 46076, Note_off_c, 1, 44, 100
3, 46080, Note_on_c, 1, 40, 100
3, 46172, Note_off_c, 1, 49, 100
3, 46176, Note_on_c, 1, 49, 100
3, 46268, Note_off_c, 1, 40, 100
3, 46272, Note_on_c, 1, 42, 100
3, 46364, Note_off_c, 1, 49, 100
3, 46368, Note_on_c, 1, 49, 100
3, 46460, Note_off_c, 1, 42, 100
3, 46464, Note_on_c, 1, 39, 100
3, 46556, Note_off_c, 1, 49, 100
3, 46560, Note_on_c, 1, 47, 100
3, 46652, Note_off_c, 1, 39, 100
3, 46656, Note_on_c, 1, 42, 100
3, 46748, Note_off_c, 1, 47, 100
3, 46752, Note_on_c, 1, 47, 100
3, 46844, Note_off_c, 1, 42, 100
3, 46848, Note_on_c, 1, 39, 100
3, 46940, Note_off_c, 1, 47, 100
3, 46944, Note_on_c, 1, 47, 100
3, 47036, Note_off_c, 1, 39, 100
3, 47040, Note_on_c, 1, 42, 100
3, 47132, Note_off_c, 1, 47, 100
3, 47136, Note_on_c, 1, 47, 100
3, 47228, Note_off_c, 1, 42, 100
3, 47232, Note_on_c, 1, 39, 100
3, 47324, Note_off_c, 1, 47, 100
3, 47328, Note_on_c, 1, 47, 100
3, 47420, Note_off_c, 1, 39, 100
3, 47424, Note_on_c, 1, 42, 100
3, 47516, Note_off_c, 1, 47, 100
3, 47520, Note_on_c, 1, 47, 100
3, 47612, Note_off_c, 1, 42, 100
3, 47616, Note_on_c, 1, 38, 100
3, 47708, Note_off_c, 1, 47, 100
3, 47712, Note_on_c, 1, 47, 100
3, 47804, Note_off_c, 1, 38, 100
3, 47808, Note_on_c, 1, 40, 100
3, 47900, Note_off_c, 1, 47, 100
3, 47904, Note_on_c, 1, 47, 100
3, 47996, Note_off_c, 1, 40, 100
3, 48000, Note_on_c, 1, 38, 100
3, 48092, Note_off_c, 1, 47, 100
3, 48096, Note_on_c, 1, 47, 100
3, 48188, Note_off_c, 1, 38, 100
3, 48192, Note_on_c, 1, 40, 100
3, 48284, Note_off_c, 1, 47, 100
3, 48288, Note_on_c, 1, 47, 100
3, 48380, Note_off_c, 1, 40, 100
3, 48384, Note_on_c, 1, 37, 100
3, 48476, Note_off_c, 1, 47, 100
3, 48480, Note_on_c, 1, 45, 100
3, 48572, Note_off_c, 1, 37, 100
3, 48576, Note_on_c, 1, 40, 100
3, 48668, Note_off_c, 1, 45, 100
3, 48672, Note_on_c, 1, 45, 100
3, 48764, Note_off_c, 1, 40, 100
3, 48768, Note_on_c, 1, 37, 100
3, 48860, Note_off_c, 1, 45, 100
3, 48864, Note_on_c, 1, 45, 100
3, 48956, Note_off_c, 1, 37, 100
3, 48960, Note_on_c, 1, 40, 100
3, 49052, Note_off_c, 1, 45, 100
3, 49056, Note_on_c, 1, 45, 100
3, 49148, Note_off_c, 1, 40, 100
3, 49152, Note_on_c, 1, 37, 100
3, 49244, Note_off_c, 1, 45, 100
3, 49248, Note_on_c, 1, 46, 100
3, 49340, Note_off_c, 1, 37, 100
3, 49344, Note_on_c, 1, 39, 100
3, 49436, Note_off_c, 1, 46, 100
3, 49440, Note_on_c, 1, 46, 100
3, 49532, Note_off_c, 1, 39, 100
3, 49536, Note_on_c, 1, 35, 100
3, 49628, Note_off_c, 1, 46, 100
3, 49632, Note_on_c, 1, 44, 100
3, 49724, Note_off_c, 1, 35, 100
3, 49728, Note_on_c, 1, 39, 100
3, 49820, Note_off_c, 1, 44, 100
3, 49824, Note_on_c, 1, 44, 100
3, 49916, Note_off_c, 1, 39, 100
3, 49920, Note_on_c, 1, 35, 100
3, 50012, Note_off_c, 1, 44, 100
3, 50016, Note_on_c, 1, 44, 100
3, 50108, Note_off_c, 1, 35, 100
3, 50112, Note_on_c, 1, 39, 100
3, 50204, Note_off_c, 1, 44, 100
3, 50208, Note_on_c, 1, 44, 100
3, 50300, Note_off_c, 1, 39, 100
3, 50304, Note_on_c, 1, 35, 100
3, 50396, Note_off_c, 1, 44, 100
3, 50400, Note_on_c, 1, 44, 100
3, 50492, Note_off_c, 1, 35, 100
3, 50496, Note_on_c, 1, 39, 100
3, 50588, Note_off_c, 1, 44, 100
3, 50592, Note_on_c, 1, 44, 100
3, 50684, Note_off_c, 1, 39, 100
3, 50684, Note_off_c, 1, 44, 100
3, 50688, Note_on_c, 1, 37, 120
3, 50688, Note_on_c, 1, 40, 120
3, 50688, Note_on_c, 1, 45, 120
3, 50688, Note_on_c, 1, 49, 120
3, 51836, Note_off_c, 1, 37, 100
3, 51836, Note_off_c, 1, 40, 100
3, 51836, Note_off_c, 1, 45, 100
3, 51836, Note_off_c, 1, 49, 100
3, 52224, Note_on_c, 1, 61, 80
3, 52224, Note_on_c, 1, 64, 80
3, 52224, Note_on_c, 1, 69, 80
3, 52604, Note_off_c, 1, 61, 100
3, 52604, Note_off_c, 1, 64, 100
3, 52604, Note_off_c, 1, 69, 100
3, 52992, Note_on_c, 1, 61, 80
3, 52992, Note_on_c, 1, 64, 80
3, 52992, Note_on_c, 1, 69, 80
3, 53372, Note_off_c, 1, 61, 100
3, 53372, Note_off_c, 1, 64, 100
3, 53372, Note_off_c, 1, 69, 100
3, 53760, Note_on_c, 1, 61, 80
3, 53760, Note_on_c, 1, 64, 80
3, 53760, Note_on_c, 1, 69, 80
3, 54140, Note_off_c, 1, 61, 100
3, 54140, Note_off_c, 1, 64, 100
3, 54140, Note_off_c, 1, 69, 100
3, 54144, Note_on_c, 1, 61, 84
3, 54144, Note_on_c, 1, 64, 84
3, 54144, Note_on_c, 1, 69, 84
3, 54524, Note_off_c, 1, 61, 100
3, 54524, Note_off_c, 1, 64, 100
3, 54524, Note_off_c, 1, 69, 100
3, 54528, Note_on_c, 1, 61, 89
3, 54528, Note_on_c, 1, 64, 89
3, 54528, Note_on_c, 1, 69, 89
3, 54908, Note_off_c, 1, 61, 100
3, 54908, Note_off_c, 1, 64, 100
3, 54908, Note_off_c, 1, 69, 100
3, 54912, Note_on_c, 1, 61, 94
3, 54912, Note_on_c, 1, 64, 94
3, 54912, Note_on_c, 1, 69, 94
3, 55292, Note_off_c, 1, 61, 100
3, 55292, Note_off_c, 1, 64, 100
3, 55292, Note_off_c, 1, 69, 100
3, 55296, Note_on_c, 1, 63, 80
3, 55392, Note_on_c, 1, 71, 80
3, 55484, Note_off_c, 1, 63, 100
3, 55488, Note_on_c, 1, 68, 80
3, 55580, Note_off_c, 1, 71, 100
3, 55584, Note_on_c, 1, 71, 80
3, 55676, Note_off_c, 1, 68, 100
3, 55680, Note_on_c, 1, 63, 80
3, 55772, Note_off_c, 1, 71, 100
3, 55776, Note_on_c, 1, 71, 80
3, 55868, Note_off_c, 1, 63, 100
3, 55872, Note_on_c, 1, 68, 80
3, 55964, Note_off_c, 1, 71, 100
3, 55968, Note_on_c, 1, 71, 80
3, 56060, Note_off_c, 1, 68, 100
3, 56064, Note_on_c, 1, 63, 80
3, 56156, Note_off_c, 1, 71, 100
3, 56160, Note_on_c, 1, 73, 80
3, 56252, Note_off_c, 1, 63, 100
3, 56256, Note_on_c, 1, 67, 80
3, 56348, Note_off_c, 1, 73, 100
3, 56352, Note_on_c, 1, 73, 80
3, 56444, Note_off_c, 1, 67, 100
3, 56448, Note_on_c, 1, 63, 80
3, 56540, Note_off_c, 1, 73, 100
3, 56544, Note_on_c, 1, 73, 80
3, 56636, Note_off_c, 1, 63, 100
3, 56640, Note_on_c, 1, 67, 80
3, 56732, Note_off_c, 1, 73, 100
3, 56736, Note_on_c, 1, 73, 80
3, 56828, Note_off_c, 1, 67, 100
3, 56828, Note_off_c, 1, 73, 100
3, 56832, Note_on_c, 1, 71, 80
3, 56832, Note_on_c, 1, 68, 80
3, 56832, Note_on_c, 1, 64, 80
3, 57212, Note_off_c, 1, 71, 100
3, 57212, Note_off_c, 1, 68, 100
3, 57212, Note_off_c, 1, 64, 100
3, 57216, Note_on_c, 1, 37, 120
3, 57216, Note_on_c, 1, 40, 120
3, 57216, Note_on_c, 1, 45, 120
3, 57216, Note_on_c, 1, 49, 120
3, 57980, Note_off_c, 1, 37, 100
3, 57980, Note_off_c, 1, 40, 100
3, 57980, Note_off_c, 1, 45, 100
3, 57980, Note_off_c, 1, 49, 100
3, 58752, Note_on_c, 1, 49, 80
3, 58752, Note_on_c, 1, 52, 80
3, 58752, Note_on_c, 1, 57, 80
3, 59132, Note_off_c, 1, 49, 100
3, 59132, Note_off_c, 1, 52, 100
3, 59132, Note_off_c, 1, 57, 100
3, 59520, Note_on_c, 1, 49, 80
3, 59520, Note_on_c, 1, 52, 80
3, 59520, Note_on_c, 1, 57, 80
3, 59900, Note_off_c, 1, 49, 100
3, 59900, Note_off_c, 1, 52, 100
3, 59900, Note_off_c, 1, 57, 100
3, 60096, Note_on_c, 1, 49, 81
3, 60096, Note_on_c, 1, 52, 81
3, 60096, Note_on_c, 1, 57, 81
3, 60380, Note_off_c, 1, 49, 100
3, 60380, Note_off_c, 1, 52, 100
3, 60380, Note_off_c, 1, 57, 100
3, 60480, Note_on_c, 1, 49, 85
3, 60480, Note_on_c, 1, 52, 85
3, 60480, Note_on_c, 1, 57, 85
3, 60764, Note_off_c, 1, 49, 100
3, 60764, Note_off_c, 1, 52, 100
3, 60764, Note_off_c, 1, 57, 100
3, 60864, Note_on_c, 1, 49, 89
3, 60864, Note_on_c, 1, 52, 89
3, 60864, Note_on_c, 1, 57, 89
3, 61148, Note_off_c, 1, 49, 100
3, 61148, Note_off_c, 1, 52, 100
3, 61148, Note_off_c, 1, 57, 100
3, 61248, Note_on_c, 1, 49, 93
3, 61248, Note_on_c, 1, 52, 93
3, 61248, Note_on_c, 1, 57, 93
3, 61436, Note_off_c, 1, 49, 100
3, 61436, Note_off_c, 1, 52, 100
3, 61436, Note_off_c, 1, 57, 100
3, 61440, Note_on_c, 1, 49, 94
3, 61440, Note_on_c, 1, 52, 94
3, 61440, Note_on_c, 1, 57, 94
3, 62012, Note_off_c, 1, 49, 100
3, 62012, Note_off_c, 1, 52, 100
3, 62012, Note_off_c, 1, 57, 100
3, 62976, Note_on_c, 1, 49, 110
3, 63072, Note_on_c, 1, 57, 110
3, 63164, Note_off_c, 1, 49, 100
3, 63168, Note_on_c, 1, 52, 110
3, 63260, Note_off_c, 1, 57, 100
3, 63264, Note_on_c, 1, 57, 110
3, 63356, Note_off_c, 1, 52, 100
3, 63360, Note_on_c, 1, 49, 110
3, 63452, Note_off_c, 1, 57, 100
3, 63456, Note_on_c, 1, 57, 110
3, 63548, Note_off_c, 1, 49, 100
3, 63552, Note_on_c, 1, 52, 110
3, 63644, Note_off_c, 1, 57, 100
3, 63648, Note_on_c, 1, 57, 110
3, 63740, Note_off_c, 1, 52, 100
3, 63744, Note_on_c, 1, 50, 110
3, 63836, Note_off_c, 1, 57, 100
3, 63840, Note_on_c, 1, 59, 110
3, 63932, Note_off_c, 1, 50, 100
3, 63936, Note_on_c, 1, 53, 110
3, 64028, Note_off_c, 1, 59, 100
3, 64032, Note_on_c, 1, 59, 110
3, 64124, Note_off_c, 1, 53, 100
3, 64128, Note_on_c, 1, 50, 110
3, 64220, Note_off_c, 1, 59, 100
3, 64224, Note_on_c, 1, 59, 110
3, 64316, Note_off_c, 1, 50, 100
3, 64320, Note_on_c, 1, 53, 110
3, 64412, Note_off_c, 1, 59, 100
3, 64416, Note_on_c, 1, 59, 110
3, 64508, Note_off_c, 1, 53, 100
3, 64512, Note_on_c, 1, 51, 110
3, 64604, Note_off_c, 1, 59, 100
3, 64608, Note_on_c, 1, 59, 110
3, 64700, Note_off_c, 1, 51, 100
3, 64704, Note_on_c, 1, 56, 110
3, 64796, Note_off_c, 1, 59, 100
3, 64800, Note_on_c, 1, 59, 110
3, 64892, Note_off_c, 1, 56, 100
3, 64896, Note_on_c, 1, 51, 110
3, 64988, Note_off_c, 1, 59, 100
3, 64992, Note_on_c, 1, 59, 110
3, 65084, Note_off_c, 1, 51, 100
3, 65088, Note_on_c, 1, 56, 110
3, 65180, Note_off_c, 1, 59, 100
3, 65184, Note_on_c, 1, 59, 110
3, 65276, Note_off_c, 1, 56, 100
3, 65280, Note_on_c, 1, 39, 110
3, 65372, Note_off_c, 1, 59, 100
3, 65376, Note_on_c, 1, 51, 110
3, 65468, Note_off_c, 1, 39, 100
3, 65472, Note_on_c, 1, 50, 110
3, 65564, Note_off_c, 1, 51, 100
3, 65568, Note_on_c, 1, 51, 110
3, 65660, Note_off_c, 1, 50, 100
3, 65664, Note_on_c, 1, 50, 110
3, 65756, Note_off_c, 1, 51, 100
3, 65760, Note_on_c, 1, 51, 110
3, 65852, Note_off_c, 1, 50, 100
3, 65856, Note_on_c, 1, 50, 110
3, 65948, Note_off_c, 1, 51, 100
3, 65952, Note_on_c, 1, 51, 110
3, 66044, Note_off_c, 1, 50, 100
3, 66048, Note_on_c, 1, 44, 110
3, 66140, Note_off_c, 1, 51, 100
3, 66240, Note_on_c, 1, 56, 80
3, 66428, Note_off_c, 1, 44, 100
3, 66428, Note_off_c, 1, 56, 100
3, 66432, Note_on_c, 1, 56, 80
3, 66620, Note_off_c, 1, 56, 100
3, 66624, Note_on_c, 1, 56, 80
3, 66812, Note_off_c, 1, 56, 100
3, 66816, Note_on_c, 1, 56, 80
3, 67004, Note_off_c, 1, 56, 100
3, 67008, Note_on_c, 1, 56, 80
3, 67196, Note_off_c, 1, 56, 100
3, 67200, Note_on_c, 1, 58, 80
3, 67388, Note_off_c, 1, 58, 100
3, 67392, Note_on_c, 1, 59, 80
3, 67580, Note_off_c, 1, 59, 100
3, 67584, Note_on_c, 1, 51, 80
3, 67584, Note_on_c, 1, 61, 80
3, 67772, Note_off_c, 1, 51, 100
3, 67772, Note_off_c, 1, 61, 100
3, 67776, Note_on_c, 1, 63, 80
3, 67776, Note_on_c, 1, 61, 80
3, 67964, Note_off_c, 1, 63, 100
3, 67964, Note_off_c, 1, 61, 100
3, 67968, Note_on_c, 1, 63, 80
3, 67968, Note_on_c, 1, 61, 80
3, 68156, Note_off_c, 1, 63, 100
3, 68156, Note_off_c, 1, 61, 100
3, 68160, Note_on_c, 1, 63, 80
3, 68160, Note_on_c, 1, 61, 80
3, 68348, Note_off_c, 1, 63, 100
3, 68348, Note_off_c, 1, 61, 100
3, 68352, Note_on_c, 1, 63, 80
3, 68352, Note_on_c, 1, 61, 80
3, 68540, Note_off_c, 1, 63, 100
3, 68540, Note_off_c, 1, 61, 100
3, 68544, Note_on_c, 1, 63, 80
3, 68544, Note_on_c, 1, 61, 80
3, 68732, Note_off_c, 1, 63, 100
3, 68732, Note_off_c, 1, 61, 100
3, 68736, Note_on_c, 1, 63, 80
3, 68736, Note_on_c, 1, 59, 80
3, 68736, Note_on_c, 1, 61, 80
3, 68924, Note_off_c, 1, 63, 100
3, 68924, Note_off_c, 1, 59, 100
3, 68924, Note_off_c, 1, 61, 100
3, 68928, Note_on_c, 1, 63, 80
3, 68928, Note_on_c, 1, 58, 80
3, 69116, Note_off_c, 1, 63, 100
3, 69116, Note_off_c, 1, 58, 100
3, 69120, Note_on_c, 1, 44, 80
3, 69120, Note_on_c, 1, 56, 80
3, 69308, Note_off_c, 1, 44, 100
3, 69308, Note_off_c, 1, 56, 100
3, 69312, Note_on_c, 1, 56, 80
3, 69500, Note_off_c, 1, 56, 100
3, 69504, Note_on_c, 1, 56, 80
3, 69692, Note_off_c, 1, 56, 100
3, 69696, Note_on_c, 1, 56, 80
3, 69884, Note_off_c, 1, 56, 100
3, 69888, Note_on_c, 1, 56, 80
3, 70076, Note_off_c, 1, 56, 100
3, 70080, Note_on_c, 1, 56, 80
3, 70268, Note_off_c, 1, 56, 100
3, 70272, Note_on_c, 1, 58, 80
3, 70460, Note_off_c, 1, 58, 100
3, 70464, Note_on_c, 1, 59, 80
3, 70652, Note_off_c, 1, 59, 100
3, 70656, Note_on_c, 1, 51, 80
3, 70656, Note_on_c, 1, 61, 80
3, 70844, Note_off_c, 1, 51, 100
3, 70844, Note_off_c, 1, 61, 100
3, 70848, Note_on_c, 1, 63, 80
3, 70848, Note_on_c, 1, 61, 80
3, 71036, Note_off_c, 1, 63, 100
3, 71036, Note_off_c, 1, 61, 100
3, 71040, Note_on_c, 1, 63, 80
3, 71040, Note_on_c, 1, 61, 80
3, 71228, Note_off_c, 1, 63, 100
3, 71228, Note_off_c, 1, 61, 100
3, 71232, Note_on_c, 1, 63, 80
3, 71232, Note_on_c, 1, 61, 80
3, 71420, Note_off_c, 1, 63, 100
3, 71420, Note_off_c, 1, 61, 100
3, 71424, Note_on_c, 1, 63, 80
3, 71424, Note_on_c, 1, 61, 80
3, 71612, Note_off_c, 1, 63, 100
3, 71612, Note_off_c, 1, 61, 100
3, 71616, Note_on_c, 1, 63, 80
3, 71616, Note_on_c, 1, 61, 80
3, 71804, Note_off_c, 1, 63, 100
3, 71804, Note_off_c, 1, 61, 100
3, 71808, Note_on_c, 1, 63, 80
3, 71808, Note_on_c, 1, 59, 80
3, 71808, Note_on_c, 1, 61, 80
3, 71996, Note_off_c, 1, 63, 100
3, 71996, Note_off_c, 1, 59, 100
3, 71996, Note_off_c, 1, 61, 100
3, 72000, Note_on_c, 1, 63, 80
3, 72000, Note_on_c, 1, 58, 80
3, 72188, Note_off_c, 1, 63, 100
3, 72188, Note_off_c, 1, 58, 100
3, 72192, Note_on_c, 1, 44, 80
3, 72380, Note_off_c, 1, 44, 100
3, 72384, Note_on_c, 1, 59, 80
3, 72384, Note_on_c, 1, 56, 80
3, 72572, Note_off_c, 1, 59, 100
3, 72572, Note_off_c, 1, 56, 100
3, 72576, Note_on_c, 1, 56, 80
3, 72576, Note_on_c, 1, 59, 80
3, 72764, Note_off_c, 1, 56, 100
3, 72764, Note_off_c, 1, 59, 100
3, 72768, Note_on_c, 1, 63, 80
3, 72768, Note_on_c, 1, 59, 80
3, 72956, Note_off_c, 1, 63, 100
3, 72956, Note_off_c, 1, 59, 100
3, 72960, Note_on_c, 1, 49, 80
3, 73148, Note_off_c, 1, 49, 100
3, 73152, Note_on_c, 1, 61, 80
3, 73152, Note_on_c, 1, 56, 80
3, 73340, Note_off_c, 1, 61, 100
3, 73340, Note_off_c, 1, 56, 100
3, 73344, Note_on_c, 1, 61, 80
3, 73344, Note_on_c, 1, 56, 80
3, 73532, Note_off_c, 1, 61, 100
3, 73532, Note_off_c, 1, 56, 100
3, 73536, Note_on_c, 1, 64, 80
3, 73536, Note_on_c, 1, 61, 80
3, 73724, Note_off_c, 1, 64, 100
3, 73724, Note_off_c, 1, 61, 100
3, 73728, Note_on_c, 1, 51, 80
3, 73916, Note_off_c, 1, 51, 100
3, 73920, Note_on_c, 1, 59, 80
3, 73920, Note_on_c, 1, 56, 80
3, 74108, Note_off_c, 1, 59, 100
3, 74108, Note_off_c, 1, 56, 100
3, 74112, Note_on_c, 1, 59, 80
3, 74112, Note_on_c, 1, 56, 80
3, 74300, Note_off_c, 1, 59, 100
3, 74300, Note_off_c, 1, 56, 100
3, 74304, Note_on_c, 1, 63, 80
3, 74304, Note_on_c, 1, 59, 80
3, 74492, Note_off_c, 1, 63, 100
3, 74492, Note_off_c, 1, 59, 100
3, 74496, Note_on_c, 1, 51, 80
3, 74684, Note_off_c, 1, 51, 100
3, 74688, Note_on_c, 1, 58, 80
3, 74688, Note_on_c, 1, 55, 80
3, 74876, Note_off_c, 1, 58, 100
3, 74876, Note_off_c, 1, 55, 100
3, 74880, Note_on_c, 1, 58, 80
3, 74880, Note_on_c, 1, 55, 80
3, 75068, Note_off_c, 1, 58, 100
3, 75068, Note_off_c, 1, 55, 100
3, 75072, Note_on_c, 1, 63, 80
3, 75072, Note_on_c, 1, 58, 80
3, 75260, Note_off_c, 1, 63, 100
3, 75260, Note_off_c, 1, 58, 100
3, 75264, Note_on_c, 1, 32, 80
3, 75264, Note_on_c, 1, 44, 80
3, 75452, Note_off_c, 1, 32, 100
3, 75452, Note_off_c, 1, 44, 100
3, 75456, Note_on_c, 1, 51, 80
3, 75456, Note_on_c, 1, 44, 80
3, 75644, Note_off_c, 1, 51, 100
3, 75644, Note_off_c, 1, 44, 100
3, 75648, Note_on_c, 1, 51, 82
3, 75648, Note_on_c, 1, 44, 82
3, 75836, Note_off_c, 1, 51, 100
3, 75836, Note_off_c, 1, 44, 100
3, 75840, Note_on_c, 1, 51, 85
3, 75840, Note_on_c, 1, 44, 85
3, 76028, Note_off_c, 1, 51, 100
3, 76028, Note_off_c, 1, 44, 100
3, 76032, Note_on_c, 1, 51, 88
3, 76032, Note_on_c, 1, 44, 88
3, 76220, Note_off_c, 1, 51, 100
3, 76220, Note_off_c, 1, 44, 100
3, 76224, Note_on_c, 1, 51, 91
3, 76224, Note_on_c, 1, 44, 91
3, 76412, Note_off_c, 1, 51, 100
3, 76412, Note_off_c, 1, 44, 100
3, 76416, Note_on_c, 1, 51, 94
3, 76416, Note_on_c, 1, 46, 94
3, 76604, Note_off_c, 1, 51, 100
3, 76604, Note_off_c, 1, 46, 100
3, 76608, Note_on_c, 1, 51, 97
3, 76608, Note_on_c, 1, 47, 97
3, 76796, Note_off_c, 1, 51, 100
3, 76796, Note_off_c, 1, 47, 100
3, 76800, Note_on_c, 1, 39, 99
3, 76800, Note_on_c, 1, 49, 99
3, 76800, Note_on_c, 1, 51, 99
3, 76988, Note_off_c, 1, 39, 100
3, 76988, Note_off_c, 1, 49, 100
3, 76988, Note_off_c, 1, 51, 100
3, 76992, Note_on_c, 1, 61, 110
3, 76992, Note_on_c, 1, 51, 110
3, 77180, Note_off_c, 1, 61, 100
3, 77180, Note_off_c, 1, 51, 100
3, 77184, Note_on_c, 1, 61, 110
3, 77184, Note_on_c, 1, 51, 110
3, 77372, Note_off_c, 1, 61, 100
3, 77372, Note_off_c, 1, 51, 100
3, 77376, Note_on_c, 1, 61, 110
3, 77376, Note_on_c, 1, 51, 110
3, 77564, Note_off_c, 1, 61, 100
3, 77564, Note_off_c, 1, 51, 100
3, 77568, Note_on_c, 1, 61, 110
3, 77568, Note_on_c, 1, 51, 110
3, 77756, Note_off_c, 1, 61, 100
3, 77756, Note_off_c, 1, 51, 100
3, 77760, Note_on_c, 1, 61, 110
3, 77760, Note_on_c, 1, 51, 110
3, 77948, Note_off_c, 1, 61, 100
3, 77948, Note_off_c, 1, 51, 100
3, 77952, Note_on_c, 1, 59, 110
3, 77952, Note_on_c, 1, 51, 110
3, 78140, Note_off_c, 1, 59, 100
3, 78140, Note_off_c, 1, 51, 100
3, 78144, Note_on_c, 1, 58, 110
3, 78144, Note_on_c, 1, 51, 110
3, 78332, Note_off_c, 1, 58, 100
3, 78332, Note_off_c, 1, 51, 100
3, 78336, Note_on_c, 1, 32, 110
3, 78336, Note_on_c, 1, 44, 110
3, 78524, Note_off_c, 1, 32, 100
3, 78524, Note_off_c, 1, 44, 100
3, 78528, Note_on_c, 1, 51, 80
3, 78528, Note_on_c, 1, 44, 80
3, 78716, Note_off_c, 1, 51, 100
3, 78716, Note_off_c, 1, 44, 100
3, 78720, Note_on_c, 1, 51, 82
3, 78720, Note_on_c, 1, 44, 82
3, 78908, Note_off_c, 1, 51, 100
3, 78908, Note_off_c, 1, 44, 100
3, 78912, Note_on_c, 1, 51, 85
3, 78912, Note_on_c, 1, 44, 85
3, 79100, Note_off_c, 1, 51, 100
3, 79100, Note_off_c, 1, 44, 100
3, 79104, Note_on_c, 1, 51, 88
3, 79104, Note_on_c, 1, 44, 88
3, 79292, Note_off_c, 1, 51, 100
3, 79292, Note_off_c, 1, 44, 100
3, 79296, Note_on_c, 1, 51, 91
3, 79296, Note_on_c, 1, 44, 91
3, 79484, Note_off_c, 1, 51, 100
3, 79484, Note_off_c, 1, 44, 100
3, 79488, Note_on_c, 1, 51, 94
3, 79488, Note_on_c, 1, 46, 94
3, 79676, Note_off_c, 1, 51, 100
3, 79676, Note_off_c, 1, 46, 100
3, 79680, Note_on_c, 1, 51, 97
3, 79680, Note_on_c, 1, 47, 97
3, 79868, Note_off_c, 1, 51, 100
3, 79868, Note_off_c, 1, 47, 100
3, 79872, Note_on_c, 1, 39, 99
3, 79872, Note_on_c, 1, 49, 99
3, 79872, Note_on_c, 1, 51, 99
3, 80060, Note_off_c, 1, 39, 100
3, 80060, Note_off_c, 1, 49, 100
3, 80060, Note_off_c, 1, 51, 100
3, 80064, Note_on_c, 1, 61, 110
3, 80064, Note_on_c, 1, 51, 110
3, 80252, Note_off_c, 1, 61, 100
3, 80252, Note_off_c, 1, 51, 100
3, 80256, Note_on_c, 1, 61, 110
3, 80256, Note_on_c, 1, 51, 110
3, 80444, Note_off_c, 1, 61, 100
3, 80444, Note_off_c, 1, 51, 100
3, 80448, Note_on_c, 1, 61, 110
3, 80448, Note_on_c, 1, 51, 110
3, 80636, Note_off_c, 1, 61, 100
3, 80636, Note_off_c, 1, 51, 100
3, 80640, Note_on_c, 1, 61, 110
3, 80640, Note_on_c, 1, 51, 110
3, 80828, Note_off_c, 1, 61, 100
3, 80828, Note_off_c, 1, 51, 100
3, 80832, Note_on_c, 1, 61, 110
3, 80832, Note_on_c, 1, 51, 110
3, 81020, Note_off_c, 1, 61, 100
3, 81020, Note_off_c, 1, 51, 100
3, 81024, Note_on_c, 1, 59, 110
3, 81024, Note_on_c, 1, 51, 110
3, 81212, Note_off_c, 1, 59, 100
3, 81212, Note_off_c, 1, 51, 100
3, 81216, Note_on_c, 1, 58, 110
3, 81216, Note_on_c, 1, 51, 110
3, 81404, Note_off_c, 1, 58, 100
3, 81404, Note_off_c, 1, 51, 100
3, 81408, Note_on_c, 1, 44, 110
3, 81408, Note_on_c, 1, 56, 110
3, 81596, Note_off_c, 1, 44, 100
3, 81596, Note_off_c, 1, 56, 100
3, 81600, Note_on_c, 1, 63, 80
3, 81600, Note_on_c, 1, 59, 80
3, 81788, Note_off_c, 1, 63, 100
3, 81788, Note_off_c, 1, 59, 100
3, 81792, Note_on_c, 1, 63, 80
3, 81792, Note_on_c, 1, 59, 80
3, 81980, Note_off_c, 1, 63, 100
3, 81980, Note_off_c, 1, 59, 100
3, 81984, Note_on_c, 1, 56, 80
3, 81984, Note_on_c, 1, 59, 80
3, 82172, Note_off_c, 1, 56, 100
3, 82172, Note_off_c, 1, 59, 100
3, 82176, Note_on_c, 1, 49, 80
3, 82364, Note_off_c, 1, 49, 100
3, 82368, Note_on_c, 1, 64, 80
3, 82368, Note_on_c, 1, 61, 80
3, 82556, Note_off_c, 1, 64, 100
3, 82556, Note_off_c, 1, 61, 100
3, 82560, Note_on_c, 1, 64, 80
3, 82560, Note_on_c, 1, 61, 80
3, 82748, Note_off_c, 1, 64, 100
3, 82748, Note_off_c, 1, 61, 100
3, 82752, Note_on_c, 1, 56, 80
3, 82752, Note_on_c, 1, 61, 80
3, 82940, Note_off_c, 1, 56, 100
3, 82940, Note_off_c, 1, 61, 100
3, 82944, Note_on_c, 1, 51, 80
3, 83132, Note_off_c, 1, 51, 100
3, 83136, Note_on_c, 1, 63, 80
3, 83136, Note_on_c, 1, 59, 80
3, 83324, Note_off_c, 1, 63, 100
3, 83324, Note_off_c, 1, 59, 100
3, 83328, Note_on_c, 1, 63, 80
3, 83328, Note_on_c, 1, 59, 80
3, 83516, Note_off_c, 1, 63, 100
3, 83516, Note_off_c, 1, 59, 100
3, 83520, Note_on_c, 1, 56, 80
3, 83520, Note_on_c, 1, 59, 80
3, 83708, Note_off_c, 1, 56, 100
3, 83708, Note_off_c, 1, 59, 100
3, 83712, Note_on_c, 1, 49, 80
3, 83900, Note_off_c, 1, 49, 100
3, 83904, Note_on_c, 1, 63, 80
3, 83904, Note_on_c, 1, 58, 80
3, 84092, Note_off_c, 1, 63, 100
3, 84092, Note_off_c, 1, 58, 100
3, 84096, Note_on_c, 1, 63, 80
3, 84096, Note_on_c, 1, 58, 80
3, 84284, Note_off_c, 1, 63, 100
3, 84284, Note_off_c, 1, 58, 100
3, 84288, Note_on_c, 1, 55, 80
3, 84288, Note_on_c, 1, 58, 80
3, 84476, Note_off_c, 1, 55, 100
3, 84476, Note_off_c, 1, 58, 100
3, 84480, Note_on_c, 1, 47, 80
3, 84668, Note_off_c, 1, 47, 100
3, 84672, Note_on_c, 1, 68, 82
3, 84672, Note_on_c, 1, 63, 82
3, 84860, Note_off_c, 1, 68, 100
3, 84860, Note_off_c, 1, 63, 100
3, 84864, Note_on_c, 1, 68, 85
3, 84864, Note_on_c, 1, 63, 85
3, 85052, Note_off_c, 1, 68, 100
3, 85052, Note_off_c, 1, 63, 100
3, 85056, Note_on_c, 1, 59, 88
3, 85056, Note_on_c, 1, 63, 88
3, 85244, Note_off_c, 1, 59, 100
3, 85244, Note_off_c, 1, 63, 100
3, 85248, Note_on_c, 1, 49, 91
3, 85436, Note_off_c, 1, 49, 100
3, 85440, Note_on_c, 1, 69, 94
3, 85440, Note_on_c, 1, 64, 94
3, 85628, Note_off_c, 1, 69, 100
3, 85628, Note_off_c, 1, 64, 100
3, 85632, Note_on_c, 1, 69, 97
3, 85632, Note_on_c, 1, 64, 97
3, 85820, Note_off_c, 1, 69, 100
3, 85820, Note_off_c, 1, 64, 100
3, 85824, Note_on_c, 1, 61, 99
3, 85824, Note_on_c, 1, 64, 99
3, 86012, Note_off_c, 1, 61, 100
3, 86012, Note_off_c, 1, 64, 100
3, 86016, Note_on_c, 1, 51, 100
3, 86204, Note_off_c, 1, 51, 100
3, 86208, Note_on_c, 1, 68, 100
3, 86208, Note_on_c, 1, 63, 100
3, 86396, Note_off_c, 1, 68, 100
3, 86396, Note_off_c, 1, 63, 100
3, 86400, Note_on_c, 1, 68, 100
3, 86400, Note_on_c, 1, 63, 100
3, 86588, Note_off_c, 1, 68, 100
3, 86588, Note_off_c, 1, 63, 100
3, 86592, Note_on_c, 1, 59, 100
3, 86592, Note_on_c, 1, 63, 100
3, 86780, Note_off_c, 1, 59, 100
3, 86780, Note_off_c, 1, 63, 100
3, 86784, Note_on_c, 1, 51, 90
3, 86972, Note_off_c, 1, 51, 100
3, 86976, Note_on_c, 1, 61, 87
3, 86976, Note_on_c, 1, 67, 87
3, 87164, Note_off_c, 1, 61, 100
3, 87164, Note_off_c, 1, 67, 100
3, 87168, Note_on_c, 1, 61, 84
3, 87168, Note_on_c, 1, 67, 84
3, 87356, Note_off_c, 1, 61, 100
3, 87356, Note_off_c, 1, 67, 100
3, 87360, Note_on_c, 1, 58, 81
3, 87360, Note_on_c, 1, 61, 81
3, 87548, Note_off_c, 1, 58, 100
3, 87548, Note_off_c, 1, 61, 100
3, 87552, Control_c, 1, 64, 127
3, 87552, Note_on_c, 1, 44, 70
3, 87648, Note_on_c, 1, 56, 70
3, 87740, Note_off_c, 1, 44, 100
3, 87744, Note_on_c, 1, 51, 70
3, 87836, Note_off_c, 1, 56, 100
3, 87840, Note_on_c, 1, 56, 70
3, 87932, Note_off_c, 1, 51, 100
3, 87936, Note_on_c, 1, 44, 70
3, 88028, Note_off_c, 1, 56, 100
3, 88032, Note_on_c, 1, 56, 70
3, 88124, Note_off_c, 1, 44, 100
3, 88128, Note_on_c, 1, 51, 70
3, 88220, Note_off_c, 1, 56, 100
3, 88224, Note_on_c, 1, 56, 70
3, 88316, Note_off_c, 1, 51, 100
3, 88320, Note_on_c, 1, 44, 70
3, 88412, Note_off_c, 1, 56, 100
3, 88416, Note_on_c, 1, 56, 70
3, 88508, Note_off_c, 1, 44, 100
3, 88512, Note_on_c, 1, 51, 70
3, 88604, Note_off_c, 1, 56, 100
3, 88608, Note_on_c, 1, 56, 70
3, 88700, Note_off_c, 1, 51, 100
3, 88704, Note_on_c, 1, 44, 70
3, 88796, Note_off_c, 1, 56, 100
3, 88800, Note_on_c, 1, 56, 70
3, 88892, Note_off_c, 1, 44, 100
3, 88896, Note_on_c, 1, 51, 70
3, 88988, Note_off_c, 1, 56, 100
3, 88992, Note_on_c, 1, 56, 70
3, 89080, Control_c, 1, 64, 0
3, 89084, Note_off_c, 1, 51, 100
3, 89088, Control_c, 1, 64, 127
3, 89088, Note_on_c, 1, 44, 70
3, 89180, Note_off_c, 1, 56, 100
3, 89184, Note_on_c, 1, 58, 70
3, 89276, Note_off_c, 1, 44, 100
3, 89280, Note_on_c, 1, 51, 70
3, 89372, Note_off_c, 1, 58, 100
3, 89376, Note_on_c, 1, 58, 70
3, 89468, Note_off_c, 1, 51, 100
3, 89472, Note_on_c, 1, 44, 70
3, 89564, Note_off_c, 1, 58, 100
3, 89568, Note_on_c, 1, 58, 70
3, 89660, Note_off_c, 1, 44, 100
3, 89664, Note_on_c, 1, 51, 70
3, 89756, Note_off_c, 1, 58, 100
3, 89760, Note_on_c, 1, 58, 70
3, 89852, Note_off_c, 1, 51, 100
3, 89856, Note_on_c, 1, 44, 70
3, 89948, Note_off_c, 1, 58, 100
3, 89952, Note_on_c, 1, 58, 70
3, 90044, Note_off_c, 1, 44, 100
3, 90048, Note_on_c, 1, 51, 70
3, 90140, Note_off_c, 1, 58, 100
3, 90144, Note_on_c, 1, 58, 70
3, 90236, Note_off_c, 1, 51, 100
3, 90240, Note_on_c, 1, 44, 70
3, 90332, Note_off_c, 1, 58, 100
3, 90336, Note_on_c, 1, 58, 70
3, 90428, Note_off_c, 1, 44, 100
3, 90432, Note_on_c, 1, 51, 70
3, 90524, Note_off_c, 1, 58, 100
3, 90528, Note_on_c, 1, 58, 70
3, 90616, Control_c, 1, 64, 0
3, 90620, Note_off_c, 1, 51, 100
3, 90624, Control_c, 1, 64, 127
3, 90624, Note_on_c, 1, 44, 70
3, 90716, Note_off_c, 1, 58, 100
3, 90720, Note_on_c, 1, 56, 70
3, 90812, Note_off_c, 1, 44, 100
3, 90816, Note_on_c, 1, 51, 70
3, 90908, Note_off_c, 1, 56, 100
3, 90912, Note_on_c, 1, 56, 70
3, 91004, Note_off_c, 1, 51, 100
3, 91008, Note_on_c, 1, 44, 70
3, 91100, Note_off_c, 1, 56, 100
3, 91104, Note_on_c, 1, 56, 70
3, 91196, Note_off_c, 1, 44, 100
3, 91200, Note_on_c, 1, 51, 70
3, 91292, Note_off_c, 1, 56, 100
3, 91296, Note_on_c, 1, 56, 70
3, 91388, Note_off_c, 1, 51, 100
3, 91392, Note_on_c, 1, 44, 70
3, 91484, Note_off_c, 1, 56, 100
3, 91488, Note_on_c, 1, 56, 70
3, 91580, Note_off_c, 1, 44, 100
3, 91584, Note_on_c, 1, 51, 70
3, 91676, Note_off_c, 1, 56, 100
3, 91680, Note_on_c, 1, 56, 70
3, 91772, Note_off_c, 1, 51, 100
3, 91776, Note_on_c, 1, 44, 70
3, 91868, Note_off_c, 1, 56, 100
3, 91872, Note_on_c, 1, 56, 70
3, 91964, Note_off_c, 1, 44, 100
3, 91968, Note_on_c, 1, 51, 70
3, 92060, Note_off_c, 1, 56, 100
3, 92064, Note_on_c, 1, 56, 70
3, 92152, Control_c, 1, 64, 0
3, 92156, Note_off_c, 1, 51, 100
3, 92160, Control_c, 1, 64, 127
3, 92160, Note_on_c, 1, 44, 70
3, 92252, Note_off_c, 1, 56, 100
3, 92256, Note_on_c, 1, 58, 70
3, 92348, Note_off_c, 1, 44, 100
3, 92352, Note_on_c, 1, 51, 70
3, 92444, Note_off_c, 1, 58, 100
3, 92448, Note_on_c, 1, 58, 70
3, 92540, Note_off_c, 1, 51, 100
3, 92544, Note_on_c, 1, 44, 70
3, 92636, Note_off_c, 1, 58, 100
3, 92640, Note_on_c, 1, 58, 70
3, 92732, Note_off_c, 1, 44, 100
3, 92736, Note_on_c, 1, 51, 70
3, 92828, Note_off_c, 1, 58, 100
3, 92832, Note_on_c, 1, 58, 70
3, 92924, Note_off_c, 1, 51, 100
3, 92928, Note_on_c, 1, 44, 70
3, 93020, Note_off_c, 1, 58, 100
3, 93024, Note_on_c, 1, 58, 70
3, 93116, Note_off_c, 1, 44, 100
3, 93120, Note_on_c, 1, 51, 70
3, 93212, Note_off_c, 1, 58, 100
3, 93216, Note_on_c, 1, 58, 70
3, 93308, Note_off_c, 1, 51, 100
3, 93312, Note_on_c, 1, 44, 70
3, 93404, Note_off_c, 1, 58, 100
3, 93408, Note_on_c, 1, 58, 70
3, 93500, Note_off_c, 1, 44, 100
3, 93504, Note_on_c, 1, 51, 70
3, 93596, Note_off_c, 1, 58, 100
3, 93600, Note_on_c, 1, 58, 70
3, 93688, Control_c, 1, 64, 0
3, 93692, Note_off_c, 1, 51, 100
3, 93696, Control_c, 1, 64, 127
3, 93696, Note_on_c, 1, 44, 70
3, 93788, Note_off_c, 1, 58, 100
3, 93792, Note_on_c, 1, 56, 70
3, 93884, Note_off_c, 1, 44, 100
3, 93888, Note_on_c, 1, 51, 70
3, 93980, Note_off_c, 1, 56, 100
3, 93984, Note_on_c, 1, 56, 70
3, 94076, Note_off_c, 1, 51, 100
3, 94080, Note_on_c, 1, 44, 70
3, 94172, Note_off_c, 1, 56, 100
3, 94176, Note_on_c, 1, 56, 70
3, 94268, Note_off_c, 1, 44, 100
3, 94272, Note_on_c, 1, 51, 70
3, 94364, Note_off_c, 1, 56, 100
3, 94368, Note_on_c, 1, 56, 70
3, 94456, Control_c, 1, 64, 0
3, 94460, Note_off_c, 1, 51, 100
3, 94464, Control_c, 1, 64, 127
3, 94464, Note_on_c, 1, 44, 70
3, 94556, Note_off_c, 1, 56, 100
3, 94560, Note_on_c, 1, 58, 70
3, 94652, Note_off_c, 1, 44, 100
3, 94656, Note_on_c, 1, 51, 70
3, 94748, Note_off_c, 1, 58, 100
3, 94752, Note_on_c, 1, 58, 70
3, 94844, Note_off_c, 1, 51, 100
3, 94848, Note_on_c, 1, 44, 70
3, 94940, Note_off_c, 1, 58, 100
3, 94944, Note_on_c, 1, 58, 70
3, 95036, Note_off_c, 1, 44, 100
3, 95040, Note_on_c, 1, 51, 70
3, 95132, Note_off_c, 1, 58, 100
3, 95136, Note_on_c, 1, 58, 70
3, 95224, Control_c, 1, 64, 0
3, 95228, Note_off_c, 1, 51, 100
3, 95232, Control_c, 1, 64, 127
3, 95232, Note_on_c, 1, 44, 70
3, 95324, Note_off_c, 1, 58, 100
3, 95328, Note_on_c, 1, 56, 70
3, 95420, Note_off_c, 1, 44, 100
3, 95424, Note_on_c, 1, 51, 70
3, 95516, Note_off_c, 1, 56, 100
3, 95520, Note_on_c, 1, 56, 70
3, 95612, Note_off_c, 1, 51, 100
3, 95616, Note_on_c, 1, 44, 70
3, 95708, Note_off_c, 1, 56, 100
3, 95712, Note_on_c, 1, 56, 70
3, 95804, Note_off_c, 1, 44, 100
3, 95808, Note_on_c, 1, 51, 70
3, 95900, Note_off_c, 1, 56, 100
3, 95904, Note_on_c, 1, 56, 70
3, 95992, Control_c, 1, 64, 0
3, 95996, Note_off_c, 1, 51, 100
3, 96000, Control_c, 1, 64, 127
3, 96000, Note_on_c, 1, 44, 70
3, 96092, Note_off_c, 1, 56, 100
3, 96096, Note_on_c, 1, 58, 70
3, 96188, Note_off_c, 1, 44, 100
3, 96192, Note_on_c, 1, 51, 70
3, 96284, Note_off_c, 1, 58, 100
3, 96288, Note_on_c, 1, 58, 70
3, 96380, Note_off_c, 1, 51, 100
3, 96384, Note_on_c, 1, 44, 70
3, 96476, Note_off_c, 1, 58, 100
3, 96480, Note_on_c, 1, 58, 70
3, 96572, Note_off_c, 1, 44, 100
3, 96576, Note_on_c, 1, 51, 70
3, 96668, Note_off_c, 1, 58, 100
3, 96672, Note_on_c, 1, 58, 70
3, 96760, Control_c, 1, 64, 0
3, 96764, Note_off_c, 1, 51, 100
3, 96768, Control_c, 1, 64, 127
3, 96768, Note_on_c, 1, 44, 80
3, 96860, Note_off_c, 1, 58, 100
3, 96864, Note_on_c, 1, 56, 80
3, 96956, Note_off_c, 1, 44, 100
3, 96960, Note_on_c, 1, 51, 81
3, 97052, Note_off_c, 1, 56, 100
3, 97056, Note_on_c, 1, 56, 82
3, 97148, Note_off_c, 1, 51, 100
3, 97152, Note_on_c, 1, 44, 83
3, 97244, Note_off_c, 1, 56, 100
3, 97248, Note_on_c, 1, 56, 84
3, 97340, Note_off_c, 1, 44, 100
3, 97344, Note_on_c, 1, 51, 85
3, 97436, Note_off_c, 1, 56, 100
3, 97440, Note_on_c, 1, 56, 86
3, 97532, Note_off_c, 1, 51, 100
3, 97536, Note_on_c, 1, 44, 87
3, 97628, Note_off_c, 1, 56, 100
3, 97632, Note_on_c, 1, 56, 88
3, 97724, Note_off_c, 1, 44, 100
3, 97728, Note_on_c, 1, 51, 89
3, 97820, Note_off_c, 1, 56, 100
3, 97824, Note_on_c, 1, 56, 90
3, 97916, Note_off_c, 1, 51, 100
3, 97920, Note_on_c, 1, 44, 91
3, 98012, Note_off_c, 1, 56, 100
3, 98016, Note_on_c, 1, 56, 92
3, 98108, Note_off_c, 1, 44, 100
3, 98112, Note_on_c, 1, 51, 93
3, 98204, Note_off_c, 1, 56, 100
3, 98208, Note_on_c, 1, 56, 94
3, 98296, Control_c, 1, 64, 0
3, 98300, Note_off_c, 1, 51, 100
3, 98304, Control_c, 1, 64, 127
3, 98304, Note_on_c, 1, 44, 94
3, 98396, Note_off_c, 1, 56, 100
3, 98400, Note_on_c, 1, 51, 95
3, 98492, Note_off_c, 1, 44, 100
3, 98496, Note_on_c, 1, 47, 96
3, 98588, Note_off_c, 1, 51, 100
3, 98592, Note_on_c, 1, 51, 97
3, 98684, Note_off_c, 1, 47, 100
3, 98688, Note_on_c, 1, 44, 98
3, 98780, Note_off_c, 1, 51, 100
3, 98784, Note_on_c, 1, 51, 99
3, 98876, Note_off_c, 1, 44, 100
3, 98880, Note_on_c, 1, 47, 100
3, 98972, Note_off_c, 1, 51, 100
3, 98976, Note_on_c, 1, 51, 101
3, 99068, Note_off_c, 1, 47, 100
3, 99072, Note_on_c, 1, 44, 102
3, 99164, Note_off_c, 1, 51, 100
3, 99168, Note_on_c, 1, 51, 103
3, 99260, Note_off_c, 1, 44, 100
3, 99264, Note_on_c, 1, 47, 104
3, 99356, Note_off_c, 1, 51, 100
3, 99360, Note_on_c, 1, 51, 105
3, 99452, Note_off_c, 1, 47, 100
3, 99456, Note_on_c, 1, 44, 106
3, 99548, Note_off_c, 1, 51, 100
3, 99552, Note_on_c, 1, 51, 107
3, 99644, Note_off_c, 1, 44, 100
3, 99648, Note_on_c, 1, 47, 108
3, 99740, Note_off_c, 1, 51, 100
3, 99744, Note_on_c, 1, 51, 109
3, 99832, Control_c, 1, 64, 0
3, 99836, Note_off_c, 1, 47, 100
3, 99840, Note_on_c, 1, 37, 80
3, 99932, Note_off_c, 1, 51, 100
3, 100028, Note_off_c, 1, 37, 100
3, 100032, Note_on_c, 1, 44, 80
3, 100220, Note_off_c, 1, 44, 100
3, 100224, Note_on_c, 1, 37, 80
3, 100412, Note_off_c, 1, 37, 100
3, 100416, Note_on_c, 1, 44, 80
3, 100604, Note_off_c, 1, 44, 100
3, 100608, Note_on_c, 1, 37, 80
3, 100796, Note_off_c, 1, 37, 100
3, 100800, Note_on_c, 1, 44, 80
3, 100988, Note_off_c, 1, 44, 100
3, 100992, Note_on_c, 1, 37, 80
3, 101180, Note_off_c, 1, 37, 100
3, 101184, Note_on_c, 1, 44, 80
3, 101372, Note_off_c, 1, 44, 100
3, 101376, Note_on_c, 1, 37, 80
3, 101564, Note_off_c, 1, 37, 100
3, 101568, Note_on_c, 1, 44, 80
3, 101756, Note_off_c, 1, 44, 100
3, 101760, Note_on_c, 1, 37, 80
3, 101948, Note_off_c, 1, 37, 100
3, 101952, Note_on_c, 1, 44, 80
3, 102140, Note_off_c, 1, 44, 100
3, 102144, Note_on_c, 1, 37, 80
3, 102332, Note_off_c, 1, 37, 100
3, 102336, Note_on_c, 1, 44, 80
3, 102524, Note_off_c, 1, 44, 100
3, 102528, Note_on_c, 1, 49, 100
3, 102528, Note_on_c, 1, 37, 100
3, 102720, Note_on_c, 1, 44, 100
3, 102908, Note_off_c, 1, 49, 100
3, 102908, Note_off_c, 1, 37, 100
3, 102908, Note_off_c, 1, 44, 100
3, 102912, Note_on_c, 1, 36, 80
3, 103100, Note_off_c, 1, 36, 100
3, 103104, Note_on_c, 1, 44, 80
3, 103292, Note_off_c, 1, 44, 100
3, 103296, Note_on_c, 1, 36, 80
3, 103484, Note_off_c, 1, 36, 100
3, 103488, Note_on_c, 1, 44, 80
3, 103676, Note_off_c, 1, 44, 100
3, 103680, Note_on_c, 1, 36, 80
3, 103868, Note_off_c, 1, 36, 100
3, 103872, Note_on_c, 1, 44, 80
3, 104060, Note_off_c, 1, 44, 100
3, 104064, Note_on_c, 1, 36, 80
3, 104252, Note_off_c, 1, 36, 100
3, 104256, Note_on_c, 1, 44, 80
3, 104444, Note_off_c, 1, 44, 100
3, 104448, Note_on_c, 1, 36, 80
3, 104636, Note_off_c, 1, 36, 100
3, 104640, Note_on_c, 1, 44, 80
3, 104828, Note_off_c, 1, 44, 100
3, 104832, Note_on_c, 1, 36, 80
3, 105020, Note_off_c, 1, 36, 100
3, 105024, Note_on_c, 1, 44, 80
3, 105212, Note_off_c, 1, 44, 100
3, 105216, Note_on_c, 1, 36, 80
3, 105404, Note_off_c, 1, 36, 100
3, 105408, Note_on_c, 1, 44, 80
3, 105596, Note_off_c, 1, 44, 100
3, 105600, Note_on_c, 1, 36, 110
3, 105600, Note_on_c, 1, 48, 110
3, 105792, Note_on_c, 1, 44, 110
3, 105980, Note_off_c, 1, 36, 100
3, 105980, Note_off_c, 1, 48, 100
3, 105980, Note_off_c, 1, 44, 100
3, 105984, Note_on_c, 1, 35, 80
3, 106172, Note_off_c, 1, 35, 100
3, 106176, Note_on_c, 1, 44, 80
3, 106364, Note_off_c, 1, 44, 100
3, 106368, Note_on_c, 1, 35, 80
3, 106556, Note_off_c, 1, 35, 100
3, 106560, Note_on_c, 1, 44, 80
3, 106748, Note_off_c, 1, 44, 100
3, 106752, Note_on_c, 1, 35, 80
3, 106940, Note_off_c, 1, 35, 100
3, 106944, Note_on_c, 1, 44, 80
3, 107132, Note_off_c, 1, 44, 100
3, 107136, Note_on_c, 1, 35, 80
3, 107324, Note_off_c, 1, 35, 100
3, 107328, Note_on_c, 1, 44, 80
3, 107516, Note_off_c, 1, 44, 100
3, 107520, Note_on_c, 1, 35, 80
3, 107708, Note_off_c, 1, 35, 100
3, 107712, Note_on_c, 1, 44, 80
3, 107900, Note_off_c, 1, 44, 100
3, 107904, Note_on_c, 1, 35, 80
3, 108092, Note_off_c, 1, 35, 100
3, 108096, Note_on_c, 1, 44, 80
3, 108284, Note_off_c, 1, 44, 100
3, 108288, Note_on_c, 1, 35, 80
3, 108476, Note_off_c, 1, 35, 100
3, 108480, Note_on_c, 1, 44, 80
3, 108668, Note_off_c, 1, 44, 100
3, 108672, Note_on_c, 1, 35, 110
3, 108672, Note_on_c, 1, 47, 110
3, 108864, Note_on_c, 1, 44, 110
3, 109052, Note_off_c, 1, 35, 100
3, 109052, Note_off_c, 1, 47, 100
3, 109052, Note_off_c, 1, 44, 100
3, 109056, Note_on_c, 1, 33, 90
3, 109244, Note_off_c, 1, 33, 100
3, 109248, Note_on_c, 1, 44, 90
3, 109436, Note_off_c, 1, 44, 100
3, 109440, Note_on_c, 1, 33, 90
3, 109628, Note_off_c, 1, 33, 100
3, 109632, Note_on_c, 1, 44, 90
3, 109820, Note_off_c, 1, 44, 100
3, 109824, Note_on_c, 1, 33, 90
3, 110012, Note_off_c, 1, 33, 100
3, 110016, Note_on_c, 1, 44, 90
3, 110204, Note_off_c, 1, 44, 100
3, 110208, Note_on_c, 1, 33, 110
3, 110400, Note_on_c, 1, 44, 110
3, 110588, Note_off_c, 1, 33, 100
3, 110588, Note_off_c, 1, 44, 100
3, 110592, Note_on_c, 1, 33, 90
3, 110780, Note_off_c, 1, 33, 100
3, 110784, Note_on_c, 1, 45, 90
3, 110972, Note_off_c, 1, 45, 100
3, 110976, Note_on_c, 1, 33, 90
3, 111164, Note_off_c, 1, 33, 100
3, 111168, Note_on_c, 1, 45, 90
3, 111356, Note_off_c, 1, 45, 100
3, 111360, Note_on_c, 1, 33, 90
3, 111548, Note_off_c, 1, 33, 100
3, 111552, Note_on_c, 1, 45, 90
3, 111740, Note_off_c, 1, 45, 100
3, 111744, Note_on_c, 1, 33, 110
3, 111936, Note_on_c, 1, 45, 110
3, 112124, Note_off_c, 1, 33, 100
3, 112124, Note_off_c, 1, 45, 100
3, 112128, Note_on_c, 1, 32, 110
3, 112128, Note_on_c, 1, 44, 110
3, 112320, Note_on_c, 1, 60, 110
3, 112320, Note_on_c, 1, 56, 110
3, 112508, Note_off_c, 1, 32, 100
3, 112508, Note_off_c, 1, 44, 100
3, 112508, Note_off_c, 1, 60, 100
3, 112512, Note_on_c, 1, 60, 110
3, 112700, Note_off_c, 1, 60, 100
3, 112704, Note_on_c, 1, 61, 110
3, 112892, Note_off_c, 1, 61, 100
3, 112896, Note_on_c, 1, 63, 110
3, 113084, Note_off_c, 1, 63, 100
3, 113088, Note_on_c, 1, 64, 110
3, 113276, Note_off_c, 1, 64, 100
3, 113280, Note_on_c, 1, 66, 110
3, 113468, Note_off_c, 1, 66, 100
3, 113472, Note_on_c, 1, 64, 110
3, 113660, Note_off_c, 1, 64, 100
3, 113664, Note_on_c, 1, 66, 110
3, 113852, Note_off_c, 1, 66, 100
3, 113856, Note_on_c, 1, 64, 110
3, 114044, Note_off_c, 1, 64, 100
3, 114048, Note_on_c, 1, 69, 110
3, 114236, Note_off_c, 1, 69, 100
3, 114240, Note_on_c, 1, 68, 110
3, 114428, Note_off_c, 1, 68, 100
3, 114432, Note_on_c, 1, 66, 110
3, 114620, Note_off_c, 1, 66, 100
3, 114624, Note_on_c, 1, 64, 110
3, 114812, Note_off_c, 1, 64, 100
3, 114816, Note_on_c, 1, 63, 110
3, 115004, Note_off_c, 1, 63, 100
3, 115008, Note_on_c, 1, 61, 110
3, 115196, Note_off_c, 1, 56, 100
3, 115196, Note_off_c, 1, 61, 100
3, 115200, Note_on_c, 1, 56, 110
3, 115200, Note_on_c, 1, 60, 110
3, 115388, Note_off_c, 1, 60, 100
3, 115392, Note_on_c, 1, 60, 110
3, 115580, Note_off_c, 1, 60, 100
3, 115584, Note_on_c, 1, 60, 110
3, 115772, Note_off_c, 1, 60, 100
3, 115776, Note_on_c, 1, 61, 110
3, 115964, Note_off_c, 1, 61, 100
3, 115968, Note_on_c, 1, 63, 110
3, 116156, Note_off_c, 1, 63, 100
3, 116160, Note_on_c, 1, 64, 110
3, 116348, Note_off_c, 1, 64, 100
3, 116352, Note_on_c, 1, 66, 110
3, 116540, Note_off_c, 1, 66, 100
3, 116544, Note_on_c, 1, 64, 110
3, 116732, Note_off_c, 1, 64, 100
3, 116736, Note_on_c, 1, 66, 110
3, 116924, Note_off_c, 1, 66, 100
3, 116928, Note_on_c, 1, 64, 110
3, 117116, Note_off_c, 1, 64, 100
3, 117120, Note_on_c, 1, 69, 110
3, 117308, Note_off_c, 1, 69, 100
3, 117312, Note_on_c, 1, 68, 110
3, 117500, Note_off_c, 1, 68, 100
3, 117504, Note_on_c, 1, 66, 110
3, 117692, Note_off_c, 1, 66, 100
3, 117696, Note_on_c, 1, 64, 110
3, 117884, Note_off_c, 1, 64, 100
3, 117888, Note_on_c, 1, 63, 110
3, 118076, Note_off_c, 1, 63, 100
3, 118080, Note_on_c, 1, 61, 110
3, 118268, Note_off_c, 1, 56, 100
3, 118268, Note_off_c, 1, 61, 100
3, 118272, Note_on_c, 1, 60, 110
3, 118272, Note_on_c, 1, 56, 110
3, 118460, Note_off_c, 1, 60, 100
3, 118460, Note_off_c, 1, 56, 100
3, 118464, Note_on_c, 1, 61, 110
3, 118464, Note_on_c, 1, 56, 110
3, 118652, Note_off_c, 1, 61, 100
3, 118652, Note_off_c, 1, 56, 100
3, 118656, Note_on_c, 1, 60, 110
3, 118656, Note_on_c, 1, 56, 110
3, 118844, Note_off_c, 1, 60, 100
3, 118844, Note_off_c, 1, 56, 100
3, 118848, Note_on_c, 1, 61, 110
3, 118848, Note_on_c, 1, 56, 110
3, 119036, Note_off_c, 1, 61, 100
3, 119036, Note_off_c, 1, 56, 100
3, 119040, Note_on_c, 1, 60, 110
3, 119040, Note_on_c, 1, 56, 110
3, 119228, Note_off_c, 1, 60, 100
3, 119228, Note_off_c, 1, 56, 100
3, 119232, Note_on_c, 1, 61, 110
3, 119232, Note_on_c, 1, 56, 110
3, 119420, Note_off_c, 1, 61, 100
3, 119420, Note_off_c, 1, 56, 100
3, 119424, Note_on_c, 1, 60, 110
3, 119424, Note_on_c, 1, 56, 110
3, 119612, Note_off_c, 1, 60, 100
3, 119612, Note_off_c, 1, 56, 100
3, 119616, Note_on_c, 1, 61, 110
3, 119616, Note_on_c, 1, 56, 110
3, 119804, Note_off_c, 1, 61, 100
3, 119804, Note_off_c, 1, 56, 100
3, 119808, Note_on_c, 1, 56, 110
3, 119808, Note_on_c, 1, 60, 110
3, 120188, Note_off_c, 1, 56, 100
3, 120188, Note_off_c, 1, 60, 100
3, 120192, Note_on_c, 1, 44, 110
3, 120192, Note_on_c, 1, 32, 110
3, 122876, Note_off_c, 1, 32, 100
3, 122876, Note_off_c, 1, 44, 100
3, 122880, Note_on_c, 1, 37, 80
3, 123068, Note_off_c, 1, 37, 100
3, 123072, Note_on_c, 1, 44, 80
3, 123260, Note_off_c, 1, 44, 100
3, 123264, Note_on_c, 1, 37, 80
3, 123452, Note_off_c, 1, 37, 100
3, 123456, Note_on_c, 1, 44, 80
3, 123644, Note_off_c, 1, 44, 100
3, 123648, Note_on_c, 1, 37, 80
3, 123836, Note_off_c, 1, 37, 100
3, 123840, Note_on_c, 1, 44, 80
3, 124028, Note_off_c, 1, 44, 100
3, 124032, Note_on_c, 1, 37, 80
3, 124220, Note_off_c, 1, 37, 100
3, 124224, Note_on_c, 1, 44, 80
3, 124412, Note_off_c, 1, 44, 100
3, 124416, Note_on_c, 1, 37, 80
3, 124604, Note_off_c, 1, 37, 100
3, 124608, Note_on_c, 1, 44, 80
3, 124796, Note_off_c, 1, 44, 100
3, 124800, Note_on_c, 1, 37, 80
3, 124988, Note_off_c, 1, 37, 100
3, 124992, Note_on_c, 1, 44, 80
3, 125180, Note_off_c, 1, 44, 100
3, 125184, Note_on_c, 1, 37, 80
3, 125372, Note_off_c, 1, 37, 100
3, 125376, Note_on_c, 1, 44, 80
3, 125564, Note_off_c, 1, 44, 100
3, 125568, Note_on_c, 1, 49, 110
3, 125568, Note_on_c, 1, 37, 110
3, 125760, Note_on_c, 1, 44, 100
3, 125948, Note_off_c, 1, 49, 100
3, 125948, Note_off_c, 1, 37, 100
3, 125948, Note_off_c, 1, 44, 100
3, 125952, Note_on_c, 1, 34, 80
3, 126140, Note_off_c, 1, 34, 100
3, 126144, Note_on_c, 1, 49, 80
3, 126332, Note_off_c, 1, 49, 100
3, 126336, Note_on_c, 1, 46, 80
3, 126524, Note_off_c, 1, 46, 100
3, 126528, Note_on_c, 1, 49, 80
3, 126716, Note_off_c, 1, 49, 100
3, 126720, Note_on_c, 1, 46, 80
3, 126908, Note_off_c, 1, 46, 100
3, 126912, Note_on_c, 1, 49, 80
3, 127100, Note_off_c, 1, 49, 100
3, 127104, Note_on_c, 1, 46, 80
3, 127292, Note_off_c, 1, 46, 100
3, 127296, Note_on_c, 1, 49, 80
3, 127484, Note_off_c, 1, 49, 100
3, 127488, Note_on_c, 1, 46, 80
3, 127676, Note_off_c, 1, 46, 100
3, 127680, Note_on_c, 1, 49, 80
3, 127868, Note_off_c, 1, 49, 100
3, 127872, Note_on_c, 1, 46, 80
3, 128060, Note_off_c, 1, 46, 100
3, 128064, Note_on_c, 1, 49, 80
3, 128252, Note_off_c, 1, 49, 100
3, 128256, Note_on_c, 1, 46, 80
3, 128444, Note_off_c, 1, 46, 100
3, 128448, Note_on_c, 1, 49, 80
3, 128636, Note_off_c, 1, 49, 100
3, 128640, Note_on_c, 1, 34, 110
3, 128640, Note_on_c, 1, 46, 110
3, 128832, Note_on_c, 1, 49, 100
3, 129020, Note_off_c, 1, 34, 100
3, 129020, Note_off_c, 1, 46, 100
3, 129020, Note_off_c, 1, 49, 100
3, 129024, Note_on_c, 1, 31, 90
3, 129212, Note_off_c, 1, 31, 100
3, 129216, Note_on_c, 1, 51, 91
3, 129404, Note_off_c, 1, 51, 100
3, 129408, Note_on_c, 1, 43, 92
3, 129596, Note_off_c, 1, 43, 100
3, 129600, Note_on_c, 1, 51, 93
3, 129788, Note_off_c, 1, 51, 100
3, 129792, Note_on_c, 1, 43, 95
3, 129980, Note_off_c, 1, 43, 100
3, 129984, Note_on_c, 1, 51, 96
3, 130172, Note_off_c, 1, 51, 100
3, 130176, Note_on_c, 1, 43, 97
3, 130364, Note_off_c, 1, 43, 100
3, 130368, Note_on_c, 1, 51, 99
3, 130556, Note_off_c, 1, 51, 100
3, 130560, Note_on_c, 1, 43, 100
3, 130748, Note_off_c, 1, 43, 100
3, 130752, Note_on_c, 1, 51, 101
3, 130940, Note_off_c, 1, 51, 100
3, 130944, Note_on_c, 1, 43, 102
3, 131132, Note_off_c, 1, 43, 100
3, 131136, Note_on_c, 1, 51, 104
3, 131324, Note_off_c, 1, 51, 100
3, 131328, Control_c, 1, 64, 127
3, 131328, Note_on_c, 1, 43, 105
3, 131516, Note_off_c, 1, 43, 100
3, 131520, Note_on_c, 1, 51, 106
3, 131708, Note_off_c, 1, 51, 100
3, 131712, Note_on_c, 1, 43, 108
3, 131904, Note_on_c, 1, 51, 109
3, 132088, Control_c, 1, 64, 0
3, 132092, Note_off_c, 1, 43, 100
3, 132092, Note_off_c, 1, 51, 100
3, 132096, Control_c, 1, 64, 127
3, 132096, Note_on_c, 1, 44, 80
3, 132192, Note_on_c, 1, 51, 80
3, 132284, Note_off_c, 1, 44, 100
3, 132288, Note_on_c, 1, 47, 80
3, 132380, Note_off_c, 1, 51, 100
3, 132384, Note_on_c, 1, 51, 80
3, 132476, Note_off_c, 1, 47, 100
3, 132480, Note_on_c, 1, 44, 80
3, 132572, Note_off_c, 1, 51, 100
3, 132576, Note_on_c, 1, 51, 80
3, 132668, Note_off_c, 1, 44, 100
3, 132672, Note_on_c, 1, 47, 80
3, 132764, Note_off_c, 1, 51, 100
3, 132768, Note_on_c, 1, 51, 80
3, 132860, Note_off_c, 1, 47, 100
3, 132864, Note_on_c, 1, 44, 80
3, 132956, Note_off_c, 1, 51, 100
3, 132960, Note_on_c, 1, 51, 80
3, 133052, Note_off_c, 1, 44, 100
3, 133056, Note_on_c, 1, 47, 80
3, 133148, Note_off_c, 1, 51, 100
3, 133152, Note_on_c, 1, 51, 80
3, 133244, Note_off_c, 1, 47, 100
3, 133248, Note_on_c, 1, 44, 80
3, 133340, Note_off_c, 1, 51, 100
3, 133344, Note_on_c, 1, 51, 80
3, 133436, Note_off_c, 1, 44, 100
3, 133440, Note_on_c, 1, 47, 80
3, 133532, Note_off_c, 1, 51, 100
3, 133536, Note_on_c, 1, 51, 80
3, 133624, Control_c, 1, 64, 0
3, 133628, Note_off_c, 1, 47, 100
3, 133632, Control_c, 1, 64, 127
3, 133632, Note_on_c, 1, 46, 80
3, 133724, Note_off_c, 1, 51, 100
3, 133728, Note_on_c, 1, 51, 80
3, 133820, Note_off_c, 1, 46, 100
3, 133824, Note_on_c, 1, 49, 80
3, 133916, Note_off_c, 1, 51, 100
3, 133920, Note_on_c, 1, 51, 80
3, 134012, Note_off_c, 1, 49, 100
3, 134016, Note_on_c, 1, 46, 80
3, 134108, Note_off_c, 1, 51, 100
3, 134112, Note_on_c, 1, 51, 80
3, 134204, Note_off_c, 1, 46, 100
3, 134208, Note_on_c, 1, 49, 80
3, 134300, Note_off_c, 1, 51, 100
3, 134304, Note_on_c, 1, 51, 80
3, 134396, Note_off_c, 1, 49, 100
3, 134400, Note_on_c, 1, 46, 80
3, 134492, Note_off_c, 1, 51, 100
3, 134496, Note_on_c, 1, 51, 80
3, 134588, Note_off_c, 1, 46, 100
3, 134592, Note_on_c, 1, 49, 80
3, 134684, Note_off_c, 1, 51, 100
3, 134688, Note_on_c, 1, 51, 80
3, 134780, Note_off_c, 1, 49, 100
3, 134784, Note_on_c, 1, 46, 80
3, 134876, Note_off_c, 1, 51, 100
3, 134880, Note_on_c, 1, 51, 80
3, 134972, Note_off_c, 1, 46, 100
3, 134976, Note_on_c, 1, 49, 80
3, 135068, Note_off_c, 1, 51, 100
3, 135072, Note_on_c, 1, 51, 80
3, 135160, Control_c, 1, 64, 0
3, 135164, Note_off_c, 1, 49, 100
3, 135168, Control_c, 1, 64, 127
3, 135168, Note_on_c, 1, 47, 80
3, 135260, Note_off_c, 1, 51, 100
3, 135264, Note_on_c, 1, 51, 80
3, 135356, Note_off_c, 1, 47, 100
3, 135360, Note_on_c, 1, 47, 80
3, 135452, Note_off_c, 1, 51, 100
3, 135456, Note_on_c, 1, 51, 80
3, 135548, Note_off_c, 1, 47, 100
3, 135552, Note_on_c, 1, 47, 80
3, 135644, Note_off_c, 1, 51, 100
3, 135648, Note_on_c, 1, 51, 80
3, 135740, Note_off_c, 1, 47, 100
3, 135744, Note_on_c, 1, 47, 80
3, 135836, Note_off_c, 1, 51, 100
3, 135840, Note_on_c, 1, 51, 80
3, 135932, Note_off_c, 1, 47, 100
3, 135936, Note_on_c, 1, 47, 80
3, 136028, Note_off_c, 1, 51, 100
3, 136032, Note_on_c, 1, 51, 80
3, 136124, Note_off_c, 1, 47, 100
3, 136128, Note_on_c, 1, 47, 80
3, 136220, Note_off_c, 1, 51, 100
3, 136224, Note_on_c, 1, 51, 80
3, 136316, Note_off_c, 1, 47, 100
3, 136320, Note_on_c, 1, 47, 80
3, 136412, Note_off_c, 1, 51, 100
3, 136416, Note_on_c, 1, 51, 80
3, 136508, Note_off_c, 1, 47, 100
3, 136512, Note_on_c, 1, 47, 80
3, 136604, Note_off_c, 1, 51, 100
3, 136608, Note_on_c, 1, 51, 80
3, 136696, Control_c, 1, 64, 0
3, 136700, Note_off_c, 1, 47, 100
3, 136704, Control_c, 1, 64, 127
3, 136704, Note_on_c, 1, 43, 80
3, 136796, Note_off_c, 1, 51, 100
3, 136800, Note_on_c, 1, 51, 80
3, 136892, Note_off_c, 1, 43, 100
3, 136896, Note_on_c, 1, 43, 80
3, 136988, Note_off_c, 1, 51, 100
3, 136992, Note_on_c, 1, 51, 80
3, 137084, Note_off_c, 1, 43, 100
3, 137088, Note_on_c, 1, 43, 80
3, 137180, Note_off_c, 1, 51, 100
3, 137184, Note_on_c, 1, 51, 80
3, 137276, Note_off_c, 1, 43, 100
3, 137280, Note_on_c, 1, 43, 80
3, 137372, Note_off_c, 1, 51, 100
3, 137376, Note_on_c, 1, 51, 80
3, 137468, Note_off_c, 1, 43, 100
3, 137472, Note_on_c, 1, 43, 80
3, 137564, Note_off_c, 1, 51, 100
3, 137568, Note_on_c, 1, 51, 80
3, 137660, Note_off_c, 1, 43, 100
3, 137664, Note_on_c, 1, 43, 80
3, 137756, Note_off_c, 1, 51, 100
3, 137760, Note_on_c, 1, 51, 80
3, 137852, Note_off_c, 1, 43, 100
3, 137856, Note_on_c, 1, 43, 80
3, 137948, Note_off_c, 1, 51, 100
3, 137952, Note_on_c, 1, 51, 80
3, 138044, Note_off_c, 1, 43, 100
3, 138048, Note_on_c, 1, 43, 80
3, 138140, Note_off_c, 1, 51, 100
3, 138144, Note_on_c, 1, 51, 80
3, 138232, Control_c, 1, 64, 0
3, 138236, Note_off_c, 1, 43, 100
3, 138240, Note_on_c, 1, 44, 80
3, 138332, Note_off_c, 1, 51, 100
3, 138336, Note_on_c, 1, 51, 80
3, 138428, Note_off_c, 1, 44, 100
3, 138432, Note_on_c, 1, 47, 80
3, 138524, Note_off_c, 1, 51, 100
3, 138528, Note_on_c, 1, 51, 81
3, 138620, Note_off_c, 1, 47, 100
3, 138624, Note_on_c, 1, 44, 81
3, 138716, Note_off_c, 1, 51, 100
3, 138720, Note_on_c, 1, 51, 82
3, 138812, Note_off_c, 1, 44, 100
3, 138816, Note_on_c, 1, 47, 82
3, 138908, Note_off_c, 1, 51, 100
3, 138912, Note_on_c, 1, 51, 82
3, 139004, Note_off_c, 1, 47, 100
3, 139008, Note_on_c, 1, 44, 83
3, 139100, Note_off_c, 1, 51, 100
3, 139104, Note_on_c, 1, 51, 83
3, 139196, Note_off_c, 1, 44, 100
3, 139200, Note_on_c, 1, 47, 84
3, 139292, Note_off_c, 1, 51, 100
3, 139296, Note_on_c, 1, 51, 84
3, 139388, Note_off_c, 1, 47, 100
3, 139392, Note_on_c, 1, 44, 84
3, 139484, Note_off_c, 1, 51, 100
3, 139488, Note_on_c, 1, 51, 85
3, 139580, Note_off_c, 1, 44, 100
3, 139584, Note_on_c, 1, 47, 85
3, 139676, Note_off_c, 1, 51, 100
3, 139680, Note_on_c, 1, 51, 86
3, 139772, Note_off_c, 1, 47, 100
3, 139776, Note_on_c, 1, 46, 86
3, 139868, Note_off_c, 1, 51, 100
3, 139872, Note_on_c, 1, 51, 86
3, 139964, Note_off_c, 1, 46, 100
3, 139968, Note_on_c, 1, 49, 87
3, 140060, Note_off_c, 1, 51, 100
3, 140064, Note_on_c, 1, 51, 87
3, 140156, Note_off_c, 1, 49, 100
3, 140160, Note_on_c, 1, 46, 88
3, 140252, Note_off_c, 1, 51, 100
3, 140256, Note_on_c, 1, 51, 88
3, 140348, Note_off_c, 1, 46, 100
3, 140352, Note_on_c, 1, 49, 88
3, 140444, Note_off_c, 1, 51, 100
3, 140448, Note_on_c, 1, 51, 89
3, 140540, Note_off_c, 1, 49, 100
3, 140544, Note_on_c, 1, 46, 89
3, 140636, Note_off_c, 1, 51, 100
3, 140640, Note_on_c, 1, 51, 90
3, 140732, Note_off_c, 1, 46, 100
3, 140736, Note_on_c, 1, 49, 90
3, 140828, Note_off_c, 1, 51, 100
3, 140832, Note_on_c, 1, 51, 90
3, 140924, Note_off_c, 1, 49, 100
3, 140928, Note_on_c, 1, 46, 91
3, 141020, Note_off_c, 1, 51, 100
3, 141024, Note_on_c, 1, 51, 91
3, 141116, Note_off_c, 1, 46, 100
3, 141120, Note_on_c, 1, 49, 92
3, 141212, Note_off_c, 1, 51, 100
3, 141216, Note_on_c, 1, 51, 92
3, 141308, Note_off_c, 1, 49, 100
3, 141312, Note_on_c, 1, 47, 92
3, 141404, Note_off_c, 1, 51, 100
3, 141408, Note_on_c, 1, 51, 93
3, 141500, Note_off_c, 1, 47, 100
3, 141504, Note_on_c, 1, 47, 93
3, 141596, Note_off_c, 1, 51, 100
3, 141600, Note_on_c, 1, 51, 94
3, 141692, Note_off_c, 1, 47, 100
3, 141696, Note_on_c, 1, 47, 94
3, 141788, Note_off_c, 1, 51, 100
3, 141792, Note_on_c, 1, 51, 94
3, 141884, Note_off_c, 1, 47, 100
3, 141888, Note_on_c, 1, 47, 95
3, 141980, Note_off_c, 1, 51, 100
3, 141984, Note_on_c, 1, 51, 95
3, 142076, Note_off_c, 1, 47, 100
3, 142080, Note_on_c, 1, 47, 96
3, 142172, Note_off_c, 1, 51, 100
3, 142176, Note_on_c, 1, 51, 96
3, 142268, Note_off_c, 1, 47, 100
3, 142272, Note_on_c, 1, 47, 96
3, 142364, Note_off_c, 1, 51, 100
3, 142368, Note_on_c, 1, 51, 97
3, 142460, Note_off_c, 1, 47, 100
3, 142464, Note_on_c, 1, 47, 97
3, 142556, Note_off_c, 1, 51, 100
3, 142560, Note_on_c, 1, 51, 98
3, 142652, Note_off_c, 1, 47, 100
3, 142656, Note_on_c, 1, 47, 98
3, 142748, Note_off_c, 1, 51, 100
3, 142752, Note_on_c, 1, 51, 98
3, 142844, Note_off_c, 1, 47, 100
3, 142848, Note_on_c, 1, 43, 99
3, 142940, Note_off_c, 1, 51, 100
3, 142944, Note_on_c, 1, 51, 99
3, 143036, Note_off_c, 1, 43, 100
3, 143040, Note_on_c, 1, 43, 100
3, 143132, Note_off_c, 1, 51, 100
3, 143136, Note_on_c, 1, 51, 100
3, 143228, Note_off_c, 1, 43, 100
3, 143232, Note_on_c, 1, 43, 100
3, 143324, Note_off_c, 1, 51, 100
3, 143328, Note_on_c, 1, 51, 101
3, 143420, Note_off_c, 1, 43, 100
3, 143424, Note_on_c, 1, 43, 101
3, 143516, Note_off_c, 1, 51, 100
3, 143520, Note_on_c, 1, 51, 102
3, 143612, Note_off_c, 1, 43, 100
3, 143616, Note_on_c, 1, 43, 102
3, 143708, Note_off_c, 1, 51, 100
3, 143712, Note_on_c, 1, 51, 102
3, 143804, Note_off_c, 1, 43, 100
3, 143808, Note_on_c, 1, 43, 103
3, 143900, Note_off_c, 1, 51, 100
3, 143904, Note_on_c, 1, 51, 103
3, 143996, Note_off_c, 1, 43, 100
3, 144000, Note_on_c, 1, 43, 104
3, 144092, Note_off_c, 1, 51, 100
3, 144096, Note_on_c, 1, 51, 104
3, 144188, Note_off_c, 1, 43, 100
3, 144192, Note_on_c, 1, 43, 104
3, 144284, Note_off_c, 1, 51, 100
3, 144288, Note_on_c, 1, 51, 80
3, 144380, Note_off_c, 1, 43, 100
3, 144384, Note_on_c, 1, 42, 100
3, 144476, Note_off_c, 1, 51, 100
3, 144480, Note_on_c, 1, 51, 100
3, 144572, Note_off_c, 1, 42, 100
3, 144576, Note_on_c, 1, 44, 100
3, 144668, Note_off_c, 1, 51, 100
3, 144672, Note_on_c, 1, 51, 100
3, 144764, Note_off_c, 1, 44, 100
3, 144768, Note_on_c, 1, 42, 100
3, 144860, Note_off_c, 1, 51, 100
3, 144864, Note_on_c, 1, 51, 100
3, 144956, Note_off_c, 1, 42, 100
3, 144960, Note_on_c, 1, 44, 100
3, 145052, Note_off_c, 1, 51, 100
3, 145056, Note_on_c, 1, 51, 100
3, 145148, Note_off_c, 1, 44, 100
3, 145152, Note_on_c, 1, 40, 100
3, 145244, Note_off_c, 1, 51, 100
3, 145248, Note_on_c, 1, 49, 100
3, 145340, Note_off_c, 1, 40, 100
3, 145344, Note_on_c, 1, 44, 100
3, 145436, Note_off_c, 1, 49, 100
3, 145440, Note_on_c, 1, 49, 100
3, 145532, Note_off_c, 1, 44, 100
3, 145536, Note_on_c, 1, 40, 100
3, 145628, Note_off_c, 1, 49, 100
3, 145632, Note_on_c, 1, 49, 100
3, 145724, Note_off_c, 1, 40, 100
3, 145728, Note_on_c, 1, 44, 100
3, 145820, Note_off_c, 1, 49, 100
3, 145824, Note_on_c, 1, 49, 100
3, 145916, Note_off_c, 1, 44, 100
3, 145920, Note_on_c, 1, 40, 100
3, 146012, Note_off_c, 1, 49, 100
3, 146016, Note_on_c, 1, 49, 100
3, 146108, Note_off_c, 1, 40, 100
3, 146112, Note_on_c, 1, 42, 100
3, 146204, Note_off_c, 1, 49, 100
3, 146208, Note_on_c, 1, 49, 100
3, 146300, Note_off_c, 1, 42, 100
3, 146304, Note_on_c, 1, 39, 100
3, 146396, Note_off_c, 1, 49, 100
3, 146400, Note_on_c, 1, 47, 100
3, 146492, Note_off_c, 1, 39, 100
3, 146496, Note_on_c, 1, 42, 100
3, 146588, Note_off_c, 1, 47, 100
3, 146592, Note_on_c, 1, 47, 100
3, 146684, Note_off_c, 1, 42, 100
3, 146688, Note_on_c, 1, 39, 100
3, 146780, Note_off_c, 1, 47, 100
3, 146784, Note_on_c, 1, 47, 100
3, 146876, Note_off_c, 1, 39, 100
3, 146880, Note_on_c, 1, 42, 100
3, 146972, Note_off_c, 1, 47, 100
3, 146976, Note_on_c, 1, 47, 100
3, 147068, Note_off_c, 1, 42, 100
3, 147072, Note_on_c, 1, 39, 100
3, 147164, Note_off_c, 1, 47, 100
3, 147168, Note_on_c, 1, 47, 100
3, 147260, Note_off_c, 1, 39, 100
3, 147264, Note_on_c, 1, 42, 100
3, 147356, Note_off_c, 1, 47, 100
3, 147360, Note_on_c, 1, 47, 100
3, 147452, Note_off_c, 1, 42, 100
3, 147456, Note_on_c, 1, 38, 100
3, 147548, Note_off_c, 1, 47, 100
3, 147552, Note_on_c, 1, 47, 100
3, 147644, Note_off_c, 1, 38, 100
3, 147648, Note_on_c, 1, 40, 100
3, 147740, Note_off_c, 1, 47, 100
3, 147744, Note_on_c, 1, 47, 100
3, 147836, Note_off_c, 1, 40, 100
3, 147840, Note_on_c, 1, 38, 100
3, 147932, Note_off_c, 1, 47, 100
3, 147936, Note_on_c, 1, 47, 100
3, 148028, Note_off_c, 1, 38, 100
3, 148032, Note_on_c, 1, 40, 100
3, 148124, Note_off_c, 1, 47, 100
3, 148128, Note_on_c, 1, 47, 100
3, 148220, Note_off_c, 1, 40, 100
3, 148224, Note_on_c, 1, 37, 100
3, 148316, Note_off_c, 1, 47, 100
3, 148320, Note_on_c, 1, 45, 100
3, 148412, Note_off_c, 1, 37, 100
3, 148416, Note_on_c, 1, 40, 100
3, 148508, Note_off_c, 1, 45, 100
3, 148512, Note_on_c, 1, 45, 100
3, 148604, Note_off_c, 1, 40, 100
3, 148608, Note_on_c, 1, 37, 100
3, 148700, Note_off_c, 1, 45, 100
3, 148704, Note_on_c, 1, 45, 100
3, 148796, Note_off_c, 1, 37, 100
3, 148800, Note_on_c, 1, 40, 100
3, 148892, Note_off_c, 1, 45, 100
3, 148896, Note_on_c, 1, 45, 100
3, 148988, Note_off_c, 1, 40, 100
3, 148992, Note_on_c, 1, 37, 100
3, 149084, Note_off_c, 1, 45, 100
3, 149088, Note_on_c, 1, 46, 100
3, 149180, Note_off_c, 1, 37, 100
3, 149184, Note_on_c, 1, 39, 100
3, 149276, Note_off_c, 1, 46, 100
3, 149280, Note_on_c, 1, 46, 100
3, 149372, Note_off_c, 1, 39, 100
3, 149376, Note_on_c, 1, 35, 100
3, 149468, Note_off_c, 1, 46, 100
3, 149472, Note_on_c, 1, 44, 100
3, 149564, Note_off_c, 1, 35, 100
3, 149568, Note_on_c, 1, 39, 100
3, 149660, Note_off_c, 1, 44, 100
3, 149664, Note_on_c, 1, 44, 100
3, 149756, Note_off_c, 1, 39, 100
3, 149760, Note_on_c, 1, 35, 100
3, 149852, Note_off_c, 1, 44, 100
3, 149856, Note_on_c, 1, 44, 100
3, 149948, Note_off_c, 1, 35, 100
3, 149952, Note_on_c, 1, 39, 100
3, 150044, Note_off_c, 1, 44, 100
3, 150048, Note_on_c, 1, 44, 100
3, 150140, Note_off_c, 1, 39, 100
3, 150144, Note_on_c, 1, 35, 100
3, 150236, Note_off_c, 1, 44, 100
3, 150240, Note_on_c, 1, 44, 100
3, 150332, Note_off_c, 1, 35, 100
3, 150336, Note_on_c, 1, 39, 100
3, 150428, Note_off_c, 1, 44, 100
3, 150432, Note_on_c, 1, 44, 100
3, 150524, Note_off_c, 1, 39, 100
3, 150524, Note_off_c, 1, 44, 100
3, 150528, Note_on_c, 1, 37, 120
3, 150528, Note_on_c, 1, 40, 120
3, 150528, Note_on_c, 1, 45, 120
3, 150528, Note_on_c, 1, 49, 120
3, 151676, Note_off_c, 1, 37, 100
3, 151676, Note_off_c, 1, 40, 100
3, 151676, Note_off_c, 1, 45, 100
3, 151676, Note_off_c, 1, 49, 100
3, 152064, Note_on_c, 1, 61, 80
3, 152064, Note_on_c, 1, 64, 80
3, 152064, Note_on_c, 1, 69, 80
3, 152444, Note_off_c, 1, 61, 100
3, 152444, Note_off_c, 1, 64, 100
3, 152444, Note_off_c, 1, 69, 100
3, 152832, Note_on_c, 1, 61, 80
3, 152832, Note_on_c, 1, 64, 80
3, 152832, Note_on_c, 1, 69, 80
3, 153212, Note_off_c, 1, 61, 100
3, 153212, Note_off_c, 1, 64, 100
3, 153212, Note_off_c, 1, 69, 100
3, 153600, Note_on_c, 1, 61, 80
3, 153600, Note_on_c, 1, 64, 80
3, 153600, Note_on_c, 1, 69, 80
3, 153980, Note_off_c, 1, 61, 100
3, 153980, Note_off_c, 1, 64, 100
3, 153980, Note_off_c, 1, 69, 100
3, 153984, Note_on_c, 1, 61, 84
3, 153984, Note_on_c, 1, 64, 84
3, 153984, Note_on_c, 1, 69, 84
3, 154364, Note_off_c, 1, 61, 100
3, 154364, Note_off_c, 1, 64, 100
3, 154364, Note_off_c, 1, 69, 100
3, 154368, Note_on_c, 1, 61, 89
3, 154368, Note_on_c, 1, 64, 89
3, 154368, Note_on_c, 1, 69, 89
3, 154748, Note_off_c, 1, 61, 100
3, 154748, Note_off_c, 1, 64, 100
3, 154748, Note_off_c, 1, 69, 100
3, 154752, Note_on_c, 1, 61, 94
3, 154752, Note_on_c, 1, 64, 94
3, 154752, Note_on_c, 1, 69, 94
3, 155132, Note_off_c, 1, 61, 100
3, 155132, Note_off_c, 1, 64, 100
3, 155132, Note_off_c, 1, 69, 100
3, 155136, Note_on_c, 1, 63, 80
3, 155232, Note_on_c, 1, 71, 80
3, 155324, Note_off_c, 1, 63, 100
3, 155328, Note_on_c, 1, 68, 80
3, 155420, Note_off_c, 1, 71, 100
3, 155424, Note_on_c, 1, 71, 80
3, 155516, Note_off_c, 1, 68, 100
3, 155520, Note_on_c, 1, 63, 80
3, 155612, Note_off_c, 1, 71, 100
3, 155616, Note_on_c, 1, 71, 80
3, 155708, Note_off_c, 1, 63, 100
3, 155712, Note_on_c, 1, 68, 80
3, 155804, Note_off_c, 1, 71, 100
3, 155808, Note_on_c, 1, 71, 80
3, 155900, Note_off_c, 1, 68, 100
3, 155904, Note_on_c, 1, 63, 80
3, 155996, Note_off_c, 1, 71, 100
3, 156000, Note_on_c, 1, 73, 80
3, 156092, Note_off_c, 1, 63, 100
3, 156096, Note_on_c, 1, 67, 80
3, 156188, Note_off_c, 1, 73, 100
3, 156192, Note_on_c, 1, 73, 80
3, 156284, Note_off_c, 1, 67, 100
3, 156288, Note_on_c, 1, 63, 80
3, 156380, Note_off_c, 1, 73, 100
3, 156384, Note_on_c, 1, 73, 80
3, 156476, Note_off_c, 1, 63, 100
3, 156480, Note_on_c, 1, 67, 80
3, 156572, Note_off_c, 1, 73, 100
3, 156576, Note_on_c, 1, 73, 80
3, 156668, Note_off_c, 1, 67, 100
3, 156668, Note_off_c, 1, 73, 100
3, 156672, Note_on_c, 1, 71, 80
3, 156672, Note_on_c, 1, 68, 80
3, 156672, Note_on_c, 1, 64, 80
3, 157052, Note_off_c, 1, 71, 100
3, 157052, Note_off_c, 1, 68, 100
3, 157052, Note_off_c, 1, 64, 100
3, 157056, Note_on_c, 1, 37, 120
3, 157056, Note_on_c, 1, 40, 120
3, 157056, Note_on_c, 1, 45, 120
3, 157056, Note_on_c, 1, 49, 120
3, 157820, Note_off_c, 1, 37, 100
3, 157820, Note_off_c, 1, 40, 100
3, 157820, Note_off_c, 1, 45, 100
3, 157820, Note_off_c, 1, 49, 100
3, 158592, Note_on_c, 1, 49, 80
3, 158592, Note_on_c, 1, 52, 80
3, 158592, Note_on_c, 1, 57, 80
3, 158972, Note_off_c, 1, 49, 100
3, 158972, Note_off_c, 1, 52, 100
3, 158972, Note_off_c, 1, 57, 100
3, 159360, Note_on_c, 1, 49, 80
3, 159360, Note_on_c, 1, 52, 80
3, 159360, Note_on_c, 1, 57, 80
3, 159740, Note_off_c, 1, 49, 100
3, 159740, Note_off_c, 1, 52, 100
3, 159740, Note_off_c, 1, 57, 100
3, 159936, Note_on_c, 1, 49, 81
3, 159936, Note_on_c, 1, 52, 81
3, 159936, Note_on_c, 1, 57, 81
3, 160220, Note_off_c, 1, 49, 100
3, 160220, Note_off_c, 1, 52, 100
3, 160220, Note_off_c, 1, 57, 100
3, 160320, Note_on_c, 1, 49, 85
3, 160320, Note_on_c, 1, 52, 85
3, 160320, Note_on_c, 1, 57, 85
3, 160604, Note_off_c, 1, 49, 100
3, 160604, Note_off_c, 1, 52, 100
3, 160604, Note_off_c, 1, 57, 100
3, 160704, Note_on_c, 1, 49, 89
3, 160704, Note_on_c, 1, 52, 89
3, 160704, Note_on_c, 1, 57, 89
3, 160988, Note_off_c, 1, 49, 100
3, 160988, Note_off_c, 1, 52, 100
3, 160988, Note_off_c, 1, 57, 100
3, 161088, Note_on_c, 1, 49, 93
3, 161088, Note_on_c, 1, 52, 93
3, 161088, Note_on_c, 1, 57, 93
3, 161276, Note_off_c, 1, 49, 100
3, 161276, Note_off_c, 1, 52, 100
3, 161276, Note_off_c, 1, 57, 100
3, 161280, Note_on_c, 1, 49, 94
3, 161280, Note_on_c, 1, 52, 94
3, 161280, Note_on_c, 1, 57, 94
3, 161852, Note_off_c, 1, 49, 100
3, 161852, Note_off_c, 1, 52, 100
3, 161852, Note_off_c, 1, 57, 100
3, 162816, Note_on_c, 1, 49, 110
3, 162912, Note_on_c, 1, 57, 110
3, 163004, Note_off_c, 1, 49, 100
3, 163008, Note_on_c, 1, 52, 110
3, 163100, Note_off_c, 1, 57, 100
3, 163104, Note_on_c, 1, 57, 110
3, 163196, Note_off_c, 1, 52, 100
3, 163200, Note_on_c, 1, 49, 110
3, 163292, Note_off_c, 1, 57, 100
3, 163296, Note_on_c, 1, 57, 110
3, 163388, Note_off_c, 1, 49, 100
3, 163392, Note_on_c, 1, 52, 110
3, 163484, Note_off_c, 1, 57, 100
3, 163488, Note_on_c, 1, 57, 110
3, 163580, Note_off_c, 1, 52, 100
3, 163584, Note_on_c, 1, 50, 110
3, 163676, Note_off_c, 1, 57, 100
3, 163680, Note_on_c, 1, 59, 110
3, 163772, Note_off_c, 1, 50, 100
3, 163776, Note_on_c, 1, 53, 110
3, 163868, Note_off_c, 1, 59, 100
3, 163872, Note_on_c, 1, 59, 110
3, 163964, Note_off_c, 1, 53, 100
3, 163968, Note_on_c, 1, 50, 110
3, 164060, Note_off_c, 1, 59, 100
3, 164064, Note_on_c, 1, 59, 110
3, 164156, Note_off_c, 1, 50, 100
3, 164160, Note_on_c, 1, 53, 110
3, 164252, Note_off_c, 1, 59, 100
3, 164256, Note_on_c, 1, 59, 110
3, 164348, Note_off_c, 1, 53, 100
3, 164352, Note_on_c, 1, 51, 110
3, 164444, Note_off_c, 1, 59, 100
3, 164448, Note_on_c, 1, 59, 110
3, 164540, Note_off_c, 1, 51, 100
3, 164544, Note_on_c, 1, 56, 110
3, 164636, Note_off_c, 1, 59, 100
3, 164640, Note_on_c, 1, 59, 110
3, 164732, Note_off_c, 1, 56, 100
3, 164736, Note_on_c, 1, 51, 110
3, 164828, Note_off_c, 1, 59, 100
3, 164832, Note_on_c, 1, 59, 110
3, 164924, Note_off_c, 1, 51, 100
3, 164928, Note_on_c, 1, 56, 110
3, 165020, Note_off_c, 1, 59, 100
3, 165024, Note_on_c, 1, 59, 110
3, 165116, Note_off_c, 1, 56, 100
3, 165120, Note_on_c, 1, 39, 110
3, 165212, Note_off_c, 1, 59, 100
3, 165216, Note_on_c, 1, 51, 110
3, 165308, Note_off_c, 1, 39, 100
3, 165312, Note_on_c, 1, 50, 110
3, 165404, Note_off_c, 1, 51, 100
3, 165408, Note_on_c, 1, 51, 110
3, 165500, Note_off_c, 1, 50, 100
3, 165504, Note_on_c, 1, 50, 110
3, 165596, Note_off_c, 1, 51, 100
3, 165600, Note_on_c, 1, 51, 110
3, 165692, Note_off_c, 1, 50, 100
3, 165696, Note_on_c, 1, 50, 110
3, 165788, Note_off_c, 1, 51, 100
3, 165792, Note_on_c, 1, 51, 110
3, 165884, Note_off_c, 1, 50, 100
3, 165888, Note_on_c, 1, 44, 110
3, 165980, Note_off_c, 1, 51, 100
3, 166080, Note_on_c, 1, 56, 80
3, 166268, Note_off_c, 1, 44, 100
3, 166268, Note_off_c, 1, 56, 100
3, 166272, Note_on_c, 1, 56, 80
3, 166460, Note_off_c, 1, 56, 100
3, 166464, Note_on_c, 1, 56, 80
3, 166652, Note_off_c, 1, 56, 100
3, 166656, Note_on_c, 1, 56, 80
3, 166844, Note_off_c, 1, 56, 100
3, 166848, Note_on_c, 1, 56, 80
3, 167036, Note_off_c, 1, 56, 100
3, 167040, Note_on_c, 1, 58, 80
3, 167228, Note_off_c, 1, 58, 100
3, 167232, Note_on_c, 1, 59, 80
3, 167420, Note_off_c, 1, 59, 100
3, 167424, Note_on_c, 1, 51, 80
3, 167424, Note_on_c, 1, 61, 80
3, 167612, Note_off_c, 1, 51, 100
3, 167612, Note_off_c, 1, 61, 100
3, 167616, Note_on_c, 1, 63, 80
3, 167616, Note_on_c, 1, 61, 80
3, 167804, Note_off_c, 1, 63, 100
3, 167804, Note_off_c, 1, 61, 100
3, 167808, Note_on_c, 1, 63, 80
3, 167808, Note_on_c, 1, 61, 80
3, 167996, Note_off_c, 1, 63, 100
3, 167996, Note_off_c, 1, 61, 100
3, 168000, Note_on_c, 1, 63, 80
3, 168000, Note_on_c, 1, 61, 80
3, 168188, Note_off_c, 1, 63, 100
3, 168188, Note_off_c, 1, 61, 100
3, 168192, Note_on_c, 1, 63, 80
3, 168192, Note_on_c, 1, 61, 80
3, 168380, Note_off_c, 1, 63, 100
3, 168380, Note_off_c, 1, 61, 100
3, 168384, Note_on_c, 1, 63, 80
3, 168384, Note_on_c, 1, 61, 80
3, 168572, Note_off_c, 1, 63, 100
3, 168572, Note_off_c, 1, 61, 100
3, 168576, Note_on_c, 1, 63, 80
3, 168576, Note_on_c, 1, 59, 80
3, 168576, Note_on_c, 1, 61, 80
3, 168764, Note_off_c, 1, 63, 100
3, 168764, Note_off_c, 1, 59, 100
3, 168764, Note_off_c, 1, 61, 100
3, 168768, Note_on_c, 1, 63, 80
3, 168768, Note_on_c, 1, 58, 80
3, 168956, Note_off_c, 1, 63, 100
3, 168956, Note_off_c, 1, 58, 100
3, 168960, Note_on_c, 1, 44, 80
3, 168960, Note_on_c, 1, 56, 80
3, 169148, Note_off_c, 1, 44, 100
3, 169148, Note_off_c, 1, 56, 100
3, 169152, Note_on_c, 1, 56, 80
3, 169340, Note_off_c, 1, 56, 100
3, 169344, Note_on_c, 1, 56, 80
3, 169532, Note_off_c, 1, 56, 100
3, 169536, Note_on_c, 1, 56, 80
3, 169724, Note_off_c, 1, 56, 100
3, 169728, Note_on_c, 1, 56, 80
3, 169916, Note_off_c, 1, 56, 100
3, 169920, Note_on_c, 1, 56, 80
3, 170108, Note_off_c, 1, 56, 100
3, 170112, Note_on_c, 1, 58, 80
3, 170300, Note_off_c, 1, 58, 100
3, 170304, Note_on_c, 1, 59, 80
3, 170492, Note_off_c, 1, 59, 100
3, 170496, Note_on_c, 1, 51, 80
3, 170496, Note_on_c, 1, 61, 80
3, 170684, Note_off_c, 1, 51, 100
3, 170684, Note_off_c, 1, 61, 100
3, 170688, Note_on_c, 1, 63, 80
3, 170688, Note_on_c, 1, 61, 80
3, 170876, Note_off_c, 1, 63, 100
3, 170876, Note_off_c, 1, 61, 100
3, 170880, Note_on_c, 1, 63, 80
3, 170880, Note_on_c, 1, 61, 80
3, 171068, Note_off_c, 1, 63, 100
3, 171068, Note_off_c, 1, 61, 100
3, 171072, Note_on_c, 1, 63, 80
3, 171072, Note_on_c, 1, 61, 80
3, 171260, Note_off_c, 1, 63, 100
3, 171260, Note_off_c, 1, 61, 100
3, 171264, Note_on_c, 1, 63, 80
3, 171264, Note_on_c, 1, 61, 80
3, 171452, Note_off_c, 1, 63, 100
3, 171452, Note_off_c, 1, 61, 100
3, 171456, Note_on_c, 1, 63, 80
3, 171456, Note_on_c, 1, 61, 80
3, 171644, Note_off_c, 1, 63, 100
3, 171644, Note_off_c, 1, 61, 100
3, 171648, Note_on_c, 1, 63, 80
3, 171648, Note_on_c, 1, 59, 80
3, 171648, Note_on_c, 1, 61, 80
3, 171836, Note_off_c, 1, 63, 100
3, 171836, Note_off_c, 1, 59, 100
3, 171836, Note_off_c, 1, 61, 100
3, 171840, Note_on_c, 1, 63, 80
3, 171840, Note_on_c, 1, 58, 80
3, 172028, Note_off_c, 1, 63, 100
3, 172028, Note_off_c, 1, 58, 100
3, 172032, Note_on_c, 1, 44, 80
3, 172220, Note_off_c, 1, 44, 100
3, 172224, Note_on_c, 1, 59, 80
3, 172224, Note_on_c, 1, 56, 80
3, 172412, Note_off_c, 1, 59, 100
3, 172412, Note_off_c, 1, 56, 100
3, 172416, Note_on_c, 1, 56, 80
3, 172416, Note_on_c, 1, 59, 80
3, 172604, Note_off_c, 1, 56, 100
3, 172604, Note_off_c, 1, 59, 100
3, 172608, Note_on_c, 1, 63, 80
3, 172608, Note_on_c, 1, 59, 80
3, 172796, Note_off_c, 1, 63, 100
3, 172796, Note_off_c, 1, 59, 100
3, 172800, Note_on_c, 1, 49, 80
3, 172988, Note_off_c, 1, 49, 100
3, 172992, Note_on_c, 1, 61, 80
3, 172992, Note_on_c, 1, 56, 80
3, 173180, Note_off_c, 1, 61, 100
3, 173180, Note_off_c, 1, 56, 100
3, 173184, Note_on_c, 1, 61, 80
3, 173184, Note_on_c, 1, 56, 80
3, 173372, Note_off_c, 1, 61, 100
3, 173372, Note_off_c, 1, 56, 100
3, 173376, Note_on_c, 1, 64, 80
3, 173376, Note_on_c, 1, 61, 80
3, 173564, Note_off_c, 1, 64, 100
3, 173564, Note_off_c, 1, 61, 100
3, 173568, Note_on_c, 1, 51, 80
3, 173756, Note_off_c, 1, 51, 100
3, 173760, Note_on_c, 1, 59, 80
3, 173760, Note_on_c, 1, 56, 80
3, 173948, Note_off_c, 1, 59, 100
3, 173948, Note_off_c, 1, 56, 100
3, 173952, Note_on_c, 1, 59, 80
3, 173952, Note_on_c, 1, 56, 80
3, 174140, Note_off_c, 1, 59, 100
3, 174140, Note_off_c, 1, 56, 100
3, 174144, Note_on_c, 1, 63, 80
3, 174144, Note_on_c, 1, 59, 80
3, 174332, Note_off_c, 1, 63, 100
3, 174332, Note_off_c, 1, 59, 100
3, 174336, Note_on_c, 1, 51, 80
3, 174524, Note_off_c, 1, 51, 100
3, 174528, Note_on_c, 1, 58, 80
3, 174528, Note_on_c, 1, 55, 80
3, 174716, Note_off_c, 1, 58, 100
3, 174716, Note_off_c, 1, 55, 100
3, 174720, Note_on_c, 1, 58, 80
3, 174720, Note_on_c, 1, 55, 80
3, 174908, Note_off_c, 1, 58, 100
3, 174908, Note_off_c, 1, 55, 100
3, 174912, Note_on_c, 1, 63, 80
3, 174912, Note_on_c, 1, 58, 80
3, 175100, Note_off_c, 1, 63, 100
3, 175100, Note_off_c, 1, 58, 100
3, 175104, Note_on_c, 1, 32, 80
3, 175104, Note_on_c, 1, 44, 80
3, 175292, Note_off_c, 1, 32, 100
3, 175292, Note_off_c, 1, 44, 100
3, 175296, Note_on_c, 1, 51, 80
3, 175296, Note_on_c, 1, 44, 80
3, 175484, Note_off_c, 1, 51, 100
3, 175484, Note_off_c, 1, 44, 100
3, 175488, Note_on_c, 1, 51, 82
3, 175488, Note_on_c, 1, 44, 82
3, 175676, Note_off_c, 1, 51, 100
3, 175676, Note_off_c, 1, 44, 100
3, 175680, Note_on_c, 1, 51, 85
3, 175680, Note_on_c, 1, 44, 85
3, 175868, Note_off_c, 1, 51, 100
3, 175868, Note_off_c, 1, 44, 100
3, 175872, Note_on_c, 1, 51, 88
3, 175872, Note_on_c, 1, 44, 88
3, 176060, Note_off_c, 1, 51, 100
3, 176060, Note_off_c, 1, 44, 100
3, 176064, Note_on_c, 1, 51, 91
3, 176064, Note_on_c, 1, 44, 91
3, 176252, Note_off_c, 1, 51, 100
3, 176252, Note_off_c, 1, 44, 100
3, 176256, Note_on_c, 1, 51, 94
3, 176256, Note_on_c, 1, 46, 94
3, 176444, Note_off_c, 1, 51, 100
3, 176444, Note_off_c, 1, 46, 100
3, 176448, Note_on_c, 1, 51, 97
3, 176448, Note_on_c, 1, 47, 97
3, 176636, Note_off_c, 1, 51, 100
3, 176636, Note_off_c, 1, 47, 100
3, 176640, Note_on_c, 1, 39, 99
3, 176640, Note_on_c, 1, 49, 99
3, 176640, Note_on_c, 1, 51, 99
3, 176828, Note_off_c, 1, 39, 100
3, 176828, Note_off_c, 1, 49, 100
3, 176828, Note_off_c, 1, 51, 100
3, 176832, Note_on_c, 1, 61, 110
3, 176832, Note_on_c, 1, 51, 110
3, 177020, Note_off_c, 1, 61, 100
3, 177020, Note_off_c, 1, 51, 100
3, 177024, Note_on_c, 1, 61, 110
3, 177024, Note_on_c, 1, 51, 110
3, 177212, Note_off_c, 1, 61, 100
3, 177212, Note_off_c, 1, 51, 100
3, 177216, Note_on_c, 1, 61, 110
3, 177216, Note_on_c, 1, 51, 110
3, 177404, Note_off_c, 1, 61, 100
3, 177404, Note_off_c, 1, 51, 100
3, 177408, Note_on_c, 1, 61, 110
3, 177408, Note_on_c, 1, 51, 110
3, 177596, Note_off_c, 1, 61, 100
3, 177596, Note_off_c, 1, 51, 100
3, 177600, Note_on_c, 1, 61, 110
3, 177600, Note_on_c, 1, 51, 110
3, 177788, Note_off_c, 1, 61, 100
3, 177788, Note_off_c, 1, 51, 100
3, 177792, Note_on_c, 1, 59, 110
3, 177792, Note_on_c, 1, 51, 110
3, 177980, Note_off_c, 1, 59, 100
3, 177980, Note_off_c, 1, 51, 100
3, 177984, Note_on_c, 1, 58, 110
3, 177984, Note_on_c, 1, 51, 110
3, 178172, Note_off_c, 1, 58, 100
3, 178172, Note_off_c, 1, 51, 100
3, 178176, Note_on_c, 1, 32, 110
3, 178176, Note_on_c, 1, 44, 110
3, 178364, Note_off_c, 1, 32, 100
3, 178364, Note_off_c, 1, 44, 100
3, 178368, Note_on_c, 1, 51, 80
3, 178368, Note_on_c, 1, 44, 80
3, 178556, Note_off_c, 1, 51, 100
3, 178556, Note_off_c, 1, 44, 100
3, 178560, Note_on_c, 1, 51, 82
3, 178560, Note_on_c, 1, 44, 82
3, 178748, Note_off_c, 1, 51, 100
3, 178748, Note_off_c, 1, 44, 100
3, 178752, Note_on_c, 1, 51, 85
3, 178752, Note_on_c, 1, 44, 85
3, 178940, Note_off_c, 1, 51, 100
3, 178940, Note_off_c, 1, 44, 100
3, 178944, Note_on_c, 1, 51, 88
3, 178944, Note_on_c, 1, 44, 88
3, 179132, Note_off_c, 1, 51, 100
3, 179132, Note_off_c, 1, 44, 100
3, 179136, Note_on_c, 1, 51, 91
3, 179136, Note_on_c, 1, 44, 91
3, 179324, Note_off_c, 1, 51, 100
3, 179324, Note_off_c, 1, 44, 100
3, 179328, Note_on_c, 1, 51, 94
3, 179328, Note_on_c, 1, 46, 94
3, 179516, Note_off_c, 1, 51, 100
3, 179516, Note_off_c, 1, 46, 100
3, 179520, Note_on_c, 1, 51, 97
3, 179520, Note_on_c, 1, 47, 97
3, 179708, Note_off_c, 1, 51, 100
3, 179708, Note_off_c, 1, 47, 100
3, 179712, Note_on_c, 1, 39, 99
3, 179712, Note_on_c, 1, 49, 99
3, 179712, Note_on_c, 1, 51, 99
3, 179900, Note_off_c, 1, 39, 100
3, 179900, Note_off_c, 1, 49, 100
3, 179900, Note_off_c, 1, 51, 100
3, 179904, Note_on_c, 1, 61, 110
3, 179904, Note_on_c, 1, 51, 110
3, 180092, Note_off_c, 1, 61, 100
3, 180092, Note_off_c, 1, 51, 100
3, 180096, Note_on_c, 1, 61, 110
3, 180096, Note_on_c, 1, 51, 110
3, 180284, Note_off_c, 1, 61, 100
3, 180284, Note_off_c, 1, 51, 100
3, 180288, Note_on_c, 1, 61, 110
3, 180288, Note_on_c, 1, 51, 110
3, 180476, Note_off_c, 1, 61, 100
3, 180476, Note_off_c, 1, 51, 100
3, 180480, Note_on_c, 1, 61, 110
3, 180480, Note_on_c, 1, 51, 110
3, 180668, Note_off_c, 1, 61, 100
3, 180668, Note_off_c, 1, 51, 100
3, 180672, Note_on_c, 1, 61, 110
3, 180672, Note_on_c, 1, 51, 110
3, 180860, Note_off_c, 1, 61, 100
3, 180860, Note_off_c, 1, 51, 100
3, 180864, Note_on_c, 1, 59, 110
3, 180864, Note_on_c, 1, 51, 110
3, 181052, Note_off_c, 1, 59, 100
3, 181052, Note_off_c, 1, 51, 100
3, 181056, Note_on_c, 1, 58, 110
3, 181056, Note_on_c, 1, 51, 110
3, 181244, Note_off_c, 1, 58, 100
3, 181244, Note_off_c, 1, 51, 100
3, 181248, Note_on_c, 1, 44, 110
3, 181248, Note_on_c, 1, 56, 110
3, 181436, Note_off_c, 1, 44, 100
3, 181436, Note_off_c, 1, 56, 100
3, 181440, Note_on_c, 1, 63, 80
3, 181440, Note_on_c, 1, 59, 80
3, 181628, Note_off_c, 1, 63, 100
3, 181628, Note_off_c, 1, 59, 100
3, 181632, Note_on_c, 1, 63, 80
3, 181632, Note_on_c, 1, 59, 80
3, 181820, Note_off_c, 1, 63, 100
3, 181820, Note_off_c, 1, 59, 100
3, 181824, Note_on_c, 1, 56, 80
3, 181824, Note_on_c, 1, 59, 80
3, 182012, Note_off_c, 1, 56, 100
3, 182012, Note_off_c, 1, 59, 100
3, 182016, Note_on_c, 1, 49, 80
3, 182204, Note_off_c, 1, 49, 100
3, 182208, Note_on_c, 1, 64, 80
3, 182208, Note_on_c, 1, 61, 80
3, 182396, Note_off_c, 1, 64, 100
3, 182396, Note_off_c, 1, 61, 100
3, 182400, Note_on_c, 1, 64, 80
3, 182400, Note_on_c, 1, 61, 80
3, 182588, Note_off_c, 1, 64, 100
3, 182588, Note_off_c, 1, 61, 100
3, 182592, Note_on_c, 1, 56, 80
3, 182592, Note_on_c, 1, 61, 80
3, 182780, Note_off_c, 1, 56, 100
3, 182780, Note_off_c, 1, 61, 100
3, 182784, Note_on_c, 1, 51, 80
3, 182972, Note_off_c, 1, 51, 100
3, 182976, Note_on_c, 1, 63, 80
3, 182976, Note_on_c, 1, 59, 80
3, 183164, Note_off_c, 1, 63, 100
3, 183164, Note_off_c, 1, 59, 100
3, 183168, Note_on_c, 1, 63, 80
3, 183168, Note_on_c, 1, 59, 80
3, 183356, Note_off_c, 1, 63, 100
3, 183356, Note_off_c, 1, 59, 100
3, 183360, Note_on_c, 1, 56, 80
3, 183360, Note_on_c, 1, 59, 80
3, 183548, Note_off_c, 1, 56, 100
3, 183548, Note_off_c, 1, 59, 100
3, 183552, Note_on_c, 1, 49, 80
3, 183740, Note_off_c, 1, 49, 100
3, 183744, Note_on_c, 1, 63, 80
3, 183744, Note_on_c, 1, 58, 80
3, 183932, Note_off_c, 1, 63, 100
3, 183932, Note_off_c, 1, 58, 100
3, 183936, Note_on_c, 1, 63, 80
3, 183936, Note_on_c, 1, 58, 80
3, 184124, Note_off_c, 1, 63, 100
3, 184124, Note_off_c, 1, 58, 100
3, 184128, Note_on_c, 1, 55, 80
3, 184128, Note_on_c, 1, 58, 80
3, 184316, Note_off_c, 1, 55, 100
3, 184316, Note_off_c, 1, 58, 100
3, 184320, Note_on_c, 1, 47, 80
3, 184508, Note_off_c, 1, 47, 100
3, 184512, Note_on_c, 1, 68, 82
3, 184512, Note_on_c, 1, 63, 82
3, 184700, Note_off_c, 1, 68, 100
3, 184700, Note_off_c, 1, 63, 100
3, 184704, Note_on_c, 1, 68, 85
3, 184704, Note_on_c, 1, 63, 85
3, 184892, Note_off_c, 1, 68, 100
3, 184892, Note_off_c, 1, 63, 100
3, 184896, Note_on_c, 1, 59, 88
3, 184896, Note_on_c, 1, 63, 88
3, 185084, Note_off_c, 1, 59, 100
3, 185084, Note_off_c, 1, 63, 100
3, 185088, Note_on_c, 1, 49, 91
3, 185276, Note_off_c, 1, 49, 100
3, 185280, Note_on_c, 1, 69, 94
3, 185280, Note_on_c, 1, 64, 94
3, 185468, Note_off_c, 1, 69, 100
3, 185468, Note_off_c, 1, 64, 100
3, 185472, Note_on_c, 1, 69, 97
3, 185472, Note_on_c, 1, 64, 97
3, 185660, Note_off_c, 1, 69, 100
3, 185660, Note_off_c, 1, 64, 100
3, 185664, Note_on_c, 1, 61, 99
3, 185664, Note_on_c, 1, 64, 99
3, 185852, Note_off_c, 1, 61, 100
3, 185852, Note_off_c, 1, 64, 100
3, 185856, Note_on_c, 1, 51, 100
3, 186044, Note_off_c, 1, 51, 100
3, 186048, Note_on_c, 1, 68, 100
3, 186048, Note_on_c, 1, 63, 100
3, 186236, Note_off_c, 1, 68, 100
3, 186236, Note_off_c, 1, 63, 100
3, 186240, Note_on_c, 1, 68, 100
3, 186240, Note_on_c, 1, 63, 100
3, 186428, Note_off_c, 1, 68, 100
3, 186428, Note_off_c, 1, 63, 100
3, 186432, Note_on_c, 1, 59, 100
3, 186432, Note_on_c, 1, 63, 100
3, 186620, Note_off_c, 1, 59, 100
3, 186620, Note_off_c, 1, 63, 100
3, 186624, Note_on_c, 1, 51, 90
3, 186812, Note_off_c, 1, 51, 100
3, 186816, Note_on_c, 1, 61, 87
3, 186816, Note_on_c, 1, 67, 87
3, 187004, Note_off_c, 1, 61, 100
3, 187004, Note_off_c, 1, 67, 100
3, 187008, Note_on_c, 1, 61, 84
3, 187008, Note_on_c, 1, 67, 84
3, 187196, Note_off_c, 1, 61, 100
3, 187196, Note_off_c, 1, 67, 100
3, 187200, Note_on_c, 1, 58, 81
3, 187200, Note_on_c, 1, 61, 81
3, 187388, Note_off_c, 1, 58, 100
3, 187388, Note_off_c, 1, 61, 100
3, 187392, Control_c, 1, 64, 127
3, 187392, Note_on_c, 1, 44, 70
3, 187488, Note_on_c, 1, 56, 70
3, 187580, Note_off_c, 1, 44, 100
3, 187584, Note_on_c, 1, 51, 70
3, 187676, Note_off_c, 1, 56, 100
3, 187680, Note_on_c, 1, 56, 70
3, 187772, Note_off_c, 1, 51, 100
3, 187776, Note_on_c, 1, 44, 70
3, 187868, Note_off_c, 1, 56, 100
3, 187872, Note_on_c, 1, 56, 70
3, 187964, Note_off_c, 1, 44, 100
3, 187968, Note_on_c, 1, 51, 70
3, 188060, Note_off_c, 1, 56, 100
3, 188064, Note_on_c, 1, 56, 70
3, 188156, Note_off_c, 1, 51, 100
3, 188160, Note_on_c, 1, 44, 70
3, 188252, Note_off_c, 1, 56, 100
3, 188256, Note_on_c, 1, 56, 70
3, 188348, Note_off_c, 1, 44, 100
3, 188352, Note_on_c, 1, 51, 70
3, 188444, Note_off_c, 1, 56, 100
3, 188448, Note_on_c, 1, 56, 70
3, 188540, Note_off_c, 1, 51, 100
3, 188544, Note_on_c, 1, 44, 70
3, 188636, Note_off_c, 1, 56, 100
3, 188640, Note_on_c, 1, 56, 70
3, 188732, Note_off_c, 1, 44, 100
3, 188736, Note_on_c, 1, 51, 70
3, 188828, Note_off_c, 1, 56, 100
3, 188832, Note_on_c, 1, 56, 70
3, 188920, Control_c, 1, 64, 0
3, 188924, Note_off_c, 1, 51, 100
3, 188928, Control_c, 1, 64, 127
3, 188928, Note_on_c, 1, 44, 70
3, 189020, Note_off_c, 1, 56, 100
3, 189024, Note_on_c, 1, 58, 70
3, 189116, Note_off_c, 1, 44, 100
3, 189120, Note_on_c, 1, 51, 70
3, 189212, Note_off_c, 1, 58, 100
3, 189216, Note_on_c, 1, 58, 70
3, 189308, Note_off_c, 1, 51, 100
3, 189312, Note_on_c, 1, 44, 70
3, 189404, Note_off_c, 1, 58, 100
3, 189408, Note_on_c, 1, 58, 70
3, 189500, Note_off_c, 1, 44, 100
3, 189504, Note_on_c, 1, 51, 70
3, 189596, Note_off_c, 1, 58, 100
3, 189600, Note_on_c, 1, 58, 70
3, 189692, Note_off_c, 1, 51, 100
3, 189696, Note_on_c, 1, 44, 70
3, 189788, Note_off_c, 1, 58, 100
3, 189792, Note_on_c, 1, 58, 70
3, 189884, Note_off_c, 1, 44, 100
3, 189888, Note_on_c, 1, 51, 70
3, 189980, Note_off_c, 1, 58, 100
3, 189984, Note_on_c, 1, 58, 70
3, 190076, Note_off_c, 1, 51, 100
3, 190080, Note_on_c, 1, 44, 70
3, 190172, Note_off_c, 1, 58, 100
3, 190176, Note_on_c, 1, 58, 70
3, 190268, Note_off_c, 1, 44, 100
3, 190272, Note_on_c, 1, 51, 70
3, 190364, Note_off_c, 1, 58, 100
3, 190368, Note_on_c, 1, 58, 70
3, 190456, Control_c, 1, 64, 0
3, 190460, Note_off_c, 1, 51, 100
3, 190464, Control_c, 1, 64, 127
3, 190464, Note_on_c, 1, 44, 70
3, 190556, Note_off_c, 1, 58, 100
3, 190560, Note_on_c, 1, 56, 70
3, 190652, Note_off_c, 1, 44, 100
3, 190656, Note_on_c, 1, 51, 70
3, 190748, Note_off_c, 1, 56, 100
3, 190752, Note_on_c, 1, 56, 70
3, 190844, Note_off_c, 1, 51, 100
3, 190848, Note_on_c, 1, 44, 70
3, 190940, Note_off_c, 1, 56, 100
3, 190944, Note_on_c, 1, 56, 70
3, 191036, Note_off_c, 1, 44, 100
3, 191040, Note_on_c, 1, 51, 70
3, 191132, Note_off_c, 1, 56, 100
3, 191136, Note_on_c, 1, 56, 70
3, 191228, Note_off_c, 1, 51, 100
3, 191232, Note_on_c, 1, 44, 70
3, 191324, Note_off_c, 1, 56, 100
3, 191328, Note_on_c, 1, 56, 70
3, 191420, Note_off_c, 1, 44, 100
3, 191424, Note_on_c, 1, 51, 70
3, 191516, Note_off_c, 1, 56, 100
3, 191520, Note_on_c, 1, 56, 70
3, 191612, Note_off_c, 1, 51, 100
3, 191616, Note_on_c, 1, 44, 70
3, 191708, Note_off_c, 1, 56, 100
3, 191712, Note_on_c, 1, 56, 70
3, 191804, Note_off_c, 1, 44, 100
3, 191808, Note_on_c, 1, 51, 70
3, 191900, Note_off_c, 1, 56, 100
3, 191904, Note_on_c, 1, 56, 70
3, 191992, Control_c, 1, 64, 0
3, 191996, Note_off_c, 1, 51, 100
3, 192000, Control_c, 1, 64, 127
3, 192000, Note_on_c, 1, 44, 70
3, 192092, Note_off_c, 1, 56, 100
3, 192096, Note_on_c, 1, 58, 70
3, 192188, Note_off_c, 1, 44, 100
3, 192192, Note_on_c, 1, 51, 70
3, 192284, Note_off_c, 1, 58, 100
3, 192288, Note_on_c, 1, 58, 70
3, 192380, Note_off_c, 1, 51, 100
3, 192384, Note_on_c, 1, 44, 70
3, 192476, Note_off_c, 1, 58, 100
3, 192480, Note_on_c, 1, 58, 70
3, 192572, Note_off_c, 1, 44, 100
3, 192576, Note_on_c, 1, 51, 70
3, 192668, Note_off_c, 1, 58, 100
3, 192672, Note_on_c, 1, 58, 70
3, 192764, Note_off_c, 1, 51, 100
3, 192768, Note_on_c, 1, 44, 70
3, 192860, Note_off_c, 1, 58, 100
3, 192864, Note_on_c, 1, 58, 70
3, 192956, Note_off_c, 1, 44, 100
3, 192960, Note_on_c, 1, 51, 70
3, 193052, Note_off_c, 1, 58, 100
3, 193056, Note_on_c, 1, 58, 70
3, 193148, Note_off_c, 1, 51, 100
3, 193152, Note_on_c, 1, 44, 70
3, 193244, Note_off_c, 1, 58, 100
3, 193248, Note_on_c, 1, 58, 70
3, 193340, Note_off_c, 1, 44, 100
3, 193344, Note_on_c, 1, 51, 70
3, 193436, Note_off_c, 1, 58, 100
3, 193440, Note_on_c, 1, 58, 70
3, 193528, Control_c, 1, 64, 0
3, 193532, Note_off_c, 1, 51, 100
3, 193536, Control_c, 1, 64, 127
3, 193536, Note_on_c, 1, 44, 70
3, 193628, Note_off_c, 1, 58, 100
3, 193632, Note_on_c, 1, 56, 70
3, 193724, Note_off_c, 1, 44, 100
3, 193728, Note_on_c, 1, 51, 70
3, 193820, Note_off_c, 1, 56, 100
3, 193824, Note_on_c, 1, 56, 70
3, 193916, Note_off_c, 1, 51, 100
3, 193920, Note_on_c, 1, 44, 70
3, 194012, Note_off_c, 1, 56, 100
3, 194016, Note_on_c, 1, 56, 70
3, 194108, Note_off_c, 1, 44, 100
3, 194112, Note_on_c, 1, 51, 70
3, 194204, Note_off_c, 1, 56, 100
3, 194208, Note_on_c, 1, 56, 70
3, 194296, Control_c, 1, 64, 0
3, 194300, Note_off_c, 1, 51, 100
3, 194304, Control_c, 1, 64, 127
3, 194304, Note_on_c, 1, 44, 70
3, 194396, Note_off_c, 1, 56, 100
3, 194400, Note_on_c, 1, 58, 70
3, 194492, Note_off_c, 1, 44, 100
3, 194496, Note_on_c, 1, 51, 70
3, 194588, Note_off_c, 1, 58, 100
3, 194592, Note_on_c, 1, 58, 70
3, 194684, Note_off_c, 1, 51, 100
3, 194688, Note_on_c, 1, 44, 70
3, 194780, Note_off_c, 1, 58, 100
3, 194784, Note_on_c, 1, 58, 70
3, 194876, Note_off_c, 1, 44, 100
3, 194880, Note_on_c, 1, 51, 70
3, 194972, Note_off_c, 1, 58, 100
3, 194976, Note_on_c, 1, 58, 70
3, 195064, Control_c, 1, 64, 0
3, 195068, Note_off_c, 1, 51, 100
3, 195072, Control_c, 1, 64, 127
3, 195072, Note_on_c, 1, 44, 70
3, 195164, Note_off_c, 1, 58, 100
3, 195168, Note_on_c, 1, 56, 70
3, 195260, Note_off_c, 1, 44, 100
3, 195264, Note_on_c, 1, 51, 70
3, 195356, Note_off_c, 1, 56, 100
3, 195360, Note_on_c, 1, 56, 70
3, 195452, Note_off_c, 1, 51, 100
3, 195456, Note_on_c, 1, 44, 70
3, 195548, Note_off_c, 1, 56, 100
3, 195552, Note_on_c, 1, 56, 70
3, 195644, Note_off_c, 1, 44, 100
3, 195648, Note_on_c, 1, 51, 70
3, 195740, Note_off_c, 1, 56, 100
3, 195744, Note_on_c, 1, 56, 70
3, 195832, Control_c, 1, 64, 0
3, 195836, Note_off_c, 1, 51, 100
3, 195840, Control_c, 1, 64, 127
3, 195840, Note_on_c, 1, 44, 70
3, 195932, Note_off_c, 1, 56, 100
3, 195936, Note_on_c, 1, 58, 70
3, 196028, Note_off_c, 1, 44, 100
3, 196032, Note_on_c, 1, 51, 70
3, 196124, Note_off_c, 1, 58, 100
3, 196128, Note_on_c, 1, 58, 70
3, 196220, Note_off_c, 1, 51, 100
3, 196224, Note_on_c, 1, 44, 70
3, 196316, Note_off_c, 1, 58, 100
3, 196320, Note_on_c, 1, 58, 70
3, 196412, Note_off_c, 1, 44, 100
3, 196416, Note_on_c, 1, 51, 70
3, 196508, Note_off_c, 1, 58, 100
3, 196512, Note_on_c, 1, 58, 70
3, 196600, Control_c, 1, 64, 0
3, 196604, Note_off_c, 1, 51, 100
3, 196608, Control_c, 1, 64, 127
3, 196608, Note_on_c, 1, 44, 80
3, 196700, Note_off_c, 1, 58, 100
3, 196704, Note_on_c, 1, 56, 80
3, 196796, Note_off_c, 1, 44, 100
3, 196800, Note_on_c, 1, 51, 81
3, 196892, Note_off_c, 1, 56, 100
3, 196896, Note_on_c, 1, 56, 82
3, 196988, Note_off_c, 1, 51, 100
3, 196992, Note_on_c, 1, 44, 83
3, 197084, Note_off_c, 1, 56, 100
3, 197088, Note_on_c, 1, 56, 84
3, 197180, Note_off_c, 1, 44, 100
3, 197184, Note_on_c, 1, 51, 85
3, 197276, Note_off_c, 1, 56, 100
3, 197280, Note_on_c, 1, 56, 86
3, 197372, Note_off_c, 1, 51, 100
3, 197376, Note_on_c, 1, 44, 87
3, 197468, Note_off_c, 1, 56, 100
3, 197472, Note_on_c, 1, 56, 88
3, 197564, Note_off_c, 1, 44, 100
3, 197568, Note_on_c, 1, 51, 89
3, 197660, Note_off_c, 1, 56, 100
3, 197664, Note_on_c, 1, 56, 90
3, 197756, Note_off_c, 1, 51, 100
3, 197760, Note_on_c, 1, 44, 91
3, 197852, Note_off_c, 1, 56, 100
3, 197856, Note_on_c, 1, 56, 92
3, 197948, Note_off_c, 1, 44, 100
3, 197952, Note_on_c, 1, 51, 93
3, 198044, Note_off_c, 1, 56, 100
3, 198048, Note_on_c, 1, 56, 94
3, 198136, Control_c, 1, 64, 0
3, 198140, Note_off_c, 1, 51, 100
3, 198144, Control_c, 1, 64, 127
3, 198144, Note_on_c, 1, 44, 94
3, 198236, Note_off_c, 1, 56, 100
3, 198240, Note_on_c, 1, 51, 95
3, 198332, Note_off_c, 1, 44, 100
3, 198336, Note_on_c, 1, 47, 96
3, 198428, Note_off_c, 1, 51, 100
3, 198432, Note_on_c, 1, 51, 97
3, 198524, Note_off_c, 1, 47, 100
3, 198528, Note_on_c, 1, 44, 98
3, 198620, Note_off_c, 1, 51, 100
3, 198624, Note_on_c, 1, 51, 99
3, 198716, Note_off_c, 1, 44, 100
3, 198720, Note_on_c, 1, 47, 100
3, 198812, Note_off_c, 1, 51, 100
3, 198816, Note_on_c, 1, 51, 101
3, 198908, Note_off_c, 1, 47, 100
3, 198912, Note_on_c, 1, 44, 102
3, 199004, Note_off_c, 1, 51, 100
3, 199008, Note_on_c, 1, 51, 103
3, 199100, Note_off_c, 1, 44, 100
3, 199104, Note_on_c, 1, 47, 104
3, 199196, Note_off_c, 1, 51, 100
3, 199200, Note_on_c, 1, 51, 105
3, 199292, Note_off_c, 1, 47, 100
3, 199296, Note_on_c, 1, 44, 106
3, 199388, Note_off_c, 1, 51, 100
3, 199392, Note_on_c, 1, 51, 107
3, 199484, Note_off_c, 1, 44, 100
3, 199488, Note_on_c, 1, 47, 108
3, 199580, Note_off_c, 1, 51, 100
3, 199584, Note_on_c, 1, 51, 109
3, 199672, Control_c, 1, 64, 0
3, 199676, Note_off_c, 1, 47, 100
3, 199680, Note_on_c, 1, 37, 110
3, 199772, Note_off_c, 1, 51, 100
3, 199868, Note_off_c, 1, 37, 100
3, 199872, Note_on_c, 1, 44, 80
3, 200060, Note_off_c, 1, 44, 100
3, 200064, Note_on_c, 1, 37, 80
3, 200252, Note_off_c, 1, 37, 100
3, 200256, Note_on_c, 1, 44, 80
3, 200444, Note_off_c, 1, 44, 100
3, 200448, Note_on_c, 1, 37, 80
3, 200636, Note_off_c, 1, 37, 100
3, 200640, Note_on_c, 1, 44, 80
3, 200828, Note_off_c, 1, 44, 100
3, 200832, Note_on_c, 1, 37, 80
3, 201020, Note_off_c, 1, 37, 100
3, 201024, Note_on_c, 1, 44, 80
3, 201212, Note_off_c, 1, 44, 100
3, 201216, Note_on_c, 1, 37, 80
3, 201404, Note_off_c, 1, 37, 100
3, 201408, Note_on_c, 1, 44, 80
3, 201596, Note_off_c, 1, 44, 100
3, 201600, Note_on_c, 1, 37, 80
3, 201788, Note_off_c, 1, 37, 100
3, 201792, Note_on_c, 1, 44, 80
3, 201980, Note_off_c, 1, 44, 100
3, 201984, Note_on_c, 1, 37, 80
3, 202172, Note_off_c, 1, 37, 100
3, 202176, Note_on_c, 1, 44, 80
3, 202364, Note_off_c, 1, 44, 100
3, 202368, Note_on_c, 1, 37, 110
3, 202368, Note_on_c, 1, 49, 110
3, 202560, Note_on_c, 1, 44, 110
3, 202748, Note_off_c, 1, 37, 100
3, 202748, Note_off_c, 1, 49, 100
3, 202748, Note_off_c, 1, 44, 100
3, 202752, Note_on_c, 1, 35, 100
3, 202940, Note_off_c, 1, 35, 100
3, 202944, Note_on_c, 1, 44, 80
3, 203132, Note_off_c, 1, 44, 100
3, 203136, Note_on_c, 1, 35, 80
3, 203324, Note_off_c, 1, 35, 100
3, 203328, Note_on_c, 1, 44, 80
3, 203516, Note_off_c, 1, 44, 100
3, 203520, Note_on_c, 1, 35, 80
3, 203708, Note_off_c, 1, 35, 100
3, 203712, Note_on_c, 1, 44, 80
3, 203900, Note_off_c, 1, 44, 100
3, 203904, Note_on_c, 1, 35, 80
3, 204092, Note_off_c, 1, 35, 100
3, 204096, Note_on_c, 1, 44, 80
3, 204284, Note_off_c, 1, 44, 100
3, 204288, Note_on_c, 1, 35, 80
3, 204476, Note_off_c, 1, 35, 100
3, 204480, Note_on_c, 1, 44, 80
3, 204668, Note_off_c, 1, 44, 100
3, 204672, Note_on_c, 1, 35, 80
3, 204860, Note_off_c, 1, 35, 100
3, 204864, Note_on_c, 1, 44, 80
3, 205052, Note_off_c, 1, 44, 100
3, 205056, Note_on_c, 1, 35, 80
3, 205244, Note_off_c, 1, 35, 100
3, 205248, Note_on_c, 1, 44, 80
3, 205436, Note_off_c, 1, 44, 100
3, 205440, Note_on_c, 1, 35, 110
3, 205440, Note_on_c, 1, 49, 110
3, 205632, Note_on_c, 1, 44, 110
3, 205820, Note_off_c, 1, 35, 100
3, 205820, Note_off_c, 1, 49, 100
3, 205820, Note_off_c, 1, 44, 100
3, 205824, Note_on_c, 1, 33, 80
3, 206012, Note_off_c, 1, 33, 100
3, 206016, Note_on_c, 1, 45, 80
3, 206204, Note_off_c, 1, 45, 100
3, 206208, Note_on_c, 1, 33, 80
3, 206396, Note_off_c, 1, 33, 100
3, 206400, Note_on_c, 1, 45, 80
3, 206588, Note_off_c, 1, 45, 100
3, 206592, Note_on_c, 1, 33, 80
3, 206780, Note_off_c, 1, 33, 100
3, 206784, Note_on_c, 1, 45, 80
3, 206972, Note_off_c, 1, 45, 100
3, 206976, Note_on_c, 1, 33, 110
3, 207168, Note_on_c, 1, 45, 110
3, 207356, Note_off_c, 1, 33, 100
3, 207356, Note_off_c, 1, 45, 100
3, 207360, Note_on_c, 1, 29, 80
3, 207548, Note_off_c, 1, 29, 100
3, 207552, Note_on_c, 1, 41, 80
3, 207740, Note_off_c, 1, 41, 100
3, 207744, Note_on_c, 1, 29, 80
3, 207932, Note_off_c, 1, 29, 100
3, 207936, Note_on_c, 1, 41, 80
3, 208124, Note_off_c, 1, 41, 100
3, 208128, Note_on_c, 1, 29, 80
3, 208316, Note_off_c, 1, 29, 100
3, 208320, Note_on_c, 1, 41, 80
3, 208508, Note_off_c, 1, 41, 100
3, 208512, Note_on_c, 1, 29, 110
3, 208704, Note_on_c, 1, 41, 110
3, 208892, Note_off_c, 1, 29, 100
3, 208892, Note_off_c, 1, 41, 100
3, 208896, Note_on_c, 1, 30, 110
3, 208896, Note_on_c, 1, 42, 110
3, 208992, Note_on_c, 1, 61, 100
3, 209088, Note_on_c, 1, 57, 90
3, 209180, Note_off_c, 1, 61, 100
3, 209184, Note_on_c, 1, 61, 80
3, 209276, Note_off_c, 1, 30, 100
3, 209276, Note_off_c, 1, 42, 100
3, 209276, Note_off_c, 1, 57, 100
3, 209280, Control_c, 1, 64, 127
3, 209280, Note_on_c, 1, 54, 70
3, 209372, Note_off_c, 1, 61, 100
3, 209376, Note_on_c, 1, 61, 70
3, 209468, Note_off_c, 1, 54, 100
3, 209472, Note_on_c, 1, 57, 70
3, 209564, Note_off_c, 1, 61, 100
3, 209568, Note_on_c, 1, 61, 70
3, 209660, Note_off_c, 1, 57, 100
3, 209664, Note_on_c, 1, 54, 70
3, 209756, Note_off_c, 1, 61, 100
3, 209760, Note_on_c, 1, 61, 70
3, 209852, Note_off_c, 1, 54, 100
3, 209856, Note_on_c, 1, 57, 70
3, 209948, Note_off_c, 1, 61, 100
3, 209952, Note_on_c, 1, 61, 70
3, 210044, Note_off_c, 1, 57, 100
3, 210048, Note_on_c, 1, 54, 70
3, 210140, Note_off_c, 1, 61, 100
3, 210144, Note_on_c, 1, 61, 70
3, 210236, Note_off_c, 1, 54, 100
3, 210240, Note_on_c, 1, 57, 70
3, 210332, Note_off_c, 1, 61, 100
3, 210336, Note_on_c, 1, 61, 70
3, 210424, Control_c, 1, 64, 0
3, 210428, Note_off_c, 1, 57, 100
3, 210432, Control_c, 1, 64, 127
3, 210432, Note_on_c, 1, 56, 70
3, 210524, Note_off_c, 1, 61, 100
3, 210528, Note_on_c, 1, 61, 70
3, 210620, Note_off_c, 1, 56, 100
3, 210624, Note_on_c, 1, 59, 70
3, 210716, Note_off_c, 1, 61, 100
3, 210720, Note_on_c, 1, 61, 70
3, 210812, Note_off_c, 1, 59, 100
3, 210816, Note_on_c, 1, 56, 70
3, 210908, Note_off_c, 1, 61, 100
3, 210912, Note_on_c, 1, 61, 70
3, 211004, Note_off_c, 1, 56, 100
3, 211008, Note_on_c, 1, 59, 70
3, 211100, Note_off_c, 1, 61, 100
3, 211104, Note_on_c, 1, 61, 70
3, 211196, Note_off_c, 1, 59, 100
3, 211200, Note_on_c, 1, 56, 70
3, 211292, Note_off_c, 1, 61, 100
3, 211296, Note_on_c, 1, 61, 70
3, 211388, Note_off_c, 1, 56, 100
3, 211392, Note_on_c, 1, 59, 70
3, 211484, Note_off_c, 1, 61, 100
3, 211488, Note_on_c, 1, 61, 70
3, 211580, Note_off_c, 1, 59, 100
3, 211584, Note_on_c, 1, 56, 70
3, 211676, Note_off_c, 1, 61, 100
3, 211680, Note_on_c, 1, 61, 70
3, 211772, Note_off_c, 1, 56, 100
3, 211776, Note_on_c, 1, 59, 70
3, 211868, Note_off_c, 1, 61, 100
3, 211872, Note_on_c, 1, 61, 70
3, 211960, Control_c, 1, 64, 0
3, 211964, Note_off_c, 1, 59, 100
3, 211968, Control_c, 1, 64, 127
3, 211968, Note_on_c, 1, 57, 70
3, 212060, Note_off_c, 1, 61, 100
3, 212064, Note_on_c, 1, 61, 70
3, 212156, Note_off_c, 1, 57, 100
3, 212160, Note_on_c, 1, 57, 70
3, 212252, Note_off_c, 1, 61, 100
3, 212256, Note_on_c, 1, 61, 70
3, 212348, Note_off_c, 1, 57, 100
3, 212352, Note_on_c, 1, 57, 70
3, 212444, Note_off_c, 1, 61, 100
3, 212448, Note_on_c, 1, 61, 70
3, 212540, Note_off_c, 1, 57, 100
3, 212544, Note_on_c, 1, 57, 70
3, 212636, Note_off_c, 1, 61, 100
3, 212640, Note_on_c, 1, 61, 70
3, 212732, Note_off_c, 1, 57, 100
3, 212736, Note_on_c, 1, 57, 70
3, 212828, Note_off_c, 1, 61, 100
3, 212832, Note_on_c, 1, 61, 70
3, 212924, Note_off_c, 1, 57, 100
3, 212928, Note_on_c, 1, 57, 70
3, 213020, Note_off_c, 1, 61, 100
3, 213024, Note_on_c, 1, 61, 70
3, 213116, Note_off_c, 1, 57, 100
3, 213120, Note_on_c, 1, 57, 70
3, 213212, Note_off_c, 1, 61, 100
3, 213216, Note_on_c, 1, 61, 70
3, 213308, Note_off_c, 1, 57, 100
3, 213312, Note_on_c, 1, 57, 70
3, 213404, Note_off_c, 1, 61, 100
3, 213408, Note_on_c, 1, 61, 70
3, 213496, Control_c, 1, 64, 0
3, 213500, Note_off_c, 1, 57, 100
3, 213504, Control_c, 1, 64, 127
3, 213504, Note_on_c, 1, 53, 70
3, 213596, Note_off_c, 1, 61, 100
3, 213600, Note_on_c, 1, 61, 70
3, 213692, Note_off_c, 1, 53, 100
3, 213696, Note_on_c, 1, 53, 70
3, 213788, Note_off_c, 1, 61, 100
3, 213792, Note_on_c, 1, 61, 70
3, 213884, Note_off_c, 1, 53, 100
3, 213888, Note_on_c, 1, 53, 70
3, 213980, Note_off_c, 1, 61, 100
3, 213984, Note_on_c, 1, 61, 70
3, 214076, Note_off_c, 1, 53, 100
3, 214080, Note_on_c, 1, 53, 70
3, 214172, Note_off_c, 1, 61, 100
3, 214176, Note_on_c, 1, 61, 70
3, 214268, Note_off_c, 1, 53, 100
3, 214272, Note_on_c, 1, 53, 70
3, 214364, Note_off_c, 1, 61, 100
3, 214368, Note_on_c, 1, 61, 70
3, 214460, Note_off_c, 1, 53, 100
3, 214464, Note_on_c, 1, 53, 70
3, 214556, Note_off_c, 1, 61, 100
3, 214560, Note_on_c, 1, 61, 70
3, 214652, Note_off_c, 1, 53, 100
3, 214656, Note_on_c, 1, 53, 70
3, 214748, Note_off_c, 1, 61, 100
3, 214752, Note_on_c, 1, 61, 70
3, 214844, Note_off_c, 1, 53, 100
3, 214848, Note_on_c, 1, 53, 70
3, 214940, Note_off_c, 1, 61, 100
3, 214944, Note_on_c, 1, 61, 70
3, 215032, Control_c, 1, 64, 0
3, 215036, Note_off_c, 1, 53, 100
3, 215040, Note_on_c, 1, 54, 90
3, 215132, Note_off_c, 1, 61, 100
3, 215420, Note_off_c, 1, 54, 100
3, 215424, Note_on_c, 1, 61, 90
3, 216188, Note_off_c, 1, 61, 100
3, 216192, Note_on_c, 1, 57, 90
3, 216480, Note_on_c, 1, 54, 90
3, 216572, Note_off_c, 1, 57, 100
3, 216572, Note_off_c, 1, 54, 100
3, 216576, Note_on_c, 1, 54, 90
3, 216956, Note_off_c, 1, 54, 100
3, 216960, Note_on_c, 1, 53, 90
3, 217532, Note_off_c, 1, 53, 100
3, 217536, Note_on_c, 1, 53, 90
3, 217724, Note_off_c, 1, 53, 100
3, 217728, Note_on_c, 1, 61, 90
3, 218016, Note_on_c, 1, 53, 90
3, 218108, Note_off_c, 1, 61, 100
3, 218112, Note_on_c, 1, 56, 90
3, 218204, Note_off_c, 1, 53, 100
3, 218492, Note_off_c, 1, 56, 100
3, 218496, Note_on_c, 1, 54, 90
3, 219068, Note_off_c, 1, 54, 100
3, 219072, Note_on_c, 1, 54, 90
3, 219260, Note_off_c, 1, 54, 100
3, 219264, Note_on_c, 1, 61, 90
3, 219552, Note_on_c, 1, 54, 90
3, 219644, Note_off_c, 1, 61, 100
3, 219644, Note_off_c, 1, 54, 100
3, 219648, Note_on_c, 1, 54, 90
3, 219836, Note_off_c, 1, 54, 100
3, 219840, Note_on_c, 1, 54, 92
3, 220028, Note_off_c, 1, 54, 100
3, 220032, Note_on_c, 1, 62, 94
3, 220320, Note_on_c, 1, 54, 98
3, 220412, Note_off_c, 1, 62, 100
3, 220412, Note_off_c, 1, 54, 100
3, 220416, Note_on_c, 1, 54, 99
3, 220604, Note_off_c, 1, 54, 100
3, 220608, Note_on_c, 1, 54, 102
3, 220796, Note_off_c, 1, 54, 100
3, 220800, Note_on_c, 1, 62, 104
3, 221088, Note_on_c, 1, 54, 108
3, 221180, Note_off_c, 1, 62, 100
3, 221180, Note_off_c, 1, 54, 100
3, 221184, Note_on_c, 1, 55, 110
3, 221564, Note_off_c, 1, 55, 100
3, 221568, Note_on_c, 1, 50, 90
3, 222332, Note_off_c, 1, 50, 100
3, 222336, Note_on_c, 1, 47, 90
3, 222624, Note_on_c, 1, 43, 90
3, 222716, Note_off_c, 1, 47, 100
3, 222716, Note_off_c, 1, 43, 100
3, 222720, Note_on_c, 1, 43, 90
3, 223100, Note_off_c, 1, 43, 100
3, 223104, Note_on_c, 1, 42, 90
3, 223676, Note_off_c, 1, 42, 100
3, 223680, Note_on_c, 1, 42, 90
3, 223868, Note_off_c, 1, 42, 100
3, 223872, Note_on_c, 1, 50, 101
3, 224160, Note_on_c, 1, 42, 90
3, 224252, Note_off_c, 1, 50, 100
3, 224256, Note_on_c, 1, 45, 90
3, 224348, Note_off_c, 1, 42, 100
3, 224636, Note_off_c, 1, 45, 100
3, 224640, Note_on_c, 1, 43, 90
3, 225212, Note_off_c, 1, 43, 100
3, 225216, Note_on_c, 1, 43, 90
3, 225404, Note_off_c, 1, 43, 100
3, 225408, Note_on_c, 1, 50, 100
3, 225696, Note_on_c, 1, 42, 90
3, 225788, Note_off_c, 1, 50, 100
3, 225788, Note_off_c, 1, 42, 100
3, 225792, Note_on_c, 1, 42, 90
3, 226172, Note_off_c, 1, 42, 100
3, 226176, Note_on_c, 1, 41, 90
3, 226748, Note_off_c, 1, 41, 100
3, 226752, Note_on_c, 1, 41, 90
3, 226940, Note_off_c, 1, 41, 100
3, 226944, Note_on_c, 1, 49, 100
3, 227232, Note_on_c, 1, 41, 90
3, 227324, Note_off_c, 1, 49, 100
3, 227328, Note_on_c, 1, 42, 90
3, 227420, Note_off_c, 1, 41, 100
3, 227516, Note_off_c, 1, 42, 100
3, 227520, Note_on_c, 1, 42, 91
3, 227708, Note_off_c, 1, 42, 100
3, 227712, Note_on_c, 1, 45, 92
3, 227900, Note_off_c, 1, 45, 100
3, 227904, Note_on_c, 1, 42, 93
3, 228092, Note_off_c, 1, 42, 100
3, 228096, Note_on_c, 1, 38, 94
3, 228284, Note_off_c, 1, 38, 100
3, 228288, Note_on_c, 1, 38, 96
3, 228476, Note_off_c, 1, 38, 100
3, 228480, Note_on_c, 1, 42, 97
3, 228668, Note_off_c, 1, 42, 100
3, 228672, Note_on_c, 1, 38, 98
3, 228860, Note_off_c, 1, 38, 100
3, 228864, Note_on_c, 1, 36, 99
3, 229820, Note_off_c, 1, 36, 100
3, 229824, Note_on_c, 1, 36, 106
3, 230012, Note_off_c, 1, 36, 100
3, 230016, Note_on_c, 1, 39, 107
3, 230204, Note_off_c, 1, 39, 100
3, 230208, Note_on_c, 1, 36, 108
3, 230396, Note_off_c, 1, 36, 100
3, 230400, Note_on_c, 1, 37, 110
3, 230588, Note_off_c, 1, 37, 100
3, 230592, Note_on_c, 1, 37, 110
3, 230780, Note_off_c, 1, 37, 100
3, 230784, Note_on_c, 1, 40, 110
3, 230972, Note_off_c, 1, 40, 100
3, 230976, Note_on_c, 1, 37, 110
3, 231164, Note_off_c, 1, 37, 100
3, 231168, Note_on_c, 1, 33, 110
3, 231356, Note_off_c, 1, 33, 100
3, 231360, Note_on_c, 1, 33, 110
3, 231548, Note_off_c, 1, 33, 100
3, 231552, Note_on_c, 1, 37, 110
3, 231740, Note_off_c, 1, 37, 100
3, 231744, Note_on_c, 1, 33, 110
3, 231932, Note_off_c, 1, 33, 100
3, 231936, Note_on_c, 1, 30, 110
3, 232124, Note_off_c, 1, 30, 100
3, 232128, Note_on_c, 1, 30, 108
3, 232316, Note_off_c, 1, 30, 100
3, 232320, Note_on_c, 1, 33, 106
3, 232508, Note_off_c, 1, 33, 100
3, 232512, Note_on_c, 1, 30, 103
3, 232700, Note_off_c, 1, 30, 100
3, 232704, Note_on_c, 1, 31, 101
3, 232892, Note_off_c, 1, 31, 100
3, 232896, Note_on_c, 1, 31, 98
3, 233084, Note_off_c, 1, 31, 100
3, 233088, Note_on_c, 1, 34, 96
3, 233276, Note_off_c, 1, 34, 100
3, 233280, Note_on_c, 1, 31, 93
3, 233468, Note_off_c, 1, 31, 100
3, 233472, Control_c, 1, 64, 127
3, 233472, Control_c, 1, 64, 127
3, 233472, Note_on_c, 1, 32, 100
3, 233568, Note_on_c, 1, 44, 70
3, 233660, Note_off_c, 1, 32, 100
3, 233664, Note_on_c, 1, 32, 70
3, 233756, Note_off_c, 1, 44, 100
3, 233760, Note_on_c, 1, 44, 70
3, 233852, Note_off_c, 1, 32, 100
3, 233856, Note_on_c, 1, 32, 70
3, 233948, Note_off_c, 1, 44, 100
3, 233952, Note_on_c, 1, 44, 70
3, 234044, Note_off_c, 1, 32, 100
3, 234048, Note_on_c, 1, 32, 70
3, 234140, Note_off_c, 1, 44, 100
3, 234144, Note_on_c, 1, 44, 70
3, 234236, Note_off_c, 1, 32, 100
3, 234240, Note_on_c, 1, 32, 70
3, 234332, Note_off_c, 1, 44, 100
3, 234336, Note_on_c, 1, 44, 70
3, 234428, Note_off_c, 1, 32, 100
3, 234432, Note_on_c, 1, 32, 70
3, 234524, Note_off_c, 1, 44, 100
3, 234528, Note_on_c, 1, 44, 70
3, 234620, Note_off_c, 1, 32, 100
3, 234624, Note_on_c, 1, 32, 70
3, 234716, Note_off_c, 1, 44, 100
3, 234720, Note_on_c, 1, 44, 70
3, 234812, Note_off_c, 1, 32, 100
3, 234816, Note_on_c, 1, 32, 70
3, 234908, Note_off_c, 1, 44, 100
3, 234912, Note_on_c, 1, 44, 70
3, 235000, Control_c, 1, 64, 0
3, 235000, Control_c, 1, 64, 0
3, 235004, Note_off_c, 1, 32, 100
3, 235008, Control_c, 1, 64, 127
3, 235008, Note_on_c, 1, 32, 70
3, 235100, Note_off_c, 1, 44, 100
3, 235104, Note_on_c, 1, 44, 70
3, 235196, Note_off_c, 1, 32, 100
3, 235200, Note_on_c, 1, 32, 70
3, 235292, Note_off_c, 1, 44, 100
3, 235296, Note_on_c, 1, 44, 70
3, 235388, Note_off_c, 1, 32, 100
3, 235392, Note_on_c, 1, 32, 70
3, 235484, Note_off_c, 1, 44, 100
3, 235488, Note_on_c, 1, 44, 70
3, 235580, Note_off_c, 1, 32, 100
3, 235584, Note_on_c, 1, 32, 70
3, 235676, Note_off_c, 1, 44, 100
3, 235680, Note_on_c, 1, 44, 70
3, 235772, Note_off_c, 1, 32, 100
3, 235776, Note_on_c, 1, 32, 70
3, 235868, Note_off_c, 1, 44, 100
3, 235872, Note_on_c, 1, 44, 70
3, 235964, Note_off_c, 1, 32, 100
3, 235968, Note_on_c, 1, 32, 70
3, 236060, Note_off_c, 1, 44, 100
3, 236064, Note_on_c, 1, 44, 70
3, 236156, Note_off_c, 1, 32, 100
3, 236160, Note_on_c, 1, 32, 70
3, 236252, Note_off_c, 1, 44, 100
3, 236256, Note_on_c, 1, 44, 70
3, 236348, Note_off_c, 1, 32, 100
3, 236352, Note_on_c, 1, 32, 70
3, 236444, Note_off_c, 1, 44, 100
3, 236448, Note_on_c, 1, 44, 70
3, 236536, Control_c, 1, 64, 0
3, 236540, Note_off_c, 1, 32, 100
3, 236544, Control_c, 1, 64, 127
3, 236544, Note_on_c, 1, 32, 70
3, 236636, Note_off_c, 1, 44, 100
3, 236640, Note_on_c, 1, 44, 70
3, 236732, Note_off_c, 1, 32, 100
3, 236736, Note_on_c, 1, 32, 70
3, 236828, Note_off_c, 1, 44, 100
3, 236832, Note_on_c, 1, 44, 70
3, 236924, Note_off_c, 1, 32, 100
3, 236928, Note_on_c, 1, 32, 70
3, 237020, Note_off_c, 1, 44, 100
3, 237024, Note_on_c, 1, 44, 70
3, 237116, Note_off_c, 1, 32, 100
3, 237120, Note_on_c, 1, 32, 70
3, 237212, Note_off_c, 1, 44, 100
3, 237216, Note_on_c, 1, 44, 70
3, 237308, Note_off_c, 1, 32, 100
3, 237312, Note_on_c, 1, 32, 70
3, 237404, Note_off_c, 1, 44, 100
3, 237408, Note_on_c, 1, 44, 70
3, 237500, Note_off_c, 1, 32, 100
3, 237504, Note_on_c, 1, 32, 70
3, 237596, Note_off_c, 1, 44, 100
3, 237600, Note_on_c, 1, 44, 70
3, 237692, Note_off_c, 1, 32, 100
3, 237696, Note_on_c, 1, 32, 70
3, 237788, Note_off_c, 1, 44, 100
3, 237792, Note_on_c, 1, 44, 70
3, 237884, Note_off_c, 1, 32, 100
3, 237888, Note_on_c, 1, 32, 70
3, 237980, Note_off_c, 1, 44, 100
3, 237984, Note_on_c, 1, 44, 70
3, 238072, Control_c, 1, 64, 0
3, 238076, Note_off_c, 1, 32, 100
3, 238080, Control_c, 1, 64, 127
3, 238080, Note_on_c, 1, 32, 70
3, 238172, Note_off_c, 1, 44, 100
3, 238176, Note_on_c, 1, 44, 70
3, 238268, Note_off_c, 1, 32, 100
3, 238272, Note_on_c, 1, 32, 70
3, 238364, Note_off_c, 1, 44, 100
3, 238368, Note_on_c, 1, 44, 70
3, 238460, Note_off_c, 1, 32, 100
3, 238464, Note_on_c, 1, 32, 70
3, 238556, Note_off_c, 1, 44, 100
3, 238560, Note_on_c, 1, 44, 70
3, 238652, Note_off_c, 1, 32, 100
3, 238656, Note_on_c, 1, 32, 70
3, 238748, Note_off_c, 1, 44, 100
3, 238752, Note_on_c, 1, 44, 70
3, 238844, Note_off_c, 1, 32, 100
3, 238848, Note_on_c, 1, 32, 70
3, 238940, Note_off_c, 1, 44, 100
3, 238944, Note_on_c, 1, 44, 70
3, 239036, Note_off_c, 1, 32, 100
3, 239040, Note_on_c, 1, 32, 70
3, 239132, Note_off_c, 1, 44, 100
3, 239136, Note_on_c, 1, 44, 70
3, 239228, Note_off_c, 1, 32, 100
3, 239232, Note_on_c, 1, 32, 70
3, 239324, Note_off_c, 1, 44, 100
3, 239328, Note_on_c, 1, 44, 70
3, 239420, Note_off_c, 1, 32, 100
3, 239424, Note_on_c, 1, 32, 70
3, 239516, Note_off_c, 1, 44, 100
3, 239520, Note_on_c, 1, 44, 70
3, 239608, Control_c, 1, 64, 0
3, 239612, Note_off_c, 1, 32, 100
3, 239616, Control_c, 1, 64, 127
3, 239616, Note_on_c, 1, 32, 70
3, 239708, Note_off_c, 1, 44, 100
3, 239712, Note_on_c, 1, 44, 70
3, 239804, Note_off_c, 1, 32, 100
3, 239808, Note_on_c, 1, 32, 70
3, 239900, Note_off_c, 1, 44, 100
3, 239904, Note_on_c, 1, 44, 70
3, 239996, Note_off_c, 1, 32, 100
3, 240000, Note_on_c, 1, 32, 70
3, 240092, Note_off_c, 1, 44, 100
3, 240096, Note_on_c, 1, 44, 70
3, 240188, Note_off_c, 1, 32, 100
3, 240192, Note_on_c, 1, 32, 70
3, 240284, Note_off_c, 1, 44, 100
3, 240288, Note_on_c, 1, 44, 70
3, 240380, Note_off_c, 1, 32, 100
3, 240384, Note_on_c, 1, 32, 70
3, 240476, Note_off_c, 1, 44, 100
3, 240480, Note_on_c, 1, 44, 70
3, 240572, Note_off_c, 1, 32, 100
3, 240576, Note_on_c, 1, 32, 70
3, 240668, Note_off_c, 1, 44, 100
3, 240672, Note_on_c, 1, 44, 70
3, 240764, Note_off_c, 1, 32, 100
3, 240768, Note_on_c, 1, 32, 70
3, 240860, Note_off_c, 1, 44, 100
3, 240864, Note_on_c, 1, 44, 70
3, 240956, Note_off_c, 1, 32, 100
3, 240960, Note_on_c, 1, 32, 70
3, 241052, Note_off_c, 1, 44, 100
3, 241056, Note_on_c, 1, 44, 70
3, 241144, Control_c, 1, 64, 0
3, 241148, Note_off_c, 1, 32, 100
3, 241152, Control_c, 1, 64, 127
3, 241152, Note_on_c, 1, 32, 70
3, 241244, Note_off_c, 1, 44, 100
3, 241248, Note_on_c, 1, 44, 70
3, 241340, Note_off_c, 1, 32, 100
3, 241344, Note_on_c, 1, 32, 70
3, 241436, Note_off_c, 1, 44, 100
3, 241440, Note_on_c, 1, 44, 70
3, 241532, Note_off_c, 1, 32, 100
3, 241536, Note_on_c, 1, 32, 70
3, 241628, Note_off_c, 1, 44, 100
3, 241632, Note_on_c, 1, 44, 70
3, 241724, Note_off_c, 1, 32, 100
3, 241728, Note_on_c, 1, 32, 70
3, 241820, Note_off_c, 1, 44, 100
3, 241824, Note_on_c, 1, 44, 70
3, 241916, Note_off_c, 1, 32, 100
3, 241920, Note_on_c, 1, 32, 70
3, 242012, Note_off_c, 1, 44, 100
3, 242016, Note_on_c, 1, 44, 70
3, 242108, Note_off_c, 1, 32, 100
3, 242112, Note_on_c, 1, 32, 70
3, 242204, Note_off_c, 1, 44, 100
3, 242208, Note_on_c, 1, 44, 70
3, 242300, Note_off_c, 1, 32, 100
3, 242304, Note_on_c, 1, 32, 70
3, 242396, Note_off_c, 1, 44, 100
3, 242400, Note_on_c, 1, 44, 70
3, 242492, Note_off_c, 1, 32, 100
3, 242496, Note_on_c, 1, 32, 70
3, 242588, Note_off_c, 1, 44, 100
3, 242592, Note_on_c, 1, 44, 70
3, 242680, Control_c, 1, 64, 0
3, 242684, Note_off_c, 1, 32, 100
3, 242688, Control_c, 1, 64, 127
3, 242688, Note_on_c, 1, 32, 70
3, 242780, Note_off_c, 1, 44, 100
3, 242784, Note_on_c, 1, 44, 70
3, 242876, Note_off_c, 1, 32, 100
3, 242880, Note_on_c, 1, 32, 70
3, 242972, Note_off_c, 1, 44, 100
3, 242976, Note_on_c, 1, 44, 70
3, 243068, Note_off_c, 1, 32, 100
3, 243072, Note_on_c, 1, 32, 70
3, 243164, Note_off_c, 1, 44, 100
3, 243168, Note_on_c, 1, 44, 70
3, 243260, Note_off_c, 1, 32, 100
3, 243264, Note_on_c, 1, 32, 70
3, 243356, Note_off_c, 1, 44, 100
3, 243360, Note_on_c, 1, 44, 70
3, 243452, Note_off_c, 1, 32, 100
3, 243456, Note_on_c, 1, 32, 70
3, 243548, Note_off_c, 1, 44, 100
3, 243552, Note_on_c, 1, 44, 70
3, 243644, Note_off_c, 1, 32, 100
3, 243648, Note_on_c, 1, 32, 70
3, 243740, Note_off_c, 1, 44, 100
3, 243744, Note_on_c, 1, 44, 70
3, 243836, Note_off_c, 1, 32, 100
3, 243840, Note_on_c, 1, 32, 70
3, 243932, Note_off_c, 1, 44, 100
3, 243936, Note_on_c, 1, 44, 70
3, 244028, Note_off_c, 1, 32, 100
3, 244032, Note_on_c, 1, 32, 70
3, 244124, Note_off_c, 1, 44, 100
3, 244128, Note_on_c, 1, 44, 70
3, 244216, Control_c, 1, 64, 0
3, 244220, Note_off_c, 1, 32, 100
3, 244224, Control_c, 1, 64, 127
3, 244224, Note_on_c, 1, 32, 70
3, 244316, Note_off_c, 1, 44, 100
3, 244320, Note_on_c, 1, 44, 70
3, 244412, Note_off_c, 1, 32, 100
3, 244416, Note_on_c, 1, 32, 70
3, 244508, Note_off_c, 1, 44, 100
3, 244512, Note_on_c, 1, 44, 70
3, 244604, Note_off_c, 1, 32, 100
3, 244608, Note_on_c, 1, 32, 70
3, 244700, Note_off_c, 1, 44, 100
3, 244704, Note_on_c, 1, 44, 70
3, 244796, Note_off_c, 1, 32, 100
3, 244800, Note_on_c, 1, 32, 70
3, 244892, Note_off_c, 1, 44, 100
3, 244896, Note_on_c, 1, 44, 70
3, 244988, Note_off_c, 1, 32, 100
3, 244992, Note_on_c, 1, 32, 70
3, 245084, Note_off_c, 1, 44, 100
3, 245088, Note_on_c, 1, 44, 70
3, 245180, Note_off_c, 1, 32, 100
3, 245184, Note_on_c, 1, 32, 70
3, 245276, Note_off_c, 1, 44, 100
3, 245280, Note_on_c, 1, 44, 70
3, 245372, Note_off_c, 1, 32, 100
3, 245376, Note_on_c, 1, 32, 70
3, 245468, Note_off_c, 1, 44, 100
3, 245472, Note_on_c, 1, 44, 70
3, 245564, Note_off_c, 1, 32, 100
3, 245568, Note_on_c, 1, 32, 70
3, 245660, Note_off_c, 1, 44, 100
3, 245664, Note_on_c, 1, 44, 70
3, 245752, Control_c, 1, 64, 0
3, 245756, Note_off_c, 1, 32, 100
3, 245760, Control_c, 1, 64, 127
3, 245760, Note_on_c, 1, 32, 70
3, 245852, Note_off_c, 1, 44, 100
3, 245856, Note_on_c, 1, 44, 70
3, 245948, Note_off_c, 1, 32, 100
3, 245952, Note_on_c, 1, 32, 70
3, 246044, Note_off_c, 1, 44, 100
3, 246048, Note_on_c, 1, 44, 70
3, 246140, Note_off_c, 1, 32, 100
3, 246144, Note_on_c, 1, 32, 70
3, 246236, Note_off_c, 1, 44, 100
3, 246240, Note_on_c, 1, 44, 70
3, 246332, Note_off_c, 1, 32, 100
3, 246336, Note_on_c, 1, 32, 70
3, 246428, Note_off_c, 1, 44, 100
3, 246432, Note_on_c, 1, 44, 70
3, 246524, Note_off_c, 1, 32, 100
3, 246528, Note_on_c, 1, 32, 70
3, 246620, Note_off_c, 1, 44, 100
3, 246624, Note_on_c, 1, 44, 70
3, 246716, Note_off_c, 1, 32, 100
3, 246720, Note_on_c, 1, 32, 70
3, 246812, Note_off_c, 1, 44, 100
3, 246816, Note_on_c, 1, 44, 70
3, 246908, Note_off_c, 1, 32, 100
3, 246912, Note_on_c, 1, 32, 70
3, 247004, Note_off_c, 1, 44, 100
3, 247008, Note_on_c, 1, 44, 70
3, 247100, Note_off_c, 1, 32, 100
3, 247104, Note_on_c, 1, 32, 70
3, 247196, Note_off_c, 1, 44, 100
3, 247200, Note_on_c, 1, 44, 70
3, 247288, Control_c, 1, 64, 0
3, 247292, Note_off_c, 1, 32, 100
3, 247296, Control_c, 1, 64, 127
3, 247296, Note_on_c, 1, 32, 70
3, 247388, Note_off_c, 1, 44, 100
3, 247392, Note_on_c, 1, 44, 70
3, 247484, Note_off_c, 1, 32, 100
3, 247488, Note_on_c, 1, 32, 70
3, 247580, Note_off_c, 1, 44, 100
3, 247584, Note_on_c, 1, 44, 70
3, 247676, Note_off_c, 1, 32, 100
3, 247680, Note_on_c, 1, 32, 70
3, 247772, Note_off_c, 1, 44, 100
3, 247776, Note_on_c, 1, 44, 70
3, 247868, Note_off_c, 1, 32, 100
3, 247872, Note_on_c, 1, 32, 70
3, 247964, Note_off_c, 1, 44, 100
3, 247968, Note_on_c, 1, 44, 70
3, 248060, Note_off_c, 1, 32, 100
3, 248064, Note_on_c, 1, 32, 70
3, 248156, Note_off_c, 1, 44, 100
3, 248160, Note_on_c, 1, 44, 70
3, 248252, Note_off_c, 1, 32, 100
3, 248256, Note_on_c, 1, 32, 70
3, 248348, Note_off_c, 1, 44, 100
3, 248352, Note_on_c, 1, 44, 70
3, 248444, Note_off_c, 1, 32, 100
3, 248448, Note_on_c, 1, 32, 70
3, 248540, Note_off_c, 1, 44, 100
3, 248544, Note_on_c, 1, 44, 70
3, 248636, Note_off_c, 1, 32, 100
3, 248640, Note_on_c, 1, 32, 70
3, 248732, Note_off_c, 1, 44, 100
3, 248736, Note_on_c, 1, 44, 70
3, 248824, Control_c, 1, 64, 0
3, 248828, Note_off_c, 1, 32, 100
3, 248832, Control_c, 1, 64, 127
3, 248832, Note_on_c, 1, 32, 70
3, 248924, Note_off_c, 1, 44, 100
3, 248928, Note_on_c, 1, 44, 70
3, 249020, Note_off_c, 1, 32, 100
3, 249024, Note_on_c, 1, 32, 70
3, 249116, Note_off_c, 1, 44, 100
3, 249120, Note_on_c, 1, 44, 70
3, 249212, Note_off_c, 1, 32, 100
3, 249216, Note_on_c, 1, 32, 70
3, 249308, Note_off_c, 1, 44, 100
3, 249312, Note_on_c, 1, 44, 70
3, 249404, Note_off_c, 1, 32, 100
3, 249408, Note_on_c, 1, 32, 70
3, 249500, Note_off_c, 1, 44, 100
3, 249504, Note_on_c, 1, 44, 70
3, 249596, Note_off_c, 1, 32, 100
3, 249600, Note_on_c, 1, 32, 70
3, 249692, Note_off_c, 1, 44, 100
3, 249696, Note_on_c, 1, 44, 70
3, 249788, Note_off_c, 1, 32, 100
3, 249792, Note_on_c, 1, 32, 70
3, 249884, Note_off_c, 1, 44, 100
3, 249888, Note_on_c, 1, 44, 70
3, 249980, Note_off_c, 1, 32, 100
3, 249984, Note_on_c, 1, 32, 70
3, 250076, Note_off_c, 1, 44, 100
3, 250080, Note_on_c, 1, 44, 70
3, 250172, Note_off_c, 1, 32, 100
3, 250176, Note_on_c, 1, 32, 70
3, 250268, Note_off_c, 1, 44, 100
3, 250272, Note_on_c, 1, 44, 70
3, 250360, Control_c, 1, 64, 0
3, 250364, Note_off_c, 1, 32, 100
3, 250368, Control_c, 1, 64, 127
3, 250368, Note_on_c, 1, 32, 70
3, 250460, Note_off_c, 1, 44, 100
3, 250464, Note_on_c, 1, 44, 70
3, 250556, Note_off_c, 1, 32, 100
3, 250560, Note_on_c, 1, 32, 70
3, 250652, Note_off_c, 1, 44, 100
3, 250656, Note_on_c, 1, 44, 70
3, 250748, Note_off_c, 1, 32, 100
3, 250752, Note_on_c, 1, 32, 70
3, 250844, Note_off_c, 1, 44, 100
3, 250848, Note_on_c, 1, 44, 70
3, 250940, Note_off_c, 1, 32, 100
3, 250944, Note_on_c, 1, 32, 70
3, 251036, Note_off_c, 1, 44, 100
3, 251040, Note_on_c, 1, 44, 70
3, 251132, Note_off_c, 1, 32, 100
3, 251136, Note_on_c, 1, 32, 70
3, 251228, Note_off_c, 1, 44, 100
3, 251232, Note_on_c, 1, 44, 70
3, 251324, Note_off_c, 1, 32, 100
3, 251328, Note_on_c, 1, 32, 70
3, 251420, Note_off_c, 1, 44, 100
3, 251424, Note_on_c, 1, 44, 70
3, 251516, Note_off_c, 1, 32, 100
3, 251520, Note_on_c, 1, 32, 70
3, 251612, Note_off_c, 1, 44, 100
3, 251616, Note_on_c, 1, 44, 70
3, 251708, Note_off_c, 1, 32, 100
3, 251712, Note_on_c, 1, 32, 70
3, 251804, Note_off_c, 1, 44, 100
3, 251808, Note_on_c, 1, 44, 70
3, 251896, Control_c, 1, 64, 0
3, 251900, Note_off_c, 1, 32, 100
3, 251904, Control_c, 1, 64, 127
3, 251904, Note_on_c, 1, 32, 70
3, 251996, Note_off_c, 1, 44, 100
3, 252000, Note_on_c, 1, 44, 70
3, 252092, Note_off_c, 1, 32, 100
3, 252096, Note_on_c, 1, 32, 70
3, 252188, Note_off_c, 1, 44, 100
3, 252192, Note_on_c, 1, 44, 70
3, 252284, Note_off_c, 1, 32, 100
3, 252288, Note_on_c, 1, 32, 70
3, 252380, Note_off_c, 1, 44, 100
3, 252384, Note_on_c, 1, 44, 70
3, 252476, Note_off_c, 1, 32, 100
3, 252480, Note_on_c, 1, 32, 70
3, 252572, Note_off_c, 1, 44, 100
3, 252576, Note_on_c, 1, 44, 70
3, 252664, Control_c, 1, 64, 0
3, 252668, Note_off_c, 1, 32, 100
3, 252672, Control_c, 1, 64, 127
3, 252672, Note_on_c, 1, 33, 70
3, 252764, Note_off_c, 1, 44, 100
3, 252768, Note_on_c, 1, 45, 70
3, 252860, Note_off_c, 1, 33, 100
3, 252864, Note_on_c, 1, 33, 70
3, 252956, Note_off_c, 1, 45, 100
3, 252960, Note_on_c, 1, 45, 70
3, 253052, Note_off_c, 1, 33, 100
3, 253056, Note_on_c, 1, 33, 70
3, 253148, Note_off_c, 1, 45, 100
3, 253152, Note_on_c, 1, 45, 70
3, 253244, Note_off_c, 1, 33, 100
3, 253248, Note_on_c, 1, 33, 70
3, 253340, Note_off_c, 1, 45, 100
3, 253344, Note_on_c, 1, 45, 70
3, 253432, Control_c, 1, 64, 0
3, 253436, Note_off_c, 1, 33, 100
3, 253440, Note_on_c, 1, 30, 80
3, 253440, Note_on_c, 1, 42, 80
3, 253532, Note_off_c, 1, 45, 100
3, 254972, Note_off_c, 1, 30, 100
3, 254972, Note_off_c, 1, 42, 100
3, 254976, Note_on_c, 1, 44, 70
3, 254976, Note_on_c, 1, 32, 70
3, 258044, Note_off_c, 1, 32, 100
3, 258044, Note_off_c, 1, 44, 100
3, 258048, Note_on_c, 1, 37, 80
3, 258236, Note_off_c, 1, 37, 100
3, 258240, Note_on_c, 1, 44, 80
3, 258428, Note_off_c, 1, 44, 100
3, 258432, Note_on_c, 1, 37, 80
3, 258620, Note_off_c, 1, 37, 100
3, 258624, Note_on_c, 1, 44, 80
3, 258812, Note_off_c, 1, 44, 100
3, 258816, Note_on_c, 1, 37, 80
3, 259004, Note_off_c, 1, 37, 100
3, 259008, Note_on_c, 1, 44, 80
3, 259196, Note_off_c, 1, 44, 100
3, 259200, Note_on_c, 1, 37, 80
3, 259388, Note_off_c, 1, 37, 100
3, 259392, Note_on_c, 1, 44, 80
3, 259580, Note_off_c, 1, 44, 100
3, 259584, Note_on_c, 1, 37, 80
3, 259772, Note_off_c, 1, 37, 100
3, 259776, Note_on_c, 1, 44, 80
3, 259964, Note_off_c, 1, 44, 100
3, 259968, Note_on_c, 1, 37, 80
3, 260156, Note_off_c, 1, 37, 100
3, 260160, Note_on_c, 1, 44, 80
3, 260348, Note_off_c, 1, 44, 100
3, 260352, Note_on_c, 1, 37, 80
3, 260540, Note_off_c, 1, 37, 100
3, 260544, Note_on_c, 1, 44, 80
3, 260732, Note_off_c, 1, 44, 100
3, 260736, Note_on_c, 1, 49, 100
3, 260736, Note_on_c, 1, 37, 100
3, 260928, Note_on_c, 1, 44, 100
3, 261116, Note_off_c, 1, 49, 100
3, 261116, Note_off_c, 1, 37, 100
3, 261116, Note_off_c, 1, 44, 100
3, 261120, Note_on_c, 1, 36, 80
3, 261308, Note_off_c, 1, 36, 100
3, 261312, Note_on_c, 1, 44, 80
3, 261500, Note_off_c, 1, 44, 100
3, 261504, Note_on_c, 1, 36, 80
3, 261692, Note_off_c, 1, 36, 100
3, 261696, Note_on_c, 1, 44, 80
3, 261884, Note_off_c, 1, 44, 100
3, 261888, Note_on_c, 1, 36, 80
3, 262076, Note_off_c, 1, 36, 100
3, 262080, Note_on_c, 1, 44, 80
3, 262268, Note_off_c, 1, 44, 100
3, 262272, Note_on_c, 1, 36, 80
3, 262460, Note_off_c, 1, 36, 100
3, 262464, Note_on_c, 1, 44, 80
3, 262652, Note_off_c, 1, 44, 100
3, 262656, Note_on_c, 1, 36, 80
3, 262844, Note_off_c, 1, 36, 100
3, 262848, Note_on_c, 1, 44, 80
3, 263036, Note_off_c, 1, 44, 100
3, 263040, Note_on_c, 1, 36, 80
3, 263228, Note_off_c, 1, 36, 100
3, 263232, Note_on_c, 1, 44, 80
3, 263420, Note_off_c, 1, 44, 100
3, 263424, Note_on_c, 1, 36, 80
3, 263612, Note_off_c, 1, 36, 100
3, 263616, Note_on_c, 1, 44, 80
3, 263804, Note_off_c, 1, 44, 100
3, 263808, Note_on_c, 1, 36, 110
3, 263808, Note_on_c, 1, 48, 110
3, 264000, Note_on_c, 1, 44, 110
3, 264188, Note_off_c, 1, 36, 100
3, 264188, Note_off_c, 1, 48, 100
3, 264188, Note_off_c, 1, 44, 100
3, 264192, Note_on_c, 1, 35, 80
3, 264380, Note_off_c, 1, 35, 100
3, 264384, Note_on_c, 1, 44, 80
3, 264572, Note_off_c, 1, 44, 100
3, 264576, Note_on_c, 1, 35, 80
3, 264764, Note_off_c, 1, 35, 100
3, 264768, Note_on_c, 1, 44, 80
3, 264956, Note_off_c, 1, 44, 100
3, 264960, Note_on_c, 1, 35, 80
3, 265148, Note_off_c, 1, 35, 100
3, 265152, Note_on_c, 1, 44, 80
3, 265340, Note_off_c, 1, 44, 100
3, 265344, Note_on_c, 1, 35, 80
3, 265532, Note_off_c, 1, 35, 100
3, 265536, Note_on_c, 1, 44, 80
3, 265724, Note_off_c, 1, 44, 100
3, 265728, Note_on_c, 1, 35, 80
3, 265916, Note_off_c, 1, 35, 100
3, 265920, Note_on_c, 1, 44, 80
3, 266108, Note_off_c, 1, 44, 100
3, 266112, Note_on_c, 1, 35, 80
3, 266300, Note_off_c, 1, 35, 100
3, 266304, Note_on_c, 1, 44, 80
3, 266492, Note_off_c, 1, 44, 100
3, 266496, Note_on_c, 1, 35, 80
3, 266684, Note_off_c, 1, 35, 100
3, 266688, Note_on_c, 1, 44, 80
3, 266876, Note_off_c, 1, 44, 100
3, 266880, Note_on_c, 1, 35, 110
3, 266880, Note_on_c, 1, 47, 110
3, 267072, Note_on_c, 1, 44, 110
3, 267260, Note_off_c, 1, 35, 100
3, 267260, Note_off_c, 1, 47, 100
3, 267260, Note_off_c, 1, 44, 100
3, 267264, Note_on_c, 1, 33, 90
3, 267452, Note_off_c, 1, 33, 100
3, 267456, Note_on_c, 1, 44, 90
3, 267644, Note_off_c, 1, 44, 100
3, 267648, Note_on_c, 1, 33, 90
3, 267836, Note_off_c, 1, 33, 100
3, 267840, Note_on_c, 1, 44, 90
3, 268028, Note_off_c, 1, 44, 100
3, 268032, Note_on_c, 1, 33, 90
3, 268220, Note_off_c, 1, 33, 100
3, 268224, Note_on_c, 1, 44, 90
3, 268412, Note_off_c, 1, 44, 100
3, 268416, Note_on_c, 1, 33, 110
3, 268608, Note_on_c, 1, 44, 110
3, 268796, Note_off_c, 1, 33, 100
3, 268796, Note_off_c, 1, 44, 100
3, 268800, Note_on_c, 1, 33, 90
3, 268988, Note_off_c, 1, 33, 100
3, 268992, Note_on_c, 1, 45, 90
3, 269180, Note_off_c, 1, 45, 100
3, 269184, Note_on_c, 1, 33, 90
3, 269372, Note_off_c, 1, 33, 100
3, 269376, Note_on_c, 1, 45, 90
3, 269564, Note_off_c, 1, 45, 100
3, 269568, Note_on_c, 1, 33, 90
3, 269756, Note_off_c, 1, 33, 100
3, 269760, Note_on_c, 1, 45, 90
3, 269948, Note_off_c, 1, 45, 100
3, 269952, Note_on_c, 1, 33, 110
3, 270144, Note_on_c, 1, 45, 110
3, 270332, Note_off_c, 1, 33, 100
3, 270332, Note_off_c, 1, 45, 100
3, 270336, Note_on_c, 1, 32, 110
3, 270336, Note_on_c, 1, 44, 110
3, 270528, Note_on_c, 1, 60, 110
3, 270528, Note_on_c, 1, 56, 110
3, 270716, Note_off_c, 1, 32, 100
3, 270716, Note_off_c, 1, 44, 100
3, 270716, Note_off_c, 1, 60, 100
3, 270720, Note_on_c, 1, 60, 110
3, 270908, Note_off_c, 1, 60, 100
3, 270912, Note_on_c, 1, 61, 110
3, 271100, Note_off_c, 1, 61, 100
3, 271104, Note_on_c, 1, 63, 110
3, 271292, Note_off_c, 1, 63, 100
3, 271296, Note_on_c, 1, 64, 110
3, 271484, Note_off_c, 1, 64, 100
3, 271488, Note_on_c, 1, 66, 110
3, 271676, Note_off_c, 1, 66, 100
3, 271680, Note_on_c, 1, 64, 110
3, 271868, Note_off_c, 1, 64, 100
3, 271872, Note_on_c, 1, 66, 110
3, 272060, Note_off_c, 1, 66, 100
3, 272064, Note_on_c, 1, 64, 110
3, 272252, Note_off_c, 1, 64, 100
3, 272256, Note_on_c, 1, 69, 110
3, 272444, Note_off_c, 1, 69, 100
3, 272448, Note_on_c, 1, 68, 110
3, 272636, Note_off_c, 1, 68, 100
3, 272640, Note_on_c, 1, 66, 110
3, 272828, Note_off_c, 1, 66, 100
3, 272832, Note_on_c, 1, 64, 110
3, 273020, Note_off_c, 1, 64, 100
3, 273024, Note_on_c, 1, 63, 110
3, 273212, Note_off_c, 1, 63, 100
3, 273216, Note_on_c, 1, 61, 110
3, 273404, Note_off_c, 1, 56, 100
3, 273404, Note_off_c, 1, 61, 100
3, 273408, Note_on_c, 1, 56, 110
3, 273408, Note_on_c, 1, 60, 110
3, 273596, Note_off_c, 1, 60, 100
3, 273600, Note_on_c, 1, 60, 110
3, 273788, Note_off_c, 1, 60, 100
3, 273792, Note_on_c, 1, 60, 110
3, 273980, Note_off_c, 1, 60, 100
3, 273984, Note_on_c, 1, 61, 110
3, 274172, Note_off_c, 1, 61, 100
3, 274176, Note_on_c, 1, 63, 110
3, 274364, Note_off_c, 1, 63, 100
3, 274368, Note_on_c, 1, 64, 110
3, 274556, Note_off_c, 1, 64, 100
3, 274560, Note_on_c, 1, 66, 110
3, 274748, Note_off_c, 1, 66, 100
3, 274752, Note_on_c, 1, 64, 110
3, 274940, Note_off_c, 1, 64, 100
3, 274944, Note_on_c, 1, 66, 110
3, 275132, Note_off_c, 1, 66, 100
3, 275136, Note_on_c, 1, 64, 110
3, 275324, Note_off_c, 1, 64, 100
3, 275328, Note_on_c, 1, 69, 110
3, 275516, Note_off_c, 1, 69, 100
3, 275520, Note_on_c, 1, 68, 110
3, 275708, Note_off_c, 1, 68, 100
3, 275712, Note_on_c, 1, 66, 110
3, 275900, Note_off_c, 1, 66, 100
3, 275904, Note_on_c, 1, 64, 110
3, 276092, Note_off_c, 1, 64, 100
3, 276096, Note_on_c, 1, 63, 110
3, 276284, Note_off_c, 1, 63, 100
3, 276288, Note_on_c, 1, 61, 110
3, 276476, Note_off_c, 1, 56, 100
3, 276476, Note_off_c, 1, 61, 100
3, 276480, Note_on_c, 1, 60, 110
3, 276480, Note_on_c, 1, 56, 110
3, 276668, Note_off_c, 1, 60, 100
3, 276668, Note_off_c, 1, 56, 100
3, 276672, Note_on_c, 1, 61, 110
3, 276672, Note_on_c, 1, 56, 110
3, 276860, Note_off_c, 1, 61, 100
3, 276860, Note_off_c, 1, 56, 100
3, 276864, Note_on_c, 1, 60, 110
3, 276864, Note_on_c, 1, 56, 110
3, 277052, Note_off_c, 1, 60, 100
3, 277052, Note_off_c, 1, 56, 100
3, 277056, Note_on_c, 1, 61, 110
3, 277056, Note_on_c, 1, 56, 110
3, 277244, Note_off_c, 1, 61, 100
3, 277244, Note_off_c, 1, 56, 100
3, 277248, Note_on_c, 1, 60, 110
3, 277248, Note_on_c, 1, 56, 110
3, 277436, Note_off_c, 1, 60, 100
3, 277436, Note_off_c, 1, 56, 100
3, 277440, Note_on_c, 1, 61, 110
3, 277440, Note_on_c, 1, 56, 110
3, 277628, Note_off_c, 1, 61, 100
3, 277628, Note_off_c, 1, 56, 100
3, 277632, Note_on_c, 1, 60, 110
3, 277632, Note_on_c, 1, 56, 110
3, 277820, Note_off_c, 1, 60, 100
3, 277820, Note_off_c, 1, 56, 100
3, 277824, Note_on_c, 1, 61, 110
3, 277824, Note_on_c, 1, 56, 110
3, 278012, Note_off_c, 1, 61, 100
3, 278012, Note_off_c, 1, 56, 100
3, 278016, Note_on_c, 1, 56, 110
3, 278016, Note_on_c, 1, 60, 110
3, 278396, Note_off_c, 1, 56, 100
3, 278396, Note_off_c, 1, 60, 100
3, 278400, Note_on_c, 1, 44, 110
3, 278400, Note_on_c, 1, 32, 110
3, 281084, Note_off_c, 1, 32, 100
3, 281084, Note_off_c, 1, 44, 100
3, 281088, Control_c, 1, 64, 127
3, 281088, Note_on_c, 1, 49, 70
3, 281184, Note_on_c, 1, 56, 70
3, 281276, Note_off_c, 1, 49, 100
3, 281280, Note_on_c, 1, 52, 70
3, 281372, Note_off_c, 1, 56, 100
3, 281376, Note_on_c, 1, 56, 70
3, 281468, Note_off_c, 1, 52, 100
3, 281472, Note_on_c, 1, 49, 70
3, 281564, Note_off_c, 1, 56, 100
3, 281568, Note_on_c, 1, 56, 70
3, 281660, Note_off_c, 1, 49, 100
3, 281664, Note_on_c, 1, 52, 70
3, 281756, Note_off_c, 1, 56, 100
3, 281760, Note_on_c, 1, 56, 70
3, 281852, Note_off_c, 1, 52, 100
3, 281856, Note_on_c, 1, 49, 70
3, 281948, Note_off_c, 1, 56, 100
3, 281952, Note_on_c, 1, 56, 70
3, 282044, Note_off_c, 1, 49, 100
3, 282048, Note_on_c, 1, 52, 70
3, 282140, Note_off_c, 1, 56, 100
3, 282144, Note_on_c, 1, 56, 70
3, 282236, Note_off_c, 1, 52, 100
3, 282240, Note_on_c, 1, 49, 70
3, 282332, Note_off_c, 1, 56, 100
3, 282336, Note_on_c, 1, 56, 70
3, 282428, Note_off_c, 1, 49, 100
3, 282432, Note_on_c, 1, 52, 70
3, 282524, Note_off_c, 1, 56, 100
3, 282528, Note_on_c, 1, 56, 70
3, 282616, Control_c, 1, 64, 0
3, 282620, Note_off_c, 1, 52, 100
3, 282624, Control_c, 1, 64, 127
3, 282624, Note_on_c, 1, 51, 70
3, 282716, Note_off_c, 1, 56, 100
3, 282720, Note_on_c, 1, 56, 70
3, 282812, Note_off_c, 1, 51, 100
3, 282816, Note_on_c, 1, 54, 70
3, 282908, Note_off_c, 1, 56, 100
3, 282912, Note_on_c, 1, 56, 70
3, 283004, Note_off_c, 1, 54, 100
3, 283008, Note_on_c, 1, 51, 70
3, 283100, Note_off_c, 1, 56, 100
3, 283104, Note_on_c, 1, 56, 70
3, 283196, Note_off_c, 1, 51, 100
3, 283200, Note_on_c, 1, 54, 70
3, 283292, Note_off_c, 1, 56, 100
3, 283296, Note_on_c, 1, 56, 70
3, 283388, Note_off_c, 1, 54, 100
3, 283392, Note_on_c, 1, 51, 70
3, 283484, Note_off_c, 1, 56, 100
3, 283488, Note_on_c, 1, 56, 70
3, 283580, Note_off_c, 1, 51, 100
3, 283584, Note_on_c, 1, 54, 70
3, 283676, Note_off_c, 1, 56, 100
3, 283680, Note_on_c, 1, 56, 70
3, 283772, Note_off_c, 1, 54, 100
3, 283776, Note_on_c, 1, 51, 70
3, 283868, Note_off_c, 1, 56, 100
3, 283872, Note_on_c, 1, 56, 70
3, 283964, Note_off_c, 1, 51, 100
3, 283968, Note_on_c, 1, 54, 70
3, 284060, Note_off_c, 1, 56, 100
3, 284064, Note_on_c, 1, 56, 70
3, 284152, Control_c, 1, 64, 0
3, 284156, Note_off_c, 1, 54, 100
3, 284160, Control_c, 1, 64, 127
3, 284160, Note_on_c, 1, 52, 70
3, 284252, Note_off_c, 1, 56, 100
3, 284256, Note_on_c, 1, 56, 70
3, 284348, Note_off_c, 1, 52, 100
3, 284352, Note_on_c, 1, 52, 70
3, 284444, Note_off_c, 1, 56, 100
3, 284448, Note_on_c, 1, 56, 70
3, 284540, Note_off_c, 1, 52, 100
3, 284544, Note_on_c, 1, 52, 70
3, 284636, Note_off_c, 1, 56, 100
3, 284640, Note_on_c, 1, 56, 70
3, 284732, Note_off_c, 1, 52, 100
3, 284736, Note_on_c, 1, 52, 70
3, 284828, Note_off_c, 1, 56, 100
3, 284832, Note_on_c, 1, 56, 70
3, 284924, Note_off_c, 1, 52, 100
3, 284928, Note_on_c, 1, 52, 70
3, 285020, Note_off_c, 1, 56, 100
3, 285024, Note_on_c, 1, 56, 70
3, 285116, Note_off_c, 1, 52, 100
3, 285120, Note_on_c, 1, 52, 70
3, 285212, Note_off_c, 1, 56, 100
3, 285216, Note_on_c, 1, 56, 70
3, 285308, Note_off_c, 1, 52, 100
3, 285312, Note_on_c, 1, 52, 70
3, 285404, Note_off_c, 1, 56, 100
3, 285408, Note_on_c, 1, 56, 70
3, 285500, Note_off_c, 1, 52, 100
3, 285504, Note_on_c, 1, 52, 70
3, 285596, Note_off_c, 1, 56, 100
3, 285600, Note_on_c, 1, 56, 70
3, 285688, Control_c, 1, 64, 0
3, 285692, Note_off_c, 1, 52, 100
3, 285696, Control_c, 1, 64, 127
3, 285696, Note_on_c, 1, 48, 70
3, 285788, Note_off_c, 1, 56, 100
3, 285792, Note_on_c, 1, 56, 70
3, 285884, Note_off_c, 1, 48, 100
3, 285888, Note_on_c, 1, 48, 70
3, 285980, Note_off_c, 1, 56, 100
3, 285984, Note_on_c, 1, 56, 70
3, 286076, Note_off_c, 1, 48, 100
3, 286080, Note_on_c, 1, 48, 70
3, 286172, Note_off_c, 1, 56, 100
3, 286176, Note_on_c, 1, 56, 70
3, 286268, Note_off_c, 1, 48, 100
3, 286272, Note_on_c, 1, 48, 70
3, 286364, Note_off_c, 1, 56, 100
3, 286368, Note_on_c, 1, 56, 70
3, 286460, Note_off_c, 1, 48, 100
3, 286464, Note_on_c, 1, 48, 70
3, 286556, Note_off_c, 1, 56, 100
3, 286560, Note_on_c, 1, 56, 70
3, 286652, Note_off_c, 1, 48, 100
3, 286656, Note_on_c, 1, 48, 70
3, 286748, Note_off_c, 1, 56, 100
3, 286752, Note_on_c, 1, 56, 70
3, 286844, Note_off_c, 1, 48, 100
3, 286848, Note_on_c, 1, 48, 70
3, 286940, Note_off_c, 1, 56, 100
3, 286944, Note_on_c, 1, 56, 70
3, 287036, Note_off_c, 1, 48, 100
3, 287040, Note_on_c, 1, 48, 70
3, 287132, Note_off_c, 1, 56, 100
3, 287136, Note_on_c, 1, 56, 70
3, 287224, Control_c, 1, 64, 0
3, 287228, Note_off_c, 1, 48, 100
3, 287232, Control_c, 1, 64, 127
3, 287232, Note_on_c, 1, 49, 70
3, 287324, Note_off_c, 1, 56, 100
3, 287328, Note_on_c, 1, 56, 70
3, 287420, Note_off_c, 1, 49, 100
3, 287424, Note_on_c, 1, 52, 70
3, 287516, Note_off_c, 1, 56, 100
3, 287520, Note_on_c, 1, 56, 71
3, 287612, Note_off_c, 1, 52, 100
3, 287616, Note_on_c, 1, 49, 71
3, 287708, Note_off_c, 1, 56, 100
3, 287712, Note_on_c, 1, 56, 72
3, 287804, Note_off_c, 1, 49, 100
3, 287808, Note_on_c, 1, 52, 72
3, 287900, Note_off_c, 1, 56, 100
3, 287904, Note_on_c, 1, 56, 73
3, 287996, Note_off_c, 1, 52, 100
3, 288000, Note_on_c, 1, 49, 73
3, 288092, Note_off_c, 1, 56, 100
3, 288096, Note_on_c, 1, 56, 74
3, 288188, Note_off_c, 1, 49, 100
3, 288192, Note_on_c, 1, 52, 74
3, 288284, Note_off_c, 1, 56, 100
3, 288288, Note_on_c, 1, 56, 75
3, 288380, Note_off_c, 1, 52, 100
3, 288384, Note_on_c, 1, 49, 75
3, 288476, Note_off_c, 1, 56, 100
3, 288480, Note_on_c, 1, 56, 76
3, 288572, Note_off_c, 1, 49, 100
3, 288576, Note_on_c, 1, 52, 76
3, 288668, Note_off_c, 1, 56, 100
3, 288672, Note_on_c, 1, 56, 77
3, 288760, Control_c, 1, 64, 0
3, 288764, Note_off_c, 1, 52, 100
3, 288768, Control_c, 1, 64, 127
3, 288768, Note_on_c, 1, 51, 77
3, 288860, Note_off_c, 1, 56, 100
3, 288864, Note_on_c, 1, 56, 77
3, 288956, Note_off_c, 1, 51, 100
3, 288960, Note_on_c, 1, 54, 78
3, 289052, Note_off_c, 1, 56, 100
3, 289056, Note_on_c, 1, 56, 78
3, 289148, Note_off_c, 1, 54, 100
3, 289152, Note_on_c, 1, 51, 79
3, 289244, Note_off_c, 1, 56, 100
3, 289248, Note_on_c, 1, 56, 79
3, 289340, Note_off_c, 1, 51, 100
3, 289344, Note_on_c, 1, 54, 80
3, 289436, Note_off_c, 1, 56, 100
3, 289440, Note_on_c, 1, 56, 80
3, 289532, Note_off_c, 1, 54, 100
3, 289536, Note_on_c, 1, 51, 81
3, 289628, Note_off_c, 1, 56, 100
3, 289632, Note_on_c, 1, 56, 81
3, 289724, Note_off_c, 1, 51, 100
3, 289728, Note_on_c, 1, 54, 82
3, 289820, Note_off_c, 1, 56, 100
3, 289824, Note_on_c, 1, 56, 82
3, 289916, Note_off_c, 1, 54, 100
3, 289920, Note_on_c, 1, 51, 83
3, 290012, Note_off_c, 1, 56, 100
3, 290016, Note_on_c, 1, 56, 83
3, 290108, Note_off_c, 1, 51, 100
3, 290112, Note_on_c, 1, 54, 84
3, 290204, Note_off_c, 1, 56, 100
3, 290208, Note_on_c, 1, 56, 84
3, 290296, Control_c, 1, 64, 0
3, 290300, Note_off_c, 1, 54, 100
3, 290304, Control_c, 1, 64, 127
3, 290304, Note_on_c, 1, 52, 84
3, 290396, Note_off_c, 1, 56, 100
3, 290400, Note_on_c, 1, 56, 85
3, 290492, Note_off_c, 1, 52, 100
3, 290496, Note_on_c, 1, 52, 85
3, 290588, Note_off_c, 1, 56, 100
3, 290592, Note_on_c, 1, 56, 86
3, 290684, Note_off_c, 1, 52, 100
3, 290688, Note_on_c, 1, 52, 86
3, 290780, Note_off_c, 1, 56, 100
3, 290784, Note_on_c, 1, 56, 87
3, 290876, Note_off_c, 1, 52, 100
3, 290880, Note_on_c, 1, 52, 87
3, 290972, Note_off_c, 1, 56, 100
3, 290976, Note_on_c, 1, 56, 88
3, 291068, Note_off_c, 1, 52, 100
3, 291072, Note_on_c, 1, 52, 88
3, 291164, Note_off_c, 1, 56, 100
3, 291168, Note_on_c, 1, 56, 89
3, 291260, Note_off_c, 1, 52, 100
3, 291264, Note_on_c, 1, 52, 89
3, 291356, Note_off_c, 1, 56, 100
3, 291360, Note_on_c, 1, 56, 90
3, 291452, Note_off_c, 1, 52, 100
3, 291456, Note_on_c, 1, 52, 90
3, 291548, Note_off_c, 1, 56, 100
3, 291552, Note_on_c, 1, 56, 91
3, 291644, Note_off_c, 1, 52, 100
3, 291648, Note_on_c, 1, 52, 91
3, 291740, Note_off_c, 1, 56, 100
3, 291744, Note_on_c, 1, 56, 92
3, 291832, Control_c, 1, 64, 0
3, 291836, Note_off_c, 1, 52, 100
3, 291840, Control_c, 1, 64, 127
3, 291840, Note_on_c, 1, 48, 92
3, 291932, Note_off_c, 1, 56, 100
3, 291936, Note_on_c, 1, 56, 92
3, 292028, Note_off_c, 1, 48, 100
3, 292032, Note_on_c, 1, 48, 93
3, 292124, Note_off_c, 1, 56, 100
3, 292128, Note_on_c, 1, 56, 93
3, 292220, Note_off_c, 1, 48, 100
3, 292224, Note_on_c, 1, 48, 94
3, 292316, Note_off_c, 1, 56, 100
3, 292320, Note_on_c, 1, 56, 94
3, 292412, Note_off_c, 1, 48, 100
3, 292416, Note_on_c, 1, 48, 95
3, 292508, Note_off_c, 1, 56, 100
3, 292512, Note_on_c, 1, 56, 95
3, 292604, Note_off_c, 1, 48, 100
3, 292608, Note_on_c, 1, 48, 96
3, 292700, Note_off_c, 1, 56, 100
3, 292704, Note_on_c, 1, 56, 96
3, 292796, Note_off_c, 1, 48, 100
3, 292800, Note_on_c, 1, 48, 97
3, 292892, Note_off_c, 1, 56, 100
3, 292896, Note_on_c, 1, 56, 97
3, 292988, Note_off_c, 1, 48, 100
3, 292992, Note_on_c, 1, 48, 98
3, 293084, Note_off_c, 1, 56, 100
3, 293088, Note_on_c, 1, 56, 98
3, 293180, Note_off_c, 1, 48, 100
3, 293184, Note_on_c, 1, 48, 99
3, 293276, Note_off_c, 1, 56, 100
3, 293280, Note_on_c, 1, 56, 99
3, 293368, Control_c, 1, 64, 0
3, 293372, Note_off_c, 1, 48, 100
3, 293376, Control_c, 1, 64, 127
3, 293376, Note_on_c, 1, 47, 100
3, 293468, Note_off_c, 1, 56, 100
3, 293472, Note_on_c, 1, 56, 100
3, 293564, Note_off_c, 1, 47, 100
3, 293568, Note_on_c, 1, 49, 100
3, 293660, Note_off_c, 1, 56, 100
3, 293664, Note_on_c, 1, 56, 100
3, 293756, Note_off_c, 1, 49, 100
3, 293760, Note_on_c, 1, 47, 100
3, 293852, Note_off_c, 1, 56, 100
3, 293856, Note_on_c, 1, 56, 100
3, 293948, Note_off_c, 1, 47, 100
3, 293952, Note_on_c, 1, 49, 100
3, 294044, Note_off_c, 1, 56, 100
3, 294048, Note_on_c, 1, 56, 100
3, 294136, Control_c, 1, 64, 0
3, 294140, Note_off_c, 1, 49, 100
3, 294144, Control_c, 1, 64, 127
3, 294144, Note_on_c, 1, 45, 100
3, 294236, Note_off_c, 1, 56, 100
3, 294240, Note_on_c, 1, 54, 100
3, 294332, Note_off_c, 1, 45, 100
3, 294336, Note_on_c, 1, 47, 100
3, 294428, Note_off_c, 1, 54, 100
3, 294432, Note_on_c, 1, 54, 100
3, 294524, Note_off_c, 1, 47, 100
3, 294528, Note_on_c, 1, 45, 100
3, 294620, Note_off_c, 1, 54, 100
3, 294624, Note_on_c, 1, 54, 100
3, 294716, Note_off_c, 1, 45, 100
3, 294720, Note_on_c, 1, 47, 100
3, 294812, Note_off_c, 1, 54, 100
3, 294816, Note_on_c, 1, 54, 100
3, 294904, Control_c, 1, 64, 0
3, 294908, Note_off_c, 1, 47, 100
3, 294912, Control_c, 1, 64, 127
3, 294912, Note_on_c, 1, 45, 100
3, 295004, Note_off_c, 1, 54, 100
3, 295008, Note_on_c, 1, 54, 100
3, 295100, Note_off_c, 1, 45, 100
3, 295104, Note_on_c, 1, 47, 100
3, 295196, Note_off_c, 1, 54, 100
3, 295200, Note_on_c, 1, 54, 100
3, 295292, Note_off_c, 1, 47, 100
3, 295296, Note_on_c, 1, 44, 100
3, 295388, Note_off_c, 1, 54, 100
3, 295392, Note_on_c, 1, 52, 100
3, 295484, Note_off_c, 1, 44, 100
3, 295488, Note_on_c, 1, 47, 100
3, 295580, Note_off_c, 1, 52, 100
3, 295584, Note_on_c, 1, 52, 100
3, 295676, Note_off_c, 1, 47, 100
3, 295680, Note_on_c, 1, 44, 100
3, 295772, Note_off_c, 1, 52, 100
3, 295776, Note_on_c, 1, 52, 100
3, 295868, Note_off_c, 1, 44, 100
3, 295872, Note_on_c, 1, 47, 100
3, 295964, Note_off_c, 1, 52, 100
3, 295968, Note_on_c, 1, 52, 100
3, 296060, Note_off_c, 1, 47, 100
3, 296064, Note_on_c, 1, 44, 100
3, 296156, Note_off_c, 1, 52, 100
3, 296160, Note_on_c, 1, 52, 100
3, 296252, Note_off_c, 1, 44, 100
3, 296256, Note_on_c, 1, 47, 100
3, 296348, Note_off_c, 1, 52, 100
3, 296352, Note_on_c, 1, 52, 100
3, 296440, Control_c, 1, 64, 0
3, 296444, Note_off_c, 1, 47, 100
3, 296448, Control_c, 1, 64, 127
3, 296448, Note_on_c, 1, 43, 100
3, 296540, Note_off_c, 1, 52, 100
3, 296544, Note_on_c, 1, 52, 100
3, 296636, Note_off_c, 1, 43, 100
3, 296640, Note_on_c, 1, 45, 100
3, 296732, Note_off_c, 1, 52, 100
3, 296736, Note_on_c, 1, 52, 100
3, 296828, Note_off_c, 1, 45, 100
3, 296832, Note_on_c, 1, 43, 100
3, 296924, Note_off_c, 1, 52, 100
3, 296928, Note_on_c, 1, 52, 100
3, 297020, Note_off_c, 1, 43, 100
3, 297024, Note_on_c, 1, 45, 100
3, 297116, Note_off_c, 1, 52, 100
3, 297120, Note_on_c, 1, 52, 100
3, 297208, Control_c, 1, 64, 0
3, 297212, Note_off_c, 1, 45, 100
3, 297216, Control_c, 1, 64, 127
3, 297216, Note_on_c, 1, 42, 100
3, 297308, Note_off_c, 1, 52, 100
3, 297312, Note_on_c, 1, 50, 100
3, 297404, Note_off_c, 1, 42, 100
3, 297408, Note_on_c, 1, 45, 100
3, 297500, Note_off_c, 1, 50, 100
3, 297504, Note_on_c, 1, 50, 100
3, 297596, Note_off_c, 1, 45, 100
3, 297600, Note_on_c, 1, 42, 100
3, 297692, Note_off_c, 1, 50, 100
3, 297696, Note_on_c, 1, 50, 100
3, 297788, Note_off_c, 1, 42, 100
3, 297792, Note_on_c, 1, 45, 100
3, 297884, Note_off_c, 1, 50, 100
3, 297888, Note_on_c, 1, 50, 100
3, 297976, Control_c, 1, 64, 0
3, 297980, Note_off_c, 1, 45, 100
3, 297984, Control_c, 1, 64, 127
3, 297984, Note_on_c, 1, 42, 100
3, 298076, Note_off_c, 1, 50, 100
3, 298080, Note_on_c, 1, 51, 100
3, 298172, Note_off_c, 1, 42, 100
3, 298176, Note_on_c, 1, 42, 100
3, 298268, Note_off_c, 1, 51, 100
3, 298272, Note_on_c, 1, 51, 100
3, 298360, Control_c, 1, 64, 0
3, 298364, Note_off_c, 1, 42, 100
3, 298368, Control_c, 1, 64, 127
3, 298368, Note_on_c, 1, 40, 100
3, 298460, Note_off_c, 1, 51, 100
3, 298464, Note_on_c, 1, 49, 100
3, 298556, Note_off_c, 1, 40, 100
3, 298560, Note_on_c, 1, 44, 100
3, 298652, Note_off_c, 1, 49, 100
3, 298656, Note_on_c, 1, 49, 100
3, 298748, Note_off_c, 1, 44, 100
3, 298752, Note_on_c, 1, 40, 100
3, 298844, Note_off_c, 1, 49, 100
3, 298848, Note_on_c, 1, 49, 100
3, 298940, Note_off_c, 1, 40, 100
3, 298944, Note_on_c, 1, 44, 100
3, 299036, Note_off_c, 1, 49, 100
3, 299040, Note_on_c, 1, 49, 100
3, 299132, Note_off_c, 1, 44, 100
3, 299136, Note_on_c, 1, 40, 100
3, 299228, Note_off_c, 1, 49, 100
3, 299232, Note_on_c, 1, 49, 100
3, 299324, Note_off_c, 1, 40, 100
3, 299328, Note_on_c, 1, 44, 100
3, 299420, Note_off_c, 1, 49, 100
3, 299424, Note_on_c, 1, 49, 100
3, 299512, Control_c, 1, 64, 0
3, 299516, Note_off_c, 1, 44, 100
3, 299520, Note_on_c, 1, 42, 120
3, 299520, Note_on_c, 1, 45, 120
3, 299520, Note_on_c, 1, 50, 120
3, 299520, Note_on_c, 1, 54, 120
3, 299612, Note_off_c, 1, 49, 100
3, 300668, Note_off_c, 1, 42, 100
3, 300668, Note_off_c, 1, 45, 100
3, 300668, Note_off_c, 1, 50, 100
3, 300668, Note_off_c, 1, 54, 100
3, 301056, Note_on_c, 1, 54, 80
3, 301056, Note_on_c, 1, 57, 80
3, 301056, Note_on_c, 1, 62, 80
3, 301436, Note_off_c, 1, 54, 100
3, 301436, Note_off_c, 1, 57, 100
3, 301436, Note_off_c, 1, 62, 100
3, 301824, Note_on_c, 1, 54, 80
3, 301824, Note_on_c, 1, 57, 80
3, 301824, Note_on_c, 1, 62, 80
3, 302204, Note_off_c, 1, 54, 100
3, 302204, Note_off_c, 1, 57, 100
3, 302204, Note_off_c, 1, 62, 100
3, 302592, Note_on_c, 1, 54, 80
3, 302592, Note_on_c, 1, 57, 80
3, 302592, Note_on_c, 1, 62, 80
3, 302972, Note_off_c, 1, 54, 100
3, 302972, Note_off_c, 1, 57, 100
3, 302972, Note_off_c, 1, 62, 100
3, 302976, Note_on_c, 1, 54, 84
3, 302976, Note_on_c, 1, 57, 84
3, 302976, Note_on_c, 1, 62, 84
3, 303356, Note_off_c, 1, 54, 100
3, 303356, Note_off_c, 1, 57, 100
3, 303356, Note_off_c, 1, 62, 100
3, 303360, Note_on_c, 1, 54, 89
3, 303360, Note_on_c, 1, 57, 89
3, 303360, Note_on_c, 1, 62, 89
3, 303740, Note_off_c, 1, 54, 100
3, 303740, Note_off_c, 1, 57, 100
3, 303740, Note_off_c, 1, 62, 100
3, 303744, Note_on_c, 1, 54, 94
3, 303744, Note_on_c, 1, 57, 94
3, 303744, Note_on_c, 1, 62, 94
3, 304124, Note_off_c, 1, 54, 100
3, 304124, Note_off_c, 1, 57, 100
3, 304124, Note_off_c, 1, 62, 100
3, 304128, Control_c, 1, 64, 127
3, 304128, Note_on_c, 1, 56, 70
3, 304224, Note_on_c, 1, 64, 71
3, 304316, Note_off_c, 1, 56, 100
3, 304320, Note_on_c, 1, 61, 72
3, 304412, Note_off_c, 1, 64, 100
3, 304416, Note_on_c, 1, 64, 73
3, 304508, Note_off_c, 1, 61, 100
3, 304512, Note_on_c, 1, 56, 74
3, 304604, Note_off_c, 1, 64, 100
3, 304608, Note_on_c, 1, 64, 76
3, 304700, Note_off_c, 1, 56, 100
3, 304704, Note_on_c, 1, 61, 77
3, 304796, Note_off_c, 1, 64, 100
3, 304800, Note_on_c, 1, 64, 78
3, 304888, Control_c, 1, 64, 0
3, 304892, Note_off_c, 1, 61, 100
3, 304896, Control_c, 1, 64, 127
3, 304896, Note_on_c, 1, 56, 79
3, 304988, Note_off_c, 1, 64, 100
3, 304992, Note_on_c, 1, 66, 81
3, 305084, Note_off_c, 1, 56, 100
3, 305088, Note_on_c, 1, 60, 82
3, 305180, Note_off_c, 1, 66, 100
3, 305184, Note_on_c, 1, 66, 83
3, 305276, Note_off_c, 1, 60, 100
3, 305280, Note_on_c, 1, 56, 84
3, 305372, Note_off_c, 1, 66, 100
3, 305376, Note_on_c, 1, 66, 86
3, 305468, Note_off_c, 1, 56, 100
3, 305472, Note_on_c, 1, 60, 87
3, 305564, Note_off_c, 1, 66, 100
3, 305568, Note_on_c, 1, 66, 88
3, 305656, Control_c, 1, 64, 0
3, 305660, Note_off_c, 1, 60, 100
3, 305664, Note_on_c, 1, 64, 89
3, 305664, Note_on_c, 1, 61, 89
3, 305664, Note_on_c, 1, 57, 89
3, 305756, Note_off_c, 1, 66, 100
3, 306044, Note_off_c, 1, 64, 100
3, 306044, Note_off_c, 1, 61, 100
3, 306044, Note_off_c, 1, 57, 100
3, 306048, Note_on_c, 1, 30, 120
3, 306048, Note_on_c, 1, 33, 120
3, 306048, Note_on_c, 1, 38, 120
3, 306048, Note_on_c, 1, 42, 120
3, 306812, Note_off_c, 1, 30, 100
3, 306812, Note_off_c, 1, 33, 100
3, 306812, Note_off_c, 1, 38, 100
3, 306812, Note_off_c, 1, 42, 100
3, 307584, Note_on_c, 1, 42, 90
3, 307584, Note_on_c, 1, 45, 90
3, 307584, Note_on_c, 1, 50, 90
3, 307964, Note_off_c, 1, 42, 100
3, 307964, Note_off_c, 1, 45, 100
3, 307964, Note_off_c, 1, 50, 100
3, 308352, Note_on_c, 1, 42, 90
3, 308352, Note_on_c, 1, 45, 90
3, 308352, Note_on_c, 1, 50, 90
3, 308732, Note_off_c, 1, 42, 100
3, 308732, Note_off_c, 1, 45, 100
3, 308732, Note_off_c, 1, 50, 100
3, 308928, Note_on_c, 1, 42, 91
3, 308928, Note_on_c, 1, 45, 91
3, 308928, Note_on_c, 1, 50, 91
3, 309192, Note_off_c, 1, 42, 100
3, 309204, Note_off_c, 1, 50, 100
3, 309212, Note_off_c, 1, 45, 100
3, 309312, Note_on_c, 1, 42, 93
3, 309312, Note_on_c, 1, 45, 93
3, 309312, Note_on_c, 1, 50, 93
3, 309596, Note_off_c, 1, 42, 100
3, 309596, Note_off_c, 1, 45, 100
3, 309596, Note_off_c, 1, 50, 100
3, 309696, Note_on_c, 1, 42, 96
3, 309696, Note_on_c, 1, 45, 96
3, 309696, Note_on_c, 1, 50, 96
3, 309980, Note_off_c, 1, 42, 100
3, 309980, Note_off_c, 1, 45, 100
3, 309980, Note_off_c, 1, 50, 100
3, 310080, Note_on_c, 1, 42, 98
3, 310080, Note_on_c, 1, 45, 98
3, 310080, Note_on_c, 1, 50, 98
3, 310268, Note_off_c, 1, 42, 100
3, 310268, Note_off_c, 1, 45, 100
3, 310268, Note_off_c, 1, 50, 100
3, 310272, Note_on_c, 1, 42, 99
3, 310272, Note_on_c, 1, 45, 99
3, 310272, Note_on_c, 1, 50, 99
3, 310652, Note_off_c, 1, 42, 100
3, 310652, Note_off_c, 1, 45, 100
3, 310652, Note_off_c, 1, 50, 100
3, 311808, Control_c, 1, 64, 127
3, 311808, Note_on_c, 1, 42, 110
3, 311904, Note_on_c, 1, 50, 110
3, 311996, Note_off_c, 1, 42, 100
3, 312000, Note_on_c, 1, 47, 110
3, 312092, Note_off_c, 1, 50, 100
3, 312096, Note_on_c, 1, 50, 110
3, 312188, Note_off_c, 1, 47, 100
3, 312192, Note_on_c, 1, 42, 110
3, 312284, Note_off_c, 1, 50, 100
3, 312288, Note_on_c, 1, 50, 110
3, 312380, Note_off_c, 1, 42, 100
3, 312384, Note_on_c, 1, 47, 110
3, 312476, Note_off_c, 1, 50, 100
3, 312480, Note_on_c, 1, 50, 110
3, 312568, Control_c, 1, 64, 0
3, 312572, Note_off_c, 1, 47, 100
3, 312576, Control_c, 1, 64, 127
3, 312576, Note_on_c, 1, 43, 110
3, 312668, Note_off_c, 1, 50, 100
3, 312672, Note_on_c, 1, 52, 110
3, 312764, Note_off_c, 1, 43, 100
3, 312768, Note_on_c, 1, 46, 110
3, 312860, Note_off_c, 1, 52, 100
3, 312864, Note_on_c, 1, 52, 110
3, 312956, Note_off_c, 1, 46, 100
3, 312960, Note_on_c, 1, 43, 110
3, 313052, Note_off_c, 1, 52, 100
3, 313056, Note_on_c, 1, 52, 110
3, 313148, Note_off_c, 1, 43, 100
3, 313152, Note_on_c, 1, 46, 110
3, 313244, Note_off_c, 1, 52, 100
3, 313248, Note_on_c, 1, 52, 110
3, 313336, Control_c, 1, 64, 0
3, 313340, Note_off_c, 1, 46, 100
3, 313344, Control_c, 1, 64, 127
3, 313344, Note_on_c, 1, 44, 110
3, 313436, Note_off_c, 1, 52, 100
3, 313440, Note_on_c, 1, 52, 110
3, 313532, Note_off_c, 1, 44, 100
3, 313536, Note_on_c, 1, 49, 110
3, 313628, Note_off_c, 1, 52, 100
3, 313632, Note_on_c, 1, 52, 110
3, 313724, Note_off_c, 1, 49, 100
3, 313728, Note_on_c, 1, 44, 110
3, 313820, Note_off_c, 1, 52, 100
3, 313824, Note_on_c, 1, 52, 110
3, 313916, Note_off_c, 1, 44, 100
3, 313920, Note_on_c, 1, 49, 110
3, 314012, Note_off_c, 1, 52, 100
3, 314016, Note_on_c, 1, 52, 110
3, 314104, Control_c, 1, 64, 0
3, 314108, Note_off_c, 1, 49, 100
3, 314112, Control_c, 1, 64, 127
3, 314112, Note_on_c, 1, 32, 110
3, 314204, Note_off_c, 1, 52, 100
3, 314208, Note_on_c, 1, 44, 110
3, 314300, Note_off_c, 1, 32, 100
3, 314304, Note_on_c, 1, 43, 110
3, 314396, Note_off_c, 1, 44, 100
3, 314400, Note_on_c, 1, 44, 110
3, 314492, Note_off_c, 1, 43, 100
3, 314496, Note_on_c, 1, 43, 110
3, 314588, Note_off_c, 1, 44, 100
3, 314592, Note_on_c, 1, 44, 110
3, 314684, Note_off_c, 1, 43, 100
3, 314688, Note_on_c, 1, 43, 110
3, 314780, Note_off_c, 1, 44, 100
3, 314784, Note_on_c, 1, 44, 110
3, 314872, Control_c, 1, 64, 0
3, 314876, Note_off_c, 1, 43, 100
3, 314880, Note_on_c, 1, 37, 110
3, 314972, Note_off_c, 1, 44, 100
3, 315072, Note_on_c, 1, 49, 80
3, 315260, Note_off_c, 1, 37, 100
3, 315260, Note_off_c, 1, 49, 100
3, 315264, Note_on_c, 1, 49, 80
3, 315452, Note_off_c, 1, 49, 100
3, 315456, Note_on_c, 1, 49, 80
3, 315644, Note_off_c, 1, 49, 100
3, 315648, Note_on_c, 1, 49, 80
3, 315836, Note_off_c, 1, 49, 100
3, 315840, Note_on_c, 1, 49, 80
3, 316028, Note_off_c, 1, 49, 100
3, 316032, Note_on_c, 1, 51, 80
3, 316220, Note_off_c, 1, 51, 100
3, 316224, Note_on_c, 1, 52, 80
3, 316412, Note_off_c, 1, 52, 100
3, 316416, Note_on_c, 1, 44, 80
3, 316416, Note_on_c, 1, 54, 80
3, 316604, Note_off_c, 1, 44, 100
3, 316604, Note_off_c, 1, 54, 100
3, 316608, Note_on_c, 1, 56, 80
3, 316608, Note_on_c, 1, 54, 80
3, 316796, Note_off_c, 1, 56, 100
3, 316796, Note_off_c, 1, 54, 100
3, 316800, Note_on_c, 1, 56, 80
3, 316800, Note_on_c, 1, 54, 80
3, 316988, Note_off_c, 1, 56, 100
3, 316988, Note_off_c, 1, 54, 100
3, 316992, Note_on_c, 1, 56, 80
3, 316992, Note_on_c, 1, 54, 80
3, 317180, Note_off_c, 1, 56, 100
3, 317180, Note_off_c, 1, 54, 100
3, 317184, Note_on_c, 1, 56, 80
3, 317184, Note_on_c, 1, 54, 80
3, 317372, Note_off_c, 1, 56, 100
3, 317372, Note_off_c, 1, 54, 100
3, 317376, Note_on_c, 1, 56, 80
3, 317376, Note_on_c, 1, 54, 80
3, 317564, Note_off_c, 1, 56, 100
3, 317564, Note_off_c, 1, 54, 100
3, 317568, Note_on_c, 1, 56, 80
3, 317568, Note_on_c, 1, 52, 80
3, 317756, Note_off_c, 1, 56, 100
3, 317756, Note_off_c, 1, 52, 100
3, 317760, Note_on_c, 1, 56, 80
3, 317760, Note_on_c, 1, 51, 80
3, 317948, Note_off_c, 1, 56, 100
3, 317948, Note_off_c, 1, 51, 100
3, 317952, Note_on_c, 1, 37, 80
3, 317952, Note_on_c, 1, 49, 80
3, 318140, Note_off_c, 1, 37, 100
3, 318140, Note_off_c, 1, 49, 100
3, 318144, Note_on_c, 1, 49, 80
3, 318332, Note_off_c, 1, 49, 100
3, 318336, Note_on_c, 1, 49, 80
3, 318524, Note_off_c, 1, 49, 100
3, 318528, Note_on_c, 1, 49, 80
3, 318716, Note_off_c, 1, 49, 100
3, 318720, Note_on_c, 1, 49, 80
3, 318908, Note_off_c, 1, 49, 100
3, 318912, Note_on_c, 1, 49, 80
3, 319100, Note_off_c, 1, 49, 100
3, 319104, Note_on_c, 1, 51, 80
3, 319292, Note_off_c, 1, 51, 100
3, 319296, Note_on_c, 1, 52, 80
3, 319484, Note_off_c, 1, 52, 100
3, 319488, Note_on_c, 1, 44, 80
3, 319488, Note_on_c, 1, 54, 80
3, 319676, Note_off_c, 1, 44, 100
3, 319676, Note_off_c, 1, 54, 100
3, 319680, Note_on_c, 1, 56, 80
3, 319680, Note_on_c, 1, 54, 80
3, 319868, Note_off_c, 1, 56, 100
3, 319868, Note_off_c, 1, 54, 100
3, 319872, Note_on_c, 1, 56, 80
3, 319872, Note_on_c, 1, 54, 80
3, 320060, Note_off_c, 1, 56, 100
3, 320060, Note_off_c, 1, 54, 100
3, 320064, Note_on_c, 1, 56, 80
3, 320064, Note_on_c, 1, 54, 80
3, 320252, Note_off_c, 1, 56, 100
3, 320252, Note_off_c, 1, 54, 100
3, 320256, Note_on_c, 1, 56, 80
3, 320256, Note_on_c, 1, 54, 80
3, 320444, Note_off_c, 1, 56, 100
3, 320444, Note_off_c, 1, 54, 100
3, 320448, Note_on_c, 1, 56, 80
3, 320448, Note_on_c, 1, 54, 80
3, 320636, Note_off_c, 1, 56, 100
3, 320636, Note_off_c, 1, 54, 100
3, 320640, Note_on_c, 1, 56, 80
3, 320640, Note_on_c, 1, 52, 80
3, 320828, Note_off_c, 1, 56, 100
3, 320828, Note_off_c, 1, 52, 100
3, 320832, Note_on_c, 1, 56, 80
3, 320832, Note_on_c, 1, 51, 80
3, 321020, Note_off_c, 1, 56, 100
3, 321020, Note_off_c, 1, 51, 100
3, 321024, Note_on_c, 1, 37, 80
3, 321024, Note_on_c, 1, 49, 80
3, 321212, Note_off_c, 1, 37, 100
3, 321212, Note_off_c, 1, 49, 100
3, 321216, Note_on_c, 1, 49, 80
3, 321216, Note_on_c, 1, 52, 80
3, 321404, Note_off_c, 1, 49, 100
3, 321404, Note_off_c, 1, 52, 100
3, 321408, Note_on_c, 1, 52, 80
3, 321408, Note_on_c, 1, 49, 80
3, 321596, Note_off_c, 1, 52, 100
3, 321596, Note_off_c, 1, 49, 100
3, 321600, Note_on_c, 1, 52, 80
3, 321600, Note_on_c, 1, 56, 80
3, 321788, Note_off_c, 1, 52, 100
3, 321788, Note_off_c, 1, 56, 100
3, 321792, Note_on_c, 1, 42, 80
3, 321980, Note_off_c, 1, 42, 100
3, 321984, Note_on_c, 1, 49, 80
3, 321984, Note_on_c, 1, 54, 80
3, 322172, Note_off_c, 1, 49, 100
3, 322172, Note_off_c, 1, 54, 100
3, 322176, Note_on_c, 1, 49, 80
3, 322176, Note_on_c, 1, 54, 80
3, 322364, Note_off_c, 1, 49, 100
3, 322364, Note_off_c, 1, 54, 100
3, 322368, Note_on_c, 1, 57, 80
3, 322368, Note_on_c, 1, 54, 80
3, 322556, Note_off_c, 1, 57, 100
3, 322556, Note_off_c, 1, 54, 100
3, 322560, Note_on_c, 1, 44, 80
3, 322748, Note_off_c, 1, 44, 100
3, 322752, Note_on_c, 1, 52, 80
3, 322752, Note_on_c, 1, 49, 80
3, 322940, Note_off_c, 1, 52, 100
3, 322940, Note_off_c, 1, 49, 100
3, 322944, Note_on_c, 1, 52, 80
3, 322944, Note_on_c, 1, 49, 80
3, 323132, Note_off_c, 1, 52, 100
3, 323132, Note_off_c, 1, 49, 100
3, 323136, Note_on_c, 1, 56, 80
3, 323136, Note_on_c, 1, 52, 80
3, 323324, Note_off_c, 1, 56, 100
3, 323324, Note_off_c, 1, 52, 100
3, 323328, Note_on_c, 1, 44, 80
3, 323516, Note_off_c, 1, 44, 100
3, 323520, Note_on_c, 1, 48, 80
3, 323520, Note_on_c, 1, 51, 80
3, 323708, Note_off_c, 1, 48, 100
3, 323708, Note_off_c, 1, 51, 100
3, 323712, Note_on_c, 1, 48, 80
3, 323712, Note_on_c, 1, 51, 80
3, 323900, Note_off_c, 1, 48, 100
3, 323900, Note_off_c, 1, 51, 100
3, 323904, Note_on_c, 1, 56, 80
3, 323904, Note_on_c, 1, 51, 80
3, 324092, Note_off_c, 1, 56, 100
3, 324092, Note_off_c, 1, 51, 100
3, 324096, Note_on_c, 1, 37, 80
3, 324096, Note_on_c, 1, 49, 80
3, 324284, Note_off_c, 1, 37, 100
3, 324284, Note_off_c, 1, 49, 100
3, 324288, Note_on_c, 1, 49, 83
3, 324288, Note_on_c, 1, 56, 83
3, 324476, Note_off_c, 1, 49, 100
3, 324476, Note_off_c, 1, 56, 100
3, 324480, Note_on_c, 1, 49, 87
3, 324480, Note_on_c, 1, 56, 87
3, 324668, Note_off_c, 1, 49, 100
3, 324668, Note_off_c, 1, 56, 100
3, 324672, Note_on_c, 1, 49, 91
3, 324672, Note_on_c, 1, 56, 91
3, 324860, Note_off_c, 1, 49, 100
3, 324860, Note_off_c, 1, 56, 100
3, 324864, Note_on_c, 1, 49, 94
3, 324864, Note_on_c, 1, 56, 94
3, 325052, Note_off_c, 1, 49, 100
3, 325052, Note_off_c, 1, 56, 100
3, 325056, Note_on_c, 1, 49, 98
3, 325056, Note_on_c, 1, 56, 98
3, 325244, Note_off_c, 1, 49, 100
3, 325244, Note_off_c, 1, 56, 100
3, 325248, Note_on_c, 1, 51, 102
3, 325248, Note_on_c, 1, 56, 102
3, 325436, Note_off_c, 1, 51, 100
3, 325436, Note_off_c, 1, 56, 100
3, 325440, Note_on_c, 1, 52, 106
3, 325440, Note_on_c, 1, 56, 106
3, 325628, Note_off_c, 1, 52, 100
3, 325628, Note_off_c, 1, 56, 100
3, 325632, Note_on_c, 1, 44, 109
3, 325632, Note_on_c, 1, 54, 109
3, 325632, Note_on_c, 1, 56, 109
3, 325820, Note_off_c, 1, 44, 100
3, 325820, Note_off_c, 1, 54, 100
3, 325820, Note_off_c, 1, 56, 100
3, 325824, Note_on_c, 1, 66, 110
3, 325824, Note_on_c, 1, 56, 110
3, 326012, Note_off_c, 1, 66, 100
3, 326012, Note_off_c, 1, 56, 100
3, 326016, Note_on_c, 1, 66, 110
3, 326016, Note_on_c, 1, 56, 110
3, 326204, Note_off_c, 1, 66, 100
3, 326204, Note_off_c, 1, 56, 100
3, 326208, Note_on_c, 1, 66, 110
3, 326208, Note_on_c, 1, 56, 110
3, 326396, Note_off_c, 1, 66, 100
3, 326396, Note_off_c, 1, 56, 100
3, 326400, Note_on_c, 1, 66, 110
3, 326400, Note_on_c, 1, 56, 110
3, 326588, Note_off_c, 1, 66, 100
3, 326588, Note_off_c, 1, 56, 100
3, 326592, Note_on_c, 1, 66, 110
3, 326592, Note_on_c, 1, 56, 110
3, 326780, Note_off_c, 1, 66, 100
3, 326780, Note_off_c, 1, 56, 100
3, 326784, Note_on_c, 1, 64, 110
3, 326784, Note_on_c, 1, 56, 110
3, 326972, Note_off_c, 1, 64, 100
3, 326972, Note_off_c, 1, 56, 100
3, 326976, Note_on_c, 1, 63, 110
3, 326976, Note_on_c, 1, 56, 110
3, 327164, Note_off_c, 1, 63, 100
3, 327164, Note_off_c, 1, 56, 100
3, 327168, Note_on_c, 1, 37, 110
3, 327168, Note_on_c, 1, 49, 110
3, 327356, Note_off_c, 1, 37, 100
3, 327356, Note_off_c, 1, 49, 100
3, 327360, Note_on_c, 1, 49, 90
3, 327360, Note_on_c, 1, 56, 90
3, 327548, Note_off_c, 1, 49, 100
3, 327548, Note_off_c, 1, 56, 100
3, 327552, Note_on_c, 1, 49, 92
3, 327552, Note_on_c, 1, 56, 92
3, 327740, Note_off_c, 1, 49, 100
3, 327740, Note_off_c, 1, 56, 100
3, 327744, Note_on_c, 1, 49, 95
3, 327744, Note_on_c, 1, 56, 95
3, 327932, Note_off_c, 1, 49, 100
3, 327932, Note_off_c, 1, 56, 100
3, 327936, Note_on_c, 1, 49, 98
3, 327936, Note_on_c, 1, 56, 98
3, 328124, Note_off_c, 1, 49, 100
3, 328124, Note_off_c, 1, 56, 100
3, 328128, Note_on_c, 1, 49, 101
3, 328128, Note_on_c, 1, 56, 101
3, 328316, Note_off_c, 1, 49, 100
3, 328316, Note_off_c, 1, 56, 100
3, 328320, Note_on_c, 1, 51, 104
3, 328320, Note_on_c, 1, 56, 104
3, 328508, Note_off_c, 1, 51, 100
3, 328508, Note_off_c, 1, 56, 100
3, 328512, Note_on_c, 1, 52, 107
3, 328512, Note_on_c, 1, 56, 107
3, 328700, Note_off_c, 1, 52, 100
3, 328700, Note_off_c, 1, 56, 100
3, 328704, Note_on_c, 1, 44, 109
3, 328704, Note_on_c, 1, 54, 109
3, 328704, Note_on_c, 1, 56, 109
3, 328892, Note_off_c, 1, 44, 100
3, 328892, Note_off_c, 1, 54, 100
3, 328892, Note_off_c, 1, 56, 100
3, 328896, Note_on_c, 1, 66, 110
3, 328896, Note_on_c, 1, 56, 110
3, 329084, Note_off_c, 1, 66, 100
3, 329084, Note_off_c, 1, 56, 100
3, 329088, Note_on_c, 1, 66, 110
3, 329088, Note_on_c, 1, 56, 110
3, 329276, Note_off_c, 1, 66, 100
3, 329276, Note_off_c, 1, 56, 100
3, 329280, Note_on_c, 1, 66, 110
3, 329280, Note_on_c, 1, 56, 110
3, 329468, Note_off_c, 1, 66, 100
3, 329468, Note_off_c, 1, 56, 100
3, 329472, Note_on_c, 1, 66, 110
3, 329472, Note_on_c, 1, 56, 110
3, 329660, Note_off_c, 1, 66, 100
3, 329660, Note_off_c, 1, 56, 100
3, 329664, Note_on_c, 1, 66, 110
3, 329664, Note_on_c, 1, 56, 110
3, 329852, Note_off_c, 1, 66, 100
3, 329852, Note_off_c, 1, 56, 100
3, 329856, Note_on_c, 1, 64, 110
3, 329856, Note_on_c, 1, 56, 110
3, 330044, Note_off_c, 1, 64, 100
3, 330044, Note_off_c, 1, 56, 100
3, 330048, Note_on_c, 1, 63, 110
3, 330048, Note_on_c, 1, 56, 110
3, 330236, Note_off_c, 1, 63, 100
3, 330236, Note_off_c, 1, 56, 100
3, 330240, Note_on_c, 1, 61, 110
3, 330240, Note_on_c, 1, 49, 110
3, 330428, Note_off_c, 1, 61, 100
3, 330432, Note_on_c, 1, 64, 80
3, 330432, Note_on_c, 1, 61, 80
3, 330620, Note_off_c, 1, 49, 100
3, 330620, Note_off_c, 1, 64, 100
3, 330620, Note_off_c, 1, 61, 100
3, 330624, Note_on_c, 1, 64, 80
3, 330624, Note_on_c, 1, 61, 80
3, 330812, Note_off_c, 1, 64, 100
3, 330812, Note_off_c, 1, 61, 100
3, 330816, Note_on_c, 1, 68, 80
3, 330816, Note_on_c, 1, 64, 80
3, 331004, Note_off_c, 1, 68, 100
3, 331004, Note_off_c, 1, 64, 100
3, 331008, Note_on_c, 1, 54, 80
3, 331196, Note_off_c, 1, 54, 100
3, 331200, Note_on_c, 1, 66, 80
3, 331200, Note_on_c, 1, 61, 80
3, 331388, Note_off_c, 1, 66, 100
3, 331388, Note_off_c, 1, 61, 100
3, 331392, Note_on_c, 1, 66, 80
3, 331392, Note_on_c, 1, 61, 80
3, 331580, Note_off_c, 1, 66, 100
3, 331580, Note_off_c, 1, 61, 100
3, 331584, Note_on_c, 1, 69, 80
3, 331584, Note_on_c, 1, 66, 80
3, 331772, Note_off_c, 1, 69, 100
3, 331772, Note_off_c, 1, 66, 100
3, 331776, Note_on_c, 1, 56, 80
3, 331964, Note_off_c, 1, 56, 100
3, 331968, Note_on_c, 1, 64, 80
3, 331968, Note_on_c, 1, 61, 80
3, 332156, Note_off_c, 1, 64, 100
3, 332156, Note_off_c, 1, 61, 100
3, 332160, Note_on_c, 1, 64, 80
3, 332160, Note_on_c, 1, 61, 80
3, 332348, Note_off_c, 1, 64, 100
3, 332348, Note_off_c, 1, 61, 100
3, 332352, Note_on_c, 1, 68, 80
3, 332352, Note_on_c, 1, 64, 80
3, 332540, Note_off_c, 1, 68, 100
3, 332540, Note_off_c, 1, 64, 100
3, 332544, Note_on_c, 1, 54, 80
3, 332732, Note_off_c, 1, 54, 100
3, 332736, Note_on_c, 1, 63, 80
3, 332736, Note_on_c, 1, 60, 80
3, 332924, Note_off_c, 1, 63, 100
3, 332924, Note_off_c, 1, 60, 100
3, 332928, Note_on_c, 1, 63, 80
3, 332928, Note_on_c, 1, 60, 80
3, 333116, Note_off_c, 1, 63, 100
3, 333116, Note_off_c, 1, 60, 100
3, 333120, Note_on_c, 1, 68, 80
3, 333120, Note_on_c, 1, 63, 80
3, 333308, Note_off_c, 1, 68, 100
3, 333308, Note_off_c, 1, 63, 100
3, 333312, Note_on_c, 1, 52, 80
3, 333500, Note_off_c, 1, 52, 100
3, 333504, Note_on_c, 1, 61, 82
3, 333504, Note_on_c, 1, 56, 82
3, 333692, Note_off_c, 1, 61, 100
3, 333692, Note_off_c, 1, 56, 100
3, 333696, Note_on_c, 1, 61, 85
3, 333696, Note_on_c, 1, 56, 85
3, 333884, Note_off_c, 1, 61, 100
3, 333884, Note_off_c, 1, 56, 100
3, 333888, Note_on_c, 1, 64, 88
3, 333888, Note_on_c, 1, 61, 88
3, 334076, Note_off_c, 1, 64, 100
3, 334076, Note_off_c, 1, 61, 100
3, 334080, Note_on_c, 1, 42, 91
3, 334268, Note_off_c, 1, 42, 100
3, 334272, Note_on_c, 1, 57, 94
3, 334272, Note_on_c, 1, 54, 94
3, 334460, Note_off_c, 1, 57, 100
3, 334460, Note_off_c, 1, 54, 100
3, 334464, Note_on_c, 1, 57, 97
3, 334464, Note_on_c, 1, 54, 97
3, 334652, Note_off_c, 1, 57, 100
3, 334652, Note_off_c, 1, 54, 100
3, 334656, Note_on_c, 1, 62, 99
3, 334656, Note_on_c, 1, 57, 99
3, 334844, Note_off_c, 1, 62, 100
3, 334844, Note_off_c, 1, 57, 100
3, 334848, Note_on_c, 1, 44, 100
3, 335036, Note_off_c, 1, 44, 100
3, 335040, Note_on_c, 1, 56, 100
3, 335040, Note_on_c, 1, 52, 100
3, 335228, Note_off_c, 1, 56, 100
3, 335228, Note_off_c, 1, 52, 100
3, 335232, Note_on_c, 1, 56, 100
3, 335232, Note_on_c, 1, 52, 100
3, 335420, Note_off_c, 1, 56, 100
3, 335420, Note_off_c, 1, 52, 100
3, 335424, Note_on_c, 1, 61, 100
3, 335424, Note_on_c, 1, 56, 100
3, 335612, Note_off_c, 1, 61, 100
3, 335612, Note_off_c, 1, 56, 100
3, 335616, Note_on_c, 1, 44, 95
3, 335804, Note_off_c, 1, 44, 100
3, 335808, Note_on_c, 1, 54, 92
3, 335808, Note_on_c, 1, 51, 92
3, 335996, Note_off_c, 1, 54, 100
3, 335996, Note_off_c, 1, 51, 100
3, 336000, Note_on_c, 1, 54, 89
3, 336000, Note_on_c, 1, 51, 89
3, 336188, Note_off_c, 1, 54, 100
3, 336188, Note_off_c, 1, 51, 100
3, 336192, Note_on_c, 1, 60, 86
3, 336192, Note_on_c, 1, 54, 86
3, 336380, Note_off_c, 1, 60, 100
3, 336380, Note_off_c, 1, 54, 100
3, 336384, Control_c, 1, 64, 127
3, 336384, Note_on_c, 1, 37, 70
3, 336480, Note_on_c, 1, 49, 70
3, 336572, Note_off_c, 1, 37, 100
3, 336576, Note_on_c, 1, 44, 70
3, 336668, Note_off_c, 1, 49, 100
3, 336672, Note_on_c, 1, 49, 70
3, 336764, Note_off_c, 1, 44, 100
3, 336768, Note_on_c, 1, 37, 70
3, 336860, Note_off_c, 1, 49, 100
3, 336864, Note_on_c, 1, 49, 70
3, 336956, Note_off_c, 1, 37, 100
3, 336960, Note_on_c, 1, 44, 70
3, 337052, Note_off_c, 1, 49, 100
3, 337056, Note_on_c, 1, 49, 70
3, 337148, Note_off_c, 1, 44, 100
3, 337152, Note_on_c, 1, 37, 70
3, 337244, Note_off_c, 1, 49, 100
3, 337248, Note_on_c, 1, 49, 70
3, 337340, Note_off_c, 1, 37, 100
3, 337344, Note_on_c, 1, 44, 70
3, 337436, Note_off_c, 1, 49, 100
3, 337440, Note_on_c, 1, 49, 70
3, 337532, Note_off_c, 1, 44, 100
3, 337536, Note_on_c, 1, 37, 70
3, 337628, Note_off_c, 1, 49, 100
3, 337632, Note_on_c, 1, 49, 70
3, 337724, Note_off_c, 1, 37, 100
3, 337728, Note_on_c, 1, 44, 70
3, 337820, Note_off_c, 1, 49, 100
3, 337824, Note_on_c, 1, 49, 70
3, 337912, Control_c, 1, 64, 0
3, 337916, Note_off_c, 1, 44, 100
3, 337920, Control_c, 1, 64, 127
3, 337920, Note_on_c, 1, 37, 70
3, 338012, Note_off_c, 1, 49, 100
3, 338016, Note_on_c, 1, 51, 70
3, 338108, Note_off_c, 1, 37, 100
3, 338112, Note_on_c, 1, 44, 70
3, 338204, Note_off_c, 1, 51, 100
3, 338208, Note_on_c, 1, 51, 70
3, 338300, Note_off_c, 1, 44, 100
3, 338304, Note_on_c, 1, 37, 70
3, 338396, Note_off_c, 1, 51, 100
3, 338400, Note_on_c, 1, 51, 70
3, 338492, Note_off_c, 1, 37, 100
3, 338496, Note_on_c, 1, 44, 70
3, 338588, Note_off_c, 1, 51, 100
3, 338592, Note_on_c, 1, 51, 70
3, 338684, Note_off_c, 1, 44, 100
3, 338688, Note_on_c, 1, 37, 70
3, 338780, Note_off_c, 1, 51, 100
3, 338784, Note_on_c, 1, 51, 70
3, 338876, Note_off_c, 1, 37, 100
3, 338880, Note_on_c, 1, 44, 70
3, 338972, Note_off_c, 1, 51, 100
3, 338976, Note_on_c, 1, 51, 70
3, 339068, Note_off_c, 1, 44, 100
3, 339072, Note_on_c, 1, 37, 70
3, 339164, Note_off_c, 1, 51, 100
3, 339168, Note_on_c, 1, 51, 70
3, 339260, Note_off_c, 1, 37, 100
3, 339264, Note_on_c, 1, 44, 70
3, 339356, Note_off_c, 1, 51, 100
3, 339360, Note_on_c, 1, 51, 70
3, 339448, Control_c, 1, 64, 0
3, 339452, Note_off_c, 1, 44, 100
3, 339456, Control_c, 1, 64, 127
3, 339456, Note_on_c, 1, 37, 70
3, 339548, Note_off_c, 1, 51, 100
3, 339552, Note_on_c, 1, 49, 70
3, 339644, Note_off_c, 1, 37, 100
3, 339648, Note_on_c, 1, 44, 70
3, 339740, Note_off_c, 1, 49, 100
3, 339744, Note_on_c, 1, 49, 70
3, 339836, Note_off_c, 1, 44, 100
3, 339840, Note_on_c, 1, 37, 70
3, 339932, Note_off_c, 1, 49, 100
3, 339936, Note_on_c, 1, 49, 70
3, 340028, Note_off_c, 1, 37, 100
3, 340032, Note_on_c, 1, 44, 70
3, 340124, Note_off_c, 1, 49, 100
3, 340128, Note_on_c, 1, 49, 70
3, 340220, Note_off_c, 1, 44, 100
3, 340224, Note_on_c, 1, 37, 70
3, 340316, Note_off_c, 1, 49, 100
3, 340320, Note_on_c, 1, 49, 70
3, 340412, Note_off_c, 1, 37, 100
3, 340416, Note_on_c, 1, 44, 70
3, 340508, Note_off_c, 1, 49, 100
3, 340512, Note_on_c, 1, 49, 70
3, 340604, Note_off_c, 1, 44, 100
3, 340608, Note_on_c, 1, 37, 70
3, 340700, Note_off_c, 1, 49, 100
3, 340704, Note_on_c, 1, 49, 70
3, 340796, Note_off_c, 1, 37, 100
3, 340800, Note_on_c, 1, 44, 70
3, 340892, Note_off_c, 1, 49, 100
3, 340896, Note_on_c, 1, 49, 70
3, 340984, Control_c, 1, 64, 0
3, 340988, Note_off_c, 1, 44, 100
3, 340992, Control_c, 1, 64, 127
3, 340992, Note_on_c, 1, 37, 70
3, 341084, Note_off_c, 1, 49, 100
3, 341088, Note_on_c, 1, 51, 70
3, 341180, Note_off_c, 1, 37, 100
3, 341184, Note_on_c, 1, 44, 70
3, 341276, Note_off_c, 1, 51, 100
3, 341280, Note_on_c, 1, 51, 70
3, 341372, Note_off_c, 1, 44, 100
3, 341376, Note_on_c, 1, 37, 70
3, 341468, Note_off_c, 1, 51, 100
3, 341472, Note_on_c, 1, 51, 70
3, 341564, Note_off_c, 1, 37, 100
3, 341568, Note_on_c, 1, 44, 70
3, 341660, Note_off_c, 1, 51, 100
3, 341664, Note_on_c, 1, 51, 70
3, 341756, Note_off_c, 1, 44, 100
3, 341760, Note_on_c, 1, 37, 70
3, 341852, Note_off_c, 1, 51, 100
3, 341856, Note_on_c, 1, 51, 70
3, 341948, Note_off_c, 1, 37, 100
3, 341952, Note_on_c, 1, 44, 70
3, 342044, Note_off_c, 1, 51, 100
3, 342048, Note_on_c, 1, 51, 70
3, 342140, Note_off_c, 1, 44, 100
3, 342144, Note_on_c, 1, 37, 70
3, 342236, Note_off_c, 1, 51, 100
3, 342240, Note_on_c, 1, 51, 70
3, 342332, Note_off_c, 1, 37, 100
3, 342336, Note_on_c, 1, 44, 70
3, 342428, Note_off_c, 1, 51, 100
3, 342432, Note_on_c, 1, 51, 70
3, 342520, Control_c, 1, 64, 0
3, 342524, Note_off_c, 1, 44, 100
3, 342528, Control_c, 1, 64, 127
3, 342528, Note_on_c, 1, 37, 70
3, 342620, Note_off_c, 1, 51, 100
3, 342624, Note_on_c, 1, 49, 70
3, 342716, Note_off_c, 1, 37, 100
3, 342720, Note_on_c, 1, 44, 70
3, 342812, Note_off_c, 1, 49, 100
3, 342816, Note_on_c, 1, 49, 70
3, 342908, Note_off_c, 1, 44, 100
3, 342912, Note_on_c, 1, 37, 70
3, 343004, Note_off_c, 1, 49, 100
3, 343008, Note_on_c, 1, 49, 70
3, 343100, Note_off_c, 1, 37, 100
3, 343104, Note_on_c, 1, 44, 70
3, 343196, Note_off_c, 1, 49, 100
3, 343200, Note_on_c, 1, 49, 70
3, 343288, Control_c, 1, 64, 0
3, 343292, Note_off_c, 1, 44, 100
3, 343296, Control_c, 1, 64, 127
3, 343296, Note_on_c, 1, 37, 70
3, 343388, Note_off_c, 1, 49, 100
3, 343392, Note_on_c, 1, 51, 70
3, 343484, Note_off_c, 1, 37, 100
3, 343488, Note_on_c, 1, 44, 70
3, 343580, Note_off_c, 1, 51, 100
3, 343584, Note_on_c, 1, 51, 70
3, 343676, Note_off_c, 1, 44, 100
3, 343680, Note_on_c, 1, 37, 70
3, 343772, Note_off_c, 1, 51, 100
3, 343776, Note_on_c, 1, 51, 70
3, 343868, Note_off_c, 1, 37, 100
3, 343872, Note_on_c, 1, 44, 70
3, 343964, Note_off_c, 1, 51, 100
3, 343968, Note_on_c, 1, 51, 70
3, 344056, Control_c, 1, 64, 0
3, 344060, Note_off_c, 1, 44, 100
3, 344064, Control_c, 1, 64, 127
3, 344064, Note_on_c, 1, 37, 70
3, 344156, Note_off_c, 1, 51, 100
3, 344160, Note_on_c, 1, 49, 70
3, 344252, Note_off_c, 1, 37, 100
3, 344256, Note_on_c, 1, 44, 70
3, 344348, Note_off_c, 1, 49, 100
3, 344352, Note_on_c, 1, 49, 70
3, 344444, Note_off_c, 1, 44, 100
3, 344448, Note_on_c, 1, 37, 70
3, 344540, Note_off_c, 1, 49, 100
3, 344544, Note_on_c, 1, 49, 70
3, 344636, Note_off_c, 1, 37, 100
3, 344640, Note_on_c, 1, 44, 70
3, 344732, Note_off_c, 1, 49, 100
3, 344736, Note_on_c, 1, 49, 70
3, 344824, Control_c, 1, 64, 0
3, 344828, Note_off_c, 1, 44, 100
3, 344832, Control_c, 1, 64, 127
3, 344832, Note_on_c, 1, 37, 70
3, 344924, Note_off_c, 1, 49, 100
3, 344928, Note_on_c, 1, 51, 70
3, 345020, Note_off_c, 1, 37, 100
3, 345024, Note_on_c, 1, 44, 70
3, 345116, Note_off_c, 1, 51, 100
3, 345120, Note_on_c, 1, 51, 70
3, 345212, Note_off_c, 1, 44, 100
3, 345216, Note_on_c, 1, 37, 70
3, 345308, Note_off_c, 1, 51, 100
3, 345312, Note_on_c, 1, 51, 70
3, 345404, Note_off_c, 1, 37, 100
3, 345408, Note_on_c, 1, 44, 70
3, 345500, Note_off_c, 1, 51, 100
3, 345504, Note_on_c, 1, 51, 70
3, 345592, Control_c, 1, 64, 0
3, 345596, Note_off_c, 1, 44, 100
3, 345600, Control_c, 1, 64, 127
3, 345600, Note_on_c, 1, 37, 80
3, 345692, Note_off_c, 1, 51, 100
3, 345696, Note_on_c, 1, 49, 80
3, 345788, Note_off_c, 1, 37, 100
3, 345792, Note_on_c, 1, 44, 81
3, 345884, Note_off_c, 1, 49, 100
3, 345888, Note_on_c, 1, 49, 82
3, 345980, Note_off_c, 1, 44, 100
3, 345984, Note_on_c, 1, 37, 83
3, 346076, Note_off_c, 1, 49, 100
3, 346080, Note_on_c, 1, 49, 84
3, 346172, Note_off_c, 1, 37, 100
3, 346176, Note_on_c, 1, 44, 85
3, 346268, Note_off_c, 1, 49, 100
3, 346272, Note_on_c, 1, 49, 86
3, 346364, Note_off_c, 1, 44, 100
3, 346368, Note_on_c, 1, 37, 87
3, 346460, Note_off_c, 1, 49, 100
3, 346464, Note_on_c, 1, 49, 88
3, 346556, Note_off_c, 1, 37, 100
3, 346560, Note_on_c, 1, 44, 89
3, 346652, Note_off_c, 1, 49, 100
3, 346656, Note_on_c, 1, 49, 90
3, 346748, Note_off_c, 1, 44, 100
3, 346752, Note_on_c, 1, 37, 91
3, 346844, Note_off_c, 1, 49, 100
3, 346848, Note_on_c, 1, 49, 92
3, 346940, Note_off_c, 1, 37, 100
3, 346944, Note_on_c, 1, 44, 93
3, 347036, Note_off_c, 1, 49, 100
3, 347040, Note_on_c, 1, 49, 94
3, 347128, Control_c, 1, 64, 0
3, 347132, Note_off_c, 1, 44, 100
3, 347136, Control_c, 1, 64, 127
3, 347136, Note_on_c, 1, 35, 94
3, 347228, Note_off_c, 1, 49, 100
3, 347232, Note_on_c, 1, 47, 95
3, 347324, Note_off_c, 1, 35, 100
3, 347328, Note_on_c, 1, 37, 96
3, 347420, Note_off_c, 1, 47, 100
3, 347424, Note_on_c, 1, 47, 97
3, 347516, Note_off_c, 1, 37, 100
3, 347520, Note_on_c, 1, 35, 98
3, 347612, Note_off_c, 1, 47, 100
3, 347616, Note_on_c, 1, 47, 99
3, 347708, Note_off_c, 1, 35, 100
3, 347712, Note_on_c, 1, 37, 100
3, 347804, Note_off_c, 1, 47, 100
3, 347808, Note_on_c, 1, 47, 101
3, 347900, Note_off_c, 1, 37, 100
3, 347904, Note_on_c, 1, 35, 102
3, 347996, Note_off_c, 1, 47, 100
3, 348000, Note_on_c, 1, 47, 103
3, 348092, Note_off_c, 1, 35, 100
3, 348096, Note_on_c, 1, 37, 104
3, 348188, Note_off_c, 1, 47, 100
3, 348192, Note_on_c, 1, 47, 105
3, 348284, Note_off_c, 1, 37, 100
3, 348288, Note_on_c, 1, 35, 106
3, 348380, Note_off_c, 1, 47, 100
3, 348384, Note_on_c, 1, 47, 107
3, 348476, Note_off_c, 1, 35, 100
3, 348480, Note_on_c, 1, 37, 108
3, 348572, Note_off_c, 1, 47, 100
3, 348576, Note_on_c, 1, 47, 109
3, 348664, Control_c, 1, 64, 0
3, 348668, Note_off_c, 1, 37, 100
3, 348672, Note_on_c, 1, 33, 100
3, 348672, Note_on_c, 1, 45, 100
3, 348764, Note_off_c, 1, 47, 100
3, 348864, Note_on_c, 1, 42, 90
3, 349052, Note_off_c, 1, 33, 100
3, 349052, Note_off_c, 1, 45, 100
3, 349052, Note_off_c, 1, 42, 100
3, 349056, Note_on_c, 1, 33, 90
3, 349244, Note_off_c, 1, 33, 100
3, 349248, Note_on_c, 1, 42, 90
3, 349436, Note_off_c, 1, 42, 100
3, 349440, Note_on_c, 1, 33, 90
3, 349628, Note_off_c, 1, 33, 100
3, 349632, Note_on_c, 1, 42, 90
3, 349820, Note_off_c, 1, 42, 100
3, 349824, Note_on_c, 1, 33, 90
3, 350012, Note_off_c, 1, 33, 100
3, 350016, Note_on_c, 1, 42, 90
3, 350204, Note_off_c, 1, 42, 100
3, 350208, Note_on_c, 1, 33, 90
3, 350396, Note_off_c, 1, 33, 100
3, 350400, Note_on_c, 1, 42, 90
3, 350588, Note_off_c, 1, 42, 100
3, 350592, Note_on_c, 1, 33, 90
3, 350780, Note_off_c, 1, 33, 100
3, 350784, Note_on_c, 1, 42, 90
3, 350972, Note_off_c, 1, 42, 100
3, 350976, Note_on_c, 1, 33, 90
3, 351164, Note_off_c, 1, 33, 100
3, 351168, Note_on_c, 1, 42, 90
3, 351356, Note_off_c, 1, 42, 100
3, 351360, Note_on_c, 1, 33, 110
3, 351360, Note_on_c, 1, 45, 110
3, 351552, Note_on_c, 1, 42, 100
3, 351740, Note_off_c, 1, 33, 100
3, 351740, Note_off_c, 1, 45, 100
3, 351740, Note_off_c, 1, 42, 100
3, 351744, Note_on_c, 1, 32, 90
3, 351932, Note_off_c, 1, 32, 100
3, 351936, Note_on_c, 1, 40, 90
3, 352124, Note_off_c, 1, 40, 100
3, 352128, Note_on_c, 1, 32, 90
3, 352316, Note_off_c, 1, 32, 100
3, 352320, Note_on_c, 1, 40, 90
3, 352508, Note_off_c, 1, 40, 100
3, 352512, Note_on_c, 1, 32, 90
3, 352700, Note_off_c, 1, 32, 100
3, 352704, Note_on_c, 1, 40, 90
3, 352892, Note_off_c, 1, 40, 100
3, 352896, Note_on_c, 1, 32, 90
3, 353084, Note_off_c, 1, 32, 100
3, 353088, Note_on_c, 1, 40, 90
3, 353276, Note_off_c, 1, 40, 100
3, 353280, Note_on_c, 1, 32, 90
3, 353468, Note_off_c, 1, 32, 100
3, 353472, Note_on_c, 1, 40, 90
3, 353660, Note_off_c, 1, 40, 100
3, 353664, Note_on_c, 1, 32, 90
3, 353852, Note_off_c, 1, 32, 100
3, 353856, Note_on_c, 1, 40, 90
3, 354044, Note_off_c, 1, 40, 100
3, 354048, Note_on_c, 1, 32, 90
3, 354236, Note_off_c, 1, 32, 100
3, 354240, Note_on_c, 1, 40, 90
3, 354428, Note_off_c, 1, 40, 100
3, 354432, Note_on_c, 1, 44, 110
3, 354432, Note_on_c, 1, 32, 110
3, 354624, Note_on_c, 1, 40, 100
3, 354812, Note_off_c, 1, 44, 100
3, 354812, Note_off_c, 1, 32, 100
3, 354812, Note_off_c, 1, 40, 100
3, 354816, Control_c, 1, 64, 127
3, 354816, Note_on_c, 1, 30, 90
3, 355388, Note_off_c, 1, 30, 100
3, 355392, Note_on_c, 1, 30, 98
3, 355440, Note_on_c, 1, 34, 99
3, 355488, Note_on_c, 1, 37, 100
3, 355536, Note_on_c, 1, 40, 101
3, 355584, Note_on_c, 1, 43, 101
3, 356156, Note_off_c, 1, 30, 100
3, 356156, Note_off_c, 1, 34, 100
3, 356156, Note_off_c, 1, 37, 100
3, 356156, Note_off_c, 1, 40, 100
3, 356156, Note_off_c, 1, 43, 100
3, 356160, Note_on_c, 1, 42, 110
3, 356208, Note_on_c, 1, 46, 111
3, 356256, Note_on_c, 1, 49, 112
3, 356304, Note_on_c, 1, 52, 113
3, 356352, Note_on_c, 1, 55, 113
3, 356732, Note_off_c, 1, 42, 100
3, 356732, Note_off_c, 1, 46, 100
3, 356732, Note_off_c, 1, 49, 100
3, 356732, Note_off_c, 1, 52, 100
3, 356732, Note_off_c, 1, 55, 100
3, 356736, Note_on_c, 1, 64, 119
3, 356736, Note_on_c, 1, 61, 119
3, 356736, Note_on_c, 1, 58, 119
3, 356736, Note_on_c, 1, 55, 119
3, 357880, Control_c, 1, 64, 0
3, 357884, Note_off_c, 1, 64, 100
3, 357884, Note_off_c, 1, 61, 100
3, 357884, Note_off_c, 1, 58, 100
3, 357884, Note_off_c, 1, 55, 100
3, 357888, Control_c, 1, 64, 127
3, 357888, Note_on_c, 1, 30, 90
3, 358460, Note_off_c, 1, 30, 100
3, 358464, Note_on_c, 1, 33, 95
3, 358512, Note_on_c, 1, 36, 96
3, 358560, Note_on_c, 1, 39, 96
3, 358608, Note_on_c, 1, 42, 97
3, 358656, Note_on_c, 1, 45, 97
3, 359228, Note_off_c, 1, 33, 100
3, 359228, Note_off_c, 1, 36, 100
3, 359228, Note_off_c, 1, 39, 100
3, 359228, Note_off_c, 1, 42, 100
3, 359228, Note_off_c, 1, 45, 100
3, 359232, Note_on_c, 1, 45, 103
3, 359280, Note_on_c, 1, 48, 103
3, 359328, Note_on_c, 1, 51, 104
3, 359376, Note_on_c, 1, 54, 104
3, 359424, Note_on_c, 1, 57, 105
3, 360188, Note_off_c, 1, 45, 100
3, 360188, Note_off_c, 1, 48, 100
3, 360188, Note_off_c, 1, 57, 100
3, 360192, Note_off_c, 1, 51, 100
3, 360192, Note_off_c, 1, 54, 100
3, 360192, Note_on_c, 1, 63, 120
3, 360192, Note_on_c, 1, 54, 120
3, 360192, Note_on_c, 1, 60, 120
3, 360192, Note_on_c, 1, 57, 120
3, 362488, Control_c, 1, 64, 0
3, 362492, Note_off_c, 1, 54, 100
3, 362492, Note_off_c, 1, 57, 100
3, 362492, Note_off_c, 1, 60, 100
3, 362492, Note_off_c, 1, 63, 100
3, 362496, Note_on_c, 1, 49, 80
3, 362876, Note_off_c, 1, 49, 100
3, 362880, Note_on_c, 1, 56, 80
3, 363644, Note_off_c, 1, 56, 100
3, 363648, Note_on_c, 1, 52, 80
3, 363936, Note_on_c, 1, 49, 80
3, 364028, Note_off_c, 1, 52, 100
3, 364028, Note_off_c, 1, 49, 100
3, 364032, Note_on_c, 1, 49, 80
3, 364412, Note_off_c, 1, 49, 100
3, 364416, Note_on_c, 1, 48, 80
3, 364988, Note_off_c, 1, 48, 100
3, 364992, Note_on_c, 1, 48, 80
3, 365180, Note_off_c, 1, 48, 100
3, 365184, Note_on_c, 1, 56, 91
3, 365472, Note_on_c, 1, 48, 80
3, 365564, Note_off_c, 1, 56, 100
3, 365568, Note_on_c, 1, 51, 80
3, 365660, Note_off_c, 1, 48, 100
3, 365948, Note_off_c, 1, 51, 100
3, 365952, Note_on_c, 1, 49, 80
3, 366524, Note_off_c, 1, 49, 100
3, 366528, Note_on_c, 1, 49, 80
3, 366716, Note_off_c, 1, 49, 100
3, 366720, Note_on_c, 1, 56, 95
3, 367008, Note_on_c, 1, 49, 80
3, 367100, Note_off_c, 1, 56, 100
3, 367104, Note_on_c, 1, 52, 80
3, 367196, Note_off_c, 1, 49, 100
3, 367484, Note_off_c, 1, 52, 100
3, 367488, Note_on_c, 1, 51, 80
3, 368060, Note_off_c, 1, 51, 100
3, 368064, Note_on_c, 1, 51, 80
3, 368252, Note_off_c, 1, 51, 100
3, 368256, Note_on_c, 1, 56, 92
3, 368544, Note_on_c, 1, 51, 80
3, 368636, Note_off_c, 1, 56, 100
3, 368640, Control_c, 1, 64, 127
3, 368640, Note_on_c, 1, 52, 70
3, 368732, Note_off_c, 1, 51, 100
3, 368736, Note_on_c, 1, 56, 70
3, 368828, Note_off_c, 1, 52, 100
3, 368832, Note_on_c, 1, 52, 70
3, 368924, Note_off_c, 1, 56, 100
3, 368928, Note_on_c, 1, 56, 70
3, 369020, Note_off_c, 1, 52, 100
3, 369024, Note_on_c, 1, 52, 70
3, 369116, Note_off_c, 1, 56, 100
3, 369120, Note_on_c, 1, 56, 70
3, 369212, Note_off_c, 1, 52, 100
3, 369216, Note_on_c, 1, 52, 70
3, 369308, Note_off_c, 1, 56, 100
3, 369312, Note_on_c, 1, 56, 70
3, 369404, Note_off_c, 1, 52, 100
3, 369408, Note_on_c, 1, 52, 70
3, 369500, Note_off_c, 1, 56, 100
3, 369504, Note_on_c, 1, 56, 70
3, 369596, Note_off_c, 1, 52, 100
3, 369600, Note_on_c, 1, 52, 70
3, 369692, Note_off_c, 1, 56, 100
3, 369696, Note_on_c, 1, 56, 70
3, 369788, Note_off_c, 1, 52, 100
3, 369792, Note_on_c, 1, 52, 70
3, 369884, Note_off_c, 1, 56, 100
3, 369888, Note_on_c, 1, 56, 70
3, 369980, Note_off_c, 1, 52, 100
3, 369984, Note_on_c, 1, 52, 70
3, 370076, Note_off_c, 1, 56, 100
3, 370080, Note_on_c, 1, 56, 70
3, 370168, Control_c, 1, 64, 0
3, 370172, Note_off_c, 1, 52, 100
3, 370176, Control_c, 1, 64, 127
3, 370176, Note_on_c, 1, 54, 70
3, 370268, Note_off_c, 1, 56, 100
3, 370272, Note_on_c, 1, 56, 70
3, 370364, Note_off_c, 1, 54, 100
3, 370368, Note_on_c, 1, 54, 70
3, 370460, Note_off_c, 1, 56, 100
3, 370464, Note_on_c, 1, 56, 70
3, 370556, Note_off_c, 1, 54, 100
3, 370560, Note_on_c, 1, 54, 70
3, 370652, Note_off_c, 1, 56, 100
3, 370656, Note_on_c, 1, 56, 70
3, 370748, Note_off_c, 1, 54, 100
3, 370752, Note_on_c, 1, 54, 70
3, 370844, Note_off_c, 1, 56, 100
3, 370848, Note_on_c, 1, 56, 70
3, 370940, Note_off_c, 1, 54, 100
3, 370944, Note_on_c, 1, 54, 70
3, 371036, Note_off_c, 1, 56, 100
3, 371040, Note_on_c, 1, 56, 70
3, 371132, Note_off_c, 1, 54, 100
3, 371136, Note_on_c, 1, 54, 70
3, 371228, Note_off_c, 1, 56, 100
3, 371232, Note_on_c, 1, 56, 70
3, 371324, Note_off_c, 1, 54, 100
3, 371328, Note_on_c, 1, 54, 70
3, 371420, Note_off_c, 1, 56, 100
3, 371424, Note_on_c, 1, 56, 70
3, 371516, Note_off_c, 1, 54, 100
3, 371520, Note_on_c, 1, 54, 70
3, 371612, Note_off_c, 1, 56, 100
3, 371616, Note_on_c, 1, 56, 70
3, 371704, Control_c, 1, 64, 0
3, 371708, Note_off_c, 1, 54, 100
3, 371712, Control_c, 1, 64, 127
3, 371712, Note_on_c, 1, 52, 70
3, 371804, Note_off_c, 1, 56, 100
3, 371808, Note_on_c, 1, 56, 70
3, 371900, Note_off_c, 1, 52, 100
3, 371904, Note_on_c, 1, 52, 70
3, 371996, Note_off_c, 1, 56, 100
3, 372000, Note_on_c, 1, 56, 70
3, 372092, Note_off_c, 1, 52, 100
3, 372096, Note_on_c, 1, 52, 70
3, 372188, Note_off_c, 1, 56, 100
3, 372192, Note_on_c, 1, 56, 70
3, 372284, Note_off_c, 1, 52, 100
3, 372288, Note_on_c, 1, 52, 70
3, 372380, Note_off_c, 1, 56, 100
3, 372384, Note_on_c, 1, 56, 70
3, 372476, Note_off_c, 1, 52, 100
3, 372480, Note_on_c, 1, 52, 70
3, 372572, Note_off_c, 1, 56, 100
3, 372576, Note_on_c, 1, 56, 70
3, 372668, Note_off_c, 1, 52, 100
3, 372672, Note_on_c, 1, 52, 70
3, 372764, Note_off_c, 1, 56, 100
3, 372768, Note_on_c, 1, 56, 70
3, 372860, Note_off_c, 1, 52, 100
3, 372864, Note_on_c, 1, 52, 70
3, 372956, Note_off_c, 1, 56, 100
3, 372960, Note_on_c, 1, 56, 70
3, 373052, Note_off_c, 1, 52, 100
3, 373056, Note_on_c, 1, 52, 70
3, 373148, Note_off_c, 1, 56, 100
3, 373152, Note_on_c, 1, 56, 70
3, 373240, Control_c, 1, 64, 0
3, 373244, Note_off_c, 1, 52, 100
3, 373248, Control_c, 1, 64, 127
3, 373248, Note_on_c, 1, 48, 70
3, 373340, Note_off_c, 1, 56, 100
3, 373344, Note_on_c, 1, 56, 70
3, 373436, Note_off_c, 1, 48, 100
3, 373440, Note_on_c, 1, 48, 70
3, 373532, Note_off_c, 1, 56, 100
3, 373536, Note_on_c, 1, 56, 70
3, 373628, Note_off_c, 1, 48, 100
3, 373632, Note_on_c, 1, 48, 70
3, 373724, Note_off_c, 1, 56, 100
3, 373728, Note_on_c, 1, 56, 70
3, 373820, Note_off_c, 1, 48, 100
3, 373824, Note_on_c, 1, 48, 70
3, 373916, Note_off_c, 1, 56, 100
3, 373920, Note_on_c, 1, 56, 70
3, 374012, Note_off_c, 1, 48, 100
3, 374016, Note_on_c, 1, 48, 70
3, 374108, Note_off_c, 1, 56, 100
3, 374112, Note_on_c, 1, 56, 70
3, 374204, Note_off_c, 1, 48, 100
3, 374208, Note_on_c, 1, 48, 70
3, 374300, Note_off_c, 1, 56, 100
3, 374304, Note_on_c, 1, 56, 70
3, 374396, Note_off_c, 1, 48, 100
3, 374400, Note_on_c, 1, 48, 70
3, 374492, Note_off_c, 1, 56, 100
3, 374496, Note_on_c, 1, 56, 70
3, 374588, Note_off_c, 1, 48, 100
3, 374592, Note_on_c, 1, 48, 70
3, 374684, Note_off_c, 1, 56, 100
3, 374688, Note_on_c, 1, 56, 70
3, 374776, Control_c, 1, 64, 0
3, 374780, Note_off_c, 1, 48, 100
3, 374784, Control_c, 1, 64, 127
3, 374784, Note_on_c, 1, 49, 90
3, 374876, Note_off_c, 1, 56, 100
3, 374880, Note_on_c, 1, 56, 90
3, 374972, Note_off_c, 1, 49, 100
3, 374976, Note_on_c, 1, 49, 91
3, 375068, Note_off_c, 1, 56, 100
3, 375072, Note_on_c, 1, 56, 91
3, 375164, Note_off_c, 1, 49, 100
3, 375168, Note_on_c, 1, 49, 92
3, 375260, Note_off_c, 1, 56, 100
3, 375264, Note_on_c, 1, 56, 93
3, 375356, Note_off_c, 1, 49, 100
3, 375360, Note_on_c, 1, 49, 93
3, 375452, Note_off_c, 1, 56, 100
3, 375456, Note_on_c, 1, 56, 94
3, 375544, Control_c, 1, 64, 0
3, 375548, Note_off_c, 1, 49, 100
3, 375552, Control_c, 1, 64, 127
3, 375552, Note_on_c, 1, 47, 94
3, 375644, Note_off_c, 1, 56, 100
3, 375648, Note_on_c, 1, 49, 95
3, 375740, Note_off_c, 1, 47, 100
3, 375744, Note_on_c, 1, 47, 96
3, 375836, Note_off_c, 1, 49, 100
3, 375840, Note_on_c, 1, 49, 96
3, 375932, Note_off_c, 1, 47, 100
3, 375936, Note_on_c, 1, 47, 97
3, 376028, Note_off_c, 1, 49, 100
3, 376032, Note_on_c, 1, 49, 98
3, 376124, Note_off_c, 1, 47, 100
3, 376128, Note_on_c, 1, 47, 98
3, 376220, Note_off_c, 1, 49, 100
3, 376224, Note_on_c, 1, 49, 99
3, 376312, Control_c, 1, 64, 0
3, 376316, Note_off_c, 1, 47, 100
3, 376320, Control_c, 1, 64, 127
3, 376320, Note_on_c, 1, 45, 99
3, 376412, Note_off_c, 1, 49, 100
3, 376416, Note_on_c, 1, 49, 100
3, 376508, Note_off_c, 1, 45, 100
3, 376512, Note_on_c, 1, 45, 101
3, 376604, Note_off_c, 1, 49, 100
3, 376608, Note_on_c, 1, 49, 101
3, 376700, Note_off_c, 1, 45, 100
3, 376704, Note_on_c, 1, 45, 102
3, 376796, Note_off_c, 1, 49, 100
3, 376800, Note_on_c, 1, 49, 103
3, 376892, Note_off_c, 1, 45, 100
3, 376896, Note_on_c, 1, 45, 103
3, 376988, Note_off_c, 1, 49, 100
3, 376992, Note_on_c, 1, 49, 104
3, 377080, Control_c, 1, 64, 0
3, 377084, Note_off_c, 1, 45, 100
3, 377088, Control_c, 1, 64, 127
3, 377088, Note_on_c, 1, 41, 104
3, 377180, Note_off_c, 1, 49, 100
3, 377184, Note_on_c, 1, 49, 105
3, 377276, Note_off_c, 1, 41, 100
3, 377280, Note_on_c, 1, 41, 106
3, 377372, Note_off_c, 1, 49, 100
3, 377376, Note_on_c, 1, 49, 106
3, 377468, Note_off_c, 1, 41, 100
3, 377472, Note_on_c, 1, 41, 107
3, 377564, Note_off_c, 1, 49, 100
3, 377568, Note_on_c, 1, 49, 108
3, 377660, Note_off_c, 1, 41, 100
3, 377664, Note_on_c, 1, 41, 108
3, 377756, Note_off_c, 1, 49, 100
3, 377760, Note_on_c, 1, 49, 109
3, 377848, Control_c, 1, 64, 0
3, 377852, Note_off_c, 1, 41, 100
3, 377856, Note_on_c, 1, 37, 120
3, 377856, Note_on_c, 1, 30, 120
3, 377856, Note_on_c, 1, 42, 120
3, 377948, Note_off_c, 1, 49, 100
3, 380924, Note_off_c, 1, 30, 100
3, 380924, Note_off_c, 1, 37, 100
3, 380924, Note_off_c, 1, 42, 100
3, 380928, Note_on_c, 1, 42, 120
3, 380928, Note_on_c, 1, 38, 120
3, 380928, Note_on_c, 1, 30, 120
3, 383996, Note_off_c, 1, 30, 100
3, 383996, Note_off_c, 1, 38, 100
3, 383996, Note_off_c, 1, 42, 100
3, 384000, Note_on_c, 1, 43, 120
3, 384000, Note_on_c, 1, 37, 120
3, 384000, Note_on_c, 1, 31, 120
3, 387068, Note_off_c, 1, 31, 100
3, 387068, Note_off_c, 1, 37, 100
3, 387068, Note_off_c, 1, 43, 100
3, 387072, Note_on_c, 1, 44, 120
3, 387072, Note_on_c, 1, 37, 120
3, 387072, Note_on_c, 1, 32, 120
3, 390140, Note_off_c, 1, 32, 100
3, 390140, Note_off_c, 1, 37, 100
3, 390140, Note_off_c, 1, 44, 100
3, 390144, Note_on_c, 1, 44, 110
3, 390240, Note_on_c, 1, 45, 110
3, 390332, Note_off_c, 1, 44, 100
3, 390336, Note_on_c, 1, 46, 110
3, 390428, Note_off_c, 1, 45, 100
3, 390432, Note_on_c, 1, 47, 110
3, 390524, Note_off_c, 1, 46, 100
3, 390620, Note_off_c, 1, 47, 100
3, 393216, Note_on_c, 1, 66, 100
3, 393216, Note_on_c, 1, 60, 100
3, 393216, Note_on_c, 1, 56, 100
3, 394748, Note_off_c, 1, 66, 100
3, 394748, Note_off_c, 1, 60, 100
3, 394748, Note_off_c, 1, 56, 100
3, 399360, Note_on_c, 1, 31, 70
3, 400892, Note_off_c, 1, 31, 100
3, 400896, Note_on_c, 1, 32, 70
3, 402428, Note_off_c, 1, 32, 100
3, 402432, Note_on_c, 1, 49, 70
3, 402432, Control_c, 1, 64, 127
3, 402432, Note_on_c, 1, 37, 70
3, 402524, Note_off_c, 1, 49, 100
3, 402528, Note_on_c, 1, 49, 70
3, 402620, Note_off_c, 1, 37, 100
3, 402624, Note_on_c, 1, 44, 70
3, 402716, Note_off_c, 1, 49, 100
3, 402720, Note_on_c, 1, 49, 70
3, 402812, Note_off_c, 1, 44, 100
3, 402816, Note_on_c, 1, 37, 70
3, 402908, Note_off_c, 1, 49, 100
3, 402912, Note_on_c, 1, 49, 70
3, 403004, Note_off_c, 1, 37, 100
3, 403008, Note_on_c, 1, 44, 70
3, 403100, Note_off_c, 1, 49, 100
3, 403104, Note_on_c, 1, 49, 70
3, 403196, Note_off_c, 1, 44, 100
3, 403200, Note_on_c, 1, 37, 70
3, 403292, Note_off_c, 1, 49, 100
3, 403296, Note_on_c, 1, 49, 70
3, 403388, Note_off_c, 1, 37, 100
3, 403392, Note_on_c, 1, 44, 70
3, 403484, Note_off_c, 1, 49, 100
3, 403488, Note_on_c, 1, 49, 70
3, 403580, Note_off_c, 1, 44, 100
3, 403584, Note_on_c, 1, 37, 70
3, 403676, Note_off_c, 1, 49, 100
3, 403680, Note_on_c, 1, 49, 70
3, 403772, Note_off_c, 1, 37, 100
3, 403776, Note_on_c, 1, 44, 70
3, 403868, Note_off_c, 1, 49, 100
3, 403872, Note_on_c, 1, 49, 70
3, 403960, Control_c, 1, 64, 0
3, 403964, Note_off_c, 1, 44, 100
3, 403968, Control_c, 1, 64, 127
3, 403968, Note_on_c, 1, 37, 70
3, 404060, Note_off_c, 1, 49, 100
3, 404064, Note_on_c, 1, 51, 70
3, 404156, Note_off_c, 1, 37, 100
3, 404160, Note_on_c, 1, 44, 70
3, 404252, Note_off_c, 1, 51, 100
3, 404256, Note_on_c, 1, 51, 70
3, 404348, Note_off_c, 1, 44, 100
3, 404352, Note_on_c, 1, 37, 70
3, 404444, Note_off_c, 1, 51, 100
3, 404448, Note_on_c, 1, 51, 70
3, 404540, Note_off_c, 1, 37, 100
3, 404544, Note_on_c, 1, 44, 70
3, 404636, Note_off_c, 1, 51, 100
3, 404640, Note_on_c, 1, 51, 70
3, 404732, Note_off_c, 1, 44, 100
3, 404736, Note_on_c, 1, 37, 70
3, 404828, Note_off_c, 1, 51, 100
3, 404832, Note_on_c, 1, 51, 70
3, 404924, Note_off_c, 1, 37, 100
3, 404928, Note_on_c, 1, 44, 70
3, 405020, Note_off_c, 1, 51, 100
3, 405024, Note_on_c, 1, 51, 70
3, 405116, Note_off_c, 1, 44, 100
3, 405120, Note_on_c, 1, 37, 70
3, 405212, Note_off_c, 1, 51, 100
3, 405216, Note_on_c, 1, 51, 70
3, 405308, Note_off_c, 1, 37, 100
3, 405312, Note_on_c, 1, 44, 70
3, 405404, Note_off_c, 1, 51, 100
3, 405408, Note_on_c, 1, 51, 70
3, 405496, Control_c, 1, 64, 0
3, 405500, Note_off_c, 1, 44, 100
3, 405504, Control_c, 1, 64, 127
3, 405504, Note_on_c, 1, 37, 70
3, 405596, Note_off_c, 1, 51, 100
3, 405600, Note_on_c, 1, 49, 70
3, 405692, Note_off_c, 1, 37, 100
3, 405696, Note_on_c, 1, 44, 70
3, 405788, Note_off_c, 1, 49, 100
3, 405792, Note_on_c, 1, 49, 70
3, 405884, Note_off_c, 1, 44, 100
3, 405888, Note_on_c, 1, 37, 70
3, 405980, Note_off_c, 1, 49, 100
3, 405984, Note_on_c, 1, 49, 70
3, 406076, Note_off_c, 1, 37, 100
3, 406080, Note_on_c, 1, 44, 70
3, 406172, Note_off_c, 1, 49, 100
3, 406176, Note_on_c, 1, 49, 70
3, 406268, Note_off_c, 1, 44, 100
3, 406272, Note_on_c, 1, 37, 70
3, 406364, Note_off_c, 1, 49, 100
3, 406368, Note_on_c, 1, 49, 70
3, 406460, Note_off_c, 1, 37, 100
3, 406464, Note_on_c, 1, 44, 70
3, 406556, Note_off_c, 1, 49, 100
3, 406560, Note_on_c, 1, 49, 70
3, 406652, Note_off_c, 1, 44, 100
3, 406656, Note_on_c, 1, 37, 70
3, 406748, Note_off_c, 1, 49, 100
3, 406752, Note_on_c, 1, 49, 70
3, 406844, Note_off_c, 1, 37, 100
3, 406848, Note_on_c, 1, 44, 70
3, 406940, Note_off_c, 1, 49, 100
3, 406944, Note_on_c, 1, 49, 70
3, 407032, Control_c, 1, 64, 0
3, 407036, Note_off_c, 1, 44, 100
3, 407040, Control_c, 1, 64, 127
3, 407040, Note_on_c, 1, 37, 70
3, 407132, Note_off_c, 1, 49, 100
3, 407136, Note_on_c, 1, 51, 70
3, 407228, Note_off_c, 1, 37, 100
3, 407232, Note_on_c, 1, 44, 70
3, 407324, Note_off_c, 1, 51, 100
3, 407328, Note_on_c, 1, 51, 70
3, 407420, Note_off_c, 1, 44, 100
3, 407424, Note_on_c, 1, 37, 70
3, 407516, Note_off_c, 1, 51, 100
3, 407520, Note_on_c, 1, 51, 70
3, 407612, Note_off_c, 1, 37, 100
3, 407616, Note_on_c, 1, 44, 70
3, 407708, Note_off_c, 1, 51, 100
3, 407712, Note_on_c, 1, 51, 70
3, 407804, Note_off_c, 1, 44, 100
3, 407808, Note_on_c, 1, 37, 70
3, 407900, Note_off_c, 1, 51, 100
3, 407904, Note_on_c, 1, 51, 70
3, 407996, Note_off_c, 1, 37, 100
3, 408000, Note_on_c, 1, 44, 70
3, 408092, Note_off_c, 1, 51, 100
3, 408096, Note_on_c, 1, 51, 70
3, 408188, Note_off_c, 1, 44, 100
3, 408192, Note_on_c, 1, 37, 70
3, 408284, Note_off_c, 1, 51, 100
3, 408288, Note_on_c, 1, 51, 70
3, 408380, Note_off_c, 1, 37, 100
3, 408384, Note_on_c, 1, 44, 70
3, 408476, Note_off_c, 1, 51, 100
3, 408480, Note_on_c, 1, 51, 70
3, 408568, Control_c, 1, 64, 0
3, 408572, Note_off_c, 1, 44, 100
3, 408576, Control_c, 1, 64, 127
3, 408576, Note_on_c, 1, 37, 70
3, 408668, Note_off_c, 1, 51, 100
3, 408672, Note_on_c, 1, 49, 70
3, 408764, Note_off_c, 1, 37, 100
3, 408768, Note_on_c, 1, 44, 70
3, 408860, Note_off_c, 1, 49, 100
3, 408864, Note_on_c, 1, 49, 70
3, 408956, Note_off_c, 1, 44, 100
3, 408960, Note_on_c, 1, 37, 70
3, 409052, Note_off_c, 1, 49, 100
3, 409056, Note_on_c, 1, 49, 70
3, 409148, Note_off_c, 1, 37, 100
3, 409152, Note_on_c, 1, 44, 70
3, 409244, Note_off_c, 1, 49, 100
3, 409248, Note_on_c, 1, 49, 70
3, 409336, Control_c, 1, 64, 0
3, 409340, Note_off_c, 1, 44, 100
3, 409344, Control_c, 1, 64, 127
3, 409344, Note_on_c, 1, 37, 70
3, 409436, Note_off_c, 1, 49, 100
3, 409440, Note_on_c, 1, 51, 70
3, 409532, Note_off_c, 1, 37, 100
3, 409536, Note_on_c, 1, 44, 70
3, 409628, Note_off_c, 1, 51, 100
3, 409632, Note_on_c, 1, 51, 70
3, 409724, Note_off_c, 1, 44, 100
3, 409728, Note_on_c, 1, 37, 70
3, 409820, Note_off_c, 1, 51, 100
3, 409824, Note_on_c, 1, 51, 70
3, 409916, Note_off_c, 1, 37, 100
3, 409920, Note_on_c, 1, 44, 70
3, 410012, Note_off_c, 1, 51, 100
3, 410016, Note_on_c, 1, 51, 70
3, 410104, Control_c, 1, 64, 0
3, 410108, Note_off_c, 1, 44, 100
3, 410112, Control_c, 1, 64, 127
3, 410112, Note_on_c, 1, 37, 70
3, 410204, Note_off_c, 1, 51, 100
3, 410208, Note_on_c, 1, 49, 70
3, 410300, Note_off_c, 1, 37, 100
3, 410304, Note_on_c, 1, 44, 70
3, 410396, Note_off_c, 1, 49, 100
3, 410400, Note_on_c, 1, 49, 70
3, 410492, Note_off_c, 1, 44, 100
3, 410496, Note_on_c, 1, 37, 70
3, 410588, Note_off_c, 1, 49, 100
3, 410592, Note_on_c, 1, 49, 70
3, 410684, Note_off_c, 1, 37, 100
3, 410688, Note_on_c, 1, 44, 70
3, 410780, Note_off_c, 1, 49, 100
3, 410784, Note_on_c, 1, 49, 70
3, 410872, Control_c, 1, 64, 0
3, 410876, Note_off_c, 1, 44, 100
3, 410880, Control_c, 1, 64, 127
3, 410880, Note_on_c, 1, 37, 70
3, 410972, Note_off_c, 1, 49, 100
3, 410976, Note_on_c, 1, 51, 70
3, 411068, Note_off_c, 1, 37, 100
3, 411072, Note_on_c, 1, 44, 70
3, 411164, Note_off_c, 1, 51, 100
3, 411168, Note_on_c, 1, 51, 70
3, 411260, Note_off_c, 1, 44, 100
3, 411264, Note_on_c, 1, 37, 70
3, 411356, Note_off_c, 1, 51, 100
3, 411360, Note_on_c, 1, 51, 70
3, 411452, Note_off_c, 1, 37, 100
3, 411456, Note_on_c, 1, 44, 70
3, 411548, Note_off_c, 1, 51, 100
3, 411552, Note_on_c, 1, 51, 70
3, 411640, Control_c, 1, 64, 0
3, 411644, Note_off_c, 1, 44, 100
3, 411648, Note_on_c, 1, 49, 110
3, 411648, Note_on_c, 1, 44, 110
3, 411648, Note_on_c, 1, 37, 110
3, 411740, Note_off_c, 1, 51, 100
3, 411744, Note_on_c, 1, 52, 110
3, 411836, Note_off_c, 1, 49, 100
3, 411836, Note_off_c, 1, 44, 100
3, 411836, Note_off_c, 1, 37, 100
3, 411840, Note_on_c, 1, 56, 110
3, 411932, Note_off_c, 1, 52, 100
3, 411936, Note_on_c, 1, 61, 110
3, 412028, Note_off_c, 1, 56, 100
3, 412032, Note_on_c, 1, 64, 110
3, 412124, Note_off_c, 1, 61, 100
3, 412128, Note_on_c, 1, 56, 110
3, 412220, Note_off_c, 1, 64, 100
3, 412224, Note_on_c, 1, 61, 110
3, 412316, Note_off_c, 1, 56, 100
3, 412320, Note_on_c, 1, 64, 110
3, 412412, Note_off_c, 1, 61, 100
3, 412416, Note_on_c, 1, 68, 110
3, 412508, Note_off_c, 1, 64, 100
3, 412512, Note_on_c, 1, 61, 110
3, 412604, Note_off_c, 1, 68, 100
3, 412608, Note_on_c, 1, 64, 110
3, 412700, Note_off_c, 1, 61, 100
3, 412704, Note_on_c, 1, 68, 110
3, 412796, Note_off_c, 1, 64, 100
3, 412800, Note_on_c, 1, 73, 110
3, 412892, Note_off_c, 1, 68, 100
3, 412896, Note_on_c, 1, 64, 110
3, 412988, Note_off_c, 1, 73, 100
3, 412992, Note_on_c, 1, 68, 110
3, 413084, Note_off_c, 1, 64, 100
3, 413088, Note_on_c, 1, 73, 110
3, 413180, Note_off_c, 1, 68, 100
3, 413184, Note_on_c, 1, 76, 110
3, 413276, Note_off_c, 1, 73, 100
3, 413280, Note_on_c, 1, 73, 110
3, 413376, Note_on_c, 1, 68, 110
3, 413468, Note_off_c, 1, 76, 100
3, 413472, Note_on_c, 1, 64, 110
3, 413564, Note_off_c, 1, 73, 100
3, 413568, Note_on_c, 1, 73, 110
3, 413660, Note_off_c, 1, 68, 100
3, 413664, Note_on_c, 1, 68, 110
3, 413756, Note_off_c, 1, 64, 100
3, 413760, Note_on_c, 1, 64, 110
3, 413852, Note_off_c, 1, 73, 100
3, 413856, Note_on_c, 1, 61, 110
3, 413948, Note_off_c, 1, 68, 100
3, 413952, Note_on_c, 1, 68, 110
3, 414044, Note_off_c, 1, 64, 100
3, 414048, Note_on_c, 1, 64, 110
3, 414140, Note_off_c, 1, 61, 100
3, 414144, Note_on_c, 1, 61, 110
3, 414236, Note_off_c, 1, 68, 100
3, 414240, Note_on_c, 1, 56, 110
3, 414332, Note_off_c, 1, 64, 100
3, 414336, Note_on_c, 1, 64, 110
3, 414428, Note_off_c, 1, 61, 100
3, 414432, Note_on_c, 1, 61, 110
3, 414524, Note_off_c, 1, 56, 100
3, 414528, Note_on_c, 1, 56, 110
3, 414620, Note_off_c, 1, 64, 100
3, 414624, Note_on_c, 1, 52, 110
3, 414716, Note_off_c, 1, 61, 100
3, 414720, Note_on_c, 1, 61, 110
3, 414812, Note_off_c, 1, 56, 100
3, 414816, Note_on_c, 1, 56, 110
3, 414908, Note_off_c, 1, 52, 100
3, 414912, Note_on_c, 1, 52, 110
3, 415004, Note_off_c, 1, 61, 100
3, 415008, Note_on_c, 1, 49, 110
3, 415100, Note_off_c, 1, 56, 100
3, 415104, Note_on_c, 1, 56, 110
3, 415196, Note_off_c, 1, 52, 100
3, 415200, Note_on_c, 1, 52, 110
3, 415292, Note_off_c, 1, 49, 100
3, 415296, Note_on_c, 1, 49, 110
3, 415388, Note_off_c, 1, 56, 100
3, 415392, Note_on_c, 1, 44, 110
3, 415484, Note_off_c, 1, 52, 100
3, 415488, Note_on_c, 1, 52, 110
3, 415580, Note_off_c, 1, 49, 100
3, 415584, Note_on_c, 1, 49, 110
3, 415676, Note_off_c, 1, 44, 100
3, 415680, Note_on_c, 1, 44, 110
3, 415772, Note_off_c, 1, 52, 100
3, 415776, Note_on_c, 1, 40, 110
3, 415868, Note_off_c, 1, 49, 100
3, 415872, Note_on_c, 1, 49, 110
3, 415964, Note_off_c, 1, 44, 100
3, 415968, Note_on_c, 1, 44, 110
3, 416060, Note_off_c, 1, 40, 100
3, 416064, Note_on_c, 1, 40, 110
3, 416156, Note_off_c, 1, 49, 100
3, 416160, Note_on_c, 1, 44, 110
3, 416252, Note_off_c, 1, 44, 100
3, 416252, Note_off_c, 1, 40, 100
3, 416256, Note_on_c, 1, 37, 120
3, 416348, Note_off_c, 1, 44, 100
3, 417020, Note_off_c, 1, 37, 100
3, 417024, Note_on_c, 1, 49, 120
3, 417024, Note_on_c, 1, 44, 120
3, 417024, Note_on_c, 1, 40, 120
3, 417024, Note_on_c, 1, 37, 120
3, 417788, Note_off_c, 1, 49, 100
3, 417788, Note_off_c, 1, 44, 100
3, 417788, Note_off_c, 1, 40, 100
3, 417788, Note_off_c, 1, 37, 100
3, 417792, Note_on_c, 1, 49, 120
3, 417792, Note_on_c, 1, 44, 120
3, 417792, Note_on_c, 1, 40, 120
3, 417792, Note_on_c, 1, 37, 120
3, 419324, Note_off_c, 1, 49, 100
3, 419324, Note_off_c, 1, 44, 100
3, 419324, Note_off_c, 1, 40, 100
3, 419324, Note_off_c, 1, 37, 100
3, 419324, End_track
0, 0, End_of_file
