0, 0, Header, 1, 3, 384
1, 0, Start_track
1, 0, Title_t, "L.v.Beethoven 4mov - Piano Sonata No.15 in D Major Op.28\000"
1, 0, Copyright_t, "Copyright(C) 1995-2009, Suzuki Software\000"
1, 0, Sequencer_specific, 9, 67, 123, 0, 88, 70, 48, 50, 0, 1
1, 0, Text_t, "XFhd:2000/06/20:JP:Classical::::L.v.Beethoven:::Kaoru Suzuki\000"
1, 0, Text_t, "XFln:JP:\203s\203A\203m\203\\\203i\203^\221æ15\224Ô\203j\222·\222²\215ì\225i28\201`\221æ4\212y\217Í:L.v.\203x\201[\203g\201[\203\224\203F\203\223:::\227é\202¿\202á\202ñ:\227é\202¿\202á\202ñ\000"
1, 0, Time_signature, 1, 3, 96, 8
1, 0, Sequencer_specific, 3, 0, 0, 65
1, 0, Sequencer_specific, 5, 0, 0, 119, 14, 0
1, 0, Tempo, 375000
1, 192, Time_signature, 6, 3, 96, 8
1, 16896, Tempo, 387096
1, 17088, Tempo, 400000
1, 18624, Tempo, 375000
1, 28992, Tempo, 387096
1, 30144, Tempo, 400000
1, 30720, Tempo, 413793
1, 30912, Tempo, 428571
1, 31104, Tempo, 480000
1, 32448, Tempo, 400000
1, 48768, Tempo, 375000
1, 128064, Tempo, 387096
1, 128640, Tempo, 400000
1, 128832, Tempo, 413793
1, 129024, Tempo, 444444
1, 131520, Tempo, 375000
1, 163776, Tempo, 387096
1, 164928, Tempo, 400000
1, 165504, Tempo, 428571
1, 165888, Tempo, 500000
1, 167232, Tempo, 400000
1, 170304, Tempo, 461538
1, 171264, Tempo, 600000
1, 171456, Tempo, 428571
1, 171840, Tempo, 400000
1, 172992, Tempo, 387096
1, 181056, Tempo, 400000
1, 181632, Tempo, 428571
1, 184704, Tempo, 400000
1, 185088, Tempo, 375000
1, 220224, Tempo, 428571
1, 220800, Tempo, 461538
1, 221376, Tempo, 500000
1, 221952, Tempo, 600000
1, 223296, Tempo, 333333
1, 239808, Tempo, 352941
1, 240384, Tempo, 387096
1, 240960, Tempo, 406779
1, 241536, Tempo, 428571
1, 242688, Tempo, 571428
1, 242688, End_track
2, 0, Start_track
2, 0, Title_t, "Right"
2, 0, Control_c, 0, 0, 0
2, 0, Program_c, 0, 0
2, 0, Control_c, 0, 7, 100
2, 0, Control_c, 0, 10, 72
2, 0, Control_c, 0, 91, 127
2, 0, Key_signature, 2, "major"
2, 2304, Note_on_c, 0, 81, 80
2, 2496, Note_on_c, 0, 69, 80
2, 2684, Note_off_c, 0, 81, 100
2, 2688, Note_on_c, 0, 79, 80
2, 2876, Note_off_c, 0, 79, 100
2, 2880, Note_on_c, 0, 78, 80
2, 3068, Note_off_c, 0, 69, 100
2, 3068, Note_off_c, 0, 78, 100
2, 3072, Note_on_c, 0, 71, 80
2, 3072, Note_on_c, 0, 76, 80
2, 3260, Note_off_c, 0, 76, 100
2, 3264, Note_on_c, 0, 78, 80
2, 3452, Note_off_c, 0, 78, 100
2, 3456, Note_on_c, 0, 74, 80
2, 3644, Note_off_c, 0, 71, 100
2, 3644, Note_off_c, 0, 74, 100
2, 3648, Note_on_c, 0, 71, 80
2, 3648, Note_on_c, 0, 67, 80
2, 3836, Note_off_c, 0, 71, 100
2, 3840, Note_on_c, 0, 76, 80
2, 4028, Note_off_c, 0, 67, 100
2, 4028, Note_off_c, 0, 76, 100
2, 4032, Note_on_c, 0, 73, 80
2, 4032, Note_on_c, 0, 67, 80
2, 4220, Note_off_c, 0, 73, 100
2, 4220, Note_off_c, 0, 67, 100
2, 4224, Note_on_c, 0, 74, 80
2, 4224, Note_on_c, 0, 66, 80
2, 4412, Note_off_c, 0, 74, 100
2, 4412, Note_off_c, 0, 66, 100
2, 6912, Note_on_c, 0, 81, 80
2, 7104, Note_on_c, 0, 69, 80
2, 7292, Note_off_c, 0, 81, 100
2, 7296, Note_on_c, 0, 79, 80
2, 7484, Note_off_c, 0, 79, 100
2, 7488, Note_on_c, 0, 78, 80
2, 7676, Note_off_c, 0, 69, 100
2, 7676, Note_off_c, 0, 78, 100
2, 7680, Note_on_c, 0, 71, 80
2, 7680, Note_on_c, 0, 76, 80
2, 7868, Note_off_c, 0, 76, 100
2, 7872, Note_on_c, 0, 78, 80
2, 8060, Note_off_c, 0, 78, 100
2, 8064, Note_on_c, 0, 74, 80
2, 8252, Note_off_c, 0, 71, 100
2, 8252, Note_off_c, 0, 74, 100
2, 8256, Note_on_c, 0, 71, 80
2, 8256, Note_on_c, 0, 67, 80
2, 8444, Note_off_c, 0, 71, 100
2, 8448, Note_on_c, 0, 76, 80
2, 8636, Note_off_c, 0, 67, 100
2, 8636, Note_off_c, 0, 76, 100
2, 8640, Note_on_c, 0, 73, 80
2, 8640, Note_on_c, 0, 67, 80
2, 8828, Note_off_c, 0, 73, 100
2, 8828, Note_off_c, 0, 67, 100
2, 8832, Note_on_c, 0, 74, 80
2, 8832, Note_on_c, 0, 66, 80
2, 9020, Note_off_c, 0, 74, 100
2, 9020, Note_off_c, 0, 66, 100
2, 9216, Note_on_c, 0, 66, 80
2, 9216, Note_on_c, 0, 74, 80
2, 9404, Note_off_c, 0, 66, 100
2, 9408, Note_on_c, 0, 67, 80
2, 9788, Note_off_c, 0, 74, 100
2, 9792, Note_on_c, 0, 73, 80
2, 9980, Note_off_c, 0, 73, 100
2, 9984, Note_on_c, 0, 81, 90
2, 10172, Note_off_c, 0, 67, 100
2, 10172, Note_off_c, 0, 81, 100
2, 10368, Note_on_c, 0, 73, 80
2, 10368, Note_on_c, 0, 67, 80
2, 10556, Note_off_c, 0, 73, 100
2, 10556, Note_off_c, 0, 67, 100
2, 10560, Note_on_c, 0, 66, 80
2, 10560, Note_on_c, 0, 76, 80
2, 10940, Note_off_c, 0, 76, 100
2, 10944, Note_on_c, 0, 74, 80
2, 11132, Note_off_c, 0, 74, 100
2, 11136, Note_on_c, 0, 81, 90
2, 11324, Note_off_c, 0, 66, 100
2, 11324, Note_off_c, 0, 81, 100
2, 11520, Note_on_c, 0, 66, 80
2, 11520, Note_on_c, 0, 74, 80
2, 11708, Note_off_c, 0, 66, 100
2, 11712, Note_on_c, 0, 67, 80
2, 12092, Note_off_c, 0, 74, 100
2, 12096, Note_on_c, 0, 73, 80
2, 12284, Note_off_c, 0, 73, 100
2, 12288, Note_on_c, 0, 81, 90
2, 12476, Note_off_c, 0, 67, 100
2, 12476, Note_off_c, 0, 81, 100
2, 12672, Note_on_c, 0, 73, 80
2, 12672, Note_on_c, 0, 67, 80
2, 12860, Note_off_c, 0, 73, 100
2, 12860, Note_off_c, 0, 67, 100
2, 12864, Note_on_c, 0, 74, 80
2, 12864, Note_on_c, 0, 66, 80
2, 13244, Note_off_c, 0, 74, 100
2, 13244, Note_off_c, 0, 66, 100
2, 13824, Note_on_c, 0, 66, 80
2, 13824, Note_on_c, 0, 74, 80
2, 14012, Note_off_c, 0, 66, 100
2, 14016, Note_on_c, 0, 67, 80
2, 14300, Note_off_c, 0, 74, 100
2, 14304, Note_on_c, 0, 73, 80
2, 14396, Note_off_c, 0, 73, 100
2, 14400, Note_on_c, 0, 71, 80
2, 14492, Note_off_c, 0, 71, 100
2, 14496, Note_on_c, 0, 73, 80
2, 14588, Note_off_c, 0, 73, 100
2, 14592, Note_on_c, 0, 81, 90
2, 14780, Note_off_c, 0, 67, 100
2, 14780, Note_off_c, 0, 81, 100
2, 14976, Note_on_c, 0, 73, 80
2, 14976, Note_on_c, 0, 67, 80
2, 15164, Note_off_c, 0, 73, 100
2, 15164, Note_off_c, 0, 67, 100
2, 15168, Note_on_c, 0, 66, 80
2, 15168, Note_on_c, 0, 76, 80
2, 15452, Note_off_c, 0, 76, 100
2, 15456, Note_on_c, 0, 74, 80
2, 15548, Note_off_c, 0, 74, 100
2, 15552, Note_on_c, 0, 73, 80
2, 15644, Note_off_c, 0, 73, 100
2, 15648, Note_on_c, 0, 74, 80
2, 15740, Note_off_c, 0, 74, 100
2, 15744, Note_on_c, 0, 81, 90
2, 15932, Note_off_c, 0, 66, 100
2, 15932, Note_off_c, 0, 81, 100
2, 16128, Note_on_c, 0, 66, 80
2, 16128, Note_on_c, 0, 74, 80
2, 16316, Note_off_c, 0, 66, 100
2, 16320, Note_on_c, 0, 67, 80
2, 16604, Note_off_c, 0, 74, 100
2, 16608, Note_on_c, 0, 73, 80
2, 16700, Note_off_c, 0, 73, 100
2, 16704, Note_on_c, 0, 71, 80
2, 16796, Note_off_c, 0, 71, 100
2, 16800, Note_on_c, 0, 73, 80
2, 16892, Note_off_c, 0, 73, 100
2, 16896, Note_on_c, 0, 81, 90
2, 17084, Note_off_c, 0, 67, 100
2, 17084, Note_off_c, 0, 81, 100
2, 17280, Note_on_c, 0, 73, 80
2, 17280, Note_on_c, 0, 67, 80
2, 17468, Note_off_c, 0, 73, 100
2, 17468, Note_off_c, 0, 67, 100
2, 17472, Note_on_c, 0, 74, 80
2, 17472, Note_on_c, 0, 66, 80
2, 17852, Note_off_c, 0, 74, 100
2, 17852, Note_off_c, 0, 66, 100
2, 18432, Note_on_c, 0, 62, 80
2, 18524, Note_off_c, 0, 62, 100
2, 18528, Note_on_c, 0, 57, 80
2, 18620, Note_off_c, 0, 57, 100
2, 18624, Control_c, 0, 64, 127
2, 18816, Note_on_c, 0, 54, 80
2, 18908, Note_off_c, 0, 54, 100
2, 18912, Note_on_c, 0, 57, 80
2, 19004, Note_off_c, 0, 57, 100
2, 19008, Note_on_c, 0, 62, 80
2, 19100, Note_off_c, 0, 62, 100
2, 19104, Note_on_c, 0, 66, 80
2, 19196, Note_off_c, 0, 66, 100
2, 19196, Control_c, 0, 64, 0
2, 19200, Control_c, 0, 64, 127
2, 19392, Note_on_c, 0, 64, 80
2, 19484, Note_off_c, 0, 64, 100
2, 19488, Note_on_c, 0, 69, 80
2, 19580, Note_off_c, 0, 69, 100
2, 19584, Note_on_c, 0, 73, 80
2, 19676, Note_off_c, 0, 73, 100
2, 19680, Note_on_c, 0, 76, 80
2, 19772, Note_off_c, 0, 76, 100
2, 19772, Control_c, 0, 64, 0
2, 19776, Control_c, 0, 64, 127
2, 19968, Note_on_c, 0, 62, 80
2, 20060, Note_off_c, 0, 62, 100
2, 20064, Note_on_c, 0, 66, 80
2, 20156, Note_off_c, 0, 66, 100
2, 20160, Note_on_c, 0, 71, 80
2, 20252, Note_off_c, 0, 71, 100
2, 20256, Note_on_c, 0, 74, 80
2, 20348, Note_off_c, 0, 74, 100
2, 20348, Control_c, 0, 64, 0
2, 20352, Control_c, 0, 64, 127
2, 20544, Note_on_c, 0, 73, 80
2, 20636, Note_off_c, 0, 73, 100
2, 20640, Note_on_c, 0, 78, 80
2, 20732, Note_off_c, 0, 78, 100
2, 20736, Note_on_c, 0, 81, 80
2, 20828, Note_off_c, 0, 81, 100
2, 20832, Note_on_c, 0, 85, 80
2, 20924, Note_off_c, 0, 85, 100
2, 20924, Control_c, 0, 64, 0
2, 20928, Control_c, 0, 64, 127
2, 21120, Note_on_c, 0, 59, 80
2, 21212, Note_off_c, 0, 59, 100
2, 21216, Note_on_c, 0, 62, 80
2, 21308, Note_off_c, 0, 62, 100
2, 21312, Note_on_c, 0, 67, 80
2, 21404, Note_off_c, 0, 67, 100
2, 21408, Note_on_c, 0, 71, 80
2, 21500, Note_off_c, 0, 71, 100
2, 21500, Control_c, 0, 64, 0
2, 21504, Control_c, 0, 64, 127
2, 21696, Note_on_c, 0, 69, 80
2, 21788, Note_off_c, 0, 69, 100
2, 21792, Note_on_c, 0, 74, 80
2, 21884, Note_off_c, 0, 74, 100
2, 21888, Note_on_c, 0, 78, 80
2, 21980, Note_off_c, 0, 78, 100
2, 21984, Note_on_c, 0, 81, 80
2, 22076, Note_off_c, 0, 81, 100
2, 22076, Control_c, 0, 64, 0
2, 22080, Control_c, 0, 64, 127
2, 22080, Note_on_c, 0, 79, 80
2, 22080, Note_on_c, 0, 73, 80
2, 22172, Note_off_c, 0, 79, 100
2, 22172, Note_off_c, 0, 73, 100
2, 22176, Note_on_c, 0, 69, 80
2, 22268, Note_off_c, 0, 69, 100
2, 22272, Note_on_c, 0, 79, 80
2, 22272, Note_on_c, 0, 73, 80
2, 22364, Note_off_c, 0, 79, 100
2, 22364, Note_off_c, 0, 73, 100
2, 22368, Note_on_c, 0, 69, 80
2, 22460, Note_off_c, 0, 69, 100
2, 22464, Note_on_c, 0, 78, 80
2, 22464, Note_on_c, 0, 74, 80
2, 22556, Note_off_c, 0, 78, 100
2, 22556, Note_off_c, 0, 74, 100
2, 22560, Note_on_c, 0, 69, 80
2, 22652, Note_off_c, 0, 69, 100
2, 22652, Control_c, 0, 64, 0
2, 22656, Note_on_c, 0, 76, 80
2, 22656, Note_on_c, 0, 73, 80
2, 22748, Note_off_c, 0, 76, 100
2, 22748, Note_off_c, 0, 73, 100
2, 22752, Note_on_c, 0, 74, 80
2, 22844, Note_off_c, 0, 74, 100
2, 22848, Note_on_c, 0, 73, 80
2, 22940, Note_off_c, 0, 73, 100
2, 22944, Note_on_c, 0, 71, 80
2, 23036, Note_off_c, 0, 71, 100
2, 23040, Note_on_c, 0, 69, 80
2, 23132, Note_off_c, 0, 69, 100
2, 23136, Note_on_c, 0, 67, 80
2, 23228, Note_off_c, 0, 67, 100
2, 23232, Control_c, 0, 64, 127
2, 23424, Note_on_c, 0, 54, 81
2, 23516, Note_off_c, 0, 54, 100
2, 23520, Note_on_c, 0, 57, 81
2, 23612, Note_off_c, 0, 57, 100
2, 23616, Note_on_c, 0, 62, 82
2, 23708, Note_off_c, 0, 62, 100
2, 23712, Note_on_c, 0, 66, 82
2, 23804, Note_off_c, 0, 66, 100
2, 23804, Control_c, 0, 64, 0
2, 23808, Control_c, 0, 64, 127
2, 24000, Note_on_c, 0, 64, 84
2, 24092, Note_off_c, 0, 64, 100
2, 24096, Note_on_c, 0, 69, 84
2, 24188, Note_off_c, 0, 69, 100
2, 24192, Note_on_c, 0, 73, 85
2, 24284, Note_off_c, 0, 73, 100
2, 24288, Note_on_c, 0, 76, 85
2, 24380, Note_off_c, 0, 76, 100
2, 24380, Control_c, 0, 64, 0
2, 24384, Control_c, 0, 64, 127
2, 24576, Note_on_c, 0, 62, 87
2, 24668, Note_off_c, 0, 62, 100
2, 24672, Note_on_c, 0, 66, 87
2, 24764, Note_off_c, 0, 66, 100
2, 24768, Note_on_c, 0, 71, 88
2, 24860, Note_off_c, 0, 71, 100
2, 24864, Note_on_c, 0, 74, 88
2, 24956, Note_off_c, 0, 74, 100
2, 24956, Control_c, 0, 64, 0
2, 24960, Control_c, 0, 64, 127
2, 25152, Note_on_c, 0, 73, 90
2, 25244, Note_off_c, 0, 73, 100
2, 25248, Note_on_c, 0, 78, 90
2, 25340, Note_off_c, 0, 78, 100
2, 25344, Note_on_c, 0, 81, 91
2, 25436, Note_off_c, 0, 81, 100
2, 25440, Note_on_c, 0, 85, 91
2, 25532, Note_off_c, 0, 85, 100
2, 25532, Control_c, 0, 64, 0
2, 25536, Control_c, 0, 64, 127
2, 25728, Note_on_c, 0, 59, 93
2, 25820, Note_off_c, 0, 59, 100
2, 25824, Note_on_c, 0, 62, 93
2, 25916, Note_off_c, 0, 62, 100
2, 25920, Note_on_c, 0, 68, 94
2, 26012, Note_off_c, 0, 68, 100
2, 26016, Note_on_c, 0, 71, 94
2, 26108, Note_off_c, 0, 71, 100
2, 26108, Control_c, 0, 64, 0
2, 26112, Control_c, 0, 64, 127
2, 26304, Note_on_c, 0, 69, 96
2, 26396, Note_off_c, 0, 69, 100
2, 26400, Note_on_c, 0, 75, 97
2, 26492, Note_off_c, 0, 75, 100
2, 26496, Note_on_c, 0, 78, 97
2, 26588, Note_off_c, 0, 78, 100
2, 26592, Note_on_c, 0, 81, 98
2, 26684, Note_off_c, 0, 81, 100
2, 26684, Control_c, 0, 64, 0
2, 26688, Control_c, 0, 64, 127
2, 26880, Note_on_c, 0, 56, 99
2, 26972, Note_off_c, 0, 56, 100
2, 26976, Note_on_c, 0, 59, 100
2, 27068, Note_off_c, 0, 59, 100
2, 27072, Note_on_c, 0, 64, 100
2, 27164, Note_off_c, 0, 64, 100
2, 27168, Note_on_c, 0, 68, 101
2, 27260, Note_off_c, 0, 68, 100
2, 27260, Control_c, 0, 64, 0
2, 27264, Control_c, 0, 64, 127
2, 27456, Note_on_c, 0, 73, 102
2, 27548, Note_off_c, 0, 73, 100
2, 27552, Note_on_c, 0, 76, 103
2, 27644, Note_off_c, 0, 76, 100
2, 27648, Note_on_c, 0, 81, 103
2, 27740, Note_off_c, 0, 81, 100
2, 27744, Note_on_c, 0, 85, 104
2, 27836, Note_off_c, 0, 85, 100
2, 27836, Control_c, 0, 64, 0
2, 27840, Control_c, 0, 64, 127
2, 28032, Note_on_c, 0, 59, 105
2, 28124, Note_off_c, 0, 59, 100
2, 28128, Note_on_c, 0, 62, 106
2, 28220, Note_off_c, 0, 62, 100
2, 28224, Note_on_c, 0, 68, 106
2, 28316, Note_off_c, 0, 68, 100
2, 28320, Note_on_c, 0, 71, 107
2, 28412, Note_off_c, 0, 71, 100
2, 28412, Control_c, 0, 64, 0
2, 28416, Control_c, 0, 64, 127
2, 28608, Note_on_c, 0, 69, 108
2, 28700, Note_off_c, 0, 69, 100
2, 28704, Note_on_c, 0, 75, 109
2, 28796, Note_off_c, 0, 75, 100
2, 28800, Note_on_c, 0, 78, 109
2, 28892, Note_off_c, 0, 78, 100
2, 28896, Note_on_c, 0, 81, 110
2, 28988, Note_off_c, 0, 81, 100
2, 28988, Control_c, 0, 64, 0
2, 28992, Control_c, 0, 64, 127
2, 29184, Note_on_c, 0, 68, 110
2, 29276, Note_off_c, 0, 68, 100
2, 29280, Note_on_c, 0, 71, 110
2, 29372, Note_off_c, 0, 71, 100
2, 29376, Note_on_c, 0, 76, 110
2, 29468, Note_off_c, 0, 76, 100
2, 29472, Note_on_c, 0, 80, 110
2, 29564, Note_off_c, 0, 80, 100
2, 29564, Control_c, 0, 64, 0
2, 29568, Control_c, 0, 64, 127
2, 29760, Note_on_c, 0, 64, 110
2, 29852, Note_off_c, 0, 64, 100
2, 29856, Note_on_c, 0, 68, 110
2, 29948, Note_off_c, 0, 68, 100
2, 29952, Note_on_c, 0, 71, 110
2, 30044, Note_off_c, 0, 71, 100
2, 30048, Note_on_c, 0, 76, 110
2, 30140, Note_off_c, 0, 76, 100
2, 30140, Control_c, 0, 64, 0
2, 30144, Control_c, 0, 64, 127
2, 30336, Note_on_c, 0, 59, 110
2, 30428, Note_off_c, 0, 59, 100
2, 30432, Note_on_c, 0, 64, 110
2, 30524, Note_off_c, 0, 64, 100
2, 30528, Note_on_c, 0, 68, 110
2, 30620, Note_off_c, 0, 68, 100
2, 30624, Note_on_c, 0, 71, 110
2, 30716, Note_off_c, 0, 71, 100
2, 30716, Control_c, 0, 64, 0
2, 30720, Control_c, 0, 64, 127
2, 30912, Note_on_c, 0, 56, 110
2, 31004, Note_off_c, 0, 56, 100
2, 31008, Note_on_c, 0, 59, 110
2, 31100, Note_off_c, 0, 59, 100
2, 31104, Note_on_c, 0, 64, 110
2, 31196, Note_off_c, 0, 64, 100
2, 31200, Note_on_c, 0, 68, 110
2, 31292, Note_off_c, 0, 68, 100
2, 31292, Control_c, 0, 64, 0
2, 32256, Note_on_c, 0, 85, 80
2, 32444, Note_off_c, 0, 85, 100
2, 32448, Note_on_c, 0, 81, 80
2, 32828, Note_off_c, 0, 81, 100
2, 32832, Note_on_c, 0, 88, 80
2, 33020, Note_off_c, 0, 88, 100
2, 33024, Note_on_c, 0, 85, 80
2, 33404, Note_off_c, 0, 85, 100
2, 33408, Note_on_c, 0, 81, 80
2, 33408, Note_on_c, 0, 73, 80
2, 33596, Note_off_c, 0, 81, 100
2, 33596, Note_off_c, 0, 73, 100
2, 33600, Note_on_c, 0, 76, 80
2, 33600, Note_on_c, 0, 69, 80
2, 33980, Note_off_c, 0, 76, 100
2, 33980, Note_off_c, 0, 69, 100
2, 33984, Note_on_c, 0, 76, 80
2, 33984, Note_on_c, 0, 85, 80
2, 34172, Note_off_c, 0, 76, 100
2, 34172, Note_off_c, 0, 85, 100
2, 34176, Note_on_c, 0, 81, 80
2, 34176, Note_on_c, 0, 73, 80
2, 34556, Note_off_c, 0, 81, 100
2, 34556, Note_off_c, 0, 73, 100
2, 34560, Note_on_c, 0, 69, 80
2, 34560, Note_on_c, 0, 76, 80
2, 34748, Note_off_c, 0, 69, 100
2, 34752, Note_on_c, 0, 73, 80
2, 35132, Note_off_c, 0, 73, 100
2, 35136, Note_on_c, 0, 69, 80
2, 35324, Note_off_c, 0, 69, 100
2, 35328, Note_on_c, 0, 64, 80
2, 35708, Note_off_c, 0, 76, 100
2, 35708, Note_off_c, 0, 64, 100
2, 35712, Note_on_c, 0, 76, 80
2, 35712, Note_on_c, 0, 73, 80
2, 35712, Note_on_c, 0, 69, 80
2, 35900, Note_off_c, 0, 73, 100
2, 35900, Note_off_c, 0, 69, 100
2, 35904, Note_on_c, 0, 71, 80
2, 35904, Note_on_c, 0, 68, 80
2, 36284, Note_off_c, 0, 71, 100
2, 36284, Note_off_c, 0, 68, 100
2, 36288, Note_on_c, 0, 74, 80
2, 36288, Note_on_c, 0, 71, 80
2, 36476, Note_off_c, 0, 74, 100
2, 36476, Note_off_c, 0, 71, 100
2, 36480, Note_on_c, 0, 73, 80
2, 36480, Note_on_c, 0, 69, 80
2, 36668, Note_off_c, 0, 76, 100
2, 36668, Note_off_c, 0, 73, 100
2, 36668, Note_off_c, 0, 69, 100
2, 36768, Note_on_c, 0, 85, 80
2, 36860, Note_off_c, 0, 85, 100
2, 36864, Note_on_c, 0, 84, 80
2, 36956, Note_off_c, 0, 84, 100
2, 36960, Note_on_c, 0, 85, 80
2, 37052, Note_off_c, 0, 85, 100
2, 37056, Note_on_c, 0, 81, 80
2, 37244, Note_off_c, 0, 81, 100
2, 37344, Note_on_c, 0, 88, 80
2, 37436, Note_off_c, 0, 88, 100
2, 37440, Note_on_c, 0, 87, 80
2, 37532, Note_off_c, 0, 87, 100
2, 37536, Note_on_c, 0, 88, 80
2, 37628, Note_off_c, 0, 88, 100
2, 37632, Note_on_c, 0, 85, 80
2, 37820, Note_off_c, 0, 85, 100
2, 37920, Note_on_c, 0, 73, 80
2, 38012, Note_off_c, 0, 73, 100
2, 38016, Note_on_c, 0, 81, 80
2, 38016, Note_on_c, 0, 72, 80
2, 38108, Note_off_c, 0, 72, 100
2, 38112, Note_on_c, 0, 73, 80
2, 38204, Note_off_c, 0, 81, 100
2, 38204, Note_off_c, 0, 73, 100
2, 38208, Note_on_c, 0, 76, 80
2, 38208, Note_on_c, 0, 69, 80
2, 38396, Note_off_c, 0, 76, 100
2, 38396, Note_off_c, 0, 69, 100
2, 38496, Note_on_c, 0, 76, 80
2, 38588, Note_off_c, 0, 76, 100
2, 38592, Note_on_c, 0, 85, 80
2, 38592, Note_on_c, 0, 75, 80
2, 38684, Note_off_c, 0, 75, 100
2, 38688, Note_on_c, 0, 76, 80
2, 38780, Note_off_c, 0, 85, 100
2, 38780, Note_off_c, 0, 76, 100
2, 38784, Note_on_c, 0, 81, 80
2, 38784, Note_on_c, 0, 73, 80
2, 38972, Note_off_c, 0, 81, 100
2, 38972, Note_off_c, 0, 73, 100
2, 39168, Note_on_c, 0, 76, 80
2, 39168, Note_on_c, 0, 69, 80
2, 39356, Note_off_c, 0, 76, 100
2, 39356, Note_off_c, 0, 69, 100
2, 39360, Note_on_c, 0, 76, 80
2, 39744, Note_on_c, 0, 69, 80
2, 39932, Note_off_c, 0, 69, 100
2, 39936, Note_on_c, 0, 64, 80
2, 40316, Note_off_c, 0, 76, 100
2, 40316, Note_off_c, 0, 64, 100
2, 40320, Note_on_c, 0, 69, 80
2, 40320, Note_on_c, 0, 73, 80
2, 40320, Note_on_c, 0, 76, 80
2, 40508, Note_off_c, 0, 69, 100
2, 40508, Note_off_c, 0, 73, 100
2, 40512, Note_on_c, 0, 71, 80
2, 40512, Note_on_c, 0, 68, 80
2, 40892, Note_off_c, 0, 71, 100
2, 40892, Note_off_c, 0, 68, 100
2, 40896, Note_on_c, 0, 74, 80
2, 40896, Note_on_c, 0, 71, 80
2, 41084, Note_off_c, 0, 74, 100
2, 41084, Note_off_c, 0, 71, 100
2, 41088, Note_on_c, 0, 69, 80
2, 41088, Note_on_c, 0, 73, 80
2, 41468, Note_off_c, 0, 76, 100
2, 41468, Note_off_c, 0, 69, 100
2, 41468, Note_off_c, 0, 73, 100
2, 41472, Note_on_c, 0, 81, 90
2, 41472, Note_on_c, 0, 76, 90
2, 41472, Note_on_c, 0, 73, 90
2, 41660, Note_off_c, 0, 81, 100
2, 41660, Note_off_c, 0, 76, 100
2, 41660, Note_off_c, 0, 73, 100
2, 41664, Note_on_c, 0, 80, 80
2, 41664, Note_on_c, 0, 76, 80
2, 41664, Note_on_c, 0, 71, 80
2, 42044, Note_off_c, 0, 80, 100
2, 42044, Note_off_c, 0, 76, 100
2, 42044, Note_off_c, 0, 71, 100
2, 42048, Note_on_c, 0, 83, 80
2, 42048, Note_on_c, 0, 76, 80
2, 42048, Note_on_c, 0, 74, 80
2, 42236, Note_off_c, 0, 83, 100
2, 42236, Note_off_c, 0, 76, 100
2, 42236, Note_off_c, 0, 74, 100
2, 42240, Note_on_c, 0, 81, 80
2, 42240, Note_on_c, 0, 76, 80
2, 42240, Note_on_c, 0, 73, 80
2, 42620, Note_off_c, 0, 81, 100
2, 42620, Note_off_c, 0, 76, 100
2, 42620, Note_off_c, 0, 73, 100
2, 42624, Note_on_c, 0, 69, 80
2, 42624, Note_on_c, 0, 73, 80
2, 42624, Note_on_c, 0, 76, 80
2, 42812, Note_off_c, 0, 69, 100
2, 42812, Note_off_c, 0, 73, 100
2, 42816, Note_on_c, 0, 71, 80
2, 42816, Note_on_c, 0, 68, 80
2, 43196, Note_off_c, 0, 71, 100
2, 43196, Note_off_c, 0, 68, 100
2, 43200, Note_on_c, 0, 74, 80
2, 43200, Note_on_c, 0, 71, 80
2, 43388, Note_off_c, 0, 74, 100
2, 43388, Note_off_c, 0, 71, 100
2, 43392, Note_on_c, 0, 69, 80
2, 43392, Note_on_c, 0, 73, 80
2, 43772, Note_off_c, 0, 76, 100
2, 43772, Note_off_c, 0, 69, 100
2, 43772, Note_off_c, 0, 73, 100
2, 43776, Note_on_c, 0, 81, 90
2, 43776, Note_on_c, 0, 76, 90
2, 43776, Note_on_c, 0, 73, 90
2, 43964, Note_off_c, 0, 81, 100
2, 43964, Note_off_c, 0, 76, 100
2, 43964, Note_off_c, 0, 73, 100
2, 43968, Note_on_c, 0, 80, 80
2, 43968, Note_on_c, 0, 76, 80
2, 43968, Note_on_c, 0, 71, 80
2, 44348, Note_off_c, 0, 80, 100
2, 44348, Note_off_c, 0, 76, 100
2, 44348, Note_off_c, 0, 71, 100
2, 44352, Note_on_c, 0, 83, 85
2, 44352, Note_on_c, 0, 76, 85
2, 44352, Note_on_c, 0, 74, 85
2, 44540, Note_off_c, 0, 83, 100
2, 44540, Note_off_c, 0, 76, 100
2, 44540, Note_off_c, 0, 74, 100
2, 44544, Note_on_c, 0, 81, 88
2, 44544, Note_on_c, 0, 76, 88
2, 44544, Note_on_c, 0, 73, 88
2, 44924, Note_off_c, 0, 81, 100
2, 44924, Note_off_c, 0, 76, 100
2, 44924, Note_off_c, 0, 73, 100
2, 44928, Note_on_c, 0, 81, 94
2, 44928, Note_on_c, 0, 76, 94
2, 44928, Note_on_c, 0, 73, 94
2, 45116, Note_off_c, 0, 81, 100
2, 45116, Note_off_c, 0, 76, 100
2, 45116, Note_off_c, 0, 73, 100
2, 45120, Note_on_c, 0, 80, 96
2, 45120, Note_on_c, 0, 76, 96
2, 45120, Note_on_c, 0, 71, 96
2, 45500, Note_off_c, 0, 80, 100
2, 45500, Note_off_c, 0, 76, 100
2, 45500, Note_off_c, 0, 71, 100
2, 45504, Note_on_c, 0, 83, 102
2, 45504, Note_on_c, 0, 76, 102
2, 45504, Note_on_c, 0, 74, 102
2, 45692, Note_off_c, 0, 83, 100
2, 45692, Note_off_c, 0, 76, 100
2, 45692, Note_off_c, 0, 74, 100
2, 45696, Note_on_c, 0, 81, 105
2, 45696, Note_on_c, 0, 76, 105
2, 45696, Note_on_c, 0, 73, 105
2, 46076, Note_off_c, 0, 81, 100
2, 46076, Note_off_c, 0, 76, 100
2, 46076, Note_off_c, 0, 73, 100
2, 46080, Note_on_c, 0, 82, 110
2, 46080, Note_on_c, 0, 76, 110
2, 46080, Note_on_c, 0, 73, 110
2, 46268, Note_off_c, 0, 82, 100
2, 46268, Note_off_c, 0, 76, 100
2, 46268, Note_off_c, 0, 73, 100
2, 46272, Note_on_c, 0, 78, 110
2, 46272, Note_on_c, 0, 74, 110
2, 46272, Note_on_c, 0, 83, 110
2, 47420, Note_off_c, 0, 78, 100
2, 47420, Note_off_c, 0, 74, 100
2, 47420, Note_off_c, 0, 83, 100
2, 47424, Note_on_c, 0, 71, 110
2, 47424, Note_on_c, 0, 80, 110
2, 47472, Note_on_c, 0, 81, 110
2, 47516, Note_off_c, 0, 80, 100
2, 47520, Note_on_c, 0, 80, 110
2, 47564, Note_off_c, 0, 81, 100
2, 47568, Note_on_c, 0, 81, 110
2, 47612, Note_off_c, 0, 80, 100
2, 47616, Note_on_c, 0, 80, 110
2, 47660, Note_off_c, 0, 81, 100
2, 47664, Note_on_c, 0, 81, 110
2, 47708, Note_off_c, 0, 80, 100
2, 47712, Note_on_c, 0, 80, 110
2, 47756, Note_off_c, 0, 81, 100
2, 47760, Note_on_c, 0, 81, 110
2, 47804, Note_off_c, 0, 80, 100
2, 47808, Note_on_c, 0, 80, 110
2, 47852, Note_off_c, 0, 81, 100
2, 47856, Note_on_c, 0, 81, 110
2, 47900, Note_off_c, 0, 80, 100
2, 47904, Note_on_c, 0, 80, 110
2, 47948, Note_off_c, 0, 81, 100
2, 47952, Note_on_c, 0, 81, 110
2, 47996, Note_off_c, 0, 80, 100
2, 48000, Note_on_c, 0, 80, 110
2, 48044, Note_off_c, 0, 81, 100
2, 48048, Note_on_c, 0, 81, 110
2, 48092, Note_off_c, 0, 80, 100
2, 48096, Note_on_c, 0, 80, 110
2, 48140, Note_off_c, 0, 81, 100
2, 48144, Note_on_c, 0, 81, 110
2, 48188, Note_off_c, 0, 80, 100
2, 48192, Note_on_c, 0, 80, 110
2, 48236, Note_off_c, 0, 81, 100
2, 48240, Note_on_c, 0, 81, 110
2, 48284, Note_off_c, 0, 80, 100
2, 48288, Note_on_c, 0, 80, 110
2, 48332, Note_off_c, 0, 81, 100
2, 48336, Note_on_c, 0, 81, 110
2, 48380, Note_off_c, 0, 80, 100
2, 48384, Note_on_c, 0, 80, 110
2, 48428, Note_off_c, 0, 81, 100
2, 48432, Note_on_c, 0, 81, 110
2, 48476, Note_off_c, 0, 80, 100
2, 48480, Note_on_c, 0, 78, 110
2, 48524, Note_off_c, 0, 81, 100
2, 48528, Note_on_c, 0, 80, 110
2, 48572, Note_off_c, 0, 71, 100
2, 48572, Note_off_c, 0, 78, 100
2, 48576, Note_on_c, 0, 69, 110
2, 48620, Note_off_c, 0, 80, 100
2, 48668, Note_off_c, 0, 69, 100
2, 48672, Note_on_c, 0, 73, 110
2, 48764, Note_off_c, 0, 73, 100
2, 48768, Note_on_c, 0, 76, 110
2, 48860, Note_off_c, 0, 76, 100
2, 48864, Note_on_c, 0, 81, 110
2, 48956, Note_off_c, 0, 81, 100
2, 48960, Note_on_c, 0, 69, 110
2, 49056, Note_on_c, 0, 81, 110
2, 49116, Note_off_c, 0, 69, 100
2, 49152, Note_on_c, 0, 68, 110
2, 49218, Note_off_c, 0, 81, 100
2, 49248, Note_on_c, 0, 80, 110
2, 49312, Note_off_c, 0, 68, 100
2, 49344, Note_on_c, 0, 66, 110
2, 49416, Note_off_c, 0, 80, 100
2, 49440, Note_on_c, 0, 78, 110
2, 49520, Note_off_c, 0, 66, 100
2, 49536, Note_on_c, 0, 64, 110
2, 49612, Note_off_c, 0, 78, 100
2, 49632, Note_on_c, 0, 76, 110
2, 49712, Note_off_c, 0, 64, 100
2, 49728, Note_on_c, 0, 66, 110
2, 49800, Note_off_c, 0, 76, 100
2, 49824, Note_on_c, 0, 78, 110
2, 49900, Note_off_c, 0, 66, 100
2, 49920, Note_on_c, 0, 64, 110
2, 50012, Note_off_c, 0, 78, 100
2, 50016, Note_on_c, 0, 76, 110
2, 50086, Note_off_c, 0, 64, 100
2, 50112, Note_on_c, 0, 62, 110
2, 50182, Note_off_c, 0, 76, 100
2, 50208, Note_on_c, 0, 74, 110
2, 50290, Note_off_c, 0, 62, 100
2, 50304, Note_on_c, 0, 61, 110
2, 50374, Note_off_c, 0, 74, 100
2, 50400, Note_on_c, 0, 73, 110
2, 50468, Note_off_c, 0, 61, 100
2, 50496, Note_on_c, 0, 62, 110
2, 50576, Note_off_c, 0, 73, 100
2, 50592, Note_on_c, 0, 74, 110
2, 50664, Note_off_c, 0, 62, 100
2, 50688, Note_on_c, 0, 64, 110
2, 50758, Note_off_c, 0, 74, 100
2, 50784, Note_on_c, 0, 76, 110
2, 50854, Note_off_c, 0, 64, 100
2, 50880, Note_on_c, 0, 69, 110
2, 50954, Note_off_c, 0, 76, 100
2, 50976, Note_on_c, 0, 73, 110
2, 51044, Note_off_c, 0, 69, 100
2, 51072, Note_on_c, 0, 76, 110
2, 51146, Note_off_c, 0, 73, 100
2, 51168, Note_on_c, 0, 81, 110
2, 51238, Note_off_c, 0, 76, 100
2, 51264, Note_on_c, 0, 69, 110
2, 51340, Note_off_c, 0, 81, 100
2, 51360, Note_on_c, 0, 81, 110
2, 51430, Note_off_c, 0, 69, 100
2, 51456, Note_on_c, 0, 68, 110
2, 51530, Note_off_c, 0, 81, 100
2, 51552, Note_on_c, 0, 80, 110
2, 51634, Note_off_c, 0, 68, 100
2, 51648, Note_on_c, 0, 66, 110
2, 51722, Note_off_c, 0, 80, 100
2, 51744, Note_on_c, 0, 78, 110
2, 51816, Note_off_c, 0, 66, 100
2, 51840, Note_on_c, 0, 64, 110
2, 51910, Note_off_c, 0, 78, 100
2, 51936, Note_on_c, 0, 76, 110
2, 52018, Note_off_c, 0, 64, 100
2, 52032, Note_on_c, 0, 66, 110
2, 52104, Note_off_c, 0, 76, 100
2, 52128, Note_on_c, 0, 78, 110
2, 52202, Note_off_c, 0, 66, 100
2, 52224, Note_on_c, 0, 64, 110
2, 52296, Note_off_c, 0, 78, 100
2, 52320, Note_on_c, 0, 76, 110
2, 52398, Note_off_c, 0, 64, 100
2, 52416, Note_on_c, 0, 62, 110
2, 52482, Note_off_c, 0, 76, 100
2, 52512, Note_on_c, 0, 74, 110
2, 52588, Note_off_c, 0, 62, 100
2, 52608, Note_on_c, 0, 61, 110
2, 52672, Note_off_c, 0, 74, 100
2, 52704, Note_on_c, 0, 73, 110
2, 52776, Note_off_c, 0, 61, 100
2, 52800, Note_on_c, 0, 62, 110
2, 52876, Note_off_c, 0, 73, 100
2, 52896, Note_on_c, 0, 74, 110
2, 52964, Note_off_c, 0, 62, 100
2, 52992, Note_on_c, 0, 64, 110
2, 53066, Note_off_c, 0, 74, 100
2, 53088, Note_on_c, 0, 76, 110
2, 53164, Note_off_c, 0, 64, 100
2, 53184, Note_on_c, 0, 69, 110
2, 53256, Note_off_c, 0, 76, 100
2, 53280, Note_on_c, 0, 73, 110
2, 53356, Note_off_c, 0, 69, 100
2, 53376, Note_on_c, 0, 76, 110
2, 53448, Note_off_c, 0, 73, 100
2, 53472, Note_on_c, 0, 81, 110
2, 53536, Note_off_c, 0, 76, 100
2, 53568, Note_on_c, 0, 69, 110
2, 53640, Note_off_c, 0, 81, 100
2, 53664, Note_on_c, 0, 81, 110
2, 53746, Note_off_c, 0, 69, 100
2, 53760, Note_on_c, 0, 67, 110
2, 53828, Note_off_c, 0, 81, 100
2, 53856, Note_on_c, 0, 79, 110
2, 53928, Note_off_c, 0, 67, 100
2, 53952, Note_on_c, 0, 66, 110
2, 54036, Note_off_c, 0, 79, 100
2, 54048, Note_on_c, 0, 78, 110
2, 54118, Note_off_c, 0, 66, 100
2, 54144, Note_on_c, 0, 64, 110
2, 54212, Note_off_c, 0, 78, 100
2, 54240, Note_on_c, 0, 76, 110
2, 54314, Note_off_c, 0, 64, 100
2, 54336, Note_on_c, 0, 62, 110
2, 54410, Note_off_c, 0, 76, 100
2, 54432, Note_on_c, 0, 74, 110
2, 54510, Note_off_c, 0, 62, 100
2, 54528, Note_on_c, 0, 61, 110
2, 54596, Note_off_c, 0, 74, 100
2, 54624, Note_on_c, 0, 73, 110
2, 54700, Note_off_c, 0, 61, 100
2, 54720, Note_on_c, 0, 59, 110
2, 54788, Note_off_c, 0, 73, 100
2, 54816, Note_on_c, 0, 71, 110
2, 54888, Note_off_c, 0, 59, 100
2, 54912, Note_on_c, 0, 57, 110
2, 54988, Note_off_c, 0, 71, 100
2, 55008, Note_on_c, 0, 69, 110
2, 55074, Note_off_c, 0, 57, 100
2, 55104, Note_on_c, 0, 55, 110
2, 55176, Note_off_c, 0, 69, 100
2, 55200, Note_on_c, 0, 67, 110
2, 55272, Note_off_c, 0, 55, 100
2, 55296, Note_on_c, 0, 54, 110
2, 55370, Note_off_c, 0, 67, 100
2, 55392, Note_on_c, 0, 66, 110
2, 55462, Note_off_c, 0, 54, 100
2, 55484, Note_off_c, 0, 66, 100
2, 55488, Note_on_c, 0, 67, 110
2, 55488, Note_on_c, 0, 55, 110
2, 55868, Note_off_c, 0, 67, 100
2, 55868, Note_off_c, 0, 55, 100
2, 56640, Note_on_c, 0, 68, 110
2, 56640, Note_on_c, 0, 56, 110
2, 57020, Note_off_c, 0, 68, 100
2, 57020, Note_off_c, 0, 56, 100
2, 61056, Note_on_c, 0, 81, 80
2, 61248, Note_on_c, 0, 69, 80
2, 61436, Note_off_c, 0, 81, 100
2, 61440, Note_on_c, 0, 79, 80
2, 61628, Note_off_c, 0, 79, 100
2, 61632, Note_on_c, 0, 78, 80
2, 61820, Note_off_c, 0, 69, 100
2, 61820, Note_off_c, 0, 78, 100
2, 61824, Note_on_c, 0, 71, 80
2, 61824, Note_on_c, 0, 76, 80
2, 62012, Note_off_c, 0, 76, 100
2, 62016, Note_on_c, 0, 78, 80
2, 62204, Note_off_c, 0, 78, 100
2, 62208, Note_on_c, 0, 74, 80
2, 62396, Note_off_c, 0, 71, 100
2, 62396, Note_off_c, 0, 74, 100
2, 62400, Note_on_c, 0, 71, 80
2, 62400, Note_on_c, 0, 67, 80
2, 62588, Note_off_c, 0, 71, 100
2, 62592, Note_on_c, 0, 76, 80
2, 62780, Note_off_c, 0, 67, 100
2, 62780, Note_off_c, 0, 76, 100
2, 62784, Note_on_c, 0, 73, 80
2, 62784, Note_on_c, 0, 67, 80
2, 62972, Note_off_c, 0, 73, 100
2, 62972, Note_off_c, 0, 67, 100
2, 62976, Note_on_c, 0, 74, 80
2, 62976, Note_on_c, 0, 66, 80
2, 63164, Note_off_c, 0, 74, 100
2, 63164, Note_off_c, 0, 66, 100
2, 63840, Note_on_c, 0, 74, 80
2, 63932, Note_off_c, 0, 74, 100
2, 63936, Note_on_c, 0, 78, 80
2, 64028, Note_off_c, 0, 78, 100
2, 64032, Note_on_c, 0, 66, 80
2, 64124, Note_off_c, 0, 66, 100
2, 64128, Note_on_c, 0, 69, 80
2, 64508, Note_off_c, 0, 69, 100
2, 64512, Note_on_c, 0, 67, 80
2, 64700, Note_off_c, 0, 67, 100
2, 64992, Note_on_c, 0, 87, 80
2, 65084, Note_off_c, 0, 87, 100
2, 65088, Note_on_c, 0, 88, 80
2, 65180, Note_off_c, 0, 88, 100
2, 65184, Note_on_c, 0, 76, 80
2, 65276, Note_off_c, 0, 76, 100
2, 65280, Note_on_c, 0, 79, 80
2, 65660, Note_off_c, 0, 79, 100
2, 65664, Note_on_c, 0, 78, 80
2, 65852, Note_off_c, 0, 78, 100
2, 65856, Note_on_c, 0, 81, 80
2, 65856, Note_on_c, 0, 69, 80
2, 66044, Note_off_c, 0, 81, 100
2, 66048, Note_on_c, 0, 79, 80
2, 66236, Note_off_c, 0, 79, 100
2, 66240, Note_on_c, 0, 78, 80
2, 66428, Note_off_c, 0, 69, 100
2, 66428, Note_off_c, 0, 78, 100
2, 66432, Note_on_c, 0, 71, 80
2, 66432, Note_on_c, 0, 76, 80
2, 66620, Note_off_c, 0, 76, 100
2, 66624, Note_on_c, 0, 78, 80
2, 66812, Note_off_c, 0, 78, 100
2, 66816, Note_on_c, 0, 74, 80
2, 67004, Note_off_c, 0, 71, 100
2, 67004, Note_off_c, 0, 74, 100
2, 67008, Note_on_c, 0, 71, 80
2, 67008, Note_on_c, 0, 67, 80
2, 67196, Note_off_c, 0, 71, 100
2, 67200, Note_on_c, 0, 76, 80
2, 67388, Note_off_c, 0, 67, 100
2, 67388, Note_off_c, 0, 76, 100
2, 67392, Note_on_c, 0, 73, 80
2, 67392, Note_on_c, 0, 67, 80
2, 67580, Note_off_c, 0, 73, 100
2, 67580, Note_off_c, 0, 67, 100
2, 67584, Note_on_c, 0, 74, 80
2, 67584, Note_on_c, 0, 66, 80
2, 67772, Note_off_c, 0, 74, 100
2, 67772, Note_off_c, 0, 66, 100
2, 67968, Note_on_c, 0, 74, 80
2, 67968, Note_on_c, 0, 66, 80
2, 68156, Note_off_c, 0, 66, 100
2, 68160, Note_on_c, 0, 67, 80
2, 68540, Note_off_c, 0, 74, 100
2, 68544, Note_on_c, 0, 73, 80
2, 68732, Note_off_c, 0, 73, 100
2, 68736, Note_on_c, 0, 81, 90
2, 68924, Note_off_c, 0, 67, 100
2, 69116, Note_off_c, 0, 81, 100
2, 69120, Note_on_c, 0, 73, 80
2, 69120, Note_on_c, 0, 67, 80
2, 69308, Note_off_c, 0, 73, 100
2, 69308, Note_off_c, 0, 67, 100
2, 69312, Note_on_c, 0, 76, 80
2, 69312, Note_on_c, 0, 66, 80
2, 69692, Note_off_c, 0, 76, 100
2, 69696, Note_on_c, 0, 74, 80
2, 69884, Note_off_c, 0, 74, 100
2, 69888, Note_on_c, 0, 81, 90
2, 70076, Note_off_c, 0, 66, 100
2, 70268, Note_off_c, 0, 81, 100
2, 70272, Note_on_c, 0, 74, 80
2, 70272, Note_on_c, 0, 66, 80
2, 70460, Note_off_c, 0, 66, 100
2, 70464, Note_on_c, 0, 67, 80
2, 70844, Note_off_c, 0, 74, 100
2, 70848, Note_on_c, 0, 73, 80
2, 71036, Note_off_c, 0, 73, 100
2, 71040, Note_on_c, 0, 81, 90
2, 71228, Note_off_c, 0, 67, 100
2, 71420, Note_off_c, 0, 81, 100
2, 71424, Note_on_c, 0, 73, 80
2, 71424, Note_on_c, 0, 67, 80
2, 71612, Note_off_c, 0, 73, 100
2, 71612, Note_off_c, 0, 67, 100
2, 71616, Note_on_c, 0, 74, 80
2, 71616, Note_on_c, 0, 66, 80
2, 71996, Note_off_c, 0, 74, 100
2, 71996, Note_off_c, 0, 66, 100
2, 72576, Note_on_c, 0, 66, 80
2, 72576, Note_on_c, 0, 74, 80
2, 72764, Note_off_c, 0, 66, 100
2, 72768, Note_on_c, 0, 67, 80
2, 73052, Note_off_c, 0, 74, 100
2, 73056, Note_on_c, 0, 73, 80
2, 73148, Note_off_c, 0, 73, 100
2, 73152, Note_on_c, 0, 72, 80
2, 73244, Note_off_c, 0, 72, 100
2, 73248, Note_on_c, 0, 73, 80
2, 73340, Note_off_c, 0, 73, 100
2, 73344, Note_on_c, 0, 81, 90
2, 73532, Note_off_c, 0, 67, 100
2, 73724, Note_off_c, 0, 81, 100
2, 73728, Note_on_c, 0, 73, 80
2, 73728, Note_on_c, 0, 67, 80
2, 73916, Note_off_c, 0, 73, 100
2, 73916, Note_off_c, 0, 67, 100
2, 73920, Note_on_c, 0, 76, 80
2, 73920, Note_on_c, 0, 66, 80
2, 74204, Note_off_c, 0, 76, 100
2, 74208, Note_on_c, 0, 74, 80
2, 74300, Note_off_c, 0, 74, 100
2, 74304, Note_on_c, 0, 73, 80
2, 74396, Note_off_c, 0, 73, 100
2, 74400, Note_on_c, 0, 74, 80
2, 74492, Note_off_c, 0, 74, 100
2, 74496, Note_on_c, 0, 81, 90
2, 74684, Note_off_c, 0, 66, 100
2, 74876, Note_off_c, 0, 81, 100
2, 74880, Note_on_c, 0, 66, 80
2, 74880, Note_on_c, 0, 74, 80
2, 75068, Note_off_c, 0, 66, 100
2, 75072, Note_on_c, 0, 67, 80
2, 75356, Note_off_c, 0, 74, 100
2, 75360, Note_on_c, 0, 73, 80
2, 75452, Note_off_c, 0, 73, 100
2, 75456, Note_on_c, 0, 72, 80
2, 75548, Note_off_c, 0, 72, 100
2, 75552, Note_on_c, 0, 73, 80
2, 75644, Note_off_c, 0, 73, 100
2, 75648, Note_on_c, 0, 81, 90
2, 75836, Note_off_c, 0, 67, 100
2, 76028, Note_off_c, 0, 81, 100
2, 76032, Note_on_c, 0, 73, 80
2, 76032, Note_on_c, 0, 67, 80
2, 76220, Note_off_c, 0, 73, 100
2, 76220, Note_off_c, 0, 67, 100
2, 76224, Note_on_c, 0, 74, 80
2, 76224, Note_on_c, 0, 66, 80
2, 76412, Note_off_c, 0, 74, 100
2, 76412, Note_off_c, 0, 66, 100
2, 76608, Note_on_c, 0, 74, 80
2, 76796, Note_off_c, 0, 74, 100
2, 76800, Note_on_c, 0, 69, 80
2, 77180, Note_off_c, 0, 69, 100
2, 77184, Note_on_c, 0, 66, 80
2, 77372, Note_off_c, 0, 66, 100
2, 77376, Note_on_c, 0, 62, 80
2, 77756, Note_off_c, 0, 62, 100
2, 77760, Note_on_c, 0, 74, 80
2, 77948, Note_off_c, 0, 74, 100
2, 77952, Note_on_c, 0, 62, 80
2, 78332, Note_off_c, 0, 62, 100
2, 78336, Note_on_c, 0, 73, 80
2, 78524, Note_off_c, 0, 73, 100
2, 78528, Note_on_c, 0, 62, 80
2, 78908, Note_off_c, 0, 62, 100
2, 78912, Note_on_c, 0, 72, 80
2, 79100, Note_off_c, 0, 72, 100
2, 79104, Note_on_c, 0, 62, 80
2, 79484, Note_off_c, 0, 62, 100
2, 79488, Note_on_c, 0, 71, 80
2, 79676, Note_off_c, 0, 71, 100
2, 79680, Note_on_c, 0, 64, 80
2, 80060, Note_off_c, 0, 64, 100
2, 80064, Note_on_c, 0, 69, 80
2, 80252, Note_off_c, 0, 69, 100
2, 80256, Note_on_c, 0, 64, 80
2, 80636, Note_off_c, 0, 64, 100
2, 80640, Note_on_c, 0, 67, 80
2, 80828, Note_off_c, 0, 67, 100
2, 80832, Note_on_c, 0, 62, 80
2, 81212, Note_off_c, 0, 62, 100
2, 81216, Note_on_c, 0, 66, 80
2, 81404, Note_off_c, 0, 66, 100
2, 81408, Note_on_c, 0, 62, 80
2, 81596, Note_off_c, 0, 62, 100
2, 81600, Note_on_c, 0, 74, 80
2, 81788, Note_off_c, 0, 74, 100
2, 81792, Note_on_c, 0, 74, 80
2, 81980, Note_off_c, 0, 74, 100
2, 81984, Note_on_c, 0, 74, 80
2, 82364, Note_off_c, 0, 74, 100
2, 82368, Note_on_c, 0, 86, 80
2, 82556, Note_off_c, 0, 86, 100
2, 82560, Note_on_c, 0, 74, 80
2, 82940, Note_off_c, 0, 74, 100
2, 82944, Note_on_c, 0, 85, 80
2, 83132, Note_off_c, 0, 85, 100
2, 83136, Note_on_c, 0, 74, 80
2, 83516, Note_off_c, 0, 74, 100
2, 83520, Note_on_c, 0, 84, 80
2, 83708, Note_off_c, 0, 84, 100
2, 83712, Note_on_c, 0, 74, 80
2, 84092, Note_off_c, 0, 74, 100
2, 84096, Note_on_c, 0, 83, 80
2, 84284, Note_off_c, 0, 83, 100
2, 84288, Note_on_c, 0, 76, 80
2, 84668, Note_off_c, 0, 76, 100
2, 84672, Note_on_c, 0, 81, 80
2, 84860, Note_off_c, 0, 81, 100
2, 84864, Note_on_c, 0, 72, 80
2, 85244, Note_off_c, 0, 72, 100
2, 85248, Note_on_c, 0, 78, 80
2, 85436, Note_off_c, 0, 78, 100
2, 85440, Note_on_c, 0, 71, 80
2, 85820, Note_off_c, 0, 71, 100
2, 85824, Note_on_c, 0, 79, 88
2, 86012, Note_off_c, 0, 79, 100
2, 86016, Note_on_c, 0, 77, 92
2, 86396, Note_off_c, 0, 77, 100
2, 86400, Note_on_c, 0, 86, 100
2, 86588, Note_off_c, 0, 86, 100
2, 86592, Note_on_c, 0, 76, 100
2, 86972, Note_off_c, 0, 76, 100
2, 86976, Note_on_c, 0, 84, 93
2, 87164, Note_off_c, 0, 84, 100
2, 87168, Note_on_c, 0, 72, 89
2, 87548, Note_off_c, 0, 72, 100
2, 87552, Note_on_c, 0, 81, 81
2, 87740, Note_off_c, 0, 81, 100
2, 87744, Note_on_c, 0, 71, 80
2, 88124, Note_off_c, 0, 71, 100
2, 88128, Note_on_c, 0, 79, 88
2, 88316, Note_off_c, 0, 79, 100
2, 88320, Note_on_c, 0, 77, 92
2, 88700, Note_off_c, 0, 77, 100
2, 88704, Note_on_c, 0, 86, 100
2, 88892, Note_off_c, 0, 86, 100
2, 88896, Note_on_c, 0, 76, 100
2, 89276, Note_off_c, 0, 76, 100
2, 89280, Note_on_c, 0, 84, 93
2, 89468, Note_off_c, 0, 84, 100
2, 89472, Note_on_c, 0, 72, 89
2, 89852, Note_off_c, 0, 72, 100
2, 89856, Note_on_c, 0, 81, 81
2, 90044, Note_off_c, 0, 81, 100
2, 90048, Note_on_c, 0, 79, 70
2, 90048, Note_on_c, 0, 71, 70
2, 90236, Note_off_c, 0, 71, 100
2, 90240, Note_on_c, 0, 72, 70
2, 90428, Note_off_c, 0, 72, 100
2, 90432, Note_on_c, 0, 74, 70
2, 90620, Note_off_c, 0, 74, 100
2, 90624, Note_on_c, 0, 76, 70
2, 90812, Note_off_c, 0, 79, 100
2, 90816, Note_on_c, 0, 78, 70
2, 91004, Note_off_c, 0, 78, 100
2, 91008, Note_on_c, 0, 80, 70
2, 91196, Note_off_c, 0, 80, 100
2, 91200, Note_on_c, 0, 81, 70
2, 91388, Note_off_c, 0, 76, 100
2, 91392, Note_on_c, 0, 74, 70
2, 91580, Note_off_c, 0, 74, 100
2, 91584, Note_on_c, 0, 76, 70
2, 91772, Note_off_c, 0, 76, 100
2, 91776, Note_on_c, 0, 78, 70
2, 91964, Note_off_c, 0, 81, 100
2, 91968, Note_on_c, 0, 80, 70
2, 92156, Note_off_c, 0, 80, 100
2, 92160, Note_on_c, 0, 82, 70
2, 92348, Note_off_c, 0, 82, 100
2, 92352, Note_on_c, 0, 83, 70
2, 92540, Note_off_c, 0, 78, 100
2, 92544, Note_on_c, 0, 76, 70
2, 92732, Note_off_c, 0, 76, 100
2, 92736, Note_on_c, 0, 78, 70
2, 92924, Note_off_c, 0, 78, 100
2, 92928, Note_on_c, 0, 79, 70
2, 93116, Note_off_c, 0, 83, 100
2, 93120, Note_on_c, 0, 84, 70
2, 93308, Note_off_c, 0, 79, 100
2, 93308, Note_off_c, 0, 84, 100
2, 93312, Note_on_c, 0, 78, 70
2, 93312, Note_on_c, 0, 83, 70
2, 93500, Note_off_c, 0, 78, 100
2, 93504, Note_on_c, 0, 76, 70
2, 93692, Note_off_c, 0, 83, 100
2, 93696, Note_on_c, 0, 81, 70
2, 93884, Note_off_c, 0, 76, 100
2, 93884, Note_off_c, 0, 81, 100
2, 93888, Note_on_c, 0, 80, 70
2, 93888, Note_on_c, 0, 74, 70
2, 94076, Note_off_c, 0, 74, 100
2, 94080, Note_on_c, 0, 76, 70
2, 94268, Note_off_c, 0, 80, 100
2, 94272, Note_on_c, 0, 81, 70
2, 94460, Note_off_c, 0, 76, 100
2, 94460, Note_off_c, 0, 81, 100
2, 94464, Note_on_c, 0, 79, 70
2, 94464, Note_on_c, 0, 76, 70
2, 94652, Note_off_c, 0, 79, 100
2, 94652, Note_off_c, 0, 76, 100
2, 94656, Note_on_c, 0, 74, 70
2, 94656, Note_on_c, 0, 78, 70
2, 94844, Note_off_c, 0, 78, 100
2, 94848, Note_on_c, 0, 79, 70
2, 95036, Note_off_c, 0, 79, 100
2, 95040, Note_on_c, 0, 81, 70
2, 95228, Note_off_c, 0, 81, 100
2, 95232, Note_on_c, 0, 83, 70
2, 95420, Note_off_c, 0, 74, 100
2, 95424, Note_on_c, 0, 73, 70
2, 95612, Note_off_c, 0, 73, 100
2, 95616, Note_on_c, 0, 75, 70
2, 95804, Note_off_c, 0, 75, 100
2, 95808, Note_on_c, 0, 76, 70
2, 95996, Note_off_c, 0, 83, 100
2, 96000, Note_on_c, 0, 81, 70
2, 96188, Note_off_c, 0, 81, 100
2, 96192, Note_on_c, 0, 83, 70
2, 96380, Note_off_c, 0, 83, 100
2, 96384, Note_on_c, 0, 85, 70
2, 96572, Note_off_c, 0, 76, 100
2, 96576, Note_on_c, 0, 75, 70
2, 96764, Note_off_c, 0, 75, 100
2, 96768, Note_on_c, 0, 77, 70
2, 96956, Note_off_c, 0, 77, 100
2, 96960, Note_on_c, 0, 78, 70
2, 97148, Note_off_c, 0, 85, 100
2, 97152, Note_on_c, 0, 83, 70
2, 97340, Note_off_c, 0, 83, 100
2, 97344, Note_on_c, 0, 85, 70
2, 97532, Note_off_c, 0, 85, 100
2, 97536, Note_on_c, 0, 86, 70
2, 97724, Note_off_c, 0, 78, 100
2, 97728, Note_on_c, 0, 77, 70
2, 97916, Note_off_c, 0, 86, 100
2, 97920, Note_on_c, 0, 86, 70
2, 98108, Note_off_c, 0, 77, 100
2, 98112, Note_on_c, 0, 76, 70
2, 98300, Note_off_c, 0, 86, 100
2, 98304, Note_on_c, 0, 84, 70
2, 98492, Note_off_c, 0, 76, 100
2, 98496, Note_on_c, 0, 75, 70
2, 98684, Note_off_c, 0, 75, 100
2, 98688, Note_on_c, 0, 74, 70
2, 98876, Note_off_c, 0, 84, 100
2, 98876, Note_off_c, 0, 74, 100
2, 98880, Note_on_c, 0, 86, 70
2, 98880, Note_on_c, 0, 78, 70
2, 99068, Note_off_c, 0, 86, 100
2, 99068, Note_off_c, 0, 78, 100
2, 99072, Note_on_c, 0, 81, 70
2, 99072, Note_on_c, 0, 78, 70
2, 99260, Note_off_c, 0, 81, 100
2, 99260, Note_off_c, 0, 78, 100
2, 99264, Note_on_c, 0, 83, 70
2, 99264, Note_on_c, 0, 79, 70
2, 99264, Note_on_c, 0, 71, 70
2, 99452, Note_off_c, 0, 83, 100
2, 99452, Note_off_c, 0, 79, 100
2, 99452, Note_off_c, 0, 71, 100
2, 99456, Note_on_c, 0, 65, 70
2, 99644, Note_off_c, 0, 65, 100
2, 99648, Note_on_c, 0, 63, 70
2, 99836, Note_off_c, 0, 63, 100
2, 99840, Note_on_c, 0, 64, 70
2, 100032, Note_on_c, 0, 74, 70
2, 100220, Note_off_c, 0, 74, 100
2, 100224, Note_on_c, 0, 71, 70
2, 100412, Note_off_c, 0, 71, 100
2, 100416, Note_on_c, 0, 72, 70
2, 100604, Note_off_c, 0, 64, 100
2, 100608, Note_on_c, 0, 67, 70
2, 100796, Note_off_c, 0, 67, 100
2, 100800, Note_on_c, 0, 65, 70
2, 100988, Note_off_c, 0, 65, 100
2, 100992, Note_on_c, 0, 66, 70
2, 101180, Note_off_c, 0, 72, 100
2, 101184, Note_on_c, 0, 76, 70
2, 101372, Note_off_c, 0, 76, 100
2, 101376, Note_on_c, 0, 73, 70
2, 101564, Note_off_c, 0, 73, 100
2, 101568, Note_on_c, 0, 74, 70
2, 101756, Note_off_c, 0, 66, 100
2, 101760, Note_on_c, 0, 69, 70
2, 101948, Note_off_c, 0, 69, 100
2, 101952, Note_on_c, 0, 66, 70
2, 102140, Note_off_c, 0, 66, 100
2, 102144, Note_on_c, 0, 67, 70
2, 102332, Note_off_c, 0, 74, 100
2, 102336, Note_on_c, 0, 77, 70
2, 102524, Note_off_c, 0, 77, 100
2, 102528, Note_on_c, 0, 75, 70
2, 102716, Note_off_c, 0, 75, 100
2, 102720, Note_on_c, 0, 76, 70
2, 102908, Note_off_c, 0, 67, 100
2, 102908, Note_off_c, 0, 76, 100
2, 102912, Note_on_c, 0, 72, 70
2, 102912, Note_on_c, 0, 69, 70
2, 103100, Note_off_c, 0, 72, 100
2, 103100, Note_off_c, 0, 69, 100
2, 103104, Note_on_c, 0, 71, 70
2, 103104, Note_on_c, 0, 67, 70
2, 103292, Note_off_c, 0, 71, 100
2, 103292, Note_off_c, 0, 67, 100
2, 103296, Note_on_c, 0, 69, 70
2, 103296, Note_on_c, 0, 66, 70
2, 103484, Note_off_c, 0, 69, 100
2, 103484, Note_off_c, 0, 66, 100
2, 103488, Note_on_c, 0, 74, 70
2, 103488, Note_on_c, 0, 67, 70
2, 103676, Note_off_c, 0, 74, 100
2, 103676, Note_off_c, 0, 67, 100
2, 103680, Note_on_c, 0, 72, 70
2, 103680, Note_on_c, 0, 69, 70
2, 103868, Note_off_c, 0, 72, 100
2, 103868, Note_off_c, 0, 69, 100
2, 103872, Note_on_c, 0, 79, 70
2, 103872, Note_on_c, 0, 70, 70
2, 103872, Note_on_c, 0, 67, 70
2, 104636, Note_off_c, 0, 79, 100
2, 104636, Note_off_c, 0, 70, 100
2, 104636, Note_off_c, 0, 67, 100
2, 104640, Note_on_c, 0, 78, 78
2, 104640, Note_on_c, 0, 69, 78
2, 104640, Note_on_c, 0, 66, 78
2, 104828, Note_off_c, 0, 78, 100
2, 104828, Note_off_c, 0, 69, 100
2, 104828, Note_off_c, 0, 66, 100
2, 104832, Note_on_c, 0, 79, 80
2, 104832, Note_on_c, 0, 70, 80
2, 104832, Note_on_c, 0, 67, 80
2, 105020, Note_off_c, 0, 79, 100
2, 105020, Note_off_c, 0, 70, 100
2, 105020, Note_off_c, 0, 67, 100
2, 105024, Note_on_c, 0, 81, 82
2, 105024, Note_on_c, 0, 72, 82
2, 105024, Note_on_c, 0, 69, 82
2, 105788, Note_off_c, 0, 81, 100
2, 105788, Note_off_c, 0, 72, 100
2, 105788, Note_off_c, 0, 69, 100
2, 105792, Note_on_c, 0, 79, 91
2, 105792, Note_on_c, 0, 71, 91
2, 105792, Note_on_c, 0, 67, 91
2, 105980, Note_off_c, 0, 79, 100
2, 105980, Note_off_c, 0, 71, 100
2, 105980, Note_off_c, 0, 67, 100
2, 105984, Note_on_c, 0, 81, 93
2, 105984, Note_on_c, 0, 72, 93
2, 105984, Note_on_c, 0, 69, 93
2, 106172, Note_off_c, 0, 81, 100
2, 106172, Note_off_c, 0, 72, 100
2, 106172, Note_off_c, 0, 69, 100
2, 106176, Note_on_c, 0, 83, 95
2, 106176, Note_on_c, 0, 74, 95
2, 106176, Note_on_c, 0, 71, 95
2, 106940, Note_off_c, 0, 83, 100
2, 106940, Note_off_c, 0, 74, 100
2, 106940, Note_off_c, 0, 71, 100
2, 106944, Note_on_c, 0, 84, 103
2, 106944, Note_on_c, 0, 75, 103
2, 106944, Note_on_c, 0, 72, 103
2, 107132, Note_off_c, 0, 84, 100
2, 107132, Note_off_c, 0, 75, 100
2, 107132, Note_off_c, 0, 72, 100
2, 107136, Note_on_c, 0, 74, 106
2, 107136, Note_on_c, 0, 70, 106
2, 107136, Note_on_c, 0, 82, 106
2, 107324, Note_off_c, 0, 74, 100
2, 107324, Note_off_c, 0, 70, 100
2, 107328, Note_on_c, 0, 73, 108
2, 107328, Note_on_c, 0, 69, 108
2, 107516, Note_off_c, 0, 82, 100
2, 107520, Note_on_c, 0, 81, 110
2, 107708, Note_off_c, 0, 73, 100
2, 107708, Note_off_c, 0, 69, 100
2, 107708, Note_off_c, 0, 81, 100
2, 107712, Note_on_c, 0, 80, 112
2, 107904, Note_on_c, 0, 73, 114
2, 107904, Note_on_c, 0, 69, 114
2, 108092, Note_off_c, 0, 80, 100
2, 108096, Note_on_c, 0, 81, 116
2, 108284, Note_off_c, 0, 73, 100
2, 108284, Note_off_c, 0, 69, 100
2, 108284, Note_off_c, 0, 81, 100
2, 108288, Note_on_c, 0, 79, 118
2, 108288, Note_on_c, 0, 76, 118
2, 108288, Note_on_c, 0, 73, 118
2, 108476, Note_off_c, 0, 79, 100
2, 108476, Note_off_c, 0, 76, 100
2, 108476, Note_off_c, 0, 73, 100
2, 108480, Note_on_c, 0, 77, 120
2, 108480, Note_on_c, 0, 74, 120
2, 108480, Note_on_c, 0, 69, 120
2, 108668, Note_off_c, 0, 77, 100
2, 108668, Note_off_c, 0, 74, 100
2, 108668, Note_off_c, 0, 69, 100
2, 108672, Note_on_c, 0, 53, 120
2, 108860, Note_off_c, 0, 53, 100
2, 108864, Note_on_c, 0, 57, 120
2, 109052, Note_off_c, 0, 57, 100
2, 109056, Note_on_c, 0, 62, 120
2, 109244, Note_off_c, 0, 62, 100
2, 109248, Note_on_c, 0, 77, 120
2, 109436, Note_off_c, 0, 77, 100
2, 109440, Note_on_c, 0, 74, 120
2, 109628, Note_off_c, 0, 74, 100
2, 109632, Note_on_c, 0, 73, 120
2, 109820, Note_off_c, 0, 73, 100
2, 109824, Note_on_c, 0, 61, 120
2, 110012, Note_off_c, 0, 61, 100
2, 110016, Note_on_c, 0, 64, 120
2, 110204, Note_off_c, 0, 64, 100
2, 110208, Note_on_c, 0, 67, 120
2, 110396, Note_off_c, 0, 67, 100
2, 110400, Note_on_c, 0, 79, 120
2, 110588, Note_off_c, 0, 79, 100
2, 110592, Note_on_c, 0, 76, 120
2, 110780, Note_off_c, 0, 76, 100
2, 110784, Note_on_c, 0, 74, 120
2, 110972, Note_off_c, 0, 74, 100
2, 110976, Note_on_c, 0, 62, 120
2, 111164, Note_off_c, 0, 62, 100
2, 111168, Note_on_c, 0, 65, 120
2, 111356, Note_off_c, 0, 65, 100
2, 111360, Note_on_c, 0, 69, 120
2, 111548, Note_off_c, 0, 69, 100
2, 111552, Note_on_c, 0, 81, 120
2, 111740, Note_off_c, 0, 81, 100
2, 111744, Note_on_c, 0, 77, 120
2, 111932, Note_off_c, 0, 77, 100
2, 111936, Note_on_c, 0, 75, 120
2, 112124, Note_off_c, 0, 75, 100
2, 112128, Note_on_c, 0, 63, 120
2, 112316, Note_off_c, 0, 63, 100
2, 112320, Note_on_c, 0, 67, 120
2, 112508, Note_off_c, 0, 67, 100
2, 112512, Note_on_c, 0, 70, 120
2, 112700, Note_off_c, 0, 70, 100
2, 112704, Note_on_c, 0, 82, 120
2, 112892, Note_off_c, 0, 82, 100
2, 112896, Note_on_c, 0, 79, 120
2, 113084, Note_off_c, 0, 79, 100
2, 113088, Note_on_c, 0, 78, 120
2, 113276, Note_off_c, 0, 78, 100
2, 113280, Note_on_c, 0, 66, 120
2, 113468, Note_off_c, 0, 66, 100
2, 113472, Note_on_c, 0, 69, 120
2, 113660, Note_off_c, 0, 69, 100
2, 113664, Note_on_c, 0, 72, 120
2, 113852, Note_off_c, 0, 72, 100
2, 113856, Note_on_c, 0, 84, 120
2, 114044, Note_off_c, 0, 84, 100
2, 114048, Note_on_c, 0, 81, 120
2, 114236, Note_off_c, 0, 81, 100
2, 114240, Note_on_c, 0, 79, 120
2, 114428, Note_off_c, 0, 79, 100
2, 114432, Note_on_c, 0, 86, 120
2, 114620, Note_off_c, 0, 86, 100
2, 114624, Note_on_c, 0, 79, 120
2, 114812, Note_off_c, 0, 79, 100
2, 114816, Note_on_c, 0, 80, 120
2, 115004, Note_off_c, 0, 80, 100
2, 115008, Note_on_c, 0, 86, 120
2, 115196, Note_off_c, 0, 86, 100
2, 115200, Note_on_c, 0, 80, 120
2, 115388, Note_off_c, 0, 80, 100
2, 115392, Note_on_c, 0, 73, 120
2, 115488, Note_on_c, 0, 76, 120
2, 115584, Note_on_c, 0, 81, 120
2, 115676, Note_off_c, 0, 73, 100
2, 115680, Note_on_c, 0, 85, 120
2, 115772, Note_off_c, 0, 76, 100
2, 115776, Note_on_c, 0, 69, 120
2, 115868, Note_off_c, 0, 81, 100
2, 115872, Note_on_c, 0, 81, 120
2, 115964, Note_off_c, 0, 85, 100
2, 115968, Note_on_c, 0, 71, 120
2, 116060, Note_off_c, 0, 69, 100
2, 116064, Note_on_c, 0, 83, 120
2, 116156, Note_off_c, 0, 81, 100
2, 116160, Note_on_c, 0, 73, 120
2, 116252, Note_off_c, 0, 71, 100
2, 116256, Note_on_c, 0, 85, 120
2, 116348, Note_off_c, 0, 83, 100
2, 116352, Note_on_c, 0, 74, 120
2, 116444, Note_off_c, 0, 73, 100
2, 116448, Note_on_c, 0, 86, 120
2, 116540, Note_off_c, 0, 85, 100
2, 116544, Note_on_c, 0, 76, 120
2, 116636, Note_off_c, 0, 74, 100
2, 116640, Note_on_c, 0, 88, 120
2, 116732, Note_off_c, 0, 86, 100
2, 116736, Note_on_c, 0, 74, 120
2, 116828, Note_off_c, 0, 76, 100
2, 116832, Note_on_c, 0, 86, 120
2, 116924, Note_off_c, 0, 88, 100
2, 116928, Note_on_c, 0, 73, 120
2, 117020, Note_off_c, 0, 74, 100
2, 117024, Note_on_c, 0, 85, 120
2, 117116, Note_off_c, 0, 86, 100
2, 117120, Note_on_c, 0, 77, 120
2, 117212, Note_off_c, 0, 73, 100
2, 117216, Note_on_c, 0, 89, 120
2, 117308, Note_off_c, 0, 85, 100
2, 117312, Note_on_c, 0, 76, 120
2, 117404, Note_off_c, 0, 77, 100
2, 117408, Note_on_c, 0, 88, 120
2, 117500, Note_off_c, 0, 89, 100
2, 117504, Note_on_c, 0, 74, 120
2, 117596, Note_off_c, 0, 76, 100
2, 117600, Note_on_c, 0, 86, 120
2, 117692, Note_off_c, 0, 88, 100
2, 117696, Note_on_c, 0, 73, 120
2, 117788, Note_off_c, 0, 74, 100
2, 117792, Note_on_c, 0, 76, 120
2, 117884, Note_off_c, 0, 86, 100
2, 117888, Note_on_c, 0, 81, 120
2, 117980, Note_off_c, 0, 73, 100
2, 117984, Note_on_c, 0, 85, 120
2, 118076, Note_off_c, 0, 76, 100
2, 118080, Note_on_c, 0, 69, 120
2, 118172, Note_off_c, 0, 81, 100
2, 118176, Note_on_c, 0, 81, 120
2, 118268, Note_off_c, 0, 85, 100
2, 118272, Note_on_c, 0, 71, 120
2, 118364, Note_off_c, 0, 69, 100
2, 118368, Note_on_c, 0, 83, 120
2, 118460, Note_off_c, 0, 81, 100
2, 118464, Note_on_c, 0, 73, 120
2, 118556, Note_off_c, 0, 71, 100
2, 118560, Note_on_c, 0, 85, 120
2, 118652, Note_off_c, 0, 83, 100
2, 118656, Note_on_c, 0, 74, 120
2, 118748, Note_off_c, 0, 73, 100
2, 118752, Note_on_c, 0, 86, 120
2, 118844, Note_off_c, 0, 85, 100
2, 118848, Note_on_c, 0, 76, 120
2, 118940, Note_off_c, 0, 74, 100
2, 118944, Note_on_c, 0, 88, 120
2, 119036, Note_off_c, 0, 86, 100
2, 119040, Note_on_c, 0, 74, 120
2, 119132, Note_off_c, 0, 76, 100
2, 119136, Note_on_c, 0, 86, 120
2, 119228, Note_off_c, 0, 88, 100
2, 119232, Note_on_c, 0, 73, 120
2, 119324, Note_off_c, 0, 74, 100
2, 119328, Note_on_c, 0, 85, 120
2, 119420, Note_off_c, 0, 86, 100
2, 119424, Note_on_c, 0, 77, 120
2, 119516, Note_off_c, 0, 73, 100
2, 119520, Note_on_c, 0, 89, 120
2, 119612, Note_off_c, 0, 85, 100
2, 119616, Note_on_c, 0, 76, 120
2, 119708, Note_off_c, 0, 77, 100
2, 119712, Note_on_c, 0, 88, 120
2, 119804, Note_off_c, 0, 89, 100
2, 119808, Note_on_c, 0, 74, 120
2, 119900, Note_off_c, 0, 76, 100
2, 119904, Note_on_c, 0, 86, 120
2, 119996, Note_off_c, 0, 88, 100
2, 120000, Note_on_c, 0, 73, 120
2, 120092, Note_off_c, 0, 74, 100
2, 120096, Note_on_c, 0, 76, 120
2, 120188, Note_off_c, 0, 86, 100
2, 120192, Note_on_c, 0, 81, 120
2, 120284, Note_off_c, 0, 73, 100
2, 120288, Note_on_c, 0, 85, 120
2, 120380, Note_off_c, 0, 76, 100
2, 120384, Note_on_c, 0, 69, 120
2, 120476, Note_off_c, 0, 81, 100
2, 120480, Note_on_c, 0, 81, 120
2, 120572, Note_off_c, 0, 85, 100
2, 120576, Note_on_c, 0, 71, 120
2, 120668, Note_off_c, 0, 69, 100
2, 120672, Note_on_c, 0, 83, 120
2, 120764, Note_off_c, 0, 81, 100
2, 120768, Note_on_c, 0, 73, 120
2, 120860, Note_off_c, 0, 71, 100
2, 120864, Note_on_c, 0, 85, 120
2, 120956, Note_off_c, 0, 83, 100
2, 120960, Note_on_c, 0, 74, 120
2, 121052, Note_off_c, 0, 73, 100
2, 121056, Note_on_c, 0, 86, 120
2, 121148, Note_off_c, 0, 85, 100
2, 121152, Note_on_c, 0, 76, 120
2, 121244, Note_off_c, 0, 74, 100
2, 121248, Note_on_c, 0, 88, 120
2, 121340, Note_off_c, 0, 86, 100
2, 121344, Note_on_c, 0, 74, 120
2, 121436, Note_off_c, 0, 76, 100
2, 121440, Note_on_c, 0, 86, 120
2, 121532, Note_off_c, 0, 88, 100
2, 121536, Note_on_c, 0, 73, 120
2, 121628, Note_off_c, 0, 74, 100
2, 121632, Note_on_c, 0, 85, 120
2, 121724, Note_off_c, 0, 86, 100
2, 121728, Note_on_c, 0, 77, 120
2, 121820, Note_off_c, 0, 73, 100
2, 121824, Note_on_c, 0, 89, 120
2, 121916, Note_off_c, 0, 85, 100
2, 121920, Note_on_c, 0, 76, 120
2, 122012, Note_off_c, 0, 77, 100
2, 122016, Note_on_c, 0, 88, 120
2, 122108, Note_off_c, 0, 89, 100
2, 122112, Note_on_c, 0, 74, 120
2, 122204, Note_off_c, 0, 76, 100
2, 122208, Note_on_c, 0, 86, 120
2, 122300, Note_off_c, 0, 88, 100
2, 122304, Note_on_c, 0, 76, 120
2, 122396, Note_off_c, 0, 74, 100
2, 122400, Note_on_c, 0, 88, 120
2, 122492, Note_off_c, 0, 86, 100
2, 122496, Note_on_c, 0, 74, 120
2, 122588, Note_off_c, 0, 76, 100
2, 122592, Note_on_c, 0, 86, 120
2, 122684, Note_off_c, 0, 88, 100
2, 122688, Note_on_c, 0, 73, 120
2, 122780, Note_off_c, 0, 74, 100
2, 122784, Note_on_c, 0, 85, 120
2, 122876, Note_off_c, 0, 86, 100
2, 122880, Note_on_c, 0, 77, 120
2, 122972, Note_off_c, 0, 73, 100
2, 122976, Note_on_c, 0, 89, 120
2, 123068, Note_off_c, 0, 85, 100
2, 123072, Note_on_c, 0, 76, 120
2, 123164, Note_off_c, 0, 77, 100
2, 123168, Note_on_c, 0, 88, 120
2, 123260, Note_off_c, 0, 89, 100
2, 123264, Note_on_c, 0, 74, 120
2, 123356, Note_off_c, 0, 76, 100
2, 123360, Note_on_c, 0, 86, 120
2, 123452, Note_off_c, 0, 88, 100
2, 123456, Note_on_c, 0, 76, 120
2, 123548, Note_off_c, 0, 74, 100
2, 123552, Note_on_c, 0, 88, 120
2, 123644, Note_off_c, 0, 86, 100
2, 123648, Note_on_c, 0, 74, 120
2, 123740, Note_off_c, 0, 76, 100
2, 123744, Note_on_c, 0, 86, 120
2, 123836, Note_off_c, 0, 88, 100
2, 123840, Note_on_c, 0, 73, 120
2, 123932, Note_off_c, 0, 74, 100
2, 123936, Note_on_c, 0, 85, 120
2, 124028, Note_off_c, 0, 86, 100
2, 124032, Note_on_c, 0, 77, 120
2, 124124, Note_off_c, 0, 73, 100
2, 124128, Note_on_c, 0, 89, 120
2, 124220, Note_off_c, 0, 85, 100
2, 124224, Note_on_c, 0, 76, 120
2, 124316, Note_off_c, 0, 77, 100
2, 124320, Note_on_c, 0, 88, 120
2, 124412, Note_off_c, 0, 89, 100
2, 124416, Note_on_c, 0, 74, 120
2, 124508, Note_off_c, 0, 76, 100
2, 124512, Note_on_c, 0, 86, 120
2, 124604, Note_off_c, 0, 88, 100
2, 124604, Note_off_c, 0, 86, 100
2, 124606, Note_off_c, 0, 74, 100
2, 124608, Note_on_c, 0, 85, 120
2, 124700, Note_off_c, 0, 85, 100
2, 124704, Note_on_c, 0, 88, 120
2, 124796, Note_off_c, 0, 88, 100
2, 124800, Note_on_c, 0, 86, 120
2, 124892, Note_off_c, 0, 86, 100
2, 124896, Note_on_c, 0, 85, 120
2, 124988, Note_off_c, 0, 85, 100
2, 124992, Note_on_c, 0, 83, 120
2, 125084, Note_off_c, 0, 83, 100
2, 125088, Note_on_c, 0, 81, 120
2, 125180, Note_off_c, 0, 81, 100
2, 125184, Note_on_c, 0, 80, 120
2, 125276, Note_off_c, 0, 80, 100
2, 125280, Note_on_c, 0, 78, 120
2, 125372, Note_off_c, 0, 78, 100
2, 125376, Note_on_c, 0, 76, 120
2, 125468, Note_off_c, 0, 76, 100
2, 125472, Note_on_c, 0, 74, 120
2, 125564, Note_off_c, 0, 74, 100
2, 125568, Note_on_c, 0, 73, 120
2, 125660, Note_off_c, 0, 73, 100
2, 125664, Note_on_c, 0, 71, 120
2, 125756, Note_off_c, 0, 71, 100
2, 125760, Note_on_c, 0, 69, 120
2, 125852, Note_off_c, 0, 69, 100
2, 125856, Note_on_c, 0, 76, 120
2, 125948, Note_off_c, 0, 76, 100
2, 125952, Note_on_c, 0, 74, 120
2, 126044, Note_off_c, 0, 74, 100
2, 126048, Note_on_c, 0, 73, 120
2, 126140, Note_off_c, 0, 73, 100
2, 126144, Note_on_c, 0, 71, 120
2, 126236, Note_off_c, 0, 71, 100
2, 126240, Note_on_c, 0, 69, 120
2, 126332, Note_off_c, 0, 69, 100
2, 126336, Note_on_c, 0, 68, 120
2, 126428, Note_off_c, 0, 68, 100
2, 126432, Note_on_c, 0, 66, 120
2, 126524, Note_off_c, 0, 66, 100
2, 126528, Note_on_c, 0, 64, 120
2, 126620, Note_off_c, 0, 64, 100
2, 126624, Note_on_c, 0, 62, 120
2, 126716, Note_off_c, 0, 62, 100
2, 126720, Note_on_c, 0, 61, 120
2, 126812, Note_off_c, 0, 61, 100
2, 126816, Note_on_c, 0, 59, 120
2, 126908, Note_off_c, 0, 59, 100
2, 126912, Note_on_c, 0, 57, 120
2, 127004, Note_off_c, 0, 57, 100
2, 127008, Note_on_c, 0, 64, 120
2, 127100, Note_off_c, 0, 64, 100
2, 127104, Note_on_c, 0, 62, 120
2, 127196, Note_off_c, 0, 62, 100
2, 127200, Note_on_c, 0, 61, 120
2, 127292, Note_off_c, 0, 61, 100
2, 127296, Note_on_c, 0, 59, 120
2, 127388, Note_off_c, 0, 59, 100
2, 127392, Note_on_c, 0, 57, 120
2, 127484, Note_off_c, 0, 57, 100
2, 127488, Note_on_c, 0, 56, 120
2, 127580, Note_off_c, 0, 56, 100
2, 127584, Note_on_c, 0, 54, 120
2, 127676, Note_off_c, 0, 54, 100
2, 127680, Note_on_c, 0, 52, 120
2, 127772, Note_off_c, 0, 52, 100
2, 127776, Note_on_c, 0, 50, 120
2, 127868, Note_off_c, 0, 50, 100
2, 127872, Note_on_c, 0, 49, 120
2, 127964, Note_off_c, 0, 49, 100
2, 127968, Note_on_c, 0, 47, 120
2, 128060, Note_off_c, 0, 47, 100
2, 128256, Note_on_c, 0, 61, 120
2, 128444, Note_off_c, 0, 61, 100
2, 128448, Note_on_c, 0, 64, 120
2, 128636, Note_off_c, 0, 64, 100
2, 128640, Note_on_c, 0, 69, 120
2, 128640, Note_on_c, 0, 57, 120
2, 128828, Note_off_c, 0, 69, 100
2, 128828, Note_off_c, 0, 57, 100
2, 128832, Note_on_c, 0, 73, 120
2, 128832, Note_on_c, 0, 61, 120
2, 129020, Note_off_c, 0, 73, 100
2, 129020, Note_off_c, 0, 61, 100
2, 129024, Note_on_c, 0, 76, 120
2, 129024, Note_on_c, 0, 64, 120
2, 129212, Note_off_c, 0, 76, 100
2, 129212, Note_off_c, 0, 64, 100
2, 129216, Note_on_c, 0, 81, 120
2, 129216, Note_on_c, 0, 69, 120
2, 131324, Note_off_c, 0, 69, 100
2, 131324, Note_off_c, 0, 81, 100
2, 133632, Note_on_c, 0, 81, 80
2, 133824, Note_on_c, 0, 69, 80
2, 134012, Note_off_c, 0, 81, 100
2, 134016, Note_on_c, 0, 79, 80
2, 134204, Note_off_c, 0, 79, 100
2, 134208, Note_on_c, 0, 78, 80
2, 134396, Note_off_c, 0, 69, 100
2, 134396, Note_off_c, 0, 78, 100
2, 134400, Note_on_c, 0, 71, 80
2, 134400, Note_on_c, 0, 76, 80
2, 134588, Note_off_c, 0, 76, 100
2, 134592, Note_on_c, 0, 78, 80
2, 134780, Note_off_c, 0, 78, 100
2, 134784, Note_on_c, 0, 74, 80
2, 134972, Note_off_c, 0, 71, 100
2, 134972, Note_off_c, 0, 74, 100
2, 134976, Note_on_c, 0, 71, 80
2, 134976, Note_on_c, 0, 67, 80
2, 135164, Note_off_c, 0, 71, 100
2, 135168, Note_on_c, 0, 76, 80
2, 135356, Note_off_c, 0, 67, 100
2, 135356, Note_off_c, 0, 76, 100
2, 135360, Note_on_c, 0, 73, 80
2, 135360, Note_on_c, 0, 67, 80
2, 135548, Note_off_c, 0, 73, 100
2, 135548, Note_off_c, 0, 67, 100
2, 135552, Note_on_c, 0, 74, 80
2, 135552, Note_on_c, 0, 66, 80
2, 135740, Note_off_c, 0, 74, 100
2, 135740, Note_off_c, 0, 66, 100
2, 136224, Note_on_c, 0, 74, 80
2, 136316, Note_off_c, 0, 74, 100
2, 136320, Note_on_c, 0, 78, 80
2, 136412, Note_off_c, 0, 78, 100
2, 136416, Note_on_c, 0, 74, 80
2, 136508, Note_off_c, 0, 74, 100
2, 136512, Note_on_c, 0, 69, 80
2, 136604, Note_off_c, 0, 69, 100
2, 136608, Note_on_c, 0, 66, 80
2, 136700, Note_off_c, 0, 66, 100
2, 136704, Note_on_c, 0, 69, 80
2, 137086, Note_off_c, 0, 69, 100
2, 137088, Note_on_c, 0, 67, 80
2, 137276, Note_off_c, 0, 67, 100
2, 137376, Note_on_c, 0, 87, 80
2, 137468, Note_off_c, 0, 87, 100
2, 137472, Note_on_c, 0, 88, 80
2, 137564, Note_off_c, 0, 88, 100
2, 137568, Note_on_c, 0, 85, 80
2, 137660, Note_off_c, 0, 85, 100
2, 137664, Note_on_c, 0, 79, 80
2, 137756, Note_off_c, 0, 79, 100
2, 137760, Note_on_c, 0, 76, 80
2, 137852, Note_off_c, 0, 76, 100
2, 137856, Note_on_c, 0, 79, 80
2, 138238, Note_off_c, 0, 79, 100
2, 138240, Note_on_c, 0, 78, 80
2, 138428, Note_off_c, 0, 78, 100
2, 138432, Note_on_c, 0, 69, 80
2, 138432, Note_on_c, 0, 81, 80
2, 138620, Note_off_c, 0, 81, 100
2, 138624, Note_on_c, 0, 79, 80
2, 138812, Note_off_c, 0, 79, 100
2, 138816, Note_on_c, 0, 78, 80
2, 139004, Note_off_c, 0, 69, 100
2, 139004, Note_off_c, 0, 78, 100
2, 139008, Note_on_c, 0, 71, 80
2, 139008, Note_on_c, 0, 76, 80
2, 139196, Note_off_c, 0, 76, 100
2, 139200, Note_on_c, 0, 78, 80
2, 139388, Note_off_c, 0, 78, 100
2, 139392, Note_on_c, 0, 74, 80
2, 139580, Note_off_c, 0, 71, 100
2, 139580, Note_off_c, 0, 74, 100
2, 139584, Note_on_c, 0, 71, 80
2, 139584, Note_on_c, 0, 67, 80
2, 139772, Note_off_c, 0, 71, 100
2, 139776, Note_on_c, 0, 76, 80
2, 139964, Note_off_c, 0, 67, 100
2, 139964, Note_off_c, 0, 76, 100
2, 139968, Note_on_c, 0, 73, 80
2, 139968, Note_on_c, 0, 67, 80
2, 140156, Note_off_c, 0, 73, 100
2, 140156, Note_off_c, 0, 67, 100
2, 140160, Note_on_c, 0, 74, 80
2, 140160, Note_on_c, 0, 66, 80
2, 140348, Note_off_c, 0, 74, 100
2, 140348, Note_off_c, 0, 66, 100
2, 140544, Note_on_c, 0, 66, 80
2, 140544, Note_on_c, 0, 74, 80
2, 140732, Note_off_c, 0, 66, 100
2, 140736, Note_on_c, 0, 67, 80
2, 141116, Note_off_c, 0, 74, 100
2, 141120, Note_on_c, 0, 73, 80
2, 141308, Note_off_c, 0, 73, 100
2, 141312, Note_on_c, 0, 81, 90
2, 141500, Note_off_c, 0, 67, 100
2, 141500, Note_off_c, 0, 81, 100
2, 141696, Note_on_c, 0, 73, 80
2, 141696, Note_on_c, 0, 67, 80
2, 141884, Note_off_c, 0, 73, 100
2, 141884, Note_off_c, 0, 67, 100
2, 141888, Note_on_c, 0, 66, 80
2, 141888, Note_on_c, 0, 76, 80
2, 142268, Note_off_c, 0, 76, 100
2, 142272, Note_on_c, 0, 74, 80
2, 142460, Note_off_c, 0, 74, 100
2, 142464, Note_on_c, 0, 81, 90
2, 142652, Note_off_c, 0, 66, 100
2, 142652, Note_off_c, 0, 81, 100
2, 142848, Note_on_c, 0, 66, 80
2, 142848, Note_on_c, 0, 74, 80
2, 143036, Note_off_c, 0, 66, 100
2, 143040, Note_on_c, 0, 67, 80
2, 143420, Note_off_c, 0, 74, 100
2, 143424, Note_on_c, 0, 73, 80
2, 143612, Note_off_c, 0, 73, 100
2, 143616, Note_on_c, 0, 81, 90
2, 143804, Note_off_c, 0, 67, 100
2, 143804, Note_off_c, 0, 81, 100
2, 144000, Note_on_c, 0, 73, 80
2, 144000, Note_on_c, 0, 67, 80
2, 144188, Note_off_c, 0, 73, 100
2, 144188, Note_off_c, 0, 67, 100
2, 144192, Note_on_c, 0, 74, 80
2, 144192, Note_on_c, 0, 66, 80
2, 144572, Note_off_c, 0, 74, 100
2, 144572, Note_off_c, 0, 66, 100
2, 145152, Note_on_c, 0, 66, 80
2, 145152, Note_on_c, 0, 74, 80
2, 145340, Note_off_c, 0, 66, 100
2, 145344, Note_on_c, 0, 67, 80
2, 145628, Note_off_c, 0, 74, 100
2, 145632, Note_on_c, 0, 73, 80
2, 145724, Note_off_c, 0, 73, 100
2, 145728, Note_on_c, 0, 71, 80
2, 145820, Note_off_c, 0, 71, 100
2, 145824, Note_on_c, 0, 73, 80
2, 145916, Note_off_c, 0, 73, 100
2, 145920, Note_on_c, 0, 81, 90
2, 146108, Note_off_c, 0, 67, 100
2, 146108, Note_off_c, 0, 81, 100
2, 146304, Note_on_c, 0, 73, 80
2, 146304, Note_on_c, 0, 67, 80
2, 146492, Note_off_c, 0, 73, 100
2, 146492, Note_off_c, 0, 67, 100
2, 146496, Note_on_c, 0, 66, 80
2, 146496, Note_on_c, 0, 76, 80
2, 146780, Note_off_c, 0, 76, 100
2, 146784, Note_on_c, 0, 74, 80
2, 146876, Note_off_c, 0, 74, 100
2, 146880, Note_on_c, 0, 73, 80
2, 146972, Note_off_c, 0, 73, 100
2, 146976, Note_on_c, 0, 74, 80
2, 147068, Note_off_c, 0, 74, 100
2, 147072, Note_on_c, 0, 81, 90
2, 147260, Note_off_c, 0, 66, 100
2, 147260, Note_off_c, 0, 81, 100
2, 147456, Note_on_c, 0, 66, 80
2, 147456, Note_on_c, 0, 74, 80
2, 147644, Note_off_c, 0, 66, 100
2, 147648, Note_on_c, 0, 67, 80
2, 147932, Note_off_c, 0, 74, 100
2, 147936, Note_on_c, 0, 73, 80
2, 148028, Note_off_c, 0, 73, 100
2, 148032, Note_on_c, 0, 71, 80
2, 148124, Note_off_c, 0, 71, 100
2, 148128, Note_on_c, 0, 73, 80
2, 148220, Note_off_c, 0, 73, 100
2, 148224, Note_on_c, 0, 81, 90
2, 148412, Note_off_c, 0, 67, 100
2, 148412, Note_off_c, 0, 81, 100
2, 148608, Note_on_c, 0, 73, 80
2, 148608, Note_on_c, 0, 67, 80
2, 148796, Note_off_c, 0, 73, 100
2, 148796, Note_off_c, 0, 67, 100
2, 148800, Note_on_c, 0, 74, 80
2, 148800, Note_on_c, 0, 66, 80
2, 149180, Note_off_c, 0, 74, 100
2, 149180, Note_off_c, 0, 66, 100
2, 149760, Note_on_c, 0, 62, 80
2, 149852, Note_off_c, 0, 62, 100
2, 149856, Note_on_c, 0, 57, 80
2, 149948, Note_off_c, 0, 57, 100
2, 149952, Control_c, 0, 64, 127
2, 150144, Note_on_c, 0, 54, 80
2, 150236, Note_off_c, 0, 54, 100
2, 150240, Note_on_c, 0, 57, 80
2, 150332, Note_off_c, 0, 57, 100
2, 150336, Note_on_c, 0, 62, 80
2, 150428, Note_off_c, 0, 62, 100
2, 150432, Note_on_c, 0, 66, 80
2, 150524, Note_off_c, 0, 66, 100
2, 150524, Control_c, 0, 64, 0
2, 150528, Control_c, 0, 64, 127
2, 150720, Note_on_c, 0, 64, 80
2, 150812, Note_off_c, 0, 64, 100
2, 150816, Note_on_c, 0, 69, 80
2, 150908, Note_off_c, 0, 69, 100
2, 150912, Note_on_c, 0, 73, 80
2, 151004, Note_off_c, 0, 73, 100
2, 151008, Note_on_c, 0, 76, 80
2, 151100, Note_off_c, 0, 76, 100
2, 151100, Control_c, 0, 64, 0
2, 151104, Control_c, 0, 64, 127
2, 151296, Note_on_c, 0, 62, 80
2, 151388, Note_off_c, 0, 62, 100
2, 151392, Note_on_c, 0, 66, 80
2, 151484, Note_off_c, 0, 66, 100
2, 151488, Note_on_c, 0, 71, 80
2, 151580, Note_off_c, 0, 71, 100
2, 151584, Note_on_c, 0, 74, 80
2, 151676, Note_off_c, 0, 74, 100
2, 151676, Control_c, 0, 64, 0
2, 151680, Control_c, 0, 64, 127
2, 151872, Note_on_c, 0, 73, 80
2, 151964, Note_off_c, 0, 73, 100
2, 151968, Note_on_c, 0, 78, 80
2, 152060, Note_off_c, 0, 78, 100
2, 152064, Note_on_c, 0, 81, 80
2, 152156, Note_off_c, 0, 81, 100
2, 152160, Note_on_c, 0, 85, 80
2, 152252, Note_off_c, 0, 85, 100
2, 152252, Control_c, 0, 64, 0
2, 152256, Control_c, 0, 64, 127
2, 152448, Note_on_c, 0, 59, 80
2, 152540, Note_off_c, 0, 59, 100
2, 152544, Note_on_c, 0, 62, 80
2, 152636, Note_off_c, 0, 62, 100
2, 152640, Note_on_c, 0, 67, 80
2, 152732, Note_off_c, 0, 67, 100
2, 152736, Note_on_c, 0, 71, 80
2, 152828, Note_off_c, 0, 71, 100
2, 152828, Control_c, 0, 64, 0
2, 152832, Control_c, 0, 64, 127
2, 153024, Note_on_c, 0, 69, 80
2, 153116, Note_off_c, 0, 69, 100
2, 153120, Note_on_c, 0, 74, 80
2, 153212, Note_off_c, 0, 74, 100
2, 153216, Note_on_c, 0, 78, 80
2, 153308, Note_off_c, 0, 78, 100
2, 153312, Note_on_c, 0, 81, 80
2, 153404, Note_off_c, 0, 81, 100
2, 153404, Control_c, 0, 64, 0
2, 153408, Control_c, 0, 64, 127
2, 153408, Note_on_c, 0, 79, 80
2, 153408, Note_on_c, 0, 73, 80
2, 153500, Note_off_c, 0, 79, 100
2, 153500, Note_off_c, 0, 73, 100
2, 153504, Note_on_c, 0, 69, 80
2, 153596, Note_off_c, 0, 69, 100
2, 153600, Note_on_c, 0, 79, 80
2, 153600, Note_on_c, 0, 73, 80
2, 153692, Note_off_c, 0, 79, 100
2, 153692, Note_off_c, 0, 73, 100
2, 153696, Note_on_c, 0, 69, 80
2, 153788, Note_off_c, 0, 69, 100
2, 153792, Note_on_c, 0, 78, 80
2, 153792, Note_on_c, 0, 74, 80
2, 153884, Note_off_c, 0, 78, 100
2, 153884, Note_off_c, 0, 74, 100
2, 153888, Note_on_c, 0, 69, 80
2, 153980, Note_off_c, 0, 69, 100
2, 153980, Control_c, 0, 64, 0
2, 153984, Control_c, 0, 64, 127
2, 153984, Note_on_c, 0, 76, 80
2, 153984, Note_on_c, 0, 73, 80
2, 154076, Note_off_c, 0, 76, 100
2, 154076, Note_off_c, 0, 73, 100
2, 154080, Note_on_c, 0, 74, 80
2, 154172, Note_off_c, 0, 74, 100
2, 154176, Note_on_c, 0, 73, 80
2, 154268, Note_off_c, 0, 73, 100
2, 154272, Note_on_c, 0, 71, 80
2, 154364, Note_off_c, 0, 71, 100
2, 154368, Note_on_c, 0, 69, 80
2, 154460, Note_off_c, 0, 69, 100
2, 154464, Note_on_c, 0, 67, 80
2, 154556, Note_off_c, 0, 67, 100
2, 154556, Control_c, 0, 64, 0
2, 154560, Control_c, 0, 64, 127
2, 154752, Note_on_c, 0, 54, 80
2, 154844, Note_off_c, 0, 54, 100
2, 154848, Note_on_c, 0, 57, 80
2, 154940, Note_off_c, 0, 57, 100
2, 154944, Note_on_c, 0, 62, 80
2, 155036, Note_off_c, 0, 62, 100
2, 155040, Note_on_c, 0, 66, 80
2, 155132, Note_off_c, 0, 66, 100
2, 155132, Control_c, 0, 64, 0
2, 155136, Control_c, 0, 64, 127
2, 155328, Note_on_c, 0, 64, 80
2, 155420, Note_off_c, 0, 64, 100
2, 155424, Note_on_c, 0, 70, 80
2, 155516, Note_off_c, 0, 70, 100
2, 155520, Note_on_c, 0, 73, 81
2, 155612, Note_off_c, 0, 73, 100
2, 155616, Note_on_c, 0, 76, 82
2, 155708, Note_off_c, 0, 76, 100
2, 155708, Control_c, 0, 64, 0
2, 155712, Control_c, 0, 64, 127
2, 155904, Note_on_c, 0, 62, 84
2, 155996, Note_off_c, 0, 62, 100
2, 156000, Note_on_c, 0, 66, 85
2, 156092, Note_off_c, 0, 66, 100
2, 156096, Note_on_c, 0, 71, 86
2, 156188, Note_off_c, 0, 71, 100
2, 156192, Note_on_c, 0, 74, 86
2, 156284, Note_off_c, 0, 74, 100
2, 156284, Control_c, 0, 64, 0
2, 156288, Control_c, 0, 64, 127
2, 156480, Note_on_c, 0, 72, 89
2, 156572, Note_off_c, 0, 72, 100
2, 156576, Note_on_c, 0, 78, 89
2, 156668, Note_off_c, 0, 78, 100
2, 156672, Note_on_c, 0, 81, 90
2, 156764, Note_off_c, 0, 81, 100
2, 156768, Note_on_c, 0, 84, 91
2, 156860, Note_off_c, 0, 84, 100
2, 156860, Control_c, 0, 64, 0
2, 156864, Control_c, 0, 64, 127
2, 157056, Note_on_c, 0, 59, 93
2, 157148, Note_off_c, 0, 59, 100
2, 157152, Note_on_c, 0, 62, 94
2, 157244, Note_off_c, 0, 62, 100
2, 157248, Note_on_c, 0, 67, 95
2, 157340, Note_off_c, 0, 67, 100
2, 157344, Note_on_c, 0, 71, 95
2, 157436, Note_off_c, 0, 71, 100
2, 157436, Control_c, 0, 64, 0
2, 157440, Control_c, 0, 64, 127
2, 157632, Note_on_c, 0, 75, 98
2, 157724, Note_off_c, 0, 75, 100
2, 157728, Note_on_c, 0, 81, 98
2, 157820, Note_off_c, 0, 81, 100
2, 157824, Note_on_c, 0, 83, 99
2, 157916, Note_off_c, 0, 83, 100
2, 157920, Note_on_c, 0, 87, 100
2, 158012, Note_off_c, 0, 87, 100
2, 158012, Control_c, 0, 64, 0
2, 158016, Control_c, 0, 64, 127
2, 158208, Note_on_c, 0, 64, 102
2, 158300, Note_off_c, 0, 64, 100
2, 158304, Note_on_c, 0, 67, 103
2, 158396, Note_off_c, 0, 67, 100
2, 158400, Note_on_c, 0, 71, 104
2, 158492, Note_off_c, 0, 71, 100
2, 158496, Note_on_c, 0, 76, 104
2, 158588, Note_off_c, 0, 76, 100
2, 158588, Control_c, 0, 64, 0
2, 158592, Control_c, 0, 64, 127
2, 158784, Note_on_c, 0, 74, 107
2, 158876, Note_off_c, 0, 74, 100
2, 158880, Note_on_c, 0, 76, 107
2, 158972, Note_off_c, 0, 76, 100
2, 158976, Note_on_c, 0, 83, 108
2, 159068, Note_off_c, 0, 83, 100
2, 159072, Note_on_c, 0, 86, 109
2, 159164, Note_off_c, 0, 86, 100
2, 159164, Control_c, 0, 64, 0
2, 159168, Control_c, 0, 64, 127
2, 159360, Note_on_c, 0, 61, 110
2, 159452, Note_off_c, 0, 61, 100
2, 159456, Note_on_c, 0, 64, 110
2, 159548, Note_off_c, 0, 64, 100
2, 159552, Note_on_c, 0, 69, 110
2, 159644, Note_off_c, 0, 69, 100
2, 159648, Note_on_c, 0, 73, 110
2, 159740, Note_off_c, 0, 73, 100
2, 159740, Control_c, 0, 64, 0
2, 159744, Control_c, 0, 64, 127
2, 159936, Note_on_c, 0, 73, 110
2, 160028, Note_off_c, 0, 73, 100
2, 160032, Note_on_c, 0, 76, 110
2, 160124, Note_off_c, 0, 76, 100
2, 160128, Note_on_c, 0, 81, 110
2, 160220, Note_off_c, 0, 81, 100
2, 160224, Note_on_c, 0, 85, 110
2, 160316, Note_off_c, 0, 85, 100
2, 160316, Control_c, 0, 64, 0
2, 160320, Control_c, 0, 64, 127
2, 160512, Note_on_c, 0, 62, 110
2, 160604, Note_off_c, 0, 62, 100
2, 160608, Note_on_c, 0, 66, 110
2, 160700, Note_off_c, 0, 66, 100
2, 160704, Note_on_c, 0, 69, 110
2, 160796, Note_off_c, 0, 69, 100
2, 160800, Note_on_c, 0, 74, 110
2, 160892, Note_off_c, 0, 74, 100
2, 160892, Control_c, 0, 64, 0
2, 160896, Control_c, 0, 64, 127
2, 161088, Note_on_c, 0, 74, 110
2, 161180, Note_off_c, 0, 74, 100
2, 161184, Note_on_c, 0, 80, 110
2, 161276, Note_off_c, 0, 80, 100
2, 161280, Note_on_c, 0, 83, 110
2, 161372, Note_off_c, 0, 83, 100
2, 161376, Note_on_c, 0, 86, 110
2, 161468, Note_off_c, 0, 86, 100
2, 161468, Control_c, 0, 64, 0
2, 161472, Control_c, 0, 64, 127
2, 161664, Note_on_c, 0, 49, 110
2, 161756, Note_off_c, 0, 49, 100
2, 161760, Note_on_c, 0, 52, 110
2, 161852, Note_off_c, 0, 52, 100
2, 161856, Note_on_c, 0, 57, 110
2, 161948, Note_off_c, 0, 57, 100
2, 161952, Note_on_c, 0, 61, 110
2, 162044, Note_off_c, 0, 61, 100
2, 162044, Control_c, 0, 64, 0
2, 162048, Control_c, 0, 64, 127
2, 162240, Note_on_c, 0, 61, 110
2, 162332, Note_off_c, 0, 61, 100
2, 162336, Note_on_c, 0, 64, 110
2, 162428, Note_off_c, 0, 64, 100
2, 162432, Note_on_c, 0, 69, 110
2, 162524, Note_off_c, 0, 69, 100
2, 162528, Note_on_c, 0, 73, 110
2, 162620, Note_off_c, 0, 73, 100
2, 162620, Control_c, 0, 64, 0
2, 162624, Control_c, 0, 64, 127
2, 162816, Note_on_c, 0, 50, 110
2, 162908, Note_off_c, 0, 50, 100
2, 162912, Note_on_c, 0, 54, 110
2, 163004, Note_off_c, 0, 54, 100
2, 163008, Note_on_c, 0, 57, 110
2, 163100, Note_off_c, 0, 57, 100
2, 163104, Note_on_c, 0, 62, 110
2, 163196, Note_off_c, 0, 62, 100
2, 163196, Control_c, 0, 64, 0
2, 163200, Control_c, 0, 64, 127
2, 163392, Note_on_c, 0, 62, 110
2, 163484, Note_off_c, 0, 62, 100
2, 163488, Note_on_c, 0, 68, 110
2, 163580, Note_off_c, 0, 68, 100
2, 163584, Note_on_c, 0, 71, 110
2, 163676, Note_off_c, 0, 71, 100
2, 163680, Note_on_c, 0, 74, 110
2, 163772, Note_off_c, 0, 74, 100
2, 163772, Control_c, 0, 64, 0
2, 163776, Control_c, 0, 64, 127
2, 163968, Note_on_c, 0, 61, 110
2, 164060, Note_off_c, 0, 61, 100
2, 164064, Note_on_c, 0, 64, 110
2, 164156, Note_off_c, 0, 64, 100
2, 164160, Note_on_c, 0, 69, 110
2, 164252, Note_off_c, 0, 69, 100
2, 164256, Note_on_c, 0, 73, 110
2, 164348, Note_off_c, 0, 73, 100
2, 164348, Control_c, 0, 64, 0
2, 164352, Control_c, 0, 64, 127
2, 164544, Note_on_c, 0, 57, 110
2, 164636, Note_off_c, 0, 57, 100
2, 164640, Note_on_c, 0, 61, 110
2, 164732, Note_off_c, 0, 61, 100
2, 164736, Note_on_c, 0, 64, 110
2, 164828, Note_off_c, 0, 64, 100
2, 164832, Note_on_c, 0, 69, 110
2, 164924, Note_off_c, 0, 69, 100
2, 164924, Control_c, 0, 64, 0
2, 164928, Control_c, 0, 64, 127
2, 165120, Note_on_c, 0, 52, 110
2, 165212, Note_off_c, 0, 52, 100
2, 165216, Note_on_c, 0, 57, 110
2, 165308, Note_off_c, 0, 57, 100
2, 165312, Note_on_c, 0, 61, 110
2, 165404, Note_off_c, 0, 61, 100
2, 165408, Note_on_c, 0, 64, 110
2, 165500, Note_off_c, 0, 64, 100
2, 165500, Control_c, 0, 64, 0
2, 165504, Control_c, 0, 64, 127
2, 165696, Note_on_c, 0, 49, 110
2, 165788, Note_off_c, 0, 49, 100
2, 165792, Note_on_c, 0, 52, 110
2, 165884, Note_off_c, 0, 52, 100
2, 165888, Note_on_c, 0, 57, 110
2, 165980, Note_off_c, 0, 57, 100
2, 165984, Note_on_c, 0, 61, 110
2, 166076, Note_off_c, 0, 61, 100
2, 166076, Control_c, 0, 64, 0
2, 167040, Note_on_c, 0, 78, 80
2, 167228, Note_off_c, 0, 78, 100
2, 167232, Note_on_c, 0, 74, 80
2, 167612, Note_off_c, 0, 74, 100
2, 167616, Note_on_c, 0, 81, 80
2, 167804, Note_off_c, 0, 81, 100
2, 167808, Note_on_c, 0, 78, 80
2, 168188, Note_off_c, 0, 78, 100
2, 168192, Note_on_c, 0, 66, 80
2, 168192, Note_on_c, 0, 74, 80
2, 168380, Note_off_c, 0, 66, 100
2, 168380, Note_off_c, 0, 74, 100
2, 168384, Note_on_c, 0, 62, 80
2, 168384, Note_on_c, 0, 69, 80
2, 168764, Note_off_c, 0, 62, 100
2, 168764, Note_off_c, 0, 69, 100
2, 168768, Note_on_c, 0, 69, 80
2, 168768, Note_on_c, 0, 78, 80
2, 168956, Note_off_c, 0, 69, 100
2, 168956, Note_off_c, 0, 78, 100
2, 168960, Note_on_c, 0, 74, 80
2, 168960, Note_on_c, 0, 66, 80
2, 169340, Note_off_c, 0, 74, 100
2, 169340, Note_off_c, 0, 66, 100
2, 169344, Note_on_c, 0, 62, 80
2, 169344, Note_on_c, 0, 69, 80
2, 169532, Note_off_c, 0, 62, 100
2, 169536, Note_on_c, 0, 66, 80
2, 169916, Note_off_c, 0, 66, 100
2, 169920, Note_on_c, 0, 62, 80
2, 170108, Note_off_c, 0, 62, 100
2, 170112, Note_on_c, 0, 57, 80
2, 170492, Note_off_c, 0, 69, 100
2, 170492, Note_off_c, 0, 57, 100
2, 170496, Note_on_c, 0, 69, 80
2, 170496, Note_on_c, 0, 62, 80
2, 170496, Note_on_c, 0, 66, 80
2, 170684, Note_off_c, 0, 62, 100
2, 170684, Note_off_c, 0, 66, 100
2, 170688, Note_on_c, 0, 64, 80
2, 170688, Note_on_c, 0, 61, 80
2, 171068, Note_off_c, 0, 64, 100
2, 171068, Note_off_c, 0, 61, 100
2, 171072, Note_on_c, 0, 67, 80
2, 171072, Note_on_c, 0, 64, 80
2, 171260, Note_off_c, 0, 67, 100
2, 171260, Note_off_c, 0, 64, 100
2, 171264, Note_on_c, 0, 69, 80
2, 171264, Note_on_c, 0, 66, 80
2, 171264, Note_on_c, 0, 62, 80
2, 171452, Note_off_c, 0, 69, 100
2, 171452, Note_off_c, 0, 69, 100
2, 171452, Note_off_c, 0, 66, 100
2, 171452, Note_off_c, 0, 62, 100
2, 171552, Note_on_c, 0, 78, 80
2, 171644, Note_off_c, 0, 78, 100
2, 171648, Note_on_c, 0, 77, 80
2, 171740, Note_off_c, 0, 77, 100
2, 171744, Note_on_c, 0, 78, 80
2, 171836, Note_off_c, 0, 78, 100
2, 171840, Note_on_c, 0, 74, 80
2, 172028, Note_off_c, 0, 74, 100
2, 172128, Note_on_c, 0, 81, 80
2, 172220, Note_off_c, 0, 81, 100
2, 172224, Note_on_c, 0, 80, 80
2, 172316, Note_off_c, 0, 80, 100
2, 172320, Note_on_c, 0, 81, 80
2, 172412, Note_off_c, 0, 81, 100
2, 172416, Note_on_c, 0, 78, 80
2, 172604, Note_off_c, 0, 78, 100
2, 172704, Note_on_c, 0, 66, 80
2, 172796, Note_off_c, 0, 66, 100
2, 172800, Note_on_c, 0, 74, 80
2, 172800, Note_on_c, 0, 65, 80
2, 172892, Note_off_c, 0, 65, 100
2, 172896, Note_on_c, 0, 66, 80
2, 172988, Note_off_c, 0, 74, 100
2, 172988, Note_off_c, 0, 66, 100
2, 172992, Note_on_c, 0, 62, 80
2, 172992, Note_on_c, 0, 69, 80
2, 173180, Note_off_c, 0, 62, 100
2, 173180, Note_off_c, 0, 69, 100
2, 173280, Note_on_c, 0, 69, 80
2, 173372, Note_off_c, 0, 69, 100
2, 173376, Note_on_c, 0, 78, 80
2, 173376, Note_on_c, 0, 68, 80
2, 173468, Note_off_c, 0, 68, 100
2, 173472, Note_on_c, 0, 69, 80
2, 173564, Note_off_c, 0, 78, 100
2, 173564, Note_off_c, 0, 69, 100
2, 173568, Note_on_c, 0, 74, 80
2, 173568, Note_on_c, 0, 66, 80
2, 173756, Note_off_c, 0, 74, 100
2, 173756, Note_off_c, 0, 66, 100
2, 173952, Note_on_c, 0, 62, 80
2, 173952, Note_on_c, 0, 69, 80
2, 174140, Note_off_c, 0, 62, 100
2, 174140, Note_off_c, 0, 69, 100
2, 174144, Note_on_c, 0, 69, 80
2, 174528, Note_on_c, 0, 62, 80
2, 174716, Note_off_c, 0, 62, 100
2, 174720, Note_on_c, 0, 57, 80
2, 175100, Note_off_c, 0, 69, 100
2, 175100, Note_off_c, 0, 57, 100
2, 175104, Note_on_c, 0, 66, 80
2, 175104, Note_on_c, 0, 62, 80
2, 175104, Note_on_c, 0, 69, 80
2, 175292, Note_off_c, 0, 66, 100
2, 175292, Note_off_c, 0, 62, 100
2, 175680, Note_on_c, 0, 67, 80
2, 175680, Note_on_c, 0, 64, 80
2, 175868, Note_off_c, 0, 67, 100
2, 175868, Note_off_c, 0, 64, 100
2, 175872, Note_on_c, 0, 66, 80
2, 175872, Note_on_c, 0, 62, 80
2, 176252, Note_off_c, 0, 69, 100
2, 176252, Note_off_c, 0, 66, 100
2, 176252, Note_off_c, 0, 62, 100
2, 176256, Note_on_c, 0, 74, 92
2, 176256, Note_on_c, 0, 69, 92
2, 176256, Note_on_c, 0, 66, 92
2, 176444, Note_off_c, 0, 74, 100
2, 176444, Note_off_c, 0, 69, 100
2, 176444, Note_off_c, 0, 66, 100
2, 176448, Note_on_c, 0, 73, 80
2, 176448, Note_on_c, 0, 69, 80
2, 176448, Note_on_c, 0, 64, 80
2, 176828, Note_off_c, 0, 73, 100
2, 176828, Note_off_c, 0, 69, 100
2, 176828, Note_off_c, 0, 64, 100
2, 176832, Note_on_c, 0, 76, 80
2, 176832, Note_on_c, 0, 69, 80
2, 176832, Note_on_c, 0, 67, 80
2, 177020, Note_off_c, 0, 76, 100
2, 177020, Note_off_c, 0, 69, 100
2, 177020, Note_off_c, 0, 67, 100
2, 177024, Note_on_c, 0, 74, 80
2, 177024, Note_on_c, 0, 69, 80
2, 177024, Note_on_c, 0, 66, 80
2, 177404, Note_off_c, 0, 74, 100
2, 177404, Note_off_c, 0, 69, 100
2, 177404, Note_off_c, 0, 66, 100
2, 177408, Note_on_c, 0, 66, 80
2, 177408, Note_on_c, 0, 62, 80
2, 177408, Note_on_c, 0, 69, 80
2, 177596, Note_off_c, 0, 66, 100
2, 177596, Note_off_c, 0, 62, 100
2, 177984, Note_on_c, 0, 67, 80
2, 177984, Note_on_c, 0, 64, 80
2, 178172, Note_off_c, 0, 67, 100
2, 178172, Note_off_c, 0, 64, 100
2, 178176, Note_on_c, 0, 66, 81
2, 178176, Note_on_c, 0, 62, 81
2, 178556, Note_off_c, 0, 69, 100
2, 178556, Note_off_c, 0, 66, 100
2, 178556, Note_off_c, 0, 62, 100
2, 178560, Note_on_c, 0, 74, 96
2, 178560, Note_on_c, 0, 69, 96
2, 178560, Note_on_c, 0, 66, 96
2, 178748, Note_off_c, 0, 74, 100
2, 178748, Note_off_c, 0, 69, 100
2, 178748, Note_off_c, 0, 66, 100
2, 178752, Note_on_c, 0, 73, 85
2, 178752, Note_on_c, 0, 69, 85
2, 178752, Note_on_c, 0, 64, 85
2, 179132, Note_off_c, 0, 73, 100
2, 179132, Note_off_c, 0, 69, 100
2, 179132, Note_off_c, 0, 64, 100
2, 179136, Note_on_c, 0, 76, 88
2, 179136, Note_on_c, 0, 69, 88
2, 179136, Note_on_c, 0, 67, 88
2, 179324, Note_off_c, 0, 76, 100
2, 179324, Note_off_c, 0, 69, 100
2, 179324, Note_off_c, 0, 67, 100
2, 179328, Note_on_c, 0, 74, 89
2, 179328, Note_on_c, 0, 69, 89
2, 179328, Note_on_c, 0, 66, 89
2, 179708, Note_off_c, 0, 74, 100
2, 179708, Note_off_c, 0, 69, 100
2, 179708, Note_off_c, 0, 66, 100
2, 179712, Note_on_c, 0, 78, 104
2, 179712, Note_on_c, 0, 74, 104
2, 179712, Note_on_c, 0, 69, 104
2, 179900, Note_off_c, 0, 78, 100
2, 179900, Note_off_c, 0, 74, 100
2, 179900, Note_off_c, 0, 69, 100
2, 179904, Note_on_c, 0, 76, 94
2, 179904, Note_on_c, 0, 73, 94
2, 179904, Note_on_c, 0, 69, 94
2, 180284, Note_off_c, 0, 76, 100
2, 180284, Note_off_c, 0, 73, 100
2, 180284, Note_off_c, 0, 69, 100
2, 180288, Note_on_c, 0, 79, 97
2, 180288, Note_on_c, 0, 76, 97
2, 180288, Note_on_c, 0, 69, 97
2, 180476, Note_off_c, 0, 79, 100
2, 180476, Note_off_c, 0, 76, 100
2, 180476, Note_off_c, 0, 69, 100
2, 180480, Note_on_c, 0, 78, 98
2, 180480, Note_on_c, 0, 74, 98
2, 180480, Note_on_c, 0, 69, 98
2, 180860, Note_off_c, 0, 78, 100
2, 180860, Note_off_c, 0, 74, 100
2, 180860, Note_off_c, 0, 69, 100
2, 180864, Note_on_c, 0, 86, 110
2, 180864, Note_on_c, 0, 81, 110
2, 180864, Note_on_c, 0, 78, 110
2, 181052, Note_off_c, 0, 86, 100
2, 181052, Note_off_c, 0, 81, 100
2, 181052, Note_off_c, 0, 78, 100
2, 181056, Note_on_c, 0, 85, 102
2, 181056, Note_on_c, 0, 81, 102
2, 181056, Note_on_c, 0, 76, 102
2, 181436, Note_off_c, 0, 85, 100
2, 181436, Note_off_c, 0, 81, 100
2, 181436, Note_off_c, 0, 76, 100
2, 181440, Note_on_c, 0, 88, 105
2, 181440, Note_on_c, 0, 81, 105
2, 181440, Note_on_c, 0, 79, 105
2, 181628, Note_off_c, 0, 88, 100
2, 181628, Note_off_c, 0, 81, 100
2, 181628, Note_off_c, 0, 79, 100
2, 181632, Note_on_c, 0, 86, 107
2, 181632, Note_on_c, 0, 81, 107
2, 181632, Note_on_c, 0, 78, 107
2, 182012, Note_off_c, 0, 86, 100
2, 182012, Note_off_c, 0, 81, 100
2, 182012, Note_off_c, 0, 78, 100
2, 182016, Note_on_c, 0, 87, 109
2, 182016, Note_on_c, 0, 81, 109
2, 182016, Note_on_c, 0, 78, 109
2, 182204, Note_off_c, 0, 87, 100
2, 182204, Note_off_c, 0, 81, 100
2, 182204, Note_off_c, 0, 78, 100
2, 182208, Note_on_c, 0, 88, 110
2, 182208, Note_on_c, 0, 83, 110
2, 182208, Note_on_c, 0, 79, 110
2, 183356, Note_off_c, 0, 88, 100
2, 183356, Note_off_c, 0, 83, 100
2, 183356, Note_off_c, 0, 79, 100
2, 183360, Note_on_c, 0, 79, 110
2, 183360, Note_on_c, 0, 85, 110
2, 183408, Note_on_c, 0, 86, 110
2, 183452, Note_off_c, 0, 85, 100
2, 183456, Note_on_c, 0, 85, 110
2, 183500, Note_off_c, 0, 86, 100
2, 183504, Note_on_c, 0, 86, 110
2, 183548, Note_off_c, 0, 85, 100
2, 183552, Note_on_c, 0, 85, 110
2, 183596, Note_off_c, 0, 86, 100
2, 183600, Note_on_c, 0, 86, 110
2, 183644, Note_off_c, 0, 85, 100
2, 183648, Note_on_c, 0, 85, 110
2, 183692, Note_off_c, 0, 86, 100
2, 183696, Note_on_c, 0, 86, 110
2, 183740, Note_off_c, 0, 85, 100
2, 183744, Note_on_c, 0, 85, 110
2, 183788, Note_off_c, 0, 86, 100
2, 183792, Note_on_c, 0, 86, 110
2, 183836, Note_off_c, 0, 85, 100
2, 183840, Note_on_c, 0, 85, 110
2, 183884, Note_off_c, 0, 86, 100
2, 183888, Note_on_c, 0, 86, 110
2, 183932, Note_off_c, 0, 85, 100
2, 183936, Note_on_c, 0, 85, 110
2, 183980, Note_off_c, 0, 86, 100
2, 183984, Note_on_c, 0, 86, 110
2, 184028, Note_off_c, 0, 85, 100
2, 184032, Note_on_c, 0, 85, 110
2, 184076, Note_off_c, 0, 86, 100
2, 184080, Note_on_c, 0, 86, 110
2, 184124, Note_off_c, 0, 85, 100
2, 184128, Note_on_c, 0, 85, 110
2, 184172, Note_off_c, 0, 86, 100
2, 184176, Note_on_c, 0, 86, 110
2, 184220, Note_off_c, 0, 85, 100
2, 184224, Note_on_c, 0, 85, 110
2, 184268, Note_off_c, 0, 86, 100
2, 184272, Note_on_c, 0, 86, 110
2, 184316, Note_off_c, 0, 85, 100
2, 184320, Note_on_c, 0, 85, 110
2, 184364, Note_off_c, 0, 86, 100
2, 184368, Note_on_c, 0, 86, 110
2, 184412, Note_off_c, 0, 85, 100
2, 184416, Note_on_c, 0, 83, 110
2, 184460, Note_off_c, 0, 86, 100
2, 184464, Note_on_c, 0, 85, 110
2, 184508, Note_off_c, 0, 79, 100
2, 184508, Note_off_c, 0, 83, 100
2, 184512, Note_on_c, 0, 74, 110
2, 184608, Note_on_c, 0, 78, 110
2, 184704, Note_on_c, 0, 81, 110
2, 184748, Note_off_c, 0, 85, 64
2, 184796, Note_off_c, 0, 74, 100
2, 184800, Note_on_c, 0, 86, 110
2, 184892, Note_off_c, 0, 78, 100
2, 184896, Note_on_c, 0, 74, 110
2, 184978, Note_off_c, 0, 86, 100
2, 184988, Note_off_c, 0, 81, 100
2, 184992, Note_on_c, 0, 86, 110
2, 185088, Note_on_c, 0, 73, 110
2, 185180, Note_off_c, 0, 74, 100
2, 185184, Note_on_c, 0, 85, 110
2, 185276, Note_off_c, 0, 86, 100
2, 185280, Note_on_c, 0, 71, 110
2, 185372, Note_off_c, 0, 73, 100
2, 185376, Note_on_c, 0, 83, 110
2, 185468, Note_off_c, 0, 85, 100
2, 185472, Note_on_c, 0, 69, 110
2, 185564, Note_off_c, 0, 71, 100
2, 185568, Note_on_c, 0, 81, 110
2, 185660, Note_off_c, 0, 83, 100
2, 185664, Note_on_c, 0, 71, 110
2, 185756, Note_off_c, 0, 69, 100
2, 185760, Note_on_c, 0, 83, 110
2, 185852, Note_off_c, 0, 81, 100
2, 185856, Note_on_c, 0, 69, 110
2, 185948, Note_off_c, 0, 71, 100
2, 185952, Note_on_c, 0, 81, 110
2, 186044, Note_off_c, 0, 83, 100
2, 186048, Note_on_c, 0, 67, 110
2, 186140, Note_off_c, 0, 69, 100
2, 186144, Note_on_c, 0, 79, 110
2, 186236, Note_off_c, 0, 81, 100
2, 186240, Note_on_c, 0, 66, 110
2, 186332, Note_off_c, 0, 67, 100
2, 186336, Note_on_c, 0, 78, 110
2, 186428, Note_off_c, 0, 79, 100
2, 186432, Note_on_c, 0, 67, 110
2, 186524, Note_off_c, 0, 66, 100
2, 186528, Note_on_c, 0, 79, 110
2, 186620, Note_off_c, 0, 78, 100
2, 186624, Note_on_c, 0, 69, 110
2, 186716, Note_off_c, 0, 67, 100
2, 186720, Note_on_c, 0, 81, 110
2, 186812, Note_off_c, 0, 79, 100
2, 186816, Note_on_c, 0, 74, 110
2, 186908, Note_off_c, 0, 69, 100
2, 186912, Note_on_c, 0, 78, 110
2, 187004, Note_off_c, 0, 81, 100
2, 187008, Note_on_c, 0, 81, 110
2, 187100, Note_off_c, 0, 74, 100
2, 187104, Note_on_c, 0, 86, 110
2, 187196, Note_off_c, 0, 78, 100
2, 187200, Note_on_c, 0, 74, 110
2, 187284, Note_off_c, 0, 86, 100
2, 187292, Note_off_c, 0, 81, 100
2, 187296, Note_on_c, 0, 86, 110
2, 187392, Note_on_c, 0, 73, 110
2, 187484, Note_off_c, 0, 74, 100
2, 187488, Note_on_c, 0, 85, 110
2, 187580, Note_off_c, 0, 86, 100
2, 187584, Note_on_c, 0, 71, 110
2, 187676, Note_off_c, 0, 73, 100
2, 187680, Note_on_c, 0, 83, 110
2, 187772, Note_off_c, 0, 85, 100
2, 187776, Note_on_c, 0, 69, 110
2, 187868, Note_off_c, 0, 71, 100
2, 187872, Note_on_c, 0, 81, 110
2, 187964, Note_off_c, 0, 83, 100
2, 187968, Note_on_c, 0, 71, 110
2, 188060, Note_off_c, 0, 69, 100
2, 188064, Note_on_c, 0, 83, 110
2, 188156, Note_off_c, 0, 81, 100
2, 188160, Note_on_c, 0, 69, 110
2, 188252, Note_off_c, 0, 71, 100
2, 188256, Note_on_c, 0, 81, 110
2, 188348, Note_off_c, 0, 83, 100
2, 188352, Note_on_c, 0, 67, 110
2, 188444, Note_off_c, 0, 69, 100
2, 188448, Note_on_c, 0, 79, 110
2, 188540, Note_off_c, 0, 81, 100
2, 188544, Note_on_c, 0, 66, 110
2, 188636, Note_off_c, 0, 67, 100
2, 188640, Note_on_c, 0, 78, 110
2, 188732, Note_off_c, 0, 79, 100
2, 188736, Note_on_c, 0, 67, 110
2, 188828, Note_off_c, 0, 66, 100
2, 188832, Note_on_c, 0, 79, 110
2, 188924, Note_off_c, 0, 78, 100
2, 188928, Note_on_c, 0, 69, 110
2, 189020, Note_off_c, 0, 67, 100
2, 189024, Note_on_c, 0, 81, 110
2, 189116, Note_off_c, 0, 79, 100
2, 189120, Note_on_c, 0, 74, 110
2, 189212, Note_off_c, 0, 69, 100
2, 189216, Note_on_c, 0, 78, 110
2, 189308, Note_off_c, 0, 81, 100
2, 189312, Note_on_c, 0, 81, 110
2, 189404, Note_off_c, 0, 74, 100
2, 189408, Note_on_c, 0, 86, 110
2, 189500, Note_off_c, 0, 78, 100
2, 189504, Note_on_c, 0, 74, 110
2, 189594, Note_off_c, 0, 86, 100
2, 189596, Note_off_c, 0, 81, 100
2, 189600, Note_on_c, 0, 86, 110
2, 189696, Note_on_c, 0, 72, 110
2, 189788, Note_off_c, 0, 74, 100
2, 189792, Note_on_c, 0, 84, 110
2, 189884, Note_off_c, 0, 86, 100
2, 189888, Note_on_c, 0, 71, 110
2, 189980, Note_off_c, 0, 72, 100
2, 189984, Note_on_c, 0, 83, 110
2, 190076, Note_off_c, 0, 84, 100
2, 190080, Note_on_c, 0, 69, 110
2, 190172, Note_off_c, 0, 71, 100
2, 190176, Note_on_c, 0, 81, 110
2, 190268, Note_off_c, 0, 83, 100
2, 190272, Note_on_c, 0, 67, 110
2, 190364, Note_off_c, 0, 69, 100
2, 190368, Note_on_c, 0, 79, 110
2, 190460, Note_off_c, 0, 81, 100
2, 190464, Note_on_c, 0, 66, 110
2, 190556, Note_off_c, 0, 67, 100
2, 190560, Note_on_c, 0, 78, 110
2, 190652, Note_off_c, 0, 79, 100
2, 190656, Note_on_c, 0, 64, 110
2, 190748, Note_off_c, 0, 66, 100
2, 190752, Note_on_c, 0, 76, 110
2, 190844, Note_off_c, 0, 78, 100
2, 190848, Note_on_c, 0, 62, 110
2, 190940, Note_off_c, 0, 64, 100
2, 190944, Note_on_c, 0, 74, 110
2, 191036, Note_off_c, 0, 76, 100
2, 191040, Note_on_c, 0, 60, 110
2, 191132, Note_off_c, 0, 62, 100
2, 191136, Note_on_c, 0, 72, 110
2, 191228, Note_off_c, 0, 74, 100
2, 191232, Note_on_c, 0, 59, 110
2, 191324, Note_off_c, 0, 60, 100
2, 191328, Note_on_c, 0, 71, 110
2, 191418, Note_off_c, 0, 59, 100
2, 191420, Note_off_c, 0, 72, 100
2, 191420, Note_off_c, 0, 71, 100
2, 191424, Note_on_c, 0, 72, 110
2, 191424, Note_on_c, 0, 60, 110
2, 191804, Note_off_c, 0, 72, 100
2, 191804, Note_off_c, 0, 60, 100
2, 192576, Note_on_c, 0, 73, 110
2, 192576, Note_on_c, 0, 61, 110
2, 192956, Note_off_c, 0, 73, 100
2, 192956, Note_off_c, 0, 61, 100
2, 195072, Note_on_c, 0, 74, 70
2, 195072, Note_on_c, 0, 71, 70
2, 195452, Note_off_c, 0, 74, 100
2, 195452, Note_off_c, 0, 71, 100
2, 195648, Note_on_c, 0, 72, 70
2, 195648, Note_on_c, 0, 71, 70
2, 196028, Note_off_c, 0, 72, 100
2, 196028, Note_off_c, 0, 71, 100
2, 196224, Note_on_c, 0, 72, 70
2, 196224, Note_on_c, 0, 69, 70
2, 196604, Note_off_c, 0, 72, 100
2, 196604, Note_off_c, 0, 69, 100
2, 196800, Note_on_c, 0, 71, 70
2, 196800, Note_on_c, 0, 67, 70
2, 197180, Note_off_c, 0, 71, 100
2, 197180, Note_off_c, 0, 67, 100
2, 197376, Note_on_c, 0, 79, 70
2, 197376, Note_on_c, 0, 83, 70
2, 197756, Note_off_c, 0, 79, 100
2, 197756, Note_off_c, 0, 83, 100
2, 197952, Note_on_c, 0, 79, 70
2, 197952, Note_on_c, 0, 81, 70
2, 198332, Note_off_c, 0, 79, 100
2, 198332, Note_off_c, 0, 81, 100
2, 198528, Note_on_c, 0, 78, 70
2, 198528, Note_on_c, 0, 81, 70
2, 198908, Note_off_c, 0, 78, 100
2, 198908, Note_off_c, 0, 81, 100
2, 199104, Note_on_c, 0, 79, 70
2, 199484, Note_off_c, 0, 79, 100
2, 199680, Note_on_c, 0, 74, 70
2, 199680, Note_on_c, 0, 71, 70
2, 200060, Note_off_c, 0, 74, 100
2, 200060, Note_off_c, 0, 71, 100
2, 200256, Note_on_c, 0, 72, 70
2, 200256, Note_on_c, 0, 71, 70
2, 200636, Note_off_c, 0, 72, 100
2, 200636, Note_off_c, 0, 71, 100
2, 200832, Note_on_c, 0, 72, 70
2, 200832, Note_on_c, 0, 69, 70
2, 201212, Note_off_c, 0, 72, 100
2, 201212, Note_off_c, 0, 69, 100
2, 201408, Note_on_c, 0, 71, 70
2, 201408, Note_on_c, 0, 67, 70
2, 201788, Note_off_c, 0, 71, 100
2, 201788, Note_off_c, 0, 67, 100
2, 201984, Note_on_c, 0, 71, 70
2, 201984, Note_on_c, 0, 65, 70
2, 201984, Note_on_c, 0, 62, 70
2, 202364, Note_off_c, 0, 71, 100
2, 202364, Note_off_c, 0, 65, 100
2, 202364, Note_off_c, 0, 62, 100
2, 202560, Note_on_c, 0, 69, 73
2, 202560, Note_on_c, 0, 65, 73
2, 202560, Note_on_c, 0, 62, 73
2, 202940, Note_off_c, 0, 69, 100
2, 202940, Note_off_c, 0, 65, 100
2, 202940, Note_off_c, 0, 62, 100
2, 203136, Note_on_c, 0, 68, 76
2, 203136, Note_on_c, 0, 65, 76
2, 203136, Note_on_c, 0, 62, 76
2, 203516, Note_off_c, 0, 68, 100
2, 203516, Note_off_c, 0, 65, 100
2, 203516, Note_off_c, 0, 62, 100
2, 203712, Note_on_c, 0, 68, 79
2, 203712, Note_on_c, 0, 62, 79
2, 204092, Note_off_c, 0, 68, 100
2, 204092, Note_off_c, 0, 62, 100
2, 204096, Note_on_c, 0, 69, 80
2, 204096, Note_on_c, 0, 61, 80
2, 204476, Note_off_c, 0, 69, 100
2, 204476, Note_off_c, 0, 61, 100
2, 204480, Note_on_c, 0, 69, 81
2, 204480, Note_on_c, 0, 61, 81
2, 204668, Note_off_c, 0, 69, 100
2, 204668, Note_off_c, 0, 61, 100
2, 204672, Note_on_c, 0, 66, 82
2, 204672, Note_on_c, 0, 62, 82
2, 205052, Note_off_c, 0, 66, 100
2, 205052, Note_off_c, 0, 62, 100
2, 205056, Note_on_c, 0, 71, 84
2, 205056, Note_on_c, 0, 63, 84
2, 205244, Note_off_c, 0, 71, 100
2, 205244, Note_off_c, 0, 63, 100
2, 205248, Note_on_c, 0, 67, 85
2, 205248, Note_on_c, 0, 64, 85
2, 205628, Note_off_c, 0, 67, 100
2, 205628, Note_off_c, 0, 64, 100
2, 205632, Note_on_c, 0, 73, 86
2, 205632, Note_on_c, 0, 65, 86
2, 205820, Note_off_c, 0, 73, 100
2, 205820, Note_off_c, 0, 65, 100
2, 205824, Note_on_c, 0, 69, 87
2, 205824, Note_on_c, 0, 66, 87
2, 206204, Note_off_c, 0, 69, 100
2, 206204, Note_off_c, 0, 66, 100
2, 206208, Note_on_c, 0, 74, 89
2, 206208, Note_on_c, 0, 66, 89
2, 206396, Note_off_c, 0, 74, 100
2, 206396, Note_off_c, 0, 66, 100
2, 206400, Note_on_c, 0, 71, 90
2, 206400, Note_on_c, 0, 67, 90
2, 206780, Note_off_c, 0, 71, 100
2, 206780, Note_off_c, 0, 67, 100
2, 206784, Note_on_c, 0, 76, 91
2, 206784, Note_on_c, 0, 68, 91
2, 206972, Note_off_c, 0, 76, 100
2, 206972, Note_off_c, 0, 68, 100
2, 206976, Note_on_c, 0, 73, 92
2, 206976, Note_on_c, 0, 69, 92
2, 207356, Note_off_c, 0, 73, 100
2, 207356, Note_off_c, 0, 69, 100
2, 207360, Note_on_c, 0, 70, 94
2, 207360, Note_on_c, 0, 78, 94
2, 207548, Note_off_c, 0, 70, 100
2, 207548, Note_off_c, 0, 78, 100
2, 207552, Note_on_c, 0, 74, 95
2, 207552, Note_on_c, 0, 71, 95
2, 207932, Note_off_c, 0, 74, 100
2, 207932, Note_off_c, 0, 71, 100
2, 207936, Note_on_c, 0, 79, 97
2, 207936, Note_on_c, 0, 71, 97
2, 208124, Note_off_c, 0, 79, 100
2, 208124, Note_off_c, 0, 71, 100
2, 208128, Note_on_c, 0, 76, 97
2, 208128, Note_on_c, 0, 72, 97
2, 208508, Note_off_c, 0, 76, 100
2, 208508, Note_off_c, 0, 72, 100
2, 208512, Note_on_c, 0, 81, 99
2, 208512, Note_on_c, 0, 73, 99
2, 208700, Note_off_c, 0, 81, 100
2, 208700, Note_off_c, 0, 73, 100
2, 208704, Note_on_c, 0, 74, 100
2, 208704, Note_on_c, 0, 78, 100
2, 209084, Note_off_c, 0, 74, 100
2, 209084, Note_off_c, 0, 78, 100
2, 209088, Note_on_c, 0, 79, 102
2, 209088, Note_on_c, 0, 71, 102
2, 209276, Note_off_c, 0, 79, 100
2, 209276, Note_off_c, 0, 71, 100
2, 209280, Note_on_c, 0, 76, 103
2, 209280, Note_on_c, 0, 72, 103
2, 209660, Note_off_c, 0, 76, 100
2, 209660, Note_off_c, 0, 72, 100
2, 209664, Note_on_c, 0, 81, 104
2, 209664, Note_on_c, 0, 73, 104
2, 209852, Note_off_c, 0, 81, 100
2, 209852, Note_off_c, 0, 73, 100
2, 209856, Note_on_c, 0, 74, 105
2, 209856, Note_on_c, 0, 78, 105
2, 210236, Note_off_c, 0, 74, 100
2, 210236, Note_off_c, 0, 78, 100
2, 210240, Note_on_c, 0, 79, 107
2, 210240, Note_on_c, 0, 71, 107
2, 210428, Note_off_c, 0, 79, 100
2, 210428, Note_off_c, 0, 71, 100
2, 210432, Note_on_c, 0, 76, 108
2, 210432, Note_on_c, 0, 72, 108
2, 210812, Note_off_c, 0, 76, 100
2, 210812, Note_off_c, 0, 72, 100
2, 210816, Note_on_c, 0, 81, 109
2, 210816, Note_on_c, 0, 73, 109
2, 211004, Note_off_c, 0, 81, 100
2, 211004, Note_off_c, 0, 73, 100
2, 211008, Note_on_c, 0, 78, 110
2, 211008, Note_on_c, 0, 74, 110
2, 211196, Note_off_c, 0, 78, 100
2, 211196, Note_off_c, 0, 74, 100
2, 211200, Note_on_c, 0, 79, 110
2, 211200, Note_on_c, 0, 71, 110
2, 211388, Note_off_c, 0, 79, 100
2, 211388, Note_off_c, 0, 71, 100
2, 211392, Note_on_c, 0, 76, 110
2, 211392, Note_on_c, 0, 73, 110
2, 211580, Note_off_c, 0, 76, 100
2, 211580, Note_off_c, 0, 73, 100
2, 211584, Note_on_c, 0, 78, 110
2, 211584, Note_on_c, 0, 69, 110
2, 211772, Note_off_c, 0, 78, 100
2, 211772, Note_off_c, 0, 69, 100
2, 211776, Note_on_c, 0, 74, 110
2, 211776, Note_on_c, 0, 71, 110
2, 211964, Note_off_c, 0, 74, 100
2, 211964, Note_off_c, 0, 71, 100
2, 211968, Note_on_c, 0, 76, 110
2, 211968, Note_on_c, 0, 67, 110
2, 212156, Note_off_c, 0, 76, 100
2, 212156, Note_off_c, 0, 67, 100
2, 212160, Note_on_c, 0, 73, 110
2, 212160, Note_on_c, 0, 69, 110
2, 212348, Note_off_c, 0, 73, 100
2, 212348, Note_off_c, 0, 69, 100
2, 212352, Note_on_c, 0, 74, 110
2, 212352, Note_on_c, 0, 66, 110
2, 212540, Note_off_c, 0, 74, 100
2, 212540, Note_off_c, 0, 66, 100
2, 212544, Note_on_c, 0, 71, 110
2, 212544, Note_on_c, 0, 67, 110
2, 212732, Note_off_c, 0, 71, 100
2, 212732, Note_off_c, 0, 67, 100
2, 212736, Note_on_c, 0, 73, 110
2, 212736, Note_on_c, 0, 64, 110
2, 212924, Note_off_c, 0, 73, 100
2, 212924, Note_off_c, 0, 64, 100
2, 212928, Note_on_c, 0, 69, 110
2, 212928, Note_on_c, 0, 66, 110
2, 213116, Note_off_c, 0, 69, 100
2, 213116, Note_off_c, 0, 66, 100
2, 213120, Note_on_c, 0, 62, 110
2, 213120, Note_on_c, 0, 71, 110
2, 213308, Note_off_c, 0, 62, 100
2, 213308, Note_off_c, 0, 71, 100
2, 213312, Note_on_c, 0, 67, 110
2, 213312, Note_on_c, 0, 64, 110
2, 213500, Note_off_c, 0, 67, 100
2, 213500, Note_off_c, 0, 64, 100
2, 213504, Note_on_c, 0, 69, 110
2, 213504, Note_on_c, 0, 61, 110
2, 213692, Note_off_c, 0, 69, 100
2, 213692, Note_off_c, 0, 61, 100
2, 213696, Note_on_c, 0, 66, 110
2, 213696, Note_on_c, 0, 62, 110
2, 213884, Note_off_c, 0, 66, 100
2, 213884, Note_off_c, 0, 62, 100
2, 213888, Note_on_c, 0, 67, 110
2, 213888, Note_on_c, 0, 59, 110
2, 214076, Note_off_c, 0, 67, 100
2, 214076, Note_off_c, 0, 59, 100
2, 214080, Note_on_c, 0, 64, 110
2, 214080, Note_on_c, 0, 61, 110
2, 214268, Note_off_c, 0, 64, 100
2, 214268, Note_off_c, 0, 61, 100
2, 214272, Note_on_c, 0, 66, 110
2, 214272, Note_on_c, 0, 57, 110
2, 214460, Note_off_c, 0, 66, 100
2, 214460, Note_off_c, 0, 57, 100
2, 214464, Note_on_c, 0, 62, 110
2, 214464, Note_on_c, 0, 59, 110
2, 214652, Note_off_c, 0, 62, 100
2, 214652, Note_off_c, 0, 59, 100
2, 214656, Note_on_c, 0, 64, 110
2, 214656, Note_on_c, 0, 55, 110
2, 214844, Note_off_c, 0, 64, 100
2, 214844, Note_off_c, 0, 55, 100
2, 214848, Note_on_c, 0, 61, 110
2, 214848, Note_on_c, 0, 57, 110
2, 215036, Note_off_c, 0, 61, 100
2, 215036, Note_off_c, 0, 57, 100
2, 215040, Note_on_c, 0, 62, 110
2, 215040, Note_on_c, 0, 54, 110
2, 215228, Note_off_c, 0, 62, 100
2, 215228, Note_off_c, 0, 54, 100
2, 215232, Note_on_c, 0, 59, 110
2, 215232, Note_on_c, 0, 55, 110
2, 215420, Note_off_c, 0, 59, 100
2, 215420, Note_off_c, 0, 55, 100
2, 215424, Note_on_c, 0, 52, 110
2, 215424, Note_on_c, 0, 61, 110
2, 215612, Note_off_c, 0, 52, 100
2, 215612, Note_off_c, 0, 61, 100
2, 215616, Control_c, 0, 64, 127
2, 215904, Note_on_c, 0, 45, 120
2, 216000, Note_on_c, 0, 49, 120
2, 216092, Note_off_c, 0, 45, 100
2, 216096, Note_on_c, 0, 52, 120
2, 216188, Note_off_c, 0, 49, 100
2, 216192, Note_on_c, 0, 55, 120
2, 216284, Note_off_c, 0, 52, 100
2, 216476, Note_off_c, 0, 55, 100
2, 216480, Note_on_c, 0, 57, 120
2, 216576, Note_on_c, 0, 61, 120
2, 216668, Note_off_c, 0, 57, 100
2, 216672, Note_on_c, 0, 64, 120
2, 216764, Note_off_c, 0, 61, 100
2, 216768, Note_on_c, 0, 67, 120
2, 216860, Note_off_c, 0, 64, 100
2, 217148, Note_off_c, 0, 67, 100
2, 217148, Control_c, 0, 64, 0
2, 218208, Note_on_c, 0, 57, 80
2, 218304, Note_on_c, 0, 61, 80
2, 218396, Note_off_c, 0, 57, 100
2, 218400, Note_on_c, 0, 64, 80
2, 218492, Note_off_c, 0, 61, 100
2, 218496, Note_on_c, 0, 67, 80
2, 218588, Note_off_c, 0, 64, 100
2, 218780, Note_off_c, 0, 67, 100
2, 218784, Note_on_c, 0, 69, 80
2, 218880, Note_on_c, 0, 73, 80
2, 218972, Note_off_c, 0, 69, 100
2, 218976, Note_on_c, 0, 76, 80
2, 219068, Note_off_c, 0, 73, 100
2, 219072, Note_on_c, 0, 79, 80
2, 219164, Note_off_c, 0, 76, 100
2, 219452, Note_off_c, 0, 79, 100
2, 220512, Note_on_c, 0, 69, 79
2, 220608, Note_on_c, 0, 73, 79
2, 220700, Note_off_c, 0, 69, 100
2, 220704, Note_on_c, 0, 76, 78
2, 220796, Note_off_c, 0, 73, 100
2, 220800, Note_on_c, 0, 79, 78
2, 220892, Note_off_c, 0, 76, 100
2, 221180, Note_off_c, 0, 79, 100
2, 221664, Note_on_c, 0, 69, 74
2, 221760, Note_on_c, 0, 73, 74
2, 221852, Note_off_c, 0, 69, 100
2, 221856, Note_on_c, 0, 76, 73
2, 221948, Note_off_c, 0, 73, 100
2, 221952, Note_on_c, 0, 79, 73
2, 222044, Note_off_c, 0, 76, 100
2, 223292, Note_off_c, 0, 79, 100
2, 223488, Note_on_c, 0, 79, 80
2, 223584, Note_on_c, 0, 78, 80
2, 223676, Note_off_c, 0, 79, 100
2, 223680, Note_on_c, 0, 77, 80
2, 223772, Note_off_c, 0, 78, 100
2, 223776, Note_on_c, 0, 78, 81
2, 223868, Note_off_c, 0, 77, 100
2, 223872, Note_on_c, 0, 79, 81
2, 223964, Note_off_c, 0, 78, 100
2, 223968, Note_on_c, 0, 78, 82
2, 224060, Note_off_c, 0, 79, 100
2, 224064, Note_on_c, 0, 86, 82
2, 224156, Note_off_c, 0, 78, 100
2, 224160, Note_on_c, 0, 78, 82
2, 224252, Note_off_c, 0, 86, 100
2, 224256, Note_on_c, 0, 81, 83
2, 224348, Note_off_c, 0, 78, 100
2, 224352, Note_on_c, 0, 79, 83
2, 224444, Note_off_c, 0, 81, 100
2, 224448, Note_on_c, 0, 78, 84
2, 224540, Note_off_c, 0, 79, 100
2, 224544, Note_on_c, 0, 79, 84
2, 224636, Note_off_c, 0, 78, 100
2, 224640, Note_on_c, 0, 86, 84
2, 224732, Note_off_c, 0, 79, 100
2, 224736, Note_on_c, 0, 79, 85
2, 224828, Note_off_c, 0, 86, 100
2, 224832, Note_on_c, 0, 81, 85
2, 224924, Note_off_c, 0, 79, 100
2, 224928, Note_on_c, 0, 79, 86
2, 225020, Note_off_c, 0, 81, 100
2, 225024, Note_on_c, 0, 78, 86
2, 225116, Note_off_c, 0, 79, 100
2, 225120, Note_on_c, 0, 79, 86
2, 225212, Note_off_c, 0, 78, 100
2, 225216, Note_on_c, 0, 88, 87
2, 225308, Note_off_c, 0, 79, 100
2, 225312, Note_on_c, 0, 79, 87
2, 225404, Note_off_c, 0, 88, 100
2, 225408, Note_on_c, 0, 79, 88
2, 225500, Note_off_c, 0, 79, 100
2, 225504, Note_on_c, 0, 78, 88
2, 225596, Note_off_c, 0, 79, 100
2, 225600, Note_on_c, 0, 77, 88
2, 225692, Note_off_c, 0, 78, 100
2, 225696, Note_on_c, 0, 78, 89
2, 225788, Note_off_c, 0, 77, 100
2, 225792, Note_on_c, 0, 86, 89
2, 225884, Note_off_c, 0, 78, 100
2, 225888, Note_on_c, 0, 78, 90
2, 225980, Note_off_c, 0, 86, 100
2, 225984, Note_on_c, 0, 76, 90
2, 226076, Note_off_c, 0, 78, 100
2, 226080, Note_on_c, 0, 74, 90
2, 226172, Note_off_c, 0, 76, 100
2, 226176, Note_on_c, 0, 73, 91
2, 226268, Note_off_c, 0, 74, 100
2, 226272, Note_on_c, 0, 74, 91
2, 226364, Note_off_c, 0, 73, 100
2, 226368, Note_on_c, 0, 86, 92
2, 226460, Note_off_c, 0, 74, 100
2, 226464, Note_on_c, 0, 74, 92
2, 226556, Note_off_c, 0, 86, 100
2, 226560, Note_on_c, 0, 73, 92
2, 226652, Note_off_c, 0, 74, 100
2, 226656, Note_on_c, 0, 71, 93
2, 226748, Note_off_c, 0, 73, 100
2, 226752, Note_on_c, 0, 70, 93
2, 226844, Note_off_c, 0, 71, 100
2, 226848, Note_on_c, 0, 71, 94
2, 226940, Note_off_c, 0, 70, 100
2, 226944, Note_on_c, 0, 83, 94
2, 227036, Note_off_c, 0, 71, 100
2, 227040, Note_on_c, 0, 71, 94
2, 227132, Note_off_c, 0, 83, 100
2, 227136, Note_on_c, 0, 69, 95
2, 227228, Note_off_c, 0, 71, 100
2, 227232, Note_on_c, 0, 67, 95
2, 227324, Note_off_c, 0, 69, 100
2, 227328, Note_on_c, 0, 66, 96
2, 227420, Note_off_c, 0, 67, 100
2, 227424, Note_on_c, 0, 67, 96
2, 227516, Note_off_c, 0, 66, 100
2, 227520, Note_on_c, 0, 79, 97
2, 227612, Note_off_c, 0, 67, 100
2, 227616, Note_on_c, 0, 67, 97
2, 227708, Note_off_c, 0, 79, 100
2, 227712, Note_on_c, 0, 66, 97
2, 227804, Note_off_c, 0, 67, 100
2, 227808, Note_on_c, 0, 69, 98
2, 227900, Note_off_c, 0, 66, 100
2, 227904, Note_on_c, 0, 74, 98
2, 227996, Note_off_c, 0, 69, 100
2, 228000, Note_on_c, 0, 78, 99
2, 228092, Note_off_c, 0, 74, 100
2, 228096, Note_on_c, 0, 81, 99
2, 228188, Note_off_c, 0, 78, 100
2, 228192, Note_on_c, 0, 79, 99
2, 228284, Note_off_c, 0, 81, 100
2, 228288, Note_on_c, 0, 79, 100
2, 228380, Note_off_c, 0, 79, 100
2, 228384, Note_on_c, 0, 78, 100
2, 228476, Note_off_c, 0, 79, 100
2, 228480, Note_on_c, 0, 77, 101
2, 228572, Note_off_c, 0, 78, 100
2, 228576, Note_on_c, 0, 78, 101
2, 228668, Note_off_c, 0, 77, 100
2, 228672, Note_on_c, 0, 86, 101
2, 228764, Note_off_c, 0, 78, 100
2, 228768, Note_on_c, 0, 78, 102
2, 228860, Note_off_c, 0, 86, 100
2, 228864, Note_on_c, 0, 81, 102
2, 228956, Note_off_c, 0, 78, 100
2, 228960, Note_on_c, 0, 79, 103
2, 229052, Note_off_c, 0, 81, 100
2, 229056, Note_on_c, 0, 78, 103
2, 229148, Note_off_c, 0, 79, 100
2, 229152, Note_on_c, 0, 79, 103
2, 229244, Note_off_c, 0, 78, 100
2, 229248, Note_on_c, 0, 86, 104
2, 229340, Note_off_c, 0, 79, 100
2, 229344, Note_on_c, 0, 79, 104
2, 229436, Note_off_c, 0, 86, 100
2, 229440, Note_on_c, 0, 81, 105
2, 229532, Note_off_c, 0, 79, 100
2, 229536, Note_on_c, 0, 79, 105
2, 229628, Note_off_c, 0, 81, 100
2, 229632, Note_on_c, 0, 78, 105
2, 229724, Note_off_c, 0, 79, 100
2, 229728, Note_on_c, 0, 79, 106
2, 229820, Note_off_c, 0, 78, 100
2, 229824, Note_on_c, 0, 88, 106
2, 229916, Note_off_c, 0, 79, 100
2, 229920, Note_on_c, 0, 79, 107
2, 230012, Note_off_c, 0, 88, 100
2, 230016, Note_on_c, 0, 79, 107
2, 230108, Note_off_c, 0, 79, 100
2, 230112, Note_on_c, 0, 78, 107
2, 230204, Note_off_c, 0, 79, 100
2, 230208, Note_on_c, 0, 77, 108
2, 230300, Note_off_c, 0, 78, 100
2, 230304, Note_on_c, 0, 78, 108
2, 230396, Note_off_c, 0, 77, 100
2, 230400, Note_on_c, 0, 86, 109
2, 230492, Note_off_c, 0, 78, 100
2, 230496, Note_on_c, 0, 78, 109
2, 230588, Note_off_c, 0, 86, 100
2, 230592, Note_on_c, 0, 76, 110
2, 230684, Note_off_c, 0, 78, 100
2, 230688, Note_on_c, 0, 74, 110
2, 230780, Note_off_c, 0, 76, 100
2, 230784, Note_on_c, 0, 73, 110
2, 230876, Note_off_c, 0, 74, 100
2, 230880, Note_on_c, 0, 74, 110
2, 230972, Note_off_c, 0, 73, 100
2, 230976, Note_on_c, 0, 86, 110
2, 231068, Note_off_c, 0, 74, 100
2, 231072, Note_on_c, 0, 74, 110
2, 231164, Note_off_c, 0, 86, 100
2, 231168, Note_on_c, 0, 73, 110
2, 231260, Note_off_c, 0, 74, 100
2, 231264, Note_on_c, 0, 71, 110
2, 231356, Note_off_c, 0, 73, 100
2, 231360, Note_on_c, 0, 70, 110
2, 231452, Note_off_c, 0, 71, 100
2, 231456, Note_on_c, 0, 71, 110
2, 231548, Note_off_c, 0, 70, 100
2, 231552, Note_on_c, 0, 83, 110
2, 231644, Note_off_c, 0, 71, 100
2, 231648, Note_on_c, 0, 71, 110
2, 231740, Note_off_c, 0, 83, 100
2, 231744, Note_on_c, 0, 69, 110
2, 231836, Note_off_c, 0, 71, 100
2, 231840, Note_on_c, 0, 67, 110
2, 231932, Note_off_c, 0, 69, 100
2, 231936, Note_on_c, 0, 66, 110
2, 232028, Note_off_c, 0, 67, 100
2, 232032, Note_on_c, 0, 67, 110
2, 232124, Note_off_c, 0, 66, 100
2, 232128, Note_on_c, 0, 79, 110
2, 232220, Note_off_c, 0, 67, 100
2, 232224, Note_on_c, 0, 67, 110
2, 232316, Note_off_c, 0, 79, 100
2, 232320, Note_on_c, 0, 66, 110
2, 232412, Note_off_c, 0, 67, 100
2, 232416, Note_on_c, 0, 69, 110
2, 232508, Note_off_c, 0, 66, 100
2, 232512, Note_on_c, 0, 74, 110
2, 232604, Note_off_c, 0, 69, 100
2, 232608, Note_on_c, 0, 78, 110
2, 232700, Note_off_c, 0, 74, 100
2, 232704, Note_on_c, 0, 81, 110
2, 232796, Note_off_c, 0, 78, 100
2, 232800, Note_on_c, 0, 79, 110
2, 232892, Note_off_c, 0, 81, 100
2, 232896, Note_on_c, 0, 76, 110
2, 232988, Note_off_c, 0, 79, 100
2, 232992, Note_on_c, 0, 74, 110
2, 233084, Note_off_c, 0, 76, 100
2, 233088, Note_on_c, 0, 73, 110
2, 233180, Note_off_c, 0, 74, 100
2, 233184, Note_on_c, 0, 74, 110
2, 233276, Note_off_c, 0, 73, 100
2, 233280, Note_on_c, 0, 86, 110
2, 233372, Note_off_c, 0, 74, 100
2, 233376, Note_on_c, 0, 74, 110
2, 233468, Note_off_c, 0, 86, 100
2, 233472, Note_on_c, 0, 73, 110
2, 233564, Note_off_c, 0, 74, 100
2, 233568, Note_on_c, 0, 71, 110
2, 233660, Note_off_c, 0, 73, 100
2, 233664, Note_on_c, 0, 70, 110
2, 233756, Note_off_c, 0, 71, 100
2, 233760, Note_on_c, 0, 71, 110
2, 233852, Note_off_c, 0, 70, 100
2, 233856, Note_on_c, 0, 83, 110
2, 233948, Note_off_c, 0, 71, 100
2, 233952, Note_on_c, 0, 71, 110
2, 234044, Note_off_c, 0, 83, 100
2, 234048, Note_on_c, 0, 69, 110
2, 234140, Note_off_c, 0, 71, 100
2, 234144, Note_on_c, 0, 67, 110
2, 234236, Note_off_c, 0, 69, 100
2, 234240, Note_on_c, 0, 66, 110
2, 234332, Note_off_c, 0, 67, 100
2, 234336, Note_on_c, 0, 67, 110
2, 234428, Note_off_c, 0, 66, 100
2, 234432, Note_on_c, 0, 79, 110
2, 234524, Note_off_c, 0, 67, 100
2, 234528, Note_on_c, 0, 67, 110
2, 234620, Note_off_c, 0, 79, 100
2, 234624, Note_on_c, 0, 66, 110
2, 234716, Note_off_c, 0, 67, 100
2, 234720, Note_on_c, 0, 69, 110
2, 234812, Note_off_c, 0, 66, 100
2, 234816, Note_on_c, 0, 74, 110
2, 234908, Note_off_c, 0, 69, 100
2, 234912, Note_on_c, 0, 78, 110
2, 235004, Note_off_c, 0, 74, 100
2, 235008, Note_on_c, 0, 81, 110
2, 235100, Note_off_c, 0, 78, 100
2, 235104, Note_on_c, 0, 79, 110
2, 235196, Note_off_c, 0, 81, 100
2, 235200, Note_on_c, 0, 76, 110
2, 235292, Note_off_c, 0, 79, 100
2, 235296, Note_on_c, 0, 74, 110
2, 235388, Note_off_c, 0, 76, 100
2, 235392, Note_on_c, 0, 73, 110
2, 235484, Note_off_c, 0, 74, 100
2, 235488, Note_on_c, 0, 74, 110
2, 235580, Note_off_c, 0, 73, 100
2, 235584, Note_on_c, 0, 86, 110
2, 235676, Note_off_c, 0, 74, 100
2, 235680, Note_on_c, 0, 74, 110
2, 235772, Note_off_c, 0, 86, 100
2, 235776, Note_on_c, 0, 73, 110
2, 235868, Note_off_c, 0, 74, 100
2, 235872, Note_on_c, 0, 71, 110
2, 235964, Note_off_c, 0, 73, 100
2, 235968, Note_on_c, 0, 70, 110
2, 236060, Note_off_c, 0, 71, 100
2, 236064, Note_on_c, 0, 71, 110
2, 236156, Note_off_c, 0, 70, 100
2, 236160, Note_on_c, 0, 83, 110
2, 236252, Note_off_c, 0, 71, 100
2, 236256, Note_on_c, 0, 71, 110
2, 236348, Note_off_c, 0, 83, 100
2, 236352, Note_on_c, 0, 69, 110
2, 236444, Note_off_c, 0, 71, 100
2, 236448, Note_on_c, 0, 67, 110
2, 236540, Note_off_c, 0, 69, 100
2, 236544, Note_on_c, 0, 66, 110
2, 236636, Note_off_c, 0, 67, 100
2, 236640, Note_on_c, 0, 67, 110
2, 236732, Note_off_c, 0, 66, 100
2, 236736, Note_on_c, 0, 79, 110
2, 236828, Note_off_c, 0, 67, 100
2, 236832, Note_on_c, 0, 67, 110
2, 236924, Note_off_c, 0, 79, 100
2, 236928, Note_on_c, 0, 66, 110
2, 237020, Note_off_c, 0, 67, 100
2, 237024, Note_on_c, 0, 69, 110
2, 237116, Note_off_c, 0, 66, 100
2, 237120, Note_on_c, 0, 74, 110
2, 237212, Note_off_c, 0, 69, 100
2, 237216, Note_on_c, 0, 78, 110
2, 237308, Note_off_c, 0, 74, 100
2, 237312, Note_on_c, 0, 81, 110
2, 237404, Note_off_c, 0, 78, 100
2, 237408, Note_on_c, 0, 66, 110
2, 237500, Note_off_c, 0, 81, 100
2, 237504, Note_on_c, 0, 69, 110
2, 237596, Note_off_c, 0, 66, 100
2, 237600, Note_on_c, 0, 67, 110
2, 237692, Note_off_c, 0, 69, 100
2, 237696, Note_on_c, 0, 66, 110
2, 237788, Note_off_c, 0, 67, 100
2, 237792, Note_on_c, 0, 67, 110
2, 237884, Note_off_c, 0, 66, 100
2, 237888, Note_on_c, 0, 79, 110
2, 237980, Note_off_c, 0, 67, 100
2, 237984, Note_on_c, 0, 67, 110
2, 238076, Note_off_c, 0, 79, 100
2, 238080, Note_on_c, 0, 66, 110
2, 238172, Note_off_c, 0, 67, 100
2, 238176, Note_on_c, 0, 69, 110
2, 238268, Note_off_c, 0, 66, 100
2, 238272, Note_on_c, 0, 74, 110
2, 238364, Note_off_c, 0, 69, 100
2, 238368, Note_on_c, 0, 78, 110
2, 238460, Note_off_c, 0, 74, 100
2, 238464, Note_on_c, 0, 81, 110
2, 238556, Note_off_c, 0, 78, 100
2, 238560, Note_on_c, 0, 66, 110
2, 238652, Note_off_c, 0, 81, 100
2, 238656, Note_on_c, 0, 69, 110
2, 238748, Note_off_c, 0, 66, 100
2, 238752, Note_on_c, 0, 67, 110
2, 238844, Note_off_c, 0, 69, 100
2, 238848, Note_on_c, 0, 73, 111
2, 238940, Note_off_c, 0, 67, 100
2, 238944, Note_on_c, 0, 67, 112
2, 239036, Note_off_c, 0, 73, 100
2, 239040, Note_on_c, 0, 76, 113
2, 239132, Note_off_c, 0, 67, 100
2, 239136, Note_on_c, 0, 73, 114
2, 239228, Note_off_c, 0, 76, 100
2, 239232, Note_on_c, 0, 79, 114
2, 239324, Note_off_c, 0, 73, 100
2, 239328, Note_on_c, 0, 76, 115
2, 239420, Note_off_c, 0, 79, 100
2, 239424, Note_on_c, 0, 85, 116
2, 239516, Note_off_c, 0, 76, 100
2, 239520, Note_on_c, 0, 79, 117
2, 239612, Note_off_c, 0, 85, 100
2, 239616, Note_on_c, 0, 88, 118
2, 239708, Note_off_c, 0, 79, 100
2, 239712, Note_on_c, 0, 85, 119
2, 239804, Note_off_c, 0, 88, 100
2, 239808, Note_on_c, 0, 86, 120
2, 239900, Note_off_c, 0, 85, 100
2, 239904, Note_on_c, 0, 81, 120
2, 239996, Note_off_c, 0, 86, 100
2, 240000, Note_on_c, 0, 78, 120
2, 240092, Note_off_c, 0, 81, 100
2, 240096, Note_on_c, 0, 86, 120
2, 240188, Note_off_c, 0, 78, 100
2, 240192, Note_on_c, 0, 81, 120
2, 240284, Note_off_c, 0, 86, 100
2, 240288, Note_on_c, 0, 78, 120
2, 240380, Note_off_c, 0, 81, 100
2, 240384, Note_on_c, 0, 74, 120
2, 240476, Note_off_c, 0, 78, 100
2, 240480, Note_on_c, 0, 81, 120
2, 240572, Note_off_c, 0, 74, 100
2, 240576, Note_on_c, 0, 78, 120
2, 240668, Note_off_c, 0, 81, 100
2, 240672, Note_on_c, 0, 74, 120
2, 240764, Note_off_c, 0, 78, 100
2, 240768, Note_on_c, 0, 69, 120
2, 240860, Note_off_c, 0, 74, 100
2, 240864, Note_on_c, 0, 78, 120
2, 240956, Note_off_c, 0, 69, 100
2, 240960, Note_on_c, 0, 74, 120
2, 241052, Note_off_c, 0, 78, 100
2, 241056, Note_on_c, 0, 69, 120
2, 241148, Note_off_c, 0, 74, 100
2, 241152, Note_on_c, 0, 66, 120
2, 241244, Note_off_c, 0, 69, 100
2, 241248, Note_on_c, 0, 74, 120
2, 241340, Note_off_c, 0, 66, 100
2, 241344, Note_on_c, 0, 69, 120
2, 241436, Note_off_c, 0, 74, 100
2, 241440, Note_on_c, 0, 66, 120
2, 241532, Note_off_c, 0, 69, 100
2, 241536, Note_on_c, 0, 62, 120
2, 241628, Note_off_c, 0, 66, 100
2, 241632, Note_on_c, 0, 69, 120
2, 241724, Note_off_c, 0, 62, 100
2, 241728, Note_on_c, 0, 66, 120
2, 241820, Note_off_c, 0, 69, 100
2, 241824, Note_on_c, 0, 62, 120
2, 241916, Note_off_c, 0, 66, 100
2, 241920, Note_on_c, 0, 57, 120
2, 242012, Note_off_c, 0, 62, 100
2, 242016, Note_on_c, 0, 54, 120
2, 242108, Note_off_c, 0, 57, 100
2, 242112, Note_on_c, 0, 50, 120
2, 242204, Note_off_c, 0, 54, 100
2, 242492, Note_off_c, 0, 50, 100
2, 242688, Note_on_c, 0, 79, 120
2, 242688, Note_on_c, 0, 73, 120
2, 242688, Note_on_c, 0, 67, 120
2, 243068, Note_off_c, 0, 79, 100
2, 243068, Note_off_c, 0, 73, 100
2, 243068, Note_off_c, 0, 67, 100
2, 243264, Note_on_c, 0, 78, 120
2, 243264, Note_on_c, 0, 74, 120
2, 243264, Note_on_c, 0, 66, 120
2, 244028, Note_off_c, 0, 78, 100
2, 244028, Note_off_c, 0, 74, 100
2, 244028, Note_off_c, 0, 66, 100
2, 244416, Control_c, 0, 7, 0
2, 244800, Note_on_c, 0, 66, 100
2, 244988, Note_off_c, 0, 66, 100
2, 244988, End_track
3, 0, Start_track
3, 0, Title_t, "Left"
3, 0, Control_c, 1, 0, 0
3, 0, Program_c, 1, 0
3, 0, Control_c, 1, 7, 100
3, 0, Control_c, 1, 10, 58
3, 0, Control_c, 1, 91, 127
3, 0, Key_signature, 2, "major"
3, 0, Note_on_c, 1, 45, 80
3, 188, Note_off_c, 1, 45, 100
3, 192, Note_on_c, 1, 38, 80
3, 572, Note_off_c, 1, 38, 100
3, 576, Note_on_c, 1, 45, 80
3, 764, Note_off_c, 1, 45, 100
3, 768, Note_on_c, 1, 38, 80
3, 1148, Note_off_c, 1, 38, 100
3, 1152, Note_on_c, 1, 47, 80
3, 1340, Note_off_c, 1, 47, 100
3, 1344, Note_on_c, 1, 38, 80
3, 1724, Note_off_c, 1, 38, 100
3, 1728, Note_on_c, 1, 49, 80
3, 1916, Note_off_c, 1, 49, 100
3, 1920, Note_on_c, 1, 38, 80
3, 2300, Note_off_c, 1, 38, 100
3, 2304, Note_on_c, 1, 50, 80
3, 2492, Note_off_c, 1, 50, 100
3, 2496, Note_on_c, 1, 38, 80
3, 2876, Note_off_c, 1, 38, 100
3, 2880, Note_on_c, 1, 42, 80
3, 3068, Note_off_c, 1, 42, 100
3, 3072, Note_on_c, 1, 38, 80
3, 3452, Note_off_c, 1, 38, 100
3, 3456, Note_on_c, 1, 43, 80
3, 3644, Note_off_c, 1, 43, 100
3, 3648, Note_on_c, 1, 38, 80
3, 4028, Note_off_c, 1, 38, 100
3, 4032, Note_on_c, 1, 45, 80
3, 4220, Note_off_c, 1, 45, 100
3, 4224, Note_on_c, 1, 38, 80
3, 4604, Note_off_c, 1, 38, 100
3, 4608, Note_on_c, 1, 45, 80
3, 4796, Note_off_c, 1, 45, 100
3, 4800, Note_on_c, 1, 38, 80
3, 5180, Note_off_c, 1, 38, 100
3, 5184, Note_on_c, 1, 45, 80
3, 5372, Note_off_c, 1, 45, 100
3, 5376, Note_on_c, 1, 38, 80
3, 5756, Note_off_c, 1, 38, 100
3, 5760, Note_on_c, 1, 47, 80
3, 5948, Note_off_c, 1, 47, 100
3, 5952, Note_on_c, 1, 38, 80
3, 6332, Note_off_c, 1, 38, 100
3, 6336, Note_on_c, 1, 49, 80
3, 6524, Note_off_c, 1, 49, 100
3, 6528, Note_on_c, 1, 38, 80
3, 6908, Note_off_c, 1, 38, 100
3, 6912, Note_on_c, 1, 50, 80
3, 7100, Note_off_c, 1, 50, 100
3, 7104, Note_on_c, 1, 38, 80
3, 7484, Note_off_c, 1, 38, 100
3, 7488, Note_on_c, 1, 42, 80
3, 7676, Note_off_c, 1, 42, 100
3, 7680, Note_on_c, 1, 38, 80
3, 8060, Note_off_c, 1, 38, 100
3, 8064, Note_on_c, 1, 43, 80
3, 8252, Note_off_c, 1, 43, 100
3, 8256, Note_on_c, 1, 38, 80
3, 8636, Note_off_c, 1, 38, 100
3, 8640, Note_on_c, 1, 45, 80
3, 8828, Note_off_c, 1, 45, 100
3, 8832, Note_on_c, 1, 38, 80
3, 9212, Note_off_c, 1, 38, 100
3, 9216, Note_on_c, 1, 50, 80
3, 9404, Note_off_c, 1, 50, 100
3, 9408, Note_on_c, 1, 38, 80
3, 9788, Note_off_c, 1, 38, 100
3, 9792, Note_on_c, 1, 52, 80
3, 9980, Note_off_c, 1, 52, 100
3, 9984, Note_on_c, 1, 38, 80
3, 10364, Note_off_c, 1, 38, 100
3, 10368, Note_on_c, 1, 45, 80
3, 10556, Note_off_c, 1, 45, 100
3, 10560, Note_on_c, 1, 38, 80
3, 10940, Note_off_c, 1, 38, 100
3, 10944, Note_on_c, 1, 50, 80
3, 11132, Note_off_c, 1, 50, 100
3, 11136, Note_on_c, 1, 38, 80
3, 11516, Note_off_c, 1, 38, 100
3, 11520, Note_on_c, 1, 45, 80
3, 11708, Note_off_c, 1, 45, 100
3, 11712, Note_on_c, 1, 38, 80
3, 12092, Note_off_c, 1, 38, 100
3, 12096, Note_on_c, 1, 52, 80
3, 12284, Note_off_c, 1, 52, 100
3, 12288, Note_on_c, 1, 38, 80
3, 12668, Note_off_c, 1, 38, 100
3, 12672, Note_on_c, 1, 45, 80
3, 12860, Note_off_c, 1, 45, 100
3, 12864, Note_on_c, 1, 38, 80
3, 13244, Note_off_c, 1, 38, 100
3, 13248, Note_on_c, 1, 50, 80
3, 13436, Note_off_c, 1, 50, 100
3, 13440, Note_on_c, 1, 38, 80
3, 13820, Note_off_c, 1, 38, 100
3, 13824, Note_on_c, 1, 45, 80
3, 14012, Note_off_c, 1, 45, 100
3, 14016, Note_on_c, 1, 38, 80
3, 14396, Note_off_c, 1, 38, 100
3, 14400, Note_on_c, 1, 52, 80
3, 14588, Note_off_c, 1, 52, 100
3, 14592, Note_on_c, 1, 38, 80
3, 14972, Note_off_c, 1, 38, 100
3, 14976, Note_on_c, 1, 45, 80
3, 15164, Note_off_c, 1, 45, 100
3, 15168, Note_on_c, 1, 38, 80
3, 15548, Note_off_c, 1, 38, 100
3, 15552, Note_on_c, 1, 50, 80
3, 15740, Note_off_c, 1, 50, 100
3, 15744, Note_on_c, 1, 38, 80
3, 16124, Note_off_c, 1, 38, 100
3, 16128, Note_on_c, 1, 45, 80
3, 16316, Note_off_c, 1, 45, 100
3, 16320, Note_on_c, 1, 38, 80
3, 16700, Note_off_c, 1, 38, 100
3, 16704, Note_on_c, 1, 52, 80
3, 16892, Note_off_c, 1, 52, 100
3, 16896, Note_on_c, 1, 38, 80
3, 17276, Note_off_c, 1, 38, 100
3, 17280, Note_on_c, 1, 45, 80
3, 17468, Note_off_c, 1, 45, 100
3, 17472, Note_on_c, 1, 38, 80
3, 17852, Note_off_c, 1, 38, 100
3, 17856, Note_on_c, 1, 50, 80
3, 18044, Note_off_c, 1, 50, 100
3, 18048, Note_on_c, 1, 45, 80
3, 18428, Note_off_c, 1, 45, 100
3, 18432, Note_on_c, 1, 42, 80
3, 18620, Note_off_c, 1, 42, 100
3, 18624, Control_c, 1, 64, 127
3, 18624, Note_on_c, 1, 38, 80
3, 18716, Note_off_c, 1, 38, 100
3, 18720, Note_on_c, 1, 42, 80
3, 18812, Note_off_c, 1, 42, 100
3, 18816, Note_on_c, 1, 45, 80
3, 18908, Note_off_c, 1, 45, 100
3, 18912, Note_on_c, 1, 50, 80
3, 19004, Note_off_c, 1, 50, 100
3, 19196, Control_c, 1, 64, 0
3, 19200, Control_c, 1, 64, 127
3, 19200, Note_on_c, 1, 49, 80
3, 19292, Note_off_c, 1, 49, 100
3, 19296, Note_on_c, 1, 52, 80
3, 19388, Note_off_c, 1, 52, 100
3, 19392, Note_on_c, 1, 57, 80
3, 19484, Note_off_c, 1, 57, 100
3, 19488, Note_on_c, 1, 61, 80
3, 19580, Note_off_c, 1, 61, 100
3, 19772, Control_c, 1, 64, 0
3, 19776, Control_c, 1, 64, 127
3, 19776, Note_on_c, 1, 47, 80
3, 19868, Note_off_c, 1, 47, 100
3, 19872, Note_on_c, 1, 50, 80
3, 19964, Note_off_c, 1, 50, 100
3, 19968, Note_on_c, 1, 54, 80
3, 20060, Note_off_c, 1, 54, 100
3, 20064, Note_on_c, 1, 59, 80
3, 20156, Note_off_c, 1, 59, 100
3, 20348, Control_c, 1, 64, 0
3, 20352, Control_c, 1, 64, 127
3, 20352, Note_on_c, 1, 57, 80
3, 20444, Note_off_c, 1, 57, 100
3, 20448, Note_on_c, 1, 61, 80
3, 20540, Note_off_c, 1, 61, 100
3, 20544, Note_on_c, 1, 66, 80
3, 20636, Note_off_c, 1, 66, 100
3, 20640, Note_on_c, 1, 69, 80
3, 20732, Note_off_c, 1, 69, 100
3, 20924, Control_c, 1, 64, 0
3, 20928, Control_c, 1, 64, 127
3, 20928, Note_on_c, 1, 43, 80
3, 21020, Note_off_c, 1, 43, 100
3, 21024, Note_on_c, 1, 47, 80
3, 21116, Note_off_c, 1, 47, 100
3, 21120, Note_on_c, 1, 50, 80
3, 21212, Note_off_c, 1, 50, 100
3, 21216, Note_on_c, 1, 55, 80
3, 21308, Note_off_c, 1, 55, 100
3, 21500, Control_c, 1, 64, 0
3, 21504, Control_c, 1, 64, 127
3, 21504, Note_on_c, 1, 54, 80
3, 21596, Note_off_c, 1, 54, 100
3, 21600, Note_on_c, 1, 57, 80
3, 21692, Note_off_c, 1, 57, 100
3, 21696, Note_on_c, 1, 62, 80
3, 21788, Note_off_c, 1, 62, 100
3, 21792, Note_on_c, 1, 66, 80
3, 21884, Note_off_c, 1, 66, 100
3, 22076, Control_c, 1, 64, 0
3, 22080, Control_c, 1, 64, 127
3, 22080, Note_on_c, 1, 64, 80
3, 22080, Note_on_c, 1, 52, 80
3, 22268, Note_off_c, 1, 64, 100
3, 22268, Note_off_c, 1, 52, 100
3, 22272, Note_on_c, 1, 64, 80
3, 22272, Note_on_c, 1, 52, 80
3, 22460, Note_off_c, 1, 64, 100
3, 22460, Note_off_c, 1, 52, 100
3, 22464, Note_on_c, 1, 62, 80
3, 22464, Note_on_c, 1, 50, 80
3, 22652, Note_off_c, 1, 62, 100
3, 22652, Note_off_c, 1, 50, 100
3, 22652, Control_c, 1, 64, 0
3, 22656, Control_c, 1, 64, 127
3, 22656, Note_on_c, 1, 57, 80
3, 22656, Note_on_c, 1, 45, 80
3, 23036, Note_off_c, 1, 57, 100
3, 23036, Note_off_c, 1, 45, 100
3, 23228, Control_c, 1, 64, 0
3, 23232, Control_c, 1, 64, 127
3, 23232, Note_on_c, 1, 38, 80
3, 23324, Note_off_c, 1, 38, 100
3, 23328, Note_on_c, 1, 42, 80
3, 23420, Note_off_c, 1, 42, 100
3, 23424, Note_on_c, 1, 45, 81
3, 23516, Note_off_c, 1, 45, 100
3, 23520, Note_on_c, 1, 50, 81
3, 23612, Note_off_c, 1, 50, 100
3, 23804, Control_c, 1, 64, 0
3, 23808, Control_c, 1, 64, 127
3, 23808, Note_on_c, 1, 49, 83
3, 23900, Note_off_c, 1, 49, 100
3, 23904, Note_on_c, 1, 52, 83
3, 23996, Note_off_c, 1, 52, 100
3, 24000, Note_on_c, 1, 57, 84
3, 24092, Note_off_c, 1, 57, 100
3, 24096, Note_on_c, 1, 61, 84
3, 24188, Note_off_c, 1, 61, 100
3, 24380, Control_c, 1, 64, 0
3, 24384, Control_c, 1, 64, 127
3, 24384, Note_on_c, 1, 47, 86
3, 24476, Note_off_c, 1, 47, 100
3, 24480, Note_on_c, 1, 50, 86
3, 24572, Note_off_c, 1, 50, 100
3, 24576, Note_on_c, 1, 54, 87
3, 24668, Note_off_c, 1, 54, 100
3, 24672, Note_on_c, 1, 59, 87
3, 24764, Note_off_c, 1, 59, 100
3, 24956, Control_c, 1, 64, 0
3, 24960, Control_c, 1, 64, 127
3, 24960, Note_on_c, 1, 57, 89
3, 25052, Note_off_c, 1, 57, 100
3, 25056, Note_on_c, 1, 61, 89
3, 25148, Note_off_c, 1, 61, 100
3, 25152, Note_on_c, 1, 66, 90
3, 25244, Note_off_c, 1, 66, 100
3, 25248, Note_on_c, 1, 69, 90
3, 25340, Note_off_c, 1, 69, 100
3, 25532, Control_c, 1, 64, 0
3, 25536, Control_c, 1, 64, 127
3, 25536, Note_on_c, 1, 44, 92
3, 25628, Note_off_c, 1, 44, 100
3, 25632, Note_on_c, 1, 47, 92
3, 25724, Note_off_c, 1, 47, 100
3, 25728, Note_on_c, 1, 50, 93
3, 25820, Note_off_c, 1, 50, 100
3, 25824, Note_on_c, 1, 56, 93
3, 25916, Note_off_c, 1, 56, 100
3, 26108, Control_c, 1, 64, 0
3, 26112, Control_c, 1, 64, 127
3, 26112, Note_on_c, 1, 54, 95
3, 26204, Note_off_c, 1, 54, 100
3, 26208, Note_on_c, 1, 57, 96
3, 26300, Note_off_c, 1, 57, 100
3, 26304, Note_on_c, 1, 63, 96
3, 26396, Note_off_c, 1, 63, 100
3, 26400, Note_on_c, 1, 66, 97
3, 26492, Note_off_c, 1, 66, 100
3, 26684, Control_c, 1, 64, 0
3, 26688, Control_c, 1, 64, 127
3, 26688, Note_on_c, 1, 40, 98
3, 26780, Note_off_c, 1, 40, 100
3, 26784, Note_on_c, 1, 44, 99
3, 26876, Note_off_c, 1, 44, 100
3, 26880, Note_on_c, 1, 47, 99
3, 26972, Note_off_c, 1, 47, 100
3, 26976, Note_on_c, 1, 52, 100
3, 27068, Note_off_c, 1, 52, 100
3, 27260, Control_c, 1, 64, 0
3, 27264, Control_c, 1, 64, 127
3, 27264, Note_on_c, 1, 57, 101
3, 27356, Note_off_c, 1, 57, 100
3, 27360, Note_on_c, 1, 61, 102
3, 27452, Note_off_c, 1, 61, 100
3, 27456, Note_on_c, 1, 64, 102
3, 27548, Note_off_c, 1, 64, 100
3, 27552, Note_on_c, 1, 69, 103
3, 27644, Note_off_c, 1, 69, 100
3, 27836, Control_c, 1, 64, 0
3, 27840, Control_c, 1, 64, 127
3, 27840, Note_on_c, 1, 44, 104
3, 27932, Note_off_c, 1, 44, 100
3, 27936, Note_on_c, 1, 47, 105
3, 28028, Note_off_c, 1, 47, 100
3, 28032, Note_on_c, 1, 50, 105
3, 28124, Note_off_c, 1, 50, 100
3, 28128, Note_on_c, 1, 56, 106
3, 28220, Note_off_c, 1, 56, 100
3, 28412, Control_c, 1, 64, 0
3, 28416, Control_c, 1, 64, 127
3, 28416, Note_on_c, 1, 54, 107
3, 28508, Note_off_c, 1, 54, 100
3, 28512, Note_on_c, 1, 57, 108
3, 28604, Note_off_c, 1, 57, 100
3, 28608, Note_on_c, 1, 63, 108
3, 28700, Note_off_c, 1, 63, 100
3, 28704, Note_on_c, 1, 66, 109
3, 28796, Note_off_c, 1, 66, 100
3, 28988, Control_c, 1, 64, 0
3, 28992, Control_c, 1, 64, 127
3, 28992, Note_on_c, 1, 40, 110
3, 29084, Note_off_c, 1, 40, 100
3, 29088, Note_on_c, 1, 44, 110
3, 29180, Note_off_c, 1, 44, 100
3, 29184, Note_on_c, 1, 47, 110
3, 29276, Note_off_c, 1, 47, 100
3, 29280, Note_on_c, 1, 52, 110
3, 29372, Note_off_c, 1, 52, 100
3, 29564, Control_c, 1, 64, 0
3, 29568, Control_c, 1, 64, 127
3, 29568, Note_on_c, 1, 40, 110
3, 29660, Note_off_c, 1, 40, 100
3, 29664, Note_on_c, 1, 44, 110
3, 29756, Note_off_c, 1, 44, 100
3, 29760, Note_on_c, 1, 47, 110
3, 29852, Note_off_c, 1, 47, 100
3, 29856, Note_on_c, 1, 52, 110
3, 29948, Note_off_c, 1, 52, 100
3, 30140, Control_c, 1, 64, 0
3, 30144, Control_c, 1, 64, 127
3, 30144, Note_on_c, 1, 40, 110
3, 30236, Note_off_c, 1, 40, 100
3, 30240, Note_on_c, 1, 44, 110
3, 30332, Note_off_c, 1, 44, 100
3, 30336, Note_on_c, 1, 47, 110
3, 30428, Note_off_c, 1, 47, 100
3, 30432, Note_on_c, 1, 52, 110
3, 30524, Note_off_c, 1, 52, 100
3, 30716, Control_c, 1, 64, 0
3, 30720, Control_c, 1, 64, 127
3, 30720, Note_on_c, 1, 40, 110
3, 30812, Note_off_c, 1, 40, 100
3, 30816, Note_on_c, 1, 44, 110
3, 30908, Note_off_c, 1, 44, 100
3, 30912, Note_on_c, 1, 47, 110
3, 31004, Note_off_c, 1, 47, 100
3, 31008, Note_on_c, 1, 52, 110
3, 31100, Note_off_c, 1, 52, 100
3, 31292, Control_c, 1, 64, 0
3, 31296, Note_on_c, 1, 40, 120
3, 32252, Note_off_c, 1, 40, 100
3, 34560, Note_on_c, 1, 61, 80
3, 34748, Note_off_c, 1, 61, 100
3, 34752, Note_on_c, 1, 57, 80
3, 35132, Note_off_c, 1, 57, 100
3, 35136, Note_on_c, 1, 64, 80
3, 35324, Note_off_c, 1, 64, 100
3, 35328, Note_on_c, 1, 61, 80
3, 35708, Note_off_c, 1, 61, 100
3, 35712, Note_on_c, 1, 57, 80
3, 35900, Note_off_c, 1, 57, 100
3, 35904, Note_on_c, 1, 64, 80
3, 36284, Note_off_c, 1, 64, 100
3, 36288, Note_on_c, 1, 52, 80
3, 36476, Note_off_c, 1, 52, 100
3, 36480, Note_on_c, 1, 57, 80
3, 36860, Note_off_c, 1, 57, 100
3, 39072, Note_on_c, 1, 61, 80
3, 39164, Note_off_c, 1, 61, 100
3, 39168, Note_on_c, 1, 60, 80
3, 39260, Note_off_c, 1, 60, 100
3, 39264, Note_on_c, 1, 61, 80
3, 39356, Note_off_c, 1, 61, 100
3, 39360, Note_on_c, 1, 57, 80
3, 39548, Note_off_c, 1, 57, 100
3, 39648, Note_on_c, 1, 64, 80
3, 39740, Note_off_c, 1, 64, 100
3, 39744, Note_on_c, 1, 63, 80
3, 39836, Note_off_c, 1, 63, 100
3, 39840, Note_on_c, 1, 64, 80
3, 39932, Note_off_c, 1, 64, 100
3, 39936, Note_on_c, 1, 61, 80
3, 40124, Note_off_c, 1, 61, 100
3, 40320, Note_on_c, 1, 57, 80
3, 40508, Note_off_c, 1, 57, 100
3, 40512, Note_on_c, 1, 64, 80
3, 40892, Note_off_c, 1, 64, 100
3, 40896, Note_on_c, 1, 52, 80
3, 41084, Note_off_c, 1, 52, 100
3, 41088, Note_on_c, 1, 57, 80
3, 41468, Note_off_c, 1, 57, 100
3, 41472, Note_on_c, 1, 49, 80
3, 41660, Note_off_c, 1, 49, 100
3, 41664, Note_on_c, 1, 52, 80
3, 42044, Note_off_c, 1, 52, 100
3, 42048, Note_on_c, 1, 40, 80
3, 42236, Note_off_c, 1, 40, 100
3, 42240, Note_on_c, 1, 45, 80
3, 42620, Note_off_c, 1, 45, 100
3, 42624, Note_on_c, 1, 61, 80
3, 42812, Note_off_c, 1, 61, 100
3, 42816, Note_on_c, 1, 64, 80
3, 43196, Note_off_c, 1, 64, 100
3, 43200, Note_on_c, 1, 52, 80
3, 43388, Note_off_c, 1, 52, 100
3, 43392, Note_on_c, 1, 57, 80
3, 43772, Note_off_c, 1, 57, 100
3, 43776, Note_on_c, 1, 49, 80
3, 43964, Note_off_c, 1, 49, 100
3, 43968, Note_on_c, 1, 52, 80
3, 44348, Note_off_c, 1, 52, 100
3, 44352, Note_on_c, 1, 40, 85
3, 44540, Note_off_c, 1, 40, 100
3, 44544, Note_on_c, 1, 45, 88
3, 44924, Note_off_c, 1, 45, 100
3, 44928, Note_on_c, 1, 49, 94
3, 45116, Note_off_c, 1, 49, 100
3, 45120, Note_on_c, 1, 52, 96
3, 45500, Note_off_c, 1, 52, 100
3, 45504, Note_on_c, 1, 40, 102
3, 45692, Note_off_c, 1, 40, 100
3, 45696, Note_on_c, 1, 45, 105
3, 46076, Note_off_c, 1, 45, 100
3, 46080, Note_on_c, 1, 42, 110
3, 46080, Note_on_c, 1, 54, 110
3, 46268, Note_off_c, 1, 42, 100
3, 46268, Note_off_c, 1, 54, 100
3, 46272, Note_on_c, 1, 50, 110
3, 46272, Note_on_c, 1, 38, 110
3, 47420, Note_off_c, 1, 50, 100
3, 47420, Note_off_c, 1, 38, 100
3, 47424, Note_on_c, 1, 52, 110
3, 47424, Note_on_c, 1, 40, 110
3, 48572, Note_off_c, 1, 52, 100
3, 48572, Note_off_c, 1, 40, 100
3, 48576, Note_on_c, 1, 45, 110
3, 48576, Note_on_c, 1, 33, 110
3, 49148, Note_off_c, 1, 33, 100
3, 49152, Note_on_c, 1, 44, 110
3, 49340, Note_off_c, 1, 44, 100
3, 49344, Note_on_c, 1, 42, 110
3, 49532, Note_off_c, 1, 42, 100
3, 49536, Note_on_c, 1, 40, 110
3, 49724, Note_off_c, 1, 40, 100
3, 49728, Note_on_c, 1, 42, 110
3, 49916, Note_off_c, 1, 42, 100
3, 49920, Note_on_c, 1, 40, 110
3, 50108, Note_off_c, 1, 40, 100
3, 50112, Note_on_c, 1, 38, 110
3, 50300, Note_off_c, 1, 38, 100
3, 50304, Note_on_c, 1, 37, 110
3, 50492, Note_off_c, 1, 37, 100
3, 50496, Note_on_c, 1, 38, 110
3, 50684, Note_off_c, 1, 38, 100
3, 50688, Note_on_c, 1, 40, 110
3, 50876, Note_off_c, 1, 45, 100
3, 50876, Note_off_c, 1, 40, 100
3, 50880, Note_on_c, 1, 45, 110
3, 50880, Note_on_c, 1, 33, 110
3, 51452, Note_off_c, 1, 33, 100
3, 51456, Note_on_c, 1, 44, 110
3, 51644, Note_off_c, 1, 44, 100
3, 51648, Note_on_c, 1, 42, 110
3, 51836, Note_off_c, 1, 42, 100
3, 51840, Note_on_c, 1, 40, 110
3, 52028, Note_off_c, 1, 40, 100
3, 52032, Note_on_c, 1, 42, 110
3, 52220, Note_off_c, 1, 42, 100
3, 52224, Note_on_c, 1, 40, 110
3, 52412, Note_off_c, 1, 40, 100
3, 52416, Note_on_c, 1, 38, 110
3, 52604, Note_off_c, 1, 38, 100
3, 52608, Note_on_c, 1, 37, 110
3, 52796, Note_off_c, 1, 37, 100
3, 52800, Note_on_c, 1, 38, 110
3, 52988, Note_off_c, 1, 38, 100
3, 52992, Note_on_c, 1, 40, 110
3, 53180, Note_off_c, 1, 45, 100
3, 53180, Note_off_c, 1, 40, 100
3, 53184, Note_on_c, 1, 45, 110
3, 53184, Note_on_c, 1, 33, 110
3, 53756, Note_off_c, 1, 33, 100
3, 53760, Note_on_c, 1, 43, 110
3, 53948, Note_off_c, 1, 43, 100
3, 53952, Note_on_c, 1, 42, 110
3, 54140, Note_off_c, 1, 42, 100
3, 54144, Note_on_c, 1, 40, 110
3, 54332, Note_off_c, 1, 40, 100
3, 54336, Note_on_c, 1, 38, 110
3, 54524, Note_off_c, 1, 38, 100
3, 54528, Note_on_c, 1, 37, 110
3, 54716, Note_off_c, 1, 37, 100
3, 54720, Note_on_c, 1, 35, 110
3, 54908, Note_off_c, 1, 35, 100
3, 54912, Note_on_c, 1, 33, 110
3, 55100, Note_off_c, 1, 33, 100
3, 55104, Note_on_c, 1, 43, 110
3, 55104, Note_on_c, 1, 31, 110
3, 55292, Note_off_c, 1, 43, 100
3, 55292, Note_off_c, 1, 31, 100
3, 55296, Note_on_c, 1, 42, 110
3, 55296, Note_on_c, 1, 30, 110
3, 55484, Note_off_c, 1, 45, 100
3, 55484, Note_off_c, 1, 42, 100
3, 55484, Note_off_c, 1, 30, 100
3, 55488, Note_on_c, 1, 31, 110
3, 55488, Note_on_c, 1, 43, 110
3, 55868, Note_off_c, 1, 31, 100
3, 55868, Note_off_c, 1, 43, 100
3, 56640, Note_on_c, 1, 44, 110
3, 56640, Note_on_c, 1, 32, 110
3, 57020, Note_off_c, 1, 44, 100
3, 57020, Note_off_c, 1, 32, 100
3, 58752, Note_on_c, 1, 45, 80
3, 58940, Note_off_c, 1, 45, 100
3, 58944, Note_on_c, 1, 38, 80
3, 59324, Note_off_c, 1, 38, 100
3, 59328, Note_on_c, 1, 45, 80
3, 59516, Note_off_c, 1, 45, 100
3, 59520, Note_on_c, 1, 38, 80
3, 59900, Note_off_c, 1, 38, 100
3, 59904, Note_on_c, 1, 47, 80
3, 60092, Note_off_c, 1, 47, 100
3, 60096, Note_on_c, 1, 38, 80
3, 60476, Note_off_c, 1, 38, 100
3, 60480, Note_on_c, 1, 49, 80
3, 60668, Note_off_c, 1, 49, 100
3, 60672, Note_on_c, 1, 38, 80
3, 61052, Note_off_c, 1, 38, 100
3, 61056, Note_on_c, 1, 50, 80
3, 61244, Note_off_c, 1, 50, 100
3, 61248, Note_on_c, 1, 38, 80
3, 61628, Note_off_c, 1, 38, 100
3, 61632, Note_on_c, 1, 42, 80
3, 61820, Note_off_c, 1, 42, 100
3, 61824, Note_on_c, 1, 38, 80
3, 62204, Note_off_c, 1, 38, 100
3, 62208, Note_on_c, 1, 43, 80
3, 62396, Note_off_c, 1, 43, 100
3, 62400, Note_on_c, 1, 38, 80
3, 62780, Note_off_c, 1, 38, 100
3, 62784, Note_on_c, 1, 45, 80
3, 62972, Note_off_c, 1, 45, 100
3, 62976, Note_on_c, 1, 38, 80
3, 63356, Note_off_c, 1, 38, 100
3, 63360, Note_on_c, 1, 45, 80
3, 63548, Note_off_c, 1, 45, 100
3, 63552, Note_on_c, 1, 38, 80
3, 63932, Note_off_c, 1, 38, 100
3, 63936, Note_on_c, 1, 45, 80
3, 64124, Note_off_c, 1, 45, 100
3, 64128, Note_on_c, 1, 38, 80
3, 64508, Note_off_c, 1, 38, 100
3, 64512, Note_on_c, 1, 47, 80
3, 64700, Note_off_c, 1, 47, 100
3, 64704, Note_on_c, 1, 38, 80
3, 65084, Note_off_c, 1, 38, 100
3, 65088, Note_on_c, 1, 49, 80
3, 65276, Note_off_c, 1, 49, 100
3, 65280, Note_on_c, 1, 38, 80
3, 65660, Note_off_c, 1, 38, 100
3, 65664, Note_on_c, 1, 50, 80
3, 65852, Note_off_c, 1, 50, 100
3, 65856, Note_on_c, 1, 38, 80
3, 66236, Note_off_c, 1, 38, 100
3, 66240, Note_on_c, 1, 42, 80
3, 66428, Note_off_c, 1, 42, 100
3, 66432, Note_on_c, 1, 38, 80
3, 66812, Note_off_c, 1, 38, 100
3, 66816, Note_on_c, 1, 43, 80
3, 67004, Note_off_c, 1, 43, 100
3, 67008, Note_on_c, 1, 38, 80
3, 67388, Note_off_c, 1, 38, 100
3, 67392, Note_on_c, 1, 45, 80
3, 67580, Note_off_c, 1, 45, 100
3, 67584, Note_on_c, 1, 38, 80
3, 67964, Note_off_c, 1, 38, 100
3, 67968, Note_on_c, 1, 50, 80
3, 68156, Note_off_c, 1, 50, 100
3, 68160, Note_on_c, 1, 38, 80
3, 68540, Note_off_c, 1, 38, 100
3, 68544, Note_on_c, 1, 52, 80
3, 68732, Note_off_c, 1, 52, 100
3, 68736, Note_on_c, 1, 38, 80
3, 69116, Note_off_c, 1, 38, 100
3, 69120, Note_on_c, 1, 45, 80
3, 69308, Note_off_c, 1, 45, 100
3, 69312, Note_on_c, 1, 38, 80
3, 69692, Note_off_c, 1, 38, 100
3, 69696, Note_on_c, 1, 50, 80
3, 69884, Note_off_c, 1, 50, 100
3, 69888, Note_on_c, 1, 38, 80
3, 70268, Note_off_c, 1, 38, 100
3, 70272, Note_on_c, 1, 45, 80
3, 70460, Note_off_c, 1, 45, 100
3, 70464, Note_on_c, 1, 38, 80
3, 70844, Note_off_c, 1, 38, 100
3, 70848, Note_on_c, 1, 52, 80
3, 71036, Note_off_c, 1, 52, 100
3, 71040, Note_on_c, 1, 38, 80
3, 71420, Note_off_c, 1, 38, 100
3, 71424, Note_on_c, 1, 45, 80
3, 71612, Note_off_c, 1, 45, 100
3, 71616, Note_on_c, 1, 38, 80
3, 71996, Note_off_c, 1, 38, 100
3, 72000, Note_on_c, 1, 50, 80
3, 72188, Note_off_c, 1, 50, 100
3, 72192, Note_on_c, 1, 38, 80
3, 72572, Note_off_c, 1, 38, 100
3, 72576, Note_on_c, 1, 49, 80
3, 72764, Note_off_c, 1, 49, 100
3, 72768, Note_on_c, 1, 38, 80
3, 73148, Note_off_c, 1, 38, 100
3, 73152, Note_on_c, 1, 52, 80
3, 73340, Note_off_c, 1, 52, 100
3, 73344, Note_on_c, 1, 38, 80
3, 73724, Note_off_c, 1, 38, 100
3, 73728, Note_on_c, 1, 45, 80
3, 73916, Note_off_c, 1, 45, 100
3, 73920, Note_on_c, 1, 38, 80
3, 74300, Note_off_c, 1, 38, 100
3, 74304, Note_on_c, 1, 50, 80
3, 74492, Note_off_c, 1, 50, 100
3, 74496, Note_on_c, 1, 38, 80
3, 74876, Note_off_c, 1, 38, 100
3, 74880, Note_on_c, 1, 45, 80
3, 75068, Note_off_c, 1, 45, 100
3, 75072, Note_on_c, 1, 38, 80
3, 75452, Note_off_c, 1, 38, 100
3, 75456, Note_on_c, 1, 52, 80
3, 75644, Note_off_c, 1, 52, 100
3, 75648, Note_on_c, 1, 38, 80
3, 76028, Note_off_c, 1, 38, 100
3, 76032, Note_on_c, 1, 45, 80
3, 76220, Note_off_c, 1, 45, 100
3, 76224, Note_on_c, 1, 38, 80
3, 76604, Note_off_c, 1, 38, 100
3, 77376, Note_on_c, 1, 38, 80
3, 77564, Note_off_c, 1, 38, 100
3, 77568, Note_on_c, 1, 54, 80
3, 77756, Note_off_c, 1, 54, 100
3, 77952, Note_on_c, 1, 40, 80
3, 78140, Note_off_c, 1, 40, 100
3, 78144, Note_on_c, 1, 55, 80
3, 78332, Note_off_c, 1, 55, 100
3, 78528, Note_on_c, 1, 42, 80
3, 78716, Note_off_c, 1, 42, 100
3, 78720, Note_on_c, 1, 57, 80
3, 78908, Note_off_c, 1, 57, 100
3, 79104, Note_on_c, 1, 45, 80
3, 79292, Note_off_c, 1, 45, 100
3, 79296, Note_on_c, 1, 59, 80
3, 79484, Note_off_c, 1, 59, 100
3, 79680, Note_on_c, 1, 48, 80
3, 79868, Note_off_c, 1, 48, 100
3, 79872, Note_on_c, 1, 60, 80
3, 80060, Note_off_c, 1, 60, 100
3, 80256, Note_on_c, 1, 49, 80
3, 80444, Note_off_c, 1, 49, 100
3, 80448, Note_on_c, 1, 58, 80
3, 80636, Note_off_c, 1, 58, 100
3, 80832, Note_on_c, 1, 50, 80
3, 81020, Note_off_c, 1, 50, 100
3, 81024, Note_on_c, 1, 57, 80
3, 81212, Note_off_c, 1, 57, 100
3, 81984, Note_on_c, 1, 50, 80
3, 82172, Note_off_c, 1, 50, 100
3, 82176, Note_on_c, 1, 66, 80
3, 82364, Note_off_c, 1, 66, 100
3, 82560, Note_on_c, 1, 52, 80
3, 82748, Note_off_c, 1, 52, 100
3, 82752, Note_on_c, 1, 67, 80
3, 82940, Note_off_c, 1, 67, 100
3, 83136, Note_on_c, 1, 54, 80
3, 83324, Note_off_c, 1, 54, 100
3, 83328, Note_on_c, 1, 69, 80
3, 83516, Note_off_c, 1, 69, 100
3, 83712, Note_on_c, 1, 55, 80
3, 83900, Note_off_c, 1, 55, 100
3, 83904, Note_on_c, 1, 71, 80
3, 84092, Note_off_c, 1, 71, 100
3, 84288, Note_on_c, 1, 48, 80
3, 84476, Note_off_c, 1, 48, 100
3, 84480, Note_on_c, 1, 72, 80
3, 84668, Note_off_c, 1, 72, 100
3, 84864, Note_on_c, 1, 50, 80
3, 85052, Note_off_c, 1, 50, 100
3, 85056, Note_on_c, 1, 69, 80
3, 85244, Note_off_c, 1, 69, 100
3, 85440, Note_on_c, 1, 55, 80
3, 85628, Note_off_c, 1, 55, 100
3, 85632, Note_on_c, 1, 67, 84
3, 85820, Note_off_c, 1, 67, 100
3, 86016, Note_on_c, 1, 57, 92
3, 86204, Note_off_c, 1, 57, 100
3, 86208, Note_on_c, 1, 71, 96
3, 86396, Note_off_c, 1, 71, 100
3, 86592, Note_on_c, 1, 48, 100
3, 86780, Note_off_c, 1, 48, 100
3, 86784, Note_on_c, 1, 72, 97
3, 86972, Note_off_c, 1, 72, 100
3, 87168, Note_on_c, 1, 50, 89
3, 87356, Note_off_c, 1, 50, 100
3, 87360, Note_on_c, 1, 66, 85
3, 87548, Note_off_c, 1, 66, 100
3, 87744, Note_on_c, 1, 55, 80
3, 87932, Note_off_c, 1, 55, 100
3, 87936, Note_on_c, 1, 67, 84
3, 88124, Note_off_c, 1, 67, 100
3, 88320, Note_on_c, 1, 57, 92
3, 88508, Note_off_c, 1, 57, 100
3, 88512, Note_on_c, 1, 71, 96
3, 88700, Note_off_c, 1, 71, 100
3, 88896, Note_on_c, 1, 48, 100
3, 89084, Note_off_c, 1, 48, 100
3, 89088, Note_on_c, 1, 72, 97
3, 89276, Note_off_c, 1, 72, 100
3, 89472, Note_on_c, 1, 50, 89
3, 89660, Note_off_c, 1, 50, 100
3, 89664, Note_on_c, 1, 66, 85
3, 89852, Note_off_c, 1, 66, 100
3, 90048, Note_on_c, 1, 67, 70
3, 90236, Note_off_c, 1, 67, 100
3, 90240, Note_on_c, 1, 69, 70
3, 90428, Note_off_c, 1, 69, 100
3, 90432, Note_on_c, 1, 71, 70
3, 90620, Note_off_c, 1, 71, 100
3, 90624, Note_on_c, 1, 72, 70
3, 91388, Note_off_c, 1, 72, 100
3, 91392, Note_on_c, 1, 71, 70
3, 91580, Note_off_c, 1, 71, 100
3, 91584, Note_on_c, 1, 73, 70
3, 91772, Note_off_c, 1, 73, 100
3, 91776, Note_on_c, 1, 74, 70
3, 92540, Note_off_c, 1, 74, 100
3, 92544, Note_on_c, 1, 73, 70
3, 92732, Note_off_c, 1, 73, 100
3, 92736, Note_on_c, 1, 75, 70
3, 92924, Note_off_c, 1, 75, 100
3, 92928, Note_on_c, 1, 76, 70
3, 93308, Note_off_c, 1, 76, 100
3, 93312, Note_on_c, 1, 74, 70
3, 93500, Note_off_c, 1, 74, 100
3, 93504, Note_on_c, 1, 72, 70
3, 93884, Note_off_c, 1, 72, 100
3, 93888, Note_on_c, 1, 71, 70
3, 94076, Note_off_c, 1, 71, 100
3, 94080, Note_on_c, 1, 72, 70
3, 94460, Note_off_c, 1, 72, 100
3, 94464, Note_on_c, 1, 73, 70
3, 94652, Note_off_c, 1, 73, 100
3, 94656, Note_on_c, 1, 62, 70
3, 94844, Note_off_c, 1, 62, 100
3, 94848, Note_on_c, 1, 64, 70
3, 95036, Note_off_c, 1, 64, 100
3, 95040, Note_on_c, 1, 66, 70
3, 95228, Note_off_c, 1, 66, 100
3, 95232, Note_on_c, 1, 67, 70
3, 95996, Note_off_c, 1, 67, 100
3, 96000, Note_on_c, 1, 66, 70
3, 96188, Note_off_c, 1, 66, 100
3, 96192, Note_on_c, 1, 68, 70
3, 96380, Note_off_c, 1, 68, 100
3, 96384, Note_on_c, 1, 69, 70
3, 97148, Note_off_c, 1, 69, 100
3, 97152, Note_on_c, 1, 68, 70
3, 97340, Note_off_c, 1, 68, 100
3, 97344, Note_on_c, 1, 70, 70
3, 97532, Note_off_c, 1, 70, 100
3, 97536, Note_on_c, 1, 71, 70
3, 97916, Note_off_c, 1, 71, 100
3, 97920, Note_on_c, 1, 69, 70
3, 98108, Note_off_c, 1, 69, 100
3, 98112, Note_on_c, 1, 68, 70
3, 98300, Note_off_c, 1, 68, 100
3, 98304, Note_on_c, 1, 69, 70
3, 98492, Note_off_c, 1, 69, 100
3, 98496, Note_on_c, 1, 67, 70
3, 98684, Note_off_c, 1, 67, 100
3, 98688, Note_on_c, 1, 66, 70
3, 98876, Note_off_c, 1, 66, 100
3, 98880, Note_on_c, 1, 62, 70
3, 99068, Note_off_c, 1, 62, 100
3, 99072, Note_on_c, 1, 72, 70
3, 99260, Note_off_c, 1, 72, 100
3, 99264, Note_on_c, 1, 55, 70
3, 100028, Note_off_c, 1, 55, 100
3, 100032, Note_on_c, 1, 54, 70
3, 100220, Note_off_c, 1, 54, 100
3, 100224, Note_on_c, 1, 56, 70
3, 100412, Note_off_c, 1, 56, 100
3, 100416, Note_on_c, 1, 57, 70
3, 101180, Note_off_c, 1, 57, 100
3, 101184, Note_on_c, 1, 56, 70
3, 101372, Note_off_c, 1, 56, 100
3, 101376, Note_on_c, 1, 58, 70
3, 101564, Note_off_c, 1, 58, 100
3, 101568, Note_on_c, 1, 59, 70
3, 102332, Note_off_c, 1, 59, 100
3, 102336, Note_on_c, 1, 57, 70
3, 102524, Note_off_c, 1, 57, 100
3, 102528, Note_on_c, 1, 59, 70
3, 102716, Note_off_c, 1, 59, 100
3, 102720, Note_on_c, 1, 60, 70
3, 102908, Note_off_c, 1, 60, 100
3, 102912, Note_on_c, 1, 59, 70
3, 103100, Note_off_c, 1, 59, 100
3, 103104, Note_on_c, 1, 60, 70
3, 103292, Note_off_c, 1, 60, 100
3, 103296, Note_on_c, 1, 62, 70
3, 103484, Note_off_c, 1, 62, 100
3, 103488, Note_on_c, 1, 64, 70
3, 103676, Note_off_c, 1, 64, 100
3, 103680, Note_on_c, 1, 66, 70
3, 103868, Note_off_c, 1, 66, 100
3, 103872, Note_on_c, 1, 55, 70
3, 103872, Note_on_c, 1, 58, 70
3, 104060, Note_off_c, 1, 58, 100
3, 104064, Note_on_c, 1, 60, 72
3, 104064, Note_on_c, 1, 57, 72
3, 104252, Note_off_c, 1, 60, 100
3, 104252, Note_off_c, 1, 57, 100
3, 104256, Note_on_c, 1, 62, 74
3, 104256, Note_on_c, 1, 58, 74
3, 104444, Note_off_c, 1, 62, 100
3, 104444, Note_off_c, 1, 58, 100
3, 104448, Note_on_c, 1, 63, 76
3, 104448, Note_on_c, 1, 60, 76
3, 105212, Note_off_c, 1, 60, 100
3, 105212, Note_off_c, 1, 63, 100
3, 105216, Note_on_c, 1, 62, 84
3, 105216, Note_on_c, 1, 59, 84
3, 105404, Note_off_c, 1, 62, 100
3, 105404, Note_off_c, 1, 59, 100
3, 105408, Note_on_c, 1, 63, 86
3, 105408, Note_on_c, 1, 60, 86
3, 105596, Note_off_c, 1, 63, 100
3, 105596, Note_off_c, 1, 60, 100
3, 105600, Note_on_c, 1, 65, 89
3, 105600, Note_on_c, 1, 62, 89
3, 106172, Note_off_c, 1, 55, 100
3, 106364, Note_off_c, 1, 62, 100
3, 106364, Note_off_c, 1, 65, 100
3, 106368, Note_on_c, 1, 60, 97
3, 106368, Note_on_c, 1, 63, 97
3, 106556, Note_off_c, 1, 60, 100
3, 106556, Note_off_c, 1, 63, 100
3, 106560, Note_on_c, 1, 62, 99
3, 106560, Note_on_c, 1, 65, 99
3, 106748, Note_off_c, 1, 62, 100
3, 106748, Note_off_c, 1, 65, 100
3, 106752, Note_on_c, 1, 63, 101
3, 106752, Note_on_c, 1, 67, 101
3, 107132, Note_off_c, 1, 63, 100
3, 107132, Note_off_c, 1, 67, 100
3, 107136, Note_on_c, 1, 62, 106
3, 107136, Note_on_c, 1, 65, 106
3, 107324, Note_off_c, 1, 62, 100
3, 107324, Note_off_c, 1, 65, 100
3, 107328, Note_on_c, 1, 57, 108
3, 107328, Note_on_c, 1, 61, 108
3, 107328, Note_on_c, 1, 64, 108
3, 107708, Note_off_c, 1, 61, 100
3, 107708, Note_off_c, 1, 64, 100
3, 107712, Note_on_c, 1, 65, 112
3, 107712, Note_on_c, 1, 62, 112
3, 107900, Note_off_c, 1, 65, 100
3, 107900, Note_off_c, 1, 62, 100
3, 107904, Note_on_c, 1, 61, 114
3, 107904, Note_on_c, 1, 64, 114
3, 108284, Note_off_c, 1, 57, 100
3, 108284, Note_off_c, 1, 61, 100
3, 108284, Note_off_c, 1, 64, 100
3, 108288, Note_on_c, 1, 45, 118
3, 108288, Note_on_c, 1, 33, 118
3, 108476, Note_off_c, 1, 45, 100
3, 108476, Note_off_c, 1, 33, 100
3, 108480, Note_on_c, 1, 50, 120
3, 108480, Note_on_c, 1, 38, 120
3, 109244, Note_off_c, 1, 50, 100
3, 109244, Note_off_c, 1, 38, 100
3, 109248, Note_on_c, 1, 49, 120
3, 109248, Note_on_c, 1, 37, 120
3, 109436, Note_off_c, 1, 49, 100
3, 109436, Note_off_c, 1, 37, 100
3, 109440, Note_on_c, 1, 50, 120
3, 109440, Note_on_c, 1, 38, 120
3, 109628, Note_off_c, 1, 50, 100
3, 109628, Note_off_c, 1, 38, 100
3, 109632, Note_on_c, 1, 52, 120
3, 109632, Note_on_c, 1, 40, 120
3, 110396, Note_off_c, 1, 52, 100
3, 110396, Note_off_c, 1, 40, 100
3, 110400, Note_on_c, 1, 51, 120
3, 110400, Note_on_c, 1, 39, 120
3, 110588, Note_off_c, 1, 51, 100
3, 110588, Note_off_c, 1, 39, 100
3, 110592, Note_on_c, 1, 52, 120
3, 110592, Note_on_c, 1, 40, 120
3, 110780, Note_off_c, 1, 52, 100
3, 110780, Note_off_c, 1, 40, 100
3, 110784, Note_on_c, 1, 53, 120
3, 110784, Note_on_c, 1, 41, 120
3, 111548, Note_off_c, 1, 53, 100
3, 111548, Note_off_c, 1, 41, 100
3, 111552, Note_on_c, 1, 52, 120
3, 111552, Note_on_c, 1, 40, 120
3, 111740, Note_off_c, 1, 52, 100
3, 111740, Note_off_c, 1, 40, 100
3, 111744, Note_on_c, 1, 53, 120
3, 111744, Note_on_c, 1, 41, 120
3, 111932, Note_off_c, 1, 53, 100
3, 111932, Note_off_c, 1, 41, 100
3, 111936, Note_on_c, 1, 55, 120
3, 111936, Note_on_c, 1, 43, 120
3, 112700, Note_off_c, 1, 55, 100
3, 112700, Note_off_c, 1, 43, 100
3, 112704, Note_on_c, 1, 54, 120
3, 112704, Note_on_c, 1, 42, 120
3, 112892, Note_off_c, 1, 54, 100
3, 112892, Note_off_c, 1, 42, 100
3, 112896, Note_on_c, 1, 55, 120
3, 112896, Note_on_c, 1, 43, 120
3, 113084, Note_off_c, 1, 55, 100
3, 113084, Note_off_c, 1, 43, 100
3, 113088, Note_on_c, 1, 57, 120
3, 113088, Note_on_c, 1, 45, 120
3, 113852, Note_off_c, 1, 57, 100
3, 113852, Note_off_c, 1, 45, 100
3, 113856, Note_on_c, 1, 56, 120
3, 113856, Note_on_c, 1, 44, 120
3, 114044, Note_off_c, 1, 56, 100
3, 114044, Note_off_c, 1, 44, 100
3, 114048, Note_on_c, 1, 57, 120
3, 114048, Note_on_c, 1, 45, 120
3, 114236, Note_off_c, 1, 57, 100
3, 114236, Note_off_c, 1, 45, 100
3, 114240, Note_on_c, 1, 58, 120
3, 114240, Note_on_c, 1, 46, 120
3, 114428, Note_off_c, 1, 58, 100
3, 114428, Note_off_c, 1, 46, 100
3, 114432, Note_on_c, 1, 57, 120
3, 114432, Note_on_c, 1, 45, 120
3, 114620, Note_off_c, 1, 57, 100
3, 114620, Note_off_c, 1, 45, 100
3, 114624, Note_on_c, 1, 58, 120
3, 114624, Note_on_c, 1, 46, 120
3, 114812, Note_off_c, 1, 58, 100
3, 114812, Note_off_c, 1, 46, 100
3, 114816, Note_on_c, 1, 59, 120
3, 114816, Note_on_c, 1, 47, 120
3, 115004, Note_off_c, 1, 59, 100
3, 115004, Note_off_c, 1, 47, 100
3, 115008, Note_on_c, 1, 58, 120
3, 115008, Note_on_c, 1, 46, 120
3, 115196, Note_off_c, 1, 58, 100
3, 115196, Note_off_c, 1, 46, 100
3, 115200, Note_on_c, 1, 59, 120
3, 115200, Note_on_c, 1, 47, 120
3, 115388, Note_off_c, 1, 59, 100
3, 115388, Note_off_c, 1, 47, 100
3, 115392, Note_on_c, 1, 57, 120
3, 115392, Note_on_c, 1, 45, 120
3, 115968, Note_on_c, 1, 47, 120
3, 116156, Note_off_c, 1, 47, 100
3, 116160, Note_on_c, 1, 49, 120
3, 116348, Note_off_c, 1, 49, 100
3, 116352, Note_on_c, 1, 50, 120
3, 116540, Note_off_c, 1, 50, 100
3, 116544, Note_on_c, 1, 52, 120
3, 116732, Note_off_c, 1, 52, 100
3, 116736, Note_on_c, 1, 50, 120
3, 116924, Note_off_c, 1, 50, 100
3, 116928, Note_on_c, 1, 49, 120
3, 117116, Note_off_c, 1, 49, 100
3, 117120, Note_on_c, 1, 53, 120
3, 117308, Note_off_c, 1, 53, 100
3, 117312, Note_on_c, 1, 52, 120
3, 117500, Note_off_c, 1, 52, 100
3, 117504, Note_on_c, 1, 50, 120
3, 117692, Note_off_c, 1, 45, 100
3, 117692, Note_off_c, 1, 57, 100
3, 117692, Note_off_c, 1, 50, 100
3, 117696, Note_on_c, 1, 57, 120
3, 117696, Note_on_c, 1, 45, 120
3, 118272, Note_on_c, 1, 47, 120
3, 118460, Note_off_c, 1, 47, 100
3, 118464, Note_on_c, 1, 49, 120
3, 118652, Note_off_c, 1, 49, 100
3, 118656, Note_on_c, 1, 50, 120
3, 118844, Note_off_c, 1, 50, 100
3, 118848, Note_on_c, 1, 52, 120
3, 119036, Note_off_c, 1, 52, 100
3, 119040, Note_on_c, 1, 50, 120
3, 119228, Note_off_c, 1, 50, 100
3, 119232, Note_on_c, 1, 49, 120
3, 119420, Note_off_c, 1, 49, 100
3, 119424, Note_on_c, 1, 53, 120
3, 119612, Note_off_c, 1, 53, 100
3, 119616, Note_on_c, 1, 52, 120
3, 119804, Note_off_c, 1, 52, 100
3, 119808, Note_on_c, 1, 50, 120
3, 119996, Note_off_c, 1, 45, 100
3, 119996, Note_off_c, 1, 57, 100
3, 119996, Note_off_c, 1, 50, 100
3, 120000, Note_on_c, 1, 45, 120
3, 120000, Note_on_c, 1, 33, 120
3, 120576, Note_on_c, 1, 35, 120
3, 120764, Note_off_c, 1, 35, 100
3, 120768, Note_on_c, 1, 37, 120
3, 120956, Note_off_c, 1, 37, 100
3, 120960, Note_on_c, 1, 38, 120
3, 121148, Note_off_c, 1, 38, 100
3, 121152, Note_on_c, 1, 40, 120
3, 121340, Note_off_c, 1, 40, 100
3, 121344, Note_on_c, 1, 38, 120
3, 121532, Note_off_c, 1, 38, 100
3, 121536, Note_on_c, 1, 37, 120
3, 121724, Note_off_c, 1, 37, 100
3, 121728, Note_on_c, 1, 41, 120
3, 121916, Note_off_c, 1, 41, 100
3, 121920, Note_on_c, 1, 40, 120
3, 122108, Note_off_c, 1, 40, 100
3, 122112, Note_on_c, 1, 38, 120
3, 122300, Note_off_c, 1, 33, 100
3, 122300, Note_off_c, 1, 45, 100
3, 122300, Note_off_c, 1, 38, 100
3, 122304, Note_on_c, 1, 45, 120
3, 122304, Note_on_c, 1, 33, 120
3, 122304, Note_on_c, 1, 40, 120
3, 122492, Note_off_c, 1, 40, 100
3, 122496, Note_on_c, 1, 38, 120
3, 122684, Note_off_c, 1, 38, 100
3, 122688, Note_on_c, 1, 37, 120
3, 122876, Note_off_c, 1, 37, 100
3, 122880, Note_on_c, 1, 41, 120
3, 123068, Note_off_c, 1, 41, 100
3, 123072, Note_on_c, 1, 40, 120
3, 123260, Note_off_c, 1, 40, 100
3, 123264, Note_on_c, 1, 38, 120
3, 123452, Note_off_c, 1, 45, 100
3, 123452, Note_off_c, 1, 33, 100
3, 123452, Note_off_c, 1, 38, 100
3, 123456, Note_on_c, 1, 45, 120
3, 123456, Note_on_c, 1, 33, 120
3, 123456, Note_on_c, 1, 40, 120
3, 123644, Note_off_c, 1, 40, 100
3, 123648, Note_on_c, 1, 38, 120
3, 123836, Note_off_c, 1, 38, 100
3, 123840, Note_on_c, 1, 37, 120
3, 124028, Note_off_c, 1, 37, 100
3, 124032, Note_on_c, 1, 41, 120
3, 124220, Note_off_c, 1, 41, 100
3, 124224, Note_on_c, 1, 40, 120
3, 124412, Note_off_c, 1, 40, 100
3, 124416, Note_on_c, 1, 38, 120
3, 124604, Note_off_c, 1, 45, 100
3, 124604, Note_off_c, 1, 33, 100
3, 124604, Note_off_c, 1, 38, 100
3, 124608, Note_on_c, 1, 45, 120
3, 124608, Note_on_c, 1, 33, 120
3, 128060, Note_off_c, 1, 33, 100
3, 128060, Note_off_c, 1, 45, 100
3, 128064, Note_on_c, 1, 45, 120
3, 128156, Note_off_c, 1, 45, 100
3, 128160, Note_on_c, 1, 52, 120
3, 128252, Note_off_c, 1, 52, 100
3, 128256, Note_on_c, 1, 50, 120
3, 128348, Note_off_c, 1, 50, 100
3, 128352, Note_on_c, 1, 49, 120
3, 128444, Note_off_c, 1, 49, 100
3, 128448, Note_on_c, 1, 47, 120
3, 128540, Note_off_c, 1, 47, 100
3, 128544, Note_on_c, 1, 45, 120
3, 128636, Note_off_c, 1, 45, 100
3, 128640, Note_on_c, 1, 44, 120
3, 128732, Note_off_c, 1, 44, 100
3, 128736, Note_on_c, 1, 42, 120
3, 128828, Note_off_c, 1, 42, 100
3, 128832, Note_on_c, 1, 40, 120
3, 128924, Note_off_c, 1, 40, 100
3, 128928, Note_on_c, 1, 38, 120
3, 129020, Note_off_c, 1, 38, 100
3, 129024, Note_on_c, 1, 37, 120
3, 129116, Note_off_c, 1, 37, 100
3, 129120, Note_on_c, 1, 35, 120
3, 129212, Note_off_c, 1, 35, 100
3, 129216, Note_on_c, 1, 33, 120
3, 131324, Note_off_c, 1, 33, 100
3, 131328, Note_on_c, 1, 45, 80
3, 131516, Note_off_c, 1, 45, 100
3, 131520, Note_on_c, 1, 38, 80
3, 131900, Note_off_c, 1, 38, 100
3, 131904, Note_on_c, 1, 45, 80
3, 132092, Note_off_c, 1, 45, 100
3, 132096, Note_on_c, 1, 38, 80
3, 132476, Note_off_c, 1, 38, 100
3, 132480, Note_on_c, 1, 47, 80
3, 132668, Note_off_c, 1, 47, 100
3, 132672, Note_on_c, 1, 38, 80
3, 133052, Note_off_c, 1, 38, 100
3, 133056, Note_on_c, 1, 49, 80
3, 133244, Note_off_c, 1, 49, 100
3, 133248, Note_on_c, 1, 38, 80
3, 133628, Note_off_c, 1, 38, 100
3, 133632, Note_on_c, 1, 50, 80
3, 133820, Note_off_c, 1, 50, 100
3, 133824, Note_on_c, 1, 38, 80
3, 134204, Note_off_c, 1, 38, 100
3, 134208, Note_on_c, 1, 42, 80
3, 134396, Note_off_c, 1, 42, 100
3, 134400, Note_on_c, 1, 38, 80
3, 134780, Note_off_c, 1, 38, 100
3, 134784, Note_on_c, 1, 43, 80
3, 134972, Note_off_c, 1, 43, 100
3, 134976, Note_on_c, 1, 38, 80
3, 135356, Note_off_c, 1, 38, 100
3, 135360, Note_on_c, 1, 45, 80
3, 135548, Note_off_c, 1, 45, 100
3, 135552, Note_on_c, 1, 38, 80
3, 135932, Note_off_c, 1, 38, 100
3, 135936, Note_on_c, 1, 45, 80
3, 136124, Note_off_c, 1, 45, 100
3, 136128, Note_on_c, 1, 38, 80
3, 136508, Note_off_c, 1, 38, 100
3, 136512, Note_on_c, 1, 45, 80
3, 136700, Note_off_c, 1, 45, 100
3, 136704, Note_on_c, 1, 38, 80
3, 137084, Note_off_c, 1, 38, 100
3, 137088, Note_on_c, 1, 47, 80
3, 137276, Note_off_c, 1, 47, 100
3, 137280, Note_on_c, 1, 38, 80
3, 137660, Note_off_c, 1, 38, 100
3, 137664, Note_on_c, 1, 49, 80
3, 137852, Note_off_c, 1, 49, 100
3, 137856, Note_on_c, 1, 38, 80
3, 138236, Note_off_c, 1, 38, 100
3, 138240, Note_on_c, 1, 50, 80
3, 138428, Note_off_c, 1, 50, 100
3, 138432, Note_on_c, 1, 38, 80
3, 138812, Note_off_c, 1, 38, 100
3, 138816, Note_on_c, 1, 42, 80
3, 139004, Note_off_c, 1, 42, 100
3, 139008, Note_on_c, 1, 38, 80
3, 139388, Note_off_c, 1, 38, 100
3, 139392, Note_on_c, 1, 43, 80
3, 139580, Note_off_c, 1, 43, 100
3, 139584, Note_on_c, 1, 38, 80
3, 139964, Note_off_c, 1, 38, 100
3, 139968, Note_on_c, 1, 45, 80
3, 140156, Note_off_c, 1, 45, 100
3, 140160, Note_on_c, 1, 38, 80
3, 140540, Note_off_c, 1, 38, 100
3, 140544, Note_on_c, 1, 50, 80
3, 140732, Note_off_c, 1, 50, 100
3, 140736, Note_on_c, 1, 38, 80
3, 141116, Note_off_c, 1, 38, 100
3, 141120, Note_on_c, 1, 52, 80
3, 141308, Note_off_c, 1, 52, 100
3, 141312, Note_on_c, 1, 38, 80
3, 141692, Note_off_c, 1, 38, 100
3, 141696, Note_on_c, 1, 45, 80
3, 141884, Note_off_c, 1, 45, 100
3, 141888, Note_on_c, 1, 38, 80
3, 142268, Note_off_c, 1, 38, 100
3, 142272, Note_on_c, 1, 50, 80
3, 142460, Note_off_c, 1, 50, 100
3, 142464, Note_on_c, 1, 38, 80
3, 142844, Note_off_c, 1, 38, 100
3, 142848, Note_on_c, 1, 45, 80
3, 143036, Note_off_c, 1, 45, 100
3, 143040, Note_on_c, 1, 38, 80
3, 143420, Note_off_c, 1, 38, 100
3, 143424, Note_on_c, 1, 52, 80
3, 143612, Note_off_c, 1, 52, 100
3, 143616, Note_on_c, 1, 38, 80
3, 143996, Note_off_c, 1, 38, 100
3, 144000, Note_on_c, 1, 45, 80
3, 144188, Note_off_c, 1, 45, 100
3, 144192, Note_on_c, 1, 38, 80
3, 144572, Note_off_c, 1, 38, 100
3, 144576, Note_on_c, 1, 50, 80
3, 144764, Note_off_c, 1, 50, 100
3, 144768, Note_on_c, 1, 38, 80
3, 145148, Note_off_c, 1, 38, 100
3, 145152, Note_on_c, 1, 45, 80
3, 145340, Note_off_c, 1, 45, 100
3, 145344, Note_on_c, 1, 38, 80
3, 145724, Note_off_c, 1, 38, 100
3, 145728, Note_on_c, 1, 52, 80
3, 145916, Note_off_c, 1, 52, 100
3, 145920, Note_on_c, 1, 38, 80
3, 146300, Note_off_c, 1, 38, 100
3, 146304, Note_on_c, 1, 45, 80
3, 146492, Note_off_c, 1, 45, 100
3, 146496, Note_on_c, 1, 38, 80
3, 146876, Note_off_c, 1, 38, 100
3, 146880, Note_on_c, 1, 50, 80
3, 147068, Note_off_c, 1, 50, 100
3, 147072, Note_on_c, 1, 38, 80
3, 147452, Note_off_c, 1, 38, 100
3, 147456, Note_on_c, 1, 45, 80
3, 147644, Note_off_c, 1, 45, 100
3, 147648, Note_on_c, 1, 38, 80
3, 148028, Note_off_c, 1, 38, 100
3, 148032, Note_on_c, 1, 52, 80
3, 148220, Note_off_c, 1, 52, 100
3, 148224, Note_on_c, 1, 38, 80
3, 148604, Note_off_c, 1, 38, 100
3, 148608, Note_on_c, 1, 45, 80
3, 148796, Note_off_c, 1, 45, 100
3, 148800, Note_on_c, 1, 38, 80
3, 149180, Note_off_c, 1, 38, 100
3, 149184, Note_on_c, 1, 50, 80
3, 149372, Note_off_c, 1, 50, 100
3, 149376, Note_on_c, 1, 45, 80
3, 149756, Note_off_c, 1, 45, 100
3, 149760, Note_on_c, 1, 42, 80
3, 149948, Note_off_c, 1, 42, 100
3, 149952, Control_c, 1, 64, 127
3, 149952, Note_on_c, 1, 38, 80
3, 150044, Note_off_c, 1, 38, 100
3, 150048, Note_on_c, 1, 42, 80
3, 150140, Note_off_c, 1, 42, 100
3, 150144, Note_on_c, 1, 45, 80
3, 150236, Note_off_c, 1, 45, 100
3, 150240, Note_on_c, 1, 50, 80
3, 150332, Note_off_c, 1, 50, 100
3, 150524, Control_c, 1, 64, 0
3, 150528, Control_c, 1, 64, 127
3, 150528, Note_on_c, 1, 49, 80
3, 150620, Note_off_c, 1, 49, 100
3, 150624, Note_on_c, 1, 52, 80
3, 150716, Note_off_c, 1, 52, 100
3, 150720, Note_on_c, 1, 57, 80
3, 150812, Note_off_c, 1, 57, 100
3, 150816, Note_on_c, 1, 61, 80
3, 150908, Note_off_c, 1, 61, 100
3, 151100, Control_c, 1, 64, 0
3, 151104, Control_c, 1, 64, 127
3, 151104, Note_on_c, 1, 47, 80
3, 151196, Note_off_c, 1, 47, 100
3, 151200, Note_on_c, 1, 50, 80
3, 151292, Note_off_c, 1, 50, 100
3, 151296, Note_on_c, 1, 54, 80
3, 151388, Note_off_c, 1, 54, 100
3, 151392, Note_on_c, 1, 59, 80
3, 151484, Note_off_c, 1, 59, 100
3, 151676, Control_c, 1, 64, 0
3, 151680, Control_c, 1, 64, 127
3, 151680, Note_on_c, 1, 57, 80
3, 151772, Note_off_c, 1, 57, 100
3, 151776, Note_on_c, 1, 61, 80
3, 151868, Note_off_c, 1, 61, 100
3, 151872, Note_on_c, 1, 66, 80
3, 151964, Note_off_c, 1, 66, 100
3, 151968, Note_on_c, 1, 69, 80
3, 152060, Note_off_c, 1, 69, 100
3, 152252, Control_c, 1, 64, 0
3, 152256, Control_c, 1, 64, 127
3, 152256, Note_on_c, 1, 43, 80
3, 152348, Note_off_c, 1, 43, 100
3, 152352, Note_on_c, 1, 47, 80
3, 152444, Note_off_c, 1, 47, 100
3, 152448, Note_on_c, 1, 50, 80
3, 152540, Note_off_c, 1, 50, 100
3, 152544, Note_on_c, 1, 55, 80
3, 152636, Note_off_c, 1, 55, 100
3, 152828, Control_c, 1, 64, 0
3, 152832, Control_c, 1, 64, 127
3, 152832, Note_on_c, 1, 54, 80
3, 152924, Note_off_c, 1, 54, 100
3, 152928, Note_on_c, 1, 57, 80
3, 153020, Note_off_c, 1, 57, 100
3, 153024, Note_on_c, 1, 62, 80
3, 153116, Note_off_c, 1, 62, 100
3, 153120, Note_on_c, 1, 66, 80
3, 153212, Note_off_c, 1, 66, 100
3, 153404, Control_c, 1, 64, 0
3, 153408, Control_c, 1, 64, 127
3, 153408, Note_on_c, 1, 64, 80
3, 153408, Note_on_c, 1, 52, 80
3, 153596, Note_off_c, 1, 64, 100
3, 153596, Note_off_c, 1, 52, 100
3, 153600, Note_on_c, 1, 64, 80
3, 153600, Note_on_c, 1, 52, 80
3, 153788, Note_off_c, 1, 64, 100
3, 153788, Note_off_c, 1, 52, 100
3, 153792, Note_on_c, 1, 62, 80
3, 153792, Note_on_c, 1, 50, 80
3, 153980, Note_off_c, 1, 62, 100
3, 153980, Note_off_c, 1, 50, 100
3, 153980, Control_c, 1, 64, 0
3, 153984, Control_c, 1, 64, 127
3, 153984, Note_on_c, 1, 57, 80
3, 153984, Note_on_c, 1, 45, 80
3, 154364, Note_off_c, 1, 57, 100
3, 154364, Note_off_c, 1, 45, 100
3, 154556, Control_c, 1, 64, 0
3, 154560, Control_c, 1, 64, 127
3, 154560, Note_on_c, 1, 38, 80
3, 154652, Note_off_c, 1, 38, 100
3, 154656, Note_on_c, 1, 42, 80
3, 154748, Note_off_c, 1, 42, 100
3, 154752, Note_on_c, 1, 45, 80
3, 154844, Note_off_c, 1, 45, 100
3, 154848, Note_on_c, 1, 50, 80
3, 154940, Note_off_c, 1, 50, 100
3, 155132, Control_c, 1, 64, 0
3, 155136, Control_c, 1, 64, 127
3, 155136, Note_on_c, 1, 49, 80
3, 155228, Note_off_c, 1, 49, 100
3, 155232, Note_on_c, 1, 52, 80
3, 155324, Note_off_c, 1, 52, 100
3, 155328, Note_on_c, 1, 58, 80
3, 155420, Note_off_c, 1, 58, 100
3, 155424, Note_on_c, 1, 61, 80
3, 155516, Note_off_c, 1, 61, 100
3, 155708, Control_c, 1, 64, 0
3, 155712, Control_c, 1, 64, 127
3, 155712, Note_on_c, 1, 47, 83
3, 155804, Note_off_c, 1, 47, 100
3, 155808, Note_on_c, 1, 50, 83
3, 155900, Note_off_c, 1, 50, 100
3, 155904, Note_on_c, 1, 54, 84
3, 155996, Note_off_c, 1, 54, 100
3, 156000, Note_on_c, 1, 59, 85
3, 156092, Note_off_c, 1, 59, 100
3, 156284, Control_c, 1, 64, 0
3, 156288, Control_c, 1, 64, 127
3, 156288, Note_on_c, 1, 57, 87
3, 156380, Note_off_c, 1, 57, 100
3, 156384, Note_on_c, 1, 60, 88
3, 156476, Note_off_c, 1, 60, 100
3, 156480, Note_on_c, 1, 66, 89
3, 156572, Note_off_c, 1, 66, 100
3, 156576, Note_on_c, 1, 69, 89
3, 156668, Note_off_c, 1, 69, 100
3, 156860, Control_c, 1, 64, 0
3, 156864, Control_c, 1, 64, 127
3, 156864, Note_on_c, 1, 43, 92
3, 156956, Note_off_c, 1, 43, 100
3, 156960, Note_on_c, 1, 47, 92
3, 157052, Note_off_c, 1, 47, 100
3, 157056, Note_on_c, 1, 50, 93
3, 157148, Note_off_c, 1, 50, 100
3, 157152, Note_on_c, 1, 55, 94
3, 157244, Note_off_c, 1, 55, 100
3, 157436, Control_c, 1, 64, 0
3, 157440, Control_c, 1, 64, 127
3, 157440, Note_on_c, 1, 54, 96
3, 157532, Note_off_c, 1, 54, 100
3, 157536, Note_on_c, 1, 57, 97
3, 157628, Note_off_c, 1, 57, 100
3, 157632, Note_on_c, 1, 63, 98
3, 157724, Note_off_c, 1, 63, 100
3, 157728, Note_on_c, 1, 66, 98
3, 157820, Note_off_c, 1, 66, 100
3, 158012, Control_c, 1, 64, 0
3, 158016, Control_c, 1, 64, 127
3, 158016, Note_on_c, 1, 43, 101
3, 158108, Note_off_c, 1, 43, 100
3, 158112, Note_on_c, 1, 47, 101
3, 158204, Note_off_c, 1, 47, 100
3, 158208, Note_on_c, 1, 52, 102
3, 158300, Note_off_c, 1, 52, 100
3, 158304, Note_on_c, 1, 55, 103
3, 158396, Note_off_c, 1, 55, 100
3, 158588, Control_c, 1, 64, 0
3, 158592, Control_c, 1, 64, 127
3, 158592, Note_on_c, 1, 56, 105
3, 158684, Note_off_c, 1, 56, 100
3, 158688, Note_on_c, 1, 59, 106
3, 158780, Note_off_c, 1, 59, 100
3, 158784, Note_on_c, 1, 64, 107
3, 158876, Note_off_c, 1, 64, 100
3, 158880, Note_on_c, 1, 68, 107
3, 158972, Note_off_c, 1, 68, 100
3, 159164, Control_c, 1, 64, 0
3, 159168, Control_c, 1, 64, 127
3, 159168, Note_on_c, 1, 45, 110
3, 159260, Note_off_c, 1, 45, 100
3, 159264, Note_on_c, 1, 49, 110
3, 159356, Note_off_c, 1, 49, 100
3, 159360, Note_on_c, 1, 52, 110
3, 159452, Note_off_c, 1, 52, 100
3, 159456, Note_on_c, 1, 57, 110
3, 159548, Note_off_c, 1, 57, 100
3, 159740, Control_c, 1, 64, 0
3, 159744, Control_c, 1, 64, 127
3, 159744, Note_on_c, 1, 57, 110
3, 159836, Note_off_c, 1, 57, 100
3, 159840, Note_on_c, 1, 61, 110
3, 159932, Note_off_c, 1, 61, 100
3, 159936, Note_on_c, 1, 64, 110
3, 160028, Note_off_c, 1, 64, 100
3, 160032, Note_on_c, 1, 69, 110
3, 160124, Note_off_c, 1, 69, 100
3, 160316, Control_c, 1, 64, 0
3, 160320, Control_c, 1, 64, 127
3, 160320, Note_on_c, 1, 45, 110
3, 160412, Note_off_c, 1, 45, 100
3, 160416, Note_on_c, 1, 50, 110
3, 160508, Note_off_c, 1, 50, 100
3, 160512, Note_on_c, 1, 54, 110
3, 160604, Note_off_c, 1, 54, 100
3, 160608, Note_on_c, 1, 57, 110
3, 160700, Note_off_c, 1, 57, 100
3, 160892, Control_c, 1, 64, 0
3, 160896, Control_c, 1, 64, 127
3, 160896, Note_on_c, 1, 57, 110
3, 160988, Note_off_c, 1, 57, 100
3, 160992, Note_on_c, 1, 62, 110
3, 161084, Note_off_c, 1, 62, 100
3, 161088, Note_on_c, 1, 65, 110
3, 161180, Note_off_c, 1, 65, 100
3, 161184, Note_on_c, 1, 69, 110
3, 161276, Note_off_c, 1, 69, 100
3, 161468, Control_c, 1, 64, 0
3, 161472, Control_c, 1, 64, 127
3, 161472, Note_on_c, 1, 33, 110
3, 161564, Note_off_c, 1, 33, 100
3, 161568, Note_on_c, 1, 37, 110
3, 161660, Note_off_c, 1, 37, 100
3, 161664, Note_on_c, 1, 40, 110
3, 161756, Note_off_c, 1, 40, 100
3, 161760, Note_on_c, 1, 45, 110
3, 161852, Note_off_c, 1, 45, 100
3, 162044, Control_c, 1, 64, 0
3, 162048, Control_c, 1, 64, 127
3, 162048, Note_on_c, 1, 45, 110
3, 162140, Note_off_c, 1, 45, 100
3, 162144, Note_on_c, 1, 49, 110
3, 162236, Note_off_c, 1, 49, 100
3, 162240, Note_on_c, 1, 52, 110
3, 162332, Note_off_c, 1, 52, 100
3, 162336, Note_on_c, 1, 57, 110
3, 162428, Note_off_c, 1, 57, 100
3, 162620, Control_c, 1, 64, 0
3, 162624, Control_c, 1, 64, 127
3, 162624, Note_on_c, 1, 33, 110
3, 162716, Note_off_c, 1, 33, 100
3, 162720, Note_on_c, 1, 38, 110
3, 162812, Note_off_c, 1, 38, 100
3, 162816, Note_on_c, 1, 42, 110
3, 162908, Note_off_c, 1, 42, 100
3, 162912, Note_on_c, 1, 45, 110
3, 163004, Note_off_c, 1, 45, 100
3, 163196, Control_c, 1, 64, 0
3, 163200, Control_c, 1, 64, 127
3, 163200, Note_on_c, 1, 45, 110
3, 163292, Note_off_c, 1, 45, 100
3, 163296, Note_on_c, 1, 50, 110
3, 163388, Note_off_c, 1, 50, 100
3, 163392, Note_on_c, 1, 53, 110
3, 163484, Note_off_c, 1, 53, 100
3, 163488, Note_on_c, 1, 57, 110
3, 163580, Note_off_c, 1, 57, 100
3, 163772, Control_c, 1, 64, 0
3, 163776, Control_c, 1, 64, 127
3, 163776, Note_on_c, 1, 33, 110
3, 163868, Note_off_c, 1, 33, 100
3, 163872, Note_on_c, 1, 38, 110
3, 163964, Note_off_c, 1, 38, 100
3, 163968, Note_on_c, 1, 42, 110
3, 164060, Note_off_c, 1, 42, 100
3, 164064, Note_on_c, 1, 45, 110
3, 164156, Note_off_c, 1, 45, 100
3, 164348, Control_c, 1, 64, 0
3, 164352, Control_c, 1, 64, 127
3, 164352, Note_on_c, 1, 33, 110
3, 164444, Note_off_c, 1, 33, 100
3, 164448, Note_on_c, 1, 38, 110
3, 164540, Note_off_c, 1, 38, 100
3, 164544, Note_on_c, 1, 42, 110
3, 164636, Note_off_c, 1, 42, 100
3, 164640, Note_on_c, 1, 45, 110
3, 164732, Note_off_c, 1, 45, 100
3, 164924, Control_c, 1, 64, 0
3, 164928, Control_c, 1, 64, 127
3, 164928, Note_on_c, 1, 33, 110
3, 165020, Note_off_c, 1, 33, 100
3, 165024, Note_on_c, 1, 38, 110
3, 165116, Note_off_c, 1, 38, 100
3, 165120, Note_on_c, 1, 42, 110
3, 165212, Note_off_c, 1, 42, 100
3, 165216, Note_on_c, 1, 45, 110
3, 165308, Note_off_c, 1, 45, 100
3, 165500, Control_c, 1, 64, 0
3, 165504, Control_c, 1, 64, 127
3, 165504, Note_on_c, 1, 33, 110
3, 165596, Note_off_c, 1, 33, 100
3, 165600, Note_on_c, 1, 38, 110
3, 165692, Note_off_c, 1, 38, 100
3, 165696, Note_on_c, 1, 42, 110
3, 165788, Note_off_c, 1, 42, 100
3, 165792, Note_on_c, 1, 45, 110
3, 165884, Note_off_c, 1, 45, 100
3, 166076, Control_c, 1, 64, 0
3, 166080, Note_on_c, 1, 33, 120
3, 167036, Note_off_c, 1, 33, 100
3, 169344, Note_on_c, 1, 54, 80
3, 169532, Note_off_c, 1, 54, 100
3, 169536, Note_on_c, 1, 50, 80
3, 169916, Note_off_c, 1, 50, 100
3, 169920, Note_on_c, 1, 57, 80
3, 170108, Note_off_c, 1, 57, 100
3, 170112, Note_on_c, 1, 54, 80
3, 170492, Note_off_c, 1, 54, 100
3, 170496, Note_on_c, 1, 50, 80
3, 170684, Note_off_c, 1, 50, 100
3, 170688, Note_on_c, 1, 57, 80
3, 171068, Note_off_c, 1, 57, 100
3, 171072, Note_on_c, 1, 45, 80
3, 171260, Note_off_c, 1, 45, 100
3, 171264, Note_on_c, 1, 50, 80
3, 171644, Note_off_c, 1, 50, 100
3, 173856, Note_on_c, 1, 54, 80
3, 173948, Note_off_c, 1, 54, 100
3, 173952, Note_on_c, 1, 53, 80
3, 174044, Note_off_c, 1, 53, 100
3, 174048, Note_on_c, 1, 54, 80
3, 174140, Note_off_c, 1, 54, 100
3, 174144, Note_on_c, 1, 50, 80
3, 174332, Note_off_c, 1, 50, 100
3, 174432, Note_on_c, 1, 57, 80
3, 174524, Note_off_c, 1, 57, 100
3, 174528, Note_on_c, 1, 56, 80
3, 174620, Note_off_c, 1, 56, 100
3, 174624, Note_on_c, 1, 57, 80
3, 174716, Note_off_c, 1, 57, 100
3, 174720, Note_on_c, 1, 54, 80
3, 174908, Note_off_c, 1, 54, 100
3, 175104, Note_on_c, 1, 50, 80
3, 175292, Note_off_c, 1, 50, 100
3, 175296, Note_on_c, 1, 57, 80
3, 175676, Note_off_c, 1, 57, 100
3, 175680, Note_on_c, 1, 45, 80
3, 175868, Note_off_c, 1, 45, 100
3, 175872, Note_on_c, 1, 50, 80
3, 176252, Note_off_c, 1, 50, 100
3, 176256, Note_on_c, 1, 42, 80
3, 176444, Note_off_c, 1, 42, 100
3, 176448, Note_on_c, 1, 43, 80
3, 176828, Note_off_c, 1, 43, 100
3, 176832, Note_on_c, 1, 33, 80
3, 177020, Note_off_c, 1, 33, 100
3, 177024, Note_on_c, 1, 38, 80
3, 177404, Note_off_c, 1, 38, 100
3, 177408, Note_on_c, 1, 54, 80
3, 177596, Note_off_c, 1, 54, 100
3, 177600, Note_on_c, 1, 57, 80
3, 177980, Note_off_c, 1, 57, 100
3, 177984, Note_on_c, 1, 45, 80
3, 178172, Note_off_c, 1, 45, 100
3, 178176, Note_on_c, 1, 50, 81
3, 178556, Note_off_c, 1, 50, 100
3, 178560, Note_on_c, 1, 42, 84
3, 178748, Note_off_c, 1, 42, 100
3, 178752, Note_on_c, 1, 43, 85
3, 179132, Note_off_c, 1, 43, 100
3, 179136, Note_on_c, 1, 33, 88
3, 179324, Note_off_c, 1, 33, 100
3, 179328, Note_on_c, 1, 38, 89
3, 179708, Note_off_c, 1, 38, 100
3, 179712, Note_on_c, 1, 38, 92
3, 179900, Note_off_c, 1, 38, 100
3, 179904, Note_on_c, 1, 45, 94
3, 180284, Note_off_c, 1, 45, 100
3, 180288, Note_on_c, 1, 33, 97
3, 180476, Note_off_c, 1, 33, 100
3, 180480, Note_on_c, 1, 38, 98
3, 180860, Note_off_c, 1, 38, 100
3, 180864, Note_on_c, 1, 38, 101
3, 181052, Note_off_c, 1, 38, 100
3, 181056, Note_on_c, 1, 45, 102
3, 181436, Note_off_c, 1, 45, 100
3, 181440, Note_on_c, 1, 33, 105
3, 181628, Note_off_c, 1, 33, 100
3, 181632, Note_on_c, 1, 38, 107
3, 182012, Note_off_c, 1, 38, 100
3, 182016, Note_on_c, 1, 35, 109
3, 182016, Note_on_c, 1, 47, 109
3, 182204, Note_off_c, 1, 35, 100
3, 182204, Note_off_c, 1, 47, 100
3, 182208, Note_on_c, 1, 43, 110
3, 182208, Note_on_c, 1, 31, 110
3, 183356, Note_off_c, 1, 43, 100
3, 183356, Note_off_c, 1, 31, 100
3, 183360, Note_on_c, 1, 45, 110
3, 183360, Note_on_c, 1, 33, 110
3, 184508, Note_off_c, 1, 45, 100
3, 184508, Note_off_c, 1, 33, 100
3, 184512, Note_on_c, 1, 50, 110
3, 184512, Note_on_c, 1, 38, 110
3, 185084, Note_off_c, 1, 38, 100
3, 185088, Note_on_c, 1, 49, 110
3, 185276, Note_off_c, 1, 49, 100
3, 185280, Note_on_c, 1, 47, 110
3, 185468, Note_off_c, 1, 47, 100
3, 185472, Note_on_c, 1, 45, 110
3, 185660, Note_off_c, 1, 45, 100
3, 185664, Note_on_c, 1, 47, 110
3, 185852, Note_off_c, 1, 47, 100
3, 185856, Note_on_c, 1, 45, 110
3, 186044, Note_off_c, 1, 45, 100
3, 186048, Note_on_c, 1, 43, 110
3, 186236, Note_off_c, 1, 43, 100
3, 186240, Note_on_c, 1, 42, 110
3, 186428, Note_off_c, 1, 42, 100
3, 186432, Note_on_c, 1, 43, 110
3, 186620, Note_off_c, 1, 43, 100
3, 186624, Note_on_c, 1, 45, 110
3, 186812, Note_off_c, 1, 50, 100
3, 186812, Note_off_c, 1, 45, 100
3, 186816, Note_on_c, 1, 50, 110
3, 186816, Note_on_c, 1, 38, 110
3, 187388, Note_off_c, 1, 38, 100
3, 187392, Note_on_c, 1, 49, 110
3, 187580, Note_off_c, 1, 49, 100
3, 187584, Note_on_c, 1, 47, 110
3, 187772, Note_off_c, 1, 47, 100
3, 187776, Note_on_c, 1, 45, 110
3, 187964, Note_off_c, 1, 45, 100
3, 187968, Note_on_c, 1, 47, 110
3, 188156, Note_off_c, 1, 47, 100
3, 188160, Note_on_c, 1, 45, 110
3, 188348, Note_off_c, 1, 45, 100
3, 188352, Note_on_c, 1, 43, 110
3, 188540, Note_off_c, 1, 43, 100
3, 188544, Note_on_c, 1, 42, 110
3, 188732, Note_off_c, 1, 42, 100
3, 188736, Note_on_c, 1, 43, 110
3, 188924, Note_off_c, 1, 43, 100
3, 188928, Note_on_c, 1, 45, 110
3, 189116, Note_off_c, 1, 50, 100
3, 189116, Note_off_c, 1, 45, 100
3, 189120, Note_on_c, 1, 50, 110
3, 189120, Note_on_c, 1, 38, 110
3, 189692, Note_off_c, 1, 38, 100
3, 189696, Note_on_c, 1, 48, 110
3, 189884, Note_off_c, 1, 48, 100
3, 189888, Note_on_c, 1, 47, 110
3, 190076, Note_off_c, 1, 47, 100
3, 190080, Note_on_c, 1, 45, 110
3, 190268, Note_off_c, 1, 45, 100
3, 190272, Note_on_c, 1, 43, 110
3, 190460, Note_off_c, 1, 43, 100
3, 190464, Note_on_c, 1, 42, 110
3, 190652, Note_off_c, 1, 42, 100
3, 190656, Note_on_c, 1, 40, 110
3, 190844, Note_off_c, 1, 40, 100
3, 190848, Note_on_c, 1, 38, 110
3, 191036, Note_off_c, 1, 38, 100
3, 191040, Note_on_c, 1, 36, 110
3, 191040, Note_on_c, 1, 48, 110
3, 191228, Note_off_c, 1, 36, 100
3, 191228, Note_off_c, 1, 48, 100
3, 191232, Note_on_c, 1, 35, 110
3, 191232, Note_on_c, 1, 47, 110
3, 191420, Note_off_c, 1, 50, 100
3, 191420, Note_off_c, 1, 35, 100
3, 191420, Note_off_c, 1, 47, 100
3, 191424, Note_on_c, 1, 36, 110
3, 191424, Note_on_c, 1, 48, 110
3, 191804, Note_off_c, 1, 36, 100
3, 191804, Note_off_c, 1, 48, 100
3, 192576, Note_on_c, 1, 37, 110
3, 192576, Note_on_c, 1, 49, 110
3, 192956, Note_off_c, 1, 37, 100
3, 192956, Note_off_c, 1, 49, 100
3, 194688, Note_on_c, 1, 50, 70
3, 194876, Note_off_c, 1, 50, 100
3, 194880, Note_on_c, 1, 43, 70
3, 195260, Note_off_c, 1, 43, 100
3, 195264, Note_on_c, 1, 50, 70
3, 195452, Note_off_c, 1, 50, 100
3, 195456, Note_on_c, 1, 43, 70
3, 195836, Note_off_c, 1, 43, 100
3, 195840, Note_on_c, 1, 52, 70
3, 196028, Note_off_c, 1, 52, 100
3, 196032, Note_on_c, 1, 43, 70
3, 196412, Note_off_c, 1, 43, 100
3, 196416, Note_on_c, 1, 54, 70
3, 196604, Note_off_c, 1, 54, 100
3, 196608, Note_on_c, 1, 43, 70
3, 196988, Note_off_c, 1, 43, 100
3, 196992, Note_on_c, 1, 55, 70
3, 197180, Note_off_c, 1, 55, 100
3, 197184, Note_on_c, 1, 43, 70
3, 197564, Note_off_c, 1, 43, 100
3, 197568, Note_on_c, 1, 47, 70
3, 197756, Note_off_c, 1, 47, 100
3, 197760, Note_on_c, 1, 43, 70
3, 198140, Note_off_c, 1, 43, 100
3, 198144, Note_on_c, 1, 48, 70
3, 198332, Note_off_c, 1, 48, 100
3, 198336, Note_on_c, 1, 43, 70
3, 198716, Note_off_c, 1, 43, 100
3, 198720, Note_on_c, 1, 50, 70
3, 198908, Note_off_c, 1, 50, 100
3, 198912, Note_on_c, 1, 43, 70
3, 199292, Note_off_c, 1, 43, 100
3, 199296, Note_on_c, 1, 55, 70
3, 199484, Note_off_c, 1, 55, 100
3, 199488, Note_on_c, 1, 43, 70
3, 199868, Note_off_c, 1, 43, 100
3, 199872, Note_on_c, 1, 50, 70
3, 200060, Note_off_c, 1, 50, 100
3, 200064, Note_on_c, 1, 43, 70
3, 200444, Note_off_c, 1, 43, 100
3, 200448, Note_on_c, 1, 52, 70
3, 200636, Note_off_c, 1, 52, 100
3, 200640, Note_on_c, 1, 43, 70
3, 201020, Note_off_c, 1, 43, 100
3, 201024, Note_on_c, 1, 54, 70
3, 201212, Note_off_c, 1, 54, 100
3, 201216, Note_on_c, 1, 43, 70
3, 201596, Note_off_c, 1, 43, 100
3, 201600, Note_on_c, 1, 55, 70
3, 201788, Note_off_c, 1, 55, 100
3, 201792, Note_on_c, 1, 44, 70
3, 202172, Note_off_c, 1, 44, 100
3, 202176, Note_on_c, 1, 56, 71
3, 202364, Note_off_c, 1, 56, 100
3, 202368, Note_on_c, 1, 45, 72
3, 202748, Note_off_c, 1, 45, 100
3, 202752, Note_on_c, 1, 57, 74
3, 202940, Note_off_c, 1, 57, 100
3, 202944, Note_on_c, 1, 46, 75
3, 203324, Note_off_c, 1, 46, 100
3, 203328, Note_on_c, 1, 58, 77
3, 203516, Note_off_c, 1, 58, 100
3, 203520, Note_on_c, 1, 47, 78
3, 203900, Note_off_c, 1, 47, 100
3, 203904, Note_on_c, 1, 59, 79
3, 204092, Note_off_c, 1, 59, 100
3, 204096, Note_on_c, 1, 45, 80
3, 204476, Note_off_c, 1, 45, 100
3, 204480, Note_on_c, 1, 57, 81
3, 204668, Note_off_c, 1, 57, 100
3, 204672, Note_on_c, 1, 45, 82
3, 205052, Note_off_c, 1, 45, 100
3, 205056, Note_on_c, 1, 57, 84
3, 205244, Note_off_c, 1, 57, 100
3, 205248, Note_on_c, 1, 45, 85
3, 205628, Note_off_c, 1, 45, 100
3, 205632, Note_on_c, 1, 57, 86
3, 205820, Note_off_c, 1, 57, 100
3, 205824, Note_on_c, 1, 45, 87
3, 206204, Note_off_c, 1, 45, 100
3, 206208, Note_on_c, 1, 57, 89
3, 206396, Note_off_c, 1, 57, 100
3, 206400, Note_on_c, 1, 45, 90
3, 206780, Note_off_c, 1, 45, 100
3, 206784, Note_on_c, 1, 57, 91
3, 206972, Note_off_c, 1, 57, 100
3, 206976, Note_on_c, 1, 45, 92
3, 207356, Note_off_c, 1, 45, 100
3, 207360, Note_on_c, 1, 57, 94
3, 207548, Note_off_c, 1, 57, 100
3, 207552, Note_on_c, 1, 45, 95
3, 207932, Note_off_c, 1, 45, 100
3, 207936, Note_on_c, 1, 57, 97
3, 208124, Note_off_c, 1, 57, 100
3, 208128, Note_on_c, 1, 45, 97
3, 208508, Note_off_c, 1, 45, 100
3, 208512, Note_on_c, 1, 57, 99
3, 208700, Note_off_c, 1, 57, 100
3, 208704, Note_on_c, 1, 45, 100
3, 209084, Note_off_c, 1, 45, 100
3, 209088, Note_on_c, 1, 57, 102
3, 209276, Note_off_c, 1, 57, 100
3, 209280, Note_on_c, 1, 45, 103
3, 209660, Note_off_c, 1, 45, 100
3, 209664, Note_on_c, 1, 57, 104
3, 209852, Note_off_c, 1, 57, 100
3, 209856, Note_on_c, 1, 45, 105
3, 210236, Note_off_c, 1, 45, 100
3, 210240, Note_on_c, 1, 57, 107
3, 210428, Note_off_c, 1, 57, 100
3, 210432, Note_on_c, 1, 45, 108
3, 210812, Note_off_c, 1, 45, 100
3, 210816, Note_on_c, 1, 57, 109
3, 211004, Note_off_c, 1, 57, 100
3, 211008, Note_on_c, 1, 45, 110
3, 211196, Note_off_c, 1, 45, 100
3, 211200, Note_on_c, 1, 57, 110
3, 211388, Note_off_c, 1, 57, 100
3, 211392, Note_on_c, 1, 45, 110
3, 211580, Note_off_c, 1, 45, 100
3, 211584, Note_on_c, 1, 57, 110
3, 211772, Note_off_c, 1, 57, 100
3, 211776, Note_on_c, 1, 45, 110
3, 211964, Note_off_c, 1, 45, 100
3, 211968, Note_on_c, 1, 57, 110
3, 212156, Note_off_c, 1, 57, 100
3, 212160, Note_on_c, 1, 33, 110
3, 212348, Note_off_c, 1, 33, 100
3, 212352, Note_on_c, 1, 45, 110
3, 212540, Note_off_c, 1, 45, 100
3, 212544, Note_on_c, 1, 33, 110
3, 212732, Note_off_c, 1, 33, 100
3, 212736, Note_on_c, 1, 45, 110
3, 212924, Note_off_c, 1, 45, 100
3, 212928, Note_on_c, 1, 33, 110
3, 213116, Note_off_c, 1, 33, 100
3, 213120, Note_on_c, 1, 45, 110
3, 213308, Note_off_c, 1, 45, 100
3, 213312, Note_on_c, 1, 33, 110
3, 213500, Note_off_c, 1, 33, 100
3, 213504, Note_on_c, 1, 45, 110
3, 213692, Note_off_c, 1, 45, 100
3, 213696, Note_on_c, 1, 33, 110
3, 213884, Note_off_c, 1, 33, 100
3, 213888, Note_on_c, 1, 45, 110
3, 214076, Note_off_c, 1, 45, 100
3, 214080, Note_on_c, 1, 33, 110
3, 214268, Note_off_c, 1, 33, 100
3, 214272, Note_on_c, 1, 45, 110
3, 214460, Note_off_c, 1, 45, 100
3, 214464, Note_on_c, 1, 33, 110
3, 214652, Note_off_c, 1, 33, 100
3, 214656, Note_on_c, 1, 45, 110
3, 214844, Note_off_c, 1, 45, 100
3, 214848, Note_on_c, 1, 33, 110
3, 215036, Note_off_c, 1, 33, 100
3, 215040, Note_on_c, 1, 45, 110
3, 215228, Note_off_c, 1, 45, 100
3, 215232, Note_on_c, 1, 33, 110
3, 215420, Note_off_c, 1, 33, 100
3, 215424, Note_on_c, 1, 45, 110
3, 215612, Note_off_c, 1, 45, 100
3, 215616, Control_c, 1, 64, 127
3, 215616, Note_on_c, 1, 33, 120
3, 215712, Note_on_c, 1, 37, 120
3, 215804, Note_off_c, 1, 33, 100
3, 215808, Note_on_c, 1, 40, 120
3, 215900, Note_off_c, 1, 37, 100
3, 215904, Note_on_c, 1, 43, 120
3, 215996, Note_off_c, 1, 40, 100
3, 216092, Note_off_c, 1, 43, 100
3, 216192, Note_on_c, 1, 45, 120
3, 216288, Note_on_c, 1, 49, 120
3, 216380, Note_off_c, 1, 45, 100
3, 216384, Note_on_c, 1, 52, 120
3, 216476, Note_off_c, 1, 49, 100
3, 216480, Note_on_c, 1, 55, 120
3, 216572, Note_off_c, 1, 52, 100
3, 216668, Note_off_c, 1, 55, 100
3, 217148, Control_c, 1, 64, 0
3, 217920, Note_on_c, 1, 45, 80
3, 218016, Note_on_c, 1, 49, 80
3, 218108, Note_off_c, 1, 45, 100
3, 218112, Note_on_c, 1, 52, 80
3, 218204, Note_off_c, 1, 49, 100
3, 218208, Note_on_c, 1, 55, 80
3, 218300, Note_off_c, 1, 52, 100
3, 218396, Note_off_c, 1, 55, 100
3, 218496, Note_on_c, 1, 57, 80
3, 218592, Note_on_c, 1, 61, 80
3, 218684, Note_off_c, 1, 57, 100
3, 218688, Note_on_c, 1, 64, 80
3, 218780, Note_off_c, 1, 61, 100
3, 218784, Note_on_c, 1, 67, 80
3, 218876, Note_off_c, 1, 64, 100
3, 218972, Note_off_c, 1, 67, 100
3, 220224, Note_on_c, 1, 57, 80
3, 220320, Note_on_c, 1, 61, 80
3, 220412, Note_off_c, 1, 57, 100
3, 220416, Note_on_c, 1, 64, 80
3, 220508, Note_off_c, 1, 61, 100
3, 220512, Note_on_c, 1, 67, 79
3, 220604, Note_off_c, 1, 64, 100
3, 220700, Note_off_c, 1, 67, 100
3, 221376, Note_on_c, 1, 57, 76
3, 221472, Note_on_c, 1, 61, 75
3, 221564, Note_off_c, 1, 57, 100
3, 221568, Note_on_c, 1, 64, 75
3, 221660, Note_off_c, 1, 61, 100
3, 221664, Note_on_c, 1, 67, 74
3, 221756, Note_off_c, 1, 64, 100
3, 221852, Note_off_c, 1, 67, 100
3, 223488, Note_on_c, 1, 57, 80
3, 223488, Note_on_c, 1, 45, 80
3, 223676, Note_off_c, 1, 57, 100
3, 223676, Note_off_c, 1, 45, 100
3, 223680, Note_on_c, 1, 50, 80
3, 223680, Note_on_c, 1, 38, 80
3, 224060, Note_off_c, 1, 50, 100
3, 224060, Note_off_c, 1, 38, 100
3, 224064, Note_on_c, 1, 57, 82
3, 224064, Note_on_c, 1, 45, 82
3, 224252, Note_off_c, 1, 57, 100
3, 224252, Note_off_c, 1, 45, 100
3, 224256, Note_on_c, 1, 50, 83
3, 224256, Note_on_c, 1, 38, 83
3, 224636, Note_off_c, 1, 50, 100
3, 224636, Note_off_c, 1, 38, 100
3, 224640, Note_on_c, 1, 59, 84
3, 224640, Note_on_c, 1, 47, 84
3, 224828, Note_off_c, 1, 59, 100
3, 224828, Note_off_c, 1, 47, 100
3, 224832, Note_on_c, 1, 50, 85
3, 224832, Note_on_c, 1, 38, 85
3, 225212, Note_off_c, 1, 50, 100
3, 225212, Note_off_c, 1, 38, 100
3, 225216, Note_on_c, 1, 61, 87
3, 225216, Note_on_c, 1, 49, 87
3, 225404, Note_off_c, 1, 61, 100
3, 225404, Note_off_c, 1, 49, 100
3, 225408, Note_on_c, 1, 50, 88
3, 225408, Note_on_c, 1, 38, 88
3, 225788, Note_off_c, 1, 50, 100
3, 225788, Note_off_c, 1, 38, 100
3, 225792, Note_on_c, 1, 62, 89
3, 225792, Note_on_c, 1, 50, 89
3, 225980, Note_off_c, 1, 62, 100
3, 225980, Note_off_c, 1, 50, 100
3, 225984, Note_on_c, 1, 50, 90
3, 225984, Note_on_c, 1, 38, 90
3, 226364, Note_off_c, 1, 50, 100
3, 226364, Note_off_c, 1, 38, 100
3, 226368, Note_on_c, 1, 54, 92
3, 226368, Note_on_c, 1, 42, 92
3, 226556, Note_off_c, 1, 54, 100
3, 226556, Note_off_c, 1, 42, 100
3, 226560, Note_on_c, 1, 50, 92
3, 226560, Note_on_c, 1, 38, 92
3, 226940, Note_off_c, 1, 50, 100
3, 226940, Note_off_c, 1, 38, 100
3, 226944, Note_on_c, 1, 55, 94
3, 226944, Note_on_c, 1, 43, 94
3, 227132, Note_off_c, 1, 55, 100
3, 227132, Note_off_c, 1, 43, 100
3, 227136, Note_on_c, 1, 50, 95
3, 227136, Note_on_c, 1, 38, 95
3, 227516, Note_off_c, 1, 50, 100
3, 227516, Note_off_c, 1, 38, 100
3, 227520, Note_on_c, 1, 57, 97
3, 227520, Note_on_c, 1, 45, 97
3, 227708, Note_off_c, 1, 57, 100
3, 227708, Note_off_c, 1, 45, 100
3, 227712, Note_on_c, 1, 38, 97
3, 227712, Note_on_c, 1, 50, 97
3, 228092, Note_off_c, 1, 38, 100
3, 228092, Note_off_c, 1, 50, 100
3, 228096, Note_on_c, 1, 62, 99
3, 228096, Note_on_c, 1, 50, 99
3, 228284, Note_off_c, 1, 62, 100
3, 228284, Note_off_c, 1, 50, 100
3, 228288, Note_on_c, 1, 50, 100
3, 228288, Note_on_c, 1, 38, 100
3, 228668, Note_off_c, 1, 50, 100
3, 228668, Note_off_c, 1, 38, 100
3, 228672, Note_on_c, 1, 57, 101
3, 228672, Note_on_c, 1, 45, 101
3, 228860, Note_off_c, 1, 57, 100
3, 228860, Note_off_c, 1, 45, 100
3, 228864, Note_on_c, 1, 50, 102
3, 228864, Note_on_c, 1, 38, 102
3, 229244, Note_off_c, 1, 50, 100
3, 229244, Note_off_c, 1, 38, 100
3, 229248, Note_on_c, 1, 59, 104
3, 229248, Note_on_c, 1, 47, 104
3, 229436, Note_off_c, 1, 59, 100
3, 229436, Note_off_c, 1, 47, 100
3, 229440, Note_on_c, 1, 50, 105
3, 229440, Note_on_c, 1, 38, 105
3, 229820, Note_off_c, 1, 50, 100
3, 229820, Note_off_c, 1, 38, 100
3, 229824, Note_on_c, 1, 61, 106
3, 229824, Note_on_c, 1, 49, 106
3, 230012, Note_off_c, 1, 61, 100
3, 230012, Note_off_c, 1, 49, 100
3, 230016, Note_on_c, 1, 50, 107
3, 230016, Note_on_c, 1, 38, 107
3, 230396, Note_off_c, 1, 50, 100
3, 230396, Note_off_c, 1, 38, 100
3, 230400, Note_on_c, 1, 62, 109
3, 230400, Note_on_c, 1, 50, 109
3, 230588, Note_off_c, 1, 62, 100
3, 230588, Note_off_c, 1, 50, 100
3, 230592, Note_on_c, 1, 50, 110
3, 230592, Note_on_c, 1, 38, 110
3, 230972, Note_off_c, 1, 50, 100
3, 230972, Note_off_c, 1, 38, 100
3, 230976, Note_on_c, 1, 54, 110
3, 230976, Note_on_c, 1, 42, 110
3, 231164, Note_off_c, 1, 54, 100
3, 231164, Note_off_c, 1, 42, 100
3, 231168, Note_on_c, 1, 50, 110
3, 231168, Note_on_c, 1, 38, 110
3, 231548, Note_off_c, 1, 50, 100
3, 231548, Note_off_c, 1, 38, 100
3, 231552, Note_on_c, 1, 55, 110
3, 231552, Note_on_c, 1, 43, 110
3, 231740, Note_off_c, 1, 55, 100
3, 231740, Note_off_c, 1, 43, 100
3, 231744, Note_on_c, 1, 50, 110
3, 231744, Note_on_c, 1, 38, 110
3, 232124, Note_off_c, 1, 50, 100
3, 232124, Note_off_c, 1, 38, 100
3, 232128, Note_on_c, 1, 57, 110
3, 232128, Note_on_c, 1, 45, 110
3, 232316, Note_off_c, 1, 57, 100
3, 232316, Note_off_c, 1, 45, 100
3, 232320, Note_on_c, 1, 38, 110
3, 232320, Note_on_c, 1, 50, 110
3, 232700, Note_off_c, 1, 38, 100
3, 232700, Note_off_c, 1, 50, 100
3, 232704, Note_on_c, 1, 62, 110
3, 232704, Note_on_c, 1, 50, 110
3, 232892, Note_off_c, 1, 62, 100
3, 232892, Note_off_c, 1, 50, 100
3, 232896, Note_on_c, 1, 50, 110
3, 232896, Note_on_c, 1, 38, 110
3, 233276, Note_off_c, 1, 50, 100
3, 233276, Note_off_c, 1, 38, 100
3, 233280, Note_on_c, 1, 54, 110
3, 233280, Note_on_c, 1, 42, 110
3, 233468, Note_off_c, 1, 54, 100
3, 233468, Note_off_c, 1, 42, 100
3, 233472, Note_on_c, 1, 50, 110
3, 233472, Note_on_c, 1, 38, 110
3, 233852, Note_off_c, 1, 50, 100
3, 233852, Note_off_c, 1, 38, 100
3, 233856, Note_on_c, 1, 55, 110
3, 233856, Note_on_c, 1, 43, 110
3, 234044, Note_off_c, 1, 55, 100
3, 234044, Note_off_c, 1, 43, 100
3, 234048, Note_on_c, 1, 50, 110
3, 234048, Note_on_c, 1, 38, 110
3, 234428, Note_off_c, 1, 50, 100
3, 234428, Note_off_c, 1, 38, 100
3, 234432, Note_on_c, 1, 57, 110
3, 234432, Note_on_c, 1, 45, 110
3, 234620, Note_off_c, 1, 57, 100
3, 234620, Note_off_c, 1, 45, 100
3, 234624, Note_on_c, 1, 38, 110
3, 234624, Note_on_c, 1, 50, 110
3, 235004, Note_off_c, 1, 38, 100
3, 235004, Note_off_c, 1, 50, 100
3, 235008, Note_on_c, 1, 62, 110
3, 235008, Note_on_c, 1, 50, 110
3, 235196, Note_off_c, 1, 62, 100
3, 235196, Note_off_c, 1, 50, 100
3, 235200, Note_on_c, 1, 50, 110
3, 235200, Note_on_c, 1, 38, 110
3, 235580, Note_off_c, 1, 50, 100
3, 235580, Note_off_c, 1, 38, 100
3, 235584, Note_on_c, 1, 54, 110
3, 235584, Note_on_c, 1, 42, 110
3, 235772, Note_off_c, 1, 54, 100
3, 235772, Note_off_c, 1, 42, 100
3, 235776, Note_on_c, 1, 50, 110
3, 235776, Note_on_c, 1, 38, 110
3, 236156, Note_off_c, 1, 50, 100
3, 236156, Note_off_c, 1, 38, 100
3, 236160, Note_on_c, 1, 55, 110
3, 236160, Note_on_c, 1, 43, 110
3, 236348, Note_off_c, 1, 55, 100
3, 236348, Note_off_c, 1, 43, 100
3, 236352, Note_on_c, 1, 50, 110
3, 236352, Note_on_c, 1, 38, 110
3, 236732, Note_off_c, 1, 50, 100
3, 236732, Note_off_c, 1, 38, 100
3, 236736, Note_on_c, 1, 57, 110
3, 236736, Note_on_c, 1, 45, 110
3, 236924, Note_off_c, 1, 57, 100
3, 236924, Note_off_c, 1, 45, 100
3, 236928, Note_on_c, 1, 38, 110
3, 236928, Note_on_c, 1, 50, 110
3, 237308, Note_off_c, 1, 38, 100
3, 237308, Note_off_c, 1, 50, 100
3, 237312, Note_on_c, 1, 62, 110
3, 237312, Note_on_c, 1, 50, 110
3, 237500, Note_off_c, 1, 62, 100
3, 237500, Note_off_c, 1, 50, 100
3, 237504, Note_on_c, 1, 50, 110
3, 237504, Note_on_c, 1, 38, 110
3, 237884, Note_off_c, 1, 50, 100
3, 237884, Note_off_c, 1, 38, 100
3, 237888, Note_on_c, 1, 57, 110
3, 237888, Note_on_c, 1, 45, 110
3, 238076, Note_off_c, 1, 57, 100
3, 238076, Note_off_c, 1, 45, 100
3, 238080, Note_on_c, 1, 38, 110
3, 238080, Note_on_c, 1, 50, 110
3, 238460, Note_off_c, 1, 38, 100
3, 238460, Note_off_c, 1, 50, 100
3, 238464, Note_on_c, 1, 62, 110
3, 238464, Note_on_c, 1, 50, 110
3, 238652, Note_off_c, 1, 62, 100
3, 238652, Note_off_c, 1, 50, 100
3, 238656, Note_on_c, 1, 50, 110
3, 238656, Note_on_c, 1, 38, 110
3, 239036, Note_off_c, 1, 50, 100
3, 239036, Note_off_c, 1, 38, 100
3, 239040, Note_on_c, 1, 57, 113
3, 239040, Note_on_c, 1, 45, 113
3, 239228, Note_off_c, 1, 57, 100
3, 239228, Note_off_c, 1, 45, 100
3, 239232, Note_on_c, 1, 38, 114
3, 239232, Note_on_c, 1, 50, 114
3, 239612, Note_off_c, 1, 38, 100
3, 239612, Note_off_c, 1, 50, 100
3, 239616, Note_on_c, 1, 57, 118
3, 239616, Note_on_c, 1, 45, 118
3, 239804, Note_off_c, 1, 57, 100
3, 239804, Note_off_c, 1, 45, 100
3, 239808, Note_on_c, 1, 50, 120
3, 239808, Note_on_c, 1, 38, 120
3, 240188, Note_off_c, 1, 50, 100
3, 240188, Note_off_c, 1, 38, 100
3, 240384, Note_on_c, 1, 62, 120
3, 240480, Note_on_c, 1, 69, 120
3, 240572, Note_off_c, 1, 62, 100
3, 240576, Note_on_c, 1, 66, 120
3, 240668, Note_off_c, 1, 69, 100
3, 240672, Note_on_c, 1, 62, 120
3, 240764, Note_off_c, 1, 66, 100
3, 240768, Note_on_c, 1, 57, 120
3, 240860, Note_off_c, 1, 62, 100
3, 240864, Note_on_c, 1, 66, 120
3, 240956, Note_off_c, 1, 57, 100
3, 240960, Note_on_c, 1, 62, 120
3, 241052, Note_off_c, 1, 66, 100
3, 241056, Note_on_c, 1, 57, 120
3, 241148, Note_off_c, 1, 62, 100
3, 241152, Note_on_c, 1, 54, 120
3, 241244, Note_off_c, 1, 57, 100
3, 241248, Note_on_c, 1, 62, 120
3, 241340, Note_off_c, 1, 54, 100
3, 241344, Note_on_c, 1, 57, 120
3, 241436, Note_off_c, 1, 62, 100
3, 241440, Note_on_c, 1, 54, 120
3, 241532, Note_off_c, 1, 57, 100
3, 241536, Note_on_c, 1, 50, 120
3, 241628, Note_off_c, 1, 54, 100
3, 241632, Note_on_c, 1, 57, 120
3, 241724, Note_off_c, 1, 50, 100
3, 241728, Note_on_c, 1, 54, 120
3, 241820, Note_off_c, 1, 57, 100
3, 241824, Note_on_c, 1, 50, 120
3, 241916, Note_off_c, 1, 54, 100
3, 241920, Note_on_c, 1, 45, 120
3, 242012, Note_off_c, 1, 50, 100
3, 242016, Note_on_c, 1, 42, 120
3, 242108, Note_off_c, 1, 45, 100
3, 242112, Note_on_c, 1, 38, 120
3, 242204, Note_off_c, 1, 42, 100
3, 242492, Note_off_c, 1, 38, 100
3, 242688, Note_on_c, 1, 64, 120
3, 242688, Note_on_c, 1, 57, 120
3, 243068, Note_off_c, 1, 64, 100
3, 243068, Note_off_c, 1, 57, 100
3, 243264, Note_on_c, 1, 62, 120
3, 243264, Note_on_c, 1, 50, 120
3, 244028, Note_off_c, 1, 62, 100
3, 244028, Note_off_c, 1, 50, 100
3, 244028, End_track
0, 0, End_of_file
