0, 0, Header, 1, 3, 384
1, 0, Start_track
1, 0, Title_t, "L.v.Beethoven 2mov - Piano Sonata No.15 in D Major Op.28\000"
1, 0, Copyright_t, "Copyright(C) 1995-2009, Suzuki Software\000"
1, 0, Sequencer_specific, 9, 67, 123, 0, 88, 70, 48, 50, 0, 1
1, 0, Text_t, "XFhd:2000/06/18:JP:Classical::::L.v.Beethoven:::Kaoru Suzuki\000"
1, 0, Text_t, "XFln:JP:\203s\203A\203m\203\\\203i\203^\221æ15\224Ô\203j\222·\222²\215ì\225i28\201`\221æ2\212y\217Í:L.v.\203x\201[\203g\201[\203\224\203F\203\223:::\227é\202¿\202á\202ñ:\227é\202¿\202á\202ñ\000"
1, 0, Time_signature, 2, 2, 96, 8
1, 0, Sequencer_specific, 3, 0, 0, 65
1, 0, Sequencer_specific, 5, 0, 0, 119, 14, 0
1, 0, Tempo, 1333333
1, 32256, Tempo, 1395348
1, 32640, Tempo, 1463414
1, 32832, Tempo, 1578947
1, 33792, Tempo, 1200000
1, 36672, Tempo, 1333333
1, 36864, Tempo, 1200000
1, 37632, Tempo, 1333333
1, 38016, Tempo, 1200000
1, 42624, Tempo, 1395348
1, 42816, Tempo, 1500000
1, 43008, Tempo, 1250000
1, 43776, Tempo, 1395348
1, 44160, Tempo, 1250000
1, 44544, Tempo, 1200000
1, 46080, Tempo, 1395348
1, 46464, Tempo, 1250000
1, 46848, Tempo, 1395348
1, 47232, Tempo, 1250000
1, 48000, Tempo, 1200000
1, 48768, Tempo, 1276595
1, 48960, Tempo, 1395348
1, 49152, Tempo, 1250000
1, 49536, Tempo, 1200000
1, 52032, Tempo, 1276595
1, 52224, Tempo, 1395348
1, 52608, Tempo, 1276595
1, 52992, Tempo, 1395348
1, 53376, Tempo, 1250000
1, 54144, Tempo, 1200000
1, 54912, Tempo, 1276595
1, 55104, Tempo, 1333333
1, 55296, Tempo, 1200000
1, 57600, Tempo, 1333333
1, 57792, Tempo, 1395348
1, 57984, Tempo, 1500000
1, 58368, Tempo, 1304347
1, 79872, Tempo, 1395348
1, 81408, Tempo, 1304347
1, 90048, Tempo, 1363636
1, 90240, Tempo, 1500000
1, 90336, Tempo, 1395348
1, 90432, Tempo, 1333333
1, 91392, Tempo, 1395348
1, 91584, Tempo, 1500000
1, 91776, Tempo, 1621621
1, 92160, Tempo, 1333333
1, 94080, Tempo, 1395348
1, 94272, Tempo, 1500000
1, 95232, Tempo, 1395348
1, 95616, Tempo, 1500000
1, 95808, Tempo, 1621621
1, 96768, Tempo, 1428571
1, 97536, Tempo, 1363636
1, 98688, Tempo, 1304347
1, 99072, Tempo, 1333333
1, 99456, Tempo, 1363636
1, 99840, Tempo, 1395348
1, 100416, Tempo, 1428571
1, 104256, Tempo, 2000000
1, 104344, Tempo, 2500000
1, 104344, End_track
2, 0, Start_track
2, 0, Title_t, "Right"
2, 0, Control_c, 0, 0, 0
2, 0, Program_c, 0, 0
2, 0, Control_c, 0, 7, 100
2, 0, Control_c, 0, 10, 74
2, 0, Control_c, 0, 91, 127
2, 0, Key_signature, -1, "minor"
2, 0, Note_on_c, 0, 62, 80
2, 0, Note_on_c, 0, 57, 80
2, 0, Note_on_c, 0, 53, 80
2, 380, Note_off_c, 0, 62, 100
2, 380, Note_off_c, 0, 57, 100
2, 380, Note_off_c, 0, 53, 100
2, 384, Note_on_c, 0, 69, 80
2, 384, Note_on_c, 0, 64, 80
2, 384, Note_on_c, 0, 57, 80
2, 764, Note_off_c, 0, 69, 100
2, 764, Note_off_c, 0, 64, 100
2, 764, Note_off_c, 0, 57, 100
2, 768, Note_on_c, 0, 57, 80
2, 768, Note_on_c, 0, 62, 80
2, 768, Note_on_c, 0, 67, 80
2, 956, Note_off_c, 0, 67, 100
2, 960, Note_on_c, 0, 65, 80
2, 1100, Note_off_c, 0, 65, 100
2, 1104, Note_on_c, 0, 64, 80
2, 1148, Note_off_c, 0, 57, 100
2, 1148, Note_off_c, 0, 62, 100
2, 1148, Note_off_c, 0, 64, 100
2, 1152, Note_on_c, 0, 62, 80
2, 1340, Note_off_c, 0, 62, 100
2, 1344, Note_on_c, 0, 62, 80
2, 1344, Note_on_c, 0, 74, 80
2, 1344, Note_on_c, 0, 69, 80
2, 1532, Note_off_c, 0, 62, 100
2, 1532, Note_off_c, 0, 74, 100
2, 1532, Note_off_c, 0, 69, 100
2, 1536, Note_on_c, 0, 74, 80
2, 1536, Note_on_c, 0, 67, 80
2, 1536, Note_on_c, 0, 64, 80
2, 1724, Note_off_c, 0, 74, 100
2, 1724, Note_off_c, 0, 67, 100
2, 1724, Note_off_c, 0, 64, 100
2, 1728, Note_on_c, 0, 74, 80
2, 1728, Note_on_c, 0, 69, 80
2, 1728, Note_on_c, 0, 65, 80
2, 1916, Note_off_c, 0, 74, 100
2, 1916, Note_off_c, 0, 69, 100
2, 1916, Note_off_c, 0, 65, 100
2, 1920, Note_on_c, 0, 74, 80
2, 1920, Note_on_c, 0, 70, 80
2, 1920, Note_on_c, 0, 64, 80
2, 2108, Note_off_c, 0, 74, 100
2, 2108, Note_off_c, 0, 70, 100
2, 2108, Note_off_c, 0, 64, 100
2, 2112, Note_on_c, 0, 74, 80
2, 2112, Note_on_c, 0, 71, 80
2, 2112, Note_on_c, 0, 65, 80
2, 2300, Note_off_c, 0, 74, 100
2, 2300, Note_off_c, 0, 71, 100
2, 2300, Note_off_c, 0, 65, 100
2, 2304, Note_on_c, 0, 74, 80
2, 2304, Note_on_c, 0, 65, 80
2, 2304, Note_on_c, 0, 69, 80
2, 2684, Note_off_c, 0, 74, 100
2, 2684, Note_off_c, 0, 65, 100
2, 2688, Note_on_c, 0, 73, 80
2, 2688, Note_on_c, 0, 64, 80
2, 2876, Note_off_c, 0, 69, 100
2, 2876, Note_off_c, 0, 73, 100
2, 2876, Note_off_c, 0, 64, 100
2, 3072, Note_on_c, 0, 65, 80
2, 3072, Note_on_c, 0, 60, 80
2, 3072, Note_on_c, 0, 57, 80
2, 3452, Note_off_c, 0, 65, 100
2, 3452, Note_off_c, 0, 60, 100
2, 3452, Note_off_c, 0, 57, 100
2, 3456, Note_on_c, 0, 72, 80
2, 3456, Note_on_c, 0, 67, 80
2, 3456, Note_on_c, 0, 60, 80
2, 3836, Note_off_c, 0, 72, 100
2, 3836, Note_off_c, 0, 67, 100
2, 3836, Note_off_c, 0, 60, 100
2, 3840, Note_on_c, 0, 65, 80
2, 3840, Note_on_c, 0, 60, 80
2, 3840, Note_on_c, 0, 70, 80
2, 4028, Note_off_c, 0, 70, 100
2, 4032, Note_on_c, 0, 69, 80
2, 4172, Note_off_c, 0, 69, 100
2, 4176, Note_on_c, 0, 68, 80
2, 4220, Note_off_c, 0, 68, 100
2, 4224, Note_on_c, 0, 69, 80
2, 4412, Note_off_c, 0, 65, 100
2, 4412, Note_off_c, 0, 60, 100
2, 4412, Note_off_c, 0, 69, 100
2, 4416, Note_on_c, 0, 71, 80
2, 4416, Note_on_c, 0, 69, 80
2, 4416, Note_on_c, 0, 65, 80
2, 4604, Note_off_c, 0, 71, 100
2, 4604, Note_off_c, 0, 69, 100
2, 4604, Note_off_c, 0, 65, 100
2, 4608, Note_on_c, 0, 72, 80
2, 4608, Note_on_c, 0, 69, 80
2, 4608, Note_on_c, 0, 64, 80
2, 4988, Note_off_c, 0, 72, 100
2, 4988, Note_off_c, 0, 69, 100
2, 4988, Note_off_c, 0, 64, 100
2, 4992, Note_on_c, 0, 68, 80
2, 4992, Note_on_c, 0, 64, 80
2, 4992, Note_on_c, 0, 62, 80
2, 5372, Note_off_c, 0, 68, 100
2, 5372, Note_off_c, 0, 64, 100
2, 5372, Note_off_c, 0, 62, 100
2, 5376, Note_on_c, 0, 69, 80
2, 5376, Note_on_c, 0, 64, 80
2, 5376, Note_on_c, 0, 60, 80
2, 5564, Note_off_c, 0, 69, 100
2, 5564, Note_off_c, 0, 64, 100
2, 5564, Note_off_c, 0, 60, 100
2, 5568, Note_on_c, 0, 58, 80
2, 5756, Note_off_c, 0, 58, 100
2, 5760, Note_on_c, 0, 57, 80
2, 5948, Note_off_c, 0, 57, 100
2, 5952, Note_on_c, 0, 61, 80
2, 6140, Note_off_c, 0, 61, 100
2, 6144, Note_on_c, 0, 62, 80
2, 6144, Note_on_c, 0, 57, 80
2, 6144, Note_on_c, 0, 53, 80
2, 6524, Note_off_c, 0, 62, 100
2, 6524, Note_off_c, 0, 57, 100
2, 6524, Note_off_c, 0, 53, 100
2, 6528, Note_on_c, 0, 69, 80
2, 6528, Note_on_c, 0, 64, 80
2, 6528, Note_on_c, 0, 57, 80
2, 6908, Note_off_c, 0, 69, 100
2, 6908, Note_off_c, 0, 64, 100
2, 6908, Note_off_c, 0, 57, 100
2, 6912, Note_on_c, 0, 57, 80
2, 6912, Note_on_c, 0, 62, 80
2, 6912, Note_on_c, 0, 67, 80
2, 7100, Note_off_c, 0, 67, 100
2, 7104, Note_on_c, 0, 65, 80
2, 7244, Note_off_c, 0, 65, 100
2, 7248, Note_on_c, 0, 64, 80
2, 7292, Note_off_c, 0, 57, 100
2, 7292, Note_off_c, 0, 62, 100
2, 7292, Note_off_c, 0, 64, 100
2, 7296, Note_on_c, 0, 62, 80
2, 7484, Note_off_c, 0, 62, 100
2, 7488, Note_on_c, 0, 62, 80
2, 7488, Note_on_c, 0, 74, 80
2, 7488, Note_on_c, 0, 69, 80
2, 7676, Note_off_c, 0, 62, 100
2, 7676, Note_off_c, 0, 74, 100
2, 7676, Note_off_c, 0, 69, 100
2, 7680, Note_on_c, 0, 74, 80
2, 7680, Note_on_c, 0, 67, 80
2, 7680, Note_on_c, 0, 64, 80
2, 7868, Note_off_c, 0, 74, 100
2, 7868, Note_off_c, 0, 67, 100
2, 7868, Note_off_c, 0, 64, 100
2, 7872, Note_on_c, 0, 74, 85
2, 7872, Note_on_c, 0, 69, 85
2, 7872, Note_on_c, 0, 65, 85
2, 8060, Note_off_c, 0, 74, 100
2, 8060, Note_off_c, 0, 69, 100
2, 8060, Note_off_c, 0, 65, 100
2, 8064, Note_on_c, 0, 74, 91
2, 8064, Note_on_c, 0, 70, 91
2, 8064, Note_on_c, 0, 64, 91
2, 8252, Note_off_c, 0, 74, 100
2, 8252, Note_off_c, 0, 70, 100
2, 8252, Note_off_c, 0, 64, 100
2, 8256, Note_on_c, 0, 74, 97
2, 8256, Note_on_c, 0, 71, 97
2, 8256, Note_on_c, 0, 65, 97
2, 8444, Note_off_c, 0, 74, 100
2, 8444, Note_off_c, 0, 71, 100
2, 8444, Note_off_c, 0, 65, 100
2, 8448, Note_on_c, 0, 74, 80
2, 8448, Note_on_c, 0, 65, 80
2, 8448, Note_on_c, 0, 69, 80
2, 8828, Note_off_c, 0, 74, 100
2, 8828, Note_off_c, 0, 65, 100
2, 8832, Note_on_c, 0, 73, 80
2, 8832, Note_on_c, 0, 64, 80
2, 9020, Note_off_c, 0, 69, 100
2, 9020, Note_off_c, 0, 73, 100
2, 9020, Note_off_c, 0, 64, 100
2, 9216, Note_on_c, 0, 65, 80
2, 9216, Note_on_c, 0, 60, 80
2, 9216, Note_on_c, 0, 57, 80
2, 9596, Note_off_c, 0, 65, 100
2, 9596, Note_off_c, 0, 60, 100
2, 9596, Note_off_c, 0, 57, 100
2, 9600, Note_on_c, 0, 72, 80
2, 9600, Note_on_c, 0, 67, 80
2, 9600, Note_on_c, 0, 60, 80
2, 9980, Note_off_c, 0, 72, 100
2, 9980, Note_off_c, 0, 67, 100
2, 9980, Note_off_c, 0, 60, 100
2, 9984, Note_on_c, 0, 65, 80
2, 9984, Note_on_c, 0, 60, 80
2, 9984, Note_on_c, 0, 70, 80
2, 10172, Note_off_c, 0, 70, 100
2, 10176, Note_on_c, 0, 69, 80
2, 10316, Note_off_c, 0, 69, 100
2, 10320, Note_on_c, 0, 68, 80
2, 10364, Note_off_c, 0, 68, 100
2, 10368, Note_on_c, 0, 69, 80
2, 10556, Note_off_c, 0, 65, 100
2, 10556, Note_off_c, 0, 60, 100
2, 10556, Note_off_c, 0, 69, 100
2, 10560, Note_on_c, 0, 71, 80
2, 10560, Note_on_c, 0, 69, 80
2, 10560, Note_on_c, 0, 65, 80
2, 10748, Note_off_c, 0, 71, 100
2, 10748, Note_off_c, 0, 69, 100
2, 10748, Note_off_c, 0, 65, 100
2, 10752, Note_on_c, 0, 72, 80
2, 10752, Note_on_c, 0, 69, 80
2, 10752, Note_on_c, 0, 64, 80
2, 11132, Note_off_c, 0, 72, 100
2, 11132, Note_off_c, 0, 69, 100
2, 11132, Note_off_c, 0, 64, 100
2, 11136, Note_on_c, 0, 68, 80
2, 11136, Note_on_c, 0, 64, 80
2, 11136, Note_on_c, 0, 62, 80
2, 11516, Note_off_c, 0, 68, 100
2, 11516, Note_off_c, 0, 64, 100
2, 11516, Note_off_c, 0, 62, 100
2, 11520, Note_on_c, 0, 69, 80
2, 11520, Note_on_c, 0, 64, 80
2, 11520, Note_on_c, 0, 60, 80
2, 11708, Note_off_c, 0, 69, 100
2, 11708, Note_off_c, 0, 64, 100
2, 11708, Note_off_c, 0, 60, 100
2, 11712, Note_on_c, 0, 58, 80
2, 11900, Note_off_c, 0, 58, 100
2, 11904, Note_on_c, 0, 57, 80
2, 12092, Note_off_c, 0, 57, 100
2, 12096, Note_on_c, 0, 56, 80
2, 12284, Note_off_c, 0, 56, 100
2, 12288, Note_on_c, 0, 76, 80
2, 12288, Note_on_c, 0, 73, 80
2, 12668, Note_off_c, 0, 76, 100
2, 12668, Note_off_c, 0, 73, 100
2, 12672, Note_on_c, 0, 79, 100
2, 12672, Note_on_c, 0, 76, 100
2, 13004, Note_off_c, 0, 79, 100
2, 13004, Note_off_c, 0, 76, 100
2, 13008, Note_on_c, 0, 77, 80
2, 13008, Note_on_c, 0, 74, 80
2, 13052, Note_off_c, 0, 77, 100
2, 13052, Note_off_c, 0, 74, 100
2, 13056, Note_on_c, 0, 77, 80
2, 13056, Note_on_c, 0, 74, 80
2, 13244, Note_off_c, 0, 77, 100
2, 13244, Note_off_c, 0, 74, 100
2, 13248, Note_on_c, 0, 76, 80
2, 13248, Note_on_c, 0, 73, 80
2, 13248, Note_on_c, 0, 70, 80
2, 13628, Note_off_c, 0, 76, 100
2, 13628, Note_off_c, 0, 73, 100
2, 13628, Note_off_c, 0, 70, 100
2, 13632, Note_on_c, 0, 71, 80
2, 13632, Note_on_c, 0, 77, 80
2, 13772, Note_off_c, 0, 77, 100
2, 13776, Note_on_c, 0, 74, 80
2, 13820, Note_off_c, 0, 71, 100
2, 13820, Note_off_c, 0, 74, 100
2, 13824, Note_on_c, 0, 73, 80
2, 13824, Note_on_c, 0, 69, 80
2, 14300, Note_off_c, 0, 73, 100
2, 14300, Note_off_c, 0, 69, 100
2, 14304, Note_on_c, 0, 73, 80
2, 14304, Note_on_c, 0, 76, 80
2, 14396, Note_off_c, 0, 73, 100
2, 14396, Note_off_c, 0, 76, 100
2, 14400, Note_on_c, 0, 79, 80
2, 14400, Note_on_c, 0, 76, 80
2, 14540, Note_off_c, 0, 79, 100
2, 14540, Note_off_c, 0, 76, 100
2, 14544, Note_on_c, 0, 77, 80
2, 14544, Note_on_c, 0, 74, 80
2, 14588, Note_off_c, 0, 77, 100
2, 14588, Note_off_c, 0, 74, 100
2, 14592, Note_on_c, 0, 77, 80
2, 14592, Note_on_c, 0, 74, 80
2, 14780, Note_off_c, 0, 77, 100
2, 14780, Note_off_c, 0, 74, 100
2, 14784, Note_on_c, 0, 76, 100
2, 14784, Note_on_c, 0, 73, 100
2, 14784, Note_on_c, 0, 70, 100
2, 15164, Note_off_c, 0, 76, 100
2, 15164, Note_off_c, 0, 73, 100
2, 15164, Note_off_c, 0, 70, 100
2, 15168, Note_on_c, 0, 71, 80
2, 15168, Note_on_c, 0, 77, 80
2, 15308, Note_off_c, 0, 77, 100
2, 15312, Note_on_c, 0, 74, 80
2, 15356, Note_off_c, 0, 71, 100
2, 15356, Note_off_c, 0, 74, 100
2, 15360, Note_on_c, 0, 69, 80
2, 15360, Note_on_c, 0, 73, 80
2, 15548, Note_off_c, 0, 69, 100
2, 15548, Note_off_c, 0, 73, 100
2, 15552, Note_on_c, 0, 76, 100
2, 15552, Note_on_c, 0, 73, 100
2, 15552, Note_on_c, 0, 70, 100
2, 15932, Note_off_c, 0, 76, 100
2, 15932, Note_off_c, 0, 73, 100
2, 15932, Note_off_c, 0, 70, 100
2, 15936, Note_on_c, 0, 71, 80
2, 15936, Note_on_c, 0, 77, 80
2, 16076, Note_off_c, 0, 77, 100
2, 16080, Note_on_c, 0, 74, 80
2, 16124, Note_off_c, 0, 71, 100
2, 16124, Note_off_c, 0, 74, 100
2, 16128, Note_on_c, 0, 73, 80
2, 16128, Note_on_c, 0, 69, 80
2, 16220, Note_off_c, 0, 69, 100
2, 16268, Note_off_c, 0, 73, 100
2, 16272, Note_on_c, 0, 76, 80
2, 16316, Note_off_c, 0, 76, 100
2, 16320, Note_on_c, 0, 77, 80
2, 16320, Note_on_c, 0, 71, 80
2, 16460, Note_off_c, 0, 77, 100
2, 16464, Note_on_c, 0, 74, 80
2, 16508, Note_off_c, 0, 71, 100
2, 16508, Note_off_c, 0, 74, 100
2, 16512, Note_on_c, 0, 73, 80
2, 16512, Note_on_c, 0, 69, 80
2, 16604, Note_off_c, 0, 69, 100
2, 16652, Note_off_c, 0, 73, 100
2, 16656, Note_on_c, 0, 76, 80
2, 16700, Note_off_c, 0, 76, 100
2, 16704, Note_on_c, 0, 77, 80
2, 16704, Note_on_c, 0, 71, 80
2, 16844, Note_off_c, 0, 77, 100
2, 16848, Note_on_c, 0, 74, 80
2, 16892, Note_off_c, 0, 71, 100
2, 16892, Note_off_c, 0, 74, 100
2, 16896, Note_on_c, 0, 73, 80
2, 16896, Note_on_c, 0, 69, 80
2, 17084, Note_off_c, 0, 69, 100
2, 17276, Note_off_c, 0, 73, 100
2, 17280, Note_on_c, 0, 76, 80
2, 17660, Note_off_c, 0, 76, 100
2, 17664, Note_on_c, 0, 79, 80
2, 18236, Note_off_c, 0, 79, 100
2, 18240, Note_on_c, 0, 73, 80
2, 18240, Note_on_c, 0, 61, 80
2, 18428, Note_off_c, 0, 73, 100
2, 18428, Note_off_c, 0, 61, 100
2, 18432, Note_on_c, 0, 74, 80
2, 18432, Note_on_c, 0, 62, 80
2, 18812, Note_off_c, 0, 74, 100
2, 18812, Note_off_c, 0, 62, 100
2, 18816, Note_on_c, 0, 69, 80
2, 18816, Note_on_c, 0, 81, 80
2, 19196, Note_off_c, 0, 69, 100
2, 19196, Note_off_c, 0, 81, 100
2, 19200, Note_on_c, 0, 79, 80
2, 19200, Note_on_c, 0, 67, 80
2, 19388, Note_off_c, 0, 79, 100
2, 19388, Note_off_c, 0, 67, 100
2, 19392, Note_on_c, 0, 77, 80
2, 19392, Note_on_c, 0, 65, 80
2, 19532, Note_off_c, 0, 77, 100
2, 19532, Note_off_c, 0, 65, 100
2, 19536, Note_on_c, 0, 76, 80
2, 19536, Note_on_c, 0, 64, 80
2, 19580, Note_off_c, 0, 76, 100
2, 19580, Note_off_c, 0, 64, 100
2, 19584, Note_on_c, 0, 74, 80
2, 19584, Note_on_c, 0, 62, 80
2, 19772, Note_off_c, 0, 74, 100
2, 19772, Note_off_c, 0, 62, 100
2, 19776, Note_on_c, 0, 67, 100
2, 19776, Note_on_c, 0, 79, 100
2, 19964, Note_off_c, 0, 67, 100
2, 19964, Note_off_c, 0, 79, 100
2, 19968, Note_on_c, 0, 77, 80
2, 19968, Note_on_c, 0, 65, 80
2, 20156, Note_off_c, 0, 77, 100
2, 20156, Note_off_c, 0, 65, 100
2, 20160, Note_on_c, 0, 76, 80
2, 20160, Note_on_c, 0, 64, 80
2, 20300, Note_off_c, 0, 76, 100
2, 20300, Note_off_c, 0, 64, 100
2, 20304, Note_on_c, 0, 74, 80
2, 20304, Note_on_c, 0, 62, 80
2, 20348, Note_off_c, 0, 74, 100
2, 20348, Note_off_c, 0, 62, 100
2, 20352, Note_on_c, 0, 72, 80
2, 20352, Note_on_c, 0, 60, 80
2, 20540, Note_off_c, 0, 72, 100
2, 20540, Note_off_c, 0, 60, 100
2, 20544, Note_on_c, 0, 81, 100
2, 20544, Note_on_c, 0, 69, 100
2, 20732, Note_off_c, 0, 81, 100
2, 20732, Note_off_c, 0, 69, 100
2, 20736, Note_on_c, 0, 79, 80
2, 20736, Note_on_c, 0, 67, 80
2, 20924, Note_off_c, 0, 79, 100
2, 20924, Note_off_c, 0, 67, 100
2, 20928, Note_on_c, 0, 77, 80
2, 20928, Note_on_c, 0, 65, 80
2, 21068, Note_off_c, 0, 77, 100
2, 21068, Note_off_c, 0, 65, 100
2, 21072, Note_on_c, 0, 76, 80
2, 21072, Note_on_c, 0, 64, 80
2, 21116, Note_off_c, 0, 76, 100
2, 21116, Note_off_c, 0, 64, 100
2, 21120, Note_on_c, 0, 74, 83
2, 21120, Note_on_c, 0, 62, 83
2, 21308, Note_off_c, 0, 74, 100
2, 21308, Note_off_c, 0, 62, 100
2, 21312, Note_on_c, 0, 74, 98
2, 21312, Note_on_c, 0, 86, 98
2, 21452, Note_off_c, 0, 74, 100
2, 21452, Note_off_c, 0, 86, 100
2, 21456, Note_on_c, 0, 84, 109
2, 21456, Note_on_c, 0, 72, 109
2, 21500, Note_off_c, 0, 84, 100
2, 21500, Note_off_c, 0, 72, 100
2, 21504, Note_on_c, 0, 84, 110
2, 21504, Note_on_c, 0, 72, 110
2, 21596, Note_off_c, 0, 84, 100
2, 21596, Note_off_c, 0, 72, 100
2, 21600, Note_on_c, 0, 82, 110
2, 21600, Note_on_c, 0, 70, 110
2, 21692, Note_off_c, 0, 82, 100
2, 21692, Note_off_c, 0, 70, 100
2, 21696, Note_on_c, 0, 81, 110
2, 21696, Note_on_c, 0, 69, 110
2, 21788, Note_off_c, 0, 81, 100
2, 21788, Note_off_c, 0, 69, 100
2, 21792, Note_on_c, 0, 80, 110
2, 21792, Note_on_c, 0, 68, 110
2, 21884, Note_off_c, 0, 80, 100
2, 21884, Note_off_c, 0, 68, 100
2, 21888, Note_on_c, 0, 80, 110
2, 21888, Note_on_c, 0, 68, 110
2, 21980, Note_off_c, 0, 80, 100
2, 21980, Note_off_c, 0, 68, 100
2, 21984, Note_on_c, 0, 81, 110
2, 21984, Note_on_c, 0, 69, 110
2, 22172, Note_off_c, 0, 81, 100
2, 22172, Note_off_c, 0, 69, 100
2, 22176, Note_on_c, 0, 61, 95
2, 22176, Note_on_c, 0, 55, 95
2, 22268, Note_off_c, 0, 61, 100
2, 22268, Note_off_c, 0, 55, 100
2, 22272, Note_on_c, 0, 64, 80
2, 22272, Note_on_c, 0, 61, 80
2, 22272, Note_on_c, 0, 55, 80
2, 22652, Note_off_c, 0, 64, 100
2, 22652, Note_off_c, 0, 61, 100
2, 22652, Note_off_c, 0, 55, 100
2, 22656, Note_on_c, 0, 62, 80
2, 22656, Note_on_c, 0, 57, 80
2, 22656, Note_on_c, 0, 53, 80
2, 22844, Note_off_c, 0, 62, 100
2, 22844, Note_off_c, 0, 57, 100
2, 22844, Note_off_c, 0, 53, 100
2, 23040, Note_on_c, 0, 76, 80
2, 23040, Note_on_c, 0, 73, 80
2, 23420, Note_off_c, 0, 76, 100
2, 23420, Note_off_c, 0, 73, 100
2, 23424, Note_on_c, 0, 79, 100
2, 23424, Note_on_c, 0, 76, 100
2, 23756, Note_off_c, 0, 79, 100
2, 23756, Note_off_c, 0, 76, 100
2, 23760, Note_on_c, 0, 77, 80
2, 23760, Note_on_c, 0, 74, 80
2, 23804, Note_off_c, 0, 77, 100
2, 23804, Note_off_c, 0, 74, 100
2, 23808, Note_on_c, 0, 77, 80
2, 23808, Note_on_c, 0, 74, 80
2, 23996, Note_off_c, 0, 77, 100
2, 23996, Note_off_c, 0, 74, 100
2, 24000, Note_on_c, 0, 76, 80
2, 24000, Note_on_c, 0, 73, 80
2, 24000, Note_on_c, 0, 70, 80
2, 24380, Note_off_c, 0, 76, 100
2, 24380, Note_off_c, 0, 73, 100
2, 24380, Note_off_c, 0, 70, 100
2, 24384, Note_on_c, 0, 71, 80
2, 24384, Note_on_c, 0, 77, 80
2, 24524, Note_off_c, 0, 77, 100
2, 24528, Note_on_c, 0, 74, 80
2, 24572, Note_off_c, 0, 71, 100
2, 24572, Note_off_c, 0, 74, 100
2, 24576, Note_on_c, 0, 73, 80
2, 24576, Note_on_c, 0, 69, 80
2, 25052, Note_off_c, 0, 73, 100
2, 25052, Note_off_c, 0, 69, 100
2, 25056, Note_on_c, 0, 73, 80
2, 25056, Note_on_c, 0, 76, 80
2, 25148, Note_off_c, 0, 73, 100
2, 25148, Note_off_c, 0, 76, 100
2, 25152, Note_on_c, 0, 79, 80
2, 25152, Note_on_c, 0, 76, 80
2, 25292, Note_off_c, 0, 79, 100
2, 25292, Note_off_c, 0, 76, 100
2, 25296, Note_on_c, 0, 77, 80
2, 25296, Note_on_c, 0, 74, 80
2, 25340, Note_off_c, 0, 77, 100
2, 25340, Note_off_c, 0, 74, 100
2, 25344, Note_on_c, 0, 77, 80
2, 25344, Note_on_c, 0, 74, 80
2, 25532, Note_off_c, 0, 77, 100
2, 25532, Note_off_c, 0, 74, 100
2, 25536, Note_on_c, 0, 76, 100
2, 25536, Note_on_c, 0, 73, 100
2, 25536, Note_on_c, 0, 70, 100
2, 25916, Note_off_c, 0, 76, 100
2, 25916, Note_off_c, 0, 73, 100
2, 25916, Note_off_c, 0, 70, 100
2, 25920, Note_on_c, 0, 71, 80
2, 25920, Note_on_c, 0, 77, 80
2, 26060, Note_off_c, 0, 77, 100
2, 26064, Note_on_c, 0, 74, 80
2, 26108, Note_off_c, 0, 71, 100
2, 26108, Note_off_c, 0, 74, 100
2, 26112, Note_on_c, 0, 69, 80
2, 26112, Note_on_c, 0, 73, 80
2, 26300, Note_off_c, 0, 69, 100
2, 26300, Note_off_c, 0, 73, 100
2, 26304, Note_on_c, 0, 76, 100
2, 26304, Note_on_c, 0, 73, 100
2, 26304, Note_on_c, 0, 70, 100
2, 26684, Note_off_c, 0, 76, 100
2, 26684, Note_off_c, 0, 73, 100
2, 26684, Note_off_c, 0, 70, 100
2, 26688, Note_on_c, 0, 71, 80
2, 26688, Note_on_c, 0, 77, 80
2, 26828, Note_off_c, 0, 77, 100
2, 26832, Note_on_c, 0, 74, 80
2, 26876, Note_off_c, 0, 71, 100
2, 26876, Note_off_c, 0, 74, 100
2, 26880, Note_on_c, 0, 73, 80
2, 26880, Note_on_c, 0, 69, 80
2, 26972, Note_off_c, 0, 69, 100
2, 27020, Note_off_c, 0, 73, 100
2, 27024, Note_on_c, 0, 76, 80
2, 27068, Note_off_c, 0, 76, 100
2, 27072, Note_on_c, 0, 77, 80
2, 27072, Note_on_c, 0, 71, 80
2, 27212, Note_off_c, 0, 77, 100
2, 27216, Note_on_c, 0, 74, 80
2, 27260, Note_off_c, 0, 71, 100
2, 27260, Note_off_c, 0, 74, 100
2, 27264, Note_on_c, 0, 73, 80
2, 27264, Note_on_c, 0, 69, 80
2, 27356, Note_off_c, 0, 69, 100
2, 27404, Note_off_c, 0, 73, 100
2, 27408, Note_on_c, 0, 76, 80
2, 27452, Note_off_c, 0, 76, 100
2, 27456, Note_on_c, 0, 77, 80
2, 27456, Note_on_c, 0, 71, 80
2, 27596, Note_off_c, 0, 77, 100
2, 27600, Note_on_c, 0, 74, 80
2, 27644, Note_off_c, 0, 71, 100
2, 27644, Note_off_c, 0, 74, 100
2, 27648, Note_on_c, 0, 73, 80
2, 27648, Note_on_c, 0, 69, 80
2, 27836, Note_off_c, 0, 69, 100
2, 28028, Note_off_c, 0, 73, 100
2, 28032, Note_on_c, 0, 76, 80
2, 28412, Note_off_c, 0, 76, 100
2, 28416, Note_on_c, 0, 79, 80
2, 28988, Note_off_c, 0, 79, 100
2, 28992, Note_on_c, 0, 73, 80
2, 28992, Note_on_c, 0, 61, 80
2, 29180, Note_off_c, 0, 73, 100
2, 29180, Note_off_c, 0, 61, 100
2, 29184, Note_on_c, 0, 74, 80
2, 29184, Note_on_c, 0, 62, 80
2, 29564, Note_off_c, 0, 74, 100
2, 29564, Note_off_c, 0, 62, 100
2, 29568, Note_on_c, 0, 69, 80
2, 29568, Note_on_c, 0, 81, 80
2, 29948, Note_off_c, 0, 69, 100
2, 29948, Note_off_c, 0, 81, 100
2, 29952, Note_on_c, 0, 79, 80
2, 29952, Note_on_c, 0, 67, 80
2, 30140, Note_off_c, 0, 79, 100
2, 30140, Note_off_c, 0, 67, 100
2, 30144, Note_on_c, 0, 77, 80
2, 30144, Note_on_c, 0, 65, 80
2, 30284, Note_off_c, 0, 77, 100
2, 30284, Note_off_c, 0, 65, 100
2, 30288, Note_on_c, 0, 76, 80
2, 30288, Note_on_c, 0, 64, 80
2, 30332, Note_off_c, 0, 76, 100
2, 30332, Note_off_c, 0, 64, 100
2, 30336, Note_on_c, 0, 74, 80
2, 30336, Note_on_c, 0, 62, 80
2, 30524, Note_off_c, 0, 74, 100
2, 30524, Note_off_c, 0, 62, 100
2, 30528, Note_on_c, 0, 67, 80
2, 30528, Note_on_c, 0, 79, 80
2, 30716, Note_off_c, 0, 67, 100
2, 30716, Note_off_c, 0, 79, 100
2, 30720, Note_on_c, 0, 77, 80
2, 30720, Note_on_c, 0, 65, 80
2, 30908, Note_off_c, 0, 77, 100
2, 30908, Note_off_c, 0, 65, 100
2, 30912, Note_on_c, 0, 76, 80
2, 30912, Note_on_c, 0, 64, 80
2, 31052, Note_off_c, 0, 76, 100
2, 31052, Note_off_c, 0, 64, 100
2, 31056, Note_on_c, 0, 74, 80
2, 31056, Note_on_c, 0, 62, 80
2, 31100, Note_off_c, 0, 74, 100
2, 31100, Note_off_c, 0, 62, 100
2, 31104, Note_on_c, 0, 72, 80
2, 31104, Note_on_c, 0, 60, 80
2, 31292, Note_off_c, 0, 72, 100
2, 31292, Note_off_c, 0, 60, 100
2, 31296, Note_on_c, 0, 81, 80
2, 31296, Note_on_c, 0, 69, 80
2, 31484, Note_off_c, 0, 81, 100
2, 31484, Note_off_c, 0, 69, 100
2, 31488, Note_on_c, 0, 79, 80
2, 31488, Note_on_c, 0, 67, 80
2, 31676, Note_off_c, 0, 79, 100
2, 31676, Note_off_c, 0, 67, 100
2, 31680, Note_on_c, 0, 77, 80
2, 31680, Note_on_c, 0, 65, 80
2, 31820, Note_off_c, 0, 77, 100
2, 31820, Note_off_c, 0, 65, 100
2, 31824, Note_on_c, 0, 76, 80
2, 31824, Note_on_c, 0, 64, 80
2, 31868, Note_off_c, 0, 76, 100
2, 31868, Note_off_c, 0, 64, 100
2, 31872, Note_on_c, 0, 74, 83
2, 31872, Note_on_c, 0, 62, 83
2, 32060, Note_off_c, 0, 74, 100
2, 32060, Note_off_c, 0, 62, 100
2, 32064, Note_on_c, 0, 74, 98
2, 32064, Note_on_c, 0, 86, 98
2, 32204, Note_off_c, 0, 74, 100
2, 32204, Note_off_c, 0, 86, 100
2, 32208, Note_on_c, 0, 84, 109
2, 32208, Note_on_c, 0, 72, 109
2, 32252, Note_off_c, 0, 84, 100
2, 32252, Note_off_c, 0, 72, 100
2, 32256, Note_on_c, 0, 84, 110
2, 32256, Note_on_c, 0, 72, 110
2, 32348, Note_off_c, 0, 84, 100
2, 32348, Note_off_c, 0, 72, 100
2, 32352, Note_on_c, 0, 82, 110
2, 32352, Note_on_c, 0, 70, 110
2, 32444, Note_off_c, 0, 82, 100
2, 32444, Note_off_c, 0, 70, 100
2, 32448, Note_on_c, 0, 81, 110
2, 32448, Note_on_c, 0, 69, 110
2, 32540, Note_off_c, 0, 81, 100
2, 32540, Note_off_c, 0, 69, 100
2, 32544, Note_on_c, 0, 80, 110
2, 32544, Note_on_c, 0, 68, 110
2, 32636, Note_off_c, 0, 80, 100
2, 32636, Note_off_c, 0, 68, 100
2, 32640, Note_on_c, 0, 80, 110
2, 32640, Note_on_c, 0, 68, 110
2, 32732, Note_off_c, 0, 80, 100
2, 32732, Note_off_c, 0, 68, 100
2, 32736, Note_on_c, 0, 81, 110
2, 32736, Note_on_c, 0, 69, 110
2, 32924, Note_off_c, 0, 81, 100
2, 32924, Note_off_c, 0, 69, 100
2, 32928, Note_on_c, 0, 61, 95
2, 32928, Note_on_c, 0, 55, 95
2, 33020, Note_off_c, 0, 61, 100
2, 33020, Note_off_c, 0, 55, 100
2, 33024, Note_on_c, 0, 64, 80
2, 33024, Note_on_c, 0, 61, 80
2, 33024, Note_on_c, 0, 55, 80
2, 33404, Note_off_c, 0, 64, 100
2, 33404, Note_off_c, 0, 61, 100
2, 33404, Note_off_c, 0, 55, 100
2, 33408, Note_on_c, 0, 62, 80
2, 33408, Note_on_c, 0, 57, 80
2, 33408, Note_on_c, 0, 53, 80
2, 33596, Note_off_c, 0, 62, 100
2, 33596, Note_off_c, 0, 57, 100
2, 33596, Note_off_c, 0, 53, 100
2, 33696, Note_on_c, 0, 57, 80
2, 33788, Note_off_c, 0, 57, 100
2, 33792, Key_signature, 2, "major"
2, 33792, Note_on_c, 0, 66, 80
2, 33792, Note_on_c, 0, 62, 80
2, 33932, Note_off_c, 0, 66, 100
2, 33932, Note_off_c, 0, 62, 100
2, 33936, Note_on_c, 0, 66, 80
2, 33936, Note_on_c, 0, 62, 80
2, 33980, Note_off_c, 0, 66, 100
2, 33980, Note_off_c, 0, 62, 100
2, 33984, Note_on_c, 0, 66, 80
2, 33984, Note_on_c, 0, 62, 80
2, 34076, Note_off_c, 0, 66, 100
2, 34076, Note_off_c, 0, 62, 100
2, 34140, Note_on_c, 0, 80, 80
2, 34168, Note_off_c, 0, 80, 100
2, 34176, Note_on_c, 0, 81, 80
2, 34236, Note_off_c, 0, 81, 100
2, 34240, Note_on_c, 0, 78, 80
2, 34300, Note_off_c, 0, 78, 100
2, 34304, Note_on_c, 0, 74, 80
2, 34364, Note_off_c, 0, 74, 100
2, 34368, Note_on_c, 0, 69, 80
2, 34428, Note_off_c, 0, 69, 100
2, 34432, Note_on_c, 0, 67, 80
2, 34492, Note_off_c, 0, 67, 100
2, 34496, Note_on_c, 0, 66, 80
2, 34556, Note_off_c, 0, 66, 100
2, 34560, Note_on_c, 0, 64, 80
2, 34560, Note_on_c, 0, 62, 80
2, 34560, Note_on_c, 0, 59, 80
2, 34700, Note_off_c, 0, 64, 100
2, 34700, Note_off_c, 0, 62, 100
2, 34700, Note_off_c, 0, 59, 100
2, 34704, Note_on_c, 0, 64, 80
2, 34704, Note_on_c, 0, 62, 80
2, 34704, Note_on_c, 0, 59, 80
2, 34748, Note_off_c, 0, 64, 100
2, 34748, Note_off_c, 0, 62, 100
2, 34748, Note_off_c, 0, 59, 100
2, 34752, Note_on_c, 0, 64, 80
2, 34752, Note_on_c, 0, 62, 80
2, 34752, Note_on_c, 0, 59, 80
2, 34844, Note_off_c, 0, 64, 100
2, 34844, Note_off_c, 0, 62, 100
2, 34844, Note_off_c, 0, 59, 100
2, 34896, Note_on_c, 0, 82, 80
2, 34940, Note_off_c, 0, 82, 100
2, 34944, Note_on_c, 0, 83, 80
2, 35004, Note_off_c, 0, 83, 100
2, 35008, Note_on_c, 0, 79, 80
2, 35068, Note_off_c, 0, 79, 100
2, 35072, Note_on_c, 0, 76, 80
2, 35132, Note_off_c, 0, 76, 100
2, 35136, Note_on_c, 0, 71, 80
2, 35196, Note_off_c, 0, 71, 100
2, 35200, Note_on_c, 0, 67, 80
2, 35260, Note_off_c, 0, 67, 100
2, 35264, Note_on_c, 0, 64, 80
2, 35324, Note_off_c, 0, 64, 100
2, 35328, Note_on_c, 0, 61, 80
2, 35468, Note_off_c, 0, 61, 100
2, 35472, Note_on_c, 0, 61, 80
2, 35516, Note_off_c, 0, 61, 100
2, 35520, Note_on_c, 0, 61, 80
2, 35612, Note_off_c, 0, 61, 100
2, 35664, Note_on_c, 0, 78, 80
2, 35708, Note_off_c, 0, 78, 100
2, 35712, Note_on_c, 0, 79, 80
2, 35772, Note_off_c, 0, 79, 100
2, 35776, Note_on_c, 0, 76, 80
2, 35836, Note_off_c, 0, 76, 100
2, 35840, Note_on_c, 0, 73, 80
2, 35900, Note_off_c, 0, 73, 100
2, 35904, Note_on_c, 0, 67, 80
2, 35964, Note_off_c, 0, 67, 100
2, 35968, Note_on_c, 0, 64, 80
2, 36028, Note_off_c, 0, 64, 100
2, 36032, Note_on_c, 0, 61, 80
2, 36092, Note_off_c, 0, 61, 100
2, 36096, Note_on_c, 0, 62, 80
2, 36156, Note_off_c, 0, 62, 100
2, 36160, Note_on_c, 0, 57, 80
2, 36220, Note_off_c, 0, 57, 100
2, 36224, Note_on_c, 0, 66, 80
2, 36284, Note_off_c, 0, 66, 100
2, 36288, Note_on_c, 0, 64, 80
2, 36288, Note_on_c, 0, 61, 80
2, 36348, Note_off_c, 0, 64, 100
2, 36348, Note_off_c, 0, 61, 100
2, 36352, Note_on_c, 0, 57, 80
2, 36412, Note_off_c, 0, 57, 100
2, 36416, Note_on_c, 0, 67, 80
2, 36476, Note_off_c, 0, 67, 100
2, 36480, Note_on_c, 0, 66, 80
2, 36480, Note_on_c, 0, 62, 80
2, 36540, Note_off_c, 0, 66, 100
2, 36540, Note_off_c, 0, 62, 100
2, 36544, Note_on_c, 0, 74, 80
2, 36604, Note_off_c, 0, 74, 100
2, 36608, Note_on_c, 0, 73, 80
2, 36668, Note_off_c, 0, 73, 100
2, 36672, Note_on_c, 0, 71, 80
2, 36732, Note_off_c, 0, 71, 100
2, 36736, Note_on_c, 0, 69, 80
2, 36796, Note_off_c, 0, 69, 100
2, 36800, Note_on_c, 0, 67, 80
2, 36860, Note_off_c, 0, 67, 100
2, 36864, Note_on_c, 0, 66, 80
2, 36864, Note_on_c, 0, 62, 80
2, 37004, Note_off_c, 0, 66, 100
2, 37004, Note_off_c, 0, 62, 100
2, 37008, Note_on_c, 0, 66, 80
2, 37008, Note_on_c, 0, 62, 80
2, 37052, Note_off_c, 0, 66, 100
2, 37052, Note_off_c, 0, 62, 100
2, 37056, Note_on_c, 0, 66, 80
2, 37056, Note_on_c, 0, 62, 80
2, 37148, Note_off_c, 0, 66, 100
2, 37148, Note_off_c, 0, 62, 100
2, 37212, Note_on_c, 0, 80, 80
2, 37240, Note_off_c, 0, 80, 100
2, 37248, Note_on_c, 0, 81, 80
2, 37308, Note_off_c, 0, 81, 100
2, 37312, Note_on_c, 0, 78, 80
2, 37372, Note_off_c, 0, 78, 100
2, 37376, Note_on_c, 0, 74, 80
2, 37436, Note_off_c, 0, 74, 100
2, 37440, Note_on_c, 0, 69, 80
2, 37500, Note_off_c, 0, 69, 100
2, 37504, Note_on_c, 0, 67, 80
2, 37564, Note_off_c, 0, 67, 100
2, 37568, Note_on_c, 0, 66, 80
2, 37628, Note_off_c, 0, 66, 100
2, 37632, Note_on_c, 0, 64, 110
2, 37632, Note_on_c, 0, 62, 110
2, 37632, Note_on_c, 0, 59, 110
2, 37772, Note_off_c, 0, 64, 100
2, 37772, Note_off_c, 0, 62, 100
2, 37772, Note_off_c, 0, 59, 100
2, 37776, Note_on_c, 0, 64, 110
2, 37776, Note_on_c, 0, 62, 110
2, 37776, Note_on_c, 0, 59, 110
2, 37820, Note_off_c, 0, 64, 100
2, 37820, Note_off_c, 0, 62, 100
2, 37820, Note_off_c, 0, 59, 100
2, 37824, Note_on_c, 0, 64, 110
2, 37824, Note_on_c, 0, 62, 110
2, 37824, Note_on_c, 0, 59, 110
2, 37916, Note_off_c, 0, 64, 100
2, 37916, Note_off_c, 0, 62, 100
2, 37916, Note_off_c, 0, 59, 100
2, 37968, Note_on_c, 0, 85, 100
2, 38012, Note_off_c, 0, 85, 100
2, 38016, Note_on_c, 0, 86, 98
2, 38076, Note_off_c, 0, 86, 100
2, 38080, Note_on_c, 0, 83, 94
2, 38140, Note_off_c, 0, 83, 100
2, 38144, Note_on_c, 0, 80, 91
2, 38204, Note_off_c, 0, 80, 100
2, 38208, Note_on_c, 0, 76, 88
2, 38268, Note_off_c, 0, 76, 100
2, 38272, Note_on_c, 0, 74, 84
2, 38332, Note_off_c, 0, 74, 100
2, 38336, Note_on_c, 0, 71, 81
2, 38396, Note_off_c, 0, 71, 100
2, 38400, Note_on_c, 0, 73, 80
2, 38460, Note_off_c, 0, 73, 100
2, 38464, Note_on_c, 0, 81, 80
2, 38524, Note_off_c, 0, 81, 100
2, 38528, Note_on_c, 0, 80, 80
2, 38588, Note_off_c, 0, 80, 100
2, 38592, Note_on_c, 0, 81, 80
2, 38652, Note_off_c, 0, 81, 100
2, 38656, Note_on_c, 0, 76, 80
2, 38716, Note_off_c, 0, 76, 100
2, 38720, Note_on_c, 0, 73, 80
2, 38780, Note_off_c, 0, 73, 100
2, 38784, Note_on_c, 0, 71, 80
2, 38844, Note_off_c, 0, 71, 100
2, 38848, Note_on_c, 0, 76, 80
2, 38908, Note_off_c, 0, 76, 100
2, 38912, Note_on_c, 0, 75, 80
2, 38972, Note_off_c, 0, 75, 100
2, 38976, Note_on_c, 0, 76, 80
2, 39036, Note_off_c, 0, 76, 100
2, 39040, Note_on_c, 0, 74, 80
2, 39100, Note_off_c, 0, 74, 100
2, 39104, Note_on_c, 0, 71, 80
2, 39164, Note_off_c, 0, 71, 100
2, 39168, Note_on_c, 0, 69, 80
2, 39228, Note_off_c, 0, 69, 100
2, 39232, Note_on_c, 0, 64, 80
2, 39292, Note_off_c, 0, 64, 100
2, 39296, Note_on_c, 0, 73, 80
2, 39356, Note_off_c, 0, 73, 100
2, 39360, Note_on_c, 0, 69, 80
2, 39420, Note_off_c, 0, 69, 100
2, 39424, Note_on_c, 0, 64, 80
2, 39484, Note_off_c, 0, 64, 100
2, 39488, Note_on_c, 0, 73, 80
2, 39548, Note_off_c, 0, 73, 100
2, 39552, Note_on_c, 0, 69, 80
2, 39612, Note_off_c, 0, 69, 100
2, 39616, Note_on_c, 0, 76, 80
2, 39676, Note_off_c, 0, 76, 100
2, 39680, Note_on_c, 0, 73, 80
2, 39740, Note_off_c, 0, 73, 100
2, 39744, Note_on_c, 0, 69, 80
2, 39804, Note_off_c, 0, 69, 100
2, 39808, Note_on_c, 0, 71, 80
2, 39868, Note_off_c, 0, 71, 100
2, 39872, Note_on_c, 0, 67, 80
2, 39932, Note_off_c, 0, 67, 100
2, 39936, Note_on_c, 0, 66, 80
2, 39936, Note_on_c, 0, 62, 80
2, 40076, Note_off_c, 0, 66, 100
2, 40076, Note_off_c, 0, 62, 100
2, 40080, Note_on_c, 0, 66, 80
2, 40080, Note_on_c, 0, 62, 80
2, 40124, Note_off_c, 0, 66, 100
2, 40124, Note_off_c, 0, 62, 100
2, 40128, Note_on_c, 0, 66, 80
2, 40128, Note_on_c, 0, 62, 80
2, 40220, Note_off_c, 0, 66, 100
2, 40220, Note_off_c, 0, 62, 100
2, 40284, Note_on_c, 0, 80, 80
2, 40312, Note_off_c, 0, 80, 100
2, 40320, Note_on_c, 0, 81, 80
2, 40380, Note_off_c, 0, 81, 100
2, 40384, Note_on_c, 0, 78, 80
2, 40444, Note_off_c, 0, 78, 100
2, 40448, Note_on_c, 0, 74, 80
2, 40508, Note_off_c, 0, 74, 100
2, 40512, Note_on_c, 0, 69, 80
2, 40572, Note_off_c, 0, 69, 100
2, 40576, Note_on_c, 0, 67, 80
2, 40636, Note_off_c, 0, 67, 100
2, 40640, Note_on_c, 0, 66, 80
2, 40700, Note_off_c, 0, 66, 100
2, 40704, Note_on_c, 0, 64, 80
2, 40704, Note_on_c, 0, 62, 80
2, 40704, Note_on_c, 0, 59, 80
2, 40844, Note_off_c, 0, 64, 100
2, 40844, Note_off_c, 0, 62, 100
2, 40844, Note_off_c, 0, 59, 100
2, 40848, Note_on_c, 0, 64, 80
2, 40848, Note_on_c, 0, 62, 80
2, 40848, Note_on_c, 0, 59, 80
2, 40892, Note_off_c, 0, 64, 100
2, 40892, Note_off_c, 0, 62, 100
2, 40892, Note_off_c, 0, 59, 100
2, 40896, Note_on_c, 0, 64, 80
2, 40896, Note_on_c, 0, 62, 80
2, 40896, Note_on_c, 0, 59, 80
2, 40988, Note_off_c, 0, 64, 100
2, 40988, Note_off_c, 0, 62, 100
2, 40988, Note_off_c, 0, 59, 100
2, 41040, Note_on_c, 0, 82, 80
2, 41084, Note_off_c, 0, 82, 100
2, 41088, Note_on_c, 0, 83, 80
2, 41148, Note_off_c, 0, 83, 100
2, 41152, Note_on_c, 0, 79, 80
2, 41212, Note_off_c, 0, 79, 100
2, 41216, Note_on_c, 0, 76, 80
2, 41276, Note_off_c, 0, 76, 100
2, 41280, Note_on_c, 0, 71, 80
2, 41340, Note_off_c, 0, 71, 100
2, 41344, Note_on_c, 0, 67, 80
2, 41404, Note_off_c, 0, 67, 100
2, 41408, Note_on_c, 0, 64, 80
2, 41468, Note_off_c, 0, 64, 100
2, 41472, Note_on_c, 0, 61, 80
2, 41612, Note_off_c, 0, 61, 100
2, 41616, Note_on_c, 0, 61, 80
2, 41660, Note_off_c, 0, 61, 100
2, 41664, Note_on_c, 0, 61, 80
2, 41756, Note_off_c, 0, 61, 100
2, 41808, Note_on_c, 0, 78, 80
2, 41852, Note_off_c, 0, 78, 100
2, 41856, Note_on_c, 0, 79, 80
2, 41916, Note_off_c, 0, 79, 100
2, 41920, Note_on_c, 0, 76, 80
2, 41980, Note_off_c, 0, 76, 100
2, 41984, Note_on_c, 0, 73, 80
2, 42044, Note_off_c, 0, 73, 100
2, 42048, Note_on_c, 0, 67, 80
2, 42108, Note_off_c, 0, 67, 100
2, 42112, Note_on_c, 0, 64, 80
2, 42172, Note_off_c, 0, 64, 100
2, 42176, Note_on_c, 0, 61, 80
2, 42236, Note_off_c, 0, 61, 100
2, 42240, Note_on_c, 0, 62, 80
2, 42300, Note_off_c, 0, 62, 100
2, 42304, Note_on_c, 0, 57, 80
2, 42364, Note_off_c, 0, 57, 100
2, 42368, Note_on_c, 0, 66, 80
2, 42428, Note_off_c, 0, 66, 100
2, 42432, Note_on_c, 0, 64, 80
2, 42432, Note_on_c, 0, 61, 80
2, 42492, Note_off_c, 0, 64, 100
2, 42492, Note_off_c, 0, 61, 100
2, 42496, Note_on_c, 0, 57, 80
2, 42556, Note_off_c, 0, 57, 100
2, 42560, Note_on_c, 0, 67, 80
2, 42620, Note_off_c, 0, 67, 100
2, 42624, Note_on_c, 0, 66, 80
2, 42624, Note_on_c, 0, 62, 80
2, 42684, Note_off_c, 0, 66, 100
2, 42684, Note_off_c, 0, 62, 100
2, 42688, Note_on_c, 0, 74, 80
2, 42748, Note_off_c, 0, 74, 100
2, 42752, Note_on_c, 0, 73, 80
2, 42812, Note_off_c, 0, 73, 100
2, 42816, Note_on_c, 0, 71, 80
2, 42876, Note_off_c, 0, 71, 100
2, 42880, Note_on_c, 0, 69, 80
2, 42940, Note_off_c, 0, 69, 100
2, 42944, Note_on_c, 0, 67, 80
2, 43004, Note_off_c, 0, 67, 100
2, 43008, Note_on_c, 0, 66, 80
2, 43008, Note_on_c, 0, 62, 80
2, 43148, Note_off_c, 0, 66, 100
2, 43148, Note_off_c, 0, 62, 100
2, 43152, Note_on_c, 0, 66, 80
2, 43152, Note_on_c, 0, 62, 80
2, 43196, Note_off_c, 0, 66, 100
2, 43196, Note_off_c, 0, 62, 100
2, 43200, Note_on_c, 0, 66, 80
2, 43200, Note_on_c, 0, 62, 80
2, 43292, Note_off_c, 0, 66, 100
2, 43292, Note_off_c, 0, 62, 100
2, 43356, Note_on_c, 0, 80, 80
2, 43384, Note_off_c, 0, 80, 100
2, 43392, Note_on_c, 0, 81, 80
2, 43452, Note_off_c, 0, 81, 100
2, 43456, Note_on_c, 0, 78, 80
2, 43516, Note_off_c, 0, 78, 100
2, 43520, Note_on_c, 0, 74, 80
2, 43580, Note_off_c, 0, 74, 100
2, 43584, Note_on_c, 0, 69, 80
2, 43644, Note_off_c, 0, 69, 100
2, 43648, Note_on_c, 0, 67, 80
2, 43708, Note_off_c, 0, 67, 100
2, 43712, Note_on_c, 0, 66, 80
2, 43772, Note_off_c, 0, 66, 100
2, 43776, Note_on_c, 0, 64, 110
2, 43776, Note_on_c, 0, 62, 110
2, 43776, Note_on_c, 0, 59, 110
2, 43916, Note_off_c, 0, 64, 100
2, 43916, Note_off_c, 0, 62, 100
2, 43916, Note_off_c, 0, 59, 100
2, 43920, Note_on_c, 0, 64, 110
2, 43920, Note_on_c, 0, 62, 110
2, 43920, Note_on_c, 0, 59, 110
2, 43964, Note_off_c, 0, 64, 100
2, 43964, Note_off_c, 0, 62, 100
2, 43964, Note_off_c, 0, 59, 100
2, 43968, Note_on_c, 0, 64, 110
2, 43968, Note_on_c, 0, 62, 110
2, 43968, Note_on_c, 0, 59, 110
2, 44060, Note_off_c, 0, 64, 100
2, 44060, Note_off_c, 0, 62, 100
2, 44060, Note_off_c, 0, 59, 100
2, 44112, Note_on_c, 0, 85, 80
2, 44156, Note_off_c, 0, 85, 100
2, 44160, Note_on_c, 0, 86, 80
2, 44220, Note_off_c, 0, 86, 100
2, 44224, Note_on_c, 0, 83, 80
2, 44284, Note_off_c, 0, 83, 100
2, 44288, Note_on_c, 0, 80, 80
2, 44348, Note_off_c, 0, 80, 100
2, 44352, Note_on_c, 0, 76, 80
2, 44412, Note_off_c, 0, 76, 100
2, 44416, Note_on_c, 0, 74, 80
2, 44476, Note_off_c, 0, 74, 100
2, 44480, Note_on_c, 0, 71, 80
2, 44540, Note_off_c, 0, 71, 100
2, 44544, Note_on_c, 0, 73, 80
2, 44604, Note_off_c, 0, 73, 100
2, 44608, Note_on_c, 0, 81, 80
2, 44668, Note_off_c, 0, 81, 100
2, 44672, Note_on_c, 0, 80, 80
2, 44732, Note_off_c, 0, 80, 100
2, 44736, Note_on_c, 0, 81, 80
2, 44796, Note_off_c, 0, 81, 100
2, 44800, Note_on_c, 0, 76, 80
2, 44860, Note_off_c, 0, 76, 100
2, 44864, Note_on_c, 0, 73, 80
2, 44924, Note_off_c, 0, 73, 100
2, 44928, Note_on_c, 0, 71, 80
2, 44988, Note_off_c, 0, 71, 100
2, 44992, Note_on_c, 0, 76, 80
2, 45052, Note_off_c, 0, 76, 100
2, 45056, Note_on_c, 0, 75, 80
2, 45116, Note_off_c, 0, 75, 100
2, 45120, Note_on_c, 0, 76, 80
2, 45180, Note_off_c, 0, 76, 100
2, 45184, Note_on_c, 0, 74, 80
2, 45244, Note_off_c, 0, 74, 100
2, 45248, Note_on_c, 0, 71, 80
2, 45308, Note_off_c, 0, 71, 100
2, 45312, Note_on_c, 0, 69, 80
2, 45372, Note_off_c, 0, 69, 100
2, 45376, Note_on_c, 0, 64, 80
2, 45436, Note_off_c, 0, 64, 100
2, 45440, Note_on_c, 0, 73, 80
2, 45500, Note_off_c, 0, 73, 100
2, 45504, Note_on_c, 0, 69, 80
2, 45564, Note_off_c, 0, 69, 100
2, 45568, Note_on_c, 0, 64, 80
2, 45628, Note_off_c, 0, 64, 100
2, 45632, Note_on_c, 0, 73, 80
2, 45692, Note_off_c, 0, 73, 100
2, 45696, Note_on_c, 0, 69, 80
2, 45884, Note_off_c, 0, 69, 100
2, 46080, Note_on_c, 0, 62, 110
2, 46080, Note_on_c, 0, 60, 110
2, 46080, Note_on_c, 0, 57, 110
2, 46220, Note_off_c, 0, 62, 100
2, 46220, Note_off_c, 0, 60, 100
2, 46220, Note_off_c, 0, 57, 100
2, 46224, Note_on_c, 0, 62, 110
2, 46224, Note_on_c, 0, 60, 110
2, 46224, Note_on_c, 0, 57, 110
2, 46268, Note_off_c, 0, 62, 100
2, 46268, Note_off_c, 0, 60, 100
2, 46268, Note_off_c, 0, 57, 100
2, 46272, Note_on_c, 0, 62, 110
2, 46272, Note_on_c, 0, 60, 110
2, 46272, Note_on_c, 0, 57, 110
2, 46364, Note_off_c, 0, 62, 100
2, 46364, Note_off_c, 0, 60, 100
2, 46364, Note_off_c, 0, 57, 100
2, 46416, Note_on_c, 0, 83, 80
2, 46460, Note_off_c, 0, 83, 100
2, 46464, Note_on_c, 0, 84, 80
2, 46524, Note_off_c, 0, 84, 100
2, 46528, Note_on_c, 0, 81, 80
2, 46588, Note_off_c, 0, 81, 100
2, 46592, Note_on_c, 0, 78, 80
2, 46652, Note_off_c, 0, 78, 100
2, 46656, Note_on_c, 0, 74, 80
2, 46716, Note_off_c, 0, 74, 100
2, 46720, Note_on_c, 0, 72, 80
2, 46780, Note_off_c, 0, 72, 100
2, 46784, Note_on_c, 0, 69, 80
2, 46844, Note_off_c, 0, 69, 100
2, 46848, Note_on_c, 0, 62, 110
2, 46848, Note_on_c, 0, 59, 110
2, 46988, Note_off_c, 0, 62, 100
2, 46988, Note_off_c, 0, 59, 100
2, 46992, Note_on_c, 0, 62, 110
2, 46992, Note_on_c, 0, 59, 110
2, 47036, Note_off_c, 0, 62, 100
2, 47036, Note_off_c, 0, 59, 100
2, 47040, Note_on_c, 0, 62, 110
2, 47040, Note_on_c, 0, 59, 110
2, 47132, Note_off_c, 0, 62, 100
2, 47132, Note_off_c, 0, 59, 100
2, 47184, Note_on_c, 0, 85, 80
2, 47228, Note_off_c, 0, 85, 100
2, 47232, Note_on_c, 0, 86, 80
2, 47292, Note_off_c, 0, 86, 100
2, 47296, Note_on_c, 0, 83, 80
2, 47356, Note_off_c, 0, 83, 100
2, 47360, Note_on_c, 0, 79, 80
2, 47420, Note_off_c, 0, 79, 100
2, 47424, Note_on_c, 0, 86, 80
2, 47484, Note_off_c, 0, 86, 100
2, 47488, Note_on_c, 0, 84, 80
2, 47548, Note_off_c, 0, 84, 100
2, 47552, Note_on_c, 0, 81, 80
2, 47612, Note_off_c, 0, 81, 100
2, 47616, Note_on_c, 0, 84, 80
2, 47676, Note_off_c, 0, 84, 100
2, 47680, Note_on_c, 0, 83, 80
2, 47740, Note_off_c, 0, 83, 100
2, 47744, Note_on_c, 0, 79, 80
2, 47804, Note_off_c, 0, 79, 100
2, 47808, Note_on_c, 0, 83, 80
2, 47868, Note_off_c, 0, 83, 100
2, 47872, Note_on_c, 0, 81, 80
2, 47932, Note_off_c, 0, 81, 100
2, 47936, Note_on_c, 0, 78, 80
2, 47996, Note_off_c, 0, 78, 100
2, 48000, Note_on_c, 0, 81, 80
2, 48060, Note_off_c, 0, 81, 100
2, 48064, Note_on_c, 0, 79, 80
2, 48124, Note_off_c, 0, 79, 100
2, 48128, Note_on_c, 0, 76, 80
2, 48188, Note_off_c, 0, 76, 100
2, 48192, Note_on_c, 0, 79, 80
2, 48252, Note_off_c, 0, 79, 100
2, 48256, Note_on_c, 0, 78, 80
2, 48316, Note_off_c, 0, 78, 100
2, 48320, Note_on_c, 0, 74, 80
2, 48380, Note_off_c, 0, 74, 100
2, 48384, Note_on_c, 0, 78, 80
2, 48444, Note_off_c, 0, 78, 100
2, 48448, Note_on_c, 0, 76, 80
2, 48508, Note_off_c, 0, 76, 100
2, 48512, Note_on_c, 0, 71, 80
2, 48572, Note_off_c, 0, 71, 100
2, 48576, Note_on_c, 0, 76, 80
2, 48636, Note_off_c, 0, 76, 100
2, 48640, Note_on_c, 0, 74, 80
2, 48700, Note_off_c, 0, 74, 100
2, 48704, Note_on_c, 0, 71, 80
2, 48764, Note_off_c, 0, 71, 100
2, 48768, Note_on_c, 0, 74, 80
2, 48828, Note_off_c, 0, 74, 100
2, 48832, Note_on_c, 0, 73, 80
2, 48892, Note_off_c, 0, 73, 100
2, 48896, Note_on_c, 0, 71, 80
2, 48956, Note_off_c, 0, 71, 100
2, 48960, Note_on_c, 0, 69, 80
2, 49020, Note_off_c, 0, 69, 100
2, 49024, Note_on_c, 0, 71, 80
2, 49084, Note_off_c, 0, 71, 100
2, 49088, Note_on_c, 0, 67, 80
2, 49148, Note_off_c, 0, 67, 100
2, 49152, Note_on_c, 0, 66, 80
2, 49152, Note_on_c, 0, 62, 80
2, 49292, Note_off_c, 0, 66, 100
2, 49292, Note_off_c, 0, 62, 100
2, 49296, Note_on_c, 0, 62, 80
2, 49296, Note_on_c, 0, 66, 80
2, 49340, Note_off_c, 0, 62, 100
2, 49340, Note_off_c, 0, 66, 100
2, 49344, Note_on_c, 0, 66, 80
2, 49344, Note_on_c, 0, 62, 80
2, 49436, Note_off_c, 0, 66, 100
2, 49436, Note_off_c, 0, 62, 100
2, 49488, Note_on_c, 0, 80, 80
2, 49532, Note_off_c, 0, 80, 100
2, 49536, Note_on_c, 0, 81, 80
2, 49596, Note_off_c, 0, 81, 100
2, 49600, Note_on_c, 0, 78, 80
2, 49660, Note_off_c, 0, 78, 100
2, 49664, Note_on_c, 0, 74, 80
2, 49724, Note_off_c, 0, 74, 100
2, 49728, Note_on_c, 0, 69, 80
2, 49788, Note_off_c, 0, 69, 100
2, 49792, Note_on_c, 0, 67, 80
2, 49852, Note_off_c, 0, 67, 100
2, 49856, Note_on_c, 0, 66, 80
2, 49916, Note_off_c, 0, 66, 100
2, 49920, Note_on_c, 0, 64, 80
2, 49920, Note_on_c, 0, 62, 80
2, 49920, Note_on_c, 0, 59, 80
2, 50060, Note_off_c, 0, 64, 100
2, 50060, Note_off_c, 0, 62, 100
2, 50060, Note_off_c, 0, 59, 100
2, 50064, Note_on_c, 0, 64, 80
2, 50064, Note_on_c, 0, 62, 80
2, 50064, Note_on_c, 0, 59, 80
2, 50108, Note_off_c, 0, 64, 100
2, 50108, Note_off_c, 0, 62, 100
2, 50108, Note_off_c, 0, 59, 100
2, 50112, Note_on_c, 0, 64, 80
2, 50112, Note_on_c, 0, 62, 80
2, 50112, Note_on_c, 0, 59, 80
2, 50204, Note_off_c, 0, 64, 100
2, 50204, Note_off_c, 0, 62, 100
2, 50204, Note_off_c, 0, 59, 100
2, 50256, Note_on_c, 0, 85, 80
2, 50300, Note_off_c, 0, 85, 100
2, 50304, Note_on_c, 0, 86, 80
2, 50364, Note_off_c, 0, 86, 100
2, 50368, Note_on_c, 0, 83, 80
2, 50428, Note_off_c, 0, 83, 100
2, 50432, Note_on_c, 0, 81, 80
2, 50492, Note_off_c, 0, 81, 100
2, 50496, Note_on_c, 0, 79, 80
2, 50556, Note_off_c, 0, 79, 100
2, 50560, Note_on_c, 0, 78, 80
2, 50620, Note_off_c, 0, 78, 100
2, 50624, Note_on_c, 0, 76, 80
2, 50684, Note_off_c, 0, 76, 100
2, 50688, Note_on_c, 0, 74, 80
2, 50748, Note_off_c, 0, 74, 100
2, 50752, Note_on_c, 0, 81, 80
2, 50812, Note_off_c, 0, 81, 100
2, 50816, Note_on_c, 0, 80, 80
2, 50876, Note_off_c, 0, 80, 100
2, 50880, Note_on_c, 0, 81, 80
2, 50940, Note_off_c, 0, 81, 100
2, 50944, Note_on_c, 0, 78, 80
2, 51004, Note_off_c, 0, 78, 100
2, 51008, Note_on_c, 0, 74, 80
2, 51068, Note_off_c, 0, 74, 100
2, 51072, Note_on_c, 0, 73, 80
2, 51132, Note_off_c, 0, 73, 100
2, 51136, Note_on_c, 0, 79, 80
2, 51196, Note_off_c, 0, 79, 100
2, 51200, Note_on_c, 0, 78, 80
2, 51260, Note_off_c, 0, 78, 100
2, 51264, Note_on_c, 0, 79, 80
2, 51324, Note_off_c, 0, 79, 100
2, 51328, Note_on_c, 0, 76, 80
2, 51388, Note_off_c, 0, 76, 100
2, 51392, Note_on_c, 0, 73, 80
2, 51452, Note_off_c, 0, 73, 100
2, 51456, Note_on_c, 0, 74, 80
2, 51516, Note_off_c, 0, 74, 100
2, 51520, Note_on_c, 0, 69, 80
2, 51580, Note_off_c, 0, 69, 100
2, 51584, Note_on_c, 0, 78, 80
2, 51644, Note_off_c, 0, 78, 100
2, 51648, Note_on_c, 0, 74, 80
2, 51708, Note_off_c, 0, 74, 100
2, 51712, Note_on_c, 0, 69, 80
2, 51772, Note_off_c, 0, 69, 100
2, 51776, Note_on_c, 0, 78, 80
2, 51836, Note_off_c, 0, 78, 100
2, 51840, Note_on_c, 0, 74, 80
2, 52028, Note_off_c, 0, 74, 100
2, 52224, Note_on_c, 0, 62, 110
2, 52224, Note_on_c, 0, 60, 110
2, 52224, Note_on_c, 0, 57, 110
2, 52364, Note_off_c, 0, 62, 100
2, 52364, Note_off_c, 0, 60, 100
2, 52364, Note_off_c, 0, 57, 100
2, 52368, Note_on_c, 0, 62, 110
2, 52368, Note_on_c, 0, 60, 110
2, 52368, Note_on_c, 0, 57, 110
2, 52412, Note_off_c, 0, 62, 100
2, 52412, Note_off_c, 0, 60, 100
2, 52412, Note_off_c, 0, 57, 100
2, 52416, Note_on_c, 0, 62, 110
2, 52416, Note_on_c, 0, 60, 110
2, 52416, Note_on_c, 0, 57, 110
2, 52508, Note_off_c, 0, 62, 100
2, 52508, Note_off_c, 0, 60, 100
2, 52508, Note_off_c, 0, 57, 100
2, 52560, Note_on_c, 0, 83, 80
2, 52604, Note_off_c, 0, 83, 100
2, 52608, Note_on_c, 0, 84, 80
2, 52668, Note_off_c, 0, 84, 100
2, 52672, Note_on_c, 0, 81, 80
2, 52732, Note_off_c, 0, 81, 100
2, 52736, Note_on_c, 0, 78, 80
2, 52796, Note_off_c, 0, 78, 100
2, 52800, Note_on_c, 0, 74, 80
2, 52860, Note_off_c, 0, 74, 100
2, 52864, Note_on_c, 0, 72, 80
2, 52924, Note_off_c, 0, 72, 100
2, 52928, Note_on_c, 0, 69, 80
2, 52988, Note_off_c, 0, 69, 100
2, 52992, Note_on_c, 0, 62, 110
2, 52992, Note_on_c, 0, 59, 110
2, 53132, Note_off_c, 0, 62, 100
2, 53132, Note_off_c, 0, 59, 100
2, 53136, Note_on_c, 0, 62, 110
2, 53136, Note_on_c, 0, 59, 110
2, 53180, Note_off_c, 0, 62, 100
2, 53180, Note_off_c, 0, 59, 100
2, 53184, Note_on_c, 0, 62, 110
2, 53184, Note_on_c, 0, 59, 110
2, 53276, Note_off_c, 0, 62, 100
2, 53276, Note_off_c, 0, 59, 100
2, 53328, Note_on_c, 0, 85, 80
2, 53372, Note_off_c, 0, 85, 100
2, 53376, Note_on_c, 0, 86, 80
2, 53436, Note_off_c, 0, 86, 100
2, 53440, Note_on_c, 0, 83, 80
2, 53500, Note_off_c, 0, 83, 100
2, 53504, Note_on_c, 0, 79, 80
2, 53564, Note_off_c, 0, 79, 100
2, 53568, Note_on_c, 0, 86, 80
2, 53628, Note_off_c, 0, 86, 100
2, 53632, Note_on_c, 0, 84, 80
2, 53692, Note_off_c, 0, 84, 100
2, 53696, Note_on_c, 0, 81, 80
2, 53756, Note_off_c, 0, 81, 100
2, 53760, Note_on_c, 0, 84, 80
2, 53820, Note_off_c, 0, 84, 100
2, 53824, Note_on_c, 0, 83, 80
2, 53884, Note_off_c, 0, 83, 100
2, 53888, Note_on_c, 0, 79, 80
2, 53948, Note_off_c, 0, 79, 100
2, 53952, Note_on_c, 0, 83, 80
2, 54012, Note_off_c, 0, 83, 100
2, 54016, Note_on_c, 0, 81, 80
2, 54076, Note_off_c, 0, 81, 100
2, 54080, Note_on_c, 0, 78, 80
2, 54140, Note_off_c, 0, 78, 100
2, 54144, Note_on_c, 0, 81, 80
2, 54204, Note_off_c, 0, 81, 100
2, 54208, Note_on_c, 0, 79, 80
2, 54268, Note_off_c, 0, 79, 100
2, 54272, Note_on_c, 0, 76, 80
2, 54332, Note_off_c, 0, 76, 100
2, 54336, Note_on_c, 0, 79, 80
2, 54396, Note_off_c, 0, 79, 100
2, 54400, Note_on_c, 0, 78, 80
2, 54460, Note_off_c, 0, 78, 100
2, 54464, Note_on_c, 0, 74, 80
2, 54524, Note_off_c, 0, 74, 100
2, 54528, Note_on_c, 0, 78, 80
2, 54588, Note_off_c, 0, 78, 100
2, 54592, Note_on_c, 0, 76, 80
2, 54652, Note_off_c, 0, 76, 100
2, 54656, Note_on_c, 0, 71, 80
2, 54716, Note_off_c, 0, 71, 100
2, 54720, Note_on_c, 0, 76, 80
2, 54780, Note_off_c, 0, 76, 100
2, 54784, Note_on_c, 0, 74, 80
2, 54844, Note_off_c, 0, 74, 100
2, 54848, Note_on_c, 0, 71, 80
2, 54908, Note_off_c, 0, 71, 100
2, 54912, Note_on_c, 0, 74, 80
2, 54972, Note_off_c, 0, 74, 100
2, 54976, Note_on_c, 0, 73, 80
2, 55036, Note_off_c, 0, 73, 100
2, 55040, Note_on_c, 0, 71, 80
2, 55100, Note_off_c, 0, 71, 100
2, 55104, Note_on_c, 0, 69, 80
2, 55164, Note_off_c, 0, 69, 100
2, 55168, Note_on_c, 0, 71, 80
2, 55228, Note_off_c, 0, 71, 100
2, 55232, Note_on_c, 0, 67, 80
2, 55292, Note_off_c, 0, 67, 100
2, 55296, Note_on_c, 0, 66, 80
2, 55296, Note_on_c, 0, 62, 80
2, 55436, Note_off_c, 0, 66, 100
2, 55436, Note_off_c, 0, 62, 100
2, 55440, Note_on_c, 0, 62, 80
2, 55440, Note_on_c, 0, 66, 80
2, 55484, Note_off_c, 0, 62, 100
2, 55484, Note_off_c, 0, 66, 100
2, 55488, Note_on_c, 0, 66, 80
2, 55488, Note_on_c, 0, 62, 80
2, 55580, Note_off_c, 0, 66, 100
2, 55580, Note_off_c, 0, 62, 100
2, 55632, Note_on_c, 0, 80, 80
2, 55676, Note_off_c, 0, 80, 100
2, 55680, Note_on_c, 0, 81, 80
2, 55740, Note_off_c, 0, 81, 100
2, 55744, Note_on_c, 0, 78, 80
2, 55804, Note_off_c, 0, 78, 100
2, 55808, Note_on_c, 0, 74, 80
2, 55868, Note_off_c, 0, 74, 100
2, 55872, Note_on_c, 0, 69, 80
2, 55932, Note_off_c, 0, 69, 100
2, 55936, Note_on_c, 0, 67, 80
2, 55996, Note_off_c, 0, 67, 100
2, 56000, Note_on_c, 0, 66, 80
2, 56060, Note_off_c, 0, 66, 100
2, 56064, Note_on_c, 0, 64, 80
2, 56064, Note_on_c, 0, 62, 80
2, 56064, Note_on_c, 0, 59, 80
2, 56204, Note_off_c, 0, 64, 100
2, 56204, Note_off_c, 0, 62, 100
2, 56204, Note_off_c, 0, 59, 100
2, 56208, Note_on_c, 0, 64, 80
2, 56208, Note_on_c, 0, 62, 80
2, 56208, Note_on_c, 0, 59, 80
2, 56252, Note_off_c, 0, 64, 100
2, 56252, Note_off_c, 0, 62, 100
2, 56252, Note_off_c, 0, 59, 100
2, 56256, Note_on_c, 0, 64, 80
2, 56256, Note_on_c, 0, 62, 80
2, 56256, Note_on_c, 0, 59, 80
2, 56348, Note_off_c, 0, 64, 100
2, 56348, Note_off_c, 0, 62, 100
2, 56348, Note_off_c, 0, 59, 100
2, 56400, Note_on_c, 0, 85, 80
2, 56444, Note_off_c, 0, 85, 100
2, 56448, Note_on_c, 0, 86, 80
2, 56508, Note_off_c, 0, 86, 100
2, 56512, Note_on_c, 0, 83, 80
2, 56572, Note_off_c, 0, 83, 100
2, 56576, Note_on_c, 0, 81, 80
2, 56636, Note_off_c, 0, 81, 100
2, 56640, Note_on_c, 0, 79, 80
2, 56700, Note_off_c, 0, 79, 100
2, 56704, Note_on_c, 0, 78, 80
2, 56764, Note_off_c, 0, 78, 100
2, 56768, Note_on_c, 0, 76, 80
2, 56828, Note_off_c, 0, 76, 100
2, 56832, Note_on_c, 0, 74, 80
2, 56892, Note_off_c, 0, 74, 100
2, 56896, Note_on_c, 0, 81, 80
2, 56956, Note_off_c, 0, 81, 100
2, 56960, Note_on_c, 0, 80, 80
2, 57020, Note_off_c, 0, 80, 100
2, 57024, Note_on_c, 0, 81, 80
2, 57084, Note_off_c, 0, 81, 100
2, 57088, Note_on_c, 0, 78, 80
2, 57148, Note_off_c, 0, 78, 100
2, 57152, Note_on_c, 0, 74, 80
2, 57212, Note_off_c, 0, 74, 100
2, 57216, Note_on_c, 0, 73, 80
2, 57276, Note_off_c, 0, 73, 100
2, 57280, Note_on_c, 0, 79, 80
2, 57340, Note_off_c, 0, 79, 100
2, 57344, Note_on_c, 0, 78, 80
2, 57404, Note_off_c, 0, 78, 100
2, 57408, Note_on_c, 0, 79, 80
2, 57468, Note_off_c, 0, 79, 100
2, 57472, Note_on_c, 0, 76, 80
2, 57532, Note_off_c, 0, 76, 100
2, 57536, Note_on_c, 0, 73, 80
2, 57596, Note_off_c, 0, 73, 100
2, 57600, Note_on_c, 0, 74, 80
2, 57660, Note_off_c, 0, 74, 100
2, 57664, Note_on_c, 0, 69, 80
2, 57724, Note_off_c, 0, 69, 100
2, 57728, Note_on_c, 0, 78, 80
2, 57788, Note_off_c, 0, 78, 100
2, 57792, Note_on_c, 0, 74, 80
2, 57852, Note_off_c, 0, 74, 100
2, 57856, Note_on_c, 0, 69, 80
2, 57916, Note_off_c, 0, 69, 100
2, 57920, Note_on_c, 0, 78, 80
2, 57980, Note_off_c, 0, 78, 100
2, 57984, Note_on_c, 0, 74, 80
2, 58172, Note_off_c, 0, 74, 100
2, 58176, Note_on_c, 0, 57, 80
2, 58364, Note_off_c, 0, 57, 100
2, 58368, Key_signature, -1, "minor"
2, 58368, Note_on_c, 0, 62, 80
2, 58368, Note_on_c, 0, 57, 80
2, 58368, Note_on_c, 0, 53, 80
2, 58748, Note_off_c, 0, 62, 100
2, 58748, Note_off_c, 0, 57, 100
2, 58748, Note_off_c, 0, 53, 100
2, 58752, Note_on_c, 0, 69, 80
2, 58752, Note_on_c, 0, 64, 80
2, 58752, Note_on_c, 0, 57, 80
2, 59132, Note_off_c, 0, 69, 100
2, 59132, Note_off_c, 0, 64, 100
2, 59132, Note_off_c, 0, 57, 100
2, 59136, Note_on_c, 0, 57, 80
2, 59136, Note_on_c, 0, 62, 80
2, 59136, Note_on_c, 0, 67, 80
2, 59324, Note_off_c, 0, 67, 100
2, 59328, Note_on_c, 0, 65, 80
2, 59468, Note_off_c, 0, 65, 100
2, 59472, Note_on_c, 0, 64, 80
2, 59516, Note_off_c, 0, 57, 100
2, 59516, Note_off_c, 0, 62, 100
2, 59516, Note_off_c, 0, 64, 100
2, 59520, Note_on_c, 0, 62, 80
2, 59708, Note_off_c, 0, 62, 100
2, 59712, Note_on_c, 0, 62, 80
2, 59712, Note_on_c, 0, 74, 80
2, 59712, Note_on_c, 0, 69, 80
2, 59900, Note_off_c, 0, 62, 100
2, 59900, Note_off_c, 0, 74, 100
2, 59900, Note_off_c, 0, 69, 100
2, 59904, Note_on_c, 0, 74, 80
2, 59904, Note_on_c, 0, 67, 80
2, 59904, Note_on_c, 0, 64, 80
2, 60092, Note_off_c, 0, 74, 100
2, 60092, Note_off_c, 0, 67, 100
2, 60092, Note_off_c, 0, 64, 100
2, 60096, Note_on_c, 0, 74, 88
2, 60096, Note_on_c, 0, 69, 88
2, 60096, Note_on_c, 0, 65, 88
2, 60284, Note_off_c, 0, 74, 100
2, 60284, Note_off_c, 0, 69, 100
2, 60284, Note_off_c, 0, 65, 100
2, 60288, Note_on_c, 0, 74, 97
2, 60288, Note_on_c, 0, 70, 97
2, 60288, Note_on_c, 0, 64, 97
2, 60476, Note_off_c, 0, 74, 100
2, 60476, Note_off_c, 0, 70, 100
2, 60476, Note_off_c, 0, 64, 100
2, 60480, Note_on_c, 0, 74, 105
2, 60480, Note_on_c, 0, 71, 105
2, 60480, Note_on_c, 0, 65, 105
2, 60668, Note_off_c, 0, 74, 100
2, 60668, Note_off_c, 0, 71, 100
2, 60668, Note_off_c, 0, 65, 100
2, 60672, Note_on_c, 0, 74, 80
2, 60672, Note_on_c, 0, 65, 80
2, 60672, Note_on_c, 0, 69, 80
2, 61052, Note_off_c, 0, 74, 100
2, 61052, Note_off_c, 0, 65, 100
2, 61056, Note_on_c, 0, 73, 80
2, 61056, Note_on_c, 0, 64, 80
2, 61244, Note_off_c, 0, 69, 100
2, 61244, Note_off_c, 0, 73, 100
2, 61244, Note_off_c, 0, 64, 100
2, 61440, Note_on_c, 0, 65, 80
2, 61440, Note_on_c, 0, 60, 80
2, 61440, Note_on_c, 0, 57, 80
2, 61820, Note_off_c, 0, 65, 100
2, 61820, Note_off_c, 0, 60, 100
2, 61820, Note_off_c, 0, 57, 100
2, 61824, Note_on_c, 0, 72, 80
2, 61824, Note_on_c, 0, 67, 80
2, 61824, Note_on_c, 0, 60, 80
2, 62204, Note_off_c, 0, 72, 100
2, 62204, Note_off_c, 0, 67, 100
2, 62204, Note_off_c, 0, 60, 100
2, 62208, Note_on_c, 0, 65, 80
2, 62208, Note_on_c, 0, 60, 80
2, 62208, Note_on_c, 0, 70, 80
2, 62396, Note_off_c, 0, 70, 100
2, 62400, Note_on_c, 0, 69, 80
2, 62540, Note_off_c, 0, 69, 100
2, 62544, Note_on_c, 0, 68, 80
2, 62588, Note_off_c, 0, 68, 100
2, 62592, Note_on_c, 0, 69, 80
2, 62780, Note_off_c, 0, 65, 100
2, 62780, Note_off_c, 0, 60, 100
2, 62780, Note_off_c, 0, 69, 100
2, 62784, Note_on_c, 0, 71, 80
2, 62784, Note_on_c, 0, 69, 80
2, 62784, Note_on_c, 0, 65, 80
2, 62972, Note_off_c, 0, 71, 100
2, 62972, Note_off_c, 0, 69, 100
2, 62972, Note_off_c, 0, 65, 100
2, 62976, Note_on_c, 0, 72, 80
2, 62976, Note_on_c, 0, 69, 80
2, 62976, Note_on_c, 0, 64, 80
2, 63356, Note_off_c, 0, 72, 100
2, 63356, Note_off_c, 0, 69, 100
2, 63356, Note_off_c, 0, 64, 100
2, 63360, Note_on_c, 0, 68, 97
2, 63360, Note_on_c, 0, 64, 97
2, 63360, Note_on_c, 0, 62, 97
2, 63740, Note_off_c, 0, 68, 100
2, 63740, Note_off_c, 0, 64, 100
2, 63740, Note_off_c, 0, 62, 100
2, 63744, Note_on_c, 0, 69, 80
2, 63744, Note_on_c, 0, 64, 80
2, 63744, Note_on_c, 0, 60, 80
2, 63932, Note_off_c, 0, 69, 100
2, 63932, Note_off_c, 0, 64, 100
2, 63932, Note_off_c, 0, 60, 100
2, 63936, Note_on_c, 0, 58, 80
2, 64124, Note_off_c, 0, 58, 100
2, 64128, Note_on_c, 0, 57, 80
2, 64316, Note_off_c, 0, 57, 100
2, 64320, Note_on_c, 0, 61, 80
2, 64508, Note_off_c, 0, 61, 100
2, 64512, Note_on_c, 0, 62, 80
2, 64560, Note_on_c, 0, 65, 80
2, 64584, Note_off_c, 0, 62, 100
2, 64608, Note_on_c, 0, 69, 80
2, 64640, Note_off_c, 0, 65, 100
2, 64656, Note_on_c, 0, 73, 80
2, 64688, Note_off_c, 0, 69, 100
2, 64704, Note_on_c, 0, 74, 80
2, 64736, Note_off_c, 0, 73, 100
2, 64752, Note_on_c, 0, 76, 80
2, 64792, Note_off_c, 0, 74, 100
2, 64800, Note_on_c, 0, 77, 80
2, 64836, Note_off_c, 0, 76, 100
2, 64848, Note_on_c, 0, 79, 80
2, 64884, Note_off_c, 0, 77, 100
2, 64896, Note_on_c, 0, 80, 80
2, 64928, Note_off_c, 0, 79, 100
2, 64944, Note_on_c, 0, 81, 80
2, 64980, Note_off_c, 0, 80, 100
2, 64992, Note_on_c, 0, 80, 80
2, 65020, Note_off_c, 0, 81, 100
2, 65040, Note_on_c, 0, 81, 80
2, 65080, Note_off_c, 0, 80, 100
2, 65088, Note_on_c, 0, 80, 80
2, 65132, Note_off_c, 0, 81, 100
2, 65136, Note_on_c, 0, 81, 80
2, 65164, Note_off_c, 0, 80, 100
2, 65184, Note_on_c, 0, 82, 80
2, 65208, Note_off_c, 0, 81, 100
2, 65232, Note_on_c, 0, 81, 80
2, 65264, Note_off_c, 0, 82, 100
2, 65280, Note_on_c, 0, 79, 80
2, 65316, Note_off_c, 0, 81, 100
2, 65328, Note_on_c, 0, 77, 80
2, 65372, Note_off_c, 0, 79, 100
2, 65376, Note_on_c, 0, 76, 80
2, 65420, Note_off_c, 0, 77, 100
2, 65424, Note_on_c, 0, 74, 80
2, 65468, Note_off_c, 0, 76, 100
2, 65472, Note_on_c, 0, 73, 80
2, 65516, Note_off_c, 0, 74, 100
2, 65520, Note_on_c, 0, 74, 80
2, 65564, Note_off_c, 0, 73, 100
2, 65568, Note_on_c, 0, 73, 80
2, 65612, Note_off_c, 0, 74, 100
2, 65616, Note_on_c, 0, 74, 80
2, 65660, Note_off_c, 0, 73, 100
2, 65664, Note_on_c, 0, 73, 80
2, 65708, Note_off_c, 0, 74, 100
2, 65712, Note_on_c, 0, 74, 80
2, 65756, Note_off_c, 0, 73, 100
2, 65760, Note_on_c, 0, 76, 80
2, 65804, Note_off_c, 0, 74, 100
2, 65808, Note_on_c, 0, 74, 80
2, 65852, Note_off_c, 0, 76, 100
2, 65856, Note_on_c, 0, 69, 80
2, 65900, Note_off_c, 0, 74, 100
2, 65904, Note_on_c, 0, 74, 80
2, 65952, Note_on_c, 0, 76, 80
2, 65996, Note_off_c, 0, 74, 100
2, 66000, Note_on_c, 0, 74, 80
2, 66044, Note_off_c, 0, 69, 100
2, 66044, Note_off_c, 0, 76, 100
2, 66048, Note_on_c, 0, 64, 81
2, 66048, Note_on_c, 0, 67, 81
2, 66092, Note_off_c, 0, 74, 100
2, 66096, Note_on_c, 0, 74, 83
2, 66140, Note_off_c, 0, 67, 100
2, 66144, Note_on_c, 0, 76, 85
2, 66188, Note_off_c, 0, 74, 100
2, 66192, Note_on_c, 0, 74, 87
2, 66236, Note_off_c, 0, 64, 100
2, 66236, Note_off_c, 0, 76, 100
2, 66240, Note_on_c, 0, 65, 89
2, 66240, Note_on_c, 0, 69, 89
2, 66284, Note_off_c, 0, 74, 100
2, 66288, Note_on_c, 0, 74, 91
2, 66332, Note_off_c, 0, 69, 100
2, 66336, Note_on_c, 0, 76, 93
2, 66380, Note_off_c, 0, 74, 100
2, 66384, Note_on_c, 0, 74, 95
2, 66428, Note_off_c, 0, 65, 100
2, 66428, Note_off_c, 0, 76, 100
2, 66432, Note_on_c, 0, 64, 97
2, 66432, Note_on_c, 0, 70, 97
2, 66476, Note_off_c, 0, 74, 100
2, 66480, Note_on_c, 0, 74, 99
2, 66524, Note_off_c, 0, 70, 100
2, 66528, Note_on_c, 0, 76, 101
2, 66572, Note_off_c, 0, 74, 100
2, 66576, Note_on_c, 0, 74, 103
2, 66620, Note_off_c, 0, 64, 100
2, 66620, Note_off_c, 0, 76, 100
2, 66624, Note_on_c, 0, 65, 105
2, 66624, Note_on_c, 0, 71, 105
2, 66668, Note_off_c, 0, 74, 100
2, 66672, Note_on_c, 0, 74, 107
2, 66716, Note_off_c, 0, 71, 100
2, 66720, Note_on_c, 0, 76, 109
2, 66764, Note_off_c, 0, 74, 100
2, 66768, Note_on_c, 0, 74, 80
2, 66812, Note_off_c, 0, 65, 100
2, 66812, Note_off_c, 0, 76, 100
2, 66816, Note_on_c, 0, 65, 80
2, 66816, Note_on_c, 0, 69, 80
2, 66860, Note_off_c, 0, 74, 100
2, 66864, Note_on_c, 0, 73, 80
2, 66908, Note_off_c, 0, 69, 100
2, 66912, Note_on_c, 0, 74, 80
2, 66956, Note_off_c, 0, 73, 100
2, 66960, Note_on_c, 0, 73, 80
2, 67004, Note_off_c, 0, 74, 100
2, 67008, Note_on_c, 0, 74, 80
2, 67052, Note_off_c, 0, 73, 100
2, 67056, Note_on_c, 0, 77, 80
2, 67100, Note_off_c, 0, 74, 100
2, 67104, Note_on_c, 0, 76, 80
2, 67148, Note_off_c, 0, 77, 100
2, 67152, Note_on_c, 0, 74, 80
2, 67196, Note_off_c, 0, 65, 100
2, 67196, Note_off_c, 0, 76, 100
2, 67200, Note_on_c, 0, 64, 80
2, 67200, Note_on_c, 0, 73, 80
2, 67244, Note_off_c, 0, 74, 100
2, 67248, Note_on_c, 0, 72, 80
2, 67292, Note_off_c, 0, 73, 100
2, 67296, Note_on_c, 0, 74, 80
2, 67340, Note_off_c, 0, 72, 100
2, 67344, Note_on_c, 0, 72, 80
2, 67388, Note_off_c, 0, 64, 100
2, 67388, Note_off_c, 0, 74, 100
2, 67392, Note_on_c, 0, 71, 80
2, 67436, Note_off_c, 0, 72, 100
2, 67440, Note_on_c, 0, 72, 80
2, 67484, Note_off_c, 0, 71, 100
2, 67488, Note_on_c, 0, 74, 80
2, 67532, Note_off_c, 0, 72, 100
2, 67536, Note_on_c, 0, 76, 80
2, 67580, Note_off_c, 0, 74, 100
2, 67584, Note_on_c, 0, 77, 80
2, 67628, Note_off_c, 0, 76, 100
2, 67632, Note_on_c, 0, 65, 80
2, 67676, Note_off_c, 0, 77, 100
2, 67680, Note_on_c, 0, 69, 80
2, 67724, Note_off_c, 0, 65, 100
2, 67728, Note_on_c, 0, 72, 80
2, 67772, Note_off_c, 0, 69, 100
2, 67776, Note_on_c, 0, 77, 80
2, 67820, Note_off_c, 0, 72, 100
2, 67824, Note_on_c, 0, 79, 80
2, 67868, Note_off_c, 0, 77, 100
2, 67872, Note_on_c, 0, 81, 80
2, 67916, Note_off_c, 0, 79, 100
2, 67920, Note_on_c, 0, 82, 80
2, 67964, Note_off_c, 0, 81, 100
2, 67968, Note_on_c, 0, 83, 80
2, 68012, Note_off_c, 0, 82, 100
2, 68016, Note_on_c, 0, 84, 80
2, 68060, Note_off_c, 0, 83, 100
2, 68064, Note_on_c, 0, 83, 80
2, 68108, Note_off_c, 0, 84, 100
2, 68112, Note_on_c, 0, 84, 80
2, 68156, Note_off_c, 0, 83, 100
2, 68160, Note_on_c, 0, 83, 80
2, 68204, Note_off_c, 0, 84, 100
2, 68208, Note_on_c, 0, 84, 80
2, 68252, Note_off_c, 0, 83, 100
2, 68256, Note_on_c, 0, 86, 80
2, 68300, Note_off_c, 0, 84, 100
2, 68304, Note_on_c, 0, 84, 80
2, 68348, Note_off_c, 0, 86, 100
2, 68352, Note_on_c, 0, 82, 80
2, 68396, Note_off_c, 0, 84, 100
2, 68400, Note_on_c, 0, 81, 80
2, 68444, Note_off_c, 0, 82, 100
2, 68448, Note_on_c, 0, 80, 80
2, 68492, Note_off_c, 0, 81, 100
2, 68496, Note_on_c, 0, 81, 80
2, 68540, Note_off_c, 0, 80, 100
2, 68544, Note_on_c, 0, 80, 80
2, 68588, Note_off_c, 0, 81, 100
2, 68592, Note_on_c, 0, 81, 80
2, 68636, Note_off_c, 0, 80, 100
2, 68640, Note_on_c, 0, 82, 80
2, 68684, Note_off_c, 0, 81, 100
2, 68688, Note_on_c, 0, 81, 80
2, 68732, Note_off_c, 0, 82, 100
2, 68736, Note_on_c, 0, 69, 80
2, 68780, Note_off_c, 0, 81, 100
2, 68784, Note_on_c, 0, 81, 80
2, 68828, Note_off_c, 0, 69, 100
2, 68832, Note_on_c, 0, 80, 80
2, 68876, Note_off_c, 0, 81, 100
2, 68880, Note_on_c, 0, 81, 80
2, 68924, Note_off_c, 0, 80, 100
2, 68928, Note_on_c, 0, 71, 80
2, 68972, Note_off_c, 0, 81, 100
2, 68976, Note_on_c, 0, 83, 80
2, 69020, Note_off_c, 0, 71, 100
2, 69024, Note_on_c, 0, 81, 80
2, 69068, Note_off_c, 0, 83, 100
2, 69072, Note_on_c, 0, 83, 80
2, 69116, Note_off_c, 0, 81, 100
2, 69120, Note_on_c, 0, 72, 81
2, 69164, Note_off_c, 0, 83, 100
2, 69168, Note_on_c, 0, 84, 83
2, 69212, Note_off_c, 0, 72, 100
2, 69216, Note_on_c, 0, 83, 85
2, 69260, Note_off_c, 0, 84, 100
2, 69264, Note_on_c, 0, 84, 87
2, 69308, Note_off_c, 0, 83, 100
2, 69312, Note_on_c, 0, 88, 89
2, 69356, Note_off_c, 0, 84, 100
2, 69360, Note_on_c, 0, 84, 91
2, 69404, Note_off_c, 0, 88, 100
2, 69408, Note_on_c, 0, 83, 93
2, 69452, Note_off_c, 0, 84, 100
2, 69456, Note_on_c, 0, 81, 95
2, 69500, Note_off_c, 0, 83, 100
2, 69504, Note_on_c, 0, 80, 97
2, 69548, Note_off_c, 0, 81, 100
2, 69552, Note_on_c, 0, 77, 99
2, 69596, Note_off_c, 0, 80, 100
2, 69600, Note_on_c, 0, 76, 101
2, 69644, Note_off_c, 0, 77, 100
2, 69648, Note_on_c, 0, 74, 103
2, 69692, Note_off_c, 0, 76, 100
2, 69696, Note_on_c, 0, 72, 105
2, 69740, Note_off_c, 0, 74, 100
2, 69744, Note_on_c, 0, 71, 107
2, 69788, Note_off_c, 0, 72, 100
2, 69792, Note_on_c, 0, 69, 109
2, 69836, Note_off_c, 0, 71, 100
2, 69840, Note_on_c, 0, 68, 110
2, 69884, Note_off_c, 0, 69, 100
2, 69888, Note_on_c, 0, 69, 110
2, 69932, Note_off_c, 0, 68, 100
2, 69980, Note_off_c, 0, 69, 100
2, 69984, Note_on_c, 0, 57, 110
2, 70076, Note_off_c, 0, 57, 100
2, 70176, Note_on_c, 0, 58, 110
2, 70268, Note_off_c, 0, 58, 100
2, 70368, Note_on_c, 0, 57, 110
2, 70460, Note_off_c, 0, 57, 100
2, 70560, Note_on_c, 0, 56, 110
2, 70652, Note_off_c, 0, 56, 100
2, 70656, Note_on_c, 0, 76, 80
2, 70656, Note_on_c, 0, 73, 80
2, 71036, Note_off_c, 0, 76, 100
2, 71036, Note_off_c, 0, 73, 100
2, 71040, Note_on_c, 0, 79, 80
2, 71040, Note_on_c, 0, 76, 80
2, 71372, Note_off_c, 0, 79, 100
2, 71372, Note_off_c, 0, 76, 100
2, 71376, Note_on_c, 0, 77, 80
2, 71376, Note_on_c, 0, 74, 80
2, 71420, Note_off_c, 0, 77, 100
2, 71420, Note_off_c, 0, 74, 100
2, 71424, Note_on_c, 0, 77, 80
2, 71424, Note_on_c, 0, 74, 80
2, 71612, Note_off_c, 0, 77, 100
2, 71612, Note_off_c, 0, 74, 100
2, 71616, Note_on_c, 0, 76, 100
2, 71616, Note_on_c, 0, 73, 100
2, 71616, Note_on_c, 0, 70, 100
2, 71996, Note_off_c, 0, 76, 100
2, 71996, Note_off_c, 0, 73, 100
2, 71996, Note_off_c, 0, 70, 100
2, 72000, Note_on_c, 0, 71, 80
2, 72000, Note_on_c, 0, 77, 80
2, 72140, Note_off_c, 0, 77, 100
2, 72144, Note_on_c, 0, 74, 80
2, 72188, Note_off_c, 0, 71, 100
2, 72188, Note_off_c, 0, 74, 100
2, 72192, Note_on_c, 0, 73, 80
2, 72192, Note_on_c, 0, 69, 80
2, 72668, Note_off_c, 0, 73, 100
2, 72668, Note_off_c, 0, 69, 100
2, 72672, Note_on_c, 0, 73, 80
2, 72672, Note_on_c, 0, 76, 80
2, 72764, Note_off_c, 0, 73, 100
2, 72764, Note_off_c, 0, 76, 100
2, 72768, Note_on_c, 0, 79, 80
2, 72768, Note_on_c, 0, 76, 80
2, 72908, Note_off_c, 0, 79, 100
2, 72908, Note_off_c, 0, 76, 100
2, 72912, Note_on_c, 0, 77, 80
2, 72912, Note_on_c, 0, 74, 80
2, 72956, Note_off_c, 0, 77, 100
2, 72956, Note_off_c, 0, 74, 100
2, 72960, Note_on_c, 0, 77, 80
2, 72960, Note_on_c, 0, 74, 80
2, 73148, Note_off_c, 0, 77, 100
2, 73148, Note_off_c, 0, 74, 100
2, 73152, Note_on_c, 0, 76, 100
2, 73152, Note_on_c, 0, 73, 100
2, 73152, Note_on_c, 0, 70, 100
2, 73532, Note_off_c, 0, 76, 100
2, 73532, Note_off_c, 0, 73, 100
2, 73532, Note_off_c, 0, 70, 100
2, 73536, Note_on_c, 0, 71, 80
2, 73536, Note_on_c, 0, 77, 80
2, 73676, Note_off_c, 0, 77, 100
2, 73680, Note_on_c, 0, 74, 80
2, 73724, Note_off_c, 0, 71, 100
2, 73724, Note_off_c, 0, 74, 100
2, 73728, Note_on_c, 0, 69, 80
2, 73728, Note_on_c, 0, 73, 80
2, 73916, Note_off_c, 0, 69, 100
2, 73916, Note_off_c, 0, 73, 100
2, 73920, Note_on_c, 0, 76, 100
2, 73920, Note_on_c, 0, 73, 100
2, 73920, Note_on_c, 0, 70, 100
2, 74300, Note_off_c, 0, 76, 100
2, 74300, Note_off_c, 0, 73, 100
2, 74300, Note_off_c, 0, 70, 100
2, 74304, Note_on_c, 0, 71, 80
2, 74304, Note_on_c, 0, 77, 80
2, 74444, Note_off_c, 0, 77, 100
2, 74448, Note_on_c, 0, 74, 80
2, 74492, Note_off_c, 0, 71, 100
2, 74492, Note_off_c, 0, 74, 100
2, 74496, Note_on_c, 0, 73, 80
2, 74496, Note_on_c, 0, 69, 80
2, 74588, Note_off_c, 0, 69, 100
2, 74636, Note_off_c, 0, 73, 100
2, 74640, Note_on_c, 0, 76, 80
2, 74684, Note_off_c, 0, 76, 100
2, 74688, Note_on_c, 0, 77, 80
2, 74688, Note_on_c, 0, 71, 80
2, 74828, Note_off_c, 0, 77, 100
2, 74832, Note_on_c, 0, 74, 80
2, 74876, Note_off_c, 0, 71, 100
2, 74876, Note_off_c, 0, 74, 100
2, 74880, Note_on_c, 0, 73, 80
2, 74880, Note_on_c, 0, 69, 80
2, 74972, Note_off_c, 0, 69, 100
2, 75020, Note_off_c, 0, 73, 100
2, 75024, Note_on_c, 0, 76, 80
2, 75068, Note_off_c, 0, 76, 100
2, 75072, Note_on_c, 0, 77, 80
2, 75072, Note_on_c, 0, 71, 80
2, 75212, Note_off_c, 0, 77, 100
2, 75216, Note_on_c, 0, 74, 80
2, 75260, Note_off_c, 0, 71, 100
2, 75260, Note_off_c, 0, 74, 100
2, 75264, Note_on_c, 0, 73, 80
2, 75264, Note_on_c, 0, 69, 80
2, 75452, Note_off_c, 0, 69, 100
2, 75644, Note_off_c, 0, 73, 100
2, 75648, Note_on_c, 0, 76, 80
2, 76028, Note_off_c, 0, 76, 100
2, 76032, Note_on_c, 0, 79, 80
2, 76604, Note_off_c, 0, 79, 100
2, 76608, Note_on_c, 0, 73, 80
2, 76608, Note_on_c, 0, 61, 80
2, 76796, Note_off_c, 0, 73, 100
2, 76796, Note_off_c, 0, 61, 100
2, 76800, Note_on_c, 0, 74, 80
2, 76800, Note_on_c, 0, 62, 80
2, 77180, Note_off_c, 0, 74, 100
2, 77180, Note_off_c, 0, 62, 100
2, 77184, Note_on_c, 0, 69, 80
2, 77184, Note_on_c, 0, 81, 80
2, 77564, Note_off_c, 0, 69, 100
2, 77564, Note_off_c, 0, 81, 100
2, 77568, Note_on_c, 0, 79, 80
2, 77568, Note_on_c, 0, 67, 80
2, 77756, Note_off_c, 0, 79, 100
2, 77756, Note_off_c, 0, 67, 100
2, 77760, Note_on_c, 0, 77, 80
2, 77760, Note_on_c, 0, 65, 80
2, 77900, Note_off_c, 0, 77, 100
2, 77900, Note_off_c, 0, 65, 100
2, 77904, Note_on_c, 0, 76, 80
2, 77904, Note_on_c, 0, 64, 80
2, 77948, Note_off_c, 0, 76, 100
2, 77948, Note_off_c, 0, 64, 100
2, 77952, Note_on_c, 0, 74, 80
2, 77952, Note_on_c, 0, 62, 80
2, 78140, Note_off_c, 0, 74, 100
2, 78140, Note_off_c, 0, 62, 100
2, 78144, Note_on_c, 0, 67, 100
2, 78144, Note_on_c, 0, 79, 100
2, 78332, Note_off_c, 0, 67, 100
2, 78332, Note_off_c, 0, 79, 100
2, 78336, Note_on_c, 0, 77, 80
2, 78336, Note_on_c, 0, 65, 80
2, 78524, Note_off_c, 0, 77, 100
2, 78524, Note_off_c, 0, 65, 100
2, 78528, Note_on_c, 0, 76, 80
2, 78528, Note_on_c, 0, 64, 80
2, 78668, Note_off_c, 0, 76, 100
2, 78668, Note_off_c, 0, 64, 100
2, 78672, Note_on_c, 0, 74, 80
2, 78672, Note_on_c, 0, 62, 80
2, 78716, Note_off_c, 0, 74, 100
2, 78716, Note_off_c, 0, 62, 100
2, 78720, Note_on_c, 0, 72, 80
2, 78720, Note_on_c, 0, 60, 80
2, 78908, Note_off_c, 0, 72, 100
2, 78908, Note_off_c, 0, 60, 100
2, 78912, Note_on_c, 0, 81, 100
2, 78912, Note_on_c, 0, 69, 100
2, 79100, Note_off_c, 0, 81, 100
2, 79100, Note_off_c, 0, 69, 100
2, 79104, Note_on_c, 0, 79, 80
2, 79104, Note_on_c, 0, 67, 80
2, 79292, Note_off_c, 0, 79, 100
2, 79292, Note_off_c, 0, 67, 100
2, 79296, Note_on_c, 0, 77, 80
2, 79296, Note_on_c, 0, 65, 80
2, 79436, Note_off_c, 0, 77, 100
2, 79436, Note_off_c, 0, 65, 100
2, 79440, Note_on_c, 0, 76, 80
2, 79440, Note_on_c, 0, 64, 80
2, 79484, Note_off_c, 0, 76, 100
2, 79484, Note_off_c, 0, 64, 100
2, 79488, Note_on_c, 0, 74, 83
2, 79488, Note_on_c, 0, 62, 83
2, 79676, Note_off_c, 0, 74, 100
2, 79676, Note_off_c, 0, 62, 100
2, 79680, Note_on_c, 0, 74, 98
2, 79680, Note_on_c, 0, 86, 98
2, 79820, Note_off_c, 0, 74, 100
2, 79820, Note_off_c, 0, 86, 100
2, 79824, Note_on_c, 0, 84, 109
2, 79824, Note_on_c, 0, 72, 109
2, 79868, Note_off_c, 0, 84, 100
2, 79868, Note_off_c, 0, 72, 100
2, 79872, Note_on_c, 0, 84, 110
2, 79872, Note_on_c, 0, 72, 110
2, 79964, Note_off_c, 0, 84, 100
2, 79964, Note_off_c, 0, 72, 100
2, 79968, Note_on_c, 0, 82, 110
2, 79968, Note_on_c, 0, 70, 110
2, 80060, Note_off_c, 0, 82, 100
2, 80060, Note_off_c, 0, 70, 100
2, 80064, Note_on_c, 0, 81, 110
2, 80064, Note_on_c, 0, 69, 110
2, 80156, Note_off_c, 0, 81, 100
2, 80156, Note_off_c, 0, 69, 100
2, 80160, Note_on_c, 0, 80, 110
2, 80160, Note_on_c, 0, 68, 110
2, 80252, Note_off_c, 0, 80, 100
2, 80252, Note_off_c, 0, 68, 100
2, 80256, Note_on_c, 0, 80, 110
2, 80256, Note_on_c, 0, 68, 110
2, 80348, Note_off_c, 0, 80, 100
2, 80348, Note_off_c, 0, 68, 100
2, 80352, Note_on_c, 0, 81, 110
2, 80352, Note_on_c, 0, 69, 110
2, 80540, Note_off_c, 0, 81, 100
2, 80540, Note_off_c, 0, 69, 100
2, 80544, Note_on_c, 0, 61, 95
2, 80544, Note_on_c, 0, 55, 95
2, 80636, Note_off_c, 0, 61, 100
2, 80636, Note_off_c, 0, 55, 100
2, 80640, Note_on_c, 0, 64, 80
2, 80640, Note_on_c, 0, 61, 80
2, 80640, Note_on_c, 0, 55, 80
2, 81020, Note_off_c, 0, 64, 100
2, 81020, Note_off_c, 0, 61, 100
2, 81020, Note_off_c, 0, 55, 100
2, 81024, Note_on_c, 0, 62, 80
2, 81024, Note_on_c, 0, 57, 80
2, 81024, Note_on_c, 0, 53, 80
2, 81212, Note_off_c, 0, 62, 100
2, 81212, Note_off_c, 0, 57, 100
2, 81212, Note_off_c, 0, 53, 100
2, 81408, Note_on_c, 0, 76, 80
2, 81408, Note_on_c, 0, 73, 80
2, 81788, Note_off_c, 0, 76, 100
2, 81788, Note_off_c, 0, 73, 100
2, 81792, Note_on_c, 0, 79, 80
2, 81792, Note_on_c, 0, 76, 80
2, 82124, Note_off_c, 0, 79, 100
2, 82124, Note_off_c, 0, 76, 100
2, 82128, Note_on_c, 0, 77, 80
2, 82128, Note_on_c, 0, 74, 80
2, 82172, Note_off_c, 0, 77, 100
2, 82172, Note_off_c, 0, 74, 100
2, 82176, Note_on_c, 0, 77, 80
2, 82176, Note_on_c, 0, 74, 80
2, 82364, Note_off_c, 0, 77, 100
2, 82364, Note_off_c, 0, 74, 100
2, 82368, Note_on_c, 0, 76, 80
2, 82368, Note_on_c, 0, 73, 80
2, 82368, Note_on_c, 0, 70, 80
2, 82604, Note_off_c, 0, 76, 100
2, 82604, Note_off_c, 0, 73, 100
2, 82608, Note_on_c, 0, 76, 80
2, 82656, Note_on_c, 0, 77, 80
2, 82700, Note_off_c, 0, 76, 100
2, 82704, Note_on_c, 0, 76, 80
2, 82748, Note_off_c, 0, 70, 100
2, 82748, Note_off_c, 0, 77, 100
2, 82752, Note_on_c, 0, 71, 80
2, 82752, Note_on_c, 0, 79, 80
2, 82796, Note_off_c, 0, 76, 100
2, 82800, Note_on_c, 0, 77, 80
2, 82844, Note_off_c, 0, 79, 100
2, 82848, Note_on_c, 0, 76, 80
2, 82892, Note_off_c, 0, 77, 100
2, 82896, Note_on_c, 0, 74, 80
2, 82940, Note_off_c, 0, 71, 100
2, 82940, Note_off_c, 0, 76, 100
2, 82944, Note_on_c, 0, 69, 81
2, 82944, Note_on_c, 0, 73, 81
2, 82988, Note_off_c, 0, 74, 100
2, 82992, Note_on_c, 0, 75, 82
2, 83036, Note_off_c, 0, 73, 100
2, 83040, Note_on_c, 0, 76, 83
2, 83084, Note_off_c, 0, 75, 100
2, 83088, Note_on_c, 0, 75, 85
2, 83132, Note_off_c, 0, 69, 100
2, 83132, Note_off_c, 0, 76, 100
2, 83136, Note_on_c, 0, 76, 86
2, 83180, Note_off_c, 0, 75, 100
2, 83184, Note_on_c, 0, 78, 87
2, 83228, Note_off_c, 0, 76, 100
2, 83232, Note_on_c, 0, 79, 89
2, 83276, Note_off_c, 0, 78, 100
2, 83280, Note_on_c, 0, 78, 90
2, 83324, Note_off_c, 0, 79, 100
2, 83328, Note_on_c, 0, 79, 91
2, 83372, Note_off_c, 0, 78, 100
2, 83376, Note_on_c, 0, 81, 93
2, 83420, Note_off_c, 0, 79, 100
2, 83424, Note_on_c, 0, 82, 94
2, 83468, Note_off_c, 0, 81, 100
2, 83472, Note_on_c, 0, 81, 95
2, 83516, Note_off_c, 0, 82, 100
2, 83520, Note_on_c, 0, 82, 97
2, 83564, Note_off_c, 0, 81, 100
2, 83568, Note_on_c, 0, 81, 98
2, 83612, Note_off_c, 0, 82, 100
2, 83616, Note_on_c, 0, 79, 99
2, 83660, Note_off_c, 0, 81, 100
2, 83664, Note_on_c, 0, 77, 100
2, 83708, Note_off_c, 0, 79, 100
2, 83712, Note_on_c, 0, 70, 100
2, 83712, Note_on_c, 0, 77, 100
2, 83756, Note_off_c, 0, 77, 100
2, 83760, Note_on_c, 0, 76, 100
2, 83804, Note_off_c, 0, 77, 100
2, 83808, Note_on_c, 0, 75, 100
2, 83852, Note_off_c, 0, 76, 100
2, 83856, Note_on_c, 0, 76, 100
2, 83900, Note_off_c, 0, 70, 100
2, 83900, Note_off_c, 0, 75, 100
2, 83904, Note_on_c, 0, 75, 100
2, 83904, Note_on_c, 0, 70, 100
2, 83948, Note_off_c, 0, 76, 100
2, 83952, Note_on_c, 0, 76, 100
2, 83996, Note_off_c, 0, 75, 100
2, 84000, Note_on_c, 0, 75, 100
2, 84044, Note_off_c, 0, 76, 100
2, 84048, Note_on_c, 0, 76, 100
2, 84092, Note_off_c, 0, 75, 100
2, 84096, Note_on_c, 0, 75, 98
2, 84140, Note_off_c, 0, 76, 100
2, 84144, Note_on_c, 0, 76, 95
2, 84188, Note_off_c, 0, 75, 100
2, 84192, Note_on_c, 0, 77, 92
2, 84236, Note_off_c, 0, 76, 100
2, 84240, Note_on_c, 0, 76, 89
2, 84284, Note_off_c, 0, 70, 100
2, 84284, Note_off_c, 0, 77, 100
2, 84288, Note_on_c, 0, 79, 86
2, 84288, Note_on_c, 0, 71, 86
2, 84332, Note_off_c, 0, 76, 100
2, 84336, Note_on_c, 0, 77, 84
2, 84380, Note_off_c, 0, 79, 100
2, 84384, Note_on_c, 0, 76, 81
2, 84428, Note_off_c, 0, 77, 100
2, 84432, Note_on_c, 0, 74, 80
2, 84476, Note_off_c, 0, 71, 100
2, 84476, Note_off_c, 0, 76, 100
2, 84480, Note_on_c, 0, 69, 80
2, 84480, Note_on_c, 0, 73, 80
2, 84524, Note_off_c, 0, 74, 100
2, 84528, Note_on_c, 0, 76, 80
2, 84572, Note_off_c, 0, 73, 100
2, 84576, Note_on_c, 0, 75, 80
2, 84620, Note_off_c, 0, 76, 100
2, 84624, Note_on_c, 0, 76, 80
2, 84668, Note_off_c, 0, 69, 100
2, 84668, Note_off_c, 0, 75, 100
2, 84672, Note_on_c, 0, 75, 80
2, 84672, Note_on_c, 0, 70, 80
2, 84716, Note_off_c, 0, 76, 100
2, 84720, Note_on_c, 0, 76, 80
2, 84764, Note_off_c, 0, 75, 100
2, 84768, Note_on_c, 0, 75, 80
2, 84812, Note_off_c, 0, 76, 100
2, 84816, Note_on_c, 0, 76, 80
2, 84860, Note_off_c, 0, 75, 100
2, 84864, Note_on_c, 0, 75, 80
2, 84908, Note_off_c, 0, 76, 100
2, 84912, Note_on_c, 0, 76, 80
2, 84956, Note_off_c, 0, 75, 100
2, 84960, Note_on_c, 0, 77, 80
2, 85004, Note_off_c, 0, 76, 100
2, 85008, Note_on_c, 0, 76, 80
2, 85052, Note_off_c, 0, 70, 100
2, 85052, Note_off_c, 0, 77, 100
2, 85056, Note_on_c, 0, 79, 80
2, 85056, Note_on_c, 0, 71, 80
2, 85100, Note_off_c, 0, 76, 100
2, 85104, Note_on_c, 0, 77, 80
2, 85148, Note_off_c, 0, 79, 100
2, 85152, Note_on_c, 0, 76, 80
2, 85196, Note_off_c, 0, 77, 100
2, 85200, Note_on_c, 0, 74, 80
2, 85244, Note_off_c, 0, 71, 100
2, 85244, Note_off_c, 0, 76, 100
2, 85248, Note_on_c, 0, 69, 80
2, 85248, Note_on_c, 0, 73, 80
2, 85292, Note_off_c, 0, 74, 100
2, 85296, Note_on_c, 0, 76, 80
2, 85340, Note_off_c, 0, 73, 100
2, 85344, Note_on_c, 0, 77, 80
2, 85388, Note_off_c, 0, 76, 100
2, 85392, Note_on_c, 0, 76, 80
2, 85436, Note_off_c, 0, 69, 100
2, 85436, Note_off_c, 0, 77, 100
2, 85440, Note_on_c, 0, 71, 80
2, 85440, Note_on_c, 0, 79, 80
2, 85484, Note_off_c, 0, 76, 100
2, 85488, Note_on_c, 0, 77, 80
2, 85532, Note_off_c, 0, 79, 100
2, 85536, Note_on_c, 0, 76, 80
2, 85580, Note_off_c, 0, 77, 100
2, 85584, Note_on_c, 0, 74, 80
2, 85628, Note_off_c, 0, 71, 100
2, 85628, Note_off_c, 0, 76, 100
2, 85632, Note_on_c, 0, 69, 80
2, 85632, Note_on_c, 0, 73, 80
2, 85676, Note_off_c, 0, 74, 100
2, 85680, Note_on_c, 0, 76, 80
2, 85724, Note_off_c, 0, 73, 100
2, 85728, Note_on_c, 0, 77, 80
2, 85772, Note_off_c, 0, 76, 100
2, 85776, Note_on_c, 0, 76, 80
2, 85820, Note_off_c, 0, 69, 100
2, 85820, Note_off_c, 0, 77, 100
2, 85824, Note_on_c, 0, 71, 80
2, 85824, Note_on_c, 0, 79, 80
2, 85868, Note_off_c, 0, 76, 100
2, 85872, Note_on_c, 0, 77, 80
2, 85916, Note_off_c, 0, 79, 100
2, 85920, Note_on_c, 0, 76, 80
2, 85964, Note_off_c, 0, 77, 100
2, 85968, Note_on_c, 0, 74, 80
2, 86012, Note_off_c, 0, 71, 100
2, 86012, Note_off_c, 0, 76, 100
2, 86016, Note_on_c, 0, 69, 80
2, 86016, Note_on_c, 0, 73, 80
2, 86060, Note_off_c, 0, 74, 100
2, 86064, Note_on_c, 0, 75, 81
2, 86108, Note_off_c, 0, 73, 100
2, 86112, Note_on_c, 0, 76, 81
2, 86156, Note_off_c, 0, 75, 100
2, 86160, Note_on_c, 0, 75, 82
2, 86204, Note_off_c, 0, 69, 100
2, 86204, Note_off_c, 0, 76, 100
2, 86208, Note_on_c, 0, 76, 83
2, 86252, Note_off_c, 0, 75, 100
2, 86256, Note_on_c, 0, 78, 83
2, 86300, Note_off_c, 0, 76, 100
2, 86304, Note_on_c, 0, 79, 84
2, 86348, Note_off_c, 0, 78, 100
2, 86352, Note_on_c, 0, 78, 85
2, 86396, Note_off_c, 0, 79, 100
2, 86400, Note_on_c, 0, 79, 85
2, 86444, Note_off_c, 0, 78, 100
2, 86448, Note_on_c, 0, 81, 86
2, 86492, Note_off_c, 0, 79, 100
2, 86496, Note_on_c, 0, 82, 87
2, 86540, Note_off_c, 0, 81, 100
2, 86544, Note_on_c, 0, 81, 87
2, 86588, Note_off_c, 0, 82, 100
2, 86592, Note_on_c, 0, 84, 88
2, 86636, Note_off_c, 0, 81, 100
2, 86640, Note_on_c, 0, 82, 89
2, 86684, Note_off_c, 0, 84, 100
2, 86688, Note_on_c, 0, 81, 89
2, 86732, Note_off_c, 0, 82, 100
2, 86736, Note_on_c, 0, 79, 90
2, 86780, Note_off_c, 0, 81, 100
2, 86784, Note_on_c, 0, 77, 90
2, 86828, Note_off_c, 0, 79, 100
2, 86832, Note_on_c, 0, 76, 91
2, 86876, Note_off_c, 0, 77, 100
2, 86880, Note_on_c, 0, 74, 92
2, 86924, Note_off_c, 0, 76, 100
2, 86928, Note_on_c, 0, 73, 92
2, 86972, Note_off_c, 0, 74, 100
2, 86976, Note_on_c, 0, 70, 93
2, 87020, Note_off_c, 0, 73, 100
2, 87024, Note_on_c, 0, 69, 94
2, 87068, Note_off_c, 0, 70, 100
2, 87072, Note_on_c, 0, 67, 94
2, 87116, Note_off_c, 0, 69, 100
2, 87120, Note_on_c, 0, 65, 95
2, 87164, Note_off_c, 0, 67, 100
2, 87168, Note_on_c, 0, 64, 96
2, 87212, Note_off_c, 0, 65, 100
2, 87216, Note_on_c, 0, 62, 96
2, 87260, Note_off_c, 0, 64, 100
2, 87264, Note_on_c, 0, 61, 97
2, 87308, Note_off_c, 0, 62, 100
2, 87312, Note_on_c, 0, 58, 98
2, 87356, Note_off_c, 0, 61, 100
2, 87360, Note_on_c, 0, 57, 98
2, 87404, Note_off_c, 0, 58, 100
2, 87408, Note_on_c, 0, 55, 99
2, 87452, Note_off_c, 0, 57, 100
2, 87456, Note_on_c, 0, 53, 99
2, 87500, Note_off_c, 0, 55, 100
2, 87504, Note_on_c, 0, 52, 100
2, 87548, Note_off_c, 0, 53, 100
2, 87552, Note_on_c, 0, 50, 100
2, 87596, Note_off_c, 0, 52, 100
2, 87600, Note_on_c, 0, 62, 100
2, 87644, Note_off_c, 0, 50, 100
2, 87648, Note_on_c, 0, 65, 100
2, 87692, Note_off_c, 0, 62, 100
2, 87696, Note_on_c, 0, 69, 100
2, 87740, Note_off_c, 0, 65, 100
2, 87744, Note_on_c, 0, 74, 100
2, 87788, Note_off_c, 0, 69, 100
2, 87792, Note_on_c, 0, 76, 100
2, 87836, Note_off_c, 0, 74, 100
2, 87840, Note_on_c, 0, 77, 100
2, 87884, Note_off_c, 0, 76, 100
2, 87888, Note_on_c, 0, 79, 100
2, 87932, Note_off_c, 0, 77, 100
2, 87936, Note_on_c, 0, 80, 100
2, 87980, Note_off_c, 0, 79, 100
2, 87984, Note_on_c, 0, 81, 100
2, 88028, Note_off_c, 0, 80, 100
2, 88032, Note_on_c, 0, 80, 100
2, 88076, Note_off_c, 0, 81, 100
2, 88080, Note_on_c, 0, 81, 100
2, 88124, Note_off_c, 0, 80, 100
2, 88128, Note_on_c, 0, 80, 100
2, 88172, Note_off_c, 0, 81, 100
2, 88176, Note_on_c, 0, 81, 100
2, 88220, Note_off_c, 0, 80, 100
2, 88224, Note_on_c, 0, 82, 100
2, 88268, Note_off_c, 0, 81, 100
2, 88272, Note_on_c, 0, 81, 100
2, 88316, Note_off_c, 0, 82, 100
2, 88320, Note_on_c, 0, 79, 100
2, 88364, Note_off_c, 0, 81, 100
2, 88368, Note_on_c, 0, 77, 100
2, 88412, Note_off_c, 0, 79, 100
2, 88416, Note_on_c, 0, 81, 100
2, 88460, Note_off_c, 0, 77, 100
2, 88464, Note_on_c, 0, 79, 100
2, 88508, Note_off_c, 0, 81, 100
2, 88512, Note_on_c, 0, 77, 100
2, 88556, Note_off_c, 0, 79, 100
2, 88560, Note_on_c, 0, 79, 100
2, 88604, Note_off_c, 0, 77, 100
2, 88608, Note_on_c, 0, 76, 100
2, 88652, Note_off_c, 0, 79, 100
2, 88656, Note_on_c, 0, 77, 100
2, 88700, Note_off_c, 0, 76, 100
2, 88704, Note_on_c, 0, 74, 100
2, 88748, Note_off_c, 0, 77, 100
2, 88752, Note_on_c, 0, 76, 100
2, 88796, Note_off_c, 0, 74, 100
2, 88800, Note_on_c, 0, 77, 100
2, 88844, Note_off_c, 0, 76, 100
2, 88848, Note_on_c, 0, 78, 100
2, 88892, Note_off_c, 0, 77, 100
2, 88896, Note_on_c, 0, 79, 100
2, 88940, Note_off_c, 0, 78, 100
2, 88944, Note_on_c, 0, 78, 100
2, 88988, Note_off_c, 0, 79, 100
2, 88992, Note_on_c, 0, 81, 100
2, 89036, Note_off_c, 0, 78, 100
2, 89040, Note_on_c, 0, 79, 100
2, 89084, Note_off_c, 0, 81, 100
2, 89088, Note_on_c, 0, 77, 100
2, 89132, Note_off_c, 0, 79, 100
2, 89136, Note_on_c, 0, 76, 100
2, 89180, Note_off_c, 0, 77, 100
2, 89184, Note_on_c, 0, 79, 100
2, 89228, Note_off_c, 0, 76, 100
2, 89232, Note_on_c, 0, 77, 100
2, 89276, Note_off_c, 0, 79, 100
2, 89280, Note_on_c, 0, 76, 100
2, 89324, Note_off_c, 0, 77, 100
2, 89328, Note_on_c, 0, 77, 100
2, 89372, Note_off_c, 0, 76, 100
2, 89376, Note_on_c, 0, 74, 100
2, 89420, Note_off_c, 0, 77, 100
2, 89424, Note_on_c, 0, 76, 100
2, 89468, Note_off_c, 0, 74, 100
2, 89472, Note_on_c, 0, 72, 100
2, 89516, Note_off_c, 0, 76, 100
2, 89520, Note_on_c, 0, 76, 100
2, 89564, Note_off_c, 0, 72, 100
2, 89568, Note_on_c, 0, 77, 100
2, 89612, Note_off_c, 0, 76, 100
2, 89616, Note_on_c, 0, 79, 100
2, 89660, Note_off_c, 0, 77, 100
2, 89664, Note_on_c, 0, 81, 100
2, 89708, Note_off_c, 0, 79, 100
2, 89712, Note_on_c, 0, 80, 100
2, 89756, Note_off_c, 0, 81, 100
2, 89760, Note_on_c, 0, 82, 100
2, 89804, Note_off_c, 0, 80, 100
2, 89808, Note_on_c, 0, 81, 100
2, 89852, Note_off_c, 0, 82, 100
2, 89856, Note_on_c, 0, 79, 100
2, 89900, Note_off_c, 0, 81, 100
2, 89904, Note_on_c, 0, 77, 100
2, 89948, Note_off_c, 0, 79, 100
2, 89952, Note_on_c, 0, 81, 100
2, 89996, Note_off_c, 0, 77, 100
2, 90000, Note_on_c, 0, 79, 100
2, 90044, Note_off_c, 0, 81, 100
2, 90048, Note_on_c, 0, 77, 100
2, 90092, Note_off_c, 0, 79, 100
2, 90096, Note_on_c, 0, 79, 100
2, 90140, Note_off_c, 0, 77, 100
2, 90144, Note_on_c, 0, 76, 100
2, 90188, Note_off_c, 0, 79, 100
2, 90192, Note_on_c, 0, 77, 100
2, 90236, Note_off_c, 0, 76, 100
2, 90240, Note_on_c, 0, 74, 101
2, 90284, Note_off_c, 0, 77, 100
2, 90288, Note_on_c, 0, 86, 102
2, 90332, Note_off_c, 0, 74, 100
2, 90336, Note_on_c, 0, 85, 104
2, 90380, Note_off_c, 0, 86, 100
2, 90384, Note_on_c, 0, 86, 105
2, 90428, Note_off_c, 0, 85, 100
2, 90432, Note_on_c, 0, 85, 107
2, 90476, Note_off_c, 0, 86, 100
2, 90480, Note_on_c, 0, 86, 108
2, 90524, Note_off_c, 0, 85, 100
2, 90528, Note_on_c, 0, 88, 109
2, 90572, Note_off_c, 0, 86, 100
2, 90576, Note_on_c, 0, 86, 110
2, 90620, Note_off_c, 0, 88, 100
2, 90624, Note_on_c, 0, 84, 110
2, 90668, Note_off_c, 0, 86, 100
2, 90672, Note_on_c, 0, 82, 110
2, 90716, Note_off_c, 0, 84, 100
2, 90720, Note_on_c, 0, 81, 110
2, 90764, Note_off_c, 0, 82, 100
2, 90768, Note_on_c, 0, 79, 110
2, 90812, Note_off_c, 0, 81, 100
2, 90816, Note_on_c, 0, 77, 110
2, 90860, Note_off_c, 0, 79, 100
2, 90864, Note_on_c, 0, 76, 110
2, 90908, Note_off_c, 0, 77, 100
2, 90912, Note_on_c, 0, 77, 110
2, 90956, Note_off_c, 0, 76, 100
2, 90960, Note_on_c, 0, 79, 110
2, 91004, Note_off_c, 0, 77, 100
2, 91008, Note_on_c, 0, 80, 110
2, 91052, Note_off_c, 0, 79, 100
2, 91056, Note_on_c, 0, 81, 110
2, 91100, Note_off_c, 0, 80, 100
2, 91104, Note_on_c, 0, 74, 110
2, 91148, Note_off_c, 0, 81, 100
2, 91152, Note_on_c, 0, 74, 110
2, 91196, Note_off_c, 0, 74, 100
2, 91200, Note_on_c, 0, 80, 110
2, 91244, Note_off_c, 0, 74, 100
2, 91248, Note_on_c, 0, 81, 110
2, 91292, Note_off_c, 0, 80, 100
2, 91296, Note_on_c, 0, 73, 110
2, 91340, Note_off_c, 0, 81, 100
2, 91344, Note_on_c, 0, 73, 110
2, 91388, Note_off_c, 0, 73, 100
2, 91392, Note_on_c, 0, 80, 110
2, 91436, Note_off_c, 0, 73, 100
2, 91440, Note_on_c, 0, 81, 110
2, 91484, Note_off_c, 0, 80, 100
2, 91488, Note_on_c, 0, 73, 110
2, 91532, Note_off_c, 0, 81, 100
2, 91536, Note_on_c, 0, 81, 110
2, 91580, Note_off_c, 0, 73, 100
2, 91584, Note_on_c, 0, 80, 110
2, 91628, Note_off_c, 0, 81, 100
2, 91632, Note_on_c, 0, 81, 110
2, 91676, Note_off_c, 0, 80, 100
2, 91680, Note_on_c, 0, 73, 110
2, 91724, Note_off_c, 0, 81, 100
2, 91728, Note_on_c, 0, 81, 110
2, 91772, Note_off_c, 0, 73, 100
2, 91776, Note_on_c, 0, 74, 110
2, 91820, Note_off_c, 0, 81, 100
2, 91824, Note_on_c, 0, 70, 110
2, 91868, Note_off_c, 0, 74, 100
2, 91872, Note_on_c, 0, 69, 105
2, 91916, Note_off_c, 0, 70, 100
2, 91920, Note_on_c, 0, 68, 99
2, 91964, Note_off_c, 0, 69, 100
2, 91968, Note_on_c, 0, 69, 93
2, 92012, Note_off_c, 0, 68, 100
2, 92016, Note_on_c, 0, 67, 87
2, 92060, Note_off_c, 0, 69, 100
2, 92064, Note_on_c, 0, 65, 81
2, 92108, Note_off_c, 0, 67, 100
2, 92112, Note_on_c, 0, 64, 80
2, 92156, Note_off_c, 0, 65, 100
2, 92160, Note_on_c, 0, 62, 80
2, 92160, Note_on_c, 0, 57, 80
2, 92204, Note_off_c, 0, 64, 100
2, 92540, Note_off_c, 0, 62, 100
2, 92540, Note_off_c, 0, 57, 100
2, 92544, Note_on_c, 0, 69, 80
2, 92544, Note_on_c, 0, 57, 80
2, 92924, Note_off_c, 0, 69, 100
2, 92924, Note_off_c, 0, 57, 100
2, 92928, Note_on_c, 0, 67, 80
2, 92928, Note_on_c, 0, 57, 80
2, 93116, Note_off_c, 0, 67, 100
2, 93120, Note_on_c, 0, 65, 80
2, 93260, Note_off_c, 0, 65, 100
2, 93264, Note_on_c, 0, 64, 80
2, 93308, Note_off_c, 0, 64, 100
2, 93312, Note_on_c, 0, 62, 80
2, 93500, Note_off_c, 0, 57, 100
2, 93500, Note_off_c, 0, 62, 100
2, 93504, Note_on_c, 0, 62, 80
2, 93504, Note_on_c, 0, 57, 80
2, 93692, Note_off_c, 0, 62, 100
2, 93692, Note_off_c, 0, 57, 100
2, 93696, Note_on_c, 0, 64, 80
2, 93696, Note_on_c, 0, 62, 80
2, 93696, Note_on_c, 0, 58, 80
2, 93884, Note_off_c, 0, 64, 100
2, 93884, Note_off_c, 0, 62, 100
2, 93884, Note_off_c, 0, 58, 100
2, 93888, Note_on_c, 0, 64, 89
2, 93888, Note_on_c, 0, 62, 89
2, 93888, Note_on_c, 0, 57, 89
2, 94076, Note_off_c, 0, 64, 100
2, 94076, Note_off_c, 0, 62, 100
2, 94076, Note_off_c, 0, 57, 100
2, 94080, Note_on_c, 0, 64, 99
2, 94080, Note_on_c, 0, 62, 99
2, 94080, Note_on_c, 0, 55, 99
2, 94268, Note_off_c, 0, 64, 100
2, 94268, Note_off_c, 0, 62, 100
2, 94268, Note_off_c, 0, 55, 100
2, 94272, Note_on_c, 0, 64, 109
2, 94272, Note_on_c, 0, 62, 109
2, 94272, Note_on_c, 0, 57, 109
2, 94460, Note_off_c, 0, 64, 100
2, 94460, Note_off_c, 0, 62, 100
2, 94460, Note_off_c, 0, 57, 100
2, 94464, Note_on_c, 0, 64, 80
2, 94464, Note_on_c, 0, 62, 80
2, 94464, Note_on_c, 0, 58, 80
2, 95228, Note_off_c, 0, 64, 100
2, 95228, Note_off_c, 0, 62, 100
2, 95228, Note_off_c, 0, 58, 100
2, 95232, Note_on_c, 0, 64, 80
2, 95232, Note_on_c, 0, 62, 80
2, 95232, Note_on_c, 0, 59, 80
2, 95420, Note_off_c, 0, 64, 100
2, 95420, Note_off_c, 0, 62, 100
2, 95420, Note_off_c, 0, 59, 100
2, 95424, Note_on_c, 0, 64, 89
2, 95424, Note_on_c, 0, 62, 89
2, 95424, Note_on_c, 0, 57, 89
2, 95612, Note_off_c, 0, 64, 100
2, 95612, Note_off_c, 0, 62, 100
2, 95612, Note_off_c, 0, 57, 100
2, 95616, Note_on_c, 0, 64, 99
2, 95616, Note_on_c, 0, 62, 99
2, 95616, Note_on_c, 0, 56, 99
2, 95804, Note_off_c, 0, 64, 100
2, 95804, Note_off_c, 0, 62, 100
2, 95804, Note_off_c, 0, 56, 100
2, 95808, Note_on_c, 0, 64, 109
2, 95808, Note_on_c, 0, 62, 109
2, 95808, Note_on_c, 0, 57, 109
2, 95996, Note_off_c, 0, 64, 100
2, 95996, Note_off_c, 0, 62, 100
2, 95996, Note_off_c, 0, 57, 100
2, 96000, Note_on_c, 0, 64, 80
2, 96000, Note_on_c, 0, 62, 80
2, 96000, Note_on_c, 0, 59, 80
2, 96764, Note_off_c, 0, 64, 100
2, 96764, Note_off_c, 0, 62, 100
2, 96764, Note_off_c, 0, 59, 100
2, 96768, Note_on_c, 0, 64, 80
2, 96768, Note_on_c, 0, 61, 80
2, 96768, Note_on_c, 0, 57, 80
2, 96908, Note_off_c, 0, 64, 100
2, 96908, Note_off_c, 0, 61, 100
2, 96908, Note_off_c, 0, 57, 100
2, 96912, Note_on_c, 0, 64, 80
2, 96912, Note_on_c, 0, 61, 80
2, 96912, Note_on_c, 0, 57, 80
2, 96956, Note_off_c, 0, 64, 100
2, 96956, Note_off_c, 0, 61, 100
2, 96956, Note_off_c, 0, 57, 100
2, 96960, Note_on_c, 0, 64, 80
2, 96960, Note_on_c, 0, 61, 80
2, 96960, Note_on_c, 0, 57, 80
2, 97148, Note_off_c, 0, 64, 100
2, 97148, Note_off_c, 0, 61, 100
2, 97148, Note_off_c, 0, 57, 100
2, 97152, Note_on_c, 0, 73, 80
2, 97216, Note_on_c, 0, 82, 80
2, 97272, Note_off_c, 0, 73, 100
2, 97280, Note_on_c, 0, 81, 80
2, 97340, Note_off_c, 0, 82, 100
2, 97344, Note_on_c, 0, 82, 80
2, 97396, Note_off_c, 0, 81, 100
2, 97408, Note_on_c, 0, 79, 80
2, 97460, Note_off_c, 0, 82, 100
2, 97472, Note_on_c, 0, 76, 80
2, 97532, Note_off_c, 0, 79, 100
2, 97532, Note_off_c, 0, 76, 100
2, 97536, Note_on_c, 0, 65, 80
2, 97536, Note_on_c, 0, 62, 80
2, 97536, Note_on_c, 0, 57, 80
2, 97676, Note_off_c, 0, 65, 100
2, 97676, Note_off_c, 0, 62, 100
2, 97676, Note_off_c, 0, 57, 100
2, 97680, Note_on_c, 0, 65, 86
2, 97680, Note_on_c, 0, 62, 86
2, 97680, Note_on_c, 0, 57, 86
2, 97724, Note_off_c, 0, 65, 100
2, 97724, Note_off_c, 0, 62, 100
2, 97724, Note_off_c, 0, 57, 100
2, 97728, Note_on_c, 0, 65, 88
2, 97728, Note_on_c, 0, 62, 88
2, 97728, Note_on_c, 0, 57, 88
2, 97916, Note_off_c, 0, 65, 100
2, 97916, Note_off_c, 0, 62, 100
2, 97916, Note_off_c, 0, 57, 100
2, 97920, Note_on_c, 0, 77, 96
2, 97984, Note_on_c, 0, 86, 98
2, 98036, Note_off_c, 0, 77, 100
2, 98048, Note_on_c, 0, 85, 101
2, 98088, Note_off_c, 0, 86, 100
2, 98112, Note_on_c, 0, 86, 104
2, 98168, Note_off_c, 0, 85, 100
2, 98176, Note_on_c, 0, 81, 107
2, 98236, Note_off_c, 0, 86, 100
2, 98240, Note_on_c, 0, 77, 109
2, 98300, Note_off_c, 0, 81, 100
2, 98300, Note_off_c, 0, 77, 100
2, 98304, Note_on_c, 0, 67, 110
2, 98304, Note_on_c, 0, 64, 110
2, 98304, Note_on_c, 0, 61, 110
2, 98304, Note_on_c, 0, 58, 110
2, 98444, Note_off_c, 0, 67, 100
2, 98444, Note_off_c, 0, 64, 100
2, 98444, Note_off_c, 0, 61, 100
2, 98444, Note_off_c, 0, 58, 100
2, 98448, Note_on_c, 0, 67, 110
2, 98448, Note_on_c, 0, 64, 110
2, 98448, Note_on_c, 0, 61, 110
2, 98448, Note_on_c, 0, 58, 110
2, 98492, Note_off_c, 0, 67, 100
2, 98492, Note_off_c, 0, 64, 100
2, 98492, Note_off_c, 0, 61, 100
2, 98492, Note_off_c, 0, 58, 100
2, 98496, Note_on_c, 0, 67, 110
2, 98496, Note_on_c, 0, 64, 110
2, 98496, Note_on_c, 0, 61, 110
2, 98496, Note_on_c, 0, 58, 110
2, 98684, Note_off_c, 0, 67, 100
2, 98684, Note_off_c, 0, 64, 100
2, 98684, Note_off_c, 0, 61, 100
2, 98684, Note_off_c, 0, 58, 100
2, 98688, Note_on_c, 0, 79, 100
2, 98752, Note_on_c, 0, 88, 97
2, 98800, Note_off_c, 0, 79, 100
2, 98816, Note_on_c, 0, 87, 94
2, 98868, Note_off_c, 0, 88, 100
2, 98880, Note_on_c, 0, 88, 91
2, 98936, Note_off_c, 0, 87, 100
2, 98944, Note_on_c, 0, 85, 87
2, 98996, Note_off_c, 0, 88, 100
2, 99008, Note_on_c, 0, 82, 84
2, 99060, Note_off_c, 0, 85, 100
2, 99072, Note_on_c, 0, 79, 81
2, 99128, Note_off_c, 0, 82, 100
2, 99136, Note_on_c, 0, 88, 80
2, 99188, Note_off_c, 0, 79, 100
2, 99200, Note_on_c, 0, 87, 80
2, 99248, Note_off_c, 0, 88, 100
2, 99264, Note_on_c, 0, 88, 80
2, 99316, Note_off_c, 0, 87, 100
2, 99328, Note_on_c, 0, 85, 80
2, 99376, Note_off_c, 0, 88, 100
2, 99392, Note_on_c, 0, 82, 80
2, 99440, Note_off_c, 0, 85, 100
2, 99456, Note_on_c, 0, 79, 80
2, 99504, Note_off_c, 0, 82, 100
2, 99520, Note_on_c, 0, 85, 80
2, 99576, Note_off_c, 0, 79, 100
2, 99584, Note_on_c, 0, 84, 80
2, 99632, Note_off_c, 0, 85, 100
2, 99648, Note_on_c, 0, 85, 80
2, 99688, Note_off_c, 0, 84, 100
2, 99712, Note_on_c, 0, 82, 80
2, 99764, Note_off_c, 0, 85, 100
2, 99776, Note_on_c, 0, 79, 80
2, 99816, Note_off_c, 0, 82, 100
2, 99840, Note_on_c, 0, 76, 80
2, 99900, Note_off_c, 0, 79, 100
2, 99904, Note_on_c, 0, 73, 81
2, 99960, Note_off_c, 0, 76, 100
2, 99968, Note_on_c, 0, 70, 83
2, 100004, Note_off_c, 0, 73, 100
2, 100032, Note_on_c, 0, 67, 85
2, 100092, Note_off_c, 0, 70, 100
2, 100096, Note_on_c, 0, 64, 87
2, 100136, Note_off_c, 0, 67, 100
2, 100160, Note_on_c, 0, 61, 89
2, 100200, Note_off_c, 0, 64, 100
2, 100272, Note_off_c, 0, 61, 100
2, 102720, Note_on_c, 0, 62, 80
2, 102816, Note_on_c, 0, 70, 79
2, 102844, Note_off_c, 0, 62, 100
2, 102912, Note_off_c, 0, 70, 100
2, 103104, Note_on_c, 0, 65, 73
2, 103196, Note_off_c, 0, 65, 100
2, 103200, Note_on_c, 0, 69, 71
2, 103292, Note_off_c, 0, 69, 100
2, 103488, Note_on_c, 0, 79, 70
2, 103580, Note_off_c, 0, 79, 100
2, 103584, Note_on_c, 0, 85, 70
2, 103676, Note_off_c, 0, 85, 100
2, 103680, Note_on_c, 0, 79, 85
2, 103680, Note_on_c, 0, 85, 85
2, 104060, Note_off_c, 0, 85, 100
2, 104064, Note_on_c, 0, 86, 70
2, 104112, Note_on_c, 0, 85, 70
2, 104156, Note_off_c, 0, 86, 100
2, 104160, Note_on_c, 0, 83, 70
2, 104204, Note_off_c, 0, 85, 100
2, 104208, Note_on_c, 0, 85, 70
2, 104252, Note_off_c, 0, 83, 100
2, 104256, Note_on_c, 0, 88, 90
2, 104300, Note_off_c, 0, 85, 100
2, 104372, Note_off_c, 0, 88, 100
2, 104372, Note_on_c, 0, 86, 70
2, 104440, Note_off_c, 0, 86, 100
2, 104444, Note_off_c, 0, 79, 100
2, 104448, Note_on_c, 0, 86, 70
2, 104448, Note_on_c, 0, 77, 70
2, 105212, Note_off_c, 0, 86, 100
2, 105212, Note_off_c, 0, 77, 100
2, 105408, Control_c, 0, 7, 0
2, 105600, Note_on_c, 0, 74, 1
2, 105788, Note_off_c, 0, 74, 100
2, 105788, End_track
3, 0, Start_track
3, 0, Title_t, "Left"
3, 0, Control_c, 1, 0, 0
3, 0, Program_c, 1, 0
3, 0, Control_c, 1, 7, 100
3, 0, Control_c, 1, 10, 58
3, 0, Control_c, 1, 91, 127
3, 0, Key_signature, -1, "minor"
3, 0, Note_on_c, 1, 38, 80
3, 92, Note_off_c, 1, 38, 100
3, 96, Note_on_c, 1, 50, 80
3, 188, Note_off_c, 1, 50, 100
3, 192, Note_on_c, 1, 45, 80
3, 284, Note_off_c, 1, 45, 100
3, 288, Note_on_c, 1, 50, 80
3, 380, Note_off_c, 1, 50, 100
3, 384, Note_on_c, 1, 37, 80
3, 476, Note_off_c, 1, 37, 100
3, 480, Note_on_c, 1, 49, 80
3, 572, Note_off_c, 1, 49, 100
3, 576, Note_on_c, 1, 45, 80
3, 668, Note_off_c, 1, 45, 100
3, 672, Note_on_c, 1, 49, 80
3, 764, Note_off_c, 1, 49, 100
3, 768, Note_on_c, 1, 38, 80
3, 860, Note_off_c, 1, 38, 100
3, 864, Note_on_c, 1, 50, 80
3, 956, Note_off_c, 1, 50, 100
3, 960, Note_on_c, 1, 45, 80
3, 1052, Note_off_c, 1, 45, 100
3, 1056, Note_on_c, 1, 50, 80
3, 1148, Note_off_c, 1, 50, 100
3, 1152, Note_on_c, 1, 38, 80
3, 1244, Note_off_c, 1, 38, 100
3, 1248, Note_on_c, 1, 50, 80
3, 1340, Note_off_c, 1, 50, 100
3, 1344, Note_on_c, 1, 41, 80
3, 1436, Note_off_c, 1, 41, 100
3, 1440, Note_on_c, 1, 53, 80
3, 1532, Note_off_c, 1, 53, 100
3, 1536, Note_on_c, 1, 46, 80
3, 1628, Note_off_c, 1, 46, 100
3, 1632, Note_on_c, 1, 58, 80
3, 1724, Note_off_c, 1, 58, 100
3, 1728, Note_on_c, 1, 45, 80
3, 1820, Note_off_c, 1, 45, 100
3, 1824, Note_on_c, 1, 57, 80
3, 1916, Note_off_c, 1, 57, 100
3, 1920, Note_on_c, 1, 43, 80
3, 2012, Note_off_c, 1, 43, 100
3, 2016, Note_on_c, 1, 55, 80
3, 2108, Note_off_c, 1, 55, 100
3, 2112, Note_on_c, 1, 44, 80
3, 2204, Note_off_c, 1, 44, 100
3, 2208, Note_on_c, 1, 56, 80
3, 2300, Note_off_c, 1, 56, 100
3, 2304, Note_on_c, 1, 45, 80
3, 2396, Note_off_c, 1, 45, 100
3, 2400, Note_on_c, 1, 57, 80
3, 2492, Note_off_c, 1, 57, 100
3, 2496, Note_on_c, 1, 56, 80
3, 2588, Note_off_c, 1, 56, 100
3, 2592, Note_on_c, 1, 57, 80
3, 2684, Note_off_c, 1, 57, 100
3, 2688, Note_on_c, 1, 45, 80
3, 2780, Note_off_c, 1, 45, 100
3, 2784, Note_on_c, 1, 57, 80
3, 2876, Note_off_c, 1, 57, 100
3, 2880, Note_on_c, 1, 43, 80
3, 2972, Note_off_c, 1, 43, 100
3, 2976, Note_on_c, 1, 55, 80
3, 3068, Note_off_c, 1, 55, 100
3, 3072, Note_on_c, 1, 41, 80
3, 3164, Note_off_c, 1, 41, 100
3, 3168, Note_on_c, 1, 53, 80
3, 3260, Note_off_c, 1, 53, 100
3, 3264, Note_on_c, 1, 48, 80
3, 3356, Note_off_c, 1, 48, 100
3, 3360, Note_on_c, 1, 53, 80
3, 3452, Note_off_c, 1, 53, 100
3, 3456, Note_on_c, 1, 40, 80
3, 3548, Note_off_c, 1, 40, 100
3, 3552, Note_on_c, 1, 52, 80
3, 3644, Note_off_c, 1, 52, 100
3, 3648, Note_on_c, 1, 48, 80
3, 3740, Note_off_c, 1, 48, 100
3, 3744, Note_on_c, 1, 52, 80
3, 3836, Note_off_c, 1, 52, 100
3, 3840, Note_on_c, 1, 41, 80
3, 3932, Note_off_c, 1, 41, 100
3, 3936, Note_on_c, 1, 53, 80
3, 4028, Note_off_c, 1, 53, 100
3, 4032, Note_on_c, 1, 48, 80
3, 4124, Note_off_c, 1, 48, 100
3, 4128, Note_on_c, 1, 53, 80
3, 4220, Note_off_c, 1, 53, 100
3, 4224, Note_on_c, 1, 41, 80
3, 4316, Note_off_c, 1, 41, 100
3, 4320, Note_on_c, 1, 53, 80
3, 4412, Note_off_c, 1, 53, 100
3, 4416, Note_on_c, 1, 38, 80
3, 4508, Note_off_c, 1, 38, 100
3, 4512, Note_on_c, 1, 50, 80
3, 4604, Note_off_c, 1, 50, 100
3, 4608, Note_on_c, 1, 40, 80
3, 4700, Note_off_c, 1, 40, 100
3, 4704, Note_on_c, 1, 52, 80
3, 4796, Note_off_c, 1, 52, 100
3, 4800, Note_on_c, 1, 45, 80
3, 4892, Note_off_c, 1, 45, 100
3, 4896, Note_on_c, 1, 52, 80
3, 4988, Note_off_c, 1, 52, 100
3, 4992, Note_on_c, 1, 40, 80
3, 5084, Note_off_c, 1, 40, 100
3, 5088, Note_on_c, 1, 52, 80
3, 5180, Note_off_c, 1, 52, 100
3, 5184, Note_on_c, 1, 47, 80
3, 5276, Note_off_c, 1, 47, 100
3, 5280, Note_on_c, 1, 52, 80
3, 5372, Note_off_c, 1, 52, 100
3, 5376, Note_on_c, 1, 33, 80
3, 5468, Note_off_c, 1, 33, 100
3, 5472, Note_on_c, 1, 45, 80
3, 5564, Note_off_c, 1, 45, 100
3, 5568, Note_on_c, 1, 34, 80
3, 5660, Note_off_c, 1, 34, 100
3, 5664, Note_on_c, 1, 46, 80
3, 5756, Note_off_c, 1, 46, 100
3, 5760, Note_on_c, 1, 33, 80
3, 5852, Note_off_c, 1, 33, 100
3, 5856, Note_on_c, 1, 45, 80
3, 5948, Note_off_c, 1, 45, 100
3, 5952, Note_on_c, 1, 37, 80
3, 6044, Note_off_c, 1, 37, 100
3, 6048, Note_on_c, 1, 49, 80
3, 6140, Note_off_c, 1, 49, 100
3, 6144, Note_on_c, 1, 38, 80
3, 6236, Note_off_c, 1, 38, 100
3, 6240, Note_on_c, 1, 50, 80
3, 6332, Note_off_c, 1, 50, 100
3, 6336, Note_on_c, 1, 45, 80
3, 6428, Note_off_c, 1, 45, 100
3, 6432, Note_on_c, 1, 50, 80
3, 6524, Note_off_c, 1, 50, 100
3, 6528, Note_on_c, 1, 37, 80
3, 6620, Note_off_c, 1, 37, 100
3, 6624, Note_on_c, 1, 49, 80
3, 6716, Note_off_c, 1, 49, 100
3, 6720, Note_on_c, 1, 45, 80
3, 6812, Note_off_c, 1, 45, 100
3, 6816, Note_on_c, 1, 49, 80
3, 6908, Note_off_c, 1, 49, 100
3, 6912, Note_on_c, 1, 38, 80
3, 7004, Note_off_c, 1, 38, 100
3, 7008, Note_on_c, 1, 50, 80
3, 7100, Note_off_c, 1, 50, 100
3, 7104, Note_on_c, 1, 45, 80
3, 7196, Note_off_c, 1, 45, 100
3, 7200, Note_on_c, 1, 50, 80
3, 7292, Note_off_c, 1, 50, 100
3, 7296, Note_on_c, 1, 38, 80
3, 7388, Note_off_c, 1, 38, 100
3, 7392, Note_on_c, 1, 50, 80
3, 7484, Note_off_c, 1, 50, 100
3, 7488, Note_on_c, 1, 41, 80
3, 7580, Note_off_c, 1, 41, 100
3, 7584, Note_on_c, 1, 53, 80
3, 7676, Note_off_c, 1, 53, 100
3, 7680, Note_on_c, 1, 46, 80
3, 7772, Note_off_c, 1, 46, 100
3, 7776, Note_on_c, 1, 58, 82
3, 7868, Note_off_c, 1, 58, 100
3, 7872, Note_on_c, 1, 45, 85
3, 7964, Note_off_c, 1, 45, 100
3, 7968, Note_on_c, 1, 57, 88
3, 8060, Note_off_c, 1, 57, 100
3, 8064, Note_on_c, 1, 43, 91
3, 8156, Note_off_c, 1, 43, 100
3, 8160, Note_on_c, 1, 55, 94
3, 8252, Note_off_c, 1, 55, 100
3, 8256, Note_on_c, 1, 44, 97
3, 8348, Note_off_c, 1, 44, 100
3, 8352, Note_on_c, 1, 56, 99
3, 8444, Note_off_c, 1, 56, 100
3, 8448, Note_on_c, 1, 45, 80
3, 8540, Note_off_c, 1, 45, 100
3, 8544, Note_on_c, 1, 57, 80
3, 8636, Note_off_c, 1, 57, 100
3, 8640, Note_on_c, 1, 56, 80
3, 8732, Note_off_c, 1, 56, 100
3, 8736, Note_on_c, 1, 57, 80
3, 8828, Note_off_c, 1, 57, 100
3, 8832, Note_on_c, 1, 45, 80
3, 8924, Note_off_c, 1, 45, 100
3, 8928, Note_on_c, 1, 57, 80
3, 9020, Note_off_c, 1, 57, 100
3, 9024, Note_on_c, 1, 43, 80
3, 9116, Note_off_c, 1, 43, 100
3, 9120, Note_on_c, 1, 55, 80
3, 9212, Note_off_c, 1, 55, 100
3, 9216, Note_on_c, 1, 41, 80
3, 9308, Note_off_c, 1, 41, 100
3, 9312, Note_on_c, 1, 53, 80
3, 9404, Note_off_c, 1, 53, 100
3, 9408, Note_on_c, 1, 48, 80
3, 9500, Note_off_c, 1, 48, 100
3, 9504, Note_on_c, 1, 53, 80
3, 9596, Note_off_c, 1, 53, 100
3, 9600, Note_on_c, 1, 40, 80
3, 9692, Note_off_c, 1, 40, 100
3, 9696, Note_on_c, 1, 52, 80
3, 9788, Note_off_c, 1, 52, 100
3, 9792, Note_on_c, 1, 48, 80
3, 9884, Note_off_c, 1, 48, 100
3, 9888, Note_on_c, 1, 52, 80
3, 9980, Note_off_c, 1, 52, 100
3, 9984, Note_on_c, 1, 41, 80
3, 10076, Note_off_c, 1, 41, 100
3, 10080, Note_on_c, 1, 53, 80
3, 10172, Note_off_c, 1, 53, 100
3, 10176, Note_on_c, 1, 48, 80
3, 10268, Note_off_c, 1, 48, 100
3, 10272, Note_on_c, 1, 53, 80
3, 10364, Note_off_c, 1, 53, 100
3, 10368, Note_on_c, 1, 41, 80
3, 10460, Note_off_c, 1, 41, 100
3, 10464, Note_on_c, 1, 53, 80
3, 10556, Note_off_c, 1, 53, 100
3, 10560, Note_on_c, 1, 38, 80
3, 10652, Note_off_c, 1, 38, 100
3, 10656, Note_on_c, 1, 50, 80
3, 10748, Note_off_c, 1, 50, 100
3, 10752, Note_on_c, 1, 40, 80
3, 10844, Note_off_c, 1, 40, 100
3, 10848, Note_on_c, 1, 52, 80
3, 10940, Note_off_c, 1, 52, 100
3, 10944, Note_on_c, 1, 45, 80
3, 11036, Note_off_c, 1, 45, 100
3, 11040, Note_on_c, 1, 52, 80
3, 11132, Note_off_c, 1, 52, 100
3, 11136, Note_on_c, 1, 40, 80
3, 11228, Note_off_c, 1, 40, 100
3, 11232, Note_on_c, 1, 52, 80
3, 11324, Note_off_c, 1, 52, 100
3, 11328, Note_on_c, 1, 47, 80
3, 11420, Note_off_c, 1, 47, 100
3, 11424, Note_on_c, 1, 52, 80
3, 11516, Note_off_c, 1, 52, 100
3, 11520, Note_on_c, 1, 33, 80
3, 11612, Note_off_c, 1, 33, 100
3, 11616, Note_on_c, 1, 45, 80
3, 11708, Note_off_c, 1, 45, 100
3, 11712, Note_on_c, 1, 34, 80
3, 11804, Note_off_c, 1, 34, 100
3, 11808, Note_on_c, 1, 46, 80
3, 11900, Note_off_c, 1, 46, 100
3, 11904, Note_on_c, 1, 33, 80
3, 11996, Note_off_c, 1, 33, 100
3, 12000, Note_on_c, 1, 45, 80
3, 12092, Note_off_c, 1, 45, 100
3, 12096, Note_on_c, 1, 32, 80
3, 12188, Note_off_c, 1, 32, 100
3, 12192, Note_on_c, 1, 44, 80
3, 12284, Note_off_c, 1, 44, 100
3, 12288, Note_on_c, 1, 45, 80
3, 12288, Note_on_c, 1, 33, 80
3, 12380, Note_off_c, 1, 45, 100
3, 12380, Note_off_c, 1, 33, 100
3, 12384, Note_on_c, 1, 57, 80
3, 12476, Note_off_c, 1, 57, 100
3, 12480, Note_on_c, 1, 57, 80
3, 12572, Note_off_c, 1, 57, 100
3, 12576, Note_on_c, 1, 57, 80
3, 12668, Note_off_c, 1, 57, 100
3, 12672, Note_on_c, 1, 57, 80
3, 12764, Note_off_c, 1, 57, 100
3, 12768, Note_on_c, 1, 57, 80
3, 12860, Note_off_c, 1, 57, 100
3, 12864, Note_on_c, 1, 57, 80
3, 12956, Note_off_c, 1, 57, 100
3, 12960, Note_on_c, 1, 57, 80
3, 13052, Note_off_c, 1, 57, 100
3, 13056, Note_on_c, 1, 57, 80
3, 13148, Note_off_c, 1, 57, 100
3, 13152, Note_on_c, 1, 57, 80
3, 13244, Note_off_c, 1, 57, 100
3, 13248, Note_on_c, 1, 57, 80
3, 13248, Note_on_c, 1, 67, 80
3, 13340, Note_off_c, 1, 57, 100
3, 13344, Note_on_c, 1, 57, 80
3, 13436, Note_off_c, 1, 57, 100
3, 13440, Note_on_c, 1, 57, 80
3, 13532, Note_off_c, 1, 57, 100
3, 13536, Note_on_c, 1, 57, 80
3, 13628, Note_off_c, 1, 67, 100
3, 13628, Note_off_c, 1, 57, 100
3, 13632, Note_on_c, 1, 57, 80
3, 13632, Note_on_c, 1, 68, 80
3, 13724, Note_off_c, 1, 57, 100
3, 13728, Note_on_c, 1, 57, 80
3, 13820, Note_off_c, 1, 68, 100
3, 13820, Note_off_c, 1, 57, 100
3, 13824, Note_on_c, 1, 57, 80
3, 13916, Note_off_c, 1, 57, 100
3, 13920, Note_on_c, 1, 57, 80
3, 14012, Note_off_c, 1, 57, 100
3, 14016, Note_on_c, 1, 57, 80
3, 14108, Note_off_c, 1, 57, 100
3, 14112, Note_on_c, 1, 57, 80
3, 14204, Note_off_c, 1, 57, 100
3, 14208, Note_on_c, 1, 57, 80
3, 14300, Note_off_c, 1, 57, 100
3, 14304, Note_on_c, 1, 57, 80
3, 14396, Note_off_c, 1, 57, 100
3, 14400, Note_on_c, 1, 57, 80
3, 14492, Note_off_c, 1, 57, 100
3, 14496, Note_on_c, 1, 57, 80
3, 14588, Note_off_c, 1, 57, 100
3, 14592, Note_on_c, 1, 57, 80
3, 14684, Note_off_c, 1, 57, 100
3, 14688, Note_on_c, 1, 57, 80
3, 14780, Note_off_c, 1, 57, 100
3, 14784, Note_on_c, 1, 57, 80
3, 14784, Note_on_c, 1, 67, 80
3, 14876, Note_off_c, 1, 57, 100
3, 14880, Note_on_c, 1, 57, 80
3, 14972, Note_off_c, 1, 57, 100
3, 14976, Note_on_c, 1, 57, 80
3, 15068, Note_off_c, 1, 57, 100
3, 15072, Note_on_c, 1, 57, 80
3, 15164, Note_off_c, 1, 67, 100
3, 15164, Note_off_c, 1, 57, 100
3, 15168, Note_on_c, 1, 57, 80
3, 15168, Note_on_c, 1, 68, 80
3, 15260, Note_off_c, 1, 57, 100
3, 15264, Note_on_c, 1, 57, 80
3, 15356, Note_off_c, 1, 68, 100
3, 15356, Note_off_c, 1, 57, 100
3, 15360, Note_on_c, 1, 57, 80
3, 15360, Note_on_c, 1, 64, 80
3, 15452, Note_off_c, 1, 57, 100
3, 15456, Note_on_c, 1, 57, 80
3, 15548, Note_off_c, 1, 64, 100
3, 15548, Note_off_c, 1, 57, 100
3, 15552, Note_on_c, 1, 57, 80
3, 15552, Note_on_c, 1, 67, 80
3, 15644, Note_off_c, 1, 57, 100
3, 15648, Note_on_c, 1, 57, 80
3, 15740, Note_off_c, 1, 57, 100
3, 15744, Note_on_c, 1, 57, 80
3, 15836, Note_off_c, 1, 57, 100
3, 15840, Note_on_c, 1, 57, 80
3, 15932, Note_off_c, 1, 67, 100
3, 15932, Note_off_c, 1, 57, 100
3, 15936, Note_on_c, 1, 57, 80
3, 15936, Note_on_c, 1, 68, 80
3, 16028, Note_off_c, 1, 57, 100
3, 16032, Note_on_c, 1, 57, 80
3, 16124, Note_off_c, 1, 68, 100
3, 16124, Note_off_c, 1, 57, 100
3, 16128, Note_on_c, 1, 64, 80
3, 16128, Note_on_c, 1, 57, 80
3, 16220, Note_off_c, 1, 64, 100
3, 16220, Note_off_c, 1, 57, 100
3, 16224, Note_on_c, 1, 57, 80
3, 16316, Note_off_c, 1, 57, 100
3, 16320, Note_on_c, 1, 68, 80
3, 16320, Note_on_c, 1, 57, 80
3, 16412, Note_off_c, 1, 57, 100
3, 16416, Note_on_c, 1, 57, 80
3, 16508, Note_off_c, 1, 68, 100
3, 16508, Note_off_c, 1, 57, 100
3, 16512, Note_on_c, 1, 64, 80
3, 16512, Note_on_c, 1, 57, 80
3, 16604, Note_off_c, 1, 64, 100
3, 16604, Note_off_c, 1, 57, 100
3, 16608, Note_on_c, 1, 57, 80
3, 16700, Note_off_c, 1, 57, 100
3, 16704, Note_on_c, 1, 68, 80
3, 16704, Note_on_c, 1, 57, 80
3, 16796, Note_off_c, 1, 57, 100
3, 16800, Note_on_c, 1, 57, 80
3, 16892, Note_off_c, 1, 68, 100
3, 16892, Note_off_c, 1, 57, 100
3, 16896, Note_on_c, 1, 64, 80
3, 16896, Note_on_c, 1, 57, 80
3, 17084, Note_off_c, 1, 64, 100
3, 17084, Note_off_c, 1, 57, 100
3, 18432, Note_on_c, 1, 38, 80
3, 18524, Note_off_c, 1, 38, 100
3, 18528, Note_on_c, 1, 50, 80
3, 18620, Note_off_c, 1, 50, 100
3, 18624, Note_on_c, 1, 45, 80
3, 18716, Note_off_c, 1, 45, 100
3, 18720, Note_on_c, 1, 50, 80
3, 18812, Note_off_c, 1, 50, 100
3, 18816, Note_on_c, 1, 37, 80
3, 18908, Note_off_c, 1, 37, 100
3, 18912, Note_on_c, 1, 49, 80
3, 19004, Note_off_c, 1, 49, 100
3, 19008, Note_on_c, 1, 45, 80
3, 19100, Note_off_c, 1, 45, 100
3, 19104, Note_on_c, 1, 49, 80
3, 19196, Note_off_c, 1, 49, 100
3, 19200, Note_on_c, 1, 38, 80
3, 19292, Note_off_c, 1, 38, 100
3, 19296, Note_on_c, 1, 50, 80
3, 19388, Note_off_c, 1, 50, 100
3, 19392, Note_on_c, 1, 45, 80
3, 19484, Note_off_c, 1, 45, 100
3, 19488, Note_on_c, 1, 50, 80
3, 19580, Note_off_c, 1, 50, 100
3, 19584, Note_on_c, 1, 38, 80
3, 19676, Note_off_c, 1, 38, 100
3, 19680, Note_on_c, 1, 50, 80
3, 19772, Note_off_c, 1, 50, 100
3, 19776, Note_on_c, 1, 35, 80
3, 19868, Note_off_c, 1, 35, 100
3, 19872, Note_on_c, 1, 47, 80
3, 19964, Note_off_c, 1, 47, 100
3, 19968, Note_on_c, 1, 36, 80
3, 20060, Note_off_c, 1, 36, 100
3, 20064, Note_on_c, 1, 48, 80
3, 20156, Note_off_c, 1, 48, 100
3, 20160, Note_on_c, 1, 43, 80
3, 20252, Note_off_c, 1, 43, 100
3, 20256, Note_on_c, 1, 48, 80
3, 20348, Note_off_c, 1, 48, 100
3, 20352, Note_on_c, 1, 36, 80
3, 20444, Note_off_c, 1, 36, 100
3, 20448, Note_on_c, 1, 48, 80
3, 20540, Note_off_c, 1, 48, 100
3, 20544, Note_on_c, 1, 37, 80
3, 20636, Note_off_c, 1, 37, 100
3, 20640, Note_on_c, 1, 49, 80
3, 20732, Note_off_c, 1, 49, 100
3, 20736, Note_on_c, 1, 38, 80
3, 20828, Note_off_c, 1, 38, 100
3, 20832, Note_on_c, 1, 50, 80
3, 20924, Note_off_c, 1, 50, 100
3, 20928, Note_on_c, 1, 45, 80
3, 21020, Note_off_c, 1, 45, 100
3, 21024, Note_on_c, 1, 50, 80
3, 21116, Note_off_c, 1, 50, 100
3, 21120, Note_on_c, 1, 38, 83
3, 21212, Note_off_c, 1, 38, 100
3, 21216, Note_on_c, 1, 50, 91
3, 21308, Note_off_c, 1, 50, 100
3, 21312, Note_on_c, 1, 42, 98
3, 21404, Note_off_c, 1, 42, 100
3, 21408, Note_on_c, 1, 54, 105
3, 21500, Note_off_c, 1, 54, 100
3, 21504, Note_on_c, 1, 43, 110
3, 21596, Note_off_c, 1, 43, 100
3, 21600, Note_on_c, 1, 55, 110
3, 21692, Note_off_c, 1, 55, 100
3, 21696, Note_on_c, 1, 46, 110
3, 21788, Note_off_c, 1, 46, 100
3, 21792, Note_on_c, 1, 58, 110
3, 21884, Note_off_c, 1, 58, 100
3, 21888, Note_on_c, 1, 45, 110
3, 21980, Note_off_c, 1, 45, 100
3, 21984, Note_on_c, 1, 57, 110
3, 22076, Note_off_c, 1, 57, 100
3, 22080, Note_on_c, 1, 33, 110
3, 22172, Note_off_c, 1, 33, 100
3, 22176, Note_on_c, 1, 45, 95
3, 22268, Note_off_c, 1, 45, 100
3, 22272, Note_on_c, 1, 38, 80
3, 22364, Note_off_c, 1, 38, 100
3, 22368, Note_on_c, 1, 50, 80
3, 22460, Note_off_c, 1, 50, 100
3, 22464, Note_on_c, 1, 45, 80
3, 22556, Note_off_c, 1, 45, 100
3, 22560, Note_on_c, 1, 50, 80
3, 22652, Note_off_c, 1, 50, 100
3, 22656, Note_on_c, 1, 38, 80
3, 22748, Note_off_c, 1, 38, 100
3, 22752, Note_on_c, 1, 57, 80
3, 22844, Note_off_c, 1, 57, 100
3, 22848, Note_on_c, 1, 53, 80
3, 22940, Note_off_c, 1, 53, 100
3, 22944, Note_on_c, 1, 50, 80
3, 23036, Note_off_c, 1, 50, 100
3, 23040, Note_on_c, 1, 45, 80
3, 23040, Note_on_c, 1, 33, 80
3, 23132, Note_off_c, 1, 45, 100
3, 23132, Note_off_c, 1, 33, 100
3, 23136, Note_on_c, 1, 57, 80
3, 23228, Note_off_c, 1, 57, 100
3, 23232, Note_on_c, 1, 57, 80
3, 23324, Note_off_c, 1, 57, 100
3, 23328, Note_on_c, 1, 57, 80
3, 23420, Note_off_c, 1, 57, 100
3, 23424, Note_on_c, 1, 57, 80
3, 23516, Note_off_c, 1, 57, 100
3, 23520, Note_on_c, 1, 57, 80
3, 23612, Note_off_c, 1, 57, 100
3, 23616, Note_on_c, 1, 57, 80
3, 23708, Note_off_c, 1, 57, 100
3, 23712, Note_on_c, 1, 57, 80
3, 23804, Note_off_c, 1, 57, 100
3, 23808, Note_on_c, 1, 57, 80
3, 23900, Note_off_c, 1, 57, 100
3, 23904, Note_on_c, 1, 57, 80
3, 23996, Note_off_c, 1, 57, 100
3, 24000, Note_on_c, 1, 57, 80
3, 24000, Note_on_c, 1, 67, 80
3, 24092, Note_off_c, 1, 57, 100
3, 24096, Note_on_c, 1, 57, 80
3, 24188, Note_off_c, 1, 57, 100
3, 24192, Note_on_c, 1, 57, 80
3, 24284, Note_off_c, 1, 57, 100
3, 24288, Note_on_c, 1, 57, 80
3, 24380, Note_off_c, 1, 67, 100
3, 24380, Note_off_c, 1, 57, 100
3, 24384, Note_on_c, 1, 57, 80
3, 24384, Note_on_c, 1, 68, 80
3, 24476, Note_off_c, 1, 57, 100
3, 24480, Note_on_c, 1, 57, 80
3, 24572, Note_off_c, 1, 68, 100
3, 24572, Note_off_c, 1, 57, 100
3, 24576, Note_on_c, 1, 57, 80
3, 24668, Note_off_c, 1, 57, 100
3, 24672, Note_on_c, 1, 57, 80
3, 24764, Note_off_c, 1, 57, 100
3, 24768, Note_on_c, 1, 57, 80
3, 24860, Note_off_c, 1, 57, 100
3, 24864, Note_on_c, 1, 57, 80
3, 24956, Note_off_c, 1, 57, 100
3, 24960, Note_on_c, 1, 57, 80
3, 25052, Note_off_c, 1, 57, 100
3, 25056, Note_on_c, 1, 57, 80
3, 25148, Note_off_c, 1, 57, 100
3, 25152, Note_on_c, 1, 57, 80
3, 25244, Note_off_c, 1, 57, 100
3, 25248, Note_on_c, 1, 57, 80
3, 25340, Note_off_c, 1, 57, 100
3, 25344, Note_on_c, 1, 57, 80
3, 25436, Note_off_c, 1, 57, 100
3, 25440, Note_on_c, 1, 57, 80
3, 25532, Note_off_c, 1, 57, 100
3, 25536, Note_on_c, 1, 57, 80
3, 25536, Note_on_c, 1, 67, 80
3, 25628, Note_off_c, 1, 57, 100
3, 25632, Note_on_c, 1, 57, 80
3, 25724, Note_off_c, 1, 57, 100
3, 25728, Note_on_c, 1, 57, 80
3, 25820, Note_off_c, 1, 57, 100
3, 25824, Note_on_c, 1, 57, 80
3, 25916, Note_off_c, 1, 67, 100
3, 25916, Note_off_c, 1, 57, 100
3, 25920, Note_on_c, 1, 57, 80
3, 25920, Note_on_c, 1, 68, 80
3, 26012, Note_off_c, 1, 57, 100
3, 26016, Note_on_c, 1, 57, 80
3, 26108, Note_off_c, 1, 68, 100
3, 26108, Note_off_c, 1, 57, 100
3, 26112, Note_on_c, 1, 57, 80
3, 26112, Note_on_c, 1, 64, 80
3, 26204, Note_off_c, 1, 57, 100
3, 26208, Note_on_c, 1, 57, 80
3, 26300, Note_off_c, 1, 64, 100
3, 26300, Note_off_c, 1, 57, 100
3, 26304, Note_on_c, 1, 57, 80
3, 26304, Note_on_c, 1, 67, 80
3, 26396, Note_off_c, 1, 57, 100
3, 26400, Note_on_c, 1, 57, 80
3, 26492, Note_off_c, 1, 57, 100
3, 26496, Note_on_c, 1, 57, 80
3, 26588, Note_off_c, 1, 57, 100
3, 26592, Note_on_c, 1, 57, 80
3, 26684, Note_off_c, 1, 67, 100
3, 26684, Note_off_c, 1, 57, 100
3, 26688, Note_on_c, 1, 57, 80
3, 26688, Note_on_c, 1, 68, 80
3, 26780, Note_off_c, 1, 57, 100
3, 26784, Note_on_c, 1, 57, 80
3, 26876, Note_off_c, 1, 68, 100
3, 26876, Note_off_c, 1, 57, 100
3, 26880, Note_on_c, 1, 64, 80
3, 26880, Note_on_c, 1, 57, 80
3, 26972, Note_off_c, 1, 64, 100
3, 26972, Note_off_c, 1, 57, 100
3, 26976, Note_on_c, 1, 57, 80
3, 27068, Note_off_c, 1, 57, 100
3, 27072, Note_on_c, 1, 68, 80
3, 27072, Note_on_c, 1, 57, 80
3, 27164, Note_off_c, 1, 57, 100
3, 27168, Note_on_c, 1, 57, 80
3, 27260, Note_off_c, 1, 68, 100
3, 27260, Note_off_c, 1, 57, 100
3, 27264, Note_on_c, 1, 64, 80
3, 27264, Note_on_c, 1, 57, 80
3, 27356, Note_off_c, 1, 64, 100
3, 27356, Note_off_c, 1, 57, 100
3, 27360, Note_on_c, 1, 57, 80
3, 27452, Note_off_c, 1, 57, 100
3, 27456, Note_on_c, 1, 68, 80
3, 27456, Note_on_c, 1, 57, 80
3, 27548, Note_off_c, 1, 57, 100
3, 27552, Note_on_c, 1, 57, 80
3, 27644, Note_off_c, 1, 68, 100
3, 27644, Note_off_c, 1, 57, 100
3, 27648, Note_on_c, 1, 64, 80
3, 27648, Note_on_c, 1, 57, 80
3, 27836, Note_off_c, 1, 64, 100
3, 27836, Note_off_c, 1, 57, 100
3, 29184, Note_on_c, 1, 38, 80
3, 29276, Note_off_c, 1, 38, 100
3, 29280, Note_on_c, 1, 50, 80
3, 29372, Note_off_c, 1, 50, 100
3, 29376, Note_on_c, 1, 45, 80
3, 29468, Note_off_c, 1, 45, 100
3, 29472, Note_on_c, 1, 50, 80
3, 29564, Note_off_c, 1, 50, 100
3, 29568, Note_on_c, 1, 37, 80
3, 29660, Note_off_c, 1, 37, 100
3, 29664, Note_on_c, 1, 49, 80
3, 29756, Note_off_c, 1, 49, 100
3, 29760, Note_on_c, 1, 45, 80
3, 29852, Note_off_c, 1, 45, 100
3, 29856, Note_on_c, 1, 49, 80
3, 29948, Note_off_c, 1, 49, 100
3, 29952, Note_on_c, 1, 38, 80
3, 30044, Note_off_c, 1, 38, 100
3, 30048, Note_on_c, 1, 50, 80
3, 30140, Note_off_c, 1, 50, 100
3, 30144, Note_on_c, 1, 45, 80
3, 30236, Note_off_c, 1, 45, 100
3, 30240, Note_on_c, 1, 50, 80
3, 30332, Note_off_c, 1, 50, 100
3, 30336, Note_on_c, 1, 38, 80
3, 30428, Note_off_c, 1, 38, 100
3, 30432, Note_on_c, 1, 50, 80
3, 30524, Note_off_c, 1, 50, 100
3, 30528, Note_on_c, 1, 35, 80
3, 30620, Note_off_c, 1, 35, 100
3, 30624, Note_on_c, 1, 47, 80
3, 30716, Note_off_c, 1, 47, 100
3, 30720, Note_on_c, 1, 36, 80
3, 30812, Note_off_c, 1, 36, 100
3, 30816, Note_on_c, 1, 48, 80
3, 30908, Note_off_c, 1, 48, 100
3, 30912, Note_on_c, 1, 43, 80
3, 31004, Note_off_c, 1, 43, 100
3, 31008, Note_on_c, 1, 48, 80
3, 31100, Note_off_c, 1, 48, 100
3, 31104, Note_on_c, 1, 36, 80
3, 31196, Note_off_c, 1, 36, 100
3, 31200, Note_on_c, 1, 48, 80
3, 31292, Note_off_c, 1, 48, 100
3, 31296, Note_on_c, 1, 37, 80
3, 31388, Note_off_c, 1, 37, 100
3, 31392, Note_on_c, 1, 49, 80
3, 31484, Note_off_c, 1, 49, 100
3, 31488, Note_on_c, 1, 38, 80
3, 31580, Note_off_c, 1, 38, 100
3, 31584, Note_on_c, 1, 50, 80
3, 31676, Note_off_c, 1, 50, 100
3, 31680, Note_on_c, 1, 45, 80
3, 31772, Note_off_c, 1, 45, 100
3, 31776, Note_on_c, 1, 50, 80
3, 31868, Note_off_c, 1, 50, 100
3, 31872, Note_on_c, 1, 38, 83
3, 31964, Note_off_c, 1, 38, 100
3, 31968, Note_on_c, 1, 50, 91
3, 32060, Note_off_c, 1, 50, 100
3, 32064, Note_on_c, 1, 42, 98
3, 32156, Note_off_c, 1, 42, 100
3, 32160, Note_on_c, 1, 54, 105
3, 32252, Note_off_c, 1, 54, 100
3, 32256, Note_on_c, 1, 43, 110
3, 32348, Note_off_c, 1, 43, 100
3, 32352, Note_on_c, 1, 55, 110
3, 32444, Note_off_c, 1, 55, 100
3, 32448, Note_on_c, 1, 46, 110
3, 32540, Note_off_c, 1, 46, 100
3, 32544, Note_on_c, 1, 58, 110
3, 32636, Note_off_c, 1, 58, 100
3, 32640, Note_on_c, 1, 45, 110
3, 32732, Note_off_c, 1, 45, 100
3, 32736, Note_on_c, 1, 57, 110
3, 32828, Note_off_c, 1, 57, 100
3, 32832, Note_on_c, 1, 33, 110
3, 32924, Note_off_c, 1, 33, 100
3, 32928, Note_on_c, 1, 45, 95
3, 33020, Note_off_c, 1, 45, 100
3, 33024, Note_on_c, 1, 38, 80
3, 33116, Note_off_c, 1, 38, 100
3, 33120, Note_on_c, 1, 50, 80
3, 33212, Note_off_c, 1, 50, 100
3, 33216, Note_on_c, 1, 45, 80
3, 33308, Note_off_c, 1, 45, 100
3, 33312, Note_on_c, 1, 50, 80
3, 33404, Note_off_c, 1, 50, 100
3, 33408, Note_on_c, 1, 38, 80
3, 33596, Note_off_c, 1, 38, 100
3, 33792, Key_signature, 2, "major"
3, 33792, Note_on_c, 1, 57, 80
3, 33792, Note_on_c, 1, 50, 80
3, 33932, Note_off_c, 1, 57, 100
3, 33932, Note_off_c, 1, 50, 100
3, 33936, Note_on_c, 1, 57, 80
3, 33936, Note_on_c, 1, 50, 80
3, 33980, Note_off_c, 1, 57, 100
3, 33980, Note_off_c, 1, 50, 100
3, 33984, Note_on_c, 1, 57, 80
3, 33984, Note_on_c, 1, 50, 80
3, 34172, Note_off_c, 1, 57, 100
3, 34172, Note_off_c, 1, 50, 100
3, 34560, Note_on_c, 1, 55, 80
3, 34560, Note_on_c, 1, 43, 80
3, 34700, Note_off_c, 1, 55, 100
3, 34700, Note_off_c, 1, 43, 100
3, 34704, Note_on_c, 1, 55, 80
3, 34704, Note_on_c, 1, 43, 80
3, 34748, Note_off_c, 1, 55, 100
3, 34748, Note_off_c, 1, 43, 100
3, 34752, Note_on_c, 1, 55, 80
3, 34752, Note_on_c, 1, 43, 80
3, 34940, Note_off_c, 1, 55, 100
3, 34940, Note_off_c, 1, 43, 100
3, 35328, Note_on_c, 1, 55, 80
3, 35328, Note_on_c, 1, 52, 80
3, 35328, Note_on_c, 1, 45, 80
3, 35468, Note_off_c, 1, 55, 100
3, 35468, Note_off_c, 1, 52, 100
3, 35468, Note_off_c, 1, 45, 100
3, 35472, Note_on_c, 1, 55, 80
3, 35472, Note_on_c, 1, 52, 80
3, 35472, Note_on_c, 1, 45, 80
3, 35516, Note_off_c, 1, 55, 100
3, 35516, Note_off_c, 1, 52, 100
3, 35516, Note_off_c, 1, 45, 100
3, 35520, Note_on_c, 1, 55, 80
3, 35520, Note_on_c, 1, 52, 80
3, 35520, Note_on_c, 1, 45, 80
3, 35708, Note_off_c, 1, 55, 100
3, 35708, Note_off_c, 1, 52, 100
3, 35708, Note_off_c, 1, 45, 100
3, 36096, Note_on_c, 1, 50, 80
3, 36096, Note_on_c, 1, 38, 80
3, 36284, Note_off_c, 1, 50, 100
3, 36284, Note_off_c, 1, 38, 100
3, 36288, Note_on_c, 1, 45, 80
3, 36288, Note_on_c, 1, 33, 80
3, 36476, Note_off_c, 1, 45, 100
3, 36476, Note_off_c, 1, 33, 100
3, 36480, Note_on_c, 1, 50, 80
3, 36480, Note_on_c, 1, 38, 80
3, 36668, Note_off_c, 1, 50, 100
3, 36668, Note_off_c, 1, 38, 100
3, 36864, Note_on_c, 1, 57, 80
3, 36864, Note_on_c, 1, 50, 80
3, 37004, Note_off_c, 1, 57, 100
3, 37004, Note_off_c, 1, 50, 100
3, 37008, Note_on_c, 1, 57, 80
3, 37008, Note_on_c, 1, 50, 80
3, 37052, Note_off_c, 1, 57, 100
3, 37052, Note_off_c, 1, 50, 100
3, 37056, Note_on_c, 1, 57, 80
3, 37056, Note_on_c, 1, 50, 80
3, 37244, Note_off_c, 1, 57, 100
3, 37244, Note_off_c, 1, 50, 100
3, 37632, Note_on_c, 1, 52, 110
3, 37632, Note_on_c, 1, 44, 110
3, 37772, Note_off_c, 1, 52, 100
3, 37772, Note_off_c, 1, 44, 100
3, 37776, Note_on_c, 1, 52, 110
3, 37776, Note_on_c, 1, 44, 110
3, 37820, Note_off_c, 1, 52, 100
3, 37820, Note_off_c, 1, 44, 100
3, 37824, Note_on_c, 1, 52, 110
3, 37824, Note_on_c, 1, 44, 110
3, 38012, Note_off_c, 1, 52, 100
3, 38012, Note_off_c, 1, 44, 100
3, 38400, Note_on_c, 1, 64, 80
3, 38400, Note_on_c, 1, 57, 80
3, 38588, Note_off_c, 1, 64, 100
3, 38588, Note_off_c, 1, 57, 100
3, 38784, Note_on_c, 1, 62, 80
3, 38784, Note_on_c, 1, 52, 80
3, 38972, Note_off_c, 1, 62, 100
3, 38972, Note_off_c, 1, 52, 100
3, 39168, Note_on_c, 1, 61, 80
3, 39168, Note_on_c, 1, 57, 80
3, 39356, Note_off_c, 1, 61, 100
3, 39356, Note_off_c, 1, 57, 100
3, 39360, Note_on_c, 1, 61, 80
3, 39360, Note_on_c, 1, 57, 80
3, 39548, Note_off_c, 1, 61, 100
3, 39548, Note_off_c, 1, 57, 100
3, 39552, Note_on_c, 1, 61, 80
3, 39552, Note_on_c, 1, 57, 80
3, 39740, Note_off_c, 1, 61, 100
3, 39740, Note_off_c, 1, 57, 100
3, 39936, Note_on_c, 1, 57, 80
3, 39936, Note_on_c, 1, 50, 80
3, 40076, Note_off_c, 1, 57, 100
3, 40076, Note_off_c, 1, 50, 100
3, 40080, Note_on_c, 1, 57, 80
3, 40080, Note_on_c, 1, 50, 80
3, 40124, Note_off_c, 1, 57, 100
3, 40124, Note_off_c, 1, 50, 100
3, 40128, Note_on_c, 1, 57, 80
3, 40128, Note_on_c, 1, 50, 80
3, 40316, Note_off_c, 1, 57, 100
3, 40316, Note_off_c, 1, 50, 100
3, 40704, Note_on_c, 1, 55, 80
3, 40704, Note_on_c, 1, 43, 80
3, 40844, Note_off_c, 1, 55, 100
3, 40844, Note_off_c, 1, 43, 100
3, 40848, Note_on_c, 1, 55, 80
3, 40848, Note_on_c, 1, 43, 80
3, 40892, Note_off_c, 1, 55, 100
3, 40892, Note_off_c, 1, 43, 100
3, 40896, Note_on_c, 1, 55, 80
3, 40896, Note_on_c, 1, 43, 80
3, 41084, Note_off_c, 1, 55, 100
3, 41084, Note_off_c, 1, 43, 100
3, 41472, Note_on_c, 1, 55, 80
3, 41472, Note_on_c, 1, 52, 80
3, 41472, Note_on_c, 1, 45, 80
3, 41612, Note_off_c, 1, 55, 100
3, 41612, Note_off_c, 1, 52, 100
3, 41612, Note_off_c, 1, 45, 100
3, 41616, Note_on_c, 1, 55, 80
3, 41616, Note_on_c, 1, 52, 80
3, 41616, Note_on_c, 1, 45, 80
3, 41660, Note_off_c, 1, 55, 100
3, 41660, Note_off_c, 1, 52, 100
3, 41660, Note_off_c, 1, 45, 100
3, 41664, Note_on_c, 1, 55, 80
3, 41664, Note_on_c, 1, 52, 80
3, 41664, Note_on_c, 1, 45, 80
3, 41852, Note_off_c, 1, 55, 100
3, 41852, Note_off_c, 1, 52, 100
3, 41852, Note_off_c, 1, 45, 100
3, 42240, Note_on_c, 1, 50, 80
3, 42240, Note_on_c, 1, 38, 80
3, 42428, Note_off_c, 1, 50, 100
3, 42428, Note_off_c, 1, 38, 100
3, 42432, Note_on_c, 1, 45, 80
3, 42432, Note_on_c, 1, 33, 80
3, 42620, Note_off_c, 1, 45, 100
3, 42620, Note_off_c, 1, 33, 100
3, 42624, Note_on_c, 1, 50, 80
3, 42624, Note_on_c, 1, 38, 80
3, 42812, Note_off_c, 1, 50, 100
3, 42812, Note_off_c, 1, 38, 100
3, 43008, Note_on_c, 1, 57, 80
3, 43008, Note_on_c, 1, 50, 80
3, 43148, Note_off_c, 1, 57, 100
3, 43148, Note_off_c, 1, 50, 100
3, 43152, Note_on_c, 1, 57, 80
3, 43152, Note_on_c, 1, 50, 80
3, 43196, Note_off_c, 1, 57, 100
3, 43196, Note_off_c, 1, 50, 100
3, 43200, Note_on_c, 1, 57, 80
3, 43200, Note_on_c, 1, 50, 80
3, 43388, Note_off_c, 1, 57, 100
3, 43388, Note_off_c, 1, 50, 100
3, 43776, Note_on_c, 1, 52, 110
3, 43776, Note_on_c, 1, 44, 110
3, 43916, Note_off_c, 1, 52, 100
3, 43916, Note_off_c, 1, 44, 100
3, 43920, Note_on_c, 1, 52, 110
3, 43920, Note_on_c, 1, 44, 110
3, 43964, Note_off_c, 1, 52, 100
3, 43964, Note_off_c, 1, 44, 100
3, 43968, Note_on_c, 1, 52, 110
3, 43968, Note_on_c, 1, 44, 110
3, 44156, Note_off_c, 1, 52, 100
3, 44156, Note_off_c, 1, 44, 100
3, 44544, Note_on_c, 1, 64, 80
3, 44544, Note_on_c, 1, 57, 80
3, 44732, Note_off_c, 1, 64, 100
3, 44732, Note_off_c, 1, 57, 100
3, 44928, Note_on_c, 1, 62, 80
3, 44928, Note_on_c, 1, 52, 80
3, 45116, Note_off_c, 1, 62, 100
3, 45116, Note_off_c, 1, 52, 100
3, 45312, Note_on_c, 1, 61, 80
3, 45312, Note_on_c, 1, 57, 80
3, 45500, Note_off_c, 1, 61, 100
3, 45500, Note_off_c, 1, 57, 100
3, 45504, Note_on_c, 1, 61, 80
3, 45504, Note_on_c, 1, 57, 80
3, 45692, Note_off_c, 1, 61, 100
3, 45692, Note_off_c, 1, 57, 100
3, 45696, Note_on_c, 1, 61, 80
3, 45696, Note_on_c, 1, 57, 80
3, 45756, Note_off_c, 1, 61, 100
3, 45756, Note_off_c, 1, 57, 100
3, 45760, Note_on_c, 1, 64, 80
3, 45820, Note_off_c, 1, 64, 100
3, 45824, Note_on_c, 1, 61, 80
3, 45884, Note_off_c, 1, 61, 100
3, 45888, Note_on_c, 1, 57, 80
3, 45948, Note_off_c, 1, 57, 100
3, 45952, Note_on_c, 1, 59, 80
3, 46012, Note_off_c, 1, 59, 100
3, 46016, Note_on_c, 1, 55, 80
3, 46076, Note_off_c, 1, 55, 100
3, 46080, Note_on_c, 1, 54, 110
3, 46080, Note_on_c, 1, 50, 110
3, 46080, Note_on_c, 1, 42, 110
3, 46220, Note_off_c, 1, 54, 100
3, 46220, Note_off_c, 1, 50, 100
3, 46220, Note_off_c, 1, 42, 100
3, 46224, Note_on_c, 1, 54, 110
3, 46224, Note_on_c, 1, 50, 110
3, 46224, Note_on_c, 1, 42, 110
3, 46268, Note_off_c, 1, 54, 100
3, 46268, Note_off_c, 1, 50, 100
3, 46268, Note_off_c, 1, 42, 100
3, 46272, Note_on_c, 1, 54, 110
3, 46272, Note_on_c, 1, 42, 110
3, 46272, Note_on_c, 1, 50, 110
3, 46460, Note_off_c, 1, 54, 100
3, 46460, Note_off_c, 1, 42, 100
3, 46460, Note_off_c, 1, 50, 100
3, 46848, Note_on_c, 1, 55, 110
3, 46848, Note_on_c, 1, 50, 110
3, 46848, Note_on_c, 1, 43, 110
3, 46988, Note_off_c, 1, 55, 100
3, 46988, Note_off_c, 1, 50, 100
3, 46988, Note_off_c, 1, 43, 100
3, 46992, Note_on_c, 1, 55, 110
3, 46992, Note_on_c, 1, 50, 110
3, 46992, Note_on_c, 1, 43, 110
3, 47036, Note_off_c, 1, 55, 100
3, 47036, Note_off_c, 1, 50, 100
3, 47036, Note_off_c, 1, 43, 100
3, 47040, Note_on_c, 1, 55, 110
3, 47040, Note_on_c, 1, 50, 110
3, 47040, Note_on_c, 1, 43, 110
3, 47228, Note_off_c, 1, 55, 100
3, 47228, Note_off_c, 1, 50, 100
3, 47228, Note_off_c, 1, 43, 100
3, 47424, Note_on_c, 1, 66, 80
3, 47612, Note_off_c, 1, 66, 100
3, 47616, Note_on_c, 1, 67, 80
3, 47804, Note_off_c, 1, 67, 100
3, 47808, Note_on_c, 1, 63, 80
3, 47996, Note_off_c, 1, 63, 100
3, 48000, Note_on_c, 1, 64, 80
3, 48188, Note_off_c, 1, 64, 100
3, 48192, Note_on_c, 1, 66, 80
3, 48380, Note_off_c, 1, 66, 100
3, 48384, Note_on_c, 1, 67, 80
3, 48572, Note_off_c, 1, 67, 100
3, 48576, Note_on_c, 1, 68, 80
3, 48764, Note_off_c, 1, 68, 100
3, 48768, Note_on_c, 1, 69, 80
3, 48956, Note_off_c, 1, 69, 100
3, 49152, Note_on_c, 1, 57, 80
3, 49152, Note_on_c, 1, 50, 80
3, 49292, Note_off_c, 1, 57, 100
3, 49292, Note_off_c, 1, 50, 100
3, 49296, Note_on_c, 1, 57, 80
3, 49296, Note_on_c, 1, 50, 80
3, 49340, Note_off_c, 1, 57, 100
3, 49340, Note_off_c, 1, 50, 100
3, 49344, Note_on_c, 1, 57, 80
3, 49344, Note_on_c, 1, 50, 80
3, 49532, Note_off_c, 1, 57, 100
3, 49532, Note_off_c, 1, 50, 100
3, 49920, Note_on_c, 1, 55, 80
3, 49920, Note_on_c, 1, 43, 80
3, 50060, Note_off_c, 1, 55, 100
3, 50060, Note_off_c, 1, 43, 100
3, 50064, Note_on_c, 1, 55, 80
3, 50064, Note_on_c, 1, 43, 80
3, 50108, Note_off_c, 1, 55, 100
3, 50108, Note_off_c, 1, 43, 100
3, 50112, Note_on_c, 1, 55, 80
3, 50112, Note_on_c, 1, 43, 80
3, 50300, Note_off_c, 1, 55, 100
3, 50300, Note_off_c, 1, 43, 100
3, 50688, Note_on_c, 1, 66, 80
3, 50688, Note_on_c, 1, 62, 80
3, 50688, Note_on_c, 1, 57, 80
3, 50876, Note_off_c, 1, 66, 100
3, 50876, Note_off_c, 1, 62, 100
3, 50876, Note_off_c, 1, 57, 100
3, 51072, Note_on_c, 1, 67, 80
3, 51072, Note_on_c, 1, 64, 80
3, 51072, Note_on_c, 1, 57, 80
3, 51260, Note_off_c, 1, 67, 100
3, 51260, Note_off_c, 1, 64, 100
3, 51260, Note_off_c, 1, 57, 100
3, 51456, Note_on_c, 1, 62, 80
3, 51456, Note_on_c, 1, 66, 80
3, 51644, Note_off_c, 1, 62, 100
3, 51644, Note_off_c, 1, 66, 100
3, 51648, Note_on_c, 1, 66, 80
3, 51648, Note_on_c, 1, 62, 80
3, 51836, Note_off_c, 1, 66, 100
3, 51836, Note_off_c, 1, 62, 100
3, 51840, Note_on_c, 1, 66, 80
3, 51840, Note_on_c, 1, 62, 80
3, 51900, Note_off_c, 1, 66, 100
3, 51900, Note_off_c, 1, 62, 100
3, 51904, Note_on_c, 1, 50, 80
3, 51964, Note_off_c, 1, 50, 100
3, 51968, Note_on_c, 1, 48, 80
3, 52028, Note_off_c, 1, 48, 100
3, 52032, Note_on_c, 1, 47, 80
3, 52092, Note_off_c, 1, 47, 100
3, 52096, Note_on_c, 1, 45, 80
3, 52156, Note_off_c, 1, 45, 100
3, 52160, Note_on_c, 1, 43, 80
3, 52220, Note_off_c, 1, 43, 100
3, 52224, Note_on_c, 1, 54, 110
3, 52224, Note_on_c, 1, 50, 110
3, 52224, Note_on_c, 1, 42, 110
3, 52364, Note_off_c, 1, 54, 100
3, 52364, Note_off_c, 1, 50, 100
3, 52364, Note_off_c, 1, 42, 100
3, 52368, Note_on_c, 1, 54, 110
3, 52368, Note_on_c, 1, 50, 110
3, 52368, Note_on_c, 1, 42, 110
3, 52412, Note_off_c, 1, 54, 100
3, 52412, Note_off_c, 1, 50, 100
3, 52412, Note_off_c, 1, 42, 100
3, 52416, Note_on_c, 1, 54, 110
3, 52416, Note_on_c, 1, 42, 110
3, 52416, Note_on_c, 1, 50, 110
3, 52604, Note_off_c, 1, 54, 100
3, 52604, Note_off_c, 1, 42, 100
3, 52604, Note_off_c, 1, 50, 100
3, 52992, Note_on_c, 1, 55, 110
3, 52992, Note_on_c, 1, 50, 110
3, 52992, Note_on_c, 1, 43, 110
3, 53132, Note_off_c, 1, 55, 100
3, 53132, Note_off_c, 1, 50, 100
3, 53132, Note_off_c, 1, 43, 100
3, 53136, Note_on_c, 1, 55, 110
3, 53136, Note_on_c, 1, 50, 110
3, 53136, Note_on_c, 1, 43, 110
3, 53180, Note_off_c, 1, 55, 100
3, 53180, Note_off_c, 1, 50, 100
3, 53180, Note_off_c, 1, 43, 100
3, 53184, Note_on_c, 1, 55, 110
3, 53184, Note_on_c, 1, 50, 110
3, 53184, Note_on_c, 1, 43, 110
3, 53372, Note_off_c, 1, 55, 100
3, 53372, Note_off_c, 1, 50, 100
3, 53372, Note_off_c, 1, 43, 100
3, 53568, Note_on_c, 1, 66, 80
3, 53756, Note_off_c, 1, 66, 100
3, 53760, Note_on_c, 1, 67, 80
3, 53948, Note_off_c, 1, 67, 100
3, 53952, Note_on_c, 1, 63, 80
3, 54140, Note_off_c, 1, 63, 100
3, 54144, Note_on_c, 1, 64, 80
3, 54332, Note_off_c, 1, 64, 100
3, 54336, Note_on_c, 1, 66, 80
3, 54524, Note_off_c, 1, 66, 100
3, 54528, Note_on_c, 1, 67, 80
3, 54716, Note_off_c, 1, 67, 100
3, 54720, Note_on_c, 1, 68, 80
3, 54908, Note_off_c, 1, 68, 100
3, 54912, Note_on_c, 1, 69, 80
3, 55100, Note_off_c, 1, 69, 100
3, 55296, Note_on_c, 1, 57, 80
3, 55296, Note_on_c, 1, 50, 80
3, 55436, Note_off_c, 1, 57, 100
3, 55436, Note_off_c, 1, 50, 100
3, 55440, Note_on_c, 1, 57, 80
3, 55440, Note_on_c, 1, 50, 80
3, 55484, Note_off_c, 1, 57, 100
3, 55484, Note_off_c, 1, 50, 100
3, 55488, Note_on_c, 1, 57, 80
3, 55488, Note_on_c, 1, 50, 80
3, 55676, Note_off_c, 1, 57, 100
3, 55676, Note_off_c, 1, 50, 100
3, 56064, Note_on_c, 1, 55, 80
3, 56064, Note_on_c, 1, 43, 80
3, 56204, Note_off_c, 1, 55, 100
3, 56204, Note_off_c, 1, 43, 100
3, 56208, Note_on_c, 1, 55, 80
3, 56208, Note_on_c, 1, 43, 80
3, 56252, Note_off_c, 1, 55, 100
3, 56252, Note_off_c, 1, 43, 100
3, 56256, Note_on_c, 1, 55, 80
3, 56256, Note_on_c, 1, 43, 80
3, 56444, Note_off_c, 1, 55, 100
3, 56444, Note_off_c, 1, 43, 100
3, 56832, Note_on_c, 1, 66, 80
3, 56832, Note_on_c, 1, 62, 80
3, 56832, Note_on_c, 1, 57, 80
3, 57020, Note_off_c, 1, 66, 100
3, 57020, Note_off_c, 1, 62, 100
3, 57020, Note_off_c, 1, 57, 100
3, 57216, Note_on_c, 1, 67, 80
3, 57216, Note_on_c, 1, 64, 80
3, 57216, Note_on_c, 1, 57, 80
3, 57404, Note_off_c, 1, 67, 100
3, 57404, Note_off_c, 1, 64, 100
3, 57404, Note_off_c, 1, 57, 100
3, 57600, Note_on_c, 1, 62, 80
3, 57600, Note_on_c, 1, 66, 80
3, 57788, Note_off_c, 1, 62, 100
3, 57788, Note_off_c, 1, 66, 100
3, 57792, Note_on_c, 1, 66, 80
3, 57792, Note_on_c, 1, 62, 80
3, 57980, Note_off_c, 1, 66, 100
3, 57980, Note_off_c, 1, 62, 100
3, 57984, Note_on_c, 1, 62, 80
3, 57984, Note_on_c, 1, 66, 80
3, 58172, Note_off_c, 1, 62, 100
3, 58172, Note_off_c, 1, 66, 100
3, 58368, Key_signature, -1, "minor"
3, 58368, Note_on_c, 1, 38, 80
3, 58460, Note_off_c, 1, 38, 100
3, 58464, Note_on_c, 1, 50, 80
3, 58556, Note_off_c, 1, 50, 100
3, 58560, Note_on_c, 1, 45, 80
3, 58652, Note_off_c, 1, 45, 100
3, 58656, Note_on_c, 1, 50, 80
3, 58748, Note_off_c, 1, 50, 100
3, 58752, Note_on_c, 1, 37, 80
3, 58844, Note_off_c, 1, 37, 100
3, 58848, Note_on_c, 1, 49, 80
3, 58940, Note_off_c, 1, 49, 100
3, 58944, Note_on_c, 1, 45, 80
3, 59036, Note_off_c, 1, 45, 100
3, 59040, Note_on_c, 1, 49, 80
3, 59132, Note_off_c, 1, 49, 100
3, 59136, Note_on_c, 1, 38, 80
3, 59228, Note_off_c, 1, 38, 100
3, 59232, Note_on_c, 1, 50, 80
3, 59324, Note_off_c, 1, 50, 100
3, 59328, Note_on_c, 1, 45, 80
3, 59420, Note_off_c, 1, 45, 100
3, 59424, Note_on_c, 1, 50, 80
3, 59516, Note_off_c, 1, 50, 100
3, 59520, Note_on_c, 1, 38, 80
3, 59612, Note_off_c, 1, 38, 100
3, 59616, Note_on_c, 1, 50, 80
3, 59708, Note_off_c, 1, 50, 100
3, 59712, Note_on_c, 1, 41, 80
3, 59804, Note_off_c, 1, 41, 100
3, 59808, Note_on_c, 1, 53, 80
3, 59900, Note_off_c, 1, 53, 100
3, 59904, Note_on_c, 1, 46, 80
3, 59996, Note_off_c, 1, 46, 100
3, 60000, Note_on_c, 1, 58, 84
3, 60092, Note_off_c, 1, 58, 100
3, 60096, Note_on_c, 1, 45, 88
3, 60188, Note_off_c, 1, 45, 100
3, 60192, Note_on_c, 1, 57, 92
3, 60284, Note_off_c, 1, 57, 100
3, 60288, Note_on_c, 1, 43, 97
3, 60380, Note_off_c, 1, 43, 100
3, 60384, Note_on_c, 1, 55, 101
3, 60476, Note_off_c, 1, 55, 100
3, 60480, Note_on_c, 1, 44, 105
3, 60572, Note_off_c, 1, 44, 100
3, 60576, Note_on_c, 1, 56, 109
3, 60668, Note_off_c, 1, 56, 100
3, 60672, Note_on_c, 1, 45, 80
3, 60764, Note_off_c, 1, 45, 100
3, 60768, Note_on_c, 1, 57, 80
3, 60860, Note_off_c, 1, 57, 100
3, 60864, Note_on_c, 1, 56, 80
3, 60956, Note_off_c, 1, 56, 100
3, 60960, Note_on_c, 1, 57, 80
3, 61052, Note_off_c, 1, 57, 100
3, 61056, Note_on_c, 1, 45, 80
3, 61148, Note_off_c, 1, 45, 100
3, 61152, Note_on_c, 1, 57, 80
3, 61244, Note_off_c, 1, 57, 100
3, 61248, Note_on_c, 1, 43, 80
3, 61340, Note_off_c, 1, 43, 100
3, 61344, Note_on_c, 1, 55, 80
3, 61436, Note_off_c, 1, 55, 100
3, 61440, Note_on_c, 1, 41, 80
3, 61532, Note_off_c, 1, 41, 100
3, 61536, Note_on_c, 1, 53, 80
3, 61628, Note_off_c, 1, 53, 100
3, 61632, Note_on_c, 1, 48, 80
3, 61724, Note_off_c, 1, 48, 100
3, 61728, Note_on_c, 1, 53, 80
3, 61820, Note_off_c, 1, 53, 100
3, 61824, Note_on_c, 1, 40, 80
3, 61916, Note_off_c, 1, 40, 100
3, 61920, Note_on_c, 1, 52, 80
3, 62012, Note_off_c, 1, 52, 100
3, 62016, Note_on_c, 1, 48, 80
3, 62108, Note_off_c, 1, 48, 100
3, 62112, Note_on_c, 1, 52, 80
3, 62204, Note_off_c, 1, 52, 100
3, 62208, Note_on_c, 1, 41, 80
3, 62300, Note_off_c, 1, 41, 100
3, 62304, Note_on_c, 1, 53, 80
3, 62396, Note_off_c, 1, 53, 100
3, 62400, Note_on_c, 1, 48, 80
3, 62492, Note_off_c, 1, 48, 100
3, 62496, Note_on_c, 1, 53, 80
3, 62588, Note_off_c, 1, 53, 100
3, 62592, Note_on_c, 1, 41, 80
3, 62684, Note_off_c, 1, 41, 100
3, 62688, Note_on_c, 1, 53, 80
3, 62780, Note_off_c, 1, 53, 100
3, 62784, Note_on_c, 1, 38, 80
3, 62876, Note_off_c, 1, 38, 100
3, 62880, Note_on_c, 1, 50, 80
3, 62972, Note_off_c, 1, 50, 100
3, 62976, Note_on_c, 1, 40, 80
3, 63068, Note_off_c, 1, 40, 100
3, 63072, Note_on_c, 1, 52, 84
3, 63164, Note_off_c, 1, 52, 100
3, 63168, Note_on_c, 1, 45, 88
3, 63260, Note_off_c, 1, 45, 100
3, 63264, Note_on_c, 1, 52, 92
3, 63356, Note_off_c, 1, 52, 100
3, 63360, Note_on_c, 1, 40, 97
3, 63452, Note_off_c, 1, 40, 100
3, 63456, Note_on_c, 1, 52, 101
3, 63548, Note_off_c, 1, 52, 100
3, 63552, Note_on_c, 1, 47, 105
3, 63644, Note_off_c, 1, 47, 100
3, 63648, Note_on_c, 1, 52, 109
3, 63740, Note_off_c, 1, 52, 100
3, 63744, Note_on_c, 1, 33, 80
3, 63836, Note_off_c, 1, 33, 100
3, 63840, Note_on_c, 1, 45, 80
3, 63932, Note_off_c, 1, 45, 100
3, 63936, Note_on_c, 1, 34, 80
3, 64028, Note_off_c, 1, 34, 100
3, 64032, Note_on_c, 1, 46, 80
3, 64124, Note_off_c, 1, 46, 100
3, 64128, Note_on_c, 1, 33, 80
3, 64220, Note_off_c, 1, 33, 100
3, 64224, Note_on_c, 1, 45, 80
3, 64316, Note_off_c, 1, 45, 100
3, 64320, Note_on_c, 1, 37, 80
3, 64412, Note_off_c, 1, 37, 100
3, 64416, Note_on_c, 1, 49, 80
3, 64508, Note_off_c, 1, 49, 100
3, 64512, Note_on_c, 1, 38, 80
3, 64604, Note_off_c, 1, 38, 100
3, 64608, Note_on_c, 1, 50, 80
3, 64700, Note_off_c, 1, 50, 100
3, 64704, Note_on_c, 1, 45, 80
3, 64796, Note_off_c, 1, 45, 100
3, 64800, Note_on_c, 1, 50, 80
3, 64892, Note_off_c, 1, 50, 100
3, 64896, Note_on_c, 1, 37, 80
3, 64988, Note_off_c, 1, 37, 100
3, 64992, Note_on_c, 1, 49, 80
3, 65084, Note_off_c, 1, 49, 100
3, 65088, Note_on_c, 1, 45, 80
3, 65180, Note_off_c, 1, 45, 100
3, 65184, Note_on_c, 1, 49, 80
3, 65276, Note_off_c, 1, 49, 100
3, 65280, Note_on_c, 1, 38, 80
3, 65372, Note_off_c, 1, 38, 100
3, 65376, Note_on_c, 1, 50, 80
3, 65468, Note_off_c, 1, 50, 100
3, 65472, Note_on_c, 1, 45, 80
3, 65564, Note_off_c, 1, 45, 100
3, 65568, Note_on_c, 1, 50, 80
3, 65660, Note_off_c, 1, 50, 100
3, 65664, Note_on_c, 1, 38, 80
3, 65756, Note_off_c, 1, 38, 100
3, 65760, Note_on_c, 1, 50, 80
3, 65852, Note_off_c, 1, 50, 100
3, 65856, Note_on_c, 1, 41, 80
3, 65948, Note_off_c, 1, 41, 100
3, 65952, Note_on_c, 1, 53, 80
3, 66044, Note_off_c, 1, 53, 100
3, 66048, Note_on_c, 1, 46, 81
3, 66140, Note_off_c, 1, 46, 100
3, 66144, Note_on_c, 1, 58, 85
3, 66236, Note_off_c, 1, 58, 100
3, 66240, Note_on_c, 1, 45, 89
3, 66332, Note_off_c, 1, 45, 100
3, 66336, Note_on_c, 1, 57, 93
3, 66428, Note_off_c, 1, 57, 100
3, 66432, Note_on_c, 1, 43, 97
3, 66524, Note_off_c, 1, 43, 100
3, 66528, Note_on_c, 1, 55, 101
3, 66620, Note_off_c, 1, 55, 100
3, 66624, Note_on_c, 1, 44, 105
3, 66716, Note_off_c, 1, 44, 100
3, 66720, Note_on_c, 1, 56, 109
3, 66812, Note_off_c, 1, 56, 100
3, 66816, Note_on_c, 1, 45, 80
3, 66908, Note_off_c, 1, 45, 100
3, 66912, Note_on_c, 1, 57, 80
3, 67004, Note_off_c, 1, 57, 100
3, 67008, Note_on_c, 1, 50, 80
3, 67100, Note_off_c, 1, 50, 100
3, 67104, Note_on_c, 1, 57, 80
3, 67196, Note_off_c, 1, 57, 100
3, 67200, Note_on_c, 1, 45, 80
3, 67292, Note_off_c, 1, 45, 100
3, 67296, Note_on_c, 1, 57, 80
3, 67388, Note_off_c, 1, 57, 100
3, 67392, Note_on_c, 1, 43, 80
3, 67484, Note_off_c, 1, 43, 100
3, 67488, Note_on_c, 1, 55, 80
3, 67580, Note_off_c, 1, 55, 100
3, 67584, Note_on_c, 1, 41, 80
3, 67676, Note_off_c, 1, 41, 100
3, 67680, Note_on_c, 1, 53, 80
3, 67772, Note_off_c, 1, 53, 100
3, 67776, Note_on_c, 1, 48, 80
3, 67868, Note_off_c, 1, 48, 100
3, 67872, Note_on_c, 1, 53, 80
3, 67964, Note_off_c, 1, 53, 100
3, 67968, Note_on_c, 1, 40, 80
3, 68060, Note_off_c, 1, 40, 100
3, 68064, Note_on_c, 1, 52, 80
3, 68156, Note_off_c, 1, 52, 100
3, 68160, Note_on_c, 1, 48, 80
3, 68252, Note_off_c, 1, 48, 100
3, 68256, Note_on_c, 1, 52, 80
3, 68348, Note_off_c, 1, 52, 100
3, 68352, Note_on_c, 1, 41, 80
3, 68444, Note_off_c, 1, 41, 100
3, 68448, Note_on_c, 1, 53, 80
3, 68540, Note_off_c, 1, 53, 100
3, 68544, Note_on_c, 1, 48, 80
3, 68636, Note_off_c, 1, 48, 100
3, 68640, Note_on_c, 1, 53, 80
3, 68732, Note_off_c, 1, 53, 100
3, 68736, Note_on_c, 1, 41, 80
3, 68828, Note_off_c, 1, 41, 100
3, 68832, Note_on_c, 1, 53, 80
3, 68924, Note_off_c, 1, 53, 100
3, 68928, Note_on_c, 1, 38, 80
3, 69020, Note_off_c, 1, 38, 100
3, 69024, Note_on_c, 1, 50, 80
3, 69116, Note_off_c, 1, 50, 100
3, 69120, Note_on_c, 1, 40, 81
3, 69212, Note_off_c, 1, 40, 100
3, 69216, Note_on_c, 1, 52, 85
3, 69308, Note_off_c, 1, 52, 100
3, 69312, Note_on_c, 1, 45, 89
3, 69404, Note_off_c, 1, 45, 100
3, 69408, Note_on_c, 1, 52, 93
3, 69500, Note_off_c, 1, 52, 100
3, 69504, Note_on_c, 1, 40, 97
3, 69596, Note_off_c, 1, 40, 100
3, 69600, Note_on_c, 1, 52, 101
3, 69692, Note_off_c, 1, 52, 100
3, 69696, Note_on_c, 1, 47, 105
3, 69788, Note_off_c, 1, 47, 100
3, 69792, Note_on_c, 1, 52, 109
3, 69884, Note_off_c, 1, 52, 100
3, 69888, Note_on_c, 1, 33, 110
3, 69980, Note_off_c, 1, 33, 100
3, 69984, Note_on_c, 1, 45, 110
3, 70076, Note_off_c, 1, 45, 100
3, 70080, Note_on_c, 1, 34, 110
3, 70172, Note_off_c, 1, 34, 100
3, 70176, Note_on_c, 1, 46, 110
3, 70268, Note_off_c, 1, 46, 100
3, 70272, Note_on_c, 1, 33, 110
3, 70364, Note_off_c, 1, 33, 100
3, 70368, Note_on_c, 1, 45, 110
3, 70460, Note_off_c, 1, 45, 100
3, 70464, Note_on_c, 1, 32, 110
3, 70556, Note_off_c, 1, 32, 100
3, 70560, Note_on_c, 1, 44, 110
3, 70652, Note_off_c, 1, 44, 100
3, 70656, Note_on_c, 1, 45, 80
3, 70656, Note_on_c, 1, 33, 80
3, 70748, Note_off_c, 1, 45, 100
3, 70748, Note_off_c, 1, 33, 100
3, 70752, Note_on_c, 1, 57, 80
3, 70844, Note_off_c, 1, 57, 100
3, 70848, Note_on_c, 1, 57, 80
3, 70940, Note_off_c, 1, 57, 100
3, 70944, Note_on_c, 1, 57, 80
3, 71036, Note_off_c, 1, 57, 100
3, 71040, Note_on_c, 1, 57, 80
3, 71132, Note_off_c, 1, 57, 100
3, 71136, Note_on_c, 1, 57, 80
3, 71228, Note_off_c, 1, 57, 100
3, 71232, Note_on_c, 1, 57, 80
3, 71324, Note_off_c, 1, 57, 100
3, 71328, Note_on_c, 1, 57, 80
3, 71420, Note_off_c, 1, 57, 100
3, 71424, Note_on_c, 1, 57, 80
3, 71516, Note_off_c, 1, 57, 100
3, 71520, Note_on_c, 1, 57, 80
3, 71612, Note_off_c, 1, 57, 100
3, 71616, Note_on_c, 1, 57, 80
3, 71616, Note_on_c, 1, 67, 80
3, 71708, Note_off_c, 1, 57, 100
3, 71712, Note_on_c, 1, 57, 80
3, 71804, Note_off_c, 1, 57, 100
3, 71808, Note_on_c, 1, 57, 80
3, 71900, Note_off_c, 1, 57, 100
3, 71904, Note_on_c, 1, 57, 80
3, 71996, Note_off_c, 1, 67, 100
3, 71996, Note_off_c, 1, 57, 100
3, 72000, Note_on_c, 1, 57, 80
3, 72000, Note_on_c, 1, 68, 80
3, 72092, Note_off_c, 1, 57, 100
3, 72096, Note_on_c, 1, 57, 80
3, 72188, Note_off_c, 1, 68, 100
3, 72188, Note_off_c, 1, 57, 100
3, 72192, Note_on_c, 1, 57, 80
3, 72284, Note_off_c, 1, 57, 100
3, 72288, Note_on_c, 1, 57, 80
3, 72380, Note_off_c, 1, 57, 100
3, 72384, Note_on_c, 1, 57, 80
3, 72476, Note_off_c, 1, 57, 100
3, 72480, Note_on_c, 1, 57, 80
3, 72572, Note_off_c, 1, 57, 100
3, 72576, Note_on_c, 1, 57, 80
3, 72668, Note_off_c, 1, 57, 100
3, 72672, Note_on_c, 1, 57, 80
3, 72764, Note_off_c, 1, 57, 100
3, 72768, Note_on_c, 1, 57, 80
3, 72860, Note_off_c, 1, 57, 100
3, 72864, Note_on_c, 1, 57, 80
3, 72956, Note_off_c, 1, 57, 100
3, 72960, Note_on_c, 1, 57, 80
3, 73052, Note_off_c, 1, 57, 100
3, 73056, Note_on_c, 1, 57, 80
3, 73148, Note_off_c, 1, 57, 100
3, 73152, Note_on_c, 1, 57, 80
3, 73152, Note_on_c, 1, 67, 80
3, 73244, Note_off_c, 1, 57, 100
3, 73248, Note_on_c, 1, 57, 80
3, 73340, Note_off_c, 1, 57, 100
3, 73344, Note_on_c, 1, 57, 80
3, 73436, Note_off_c, 1, 57, 100
3, 73440, Note_on_c, 1, 57, 80
3, 73532, Note_off_c, 1, 67, 100
3, 73532, Note_off_c, 1, 57, 100
3, 73536, Note_on_c, 1, 57, 80
3, 73536, Note_on_c, 1, 68, 80
3, 73628, Note_off_c, 1, 57, 100
3, 73632, Note_on_c, 1, 57, 80
3, 73724, Note_off_c, 1, 68, 100
3, 73724, Note_off_c, 1, 57, 100
3, 73728, Note_on_c, 1, 57, 80
3, 73728, Note_on_c, 1, 64, 80
3, 73820, Note_off_c, 1, 57, 100
3, 73824, Note_on_c, 1, 57, 80
3, 73916, Note_off_c, 1, 64, 100
3, 73916, Note_off_c, 1, 57, 100
3, 73920, Note_on_c, 1, 57, 80
3, 73920, Note_on_c, 1, 67, 80
3, 74012, Note_off_c, 1, 57, 100
3, 74016, Note_on_c, 1, 57, 80
3, 74108, Note_off_c, 1, 57, 100
3, 74112, Note_on_c, 1, 57, 80
3, 74204, Note_off_c, 1, 57, 100
3, 74208, Note_on_c, 1, 57, 80
3, 74300, Note_off_c, 1, 67, 100
3, 74300, Note_off_c, 1, 57, 100
3, 74304, Note_on_c, 1, 57, 80
3, 74304, Note_on_c, 1, 68, 80
3, 74396, Note_off_c, 1, 57, 100
3, 74400, Note_on_c, 1, 57, 80
3, 74492, Note_off_c, 1, 68, 100
3, 74492, Note_off_c, 1, 57, 100
3, 74496, Note_on_c, 1, 64, 80
3, 74496, Note_on_c, 1, 57, 80
3, 74588, Note_off_c, 1, 64, 100
3, 74588, Note_off_c, 1, 57, 100
3, 74592, Note_on_c, 1, 57, 80
3, 74684, Note_off_c, 1, 57, 100
3, 74688, Note_on_c, 1, 68, 80
3, 74688, Note_on_c, 1, 57, 80
3, 74780, Note_off_c, 1, 57, 100
3, 74784, Note_on_c, 1, 57, 80
3, 74876, Note_off_c, 1, 68, 100
3, 74876, Note_off_c, 1, 57, 100
3, 74880, Note_on_c, 1, 64, 80
3, 74880, Note_on_c, 1, 57, 80
3, 74972, Note_off_c, 1, 64, 100
3, 74972, Note_off_c, 1, 57, 100
3, 74976, Note_on_c, 1, 57, 80
3, 75068, Note_off_c, 1, 57, 100
3, 75072, Note_on_c, 1, 68, 80
3, 75072, Note_on_c, 1, 57, 80
3, 75164, Note_off_c, 1, 57, 100
3, 75168, Note_on_c, 1, 57, 80
3, 75260, Note_off_c, 1, 68, 100
3, 75260, Note_off_c, 1, 57, 100
3, 75264, Note_on_c, 1, 64, 80
3, 75264, Note_on_c, 1, 57, 80
3, 75452, Note_off_c, 1, 64, 100
3, 75452, Note_off_c, 1, 57, 100
3, 76800, Note_on_c, 1, 38, 80
3, 76892, Note_off_c, 1, 38, 100
3, 76896, Note_on_c, 1, 50, 80
3, 76988, Note_off_c, 1, 50, 100
3, 76992, Note_on_c, 1, 45, 80
3, 77084, Note_off_c, 1, 45, 100
3, 77088, Note_on_c, 1, 50, 80
3, 77180, Note_off_c, 1, 50, 100
3, 77184, Note_on_c, 1, 37, 80
3, 77276, Note_off_c, 1, 37, 100
3, 77280, Note_on_c, 1, 49, 80
3, 77372, Note_off_c, 1, 49, 100
3, 77376, Note_on_c, 1, 45, 80
3, 77468, Note_off_c, 1, 45, 100
3, 77472, Note_on_c, 1, 49, 80
3, 77564, Note_off_c, 1, 49, 100
3, 77568, Note_on_c, 1, 38, 80
3, 77660, Note_off_c, 1, 38, 100
3, 77664, Note_on_c, 1, 50, 80
3, 77756, Note_off_c, 1, 50, 100
3, 77760, Note_on_c, 1, 45, 80
3, 77852, Note_off_c, 1, 45, 100
3, 77856, Note_on_c, 1, 50, 80
3, 77948, Note_off_c, 1, 50, 100
3, 77952, Note_on_c, 1, 38, 80
3, 78044, Note_off_c, 1, 38, 100
3, 78048, Note_on_c, 1, 50, 80
3, 78140, Note_off_c, 1, 50, 100
3, 78144, Note_on_c, 1, 35, 80
3, 78236, Note_off_c, 1, 35, 100
3, 78240, Note_on_c, 1, 47, 80
3, 78332, Note_off_c, 1, 47, 100
3, 78336, Note_on_c, 1, 36, 80
3, 78428, Note_off_c, 1, 36, 100
3, 78432, Note_on_c, 1, 48, 80
3, 78524, Note_off_c, 1, 48, 100
3, 78528, Note_on_c, 1, 43, 80
3, 78620, Note_off_c, 1, 43, 100
3, 78624, Note_on_c, 1, 48, 80
3, 78716, Note_off_c, 1, 48, 100
3, 78720, Note_on_c, 1, 36, 80
3, 78812, Note_off_c, 1, 36, 100
3, 78816, Note_on_c, 1, 48, 80
3, 78908, Note_off_c, 1, 48, 100
3, 78912, Note_on_c, 1, 37, 80
3, 79004, Note_off_c, 1, 37, 100
3, 79008, Note_on_c, 1, 49, 80
3, 79100, Note_off_c, 1, 49, 100
3, 79104, Note_on_c, 1, 38, 80
3, 79196, Note_off_c, 1, 38, 100
3, 79200, Note_on_c, 1, 50, 80
3, 79292, Note_off_c, 1, 50, 100
3, 79296, Note_on_c, 1, 45, 80
3, 79388, Note_off_c, 1, 45, 100
3, 79392, Note_on_c, 1, 50, 80
3, 79484, Note_off_c, 1, 50, 100
3, 79488, Note_on_c, 1, 38, 83
3, 79580, Note_off_c, 1, 38, 100
3, 79584, Note_on_c, 1, 50, 91
3, 79676, Note_off_c, 1, 50, 100
3, 79680, Note_on_c, 1, 42, 98
3, 79772, Note_off_c, 1, 42, 100
3, 79776, Note_on_c, 1, 54, 105
3, 79868, Note_off_c, 1, 54, 100
3, 79872, Note_on_c, 1, 43, 110
3, 79964, Note_off_c, 1, 43, 100
3, 79968, Note_on_c, 1, 55, 110
3, 80060, Note_off_c, 1, 55, 100
3, 80064, Note_on_c, 1, 46, 110
3, 80156, Note_off_c, 1, 46, 100
3, 80160, Note_on_c, 1, 58, 110
3, 80252, Note_off_c, 1, 58, 100
3, 80256, Note_on_c, 1, 45, 110
3, 80348, Note_off_c, 1, 45, 100
3, 80352, Note_on_c, 1, 57, 110
3, 80444, Note_off_c, 1, 57, 100
3, 80448, Note_on_c, 1, 33, 110
3, 80540, Note_off_c, 1, 33, 100
3, 80544, Note_on_c, 1, 45, 95
3, 80636, Note_off_c, 1, 45, 100
3, 80640, Note_on_c, 1, 38, 80
3, 80732, Note_off_c, 1, 38, 100
3, 80736, Note_on_c, 1, 50, 80
3, 80828, Note_off_c, 1, 50, 100
3, 80832, Note_on_c, 1, 45, 80
3, 80924, Note_off_c, 1, 45, 100
3, 80928, Note_on_c, 1, 50, 80
3, 81020, Note_off_c, 1, 50, 100
3, 81024, Note_on_c, 1, 38, 80
3, 81116, Note_off_c, 1, 38, 100
3, 81120, Note_on_c, 1, 57, 80
3, 81212, Note_off_c, 1, 57, 100
3, 81216, Note_on_c, 1, 53, 80
3, 81308, Note_off_c, 1, 53, 100
3, 81312, Note_on_c, 1, 50, 80
3, 81404, Note_off_c, 1, 50, 100
3, 81408, Note_on_c, 1, 45, 80
3, 81408, Note_on_c, 1, 33, 80
3, 81500, Note_off_c, 1, 45, 100
3, 81500, Note_off_c, 1, 33, 100
3, 81504, Note_on_c, 1, 57, 80
3, 81596, Note_off_c, 1, 57, 100
3, 81600, Note_on_c, 1, 57, 80
3, 81692, Note_off_c, 1, 57, 100
3, 81696, Note_on_c, 1, 57, 80
3, 81788, Note_off_c, 1, 57, 100
3, 81792, Note_on_c, 1, 57, 80
3, 81884, Note_off_c, 1, 57, 100
3, 81888, Note_on_c, 1, 57, 80
3, 81980, Note_off_c, 1, 57, 100
3, 81984, Note_on_c, 1, 57, 80
3, 82076, Note_off_c, 1, 57, 100
3, 82080, Note_on_c, 1, 57, 80
3, 82172, Note_off_c, 1, 57, 100
3, 82176, Note_on_c, 1, 57, 80
3, 82268, Note_off_c, 1, 57, 100
3, 82272, Note_on_c, 1, 57, 80
3, 82364, Note_off_c, 1, 57, 100
3, 82368, Note_on_c, 1, 67, 80
3, 82368, Note_on_c, 1, 57, 80
3, 82460, Note_off_c, 1, 57, 100
3, 82464, Note_on_c, 1, 57, 80
3, 82556, Note_off_c, 1, 57, 100
3, 82560, Note_on_c, 1, 57, 80
3, 82652, Note_off_c, 1, 57, 100
3, 82656, Note_on_c, 1, 57, 80
3, 82748, Note_off_c, 1, 67, 100
3, 82748, Note_off_c, 1, 57, 100
3, 82752, Note_on_c, 1, 68, 80
3, 82752, Note_on_c, 1, 57, 80
3, 82844, Note_off_c, 1, 57, 100
3, 82848, Note_on_c, 1, 57, 80
3, 82940, Note_off_c, 1, 68, 100
3, 82940, Note_off_c, 1, 57, 100
3, 82944, Note_on_c, 1, 57, 81
3, 82992, Note_on_c, 1, 60, 82
3, 83036, Note_off_c, 1, 57, 100
3, 83040, Note_on_c, 1, 61, 83
3, 83084, Note_off_c, 1, 60, 100
3, 83088, Note_on_c, 1, 60, 85
3, 83132, Note_off_c, 1, 61, 100
3, 83136, Note_on_c, 1, 61, 86
3, 83180, Note_off_c, 1, 60, 100
3, 83184, Note_on_c, 1, 63, 87
3, 83228, Note_off_c, 1, 61, 100
3, 83232, Note_on_c, 1, 64, 89
3, 83276, Note_off_c, 1, 63, 100
3, 83280, Note_on_c, 1, 63, 90
3, 83324, Note_off_c, 1, 64, 100
3, 83328, Note_on_c, 1, 64, 91
3, 83372, Note_off_c, 1, 63, 100
3, 83376, Note_on_c, 1, 66, 93
3, 83420, Note_off_c, 1, 64, 100
3, 83424, Note_on_c, 1, 67, 94
3, 83468, Note_off_c, 1, 66, 100
3, 83472, Note_on_c, 1, 66, 95
3, 83516, Note_off_c, 1, 67, 100
3, 83520, Note_on_c, 1, 67, 97
3, 83564, Note_off_c, 1, 66, 100
3, 83568, Note_on_c, 1, 65, 98
3, 83612, Note_off_c, 1, 67, 100
3, 83616, Note_on_c, 1, 64, 99
3, 83660, Note_off_c, 1, 65, 100
3, 83664, Note_on_c, 1, 62, 100
3, 83708, Note_off_c, 1, 64, 100
3, 83712, Note_on_c, 1, 67, 100
3, 83712, Note_on_c, 1, 57, 100
3, 83756, Note_off_c, 1, 62, 100
3, 83804, Note_off_c, 1, 57, 100
3, 83808, Note_on_c, 1, 57, 100
3, 83900, Note_off_c, 1, 67, 100
3, 83900, Note_off_c, 1, 57, 100
3, 83904, Note_on_c, 1, 67, 100
3, 83904, Note_on_c, 1, 57, 100
3, 83996, Note_off_c, 1, 57, 100
3, 84000, Note_on_c, 1, 57, 100
3, 84092, Note_off_c, 1, 57, 100
3, 84096, Note_on_c, 1, 57, 98
3, 84188, Note_off_c, 1, 57, 100
3, 84192, Note_on_c, 1, 57, 92
3, 84284, Note_off_c, 1, 67, 100
3, 84284, Note_off_c, 1, 57, 100
3, 84288, Note_on_c, 1, 68, 86
3, 84288, Note_on_c, 1, 57, 86
3, 84380, Note_off_c, 1, 57, 100
3, 84384, Note_on_c, 1, 57, 81
3, 84476, Note_off_c, 1, 68, 100
3, 84476, Note_off_c, 1, 57, 100
3, 84480, Note_on_c, 1, 57, 80
3, 84480, Note_on_c, 1, 64, 80
3, 84572, Note_off_c, 1, 57, 100
3, 84576, Note_on_c, 1, 57, 80
3, 84668, Note_off_c, 1, 64, 100
3, 84668, Note_off_c, 1, 57, 100
3, 84672, Note_on_c, 1, 67, 80
3, 84672, Note_on_c, 1, 57, 80
3, 84764, Note_off_c, 1, 57, 100
3, 84768, Note_on_c, 1, 57, 80
3, 84860, Note_off_c, 1, 57, 100
3, 84864, Note_on_c, 1, 57, 80
3, 84956, Note_off_c, 1, 57, 100
3, 84960, Note_on_c, 1, 57, 80
3, 85052, Note_off_c, 1, 67, 100
3, 85052, Note_off_c, 1, 57, 100
3, 85056, Note_on_c, 1, 68, 80
3, 85056, Note_on_c, 1, 57, 80
3, 85148, Note_off_c, 1, 57, 100
3, 85152, Note_on_c, 1, 57, 80
3, 85244, Note_off_c, 1, 68, 100
3, 85244, Note_off_c, 1, 57, 100
3, 85248, Note_on_c, 1, 64, 80
3, 85248, Note_on_c, 1, 57, 80
3, 85340, Note_off_c, 1, 64, 100
3, 85340, Note_off_c, 1, 57, 100
3, 85344, Note_on_c, 1, 57, 80
3, 85436, Note_off_c, 1, 57, 100
3, 85440, Note_on_c, 1, 68, 80
3, 85440, Note_on_c, 1, 57, 80
3, 85532, Note_off_c, 1, 57, 100
3, 85536, Note_on_c, 1, 57, 80
3, 85628, Note_off_c, 1, 68, 100
3, 85628, Note_off_c, 1, 57, 100
3, 85632, Note_on_c, 1, 64, 80
3, 85632, Note_on_c, 1, 57, 80
3, 85724, Note_off_c, 1, 64, 100
3, 85724, Note_off_c, 1, 57, 100
3, 85728, Note_on_c, 1, 57, 80
3, 85820, Note_off_c, 1, 57, 100
3, 85824, Note_on_c, 1, 68, 80
3, 85824, Note_on_c, 1, 57, 80
3, 85916, Note_off_c, 1, 57, 100
3, 85920, Note_on_c, 1, 57, 80
3, 86012, Note_off_c, 1, 68, 100
3, 86012, Note_off_c, 1, 57, 100
3, 86016, Note_on_c, 1, 64, 80
3, 86016, Note_on_c, 1, 57, 80
3, 86204, Note_off_c, 1, 64, 100
3, 86204, Note_off_c, 1, 57, 100
3, 87552, Note_on_c, 1, 38, 100
3, 87644, Note_off_c, 1, 38, 100
3, 87648, Note_on_c, 1, 50, 100
3, 87740, Note_off_c, 1, 50, 100
3, 87744, Note_on_c, 1, 45, 100
3, 87836, Note_off_c, 1, 45, 100
3, 87840, Note_on_c, 1, 50, 100
3, 87932, Note_off_c, 1, 50, 100
3, 87936, Note_on_c, 1, 37, 100
3, 88028, Note_off_c, 1, 37, 100
3, 88032, Note_on_c, 1, 49, 100
3, 88124, Note_off_c, 1, 49, 100
3, 88128, Note_on_c, 1, 45, 100
3, 88220, Note_off_c, 1, 45, 100
3, 88224, Note_on_c, 1, 49, 100
3, 88316, Note_off_c, 1, 49, 100
3, 88320, Note_on_c, 1, 38, 100
3, 88412, Note_off_c, 1, 38, 100
3, 88416, Note_on_c, 1, 50, 100
3, 88508, Note_off_c, 1, 50, 100
3, 88512, Note_on_c, 1, 45, 100
3, 88604, Note_off_c, 1, 45, 100
3, 88608, Note_on_c, 1, 50, 100
3, 88700, Note_off_c, 1, 50, 100
3, 88704, Note_on_c, 1, 38, 100
3, 88796, Note_off_c, 1, 38, 100
3, 88800, Note_on_c, 1, 50, 100
3, 88892, Note_off_c, 1, 50, 100
3, 88896, Note_on_c, 1, 35, 100
3, 88988, Note_off_c, 1, 35, 100
3, 88992, Note_on_c, 1, 47, 100
3, 89084, Note_off_c, 1, 47, 100
3, 89088, Note_on_c, 1, 36, 100
3, 89180, Note_off_c, 1, 36, 100
3, 89184, Note_on_c, 1, 48, 100
3, 89276, Note_off_c, 1, 48, 100
3, 89280, Note_on_c, 1, 43, 100
3, 89372, Note_off_c, 1, 43, 100
3, 89376, Note_on_c, 1, 48, 100
3, 89468, Note_off_c, 1, 48, 100
3, 89472, Note_on_c, 1, 36, 100
3, 89564, Note_off_c, 1, 36, 100
3, 89568, Note_on_c, 1, 48, 100
3, 89660, Note_off_c, 1, 48, 100
3, 89664, Note_on_c, 1, 37, 100
3, 89756, Note_off_c, 1, 37, 100
3, 89760, Note_on_c, 1, 49, 100
3, 89852, Note_off_c, 1, 49, 100
3, 89856, Note_on_c, 1, 38, 100
3, 89948, Note_off_c, 1, 38, 100
3, 89952, Note_on_c, 1, 50, 100
3, 90044, Note_off_c, 1, 50, 100
3, 90048, Note_on_c, 1, 45, 100
3, 90140, Note_off_c, 1, 45, 100
3, 90144, Note_on_c, 1, 50, 100
3, 90236, Note_off_c, 1, 50, 100
3, 90240, Note_on_c, 1, 38, 101
3, 90332, Note_off_c, 1, 38, 100
3, 90336, Note_on_c, 1, 50, 104
3, 90428, Note_off_c, 1, 50, 100
3, 90432, Note_on_c, 1, 41, 107
3, 90524, Note_off_c, 1, 41, 100
3, 90528, Note_on_c, 1, 53, 109
3, 90620, Note_off_c, 1, 53, 100
3, 90624, Note_on_c, 1, 43, 110
3, 90716, Note_off_c, 1, 43, 100
3, 90720, Note_on_c, 1, 55, 110
3, 90812, Note_off_c, 1, 55, 100
3, 90816, Note_on_c, 1, 46, 110
3, 90908, Note_off_c, 1, 46, 100
3, 90912, Note_on_c, 1, 58, 110
3, 91004, Note_off_c, 1, 58, 100
3, 91008, Note_on_c, 1, 45, 110
3, 91100, Note_off_c, 1, 45, 100
3, 91104, Note_on_c, 1, 53, 110
3, 91104, Note_on_c, 1, 57, 110
3, 91196, Note_off_c, 1, 53, 100
3, 91196, Note_off_c, 1, 57, 100
3, 91200, Note_on_c, 1, 45, 110
3, 91292, Note_off_c, 1, 45, 100
3, 91296, Note_on_c, 1, 52, 110
3, 91296, Note_on_c, 1, 55, 110
3, 91388, Note_off_c, 1, 52, 100
3, 91388, Note_off_c, 1, 55, 100
3, 91392, Note_on_c, 1, 50, 110
3, 91484, Note_off_c, 1, 50, 100
3, 91488, Note_on_c, 1, 55, 110
3, 91488, Note_on_c, 1, 64, 110
3, 91580, Note_off_c, 1, 55, 100
3, 91580, Note_off_c, 1, 64, 100
3, 91584, Note_on_c, 1, 50, 110
3, 91676, Note_off_c, 1, 50, 100
3, 91680, Note_on_c, 1, 55, 110
3, 91680, Note_on_c, 1, 64, 110
3, 91772, Note_off_c, 1, 55, 100
3, 91772, Note_off_c, 1, 64, 100
3, 91776, Note_on_c, 1, 62, 110
3, 91776, Note_on_c, 1, 53, 110
3, 91776, Note_on_c, 1, 50, 110
3, 91824, Note_on_c, 1, 58, 110
3, 91868, Note_off_c, 1, 62, 100
3, 91868, Note_off_c, 1, 53, 100
3, 91868, Note_off_c, 1, 50, 100
3, 91872, Note_on_c, 1, 57, 105
3, 91916, Note_off_c, 1, 58, 100
3, 91920, Note_on_c, 1, 56, 99
3, 91964, Note_off_c, 1, 57, 100
3, 91968, Note_on_c, 1, 57, 93
3, 92012, Note_off_c, 1, 56, 100
3, 92016, Note_on_c, 1, 55, 87
3, 92060, Note_off_c, 1, 57, 100
3, 92064, Note_on_c, 1, 53, 81
3, 92108, Note_off_c, 1, 55, 100
3, 92112, Note_on_c, 1, 52, 80
3, 92156, Note_off_c, 1, 53, 100
3, 92160, Note_on_c, 1, 53, 80
3, 92160, Note_on_c, 1, 50, 80
3, 92204, Note_off_c, 1, 52, 100
3, 92540, Note_off_c, 1, 53, 100
3, 92540, Note_off_c, 1, 50, 100
3, 92544, Note_on_c, 1, 49, 80
3, 92544, Note_on_c, 1, 52, 80
3, 92924, Note_off_c, 1, 49, 100
3, 92924, Note_off_c, 1, 52, 100
3, 92928, Note_on_c, 1, 53, 80
3, 92928, Note_on_c, 1, 50, 80
3, 93500, Note_off_c, 1, 53, 100
3, 93500, Note_off_c, 1, 50, 100
3, 93504, Note_on_c, 1, 50, 80
3, 93504, Note_on_c, 1, 41, 80
3, 93692, Note_off_c, 1, 50, 100
3, 93692, Note_off_c, 1, 41, 100
3, 93696, Note_on_c, 1, 50, 80
3, 93696, Note_on_c, 1, 43, 80
3, 93884, Note_off_c, 1, 50, 100
3, 93884, Note_off_c, 1, 43, 100
3, 93888, Note_on_c, 1, 50, 89
3, 93888, Note_on_c, 1, 45, 89
3, 94076, Note_off_c, 1, 50, 100
3, 94076, Note_off_c, 1, 45, 100
3, 94080, Note_on_c, 1, 50, 99
3, 94080, Note_on_c, 1, 46, 99
3, 94268, Note_off_c, 1, 50, 100
3, 94268, Note_off_c, 1, 46, 100
3, 94272, Note_on_c, 1, 50, 109
3, 94272, Note_on_c, 1, 45, 109
3, 94460, Note_off_c, 1, 50, 100
3, 94460, Note_off_c, 1, 45, 100
3, 94464, Note_on_c, 1, 50, 80
3, 94464, Note_on_c, 1, 43, 80
3, 95228, Note_off_c, 1, 50, 100
3, 95228, Note_off_c, 1, 43, 100
3, 95232, Note_on_c, 1, 50, 80
3, 95232, Note_on_c, 1, 44, 80
3, 95420, Note_off_c, 1, 50, 100
3, 95420, Note_off_c, 1, 44, 100
3, 95424, Note_on_c, 1, 50, 89
3, 95424, Note_on_c, 1, 45, 89
3, 95612, Note_off_c, 1, 50, 100
3, 95612, Note_off_c, 1, 45, 100
3, 95616, Note_on_c, 1, 50, 99
3, 95616, Note_on_c, 1, 47, 99
3, 95804, Note_off_c, 1, 50, 100
3, 95804, Note_off_c, 1, 47, 100
3, 95808, Note_on_c, 1, 50, 109
3, 95808, Note_on_c, 1, 45, 109
3, 95996, Note_off_c, 1, 50, 100
3, 95996, Note_off_c, 1, 45, 100
3, 96000, Note_on_c, 1, 50, 80
3, 96000, Note_on_c, 1, 44, 80
3, 96764, Note_off_c, 1, 50, 100
3, 96764, Note_off_c, 1, 44, 100
3, 96768, Note_on_c, 1, 45, 80
3, 96768, Note_on_c, 1, 33, 80
3, 96908, Note_off_c, 1, 45, 100
3, 96908, Note_off_c, 1, 33, 100
3, 96912, Note_on_c, 1, 45, 80
3, 96912, Note_on_c, 1, 33, 80
3, 96956, Note_off_c, 1, 45, 100
3, 96956, Note_off_c, 1, 33, 100
3, 96960, Note_on_c, 1, 45, 80
3, 96960, Note_on_c, 1, 33, 80
3, 97148, Note_off_c, 1, 45, 100
3, 97148, Note_off_c, 1, 33, 100
3, 97536, Note_on_c, 1, 53, 80
3, 97536, Note_on_c, 1, 50, 80
3, 97536, Note_on_c, 1, 45, 80
3, 97676, Note_off_c, 1, 53, 100
3, 97676, Note_off_c, 1, 50, 100
3, 97676, Note_off_c, 1, 45, 100
3, 97680, Note_on_c, 1, 53, 86
3, 97680, Note_on_c, 1, 50, 86
3, 97680, Note_on_c, 1, 45, 86
3, 97724, Note_off_c, 1, 53, 100
3, 97724, Note_off_c, 1, 50, 100
3, 97724, Note_off_c, 1, 45, 100
3, 97728, Note_on_c, 1, 53, 88
3, 97728, Note_on_c, 1, 50, 88
3, 97728, Note_on_c, 1, 45, 88
3, 97916, Note_off_c, 1, 53, 100
3, 97916, Note_off_c, 1, 50, 100
3, 97916, Note_off_c, 1, 45, 100
3, 98304, Note_on_c, 1, 55, 110
3, 98304, Note_on_c, 1, 52, 110
3, 98304, Note_on_c, 1, 49, 110
3, 98304, Note_on_c, 1, 45, 110
3, 98444, Note_off_c, 1, 55, 100
3, 98444, Note_off_c, 1, 52, 100
3, 98444, Note_off_c, 1, 49, 100
3, 98444, Note_off_c, 1, 45, 100
3, 98448, Note_on_c, 1, 55, 110
3, 98448, Note_on_c, 1, 52, 110
3, 98448, Note_on_c, 1, 49, 110
3, 98448, Note_on_c, 1, 45, 110
3, 98492, Note_off_c, 1, 55, 100
3, 98492, Note_off_c, 1, 52, 100
3, 98492, Note_off_c, 1, 49, 100
3, 98492, Note_off_c, 1, 45, 100
3, 98496, Note_on_c, 1, 55, 110
3, 98496, Note_on_c, 1, 52, 110
3, 98496, Note_on_c, 1, 49, 110
3, 98496, Note_on_c, 1, 45, 110
3, 98684, Note_off_c, 1, 55, 100
3, 98684, Note_off_c, 1, 52, 100
3, 98684, Note_off_c, 1, 49, 100
3, 98684, Note_off_c, 1, 45, 100
3, 100224, Note_on_c, 1, 58, 91
3, 100316, Note_off_c, 1, 58, 100
3, 100320, Note_on_c, 1, 55, 94
3, 100412, Note_off_c, 1, 55, 100
3, 100416, Note_on_c, 1, 52, 97
3, 100508, Note_off_c, 1, 52, 100
3, 100512, Note_on_c, 1, 49, 99
3, 100604, Note_off_c, 1, 49, 100
3, 100608, Note_on_c, 1, 46, 101
3, 100800, Note_on_c, 1, 43, 101
3, 101228, Note_off_c, 1, 43, 100
3, 101232, Note_on_c, 1, 41, 80
3, 101276, Note_off_c, 1, 41, 100
3, 101280, Note_on_c, 1, 39, 80
3, 101324, Note_off_c, 1, 39, 100
3, 101328, Note_on_c, 1, 38, 80
3, 101372, Note_off_c, 1, 46, 100
3, 101372, Note_off_c, 1, 38, 100
3, 101376, Note_on_c, 1, 37, 80
3, 101376, Note_on_c, 1, 45, 80
3, 101756, Note_off_c, 1, 45, 100
3, 101760, Note_on_c, 1, 55, 80
3, 102140, Note_off_c, 1, 37, 100
3, 102140, Note_off_c, 1, 55, 100
3, 102144, Note_on_c, 1, 38, 80
3, 102336, Note_on_c, 1, 53, 80
3, 102428, Note_off_c, 1, 53, 100
3, 102432, Note_on_c, 1, 62, 80
3, 102524, Note_off_c, 1, 38, 100
3, 102524, Note_off_c, 1, 62, 100
3, 102528, Note_on_c, 1, 31, 80
3, 102908, Note_off_c, 1, 31, 100
3, 102912, Note_on_c, 1, 33, 77
3, 103296, Note_on_c, 1, 45, 70
3, 103676, Note_off_c, 1, 33, 100
3, 103676, Note_off_c, 1, 45, 100
3, 103680, Note_on_c, 1, 45, 85
3, 103680, Note_on_c, 1, 38, 85
3, 104444, Note_off_c, 1, 45, 100
3, 104444, Note_off_c, 1, 38, 100
3, 104448, Note_on_c, 1, 45, 70
3, 104448, Note_on_c, 1, 38, 70
3, 105212, Note_off_c, 1, 45, 100
3, 105212, Note_off_c, 1, 38, 100
3, 105212, End_track
0, 0, End_of_file
