0, 0, Header, 1, 3, 384
1, 0, Start_track
1, 0, Title_t, "L.v.Beethoven 1mov - Piano Sonata No.15 in D Major Op.28\000"
1, 0, Copyright_t, "Copyright(C) 1995-2009, Suzuki Software\000"
1, 0, Sequencer_specific, 9, 67, 123, 0, 88, 70, 48, 50, 0, 1
1, 0, Text_t, "XFhd:2000/06/18:JP:Classical::::L.v.Beethoven:::Kaoru Suzuki\000"
1, 0, Text_t, "XFln:JP:\203s\203A\203m\203\\\203i\203^\221æ15\224Ô\203j\222·\222²\215ì\225i28\201`\221æ1\212y\217Í:L.v.\203x\201[\203g\201[\203\224\203F\203\223:::\227é\202¿\202á\202ñ:\227é\202¿\202á\202ñ\000"
1, 0, Time_signature, 3, 2, 96, 8
1, 0, Sequencer_specific, 3, 0, 0, 65
1, 0, Sequencer_specific, 5, 0, 0, 119, 14, 0
1, 0, Tempo, 300000
1, 41472, Tempo, 315789
1, 42624, Tempo, 333333
1, 43392, Tempo, 352941
1, 44928, Tempo, 315789
1, 47232, Tempo, 333333
1, 48384, Tempo, 375000
1, 49536, Tempo, 315789
1, 51840, Tempo, 333333
1, 52992, Tempo, 375000
1, 54144, Tempo, 300000
1, 58752, Tempo, 297029
1, 61056, Tempo, 292682
1, 65664, Tempo, 288461
1, 85248, Tempo, 297029
1, 86400, Tempo, 306122
1, 87552, Tempo, 288461
1, 162432, Tempo, 300000
1, 164736, Tempo, 288461
1, 228096, Tempo, 300000
1, 229248, Tempo, 324324
1, 231552, Tempo, 307692
1, 233856, Tempo, 315789
1, 235008, Tempo, 333333
1, 236160, Tempo, 307692
1, 238464, Tempo, 315789
1, 239616, Tempo, 333333
1, 240768, Tempo, 297029
1, 243072, Tempo, 292682
1, 247680, Tempo, 289855
1, 252288, Tempo, 285714
1, 271872, Tempo, 292682
1, 273024, Tempo, 307692
1, 274176, Tempo, 289855
1, 338688, Tempo, 297029
1, 339840, Tempo, 309278
1, 342144, Tempo, 291262
1, 349056, Tempo, 300000
1, 350208, Tempo, 310880
1, 351360, Tempo, 291262
1, 426240, Tempo, 288461
1, 428544, Tempo, 285714
1, 434304, Tempo, 280373
1, 481536, Tempo, 297029
1, 485760, Tempo, 333333
1, 486144, Tempo, 416666
1, 488064, Tempo, 333333
1, 491520, Tempo, 375000
1, 491904, Tempo, 500000
1, 493440, Tempo, 500000
1, 494208, Tempo, 750000
1, 496512, Tempo, 291262
1, 546048, Tempo, 300000
1, 548352, Tempo, 315789
1, 550656, Tempo, 300000
1, 552960, Tempo, 315789
1, 555264, Tempo, 297029
1, 643968, Tempo, 303030
1, 645120, Tempo, 306122
1, 645504, Tempo, 309278
1, 645888, Tempo, 315789
1, 647424, Tempo, 294117
1, 657792, Tempo, 297029
1, 658944, Tempo, 306122
1, 661248, Tempo, 294117
1, 702720, Tempo, 300000
1, 705024, Tempo, 315789
1, 707328, Tempo, 333333
1, 709632, Tempo, 352941
1, 713856, Tempo, 400000
1, 715392, Tempo, 500000
1, 715392, End_track
2, 0, Start_track
2, 0, Title_t, "Right"
2, 0, Control_c, 0, 0, 0
2, 0, Program_c, 0, 0
2, 0, Control_c, 0, 7, 100
2, 0, Control_c, 0, 10, 77
2, 0, Control_c, 0, 91, 127
2, 0, Key_signature, 2, "major"
2, 1152, Note_on_c, 0, 69, 80
2, 1152, Note_on_c, 0, 66, 80
2, 1152, Note_on_c, 0, 60, 80
2, 2300, Note_off_c, 0, 69, 100
2, 2300, Note_off_c, 0, 66, 100
2, 2300, Note_off_c, 0, 60, 100
2, 2304, Note_on_c, 0, 69, 80
2, 2304, Note_on_c, 0, 62, 80
2, 2304, Note_on_c, 0, 59, 80
2, 2684, Note_off_c, 0, 69, 100
2, 2688, Note_on_c, 0, 67, 80
2, 4220, Note_off_c, 0, 59, 100
2, 4220, Note_off_c, 0, 62, 100
2, 4220, Note_off_c, 0, 67, 100
2, 4224, Note_on_c, 0, 66, 80
2, 4224, Note_on_c, 0, 59, 80
2, 4224, Note_on_c, 0, 55, 80
2, 4412, Note_off_c, 0, 66, 100
2, 4416, Note_on_c, 0, 64, 80
2, 4604, Note_off_c, 0, 59, 100
2, 4604, Note_off_c, 0, 55, 100
2, 4604, Note_off_c, 0, 64, 100
2, 4608, Note_on_c, 0, 62, 80
2, 4608, Note_on_c, 0, 55, 80
2, 5372, Note_off_c, 0, 62, 100
2, 5376, Note_on_c, 0, 61, 80
2, 5756, Note_off_c, 0, 55, 100
2, 5756, Note_off_c, 0, 61, 100
2, 5760, Note_on_c, 0, 55, 80
2, 5760, Note_on_c, 0, 59, 80
2, 6524, Note_off_c, 0, 59, 100
2, 6528, Note_on_c, 0, 57, 80
2, 6908, Note_off_c, 0, 55, 100
2, 6908, Note_off_c, 0, 57, 100
2, 6912, Note_on_c, 0, 57, 80
2, 6912, Note_on_c, 0, 54, 80
2, 8060, Note_off_c, 0, 57, 100
2, 8060, Note_off_c, 0, 54, 100
2, 8064, Note_on_c, 0, 62, 80
2, 8064, Note_on_c, 0, 57, 80
2, 9212, Note_off_c, 0, 62, 100
2, 9212, Note_off_c, 0, 57, 100
2, 9216, Note_on_c, 0, 64, 80
2, 9216, Note_on_c, 0, 61, 80
2, 9980, Note_off_c, 0, 64, 100
2, 9980, Note_off_c, 0, 61, 100
2, 9984, Note_on_c, 0, 66, 80
2, 9984, Note_on_c, 0, 62, 80
2, 10172, Note_off_c, 0, 66, 100
2, 10172, Note_off_c, 0, 62, 100
2, 10176, Note_on_c, 0, 67, 80
2, 10176, Note_on_c, 0, 64, 80
2, 10364, Note_off_c, 0, 67, 100
2, 10364, Note_off_c, 0, 64, 100
2, 10368, Note_on_c, 0, 66, 80
2, 10368, Note_on_c, 0, 62, 80
2, 10748, Note_off_c, 0, 66, 100
2, 10748, Note_off_c, 0, 62, 100
2, 12672, Note_on_c, 0, 72, 80
2, 12672, Note_on_c, 0, 81, 80
2, 13820, Note_off_c, 0, 72, 100
2, 13820, Note_off_c, 0, 81, 100
2, 13824, Note_on_c, 0, 71, 80
2, 13824, Note_on_c, 0, 81, 80
2, 14204, Note_off_c, 0, 81, 100
2, 14208, Note_on_c, 0, 79, 80
2, 14972, Note_off_c, 0, 71, 100
2, 14976, Note_on_c, 0, 67, 80
2, 15740, Note_off_c, 0, 79, 100
2, 15744, Note_on_c, 0, 78, 80
2, 15932, Note_off_c, 0, 78, 100
2, 15936, Note_on_c, 0, 76, 80
2, 16124, Note_off_c, 0, 67, 100
2, 16124, Note_off_c, 0, 76, 100
2, 16128, Note_on_c, 0, 67, 80
2, 16128, Note_on_c, 0, 74, 80
2, 16892, Note_off_c, 0, 74, 100
2, 16896, Note_on_c, 0, 73, 80
2, 17276, Note_off_c, 0, 67, 100
2, 17276, Note_off_c, 0, 73, 100
2, 17280, Note_on_c, 0, 71, 80
2, 17280, Note_on_c, 0, 67, 80
2, 18044, Note_off_c, 0, 71, 100
2, 18048, Note_on_c, 0, 69, 80
2, 18428, Note_off_c, 0, 67, 100
2, 18428, Note_off_c, 0, 69, 100
2, 18432, Note_on_c, 0, 66, 80
2, 18432, Note_on_c, 0, 69, 80
2, 19580, Note_off_c, 0, 66, 100
2, 19580, Note_off_c, 0, 69, 100
2, 19584, Note_on_c, 0, 74, 80
2, 19584, Note_on_c, 0, 69, 80
2, 20732, Note_off_c, 0, 74, 100
2, 20732, Note_off_c, 0, 69, 100
2, 20736, Note_on_c, 0, 76, 80
2, 20736, Note_on_c, 0, 73, 80
2, 21500, Note_off_c, 0, 76, 100
2, 21500, Note_off_c, 0, 73, 100
2, 21504, Note_on_c, 0, 78, 80
2, 21504, Note_on_c, 0, 74, 80
2, 21692, Note_off_c, 0, 78, 100
2, 21692, Note_off_c, 0, 74, 100
2, 21696, Note_on_c, 0, 79, 80
2, 21696, Note_on_c, 0, 76, 80
2, 21884, Note_off_c, 0, 79, 100
2, 21884, Note_off_c, 0, 76, 100
2, 21888, Note_on_c, 0, 78, 80
2, 21888, Note_on_c, 0, 74, 80
2, 22268, Note_off_c, 0, 78, 100
2, 22268, Note_off_c, 0, 74, 100
2, 23040, Note_on_c, 0, 62, 80
2, 23040, Note_on_c, 0, 57, 80
2, 24572, Note_off_c, 0, 57, 100
2, 24572, Note_off_c, 0, 62, 100
2, 24576, Note_on_c, 0, 64, 80
2, 24576, Note_on_c, 0, 59, 80
2, 24956, Note_off_c, 0, 64, 100
2, 24956, Note_off_c, 0, 59, 100
2, 24960, Note_on_c, 0, 66, 80
2, 24960, Note_on_c, 0, 60, 80
2, 25340, Note_off_c, 0, 66, 100
2, 25340, Note_off_c, 0, 60, 100
2, 25344, Note_on_c, 0, 69, 80
2, 25344, Note_on_c, 0, 62, 80
2, 25724, Note_off_c, 0, 69, 100
2, 25728, Note_on_c, 0, 67, 80
2, 27260, Note_off_c, 0, 62, 100
2, 27260, Note_off_c, 0, 67, 100
2, 27264, Note_on_c, 0, 60, 80
2, 27264, Note_on_c, 0, 66, 80
2, 27644, Note_off_c, 0, 60, 100
2, 27648, Note_on_c, 0, 59, 80
2, 28028, Note_off_c, 0, 66, 100
2, 28032, Note_on_c, 0, 64, 80
2, 28412, Note_off_c, 0, 64, 100
2, 28416, Note_on_c, 0, 62, 100
2, 28796, Note_off_c, 0, 59, 100
2, 29180, Note_off_c, 0, 62, 100
2, 29184, Note_on_c, 0, 61, 80
2, 29564, Note_off_c, 0, 61, 100
2, 29568, Note_on_c, 0, 57, 100
2, 30140, Note_off_c, 0, 57, 100
2, 30144, Note_on_c, 0, 62, 80
2, 30332, Note_off_c, 0, 62, 100
2, 30336, Note_on_c, 0, 66, 80
2, 30524, Note_off_c, 0, 66, 100
2, 30528, Note_on_c, 0, 69, 80
2, 30716, Note_off_c, 0, 69, 100
2, 30720, Note_on_c, 0, 74, 80
2, 30908, Note_off_c, 0, 74, 100
2, 30912, Note_on_c, 0, 78, 80
2, 31100, Note_off_c, 0, 78, 100
2, 31104, Note_on_c, 0, 81, 80
2, 31292, Note_off_c, 0, 81, 100
2, 31296, Note_on_c, 0, 78, 80
2, 31484, Note_off_c, 0, 78, 100
2, 31488, Note_on_c, 0, 74, 80
2, 31616, Note_on_c, 0, 69, 80
2, 31664, Note_off_c, 0, 74, 100
2, 31744, Note_on_c, 0, 66, 80
2, 31804, Note_off_c, 0, 69, 100
2, 31872, Note_on_c, 0, 69, 80
2, 31932, Note_off_c, 0, 66, 100
2, 32000, Note_on_c, 0, 67, 80
2, 32052, Note_off_c, 0, 69, 100
2, 32128, Note_on_c, 0, 64, 80
2, 32168, Note_off_c, 0, 67, 100
2, 32252, Note_off_c, 0, 64, 100
2, 32256, Note_on_c, 0, 74, 80
2, 32256, Note_on_c, 0, 62, 80
2, 33788, Note_off_c, 0, 62, 100
2, 33788, Note_off_c, 0, 74, 100
2, 33792, Note_on_c, 0, 76, 80
2, 33792, Note_on_c, 0, 64, 80
2, 34172, Note_off_c, 0, 76, 100
2, 34172, Note_off_c, 0, 64, 100
2, 34176, Note_on_c, 0, 78, 80
2, 34176, Note_on_c, 0, 66, 80
2, 34556, Note_off_c, 0, 78, 100
2, 34556, Note_off_c, 0, 66, 100
2, 34560, Note_on_c, 0, 81, 80
2, 34560, Note_on_c, 0, 69, 80
2, 34940, Note_off_c, 0, 81, 100
2, 34940, Note_off_c, 0, 69, 100
2, 34944, Note_on_c, 0, 79, 80
2, 34944, Note_on_c, 0, 67, 80
2, 36476, Note_off_c, 0, 67, 100
2, 36476, Note_off_c, 0, 79, 100
2, 36480, Note_on_c, 0, 78, 80
2, 36480, Note_on_c, 0, 66, 80
2, 37244, Note_off_c, 0, 66, 100
2, 37244, Note_off_c, 0, 78, 100
2, 37248, Note_on_c, 0, 76, 80
2, 37248, Note_on_c, 0, 64, 80
2, 37628, Note_off_c, 0, 76, 100
2, 37628, Note_off_c, 0, 64, 100
2, 37632, Note_on_c, 0, 74, 100
2, 37632, Note_on_c, 0, 62, 100
2, 38396, Note_off_c, 0, 62, 100
2, 38396, Note_off_c, 0, 74, 100
2, 38400, Note_on_c, 0, 73, 80
2, 38400, Note_on_c, 0, 61, 80
2, 38780, Note_off_c, 0, 73, 100
2, 38780, Note_off_c, 0, 61, 100
2, 38784, Note_on_c, 0, 69, 100
2, 38784, Note_on_c, 0, 57, 100
2, 39356, Note_off_c, 0, 57, 100
2, 39356, Note_off_c, 0, 69, 100
2, 39360, Note_on_c, 0, 62, 80
2, 39548, Note_off_c, 0, 62, 100
2, 39552, Note_on_c, 0, 66, 80
2, 39740, Note_off_c, 0, 66, 100
2, 39744, Note_on_c, 0, 69, 80
2, 39932, Note_off_c, 0, 69, 100
2, 39936, Note_on_c, 0, 74, 80
2, 40124, Note_off_c, 0, 74, 100
2, 40128, Note_on_c, 0, 78, 80
2, 40316, Note_off_c, 0, 78, 100
2, 40320, Note_on_c, 0, 81, 80
2, 40320, Note_on_c, 0, 69, 80
2, 40700, Note_off_c, 0, 81, 100
2, 40700, Note_off_c, 0, 69, 100
2, 40704, Note_on_c, 0, 79, 82
2, 40704, Note_on_c, 0, 67, 82
2, 41084, Note_off_c, 0, 79, 100
2, 41084, Note_off_c, 0, 67, 100
2, 41088, Note_on_c, 0, 78, 84
2, 41088, Note_on_c, 0, 66, 84
2, 41852, Note_off_c, 0, 66, 100
2, 41852, Note_off_c, 0, 78, 100
2, 41856, Note_on_c, 0, 76, 88
2, 41856, Note_on_c, 0, 64, 88
2, 42236, Note_off_c, 0, 76, 100
2, 42236, Note_off_c, 0, 64, 100
2, 42240, Note_on_c, 0, 74, 91
2, 42240, Note_on_c, 0, 62, 91
2, 43004, Note_off_c, 0, 62, 100
2, 43004, Note_off_c, 0, 74, 100
2, 43008, Note_on_c, 0, 73, 95
2, 43008, Note_on_c, 0, 61, 95
2, 43388, Note_off_c, 0, 73, 100
2, 43388, Note_off_c, 0, 61, 100
2, 43392, Note_on_c, 0, 76, 97
2, 43392, Note_on_c, 0, 64, 97
2, 43772, Note_off_c, 0, 76, 100
2, 43772, Note_off_c, 0, 64, 100
2, 43776, Note_on_c, 0, 74, 99
2, 43776, Note_on_c, 0, 62, 99
2, 44156, Note_off_c, 0, 74, 100
2, 44156, Note_off_c, 0, 62, 100
2, 44928, Note_on_c, 0, 71, 100
2, 44928, Note_on_c, 0, 66, 100
2, 46076, Note_off_c, 0, 71, 100
2, 46076, Note_off_c, 0, 66, 100
2, 46080, Note_on_c, 0, 69, 80
2, 46080, Note_on_c, 0, 64, 80
2, 47228, Note_off_c, 0, 64, 100
2, 47232, Note_on_c, 0, 62, 80
2, 47612, Note_off_c, 0, 69, 100
2, 47612, Note_off_c, 0, 62, 100
2, 47616, Note_on_c, 0, 68, 80
2, 47804, Note_off_c, 0, 68, 100
2, 47808, Note_on_c, 0, 71, 80
2, 47996, Note_off_c, 0, 71, 100
2, 48000, Note_on_c, 0, 74, 80
2, 48764, Note_off_c, 0, 74, 100
2, 48768, Note_on_c, 0, 73, 80
2, 49148, Note_off_c, 0, 73, 100
2, 49536, Note_on_c, 0, 78, 100
2, 49536, Note_on_c, 0, 73, 100
2, 50684, Note_off_c, 0, 78, 100
2, 50684, Note_off_c, 0, 73, 100
2, 50688, Note_on_c, 0, 76, 80
2, 50688, Note_on_c, 0, 71, 80
2, 51836, Note_off_c, 0, 71, 100
2, 51840, Note_on_c, 0, 69, 80
2, 52220, Note_off_c, 0, 76, 100
2, 52220, Note_off_c, 0, 69, 100
2, 52224, Note_on_c, 0, 75, 80
2, 52412, Note_off_c, 0, 75, 100
2, 52416, Note_on_c, 0, 78, 80
2, 52604, Note_off_c, 0, 78, 100
2, 52608, Note_on_c, 0, 81, 80
2, 53372, Note_off_c, 0, 81, 100
2, 53376, Note_on_c, 0, 80, 80
2, 53756, Note_off_c, 0, 80, 100
2, 54144, Note_on_c, 0, 66, 100
2, 54336, Note_on_c, 0, 71, 80
2, 54524, Note_off_c, 0, 71, 100
2, 54528, Note_on_c, 0, 70, 80
2, 54716, Note_off_c, 0, 70, 100
2, 54720, Note_on_c, 0, 71, 80
2, 54908, Note_off_c, 0, 71, 100
2, 54912, Note_on_c, 0, 73, 80
2, 55100, Note_off_c, 0, 73, 100
2, 55104, Note_on_c, 0, 71, 80
2, 55292, Note_off_c, 0, 71, 100
2, 55296, Note_on_c, 0, 69, 80
2, 55484, Note_off_c, 0, 66, 100
2, 55488, Note_on_c, 0, 64, 80
2, 55676, Note_off_c, 0, 64, 100
2, 55680, Note_on_c, 0, 63, 80
2, 55868, Note_off_c, 0, 63, 100
2, 55872, Note_on_c, 0, 64, 80
2, 56060, Note_off_c, 0, 64, 100
2, 56064, Note_on_c, 0, 66, 80
2, 56252, Note_off_c, 0, 66, 100
2, 56256, Note_on_c, 0, 64, 80
2, 56444, Note_off_c, 0, 69, 100
2, 56444, Note_off_c, 0, 64, 100
2, 56448, Note_on_c, 0, 62, 80
2, 56448, Note_on_c, 0, 68, 80
2, 56636, Note_off_c, 0, 68, 100
2, 56640, Note_on_c, 0, 69, 80
2, 56828, Note_off_c, 0, 62, 100
2, 56828, Note_off_c, 0, 69, 100
2, 56832, Note_on_c, 0, 71, 80
2, 57020, Note_off_c, 0, 71, 100
2, 57024, Note_on_c, 0, 73, 80
2, 57212, Note_off_c, 0, 73, 100
2, 57216, Note_on_c, 0, 74, 80
2, 57404, Note_off_c, 0, 74, 100
2, 57408, Note_on_c, 0, 76, 80
2, 57596, Note_off_c, 0, 76, 100
2, 57600, Note_on_c, 0, 74, 80
2, 57788, Note_off_c, 0, 74, 100
2, 57792, Note_on_c, 0, 73, 80
2, 57980, Note_off_c, 0, 73, 100
2, 57984, Note_on_c, 0, 71, 80
2, 58172, Note_off_c, 0, 71, 100
2, 58176, Note_on_c, 0, 69, 80
2, 58364, Note_off_c, 0, 69, 100
2, 58368, Note_on_c, 0, 68, 80
2, 58556, Note_off_c, 0, 68, 100
2, 58560, Note_on_c, 0, 69, 80
2, 58748, Note_off_c, 0, 69, 100
2, 58752, Note_on_c, 0, 73, 100
2, 58944, Note_on_c, 0, 78, 80
2, 59132, Note_off_c, 0, 78, 100
2, 59136, Note_on_c, 0, 77, 80
2, 59324, Note_off_c, 0, 77, 100
2, 59328, Note_on_c, 0, 78, 80
2, 59516, Note_off_c, 0, 78, 100
2, 59520, Note_on_c, 0, 80, 80
2, 59708, Note_off_c, 0, 80, 100
2, 59712, Note_on_c, 0, 78, 80
2, 59900, Note_off_c, 0, 78, 100
2, 59904, Note_on_c, 0, 76, 80
2, 60092, Note_off_c, 0, 73, 100
2, 60096, Note_on_c, 0, 71, 80
2, 60284, Note_off_c, 0, 71, 100
2, 60288, Note_on_c, 0, 70, 80
2, 60476, Note_off_c, 0, 70, 100
2, 60480, Note_on_c, 0, 71, 80
2, 60668, Note_off_c, 0, 71, 100
2, 60672, Note_on_c, 0, 73, 80
2, 60860, Note_off_c, 0, 73, 100
2, 60864, Note_on_c, 0, 71, 80
2, 61052, Note_off_c, 0, 76, 100
2, 61052, Note_off_c, 0, 71, 100
2, 61056, Note_on_c, 0, 69, 100
2, 61056, Note_on_c, 0, 75, 100
2, 61244, Note_off_c, 0, 75, 100
2, 61248, Note_on_c, 0, 76, 80
2, 61436, Note_off_c, 0, 69, 100
2, 61436, Note_off_c, 0, 76, 100
2, 61440, Note_on_c, 0, 78, 80
2, 61628, Note_off_c, 0, 78, 100
2, 61632, Note_on_c, 0, 80, 80
2, 61820, Note_off_c, 0, 80, 100
2, 61824, Note_on_c, 0, 81, 80
2, 62012, Note_off_c, 0, 81, 100
2, 62016, Note_on_c, 0, 83, 80
2, 62204, Note_off_c, 0, 83, 100
2, 62208, Note_on_c, 0, 81, 80
2, 62396, Note_off_c, 0, 81, 100
2, 62400, Note_on_c, 0, 80, 80
2, 62588, Note_off_c, 0, 80, 100
2, 62592, Note_on_c, 0, 78, 80
2, 62780, Note_off_c, 0, 78, 100
2, 62784, Note_on_c, 0, 76, 80
2, 62972, Note_off_c, 0, 76, 100
2, 62976, Note_on_c, 0, 75, 80
2, 63164, Note_off_c, 0, 75, 100
2, 63168, Note_on_c, 0, 76, 80
2, 63356, Note_off_c, 0, 76, 100
2, 63360, Note_on_c, 0, 75, 100
2, 63548, Note_off_c, 0, 75, 100
2, 63552, Note_on_c, 0, 76, 80
2, 63740, Note_off_c, 0, 76, 100
2, 63744, Note_on_c, 0, 78, 80
2, 63932, Note_off_c, 0, 78, 100
2, 63936, Note_on_c, 0, 80, 80
2, 64124, Note_off_c, 0, 80, 100
2, 64128, Note_on_c, 0, 81, 80
2, 64316, Note_off_c, 0, 81, 100
2, 64320, Note_on_c, 0, 83, 80
2, 64508, Note_off_c, 0, 83, 100
2, 64512, Note_on_c, 0, 81, 80
2, 64700, Note_off_c, 0, 81, 100
2, 64704, Note_on_c, 0, 80, 80
2, 64892, Note_off_c, 0, 80, 100
2, 64896, Note_on_c, 0, 78, 80
2, 65084, Note_off_c, 0, 78, 100
2, 65088, Note_on_c, 0, 76, 80
2, 65276, Note_off_c, 0, 76, 100
2, 65280, Note_on_c, 0, 75, 80
2, 65468, Note_off_c, 0, 75, 100
2, 65472, Note_on_c, 0, 76, 80
2, 65660, Note_off_c, 0, 76, 100
2, 65664, Note_on_c, 0, 75, 100
2, 65852, Note_off_c, 0, 75, 100
2, 65856, Note_on_c, 0, 76, 80
2, 66044, Note_off_c, 0, 76, 100
2, 66048, Note_on_c, 0, 78, 80
2, 66236, Note_off_c, 0, 78, 100
2, 66240, Note_on_c, 0, 80, 80
2, 66428, Note_off_c, 0, 80, 100
2, 66432, Note_on_c, 0, 81, 80
2, 66620, Note_off_c, 0, 81, 100
2, 66624, Note_on_c, 0, 83, 80
2, 66812, Note_off_c, 0, 83, 100
2, 66816, Note_on_c, 0, 81, 80
2, 67004, Note_off_c, 0, 81, 100
2, 67008, Note_on_c, 0, 80, 80
2, 67196, Note_off_c, 0, 80, 100
2, 67200, Note_on_c, 0, 78, 80
2, 67388, Note_off_c, 0, 78, 100
2, 67392, Note_on_c, 0, 76, 80
2, 67580, Note_off_c, 0, 76, 100
2, 67584, Note_on_c, 0, 75, 80
2, 67772, Note_off_c, 0, 75, 100
2, 67776, Note_on_c, 0, 73, 80
2, 67964, Note_off_c, 0, 73, 100
2, 67968, Note_on_c, 0, 71, 80
2, 68156, Note_off_c, 0, 71, 100
2, 68160, Note_on_c, 0, 69, 80
2, 68348, Note_off_c, 0, 69, 100
2, 68352, Note_on_c, 0, 68, 80
2, 68540, Note_off_c, 0, 68, 100
2, 68544, Note_on_c, 0, 66, 80
2, 68732, Note_off_c, 0, 66, 100
2, 68736, Note_on_c, 0, 64, 80
2, 68924, Note_off_c, 0, 64, 100
2, 68928, Note_on_c, 0, 63, 80
2, 69116, Note_off_c, 0, 63, 100
2, 69120, Note_on_c, 0, 64, 80
2, 71420, Note_off_c, 0, 64, 100
2, 71424, Note_on_c, 0, 65, 70
2, 71424, Note_on_c, 0, 59, 70
2, 71424, Note_on_c, 0, 56, 70
2, 72572, Note_off_c, 0, 65, 100
2, 72572, Note_off_c, 0, 59, 100
2, 72572, Note_off_c, 0, 56, 100
2, 72576, Note_on_c, 0, 66, 70
2, 72576, Note_on_c, 0, 61, 70
2, 72576, Note_on_c, 0, 57, 70
2, 73724, Note_off_c, 0, 66, 100
2, 73724, Note_off_c, 0, 61, 100
2, 73724, Note_off_c, 0, 57, 100
2, 73728, Note_on_c, 0, 68, 70
2, 73728, Note_on_c, 0, 65, 70
2, 73728, Note_on_c, 0, 59, 70
2, 74876, Note_off_c, 0, 68, 100
2, 74876, Note_off_c, 0, 65, 100
2, 74876, Note_off_c, 0, 59, 100
2, 74880, Note_on_c, 0, 69, 70
2, 74880, Note_on_c, 0, 66, 70
2, 74880, Note_on_c, 0, 61, 70
2, 76028, Note_off_c, 0, 69, 100
2, 76028, Note_off_c, 0, 66, 100
2, 76028, Note_off_c, 0, 61, 100
2, 76032, Note_on_c, 0, 70, 70
2, 76032, Note_on_c, 0, 67, 70
2, 76032, Note_on_c, 0, 64, 70
2, 76032, Note_on_c, 0, 61, 70
2, 77180, Note_off_c, 0, 70, 100
2, 77180, Note_off_c, 0, 67, 100
2, 77180, Note_off_c, 0, 64, 100
2, 77180, Note_off_c, 0, 61, 100
2, 77184, Note_on_c, 0, 71, 70
2, 77184, Note_on_c, 0, 66, 70
2, 77184, Note_on_c, 0, 62, 70
2, 77564, Note_off_c, 0, 71, 100
2, 77568, Note_on_c, 0, 73, 70
2, 77948, Note_off_c, 0, 73, 100
2, 77952, Note_on_c, 0, 74, 70
2, 78332, Note_off_c, 0, 66, 100
2, 78332, Note_off_c, 0, 62, 100
2, 78332, Note_off_c, 0, 74, 100
2, 78336, Note_on_c, 0, 69, 70
2, 78336, Note_on_c, 0, 64, 70
2, 78336, Note_on_c, 0, 61, 70
2, 79100, Note_off_c, 0, 69, 100
2, 79100, Note_off_c, 0, 64, 100
2, 79100, Note_off_c, 0, 61, 100
2, 79104, Note_on_c, 0, 68, 70
2, 79104, Note_on_c, 0, 62, 70
2, 79104, Note_on_c, 0, 59, 70
2, 79484, Note_off_c, 0, 68, 100
2, 79484, Note_off_c, 0, 62, 100
2, 79484, Note_off_c, 0, 59, 100
2, 79488, Note_on_c, 0, 69, 70
2, 79488, Note_on_c, 0, 61, 70
2, 79676, Note_off_c, 0, 69, 100
2, 79676, Note_off_c, 0, 61, 100
2, 79680, Note_on_c, 0, 73, 70
2, 79868, Note_off_c, 0, 73, 100
2, 79872, Note_on_c, 0, 71, 70
2, 80060, Note_off_c, 0, 71, 100
2, 80064, Note_on_c, 0, 69, 70
2, 80252, Note_off_c, 0, 69, 100
2, 80256, Note_on_c, 0, 68, 70
2, 80444, Note_off_c, 0, 68, 100
2, 80448, Note_on_c, 0, 66, 70
2, 80636, Note_off_c, 0, 66, 100
2, 80640, Note_on_c, 0, 65, 70
2, 81788, Note_off_c, 0, 65, 100
2, 81792, Note_on_c, 0, 66, 75
2, 82940, Note_off_c, 0, 66, 100
2, 82944, Note_on_c, 0, 68, 80
2, 82944, Note_on_c, 0, 65, 80
2, 84092, Note_off_c, 0, 68, 100
2, 84092, Note_off_c, 0, 65, 100
2, 84096, Note_on_c, 0, 69, 85
2, 84096, Note_on_c, 0, 66, 85
2, 85244, Note_off_c, 0, 69, 100
2, 85244, Note_off_c, 0, 66, 100
2, 85248, Note_on_c, 0, 71, 91
2, 85248, Note_on_c, 0, 66, 91
2, 86396, Note_off_c, 0, 71, 100
2, 86396, Note_off_c, 0, 66, 100
2, 86400, Note_on_c, 0, 72, 96
2, 86400, Note_on_c, 0, 66, 96
2, 87548, Note_off_c, 0, 72, 100
2, 87548, Note_off_c, 0, 66, 100
2, 87552, Note_on_c, 0, 73, 80
2, 87552, Note_on_c, 0, 65, 80
2, 87740, Note_off_c, 0, 65, 100
2, 87744, Note_on_c, 0, 68, 80
2, 87932, Note_off_c, 0, 68, 100
2, 87936, Note_on_c, 0, 65, 80
2, 88124, Note_off_c, 0, 65, 100
2, 88128, Note_on_c, 0, 68, 80
2, 88316, Note_off_c, 0, 68, 100
2, 88320, Note_on_c, 0, 65, 80
2, 88508, Note_off_c, 0, 65, 100
2, 88512, Note_on_c, 0, 68, 80
2, 88700, Note_off_c, 0, 68, 100
2, 88704, Note_on_c, 0, 65, 80
2, 88892, Note_off_c, 0, 65, 100
2, 88896, Note_on_c, 0, 68, 80
2, 89084, Note_off_c, 0, 68, 100
2, 89088, Note_on_c, 0, 65, 80
2, 89276, Note_off_c, 0, 65, 100
2, 89280, Note_on_c, 0, 68, 80
2, 89468, Note_off_c, 0, 73, 100
2, 89468, Note_off_c, 0, 68, 100
2, 89472, Note_on_c, 0, 66, 80
2, 89472, Note_on_c, 0, 72, 80
2, 89660, Note_off_c, 0, 66, 100
2, 89664, Note_on_c, 0, 68, 80
2, 89852, Note_off_c, 0, 72, 100
2, 89852, Note_off_c, 0, 68, 100
2, 89856, Note_on_c, 0, 73, 80
2, 89856, Note_on_c, 0, 65, 80
2, 90044, Note_off_c, 0, 65, 100
2, 90048, Note_on_c, 0, 68, 80
2, 90236, Note_off_c, 0, 68, 100
2, 90240, Note_on_c, 0, 65, 80
2, 90428, Note_off_c, 0, 65, 100
2, 90432, Note_on_c, 0, 68, 80
2, 90620, Note_off_c, 0, 73, 100
2, 90620, Note_off_c, 0, 68, 100
2, 90624, Note_on_c, 0, 66, 80
2, 90624, Note_on_c, 0, 72, 80
2, 90812, Note_off_c, 0, 66, 100
2, 90816, Note_on_c, 0, 68, 80
2, 91004, Note_off_c, 0, 72, 100
2, 91004, Note_off_c, 0, 68, 100
2, 91008, Note_on_c, 0, 73, 80
2, 91008, Note_on_c, 0, 65, 80
2, 91196, Note_off_c, 0, 65, 100
2, 91200, Note_on_c, 0, 68, 80
2, 91388, Note_off_c, 0, 68, 100
2, 91392, Note_on_c, 0, 65, 80
2, 91580, Note_off_c, 0, 65, 100
2, 91584, Note_on_c, 0, 68, 80
2, 91772, Note_off_c, 0, 73, 100
2, 91772, Note_off_c, 0, 68, 100
2, 91776, Note_on_c, 0, 66, 80
2, 91776, Note_on_c, 0, 72, 80
2, 91964, Note_off_c, 0, 66, 100
2, 91968, Note_on_c, 0, 68, 80
2, 92156, Note_off_c, 0, 72, 100
2, 92156, Note_off_c, 0, 68, 100
2, 92160, Note_on_c, 0, 73, 80
2, 92160, Note_on_c, 0, 65, 80
2, 92348, Note_off_c, 0, 65, 100
2, 92352, Note_on_c, 0, 68, 80
2, 92540, Note_off_c, 0, 68, 100
2, 92544, Note_on_c, 0, 65, 80
2, 92732, Note_off_c, 0, 65, 100
2, 92736, Note_on_c, 0, 68, 80
2, 92924, Note_off_c, 0, 68, 100
2, 92928, Note_on_c, 0, 65, 80
2, 93116, Note_off_c, 0, 65, 100
2, 93120, Note_on_c, 0, 68, 80
2, 93308, Note_off_c, 0, 68, 100
2, 93312, Note_on_c, 0, 65, 80
2, 93500, Note_off_c, 0, 65, 100
2, 93504, Note_on_c, 0, 68, 80
2, 93692, Note_off_c, 0, 68, 100
2, 93696, Note_on_c, 0, 65, 80
2, 93884, Note_off_c, 0, 65, 100
2, 93888, Note_on_c, 0, 68, 80
2, 94076, Note_off_c, 0, 73, 100
2, 94076, Note_off_c, 0, 68, 100
2, 94080, Note_on_c, 0, 65, 80
2, 94080, Note_on_c, 0, 73, 80
2, 94268, Note_off_c, 0, 65, 100
2, 94272, Note_on_c, 0, 68, 80
2, 94460, Note_off_c, 0, 73, 100
2, 94460, Note_off_c, 0, 68, 100
2, 94464, Note_on_c, 0, 74, 80
2, 94464, Note_on_c, 0, 65, 80
2, 94652, Note_off_c, 0, 65, 100
2, 94656, Note_on_c, 0, 68, 80
2, 94844, Note_off_c, 0, 68, 100
2, 94848, Note_on_c, 0, 65, 80
2, 95036, Note_off_c, 0, 65, 100
2, 95040, Note_on_c, 0, 68, 80
2, 95228, Note_off_c, 0, 74, 100
2, 95228, Note_off_c, 0, 68, 100
2, 95232, Note_on_c, 0, 73, 80
2, 95232, Note_on_c, 0, 65, 80
2, 95420, Note_off_c, 0, 65, 100
2, 95424, Note_on_c, 0, 68, 80
2, 95612, Note_off_c, 0, 73, 100
2, 95612, Note_off_c, 0, 68, 100
2, 95616, Note_on_c, 0, 65, 80
2, 95616, Note_on_c, 0, 74, 80
2, 95804, Note_off_c, 0, 65, 100
2, 95808, Note_on_c, 0, 68, 80
2, 95996, Note_off_c, 0, 68, 100
2, 96000, Note_on_c, 0, 65, 80
2, 96188, Note_off_c, 0, 65, 100
2, 96192, Note_on_c, 0, 68, 80
2, 96380, Note_off_c, 0, 74, 100
2, 96380, Note_off_c, 0, 68, 100
2, 96384, Note_on_c, 0, 65, 80
2, 96384, Note_on_c, 0, 73, 80
2, 96572, Note_off_c, 0, 65, 100
2, 96576, Note_on_c, 0, 68, 80
2, 96764, Note_off_c, 0, 73, 100
2, 96764, Note_off_c, 0, 68, 100
2, 96768, Note_on_c, 0, 74, 80
2, 96768, Note_on_c, 0, 65, 80
2, 96956, Note_off_c, 0, 65, 100
2, 96960, Note_on_c, 0, 68, 80
2, 97148, Note_off_c, 0, 68, 100
2, 97152, Note_on_c, 0, 65, 80
2, 97340, Note_off_c, 0, 65, 100
2, 97344, Note_on_c, 0, 68, 80
2, 97532, Note_off_c, 0, 68, 100
2, 97536, Note_on_c, 0, 65, 80
2, 97724, Note_off_c, 0, 65, 100
2, 97728, Note_on_c, 0, 68, 80
2, 97916, Note_off_c, 0, 68, 100
2, 97920, Note_on_c, 0, 65, 80
2, 98108, Note_off_c, 0, 65, 100
2, 98112, Note_on_c, 0, 68, 80
2, 98300, Note_off_c, 0, 68, 100
2, 98304, Note_on_c, 0, 65, 80
2, 98492, Note_off_c, 0, 65, 100
2, 98496, Note_on_c, 0, 68, 80
2, 98684, Note_off_c, 0, 68, 100
2, 98688, Note_on_c, 0, 65, 80
2, 98876, Note_off_c, 0, 65, 100
2, 98880, Note_on_c, 0, 68, 80
2, 99068, Note_off_c, 0, 74, 100
2, 99068, Note_off_c, 0, 68, 100
2, 99072, Note_on_c, 0, 74, 80
2, 99072, Note_on_c, 0, 64, 80
2, 99260, Note_off_c, 0, 64, 100
2, 99264, Note_on_c, 0, 68, 80
2, 99452, Note_off_c, 0, 68, 100
2, 99456, Note_on_c, 0, 64, 81
2, 99644, Note_off_c, 0, 64, 100
2, 99648, Note_on_c, 0, 68, 82
2, 99836, Note_off_c, 0, 74, 100
2, 99836, Note_off_c, 0, 68, 100
2, 99840, Note_on_c, 0, 73, 83
2, 99840, Note_on_c, 0, 64, 83
2, 100028, Note_off_c, 0, 64, 100
2, 100032, Note_on_c, 0, 68, 84
2, 100220, Note_off_c, 0, 73, 100
2, 100220, Note_off_c, 0, 68, 100
2, 100224, Note_on_c, 0, 74, 85
2, 100224, Note_on_c, 0, 64, 85
2, 100412, Note_off_c, 0, 64, 100
2, 100416, Note_on_c, 0, 68, 86
2, 100604, Note_off_c, 0, 68, 100
2, 100608, Note_on_c, 0, 64, 87
2, 100796, Note_off_c, 0, 64, 100
2, 100800, Note_on_c, 0, 68, 88
2, 100988, Note_off_c, 0, 74, 100
2, 100988, Note_off_c, 0, 68, 100
2, 100992, Note_on_c, 0, 73, 89
2, 100992, Note_on_c, 0, 64, 89
2, 101180, Note_off_c, 0, 64, 100
2, 101184, Note_on_c, 0, 68, 90
2, 101372, Note_off_c, 0, 73, 100
2, 101372, Note_off_c, 0, 68, 100
2, 101376, Note_on_c, 0, 74, 91
2, 101376, Note_on_c, 0, 64, 91
2, 101564, Note_off_c, 0, 64, 100
2, 101568, Note_on_c, 0, 68, 92
2, 101756, Note_off_c, 0, 68, 100
2, 101760, Note_on_c, 0, 64, 93
2, 101948, Note_off_c, 0, 64, 100
2, 101952, Note_on_c, 0, 68, 94
2, 102140, Note_off_c, 0, 68, 100
2, 102144, Note_on_c, 0, 64, 95
2, 102332, Note_off_c, 0, 64, 100
2, 102336, Note_on_c, 0, 68, 96
2, 102524, Note_off_c, 0, 68, 100
2, 102528, Note_on_c, 0, 64, 97
2, 102716, Note_off_c, 0, 64, 100
2, 102720, Note_on_c, 0, 68, 98
2, 102908, Note_off_c, 0, 68, 100
2, 102912, Note_on_c, 0, 64, 99
2, 103100, Note_off_c, 0, 64, 100
2, 103104, Note_on_c, 0, 68, 99
2, 103292, Note_off_c, 0, 74, 100
2, 103292, Note_off_c, 0, 68, 100
2, 103296, Note_on_c, 0, 64, 80
2, 103296, Note_on_c, 0, 74, 80
2, 103484, Note_off_c, 0, 64, 100
2, 103488, Note_on_c, 0, 68, 80
2, 103676, Note_off_c, 0, 74, 100
2, 103676, Note_off_c, 0, 68, 100
2, 103680, Note_on_c, 0, 73, 80
2, 103680, Note_on_c, 0, 61, 80
2, 103868, Note_off_c, 0, 61, 100
2, 103872, Note_on_c, 0, 64, 80
2, 104060, Note_off_c, 0, 64, 100
2, 104064, Note_on_c, 0, 61, 80
2, 104252, Note_off_c, 0, 61, 100
2, 104256, Note_on_c, 0, 64, 80
2, 104444, Note_off_c, 0, 73, 100
2, 104444, Note_off_c, 0, 64, 100
2, 104448, Note_on_c, 0, 74, 80
2, 104448, Note_on_c, 0, 62, 80
2, 104636, Note_off_c, 0, 62, 100
2, 104640, Note_on_c, 0, 64, 80
2, 104828, Note_off_c, 0, 74, 100
2, 104828, Note_off_c, 0, 64, 100
2, 104832, Note_on_c, 0, 73, 80
2, 104832, Note_on_c, 0, 61, 80
2, 105020, Note_off_c, 0, 61, 100
2, 105024, Note_on_c, 0, 64, 80
2, 105212, Note_off_c, 0, 64, 100
2, 105216, Note_on_c, 0, 61, 80
2, 105404, Note_off_c, 0, 61, 100
2, 105408, Note_on_c, 0, 64, 80
2, 105596, Note_off_c, 0, 73, 100
2, 105596, Note_off_c, 0, 64, 100
2, 105600, Note_on_c, 0, 71, 80
2, 105600, Note_on_c, 0, 59, 80
2, 105788, Note_off_c, 0, 59, 100
2, 105792, Note_on_c, 0, 65, 80
2, 105980, Note_off_c, 0, 71, 100
2, 105980, Note_off_c, 0, 65, 100
2, 105984, Note_on_c, 0, 69, 80
2, 105984, Note_on_c, 0, 57, 80
2, 106172, Note_off_c, 0, 57, 100
2, 106176, Note_on_c, 0, 61, 80
2, 106364, Note_off_c, 0, 61, 100
2, 106368, Note_on_c, 0, 57, 80
2, 106556, Note_off_c, 0, 57, 100
2, 106560, Note_on_c, 0, 61, 80
2, 106748, Note_off_c, 0, 61, 100
2, 106752, Note_on_c, 0, 57, 80
2, 106940, Note_off_c, 0, 57, 100
2, 106944, Note_on_c, 0, 61, 80
2, 107132, Note_off_c, 0, 61, 100
2, 107136, Note_on_c, 0, 57, 80
2, 107324, Note_off_c, 0, 57, 100
2, 107328, Note_on_c, 0, 61, 80
2, 107516, Note_off_c, 0, 61, 100
2, 107520, Note_on_c, 0, 57, 80
2, 107708, Note_off_c, 0, 57, 100
2, 107712, Note_on_c, 0, 61, 80
2, 107900, Note_off_c, 0, 69, 100
2, 107900, Note_off_c, 0, 61, 100
2, 107904, Note_on_c, 0, 71, 80
2, 107904, Note_on_c, 0, 59, 80
2, 108092, Note_off_c, 0, 59, 100
2, 108096, Note_on_c, 0, 61, 80
2, 108284, Note_off_c, 0, 71, 100
2, 108284, Note_off_c, 0, 61, 100
2, 108288, Note_on_c, 0, 69, 80
2, 108288, Note_on_c, 0, 57, 80
2, 108476, Note_off_c, 0, 57, 100
2, 108480, Note_on_c, 0, 61, 80
2, 108668, Note_off_c, 0, 61, 100
2, 108672, Note_on_c, 0, 57, 80
2, 108860, Note_off_c, 0, 57, 100
2, 108864, Note_on_c, 0, 61, 80
2, 109052, Note_off_c, 0, 69, 100
2, 109052, Note_off_c, 0, 61, 100
2, 109056, Note_on_c, 0, 71, 80
2, 109056, Note_on_c, 0, 59, 80
2, 109244, Note_off_c, 0, 59, 100
2, 109248, Note_on_c, 0, 61, 80
2, 109436, Note_off_c, 0, 71, 100
2, 109436, Note_off_c, 0, 61, 100
2, 109440, Note_on_c, 0, 69, 80
2, 109440, Note_on_c, 0, 57, 80
2, 109628, Note_off_c, 0, 57, 100
2, 109632, Note_on_c, 0, 61, 80
2, 109820, Note_off_c, 0, 61, 100
2, 109824, Note_on_c, 0, 57, 80
2, 110012, Note_off_c, 0, 57, 100
2, 110016, Note_on_c, 0, 61, 80
2, 110204, Note_off_c, 0, 69, 100
2, 110204, Note_off_c, 0, 61, 100
2, 110208, Note_on_c, 0, 67, 80
2, 110208, Note_on_c, 0, 55, 80
2, 110396, Note_off_c, 0, 55, 100
2, 110400, Note_on_c, 0, 61, 80
2, 110588, Note_off_c, 0, 67, 100
2, 110588, Note_off_c, 0, 61, 100
2, 110592, Note_on_c, 0, 66, 80
2, 110592, Note_on_c, 0, 54, 80
2, 110780, Note_off_c, 0, 54, 100
2, 110784, Note_on_c, 0, 57, 80
2, 110972, Note_off_c, 0, 57, 100
2, 110976, Note_on_c, 0, 54, 81
2, 111164, Note_off_c, 0, 54, 100
2, 111168, Note_on_c, 0, 57, 82
2, 111356, Note_off_c, 0, 57, 100
2, 111360, Note_on_c, 0, 54, 83
2, 111548, Note_off_c, 0, 54, 100
2, 111552, Note_on_c, 0, 57, 84
2, 111740, Note_off_c, 0, 57, 100
2, 111744, Note_on_c, 0, 54, 84
2, 111932, Note_off_c, 0, 54, 100
2, 111936, Note_on_c, 0, 57, 85
2, 112124, Note_off_c, 0, 57, 100
2, 112128, Note_on_c, 0, 54, 86
2, 112316, Note_off_c, 0, 54, 100
2, 112320, Note_on_c, 0, 57, 87
2, 112508, Note_off_c, 0, 66, 100
2, 112508, Note_off_c, 0, 57, 100
2, 112512, Note_on_c, 0, 67, 88
2, 112512, Note_on_c, 0, 55, 88
2, 112700, Note_off_c, 0, 55, 100
2, 112704, Note_on_c, 0, 57, 89
2, 112892, Note_off_c, 0, 67, 100
2, 112892, Note_off_c, 0, 57, 100
2, 112896, Note_on_c, 0, 66, 89
2, 112896, Note_on_c, 0, 54, 89
2, 113084, Note_off_c, 0, 54, 100
2, 113088, Note_on_c, 0, 57, 90
2, 113276, Note_off_c, 0, 57, 100
2, 113280, Note_on_c, 0, 54, 91
2, 113468, Note_off_c, 0, 54, 100
2, 113472, Note_on_c, 0, 57, 92
2, 113660, Note_off_c, 0, 66, 100
2, 113660, Note_off_c, 0, 57, 100
2, 113664, Note_on_c, 0, 67, 93
2, 113664, Note_on_c, 0, 55, 93
2, 113852, Note_off_c, 0, 55, 100
2, 113856, Note_on_c, 0, 57, 94
2, 114044, Note_off_c, 0, 67, 100
2, 114044, Note_off_c, 0, 57, 100
2, 114048, Note_on_c, 0, 66, 94
2, 114048, Note_on_c, 0, 54, 94
2, 114236, Note_off_c, 0, 54, 100
2, 114240, Note_on_c, 0, 57, 95
2, 114428, Note_off_c, 0, 57, 100
2, 114432, Note_on_c, 0, 54, 96
2, 114620, Note_off_c, 0, 54, 100
2, 114624, Note_on_c, 0, 57, 97
2, 114812, Note_off_c, 0, 66, 100
2, 114812, Note_off_c, 0, 57, 100
2, 114816, Note_on_c, 0, 68, 110
2, 114816, Note_on_c, 0, 56, 110
2, 115004, Note_off_c, 0, 56, 100
2, 115008, Note_on_c, 0, 62, 99
2, 115196, Note_off_c, 0, 68, 100
2, 115196, Note_off_c, 0, 62, 100
2, 115200, Note_on_c, 0, 69, 99
2, 115200, Note_on_c, 0, 57, 99
2, 115388, Note_off_c, 0, 57, 100
2, 115392, Note_on_c, 0, 64, 100
2, 115580, Note_off_c, 0, 64, 100
2, 115584, Note_on_c, 0, 57, 101
2, 115772, Note_off_c, 0, 57, 100
2, 115776, Note_on_c, 0, 64, 102
2, 115964, Note_off_c, 0, 69, 100
2, 115964, Note_off_c, 0, 64, 100
2, 115968, Note_on_c, 0, 71, 103
2, 115968, Note_on_c, 0, 59, 103
2, 116156, Note_off_c, 0, 59, 100
2, 116160, Note_on_c, 0, 64, 104
2, 116348, Note_off_c, 0, 71, 100
2, 116348, Note_off_c, 0, 64, 100
2, 116352, Note_on_c, 0, 73, 104
2, 116352, Note_on_c, 0, 61, 104
2, 116540, Note_off_c, 0, 61, 100
2, 116544, Note_on_c, 0, 64, 105
2, 116732, Note_off_c, 0, 64, 100
2, 116736, Note_on_c, 0, 61, 106
2, 116924, Note_off_c, 0, 61, 100
2, 116928, Note_on_c, 0, 64, 107
2, 117116, Note_off_c, 0, 73, 100
2, 117116, Note_off_c, 0, 64, 100
2, 117120, Note_on_c, 0, 74, 108
2, 117120, Note_on_c, 0, 62, 108
2, 117308, Note_off_c, 0, 62, 100
2, 117312, Note_on_c, 0, 69, 109
2, 117500, Note_off_c, 0, 74, 100
2, 117500, Note_off_c, 0, 69, 100
2, 117504, Note_on_c, 0, 76, 109
2, 117504, Note_on_c, 0, 69, 109
2, 117504, Note_on_c, 0, 64, 109
2, 118652, Note_off_c, 0, 76, 100
2, 118652, Note_off_c, 0, 69, 100
2, 118652, Note_off_c, 0, 64, 100
2, 118656, Note_on_c, 0, 76, 110
2, 118784, Note_on_c, 0, 75, 110
2, 118904, Note_off_c, 0, 76, 100
2, 118912, Note_on_c, 0, 78, 110
2, 119032, Note_off_c, 0, 75, 100
2, 119040, Note_on_c, 0, 76, 110
2, 119160, Note_off_c, 0, 78, 100
2, 119168, Note_on_c, 0, 74, 110
2, 119288, Note_off_c, 0, 76, 100
2, 119296, Note_on_c, 0, 73, 110
2, 119416, Note_off_c, 0, 74, 100
2, 119424, Note_on_c, 0, 71, 110
2, 119492, Note_on_c, 0, 69, 110
2, 119536, Note_off_c, 0, 73, 100
2, 119564, Note_on_c, 0, 68, 110
2, 119588, Note_off_c, 0, 71, 100
2, 119636, Note_on_c, 0, 66, 110
2, 119644, Note_off_c, 0, 69, 100
2, 119712, Note_on_c, 0, 64, 110
2, 119724, Note_off_c, 0, 68, 100
2, 119792, Note_off_c, 0, 66, 100
2, 119808, Note_on_c, 0, 81, 110
2, 119812, Note_off_c, 0, 64, 100
2, 120956, Note_off_c, 0, 81, 100
2, 120960, Note_on_c, 0, 81, 110
2, 121088, Note_on_c, 0, 80, 110
2, 121176, Note_off_c, 0, 81, 100
2, 121216, Note_on_c, 0, 83, 110
2, 121300, Note_off_c, 0, 80, 100
2, 121344, Note_on_c, 0, 81, 110
2, 121420, Note_off_c, 0, 83, 100
2, 121472, Note_on_c, 0, 80, 110
2, 121548, Note_off_c, 0, 81, 100
2, 121600, Note_on_c, 0, 78, 110
2, 121684, Note_off_c, 0, 80, 100
2, 121728, Note_on_c, 0, 76, 110
2, 121800, Note_on_c, 0, 75, 110
2, 121808, Note_off_c, 0, 78, 100
2, 121872, Note_on_c, 0, 73, 110
2, 121888, Note_off_c, 0, 76, 100
2, 121944, Note_on_c, 0, 71, 110
2, 121988, Note_off_c, 0, 75, 100
2, 122016, Note_on_c, 0, 69, 110
2, 122048, Note_off_c, 0, 73, 100
2, 122108, Note_off_c, 0, 69, 100
2, 122112, Note_on_c, 0, 81, 110
2, 122128, Note_off_c, 0, 71, 100
2, 122240, Note_on_c, 0, 80, 110
2, 122324, Note_off_c, 0, 81, 100
2, 122368, Note_on_c, 0, 83, 110
2, 122456, Note_off_c, 0, 80, 100
2, 122496, Note_on_c, 0, 81, 110
2, 122588, Note_off_c, 0, 83, 100
2, 122624, Note_on_c, 0, 80, 110
2, 122712, Note_off_c, 0, 81, 100
2, 122752, Note_on_c, 0, 78, 110
2, 122828, Note_off_c, 0, 80, 100
2, 122880, Note_on_c, 0, 76, 110
2, 122952, Note_on_c, 0, 74, 110
2, 122960, Note_off_c, 0, 78, 100
2, 123024, Note_on_c, 0, 73, 110
2, 123044, Note_off_c, 0, 76, 100
2, 123096, Note_on_c, 0, 71, 110
2, 123132, Note_off_c, 0, 74, 100
2, 123168, Note_on_c, 0, 69, 110
2, 123196, Note_off_c, 0, 73, 100
2, 123256, Note_off_c, 0, 71, 100
2, 123260, Note_off_c, 0, 69, 100
2, 123264, Note_on_c, 0, 76, 110
2, 123392, Note_on_c, 0, 75, 110
2, 123512, Note_off_c, 0, 76, 100
2, 123520, Note_on_c, 0, 78, 110
2, 123644, Note_off_c, 0, 75, 100
2, 123648, Note_on_c, 0, 76, 110
2, 123736, Note_off_c, 0, 78, 100
2, 123776, Note_on_c, 0, 74, 110
2, 123876, Note_off_c, 0, 76, 100
2, 123904, Note_on_c, 0, 73, 110
2, 124012, Note_off_c, 0, 74, 100
2, 124032, Note_on_c, 0, 71, 110
2, 124104, Note_on_c, 0, 69, 110
2, 124148, Note_off_c, 0, 73, 100
2, 124176, Note_on_c, 0, 68, 110
2, 124208, Note_off_c, 0, 71, 100
2, 124248, Note_on_c, 0, 66, 110
2, 124276, Note_off_c, 0, 69, 100
2, 124320, Note_on_c, 0, 64, 110
2, 124348, Note_off_c, 0, 68, 100
2, 124412, Note_off_c, 0, 64, 100
2, 124416, Note_on_c, 0, 76, 80
2, 124416, Note_on_c, 0, 64, 80
2, 124428, Note_off_c, 0, 66, 100
2, 124604, Note_off_c, 0, 64, 100
2, 124608, Note_on_c, 0, 69, 80
2, 124796, Note_off_c, 0, 69, 100
2, 124800, Note_on_c, 0, 64, 80
2, 124988, Note_off_c, 0, 64, 100
2, 124992, Note_on_c, 0, 69, 80
2, 125180, Note_off_c, 0, 69, 100
2, 125184, Note_on_c, 0, 64, 80
2, 125372, Note_off_c, 0, 64, 100
2, 125376, Note_on_c, 0, 69, 80
2, 125564, Note_off_c, 0, 69, 100
2, 125568, Note_on_c, 0, 64, 80
2, 125756, Note_off_c, 0, 64, 100
2, 125760, Note_on_c, 0, 69, 80
2, 125948, Note_off_c, 0, 69, 100
2, 125952, Note_on_c, 0, 64, 80
2, 126140, Note_off_c, 0, 64, 100
2, 126144, Note_on_c, 0, 69, 80
2, 126332, Note_off_c, 0, 76, 100
2, 126332, Note_off_c, 0, 69, 100
2, 126336, Note_on_c, 0, 75, 80
2, 126336, Note_on_c, 0, 63, 80
2, 126524, Note_off_c, 0, 63, 100
2, 126528, Note_on_c, 0, 69, 80
2, 126716, Note_off_c, 0, 75, 100
2, 126716, Note_off_c, 0, 69, 100
2, 126720, Note_on_c, 0, 76, 80
2, 126720, Note_on_c, 0, 64, 80
2, 126908, Note_off_c, 0, 64, 100
2, 126912, Note_on_c, 0, 69, 80
2, 127100, Note_off_c, 0, 69, 100
2, 127104, Note_on_c, 0, 64, 80
2, 127292, Note_off_c, 0, 64, 100
2, 127296, Note_on_c, 0, 69, 80
2, 127484, Note_off_c, 0, 76, 100
2, 127484, Note_off_c, 0, 69, 100
2, 127488, Note_on_c, 0, 78, 80
2, 127488, Note_on_c, 0, 66, 80
2, 127676, Note_off_c, 0, 66, 100
2, 127680, Note_on_c, 0, 69, 80
2, 127868, Note_off_c, 0, 78, 100
2, 127868, Note_off_c, 0, 69, 100
2, 127872, Note_on_c, 0, 76, 80
2, 127872, Note_on_c, 0, 64, 80
2, 128060, Note_off_c, 0, 64, 100
2, 128064, Note_on_c, 0, 69, 80
2, 128252, Note_off_c, 0, 69, 100
2, 128256, Note_on_c, 0, 64, 80
2, 128444, Note_off_c, 0, 64, 100
2, 128448, Note_on_c, 0, 69, 80
2, 128636, Note_off_c, 0, 76, 100
2, 128636, Note_off_c, 0, 69, 100
2, 128640, Note_on_c, 0, 74, 80
2, 128640, Note_on_c, 0, 62, 80
2, 128828, Note_off_c, 0, 62, 100
2, 128832, Note_on_c, 0, 68, 80
2, 129020, Note_off_c, 0, 74, 100
2, 129020, Note_off_c, 0, 68, 100
2, 129024, Note_on_c, 0, 73, 80
2, 129024, Note_on_c, 0, 61, 80
2, 129212, Note_off_c, 0, 61, 100
2, 129216, Note_on_c, 0, 64, 80
2, 129404, Note_off_c, 0, 64, 100
2, 129408, Note_on_c, 0, 61, 80
2, 129596, Note_off_c, 0, 61, 100
2, 129600, Note_on_c, 0, 64, 80
2, 129788, Note_off_c, 0, 64, 100
2, 129792, Note_on_c, 0, 61, 80
2, 129980, Note_off_c, 0, 61, 100
2, 129984, Note_on_c, 0, 64, 80
2, 130172, Note_off_c, 0, 64, 100
2, 130176, Note_on_c, 0, 61, 80
2, 130364, Note_off_c, 0, 61, 100
2, 130368, Note_on_c, 0, 64, 80
2, 130556, Note_off_c, 0, 64, 100
2, 130560, Note_on_c, 0, 61, 80
2, 130748, Note_off_c, 0, 61, 100
2, 130752, Note_on_c, 0, 64, 80
2, 130940, Note_off_c, 0, 73, 100
2, 130940, Note_off_c, 0, 64, 100
2, 130944, Note_on_c, 0, 72, 80
2, 130944, Note_on_c, 0, 60, 80
2, 131132, Note_off_c, 0, 60, 100
2, 131136, Note_on_c, 0, 64, 80
2, 131324, Note_off_c, 0, 72, 100
2, 131324, Note_off_c, 0, 64, 100
2, 131328, Note_on_c, 0, 73, 80
2, 131328, Note_on_c, 0, 61, 80
2, 131516, Note_off_c, 0, 61, 100
2, 131520, Note_on_c, 0, 64, 80
2, 131708, Note_off_c, 0, 64, 100
2, 131712, Note_on_c, 0, 61, 80
2, 131900, Note_off_c, 0, 61, 100
2, 131904, Note_on_c, 0, 64, 80
2, 132092, Note_off_c, 0, 73, 100
2, 132092, Note_off_c, 0, 64, 100
2, 132096, Note_on_c, 0, 62, 80
2, 132096, Note_on_c, 0, 74, 80
2, 132284, Note_off_c, 0, 62, 100
2, 132288, Note_on_c, 0, 64, 80
2, 132476, Note_off_c, 0, 74, 100
2, 132476, Note_off_c, 0, 64, 100
2, 132480, Note_on_c, 0, 73, 80
2, 132480, Note_on_c, 0, 61, 80
2, 132668, Note_off_c, 0, 61, 100
2, 132672, Note_on_c, 0, 64, 80
2, 132860, Note_off_c, 0, 64, 100
2, 132864, Note_on_c, 0, 61, 80
2, 133052, Note_off_c, 0, 61, 100
2, 133056, Note_on_c, 0, 64, 80
2, 133244, Note_off_c, 0, 73, 100
2, 133244, Note_off_c, 0, 64, 100
2, 133248, Note_on_c, 0, 71, 80
2, 133248, Note_on_c, 0, 59, 80
2, 133436, Note_off_c, 0, 59, 100
2, 133440, Note_on_c, 0, 65, 80
2, 133628, Note_off_c, 0, 71, 100
2, 133628, Note_off_c, 0, 65, 100
2, 133632, Note_on_c, 0, 69, 80
2, 133632, Note_on_c, 0, 57, 80
2, 133820, Note_off_c, 0, 57, 100
2, 133824, Note_on_c, 0, 61, 80
2, 134012, Note_off_c, 0, 61, 100
2, 134016, Note_on_c, 0, 57, 81
2, 134204, Note_off_c, 0, 57, 100
2, 134208, Note_on_c, 0, 61, 81
2, 134396, Note_off_c, 0, 61, 100
2, 134400, Note_on_c, 0, 57, 82
2, 134588, Note_off_c, 0, 57, 100
2, 134592, Note_on_c, 0, 61, 83
2, 134780, Note_off_c, 0, 61, 100
2, 134784, Note_on_c, 0, 57, 83
2, 134972, Note_off_c, 0, 57, 100
2, 134976, Note_on_c, 0, 61, 84
2, 135164, Note_off_c, 0, 61, 100
2, 135168, Note_on_c, 0, 57, 84
2, 135356, Note_off_c, 0, 57, 100
2, 135360, Note_on_c, 0, 61, 85
2, 135548, Note_off_c, 0, 69, 100
2, 135548, Note_off_c, 0, 61, 100
2, 135552, Note_on_c, 0, 68, 86
2, 135552, Note_on_c, 0, 56, 86
2, 135740, Note_off_c, 0, 56, 100
2, 135744, Note_on_c, 0, 61, 86
2, 135932, Note_off_c, 0, 68, 100
2, 135932, Note_off_c, 0, 61, 100
2, 135936, Note_on_c, 0, 69, 87
2, 135936, Note_on_c, 0, 57, 87
2, 136124, Note_off_c, 0, 57, 100
2, 136128, Note_on_c, 0, 61, 88
2, 136316, Note_off_c, 0, 61, 100
2, 136320, Note_on_c, 0, 57, 88
2, 136508, Note_off_c, 0, 57, 100
2, 136512, Note_on_c, 0, 61, 89
2, 136700, Note_off_c, 0, 69, 100
2, 136700, Note_off_c, 0, 61, 100
2, 136704, Note_on_c, 0, 68, 89
2, 136704, Note_on_c, 0, 56, 89
2, 136892, Note_off_c, 0, 56, 100
2, 136896, Note_on_c, 0, 61, 90
2, 137084, Note_off_c, 0, 68, 100
2, 137084, Note_off_c, 0, 61, 100
2, 137088, Note_on_c, 0, 69, 91
2, 137088, Note_on_c, 0, 57, 91
2, 137276, Note_off_c, 0, 57, 100
2, 137280, Note_on_c, 0, 61, 91
2, 137468, Note_off_c, 0, 61, 100
2, 137472, Note_on_c, 0, 57, 92
2, 137660, Note_off_c, 0, 57, 100
2, 137664, Note_on_c, 0, 61, 93
2, 137852, Note_off_c, 0, 69, 100
2, 137852, Note_off_c, 0, 61, 100
2, 137856, Note_on_c, 0, 70, 93
2, 137856, Note_on_c, 0, 58, 93
2, 138044, Note_off_c, 0, 58, 100
2, 138048, Note_on_c, 0, 66, 94
2, 138236, Note_off_c, 0, 70, 100
2, 138236, Note_off_c, 0, 66, 100
2, 138240, Note_on_c, 0, 71, 94
2, 138240, Note_on_c, 0, 59, 94
2, 138428, Note_off_c, 0, 59, 100
2, 138432, Note_on_c, 0, 66, 95
2, 138620, Note_off_c, 0, 66, 100
2, 138624, Note_on_c, 0, 59, 96
2, 138812, Note_off_c, 0, 59, 100
2, 138816, Note_on_c, 0, 66, 96
2, 139004, Note_off_c, 0, 71, 100
2, 139004, Note_off_c, 0, 66, 100
2, 139008, Note_on_c, 0, 73, 110
2, 139008, Note_on_c, 0, 61, 110
2, 139196, Note_off_c, 0, 61, 100
2, 139200, Note_on_c, 0, 66, 98
2, 139388, Note_off_c, 0, 73, 100
2, 139388, Note_off_c, 0, 66, 100
2, 139392, Note_on_c, 0, 74, 98
2, 139392, Note_on_c, 0, 62, 98
2, 139580, Note_off_c, 0, 62, 100
2, 139584, Note_on_c, 0, 66, 99
2, 139772, Note_off_c, 0, 66, 100
2, 139776, Note_on_c, 0, 62, 99
2, 139964, Note_off_c, 0, 62, 100
2, 139968, Note_on_c, 0, 66, 100
2, 140156, Note_off_c, 0, 74, 100
2, 140156, Note_off_c, 0, 66, 100
2, 140160, Note_on_c, 0, 75, 110
2, 140160, Note_on_c, 0, 63, 110
2, 140348, Note_off_c, 0, 63, 100
2, 140352, Note_on_c, 0, 71, 101
2, 140540, Note_off_c, 0, 75, 100
2, 140540, Note_off_c, 0, 71, 100
2, 140544, Note_on_c, 0, 76, 102
2, 140544, Note_on_c, 0, 64, 102
2, 140732, Note_off_c, 0, 64, 100
2, 140736, Note_on_c, 0, 71, 103
2, 140924, Note_off_c, 0, 71, 100
2, 140928, Note_on_c, 0, 64, 103
2, 141116, Note_off_c, 0, 64, 100
2, 141120, Note_on_c, 0, 71, 104
2, 141308, Note_off_c, 0, 76, 100
2, 141308, Note_off_c, 0, 71, 100
2, 141312, Note_on_c, 0, 78, 110
2, 141312, Note_on_c, 0, 66, 110
2, 141500, Note_off_c, 0, 66, 100
2, 141504, Note_on_c, 0, 71, 105
2, 141692, Note_off_c, 0, 78, 100
2, 141692, Note_off_c, 0, 71, 100
2, 141696, Note_on_c, 0, 79, 106
2, 141696, Note_on_c, 0, 67, 106
2, 141884, Note_off_c, 0, 67, 100
2, 141888, Note_on_c, 0, 71, 106
2, 142076, Note_off_c, 0, 71, 100
2, 142080, Note_on_c, 0, 67, 107
2, 142268, Note_off_c, 0, 67, 100
2, 142272, Note_on_c, 0, 71, 108
2, 142460, Note_off_c, 0, 79, 100
2, 142460, Note_off_c, 0, 71, 100
2, 142464, Note_on_c, 0, 80, 110
2, 142464, Note_on_c, 0, 68, 110
2, 142652, Note_off_c, 0, 68, 100
2, 142656, Note_on_c, 0, 76, 109
2, 142844, Note_off_c, 0, 80, 100
2, 142844, Note_off_c, 0, 76, 100
2, 142848, Note_on_c, 0, 81, 109
2, 142848, Note_on_c, 0, 76, 109
2, 142848, Note_on_c, 0, 69, 109
2, 143996, Note_off_c, 0, 81, 100
2, 143996, Note_off_c, 0, 76, 100
2, 143996, Note_off_c, 0, 69, 100
2, 144000, Note_on_c, 0, 81, 110
2, 144128, Note_on_c, 0, 80, 110
2, 144240, Note_off_c, 0, 81, 100
2, 144256, Note_on_c, 0, 83, 110
2, 144376, Note_off_c, 0, 80, 100
2, 144384, Note_on_c, 0, 81, 110
2, 144492, Note_off_c, 0, 83, 100
2, 144512, Note_on_c, 0, 80, 110
2, 144596, Note_off_c, 0, 81, 100
2, 144640, Note_on_c, 0, 78, 110
2, 144720, Note_off_c, 0, 80, 100
2, 144768, Note_on_c, 0, 76, 110
2, 144840, Note_on_c, 0, 74, 110
2, 144844, Note_off_c, 0, 78, 100
2, 144912, Note_on_c, 0, 73, 110
2, 144944, Note_off_c, 0, 76, 100
2, 144984, Note_on_c, 0, 71, 110
2, 145012, Note_off_c, 0, 74, 100
2, 145056, Note_on_c, 0, 69, 110
2, 145084, Note_off_c, 0, 73, 100
2, 145144, Note_off_c, 0, 71, 100
2, 145148, Note_off_c, 0, 69, 100
2, 145152, Note_on_c, 0, 81, 110
2, 146300, Note_off_c, 0, 81, 100
2, 146304, Note_on_c, 0, 81, 110
2, 146432, Note_on_c, 0, 80, 110
2, 146524, Note_off_c, 0, 81, 100
2, 146560, Note_on_c, 0, 83, 110
2, 146668, Note_off_c, 0, 80, 100
2, 146688, Note_on_c, 0, 81, 110
2, 146788, Note_off_c, 0, 83, 100
2, 146816, Note_on_c, 0, 80, 110
2, 146912, Note_off_c, 0, 81, 100
2, 146944, Note_on_c, 0, 78, 110
2, 147064, Note_off_c, 0, 80, 100
2, 147072, Note_on_c, 0, 76, 110
2, 147144, Note_on_c, 0, 75, 110
2, 147168, Note_off_c, 0, 78, 100
2, 147216, Note_on_c, 0, 73, 110
2, 147260, Note_off_c, 0, 76, 100
2, 147288, Note_on_c, 0, 71, 110
2, 147332, Note_off_c, 0, 75, 100
2, 147360, Note_on_c, 0, 69, 110
2, 147404, Note_off_c, 0, 73, 100
2, 147452, Note_off_c, 0, 69, 100
2, 147456, Note_on_c, 0, 81, 110
2, 147476, Note_off_c, 0, 71, 100
2, 147584, Note_on_c, 0, 80, 110
2, 147700, Note_off_c, 0, 81, 100
2, 147712, Note_on_c, 0, 83, 110
2, 147824, Note_off_c, 0, 80, 100
2, 147840, Note_on_c, 0, 81, 110
2, 147928, Note_off_c, 0, 83, 100
2, 147968, Note_on_c, 0, 80, 110
2, 148072, Note_off_c, 0, 81, 100
2, 148096, Note_on_c, 0, 78, 110
2, 148208, Note_off_c, 0, 80, 100
2, 148224, Note_on_c, 0, 76, 110
2, 148296, Note_on_c, 0, 74, 110
2, 148340, Note_off_c, 0, 78, 100
2, 148368, Note_on_c, 0, 73, 110
2, 148400, Note_off_c, 0, 76, 100
2, 148440, Note_on_c, 0, 71, 110
2, 148484, Note_off_c, 0, 74, 100
2, 148512, Note_on_c, 0, 69, 110
2, 148548, Note_off_c, 0, 73, 100
2, 148604, Note_off_c, 0, 69, 100
2, 148608, Note_on_c, 0, 81, 110
2, 148616, Note_off_c, 0, 71, 100
2, 148736, Note_on_c, 0, 80, 110
2, 148840, Note_off_c, 0, 81, 100
2, 148864, Note_on_c, 0, 83, 110
2, 148956, Note_off_c, 0, 80, 100
2, 148992, Note_on_c, 0, 81, 110
2, 149108, Note_off_c, 0, 83, 100
2, 149120, Note_on_c, 0, 80, 110
2, 149216, Note_off_c, 0, 81, 100
2, 149248, Note_on_c, 0, 78, 110
2, 149332, Note_off_c, 0, 80, 100
2, 149376, Note_on_c, 0, 76, 110
2, 149448, Note_on_c, 0, 74, 110
2, 149472, Note_off_c, 0, 78, 100
2, 149520, Note_on_c, 0, 73, 110
2, 149564, Note_off_c, 0, 76, 100
2, 149592, Note_on_c, 0, 71, 110
2, 149632, Note_off_c, 0, 74, 100
2, 149664, Note_on_c, 0, 69, 110
2, 149704, Note_off_c, 0, 73, 100
2, 149756, Note_off_c, 0, 69, 100
2, 149760, Note_on_c, 0, 76, 110
2, 149760, Note_on_c, 0, 73, 110
2, 149772, Note_off_c, 0, 71, 100
2, 152444, Note_off_c, 0, 73, 100
2, 152444, Note_off_c, 0, 76, 100
2, 152448, Note_on_c, 0, 74, 80
2, 152448, Note_on_c, 0, 71, 80
2, 152828, Note_off_c, 0, 74, 100
2, 152828, Note_off_c, 0, 71, 100
2, 152832, Note_on_c, 0, 73, 80
2, 152832, Note_on_c, 0, 69, 80
2, 153212, Note_off_c, 0, 73, 100
2, 153212, Note_off_c, 0, 69, 100
2, 153216, Note_on_c, 0, 73, 80
2, 153216, Note_on_c, 0, 69, 80
2, 153980, Note_off_c, 0, 73, 100
2, 153980, Note_off_c, 0, 69, 100
2, 153984, Note_on_c, 0, 71, 80
2, 153984, Note_on_c, 0, 68, 80
2, 154364, Note_off_c, 0, 71, 100
2, 154364, Note_off_c, 0, 68, 100
2, 154368, Note_on_c, 0, 69, 80
2, 154748, Note_off_c, 0, 69, 100
2, 155136, Note_on_c, 0, 76, 80
2, 156284, Note_off_c, 0, 76, 100
2, 156288, Note_on_c, 0, 64, 80
2, 157436, Note_off_c, 0, 64, 100
2, 157440, Note_on_c, 0, 69, 80
2, 158204, Note_off_c, 0, 69, 100
2, 158208, Note_on_c, 0, 68, 80
2, 158588, Note_off_c, 0, 68, 100
2, 158592, Note_on_c, 0, 74, 80
2, 159356, Note_off_c, 0, 74, 100
2, 159360, Note_on_c, 0, 73, 80
2, 159740, Note_off_c, 0, 73, 100
2, 159744, Note_on_c, 0, 81, 80
2, 160892, Note_off_c, 0, 81, 100
2, 160896, Note_on_c, 0, 69, 80
2, 162044, Note_off_c, 0, 69, 100
2, 162048, Note_on_c, 0, 78, 80
2, 162812, Note_off_c, 0, 78, 100
2, 162816, Note_on_c, 0, 76, 80
2, 163196, Note_off_c, 0, 76, 100
2, 163200, Note_on_c, 0, 74, 80
2, 163580, Note_off_c, 0, 74, 100
2, 163584, Note_on_c, 0, 73, 80
2, 163964, Note_off_c, 0, 73, 100
2, 163968, Note_on_c, 0, 69, 80
2, 164348, Note_off_c, 0, 69, 100
2, 164352, Note_on_c, 0, 76, 80
2, 164352, Note_on_c, 0, 64, 80
2, 165500, Note_off_c, 0, 64, 100
2, 165500, Note_off_c, 0, 76, 100
2, 165504, Note_on_c, 0, 64, 80
2, 165504, Note_on_c, 0, 52, 80
2, 166652, Note_off_c, 0, 52, 100
2, 166652, Note_off_c, 0, 64, 100
2, 166656, Note_on_c, 0, 69, 80
2, 166656, Note_on_c, 0, 57, 80
2, 167420, Note_off_c, 0, 57, 100
2, 167420, Note_off_c, 0, 69, 100
2, 167424, Note_on_c, 0, 68, 80
2, 167424, Note_on_c, 0, 56, 80
2, 167804, Note_off_c, 0, 68, 100
2, 167804, Note_off_c, 0, 56, 100
2, 167808, Note_on_c, 0, 74, 80
2, 167808, Note_on_c, 0, 62, 80
2, 168572, Note_off_c, 0, 62, 100
2, 168572, Note_off_c, 0, 74, 100
2, 168576, Note_on_c, 0, 73, 80
2, 168576, Note_on_c, 0, 61, 80
2, 168956, Note_off_c, 0, 73, 100
2, 168956, Note_off_c, 0, 61, 100
2, 168960, Note_on_c, 0, 81, 80
2, 168960, Note_on_c, 0, 69, 80
2, 170108, Note_off_c, 0, 69, 100
2, 170108, Note_off_c, 0, 81, 100
2, 170112, Note_on_c, 0, 69, 80
2, 170112, Note_on_c, 0, 57, 80
2, 171260, Note_off_c, 0, 57, 100
2, 171260, Note_off_c, 0, 69, 100
2, 171264, Note_on_c, 0, 78, 80
2, 171264, Note_on_c, 0, 66, 80
2, 172028, Note_off_c, 0, 66, 100
2, 172028, Note_off_c, 0, 78, 100
2, 172032, Note_on_c, 0, 76, 80
2, 172032, Note_on_c, 0, 64, 80
2, 172412, Note_off_c, 0, 76, 100
2, 172412, Note_off_c, 0, 64, 100
2, 172416, Note_on_c, 0, 74, 80
2, 172416, Note_on_c, 0, 62, 80
2, 172796, Note_off_c, 0, 74, 100
2, 172796, Note_off_c, 0, 62, 100
2, 172800, Note_on_c, 0, 73, 80
2, 172800, Note_on_c, 0, 61, 80
2, 173180, Note_off_c, 0, 73, 100
2, 173180, Note_off_c, 0, 61, 100
2, 173184, Note_on_c, 0, 69, 80
2, 173564, Note_off_c, 0, 69, 100
2, 173568, Note_on_c, 0, 81, 80
2, 173568, Note_on_c, 0, 69, 80
2, 174716, Note_off_c, 0, 69, 100
2, 174716, Note_off_c, 0, 81, 100
2, 174720, Note_on_c, 0, 69, 80
2, 174720, Note_on_c, 0, 57, 80
2, 175868, Note_off_c, 0, 57, 100
2, 175868, Note_off_c, 0, 69, 100
2, 175872, Note_on_c, 0, 78, 84
2, 175872, Note_on_c, 0, 66, 84
2, 176636, Note_off_c, 0, 66, 100
2, 176636, Note_off_c, 0, 78, 100
2, 176640, Note_on_c, 0, 76, 87
2, 176640, Note_on_c, 0, 64, 87
2, 177020, Note_off_c, 0, 76, 100
2, 177020, Note_off_c, 0, 64, 100
2, 177024, Note_on_c, 0, 74, 89
2, 177024, Note_on_c, 0, 62, 89
2, 177404, Note_off_c, 0, 74, 100
2, 177404, Note_off_c, 0, 62, 100
2, 177408, Note_on_c, 0, 73, 91
2, 177408, Note_on_c, 0, 61, 91
2, 177788, Note_off_c, 0, 73, 100
2, 177788, Note_off_c, 0, 61, 100
2, 177792, Note_on_c, 0, 69, 92
2, 178172, Note_off_c, 0, 69, 100
2, 178176, Note_on_c, 0, 78, 94
2, 178176, Note_on_c, 0, 66, 94
2, 178940, Note_off_c, 0, 66, 100
2, 178940, Note_off_c, 0, 78, 100
2, 178944, Note_on_c, 0, 76, 97
2, 178944, Note_on_c, 0, 64, 97
2, 179324, Note_off_c, 0, 76, 100
2, 179324, Note_off_c, 0, 64, 100
2, 179328, Note_on_c, 0, 74, 98
2, 179328, Note_on_c, 0, 62, 98
2, 179708, Note_off_c, 0, 74, 100
2, 179708, Note_off_c, 0, 62, 100
2, 179712, Note_on_c, 0, 73, 100
2, 179712, Note_on_c, 0, 61, 100
2, 180092, Note_off_c, 0, 73, 100
2, 180092, Note_off_c, 0, 61, 100
2, 180096, Note_on_c, 0, 69, 102
2, 180476, Note_off_c, 0, 69, 100
2, 180480, Note_on_c, 0, 66, 103
2, 181244, Note_off_c, 0, 66, 100
2, 181248, Note_on_c, 0, 64, 106
2, 181628, Note_off_c, 0, 64, 100
2, 181632, Note_on_c, 0, 62, 108
2, 182396, Note_off_c, 0, 62, 100
2, 182400, Note_on_c, 0, 61, 110
2, 182780, Note_off_c, 0, 61, 100
2, 182784, Note_on_c, 0, 59, 107
2, 183164, Note_off_c, 0, 59, 100
2, 187776, Note_on_c, 0, 69, 80
2, 187776, Note_on_c, 0, 66, 80
2, 187776, Note_on_c, 0, 60, 80
2, 188924, Note_off_c, 0, 69, 100
2, 188924, Note_off_c, 0, 66, 100
2, 188924, Note_off_c, 0, 60, 100
2, 188928, Note_on_c, 0, 69, 80
2, 188928, Note_on_c, 0, 62, 80
2, 188928, Note_on_c, 0, 59, 80
2, 189308, Note_off_c, 0, 69, 100
2, 189312, Note_on_c, 0, 67, 80
2, 190844, Note_off_c, 0, 59, 100
2, 190844, Note_off_c, 0, 62, 100
2, 190844, Note_off_c, 0, 67, 100
2, 190848, Note_on_c, 0, 66, 80
2, 190848, Note_on_c, 0, 59, 80
2, 190848, Note_on_c, 0, 55, 80
2, 191036, Note_off_c, 0, 66, 100
2, 191040, Note_on_c, 0, 64, 80
2, 191228, Note_off_c, 0, 59, 100
2, 191228, Note_off_c, 0, 55, 100
2, 191228, Note_off_c, 0, 64, 100
2, 191232, Note_on_c, 0, 62, 80
2, 191232, Note_on_c, 0, 55, 80
2, 191996, Note_off_c, 0, 62, 100
2, 192000, Note_on_c, 0, 61, 80
2, 192380, Note_off_c, 0, 55, 100
2, 192380, Note_off_c, 0, 61, 100
2, 192384, Note_on_c, 0, 55, 80
2, 192384, Note_on_c, 0, 59, 80
2, 193148, Note_off_c, 0, 59, 100
2, 193152, Note_on_c, 0, 57, 80
2, 193532, Note_off_c, 0, 55, 100
2, 193532, Note_off_c, 0, 57, 100
2, 193536, Note_on_c, 0, 57, 80
2, 193536, Note_on_c, 0, 54, 80
2, 194684, Note_off_c, 0, 57, 100
2, 194684, Note_off_c, 0, 54, 100
2, 194688, Note_on_c, 0, 62, 80
2, 194688, Note_on_c, 0, 57, 80
2, 195836, Note_off_c, 0, 62, 100
2, 195836, Note_off_c, 0, 57, 100
2, 195840, Note_on_c, 0, 64, 80
2, 195840, Note_on_c, 0, 61, 80
2, 196604, Note_off_c, 0, 64, 100
2, 196604, Note_off_c, 0, 61, 100
2, 196608, Note_on_c, 0, 66, 80
2, 196608, Note_on_c, 0, 62, 80
2, 196796, Note_off_c, 0, 66, 100
2, 196796, Note_off_c, 0, 62, 100
2, 196800, Note_on_c, 0, 67, 80
2, 196800, Note_on_c, 0, 64, 80
2, 196988, Note_off_c, 0, 67, 100
2, 196988, Note_off_c, 0, 64, 100
2, 196992, Note_on_c, 0, 66, 80
2, 196992, Note_on_c, 0, 62, 80
2, 197372, Note_off_c, 0, 66, 100
2, 197372, Note_off_c, 0, 62, 100
2, 199296, Note_on_c, 0, 72, 80
2, 199296, Note_on_c, 0, 81, 80
2, 200444, Note_off_c, 0, 72, 100
2, 200444, Note_off_c, 0, 81, 100
2, 200448, Note_on_c, 0, 71, 80
2, 200448, Note_on_c, 0, 81, 80
2, 200828, Note_off_c, 0, 81, 100
2, 200832, Note_on_c, 0, 79, 80
2, 201596, Note_off_c, 0, 71, 100
2, 201600, Note_on_c, 0, 67, 80
2, 202364, Note_off_c, 0, 79, 100
2, 202368, Note_on_c, 0, 78, 80
2, 202556, Note_off_c, 0, 78, 100
2, 202560, Note_on_c, 0, 76, 80
2, 202748, Note_off_c, 0, 67, 100
2, 202748, Note_off_c, 0, 76, 100
2, 202752, Note_on_c, 0, 67, 80
2, 202752, Note_on_c, 0, 74, 80
2, 203516, Note_off_c, 0, 74, 100
2, 203520, Note_on_c, 0, 73, 80
2, 203900, Note_off_c, 0, 67, 100
2, 203900, Note_off_c, 0, 73, 100
2, 203904, Note_on_c, 0, 71, 80
2, 203904, Note_on_c, 0, 67, 80
2, 204668, Note_off_c, 0, 71, 100
2, 204672, Note_on_c, 0, 69, 80
2, 205052, Note_off_c, 0, 67, 100
2, 205052, Note_off_c, 0, 69, 100
2, 205056, Note_on_c, 0, 66, 80
2, 205056, Note_on_c, 0, 69, 80
2, 206204, Note_off_c, 0, 66, 100
2, 206204, Note_off_c, 0, 69, 100
2, 206208, Note_on_c, 0, 74, 80
2, 206208, Note_on_c, 0, 69, 80
2, 207356, Note_off_c, 0, 74, 100
2, 207356, Note_off_c, 0, 69, 100
2, 207360, Note_on_c, 0, 76, 80
2, 207360, Note_on_c, 0, 73, 80
2, 208124, Note_off_c, 0, 76, 100
2, 208124, Note_off_c, 0, 73, 100
2, 208128, Note_on_c, 0, 78, 80
2, 208128, Note_on_c, 0, 74, 80
2, 208316, Note_off_c, 0, 78, 100
2, 208316, Note_off_c, 0, 74, 100
2, 208320, Note_on_c, 0, 79, 80
2, 208320, Note_on_c, 0, 76, 80
2, 208508, Note_off_c, 0, 79, 100
2, 208508, Note_off_c, 0, 76, 100
2, 208512, Note_on_c, 0, 78, 80
2, 208512, Note_on_c, 0, 74, 80
2, 208892, Note_off_c, 0, 78, 100
2, 208892, Note_off_c, 0, 74, 100
2, 209664, Note_on_c, 0, 62, 80
2, 209664, Note_on_c, 0, 57, 80
2, 211196, Note_off_c, 0, 57, 100
2, 211196, Note_off_c, 0, 62, 100
2, 211200, Note_on_c, 0, 64, 80
2, 211200, Note_on_c, 0, 59, 80
2, 211580, Note_off_c, 0, 64, 100
2, 211580, Note_off_c, 0, 59, 100
2, 211584, Note_on_c, 0, 66, 80
2, 211584, Note_on_c, 0, 60, 80
2, 211964, Note_off_c, 0, 66, 100
2, 211964, Note_off_c, 0, 60, 100
2, 211968, Note_on_c, 0, 69, 80
2, 211968, Note_on_c, 0, 62, 80
2, 212348, Note_off_c, 0, 69, 100
2, 212352, Note_on_c, 0, 67, 80
2, 213884, Note_off_c, 0, 62, 100
2, 213884, Note_off_c, 0, 67, 100
2, 213888, Note_on_c, 0, 60, 80
2, 213888, Note_on_c, 0, 66, 80
2, 214268, Note_off_c, 0, 60, 100
2, 214272, Note_on_c, 0, 59, 80
2, 214652, Note_off_c, 0, 66, 100
2, 214656, Note_on_c, 0, 64, 80
2, 215036, Note_off_c, 0, 64, 100
2, 215040, Note_on_c, 0, 62, 100
2, 215420, Note_off_c, 0, 59, 100
2, 215804, Note_off_c, 0, 62, 100
2, 215808, Note_on_c, 0, 61, 80
2, 216188, Note_off_c, 0, 61, 100
2, 216192, Note_on_c, 0, 57, 100
2, 216764, Note_off_c, 0, 57, 100
2, 216768, Note_on_c, 0, 62, 80
2, 216956, Note_off_c, 0, 62, 100
2, 216960, Note_on_c, 0, 66, 80
2, 217148, Note_off_c, 0, 66, 100
2, 217152, Note_on_c, 0, 69, 80
2, 217340, Note_off_c, 0, 69, 100
2, 217344, Note_on_c, 0, 74, 80
2, 217532, Note_off_c, 0, 74, 100
2, 217536, Note_on_c, 0, 78, 80
2, 217724, Note_off_c, 0, 78, 100
2, 217728, Note_on_c, 0, 81, 80
2, 217920, Note_on_c, 0, 78, 80
2, 218036, Note_off_c, 0, 81, 100
2, 218112, Note_on_c, 0, 74, 80
2, 218224, Note_off_c, 0, 78, 100
2, 218240, Note_on_c, 0, 69, 80
2, 218352, Note_off_c, 0, 74, 100
2, 218368, Note_on_c, 0, 66, 80
2, 218484, Note_off_c, 0, 69, 100
2, 218496, Note_on_c, 0, 69, 80
2, 218608, Note_off_c, 0, 66, 100
2, 218624, Note_on_c, 0, 67, 80
2, 218740, Note_off_c, 0, 69, 100
2, 218752, Note_on_c, 0, 64, 80
2, 218868, Note_off_c, 0, 67, 100
2, 218876, Note_off_c, 0, 64, 100
2, 218880, Note_on_c, 0, 74, 80
2, 218880, Note_on_c, 0, 62, 80
2, 220412, Note_off_c, 0, 62, 100
2, 220412, Note_off_c, 0, 74, 100
2, 220416, Note_on_c, 0, 76, 89
2, 220416, Note_on_c, 0, 64, 89
2, 220796, Note_off_c, 0, 76, 100
2, 220796, Note_off_c, 0, 64, 100
2, 220800, Note_on_c, 0, 78, 92
2, 220800, Note_on_c, 0, 66, 92
2, 221180, Note_off_c, 0, 78, 100
2, 221180, Note_off_c, 0, 66, 100
2, 221184, Note_on_c, 0, 81, 94
2, 221184, Note_on_c, 0, 69, 94
2, 221564, Note_off_c, 0, 81, 100
2, 221564, Note_off_c, 0, 69, 100
2, 221568, Note_on_c, 0, 79, 97
2, 221568, Note_on_c, 0, 67, 97
2, 223100, Note_off_c, 0, 67, 100
2, 223100, Note_off_c, 0, 79, 100
2, 223104, Note_on_c, 0, 78, 80
2, 223104, Note_on_c, 0, 66, 80
2, 223868, Note_off_c, 0, 66, 100
2, 223868, Note_off_c, 0, 78, 100
2, 223872, Note_on_c, 0, 76, 80
2, 223872, Note_on_c, 0, 64, 80
2, 224252, Note_off_c, 0, 76, 100
2, 224252, Note_off_c, 0, 64, 100
2, 224256, Note_on_c, 0, 74, 100
2, 224256, Note_on_c, 0, 62, 100
2, 225020, Note_off_c, 0, 62, 100
2, 225020, Note_off_c, 0, 74, 100
2, 225024, Note_on_c, 0, 73, 80
2, 225024, Note_on_c, 0, 61, 80
2, 225404, Note_off_c, 0, 73, 100
2, 225404, Note_off_c, 0, 61, 100
2, 225408, Note_on_c, 0, 69, 100
2, 225408, Note_on_c, 0, 57, 100
2, 225980, Note_off_c, 0, 57, 100
2, 225980, Note_off_c, 0, 69, 100
2, 225984, Note_on_c, 0, 62, 80
2, 226172, Note_off_c, 0, 62, 100
2, 226176, Note_on_c, 0, 66, 81
2, 226364, Note_off_c, 0, 66, 100
2, 226368, Note_on_c, 0, 69, 82
2, 226556, Note_off_c, 0, 69, 100
2, 226560, Note_on_c, 0, 74, 83
2, 226748, Note_off_c, 0, 74, 100
2, 226752, Note_on_c, 0, 78, 85
2, 226940, Note_off_c, 0, 78, 100
2, 226944, Note_on_c, 0, 81, 86
2, 226944, Note_on_c, 0, 69, 86
2, 227324, Note_off_c, 0, 81, 100
2, 227324, Note_off_c, 0, 69, 100
2, 227328, Note_on_c, 0, 79, 89
2, 227328, Note_on_c, 0, 67, 89
2, 227708, Note_off_c, 0, 79, 100
2, 227708, Note_off_c, 0, 67, 100
2, 227712, Note_on_c, 0, 78, 91
2, 227712, Note_on_c, 0, 66, 91
2, 228476, Note_off_c, 0, 66, 100
2, 228476, Note_off_c, 0, 78, 100
2, 228480, Note_on_c, 0, 76, 96
2, 228480, Note_on_c, 0, 64, 96
2, 228860, Note_off_c, 0, 76, 100
2, 228860, Note_off_c, 0, 64, 100
2, 228864, Note_on_c, 0, 74, 99
2, 228864, Note_on_c, 0, 62, 99
2, 229628, Note_off_c, 0, 62, 100
2, 229628, Note_off_c, 0, 74, 100
2, 229632, Note_on_c, 0, 73, 104
2, 229632, Note_on_c, 0, 61, 104
2, 230012, Note_off_c, 0, 73, 100
2, 230012, Note_off_c, 0, 61, 100
2, 230016, Note_on_c, 0, 76, 107
2, 230016, Note_on_c, 0, 64, 107
2, 230396, Note_off_c, 0, 76, 100
2, 230396, Note_off_c, 0, 64, 100
2, 230400, Note_on_c, 0, 74, 109
2, 230400, Note_on_c, 0, 62, 109
2, 230780, Note_off_c, 0, 74, 100
2, 230780, Note_off_c, 0, 62, 100
2, 231552, Note_on_c, 0, 71, 80
2, 231552, Note_on_c, 0, 66, 80
2, 232700, Note_off_c, 0, 71, 100
2, 232700, Note_off_c, 0, 66, 100
2, 232704, Note_on_c, 0, 69, 80
2, 232704, Note_on_c, 0, 64, 80
2, 233852, Note_off_c, 0, 64, 100
2, 233856, Note_on_c, 0, 62, 80
2, 234236, Note_off_c, 0, 69, 100
2, 234236, Note_off_c, 0, 62, 100
2, 234240, Note_on_c, 0, 68, 80
2, 234428, Note_off_c, 0, 68, 100
2, 234432, Note_on_c, 0, 71, 80
2, 234620, Note_off_c, 0, 71, 100
2, 234624, Note_on_c, 0, 74, 80
2, 235388, Note_off_c, 0, 74, 100
2, 235392, Note_on_c, 0, 73, 80
2, 235772, Note_off_c, 0, 73, 100
2, 236160, Note_on_c, 0, 78, 80
2, 236160, Note_on_c, 0, 73, 80
2, 237308, Note_off_c, 0, 78, 100
2, 237308, Note_off_c, 0, 73, 100
2, 237312, Note_on_c, 0, 76, 80
2, 237312, Note_on_c, 0, 71, 80
2, 238460, Note_off_c, 0, 71, 100
2, 238464, Note_on_c, 0, 69, 80
2, 238844, Note_off_c, 0, 76, 100
2, 238844, Note_off_c, 0, 69, 100
2, 238848, Note_on_c, 0, 75, 80
2, 239036, Note_off_c, 0, 75, 100
2, 239040, Note_on_c, 0, 78, 80
2, 239228, Note_off_c, 0, 78, 100
2, 239232, Note_on_c, 0, 81, 80
2, 239996, Note_off_c, 0, 81, 100
2, 240000, Note_on_c, 0, 80, 80
2, 240380, Note_off_c, 0, 80, 100
2, 240768, Note_on_c, 0, 66, 100
2, 240960, Note_on_c, 0, 71, 80
2, 241148, Note_off_c, 0, 71, 100
2, 241152, Note_on_c, 0, 70, 80
2, 241340, Note_off_c, 0, 70, 100
2, 241344, Note_on_c, 0, 71, 80
2, 241532, Note_off_c, 0, 71, 100
2, 241536, Note_on_c, 0, 73, 80
2, 241724, Note_off_c, 0, 73, 100
2, 241728, Note_on_c, 0, 71, 80
2, 241916, Note_off_c, 0, 71, 100
2, 241920, Note_on_c, 0, 69, 80
2, 242108, Note_off_c, 0, 66, 100
2, 242112, Note_on_c, 0, 64, 80
2, 242300, Note_off_c, 0, 64, 100
2, 242304, Note_on_c, 0, 63, 80
2, 242492, Note_off_c, 0, 63, 100
2, 242496, Note_on_c, 0, 64, 80
2, 242684, Note_off_c, 0, 64, 100
2, 242688, Note_on_c, 0, 66, 80
2, 242876, Note_off_c, 0, 66, 100
2, 242880, Note_on_c, 0, 64, 80
2, 243068, Note_off_c, 0, 69, 100
2, 243068, Note_off_c, 0, 64, 100
2, 243072, Note_on_c, 0, 62, 80
2, 243072, Note_on_c, 0, 68, 80
2, 243260, Note_off_c, 0, 68, 100
2, 243264, Note_on_c, 0, 69, 80
2, 243452, Note_off_c, 0, 62, 100
2, 243452, Note_off_c, 0, 69, 100
2, 243456, Note_on_c, 0, 71, 80
2, 243644, Note_off_c, 0, 71, 100
2, 243648, Note_on_c, 0, 73, 80
2, 243836, Note_off_c, 0, 73, 100
2, 243840, Note_on_c, 0, 74, 80
2, 244028, Note_off_c, 0, 74, 100
2, 244032, Note_on_c, 0, 76, 80
2, 244220, Note_off_c, 0, 76, 100
2, 244224, Note_on_c, 0, 74, 80
2, 244412, Note_off_c, 0, 74, 100
2, 244416, Note_on_c, 0, 73, 80
2, 244604, Note_off_c, 0, 73, 100
2, 244608, Note_on_c, 0, 71, 80
2, 244796, Note_off_c, 0, 71, 100
2, 244800, Note_on_c, 0, 69, 80
2, 244988, Note_off_c, 0, 69, 100
2, 244992, Note_on_c, 0, 68, 80
2, 245180, Note_off_c, 0, 68, 100
2, 245184, Note_on_c, 0, 69, 80
2, 245372, Note_off_c, 0, 69, 100
2, 245376, Note_on_c, 0, 73, 100
2, 245568, Note_on_c, 0, 78, 80
2, 245756, Note_off_c, 0, 78, 100
2, 245760, Note_on_c, 0, 77, 80
2, 245948, Note_off_c, 0, 77, 100
2, 245952, Note_on_c, 0, 78, 80
2, 246140, Note_off_c, 0, 78, 100
2, 246144, Note_on_c, 0, 80, 80
2, 246332, Note_off_c, 0, 80, 100
2, 246336, Note_on_c, 0, 78, 80
2, 246524, Note_off_c, 0, 78, 100
2, 246528, Note_on_c, 0, 76, 80
2, 246716, Note_off_c, 0, 73, 100
2, 246720, Note_on_c, 0, 71, 80
2, 246908, Note_off_c, 0, 71, 100
2, 246912, Note_on_c, 0, 70, 80
2, 247100, Note_off_c, 0, 70, 100
2, 247104, Note_on_c, 0, 71, 80
2, 247292, Note_off_c, 0, 71, 100
2, 247296, Note_on_c, 0, 73, 80
2, 247484, Note_off_c, 0, 73, 100
2, 247488, Note_on_c, 0, 71, 80
2, 247676, Note_off_c, 0, 76, 100
2, 247676, Note_off_c, 0, 71, 100
2, 247680, Note_on_c, 0, 69, 100
2, 247680, Note_on_c, 0, 75, 100
2, 247868, Note_off_c, 0, 75, 100
2, 247872, Note_on_c, 0, 76, 80
2, 248060, Note_off_c, 0, 69, 100
2, 248060, Note_off_c, 0, 76, 100
2, 248064, Note_on_c, 0, 78, 80
2, 248252, Note_off_c, 0, 78, 100
2, 248256, Note_on_c, 0, 80, 80
2, 248444, Note_off_c, 0, 80, 100
2, 248448, Note_on_c, 0, 81, 80
2, 248636, Note_off_c, 0, 81, 100
2, 248640, Note_on_c, 0, 83, 80
2, 248828, Note_off_c, 0, 83, 100
2, 248832, Note_on_c, 0, 81, 80
2, 249020, Note_off_c, 0, 81, 100
2, 249024, Note_on_c, 0, 80, 80
2, 249212, Note_off_c, 0, 80, 100
2, 249216, Note_on_c, 0, 78, 80
2, 249404, Note_off_c, 0, 78, 100
2, 249408, Note_on_c, 0, 76, 80
2, 249596, Note_off_c, 0, 76, 100
2, 249600, Note_on_c, 0, 75, 80
2, 249788, Note_off_c, 0, 75, 100
2, 249792, Note_on_c, 0, 76, 80
2, 249980, Note_off_c, 0, 76, 100
2, 249984, Note_on_c, 0, 75, 100
2, 250172, Note_off_c, 0, 75, 100
2, 250176, Note_on_c, 0, 76, 80
2, 250364, Note_off_c, 0, 76, 100
2, 250368, Note_on_c, 0, 78, 80
2, 250556, Note_off_c, 0, 78, 100
2, 250560, Note_on_c, 0, 80, 80
2, 250748, Note_off_c, 0, 80, 100
2, 250752, Note_on_c, 0, 81, 80
2, 250940, Note_off_c, 0, 81, 100
2, 250944, Note_on_c, 0, 83, 80
2, 251132, Note_off_c, 0, 83, 100
2, 251136, Note_on_c, 0, 81, 80
2, 251324, Note_off_c, 0, 81, 100
2, 251328, Note_on_c, 0, 80, 80
2, 251516, Note_off_c, 0, 80, 100
2, 251520, Note_on_c, 0, 78, 80
2, 251708, Note_off_c, 0, 78, 100
2, 251712, Note_on_c, 0, 76, 80
2, 251900, Note_off_c, 0, 76, 100
2, 251904, Note_on_c, 0, 75, 80
2, 252092, Note_off_c, 0, 75, 100
2, 252096, Note_on_c, 0, 76, 80
2, 252284, Note_off_c, 0, 76, 100
2, 252288, Note_on_c, 0, 75, 100
2, 252476, Note_off_c, 0, 75, 100
2, 252480, Note_on_c, 0, 76, 80
2, 252668, Note_off_c, 0, 76, 100
2, 252672, Note_on_c, 0, 78, 80
2, 252860, Note_off_c, 0, 78, 100
2, 252864, Note_on_c, 0, 80, 80
2, 253052, Note_off_c, 0, 80, 100
2, 253056, Note_on_c, 0, 81, 80
2, 253244, Note_off_c, 0, 81, 100
2, 253248, Note_on_c, 0, 83, 80
2, 253436, Note_off_c, 0, 83, 100
2, 253440, Note_on_c, 0, 81, 80
2, 253628, Note_off_c, 0, 81, 100
2, 253632, Note_on_c, 0, 80, 80
2, 253820, Note_off_c, 0, 80, 100
2, 253824, Note_on_c, 0, 78, 80
2, 254012, Note_off_c, 0, 78, 100
2, 254016, Note_on_c, 0, 76, 80
2, 254204, Note_off_c, 0, 76, 100
2, 254208, Note_on_c, 0, 75, 80
2, 254396, Note_off_c, 0, 75, 100
2, 254400, Note_on_c, 0, 73, 80
2, 254588, Note_off_c, 0, 73, 100
2, 254592, Note_on_c, 0, 71, 80
2, 254780, Note_off_c, 0, 71, 100
2, 254784, Note_on_c, 0, 69, 80
2, 254972, Note_off_c, 0, 69, 100
2, 254976, Note_on_c, 0, 68, 80
2, 255164, Note_off_c, 0, 68, 100
2, 255168, Note_on_c, 0, 66, 80
2, 255356, Note_off_c, 0, 66, 100
2, 255360, Note_on_c, 0, 64, 80
2, 255548, Note_off_c, 0, 64, 100
2, 255552, Note_on_c, 0, 63, 80
2, 255740, Note_off_c, 0, 63, 100
2, 255744, Note_on_c, 0, 64, 80
2, 258044, Note_off_c, 0, 64, 100
2, 258048, Note_on_c, 0, 65, 70
2, 258048, Note_on_c, 0, 59, 70
2, 258048, Note_on_c, 0, 56, 70
2, 259196, Note_off_c, 0, 65, 100
2, 259196, Note_off_c, 0, 59, 100
2, 259196, Note_off_c, 0, 56, 100
2, 259200, Note_on_c, 0, 66, 70
2, 259200, Note_on_c, 0, 61, 70
2, 259200, Note_on_c, 0, 57, 70
2, 260348, Note_off_c, 0, 66, 100
2, 260348, Note_off_c, 0, 61, 100
2, 260348, Note_off_c, 0, 57, 100
2, 260352, Note_on_c, 0, 68, 70
2, 260352, Note_on_c, 0, 65, 70
2, 260352, Note_on_c, 0, 59, 70
2, 261500, Note_off_c, 0, 68, 100
2, 261500, Note_off_c, 0, 65, 100
2, 261500, Note_off_c, 0, 59, 100
2, 261504, Note_on_c, 0, 69, 70
2, 261504, Note_on_c, 0, 66, 70
2, 261504, Note_on_c, 0, 61, 70
2, 262652, Note_off_c, 0, 69, 100
2, 262652, Note_off_c, 0, 66, 100
2, 262652, Note_off_c, 0, 61, 100
2, 262656, Note_on_c, 0, 70, 70
2, 262656, Note_on_c, 0, 67, 70
2, 262656, Note_on_c, 0, 64, 70
2, 262656, Note_on_c, 0, 61, 70
2, 263804, Note_off_c, 0, 70, 100
2, 263804, Note_off_c, 0, 67, 100
2, 263804, Note_off_c, 0, 64, 100
2, 263804, Note_off_c, 0, 61, 100
2, 263808, Note_on_c, 0, 71, 70
2, 263808, Note_on_c, 0, 66, 70
2, 263808, Note_on_c, 0, 62, 70
2, 264188, Note_off_c, 0, 71, 100
2, 264192, Note_on_c, 0, 73, 70
2, 264572, Note_off_c, 0, 73, 100
2, 264576, Note_on_c, 0, 74, 70
2, 264956, Note_off_c, 0, 66, 100
2, 264956, Note_off_c, 0, 62, 100
2, 264956, Note_off_c, 0, 74, 100
2, 264960, Note_on_c, 0, 69, 70
2, 264960, Note_on_c, 0, 64, 70
2, 264960, Note_on_c, 0, 61, 70
2, 265724, Note_off_c, 0, 69, 100
2, 265724, Note_off_c, 0, 64, 100
2, 265724, Note_off_c, 0, 61, 100
2, 265728, Note_on_c, 0, 68, 70
2, 265728, Note_on_c, 0, 62, 70
2, 265728, Note_on_c, 0, 59, 70
2, 266108, Note_off_c, 0, 68, 100
2, 266108, Note_off_c, 0, 62, 100
2, 266108, Note_off_c, 0, 59, 100
2, 266112, Note_on_c, 0, 69, 70
2, 266112, Note_on_c, 0, 61, 70
2, 266300, Note_off_c, 0, 69, 100
2, 266300, Note_off_c, 0, 61, 100
2, 266304, Note_on_c, 0, 73, 70
2, 266492, Note_off_c, 0, 73, 100
2, 266496, Note_on_c, 0, 71, 70
2, 266684, Note_off_c, 0, 71, 100
2, 266688, Note_on_c, 0, 69, 70
2, 266876, Note_off_c, 0, 69, 100
2, 266880, Note_on_c, 0, 68, 70
2, 267068, Note_off_c, 0, 68, 100
2, 267072, Note_on_c, 0, 66, 70
2, 267260, Note_off_c, 0, 66, 100
2, 267264, Note_on_c, 0, 65, 70
2, 268412, Note_off_c, 0, 65, 100
2, 268416, Note_on_c, 0, 66, 77
2, 269564, Note_off_c, 0, 66, 100
2, 269568, Note_on_c, 0, 68, 84
2, 269568, Note_on_c, 0, 65, 84
2, 270716, Note_off_c, 0, 68, 100
2, 270716, Note_off_c, 0, 65, 100
2, 270720, Note_on_c, 0, 69, 91
2, 270720, Note_on_c, 0, 66, 91
2, 271868, Note_off_c, 0, 69, 100
2, 271868, Note_off_c, 0, 66, 100
2, 271872, Note_on_c, 0, 71, 98
2, 271872, Note_on_c, 0, 66, 98
2, 273020, Note_off_c, 0, 71, 100
2, 273020, Note_off_c, 0, 66, 100
2, 273024, Note_on_c, 0, 72, 105
2, 273024, Note_on_c, 0, 66, 105
2, 274172, Note_off_c, 0, 72, 100
2, 274172, Note_off_c, 0, 66, 100
2, 274176, Note_on_c, 0, 73, 80
2, 274176, Note_on_c, 0, 65, 80
2, 274364, Note_off_c, 0, 65, 100
2, 274368, Note_on_c, 0, 68, 80
2, 274556, Note_off_c, 0, 68, 100
2, 274560, Note_on_c, 0, 65, 80
2, 274748, Note_off_c, 0, 65, 100
2, 274752, Note_on_c, 0, 68, 80
2, 274940, Note_off_c, 0, 68, 100
2, 274944, Note_on_c, 0, 65, 80
2, 275132, Note_off_c, 0, 65, 100
2, 275136, Note_on_c, 0, 68, 80
2, 275324, Note_off_c, 0, 68, 100
2, 275328, Note_on_c, 0, 65, 80
2, 275516, Note_off_c, 0, 65, 100
2, 275520, Note_on_c, 0, 68, 80
2, 275708, Note_off_c, 0, 68, 100
2, 275712, Note_on_c, 0, 65, 80
2, 275900, Note_off_c, 0, 65, 100
2, 275904, Note_on_c, 0, 68, 80
2, 276092, Note_off_c, 0, 73, 100
2, 276092, Note_off_c, 0, 68, 100
2, 276096, Note_on_c, 0, 66, 80
2, 276096, Note_on_c, 0, 72, 80
2, 276284, Note_off_c, 0, 66, 100
2, 276288, Note_on_c, 0, 68, 80
2, 276476, Note_off_c, 0, 72, 100
2, 276476, Note_off_c, 0, 68, 100
2, 276480, Note_on_c, 0, 73, 80
2, 276480, Note_on_c, 0, 65, 80
2, 276668, Note_off_c, 0, 65, 100
2, 276672, Note_on_c, 0, 68, 80
2, 276860, Note_off_c, 0, 68, 100
2, 276864, Note_on_c, 0, 65, 80
2, 277052, Note_off_c, 0, 65, 100
2, 277056, Note_on_c, 0, 68, 80
2, 277244, Note_off_c, 0, 73, 100
2, 277244, Note_off_c, 0, 68, 100
2, 277248, Note_on_c, 0, 66, 80
2, 277248, Note_on_c, 0, 72, 80
2, 277436, Note_off_c, 0, 66, 100
2, 277440, Note_on_c, 0, 68, 80
2, 277628, Note_off_c, 0, 72, 100
2, 277628, Note_off_c, 0, 68, 100
2, 277632, Note_on_c, 0, 73, 80
2, 277632, Note_on_c, 0, 65, 80
2, 277820, Note_off_c, 0, 65, 100
2, 277824, Note_on_c, 0, 68, 80
2, 278012, Note_off_c, 0, 68, 100
2, 278016, Note_on_c, 0, 65, 80
2, 278204, Note_off_c, 0, 65, 100
2, 278208, Note_on_c, 0, 68, 80
2, 278396, Note_off_c, 0, 73, 100
2, 278396, Note_off_c, 0, 68, 100
2, 278400, Note_on_c, 0, 66, 80
2, 278400, Note_on_c, 0, 72, 80
2, 278588, Note_off_c, 0, 66, 100
2, 278592, Note_on_c, 0, 68, 80
2, 278780, Note_off_c, 0, 72, 100
2, 278780, Note_off_c, 0, 68, 100
2, 278784, Note_on_c, 0, 73, 80
2, 278784, Note_on_c, 0, 65, 80
2, 278972, Note_off_c, 0, 65, 100
2, 278976, Note_on_c, 0, 68, 80
2, 279164, Note_off_c, 0, 68, 100
2, 279168, Note_on_c, 0, 65, 80
2, 279356, Note_off_c, 0, 65, 100
2, 279360, Note_on_c, 0, 68, 80
2, 279548, Note_off_c, 0, 68, 100
2, 279552, Note_on_c, 0, 65, 80
2, 279740, Note_off_c, 0, 65, 100
2, 279744, Note_on_c, 0, 68, 80
2, 279932, Note_off_c, 0, 68, 100
2, 279936, Note_on_c, 0, 65, 80
2, 280124, Note_off_c, 0, 65, 100
2, 280128, Note_on_c, 0, 68, 80
2, 280316, Note_off_c, 0, 68, 100
2, 280320, Note_on_c, 0, 65, 80
2, 280508, Note_off_c, 0, 65, 100
2, 280512, Note_on_c, 0, 68, 80
2, 280700, Note_off_c, 0, 73, 100
2, 280700, Note_off_c, 0, 68, 100
2, 280704, Note_on_c, 0, 65, 80
2, 280704, Note_on_c, 0, 73, 80
2, 280892, Note_off_c, 0, 65, 100
2, 280896, Note_on_c, 0, 68, 80
2, 281084, Note_off_c, 0, 73, 100
2, 281084, Note_off_c, 0, 68, 100
2, 281088, Note_on_c, 0, 74, 80
2, 281088, Note_on_c, 0, 65, 80
2, 281276, Note_off_c, 0, 65, 100
2, 281280, Note_on_c, 0, 68, 80
2, 281468, Note_off_c, 0, 68, 100
2, 281472, Note_on_c, 0, 65, 80
2, 281660, Note_off_c, 0, 65, 100
2, 281664, Note_on_c, 0, 68, 80
2, 281852, Note_off_c, 0, 74, 100
2, 281852, Note_off_c, 0, 68, 100
2, 281856, Note_on_c, 0, 73, 80
2, 281856, Note_on_c, 0, 65, 80
2, 282044, Note_off_c, 0, 65, 100
2, 282048, Note_on_c, 0, 68, 80
2, 282236, Note_off_c, 0, 73, 100
2, 282236, Note_off_c, 0, 68, 100
2, 282240, Note_on_c, 0, 65, 80
2, 282240, Note_on_c, 0, 74, 80
2, 282428, Note_off_c, 0, 65, 100
2, 282432, Note_on_c, 0, 68, 80
2, 282620, Note_off_c, 0, 68, 100
2, 282624, Note_on_c, 0, 65, 80
2, 282812, Note_off_c, 0, 65, 100
2, 282816, Note_on_c, 0, 68, 80
2, 283004, Note_off_c, 0, 74, 100
2, 283004, Note_off_c, 0, 68, 100
2, 283008, Note_on_c, 0, 65, 80
2, 283008, Note_on_c, 0, 73, 80
2, 283196, Note_off_c, 0, 65, 100
2, 283200, Note_on_c, 0, 68, 80
2, 283388, Note_off_c, 0, 73, 100
2, 283388, Note_off_c, 0, 68, 100
2, 283392, Note_on_c, 0, 74, 80
2, 283392, Note_on_c, 0, 65, 80
2, 283580, Note_off_c, 0, 65, 100
2, 283584, Note_on_c, 0, 68, 80
2, 283772, Note_off_c, 0, 68, 100
2, 283776, Note_on_c, 0, 65, 80
2, 283964, Note_off_c, 0, 65, 100
2, 283968, Note_on_c, 0, 68, 80
2, 284156, Note_off_c, 0, 68, 100
2, 284160, Note_on_c, 0, 65, 80
2, 284348, Note_off_c, 0, 65, 100
2, 284352, Note_on_c, 0, 68, 80
2, 284540, Note_off_c, 0, 68, 100
2, 284544, Note_on_c, 0, 65, 80
2, 284732, Note_off_c, 0, 65, 100
2, 284736, Note_on_c, 0, 68, 80
2, 284924, Note_off_c, 0, 68, 100
2, 284928, Note_on_c, 0, 65, 80
2, 285116, Note_off_c, 0, 65, 100
2, 285120, Note_on_c, 0, 68, 80
2, 285308, Note_off_c, 0, 68, 100
2, 285312, Note_on_c, 0, 65, 80
2, 285500, Note_off_c, 0, 65, 100
2, 285504, Note_on_c, 0, 68, 80
2, 285692, Note_off_c, 0, 74, 100
2, 285692, Note_off_c, 0, 68, 100
2, 285696, Note_on_c, 0, 74, 80
2, 285696, Note_on_c, 0, 64, 80
2, 285884, Note_off_c, 0, 64, 100
2, 285888, Note_on_c, 0, 68, 80
2, 286076, Note_off_c, 0, 68, 100
2, 286080, Note_on_c, 0, 64, 81
2, 286268, Note_off_c, 0, 64, 100
2, 286272, Note_on_c, 0, 68, 82
2, 286460, Note_off_c, 0, 74, 100
2, 286460, Note_off_c, 0, 68, 100
2, 286464, Note_on_c, 0, 73, 83
2, 286464, Note_on_c, 0, 64, 83
2, 286652, Note_off_c, 0, 64, 100
2, 286656, Note_on_c, 0, 68, 84
2, 286844, Note_off_c, 0, 73, 100
2, 286844, Note_off_c, 0, 68, 100
2, 286848, Note_on_c, 0, 74, 85
2, 286848, Note_on_c, 0, 64, 85
2, 287036, Note_off_c, 0, 64, 100
2, 287040, Note_on_c, 0, 68, 86
2, 287228, Note_off_c, 0, 68, 100
2, 287232, Note_on_c, 0, 64, 87
2, 287420, Note_off_c, 0, 64, 100
2, 287424, Note_on_c, 0, 68, 88
2, 287612, Note_off_c, 0, 74, 100
2, 287612, Note_off_c, 0, 68, 100
2, 287616, Note_on_c, 0, 73, 89
2, 287616, Note_on_c, 0, 64, 89
2, 287804, Note_off_c, 0, 64, 100
2, 287808, Note_on_c, 0, 68, 90
2, 287996, Note_off_c, 0, 73, 100
2, 287996, Note_off_c, 0, 68, 100
2, 288000, Note_on_c, 0, 74, 91
2, 288000, Note_on_c, 0, 64, 91
2, 288188, Note_off_c, 0, 64, 100
2, 288192, Note_on_c, 0, 68, 92
2, 288380, Note_off_c, 0, 68, 100
2, 288384, Note_on_c, 0, 64, 93
2, 288572, Note_off_c, 0, 64, 100
2, 288576, Note_on_c, 0, 68, 94
2, 288764, Note_off_c, 0, 68, 100
2, 288768, Note_on_c, 0, 64, 95
2, 288956, Note_off_c, 0, 64, 100
2, 288960, Note_on_c, 0, 68, 96
2, 289148, Note_off_c, 0, 68, 100
2, 289152, Note_on_c, 0, 64, 97
2, 289340, Note_off_c, 0, 64, 100
2, 289344, Note_on_c, 0, 68, 98
2, 289532, Note_off_c, 0, 68, 100
2, 289536, Note_on_c, 0, 64, 99
2, 289724, Note_off_c, 0, 64, 100
2, 289728, Note_on_c, 0, 68, 99
2, 289916, Note_off_c, 0, 74, 100
2, 289916, Note_off_c, 0, 68, 100
2, 289920, Note_on_c, 0, 64, 80
2, 289920, Note_on_c, 0, 74, 80
2, 290108, Note_off_c, 0, 64, 100
2, 290112, Note_on_c, 0, 68, 80
2, 290300, Note_off_c, 0, 74, 100
2, 290300, Note_off_c, 0, 68, 100
2, 290304, Note_on_c, 0, 73, 80
2, 290304, Note_on_c, 0, 61, 80
2, 290492, Note_off_c, 0, 61, 100
2, 290496, Note_on_c, 0, 64, 80
2, 290684, Note_off_c, 0, 64, 100
2, 290688, Note_on_c, 0, 61, 80
2, 290876, Note_off_c, 0, 61, 100
2, 290880, Note_on_c, 0, 64, 80
2, 291068, Note_off_c, 0, 73, 100
2, 291068, Note_off_c, 0, 64, 100
2, 291072, Note_on_c, 0, 74, 80
2, 291072, Note_on_c, 0, 62, 80
2, 291260, Note_off_c, 0, 62, 100
2, 291264, Note_on_c, 0, 64, 80
2, 291452, Note_off_c, 0, 74, 100
2, 291452, Note_off_c, 0, 64, 100
2, 291456, Note_on_c, 0, 73, 80
2, 291456, Note_on_c, 0, 61, 80
2, 291644, Note_off_c, 0, 61, 100
2, 291648, Note_on_c, 0, 64, 80
2, 291836, Note_off_c, 0, 64, 100
2, 291840, Note_on_c, 0, 61, 80
2, 292028, Note_off_c, 0, 61, 100
2, 292032, Note_on_c, 0, 64, 80
2, 292220, Note_off_c, 0, 73, 100
2, 292220, Note_off_c, 0, 64, 100
2, 292224, Note_on_c, 0, 71, 80
2, 292224, Note_on_c, 0, 59, 80
2, 292412, Note_off_c, 0, 59, 100
2, 292416, Note_on_c, 0, 65, 80
2, 292604, Note_off_c, 0, 71, 100
2, 292604, Note_off_c, 0, 65, 100
2, 292608, Note_on_c, 0, 69, 80
2, 292608, Note_on_c, 0, 57, 80
2, 292796, Note_off_c, 0, 57, 100
2, 292800, Note_on_c, 0, 61, 80
2, 292988, Note_off_c, 0, 61, 100
2, 292992, Note_on_c, 0, 57, 80
2, 293180, Note_off_c, 0, 57, 100
2, 293184, Note_on_c, 0, 61, 80
2, 293372, Note_off_c, 0, 61, 100
2, 293376, Note_on_c, 0, 57, 80
2, 293564, Note_off_c, 0, 57, 100
2, 293568, Note_on_c, 0, 61, 80
2, 293756, Note_off_c, 0, 61, 100
2, 293760, Note_on_c, 0, 57, 80
2, 293948, Note_off_c, 0, 57, 100
2, 293952, Note_on_c, 0, 61, 80
2, 294140, Note_off_c, 0, 61, 100
2, 294144, Note_on_c, 0, 57, 80
2, 294332, Note_off_c, 0, 57, 100
2, 294336, Note_on_c, 0, 61, 80
2, 294524, Note_off_c, 0, 69, 100
2, 294524, Note_off_c, 0, 61, 100
2, 294528, Note_on_c, 0, 71, 80
2, 294528, Note_on_c, 0, 59, 80
2, 294716, Note_off_c, 0, 59, 100
2, 294720, Note_on_c, 0, 61, 80
2, 294908, Note_off_c, 0, 71, 100
2, 294908, Note_off_c, 0, 61, 100
2, 294912, Note_on_c, 0, 69, 80
2, 294912, Note_on_c, 0, 57, 80
2, 295100, Note_off_c, 0, 57, 100
2, 295104, Note_on_c, 0, 61, 80
2, 295292, Note_off_c, 0, 61, 100
2, 295296, Note_on_c, 0, 57, 80
2, 295484, Note_off_c, 0, 57, 100
2, 295488, Note_on_c, 0, 61, 80
2, 295676, Note_off_c, 0, 69, 100
2, 295676, Note_off_c, 0, 61, 100
2, 295680, Note_on_c, 0, 71, 80
2, 295680, Note_on_c, 0, 59, 80
2, 295868, Note_off_c, 0, 59, 100
2, 295872, Note_on_c, 0, 61, 80
2, 296060, Note_off_c, 0, 71, 100
2, 296060, Note_off_c, 0, 61, 100
2, 296064, Note_on_c, 0, 69, 80
2, 296064, Note_on_c, 0, 57, 80
2, 296252, Note_off_c, 0, 57, 100
2, 296256, Note_on_c, 0, 61, 80
2, 296444, Note_off_c, 0, 61, 100
2, 296448, Note_on_c, 0, 57, 80
2, 296636, Note_off_c, 0, 57, 100
2, 296640, Note_on_c, 0, 61, 80
2, 296828, Note_off_c, 0, 69, 100
2, 296828, Note_off_c, 0, 61, 100
2, 296832, Note_on_c, 0, 67, 80
2, 296832, Note_on_c, 0, 55, 80
2, 297020, Note_off_c, 0, 55, 100
2, 297024, Note_on_c, 0, 61, 80
2, 297212, Note_off_c, 0, 67, 100
2, 297212, Note_off_c, 0, 61, 100
2, 297216, Note_on_c, 0, 66, 80
2, 297216, Note_on_c, 0, 54, 80
2, 297404, Note_off_c, 0, 54, 100
2, 297408, Note_on_c, 0, 57, 80
2, 297596, Note_off_c, 0, 57, 100
2, 297600, Note_on_c, 0, 54, 81
2, 297788, Note_off_c, 0, 54, 100
2, 297792, Note_on_c, 0, 57, 82
2, 297980, Note_off_c, 0, 57, 100
2, 297984, Note_on_c, 0, 54, 83
2, 298172, Note_off_c, 0, 54, 100
2, 298176, Note_on_c, 0, 57, 84
2, 298364, Note_off_c, 0, 57, 100
2, 298368, Note_on_c, 0, 54, 84
2, 298556, Note_off_c, 0, 54, 100
2, 298560, Note_on_c, 0, 57, 85
2, 298748, Note_off_c, 0, 57, 100
2, 298752, Note_on_c, 0, 54, 86
2, 298940, Note_off_c, 0, 54, 100
2, 298944, Note_on_c, 0, 57, 87
2, 299132, Note_off_c, 0, 66, 100
2, 299132, Note_off_c, 0, 57, 100
2, 299136, Note_on_c, 0, 67, 88
2, 299136, Note_on_c, 0, 55, 88
2, 299324, Note_off_c, 0, 55, 100
2, 299328, Note_on_c, 0, 57, 89
2, 299516, Note_off_c, 0, 67, 100
2, 299516, Note_off_c, 0, 57, 100
2, 299520, Note_on_c, 0, 66, 89
2, 299520, Note_on_c, 0, 54, 89
2, 299708, Note_off_c, 0, 54, 100
2, 299712, Note_on_c, 0, 57, 90
2, 299900, Note_off_c, 0, 57, 100
2, 299904, Note_on_c, 0, 54, 91
2, 300092, Note_off_c, 0, 54, 100
2, 300096, Note_on_c, 0, 57, 92
2, 300284, Note_off_c, 0, 66, 100
2, 300284, Note_off_c, 0, 57, 100
2, 300288, Note_on_c, 0, 67, 93
2, 300288, Note_on_c, 0, 55, 93
2, 300476, Note_off_c, 0, 55, 100
2, 300480, Note_on_c, 0, 57, 94
2, 300668, Note_off_c, 0, 67, 100
2, 300668, Note_off_c, 0, 57, 100
2, 300672, Note_on_c, 0, 66, 94
2, 300672, Note_on_c, 0, 54, 94
2, 300860, Note_off_c, 0, 54, 100
2, 300864, Note_on_c, 0, 57, 95
2, 301052, Note_off_c, 0, 57, 100
2, 301056, Note_on_c, 0, 54, 96
2, 301244, Note_off_c, 0, 54, 100
2, 301248, Note_on_c, 0, 57, 97
2, 301436, Note_off_c, 0, 66, 100
2, 301436, Note_off_c, 0, 57, 100
2, 301440, Note_on_c, 0, 68, 110
2, 301440, Note_on_c, 0, 56, 110
2, 301628, Note_off_c, 0, 56, 100
2, 301632, Note_on_c, 0, 62, 99
2, 301820, Note_off_c, 0, 68, 100
2, 301820, Note_off_c, 0, 62, 100
2, 301824, Note_on_c, 0, 69, 99
2, 301824, Note_on_c, 0, 57, 99
2, 302012, Note_off_c, 0, 57, 100
2, 302016, Note_on_c, 0, 64, 100
2, 302204, Note_off_c, 0, 64, 100
2, 302208, Note_on_c, 0, 57, 101
2, 302396, Note_off_c, 0, 57, 100
2, 302400, Note_on_c, 0, 64, 102
2, 302588, Note_off_c, 0, 69, 100
2, 302588, Note_off_c, 0, 64, 100
2, 302592, Note_on_c, 0, 71, 110
2, 302592, Note_on_c, 0, 59, 110
2, 302780, Note_off_c, 0, 59, 100
2, 302784, Note_on_c, 0, 64, 104
2, 302972, Note_off_c, 0, 71, 100
2, 302972, Note_off_c, 0, 64, 100
2, 302976, Note_on_c, 0, 73, 104
2, 302976, Note_on_c, 0, 61, 104
2, 303164, Note_off_c, 0, 61, 100
2, 303168, Note_on_c, 0, 64, 105
2, 303356, Note_off_c, 0, 64, 100
2, 303360, Note_on_c, 0, 61, 106
2, 303548, Note_off_c, 0, 61, 100
2, 303552, Note_on_c, 0, 64, 107
2, 303740, Note_off_c, 0, 73, 100
2, 303740, Note_off_c, 0, 64, 100
2, 303744, Note_on_c, 0, 74, 110
2, 303744, Note_on_c, 0, 62, 110
2, 303932, Note_off_c, 0, 62, 100
2, 303936, Note_on_c, 0, 69, 109
2, 304124, Note_off_c, 0, 74, 100
2, 304124, Note_off_c, 0, 69, 100
2, 304128, Note_on_c, 0, 76, 109
2, 304128, Note_on_c, 0, 69, 109
2, 304128, Note_on_c, 0, 64, 109
2, 305276, Note_off_c, 0, 76, 100
2, 305276, Note_off_c, 0, 69, 100
2, 305276, Note_off_c, 0, 64, 100
2, 305280, Note_on_c, 0, 76, 110
2, 305408, Note_on_c, 0, 75, 110
2, 305520, Note_off_c, 0, 76, 100
2, 305536, Note_on_c, 0, 78, 110
2, 305648, Note_off_c, 0, 75, 100
2, 305664, Note_on_c, 0, 76, 110
2, 305784, Note_off_c, 0, 78, 100
2, 305792, Note_on_c, 0, 74, 110
2, 305888, Note_off_c, 0, 76, 100
2, 305920, Note_on_c, 0, 73, 110
2, 306008, Note_off_c, 0, 74, 100
2, 306048, Note_on_c, 0, 71, 110
2, 306116, Note_on_c, 0, 69, 110
2, 306168, Note_off_c, 0, 73, 100
2, 306188, Note_on_c, 0, 68, 110
2, 306232, Note_off_c, 0, 71, 100
2, 306260, Note_on_c, 0, 66, 110
2, 306292, Note_off_c, 0, 69, 100
2, 306336, Note_on_c, 0, 64, 110
2, 306376, Note_off_c, 0, 68, 100
2, 306428, Note_off_c, 0, 64, 100
2, 306432, Note_on_c, 0, 81, 110
2, 306448, Note_off_c, 0, 66, 100
2, 307580, Note_off_c, 0, 81, 100
2, 307584, Note_on_c, 0, 81, 110
2, 307712, Note_on_c, 0, 80, 110
2, 307816, Note_off_c, 0, 81, 100
2, 307840, Note_on_c, 0, 83, 110
2, 307928, Note_off_c, 0, 80, 100
2, 307968, Note_on_c, 0, 81, 110
2, 308056, Note_off_c, 0, 83, 100
2, 308096, Note_on_c, 0, 80, 110
2, 308180, Note_off_c, 0, 81, 100
2, 308224, Note_on_c, 0, 78, 110
2, 308320, Note_off_c, 0, 80, 100
2, 308352, Note_on_c, 0, 76, 110
2, 308424, Note_on_c, 0, 75, 110
2, 308452, Note_off_c, 0, 78, 100
2, 308496, Note_on_c, 0, 73, 110
2, 308516, Note_off_c, 0, 76, 100
2, 308568, Note_on_c, 0, 71, 110
2, 308612, Note_off_c, 0, 75, 100
2, 308640, Note_on_c, 0, 69, 110
2, 308684, Note_off_c, 0, 73, 100
2, 308732, Note_off_c, 0, 69, 100
2, 308736, Note_on_c, 0, 81, 110
2, 308748, Note_off_c, 0, 71, 100
2, 308864, Note_on_c, 0, 80, 110
2, 308980, Note_off_c, 0, 81, 100
2, 308992, Note_on_c, 0, 83, 110
2, 309088, Note_off_c, 0, 80, 100
2, 309120, Note_on_c, 0, 81, 110
2, 309224, Note_off_c, 0, 83, 100
2, 309248, Note_on_c, 0, 80, 110
2, 309352, Note_off_c, 0, 81, 100
2, 309376, Note_on_c, 0, 78, 110
2, 309468, Note_off_c, 0, 80, 100
2, 309504, Note_on_c, 0, 76, 110
2, 309576, Note_on_c, 0, 74, 110
2, 309620, Note_off_c, 0, 78, 100
2, 309648, Note_on_c, 0, 73, 110
2, 309688, Note_off_c, 0, 76, 100
2, 309720, Note_on_c, 0, 71, 110
2, 309744, Note_off_c, 0, 74, 100
2, 309792, Note_on_c, 0, 69, 110
2, 309816, Note_off_c, 0, 73, 100
2, 309884, Note_off_c, 0, 69, 100
2, 309888, Note_on_c, 0, 76, 110
2, 309892, Note_off_c, 0, 71, 100
2, 310016, Note_on_c, 0, 75, 110
2, 310136, Note_off_c, 0, 76, 100
2, 310144, Note_on_c, 0, 78, 110
2, 310252, Note_off_c, 0, 75, 100
2, 310272, Note_on_c, 0, 76, 110
2, 310368, Note_off_c, 0, 78, 100
2, 310400, Note_on_c, 0, 74, 110
2, 310516, Note_off_c, 0, 76, 100
2, 310528, Note_on_c, 0, 73, 110
2, 310644, Note_off_c, 0, 74, 100
2, 310656, Note_on_c, 0, 71, 110
2, 310728, Note_on_c, 0, 69, 110
2, 310764, Note_off_c, 0, 73, 100
2, 310800, Note_on_c, 0, 68, 110
2, 310844, Note_off_c, 0, 71, 100
2, 310872, Note_on_c, 0, 66, 110
2, 310908, Note_off_c, 0, 69, 100
2, 310944, Note_on_c, 0, 64, 110
2, 310988, Note_off_c, 0, 68, 100
2, 311036, Note_off_c, 0, 64, 100
2, 311040, Note_on_c, 0, 76, 80
2, 311040, Note_on_c, 0, 64, 80
2, 311060, Note_off_c, 0, 66, 100
2, 311228, Note_off_c, 0, 64, 100
2, 311232, Note_on_c, 0, 69, 80
2, 311420, Note_off_c, 0, 69, 100
2, 311424, Note_on_c, 0, 64, 80
2, 311612, Note_off_c, 0, 64, 100
2, 311616, Note_on_c, 0, 69, 80
2, 311804, Note_off_c, 0, 69, 100
2, 311808, Note_on_c, 0, 64, 80
2, 311996, Note_off_c, 0, 64, 100
2, 312000, Note_on_c, 0, 69, 80
2, 312188, Note_off_c, 0, 69, 100
2, 312192, Note_on_c, 0, 64, 80
2, 312380, Note_off_c, 0, 64, 100
2, 312384, Note_on_c, 0, 69, 80
2, 312572, Note_off_c, 0, 69, 100
2, 312576, Note_on_c, 0, 64, 80
2, 312764, Note_off_c, 0, 64, 100
2, 312768, Note_on_c, 0, 69, 80
2, 312956, Note_off_c, 0, 76, 100
2, 312956, Note_off_c, 0, 69, 100
2, 312960, Note_on_c, 0, 75, 80
2, 312960, Note_on_c, 0, 63, 80
2, 313148, Note_off_c, 0, 63, 100
2, 313152, Note_on_c, 0, 69, 80
2, 313340, Note_off_c, 0, 75, 100
2, 313340, Note_off_c, 0, 69, 100
2, 313344, Note_on_c, 0, 76, 80
2, 313344, Note_on_c, 0, 64, 80
2, 313532, Note_off_c, 0, 64, 100
2, 313536, Note_on_c, 0, 69, 80
2, 313724, Note_off_c, 0, 69, 100
2, 313728, Note_on_c, 0, 64, 80
2, 313916, Note_off_c, 0, 64, 100
2, 313920, Note_on_c, 0, 69, 80
2, 314108, Note_off_c, 0, 76, 100
2, 314108, Note_off_c, 0, 69, 100
2, 314112, Note_on_c, 0, 78, 80
2, 314112, Note_on_c, 0, 66, 80
2, 314300, Note_off_c, 0, 66, 100
2, 314304, Note_on_c, 0, 69, 80
2, 314492, Note_off_c, 0, 78, 100
2, 314492, Note_off_c, 0, 69, 100
2, 314496, Note_on_c, 0, 76, 80
2, 314496, Note_on_c, 0, 64, 80
2, 314684, Note_off_c, 0, 64, 100
2, 314688, Note_on_c, 0, 69, 80
2, 314876, Note_off_c, 0, 69, 100
2, 314880, Note_on_c, 0, 64, 80
2, 315068, Note_off_c, 0, 64, 100
2, 315072, Note_on_c, 0, 69, 80
2, 315260, Note_off_c, 0, 76, 100
2, 315260, Note_off_c, 0, 69, 100
2, 315264, Note_on_c, 0, 74, 80
2, 315264, Note_on_c, 0, 62, 80
2, 315452, Note_off_c, 0, 62, 100
2, 315456, Note_on_c, 0, 68, 80
2, 315644, Note_off_c, 0, 74, 100
2, 315644, Note_off_c, 0, 68, 100
2, 315648, Note_on_c, 0, 73, 80
2, 315648, Note_on_c, 0, 61, 80
2, 315836, Note_off_c, 0, 61, 100
2, 315840, Note_on_c, 0, 64, 80
2, 316028, Note_off_c, 0, 64, 100
2, 316032, Note_on_c, 0, 61, 80
2, 316220, Note_off_c, 0, 61, 100
2, 316224, Note_on_c, 0, 64, 80
2, 316412, Note_off_c, 0, 64, 100
2, 316416, Note_on_c, 0, 61, 80
2, 316604, Note_off_c, 0, 61, 100
2, 316608, Note_on_c, 0, 64, 80
2, 316796, Note_off_c, 0, 64, 100
2, 316800, Note_on_c, 0, 61, 80
2, 316988, Note_off_c, 0, 61, 100
2, 316992, Note_on_c, 0, 64, 80
2, 317180, Note_off_c, 0, 64, 100
2, 317184, Note_on_c, 0, 61, 80
2, 317372, Note_off_c, 0, 61, 100
2, 317376, Note_on_c, 0, 64, 80
2, 317564, Note_off_c, 0, 73, 100
2, 317564, Note_off_c, 0, 64, 100
2, 317568, Note_on_c, 0, 72, 80
2, 317568, Note_on_c, 0, 60, 80
2, 317756, Note_off_c, 0, 60, 100
2, 317760, Note_on_c, 0, 64, 80
2, 317948, Note_off_c, 0, 72, 100
2, 317948, Note_off_c, 0, 64, 100
2, 317952, Note_on_c, 0, 73, 80
2, 317952, Note_on_c, 0, 61, 80
2, 318140, Note_off_c, 0, 61, 100
2, 318144, Note_on_c, 0, 64, 80
2, 318332, Note_off_c, 0, 64, 100
2, 318336, Note_on_c, 0, 61, 80
2, 318524, Note_off_c, 0, 61, 100
2, 318528, Note_on_c, 0, 64, 80
2, 318716, Note_off_c, 0, 73, 100
2, 318716, Note_off_c, 0, 64, 100
2, 318720, Note_on_c, 0, 62, 80
2, 318720, Note_on_c, 0, 74, 80
2, 318908, Note_off_c, 0, 62, 100
2, 318912, Note_on_c, 0, 64, 80
2, 319100, Note_off_c, 0, 74, 100
2, 319100, Note_off_c, 0, 64, 100
2, 319104, Note_on_c, 0, 73, 80
2, 319104, Note_on_c, 0, 61, 80
2, 319292, Note_off_c, 0, 61, 100
2, 319296, Note_on_c, 0, 64, 80
2, 319484, Note_off_c, 0, 64, 100
2, 319488, Note_on_c, 0, 61, 80
2, 319676, Note_off_c, 0, 61, 100
2, 319680, Note_on_c, 0, 64, 80
2, 319868, Note_off_c, 0, 73, 100
2, 319868, Note_off_c, 0, 64, 100
2, 319872, Note_on_c, 0, 71, 80
2, 319872, Note_on_c, 0, 59, 80
2, 320060, Note_off_c, 0, 59, 100
2, 320064, Note_on_c, 0, 65, 80
2, 320252, Note_off_c, 0, 71, 100
2, 320252, Note_off_c, 0, 65, 100
2, 320256, Note_on_c, 0, 69, 80
2, 320256, Note_on_c, 0, 57, 80
2, 320444, Note_off_c, 0, 57, 100
2, 320448, Note_on_c, 0, 61, 80
2, 320636, Note_off_c, 0, 61, 100
2, 320640, Note_on_c, 0, 57, 81
2, 320828, Note_off_c, 0, 57, 100
2, 320832, Note_on_c, 0, 61, 81
2, 321020, Note_off_c, 0, 61, 100
2, 321024, Note_on_c, 0, 57, 82
2, 321212, Note_off_c, 0, 57, 100
2, 321216, Note_on_c, 0, 61, 83
2, 321404, Note_off_c, 0, 61, 100
2, 321408, Note_on_c, 0, 57, 83
2, 321596, Note_off_c, 0, 57, 100
2, 321600, Note_on_c, 0, 61, 84
2, 321788, Note_off_c, 0, 61, 100
2, 321792, Note_on_c, 0, 57, 85
2, 321980, Note_off_c, 0, 57, 100
2, 321984, Note_on_c, 0, 61, 85
2, 322172, Note_off_c, 0, 69, 100
2, 322172, Note_off_c, 0, 61, 100
2, 322176, Note_on_c, 0, 68, 86
2, 322176, Note_on_c, 0, 56, 86
2, 322364, Note_off_c, 0, 56, 100
2, 322368, Note_on_c, 0, 61, 87
2, 322556, Note_off_c, 0, 68, 100
2, 322556, Note_off_c, 0, 61, 100
2, 322560, Note_on_c, 0, 69, 87
2, 322560, Note_on_c, 0, 57, 87
2, 322748, Note_off_c, 0, 57, 100
2, 322752, Note_on_c, 0, 61, 88
2, 322940, Note_off_c, 0, 61, 100
2, 322944, Note_on_c, 0, 57, 89
2, 323132, Note_off_c, 0, 57, 100
2, 323136, Note_on_c, 0, 61, 89
2, 323324, Note_off_c, 0, 69, 100
2, 323324, Note_off_c, 0, 61, 100
2, 323328, Note_on_c, 0, 68, 90
2, 323328, Note_on_c, 0, 56, 90
2, 323516, Note_off_c, 0, 56, 100
2, 323520, Note_on_c, 0, 61, 90
2, 323708, Note_off_c, 0, 68, 100
2, 323708, Note_off_c, 0, 61, 100
2, 323712, Note_on_c, 0, 69, 91
2, 323712, Note_on_c, 0, 57, 91
2, 323900, Note_off_c, 0, 57, 100
2, 323904, Note_on_c, 0, 61, 92
2, 324092, Note_off_c, 0, 61, 100
2, 324096, Note_on_c, 0, 57, 92
2, 324284, Note_off_c, 0, 57, 100
2, 324288, Note_on_c, 0, 61, 93
2, 324476, Note_off_c, 0, 69, 100
2, 324476, Note_off_c, 0, 61, 100
2, 324480, Note_on_c, 0, 70, 94
2, 324480, Note_on_c, 0, 58, 94
2, 324668, Note_off_c, 0, 58, 100
2, 324672, Note_on_c, 0, 66, 94
2, 324860, Note_off_c, 0, 70, 100
2, 324860, Note_off_c, 0, 66, 100
2, 324864, Note_on_c, 0, 71, 95
2, 324864, Note_on_c, 0, 59, 95
2, 325052, Note_off_c, 0, 59, 100
2, 325056, Note_on_c, 0, 66, 96
2, 325244, Note_off_c, 0, 66, 100
2, 325248, Note_on_c, 0, 59, 96
2, 325436, Note_off_c, 0, 59, 100
2, 325440, Note_on_c, 0, 66, 97
2, 325628, Note_off_c, 0, 71, 100
2, 325628, Note_off_c, 0, 66, 100
2, 325632, Note_on_c, 0, 73, 110
2, 325632, Note_on_c, 0, 61, 110
2, 325820, Note_off_c, 0, 61, 100
2, 325824, Note_on_c, 0, 66, 98
2, 326012, Note_off_c, 0, 73, 100
2, 326012, Note_off_c, 0, 66, 100
2, 326016, Note_on_c, 0, 74, 99
2, 326016, Note_on_c, 0, 62, 99
2, 326204, Note_off_c, 0, 62, 100
2, 326208, Note_on_c, 0, 66, 100
2, 326396, Note_off_c, 0, 66, 100
2, 326400, Note_on_c, 0, 62, 100
2, 326588, Note_off_c, 0, 62, 100
2, 326592, Note_on_c, 0, 66, 101
2, 326780, Note_off_c, 0, 74, 100
2, 326780, Note_off_c, 0, 66, 100
2, 326784, Note_on_c, 0, 75, 110
2, 326784, Note_on_c, 0, 63, 110
2, 326972, Note_off_c, 0, 63, 100
2, 326976, Note_on_c, 0, 71, 102
2, 327164, Note_off_c, 0, 75, 100
2, 327164, Note_off_c, 0, 71, 100
2, 327168, Note_on_c, 0, 76, 103
2, 327168, Note_on_c, 0, 64, 103
2, 327356, Note_off_c, 0, 64, 100
2, 327360, Note_on_c, 0, 71, 103
2, 327548, Note_off_c, 0, 71, 100
2, 327552, Note_on_c, 0, 64, 104
2, 327740, Note_off_c, 0, 64, 100
2, 327744, Note_on_c, 0, 71, 105
2, 327932, Note_off_c, 0, 76, 100
2, 327932, Note_off_c, 0, 71, 100
2, 327936, Note_on_c, 0, 78, 110
2, 327936, Note_on_c, 0, 66, 110
2, 328124, Note_off_c, 0, 66, 100
2, 328128, Note_on_c, 0, 71, 106
2, 328316, Note_off_c, 0, 78, 100
2, 328316, Note_off_c, 0, 71, 100
2, 328320, Note_on_c, 0, 79, 107
2, 328320, Note_on_c, 0, 67, 107
2, 328508, Note_off_c, 0, 67, 100
2, 328512, Note_on_c, 0, 71, 107
2, 328700, Note_off_c, 0, 71, 100
2, 328704, Note_on_c, 0, 67, 108
2, 328892, Note_off_c, 0, 67, 100
2, 328896, Note_on_c, 0, 71, 109
2, 329084, Note_off_c, 0, 79, 100
2, 329084, Note_off_c, 0, 71, 100
2, 329088, Note_on_c, 0, 80, 110
2, 329088, Note_on_c, 0, 68, 110
2, 329276, Note_off_c, 0, 68, 100
2, 329280, Note_on_c, 0, 76, 110
2, 329468, Note_off_c, 0, 80, 100
2, 329468, Note_off_c, 0, 76, 100
2, 329472, Note_on_c, 0, 81, 110
2, 329472, Note_on_c, 0, 76, 110
2, 329472, Note_on_c, 0, 69, 110
2, 330620, Note_off_c, 0, 81, 100
2, 330620, Note_off_c, 0, 76, 100
2, 330620, Note_off_c, 0, 69, 100
2, 330624, Note_on_c, 0, 81, 110
2, 330752, Note_on_c, 0, 80, 110
2, 330872, Note_off_c, 0, 81, 100
2, 330880, Note_on_c, 0, 83, 110
2, 330996, Note_off_c, 0, 80, 100
2, 331008, Note_on_c, 0, 81, 110
2, 331120, Note_off_c, 0, 83, 100
2, 331136, Note_on_c, 0, 80, 110
2, 331252, Note_off_c, 0, 81, 100
2, 331264, Note_on_c, 0, 78, 110
2, 331376, Note_off_c, 0, 80, 100
2, 331392, Note_on_c, 0, 76, 110
2, 331464, Note_on_c, 0, 74, 110
2, 331516, Note_off_c, 0, 78, 100
2, 331536, Note_on_c, 0, 73, 110
2, 331580, Note_off_c, 0, 76, 100
2, 331608, Note_on_c, 0, 71, 110
2, 331640, Note_off_c, 0, 74, 100
2, 331680, Note_on_c, 0, 69, 110
2, 331720, Note_off_c, 0, 73, 100
2, 331772, Note_off_c, 0, 69, 100
2, 331776, Note_on_c, 0, 81, 110
2, 331784, Note_off_c, 0, 71, 100
2, 332924, Note_off_c, 0, 81, 100
2, 332928, Note_on_c, 0, 81, 110
2, 333056, Note_on_c, 0, 80, 110
2, 333176, Note_off_c, 0, 81, 100
2, 333184, Note_on_c, 0, 83, 110
2, 333300, Note_off_c, 0, 80, 100
2, 333312, Note_on_c, 0, 81, 110
2, 333420, Note_off_c, 0, 83, 100
2, 333440, Note_on_c, 0, 80, 110
2, 333556, Note_off_c, 0, 81, 100
2, 333568, Note_on_c, 0, 78, 110
2, 333692, Note_off_c, 0, 80, 100
2, 333696, Note_on_c, 0, 76, 110
2, 333768, Note_on_c, 0, 75, 110
2, 333792, Note_off_c, 0, 78, 100
2, 333840, Note_on_c, 0, 73, 110
2, 333876, Note_off_c, 0, 76, 100
2, 333912, Note_on_c, 0, 71, 110
2, 333956, Note_off_c, 0, 75, 100
2, 333984, Note_on_c, 0, 69, 110
2, 334024, Note_off_c, 0, 73, 100
2, 334076, Note_off_c, 0, 69, 100
2, 334080, Note_off_c, 0, 71, 100
2, 334080, Note_on_c, 0, 81, 110
2, 334208, Note_on_c, 0, 80, 110
2, 334328, Note_off_c, 0, 81, 100
2, 334336, Note_on_c, 0, 83, 110
2, 334440, Note_off_c, 0, 80, 100
2, 334464, Note_on_c, 0, 81, 110
2, 334560, Note_off_c, 0, 83, 100
2, 334592, Note_on_c, 0, 80, 110
2, 334688, Note_off_c, 0, 81, 100
2, 334720, Note_on_c, 0, 78, 110
2, 334796, Note_off_c, 0, 80, 100
2, 334848, Note_on_c, 0, 76, 110
2, 334920, Note_on_c, 0, 74, 110
2, 334972, Note_off_c, 0, 78, 100
2, 334992, Note_on_c, 0, 73, 110
2, 335020, Note_off_c, 0, 76, 100
2, 335064, Note_on_c, 0, 71, 110
2, 335104, Note_off_c, 0, 74, 100
2, 335136, Note_on_c, 0, 69, 110
2, 335172, Note_off_c, 0, 73, 100
2, 335228, Note_off_c, 0, 69, 100
2, 335232, Note_on_c, 0, 81, 110
2, 335252, Note_off_c, 0, 71, 100
2, 335360, Note_on_c, 0, 80, 110
2, 335476, Note_off_c, 0, 81, 100
2, 335488, Note_on_c, 0, 83, 110
2, 335600, Note_off_c, 0, 80, 100
2, 335616, Note_on_c, 0, 81, 110
2, 335732, Note_off_c, 0, 83, 100
2, 335744, Note_on_c, 0, 80, 110
2, 335856, Note_off_c, 0, 81, 100
2, 335872, Note_on_c, 0, 78, 110
2, 335972, Note_off_c, 0, 80, 100
2, 336000, Note_on_c, 0, 76, 110
2, 336072, Note_on_c, 0, 74, 110
2, 336112, Note_off_c, 0, 78, 100
2, 336144, Note_on_c, 0, 73, 110
2, 336164, Note_off_c, 0, 76, 100
2, 336216, Note_on_c, 0, 71, 110
2, 336260, Note_off_c, 0, 74, 100
2, 336288, Note_on_c, 0, 69, 110
2, 336308, Note_off_c, 0, 73, 100
2, 336380, Note_off_c, 0, 71, 100
2, 336380, Note_off_c, 0, 69, 100
2, 336384, Note_on_c, 0, 76, 110
2, 336384, Note_on_c, 0, 73, 110
2, 339068, Note_off_c, 0, 73, 100
2, 339068, Note_off_c, 0, 76, 100
2, 339072, Note_on_c, 0, 74, 80
2, 339072, Note_on_c, 0, 71, 80
2, 339452, Note_off_c, 0, 74, 100
2, 339452, Note_off_c, 0, 71, 100
2, 339456, Note_on_c, 0, 73, 80
2, 339456, Note_on_c, 0, 69, 80
2, 339836, Note_off_c, 0, 73, 100
2, 339836, Note_off_c, 0, 69, 100
2, 339840, Note_on_c, 0, 73, 80
2, 339840, Note_on_c, 0, 69, 80
2, 340604, Note_off_c, 0, 73, 100
2, 340604, Note_off_c, 0, 69, 100
2, 340608, Note_on_c, 0, 71, 80
2, 340608, Note_on_c, 0, 68, 80
2, 340988, Note_off_c, 0, 71, 100
2, 340988, Note_off_c, 0, 68, 100
2, 340992, Note_on_c, 0, 69, 80
2, 341372, Note_off_c, 0, 69, 100
2, 341760, Note_on_c, 0, 76, 80
2, 342908, Note_off_c, 0, 76, 100
2, 342912, Note_on_c, 0, 64, 80
2, 344060, Note_off_c, 0, 64, 100
2, 344064, Note_on_c, 0, 69, 80
2, 344828, Note_off_c, 0, 69, 100
2, 344832, Note_on_c, 0, 68, 80
2, 345212, Note_off_c, 0, 68, 100
2, 345216, Note_on_c, 0, 74, 80
2, 345980, Note_off_c, 0, 74, 100
2, 345984, Note_on_c, 0, 73, 80
2, 346364, Note_off_c, 0, 73, 100
2, 346368, Note_on_c, 0, 81, 80
2, 347516, Note_off_c, 0, 81, 100
2, 347520, Note_on_c, 0, 69, 80
2, 348668, Note_off_c, 0, 69, 100
2, 348672, Note_on_c, 0, 78, 80
2, 349436, Note_off_c, 0, 78, 100
2, 349440, Note_on_c, 0, 76, 80
2, 349820, Note_off_c, 0, 76, 100
2, 349824, Note_on_c, 0, 74, 80
2, 350204, Note_off_c, 0, 74, 100
2, 350208, Note_on_c, 0, 73, 80
2, 350588, Note_off_c, 0, 73, 100
2, 350592, Note_on_c, 0, 69, 80
2, 350972, Note_off_c, 0, 69, 100
2, 350976, Note_on_c, 0, 76, 80
2, 350976, Note_on_c, 0, 64, 80
2, 352124, Note_off_c, 0, 64, 100
2, 352124, Note_off_c, 0, 76, 100
2, 352128, Note_on_c, 0, 64, 80
2, 352128, Note_on_c, 0, 52, 80
2, 353276, Note_off_c, 0, 52, 100
2, 353276, Note_off_c, 0, 64, 100
2, 353280, Note_on_c, 0, 69, 80
2, 353280, Note_on_c, 0, 57, 80
2, 354044, Note_off_c, 0, 57, 100
2, 354044, Note_off_c, 0, 69, 100
2, 354048, Note_on_c, 0, 68, 80
2, 354048, Note_on_c, 0, 56, 80
2, 354428, Note_off_c, 0, 68, 100
2, 354428, Note_off_c, 0, 56, 100
2, 354432, Note_on_c, 0, 74, 80
2, 354432, Note_on_c, 0, 62, 80
2, 355196, Note_off_c, 0, 62, 100
2, 355196, Note_off_c, 0, 74, 100
2, 355200, Note_on_c, 0, 73, 80
2, 355200, Note_on_c, 0, 61, 80
2, 355580, Note_off_c, 0, 73, 100
2, 355580, Note_off_c, 0, 61, 100
2, 355584, Note_on_c, 0, 81, 80
2, 355584, Note_on_c, 0, 69, 80
2, 356732, Note_off_c, 0, 69, 100
2, 356732, Note_off_c, 0, 81, 100
2, 356736, Note_on_c, 0, 69, 80
2, 356736, Note_on_c, 0, 57, 80
2, 357884, Note_off_c, 0, 57, 100
2, 357884, Note_off_c, 0, 69, 100
2, 357888, Note_on_c, 0, 78, 80
2, 357888, Note_on_c, 0, 66, 80
2, 358652, Note_off_c, 0, 66, 100
2, 358652, Note_off_c, 0, 78, 100
2, 358656, Note_on_c, 0, 76, 80
2, 358656, Note_on_c, 0, 64, 80
2, 359036, Note_off_c, 0, 76, 100
2, 359036, Note_off_c, 0, 64, 100
2, 359040, Note_on_c, 0, 74, 80
2, 359040, Note_on_c, 0, 62, 80
2, 359420, Note_off_c, 0, 74, 100
2, 359420, Note_off_c, 0, 62, 100
2, 359424, Note_on_c, 0, 73, 80
2, 359424, Note_on_c, 0, 61, 80
2, 359804, Note_off_c, 0, 73, 100
2, 359804, Note_off_c, 0, 61, 100
2, 359808, Note_on_c, 0, 69, 80
2, 360188, Note_off_c, 0, 69, 100
2, 360192, Note_on_c, 0, 81, 80
2, 360192, Note_on_c, 0, 69, 80
2, 361340, Note_off_c, 0, 69, 100
2, 361340, Note_off_c, 0, 81, 100
2, 361344, Note_on_c, 0, 69, 80
2, 361344, Note_on_c, 0, 57, 80
2, 362492, Note_off_c, 0, 57, 100
2, 362492, Note_off_c, 0, 69, 100
2, 362496, Note_on_c, 0, 78, 84
2, 362496, Note_on_c, 0, 66, 84
2, 363260, Note_off_c, 0, 66, 100
2, 363260, Note_off_c, 0, 78, 100
2, 363264, Note_on_c, 0, 76, 88
2, 363264, Note_on_c, 0, 64, 88
2, 363644, Note_off_c, 0, 76, 100
2, 363644, Note_off_c, 0, 64, 100
2, 363648, Note_on_c, 0, 74, 89
2, 363648, Note_on_c, 0, 62, 89
2, 364028, Note_off_c, 0, 74, 100
2, 364028, Note_off_c, 0, 62, 100
2, 364032, Note_on_c, 0, 73, 91
2, 364032, Note_on_c, 0, 61, 91
2, 364412, Note_off_c, 0, 73, 100
2, 364412, Note_off_c, 0, 61, 100
2, 364416, Note_on_c, 0, 69, 93
2, 364796, Note_off_c, 0, 69, 100
2, 364800, Note_on_c, 0, 78, 94
2, 364800, Note_on_c, 0, 66, 94
2, 365564, Note_off_c, 0, 66, 100
2, 365564, Note_off_c, 0, 78, 100
2, 365568, Note_on_c, 0, 76, 97
2, 365568, Note_on_c, 0, 64, 97
2, 365948, Note_off_c, 0, 76, 100
2, 365948, Note_off_c, 0, 64, 100
2, 365952, Note_on_c, 0, 74, 99
2, 365952, Note_on_c, 0, 62, 99
2, 366332, Note_off_c, 0, 74, 100
2, 366332, Note_off_c, 0, 62, 100
2, 366336, Note_on_c, 0, 73, 101
2, 366336, Note_on_c, 0, 61, 101
2, 366716, Note_off_c, 0, 73, 100
2, 366716, Note_off_c, 0, 61, 100
2, 366720, Note_on_c, 0, 69, 102
2, 367100, Note_off_c, 0, 69, 100
2, 367104, Note_on_c, 0, 66, 104
2, 367868, Note_off_c, 0, 66, 100
2, 367872, Note_on_c, 0, 64, 107
2, 368252, Note_off_c, 0, 64, 100
2, 368256, Note_on_c, 0, 62, 109
2, 369020, Note_off_c, 0, 62, 100
2, 369024, Note_on_c, 0, 61, 106
2, 369404, Note_off_c, 0, 61, 100
2, 369408, Note_on_c, 0, 59, 100
2, 369788, Note_off_c, 0, 59, 100
2, 375552, Note_on_c, 0, 50, 80
2, 375552, Note_on_c, 0, 57, 80
2, 375552, Note_on_c, 0, 60, 80
2, 375552, Note_on_c, 0, 62, 80
2, 377852, Note_off_c, 0, 50, 100
2, 377852, Note_off_c, 0, 57, 100
2, 377852, Note_off_c, 0, 60, 100
2, 377852, Note_off_c, 0, 62, 100
2, 377856, Note_on_c, 0, 62, 80
2, 377856, Note_on_c, 0, 59, 80
2, 377856, Note_on_c, 0, 55, 80
2, 377856, Note_on_c, 0, 50, 80
2, 378236, Note_off_c, 0, 62, 100
2, 378236, Note_off_c, 0, 59, 100
2, 378236, Note_off_c, 0, 55, 100
2, 378236, Note_off_c, 0, 50, 100
2, 379008, Note_on_c, 0, 74, 80
2, 379008, Note_on_c, 0, 65, 80
2, 380156, Note_off_c, 0, 74, 100
2, 380156, Note_off_c, 0, 65, 100
2, 380160, Note_on_c, 0, 64, 80
2, 380160, Note_on_c, 0, 74, 80
2, 380540, Note_off_c, 0, 74, 100
2, 380544, Note_on_c, 0, 72, 80
2, 381308, Note_off_c, 0, 64, 100
2, 381312, Note_on_c, 0, 60, 80
2, 382076, Note_off_c, 0, 72, 100
2, 382080, Note_on_c, 0, 71, 80
2, 382268, Note_off_c, 0, 71, 100
2, 382272, Note_on_c, 0, 69, 80
2, 382460, Note_off_c, 0, 60, 100
2, 382460, Note_off_c, 0, 69, 100
2, 382464, Note_on_c, 0, 60, 80
2, 382464, Note_on_c, 0, 67, 80
2, 383228, Note_off_c, 0, 67, 100
2, 383232, Note_on_c, 0, 66, 80
2, 383612, Note_off_c, 0, 60, 100
2, 383612, Note_off_c, 0, 66, 100
2, 383616, Note_on_c, 0, 60, 80
2, 383616, Note_on_c, 0, 64, 80
2, 384380, Note_off_c, 0, 64, 100
2, 384384, Note_on_c, 0, 62, 80
2, 384764, Note_off_c, 0, 60, 100
2, 384764, Note_off_c, 0, 62, 100
2, 384768, Note_on_c, 0, 62, 80
2, 384768, Note_on_c, 0, 59, 80
2, 385916, Note_off_c, 0, 62, 100
2, 385916, Note_off_c, 0, 59, 100
2, 385920, Note_on_c, 0, 67, 80
2, 385920, Note_on_c, 0, 62, 80
2, 387068, Note_off_c, 0, 67, 100
2, 387068, Note_off_c, 0, 62, 100
2, 387072, Note_on_c, 0, 69, 80
2, 387072, Note_on_c, 0, 66, 80
2, 387836, Note_off_c, 0, 69, 100
2, 387836, Note_off_c, 0, 66, 100
2, 387840, Note_on_c, 0, 67, 80
2, 387840, Note_on_c, 0, 71, 80
2, 388028, Note_off_c, 0, 67, 100
2, 388028, Note_off_c, 0, 71, 100
2, 388032, Note_on_c, 0, 72, 80
2, 388032, Note_on_c, 0, 69, 80
2, 388220, Note_off_c, 0, 72, 100
2, 388220, Note_off_c, 0, 69, 100
2, 388224, Note_on_c, 0, 71, 80
2, 388224, Note_on_c, 0, 67, 80
2, 388604, Note_off_c, 0, 71, 100
2, 388604, Note_off_c, 0, 67, 100
2, 389568, Note_on_c, 0, 77, 80
2, 389756, Note_off_c, 0, 77, 100
2, 389760, Note_on_c, 0, 76, 81
2, 389948, Note_off_c, 0, 76, 100
2, 389952, Note_on_c, 0, 77, 82
2, 390140, Note_off_c, 0, 77, 100
2, 390144, Note_on_c, 0, 76, 83
2, 390332, Note_off_c, 0, 76, 100
2, 390336, Note_on_c, 0, 77, 84
2, 390524, Note_off_c, 0, 77, 100
2, 390528, Note_on_c, 0, 77, 85
2, 390720, Note_on_c, 0, 86, 86
2, 390908, Note_off_c, 0, 86, 100
2, 390912, Note_on_c, 0, 85, 86
2, 391100, Note_off_c, 0, 85, 100
2, 391104, Note_on_c, 0, 86, 87
2, 391292, Note_off_c, 0, 86, 100
2, 391296, Note_on_c, 0, 85, 88
2, 391484, Note_off_c, 0, 85, 100
2, 391488, Note_on_c, 0, 86, 89
2, 391676, Note_off_c, 0, 77, 100
2, 391676, Note_off_c, 0, 86, 100
2, 391680, Note_on_c, 0, 75, 90
2, 391680, Note_on_c, 0, 86, 90
2, 392060, Note_off_c, 0, 86, 100
2, 392064, Note_on_c, 0, 84, 92
2, 392828, Note_off_c, 0, 75, 100
2, 392832, Note_on_c, 0, 72, 95
2, 393596, Note_off_c, 0, 84, 100
2, 393600, Note_on_c, 0, 82, 99
2, 393788, Note_off_c, 0, 82, 100
2, 393792, Note_on_c, 0, 81, 99
2, 393980, Note_off_c, 0, 72, 100
2, 393980, Note_off_c, 0, 81, 100
2, 393984, Note_on_c, 0, 72, 80
2, 393984, Note_on_c, 0, 79, 80
2, 394748, Note_off_c, 0, 79, 100
2, 394752, Note_on_c, 0, 78, 80
2, 395132, Note_off_c, 0, 72, 100
2, 395132, Note_off_c, 0, 78, 100
2, 395136, Note_on_c, 0, 72, 80
2, 395136, Note_on_c, 0, 75, 80
2, 395900, Note_off_c, 0, 75, 100
2, 395904, Note_on_c, 0, 74, 80
2, 396284, Note_off_c, 0, 72, 100
2, 396284, Note_off_c, 0, 74, 100
2, 396288, Note_on_c, 0, 74, 80
2, 396288, Note_on_c, 0, 70, 80
2, 397436, Note_off_c, 0, 74, 100
2, 397436, Note_off_c, 0, 70, 100
2, 397440, Note_on_c, 0, 79, 87
2, 398588, Note_off_c, 0, 79, 100
2, 398592, Note_on_c, 0, 81, 95
2, 398592, Note_on_c, 0, 78, 95
2, 399356, Note_off_c, 0, 81, 100
2, 399356, Note_off_c, 0, 78, 100
2, 399360, Note_on_c, 0, 79, 100
2, 399360, Note_on_c, 0, 82, 100
2, 399548, Note_off_c, 0, 79, 100
2, 399548, Note_off_c, 0, 82, 100
2, 399552, Note_on_c, 0, 84, 102
2, 399552, Note_on_c, 0, 81, 102
2, 399740, Note_off_c, 0, 84, 100
2, 399740, Note_off_c, 0, 81, 100
2, 399744, Note_on_c, 0, 82, 103
2, 399744, Note_on_c, 0, 79, 103
2, 400124, Note_off_c, 0, 82, 100
2, 400124, Note_off_c, 0, 79, 100
2, 400896, Note_on_c, 0, 81, 110
2, 400896, Note_on_c, 0, 69, 110
2, 402044, Note_off_c, 0, 81, 100
2, 402044, Note_off_c, 0, 69, 100
2, 402048, Note_on_c, 0, 74, 110
2, 403196, Note_off_c, 0, 74, 100
2, 403200, Note_on_c, 0, 76, 110
2, 403200, Note_on_c, 0, 73, 110
2, 403964, Note_off_c, 0, 76, 100
2, 403964, Note_off_c, 0, 73, 100
2, 403968, Note_on_c, 0, 77, 110
2, 403968, Note_on_c, 0, 74, 110
2, 404156, Note_off_c, 0, 77, 100
2, 404156, Note_off_c, 0, 74, 100
2, 404160, Note_on_c, 0, 76, 110
2, 404160, Note_on_c, 0, 79, 110
2, 404348, Note_off_c, 0, 76, 100
2, 404348, Note_off_c, 0, 79, 100
2, 404352, Note_on_c, 0, 77, 110
2, 404352, Note_on_c, 0, 74, 110
2, 404732, Note_off_c, 0, 77, 100
2, 404732, Note_off_c, 0, 74, 100
2, 405696, Note_on_c, 0, 85, 110
2, 405884, Note_off_c, 0, 85, 100
2, 405888, Note_on_c, 0, 86, 110
2, 406076, Note_off_c, 0, 86, 100
2, 406080, Note_on_c, 0, 85, 110
2, 406268, Note_off_c, 0, 85, 100
2, 406272, Note_on_c, 0, 87, 110
2, 406460, Note_off_c, 0, 87, 100
2, 406464, Note_on_c, 0, 86, 110
2, 406652, Note_off_c, 0, 86, 100
2, 406656, Note_on_c, 0, 84, 110
2, 406844, Note_off_c, 0, 84, 100
2, 406848, Note_on_c, 0, 82, 110
2, 407036, Note_off_c, 0, 82, 100
2, 407040, Note_on_c, 0, 81, 110
2, 407228, Note_off_c, 0, 81, 100
2, 407232, Note_on_c, 0, 79, 110
2, 407420, Note_off_c, 0, 79, 100
2, 407424, Note_on_c, 0, 78, 110
2, 407612, Note_off_c, 0, 78, 100
2, 407616, Note_on_c, 0, 75, 110
2, 407804, Note_off_c, 0, 75, 100
2, 407808, Note_on_c, 0, 74, 110
2, 407996, Note_off_c, 0, 74, 100
2, 408000, Note_on_c, 0, 72, 110
2, 408188, Note_off_c, 0, 72, 100
2, 408192, Note_on_c, 0, 70, 110
2, 408380, Note_off_c, 0, 70, 100
2, 408384, Note_on_c, 0, 69, 110
2, 408572, Note_off_c, 0, 69, 100
2, 408576, Note_on_c, 0, 67, 110
2, 408764, Note_off_c, 0, 67, 100
2, 408768, Note_on_c, 0, 66, 110
2, 408956, Note_off_c, 0, 66, 100
2, 408960, Note_on_c, 0, 67, 110
2, 409148, Note_off_c, 0, 67, 100
2, 409152, Note_on_c, 0, 66, 110
2, 409340, Note_off_c, 0, 66, 100
2, 409344, Note_on_c, 0, 67, 110
2, 409532, Note_off_c, 0, 67, 100
2, 409536, Note_on_c, 0, 65, 110
2, 409724, Note_off_c, 0, 65, 100
2, 409728, Note_on_c, 0, 63, 110
2, 409916, Note_off_c, 0, 63, 100
2, 409920, Note_on_c, 0, 62, 110
2, 410108, Note_off_c, 0, 62, 100
2, 410112, Note_on_c, 0, 61, 110
2, 410300, Note_off_c, 0, 61, 100
2, 410304, Note_on_c, 0, 80, 110
2, 410492, Note_off_c, 0, 80, 100
2, 410496, Note_on_c, 0, 81, 110
2, 410684, Note_off_c, 0, 81, 100
2, 410688, Note_on_c, 0, 80, 110
2, 410876, Note_off_c, 0, 80, 100
2, 410880, Note_on_c, 0, 82, 110
2, 411068, Note_off_c, 0, 82, 100
2, 411072, Note_on_c, 0, 81, 110
2, 411260, Note_off_c, 0, 81, 100
2, 411264, Note_on_c, 0, 79, 110
2, 411452, Note_off_c, 0, 79, 100
2, 411456, Note_on_c, 0, 77, 110
2, 411644, Note_off_c, 0, 77, 100
2, 411648, Note_on_c, 0, 76, 110
2, 411836, Note_off_c, 0, 76, 100
2, 411840, Note_on_c, 0, 74, 110
2, 412028, Note_off_c, 0, 74, 100
2, 412032, Note_on_c, 0, 73, 110
2, 412220, Note_off_c, 0, 73, 100
2, 412224, Note_on_c, 0, 70, 110
2, 412412, Note_off_c, 0, 70, 100
2, 412416, Note_on_c, 0, 69, 110
2, 412604, Note_off_c, 0, 69, 100
2, 412608, Note_on_c, 0, 67, 110
2, 412796, Note_off_c, 0, 67, 100
2, 412800, Note_on_c, 0, 65, 110
2, 412988, Note_off_c, 0, 65, 100
2, 412992, Note_on_c, 0, 64, 110
2, 413180, Note_off_c, 0, 64, 100
2, 413184, Note_on_c, 0, 62, 110
2, 413372, Note_off_c, 0, 62, 100
2, 413376, Note_on_c, 0, 61, 110
2, 413564, Note_off_c, 0, 61, 100
2, 413568, Note_on_c, 0, 62, 110
2, 413756, Note_off_c, 0, 62, 100
2, 413760, Note_on_c, 0, 65, 110
2, 413948, Note_off_c, 0, 65, 100
2, 413952, Note_on_c, 0, 69, 110
2, 414140, Note_off_c, 0, 69, 100
2, 414144, Note_on_c, 0, 74, 110
2, 414332, Note_off_c, 0, 74, 100
2, 414336, Note_on_c, 0, 77, 110
2, 414524, Note_off_c, 0, 77, 100
2, 414528, Note_on_c, 0, 74, 110
2, 414716, Note_off_c, 0, 74, 100
2, 414720, Note_on_c, 0, 76, 80
2, 414720, Note_on_c, 0, 73, 80
2, 415484, Note_off_c, 0, 76, 100
2, 415484, Note_off_c, 0, 73, 100
2, 415488, Note_on_c, 0, 77, 80
2, 415488, Note_on_c, 0, 74, 80
2, 415676, Note_off_c, 0, 77, 100
2, 415676, Note_off_c, 0, 74, 100
2, 415680, Note_on_c, 0, 79, 80
2, 415680, Note_on_c, 0, 76, 80
2, 415868, Note_off_c, 0, 79, 100
2, 415868, Note_off_c, 0, 76, 100
2, 415872, Note_on_c, 0, 77, 80
2, 415872, Note_on_c, 0, 74, 80
2, 416252, Note_off_c, 0, 77, 100
2, 416252, Note_off_c, 0, 74, 100
2, 417024, Note_on_c, 0, 81, 80
2, 417212, Note_off_c, 0, 81, 100
2, 417216, Note_on_c, 0, 79, 80
2, 417404, Note_off_c, 0, 79, 100
2, 417408, Note_on_c, 0, 77, 80
2, 417596, Note_off_c, 0, 77, 100
2, 417600, Note_on_c, 0, 76, 80
2, 417788, Note_off_c, 0, 76, 100
2, 417792, Note_on_c, 0, 74, 80
2, 417980, Note_off_c, 0, 74, 100
2, 417984, Note_on_c, 0, 73, 80
2, 418172, Note_off_c, 0, 73, 100
2, 418176, Note_on_c, 0, 74, 80
2, 418364, Note_off_c, 0, 74, 100
2, 418368, Note_on_c, 0, 73, 80
2, 418556, Note_off_c, 0, 73, 100
2, 418560, Note_on_c, 0, 74, 80
2, 418748, Note_off_c, 0, 74, 100
2, 418752, Note_on_c, 0, 72, 80
2, 418940, Note_off_c, 0, 72, 100
2, 418944, Note_on_c, 0, 71, 80
2, 419132, Note_off_c, 0, 71, 100
2, 419136, Note_on_c, 0, 69, 80
2, 419324, Note_off_c, 0, 69, 100
2, 419328, Note_on_c, 0, 71, 80
2, 419328, Note_on_c, 0, 68, 80
2, 420092, Note_off_c, 0, 71, 100
2, 420092, Note_off_c, 0, 68, 100
2, 420096, Note_on_c, 0, 72, 80
2, 420096, Note_on_c, 0, 69, 80
2, 420284, Note_off_c, 0, 72, 100
2, 420284, Note_off_c, 0, 69, 100
2, 420288, Note_on_c, 0, 74, 80
2, 420288, Note_on_c, 0, 71, 80
2, 420476, Note_off_c, 0, 74, 100
2, 420476, Note_off_c, 0, 71, 100
2, 420480, Note_on_c, 0, 72, 80
2, 420480, Note_on_c, 0, 69, 80
2, 420860, Note_off_c, 0, 72, 100
2, 420860, Note_off_c, 0, 69, 100
2, 421632, Note_on_c, 0, 88, 80
2, 421820, Note_off_c, 0, 88, 100
2, 421824, Note_on_c, 0, 86, 80
2, 422012, Note_off_c, 0, 86, 100
2, 422016, Note_on_c, 0, 84, 80
2, 422204, Note_off_c, 0, 84, 100
2, 422208, Note_on_c, 0, 83, 80
2, 422396, Note_off_c, 0, 83, 100
2, 422400, Note_on_c, 0, 81, 80
2, 422588, Note_off_c, 0, 81, 100
2, 422592, Note_on_c, 0, 80, 80
2, 422780, Note_off_c, 0, 80, 100
2, 422784, Note_on_c, 0, 81, 80
2, 422972, Note_off_c, 0, 81, 100
2, 422976, Note_on_c, 0, 76, 80
2, 423164, Note_off_c, 0, 76, 100
2, 423168, Note_on_c, 0, 74, 80
2, 423356, Note_off_c, 0, 74, 100
2, 423360, Note_on_c, 0, 72, 80
2, 423548, Note_off_c, 0, 72, 100
2, 423552, Note_on_c, 0, 71, 80
2, 423740, Note_off_c, 0, 71, 100
2, 423744, Note_on_c, 0, 69, 80
2, 423932, Note_off_c, 0, 69, 100
2, 423936, Note_on_c, 0, 71, 80
2, 423936, Note_on_c, 0, 68, 80
2, 424700, Note_off_c, 0, 71, 100
2, 424700, Note_off_c, 0, 68, 100
2, 424704, Note_on_c, 0, 69, 83
2, 424704, Note_on_c, 0, 72, 83
2, 424892, Note_off_c, 0, 69, 100
2, 424892, Note_off_c, 0, 72, 100
2, 424896, Note_on_c, 0, 74, 83
2, 424896, Note_on_c, 0, 71, 83
2, 425084, Note_off_c, 0, 74, 100
2, 425084, Note_off_c, 0, 71, 100
2, 425088, Note_on_c, 0, 72, 84
2, 425088, Note_on_c, 0, 69, 84
2, 425852, Note_off_c, 0, 72, 100
2, 425856, Note_on_c, 0, 74, 87
2, 426044, Note_off_c, 0, 74, 100
2, 426048, Note_on_c, 0, 76, 88
2, 426236, Note_off_c, 0, 69, 100
2, 426236, Note_off_c, 0, 76, 100
2, 426240, Note_on_c, 0, 75, 89
2, 426240, Note_on_c, 0, 69, 89
2, 427004, Note_off_c, 0, 75, 100
2, 427008, Note_on_c, 0, 76, 92
2, 427196, Note_off_c, 0, 76, 100
2, 427200, Note_on_c, 0, 78, 92
2, 427388, Note_off_c, 0, 69, 100
2, 427388, Note_off_c, 0, 78, 100
2, 427392, Note_on_c, 0, 76, 93
2, 427392, Note_on_c, 0, 71, 93
2, 428156, Note_off_c, 0, 76, 100
2, 428160, Note_on_c, 0, 78, 96
2, 428348, Note_off_c, 0, 78, 100
2, 428352, Note_on_c, 0, 79, 97
2, 428540, Note_off_c, 0, 71, 100
2, 428540, Note_off_c, 0, 79, 100
2, 428544, Note_on_c, 0, 78, 98
2, 428544, Note_on_c, 0, 71, 98
2, 429308, Note_off_c, 0, 78, 100
2, 429312, Note_on_c, 0, 79, 101
2, 429500, Note_off_c, 0, 79, 100
2, 429504, Note_on_c, 0, 81, 101
2, 429692, Note_off_c, 0, 71, 100
2, 429692, Note_off_c, 0, 81, 100
2, 429696, Note_on_c, 0, 79, 102
2, 429696, Note_on_c, 0, 73, 102
2, 430460, Note_off_c, 0, 79, 100
2, 430464, Note_on_c, 0, 81, 105
2, 430652, Note_off_c, 0, 81, 100
2, 430656, Note_on_c, 0, 83, 106
2, 430844, Note_off_c, 0, 73, 100
2, 430844, Note_off_c, 0, 83, 100
2, 430848, Note_on_c, 0, 82, 107
2, 430848, Note_on_c, 0, 76, 107
2, 431612, Note_off_c, 0, 82, 100
2, 431616, Note_on_c, 0, 83, 110
2, 431804, Note_off_c, 0, 83, 100
2, 431808, Note_on_c, 0, 85, 110
2, 431996, Note_off_c, 0, 76, 100
2, 431996, Note_off_c, 0, 85, 100
2, 432000, Note_on_c, 0, 83, 111
2, 432000, Note_on_c, 0, 78, 111
2, 432764, Note_off_c, 0, 83, 100
2, 432768, Note_on_c, 0, 85, 114
2, 432956, Note_off_c, 0, 85, 100
2, 432960, Note_on_c, 0, 86, 115
2, 433148, Note_off_c, 0, 78, 100
2, 433148, Note_off_c, 0, 86, 100
2, 433152, Note_on_c, 0, 78, 116
2, 433152, Note_on_c, 0, 85, 116
2, 433916, Note_off_c, 0, 85, 100
2, 433920, Note_on_c, 0, 86, 119
2, 434108, Note_off_c, 0, 86, 100
2, 434112, Note_on_c, 0, 88, 119
2, 434300, Note_off_c, 0, 78, 100
2, 434300, Note_off_c, 0, 88, 100
2, 434304, Note_on_c, 0, 78, 120
2, 434304, Note_on_c, 0, 86, 120
2, 435068, Note_off_c, 0, 86, 100
2, 435072, Note_on_c, 0, 85, 120
2, 435260, Note_off_c, 0, 85, 100
2, 435264, Note_on_c, 0, 83, 120
2, 435452, Note_off_c, 0, 78, 100
2, 435452, Note_off_c, 0, 83, 100
2, 435456, Note_on_c, 0, 86, 120
2, 435456, Note_on_c, 0, 77, 120
2, 436220, Note_off_c, 0, 86, 100
2, 436224, Note_on_c, 0, 85, 120
2, 436412, Note_off_c, 0, 85, 100
2, 436416, Note_on_c, 0, 83, 120
2, 436604, Note_off_c, 0, 77, 100
2, 436604, Note_off_c, 0, 83, 100
2, 436608, Note_on_c, 0, 86, 120
2, 436608, Note_on_c, 0, 77, 120
2, 437372, Note_off_c, 0, 86, 100
2, 437376, Note_on_c, 0, 85, 120
2, 437564, Note_off_c, 0, 85, 100
2, 437568, Note_on_c, 0, 83, 120
2, 437756, Note_off_c, 0, 77, 100
2, 437756, Note_off_c, 0, 83, 100
2, 437760, Note_on_c, 0, 82, 120
2, 437760, Note_on_c, 0, 78, 120
2, 438140, Note_off_c, 0, 82, 100
2, 438140, Note_off_c, 0, 78, 100
2, 438144, Note_on_c, 0, 78, 110
2, 438144, Note_on_c, 0, 70, 110
2, 438524, Note_off_c, 0, 70, 100
2, 438528, Note_on_c, 0, 71, 110
2, 438716, Note_off_c, 0, 71, 100
2, 438720, Note_on_c, 0, 73, 110
2, 438908, Note_off_c, 0, 78, 100
2, 438908, Note_off_c, 0, 73, 100
2, 439296, Note_on_c, 0, 78, 109
2, 439296, Note_on_c, 0, 71, 109
2, 439676, Note_off_c, 0, 71, 100
2, 439680, Note_on_c, 0, 73, 109
2, 439868, Note_off_c, 0, 73, 100
2, 439872, Note_on_c, 0, 74, 109
2, 440060, Note_off_c, 0, 78, 100
2, 440060, Note_off_c, 0, 74, 100
2, 440448, Note_on_c, 0, 78, 108
2, 440448, Note_on_c, 0, 73, 108
2, 440828, Note_off_c, 0, 73, 100
2, 440832, Note_on_c, 0, 74, 107
2, 441020, Note_off_c, 0, 74, 100
2, 441024, Note_on_c, 0, 76, 107
2, 441212, Note_off_c, 0, 78, 100
2, 441212, Note_off_c, 0, 76, 100
2, 441600, Note_on_c, 0, 78, 107
2, 441600, Note_on_c, 0, 71, 107
2, 441980, Note_off_c, 0, 71, 100
2, 441984, Note_on_c, 0, 73, 106
2, 442172, Note_off_c, 0, 73, 100
2, 442176, Note_on_c, 0, 74, 106
2, 442364, Note_off_c, 0, 78, 100
2, 442364, Note_off_c, 0, 74, 100
2, 442752, Note_on_c, 0, 78, 105
2, 442752, Note_on_c, 0, 82, 105
2, 443132, Note_off_c, 0, 82, 100
2, 443136, Note_on_c, 0, 83, 105
2, 443324, Note_off_c, 0, 83, 100
2, 443328, Note_on_c, 0, 85, 105
2, 443516, Note_off_c, 0, 78, 100
2, 443516, Note_off_c, 0, 85, 100
2, 443904, Note_on_c, 0, 78, 104
2, 443904, Note_on_c, 0, 83, 104
2, 444284, Note_off_c, 0, 83, 100
2, 444288, Note_on_c, 0, 85, 103
2, 444476, Note_off_c, 0, 85, 100
2, 444480, Note_on_c, 0, 86, 103
2, 444668, Note_off_c, 0, 78, 100
2, 444668, Note_off_c, 0, 86, 100
2, 445056, Note_on_c, 0, 78, 103
2, 445056, Note_on_c, 0, 85, 103
2, 445436, Note_off_c, 0, 85, 100
2, 445440, Note_on_c, 0, 86, 102
2, 445628, Note_off_c, 0, 86, 100
2, 445632, Note_on_c, 0, 88, 102
2, 445820, Note_off_c, 0, 78, 100
2, 445820, Note_off_c, 0, 88, 100
2, 446208, Note_on_c, 0, 78, 101
2, 446208, Note_on_c, 0, 83, 101
2, 446588, Note_off_c, 0, 83, 100
2, 446592, Note_on_c, 0, 85, 101
2, 446780, Note_off_c, 0, 85, 100
2, 446784, Note_on_c, 0, 86, 101
2, 446972, Note_off_c, 0, 78, 100
2, 446972, Note_off_c, 0, 86, 100
2, 447360, Note_on_c, 0, 78, 80
2, 447360, Note_on_c, 0, 82, 80
2, 447740, Note_off_c, 0, 82, 100
2, 447744, Note_on_c, 0, 83, 80
2, 447932, Note_off_c, 0, 83, 100
2, 447936, Note_on_c, 0, 85, 80
2, 448124, Note_off_c, 0, 78, 100
2, 448124, Note_off_c, 0, 85, 100
2, 448512, Note_on_c, 0, 66, 80
2, 448892, Note_off_c, 0, 66, 100
2, 448896, Note_on_c, 0, 68, 80
2, 449084, Note_off_c, 0, 68, 100
2, 449088, Note_on_c, 0, 70, 80
2, 449276, Note_off_c, 0, 70, 100
2, 449664, Note_on_c, 0, 70, 80
2, 450044, Note_off_c, 0, 70, 100
2, 450048, Note_on_c, 0, 71, 80
2, 450236, Note_off_c, 0, 71, 100
2, 450240, Note_on_c, 0, 73, 80
2, 450428, Note_off_c, 0, 73, 100
2, 450816, Note_on_c, 0, 78, 80
2, 451196, Note_off_c, 0, 78, 100
2, 451200, Note_on_c, 0, 80, 80
2, 451388, Note_off_c, 0, 80, 100
2, 451392, Note_on_c, 0, 82, 80
2, 451580, Note_off_c, 0, 82, 100
2, 451968, Note_on_c, 0, 82, 80
2, 452348, Note_off_c, 0, 82, 100
2, 452352, Note_on_c, 0, 83, 80
2, 452540, Note_off_c, 0, 83, 100
2, 452544, Note_on_c, 0, 85, 80
2, 452732, Note_off_c, 0, 85, 100
2, 453120, Note_on_c, 0, 85, 80
2, 453500, Note_off_c, 0, 85, 100
2, 453504, Note_on_c, 0, 83, 80
2, 453692, Note_off_c, 0, 83, 100
2, 453696, Note_on_c, 0, 82, 80
2, 453884, Note_off_c, 0, 82, 100
2, 454272, Note_on_c, 0, 82, 80
2, 454652, Note_off_c, 0, 82, 100
2, 454656, Note_on_c, 0, 80, 80
2, 454844, Note_off_c, 0, 80, 100
2, 454848, Note_on_c, 0, 78, 80
2, 455036, Note_off_c, 0, 78, 100
2, 455424, Note_on_c, 0, 78, 80
2, 455804, Note_off_c, 0, 78, 100
2, 455808, Note_on_c, 0, 80, 80
2, 455996, Note_off_c, 0, 80, 100
2, 456000, Note_on_c, 0, 82, 80
2, 456188, Note_off_c, 0, 82, 100
2, 456576, Note_on_c, 0, 82, 80
2, 456956, Note_off_c, 0, 82, 100
2, 456960, Note_on_c, 0, 83, 80
2, 457148, Note_off_c, 0, 83, 100
2, 457152, Note_on_c, 0, 85, 80
2, 457340, Note_off_c, 0, 85, 100
2, 457728, Note_on_c, 0, 85, 80
2, 458108, Note_off_c, 0, 85, 100
2, 458112, Note_on_c, 0, 83, 80
2, 458300, Note_off_c, 0, 83, 100
2, 458304, Note_on_c, 0, 82, 80
2, 458492, Note_off_c, 0, 82, 100
2, 458880, Note_on_c, 0, 82, 80
2, 459260, Note_off_c, 0, 82, 100
2, 459264, Note_on_c, 0, 80, 80
2, 459452, Note_off_c, 0, 80, 100
2, 459456, Note_on_c, 0, 78, 80
2, 459644, Note_off_c, 0, 78, 100
2, 460032, Note_on_c, 0, 78, 80
2, 460412, Note_off_c, 0, 78, 100
2, 460416, Note_on_c, 0, 80, 80
2, 460604, Note_off_c, 0, 80, 100
2, 460608, Note_on_c, 0, 82, 80
2, 460796, Note_off_c, 0, 82, 100
2, 461184, Note_on_c, 0, 82, 80
2, 461564, Note_off_c, 0, 82, 100
2, 461568, Note_on_c, 0, 83, 80
2, 461756, Note_off_c, 0, 83, 100
2, 461760, Note_on_c, 0, 85, 80
2, 462332, Note_off_c, 0, 85, 100
2, 462336, Note_on_c, 0, 85, 80
2, 462336, Note_on_c, 0, 82, 80
2, 462336, Note_on_c, 0, 78, 80
2, 462336, Note_on_c, 0, 73, 80
2, 463484, Note_off_c, 0, 73, 100
2, 463484, Note_off_c, 0, 78, 100
2, 463484, Note_off_c, 0, 82, 100
2, 463484, Note_off_c, 0, 85, 100
2, 463488, Note_on_c, 0, 82, 80
2, 463488, Note_on_c, 0, 78, 80
2, 463488, Note_on_c, 0, 73, 80
2, 463488, Note_on_c, 0, 70, 80
2, 464636, Note_off_c, 0, 70, 100
2, 464636, Note_off_c, 0, 73, 100
2, 464636, Note_off_c, 0, 78, 100
2, 464636, Note_off_c, 0, 82, 100
2, 464640, Note_on_c, 0, 78, 80
2, 464640, Note_on_c, 0, 73, 80
2, 464640, Note_on_c, 0, 70, 80
2, 464640, Note_on_c, 0, 66, 80
2, 465788, Note_off_c, 0, 66, 100
2, 465788, Note_off_c, 0, 70, 100
2, 465788, Note_off_c, 0, 73, 100
2, 465788, Note_off_c, 0, 78, 100
2, 465792, Note_on_c, 0, 73, 80
2, 465792, Note_on_c, 0, 70, 80
2, 465792, Note_on_c, 0, 66, 80
2, 465792, Note_on_c, 0, 61, 80
2, 466940, Note_off_c, 0, 61, 100
2, 466940, Note_off_c, 0, 66, 100
2, 466940, Note_off_c, 0, 70, 100
2, 466940, Note_off_c, 0, 73, 100
2, 466944, Note_on_c, 0, 70, 80
2, 466944, Note_on_c, 0, 66, 80
2, 466944, Note_on_c, 0, 61, 80
2, 466944, Note_on_c, 0, 58, 80
2, 468092, Note_off_c, 0, 58, 100
2, 468092, Note_off_c, 0, 61, 100
2, 468092, Note_off_c, 0, 66, 100
2, 468092, Note_off_c, 0, 70, 100
2, 468096, Note_on_c, 0, 66, 80
2, 468096, Note_on_c, 0, 61, 80
2, 468096, Note_on_c, 0, 58, 80
2, 468096, Note_on_c, 0, 54, 80
2, 469244, Note_off_c, 0, 54, 100
2, 469244, Note_off_c, 0, 58, 100
2, 469244, Note_off_c, 0, 61, 100
2, 469244, Note_off_c, 0, 66, 100
2, 469248, Note_on_c, 0, 61, 80
2, 469248, Note_on_c, 0, 58, 80
2, 469248, Note_on_c, 0, 54, 80
2, 469248, Note_on_c, 0, 49, 80
2, 470396, Note_off_c, 0, 49, 100
2, 470396, Note_off_c, 0, 54, 100
2, 470396, Note_off_c, 0, 58, 100
2, 470396, Note_off_c, 0, 61, 100
2, 470400, Note_on_c, 0, 58, 80
2, 470400, Note_on_c, 0, 49, 80
2, 470400, Note_on_c, 0, 46, 80
2, 470400, Note_on_c, 0, 54, 80
2, 471548, Note_off_c, 0, 46, 100
2, 471548, Note_off_c, 0, 49, 100
2, 471548, Note_off_c, 0, 54, 100
2, 471548, Note_off_c, 0, 58, 100
2, 471552, Note_on_c, 0, 54, 84
2, 471552, Note_on_c, 0, 49, 84
2, 471552, Note_on_c, 0, 46, 84
2, 472700, Note_off_c, 0, 46, 100
2, 472700, Note_off_c, 0, 49, 100
2, 472700, Note_off_c, 0, 54, 100
2, 472704, Note_on_c, 0, 54, 88
2, 472704, Note_on_c, 0, 49, 88
2, 472704, Note_on_c, 0, 46, 88
2, 473852, Note_off_c, 0, 46, 100
2, 473852, Note_off_c, 0, 49, 100
2, 473852, Note_off_c, 0, 54, 100
2, 473856, Note_on_c, 0, 49, 92
2, 473856, Note_on_c, 0, 46, 92
2, 473856, Note_on_c, 0, 54, 92
2, 476540, Note_off_c, 0, 46, 100
2, 476540, Note_off_c, 0, 49, 100
2, 476540, Note_off_c, 0, 54, 100
2, 476544, Note_on_c, 0, 54, 80
2, 476544, Note_on_c, 0, 49, 80
2, 476544, Note_on_c, 0, 46, 80
2, 478844, Note_off_c, 0, 46, 100
2, 478844, Note_off_c, 0, 49, 100
2, 478844, Note_off_c, 0, 54, 100
2, 478848, Note_on_c, 0, 46, 80
2, 478848, Note_on_c, 0, 49, 80
2, 478848, Note_on_c, 0, 54, 80
2, 482300, Note_off_c, 0, 46, 100
2, 482300, Note_off_c, 0, 49, 100
2, 482300, Note_off_c, 0, 54, 100
2, 482304, Note_on_c, 0, 78, 80
2, 483452, Note_off_c, 0, 78, 100
2, 483456, Note_on_c, 0, 66, 80
2, 484604, Note_off_c, 0, 66, 100
2, 484608, Note_on_c, 0, 71, 80
2, 485372, Note_off_c, 0, 71, 100
2, 485376, Note_on_c, 0, 70, 80
2, 485564, Note_off_c, 0, 70, 100
2, 485568, Note_on_c, 0, 73, 80
2, 485756, Note_off_c, 0, 73, 100
2, 485760, Note_on_c, 0, 76, 80
2, 486524, Note_off_c, 0, 76, 100
2, 486528, Note_on_c, 0, 75, 80
2, 486908, Note_off_c, 0, 75, 100
2, 488064, Note_on_c, 0, 78, 80
2, 489212, Note_off_c, 0, 78, 100
2, 489216, Note_on_c, 0, 66, 80
2, 490364, Note_off_c, 0, 66, 100
2, 490368, Note_on_c, 0, 71, 80
2, 491132, Note_off_c, 0, 71, 100
2, 491136, Note_on_c, 0, 70, 80
2, 491324, Note_off_c, 0, 70, 100
2, 491328, Note_on_c, 0, 73, 80
2, 491516, Note_off_c, 0, 73, 100
2, 491520, Note_on_c, 0, 76, 80
2, 492280, Note_off_c, 0, 76, 100
2, 492288, Note_on_c, 0, 74, 80
2, 492668, Note_off_c, 0, 74, 100
2, 493824, Note_on_c, 0, 74, 80
2, 494584, Note_off_c, 0, 74, 64
2, 494592, Note_on_c, 0, 73, 80
2, 494780, Note_off_c, 0, 73, 100
2, 494784, Note_on_c, 0, 76, 80
2, 494972, Note_off_c, 0, 76, 100
2, 494976, Note_on_c, 0, 79, 80
2, 496504, Note_off_c, 0, 79, 64
2, 497664, Note_on_c, 0, 69, 80
2, 497664, Note_on_c, 0, 60, 80
2, 497664, Note_on_c, 0, 66, 80
2, 498812, Note_off_c, 0, 69, 64
2, 498812, Note_off_c, 0, 60, 64
2, 498812, Note_off_c, 0, 66, 64
2, 498816, Note_on_c, 0, 59, 80
2, 498816, Note_on_c, 0, 62, 80
2, 498816, Note_on_c, 0, 69, 80
2, 499196, Note_off_c, 0, 69, 64
2, 499200, Note_on_c, 0, 67, 80
2, 500732, Note_off_c, 0, 59, 64
2, 500732, Note_off_c, 0, 62, 64
2, 500732, Note_off_c, 0, 67, 64
2, 500736, Note_on_c, 0, 66, 80
2, 500736, Note_on_c, 0, 59, 80
2, 500736, Note_on_c, 0, 55, 80
2, 500924, Note_off_c, 0, 66, 100
2, 500928, Note_on_c, 0, 64, 80
2, 501116, Note_off_c, 0, 59, 100
2, 501116, Note_off_c, 0, 55, 100
2, 501116, Note_off_c, 0, 64, 100
2, 501120, Note_on_c, 0, 55, 80
2, 501120, Note_on_c, 0, 62, 80
2, 501884, Note_off_c, 0, 62, 64
2, 501888, Note_on_c, 0, 61, 80
2, 502268, Note_off_c, 0, 55, 64
2, 502268, Note_off_c, 0, 61, 100
2, 502272, Note_on_c, 0, 59, 80
2, 502272, Note_on_c, 0, 55, 80
2, 503036, Note_off_c, 0, 59, 64
2, 503040, Note_on_c, 0, 57, 80
2, 503420, Note_off_c, 0, 55, 64
2, 503420, Note_off_c, 0, 57, 100
2, 503424, Note_on_c, 0, 54, 80
2, 503424, Note_on_c, 0, 57, 80
2, 504572, Note_off_c, 0, 54, 64
2, 504572, Note_off_c, 0, 57, 64
2, 504576, Note_on_c, 0, 57, 80
2, 504576, Note_on_c, 0, 62, 80
2, 505724, Note_off_c, 0, 57, 64
2, 505724, Note_off_c, 0, 62, 64
2, 505728, Note_on_c, 0, 61, 80
2, 505728, Note_on_c, 0, 64, 80
2, 506492, Note_off_c, 0, 61, 64
2, 506492, Note_off_c, 0, 64, 64
2, 506496, Note_on_c, 0, 66, 80
2, 506496, Note_on_c, 0, 62, 80
2, 506684, Note_off_c, 0, 66, 100
2, 506684, Note_off_c, 0, 62, 100
2, 506688, Note_on_c, 0, 67, 80
2, 506688, Note_on_c, 0, 64, 80
2, 506876, Note_off_c, 0, 67, 100
2, 506876, Note_off_c, 0, 64, 100
2, 506880, Note_on_c, 0, 62, 80
2, 506880, Note_on_c, 0, 66, 80
2, 507260, Note_off_c, 0, 62, 64
2, 507260, Note_off_c, 0, 66, 64
2, 508224, Note_on_c, 0, 72, 81
2, 508412, Note_off_c, 0, 72, 100
2, 508416, Note_on_c, 0, 71, 82
2, 508604, Note_off_c, 0, 71, 100
2, 508608, Note_on_c, 0, 72, 84
2, 508796, Note_off_c, 0, 72, 100
2, 508800, Note_on_c, 0, 71, 85
2, 508988, Note_off_c, 0, 71, 100
2, 508992, Note_on_c, 0, 72, 87
2, 509180, Note_off_c, 0, 72, 100
2, 509184, Note_on_c, 0, 72, 88
2, 509376, Note_on_c, 0, 81, 89
2, 509564, Note_off_c, 0, 81, 100
2, 509568, Note_on_c, 0, 80, 91
2, 509756, Note_off_c, 0, 80, 100
2, 509760, Note_on_c, 0, 81, 92
2, 509948, Note_off_c, 0, 81, 100
2, 509952, Note_on_c, 0, 80, 94
2, 510140, Note_off_c, 0, 80, 100
2, 510144, Note_on_c, 0, 81, 95
2, 510332, Note_off_c, 0, 72, 64
2, 510332, Note_off_c, 0, 81, 100
2, 510336, Note_on_c, 0, 71, 97
2, 510336, Note_on_c, 0, 81, 97
2, 510716, Note_off_c, 0, 81, 64
2, 510720, Note_on_c, 0, 79, 99
2, 511484, Note_off_c, 0, 71, 64
2, 511484, Note_off_c, 0, 79, 64
2, 511488, Note_on_c, 0, 67, 80
2, 512256, Note_on_c, 0, 78, 80
2, 512444, Note_off_c, 0, 78, 100
2, 512448, Note_on_c, 0, 76, 80
2, 512636, Note_off_c, 0, 67, 64
2, 512636, Note_off_c, 0, 76, 100
2, 512640, Note_on_c, 0, 67, 80
2, 512640, Note_on_c, 0, 74, 80
2, 513408, Note_on_c, 0, 73, 80
2, 513788, Note_off_c, 0, 67, 64
2, 513788, Note_off_c, 0, 74, 64
2, 513788, Note_off_c, 0, 73, 100
2, 513792, Note_on_c, 0, 67, 80
2, 513792, Note_on_c, 0, 71, 80
2, 514556, Note_off_c, 0, 71, 64
2, 514560, Note_on_c, 0, 69, 80
2, 514940, Note_off_c, 0, 67, 64
2, 514940, Note_off_c, 0, 69, 100
2, 514944, Note_on_c, 0, 69, 80
2, 514944, Note_on_c, 0, 66, 80
2, 516092, Note_off_c, 0, 69, 64
2, 516092, Note_off_c, 0, 66, 64
2, 516096, Note_on_c, 0, 74, 80
2, 516096, Note_on_c, 0, 69, 80
2, 517244, Note_off_c, 0, 74, 64
2, 517244, Note_off_c, 0, 69, 64
2, 517248, Note_on_c, 0, 73, 80
2, 517248, Note_on_c, 0, 76, 80
2, 518012, Note_off_c, 0, 73, 64
2, 518012, Note_off_c, 0, 76, 64
2, 518016, Note_on_c, 0, 74, 80
2, 518016, Note_on_c, 0, 78, 80
2, 518204, Note_off_c, 0, 74, 64
2, 518204, Note_off_c, 0, 78, 100
2, 518208, Note_on_c, 0, 79, 80
2, 518208, Note_on_c, 0, 76, 80
2, 518396, Note_off_c, 0, 79, 64
2, 518396, Note_off_c, 0, 76, 100
2, 518400, Note_on_c, 0, 74, 80
2, 518400, Note_on_c, 0, 78, 80
2, 518780, Note_off_c, 0, 74, 64
2, 518780, Note_off_c, 0, 78, 64
2, 519552, Note_on_c, 0, 57, 80
2, 519552, Note_on_c, 0, 62, 80
2, 521084, Note_off_c, 0, 57, 64
2, 521084, Note_off_c, 0, 62, 64
2, 521088, Note_on_c, 0, 64, 80
2, 521088, Note_on_c, 0, 59, 80
2, 521468, Note_off_c, 0, 64, 100
2, 521468, Note_off_c, 0, 59, 100
2, 521472, Note_on_c, 0, 66, 80
2, 521472, Note_on_c, 0, 60, 80
2, 521852, Note_off_c, 0, 66, 100
2, 521852, Note_off_c, 0, 60, 100
2, 521856, Note_on_c, 0, 62, 80
2, 521856, Note_on_c, 0, 69, 80
2, 522236, Note_off_c, 0, 69, 64
2, 522240, Note_on_c, 0, 67, 80
2, 523772, Note_off_c, 0, 62, 64
2, 523772, Note_off_c, 0, 67, 64
2, 523776, Note_on_c, 0, 60, 80
2, 523776, Note_on_c, 0, 66, 80
2, 524156, Note_off_c, 0, 60, 100
2, 524160, Note_on_c, 0, 59, 80
2, 524540, Note_off_c, 0, 66, 64
2, 524544, Note_on_c, 0, 64, 80
2, 524924, Note_off_c, 0, 64, 100
2, 524928, Note_on_c, 0, 62, 100
2, 525308, Note_off_c, 0, 59, 64
2, 525692, Note_off_c, 0, 62, 64
2, 525696, Note_on_c, 0, 61, 80
2, 526076, Note_off_c, 0, 61, 100
2, 526080, Note_on_c, 0, 57, 100
2, 526652, Note_off_c, 0, 57, 64
2, 526656, Note_on_c, 0, 62, 80
2, 526844, Note_off_c, 0, 62, 100
2, 526848, Note_on_c, 0, 66, 80
2, 527036, Note_off_c, 0, 66, 100
2, 527040, Note_on_c, 0, 69, 80
2, 527228, Note_off_c, 0, 69, 100
2, 527232, Note_on_c, 0, 74, 80
2, 527420, Note_off_c, 0, 74, 64
2, 527424, Note_on_c, 0, 78, 80
2, 527612, Note_off_c, 0, 78, 100
2, 527616, Note_on_c, 0, 81, 80
2, 527808, Note_on_c, 0, 78, 80
2, 527924, Note_off_c, 0, 81, 64
2, 528000, Note_on_c, 0, 74, 80
2, 528104, Note_off_c, 0, 78, 100
2, 528128, Note_on_c, 0, 69, 80
2, 528232, Note_off_c, 0, 74, 64
2, 528256, Note_on_c, 0, 66, 80
2, 528376, Note_off_c, 0, 69, 100
2, 528384, Note_on_c, 0, 69, 80
2, 528388, Note_off_c, 0, 66, 100
2, 528508, Note_off_c, 0, 69, 100
2, 528512, Note_on_c, 0, 67, 80
2, 528636, Note_off_c, 0, 67, 100
2, 528640, Note_on_c, 0, 64, 80
2, 528764, Note_off_c, 0, 64, 100
2, 528768, Note_on_c, 0, 62, 80
2, 529152, Note_on_c, 0, 74, 100
2, 530300, Note_off_c, 0, 62, 64
2, 530300, Note_off_c, 0, 74, 100
2, 530304, Note_on_c, 0, 76, 80
2, 530304, Note_on_c, 0, 64, 80
2, 530684, Note_off_c, 0, 76, 100
2, 530684, Note_off_c, 0, 64, 100
2, 530688, Note_on_c, 0, 78, 80
2, 530688, Note_on_c, 0, 66, 80
2, 531068, Note_off_c, 0, 78, 100
2, 531068, Note_off_c, 0, 66, 100
2, 531072, Note_on_c, 0, 69, 80
2, 531072, Note_on_c, 0, 81, 80
2, 531452, Note_off_c, 0, 69, 64
2, 531452, Note_off_c, 0, 81, 64
2, 531456, Note_on_c, 0, 79, 80
2, 531456, Note_on_c, 0, 67, 80
2, 532988, Note_off_c, 0, 67, 64
2, 532988, Note_off_c, 0, 79, 64
2, 532992, Note_on_c, 0, 78, 80
2, 532992, Note_on_c, 0, 66, 80
2, 533756, Note_off_c, 0, 66, 64
2, 533756, Note_off_c, 0, 78, 64
2, 533760, Note_on_c, 0, 76, 80
2, 533760, Note_on_c, 0, 64, 80
2, 534140, Note_off_c, 0, 76, 100
2, 534140, Note_off_c, 0, 64, 100
2, 534144, Note_on_c, 0, 74, 100
2, 534144, Note_on_c, 0, 62, 80
2, 534908, Note_off_c, 0, 62, 64
2, 534908, Note_off_c, 0, 74, 100
2, 534912, Note_on_c, 0, 61, 80
2, 534912, Note_on_c, 0, 73, 80
2, 535292, Note_off_c, 0, 61, 100
2, 535292, Note_off_c, 0, 73, 100
2, 535296, Note_on_c, 0, 69, 80
2, 535296, Note_on_c, 0, 57, 80
2, 535868, Note_off_c, 0, 57, 64
2, 535868, Note_off_c, 0, 69, 64
2, 535872, Note_on_c, 0, 74, 80
2, 536060, Note_off_c, 0, 74, 64
2, 536064, Note_on_c, 0, 78, 80
2, 536252, Note_off_c, 0, 78, 100
2, 536256, Note_on_c, 0, 74, 100
2, 536444, Note_off_c, 0, 74, 100
2, 536448, Note_on_c, 0, 81, 80
2, 536636, Note_off_c, 0, 81, 100
2, 536640, Note_on_c, 0, 78, 80
2, 536828, Note_off_c, 0, 78, 100
2, 536832, Note_on_c, 0, 86, 80
2, 537020, Note_off_c, 0, 86, 64
2, 537024, Note_on_c, 0, 85, 80
2, 537212, Note_off_c, 0, 85, 100
2, 537216, Note_on_c, 0, 83, 80
2, 537404, Note_off_c, 0, 83, 100
2, 537408, Note_on_c, 0, 81, 80
2, 537596, Note_off_c, 0, 81, 100
2, 537600, Note_on_c, 0, 79, 80
2, 537788, Note_off_c, 0, 79, 64
2, 537792, Note_on_c, 0, 78, 80
2, 538364, Note_off_c, 0, 78, 64
2, 538368, Note_on_c, 0, 76, 80
2, 538368, Note_on_c, 0, 64, 80
2, 538748, Note_off_c, 0, 76, 100
2, 538748, Note_off_c, 0, 64, 100
2, 538752, Note_on_c, 0, 74, 100
2, 538752, Note_on_c, 0, 62, 80
2, 539516, Note_off_c, 0, 62, 64
2, 539516, Note_off_c, 0, 74, 100
2, 539520, Note_on_c, 0, 73, 80
2, 539520, Note_on_c, 0, 61, 80
2, 539900, Note_off_c, 0, 73, 100
2, 539900, Note_off_c, 0, 61, 100
2, 539904, Note_on_c, 0, 69, 80
2, 539904, Note_on_c, 0, 57, 80
2, 540412, Note_off_c, 0, 57, 64
2, 540412, Note_off_c, 0, 69, 64
2, 540416, Note_on_c, 0, 74, 80
2, 540544, Note_on_c, 0, 73, 80
2, 540660, Note_off_c, 0, 74, 64
2, 540672, Note_on_c, 0, 74, 80
2, 540780, Note_off_c, 0, 73, 100
2, 540800, Note_on_c, 0, 76, 80
2, 540904, Note_off_c, 0, 74, 64
2, 540928, Note_on_c, 0, 78, 80
2, 541044, Note_off_c, 0, 76, 100
2, 541056, Note_on_c, 0, 79, 80
2, 541152, Note_on_c, 0, 81, 80
2, 541176, Note_off_c, 0, 78, 100
2, 541248, Note_on_c, 0, 83, 80
2, 541308, Note_off_c, 0, 79, 64
2, 541332, Note_off_c, 0, 81, 100
2, 541344, Note_on_c, 0, 85, 80
2, 541432, Note_off_c, 0, 83, 100
2, 541440, Note_on_c, 0, 86, 80
2, 541528, Note_off_c, 0, 85, 100
2, 541568, Note_on_c, 0, 85, 80
2, 541624, Note_off_c, 0, 86, 64
2, 541696, Note_on_c, 0, 88, 80
2, 541752, Note_off_c, 0, 85, 100
2, 541824, Note_on_c, 0, 86, 80
2, 541872, Note_off_c, 0, 88, 100
2, 541952, Note_on_c, 0, 85, 80
2, 542004, Note_off_c, 0, 86, 100
2, 542080, Note_on_c, 0, 83, 80
2, 542132, Note_off_c, 0, 85, 100
2, 542208, Note_on_c, 0, 81, 80
2, 542324, Note_off_c, 0, 83, 100
2, 542336, Note_on_c, 0, 79, 80
2, 542436, Note_off_c, 0, 81, 100
2, 542464, Note_on_c, 0, 78, 80
2, 542572, Note_off_c, 0, 79, 64
2, 542972, Note_off_c, 0, 78, 64
2, 542976, Note_on_c, 0, 76, 80
2, 542976, Note_on_c, 0, 64, 80
2, 543356, Note_off_c, 0, 76, 100
2, 543356, Note_off_c, 0, 64, 100
2, 543360, Note_on_c, 0, 74, 80
2, 543360, Note_on_c, 0, 62, 80
2, 544124, Note_off_c, 0, 62, 64
2, 544124, Note_off_c, 0, 74, 64
2, 544128, Note_on_c, 0, 73, 80
2, 544128, Note_on_c, 0, 61, 80
2, 544508, Note_off_c, 0, 73, 100
2, 544508, Note_off_c, 0, 61, 100
2, 544512, Note_on_c, 0, 64, 80
2, 544512, Note_on_c, 0, 76, 80
2, 544892, Note_off_c, 0, 64, 100
2, 544892, Note_off_c, 0, 76, 100
2, 544896, Note_on_c, 0, 74, 100
2, 544896, Note_on_c, 0, 62, 80
2, 545276, Note_off_c, 0, 74, 100
2, 545276, Note_off_c, 0, 62, 64
2, 546048, Note_on_c, 0, 66, 80
2, 546048, Note_on_c, 0, 71, 80
2, 547196, Note_off_c, 0, 66, 64
2, 547196, Note_off_c, 0, 71, 64
2, 547200, Note_on_c, 0, 64, 80
2, 547200, Note_on_c, 0, 69, 80
2, 548348, Note_off_c, 0, 64, 64
2, 548352, Note_on_c, 0, 62, 80
2, 548732, Note_off_c, 0, 69, 64
2, 548732, Note_off_c, 0, 62, 64
2, 548736, Note_on_c, 0, 68, 80
2, 548924, Note_off_c, 0, 68, 100
2, 548928, Note_on_c, 0, 71, 80
2, 549116, Note_off_c, 0, 71, 100
2, 549120, Note_on_c, 0, 74, 80
2, 549888, Note_on_c, 0, 73, 80
2, 550268, Note_off_c, 0, 73, 100
2, 550652, Note_off_c, 0, 74, 64
2, 550656, Note_on_c, 0, 71, 80
2, 550656, Note_on_c, 0, 76, 80
2, 551804, Note_off_c, 0, 71, 64
2, 551804, Note_off_c, 0, 76, 64
2, 551808, Note_on_c, 0, 74, 100
2, 551808, Note_on_c, 0, 69, 80
2, 552956, Note_off_c, 0, 74, 100
2, 552956, Note_off_c, 0, 69, 64
2, 552960, Note_on_c, 0, 67, 80
2, 553340, Note_off_c, 0, 67, 64
2, 553344, Note_on_c, 0, 73, 80
2, 553532, Note_off_c, 0, 73, 100
2, 553536, Note_on_c, 0, 76, 80
2, 553724, Note_off_c, 0, 76, 100
2, 553728, Note_on_c, 0, 79, 80
2, 554492, Note_off_c, 0, 79, 64
2, 554496, Note_on_c, 0, 78, 80
2, 554876, Note_off_c, 0, 78, 100
2, 555264, Note_on_c, 0, 66, 80
2, 555456, Note_on_c, 0, 71, 80
2, 555644, Note_off_c, 0, 71, 100
2, 555648, Note_on_c, 0, 70, 80
2, 555836, Note_off_c, 0, 70, 100
2, 555840, Note_on_c, 0, 71, 80
2, 556028, Note_off_c, 0, 71, 100
2, 556032, Note_on_c, 0, 73, 80
2, 556220, Note_off_c, 0, 73, 100
2, 556224, Note_on_c, 0, 71, 80
2, 556412, Note_off_c, 0, 71, 100
2, 556416, Note_on_c, 0, 69, 80
2, 556604, Note_off_c, 0, 66, 64
2, 556608, Note_on_c, 0, 64, 80
2, 556796, Note_off_c, 0, 64, 100
2, 556800, Note_on_c, 0, 63, 80
2, 556988, Note_off_c, 0, 63, 100
2, 556992, Note_on_c, 0, 64, 80
2, 557180, Note_off_c, 0, 64, 100
2, 557184, Note_on_c, 0, 66, 80
2, 557372, Note_off_c, 0, 66, 100
2, 557376, Note_on_c, 0, 64, 80
2, 557564, Note_off_c, 0, 69, 64
2, 557564, Note_off_c, 0, 64, 100
2, 557568, Note_on_c, 0, 68, 80
2, 557568, Note_on_c, 0, 62, 80
2, 557756, Note_off_c, 0, 68, 64
2, 557760, Note_on_c, 0, 69, 80
2, 557948, Note_off_c, 0, 62, 64
2, 557948, Note_off_c, 0, 69, 100
2, 557952, Note_on_c, 0, 71, 80
2, 558140, Note_off_c, 0, 71, 100
2, 558144, Note_on_c, 0, 73, 80
2, 558332, Note_off_c, 0, 73, 100
2, 558336, Note_on_c, 0, 74, 100
2, 558524, Note_off_c, 0, 74, 100
2, 558528, Note_on_c, 0, 76, 80
2, 558716, Note_off_c, 0, 76, 100
2, 558720, Note_on_c, 0, 74, 100
2, 558908, Note_off_c, 0, 74, 100
2, 558912, Note_on_c, 0, 73, 80
2, 559100, Note_off_c, 0, 73, 100
2, 559104, Note_on_c, 0, 71, 80
2, 559292, Note_off_c, 0, 71, 100
2, 559296, Note_on_c, 0, 69, 80
2, 559484, Note_off_c, 0, 69, 100
2, 559488, Note_on_c, 0, 68, 80
2, 559676, Note_off_c, 0, 68, 100
2, 559680, Note_on_c, 0, 69, 80
2, 559868, Note_off_c, 0, 69, 100
2, 559872, Note_on_c, 0, 74, 100
2, 560060, Note_off_c, 0, 74, 100
2, 560064, Note_on_c, 0, 76, 80
2, 560252, Note_off_c, 0, 76, 100
2, 560256, Note_on_c, 0, 75, 80
2, 560444, Note_off_c, 0, 75, 100
2, 560448, Note_on_c, 0, 76, 80
2, 560636, Note_off_c, 0, 76, 100
2, 560640, Note_on_c, 0, 78, 80
2, 560828, Note_off_c, 0, 78, 100
2, 560832, Note_on_c, 0, 76, 80
2, 561020, Note_off_c, 0, 76, 100
2, 561024, Note_on_c, 0, 74, 100
2, 561212, Note_off_c, 0, 74, 100
2, 561216, Note_on_c, 0, 69, 80
2, 561404, Note_off_c, 0, 69, 100
2, 561408, Note_on_c, 0, 68, 80
2, 561596, Note_off_c, 0, 68, 100
2, 561600, Note_on_c, 0, 69, 80
2, 561788, Note_off_c, 0, 69, 100
2, 561792, Note_on_c, 0, 71, 80
2, 561980, Note_off_c, 0, 71, 100
2, 561984, Note_on_c, 0, 69, 80
2, 562172, Note_off_c, 0, 69, 100
2, 562176, Note_on_c, 0, 73, 80
2, 562176, Note_on_c, 0, 67, 80
2, 562364, Note_off_c, 0, 73, 64
2, 562368, Note_on_c, 0, 74, 100
2, 562556, Note_off_c, 0, 67, 64
2, 562556, Note_off_c, 0, 74, 100
2, 562560, Note_on_c, 0, 76, 80
2, 562748, Note_off_c, 0, 76, 100
2, 562752, Note_on_c, 0, 78, 80
2, 562940, Note_off_c, 0, 78, 100
2, 562944, Note_on_c, 0, 79, 80
2, 563136, Note_on_c, 0, 81, 80
2, 563324, Note_off_c, 0, 79, 64
2, 563324, Note_off_c, 0, 81, 100
2, 563328, Note_on_c, 0, 79, 80
2, 563516, Note_off_c, 0, 79, 64
2, 563520, Note_on_c, 0, 78, 80
2, 563708, Note_off_c, 0, 78, 100
2, 563712, Note_on_c, 0, 76, 80
2, 563900, Note_off_c, 0, 76, 100
2, 563904, Note_on_c, 0, 74, 100
2, 564092, Note_off_c, 0, 74, 100
2, 564096, Note_on_c, 0, 73, 80
2, 564284, Note_off_c, 0, 73, 100
2, 564288, Note_on_c, 0, 74, 100
2, 564476, Note_off_c, 0, 74, 100
2, 564480, Note_on_c, 0, 80, 90
2, 564668, Note_off_c, 0, 80, 64
2, 564672, Note_on_c, 0, 81, 90
2, 564860, Note_off_c, 0, 81, 100
2, 564864, Note_on_c, 0, 83, 91
2, 565052, Note_off_c, 0, 83, 100
2, 565056, Note_on_c, 0, 85, 92
2, 565244, Note_off_c, 0, 85, 100
2, 565248, Note_on_c, 0, 86, 93
2, 565436, Note_off_c, 0, 86, 100
2, 565440, Note_on_c, 0, 88, 94
2, 565628, Note_off_c, 0, 88, 100
2, 565632, Note_on_c, 0, 86, 95
2, 565820, Note_off_c, 0, 86, 64
2, 565824, Note_on_c, 0, 85, 96
2, 566012, Note_off_c, 0, 85, 100
2, 566016, Note_on_c, 0, 83, 96
2, 566204, Note_off_c, 0, 83, 100
2, 566208, Note_on_c, 0, 81, 97
2, 566396, Note_off_c, 0, 81, 100
2, 566400, Note_on_c, 0, 80, 98
2, 566588, Note_off_c, 0, 80, 100
2, 566592, Note_on_c, 0, 81, 99
2, 566780, Note_off_c, 0, 81, 100
2, 566784, Note_on_c, 0, 80, 100
2, 566972, Note_off_c, 0, 80, 64
2, 566976, Note_on_c, 0, 81, 101
2, 567164, Note_off_c, 0, 81, 100
2, 567168, Note_on_c, 0, 83, 102
2, 567356, Note_off_c, 0, 83, 100
2, 567360, Note_on_c, 0, 85, 103
2, 567548, Note_off_c, 0, 85, 100
2, 567552, Note_on_c, 0, 86, 103
2, 567740, Note_off_c, 0, 86, 100
2, 567744, Note_on_c, 0, 88, 104
2, 567932, Note_off_c, 0, 88, 100
2, 567936, Note_on_c, 0, 86, 105
2, 568124, Note_off_c, 0, 86, 64
2, 568128, Note_on_c, 0, 85, 106
2, 568316, Note_off_c, 0, 85, 100
2, 568320, Note_on_c, 0, 83, 107
2, 568508, Note_off_c, 0, 83, 100
2, 568512, Note_on_c, 0, 81, 108
2, 568700, Note_off_c, 0, 81, 100
2, 568704, Note_on_c, 0, 80, 109
2, 568892, Note_off_c, 0, 80, 100
2, 568896, Note_on_c, 0, 81, 109
2, 569084, Note_off_c, 0, 81, 100
2, 569088, Note_on_c, 0, 80, 110
2, 569276, Note_off_c, 0, 80, 64
2, 569280, Note_on_c, 0, 81, 110
2, 569468, Note_off_c, 0, 81, 100
2, 569472, Note_on_c, 0, 83, 110
2, 569660, Note_off_c, 0, 83, 100
2, 569664, Note_on_c, 0, 85, 110
2, 569852, Note_off_c, 0, 85, 100
2, 569856, Note_on_c, 0, 86, 110
2, 570044, Note_off_c, 0, 86, 100
2, 570048, Note_on_c, 0, 88, 110
2, 570236, Note_off_c, 0, 88, 100
2, 570240, Note_on_c, 0, 86, 110
2, 570428, Note_off_c, 0, 86, 64
2, 570432, Note_on_c, 0, 85, 108
2, 570620, Note_off_c, 0, 85, 100
2, 570624, Note_on_c, 0, 83, 105
2, 570812, Note_off_c, 0, 83, 100
2, 570816, Note_on_c, 0, 81, 102
2, 571004, Note_off_c, 0, 81, 100
2, 571008, Note_on_c, 0, 80, 100
2, 571196, Note_off_c, 0, 80, 100
2, 571200, Note_on_c, 0, 78, 97
2, 571388, Note_off_c, 0, 78, 100
2, 571392, Note_on_c, 0, 76, 94
2, 571580, Note_off_c, 0, 76, 64
2, 571584, Note_on_c, 0, 74, 91
2, 571772, Note_off_c, 0, 74, 100
2, 571776, Note_on_c, 0, 73, 89
2, 571964, Note_off_c, 0, 73, 100
2, 571968, Note_on_c, 0, 71, 86
2, 572156, Note_off_c, 0, 71, 100
2, 572160, Note_on_c, 0, 69, 83
2, 572348, Note_off_c, 0, 69, 100
2, 572352, Note_on_c, 0, 68, 81
2, 572540, Note_off_c, 0, 68, 100
2, 572544, Note_on_c, 0, 69, 80
2, 574844, Note_off_c, 0, 69, 64
2, 574848, Note_on_c, 0, 61, 70
2, 574848, Note_on_c, 0, 64, 70
2, 574848, Note_on_c, 0, 70, 70
2, 575996, Note_off_c, 0, 61, 64
2, 575996, Note_off_c, 0, 64, 64
2, 575996, Note_off_c, 0, 70, 64
2, 576000, Note_on_c, 0, 62, 70
2, 576000, Note_on_c, 0, 66, 70
2, 576000, Note_on_c, 0, 71, 70
2, 577148, Note_off_c, 0, 62, 64
2, 577148, Note_off_c, 0, 66, 64
2, 577148, Note_off_c, 0, 71, 64
2, 577152, Note_on_c, 0, 64, 70
2, 577152, Note_on_c, 0, 70, 70
2, 577152, Note_on_c, 0, 73, 70
2, 578300, Note_off_c, 0, 64, 64
2, 578300, Note_off_c, 0, 70, 64
2, 578300, Note_off_c, 0, 73, 64
2, 578304, Note_on_c, 0, 74, 70
2, 578304, Note_on_c, 0, 66, 70
2, 578304, Note_on_c, 0, 71, 70
2, 579452, Note_off_c, 0, 74, 100
2, 579452, Note_off_c, 0, 66, 64
2, 579452, Note_off_c, 0, 71, 64
2, 579456, Note_on_c, 0, 66, 70
2, 579456, Note_on_c, 0, 69, 70
2, 579456, Note_on_c, 0, 72, 70
2, 579456, Note_on_c, 0, 75, 70
2, 580604, Note_off_c, 0, 66, 64
2, 580604, Note_off_c, 0, 69, 64
2, 580604, Note_off_c, 0, 72, 64
2, 580604, Note_off_c, 0, 75, 64
2, 580608, Note_on_c, 0, 76, 70
2, 580608, Note_on_c, 0, 67, 70
2, 580608, Note_on_c, 0, 71, 70
2, 580988, Note_off_c, 0, 76, 64
2, 580992, Note_on_c, 0, 78, 70
2, 581372, Note_off_c, 0, 78, 100
2, 581376, Note_on_c, 0, 79, 70
2, 581756, Note_off_c, 0, 67, 64
2, 581756, Note_off_c, 0, 71, 64
2, 581756, Note_off_c, 0, 79, 64
2, 581760, Note_on_c, 0, 74, 70
2, 581760, Note_on_c, 0, 66, 70
2, 581760, Note_on_c, 0, 69, 70
2, 582524, Note_off_c, 0, 74, 64
2, 582524, Note_off_c, 0, 66, 64
2, 582524, Note_off_c, 0, 69, 64
2, 582528, Note_on_c, 0, 73, 70
2, 582528, Note_on_c, 0, 67, 70
2, 582528, Note_on_c, 0, 64, 70
2, 582908, Note_off_c, 0, 73, 100
2, 582908, Note_off_c, 0, 67, 100
2, 582908, Note_off_c, 0, 64, 100
2, 582912, Note_on_c, 0, 74, 70
2, 582912, Note_on_c, 0, 66, 70
2, 583100, Note_off_c, 0, 74, 100
2, 583100, Note_off_c, 0, 66, 64
2, 583104, Note_on_c, 0, 78, 70
2, 583292, Note_off_c, 0, 78, 100
2, 583296, Note_on_c, 0, 76, 70
2, 583484, Note_off_c, 0, 76, 100
2, 583488, Note_on_c, 0, 74, 70
2, 583676, Note_off_c, 0, 74, 100
2, 583680, Note_on_c, 0, 73, 70
2, 583868, Note_off_c, 0, 73, 100
2, 583872, Note_on_c, 0, 71, 70
2, 584060, Note_off_c, 0, 71, 100
2, 584064, Note_on_c, 0, 70, 70
2, 585212, Note_off_c, 0, 70, 64
2, 585216, Note_on_c, 0, 71, 75
2, 586364, Note_off_c, 0, 71, 64
2, 586368, Note_on_c, 0, 70, 80
2, 586368, Note_on_c, 0, 73, 80
2, 587516, Note_off_c, 0, 70, 64
2, 587516, Note_off_c, 0, 73, 64
2, 587520, Note_on_c, 0, 74, 85
2, 587520, Note_on_c, 0, 71, 85
2, 588668, Note_off_c, 0, 74, 100
2, 588668, Note_off_c, 0, 71, 64
2, 588672, Note_on_c, 0, 71, 91
2, 588672, Note_on_c, 0, 76, 91
2, 589820, Note_off_c, 0, 71, 64
2, 589820, Note_off_c, 0, 76, 64
2, 589824, Note_on_c, 0, 71, 96
2, 589824, Note_on_c, 0, 77, 96
2, 590972, Note_off_c, 0, 71, 64
2, 590972, Note_off_c, 0, 77, 64
2, 590976, Note_on_c, 0, 70, 80
2, 590976, Note_on_c, 0, 78, 80
2, 591164, Note_off_c, 0, 70, 64
2, 591168, Note_on_c, 0, 73, 80
2, 591356, Note_off_c, 0, 73, 100
2, 591360, Note_on_c, 0, 70, 80
2, 591548, Note_off_c, 0, 70, 100
2, 591552, Note_on_c, 0, 73, 80
2, 591740, Note_off_c, 0, 73, 100
2, 591744, Note_on_c, 0, 70, 80
2, 591932, Note_off_c, 0, 70, 100
2, 591936, Note_on_c, 0, 73, 80
2, 592124, Note_off_c, 0, 73, 100
2, 592128, Note_on_c, 0, 70, 80
2, 592316, Note_off_c, 0, 70, 64
2, 592320, Note_on_c, 0, 73, 80
2, 592508, Note_off_c, 0, 73, 100
2, 592512, Note_on_c, 0, 70, 80
2, 592700, Note_off_c, 0, 70, 100
2, 592704, Note_on_c, 0, 73, 80
2, 592892, Note_off_c, 0, 78, 64
2, 592892, Note_off_c, 0, 73, 100
2, 592896, Note_on_c, 0, 71, 80
2, 592896, Note_on_c, 0, 77, 80
2, 593084, Note_off_c, 0, 71, 100
2, 593088, Note_on_c, 0, 73, 80
2, 593276, Note_off_c, 0, 77, 100
2, 593276, Note_off_c, 0, 73, 100
2, 593280, Note_on_c, 0, 70, 80
2, 593280, Note_on_c, 0, 78, 80
2, 593468, Note_off_c, 0, 70, 64
2, 593472, Note_on_c, 0, 73, 80
2, 593660, Note_off_c, 0, 73, 100
2, 593664, Note_on_c, 0, 70, 80
2, 593852, Note_off_c, 0, 70, 100
2, 593856, Note_on_c, 0, 73, 80
2, 594044, Note_off_c, 0, 78, 64
2, 594044, Note_off_c, 0, 73, 100
2, 594048, Note_on_c, 0, 71, 80
2, 594048, Note_on_c, 0, 77, 80
2, 594236, Note_off_c, 0, 71, 100
2, 594240, Note_on_c, 0, 73, 80
2, 594428, Note_off_c, 0, 77, 100
2, 594428, Note_off_c, 0, 73, 100
2, 594432, Note_on_c, 0, 70, 80
2, 594432, Note_on_c, 0, 78, 80
2, 594620, Note_off_c, 0, 70, 64
2, 594624, Note_on_c, 0, 73, 80
2, 594812, Note_off_c, 0, 73, 100
2, 594816, Note_on_c, 0, 70, 80
2, 595004, Note_off_c, 0, 70, 100
2, 595008, Note_on_c, 0, 73, 80
2, 595196, Note_off_c, 0, 78, 64
2, 595196, Note_off_c, 0, 73, 100
2, 595200, Note_on_c, 0, 71, 80
2, 595200, Note_on_c, 0, 77, 80
2, 595388, Note_off_c, 0, 71, 100
2, 595392, Note_on_c, 0, 73, 80
2, 595580, Note_off_c, 0, 77, 100
2, 595580, Note_off_c, 0, 73, 100
2, 595584, Note_on_c, 0, 70, 80
2, 595584, Note_on_c, 0, 78, 80
2, 595772, Note_off_c, 0, 70, 64
2, 595776, Note_on_c, 0, 73, 80
2, 595964, Note_off_c, 0, 73, 100
2, 595968, Note_on_c, 0, 70, 80
2, 596156, Note_off_c, 0, 70, 100
2, 596160, Note_on_c, 0, 73, 80
2, 596348, Note_off_c, 0, 73, 100
2, 596352, Note_on_c, 0, 70, 80
2, 596540, Note_off_c, 0, 70, 100
2, 596544, Note_on_c, 0, 73, 80
2, 596732, Note_off_c, 0, 73, 100
2, 596736, Note_on_c, 0, 70, 80
2, 596924, Note_off_c, 0, 70, 64
2, 596928, Note_on_c, 0, 73, 80
2, 597116, Note_off_c, 0, 73, 100
2, 597120, Note_on_c, 0, 70, 80
2, 597308, Note_off_c, 0, 70, 100
2, 597312, Note_on_c, 0, 73, 80
2, 597500, Note_off_c, 0, 78, 64
2, 597500, Note_off_c, 0, 73, 100
2, 597504, Note_on_c, 0, 70, 80
2, 597504, Note_on_c, 0, 78, 80
2, 597692, Note_off_c, 0, 70, 100
2, 597696, Note_on_c, 0, 73, 80
2, 597884, Note_off_c, 0, 78, 100
2, 597884, Note_off_c, 0, 73, 100
2, 597888, Note_on_c, 0, 70, 80
2, 597888, Note_on_c, 0, 79, 80
2, 598076, Note_off_c, 0, 70, 64
2, 598080, Note_on_c, 0, 73, 80
2, 598268, Note_off_c, 0, 73, 100
2, 598272, Note_on_c, 0, 70, 80
2, 598460, Note_off_c, 0, 70, 100
2, 598464, Note_on_c, 0, 73, 80
2, 598652, Note_off_c, 0, 79, 64
2, 598652, Note_off_c, 0, 73, 100
2, 598656, Note_on_c, 0, 78, 80
2, 598656, Note_on_c, 0, 70, 80
2, 598844, Note_off_c, 0, 70, 100
2, 598848, Note_on_c, 0, 73, 80
2, 599036, Note_off_c, 0, 78, 100
2, 599036, Note_off_c, 0, 73, 100
2, 599040, Note_on_c, 0, 70, 80
2, 599040, Note_on_c, 0, 79, 80
2, 599228, Note_off_c, 0, 70, 64
2, 599232, Note_on_c, 0, 73, 80
2, 599420, Note_off_c, 0, 73, 100
2, 599424, Note_on_c, 0, 70, 80
2, 599612, Note_off_c, 0, 70, 100
2, 599616, Note_on_c, 0, 73, 80
2, 599804, Note_off_c, 0, 79, 64
2, 599804, Note_off_c, 0, 73, 100
2, 599808, Note_on_c, 0, 78, 80
2, 599808, Note_on_c, 0, 70, 80
2, 599996, Note_off_c, 0, 70, 100
2, 600000, Note_on_c, 0, 73, 80
2, 600188, Note_off_c, 0, 78, 100
2, 600188, Note_off_c, 0, 73, 100
2, 600192, Note_on_c, 0, 79, 80
2, 600192, Note_on_c, 0, 70, 80
2, 600380, Note_off_c, 0, 70, 64
2, 600384, Note_on_c, 0, 73, 80
2, 600572, Note_off_c, 0, 73, 100
2, 600576, Note_on_c, 0, 70, 80
2, 600764, Note_off_c, 0, 70, 100
2, 600768, Note_on_c, 0, 73, 80
2, 600956, Note_off_c, 0, 73, 100
2, 600960, Note_on_c, 0, 70, 80
2, 601148, Note_off_c, 0, 70, 100
2, 601152, Note_on_c, 0, 73, 80
2, 601340, Note_off_c, 0, 73, 100
2, 601344, Note_on_c, 0, 70, 80
2, 601532, Note_off_c, 0, 70, 64
2, 601536, Note_on_c, 0, 73, 80
2, 601724, Note_off_c, 0, 73, 100
2, 601728, Note_on_c, 0, 70, 80
2, 601916, Note_off_c, 0, 70, 100
2, 601920, Note_on_c, 0, 73, 80
2, 602108, Note_off_c, 0, 73, 100
2, 602112, Note_on_c, 0, 70, 80
2, 602300, Note_off_c, 0, 70, 100
2, 602304, Note_on_c, 0, 73, 80
2, 602492, Note_off_c, 0, 79, 64
2, 602492, Note_off_c, 0, 73, 100
2, 602496, Note_on_c, 0, 69, 80
2, 602496, Note_on_c, 0, 79, 80
2, 602684, Note_off_c, 0, 69, 64
2, 602688, Note_on_c, 0, 73, 80
2, 602876, Note_off_c, 0, 73, 100
2, 602880, Note_on_c, 0, 69, 80
2, 603068, Note_off_c, 0, 69, 100
2, 603072, Note_on_c, 0, 73, 80
2, 603260, Note_off_c, 0, 79, 64
2, 603260, Note_off_c, 0, 73, 100
2, 603264, Note_on_c, 0, 78, 80
2, 603264, Note_on_c, 0, 69, 80
2, 603452, Note_off_c, 0, 69, 100
2, 603456, Note_on_c, 0, 73, 80
2, 603644, Note_off_c, 0, 78, 100
2, 603644, Note_off_c, 0, 73, 100
2, 603648, Note_on_c, 0, 79, 80
2, 603648, Note_on_c, 0, 69, 80
2, 603836, Note_off_c, 0, 69, 64
2, 603840, Note_on_c, 0, 73, 80
2, 604028, Note_off_c, 0, 73, 100
2, 604032, Note_on_c, 0, 69, 80
2, 604220, Note_off_c, 0, 69, 100
2, 604224, Note_on_c, 0, 73, 80
2, 604412, Note_off_c, 0, 79, 100
2, 604412, Note_off_c, 0, 73, 100
2, 604416, Note_on_c, 0, 78, 80
2, 604416, Note_on_c, 0, 69, 80
2, 604604, Note_off_c, 0, 69, 100
2, 604608, Note_on_c, 0, 73, 80
2, 604796, Note_off_c, 0, 78, 100
2, 604796, Note_off_c, 0, 73, 100
2, 604800, Note_on_c, 0, 79, 80
2, 604800, Note_on_c, 0, 69, 80
2, 604988, Note_off_c, 0, 69, 64
2, 604992, Note_on_c, 0, 73, 80
2, 605180, Note_off_c, 0, 73, 100
2, 605184, Note_on_c, 0, 69, 80
2, 605372, Note_off_c, 0, 69, 100
2, 605376, Note_on_c, 0, 73, 80
2, 605564, Note_off_c, 0, 73, 100
2, 605568, Note_on_c, 0, 69, 80
2, 605756, Note_off_c, 0, 69, 100
2, 605760, Note_on_c, 0, 73, 80
2, 605948, Note_off_c, 0, 73, 100
2, 605952, Note_on_c, 0, 69, 80
2, 606140, Note_off_c, 0, 69, 64
2, 606144, Note_on_c, 0, 73, 80
2, 606332, Note_off_c, 0, 73, 100
2, 606336, Note_on_c, 0, 69, 80
2, 606524, Note_off_c, 0, 69, 100
2, 606528, Note_on_c, 0, 73, 80
2, 606716, Note_off_c, 0, 79, 64
2, 606716, Note_off_c, 0, 73, 100
2, 606720, Note_on_c, 0, 79, 80
2, 606720, Note_on_c, 0, 67, 80
2, 606908, Note_off_c, 0, 67, 100
2, 606912, Note_on_c, 0, 73, 80
2, 607100, Note_off_c, 0, 79, 100
2, 607100, Note_off_c, 0, 73, 100
2, 607104, Note_on_c, 0, 66, 80
2, 607104, Note_on_c, 0, 78, 80
2, 607292, Note_off_c, 0, 66, 64
2, 607296, Note_on_c, 0, 69, 80
2, 607484, Note_off_c, 0, 69, 100
2, 607488, Note_on_c, 0, 66, 80
2, 607676, Note_off_c, 0, 66, 100
2, 607680, Note_on_c, 0, 69, 80
2, 607868, Note_off_c, 0, 78, 64
2, 607868, Note_off_c, 0, 69, 100
2, 607872, Note_on_c, 0, 79, 80
2, 607872, Note_on_c, 0, 67, 80
2, 608060, Note_off_c, 0, 67, 100
2, 608064, Note_on_c, 0, 69, 80
2, 608252, Note_off_c, 0, 79, 100
2, 608252, Note_off_c, 0, 69, 100
2, 608256, Note_on_c, 0, 66, 80
2, 608256, Note_on_c, 0, 78, 80
2, 608444, Note_off_c, 0, 66, 64
2, 608448, Note_on_c, 0, 69, 80
2, 608636, Note_off_c, 0, 69, 100
2, 608640, Note_on_c, 0, 66, 80
2, 608828, Note_off_c, 0, 66, 100
2, 608832, Note_on_c, 0, 69, 80
2, 609020, Note_off_c, 0, 78, 64
2, 609020, Note_off_c, 0, 69, 100
2, 609024, Note_on_c, 0, 76, 80
2, 609024, Note_on_c, 0, 64, 80
2, 609212, Note_off_c, 0, 64, 100
2, 609216, Note_on_c, 0, 70, 80
2, 609404, Note_off_c, 0, 76, 100
2, 609404, Note_off_c, 0, 70, 100
2, 609408, Note_on_c, 0, 74, 80
2, 609408, Note_on_c, 0, 62, 80
2, 609596, Note_off_c, 0, 62, 64
2, 609600, Note_on_c, 0, 66, 80
2, 609788, Note_off_c, 0, 66, 100
2, 609792, Note_on_c, 0, 62, 80
2, 609980, Note_off_c, 0, 62, 100
2, 609984, Note_on_c, 0, 66, 80
2, 610172, Note_off_c, 0, 66, 100
2, 610176, Note_on_c, 0, 62, 80
2, 610364, Note_off_c, 0, 62, 100
2, 610368, Note_on_c, 0, 66, 80
2, 610556, Note_off_c, 0, 66, 100
2, 610560, Note_on_c, 0, 62, 80
2, 610748, Note_off_c, 0, 62, 64
2, 610752, Note_on_c, 0, 66, 80
2, 610940, Note_off_c, 0, 66, 100
2, 610944, Note_on_c, 0, 62, 80
2, 611132, Note_off_c, 0, 62, 100
2, 611136, Note_on_c, 0, 66, 80
2, 611324, Note_off_c, 0, 74, 100
2, 611324, Note_off_c, 0, 66, 100
2, 611328, Note_on_c, 0, 64, 80
2, 611328, Note_on_c, 0, 76, 80
2, 611516, Note_off_c, 0, 64, 100
2, 611520, Note_on_c, 0, 66, 80
2, 611708, Note_off_c, 0, 76, 100
2, 611708, Note_off_c, 0, 66, 100
2, 611712, Note_on_c, 0, 74, 80
2, 611712, Note_on_c, 0, 62, 80
2, 611900, Note_off_c, 0, 62, 64
2, 611904, Note_on_c, 0, 66, 80
2, 612092, Note_off_c, 0, 66, 100
2, 612096, Note_on_c, 0, 62, 80
2, 612284, Note_off_c, 0, 62, 100
2, 612288, Note_on_c, 0, 66, 80
2, 612476, Note_off_c, 0, 74, 100
2, 612476, Note_off_c, 0, 66, 100
2, 612480, Note_on_c, 0, 76, 80
2, 612480, Note_on_c, 0, 64, 80
2, 612668, Note_off_c, 0, 64, 100
2, 612672, Note_on_c, 0, 66, 80
2, 612860, Note_off_c, 0, 76, 100
2, 612860, Note_off_c, 0, 66, 100
2, 612864, Note_on_c, 0, 74, 80
2, 612864, Note_on_c, 0, 62, 80
2, 613052, Note_off_c, 0, 62, 64
2, 613056, Note_on_c, 0, 66, 80
2, 613244, Note_off_c, 0, 66, 100
2, 613248, Note_on_c, 0, 62, 80
2, 613436, Note_off_c, 0, 62, 100
2, 613440, Note_on_c, 0, 66, 80
2, 613628, Note_off_c, 0, 74, 100
2, 613628, Note_off_c, 0, 66, 100
2, 613632, Note_on_c, 0, 72, 80
2, 613632, Note_on_c, 0, 60, 80
2, 613820, Note_off_c, 0, 60, 100
2, 613824, Note_on_c, 0, 66, 80
2, 614012, Note_off_c, 0, 72, 100
2, 614012, Note_off_c, 0, 66, 100
2, 614016, Note_on_c, 0, 59, 80
2, 614016, Note_on_c, 0, 71, 80
2, 614204, Note_off_c, 0, 59, 64
2, 614208, Note_on_c, 0, 62, 80
2, 614396, Note_off_c, 0, 62, 100
2, 614400, Note_on_c, 0, 59, 80
2, 614588, Note_off_c, 0, 59, 100
2, 614592, Note_on_c, 0, 62, 80
2, 614780, Note_off_c, 0, 62, 100
2, 614784, Note_on_c, 0, 59, 80
2, 614972, Note_off_c, 0, 59, 100
2, 614976, Note_on_c, 0, 62, 80
2, 615164, Note_off_c, 0, 62, 100
2, 615168, Note_on_c, 0, 59, 80
2, 615356, Note_off_c, 0, 59, 64
2, 615360, Note_on_c, 0, 62, 80
2, 615548, Note_off_c, 0, 62, 100
2, 615552, Note_on_c, 0, 59, 80
2, 615740, Note_off_c, 0, 59, 100
2, 615744, Note_on_c, 0, 62, 80
2, 615932, Note_off_c, 0, 71, 64
2, 615932, Note_off_c, 0, 62, 100
2, 615936, Note_on_c, 0, 60, 80
2, 615936, Note_on_c, 0, 72, 80
2, 616124, Note_off_c, 0, 60, 100
2, 616128, Note_on_c, 0, 62, 80
2, 616316, Note_off_c, 0, 72, 100
2, 616316, Note_off_c, 0, 62, 100
2, 616320, Note_on_c, 0, 59, 80
2, 616320, Note_on_c, 0, 71, 80
2, 616508, Note_off_c, 0, 59, 64
2, 616512, Note_on_c, 0, 62, 80
2, 616700, Note_off_c, 0, 62, 100
2, 616704, Note_on_c, 0, 59, 80
2, 616892, Note_off_c, 0, 59, 100
2, 616896, Note_on_c, 0, 62, 80
2, 617084, Note_off_c, 0, 71, 64
2, 617084, Note_off_c, 0, 62, 100
2, 617088, Note_on_c, 0, 72, 80
2, 617088, Note_on_c, 0, 60, 80
2, 617276, Note_off_c, 0, 60, 100
2, 617280, Note_on_c, 0, 62, 80
2, 617468, Note_off_c, 0, 72, 100
2, 617468, Note_off_c, 0, 62, 100
2, 617472, Note_on_c, 0, 59, 80
2, 617472, Note_on_c, 0, 71, 80
2, 617660, Note_off_c, 0, 59, 64
2, 617664, Note_on_c, 0, 62, 81
2, 617852, Note_off_c, 0, 62, 100
2, 617856, Note_on_c, 0, 59, 83
2, 618044, Note_off_c, 0, 59, 100
2, 618048, Note_on_c, 0, 62, 84
2, 618236, Note_off_c, 0, 71, 64
2, 618236, Note_off_c, 0, 62, 100
2, 618240, Note_on_c, 0, 73, 86
2, 618240, Note_on_c, 0, 61, 86
2, 618428, Note_off_c, 0, 61, 100
2, 618432, Note_on_c, 0, 67, 88
2, 618620, Note_off_c, 0, 73, 100
2, 618620, Note_off_c, 0, 67, 100
2, 618624, Note_on_c, 0, 74, 89
2, 618624, Note_on_c, 0, 62, 89
2, 618812, Note_off_c, 0, 62, 64
2, 618816, Note_on_c, 0, 69, 91
2, 619004, Note_off_c, 0, 69, 100
2, 619008, Note_on_c, 0, 62, 93
2, 619196, Note_off_c, 0, 62, 100
2, 619200, Note_on_c, 0, 69, 94
2, 619388, Note_off_c, 0, 74, 100
2, 619388, Note_off_c, 0, 69, 100
2, 619392, Note_on_c, 0, 76, 96
2, 619392, Note_on_c, 0, 64, 96
2, 619580, Note_off_c, 0, 64, 100
2, 619584, Note_on_c, 0, 69, 98
2, 619772, Note_off_c, 0, 76, 100
2, 619772, Note_off_c, 0, 69, 100
2, 619776, Note_on_c, 0, 66, 99
2, 619776, Note_on_c, 0, 78, 99
2, 619964, Note_off_c, 0, 66, 64
2, 619968, Note_on_c, 0, 69, 101
2, 620156, Note_off_c, 0, 69, 100
2, 620160, Note_on_c, 0, 66, 103
2, 620348, Note_off_c, 0, 66, 100
2, 620352, Note_on_c, 0, 69, 104
2, 620540, Note_off_c, 0, 78, 64
2, 620540, Note_off_c, 0, 69, 100
2, 620544, Note_on_c, 0, 79, 106
2, 620544, Note_on_c, 0, 67, 106
2, 620732, Note_off_c, 0, 67, 100
2, 620736, Note_on_c, 0, 74, 108
2, 620924, Note_off_c, 0, 79, 64
2, 620924, Note_off_c, 0, 74, 100
2, 620928, Note_on_c, 0, 74, 110
2, 620928, Note_on_c, 0, 69, 110
2, 620928, Note_on_c, 0, 81, 110
2, 622076, Note_off_c, 0, 74, 100
2, 622076, Note_off_c, 0, 69, 64
2, 622076, Note_off_c, 0, 81, 64
2, 622080, Note_on_c, 0, 81, 110
2, 622208, Note_on_c, 0, 80, 110
2, 622320, Note_off_c, 0, 81, 64
2, 622336, Note_on_c, 0, 83, 110
2, 622456, Note_off_c, 0, 80, 100
2, 622464, Note_on_c, 0, 81, 110
2, 622584, Note_off_c, 0, 83, 100
2, 622592, Note_on_c, 0, 79, 110
2, 622704, Note_off_c, 0, 81, 100
2, 622720, Note_on_c, 0, 78, 110
2, 622828, Note_off_c, 0, 79, 64
2, 622848, Note_on_c, 0, 76, 110
2, 622920, Note_on_c, 0, 74, 110
2, 622948, Note_off_c, 0, 78, 100
2, 622992, Note_on_c, 0, 73, 110
2, 623012, Note_off_c, 0, 76, 100
2, 623064, Note_on_c, 0, 71, 110
2, 623072, Note_off_c, 0, 74, 64
2, 623136, Note_on_c, 0, 69, 110
2, 623160, Note_off_c, 0, 73, 100
2, 623224, Note_off_c, 0, 71, 100
2, 623228, Note_off_c, 0, 69, 100
2, 623232, Note_on_c, 0, 74, 110
2, 623232, Note_on_c, 0, 80, 110
2, 623232, Note_on_c, 0, 86, 110
2, 624380, Note_off_c, 0, 74, 100
2, 624380, Note_off_c, 0, 80, 64
2, 624380, Note_off_c, 0, 86, 64
2, 624384, Note_on_c, 0, 86, 110
2, 624512, Note_on_c, 0, 85, 110
2, 624616, Note_off_c, 0, 86, 64
2, 624640, Note_on_c, 0, 88, 110
2, 624736, Note_off_c, 0, 85, 100
2, 624768, Note_on_c, 0, 86, 110
2, 624840, Note_off_c, 0, 88, 100
2, 624896, Note_on_c, 0, 85, 110
2, 624972, Note_off_c, 0, 86, 100
2, 625024, Note_on_c, 0, 83, 110
2, 625120, Note_off_c, 0, 85, 100
2, 625152, Note_on_c, 0, 81, 110
2, 625216, Note_off_c, 0, 83, 100
2, 625224, Note_on_c, 0, 80, 110
2, 625244, Note_off_c, 0, 81, 100
2, 625296, Note_on_c, 0, 78, 110
2, 625316, Note_off_c, 0, 80, 100
2, 625368, Note_on_c, 0, 76, 110
2, 625388, Note_off_c, 0, 78, 100
2, 625440, Note_on_c, 0, 74, 110
2, 625460, Note_off_c, 0, 76, 100
2, 625532, Note_off_c, 0, 74, 100
2, 625536, Note_on_c, 0, 86, 110
2, 625664, Note_on_c, 0, 85, 110
2, 625752, Note_off_c, 0, 86, 64
2, 625792, Note_on_c, 0, 88, 110
2, 625908, Note_off_c, 0, 85, 100
2, 625920, Note_on_c, 0, 86, 110
2, 626032, Note_off_c, 0, 88, 100
2, 626048, Note_on_c, 0, 85, 110
2, 626132, Note_off_c, 0, 86, 100
2, 626176, Note_on_c, 0, 83, 110
2, 626264, Note_off_c, 0, 85, 100
2, 626304, Note_on_c, 0, 81, 110
2, 626376, Note_on_c, 0, 79, 110
2, 626396, Note_off_c, 0, 81, 100
2, 626404, Note_off_c, 0, 83, 100
2, 626448, Note_on_c, 0, 78, 110
2, 626488, Note_off_c, 0, 79, 64
2, 626520, Note_on_c, 0, 76, 110
2, 626540, Note_off_c, 0, 78, 100
2, 626592, Note_on_c, 0, 74, 110
2, 626612, Note_off_c, 0, 76, 100
2, 626684, Note_off_c, 0, 74, 100
2, 626688, Note_on_c, 0, 81, 110
2, 626816, Note_on_c, 0, 80, 110
2, 626932, Note_off_c, 0, 81, 64
2, 626944, Note_on_c, 0, 83, 110
2, 627032, Note_off_c, 0, 80, 100
2, 627072, Note_on_c, 0, 81, 110
2, 627160, Note_off_c, 0, 83, 100
2, 627200, Note_on_c, 0, 79, 110
2, 627288, Note_off_c, 0, 81, 100
2, 627328, Note_on_c, 0, 78, 110
2, 627436, Note_off_c, 0, 79, 64
2, 627456, Note_on_c, 0, 76, 110
2, 627524, Note_off_c, 0, 78, 100
2, 627528, Note_on_c, 0, 74, 110
2, 627548, Note_off_c, 0, 76, 100
2, 627600, Note_on_c, 0, 73, 110
2, 627620, Note_off_c, 0, 74, 100
2, 627672, Note_on_c, 0, 71, 110
2, 627692, Note_off_c, 0, 73, 100
2, 627744, Note_on_c, 0, 69, 110
2, 627764, Note_off_c, 0, 71, 100
2, 627836, Note_off_c, 0, 69, 100
2, 627840, Note_on_c, 0, 81, 80
2, 627840, Note_on_c, 0, 69, 80
2, 628028, Note_off_c, 0, 69, 64
2, 628032, Note_on_c, 0, 74, 80
2, 628224, Note_on_c, 0, 69, 80
2, 628412, Note_off_c, 0, 69, 100
2, 628416, Note_on_c, 0, 74, 80
2, 628604, Note_off_c, 0, 74, 100
2, 628608, Note_on_c, 0, 69, 80
2, 628796, Note_off_c, 0, 69, 100
2, 628800, Note_on_c, 0, 74, 80
2, 628988, Note_off_c, 0, 74, 64
2, 628988, Note_off_c, 0, 74, 100
2, 628992, Note_on_c, 0, 69, 80
2, 629180, Note_off_c, 0, 69, 64
2, 629184, Note_on_c, 0, 74, 80
2, 629372, Note_off_c, 0, 74, 100
2, 629376, Note_on_c, 0, 69, 80
2, 629564, Note_off_c, 0, 69, 100
2, 629568, Note_on_c, 0, 74, 80
2, 629756, Note_off_c, 0, 74, 100
2, 629760, Note_on_c, 0, 80, 80
2, 629760, Note_on_c, 0, 68, 80
2, 629948, Note_off_c, 0, 68, 100
2, 629952, Note_on_c, 0, 74, 80
2, 630140, Note_off_c, 0, 81, 64
2, 630140, Note_off_c, 0, 80, 100
2, 630140, Note_off_c, 0, 74, 100
2, 630144, Note_on_c, 0, 81, 80
2, 630144, Note_on_c, 0, 69, 80
2, 630332, Note_off_c, 0, 69, 64
2, 630336, Note_on_c, 0, 74, 80
2, 630524, Note_off_c, 0, 74, 100
2, 630528, Note_on_c, 0, 69, 80
2, 630716, Note_off_c, 0, 69, 100
2, 630720, Note_on_c, 0, 74, 80
2, 630908, Note_off_c, 0, 81, 100
2, 630908, Note_off_c, 0, 74, 100
2, 630912, Note_on_c, 0, 83, 80
2, 630912, Note_on_c, 0, 71, 80
2, 631100, Note_off_c, 0, 71, 100
2, 631104, Note_on_c, 0, 74, 80
2, 631292, Note_off_c, 0, 83, 100
2, 631292, Note_off_c, 0, 74, 100
2, 631296, Note_on_c, 0, 81, 80
2, 631296, Note_on_c, 0, 69, 80
2, 631484, Note_off_c, 0, 69, 64
2, 631488, Note_on_c, 0, 74, 80
2, 631676, Note_off_c, 0, 74, 100
2, 631680, Note_on_c, 0, 69, 80
2, 631868, Note_off_c, 0, 69, 100
2, 631872, Note_on_c, 0, 74, 80
2, 632060, Note_off_c, 0, 81, 64
2, 632060, Note_off_c, 0, 74, 100
2, 632064, Note_on_c, 0, 79, 80
2, 632064, Note_on_c, 0, 67, 80
2, 632252, Note_off_c, 0, 67, 100
2, 632256, Note_on_c, 0, 74, 80
2, 632444, Note_off_c, 0, 79, 64
2, 632444, Note_off_c, 0, 74, 100
2, 632448, Note_on_c, 0, 78, 80
2, 632448, Note_on_c, 0, 66, 80
2, 632636, Note_off_c, 0, 66, 64
2, 632640, Note_on_c, 0, 69, 80
2, 632828, Note_off_c, 0, 69, 100
2, 632832, Note_on_c, 0, 66, 80
2, 633020, Note_off_c, 0, 66, 100
2, 633024, Note_on_c, 0, 69, 80
2, 633212, Note_off_c, 0, 69, 100
2, 633216, Note_on_c, 0, 66, 80
2, 633404, Note_off_c, 0, 66, 100
2, 633408, Note_on_c, 0, 69, 80
2, 633596, Note_off_c, 0, 69, 100
2, 633600, Note_on_c, 0, 66, 80
2, 633788, Note_off_c, 0, 66, 64
2, 633792, Note_on_c, 0, 69, 80
2, 633980, Note_off_c, 0, 69, 100
2, 633984, Note_on_c, 0, 66, 80
2, 634172, Note_off_c, 0, 66, 100
2, 634176, Note_on_c, 0, 69, 80
2, 634364, Note_off_c, 0, 78, 64
2, 634364, Note_off_c, 0, 69, 100
2, 634368, Note_on_c, 0, 65, 80
2, 634368, Note_on_c, 0, 77, 80
2, 634556, Note_off_c, 0, 65, 100
2, 634560, Note_on_c, 0, 69, 80
2, 634748, Note_off_c, 0, 77, 100
2, 634748, Note_off_c, 0, 69, 100
2, 634752, Note_on_c, 0, 78, 80
2, 634752, Note_on_c, 0, 66, 80
2, 634940, Note_off_c, 0, 66, 64
2, 634944, Note_on_c, 0, 69, 80
2, 635132, Note_off_c, 0, 69, 100
2, 635136, Note_on_c, 0, 66, 80
2, 635324, Note_off_c, 0, 66, 100
2, 635328, Note_on_c, 0, 69, 80
2, 635516, Note_off_c, 0, 78, 64
2, 635516, Note_off_c, 0, 69, 100
2, 635520, Note_on_c, 0, 79, 80
2, 635520, Note_on_c, 0, 67, 80
2, 635708, Note_off_c, 0, 67, 100
2, 635712, Note_on_c, 0, 69, 80
2, 635900, Note_off_c, 0, 79, 64
2, 635900, Note_off_c, 0, 69, 100
2, 635904, Note_on_c, 0, 78, 80
2, 635904, Note_on_c, 0, 66, 80
2, 636092, Note_off_c, 0, 66, 64
2, 636096, Note_on_c, 0, 69, 80
2, 636284, Note_off_c, 0, 69, 100
2, 636288, Note_on_c, 0, 66, 80
2, 636476, Note_off_c, 0, 66, 100
2, 636480, Note_on_c, 0, 69, 80
2, 636668, Note_off_c, 0, 78, 64
2, 636668, Note_off_c, 0, 69, 100
2, 636672, Note_on_c, 0, 64, 80
2, 636672, Note_on_c, 0, 76, 80
2, 636860, Note_off_c, 0, 64, 100
2, 636864, Note_on_c, 0, 70, 80
2, 637052, Note_off_c, 0, 76, 100
2, 637052, Note_off_c, 0, 70, 100
2, 637056, Note_on_c, 0, 74, 80
2, 637056, Note_on_c, 0, 62, 80
2, 637244, Note_off_c, 0, 62, 64
2, 637248, Note_on_c, 0, 66, 80
2, 637436, Note_off_c, 0, 66, 100
2, 637440, Note_on_c, 0, 62, 81
2, 637628, Note_off_c, 0, 62, 100
2, 637632, Note_on_c, 0, 66, 81
2, 637820, Note_off_c, 0, 66, 100
2, 637824, Note_on_c, 0, 62, 82
2, 638012, Note_off_c, 0, 62, 100
2, 638016, Note_on_c, 0, 66, 83
2, 638204, Note_off_c, 0, 66, 100
2, 638208, Note_on_c, 0, 62, 83
2, 638396, Note_off_c, 0, 62, 64
2, 638400, Note_on_c, 0, 66, 84
2, 638588, Note_off_c, 0, 66, 100
2, 638592, Note_on_c, 0, 62, 85
2, 638780, Note_off_c, 0, 62, 100
2, 638784, Note_on_c, 0, 66, 85
2, 638972, Note_off_c, 0, 74, 100
2, 638972, Note_off_c, 0, 66, 100
2, 638976, Note_on_c, 0, 73, 86
2, 638976, Note_on_c, 0, 61, 86
2, 639164, Note_off_c, 0, 61, 100
2, 639168, Note_on_c, 0, 66, 87
2, 639356, Note_off_c, 0, 73, 100
2, 639356, Note_off_c, 0, 66, 100
2, 639360, Note_on_c, 0, 74, 87
2, 639360, Note_on_c, 0, 62, 87
2, 639548, Note_off_c, 0, 62, 64
2, 639552, Note_on_c, 0, 66, 88
2, 639740, Note_off_c, 0, 66, 100
2, 639744, Note_on_c, 0, 62, 88
2, 639932, Note_off_c, 0, 62, 100
2, 639936, Note_on_c, 0, 66, 89
2, 640124, Note_off_c, 0, 74, 100
2, 640124, Note_off_c, 0, 66, 100
2, 640128, Note_on_c, 0, 61, 90
2, 640128, Note_on_c, 0, 73, 90
2, 640316, Note_off_c, 0, 61, 100
2, 640320, Note_on_c, 0, 66, 90
2, 640508, Note_off_c, 0, 73, 100
2, 640508, Note_off_c, 0, 66, 100
2, 640512, Note_on_c, 0, 74, 91
2, 640512, Note_on_c, 0, 62, 91
2, 640700, Note_off_c, 0, 62, 64
2, 640704, Note_on_c, 0, 66, 92
2, 640892, Note_off_c, 0, 66, 100
2, 640896, Note_on_c, 0, 62, 92
2, 641084, Note_off_c, 0, 62, 100
2, 641088, Note_on_c, 0, 66, 93
2, 641276, Note_off_c, 0, 74, 100
2, 641276, Note_off_c, 0, 66, 100
2, 641280, Note_on_c, 0, 63, 94
2, 641280, Note_on_c, 0, 75, 94
2, 641468, Note_off_c, 0, 63, 100
2, 641472, Note_on_c, 0, 71, 94
2, 641660, Note_off_c, 0, 75, 100
2, 641660, Note_off_c, 0, 71, 100
2, 641664, Note_on_c, 0, 64, 95
2, 641664, Note_on_c, 0, 76, 95
2, 641852, Note_off_c, 0, 64, 64
2, 641856, Note_on_c, 0, 71, 95
2, 642044, Note_off_c, 0, 71, 100
2, 642048, Note_on_c, 0, 64, 96
2, 642236, Note_off_c, 0, 64, 100
2, 642240, Note_on_c, 0, 71, 97
2, 642428, Note_off_c, 0, 76, 64
2, 642428, Note_off_c, 0, 71, 100
2, 642432, Note_on_c, 0, 78, 97
2, 642432, Note_on_c, 0, 66, 97
2, 642620, Note_off_c, 0, 66, 100
2, 642624, Note_on_c, 0, 71, 98
2, 642812, Note_off_c, 0, 78, 100
2, 642812, Note_off_c, 0, 71, 100
2, 642816, Note_on_c, 0, 79, 99
2, 642816, Note_on_c, 0, 67, 99
2, 643004, Note_off_c, 0, 67, 64
2, 643008, Note_on_c, 0, 71, 99
2, 643196, Note_off_c, 0, 71, 100
2, 643200, Note_on_c, 0, 67, 100
2, 643388, Note_off_c, 0, 67, 100
2, 643392, Note_on_c, 0, 71, 101
2, 643580, Note_off_c, 0, 79, 100
2, 643580, Note_off_c, 0, 71, 100
2, 643584, Note_on_c, 0, 80, 101
2, 643584, Note_on_c, 0, 68, 101
2, 643772, Note_off_c, 0, 68, 100
2, 643776, Note_on_c, 0, 76, 102
2, 643964, Note_off_c, 0, 80, 100
2, 643964, Note_off_c, 0, 76, 100
2, 643968, Note_on_c, 0, 81, 102
2, 643968, Note_on_c, 0, 69, 102
2, 644156, Note_off_c, 0, 69, 64
2, 644160, Note_on_c, 0, 76, 103
2, 644348, Note_off_c, 0, 76, 100
2, 644352, Note_on_c, 0, 69, 104
2, 644540, Note_off_c, 0, 69, 100
2, 644544, Note_on_c, 0, 76, 104
2, 644732, Note_off_c, 0, 81, 100
2, 644732, Note_off_c, 0, 76, 100
2, 644736, Note_on_c, 0, 83, 105
2, 644736, Note_on_c, 0, 71, 105
2, 644924, Note_off_c, 0, 71, 100
2, 644928, Note_on_c, 0, 78, 106
2, 645116, Note_off_c, 0, 83, 100
2, 645116, Note_off_c, 0, 78, 100
2, 645120, Note_on_c, 0, 72, 106
2, 645120, Note_on_c, 0, 84, 106
2, 645308, Note_off_c, 0, 72, 64
2, 645312, Note_on_c, 0, 76, 107
2, 645500, Note_off_c, 0, 76, 100
2, 645504, Note_on_c, 0, 72, 108
2, 645692, Note_off_c, 0, 72, 100
2, 645696, Note_on_c, 0, 76, 108
2, 645884, Note_off_c, 0, 84, 64
2, 645884, Note_off_c, 0, 76, 100
2, 645888, Note_on_c, 0, 85, 109
2, 645888, Note_on_c, 0, 73, 109
2, 646076, Note_off_c, 0, 73, 100
2, 646080, Note_on_c, 0, 81, 109
2, 646268, Note_off_c, 0, 85, 100
2, 646268, Note_off_c, 0, 81, 100
2, 646272, Note_on_c, 0, 74, 110
2, 646272, Note_on_c, 0, 81, 110
2, 646272, Note_on_c, 0, 86, 110
2, 647420, Note_off_c, 0, 74, 64
2, 647420, Note_off_c, 0, 81, 100
2, 647420, Note_off_c, 0, 86, 64
2, 647424, Note_on_c, 0, 86, 110
2, 647548, Note_on_c, 0, 85, 110
2, 647648, Note_off_c, 0, 86, 64
2, 647676, Note_on_c, 0, 88, 110
2, 647764, Note_off_c, 0, 85, 100
2, 647808, Note_on_c, 0, 86, 110
2, 647888, Note_off_c, 0, 88, 100
2, 647936, Note_on_c, 0, 85, 110
2, 648028, Note_off_c, 0, 86, 100
2, 648064, Note_on_c, 0, 83, 110
2, 648172, Note_off_c, 0, 85, 100
2, 648192, Note_on_c, 0, 81, 110
2, 648240, Note_off_c, 0, 83, 100
2, 648264, Note_on_c, 0, 80, 110
2, 648284, Note_off_c, 0, 81, 64
2, 648336, Note_on_c, 0, 78, 110
2, 648356, Note_off_c, 0, 80, 100
2, 648408, Note_on_c, 0, 76, 110
2, 648428, Note_off_c, 0, 78, 64
2, 648480, Note_on_c, 0, 74, 110
2, 648500, Note_off_c, 0, 76, 100
2, 648572, Note_off_c, 0, 74, 100
2, 648576, Note_on_c, 0, 74, 110
2, 648576, Note_on_c, 0, 80, 110
2, 648576, Note_on_c, 0, 86, 110
2, 649724, Note_off_c, 0, 74, 100
2, 649724, Note_off_c, 0, 80, 64
2, 649724, Note_off_c, 0, 86, 64
2, 649728, Note_on_c, 0, 86, 110
2, 649852, Note_on_c, 0, 85, 110
2, 649952, Note_off_c, 0, 86, 64
2, 649980, Note_on_c, 0, 88, 110
2, 650068, Note_off_c, 0, 85, 100
2, 650112, Note_on_c, 0, 86, 110
2, 650192, Note_off_c, 0, 88, 100
2, 650240, Note_on_c, 0, 85, 110
2, 650332, Note_off_c, 0, 86, 100
2, 650368, Note_on_c, 0, 83, 110
2, 650476, Note_off_c, 0, 85, 100
2, 650496, Note_on_c, 0, 81, 110
2, 650544, Note_off_c, 0, 83, 100
2, 650568, Note_on_c, 0, 80, 110
2, 650588, Note_off_c, 0, 81, 64
2, 650640, Note_on_c, 0, 78, 110
2, 650660, Note_off_c, 0, 80, 100
2, 650712, Note_on_c, 0, 76, 110
2, 650732, Note_off_c, 0, 78, 64
2, 650784, Note_on_c, 0, 74, 110
2, 650804, Note_off_c, 0, 76, 100
2, 650876, Note_off_c, 0, 74, 100
2, 650880, Note_on_c, 0, 74, 110
2, 650880, Note_on_c, 0, 80, 110
2, 650880, Note_on_c, 0, 86, 110
2, 652028, Note_off_c, 0, 74, 100
2, 652028, Note_off_c, 0, 80, 64
2, 652028, Note_off_c, 0, 86, 64
2, 652032, Note_on_c, 0, 86, 110
2, 652156, Note_on_c, 0, 85, 110
2, 652256, Note_off_c, 0, 86, 64
2, 652284, Note_on_c, 0, 88, 110
2, 652372, Note_off_c, 0, 85, 100
2, 652416, Note_on_c, 0, 86, 110
2, 652496, Note_off_c, 0, 88, 100
2, 652544, Note_on_c, 0, 85, 110
2, 652636, Note_off_c, 0, 86, 100
2, 652672, Note_on_c, 0, 83, 110
2, 652780, Note_off_c, 0, 85, 100
2, 652800, Note_on_c, 0, 81, 110
2, 652848, Note_off_c, 0, 83, 100
2, 652872, Note_on_c, 0, 80, 110
2, 652892, Note_off_c, 0, 81, 64
2, 652944, Note_on_c, 0, 78, 110
2, 652964, Note_off_c, 0, 80, 100
2, 653016, Note_on_c, 0, 76, 110
2, 653036, Note_off_c, 0, 78, 64
2, 653088, Note_on_c, 0, 74, 110
2, 653108, Note_off_c, 0, 76, 100
2, 653180, Note_off_c, 0, 74, 100
2, 653184, Note_on_c, 0, 86, 110
2, 653308, Note_on_c, 0, 85, 110
2, 653408, Note_off_c, 0, 86, 64
2, 653436, Note_on_c, 0, 88, 110
2, 653524, Note_off_c, 0, 85, 100
2, 653568, Note_on_c, 0, 86, 110
2, 653648, Note_off_c, 0, 88, 100
2, 653696, Note_on_c, 0, 85, 110
2, 653788, Note_off_c, 0, 86, 100
2, 653824, Note_on_c, 0, 83, 110
2, 653932, Note_off_c, 0, 85, 100
2, 653952, Note_on_c, 0, 81, 110
2, 654000, Note_off_c, 0, 83, 100
2, 654024, Note_on_c, 0, 80, 110
2, 654044, Note_off_c, 0, 81, 64
2, 654096, Note_on_c, 0, 78, 110
2, 654116, Note_off_c, 0, 80, 100
2, 654168, Note_on_c, 0, 76, 110
2, 654188, Note_off_c, 0, 78, 64
2, 654240, Note_on_c, 0, 74, 110
2, 654260, Note_off_c, 0, 76, 100
2, 654332, Note_off_c, 0, 74, 100
2, 654336, Note_on_c, 0, 86, 110
2, 654460, Note_on_c, 0, 85, 110
2, 654560, Note_off_c, 0, 86, 64
2, 654588, Note_on_c, 0, 88, 110
2, 654676, Note_off_c, 0, 85, 100
2, 654720, Note_on_c, 0, 86, 110
2, 654800, Note_off_c, 0, 88, 100
2, 654848, Note_on_c, 0, 85, 110
2, 654940, Note_off_c, 0, 86, 100
2, 654976, Note_on_c, 0, 83, 110
2, 655084, Note_off_c, 0, 85, 100
2, 655104, Note_on_c, 0, 81, 110
2, 655152, Note_off_c, 0, 83, 100
2, 655176, Note_on_c, 0, 80, 110
2, 655196, Note_off_c, 0, 81, 64
2, 655248, Note_on_c, 0, 78, 110
2, 655268, Note_off_c, 0, 80, 100
2, 655320, Note_on_c, 0, 76, 110
2, 655340, Note_off_c, 0, 78, 64
2, 655392, Note_on_c, 0, 74, 110
2, 655412, Note_off_c, 0, 76, 100
2, 655484, Note_off_c, 0, 74, 100
2, 655488, Note_on_c, 0, 81, 110
2, 655488, Note_on_c, 0, 78, 110
2, 658172, Note_off_c, 0, 78, 100
2, 658172, Note_off_c, 0, 81, 100
2, 658176, Note_on_c, 0, 79, 80
2, 658176, Note_on_c, 0, 76, 80
2, 658556, Note_off_c, 0, 79, 64
2, 658556, Note_off_c, 0, 76, 100
2, 658560, Note_on_c, 0, 74, 80
2, 658560, Note_on_c, 0, 78, 80
2, 658940, Note_off_c, 0, 74, 100
2, 658940, Note_off_c, 0, 78, 100
2, 658944, Note_on_c, 0, 74, 80
2, 658944, Note_on_c, 0, 78, 80
2, 659708, Note_off_c, 0, 74, 100
2, 659708, Note_off_c, 0, 78, 100
2, 659712, Note_on_c, 0, 76, 80
2, 659712, Note_on_c, 0, 73, 80
2, 660092, Note_off_c, 0, 76, 100
2, 660092, Note_off_c, 0, 73, 100
2, 660096, Note_on_c, 0, 74, 80
2, 660476, Note_off_c, 0, 74, 100
2, 660864, Note_on_c, 0, 81, 80
2, 662012, Note_off_c, 0, 81, 64
2, 662016, Note_on_c, 0, 69, 80
2, 663164, Note_off_c, 0, 69, 64
2, 663168, Note_on_c, 0, 74, 80
2, 663932, Note_off_c, 0, 74, 100
2, 663936, Note_on_c, 0, 73, 80
2, 664316, Note_off_c, 0, 73, 100
2, 664320, Note_on_c, 0, 79, 80
2, 665084, Note_off_c, 0, 79, 100
2, 665088, Note_on_c, 0, 78, 80
2, 665468, Note_off_c, 0, 78, 100
2, 665472, Note_on_c, 0, 86, 80
2, 666620, Note_off_c, 0, 86, 100
2, 666624, Note_on_c, 0, 74, 80
2, 667772, Note_off_c, 0, 74, 100
2, 667776, Note_on_c, 0, 83, 80
2, 668540, Note_off_c, 0, 83, 100
2, 668544, Note_on_c, 0, 81, 80
2, 668924, Note_off_c, 0, 81, 100
2, 668928, Note_on_c, 0, 79, 80
2, 669308, Note_off_c, 0, 79, 100
2, 669312, Note_on_c, 0, 78, 80
2, 669692, Note_off_c, 0, 78, 100
2, 669696, Note_on_c, 0, 74, 80
2, 670076, Note_off_c, 0, 74, 100
2, 670080, Note_on_c, 0, 69, 80
2, 670080, Note_on_c, 0, 81, 80
2, 671228, Note_off_c, 0, 69, 100
2, 671228, Note_off_c, 0, 81, 100
2, 671232, Note_on_c, 0, 57, 80
2, 671232, Note_on_c, 0, 69, 80
2, 672380, Note_off_c, 0, 57, 100
2, 672380, Note_off_c, 0, 69, 100
2, 672384, Note_on_c, 0, 62, 80
2, 672384, Note_on_c, 0, 74, 80
2, 673148, Note_off_c, 0, 62, 100
2, 673148, Note_off_c, 0, 74, 100
2, 673152, Note_on_c, 0, 61, 80
2, 673152, Note_on_c, 0, 73, 80
2, 673532, Note_off_c, 0, 61, 100
2, 673532, Note_off_c, 0, 73, 100
2, 673536, Note_on_c, 0, 67, 80
2, 673536, Note_on_c, 0, 79, 80
2, 674300, Note_off_c, 0, 67, 100
2, 674300, Note_off_c, 0, 79, 100
2, 674304, Note_on_c, 0, 66, 80
2, 674304, Note_on_c, 0, 78, 80
2, 674684, Note_off_c, 0, 66, 100
2, 674684, Note_off_c, 0, 78, 100
2, 674688, Note_on_c, 0, 74, 80
2, 674688, Note_on_c, 0, 86, 80
2, 675836, Note_off_c, 0, 74, 100
2, 675836, Note_off_c, 0, 86, 100
2, 675840, Note_on_c, 0, 62, 80
2, 675840, Note_on_c, 0, 74, 80
2, 676988, Note_off_c, 0, 62, 100
2, 676988, Note_off_c, 0, 74, 100
2, 676992, Note_on_c, 0, 71, 80
2, 676992, Note_on_c, 0, 83, 80
2, 677756, Note_off_c, 0, 71, 100
2, 677756, Note_off_c, 0, 83, 100
2, 677760, Note_on_c, 0, 69, 80
2, 677760, Note_on_c, 0, 81, 80
2, 678140, Note_off_c, 0, 69, 100
2, 678140, Note_off_c, 0, 81, 100
2, 678144, Note_on_c, 0, 67, 80
2, 678144, Note_on_c, 0, 79, 80
2, 678524, Note_off_c, 0, 67, 100
2, 678524, Note_off_c, 0, 79, 100
2, 678528, Note_on_c, 0, 66, 80
2, 678528, Note_on_c, 0, 78, 80
2, 678908, Note_off_c, 0, 66, 100
2, 678908, Note_off_c, 0, 78, 100
2, 678912, Note_on_c, 0, 74, 80
2, 679292, Note_off_c, 0, 74, 100
2, 679296, Note_on_c, 0, 86, 80
2, 679296, Note_on_c, 0, 74, 80
2, 680444, Note_off_c, 0, 74, 100
2, 680444, Note_off_c, 0, 86, 100
2, 680448, Note_on_c, 0, 62, 80
2, 680448, Note_on_c, 0, 74, 80
2, 681596, Note_off_c, 0, 62, 100
2, 681596, Note_off_c, 0, 74, 100
2, 681600, Note_on_c, 0, 83, 87
2, 681600, Note_on_c, 0, 71, 87
2, 682364, Note_off_c, 0, 71, 100
2, 682364, Note_off_c, 0, 83, 100
2, 682368, Note_on_c, 0, 69, 92
2, 682368, Note_on_c, 0, 81, 92
2, 682748, Note_off_c, 0, 69, 100
2, 682748, Note_off_c, 0, 81, 100
2, 682752, Note_on_c, 0, 79, 94
2, 682752, Note_on_c, 0, 67, 94
2, 683132, Note_off_c, 0, 79, 100
2, 683132, Note_off_c, 0, 67, 100
2, 683136, Note_on_c, 0, 66, 97
2, 683136, Note_on_c, 0, 78, 97
2, 683516, Note_off_c, 0, 66, 100
2, 683516, Note_off_c, 0, 78, 100
2, 683520, Note_on_c, 0, 74, 99
2, 683900, Note_off_c, 0, 74, 100
2, 683904, Note_on_c, 0, 71, 102
2, 683904, Note_on_c, 0, 83, 102
2, 684668, Note_off_c, 0, 71, 100
2, 684668, Note_off_c, 0, 83, 100
2, 684672, Note_on_c, 0, 69, 107
2, 684672, Note_on_c, 0, 81, 107
2, 685052, Note_off_c, 0, 69, 100
2, 685052, Note_off_c, 0, 81, 100
2, 685056, Note_on_c, 0, 79, 109
2, 685056, Note_on_c, 0, 67, 109
2, 685436, Note_off_c, 0, 79, 100
2, 685436, Note_off_c, 0, 67, 100
2, 685440, Note_on_c, 0, 66, 110
2, 685440, Note_on_c, 0, 78, 110
2, 685820, Note_off_c, 0, 66, 100
2, 685820, Note_off_c, 0, 78, 100
2, 685824, Note_on_c, 0, 74, 110
2, 686204, Note_off_c, 0, 74, 100
2, 686208, Note_on_c, 0, 71, 110
2, 686972, Note_off_c, 0, 71, 100
2, 686976, Note_on_c, 0, 69, 110
2, 687356, Note_off_c, 0, 69, 100
2, 687360, Note_on_c, 0, 67, 110
2, 687740, Note_off_c, 0, 67, 100
2, 687744, Note_on_c, 0, 66, 110
2, 688124, Note_off_c, 0, 66, 100
2, 688128, Note_on_c, 0, 64, 107
2, 688508, Note_off_c, 0, 64, 100
2, 688512, Note_on_c, 0, 62, 103
2, 688892, Note_off_c, 0, 62, 100
2, 688896, Note_on_c, 0, 61, 99
2, 689276, Note_off_c, 0, 61, 100
2, 689280, Note_on_c, 0, 59, 96
2, 689660, Note_off_c, 0, 59, 100
2, 689664, Note_on_c, 0, 58, 92
2, 690044, Note_off_c, 0, 58, 100
2, 690048, Note_on_c, 0, 57, 88
2, 690428, Note_off_c, 0, 57, 100
2, 690432, Note_on_c, 0, 56, 84
2, 690812, Note_off_c, 0, 56, 100
2, 690816, Note_on_c, 0, 55, 81
2, 691196, Note_off_c, 0, 55, 100
2, 691200, Note_on_c, 0, 54, 70
2, 691580, Note_off_c, 0, 54, 100
2, 692352, Note_on_c, 0, 69, 70
2, 692352, Note_on_c, 0, 60, 70
2, 693500, Note_off_c, 0, 69, 100
2, 693500, Note_off_c, 0, 60, 100
2, 693504, Note_on_c, 0, 69, 70
2, 693504, Note_on_c, 0, 59, 70
2, 693884, Note_off_c, 0, 69, 100
2, 693888, Note_on_c, 0, 67, 70
2, 694652, Note_off_c, 0, 59, 100
2, 694656, Note_on_c, 0, 55, 70
2, 695420, Note_off_c, 0, 67, 100
2, 695424, Note_on_c, 0, 66, 70
2, 695612, Note_off_c, 0, 66, 100
2, 695616, Note_on_c, 0, 64, 70
2, 695804, Note_off_c, 0, 55, 100
2, 695804, Note_off_c, 0, 64, 100
2, 695808, Note_on_c, 0, 62, 70
2, 695808, Note_on_c, 0, 55, 70
2, 696572, Note_off_c, 0, 62, 100
2, 696576, Note_on_c, 0, 61, 70
2, 696956, Note_off_c, 0, 55, 100
2, 696956, Note_off_c, 0, 61, 100
2, 696960, Note_on_c, 0, 59, 70
2, 696960, Note_on_c, 0, 55, 70
2, 697724, Note_off_c, 0, 59, 100
2, 697728, Note_on_c, 0, 57, 70
2, 698108, Note_off_c, 0, 55, 100
2, 698108, Note_off_c, 0, 57, 100
2, 698112, Note_on_c, 0, 54, 70
2, 698112, Note_on_c, 0, 57, 70
2, 699260, Note_off_c, 0, 54, 100
2, 699260, Note_off_c, 0, 57, 100
2, 699264, Note_on_c, 0, 57, 70
2, 699264, Note_on_c, 0, 62, 70
2, 700412, Note_off_c, 0, 57, 100
2, 700412, Note_off_c, 0, 62, 100
2, 700416, Note_on_c, 0, 61, 70
2, 700416, Note_on_c, 0, 64, 70
2, 701180, Note_off_c, 0, 61, 100
2, 701180, Note_off_c, 0, 64, 100
2, 701184, Note_on_c, 0, 62, 72
2, 701184, Note_on_c, 0, 66, 72
2, 701372, Note_off_c, 0, 62, 100
2, 701372, Note_off_c, 0, 66, 100
2, 701376, Note_on_c, 0, 64, 73
2, 701376, Note_on_c, 0, 67, 73
2, 701564, Note_off_c, 0, 64, 100
2, 701564, Note_off_c, 0, 67, 100
2, 701568, Note_on_c, 0, 62, 74
2, 701568, Note_on_c, 0, 66, 74
2, 701948, Note_off_c, 0, 62, 100
2, 701948, Note_off_c, 0, 66, 100
2, 702336, Note_on_c, 0, 69, 77
2, 702716, Note_off_c, 0, 69, 100
2, 702720, Note_on_c, 0, 61, 78
2, 702720, Note_on_c, 0, 64, 78
2, 703484, Note_off_c, 0, 61, 100
2, 703484, Note_off_c, 0, 64, 100
2, 703488, Note_on_c, 0, 62, 81
2, 703488, Note_on_c, 0, 66, 81
2, 703676, Note_off_c, 0, 62, 100
2, 703676, Note_off_c, 0, 66, 100
2, 703680, Note_on_c, 0, 64, 82
2, 703680, Note_on_c, 0, 67, 82
2, 703868, Note_off_c, 0, 64, 100
2, 703868, Note_off_c, 0, 67, 100
2, 703872, Note_on_c, 0, 62, 82
2, 703872, Note_on_c, 0, 66, 82
2, 704252, Note_off_c, 0, 62, 100
2, 704252, Note_off_c, 0, 66, 100
2, 704640, Note_on_c, 0, 74, 104
2, 705020, Note_off_c, 0, 74, 100
2, 705024, Note_on_c, 0, 61, 87
2, 705024, Note_on_c, 0, 64, 87
2, 705788, Note_off_c, 0, 61, 100
2, 705788, Note_off_c, 0, 64, 100
2, 705792, Note_on_c, 0, 62, 89
2, 705792, Note_on_c, 0, 66, 89
2, 705980, Note_off_c, 0, 62, 100
2, 705980, Note_off_c, 0, 66, 100
2, 705984, Note_on_c, 0, 67, 90
2, 705984, Note_on_c, 0, 64, 90
2, 706172, Note_off_c, 0, 67, 100
2, 706172, Note_off_c, 0, 64, 100
2, 706176, Note_on_c, 0, 62, 91
2, 706176, Note_on_c, 0, 66, 91
2, 706556, Note_off_c, 0, 62, 100
2, 706556, Note_off_c, 0, 66, 100
2, 706944, Note_on_c, 0, 78, 110
2, 707324, Note_off_c, 0, 78, 100
2, 707328, Note_on_c, 0, 61, 95
2, 707328, Note_on_c, 0, 64, 95
2, 708092, Note_off_c, 0, 61, 100
2, 708092, Note_off_c, 0, 64, 100
2, 708096, Note_on_c, 0, 62, 98
2, 708096, Note_on_c, 0, 66, 98
2, 708284, Note_off_c, 0, 62, 100
2, 708284, Note_off_c, 0, 66, 100
2, 708288, Note_on_c, 0, 64, 99
2, 708288, Note_on_c, 0, 67, 99
2, 708476, Note_off_c, 0, 64, 100
2, 708476, Note_off_c, 0, 67, 100
2, 708480, Note_on_c, 0, 62, 99
2, 708480, Note_on_c, 0, 66, 99
2, 708860, Note_off_c, 0, 62, 100
2, 708860, Note_off_c, 0, 66, 100
2, 709248, Note_on_c, 0, 81, 120
2, 709628, Note_off_c, 0, 81, 100
2, 709632, Note_on_c, 0, 61, 104
2, 709632, Note_on_c, 0, 64, 104
2, 710396, Note_off_c, 0, 61, 100
2, 710396, Note_off_c, 0, 64, 100
2, 710400, Note_on_c, 0, 62, 107
2, 710400, Note_on_c, 0, 66, 107
2, 710588, Note_off_c, 0, 62, 100
2, 710588, Note_off_c, 0, 66, 100
2, 710592, Note_on_c, 0, 67, 107
2, 710592, Note_on_c, 0, 64, 107
2, 710780, Note_off_c, 0, 67, 100
2, 710780, Note_off_c, 0, 64, 100
2, 710784, Note_on_c, 0, 62, 108
2, 710784, Note_on_c, 0, 66, 108
2, 711164, Note_off_c, 0, 62, 100
2, 711164, Note_off_c, 0, 66, 100
2, 711552, Note_on_c, 0, 86, 107
2, 711552, Note_on_c, 0, 78, 107
2, 711932, Note_off_c, 0, 86, 100
2, 711932, Note_off_c, 0, 78, 100
2, 712704, Note_on_c, 0, 86, 96
2, 712704, Note_on_c, 0, 78, 96
2, 713084, Note_off_c, 0, 86, 100
2, 713084, Note_off_c, 0, 78, 100
2, 713856, Note_on_c, 0, 86, 84
2, 713856, Note_on_c, 0, 78, 84
2, 714236, Note_off_c, 0, 86, 100
2, 714236, Note_off_c, 0, 78, 100
2, 714240, Note_on_c, 0, 78, 81
2, 714240, Note_on_c, 0, 86, 81
2, 714620, Note_off_c, 0, 78, 100
2, 714620, Note_off_c, 0, 86, 100
2, 715392, Note_on_c, 0, 73, 70
2, 715392, Note_on_c, 0, 67, 70
2, 715772, Note_off_c, 0, 73, 100
2, 715772, Note_off_c, 0, 67, 100
2, 716544, Note_on_c, 0, 74, 70
2, 716544, Note_on_c, 0, 66, 70
2, 717308, Note_off_c, 0, 74, 100
2, 717308, Note_off_c, 0, 66, 100
2, 717696, Control_c, 0, 7, 0
2, 718080, Note_on_c, 0, 62, 1
2, 718460, Note_off_c, 0, 62, 100
2, 718460, End_track
3, 0, Start_track
3, 0, Title_t, "Left"
3, 0, Control_c, 1, 0, 0
3, 0, Program_c, 1, 0
3, 0, Control_c, 1, 7, 100
3, 0, Control_c, 1, 10, 59
3, 0, Control_c, 1, 91, 127
3, 0, Key_signature, 2, "major"
3, 0, Note_on_c, 1, 38, 80
3, 380, Note_off_c, 1, 38, 100
3, 384, Note_on_c, 1, 38, 80
3, 764, Note_off_c, 1, 38, 100
3, 768, Note_on_c, 1, 38, 80
3, 1148, Note_off_c, 1, 38, 100
3, 1152, Note_on_c, 1, 38, 80
3, 1532, Note_off_c, 1, 38, 100
3, 1536, Note_on_c, 1, 38, 80
3, 1916, Note_off_c, 1, 38, 100
3, 1920, Note_on_c, 1, 38, 80
3, 2300, Note_off_c, 1, 38, 100
3, 2304, Note_on_c, 1, 38, 80
3, 2684, Note_off_c, 1, 38, 100
3, 2688, Note_on_c, 1, 38, 80
3, 3068, Note_off_c, 1, 38, 100
3, 3072, Note_on_c, 1, 38, 80
3, 3452, Note_off_c, 1, 38, 100
3, 3456, Note_on_c, 1, 38, 80
3, 3836, Note_off_c, 1, 38, 100
3, 3840, Note_on_c, 1, 38, 80
3, 4220, Note_off_c, 1, 38, 100
3, 4224, Note_on_c, 1, 38, 80
3, 4604, Note_off_c, 1, 38, 100
3, 4608, Note_on_c, 1, 38, 80
3, 4608, Note_on_c, 1, 52, 80
3, 4988, Note_off_c, 1, 38, 100
3, 4992, Note_on_c, 1, 38, 80
3, 5372, Note_off_c, 1, 38, 100
3, 5376, Note_on_c, 1, 38, 80
3, 5756, Note_off_c, 1, 52, 100
3, 5756, Note_off_c, 1, 38, 100
3, 5760, Note_on_c, 1, 38, 80
3, 5760, Note_on_c, 1, 49, 80
3, 6140, Note_off_c, 1, 38, 100
3, 6144, Note_on_c, 1, 38, 80
3, 6524, Note_off_c, 1, 38, 100
3, 6528, Note_on_c, 1, 38, 80
3, 6908, Note_off_c, 1, 49, 100
3, 6908, Note_off_c, 1, 38, 100
3, 6912, Note_on_c, 1, 38, 80
3, 6912, Note_on_c, 1, 50, 80
3, 7292, Note_off_c, 1, 38, 100
3, 7296, Note_on_c, 1, 38, 80
3, 7676, Note_off_c, 1, 38, 100
3, 7680, Note_on_c, 1, 38, 80
3, 8060, Note_off_c, 1, 50, 100
3, 8060, Note_off_c, 1, 38, 100
3, 8064, Note_on_c, 1, 38, 80
3, 8064, Note_on_c, 1, 42, 80
3, 8444, Note_off_c, 1, 38, 100
3, 8448, Note_on_c, 1, 38, 80
3, 8828, Note_off_c, 1, 38, 100
3, 8832, Note_on_c, 1, 38, 80
3, 9212, Note_off_c, 1, 42, 100
3, 9212, Note_off_c, 1, 38, 100
3, 9216, Note_on_c, 1, 38, 80
3, 9216, Note_on_c, 1, 45, 80
3, 9596, Note_off_c, 1, 38, 100
3, 9600, Note_on_c, 1, 38, 80
3, 9980, Note_off_c, 1, 38, 100
3, 9984, Note_on_c, 1, 38, 80
3, 10364, Note_off_c, 1, 45, 100
3, 10364, Note_off_c, 1, 38, 100
3, 10368, Note_on_c, 1, 50, 80
3, 10368, Note_on_c, 1, 38, 80
3, 10748, Note_off_c, 1, 50, 100
3, 10748, Note_off_c, 1, 38, 100
3, 10752, Note_on_c, 1, 50, 80
3, 11132, Note_off_c, 1, 50, 100
3, 11136, Note_on_c, 1, 50, 80
3, 11516, Note_off_c, 1, 50, 100
3, 11520, Note_on_c, 1, 50, 80
3, 11520, Note_on_c, 1, 62, 80
3, 11900, Note_off_c, 1, 50, 100
3, 11904, Note_on_c, 1, 50, 80
3, 12284, Note_off_c, 1, 50, 100
3, 12288, Note_on_c, 1, 50, 80
3, 12668, Note_off_c, 1, 62, 100
3, 12668, Note_off_c, 1, 50, 100
3, 12672, Note_on_c, 1, 50, 80
3, 12672, Note_on_c, 1, 54, 80
3, 13052, Note_off_c, 1, 50, 100
3, 13056, Note_on_c, 1, 50, 80
3, 13436, Note_off_c, 1, 50, 100
3, 13440, Note_on_c, 1, 50, 80
3, 13820, Note_off_c, 1, 54, 100
3, 13820, Note_off_c, 1, 50, 100
3, 13824, Note_on_c, 1, 55, 80
3, 13824, Note_on_c, 1, 50, 80
3, 14204, Note_off_c, 1, 50, 100
3, 14208, Note_on_c, 1, 50, 80
3, 14588, Note_off_c, 1, 50, 100
3, 14592, Note_on_c, 1, 50, 80
3, 14972, Note_off_c, 1, 55, 100
3, 14972, Note_off_c, 1, 50, 100
3, 14976, Note_on_c, 1, 59, 80
3, 14976, Note_on_c, 1, 50, 80
3, 15356, Note_off_c, 1, 50, 100
3, 15360, Note_on_c, 1, 50, 80
3, 15740, Note_off_c, 1, 50, 100
3, 15744, Note_on_c, 1, 50, 80
3, 16124, Note_off_c, 1, 59, 100
3, 16124, Note_off_c, 1, 50, 100
3, 16128, Note_on_c, 1, 64, 80
3, 16128, Note_on_c, 1, 50, 80
3, 16508, Note_off_c, 1, 50, 100
3, 16512, Note_on_c, 1, 50, 80
3, 16892, Note_off_c, 1, 50, 100
3, 16896, Note_on_c, 1, 50, 80
3, 17276, Note_off_c, 1, 64, 100
3, 17276, Note_off_c, 1, 50, 100
3, 17280, Note_on_c, 1, 50, 80
3, 17280, Note_on_c, 1, 61, 80
3, 17660, Note_off_c, 1, 50, 100
3, 17664, Note_on_c, 1, 50, 80
3, 18044, Note_off_c, 1, 50, 100
3, 18048, Note_on_c, 1, 50, 80
3, 18428, Note_off_c, 1, 61, 100
3, 18428, Note_off_c, 1, 50, 100
3, 18432, Note_on_c, 1, 50, 80
3, 18432, Note_on_c, 1, 62, 80
3, 18812, Note_off_c, 1, 50, 100
3, 18816, Note_on_c, 1, 50, 80
3, 19196, Note_off_c, 1, 50, 100
3, 19200, Note_on_c, 1, 50, 80
3, 19580, Note_off_c, 1, 62, 100
3, 19580, Note_off_c, 1, 50, 100
3, 19584, Note_on_c, 1, 50, 80
3, 19584, Note_on_c, 1, 54, 80
3, 19964, Note_off_c, 1, 50, 100
3, 19968, Note_on_c, 1, 50, 80
3, 20348, Note_off_c, 1, 50, 100
3, 20352, Note_on_c, 1, 50, 80
3, 20732, Note_off_c, 1, 54, 100
3, 20732, Note_off_c, 1, 50, 100
3, 20736, Note_on_c, 1, 50, 80
3, 20736, Note_on_c, 1, 57, 80
3, 21116, Note_off_c, 1, 50, 100
3, 21120, Note_on_c, 1, 50, 80
3, 21500, Note_off_c, 1, 50, 100
3, 21504, Note_on_c, 1, 50, 80
3, 21884, Note_off_c, 1, 57, 100
3, 21884, Note_off_c, 1, 50, 100
3, 21888, Note_on_c, 1, 50, 80
3, 21888, Note_on_c, 1, 62, 80
3, 22268, Note_off_c, 1, 50, 100
3, 22268, Note_off_c, 1, 62, 100
3, 22272, Note_on_c, 1, 50, 80
3, 22652, Note_off_c, 1, 50, 100
3, 22656, Note_on_c, 1, 50, 80
3, 23036, Note_off_c, 1, 50, 100
3, 23040, Note_on_c, 1, 50, 80
3, 23040, Note_on_c, 1, 42, 80
3, 23420, Note_off_c, 1, 50, 100
3, 23424, Note_on_c, 1, 50, 80
3, 23804, Note_off_c, 1, 50, 100
3, 23808, Note_on_c, 1, 50, 80
3, 24188, Note_off_c, 1, 50, 100
3, 24192, Note_on_c, 1, 50, 80
3, 24572, Note_off_c, 1, 42, 100
3, 24572, Note_off_c, 1, 50, 100
3, 24576, Note_on_c, 1, 50, 80
3, 24576, Note_on_c, 1, 43, 80
3, 24956, Note_off_c, 1, 50, 100
3, 24956, Note_off_c, 1, 43, 100
3, 24960, Note_on_c, 1, 50, 80
3, 24960, Note_on_c, 1, 45, 80
3, 25340, Note_off_c, 1, 50, 100
3, 25340, Note_off_c, 1, 45, 100
3, 25344, Note_on_c, 1, 50, 80
3, 25344, Note_on_c, 1, 47, 80
3, 25724, Note_off_c, 1, 50, 100
3, 25728, Note_on_c, 1, 50, 80
3, 26108, Note_off_c, 1, 50, 100
3, 26112, Note_on_c, 1, 50, 80
3, 26492, Note_off_c, 1, 50, 100
3, 26496, Note_on_c, 1, 50, 80
3, 26876, Note_off_c, 1, 50, 100
3, 26880, Note_on_c, 1, 50, 80
3, 27260, Note_off_c, 1, 47, 100
3, 27260, Note_off_c, 1, 50, 100
3, 27264, Note_on_c, 1, 50, 80
3, 27264, Note_on_c, 1, 45, 80
3, 27644, Note_off_c, 1, 50, 100
3, 27644, Note_off_c, 1, 45, 100
3, 27648, Note_on_c, 1, 50, 80
3, 27648, Note_on_c, 1, 43, 80
3, 28028, Note_off_c, 1, 50, 100
3, 28032, Note_on_c, 1, 50, 80
3, 28412, Note_off_c, 1, 43, 100
3, 28412, Note_off_c, 1, 50, 100
3, 28416, Note_on_c, 1, 52, 80
3, 28416, Note_on_c, 1, 44, 80
3, 28796, Note_off_c, 1, 52, 100
3, 28796, Note_off_c, 1, 44, 100
3, 28800, Note_on_c, 1, 52, 80
3, 28800, Note_on_c, 1, 45, 80
3, 29180, Note_off_c, 1, 52, 100
3, 29184, Note_on_c, 1, 52, 80
3, 29564, Note_off_c, 1, 45, 100
3, 29564, Note_off_c, 1, 52, 100
3, 29568, Note_on_c, 1, 55, 80
3, 29568, Note_on_c, 1, 45, 80
3, 29948, Note_off_c, 1, 55, 100
3, 29948, Note_off_c, 1, 45, 100
3, 29952, Note_on_c, 1, 54, 80
3, 29952, Note_on_c, 1, 50, 80
3, 30332, Note_off_c, 1, 54, 100
3, 30332, Note_off_c, 1, 50, 100
3, 30336, Note_on_c, 1, 50, 80
3, 30716, Note_off_c, 1, 50, 100
3, 30720, Note_on_c, 1, 50, 80
3, 31100, Note_off_c, 1, 50, 100
3, 31104, Note_on_c, 1, 50, 80
3, 31484, Note_off_c, 1, 50, 100
3, 31488, Note_on_c, 1, 50, 80
3, 31868, Note_off_c, 1, 50, 100
3, 31872, Note_on_c, 1, 50, 80
3, 32252, Note_off_c, 1, 50, 100
3, 32256, Note_on_c, 1, 50, 80
3, 32256, Note_on_c, 1, 42, 80
3, 32636, Note_off_c, 1, 50, 100
3, 32640, Note_on_c, 1, 50, 80
3, 33020, Note_off_c, 1, 50, 100
3, 33024, Note_on_c, 1, 50, 80
3, 33404, Note_off_c, 1, 50, 100
3, 33408, Note_on_c, 1, 50, 80
3, 33788, Note_off_c, 1, 42, 100
3, 33788, Note_off_c, 1, 50, 100
3, 33792, Note_on_c, 1, 50, 80
3, 33792, Note_on_c, 1, 43, 80
3, 34172, Note_off_c, 1, 50, 100
3, 34172, Note_off_c, 1, 43, 100
3, 34176, Note_on_c, 1, 50, 80
3, 34176, Note_on_c, 1, 45, 80
3, 34556, Note_off_c, 1, 50, 100
3, 34556, Note_off_c, 1, 45, 100
3, 34560, Note_on_c, 1, 50, 80
3, 34560, Note_on_c, 1, 47, 80
3, 34940, Note_off_c, 1, 50, 100
3, 34944, Note_on_c, 1, 50, 80
3, 35324, Note_off_c, 1, 50, 100
3, 35328, Note_on_c, 1, 50, 80
3, 35708, Note_off_c, 1, 50, 100
3, 35712, Note_on_c, 1, 50, 80
3, 36092, Note_off_c, 1, 50, 100
3, 36096, Note_on_c, 1, 50, 80
3, 36476, Note_off_c, 1, 47, 100
3, 36476, Note_off_c, 1, 50, 100
3, 36480, Note_on_c, 1, 50, 80
3, 36480, Note_on_c, 1, 45, 80
3, 36860, Note_off_c, 1, 50, 100
3, 36860, Note_off_c, 1, 45, 100
3, 36864, Note_on_c, 1, 50, 80
3, 36864, Note_on_c, 1, 43, 80
3, 37244, Note_off_c, 1, 50, 100
3, 37248, Note_on_c, 1, 50, 80
3, 37628, Note_off_c, 1, 43, 100
3, 37628, Note_off_c, 1, 50, 100
3, 37632, Note_on_c, 1, 52, 80
3, 37632, Note_on_c, 1, 44, 80
3, 38012, Note_off_c, 1, 52, 100
3, 38012, Note_off_c, 1, 44, 100
3, 38016, Note_on_c, 1, 52, 80
3, 38016, Note_on_c, 1, 45, 80
3, 38396, Note_off_c, 1, 52, 100
3, 38400, Note_on_c, 1, 52, 80
3, 38780, Note_off_c, 1, 45, 100
3, 38780, Note_off_c, 1, 52, 100
3, 38784, Note_on_c, 1, 55, 80
3, 38784, Note_on_c, 1, 45, 80
3, 39164, Note_off_c, 1, 55, 100
3, 39164, Note_off_c, 1, 45, 100
3, 39168, Note_on_c, 1, 54, 80
3, 39168, Note_on_c, 1, 50, 80
3, 39548, Note_off_c, 1, 54, 100
3, 39548, Note_off_c, 1, 50, 100
3, 39552, Note_on_c, 1, 50, 80
3, 39932, Note_off_c, 1, 50, 100
3, 39936, Note_on_c, 1, 50, 80
3, 40316, Note_off_c, 1, 50, 100
3, 40320, Note_on_c, 1, 50, 80
3, 40700, Note_off_c, 1, 50, 100
3, 40704, Note_on_c, 1, 50, 82
3, 41084, Note_off_c, 1, 50, 100
3, 41088, Note_on_c, 1, 50, 84
3, 41088, Note_on_c, 1, 45, 84
3, 41468, Note_off_c, 1, 50, 100
3, 41468, Note_off_c, 1, 45, 100
3, 41472, Note_on_c, 1, 50, 86
3, 41472, Note_on_c, 1, 43, 86
3, 41852, Note_off_c, 1, 50, 100
3, 41856, Note_on_c, 1, 50, 88
3, 42236, Note_off_c, 1, 43, 100
3, 42236, Note_off_c, 1, 50, 100
3, 42240, Note_on_c, 1, 52, 91
3, 42240, Note_on_c, 1, 44, 91
3, 42620, Note_off_c, 1, 52, 100
3, 42620, Note_off_c, 1, 44, 100
3, 42624, Note_on_c, 1, 52, 93
3, 42624, Note_on_c, 1, 45, 93
3, 43004, Note_off_c, 1, 52, 100
3, 43008, Note_on_c, 1, 52, 95
3, 43388, Note_off_c, 1, 45, 100
3, 43388, Note_off_c, 1, 52, 100
3, 43392, Note_on_c, 1, 55, 97
3, 43392, Note_on_c, 1, 45, 97
3, 43772, Note_off_c, 1, 55, 100
3, 43772, Note_off_c, 1, 45, 100
3, 43776, Note_on_c, 1, 54, 99
3, 43776, Note_on_c, 1, 50, 99
3, 44156, Note_off_c, 1, 54, 100
3, 44156, Note_off_c, 1, 50, 100
3, 44928, Note_on_c, 1, 50, 100
3, 44928, Note_on_c, 1, 57, 100
3, 46076, Note_off_c, 1, 50, 100
3, 46080, Note_on_c, 1, 49, 80
3, 47228, Note_off_c, 1, 57, 100
3, 47228, Note_off_c, 1, 49, 100
3, 47232, Note_on_c, 1, 47, 80
3, 47232, Note_on_c, 1, 52, 80
3, 48380, Note_off_c, 1, 47, 100
3, 48384, Note_on_c, 1, 45, 80
3, 48764, Note_off_c, 1, 52, 100
3, 48764, Note_off_c, 1, 45, 100
3, 49536, Note_on_c, 1, 57, 100
3, 49536, Note_on_c, 1, 64, 100
3, 50684, Note_off_c, 1, 57, 100
3, 50688, Note_on_c, 1, 56, 80
3, 51836, Note_off_c, 1, 64, 100
3, 51836, Note_off_c, 1, 56, 100
3, 51840, Note_on_c, 1, 54, 80
3, 51840, Note_on_c, 1, 59, 80
3, 52988, Note_off_c, 1, 54, 100
3, 52992, Note_on_c, 1, 52, 80
3, 53372, Note_off_c, 1, 59, 100
3, 53372, Note_off_c, 1, 52, 100
3, 54144, Note_on_c, 1, 57, 100
3, 54144, Note_on_c, 1, 50, 100
3, 55292, Note_off_c, 1, 50, 100
3, 55296, Note_on_c, 1, 49, 80
3, 56444, Note_off_c, 1, 57, 100
3, 56444, Note_off_c, 1, 49, 100
3, 56448, Note_on_c, 1, 52, 80
3, 56448, Note_on_c, 1, 47, 80
3, 57596, Note_off_c, 1, 47, 100
3, 57600, Note_on_c, 1, 45, 80
3, 57980, Note_off_c, 1, 52, 100
3, 57980, Note_off_c, 1, 45, 100
3, 58752, Note_on_c, 1, 64, 100
3, 58752, Note_on_c, 1, 57, 100
3, 59900, Note_off_c, 1, 57, 100
3, 59904, Note_on_c, 1, 56, 80
3, 61052, Note_off_c, 1, 64, 100
3, 61052, Note_off_c, 1, 56, 100
3, 61056, Note_on_c, 1, 59, 100
3, 61056, Note_on_c, 1, 57, 100
3, 61056, Note_on_c, 1, 54, 100
3, 62204, Note_off_c, 1, 57, 100
3, 62204, Note_off_c, 1, 54, 100
3, 62208, Note_on_c, 1, 56, 80
3, 62208, Note_on_c, 1, 52, 80
3, 62588, Note_off_c, 1, 59, 100
3, 62588, Note_off_c, 1, 56, 100
3, 62588, Note_off_c, 1, 52, 100
3, 63360, Note_on_c, 1, 47, 100
3, 63360, Note_on_c, 1, 45, 100
3, 63360, Note_on_c, 1, 42, 100
3, 64508, Note_off_c, 1, 45, 100
3, 64508, Note_off_c, 1, 42, 100
3, 64512, Note_on_c, 1, 44, 80
3, 64512, Note_on_c, 1, 40, 80
3, 64892, Note_off_c, 1, 47, 100
3, 64892, Note_off_c, 1, 44, 100
3, 64892, Note_off_c, 1, 40, 100
3, 65664, Note_on_c, 1, 59, 100
3, 65664, Note_on_c, 1, 57, 100
3, 65664, Note_on_c, 1, 54, 100
3, 66812, Note_off_c, 1, 57, 100
3, 66812, Note_off_c, 1, 54, 100
3, 66816, Note_on_c, 1, 56, 80
3, 66816, Note_on_c, 1, 52, 80
3, 67196, Note_off_c, 1, 59, 100
3, 67196, Note_off_c, 1, 56, 100
3, 67196, Note_off_c, 1, 52, 100
3, 71808, Note_on_c, 1, 49, 70
3, 72188, Note_off_c, 1, 49, 100
3, 72192, Note_on_c, 1, 49, 70
3, 72572, Note_off_c, 1, 49, 100
3, 72960, Note_on_c, 1, 42, 70
3, 73340, Note_off_c, 1, 42, 100
3, 73344, Note_on_c, 1, 42, 70
3, 73724, Note_off_c, 1, 42, 100
3, 74112, Note_on_c, 1, 37, 70
3, 74492, Note_off_c, 1, 37, 100
3, 74496, Note_on_c, 1, 37, 70
3, 74876, Note_off_c, 1, 37, 100
3, 75264, Note_on_c, 1, 30, 70
3, 75644, Note_off_c, 1, 30, 100
3, 75648, Note_on_c, 1, 30, 70
3, 76028, Note_off_c, 1, 30, 100
3, 76416, Note_on_c, 1, 54, 70
3, 76796, Note_off_c, 1, 54, 100
3, 76800, Note_on_c, 1, 54, 70
3, 77180, Note_off_c, 1, 54, 100
3, 77568, Note_on_c, 1, 47, 70
3, 77948, Note_off_c, 1, 47, 100
3, 77952, Note_on_c, 1, 47, 70
3, 78332, Note_off_c, 1, 47, 100
3, 78720, Note_on_c, 1, 52, 70
3, 79100, Note_off_c, 1, 52, 100
3, 79104, Note_on_c, 1, 40, 70
3, 79484, Note_off_c, 1, 40, 100
3, 79488, Note_on_c, 1, 45, 70
3, 79676, Note_off_c, 1, 45, 100
3, 79680, Note_on_c, 1, 61, 70
3, 79868, Note_off_c, 1, 61, 100
3, 79872, Note_on_c, 1, 59, 70
3, 80060, Note_off_c, 1, 59, 100
3, 80064, Note_on_c, 1, 57, 70
3, 80252, Note_off_c, 1, 57, 100
3, 80256, Note_on_c, 1, 56, 70
3, 80444, Note_off_c, 1, 56, 100
3, 80448, Note_on_c, 1, 54, 70
3, 80636, Note_off_c, 1, 54, 100
3, 80640, Note_on_c, 1, 53, 70
3, 81024, Note_on_c, 1, 49, 71
3, 81404, Note_off_c, 1, 49, 100
3, 81408, Note_on_c, 1, 49, 73
3, 81788, Note_off_c, 1, 53, 100
3, 81788, Note_off_c, 1, 49, 100
3, 81792, Note_on_c, 1, 54, 75
3, 82176, Note_on_c, 1, 49, 77
3, 82556, Note_off_c, 1, 49, 100
3, 82560, Note_on_c, 1, 49, 78
3, 82940, Note_off_c, 1, 54, 100
3, 82940, Note_off_c, 1, 49, 100
3, 82944, Note_on_c, 1, 56, 80
3, 82944, Note_on_c, 1, 53, 80
3, 83328, Note_on_c, 1, 49, 82
3, 83708, Note_off_c, 1, 49, 100
3, 83712, Note_on_c, 1, 49, 84
3, 84092, Note_off_c, 1, 56, 100
3, 84092, Note_off_c, 1, 53, 100
3, 84092, Note_off_c, 1, 49, 100
3, 84096, Note_on_c, 1, 57, 85
3, 84096, Note_on_c, 1, 54, 85
3, 84480, Note_on_c, 1, 49, 87
3, 84860, Note_off_c, 1, 49, 100
3, 84864, Note_on_c, 1, 49, 89
3, 85244, Note_off_c, 1, 57, 100
3, 85244, Note_off_c, 1, 54, 100
3, 85244, Note_off_c, 1, 49, 100
3, 85248, Note_on_c, 1, 59, 91
3, 85248, Note_on_c, 1, 54, 91
3, 85632, Note_on_c, 1, 50, 92
3, 86012, Note_off_c, 1, 50, 100
3, 86016, Note_on_c, 1, 50, 94
3, 86396, Note_off_c, 1, 59, 100
3, 86396, Note_off_c, 1, 54, 100
3, 86396, Note_off_c, 1, 50, 100
3, 86400, Note_on_c, 1, 60, 96
3, 86400, Note_on_c, 1, 54, 96
3, 86784, Note_on_c, 1, 50, 98
3, 87164, Note_off_c, 1, 50, 100
3, 87168, Note_on_c, 1, 50, 99
3, 87548, Note_off_c, 1, 60, 100
3, 87548, Note_off_c, 1, 54, 100
3, 87548, Note_off_c, 1, 50, 100
3, 87552, Note_on_c, 1, 49, 80
3, 87552, Note_on_c, 1, 53, 80
3, 87740, Note_off_c, 1, 53, 100
3, 87744, Note_on_c, 1, 56, 80
3, 87932, Note_off_c, 1, 56, 100
3, 87936, Note_on_c, 1, 53, 80
3, 88124, Note_off_c, 1, 53, 100
3, 88128, Note_on_c, 1, 56, 80
3, 88316, Note_off_c, 1, 56, 100
3, 88320, Note_on_c, 1, 53, 80
3, 88508, Note_off_c, 1, 53, 100
3, 88512, Note_on_c, 1, 56, 80
3, 88700, Note_off_c, 1, 56, 100
3, 88704, Note_on_c, 1, 53, 80
3, 88892, Note_off_c, 1, 53, 100
3, 88896, Note_on_c, 1, 56, 80
3, 89084, Note_off_c, 1, 56, 100
3, 89088, Note_on_c, 1, 53, 80
3, 89276, Note_off_c, 1, 53, 100
3, 89280, Note_on_c, 1, 56, 80
3, 89468, Note_off_c, 1, 49, 100
3, 89468, Note_off_c, 1, 56, 100
3, 89472, Note_on_c, 1, 54, 80
3, 89472, Note_on_c, 1, 50, 80
3, 89660, Note_off_c, 1, 54, 100
3, 89664, Note_on_c, 1, 56, 80
3, 89852, Note_off_c, 1, 50, 100
3, 89852, Note_off_c, 1, 56, 100
3, 89856, Note_on_c, 1, 49, 80
3, 89856, Note_on_c, 1, 53, 80
3, 90044, Note_off_c, 1, 53, 100
3, 90048, Note_on_c, 1, 56, 80
3, 90236, Note_off_c, 1, 56, 100
3, 90240, Note_on_c, 1, 53, 80
3, 90428, Note_off_c, 1, 53, 100
3, 90432, Note_on_c, 1, 56, 80
3, 90620, Note_off_c, 1, 49, 100
3, 90620, Note_off_c, 1, 56, 100
3, 90624, Note_on_c, 1, 54, 80
3, 90624, Note_on_c, 1, 50, 80
3, 90812, Note_off_c, 1, 54, 100
3, 90816, Note_on_c, 1, 56, 80
3, 91004, Note_off_c, 1, 50, 100
3, 91004, Note_off_c, 1, 56, 100
3, 91008, Note_on_c, 1, 49, 80
3, 91008, Note_on_c, 1, 53, 80
3, 91196, Note_off_c, 1, 53, 100
3, 91200, Note_on_c, 1, 56, 80
3, 91388, Note_off_c, 1, 56, 100
3, 91392, Note_on_c, 1, 53, 80
3, 91580, Note_off_c, 1, 53, 100
3, 91584, Note_on_c, 1, 56, 80
3, 91772, Note_off_c, 1, 49, 100
3, 91772, Note_off_c, 1, 56, 100
3, 91776, Note_on_c, 1, 54, 80
3, 91776, Note_on_c, 1, 50, 80
3, 91964, Note_off_c, 1, 54, 100
3, 91968, Note_on_c, 1, 56, 80
3, 92156, Note_off_c, 1, 50, 100
3, 92156, Note_off_c, 1, 56, 100
3, 92160, Note_on_c, 1, 49, 80
3, 92160, Note_on_c, 1, 53, 80
3, 92348, Note_off_c, 1, 53, 100
3, 92352, Note_on_c, 1, 56, 80
3, 92540, Note_off_c, 1, 56, 100
3, 92544, Note_on_c, 1, 53, 80
3, 92732, Note_off_c, 1, 53, 100
3, 92736, Note_on_c, 1, 56, 80
3, 92924, Note_off_c, 1, 56, 100
3, 92928, Note_on_c, 1, 53, 80
3, 93116, Note_off_c, 1, 53, 100
3, 93120, Note_on_c, 1, 56, 80
3, 93308, Note_off_c, 1, 56, 100
3, 93312, Note_on_c, 1, 53, 80
3, 93500, Note_off_c, 1, 53, 100
3, 93504, Note_on_c, 1, 56, 80
3, 93692, Note_off_c, 1, 56, 100
3, 93696, Note_on_c, 1, 53, 80
3, 93884, Note_off_c, 1, 53, 100
3, 93888, Note_on_c, 1, 56, 80
3, 94076, Note_off_c, 1, 49, 100
3, 94076, Note_off_c, 1, 56, 100
3, 94080, Note_on_c, 1, 53, 80
3, 94080, Note_on_c, 1, 46, 80
3, 94268, Note_off_c, 1, 53, 100
3, 94272, Note_on_c, 1, 56, 80
3, 94460, Note_off_c, 1, 46, 100
3, 94460, Note_off_c, 1, 56, 100
3, 94464, Note_on_c, 1, 47, 80
3, 94464, Note_on_c, 1, 53, 80
3, 94652, Note_off_c, 1, 53, 100
3, 94656, Note_on_c, 1, 56, 80
3, 94844, Note_off_c, 1, 56, 100
3, 94848, Note_on_c, 1, 53, 80
3, 95036, Note_off_c, 1, 53, 100
3, 95040, Note_on_c, 1, 56, 80
3, 95228, Note_off_c, 1, 47, 100
3, 95228, Note_off_c, 1, 56, 100
3, 95232, Note_on_c, 1, 46, 80
3, 95232, Note_on_c, 1, 53, 80
3, 95420, Note_off_c, 1, 53, 100
3, 95424, Note_on_c, 1, 56, 80
3, 95612, Note_off_c, 1, 46, 100
3, 95612, Note_off_c, 1, 56, 100
3, 95616, Note_on_c, 1, 53, 80
3, 95616, Note_on_c, 1, 47, 80
3, 95804, Note_off_c, 1, 53, 100
3, 95808, Note_on_c, 1, 56, 80
3, 95996, Note_off_c, 1, 56, 100
3, 96000, Note_on_c, 1, 53, 80
3, 96188, Note_off_c, 1, 53, 100
3, 96192, Note_on_c, 1, 56, 80
3, 96380, Note_off_c, 1, 47, 100
3, 96380, Note_off_c, 1, 56, 100
3, 96384, Note_on_c, 1, 53, 80
3, 96384, Note_on_c, 1, 46, 80
3, 96572, Note_off_c, 1, 53, 100
3, 96576, Note_on_c, 1, 56, 80
3, 96764, Note_off_c, 1, 46, 100
3, 96764, Note_off_c, 1, 56, 100
3, 96768, Note_on_c, 1, 47, 80
3, 96768, Note_on_c, 1, 53, 80
3, 96956, Note_off_c, 1, 53, 100
3, 96960, Note_on_c, 1, 56, 80
3, 97148, Note_off_c, 1, 56, 100
3, 97152, Note_on_c, 1, 53, 80
3, 97340, Note_off_c, 1, 53, 100
3, 97344, Note_on_c, 1, 56, 80
3, 97532, Note_off_c, 1, 56, 100
3, 97536, Note_on_c, 1, 53, 80
3, 97724, Note_off_c, 1, 53, 100
3, 97728, Note_on_c, 1, 56, 80
3, 97916, Note_off_c, 1, 56, 100
3, 97920, Note_on_c, 1, 53, 80
3, 98108, Note_off_c, 1, 53, 100
3, 98112, Note_on_c, 1, 56, 80
3, 98300, Note_off_c, 1, 56, 100
3, 98304, Note_on_c, 1, 53, 80
3, 98492, Note_off_c, 1, 53, 100
3, 98496, Note_on_c, 1, 56, 80
3, 98684, Note_off_c, 1, 56, 100
3, 98688, Note_on_c, 1, 53, 80
3, 98876, Note_off_c, 1, 53, 100
3, 98880, Note_on_c, 1, 56, 80
3, 99068, Note_off_c, 1, 47, 100
3, 99068, Note_off_c, 1, 56, 100
3, 99072, Note_on_c, 1, 47, 80
3, 99072, Note_on_c, 1, 52, 80
3, 99260, Note_off_c, 1, 52, 100
3, 99264, Note_on_c, 1, 56, 80
3, 99452, Note_off_c, 1, 56, 100
3, 99456, Note_on_c, 1, 52, 81
3, 99644, Note_off_c, 1, 52, 100
3, 99648, Note_on_c, 1, 56, 82
3, 99836, Note_off_c, 1, 47, 100
3, 99836, Note_off_c, 1, 56, 100
3, 99840, Note_on_c, 1, 46, 83
3, 99840, Note_on_c, 1, 52, 83
3, 100028, Note_off_c, 1, 52, 100
3, 100032, Note_on_c, 1, 56, 84
3, 100220, Note_off_c, 1, 46, 100
3, 100220, Note_off_c, 1, 56, 100
3, 100224, Note_on_c, 1, 47, 85
3, 100224, Note_on_c, 1, 52, 85
3, 100412, Note_off_c, 1, 52, 100
3, 100416, Note_on_c, 1, 56, 86
3, 100604, Note_off_c, 1, 56, 100
3, 100608, Note_on_c, 1, 52, 87
3, 100796, Note_off_c, 1, 52, 100
3, 100800, Note_on_c, 1, 56, 88
3, 100988, Note_off_c, 1, 47, 100
3, 100988, Note_off_c, 1, 56, 100
3, 100992, Note_on_c, 1, 46, 89
3, 100992, Note_on_c, 1, 52, 89
3, 101180, Note_off_c, 1, 52, 100
3, 101184, Note_on_c, 1, 56, 90
3, 101372, Note_off_c, 1, 46, 100
3, 101372, Note_off_c, 1, 56, 100
3, 101376, Note_on_c, 1, 47, 91
3, 101376, Note_on_c, 1, 52, 91
3, 101564, Note_off_c, 1, 52, 100
3, 101568, Note_on_c, 1, 56, 92
3, 101756, Note_off_c, 1, 56, 100
3, 101760, Note_on_c, 1, 52, 93
3, 101948, Note_off_c, 1, 52, 100
3, 101952, Note_on_c, 1, 56, 94
3, 102140, Note_off_c, 1, 56, 100
3, 102144, Note_on_c, 1, 52, 95
3, 102332, Note_off_c, 1, 52, 100
3, 102336, Note_on_c, 1, 56, 96
3, 102524, Note_off_c, 1, 56, 100
3, 102528, Note_on_c, 1, 52, 97
3, 102716, Note_off_c, 1, 52, 100
3, 102720, Note_on_c, 1, 56, 98
3, 102908, Note_off_c, 1, 56, 100
3, 102912, Note_on_c, 1, 52, 99
3, 103100, Note_off_c, 1, 52, 100
3, 103104, Note_on_c, 1, 56, 99
3, 103292, Note_off_c, 1, 47, 100
3, 103292, Note_off_c, 1, 56, 100
3, 103296, Note_on_c, 1, 52, 80
3, 103296, Note_on_c, 1, 47, 80
3, 103484, Note_off_c, 1, 52, 100
3, 103488, Note_on_c, 1, 56, 80
3, 103676, Note_off_c, 1, 47, 100
3, 103676, Note_off_c, 1, 56, 100
3, 103680, Note_on_c, 1, 45, 80
3, 103680, Note_on_c, 1, 57, 80
3, 103868, Note_off_c, 1, 57, 100
3, 103872, Note_on_c, 1, 52, 80
3, 104060, Note_off_c, 1, 52, 100
3, 104064, Note_on_c, 1, 57, 80
3, 104252, Note_off_c, 1, 57, 100
3, 104256, Note_on_c, 1, 52, 80
3, 104444, Note_off_c, 1, 45, 100
3, 104444, Note_off_c, 1, 52, 100
3, 104448, Note_on_c, 1, 47, 80
3, 104448, Note_on_c, 1, 59, 80
3, 104636, Note_off_c, 1, 59, 100
3, 104640, Note_on_c, 1, 52, 80
3, 104828, Note_off_c, 1, 47, 100
3, 104828, Note_off_c, 1, 52, 100
3, 104832, Note_on_c, 1, 45, 80
3, 104832, Note_on_c, 1, 57, 80
3, 105020, Note_off_c, 1, 57, 100
3, 105024, Note_on_c, 1, 52, 80
3, 105212, Note_off_c, 1, 52, 100
3, 105216, Note_on_c, 1, 57, 80
3, 105404, Note_off_c, 1, 57, 100
3, 105408, Note_on_c, 1, 52, 80
3, 105596, Note_off_c, 1, 45, 100
3, 105596, Note_off_c, 1, 52, 100
3, 105600, Note_on_c, 1, 44, 80
3, 105600, Note_on_c, 1, 56, 80
3, 105788, Note_off_c, 1, 56, 100
3, 105792, Note_on_c, 1, 49, 80
3, 105980, Note_off_c, 1, 44, 100
3, 105980, Note_off_c, 1, 49, 100
3, 105984, Note_on_c, 1, 42, 80
3, 105984, Note_on_c, 1, 54, 80
3, 106172, Note_off_c, 1, 54, 100
3, 106176, Note_on_c, 1, 49, 80
3, 106364, Note_off_c, 1, 49, 100
3, 106368, Note_on_c, 1, 54, 80
3, 106556, Note_off_c, 1, 54, 100
3, 106560, Note_on_c, 1, 49, 80
3, 106748, Note_off_c, 1, 49, 100
3, 106752, Note_on_c, 1, 54, 80
3, 106940, Note_off_c, 1, 54, 100
3, 106944, Note_on_c, 1, 49, 80
3, 107132, Note_off_c, 1, 49, 100
3, 107136, Note_on_c, 1, 54, 80
3, 107324, Note_off_c, 1, 54, 100
3, 107328, Note_on_c, 1, 49, 80
3, 107516, Note_off_c, 1, 49, 100
3, 107520, Note_on_c, 1, 54, 80
3, 107708, Note_off_c, 1, 54, 100
3, 107712, Note_on_c, 1, 49, 80
3, 107900, Note_off_c, 1, 42, 100
3, 107900, Note_off_c, 1, 49, 100
3, 107904, Note_on_c, 1, 44, 80
3, 107904, Note_on_c, 1, 56, 80
3, 108092, Note_off_c, 1, 56, 100
3, 108096, Note_on_c, 1, 49, 80
3, 108284, Note_off_c, 1, 44, 100
3, 108284, Note_off_c, 1, 49, 100
3, 108288, Note_on_c, 1, 42, 80
3, 108288, Note_on_c, 1, 54, 80
3, 108476, Note_off_c, 1, 54, 100
3, 108480, Note_on_c, 1, 49, 80
3, 108668, Note_off_c, 1, 49, 100
3, 108672, Note_on_c, 1, 54, 80
3, 108860, Note_off_c, 1, 54, 100
3, 108864, Note_on_c, 1, 49, 80
3, 109052, Note_off_c, 1, 42, 100
3, 109052, Note_off_c, 1, 49, 100
3, 109056, Note_on_c, 1, 44, 80
3, 109056, Note_on_c, 1, 56, 80
3, 109244, Note_off_c, 1, 56, 100
3, 109248, Note_on_c, 1, 49, 80
3, 109436, Note_off_c, 1, 44, 100
3, 109436, Note_off_c, 1, 49, 100
3, 109440, Note_on_c, 1, 42, 80
3, 109440, Note_on_c, 1, 54, 80
3, 109628, Note_off_c, 1, 54, 100
3, 109632, Note_on_c, 1, 49, 80
3, 109820, Note_off_c, 1, 49, 100
3, 109824, Note_on_c, 1, 54, 80
3, 110012, Note_off_c, 1, 54, 100
3, 110016, Note_on_c, 1, 49, 80
3, 110204, Note_off_c, 1, 42, 100
3, 110204, Note_off_c, 1, 49, 100
3, 110208, Note_on_c, 1, 40, 80
3, 110208, Note_on_c, 1, 52, 80
3, 110396, Note_off_c, 1, 52, 100
3, 110400, Note_on_c, 1, 45, 80
3, 110588, Note_off_c, 1, 40, 100
3, 110588, Note_off_c, 1, 45, 100
3, 110592, Note_on_c, 1, 38, 80
3, 110592, Note_on_c, 1, 50, 80
3, 110780, Note_off_c, 1, 50, 100
3, 110784, Note_on_c, 1, 45, 80
3, 110972, Note_off_c, 1, 45, 100
3, 110976, Note_on_c, 1, 50, 81
3, 111164, Note_off_c, 1, 50, 100
3, 111168, Note_on_c, 1, 45, 82
3, 111356, Note_off_c, 1, 45, 100
3, 111360, Note_on_c, 1, 50, 83
3, 111548, Note_off_c, 1, 50, 100
3, 111552, Note_on_c, 1, 45, 84
3, 111740, Note_off_c, 1, 45, 100
3, 111744, Note_on_c, 1, 50, 84
3, 111932, Note_off_c, 1, 50, 100
3, 111936, Note_on_c, 1, 45, 85
3, 112124, Note_off_c, 1, 45, 100
3, 112128, Note_on_c, 1, 50, 86
3, 112316, Note_off_c, 1, 50, 100
3, 112320, Note_on_c, 1, 45, 87
3, 112508, Note_off_c, 1, 38, 100
3, 112508, Note_off_c, 1, 45, 100
3, 112512, Note_on_c, 1, 40, 88
3, 112512, Note_on_c, 1, 52, 88
3, 112700, Note_off_c, 1, 52, 100
3, 112704, Note_on_c, 1, 45, 89
3, 112892, Note_off_c, 1, 40, 100
3, 112892, Note_off_c, 1, 45, 100
3, 112896, Note_on_c, 1, 38, 89
3, 112896, Note_on_c, 1, 50, 89
3, 113084, Note_off_c, 1, 50, 100
3, 113088, Note_on_c, 1, 45, 90
3, 113276, Note_off_c, 1, 45, 100
3, 113280, Note_on_c, 1, 50, 91
3, 113468, Note_off_c, 1, 50, 100
3, 113472, Note_on_c, 1, 45, 92
3, 113660, Note_off_c, 1, 38, 100
3, 113660, Note_off_c, 1, 45, 100
3, 113664, Note_on_c, 1, 40, 93
3, 113664, Note_on_c, 1, 52, 93
3, 113852, Note_off_c, 1, 52, 100
3, 113856, Note_on_c, 1, 45, 94
3, 114044, Note_off_c, 1, 40, 100
3, 114044, Note_off_c, 1, 45, 100
3, 114048, Note_on_c, 1, 38, 94
3, 114048, Note_on_c, 1, 50, 94
3, 114236, Note_off_c, 1, 50, 100
3, 114240, Note_on_c, 1, 45, 95
3, 114428, Note_off_c, 1, 45, 100
3, 114432, Note_on_c, 1, 50, 96
3, 114620, Note_off_c, 1, 50, 100
3, 114624, Note_on_c, 1, 45, 97
3, 114812, Note_off_c, 1, 38, 100
3, 114812, Note_off_c, 1, 45, 100
3, 114816, Note_on_c, 1, 35, 110
3, 114816, Note_on_c, 1, 47, 110
3, 115004, Note_off_c, 1, 47, 100
3, 115008, Note_on_c, 1, 40, 99
3, 115196, Note_off_c, 1, 35, 100
3, 115196, Note_off_c, 1, 40, 100
3, 115200, Note_on_c, 1, 37, 99
3, 115200, Note_on_c, 1, 49, 99
3, 115388, Note_off_c, 1, 49, 100
3, 115392, Note_on_c, 1, 40, 100
3, 115580, Note_off_c, 1, 40, 100
3, 115584, Note_on_c, 1, 49, 101
3, 115772, Note_off_c, 1, 49, 100
3, 115776, Note_on_c, 1, 40, 102
3, 115964, Note_off_c, 1, 37, 100
3, 115964, Note_off_c, 1, 40, 100
3, 115968, Note_on_c, 1, 32, 103
3, 115968, Note_on_c, 1, 44, 103
3, 116156, Note_off_c, 1, 44, 100
3, 116160, Note_on_c, 1, 40, 104
3, 116348, Note_off_c, 1, 32, 100
3, 116348, Note_off_c, 1, 40, 100
3, 116352, Note_on_c, 1, 33, 104
3, 116352, Note_on_c, 1, 45, 104
3, 116540, Note_off_c, 1, 45, 100
3, 116544, Note_on_c, 1, 40, 105
3, 116732, Note_off_c, 1, 40, 100
3, 116736, Note_on_c, 1, 45, 106
3, 116924, Note_off_c, 1, 45, 100
3, 116928, Note_on_c, 1, 40, 107
3, 117116, Note_off_c, 1, 33, 100
3, 117116, Note_off_c, 1, 40, 100
3, 117120, Note_on_c, 1, 30, 108
3, 117120, Note_on_c, 1, 42, 108
3, 117308, Note_off_c, 1, 42, 100
3, 117312, Note_on_c, 1, 38, 109
3, 117500, Note_off_c, 1, 30, 100
3, 117500, Note_off_c, 1, 38, 100
3, 117504, Note_on_c, 1, 49, 109
3, 117504, Note_on_c, 1, 45, 109
3, 117504, Note_on_c, 1, 37, 109
3, 118652, Note_off_c, 1, 49, 100
3, 118652, Note_off_c, 1, 45, 100
3, 118652, Note_off_c, 1, 37, 100
3, 119808, Note_on_c, 1, 63, 110
3, 119808, Note_on_c, 1, 57, 110
3, 119808, Note_on_c, 1, 54, 110
3, 120956, Note_off_c, 1, 63, 100
3, 120956, Note_off_c, 1, 57, 100
3, 120956, Note_off_c, 1, 54, 100
3, 122112, Note_on_c, 1, 61, 110
3, 122112, Note_on_c, 1, 64, 110
3, 122112, Note_on_c, 1, 57, 110
3, 122112, Note_on_c, 1, 52, 110
3, 122492, Note_off_c, 1, 61, 100
3, 122492, Note_off_c, 1, 64, 100
3, 122492, Note_off_c, 1, 57, 100
3, 122492, Note_off_c, 1, 52, 100
3, 123264, Note_on_c, 1, 62, 110
3, 123264, Note_on_c, 1, 59, 110
3, 123264, Note_on_c, 1, 56, 110
3, 123264, Note_on_c, 1, 52, 110
3, 123644, Note_off_c, 1, 62, 100
3, 123644, Note_off_c, 1, 59, 100
3, 123644, Note_off_c, 1, 56, 100
3, 123644, Note_off_c, 1, 52, 100
3, 124416, Note_on_c, 1, 49, 80
3, 124416, Note_on_c, 1, 61, 80
3, 124604, Note_off_c, 1, 61, 100
3, 124608, Note_on_c, 1, 57, 80
3, 124796, Note_off_c, 1, 57, 100
3, 124800, Note_on_c, 1, 61, 80
3, 124988, Note_off_c, 1, 61, 100
3, 124992, Note_on_c, 1, 57, 80
3, 125180, Note_off_c, 1, 57, 100
3, 125184, Note_on_c, 1, 61, 80
3, 125372, Note_off_c, 1, 61, 100
3, 125376, Note_on_c, 1, 57, 80
3, 125564, Note_off_c, 1, 57, 100
3, 125568, Note_on_c, 1, 61, 80
3, 125756, Note_off_c, 1, 61, 100
3, 125760, Note_on_c, 1, 57, 80
3, 125948, Note_off_c, 1, 57, 100
3, 125952, Note_on_c, 1, 61, 80
3, 126140, Note_off_c, 1, 61, 100
3, 126144, Note_on_c, 1, 57, 80
3, 126332, Note_off_c, 1, 49, 100
3, 126332, Note_off_c, 1, 57, 100
3, 126336, Note_on_c, 1, 48, 80
3, 126336, Note_on_c, 1, 60, 80
3, 126524, Note_off_c, 1, 60, 100
3, 126528, Note_on_c, 1, 57, 80
3, 126716, Note_off_c, 1, 48, 100
3, 126716, Note_off_c, 1, 57, 100
3, 126720, Note_on_c, 1, 49, 80
3, 126720, Note_on_c, 1, 61, 80
3, 126908, Note_off_c, 1, 61, 100
3, 126912, Note_on_c, 1, 57, 80
3, 127100, Note_off_c, 1, 57, 100
3, 127104, Note_on_c, 1, 61, 80
3, 127292, Note_off_c, 1, 61, 100
3, 127296, Note_on_c, 1, 57, 80
3, 127484, Note_off_c, 1, 49, 100
3, 127484, Note_off_c, 1, 57, 100
3, 127488, Note_on_c, 1, 50, 80
3, 127488, Note_on_c, 1, 62, 80
3, 127676, Note_off_c, 1, 62, 100
3, 127680, Note_on_c, 1, 57, 80
3, 127868, Note_off_c, 1, 50, 100
3, 127868, Note_off_c, 1, 57, 100
3, 127872, Note_on_c, 1, 49, 80
3, 127872, Note_on_c, 1, 61, 80
3, 128060, Note_off_c, 1, 61, 100
3, 128064, Note_on_c, 1, 57, 80
3, 128252, Note_off_c, 1, 57, 100
3, 128256, Note_on_c, 1, 61, 80
3, 128444, Note_off_c, 1, 61, 100
3, 128448, Note_on_c, 1, 57, 80
3, 128636, Note_off_c, 1, 49, 100
3, 128636, Note_off_c, 1, 57, 100
3, 128640, Note_on_c, 1, 47, 80
3, 128640, Note_on_c, 1, 59, 80
3, 128828, Note_off_c, 1, 59, 100
3, 128832, Note_on_c, 1, 52, 80
3, 129020, Note_off_c, 1, 47, 100
3, 129020, Note_off_c, 1, 52, 100
3, 129024, Note_on_c, 1, 45, 80
3, 129024, Note_on_c, 1, 57, 80
3, 129212, Note_off_c, 1, 57, 100
3, 129216, Note_on_c, 1, 52, 80
3, 129404, Note_off_c, 1, 52, 100
3, 129408, Note_on_c, 1, 57, 80
3, 129596, Note_off_c, 1, 57, 100
3, 129600, Note_on_c, 1, 52, 80
3, 129788, Note_off_c, 1, 52, 100
3, 129792, Note_on_c, 1, 57, 80
3, 129980, Note_off_c, 1, 57, 100
3, 129984, Note_on_c, 1, 52, 80
3, 130172, Note_off_c, 1, 52, 100
3, 130176, Note_on_c, 1, 57, 80
3, 130364, Note_off_c, 1, 57, 100
3, 130368, Note_on_c, 1, 52, 80
3, 130556, Note_off_c, 1, 52, 100
3, 130560, Note_on_c, 1, 57, 80
3, 130748, Note_off_c, 1, 57, 100
3, 130752, Note_on_c, 1, 52, 80
3, 130940, Note_off_c, 1, 45, 100
3, 130940, Note_off_c, 1, 52, 100
3, 130944, Note_on_c, 1, 44, 80
3, 130944, Note_on_c, 1, 56, 80
3, 131132, Note_off_c, 1, 56, 100
3, 131136, Note_on_c, 1, 52, 80
3, 131324, Note_off_c, 1, 44, 100
3, 131324, Note_off_c, 1, 52, 100
3, 131328, Note_on_c, 1, 45, 80
3, 131328, Note_on_c, 1, 57, 80
3, 131516, Note_off_c, 1, 57, 100
3, 131520, Note_on_c, 1, 52, 80
3, 131708, Note_off_c, 1, 52, 100
3, 131712, Note_on_c, 1, 57, 80
3, 131900, Note_off_c, 1, 57, 100
3, 131904, Note_on_c, 1, 52, 80
3, 132092, Note_off_c, 1, 45, 100
3, 132092, Note_off_c, 1, 52, 100
3, 132096, Note_on_c, 1, 47, 80
3, 132096, Note_on_c, 1, 59, 80
3, 132284, Note_off_c, 1, 59, 100
3, 132288, Note_on_c, 1, 52, 80
3, 132476, Note_off_c, 1, 47, 100
3, 132476, Note_off_c, 1, 52, 100
3, 132480, Note_on_c, 1, 45, 80
3, 132480, Note_on_c, 1, 57, 80
3, 132668, Note_off_c, 1, 57, 100
3, 132672, Note_on_c, 1, 52, 80
3, 132860, Note_off_c, 1, 52, 100
3, 132864, Note_on_c, 1, 57, 80
3, 133052, Note_off_c, 1, 57, 100
3, 133056, Note_on_c, 1, 52, 80
3, 133244, Note_off_c, 1, 45, 100
3, 133244, Note_off_c, 1, 52, 100
3, 133248, Note_on_c, 1, 44, 80
3, 133248, Note_on_c, 1, 56, 80
3, 133436, Note_off_c, 1, 56, 100
3, 133440, Note_on_c, 1, 49, 80
3, 133628, Note_off_c, 1, 44, 100
3, 133628, Note_off_c, 1, 49, 100
3, 133632, Note_on_c, 1, 42, 80
3, 133632, Note_on_c, 1, 54, 80
3, 133820, Note_off_c, 1, 54, 100
3, 133824, Note_on_c, 1, 49, 80
3, 134012, Note_off_c, 1, 49, 100
3, 134016, Note_on_c, 1, 54, 81
3, 134204, Note_off_c, 1, 54, 100
3, 134208, Note_on_c, 1, 49, 81
3, 134396, Note_off_c, 1, 49, 100
3, 134400, Note_on_c, 1, 54, 82
3, 134588, Note_off_c, 1, 54, 100
3, 134592, Note_on_c, 1, 49, 83
3, 134780, Note_off_c, 1, 49, 100
3, 134784, Note_on_c, 1, 54, 83
3, 134972, Note_off_c, 1, 54, 100
3, 134976, Note_on_c, 1, 49, 84
3, 135164, Note_off_c, 1, 49, 100
3, 135168, Note_on_c, 1, 54, 84
3, 135356, Note_off_c, 1, 54, 100
3, 135360, Note_on_c, 1, 49, 85
3, 135548, Note_off_c, 1, 42, 100
3, 135548, Note_off_c, 1, 49, 100
3, 135552, Note_on_c, 1, 41, 86
3, 135552, Note_on_c, 1, 53, 86
3, 135740, Note_off_c, 1, 53, 100
3, 135744, Note_on_c, 1, 49, 86
3, 135932, Note_off_c, 1, 41, 100
3, 135932, Note_off_c, 1, 49, 100
3, 135936, Note_on_c, 1, 42, 87
3, 135936, Note_on_c, 1, 54, 87
3, 136124, Note_off_c, 1, 54, 100
3, 136128, Note_on_c, 1, 49, 88
3, 136316, Note_off_c, 1, 49, 100
3, 136320, Note_on_c, 1, 54, 88
3, 136508, Note_off_c, 1, 54, 100
3, 136512, Note_on_c, 1, 49, 89
3, 136700, Note_off_c, 1, 42, 100
3, 136700, Note_off_c, 1, 49, 100
3, 136704, Note_on_c, 1, 41, 89
3, 136704, Note_on_c, 1, 53, 89
3, 136892, Note_off_c, 1, 53, 100
3, 136896, Note_on_c, 1, 49, 90
3, 137084, Note_off_c, 1, 41, 100
3, 137084, Note_off_c, 1, 49, 100
3, 137088, Note_on_c, 1, 42, 91
3, 137088, Note_on_c, 1, 54, 91
3, 137276, Note_off_c, 1, 54, 100
3, 137280, Note_on_c, 1, 49, 91
3, 137468, Note_off_c, 1, 49, 100
3, 137472, Note_on_c, 1, 54, 92
3, 137660, Note_off_c, 1, 54, 100
3, 137664, Note_on_c, 1, 49, 93
3, 137852, Note_off_c, 1, 42, 100
3, 137852, Note_off_c, 1, 49, 100
3, 137856, Note_on_c, 1, 40, 93
3, 137856, Note_on_c, 1, 52, 93
3, 138044, Note_off_c, 1, 52, 100
3, 138048, Note_on_c, 1, 49, 94
3, 138236, Note_off_c, 1, 40, 100
3, 138236, Note_off_c, 1, 49, 100
3, 138240, Note_on_c, 1, 38, 94
3, 138240, Note_on_c, 1, 50, 94
3, 138428, Note_off_c, 1, 50, 100
3, 138432, Note_on_c, 1, 42, 95
3, 138620, Note_off_c, 1, 42, 100
3, 138624, Note_on_c, 1, 50, 96
3, 138812, Note_off_c, 1, 50, 100
3, 138816, Note_on_c, 1, 42, 96
3, 139004, Note_off_c, 1, 38, 100
3, 139004, Note_off_c, 1, 42, 100
3, 139008, Note_on_c, 1, 34, 110
3, 139008, Note_on_c, 1, 46, 110
3, 139196, Note_off_c, 1, 46, 100
3, 139200, Note_on_c, 1, 42, 98
3, 139388, Note_off_c, 1, 34, 100
3, 139388, Note_off_c, 1, 42, 100
3, 139392, Note_on_c, 1, 35, 98
3, 139392, Note_on_c, 1, 47, 98
3, 139580, Note_off_c, 1, 47, 100
3, 139584, Note_on_c, 1, 42, 99
3, 139772, Note_off_c, 1, 42, 100
3, 139776, Note_on_c, 1, 47, 99
3, 139964, Note_off_c, 1, 47, 100
3, 139968, Note_on_c, 1, 42, 100
3, 140156, Note_off_c, 1, 35, 100
3, 140156, Note_off_c, 1, 42, 100
3, 140160, Note_on_c, 1, 33, 110
3, 140160, Note_on_c, 1, 45, 110
3, 140348, Note_off_c, 1, 45, 100
3, 140352, Note_on_c, 1, 42, 101
3, 140540, Note_off_c, 1, 33, 100
3, 140540, Note_off_c, 1, 42, 100
3, 140544, Note_on_c, 1, 32, 102
3, 140544, Note_on_c, 1, 44, 102
3, 140732, Note_off_c, 1, 44, 100
3, 140736, Note_on_c, 1, 40, 103
3, 140924, Note_off_c, 1, 40, 100
3, 140928, Note_on_c, 1, 44, 103
3, 141116, Note_off_c, 1, 44, 100
3, 141120, Note_on_c, 1, 40, 104
3, 141308, Note_off_c, 1, 32, 100
3, 141308, Note_off_c, 1, 40, 100
3, 141312, Note_on_c, 1, 39, 110
3, 141312, Note_on_c, 1, 51, 110
3, 141500, Note_off_c, 1, 51, 100
3, 141504, Note_on_c, 1, 47, 105
3, 141692, Note_off_c, 1, 39, 100
3, 141692, Note_off_c, 1, 47, 100
3, 141696, Note_on_c, 1, 40, 106
3, 141696, Note_on_c, 1, 52, 106
3, 141884, Note_off_c, 1, 52, 100
3, 141888, Note_on_c, 1, 47, 106
3, 142076, Note_off_c, 1, 47, 100
3, 142080, Note_on_c, 1, 52, 107
3, 142268, Note_off_c, 1, 52, 100
3, 142272, Note_on_c, 1, 47, 108
3, 142460, Note_off_c, 1, 40, 100
3, 142460, Note_off_c, 1, 47, 100
3, 142464, Note_on_c, 1, 38, 110
3, 142464, Note_on_c, 1, 50, 110
3, 142652, Note_off_c, 1, 50, 100
3, 142656, Note_on_c, 1, 47, 109
3, 142844, Note_off_c, 1, 38, 100
3, 142844, Note_off_c, 1, 47, 100
3, 142848, Note_on_c, 1, 49, 109
3, 142848, Note_on_c, 1, 45, 109
3, 142848, Note_on_c, 1, 37, 109
3, 143996, Note_off_c, 1, 49, 100
3, 143996, Note_off_c, 1, 45, 100
3, 143996, Note_off_c, 1, 37, 100
3, 145152, Note_on_c, 1, 63, 110
3, 145152, Note_on_c, 1, 59, 110
3, 145152, Note_on_c, 1, 57, 110
3, 145152, Note_on_c, 1, 54, 110
3, 146300, Note_off_c, 1, 63, 100
3, 146300, Note_off_c, 1, 59, 100
3, 146300, Note_off_c, 1, 57, 100
3, 146300, Note_off_c, 1, 54, 100
3, 147456, Note_on_c, 1, 61, 110
3, 147456, Note_on_c, 1, 64, 110
3, 147456, Note_on_c, 1, 57, 110
3, 147456, Note_on_c, 1, 52, 110
3, 147836, Note_off_c, 1, 61, 100
3, 147836, Note_off_c, 1, 64, 100
3, 147836, Note_off_c, 1, 57, 100
3, 147836, Note_off_c, 1, 52, 100
3, 149760, Note_on_c, 1, 40, 110
3, 149888, Note_on_c, 1, 42, 110
3, 150000, Note_off_c, 1, 40, 100
3, 150016, Note_on_c, 1, 44, 110
3, 150132, Note_off_c, 1, 42, 100
3, 150144, Note_on_c, 1, 45, 110
3, 150252, Note_off_c, 1, 44, 100
3, 150272, Note_on_c, 1, 47, 110
3, 150360, Note_off_c, 1, 45, 100
3, 150400, Note_on_c, 1, 49, 110
3, 150488, Note_off_c, 1, 47, 100
3, 150528, Note_on_c, 1, 50, 110
3, 150644, Note_off_c, 1, 49, 100
3, 150656, Note_on_c, 1, 52, 110
3, 150744, Note_off_c, 1, 50, 100
3, 150784, Note_on_c, 1, 54, 110
3, 150896, Note_off_c, 1, 52, 100
3, 150912, Note_on_c, 1, 56, 110
3, 151012, Note_off_c, 1, 54, 100
3, 151040, Note_on_c, 1, 57, 110
3, 151148, Note_off_c, 1, 56, 100
3, 151168, Note_on_c, 1, 59, 110
3, 151284, Note_off_c, 1, 57, 100
3, 151296, Note_on_c, 1, 60, 110
3, 151404, Note_off_c, 1, 59, 100
3, 151488, Note_on_c, 1, 61, 110
3, 151560, Note_off_c, 1, 60, 100
3, 151680, Note_on_c, 1, 62, 110
3, 151748, Note_off_c, 1, 61, 100
3, 151872, Note_on_c, 1, 63, 110
3, 151928, Note_off_c, 1, 62, 100
3, 152060, Note_off_c, 1, 63, 100
3, 152064, Note_on_c, 1, 64, 110
3, 153216, Note_on_c, 1, 52, 80
3, 153980, Note_off_c, 1, 64, 100
3, 153984, Note_on_c, 1, 62, 80
3, 154364, Note_off_c, 1, 52, 100
3, 154364, Note_off_c, 1, 62, 100
3, 154368, Note_on_c, 1, 61, 80
3, 154368, Note_on_c, 1, 57, 80
3, 154748, Note_off_c, 1, 61, 100
3, 154748, Note_off_c, 1, 57, 100
3, 155520, Note_on_c, 1, 52, 80
3, 155520, Note_on_c, 1, 49, 80
3, 155520, Note_on_c, 1, 45, 80
3, 155900, Note_off_c, 1, 52, 100
3, 155900, Note_off_c, 1, 49, 100
3, 155900, Note_off_c, 1, 45, 100
3, 155904, Note_on_c, 1, 52, 80
3, 155904, Note_on_c, 1, 49, 80
3, 155904, Note_on_c, 1, 45, 80
3, 156284, Note_off_c, 1, 52, 100
3, 156284, Note_off_c, 1, 49, 100
3, 156284, Note_off_c, 1, 45, 100
3, 156672, Note_on_c, 1, 57, 80
3, 156672, Note_on_c, 1, 52, 80
3, 156672, Note_on_c, 1, 49, 80
3, 157052, Note_off_c, 1, 57, 100
3, 157052, Note_off_c, 1, 52, 100
3, 157052, Note_off_c, 1, 49, 100
3, 157056, Note_on_c, 1, 57, 80
3, 157056, Note_on_c, 1, 52, 80
3, 157056, Note_on_c, 1, 49, 80
3, 157436, Note_off_c, 1, 57, 100
3, 157436, Note_off_c, 1, 52, 100
3, 157436, Note_off_c, 1, 49, 100
3, 157824, Note_on_c, 1, 59, 80
3, 157824, Note_on_c, 1, 52, 80
3, 158204, Note_off_c, 1, 59, 100
3, 158204, Note_off_c, 1, 52, 100
3, 158208, Note_on_c, 1, 59, 80
3, 158208, Note_on_c, 1, 52, 80
3, 158588, Note_off_c, 1, 59, 100
3, 158588, Note_off_c, 1, 52, 100
3, 158976, Note_on_c, 1, 61, 80
3, 158976, Note_on_c, 1, 57, 80
3, 159356, Note_off_c, 1, 61, 100
3, 159356, Note_off_c, 1, 57, 100
3, 159360, Note_on_c, 1, 61, 80
3, 159360, Note_on_c, 1, 57, 80
3, 159740, Note_off_c, 1, 61, 100
3, 159740, Note_off_c, 1, 57, 100
3, 160128, Note_on_c, 1, 67, 80
3, 160128, Note_on_c, 1, 61, 80
3, 160508, Note_off_c, 1, 67, 100
3, 160508, Note_off_c, 1, 61, 100
3, 160512, Note_on_c, 1, 67, 80
3, 160512, Note_on_c, 1, 61, 80
3, 160892, Note_off_c, 1, 67, 100
3, 160892, Note_off_c, 1, 61, 100
3, 161280, Note_on_c, 1, 66, 80
3, 161280, Note_on_c, 1, 62, 80
3, 161660, Note_off_c, 1, 66, 100
3, 161660, Note_off_c, 1, 62, 100
3, 161664, Note_on_c, 1, 66, 80
3, 161664, Note_on_c, 1, 62, 80
3, 162044, Note_off_c, 1, 66, 100
3, 162044, Note_off_c, 1, 62, 100
3, 162432, Note_on_c, 1, 68, 80
3, 162432, Note_on_c, 1, 64, 80
3, 162812, Note_off_c, 1, 68, 100
3, 162812, Note_off_c, 1, 64, 100
3, 162816, Note_on_c, 1, 68, 80
3, 162816, Note_on_c, 1, 64, 80
3, 163196, Note_off_c, 1, 68, 100
3, 163196, Note_off_c, 1, 64, 100
3, 163584, Note_on_c, 1, 69, 80
3, 163584, Note_on_c, 1, 57, 80
3, 163964, Note_off_c, 1, 69, 100
3, 163964, Note_off_c, 1, 57, 100
3, 164736, Note_on_c, 1, 40, 80
3, 164736, Note_on_c, 1, 33, 80
3, 165116, Note_off_c, 1, 40, 100
3, 165116, Note_off_c, 1, 33, 100
3, 165120, Note_on_c, 1, 40, 80
3, 165120, Note_on_c, 1, 33, 80
3, 165500, Note_off_c, 1, 40, 100
3, 165500, Note_off_c, 1, 33, 100
3, 165888, Note_on_c, 1, 45, 80
3, 165888, Note_on_c, 1, 37, 80
3, 166268, Note_off_c, 1, 45, 100
3, 166268, Note_off_c, 1, 37, 100
3, 166272, Note_on_c, 1, 45, 80
3, 166272, Note_on_c, 1, 37, 80
3, 166652, Note_off_c, 1, 45, 100
3, 166652, Note_off_c, 1, 37, 100
3, 167040, Note_on_c, 1, 47, 80
3, 167040, Note_on_c, 1, 40, 80
3, 167420, Note_off_c, 1, 47, 100
3, 167420, Note_off_c, 1, 40, 100
3, 167424, Note_on_c, 1, 47, 80
3, 167424, Note_on_c, 1, 40, 80
3, 167804, Note_off_c, 1, 47, 100
3, 167804, Note_off_c, 1, 40, 100
3, 168192, Note_on_c, 1, 49, 80
3, 168192, Note_on_c, 1, 45, 80
3, 168572, Note_off_c, 1, 49, 100
3, 168572, Note_off_c, 1, 45, 100
3, 168576, Note_on_c, 1, 49, 80
3, 168576, Note_on_c, 1, 45, 80
3, 168956, Note_off_c, 1, 49, 100
3, 168956, Note_off_c, 1, 45, 100
3, 169344, Note_on_c, 1, 55, 80
3, 169344, Note_on_c, 1, 49, 80
3, 169724, Note_off_c, 1, 55, 100
3, 169724, Note_off_c, 1, 49, 100
3, 169728, Note_on_c, 1, 55, 80
3, 169728, Note_on_c, 1, 49, 80
3, 170108, Note_off_c, 1, 55, 100
3, 170108, Note_off_c, 1, 49, 100
3, 170496, Note_on_c, 1, 54, 80
3, 170496, Note_on_c, 1, 50, 80
3, 170876, Note_off_c, 1, 54, 100
3, 170876, Note_off_c, 1, 50, 100
3, 170880, Note_on_c, 1, 54, 80
3, 170880, Note_on_c, 1, 50, 80
3, 171260, Note_off_c, 1, 54, 100
3, 171260, Note_off_c, 1, 50, 100
3, 171648, Note_on_c, 1, 56, 80
3, 171648, Note_on_c, 1, 52, 80
3, 172028, Note_off_c, 1, 56, 100
3, 172028, Note_off_c, 1, 52, 100
3, 172032, Note_on_c, 1, 56, 80
3, 172032, Note_on_c, 1, 52, 80
3, 172412, Note_off_c, 1, 56, 100
3, 172412, Note_off_c, 1, 52, 100
3, 172800, Note_on_c, 1, 57, 80
3, 172800, Note_on_c, 1, 45, 80
3, 173180, Note_off_c, 1, 57, 100
3, 173180, Note_off_c, 1, 45, 100
3, 173184, Note_on_c, 1, 57, 80
3, 173184, Note_on_c, 1, 45, 80
3, 173564, Note_off_c, 1, 57, 100
3, 173564, Note_off_c, 1, 45, 100
3, 173952, Note_on_c, 1, 55, 80
3, 173952, Note_on_c, 1, 49, 80
3, 174332, Note_off_c, 1, 55, 100
3, 174332, Note_off_c, 1, 49, 100
3, 174336, Note_on_c, 1, 55, 80
3, 174336, Note_on_c, 1, 49, 80
3, 174716, Note_off_c, 1, 55, 100
3, 174716, Note_off_c, 1, 49, 100
3, 175104, Note_on_c, 1, 54, 81
3, 175104, Note_on_c, 1, 50, 81
3, 175484, Note_off_c, 1, 54, 100
3, 175484, Note_off_c, 1, 50, 100
3, 175488, Note_on_c, 1, 54, 83
3, 175488, Note_on_c, 1, 50, 83
3, 175868, Note_off_c, 1, 54, 100
3, 175868, Note_off_c, 1, 50, 100
3, 176256, Note_on_c, 1, 56, 86
3, 176256, Note_on_c, 1, 52, 86
3, 176636, Note_off_c, 1, 56, 100
3, 176636, Note_off_c, 1, 52, 100
3, 176640, Note_on_c, 1, 56, 87
3, 176640, Note_on_c, 1, 52, 87
3, 177020, Note_off_c, 1, 56, 100
3, 177020, Note_off_c, 1, 52, 100
3, 177408, Note_on_c, 1, 57, 91
3, 177408, Note_on_c, 1, 45, 91
3, 177788, Note_off_c, 1, 57, 100
3, 177788, Note_off_c, 1, 45, 100
3, 177792, Note_on_c, 1, 57, 92
3, 177792, Note_on_c, 1, 45, 92
3, 178172, Note_off_c, 1, 57, 100
3, 178172, Note_off_c, 1, 45, 100
3, 178560, Note_on_c, 1, 56, 95
3, 178560, Note_on_c, 1, 52, 95
3, 178940, Note_off_c, 1, 56, 100
3, 178940, Note_off_c, 1, 52, 100
3, 178944, Note_on_c, 1, 56, 97
3, 178944, Note_on_c, 1, 52, 97
3, 179324, Note_off_c, 1, 56, 100
3, 179324, Note_off_c, 1, 52, 100
3, 179712, Note_on_c, 1, 57, 100
3, 179712, Note_on_c, 1, 45, 100
3, 180092, Note_off_c, 1, 57, 100
3, 180092, Note_off_c, 1, 45, 100
3, 180096, Note_on_c, 1, 57, 102
3, 180096, Note_on_c, 1, 45, 102
3, 180476, Note_off_c, 1, 57, 100
3, 180476, Note_off_c, 1, 45, 100
3, 180864, Note_on_c, 1, 44, 105
3, 180864, Note_on_c, 1, 40, 105
3, 181244, Note_off_c, 1, 44, 100
3, 181244, Note_off_c, 1, 40, 100
3, 181248, Note_on_c, 1, 44, 106
3, 181248, Note_on_c, 1, 40, 106
3, 181628, Note_off_c, 1, 44, 100
3, 181628, Note_off_c, 1, 40, 100
3, 182016, Note_on_c, 1, 45, 109
3, 182016, Note_on_c, 1, 33, 109
3, 182396, Note_off_c, 1, 45, 100
3, 182396, Note_off_c, 1, 33, 100
3, 183168, Note_on_c, 1, 57, 103
3, 183548, Note_off_c, 1, 57, 100
3, 183552, Note_on_c, 1, 55, 99
3, 183932, Note_off_c, 1, 55, 100
3, 183936, Note_on_c, 1, 54, 95
3, 184316, Note_off_c, 1, 54, 100
3, 184320, Note_on_c, 1, 52, 91
3, 184700, Note_off_c, 1, 52, 100
3, 184704, Note_on_c, 1, 50, 87
3, 185084, Note_off_c, 1, 50, 100
3, 185088, Note_on_c, 1, 49, 83
3, 185468, Note_off_c, 1, 49, 100
3, 185472, Note_on_c, 1, 47, 79
3, 185852, Note_off_c, 1, 47, 100
3, 185856, Note_on_c, 1, 45, 75
3, 186236, Note_off_c, 1, 45, 100
3, 186240, Note_on_c, 1, 43, 71
3, 186620, Note_off_c, 1, 43, 100
3, 186624, Note_on_c, 1, 42, 70
3, 186624, Note_on_c, 1, 38, 70
3, 187004, Note_off_c, 1, 42, 100
3, 187004, Note_off_c, 1, 38, 100
3, 187008, Note_on_c, 1, 38, 70
3, 187388, Note_off_c, 1, 38, 100
3, 187392, Note_on_c, 1, 38, 70
3, 187772, Note_off_c, 1, 38, 100
3, 187776, Note_on_c, 1, 38, 80
3, 188156, Note_off_c, 1, 38, 100
3, 188160, Note_on_c, 1, 38, 80
3, 188540, Note_off_c, 1, 38, 100
3, 188544, Note_on_c, 1, 38, 80
3, 188924, Note_off_c, 1, 38, 100
3, 188928, Note_on_c, 1, 38, 80
3, 189308, Note_off_c, 1, 38, 100
3, 189312, Note_on_c, 1, 38, 80
3, 189692, Note_off_c, 1, 38, 100
3, 189696, Note_on_c, 1, 38, 80
3, 190076, Note_off_c, 1, 38, 100
3, 190080, Note_on_c, 1, 38, 80
3, 190460, Note_off_c, 1, 38, 100
3, 190464, Note_on_c, 1, 38, 80
3, 190844, Note_off_c, 1, 38, 100
3, 190848, Note_on_c, 1, 38, 80
3, 191228, Note_off_c, 1, 38, 100
3, 191232, Note_on_c, 1, 38, 80
3, 191232, Note_on_c, 1, 52, 80
3, 191612, Note_off_c, 1, 38, 100
3, 191616, Note_on_c, 1, 38, 80
3, 191996, Note_off_c, 1, 38, 100
3, 192000, Note_on_c, 1, 38, 80
3, 192380, Note_off_c, 1, 52, 100
3, 192380, Note_off_c, 1, 38, 100
3, 192384, Note_on_c, 1, 38, 80
3, 192384, Note_on_c, 1, 49, 80
3, 192764, Note_off_c, 1, 38, 100
3, 192768, Note_on_c, 1, 38, 80
3, 193148, Note_off_c, 1, 38, 100
3, 193152, Note_on_c, 1, 38, 80
3, 193532, Note_off_c, 1, 49, 100
3, 193532, Note_off_c, 1, 38, 100
3, 193536, Note_on_c, 1, 38, 80
3, 193536, Note_on_c, 1, 50, 80
3, 193916, Note_off_c, 1, 38, 100
3, 193920, Note_on_c, 1, 38, 80
3, 194300, Note_off_c, 1, 38, 100
3, 194304, Note_on_c, 1, 38, 80
3, 194684, Note_off_c, 1, 50, 100
3, 194684, Note_off_c, 1, 38, 100
3, 194688, Note_on_c, 1, 38, 80
3, 194688, Note_on_c, 1, 42, 80
3, 195068, Note_off_c, 1, 38, 100
3, 195072, Note_on_c, 1, 38, 80
3, 195452, Note_off_c, 1, 38, 100
3, 195456, Note_on_c, 1, 38, 80
3, 195836, Note_off_c, 1, 42, 100
3, 195836, Note_off_c, 1, 38, 100
3, 195840, Note_on_c, 1, 38, 80
3, 195840, Note_on_c, 1, 45, 80
3, 196220, Note_off_c, 1, 38, 100
3, 196224, Note_on_c, 1, 38, 80
3, 196604, Note_off_c, 1, 38, 100
3, 196608, Note_on_c, 1, 38, 80
3, 196988, Note_off_c, 1, 45, 100
3, 196988, Note_off_c, 1, 38, 100
3, 196992, Note_on_c, 1, 50, 80
3, 196992, Note_on_c, 1, 38, 80
3, 197372, Note_off_c, 1, 50, 100
3, 197372, Note_off_c, 1, 38, 100
3, 197376, Note_on_c, 1, 50, 80
3, 197756, Note_off_c, 1, 50, 100
3, 197760, Note_on_c, 1, 50, 80
3, 198140, Note_off_c, 1, 50, 100
3, 198144, Note_on_c, 1, 50, 80
3, 198144, Note_on_c, 1, 62, 80
3, 198524, Note_off_c, 1, 50, 100
3, 198528, Note_on_c, 1, 50, 80
3, 198908, Note_off_c, 1, 50, 100
3, 198912, Note_on_c, 1, 50, 80
3, 199292, Note_off_c, 1, 62, 100
3, 199292, Note_off_c, 1, 50, 100
3, 199296, Note_on_c, 1, 50, 80
3, 199296, Note_on_c, 1, 54, 80
3, 199676, Note_off_c, 1, 50, 100
3, 199680, Note_on_c, 1, 50, 80
3, 200060, Note_off_c, 1, 50, 100
3, 200064, Note_on_c, 1, 50, 80
3, 200444, Note_off_c, 1, 54, 100
3, 200444, Note_off_c, 1, 50, 100
3, 200448, Note_on_c, 1, 55, 80
3, 200448, Note_on_c, 1, 50, 80
3, 200828, Note_off_c, 1, 50, 100
3, 200832, Note_on_c, 1, 50, 80
3, 201212, Note_off_c, 1, 50, 100
3, 201216, Note_on_c, 1, 50, 80
3, 201596, Note_off_c, 1, 55, 100
3, 201596, Note_off_c, 1, 50, 100
3, 201600, Note_on_c, 1, 59, 80
3, 201600, Note_on_c, 1, 50, 80
3, 201980, Note_off_c, 1, 50, 100
3, 201984, Note_on_c, 1, 50, 80
3, 202364, Note_off_c, 1, 50, 100
3, 202368, Note_on_c, 1, 50, 80
3, 202748, Note_off_c, 1, 59, 100
3, 202748, Note_off_c, 1, 50, 100
3, 202752, Note_on_c, 1, 64, 80
3, 202752, Note_on_c, 1, 50, 80
3, 203132, Note_off_c, 1, 50, 100
3, 203136, Note_on_c, 1, 50, 80
3, 203516, Note_off_c, 1, 50, 100
3, 203520, Note_on_c, 1, 50, 80
3, 203900, Note_off_c, 1, 64, 100
3, 203900, Note_off_c, 1, 50, 100
3, 203904, Note_on_c, 1, 50, 80
3, 203904, Note_on_c, 1, 61, 80
3, 204284, Note_off_c, 1, 50, 100
3, 204288, Note_on_c, 1, 50, 80
3, 204668, Note_off_c, 1, 50, 100
3, 204672, Note_on_c, 1, 50, 80
3, 205052, Note_off_c, 1, 61, 100
3, 205052, Note_off_c, 1, 50, 100
3, 205056, Note_on_c, 1, 50, 80
3, 205056, Note_on_c, 1, 62, 80
3, 205436, Note_off_c, 1, 50, 100
3, 205440, Note_on_c, 1, 50, 80
3, 205820, Note_off_c, 1, 50, 100
3, 205824, Note_on_c, 1, 50, 80
3, 206204, Note_off_c, 1, 62, 100
3, 206204, Note_off_c, 1, 50, 100
3, 206208, Note_on_c, 1, 50, 80
3, 206208, Note_on_c, 1, 54, 80
3, 206588, Note_off_c, 1, 50, 100
3, 206592, Note_on_c, 1, 50, 80
3, 206972, Note_off_c, 1, 50, 100
3, 206976, Note_on_c, 1, 50, 80
3, 207356, Note_off_c, 1, 54, 100
3, 207356, Note_off_c, 1, 50, 100
3, 207360, Note_on_c, 1, 50, 80
3, 207360, Note_on_c, 1, 57, 80
3, 207740, Note_off_c, 1, 50, 100
3, 207744, Note_on_c, 1, 50, 80
3, 208124, Note_off_c, 1, 50, 100
3, 208128, Note_on_c, 1, 50, 80
3, 208508, Note_off_c, 1, 57, 100
3, 208508, Note_off_c, 1, 50, 100
3, 208512, Note_on_c, 1, 50, 80
3, 208512, Note_on_c, 1, 62, 80
3, 208892, Note_off_c, 1, 50, 100
3, 208892, Note_off_c, 1, 62, 100
3, 208896, Note_on_c, 1, 50, 80
3, 209276, Note_off_c, 1, 50, 100
3, 209280, Note_on_c, 1, 50, 80
3, 209660, Note_off_c, 1, 50, 100
3, 209664, Note_on_c, 1, 50, 80
3, 209664, Note_on_c, 1, 42, 80
3, 210044, Note_off_c, 1, 50, 100
3, 210048, Note_on_c, 1, 50, 80
3, 210428, Note_off_c, 1, 50, 100
3, 210432, Note_on_c, 1, 50, 80
3, 210812, Note_off_c, 1, 50, 100
3, 210816, Note_on_c, 1, 50, 80
3, 211196, Note_off_c, 1, 42, 100
3, 211196, Note_off_c, 1, 50, 100
3, 211200, Note_on_c, 1, 50, 80
3, 211200, Note_on_c, 1, 43, 80
3, 211580, Note_off_c, 1, 50, 100
3, 211580, Note_off_c, 1, 43, 100
3, 211584, Note_on_c, 1, 50, 80
3, 211584, Note_on_c, 1, 45, 80
3, 211964, Note_off_c, 1, 50, 100
3, 211964, Note_off_c, 1, 45, 100
3, 211968, Note_on_c, 1, 50, 80
3, 211968, Note_on_c, 1, 47, 80
3, 212348, Note_off_c, 1, 50, 100
3, 212352, Note_on_c, 1, 50, 80
3, 212732, Note_off_c, 1, 50, 100
3, 212736, Note_on_c, 1, 50, 80
3, 213116, Note_off_c, 1, 50, 100
3, 213120, Note_on_c, 1, 50, 80
3, 213500, Note_off_c, 1, 50, 100
3, 213504, Note_on_c, 1, 50, 80
3, 213884, Note_off_c, 1, 47, 100
3, 213884, Note_off_c, 1, 50, 100
3, 213888, Note_on_c, 1, 50, 80
3, 213888, Note_on_c, 1, 45, 80
3, 214268, Note_off_c, 1, 50, 100
3, 214268, Note_off_c, 1, 45, 100
3, 214272, Note_on_c, 1, 50, 80
3, 214272, Note_on_c, 1, 43, 80
3, 214652, Note_off_c, 1, 50, 100
3, 214656, Note_on_c, 1, 50, 80
3, 215036, Note_off_c, 1, 43, 100
3, 215036, Note_off_c, 1, 50, 100
3, 215040, Note_on_c, 1, 52, 80
3, 215040, Note_on_c, 1, 44, 80
3, 215420, Note_off_c, 1, 52, 100
3, 215420, Note_off_c, 1, 44, 100
3, 215424, Note_on_c, 1, 52, 80
3, 215424, Note_on_c, 1, 45, 80
3, 215804, Note_off_c, 1, 52, 100
3, 215808, Note_on_c, 1, 52, 80
3, 216188, Note_off_c, 1, 45, 100
3, 216188, Note_off_c, 1, 52, 100
3, 216192, Note_on_c, 1, 55, 80
3, 216192, Note_on_c, 1, 45, 80
3, 216572, Note_off_c, 1, 55, 100
3, 216572, Note_off_c, 1, 45, 100
3, 216576, Note_on_c, 1, 54, 80
3, 216576, Note_on_c, 1, 50, 80
3, 216956, Note_off_c, 1, 54, 100
3, 216956, Note_off_c, 1, 50, 100
3, 216960, Note_on_c, 1, 50, 80
3, 217340, Note_off_c, 1, 50, 100
3, 217344, Note_on_c, 1, 50, 80
3, 217724, Note_off_c, 1, 50, 100
3, 217728, Note_on_c, 1, 50, 80
3, 218108, Note_off_c, 1, 50, 100
3, 218112, Note_on_c, 1, 50, 80
3, 218492, Note_off_c, 1, 50, 100
3, 218496, Note_on_c, 1, 50, 80
3, 218876, Note_off_c, 1, 50, 100
3, 218880, Note_on_c, 1, 50, 80
3, 218880, Note_on_c, 1, 42, 80
3, 219260, Note_off_c, 1, 50, 100
3, 219264, Note_on_c, 1, 50, 82
3, 219644, Note_off_c, 1, 50, 100
3, 219648, Note_on_c, 1, 50, 84
3, 220028, Note_off_c, 1, 50, 100
3, 220032, Note_on_c, 1, 50, 87
3, 220412, Note_off_c, 1, 42, 100
3, 220412, Note_off_c, 1, 50, 100
3, 220416, Note_on_c, 1, 50, 89
3, 220416, Note_on_c, 1, 43, 89
3, 220796, Note_off_c, 1, 50, 100
3, 220796, Note_off_c, 1, 43, 100
3, 220800, Note_on_c, 1, 50, 92
3, 220800, Note_on_c, 1, 45, 92
3, 221180, Note_off_c, 1, 50, 100
3, 221180, Note_off_c, 1, 45, 100
3, 221184, Note_on_c, 1, 50, 94
3, 221184, Note_on_c, 1, 47, 94
3, 221564, Note_off_c, 1, 50, 100
3, 221568, Note_on_c, 1, 50, 97
3, 221948, Note_off_c, 1, 50, 100
3, 221952, Note_on_c, 1, 50, 99
3, 222332, Note_off_c, 1, 50, 100
3, 222336, Note_on_c, 1, 50, 92
3, 222716, Note_off_c, 1, 50, 100
3, 222720, Note_on_c, 1, 50, 87
3, 223100, Note_off_c, 1, 47, 100
3, 223100, Note_off_c, 1, 50, 100
3, 223104, Note_on_c, 1, 50, 80
3, 223104, Note_on_c, 1, 45, 80
3, 223484, Note_off_c, 1, 50, 100
3, 223484, Note_off_c, 1, 45, 100
3, 223488, Note_on_c, 1, 50, 80
3, 223488, Note_on_c, 1, 43, 80
3, 223868, Note_off_c, 1, 50, 100
3, 223872, Note_on_c, 1, 50, 80
3, 224252, Note_off_c, 1, 43, 100
3, 224252, Note_off_c, 1, 50, 100
3, 224256, Note_on_c, 1, 52, 80
3, 224256, Note_on_c, 1, 44, 80
3, 224636, Note_off_c, 1, 52, 100
3, 224636, Note_off_c, 1, 44, 100
3, 224640, Note_on_c, 1, 52, 80
3, 224640, Note_on_c, 1, 45, 80
3, 225020, Note_off_c, 1, 52, 100
3, 225024, Note_on_c, 1, 52, 80
3, 225404, Note_off_c, 1, 45, 100
3, 225404, Note_off_c, 1, 52, 100
3, 225408, Note_on_c, 1, 55, 80
3, 225408, Note_on_c, 1, 45, 80
3, 225788, Note_off_c, 1, 55, 100
3, 225788, Note_off_c, 1, 45, 100
3, 225792, Note_on_c, 1, 54, 80
3, 225792, Note_on_c, 1, 50, 80
3, 226172, Note_off_c, 1, 54, 100
3, 226172, Note_off_c, 1, 50, 100
3, 226176, Note_on_c, 1, 50, 81
3, 226556, Note_off_c, 1, 50, 100
3, 226560, Note_on_c, 1, 50, 83
3, 226940, Note_off_c, 1, 50, 100
3, 226944, Note_on_c, 1, 50, 86
3, 227324, Note_off_c, 1, 50, 100
3, 227328, Note_on_c, 1, 50, 89
3, 227708, Note_off_c, 1, 50, 100
3, 227712, Note_on_c, 1, 50, 91
3, 227712, Note_on_c, 1, 45, 91
3, 228092, Note_off_c, 1, 50, 100
3, 228092, Note_off_c, 1, 45, 100
3, 228096, Note_on_c, 1, 50, 94
3, 228096, Note_on_c, 1, 43, 94
3, 228476, Note_off_c, 1, 50, 100
3, 228480, Note_on_c, 1, 50, 96
3, 228860, Note_off_c, 1, 43, 100
3, 228860, Note_off_c, 1, 50, 100
3, 228864, Note_on_c, 1, 52, 99
3, 228864, Note_on_c, 1, 44, 99
3, 229244, Note_off_c, 1, 52, 100
3, 229244, Note_off_c, 1, 44, 100
3, 229248, Note_on_c, 1, 52, 102
3, 229248, Note_on_c, 1, 45, 102
3, 229628, Note_off_c, 1, 52, 100
3, 229632, Note_on_c, 1, 52, 104
3, 230012, Note_off_c, 1, 45, 100
3, 230012, Note_off_c, 1, 52, 100
3, 230016, Note_on_c, 1, 55, 107
3, 230016, Note_on_c, 1, 45, 107
3, 230396, Note_off_c, 1, 55, 100
3, 230396, Note_off_c, 1, 45, 100
3, 230400, Note_on_c, 1, 54, 109
3, 230400, Note_on_c, 1, 50, 109
3, 230780, Note_off_c, 1, 54, 100
3, 230780, Note_off_c, 1, 50, 100
3, 231552, Note_on_c, 1, 50, 80
3, 231552, Note_on_c, 1, 57, 80
3, 232700, Note_off_c, 1, 50, 100
3, 232704, Note_on_c, 1, 49, 80
3, 233852, Note_off_c, 1, 57, 100
3, 233852, Note_off_c, 1, 49, 100
3, 233856, Note_on_c, 1, 47, 80
3, 233856, Note_on_c, 1, 52, 80
3, 235004, Note_off_c, 1, 47, 100
3, 235008, Note_on_c, 1, 45, 80
3, 235388, Note_off_c, 1, 52, 100
3, 235388, Note_off_c, 1, 45, 100
3, 236160, Note_on_c, 1, 57, 80
3, 236160, Note_on_c, 1, 64, 80
3, 237308, Note_off_c, 1, 57, 100
3, 237312, Note_on_c, 1, 56, 80
3, 238460, Note_off_c, 1, 64, 100
3, 238460, Note_off_c, 1, 56, 100
3, 238464, Note_on_c, 1, 54, 80
3, 238464, Note_on_c, 1, 59, 80
3, 239612, Note_off_c, 1, 54, 100
3, 239616, Note_on_c, 1, 52, 80
3, 239996, Note_off_c, 1, 59, 100
3, 239996, Note_off_c, 1, 52, 100
3, 240768, Note_on_c, 1, 57, 100
3, 240768, Note_on_c, 1, 50, 100
3, 241916, Note_off_c, 1, 50, 100
3, 241920, Note_on_c, 1, 49, 80
3, 243068, Note_off_c, 1, 57, 100
3, 243068, Note_off_c, 1, 49, 100
3, 243072, Note_on_c, 1, 52, 80
3, 243072, Note_on_c, 1, 47, 80
3, 244220, Note_off_c, 1, 47, 100
3, 244224, Note_on_c, 1, 45, 80
3, 244604, Note_off_c, 1, 52, 100
3, 244604, Note_off_c, 1, 45, 100
3, 245376, Note_on_c, 1, 64, 100
3, 245376, Note_on_c, 1, 57, 100
3, 246524, Note_off_c, 1, 57, 100
3, 246528, Note_on_c, 1, 56, 80
3, 247676, Note_off_c, 1, 64, 100
3, 247676, Note_off_c, 1, 56, 100
3, 247680, Note_on_c, 1, 59, 100
3, 247680, Note_on_c, 1, 57, 100
3, 247680, Note_on_c, 1, 54, 100
3, 248828, Note_off_c, 1, 57, 100
3, 248828, Note_off_c, 1, 54, 100
3, 248832, Note_on_c, 1, 56, 80
3, 248832, Note_on_c, 1, 52, 80
3, 249212, Note_off_c, 1, 59, 100
3, 249212, Note_off_c, 1, 56, 100
3, 249212, Note_off_c, 1, 52, 100
3, 249984, Note_on_c, 1, 47, 100
3, 249984, Note_on_c, 1, 45, 100
3, 249984, Note_on_c, 1, 42, 100
3, 251132, Note_off_c, 1, 45, 100
3, 251132, Note_off_c, 1, 42, 100
3, 251136, Note_on_c, 1, 44, 80
3, 251136, Note_on_c, 1, 40, 80
3, 251516, Note_off_c, 1, 47, 100
3, 251516, Note_off_c, 1, 44, 100
3, 251516, Note_off_c, 1, 40, 100
3, 252288, Note_on_c, 1, 59, 100
3, 252288, Note_on_c, 1, 57, 100
3, 252288, Note_on_c, 1, 54, 100
3, 253436, Note_off_c, 1, 57, 100
3, 253436, Note_off_c, 1, 54, 100
3, 253440, Note_on_c, 1, 56, 80
3, 253440, Note_on_c, 1, 52, 80
3, 253820, Note_off_c, 1, 59, 100
3, 253820, Note_off_c, 1, 56, 100
3, 253820, Note_off_c, 1, 52, 100
3, 258432, Note_on_c, 1, 49, 70
3, 258812, Note_off_c, 1, 49, 100
3, 258816, Note_on_c, 1, 49, 70
3, 259196, Note_off_c, 1, 49, 100
3, 259584, Note_on_c, 1, 42, 70
3, 259964, Note_off_c, 1, 42, 100
3, 259968, Note_on_c, 1, 42, 70
3, 260348, Note_off_c, 1, 42, 100
3, 260736, Note_on_c, 1, 37, 70
3, 261116, Note_off_c, 1, 37, 100
3, 261120, Note_on_c, 1, 37, 70
3, 261500, Note_off_c, 1, 37, 100
3, 261888, Note_on_c, 1, 30, 70
3, 262268, Note_off_c, 1, 30, 100
3, 262272, Note_on_c, 1, 30, 70
3, 262652, Note_off_c, 1, 30, 100
3, 263040, Note_on_c, 1, 54, 70
3, 263420, Note_off_c, 1, 54, 100
3, 263424, Note_on_c, 1, 54, 70
3, 263804, Note_off_c, 1, 54, 100
3, 264192, Note_on_c, 1, 47, 70
3, 264572, Note_off_c, 1, 47, 100
3, 264576, Note_on_c, 1, 47, 70
3, 264956, Note_off_c, 1, 47, 100
3, 265344, Note_on_c, 1, 52, 70
3, 265724, Note_off_c, 1, 52, 100
3, 265728, Note_on_c, 1, 40, 70
3, 266108, Note_off_c, 1, 40, 100
3, 266112, Note_on_c, 1, 45, 70
3, 266300, Note_off_c, 1, 45, 100
3, 266304, Note_on_c, 1, 61, 70
3, 266492, Note_off_c, 1, 61, 100
3, 266496, Note_on_c, 1, 59, 70
3, 266684, Note_off_c, 1, 59, 100
3, 266688, Note_on_c, 1, 57, 70
3, 266876, Note_off_c, 1, 57, 100
3, 266880, Note_on_c, 1, 56, 70
3, 267068, Note_off_c, 1, 56, 100
3, 267072, Note_on_c, 1, 54, 70
3, 267260, Note_off_c, 1, 54, 100
3, 267264, Note_on_c, 1, 53, 70
3, 267648, Note_on_c, 1, 49, 72
3, 268028, Note_off_c, 1, 49, 100
3, 268032, Note_on_c, 1, 49, 74
3, 268412, Note_off_c, 1, 53, 100
3, 268412, Note_off_c, 1, 49, 100
3, 268416, Note_on_c, 1, 54, 77
3, 268800, Note_on_c, 1, 49, 79
3, 269180, Note_off_c, 1, 49, 100
3, 269184, Note_on_c, 1, 49, 81
3, 269564, Note_off_c, 1, 54, 100
3, 269564, Note_off_c, 1, 49, 100
3, 269568, Note_on_c, 1, 56, 84
3, 269568, Note_on_c, 1, 53, 84
3, 269952, Note_on_c, 1, 49, 86
3, 270332, Note_off_c, 1, 49, 100
3, 270336, Note_on_c, 1, 49, 88
3, 270716, Note_off_c, 1, 56, 100
3, 270716, Note_off_c, 1, 53, 100
3, 270716, Note_off_c, 1, 49, 100
3, 270720, Note_on_c, 1, 57, 91
3, 270720, Note_on_c, 1, 54, 91
3, 271104, Note_on_c, 1, 49, 93
3, 271484, Note_off_c, 1, 49, 100
3, 271488, Note_on_c, 1, 49, 95
3, 271868, Note_off_c, 1, 57, 100
3, 271868, Note_off_c, 1, 54, 100
3, 271868, Note_off_c, 1, 49, 100
3, 271872, Note_on_c, 1, 59, 98
3, 271872, Note_on_c, 1, 54, 98
3, 272256, Note_on_c, 1, 50, 100
3, 272636, Note_off_c, 1, 50, 100
3, 272640, Note_on_c, 1, 50, 102
3, 273020, Note_off_c, 1, 59, 100
3, 273020, Note_off_c, 1, 54, 100
3, 273020, Note_off_c, 1, 50, 100
3, 273024, Note_on_c, 1, 60, 105
3, 273024, Note_on_c, 1, 54, 105
3, 273408, Note_on_c, 1, 50, 107
3, 273788, Note_off_c, 1, 50, 100
3, 273792, Note_on_c, 1, 50, 109
3, 274172, Note_off_c, 1, 60, 100
3, 274172, Note_off_c, 1, 54, 100
3, 274172, Note_off_c, 1, 50, 100
3, 274176, Note_on_c, 1, 49, 80
3, 274176, Note_on_c, 1, 53, 80
3, 274364, Note_off_c, 1, 53, 100
3, 274368, Note_on_c, 1, 56, 80
3, 274556, Note_off_c, 1, 56, 100
3, 274560, Note_on_c, 1, 53, 80
3, 274748, Note_off_c, 1, 53, 100
3, 274752, Note_on_c, 1, 56, 80
3, 274940, Note_off_c, 1, 56, 100
3, 274944, Note_on_c, 1, 53, 80
3, 275132, Note_off_c, 1, 53, 100
3, 275136, Note_on_c, 1, 56, 80
3, 275324, Note_off_c, 1, 56, 100
3, 275328, Note_on_c, 1, 53, 80
3, 275516, Note_off_c, 1, 53, 100
3, 275520, Note_on_c, 1, 56, 80
3, 275708, Note_off_c, 1, 56, 100
3, 275712, Note_on_c, 1, 53, 80
3, 275900, Note_off_c, 1, 53, 100
3, 275904, Note_on_c, 1, 56, 80
3, 276092, Note_off_c, 1, 49, 100
3, 276092, Note_off_c, 1, 56, 100
3, 276096, Note_on_c, 1, 54, 80
3, 276096, Note_on_c, 1, 50, 80
3, 276284, Note_off_c, 1, 54, 100
3, 276288, Note_on_c, 1, 56, 80
3, 276476, Note_off_c, 1, 50, 100
3, 276476, Note_off_c, 1, 56, 100
3, 276480, Note_on_c, 1, 49, 80
3, 276480, Note_on_c, 1, 53, 80
3, 276668, Note_off_c, 1, 53, 100
3, 276672, Note_on_c, 1, 56, 80
3, 276860, Note_off_c, 1, 56, 100
3, 276864, Note_on_c, 1, 53, 80
3, 277052, Note_off_c, 1, 53, 100
3, 277056, Note_on_c, 1, 56, 80
3, 277244, Note_off_c, 1, 49, 100
3, 277244, Note_off_c, 1, 56, 100
3, 277248, Note_on_c, 1, 54, 80
3, 277248, Note_on_c, 1, 50, 80
3, 277436, Note_off_c, 1, 54, 100
3, 277440, Note_on_c, 1, 56, 80
3, 277628, Note_off_c, 1, 50, 100
3, 277628, Note_off_c, 1, 56, 100
3, 277632, Note_on_c, 1, 49, 80
3, 277632, Note_on_c, 1, 53, 80
3, 277820, Note_off_c, 1, 53, 100
3, 277824, Note_on_c, 1, 56, 80
3, 278012, Note_off_c, 1, 56, 100
3, 278016, Note_on_c, 1, 53, 80
3, 278204, Note_off_c, 1, 53, 100
3, 278208, Note_on_c, 1, 56, 80
3, 278396, Note_off_c, 1, 49, 100
3, 278396, Note_off_c, 1, 56, 100
3, 278400, Note_on_c, 1, 54, 80
3, 278400, Note_on_c, 1, 50, 80
3, 278588, Note_off_c, 1, 54, 100
3, 278592, Note_on_c, 1, 56, 80
3, 278780, Note_off_c, 1, 50, 100
3, 278780, Note_off_c, 1, 56, 100
3, 278784, Note_on_c, 1, 49, 80
3, 278784, Note_on_c, 1, 53, 80
3, 278972, Note_off_c, 1, 53, 100
3, 278976, Note_on_c, 1, 56, 80
3, 279164, Note_off_c, 1, 56, 100
3, 279168, Note_on_c, 1, 53, 80
3, 279356, Note_off_c, 1, 53, 100
3, 279360, Note_on_c, 1, 56, 80
3, 279548, Note_off_c, 1, 56, 100
3, 279552, Note_on_c, 1, 53, 80
3, 279740, Note_off_c, 1, 53, 100
3, 279744, Note_on_c, 1, 56, 80
3, 279932, Note_off_c, 1, 56, 100
3, 279936, Note_on_c, 1, 53, 80
3, 280124, Note_off_c, 1, 53, 100
3, 280128, Note_on_c, 1, 56, 80
3, 280316, Note_off_c, 1, 56, 100
3, 280320, Note_on_c, 1, 53, 80
3, 280508, Note_off_c, 1, 53, 100
3, 280512, Note_on_c, 1, 56, 80
3, 280700, Note_off_c, 1, 49, 100
3, 280700, Note_off_c, 1, 56, 100
3, 280704, Note_on_c, 1, 53, 80
3, 280704, Note_on_c, 1, 46, 80
3, 280892, Note_off_c, 1, 53, 100
3, 280896, Note_on_c, 1, 56, 80
3, 281084, Note_off_c, 1, 46, 100
3, 281084, Note_off_c, 1, 56, 100
3, 281088, Note_on_c, 1, 47, 80
3, 281088, Note_on_c, 1, 53, 80
3, 281276, Note_off_c, 1, 53, 100
3, 281280, Note_on_c, 1, 56, 80
3, 281468, Note_off_c, 1, 56, 100
3, 281472, Note_on_c, 1, 53, 80
3, 281660, Note_off_c, 1, 53, 100
3, 281664, Note_on_c, 1, 56, 80
3, 281852, Note_off_c, 1, 47, 100
3, 281852, Note_off_c, 1, 56, 100
3, 281856, Note_on_c, 1, 46, 80
3, 281856, Note_on_c, 1, 53, 80
3, 282044, Note_off_c, 1, 53, 100
3, 282048, Note_on_c, 1, 56, 80
3, 282236, Note_off_c, 1, 46, 100
3, 282236, Note_off_c, 1, 56, 100
3, 282240, Note_on_c, 1, 53, 80
3, 282240, Note_on_c, 1, 47, 80
3, 282428, Note_off_c, 1, 53, 100
3, 282432, Note_on_c, 1, 56, 80
3, 282620, Note_off_c, 1, 56, 100
3, 282624, Note_on_c, 1, 53, 80
3, 282812, Note_off_c, 1, 53, 100
3, 282816, Note_on_c, 1, 56, 80
3, 283004, Note_off_c, 1, 47, 100
3, 283004, Note_off_c, 1, 56, 100
3, 283008, Note_on_c, 1, 53, 80
3, 283008, Note_on_c, 1, 46, 80
3, 283196, Note_off_c, 1, 53, 100
3, 283200, Note_on_c, 1, 56, 80
3, 283388, Note_off_c, 1, 46, 100
3, 283388, Note_off_c, 1, 56, 100
3, 283392, Note_on_c, 1, 47, 80
3, 283392, Note_on_c, 1, 53, 80
3, 283580, Note_off_c, 1, 53, 100
3, 283584, Note_on_c, 1, 56, 80
3, 283772, Note_off_c, 1, 56, 100
3, 283776, Note_on_c, 1, 53, 80
3, 283964, Note_off_c, 1, 53, 100
3, 283968, Note_on_c, 1, 56, 80
3, 284156, Note_off_c, 1, 56, 100
3, 284160, Note_on_c, 1, 53, 80
3, 284348, Note_off_c, 1, 53, 100
3, 284352, Note_on_c, 1, 56, 80
3, 284540, Note_off_c, 1, 56, 100
3, 284544, Note_on_c, 1, 53, 80
3, 284732, Note_off_c, 1, 53, 100
3, 284736, Note_on_c, 1, 56, 80
3, 284924, Note_off_c, 1, 56, 100
3, 284928, Note_on_c, 1, 53, 80
3, 285116, Note_off_c, 1, 53, 100
3, 285120, Note_on_c, 1, 56, 80
3, 285308, Note_off_c, 1, 56, 100
3, 285312, Note_on_c, 1, 53, 80
3, 285500, Note_off_c, 1, 53, 100
3, 285504, Note_on_c, 1, 56, 80
3, 285692, Note_off_c, 1, 47, 100
3, 285692, Note_off_c, 1, 56, 100
3, 285696, Note_on_c, 1, 47, 80
3, 285696, Note_on_c, 1, 52, 80
3, 285884, Note_off_c, 1, 52, 100
3, 285888, Note_on_c, 1, 56, 80
3, 286076, Note_off_c, 1, 56, 100
3, 286080, Note_on_c, 1, 52, 81
3, 286268, Note_off_c, 1, 52, 100
3, 286272, Note_on_c, 1, 56, 82
3, 286460, Note_off_c, 1, 47, 100
3, 286460, Note_off_c, 1, 56, 100
3, 286464, Note_on_c, 1, 46, 83
3, 286464, Note_on_c, 1, 52, 83
3, 286652, Note_off_c, 1, 52, 100
3, 286656, Note_on_c, 1, 56, 84
3, 286844, Note_off_c, 1, 46, 100
3, 286844, Note_off_c, 1, 56, 100
3, 286848, Note_on_c, 1, 47, 85
3, 286848, Note_on_c, 1, 52, 85
3, 287036, Note_off_c, 1, 52, 100
3, 287040, Note_on_c, 1, 56, 86
3, 287228, Note_off_c, 1, 56, 100
3, 287232, Note_on_c, 1, 52, 87
3, 287420, Note_off_c, 1, 52, 100
3, 287424, Note_on_c, 1, 56, 88
3, 287612, Note_off_c, 1, 47, 100
3, 287612, Note_off_c, 1, 56, 100
3, 287616, Note_on_c, 1, 46, 89
3, 287616, Note_on_c, 1, 52, 89
3, 287804, Note_off_c, 1, 52, 100
3, 287808, Note_on_c, 1, 56, 90
3, 287996, Note_off_c, 1, 46, 100
3, 287996, Note_off_c, 1, 56, 100
3, 288000, Note_on_c, 1, 47, 91
3, 288000, Note_on_c, 1, 52, 91
3, 288188, Note_off_c, 1, 52, 100
3, 288192, Note_on_c, 1, 56, 92
3, 288380, Note_off_c, 1, 56, 100
3, 288384, Note_on_c, 1, 52, 93
3, 288572, Note_off_c, 1, 52, 100
3, 288576, Note_on_c, 1, 56, 94
3, 288764, Note_off_c, 1, 56, 100
3, 288768, Note_on_c, 1, 52, 95
3, 288956, Note_off_c, 1, 52, 100
3, 288960, Note_on_c, 1, 56, 96
3, 289148, Note_off_c, 1, 56, 100
3, 289152, Note_on_c, 1, 52, 97
3, 289340, Note_off_c, 1, 52, 100
3, 289344, Note_on_c, 1, 56, 98
3, 289532, Note_off_c, 1, 56, 100
3, 289536, Note_on_c, 1, 52, 99
3, 289724, Note_off_c, 1, 52, 100
3, 289728, Note_on_c, 1, 56, 99
3, 289916, Note_off_c, 1, 47, 100
3, 289916, Note_off_c, 1, 56, 100
3, 289920, Note_on_c, 1, 52, 80
3, 289920, Note_on_c, 1, 47, 80
3, 290108, Note_off_c, 1, 52, 100
3, 290112, Note_on_c, 1, 56, 80
3, 290300, Note_off_c, 1, 47, 100
3, 290300, Note_off_c, 1, 56, 100
3, 290304, Note_on_c, 1, 45, 80
3, 290304, Note_on_c, 1, 57, 80
3, 290492, Note_off_c, 1, 57, 100
3, 290496, Note_on_c, 1, 52, 80
3, 290684, Note_off_c, 1, 52, 100
3, 290688, Note_on_c, 1, 57, 80
3, 290876, Note_off_c, 1, 57, 100
3, 290880, Note_on_c, 1, 52, 80
3, 291068, Note_off_c, 1, 45, 100
3, 291068, Note_off_c, 1, 52, 100
3, 291072, Note_on_c, 1, 47, 80
3, 291072, Note_on_c, 1, 59, 80
3, 291260, Note_off_c, 1, 59, 100
3, 291264, Note_on_c, 1, 52, 80
3, 291452, Note_off_c, 1, 47, 100
3, 291452, Note_off_c, 1, 52, 100
3, 291456, Note_on_c, 1, 45, 80
3, 291456, Note_on_c, 1, 57, 80
3, 291644, Note_off_c, 1, 57, 100
3, 291648, Note_on_c, 1, 52, 80
3, 291836, Note_off_c, 1, 52, 100
3, 291840, Note_on_c, 1, 57, 80
3, 292028, Note_off_c, 1, 57, 100
3, 292032, Note_on_c, 1, 52, 80
3, 292220, Note_off_c, 1, 45, 100
3, 292220, Note_off_c, 1, 52, 100
3, 292224, Note_on_c, 1, 44, 80
3, 292224, Note_on_c, 1, 56, 80
3, 292412, Note_off_c, 1, 56, 100
3, 292416, Note_on_c, 1, 49, 80
3, 292604, Note_off_c, 1, 44, 100
3, 292604, Note_off_c, 1, 49, 100
3, 292608, Note_on_c, 1, 42, 80
3, 292608, Note_on_c, 1, 54, 80
3, 292796, Note_off_c, 1, 54, 100
3, 292800, Note_on_c, 1, 49, 80
3, 292988, Note_off_c, 1, 49, 100
3, 292992, Note_on_c, 1, 54, 80
3, 293180, Note_off_c, 1, 54, 100
3, 293184, Note_on_c, 1, 49, 80
3, 293372, Note_off_c, 1, 49, 100
3, 293376, Note_on_c, 1, 54, 80
3, 293564, Note_off_c, 1, 54, 100
3, 293568, Note_on_c, 1, 49, 80
3, 293756, Note_off_c, 1, 49, 100
3, 293760, Note_on_c, 1, 54, 80
3, 293948, Note_off_c, 1, 54, 100
3, 293952, Note_on_c, 1, 49, 80
3, 294140, Note_off_c, 1, 49, 100
3, 294144, Note_on_c, 1, 54, 80
3, 294332, Note_off_c, 1, 54, 100
3, 294336, Note_on_c, 1, 49, 80
3, 294524, Note_off_c, 1, 42, 100
3, 294524, Note_off_c, 1, 49, 100
3, 294528, Note_on_c, 1, 44, 80
3, 294528, Note_on_c, 1, 56, 80
3, 294716, Note_off_c, 1, 56, 100
3, 294720, Note_on_c, 1, 49, 80
3, 294908, Note_off_c, 1, 44, 100
3, 294908, Note_off_c, 1, 49, 100
3, 294912, Note_on_c, 1, 42, 80
3, 294912, Note_on_c, 1, 54, 80
3, 295100, Note_off_c, 1, 54, 100
3, 295104, Note_on_c, 1, 49, 80
3, 295292, Note_off_c, 1, 49, 100
3, 295296, Note_on_c, 1, 54, 80
3, 295484, Note_off_c, 1, 54, 100
3, 295488, Note_on_c, 1, 49, 80
3, 295676, Note_off_c, 1, 42, 100
3, 295676, Note_off_c, 1, 49, 100
3, 295680, Note_on_c, 1, 44, 80
3, 295680, Note_on_c, 1, 56, 80
3, 295868, Note_off_c, 1, 56, 100
3, 295872, Note_on_c, 1, 49, 80
3, 296060, Note_off_c, 1, 44, 100
3, 296060, Note_off_c, 1, 49, 100
3, 296064, Note_on_c, 1, 42, 80
3, 296064, Note_on_c, 1, 54, 80
3, 296252, Note_off_c, 1, 54, 100
3, 296256, Note_on_c, 1, 49, 80
3, 296444, Note_off_c, 1, 49, 100
3, 296448, Note_on_c, 1, 54, 80
3, 296636, Note_off_c, 1, 54, 100
3, 296640, Note_on_c, 1, 49, 80
3, 296828, Note_off_c, 1, 42, 100
3, 296828, Note_off_c, 1, 49, 100
3, 296832, Note_on_c, 1, 40, 80
3, 296832, Note_on_c, 1, 52, 80
3, 297020, Note_off_c, 1, 52, 100
3, 297024, Note_on_c, 1, 45, 80
3, 297212, Note_off_c, 1, 40, 100
3, 297212, Note_off_c, 1, 45, 100
3, 297216, Note_on_c, 1, 38, 80
3, 297216, Note_on_c, 1, 50, 80
3, 297404, Note_off_c, 1, 50, 100
3, 297408, Note_on_c, 1, 45, 80
3, 297596, Note_off_c, 1, 45, 100
3, 297600, Note_on_c, 1, 50, 81
3, 297788, Note_off_c, 1, 50, 100
3, 297792, Note_on_c, 1, 45, 82
3, 297980, Note_off_c, 1, 45, 100
3, 297984, Note_on_c, 1, 50, 83
3, 298172, Note_off_c, 1, 50, 100
3, 298176, Note_on_c, 1, 45, 84
3, 298364, Note_off_c, 1, 45, 100
3, 298368, Note_on_c, 1, 50, 84
3, 298556, Note_off_c, 1, 50, 100
3, 298560, Note_on_c, 1, 45, 85
3, 298748, Note_off_c, 1, 45, 100
3, 298752, Note_on_c, 1, 50, 86
3, 298940, Note_off_c, 1, 50, 100
3, 298944, Note_on_c, 1, 45, 87
3, 299132, Note_off_c, 1, 38, 100
3, 299132, Note_off_c, 1, 45, 100
3, 299136, Note_on_c, 1, 40, 88
3, 299136, Note_on_c, 1, 52, 88
3, 299324, Note_off_c, 1, 52, 100
3, 299328, Note_on_c, 1, 45, 89
3, 299516, Note_off_c, 1, 40, 100
3, 299516, Note_off_c, 1, 45, 100
3, 299520, Note_on_c, 1, 38, 89
3, 299520, Note_on_c, 1, 50, 89
3, 299708, Note_off_c, 1, 50, 100
3, 299712, Note_on_c, 1, 45, 90
3, 299900, Note_off_c, 1, 45, 100
3, 299904, Note_on_c, 1, 50, 91
3, 300092, Note_off_c, 1, 50, 100
3, 300096, Note_on_c, 1, 45, 92
3, 300284, Note_off_c, 1, 38, 100
3, 300284, Note_off_c, 1, 45, 100
3, 300288, Note_on_c, 1, 40, 93
3, 300288, Note_on_c, 1, 52, 93
3, 300476, Note_off_c, 1, 52, 100
3, 300480, Note_on_c, 1, 45, 94
3, 300668, Note_off_c, 1, 40, 100
3, 300668, Note_off_c, 1, 45, 100
3, 300672, Note_on_c, 1, 38, 94
3, 300672, Note_on_c, 1, 50, 94
3, 300860, Note_off_c, 1, 50, 100
3, 300864, Note_on_c, 1, 45, 95
3, 301052, Note_off_c, 1, 45, 100
3, 301056, Note_on_c, 1, 50, 96
3, 301244, Note_off_c, 1, 50, 100
3, 301248, Note_on_c, 1, 45, 97
3, 301436, Note_off_c, 1, 38, 100
3, 301436, Note_off_c, 1, 45, 100
3, 301440, Note_on_c, 1, 35, 98
3, 301440, Note_on_c, 1, 47, 98
3, 301628, Note_off_c, 1, 47, 100
3, 301632, Note_on_c, 1, 40, 99
3, 301820, Note_off_c, 1, 35, 100
3, 301820, Note_off_c, 1, 40, 100
3, 301824, Note_on_c, 1, 37, 99
3, 301824, Note_on_c, 1, 49, 99
3, 302012, Note_off_c, 1, 49, 100
3, 302016, Note_on_c, 1, 40, 100
3, 302204, Note_off_c, 1, 40, 100
3, 302208, Note_on_c, 1, 49, 101
3, 302396, Note_off_c, 1, 49, 100
3, 302400, Note_on_c, 1, 40, 102
3, 302588, Note_off_c, 1, 37, 100
3, 302588, Note_off_c, 1, 40, 100
3, 302592, Note_on_c, 1, 32, 103
3, 302592, Note_on_c, 1, 44, 103
3, 302780, Note_off_c, 1, 44, 100
3, 302784, Note_on_c, 1, 40, 104
3, 302972, Note_off_c, 1, 32, 100
3, 302972, Note_off_c, 1, 40, 100
3, 302976, Note_on_c, 1, 33, 104
3, 302976, Note_on_c, 1, 45, 104
3, 303164, Note_off_c, 1, 45, 100
3, 303168, Note_on_c, 1, 40, 105
3, 303356, Note_off_c, 1, 40, 100
3, 303360, Note_on_c, 1, 45, 106
3, 303548, Note_off_c, 1, 45, 100
3, 303552, Note_on_c, 1, 40, 107
3, 303740, Note_off_c, 1, 33, 100
3, 303740, Note_off_c, 1, 40, 100
3, 303744, Note_on_c, 1, 30, 108
3, 303744, Note_on_c, 1, 42, 108
3, 303932, Note_off_c, 1, 42, 100
3, 303936, Note_on_c, 1, 38, 109
3, 304124, Note_off_c, 1, 30, 100
3, 304124, Note_off_c, 1, 38, 100
3, 304128, Note_on_c, 1, 49, 109
3, 304128, Note_on_c, 1, 45, 109
3, 304128, Note_on_c, 1, 37, 109
3, 305276, Note_off_c, 1, 49, 100
3, 305276, Note_off_c, 1, 45, 100
3, 305276, Note_off_c, 1, 37, 100
3, 306432, Note_on_c, 1, 63, 110
3, 306432, Note_on_c, 1, 57, 110
3, 306432, Note_on_c, 1, 54, 110
3, 307580, Note_off_c, 1, 63, 100
3, 307580, Note_off_c, 1, 57, 100
3, 307580, Note_off_c, 1, 54, 100
3, 308736, Note_on_c, 1, 61, 110
3, 308736, Note_on_c, 1, 64, 110
3, 308736, Note_on_c, 1, 57, 110
3, 308736, Note_on_c, 1, 52, 110
3, 309116, Note_off_c, 1, 61, 100
3, 309116, Note_off_c, 1, 64, 100
3, 309116, Note_off_c, 1, 57, 100
3, 309116, Note_off_c, 1, 52, 100
3, 309888, Note_on_c, 1, 62, 110
3, 309888, Note_on_c, 1, 59, 110
3, 309888, Note_on_c, 1, 56, 110
3, 309888, Note_on_c, 1, 52, 110
3, 310268, Note_off_c, 1, 62, 100
3, 310268, Note_off_c, 1, 59, 100
3, 310268, Note_off_c, 1, 56, 100
3, 310268, Note_off_c, 1, 52, 100
3, 311040, Note_on_c, 1, 49, 80
3, 311040, Note_on_c, 1, 61, 80
3, 311228, Note_off_c, 1, 61, 100
3, 311232, Note_on_c, 1, 57, 80
3, 311420, Note_off_c, 1, 57, 100
3, 311424, Note_on_c, 1, 61, 80
3, 311612, Note_off_c, 1, 61, 100
3, 311616, Note_on_c, 1, 57, 80
3, 311804, Note_off_c, 1, 57, 100
3, 311808, Note_on_c, 1, 61, 80
3, 311996, Note_off_c, 1, 61, 100
3, 312000, Note_on_c, 1, 57, 80
3, 312188, Note_off_c, 1, 57, 100
3, 312192, Note_on_c, 1, 61, 80
3, 312380, Note_off_c, 1, 61, 100
3, 312384, Note_on_c, 1, 57, 80
3, 312572, Note_off_c, 1, 57, 100
3, 312576, Note_on_c, 1, 61, 80
3, 312764, Note_off_c, 1, 61, 100
3, 312768, Note_on_c, 1, 57, 80
3, 312956, Note_off_c, 1, 49, 100
3, 312956, Note_off_c, 1, 57, 100
3, 312960, Note_on_c, 1, 48, 80
3, 312960, Note_on_c, 1, 60, 80
3, 313148, Note_off_c, 1, 60, 100
3, 313152, Note_on_c, 1, 57, 80
3, 313340, Note_off_c, 1, 48, 100
3, 313340, Note_off_c, 1, 57, 100
3, 313344, Note_on_c, 1, 49, 80
3, 313344, Note_on_c, 1, 61, 80
3, 313532, Note_off_c, 1, 61, 100
3, 313536, Note_on_c, 1, 57, 80
3, 313724, Note_off_c, 1, 57, 100
3, 313728, Note_on_c, 1, 61, 80
3, 313916, Note_off_c, 1, 61, 100
3, 313920, Note_on_c, 1, 57, 80
3, 314108, Note_off_c, 1, 49, 100
3, 314108, Note_off_c, 1, 57, 100
3, 314112, Note_on_c, 1, 50, 80
3, 314112, Note_on_c, 1, 62, 80
3, 314300, Note_off_c, 1, 62, 100
3, 314304, Note_on_c, 1, 57, 80
3, 314492, Note_off_c, 1, 50, 100
3, 314492, Note_off_c, 1, 57, 100
3, 314496, Note_on_c, 1, 49, 80
3, 314496, Note_on_c, 1, 61, 80
3, 314684, Note_off_c, 1, 61, 100
3, 314688, Note_on_c, 1, 57, 80
3, 314876, Note_off_c, 1, 57, 100
3, 314880, Note_on_c, 1, 61, 80
3, 315068, Note_off_c, 1, 61, 100
3, 315072, Note_on_c, 1, 57, 80
3, 315260, Note_off_c, 1, 49, 100
3, 315260, Note_off_c, 1, 57, 100
3, 315264, Note_on_c, 1, 47, 80
3, 315264, Note_on_c, 1, 59, 80
3, 315452, Note_off_c, 1, 59, 100
3, 315456, Note_on_c, 1, 52, 80
3, 315644, Note_off_c, 1, 47, 100
3, 315644, Note_off_c, 1, 52, 100
3, 315648, Note_on_c, 1, 45, 80
3, 315648, Note_on_c, 1, 57, 80
3, 315836, Note_off_c, 1, 57, 100
3, 315840, Note_on_c, 1, 52, 80
3, 316028, Note_off_c, 1, 52, 100
3, 316032, Note_on_c, 1, 57, 80
3, 316220, Note_off_c, 1, 57, 100
3, 316224, Note_on_c, 1, 52, 80
3, 316412, Note_off_c, 1, 52, 100
3, 316416, Note_on_c, 1, 57, 80
3, 316604, Note_off_c, 1, 57, 100
3, 316608, Note_on_c, 1, 52, 80
3, 316796, Note_off_c, 1, 52, 100
3, 316800, Note_on_c, 1, 57, 80
3, 316988, Note_off_c, 1, 57, 100
3, 316992, Note_on_c, 1, 52, 80
3, 317180, Note_off_c, 1, 52, 100
3, 317184, Note_on_c, 1, 57, 80
3, 317372, Note_off_c, 1, 57, 100
3, 317376, Note_on_c, 1, 52, 80
3, 317564, Note_off_c, 1, 45, 100
3, 317564, Note_off_c, 1, 52, 100
3, 317568, Note_on_c, 1, 44, 80
3, 317568, Note_on_c, 1, 56, 80
3, 317756, Note_off_c, 1, 56, 100
3, 317760, Note_on_c, 1, 52, 80
3, 317948, Note_off_c, 1, 44, 100
3, 317948, Note_off_c, 1, 52, 100
3, 317952, Note_on_c, 1, 45, 80
3, 317952, Note_on_c, 1, 57, 80
3, 318140, Note_off_c, 1, 57, 100
3, 318144, Note_on_c, 1, 52, 80
3, 318332, Note_off_c, 1, 52, 100
3, 318336, Note_on_c, 1, 57, 80
3, 318524, Note_off_c, 1, 57, 100
3, 318528, Note_on_c, 1, 52, 80
3, 318716, Note_off_c, 1, 45, 100
3, 318716, Note_off_c, 1, 52, 100
3, 318720, Note_on_c, 1, 47, 80
3, 318720, Note_on_c, 1, 59, 80
3, 318908, Note_off_c, 1, 59, 100
3, 318912, Note_on_c, 1, 52, 80
3, 319100, Note_off_c, 1, 47, 100
3, 319100, Note_off_c, 1, 52, 100
3, 319104, Note_on_c, 1, 45, 80
3, 319104, Note_on_c, 1, 57, 80
3, 319292, Note_off_c, 1, 57, 100
3, 319296, Note_on_c, 1, 52, 80
3, 319484, Note_off_c, 1, 52, 100
3, 319488, Note_on_c, 1, 57, 80
3, 319676, Note_off_c, 1, 57, 100
3, 319680, Note_on_c, 1, 52, 80
3, 319868, Note_off_c, 1, 45, 100
3, 319868, Note_off_c, 1, 52, 100
3, 319872, Note_on_c, 1, 44, 80
3, 319872, Note_on_c, 1, 56, 80
3, 320060, Note_off_c, 1, 56, 100
3, 320064, Note_on_c, 1, 49, 80
3, 320252, Note_off_c, 1, 44, 100
3, 320252, Note_off_c, 1, 49, 100
3, 320256, Note_on_c, 1, 42, 80
3, 320256, Note_on_c, 1, 54, 80
3, 320444, Note_off_c, 1, 54, 100
3, 320448, Note_on_c, 1, 49, 80
3, 320636, Note_off_c, 1, 49, 100
3, 320640, Note_on_c, 1, 54, 81
3, 320828, Note_off_c, 1, 54, 100
3, 320832, Note_on_c, 1, 49, 81
3, 321020, Note_off_c, 1, 49, 100
3, 321024, Note_on_c, 1, 54, 82
3, 321212, Note_off_c, 1, 54, 100
3, 321216, Note_on_c, 1, 49, 83
3, 321404, Note_off_c, 1, 49, 100
3, 321408, Note_on_c, 1, 54, 83
3, 321596, Note_off_c, 1, 54, 100
3, 321600, Note_on_c, 1, 49, 84
3, 321788, Note_off_c, 1, 49, 100
3, 321792, Note_on_c, 1, 54, 85
3, 321980, Note_off_c, 1, 54, 100
3, 321984, Note_on_c, 1, 49, 85
3, 322172, Note_off_c, 1, 42, 100
3, 322172, Note_off_c, 1, 49, 100
3, 322176, Note_on_c, 1, 41, 86
3, 322176, Note_on_c, 1, 53, 86
3, 322364, Note_off_c, 1, 53, 100
3, 322368, Note_on_c, 1, 49, 87
3, 322556, Note_off_c, 1, 41, 100
3, 322556, Note_off_c, 1, 49, 100
3, 322560, Note_on_c, 1, 42, 87
3, 322560, Note_on_c, 1, 54, 87
3, 322748, Note_off_c, 1, 54, 100
3, 322752, Note_on_c, 1, 49, 88
3, 322940, Note_off_c, 1, 49, 100
3, 322944, Note_on_c, 1, 54, 89
3, 323132, Note_off_c, 1, 54, 100
3, 323136, Note_on_c, 1, 49, 89
3, 323324, Note_off_c, 1, 42, 100
3, 323324, Note_off_c, 1, 49, 100
3, 323328, Note_on_c, 1, 41, 90
3, 323328, Note_on_c, 1, 53, 90
3, 323516, Note_off_c, 1, 53, 100
3, 323520, Note_on_c, 1, 49, 90
3, 323708, Note_off_c, 1, 41, 100
3, 323708, Note_off_c, 1, 49, 100
3, 323712, Note_on_c, 1, 42, 91
3, 323712, Note_on_c, 1, 54, 91
3, 323900, Note_off_c, 1, 54, 100
3, 323904, Note_on_c, 1, 49, 92
3, 324092, Note_off_c, 1, 49, 100
3, 324096, Note_on_c, 1, 54, 92
3, 324284, Note_off_c, 1, 54, 100
3, 324288, Note_on_c, 1, 49, 93
3, 324476, Note_off_c, 1, 42, 100
3, 324476, Note_off_c, 1, 49, 100
3, 324480, Note_on_c, 1, 40, 94
3, 324480, Note_on_c, 1, 52, 94
3, 324668, Note_off_c, 1, 52, 100
3, 324672, Note_on_c, 1, 49, 94
3, 324860, Note_off_c, 1, 40, 100
3, 324860, Note_off_c, 1, 49, 100
3, 324864, Note_on_c, 1, 38, 95
3, 324864, Note_on_c, 1, 50, 95
3, 325052, Note_off_c, 1, 50, 100
3, 325056, Note_on_c, 1, 42, 96
3, 325244, Note_off_c, 1, 42, 100
3, 325248, Note_on_c, 1, 50, 96
3, 325436, Note_off_c, 1, 50, 100
3, 325440, Note_on_c, 1, 42, 97
3, 325628, Note_off_c, 1, 38, 100
3, 325628, Note_off_c, 1, 42, 100
3, 325632, Note_on_c, 1, 34, 98
3, 325632, Note_on_c, 1, 46, 98
3, 325820, Note_off_c, 1, 46, 100
3, 325824, Note_on_c, 1, 42, 98
3, 326012, Note_off_c, 1, 34, 100
3, 326012, Note_off_c, 1, 42, 100
3, 326016, Note_on_c, 1, 35, 99
3, 326016, Note_on_c, 1, 47, 99
3, 326204, Note_off_c, 1, 47, 100
3, 326208, Note_on_c, 1, 42, 100
3, 326396, Note_off_c, 1, 42, 100
3, 326400, Note_on_c, 1, 47, 100
3, 326588, Note_off_c, 1, 47, 100
3, 326592, Note_on_c, 1, 42, 101
3, 326780, Note_off_c, 1, 35, 100
3, 326780, Note_off_c, 1, 42, 100
3, 326784, Note_on_c, 1, 33, 101
3, 326784, Note_on_c, 1, 45, 101
3, 326972, Note_off_c, 1, 45, 100
3, 326976, Note_on_c, 1, 42, 102
3, 327164, Note_off_c, 1, 33, 100
3, 327164, Note_off_c, 1, 42, 100
3, 327168, Note_on_c, 1, 32, 103
3, 327168, Note_on_c, 1, 44, 103
3, 327356, Note_off_c, 1, 44, 100
3, 327360, Note_on_c, 1, 40, 103
3, 327548, Note_off_c, 1, 40, 100
3, 327552, Note_on_c, 1, 44, 104
3, 327740, Note_off_c, 1, 44, 100
3, 327744, Note_on_c, 1, 40, 105
3, 327932, Note_off_c, 1, 32, 100
3, 327932, Note_off_c, 1, 40, 100
3, 327936, Note_on_c, 1, 39, 105
3, 327936, Note_on_c, 1, 51, 105
3, 328124, Note_off_c, 1, 51, 100
3, 328128, Note_on_c, 1, 47, 106
3, 328316, Note_off_c, 1, 39, 100
3, 328316, Note_off_c, 1, 47, 100
3, 328320, Note_on_c, 1, 40, 107
3, 328320, Note_on_c, 1, 52, 107
3, 328508, Note_off_c, 1, 52, 100
3, 328512, Note_on_c, 1, 47, 107
3, 328700, Note_off_c, 1, 47, 100
3, 328704, Note_on_c, 1, 52, 108
3, 328892, Note_off_c, 1, 52, 100
3, 328896, Note_on_c, 1, 47, 109
3, 329084, Note_off_c, 1, 40, 100
3, 329084, Note_off_c, 1, 47, 100
3, 329088, Note_on_c, 1, 38, 109
3, 329088, Note_on_c, 1, 50, 109
3, 329276, Note_off_c, 1, 50, 100
3, 329280, Note_on_c, 1, 47, 110
3, 329468, Note_off_c, 1, 38, 100
3, 329468, Note_off_c, 1, 47, 100
3, 329472, Note_on_c, 1, 49, 110
3, 329472, Note_on_c, 1, 45, 110
3, 329472, Note_on_c, 1, 37, 110
3, 330620, Note_off_c, 1, 49, 100
3, 330620, Note_off_c, 1, 45, 100
3, 330620, Note_off_c, 1, 37, 100
3, 331776, Note_on_c, 1, 63, 110
3, 331776, Note_on_c, 1, 59, 110
3, 331776, Note_on_c, 1, 57, 110
3, 331776, Note_on_c, 1, 54, 110
3, 332924, Note_off_c, 1, 63, 100
3, 332924, Note_off_c, 1, 59, 100
3, 332924, Note_off_c, 1, 57, 100
3, 332924, Note_off_c, 1, 54, 100
3, 334080, Note_on_c, 1, 61, 110
3, 334080, Note_on_c, 1, 64, 110
3, 334080, Note_on_c, 1, 57, 110
3, 334080, Note_on_c, 1, 52, 110
3, 334460, Note_off_c, 1, 61, 100
3, 334460, Note_off_c, 1, 64, 100
3, 334460, Note_off_c, 1, 57, 100
3, 334460, Note_off_c, 1, 52, 100
3, 336384, Note_on_c, 1, 40, 110
3, 336512, Note_on_c, 1, 42, 110
3, 336612, Note_off_c, 1, 40, 100
3, 336640, Note_on_c, 1, 44, 110
3, 336740, Note_off_c, 1, 42, 100
3, 336768, Note_on_c, 1, 45, 110
3, 336864, Note_off_c, 1, 44, 100
3, 336896, Note_on_c, 1, 47, 110
3, 336992, Note_off_c, 1, 45, 100
3, 337024, Note_on_c, 1, 49, 110
3, 337100, Note_off_c, 1, 47, 100
3, 337152, Note_on_c, 1, 50, 110
3, 337248, Note_off_c, 1, 49, 100
3, 337280, Note_on_c, 1, 52, 110
3, 337396, Note_off_c, 1, 50, 100
3, 337408, Note_on_c, 1, 54, 110
3, 337508, Note_off_c, 1, 52, 100
3, 337536, Note_on_c, 1, 56, 110
3, 337632, Note_off_c, 1, 54, 100
3, 337664, Note_on_c, 1, 57, 110
3, 337756, Note_off_c, 1, 56, 100
3, 337792, Note_on_c, 1, 59, 110
3, 337904, Note_off_c, 1, 57, 100
3, 337920, Note_on_c, 1, 60, 110
3, 338016, Note_off_c, 1, 59, 100
3, 338112, Note_on_c, 1, 61, 110
3, 338220, Note_off_c, 1, 60, 100
3, 338304, Note_on_c, 1, 62, 110
3, 338400, Note_off_c, 1, 61, 100
3, 338496, Note_on_c, 1, 63, 110
3, 338600, Note_off_c, 1, 62, 100
3, 338684, Note_off_c, 1, 63, 100
3, 338688, Note_on_c, 1, 64, 110
3, 339840, Note_on_c, 1, 52, 80
3, 340604, Note_off_c, 1, 64, 100
3, 340608, Note_on_c, 1, 62, 80
3, 340988, Note_off_c, 1, 52, 100
3, 340988, Note_off_c, 1, 62, 100
3, 340992, Note_on_c, 1, 61, 80
3, 340992, Note_on_c, 1, 57, 80
3, 341372, Note_off_c, 1, 61, 100
3, 341372, Note_off_c, 1, 57, 100
3, 342144, Note_on_c, 1, 52, 80
3, 342144, Note_on_c, 1, 49, 80
3, 342144, Note_on_c, 1, 45, 80
3, 342524, Note_off_c, 1, 52, 100
3, 342524, Note_off_c, 1, 49, 100
3, 342524, Note_off_c, 1, 45, 100
3, 342528, Note_on_c, 1, 52, 80
3, 342528, Note_on_c, 1, 49, 80
3, 342528, Note_on_c, 1, 45, 80
3, 342908, Note_off_c, 1, 52, 100
3, 342908, Note_off_c, 1, 49, 100
3, 342908, Note_off_c, 1, 45, 100
3, 343296, Note_on_c, 1, 57, 80
3, 343296, Note_on_c, 1, 52, 80
3, 343296, Note_on_c, 1, 49, 80
3, 343676, Note_off_c, 1, 57, 100
3, 343676, Note_off_c, 1, 52, 100
3, 343676, Note_off_c, 1, 49, 100
3, 343680, Note_on_c, 1, 57, 80
3, 343680, Note_on_c, 1, 52, 80
3, 343680, Note_on_c, 1, 49, 80
3, 344060, Note_off_c, 1, 57, 100
3, 344060, Note_off_c, 1, 52, 100
3, 344060, Note_off_c, 1, 49, 100
3, 344448, Note_on_c, 1, 59, 80
3, 344448, Note_on_c, 1, 52, 80
3, 344828, Note_off_c, 1, 59, 100
3, 344828, Note_off_c, 1, 52, 100
3, 344832, Note_on_c, 1, 59, 80
3, 344832, Note_on_c, 1, 52, 80
3, 345212, Note_off_c, 1, 59, 100
3, 345212, Note_off_c, 1, 52, 100
3, 345600, Note_on_c, 1, 61, 80
3, 345600, Note_on_c, 1, 57, 80
3, 345980, Note_off_c, 1, 61, 100
3, 345980, Note_off_c, 1, 57, 100
3, 345984, Note_on_c, 1, 61, 80
3, 345984, Note_on_c, 1, 57, 80
3, 346364, Note_off_c, 1, 61, 100
3, 346364, Note_off_c, 1, 57, 100
3, 346752, Note_on_c, 1, 67, 80
3, 346752, Note_on_c, 1, 61, 80
3, 347132, Note_off_c, 1, 67, 100
3, 347132, Note_off_c, 1, 61, 100
3, 347136, Note_on_c, 1, 67, 80
3, 347136, Note_on_c, 1, 61, 80
3, 347516, Note_off_c, 1, 67, 100
3, 347516, Note_off_c, 1, 61, 100
3, 347904, Note_on_c, 1, 66, 80
3, 347904, Note_on_c, 1, 62, 80
3, 348284, Note_off_c, 1, 66, 100
3, 348284, Note_off_c, 1, 62, 100
3, 348288, Note_on_c, 1, 66, 80
3, 348288, Note_on_c, 1, 62, 80
3, 348668, Note_off_c, 1, 66, 100
3, 348668, Note_off_c, 1, 62, 100
3, 349056, Note_on_c, 1, 68, 80
3, 349056, Note_on_c, 1, 64, 80
3, 349436, Note_off_c, 1, 68, 100
3, 349436, Note_off_c, 1, 64, 100
3, 349440, Note_on_c, 1, 68, 80
3, 349440, Note_on_c, 1, 64, 80
3, 349820, Note_off_c, 1, 68, 100
3, 349820, Note_off_c, 1, 64, 100
3, 350208, Note_on_c, 1, 69, 80
3, 350208, Note_on_c, 1, 57, 80
3, 350588, Note_off_c, 1, 69, 100
3, 350588, Note_off_c, 1, 57, 100
3, 351360, Note_on_c, 1, 40, 80
3, 351360, Note_on_c, 1, 33, 80
3, 351740, Note_off_c, 1, 40, 100
3, 351740, Note_off_c, 1, 33, 100
3, 351744, Note_on_c, 1, 40, 80
3, 351744, Note_on_c, 1, 33, 80
3, 352124, Note_off_c, 1, 40, 100
3, 352124, Note_off_c, 1, 33, 100
3, 352512, Note_on_c, 1, 45, 80
3, 352512, Note_on_c, 1, 37, 80
3, 352892, Note_off_c, 1, 45, 100
3, 352892, Note_off_c, 1, 37, 100
3, 352896, Note_on_c, 1, 45, 80
3, 352896, Note_on_c, 1, 37, 80
3, 353276, Note_off_c, 1, 45, 100
3, 353276, Note_off_c, 1, 37, 100
3, 353664, Note_on_c, 1, 47, 80
3, 353664, Note_on_c, 1, 40, 80
3, 354044, Note_off_c, 1, 47, 100
3, 354044, Note_off_c, 1, 40, 100
3, 354048, Note_on_c, 1, 47, 80
3, 354048, Note_on_c, 1, 40, 80
3, 354428, Note_off_c, 1, 47, 100
3, 354428, Note_off_c, 1, 40, 100
3, 354816, Note_on_c, 1, 49, 80
3, 354816, Note_on_c, 1, 45, 80
3, 355196, Note_off_c, 1, 49, 100
3, 355196, Note_off_c, 1, 45, 100
3, 355200, Note_on_c, 1, 49, 80
3, 355200, Note_on_c, 1, 45, 80
3, 355580, Note_off_c, 1, 49, 100
3, 355580, Note_off_c, 1, 45, 100
3, 355968, Note_on_c, 1, 55, 80
3, 355968, Note_on_c, 1, 49, 80
3, 356348, Note_off_c, 1, 55, 100
3, 356348, Note_off_c, 1, 49, 100
3, 356352, Note_on_c, 1, 55, 80
3, 356352, Note_on_c, 1, 49, 80
3, 356732, Note_off_c, 1, 55, 100
3, 356732, Note_off_c, 1, 49, 100
3, 357120, Note_on_c, 1, 54, 80
3, 357120, Note_on_c, 1, 50, 80
3, 357500, Note_off_c, 1, 54, 100
3, 357500, Note_off_c, 1, 50, 100
3, 357504, Note_on_c, 1, 54, 80
3, 357504, Note_on_c, 1, 50, 80
3, 357884, Note_off_c, 1, 54, 100
3, 357884, Note_off_c, 1, 50, 100
3, 358272, Note_on_c, 1, 56, 80
3, 358272, Note_on_c, 1, 52, 80
3, 358652, Note_off_c, 1, 56, 100
3, 358652, Note_off_c, 1, 52, 100
3, 358656, Note_on_c, 1, 56, 80
3, 358656, Note_on_c, 1, 52, 80
3, 359036, Note_off_c, 1, 56, 100
3, 359036, Note_off_c, 1, 52, 100
3, 359424, Note_on_c, 1, 57, 80
3, 359424, Note_on_c, 1, 45, 80
3, 359804, Note_off_c, 1, 57, 100
3, 359804, Note_off_c, 1, 45, 100
3, 359808, Note_on_c, 1, 57, 80
3, 359808, Note_on_c, 1, 45, 80
3, 360188, Note_off_c, 1, 57, 100
3, 360188, Note_off_c, 1, 45, 100
3, 360576, Note_on_c, 1, 55, 80
3, 360576, Note_on_c, 1, 49, 80
3, 360956, Note_off_c, 1, 55, 100
3, 360956, Note_off_c, 1, 49, 100
3, 360960, Note_on_c, 1, 55, 80
3, 360960, Note_on_c, 1, 49, 80
3, 361340, Note_off_c, 1, 55, 100
3, 361340, Note_off_c, 1, 49, 100
3, 361728, Note_on_c, 1, 54, 81
3, 361728, Note_on_c, 1, 50, 81
3, 362108, Note_off_c, 1, 54, 100
3, 362108, Note_off_c, 1, 50, 100
3, 362112, Note_on_c, 1, 54, 83
3, 362112, Note_on_c, 1, 50, 83
3, 362492, Note_off_c, 1, 54, 100
3, 362492, Note_off_c, 1, 50, 100
3, 362880, Note_on_c, 1, 56, 86
3, 362880, Note_on_c, 1, 52, 86
3, 363260, Note_off_c, 1, 56, 100
3, 363260, Note_off_c, 1, 52, 100
3, 363264, Note_on_c, 1, 56, 88
3, 363264, Note_on_c, 1, 52, 88
3, 363644, Note_off_c, 1, 56, 100
3, 363644, Note_off_c, 1, 52, 100
3, 364032, Note_on_c, 1, 57, 91
3, 364032, Note_on_c, 1, 45, 91
3, 364412, Note_off_c, 1, 57, 100
3, 364412, Note_off_c, 1, 45, 100
3, 364416, Note_on_c, 1, 57, 93
3, 364416, Note_on_c, 1, 45, 93
3, 364796, Note_off_c, 1, 57, 100
3, 364796, Note_off_c, 1, 45, 100
3, 365184, Note_on_c, 1, 56, 96
3, 365184, Note_on_c, 1, 52, 96
3, 365564, Note_off_c, 1, 56, 100
3, 365564, Note_off_c, 1, 52, 100
3, 365568, Note_on_c, 1, 56, 97
3, 365568, Note_on_c, 1, 52, 97
3, 365948, Note_off_c, 1, 56, 100
3, 365948, Note_off_c, 1, 52, 100
3, 366336, Note_on_c, 1, 57, 101
3, 366336, Note_on_c, 1, 45, 101
3, 366716, Note_off_c, 1, 57, 100
3, 366716, Note_off_c, 1, 45, 100
3, 366720, Note_on_c, 1, 57, 102
3, 366720, Note_on_c, 1, 45, 102
3, 367100, Note_off_c, 1, 57, 100
3, 367100, Note_off_c, 1, 45, 100
3, 367488, Note_on_c, 1, 44, 106
3, 367488, Note_on_c, 1, 40, 106
3, 367868, Note_off_c, 1, 44, 100
3, 367868, Note_off_c, 1, 40, 100
3, 367872, Note_on_c, 1, 44, 107
3, 367872, Note_on_c, 1, 40, 107
3, 368252, Note_off_c, 1, 44, 100
3, 368252, Note_off_c, 1, 40, 100
3, 368640, Note_on_c, 1, 45, 110
3, 368640, Note_on_c, 1, 33, 110
3, 369020, Note_off_c, 1, 45, 100
3, 369020, Note_off_c, 1, 33, 100
3, 369792, Note_on_c, 1, 57, 103
3, 370172, Note_off_c, 1, 57, 100
3, 370176, Note_on_c, 1, 55, 99
3, 370556, Note_off_c, 1, 55, 100
3, 370560, Note_on_c, 1, 54, 95
3, 370940, Note_off_c, 1, 54, 100
3, 370944, Note_on_c, 1, 52, 91
3, 371324, Note_off_c, 1, 52, 100
3, 371328, Note_on_c, 1, 50, 87
3, 371708, Note_off_c, 1, 50, 100
3, 371712, Note_on_c, 1, 49, 83
3, 372092, Note_off_c, 1, 49, 100
3, 372096, Note_on_c, 1, 47, 79
3, 372476, Note_off_c, 1, 47, 100
3, 372480, Note_on_c, 1, 45, 75
3, 372860, Note_off_c, 1, 45, 100
3, 372864, Note_on_c, 1, 43, 71
3, 373244, Note_off_c, 1, 43, 100
3, 373248, Note_on_c, 1, 42, 70
3, 373248, Note_on_c, 1, 30, 70
3, 373628, Note_off_c, 1, 42, 100
3, 373628, Note_off_c, 1, 30, 100
3, 373632, Note_on_c, 1, 42, 70
3, 373632, Note_on_c, 1, 30, 70
3, 374012, Note_off_c, 1, 42, 100
3, 374012, Note_off_c, 1, 30, 100
3, 374016, Note_on_c, 1, 42, 70
3, 374016, Note_on_c, 1, 30, 70
3, 374396, Note_off_c, 1, 42, 100
3, 374396, Note_off_c, 1, 30, 100
3, 374400, Note_on_c, 1, 42, 70
3, 374400, Note_on_c, 1, 30, 70
3, 374780, Note_off_c, 1, 42, 100
3, 374780, Note_off_c, 1, 30, 100
3, 374784, Note_on_c, 1, 42, 70
3, 374784, Note_on_c, 1, 30, 70
3, 375164, Note_off_c, 1, 42, 100
3, 375164, Note_off_c, 1, 30, 100
3, 375168, Note_on_c, 1, 42, 70
3, 375168, Note_on_c, 1, 30, 70
3, 375548, Note_off_c, 1, 42, 100
3, 375548, Note_off_c, 1, 30, 100
3, 375552, Note_on_c, 1, 42, 80
3, 375552, Note_on_c, 1, 30, 80
3, 375932, Note_off_c, 1, 42, 100
3, 375932, Note_off_c, 1, 30, 100
3, 375936, Note_on_c, 1, 42, 80
3, 375936, Note_on_c, 1, 30, 80
3, 376316, Note_off_c, 1, 42, 100
3, 376316, Note_off_c, 1, 30, 100
3, 376320, Note_on_c, 1, 42, 80
3, 376320, Note_on_c, 1, 30, 80
3, 376700, Note_off_c, 1, 42, 100
3, 376700, Note_off_c, 1, 30, 100
3, 376704, Note_on_c, 1, 42, 80
3, 376704, Note_on_c, 1, 30, 80
3, 377084, Note_off_c, 1, 42, 100
3, 377084, Note_off_c, 1, 30, 100
3, 377088, Note_on_c, 1, 42, 80
3, 377088, Note_on_c, 1, 30, 80
3, 377468, Note_off_c, 1, 42, 100
3, 377468, Note_off_c, 1, 30, 100
3, 377472, Note_on_c, 1, 42, 80
3, 377472, Note_on_c, 1, 30, 80
3, 377852, Note_off_c, 1, 42, 100
3, 377852, Note_off_c, 1, 30, 100
3, 377856, Note_on_c, 1, 43, 80
3, 377856, Note_on_c, 1, 31, 80
3, 378236, Note_off_c, 1, 43, 100
3, 378236, Note_off_c, 1, 31, 100
3, 378240, Note_on_c, 1, 43, 80
3, 378620, Note_off_c, 1, 43, 100
3, 378624, Note_on_c, 1, 43, 80
3, 379004, Note_off_c, 1, 43, 100
3, 379008, Note_on_c, 1, 43, 80
3, 379008, Note_on_c, 1, 47, 80
3, 379388, Note_off_c, 1, 43, 100
3, 379392, Note_on_c, 1, 43, 80
3, 379772, Note_off_c, 1, 43, 100
3, 379776, Note_on_c, 1, 43, 80
3, 380156, Note_off_c, 1, 47, 100
3, 380156, Note_off_c, 1, 43, 100
3, 380160, Note_on_c, 1, 48, 80
3, 380160, Note_on_c, 1, 43, 80
3, 380540, Note_off_c, 1, 43, 100
3, 380544, Note_on_c, 1, 43, 80
3, 380924, Note_off_c, 1, 43, 100
3, 380928, Note_on_c, 1, 43, 80
3, 381308, Note_off_c, 1, 48, 100
3, 381308, Note_off_c, 1, 43, 100
3, 381312, Note_on_c, 1, 52, 80
3, 381312, Note_on_c, 1, 43, 80
3, 381692, Note_off_c, 1, 43, 100
3, 381696, Note_on_c, 1, 43, 80
3, 382076, Note_off_c, 1, 43, 100
3, 382080, Note_on_c, 1, 43, 80
3, 382460, Note_off_c, 1, 52, 100
3, 382460, Note_off_c, 1, 43, 100
3, 382464, Note_on_c, 1, 57, 80
3, 382464, Note_on_c, 1, 43, 80
3, 382844, Note_off_c, 1, 43, 100
3, 382848, Note_on_c, 1, 43, 80
3, 383228, Note_off_c, 1, 43, 100
3, 383232, Note_on_c, 1, 43, 80
3, 383612, Note_off_c, 1, 57, 100
3, 383612, Note_off_c, 1, 43, 100
3, 383616, Note_on_c, 1, 54, 80
3, 383616, Note_on_c, 1, 43, 80
3, 383996, Note_off_c, 1, 43, 100
3, 384000, Note_on_c, 1, 43, 80
3, 384380, Note_off_c, 1, 43, 100
3, 384384, Note_on_c, 1, 43, 80
3, 384764, Note_off_c, 1, 54, 100
3, 384764, Note_off_c, 1, 43, 100
3, 384768, Note_on_c, 1, 55, 80
3, 384768, Note_on_c, 1, 43, 80
3, 385148, Note_off_c, 1, 43, 100
3, 385152, Note_on_c, 1, 43, 80
3, 385532, Note_off_c, 1, 43, 100
3, 385536, Note_on_c, 1, 43, 80
3, 385916, Note_off_c, 1, 55, 100
3, 385916, Note_off_c, 1, 43, 100
3, 385920, Note_on_c, 1, 47, 80
3, 385920, Note_on_c, 1, 43, 80
3, 386300, Note_off_c, 1, 43, 100
3, 386304, Note_on_c, 1, 43, 80
3, 386684, Note_off_c, 1, 43, 100
3, 386688, Note_on_c, 1, 43, 80
3, 387068, Note_off_c, 1, 47, 100
3, 387068, Note_off_c, 1, 43, 100
3, 387072, Note_on_c, 1, 43, 80
3, 387072, Note_on_c, 1, 50, 80
3, 387452, Note_off_c, 1, 43, 100
3, 387456, Note_on_c, 1, 43, 80
3, 387836, Note_off_c, 1, 43, 100
3, 387840, Note_on_c, 1, 43, 80
3, 388220, Note_off_c, 1, 50, 100
3, 388220, Note_off_c, 1, 43, 100
3, 388224, Note_on_c, 1, 43, 80
3, 388224, Note_on_c, 1, 55, 80
3, 388604, Note_off_c, 1, 43, 100
3, 388604, Note_off_c, 1, 55, 100
3, 388608, Note_on_c, 1, 55, 80
3, 388988, Note_off_c, 1, 55, 100
3, 388992, Note_on_c, 1, 55, 80
3, 389372, Note_off_c, 1, 55, 100
3, 389376, Note_on_c, 1, 55, 80
3, 389376, Note_on_c, 1, 67, 80
3, 389756, Note_off_c, 1, 55, 100
3, 389760, Note_on_c, 1, 55, 81
3, 390140, Note_off_c, 1, 55, 100
3, 390144, Note_on_c, 1, 55, 83
3, 390524, Note_off_c, 1, 67, 100
3, 390524, Note_off_c, 1, 55, 100
3, 390528, Note_on_c, 1, 55, 85
3, 390528, Note_on_c, 1, 59, 85
3, 390908, Note_off_c, 1, 55, 100
3, 390912, Note_on_c, 1, 55, 86
3, 391292, Note_off_c, 1, 55, 100
3, 391296, Note_on_c, 1, 55, 88
3, 391676, Note_off_c, 1, 59, 100
3, 391676, Note_off_c, 1, 55, 100
3, 391680, Note_on_c, 1, 60, 90
3, 391680, Note_on_c, 1, 55, 90
3, 392060, Note_off_c, 1, 55, 100
3, 392064, Note_on_c, 1, 55, 92
3, 392444, Note_off_c, 1, 55, 100
3, 392448, Note_on_c, 1, 55, 93
3, 392828, Note_off_c, 1, 60, 100
3, 392828, Note_off_c, 1, 55, 100
3, 392832, Note_on_c, 1, 63, 95
3, 392832, Note_on_c, 1, 55, 95
3, 393212, Note_off_c, 1, 55, 100
3, 393216, Note_on_c, 1, 55, 97
3, 393596, Note_off_c, 1, 55, 100
3, 393600, Note_on_c, 1, 55, 99
3, 393980, Note_off_c, 1, 63, 100
3, 393980, Note_off_c, 1, 55, 100
3, 393984, Note_on_c, 1, 69, 80
3, 393984, Note_on_c, 1, 55, 80
3, 394364, Note_off_c, 1, 55, 100
3, 394368, Note_on_c, 1, 55, 80
3, 394748, Note_off_c, 1, 55, 100
3, 394752, Note_on_c, 1, 55, 80
3, 395132, Note_off_c, 1, 69, 100
3, 395132, Note_off_c, 1, 55, 100
3, 395136, Note_on_c, 1, 66, 80
3, 395136, Note_on_c, 1, 55, 80
3, 395516, Note_off_c, 1, 55, 100
3, 395520, Note_on_c, 1, 55, 80
3, 395900, Note_off_c, 1, 55, 100
3, 395904, Note_on_c, 1, 55, 80
3, 396284, Note_off_c, 1, 66, 100
3, 396284, Note_off_c, 1, 55, 100
3, 396288, Note_on_c, 1, 67, 80
3, 396288, Note_on_c, 1, 55, 80
3, 396476, Note_off_c, 1, 67, 100
3, 396476, Note_off_c, 1, 55, 100
3, 396480, Note_on_c, 1, 61, 81
3, 396668, Note_off_c, 1, 61, 100
3, 396672, Note_on_c, 1, 62, 82
3, 396860, Note_off_c, 1, 62, 100
3, 396864, Note_on_c, 1, 61, 83
3, 397052, Note_off_c, 1, 61, 100
3, 397056, Note_on_c, 1, 63, 85
3, 397244, Note_off_c, 1, 63, 100
3, 397248, Note_on_c, 1, 62, 86
3, 397436, Note_off_c, 1, 62, 100
3, 397440, Note_on_c, 1, 60, 87
3, 397628, Note_off_c, 1, 60, 100
3, 397632, Note_on_c, 1, 58, 89
3, 397820, Note_off_c, 1, 58, 100
3, 397824, Note_on_c, 1, 57, 90
3, 398012, Note_off_c, 1, 57, 100
3, 398016, Note_on_c, 1, 55, 91
3, 398204, Note_off_c, 1, 55, 100
3, 398208, Note_on_c, 1, 54, 93
3, 398396, Note_off_c, 1, 54, 100
3, 398400, Note_on_c, 1, 51, 94
3, 398588, Note_off_c, 1, 51, 100
3, 398592, Note_on_c, 1, 50, 95
3, 398780, Note_off_c, 1, 50, 100
3, 398784, Note_on_c, 1, 48, 96
3, 398972, Note_off_c, 1, 48, 100
3, 398976, Note_on_c, 1, 46, 98
3, 399164, Note_off_c, 1, 46, 100
3, 399168, Note_on_c, 1, 45, 99
3, 399356, Note_off_c, 1, 45, 100
3, 399360, Note_on_c, 1, 43, 100
3, 399548, Note_off_c, 1, 43, 100
3, 399552, Note_on_c, 1, 42, 102
3, 399740, Note_off_c, 1, 42, 100
3, 399744, Note_on_c, 1, 43, 103
3, 399932, Note_off_c, 1, 43, 100
3, 399936, Note_on_c, 1, 42, 104
3, 400124, Note_off_c, 1, 42, 100
3, 400128, Note_on_c, 1, 43, 106
3, 400316, Note_off_c, 1, 43, 100
3, 400320, Note_on_c, 1, 41, 107
3, 400508, Note_off_c, 1, 41, 100
3, 400512, Note_on_c, 1, 39, 108
3, 400700, Note_off_c, 1, 39, 100
3, 400704, Note_on_c, 1, 38, 109
3, 400892, Note_off_c, 1, 38, 100
3, 400896, Note_on_c, 1, 37, 110
3, 401084, Note_off_c, 1, 37, 100
3, 401088, Note_on_c, 1, 56, 110
3, 401276, Note_off_c, 1, 56, 100
3, 401280, Note_on_c, 1, 57, 110
3, 401468, Note_off_c, 1, 57, 100
3, 401472, Note_on_c, 1, 56, 110
3, 401660, Note_off_c, 1, 56, 100
3, 401664, Note_on_c, 1, 58, 110
3, 401852, Note_off_c, 1, 58, 100
3, 401856, Note_on_c, 1, 57, 110
3, 402044, Note_off_c, 1, 57, 100
3, 402048, Note_on_c, 1, 55, 110
3, 402236, Note_off_c, 1, 55, 100
3, 402240, Note_on_c, 1, 53, 110
3, 402428, Note_off_c, 1, 53, 100
3, 402432, Note_on_c, 1, 52, 110
3, 402620, Note_off_c, 1, 52, 100
3, 402624, Note_on_c, 1, 50, 110
3, 402812, Note_off_c, 1, 50, 100
3, 402816, Note_on_c, 1, 49, 110
3, 403004, Note_off_c, 1, 49, 100
3, 403008, Note_on_c, 1, 46, 110
3, 403196, Note_off_c, 1, 46, 100
3, 403200, Note_on_c, 1, 45, 110
3, 403388, Note_off_c, 1, 45, 100
3, 403392, Note_on_c, 1, 43, 110
3, 403580, Note_off_c, 1, 43, 100
3, 403584, Note_on_c, 1, 42, 110
3, 403772, Note_off_c, 1, 42, 100
3, 403776, Note_on_c, 1, 40, 110
3, 403964, Note_off_c, 1, 40, 100
3, 403968, Note_on_c, 1, 38, 110
3, 404156, Note_off_c, 1, 38, 100
3, 404160, Note_on_c, 1, 37, 110
3, 404348, Note_off_c, 1, 37, 100
3, 404352, Note_on_c, 1, 38, 110
3, 404540, Note_off_c, 1, 38, 100
3, 404544, Note_on_c, 1, 49, 110
3, 404732, Note_off_c, 1, 49, 100
3, 404736, Note_on_c, 1, 50, 110
3, 404924, Note_off_c, 1, 50, 100
3, 404928, Note_on_c, 1, 49, 110
3, 405116, Note_off_c, 1, 49, 100
3, 405120, Note_on_c, 1, 50, 110
3, 405308, Note_off_c, 1, 50, 100
3, 405312, Note_on_c, 1, 49, 110
3, 405500, Note_off_c, 1, 49, 100
3, 405504, Note_on_c, 1, 50, 110
3, 406652, Note_off_c, 1, 50, 100
3, 406656, Note_on_c, 1, 55, 110
3, 407804, Note_off_c, 1, 55, 100
3, 407808, Note_on_c, 1, 57, 110
3, 407808, Note_on_c, 1, 54, 110
3, 408572, Note_off_c, 1, 57, 100
3, 408572, Note_off_c, 1, 54, 100
3, 408576, Note_on_c, 1, 58, 110
3, 408576, Note_on_c, 1, 55, 110
3, 408764, Note_off_c, 1, 58, 100
3, 408764, Note_off_c, 1, 55, 100
3, 408768, Note_on_c, 1, 60, 110
3, 408768, Note_on_c, 1, 57, 110
3, 408956, Note_off_c, 1, 60, 100
3, 408956, Note_off_c, 1, 57, 100
3, 408960, Note_on_c, 1, 58, 110
3, 408960, Note_on_c, 1, 55, 110
3, 409340, Note_off_c, 1, 58, 100
3, 409340, Note_off_c, 1, 55, 100
3, 410112, Note_on_c, 1, 45, 110
3, 410112, Note_on_c, 1, 33, 110
3, 411260, Note_off_c, 1, 45, 100
3, 411260, Note_off_c, 1, 33, 100
3, 411264, Note_on_c, 1, 50, 110
3, 411264, Note_on_c, 1, 38, 110
3, 412412, Note_off_c, 1, 50, 100
3, 412412, Note_off_c, 1, 38, 100
3, 412416, Note_on_c, 1, 52, 110
3, 412416, Note_on_c, 1, 49, 110
3, 413180, Note_off_c, 1, 52, 100
3, 413180, Note_off_c, 1, 49, 100
3, 413184, Note_on_c, 1, 53, 110
3, 413184, Note_on_c, 1, 50, 110
3, 413372, Note_off_c, 1, 53, 100
3, 413372, Note_off_c, 1, 50, 100
3, 413376, Note_on_c, 1, 55, 110
3, 413376, Note_on_c, 1, 52, 110
3, 413564, Note_off_c, 1, 55, 100
3, 413564, Note_off_c, 1, 52, 100
3, 413568, Note_on_c, 1, 53, 110
3, 413568, Note_on_c, 1, 50, 110
3, 413948, Note_off_c, 1, 53, 100
3, 413948, Note_off_c, 1, 50, 100
3, 414720, Note_on_c, 1, 57, 80
3, 414908, Note_off_c, 1, 57, 100
3, 414912, Note_on_c, 1, 55, 80
3, 415100, Note_off_c, 1, 55, 100
3, 415104, Note_on_c, 1, 53, 80
3, 415292, Note_off_c, 1, 53, 100
3, 415296, Note_on_c, 1, 52, 80
3, 415484, Note_off_c, 1, 52, 100
3, 415488, Note_on_c, 1, 50, 80
3, 415676, Note_off_c, 1, 50, 100
3, 415680, Note_on_c, 1, 49, 80
3, 415868, Note_off_c, 1, 49, 100
3, 415872, Note_on_c, 1, 50, 80
3, 416060, Note_off_c, 1, 50, 100
3, 416064, Note_on_c, 1, 53, 80
3, 416252, Note_off_c, 1, 53, 100
3, 416256, Note_on_c, 1, 57, 80
3, 416444, Note_off_c, 1, 57, 100
3, 416448, Note_on_c, 1, 62, 80
3, 416636, Note_off_c, 1, 62, 100
3, 416640, Note_on_c, 1, 65, 80
3, 416828, Note_off_c, 1, 65, 100
3, 416832, Note_on_c, 1, 62, 80
3, 417020, Note_off_c, 1, 62, 100
3, 417024, Note_on_c, 1, 64, 80
3, 417024, Note_on_c, 1, 61, 80
3, 417788, Note_off_c, 1, 64, 100
3, 417788, Note_off_c, 1, 61, 100
3, 417792, Note_on_c, 1, 65, 80
3, 417792, Note_on_c, 1, 62, 80
3, 417980, Note_off_c, 1, 65, 100
3, 417980, Note_off_c, 1, 62, 100
3, 417984, Note_on_c, 1, 67, 80
3, 417984, Note_on_c, 1, 64, 80
3, 418172, Note_off_c, 1, 67, 100
3, 418172, Note_off_c, 1, 64, 100
3, 418176, Note_on_c, 1, 62, 80
3, 418176, Note_on_c, 1, 65, 80
3, 418556, Note_off_c, 1, 62, 100
3, 418556, Note_off_c, 1, 65, 100
3, 419136, Note_on_c, 1, 63, 80
3, 419324, Note_off_c, 1, 63, 100
3, 419328, Note_on_c, 1, 64, 80
3, 419516, Note_off_c, 1, 64, 100
3, 419520, Note_on_c, 1, 62, 80
3, 419708, Note_off_c, 1, 62, 100
3, 419712, Note_on_c, 1, 60, 80
3, 419900, Note_off_c, 1, 60, 100
3, 419904, Note_on_c, 1, 59, 80
3, 420092, Note_off_c, 1, 59, 100
3, 420096, Note_on_c, 1, 57, 80
3, 420284, Note_off_c, 1, 57, 100
3, 420288, Note_on_c, 1, 56, 80
3, 420476, Note_off_c, 1, 56, 100
3, 420480, Note_on_c, 1, 57, 80
3, 420668, Note_off_c, 1, 57, 100
3, 420672, Note_on_c, 1, 60, 80
3, 420860, Note_off_c, 1, 60, 100
3, 420864, Note_on_c, 1, 64, 80
3, 421052, Note_off_c, 1, 64, 100
3, 421056, Note_on_c, 1, 69, 80
3, 421244, Note_off_c, 1, 69, 100
3, 421248, Note_on_c, 1, 72, 80
3, 421436, Note_off_c, 1, 72, 100
3, 421440, Note_on_c, 1, 69, 80
3, 421628, Note_off_c, 1, 69, 100
3, 421632, Note_on_c, 1, 68, 80
3, 421632, Note_on_c, 1, 71, 80
3, 422396, Note_off_c, 1, 68, 100
3, 422396, Note_off_c, 1, 71, 100
3, 422400, Note_on_c, 1, 72, 80
3, 422400, Note_on_c, 1, 69, 80
3, 422588, Note_off_c, 1, 72, 100
3, 422588, Note_off_c, 1, 69, 100
3, 422592, Note_on_c, 1, 74, 80
3, 422592, Note_on_c, 1, 71, 80
3, 422780, Note_off_c, 1, 74, 100
3, 422780, Note_off_c, 1, 71, 100
3, 422784, Note_on_c, 1, 72, 80
3, 422784, Note_on_c, 1, 69, 80
3, 423164, Note_off_c, 1, 72, 100
3, 423164, Note_off_c, 1, 69, 100
3, 423936, Note_on_c, 1, 64, 80
3, 424124, Note_off_c, 1, 64, 100
3, 424128, Note_on_c, 1, 62, 80
3, 424316, Note_off_c, 1, 62, 100
3, 424320, Note_on_c, 1, 60, 81
3, 424508, Note_off_c, 1, 60, 100
3, 424512, Note_on_c, 1, 59, 82
3, 424700, Note_off_c, 1, 59, 100
3, 424704, Note_on_c, 1, 57, 83
3, 424892, Note_off_c, 1, 57, 100
3, 424896, Note_on_c, 1, 56, 83
3, 425084, Note_off_c, 1, 56, 100
3, 425088, Note_on_c, 1, 57, 84
3, 425276, Note_off_c, 1, 57, 100
3, 425280, Note_on_c, 1, 56, 85
3, 425468, Note_off_c, 1, 56, 100
3, 425472, Note_on_c, 1, 57, 86
3, 425660, Note_off_c, 1, 57, 100
3, 425664, Note_on_c, 1, 59, 86
3, 425852, Note_off_c, 1, 59, 100
3, 425856, Note_on_c, 1, 60, 87
3, 426044, Note_off_c, 1, 60, 100
3, 426048, Note_on_c, 1, 57, 88
3, 426236, Note_off_c, 1, 57, 100
3, 426240, Note_on_c, 1, 54, 89
3, 426428, Note_off_c, 1, 54, 100
3, 426432, Note_on_c, 1, 60, 89
3, 426620, Note_off_c, 1, 60, 100
3, 426624, Note_on_c, 1, 59, 90
3, 426812, Note_off_c, 1, 59, 100
3, 426816, Note_on_c, 1, 57, 91
3, 427004, Note_off_c, 1, 57, 100
3, 427008, Note_on_c, 1, 55, 92
3, 427196, Note_off_c, 1, 55, 100
3, 427200, Note_on_c, 1, 54, 92
3, 427388, Note_off_c, 1, 54, 100
3, 427392, Note_on_c, 1, 55, 93
3, 427580, Note_off_c, 1, 55, 100
3, 427584, Note_on_c, 1, 59, 94
3, 427772, Note_off_c, 1, 59, 100
3, 427776, Note_on_c, 1, 57, 95
3, 427964, Note_off_c, 1, 57, 100
3, 427968, Note_on_c, 1, 55, 95
3, 428156, Note_off_c, 1, 55, 100
3, 428160, Note_on_c, 1, 54, 96
3, 428348, Note_off_c, 1, 54, 100
3, 428352, Note_on_c, 1, 52, 97
3, 428540, Note_off_c, 1, 52, 100
3, 428544, Note_on_c, 1, 51, 98
3, 428732, Note_off_c, 1, 51, 100
3, 428736, Note_on_c, 1, 54, 98
3, 428924, Note_off_c, 1, 54, 100
3, 428928, Note_on_c, 1, 52, 99
3, 429116, Note_off_c, 1, 52, 100
3, 429120, Note_on_c, 1, 51, 100
3, 429308, Note_off_c, 1, 51, 100
3, 429312, Note_on_c, 1, 49, 101
3, 429500, Note_off_c, 1, 49, 100
3, 429504, Note_on_c, 1, 47, 101
3, 429692, Note_off_c, 1, 47, 100
3, 429696, Note_on_c, 1, 52, 102
3, 429884, Note_off_c, 1, 52, 100
3, 429888, Note_on_c, 1, 51, 103
3, 430076, Note_off_c, 1, 51, 100
3, 430080, Note_on_c, 1, 52, 104
3, 430268, Note_off_c, 1, 52, 100
3, 430272, Note_on_c, 1, 54, 104
3, 430460, Note_off_c, 1, 54, 100
3, 430464, Note_on_c, 1, 55, 105
3, 430652, Note_off_c, 1, 55, 100
3, 430656, Note_on_c, 1, 52, 106
3, 430844, Note_off_c, 1, 52, 100
3, 430848, Note_on_c, 1, 49, 107
3, 431036, Note_off_c, 1, 49, 100
3, 431040, Note_on_c, 1, 55, 107
3, 431228, Note_off_c, 1, 55, 100
3, 431232, Note_on_c, 1, 54, 108
3, 431420, Note_off_c, 1, 54, 100
3, 431424, Note_on_c, 1, 52, 109
3, 431612, Note_off_c, 1, 52, 100
3, 431616, Note_on_c, 1, 50, 110
3, 431804, Note_off_c, 1, 50, 100
3, 431808, Note_on_c, 1, 49, 110
3, 431996, Note_off_c, 1, 49, 100
3, 432000, Note_on_c, 1, 50, 111
3, 432188, Note_off_c, 1, 50, 100
3, 432192, Note_on_c, 1, 54, 112
3, 432380, Note_off_c, 1, 54, 100
3, 432384, Note_on_c, 1, 52, 113
3, 432572, Note_off_c, 1, 52, 100
3, 432576, Note_on_c, 1, 50, 113
3, 432764, Note_off_c, 1, 50, 100
3, 432768, Note_on_c, 1, 49, 114
3, 432956, Note_off_c, 1, 49, 100
3, 432960, Note_on_c, 1, 47, 115
3, 433148, Note_off_c, 1, 47, 100
3, 433152, Note_on_c, 1, 46, 116
3, 433340, Note_off_c, 1, 46, 100
3, 433344, Note_on_c, 1, 49, 116
3, 433532, Note_off_c, 1, 49, 100
3, 433536, Note_on_c, 1, 47, 117
3, 433724, Note_off_c, 1, 47, 100
3, 433728, Note_on_c, 1, 46, 118
3, 433916, Note_off_c, 1, 46, 100
3, 433920, Note_on_c, 1, 44, 119
3, 434108, Note_off_c, 1, 44, 100
3, 434112, Note_on_c, 1, 42, 119
3, 434300, Note_off_c, 1, 42, 100
3, 434304, Note_on_c, 1, 47, 120
3, 434492, Note_off_c, 1, 47, 100
3, 434496, Note_on_c, 1, 50, 120
3, 434684, Note_off_c, 1, 50, 100
3, 434688, Note_on_c, 1, 47, 120
3, 434876, Note_off_c, 1, 47, 100
3, 434880, Note_on_c, 1, 50, 120
3, 435068, Note_off_c, 1, 50, 100
3, 435072, Note_on_c, 1, 47, 120
3, 435260, Note_off_c, 1, 47, 100
3, 435264, Note_on_c, 1, 50, 120
3, 435452, Note_off_c, 1, 50, 100
3, 435456, Note_on_c, 1, 43, 120
3, 435644, Note_off_c, 1, 43, 100
3, 435648, Note_on_c, 1, 47, 120
3, 435836, Note_off_c, 1, 47, 100
3, 435840, Note_on_c, 1, 43, 120
3, 436028, Note_off_c, 1, 43, 100
3, 436032, Note_on_c, 1, 47, 120
3, 436220, Note_off_c, 1, 47, 100
3, 436224, Note_on_c, 1, 43, 120
3, 436412, Note_off_c, 1, 43, 100
3, 436416, Note_on_c, 1, 47, 120
3, 436604, Note_off_c, 1, 47, 100
3, 436608, Note_on_c, 1, 43, 120
3, 436796, Note_off_c, 1, 43, 100
3, 436800, Note_on_c, 1, 47, 120
3, 436988, Note_off_c, 1, 47, 100
3, 436992, Note_on_c, 1, 43, 120
3, 437180, Note_off_c, 1, 43, 100
3, 437184, Note_on_c, 1, 47, 120
3, 437372, Note_off_c, 1, 47, 100
3, 437376, Note_on_c, 1, 43, 120
3, 437564, Note_off_c, 1, 43, 100
3, 437568, Note_on_c, 1, 47, 120
3, 437756, Note_off_c, 1, 47, 100
3, 437760, Note_on_c, 1, 49, 120
3, 437760, Note_on_c, 1, 42, 120
3, 438524, Note_off_c, 1, 49, 100
3, 438528, Note_on_c, 1, 47, 110
3, 438716, Note_off_c, 1, 47, 100
3, 438720, Note_on_c, 1, 46, 110
3, 438908, Note_off_c, 1, 42, 100
3, 438908, Note_off_c, 1, 46, 100
3, 438912, Note_on_c, 1, 50, 110
3, 438912, Note_on_c, 1, 42, 110
3, 439676, Note_off_c, 1, 50, 100
3, 439680, Note_on_c, 1, 49, 109
3, 439868, Note_off_c, 1, 49, 100
3, 439872, Note_on_c, 1, 47, 109
3, 440060, Note_off_c, 1, 42, 100
3, 440060, Note_off_c, 1, 47, 100
3, 440064, Note_on_c, 1, 52, 108
3, 440064, Note_on_c, 1, 42, 108
3, 440828, Note_off_c, 1, 52, 100
3, 440832, Note_on_c, 1, 50, 107
3, 441020, Note_off_c, 1, 50, 100
3, 441024, Note_on_c, 1, 49, 107
3, 441212, Note_off_c, 1, 42, 100
3, 441212, Note_off_c, 1, 49, 100
3, 441216, Note_on_c, 1, 50, 107
3, 441216, Note_on_c, 1, 42, 107
3, 441980, Note_off_c, 1, 50, 100
3, 441984, Note_on_c, 1, 49, 106
3, 442172, Note_off_c, 1, 49, 100
3, 442176, Note_on_c, 1, 47, 106
3, 442364, Note_off_c, 1, 42, 100
3, 442364, Note_off_c, 1, 47, 100
3, 442368, Note_on_c, 1, 49, 106
3, 442368, Note_on_c, 1, 42, 106
3, 443132, Note_off_c, 1, 49, 100
3, 443136, Note_on_c, 1, 47, 105
3, 443324, Note_off_c, 1, 47, 100
3, 443328, Note_on_c, 1, 46, 105
3, 443516, Note_off_c, 1, 42, 100
3, 443516, Note_off_c, 1, 46, 100
3, 443520, Note_on_c, 1, 50, 104
3, 443520, Note_on_c, 1, 42, 104
3, 444284, Note_off_c, 1, 50, 100
3, 444288, Note_on_c, 1, 49, 103
3, 444476, Note_off_c, 1, 49, 100
3, 444480, Note_on_c, 1, 47, 103
3, 444668, Note_off_c, 1, 42, 100
3, 444668, Note_off_c, 1, 47, 100
3, 444672, Note_on_c, 1, 52, 103
3, 444672, Note_on_c, 1, 42, 103
3, 445436, Note_off_c, 1, 52, 100
3, 445440, Note_on_c, 1, 50, 102
3, 445628, Note_off_c, 1, 50, 100
3, 445632, Note_on_c, 1, 49, 102
3, 445820, Note_off_c, 1, 42, 100
3, 445820, Note_off_c, 1, 49, 100
3, 445824, Note_on_c, 1, 50, 102
3, 445824, Note_on_c, 1, 42, 102
3, 446588, Note_off_c, 1, 50, 100
3, 446592, Note_on_c, 1, 49, 101
3, 446780, Note_off_c, 1, 49, 100
3, 446784, Note_on_c, 1, 47, 101
3, 446972, Note_off_c, 1, 42, 100
3, 446972, Note_off_c, 1, 47, 100
3, 446976, Note_on_c, 1, 49, 80
3, 446976, Note_on_c, 1, 42, 80
3, 447740, Note_off_c, 1, 49, 100
3, 447744, Note_on_c, 1, 47, 80
3, 447932, Note_off_c, 1, 47, 100
3, 447936, Note_on_c, 1, 46, 80
3, 448124, Note_off_c, 1, 42, 100
3, 448124, Note_off_c, 1, 46, 100
3, 448128, Note_on_c, 1, 46, 80
3, 448128, Note_on_c, 1, 37, 80
3, 448892, Note_off_c, 1, 46, 100
3, 448896, Note_on_c, 1, 44, 80
3, 449084, Note_off_c, 1, 44, 100
3, 449088, Note_on_c, 1, 42, 80
3, 449276, Note_off_c, 1, 37, 100
3, 449276, Note_off_c, 1, 42, 100
3, 449280, Note_on_c, 1, 42, 80
3, 449280, Note_on_c, 1, 37, 80
3, 450044, Note_off_c, 1, 37, 100
3, 450048, Note_on_c, 1, 35, 80
3, 450236, Note_off_c, 1, 35, 100
3, 450240, Note_on_c, 1, 34, 80
3, 450428, Note_off_c, 1, 42, 100
3, 450428, Note_off_c, 1, 34, 100
3, 450432, Note_on_c, 1, 42, 80
3, 450432, Note_on_c, 1, 34, 80
3, 451196, Note_off_c, 1, 34, 100
3, 451200, Note_on_c, 1, 32, 80
3, 451388, Note_off_c, 1, 32, 100
3, 451392, Note_on_c, 1, 30, 80
3, 451580, Note_off_c, 1, 42, 100
3, 451580, Note_off_c, 1, 30, 100
3, 451584, Note_on_c, 1, 42, 80
3, 451584, Note_on_c, 1, 30, 80
3, 452348, Note_off_c, 1, 30, 100
3, 452352, Note_on_c, 1, 32, 80
3, 452540, Note_off_c, 1, 32, 100
3, 452544, Note_on_c, 1, 34, 80
3, 452732, Note_off_c, 1, 42, 100
3, 452732, Note_off_c, 1, 34, 100
3, 452736, Note_on_c, 1, 42, 80
3, 452736, Note_on_c, 1, 34, 80
3, 453500, Note_off_c, 1, 34, 100
3, 453504, Note_on_c, 1, 35, 80
3, 453692, Note_off_c, 1, 35, 100
3, 453696, Note_on_c, 1, 37, 80
3, 453884, Note_off_c, 1, 42, 100
3, 453884, Note_off_c, 1, 37, 100
3, 453888, Note_on_c, 1, 42, 80
3, 453888, Note_on_c, 1, 37, 80
3, 454652, Note_off_c, 1, 37, 100
3, 454656, Note_on_c, 1, 35, 80
3, 454844, Note_off_c, 1, 35, 100
3, 454848, Note_on_c, 1, 34, 80
3, 455036, Note_off_c, 1, 42, 100
3, 455036, Note_off_c, 1, 34, 100
3, 455040, Note_on_c, 1, 42, 80
3, 455040, Note_on_c, 1, 34, 80
3, 455804, Note_off_c, 1, 34, 100
3, 455808, Note_on_c, 1, 32, 80
3, 455996, Note_off_c, 1, 32, 100
3, 456000, Note_on_c, 1, 30, 80
3, 456188, Note_off_c, 1, 42, 100
3, 456188, Note_off_c, 1, 30, 100
3, 456192, Note_on_c, 1, 42, 80
3, 456192, Note_on_c, 1, 30, 80
3, 456956, Note_off_c, 1, 30, 100
3, 456960, Note_on_c, 1, 32, 80
3, 457148, Note_off_c, 1, 32, 100
3, 457152, Note_on_c, 1, 34, 80
3, 457340, Note_off_c, 1, 42, 100
3, 457340, Note_off_c, 1, 34, 100
3, 457344, Note_on_c, 1, 42, 80
3, 457344, Note_on_c, 1, 34, 80
3, 458108, Note_off_c, 1, 34, 100
3, 458112, Note_on_c, 1, 35, 80
3, 458300, Note_off_c, 1, 35, 100
3, 458304, Note_on_c, 1, 37, 80
3, 458492, Note_off_c, 1, 42, 100
3, 458492, Note_off_c, 1, 37, 100
3, 458496, Note_on_c, 1, 42, 80
3, 458496, Note_on_c, 1, 37, 80
3, 459260, Note_off_c, 1, 37, 100
3, 459264, Note_on_c, 1, 35, 80
3, 459452, Note_off_c, 1, 35, 100
3, 459456, Note_on_c, 1, 34, 80
3, 459644, Note_off_c, 1, 42, 100
3, 459644, Note_off_c, 1, 34, 100
3, 459648, Note_on_c, 1, 42, 80
3, 459648, Note_on_c, 1, 34, 80
3, 460412, Note_off_c, 1, 34, 100
3, 460416, Note_on_c, 1, 32, 80
3, 460604, Note_off_c, 1, 32, 100
3, 460608, Note_on_c, 1, 30, 80
3, 460796, Note_off_c, 1, 42, 100
3, 460796, Note_off_c, 1, 30, 100
3, 460800, Note_on_c, 1, 30, 80
3, 461564, Note_off_c, 1, 30, 100
3, 461568, Note_on_c, 1, 42, 80
3, 461948, Note_off_c, 1, 42, 100
3, 461952, Note_on_c, 1, 30, 80
3, 462716, Note_off_c, 1, 30, 100
3, 462720, Note_on_c, 1, 42, 80
3, 463100, Note_off_c, 1, 42, 100
3, 463104, Note_on_c, 1, 30, 80
3, 463868, Note_off_c, 1, 30, 100
3, 463872, Note_on_c, 1, 42, 80
3, 464252, Note_off_c, 1, 42, 100
3, 464256, Note_on_c, 1, 30, 80
3, 465020, Note_off_c, 1, 30, 100
3, 465024, Note_on_c, 1, 42, 80
3, 465404, Note_off_c, 1, 42, 100
3, 465408, Note_on_c, 1, 30, 80
3, 466172, Note_off_c, 1, 30, 100
3, 466176, Note_on_c, 1, 42, 80
3, 466556, Note_off_c, 1, 42, 100
3, 466560, Note_on_c, 1, 30, 80
3, 467324, Note_off_c, 1, 30, 100
3, 467328, Note_on_c, 1, 42, 80
3, 467708, Note_off_c, 1, 42, 100
3, 467712, Note_on_c, 1, 30, 80
3, 468476, Note_off_c, 1, 30, 100
3, 468480, Note_on_c, 1, 42, 80
3, 468860, Note_off_c, 1, 42, 100
3, 468864, Note_on_c, 1, 30, 80
3, 469628, Note_off_c, 1, 30, 100
3, 469632, Note_on_c, 1, 42, 80
3, 470012, Note_off_c, 1, 42, 100
3, 470016, Note_on_c, 1, 30, 80
3, 470780, Note_off_c, 1, 30, 100
3, 470784, Note_on_c, 1, 42, 81
3, 471164, Note_off_c, 1, 42, 100
3, 471168, Note_on_c, 1, 41, 82
3, 471932, Note_off_c, 1, 41, 100
3, 471936, Note_on_c, 1, 42, 85
3, 472316, Note_off_c, 1, 42, 100
3, 472320, Note_on_c, 1, 37, 87
3, 473084, Note_off_c, 1, 37, 100
3, 473088, Note_on_c, 1, 42, 89
3, 473468, Note_off_c, 1, 42, 100
3, 473472, Note_on_c, 1, 34, 91
3, 474236, Note_off_c, 1, 34, 100
3, 474240, Note_on_c, 1, 42, 94
3, 474624, Note_on_c, 1, 30, 80
3, 475772, Note_off_c, 1, 42, 100
3, 476540, Note_off_c, 1, 30, 100
3, 476544, Note_on_c, 1, 42, 80
3, 476928, Note_on_c, 1, 30, 80
3, 478076, Note_off_c, 1, 42, 100
3, 478844, Note_off_c, 1, 30, 100
3, 478848, Note_on_c, 1, 42, 80
3, 479232, Note_on_c, 1, 30, 80
3, 482300, Note_off_c, 1, 30, 100
3, 482300, Note_off_c, 1, 42, 100
3, 482688, Note_on_c, 1, 54, 80
3, 482688, Note_on_c, 1, 51, 80
3, 482688, Note_on_c, 1, 47, 80
3, 483068, Note_off_c, 1, 54, 100
3, 483068, Note_off_c, 1, 51, 100
3, 483068, Note_off_c, 1, 47, 100
3, 483072, Note_on_c, 1, 54, 80
3, 483072, Note_on_c, 1, 51, 80
3, 483072, Note_on_c, 1, 47, 80
3, 483452, Note_off_c, 1, 54, 100
3, 483452, Note_off_c, 1, 51, 100
3, 483452, Note_off_c, 1, 47, 100
3, 483840, Note_on_c, 1, 59, 80
3, 483840, Note_on_c, 1, 54, 80
3, 483840, Note_on_c, 1, 51, 80
3, 484220, Note_off_c, 1, 59, 100
3, 484220, Note_off_c, 1, 54, 100
3, 484220, Note_off_c, 1, 51, 100
3, 484224, Note_on_c, 1, 59, 80
3, 484224, Note_on_c, 1, 54, 80
3, 484224, Note_on_c, 1, 51, 80
3, 484604, Note_off_c, 1, 59, 100
3, 484604, Note_off_c, 1, 54, 100
3, 484604, Note_off_c, 1, 51, 100
3, 484992, Note_on_c, 1, 61, 80
3, 484992, Note_on_c, 1, 54, 80
3, 485372, Note_off_c, 1, 61, 100
3, 485372, Note_off_c, 1, 54, 100
3, 485376, Note_on_c, 1, 61, 80
3, 485376, Note_on_c, 1, 54, 80
3, 485756, Note_off_c, 1, 61, 100
3, 485756, Note_off_c, 1, 54, 100
3, 486144, Note_on_c, 1, 63, 80
3, 486144, Note_on_c, 1, 59, 80
3, 486524, Note_off_c, 1, 63, 100
3, 486524, Note_off_c, 1, 59, 100
3, 488448, Note_on_c, 1, 54, 80
3, 488448, Note_on_c, 1, 50, 80
3, 488448, Note_on_c, 1, 47, 80
3, 488828, Note_off_c, 1, 54, 100
3, 488828, Note_off_c, 1, 50, 100
3, 488828, Note_off_c, 1, 47, 100
3, 488832, Note_on_c, 1, 54, 80
3, 488832, Note_on_c, 1, 50, 80
3, 488832, Note_on_c, 1, 47, 80
3, 489212, Note_off_c, 1, 54, 100
3, 489212, Note_off_c, 1, 50, 100
3, 489212, Note_off_c, 1, 47, 100
3, 489600, Note_on_c, 1, 59, 80
3, 489600, Note_on_c, 1, 54, 80
3, 489600, Note_on_c, 1, 50, 80
3, 489980, Note_off_c, 1, 59, 100
3, 489980, Note_off_c, 1, 54, 100
3, 489980, Note_off_c, 1, 50, 100
3, 489984, Note_on_c, 1, 59, 80
3, 489984, Note_on_c, 1, 54, 80
3, 489984, Note_on_c, 1, 50, 80
3, 490364, Note_off_c, 1, 59, 100
3, 490364, Note_off_c, 1, 54, 100
3, 490364, Note_off_c, 1, 50, 100
3, 490752, Note_on_c, 1, 61, 80
3, 490752, Note_on_c, 1, 54, 80
3, 491132, Note_off_c, 1, 61, 100
3, 491132, Note_off_c, 1, 54, 100
3, 491136, Note_on_c, 1, 61, 80
3, 491136, Note_on_c, 1, 54, 80
3, 491516, Note_off_c, 1, 61, 100
3, 491516, Note_off_c, 1, 54, 100
3, 491904, Note_on_c, 1, 62, 80
3, 491904, Note_on_c, 1, 59, 80
3, 492284, Note_off_c, 1, 62, 100
3, 492284, Note_off_c, 1, 59, 100
3, 494208, Note_on_c, 1, 67, 80
3, 494208, Note_on_c, 1, 64, 80
3, 494208, Note_on_c, 1, 57, 80
3, 496508, Note_off_c, 1, 57, 100
3, 496508, Note_off_c, 1, 64, 100
3, 496508, Note_off_c, 1, 67, 100
3, 496512, Note_on_c, 1, 38, 80
3, 496892, Note_off_c, 1, 38, 100
3, 496896, Note_on_c, 1, 38, 80
3, 497276, Note_off_c, 1, 38, 100
3, 497280, Note_on_c, 1, 38, 80
3, 497660, Note_off_c, 1, 38, 100
3, 497664, Note_on_c, 1, 38, 80
3, 498044, Note_off_c, 1, 38, 100
3, 498048, Note_on_c, 1, 38, 80
3, 498428, Note_off_c, 1, 38, 100
3, 498432, Note_on_c, 1, 38, 80
3, 498812, Note_off_c, 1, 38, 100
3, 498816, Note_on_c, 1, 38, 80
3, 499196, Note_off_c, 1, 38, 100
3, 499200, Note_on_c, 1, 38, 80
3, 499580, Note_off_c, 1, 38, 100
3, 499584, Note_on_c, 1, 38, 80
3, 499964, Note_off_c, 1, 38, 100
3, 499968, Note_on_c, 1, 38, 80
3, 500348, Note_off_c, 1, 38, 100
3, 500352, Note_on_c, 1, 38, 80
3, 500732, Note_off_c, 1, 38, 100
3, 500736, Note_on_c, 1, 38, 80
3, 501116, Note_off_c, 1, 38, 100
3, 501120, Note_on_c, 1, 38, 80
3, 501120, Note_on_c, 1, 52, 80
3, 501500, Note_off_c, 1, 38, 100
3, 501504, Note_on_c, 1, 38, 80
3, 501884, Note_off_c, 1, 38, 100
3, 501888, Note_on_c, 1, 38, 80
3, 502268, Note_off_c, 1, 52, 100
3, 502268, Note_off_c, 1, 38, 100
3, 502272, Note_on_c, 1, 38, 80
3, 502272, Note_on_c, 1, 49, 80
3, 502652, Note_off_c, 1, 38, 100
3, 502656, Note_on_c, 1, 38, 80
3, 503036, Note_off_c, 1, 38, 100
3, 503040, Note_on_c, 1, 38, 80
3, 503420, Note_off_c, 1, 49, 100
3, 503420, Note_off_c, 1, 38, 100
3, 503424, Note_on_c, 1, 38, 80
3, 503424, Note_on_c, 1, 50, 80
3, 503804, Note_off_c, 1, 38, 100
3, 503808, Note_on_c, 1, 38, 80
3, 504188, Note_off_c, 1, 38, 100
3, 504192, Note_on_c, 1, 38, 80
3, 504572, Note_off_c, 1, 50, 100
3, 504572, Note_off_c, 1, 38, 100
3, 504576, Note_on_c, 1, 38, 80
3, 504576, Note_on_c, 1, 42, 80
3, 504956, Note_off_c, 1, 38, 100
3, 504960, Note_on_c, 1, 38, 80
3, 505340, Note_off_c, 1, 38, 100
3, 505344, Note_on_c, 1, 38, 80
3, 505724, Note_off_c, 1, 42, 100
3, 505724, Note_off_c, 1, 38, 100
3, 505728, Note_on_c, 1, 38, 80
3, 505728, Note_on_c, 1, 45, 80
3, 506108, Note_off_c, 1, 38, 100
3, 506112, Note_on_c, 1, 38, 80
3, 506492, Note_off_c, 1, 38, 100
3, 506496, Note_on_c, 1, 38, 80
3, 506876, Note_off_c, 1, 45, 100
3, 506876, Note_off_c, 1, 38, 100
3, 506880, Note_on_c, 1, 50, 80
3, 506880, Note_on_c, 1, 38, 80
3, 507260, Note_off_c, 1, 50, 100
3, 507260, Note_off_c, 1, 38, 100
3, 507264, Note_on_c, 1, 50, 80
3, 507644, Note_off_c, 1, 50, 100
3, 507648, Note_on_c, 1, 50, 80
3, 508028, Note_off_c, 1, 50, 100
3, 508032, Note_on_c, 1, 50, 80
3, 508032, Note_on_c, 1, 62, 80
3, 508412, Note_off_c, 1, 50, 100
3, 508416, Note_on_c, 1, 50, 80
3, 508796, Note_off_c, 1, 50, 100
3, 508800, Note_on_c, 1, 50, 80
3, 509180, Note_off_c, 1, 62, 100
3, 509180, Note_off_c, 1, 50, 100
3, 509184, Note_on_c, 1, 50, 80
3, 509184, Note_on_c, 1, 54, 80
3, 509564, Note_off_c, 1, 50, 100
3, 509568, Note_on_c, 1, 50, 80
3, 509948, Note_off_c, 1, 50, 100
3, 509952, Note_on_c, 1, 50, 80
3, 510332, Note_off_c, 1, 54, 100
3, 510332, Note_off_c, 1, 50, 100
3, 510336, Note_on_c, 1, 55, 80
3, 510336, Note_on_c, 1, 50, 80
3, 510716, Note_off_c, 1, 50, 100
3, 510720, Note_on_c, 1, 50, 80
3, 511100, Note_off_c, 1, 50, 100
3, 511104, Note_on_c, 1, 50, 80
3, 511484, Note_off_c, 1, 55, 100
3, 511484, Note_off_c, 1, 50, 100
3, 511488, Note_on_c, 1, 59, 80
3, 511488, Note_on_c, 1, 50, 80
3, 511868, Note_off_c, 1, 50, 100
3, 511872, Note_on_c, 1, 50, 80
3, 512252, Note_off_c, 1, 50, 100
3, 512256, Note_on_c, 1, 50, 80
3, 512636, Note_off_c, 1, 59, 100
3, 512636, Note_off_c, 1, 50, 100
3, 512640, Note_on_c, 1, 64, 80
3, 512640, Note_on_c, 1, 50, 80
3, 513020, Note_off_c, 1, 50, 100
3, 513024, Note_on_c, 1, 50, 80
3, 513404, Note_off_c, 1, 50, 100
3, 513408, Note_on_c, 1, 50, 80
3, 513788, Note_off_c, 1, 64, 100
3, 513788, Note_off_c, 1, 50, 100
3, 513792, Note_on_c, 1, 50, 80
3, 513792, Note_on_c, 1, 61, 80
3, 514172, Note_off_c, 1, 50, 100
3, 514176, Note_on_c, 1, 50, 80
3, 514556, Note_off_c, 1, 50, 100
3, 514560, Note_on_c, 1, 50, 80
3, 514940, Note_off_c, 1, 61, 100
3, 514940, Note_off_c, 1, 50, 100
3, 514944, Note_on_c, 1, 50, 80
3, 514944, Note_on_c, 1, 62, 80
3, 515324, Note_off_c, 1, 50, 100
3, 515328, Note_on_c, 1, 50, 80
3, 515708, Note_off_c, 1, 50, 100
3, 515712, Note_on_c, 1, 50, 80
3, 516092, Note_off_c, 1, 62, 100
3, 516092, Note_off_c, 1, 50, 100
3, 516096, Note_on_c, 1, 50, 80
3, 516096, Note_on_c, 1, 54, 80
3, 516476, Note_off_c, 1, 50, 100
3, 516480, Note_on_c, 1, 50, 80
3, 516860, Note_off_c, 1, 50, 100
3, 516864, Note_on_c, 1, 50, 80
3, 517244, Note_off_c, 1, 54, 100
3, 517244, Note_off_c, 1, 50, 100
3, 517248, Note_on_c, 1, 50, 80
3, 517248, Note_on_c, 1, 57, 80
3, 517628, Note_off_c, 1, 50, 100
3, 517632, Note_on_c, 1, 50, 80
3, 518012, Note_off_c, 1, 50, 100
3, 518016, Note_on_c, 1, 50, 80
3, 518396, Note_off_c, 1, 57, 100
3, 518396, Note_off_c, 1, 50, 100
3, 518400, Note_on_c, 1, 50, 80
3, 518400, Note_on_c, 1, 62, 80
3, 518780, Note_off_c, 1, 50, 100
3, 518780, Note_off_c, 1, 62, 100
3, 518784, Note_on_c, 1, 50, 80
3, 519164, Note_off_c, 1, 50, 100
3, 519168, Note_on_c, 1, 50, 80
3, 519548, Note_off_c, 1, 50, 100
3, 519552, Note_on_c, 1, 50, 80
3, 519552, Note_on_c, 1, 42, 80
3, 519932, Note_off_c, 1, 50, 100
3, 519936, Note_on_c, 1, 50, 80
3, 520316, Note_off_c, 1, 50, 100
3, 520320, Note_on_c, 1, 50, 80
3, 520700, Note_off_c, 1, 50, 100
3, 520704, Note_on_c, 1, 50, 80
3, 521084, Note_off_c, 1, 42, 100
3, 521084, Note_off_c, 1, 50, 100
3, 521088, Note_on_c, 1, 50, 80
3, 521088, Note_on_c, 1, 43, 80
3, 521468, Note_off_c, 1, 50, 100
3, 521468, Note_off_c, 1, 43, 100
3, 521472, Note_on_c, 1, 50, 80
3, 521472, Note_on_c, 1, 45, 80
3, 521852, Note_off_c, 1, 50, 100
3, 521852, Note_off_c, 1, 45, 100
3, 521856, Note_on_c, 1, 50, 80
3, 521856, Note_on_c, 1, 47, 80
3, 522236, Note_off_c, 1, 50, 100
3, 522240, Note_on_c, 1, 50, 80
3, 522620, Note_off_c, 1, 50, 100
3, 522624, Note_on_c, 1, 50, 80
3, 523004, Note_off_c, 1, 50, 100
3, 523008, Note_on_c, 1, 50, 80
3, 523388, Note_off_c, 1, 50, 100
3, 523392, Note_on_c, 1, 50, 80
3, 523772, Note_off_c, 1, 47, 100
3, 523772, Note_off_c, 1, 50, 100
3, 523776, Note_on_c, 1, 50, 80
3, 523776, Note_on_c, 1, 45, 80
3, 524156, Note_off_c, 1, 50, 100
3, 524156, Note_off_c, 1, 45, 100
3, 524160, Note_on_c, 1, 50, 80
3, 524160, Note_on_c, 1, 43, 80
3, 524540, Note_off_c, 1, 50, 100
3, 524544, Note_on_c, 1, 50, 80
3, 524924, Note_off_c, 1, 43, 100
3, 524924, Note_off_c, 1, 50, 100
3, 524928, Note_on_c, 1, 52, 80
3, 524928, Note_on_c, 1, 44, 80
3, 525308, Note_off_c, 1, 52, 100
3, 525308, Note_off_c, 1, 44, 100
3, 525312, Note_on_c, 1, 52, 80
3, 525312, Note_on_c, 1, 45, 80
3, 525692, Note_off_c, 1, 52, 100
3, 525696, Note_on_c, 1, 52, 80
3, 526076, Note_off_c, 1, 45, 100
3, 526076, Note_off_c, 1, 52, 100
3, 526080, Note_on_c, 1, 55, 80
3, 526080, Note_on_c, 1, 45, 80
3, 526460, Note_off_c, 1, 55, 100
3, 526460, Note_off_c, 1, 45, 100
3, 526464, Note_on_c, 1, 54, 80
3, 526464, Note_on_c, 1, 50, 80
3, 526844, Note_off_c, 1, 54, 100
3, 526844, Note_off_c, 1, 50, 100
3, 526848, Note_on_c, 1, 50, 80
3, 527228, Note_off_c, 1, 50, 100
3, 527232, Note_on_c, 1, 50, 80
3, 527612, Note_off_c, 1, 50, 100
3, 527616, Note_on_c, 1, 50, 80
3, 527996, Note_off_c, 1, 50, 100
3, 528000, Note_on_c, 1, 50, 80
3, 528380, Note_off_c, 1, 50, 100
3, 528384, Note_on_c, 1, 50, 80
3, 528764, Note_off_c, 1, 50, 100
3, 528768, Note_on_c, 1, 50, 80
3, 528768, Note_on_c, 1, 42, 80
3, 529148, Note_off_c, 1, 50, 100
3, 529152, Note_on_c, 1, 50, 80
3, 529532, Note_off_c, 1, 50, 100
3, 529536, Note_on_c, 1, 50, 80
3, 529916, Note_off_c, 1, 50, 100
3, 529920, Note_on_c, 1, 50, 80
3, 530300, Note_off_c, 1, 42, 100
3, 530300, Note_off_c, 1, 50, 100
3, 530304, Note_on_c, 1, 50, 80
3, 530304, Note_on_c, 1, 43, 80
3, 530684, Note_off_c, 1, 50, 100
3, 530684, Note_off_c, 1, 43, 100
3, 530688, Note_on_c, 1, 50, 80
3, 530688, Note_on_c, 1, 45, 80
3, 531068, Note_off_c, 1, 50, 100
3, 531068, Note_off_c, 1, 45, 100
3, 531072, Note_on_c, 1, 47, 80
3, 531072, Note_on_c, 1, 50, 80
3, 531452, Note_off_c, 1, 47, 64
3, 531452, Note_off_c, 1, 50, 100
3, 531456, Note_on_c, 1, 50, 80
3, 531836, Note_off_c, 1, 50, 100
3, 531840, Note_on_c, 1, 50, 80
3, 532220, Note_off_c, 1, 50, 100
3, 532224, Note_on_c, 1, 50, 80
3, 532604, Note_off_c, 1, 50, 100
3, 532608, Note_on_c, 1, 50, 80
3, 532988, Note_off_c, 1, 50, 100
3, 532992, Note_on_c, 1, 50, 80
3, 532992, Note_on_c, 1, 45, 80
3, 533372, Note_off_c, 1, 50, 100
3, 533372, Note_off_c, 1, 45, 100
3, 533376, Note_on_c, 1, 50, 80
3, 533376, Note_on_c, 1, 43, 80
3, 533756, Note_off_c, 1, 50, 100
3, 533760, Note_on_c, 1, 50, 80
3, 534140, Note_off_c, 1, 43, 100
3, 534140, Note_off_c, 1, 50, 100
3, 534144, Note_on_c, 1, 52, 80
3, 534144, Note_on_c, 1, 44, 80
3, 534524, Note_off_c, 1, 52, 100
3, 534524, Note_off_c, 1, 44, 100
3, 534528, Note_on_c, 1, 52, 80
3, 534528, Note_on_c, 1, 45, 80
3, 534908, Note_off_c, 1, 52, 100
3, 534912, Note_on_c, 1, 52, 80
3, 535292, Note_off_c, 1, 45, 100
3, 535292, Note_off_c, 1, 52, 100
3, 535296, Note_on_c, 1, 55, 80
3, 535296, Note_on_c, 1, 45, 80
3, 535676, Note_off_c, 1, 55, 100
3, 535676, Note_off_c, 1, 45, 100
3, 535680, Note_on_c, 1, 54, 80
3, 535680, Note_on_c, 1, 50, 80
3, 536060, Note_off_c, 1, 54, 100
3, 536060, Note_off_c, 1, 50, 100
3, 536064, Note_on_c, 1, 50, 80
3, 536444, Note_off_c, 1, 50, 100
3, 536448, Note_on_c, 1, 50, 80
3, 536828, Note_off_c, 1, 50, 100
3, 536832, Note_on_c, 1, 50, 80
3, 537212, Note_off_c, 1, 50, 100
3, 537216, Note_on_c, 1, 50, 80
3, 537596, Note_off_c, 1, 50, 100
3, 537600, Note_on_c, 1, 50, 80
3, 537600, Note_on_c, 1, 42, 80
3, 537980, Note_off_c, 1, 50, 100
3, 537980, Note_off_c, 1, 42, 100
3, 537984, Note_on_c, 1, 50, 80
3, 537984, Note_on_c, 1, 43, 80
3, 538364, Note_off_c, 1, 50, 100
3, 538368, Note_on_c, 1, 50, 80
3, 538748, Note_off_c, 1, 43, 100
3, 538748, Note_off_c, 1, 50, 100
3, 538752, Note_on_c, 1, 52, 80
3, 538752, Note_on_c, 1, 44, 80
3, 539132, Note_off_c, 1, 52, 100
3, 539132, Note_off_c, 1, 44, 100
3, 539136, Note_on_c, 1, 52, 80
3, 539136, Note_on_c, 1, 45, 80
3, 539516, Note_off_c, 1, 52, 100
3, 539520, Note_on_c, 1, 52, 80
3, 539900, Note_off_c, 1, 45, 100
3, 539900, Note_off_c, 1, 52, 100
3, 539904, Note_on_c, 1, 55, 80
3, 539904, Note_on_c, 1, 45, 80
3, 540284, Note_off_c, 1, 55, 100
3, 540284, Note_off_c, 1, 45, 100
3, 540288, Note_on_c, 1, 54, 80
3, 540288, Note_on_c, 1, 50, 80
3, 540668, Note_off_c, 1, 54, 100
3, 540668, Note_off_c, 1, 50, 100
3, 540672, Note_on_c, 1, 50, 80
3, 541052, Note_off_c, 1, 50, 100
3, 541056, Note_on_c, 1, 50, 80
3, 541436, Note_off_c, 1, 50, 100
3, 541440, Note_on_c, 1, 50, 80
3, 541820, Note_off_c, 1, 50, 100
3, 541824, Note_on_c, 1, 50, 80
3, 542204, Note_off_c, 1, 50, 100
3, 542208, Note_on_c, 1, 50, 80
3, 542208, Note_on_c, 1, 42, 80
3, 542588, Note_off_c, 1, 50, 100
3, 542588, Note_off_c, 1, 42, 100
3, 542592, Note_on_c, 1, 50, 80
3, 542592, Note_on_c, 1, 43, 80
3, 542972, Note_off_c, 1, 50, 100
3, 542976, Note_on_c, 1, 50, 80
3, 543356, Note_off_c, 1, 43, 100
3, 543356, Note_off_c, 1, 50, 100
3, 543360, Note_on_c, 1, 52, 80
3, 543360, Note_on_c, 1, 44, 80
3, 543740, Note_off_c, 1, 52, 100
3, 543740, Note_off_c, 1, 44, 100
3, 543744, Note_on_c, 1, 52, 80
3, 543744, Note_on_c, 1, 45, 80
3, 544124, Note_off_c, 1, 52, 100
3, 544128, Note_on_c, 1, 52, 80
3, 544508, Note_off_c, 1, 45, 100
3, 544508, Note_off_c, 1, 52, 100
3, 544512, Note_on_c, 1, 55, 80
3, 544512, Note_on_c, 1, 45, 80
3, 544892, Note_off_c, 1, 55, 100
3, 544892, Note_off_c, 1, 45, 100
3, 544896, Note_on_c, 1, 54, 80
3, 544896, Note_on_c, 1, 50, 80
3, 545276, Note_off_c, 1, 54, 100
3, 545276, Note_off_c, 1, 50, 100
3, 546048, Note_on_c, 1, 50, 80
3, 546048, Note_on_c, 1, 57, 80
3, 547196, Note_off_c, 1, 50, 100
3, 547200, Note_on_c, 1, 49, 80
3, 548348, Note_off_c, 1, 57, 100
3, 548348, Note_off_c, 1, 49, 100
3, 548352, Note_on_c, 1, 47, 80
3, 548352, Note_on_c, 1, 52, 80
3, 549500, Note_off_c, 1, 47, 100
3, 549504, Note_on_c, 1, 45, 80
3, 549884, Note_off_c, 1, 52, 100
3, 549884, Note_off_c, 1, 45, 100
3, 550656, Note_on_c, 1, 62, 80
3, 550656, Note_on_c, 1, 55, 80
3, 551804, Note_off_c, 1, 55, 100
3, 551808, Note_on_c, 1, 54, 80
3, 552956, Note_off_c, 1, 62, 100
3, 552956, Note_off_c, 1, 54, 100
3, 552960, Note_on_c, 1, 52, 80
3, 552960, Note_on_c, 1, 57, 80
3, 554108, Note_off_c, 1, 52, 100
3, 554112, Note_on_c, 1, 50, 80
3, 554492, Note_off_c, 1, 57, 100
3, 554492, Note_off_c, 1, 50, 100
3, 555264, Note_on_c, 1, 50, 80
3, 555264, Note_on_c, 1, 57, 80
3, 556412, Note_off_c, 1, 50, 100
3, 556416, Note_on_c, 1, 49, 80
3, 557564, Note_off_c, 1, 57, 100
3, 557564, Note_off_c, 1, 49, 100
3, 557568, Note_on_c, 1, 52, 80
3, 557568, Note_on_c, 1, 47, 80
3, 558716, Note_off_c, 1, 47, 100
3, 558720, Note_on_c, 1, 45, 80
3, 559100, Note_off_c, 1, 52, 100
3, 559100, Note_off_c, 1, 45, 100
3, 559872, Note_on_c, 1, 55, 80
3, 559872, Note_on_c, 1, 62, 80
3, 561020, Note_off_c, 1, 55, 100
3, 561024, Note_on_c, 1, 54, 80
3, 562172, Note_off_c, 1, 62, 100
3, 562172, Note_off_c, 1, 54, 100
3, 562176, Note_on_c, 1, 52, 80
3, 562176, Note_on_c, 1, 57, 80
3, 563324, Note_off_c, 1, 52, 100
3, 563328, Note_on_c, 1, 50, 80
3, 563708, Note_off_c, 1, 57, 100
3, 563708, Note_off_c, 1, 50, 100
3, 564480, Note_on_c, 1, 52, 90
3, 564480, Note_on_c, 1, 50, 90
3, 564480, Note_on_c, 1, 47, 90
3, 565628, Note_off_c, 1, 50, 100
3, 565628, Note_off_c, 1, 47, 100
3, 565632, Note_on_c, 1, 49, 95
3, 565632, Note_on_c, 1, 45, 95
3, 566012, Note_off_c, 1, 52, 100
3, 566012, Note_off_c, 1, 49, 100
3, 566012, Note_off_c, 1, 45, 100
3, 566784, Note_on_c, 1, 64, 100
3, 566784, Note_on_c, 1, 62, 100
3, 566784, Note_on_c, 1, 59, 100
3, 567932, Note_off_c, 1, 62, 100
3, 567932, Note_off_c, 1, 59, 100
3, 567936, Note_on_c, 1, 61, 105
3, 567936, Note_on_c, 1, 57, 105
3, 568316, Note_off_c, 1, 64, 100
3, 568316, Note_off_c, 1, 61, 100
3, 568316, Note_off_c, 1, 57, 100
3, 569088, Note_on_c, 1, 52, 110
3, 569088, Note_on_c, 1, 50, 110
3, 569088, Note_on_c, 1, 47, 110
3, 570236, Note_off_c, 1, 50, 100
3, 570236, Note_off_c, 1, 47, 100
3, 570240, Note_on_c, 1, 49, 110
3, 570240, Note_on_c, 1, 45, 110
3, 570620, Note_off_c, 1, 52, 100
3, 570620, Note_off_c, 1, 49, 100
3, 570620, Note_off_c, 1, 45, 100
3, 575232, Note_on_c, 1, 54, 70
3, 575612, Note_off_c, 1, 54, 100
3, 575616, Note_on_c, 1, 54, 70
3, 575996, Note_off_c, 1, 54, 100
3, 576384, Note_on_c, 1, 47, 70
3, 576764, Note_off_c, 1, 47, 100
3, 576768, Note_on_c, 1, 47, 70
3, 577148, Note_off_c, 1, 47, 100
3, 577536, Note_on_c, 1, 42, 70
3, 577916, Note_off_c, 1, 42, 100
3, 577920, Note_on_c, 1, 42, 70
3, 578300, Note_off_c, 1, 42, 100
3, 578688, Note_on_c, 1, 35, 70
3, 579068, Note_off_c, 1, 35, 100
3, 579072, Note_on_c, 1, 35, 70
3, 579452, Note_off_c, 1, 35, 100
3, 579840, Note_on_c, 1, 59, 70
3, 580220, Note_off_c, 1, 59, 100
3, 580224, Note_on_c, 1, 59, 70
3, 580604, Note_off_c, 1, 59, 100
3, 580992, Note_on_c, 1, 52, 70
3, 581372, Note_off_c, 1, 52, 100
3, 581376, Note_on_c, 1, 52, 70
3, 581756, Note_off_c, 1, 52, 100
3, 582144, Note_on_c, 1, 57, 70
3, 582524, Note_off_c, 1, 57, 100
3, 582528, Note_on_c, 1, 45, 70
3, 582908, Note_off_c, 1, 45, 100
3, 582912, Note_on_c, 1, 50, 70
3, 583100, Note_off_c, 1, 50, 100
3, 583104, Note_on_c, 1, 66, 70
3, 583292, Note_off_c, 1, 66, 100
3, 583296, Note_on_c, 1, 64, 70
3, 583484, Note_off_c, 1, 64, 100
3, 583488, Note_on_c, 1, 62, 70
3, 583676, Note_off_c, 1, 62, 100
3, 583680, Note_on_c, 1, 61, 70
3, 583868, Note_off_c, 1, 61, 100
3, 583872, Note_on_c, 1, 59, 70
3, 584060, Note_off_c, 1, 59, 100
3, 584064, Note_on_c, 1, 58, 70
3, 584448, Note_on_c, 1, 54, 71
3, 584828, Note_off_c, 1, 54, 100
3, 584832, Note_on_c, 1, 54, 73
3, 585212, Note_off_c, 1, 58, 100
3, 585212, Note_off_c, 1, 54, 100
3, 585216, Note_on_c, 1, 59, 75
3, 585600, Note_on_c, 1, 54, 77
3, 585980, Note_off_c, 1, 54, 100
3, 585984, Note_on_c, 1, 54, 78
3, 586364, Note_off_c, 1, 59, 100
3, 586364, Note_off_c, 1, 54, 100
3, 586368, Note_on_c, 1, 61, 80
3, 586368, Note_on_c, 1, 58, 80
3, 586752, Note_on_c, 1, 54, 82
3, 587132, Note_off_c, 1, 54, 100
3, 587136, Note_on_c, 1, 54, 84
3, 587516, Note_off_c, 1, 61, 100
3, 587516, Note_off_c, 1, 58, 100
3, 587516, Note_off_c, 1, 54, 100
3, 587520, Note_on_c, 1, 62, 85
3, 587520, Note_on_c, 1, 59, 85
3, 587904, Note_on_c, 1, 54, 87
3, 588284, Note_off_c, 1, 54, 100
3, 588288, Note_on_c, 1, 54, 89
3, 588668, Note_off_c, 1, 62, 100
3, 588668, Note_off_c, 1, 59, 100
3, 588668, Note_off_c, 1, 54, 100
3, 588672, Note_on_c, 1, 64, 91
3, 588672, Note_on_c, 1, 59, 91
3, 589056, Note_on_c, 1, 55, 92
3, 589436, Note_off_c, 1, 55, 100
3, 589440, Note_on_c, 1, 55, 94
3, 589820, Note_off_c, 1, 64, 100
3, 589820, Note_off_c, 1, 59, 100
3, 589820, Note_off_c, 1, 55, 100
3, 589824, Note_on_c, 1, 65, 96
3, 589824, Note_on_c, 1, 59, 96
3, 590208, Note_on_c, 1, 55, 98
3, 590588, Note_off_c, 1, 55, 100
3, 590592, Note_on_c, 1, 55, 99
3, 590972, Note_off_c, 1, 65, 100
3, 590972, Note_off_c, 1, 59, 100
3, 590972, Note_off_c, 1, 55, 100
3, 590976, Note_on_c, 1, 54, 80
3, 590976, Note_on_c, 1, 58, 80
3, 591164, Note_off_c, 1, 58, 100
3, 591168, Note_on_c, 1, 61, 80
3, 591356, Note_off_c, 1, 61, 100
3, 591360, Note_on_c, 1, 58, 80
3, 591548, Note_off_c, 1, 58, 100
3, 591552, Note_on_c, 1, 61, 80
3, 591740, Note_off_c, 1, 61, 100
3, 591744, Note_on_c, 1, 58, 80
3, 591932, Note_off_c, 1, 58, 100
3, 591936, Note_on_c, 1, 61, 80
3, 592124, Note_off_c, 1, 61, 100
3, 592128, Note_on_c, 1, 58, 80
3, 592316, Note_off_c, 1, 58, 100
3, 592320, Note_on_c, 1, 61, 80
3, 592508, Note_off_c, 1, 61, 100
3, 592512, Note_on_c, 1, 58, 80
3, 592700, Note_off_c, 1, 58, 100
3, 592704, Note_on_c, 1, 61, 80
3, 592892, Note_off_c, 1, 54, 100
3, 592892, Note_off_c, 1, 61, 100
3, 592896, Note_on_c, 1, 59, 80
3, 592896, Note_on_c, 1, 55, 80
3, 593084, Note_off_c, 1, 59, 100
3, 593088, Note_on_c, 1, 61, 80
3, 593276, Note_off_c, 1, 55, 100
3, 593276, Note_off_c, 1, 61, 100
3, 593280, Note_on_c, 1, 54, 80
3, 593280, Note_on_c, 1, 58, 80
3, 593468, Note_off_c, 1, 58, 100
3, 593472, Note_on_c, 1, 61, 80
3, 593660, Note_off_c, 1, 61, 100
3, 593664, Note_on_c, 1, 58, 80
3, 593852, Note_off_c, 1, 58, 100
3, 593856, Note_on_c, 1, 61, 80
3, 594044, Note_off_c, 1, 54, 100
3, 594044, Note_off_c, 1, 61, 100
3, 594048, Note_on_c, 1, 59, 80
3, 594048, Note_on_c, 1, 55, 80
3, 594236, Note_off_c, 1, 59, 100
3, 594240, Note_on_c, 1, 61, 80
3, 594428, Note_off_c, 1, 55, 100
3, 594428, Note_off_c, 1, 61, 100
3, 594432, Note_on_c, 1, 54, 80
3, 594432, Note_on_c, 1, 58, 80
3, 594620, Note_off_c, 1, 58, 100
3, 594624, Note_on_c, 1, 61, 80
3, 594812, Note_off_c, 1, 61, 100
3, 594816, Note_on_c, 1, 58, 80
3, 595004, Note_off_c, 1, 58, 100
3, 595008, Note_on_c, 1, 61, 80
3, 595196, Note_off_c, 1, 54, 100
3, 595196, Note_off_c, 1, 61, 100
3, 595200, Note_on_c, 1, 59, 80
3, 595200, Note_on_c, 1, 55, 80
3, 595388, Note_off_c, 1, 59, 100
3, 595392, Note_on_c, 1, 61, 80
3, 595580, Note_off_c, 1, 55, 100
3, 595580, Note_off_c, 1, 61, 100
3, 595584, Note_on_c, 1, 54, 80
3, 595584, Note_on_c, 1, 58, 80
3, 595772, Note_off_c, 1, 58, 100
3, 595776, Note_on_c, 1, 61, 80
3, 595964, Note_off_c, 1, 61, 100
3, 595968, Note_on_c, 1, 58, 80
3, 596156, Note_off_c, 1, 58, 100
3, 596160, Note_on_c, 1, 61, 80
3, 596348, Note_off_c, 1, 61, 100
3, 596352, Note_on_c, 1, 58, 80
3, 596540, Note_off_c, 1, 58, 100
3, 596544, Note_on_c, 1, 61, 80
3, 596732, Note_off_c, 1, 61, 100
3, 596736, Note_on_c, 1, 58, 80
3, 596924, Note_off_c, 1, 58, 100
3, 596928, Note_on_c, 1, 61, 80
3, 597116, Note_off_c, 1, 61, 100
3, 597120, Note_on_c, 1, 58, 80
3, 597308, Note_off_c, 1, 58, 100
3, 597312, Note_on_c, 1, 61, 80
3, 597500, Note_off_c, 1, 54, 100
3, 597500, Note_off_c, 1, 61, 100
3, 597504, Note_on_c, 1, 58, 80
3, 597504, Note_on_c, 1, 54, 80
3, 597692, Note_off_c, 1, 58, 100
3, 597696, Note_on_c, 1, 61, 80
3, 597884, Note_off_c, 1, 54, 100
3, 597884, Note_off_c, 1, 61, 100
3, 597888, Note_on_c, 1, 52, 80
3, 597888, Note_on_c, 1, 58, 80
3, 598076, Note_off_c, 1, 58, 100
3, 598080, Note_on_c, 1, 61, 80
3, 598268, Note_off_c, 1, 61, 100
3, 598272, Note_on_c, 1, 58, 80
3, 598460, Note_off_c, 1, 58, 100
3, 598464, Note_on_c, 1, 61, 80
3, 598652, Note_off_c, 1, 52, 100
3, 598652, Note_off_c, 1, 61, 100
3, 598656, Note_on_c, 1, 51, 80
3, 598656, Note_on_c, 1, 58, 80
3, 598844, Note_off_c, 1, 58, 100
3, 598848, Note_on_c, 1, 61, 80
3, 599036, Note_off_c, 1, 51, 100
3, 599036, Note_off_c, 1, 61, 100
3, 599040, Note_on_c, 1, 52, 80
3, 599040, Note_on_c, 1, 58, 80
3, 599228, Note_off_c, 1, 58, 100
3, 599232, Note_on_c, 1, 61, 80
3, 599420, Note_off_c, 1, 61, 100
3, 599424, Note_on_c, 1, 58, 80
3, 599612, Note_off_c, 1, 58, 100
3, 599616, Note_on_c, 1, 61, 80
3, 599804, Note_off_c, 1, 52, 100
3, 599804, Note_off_c, 1, 61, 100
3, 599808, Note_on_c, 1, 51, 80
3, 599808, Note_on_c, 1, 58, 80
3, 599996, Note_off_c, 1, 58, 100
3, 600000, Note_on_c, 1, 61, 80
3, 600188, Note_off_c, 1, 51, 100
3, 600188, Note_off_c, 1, 61, 100
3, 600192, Note_on_c, 1, 52, 80
3, 600192, Note_on_c, 1, 58, 80
3, 600380, Note_off_c, 1, 58, 100
3, 600384, Note_on_c, 1, 61, 80
3, 600572, Note_off_c, 1, 61, 100
3, 600576, Note_on_c, 1, 58, 80
3, 600764, Note_off_c, 1, 58, 100
3, 600768, Note_on_c, 1, 61, 80
3, 600956, Note_off_c, 1, 61, 100
3, 600960, Note_on_c, 1, 58, 80
3, 601148, Note_off_c, 1, 58, 100
3, 601152, Note_on_c, 1, 61, 80
3, 601340, Note_off_c, 1, 61, 100
3, 601344, Note_on_c, 1, 58, 80
3, 601532, Note_off_c, 1, 58, 100
3, 601536, Note_on_c, 1, 61, 80
3, 601724, Note_off_c, 1, 61, 100
3, 601728, Note_on_c, 1, 58, 80
3, 601916, Note_off_c, 1, 58, 100
3, 601920, Note_on_c, 1, 61, 80
3, 602108, Note_off_c, 1, 61, 100
3, 602112, Note_on_c, 1, 58, 80
3, 602300, Note_off_c, 1, 58, 100
3, 602304, Note_on_c, 1, 61, 80
3, 602492, Note_off_c, 1, 52, 100
3, 602492, Note_off_c, 1, 61, 100
3, 602496, Note_on_c, 1, 52, 80
3, 602496, Note_on_c, 1, 57, 80
3, 602684, Note_off_c, 1, 57, 100
3, 602688, Note_on_c, 1, 61, 80
3, 602876, Note_off_c, 1, 61, 100
3, 602880, Note_on_c, 1, 57, 80
3, 603068, Note_off_c, 1, 57, 100
3, 603072, Note_on_c, 1, 61, 80
3, 603260, Note_off_c, 1, 52, 100
3, 603260, Note_off_c, 1, 61, 100
3, 603264, Note_on_c, 1, 51, 80
3, 603264, Note_on_c, 1, 57, 80
3, 603452, Note_off_c, 1, 57, 100
3, 603456, Note_on_c, 1, 61, 80
3, 603644, Note_off_c, 1, 51, 100
3, 603644, Note_off_c, 1, 61, 100
3, 603648, Note_on_c, 1, 52, 80
3, 603648, Note_on_c, 1, 57, 80
3, 603836, Note_off_c, 1, 57, 100
3, 603840, Note_on_c, 1, 61, 80
3, 604028, Note_off_c, 1, 61, 100
3, 604032, Note_on_c, 1, 57, 80
3, 604220, Note_off_c, 1, 57, 100
3, 604224, Note_on_c, 1, 61, 80
3, 604412, Note_off_c, 1, 52, 100
3, 604412, Note_off_c, 1, 61, 100
3, 604416, Note_on_c, 1, 51, 80
3, 604416, Note_on_c, 1, 57, 80
3, 604604, Note_off_c, 1, 57, 100
3, 604608, Note_on_c, 1, 61, 80
3, 604796, Note_off_c, 1, 51, 100
3, 604796, Note_off_c, 1, 61, 100
3, 604800, Note_on_c, 1, 52, 80
3, 604800, Note_on_c, 1, 57, 80
3, 604988, Note_off_c, 1, 57, 100
3, 604992, Note_on_c, 1, 61, 80
3, 605180, Note_off_c, 1, 61, 100
3, 605184, Note_on_c, 1, 57, 80
3, 605372, Note_off_c, 1, 57, 100
3, 605376, Note_on_c, 1, 61, 80
3, 605564, Note_off_c, 1, 61, 100
3, 605568, Note_on_c, 1, 57, 80
3, 605756, Note_off_c, 1, 57, 100
3, 605760, Note_on_c, 1, 61, 80
3, 605948, Note_off_c, 1, 61, 100
3, 605952, Note_on_c, 1, 57, 80
3, 606140, Note_off_c, 1, 57, 100
3, 606144, Note_on_c, 1, 61, 80
3, 606332, Note_off_c, 1, 61, 100
3, 606336, Note_on_c, 1, 57, 80
3, 606524, Note_off_c, 1, 57, 100
3, 606528, Note_on_c, 1, 61, 80
3, 606716, Note_off_c, 1, 52, 100
3, 606716, Note_off_c, 1, 61, 100
3, 606720, Note_on_c, 1, 52, 80
3, 606720, Note_on_c, 1, 57, 80
3, 606908, Note_off_c, 1, 57, 100
3, 606912, Note_on_c, 1, 61, 80
3, 607100, Note_off_c, 1, 52, 100
3, 607100, Note_off_c, 1, 61, 100
3, 607104, Note_on_c, 1, 50, 80
3, 607104, Note_on_c, 1, 62, 80
3, 607292, Note_off_c, 1, 62, 100
3, 607296, Note_on_c, 1, 57, 80
3, 607484, Note_off_c, 1, 57, 100
3, 607488, Note_on_c, 1, 62, 80
3, 607676, Note_off_c, 1, 62, 100
3, 607680, Note_on_c, 1, 57, 80
3, 607868, Note_off_c, 1, 50, 100
3, 607868, Note_off_c, 1, 57, 100
3, 607872, Note_on_c, 1, 52, 80
3, 607872, Note_on_c, 1, 64, 80
3, 608060, Note_off_c, 1, 64, 100
3, 608064, Note_on_c, 1, 61, 80
3, 608252, Note_off_c, 1, 52, 100
3, 608252, Note_off_c, 1, 61, 100
3, 608256, Note_on_c, 1, 50, 80
3, 608256, Note_on_c, 1, 62, 80
3, 608444, Note_off_c, 1, 62, 100
3, 608448, Note_on_c, 1, 57, 80
3, 608636, Note_off_c, 1, 57, 100
3, 608640, Note_on_c, 1, 62, 80
3, 608828, Note_off_c, 1, 62, 100
3, 608832, Note_on_c, 1, 57, 80
3, 609020, Note_off_c, 1, 50, 100
3, 609020, Note_off_c, 1, 57, 100
3, 609024, Note_on_c, 1, 49, 80
3, 609024, Note_on_c, 1, 61, 80
3, 609212, Note_off_c, 1, 61, 100
3, 609216, Note_on_c, 1, 54, 80
3, 609404, Note_off_c, 1, 49, 100
3, 609404, Note_off_c, 1, 54, 100
3, 609408, Note_on_c, 1, 47, 80
3, 609408, Note_on_c, 1, 59, 80
3, 609596, Note_off_c, 1, 59, 100
3, 609600, Note_on_c, 1, 54, 80
3, 609788, Note_off_c, 1, 54, 100
3, 609792, Note_on_c, 1, 59, 80
3, 609980, Note_off_c, 1, 59, 100
3, 609984, Note_on_c, 1, 54, 80
3, 610172, Note_off_c, 1, 54, 100
3, 610176, Note_on_c, 1, 59, 80
3, 610364, Note_off_c, 1, 59, 100
3, 610368, Note_on_c, 1, 54, 80
3, 610556, Note_off_c, 1, 54, 100
3, 610560, Note_on_c, 1, 59, 80
3, 610748, Note_off_c, 1, 59, 100
3, 610752, Note_on_c, 1, 54, 80
3, 610940, Note_off_c, 1, 54, 100
3, 610944, Note_on_c, 1, 59, 80
3, 611132, Note_off_c, 1, 59, 100
3, 611136, Note_on_c, 1, 54, 80
3, 611324, Note_off_c, 1, 47, 100
3, 611324, Note_off_c, 1, 54, 100
3, 611328, Note_on_c, 1, 61, 80
3, 611328, Note_on_c, 1, 49, 80
3, 611516, Note_off_c, 1, 61, 100
3, 611520, Note_on_c, 1, 54, 80
3, 611708, Note_off_c, 1, 49, 100
3, 611708, Note_off_c, 1, 54, 100
3, 611712, Note_on_c, 1, 47, 80
3, 611712, Note_on_c, 1, 59, 80
3, 611900, Note_off_c, 1, 59, 100
3, 611904, Note_on_c, 1, 54, 80
3, 612092, Note_off_c, 1, 54, 100
3, 612096, Note_on_c, 1, 59, 80
3, 612284, Note_off_c, 1, 59, 100
3, 612288, Note_on_c, 1, 54, 80
3, 612476, Note_off_c, 1, 47, 100
3, 612476, Note_off_c, 1, 54, 100
3, 612480, Note_on_c, 1, 49, 80
3, 612480, Note_on_c, 1, 61, 80
3, 612668, Note_off_c, 1, 61, 100
3, 612672, Note_on_c, 1, 54, 80
3, 612860, Note_off_c, 1, 49, 100
3, 612860, Note_off_c, 1, 54, 100
3, 612864, Note_on_c, 1, 47, 80
3, 612864, Note_on_c, 1, 59, 80
3, 613052, Note_off_c, 1, 59, 100
3, 613056, Note_on_c, 1, 54, 80
3, 613244, Note_off_c, 1, 54, 100
3, 613248, Note_on_c, 1, 59, 80
3, 613436, Note_off_c, 1, 59, 100
3, 613440, Note_on_c, 1, 54, 80
3, 613628, Note_off_c, 1, 47, 100
3, 613628, Note_off_c, 1, 54, 100
3, 613632, Note_on_c, 1, 45, 80
3, 613632, Note_on_c, 1, 57, 80
3, 613820, Note_off_c, 1, 57, 100
3, 613824, Note_on_c, 1, 50, 80
3, 614012, Note_off_c, 1, 45, 100
3, 614012, Note_off_c, 1, 50, 100
3, 614016, Note_on_c, 1, 43, 80
3, 614016, Note_on_c, 1, 55, 80
3, 614204, Note_off_c, 1, 55, 100
3, 614208, Note_on_c, 1, 50, 80
3, 614396, Note_off_c, 1, 50, 100
3, 614400, Note_on_c, 1, 55, 80
3, 614588, Note_off_c, 1, 55, 100
3, 614592, Note_on_c, 1, 50, 80
3, 614780, Note_off_c, 1, 50, 100
3, 614784, Note_on_c, 1, 55, 80
3, 614972, Note_off_c, 1, 55, 100
3, 614976, Note_on_c, 1, 50, 80
3, 615164, Note_off_c, 1, 50, 100
3, 615168, Note_on_c, 1, 55, 80
3, 615356, Note_off_c, 1, 55, 100
3, 615360, Note_on_c, 1, 50, 80
3, 615548, Note_off_c, 1, 50, 100
3, 615552, Note_on_c, 1, 55, 80
3, 615740, Note_off_c, 1, 55, 100
3, 615744, Note_on_c, 1, 50, 80
3, 615932, Note_off_c, 1, 43, 100
3, 615932, Note_off_c, 1, 50, 100
3, 615936, Note_on_c, 1, 57, 80
3, 615936, Note_on_c, 1, 45, 80
3, 616124, Note_off_c, 1, 57, 100
3, 616128, Note_on_c, 1, 50, 80
3, 616316, Note_off_c, 1, 45, 100
3, 616316, Note_off_c, 1, 50, 100
3, 616320, Note_on_c, 1, 43, 80
3, 616320, Note_on_c, 1, 55, 80
3, 616508, Note_off_c, 1, 55, 100
3, 616512, Note_on_c, 1, 50, 80
3, 616700, Note_off_c, 1, 50, 100
3, 616704, Note_on_c, 1, 55, 80
3, 616892, Note_off_c, 1, 55, 100
3, 616896, Note_on_c, 1, 50, 80
3, 617084, Note_off_c, 1, 43, 100
3, 617084, Note_off_c, 1, 50, 100
3, 617088, Note_on_c, 1, 45, 80
3, 617088, Note_on_c, 1, 57, 80
3, 617276, Note_off_c, 1, 57, 100
3, 617280, Note_on_c, 1, 50, 80
3, 617468, Note_off_c, 1, 45, 100
3, 617468, Note_off_c, 1, 50, 100
3, 617472, Note_on_c, 1, 43, 80
3, 617472, Note_on_c, 1, 55, 80
3, 617660, Note_off_c, 1, 55, 100
3, 617664, Note_on_c, 1, 50, 81
3, 617852, Note_off_c, 1, 50, 100
3, 617856, Note_on_c, 1, 55, 83
3, 618044, Note_off_c, 1, 55, 100
3, 618048, Note_on_c, 1, 50, 84
3, 618236, Note_off_c, 1, 43, 100
3, 618236, Note_off_c, 1, 50, 100
3, 618240, Note_on_c, 1, 40, 86
3, 618240, Note_on_c, 1, 52, 86
3, 618428, Note_off_c, 1, 52, 100
3, 618432, Note_on_c, 1, 45, 88
3, 618620, Note_off_c, 1, 40, 100
3, 618620, Note_off_c, 1, 45, 100
3, 618624, Note_on_c, 1, 42, 89
3, 618624, Note_on_c, 1, 54, 89
3, 618812, Note_off_c, 1, 54, 100
3, 618816, Note_on_c, 1, 45, 91
3, 619004, Note_off_c, 1, 45, 100
3, 619008, Note_on_c, 1, 54, 93
3, 619196, Note_off_c, 1, 54, 100
3, 619200, Note_on_c, 1, 45, 94
3, 619388, Note_off_c, 1, 42, 100
3, 619388, Note_off_c, 1, 45, 100
3, 619392, Note_on_c, 1, 37, 96
3, 619392, Note_on_c, 1, 49, 96
3, 619580, Note_off_c, 1, 49, 100
3, 619584, Note_on_c, 1, 45, 98
3, 619772, Note_off_c, 1, 37, 100
3, 619772, Note_off_c, 1, 45, 100
3, 619776, Note_on_c, 1, 38, 99
3, 619776, Note_on_c, 1, 50, 99
3, 619964, Note_off_c, 1, 50, 100
3, 619968, Note_on_c, 1, 45, 101
3, 620156, Note_off_c, 1, 45, 100
3, 620160, Note_on_c, 1, 50, 103
3, 620348, Note_off_c, 1, 50, 100
3, 620352, Note_on_c, 1, 45, 104
3, 620540, Note_off_c, 1, 38, 100
3, 620540, Note_off_c, 1, 45, 100
3, 620544, Note_on_c, 1, 35, 106
3, 620544, Note_on_c, 1, 47, 106
3, 620732, Note_off_c, 1, 47, 100
3, 620736, Note_on_c, 1, 38, 108
3, 620924, Note_off_c, 1, 35, 100
3, 620924, Note_off_c, 1, 38, 100
3, 620928, Note_on_c, 1, 42, 110
3, 620928, Note_on_c, 1, 38, 110
3, 620928, Note_on_c, 1, 30, 110
3, 622076, Note_off_c, 1, 42, 100
3, 622076, Note_off_c, 1, 38, 100
3, 622076, Note_off_c, 1, 30, 100
3, 623232, Note_on_c, 1, 56, 110
3, 623232, Note_on_c, 1, 50, 110
3, 623232, Note_on_c, 1, 47, 110
3, 624380, Note_off_c, 1, 56, 100
3, 624380, Note_off_c, 1, 50, 100
3, 624380, Note_off_c, 1, 47, 100
3, 625536, Note_on_c, 1, 57, 110
3, 625536, Note_on_c, 1, 54, 110
3, 625536, Note_on_c, 1, 50, 110
3, 625536, Note_on_c, 1, 45, 110
3, 625916, Note_off_c, 1, 57, 100
3, 625916, Note_off_c, 1, 54, 100
3, 625916, Note_off_c, 1, 50, 100
3, 625916, Note_off_c, 1, 45, 100
3, 626688, Note_on_c, 1, 55, 110
3, 626688, Note_on_c, 1, 52, 110
3, 626688, Note_on_c, 1, 49, 110
3, 626688, Note_on_c, 1, 45, 110
3, 627068, Note_off_c, 1, 55, 100
3, 627068, Note_off_c, 1, 52, 100
3, 627068, Note_off_c, 1, 49, 100
3, 627068, Note_off_c, 1, 45, 100
3, 627840, Note_on_c, 1, 54, 80
3, 627840, Note_on_c, 1, 66, 80
3, 628028, Note_off_c, 1, 66, 100
3, 628032, Note_on_c, 1, 62, 80
3, 628220, Note_off_c, 1, 62, 100
3, 628224, Note_on_c, 1, 66, 80
3, 628412, Note_off_c, 1, 66, 100
3, 628416, Note_on_c, 1, 62, 80
3, 628604, Note_off_c, 1, 62, 100
3, 628608, Note_on_c, 1, 66, 80
3, 628796, Note_off_c, 1, 66, 100
3, 628800, Note_on_c, 1, 62, 80
3, 628988, Note_off_c, 1, 62, 100
3, 628992, Note_on_c, 1, 66, 80
3, 629180, Note_off_c, 1, 66, 100
3, 629184, Note_on_c, 1, 62, 80
3, 629372, Note_off_c, 1, 62, 100
3, 629376, Note_on_c, 1, 66, 80
3, 629564, Note_off_c, 1, 66, 100
3, 629568, Note_on_c, 1, 62, 80
3, 629756, Note_off_c, 1, 54, 100
3, 629756, Note_off_c, 1, 62, 100
3, 629760, Note_on_c, 1, 53, 80
3, 629760, Note_on_c, 1, 65, 80
3, 629948, Note_off_c, 1, 65, 100
3, 629952, Note_on_c, 1, 62, 80
3, 630140, Note_off_c, 1, 53, 100
3, 630140, Note_off_c, 1, 62, 100
3, 630144, Note_on_c, 1, 54, 80
3, 630144, Note_on_c, 1, 66, 80
3, 630332, Note_off_c, 1, 66, 100
3, 630336, Note_on_c, 1, 62, 80
3, 630524, Note_off_c, 1, 62, 100
3, 630528, Note_on_c, 1, 66, 80
3, 630716, Note_off_c, 1, 66, 100
3, 630720, Note_on_c, 1, 62, 80
3, 630908, Note_off_c, 1, 54, 100
3, 630908, Note_off_c, 1, 62, 100
3, 630912, Note_on_c, 1, 55, 80
3, 630912, Note_on_c, 1, 67, 80
3, 631100, Note_off_c, 1, 67, 100
3, 631104, Note_on_c, 1, 62, 80
3, 631292, Note_off_c, 1, 55, 100
3, 631292, Note_off_c, 1, 62, 100
3, 631296, Note_on_c, 1, 54, 80
3, 631296, Note_on_c, 1, 66, 80
3, 631484, Note_off_c, 1, 66, 100
3, 631488, Note_on_c, 1, 62, 80
3, 631676, Note_off_c, 1, 62, 100
3, 631680, Note_on_c, 1, 66, 80
3, 631868, Note_off_c, 1, 66, 100
3, 631872, Note_on_c, 1, 62, 80
3, 632060, Note_off_c, 1, 54, 100
3, 632060, Note_off_c, 1, 62, 100
3, 632064, Note_on_c, 1, 52, 80
3, 632064, Note_on_c, 1, 64, 80
3, 632252, Note_off_c, 1, 64, 100
3, 632256, Note_on_c, 1, 62, 80
3, 632444, Note_off_c, 1, 52, 100
3, 632444, Note_off_c, 1, 62, 100
3, 632448, Note_on_c, 1, 50, 80
3, 632448, Note_on_c, 1, 62, 80
3, 632636, Note_off_c, 1, 62, 100
3, 632640, Note_on_c, 1, 57, 80
3, 632828, Note_off_c, 1, 57, 100
3, 632832, Note_on_c, 1, 62, 80
3, 633020, Note_off_c, 1, 62, 100
3, 633024, Note_on_c, 1, 57, 80
3, 633212, Note_off_c, 1, 57, 100
3, 633216, Note_on_c, 1, 62, 80
3, 633404, Note_off_c, 1, 62, 100
3, 633408, Note_on_c, 1, 57, 80
3, 633596, Note_off_c, 1, 57, 100
3, 633600, Note_on_c, 1, 62, 80
3, 633788, Note_off_c, 1, 62, 100
3, 633792, Note_on_c, 1, 57, 80
3, 633980, Note_off_c, 1, 57, 100
3, 633984, Note_on_c, 1, 62, 80
3, 634172, Note_off_c, 1, 62, 100
3, 634176, Note_on_c, 1, 57, 80
3, 634364, Note_off_c, 1, 50, 100
3, 634364, Note_off_c, 1, 57, 100
3, 634368, Note_on_c, 1, 61, 80
3, 634368, Note_on_c, 1, 49, 80
3, 634556, Note_off_c, 1, 61, 100
3, 634560, Note_on_c, 1, 57, 80
3, 634748, Note_off_c, 1, 49, 100
3, 634748, Note_off_c, 1, 57, 100
3, 634752, Note_on_c, 1, 62, 80
3, 634752, Note_on_c, 1, 50, 80
3, 634940, Note_off_c, 1, 62, 100
3, 634944, Note_on_c, 1, 57, 80
3, 635132, Note_off_c, 1, 57, 100
3, 635136, Note_on_c, 1, 62, 80
3, 635324, Note_off_c, 1, 62, 100
3, 635328, Note_on_c, 1, 57, 80
3, 635516, Note_off_c, 1, 50, 100
3, 635516, Note_off_c, 1, 57, 100
3, 635520, Note_on_c, 1, 64, 80
3, 635520, Note_on_c, 1, 52, 80
3, 635708, Note_off_c, 1, 64, 100
3, 635712, Note_on_c, 1, 57, 80
3, 635900, Note_off_c, 1, 52, 100
3, 635900, Note_off_c, 1, 57, 100
3, 635904, Note_on_c, 1, 62, 80
3, 635904, Note_on_c, 1, 50, 80
3, 636092, Note_off_c, 1, 62, 100
3, 636096, Note_on_c, 1, 57, 80
3, 636284, Note_off_c, 1, 57, 100
3, 636288, Note_on_c, 1, 62, 80
3, 636476, Note_off_c, 1, 62, 100
3, 636480, Note_on_c, 1, 57, 80
3, 636668, Note_off_c, 1, 50, 100
3, 636668, Note_off_c, 1, 57, 100
3, 636672, Note_on_c, 1, 61, 80
3, 636672, Note_on_c, 1, 49, 80
3, 636860, Note_off_c, 1, 61, 100
3, 636864, Note_on_c, 1, 54, 80
3, 637052, Note_off_c, 1, 49, 100
3, 637052, Note_off_c, 1, 54, 100
3, 637056, Note_on_c, 1, 47, 80
3, 637056, Note_on_c, 1, 59, 80
3, 637244, Note_off_c, 1, 59, 100
3, 637248, Note_on_c, 1, 54, 80
3, 637436, Note_off_c, 1, 54, 100
3, 637440, Note_on_c, 1, 59, 81
3, 637628, Note_off_c, 1, 59, 100
3, 637632, Note_on_c, 1, 54, 81
3, 637820, Note_off_c, 1, 54, 100
3, 637824, Note_on_c, 1, 59, 82
3, 638012, Note_off_c, 1, 59, 100
3, 638016, Note_on_c, 1, 54, 83
3, 638204, Note_off_c, 1, 54, 100
3, 638208, Note_on_c, 1, 59, 83
3, 638396, Note_off_c, 1, 59, 100
3, 638400, Note_on_c, 1, 54, 84
3, 638588, Note_off_c, 1, 54, 100
3, 638592, Note_on_c, 1, 59, 85
3, 638780, Note_off_c, 1, 59, 100
3, 638784, Note_on_c, 1, 54, 85
3, 638972, Note_off_c, 1, 47, 100
3, 638972, Note_off_c, 1, 54, 100
3, 638976, Note_on_c, 1, 46, 86
3, 638976, Note_on_c, 1, 58, 86
3, 639164, Note_off_c, 1, 58, 100
3, 639168, Note_on_c, 1, 54, 87
3, 639356, Note_off_c, 1, 46, 100
3, 639356, Note_off_c, 1, 54, 100
3, 639360, Note_on_c, 1, 59, 87
3, 639360, Note_on_c, 1, 47, 87
3, 639548, Note_off_c, 1, 59, 100
3, 639552, Note_on_c, 1, 54, 88
3, 639740, Note_off_c, 1, 54, 100
3, 639744, Note_on_c, 1, 59, 88
3, 639932, Note_off_c, 1, 59, 100
3, 639936, Note_on_c, 1, 54, 89
3, 640124, Note_off_c, 1, 47, 100
3, 640124, Note_off_c, 1, 54, 100
3, 640128, Note_on_c, 1, 58, 90
3, 640128, Note_on_c, 1, 46, 90
3, 640316, Note_off_c, 1, 58, 100
3, 640320, Note_on_c, 1, 54, 90
3, 640508, Note_off_c, 1, 46, 100
3, 640508, Note_off_c, 1, 54, 100
3, 640512, Note_on_c, 1, 59, 91
3, 640512, Note_on_c, 1, 47, 91
3, 640700, Note_off_c, 1, 59, 100
3, 640704, Note_on_c, 1, 54, 92
3, 640892, Note_off_c, 1, 54, 100
3, 640896, Note_on_c, 1, 59, 92
3, 641084, Note_off_c, 1, 59, 100
3, 641088, Note_on_c, 1, 54, 93
3, 641276, Note_off_c, 1, 47, 100
3, 641276, Note_off_c, 1, 54, 100
3, 641280, Note_on_c, 1, 57, 94
3, 641280, Note_on_c, 1, 45, 94
3, 641468, Note_off_c, 1, 57, 100
3, 641472, Note_on_c, 1, 54, 94
3, 641660, Note_off_c, 1, 45, 100
3, 641660, Note_off_c, 1, 54, 100
3, 641664, Note_on_c, 1, 43, 95
3, 641664, Note_on_c, 1, 55, 95
3, 641852, Note_off_c, 1, 55, 100
3, 641856, Note_on_c, 1, 47, 95
3, 642044, Note_off_c, 1, 47, 100
3, 642048, Note_on_c, 1, 55, 96
3, 642236, Note_off_c, 1, 55, 100
3, 642240, Note_on_c, 1, 47, 97
3, 642428, Note_off_c, 1, 43, 100
3, 642428, Note_off_c, 1, 47, 100
3, 642432, Note_on_c, 1, 39, 97
3, 642432, Note_on_c, 1, 51, 97
3, 642620, Note_off_c, 1, 51, 100
3, 642624, Note_on_c, 1, 47, 98
3, 642812, Note_off_c, 1, 39, 100
3, 642812, Note_off_c, 1, 47, 100
3, 642816, Note_on_c, 1, 40, 99
3, 642816, Note_on_c, 1, 52, 99
3, 643004, Note_off_c, 1, 52, 100
3, 643008, Note_on_c, 1, 47, 99
3, 643196, Note_off_c, 1, 47, 100
3, 643200, Note_on_c, 1, 52, 100
3, 643388, Note_off_c, 1, 52, 100
3, 643392, Note_on_c, 1, 47, 101
3, 643580, Note_off_c, 1, 40, 100
3, 643580, Note_off_c, 1, 47, 100
3, 643584, Note_on_c, 1, 38, 101
3, 643584, Note_on_c, 1, 50, 101
3, 643772, Note_off_c, 1, 50, 100
3, 643776, Note_on_c, 1, 47, 102
3, 643964, Note_off_c, 1, 38, 100
3, 643964, Note_off_c, 1, 47, 100
3, 643968, Note_on_c, 1, 37, 102
3, 643968, Note_on_c, 1, 49, 102
3, 644156, Note_off_c, 1, 49, 100
3, 644160, Note_on_c, 1, 40, 103
3, 644348, Note_off_c, 1, 40, 100
3, 644352, Note_on_c, 1, 49, 104
3, 644540, Note_off_c, 1, 49, 100
3, 644544, Note_on_c, 1, 40, 104
3, 644732, Note_off_c, 1, 37, 100
3, 644732, Note_off_c, 1, 40, 100
3, 644736, Note_on_c, 1, 32, 105
3, 644736, Note_on_c, 1, 44, 105
3, 644924, Note_off_c, 1, 44, 100
3, 644928, Note_on_c, 1, 40, 106
3, 645116, Note_off_c, 1, 32, 100
3, 645116, Note_off_c, 1, 40, 100
3, 645120, Note_on_c, 1, 33, 106
3, 645120, Note_on_c, 1, 45, 106
3, 645308, Note_off_c, 1, 45, 100
3, 645312, Note_on_c, 1, 40, 107
3, 645500, Note_off_c, 1, 40, 100
3, 645504, Note_on_c, 1, 45, 108
3, 645692, Note_off_c, 1, 45, 100
3, 645696, Note_on_c, 1, 40, 108
3, 645884, Note_off_c, 1, 33, 100
3, 645884, Note_off_c, 1, 40, 100
3, 645888, Note_on_c, 1, 31, 109
3, 645888, Note_on_c, 1, 43, 109
3, 646076, Note_off_c, 1, 43, 100
3, 646080, Note_on_c, 1, 40, 109
3, 646268, Note_off_c, 1, 31, 100
3, 646268, Note_off_c, 1, 40, 100
3, 646272, Note_on_c, 1, 42, 110
3, 646272, Note_on_c, 1, 38, 110
3, 646272, Note_on_c, 1, 30, 110
3, 647420, Note_off_c, 1, 42, 100
3, 647420, Note_off_c, 1, 38, 100
3, 647420, Note_off_c, 1, 30, 100
3, 648576, Note_on_c, 1, 68, 110
3, 648576, Note_on_c, 1, 62, 110
3, 648576, Note_on_c, 1, 59, 110
3, 649724, Note_off_c, 1, 68, 100
3, 649724, Note_off_c, 1, 62, 100
3, 649724, Note_off_c, 1, 59, 100
3, 650880, Note_on_c, 1, 69, 110
3, 650880, Note_on_c, 1, 66, 110
3, 650880, Note_on_c, 1, 62, 110
3, 650880, Note_on_c, 1, 57, 110
3, 652028, Note_off_c, 1, 69, 100
3, 652028, Note_off_c, 1, 66, 100
3, 652028, Note_off_c, 1, 62, 100
3, 652028, Note_off_c, 1, 57, 100
3, 655488, Note_on_c, 1, 45, 110
3, 655616, Note_on_c, 1, 47, 109
3, 655712, Note_off_c, 1, 45, 100
3, 655744, Note_on_c, 1, 49, 108
3, 655848, Note_off_c, 1, 47, 100
3, 655872, Note_on_c, 1, 50, 107
3, 655972, Note_off_c, 1, 49, 100
3, 656000, Note_on_c, 1, 52, 106
3, 656112, Note_off_c, 1, 50, 100
3, 656128, Note_on_c, 1, 54, 104
3, 656208, Note_off_c, 1, 52, 100
3, 656256, Note_on_c, 1, 55, 103
3, 656328, Note_off_c, 1, 54, 100
3, 656384, Note_on_c, 1, 57, 102
3, 656472, Note_off_c, 1, 55, 100
3, 656512, Note_on_c, 1, 59, 101
3, 656592, Note_off_c, 1, 57, 100
3, 656640, Note_on_c, 1, 61, 100
3, 656740, Note_off_c, 1, 59, 100
3, 656768, Note_on_c, 1, 62, 98
3, 656848, Note_off_c, 1, 61, 100
3, 656896, Note_on_c, 1, 64, 97
3, 656980, Note_off_c, 1, 62, 100
3, 657024, Note_on_c, 1, 65, 96
3, 657096, Note_off_c, 1, 64, 100
3, 657212, Note_off_c, 1, 65, 100
3, 657216, Note_on_c, 1, 66, 94
3, 657404, Note_off_c, 1, 66, 100
3, 657408, Note_on_c, 1, 67, 92
3, 657596, Note_off_c, 1, 67, 100
3, 657600, Note_on_c, 1, 68, 91
3, 657788, Note_off_c, 1, 68, 100
3, 657792, Note_on_c, 1, 69, 80
3, 658944, Note_on_c, 1, 57, 80
3, 659708, Note_off_c, 1, 69, 100
3, 659712, Note_on_c, 1, 67, 80
3, 660092, Note_off_c, 1, 57, 100
3, 660092, Note_off_c, 1, 67, 100
3, 660096, Note_on_c, 1, 66, 80
3, 660096, Note_on_c, 1, 62, 80
3, 660476, Note_off_c, 1, 66, 100
3, 660476, Note_off_c, 1, 62, 100
3, 661248, Note_on_c, 1, 57, 80
3, 661248, Note_on_c, 1, 54, 80
3, 661248, Note_on_c, 1, 50, 80
3, 661628, Note_off_c, 1, 57, 100
3, 661628, Note_off_c, 1, 54, 100
3, 661628, Note_off_c, 1, 50, 100
3, 661632, Note_on_c, 1, 57, 80
3, 661632, Note_on_c, 1, 54, 80
3, 661632, Note_on_c, 1, 50, 80
3, 662012, Note_off_c, 1, 57, 100
3, 662012, Note_off_c, 1, 54, 100
3, 662012, Note_off_c, 1, 50, 100
3, 662400, Note_on_c, 1, 62, 80
3, 662400, Note_on_c, 1, 57, 80
3, 662400, Note_on_c, 1, 54, 80
3, 662780, Note_off_c, 1, 62, 100
3, 662780, Note_off_c, 1, 57, 100
3, 662780, Note_off_c, 1, 54, 100
3, 662784, Note_on_c, 1, 62, 80
3, 662784, Note_on_c, 1, 57, 80
3, 662784, Note_on_c, 1, 54, 80
3, 663164, Note_off_c, 1, 62, 100
3, 663164, Note_off_c, 1, 57, 100
3, 663164, Note_off_c, 1, 54, 100
3, 663552, Note_on_c, 1, 64, 80
3, 663552, Note_on_c, 1, 57, 80
3, 663932, Note_off_c, 1, 64, 100
3, 663932, Note_off_c, 1, 57, 100
3, 663936, Note_on_c, 1, 64, 80
3, 663936, Note_on_c, 1, 57, 80
3, 664316, Note_off_c, 1, 64, 100
3, 664316, Note_off_c, 1, 57, 100
3, 664704, Note_on_c, 1, 66, 80
3, 664704, Note_on_c, 1, 62, 80
3, 665084, Note_off_c, 1, 66, 100
3, 665084, Note_off_c, 1, 62, 100
3, 665088, Note_on_c, 1, 66, 80
3, 665088, Note_on_c, 1, 62, 80
3, 665468, Note_off_c, 1, 66, 100
3, 665468, Note_off_c, 1, 62, 100
3, 665856, Note_on_c, 1, 72, 80
3, 665856, Note_on_c, 1, 66, 80
3, 666236, Note_off_c, 1, 72, 100
3, 666236, Note_off_c, 1, 66, 100
3, 666240, Note_on_c, 1, 72, 80
3, 666240, Note_on_c, 1, 66, 80
3, 666620, Note_off_c, 1, 72, 100
3, 666620, Note_off_c, 1, 66, 100
3, 667008, Note_on_c, 1, 67, 80
3, 667008, Note_on_c, 1, 71, 80
3, 667388, Note_off_c, 1, 67, 100
3, 667388, Note_off_c, 1, 71, 100
3, 667392, Note_on_c, 1, 71, 80
3, 667392, Note_on_c, 1, 67, 80
3, 667772, Note_off_c, 1, 71, 100
3, 667772, Note_off_c, 1, 67, 100
3, 668160, Note_on_c, 1, 73, 80
3, 668160, Note_on_c, 1, 69, 80
3, 668540, Note_off_c, 1, 73, 100
3, 668540, Note_off_c, 1, 69, 100
3, 668544, Note_on_c, 1, 73, 80
3, 668544, Note_on_c, 1, 69, 80
3, 668924, Note_off_c, 1, 73, 100
3, 668924, Note_off_c, 1, 69, 100
3, 669312, Note_on_c, 1, 74, 80
3, 669312, Note_on_c, 1, 62, 80
3, 669692, Note_off_c, 1, 74, 100
3, 669692, Note_off_c, 1, 62, 100
3, 670464, Note_on_c, 1, 45, 80
3, 670464, Note_on_c, 1, 38, 80
3, 670844, Note_off_c, 1, 45, 100
3, 670844, Note_off_c, 1, 38, 100
3, 670848, Note_on_c, 1, 45, 80
3, 670848, Note_on_c, 1, 38, 80
3, 671228, Note_off_c, 1, 45, 100
3, 671228, Note_off_c, 1, 38, 100
3, 671616, Note_on_c, 1, 50, 80
3, 671616, Note_on_c, 1, 42, 80
3, 671996, Note_off_c, 1, 50, 100
3, 671996, Note_off_c, 1, 42, 100
3, 672000, Note_on_c, 1, 50, 80
3, 672000, Note_on_c, 1, 42, 80
3, 672380, Note_off_c, 1, 50, 100
3, 672380, Note_off_c, 1, 42, 100
3, 672768, Note_on_c, 1, 45, 80
3, 672768, Note_on_c, 1, 52, 80
3, 673148, Note_off_c, 1, 45, 100
3, 673148, Note_off_c, 1, 52, 100
3, 673152, Note_on_c, 1, 52, 80
3, 673152, Note_on_c, 1, 45, 80
3, 673532, Note_off_c, 1, 52, 100
3, 673532, Note_off_c, 1, 45, 100
3, 673920, Note_on_c, 1, 54, 80
3, 673920, Note_on_c, 1, 50, 80
3, 674300, Note_off_c, 1, 54, 100
3, 674300, Note_off_c, 1, 50, 100
3, 674304, Note_on_c, 1, 50, 80
3, 674304, Note_on_c, 1, 54, 80
3, 674684, Note_off_c, 1, 50, 100
3, 674684, Note_off_c, 1, 54, 100
3, 675072, Note_on_c, 1, 60, 80
3, 675072, Note_on_c, 1, 54, 80
3, 675452, Note_off_c, 1, 60, 100
3, 675452, Note_off_c, 1, 54, 100
3, 675456, Note_on_c, 1, 54, 80
3, 675456, Note_on_c, 1, 60, 80
3, 675836, Note_off_c, 1, 54, 100
3, 675836, Note_off_c, 1, 60, 100
3, 676224, Note_on_c, 1, 55, 80
3, 676224, Note_on_c, 1, 59, 80
3, 676604, Note_off_c, 1, 55, 100
3, 676604, Note_off_c, 1, 59, 100
3, 676608, Note_on_c, 1, 59, 80
3, 676608, Note_on_c, 1, 55, 80
3, 676988, Note_off_c, 1, 59, 100
3, 676988, Note_off_c, 1, 55, 100
3, 677376, Note_on_c, 1, 61, 80
3, 677376, Note_on_c, 1, 57, 80
3, 677756, Note_off_c, 1, 61, 100
3, 677756, Note_off_c, 1, 57, 100
3, 677760, Note_on_c, 1, 61, 80
3, 677760, Note_on_c, 1, 57, 80
3, 678140, Note_off_c, 1, 61, 100
3, 678140, Note_off_c, 1, 57, 100
3, 678528, Note_on_c, 1, 62, 80
3, 678528, Note_on_c, 1, 50, 80
3, 678908, Note_off_c, 1, 62, 100
3, 678908, Note_off_c, 1, 50, 100
3, 678912, Note_on_c, 1, 62, 80
3, 678912, Note_on_c, 1, 50, 80
3, 679292, Note_off_c, 1, 62, 100
3, 679292, Note_off_c, 1, 50, 100
3, 679680, Note_on_c, 1, 60, 80
3, 679680, Note_on_c, 1, 54, 80
3, 680060, Note_off_c, 1, 60, 100
3, 680060, Note_off_c, 1, 54, 100
3, 680064, Note_on_c, 1, 54, 80
3, 680064, Note_on_c, 1, 60, 80
3, 680444, Note_off_c, 1, 54, 100
3, 680444, Note_off_c, 1, 60, 100
3, 680832, Note_on_c, 1, 55, 82
3, 680832, Note_on_c, 1, 59, 82
3, 681212, Note_off_c, 1, 55, 100
3, 681212, Note_off_c, 1, 59, 100
3, 681216, Note_on_c, 1, 59, 84
3, 681216, Note_on_c, 1, 55, 84
3, 681596, Note_off_c, 1, 59, 100
3, 681596, Note_off_c, 1, 55, 100
3, 681984, Note_on_c, 1, 61, 89
3, 681984, Note_on_c, 1, 57, 89
3, 682364, Note_off_c, 1, 61, 100
3, 682364, Note_off_c, 1, 57, 100
3, 682368, Note_on_c, 1, 61, 92
3, 682368, Note_on_c, 1, 57, 92
3, 682748, Note_off_c, 1, 61, 100
3, 682748, Note_off_c, 1, 57, 100
3, 683136, Note_on_c, 1, 62, 97
3, 683136, Note_on_c, 1, 50, 97
3, 683516, Note_off_c, 1, 62, 100
3, 683516, Note_off_c, 1, 50, 100
3, 683520, Note_on_c, 1, 62, 99
3, 683520, Note_on_c, 1, 50, 99
3, 683900, Note_off_c, 1, 62, 100
3, 683900, Note_off_c, 1, 50, 100
3, 684288, Note_on_c, 1, 61, 104
3, 684288, Note_on_c, 1, 57, 104
3, 684668, Note_off_c, 1, 61, 100
3, 684668, Note_off_c, 1, 57, 100
3, 684672, Note_on_c, 1, 61, 107
3, 684672, Note_on_c, 1, 57, 107
3, 685052, Note_off_c, 1, 61, 100
3, 685052, Note_off_c, 1, 57, 100
3, 685440, Note_on_c, 1, 62, 110
3, 685440, Note_on_c, 1, 50, 110
3, 685820, Note_off_c, 1, 62, 100
3, 685820, Note_off_c, 1, 50, 100
3, 685824, Note_on_c, 1, 62, 110
3, 685824, Note_on_c, 1, 50, 110
3, 686204, Note_off_c, 1, 62, 100
3, 686204, Note_off_c, 1, 50, 100
3, 686592, Note_on_c, 1, 55, 110
3, 686592, Note_on_c, 1, 52, 110
3, 686592, Note_on_c, 1, 49, 110
3, 686592, Note_on_c, 1, 45, 110
3, 686972, Note_off_c, 1, 55, 100
3, 686972, Note_off_c, 1, 52, 100
3, 686972, Note_off_c, 1, 49, 100
3, 686972, Note_off_c, 1, 45, 100
3, 691200, Note_on_c, 1, 38, 70
3, 691200, Note_on_c, 1, 50, 70
3, 691580, Note_off_c, 1, 38, 100
3, 691584, Note_on_c, 1, 38, 70
3, 691964, Note_off_c, 1, 38, 100
3, 691968, Note_on_c, 1, 38, 70
3, 692348, Note_off_c, 1, 50, 100
3, 692348, Note_off_c, 1, 38, 100
3, 692352, Note_on_c, 1, 42, 70
3, 692352, Note_on_c, 1, 38, 70
3, 692732, Note_off_c, 1, 38, 100
3, 692736, Note_on_c, 1, 38, 70
3, 693116, Note_off_c, 1, 38, 100
3, 693120, Note_on_c, 1, 38, 70
3, 693500, Note_off_c, 1, 42, 100
3, 693500, Note_off_c, 1, 38, 100
3, 693504, Note_on_c, 1, 38, 70
3, 693504, Note_on_c, 1, 43, 70
3, 693884, Note_off_c, 1, 38, 100
3, 693888, Note_on_c, 1, 38, 70
3, 694268, Note_off_c, 1, 38, 100
3, 694272, Note_on_c, 1, 38, 70
3, 694652, Note_off_c, 1, 43, 100
3, 694652, Note_off_c, 1, 38, 100
3, 694656, Note_on_c, 1, 38, 70
3, 694656, Note_on_c, 1, 47, 70
3, 695036, Note_off_c, 1, 38, 100
3, 695040, Note_on_c, 1, 38, 70
3, 695420, Note_off_c, 1, 38, 100
3, 695424, Note_on_c, 1, 38, 70
3, 695804, Note_off_c, 1, 47, 100
3, 695804, Note_off_c, 1, 38, 100
3, 695808, Note_on_c, 1, 52, 70
3, 695808, Note_on_c, 1, 38, 70
3, 696188, Note_off_c, 1, 38, 100
3, 696192, Note_on_c, 1, 38, 70
3, 696572, Note_off_c, 1, 38, 100
3, 696576, Note_on_c, 1, 38, 70
3, 696956, Note_off_c, 1, 52, 100
3, 696956, Note_off_c, 1, 38, 100
3, 696960, Note_on_c, 1, 49, 70
3, 696960, Note_on_c, 1, 38, 70
3, 697340, Note_off_c, 1, 38, 100
3, 697344, Note_on_c, 1, 38, 70
3, 697724, Note_off_c, 1, 38, 100
3, 697728, Note_on_c, 1, 38, 70
3, 698108, Note_off_c, 1, 49, 100
3, 698108, Note_off_c, 1, 38, 100
3, 698112, Note_on_c, 1, 50, 70
3, 698112, Note_on_c, 1, 38, 70
3, 698492, Note_off_c, 1, 38, 100
3, 698496, Note_on_c, 1, 38, 70
3, 698876, Note_off_c, 1, 38, 100
3, 698880, Note_on_c, 1, 38, 70
3, 699260, Note_off_c, 1, 50, 100
3, 699260, Note_off_c, 1, 38, 100
3, 699264, Note_on_c, 1, 42, 70
3, 699264, Note_on_c, 1, 38, 70
3, 699644, Note_off_c, 1, 38, 100
3, 699648, Note_on_c, 1, 38, 70
3, 700028, Note_off_c, 1, 38, 100
3, 700032, Note_on_c, 1, 38, 70
3, 700412, Note_off_c, 1, 42, 100
3, 700412, Note_off_c, 1, 38, 100
3, 700416, Note_on_c, 1, 45, 70
3, 700416, Note_on_c, 1, 38, 70
3, 700796, Note_off_c, 1, 38, 100
3, 700800, Note_on_c, 1, 38, 71
3, 701180, Note_off_c, 1, 38, 100
3, 701184, Note_on_c, 1, 38, 72
3, 701564, Note_off_c, 1, 45, 100
3, 701564, Note_off_c, 1, 38, 100
3, 701568, Note_on_c, 1, 38, 74
3, 701568, Note_on_c, 1, 50, 74
3, 701948, Note_off_c, 1, 38, 100
3, 701948, Note_off_c, 1, 50, 100
3, 701952, Note_on_c, 1, 38, 75
3, 702332, Note_off_c, 1, 38, 100
3, 702336, Note_on_c, 1, 38, 77
3, 702716, Note_off_c, 1, 38, 100
3, 702720, Note_on_c, 1, 45, 78
3, 702720, Note_on_c, 1, 38, 78
3, 703100, Note_off_c, 1, 38, 100
3, 703104, Note_on_c, 1, 38, 79
3, 703484, Note_off_c, 1, 38, 100
3, 703488, Note_on_c, 1, 38, 81
3, 703868, Note_off_c, 1, 45, 100
3, 703868, Note_off_c, 1, 38, 100
3, 703872, Note_on_c, 1, 38, 82
3, 703872, Note_on_c, 1, 50, 82
3, 704252, Note_off_c, 1, 38, 100
3, 704252, Note_off_c, 1, 50, 100
3, 704256, Note_on_c, 1, 38, 84
3, 704636, Note_off_c, 1, 38, 100
3, 704640, Note_on_c, 1, 38, 85
3, 705020, Note_off_c, 1, 38, 100
3, 705024, Note_on_c, 1, 45, 87
3, 705024, Note_on_c, 1, 38, 87
3, 705404, Note_off_c, 1, 38, 100
3, 705408, Note_on_c, 1, 38, 88
3, 705788, Note_off_c, 1, 38, 100
3, 705792, Note_on_c, 1, 38, 89
3, 706172, Note_off_c, 1, 45, 100
3, 706172, Note_off_c, 1, 38, 100
3, 706176, Note_on_c, 1, 38, 91
3, 706176, Note_on_c, 1, 50, 91
3, 706556, Note_off_c, 1, 38, 100
3, 706556, Note_off_c, 1, 50, 100
3, 706560, Note_on_c, 1, 38, 92
3, 706940, Note_off_c, 1, 38, 100
3, 706944, Note_on_c, 1, 38, 94
3, 707324, Note_off_c, 1, 38, 100
3, 707328, Note_on_c, 1, 45, 95
3, 707328, Note_on_c, 1, 38, 95
3, 707708, Note_off_c, 1, 38, 100
3, 707712, Note_on_c, 1, 38, 97
3, 708092, Note_off_c, 1, 38, 100
3, 708096, Note_on_c, 1, 38, 98
3, 708476, Note_off_c, 1, 45, 100
3, 708476, Note_off_c, 1, 38, 100
3, 708480, Note_on_c, 1, 38, 99
3, 708480, Note_on_c, 1, 50, 99
3, 708860, Note_off_c, 1, 38, 100
3, 708860, Note_off_c, 1, 50, 100
3, 708864, Note_on_c, 1, 38, 101
3, 709244, Note_off_c, 1, 38, 100
3, 709248, Note_on_c, 1, 38, 102
3, 709628, Note_off_c, 1, 38, 100
3, 709632, Note_on_c, 1, 45, 104
3, 709632, Note_on_c, 1, 38, 104
3, 710012, Note_off_c, 1, 38, 100
3, 710016, Note_on_c, 1, 38, 105
3, 710396, Note_off_c, 1, 38, 100
3, 710400, Note_on_c, 1, 38, 107
3, 710780, Note_off_c, 1, 45, 100
3, 710780, Note_off_c, 1, 38, 100
3, 710784, Note_on_c, 1, 38, 108
3, 710784, Note_on_c, 1, 50, 108
3, 711164, Note_off_c, 1, 38, 100
3, 711164, Note_off_c, 1, 50, 100
3, 711168, Note_on_c, 1, 38, 110
3, 711548, Note_off_c, 1, 38, 100
3, 711552, Note_on_c, 1, 38, 107
3, 711932, Note_off_c, 1, 38, 100
3, 711936, Note_on_c, 1, 38, 103
3, 711936, Note_on_c, 1, 45, 103
3, 712316, Note_off_c, 1, 38, 100
3, 712320, Note_on_c, 1, 38, 99
3, 712700, Note_off_c, 1, 38, 100
3, 712704, Note_on_c, 1, 38, 96
3, 713084, Note_off_c, 1, 45, 100
3, 713084, Note_off_c, 1, 38, 100
3, 713088, Note_on_c, 1, 38, 92
3, 713088, Note_on_c, 1, 42, 92
3, 713468, Note_off_c, 1, 38, 100
3, 713472, Note_on_c, 1, 38, 88
3, 713852, Note_off_c, 1, 38, 100
3, 713856, Note_on_c, 1, 38, 84
3, 714236, Note_off_c, 1, 42, 100
3, 714236, Note_off_c, 1, 38, 100
3, 714240, Note_on_c, 1, 38, 81
3, 714620, Note_off_c, 1, 38, 100
3, 715392, Note_on_c, 1, 64, 70
3, 715392, Note_on_c, 1, 57, 70
3, 715772, Note_off_c, 1, 64, 100
3, 715772, Note_off_c, 1, 57, 100
3, 716544, Note_on_c, 1, 62, 70
3, 716544, Note_on_c, 1, 50, 70
3, 717308, Note_off_c, 1, 62, 100
3, 717308, Note_off_c, 1, 50, 100
3, 717308, End_track
0, 0, End_of_file
