0, 0, Header, 1, 3, 384
1, 0, Start_track
1, 0, Title_t, "L.v.Beethoven 3mov - Piano Sonata No.15 in D Major Op.28\000"
1, 0, Copyright_t, "Copyright(C) 1995-2009, Suzuki Software\000"
1, 0, Sequencer_specific, 9, 67, 123, 0, 88, 70, 48, 50, 0, 1
1, 0, Text_t, "XFhd:2000/06/18:JP:Classical::::L.v.Beethoven:::Kaoru Suzuki\000"
1, 0, Text_t, "XFln:JP:\203s\203A\203m\203\\\203i\203^\221æ15\224Ô\203j\222·\222²\215ì\225i28\201`\221æ3\212y\217Í:L.v.\203x\201[\203g\201[\203\224\203F\203\223:::\227é\202¿\202á\202ñ:\227é\202¿\202á\202ñ\000"
1, 0, Time_signature, 3, 2, 96, 8
1, 0, Sequencer_specific, 3, 0, 0, 65
1, 0, Sequencer_specific, 5, 0, 0, 119, 14, 0
1, 0, Tempo, 200000
1, 50688, Tempo, 214285
1, 51840, Tempo, 240000
1, 56448, Tempo, 200000
1, 77184, Tempo, 214285
1, 78336, Tempo, 230769
1, 81792, Tempo, 200000
1, 95616, Tempo, 214285
1, 96768, Tempo, 240000
1, 101376, Tempo, 200000
1, 122112, Tempo, 214285
1, 123264, Tempo, 230769
1, 126720, Tempo, 200000
1, 161280, Tempo, 206896
1, 162432, Tempo, 222222
1, 163584, Tempo, 200000
1, 213120, Tempo, 206896
1, 214272, Tempo, 222222
1, 215424, Tempo, 240000
1, 216192, Tempo, 255319
1, 220032, Tempo, 200000
1, 240768, Tempo, 214285
1, 241920, Tempo, 240000
1, 242304, Tempo, 300000
1, 242304, End_track
2, 0, Start_track
2, 0, Title_t, "Right"
2, 0, Control_c, 0, 0, 0
2, 0, Program_c, 0, 0
2, 0, Control_c, 0, 7, 100
2, 0, Control_c, 0, 10, 73
2, 0, Control_c, 0, 91, 127
2, 0, Key_signature, 2, "major"
2, 0, Note_on_c, 0, 78, 80
2, 1152, Note_on_c, 0, 66, 80
2, 2300, Note_off_c, 0, 78, 100
2, 2300, Note_off_c, 0, 66, 100
2, 4608, Note_on_c, 0, 69, 80
2, 4796, Note_off_c, 0, 69, 100
2, 4800, Note_on_c, 0, 66, 80
2, 4988, Note_off_c, 0, 66, 100
2, 4992, Note_on_c, 0, 62, 80
2, 5372, Note_off_c, 0, 62, 100
2, 5760, Note_on_c, 0, 71, 80
2, 5948, Note_off_c, 0, 71, 100
2, 5952, Note_on_c, 0, 67, 80
2, 6140, Note_off_c, 0, 67, 100
2, 6144, Note_on_c, 0, 64, 80
2, 6524, Note_off_c, 0, 64, 100
2, 6912, Note_on_c, 0, 67, 80
2, 7100, Note_off_c, 0, 67, 100
2, 7104, Note_on_c, 0, 64, 80
2, 7292, Note_off_c, 0, 64, 100
2, 7296, Note_on_c, 0, 61, 80
2, 7676, Note_off_c, 0, 61, 100
2, 8064, Note_on_c, 0, 62, 80
2, 8444, Note_off_c, 0, 62, 100
2, 8448, Note_on_c, 0, 62, 80
2, 8828, Note_off_c, 0, 62, 100
2, 9216, Note_on_c, 0, 81, 80
2, 10368, Note_on_c, 0, 69, 80
2, 11516, Note_off_c, 0, 81, 100
2, 11516, Note_off_c, 0, 69, 100
2, 13824, Note_on_c, 0, 76, 80
2, 14012, Note_off_c, 0, 76, 100
2, 14016, Note_on_c, 0, 73, 80
2, 14204, Note_off_c, 0, 73, 100
2, 14208, Note_on_c, 0, 69, 80
2, 14588, Note_off_c, 0, 69, 100
2, 14976, Note_on_c, 0, 78, 80
2, 15164, Note_off_c, 0, 78, 100
2, 15168, Note_on_c, 0, 74, 80
2, 15356, Note_off_c, 0, 74, 100
2, 15360, Note_on_c, 0, 71, 80
2, 15740, Note_off_c, 0, 71, 100
2, 16128, Note_on_c, 0, 74, 80
2, 16316, Note_off_c, 0, 74, 100
2, 16320, Note_on_c, 0, 71, 80
2, 16508, Note_off_c, 0, 71, 100
2, 16512, Note_on_c, 0, 68, 80
2, 16892, Note_off_c, 0, 68, 100
2, 17280, Note_on_c, 0, 69, 80
2, 17660, Note_off_c, 0, 69, 100
2, 17664, Note_on_c, 0, 69, 80
2, 18044, Note_off_c, 0, 69, 100
2, 18432, Note_on_c, 0, 78, 110
2, 18432, Note_on_c, 0, 74, 110
2, 19580, Note_off_c, 0, 78, 100
2, 19580, Note_off_c, 0, 74, 100
2, 19584, Note_on_c, 0, 66, 110
2, 19584, Note_on_c, 0, 62, 110
2, 20732, Note_off_c, 0, 66, 100
2, 20732, Note_off_c, 0, 62, 100
2, 23040, Note_on_c, 0, 69, 80
2, 23040, Note_on_c, 0, 57, 80
2, 23228, Note_off_c, 0, 69, 100
2, 23232, Note_on_c, 0, 66, 80
2, 23420, Note_off_c, 0, 57, 100
2, 23420, Note_off_c, 0, 66, 100
2, 23424, Note_on_c, 0, 62, 80
2, 23424, Note_on_c, 0, 57, 80
2, 23804, Note_off_c, 0, 62, 100
2, 23804, Note_off_c, 0, 57, 100
2, 24192, Note_on_c, 0, 71, 80
2, 24192, Note_on_c, 0, 59, 80
2, 24380, Note_off_c, 0, 71, 100
2, 24384, Note_on_c, 0, 67, 80
2, 24572, Note_off_c, 0, 59, 100
2, 24572, Note_off_c, 0, 67, 100
2, 24576, Note_on_c, 0, 64, 80
2, 24576, Note_on_c, 0, 59, 80
2, 24956, Note_off_c, 0, 64, 100
2, 24956, Note_off_c, 0, 59, 100
2, 25344, Note_on_c, 0, 67, 80
2, 25344, Note_on_c, 0, 55, 80
2, 25532, Note_off_c, 0, 67, 100
2, 25536, Note_on_c, 0, 64, 80
2, 25724, Note_off_c, 0, 55, 100
2, 25724, Note_off_c, 0, 64, 100
2, 25728, Note_on_c, 0, 55, 80
2, 25728, Note_on_c, 0, 61, 80
2, 26108, Note_off_c, 0, 55, 100
2, 26108, Note_off_c, 0, 61, 100
2, 26496, Note_on_c, 0, 62, 80
2, 26496, Note_on_c, 0, 54, 80
2, 26876, Note_off_c, 0, 62, 100
2, 26876, Note_off_c, 0, 54, 100
2, 26880, Note_on_c, 0, 62, 80
2, 26880, Note_on_c, 0, 54, 80
2, 27260, Note_off_c, 0, 62, 100
2, 27260, Note_off_c, 0, 54, 100
2, 27648, Note_on_c, 0, 81, 110
2, 27648, Note_on_c, 0, 73, 110
2, 28796, Note_off_c, 0, 81, 100
2, 28796, Note_off_c, 0, 73, 100
2, 28800, Note_on_c, 0, 69, 110
2, 28800, Note_on_c, 0, 61, 110
2, 29948, Note_off_c, 0, 69, 100
2, 29948, Note_off_c, 0, 61, 100
2, 32256, Note_on_c, 0, 76, 80
2, 32256, Note_on_c, 0, 64, 80
2, 32444, Note_off_c, 0, 76, 100
2, 32448, Note_on_c, 0, 73, 80
2, 32636, Note_off_c, 0, 64, 100
2, 32636, Note_off_c, 0, 73, 100
2, 32640, Note_on_c, 0, 69, 80
2, 32640, Note_on_c, 0, 64, 80
2, 33020, Note_off_c, 0, 69, 100
2, 33020, Note_off_c, 0, 64, 100
2, 33408, Note_on_c, 0, 78, 80
2, 33408, Note_on_c, 0, 66, 80
2, 33596, Note_off_c, 0, 78, 100
2, 33600, Note_on_c, 0, 74, 80
2, 33788, Note_off_c, 0, 66, 100
2, 33788, Note_off_c, 0, 74, 100
2, 33792, Note_on_c, 0, 66, 80
2, 33792, Note_on_c, 0, 71, 80
2, 34172, Note_off_c, 0, 66, 100
2, 34172, Note_off_c, 0, 71, 100
2, 34560, Note_on_c, 0, 74, 80
2, 34560, Note_on_c, 0, 62, 80
2, 34748, Note_off_c, 0, 74, 100
2, 34752, Note_on_c, 0, 71, 80
2, 34940, Note_off_c, 0, 62, 100
2, 34940, Note_off_c, 0, 71, 100
2, 34944, Note_on_c, 0, 62, 80
2, 34944, Note_on_c, 0, 68, 80
2, 35324, Note_off_c, 0, 62, 100
2, 35324, Note_off_c, 0, 68, 100
2, 35712, Note_on_c, 0, 69, 80
2, 35712, Note_on_c, 0, 61, 80
2, 36092, Note_off_c, 0, 69, 100
2, 36092, Note_off_c, 0, 61, 100
2, 36096, Note_on_c, 0, 69, 80
2, 36096, Note_on_c, 0, 61, 80
2, 36476, Note_off_c, 0, 69, 100
2, 36476, Note_off_c, 0, 61, 100
2, 37248, Note_on_c, 0, 74, 70
2, 37248, Note_on_c, 0, 72, 70
2, 37248, Note_on_c, 0, 69, 70
2, 37628, Note_off_c, 0, 74, 100
2, 37628, Note_off_c, 0, 72, 100
2, 37628, Note_off_c, 0, 69, 100
2, 37632, Note_on_c, 0, 74, 70
2, 37632, Note_on_c, 0, 72, 70
2, 37632, Note_on_c, 0, 69, 70
2, 38012, Note_off_c, 0, 74, 100
2, 38012, Note_off_c, 0, 72, 100
2, 38012, Note_off_c, 0, 69, 100
2, 38400, Note_on_c, 0, 74, 70
2, 38400, Note_on_c, 0, 72, 70
2, 38400, Note_on_c, 0, 69, 70
2, 38780, Note_off_c, 0, 74, 100
2, 38780, Note_off_c, 0, 72, 100
2, 38780, Note_off_c, 0, 69, 100
2, 38784, Note_on_c, 0, 74, 70
2, 38784, Note_on_c, 0, 72, 70
2, 38784, Note_on_c, 0, 69, 70
2, 39164, Note_off_c, 0, 74, 100
2, 39164, Note_off_c, 0, 72, 100
2, 39164, Note_off_c, 0, 69, 100
2, 39552, Note_on_c, 0, 74, 70
2, 39552, Note_on_c, 0, 70, 70
2, 39932, Note_off_c, 0, 74, 100
2, 39932, Note_off_c, 0, 70, 100
2, 39936, Note_on_c, 0, 74, 70
2, 39936, Note_on_c, 0, 70, 70
2, 40316, Note_off_c, 0, 74, 100
2, 40316, Note_off_c, 0, 70, 100
2, 40704, Note_on_c, 0, 74, 70
2, 40704, Note_on_c, 0, 71, 70
2, 41084, Note_off_c, 0, 74, 100
2, 41084, Note_off_c, 0, 71, 100
2, 41088, Note_on_c, 0, 74, 70
2, 41088, Note_on_c, 0, 71, 70
2, 41468, Note_off_c, 0, 74, 100
2, 41468, Note_off_c, 0, 71, 100
2, 41856, Note_on_c, 0, 76, 71
2, 41856, Note_on_c, 0, 74, 71
2, 41856, Note_on_c, 0, 71, 71
2, 42236, Note_off_c, 0, 76, 100
2, 42236, Note_off_c, 0, 74, 100
2, 42236, Note_off_c, 0, 71, 100
2, 42240, Note_on_c, 0, 76, 72
2, 42240, Note_on_c, 0, 74, 72
2, 42240, Note_on_c, 0, 71, 72
2, 42620, Note_off_c, 0, 76, 100
2, 42620, Note_off_c, 0, 74, 100
2, 42620, Note_off_c, 0, 71, 100
2, 43008, Note_on_c, 0, 76, 74
2, 43008, Note_on_c, 0, 74, 74
2, 43008, Note_on_c, 0, 71, 74
2, 43388, Note_off_c, 0, 76, 100
2, 43388, Note_off_c, 0, 74, 100
2, 43388, Note_off_c, 0, 71, 100
2, 43392, Note_on_c, 0, 76, 75
2, 43392, Note_on_c, 0, 74, 75
2, 43392, Note_on_c, 0, 71, 75
2, 43772, Note_off_c, 0, 76, 100
2, 43772, Note_off_c, 0, 74, 100
2, 43772, Note_off_c, 0, 71, 100
2, 44160, Note_on_c, 0, 76, 78
2, 44160, Note_on_c, 0, 72, 78
2, 44540, Note_off_c, 0, 76, 100
2, 44540, Note_off_c, 0, 72, 100
2, 44544, Note_on_c, 0, 76, 79
2, 44544, Note_on_c, 0, 72, 79
2, 44924, Note_off_c, 0, 76, 100
2, 44924, Note_off_c, 0, 72, 100
2, 45312, Note_on_c, 0, 76, 81
2, 45312, Note_on_c, 0, 73, 81
2, 45692, Note_off_c, 0, 76, 100
2, 45692, Note_off_c, 0, 73, 100
2, 45696, Note_on_c, 0, 76, 82
2, 45696, Note_on_c, 0, 73, 82
2, 46076, Note_off_c, 0, 76, 100
2, 46076, Note_off_c, 0, 73, 100
2, 46464, Note_on_c, 0, 78, 84
2, 46464, Note_on_c, 0, 76, 84
2, 46464, Note_on_c, 0, 73, 84
2, 46844, Note_off_c, 0, 78, 100
2, 46844, Note_off_c, 0, 76, 100
2, 46844, Note_off_c, 0, 73, 100
2, 46848, Note_on_c, 0, 78, 86
2, 46848, Note_on_c, 0, 76, 86
2, 46848, Note_on_c, 0, 73, 86
2, 47228, Note_off_c, 0, 78, 100
2, 47228, Note_off_c, 0, 76, 100
2, 47228, Note_off_c, 0, 73, 100
2, 47616, Note_on_c, 0, 78, 88
2, 47616, Note_on_c, 0, 76, 88
2, 47616, Note_on_c, 0, 73, 88
2, 47996, Note_off_c, 0, 78, 100
2, 47996, Note_off_c, 0, 76, 100
2, 47996, Note_off_c, 0, 73, 100
2, 48000, Note_on_c, 0, 78, 89
2, 48000, Note_on_c, 0, 76, 89
2, 48000, Note_on_c, 0, 73, 89
2, 48380, Note_off_c, 0, 78, 100
2, 48380, Note_off_c, 0, 76, 100
2, 48380, Note_off_c, 0, 73, 100
2, 48768, Note_on_c, 0, 78, 91
2, 48768, Note_on_c, 0, 73, 91
2, 49148, Note_off_c, 0, 78, 100
2, 49148, Note_off_c, 0, 73, 100
2, 49152, Note_on_c, 0, 78, 93
2, 49152, Note_on_c, 0, 73, 93
2, 49532, Note_off_c, 0, 78, 100
2, 49532, Note_off_c, 0, 73, 100
2, 49920, Note_on_c, 0, 78, 95
2, 49920, Note_on_c, 0, 74, 95
2, 50300, Note_off_c, 0, 78, 100
2, 50300, Note_off_c, 0, 74, 100
2, 50304, Note_on_c, 0, 78, 96
2, 50304, Note_on_c, 0, 74, 96
2, 50684, Note_off_c, 0, 78, 100
2, 50684, Note_off_c, 0, 74, 100
2, 51072, Note_on_c, 0, 79, 98
2, 51072, Note_on_c, 0, 74, 98
2, 51452, Note_off_c, 0, 79, 100
2, 51452, Note_off_c, 0, 74, 100
2, 51456, Note_on_c, 0, 79, 99
2, 51456, Note_on_c, 0, 74, 99
2, 51836, Note_off_c, 0, 79, 100
2, 51836, Note_off_c, 0, 74, 100
2, 52224, Note_on_c, 0, 79, 86
2, 52224, Note_on_c, 0, 75, 86
2, 52604, Note_off_c, 0, 79, 100
2, 52604, Note_off_c, 0, 75, 100
2, 52608, Note_on_c, 0, 79, 71
2, 52608, Note_on_c, 0, 75, 71
2, 52988, Note_off_c, 0, 79, 100
2, 52988, Note_off_c, 0, 75, 100
2, 53376, Note_on_c, 0, 69, 80
2, 53376, Note_on_c, 0, 76, 80
2, 53376, Note_on_c, 0, 79, 80
2, 56444, Note_off_c, 0, 69, 100
2, 56444, Note_off_c, 0, 76, 100
2, 56444, Note_off_c, 0, 79, 100
2, 56448, Note_on_c, 0, 78, 80
2, 56448, Note_on_c, 0, 74, 80
2, 57596, Note_off_c, 0, 78, 100
2, 57596, Note_off_c, 0, 74, 100
2, 57600, Note_on_c, 0, 66, 80
2, 57600, Note_on_c, 0, 62, 80
2, 58748, Note_off_c, 0, 66, 100
2, 58748, Note_off_c, 0, 62, 100
2, 61056, Note_on_c, 0, 69, 80
2, 61244, Note_off_c, 0, 69, 100
2, 61248, Note_on_c, 0, 66, 80
2, 61436, Note_off_c, 0, 66, 100
2, 61440, Note_on_c, 0, 62, 80
2, 61820, Note_off_c, 0, 62, 100
2, 62208, Note_on_c, 0, 71, 80
2, 62396, Note_off_c, 0, 71, 100
2, 62400, Note_on_c, 0, 67, 80
2, 62588, Note_off_c, 0, 67, 100
2, 62592, Note_on_c, 0, 64, 80
2, 62972, Note_off_c, 0, 64, 100
2, 63360, Note_on_c, 0, 67, 80
2, 63548, Note_off_c, 0, 67, 100
2, 63552, Note_on_c, 0, 64, 80
2, 63740, Note_off_c, 0, 64, 100
2, 63744, Note_on_c, 0, 61, 80
2, 64124, Note_off_c, 0, 61, 100
2, 64512, Note_on_c, 0, 62, 80
2, 64892, Note_off_c, 0, 62, 100
2, 64896, Note_on_c, 0, 62, 80
2, 65276, Note_off_c, 0, 62, 100
2, 65664, Note_on_c, 0, 81, 120
2, 65664, Note_on_c, 0, 78, 120
2, 65664, Note_on_c, 0, 86, 120
2, 66812, Note_off_c, 0, 81, 100
2, 66812, Note_off_c, 0, 78, 100
2, 66812, Note_off_c, 0, 86, 100
2, 66816, Note_on_c, 0, 74, 120
2, 66816, Note_on_c, 0, 69, 120
2, 66816, Note_on_c, 0, 66, 120
2, 67964, Note_off_c, 0, 74, 100
2, 67964, Note_off_c, 0, 69, 100
2, 67964, Note_off_c, 0, 66, 100
2, 70272, Note_on_c, 0, 81, 80
2, 70460, Note_off_c, 0, 81, 100
2, 70464, Note_on_c, 0, 78, 80
2, 70652, Note_off_c, 0, 78, 100
2, 70656, Note_on_c, 0, 75, 80
2, 71036, Note_off_c, 0, 75, 100
2, 71424, Note_on_c, 0, 83, 80
2, 71612, Note_off_c, 0, 83, 100
2, 71616, Note_on_c, 0, 79, 80
2, 71804, Note_off_c, 0, 79, 100
2, 71808, Note_on_c, 0, 76, 80
2, 72188, Note_off_c, 0, 76, 100
2, 72576, Note_on_c, 0, 81, 80
2, 72764, Note_off_c, 0, 81, 100
2, 72768, Note_on_c, 0, 76, 80
2, 72956, Note_off_c, 0, 76, 100
2, 72960, Note_on_c, 0, 73, 80
2, 73340, Note_off_c, 0, 73, 100
2, 73728, Note_on_c, 0, 74, 80
2, 73916, Note_off_c, 0, 74, 100
2, 73920, Note_on_c, 0, 69, 81
2, 74108, Note_off_c, 0, 69, 100
2, 74112, Note_on_c, 0, 66, 82
2, 74492, Note_off_c, 0, 66, 100
2, 74880, Note_on_c, 0, 69, 88
2, 75068, Note_off_c, 0, 69, 100
2, 75072, Note_on_c, 0, 64, 89
2, 75260, Note_off_c, 0, 64, 100
2, 75264, Note_on_c, 0, 61, 90
2, 75644, Note_off_c, 0, 61, 100
2, 76032, Note_on_c, 0, 62, 96
2, 76220, Note_off_c, 0, 62, 100
2, 76224, Note_on_c, 0, 57, 97
2, 76412, Note_off_c, 0, 57, 100
2, 76416, Note_on_c, 0, 54, 99
2, 76796, Note_off_c, 0, 54, 100
2, 77184, Note_on_c, 0, 57, 104
2, 77372, Note_off_c, 0, 57, 100
2, 77376, Note_on_c, 0, 52, 105
2, 77564, Note_off_c, 0, 52, 100
2, 77568, Note_on_c, 0, 49, 107
2, 77948, Note_off_c, 0, 49, 100
2, 78336, Note_on_c, 0, 50, 110
2, 78716, Note_off_c, 0, 50, 100
2, 78720, Note_on_c, 0, 50, 110
2, 79100, Note_off_c, 0, 50, 100
2, 79488, Note_on_c, 0, 86, 110
2, 79488, Note_on_c, 0, 74, 110
2, 80636, Note_off_c, 0, 86, 100
2, 80636, Note_off_c, 0, 74, 100
2, 82176, Note_on_c, 0, 74, 70
2, 82176, Note_on_c, 0, 72, 70
2, 82176, Note_on_c, 0, 69, 70
2, 82556, Note_off_c, 0, 74, 100
2, 82556, Note_off_c, 0, 72, 100
2, 82556, Note_off_c, 0, 69, 100
2, 82560, Note_on_c, 0, 74, 70
2, 82560, Note_on_c, 0, 72, 70
2, 82560, Note_on_c, 0, 69, 70
2, 82940, Note_off_c, 0, 74, 100
2, 82940, Note_off_c, 0, 72, 100
2, 82940, Note_off_c, 0, 69, 100
2, 83328, Note_on_c, 0, 74, 70
2, 83328, Note_on_c, 0, 72, 70
2, 83328, Note_on_c, 0, 69, 70
2, 83708, Note_off_c, 0, 74, 100
2, 83708, Note_off_c, 0, 72, 100
2, 83708, Note_off_c, 0, 69, 100
2, 83712, Note_on_c, 0, 74, 70
2, 83712, Note_on_c, 0, 72, 70
2, 83712, Note_on_c, 0, 69, 70
2, 84092, Note_off_c, 0, 74, 100
2, 84092, Note_off_c, 0, 72, 100
2, 84092, Note_off_c, 0, 69, 100
2, 84480, Note_on_c, 0, 74, 70
2, 84480, Note_on_c, 0, 70, 70
2, 84860, Note_off_c, 0, 74, 100
2, 84860, Note_off_c, 0, 70, 100
2, 84864, Note_on_c, 0, 74, 70
2, 84864, Note_on_c, 0, 70, 70
2, 85244, Note_off_c, 0, 74, 100
2, 85244, Note_off_c, 0, 70, 100
2, 85632, Note_on_c, 0, 74, 70
2, 85632, Note_on_c, 0, 71, 70
2, 86012, Note_off_c, 0, 74, 100
2, 86012, Note_off_c, 0, 71, 100
2, 86016, Note_on_c, 0, 74, 70
2, 86016, Note_on_c, 0, 71, 70
2, 86396, Note_off_c, 0, 74, 100
2, 86396, Note_off_c, 0, 71, 100
2, 86784, Note_on_c, 0, 76, 70
2, 86784, Note_on_c, 0, 74, 70
2, 86784, Note_on_c, 0, 71, 70
2, 87164, Note_off_c, 0, 76, 100
2, 87164, Note_off_c, 0, 74, 100
2, 87164, Note_off_c, 0, 71, 100
2, 87168, Note_on_c, 0, 76, 70
2, 87168, Note_on_c, 0, 74, 70
2, 87168, Note_on_c, 0, 71, 70
2, 87548, Note_off_c, 0, 76, 100
2, 87548, Note_off_c, 0, 74, 100
2, 87548, Note_off_c, 0, 71, 100
2, 87936, Note_on_c, 0, 76, 71
2, 87936, Note_on_c, 0, 74, 71
2, 87936, Note_on_c, 0, 71, 71
2, 88316, Note_off_c, 0, 76, 100
2, 88316, Note_off_c, 0, 74, 100
2, 88316, Note_off_c, 0, 71, 100
2, 88320, Note_on_c, 0, 76, 73
2, 88320, Note_on_c, 0, 74, 73
2, 88320, Note_on_c, 0, 71, 73
2, 88700, Note_off_c, 0, 76, 100
2, 88700, Note_off_c, 0, 74, 100
2, 88700, Note_off_c, 0, 71, 100
2, 89088, Note_on_c, 0, 76, 77
2, 89088, Note_on_c, 0, 72, 77
2, 89468, Note_off_c, 0, 76, 100
2, 89468, Note_off_c, 0, 72, 100
2, 89472, Note_on_c, 0, 76, 78
2, 89472, Note_on_c, 0, 72, 78
2, 89852, Note_off_c, 0, 76, 100
2, 89852, Note_off_c, 0, 72, 100
2, 90240, Note_on_c, 0, 76, 82
2, 90240, Note_on_c, 0, 73, 82
2, 90620, Note_off_c, 0, 76, 100
2, 90620, Note_off_c, 0, 73, 100
2, 90624, Note_on_c, 0, 76, 84
2, 90624, Note_on_c, 0, 73, 84
2, 91004, Note_off_c, 0, 76, 100
2, 91004, Note_off_c, 0, 73, 100
2, 91392, Note_on_c, 0, 78, 87
2, 91392, Note_on_c, 0, 76, 87
2, 91392, Note_on_c, 0, 73, 87
2, 91772, Note_off_c, 0, 78, 100
2, 91772, Note_off_c, 0, 76, 100
2, 91772, Note_off_c, 0, 73, 100
2, 91776, Note_on_c, 0, 78, 89
2, 91776, Note_on_c, 0, 76, 89
2, 91776, Note_on_c, 0, 73, 89
2, 92156, Note_off_c, 0, 78, 100
2, 92156, Note_off_c, 0, 76, 100
2, 92156, Note_off_c, 0, 73, 100
2, 92544, Note_on_c, 0, 78, 93
2, 92544, Note_on_c, 0, 76, 93
2, 92544, Note_on_c, 0, 73, 93
2, 92924, Note_off_c, 0, 78, 100
2, 92924, Note_off_c, 0, 76, 100
2, 92924, Note_off_c, 0, 73, 100
2, 92928, Note_on_c, 0, 78, 94
2, 92928, Note_on_c, 0, 76, 94
2, 92928, Note_on_c, 0, 73, 94
2, 93308, Note_off_c, 0, 78, 100
2, 93308, Note_off_c, 0, 76, 100
2, 93308, Note_off_c, 0, 73, 100
2, 93696, Note_on_c, 0, 78, 98
2, 93696, Note_on_c, 0, 73, 98
2, 94076, Note_off_c, 0, 78, 100
2, 94076, Note_off_c, 0, 73, 100
2, 94080, Note_on_c, 0, 78, 100
2, 94080, Note_on_c, 0, 73, 100
2, 94460, Note_off_c, 0, 78, 100
2, 94460, Note_off_c, 0, 73, 100
2, 94848, Note_on_c, 0, 78, 103
2, 94848, Note_on_c, 0, 74, 103
2, 95228, Note_off_c, 0, 78, 100
2, 95228, Note_off_c, 0, 74, 100
2, 95232, Note_on_c, 0, 78, 105
2, 95232, Note_on_c, 0, 74, 105
2, 95612, Note_off_c, 0, 78, 100
2, 95612, Note_off_c, 0, 74, 100
2, 96000, Note_on_c, 0, 79, 109
2, 96000, Note_on_c, 0, 74, 109
2, 96380, Note_off_c, 0, 79, 100
2, 96380, Note_off_c, 0, 74, 100
2, 96384, Note_on_c, 0, 79, 110
2, 96384, Note_on_c, 0, 74, 110
2, 96764, Note_off_c, 0, 79, 100
2, 96764, Note_off_c, 0, 74, 100
2, 97152, Note_on_c, 0, 79, 93
2, 97152, Note_on_c, 0, 75, 93
2, 97532, Note_off_c, 0, 79, 100
2, 97532, Note_off_c, 0, 75, 100
2, 97536, Note_on_c, 0, 79, 81
2, 97536, Note_on_c, 0, 75, 81
2, 97916, Note_off_c, 0, 79, 100
2, 97916, Note_off_c, 0, 75, 100
2, 98304, Note_on_c, 0, 69, 80
2, 98304, Note_on_c, 0, 76, 80
2, 98304, Note_on_c, 0, 79, 80
2, 101372, Note_off_c, 0, 69, 100
2, 101372, Note_off_c, 0, 76, 100
2, 101372, Note_off_c, 0, 79, 100
2, 101376, Note_on_c, 0, 78, 80
2, 101376, Note_on_c, 0, 74, 80
2, 102524, Note_off_c, 0, 78, 100
2, 102524, Note_off_c, 0, 74, 100
2, 102528, Note_on_c, 0, 66, 80
2, 102528, Note_on_c, 0, 62, 80
2, 103676, Note_off_c, 0, 66, 100
2, 103676, Note_off_c, 0, 62, 100
2, 105984, Note_on_c, 0, 69, 80
2, 106172, Note_off_c, 0, 69, 100
2, 106176, Note_on_c, 0, 66, 80
2, 106364, Note_off_c, 0, 66, 100
2, 106368, Note_on_c, 0, 62, 80
2, 106748, Note_off_c, 0, 62, 100
2, 107136, Note_on_c, 0, 71, 80
2, 107324, Note_off_c, 0, 71, 100
2, 107328, Note_on_c, 0, 67, 80
2, 107516, Note_off_c, 0, 67, 100
2, 107520, Note_on_c, 0, 64, 80
2, 107900, Note_off_c, 0, 64, 100
2, 108288, Note_on_c, 0, 67, 80
2, 108476, Note_off_c, 0, 67, 100
2, 108480, Note_on_c, 0, 64, 80
2, 108668, Note_off_c, 0, 64, 100
2, 108672, Note_on_c, 0, 61, 80
2, 109052, Note_off_c, 0, 61, 100
2, 109440, Note_on_c, 0, 62, 80
2, 109820, Note_off_c, 0, 62, 100
2, 109824, Note_on_c, 0, 62, 80
2, 110204, Note_off_c, 0, 62, 100
2, 110592, Note_on_c, 0, 81, 120
2, 110592, Note_on_c, 0, 78, 120
2, 110592, Note_on_c, 0, 86, 120
2, 111740, Note_off_c, 0, 81, 100
2, 111740, Note_off_c, 0, 78, 100
2, 111740, Note_off_c, 0, 86, 100
2, 111744, Note_on_c, 0, 74, 120
2, 111744, Note_on_c, 0, 69, 120
2, 111744, Note_on_c, 0, 66, 120
2, 112892, Note_off_c, 0, 74, 100
2, 112892, Note_off_c, 0, 69, 100
2, 112892, Note_off_c, 0, 66, 100
2, 115200, Note_on_c, 0, 81, 80
2, 115388, Note_off_c, 0, 81, 100
2, 115392, Note_on_c, 0, 78, 80
2, 115580, Note_off_c, 0, 78, 100
2, 115584, Note_on_c, 0, 75, 80
2, 115964, Note_off_c, 0, 75, 100
2, 116352, Note_on_c, 0, 83, 80
2, 116540, Note_off_c, 0, 83, 100
2, 116544, Note_on_c, 0, 79, 80
2, 116732, Note_off_c, 0, 79, 100
2, 116736, Note_on_c, 0, 76, 80
2, 117116, Note_off_c, 0, 76, 100
2, 117504, Note_on_c, 0, 81, 80
2, 117692, Note_off_c, 0, 81, 100
2, 117696, Note_on_c, 0, 76, 80
2, 117884, Note_off_c, 0, 76, 100
2, 117888, Note_on_c, 0, 73, 80
2, 118268, Note_off_c, 0, 73, 100
2, 118656, Note_on_c, 0, 74, 80
2, 118844, Note_off_c, 0, 74, 100
2, 118848, Note_on_c, 0, 69, 81
2, 119036, Note_off_c, 0, 69, 100
2, 119040, Note_on_c, 0, 66, 83
2, 119420, Note_off_c, 0, 66, 100
2, 119808, Note_on_c, 0, 69, 89
2, 119996, Note_off_c, 0, 69, 100
2, 120000, Note_on_c, 0, 64, 90
2, 120188, Note_off_c, 0, 64, 100
2, 120192, Note_on_c, 0, 61, 92
2, 120572, Note_off_c, 0, 61, 100
2, 120960, Note_on_c, 0, 62, 98
2, 121148, Note_off_c, 0, 62, 100
2, 121152, Note_on_c, 0, 57, 100
2, 121340, Note_off_c, 0, 57, 100
2, 121344, Note_on_c, 0, 54, 101
2, 121724, Note_off_c, 0, 54, 100
2, 122112, Note_on_c, 0, 57, 107
2, 122300, Note_off_c, 0, 57, 100
2, 122304, Note_on_c, 0, 52, 109
2, 122492, Note_off_c, 0, 52, 100
2, 122496, Note_on_c, 0, 49, 110
2, 122876, Note_off_c, 0, 49, 100
2, 123264, Note_on_c, 0, 50, 110
2, 123644, Note_off_c, 0, 50, 100
2, 123648, Note_on_c, 0, 50, 110
2, 124028, Note_off_c, 0, 50, 100
2, 124416, Note_on_c, 0, 86, 110
2, 124416, Note_on_c, 0, 74, 110
2, 125564, Note_off_c, 0, 86, 100
2, 125564, Note_off_c, 0, 74, 100
2, 126720, Note_on_c, 0, 78, 80
2, 127868, Note_off_c, 0, 78, 100
2, 127872, Note_on_c, 0, 76, 80
2, 127964, Note_off_c, 0, 76, 100
2, 127968, Note_on_c, 0, 74, 80
2, 128444, Note_off_c, 0, 74, 100
2, 128448, Note_on_c, 0, 73, 80
2, 128636, Note_off_c, 0, 73, 100
2, 128640, Note_on_c, 0, 71, 80
2, 129020, Note_off_c, 0, 71, 100
2, 129024, Note_on_c, 0, 71, 80
2, 129404, Note_off_c, 0, 71, 100
2, 129408, Note_on_c, 0, 71, 80
2, 129788, Note_off_c, 0, 71, 100
2, 129792, Note_on_c, 0, 70, 80
2, 130172, Note_off_c, 0, 70, 100
2, 130176, Note_on_c, 0, 71, 80
2, 131324, Note_off_c, 0, 71, 100
2, 131328, Note_on_c, 0, 78, 80
2, 132476, Note_off_c, 0, 78, 100
2, 132480, Note_on_c, 0, 76, 80
2, 132572, Note_off_c, 0, 76, 100
2, 132576, Note_on_c, 0, 74, 80
2, 133052, Note_off_c, 0, 74, 100
2, 133056, Note_on_c, 0, 73, 80
2, 133244, Note_off_c, 0, 73, 100
2, 133248, Note_on_c, 0, 71, 80
2, 133628, Note_off_c, 0, 71, 100
2, 133632, Note_on_c, 0, 71, 80
2, 134012, Note_off_c, 0, 71, 100
2, 134016, Note_on_c, 0, 71, 80
2, 134396, Note_off_c, 0, 71, 100
2, 134400, Note_on_c, 0, 73, 80
2, 134780, Note_off_c, 0, 73, 100
2, 134784, Note_on_c, 0, 74, 80
2, 135932, Note_off_c, 0, 74, 100
2, 135936, Note_on_c, 0, 78, 80
2, 137084, Note_off_c, 0, 78, 100
2, 137088, Note_on_c, 0, 76, 80
2, 137180, Note_off_c, 0, 76, 100
2, 137184, Note_on_c, 0, 74, 80
2, 137660, Note_off_c, 0, 74, 100
2, 137664, Note_on_c, 0, 73, 80
2, 137852, Note_off_c, 0, 73, 100
2, 137856, Note_on_c, 0, 71, 80
2, 138236, Note_off_c, 0, 71, 100
2, 138240, Note_on_c, 0, 71, 80
2, 138620, Note_off_c, 0, 71, 100
2, 138624, Note_on_c, 0, 71, 80
2, 139004, Note_off_c, 0, 71, 100
2, 139008, Note_on_c, 0, 70, 80
2, 139388, Note_off_c, 0, 70, 100
2, 139392, Note_on_c, 0, 71, 80
2, 140540, Note_off_c, 0, 71, 100
2, 140544, Note_on_c, 0, 78, 80
2, 141692, Note_off_c, 0, 78, 100
2, 141696, Note_on_c, 0, 76, 80
2, 141788, Note_off_c, 0, 76, 100
2, 141792, Note_on_c, 0, 74, 80
2, 142268, Note_off_c, 0, 74, 100
2, 142272, Note_on_c, 0, 73, 80
2, 142460, Note_off_c, 0, 73, 100
2, 142464, Note_on_c, 0, 71, 80
2, 142844, Note_off_c, 0, 71, 100
2, 142848, Note_on_c, 0, 71, 80
2, 143228, Note_off_c, 0, 71, 100
2, 143232, Note_on_c, 0, 71, 80
2, 143612, Note_off_c, 0, 71, 100
2, 143616, Note_on_c, 0, 73, 80
2, 143996, Note_off_c, 0, 73, 100
2, 144000, Note_on_c, 0, 74, 80
2, 145148, Note_off_c, 0, 74, 100
2, 145152, Note_on_c, 0, 78, 80
2, 146300, Note_off_c, 0, 78, 100
2, 146304, Note_on_c, 0, 76, 91
2, 146396, Note_off_c, 0, 76, 100
2, 146400, Note_on_c, 0, 74, 92
2, 146876, Note_off_c, 0, 74, 100
2, 146880, Note_on_c, 0, 73, 97
2, 147068, Note_off_c, 0, 73, 100
2, 147072, Note_on_c, 0, 71, 99
2, 147452, Note_off_c, 0, 71, 100
2, 147456, Note_on_c, 0, 71, 100
2, 147836, Note_off_c, 0, 71, 100
2, 147840, Note_on_c, 0, 71, 97
2, 148220, Note_off_c, 0, 71, 100
2, 148224, Note_on_c, 0, 73, 93
2, 148604, Note_off_c, 0, 73, 100
2, 148608, Note_on_c, 0, 74, 90
2, 149756, Note_off_c, 0, 74, 100
2, 149760, Note_on_c, 0, 78, 80
2, 150908, Note_off_c, 0, 78, 100
2, 150912, Note_on_c, 0, 76, 80
2, 151004, Note_off_c, 0, 76, 100
2, 151008, Note_on_c, 0, 74, 80
2, 151484, Note_off_c, 0, 74, 100
2, 151488, Note_on_c, 0, 73, 80
2, 151676, Note_off_c, 0, 73, 100
2, 151680, Note_on_c, 0, 71, 80
2, 152060, Note_off_c, 0, 71, 100
2, 152064, Note_on_c, 0, 71, 80
2, 152444, Note_off_c, 0, 71, 100
2, 152448, Note_on_c, 0, 71, 80
2, 152828, Note_off_c, 0, 71, 100
2, 152832, Note_on_c, 0, 70, 80
2, 153212, Note_off_c, 0, 70, 100
2, 153216, Note_on_c, 0, 71, 80
2, 154364, Note_off_c, 0, 71, 100
2, 154368, Note_on_c, 0, 78, 80
2, 155516, Note_off_c, 0, 78, 100
2, 155520, Note_on_c, 0, 76, 90
2, 155612, Note_off_c, 0, 76, 100
2, 155616, Note_on_c, 0, 74, 91
2, 156092, Note_off_c, 0, 74, 100
2, 156096, Note_on_c, 0, 73, 95
2, 156284, Note_off_c, 0, 73, 100
2, 156288, Note_on_c, 0, 71, 97
2, 156668, Note_off_c, 0, 71, 100
2, 156672, Note_on_c, 0, 71, 101
2, 157052, Note_off_c, 0, 71, 100
2, 157056, Note_on_c, 0, 71, 104
2, 157436, Note_off_c, 0, 71, 100
2, 157440, Note_on_c, 0, 73, 108
2, 157820, Note_off_c, 0, 73, 100
2, 157824, Note_on_c, 0, 74, 110
2, 158972, Note_off_c, 0, 74, 100
2, 158976, Note_on_c, 0, 78, 110
2, 160124, Note_off_c, 0, 78, 100
2, 160128, Note_on_c, 0, 76, 80
2, 160220, Note_off_c, 0, 76, 100
2, 160224, Note_on_c, 0, 74, 80
2, 160700, Note_off_c, 0, 74, 100
2, 160704, Note_on_c, 0, 73, 80
2, 160892, Note_off_c, 0, 73, 100
2, 160896, Note_on_c, 0, 71, 80
2, 161276, Note_off_c, 0, 71, 100
2, 161280, Note_on_c, 0, 71, 80
2, 161660, Note_off_c, 0, 71, 100
2, 161664, Note_on_c, 0, 71, 80
2, 162044, Note_off_c, 0, 71, 100
2, 162048, Note_on_c, 0, 70, 80
2, 162428, Note_off_c, 0, 70, 100
2, 162432, Note_on_c, 0, 71, 80
2, 163580, Note_off_c, 0, 71, 100
2, 163584, Note_on_c, 0, 78, 80
2, 164736, Note_on_c, 0, 66, 80
2, 165884, Note_off_c, 0, 78, 100
2, 165884, Note_off_c, 0, 66, 100
2, 168192, Note_on_c, 0, 69, 80
2, 168380, Note_off_c, 0, 69, 100
2, 168384, Note_on_c, 0, 66, 80
2, 168572, Note_off_c, 0, 66, 100
2, 168576, Note_on_c, 0, 62, 80
2, 168956, Note_off_c, 0, 62, 100
2, 169344, Note_on_c, 0, 71, 80
2, 169532, Note_off_c, 0, 71, 100
2, 169536, Note_on_c, 0, 67, 80
2, 169724, Note_off_c, 0, 67, 100
2, 169728, Note_on_c, 0, 64, 80
2, 170108, Note_off_c, 0, 64, 100
2, 170496, Note_on_c, 0, 67, 80
2, 170684, Note_off_c, 0, 67, 100
2, 170688, Note_on_c, 0, 64, 80
2, 170876, Note_off_c, 0, 64, 100
2, 170880, Note_on_c, 0, 61, 80
2, 171260, Note_off_c, 0, 61, 100
2, 171648, Note_on_c, 0, 62, 80
2, 172028, Note_off_c, 0, 62, 100
2, 172032, Note_on_c, 0, 62, 80
2, 172412, Note_off_c, 0, 62, 100
2, 172800, Note_on_c, 0, 81, 80
2, 173952, Note_on_c, 0, 69, 80
2, 175100, Note_off_c, 0, 81, 100
2, 175100, Note_off_c, 0, 69, 100
2, 177408, Note_on_c, 0, 76, 80
2, 177596, Note_off_c, 0, 76, 100
2, 177600, Note_on_c, 0, 73, 80
2, 177788, Note_off_c, 0, 73, 100
2, 177792, Note_on_c, 0, 69, 80
2, 178172, Note_off_c, 0, 69, 100
2, 178560, Note_on_c, 0, 78, 80
2, 178748, Note_off_c, 0, 78, 100
2, 178752, Note_on_c, 0, 74, 80
2, 178940, Note_off_c, 0, 74, 100
2, 178944, Note_on_c, 0, 71, 80
2, 179324, Note_off_c, 0, 71, 100
2, 179712, Note_on_c, 0, 74, 80
2, 179900, Note_off_c, 0, 74, 100
2, 179904, Note_on_c, 0, 71, 80
2, 180092, Note_off_c, 0, 71, 100
2, 180096, Note_on_c, 0, 68, 80
2, 180476, Note_off_c, 0, 68, 100
2, 180864, Note_on_c, 0, 69, 80
2, 181244, Note_off_c, 0, 69, 100
2, 181248, Note_on_c, 0, 69, 80
2, 181628, Note_off_c, 0, 69, 100
2, 182016, Note_on_c, 0, 78, 110
2, 182016, Note_on_c, 0, 74, 110
2, 183164, Note_off_c, 0, 78, 100
2, 183164, Note_off_c, 0, 74, 100
2, 183168, Note_on_c, 0, 66, 110
2, 183168, Note_on_c, 0, 62, 110
2, 184316, Note_off_c, 0, 66, 100
2, 184316, Note_off_c, 0, 62, 100
2, 186624, Note_on_c, 0, 69, 80
2, 186624, Note_on_c, 0, 57, 80
2, 186812, Note_off_c, 0, 69, 100
2, 186816, Note_on_c, 0, 66, 80
2, 187004, Note_off_c, 0, 57, 100
2, 187004, Note_off_c, 0, 66, 100
2, 187008, Note_on_c, 0, 62, 80
2, 187008, Note_on_c, 0, 57, 80
2, 187388, Note_off_c, 0, 62, 100
2, 187388, Note_off_c, 0, 57, 100
2, 187776, Note_on_c, 0, 71, 80
2, 187776, Note_on_c, 0, 59, 80
2, 187964, Note_off_c, 0, 71, 100
2, 187968, Note_on_c, 0, 67, 80
2, 188156, Note_off_c, 0, 59, 100
2, 188156, Note_off_c, 0, 67, 100
2, 188160, Note_on_c, 0, 64, 80
2, 188160, Note_on_c, 0, 59, 80
2, 188540, Note_off_c, 0, 64, 100
2, 188540, Note_off_c, 0, 59, 100
2, 188928, Note_on_c, 0, 67, 80
2, 188928, Note_on_c, 0, 55, 80
2, 189116, Note_off_c, 0, 67, 100
2, 189120, Note_on_c, 0, 64, 80
2, 189308, Note_off_c, 0, 55, 100
2, 189308, Note_off_c, 0, 64, 100
2, 189312, Note_on_c, 0, 55, 80
2, 189312, Note_on_c, 0, 61, 80
2, 189692, Note_off_c, 0, 55, 100
2, 189692, Note_off_c, 0, 61, 100
2, 190080, Note_on_c, 0, 62, 80
2, 190080, Note_on_c, 0, 54, 80
2, 190460, Note_off_c, 0, 62, 100
2, 190460, Note_off_c, 0, 54, 100
2, 190464, Note_on_c, 0, 62, 80
2, 190464, Note_on_c, 0, 54, 80
2, 190844, Note_off_c, 0, 62, 100
2, 190844, Note_off_c, 0, 54, 100
2, 191232, Note_on_c, 0, 81, 110
2, 191232, Note_on_c, 0, 73, 110
2, 192380, Note_off_c, 0, 81, 100
2, 192380, Note_off_c, 0, 73, 100
2, 192384, Note_on_c, 0, 69, 110
2, 192384, Note_on_c, 0, 61, 110
2, 193532, Note_off_c, 0, 69, 100
2, 193532, Note_off_c, 0, 61, 100
2, 195840, Note_on_c, 0, 76, 80
2, 195840, Note_on_c, 0, 64, 80
2, 196028, Note_off_c, 0, 76, 100
2, 196032, Note_on_c, 0, 73, 80
2, 196220, Note_off_c, 0, 64, 100
2, 196220, Note_off_c, 0, 73, 100
2, 196224, Note_on_c, 0, 69, 80
2, 196224, Note_on_c, 0, 64, 80
2, 196604, Note_off_c, 0, 69, 100
2, 196604, Note_off_c, 0, 64, 100
2, 196992, Note_on_c, 0, 78, 80
2, 196992, Note_on_c, 0, 66, 80
2, 197180, Note_off_c, 0, 78, 100
2, 197184, Note_on_c, 0, 74, 80
2, 197372, Note_off_c, 0, 66, 100
2, 197372, Note_off_c, 0, 74, 100
2, 197376, Note_on_c, 0, 66, 80
2, 197376, Note_on_c, 0, 71, 80
2, 197756, Note_off_c, 0, 66, 100
2, 197756, Note_off_c, 0, 71, 100
2, 198144, Note_on_c, 0, 74, 80
2, 198144, Note_on_c, 0, 62, 80
2, 198332, Note_off_c, 0, 74, 100
2, 198336, Note_on_c, 0, 71, 80
2, 198524, Note_off_c, 0, 62, 100
2, 198524, Note_off_c, 0, 71, 100
2, 198528, Note_on_c, 0, 62, 80
2, 198528, Note_on_c, 0, 68, 80
2, 198908, Note_off_c, 0, 62, 100
2, 198908, Note_off_c, 0, 68, 100
2, 199296, Note_on_c, 0, 69, 80
2, 199296, Note_on_c, 0, 61, 80
2, 199676, Note_off_c, 0, 69, 100
2, 199676, Note_off_c, 0, 61, 100
2, 199680, Note_on_c, 0, 69, 80
2, 199680, Note_on_c, 0, 61, 80
2, 200060, Note_off_c, 0, 69, 100
2, 200060, Note_off_c, 0, 61, 100
2, 200832, Note_on_c, 0, 74, 70
2, 200832, Note_on_c, 0, 72, 70
2, 200832, Note_on_c, 0, 69, 70
2, 201212, Note_off_c, 0, 74, 100
2, 201212, Note_off_c, 0, 72, 100
2, 201212, Note_off_c, 0, 69, 100
2, 201216, Note_on_c, 0, 74, 70
2, 201216, Note_on_c, 0, 72, 70
2, 201216, Note_on_c, 0, 69, 70
2, 201596, Note_off_c, 0, 74, 100
2, 201596, Note_off_c, 0, 72, 100
2, 201596, Note_off_c, 0, 69, 100
2, 201984, Note_on_c, 0, 74, 70
2, 201984, Note_on_c, 0, 72, 70
2, 201984, Note_on_c, 0, 69, 70
2, 202364, Note_off_c, 0, 74, 100
2, 202364, Note_off_c, 0, 72, 100
2, 202364, Note_off_c, 0, 69, 100
2, 202368, Note_on_c, 0, 74, 70
2, 202368, Note_on_c, 0, 72, 70
2, 202368, Note_on_c, 0, 69, 70
2, 202748, Note_off_c, 0, 74, 100
2, 202748, Note_off_c, 0, 72, 100
2, 202748, Note_off_c, 0, 69, 100
2, 203136, Note_on_c, 0, 74, 70
2, 203136, Note_on_c, 0, 70, 70
2, 203516, Note_off_c, 0, 74, 100
2, 203516, Note_off_c, 0, 70, 100
2, 203520, Note_on_c, 0, 74, 70
2, 203520, Note_on_c, 0, 70, 70
2, 203900, Note_off_c, 0, 74, 100
2, 203900, Note_off_c, 0, 70, 100
2, 204288, Note_on_c, 0, 74, 70
2, 204288, Note_on_c, 0, 71, 70
2, 204668, Note_off_c, 0, 74, 100
2, 204668, Note_off_c, 0, 71, 100
2, 204672, Note_on_c, 0, 74, 70
2, 204672, Note_on_c, 0, 71, 70
2, 205052, Note_off_c, 0, 74, 100
2, 205052, Note_off_c, 0, 71, 100
2, 205440, Note_on_c, 0, 76, 70
2, 205440, Note_on_c, 0, 74, 70
2, 205440, Note_on_c, 0, 71, 70
2, 205820, Note_off_c, 0, 76, 100
2, 205820, Note_off_c, 0, 74, 100
2, 205820, Note_off_c, 0, 71, 100
2, 205824, Note_on_c, 0, 76, 70
2, 205824, Note_on_c, 0, 74, 70
2, 205824, Note_on_c, 0, 71, 70
2, 206204, Note_off_c, 0, 76, 100
2, 206204, Note_off_c, 0, 74, 100
2, 206204, Note_off_c, 0, 71, 100
2, 206592, Note_on_c, 0, 76, 70
2, 206592, Note_on_c, 0, 74, 70
2, 206592, Note_on_c, 0, 71, 70
2, 206972, Note_off_c, 0, 76, 100
2, 206972, Note_off_c, 0, 74, 100
2, 206972, Note_off_c, 0, 71, 100
2, 206976, Note_on_c, 0, 76, 70
2, 206976, Note_on_c, 0, 74, 70
2, 206976, Note_on_c, 0, 71, 70
2, 207356, Note_off_c, 0, 76, 100
2, 207356, Note_off_c, 0, 74, 100
2, 207356, Note_off_c, 0, 71, 100
2, 207744, Note_on_c, 0, 76, 70
2, 207744, Note_on_c, 0, 72, 70
2, 208124, Note_off_c, 0, 76, 100
2, 208124, Note_off_c, 0, 72, 100
2, 208128, Note_on_c, 0, 76, 70
2, 208128, Note_on_c, 0, 72, 70
2, 208508, Note_off_c, 0, 76, 100
2, 208508, Note_off_c, 0, 72, 100
2, 208896, Note_on_c, 0, 76, 72
2, 208896, Note_on_c, 0, 73, 72
2, 209276, Note_off_c, 0, 76, 100
2, 209276, Note_off_c, 0, 73, 100
2, 209280, Note_on_c, 0, 76, 74
2, 209280, Note_on_c, 0, 73, 74
2, 209660, Note_off_c, 0, 76, 100
2, 209660, Note_off_c, 0, 73, 100
2, 210048, Note_on_c, 0, 78, 79
2, 210048, Note_on_c, 0, 76, 79
2, 210048, Note_on_c, 0, 73, 79
2, 210428, Note_off_c, 0, 78, 100
2, 210428, Note_off_c, 0, 76, 100
2, 210428, Note_off_c, 0, 73, 100
2, 210432, Note_on_c, 0, 78, 82
2, 210432, Note_on_c, 0, 76, 82
2, 210432, Note_on_c, 0, 73, 82
2, 210812, Note_off_c, 0, 78, 100
2, 210812, Note_off_c, 0, 76, 100
2, 210812, Note_off_c, 0, 73, 100
2, 211200, Note_on_c, 0, 78, 86
2, 211200, Note_on_c, 0, 76, 86
2, 211200, Note_on_c, 0, 73, 86
2, 211580, Note_off_c, 0, 78, 100
2, 211580, Note_off_c, 0, 76, 100
2, 211580, Note_off_c, 0, 73, 100
2, 211584, Note_on_c, 0, 78, 89
2, 211584, Note_on_c, 0, 76, 89
2, 211584, Note_on_c, 0, 73, 89
2, 211964, Note_off_c, 0, 78, 100
2, 211964, Note_off_c, 0, 76, 100
2, 211964, Note_off_c, 0, 73, 100
2, 212352, Note_on_c, 0, 78, 94
2, 212352, Note_on_c, 0, 73, 94
2, 212732, Note_off_c, 0, 78, 100
2, 212732, Note_off_c, 0, 73, 100
2, 212736, Note_on_c, 0, 78, 96
2, 212736, Note_on_c, 0, 73, 96
2, 213116, Note_off_c, 0, 78, 100
2, 213116, Note_off_c, 0, 73, 100
2, 213504, Note_on_c, 0, 78, 101
2, 213504, Note_on_c, 0, 74, 101
2, 213884, Note_off_c, 0, 78, 100
2, 213884, Note_off_c, 0, 74, 100
2, 213888, Note_on_c, 0, 78, 103
2, 213888, Note_on_c, 0, 74, 103
2, 214268, Note_off_c, 0, 78, 100
2, 214268, Note_off_c, 0, 74, 100
2, 214656, Note_on_c, 0, 79, 108
2, 214656, Note_on_c, 0, 74, 108
2, 215036, Note_off_c, 0, 79, 100
2, 215036, Note_off_c, 0, 74, 100
2, 215040, Note_on_c, 0, 79, 110
2, 215040, Note_on_c, 0, 74, 110
2, 215420, Note_off_c, 0, 79, 100
2, 215420, Note_off_c, 0, 74, 100
2, 215808, Note_on_c, 0, 79, 93
2, 215808, Note_on_c, 0, 75, 93
2, 216188, Note_off_c, 0, 79, 100
2, 216188, Note_off_c, 0, 75, 100
2, 216192, Note_on_c, 0, 79, 81
2, 216192, Note_on_c, 0, 75, 81
2, 216572, Note_off_c, 0, 79, 100
2, 216572, Note_off_c, 0, 75, 100
2, 216960, Note_on_c, 0, 69, 80
2, 216960, Note_on_c, 0, 76, 80
2, 216960, Note_on_c, 0, 79, 80
2, 220028, Note_off_c, 0, 69, 100
2, 220028, Note_off_c, 0, 76, 100
2, 220028, Note_off_c, 0, 79, 100
2, 220032, Note_on_c, 0, 78, 80
2, 220032, Note_on_c, 0, 74, 80
2, 221180, Note_off_c, 0, 78, 100
2, 221180, Note_off_c, 0, 74, 100
2, 221184, Note_on_c, 0, 66, 80
2, 221184, Note_on_c, 0, 62, 80
2, 222332, Note_off_c, 0, 66, 100
2, 222332, Note_off_c, 0, 62, 100
2, 224640, Note_on_c, 0, 69, 80
2, 224828, Note_off_c, 0, 69, 100
2, 224832, Note_on_c, 0, 66, 80
2, 225020, Note_off_c, 0, 66, 100
2, 225024, Note_on_c, 0, 62, 80
2, 225404, Note_off_c, 0, 62, 100
2, 225792, Note_on_c, 0, 71, 80
2, 225980, Note_off_c, 0, 71, 100
2, 225984, Note_on_c, 0, 67, 80
2, 226172, Note_off_c, 0, 67, 100
2, 226176, Note_on_c, 0, 64, 80
2, 226556, Note_off_c, 0, 64, 100
2, 226944, Note_on_c, 0, 67, 80
2, 227132, Note_off_c, 0, 67, 100
2, 227136, Note_on_c, 0, 64, 80
2, 227324, Note_off_c, 0, 64, 100
2, 227328, Note_on_c, 0, 61, 80
2, 227708, Note_off_c, 0, 61, 100
2, 228096, Note_on_c, 0, 62, 80
2, 228476, Note_off_c, 0, 62, 100
2, 228480, Note_on_c, 0, 62, 80
2, 228860, Note_off_c, 0, 62, 100
2, 229248, Note_on_c, 0, 81, 120
2, 229248, Note_on_c, 0, 78, 120
2, 229248, Note_on_c, 0, 86, 120
2, 230396, Note_off_c, 0, 81, 100
2, 230396, Note_off_c, 0, 78, 100
2, 230396, Note_off_c, 0, 86, 100
2, 230400, Note_on_c, 0, 74, 120
2, 230400, Note_on_c, 0, 69, 120
2, 230400, Note_on_c, 0, 66, 120
2, 231548, Note_off_c, 0, 74, 100
2, 231548, Note_off_c, 0, 69, 100
2, 231548, Note_off_c, 0, 66, 100
2, 233856, Note_on_c, 0, 81, 80
2, 234044, Note_off_c, 0, 81, 100
2, 234048, Note_on_c, 0, 78, 80
2, 234236, Note_off_c, 0, 78, 100
2, 234240, Note_on_c, 0, 75, 80
2, 234620, Note_off_c, 0, 75, 100
2, 235008, Note_on_c, 0, 83, 80
2, 235196, Note_off_c, 0, 83, 100
2, 235200, Note_on_c, 0, 79, 80
2, 235388, Note_off_c, 0, 79, 100
2, 235392, Note_on_c, 0, 76, 80
2, 235772, Note_off_c, 0, 76, 100
2, 236160, Note_on_c, 0, 81, 80
2, 236348, Note_off_c, 0, 81, 100
2, 236352, Note_on_c, 0, 76, 80
2, 236540, Note_off_c, 0, 76, 100
2, 236544, Note_on_c, 0, 73, 80
2, 236924, Note_off_c, 0, 73, 100
2, 237312, Note_on_c, 0, 74, 80
2, 237500, Note_off_c, 0, 74, 100
2, 237504, Note_on_c, 0, 69, 81
2, 237692, Note_off_c, 0, 69, 100
2, 237696, Note_on_c, 0, 66, 83
2, 238076, Note_off_c, 0, 66, 100
2, 238464, Note_on_c, 0, 69, 89
2, 238652, Note_off_c, 0, 69, 100
2, 238656, Note_on_c, 0, 64, 90
2, 238844, Note_off_c, 0, 64, 100
2, 238848, Note_on_c, 0, 61, 92
2, 239228, Note_off_c, 0, 61, 100
2, 239616, Note_on_c, 0, 62, 98
2, 239804, Note_off_c, 0, 62, 100
2, 239808, Note_on_c, 0, 57, 100
2, 239996, Note_off_c, 0, 57, 100
2, 240000, Note_on_c, 0, 54, 101
2, 240380, Note_off_c, 0, 54, 100
2, 240768, Note_on_c, 0, 57, 107
2, 240956, Note_off_c, 0, 57, 100
2, 240960, Note_on_c, 0, 52, 109
2, 241148, Note_off_c, 0, 52, 100
2, 241152, Note_on_c, 0, 49, 110
2, 241532, Note_off_c, 0, 49, 100
2, 241920, Note_on_c, 0, 50, 110
2, 242300, Note_off_c, 0, 50, 100
2, 242304, Note_on_c, 0, 50, 110
2, 242684, Note_off_c, 0, 50, 100
2, 243072, Note_on_c, 0, 86, 120
2, 243072, Note_on_c, 0, 74, 120
2, 244220, Note_off_c, 0, 86, 100
2, 244220, Note_off_c, 0, 74, 100
2, 244992, Control_c, 0, 7, 0
2, 245376, Note_on_c, 0, 74, 1
2, 245756, Note_off_c, 0, 74, 100
2, 245756, End_track
3, 0, Start_track
3, 0, Title_t, "Left"
3, 0, Control_c, 1, 0, 0
3, 0, Program_c, 1, 0
3, 0, Control_c, 1, 7, 100
3, 0, Control_c, 1, 10, 53
3, 0, Control_c, 1, 91, 127
3, 0, Key_signature, 2, "major"
3, 2304, Note_on_c, 1, 54, 80
3, 3456, Note_on_c, 1, 42, 80
3, 4604, Note_off_c, 1, 54, 100
3, 4604, Note_off_c, 1, 42, 100
3, 4608, Note_on_c, 1, 54, 80
3, 4608, Note_on_c, 1, 50, 80
3, 4988, Note_off_c, 1, 54, 100
3, 4988, Note_off_c, 1, 50, 100
3, 4992, Note_on_c, 1, 54, 80
3, 4992, Note_on_c, 1, 50, 80
3, 5372, Note_off_c, 1, 54, 100
3, 5372, Note_off_c, 1, 50, 100
3, 5760, Note_on_c, 1, 52, 80
3, 5760, Note_on_c, 1, 47, 80
3, 5760, Note_on_c, 1, 43, 80
3, 6140, Note_off_c, 1, 52, 100
3, 6140, Note_off_c, 1, 47, 100
3, 6140, Note_off_c, 1, 43, 100
3, 6144, Note_on_c, 1, 52, 80
3, 6144, Note_on_c, 1, 47, 80
3, 6144, Note_on_c, 1, 43, 80
3, 6524, Note_off_c, 1, 52, 100
3, 6524, Note_off_c, 1, 47, 100
3, 6524, Note_off_c, 1, 43, 100
3, 6912, Note_on_c, 1, 52, 80
3, 6912, Note_on_c, 1, 45, 80
3, 6912, Note_on_c, 1, 55, 80
3, 7292, Note_off_c, 1, 52, 100
3, 7292, Note_off_c, 1, 45, 100
3, 7292, Note_off_c, 1, 55, 100
3, 7296, Note_on_c, 1, 55, 80
3, 7296, Note_on_c, 1, 52, 80
3, 7296, Note_on_c, 1, 45, 80
3, 7676, Note_off_c, 1, 55, 100
3, 7676, Note_off_c, 1, 52, 100
3, 7676, Note_off_c, 1, 45, 100
3, 8064, Note_on_c, 1, 54, 80
3, 8064, Note_on_c, 1, 50, 80
3, 8444, Note_off_c, 1, 54, 100
3, 8444, Note_off_c, 1, 50, 100
3, 8448, Note_on_c, 1, 54, 80
3, 8448, Note_on_c, 1, 50, 80
3, 8828, Note_off_c, 1, 54, 100
3, 8828, Note_off_c, 1, 50, 100
3, 11520, Note_on_c, 1, 57, 80
3, 12672, Note_on_c, 1, 45, 80
3, 13820, Note_off_c, 1, 57, 100
3, 13820, Note_off_c, 1, 45, 100
3, 13824, Note_on_c, 1, 57, 80
3, 13824, Note_on_c, 1, 52, 80
3, 13824, Note_on_c, 1, 49, 80
3, 14204, Note_off_c, 1, 57, 100
3, 14204, Note_off_c, 1, 52, 100
3, 14204, Note_off_c, 1, 49, 100
3, 14208, Note_on_c, 1, 57, 80
3, 14208, Note_on_c, 1, 52, 80
3, 14208, Note_on_c, 1, 49, 80
3, 14588, Note_off_c, 1, 57, 100
3, 14588, Note_off_c, 1, 52, 100
3, 14588, Note_off_c, 1, 49, 100
3, 14976, Note_on_c, 1, 59, 80
3, 14976, Note_on_c, 1, 54, 80
3, 14976, Note_on_c, 1, 50, 80
3, 15356, Note_off_c, 1, 59, 100
3, 15356, Note_off_c, 1, 54, 100
3, 15356, Note_off_c, 1, 50, 100
3, 15360, Note_on_c, 1, 59, 80
3, 15360, Note_on_c, 1, 54, 80
3, 15360, Note_on_c, 1, 50, 80
3, 15740, Note_off_c, 1, 59, 100
3, 15740, Note_off_c, 1, 54, 100
3, 15740, Note_off_c, 1, 50, 100
3, 16128, Note_on_c, 1, 62, 80
3, 16128, Note_on_c, 1, 59, 80
3, 16128, Note_on_c, 1, 52, 80
3, 16508, Note_off_c, 1, 62, 100
3, 16508, Note_off_c, 1, 59, 100
3, 16508, Note_off_c, 1, 52, 100
3, 16512, Note_on_c, 1, 62, 80
3, 16512, Note_on_c, 1, 59, 80
3, 16512, Note_on_c, 1, 52, 80
3, 16892, Note_off_c, 1, 62, 100
3, 16892, Note_off_c, 1, 59, 100
3, 16892, Note_off_c, 1, 52, 100
3, 17280, Note_on_c, 1, 61, 80
3, 17280, Note_on_c, 1, 57, 80
3, 17660, Note_off_c, 1, 61, 100
3, 17660, Note_off_c, 1, 57, 100
3, 17664, Note_on_c, 1, 61, 80
3, 17664, Note_on_c, 1, 57, 80
3, 18044, Note_off_c, 1, 61, 100
3, 18044, Note_off_c, 1, 57, 100
3, 20736, Note_on_c, 1, 54, 110
3, 20736, Note_on_c, 1, 50, 110
3, 21884, Note_off_c, 1, 54, 100
3, 21884, Note_off_c, 1, 50, 100
3, 21888, Note_on_c, 1, 42, 110
3, 21888, Note_on_c, 1, 38, 110
3, 23036, Note_off_c, 1, 42, 100
3, 23036, Note_off_c, 1, 38, 100
3, 23040, Note_on_c, 1, 54, 80
3, 23040, Note_on_c, 1, 50, 80
3, 23420, Note_off_c, 1, 54, 100
3, 23420, Note_off_c, 1, 50, 100
3, 23424, Note_on_c, 1, 54, 80
3, 23424, Note_on_c, 1, 50, 80
3, 23804, Note_off_c, 1, 54, 100
3, 23804, Note_off_c, 1, 50, 100
3, 24192, Note_on_c, 1, 52, 80
3, 24192, Note_on_c, 1, 43, 80
3, 24572, Note_off_c, 1, 52, 100
3, 24572, Note_off_c, 1, 43, 100
3, 24576, Note_on_c, 1, 52, 80
3, 24576, Note_on_c, 1, 43, 80
3, 24956, Note_off_c, 1, 52, 100
3, 24956, Note_off_c, 1, 43, 100
3, 25344, Note_on_c, 1, 52, 80
3, 25344, Note_on_c, 1, 45, 80
3, 25724, Note_off_c, 1, 52, 100
3, 25724, Note_off_c, 1, 45, 100
3, 25728, Note_on_c, 1, 52, 80
3, 25728, Note_on_c, 1, 45, 80
3, 26108, Note_off_c, 1, 52, 100
3, 26108, Note_off_c, 1, 45, 100
3, 26496, Note_on_c, 1, 50, 80
3, 26496, Note_on_c, 1, 38, 80
3, 26876, Note_off_c, 1, 50, 100
3, 26876, Note_off_c, 1, 38, 100
3, 26880, Note_on_c, 1, 50, 80
3, 26880, Note_on_c, 1, 38, 80
3, 27260, Note_off_c, 1, 50, 100
3, 27260, Note_off_c, 1, 38, 100
3, 29952, Note_on_c, 1, 57, 110
3, 29952, Note_on_c, 1, 49, 110
3, 31100, Note_off_c, 1, 57, 100
3, 31100, Note_off_c, 1, 49, 100
3, 31104, Note_on_c, 1, 45, 110
3, 31104, Note_on_c, 1, 37, 110
3, 32252, Note_off_c, 1, 45, 100
3, 32252, Note_off_c, 1, 37, 100
3, 32256, Note_on_c, 1, 57, 80
3, 32256, Note_on_c, 1, 52, 80
3, 32256, Note_on_c, 1, 49, 80
3, 32636, Note_off_c, 1, 57, 100
3, 32636, Note_off_c, 1, 52, 100
3, 32636, Note_off_c, 1, 49, 100
3, 32640, Note_on_c, 1, 57, 80
3, 32640, Note_on_c, 1, 52, 80
3, 32640, Note_on_c, 1, 49, 80
3, 33020, Note_off_c, 1, 57, 100
3, 33020, Note_off_c, 1, 52, 100
3, 33020, Note_off_c, 1, 49, 100
3, 33408, Note_on_c, 1, 59, 80
3, 33408, Note_on_c, 1, 54, 80
3, 33408, Note_on_c, 1, 50, 80
3, 33788, Note_off_c, 1, 59, 100
3, 33788, Note_off_c, 1, 54, 100
3, 33788, Note_off_c, 1, 50, 100
3, 33792, Note_on_c, 1, 59, 80
3, 33792, Note_on_c, 1, 54, 80
3, 33792, Note_on_c, 1, 50, 80
3, 34172, Note_off_c, 1, 59, 100
3, 34172, Note_off_c, 1, 54, 100
3, 34172, Note_off_c, 1, 50, 100
3, 34560, Note_on_c, 1, 59, 80
3, 34560, Note_on_c, 1, 52, 80
3, 34940, Note_off_c, 1, 59, 100
3, 34940, Note_off_c, 1, 52, 100
3, 34944, Note_on_c, 1, 59, 80
3, 34944, Note_on_c, 1, 52, 80
3, 35324, Note_off_c, 1, 59, 100
3, 35324, Note_off_c, 1, 52, 100
3, 35712, Note_on_c, 1, 57, 80
3, 35712, Note_on_c, 1, 45, 80
3, 36092, Note_off_c, 1, 57, 100
3, 36092, Note_off_c, 1, 45, 100
3, 36096, Note_on_c, 1, 57, 80
3, 36096, Note_on_c, 1, 45, 80
3, 36476, Note_off_c, 1, 57, 100
3, 36476, Note_off_c, 1, 45, 100
3, 36864, Note_on_c, 1, 66, 70
3, 38012, Note_off_c, 1, 66, 100
3, 38016, Note_on_c, 1, 54, 70
3, 39164, Note_off_c, 1, 54, 100
3, 39168, Note_on_c, 1, 42, 70
3, 40316, Note_off_c, 1, 42, 100
3, 40320, Note_on_c, 1, 43, 70
3, 41468, Note_off_c, 1, 43, 100
3, 41472, Note_on_c, 1, 68, 70
3, 42620, Note_off_c, 1, 68, 100
3, 42624, Note_on_c, 1, 56, 73
3, 43772, Note_off_c, 1, 56, 100
3, 43776, Note_on_c, 1, 44, 76
3, 44924, Note_off_c, 1, 44, 100
3, 44928, Note_on_c, 1, 45, 80
3, 46076, Note_off_c, 1, 45, 100
3, 46080, Note_on_c, 1, 70, 83
3, 47228, Note_off_c, 1, 70, 100
3, 47232, Note_on_c, 1, 58, 87
3, 48380, Note_off_c, 1, 58, 100
3, 48384, Note_on_c, 1, 46, 90
3, 49532, Note_off_c, 1, 46, 100
3, 49536, Note_on_c, 1, 47, 94
3, 50684, Note_off_c, 1, 47, 100
3, 50688, Note_on_c, 1, 59, 97
3, 51836, Note_off_c, 1, 59, 100
3, 51840, Note_on_c, 1, 60, 100
3, 52988, Note_off_c, 1, 60, 100
3, 52992, Note_on_c, 1, 61, 80
3, 56444, Note_off_c, 1, 61, 100
3, 58752, Note_on_c, 1, 54, 80
3, 58752, Note_on_c, 1, 50, 80
3, 59900, Note_off_c, 1, 54, 100
3, 59900, Note_off_c, 1, 50, 100
3, 59904, Note_on_c, 1, 42, 80
3, 59904, Note_on_c, 1, 38, 80
3, 61052, Note_off_c, 1, 42, 100
3, 61052, Note_off_c, 1, 38, 100
3, 61056, Note_on_c, 1, 54, 80
3, 61056, Note_on_c, 1, 50, 80
3, 61436, Note_off_c, 1, 54, 100
3, 61436, Note_off_c, 1, 50, 100
3, 61440, Note_on_c, 1, 54, 80
3, 61440, Note_on_c, 1, 50, 80
3, 61820, Note_off_c, 1, 54, 100
3, 61820, Note_off_c, 1, 50, 100
3, 62208, Note_on_c, 1, 52, 80
3, 62208, Note_on_c, 1, 47, 80
3, 62208, Note_on_c, 1, 43, 80
3, 62588, Note_off_c, 1, 52, 100
3, 62588, Note_off_c, 1, 47, 100
3, 62588, Note_off_c, 1, 43, 100
3, 62592, Note_on_c, 1, 52, 80
3, 62592, Note_on_c, 1, 47, 80
3, 62592, Note_on_c, 1, 43, 80
3, 62972, Note_off_c, 1, 52, 100
3, 62972, Note_off_c, 1, 47, 100
3, 62972, Note_off_c, 1, 43, 100
3, 63360, Note_on_c, 1, 55, 80
3, 63360, Note_on_c, 1, 52, 80
3, 63360, Note_on_c, 1, 45, 80
3, 63740, Note_off_c, 1, 55, 100
3, 63740, Note_off_c, 1, 52, 100
3, 63740, Note_off_c, 1, 45, 100
3, 63744, Note_on_c, 1, 55, 80
3, 63744, Note_on_c, 1, 52, 80
3, 63744, Note_on_c, 1, 45, 80
3, 64124, Note_off_c, 1, 55, 100
3, 64124, Note_off_c, 1, 52, 100
3, 64124, Note_off_c, 1, 45, 100
3, 64512, Note_on_c, 1, 54, 80
3, 64512, Note_on_c, 1, 50, 80
3, 64892, Note_off_c, 1, 54, 100
3, 64892, Note_off_c, 1, 50, 100
3, 64896, Note_on_c, 1, 54, 80
3, 64896, Note_on_c, 1, 50, 80
3, 65276, Note_off_c, 1, 54, 100
3, 65276, Note_off_c, 1, 50, 100
3, 66816, Note_on_c, 1, 62, 120
3, 66816, Note_on_c, 1, 57, 120
3, 66816, Note_on_c, 1, 54, 120
3, 67964, Note_off_c, 1, 62, 100
3, 67964, Note_off_c, 1, 57, 100
3, 67964, Note_off_c, 1, 54, 100
3, 67968, Note_on_c, 1, 50, 120
3, 67968, Note_on_c, 1, 45, 120
3, 67968, Note_on_c, 1, 42, 120
3, 69116, Note_off_c, 1, 50, 100
3, 69116, Note_off_c, 1, 45, 100
3, 69116, Note_off_c, 1, 42, 100
3, 69120, Note_on_c, 1, 38, 120
3, 69120, Note_on_c, 1, 33, 120
3, 69120, Note_on_c, 1, 30, 120
3, 70268, Note_off_c, 1, 38, 100
3, 70268, Note_off_c, 1, 33, 100
3, 70268, Note_off_c, 1, 30, 100
3, 70272, Note_on_c, 1, 63, 80
3, 70272, Note_on_c, 1, 60, 80
3, 70272, Note_on_c, 1, 57, 80
3, 70272, Note_on_c, 1, 54, 80
3, 70652, Note_off_c, 1, 63, 100
3, 70652, Note_off_c, 1, 60, 100
3, 70652, Note_off_c, 1, 57, 100
3, 70652, Note_off_c, 1, 54, 100
3, 70656, Note_on_c, 1, 63, 80
3, 70656, Note_on_c, 1, 60, 80
3, 70656, Note_on_c, 1, 57, 80
3, 70656, Note_on_c, 1, 54, 80
3, 71036, Note_off_c, 1, 63, 100
3, 71036, Note_off_c, 1, 60, 100
3, 71036, Note_off_c, 1, 57, 100
3, 71036, Note_off_c, 1, 54, 100
3, 71424, Note_on_c, 1, 64, 80
3, 71424, Note_on_c, 1, 59, 80
3, 71424, Note_on_c, 1, 55, 80
3, 71804, Note_off_c, 1, 64, 100
3, 71804, Note_off_c, 1, 59, 100
3, 71804, Note_off_c, 1, 55, 100
3, 71808, Note_on_c, 1, 64, 80
3, 71808, Note_on_c, 1, 59, 80
3, 71808, Note_on_c, 1, 55, 80
3, 72188, Note_off_c, 1, 64, 100
3, 72188, Note_off_c, 1, 59, 100
3, 72188, Note_off_c, 1, 55, 100
3, 72576, Note_on_c, 1, 67, 80
3, 72576, Note_on_c, 1, 64, 80
3, 72576, Note_on_c, 1, 57, 80
3, 72956, Note_off_c, 1, 67, 100
3, 72956, Note_off_c, 1, 64, 100
3, 72956, Note_off_c, 1, 57, 100
3, 72960, Note_on_c, 1, 67, 80
3, 72960, Note_on_c, 1, 64, 80
3, 72960, Note_on_c, 1, 57, 80
3, 73340, Note_off_c, 1, 67, 100
3, 73340, Note_off_c, 1, 64, 100
3, 73340, Note_off_c, 1, 57, 100
3, 73728, Note_on_c, 1, 66, 80
3, 73728, Note_on_c, 1, 62, 80
3, 74108, Note_off_c, 1, 66, 100
3, 74108, Note_off_c, 1, 62, 100
3, 74112, Note_on_c, 1, 62, 82
3, 74492, Note_off_c, 1, 62, 100
3, 74880, Note_on_c, 1, 55, 88
3, 74880, Note_on_c, 1, 52, 88
3, 74880, Note_on_c, 1, 45, 88
3, 75260, Note_off_c, 1, 55, 100
3, 75260, Note_off_c, 1, 52, 100
3, 75260, Note_off_c, 1, 45, 100
3, 75264, Note_on_c, 1, 55, 90
3, 75264, Note_on_c, 1, 52, 90
3, 75264, Note_on_c, 1, 45, 90
3, 75644, Note_off_c, 1, 55, 100
3, 75644, Note_off_c, 1, 52, 100
3, 75644, Note_off_c, 1, 45, 100
3, 76032, Note_on_c, 1, 54, 96
3, 76032, Note_on_c, 1, 50, 96
3, 76412, Note_off_c, 1, 54, 100
3, 76412, Note_off_c, 1, 50, 100
3, 76416, Note_on_c, 1, 50, 99
3, 76796, Note_off_c, 1, 50, 100
3, 77184, Note_on_c, 1, 43, 104
3, 77184, Note_on_c, 1, 33, 104
3, 77564, Note_off_c, 1, 43, 100
3, 77564, Note_off_c, 1, 33, 100
3, 77568, Note_on_c, 1, 43, 107
3, 77568, Note_on_c, 1, 33, 107
3, 77948, Note_off_c, 1, 43, 100
3, 77948, Note_off_c, 1, 33, 100
3, 78336, Note_on_c, 1, 42, 110
3, 78336, Note_on_c, 1, 38, 110
3, 78716, Note_off_c, 1, 42, 100
3, 78716, Note_off_c, 1, 38, 100
3, 78720, Note_on_c, 1, 42, 110
3, 78720, Note_on_c, 1, 38, 110
3, 79100, Note_off_c, 1, 42, 100
3, 79100, Note_off_c, 1, 38, 100
3, 79488, Note_on_c, 1, 50, 110
3, 79488, Note_on_c, 1, 38, 110
3, 80636, Note_off_c, 1, 50, 100
3, 80636, Note_off_c, 1, 38, 100
3, 81792, Note_on_c, 1, 66, 70
3, 82940, Note_off_c, 1, 66, 100
3, 82944, Note_on_c, 1, 54, 70
3, 84092, Note_off_c, 1, 54, 100
3, 84096, Note_on_c, 1, 42, 70
3, 85244, Note_off_c, 1, 42, 100
3, 85248, Note_on_c, 1, 43, 70
3, 86396, Note_off_c, 1, 43, 100
3, 86400, Note_on_c, 1, 68, 70
3, 87548, Note_off_c, 1, 68, 100
3, 87552, Note_on_c, 1, 56, 70
3, 88700, Note_off_c, 1, 56, 100
3, 88704, Note_on_c, 1, 44, 75
3, 89852, Note_off_c, 1, 44, 100
3, 89856, Note_on_c, 1, 45, 80
3, 91004, Note_off_c, 1, 45, 100
3, 91008, Note_on_c, 1, 70, 86
3, 92156, Note_off_c, 1, 70, 100
3, 92160, Note_on_c, 1, 58, 91
3, 93308, Note_off_c, 1, 58, 100
3, 93312, Note_on_c, 1, 46, 96
3, 94460, Note_off_c, 1, 46, 100
3, 94464, Note_on_c, 1, 47, 102
3, 95612, Note_off_c, 1, 47, 100
3, 95616, Note_on_c, 1, 59, 107
3, 96764, Note_off_c, 1, 59, 100
3, 96768, Note_on_c, 1, 60, 105
3, 97916, Note_off_c, 1, 60, 100
3, 97920, Note_on_c, 1, 61, 80
3, 101372, Note_off_c, 1, 61, 100
3, 103680, Note_on_c, 1, 54, 80
3, 103680, Note_on_c, 1, 50, 80
3, 104828, Note_off_c, 1, 54, 100
3, 104828, Note_off_c, 1, 50, 100
3, 104832, Note_on_c, 1, 42, 80
3, 104832, Note_on_c, 1, 38, 80
3, 105980, Note_off_c, 1, 42, 100
3, 105980, Note_off_c, 1, 38, 100
3, 105984, Note_on_c, 1, 54, 80
3, 105984, Note_on_c, 1, 50, 80
3, 106364, Note_off_c, 1, 54, 100
3, 106364, Note_off_c, 1, 50, 100
3, 106368, Note_on_c, 1, 54, 80
3, 106368, Note_on_c, 1, 50, 80
3, 106748, Note_off_c, 1, 54, 100
3, 106748, Note_off_c, 1, 50, 100
3, 107136, Note_on_c, 1, 52, 80
3, 107136, Note_on_c, 1, 47, 80
3, 107136, Note_on_c, 1, 43, 80
3, 107516, Note_off_c, 1, 52, 100
3, 107516, Note_off_c, 1, 47, 100
3, 107516, Note_off_c, 1, 43, 100
3, 107520, Note_on_c, 1, 52, 80
3, 107520, Note_on_c, 1, 47, 80
3, 107520, Note_on_c, 1, 43, 80
3, 107900, Note_off_c, 1, 52, 100
3, 107900, Note_off_c, 1, 47, 100
3, 107900, Note_off_c, 1, 43, 100
3, 108288, Note_on_c, 1, 55, 80
3, 108288, Note_on_c, 1, 52, 80
3, 108288, Note_on_c, 1, 45, 80
3, 108668, Note_off_c, 1, 55, 100
3, 108668, Note_off_c, 1, 52, 100
3, 108668, Note_off_c, 1, 45, 100
3, 108672, Note_on_c, 1, 55, 80
3, 108672, Note_on_c, 1, 52, 80
3, 108672, Note_on_c, 1, 45, 80
3, 109052, Note_off_c, 1, 55, 100
3, 109052, Note_off_c, 1, 52, 100
3, 109052, Note_off_c, 1, 45, 100
3, 109440, Note_on_c, 1, 54, 80
3, 109440, Note_on_c, 1, 50, 80
3, 109820, Note_off_c, 1, 54, 100
3, 109820, Note_off_c, 1, 50, 100
3, 109824, Note_on_c, 1, 54, 80
3, 109824, Note_on_c, 1, 50, 80
3, 110204, Note_off_c, 1, 54, 100
3, 110204, Note_off_c, 1, 50, 100
3, 111744, Note_on_c, 1, 62, 120
3, 111744, Note_on_c, 1, 57, 120
3, 111744, Note_on_c, 1, 54, 120
3, 112892, Note_off_c, 1, 62, 100
3, 112892, Note_off_c, 1, 57, 100
3, 112892, Note_off_c, 1, 54, 100
3, 112896, Note_on_c, 1, 50, 120
3, 112896, Note_on_c, 1, 45, 120
3, 112896, Note_on_c, 1, 42, 120
3, 114044, Note_off_c, 1, 50, 100
3, 114044, Note_off_c, 1, 45, 100
3, 114044, Note_off_c, 1, 42, 100
3, 114048, Note_on_c, 1, 38, 120
3, 114048, Note_on_c, 1, 33, 120
3, 114048, Note_on_c, 1, 30, 120
3, 115196, Note_off_c, 1, 38, 100
3, 115196, Note_off_c, 1, 33, 100
3, 115196, Note_off_c, 1, 30, 100
3, 115200, Note_on_c, 1, 63, 80
3, 115200, Note_on_c, 1, 60, 80
3, 115200, Note_on_c, 1, 57, 80
3, 115200, Note_on_c, 1, 54, 80
3, 115580, Note_off_c, 1, 63, 100
3, 115580, Note_off_c, 1, 60, 100
3, 115580, Note_off_c, 1, 57, 100
3, 115580, Note_off_c, 1, 54, 100
3, 115584, Note_on_c, 1, 63, 80
3, 115584, Note_on_c, 1, 60, 80
3, 115584, Note_on_c, 1, 57, 80
3, 115584, Note_on_c, 1, 54, 80
3, 115964, Note_off_c, 1, 63, 100
3, 115964, Note_off_c, 1, 60, 100
3, 115964, Note_off_c, 1, 57, 100
3, 115964, Note_off_c, 1, 54, 100
3, 116352, Note_on_c, 1, 64, 80
3, 116352, Note_on_c, 1, 59, 80
3, 116352, Note_on_c, 1, 55, 80
3, 116732, Note_off_c, 1, 64, 100
3, 116732, Note_off_c, 1, 59, 100
3, 116732, Note_off_c, 1, 55, 100
3, 116736, Note_on_c, 1, 64, 80
3, 116736, Note_on_c, 1, 59, 80
3, 116736, Note_on_c, 1, 55, 80
3, 117116, Note_off_c, 1, 64, 100
3, 117116, Note_off_c, 1, 59, 100
3, 117116, Note_off_c, 1, 55, 100
3, 117504, Note_on_c, 1, 67, 80
3, 117504, Note_on_c, 1, 64, 80
3, 117504, Note_on_c, 1, 57, 80
3, 117884, Note_off_c, 1, 67, 100
3, 117884, Note_off_c, 1, 64, 100
3, 117884, Note_off_c, 1, 57, 100
3, 117888, Note_on_c, 1, 67, 80
3, 117888, Note_on_c, 1, 64, 80
3, 117888, Note_on_c, 1, 57, 80
3, 118268, Note_off_c, 1, 67, 100
3, 118268, Note_off_c, 1, 64, 100
3, 118268, Note_off_c, 1, 57, 100
3, 118656, Note_on_c, 1, 66, 80
3, 118656, Note_on_c, 1, 62, 80
3, 119036, Note_off_c, 1, 66, 100
3, 119036, Note_off_c, 1, 62, 100
3, 119040, Note_on_c, 1, 62, 83
3, 119420, Note_off_c, 1, 62, 100
3, 119808, Note_on_c, 1, 55, 89
3, 119808, Note_on_c, 1, 52, 89
3, 119808, Note_on_c, 1, 45, 89
3, 120188, Note_off_c, 1, 55, 100
3, 120188, Note_off_c, 1, 52, 100
3, 120188, Note_off_c, 1, 45, 100
3, 120192, Note_on_c, 1, 55, 92
3, 120192, Note_on_c, 1, 52, 92
3, 120192, Note_on_c, 1, 45, 92
3, 120572, Note_off_c, 1, 55, 100
3, 120572, Note_off_c, 1, 52, 100
3, 120572, Note_off_c, 1, 45, 100
3, 120960, Note_on_c, 1, 54, 98
3, 120960, Note_on_c, 1, 50, 98
3, 121340, Note_off_c, 1, 54, 100
3, 121340, Note_off_c, 1, 50, 100
3, 121344, Note_on_c, 1, 50, 101
3, 121724, Note_off_c, 1, 50, 100
3, 122112, Note_on_c, 1, 43, 107
3, 122112, Note_on_c, 1, 33, 107
3, 122492, Note_off_c, 1, 43, 100
3, 122492, Note_off_c, 1, 33, 100
3, 122496, Note_on_c, 1, 43, 110
3, 122496, Note_on_c, 1, 33, 110
3, 122876, Note_off_c, 1, 43, 100
3, 122876, Note_off_c, 1, 33, 100
3, 123264, Note_on_c, 1, 42, 110
3, 123264, Note_on_c, 1, 38, 110
3, 123644, Note_off_c, 1, 42, 100
3, 123644, Note_off_c, 1, 38, 100
3, 123648, Note_on_c, 1, 42, 110
3, 123648, Note_on_c, 1, 38, 110
3, 124028, Note_off_c, 1, 42, 100
3, 124028, Note_off_c, 1, 38, 100
3, 124416, Note_on_c, 1, 50, 110
3, 124416, Note_on_c, 1, 38, 110
3, 125564, Note_off_c, 1, 50, 100
3, 125564, Note_off_c, 1, 38, 100
3, 126720, Note_on_c, 1, 42, 80
3, 126908, Note_off_c, 1, 42, 100
3, 126912, Note_on_c, 1, 54, 80
3, 127100, Note_off_c, 1, 54, 100
3, 127104, Note_on_c, 1, 44, 80
3, 127292, Note_off_c, 1, 44, 100
3, 127296, Note_on_c, 1, 56, 80
3, 127484, Note_off_c, 1, 56, 100
3, 127488, Note_on_c, 1, 46, 80
3, 127676, Note_off_c, 1, 46, 100
3, 127680, Note_on_c, 1, 58, 80
3, 127868, Note_off_c, 1, 58, 100
3, 127872, Note_on_c, 1, 47, 80
3, 128060, Note_off_c, 1, 47, 100
3, 128064, Note_on_c, 1, 59, 80
3, 128252, Note_off_c, 1, 59, 100
3, 128256, Note_on_c, 1, 49, 80
3, 128444, Note_off_c, 1, 49, 100
3, 128448, Note_on_c, 1, 61, 80
3, 128636, Note_off_c, 1, 61, 100
3, 128640, Note_on_c, 1, 50, 80
3, 128828, Note_off_c, 1, 50, 100
3, 128832, Note_on_c, 1, 62, 80
3, 129020, Note_off_c, 1, 62, 100
3, 129024, Note_on_c, 1, 52, 80
3, 129212, Note_off_c, 1, 52, 100
3, 129216, Note_on_c, 1, 64, 80
3, 129404, Note_off_c, 1, 64, 100
3, 129408, Note_on_c, 1, 49, 80
3, 129596, Note_off_c, 1, 49, 100
3, 129600, Note_on_c, 1, 61, 80
3, 129788, Note_off_c, 1, 61, 100
3, 129792, Note_on_c, 1, 54, 80
3, 129980, Note_off_c, 1, 54, 100
3, 129984, Note_on_c, 1, 66, 80
3, 130172, Note_off_c, 1, 66, 100
3, 130176, Note_on_c, 1, 50, 80
3, 130364, Note_off_c, 1, 50, 100
3, 130368, Note_on_c, 1, 62, 80
3, 130556, Note_off_c, 1, 62, 100
3, 130560, Note_on_c, 1, 49, 80
3, 130748, Note_off_c, 1, 49, 100
3, 130752, Note_on_c, 1, 61, 80
3, 130940, Note_off_c, 1, 61, 100
3, 130944, Note_on_c, 1, 47, 80
3, 131132, Note_off_c, 1, 47, 100
3, 131136, Note_on_c, 1, 59, 80
3, 131324, Note_off_c, 1, 59, 100
3, 131328, Note_on_c, 1, 46, 80
3, 131516, Note_off_c, 1, 46, 100
3, 131520, Note_on_c, 1, 58, 80
3, 131708, Note_off_c, 1, 58, 100
3, 131712, Note_on_c, 1, 47, 80
3, 131900, Note_off_c, 1, 47, 100
3, 131904, Note_on_c, 1, 59, 80
3, 132092, Note_off_c, 1, 59, 100
3, 132096, Note_on_c, 1, 49, 80
3, 132284, Note_off_c, 1, 49, 100
3, 132288, Note_on_c, 1, 61, 80
3, 132476, Note_off_c, 1, 61, 100
3, 132480, Note_on_c, 1, 50, 80
3, 132668, Note_off_c, 1, 50, 100
3, 132672, Note_on_c, 1, 62, 80
3, 132860, Note_off_c, 1, 62, 100
3, 132864, Note_on_c, 1, 52, 80
3, 133052, Note_off_c, 1, 52, 100
3, 133056, Note_on_c, 1, 64, 80
3, 133244, Note_off_c, 1, 64, 100
3, 133248, Note_on_c, 1, 54, 80
3, 133436, Note_off_c, 1, 54, 100
3, 133440, Note_on_c, 1, 66, 80
3, 133628, Note_off_c, 1, 66, 100
3, 133632, Note_on_c, 1, 55, 80
3, 133820, Note_off_c, 1, 55, 100
3, 133824, Note_on_c, 1, 67, 80
3, 134012, Note_off_c, 1, 67, 100
3, 134016, Note_on_c, 1, 52, 80
3, 134204, Note_off_c, 1, 52, 100
3, 134208, Note_on_c, 1, 64, 80
3, 134396, Note_off_c, 1, 64, 100
3, 134400, Note_on_c, 1, 57, 80
3, 134588, Note_off_c, 1, 57, 100
3, 134592, Note_on_c, 1, 69, 80
3, 134780, Note_off_c, 1, 69, 100
3, 134784, Note_on_c, 1, 54, 80
3, 134972, Note_off_c, 1, 54, 100
3, 134976, Note_on_c, 1, 66, 80
3, 135164, Note_off_c, 1, 66, 100
3, 135168, Note_on_c, 1, 52, 80
3, 135356, Note_off_c, 1, 52, 100
3, 135360, Note_on_c, 1, 64, 80
3, 135548, Note_off_c, 1, 64, 100
3, 135552, Note_on_c, 1, 50, 80
3, 135740, Note_off_c, 1, 50, 100
3, 135744, Note_on_c, 1, 62, 80
3, 135932, Note_off_c, 1, 62, 100
3, 135936, Note_on_c, 1, 42, 80
3, 136124, Note_off_c, 1, 42, 100
3, 136128, Note_on_c, 1, 54, 80
3, 136316, Note_off_c, 1, 54, 100
3, 136320, Note_on_c, 1, 44, 80
3, 136508, Note_off_c, 1, 44, 100
3, 136512, Note_on_c, 1, 56, 80
3, 136700, Note_off_c, 1, 56, 100
3, 136704, Note_on_c, 1, 46, 80
3, 136892, Note_off_c, 1, 46, 100
3, 136896, Note_on_c, 1, 58, 80
3, 137084, Note_off_c, 1, 58, 100
3, 137088, Note_on_c, 1, 47, 80
3, 137276, Note_off_c, 1, 47, 100
3, 137280, Note_on_c, 1, 59, 80
3, 137468, Note_off_c, 1, 59, 100
3, 137472, Note_on_c, 1, 49, 80
3, 137660, Note_off_c, 1, 49, 100
3, 137664, Note_on_c, 1, 61, 80
3, 137852, Note_off_c, 1, 61, 100
3, 137856, Note_on_c, 1, 50, 80
3, 138044, Note_off_c, 1, 50, 100
3, 138048, Note_on_c, 1, 62, 80
3, 138236, Note_off_c, 1, 62, 100
3, 138240, Note_on_c, 1, 52, 80
3, 138428, Note_off_c, 1, 52, 100
3, 138432, Note_on_c, 1, 64, 80
3, 138620, Note_off_c, 1, 64, 100
3, 138624, Note_on_c, 1, 49, 80
3, 138812, Note_off_c, 1, 49, 100
3, 138816, Note_on_c, 1, 61, 80
3, 139004, Note_off_c, 1, 61, 100
3, 139008, Note_on_c, 1, 54, 80
3, 139196, Note_off_c, 1, 54, 100
3, 139200, Note_on_c, 1, 66, 80
3, 139388, Note_off_c, 1, 66, 100
3, 139392, Note_on_c, 1, 50, 80
3, 139580, Note_off_c, 1, 50, 100
3, 139584, Note_on_c, 1, 62, 80
3, 139772, Note_off_c, 1, 62, 100
3, 139776, Note_on_c, 1, 49, 80
3, 139964, Note_off_c, 1, 49, 100
3, 139968, Note_on_c, 1, 61, 80
3, 140156, Note_off_c, 1, 61, 100
3, 140160, Note_on_c, 1, 47, 80
3, 140348, Note_off_c, 1, 47, 100
3, 140352, Note_on_c, 1, 59, 80
3, 140540, Note_off_c, 1, 59, 100
3, 140544, Note_on_c, 1, 46, 80
3, 140732, Note_off_c, 1, 46, 100
3, 140736, Note_on_c, 1, 58, 80
3, 140924, Note_off_c, 1, 58, 100
3, 140928, Note_on_c, 1, 47, 80
3, 141116, Note_off_c, 1, 47, 100
3, 141120, Note_on_c, 1, 59, 80
3, 141308, Note_off_c, 1, 59, 100
3, 141312, Note_on_c, 1, 49, 80
3, 141500, Note_off_c, 1, 49, 100
3, 141504, Note_on_c, 1, 61, 80
3, 141692, Note_off_c, 1, 61, 100
3, 141696, Note_on_c, 1, 50, 80
3, 141884, Note_off_c, 1, 50, 100
3, 141888, Note_on_c, 1, 62, 80
3, 142076, Note_off_c, 1, 62, 100
3, 142080, Note_on_c, 1, 52, 80
3, 142268, Note_off_c, 1, 52, 100
3, 142272, Note_on_c, 1, 64, 80
3, 142460, Note_off_c, 1, 64, 100
3, 142464, Note_on_c, 1, 54, 80
3, 142652, Note_off_c, 1, 54, 100
3, 142656, Note_on_c, 1, 66, 80
3, 142844, Note_off_c, 1, 66, 100
3, 142848, Note_on_c, 1, 55, 80
3, 143036, Note_off_c, 1, 55, 100
3, 143040, Note_on_c, 1, 67, 80
3, 143228, Note_off_c, 1, 67, 100
3, 143232, Note_on_c, 1, 52, 80
3, 143420, Note_off_c, 1, 52, 100
3, 143424, Note_on_c, 1, 64, 80
3, 143612, Note_off_c, 1, 64, 100
3, 143616, Note_on_c, 1, 57, 80
3, 143804, Note_off_c, 1, 57, 100
3, 143808, Note_on_c, 1, 69, 80
3, 143996, Note_off_c, 1, 69, 100
3, 144000, Note_on_c, 1, 54, 80
3, 144188, Note_off_c, 1, 54, 100
3, 144192, Note_on_c, 1, 66, 80
3, 144380, Note_off_c, 1, 66, 100
3, 144384, Note_on_c, 1, 52, 80
3, 144572, Note_off_c, 1, 52, 100
3, 144576, Note_on_c, 1, 64, 80
3, 144764, Note_off_c, 1, 64, 100
3, 144768, Note_on_c, 1, 50, 80
3, 144956, Note_off_c, 1, 50, 100
3, 144960, Note_on_c, 1, 62, 80
3, 145148, Note_off_c, 1, 62, 100
3, 145152, Note_on_c, 1, 50, 80
3, 145340, Note_off_c, 1, 50, 100
3, 145344, Note_on_c, 1, 62, 81
3, 145532, Note_off_c, 1, 62, 100
3, 145536, Note_on_c, 1, 54, 83
3, 145724, Note_off_c, 1, 54, 100
3, 145728, Note_on_c, 1, 62, 85
3, 145916, Note_off_c, 1, 62, 100
3, 145920, Note_on_c, 1, 57, 87
3, 146108, Note_off_c, 1, 57, 100
3, 146112, Note_on_c, 1, 62, 89
3, 146300, Note_off_c, 1, 62, 100
3, 146304, Note_on_c, 1, 50, 91
3, 146492, Note_off_c, 1, 50, 100
3, 146496, Note_on_c, 1, 62, 93
3, 146684, Note_off_c, 1, 62, 100
3, 146688, Note_on_c, 1, 55, 95
3, 146876, Note_off_c, 1, 55, 100
3, 146880, Note_on_c, 1, 62, 97
3, 147068, Note_off_c, 1, 62, 100
3, 147072, Note_on_c, 1, 59, 99
3, 147260, Note_off_c, 1, 59, 100
3, 147264, Note_on_c, 1, 62, 100
3, 147452, Note_off_c, 1, 62, 100
3, 147456, Note_on_c, 1, 50, 100
3, 147644, Note_off_c, 1, 50, 100
3, 147648, Note_on_c, 1, 62, 99
3, 147836, Note_off_c, 1, 62, 100
3, 147840, Note_on_c, 1, 55, 97
3, 148028, Note_off_c, 1, 55, 100
3, 148032, Note_on_c, 1, 62, 95
3, 148220, Note_off_c, 1, 62, 100
3, 148224, Note_on_c, 1, 58, 93
3, 148412, Note_off_c, 1, 58, 100
3, 148416, Note_on_c, 1, 62, 91
3, 148604, Note_off_c, 1, 62, 100
3, 148608, Note_on_c, 1, 50, 90
3, 148796, Note_off_c, 1, 50, 100
3, 148800, Note_on_c, 1, 62, 88
3, 148988, Note_off_c, 1, 62, 100
3, 148992, Note_on_c, 1, 54, 86
3, 149180, Note_off_c, 1, 54, 100
3, 149184, Note_on_c, 1, 62, 84
3, 149372, Note_off_c, 1, 62, 100
3, 149376, Note_on_c, 1, 57, 82
3, 149564, Note_off_c, 1, 57, 100
3, 149568, Note_on_c, 1, 62, 81
3, 149756, Note_off_c, 1, 62, 100
3, 149760, Note_on_c, 1, 49, 80
3, 149948, Note_off_c, 1, 49, 100
3, 149952, Note_on_c, 1, 58, 80
3, 150140, Note_off_c, 1, 58, 100
3, 150144, Note_on_c, 1, 52, 80
3, 150332, Note_off_c, 1, 52, 100
3, 150336, Note_on_c, 1, 58, 80
3, 150524, Note_off_c, 1, 58, 100
3, 150528, Note_on_c, 1, 54, 80
3, 150716, Note_off_c, 1, 54, 100
3, 150720, Note_on_c, 1, 58, 80
3, 150908, Note_off_c, 1, 58, 100
3, 150912, Note_on_c, 1, 47, 80
3, 151100, Note_off_c, 1, 47, 100
3, 151104, Note_on_c, 1, 59, 80
3, 151292, Note_off_c, 1, 59, 100
3, 151296, Note_on_c, 1, 38, 80
3, 151484, Note_off_c, 1, 38, 100
3, 151488, Note_on_c, 1, 50, 80
3, 151676, Note_off_c, 1, 50, 100
3, 151680, Note_on_c, 1, 40, 80
3, 151868, Note_off_c, 1, 40, 100
3, 151872, Note_on_c, 1, 52, 80
3, 152060, Note_off_c, 1, 52, 100
3, 152064, Note_on_c, 1, 42, 80
3, 152252, Note_off_c, 1, 42, 100
3, 152256, Note_on_c, 1, 54, 80
3, 152444, Note_off_c, 1, 54, 100
3, 152448, Note_on_c, 1, 40, 80
3, 152636, Note_off_c, 1, 40, 100
3, 152640, Note_on_c, 1, 52, 80
3, 152828, Note_off_c, 1, 52, 100
3, 152832, Note_on_c, 1, 42, 80
3, 153020, Note_off_c, 1, 42, 100
3, 153024, Note_on_c, 1, 54, 80
3, 153212, Note_off_c, 1, 54, 100
3, 153216, Note_on_c, 1, 37, 80
3, 153404, Note_off_c, 1, 37, 100
3, 153408, Note_on_c, 1, 47, 80
3, 153596, Note_off_c, 1, 47, 100
3, 153600, Note_on_c, 1, 47, 80
3, 153788, Note_off_c, 1, 47, 100
3, 153792, Note_on_c, 1, 59, 80
3, 153980, Note_off_c, 1, 59, 100
3, 153984, Note_on_c, 1, 49, 80
3, 154172, Note_off_c, 1, 49, 100
3, 154176, Note_on_c, 1, 61, 80
3, 154364, Note_off_c, 1, 61, 100
3, 154368, Note_on_c, 1, 50, 80
3, 154556, Note_off_c, 1, 50, 100
3, 154560, Note_on_c, 1, 62, 81
3, 154748, Note_off_c, 1, 62, 100
3, 154752, Note_on_c, 1, 52, 83
3, 154940, Note_off_c, 1, 52, 100
3, 154944, Note_on_c, 1, 64, 85
3, 155132, Note_off_c, 1, 64, 100
3, 155136, Note_on_c, 1, 54, 87
3, 155324, Note_off_c, 1, 54, 100
3, 155328, Note_on_c, 1, 66, 88
3, 155516, Note_off_c, 1, 66, 100
3, 155520, Note_on_c, 1, 55, 90
3, 155708, Note_off_c, 1, 55, 100
3, 155712, Note_on_c, 1, 67, 92
3, 155900, Note_off_c, 1, 67, 100
3, 155904, Note_on_c, 1, 62, 94
3, 156092, Note_off_c, 1, 62, 100
3, 156096, Note_on_c, 1, 67, 95
3, 156284, Note_off_c, 1, 67, 100
3, 156288, Note_on_c, 1, 55, 97
3, 156476, Note_off_c, 1, 55, 100
3, 156480, Note_on_c, 1, 67, 99
3, 156668, Note_off_c, 1, 67, 100
3, 156672, Note_on_c, 1, 56, 101
3, 156860, Note_off_c, 1, 56, 100
3, 156864, Note_on_c, 1, 65, 102
3, 157052, Note_off_c, 1, 65, 100
3, 157056, Note_on_c, 1, 62, 104
3, 157244, Note_off_c, 1, 62, 100
3, 157248, Note_on_c, 1, 65, 106
3, 157436, Note_off_c, 1, 65, 100
3, 157440, Note_on_c, 1, 56, 108
3, 157628, Note_off_c, 1, 56, 100
3, 157632, Note_on_c, 1, 65, 109
3, 157820, Note_off_c, 1, 65, 100
3, 157824, Note_on_c, 1, 57, 110
3, 158012, Note_off_c, 1, 57, 100
3, 158016, Note_on_c, 1, 66, 110
3, 158204, Note_off_c, 1, 66, 100
3, 158208, Note_on_c, 1, 62, 110
3, 158396, Note_off_c, 1, 62, 100
3, 158400, Note_on_c, 1, 66, 110
3, 158588, Note_off_c, 1, 66, 100
3, 158592, Note_on_c, 1, 57, 110
3, 158780, Note_off_c, 1, 57, 100
3, 158784, Note_on_c, 1, 66, 110
3, 158972, Note_off_c, 1, 66, 100
3, 158976, Note_on_c, 1, 58, 110
3, 158976, Note_on_c, 1, 61, 110
3, 159164, Note_off_c, 1, 58, 100
3, 159164, Note_off_c, 1, 61, 100
3, 159168, Note_on_c, 1, 66, 105
3, 159356, Note_off_c, 1, 66, 100
3, 159360, Note_on_c, 1, 59, 99
3, 159360, Note_on_c, 1, 62, 99
3, 159548, Note_off_c, 1, 59, 100
3, 159548, Note_off_c, 1, 62, 100
3, 159552, Note_on_c, 1, 66, 93
3, 159740, Note_off_c, 1, 66, 100
3, 159744, Note_on_c, 1, 64, 87
3, 159744, Note_on_c, 1, 61, 87
3, 159932, Note_off_c, 1, 64, 100
3, 159932, Note_off_c, 1, 61, 100
3, 159936, Note_on_c, 1, 66, 81
3, 160124, Note_off_c, 1, 66, 100
3, 160128, Note_on_c, 1, 62, 80
3, 160128, Note_on_c, 1, 59, 80
3, 160316, Note_off_c, 1, 62, 100
3, 160316, Note_off_c, 1, 59, 100
3, 160320, Note_on_c, 1, 66, 80
3, 160508, Note_off_c, 1, 66, 100
3, 160512, Note_on_c, 1, 50, 80
3, 160700, Note_off_c, 1, 50, 100
3, 160704, Note_on_c, 1, 62, 80
3, 160892, Note_off_c, 1, 62, 100
3, 160896, Note_on_c, 1, 52, 80
3, 161084, Note_off_c, 1, 52, 100
3, 161088, Note_on_c, 1, 64, 80
3, 161276, Note_off_c, 1, 64, 100
3, 161280, Note_on_c, 1, 54, 80
3, 161468, Note_off_c, 1, 54, 100
3, 161472, Note_on_c, 1, 66, 80
3, 161660, Note_off_c, 1, 66, 100
3, 161664, Note_on_c, 1, 52, 80
3, 161852, Note_off_c, 1, 52, 100
3, 161856, Note_on_c, 1, 64, 80
3, 162044, Note_off_c, 1, 64, 100
3, 162048, Note_on_c, 1, 54, 80
3, 162236, Note_off_c, 1, 54, 100
3, 162240, Note_on_c, 1, 66, 80
3, 162428, Note_off_c, 1, 66, 100
3, 162432, Note_on_c, 1, 47, 80
3, 162620, Note_off_c, 1, 47, 100
3, 162624, Note_on_c, 1, 59, 80
3, 162812, Note_off_c, 1, 59, 100
3, 162816, Note_on_c, 1, 54, 80
3, 163004, Note_off_c, 1, 54, 100
3, 163008, Note_on_c, 1, 50, 80
3, 163196, Note_off_c, 1, 50, 100
3, 163200, Note_on_c, 1, 47, 80
3, 163580, Note_off_c, 1, 47, 100
3, 165888, Note_on_c, 1, 54, 80
3, 167040, Note_on_c, 1, 42, 80
3, 168188, Note_off_c, 1, 54, 100
3, 168188, Note_off_c, 1, 42, 100
3, 168192, Note_on_c, 1, 54, 80
3, 168192, Note_on_c, 1, 50, 80
3, 168572, Note_off_c, 1, 54, 100
3, 168572, Note_off_c, 1, 50, 100
3, 168576, Note_on_c, 1, 54, 80
3, 168576, Note_on_c, 1, 50, 80
3, 168956, Note_off_c, 1, 54, 100
3, 168956, Note_off_c, 1, 50, 100
3, 169344, Note_on_c, 1, 52, 80
3, 169344, Note_on_c, 1, 47, 80
3, 169344, Note_on_c, 1, 43, 80
3, 169724, Note_off_c, 1, 52, 100
3, 169724, Note_off_c, 1, 47, 100
3, 169724, Note_off_c, 1, 43, 100
3, 169728, Note_on_c, 1, 52, 80
3, 169728, Note_on_c, 1, 47, 80
3, 169728, Note_on_c, 1, 43, 80
3, 170108, Note_off_c, 1, 52, 100
3, 170108, Note_off_c, 1, 47, 100
3, 170108, Note_off_c, 1, 43, 100
3, 170496, Note_on_c, 1, 52, 80
3, 170496, Note_on_c, 1, 45, 80
3, 170496, Note_on_c, 1, 55, 80
3, 170876, Note_off_c, 1, 52, 100
3, 170876, Note_off_c, 1, 45, 100
3, 170876, Note_off_c, 1, 55, 100
3, 170880, Note_on_c, 1, 55, 80
3, 170880, Note_on_c, 1, 52, 80
3, 170880, Note_on_c, 1, 45, 80
3, 171260, Note_off_c, 1, 55, 100
3, 171260, Note_off_c, 1, 52, 100
3, 171260, Note_off_c, 1, 45, 100
3, 171648, Note_on_c, 1, 54, 80
3, 171648, Note_on_c, 1, 50, 80
3, 172028, Note_off_c, 1, 54, 100
3, 172028, Note_off_c, 1, 50, 100
3, 172032, Note_on_c, 1, 54, 80
3, 172032, Note_on_c, 1, 50, 80
3, 172412, Note_off_c, 1, 54, 100
3, 172412, Note_off_c, 1, 50, 100
3, 175104, Note_on_c, 1, 57, 80
3, 176256, Note_on_c, 1, 45, 80
3, 177404, Note_off_c, 1, 57, 100
3, 177404, Note_off_c, 1, 45, 100
3, 177408, Note_on_c, 1, 57, 80
3, 177408, Note_on_c, 1, 52, 80
3, 177408, Note_on_c, 1, 49, 80
3, 177788, Note_off_c, 1, 57, 100
3, 177788, Note_off_c, 1, 52, 100
3, 177788, Note_off_c, 1, 49, 100
3, 177792, Note_on_c, 1, 57, 80
3, 177792, Note_on_c, 1, 52, 80
3, 177792, Note_on_c, 1, 49, 80
3, 178172, Note_off_c, 1, 57, 100
3, 178172, Note_off_c, 1, 52, 100
3, 178172, Note_off_c, 1, 49, 100
3, 178560, Note_on_c, 1, 59, 80
3, 178560, Note_on_c, 1, 54, 80
3, 178560, Note_on_c, 1, 50, 80
3, 178940, Note_off_c, 1, 59, 100
3, 178940, Note_off_c, 1, 54, 100
3, 178940, Note_off_c, 1, 50, 100
3, 178944, Note_on_c, 1, 59, 80
3, 178944, Note_on_c, 1, 54, 80
3, 178944, Note_on_c, 1, 50, 80
3, 179324, Note_off_c, 1, 59, 100
3, 179324, Note_off_c, 1, 54, 100
3, 179324, Note_off_c, 1, 50, 100
3, 179712, Note_on_c, 1, 62, 80
3, 179712, Note_on_c, 1, 59, 80
3, 179712, Note_on_c, 1, 52, 80
3, 180092, Note_off_c, 1, 62, 100
3, 180092, Note_off_c, 1, 59, 100
3, 180092, Note_off_c, 1, 52, 100
3, 180096, Note_on_c, 1, 62, 80
3, 180096, Note_on_c, 1, 59, 80
3, 180096, Note_on_c, 1, 52, 80
3, 180476, Note_off_c, 1, 62, 100
3, 180476, Note_off_c, 1, 59, 100
3, 180476, Note_off_c, 1, 52, 100
3, 180864, Note_on_c, 1, 61, 80
3, 180864, Note_on_c, 1, 57, 80
3, 181244, Note_off_c, 1, 61, 100
3, 181244, Note_off_c, 1, 57, 100
3, 181248, Note_on_c, 1, 61, 80
3, 181248, Note_on_c, 1, 57, 80
3, 181628, Note_off_c, 1, 61, 100
3, 181628, Note_off_c, 1, 57, 100
3, 184320, Note_on_c, 1, 54, 110
3, 184320, Note_on_c, 1, 50, 110
3, 185468, Note_off_c, 1, 54, 100
3, 185468, Note_off_c, 1, 50, 100
3, 185472, Note_on_c, 1, 42, 110
3, 185472, Note_on_c, 1, 38, 110
3, 186620, Note_off_c, 1, 42, 100
3, 186620, Note_off_c, 1, 38, 100
3, 186624, Note_on_c, 1, 54, 80
3, 186624, Note_on_c, 1, 50, 80
3, 187004, Note_off_c, 1, 54, 100
3, 187004, Note_off_c, 1, 50, 100
3, 187008, Note_on_c, 1, 54, 80
3, 187008, Note_on_c, 1, 50, 80
3, 187388, Note_off_c, 1, 54, 100
3, 187388, Note_off_c, 1, 50, 100
3, 187776, Note_on_c, 1, 52, 80
3, 187776, Note_on_c, 1, 43, 80
3, 188156, Note_off_c, 1, 52, 100
3, 188156, Note_off_c, 1, 43, 100
3, 188160, Note_on_c, 1, 52, 80
3, 188160, Note_on_c, 1, 43, 80
3, 188540, Note_off_c, 1, 52, 100
3, 188540, Note_off_c, 1, 43, 100
3, 188928, Note_on_c, 1, 52, 80
3, 188928, Note_on_c, 1, 45, 80
3, 189308, Note_off_c, 1, 52, 100
3, 189308, Note_off_c, 1, 45, 100
3, 189312, Note_on_c, 1, 52, 80
3, 189312, Note_on_c, 1, 45, 80
3, 189692, Note_off_c, 1, 52, 100
3, 189692, Note_off_c, 1, 45, 100
3, 190080, Note_on_c, 1, 50, 80
3, 190080, Note_on_c, 1, 38, 80
3, 190460, Note_off_c, 1, 50, 100
3, 190460, Note_off_c, 1, 38, 100
3, 190464, Note_on_c, 1, 50, 80
3, 190464, Note_on_c, 1, 38, 80
3, 190844, Note_off_c, 1, 50, 100
3, 190844, Note_off_c, 1, 38, 100
3, 193536, Note_on_c, 1, 57, 110
3, 193536, Note_on_c, 1, 49, 110
3, 194684, Note_off_c, 1, 57, 100
3, 194684, Note_off_c, 1, 49, 100
3, 194688, Note_on_c, 1, 45, 110
3, 194688, Note_on_c, 1, 37, 110
3, 195836, Note_off_c, 1, 45, 100
3, 195836, Note_off_c, 1, 37, 100
3, 195840, Note_on_c, 1, 57, 80
3, 195840, Note_on_c, 1, 52, 80
3, 195840, Note_on_c, 1, 49, 80
3, 196220, Note_off_c, 1, 57, 100
3, 196220, Note_off_c, 1, 52, 100
3, 196220, Note_off_c, 1, 49, 100
3, 196224, Note_on_c, 1, 57, 80
3, 196224, Note_on_c, 1, 52, 80
3, 196224, Note_on_c, 1, 49, 80
3, 196604, Note_off_c, 1, 57, 100
3, 196604, Note_off_c, 1, 52, 100
3, 196604, Note_off_c, 1, 49, 100
3, 196992, Note_on_c, 1, 59, 80
3, 196992, Note_on_c, 1, 54, 80
3, 196992, Note_on_c, 1, 50, 80
3, 197372, Note_off_c, 1, 59, 100
3, 197372, Note_off_c, 1, 54, 100
3, 197372, Note_off_c, 1, 50, 100
3, 197376, Note_on_c, 1, 59, 80
3, 197376, Note_on_c, 1, 54, 80
3, 197376, Note_on_c, 1, 50, 80
3, 197756, Note_off_c, 1, 59, 100
3, 197756, Note_off_c, 1, 54, 100
3, 197756, Note_off_c, 1, 50, 100
3, 198144, Note_on_c, 1, 59, 80
3, 198144, Note_on_c, 1, 52, 80
3, 198524, Note_off_c, 1, 59, 100
3, 198524, Note_off_c, 1, 52, 100
3, 198528, Note_on_c, 1, 59, 80
3, 198528, Note_on_c, 1, 52, 80
3, 198908, Note_off_c, 1, 59, 100
3, 198908, Note_off_c, 1, 52, 100
3, 199296, Note_on_c, 1, 57, 80
3, 199296, Note_on_c, 1, 45, 80
3, 199676, Note_off_c, 1, 57, 100
3, 199676, Note_off_c, 1, 45, 100
3, 199680, Note_on_c, 1, 57, 80
3, 199680, Note_on_c, 1, 45, 80
3, 200060, Note_off_c, 1, 57, 100
3, 200060, Note_off_c, 1, 45, 100
3, 200448, Note_on_c, 1, 66, 70
3, 201596, Note_off_c, 1, 66, 100
3, 201600, Note_on_c, 1, 54, 70
3, 202748, Note_off_c, 1, 54, 100
3, 202752, Note_on_c, 1, 42, 70
3, 203900, Note_off_c, 1, 42, 100
3, 203904, Note_on_c, 1, 43, 70
3, 205052, Note_off_c, 1, 43, 100
3, 205056, Note_on_c, 1, 68, 70
3, 206204, Note_off_c, 1, 68, 100
3, 206208, Note_on_c, 1, 56, 70
3, 207356, Note_off_c, 1, 56, 100
3, 207360, Note_on_c, 1, 44, 70
3, 208508, Note_off_c, 1, 44, 100
3, 208512, Note_on_c, 1, 45, 70
3, 209660, Note_off_c, 1, 45, 100
3, 209664, Note_on_c, 1, 70, 77
3, 210812, Note_off_c, 1, 70, 100
3, 210816, Note_on_c, 1, 58, 84
3, 211964, Note_off_c, 1, 58, 100
3, 211968, Note_on_c, 1, 46, 91
3, 213116, Note_off_c, 1, 46, 100
3, 213120, Note_on_c, 1, 47, 98
3, 214268, Note_off_c, 1, 47, 100
3, 214272, Note_on_c, 1, 59, 106
3, 215420, Note_off_c, 1, 59, 100
3, 215424, Note_on_c, 1, 60, 105
3, 216572, Note_off_c, 1, 60, 100
3, 216576, Note_on_c, 1, 61, 80
3, 220028, Note_off_c, 1, 61, 100
3, 222336, Note_on_c, 1, 54, 80
3, 222336, Note_on_c, 1, 50, 80
3, 223484, Note_off_c, 1, 54, 100
3, 223484, Note_off_c, 1, 50, 100
3, 223488, Note_on_c, 1, 42, 80
3, 223488, Note_on_c, 1, 38, 80
3, 224636, Note_off_c, 1, 42, 100
3, 224636, Note_off_c, 1, 38, 100
3, 224640, Note_on_c, 1, 54, 80
3, 224640, Note_on_c, 1, 50, 80
3, 225020, Note_off_c, 1, 54, 100
3, 225020, Note_off_c, 1, 50, 100
3, 225024, Note_on_c, 1, 54, 80
3, 225024, Note_on_c, 1, 50, 80
3, 225404, Note_off_c, 1, 54, 100
3, 225404, Note_off_c, 1, 50, 100
3, 225792, Note_on_c, 1, 52, 80
3, 225792, Note_on_c, 1, 47, 80
3, 225792, Note_on_c, 1, 43, 80
3, 226172, Note_off_c, 1, 52, 100
3, 226172, Note_off_c, 1, 47, 100
3, 226172, Note_off_c, 1, 43, 100
3, 226176, Note_on_c, 1, 52, 80
3, 226176, Note_on_c, 1, 47, 80
3, 226176, Note_on_c, 1, 43, 80
3, 226556, Note_off_c, 1, 52, 100
3, 226556, Note_off_c, 1, 47, 100
3, 226556, Note_off_c, 1, 43, 100
3, 226944, Note_on_c, 1, 55, 80
3, 226944, Note_on_c, 1, 52, 80
3, 226944, Note_on_c, 1, 45, 80
3, 227324, Note_off_c, 1, 55, 100
3, 227324, Note_off_c, 1, 52, 100
3, 227324, Note_off_c, 1, 45, 100
3, 227328, Note_on_c, 1, 55, 80
3, 227328, Note_on_c, 1, 52, 80
3, 227328, Note_on_c, 1, 45, 80
3, 227708, Note_off_c, 1, 55, 100
3, 227708, Note_off_c, 1, 52, 100
3, 227708, Note_off_c, 1, 45, 100
3, 228096, Note_on_c, 1, 54, 80
3, 228096, Note_on_c, 1, 50, 80
3, 228476, Note_off_c, 1, 54, 100
3, 228476, Note_off_c, 1, 50, 100
3, 228480, Note_on_c, 1, 54, 80
3, 228480, Note_on_c, 1, 50, 80
3, 228860, Note_off_c, 1, 54, 100
3, 228860, Note_off_c, 1, 50, 100
3, 230400, Note_on_c, 1, 62, 120
3, 230400, Note_on_c, 1, 57, 120
3, 230400, Note_on_c, 1, 54, 120
3, 231548, Note_off_c, 1, 62, 100
3, 231548, Note_off_c, 1, 57, 100
3, 231548, Note_off_c, 1, 54, 100
3, 231552, Note_on_c, 1, 50, 120
3, 231552, Note_on_c, 1, 45, 120
3, 231552, Note_on_c, 1, 42, 120
3, 232700, Note_off_c, 1, 50, 100
3, 232700, Note_off_c, 1, 45, 100
3, 232700, Note_off_c, 1, 42, 100
3, 232704, Note_on_c, 1, 38, 120
3, 232704, Note_on_c, 1, 33, 120
3, 232704, Note_on_c, 1, 30, 120
3, 233852, Note_off_c, 1, 38, 100
3, 233852, Note_off_c, 1, 33, 100
3, 233852, Note_off_c, 1, 30, 100
3, 233856, Note_on_c, 1, 63, 80
3, 233856, Note_on_c, 1, 60, 80
3, 233856, Note_on_c, 1, 57, 80
3, 233856, Note_on_c, 1, 54, 80
3, 234236, Note_off_c, 1, 63, 100
3, 234236, Note_off_c, 1, 60, 100
3, 234236, Note_off_c, 1, 57, 100
3, 234236, Note_off_c, 1, 54, 100
3, 234240, Note_on_c, 1, 63, 80
3, 234240, Note_on_c, 1, 60, 80
3, 234240, Note_on_c, 1, 57, 80
3, 234240, Note_on_c, 1, 54, 80
3, 234620, Note_off_c, 1, 63, 100
3, 234620, Note_off_c, 1, 60, 100
3, 234620, Note_off_c, 1, 57, 100
3, 234620, Note_off_c, 1, 54, 100
3, 235008, Note_on_c, 1, 64, 80
3, 235008, Note_on_c, 1, 59, 80
3, 235008, Note_on_c, 1, 55, 80
3, 235388, Note_off_c, 1, 64, 100
3, 235388, Note_off_c, 1, 59, 100
3, 235388, Note_off_c, 1, 55, 100
3, 235392, Note_on_c, 1, 64, 80
3, 235392, Note_on_c, 1, 59, 80
3, 235392, Note_on_c, 1, 55, 80
3, 235772, Note_off_c, 1, 64, 100
3, 235772, Note_off_c, 1, 59, 100
3, 235772, Note_off_c, 1, 55, 100
3, 236160, Note_on_c, 1, 67, 80
3, 236160, Note_on_c, 1, 64, 80
3, 236160, Note_on_c, 1, 57, 80
3, 236540, Note_off_c, 1, 67, 100
3, 236540, Note_off_c, 1, 64, 100
3, 236540, Note_off_c, 1, 57, 100
3, 236544, Note_on_c, 1, 67, 80
3, 236544, Note_on_c, 1, 64, 80
3, 236544, Note_on_c, 1, 57, 80
3, 236924, Note_off_c, 1, 67, 100
3, 236924, Note_off_c, 1, 64, 100
3, 236924, Note_off_c, 1, 57, 100
3, 237312, Note_on_c, 1, 66, 80
3, 237312, Note_on_c, 1, 62, 80
3, 237692, Note_off_c, 1, 66, 100
3, 237692, Note_off_c, 1, 62, 100
3, 237696, Note_on_c, 1, 62, 83
3, 238076, Note_off_c, 1, 62, 100
3, 238464, Note_on_c, 1, 55, 89
3, 238464, Note_on_c, 1, 52, 89
3, 238464, Note_on_c, 1, 45, 89
3, 238844, Note_off_c, 1, 55, 100
3, 238844, Note_off_c, 1, 52, 100
3, 238844, Note_off_c, 1, 45, 100
3, 238848, Note_on_c, 1, 55, 92
3, 238848, Note_on_c, 1, 52, 92
3, 238848, Note_on_c, 1, 45, 92
3, 239228, Note_off_c, 1, 55, 100
3, 239228, Note_off_c, 1, 52, 100
3, 239228, Note_off_c, 1, 45, 100
3, 239616, Note_on_c, 1, 54, 98
3, 239616, Note_on_c, 1, 50, 98
3, 239996, Note_off_c, 1, 54, 100
3, 239996, Note_off_c, 1, 50, 100
3, 240000, Note_on_c, 1, 50, 101
3, 240380, Note_off_c, 1, 50, 100
3, 240768, Note_on_c, 1, 43, 107
3, 240768, Note_on_c, 1, 33, 107
3, 241148, Note_off_c, 1, 43, 100
3, 241148, Note_off_c, 1, 33, 100
3, 241152, Note_on_c, 1, 43, 110
3, 241152, Note_on_c, 1, 33, 110
3, 241532, Note_off_c, 1, 43, 100
3, 241532, Note_off_c, 1, 33, 100
3, 241920, Note_on_c, 1, 42, 110
3, 241920, Note_on_c, 1, 38, 110
3, 242300, Note_off_c, 1, 42, 100
3, 242300, Note_off_c, 1, 38, 100
3, 242304, Note_on_c, 1, 42, 110
3, 242304, Note_on_c, 1, 38, 110
3, 242684, Note_off_c, 1, 42, 100
3, 242684, Note_off_c, 1, 38, 100
3, 243072, Note_on_c, 1, 50, 120
3, 243072, Note_on_c, 1, 38, 120
3, 244220, Note_off_c, 1, 50, 100
3, 244220, Note_off_c, 1, 38, 100
3, 244220, End_track
0, 0, End_of_file
