0, 0, Header, 1, 3, 384
1, 0, Start_track
1, 0, Title_t, "L.v.Beethoven 3mov - Piano Sonata No.16 in G Major Op.31-1\000"
1, 0, Copyright_t, "Copyright(C) 1995-2009, Suzuki Software\000"
1, 0, Sequencer_specific, 9, 67, 123, 0, 88, 70, 48, 50, 0, 1
1, 0, Text_t, "XFhd:2000/06/27:JP:Classical::::L.v.Beethoven:::Kaoru Suzuki\000"
1, 0, Text_t, "XFln:JP:\203s\203A\203m\203\\\203i\203^\221æ16\224Ô\203g\222·\222²\215ì\225i31-1\201`\221æ3\212y\217Í:L.v.\203x\201[\203g\201[\203\224\203F\203\223:::\227é\202¿\202á\202ñ:\227é\202¿\202á\202ñ\000"
1, 0, Time_signature, 2, 2, 96, 8
1, 0, Sequencer_specific, 3, 0, 0, 65
1, 0, Sequencer_specific, 5, 0, 0, 119, 14, 0
1, 0, Tempo, 285714
1, 768, Time_signature, 4, 2, 96, 8
1, 11136, Tempo, 300000
1, 11520, Tempo, 333333
1, 12480, Tempo, 285714
1, 146688, Tempo, 294117
1, 148224, Tempo, 306122
1, 148992, Tempo, 315789
1, 150144, Tempo, 285714
1, 154368, Tempo, 294117
1, 155136, Tempo, 315789
1, 156288, Tempo, 285714
1, 166656, Tempo, 294117
1, 167424, Tempo, 315789
1, 168576, Tempo, 285714
1, 189696, Tempo, 294117
1, 190464, Tempo, 312500
1, 192000, Tempo, 300000
1, 196608, Tempo, 315789
1, 197568, Tempo, 285714
1, 269568, Tempo, 294117
1, 271104, Tempo, 306122
1, 271872, Tempo, 319148
1, 273408, Tempo, 292682
1, 311040, Tempo, 297029
1, 312576, Tempo, 306122
1, 314112, Tempo, 315789
1, 314880, Tempo, 375000
1, 315456, Tempo, 500000
1, 316608, Tempo, 300000
1, 329472, Tempo, 309278
1, 331008, Tempo, 319148
1, 331776, Tempo, 333333
1, 332736, Tempo, 300000
1, 338880, Tempo, 306122
1, 340416, Tempo, 319148
1, 340992, Tempo, 352941
1, 349440, Tempo, 400000
1, 354816, Tempo, 300000
1, 358656, Tempo, 400000
1, 370944, Tempo, 285714
1, 374016, Tempo, 222222
1, 418560, Tempo, 240000
1, 420096, Tempo, 260869
1, 421632, Tempo, 333333
1, 421632, End_track
2, 0, Start_track
2, 0, Title_t, "Right"
2, 0, Control_c, 0, 0, 0
2, 0, Program_c, 0, 0
2, 0, Control_c, 0, 7, 100
2, 0, Control_c, 0, 10, 74
2, 0, Control_c, 0, 91, 127
2, 0, Key_signature, 1, "major"
2, 0, Note_on_c, 0, 76, 80
2, 44, Note_off_c, 0, 76, 100
2, 48, Note_on_c, 0, 74, 80
2, 184, Note_off_c, 0, 74, 100
2, 192, Note_on_c, 0, 73, 80
2, 380, Note_off_c, 0, 73, 100
2, 384, Note_on_c, 0, 74, 80
2, 572, Note_off_c, 0, 74, 100
2, 576, Note_on_c, 0, 76, 80
2, 764, Note_off_c, 0, 76, 100
2, 768, Note_on_c, 0, 74, 80
2, 1148, Note_off_c, 0, 74, 100
2, 1152, Note_on_c, 0, 62, 80
2, 1536, Note_on_c, 0, 64, 80
2, 1916, Note_off_c, 0, 64, 100
2, 1920, Note_on_c, 0, 66, 80
2, 2300, Note_off_c, 0, 66, 100
2, 2304, Note_on_c, 0, 67, 80
2, 3068, Note_off_c, 0, 67, 100
2, 3072, Note_on_c, 0, 71, 80
2, 3260, Note_off_c, 0, 71, 100
2, 3264, Note_on_c, 0, 69, 80
2, 3452, Note_off_c, 0, 69, 100
2, 3456, Note_on_c, 0, 67, 80
2, 3644, Note_off_c, 0, 67, 100
2, 3648, Note_on_c, 0, 69, 80
2, 3836, Note_off_c, 0, 69, 100
2, 3840, Note_on_c, 0, 71, 80
2, 4220, Note_off_c, 0, 62, 100
2, 4220, Note_off_c, 0, 71, 100
2, 4224, Note_on_c, 0, 67, 80
2, 4608, Note_on_c, 0, 73, 80
2, 4988, Note_off_c, 0, 67, 100
2, 4988, Note_off_c, 0, 73, 100
2, 4992, Note_on_c, 0, 69, 80
2, 4992, Note_on_c, 0, 67, 80
2, 5372, Note_off_c, 0, 69, 100
2, 5372, Note_off_c, 0, 67, 100
2, 5376, Note_on_c, 0, 66, 80
2, 5376, Note_on_c, 0, 74, 80
2, 6140, Note_off_c, 0, 66, 100
2, 6140, Note_off_c, 0, 74, 100
2, 6144, Note_on_c, 0, 76, 80
2, 6188, Note_off_c, 0, 76, 100
2, 6192, Note_on_c, 0, 74, 80
2, 6328, Note_off_c, 0, 74, 100
2, 6336, Note_on_c, 0, 73, 80
2, 6524, Note_off_c, 0, 73, 100
2, 6528, Note_on_c, 0, 74, 80
2, 6716, Note_off_c, 0, 74, 100
2, 6720, Note_on_c, 0, 76, 80
2, 6908, Note_off_c, 0, 76, 100
2, 6912, Note_on_c, 0, 74, 80
2, 7292, Note_off_c, 0, 74, 100
2, 7296, Note_on_c, 0, 62, 80
2, 7680, Note_on_c, 0, 64, 80
2, 8060, Note_off_c, 0, 64, 100
2, 8064, Note_on_c, 0, 66, 80
2, 8444, Note_off_c, 0, 66, 100
2, 8448, Note_on_c, 0, 67, 80
2, 9212, Note_off_c, 0, 67, 100
2, 9216, Note_on_c, 0, 71, 80
2, 9404, Note_off_c, 0, 71, 100
2, 9408, Note_on_c, 0, 69, 80
2, 9596, Note_off_c, 0, 69, 100
2, 9600, Note_on_c, 0, 67, 80
2, 9788, Note_off_c, 0, 67, 100
2, 9792, Note_on_c, 0, 69, 80
2, 9980, Note_off_c, 0, 69, 100
2, 9984, Note_on_c, 0, 71, 80
2, 10364, Note_off_c, 0, 62, 100
2, 10364, Note_off_c, 0, 71, 100
2, 10368, Note_on_c, 0, 67, 80
2, 10368, Note_on_c, 0, 64, 80
2, 10748, Note_off_c, 0, 67, 100
2, 10752, Note_on_c, 0, 72, 80
2, 10752, Note_on_c, 0, 69, 80
2, 11132, Note_off_c, 0, 64, 100
2, 11132, Note_off_c, 0, 72, 100
2, 11132, Note_off_c, 0, 69, 100
2, 11136, Note_on_c, 0, 69, 80
2, 11136, Note_on_c, 0, 66, 80
2, 11136, Note_on_c, 0, 60, 80
2, 11516, Note_off_c, 0, 69, 100
2, 11516, Note_off_c, 0, 66, 100
2, 11516, Note_off_c, 0, 60, 100
2, 11520, Note_on_c, 0, 67, 80
2, 11520, Note_on_c, 0, 59, 80
2, 11900, Note_off_c, 0, 67, 100
2, 11900, Note_off_c, 0, 59, 100
2, 12288, Note_on_c, 0, 79, 80
2, 12288, Note_on_c, 0, 71, 80
2, 12668, Note_off_c, 0, 79, 100
2, 12668, Note_off_c, 0, 71, 100
2, 12672, Note_on_c, 0, 78, 86
2, 12672, Note_on_c, 0, 72, 86
2, 13052, Note_off_c, 0, 78, 100
2, 13052, Note_off_c, 0, 72, 100
2, 13056, Note_on_c, 0, 77, 93
2, 13056, Note_on_c, 0, 74, 93
2, 13436, Note_off_c, 0, 77, 100
2, 13436, Note_off_c, 0, 74, 100
2, 13440, Note_on_c, 0, 76, 99
2, 13440, Note_on_c, 0, 67, 99
2, 13820, Note_off_c, 0, 76, 100
2, 13820, Note_off_c, 0, 67, 100
2, 13824, Note_on_c, 0, 75, 110
2, 13824, Note_on_c, 0, 67, 110
2, 13824, Note_on_c, 0, 72, 110
2, 14204, Note_off_c, 0, 75, 100
2, 14204, Note_off_c, 0, 67, 100
2, 14204, Note_off_c, 0, 72, 100
2, 14208, Note_on_c, 0, 75, 101
2, 14208, Note_on_c, 0, 69, 101
2, 14208, Note_on_c, 0, 72, 101
2, 14588, Note_off_c, 0, 75, 100
2, 14588, Note_off_c, 0, 69, 100
2, 14588, Note_off_c, 0, 72, 100
2, 14592, Note_on_c, 0, 75, 91
2, 14592, Note_on_c, 0, 72, 91
2, 14972, Note_off_c, 0, 75, 100
2, 14972, Note_off_c, 0, 72, 100
2, 14976, Note_on_c, 0, 74, 81
2, 14976, Note_on_c, 0, 71, 81
2, 15356, Note_off_c, 0, 74, 100
2, 15356, Note_off_c, 0, 71, 100
2, 15360, Note_on_c, 0, 69, 80
2, 15360, Note_on_c, 0, 66, 80
2, 15360, Note_on_c, 0, 76, 80
2, 15548, Note_off_c, 0, 76, 100
2, 15552, Note_on_c, 0, 74, 80
2, 15740, Note_off_c, 0, 74, 100
2, 15744, Note_on_c, 0, 73, 80
2, 15932, Note_off_c, 0, 73, 100
2, 15936, Note_on_c, 0, 74, 80
2, 16124, Note_off_c, 0, 69, 100
2, 16124, Note_off_c, 0, 66, 100
2, 16124, Note_off_c, 0, 74, 100
2, 16128, Note_on_c, 0, 67, 80
2, 16128, Note_on_c, 0, 62, 80
2, 16128, Note_on_c, 0, 71, 80
2, 16508, Note_off_c, 0, 71, 100
2, 16512, Note_on_c, 0, 74, 80
2, 16892, Note_off_c, 0, 67, 100
2, 16892, Note_off_c, 0, 62, 100
2, 16892, Note_off_c, 0, 74, 100
2, 16896, Note_on_c, 0, 69, 80
2, 16896, Note_on_c, 0, 66, 80
2, 16896, Note_on_c, 0, 76, 80
2, 17084, Note_off_c, 0, 76, 100
2, 17088, Note_on_c, 0, 74, 80
2, 17276, Note_off_c, 0, 74, 100
2, 17280, Note_on_c, 0, 73, 80
2, 17468, Note_off_c, 0, 73, 100
2, 17472, Note_on_c, 0, 74, 80
2, 17660, Note_off_c, 0, 69, 100
2, 17660, Note_off_c, 0, 66, 100
2, 17660, Note_off_c, 0, 74, 100
2, 17664, Note_on_c, 0, 71, 80
2, 17664, Note_on_c, 0, 67, 80
2, 17664, Note_on_c, 0, 62, 80
2, 18044, Note_off_c, 0, 71, 100
2, 18044, Note_off_c, 0, 67, 100
2, 18044, Note_off_c, 0, 62, 100
2, 18432, Note_on_c, 0, 79, 80
2, 18432, Note_on_c, 0, 71, 80
2, 18812, Note_off_c, 0, 79, 100
2, 18812, Note_off_c, 0, 71, 100
2, 18816, Note_on_c, 0, 78, 86
2, 18816, Note_on_c, 0, 72, 86
2, 19196, Note_off_c, 0, 78, 100
2, 19196, Note_off_c, 0, 72, 100
2, 19200, Note_on_c, 0, 77, 93
2, 19200, Note_on_c, 0, 74, 93
2, 19580, Note_off_c, 0, 77, 100
2, 19580, Note_off_c, 0, 74, 100
2, 19584, Note_on_c, 0, 76, 99
2, 19584, Note_on_c, 0, 67, 99
2, 19964, Note_off_c, 0, 76, 100
2, 19964, Note_off_c, 0, 67, 100
2, 19968, Note_on_c, 0, 75, 110
2, 19968, Note_on_c, 0, 67, 110
2, 19968, Note_on_c, 0, 72, 110
2, 20348, Note_off_c, 0, 75, 100
2, 20348, Note_off_c, 0, 67, 100
2, 20348, Note_off_c, 0, 72, 100
2, 20352, Note_on_c, 0, 75, 101
2, 20352, Note_on_c, 0, 69, 101
2, 20352, Note_on_c, 0, 72, 101
2, 20732, Note_off_c, 0, 75, 100
2, 20732, Note_off_c, 0, 69, 100
2, 20732, Note_off_c, 0, 72, 100
2, 20736, Note_on_c, 0, 75, 91
2, 20736, Note_on_c, 0, 72, 91
2, 21116, Note_off_c, 0, 75, 100
2, 21116, Note_off_c, 0, 72, 100
2, 21120, Note_on_c, 0, 74, 81
2, 21120, Note_on_c, 0, 71, 81
2, 21500, Note_off_c, 0, 74, 100
2, 21500, Note_off_c, 0, 71, 100
2, 21504, Note_on_c, 0, 69, 80
2, 21504, Note_on_c, 0, 66, 80
2, 21504, Note_on_c, 0, 76, 80
2, 21692, Note_off_c, 0, 76, 100
2, 21696, Note_on_c, 0, 74, 80
2, 21884, Note_off_c, 0, 74, 100
2, 21888, Note_on_c, 0, 73, 80
2, 22076, Note_off_c, 0, 73, 100
2, 22080, Note_on_c, 0, 74, 80
2, 22268, Note_off_c, 0, 69, 100
2, 22268, Note_off_c, 0, 66, 100
2, 22268, Note_off_c, 0, 74, 100
2, 22272, Note_on_c, 0, 67, 80
2, 22272, Note_on_c, 0, 62, 80
2, 22272, Note_on_c, 0, 71, 80
2, 22652, Note_off_c, 0, 71, 100
2, 22656, Note_on_c, 0, 74, 80
2, 23036, Note_off_c, 0, 67, 100
2, 23036, Note_off_c, 0, 62, 100
2, 23036, Note_off_c, 0, 74, 100
2, 23040, Note_on_c, 0, 69, 80
2, 23040, Note_on_c, 0, 66, 80
2, 23040, Note_on_c, 0, 76, 80
2, 23228, Note_off_c, 0, 76, 100
2, 23232, Note_on_c, 0, 74, 80
2, 23420, Note_off_c, 0, 74, 100
2, 23424, Note_on_c, 0, 73, 80
2, 23612, Note_off_c, 0, 73, 100
2, 23616, Note_on_c, 0, 74, 80
2, 23804, Note_off_c, 0, 69, 100
2, 23804, Note_off_c, 0, 66, 100
2, 23804, Note_off_c, 0, 74, 100
2, 23808, Note_on_c, 0, 71, 80
2, 23808, Note_on_c, 0, 67, 80
2, 23808, Note_on_c, 0, 62, 80
2, 24188, Note_off_c, 0, 71, 100
2, 24188, Note_off_c, 0, 67, 100
2, 24188, Note_off_c, 0, 62, 100
2, 25344, Control_c, 0, 64, 127
2, 25472, Note_on_c, 0, 83, 80
2, 25600, Note_on_c, 0, 84, 80
2, 25724, Note_off_c, 0, 83, 100
2, 25724, Note_off_c, 0, 84, 100
2, 25728, Note_on_c, 0, 86, 80
2, 25852, Note_off_c, 0, 86, 100
2, 25856, Note_on_c, 0, 84, 80
2, 25980, Note_off_c, 0, 84, 100
2, 25984, Note_on_c, 0, 83, 80
2, 26104, Control_c, 0, 64, 0
2, 26108, Note_off_c, 0, 83, 100
2, 26112, Control_c, 0, 64, 127
2, 26112, Note_on_c, 0, 84, 80
2, 26236, Note_off_c, 0, 84, 100
2, 26240, Note_on_c, 0, 81, 80
2, 26364, Note_off_c, 0, 81, 100
2, 26368, Note_on_c, 0, 83, 80
2, 26492, Note_off_c, 0, 83, 100
2, 26496, Note_on_c, 0, 84, 80
2, 26620, Note_off_c, 0, 84, 100
2, 26624, Note_on_c, 0, 83, 80
2, 26748, Note_off_c, 0, 83, 100
2, 26752, Note_on_c, 0, 81, 80
2, 26872, Control_c, 0, 64, 0
2, 26876, Note_off_c, 0, 81, 100
2, 26880, Control_c, 0, 64, 127
2, 26880, Note_on_c, 0, 83, 80
2, 27004, Note_off_c, 0, 83, 100
2, 27008, Note_on_c, 0, 79, 80
2, 27132, Note_off_c, 0, 79, 100
2, 27136, Note_on_c, 0, 81, 80
2, 27260, Note_off_c, 0, 81, 100
2, 27264, Note_on_c, 0, 83, 80
2, 27388, Note_off_c, 0, 83, 100
2, 27392, Note_on_c, 0, 81, 80
2, 27516, Note_off_c, 0, 81, 100
2, 27520, Note_on_c, 0, 79, 80
2, 27640, Control_c, 0, 64, 0
2, 27644, Note_off_c, 0, 79, 100
2, 27648, Control_c, 0, 64, 127
2, 27648, Note_on_c, 0, 78, 80
2, 27772, Note_off_c, 0, 78, 100
2, 27776, Note_on_c, 0, 76, 80
2, 27900, Note_off_c, 0, 76, 100
2, 27904, Note_on_c, 0, 74, 80
2, 28028, Note_off_c, 0, 74, 100
2, 28032, Note_on_c, 0, 72, 80
2, 28156, Note_off_c, 0, 72, 100
2, 28160, Note_on_c, 0, 71, 80
2, 28284, Note_off_c, 0, 71, 100
2, 28288, Note_on_c, 0, 69, 80
2, 28408, Control_c, 0, 64, 0
2, 28412, Note_off_c, 0, 69, 100
2, 28416, Control_c, 0, 64, 127
2, 28416, Note_on_c, 0, 67, 80
2, 28540, Note_off_c, 0, 67, 100
2, 28544, Note_on_c, 0, 74, 80
2, 28668, Note_off_c, 0, 74, 100
2, 28672, Note_on_c, 0, 73, 80
2, 28796, Note_off_c, 0, 73, 100
2, 28800, Note_on_c, 0, 74, 80
2, 28924, Note_off_c, 0, 74, 100
2, 28928, Note_on_c, 0, 71, 80
2, 29052, Note_off_c, 0, 71, 100
2, 29056, Note_on_c, 0, 69, 80
2, 29176, Control_c, 0, 64, 0
2, 29180, Note_off_c, 0, 69, 100
2, 29184, Control_c, 0, 64, 127
2, 29184, Note_on_c, 0, 67, 80
2, 29308, Note_off_c, 0, 67, 100
2, 29312, Note_on_c, 0, 76, 80
2, 29436, Note_off_c, 0, 76, 100
2, 29440, Note_on_c, 0, 75, 80
2, 29564, Note_off_c, 0, 75, 100
2, 29568, Note_on_c, 0, 76, 80
2, 29692, Note_off_c, 0, 76, 100
2, 29696, Note_on_c, 0, 73, 80
2, 29820, Note_off_c, 0, 73, 100
2, 29824, Note_on_c, 0, 67, 80
2, 29944, Control_c, 0, 64, 0
2, 29948, Note_off_c, 0, 67, 100
2, 29952, Control_c, 0, 64, 127
2, 29952, Note_on_c, 0, 66, 80
2, 30076, Note_off_c, 0, 66, 100
2, 30080, Note_on_c, 0, 74, 80
2, 30204, Note_off_c, 0, 74, 100
2, 30208, Note_on_c, 0, 73, 80
2, 30332, Note_off_c, 0, 73, 100
2, 30336, Note_on_c, 0, 74, 80
2, 30460, Note_off_c, 0, 74, 100
2, 30464, Note_on_c, 0, 69, 80
2, 30588, Note_off_c, 0, 69, 100
2, 30592, Note_on_c, 0, 66, 80
2, 30712, Control_c, 0, 64, 0
2, 30716, Note_off_c, 0, 66, 100
2, 30720, Control_c, 0, 64, 127
2, 30720, Note_on_c, 0, 62, 80
2, 31100, Note_off_c, 0, 62, 100
2, 31480, Control_c, 0, 64, 0
2, 31488, Control_c, 0, 64, 127
2, 31616, Note_on_c, 0, 83, 80
2, 31740, Note_off_c, 0, 83, 100
2, 31744, Note_on_c, 0, 84, 80
2, 31868, Note_off_c, 0, 84, 100
2, 31872, Note_on_c, 0, 86, 80
2, 31996, Note_off_c, 0, 86, 100
2, 32000, Note_on_c, 0, 84, 80
2, 32124, Note_off_c, 0, 84, 100
2, 32128, Note_on_c, 0, 83, 80
2, 32248, Control_c, 0, 64, 0
2, 32252, Note_off_c, 0, 83, 100
2, 32256, Control_c, 0, 64, 127
2, 32256, Note_on_c, 0, 84, 80
2, 32380, Note_off_c, 0, 84, 100
2, 32384, Note_on_c, 0, 81, 80
2, 32508, Note_off_c, 0, 81, 100
2, 32512, Note_on_c, 0, 83, 80
2, 32636, Note_off_c, 0, 83, 100
2, 32640, Note_on_c, 0, 84, 80
2, 32764, Note_off_c, 0, 84, 100
2, 32768, Note_on_c, 0, 83, 80
2, 32892, Note_off_c, 0, 83, 100
2, 32896, Note_on_c, 0, 81, 80
2, 33016, Control_c, 0, 64, 0
2, 33020, Note_off_c, 0, 81, 100
2, 33024, Control_c, 0, 64, 127
2, 33024, Note_on_c, 0, 83, 80
2, 33148, Note_off_c, 0, 83, 100
2, 33152, Note_on_c, 0, 79, 80
2, 33276, Note_off_c, 0, 79, 100
2, 33280, Note_on_c, 0, 81, 80
2, 33404, Note_off_c, 0, 81, 100
2, 33408, Note_on_c, 0, 83, 80
2, 33532, Note_off_c, 0, 83, 100
2, 33536, Note_on_c, 0, 81, 80
2, 33660, Note_off_c, 0, 81, 100
2, 33664, Note_on_c, 0, 79, 80
2, 33784, Control_c, 0, 64, 0
2, 33788, Note_off_c, 0, 79, 100
2, 33792, Control_c, 0, 64, 127
2, 33792, Note_on_c, 0, 78, 80
2, 33916, Note_off_c, 0, 78, 100
2, 33920, Note_on_c, 0, 76, 80
2, 34044, Note_off_c, 0, 76, 100
2, 34048, Note_on_c, 0, 74, 80
2, 34172, Note_off_c, 0, 74, 100
2, 34176, Note_on_c, 0, 72, 80
2, 34300, Note_off_c, 0, 72, 100
2, 34304, Note_on_c, 0, 71, 80
2, 34428, Note_off_c, 0, 71, 100
2, 34432, Note_on_c, 0, 69, 80
2, 34552, Control_c, 0, 64, 0
2, 34556, Note_off_c, 0, 69, 100
2, 34560, Control_c, 0, 64, 127
2, 34560, Note_on_c, 0, 67, 80
2, 34684, Note_off_c, 0, 67, 100
2, 34688, Note_on_c, 0, 66, 80
2, 34812, Note_off_c, 0, 66, 100
2, 34816, Note_on_c, 0, 67, 80
2, 34940, Note_off_c, 0, 67, 100
2, 34944, Note_on_c, 0, 69, 80
2, 35068, Note_off_c, 0, 69, 100
2, 35072, Note_on_c, 0, 71, 80
2, 35196, Note_off_c, 0, 71, 100
2, 35200, Note_on_c, 0, 72, 80
2, 35320, Control_c, 0, 64, 0
2, 35324, Note_off_c, 0, 72, 100
2, 35328, Control_c, 0, 64, 127
2, 35328, Note_on_c, 0, 74, 80
2, 35452, Note_off_c, 0, 74, 100
2, 35456, Note_on_c, 0, 62, 80
2, 35580, Note_off_c, 0, 62, 100
2, 35584, Note_on_c, 0, 61, 80
2, 35708, Note_off_c, 0, 61, 100
2, 35712, Note_on_c, 0, 62, 80
2, 35836, Note_off_c, 0, 62, 100
2, 35840, Note_on_c, 0, 64, 80
2, 35964, Note_off_c, 0, 64, 100
2, 35968, Note_on_c, 0, 66, 80
2, 36088, Control_c, 0, 64, 0
2, 36092, Note_off_c, 0, 66, 100
2, 36096, Control_c, 0, 64, 127
2, 36096, Note_on_c, 0, 67, 80
2, 36476, Note_off_c, 0, 67, 100
2, 36856, Control_c, 0, 64, 0
2, 36864, Control_c, 0, 64, 127
2, 36864, Note_on_c, 0, 55, 80
2, 37052, Note_off_c, 0, 55, 100
2, 37056, Note_on_c, 0, 67, 82
2, 37244, Note_off_c, 0, 67, 100
2, 37248, Note_on_c, 0, 57, 84
2, 37436, Note_off_c, 0, 57, 100
2, 37440, Note_on_c, 0, 69, 86
2, 37624, Control_c, 0, 64, 0
2, 37628, Note_off_c, 0, 69, 100
2, 37632, Control_c, 0, 64, 127
2, 37632, Note_on_c, 0, 59, 88
2, 37632, Note_on_c, 0, 67, 88
2, 37820, Note_off_c, 0, 59, 100
2, 37820, Note_off_c, 0, 67, 100
2, 37824, Note_on_c, 0, 71, 90
2, 38012, Note_off_c, 0, 71, 100
2, 38016, Note_on_c, 0, 67, 92
2, 38016, Note_on_c, 0, 60, 92
2, 38204, Note_off_c, 0, 67, 100
2, 38204, Note_off_c, 0, 60, 100
2, 38208, Note_on_c, 0, 72, 94
2, 38392, Control_c, 0, 64, 0
2, 38396, Note_off_c, 0, 72, 100
2, 38400, Control_c, 0, 64, 127
2, 38400, Note_on_c, 0, 70, 96
2, 38400, Note_on_c, 0, 67, 96
2, 38400, Note_on_c, 0, 61, 96
2, 38588, Note_off_c, 0, 70, 100
2, 38588, Note_off_c, 0, 67, 100
2, 38588, Note_off_c, 0, 61, 100
2, 38592, Note_on_c, 0, 73, 98
2, 38780, Note_off_c, 0, 73, 100
2, 38784, Note_on_c, 0, 70, 100
2, 38784, Note_on_c, 0, 67, 100
2, 38784, Note_on_c, 0, 61, 100
2, 38972, Note_off_c, 0, 70, 100
2, 38972, Note_off_c, 0, 67, 100
2, 38972, Note_off_c, 0, 61, 100
2, 38976, Note_on_c, 0, 73, 101
2, 39160, Control_c, 0, 64, 0
2, 39164, Note_off_c, 0, 73, 100
2, 39168, Control_c, 0, 64, 127
2, 39168, Note_on_c, 0, 70, 103
2, 39168, Note_on_c, 0, 67, 103
2, 39168, Note_on_c, 0, 61, 103
2, 39356, Note_off_c, 0, 70, 100
2, 39356, Note_off_c, 0, 67, 100
2, 39356, Note_off_c, 0, 61, 100
2, 39360, Note_on_c, 0, 73, 105
2, 39548, Note_off_c, 0, 73, 100
2, 39552, Note_on_c, 0, 71, 107
2, 39552, Note_on_c, 0, 67, 107
2, 39552, Note_on_c, 0, 62, 107
2, 39740, Note_off_c, 0, 71, 100
2, 39740, Note_off_c, 0, 67, 100
2, 39740, Note_off_c, 0, 62, 100
2, 39744, Note_on_c, 0, 74, 109
2, 39928, Control_c, 0, 64, 0
2, 39932, Note_off_c, 0, 74, 100
2, 39936, Control_c, 0, 64, 127
2, 39936, Note_on_c, 0, 76, 80
2, 39936, Note_on_c, 0, 69, 80
2, 39936, Note_on_c, 0, 66, 80
2, 40124, Note_off_c, 0, 76, 100
2, 40128, Note_on_c, 0, 74, 80
2, 40316, Note_off_c, 0, 74, 100
2, 40320, Note_on_c, 0, 73, 80
2, 40508, Note_off_c, 0, 73, 100
2, 40512, Note_on_c, 0, 74, 80
2, 40696, Control_c, 0, 64, 0
2, 40700, Note_off_c, 0, 69, 100
2, 40700, Note_off_c, 0, 66, 100
2, 40700, Note_off_c, 0, 74, 100
2, 40704, Control_c, 0, 64, 127
2, 40704, Note_on_c, 0, 67, 80
2, 40704, Note_on_c, 0, 62, 80
2, 40704, Note_on_c, 0, 71, 80
2, 41084, Note_off_c, 0, 71, 100
2, 41088, Note_on_c, 0, 74, 80
2, 41464, Control_c, 0, 64, 0
2, 41468, Note_off_c, 0, 67, 100
2, 41468, Note_off_c, 0, 62, 100
2, 41468, Note_off_c, 0, 74, 100
2, 41472, Control_c, 0, 64, 127
2, 41472, Note_on_c, 0, 69, 80
2, 41472, Note_on_c, 0, 66, 80
2, 41472, Note_on_c, 0, 76, 80
2, 41660, Note_off_c, 0, 76, 100
2, 41664, Note_on_c, 0, 74, 80
2, 41852, Note_off_c, 0, 74, 100
2, 41856, Note_on_c, 0, 73, 80
2, 42044, Note_off_c, 0, 73, 100
2, 42048, Note_on_c, 0, 74, 80
2, 42232, Control_c, 0, 64, 0
2, 42236, Note_off_c, 0, 69, 100
2, 42236, Note_off_c, 0, 66, 100
2, 42236, Note_off_c, 0, 74, 100
2, 42240, Note_on_c, 0, 67, 80
2, 42240, Note_on_c, 0, 62, 80
2, 42240, Note_on_c, 0, 71, 80
2, 42620, Note_off_c, 0, 67, 100
2, 42620, Note_off_c, 0, 62, 100
2, 42620, Note_off_c, 0, 71, 100
2, 43008, Note_on_c, 0, 67, 80
2, 43196, Note_off_c, 0, 67, 100
2, 43200, Note_on_c, 0, 79, 81
2, 43388, Note_off_c, 0, 79, 100
2, 43392, Note_on_c, 0, 69, 83
2, 43580, Note_off_c, 0, 69, 100
2, 43584, Note_on_c, 0, 79, 85
2, 43772, Note_off_c, 0, 79, 100
2, 43776, Control_c, 0, 64, 127
2, 43776, Note_on_c, 0, 71, 87
2, 43776, Note_on_c, 0, 67, 87
2, 43964, Note_off_c, 0, 71, 100
2, 43964, Note_off_c, 0, 67, 100
2, 43968, Note_on_c, 0, 79, 89
2, 44156, Note_off_c, 0, 79, 100
2, 44160, Note_on_c, 0, 72, 91
2, 44160, Note_on_c, 0, 67, 91
2, 44348, Note_off_c, 0, 72, 100
2, 44348, Note_off_c, 0, 67, 100
2, 44352, Note_on_c, 0, 79, 93
2, 44536, Control_c, 0, 64, 0
2, 44540, Note_off_c, 0, 79, 100
2, 44544, Control_c, 0, 64, 127
2, 44544, Note_on_c, 0, 73, 95
2, 44544, Note_on_c, 0, 70, 95
2, 44544, Note_on_c, 0, 67, 95
2, 44732, Note_off_c, 0, 73, 100
2, 44732, Note_off_c, 0, 70, 100
2, 44732, Note_off_c, 0, 67, 100
2, 44736, Note_on_c, 0, 79, 97
2, 44924, Note_off_c, 0, 79, 100
2, 44928, Note_on_c, 0, 73, 99
2, 44928, Note_on_c, 0, 70, 99
2, 44928, Note_on_c, 0, 67, 99
2, 45116, Note_off_c, 0, 73, 100
2, 45116, Note_off_c, 0, 70, 100
2, 45116, Note_off_c, 0, 67, 100
2, 45120, Note_on_c, 0, 79, 101
2, 45304, Control_c, 0, 64, 0
2, 45308, Note_off_c, 0, 79, 100
2, 45312, Control_c, 0, 64, 127
2, 45312, Note_on_c, 0, 73, 103
2, 45312, Note_on_c, 0, 70, 103
2, 45312, Note_on_c, 0, 67, 103
2, 45500, Note_off_c, 0, 73, 100
2, 45500, Note_off_c, 0, 70, 100
2, 45500, Note_off_c, 0, 67, 100
2, 45504, Note_on_c, 0, 79, 105
2, 45692, Note_off_c, 0, 79, 100
2, 45696, Note_on_c, 0, 74, 107
2, 45696, Note_on_c, 0, 71, 107
2, 45696, Note_on_c, 0, 67, 107
2, 45884, Note_off_c, 0, 74, 100
2, 45884, Note_off_c, 0, 71, 100
2, 45884, Note_off_c, 0, 67, 100
2, 45888, Note_on_c, 0, 79, 109
2, 46072, Control_c, 0, 64, 0
2, 46076, Note_off_c, 0, 79, 100
2, 46080, Control_c, 0, 64, 127
2, 46080, Note_on_c, 0, 66, 80
2, 46204, Note_off_c, 0, 66, 100
2, 46208, Note_on_c, 0, 70, 80
2, 46332, Note_off_c, 0, 70, 100
2, 46336, Note_on_c, 0, 74, 80
2, 46460, Note_off_c, 0, 74, 100
2, 46464, Note_on_c, 0, 78, 80
2, 46588, Note_off_c, 0, 78, 100
2, 46592, Note_on_c, 0, 74, 80
2, 46716, Note_off_c, 0, 74, 100
2, 46720, Note_on_c, 0, 70, 80
2, 46840, Control_c, 0, 64, 0
2, 46844, Note_off_c, 0, 70, 100
2, 46848, Control_c, 0, 64, 127
2, 46848, Note_on_c, 0, 67, 80
2, 46972, Note_off_c, 0, 67, 100
2, 46976, Note_on_c, 0, 71, 80
2, 47100, Note_off_c, 0, 71, 100
2, 47104, Note_on_c, 0, 74, 80
2, 47228, Note_off_c, 0, 74, 100
2, 47232, Note_on_c, 0, 79, 80
2, 47356, Note_off_c, 0, 79, 100
2, 47360, Note_on_c, 0, 74, 80
2, 47484, Note_off_c, 0, 74, 100
2, 47488, Note_on_c, 0, 71, 80
2, 47608, Control_c, 0, 64, 0
2, 47612, Note_off_c, 0, 71, 100
2, 47616, Control_c, 0, 64, 127
2, 47616, Note_on_c, 0, 66, 80
2, 47740, Note_off_c, 0, 66, 100
2, 47744, Note_on_c, 0, 69, 80
2, 47868, Note_off_c, 0, 69, 100
2, 47872, Note_on_c, 0, 74, 80
2, 47996, Note_off_c, 0, 74, 100
2, 48000, Note_on_c, 0, 78, 80
2, 48124, Note_off_c, 0, 78, 100
2, 48128, Note_on_c, 0, 74, 80
2, 48252, Note_off_c, 0, 74, 100
2, 48256, Note_on_c, 0, 69, 80
2, 48376, Control_c, 0, 64, 0
2, 48380, Note_off_c, 0, 69, 100
2, 48384, Control_c, 0, 64, 127
2, 48384, Note_on_c, 0, 67, 80
2, 48508, Note_off_c, 0, 67, 100
2, 48512, Note_on_c, 0, 71, 80
2, 48636, Note_off_c, 0, 71, 100
2, 48640, Note_on_c, 0, 74, 80
2, 48764, Note_off_c, 0, 74, 100
2, 48768, Note_on_c, 0, 79, 80
2, 48892, Note_off_c, 0, 79, 100
2, 48896, Note_on_c, 0, 74, 80
2, 49020, Note_off_c, 0, 74, 100
2, 49024, Note_on_c, 0, 71, 80
2, 49144, Control_c, 0, 64, 0
2, 49148, Note_off_c, 0, 71, 100
2, 49152, Control_c, 0, 64, 127
2, 49152, Note_on_c, 0, 84, 80
2, 49340, Note_off_c, 0, 84, 100
2, 49344, Note_on_c, 0, 83, 80
2, 49532, Note_off_c, 0, 83, 100
2, 49536, Note_on_c, 0, 82, 80
2, 49724, Note_off_c, 0, 82, 100
2, 49728, Note_on_c, 0, 83, 80
2, 49912, Control_c, 0, 64, 0
2, 49916, Note_off_c, 0, 83, 100
2, 49920, Note_on_c, 0, 79, 80
2, 50300, Note_off_c, 0, 79, 100
2, 50304, Note_on_c, 0, 83, 80
2, 50684, Note_off_c, 0, 83, 100
2, 50688, Note_on_c, 0, 84, 80
2, 50876, Note_off_c, 0, 84, 100
2, 50880, Note_on_c, 0, 83, 80
2, 51068, Note_off_c, 0, 83, 100
2, 51072, Note_on_c, 0, 82, 80
2, 51260, Note_off_c, 0, 82, 100
2, 51264, Note_on_c, 0, 83, 80
2, 51452, Note_off_c, 0, 83, 100
2, 51456, Control_c, 0, 64, 127
2, 51456, Note_on_c, 0, 79, 80
2, 51836, Note_off_c, 0, 79, 100
2, 51840, Note_on_c, 0, 83, 80
2, 52216, Control_c, 0, 64, 0
2, 52220, Note_off_c, 0, 83, 100
2, 52224, Control_c, 0, 64, 127
2, 52224, Note_on_c, 0, 73, 80
2, 52348, Note_off_c, 0, 73, 100
2, 52352, Note_on_c, 0, 76, 80
2, 52476, Note_off_c, 0, 76, 100
2, 52480, Note_on_c, 0, 81, 80
2, 52604, Note_off_c, 0, 81, 100
2, 52608, Note_on_c, 0, 85, 80
2, 52732, Note_off_c, 0, 85, 100
2, 52736, Note_on_c, 0, 81, 80
2, 52860, Note_off_c, 0, 81, 100
2, 52864, Note_on_c, 0, 76, 80
2, 52984, Control_c, 0, 64, 0
2, 52988, Note_off_c, 0, 76, 100
2, 52992, Control_c, 0, 64, 127
2, 52992, Note_on_c, 0, 74, 80
2, 53116, Note_off_c, 0, 74, 100
2, 53120, Note_on_c, 0, 78, 80
2, 53244, Note_off_c, 0, 78, 100
2, 53248, Note_on_c, 0, 81, 80
2, 53372, Note_off_c, 0, 81, 100
2, 53376, Note_on_c, 0, 86, 80
2, 53500, Note_off_c, 0, 86, 100
2, 53504, Note_on_c, 0, 81, 80
2, 53628, Note_off_c, 0, 81, 100
2, 53632, Note_on_c, 0, 78, 80
2, 53752, Control_c, 0, 64, 0
2, 53756, Note_off_c, 0, 78, 100
2, 53760, Control_c, 0, 64, 127
2, 53760, Note_on_c, 0, 73, 80
2, 53884, Note_off_c, 0, 73, 100
2, 53888, Note_on_c, 0, 76, 80
2, 54012, Note_off_c, 0, 76, 100
2, 54016, Note_on_c, 0, 81, 80
2, 54140, Note_off_c, 0, 81, 100
2, 54144, Note_on_c, 0, 85, 80
2, 54268, Note_off_c, 0, 85, 100
2, 54272, Note_on_c, 0, 81, 80
2, 54396, Note_off_c, 0, 81, 100
2, 54400, Note_on_c, 0, 76, 80
2, 54520, Control_c, 0, 64, 0
2, 54524, Note_off_c, 0, 76, 100
2, 54528, Control_c, 0, 64, 127
2, 54528, Note_on_c, 0, 74, 80
2, 54652, Note_off_c, 0, 74, 100
2, 54656, Note_on_c, 0, 78, 80
2, 54780, Note_off_c, 0, 78, 100
2, 54784, Note_on_c, 0, 81, 80
2, 54908, Note_off_c, 0, 81, 100
2, 54912, Note_on_c, 0, 86, 80
2, 55036, Note_off_c, 0, 86, 100
2, 55040, Note_on_c, 0, 81, 80
2, 55164, Note_off_c, 0, 81, 100
2, 55168, Note_on_c, 0, 78, 80
2, 55288, Control_c, 0, 64, 0
2, 55292, Note_off_c, 0, 78, 100
2, 55296, Control_c, 0, 64, 127
2, 55296, Note_on_c, 0, 83, 80
2, 55484, Note_off_c, 0, 83, 100
2, 55488, Note_on_c, 0, 81, 84
2, 55676, Note_off_c, 0, 81, 100
2, 55680, Note_on_c, 0, 80, 88
2, 55868, Note_off_c, 0, 80, 100
2, 55872, Note_on_c, 0, 81, 92
2, 56056, Control_c, 0, 64, 0
2, 56060, Note_off_c, 0, 81, 100
2, 56064, Note_on_c, 0, 79, 97
2, 56252, Note_off_c, 0, 79, 100
2, 56256, Note_on_c, 0, 78, 101
2, 56444, Note_off_c, 0, 78, 100
2, 56448, Note_on_c, 0, 77, 105
2, 56636, Note_off_c, 0, 77, 100
2, 56640, Note_on_c, 0, 78, 109
2, 56828, Note_off_c, 0, 78, 100
2, 56832, Note_on_c, 0, 78, 110
2, 56832, Note_on_c, 0, 71, 110
2, 56832, Note_on_c, 0, 68, 110
2, 57020, Note_off_c, 0, 78, 100
2, 57024, Note_on_c, 0, 76, 110
2, 57212, Note_off_c, 0, 71, 100
2, 57212, Note_off_c, 0, 68, 100
2, 57212, Note_off_c, 0, 76, 100
2, 57216, Note_on_c, 0, 75, 110
2, 57216, Note_on_c, 0, 71, 110
2, 57216, Note_on_c, 0, 68, 110
2, 57404, Note_off_c, 0, 75, 100
2, 57408, Note_on_c, 0, 76, 110
2, 57596, Note_off_c, 0, 71, 100
2, 57596, Note_off_c, 0, 68, 100
2, 57596, Note_off_c, 0, 76, 100
2, 57600, Note_on_c, 0, 78, 110
2, 57600, Note_on_c, 0, 73, 110
2, 57600, Note_on_c, 0, 69, 110
2, 57788, Note_off_c, 0, 78, 100
2, 57792, Note_on_c, 0, 76, 110
2, 57980, Note_off_c, 0, 73, 100
2, 57980, Note_off_c, 0, 69, 100
2, 57980, Note_off_c, 0, 76, 100
2, 57984, Note_on_c, 0, 75, 110
2, 58172, Note_off_c, 0, 75, 100
2, 58176, Note_on_c, 0, 76, 110
2, 58364, Note_off_c, 0, 76, 100
2, 58368, Note_on_c, 0, 83, 80
2, 58556, Note_off_c, 0, 83, 100
2, 58560, Note_on_c, 0, 81, 84
2, 58748, Note_off_c, 0, 81, 100
2, 58752, Note_on_c, 0, 80, 88
2, 58940, Note_off_c, 0, 80, 100
2, 58944, Note_on_c, 0, 81, 92
2, 59132, Note_off_c, 0, 81, 100
2, 59136, Note_on_c, 0, 79, 97
2, 59324, Note_off_c, 0, 79, 100
2, 59328, Note_on_c, 0, 78, 101
2, 59516, Note_off_c, 0, 78, 100
2, 59520, Note_on_c, 0, 77, 105
2, 59708, Note_off_c, 0, 77, 100
2, 59712, Note_on_c, 0, 78, 109
2, 59900, Note_off_c, 0, 78, 100
2, 59904, Note_on_c, 0, 78, 110
2, 59904, Note_on_c, 0, 71, 110
2, 59904, Note_on_c, 0, 68, 110
2, 60092, Note_off_c, 0, 78, 100
2, 60096, Note_on_c, 0, 76, 110
2, 60284, Note_off_c, 0, 71, 100
2, 60284, Note_off_c, 0, 68, 100
2, 60284, Note_off_c, 0, 76, 100
2, 60288, Note_on_c, 0, 75, 110
2, 60288, Note_on_c, 0, 71, 110
2, 60288, Note_on_c, 0, 68, 110
2, 60476, Note_off_c, 0, 75, 100
2, 60480, Note_on_c, 0, 76, 110
2, 60668, Note_off_c, 0, 71, 100
2, 60668, Note_off_c, 0, 68, 100
2, 60668, Note_off_c, 0, 76, 100
2, 60672, Note_on_c, 0, 78, 110
2, 60672, Note_on_c, 0, 73, 110
2, 60672, Note_on_c, 0, 69, 110
2, 60860, Note_off_c, 0, 78, 100
2, 60864, Note_on_c, 0, 76, 110
2, 61052, Note_off_c, 0, 73, 100
2, 61052, Note_off_c, 0, 69, 100
2, 61052, Note_off_c, 0, 76, 100
2, 61056, Note_on_c, 0, 75, 110
2, 61244, Note_off_c, 0, 75, 100
2, 61248, Note_on_c, 0, 76, 110
2, 61436, Note_off_c, 0, 76, 100
2, 61440, Note_on_c, 0, 78, 110
2, 61440, Note_on_c, 0, 71, 110
2, 61440, Note_on_c, 0, 68, 110
2, 61628, Note_off_c, 0, 78, 100
2, 61632, Note_on_c, 0, 76, 110
2, 61820, Note_off_c, 0, 71, 100
2, 61820, Note_off_c, 0, 68, 100
2, 61820, Note_off_c, 0, 76, 100
2, 61824, Note_on_c, 0, 75, 110
2, 61824, Note_on_c, 0, 71, 110
2, 61824, Note_on_c, 0, 68, 110
2, 62012, Note_off_c, 0, 75, 100
2, 62016, Note_on_c, 0, 76, 110
2, 62204, Note_off_c, 0, 71, 100
2, 62204, Note_off_c, 0, 68, 100
2, 62204, Note_off_c, 0, 76, 100
2, 62208, Note_on_c, 0, 78, 110
2, 62208, Note_on_c, 0, 73, 110
2, 62208, Note_on_c, 0, 69, 110
2, 62396, Note_off_c, 0, 78, 100
2, 62400, Note_on_c, 0, 76, 110
2, 62588, Note_off_c, 0, 73, 100
2, 62588, Note_off_c, 0, 69, 100
2, 62588, Note_off_c, 0, 76, 100
2, 62592, Note_on_c, 0, 75, 110
2, 62780, Note_off_c, 0, 75, 100
2, 62784, Note_on_c, 0, 76, 110
2, 62972, Note_off_c, 0, 76, 100
2, 62976, Note_on_c, 0, 78, 110
2, 62976, Note_on_c, 0, 71, 110
2, 62976, Note_on_c, 0, 68, 110
2, 63164, Note_off_c, 0, 78, 100
2, 63168, Note_on_c, 0, 76, 110
2, 63356, Note_off_c, 0, 71, 100
2, 63356, Note_off_c, 0, 68, 100
2, 63356, Note_off_c, 0, 76, 100
2, 63360, Note_on_c, 0, 75, 110
2, 63360, Note_on_c, 0, 71, 110
2, 63360, Note_on_c, 0, 68, 110
2, 63548, Note_off_c, 0, 75, 100
2, 63552, Note_on_c, 0, 76, 110
2, 63740, Note_off_c, 0, 71, 100
2, 63740, Note_off_c, 0, 68, 100
2, 63740, Note_off_c, 0, 76, 100
2, 63744, Control_c, 0, 64, 127
2, 63744, Note_on_c, 0, 69, 110
2, 64124, Note_off_c, 0, 69, 100
2, 64504, Control_c, 0, 64, 0
2, 64512, Control_c, 0, 64, 127
2, 64640, Note_on_c, 0, 69, 80
2, 64764, Note_off_c, 0, 69, 100
2, 64768, Note_on_c, 0, 71, 80
2, 64892, Note_off_c, 0, 71, 100
2, 64896, Note_on_c, 0, 73, 80
2, 65020, Note_off_c, 0, 73, 100
2, 65024, Note_on_c, 0, 71, 80
2, 65148, Note_off_c, 0, 71, 100
2, 65152, Note_on_c, 0, 69, 80
2, 65272, Control_c, 0, 64, 0
2, 65276, Note_off_c, 0, 69, 100
2, 65280, Control_c, 0, 64, 127
2, 65408, Note_on_c, 0, 74, 80
2, 65532, Note_off_c, 0, 74, 100
2, 65536, Note_on_c, 0, 76, 80
2, 65660, Note_off_c, 0, 76, 100
2, 65664, Note_on_c, 0, 78, 80
2, 65788, Note_off_c, 0, 78, 100
2, 65792, Note_on_c, 0, 76, 80
2, 65916, Note_off_c, 0, 76, 100
2, 65920, Note_on_c, 0, 74, 80
2, 66040, Control_c, 0, 64, 0
2, 66044, Note_off_c, 0, 74, 100
2, 66048, Control_c, 0, 64, 127
2, 66176, Note_on_c, 0, 69, 80
2, 66300, Note_off_c, 0, 69, 100
2, 66304, Note_on_c, 0, 71, 80
2, 66428, Note_off_c, 0, 71, 100
2, 66432, Note_on_c, 0, 73, 80
2, 66556, Note_off_c, 0, 73, 100
2, 66560, Note_on_c, 0, 71, 80
2, 66684, Note_off_c, 0, 71, 100
2, 66688, Note_on_c, 0, 69, 80
2, 66808, Control_c, 0, 64, 0
2, 66812, Note_off_c, 0, 69, 100
2, 66816, Control_c, 0, 64, 127
2, 66944, Note_on_c, 0, 74, 80
2, 67068, Note_off_c, 0, 74, 100
2, 67072, Note_on_c, 0, 76, 80
2, 67196, Note_off_c, 0, 76, 100
2, 67200, Note_on_c, 0, 78, 80
2, 67324, Note_off_c, 0, 78, 100
2, 67328, Note_on_c, 0, 76, 80
2, 67452, Note_off_c, 0, 76, 100
2, 67456, Note_on_c, 0, 74, 80
2, 67576, Control_c, 0, 64, 0
2, 67580, Note_off_c, 0, 74, 100
2, 67584, Control_c, 0, 64, 127
2, 67712, Note_on_c, 0, 69, 80
2, 67836, Note_off_c, 0, 69, 100
2, 67840, Note_on_c, 0, 71, 80
2, 67964, Note_off_c, 0, 71, 100
2, 67968, Note_on_c, 0, 73, 80
2, 68092, Note_off_c, 0, 73, 100
2, 68096, Note_on_c, 0, 71, 80
2, 68220, Note_off_c, 0, 71, 100
2, 68224, Note_on_c, 0, 69, 80
2, 68344, Control_c, 0, 64, 0
2, 68348, Note_off_c, 0, 69, 100
2, 68352, Control_c, 0, 64, 127
2, 68480, Note_on_c, 0, 74, 80
2, 68604, Note_off_c, 0, 74, 100
2, 68608, Note_on_c, 0, 76, 80
2, 68732, Note_off_c, 0, 76, 100
2, 68736, Note_on_c, 0, 78, 80
2, 68860, Note_off_c, 0, 78, 100
2, 68864, Note_on_c, 0, 76, 80
2, 68988, Note_off_c, 0, 76, 100
2, 68992, Note_on_c, 0, 74, 80
2, 69112, Control_c, 0, 64, 0
2, 69116, Note_off_c, 0, 74, 100
2, 69120, Control_c, 0, 64, 127
2, 69120, Note_on_c, 0, 79, 80
2, 69244, Note_off_c, 0, 79, 100
2, 69248, Note_on_c, 0, 76, 80
2, 69372, Note_off_c, 0, 76, 100
2, 69376, Note_on_c, 0, 73, 80
2, 69500, Note_off_c, 0, 73, 100
2, 69504, Note_on_c, 0, 67, 80
2, 69628, Note_off_c, 0, 67, 100
2, 69632, Note_on_c, 0, 64, 80
2, 69756, Note_off_c, 0, 64, 100
2, 69760, Note_on_c, 0, 61, 80
2, 69880, Control_c, 0, 64, 0
2, 69884, Note_off_c, 0, 61, 100
2, 69888, Control_c, 0, 64, 127
2, 69888, Note_on_c, 0, 62, 80
2, 70012, Note_off_c, 0, 62, 100
2, 70016, Note_on_c, 0, 66, 80
2, 70140, Note_off_c, 0, 66, 100
2, 70144, Note_on_c, 0, 62, 80
2, 70268, Note_off_c, 0, 62, 100
2, 70272, Note_on_c, 0, 57, 80
2, 70396, Note_off_c, 0, 57, 100
2, 70400, Note_on_c, 0, 54, 80
2, 70524, Note_off_c, 0, 54, 100
2, 70528, Note_on_c, 0, 62, 80
2, 70648, Control_c, 0, 64, 0
2, 70652, Note_off_c, 0, 62, 100
2, 70656, Control_c, 0, 64, 127
2, 70784, Note_on_c, 0, 69, 80
2, 70908, Note_off_c, 0, 69, 100
2, 70912, Note_on_c, 0, 71, 80
2, 71036, Note_off_c, 0, 71, 100
2, 71040, Note_on_c, 0, 73, 80
2, 71164, Note_off_c, 0, 73, 100
2, 71168, Note_on_c, 0, 71, 80
2, 71292, Note_off_c, 0, 71, 100
2, 71296, Note_on_c, 0, 69, 80
2, 71416, Control_c, 0, 64, 0
2, 71420, Note_off_c, 0, 69, 100
2, 71424, Control_c, 0, 64, 127
2, 71552, Note_on_c, 0, 74, 80
2, 71676, Note_off_c, 0, 74, 100
2, 71680, Note_on_c, 0, 76, 80
2, 71804, Note_off_c, 0, 76, 100
2, 71808, Note_on_c, 0, 78, 80
2, 71932, Note_off_c, 0, 78, 100
2, 71936, Note_on_c, 0, 76, 80
2, 72060, Note_off_c, 0, 76, 100
2, 72064, Note_on_c, 0, 74, 80
2, 72184, Control_c, 0, 64, 0
2, 72188, Note_off_c, 0, 74, 100
2, 72192, Control_c, 0, 64, 127
2, 72192, Note_on_c, 0, 79, 80
2, 72316, Note_off_c, 0, 79, 100
2, 72320, Note_on_c, 0, 76, 80
2, 72444, Note_off_c, 0, 76, 100
2, 72448, Note_on_c, 0, 73, 80
2, 72572, Note_off_c, 0, 73, 100
2, 72576, Note_on_c, 0, 67, 80
2, 72700, Note_off_c, 0, 67, 100
2, 72704, Note_on_c, 0, 64, 80
2, 72828, Note_off_c, 0, 64, 100
2, 72832, Note_on_c, 0, 61, 80
2, 72952, Control_c, 0, 64, 0
2, 72956, Note_off_c, 0, 61, 100
2, 72960, Control_c, 0, 64, 127
2, 72960, Note_on_c, 0, 62, 80
2, 73084, Note_off_c, 0, 62, 100
2, 73088, Note_on_c, 0, 66, 80
2, 73212, Note_off_c, 0, 66, 100
2, 73216, Note_on_c, 0, 62, 80
2, 73340, Note_off_c, 0, 62, 100
2, 73344, Note_on_c, 0, 57, 80
2, 73468, Note_off_c, 0, 57, 100
2, 73472, Note_on_c, 0, 54, 80
2, 73596, Note_off_c, 0, 54, 100
2, 73600, Note_on_c, 0, 62, 80
2, 73720, Control_c, 0, 64, 0
2, 73724, Note_off_c, 0, 62, 100
2, 73728, Control_c, 0, 64, 127
2, 73856, Note_on_c, 0, 69, 80
2, 73980, Note_off_c, 0, 69, 100
2, 73984, Note_on_c, 0, 71, 80
2, 74108, Note_off_c, 0, 71, 100
2, 74112, Note_on_c, 0, 73, 80
2, 74236, Note_off_c, 0, 73, 100
2, 74240, Note_on_c, 0, 71, 80
2, 74364, Note_off_c, 0, 71, 100
2, 74368, Note_on_c, 0, 69, 80
2, 74488, Control_c, 0, 64, 0
2, 74492, Note_off_c, 0, 69, 100
2, 74496, Control_c, 0, 64, 127
2, 74624, Note_on_c, 0, 74, 80
2, 74748, Note_off_c, 0, 74, 100
2, 74752, Note_on_c, 0, 76, 80
2, 74876, Note_off_c, 0, 76, 100
2, 74880, Note_on_c, 0, 78, 80
2, 75004, Note_off_c, 0, 78, 100
2, 75008, Note_on_c, 0, 76, 80
2, 75132, Note_off_c, 0, 76, 100
2, 75136, Note_on_c, 0, 74, 80
2, 75256, Control_c, 0, 64, 0
2, 75260, Note_off_c, 0, 74, 100
2, 75264, Control_c, 0, 64, 127
2, 75264, Note_on_c, 0, 79, 80
2, 75388, Note_off_c, 0, 79, 100
2, 75392, Note_on_c, 0, 76, 80
2, 75516, Note_off_c, 0, 76, 100
2, 75520, Note_on_c, 0, 73, 80
2, 75644, Note_off_c, 0, 73, 100
2, 75648, Note_on_c, 0, 67, 80
2, 75772, Note_off_c, 0, 67, 100
2, 75776, Note_on_c, 0, 64, 80
2, 75900, Note_off_c, 0, 64, 100
2, 75904, Note_on_c, 0, 61, 80
2, 76024, Control_c, 0, 64, 0
2, 76028, Note_off_c, 0, 61, 100
2, 76032, Control_c, 0, 64, 127
2, 76032, Note_on_c, 0, 62, 80
2, 76156, Note_off_c, 0, 62, 100
2, 76160, Note_on_c, 0, 66, 80
2, 76284, Note_off_c, 0, 66, 100
2, 76288, Note_on_c, 0, 69, 80
2, 76412, Note_off_c, 0, 69, 100
2, 76416, Note_on_c, 0, 74, 80
2, 76540, Note_off_c, 0, 74, 100
2, 76544, Note_on_c, 0, 78, 80
2, 76668, Note_off_c, 0, 78, 100
2, 76672, Note_on_c, 0, 81, 80
2, 76792, Control_c, 0, 64, 0
2, 76796, Note_off_c, 0, 81, 100
2, 76800, Control_c, 0, 64, 127
2, 76800, Note_on_c, 0, 79, 80
2, 76924, Note_off_c, 0, 79, 100
2, 76928, Note_on_c, 0, 76, 80
2, 77052, Note_off_c, 0, 76, 100
2, 77056, Note_on_c, 0, 73, 80
2, 77180, Note_off_c, 0, 73, 100
2, 77184, Note_on_c, 0, 67, 80
2, 77308, Note_off_c, 0, 67, 100
2, 77312, Note_on_c, 0, 64, 80
2, 77436, Note_off_c, 0, 64, 100
2, 77440, Note_on_c, 0, 61, 80
2, 77560, Control_c, 0, 64, 0
2, 77564, Note_off_c, 0, 61, 100
2, 77568, Control_c, 0, 64, 127
2, 77568, Note_on_c, 0, 62, 80
2, 77692, Note_off_c, 0, 62, 100
2, 77696, Note_on_c, 0, 66, 80
2, 77820, Note_off_c, 0, 66, 100
2, 77824, Note_on_c, 0, 69, 80
2, 77948, Note_off_c, 0, 69, 100
2, 77952, Note_on_c, 0, 74, 80
2, 78076, Note_off_c, 0, 74, 100
2, 78080, Note_on_c, 0, 78, 80
2, 78204, Note_off_c, 0, 78, 100
2, 78208, Note_on_c, 0, 81, 80
2, 78328, Control_c, 0, 64, 0
2, 78332, Note_off_c, 0, 81, 100
2, 78336, Control_c, 0, 64, 127
2, 78336, Note_on_c, 0, 79, 80
2, 78460, Note_off_c, 0, 79, 100
2, 78464, Note_on_c, 0, 76, 80
2, 78588, Note_off_c, 0, 76, 100
2, 78592, Note_on_c, 0, 73, 80
2, 78716, Note_off_c, 0, 73, 100
2, 78720, Note_on_c, 0, 67, 80
2, 78844, Note_off_c, 0, 67, 100
2, 78848, Note_on_c, 0, 64, 80
2, 78972, Note_off_c, 0, 64, 100
2, 78976, Note_on_c, 0, 61, 80
2, 79096, Control_c, 0, 64, 0
2, 79100, Note_off_c, 0, 61, 100
2, 79104, Control_c, 0, 64, 127
2, 79104, Note_on_c, 0, 62, 80
2, 79228, Note_off_c, 0, 62, 100
2, 79232, Note_on_c, 0, 66, 80
2, 79356, Note_off_c, 0, 66, 100
2, 79360, Note_on_c, 0, 62, 80
2, 79484, Note_off_c, 0, 62, 100
2, 79488, Note_on_c, 0, 57, 80
2, 79612, Note_off_c, 0, 57, 100
2, 79616, Note_on_c, 0, 69, 80
2, 79740, Note_off_c, 0, 69, 100
2, 79744, Note_on_c, 0, 66, 80
2, 79864, Control_c, 0, 64, 0
2, 79868, Note_off_c, 0, 66, 100
2, 79872, Control_c, 0, 64, 127
2, 79872, Note_on_c, 0, 62, 80
2, 79996, Note_off_c, 0, 62, 100
2, 80000, Note_on_c, 0, 74, 80
2, 80124, Note_off_c, 0, 74, 100
2, 80128, Note_on_c, 0, 69, 80
2, 80252, Note_off_c, 0, 69, 100
2, 80256, Note_on_c, 0, 66, 80
2, 80380, Note_off_c, 0, 66, 100
2, 80384, Note_on_c, 0, 62, 80
2, 80508, Note_off_c, 0, 62, 100
2, 80512, Note_on_c, 0, 74, 80
2, 80632, Control_c, 0, 64, 0
2, 80636, Note_off_c, 0, 74, 100
2, 80640, Control_c, 0, 64, 127
2, 80640, Note_on_c, 0, 66, 80
2, 80764, Note_off_c, 0, 66, 100
2, 80768, Note_on_c, 0, 78, 80
2, 80892, Note_off_c, 0, 78, 100
2, 80896, Note_on_c, 0, 74, 80
2, 81020, Note_off_c, 0, 74, 100
2, 81024, Note_on_c, 0, 69, 80
2, 81148, Note_off_c, 0, 69, 100
2, 81152, Note_on_c, 0, 66, 80
2, 81276, Note_off_c, 0, 66, 100
2, 81280, Note_on_c, 0, 78, 80
2, 81400, Control_c, 0, 64, 0
2, 81404, Note_off_c, 0, 78, 100
2, 81408, Control_c, 0, 64, 127
2, 81408, Note_on_c, 0, 69, 80
2, 81532, Note_off_c, 0, 69, 100
2, 81536, Note_on_c, 0, 81, 80
2, 81660, Note_off_c, 0, 81, 100
2, 81664, Note_on_c, 0, 78, 80
2, 81788, Note_off_c, 0, 78, 100
2, 81792, Note_on_c, 0, 74, 80
2, 81916, Note_off_c, 0, 74, 100
2, 81920, Note_on_c, 0, 69, 80
2, 82044, Note_off_c, 0, 69, 100
2, 82048, Note_on_c, 0, 81, 80
2, 82168, Control_c, 0, 64, 0
2, 82172, Note_off_c, 0, 81, 100
2, 82176, Control_c, 0, 64, 127
2, 82176, Note_on_c, 0, 74, 80
2, 82300, Note_off_c, 0, 74, 100
2, 82304, Note_on_c, 0, 86, 81
2, 82428, Note_off_c, 0, 86, 100
2, 82432, Note_on_c, 0, 74, 82
2, 82556, Note_off_c, 0, 74, 100
2, 82560, Note_on_c, 0, 86, 83
2, 82684, Note_off_c, 0, 86, 100
2, 82688, Note_on_c, 0, 74, 85
2, 82812, Note_off_c, 0, 74, 100
2, 82816, Note_on_c, 0, 86, 86
2, 82936, Control_c, 0, 64, 0
2, 82940, Note_off_c, 0, 86, 100
2, 82944, Control_c, 0, 64, 127
2, 82944, Note_on_c, 0, 74, 87
2, 83068, Note_off_c, 0, 74, 100
2, 83072, Note_on_c, 0, 86, 88
2, 83196, Note_off_c, 0, 86, 100
2, 83200, Note_on_c, 0, 74, 90
2, 83324, Note_off_c, 0, 74, 100
2, 83328, Note_on_c, 0, 86, 91
2, 83452, Note_off_c, 0, 86, 100
2, 83456, Note_on_c, 0, 74, 92
2, 83580, Note_off_c, 0, 74, 100
2, 83584, Note_on_c, 0, 86, 93
2, 83704, Control_c, 0, 64, 0
2, 83708, Note_off_c, 0, 86, 100
2, 83712, Control_c, 0, 64, 127
2, 83712, Note_on_c, 0, 74, 95
2, 83836, Note_off_c, 0, 74, 100
2, 83840, Note_on_c, 0, 86, 96
2, 83964, Note_off_c, 0, 86, 100
2, 83968, Note_on_c, 0, 74, 97
2, 84092, Note_off_c, 0, 74, 100
2, 84096, Note_on_c, 0, 86, 98
2, 84220, Note_off_c, 0, 86, 100
2, 84224, Note_on_c, 0, 74, 100
2, 84348, Note_off_c, 0, 74, 100
2, 84352, Note_on_c, 0, 86, 101
2, 84472, Control_c, 0, 64, 0
2, 84476, Note_off_c, 0, 86, 100
2, 84480, Control_c, 0, 64, 127
2, 84480, Note_on_c, 0, 74, 102
2, 84604, Note_off_c, 0, 74, 100
2, 84608, Note_on_c, 0, 86, 103
2, 84732, Note_off_c, 0, 86, 100
2, 84736, Note_on_c, 0, 74, 105
2, 84860, Note_off_c, 0, 74, 100
2, 84864, Note_on_c, 0, 86, 106
2, 84988, Note_off_c, 0, 86, 100
2, 84992, Note_on_c, 0, 74, 107
2, 85116, Note_off_c, 0, 74, 100
2, 85120, Note_on_c, 0, 86, 108
2, 85240, Control_c, 0, 64, 0
2, 85244, Note_off_c, 0, 86, 100
2, 85248, Control_c, 0, 64, 127
2, 85248, Note_on_c, 0, 74, 110
2, 85372, Note_off_c, 0, 74, 100
2, 85376, Note_on_c, 0, 86, 110
2, 85500, Note_off_c, 0, 86, 100
2, 85504, Note_on_c, 0, 74, 109
2, 85628, Note_off_c, 0, 74, 100
2, 85632, Note_on_c, 0, 86, 108
2, 85756, Note_off_c, 0, 86, 100
2, 85760, Note_on_c, 0, 74, 107
2, 85884, Note_off_c, 0, 74, 100
2, 85888, Note_on_c, 0, 86, 106
2, 86008, Control_c, 0, 64, 0
2, 86012, Note_off_c, 0, 86, 100
2, 86016, Control_c, 0, 64, 127
2, 86016, Note_on_c, 0, 83, 105
2, 86140, Note_off_c, 0, 83, 100
2, 86144, Note_on_c, 0, 85, 105
2, 86268, Note_off_c, 0, 85, 100
2, 86272, Note_on_c, 0, 86, 104
2, 86396, Note_off_c, 0, 86, 100
2, 86400, Note_on_c, 0, 79, 103
2, 86524, Note_off_c, 0, 79, 100
2, 86528, Note_on_c, 0, 81, 102
2, 86652, Note_off_c, 0, 81, 100
2, 86656, Note_on_c, 0, 83, 101
2, 86776, Control_c, 0, 64, 0
2, 86780, Note_off_c, 0, 83, 100
2, 86784, Control_c, 0, 64, 127
2, 86784, Note_on_c, 0, 76, 100
2, 86908, Note_off_c, 0, 76, 100
2, 86912, Note_on_c, 0, 78, 100
2, 87036, Note_off_c, 0, 78, 100
2, 87040, Note_on_c, 0, 79, 99
2, 87164, Note_off_c, 0, 79, 100
2, 87168, Note_on_c, 0, 71, 98
2, 87292, Note_off_c, 0, 71, 100
2, 87296, Note_on_c, 0, 78, 97
2, 87420, Note_off_c, 0, 78, 100
2, 87424, Note_on_c, 0, 76, 96
2, 87544, Control_c, 0, 64, 0
2, 87548, Note_off_c, 0, 76, 100
2, 87552, Control_c, 0, 64, 127
2, 87552, Note_on_c, 0, 69, 95
2, 87676, Note_off_c, 0, 69, 100
2, 87680, Note_on_c, 0, 76, 95
2, 87804, Note_off_c, 0, 76, 100
2, 87808, Note_on_c, 0, 74, 94
2, 87932, Note_off_c, 0, 74, 100
2, 87936, Note_on_c, 0, 67, 93
2, 88060, Note_off_c, 0, 67, 100
2, 88064, Note_on_c, 0, 74, 92
2, 88188, Note_off_c, 0, 74, 100
2, 88192, Note_on_c, 0, 73, 91
2, 88312, Control_c, 0, 64, 0
2, 88316, Note_off_c, 0, 73, 100
2, 88320, Control_c, 0, 64, 127
2, 88320, Note_on_c, 0, 74, 80
2, 88444, Note_off_c, 0, 74, 100
2, 88448, Note_on_c, 0, 86, 81
2, 88572, Note_off_c, 0, 86, 100
2, 88576, Note_on_c, 0, 74, 82
2, 88700, Note_off_c, 0, 74, 100
2, 88704, Note_on_c, 0, 86, 83
2, 88828, Note_off_c, 0, 86, 100
2, 88832, Note_on_c, 0, 74, 85
2, 88956, Note_off_c, 0, 74, 100
2, 88960, Note_on_c, 0, 86, 86
2, 89080, Control_c, 0, 64, 0
2, 89084, Note_off_c, 0, 86, 100
2, 89088, Control_c, 0, 64, 127
2, 89088, Note_on_c, 0, 74, 87
2, 89212, Note_off_c, 0, 74, 100
2, 89216, Note_on_c, 0, 86, 88
2, 89340, Note_off_c, 0, 86, 100
2, 89344, Note_on_c, 0, 74, 90
2, 89468, Note_off_c, 0, 74, 100
2, 89472, Note_on_c, 0, 86, 91
2, 89596, Note_off_c, 0, 86, 100
2, 89600, Note_on_c, 0, 74, 92
2, 89724, Note_off_c, 0, 74, 100
2, 89728, Note_on_c, 0, 86, 93
2, 89848, Control_c, 0, 64, 0
2, 89852, Note_off_c, 0, 86, 100
2, 89856, Control_c, 0, 64, 127
2, 89856, Note_on_c, 0, 74, 95
2, 89980, Note_off_c, 0, 74, 100
2, 89984, Note_on_c, 0, 86, 96
2, 90108, Note_off_c, 0, 86, 100
2, 90112, Note_on_c, 0, 74, 97
2, 90236, Note_off_c, 0, 74, 100
2, 90240, Note_on_c, 0, 86, 98
2, 90364, Note_off_c, 0, 86, 100
2, 90368, Note_on_c, 0, 74, 100
2, 90492, Note_off_c, 0, 74, 100
2, 90496, Note_on_c, 0, 86, 101
2, 90616, Control_c, 0, 64, 0
2, 90620, Note_off_c, 0, 86, 100
2, 90624, Control_c, 0, 64, 127
2, 90624, Note_on_c, 0, 74, 102
2, 90748, Note_off_c, 0, 74, 100
2, 90752, Note_on_c, 0, 86, 103
2, 90876, Note_off_c, 0, 86, 100
2, 90880, Note_on_c, 0, 74, 105
2, 91004, Note_off_c, 0, 74, 100
2, 91008, Note_on_c, 0, 86, 106
2, 91132, Note_off_c, 0, 86, 100
2, 91136, Note_on_c, 0, 74, 107
2, 91260, Note_off_c, 0, 74, 100
2, 91264, Note_on_c, 0, 86, 108
2, 91384, Control_c, 0, 64, 0
2, 91388, Note_off_c, 0, 86, 100
2, 91392, Control_c, 0, 64, 127
2, 91392, Note_on_c, 0, 74, 110
2, 91516, Note_off_c, 0, 74, 100
2, 91520, Note_on_c, 0, 86, 110
2, 91644, Note_off_c, 0, 86, 100
2, 91648, Note_on_c, 0, 74, 110
2, 91772, Note_off_c, 0, 74, 100
2, 91776, Note_on_c, 0, 86, 110
2, 91900, Note_off_c, 0, 86, 100
2, 91904, Note_on_c, 0, 74, 110
2, 92028, Note_off_c, 0, 74, 100
2, 92032, Note_on_c, 0, 86, 110
2, 92152, Control_c, 0, 64, 0
2, 92156, Note_off_c, 0, 86, 100
2, 92160, Control_c, 0, 64, 127
2, 92160, Note_on_c, 0, 74, 110
2, 92284, Note_off_c, 0, 74, 100
2, 92288, Note_on_c, 0, 86, 110
2, 92412, Note_off_c, 0, 86, 100
2, 92416, Note_on_c, 0, 74, 110
2, 92540, Note_off_c, 0, 74, 100
2, 92544, Note_on_c, 0, 86, 110
2, 92668, Note_off_c, 0, 86, 100
2, 92672, Note_on_c, 0, 74, 110
2, 92796, Note_off_c, 0, 74, 100
2, 92800, Note_on_c, 0, 86, 110
2, 92920, Control_c, 0, 64, 0
2, 92924, Note_off_c, 0, 86, 100
2, 92928, Control_c, 0, 64, 127
2, 92928, Note_on_c, 0, 85, 80
2, 93052, Note_off_c, 0, 85, 100
2, 93056, Note_on_c, 0, 88, 80
2, 93180, Note_off_c, 0, 88, 100
2, 93184, Note_on_c, 0, 86, 80
2, 93308, Note_off_c, 0, 86, 100
2, 93312, Note_on_c, 0, 80, 80
2, 93436, Note_off_c, 0, 80, 100
2, 93440, Note_on_c, 0, 83, 80
2, 93564, Note_off_c, 0, 83, 100
2, 93568, Note_on_c, 0, 81, 80
2, 93688, Control_c, 0, 64, 0
2, 93692, Note_off_c, 0, 81, 100
2, 93696, Control_c, 0, 64, 127
2, 93696, Note_on_c, 0, 77, 80
2, 93820, Note_off_c, 0, 77, 100
2, 93824, Note_on_c, 0, 79, 80
2, 93948, Note_off_c, 0, 79, 100
2, 93952, Note_on_c, 0, 78, 80
2, 94076, Note_off_c, 0, 78, 100
2, 94080, Note_on_c, 0, 73, 80
2, 94204, Note_off_c, 0, 73, 100
2, 94208, Note_on_c, 0, 76, 80
2, 94332, Note_off_c, 0, 76, 100
2, 94336, Note_on_c, 0, 74, 80
2, 94456, Control_c, 0, 64, 0
2, 94460, Note_off_c, 0, 74, 100
2, 94464, Control_c, 0, 64, 127
2, 94464, Note_on_c, 0, 74, 110
2, 94588, Note_off_c, 0, 74, 100
2, 94592, Note_on_c, 0, 86, 110
2, 94716, Note_off_c, 0, 86, 100
2, 94720, Note_on_c, 0, 74, 110
2, 94844, Note_off_c, 0, 74, 100
2, 94848, Note_on_c, 0, 86, 110
2, 94972, Note_off_c, 0, 86, 100
2, 94976, Note_on_c, 0, 74, 110
2, 95100, Note_off_c, 0, 74, 100
2, 95104, Note_on_c, 0, 86, 110
2, 95224, Control_c, 0, 64, 0
2, 95228, Note_off_c, 0, 86, 100
2, 95232, Control_c, 0, 64, 127
2, 95232, Note_on_c, 0, 74, 110
2, 95356, Note_off_c, 0, 74, 100
2, 95360, Note_on_c, 0, 86, 110
2, 95484, Note_off_c, 0, 86, 100
2, 95488, Note_on_c, 0, 74, 110
2, 95612, Note_off_c, 0, 74, 100
2, 95616, Note_on_c, 0, 86, 110
2, 95740, Note_off_c, 0, 86, 100
2, 95744, Note_on_c, 0, 74, 110
2, 95868, Note_off_c, 0, 74, 100
2, 95872, Note_on_c, 0, 86, 110
2, 95992, Control_c, 0, 64, 0
2, 95996, Note_off_c, 0, 86, 100
2, 96000, Control_c, 0, 64, 127
2, 96000, Note_on_c, 0, 85, 80
2, 96124, Note_off_c, 0, 85, 100
2, 96128, Note_on_c, 0, 88, 80
2, 96252, Note_off_c, 0, 88, 100
2, 96256, Note_on_c, 0, 86, 80
2, 96380, Note_off_c, 0, 86, 100
2, 96384, Note_on_c, 0, 80, 80
2, 96508, Note_off_c, 0, 80, 100
2, 96512, Note_on_c, 0, 83, 80
2, 96636, Note_off_c, 0, 83, 100
2, 96640, Note_on_c, 0, 81, 80
2, 96760, Control_c, 0, 64, 0
2, 96764, Note_off_c, 0, 81, 100
2, 96768, Control_c, 0, 64, 127
2, 96768, Note_on_c, 0, 77, 80
2, 96892, Note_off_c, 0, 77, 100
2, 96896, Note_on_c, 0, 79, 80
2, 97020, Note_off_c, 0, 79, 100
2, 97024, Note_on_c, 0, 78, 80
2, 97148, Note_off_c, 0, 78, 100
2, 97152, Note_on_c, 0, 73, 80
2, 97276, Note_off_c, 0, 73, 100
2, 97280, Note_on_c, 0, 76, 80
2, 97404, Note_off_c, 0, 76, 100
2, 97408, Note_on_c, 0, 74, 80
2, 97528, Control_c, 0, 64, 0
2, 97532, Note_off_c, 0, 74, 100
2, 97536, Control_c, 0, 64, 127
2, 97536, Note_on_c, 0, 74, 80
2, 97660, Note_off_c, 0, 74, 100
2, 97664, Note_on_c, 0, 86, 80
2, 97788, Note_off_c, 0, 86, 100
2, 97792, Note_on_c, 0, 74, 80
2, 97916, Note_off_c, 0, 74, 100
2, 97920, Note_on_c, 0, 86, 80
2, 98044, Note_off_c, 0, 86, 100
2, 98048, Note_on_c, 0, 74, 80
2, 98172, Note_off_c, 0, 74, 100
2, 98176, Note_on_c, 0, 86, 80
2, 98296, Control_c, 0, 64, 0
2, 98300, Note_off_c, 0, 86, 100
2, 98304, Control_c, 0, 64, 127
2, 98304, Note_on_c, 0, 74, 80
2, 98428, Note_off_c, 0, 74, 100
2, 98432, Note_on_c, 0, 86, 80
2, 98556, Note_off_c, 0, 86, 100
2, 98560, Note_on_c, 0, 74, 80
2, 98684, Note_off_c, 0, 74, 100
2, 98688, Note_on_c, 0, 86, 80
2, 98812, Note_off_c, 0, 86, 100
2, 98816, Note_on_c, 0, 74, 80
2, 98940, Note_off_c, 0, 74, 100
2, 98944, Note_on_c, 0, 86, 80
2, 99064, Control_c, 0, 64, 0
2, 99068, Note_off_c, 0, 86, 100
2, 99072, Control_c, 0, 64, 127
2, 99072, Note_on_c, 0, 74, 80
2, 99196, Note_off_c, 0, 74, 100
2, 99200, Note_on_c, 0, 86, 80
2, 99324, Note_off_c, 0, 86, 100
2, 99328, Note_on_c, 0, 74, 80
2, 99452, Note_off_c, 0, 74, 100
2, 99456, Note_on_c, 0, 86, 80
2, 99580, Note_off_c, 0, 86, 100
2, 99584, Note_on_c, 0, 74, 80
2, 99708, Note_off_c, 0, 74, 100
2, 99712, Note_on_c, 0, 86, 80
2, 99832, Control_c, 0, 64, 0
2, 99836, Note_off_c, 0, 86, 100
2, 99840, Control_c, 0, 64, 127
2, 99840, Note_on_c, 0, 74, 80
2, 99964, Note_off_c, 0, 74, 100
2, 99968, Note_on_c, 0, 86, 80
2, 100092, Note_off_c, 0, 86, 100
2, 100096, Note_on_c, 0, 74, 80
2, 100220, Note_off_c, 0, 74, 100
2, 100224, Note_on_c, 0, 86, 80
2, 100348, Note_off_c, 0, 86, 100
2, 100352, Note_on_c, 0, 74, 80
2, 100476, Note_off_c, 0, 74, 100
2, 100480, Note_on_c, 0, 86, 80
2, 100600, Control_c, 0, 64, 0
2, 100604, Note_off_c, 0, 86, 100
2, 100608, Note_on_c, 0, 86, 80
2, 100608, Note_on_c, 0, 74, 80
2, 100988, Note_off_c, 0, 86, 100
2, 100988, Note_off_c, 0, 74, 100
2, 101376, Note_on_c, 0, 76, 80
2, 101420, Note_off_c, 0, 76, 100
2, 101424, Note_on_c, 0, 74, 80
2, 101552, Note_off_c, 0, 74, 100
2, 101568, Note_on_c, 0, 73, 80
2, 101756, Note_off_c, 0, 73, 100
2, 101760, Note_on_c, 0, 74, 80
2, 101948, Note_off_c, 0, 74, 100
2, 101952, Note_on_c, 0, 76, 80
2, 102140, Note_off_c, 0, 76, 100
2, 102144, Note_on_c, 0, 74, 80
2, 102524, Note_off_c, 0, 74, 100
2, 102528, Note_on_c, 0, 62, 80
2, 102908, Note_off_c, 0, 62, 100
2, 102912, Note_on_c, 0, 64, 80
2, 103292, Note_off_c, 0, 64, 100
2, 103296, Note_on_c, 0, 66, 80
2, 103676, Note_off_c, 0, 66, 100
2, 103680, Note_on_c, 0, 67, 80
2, 104444, Note_off_c, 0, 67, 100
2, 104448, Note_on_c, 0, 71, 80
2, 104636, Note_off_c, 0, 71, 100
2, 104640, Note_on_c, 0, 69, 80
2, 104828, Note_off_c, 0, 69, 100
2, 104832, Note_on_c, 0, 67, 80
2, 105020, Note_off_c, 0, 67, 100
2, 105024, Note_on_c, 0, 69, 80
2, 105212, Note_off_c, 0, 69, 100
2, 105216, Note_on_c, 0, 71, 80
2, 105596, Note_off_c, 0, 71, 100
2, 105600, Note_on_c, 0, 67, 80
2, 105980, Note_off_c, 0, 67, 100
2, 105984, Note_on_c, 0, 73, 80
2, 106364, Note_off_c, 0, 73, 100
2, 106368, Note_on_c, 0, 69, 80
2, 106748, Note_off_c, 0, 69, 100
2, 106752, Note_on_c, 0, 74, 80
2, 107132, Note_off_c, 0, 74, 100
2, 107520, Note_on_c, 0, 76, 80
2, 107564, Note_off_c, 0, 76, 100
2, 107568, Note_on_c, 0, 74, 80
2, 107696, Note_off_c, 0, 74, 100
2, 107712, Note_on_c, 0, 73, 80
2, 107900, Note_off_c, 0, 73, 100
2, 107904, Note_on_c, 0, 74, 80
2, 108092, Note_off_c, 0, 74, 100
2, 108096, Note_on_c, 0, 76, 80
2, 108284, Note_off_c, 0, 76, 100
2, 108288, Note_on_c, 0, 74, 80
2, 108668, Note_off_c, 0, 74, 100
2, 108672, Note_on_c, 0, 62, 80
2, 109052, Note_off_c, 0, 62, 100
2, 109056, Note_on_c, 0, 64, 80
2, 109436, Note_off_c, 0, 64, 100
2, 109440, Note_on_c, 0, 66, 80
2, 109820, Note_off_c, 0, 66, 100
2, 109824, Note_on_c, 0, 67, 80
2, 110588, Note_off_c, 0, 67, 100
2, 110592, Note_on_c, 0, 71, 80
2, 110780, Note_off_c, 0, 71, 100
2, 110784, Note_on_c, 0, 69, 80
2, 110972, Note_off_c, 0, 69, 100
2, 110976, Note_on_c, 0, 67, 80
2, 111164, Note_off_c, 0, 67, 100
2, 111168, Note_on_c, 0, 69, 80
2, 111356, Note_off_c, 0, 69, 100
2, 111360, Note_on_c, 0, 71, 80
2, 111740, Note_off_c, 0, 71, 100
2, 111744, Note_on_c, 0, 67, 80
2, 112124, Note_off_c, 0, 67, 100
2, 112128, Note_on_c, 0, 72, 80
2, 112508, Note_off_c, 0, 72, 100
2, 112512, Note_on_c, 0, 69, 80
2, 112892, Note_off_c, 0, 69, 100
2, 112896, Note_on_c, 0, 67, 80
2, 113276, Note_off_c, 0, 67, 100
2, 113664, Note_on_c, 0, 67, 80
2, 113664, Note_on_c, 0, 71, 80
2, 113664, Note_on_c, 0, 79, 80
2, 114044, Note_off_c, 0, 71, 100
2, 114044, Note_off_c, 0, 79, 100
2, 114048, Note_on_c, 0, 78, 83
2, 114048, Note_on_c, 0, 72, 83
2, 114428, Note_off_c, 0, 78, 100
2, 114428, Note_off_c, 0, 72, 100
2, 114432, Note_on_c, 0, 77, 87
2, 114432, Note_on_c, 0, 74, 87
2, 114812, Note_off_c, 0, 67, 100
2, 114812, Note_off_c, 0, 77, 100
2, 114812, Note_off_c, 0, 74, 100
2, 114816, Note_on_c, 0, 76, 91
2, 114816, Note_on_c, 0, 72, 91
2, 114816, Note_on_c, 0, 67, 91
2, 115196, Note_off_c, 0, 76, 100
2, 115196, Note_off_c, 0, 72, 100
2, 115200, Note_on_c, 0, 75, 95
2, 115200, Note_on_c, 0, 72, 95
2, 115580, Note_off_c, 0, 67, 100
2, 115580, Note_off_c, 0, 75, 100
2, 115580, Note_off_c, 0, 72, 100
2, 115584, Note_on_c, 0, 75, 99
2, 115584, Note_on_c, 0, 72, 99
2, 115584, Note_on_c, 0, 69, 99
2, 115964, Note_off_c, 0, 75, 100
2, 115964, Note_off_c, 0, 72, 100
2, 115964, Note_off_c, 0, 69, 100
2, 115968, Note_on_c, 0, 75, 80
2, 115968, Note_on_c, 0, 72, 80
2, 116348, Note_off_c, 0, 75, 100
2, 116348, Note_off_c, 0, 72, 100
2, 116352, Note_on_c, 0, 74, 80
2, 116352, Note_on_c, 0, 71, 80
2, 116732, Note_off_c, 0, 74, 100
2, 116732, Note_off_c, 0, 71, 100
2, 116736, Note_on_c, 0, 69, 80
2, 116736, Note_on_c, 0, 66, 80
2, 116736, Note_on_c, 0, 76, 80
2, 116924, Note_off_c, 0, 76, 100
2, 116928, Note_on_c, 0, 74, 80
2, 117116, Note_off_c, 0, 74, 100
2, 117120, Note_on_c, 0, 73, 80
2, 117308, Note_off_c, 0, 73, 100
2, 117312, Note_on_c, 0, 74, 80
2, 117500, Note_off_c, 0, 69, 100
2, 117500, Note_off_c, 0, 66, 100
2, 117500, Note_off_c, 0, 74, 100
2, 117504, Note_on_c, 0, 71, 80
2, 117504, Note_on_c, 0, 67, 80
2, 117504, Note_on_c, 0, 62, 80
2, 117884, Note_off_c, 0, 71, 100
2, 117884, Note_off_c, 0, 67, 100
2, 117884, Note_off_c, 0, 62, 100
2, 117888, Note_on_c, 0, 74, 80
2, 118268, Note_off_c, 0, 74, 100
2, 118272, Note_on_c, 0, 69, 80
2, 118272, Note_on_c, 0, 66, 80
2, 118272, Note_on_c, 0, 76, 80
2, 118460, Note_off_c, 0, 76, 100
2, 118464, Note_on_c, 0, 74, 80
2, 118652, Note_off_c, 0, 74, 100
2, 118656, Note_on_c, 0, 73, 80
2, 118844, Note_off_c, 0, 73, 100
2, 118848, Note_on_c, 0, 74, 80
2, 119036, Note_off_c, 0, 69, 100
2, 119036, Note_off_c, 0, 66, 100
2, 119036, Note_off_c, 0, 74, 100
2, 119040, Note_on_c, 0, 71, 80
2, 119040, Note_on_c, 0, 67, 80
2, 119040, Note_on_c, 0, 62, 80
2, 119420, Note_off_c, 0, 71, 100
2, 119420, Note_off_c, 0, 67, 100
2, 119420, Note_off_c, 0, 62, 100
2, 119808, Note_on_c, 0, 67, 80
2, 119808, Note_on_c, 0, 71, 80
2, 119808, Note_on_c, 0, 79, 80
2, 120188, Note_off_c, 0, 71, 100
2, 120188, Note_off_c, 0, 79, 100
2, 120192, Note_on_c, 0, 78, 83
2, 120192, Note_on_c, 0, 72, 83
2, 120572, Note_off_c, 0, 78, 100
2, 120572, Note_off_c, 0, 72, 100
2, 120576, Note_on_c, 0, 77, 87
2, 120576, Note_on_c, 0, 74, 87
2, 120956, Note_off_c, 0, 67, 100
2, 120956, Note_off_c, 0, 77, 100
2, 120956, Note_off_c, 0, 74, 100
2, 120960, Note_on_c, 0, 76, 91
2, 120960, Note_on_c, 0, 72, 91
2, 120960, Note_on_c, 0, 67, 91
2, 121340, Note_off_c, 0, 76, 100
2, 121340, Note_off_c, 0, 72, 100
2, 121344, Note_on_c, 0, 75, 95
2, 121344, Note_on_c, 0, 72, 95
2, 121724, Note_off_c, 0, 67, 100
2, 121724, Note_off_c, 0, 75, 100
2, 121724, Note_off_c, 0, 72, 100
2, 121728, Note_on_c, 0, 75, 99
2, 121728, Note_on_c, 0, 72, 99
2, 121728, Note_on_c, 0, 69, 99
2, 122108, Note_off_c, 0, 75, 100
2, 122108, Note_off_c, 0, 72, 100
2, 122108, Note_off_c, 0, 69, 100
2, 122112, Note_on_c, 0, 75, 80
2, 122112, Note_on_c, 0, 72, 80
2, 122492, Note_off_c, 0, 75, 100
2, 122492, Note_off_c, 0, 72, 100
2, 122496, Note_on_c, 0, 74, 80
2, 122496, Note_on_c, 0, 71, 80
2, 122876, Note_off_c, 0, 74, 100
2, 122876, Note_off_c, 0, 71, 100
2, 122880, Note_on_c, 0, 69, 80
2, 122880, Note_on_c, 0, 66, 80
2, 122880, Note_on_c, 0, 76, 80
2, 123068, Note_off_c, 0, 76, 100
2, 123072, Note_on_c, 0, 74, 80
2, 123260, Note_off_c, 0, 74, 100
2, 123264, Note_on_c, 0, 73, 80
2, 123452, Note_off_c, 0, 73, 100
2, 123456, Note_on_c, 0, 74, 80
2, 123644, Note_off_c, 0, 69, 100
2, 123644, Note_off_c, 0, 66, 100
2, 123644, Note_off_c, 0, 74, 100
2, 123648, Note_on_c, 0, 71, 80
2, 123648, Note_on_c, 0, 67, 80
2, 123648, Note_on_c, 0, 62, 80
2, 124028, Note_off_c, 0, 71, 100
2, 124028, Note_off_c, 0, 67, 100
2, 124028, Note_off_c, 0, 62, 100
2, 124032, Note_on_c, 0, 74, 80
2, 124412, Note_off_c, 0, 74, 100
2, 124416, Note_on_c, 0, 69, 80
2, 124416, Note_on_c, 0, 66, 80
2, 124416, Note_on_c, 0, 76, 80
2, 124604, Note_off_c, 0, 76, 100
2, 124608, Note_on_c, 0, 74, 80
2, 124796, Note_off_c, 0, 74, 100
2, 124800, Note_on_c, 0, 73, 80
2, 124988, Note_off_c, 0, 73, 100
2, 124992, Note_on_c, 0, 74, 80
2, 125180, Note_off_c, 0, 69, 100
2, 125180, Note_off_c, 0, 66, 100
2, 125180, Note_off_c, 0, 74, 100
2, 125184, Note_on_c, 0, 71, 80
2, 125184, Note_on_c, 0, 67, 80
2, 125184, Note_on_c, 0, 62, 80
2, 125564, Note_off_c, 0, 71, 100
2, 125564, Note_off_c, 0, 67, 100
2, 125564, Note_off_c, 0, 62, 100
2, 126720, Control_c, 0, 64, 127
2, 126848, Note_on_c, 0, 82, 80
2, 126972, Note_off_c, 0, 82, 100
2, 126976, Note_on_c, 0, 84, 80
2, 127100, Note_off_c, 0, 84, 100
2, 127104, Note_on_c, 0, 86, 80
2, 127228, Note_off_c, 0, 86, 100
2, 127232, Note_on_c, 0, 84, 80
2, 127356, Note_off_c, 0, 84, 100
2, 127360, Note_on_c, 0, 82, 80
2, 127480, Control_c, 0, 64, 0
2, 127484, Note_off_c, 0, 82, 100
2, 127488, Control_c, 0, 64, 127
2, 127488, Note_on_c, 0, 84, 80
2, 127612, Note_off_c, 0, 84, 100
2, 127616, Note_on_c, 0, 81, 80
2, 127740, Note_off_c, 0, 81, 100
2, 127744, Note_on_c, 0, 82, 80
2, 127868, Note_off_c, 0, 82, 100
2, 127872, Note_on_c, 0, 84, 80
2, 127996, Note_off_c, 0, 84, 100
2, 128000, Note_on_c, 0, 82, 80
2, 128124, Note_off_c, 0, 82, 100
2, 128128, Note_on_c, 0, 81, 80
2, 128248, Control_c, 0, 64, 0
2, 128252, Note_off_c, 0, 81, 100
2, 128256, Control_c, 0, 64, 127
2, 128256, Note_on_c, 0, 82, 80
2, 128380, Note_off_c, 0, 82, 100
2, 128384, Note_on_c, 0, 79, 80
2, 128508, Note_off_c, 0, 79, 100
2, 128512, Note_on_c, 0, 81, 80
2, 128636, Note_off_c, 0, 81, 100
2, 128640, Note_on_c, 0, 82, 80
2, 128764, Note_off_c, 0, 82, 100
2, 128768, Note_on_c, 0, 81, 80
2, 128892, Note_off_c, 0, 81, 100
2, 128896, Note_on_c, 0, 79, 80
2, 129016, Control_c, 0, 64, 0
2, 129020, Note_off_c, 0, 79, 100
2, 129024, Control_c, 0, 64, 127
2, 129024, Note_on_c, 0, 78, 80
2, 129148, Note_off_c, 0, 78, 100
2, 129152, Note_on_c, 0, 75, 80
2, 129276, Note_off_c, 0, 75, 100
2, 129280, Note_on_c, 0, 74, 80
2, 129404, Note_off_c, 0, 74, 100
2, 129408, Note_on_c, 0, 72, 80
2, 129532, Note_off_c, 0, 72, 100
2, 129536, Note_on_c, 0, 70, 80
2, 129660, Note_off_c, 0, 70, 100
2, 129664, Note_on_c, 0, 69, 80
2, 129784, Control_c, 0, 64, 0
2, 129788, Note_off_c, 0, 69, 100
2, 129792, Control_c, 0, 64, 127
2, 129792, Note_on_c, 0, 67, 80
2, 129916, Note_off_c, 0, 67, 100
2, 129920, Note_on_c, 0, 74, 80
2, 130044, Note_off_c, 0, 74, 100
2, 130048, Note_on_c, 0, 73, 80
2, 130172, Note_off_c, 0, 73, 100
2, 130176, Note_on_c, 0, 74, 80
2, 130300, Note_off_c, 0, 74, 100
2, 130304, Note_on_c, 0, 70, 80
2, 130428, Note_off_c, 0, 70, 100
2, 130432, Note_on_c, 0, 69, 80
2, 130552, Control_c, 0, 64, 0
2, 130556, Note_off_c, 0, 69, 100
2, 130560, Control_c, 0, 64, 127
2, 130560, Note_on_c, 0, 67, 80
2, 130684, Note_off_c, 0, 67, 100
2, 130688, Note_on_c, 0, 76, 80
2, 130812, Note_off_c, 0, 76, 100
2, 130816, Note_on_c, 0, 75, 80
2, 130940, Note_off_c, 0, 75, 100
2, 130944, Note_on_c, 0, 76, 80
2, 131068, Note_off_c, 0, 76, 100
2, 131072, Note_on_c, 0, 73, 80
2, 131196, Note_off_c, 0, 73, 100
2, 131200, Note_on_c, 0, 67, 80
2, 131320, Control_c, 0, 64, 0
2, 131324, Note_off_c, 0, 67, 100
2, 131328, Control_c, 0, 64, 127
2, 131328, Note_on_c, 0, 66, 80
2, 131452, Note_off_c, 0, 66, 100
2, 131456, Note_on_c, 0, 74, 80
2, 131580, Note_off_c, 0, 74, 100
2, 131584, Note_on_c, 0, 73, 80
2, 131708, Note_off_c, 0, 73, 100
2, 131712, Note_on_c, 0, 74, 80
2, 131836, Note_off_c, 0, 74, 100
2, 131840, Note_on_c, 0, 69, 80
2, 131964, Note_off_c, 0, 69, 100
2, 131968, Note_on_c, 0, 66, 80
2, 132088, Control_c, 0, 64, 0
2, 132092, Note_off_c, 0, 66, 100
2, 132096, Control_c, 0, 64, 127
2, 132096, Note_on_c, 0, 62, 80
2, 132476, Note_off_c, 0, 62, 100
2, 132856, Control_c, 0, 64, 0
2, 133632, Note_on_c, 0, 62, 80
2, 133820, Note_off_c, 0, 62, 100
2, 133824, Note_on_c, 0, 61, 80
2, 134012, Note_off_c, 0, 61, 100
2, 134016, Note_on_c, 0, 62, 81
2, 134204, Note_off_c, 0, 62, 100
2, 134208, Note_on_c, 0, 63, 82
2, 134396, Note_off_c, 0, 63, 100
2, 134400, Note_on_c, 0, 62, 83
2, 134780, Note_off_c, 0, 62, 100
2, 134784, Note_on_c, 0, 50, 85
2, 135164, Note_off_c, 0, 50, 100
2, 135168, Note_on_c, 0, 52, 87
2, 135548, Note_off_c, 0, 52, 100
2, 135552, Note_on_c, 0, 54, 89
2, 135932, Note_off_c, 0, 54, 100
2, 135936, Note_on_c, 0, 55, 90
2, 136700, Note_off_c, 0, 55, 100
2, 136704, Note_on_c, 0, 58, 94
2, 136892, Note_off_c, 0, 58, 100
2, 136896, Note_on_c, 0, 57, 95
2, 137084, Note_off_c, 0, 57, 100
2, 137088, Note_on_c, 0, 55, 96
2, 137276, Note_off_c, 0, 55, 100
2, 137280, Note_on_c, 0, 57, 97
2, 137468, Note_off_c, 0, 57, 100
2, 137472, Note_on_c, 0, 59, 98
2, 137852, Note_off_c, 0, 59, 100
2, 137856, Note_on_c, 0, 55, 99
2, 138236, Note_off_c, 0, 55, 100
2, 138240, Note_on_c, 0, 79, 110
2, 138428, Note_off_c, 0, 79, 100
2, 138432, Note_on_c, 0, 78, 110
2, 138620, Note_off_c, 0, 78, 100
2, 138624, Note_on_c, 0, 79, 110
2, 138812, Note_off_c, 0, 79, 100
2, 138816, Note_on_c, 0, 80, 110
2, 139004, Note_off_c, 0, 80, 100
2, 139008, Note_on_c, 0, 79, 110
2, 139388, Note_off_c, 0, 79, 100
2, 139392, Note_on_c, 0, 67, 110
2, 139772, Note_off_c, 0, 67, 100
2, 139776, Note_on_c, 0, 69, 110
2, 139776, Note_on_c, 0, 65, 110
2, 139776, Note_on_c, 0, 62, 110
2, 140156, Note_off_c, 0, 69, 100
2, 140160, Note_on_c, 0, 71, 110
2, 140540, Note_off_c, 0, 65, 100
2, 140540, Note_off_c, 0, 62, 100
2, 140540, Note_off_c, 0, 71, 100
2, 140544, Note_on_c, 0, 72, 110
2, 140544, Note_on_c, 0, 63, 110
2, 140544, Note_on_c, 0, 60, 110
2, 141308, Note_off_c, 0, 72, 100
2, 141308, Note_off_c, 0, 63, 100
2, 141308, Note_off_c, 0, 60, 100
2, 141312, Note_on_c, 0, 65, 110
2, 141312, Note_on_c, 0, 75, 110
2, 141500, Note_off_c, 0, 75, 100
2, 141504, Note_on_c, 0, 74, 110
2, 141692, Note_off_c, 0, 74, 100
2, 141696, Note_on_c, 0, 72, 110
2, 141884, Note_off_c, 0, 72, 100
2, 141888, Note_on_c, 0, 74, 110
2, 142076, Note_off_c, 0, 65, 100
2, 142076, Note_off_c, 0, 74, 100
2, 142080, Note_on_c, 0, 75, 110
2, 142080, Note_on_c, 0, 63, 110
2, 142460, Note_off_c, 0, 75, 100
2, 142464, Note_on_c, 0, 72, 110
2, 142844, Note_off_c, 0, 63, 100
2, 142844, Note_off_c, 0, 72, 100
2, 142848, Note_on_c, 0, 77, 110
2, 142848, Note_on_c, 0, 65, 110
2, 143228, Note_off_c, 0, 77, 100
2, 143232, Note_on_c, 0, 74, 110
2, 143612, Note_off_c, 0, 65, 100
2, 143612, Note_off_c, 0, 74, 100
2, 143616, Note_on_c, 0, 79, 110
2, 143616, Note_on_c, 0, 67, 110
2, 144380, Note_off_c, 0, 79, 100
2, 144380, Note_off_c, 0, 67, 100
2, 144384, Note_on_c, 0, 68, 110
2, 144384, Note_on_c, 0, 82, 110
2, 144572, Note_off_c, 0, 82, 100
2, 144576, Note_on_c, 0, 80, 110
2, 144764, Note_off_c, 0, 80, 100
2, 144768, Note_on_c, 0, 79, 110
2, 144956, Note_off_c, 0, 79, 100
2, 144960, Note_on_c, 0, 80, 110
2, 145148, Note_off_c, 0, 68, 100
2, 145148, Note_off_c, 0, 80, 100
2, 145152, Note_on_c, 0, 70, 110
2, 145152, Note_on_c, 0, 82, 110
2, 145532, Note_off_c, 0, 82, 100
2, 145536, Note_on_c, 0, 79, 110
2, 145916, Note_off_c, 0, 70, 100
2, 145916, Note_off_c, 0, 79, 100
2, 145920, Note_on_c, 0, 72, 110
2, 145920, Note_on_c, 0, 84, 110
2, 146300, Note_off_c, 0, 84, 100
2, 146304, Note_on_c, 0, 80, 110
2, 146684, Note_off_c, 0, 72, 100
2, 146684, Note_off_c, 0, 80, 100
2, 146688, Note_on_c, 0, 86, 110
2, 146688, Note_on_c, 0, 74, 110
2, 147068, Note_off_c, 0, 86, 100
2, 147068, Note_off_c, 0, 74, 100
2, 147072, Note_on_c, 0, 82, 110
2, 147072, Note_on_c, 0, 70, 110
2, 147452, Note_off_c, 0, 82, 100
2, 147452, Note_off_c, 0, 70, 100
2, 147456, Note_on_c, 0, 87, 110
2, 147456, Note_on_c, 0, 75, 110
2, 147836, Note_off_c, 0, 87, 100
2, 147836, Note_off_c, 0, 75, 100
2, 147840, Note_on_c, 0, 78, 110
2, 147840, Note_on_c, 0, 75, 110
2, 148220, Note_off_c, 0, 78, 100
2, 148220, Note_off_c, 0, 75, 100
2, 148224, Note_on_c, 0, 79, 80
2, 148224, Note_on_c, 0, 75, 80
2, 148604, Note_off_c, 0, 75, 100
2, 148608, Note_on_c, 0, 70, 80
2, 148988, Note_off_c, 0, 79, 100
2, 148992, Note_on_c, 0, 74, 80
2, 149372, Note_off_c, 0, 70, 100
2, 149376, Note_on_c, 0, 68, 80
2, 149756, Note_off_c, 0, 74, 100
2, 149756, Note_off_c, 0, 68, 100
2, 149760, Note_on_c, 0, 75, 80
2, 149760, Note_on_c, 0, 67, 80
2, 150140, Note_off_c, 0, 75, 100
2, 150140, Note_off_c, 0, 67, 100
2, 150528, Note_on_c, 0, 87, 110
2, 150528, Note_on_c, 0, 75, 110
2, 151676, Note_off_c, 0, 75, 100
2, 151676, Note_off_c, 0, 87, 100
2, 152064, Note_on_c, 0, 75, 110
2, 152064, Note_on_c, 0, 63, 110
2, 153212, Note_off_c, 0, 63, 100
2, 153212, Note_off_c, 0, 75, 100
2, 153600, Note_on_c, 0, 73, 110
2, 153600, Note_on_c, 0, 75, 110
2, 153600, Note_on_c, 0, 63, 110
2, 153980, Note_off_c, 0, 73, 100
2, 153984, Note_on_c, 0, 71, 80
2, 154364, Note_off_c, 0, 71, 100
2, 154368, Note_on_c, 0, 72, 80
2, 154748, Note_off_c, 0, 72, 100
2, 154752, Note_on_c, 0, 70, 80
2, 155132, Note_off_c, 0, 70, 100
2, 155136, Note_on_c, 0, 68, 80
2, 155516, Note_off_c, 0, 63, 100
2, 155516, Note_off_c, 0, 75, 100
2, 155516, Note_off_c, 0, 68, 100
2, 155520, Note_on_c, 0, 74, 80
2, 155520, Note_on_c, 0, 68, 80
2, 155520, Note_on_c, 0, 62, 80
2, 155900, Note_off_c, 0, 74, 100
2, 155900, Note_off_c, 0, 68, 100
2, 155900, Note_off_c, 0, 62, 100
2, 155904, Note_on_c, 0, 75, 80
2, 155904, Note_on_c, 0, 67, 80
2, 155904, Note_on_c, 0, 63, 80
2, 156284, Note_off_c, 0, 75, 100
2, 156284, Note_off_c, 0, 67, 100
2, 156284, Note_off_c, 0, 63, 100
2, 156672, Note_on_c, 0, 84, 80
2, 156716, Note_off_c, 0, 84, 100
2, 156720, Note_on_c, 0, 82, 80
2, 156856, Note_off_c, 0, 82, 100
2, 156864, Note_on_c, 0, 81, 80
2, 157052, Note_off_c, 0, 81, 100
2, 157056, Note_on_c, 0, 82, 80
2, 157244, Note_off_c, 0, 82, 100
2, 157248, Note_on_c, 0, 84, 80
2, 157436, Note_off_c, 0, 84, 100
2, 157440, Note_on_c, 0, 82, 80
2, 157820, Note_off_c, 0, 82, 100
2, 157824, Note_on_c, 0, 70, 80
2, 157824, Note_on_c, 0, 62, 80
2, 158204, Note_off_c, 0, 70, 100
2, 158204, Note_off_c, 0, 62, 100
2, 158208, Note_on_c, 0, 72, 80
2, 158208, Note_on_c, 0, 63, 80
2, 158588, Note_off_c, 0, 72, 100
2, 158588, Note_off_c, 0, 63, 100
2, 158592, Note_on_c, 0, 74, 80
2, 158592, Note_on_c, 0, 65, 80
2, 158972, Note_off_c, 0, 74, 100
2, 158972, Note_off_c, 0, 65, 100
2, 158976, Note_on_c, 0, 75, 80
2, 158976, Note_on_c, 0, 67, 80
2, 159356, Note_off_c, 0, 75, 100
2, 159356, Note_off_c, 0, 67, 100
2, 159744, Note_on_c, 0, 80, 80
2, 159788, Note_off_c, 0, 80, 100
2, 159792, Note_on_c, 0, 79, 80
2, 159928, Note_off_c, 0, 79, 100
2, 159936, Note_on_c, 0, 78, 80
2, 160124, Note_off_c, 0, 78, 100
2, 160128, Note_on_c, 0, 79, 80
2, 160316, Note_off_c, 0, 79, 100
2, 160320, Note_on_c, 0, 80, 80
2, 160508, Note_off_c, 0, 80, 100
2, 160512, Note_on_c, 0, 79, 80
2, 160892, Note_off_c, 0, 79, 100
2, 160896, Note_on_c, 0, 67, 80
2, 160896, Note_on_c, 0, 59, 80
2, 161276, Note_off_c, 0, 67, 100
2, 161276, Note_off_c, 0, 59, 100
2, 161280, Note_on_c, 0, 69, 80
2, 161280, Note_on_c, 0, 60, 80
2, 161660, Note_off_c, 0, 69, 100
2, 161660, Note_off_c, 0, 60, 100
2, 161664, Note_on_c, 0, 71, 80
2, 161664, Note_on_c, 0, 62, 80
2, 162044, Note_off_c, 0, 71, 100
2, 162044, Note_off_c, 0, 62, 100
2, 162048, Note_on_c, 0, 72, 80
2, 162048, Note_on_c, 0, 63, 80
2, 162428, Note_off_c, 0, 72, 100
2, 162428, Note_off_c, 0, 63, 100
2, 162816, Note_on_c, 0, 84, 110
2, 162816, Note_on_c, 0, 72, 110
2, 163964, Note_off_c, 0, 72, 100
2, 163964, Note_off_c, 0, 84, 100
2, 164352, Note_on_c, 0, 72, 110
2, 164352, Note_on_c, 0, 60, 110
2, 165500, Note_off_c, 0, 60, 100
2, 165500, Note_off_c, 0, 72, 100
2, 165888, Note_on_c, 0, 70, 110
2, 165888, Note_on_c, 0, 72, 110
2, 165888, Note_on_c, 0, 60, 110
2, 166268, Note_off_c, 0, 70, 100
2, 166272, Note_on_c, 0, 67, 110
2, 166652, Note_off_c, 0, 67, 100
2, 166656, Note_on_c, 0, 68, 110
2, 167036, Note_off_c, 0, 68, 100
2, 167040, Note_on_c, 0, 67, 110
2, 167420, Note_off_c, 0, 67, 100
2, 167424, Note_on_c, 0, 65, 110
2, 167804, Note_off_c, 0, 60, 100
2, 167804, Note_off_c, 0, 72, 100
2, 167804, Note_off_c, 0, 65, 100
2, 167808, Note_on_c, 0, 65, 110
2, 167808, Note_on_c, 0, 71, 110
2, 167808, Note_on_c, 0, 59, 110
2, 168188, Note_off_c, 0, 65, 100
2, 168188, Note_off_c, 0, 71, 100
2, 168188, Note_off_c, 0, 59, 100
2, 168192, Note_on_c, 0, 72, 110
2, 168192, Note_on_c, 0, 63, 110
2, 168192, Note_on_c, 0, 60, 110
2, 168572, Note_off_c, 0, 72, 100
2, 168572, Note_off_c, 0, 63, 100
2, 168572, Note_off_c, 0, 60, 100
2, 168960, Note_on_c, 0, 80, 80
2, 169004, Note_off_c, 0, 80, 100
2, 169008, Note_on_c, 0, 79, 80
2, 169144, Note_off_c, 0, 79, 100
2, 169152, Note_on_c, 0, 78, 80
2, 169340, Note_off_c, 0, 78, 100
2, 169344, Note_on_c, 0, 79, 80
2, 169532, Note_off_c, 0, 79, 100
2, 169536, Note_on_c, 0, 80, 80
2, 169724, Note_off_c, 0, 80, 100
2, 169728, Note_on_c, 0, 79, 80
2, 170108, Note_off_c, 0, 79, 100
2, 170112, Note_on_c, 0, 67, 80
2, 170112, Note_on_c, 0, 59, 80
2, 170492, Note_off_c, 0, 67, 100
2, 170492, Note_off_c, 0, 59, 100
2, 170496, Note_on_c, 0, 69, 80
2, 170496, Note_on_c, 0, 60, 80
2, 170876, Note_off_c, 0, 69, 100
2, 170876, Note_off_c, 0, 60, 100
2, 170880, Note_on_c, 0, 71, 80
2, 170880, Note_on_c, 0, 62, 80
2, 171260, Note_off_c, 0, 71, 100
2, 171260, Note_off_c, 0, 62, 100
2, 171264, Note_on_c, 0, 63, 80
2, 171264, Note_on_c, 0, 72, 80
2, 171644, Note_off_c, 0, 63, 100
2, 171644, Note_off_c, 0, 72, 100
2, 172032, Note_on_c, 0, 73, 80
2, 172076, Note_off_c, 0, 73, 100
2, 172080, Note_on_c, 0, 72, 80
2, 172216, Note_off_c, 0, 72, 100
2, 172224, Note_on_c, 0, 71, 80
2, 172412, Note_off_c, 0, 71, 100
2, 172416, Note_on_c, 0, 72, 80
2, 172604, Note_off_c, 0, 72, 100
2, 172608, Note_on_c, 0, 73, 80
2, 172796, Note_off_c, 0, 73, 100
2, 172800, Note_on_c, 0, 72, 80
2, 173180, Note_off_c, 0, 72, 100
2, 173184, Note_on_c, 0, 76, 80
2, 173184, Note_on_c, 0, 84, 80
2, 173564, Note_off_c, 0, 76, 100
2, 173564, Note_off_c, 0, 84, 100
2, 173568, Note_on_c, 0, 77, 86
2, 173568, Note_on_c, 0, 86, 86
2, 173948, Note_off_c, 0, 77, 100
2, 173948, Note_off_c, 0, 86, 100
2, 173952, Note_on_c, 0, 79, 93
2, 173952, Note_on_c, 0, 88, 93
2, 174332, Note_off_c, 0, 79, 100
2, 174332, Note_off_c, 0, 88, 100
2, 174336, Note_on_c, 0, 80, 110
2, 174336, Note_on_c, 0, 89, 110
2, 174716, Note_off_c, 0, 80, 100
2, 174716, Note_off_c, 0, 89, 100
2, 175104, Note_on_c, 0, 89, 110
2, 175104, Note_on_c, 0, 77, 110
2, 176252, Note_off_c, 0, 77, 100
2, 176252, Note_off_c, 0, 89, 100
2, 176640, Note_on_c, 0, 77, 110
2, 176640, Note_on_c, 0, 65, 110
2, 177788, Note_off_c, 0, 65, 100
2, 177788, Note_off_c, 0, 77, 100
2, 178176, Note_on_c, 0, 75, 110
2, 178176, Note_on_c, 0, 78, 110
2, 178940, Note_off_c, 0, 75, 100
2, 178944, Note_on_c, 0, 73, 110
2, 179324, Note_off_c, 0, 78, 100
2, 179324, Note_off_c, 0, 73, 100
2, 179712, Note_on_c, 0, 87, 110
2, 179756, Note_off_c, 0, 87, 100
2, 179760, Note_on_c, 0, 85, 110
2, 179896, Note_off_c, 0, 85, 100
2, 179904, Note_on_c, 0, 84, 110
2, 180092, Note_off_c, 0, 84, 100
2, 180096, Note_on_c, 0, 85, 110
2, 180284, Note_off_c, 0, 85, 100
2, 180288, Note_on_c, 0, 87, 110
2, 180476, Note_off_c, 0, 87, 100
2, 180480, Note_on_c, 0, 85, 110
2, 180860, Note_off_c, 0, 85, 100
2, 181248, Note_on_c, 0, 75, 110
2, 181248, Note_on_c, 0, 73, 110
2, 182012, Note_off_c, 0, 73, 100
2, 182016, Note_on_c, 0, 72, 110
2, 182396, Note_off_c, 0, 75, 100
2, 182396, Note_off_c, 0, 72, 100
2, 182784, Note_on_c, 0, 86, 110
2, 182828, Note_off_c, 0, 86, 100
2, 182832, Note_on_c, 0, 84, 110
2, 182968, Note_off_c, 0, 84, 100
2, 182976, Note_on_c, 0, 83, 110
2, 183164, Note_off_c, 0, 83, 100
2, 183168, Note_on_c, 0, 84, 110
2, 183356, Note_off_c, 0, 84, 100
2, 183360, Note_on_c, 0, 86, 110
2, 183548, Note_off_c, 0, 86, 100
2, 183552, Note_on_c, 0, 84, 110
2, 183932, Note_off_c, 0, 84, 100
2, 184320, Note_on_c, 0, 74, 110
2, 184320, Note_on_c, 0, 72, 110
2, 185084, Note_off_c, 0, 72, 100
2, 185088, Note_on_c, 0, 70, 110
2, 185468, Note_off_c, 0, 74, 100
2, 185468, Note_off_c, 0, 70, 100
2, 185856, Note_on_c, 0, 79, 110
2, 185856, Note_on_c, 0, 67, 110
2, 187004, Note_off_c, 0, 67, 100
2, 187004, Note_off_c, 0, 79, 100
2, 187392, Note_on_c, 0, 79, 110
2, 187392, Note_on_c, 0, 67, 110
2, 188540, Note_off_c, 0, 67, 100
2, 188540, Note_off_c, 0, 79, 100
2, 188928, Note_on_c, 0, 79, 110
2, 188928, Note_on_c, 0, 67, 110
2, 188928, Note_on_c, 0, 77, 110
2, 189308, Note_off_c, 0, 77, 100
2, 189312, Note_on_c, 0, 74, 110
2, 189692, Note_off_c, 0, 74, 100
2, 189696, Note_on_c, 0, 75, 110
2, 190076, Note_off_c, 0, 75, 100
2, 190080, Note_on_c, 0, 74, 107
2, 190460, Note_off_c, 0, 74, 100
2, 190464, Note_on_c, 0, 75, 103
2, 190844, Note_off_c, 0, 67, 100
2, 190844, Note_off_c, 0, 79, 100
2, 190844, Note_off_c, 0, 75, 100
2, 190848, Note_on_c, 0, 79, 99
2, 190848, Note_on_c, 0, 76, 99
2, 190848, Note_on_c, 0, 67, 99
2, 190848, Note_on_c, 0, 70, 99
2, 191228, Note_off_c, 0, 79, 100
2, 191228, Note_off_c, 0, 76, 100
2, 191228, Note_off_c, 0, 67, 100
2, 191228, Note_off_c, 0, 70, 100
2, 191232, Note_on_c, 0, 78, 95
2, 191232, Note_on_c, 0, 74, 95
2, 191232, Note_on_c, 0, 69, 95
2, 191232, Note_on_c, 0, 66, 95
2, 191612, Note_off_c, 0, 78, 100
2, 191612, Note_off_c, 0, 74, 100
2, 191612, Note_off_c, 0, 69, 100
2, 191612, Note_off_c, 0, 66, 100
2, 192032, Note_on_c, 0, 86, 110
2, 192384, Note_on_c, 0, 84, 110
2, 192764, Note_off_c, 0, 84, 100
2, 192768, Note_on_c, 0, 82, 110
2, 193148, Note_off_c, 0, 82, 100
2, 193152, Note_on_c, 0, 81, 110
2, 193532, Note_off_c, 0, 81, 100
2, 193536, Note_on_c, 0, 82, 110
2, 193916, Note_off_c, 0, 82, 100
2, 193920, Note_on_c, 0, 85, 110
2, 193920, Note_on_c, 0, 79, 110
2, 193948, Note_off_c, 0, 86, 64
2, 194300, Note_off_c, 0, 85, 100
2, 194300, Note_off_c, 0, 79, 100
2, 194304, Note_on_c, 0, 86, 110
2, 194304, Note_on_c, 0, 78, 110
2, 194684, Note_off_c, 0, 86, 100
2, 194684, Note_off_c, 0, 78, 100
2, 195072, Note_on_c, 0, 74, 110
2, 195456, Note_on_c, 0, 72, 108
2, 195836, Note_off_c, 0, 72, 100
2, 195840, Note_on_c, 0, 70, 106
2, 196220, Note_off_c, 0, 70, 100
2, 196224, Note_on_c, 0, 69, 103
2, 196604, Note_off_c, 0, 69, 100
2, 196608, Note_on_c, 0, 70, 101
2, 196988, Note_off_c, 0, 74, 100
2, 196988, Note_off_c, 0, 70, 100
2, 196992, Note_on_c, 0, 73, 98
2, 196992, Note_on_c, 0, 67, 98
2, 196992, Note_on_c, 0, 79, 98
2, 197372, Note_off_c, 0, 73, 100
2, 197372, Note_off_c, 0, 67, 100
2, 197372, Note_off_c, 0, 79, 100
2, 197376, Note_on_c, 0, 74, 96
2, 197376, Note_on_c, 0, 66, 96
2, 197376, Note_on_c, 0, 78, 96
2, 197756, Note_off_c, 0, 74, 100
2, 197756, Note_off_c, 0, 66, 100
2, 197756, Note_off_c, 0, 78, 100
2, 202752, Note_on_c, 0, 86, 80
2, 202752, Note_on_c, 0, 74, 80
2, 202940, Note_off_c, 0, 86, 100
2, 202940, Note_off_c, 0, 74, 100
2, 202944, Note_on_c, 0, 85, 80
2, 202944, Note_on_c, 0, 73, 80
2, 203132, Note_off_c, 0, 85, 100
2, 203132, Note_off_c, 0, 73, 100
2, 203136, Note_on_c, 0, 86, 80
2, 203136, Note_on_c, 0, 74, 80
2, 203324, Note_off_c, 0, 86, 100
2, 203324, Note_off_c, 0, 74, 100
2, 203328, Note_on_c, 0, 88, 80
2, 203328, Note_on_c, 0, 76, 80
2, 203516, Note_off_c, 0, 88, 100
2, 203516, Note_off_c, 0, 76, 100
2, 203520, Note_on_c, 0, 86, 80
2, 203520, Note_on_c, 0, 74, 80
2, 203900, Note_off_c, 0, 86, 100
2, 203900, Note_off_c, 0, 74, 100
2, 203904, Note_on_c, 0, 74, 80
2, 203904, Note_on_c, 0, 62, 80
2, 204284, Note_off_c, 0, 74, 100
2, 204284, Note_off_c, 0, 62, 100
2, 204288, Note_on_c, 0, 76, 80
2, 204288, Note_on_c, 0, 64, 80
2, 204668, Note_off_c, 0, 76, 100
2, 204668, Note_off_c, 0, 64, 100
2, 204672, Note_on_c, 0, 78, 80
2, 204672, Note_on_c, 0, 66, 80
2, 205052, Note_off_c, 0, 78, 100
2, 205052, Note_off_c, 0, 66, 100
2, 205056, Note_on_c, 0, 79, 80
2, 205056, Note_on_c, 0, 67, 80
2, 205820, Note_off_c, 0, 79, 100
2, 205820, Note_off_c, 0, 67, 100
2, 205824, Note_on_c, 0, 83, 80
2, 205824, Note_on_c, 0, 71, 80
2, 206012, Note_off_c, 0, 83, 100
2, 206012, Note_off_c, 0, 71, 100
2, 206016, Note_on_c, 0, 81, 80
2, 206016, Note_on_c, 0, 69, 80
2, 206204, Note_off_c, 0, 81, 100
2, 206204, Note_off_c, 0, 69, 100
2, 206208, Note_on_c, 0, 79, 80
2, 206208, Note_on_c, 0, 67, 80
2, 206396, Note_off_c, 0, 79, 100
2, 206396, Note_off_c, 0, 67, 100
2, 206400, Note_on_c, 0, 81, 80
2, 206400, Note_on_c, 0, 69, 80
2, 206588, Note_off_c, 0, 81, 100
2, 206588, Note_off_c, 0, 69, 100
2, 206592, Note_on_c, 0, 83, 80
2, 206592, Note_on_c, 0, 71, 80
2, 206972, Note_off_c, 0, 83, 100
2, 206972, Note_off_c, 0, 71, 100
2, 206976, Note_on_c, 0, 79, 80
2, 206976, Note_on_c, 0, 67, 80
2, 207356, Note_off_c, 0, 79, 100
2, 207356, Note_off_c, 0, 67, 100
2, 207360, Note_on_c, 0, 85, 80
2, 207360, Note_on_c, 0, 73, 80
2, 207740, Note_off_c, 0, 85, 100
2, 207740, Note_off_c, 0, 73, 100
2, 207744, Note_on_c, 0, 81, 80
2, 207744, Note_on_c, 0, 69, 80
2, 208124, Note_off_c, 0, 81, 100
2, 208124, Note_off_c, 0, 69, 100
2, 208128, Note_on_c, 0, 86, 80
2, 208128, Note_on_c, 0, 74, 80
2, 208892, Note_off_c, 0, 86, 100
2, 208892, Note_off_c, 0, 74, 100
2, 208896, Note_on_c, 0, 86, 80
2, 208896, Note_on_c, 0, 74, 80
2, 209084, Note_off_c, 0, 86, 100
2, 209084, Note_off_c, 0, 74, 100
2, 209088, Note_on_c, 0, 85, 80
2, 209088, Note_on_c, 0, 73, 80
2, 209276, Note_off_c, 0, 85, 100
2, 209276, Note_off_c, 0, 73, 100
2, 209280, Note_on_c, 0, 86, 80
2, 209280, Note_on_c, 0, 74, 80
2, 209468, Note_off_c, 0, 86, 100
2, 209468, Note_off_c, 0, 74, 100
2, 209472, Note_on_c, 0, 88, 80
2, 209472, Note_on_c, 0, 76, 80
2, 209660, Note_off_c, 0, 88, 100
2, 209660, Note_off_c, 0, 76, 100
2, 209664, Note_on_c, 0, 86, 80
2, 209664, Note_on_c, 0, 74, 80
2, 210044, Note_off_c, 0, 86, 100
2, 210044, Note_off_c, 0, 74, 100
2, 210048, Note_on_c, 0, 74, 80
2, 210048, Note_on_c, 0, 62, 80
2, 210428, Note_off_c, 0, 74, 100
2, 210428, Note_off_c, 0, 62, 100
2, 210432, Note_on_c, 0, 76, 80
2, 210432, Note_on_c, 0, 64, 80
2, 210812, Note_off_c, 0, 76, 100
2, 210812, Note_off_c, 0, 64, 100
2, 210816, Note_on_c, 0, 78, 80
2, 210816, Note_on_c, 0, 66, 80
2, 211196, Note_off_c, 0, 78, 100
2, 211196, Note_off_c, 0, 66, 100
2, 211200, Note_on_c, 0, 79, 80
2, 211200, Note_on_c, 0, 67, 80
2, 211964, Note_off_c, 0, 79, 100
2, 211964, Note_off_c, 0, 67, 100
2, 211968, Note_on_c, 0, 83, 80
2, 211968, Note_on_c, 0, 71, 80
2, 212156, Note_off_c, 0, 83, 100
2, 212156, Note_off_c, 0, 71, 100
2, 212160, Note_on_c, 0, 81, 80
2, 212160, Note_on_c, 0, 69, 80
2, 212348, Note_off_c, 0, 81, 100
2, 212348, Note_off_c, 0, 69, 100
2, 212352, Note_on_c, 0, 79, 80
2, 212352, Note_on_c, 0, 67, 80
2, 212540, Note_off_c, 0, 79, 100
2, 212540, Note_off_c, 0, 67, 100
2, 212544, Note_on_c, 0, 81, 80
2, 212544, Note_on_c, 0, 69, 80
2, 212732, Note_off_c, 0, 81, 100
2, 212732, Note_off_c, 0, 69, 100
2, 212736, Note_on_c, 0, 83, 80
2, 212736, Note_on_c, 0, 71, 80
2, 213116, Note_off_c, 0, 83, 100
2, 213116, Note_off_c, 0, 71, 100
2, 213120, Note_on_c, 0, 79, 80
2, 213120, Note_on_c, 0, 67, 80
2, 213500, Note_off_c, 0, 79, 100
2, 213500, Note_off_c, 0, 67, 100
2, 213504, Note_on_c, 0, 84, 80
2, 213504, Note_on_c, 0, 72, 80
2, 213884, Note_off_c, 0, 84, 100
2, 213884, Note_off_c, 0, 72, 100
2, 213888, Note_on_c, 0, 81, 80
2, 213888, Note_on_c, 0, 69, 80
2, 214268, Note_off_c, 0, 81, 100
2, 214268, Note_off_c, 0, 69, 100
2, 214272, Control_c, 0, 64, 127
2, 214272, Note_on_c, 0, 79, 80
2, 214272, Note_on_c, 0, 67, 80
2, 214652, Note_off_c, 0, 79, 100
2, 214652, Note_off_c, 0, 67, 100
2, 215032, Control_c, 0, 64, 0
2, 215040, Control_c, 0, 64, 127
2, 215040, Note_on_c, 0, 67, 80
2, 215164, Note_off_c, 0, 67, 100
2, 215168, Note_on_c, 0, 71, 80
2, 215292, Note_off_c, 0, 71, 100
2, 215296, Note_on_c, 0, 79, 81
2, 215420, Note_off_c, 0, 79, 100
2, 215424, Note_on_c, 0, 67, 82
2, 215548, Note_off_c, 0, 67, 100
2, 215552, Note_on_c, 0, 72, 83
2, 215676, Note_off_c, 0, 72, 100
2, 215680, Note_on_c, 0, 78, 84
2, 215800, Control_c, 0, 64, 0
2, 215804, Note_off_c, 0, 78, 100
2, 215808, Control_c, 0, 64, 127
2, 215808, Note_on_c, 0, 67, 85
2, 215932, Note_off_c, 0, 67, 100
2, 215936, Note_on_c, 0, 74, 86
2, 216060, Note_off_c, 0, 74, 100
2, 216064, Note_on_c, 0, 77, 86
2, 216188, Note_off_c, 0, 77, 100
2, 216192, Note_on_c, 0, 67, 87
2, 216316, Note_off_c, 0, 67, 100
2, 216320, Note_on_c, 0, 72, 88
2, 216444, Note_off_c, 0, 72, 100
2, 216448, Note_on_c, 0, 76, 89
2, 216568, Control_c, 0, 64, 0
2, 216572, Note_off_c, 0, 76, 100
2, 216576, Control_c, 0, 64, 127
2, 216576, Note_on_c, 0, 67, 90
2, 216700, Note_off_c, 0, 67, 100
2, 216704, Note_on_c, 0, 72, 91
2, 216828, Note_off_c, 0, 72, 100
2, 216832, Note_on_c, 0, 75, 92
2, 216956, Note_off_c, 0, 75, 100
2, 216960, Note_on_c, 0, 69, 93
2, 217084, Note_off_c, 0, 69, 100
2, 217088, Note_on_c, 0, 72, 93
2, 217212, Note_off_c, 0, 72, 100
2, 217216, Note_on_c, 0, 75, 94
2, 217336, Control_c, 0, 64, 0
2, 217340, Note_off_c, 0, 75, 100
2, 217344, Control_c, 0, 64, 127
2, 217344, Note_on_c, 0, 72, 95
2, 217468, Note_off_c, 0, 72, 100
2, 217472, Note_on_c, 0, 75, 96
2, 217596, Note_off_c, 0, 75, 100
2, 217600, Note_on_c, 0, 72, 97
2, 217724, Note_off_c, 0, 72, 100
2, 217728, Note_on_c, 0, 71, 98
2, 217852, Note_off_c, 0, 71, 100
2, 217856, Note_on_c, 0, 74, 99
2, 217980, Note_off_c, 0, 74, 100
2, 217984, Note_on_c, 0, 71, 99
2, 218104, Control_c, 0, 64, 0
2, 218108, Note_off_c, 0, 71, 100
2, 218112, Control_c, 0, 64, 127
2, 218112, Note_on_c, 0, 69, 80
2, 218112, Note_on_c, 0, 66, 80
2, 218112, Note_on_c, 0, 76, 80
2, 218300, Note_off_c, 0, 76, 100
2, 218304, Note_on_c, 0, 74, 80
2, 218492, Note_off_c, 0, 74, 100
2, 218496, Note_on_c, 0, 73, 80
2, 218684, Note_off_c, 0, 73, 100
2, 218688, Note_on_c, 0, 74, 80
2, 218872, Control_c, 0, 64, 0
2, 218876, Note_off_c, 0, 69, 100
2, 218876, Note_off_c, 0, 66, 100
2, 218876, Note_off_c, 0, 74, 100
2, 218880, Note_on_c, 0, 67, 80
2, 218880, Note_on_c, 0, 62, 80
2, 218880, Note_on_c, 0, 71, 80
2, 219260, Note_off_c, 0, 67, 100
2, 219260, Note_off_c, 0, 62, 100
2, 219260, Note_off_c, 0, 71, 100
2, 219264, Note_on_c, 0, 74, 80
2, 219644, Note_off_c, 0, 74, 100
2, 219648, Note_on_c, 0, 69, 80
2, 219648, Note_on_c, 0, 66, 80
2, 219648, Note_on_c, 0, 76, 80
2, 219836, Note_off_c, 0, 76, 100
2, 219840, Note_on_c, 0, 74, 80
2, 220028, Note_off_c, 0, 74, 100
2, 220032, Note_on_c, 0, 73, 80
2, 220220, Note_off_c, 0, 73, 100
2, 220224, Note_on_c, 0, 74, 80
2, 220412, Note_off_c, 0, 69, 100
2, 220412, Note_off_c, 0, 66, 100
2, 220412, Note_off_c, 0, 74, 100
2, 220416, Control_c, 0, 64, 127
2, 220416, Note_on_c, 0, 67, 80
2, 220416, Note_on_c, 0, 62, 80
2, 220416, Note_on_c, 0, 71, 80
2, 220796, Note_off_c, 0, 67, 100
2, 220796, Note_off_c, 0, 62, 100
2, 220796, Note_off_c, 0, 71, 100
2, 221176, Control_c, 0, 64, 0
2, 221184, Control_c, 0, 64, 127
2, 221184, Note_on_c, 0, 71, 80
2, 221308, Note_off_c, 0, 71, 100
2, 221312, Note_on_c, 0, 81, 80
2, 221436, Note_off_c, 0, 81, 100
2, 221440, Note_on_c, 0, 79, 81
2, 221564, Note_off_c, 0, 79, 100
2, 221568, Note_on_c, 0, 72, 82
2, 221692, Note_off_c, 0, 72, 100
2, 221696, Note_on_c, 0, 79, 83
2, 221820, Note_off_c, 0, 79, 100
2, 221824, Note_on_c, 0, 78, 84
2, 221944, Control_c, 0, 64, 0
2, 221948, Note_off_c, 0, 78, 100
2, 221952, Control_c, 0, 64, 127
2, 221952, Note_on_c, 0, 74, 85
2, 222076, Note_off_c, 0, 74, 100
2, 222080, Note_on_c, 0, 79, 86
2, 222204, Note_off_c, 0, 79, 100
2, 222208, Note_on_c, 0, 77, 86
2, 222332, Note_off_c, 0, 77, 100
2, 222336, Note_on_c, 0, 67, 87
2, 222460, Note_off_c, 0, 67, 100
2, 222464, Note_on_c, 0, 77, 88
2, 222588, Note_off_c, 0, 77, 100
2, 222592, Note_on_c, 0, 76, 89
2, 222712, Control_c, 0, 64, 0
2, 222716, Note_off_c, 0, 76, 100
2, 222720, Control_c, 0, 64, 127
2, 222720, Note_on_c, 0, 72, 90
2, 222844, Note_off_c, 0, 72, 100
2, 222848, Note_on_c, 0, 77, 91
2, 222972, Note_off_c, 0, 77, 100
2, 222976, Note_on_c, 0, 75, 92
2, 223100, Note_off_c, 0, 75, 100
2, 223104, Note_on_c, 0, 72, 93
2, 223228, Note_off_c, 0, 72, 100
2, 223232, Note_on_c, 0, 77, 93
2, 223356, Note_off_c, 0, 77, 100
2, 223360, Note_on_c, 0, 75, 94
2, 223480, Control_c, 0, 64, 0
2, 223484, Note_off_c, 0, 75, 100
2, 223488, Control_c, 0, 64, 127
2, 223488, Note_on_c, 0, 72, 95
2, 223612, Note_off_c, 0, 72, 100
2, 223616, Note_on_c, 0, 77, 96
2, 223740, Note_off_c, 0, 77, 100
2, 223744, Note_on_c, 0, 75, 97
2, 223868, Note_off_c, 0, 75, 100
2, 223872, Note_on_c, 0, 71, 98
2, 223996, Note_off_c, 0, 71, 100
2, 224000, Note_on_c, 0, 75, 99
2, 224124, Note_off_c, 0, 75, 100
2, 224128, Note_on_c, 0, 74, 99
2, 224248, Control_c, 0, 64, 0
2, 224252, Note_off_c, 0, 74, 100
2, 224256, Control_c, 0, 64, 127
2, 224256, Note_on_c, 0, 69, 80
2, 224256, Note_on_c, 0, 66, 80
2, 224256, Note_on_c, 0, 76, 80
2, 224444, Note_off_c, 0, 76, 100
2, 224448, Note_on_c, 0, 74, 80
2, 224636, Note_off_c, 0, 74, 100
2, 224640, Note_on_c, 0, 73, 80
2, 224828, Note_off_c, 0, 73, 100
2, 224832, Note_on_c, 0, 74, 80
2, 225016, Control_c, 0, 64, 0
2, 225020, Note_off_c, 0, 69, 100
2, 225020, Note_off_c, 0, 66, 100
2, 225020, Note_off_c, 0, 74, 100
2, 225024, Note_on_c, 0, 67, 80
2, 225024, Note_on_c, 0, 62, 80
2, 225024, Note_on_c, 0, 71, 80
2, 225404, Note_off_c, 0, 67, 100
2, 225404, Note_off_c, 0, 62, 100
2, 225404, Note_off_c, 0, 71, 100
2, 225408, Note_on_c, 0, 74, 80
2, 225788, Note_off_c, 0, 74, 100
2, 225792, Note_on_c, 0, 69, 80
2, 225792, Note_on_c, 0, 66, 80
2, 225792, Note_on_c, 0, 76, 80
2, 225980, Note_off_c, 0, 76, 100
2, 225984, Note_on_c, 0, 74, 80
2, 226172, Note_off_c, 0, 74, 100
2, 226176, Note_on_c, 0, 73, 80
2, 226364, Note_off_c, 0, 73, 100
2, 226368, Note_on_c, 0, 74, 80
2, 226556, Note_off_c, 0, 69, 100
2, 226556, Note_off_c, 0, 66, 100
2, 226556, Note_off_c, 0, 74, 100
2, 226560, Note_on_c, 0, 67, 80
2, 226560, Note_on_c, 0, 62, 80
2, 226560, Note_on_c, 0, 71, 80
2, 226940, Note_off_c, 0, 67, 100
2, 226940, Note_off_c, 0, 62, 100
2, 226940, Note_off_c, 0, 71, 100
2, 228096, Control_c, 0, 64, 127
2, 228224, Note_on_c, 0, 83, 80
2, 228348, Note_off_c, 0, 83, 100
2, 228352, Note_on_c, 0, 84, 80
2, 228476, Note_off_c, 0, 84, 100
2, 228480, Note_on_c, 0, 86, 80
2, 228604, Note_off_c, 0, 86, 100
2, 228608, Note_on_c, 0, 84, 80
2, 228732, Note_off_c, 0, 84, 100
2, 228736, Note_on_c, 0, 83, 80
2, 228856, Control_c, 0, 64, 0
2, 228860, Note_off_c, 0, 83, 100
2, 228864, Control_c, 0, 64, 127
2, 228864, Note_on_c, 0, 84, 80
2, 228988, Note_off_c, 0, 84, 100
2, 228992, Note_on_c, 0, 81, 80
2, 229116, Note_off_c, 0, 81, 100
2, 229120, Note_on_c, 0, 83, 80
2, 229244, Note_off_c, 0, 83, 100
2, 229248, Note_on_c, 0, 84, 80
2, 229372, Note_off_c, 0, 84, 100
2, 229376, Note_on_c, 0, 83, 80
2, 229500, Note_off_c, 0, 83, 100
2, 229504, Note_on_c, 0, 81, 80
2, 229624, Control_c, 0, 64, 0
2, 229628, Note_off_c, 0, 81, 100
2, 229632, Control_c, 0, 64, 127
2, 229632, Note_on_c, 0, 83, 80
2, 229756, Note_off_c, 0, 83, 100
2, 229760, Note_on_c, 0, 79, 80
2, 229884, Note_off_c, 0, 79, 100
2, 229888, Note_on_c, 0, 81, 80
2, 230012, Note_off_c, 0, 81, 100
2, 230016, Note_on_c, 0, 83, 80
2, 230140, Note_off_c, 0, 83, 100
2, 230144, Note_on_c, 0, 81, 80
2, 230268, Note_off_c, 0, 81, 100
2, 230272, Note_on_c, 0, 79, 80
2, 230392, Control_c, 0, 64, 0
2, 230396, Note_off_c, 0, 79, 100
2, 230400, Control_c, 0, 64, 127
2, 230400, Note_on_c, 0, 78, 80
2, 230524, Note_off_c, 0, 78, 100
2, 230528, Note_on_c, 0, 76, 80
2, 230652, Note_off_c, 0, 76, 100
2, 230656, Note_on_c, 0, 74, 80
2, 230780, Note_off_c, 0, 74, 100
2, 230784, Note_on_c, 0, 72, 80
2, 230908, Note_off_c, 0, 72, 100
2, 230912, Note_on_c, 0, 71, 80
2, 231036, Note_off_c, 0, 71, 100
2, 231040, Note_on_c, 0, 69, 80
2, 231160, Control_c, 0, 64, 0
2, 231164, Note_off_c, 0, 69, 100
2, 231168, Control_c, 0, 64, 127
2, 231168, Note_on_c, 0, 67, 80
2, 231292, Note_off_c, 0, 67, 100
2, 231296, Note_on_c, 0, 74, 80
2, 231420, Note_off_c, 0, 74, 100
2, 231424, Note_on_c, 0, 73, 80
2, 231548, Note_off_c, 0, 73, 100
2, 231552, Note_on_c, 0, 74, 80
2, 231676, Note_off_c, 0, 74, 100
2, 231680, Note_on_c, 0, 71, 80
2, 231804, Note_off_c, 0, 71, 100
2, 231808, Note_on_c, 0, 69, 80
2, 231928, Control_c, 0, 64, 0
2, 231932, Note_off_c, 0, 69, 100
2, 231936, Control_c, 0, 64, 127
2, 231936, Note_on_c, 0, 67, 80
2, 232060, Note_off_c, 0, 67, 100
2, 232064, Note_on_c, 0, 76, 80
2, 232188, Note_off_c, 0, 76, 100
2, 232192, Note_on_c, 0, 75, 80
2, 232316, Note_off_c, 0, 75, 100
2, 232320, Note_on_c, 0, 76, 80
2, 232444, Note_off_c, 0, 76, 100
2, 232448, Note_on_c, 0, 73, 80
2, 232572, Note_off_c, 0, 73, 100
2, 232576, Note_on_c, 0, 67, 80
2, 232696, Control_c, 0, 64, 0
2, 232700, Note_off_c, 0, 67, 100
2, 232704, Control_c, 0, 64, 127
2, 232704, Note_on_c, 0, 66, 80
2, 232828, Note_off_c, 0, 66, 100
2, 232832, Note_on_c, 0, 74, 80
2, 232956, Note_off_c, 0, 74, 100
2, 232960, Note_on_c, 0, 73, 80
2, 233084, Note_off_c, 0, 73, 100
2, 233088, Note_on_c, 0, 74, 80
2, 233212, Note_off_c, 0, 74, 100
2, 233216, Note_on_c, 0, 69, 80
2, 233340, Note_off_c, 0, 69, 100
2, 233344, Note_on_c, 0, 66, 80
2, 233464, Control_c, 0, 64, 0
2, 233468, Note_off_c, 0, 66, 100
2, 233472, Control_c, 0, 64, 127
2, 233472, Note_on_c, 0, 62, 80
2, 233852, Note_off_c, 0, 62, 100
2, 234232, Control_c, 0, 64, 0
2, 234240, Control_c, 0, 64, 127
2, 234368, Note_on_c, 0, 83, 80
2, 234492, Note_off_c, 0, 83, 100
2, 234496, Note_on_c, 0, 84, 80
2, 234620, Note_off_c, 0, 84, 100
2, 234624, Note_on_c, 0, 86, 80
2, 234748, Note_off_c, 0, 86, 100
2, 234752, Note_on_c, 0, 84, 80
2, 234876, Note_off_c, 0, 84, 100
2, 234880, Note_on_c, 0, 83, 80
2, 235000, Control_c, 0, 64, 0
2, 235004, Note_off_c, 0, 83, 100
2, 235008, Control_c, 0, 64, 127
2, 235008, Note_on_c, 0, 84, 80
2, 235132, Note_off_c, 0, 84, 100
2, 235136, Note_on_c, 0, 81, 80
2, 235260, Note_off_c, 0, 81, 100
2, 235264, Note_on_c, 0, 83, 80
2, 235388, Note_off_c, 0, 83, 100
2, 235392, Note_on_c, 0, 84, 80
2, 235516, Note_off_c, 0, 84, 100
2, 235520, Note_on_c, 0, 83, 80
2, 235644, Note_off_c, 0, 83, 100
2, 235648, Note_on_c, 0, 81, 80
2, 235768, Control_c, 0, 64, 0
2, 235772, Note_off_c, 0, 81, 100
2, 235776, Control_c, 0, 64, 127
2, 235776, Note_on_c, 0, 83, 80
2, 235900, Note_off_c, 0, 83, 100
2, 235904, Note_on_c, 0, 79, 80
2, 236028, Note_off_c, 0, 79, 100
2, 236032, Note_on_c, 0, 81, 80
2, 236156, Note_off_c, 0, 81, 100
2, 236160, Note_on_c, 0, 83, 80
2, 236284, Note_off_c, 0, 83, 100
2, 236288, Note_on_c, 0, 81, 80
2, 236412, Note_off_c, 0, 81, 100
2, 236416, Note_on_c, 0, 79, 80
2, 236536, Control_c, 0, 64, 0
2, 236540, Note_off_c, 0, 79, 100
2, 236544, Control_c, 0, 64, 127
2, 236544, Note_on_c, 0, 78, 80
2, 236668, Note_off_c, 0, 78, 100
2, 236672, Note_on_c, 0, 76, 80
2, 236796, Note_off_c, 0, 76, 100
2, 236800, Note_on_c, 0, 74, 80
2, 236924, Note_off_c, 0, 74, 100
2, 236928, Note_on_c, 0, 72, 80
2, 237052, Note_off_c, 0, 72, 100
2, 237056, Note_on_c, 0, 71, 80
2, 237180, Note_off_c, 0, 71, 100
2, 237184, Note_on_c, 0, 69, 80
2, 237304, Control_c, 0, 64, 0
2, 237308, Note_off_c, 0, 69, 100
2, 237312, Control_c, 0, 64, 127
2, 237312, Note_on_c, 0, 67, 80
2, 237436, Note_off_c, 0, 67, 100
2, 237440, Note_on_c, 0, 66, 80
2, 237564, Note_off_c, 0, 66, 100
2, 237568, Note_on_c, 0, 67, 80
2, 237692, Note_off_c, 0, 67, 100
2, 237696, Note_on_c, 0, 69, 80
2, 237820, Note_off_c, 0, 69, 100
2, 237824, Note_on_c, 0, 71, 80
2, 237948, Note_off_c, 0, 71, 100
2, 237952, Note_on_c, 0, 72, 80
2, 238072, Control_c, 0, 64, 0
2, 238076, Note_off_c, 0, 72, 100
2, 238080, Control_c, 0, 64, 127
2, 238080, Note_on_c, 0, 74, 80
2, 238204, Note_off_c, 0, 74, 100
2, 238208, Note_on_c, 0, 62, 80
2, 238332, Note_off_c, 0, 62, 100
2, 238336, Note_on_c, 0, 61, 80
2, 238460, Note_off_c, 0, 61, 100
2, 238464, Note_on_c, 0, 62, 80
2, 238588, Note_off_c, 0, 62, 100
2, 238592, Note_on_c, 0, 64, 80
2, 238716, Note_off_c, 0, 64, 100
2, 238720, Note_on_c, 0, 66, 80
2, 238840, Control_c, 0, 64, 0
2, 238844, Note_off_c, 0, 66, 100
2, 238848, Control_c, 0, 64, 127
2, 238848, Note_on_c, 0, 67, 80
2, 238972, Note_off_c, 0, 67, 100
2, 238976, Note_on_c, 0, 79, 80
2, 239100, Note_off_c, 0, 79, 100
2, 239104, Note_on_c, 0, 67, 80
2, 239228, Note_off_c, 0, 67, 100
2, 239232, Note_on_c, 0, 79, 80
2, 239356, Note_off_c, 0, 79, 100
2, 239360, Note_on_c, 0, 67, 80
2, 239484, Note_off_c, 0, 67, 100
2, 239488, Note_on_c, 0, 79, 80
2, 239608, Control_c, 0, 64, 0
2, 239612, Note_off_c, 0, 79, 100
2, 239616, Control_c, 0, 64, 127
2, 239616, Note_on_c, 0, 67, 80
2, 239740, Note_off_c, 0, 67, 100
2, 239744, Note_on_c, 0, 79, 80
2, 239868, Note_off_c, 0, 79, 100
2, 239872, Note_on_c, 0, 67, 80
2, 239996, Note_off_c, 0, 67, 100
2, 240000, Note_on_c, 0, 79, 80
2, 240124, Note_off_c, 0, 79, 100
2, 240128, Note_on_c, 0, 67, 80
2, 240252, Note_off_c, 0, 67, 100
2, 240256, Note_on_c, 0, 79, 80
2, 240376, Control_c, 0, 64, 0
2, 240380, Note_off_c, 0, 79, 100
2, 240384, Control_c, 0, 64, 127
2, 240384, Note_on_c, 0, 67, 80
2, 240508, Note_off_c, 0, 67, 100
2, 240512, Note_on_c, 0, 79, 80
2, 240636, Note_off_c, 0, 79, 100
2, 240640, Note_on_c, 0, 67, 80
2, 240764, Note_off_c, 0, 67, 100
2, 240768, Note_on_c, 0, 79, 80
2, 240892, Note_off_c, 0, 79, 100
2, 240896, Note_on_c, 0, 67, 80
2, 241020, Note_off_c, 0, 67, 100
2, 241024, Note_on_c, 0, 79, 80
2, 241144, Control_c, 0, 64, 0
2, 241148, Note_off_c, 0, 79, 100
2, 241152, Control_c, 0, 64, 127
2, 241152, Note_on_c, 0, 67, 80
2, 241276, Note_off_c, 0, 67, 100
2, 241280, Note_on_c, 0, 79, 80
2, 241404, Note_off_c, 0, 79, 100
2, 241408, Note_on_c, 0, 67, 80
2, 241532, Note_off_c, 0, 67, 100
2, 241536, Note_on_c, 0, 79, 80
2, 241660, Note_off_c, 0, 79, 100
2, 241664, Note_on_c, 0, 67, 80
2, 241788, Note_off_c, 0, 67, 100
2, 241792, Note_on_c, 0, 79, 80
2, 241912, Control_c, 0, 64, 0
2, 241916, Note_off_c, 0, 79, 100
2, 241920, Control_c, 0, 64, 127
2, 241920, Note_on_c, 0, 67, 80
2, 242044, Note_off_c, 0, 67, 100
2, 242048, Note_on_c, 0, 79, 80
2, 242172, Note_off_c, 0, 79, 100
2, 242176, Note_on_c, 0, 67, 80
2, 242300, Note_off_c, 0, 67, 100
2, 242304, Note_on_c, 0, 79, 80
2, 242428, Note_off_c, 0, 79, 100
2, 242432, Note_on_c, 0, 67, 80
2, 242556, Note_off_c, 0, 67, 100
2, 242560, Note_on_c, 0, 79, 80
2, 242680, Control_c, 0, 64, 0
2, 242684, Note_off_c, 0, 79, 100
2, 242688, Control_c, 0, 64, 127
2, 242688, Note_on_c, 0, 69, 80
2, 242688, Note_on_c, 0, 66, 80
2, 242688, Note_on_c, 0, 76, 80
2, 242876, Note_off_c, 0, 76, 100
2, 242880, Note_on_c, 0, 74, 80
2, 243068, Note_off_c, 0, 74, 100
2, 243072, Note_on_c, 0, 73, 80
2, 243260, Note_off_c, 0, 73, 100
2, 243264, Note_on_c, 0, 74, 80
2, 243448, Control_c, 0, 64, 0
2, 243452, Note_off_c, 0, 69, 100
2, 243452, Note_off_c, 0, 66, 100
2, 243452, Note_off_c, 0, 74, 100
2, 243456, Note_on_c, 0, 67, 80
2, 243456, Note_on_c, 0, 62, 80
2, 243456, Note_on_c, 0, 71, 80
2, 243836, Note_off_c, 0, 67, 100
2, 243836, Note_off_c, 0, 62, 100
2, 243836, Note_off_c, 0, 71, 100
2, 243840, Note_on_c, 0, 74, 80
2, 244220, Note_off_c, 0, 74, 100
2, 244224, Note_on_c, 0, 69, 80
2, 244224, Note_on_c, 0, 66, 80
2, 244224, Note_on_c, 0, 76, 80
2, 244412, Note_off_c, 0, 76, 100
2, 244416, Note_on_c, 0, 74, 80
2, 244604, Note_off_c, 0, 74, 100
2, 244608, Note_on_c, 0, 73, 80
2, 244796, Note_off_c, 0, 73, 100
2, 244800, Note_on_c, 0, 74, 80
2, 244988, Note_off_c, 0, 69, 100
2, 244988, Note_off_c, 0, 66, 100
2, 244988, Note_off_c, 0, 74, 100
2, 244992, Control_c, 0, 64, 127
2, 244992, Note_on_c, 0, 71, 80
2, 244992, Note_on_c, 0, 67, 80
2, 244992, Note_on_c, 0, 62, 80
2, 245116, Note_off_c, 0, 71, 100
2, 245116, Note_off_c, 0, 67, 100
2, 245116, Note_off_c, 0, 62, 100
2, 245120, Note_on_c, 0, 79, 80
2, 245244, Note_off_c, 0, 79, 100
2, 245308, Note_on_c, 0, 67, 80
2, 245376, Note_on_c, 0, 79, 80
2, 245432, Note_off_c, 0, 67, 100
2, 245500, Note_off_c, 0, 79, 100
2, 245504, Note_on_c, 0, 67, 80
2, 245628, Note_off_c, 0, 67, 100
2, 245632, Note_on_c, 0, 79, 80
2, 245752, Control_c, 0, 64, 0
2, 245756, Note_off_c, 0, 79, 100
2, 245760, Control_c, 0, 64, 127
2, 245760, Note_on_c, 0, 67, 80
2, 245884, Note_off_c, 0, 67, 100
2, 245888, Note_on_c, 0, 79, 80
2, 246012, Note_off_c, 0, 79, 100
2, 246016, Note_on_c, 0, 67, 80
2, 246140, Note_off_c, 0, 67, 100
2, 246144, Note_on_c, 0, 79, 80
2, 246268, Note_off_c, 0, 79, 100
2, 246272, Note_on_c, 0, 67, 80
2, 246396, Note_off_c, 0, 67, 100
2, 246400, Note_on_c, 0, 79, 80
2, 246520, Control_c, 0, 64, 0
2, 246524, Note_off_c, 0, 79, 100
2, 246528, Control_c, 0, 64, 127
2, 246528, Note_on_c, 0, 67, 80
2, 246652, Note_off_c, 0, 67, 100
2, 246656, Note_on_c, 0, 79, 80
2, 246780, Note_off_c, 0, 79, 100
2, 246784, Note_on_c, 0, 67, 80
2, 246908, Note_off_c, 0, 67, 100
2, 246912, Note_on_c, 0, 79, 80
2, 247036, Note_off_c, 0, 79, 100
2, 247040, Note_on_c, 0, 67, 80
2, 247164, Note_off_c, 0, 67, 100
2, 247168, Note_on_c, 0, 79, 80
2, 247288, Control_c, 0, 64, 0
2, 247292, Note_off_c, 0, 79, 100
2, 247296, Control_c, 0, 64, 127
2, 247296, Note_on_c, 0, 67, 80
2, 247420, Note_off_c, 0, 67, 100
2, 247424, Note_on_c, 0, 79, 80
2, 247548, Note_off_c, 0, 79, 100
2, 247552, Note_on_c, 0, 67, 80
2, 247676, Note_off_c, 0, 67, 100
2, 247680, Note_on_c, 0, 79, 80
2, 247804, Note_off_c, 0, 79, 100
2, 247808, Note_on_c, 0, 67, 80
2, 247932, Note_off_c, 0, 67, 100
2, 247936, Note_on_c, 0, 79, 80
2, 248056, Control_c, 0, 64, 0
2, 248060, Note_off_c, 0, 79, 100
2, 248064, Control_c, 0, 64, 127
2, 248064, Note_on_c, 0, 67, 80
2, 248188, Note_off_c, 0, 67, 100
2, 248192, Note_on_c, 0, 79, 80
2, 248316, Note_off_c, 0, 79, 100
2, 248320, Note_on_c, 0, 67, 80
2, 248444, Note_off_c, 0, 67, 100
2, 248448, Note_on_c, 0, 79, 80
2, 248572, Note_off_c, 0, 79, 100
2, 248576, Note_on_c, 0, 67, 80
2, 248700, Note_off_c, 0, 67, 100
2, 248704, Note_on_c, 0, 79, 80
2, 248824, Control_c, 0, 64, 0
2, 248828, Note_off_c, 0, 79, 100
2, 248832, Control_c, 0, 64, 127
2, 248832, Note_on_c, 0, 66, 80
2, 248956, Note_off_c, 0, 66, 100
2, 248960, Note_on_c, 0, 69, 80
2, 249084, Note_off_c, 0, 69, 100
2, 249088, Note_on_c, 0, 74, 80
2, 249212, Note_off_c, 0, 74, 100
2, 249216, Note_on_c, 0, 78, 80
2, 249340, Note_off_c, 0, 78, 100
2, 249344, Note_on_c, 0, 74, 80
2, 249468, Note_off_c, 0, 74, 100
2, 249472, Note_on_c, 0, 69, 80
2, 249592, Control_c, 0, 64, 0
2, 249596, Note_off_c, 0, 69, 100
2, 249600, Control_c, 0, 64, 127
2, 249600, Note_on_c, 0, 67, 80
2, 249724, Note_off_c, 0, 67, 100
2, 249728, Note_on_c, 0, 71, 80
2, 249852, Note_off_c, 0, 71, 100
2, 249856, Note_on_c, 0, 74, 80
2, 249980, Note_off_c, 0, 74, 100
2, 249984, Note_on_c, 0, 79, 80
2, 250108, Note_off_c, 0, 79, 100
2, 250112, Note_on_c, 0, 74, 80
2, 250236, Note_off_c, 0, 74, 100
2, 250240, Note_on_c, 0, 71, 80
2, 250360, Control_c, 0, 64, 0
2, 250364, Note_off_c, 0, 71, 100
2, 250368, Control_c, 0, 64, 127
2, 250368, Note_on_c, 0, 66, 80
2, 250492, Note_off_c, 0, 66, 100
2, 250496, Note_on_c, 0, 69, 80
2, 250620, Note_off_c, 0, 69, 100
2, 250624, Note_on_c, 0, 74, 80
2, 250748, Note_off_c, 0, 74, 100
2, 250752, Note_on_c, 0, 78, 80
2, 250876, Note_off_c, 0, 78, 100
2, 250880, Note_on_c, 0, 74, 80
2, 251004, Note_off_c, 0, 74, 100
2, 251008, Note_on_c, 0, 69, 80
2, 251128, Control_c, 0, 64, 0
2, 251132, Note_off_c, 0, 69, 100
2, 251136, Control_c, 0, 64, 127
2, 251136, Note_on_c, 0, 67, 80
2, 251260, Note_off_c, 0, 67, 100
2, 251264, Note_on_c, 0, 71, 80
2, 251388, Note_off_c, 0, 71, 100
2, 251392, Note_on_c, 0, 74, 80
2, 251516, Note_off_c, 0, 74, 100
2, 251520, Note_on_c, 0, 79, 80
2, 251644, Note_off_c, 0, 79, 100
2, 251648, Note_on_c, 0, 74, 80
2, 251772, Note_off_c, 0, 74, 100
2, 251776, Note_on_c, 0, 71, 80
2, 251896, Control_c, 0, 64, 0
2, 251900, Note_off_c, 0, 71, 100
2, 251904, Control_c, 0, 64, 127
2, 251904, Note_on_c, 0, 84, 80
2, 252092, Note_off_c, 0, 84, 100
2, 252096, Note_on_c, 0, 83, 80
2, 252284, Note_off_c, 0, 83, 100
2, 252288, Note_on_c, 0, 82, 80
2, 252476, Note_off_c, 0, 82, 100
2, 252480, Note_on_c, 0, 83, 80
2, 252664, Control_c, 0, 64, 0
2, 252668, Note_off_c, 0, 83, 100
2, 252672, Note_on_c, 0, 79, 80
2, 253052, Note_off_c, 0, 79, 100
2, 253056, Note_on_c, 0, 83, 80
2, 253436, Note_off_c, 0, 83, 100
2, 253440, Note_on_c, 0, 84, 80
2, 253628, Note_off_c, 0, 84, 100
2, 253632, Note_on_c, 0, 83, 80
2, 253820, Note_off_c, 0, 83, 100
2, 253824, Note_on_c, 0, 82, 80
2, 254012, Note_off_c, 0, 82, 100
2, 254016, Note_on_c, 0, 83, 80
2, 254204, Note_off_c, 0, 83, 100
2, 254208, Control_c, 0, 64, 127
2, 254208, Note_on_c, 0, 79, 80
2, 254588, Note_off_c, 0, 79, 100
2, 254592, Note_on_c, 0, 83, 80
2, 254968, Control_c, 0, 64, 0
2, 254972, Note_off_c, 0, 83, 100
2, 254976, Control_c, 0, 64, 127
2, 254976, Note_on_c, 0, 71, 80
2, 255100, Note_off_c, 0, 71, 100
2, 255104, Note_on_c, 0, 74, 80
2, 255228, Note_off_c, 0, 74, 100
2, 255232, Note_on_c, 0, 79, 80
2, 255356, Note_off_c, 0, 79, 100
2, 255360, Note_on_c, 0, 83, 80
2, 255484, Note_off_c, 0, 83, 100
2, 255488, Note_on_c, 0, 79, 80
2, 255612, Note_off_c, 0, 79, 100
2, 255616, Note_on_c, 0, 74, 80
2, 255736, Control_c, 0, 64, 0
2, 255740, Note_off_c, 0, 74, 100
2, 255744, Control_c, 0, 64, 127
2, 255744, Note_on_c, 0, 72, 80
2, 255868, Note_off_c, 0, 72, 100
2, 255872, Note_on_c, 0, 76, 80
2, 255996, Note_off_c, 0, 76, 100
2, 256000, Note_on_c, 0, 79, 80
2, 256124, Note_off_c, 0, 79, 100
2, 256128, Note_on_c, 0, 84, 80
2, 256252, Note_off_c, 0, 84, 100
2, 256256, Note_on_c, 0, 79, 80
2, 256380, Note_off_c, 0, 79, 100
2, 256384, Note_on_c, 0, 76, 80
2, 256504, Control_c, 0, 64, 0
2, 256508, Note_off_c, 0, 76, 100
2, 256512, Control_c, 0, 64, 127
2, 256512, Note_on_c, 0, 71, 80
2, 256636, Note_off_c, 0, 71, 100
2, 256640, Note_on_c, 0, 74, 80
2, 256764, Note_off_c, 0, 74, 100
2, 256768, Note_on_c, 0, 79, 80
2, 256892, Note_off_c, 0, 79, 100
2, 256896, Note_on_c, 0, 83, 80
2, 257020, Note_off_c, 0, 83, 100
2, 257024, Note_on_c, 0, 79, 80
2, 257148, Note_off_c, 0, 79, 100
2, 257152, Note_on_c, 0, 74, 80
2, 257272, Control_c, 0, 64, 0
2, 257276, Note_off_c, 0, 74, 100
2, 257280, Control_c, 0, 64, 127
2, 257280, Note_on_c, 0, 72, 80
2, 257404, Note_off_c, 0, 72, 100
2, 257408, Note_on_c, 0, 76, 80
2, 257532, Note_off_c, 0, 76, 100
2, 257536, Note_on_c, 0, 79, 80
2, 257660, Note_off_c, 0, 79, 100
2, 257664, Note_on_c, 0, 84, 80
2, 257788, Note_off_c, 0, 84, 100
2, 257792, Note_on_c, 0, 79, 80
2, 257916, Note_off_c, 0, 79, 100
2, 257920, Note_on_c, 0, 76, 80
2, 258040, Control_c, 0, 64, 0
2, 258044, Note_off_c, 0, 76, 100
2, 258048, Control_c, 0, 64, 127
2, 258048, Note_on_c, 0, 89, 80
2, 258236, Note_off_c, 0, 89, 100
2, 258240, Note_on_c, 0, 88, 80
2, 258428, Note_off_c, 0, 88, 100
2, 258432, Note_on_c, 0, 87, 80
2, 258620, Note_off_c, 0, 87, 100
2, 258624, Note_on_c, 0, 88, 80
2, 258808, Control_c, 0, 64, 0
2, 258812, Note_off_c, 0, 88, 100
2, 258816, Note_on_c, 0, 84, 80
2, 259196, Note_off_c, 0, 84, 100
2, 259200, Note_on_c, 0, 88, 80
2, 259580, Note_off_c, 0, 88, 100
2, 259584, Note_on_c, 0, 89, 80
2, 259772, Note_off_c, 0, 89, 100
2, 259776, Note_on_c, 0, 88, 80
2, 259964, Note_off_c, 0, 88, 100
2, 259968, Note_on_c, 0, 87, 80
2, 260156, Note_off_c, 0, 87, 100
2, 260160, Note_on_c, 0, 88, 80
2, 260348, Note_off_c, 0, 88, 100
2, 260352, Note_on_c, 0, 84, 80
2, 260732, Note_off_c, 0, 84, 100
2, 260736, Note_on_c, 0, 88, 80
2, 261116, Note_off_c, 0, 88, 100
2, 261120, Note_on_c, 0, 89, 80
2, 261308, Note_off_c, 0, 89, 100
2, 261312, Note_on_c, 0, 88, 81
2, 261500, Note_off_c, 0, 88, 100
2, 261504, Note_on_c, 0, 87, 81
2, 261692, Note_off_c, 0, 87, 100
2, 261696, Note_on_c, 0, 88, 82
2, 261884, Note_off_c, 0, 88, 100
2, 261888, Note_on_c, 0, 86, 83
2, 262076, Note_off_c, 0, 86, 100
2, 262080, Note_on_c, 0, 84, 84
2, 262268, Note_off_c, 0, 84, 100
2, 262272, Note_on_c, 0, 83, 84
2, 262460, Note_off_c, 0, 83, 100
2, 262464, Note_on_c, 0, 84, 85
2, 262652, Note_off_c, 0, 84, 100
2, 262656, Note_on_c, 0, 83, 86
2, 262844, Note_off_c, 0, 83, 100
2, 262848, Note_on_c, 0, 81, 87
2, 263036, Note_off_c, 0, 81, 100
2, 263040, Note_on_c, 0, 80, 87
2, 263228, Note_off_c, 0, 80, 100
2, 263232, Note_on_c, 0, 81, 88
2, 263420, Note_off_c, 0, 81, 100
2, 263424, Note_on_c, 0, 79, 89
2, 263612, Note_off_c, 0, 79, 100
2, 263616, Note_on_c, 0, 78, 90
2, 263804, Note_off_c, 0, 78, 100
2, 263808, Note_on_c, 0, 77, 90
2, 263996, Note_off_c, 0, 77, 100
2, 264000, Note_on_c, 0, 78, 91
2, 264188, Note_off_c, 0, 78, 100
2, 264192, Note_on_c, 0, 88, 92
2, 264380, Note_off_c, 0, 88, 100
2, 264384, Note_on_c, 0, 86, 93
2, 264572, Note_off_c, 0, 86, 100
2, 264576, Note_on_c, 0, 85, 93
2, 264764, Note_off_c, 0, 85, 100
2, 264768, Note_on_c, 0, 86, 94
2, 264956, Note_off_c, 0, 86, 100
2, 264960, Note_on_c, 0, 84, 95
2, 265148, Note_off_c, 0, 84, 100
2, 265152, Note_on_c, 0, 83, 96
2, 265340, Note_off_c, 0, 83, 100
2, 265344, Note_on_c, 0, 82, 96
2, 265532, Note_off_c, 0, 82, 100
2, 265536, Note_on_c, 0, 83, 97
2, 265724, Note_off_c, 0, 83, 100
2, 265728, Note_on_c, 0, 83, 98
2, 265728, Note_on_c, 0, 76, 98
2, 265728, Note_on_c, 0, 73, 98
2, 265916, Note_off_c, 0, 83, 100
2, 265920, Note_on_c, 0, 81, 99
2, 266108, Note_off_c, 0, 76, 100
2, 266108, Note_off_c, 0, 73, 100
2, 266108, Note_off_c, 0, 81, 100
2, 266112, Note_on_c, 0, 80, 99
2, 266112, Note_on_c, 0, 76, 99
2, 266112, Note_on_c, 0, 73, 99
2, 266300, Note_off_c, 0, 80, 100
2, 266304, Note_on_c, 0, 81, 100
2, 266492, Note_off_c, 0, 76, 100
2, 266492, Note_off_c, 0, 73, 100
2, 266492, Note_off_c, 0, 81, 100
2, 266496, Note_on_c, 0, 83, 101
2, 266496, Note_on_c, 0, 78, 101
2, 266496, Note_on_c, 0, 74, 101
2, 266684, Note_off_c, 0, 83, 100
2, 266688, Note_on_c, 0, 81, 102
2, 266876, Note_off_c, 0, 78, 100
2, 266876, Note_off_c, 0, 74, 100
2, 266876, Note_off_c, 0, 81, 100
2, 266880, Note_on_c, 0, 80, 102
2, 267068, Note_off_c, 0, 80, 100
2, 267072, Note_on_c, 0, 81, 103
2, 267260, Note_off_c, 0, 81, 100
2, 267264, Note_on_c, 0, 88, 104
2, 267452, Note_off_c, 0, 88, 100
2, 267456, Note_on_c, 0, 86, 105
2, 267644, Note_off_c, 0, 86, 100
2, 267648, Note_on_c, 0, 85, 105
2, 267836, Note_off_c, 0, 85, 100
2, 267840, Note_on_c, 0, 86, 106
2, 268028, Note_off_c, 0, 86, 100
2, 268032, Note_on_c, 0, 84, 107
2, 268220, Note_off_c, 0, 84, 100
2, 268224, Note_on_c, 0, 83, 108
2, 268412, Note_off_c, 0, 83, 100
2, 268416, Note_on_c, 0, 82, 108
2, 268604, Note_off_c, 0, 82, 100
2, 268608, Note_on_c, 0, 83, 109
2, 268796, Note_off_c, 0, 83, 100
2, 268800, Note_on_c, 0, 83, 110
2, 268800, Note_on_c, 0, 76, 110
2, 268800, Note_on_c, 0, 73, 110
2, 268988, Note_off_c, 0, 83, 100
2, 268992, Note_on_c, 0, 81, 110
2, 269180, Note_off_c, 0, 76, 100
2, 269180, Note_off_c, 0, 73, 100
2, 269180, Note_off_c, 0, 81, 100
2, 269184, Note_on_c, 0, 80, 110
2, 269184, Note_on_c, 0, 76, 110
2, 269184, Note_on_c, 0, 73, 110
2, 269372, Note_off_c, 0, 80, 100
2, 269376, Note_on_c, 0, 81, 110
2, 269564, Note_off_c, 0, 76, 100
2, 269564, Note_off_c, 0, 73, 100
2, 269564, Note_off_c, 0, 81, 100
2, 269568, Note_on_c, 0, 83, 110
2, 269568, Note_on_c, 0, 78, 110
2, 269568, Note_on_c, 0, 74, 110
2, 269756, Note_off_c, 0, 83, 100
2, 269760, Note_on_c, 0, 81, 110
2, 269948, Note_off_c, 0, 78, 100
2, 269948, Note_off_c, 0, 74, 100
2, 269948, Note_off_c, 0, 81, 100
2, 269952, Note_on_c, 0, 80, 110
2, 270140, Note_off_c, 0, 80, 100
2, 270144, Note_on_c, 0, 81, 110
2, 270332, Note_off_c, 0, 81, 100
2, 270336, Note_on_c, 0, 83, 110
2, 270336, Note_on_c, 0, 76, 110
2, 270336, Note_on_c, 0, 73, 110
2, 270524, Note_off_c, 0, 83, 100
2, 270528, Note_on_c, 0, 81, 110
2, 270716, Note_off_c, 0, 76, 100
2, 270716, Note_off_c, 0, 73, 100
2, 270716, Note_off_c, 0, 81, 100
2, 270720, Note_on_c, 0, 80, 110
2, 270720, Note_on_c, 0, 76, 110
2, 270720, Note_on_c, 0, 73, 110
2, 270908, Note_off_c, 0, 80, 100
2, 270912, Note_on_c, 0, 81, 110
2, 271100, Note_off_c, 0, 76, 100
2, 271100, Note_off_c, 0, 73, 100
2, 271100, Note_off_c, 0, 81, 100
2, 271104, Note_on_c, 0, 83, 110
2, 271104, Note_on_c, 0, 78, 110
2, 271104, Note_on_c, 0, 74, 110
2, 271292, Note_off_c, 0, 83, 100
2, 271296, Note_on_c, 0, 81, 110
2, 271484, Note_off_c, 0, 78, 100
2, 271484, Note_off_c, 0, 74, 100
2, 271484, Note_off_c, 0, 81, 100
2, 271488, Note_on_c, 0, 80, 110
2, 271676, Note_off_c, 0, 80, 100
2, 271680, Note_on_c, 0, 81, 110
2, 271868, Note_off_c, 0, 81, 100
2, 271872, Note_on_c, 0, 83, 110
2, 271872, Note_on_c, 0, 76, 110
2, 271872, Note_on_c, 0, 73, 110
2, 272060, Note_off_c, 0, 83, 100
2, 272064, Note_on_c, 0, 81, 110
2, 272252, Note_off_c, 0, 76, 100
2, 272252, Note_off_c, 0, 73, 100
2, 272252, Note_off_c, 0, 81, 100
2, 272256, Note_on_c, 0, 80, 110
2, 272256, Note_on_c, 0, 76, 110
2, 272256, Note_on_c, 0, 73, 110
2, 272444, Note_off_c, 0, 80, 100
2, 272448, Note_on_c, 0, 81, 110
2, 272636, Note_off_c, 0, 76, 100
2, 272636, Note_off_c, 0, 73, 100
2, 272636, Note_off_c, 0, 81, 100
2, 272640, Control_c, 0, 64, 127
2, 272640, Note_on_c, 0, 74, 110
2, 273020, Note_off_c, 0, 74, 100
2, 273400, Control_c, 0, 64, 0
2, 273408, Control_c, 0, 64, 127
2, 273536, Note_on_c, 0, 74, 80
2, 273660, Note_off_c, 0, 74, 100
2, 273664, Note_on_c, 0, 76, 80
2, 273788, Note_off_c, 0, 76, 100
2, 273792, Note_on_c, 0, 78, 80
2, 273916, Note_off_c, 0, 78, 100
2, 273920, Note_on_c, 0, 76, 80
2, 274044, Note_off_c, 0, 76, 100
2, 274048, Note_on_c, 0, 74, 80
2, 274168, Control_c, 0, 64, 0
2, 274172, Note_off_c, 0, 74, 100
2, 274176, Control_c, 0, 64, 127
2, 274304, Note_on_c, 0, 79, 80
2, 274428, Note_off_c, 0, 79, 100
2, 274432, Note_on_c, 0, 81, 80
2, 274556, Note_off_c, 0, 81, 100
2, 274560, Note_on_c, 0, 83, 80
2, 274684, Note_off_c, 0, 83, 100
2, 274688, Note_on_c, 0, 81, 80
2, 274812, Note_off_c, 0, 81, 100
2, 274816, Note_on_c, 0, 79, 80
2, 274936, Control_c, 0, 64, 0
2, 274940, Note_off_c, 0, 79, 100
2, 274944, Control_c, 0, 64, 127
2, 275072, Note_on_c, 0, 74, 80
2, 275196, Note_off_c, 0, 74, 100
2, 275200, Note_on_c, 0, 76, 80
2, 275324, Note_off_c, 0, 76, 100
2, 275328, Note_on_c, 0, 78, 80
2, 275452, Note_off_c, 0, 78, 100
2, 275456, Note_on_c, 0, 76, 80
2, 275580, Note_off_c, 0, 76, 100
2, 275584, Note_on_c, 0, 74, 80
2, 275704, Control_c, 0, 64, 0
2, 275708, Note_off_c, 0, 74, 100
2, 275712, Control_c, 0, 64, 127
2, 275840, Note_on_c, 0, 79, 80
2, 275964, Note_off_c, 0, 79, 100
2, 275968, Note_on_c, 0, 81, 80
2, 276092, Note_off_c, 0, 81, 100
2, 276096, Note_on_c, 0, 83, 80
2, 276220, Note_off_c, 0, 83, 100
2, 276224, Note_on_c, 0, 81, 80
2, 276348, Note_off_c, 0, 81, 100
2, 276352, Note_on_c, 0, 79, 80
2, 276472, Control_c, 0, 64, 0
2, 276476, Note_off_c, 0, 79, 100
2, 276480, Control_c, 0, 64, 127
2, 276608, Note_on_c, 0, 74, 80
2, 276732, Note_off_c, 0, 74, 100
2, 276736, Note_on_c, 0, 76, 80
2, 276860, Note_off_c, 0, 76, 100
2, 276864, Note_on_c, 0, 78, 80
2, 276988, Note_off_c, 0, 78, 100
2, 276992, Note_on_c, 0, 76, 80
2, 277116, Note_off_c, 0, 76, 100
2, 277120, Note_on_c, 0, 74, 80
2, 277240, Control_c, 0, 64, 0
2, 277244, Note_off_c, 0, 74, 100
2, 277248, Control_c, 0, 64, 127
2, 277376, Note_on_c, 0, 79, 80
2, 277500, Note_off_c, 0, 79, 100
2, 277504, Note_on_c, 0, 81, 80
2, 277628, Note_off_c, 0, 81, 100
2, 277632, Note_on_c, 0, 83, 80
2, 277756, Note_off_c, 0, 83, 100
2, 277760, Note_on_c, 0, 81, 80
2, 277884, Note_off_c, 0, 81, 100
2, 277888, Note_on_c, 0, 79, 80
2, 278008, Control_c, 0, 64, 0
2, 278012, Note_off_c, 0, 79, 100
2, 278016, Control_c, 0, 64, 127
2, 278016, Note_on_c, 0, 84, 80
2, 278140, Note_off_c, 0, 84, 100
2, 278144, Note_on_c, 0, 81, 80
2, 278268, Note_off_c, 0, 81, 100
2, 278272, Note_on_c, 0, 78, 80
2, 278396, Note_off_c, 0, 78, 100
2, 278400, Note_on_c, 0, 72, 80
2, 278524, Note_off_c, 0, 72, 100
2, 278528, Note_on_c, 0, 69, 80
2, 278652, Note_off_c, 0, 69, 100
2, 278656, Note_on_c, 0, 66, 80
2, 278776, Control_c, 0, 64, 0
2, 278780, Note_off_c, 0, 66, 100
2, 278784, Control_c, 0, 64, 127
2, 278784, Note_on_c, 0, 67, 80
2, 278908, Note_off_c, 0, 67, 100
2, 278912, Note_on_c, 0, 71, 80
2, 279036, Note_off_c, 0, 71, 100
2, 279040, Note_on_c, 0, 67, 80
2, 279164, Note_off_c, 0, 67, 100
2, 279168, Note_on_c, 0, 62, 80
2, 279292, Note_off_c, 0, 62, 100
2, 279296, Note_on_c, 0, 59, 80
2, 279420, Note_off_c, 0, 59, 100
2, 279424, Note_on_c, 0, 67, 80
2, 279544, Control_c, 0, 64, 0
2, 279548, Note_off_c, 0, 67, 100
2, 279552, Control_c, 0, 64, 127
2, 279680, Note_on_c, 0, 62, 80
2, 279804, Note_off_c, 0, 62, 100
2, 279808, Note_on_c, 0, 64, 80
2, 279932, Note_off_c, 0, 64, 100
2, 279936, Note_on_c, 0, 66, 80
2, 280060, Note_off_c, 0, 66, 100
2, 280064, Note_on_c, 0, 64, 80
2, 280188, Note_off_c, 0, 64, 100
2, 280192, Note_on_c, 0, 62, 80
2, 280312, Control_c, 0, 64, 0
2, 280316, Note_off_c, 0, 62, 100
2, 280320, Control_c, 0, 64, 127
2, 280448, Note_on_c, 0, 67, 80
2, 280572, Note_off_c, 0, 67, 100
2, 280576, Note_on_c, 0, 69, 80
2, 280700, Note_off_c, 0, 69, 100
2, 280704, Note_on_c, 0, 71, 80
2, 280828, Note_off_c, 0, 71, 100
2, 280832, Note_on_c, 0, 69, 80
2, 280956, Note_off_c, 0, 69, 100
2, 280960, Note_on_c, 0, 67, 80
2, 281080, Control_c, 0, 64, 0
2, 281084, Note_off_c, 0, 67, 100
2, 281088, Control_c, 0, 64, 127
2, 281088, Note_on_c, 0, 72, 80
2, 281212, Note_off_c, 0, 72, 100
2, 281216, Note_on_c, 0, 69, 80
2, 281340, Note_off_c, 0, 69, 100
2, 281344, Note_on_c, 0, 66, 80
2, 281468, Note_off_c, 0, 66, 100
2, 281472, Note_on_c, 0, 60, 80
2, 281596, Note_off_c, 0, 60, 100
2, 281600, Note_on_c, 0, 57, 80
2, 281724, Note_off_c, 0, 57, 100
2, 281728, Note_on_c, 0, 54, 80
2, 281848, Control_c, 0, 64, 0
2, 281852, Note_off_c, 0, 54, 100
2, 281856, Control_c, 0, 64, 127
2, 281856, Note_on_c, 0, 55, 80
2, 281980, Note_off_c, 0, 55, 100
2, 281984, Note_on_c, 0, 59, 80
2, 282108, Note_off_c, 0, 59, 100
2, 282112, Note_on_c, 0, 55, 80
2, 282236, Note_off_c, 0, 55, 100
2, 282240, Note_on_c, 0, 50, 80
2, 282364, Note_off_c, 0, 50, 100
2, 282368, Note_on_c, 0, 47, 80
2, 282492, Note_off_c, 0, 47, 100
2, 282496, Note_on_c, 0, 55, 80
2, 282616, Control_c, 0, 64, 0
2, 282620, Note_off_c, 0, 55, 100
2, 282624, Control_c, 0, 64, 127
2, 282752, Note_on_c, 0, 50, 80
2, 282876, Note_off_c, 0, 50, 100
2, 282880, Note_on_c, 0, 52, 80
2, 283004, Note_off_c, 0, 52, 100
2, 283008, Note_on_c, 0, 54, 80
2, 283132, Note_off_c, 0, 54, 100
2, 283136, Note_on_c, 0, 52, 80
2, 283260, Note_off_c, 0, 52, 100
2, 283264, Note_on_c, 0, 50, 80
2, 283384, Control_c, 0, 64, 0
2, 283388, Note_off_c, 0, 50, 100
2, 283392, Control_c, 0, 64, 127
2, 283520, Note_on_c, 0, 55, 80
2, 283644, Note_off_c, 0, 55, 100
2, 283648, Note_on_c, 0, 57, 80
2, 283772, Note_off_c, 0, 57, 100
2, 283776, Note_on_c, 0, 59, 80
2, 283900, Note_off_c, 0, 59, 100
2, 283904, Note_on_c, 0, 57, 80
2, 284028, Note_off_c, 0, 57, 100
2, 284032, Note_on_c, 0, 55, 80
2, 284152, Control_c, 0, 64, 0
2, 284156, Note_off_c, 0, 55, 100
2, 284160, Control_c, 0, 64, 127
2, 284160, Note_on_c, 0, 60, 80
2, 284284, Note_off_c, 0, 60, 100
2, 284288, Note_on_c, 0, 57, 80
2, 284412, Note_off_c, 0, 57, 100
2, 284416, Note_on_c, 0, 54, 80
2, 284540, Note_off_c, 0, 54, 100
2, 284544, Note_on_c, 0, 48, 80
2, 284668, Note_off_c, 0, 48, 100
2, 284672, Note_on_c, 0, 45, 80
2, 284796, Note_off_c, 0, 45, 100
2, 284800, Note_on_c, 0, 42, 80
2, 284920, Control_c, 0, 64, 0
2, 284924, Note_off_c, 0, 42, 100
2, 284928, Control_c, 0, 64, 127
2, 284928, Note_on_c, 0, 43, 80
2, 285052, Note_off_c, 0, 43, 100
2, 285056, Note_on_c, 0, 47, 80
2, 285180, Note_off_c, 0, 47, 100
2, 285184, Note_on_c, 0, 50, 80
2, 285308, Note_off_c, 0, 50, 100
2, 285312, Note_on_c, 0, 55, 80
2, 285436, Note_off_c, 0, 55, 100
2, 285440, Note_on_c, 0, 59, 80
2, 285564, Note_off_c, 0, 59, 100
2, 285568, Note_on_c, 0, 62, 80
2, 285688, Control_c, 0, 64, 0
2, 285692, Note_off_c, 0, 62, 100
2, 285696, Control_c, 0, 64, 127
2, 285696, Note_on_c, 0, 60, 80
2, 285820, Note_off_c, 0, 60, 100
2, 285824, Note_on_c, 0, 57, 80
2, 285948, Note_off_c, 0, 57, 100
2, 285952, Note_on_c, 0, 54, 80
2, 286076, Note_off_c, 0, 54, 100
2, 286080, Note_on_c, 0, 48, 80
2, 286204, Note_off_c, 0, 48, 100
2, 286208, Note_on_c, 0, 45, 80
2, 286332, Note_off_c, 0, 45, 100
2, 286336, Note_on_c, 0, 42, 80
2, 286456, Control_c, 0, 64, 0
2, 286460, Note_off_c, 0, 42, 100
2, 286464, Control_c, 0, 64, 127
2, 286464, Note_on_c, 0, 43, 80
2, 286588, Note_off_c, 0, 43, 100
2, 286592, Note_on_c, 0, 47, 80
2, 286716, Note_off_c, 0, 47, 100
2, 286720, Note_on_c, 0, 50, 80
2, 286844, Note_off_c, 0, 50, 100
2, 286848, Note_on_c, 0, 55, 80
2, 286972, Note_off_c, 0, 55, 100
2, 286976, Note_on_c, 0, 59, 80
2, 287100, Note_off_c, 0, 59, 100
2, 287104, Note_on_c, 0, 62, 80
2, 287224, Control_c, 0, 64, 0
2, 287228, Note_off_c, 0, 62, 100
2, 287232, Control_c, 0, 64, 127
2, 287232, Note_on_c, 0, 60, 80
2, 287356, Note_off_c, 0, 60, 100
2, 287360, Note_on_c, 0, 57, 80
2, 287484, Note_off_c, 0, 57, 100
2, 287488, Note_on_c, 0, 54, 80
2, 287612, Note_off_c, 0, 54, 100
2, 287616, Note_on_c, 0, 48, 80
2, 287740, Note_off_c, 0, 48, 100
2, 287744, Note_on_c, 0, 45, 80
2, 287868, Note_off_c, 0, 45, 100
2, 287872, Note_on_c, 0, 42, 80
2, 287992, Control_c, 0, 64, 0
2, 287996, Note_off_c, 0, 42, 100
2, 288000, Control_c, 0, 64, 127
2, 288000, Note_on_c, 0, 43, 80
2, 288124, Note_off_c, 0, 43, 100
2, 288128, Note_on_c, 0, 59, 80
2, 288252, Note_off_c, 0, 59, 100
2, 288256, Note_on_c, 0, 55, 80
2, 288380, Note_off_c, 0, 55, 100
2, 288384, Note_on_c, 0, 50, 80
2, 288508, Note_off_c, 0, 50, 100
2, 288512, Note_on_c, 0, 47, 80
2, 288636, Note_off_c, 0, 47, 100
2, 288640, Note_on_c, 0, 59, 80
2, 288760, Control_c, 0, 64, 0
2, 288764, Note_off_c, 0, 59, 100
2, 288768, Control_c, 0, 64, 127
2, 288768, Note_on_c, 0, 50, 80
2, 288892, Note_off_c, 0, 50, 100
2, 288896, Note_on_c, 0, 62, 80
2, 289020, Note_off_c, 0, 62, 100
2, 289024, Note_on_c, 0, 59, 80
2, 289148, Note_off_c, 0, 59, 100
2, 289152, Note_on_c, 0, 55, 80
2, 289276, Note_off_c, 0, 55, 100
2, 289280, Note_on_c, 0, 50, 80
2, 289404, Note_off_c, 0, 50, 100
2, 289408, Note_on_c, 0, 62, 80
2, 289528, Control_c, 0, 64, 0
2, 289532, Note_off_c, 0, 62, 100
2, 289536, Control_c, 0, 64, 127
2, 289536, Note_on_c, 0, 55, 80
2, 289660, Note_off_c, 0, 55, 100
2, 289664, Note_on_c, 0, 67, 80
2, 289788, Note_off_c, 0, 67, 100
2, 289792, Note_on_c, 0, 62, 80
2, 289916, Note_off_c, 0, 62, 100
2, 289920, Note_on_c, 0, 59, 80
2, 290044, Note_off_c, 0, 59, 100
2, 290048, Note_on_c, 0, 55, 80
2, 290172, Note_off_c, 0, 55, 100
2, 290176, Note_on_c, 0, 67, 80
2, 290296, Control_c, 0, 64, 0
2, 290300, Note_off_c, 0, 67, 100
2, 290304, Control_c, 0, 64, 127
2, 290304, Note_on_c, 0, 59, 80
2, 290428, Note_off_c, 0, 59, 100
2, 290432, Note_on_c, 0, 71, 80
2, 290556, Note_off_c, 0, 71, 100
2, 290560, Note_on_c, 0, 67, 80
2, 290684, Note_off_c, 0, 67, 100
2, 290688, Note_on_c, 0, 62, 80
2, 290812, Note_off_c, 0, 62, 100
2, 290816, Note_on_c, 0, 74, 80
2, 290940, Note_off_c, 0, 74, 100
2, 290944, Note_on_c, 0, 71, 80
2, 291064, Control_c, 0, 64, 0
2, 291068, Note_off_c, 0, 71, 100
2, 291072, Control_c, 0, 64, 127
2, 291072, Note_on_c, 0, 67, 80
2, 291196, Note_off_c, 0, 67, 100
2, 291200, Note_on_c, 0, 79, 81
2, 291324, Note_off_c, 0, 79, 100
2, 291328, Note_on_c, 0, 67, 82
2, 291452, Note_off_c, 0, 67, 100
2, 291456, Note_on_c, 0, 79, 83
2, 291580, Note_off_c, 0, 79, 100
2, 291584, Note_on_c, 0, 67, 85
2, 291708, Note_off_c, 0, 67, 100
2, 291712, Note_on_c, 0, 79, 86
2, 291832, Control_c, 0, 64, 0
2, 291836, Note_off_c, 0, 79, 100
2, 291840, Control_c, 0, 64, 127
2, 291840, Note_on_c, 0, 67, 87
2, 291964, Note_off_c, 0, 67, 100
2, 291968, Note_on_c, 0, 79, 88
2, 292092, Note_off_c, 0, 79, 100
2, 292096, Note_on_c, 0, 67, 90
2, 292220, Note_off_c, 0, 67, 100
2, 292224, Note_on_c, 0, 79, 91
2, 292348, Note_off_c, 0, 79, 100
2, 292352, Note_on_c, 0, 67, 92
2, 292476, Note_off_c, 0, 67, 100
2, 292480, Note_on_c, 0, 79, 93
2, 292600, Control_c, 0, 64, 0
2, 292604, Note_off_c, 0, 79, 100
2, 292608, Control_c, 0, 64, 127
2, 292608, Note_on_c, 0, 67, 95
2, 292732, Note_off_c, 0, 67, 100
2, 292736, Note_on_c, 0, 79, 96
2, 292860, Note_off_c, 0, 79, 100
2, 292864, Note_on_c, 0, 67, 97
2, 292988, Note_off_c, 0, 67, 100
2, 292992, Note_on_c, 0, 79, 98
2, 293116, Note_off_c, 0, 79, 100
2, 293120, Note_on_c, 0, 67, 100
2, 293244, Note_off_c, 0, 67, 100
2, 293248, Note_on_c, 0, 79, 101
2, 293368, Control_c, 0, 64, 0
2, 293372, Note_off_c, 0, 79, 100
2, 293376, Control_c, 0, 64, 127
2, 293376, Note_on_c, 0, 67, 102
2, 293500, Note_off_c, 0, 67, 100
2, 293504, Note_on_c, 0, 79, 103
2, 293628, Note_off_c, 0, 79, 100
2, 293632, Note_on_c, 0, 67, 105
2, 293756, Note_off_c, 0, 67, 100
2, 293760, Note_on_c, 0, 79, 106
2, 293884, Note_off_c, 0, 79, 100
2, 293888, Note_on_c, 0, 67, 107
2, 294012, Note_off_c, 0, 67, 100
2, 294016, Note_on_c, 0, 79, 108
2, 294136, Control_c, 0, 64, 0
2, 294140, Note_off_c, 0, 79, 100
2, 294144, Control_c, 0, 64, 127
2, 294144, Note_on_c, 0, 67, 110
2, 294268, Note_off_c, 0, 67, 100
2, 294272, Note_on_c, 0, 79, 110
2, 294396, Note_off_c, 0, 79, 100
2, 294400, Note_on_c, 0, 67, 110
2, 294524, Note_off_c, 0, 67, 100
2, 294528, Note_on_c, 0, 79, 110
2, 294652, Note_off_c, 0, 79, 100
2, 294656, Note_on_c, 0, 67, 110
2, 294780, Note_off_c, 0, 67, 100
2, 294784, Note_on_c, 0, 79, 110
2, 294904, Control_c, 0, 64, 0
2, 294908, Note_off_c, 0, 79, 100
2, 294912, Control_c, 0, 64, 127
2, 294912, Note_on_c, 0, 76, 110
2, 295036, Note_off_c, 0, 76, 100
2, 295040, Note_on_c, 0, 78, 110
2, 295164, Note_off_c, 0, 78, 100
2, 295168, Note_on_c, 0, 79, 110
2, 295292, Note_off_c, 0, 79, 100
2, 295296, Note_on_c, 0, 72, 110
2, 295420, Note_off_c, 0, 72, 100
2, 295424, Note_on_c, 0, 74, 110
2, 295548, Note_off_c, 0, 74, 100
2, 295552, Note_on_c, 0, 76, 110
2, 295672, Control_c, 0, 64, 0
2, 295676, Note_off_c, 0, 76, 100
2, 295680, Control_c, 0, 64, 127
2, 295680, Note_on_c, 0, 69, 110
2, 295804, Note_off_c, 0, 69, 100
2, 295808, Note_on_c, 0, 71, 108
2, 295932, Note_off_c, 0, 71, 100
2, 295936, Note_on_c, 0, 72, 105
2, 296060, Note_off_c, 0, 72, 100
2, 296064, Note_on_c, 0, 64, 103
2, 296188, Note_off_c, 0, 64, 100
2, 296192, Note_on_c, 0, 71, 100
2, 296316, Note_off_c, 0, 71, 100
2, 296320, Note_on_c, 0, 69, 98
2, 296440, Control_c, 0, 64, 0
2, 296444, Note_off_c, 0, 69, 100
2, 296448, Control_c, 0, 64, 127
2, 296448, Note_on_c, 0, 62, 95
2, 296572, Note_off_c, 0, 62, 100
2, 296576, Note_on_c, 0, 69, 93
2, 296700, Note_off_c, 0, 69, 100
2, 296704, Note_on_c, 0, 67, 90
2, 296828, Note_off_c, 0, 67, 100
2, 296832, Note_on_c, 0, 60, 88
2, 296956, Note_off_c, 0, 60, 100
2, 296960, Note_on_c, 0, 67, 85
2, 297084, Note_off_c, 0, 67, 100
2, 297088, Note_on_c, 0, 66, 83
2, 297208, Control_c, 0, 64, 0
2, 297212, Note_off_c, 0, 66, 100
2, 297216, Control_c, 0, 64, 127
2, 297216, Note_on_c, 0, 67, 80
2, 297340, Note_off_c, 0, 67, 100
2, 297344, Note_on_c, 0, 79, 80
2, 297468, Note_off_c, 0, 79, 100
2, 297472, Note_on_c, 0, 67, 80
2, 297596, Note_off_c, 0, 67, 100
2, 297600, Note_on_c, 0, 79, 81
2, 297724, Note_off_c, 0, 79, 100
2, 297728, Note_on_c, 0, 67, 81
2, 297852, Note_off_c, 0, 67, 100
2, 297856, Note_on_c, 0, 79, 82
2, 297976, Control_c, 0, 64, 0
2, 297980, Note_off_c, 0, 79, 100
2, 297984, Control_c, 0, 64, 127
2, 297984, Note_on_c, 0, 67, 82
2, 298108, Note_off_c, 0, 67, 100
2, 298112, Note_on_c, 0, 79, 82
2, 298236, Note_off_c, 0, 79, 100
2, 298240, Note_on_c, 0, 67, 83
2, 298364, Note_off_c, 0, 67, 100
2, 298368, Note_on_c, 0, 79, 83
2, 298492, Note_off_c, 0, 79, 100
2, 298496, Note_on_c, 0, 67, 84
2, 298620, Note_off_c, 0, 67, 100
2, 298624, Note_on_c, 0, 79, 84
2, 298744, Control_c, 0, 64, 0
2, 298748, Note_off_c, 0, 79, 100
2, 298752, Control_c, 0, 64, 127
2, 298752, Note_on_c, 0, 67, 85
2, 298876, Note_off_c, 0, 67, 100
2, 298880, Note_on_c, 0, 79, 85
2, 299004, Note_off_c, 0, 79, 100
2, 299008, Note_on_c, 0, 67, 85
2, 299132, Note_off_c, 0, 67, 100
2, 299136, Note_on_c, 0, 79, 86
2, 299260, Note_off_c, 0, 79, 100
2, 299264, Note_on_c, 0, 67, 86
2, 299388, Note_off_c, 0, 67, 100
2, 299392, Note_on_c, 0, 79, 87
2, 299512, Control_c, 0, 64, 0
2, 299516, Note_off_c, 0, 79, 100
2, 299520, Control_c, 0, 64, 127
2, 299520, Note_on_c, 0, 67, 87
2, 299644, Note_off_c, 0, 67, 100
2, 299648, Note_on_c, 0, 79, 87
2, 299772, Note_off_c, 0, 79, 100
2, 299776, Note_on_c, 0, 67, 88
2, 299900, Note_off_c, 0, 67, 100
2, 299904, Note_on_c, 0, 79, 88
2, 300028, Note_off_c, 0, 79, 100
2, 300032, Note_on_c, 0, 67, 89
2, 300156, Note_off_c, 0, 67, 100
2, 300160, Note_on_c, 0, 79, 89
2, 300280, Control_c, 0, 64, 0
2, 300284, Note_off_c, 0, 79, 100
2, 300288, Control_c, 0, 64, 127
2, 300288, Note_on_c, 0, 67, 90
2, 300412, Note_off_c, 0, 67, 100
2, 300416, Note_on_c, 0, 79, 90
2, 300540, Note_off_c, 0, 79, 100
2, 300544, Note_on_c, 0, 67, 90
2, 300668, Note_off_c, 0, 67, 100
2, 300672, Note_on_c, 0, 79, 91
2, 300796, Note_off_c, 0, 79, 100
2, 300800, Note_on_c, 0, 67, 91
2, 300924, Note_off_c, 0, 67, 100
2, 300928, Note_on_c, 0, 79, 92
2, 301048, Control_c, 0, 64, 0
2, 301052, Note_off_c, 0, 79, 100
2, 301056, Control_c, 0, 64, 127
2, 301056, Note_on_c, 0, 67, 92
2, 301180, Note_off_c, 0, 67, 100
2, 301184, Note_on_c, 0, 79, 92
2, 301308, Note_off_c, 0, 79, 100
2, 301312, Note_on_c, 0, 67, 93
2, 301436, Note_off_c, 0, 67, 100
2, 301440, Note_on_c, 0, 79, 93
2, 301564, Note_off_c, 0, 79, 100
2, 301568, Note_on_c, 0, 67, 94
2, 301692, Note_off_c, 0, 67, 100
2, 301696, Note_on_c, 0, 79, 94
2, 301816, Control_c, 0, 64, 0
2, 301820, Note_off_c, 0, 79, 100
2, 301824, Control_c, 0, 64, 127
2, 301824, Note_on_c, 0, 67, 95
2, 301948, Note_off_c, 0, 67, 100
2, 301952, Note_on_c, 0, 79, 95
2, 302076, Note_off_c, 0, 79, 100
2, 302080, Note_on_c, 0, 67, 95
2, 302204, Note_off_c, 0, 67, 100
2, 302208, Note_on_c, 0, 79, 96
2, 302332, Note_off_c, 0, 79, 100
2, 302336, Note_on_c, 0, 67, 96
2, 302460, Note_off_c, 0, 67, 100
2, 302464, Note_on_c, 0, 79, 97
2, 302584, Control_c, 0, 64, 0
2, 302588, Note_off_c, 0, 79, 100
2, 302592, Control_c, 0, 64, 127
2, 302592, Note_on_c, 0, 67, 97
2, 302716, Note_off_c, 0, 67, 100
2, 302720, Note_on_c, 0, 79, 97
2, 302844, Note_off_c, 0, 79, 100
2, 302848, Note_on_c, 0, 67, 98
2, 302972, Note_off_c, 0, 67, 100
2, 302976, Note_on_c, 0, 79, 98
2, 303100, Note_off_c, 0, 79, 100
2, 303104, Note_on_c, 0, 67, 99
2, 303228, Note_off_c, 0, 67, 100
2, 303232, Note_on_c, 0, 79, 99
2, 303352, Control_c, 0, 64, 0
2, 303356, Note_off_c, 0, 79, 100
2, 303360, Control_c, 0, 64, 127
2, 303360, Note_on_c, 0, 67, 100
2, 303484, Note_off_c, 0, 67, 100
2, 303488, Note_on_c, 0, 79, 100
2, 303612, Note_off_c, 0, 79, 100
2, 303616, Note_on_c, 0, 67, 100
2, 303740, Note_off_c, 0, 67, 100
2, 303744, Note_on_c, 0, 79, 101
2, 303868, Note_off_c, 0, 79, 100
2, 303872, Note_on_c, 0, 67, 101
2, 303996, Note_off_c, 0, 67, 100
2, 304000, Note_on_c, 0, 79, 102
2, 304120, Control_c, 0, 64, 0
2, 304124, Note_off_c, 0, 79, 100
2, 304128, Control_c, 0, 64, 127
2, 304128, Note_on_c, 0, 67, 102
2, 304252, Note_off_c, 0, 67, 100
2, 304256, Note_on_c, 0, 79, 102
2, 304380, Note_off_c, 0, 79, 100
2, 304384, Note_on_c, 0, 67, 103
2, 304508, Note_off_c, 0, 67, 100
2, 304512, Note_on_c, 0, 79, 103
2, 304636, Note_off_c, 0, 79, 100
2, 304640, Note_on_c, 0, 67, 104
2, 304764, Note_off_c, 0, 67, 100
2, 304768, Note_on_c, 0, 79, 104
2, 304888, Control_c, 0, 64, 0
2, 304892, Note_off_c, 0, 79, 100
2, 304896, Control_c, 0, 64, 127
2, 304896, Note_on_c, 0, 67, 105
2, 305020, Note_off_c, 0, 67, 100
2, 305024, Note_on_c, 0, 79, 105
2, 305148, Note_off_c, 0, 79, 100
2, 305152, Note_on_c, 0, 67, 105
2, 305276, Note_off_c, 0, 67, 100
2, 305280, Note_on_c, 0, 79, 106
2, 305404, Note_off_c, 0, 79, 100
2, 305408, Note_on_c, 0, 67, 106
2, 305532, Note_off_c, 0, 67, 100
2, 305536, Note_on_c, 0, 79, 107
2, 305656, Control_c, 0, 64, 0
2, 305660, Note_off_c, 0, 79, 100
2, 305664, Control_c, 0, 64, 127
2, 305664, Note_on_c, 0, 67, 107
2, 305788, Note_off_c, 0, 67, 100
2, 305792, Note_on_c, 0, 79, 107
2, 305916, Note_off_c, 0, 79, 100
2, 305920, Note_on_c, 0, 67, 108
2, 306044, Note_off_c, 0, 67, 100
2, 306048, Note_on_c, 0, 79, 108
2, 306172, Note_off_c, 0, 79, 100
2, 306176, Note_on_c, 0, 67, 109
2, 306300, Note_off_c, 0, 67, 100
2, 306304, Note_on_c, 0, 79, 109
2, 306424, Control_c, 0, 64, 0
2, 306428, Note_off_c, 0, 79, 100
2, 306432, Control_c, 0, 64, 127
2, 306432, Note_on_c, 0, 67, 100
2, 306556, Note_off_c, 0, 67, 100
2, 306560, Note_on_c, 0, 79, 100
2, 306684, Note_off_c, 0, 79, 100
2, 306688, Note_on_c, 0, 67, 100
2, 306812, Note_off_c, 0, 67, 100
2, 306816, Note_on_c, 0, 79, 99
2, 306940, Note_off_c, 0, 79, 100
2, 306944, Note_on_c, 0, 67, 99
2, 307068, Note_off_c, 0, 67, 100
2, 307072, Note_on_c, 0, 79, 99
2, 307192, Control_c, 0, 64, 0
2, 307196, Note_off_c, 0, 79, 100
2, 307200, Control_c, 0, 64, 127
2, 307200, Note_on_c, 0, 67, 98
2, 307324, Note_off_c, 0, 67, 100
2, 307328, Note_on_c, 0, 79, 98
2, 307452, Note_off_c, 0, 79, 100
2, 307456, Note_on_c, 0, 67, 97
2, 307580, Note_off_c, 0, 67, 100
2, 307584, Note_on_c, 0, 79, 97
2, 307708, Note_off_c, 0, 79, 100
2, 307712, Note_on_c, 0, 67, 97
2, 307836, Note_off_c, 0, 67, 100
2, 307840, Note_on_c, 0, 79, 96
2, 307960, Control_c, 0, 64, 0
2, 307964, Note_off_c, 0, 79, 100
2, 307968, Control_c, 0, 64, 127
2, 307968, Note_on_c, 0, 67, 96
2, 308092, Note_off_c, 0, 67, 100
2, 308096, Note_on_c, 0, 79, 96
2, 308220, Note_off_c, 0, 79, 100
2, 308224, Note_on_c, 0, 67, 95
2, 308348, Note_off_c, 0, 67, 100
2, 308352, Note_on_c, 0, 79, 95
2, 308476, Note_off_c, 0, 79, 100
2, 308480, Note_on_c, 0, 73, 94
2, 308604, Note_off_c, 0, 73, 100
2, 308608, Note_on_c, 0, 70, 94
2, 308728, Control_c, 0, 64, 0
2, 308732, Note_off_c, 0, 70, 100
2, 308736, Control_c, 0, 64, 127
2, 308736, Note_on_c, 0, 79, 94
2, 308860, Note_off_c, 0, 79, 100
2, 308864, Note_on_c, 0, 74, 93
2, 308988, Note_off_c, 0, 74, 100
2, 308992, Note_on_c, 0, 71, 93
2, 309116, Note_off_c, 0, 71, 100
2, 309120, Note_on_c, 0, 79, 92
2, 309244, Note_off_c, 0, 79, 100
2, 309248, Note_on_c, 0, 76, 92
2, 309372, Note_off_c, 0, 76, 100
2, 309376, Note_on_c, 0, 70, 92
2, 309496, Control_c, 0, 64, 0
2, 309500, Note_off_c, 0, 70, 100
2, 309504, Control_c, 0, 64, 127
2, 309504, Note_on_c, 0, 79, 91
2, 309628, Note_off_c, 0, 79, 100
2, 309632, Note_on_c, 0, 74, 91
2, 309756, Note_off_c, 0, 74, 100
2, 309760, Note_on_c, 0, 71, 91
2, 309884, Note_off_c, 0, 71, 100
2, 309888, Note_on_c, 0, 79, 80
2, 310012, Note_off_c, 0, 79, 100
2, 310016, Note_on_c, 0, 67, 80
2, 310140, Note_off_c, 0, 67, 100
2, 310144, Note_on_c, 0, 79, 80
2, 310264, Control_c, 0, 64, 0
2, 310268, Note_off_c, 0, 79, 100
2, 310272, Control_c, 0, 64, 127
2, 310272, Note_on_c, 0, 67, 80
2, 310396, Note_off_c, 0, 67, 100
2, 310400, Note_on_c, 0, 79, 80
2, 310524, Note_off_c, 0, 79, 100
2, 310528, Note_on_c, 0, 67, 80
2, 310652, Note_off_c, 0, 67, 100
2, 310656, Note_on_c, 0, 79, 80
2, 310780, Note_off_c, 0, 79, 100
2, 310784, Note_on_c, 0, 67, 80
2, 310908, Note_off_c, 0, 67, 100
2, 310912, Note_on_c, 0, 79, 80
2, 311032, Control_c, 0, 64, 0
2, 311036, Note_off_c, 0, 79, 100
2, 311040, Control_c, 0, 64, 127
2, 311040, Note_on_c, 0, 67, 80
2, 311164, Note_off_c, 0, 67, 100
2, 311168, Note_on_c, 0, 79, 80
2, 311292, Note_off_c, 0, 79, 100
2, 311296, Note_on_c, 0, 67, 80
2, 311420, Note_off_c, 0, 67, 100
2, 311424, Note_on_c, 0, 79, 80
2, 311548, Note_off_c, 0, 79, 100
2, 311552, Note_on_c, 0, 73, 80
2, 311676, Note_off_c, 0, 73, 100
2, 311680, Note_on_c, 0, 70, 80
2, 311800, Control_c, 0, 64, 0
2, 311804, Note_off_c, 0, 70, 100
2, 311808, Control_c, 0, 64, 127
2, 311808, Note_on_c, 0, 79, 80
2, 311932, Note_off_c, 0, 79, 100
2, 311936, Note_on_c, 0, 74, 80
2, 312060, Note_off_c, 0, 74, 100
2, 312064, Note_on_c, 0, 71, 80
2, 312188, Note_off_c, 0, 71, 100
2, 312192, Note_on_c, 0, 79, 80
2, 312316, Note_off_c, 0, 79, 100
2, 312320, Note_on_c, 0, 76, 80
2, 312444, Note_off_c, 0, 76, 100
2, 312448, Note_on_c, 0, 70, 80
2, 312568, Control_c, 0, 64, 0
2, 312572, Note_off_c, 0, 70, 100
2, 312576, Control_c, 0, 64, 127
2, 312576, Note_on_c, 0, 79, 80
2, 312700, Note_off_c, 0, 79, 100
2, 312704, Note_on_c, 0, 74, 81
2, 312828, Note_off_c, 0, 74, 100
2, 312832, Note_on_c, 0, 71, 82
2, 312956, Note_off_c, 0, 71, 100
2, 312960, Note_on_c, 0, 79, 83
2, 313084, Note_off_c, 0, 79, 100
2, 313088, Note_on_c, 0, 73, 85
2, 313212, Note_off_c, 0, 73, 100
2, 313216, Note_on_c, 0, 70, 86
2, 313336, Control_c, 0, 64, 0
2, 313340, Note_off_c, 0, 70, 100
2, 313344, Control_c, 0, 64, 127
2, 313344, Note_on_c, 0, 79, 87
2, 313468, Note_off_c, 0, 79, 100
2, 313472, Note_on_c, 0, 74, 89
2, 313596, Note_off_c, 0, 74, 100
2, 313600, Note_on_c, 0, 71, 90
2, 313724, Note_off_c, 0, 71, 100
2, 313728, Note_on_c, 0, 79, 91
2, 313852, Note_off_c, 0, 79, 100
2, 313856, Note_on_c, 0, 76, 93
2, 313980, Note_off_c, 0, 76, 100
2, 313984, Note_on_c, 0, 70, 94
2, 314104, Control_c, 0, 64, 0
2, 314108, Note_off_c, 0, 70, 100
2, 314112, Control_c, 0, 64, 127
2, 314112, Note_on_c, 0, 79, 95
2, 314236, Note_off_c, 0, 79, 100
2, 314240, Note_on_c, 0, 74, 97
2, 314364, Note_off_c, 0, 74, 100
2, 314368, Note_on_c, 0, 71, 98
2, 314492, Note_off_c, 0, 71, 100
2, 314496, Note_on_c, 0, 79, 99
2, 314620, Note_off_c, 0, 79, 100
2, 314624, Note_on_c, 0, 76, 101
2, 314748, Note_off_c, 0, 76, 100
2, 314752, Note_on_c, 0, 70, 102
2, 314872, Control_c, 0, 64, 0
2, 314876, Note_off_c, 0, 70, 100
2, 314880, Control_c, 0, 64, 127
2, 314880, Note_on_c, 0, 79, 103
2, 315004, Note_off_c, 0, 79, 100
2, 315008, Note_on_c, 0, 74, 105
2, 315132, Note_off_c, 0, 74, 100
2, 315136, Note_on_c, 0, 71, 106
2, 315260, Note_off_c, 0, 71, 100
2, 315264, Note_on_c, 0, 79, 107
2, 315388, Note_off_c, 0, 79, 100
2, 315392, Note_on_c, 0, 76, 109
2, 315516, Note_off_c, 0, 76, 100
2, 315520, Note_on_c, 0, 70, 110
2, 315640, Control_c, 0, 64, 0
2, 315644, Note_off_c, 0, 70, 100
2, 315648, Note_on_c, 0, 79, 111
2, 315648, Note_on_c, 0, 74, 111
2, 315648, Note_on_c, 0, 71, 111
2, 316028, Note_off_c, 0, 79, 100
2, 316028, Note_off_c, 0, 74, 100
2, 316028, Note_off_c, 0, 71, 100
2, 316416, Note_on_c, 0, 67, 80
2, 316796, Note_off_c, 0, 67, 100
2, 316800, Note_on_c, 0, 66, 80
2, 317180, Note_off_c, 0, 66, 100
2, 317184, Note_on_c, 0, 65, 80
2, 317564, Note_off_c, 0, 65, 100
2, 317568, Note_on_c, 0, 64, 80
2, 317760, Note_on_c, 0, 55, 80
2, 317948, Note_off_c, 0, 64, 100
2, 317948, Note_off_c, 0, 55, 100
2, 317952, Note_on_c, 0, 63, 80
2, 317952, Note_on_c, 0, 60, 80
2, 318332, Note_off_c, 0, 63, 100
2, 318332, Note_off_c, 0, 60, 100
2, 318336, Note_on_c, 0, 63, 80
2, 318336, Note_on_c, 0, 60, 80
2, 318716, Note_off_c, 0, 63, 100
2, 318716, Note_off_c, 0, 60, 100
2, 318720, Note_on_c, 0, 63, 80
2, 318720, Note_on_c, 0, 60, 80
2, 319100, Note_off_c, 0, 63, 100
2, 319100, Note_off_c, 0, 60, 100
2, 319104, Note_on_c, 0, 62, 80
2, 319104, Note_on_c, 0, 59, 80
2, 319292, Note_off_c, 0, 59, 100
2, 319296, Note_on_c, 0, 52, 80
2, 319484, Note_off_c, 0, 62, 100
2, 319484, Note_off_c, 0, 52, 100
2, 319488, Note_on_c, 0, 61, 80
2, 319868, Note_off_c, 0, 61, 100
2, 319872, Note_on_c, 0, 60, 80
2, 320252, Note_off_c, 0, 60, 100
2, 320256, Note_on_c, 0, 59, 80
2, 320636, Note_off_c, 0, 59, 100
2, 322368, Note_on_c, 0, 67, 80
2, 322556, Note_off_c, 0, 67, 100
2, 322560, Note_on_c, 0, 72, 80
2, 322940, Note_off_c, 0, 72, 100
2, 322944, Note_on_c, 0, 72, 80
2, 323324, Note_off_c, 0, 72, 100
2, 323328, Note_on_c, 0, 72, 80
2, 323708, Note_off_c, 0, 72, 100
2, 323712, Note_on_c, 0, 71, 80
2, 323900, Note_off_c, 0, 71, 100
2, 323904, Note_on_c, 0, 64, 80
2, 324092, Note_off_c, 0, 64, 100
2, 324096, Note_on_c, 0, 69, 80
2, 324476, Note_off_c, 0, 69, 100
2, 324480, Note_on_c, 0, 69, 80
2, 324860, Note_off_c, 0, 69, 100
2, 324864, Note_on_c, 0, 69, 80
2, 325244, Note_off_c, 0, 69, 100
2, 325248, Note_on_c, 0, 67, 80
2, 325436, Note_off_c, 0, 67, 100
2, 325632, Note_on_c, 0, 74, 80
2, 325632, Note_on_c, 0, 86, 80
2, 326012, Note_off_c, 0, 74, 100
2, 326012, Note_off_c, 0, 86, 100
2, 326016, Note_on_c, 0, 73, 83
2, 326016, Note_on_c, 0, 85, 83
2, 326396, Note_off_c, 0, 73, 100
2, 326396, Note_off_c, 0, 85, 100
2, 326400, Note_on_c, 0, 72, 87
2, 326400, Note_on_c, 0, 84, 87
2, 326780, Note_off_c, 0, 72, 100
2, 326780, Note_off_c, 0, 84, 100
2, 326784, Note_on_c, 0, 71, 90
2, 326784, Note_on_c, 0, 83, 90
2, 327164, Note_off_c, 0, 71, 100
2, 327164, Note_off_c, 0, 83, 100
2, 327168, Note_on_c, 0, 70, 94
2, 327168, Note_on_c, 0, 82, 94
2, 327548, Note_off_c, 0, 70, 100
2, 327548, Note_off_c, 0, 82, 100
2, 327552, Note_on_c, 0, 70, 97
2, 327552, Note_on_c, 0, 82, 97
2, 327932, Note_off_c, 0, 70, 100
2, 327932, Note_off_c, 0, 82, 100
2, 327936, Note_on_c, 0, 82, 101
2, 327936, Note_on_c, 0, 70, 101
2, 328316, Note_off_c, 0, 82, 100
2, 328316, Note_off_c, 0, 70, 100
2, 328320, Note_on_c, 0, 81, 104
2, 328320, Note_on_c, 0, 69, 104
2, 328508, Note_off_c, 0, 81, 100
2, 328508, Note_off_c, 0, 69, 100
2, 328512, Note_on_c, 0, 74, 106
2, 328512, Note_on_c, 0, 62, 106
2, 328700, Note_off_c, 0, 74, 100
2, 328700, Note_off_c, 0, 62, 100
2, 328704, Note_on_c, 0, 79, 108
2, 328704, Note_on_c, 0, 67, 108
2, 329084, Note_off_c, 0, 79, 100
2, 329084, Note_off_c, 0, 67, 100
2, 329088, Note_on_c, 0, 79, 111
2, 329088, Note_on_c, 0, 67, 111
2, 329468, Note_off_c, 0, 79, 100
2, 329468, Note_off_c, 0, 67, 100
2, 329472, Note_on_c, 0, 79, 110
2, 329472, Note_on_c, 0, 67, 110
2, 329852, Note_off_c, 0, 79, 100
2, 329852, Note_off_c, 0, 67, 100
2, 329856, Note_on_c, 0, 78, 110
2, 329856, Note_on_c, 0, 66, 110
2, 330044, Note_off_c, 0, 78, 100
2, 330044, Note_off_c, 0, 66, 100
2, 330048, Note_on_c, 0, 83, 110
2, 330048, Note_on_c, 0, 71, 110
2, 330236, Note_off_c, 0, 83, 100
2, 330236, Note_off_c, 0, 71, 100
2, 330240, Note_on_c, 0, 76, 110
2, 330240, Note_on_c, 0, 88, 110
2, 330620, Note_off_c, 0, 76, 100
2, 330620, Note_off_c, 0, 88, 100
2, 330624, Note_on_c, 0, 76, 110
2, 330624, Note_on_c, 0, 88, 110
2, 331004, Note_off_c, 0, 76, 100
2, 331004, Note_off_c, 0, 88, 100
2, 331008, Note_on_c, 0, 88, 110
2, 331008, Note_on_c, 0, 76, 110
2, 331388, Note_off_c, 0, 88, 100
2, 331388, Note_off_c, 0, 76, 100
2, 331392, Note_on_c, 0, 86, 110
2, 331392, Note_on_c, 0, 74, 110
2, 331580, Note_off_c, 0, 86, 100
2, 331580, Note_off_c, 0, 74, 100
2, 331584, Note_on_c, 0, 79, 110
2, 331584, Note_on_c, 0, 67, 110
2, 331772, Note_off_c, 0, 79, 100
2, 331772, Note_off_c, 0, 67, 100
2, 331776, Note_on_c, 0, 84, 110
2, 331776, Note_on_c, 0, 72, 110
2, 332156, Note_off_c, 0, 84, 100
2, 332156, Note_off_c, 0, 72, 100
2, 332160, Note_on_c, 0, 84, 110
2, 332160, Note_on_c, 0, 72, 110
2, 332540, Note_off_c, 0, 84, 100
2, 332540, Note_off_c, 0, 72, 100
2, 332544, Note_on_c, 0, 84, 110
2, 332544, Note_on_c, 0, 72, 110
2, 333212, Note_off_c, 0, 84, 100
2, 333212, Note_off_c, 0, 72, 100
2, 333216, Note_on_c, 0, 62, 80
2, 333308, Note_off_c, 0, 62, 100
2, 333312, Note_on_c, 0, 72, 80
2, 333692, Note_off_c, 0, 72, 100
2, 333696, Note_on_c, 0, 72, 80
2, 334076, Note_off_c, 0, 72, 100
2, 334080, Note_on_c, 0, 72, 80
2, 334752, Note_on_c, 0, 74, 80
2, 334844, Note_off_c, 0, 74, 100
2, 334848, Note_on_c, 0, 84, 80
2, 335228, Note_off_c, 0, 84, 100
2, 335232, Note_on_c, 0, 84, 80
2, 335612, Note_off_c, 0, 84, 100
2, 335616, Note_on_c, 0, 84, 80
2, 336284, Note_off_c, 0, 72, 100
2, 336284, Note_off_c, 0, 84, 100
2, 336288, Note_on_c, 0, 62, 80
2, 336380, Note_off_c, 0, 62, 100
2, 336384, Note_on_c, 0, 72, 80
2, 336764, Note_off_c, 0, 72, 100
2, 336768, Note_on_c, 0, 72, 80
2, 337148, Note_off_c, 0, 72, 100
2, 337152, Note_on_c, 0, 72, 80
2, 337824, Note_on_c, 0, 74, 80
2, 337916, Note_off_c, 0, 74, 100
2, 337920, Note_on_c, 0, 84, 80
2, 338300, Note_off_c, 0, 84, 100
2, 338304, Note_on_c, 0, 84, 80
2, 338684, Note_off_c, 0, 84, 100
2, 338688, Note_on_c, 0, 84, 80
2, 339356, Note_off_c, 0, 72, 100
2, 339356, Note_off_c, 0, 84, 100
2, 339360, Note_on_c, 0, 62, 80
2, 339456, Note_on_c, 0, 72, 80
2, 339548, Note_off_c, 0, 62, 100
2, 339836, Note_off_c, 0, 72, 100
2, 339840, Note_on_c, 0, 72, 80
2, 340220, Note_off_c, 0, 72, 100
2, 340224, Note_on_c, 0, 72, 80
2, 340892, Note_off_c, 0, 72, 100
2, 340896, Note_on_c, 0, 62, 80
2, 340992, Note_on_c, 0, 73, 80
2, 341084, Note_off_c, 0, 62, 100
2, 341372, Note_off_c, 0, 73, 100
2, 341376, Note_on_c, 0, 73, 80
2, 341756, Note_off_c, 0, 73, 100
2, 341760, Note_on_c, 0, 73, 80
2, 345596, Note_off_c, 0, 73, 100
2, 345600, Note_on_c, 0, 76, 80
2, 345644, Note_off_c, 0, 76, 100
2, 345648, Note_on_c, 0, 74, 80
2, 345784, Note_off_c, 0, 74, 100
2, 345792, Note_on_c, 0, 73, 80
2, 345980, Note_off_c, 0, 73, 100
2, 345984, Note_on_c, 0, 74, 80
2, 346172, Note_off_c, 0, 74, 100
2, 346176, Note_on_c, 0, 76, 80
2, 346364, Note_off_c, 0, 76, 100
2, 346368, Note_on_c, 0, 74, 80
2, 346748, Note_off_c, 0, 74, 100
2, 346752, Note_on_c, 0, 62, 80
2, 346752, Note_on_c, 0, 54, 80
2, 347132, Note_off_c, 0, 62, 100
2, 347132, Note_off_c, 0, 54, 100
2, 347136, Note_on_c, 0, 64, 80
2, 347136, Note_on_c, 0, 55, 80
2, 347516, Note_off_c, 0, 64, 100
2, 347516, Note_off_c, 0, 55, 100
2, 347520, Note_on_c, 0, 66, 80
2, 347520, Note_on_c, 0, 57, 80
2, 347900, Note_off_c, 0, 66, 100
2, 347900, Note_off_c, 0, 57, 100
2, 347904, Note_on_c, 0, 67, 80
2, 347904, Note_on_c, 0, 59, 80
2, 348668, Note_off_c, 0, 67, 100
2, 348668, Note_off_c, 0, 59, 100
2, 350208, Note_on_c, 0, 71, 80
2, 350396, Note_off_c, 0, 71, 100
2, 350400, Note_on_c, 0, 69, 80
2, 350588, Note_off_c, 0, 69, 100
2, 350592, Note_on_c, 0, 68, 80
2, 350592, Note_on_c, 0, 60, 80
2, 350780, Note_off_c, 0, 68, 100
2, 350784, Note_on_c, 0, 69, 80
2, 350972, Note_off_c, 0, 60, 100
2, 350972, Note_off_c, 0, 69, 100
2, 350976, Note_on_c, 0, 59, 80
2, 350976, Note_on_c, 0, 71, 80
2, 351356, Note_off_c, 0, 59, 100
2, 351356, Note_off_c, 0, 71, 100
2, 351360, Note_on_c, 0, 67, 80
2, 351360, Note_on_c, 0, 59, 80
2, 351740, Note_off_c, 0, 67, 100
2, 351740, Note_off_c, 0, 59, 100
2, 351744, Note_on_c, 0, 73, 80
2, 351744, Note_on_c, 0, 67, 80
2, 351744, Note_on_c, 0, 61, 80
2, 352124, Note_off_c, 0, 73, 100
2, 352124, Note_off_c, 0, 67, 100
2, 352124, Note_off_c, 0, 61, 100
2, 352128, Note_on_c, 0, 69, 80
2, 352128, Note_on_c, 0, 67, 80
2, 352128, Note_on_c, 0, 61, 80
2, 352508, Note_off_c, 0, 69, 100
2, 352508, Note_off_c, 0, 67, 100
2, 352508, Note_off_c, 0, 61, 100
2, 352704, Note_on_c, 0, 62, 80
2, 352800, Note_on_c, 0, 66, 80
2, 352896, Note_on_c, 0, 69, 80
2, 352992, Note_on_c, 0, 74, 80
2, 354044, Note_off_c, 0, 62, 100
2, 354044, Note_off_c, 0, 66, 100
2, 354044, Note_off_c, 0, 69, 100
2, 354044, Note_off_c, 0, 74, 100
2, 354816, Note_on_c, 0, 76, 80
2, 354860, Note_off_c, 0, 76, 100
2, 354864, Note_on_c, 0, 74, 80
2, 355000, Note_off_c, 0, 74, 100
2, 355008, Note_on_c, 0, 73, 80
2, 355196, Note_off_c, 0, 73, 100
2, 355200, Note_on_c, 0, 74, 80
2, 355388, Note_off_c, 0, 74, 100
2, 355392, Note_on_c, 0, 76, 80
2, 355580, Note_off_c, 0, 76, 100
2, 355584, Note_on_c, 0, 74, 80
2, 355964, Note_off_c, 0, 74, 100
2, 355968, Note_on_c, 0, 60, 80
2, 355968, Note_on_c, 0, 54, 80
2, 355968, Note_on_c, 0, 62, 80
2, 356348, Note_off_c, 0, 60, 100
2, 356348, Note_off_c, 0, 54, 100
2, 356348, Note_off_c, 0, 62, 100
2, 356352, Note_on_c, 0, 64, 80
2, 356352, Note_on_c, 0, 60, 80
2, 356352, Note_on_c, 0, 55, 80
2, 356732, Note_off_c, 0, 64, 100
2, 356732, Note_off_c, 0, 60, 100
2, 356732, Note_off_c, 0, 55, 100
2, 356736, Note_on_c, 0, 66, 80
2, 356736, Note_on_c, 0, 60, 80
2, 356736, Note_on_c, 0, 57, 80
2, 357116, Note_off_c, 0, 66, 100
2, 357116, Note_off_c, 0, 60, 100
2, 357116, Note_off_c, 0, 57, 100
2, 357120, Note_on_c, 0, 67, 80
2, 357120, Note_on_c, 0, 59, 80
2, 357120, Note_on_c, 0, 55, 80
2, 357884, Note_off_c, 0, 67, 100
2, 357884, Note_off_c, 0, 59, 100
2, 357884, Note_off_c, 0, 55, 100
2, 359424, Note_on_c, 0, 71, 80
2, 359612, Note_off_c, 0, 71, 100
2, 359616, Note_on_c, 0, 69, 80
2, 359804, Note_off_c, 0, 69, 100
2, 359808, Note_on_c, 0, 68, 80
2, 359808, Note_on_c, 0, 62, 80
2, 359996, Note_off_c, 0, 68, 100
2, 360000, Note_on_c, 0, 69, 80
2, 360188, Note_off_c, 0, 62, 100
2, 360188, Note_off_c, 0, 69, 100
2, 360192, Note_on_c, 0, 71, 80
2, 360192, Note_on_c, 0, 62, 80
2, 360572, Note_off_c, 0, 71, 100
2, 360572, Note_off_c, 0, 62, 100
2, 360576, Note_on_c, 0, 67, 80
2, 360576, Note_on_c, 0, 64, 80
2, 360956, Note_off_c, 0, 67, 100
2, 360956, Note_off_c, 0, 64, 100
2, 360960, Note_on_c, 0, 72, 80
2, 360960, Note_on_c, 0, 69, 80
2, 360960, Note_on_c, 0, 64, 80
2, 361724, Note_off_c, 0, 72, 100
2, 361724, Note_off_c, 0, 69, 100
2, 361724, Note_off_c, 0, 64, 100
2, 362496, Note_on_c, 0, 66, 80
2, 362496, Note_on_c, 0, 62, 80
2, 362496, Note_on_c, 0, 69, 80
2, 363260, Note_off_c, 0, 66, 100
2, 363260, Note_off_c, 0, 62, 100
2, 363260, Note_off_c, 0, 69, 100
2, 363648, Note_on_c, 0, 62, 80
2, 363744, Note_on_c, 0, 67, 80
2, 363840, Note_on_c, 0, 74, 80
2, 365180, Note_off_c, 0, 62, 100
2, 365180, Note_off_c, 0, 67, 100
2, 365180, Note_off_c, 0, 74, 100
2, 365568, Note_on_c, 0, 71, 80
2, 365756, Note_off_c, 0, 71, 100
2, 365760, Note_on_c, 0, 69, 80
2, 365948, Note_off_c, 0, 69, 100
2, 365952, Note_on_c, 0, 68, 80
2, 365952, Note_on_c, 0, 62, 80
2, 366140, Note_off_c, 0, 68, 100
2, 366144, Note_on_c, 0, 69, 80
2, 366332, Note_off_c, 0, 62, 100
2, 366332, Note_off_c, 0, 69, 100
2, 366336, Note_on_c, 0, 71, 80
2, 366336, Note_on_c, 0, 62, 80
2, 366716, Note_off_c, 0, 71, 100
2, 366716, Note_off_c, 0, 62, 100
2, 366720, Note_on_c, 0, 67, 80
2, 366720, Note_on_c, 0, 64, 80
2, 367100, Note_off_c, 0, 67, 100
2, 367100, Note_off_c, 0, 64, 100
2, 367104, Note_on_c, 0, 72, 80
2, 367104, Note_on_c, 0, 69, 80
2, 367104, Note_on_c, 0, 64, 80
2, 367868, Note_off_c, 0, 72, 100
2, 367868, Note_off_c, 0, 69, 100
2, 367868, Note_off_c, 0, 64, 100
2, 368640, Note_on_c, 0, 62, 80
2, 368640, Note_on_c, 0, 66, 80
2, 368640, Note_on_c, 0, 69, 80
2, 369404, Note_off_c, 0, 62, 100
2, 369404, Note_off_c, 0, 66, 100
2, 369404, Note_off_c, 0, 69, 100
2, 374016, Control_c, 0, 64, 127
2, 374776, Control_c, 0, 64, 0
2, 374784, Control_c, 0, 64, 127
2, 374784, Note_on_c, 0, 88, 110
2, 374972, Note_off_c, 0, 88, 100
2, 374976, Note_on_c, 0, 86, 110
2, 375164, Note_off_c, 0, 86, 100
2, 375168, Note_on_c, 0, 85, 110
2, 375356, Note_off_c, 0, 85, 100
2, 375360, Note_on_c, 0, 86, 110
2, 375544, Control_c, 0, 64, 0
2, 375548, Note_off_c, 0, 86, 100
2, 375552, Control_c, 0, 64, 127
2, 375552, Note_on_c, 0, 76, 110
2, 375552, Note_on_c, 0, 66, 110
2, 375740, Note_off_c, 0, 76, 100
2, 375744, Note_on_c, 0, 74, 110
2, 375932, Note_off_c, 0, 66, 100
2, 375932, Note_off_c, 0, 74, 100
2, 375936, Note_on_c, 0, 73, 110
2, 376124, Note_off_c, 0, 73, 100
2, 376128, Note_on_c, 0, 74, 110
2, 376312, Control_c, 0, 64, 0
2, 376316, Note_off_c, 0, 74, 100
2, 376320, Control_c, 0, 64, 127
2, 376320, Note_on_c, 0, 88, 110
2, 376508, Note_off_c, 0, 88, 100
2, 376512, Note_on_c, 0, 86, 110
2, 376700, Note_off_c, 0, 86, 100
2, 376704, Note_on_c, 0, 85, 110
2, 376892, Note_off_c, 0, 85, 100
2, 376896, Note_on_c, 0, 86, 110
2, 377080, Control_c, 0, 64, 0
2, 377084, Note_off_c, 0, 86, 100
2, 377088, Control_c, 0, 64, 127
2, 377088, Note_on_c, 0, 76, 110
2, 377088, Note_on_c, 0, 66, 110
2, 377276, Note_off_c, 0, 76, 100
2, 377280, Note_on_c, 0, 74, 110
2, 377468, Note_off_c, 0, 66, 100
2, 377468, Note_off_c, 0, 74, 100
2, 377472, Note_on_c, 0, 73, 110
2, 377660, Note_off_c, 0, 73, 100
2, 377664, Note_on_c, 0, 74, 110
2, 377848, Control_c, 0, 64, 0
2, 377852, Note_off_c, 0, 74, 100
2, 377856, Control_c, 0, 64, 127
2, 377856, Note_on_c, 0, 88, 110
2, 378044, Note_off_c, 0, 88, 100
2, 378048, Note_on_c, 0, 86, 110
2, 378236, Note_off_c, 0, 86, 100
2, 378240, Note_on_c, 0, 85, 110
2, 378428, Note_off_c, 0, 85, 100
2, 378432, Note_on_c, 0, 86, 110
2, 378616, Control_c, 0, 64, 0
2, 378620, Note_off_c, 0, 86, 100
2, 378624, Control_c, 0, 64, 127
2, 378624, Note_on_c, 0, 76, 110
2, 378624, Note_on_c, 0, 66, 110
2, 378812, Note_off_c, 0, 76, 100
2, 378816, Note_on_c, 0, 74, 110
2, 379004, Note_off_c, 0, 66, 100
2, 379004, Note_off_c, 0, 74, 100
2, 379008, Note_on_c, 0, 73, 110
2, 379196, Note_off_c, 0, 73, 100
2, 379200, Note_on_c, 0, 74, 110
2, 379384, Control_c, 0, 64, 0
2, 379388, Note_off_c, 0, 74, 100
2, 379392, Control_c, 0, 64, 127
2, 379392, Note_on_c, 0, 76, 110
2, 379392, Note_on_c, 0, 66, 110
2, 379580, Note_off_c, 0, 76, 100
2, 379584, Note_on_c, 0, 74, 110
2, 379772, Note_off_c, 0, 66, 100
2, 379772, Note_off_c, 0, 74, 100
2, 379776, Note_on_c, 0, 73, 110
2, 379964, Note_off_c, 0, 73, 100
2, 379968, Note_on_c, 0, 74, 110
2, 380152, Control_c, 0, 64, 0
2, 380156, Note_off_c, 0, 74, 100
2, 380160, Control_c, 0, 64, 127
2, 380160, Note_on_c, 0, 76, 110
2, 380160, Note_on_c, 0, 66, 110
2, 380348, Note_off_c, 0, 76, 100
2, 380352, Note_on_c, 0, 74, 110
2, 380540, Note_off_c, 0, 66, 100
2, 380540, Note_off_c, 0, 74, 100
2, 380544, Note_on_c, 0, 73, 110
2, 380732, Note_off_c, 0, 73, 100
2, 380736, Note_on_c, 0, 74, 110
2, 380920, Control_c, 0, 64, 0
2, 380924, Note_off_c, 0, 74, 100
2, 380928, Control_c, 0, 64, 127
2, 380928, Note_on_c, 0, 76, 110
2, 380928, Note_on_c, 0, 66, 110
2, 381116, Note_off_c, 0, 76, 100
2, 381120, Note_on_c, 0, 74, 110
2, 381308, Note_off_c, 0, 66, 100
2, 381308, Note_off_c, 0, 74, 100
2, 381312, Note_on_c, 0, 73, 110
2, 381500, Note_off_c, 0, 73, 100
2, 381504, Note_on_c, 0, 74, 110
2, 381688, Control_c, 0, 64, 0
2, 381692, Note_off_c, 0, 74, 100
2, 381696, Note_on_c, 0, 67, 110
2, 381696, Note_on_c, 0, 71, 110
2, 382076, Note_off_c, 0, 67, 100
2, 382076, Note_off_c, 0, 71, 100
2, 382848, Note_on_c, 0, 61, 80
2, 382848, Note_on_c, 0, 55, 80
2, 383228, Note_off_c, 0, 61, 100
2, 383228, Note_off_c, 0, 55, 100
2, 383232, Note_on_c, 0, 62, 80
2, 383232, Note_on_c, 0, 54, 80
2, 383612, Note_off_c, 0, 62, 100
2, 383612, Note_off_c, 0, 54, 100
2, 384000, Note_on_c, 0, 76, 80
2, 384188, Note_off_c, 0, 76, 100
2, 384192, Note_on_c, 0, 74, 80
2, 384380, Note_off_c, 0, 74, 100
2, 384384, Note_on_c, 0, 73, 80
2, 384572, Note_off_c, 0, 73, 100
2, 384576, Note_on_c, 0, 74, 80
2, 384764, Note_off_c, 0, 74, 100
2, 384768, Note_on_c, 0, 71, 80
2, 385148, Note_off_c, 0, 71, 100
2, 385920, Note_on_c, 0, 61, 80
2, 385920, Note_on_c, 0, 55, 80
2, 386300, Note_off_c, 0, 61, 100
2, 386300, Note_off_c, 0, 55, 100
2, 386304, Note_on_c, 0, 62, 80
2, 386304, Note_on_c, 0, 54, 80
2, 386684, Note_off_c, 0, 62, 100
2, 386684, Note_off_c, 0, 54, 100
2, 387072, Note_on_c, 0, 88, 80
2, 387260, Note_off_c, 0, 88, 100
2, 387264, Note_on_c, 0, 86, 80
2, 387452, Note_off_c, 0, 86, 100
2, 387456, Note_on_c, 0, 85, 80
2, 387644, Note_off_c, 0, 85, 100
2, 387648, Note_on_c, 0, 86, 80
2, 387836, Note_off_c, 0, 86, 100
2, 387840, Note_on_c, 0, 83, 80
2, 388220, Note_off_c, 0, 83, 100
2, 388992, Note_on_c, 0, 61, 82
2, 388992, Note_on_c, 0, 55, 82
2, 389372, Note_off_c, 0, 61, 100
2, 389372, Note_off_c, 0, 55, 100
2, 389760, Note_on_c, 0, 67, 87
2, 389760, Note_on_c, 0, 61, 87
2, 390140, Note_off_c, 0, 67, 100
2, 390140, Note_off_c, 0, 61, 100
2, 390528, Note_on_c, 0, 73, 91
2, 390528, Note_on_c, 0, 67, 91
2, 390908, Note_off_c, 0, 73, 100
2, 390908, Note_off_c, 0, 67, 100
2, 391296, Note_on_c, 0, 79, 96
2, 391296, Note_on_c, 0, 73, 96
2, 391676, Note_off_c, 0, 79, 100
2, 391676, Note_off_c, 0, 73, 100
2, 392064, Note_on_c, 0, 85, 101
2, 392064, Note_on_c, 0, 79, 101
2, 392444, Note_off_c, 0, 85, 100
2, 392444, Note_off_c, 0, 79, 100
2, 392832, Note_on_c, 0, 85, 106
2, 392832, Note_on_c, 0, 79, 106
2, 393212, Note_off_c, 0, 85, 100
2, 393212, Note_off_c, 0, 79, 100
2, 393600, Note_on_c, 0, 85, 110
2, 393600, Note_on_c, 0, 79, 110
2, 393980, Note_off_c, 0, 85, 100
2, 393980, Note_off_c, 0, 79, 100
2, 393984, Control_c, 0, 64, 127
2, 393984, Note_on_c, 0, 88, 110
2, 393984, Note_on_c, 0, 78, 110
2, 394172, Note_off_c, 0, 88, 100
2, 394172, Note_off_c, 0, 78, 100
2, 394176, Note_on_c, 0, 86, 110
2, 394364, Note_off_c, 0, 86, 100
2, 394368, Note_on_c, 0, 85, 110
2, 394556, Note_off_c, 0, 85, 100
2, 394560, Note_on_c, 0, 86, 110
2, 394744, Control_c, 0, 64, 0
2, 394748, Note_off_c, 0, 86, 100
2, 394752, Control_c, 0, 64, 127
2, 394752, Note_on_c, 0, 88, 110
2, 394940, Note_off_c, 0, 88, 100
2, 394944, Note_on_c, 0, 86, 110
2, 395132, Note_off_c, 0, 86, 100
2, 395136, Note_on_c, 0, 85, 110
2, 395324, Note_off_c, 0, 85, 100
2, 395328, Note_on_c, 0, 86, 110
2, 395512, Control_c, 0, 64, 0
2, 395516, Note_off_c, 0, 86, 100
2, 395520, Control_c, 0, 64, 127
2, 395520, Note_on_c, 0, 88, 110
2, 395708, Note_off_c, 0, 88, 100
2, 395712, Note_on_c, 0, 86, 110
2, 395900, Note_off_c, 0, 86, 100
2, 395904, Note_on_c, 0, 85, 110
2, 396092, Note_off_c, 0, 85, 100
2, 396096, Note_on_c, 0, 86, 110
2, 396280, Control_c, 0, 64, 0
2, 396284, Note_off_c, 0, 86, 100
2, 396288, Control_c, 0, 64, 127
2, 396288, Note_on_c, 0, 88, 110
2, 396476, Note_off_c, 0, 88, 100
2, 396480, Note_on_c, 0, 86, 110
2, 396668, Note_off_c, 0, 86, 100
2, 396672, Note_on_c, 0, 85, 110
2, 396860, Note_off_c, 0, 85, 100
2, 396864, Note_on_c, 0, 86, 110
2, 397048, Control_c, 0, 64, 0
2, 397052, Note_off_c, 0, 86, 100
2, 397056, Control_c, 0, 64, 127
2, 397056, Note_on_c, 0, 88, 110
2, 397244, Note_off_c, 0, 88, 100
2, 397248, Note_on_c, 0, 86, 110
2, 397436, Note_off_c, 0, 86, 100
2, 397440, Note_on_c, 0, 85, 110
2, 397628, Note_off_c, 0, 85, 100
2, 397632, Note_on_c, 0, 86, 110
2, 397816, Control_c, 0, 64, 0
2, 397820, Note_off_c, 0, 86, 100
2, 397824, Control_c, 0, 64, 127
2, 397824, Note_on_c, 0, 88, 110
2, 398012, Note_off_c, 0, 88, 100
2, 398016, Note_on_c, 0, 86, 110
2, 398204, Note_off_c, 0, 86, 100
2, 398208, Note_on_c, 0, 85, 110
2, 398396, Note_off_c, 0, 85, 100
2, 398400, Note_on_c, 0, 86, 110
2, 398584, Control_c, 0, 64, 0
2, 398588, Note_off_c, 0, 86, 100
2, 398592, Control_c, 0, 64, 127
2, 398592, Note_on_c, 0, 88, 110
2, 398780, Note_off_c, 0, 88, 100
2, 398784, Note_on_c, 0, 86, 110
2, 398972, Note_off_c, 0, 86, 100
2, 398976, Note_on_c, 0, 85, 110
2, 399164, Note_off_c, 0, 85, 100
2, 399168, Note_on_c, 0, 86, 110
2, 399352, Control_c, 0, 64, 0
2, 399356, Note_off_c, 0, 86, 100
2, 399360, Control_c, 0, 64, 127
2, 399360, Note_on_c, 0, 88, 110
2, 399548, Note_off_c, 0, 88, 100
2, 399552, Note_on_c, 0, 86, 110
2, 399740, Note_off_c, 0, 86, 100
2, 399744, Note_on_c, 0, 85, 110
2, 399932, Note_off_c, 0, 85, 100
2, 399936, Note_on_c, 0, 86, 110
2, 400120, Control_c, 0, 64, 0
2, 400124, Note_off_c, 0, 86, 100
2, 400128, Note_on_c, 0, 83, 80
2, 400508, Note_off_c, 0, 83, 100
2, 400896, Note_on_c, 0, 76, 80
2, 401084, Note_off_c, 0, 76, 100
2, 401088, Note_on_c, 0, 74, 80
2, 401276, Note_off_c, 0, 74, 100
2, 401280, Note_on_c, 0, 73, 80
2, 401468, Note_off_c, 0, 73, 100
2, 401472, Note_on_c, 0, 74, 80
2, 401660, Note_off_c, 0, 74, 100
2, 401664, Note_on_c, 0, 71, 80
2, 402044, Note_off_c, 0, 71, 100
2, 402432, Note_on_c, 0, 64, 80
2, 402620, Note_off_c, 0, 64, 100
2, 402624, Note_on_c, 0, 62, 80
2, 402812, Note_off_c, 0, 62, 100
2, 402816, Note_on_c, 0, 61, 80
2, 403004, Note_off_c, 0, 61, 100
2, 403008, Note_on_c, 0, 62, 80
2, 403196, Note_off_c, 0, 62, 100
2, 403200, Note_on_c, 0, 59, 80
2, 403580, Note_off_c, 0, 59, 100
2, 410112, Note_on_c, 0, 72, 120
2, 410112, Note_on_c, 0, 78, 120
2, 410112, Note_on_c, 0, 81, 120
2, 410112, Note_on_c, 0, 84, 120
2, 410492, Note_off_c, 0, 72, 100
2, 410492, Note_off_c, 0, 78, 100
2, 410492, Note_off_c, 0, 81, 100
2, 410492, Note_off_c, 0, 84, 100
2, 410496, Note_on_c, 0, 84, 120
2, 410496, Note_on_c, 0, 81, 120
2, 410496, Note_on_c, 0, 78, 120
2, 410496, Note_on_c, 0, 72, 120
2, 410876, Note_off_c, 0, 84, 100
2, 410876, Note_off_c, 0, 81, 100
2, 410876, Note_off_c, 0, 78, 100
2, 410876, Note_off_c, 0, 72, 100
2, 411648, Note_on_c, 0, 78, 120
2, 411648, Note_on_c, 0, 72, 120
2, 411648, Note_on_c, 0, 66, 120
2, 412028, Note_off_c, 0, 78, 100
2, 412028, Note_off_c, 0, 72, 100
2, 412028, Note_off_c, 0, 66, 100
2, 412032, Note_on_c, 0, 78, 120
2, 412032, Note_on_c, 0, 72, 120
2, 412032, Note_on_c, 0, 66, 120
2, 412412, Note_off_c, 0, 78, 100
2, 412412, Note_off_c, 0, 72, 100
2, 412412, Note_off_c, 0, 66, 100
2, 413184, Note_on_c, 0, 79, 120
2, 413184, Note_on_c, 0, 74, 120
2, 413184, Note_on_c, 0, 71, 120
2, 413184, Note_on_c, 0, 67, 120
2, 413564, Note_off_c, 0, 79, 100
2, 413564, Note_off_c, 0, 74, 100
2, 413564, Note_off_c, 0, 71, 100
2, 413564, Note_off_c, 0, 67, 100
2, 413568, Note_on_c, 0, 79, 120
2, 413568, Note_on_c, 0, 74, 120
2, 413568, Note_on_c, 0, 71, 120
2, 413568, Note_on_c, 0, 67, 120
2, 413948, Note_off_c, 0, 79, 100
2, 413948, Note_off_c, 0, 74, 100
2, 413948, Note_off_c, 0, 71, 100
2, 413948, Note_off_c, 0, 67, 100
2, 416256, Note_on_c, 0, 74, 120
2, 416256, Note_on_c, 0, 71, 120
2, 416256, Note_on_c, 0, 67, 120
2, 416256, Note_on_c, 0, 62, 120
2, 416636, Note_off_c, 0, 74, 100
2, 416636, Note_off_c, 0, 71, 100
2, 416636, Note_off_c, 0, 67, 100
2, 416636, Note_off_c, 0, 62, 100
2, 416640, Note_on_c, 0, 74, 120
2, 416640, Note_on_c, 0, 67, 120
2, 416640, Note_on_c, 0, 62, 120
2, 416640, Note_on_c, 0, 71, 120
2, 417020, Note_off_c, 0, 74, 100
2, 417020, Note_off_c, 0, 67, 100
2, 417020, Note_off_c, 0, 62, 100
2, 417020, Note_off_c, 0, 71, 100
2, 419328, Note_on_c, 0, 71, 80
2, 419328, Note_on_c, 0, 67, 80
2, 419328, Note_on_c, 0, 62, 80
2, 419328, Note_on_c, 0, 59, 80
2, 419708, Note_off_c, 0, 71, 100
2, 419708, Note_off_c, 0, 67, 100
2, 419708, Note_off_c, 0, 62, 100
2, 419708, Note_off_c, 0, 59, 100
2, 420864, Note_on_c, 0, 62, 77
2, 420864, Note_on_c, 0, 59, 77
2, 420864, Note_on_c, 0, 55, 77
2, 420864, Note_on_c, 0, 50, 77
2, 421244, Note_off_c, 0, 62, 100
2, 421244, Note_off_c, 0, 59, 100
2, 421244, Note_off_c, 0, 55, 100
2, 421244, Note_off_c, 0, 50, 100
2, 422400, Note_on_c, 0, 59, 71
2, 422400, Note_on_c, 0, 55, 71
2, 422400, Note_on_c, 0, 47, 71
2, 422400, Note_on_c, 0, 50, 71
2, 422780, Note_off_c, 0, 59, 100
2, 422780, Note_off_c, 0, 55, 100
2, 422780, Note_off_c, 0, 47, 100
2, 422780, Note_off_c, 0, 50, 100
2, 423936, Control_c, 0, 7, 0
2, 424320, Note_on_c, 0, 55, 1
2, 424700, Note_off_c, 0, 55, 100
2, 424700, End_track
3, 0, Start_track
3, 0, Title_t, "Left"
3, 0, Control_c, 1, 0, 0
3, 0, Program_c, 1, 0
3, 0, Control_c, 1, 7, 100
3, 0, Control_c, 1, 10, 58
3, 0, Control_c, 1, 91, 127
3, 0, Key_signature, 1, "major"
3, 768, Note_on_c, 1, 50, 80
3, 1152, Note_on_c, 1, 59, 80
3, 1532, Note_off_c, 1, 59, 100
3, 1536, Note_on_c, 1, 60, 80
3, 1916, Note_off_c, 1, 60, 100
3, 1920, Note_on_c, 1, 57, 80
3, 2300, Note_off_c, 1, 57, 100
3, 2304, Note_on_c, 1, 59, 80
3, 2684, Note_off_c, 1, 59, 100
3, 2688, Note_on_c, 1, 55, 80
3, 3068, Note_off_c, 1, 55, 100
3, 3072, Note_on_c, 1, 54, 80
3, 3452, Note_off_c, 1, 54, 100
3, 3456, Note_on_c, 1, 50, 80
3, 3836, Note_off_c, 1, 50, 100
3, 3840, Note_on_c, 1, 55, 80
3, 4220, Note_off_c, 1, 55, 100
3, 4224, Note_on_c, 1, 54, 80
3, 4604, Note_off_c, 1, 54, 100
3, 4608, Note_on_c, 1, 52, 80
3, 4988, Note_off_c, 1, 52, 100
3, 4992, Note_on_c, 1, 61, 80
3, 5372, Note_off_c, 1, 61, 100
3, 5760, Note_on_c, 1, 62, 100
3, 6524, Note_off_c, 1, 62, 100
3, 6528, Note_on_c, 1, 61, 80
3, 6908, Note_off_c, 1, 61, 100
3, 6912, Note_on_c, 1, 60, 80
3, 7292, Note_off_c, 1, 60, 100
3, 7296, Note_on_c, 1, 59, 80
3, 7676, Note_off_c, 1, 59, 100
3, 7680, Note_on_c, 1, 60, 80
3, 8060, Note_off_c, 1, 60, 100
3, 8064, Note_on_c, 1, 57, 80
3, 8444, Note_off_c, 1, 57, 100
3, 8448, Note_on_c, 1, 59, 80
3, 8828, Note_off_c, 1, 59, 100
3, 8832, Note_on_c, 1, 55, 80
3, 9212, Note_off_c, 1, 55, 100
3, 9216, Note_on_c, 1, 54, 80
3, 9596, Note_off_c, 1, 54, 100
3, 9600, Note_on_c, 1, 50, 80
3, 9980, Note_off_c, 1, 50, 100
3, 9980, Note_off_c, 1, 50, 100
3, 9984, Note_on_c, 1, 55, 80
3, 10364, Note_off_c, 1, 55, 100
3, 10368, Note_on_c, 1, 52, 80
3, 10748, Note_off_c, 1, 52, 100
3, 10752, Note_on_c, 1, 48, 80
3, 11132, Note_off_c, 1, 48, 100
3, 11136, Note_on_c, 1, 50, 80
3, 11516, Note_off_c, 1, 50, 100
3, 11520, Note_on_c, 1, 43, 80
3, 11900, Note_off_c, 1, 43, 100
3, 11904, Note_on_c, 1, 55, 80
3, 12672, Note_on_c, 1, 57, 80
3, 13052, Note_off_c, 1, 57, 100
3, 13056, Note_on_c, 1, 59, 80
3, 13436, Note_off_c, 1, 59, 100
3, 13440, Note_on_c, 1, 60, 80
3, 13820, Note_off_c, 1, 60, 100
3, 13824, Note_on_c, 1, 63, 110
3, 14204, Note_off_c, 1, 63, 100
3, 14208, Note_on_c, 1, 66, 101
3, 14588, Note_off_c, 1, 66, 100
3, 14592, Note_on_c, 1, 67, 91
3, 14972, Note_off_c, 1, 55, 100
3, 14972, Note_off_c, 1, 67, 100
3, 14976, Note_on_c, 1, 55, 81
3, 15356, Note_off_c, 1, 55, 100
3, 15360, Note_on_c, 1, 62, 80
3, 15740, Note_off_c, 1, 62, 100
3, 15744, Note_on_c, 1, 50, 80
3, 16124, Note_off_c, 1, 50, 100
3, 16128, Note_on_c, 1, 55, 80
3, 16508, Note_off_c, 1, 55, 100
3, 16512, Note_on_c, 1, 43, 80
3, 16892, Note_off_c, 1, 43, 100
3, 16896, Note_on_c, 1, 50, 80
3, 17276, Note_off_c, 1, 50, 100
3, 17280, Note_on_c, 1, 38, 80
3, 17660, Note_off_c, 1, 38, 100
3, 17664, Note_on_c, 1, 43, 80
3, 18044, Note_off_c, 1, 43, 100
3, 18048, Note_on_c, 1, 55, 80
3, 18816, Note_on_c, 1, 57, 80
3, 19196, Note_off_c, 1, 57, 100
3, 19200, Note_on_c, 1, 59, 80
3, 19580, Note_off_c, 1, 59, 100
3, 19584, Note_on_c, 1, 60, 80
3, 19964, Note_off_c, 1, 60, 100
3, 19968, Note_on_c, 1, 63, 80
3, 20348, Note_off_c, 1, 63, 100
3, 20352, Note_on_c, 1, 66, 80
3, 20732, Note_off_c, 1, 66, 100
3, 20736, Note_on_c, 1, 67, 80
3, 21116, Note_off_c, 1, 55, 100
3, 21116, Note_off_c, 1, 67, 100
3, 21120, Note_on_c, 1, 55, 80
3, 21500, Note_off_c, 1, 55, 100
3, 21504, Note_on_c, 1, 62, 80
3, 21884, Note_off_c, 1, 62, 100
3, 21888, Note_on_c, 1, 50, 80
3, 22268, Note_off_c, 1, 50, 100
3, 22272, Note_on_c, 1, 55, 80
3, 22652, Note_off_c, 1, 55, 100
3, 22656, Note_on_c, 1, 43, 80
3, 23036, Note_off_c, 1, 43, 100
3, 23040, Note_on_c, 1, 50, 80
3, 23420, Note_off_c, 1, 50, 100
3, 23424, Note_on_c, 1, 38, 80
3, 23804, Note_off_c, 1, 38, 100
3, 23808, Note_on_c, 1, 43, 80
3, 24188, Note_off_c, 1, 43, 100
3, 24192, Note_on_c, 1, 31, 80
3, 24572, Note_off_c, 1, 31, 100
3, 24576, Note_on_c, 1, 52, 80
3, 24620, Note_off_c, 1, 52, 100
3, 24624, Note_on_c, 1, 50, 80
3, 24760, Note_off_c, 1, 50, 100
3, 24768, Note_on_c, 1, 49, 80
3, 24956, Note_off_c, 1, 49, 100
3, 24960, Note_on_c, 1, 50, 80
3, 25148, Note_off_c, 1, 50, 100
3, 25152, Note_on_c, 1, 52, 80
3, 25340, Note_off_c, 1, 52, 100
3, 25344, Note_on_c, 1, 50, 80
3, 25724, Note_off_c, 1, 50, 100
3, 25728, Note_on_c, 1, 38, 80
3, 26112, Note_on_c, 1, 40, 80
3, 26492, Note_off_c, 1, 40, 100
3, 26496, Note_on_c, 1, 42, 80
3, 26876, Note_off_c, 1, 42, 100
3, 26880, Note_on_c, 1, 43, 80
3, 27644, Note_off_c, 1, 43, 100
3, 27648, Note_on_c, 1, 47, 80
3, 27836, Note_off_c, 1, 47, 100
3, 27840, Note_on_c, 1, 45, 80
3, 28028, Note_off_c, 1, 45, 100
3, 28032, Note_on_c, 1, 43, 80
3, 28220, Note_off_c, 1, 43, 100
3, 28224, Note_on_c, 1, 45, 80
3, 28412, Note_off_c, 1, 45, 100
3, 28416, Note_on_c, 1, 47, 80
3, 28796, Note_off_c, 1, 47, 100
3, 28800, Note_on_c, 1, 43, 80
3, 29180, Note_off_c, 1, 38, 100
3, 29180, Note_off_c, 1, 43, 100
3, 29184, Note_on_c, 1, 49, 80
3, 29184, Note_on_c, 1, 38, 80
3, 29564, Note_off_c, 1, 49, 100
3, 29568, Note_on_c, 1, 45, 80
3, 29948, Note_off_c, 1, 38, 100
3, 29948, Note_off_c, 1, 45, 100
3, 29952, Note_on_c, 1, 38, 80
3, 29952, Note_on_c, 1, 50, 80
3, 30716, Note_off_c, 1, 38, 100
3, 30716, Note_off_c, 1, 50, 100
3, 30720, Note_on_c, 1, 52, 80
3, 30764, Note_off_c, 1, 52, 100
3, 30768, Note_on_c, 1, 50, 80
3, 30904, Note_off_c, 1, 50, 100
3, 30912, Note_on_c, 1, 49, 80
3, 31100, Note_off_c, 1, 49, 100
3, 31104, Note_on_c, 1, 50, 80
3, 31292, Note_off_c, 1, 50, 100
3, 31296, Note_on_c, 1, 52, 80
3, 31484, Note_off_c, 1, 52, 100
3, 31488, Note_on_c, 1, 50, 80
3, 31868, Note_off_c, 1, 50, 100
3, 31872, Note_on_c, 1, 38, 80
3, 32256, Note_on_c, 1, 40, 80
3, 32636, Note_off_c, 1, 40, 100
3, 32640, Note_on_c, 1, 42, 80
3, 33020, Note_off_c, 1, 42, 100
3, 33024, Note_on_c, 1, 43, 80
3, 33788, Note_off_c, 1, 43, 100
3, 33792, Note_on_c, 1, 47, 80
3, 33980, Note_off_c, 1, 47, 100
3, 33984, Note_on_c, 1, 45, 80
3, 34172, Note_off_c, 1, 45, 100
3, 34176, Note_on_c, 1, 43, 80
3, 34364, Note_off_c, 1, 43, 100
3, 34368, Note_on_c, 1, 45, 80
3, 34556, Note_off_c, 1, 45, 100
3, 34560, Note_on_c, 1, 47, 80
3, 34940, Note_off_c, 1, 47, 100
3, 34944, Note_on_c, 1, 43, 80
3, 35324, Note_off_c, 1, 38, 100
3, 35324, Note_off_c, 1, 43, 100
3, 35328, Note_on_c, 1, 48, 80
3, 35328, Note_on_c, 1, 38, 80
3, 35708, Note_off_c, 1, 48, 100
3, 35712, Note_on_c, 1, 45, 80
3, 36092, Note_off_c, 1, 38, 100
3, 36092, Note_off_c, 1, 45, 100
3, 36096, Note_on_c, 1, 43, 80
3, 36096, Note_on_c, 1, 31, 80
3, 36476, Note_off_c, 1, 43, 100
3, 36476, Note_off_c, 1, 31, 100
3, 36480, Note_on_c, 1, 43, 80
3, 36864, Note_on_c, 1, 55, 80
3, 37244, Note_off_c, 1, 55, 100
3, 37248, Note_on_c, 1, 54, 80
3, 37628, Note_off_c, 1, 54, 100
3, 37632, Note_on_c, 1, 53, 80
3, 38012, Note_off_c, 1, 53, 100
3, 38016, Note_on_c, 1, 52, 80
3, 38396, Note_off_c, 1, 52, 100
3, 38400, Note_on_c, 1, 51, 80
3, 38780, Note_off_c, 1, 51, 100
3, 38784, Note_on_c, 1, 51, 80
3, 39164, Note_off_c, 1, 51, 100
3, 39168, Control_c, 1, 64, 127
3, 39168, Note_on_c, 1, 51, 80
3, 39548, Note_off_c, 1, 51, 100
3, 39552, Note_on_c, 1, 50, 80
3, 39928, Control_c, 1, 64, 0
3, 39932, Note_off_c, 1, 43, 100
3, 39932, Note_off_c, 1, 50, 100
3, 39936, Control_c, 1, 64, 127
3, 39936, Note_on_c, 1, 38, 80
3, 40060, Note_off_c, 1, 38, 100
3, 40064, Note_on_c, 1, 50, 80
3, 40188, Note_off_c, 1, 50, 100
3, 40192, Note_on_c, 1, 54, 80
3, 40316, Note_off_c, 1, 54, 100
3, 40320, Note_on_c, 1, 57, 80
3, 40444, Note_off_c, 1, 57, 100
3, 40448, Note_on_c, 1, 54, 80
3, 40572, Note_off_c, 1, 54, 100
3, 40576, Note_on_c, 1, 50, 80
3, 40696, Control_c, 1, 64, 0
3, 40700, Note_off_c, 1, 50, 100
3, 40704, Control_c, 1, 64, 127
3, 40704, Note_on_c, 1, 43, 80
3, 40828, Note_off_c, 1, 43, 100
3, 40832, Note_on_c, 1, 50, 80
3, 40956, Note_off_c, 1, 50, 100
3, 40960, Note_on_c, 1, 55, 80
3, 41084, Note_off_c, 1, 55, 100
3, 41088, Note_on_c, 1, 59, 80
3, 41212, Note_off_c, 1, 59, 100
3, 41216, Note_on_c, 1, 55, 80
3, 41340, Note_off_c, 1, 55, 100
3, 41344, Note_on_c, 1, 50, 80
3, 41464, Control_c, 1, 64, 0
3, 41468, Note_off_c, 1, 50, 100
3, 41472, Control_c, 1, 64, 127
3, 41472, Note_on_c, 1, 38, 80
3, 41596, Note_off_c, 1, 38, 100
3, 41600, Note_on_c, 1, 50, 80
3, 41724, Note_off_c, 1, 50, 100
3, 41728, Note_on_c, 1, 54, 80
3, 41852, Note_off_c, 1, 54, 100
3, 41856, Note_on_c, 1, 57, 80
3, 41980, Note_off_c, 1, 57, 100
3, 41984, Note_on_c, 1, 54, 80
3, 42108, Note_off_c, 1, 54, 100
3, 42112, Note_on_c, 1, 50, 80
3, 42232, Control_c, 1, 64, 0
3, 42236, Note_off_c, 1, 50, 100
3, 42240, Note_on_c, 1, 43, 80
3, 43776, Note_on_c, 1, 53, 87
3, 44156, Note_off_c, 1, 53, 100
3, 44160, Note_on_c, 1, 52, 91
3, 44540, Note_off_c, 1, 52, 100
3, 44544, Note_on_c, 1, 51, 95
3, 44924, Note_off_c, 1, 51, 100
3, 44928, Note_on_c, 1, 51, 99
3, 45308, Note_off_c, 1, 51, 100
3, 45312, Note_on_c, 1, 51, 103
3, 45692, Note_off_c, 1, 51, 100
3, 45696, Note_on_c, 1, 50, 107
3, 46076, Note_off_c, 1, 43, 100
3, 46076, Note_off_c, 1, 50, 100
3, 46080, Note_on_c, 1, 52, 80
3, 46080, Note_on_c, 1, 38, 80
3, 46268, Note_off_c, 1, 52, 100
3, 46272, Note_on_c, 1, 50, 80
3, 46460, Note_off_c, 1, 38, 100
3, 46460, Note_off_c, 1, 50, 100
3, 46464, Note_on_c, 1, 49, 80
3, 46652, Note_off_c, 1, 49, 100
3, 46656, Note_on_c, 1, 50, 80
3, 46844, Note_off_c, 1, 50, 100
3, 46848, Note_on_c, 1, 43, 80
3, 46848, Note_on_c, 1, 47, 80
3, 47228, Note_off_c, 1, 47, 100
3, 47232, Note_on_c, 1, 50, 80
3, 47612, Note_off_c, 1, 43, 100
3, 47612, Note_off_c, 1, 50, 100
3, 47616, Note_on_c, 1, 38, 80
3, 47616, Note_on_c, 1, 52, 80
3, 47804, Note_off_c, 1, 52, 100
3, 47808, Note_on_c, 1, 50, 80
3, 47996, Note_off_c, 1, 38, 100
3, 47996, Note_off_c, 1, 50, 100
3, 48000, Note_on_c, 1, 49, 80
3, 48188, Note_off_c, 1, 49, 100
3, 48192, Note_on_c, 1, 50, 80
3, 48380, Note_off_c, 1, 50, 100
3, 48384, Control_c, 1, 64, 127
3, 48384, Note_on_c, 1, 47, 80
3, 48384, Note_on_c, 1, 43, 80
3, 48764, Note_off_c, 1, 47, 100
3, 48764, Note_off_c, 1, 43, 100
3, 49144, Control_c, 1, 64, 0
3, 49152, Control_c, 1, 64, 127
3, 49152, Note_on_c, 1, 47, 80
3, 49276, Note_off_c, 1, 47, 100
3, 49280, Note_on_c, 1, 54, 80
3, 49404, Note_off_c, 1, 54, 100
3, 49408, Note_on_c, 1, 59, 80
3, 49532, Note_off_c, 1, 59, 100
3, 49536, Note_on_c, 1, 63, 80
3, 49660, Note_off_c, 1, 63, 100
3, 49664, Note_on_c, 1, 59, 80
3, 49788, Note_off_c, 1, 59, 100
3, 49792, Note_on_c, 1, 54, 80
3, 49912, Control_c, 1, 64, 0
3, 49916, Note_off_c, 1, 54, 100
3, 49920, Control_c, 1, 64, 127
3, 49920, Note_on_c, 1, 52, 80
3, 50044, Note_off_c, 1, 52, 100
3, 50048, Note_on_c, 1, 55, 80
3, 50172, Note_off_c, 1, 55, 100
3, 50176, Note_on_c, 1, 59, 80
3, 50300, Note_off_c, 1, 59, 100
3, 50304, Note_on_c, 1, 64, 80
3, 50428, Note_off_c, 1, 64, 100
3, 50432, Note_on_c, 1, 59, 80
3, 50556, Note_off_c, 1, 59, 100
3, 50560, Note_on_c, 1, 55, 80
3, 50680, Control_c, 1, 64, 0
3, 50684, Note_off_c, 1, 55, 100
3, 50688, Control_c, 1, 64, 127
3, 50688, Note_on_c, 1, 47, 80
3, 50812, Note_off_c, 1, 47, 100
3, 50816, Note_on_c, 1, 54, 80
3, 50940, Note_off_c, 1, 54, 100
3, 50944, Note_on_c, 1, 59, 80
3, 51068, Note_off_c, 1, 59, 100
3, 51072, Note_on_c, 1, 63, 80
3, 51196, Note_off_c, 1, 63, 100
3, 51200, Note_on_c, 1, 59, 80
3, 51324, Note_off_c, 1, 59, 100
3, 51328, Note_on_c, 1, 54, 80
3, 51448, Control_c, 1, 64, 0
3, 51452, Note_off_c, 1, 54, 100
3, 51456, Control_c, 1, 64, 127
3, 51456, Note_on_c, 1, 52, 80
3, 51580, Note_off_c, 1, 52, 100
3, 51584, Note_on_c, 1, 55, 80
3, 51708, Note_off_c, 1, 55, 100
3, 51712, Note_on_c, 1, 59, 80
3, 51836, Note_off_c, 1, 59, 100
3, 51840, Note_on_c, 1, 64, 80
3, 51964, Note_off_c, 1, 64, 100
3, 51968, Note_on_c, 1, 59, 80
3, 52092, Note_off_c, 1, 59, 100
3, 52096, Note_on_c, 1, 55, 80
3, 52216, Control_c, 1, 64, 0
3, 52220, Note_off_c, 1, 55, 100
3, 52224, Control_c, 1, 64, 127
3, 52224, Note_on_c, 1, 47, 80
3, 52412, Note_off_c, 1, 47, 100
3, 52416, Note_on_c, 1, 45, 80
3, 52604, Note_off_c, 1, 45, 100
3, 52608, Note_on_c, 1, 44, 80
3, 52796, Note_off_c, 1, 44, 100
3, 52800, Note_on_c, 1, 45, 80
3, 52984, Control_c, 1, 64, 0
3, 52988, Note_off_c, 1, 45, 100
3, 52992, Note_on_c, 1, 42, 80
3, 53372, Note_off_c, 1, 42, 100
3, 53376, Note_on_c, 1, 45, 80
3, 53756, Note_off_c, 1, 45, 100
3, 53760, Note_on_c, 1, 47, 80
3, 53948, Note_off_c, 1, 47, 100
3, 53952, Note_on_c, 1, 45, 80
3, 54140, Note_off_c, 1, 45, 100
3, 54144, Note_on_c, 1, 44, 80
3, 54332, Note_off_c, 1, 44, 100
3, 54336, Note_on_c, 1, 45, 80
3, 54524, Note_off_c, 1, 45, 100
3, 54528, Control_c, 1, 64, 127
3, 54528, Note_on_c, 1, 42, 80
3, 54908, Note_off_c, 1, 42, 100
3, 54912, Note_on_c, 1, 45, 80
3, 55288, Control_c, 1, 64, 0
3, 55292, Note_off_c, 1, 45, 100
3, 55296, Control_c, 1, 64, 127
3, 55296, Note_on_c, 1, 37, 80
3, 55420, Note_off_c, 1, 37, 100
3, 55424, Note_on_c, 1, 49, 83
3, 55548, Note_off_c, 1, 49, 100
3, 55552, Note_on_c, 1, 52, 85
3, 55676, Note_off_c, 1, 52, 100
3, 55680, Note_on_c, 1, 57, 88
3, 55804, Note_off_c, 1, 57, 100
3, 55808, Note_on_c, 1, 52, 91
3, 55932, Note_off_c, 1, 52, 100
3, 55936, Note_on_c, 1, 49, 94
3, 56056, Control_c, 1, 64, 0
3, 56060, Note_off_c, 1, 49, 100
3, 56064, Control_c, 1, 64, 127
3, 56064, Note_on_c, 1, 38, 97
3, 56188, Note_off_c, 1, 38, 100
3, 56192, Note_on_c, 1, 50, 100
3, 56316, Note_off_c, 1, 50, 100
3, 56320, Note_on_c, 1, 54, 102
3, 56444, Note_off_c, 1, 54, 100
3, 56448, Note_on_c, 1, 57, 105
3, 56572, Note_off_c, 1, 57, 100
3, 56576, Note_on_c, 1, 54, 108
3, 56700, Note_off_c, 1, 54, 100
3, 56704, Note_on_c, 1, 50, 80
3, 56824, Control_c, 1, 64, 0
3, 56828, Note_off_c, 1, 50, 100
3, 56832, Control_c, 1, 64, 127
3, 56832, Note_on_c, 1, 40, 110
3, 56956, Note_off_c, 1, 40, 100
3, 56960, Note_on_c, 1, 50, 110
3, 57084, Note_off_c, 1, 50, 100
3, 57088, Note_on_c, 1, 52, 110
3, 57212, Note_off_c, 1, 52, 100
3, 57216, Note_on_c, 1, 56, 110
3, 57340, Note_off_c, 1, 56, 100
3, 57344, Note_on_c, 1, 52, 110
3, 57468, Note_off_c, 1, 52, 100
3, 57472, Note_on_c, 1, 50, 110
3, 57592, Control_c, 1, 64, 0
3, 57596, Note_off_c, 1, 50, 100
3, 57600, Control_c, 1, 64, 127
3, 57600, Note_on_c, 1, 45, 110
3, 57724, Note_off_c, 1, 45, 100
3, 57728, Note_on_c, 1, 49, 110
3, 57852, Note_off_c, 1, 49, 100
3, 57856, Note_on_c, 1, 52, 110
3, 57980, Note_off_c, 1, 52, 100
3, 57984, Note_on_c, 1, 57, 110
3, 58108, Note_off_c, 1, 57, 100
3, 58112, Note_on_c, 1, 52, 110
3, 58236, Note_off_c, 1, 52, 100
3, 58240, Note_on_c, 1, 49, 110
3, 58360, Control_c, 1, 64, 0
3, 58364, Note_off_c, 1, 49, 100
3, 58368, Control_c, 1, 64, 127
3, 58368, Note_on_c, 1, 37, 80
3, 58492, Note_off_c, 1, 37, 100
3, 58496, Note_on_c, 1, 49, 82
3, 58620, Note_off_c, 1, 49, 100
3, 58624, Note_on_c, 1, 52, 85
3, 58748, Note_off_c, 1, 52, 100
3, 58752, Note_on_c, 1, 57, 88
3, 58876, Note_off_c, 1, 57, 100
3, 58880, Note_on_c, 1, 52, 91
3, 59004, Note_off_c, 1, 52, 100
3, 59008, Note_on_c, 1, 49, 94
3, 59128, Control_c, 1, 64, 0
3, 59132, Note_off_c, 1, 49, 100
3, 59136, Control_c, 1, 64, 127
3, 59136, Note_on_c, 1, 38, 97
3, 59260, Note_off_c, 1, 38, 100
3, 59264, Note_on_c, 1, 50, 99
3, 59388, Note_off_c, 1, 50, 100
3, 59392, Note_on_c, 1, 54, 102
3, 59516, Note_off_c, 1, 54, 100
3, 59520, Note_on_c, 1, 57, 105
3, 59644, Note_off_c, 1, 57, 100
3, 59648, Note_on_c, 1, 54, 108
3, 59772, Note_off_c, 1, 54, 100
3, 59776, Note_on_c, 1, 50, 80
3, 59896, Control_c, 1, 64, 0
3, 59900, Note_off_c, 1, 50, 100
3, 59904, Control_c, 1, 64, 127
3, 59904, Note_on_c, 1, 40, 110
3, 60028, Note_off_c, 1, 40, 100
3, 60032, Note_on_c, 1, 50, 110
3, 60156, Note_off_c, 1, 50, 100
3, 60160, Note_on_c, 1, 52, 110
3, 60284, Note_off_c, 1, 52, 100
3, 60288, Note_on_c, 1, 56, 110
3, 60412, Note_off_c, 1, 56, 100
3, 60416, Note_on_c, 1, 52, 110
3, 60540, Note_off_c, 1, 52, 100
3, 60544, Note_on_c, 1, 50, 110
3, 60664, Control_c, 1, 64, 0
3, 60668, Note_off_c, 1, 50, 100
3, 60672, Control_c, 1, 64, 127
3, 60672, Note_on_c, 1, 45, 110
3, 60796, Note_off_c, 1, 45, 100
3, 60800, Note_on_c, 1, 49, 110
3, 60924, Note_off_c, 1, 49, 100
3, 60928, Note_on_c, 1, 52, 110
3, 61052, Note_off_c, 1, 52, 100
3, 61056, Note_on_c, 1, 57, 110
3, 61180, Note_off_c, 1, 57, 100
3, 61184, Note_on_c, 1, 52, 110
3, 61308, Note_off_c, 1, 52, 100
3, 61312, Note_on_c, 1, 49, 110
3, 61432, Control_c, 1, 64, 0
3, 61436, Note_off_c, 1, 49, 100
3, 61440, Control_c, 1, 64, 127
3, 61440, Note_on_c, 1, 40, 110
3, 61564, Note_off_c, 1, 40, 100
3, 61568, Note_on_c, 1, 50, 110
3, 61692, Note_off_c, 1, 50, 100
3, 61696, Note_on_c, 1, 52, 110
3, 61820, Note_off_c, 1, 52, 100
3, 61824, Note_on_c, 1, 56, 110
3, 61948, Note_off_c, 1, 56, 100
3, 61952, Note_on_c, 1, 52, 110
3, 62076, Note_off_c, 1, 52, 100
3, 62080, Note_on_c, 1, 50, 110
3, 62200, Control_c, 1, 64, 0
3, 62204, Note_off_c, 1, 50, 100
3, 62208, Control_c, 1, 64, 127
3, 62208, Note_on_c, 1, 45, 110
3, 62332, Note_off_c, 1, 45, 100
3, 62336, Note_on_c, 1, 49, 110
3, 62460, Note_off_c, 1, 49, 100
3, 62464, Note_on_c, 1, 52, 110
3, 62588, Note_off_c, 1, 52, 100
3, 62592, Note_on_c, 1, 57, 110
3, 62716, Note_off_c, 1, 57, 100
3, 62720, Note_on_c, 1, 52, 110
3, 62844, Note_off_c, 1, 52, 100
3, 62848, Note_on_c, 1, 49, 110
3, 62968, Control_c, 1, 64, 0
3, 62972, Note_off_c, 1, 49, 100
3, 62976, Control_c, 1, 64, 127
3, 62976, Note_on_c, 1, 40, 110
3, 63100, Note_off_c, 1, 40, 100
3, 63104, Note_on_c, 1, 50, 110
3, 63228, Note_off_c, 1, 50, 100
3, 63232, Note_on_c, 1, 52, 110
3, 63356, Note_off_c, 1, 52, 100
3, 63360, Note_on_c, 1, 56, 110
3, 63484, Note_off_c, 1, 56, 100
3, 63488, Note_on_c, 1, 52, 110
3, 63612, Note_off_c, 1, 52, 100
3, 63616, Note_on_c, 1, 50, 110
3, 63736, Control_c, 1, 64, 0
3, 63740, Note_off_c, 1, 50, 100
3, 63744, Note_on_c, 1, 49, 110
3, 63744, Note_on_c, 1, 45, 110
3, 63836, Note_off_c, 1, 49, 100
3, 63840, Note_on_c, 1, 57, 80
3, 64124, Note_off_c, 1, 45, 100
3, 64512, Note_on_c, 1, 55, 80
3, 64892, Note_off_c, 1, 55, 100
3, 64896, Note_on_c, 1, 52, 80
3, 65276, Note_off_c, 1, 52, 100
3, 65280, Note_on_c, 1, 54, 80
3, 65660, Note_off_c, 1, 54, 100
3, 65664, Note_on_c, 1, 50, 80
3, 66044, Note_off_c, 1, 50, 100
3, 66048, Note_on_c, 1, 55, 80
3, 66428, Note_off_c, 1, 55, 100
3, 66432, Note_on_c, 1, 52, 80
3, 66812, Note_off_c, 1, 52, 100
3, 66816, Note_on_c, 1, 54, 80
3, 67196, Note_off_c, 1, 54, 100
3, 67200, Note_on_c, 1, 50, 80
3, 67580, Note_off_c, 1, 50, 100
3, 67584, Note_on_c, 1, 55, 80
3, 67964, Note_off_c, 1, 55, 100
3, 67968, Note_on_c, 1, 52, 80
3, 68348, Note_off_c, 1, 52, 100
3, 68352, Note_on_c, 1, 54, 80
3, 68732, Note_off_c, 1, 54, 100
3, 68736, Note_on_c, 1, 50, 80
3, 69116, Note_off_c, 1, 50, 100
3, 69120, Note_on_c, 1, 52, 80
3, 69500, Note_off_c, 1, 52, 100
3, 69504, Note_on_c, 1, 45, 80
3, 69884, Note_off_c, 1, 45, 100
3, 69888, Note_on_c, 1, 50, 80
3, 70268, Note_off_c, 1, 57, 100
3, 70268, Note_off_c, 1, 50, 100
3, 70272, Note_on_c, 1, 42, 80
3, 70652, Note_off_c, 1, 42, 100
3, 70656, Note_on_c, 1, 43, 80
3, 70656, Note_on_c, 1, 45, 80
3, 71036, Note_off_c, 1, 43, 100
3, 71040, Note_on_c, 1, 40, 80
3, 71420, Note_off_c, 1, 40, 100
3, 71424, Note_on_c, 1, 42, 80
3, 71804, Note_off_c, 1, 42, 100
3, 71808, Note_on_c, 1, 38, 80
3, 72188, Note_off_c, 1, 38, 100
3, 72192, Note_on_c, 1, 40, 80
3, 72572, Note_off_c, 1, 40, 100
3, 72576, Note_on_c, 1, 33, 80
3, 72956, Note_off_c, 1, 33, 100
3, 72960, Note_on_c, 1, 38, 80
3, 73340, Note_off_c, 1, 38, 100
3, 73344, Note_on_c, 1, 42, 80
3, 73724, Note_off_c, 1, 45, 100
3, 73724, Note_off_c, 1, 42, 100
3, 73728, Note_on_c, 1, 43, 80
3, 73728, Note_on_c, 1, 45, 80
3, 74108, Note_off_c, 1, 43, 100
3, 74112, Note_on_c, 1, 40, 80
3, 74492, Note_off_c, 1, 40, 100
3, 74496, Note_on_c, 1, 42, 80
3, 74876, Note_off_c, 1, 42, 100
3, 74880, Note_on_c, 1, 38, 80
3, 75260, Note_off_c, 1, 38, 100
3, 75264, Note_on_c, 1, 40, 80
3, 75644, Note_off_c, 1, 40, 100
3, 75648, Note_on_c, 1, 33, 80
3, 76028, Note_off_c, 1, 33, 100
3, 76032, Note_on_c, 1, 38, 80
3, 76412, Note_off_c, 1, 38, 100
3, 76416, Note_on_c, 1, 42, 80
3, 76796, Note_off_c, 1, 45, 100
3, 76796, Note_off_c, 1, 42, 100
3, 76800, Note_on_c, 1, 45, 80
3, 76800, Note_on_c, 1, 40, 80
3, 77180, Note_off_c, 1, 40, 100
3, 77184, Note_on_c, 1, 33, 80
3, 77564, Note_off_c, 1, 33, 100
3, 77568, Note_on_c, 1, 42, 80
3, 77948, Note_off_c, 1, 42, 100
3, 77952, Note_on_c, 1, 38, 80
3, 78332, Note_off_c, 1, 45, 100
3, 78332, Note_off_c, 1, 38, 100
3, 78336, Note_on_c, 1, 40, 80
3, 78336, Note_on_c, 1, 45, 80
3, 78716, Note_off_c, 1, 40, 100
3, 78720, Note_on_c, 1, 33, 80
3, 79100, Note_off_c, 1, 33, 100
3, 79104, Note_on_c, 1, 38, 80
3, 79484, Note_off_c, 1, 45, 100
3, 79484, Note_off_c, 1, 38, 100
3, 79488, Note_on_c, 1, 50, 80
3, 79868, Note_off_c, 1, 50, 100
3, 80256, Note_on_c, 1, 54, 80
3, 80256, Note_on_c, 1, 50, 80
3, 80636, Note_off_c, 1, 54, 100
3, 80636, Note_off_c, 1, 50, 100
3, 81024, Note_on_c, 1, 57, 80
3, 81024, Note_on_c, 1, 54, 80
3, 81024, Note_on_c, 1, 50, 80
3, 81404, Note_off_c, 1, 57, 100
3, 81404, Note_off_c, 1, 54, 100
3, 81404, Note_off_c, 1, 50, 100
3, 81792, Note_on_c, 1, 62, 80
3, 81792, Note_on_c, 1, 57, 80
3, 81792, Note_on_c, 1, 54, 80
3, 81792, Note_on_c, 1, 50, 80
3, 82172, Note_off_c, 1, 62, 100
3, 82172, Note_off_c, 1, 57, 100
3, 82172, Note_off_c, 1, 54, 100
3, 82172, Note_off_c, 1, 50, 100
3, 82560, Note_on_c, 1, 62, 83
3, 82560, Note_on_c, 1, 57, 83
3, 82560, Note_on_c, 1, 54, 83
3, 82940, Note_off_c, 1, 62, 100
3, 82940, Note_off_c, 1, 57, 100
3, 82940, Note_off_c, 1, 54, 100
3, 82944, Note_on_c, 1, 62, 87
3, 82944, Note_on_c, 1, 56, 87
3, 82944, Note_on_c, 1, 53, 87
3, 83324, Note_off_c, 1, 62, 100
3, 83324, Note_off_c, 1, 56, 100
3, 83324, Note_off_c, 1, 53, 100
3, 83328, Note_on_c, 1, 62, 91
3, 83328, Note_on_c, 1, 57, 91
3, 83328, Note_on_c, 1, 54, 91
3, 83708, Note_off_c, 1, 62, 100
3, 83708, Note_off_c, 1, 57, 100
3, 83708, Note_off_c, 1, 54, 100
3, 83712, Note_on_c, 1, 62, 95
3, 83712, Note_on_c, 1, 56, 95
3, 83712, Note_on_c, 1, 53, 95
3, 84092, Note_off_c, 1, 62, 100
3, 84092, Note_off_c, 1, 56, 100
3, 84092, Note_off_c, 1, 53, 100
3, 84096, Note_on_c, 1, 62, 98
3, 84096, Note_on_c, 1, 57, 98
3, 84096, Note_on_c, 1, 54, 98
3, 84476, Note_off_c, 1, 62, 100
3, 84476, Note_off_c, 1, 57, 100
3, 84476, Note_off_c, 1, 54, 100
3, 84480, Note_on_c, 1, 62, 102
3, 84480, Note_on_c, 1, 56, 102
3, 84480, Note_on_c, 1, 53, 102
3, 84860, Note_off_c, 1, 62, 100
3, 84860, Note_off_c, 1, 56, 100
3, 84860, Note_off_c, 1, 53, 100
3, 84864, Note_on_c, 1, 62, 106
3, 84864, Note_on_c, 1, 57, 106
3, 84864, Note_on_c, 1, 54, 106
3, 85244, Note_off_c, 1, 62, 100
3, 85244, Note_off_c, 1, 57, 100
3, 85244, Note_off_c, 1, 54, 100
3, 85248, Note_on_c, 1, 62, 110
3, 85248, Note_on_c, 1, 56, 110
3, 85248, Note_on_c, 1, 53, 110
3, 85628, Note_off_c, 1, 62, 100
3, 85628, Note_off_c, 1, 56, 100
3, 85628, Note_off_c, 1, 53, 100
3, 85632, Note_on_c, 1, 62, 108
3, 85632, Note_on_c, 1, 57, 108
3, 85632, Note_on_c, 1, 54, 108
3, 86012, Note_off_c, 1, 62, 100
3, 86012, Note_off_c, 1, 57, 100
3, 86012, Note_off_c, 1, 54, 100
3, 86016, Note_on_c, 1, 62, 105
3, 86016, Note_on_c, 1, 59, 105
3, 86016, Note_on_c, 1, 55, 105
3, 87164, Note_off_c, 1, 55, 100
3, 87164, Note_off_c, 1, 59, 100
3, 87164, Note_off_c, 1, 62, 100
3, 87168, Note_on_c, 1, 67, 98
3, 87168, Note_on_c, 1, 55, 98
3, 87548, Note_off_c, 1, 67, 100
3, 87548, Note_off_c, 1, 55, 100
3, 87552, Note_on_c, 1, 66, 95
3, 87552, Note_on_c, 1, 57, 95
3, 87932, Note_off_c, 1, 66, 100
3, 87932, Note_off_c, 1, 57, 100
3, 87936, Note_on_c, 1, 57, 93
3, 87936, Note_on_c, 1, 64, 93
3, 88316, Note_off_c, 1, 57, 100
3, 88316, Note_off_c, 1, 64, 100
3, 88704, Note_on_c, 1, 62, 83
3, 88704, Note_on_c, 1, 57, 83
3, 88704, Note_on_c, 1, 54, 83
3, 89084, Note_off_c, 1, 62, 100
3, 89084, Note_off_c, 1, 57, 100
3, 89084, Note_off_c, 1, 54, 100
3, 89088, Note_on_c, 1, 62, 87
3, 89088, Note_on_c, 1, 56, 87
3, 89088, Note_on_c, 1, 53, 87
3, 89468, Note_off_c, 1, 62, 100
3, 89468, Note_off_c, 1, 56, 100
3, 89468, Note_off_c, 1, 53, 100
3, 89472, Note_on_c, 1, 62, 91
3, 89472, Note_on_c, 1, 57, 91
3, 89472, Note_on_c, 1, 54, 91
3, 89852, Note_off_c, 1, 62, 100
3, 89852, Note_off_c, 1, 57, 100
3, 89852, Note_off_c, 1, 54, 100
3, 89856, Note_on_c, 1, 62, 95
3, 89856, Note_on_c, 1, 56, 95
3, 89856, Note_on_c, 1, 53, 95
3, 90236, Note_off_c, 1, 62, 100
3, 90236, Note_off_c, 1, 56, 100
3, 90236, Note_off_c, 1, 53, 100
3, 90240, Note_on_c, 1, 62, 98
3, 90240, Note_on_c, 1, 57, 98
3, 90240, Note_on_c, 1, 54, 98
3, 90620, Note_off_c, 1, 62, 100
3, 90620, Note_off_c, 1, 57, 100
3, 90620, Note_off_c, 1, 54, 100
3, 90624, Note_on_c, 1, 62, 102
3, 90624, Note_on_c, 1, 56, 102
3, 90624, Note_on_c, 1, 53, 102
3, 91004, Note_off_c, 1, 62, 100
3, 91004, Note_off_c, 1, 56, 100
3, 91004, Note_off_c, 1, 53, 100
3, 91008, Note_on_c, 1, 62, 106
3, 91008, Note_on_c, 1, 57, 106
3, 91008, Note_on_c, 1, 54, 106
3, 91388, Note_off_c, 1, 62, 100
3, 91388, Note_off_c, 1, 57, 100
3, 91388, Note_off_c, 1, 54, 100
3, 91392, Note_on_c, 1, 62, 110
3, 91392, Note_on_c, 1, 56, 110
3, 91392, Note_on_c, 1, 53, 110
3, 91772, Note_off_c, 1, 62, 100
3, 91772, Note_off_c, 1, 56, 100
3, 91772, Note_off_c, 1, 53, 100
3, 91776, Note_on_c, 1, 62, 110
3, 91776, Note_on_c, 1, 57, 110
3, 91776, Note_on_c, 1, 54, 110
3, 92156, Note_off_c, 1, 62, 100
3, 92156, Note_off_c, 1, 57, 100
3, 92156, Note_off_c, 1, 54, 100
3, 92160, Note_on_c, 1, 62, 110
3, 92160, Note_on_c, 1, 60, 110
3, 92160, Note_on_c, 1, 57, 110
3, 94844, Note_off_c, 1, 57, 100
3, 94844, Note_off_c, 1, 60, 100
3, 94844, Note_off_c, 1, 62, 100
3, 94848, Note_on_c, 1, 62, 110
3, 94848, Note_on_c, 1, 57, 110
3, 94848, Note_on_c, 1, 54, 110
3, 95228, Note_off_c, 1, 62, 100
3, 95228, Note_off_c, 1, 57, 100
3, 95228, Note_off_c, 1, 54, 100
3, 95232, Note_on_c, 1, 62, 110
3, 95232, Note_on_c, 1, 60, 110
3, 95232, Note_on_c, 1, 57, 110
3, 97536, Control_c, 1, 64, 127
3, 97660, Note_off_c, 1, 57, 100
3, 97660, Note_off_c, 1, 60, 100
3, 97660, Note_off_c, 1, 62, 100
3, 97664, Note_on_c, 1, 60, 80
3, 97788, Note_off_c, 1, 60, 100
3, 97792, Note_on_c, 1, 62, 80
3, 97916, Note_off_c, 1, 62, 100
3, 97920, Note_on_c, 1, 54, 80
3, 98044, Note_off_c, 1, 54, 100
3, 98048, Note_on_c, 1, 57, 80
3, 98172, Note_off_c, 1, 57, 100
3, 98176, Note_on_c, 1, 62, 80
3, 98296, Control_c, 1, 64, 0
3, 98300, Note_off_c, 1, 62, 100
3, 98304, Control_c, 1, 64, 127
3, 98304, Note_on_c, 1, 57, 80
3, 98428, Note_off_c, 1, 57, 100
3, 98432, Note_on_c, 1, 60, 80
3, 98556, Note_off_c, 1, 60, 100
3, 98560, Note_on_c, 1, 62, 80
3, 98684, Note_off_c, 1, 62, 100
3, 98688, Note_on_c, 1, 54, 80
3, 98812, Note_off_c, 1, 54, 100
3, 98816, Note_on_c, 1, 57, 80
3, 98940, Note_off_c, 1, 57, 100
3, 98944, Note_on_c, 1, 62, 80
3, 99064, Control_c, 1, 64, 0
3, 99068, Note_off_c, 1, 62, 100
3, 99072, Control_c, 1, 64, 127
3, 99072, Note_on_c, 1, 57, 80
3, 99196, Note_off_c, 1, 57, 100
3, 99200, Note_on_c, 1, 60, 80
3, 99324, Note_off_c, 1, 60, 100
3, 99328, Note_on_c, 1, 62, 80
3, 99452, Note_off_c, 1, 62, 100
3, 99456, Note_on_c, 1, 54, 80
3, 99580, Note_off_c, 1, 54, 100
3, 99584, Note_on_c, 1, 57, 80
3, 99708, Note_off_c, 1, 57, 100
3, 99712, Note_on_c, 1, 62, 80
3, 99832, Control_c, 1, 64, 0
3, 99836, Note_off_c, 1, 62, 100
3, 99840, Control_c, 1, 64, 127
3, 99840, Note_on_c, 1, 57, 80
3, 99964, Note_off_c, 1, 57, 100
3, 99968, Note_on_c, 1, 60, 80
3, 100092, Note_off_c, 1, 60, 100
3, 100096, Note_on_c, 1, 62, 80
3, 100220, Note_off_c, 1, 62, 100
3, 100224, Note_on_c, 1, 54, 80
3, 100348, Note_off_c, 1, 54, 100
3, 100352, Note_on_c, 1, 57, 80
3, 100476, Note_off_c, 1, 57, 100
3, 100480, Note_on_c, 1, 62, 80
3, 100600, Control_c, 1, 64, 0
3, 100604, Note_off_c, 1, 62, 100
3, 100608, Control_c, 1, 64, 127
3, 100608, Note_on_c, 1, 57, 80
3, 100732, Note_off_c, 1, 57, 100
3, 100736, Note_on_c, 1, 60, 80
3, 100860, Note_off_c, 1, 60, 100
3, 100864, Note_on_c, 1, 62, 80
3, 100988, Note_off_c, 1, 62, 100
3, 100992, Note_on_c, 1, 55, 80
3, 101116, Note_off_c, 1, 55, 100
3, 101120, Note_on_c, 1, 59, 80
3, 101244, Note_off_c, 1, 59, 100
3, 101248, Note_on_c, 1, 62, 80
3, 101368, Control_c, 1, 64, 0
3, 101372, Note_off_c, 1, 62, 100
3, 101376, Control_c, 1, 64, 127
3, 101376, Note_on_c, 1, 54, 80
3, 101500, Note_off_c, 1, 54, 100
3, 101504, Note_on_c, 1, 57, 80
3, 101628, Note_off_c, 1, 57, 100
3, 101632, Note_on_c, 1, 62, 80
3, 101756, Note_off_c, 1, 62, 100
3, 101760, Note_on_c, 1, 52, 80
3, 101884, Note_off_c, 1, 52, 100
3, 101888, Note_on_c, 1, 55, 80
3, 102012, Note_off_c, 1, 55, 100
3, 102016, Note_on_c, 1, 62, 80
3, 102136, Control_c, 1, 64, 0
3, 102140, Note_off_c, 1, 62, 100
3, 102144, Control_c, 1, 64, 127
3, 102144, Note_on_c, 1, 50, 80
3, 102268, Note_off_c, 1, 50, 100
3, 102272, Note_on_c, 1, 54, 80
3, 102396, Note_off_c, 1, 54, 100
3, 102400, Note_on_c, 1, 62, 80
3, 102524, Note_off_c, 1, 62, 100
3, 102528, Note_on_c, 1, 48, 80
3, 102652, Note_off_c, 1, 48, 100
3, 102656, Note_on_c, 1, 52, 80
3, 102780, Note_off_c, 1, 52, 100
3, 102784, Note_on_c, 1, 60, 80
3, 102904, Control_c, 1, 64, 0
3, 102908, Note_off_c, 1, 60, 100
3, 102912, Control_c, 1, 64, 127
3, 102912, Note_on_c, 1, 47, 80
3, 103036, Note_off_c, 1, 47, 100
3, 103040, Note_on_c, 1, 50, 80
3, 103164, Note_off_c, 1, 50, 100
3, 103168, Note_on_c, 1, 59, 80
3, 103292, Note_off_c, 1, 59, 100
3, 103296, Note_on_c, 1, 45, 80
3, 103420, Note_off_c, 1, 45, 100
3, 103424, Note_on_c, 1, 48, 80
3, 103548, Note_off_c, 1, 48, 100
3, 103552, Note_on_c, 1, 57, 80
3, 103672, Control_c, 1, 64, 0
3, 103676, Note_off_c, 1, 57, 100
3, 103680, Control_c, 1, 64, 127
3, 103680, Note_on_c, 1, 47, 80
3, 103804, Note_off_c, 1, 47, 100
3, 103808, Note_on_c, 1, 50, 80
3, 103932, Note_off_c, 1, 50, 100
3, 103936, Note_on_c, 1, 48, 80
3, 104060, Note_off_c, 1, 48, 100
3, 104064, Note_on_c, 1, 47, 80
3, 104188, Note_off_c, 1, 47, 100
3, 104192, Note_on_c, 1, 45, 80
3, 104316, Note_off_c, 1, 45, 100
3, 104320, Note_on_c, 1, 43, 80
3, 104440, Control_c, 1, 64, 0
3, 104444, Note_off_c, 1, 43, 100
3, 104448, Control_c, 1, 64, 127
3, 104448, Note_on_c, 1, 42, 80
3, 104572, Note_off_c, 1, 42, 100
3, 104576, Note_on_c, 1, 45, 80
3, 104700, Note_off_c, 1, 45, 100
3, 104704, Note_on_c, 1, 43, 80
3, 104828, Note_off_c, 1, 43, 100
3, 104832, Note_on_c, 1, 42, 80
3, 104956, Note_off_c, 1, 42, 100
3, 104960, Note_on_c, 1, 40, 80
3, 105084, Note_off_c, 1, 40, 100
3, 105088, Note_on_c, 1, 38, 80
3, 105208, Control_c, 1, 64, 0
3, 105212, Note_off_c, 1, 38, 100
3, 105216, Control_c, 1, 64, 127
3, 105216, Note_on_c, 1, 43, 80
3, 105340, Note_off_c, 1, 43, 100
3, 105344, Note_on_c, 1, 42, 80
3, 105468, Note_off_c, 1, 42, 100
3, 105472, Note_on_c, 1, 43, 80
3, 105596, Note_off_c, 1, 43, 100
3, 105600, Note_on_c, 1, 40, 80
3, 105724, Note_off_c, 1, 40, 100
3, 105728, Note_on_c, 1, 42, 80
3, 105852, Note_off_c, 1, 42, 100
3, 105856, Note_on_c, 1, 43, 80
3, 105976, Control_c, 1, 64, 0
3, 105980, Note_off_c, 1, 43, 100
3, 105984, Control_c, 1, 64, 127
3, 105984, Note_on_c, 1, 45, 80
3, 106108, Note_off_c, 1, 45, 100
3, 106112, Note_on_c, 1, 47, 80
3, 106236, Note_off_c, 1, 47, 100
3, 106240, Note_on_c, 1, 45, 80
3, 106364, Note_off_c, 1, 45, 100
3, 106368, Note_on_c, 1, 43, 80
3, 106492, Note_off_c, 1, 43, 100
3, 106496, Note_on_c, 1, 42, 80
3, 106620, Note_off_c, 1, 42, 100
3, 106624, Note_on_c, 1, 40, 80
3, 106744, Control_c, 1, 64, 0
3, 106748, Note_off_c, 1, 40, 100
3, 106752, Control_c, 1, 64, 127
3, 106752, Note_on_c, 1, 38, 80
3, 106876, Note_off_c, 1, 38, 100
3, 106880, Note_on_c, 1, 42, 80
3, 107004, Note_off_c, 1, 42, 100
3, 107008, Note_on_c, 1, 43, 80
3, 107132, Note_off_c, 1, 43, 100
3, 107136, Note_on_c, 1, 45, 80
3, 107260, Note_off_c, 1, 45, 100
3, 107264, Note_on_c, 1, 47, 80
3, 107388, Note_off_c, 1, 47, 100
3, 107392, Note_on_c, 1, 49, 80
3, 107512, Control_c, 1, 64, 0
3, 107516, Note_off_c, 1, 49, 100
3, 107520, Control_c, 1, 64, 127
3, 107520, Note_on_c, 1, 50, 80
3, 107644, Note_off_c, 1, 50, 100
3, 107648, Note_on_c, 1, 38, 80
3, 107772, Note_off_c, 1, 38, 100
3, 107776, Note_on_c, 1, 50, 80
3, 107900, Note_off_c, 1, 50, 100
3, 107904, Note_on_c, 1, 47, 80
3, 108028, Note_off_c, 1, 47, 100
3, 108032, Note_on_c, 1, 50, 80
3, 108156, Note_off_c, 1, 50, 100
3, 108160, Note_on_c, 1, 47, 80
3, 108280, Control_c, 1, 64, 0
3, 108284, Note_off_c, 1, 47, 100
3, 108288, Control_c, 1, 64, 127
3, 108288, Note_on_c, 1, 48, 80
3, 108412, Note_off_c, 1, 48, 100
3, 108416, Note_on_c, 1, 50, 80
3, 108540, Note_off_c, 1, 50, 100
3, 108544, Note_on_c, 1, 48, 80
3, 108668, Note_off_c, 1, 48, 100
3, 108672, Note_on_c, 1, 47, 80
3, 108796, Note_off_c, 1, 47, 100
3, 108800, Note_on_c, 1, 50, 80
3, 108924, Note_off_c, 1, 50, 100
3, 108928, Note_on_c, 1, 47, 80
3, 109048, Control_c, 1, 64, 0
3, 109052, Note_off_c, 1, 47, 100
3, 109056, Control_c, 1, 64, 127
3, 109056, Note_on_c, 1, 48, 80
3, 109180, Note_off_c, 1, 48, 100
3, 109184, Note_on_c, 1, 50, 80
3, 109308, Note_off_c, 1, 50, 100
3, 109312, Note_on_c, 1, 48, 80
3, 109436, Note_off_c, 1, 48, 100
3, 109440, Note_on_c, 1, 47, 80
3, 109564, Note_off_c, 1, 47, 100
3, 109568, Note_on_c, 1, 50, 80
3, 109692, Note_off_c, 1, 50, 100
3, 109696, Note_on_c, 1, 47, 80
3, 109816, Control_c, 1, 64, 0
3, 109820, Note_off_c, 1, 47, 100
3, 109824, Control_c, 1, 64, 127
3, 109824, Note_on_c, 1, 47, 80
3, 109948, Note_off_c, 1, 47, 100
3, 109952, Note_on_c, 1, 50, 80
3, 110076, Note_off_c, 1, 50, 100
3, 110080, Note_on_c, 1, 48, 80
3, 110204, Note_off_c, 1, 48, 100
3, 110208, Note_on_c, 1, 47, 80
3, 110332, Note_off_c, 1, 47, 100
3, 110336, Note_on_c, 1, 45, 80
3, 110460, Note_off_c, 1, 45, 100
3, 110464, Note_on_c, 1, 43, 80
3, 110584, Control_c, 1, 64, 0
3, 110588, Note_off_c, 1, 43, 100
3, 110592, Control_c, 1, 64, 127
3, 110592, Note_on_c, 1, 42, 80
3, 110716, Note_off_c, 1, 42, 100
3, 110720, Note_on_c, 1, 45, 80
3, 110844, Note_off_c, 1, 45, 100
3, 110848, Note_on_c, 1, 43, 80
3, 110972, Note_off_c, 1, 43, 100
3, 110976, Note_on_c, 1, 42, 80
3, 111100, Note_off_c, 1, 42, 100
3, 111104, Note_on_c, 1, 40, 80
3, 111228, Note_off_c, 1, 40, 100
3, 111232, Note_on_c, 1, 38, 80
3, 111352, Control_c, 1, 64, 0
3, 111356, Note_off_c, 1, 38, 100
3, 111360, Control_c, 1, 64, 127
3, 111360, Note_on_c, 1, 43, 80
3, 111484, Note_off_c, 1, 43, 100
3, 111488, Note_on_c, 1, 42, 80
3, 111612, Note_off_c, 1, 42, 100
3, 111616, Note_on_c, 1, 43, 80
3, 111740, Note_off_c, 1, 43, 100
3, 111744, Note_on_c, 1, 40, 80
3, 111868, Note_off_c, 1, 40, 100
3, 111872, Note_on_c, 1, 39, 80
3, 111996, Note_off_c, 1, 39, 100
3, 112000, Note_on_c, 1, 40, 80
3, 112120, Control_c, 1, 64, 0
3, 112124, Note_off_c, 1, 40, 100
3, 112128, Control_c, 1, 64, 127
3, 112128, Note_on_c, 1, 36, 80
3, 112252, Note_off_c, 1, 36, 100
3, 112256, Note_on_c, 1, 35, 80
3, 112380, Note_off_c, 1, 35, 100
3, 112384, Note_on_c, 1, 36, 80
3, 112508, Note_off_c, 1, 36, 100
3, 112512, Note_on_c, 1, 38, 80
3, 112636, Note_off_c, 1, 38, 100
3, 112640, Note_on_c, 1, 37, 80
3, 112764, Note_off_c, 1, 37, 100
3, 112768, Note_on_c, 1, 38, 80
3, 112888, Control_c, 1, 64, 0
3, 112892, Note_off_c, 1, 38, 100
3, 112896, Control_c, 1, 64, 127
3, 112896, Note_on_c, 1, 31, 80
3, 113020, Note_off_c, 1, 31, 100
3, 113024, Note_on_c, 1, 35, 80
3, 113148, Note_off_c, 1, 35, 100
3, 113152, Note_on_c, 1, 38, 80
3, 113276, Note_off_c, 1, 38, 100
3, 113280, Note_on_c, 1, 43, 80
3, 113404, Note_off_c, 1, 43, 100
3, 113408, Note_on_c, 1, 47, 80
3, 113532, Note_off_c, 1, 47, 100
3, 113536, Note_on_c, 1, 50, 80
3, 113656, Control_c, 1, 64, 0
3, 113660, Note_off_c, 1, 50, 100
3, 113664, Control_c, 1, 64, 127
3, 113664, Note_on_c, 1, 43, 80
3, 113852, Note_off_c, 1, 43, 100
3, 113856, Note_on_c, 1, 55, 81
3, 114044, Note_off_c, 1, 55, 100
3, 114048, Note_on_c, 1, 45, 83
3, 114236, Note_off_c, 1, 45, 100
3, 114240, Note_on_c, 1, 57, 85
3, 114424, Control_c, 1, 64, 0
3, 114428, Note_off_c, 1, 57, 100
3, 114432, Control_c, 1, 64, 127
3, 114432, Note_on_c, 1, 47, 87
3, 114620, Note_off_c, 1, 47, 100
3, 114624, Note_on_c, 1, 59, 89
3, 114812, Note_off_c, 1, 59, 100
3, 114816, Note_on_c, 1, 48, 91
3, 115004, Note_off_c, 1, 48, 100
3, 115008, Note_on_c, 1, 60, 93
3, 115192, Control_c, 1, 64, 0
3, 115196, Note_off_c, 1, 60, 100
3, 115200, Control_c, 1, 64, 127
3, 115200, Note_on_c, 1, 51, 95
3, 115388, Note_off_c, 1, 51, 100
3, 115392, Note_on_c, 1, 63, 97
3, 115580, Note_off_c, 1, 63, 100
3, 115584, Note_on_c, 1, 54, 99
3, 115772, Note_off_c, 1, 54, 100
3, 115776, Note_on_c, 1, 66, 80
3, 115960, Control_c, 1, 64, 0
3, 115964, Note_off_c, 1, 66, 100
3, 115968, Control_c, 1, 64, 127
3, 115968, Note_on_c, 1, 55, 80
3, 116156, Note_off_c, 1, 55, 100
3, 116160, Note_on_c, 1, 67, 80
3, 116348, Note_off_c, 1, 67, 100
3, 116352, Note_on_c, 1, 43, 80
3, 116540, Note_off_c, 1, 43, 100
3, 116544, Note_on_c, 1, 55, 80
3, 116728, Control_c, 1, 64, 0
3, 116732, Note_off_c, 1, 55, 100
3, 116736, Control_c, 1, 64, 127
3, 116736, Note_on_c, 1, 50, 80
3, 116924, Note_off_c, 1, 50, 100
3, 116928, Note_on_c, 1, 62, 80
3, 117116, Note_off_c, 1, 62, 100
3, 117120, Note_on_c, 1, 38, 80
3, 117308, Note_off_c, 1, 38, 100
3, 117312, Note_on_c, 1, 50, 80
3, 117496, Control_c, 1, 64, 0
3, 117500, Note_off_c, 1, 50, 100
3, 117504, Control_c, 1, 64, 127
3, 117504, Note_on_c, 1, 43, 80
3, 117692, Note_off_c, 1, 43, 100
3, 117696, Note_on_c, 1, 55, 80
3, 117884, Note_off_c, 1, 55, 100
3, 117888, Note_on_c, 1, 31, 80
3, 118076, Note_off_c, 1, 31, 100
3, 118080, Note_on_c, 1, 43, 80
3, 118264, Control_c, 1, 64, 0
3, 118268, Note_off_c, 1, 43, 100
3, 118272, Control_c, 1, 64, 127
3, 118272, Note_on_c, 1, 38, 80
3, 118460, Note_off_c, 1, 38, 100
3, 118464, Note_on_c, 1, 50, 80
3, 118652, Note_off_c, 1, 50, 100
3, 118656, Note_on_c, 1, 38, 80
3, 118844, Note_off_c, 1, 38, 100
3, 118848, Note_on_c, 1, 50, 80
3, 119032, Control_c, 1, 64, 0
3, 119036, Note_off_c, 1, 50, 100
3, 119040, Control_c, 1, 64, 127
3, 119040, Note_on_c, 1, 31, 80
3, 119164, Note_off_c, 1, 31, 100
3, 119168, Note_on_c, 1, 35, 80
3, 119292, Note_off_c, 1, 35, 100
3, 119296, Note_on_c, 1, 38, 80
3, 119420, Note_off_c, 1, 38, 100
3, 119424, Note_on_c, 1, 43, 80
3, 119548, Note_off_c, 1, 43, 100
3, 119552, Note_on_c, 1, 42, 80
3, 119676, Note_off_c, 1, 42, 100
3, 119680, Note_on_c, 1, 43, 80
3, 119800, Control_c, 1, 64, 0
3, 119804, Note_off_c, 1, 43, 100
3, 119808, Control_c, 1, 64, 127
3, 119808, Note_on_c, 1, 31, 80
3, 119996, Note_off_c, 1, 31, 100
3, 120000, Note_on_c, 1, 43, 81
3, 120188, Note_off_c, 1, 43, 100
3, 120192, Note_on_c, 1, 33, 83
3, 120380, Note_off_c, 1, 33, 100
3, 120384, Note_on_c, 1, 45, 85
3, 120568, Control_c, 1, 64, 0
3, 120572, Note_off_c, 1, 45, 100
3, 120576, Control_c, 1, 64, 127
3, 120576, Note_on_c, 1, 35, 87
3, 120764, Note_off_c, 1, 35, 100
3, 120768, Note_on_c, 1, 47, 89
3, 120956, Note_off_c, 1, 47, 100
3, 120960, Note_on_c, 1, 36, 91
3, 121148, Note_off_c, 1, 36, 100
3, 121152, Note_on_c, 1, 48, 93
3, 121336, Control_c, 1, 64, 0
3, 121340, Note_off_c, 1, 48, 100
3, 121344, Control_c, 1, 64, 127
3, 121344, Note_on_c, 1, 39, 95
3, 121532, Note_off_c, 1, 39, 100
3, 121536, Note_on_c, 1, 51, 97
3, 121724, Note_off_c, 1, 51, 100
3, 121728, Note_on_c, 1, 42, 99
3, 121916, Note_off_c, 1, 42, 100
3, 121920, Note_on_c, 1, 54, 80
3, 122104, Control_c, 1, 64, 0
3, 122108, Note_off_c, 1, 54, 100
3, 122112, Control_c, 1, 64, 127
3, 122112, Note_on_c, 1, 43, 80
3, 122300, Note_off_c, 1, 43, 100
3, 122304, Note_on_c, 1, 55, 80
3, 122492, Note_off_c, 1, 55, 100
3, 122496, Note_on_c, 1, 47, 80
3, 122684, Note_off_c, 1, 47, 100
3, 122688, Note_on_c, 1, 59, 80
3, 122872, Control_c, 1, 64, 0
3, 122876, Note_off_c, 1, 59, 100
3, 122880, Control_c, 1, 64, 127
3, 122880, Note_on_c, 1, 50, 80
3, 123068, Note_off_c, 1, 50, 100
3, 123072, Note_on_c, 1, 62, 80
3, 123260, Note_off_c, 1, 62, 100
3, 123264, Note_on_c, 1, 38, 80
3, 123452, Note_off_c, 1, 38, 100
3, 123456, Note_on_c, 1, 50, 80
3, 123640, Control_c, 1, 64, 0
3, 123644, Note_off_c, 1, 50, 100
3, 123648, Control_c, 1, 64, 127
3, 123648, Note_on_c, 1, 43, 80
3, 123836, Note_off_c, 1, 43, 100
3, 123840, Note_on_c, 1, 55, 80
3, 124028, Note_off_c, 1, 55, 100
3, 124032, Note_on_c, 1, 31, 80
3, 124220, Note_off_c, 1, 31, 100
3, 124224, Note_on_c, 1, 43, 80
3, 124408, Control_c, 1, 64, 0
3, 124412, Note_off_c, 1, 43, 100
3, 124416, Control_c, 1, 64, 127
3, 124416, Note_on_c, 1, 38, 80
3, 124604, Note_off_c, 1, 38, 100
3, 124608, Note_on_c, 1, 50, 80
3, 124796, Note_off_c, 1, 50, 100
3, 124800, Note_on_c, 1, 38, 80
3, 124988, Note_off_c, 1, 38, 100
3, 124992, Note_on_c, 1, 50, 80
3, 125176, Control_c, 1, 64, 0
3, 125180, Note_off_c, 1, 50, 100
3, 125184, Control_c, 1, 64, 127
3, 125184, Note_on_c, 1, 31, 80
3, 125564, Note_off_c, 1, 31, 100
3, 125568, Note_on_c, 1, 43, 80
3, 125944, Control_c, 1, 64, 0
3, 125948, Note_off_c, 1, 43, 100
3, 125952, Control_c, 1, 64, 127
3, 125952, Note_on_c, 1, 51, 80
3, 125996, Note_off_c, 1, 51, 100
3, 126000, Note_on_c, 1, 50, 80
3, 126132, Note_off_c, 1, 50, 100
3, 126144, Note_on_c, 1, 49, 80
3, 126332, Note_off_c, 1, 49, 100
3, 126336, Note_on_c, 1, 50, 80
3, 126524, Note_off_c, 1, 50, 100
3, 126528, Note_on_c, 1, 51, 80
3, 126712, Control_c, 1, 64, 0
3, 126716, Note_off_c, 1, 51, 100
3, 126720, Note_on_c, 1, 50, 80
3, 127100, Note_off_c, 1, 50, 100
3, 127104, Note_on_c, 1, 38, 80
3, 127488, Note_on_c, 1, 40, 80
3, 127868, Note_off_c, 1, 40, 100
3, 127872, Note_on_c, 1, 42, 80
3, 128252, Note_off_c, 1, 42, 100
3, 128256, Note_on_c, 1, 43, 80
3, 129020, Note_off_c, 1, 43, 100
3, 129024, Note_on_c, 1, 46, 80
3, 129212, Note_off_c, 1, 46, 100
3, 129216, Note_on_c, 1, 45, 80
3, 129404, Note_off_c, 1, 45, 100
3, 129408, Note_on_c, 1, 43, 80
3, 129596, Note_off_c, 1, 43, 100
3, 129600, Note_on_c, 1, 45, 80
3, 129788, Note_off_c, 1, 45, 100
3, 129792, Note_on_c, 1, 46, 80
3, 130172, Note_off_c, 1, 46, 100
3, 130176, Note_on_c, 1, 43, 80
3, 130556, Note_off_c, 1, 38, 100
3, 130556, Note_off_c, 1, 43, 100
3, 130560, Note_on_c, 1, 49, 80
3, 130560, Note_on_c, 1, 38, 80
3, 130940, Note_off_c, 1, 49, 100
3, 130944, Note_on_c, 1, 45, 80
3, 131324, Note_off_c, 1, 38, 100
3, 131324, Note_off_c, 1, 45, 100
3, 131328, Control_c, 1, 64, 127
3, 131328, Note_on_c, 1, 50, 80
3, 131328, Note_on_c, 1, 38, 80
3, 132088, Control_c, 1, 64, 0
3, 132092, Note_off_c, 1, 50, 100
3, 132092, Note_off_c, 1, 38, 100
3, 132096, Control_c, 1, 64, 127
3, 132096, Note_on_c, 1, 51, 80
3, 132140, Note_off_c, 1, 51, 100
3, 132144, Note_on_c, 1, 50, 80
3, 132276, Note_off_c, 1, 50, 100
3, 132288, Note_on_c, 1, 49, 80
3, 132476, Note_off_c, 1, 49, 100
3, 132480, Note_on_c, 1, 50, 80
3, 132668, Note_off_c, 1, 50, 100
3, 132672, Note_on_c, 1, 51, 80
3, 132856, Control_c, 1, 64, 0
3, 132860, Note_off_c, 1, 51, 100
3, 132864, Note_on_c, 1, 50, 80
3, 133244, Note_off_c, 1, 50, 100
3, 133248, Note_on_c, 1, 38, 80
3, 133628, Note_off_c, 1, 38, 100
3, 133632, Note_on_c, 1, 40, 80
3, 134012, Note_off_c, 1, 40, 100
3, 134016, Note_on_c, 1, 42, 81
3, 134396, Note_off_c, 1, 42, 100
3, 134400, Note_on_c, 1, 43, 83
3, 135164, Note_off_c, 1, 43, 100
3, 135168, Note_on_c, 1, 46, 87
3, 135356, Note_off_c, 1, 46, 100
3, 135360, Note_on_c, 1, 45, 88
3, 135548, Note_off_c, 1, 45, 100
3, 135552, Note_on_c, 1, 43, 89
3, 135740, Note_off_c, 1, 43, 100
3, 135744, Note_on_c, 1, 45, 89
3, 135932, Note_off_c, 1, 45, 100
3, 135936, Note_on_c, 1, 46, 90
3, 136316, Note_off_c, 1, 46, 100
3, 136320, Note_on_c, 1, 43, 92
3, 136700, Note_off_c, 1, 43, 100
3, 136704, Note_on_c, 1, 48, 94
3, 137084, Note_off_c, 1, 48, 100
3, 137088, Note_on_c, 1, 45, 96
3, 137468, Note_off_c, 1, 45, 100
3, 137472, Note_on_c, 1, 50, 98
3, 137852, Note_off_c, 1, 50, 100
3, 137856, Note_on_c, 1, 47, 99
3, 138236, Note_off_c, 1, 47, 100
3, 138240, Note_on_c, 1, 51, 110
3, 138240, Note_on_c, 1, 60, 110
3, 138620, Note_off_c, 1, 51, 100
3, 138620, Note_off_c, 1, 60, 100
3, 138624, Note_on_c, 1, 50, 110
3, 138624, Note_on_c, 1, 57, 110
3, 139004, Note_off_c, 1, 50, 100
3, 139004, Note_off_c, 1, 57, 100
3, 139008, Note_on_c, 1, 62, 110
3, 139008, Note_on_c, 1, 53, 110
3, 139772, Note_off_c, 1, 62, 100
3, 139772, Note_off_c, 1, 53, 100
3, 139776, Note_on_c, 1, 43, 110
3, 139964, Note_off_c, 1, 43, 100
3, 139968, Note_on_c, 1, 42, 110
3, 140156, Note_off_c, 1, 42, 100
3, 140160, Note_on_c, 1, 43, 110
3, 140348, Note_off_c, 1, 43, 100
3, 140352, Note_on_c, 1, 44, 110
3, 140540, Note_off_c, 1, 44, 100
3, 140544, Note_on_c, 1, 43, 110
3, 140924, Note_off_c, 1, 43, 100
3, 140928, Note_on_c, 1, 31, 110
3, 141308, Note_off_c, 1, 31, 100
3, 141312, Note_on_c, 1, 33, 110
3, 141692, Note_off_c, 1, 33, 100
3, 141696, Note_on_c, 1, 35, 110
3, 142076, Note_off_c, 1, 35, 100
3, 142080, Note_on_c, 1, 36, 110
3, 142844, Note_off_c, 1, 36, 100
3, 142848, Note_on_c, 1, 39, 110
3, 143036, Note_off_c, 1, 39, 100
3, 143040, Note_on_c, 1, 38, 110
3, 143228, Note_off_c, 1, 38, 100
3, 143232, Note_on_c, 1, 36, 110
3, 143420, Note_off_c, 1, 36, 100
3, 143424, Note_on_c, 1, 38, 110
3, 143612, Note_off_c, 1, 38, 100
3, 143616, Note_on_c, 1, 39, 110
3, 143996, Note_off_c, 1, 39, 100
3, 144000, Note_on_c, 1, 36, 110
3, 144380, Note_off_c, 1, 36, 100
3, 144384, Note_on_c, 1, 41, 110
3, 144764, Note_off_c, 1, 41, 100
3, 144768, Note_on_c, 1, 38, 110
3, 145148, Note_off_c, 1, 38, 100
3, 145152, Note_on_c, 1, 43, 110
3, 145916, Note_off_c, 1, 43, 100
3, 145920, Note_on_c, 1, 46, 110
3, 146108, Note_off_c, 1, 46, 100
3, 146112, Note_on_c, 1, 44, 110
3, 146300, Note_off_c, 1, 44, 100
3, 146304, Note_on_c, 1, 43, 110
3, 146492, Note_off_c, 1, 43, 100
3, 146496, Note_on_c, 1, 44, 110
3, 146684, Note_off_c, 1, 44, 100
3, 146688, Note_on_c, 1, 46, 110
3, 147068, Note_off_c, 1, 46, 100
3, 147072, Note_on_c, 1, 43, 110
3, 147452, Note_off_c, 1, 43, 100
3, 147456, Note_on_c, 1, 48, 110
3, 147836, Note_off_c, 1, 48, 100
3, 147840, Note_on_c, 1, 45, 110
3, 148220, Note_off_c, 1, 45, 100
3, 148224, Note_on_c, 1, 46, 80
3, 148988, Note_off_c, 1, 46, 100
3, 148992, Note_on_c, 1, 34, 80
3, 149756, Note_off_c, 1, 34, 100
3, 149760, Control_c, 1, 64, 127
3, 149760, Note_on_c, 1, 39, 80
3, 149884, Note_off_c, 1, 39, 100
3, 149888, Note_on_c, 1, 50, 80
3, 150012, Note_off_c, 1, 50, 100
3, 150016, Note_on_c, 1, 51, 80
3, 150140, Note_off_c, 1, 51, 100
3, 150144, Note_on_c, 1, 41, 80
3, 150268, Note_off_c, 1, 41, 100
3, 150272, Note_on_c, 1, 51, 80
3, 150396, Note_off_c, 1, 51, 100
3, 150400, Note_on_c, 1, 53, 80
3, 150520, Control_c, 1, 64, 0
3, 150524, Note_off_c, 1, 53, 100
3, 150528, Control_c, 1, 64, 127
3, 150528, Note_on_c, 1, 43, 110
3, 150652, Note_off_c, 1, 43, 100
3, 150656, Note_on_c, 1, 51, 110
3, 150780, Note_off_c, 1, 51, 100
3, 150784, Note_on_c, 1, 55, 110
3, 150908, Note_off_c, 1, 55, 100
3, 150912, Note_on_c, 1, 39, 110
3, 151036, Note_off_c, 1, 39, 100
3, 151040, Note_on_c, 1, 50, 110
3, 151164, Note_off_c, 1, 50, 100
3, 151168, Note_on_c, 1, 51, 110
3, 151288, Control_c, 1, 64, 0
3, 151292, Note_off_c, 1, 51, 100
3, 151296, Control_c, 1, 64, 127
3, 151296, Note_on_c, 1, 41, 110
3, 151420, Note_off_c, 1, 41, 100
3, 151424, Note_on_c, 1, 51, 110
3, 151548, Note_off_c, 1, 51, 100
3, 151552, Note_on_c, 1, 53, 110
3, 151676, Note_off_c, 1, 53, 100
3, 151680, Note_on_c, 1, 43, 110
3, 151804, Note_off_c, 1, 43, 100
3, 151808, Note_on_c, 1, 51, 110
3, 151932, Note_off_c, 1, 51, 100
3, 151936, Note_on_c, 1, 55, 110
3, 152056, Control_c, 1, 64, 0
3, 152060, Note_off_c, 1, 55, 100
3, 152064, Control_c, 1, 64, 127
3, 152064, Note_on_c, 1, 44, 110
3, 152188, Note_off_c, 1, 44, 100
3, 152192, Note_on_c, 1, 51, 110
3, 152316, Note_off_c, 1, 51, 100
3, 152320, Note_on_c, 1, 56, 110
3, 152444, Note_off_c, 1, 56, 100
3, 152448, Note_on_c, 1, 41, 110
3, 152572, Note_off_c, 1, 41, 100
3, 152576, Note_on_c, 1, 51, 110
3, 152700, Note_off_c, 1, 51, 100
3, 152704, Note_on_c, 1, 53, 110
3, 152824, Control_c, 1, 64, 0
3, 152828, Note_off_c, 1, 53, 100
3, 152832, Control_c, 1, 64, 127
3, 152832, Note_on_c, 1, 43, 110
3, 152956, Note_off_c, 1, 43, 100
3, 152960, Note_on_c, 1, 51, 110
3, 153084, Note_off_c, 1, 51, 100
3, 153088, Note_on_c, 1, 55, 110
3, 153212, Note_off_c, 1, 55, 100
3, 153216, Note_on_c, 1, 44, 110
3, 153340, Note_off_c, 1, 44, 100
3, 153344, Note_on_c, 1, 51, 110
3, 153468, Note_off_c, 1, 51, 100
3, 153472, Note_on_c, 1, 56, 110
3, 153592, Control_c, 1, 64, 0
3, 153596, Note_off_c, 1, 56, 100
3, 153600, Control_c, 1, 64, 127
3, 153600, Note_on_c, 1, 46, 110
3, 153724, Note_off_c, 1, 46, 100
3, 153728, Note_on_c, 1, 51, 80
3, 153852, Note_off_c, 1, 51, 100
3, 153856, Note_on_c, 1, 58, 80
3, 153980, Note_off_c, 1, 58, 100
3, 153984, Note_on_c, 1, 43, 80
3, 154108, Note_off_c, 1, 43, 100
3, 154112, Note_on_c, 1, 51, 80
3, 154236, Note_off_c, 1, 51, 100
3, 154240, Note_on_c, 1, 55, 80
3, 154360, Control_c, 1, 64, 0
3, 154364, Note_off_c, 1, 55, 100
3, 154368, Control_c, 1, 64, 127
3, 154368, Note_on_c, 1, 44, 80
3, 154492, Note_off_c, 1, 44, 100
3, 154496, Note_on_c, 1, 51, 80
3, 154620, Note_off_c, 1, 51, 100
3, 154624, Note_on_c, 1, 56, 80
3, 154748, Note_off_c, 1, 56, 100
3, 154752, Note_on_c, 1, 43, 80
3, 154876, Note_off_c, 1, 43, 100
3, 154880, Note_on_c, 1, 51, 80
3, 155004, Note_off_c, 1, 51, 100
3, 155008, Note_on_c, 1, 55, 80
3, 155128, Control_c, 1, 64, 0
3, 155132, Note_off_c, 1, 55, 100
3, 155136, Control_c, 1, 64, 127
3, 155136, Note_on_c, 1, 41, 80
3, 155260, Note_off_c, 1, 41, 100
3, 155264, Note_on_c, 1, 51, 80
3, 155388, Note_off_c, 1, 51, 100
3, 155392, Note_on_c, 1, 53, 80
3, 155516, Note_off_c, 1, 53, 100
3, 155520, Note_on_c, 1, 46, 80
3, 155644, Note_off_c, 1, 46, 100
3, 155648, Note_on_c, 1, 53, 80
3, 155772, Note_off_c, 1, 53, 100
3, 155776, Note_on_c, 1, 58, 80
3, 155896, Control_c, 1, 64, 0
3, 155900, Note_off_c, 1, 58, 100
3, 155904, Note_on_c, 1, 51, 80
3, 155904, Note_on_c, 1, 39, 80
3, 156284, Note_off_c, 1, 51, 100
3, 156284, Note_off_c, 1, 39, 100
3, 156288, Note_on_c, 1, 70, 80
3, 156288, Note_on_c, 1, 67, 80
3, 156668, Note_off_c, 1, 70, 100
3, 156668, Note_off_c, 1, 67, 100
3, 156672, Note_on_c, 1, 68, 80
3, 156672, Note_on_c, 1, 65, 80
3, 157052, Note_off_c, 1, 68, 100
3, 157052, Note_off_c, 1, 65, 100
3, 157056, Note_on_c, 1, 67, 80
3, 157056, Note_on_c, 1, 63, 80
3, 157436, Note_off_c, 1, 67, 100
3, 157436, Note_off_c, 1, 63, 100
3, 157440, Note_on_c, 1, 65, 80
3, 157440, Note_on_c, 1, 62, 80
3, 157820, Note_off_c, 1, 65, 100
3, 157820, Note_off_c, 1, 62, 100
3, 157824, Note_on_c, 1, 56, 80
3, 157824, Note_on_c, 1, 58, 80
3, 158204, Note_off_c, 1, 56, 100
3, 158208, Note_on_c, 1, 55, 80
3, 158588, Note_off_c, 1, 58, 100
3, 158588, Note_off_c, 1, 55, 100
3, 158592, Note_on_c, 1, 53, 80
3, 158592, Note_on_c, 1, 58, 80
3, 158972, Note_off_c, 1, 53, 100
3, 158972, Note_off_c, 1, 58, 100
3, 158976, Note_on_c, 1, 58, 80
3, 158976, Note_on_c, 1, 51, 80
3, 159356, Note_off_c, 1, 58, 100
3, 159356, Note_off_c, 1, 51, 100
3, 159360, Note_on_c, 1, 63, 80
3, 159360, Note_on_c, 1, 67, 80
3, 159740, Note_off_c, 1, 63, 100
3, 159740, Note_off_c, 1, 67, 100
3, 159744, Note_on_c, 1, 62, 80
3, 159744, Note_on_c, 1, 65, 80
3, 160124, Note_off_c, 1, 62, 100
3, 160124, Note_off_c, 1, 65, 100
3, 160128, Note_on_c, 1, 60, 80
3, 160128, Note_on_c, 1, 63, 80
3, 160508, Note_off_c, 1, 60, 100
3, 160508, Note_off_c, 1, 63, 100
3, 160512, Note_on_c, 1, 59, 80
3, 160512, Note_on_c, 1, 62, 80
3, 160892, Note_off_c, 1, 59, 100
3, 160892, Note_off_c, 1, 62, 100
3, 160896, Note_on_c, 1, 53, 80
3, 160896, Note_on_c, 1, 55, 80
3, 161276, Note_off_c, 1, 53, 100
3, 161280, Note_on_c, 1, 51, 80
3, 161660, Note_off_c, 1, 55, 100
3, 161660, Note_off_c, 1, 51, 100
3, 161664, Note_on_c, 1, 50, 80
3, 161664, Note_on_c, 1, 55, 80
3, 162044, Note_off_c, 1, 50, 100
3, 162044, Note_off_c, 1, 55, 100
3, 162048, Control_c, 1, 64, 127
3, 162048, Note_on_c, 1, 36, 80
3, 162172, Note_off_c, 1, 36, 100
3, 162176, Note_on_c, 1, 47, 80
3, 162300, Note_off_c, 1, 47, 100
3, 162364, Note_on_c, 1, 48, 81
3, 162432, Note_on_c, 1, 38, 81
3, 162488, Note_off_c, 1, 48, 100
3, 162556, Note_off_c, 1, 38, 100
3, 162560, Note_on_c, 1, 48, 81
3, 162684, Note_off_c, 1, 48, 100
3, 162688, Note_on_c, 1, 50, 82
3, 162808, Control_c, 1, 64, 0
3, 162812, Note_off_c, 1, 50, 100
3, 162816, Control_c, 1, 64, 127
3, 162816, Note_on_c, 1, 39, 82
3, 162940, Note_off_c, 1, 39, 100
3, 162944, Note_on_c, 1, 48, 82
3, 163068, Note_off_c, 1, 48, 100
3, 163072, Note_on_c, 1, 51, 83
3, 163196, Note_off_c, 1, 51, 100
3, 163200, Note_on_c, 1, 36, 83
3, 163324, Note_off_c, 1, 36, 100
3, 163328, Note_on_c, 1, 47, 84
3, 163452, Note_off_c, 1, 47, 100
3, 163456, Note_on_c, 1, 48, 84
3, 163576, Control_c, 1, 64, 0
3, 163580, Note_off_c, 1, 48, 100
3, 163584, Control_c, 1, 64, 127
3, 163584, Note_on_c, 1, 38, 85
3, 163708, Note_off_c, 1, 38, 100
3, 163712, Note_on_c, 1, 48, 85
3, 163836, Note_off_c, 1, 48, 100
3, 163840, Note_on_c, 1, 50, 85
3, 163964, Note_off_c, 1, 50, 100
3, 163968, Note_on_c, 1, 40, 86
3, 164092, Note_off_c, 1, 40, 100
3, 164096, Note_on_c, 1, 48, 86
3, 164220, Note_off_c, 1, 48, 100
3, 164224, Note_on_c, 1, 52, 87
3, 164344, Control_c, 1, 64, 0
3, 164348, Note_off_c, 1, 52, 100
3, 164352, Control_c, 1, 64, 127
3, 164352, Note_on_c, 1, 41, 87
3, 164476, Note_off_c, 1, 41, 100
3, 164480, Note_on_c, 1, 48, 87
3, 164604, Note_off_c, 1, 48, 100
3, 164608, Note_on_c, 1, 53, 88
3, 164732, Note_off_c, 1, 53, 100
3, 164736, Note_on_c, 1, 38, 88
3, 164860, Note_off_c, 1, 38, 100
3, 164864, Note_on_c, 1, 48, 89
3, 164988, Note_off_c, 1, 48, 100
3, 164992, Note_on_c, 1, 50, 89
3, 165112, Control_c, 1, 64, 0
3, 165116, Note_off_c, 1, 50, 100
3, 165120, Control_c, 1, 64, 127
3, 165120, Note_on_c, 1, 40, 90
3, 165244, Note_off_c, 1, 40, 100
3, 165248, Note_on_c, 1, 48, 90
3, 165372, Note_off_c, 1, 48, 100
3, 165376, Note_on_c, 1, 52, 90
3, 165500, Note_off_c, 1, 52, 100
3, 165504, Note_on_c, 1, 42, 91
3, 165628, Note_off_c, 1, 42, 100
3, 165632, Note_on_c, 1, 48, 91
3, 165756, Note_off_c, 1, 48, 100
3, 165760, Note_on_c, 1, 54, 92
3, 165880, Control_c, 1, 64, 0
3, 165884, Note_off_c, 1, 54, 100
3, 165888, Control_c, 1, 64, 127
3, 165888, Note_on_c, 1, 43, 92
3, 166012, Note_off_c, 1, 43, 100
3, 166016, Note_on_c, 1, 48, 92
3, 166140, Note_off_c, 1, 48, 100
3, 166144, Note_on_c, 1, 55, 93
3, 166268, Note_off_c, 1, 55, 100
3, 166272, Note_on_c, 1, 40, 93
3, 166396, Note_off_c, 1, 40, 100
3, 166400, Note_on_c, 1, 48, 94
3, 166524, Note_off_c, 1, 48, 100
3, 166528, Note_on_c, 1, 52, 94
3, 166648, Control_c, 1, 64, 0
3, 166652, Note_off_c, 1, 52, 100
3, 166656, Control_c, 1, 64, 127
3, 166656, Note_on_c, 1, 41, 95
3, 166780, Note_off_c, 1, 41, 100
3, 166784, Note_on_c, 1, 48, 95
3, 166908, Note_off_c, 1, 48, 100
3, 166912, Note_on_c, 1, 53, 95
3, 167036, Note_off_c, 1, 53, 100
3, 167040, Note_on_c, 1, 39, 96
3, 167164, Note_off_c, 1, 39, 100
3, 167168, Note_on_c, 1, 48, 96
3, 167292, Note_off_c, 1, 48, 100
3, 167296, Note_on_c, 1, 51, 97
3, 167416, Control_c, 1, 64, 0
3, 167420, Note_off_c, 1, 51, 100
3, 167424, Control_c, 1, 64, 127
3, 167424, Note_on_c, 1, 38, 97
3, 167548, Note_off_c, 1, 38, 100
3, 167552, Note_on_c, 1, 48, 97
3, 167676, Note_off_c, 1, 48, 100
3, 167680, Note_on_c, 1, 50, 98
3, 167804, Note_off_c, 1, 50, 100
3, 167808, Note_on_c, 1, 43, 98
3, 167932, Note_off_c, 1, 43, 100
3, 167936, Note_on_c, 1, 50, 99
3, 168060, Note_off_c, 1, 50, 100
3, 168064, Note_on_c, 1, 55, 99
3, 168184, Control_c, 1, 64, 0
3, 168188, Note_off_c, 1, 55, 100
3, 168192, Note_on_c, 1, 48, 110
3, 168192, Note_on_c, 1, 36, 110
3, 168572, Note_off_c, 1, 48, 100
3, 168572, Note_off_c, 1, 36, 100
3, 168576, Note_on_c, 1, 63, 80
3, 168576, Note_on_c, 1, 67, 80
3, 168896, Note_on_c, 1, 65, 80
3, 168956, Note_off_c, 1, 63, 100
3, 168956, Note_off_c, 1, 67, 100
3, 168960, Note_on_c, 1, 62, 80
3, 169276, Note_off_c, 1, 65, 100
3, 169340, Note_off_c, 1, 62, 100
3, 169344, Note_on_c, 1, 63, 80
3, 169344, Note_on_c, 1, 60, 80
3, 169724, Note_off_c, 1, 63, 100
3, 169724, Note_off_c, 1, 60, 100
3, 169728, Note_on_c, 1, 59, 80
3, 169728, Note_on_c, 1, 62, 80
3, 170108, Note_off_c, 1, 59, 100
3, 170108, Note_off_c, 1, 62, 100
3, 170112, Note_on_c, 1, 53, 80
3, 170112, Note_on_c, 1, 55, 80
3, 170492, Note_off_c, 1, 53, 100
3, 170496, Note_on_c, 1, 51, 80
3, 170876, Note_off_c, 1, 55, 100
3, 170876, Note_off_c, 1, 51, 100
3, 170880, Note_on_c, 1, 50, 80
3, 170880, Note_on_c, 1, 55, 80
3, 171260, Note_off_c, 1, 50, 100
3, 171260, Note_off_c, 1, 55, 100
3, 171264, Note_on_c, 1, 55, 80
3, 171264, Note_on_c, 1, 48, 80
3, 171644, Note_off_c, 1, 55, 100
3, 171644, Note_off_c, 1, 48, 100
3, 171648, Note_on_c, 1, 60, 80
3, 171648, Note_on_c, 1, 56, 80
3, 172028, Note_off_c, 1, 60, 100
3, 172028, Note_off_c, 1, 56, 100
3, 172032, Note_on_c, 1, 58, 80
3, 172032, Note_on_c, 1, 55, 80
3, 172412, Note_off_c, 1, 58, 100
3, 172412, Note_off_c, 1, 55, 100
3, 172416, Note_on_c, 1, 56, 80
3, 172416, Note_on_c, 1, 53, 80
3, 172796, Note_off_c, 1, 56, 100
3, 172796, Note_off_c, 1, 53, 100
3, 172800, Note_on_c, 1, 55, 80
3, 172800, Note_on_c, 1, 52, 80
3, 173180, Note_off_c, 1, 55, 100
3, 173180, Note_off_c, 1, 52, 100
3, 173184, Note_on_c, 1, 46, 80
3, 173184, Note_on_c, 1, 48, 80
3, 173564, Note_off_c, 1, 46, 100
3, 173568, Note_on_c, 1, 44, 86
3, 173948, Note_off_c, 1, 48, 100
3, 173948, Note_off_c, 1, 44, 100
3, 173952, Note_on_c, 1, 43, 93
3, 173952, Note_on_c, 1, 48, 93
3, 174332, Note_off_c, 1, 43, 100
3, 174332, Note_off_c, 1, 48, 100
3, 174336, Control_c, 1, 64, 127
3, 174336, Note_on_c, 1, 41, 110
3, 174460, Note_off_c, 1, 41, 100
3, 174464, Note_on_c, 1, 52, 110
3, 174588, Note_off_c, 1, 52, 100
3, 174592, Note_on_c, 1, 53, 110
3, 174716, Note_off_c, 1, 53, 100
3, 174720, Note_on_c, 1, 43, 110
3, 174844, Note_off_c, 1, 43, 100
3, 174848, Note_on_c, 1, 53, 110
3, 174972, Note_off_c, 1, 53, 100
3, 174976, Note_on_c, 1, 55, 110
3, 175096, Control_c, 1, 64, 0
3, 175100, Note_off_c, 1, 55, 100
3, 175104, Control_c, 1, 64, 127
3, 175104, Note_on_c, 1, 44, 110
3, 175228, Note_off_c, 1, 44, 100
3, 175232, Note_on_c, 1, 53, 110
3, 175356, Note_off_c, 1, 53, 100
3, 175360, Note_on_c, 1, 56, 110
3, 175484, Note_off_c, 1, 56, 100
3, 175488, Note_on_c, 1, 41, 110
3, 175612, Note_off_c, 1, 41, 100
3, 175616, Note_on_c, 1, 52, 110
3, 175740, Note_off_c, 1, 52, 100
3, 175744, Note_on_c, 1, 53, 110
3, 175864, Control_c, 1, 64, 0
3, 175868, Note_off_c, 1, 53, 100
3, 175872, Control_c, 1, 64, 127
3, 175872, Note_on_c, 1, 43, 110
3, 175996, Note_off_c, 1, 43, 100
3, 176000, Note_on_c, 1, 53, 110
3, 176124, Note_off_c, 1, 53, 100
3, 176128, Note_on_c, 1, 55, 110
3, 176252, Note_off_c, 1, 55, 100
3, 176256, Note_on_c, 1, 45, 110
3, 176380, Note_off_c, 1, 45, 100
3, 176384, Note_on_c, 1, 53, 110
3, 176508, Note_off_c, 1, 53, 100
3, 176512, Note_on_c, 1, 57, 110
3, 176632, Control_c, 1, 64, 0
3, 176636, Note_off_c, 1, 57, 100
3, 176640, Control_c, 1, 64, 127
3, 176640, Note_on_c, 1, 46, 110
3, 176764, Note_off_c, 1, 46, 100
3, 176768, Note_on_c, 1, 53, 110
3, 176892, Note_off_c, 1, 53, 100
3, 176896, Note_on_c, 1, 58, 110
3, 177020, Note_off_c, 1, 58, 100
3, 177024, Note_on_c, 1, 43, 110
3, 177148, Note_off_c, 1, 43, 100
3, 177152, Note_on_c, 1, 53, 110
3, 177276, Note_off_c, 1, 53, 100
3, 177280, Note_on_c, 1, 55, 110
3, 177400, Control_c, 1, 64, 0
3, 177404, Note_off_c, 1, 55, 100
3, 177408, Control_c, 1, 64, 127
3, 177408, Note_on_c, 1, 45, 110
3, 177532, Note_off_c, 1, 45, 100
3, 177536, Note_on_c, 1, 53, 110
3, 177660, Note_off_c, 1, 53, 100
3, 177664, Note_on_c, 1, 57, 110
3, 177788, Note_off_c, 1, 57, 100
3, 177792, Note_on_c, 1, 46, 110
3, 177916, Note_off_c, 1, 46, 100
3, 177920, Note_on_c, 1, 53, 110
3, 178044, Note_off_c, 1, 53, 100
3, 178048, Note_on_c, 1, 58, 110
3, 178168, Control_c, 1, 64, 0
3, 178172, Note_off_c, 1, 58, 100
3, 178176, Control_c, 1, 64, 127
3, 178176, Note_on_c, 1, 48, 110
3, 178300, Note_off_c, 1, 48, 100
3, 178304, Note_on_c, 1, 53, 110
3, 178428, Note_off_c, 1, 53, 100
3, 178432, Note_on_c, 1, 60, 110
3, 178556, Note_off_c, 1, 60, 100
3, 178560, Note_on_c, 1, 45, 110
3, 178684, Note_off_c, 1, 45, 100
3, 178688, Note_on_c, 1, 53, 110
3, 178812, Note_off_c, 1, 53, 100
3, 178816, Note_on_c, 1, 57, 110
3, 178936, Control_c, 1, 64, 0
3, 178940, Note_off_c, 1, 57, 100
3, 178944, Control_c, 1, 64, 127
3, 178944, Note_on_c, 1, 46, 110
3, 179132, Note_off_c, 1, 46, 100
3, 179136, Note_on_c, 1, 58, 110
3, 179324, Note_off_c, 1, 58, 100
3, 179328, Note_on_c, 1, 49, 110
3, 179516, Note_off_c, 1, 49, 100
3, 179520, Note_on_c, 1, 61, 110
3, 179704, Control_c, 1, 64, 0
3, 179708, Note_off_c, 1, 61, 100
3, 179712, Control_c, 1, 64, 127
3, 179712, Note_on_c, 1, 53, 110
3, 179900, Note_off_c, 1, 53, 100
3, 179904, Note_on_c, 1, 65, 110
3, 180092, Note_off_c, 1, 65, 100
3, 180096, Note_on_c, 1, 58, 110
3, 180284, Note_off_c, 1, 58, 100
3, 180288, Note_on_c, 1, 70, 110
3, 180472, Control_c, 1, 64, 0
3, 180476, Note_off_c, 1, 70, 100
3, 180480, Control_c, 1, 64, 127
3, 180480, Note_on_c, 1, 55, 110
3, 180668, Note_off_c, 1, 55, 100
3, 180672, Note_on_c, 1, 67, 110
3, 180860, Note_off_c, 1, 67, 100
3, 180864, Note_on_c, 1, 51, 110
3, 181052, Note_off_c, 1, 51, 100
3, 181056, Note_on_c, 1, 63, 110
3, 181240, Control_c, 1, 64, 0
3, 181244, Note_off_c, 1, 63, 100
3, 181248, Control_c, 1, 64, 127
3, 181248, Note_on_c, 1, 46, 110
3, 181436, Note_off_c, 1, 46, 100
3, 181440, Note_on_c, 1, 58, 110
3, 181628, Note_off_c, 1, 58, 100
3, 181632, Note_on_c, 1, 43, 110
3, 181820, Note_off_c, 1, 43, 100
3, 181824, Note_on_c, 1, 55, 110
3, 182008, Control_c, 1, 64, 0
3, 182012, Note_off_c, 1, 55, 100
3, 182016, Control_c, 1, 64, 127
3, 182016, Note_on_c, 1, 44, 110
3, 182204, Note_off_c, 1, 44, 100
3, 182208, Note_on_c, 1, 56, 110
3, 182396, Note_off_c, 1, 56, 100
3, 182400, Note_on_c, 1, 48, 110
3, 182588, Note_off_c, 1, 48, 100
3, 182592, Note_on_c, 1, 60, 110
3, 182776, Control_c, 1, 64, 0
3, 182780, Note_off_c, 1, 60, 100
3, 182784, Control_c, 1, 64, 127
3, 182784, Note_on_c, 1, 51, 110
3, 182972, Note_off_c, 1, 51, 100
3, 182976, Note_on_c, 1, 63, 110
3, 183164, Note_off_c, 1, 63, 100
3, 183168, Note_on_c, 1, 56, 110
3, 183356, Note_off_c, 1, 56, 100
3, 183360, Note_on_c, 1, 68, 110
3, 183544, Control_c, 1, 64, 0
3, 183548, Note_off_c, 1, 68, 100
3, 183552, Control_c, 1, 64, 127
3, 183552, Note_on_c, 1, 54, 110
3, 183740, Note_off_c, 1, 54, 100
3, 183744, Note_on_c, 1, 66, 110
3, 183932, Note_off_c, 1, 66, 100
3, 183936, Note_on_c, 1, 50, 110
3, 184124, Note_off_c, 1, 50, 100
3, 184128, Note_on_c, 1, 62, 110
3, 184312, Control_c, 1, 64, 0
3, 184316, Note_off_c, 1, 62, 100
3, 184320, Control_c, 1, 64, 127
3, 184320, Note_on_c, 1, 45, 110
3, 184508, Note_off_c, 1, 45, 100
3, 184512, Note_on_c, 1, 57, 110
3, 184700, Note_off_c, 1, 57, 100
3, 184704, Note_on_c, 1, 42, 110
3, 184892, Note_off_c, 1, 42, 100
3, 184896, Note_on_c, 1, 54, 110
3, 185080, Control_c, 1, 64, 0
3, 185084, Note_off_c, 1, 54, 100
3, 185088, Control_c, 1, 64, 127
3, 185088, Note_on_c, 1, 43, 110
3, 185212, Note_off_c, 1, 43, 100
3, 185216, Note_on_c, 1, 54, 110
3, 185340, Note_off_c, 1, 54, 100
3, 185344, Note_on_c, 1, 55, 110
3, 185468, Note_off_c, 1, 55, 100
3, 185472, Note_on_c, 1, 45, 110
3, 185596, Note_off_c, 1, 45, 100
3, 185600, Note_on_c, 1, 55, 110
3, 185724, Note_off_c, 1, 55, 100
3, 185728, Note_on_c, 1, 57, 110
3, 185848, Control_c, 1, 64, 0
3, 185852, Note_off_c, 1, 57, 100
3, 185856, Control_c, 1, 64, 127
3, 185856, Note_on_c, 1, 46, 110
3, 185980, Note_off_c, 1, 46, 100
3, 185984, Note_on_c, 1, 55, 110
3, 186108, Note_off_c, 1, 55, 100
3, 186112, Note_on_c, 1, 58, 110
3, 186236, Note_off_c, 1, 58, 100
3, 186240, Note_on_c, 1, 43, 110
3, 186364, Note_off_c, 1, 43, 100
3, 186368, Note_on_c, 1, 54, 110
3, 186492, Note_off_c, 1, 54, 100
3, 186496, Note_on_c, 1, 55, 110
3, 186616, Control_c, 1, 64, 0
3, 186620, Note_off_c, 1, 55, 100
3, 186624, Control_c, 1, 64, 127
3, 186624, Note_on_c, 1, 45, 110
3, 186748, Note_off_c, 1, 45, 100
3, 186752, Note_on_c, 1, 55, 110
3, 186876, Note_off_c, 1, 55, 100
3, 186880, Note_on_c, 1, 57, 110
3, 187004, Note_off_c, 1, 57, 100
3, 187008, Note_on_c, 1, 47, 110
3, 187132, Note_off_c, 1, 47, 100
3, 187136, Note_on_c, 1, 55, 110
3, 187260, Note_off_c, 1, 55, 100
3, 187264, Note_on_c, 1, 59, 110
3, 187384, Control_c, 1, 64, 0
3, 187388, Note_off_c, 1, 59, 100
3, 187392, Control_c, 1, 64, 127
3, 187392, Note_on_c, 1, 48, 110
3, 187516, Note_off_c, 1, 48, 100
3, 187520, Note_on_c, 1, 55, 110
3, 187644, Note_off_c, 1, 55, 100
3, 187648, Note_on_c, 1, 60, 110
3, 187772, Note_off_c, 1, 60, 100
3, 187776, Note_on_c, 1, 45, 110
3, 187900, Note_off_c, 1, 45, 100
3, 187904, Note_on_c, 1, 55, 110
3, 188028, Note_off_c, 1, 55, 100
3, 188032, Note_on_c, 1, 57, 110
3, 188152, Control_c, 1, 64, 0
3, 188156, Note_off_c, 1, 57, 100
3, 188160, Control_c, 1, 64, 127
3, 188160, Note_on_c, 1, 48, 110
3, 188284, Note_off_c, 1, 48, 100
3, 188288, Note_on_c, 1, 55, 110
3, 188412, Note_off_c, 1, 55, 100
3, 188416, Note_on_c, 1, 59, 110
3, 188540, Note_off_c, 1, 59, 100
3, 188544, Note_on_c, 1, 48, 110
3, 188668, Note_off_c, 1, 48, 100
3, 188672, Note_on_c, 1, 55, 110
3, 188796, Note_off_c, 1, 55, 100
3, 188800, Note_on_c, 1, 60, 110
3, 188920, Control_c, 1, 64, 0
3, 188924, Note_off_c, 1, 60, 100
3, 188928, Control_c, 1, 64, 127
3, 188928, Note_on_c, 1, 50, 110
3, 189052, Note_off_c, 1, 50, 100
3, 189056, Note_on_c, 1, 55, 110
3, 189180, Note_off_c, 1, 55, 100
3, 189184, Note_on_c, 1, 62, 110
3, 189308, Note_off_c, 1, 62, 100
3, 189312, Note_on_c, 1, 47, 110
3, 189436, Note_off_c, 1, 47, 100
3, 189440, Note_on_c, 1, 55, 110
3, 189564, Note_off_c, 1, 55, 100
3, 189568, Note_on_c, 1, 59, 110
3, 189688, Control_c, 1, 64, 0
3, 189692, Note_off_c, 1, 59, 100
3, 189696, Control_c, 1, 64, 127
3, 189696, Note_on_c, 1, 48, 110
3, 189820, Note_off_c, 1, 48, 100
3, 189824, Note_on_c, 1, 55, 109
3, 189948, Note_off_c, 1, 55, 100
3, 189952, Note_on_c, 1, 60, 108
3, 190076, Note_off_c, 1, 60, 100
3, 190080, Note_on_c, 1, 47, 107
3, 190204, Note_off_c, 1, 47, 100
3, 190208, Note_on_c, 1, 55, 105
3, 190332, Note_off_c, 1, 55, 100
3, 190396, Note_on_c, 1, 59, 104
3, 190456, Control_c, 1, 64, 0
3, 190464, Control_c, 1, 64, 127
3, 190464, Note_on_c, 1, 47, 103
3, 190520, Note_off_c, 1, 59, 100
3, 190588, Note_off_c, 1, 47, 100
3, 190592, Note_on_c, 1, 55, 102
3, 190716, Note_off_c, 1, 55, 100
3, 190720, Note_on_c, 1, 60, 100
3, 190844, Note_off_c, 1, 60, 100
3, 190848, Note_on_c, 1, 49, 99
3, 190972, Note_off_c, 1, 49, 100
3, 190976, Note_on_c, 1, 55, 98
3, 191100, Note_off_c, 1, 55, 100
3, 191104, Note_on_c, 1, 61, 97
3, 191224, Control_c, 1, 64, 0
3, 191228, Note_off_c, 1, 61, 100
3, 191232, Control_c, 1, 64, 127
3, 191232, Note_on_c, 1, 50, 95
3, 191356, Note_off_c, 1, 50, 100
3, 191360, Note_on_c, 1, 61, 94
3, 191484, Note_off_c, 1, 61, 100
3, 191488, Note_on_c, 1, 62, 93
3, 191612, Note_off_c, 1, 62, 100
3, 191616, Note_on_c, 1, 48, 92
3, 191740, Note_off_c, 1, 48, 100
3, 191744, Note_on_c, 1, 50, 90
3, 191868, Note_off_c, 1, 50, 100
3, 191872, Note_on_c, 1, 60, 89
3, 191992, Control_c, 1, 64, 0
3, 191996, Note_off_c, 1, 60, 100
3, 192000, Control_c, 1, 64, 127
3, 192000, Note_on_c, 1, 46, 88
3, 192124, Note_off_c, 1, 46, 100
3, 192128, Note_on_c, 1, 50, 87
3, 192252, Note_off_c, 1, 50, 100
3, 192256, Note_on_c, 1, 58, 85
3, 192380, Note_off_c, 1, 58, 100
3, 192384, Note_on_c, 1, 45, 84
3, 192508, Note_off_c, 1, 45, 100
3, 192512, Note_on_c, 1, 50, 83
3, 192636, Note_off_c, 1, 50, 100
3, 192640, Note_on_c, 1, 57, 82
3, 192760, Control_c, 1, 64, 0
3, 192764, Note_off_c, 1, 57, 100
3, 192768, Control_c, 1, 64, 127
3, 192768, Note_on_c, 1, 43, 80
3, 192892, Note_off_c, 1, 43, 100
3, 192896, Note_on_c, 1, 50, 80
3, 193020, Note_off_c, 1, 50, 100
3, 193024, Note_on_c, 1, 55, 80
3, 193148, Note_off_c, 1, 55, 100
3, 193152, Note_on_c, 1, 42, 80
3, 193276, Note_off_c, 1, 42, 100
3, 193280, Note_on_c, 1, 50, 80
3, 193404, Note_off_c, 1, 50, 100
3, 193408, Note_on_c, 1, 54, 80
3, 193528, Control_c, 1, 64, 0
3, 193532, Note_off_c, 1, 54, 100
3, 193536, Control_c, 1, 64, 127
3, 193536, Note_on_c, 1, 43, 80
3, 193660, Note_off_c, 1, 43, 100
3, 193664, Note_on_c, 1, 50, 80
3, 193788, Note_off_c, 1, 50, 100
3, 193792, Note_on_c, 1, 55, 80
3, 193916, Note_off_c, 1, 55, 100
3, 193920, Note_on_c, 1, 39, 80
3, 194044, Note_off_c, 1, 39, 100
3, 194048, Note_on_c, 1, 50, 80
3, 194172, Note_off_c, 1, 50, 100
3, 194176, Note_on_c, 1, 51, 80
3, 194296, Control_c, 1, 64, 0
3, 194300, Note_off_c, 1, 51, 100
3, 194304, Control_c, 1, 64, 127
3, 194304, Note_on_c, 1, 38, 80
3, 194428, Note_off_c, 1, 38, 100
3, 194432, Note_on_c, 1, 49, 80
3, 194556, Note_off_c, 1, 49, 100
3, 194560, Note_on_c, 1, 50, 80
3, 194684, Note_off_c, 1, 50, 100
3, 194688, Note_on_c, 1, 48, 80
3, 194812, Note_off_c, 1, 48, 100
3, 194816, Note_on_c, 1, 50, 80
3, 194940, Note_off_c, 1, 50, 100
3, 194944, Note_on_c, 1, 60, 80
3, 195064, Control_c, 1, 64, 0
3, 195068, Note_off_c, 1, 60, 100
3, 195072, Control_c, 1, 64, 127
3, 195072, Note_on_c, 1, 46, 80
3, 195196, Note_off_c, 1, 46, 100
3, 195200, Note_on_c, 1, 50, 80
3, 195324, Note_off_c, 1, 50, 100
3, 195328, Note_on_c, 1, 58, 80
3, 195452, Note_off_c, 1, 58, 100
3, 195456, Note_on_c, 1, 45, 80
3, 195580, Note_off_c, 1, 45, 100
3, 195584, Note_on_c, 1, 50, 80
3, 195708, Note_off_c, 1, 50, 100
3, 195712, Note_on_c, 1, 57, 80
3, 195832, Control_c, 1, 64, 0
3, 195836, Note_off_c, 1, 57, 100
3, 195840, Control_c, 1, 64, 127
3, 195840, Note_on_c, 1, 43, 80
3, 195964, Note_off_c, 1, 43, 100
3, 195968, Note_on_c, 1, 50, 80
3, 196092, Note_off_c, 1, 50, 100
3, 196096, Note_on_c, 1, 55, 80
3, 196220, Note_off_c, 1, 55, 100
3, 196224, Note_on_c, 1, 42, 80
3, 196348, Note_off_c, 1, 42, 100
3, 196352, Note_on_c, 1, 50, 80
3, 196476, Note_off_c, 1, 50, 100
3, 196480, Note_on_c, 1, 54, 80
3, 196600, Control_c, 1, 64, 0
3, 196604, Note_off_c, 1, 54, 100
3, 196608, Control_c, 1, 64, 127
3, 196608, Note_on_c, 1, 43, 80
3, 196732, Note_off_c, 1, 43, 100
3, 196736, Note_on_c, 1, 50, 80
3, 196860, Note_off_c, 1, 50, 100
3, 196864, Note_on_c, 1, 55, 80
3, 196988, Note_off_c, 1, 55, 100
3, 196992, Note_on_c, 1, 39, 80
3, 197116, Note_off_c, 1, 39, 100
3, 197120, Note_on_c, 1, 50, 80
3, 197244, Note_off_c, 1, 50, 100
3, 197248, Note_on_c, 1, 51, 80
3, 197368, Control_c, 1, 64, 0
3, 197372, Note_off_c, 1, 51, 100
3, 197376, Control_c, 1, 64, 127
3, 197376, Note_on_c, 1, 50, 80
3, 197376, Note_on_c, 1, 38, 80
3, 197500, Note_off_c, 1, 50, 100
3, 197500, Note_off_c, 1, 38, 100
3, 197504, Note_on_c, 1, 62, 80
3, 197628, Note_off_c, 1, 62, 100
3, 197632, Note_on_c, 1, 50, 80
3, 197756, Note_off_c, 1, 50, 100
3, 197760, Note_on_c, 1, 62, 79
3, 197884, Note_off_c, 1, 62, 100
3, 197888, Note_on_c, 1, 50, 79
3, 198012, Note_off_c, 1, 50, 100
3, 198016, Note_on_c, 1, 62, 78
3, 198136, Control_c, 1, 64, 0
3, 198140, Note_off_c, 1, 62, 100
3, 198144, Control_c, 1, 64, 127
3, 198144, Note_on_c, 1, 50, 78
3, 198268, Note_off_c, 1, 50, 100
3, 198272, Note_on_c, 1, 62, 78
3, 198396, Note_off_c, 1, 62, 100
3, 198400, Note_on_c, 1, 50, 77
3, 198524, Note_off_c, 1, 50, 100
3, 198528, Note_on_c, 1, 62, 77
3, 198652, Note_off_c, 1, 62, 100
3, 198656, Note_on_c, 1, 50, 76
3, 198780, Note_off_c, 1, 50, 100
3, 198784, Note_on_c, 1, 62, 76
3, 198904, Control_c, 1, 64, 0
3, 198908, Note_off_c, 1, 62, 100
3, 198912, Control_c, 1, 64, 127
3, 198912, Note_on_c, 1, 50, 75
3, 199036, Note_off_c, 1, 50, 100
3, 199040, Note_on_c, 1, 62, 75
3, 199164, Note_off_c, 1, 62, 100
3, 199168, Note_on_c, 1, 50, 75
3, 199292, Note_off_c, 1, 50, 100
3, 199296, Note_on_c, 1, 62, 74
3, 199420, Note_off_c, 1, 62, 100
3, 199424, Note_on_c, 1, 50, 74
3, 199548, Note_off_c, 1, 50, 100
3, 199552, Note_on_c, 1, 62, 73
3, 199672, Control_c, 1, 64, 0
3, 199676, Note_off_c, 1, 62, 100
3, 199680, Control_c, 1, 64, 127
3, 199680, Note_on_c, 1, 50, 73
3, 199804, Note_off_c, 1, 50, 100
3, 199808, Note_on_c, 1, 62, 73
3, 199932, Note_off_c, 1, 62, 100
3, 199936, Note_on_c, 1, 50, 72
3, 200060, Note_off_c, 1, 50, 100
3, 200064, Note_on_c, 1, 62, 72
3, 200188, Note_off_c, 1, 62, 100
3, 200192, Note_on_c, 1, 50, 71
3, 200316, Note_off_c, 1, 50, 100
3, 200320, Note_on_c, 1, 62, 71
3, 200440, Control_c, 1, 64, 0
3, 200444, Note_off_c, 1, 62, 100
3, 200448, Control_c, 1, 64, 127
3, 200448, Note_on_c, 1, 50, 70
3, 200572, Note_off_c, 1, 50, 100
3, 200576, Note_on_c, 1, 62, 70
3, 200700, Note_off_c, 1, 62, 100
3, 200704, Note_on_c, 1, 50, 70
3, 200828, Note_off_c, 1, 50, 100
3, 200832, Note_on_c, 1, 62, 70
3, 200956, Note_off_c, 1, 62, 100
3, 200960, Note_on_c, 1, 50, 70
3, 201084, Note_off_c, 1, 50, 100
3, 201088, Note_on_c, 1, 62, 70
3, 201208, Control_c, 1, 64, 0
3, 201212, Note_off_c, 1, 62, 100
3, 201216, Control_c, 1, 64, 127
3, 201216, Note_on_c, 1, 50, 70
3, 201340, Note_off_c, 1, 50, 100
3, 201344, Note_on_c, 1, 62, 70
3, 201468, Note_off_c, 1, 62, 100
3, 201472, Note_on_c, 1, 50, 70
3, 201596, Note_off_c, 1, 50, 100
3, 201600, Note_on_c, 1, 62, 70
3, 201724, Note_off_c, 1, 62, 100
3, 201728, Note_on_c, 1, 50, 70
3, 201852, Note_off_c, 1, 50, 100
3, 201856, Note_on_c, 1, 62, 70
3, 201976, Control_c, 1, 64, 0
3, 201980, Note_off_c, 1, 62, 100
3, 201984, Control_c, 1, 64, 127
3, 201984, Note_on_c, 1, 50, 70
3, 202108, Note_off_c, 1, 50, 100
3, 202112, Note_on_c, 1, 62, 70
3, 202236, Note_off_c, 1, 62, 100
3, 202240, Note_on_c, 1, 50, 70
3, 202364, Note_off_c, 1, 50, 100
3, 202368, Note_on_c, 1, 62, 70
3, 202492, Note_off_c, 1, 62, 100
3, 202496, Note_on_c, 1, 50, 70
3, 202620, Note_off_c, 1, 50, 100
3, 202624, Note_on_c, 1, 62, 70
3, 202744, Control_c, 1, 64, 0
3, 202748, Note_off_c, 1, 62, 100
3, 202752, Control_c, 1, 64, 127
3, 202752, Note_on_c, 1, 47, 70
3, 202876, Note_off_c, 1, 47, 100
3, 202880, Note_on_c, 1, 62, 70
3, 203004, Note_off_c, 1, 62, 100
3, 203008, Note_on_c, 1, 50, 70
3, 203132, Note_off_c, 1, 50, 100
3, 203136, Note_on_c, 1, 62, 70
3, 203260, Note_off_c, 1, 62, 100
3, 203264, Note_on_c, 1, 50, 70
3, 203388, Note_off_c, 1, 50, 100
3, 203392, Note_on_c, 1, 62, 70
3, 203512, Control_c, 1, 64, 0
3, 203516, Note_off_c, 1, 62, 100
3, 203520, Control_c, 1, 64, 127
3, 203520, Note_on_c, 1, 48, 70
3, 203644, Note_off_c, 1, 48, 100
3, 203648, Note_on_c, 1, 62, 70
3, 203772, Note_off_c, 1, 62, 100
3, 203776, Note_on_c, 1, 50, 70
3, 203900, Note_off_c, 1, 50, 100
3, 203904, Note_on_c, 1, 62, 70
3, 204028, Note_off_c, 1, 62, 100
3, 204032, Note_on_c, 1, 50, 70
3, 204156, Note_off_c, 1, 50, 100
3, 204160, Note_on_c, 1, 62, 70
3, 204280, Control_c, 1, 64, 0
3, 204284, Note_off_c, 1, 62, 100
3, 204288, Control_c, 1, 64, 127
3, 204288, Note_on_c, 1, 45, 70
3, 204412, Note_off_c, 1, 45, 100
3, 204416, Note_on_c, 1, 62, 70
3, 204540, Note_off_c, 1, 62, 100
3, 204544, Note_on_c, 1, 50, 70
3, 204668, Note_off_c, 1, 50, 100
3, 204672, Note_on_c, 1, 62, 70
3, 204796, Note_off_c, 1, 62, 100
3, 204800, Note_on_c, 1, 50, 70
3, 204924, Note_off_c, 1, 50, 100
3, 204928, Note_on_c, 1, 62, 70
3, 205048, Control_c, 1, 64, 0
3, 205052, Note_off_c, 1, 62, 100
3, 205056, Control_c, 1, 64, 127
3, 205056, Note_on_c, 1, 47, 70
3, 205180, Note_off_c, 1, 47, 100
3, 205184, Note_on_c, 1, 62, 70
3, 205308, Note_off_c, 1, 62, 100
3, 205312, Note_on_c, 1, 50, 70
3, 205436, Note_off_c, 1, 50, 100
3, 205440, Note_on_c, 1, 62, 70
3, 205564, Note_off_c, 1, 62, 100
3, 205568, Note_on_c, 1, 50, 70
3, 205692, Note_off_c, 1, 50, 100
3, 205696, Note_on_c, 1, 62, 70
3, 205816, Control_c, 1, 64, 0
3, 205820, Note_off_c, 1, 62, 100
3, 205824, Control_c, 1, 64, 127
3, 205824, Note_on_c, 1, 42, 70
3, 205948, Note_off_c, 1, 42, 100
3, 205952, Note_on_c, 1, 62, 70
3, 206076, Note_off_c, 1, 62, 100
3, 206080, Note_on_c, 1, 50, 70
3, 206204, Note_off_c, 1, 50, 100
3, 206208, Note_on_c, 1, 62, 70
3, 206332, Note_off_c, 1, 62, 100
3, 206336, Note_on_c, 1, 50, 70
3, 206460, Note_off_c, 1, 50, 100
3, 206464, Note_on_c, 1, 62, 70
3, 206584, Control_c, 1, 64, 0
3, 206588, Note_off_c, 1, 62, 100
3, 206592, Control_c, 1, 64, 127
3, 206592, Note_on_c, 1, 43, 70
3, 206716, Note_off_c, 1, 43, 100
3, 206720, Note_on_c, 1, 62, 70
3, 206844, Note_off_c, 1, 62, 100
3, 206848, Note_on_c, 1, 50, 70
3, 206972, Note_off_c, 1, 50, 100
3, 206976, Note_on_c, 1, 62, 70
3, 207100, Note_off_c, 1, 62, 100
3, 207104, Note_on_c, 1, 50, 70
3, 207228, Note_off_c, 1, 50, 100
3, 207232, Note_on_c, 1, 62, 70
3, 207352, Control_c, 1, 64, 0
3, 207356, Note_off_c, 1, 62, 100
3, 207360, Control_c, 1, 64, 127
3, 207360, Note_on_c, 1, 40, 70
3, 207484, Note_off_c, 1, 40, 100
3, 207488, Note_on_c, 1, 62, 70
3, 207612, Note_off_c, 1, 62, 100
3, 207616, Note_on_c, 1, 50, 70
3, 207740, Note_off_c, 1, 50, 100
3, 207744, Note_on_c, 1, 62, 70
3, 207868, Note_off_c, 1, 62, 100
3, 207872, Note_on_c, 1, 50, 70
3, 207996, Note_off_c, 1, 50, 100
3, 208000, Note_on_c, 1, 62, 70
3, 208120, Control_c, 1, 64, 0
3, 208124, Note_off_c, 1, 62, 100
3, 208128, Control_c, 1, 64, 127
3, 208128, Note_on_c, 1, 38, 70
3, 208252, Note_off_c, 1, 38, 100
3, 208256, Note_on_c, 1, 62, 70
3, 208380, Note_off_c, 1, 62, 100
3, 208384, Note_on_c, 1, 50, 70
3, 208508, Note_off_c, 1, 50, 100
3, 208512, Note_on_c, 1, 62, 70
3, 208636, Note_off_c, 1, 62, 100
3, 208640, Note_on_c, 1, 50, 70
3, 208764, Note_off_c, 1, 50, 100
3, 208768, Note_on_c, 1, 62, 70
3, 208888, Control_c, 1, 64, 0
3, 208892, Note_off_c, 1, 62, 100
3, 208896, Control_c, 1, 64, 127
3, 208896, Note_on_c, 1, 47, 70
3, 209020, Note_off_c, 1, 47, 100
3, 209024, Note_on_c, 1, 62, 70
3, 209148, Note_off_c, 1, 62, 100
3, 209152, Note_on_c, 1, 50, 70
3, 209276, Note_off_c, 1, 50, 100
3, 209280, Note_on_c, 1, 62, 70
3, 209404, Note_off_c, 1, 62, 100
3, 209408, Note_on_c, 1, 50, 70
3, 209532, Note_off_c, 1, 50, 100
3, 209536, Note_on_c, 1, 62, 70
3, 209656, Control_c, 1, 64, 0
3, 209660, Note_off_c, 1, 62, 100
3, 209664, Control_c, 1, 64, 127
3, 209664, Note_on_c, 1, 48, 70
3, 209788, Note_off_c, 1, 48, 100
3, 209792, Note_on_c, 1, 62, 70
3, 209916, Note_off_c, 1, 62, 100
3, 209920, Note_on_c, 1, 50, 70
3, 210044, Note_off_c, 1, 50, 100
3, 210048, Note_on_c, 1, 62, 70
3, 210172, Note_off_c, 1, 62, 100
3, 210176, Note_on_c, 1, 50, 70
3, 210300, Note_off_c, 1, 50, 100
3, 210304, Note_on_c, 1, 62, 70
3, 210424, Control_c, 1, 64, 0
3, 210428, Note_off_c, 1, 62, 100
3, 210432, Control_c, 1, 64, 127
3, 210432, Note_on_c, 1, 45, 70
3, 210556, Note_off_c, 1, 45, 100
3, 210560, Note_on_c, 1, 62, 70
3, 210684, Note_off_c, 1, 62, 100
3, 210688, Note_on_c, 1, 50, 70
3, 210812, Note_off_c, 1, 50, 100
3, 210816, Note_on_c, 1, 62, 70
3, 210940, Note_off_c, 1, 62, 100
3, 210944, Note_on_c, 1, 50, 70
3, 211068, Note_off_c, 1, 50, 100
3, 211072, Note_on_c, 1, 62, 70
3, 211192, Control_c, 1, 64, 0
3, 211196, Note_off_c, 1, 62, 100
3, 211200, Control_c, 1, 64, 127
3, 211200, Note_on_c, 1, 47, 70
3, 211324, Note_off_c, 1, 47, 100
3, 211328, Note_on_c, 1, 62, 70
3, 211452, Note_off_c, 1, 62, 100
3, 211456, Note_on_c, 1, 50, 70
3, 211580, Note_off_c, 1, 50, 100
3, 211584, Note_on_c, 1, 62, 70
3, 211708, Note_off_c, 1, 62, 100
3, 211712, Note_on_c, 1, 50, 70
3, 211836, Note_off_c, 1, 50, 100
3, 211840, Note_on_c, 1, 62, 70
3, 211960, Control_c, 1, 64, 0
3, 211964, Note_off_c, 1, 62, 100
3, 211968, Control_c, 1, 64, 127
3, 211968, Note_on_c, 1, 42, 70
3, 212092, Note_off_c, 1, 42, 100
3, 212096, Note_on_c, 1, 62, 70
3, 212220, Note_off_c, 1, 62, 100
3, 212224, Note_on_c, 1, 50, 70
3, 212348, Note_off_c, 1, 50, 100
3, 212352, Note_on_c, 1, 62, 70
3, 212476, Note_off_c, 1, 62, 100
3, 212480, Note_on_c, 1, 50, 70
3, 212604, Note_off_c, 1, 50, 100
3, 212608, Note_on_c, 1, 62, 70
3, 212728, Control_c, 1, 64, 0
3, 212732, Note_off_c, 1, 62, 100
3, 212736, Control_c, 1, 64, 127
3, 212736, Note_on_c, 1, 43, 70
3, 212860, Note_off_c, 1, 43, 100
3, 212864, Note_on_c, 1, 62, 70
3, 212988, Note_off_c, 1, 62, 100
3, 212992, Note_on_c, 1, 50, 70
3, 213116, Note_off_c, 1, 50, 100
3, 213120, Note_on_c, 1, 62, 70
3, 213244, Note_off_c, 1, 62, 100
3, 213248, Note_on_c, 1, 50, 70
3, 213372, Note_off_c, 1, 50, 100
3, 213376, Note_on_c, 1, 62, 70
3, 213496, Control_c, 1, 64, 0
3, 213500, Note_off_c, 1, 62, 100
3, 213504, Control_c, 1, 64, 127
3, 213504, Note_on_c, 1, 38, 70
3, 213628, Note_off_c, 1, 38, 100
3, 213632, Note_on_c, 1, 62, 70
3, 213756, Note_off_c, 1, 62, 100
3, 213760, Note_on_c, 1, 50, 70
3, 213884, Note_off_c, 1, 50, 100
3, 213888, Note_on_c, 1, 62, 70
3, 214012, Note_off_c, 1, 62, 100
3, 214016, Note_on_c, 1, 50, 70
3, 214140, Note_off_c, 1, 50, 100
3, 214144, Note_on_c, 1, 62, 70
3, 214264, Control_c, 1, 64, 0
3, 214268, Note_off_c, 1, 62, 100
3, 214272, Note_on_c, 1, 43, 80
3, 214652, Note_off_c, 1, 43, 100
3, 214656, Note_on_c, 1, 55, 80
3, 215424, Note_on_c, 1, 57, 80
3, 215804, Note_off_c, 1, 57, 100
3, 215808, Note_on_c, 1, 59, 80
3, 216188, Note_off_c, 1, 59, 100
3, 216192, Note_on_c, 1, 60, 80
3, 216572, Note_off_c, 1, 60, 100
3, 216576, Note_on_c, 1, 63, 80
3, 216956, Note_off_c, 1, 63, 100
3, 216960, Note_on_c, 1, 66, 80
3, 217340, Note_off_c, 1, 66, 100
3, 217344, Note_on_c, 1, 67, 80
3, 217724, Note_off_c, 1, 55, 100
3, 217724, Note_off_c, 1, 67, 100
3, 217728, Note_on_c, 1, 55, 80
3, 218108, Note_off_c, 1, 55, 100
3, 218112, Note_on_c, 1, 62, 80
3, 218492, Note_off_c, 1, 62, 100
3, 218496, Note_on_c, 1, 50, 80
3, 218876, Note_off_c, 1, 50, 100
3, 218880, Note_on_c, 1, 55, 80
3, 219260, Note_off_c, 1, 55, 100
3, 219264, Note_on_c, 1, 43, 80
3, 219644, Note_off_c, 1, 43, 100
3, 219648, Note_on_c, 1, 50, 80
3, 220028, Note_off_c, 1, 50, 100
3, 220032, Note_on_c, 1, 38, 80
3, 220412, Note_off_c, 1, 38, 100
3, 220416, Note_on_c, 1, 43, 80
3, 220796, Note_off_c, 1, 43, 100
3, 220800, Note_on_c, 1, 55, 80
3, 221568, Note_on_c, 1, 57, 80
3, 221948, Note_off_c, 1, 57, 100
3, 221952, Note_on_c, 1, 59, 80
3, 222332, Note_off_c, 1, 59, 100
3, 222336, Note_on_c, 1, 60, 80
3, 222716, Note_off_c, 1, 60, 100
3, 222720, Note_on_c, 1, 63, 80
3, 223100, Note_off_c, 1, 63, 100
3, 223104, Note_on_c, 1, 66, 80
3, 223484, Note_off_c, 1, 66, 100
3, 223488, Note_on_c, 1, 67, 80
3, 223868, Note_off_c, 1, 55, 100
3, 223868, Note_off_c, 1, 67, 100
3, 223872, Note_on_c, 1, 55, 80
3, 224252, Note_off_c, 1, 55, 100
3, 224256, Note_on_c, 1, 62, 80
3, 224636, Note_off_c, 1, 62, 100
3, 224640, Note_on_c, 1, 50, 80
3, 225020, Note_off_c, 1, 50, 100
3, 225024, Note_on_c, 1, 55, 80
3, 225404, Note_off_c, 1, 55, 100
3, 225408, Note_on_c, 1, 43, 80
3, 225788, Note_off_c, 1, 43, 100
3, 225792, Note_on_c, 1, 50, 80
3, 226172, Note_off_c, 1, 50, 100
3, 226176, Note_on_c, 1, 38, 80
3, 226556, Note_off_c, 1, 38, 100
3, 226560, Note_on_c, 1, 43, 80
3, 226940, Note_off_c, 1, 43, 100
3, 226944, Note_on_c, 1, 31, 80
3, 227324, Note_off_c, 1, 31, 100
3, 227328, Note_on_c, 1, 52, 80
3, 227372, Note_off_c, 1, 52, 100
3, 227376, Note_on_c, 1, 50, 80
3, 227512, Note_off_c, 1, 50, 100
3, 227520, Note_on_c, 1, 49, 80
3, 227708, Note_off_c, 1, 49, 100
3, 227712, Note_on_c, 1, 50, 80
3, 227900, Note_off_c, 1, 50, 100
3, 227904, Note_on_c, 1, 52, 80
3, 228092, Note_off_c, 1, 52, 100
3, 228096, Note_on_c, 1, 50, 80
3, 228476, Note_off_c, 1, 50, 100
3, 228480, Note_on_c, 1, 38, 80
3, 228864, Note_on_c, 1, 40, 80
3, 229244, Note_off_c, 1, 40, 100
3, 229248, Note_on_c, 1, 42, 80
3, 229628, Note_off_c, 1, 42, 100
3, 229632, Note_on_c, 1, 43, 80
3, 230396, Note_off_c, 1, 43, 100
3, 230400, Note_on_c, 1, 47, 80
3, 230588, Note_off_c, 1, 47, 100
3, 230592, Note_on_c, 1, 45, 80
3, 230780, Note_off_c, 1, 45, 100
3, 230784, Note_on_c, 1, 43, 80
3, 230972, Note_off_c, 1, 43, 100
3, 230976, Note_on_c, 1, 45, 80
3, 231164, Note_off_c, 1, 45, 100
3, 231168, Note_on_c, 1, 47, 80
3, 231548, Note_off_c, 1, 47, 100
3, 231552, Note_on_c, 1, 43, 80
3, 231932, Note_off_c, 1, 38, 100
3, 231932, Note_off_c, 1, 43, 100
3, 231936, Note_on_c, 1, 49, 80
3, 232316, Note_off_c, 1, 49, 100
3, 232320, Note_on_c, 1, 45, 80
3, 232700, Note_off_c, 1, 45, 100
3, 232704, Note_on_c, 1, 50, 80
3, 232704, Note_on_c, 1, 38, 80
3, 233468, Note_off_c, 1, 50, 100
3, 233468, Note_off_c, 1, 38, 100
3, 233472, Note_on_c, 1, 52, 80
3, 233516, Note_off_c, 1, 52, 100
3, 233520, Note_on_c, 1, 50, 80
3, 233656, Note_off_c, 1, 50, 100
3, 233664, Note_on_c, 1, 49, 80
3, 233852, Note_off_c, 1, 49, 100
3, 233856, Note_on_c, 1, 50, 80
3, 234044, Note_off_c, 1, 50, 100
3, 234048, Note_on_c, 1, 52, 80
3, 234236, Note_off_c, 1, 52, 100
3, 234240, Note_on_c, 1, 50, 80
3, 234620, Note_off_c, 1, 50, 100
3, 234624, Note_on_c, 1, 38, 80
3, 235008, Note_on_c, 1, 40, 80
3, 235388, Note_off_c, 1, 40, 100
3, 235392, Note_on_c, 1, 42, 80
3, 235772, Note_off_c, 1, 42, 100
3, 235776, Note_on_c, 1, 43, 80
3, 236540, Note_off_c, 1, 43, 100
3, 236544, Note_on_c, 1, 47, 80
3, 236732, Note_off_c, 1, 47, 100
3, 236736, Note_on_c, 1, 45, 80
3, 236924, Note_off_c, 1, 45, 100
3, 236928, Note_on_c, 1, 43, 80
3, 237116, Note_off_c, 1, 43, 100
3, 237120, Note_on_c, 1, 45, 80
3, 237308, Note_off_c, 1, 45, 100
3, 237312, Note_on_c, 1, 47, 80
3, 237692, Note_off_c, 1, 47, 100
3, 237696, Note_on_c, 1, 43, 80
3, 238076, Note_off_c, 1, 38, 100
3, 238076, Note_off_c, 1, 43, 100
3, 238080, Note_on_c, 1, 48, 80
3, 238460, Note_off_c, 1, 48, 100
3, 238464, Note_on_c, 1, 45, 80
3, 238844, Note_off_c, 1, 45, 100
3, 238848, Note_on_c, 1, 43, 80
3, 238848, Note_on_c, 1, 31, 80
3, 239228, Note_off_c, 1, 43, 100
3, 239228, Note_off_c, 1, 31, 100
3, 239616, Note_on_c, 1, 55, 80
3, 239996, Note_off_c, 1, 55, 100
3, 240000, Note_on_c, 1, 57, 80
3, 240000, Note_on_c, 1, 54, 80
3, 240380, Note_off_c, 1, 57, 100
3, 240380, Note_off_c, 1, 54, 100
3, 240384, Note_on_c, 1, 59, 80
3, 240384, Note_on_c, 1, 53, 80
3, 240764, Note_off_c, 1, 59, 100
3, 240764, Note_off_c, 1, 53, 100
3, 240768, Note_on_c, 1, 60, 80
3, 240768, Note_on_c, 1, 52, 80
3, 241148, Note_off_c, 1, 60, 100
3, 241148, Note_off_c, 1, 52, 100
3, 241152, Note_on_c, 1, 51, 80
3, 241152, Note_on_c, 1, 58, 80
3, 241152, Note_on_c, 1, 61, 80
3, 241532, Note_off_c, 1, 51, 100
3, 241532, Note_off_c, 1, 58, 100
3, 241532, Note_off_c, 1, 61, 100
3, 241536, Note_on_c, 1, 61, 80
3, 241536, Note_on_c, 1, 58, 80
3, 241536, Note_on_c, 1, 51, 80
3, 241916, Note_off_c, 1, 61, 100
3, 241916, Note_off_c, 1, 58, 100
3, 241916, Note_off_c, 1, 51, 100
3, 241920, Control_c, 1, 64, 127
3, 241920, Note_on_c, 1, 61, 80
3, 241920, Note_on_c, 1, 58, 80
3, 241920, Note_on_c, 1, 51, 80
3, 242300, Note_off_c, 1, 61, 100
3, 242300, Note_off_c, 1, 58, 100
3, 242300, Note_off_c, 1, 51, 100
3, 242304, Note_on_c, 1, 62, 80
3, 242304, Note_on_c, 1, 59, 80
3, 242304, Note_on_c, 1, 50, 80
3, 242680, Control_c, 1, 64, 0
3, 242684, Note_off_c, 1, 62, 100
3, 242684, Note_off_c, 1, 59, 100
3, 242684, Note_off_c, 1, 50, 100
3, 242688, Control_c, 1, 64, 127
3, 242688, Note_on_c, 1, 38, 80
3, 242812, Note_off_c, 1, 38, 100
3, 242816, Note_on_c, 1, 50, 80
3, 242940, Note_off_c, 1, 50, 100
3, 242944, Note_on_c, 1, 54, 80
3, 243068, Note_off_c, 1, 54, 100
3, 243072, Note_on_c, 1, 57, 80
3, 243196, Note_off_c, 1, 57, 100
3, 243200, Note_on_c, 1, 54, 80
3, 243324, Note_off_c, 1, 54, 100
3, 243328, Note_on_c, 1, 50, 80
3, 243448, Control_c, 1, 64, 0
3, 243452, Note_off_c, 1, 50, 100
3, 243456, Control_c, 1, 64, 127
3, 243456, Control_c, 1, 64, 127
3, 243456, Note_on_c, 1, 43, 80
3, 243580, Note_off_c, 1, 43, 100
3, 243584, Note_on_c, 1, 50, 80
3, 243708, Note_off_c, 1, 50, 100
3, 243712, Note_on_c, 1, 55, 80
3, 243836, Note_off_c, 1, 55, 100
3, 243840, Note_on_c, 1, 59, 80
3, 243964, Note_off_c, 1, 59, 100
3, 243968, Note_on_c, 1, 55, 80
3, 244092, Note_off_c, 1, 55, 100
3, 244096, Note_on_c, 1, 50, 80
3, 244216, Control_c, 1, 64, 0
3, 244216, Control_c, 1, 64, 0
3, 244220, Note_off_c, 1, 50, 100
3, 244224, Control_c, 1, 64, 127
3, 244224, Control_c, 1, 64, 127
3, 244224, Note_on_c, 1, 38, 80
3, 244348, Note_off_c, 1, 38, 100
3, 244352, Note_on_c, 1, 50, 80
3, 244476, Note_off_c, 1, 50, 100
3, 244480, Note_on_c, 1, 54, 80
3, 244604, Note_off_c, 1, 54, 100
3, 244608, Note_on_c, 1, 57, 80
3, 244732, Note_off_c, 1, 57, 100
3, 244736, Note_on_c, 1, 54, 80
3, 244860, Note_off_c, 1, 54, 100
3, 244864, Note_on_c, 1, 50, 80
3, 244984, Control_c, 1, 64, 0
3, 244984, Control_c, 1, 64, 0
3, 244988, Note_off_c, 1, 50, 100
3, 244992, Note_on_c, 1, 54, 80
3, 244992, Note_on_c, 1, 43, 80
3, 245372, Note_off_c, 1, 54, 100
3, 245372, Note_off_c, 1, 43, 100
3, 245760, Note_on_c, 1, 55, 80
3, 245760, Note_on_c, 1, 43, 80
3, 246140, Note_off_c, 1, 55, 100
3, 246140, Note_off_c, 1, 43, 100
3, 246144, Note_on_c, 1, 54, 80
3, 246144, Note_on_c, 1, 45, 80
3, 246524, Note_off_c, 1, 54, 100
3, 246524, Note_off_c, 1, 45, 100
3, 246528, Note_on_c, 1, 53, 80
3, 246528, Note_on_c, 1, 47, 80
3, 246908, Note_off_c, 1, 53, 100
3, 246908, Note_off_c, 1, 47, 100
3, 246912, Note_on_c, 1, 52, 80
3, 246912, Note_on_c, 1, 48, 80
3, 247292, Note_off_c, 1, 52, 100
3, 247292, Note_off_c, 1, 48, 100
3, 247296, Note_on_c, 1, 51, 80
3, 247296, Note_on_c, 1, 48, 80
3, 247676, Note_off_c, 1, 51, 100
3, 247676, Note_off_c, 1, 48, 100
3, 247680, Note_on_c, 1, 51, 80
3, 247680, Note_on_c, 1, 48, 80
3, 248060, Note_off_c, 1, 51, 100
3, 248060, Note_off_c, 1, 48, 100
3, 248064, Note_on_c, 1, 51, 80
3, 248064, Note_on_c, 1, 48, 80
3, 248444, Note_off_c, 1, 51, 100
3, 248444, Note_off_c, 1, 48, 100
3, 248448, Note_on_c, 1, 50, 80
3, 248448, Note_on_c, 1, 47, 80
3, 248828, Note_off_c, 1, 50, 100
3, 248828, Note_off_c, 1, 47, 100
3, 248832, Note_on_c, 1, 38, 80
3, 248832, Note_on_c, 1, 52, 80
3, 249020, Note_off_c, 1, 52, 100
3, 249024, Note_on_c, 1, 50, 80
3, 249212, Note_off_c, 1, 38, 100
3, 249212, Note_off_c, 1, 50, 100
3, 249216, Note_on_c, 1, 49, 80
3, 249404, Note_off_c, 1, 49, 100
3, 249408, Note_on_c, 1, 50, 80
3, 249596, Note_off_c, 1, 50, 100
3, 249600, Note_on_c, 1, 47, 80
3, 249600, Note_on_c, 1, 43, 80
3, 249980, Note_off_c, 1, 47, 100
3, 249980, Note_off_c, 1, 43, 100
3, 249984, Note_on_c, 1, 50, 80
3, 250364, Note_off_c, 1, 50, 100
3, 250368, Note_on_c, 1, 38, 80
3, 250368, Note_on_c, 1, 52, 80
3, 250556, Note_off_c, 1, 52, 100
3, 250560, Note_on_c, 1, 50, 80
3, 250748, Note_off_c, 1, 38, 100
3, 250748, Note_off_c, 1, 50, 100
3, 250752, Note_on_c, 1, 49, 80
3, 250940, Note_off_c, 1, 49, 100
3, 250944, Note_on_c, 1, 50, 80
3, 251132, Note_off_c, 1, 50, 100
3, 251136, Control_c, 1, 64, 127
3, 251136, Note_on_c, 1, 47, 80
3, 251136, Note_on_c, 1, 43, 80
3, 251516, Note_off_c, 1, 47, 100
3, 251516, Note_off_c, 1, 43, 100
3, 251896, Control_c, 1, 64, 0
3, 251904, Control_c, 1, 64, 127
3, 251904, Note_on_c, 1, 47, 80
3, 252028, Note_off_c, 1, 47, 100
3, 252032, Note_on_c, 1, 54, 80
3, 252156, Note_off_c, 1, 54, 100
3, 252160, Note_on_c, 1, 59, 80
3, 252284, Note_off_c, 1, 59, 100
3, 252288, Note_on_c, 1, 63, 80
3, 252412, Note_off_c, 1, 63, 100
3, 252416, Note_on_c, 1, 59, 80
3, 252540, Note_off_c, 1, 59, 100
3, 252544, Note_on_c, 1, 54, 80
3, 252664, Control_c, 1, 64, 0
3, 252668, Note_off_c, 1, 54, 100
3, 252672, Control_c, 1, 64, 127
3, 252672, Note_on_c, 1, 52, 80
3, 252796, Note_off_c, 1, 52, 100
3, 252800, Note_on_c, 1, 55, 80
3, 252924, Note_off_c, 1, 55, 100
3, 252928, Note_on_c, 1, 59, 80
3, 253052, Note_off_c, 1, 59, 100
3, 253056, Note_on_c, 1, 64, 80
3, 253180, Note_off_c, 1, 64, 100
3, 253184, Note_on_c, 1, 59, 80
3, 253308, Note_off_c, 1, 59, 100
3, 253312, Note_on_c, 1, 55, 80
3, 253432, Control_c, 1, 64, 0
3, 253436, Note_off_c, 1, 55, 100
3, 253440, Control_c, 1, 64, 127
3, 253440, Note_on_c, 1, 47, 80
3, 253564, Note_off_c, 1, 47, 100
3, 253568, Note_on_c, 1, 54, 80
3, 253692, Note_off_c, 1, 54, 100
3, 253696, Note_on_c, 1, 59, 80
3, 253820, Note_off_c, 1, 59, 100
3, 253824, Note_on_c, 1, 63, 80
3, 253948, Note_off_c, 1, 63, 100
3, 253952, Note_on_c, 1, 59, 80
3, 254076, Note_off_c, 1, 59, 100
3, 254080, Note_on_c, 1, 54, 80
3, 254200, Control_c, 1, 64, 0
3, 254204, Note_off_c, 1, 54, 100
3, 254208, Control_c, 1, 64, 127
3, 254208, Note_on_c, 1, 52, 80
3, 254332, Note_off_c, 1, 52, 100
3, 254336, Note_on_c, 1, 55, 80
3, 254460, Note_off_c, 1, 55, 100
3, 254464, Note_on_c, 1, 59, 80
3, 254588, Note_off_c, 1, 59, 100
3, 254592, Note_on_c, 1, 64, 80
3, 254716, Note_off_c, 1, 64, 100
3, 254720, Note_on_c, 1, 59, 80
3, 254844, Note_off_c, 1, 59, 100
3, 254848, Note_on_c, 1, 55, 80
3, 254968, Control_c, 1, 64, 0
3, 254972, Note_off_c, 1, 55, 100
3, 254976, Control_c, 1, 64, 127
3, 254976, Note_on_c, 1, 45, 80
3, 255164, Note_off_c, 1, 45, 100
3, 255168, Note_on_c, 1, 43, 80
3, 255356, Note_off_c, 1, 43, 100
3, 255360, Note_on_c, 1, 42, 80
3, 255548, Note_off_c, 1, 42, 100
3, 255552, Note_on_c, 1, 43, 80
3, 255736, Control_c, 1, 64, 0
3, 255740, Note_off_c, 1, 43, 100
3, 255744, Note_on_c, 1, 40, 80
3, 256124, Note_off_c, 1, 40, 100
3, 256128, Note_on_c, 1, 43, 80
3, 256508, Note_off_c, 1, 43, 100
3, 256512, Note_on_c, 1, 45, 80
3, 256700, Note_off_c, 1, 45, 100
3, 256704, Note_on_c, 1, 43, 80
3, 256892, Note_off_c, 1, 43, 100
3, 256896, Note_on_c, 1, 42, 80
3, 257084, Note_off_c, 1, 42, 100
3, 257088, Note_on_c, 1, 43, 80
3, 257276, Note_off_c, 1, 43, 100
3, 257280, Control_c, 1, 64, 127
3, 257280, Note_on_c, 1, 40, 80
3, 257660, Note_off_c, 1, 40, 100
3, 257664, Note_on_c, 1, 43, 80
3, 258040, Control_c, 1, 64, 0
3, 258044, Note_off_c, 1, 43, 100
3, 258048, Control_c, 1, 64, 127
3, 258048, Note_on_c, 1, 40, 80
3, 258172, Note_off_c, 1, 40, 100
3, 258176, Note_on_c, 1, 52, 80
3, 258300, Note_off_c, 1, 52, 100
3, 258304, Note_on_c, 1, 56, 80
3, 258428, Note_off_c, 1, 56, 100
3, 258432, Note_on_c, 1, 59, 80
3, 258556, Note_off_c, 1, 59, 100
3, 258560, Note_on_c, 1, 56, 80
3, 258684, Note_off_c, 1, 56, 100
3, 258688, Note_on_c, 1, 52, 80
3, 258808, Control_c, 1, 64, 0
3, 258812, Note_off_c, 1, 52, 100
3, 258816, Control_c, 1, 64, 127
3, 258816, Note_on_c, 1, 45, 80
3, 258940, Note_off_c, 1, 45, 100
3, 258944, Note_on_c, 1, 52, 80
3, 259068, Note_off_c, 1, 52, 100
3, 259072, Note_on_c, 1, 57, 80
3, 259196, Note_off_c, 1, 57, 100
3, 259200, Note_on_c, 1, 60, 80
3, 259324, Note_off_c, 1, 60, 100
3, 259328, Note_on_c, 1, 57, 80
3, 259452, Note_off_c, 1, 57, 100
3, 259456, Note_on_c, 1, 52, 80
3, 259576, Control_c, 1, 64, 0
3, 259580, Note_off_c, 1, 52, 100
3, 259584, Control_c, 1, 64, 127
3, 259584, Note_on_c, 1, 40, 80
3, 259708, Note_off_c, 1, 40, 100
3, 259712, Note_on_c, 1, 52, 80
3, 259836, Note_off_c, 1, 52, 100
3, 259840, Note_on_c, 1, 56, 80
3, 259964, Note_off_c, 1, 56, 100
3, 259968, Note_on_c, 1, 59, 80
3, 260092, Note_off_c, 1, 59, 100
3, 260096, Note_on_c, 1, 56, 80
3, 260220, Note_off_c, 1, 56, 100
3, 260224, Note_on_c, 1, 52, 80
3, 260344, Control_c, 1, 64, 0
3, 260348, Note_off_c, 1, 52, 100
3, 260352, Control_c, 1, 64, 127
3, 260352, Note_on_c, 1, 45, 80
3, 260476, Note_off_c, 1, 45, 100
3, 260480, Note_on_c, 1, 52, 80
3, 260604, Note_off_c, 1, 52, 100
3, 260608, Note_on_c, 1, 57, 80
3, 260732, Note_off_c, 1, 57, 100
3, 260736, Note_on_c, 1, 60, 80
3, 260860, Note_off_c, 1, 60, 100
3, 260864, Note_on_c, 1, 57, 80
3, 260988, Note_off_c, 1, 57, 100
3, 260992, Note_on_c, 1, 52, 80
3, 261112, Control_c, 1, 64, 0
3, 261116, Note_off_c, 1, 52, 100
3, 261120, Control_c, 1, 64, 127
3, 261120, Note_on_c, 1, 40, 80
3, 261244, Note_off_c, 1, 40, 100
3, 261248, Note_on_c, 1, 52, 80
3, 261372, Note_off_c, 1, 52, 100
3, 261376, Note_on_c, 1, 56, 81
3, 261500, Note_off_c, 1, 56, 100
3, 261504, Note_on_c, 1, 59, 81
3, 261628, Note_off_c, 1, 59, 100
3, 261632, Note_on_c, 1, 56, 82
3, 261756, Note_off_c, 1, 56, 100
3, 261760, Note_on_c, 1, 52, 82
3, 261880, Control_c, 1, 64, 0
3, 261884, Note_off_c, 1, 52, 100
3, 261888, Control_c, 1, 64, 127
3, 261888, Note_on_c, 1, 45, 83
3, 262012, Note_off_c, 1, 45, 100
3, 262016, Note_on_c, 1, 52, 83
3, 262140, Note_off_c, 1, 52, 100
3, 262144, Note_on_c, 1, 57, 84
3, 262268, Note_off_c, 1, 57, 100
3, 262272, Note_on_c, 1, 60, 84
3, 262396, Note_off_c, 1, 60, 100
3, 262400, Note_on_c, 1, 57, 85
3, 262524, Note_off_c, 1, 57, 100
3, 262528, Note_on_c, 1, 52, 85
3, 262648, Control_c, 1, 64, 0
3, 262652, Note_off_c, 1, 52, 100
3, 262656, Control_c, 1, 64, 127
3, 262656, Note_on_c, 1, 48, 86
3, 262780, Note_off_c, 1, 48, 100
3, 262784, Note_on_c, 1, 52, 86
3, 262908, Note_off_c, 1, 52, 100
3, 262912, Note_on_c, 1, 57, 87
3, 263036, Note_off_c, 1, 57, 100
3, 263040, Note_on_c, 1, 60, 87
3, 263164, Note_off_c, 1, 60, 100
3, 263168, Note_on_c, 1, 57, 88
3, 263292, Note_off_c, 1, 57, 100
3, 263296, Note_on_c, 1, 52, 88
3, 263416, Control_c, 1, 64, 0
3, 263420, Note_off_c, 1, 52, 100
3, 263424, Control_c, 1, 64, 127
3, 263424, Note_on_c, 1, 50, 89
3, 263548, Note_off_c, 1, 50, 100
3, 263552, Note_on_c, 1, 57, 89
3, 263676, Note_off_c, 1, 57, 100
3, 263680, Note_on_c, 1, 60, 90
3, 263804, Note_off_c, 1, 60, 100
3, 263808, Note_on_c, 1, 62, 90
3, 263932, Note_off_c, 1, 62, 100
3, 263936, Note_on_c, 1, 60, 91
3, 264060, Note_off_c, 1, 60, 100
3, 264064, Note_on_c, 1, 57, 91
3, 264184, Control_c, 1, 64, 0
3, 264188, Note_off_c, 1, 57, 100
3, 264192, Control_c, 1, 64, 127
3, 264192, Note_on_c, 1, 42, 92
3, 264316, Note_off_c, 1, 42, 100
3, 264320, Note_on_c, 1, 50, 92
3, 264444, Note_off_c, 1, 50, 100
3, 264448, Note_on_c, 1, 54, 93
3, 264572, Note_off_c, 1, 54, 100
3, 264576, Note_on_c, 1, 57, 93
3, 264700, Note_off_c, 1, 57, 100
3, 264704, Note_on_c, 1, 54, 94
3, 264828, Note_off_c, 1, 54, 100
3, 264832, Note_on_c, 1, 50, 94
3, 264952, Control_c, 1, 64, 0
3, 264956, Note_off_c, 1, 50, 100
3, 264960, Control_c, 1, 64, 127
3, 264960, Note_on_c, 1, 43, 95
3, 265084, Note_off_c, 1, 43, 100
3, 265088, Note_on_c, 1, 50, 95
3, 265212, Note_off_c, 1, 50, 100
3, 265216, Note_on_c, 1, 55, 96
3, 265340, Note_off_c, 1, 55, 100
3, 265344, Note_on_c, 1, 59, 96
3, 265468, Note_off_c, 1, 59, 100
3, 265472, Note_on_c, 1, 55, 97
3, 265596, Note_off_c, 1, 55, 100
3, 265600, Note_on_c, 1, 50, 97
3, 265720, Control_c, 1, 64, 0
3, 265724, Note_off_c, 1, 50, 100
3, 265728, Control_c, 1, 64, 127
3, 265728, Note_on_c, 1, 45, 98
3, 265852, Note_off_c, 1, 45, 100
3, 265856, Note_on_c, 1, 55, 98
3, 265980, Note_off_c, 1, 55, 100
3, 265984, Note_on_c, 1, 57, 99
3, 266108, Note_off_c, 1, 57, 100
3, 266112, Note_on_c, 1, 61, 99
3, 266236, Note_off_c, 1, 61, 100
3, 266240, Note_on_c, 1, 57, 100
3, 266364, Note_off_c, 1, 57, 100
3, 266368, Note_on_c, 1, 55, 100
3, 266488, Control_c, 1, 64, 0
3, 266492, Note_off_c, 1, 55, 100
3, 266496, Control_c, 1, 64, 127
3, 266496, Note_on_c, 1, 50, 101
3, 266620, Note_off_c, 1, 50, 100
3, 266624, Note_on_c, 1, 54, 101
3, 266748, Note_off_c, 1, 54, 100
3, 266752, Note_on_c, 1, 57, 102
3, 266876, Note_off_c, 1, 57, 100
3, 266880, Note_on_c, 1, 62, 102
3, 267004, Note_off_c, 1, 62, 100
3, 267008, Note_on_c, 1, 57, 103
3, 267132, Note_off_c, 1, 57, 100
3, 267136, Note_on_c, 1, 54, 103
3, 267256, Control_c, 1, 64, 0
3, 267260, Note_off_c, 1, 54, 100
3, 267264, Control_c, 1, 64, 127
3, 267264, Note_on_c, 1, 42, 104
3, 267388, Note_off_c, 1, 42, 100
3, 267392, Note_on_c, 1, 50, 104
3, 267516, Note_off_c, 1, 50, 100
3, 267520, Note_on_c, 1, 54, 105
3, 267644, Note_off_c, 1, 54, 100
3, 267648, Note_on_c, 1, 57, 105
3, 267772, Note_off_c, 1, 57, 100
3, 267776, Note_on_c, 1, 54, 106
3, 267900, Note_off_c, 1, 54, 100
3, 267904, Note_on_c, 1, 50, 106
3, 268024, Control_c, 1, 64, 0
3, 268028, Note_off_c, 1, 50, 100
3, 268032, Control_c, 1, 64, 127
3, 268032, Note_on_c, 1, 43, 107
3, 268156, Note_off_c, 1, 43, 100
3, 268160, Note_on_c, 1, 50, 107
3, 268284, Note_off_c, 1, 50, 100
3, 268288, Note_on_c, 1, 55, 108
3, 268412, Note_off_c, 1, 55, 100
3, 268416, Note_on_c, 1, 59, 108
3, 268540, Note_off_c, 1, 59, 100
3, 268544, Note_on_c, 1, 55, 109
3, 268668, Note_off_c, 1, 55, 100
3, 268672, Note_on_c, 1, 50, 109
3, 268792, Control_c, 1, 64, 0
3, 268796, Note_off_c, 1, 50, 100
3, 268800, Control_c, 1, 64, 127
3, 268800, Note_on_c, 1, 45, 110
3, 268924, Note_off_c, 1, 45, 100
3, 268928, Note_on_c, 1, 55, 110
3, 269052, Note_off_c, 1, 55, 100
3, 269056, Note_on_c, 1, 57, 110
3, 269180, Note_off_c, 1, 57, 100
3, 269184, Note_on_c, 1, 61, 110
3, 269308, Note_off_c, 1, 61, 100
3, 269312, Note_on_c, 1, 57, 110
3, 269436, Note_off_c, 1, 57, 100
3, 269440, Note_on_c, 1, 55, 110
3, 269560, Control_c, 1, 64, 0
3, 269564, Note_off_c, 1, 55, 100
3, 269568, Control_c, 1, 64, 127
3, 269568, Note_on_c, 1, 50, 110
3, 269692, Note_off_c, 1, 50, 100
3, 269696, Note_on_c, 1, 54, 110
3, 269820, Note_off_c, 1, 54, 100
3, 269824, Note_on_c, 1, 57, 110
3, 269948, Note_off_c, 1, 57, 100
3, 269952, Note_on_c, 1, 62, 110
3, 270076, Note_off_c, 1, 62, 100
3, 270080, Note_on_c, 1, 57, 110
3, 270204, Note_off_c, 1, 57, 100
3, 270208, Note_on_c, 1, 54, 110
3, 270328, Control_c, 1, 64, 0
3, 270332, Note_off_c, 1, 54, 100
3, 270336, Control_c, 1, 64, 127
3, 270336, Note_on_c, 1, 45, 110
3, 270460, Note_off_c, 1, 45, 100
3, 270464, Note_on_c, 1, 55, 110
3, 270588, Note_off_c, 1, 55, 100
3, 270592, Note_on_c, 1, 57, 110
3, 270716, Note_off_c, 1, 57, 100
3, 270720, Note_on_c, 1, 61, 110
3, 270844, Note_off_c, 1, 61, 100
3, 270848, Note_on_c, 1, 57, 110
3, 270972, Note_off_c, 1, 57, 100
3, 270976, Note_on_c, 1, 55, 110
3, 271096, Control_c, 1, 64, 0
3, 271100, Note_off_c, 1, 55, 100
3, 271104, Control_c, 1, 64, 127
3, 271104, Note_on_c, 1, 50, 110
3, 271228, Note_off_c, 1, 50, 100
3, 271232, Note_on_c, 1, 54, 110
3, 271356, Note_off_c, 1, 54, 100
3, 271360, Note_on_c, 1, 57, 110
3, 271484, Note_off_c, 1, 57, 100
3, 271488, Note_on_c, 1, 62, 110
3, 271612, Note_off_c, 1, 62, 100
3, 271616, Note_on_c, 1, 57, 110
3, 271740, Note_off_c, 1, 57, 100
3, 271744, Note_on_c, 1, 54, 110
3, 271864, Control_c, 1, 64, 0
3, 271868, Note_off_c, 1, 54, 100
3, 271872, Control_c, 1, 64, 127
3, 271872, Note_on_c, 1, 45, 110
3, 271996, Note_off_c, 1, 45, 100
3, 272000, Note_on_c, 1, 55, 110
3, 272124, Note_off_c, 1, 55, 100
3, 272128, Note_on_c, 1, 57, 110
3, 272252, Note_off_c, 1, 57, 100
3, 272256, Note_on_c, 1, 61, 110
3, 272380, Note_off_c, 1, 61, 100
3, 272384, Note_on_c, 1, 57, 110
3, 272508, Note_off_c, 1, 57, 100
3, 272512, Note_on_c, 1, 55, 110
3, 272632, Control_c, 1, 64, 0
3, 272636, Note_off_c, 1, 55, 100
3, 272640, Note_on_c, 1, 54, 80
3, 272640, Note_on_c, 1, 50, 80
3, 272732, Note_off_c, 1, 54, 100
3, 272736, Note_on_c, 1, 62, 80
3, 273020, Note_off_c, 1, 50, 100
3, 273408, Note_on_c, 1, 60, 80
3, 273788, Note_off_c, 1, 60, 100
3, 273792, Note_on_c, 1, 57, 80
3, 274172, Note_off_c, 1, 57, 100
3, 274176, Note_on_c, 1, 59, 80
3, 274556, Note_off_c, 1, 59, 100
3, 274560, Note_on_c, 1, 55, 80
3, 274940, Note_off_c, 1, 55, 100
3, 274944, Note_on_c, 1, 60, 80
3, 275324, Note_off_c, 1, 60, 100
3, 275328, Note_on_c, 1, 57, 80
3, 275708, Note_off_c, 1, 57, 100
3, 275712, Note_on_c, 1, 59, 80
3, 276092, Note_off_c, 1, 59, 100
3, 276096, Note_on_c, 1, 55, 80
3, 276476, Note_off_c, 1, 55, 100
3, 276480, Note_on_c, 1, 60, 80
3, 276860, Note_off_c, 1, 60, 100
3, 276864, Note_on_c, 1, 57, 80
3, 277244, Note_off_c, 1, 57, 100
3, 277248, Note_on_c, 1, 59, 80
3, 277628, Note_off_c, 1, 59, 100
3, 277632, Note_on_c, 1, 55, 80
3, 278012, Note_off_c, 1, 55, 100
3, 278016, Note_on_c, 1, 57, 80
3, 278396, Note_off_c, 1, 57, 100
3, 278400, Note_on_c, 1, 50, 80
3, 278780, Note_off_c, 1, 50, 100
3, 278784, Note_on_c, 1, 55, 80
3, 279164, Note_off_c, 1, 62, 100
3, 279164, Note_off_c, 1, 55, 100
3, 279168, Note_on_c, 1, 47, 80
3, 279548, Note_off_c, 1, 47, 100
3, 279552, Note_on_c, 1, 48, 80
3, 279552, Note_on_c, 1, 50, 80
3, 279932, Note_off_c, 1, 48, 100
3, 279936, Note_on_c, 1, 45, 80
3, 280316, Note_off_c, 1, 45, 100
3, 280320, Note_on_c, 1, 47, 80
3, 280700, Note_off_c, 1, 47, 100
3, 280704, Note_on_c, 1, 43, 80
3, 281084, Note_off_c, 1, 43, 100
3, 281088, Note_on_c, 1, 45, 80
3, 281468, Note_off_c, 1, 45, 100
3, 281472, Note_on_c, 1, 38, 80
3, 281852, Note_off_c, 1, 38, 100
3, 281856, Note_on_c, 1, 43, 80
3, 282236, Note_off_c, 1, 50, 100
3, 282236, Note_off_c, 1, 43, 100
3, 282240, Note_on_c, 1, 35, 80
3, 282620, Note_off_c, 1, 35, 100
3, 282624, Note_on_c, 1, 36, 80
3, 282624, Note_on_c, 1, 38, 80
3, 283004, Note_off_c, 1, 36, 100
3, 283008, Note_on_c, 1, 33, 80
3, 283388, Note_off_c, 1, 33, 100
3, 283392, Note_on_c, 1, 35, 80
3, 283772, Note_off_c, 1, 35, 100
3, 283776, Note_on_c, 1, 31, 80
3, 284156, Note_off_c, 1, 31, 100
3, 284160, Note_on_c, 1, 33, 80
3, 284540, Note_off_c, 1, 33, 100
3, 284544, Note_on_c, 1, 35, 80
3, 284924, Note_off_c, 1, 35, 100
3, 284928, Note_on_c, 1, 35, 80
3, 285308, Note_off_c, 1, 35, 100
3, 285312, Note_on_c, 1, 31, 80
3, 285692, Note_off_c, 1, 38, 100
3, 285692, Note_off_c, 1, 31, 100
3, 285696, Note_on_c, 1, 33, 80
3, 285696, Note_on_c, 1, 38, 80
3, 286076, Note_off_c, 1, 33, 100
3, 286080, Note_on_c, 1, 36, 80
3, 286460, Note_off_c, 1, 36, 100
3, 286464, Note_on_c, 1, 35, 80
3, 286844, Note_off_c, 1, 35, 100
3, 286848, Note_on_c, 1, 31, 80
3, 287228, Note_off_c, 1, 31, 100
3, 287232, Note_on_c, 1, 33, 80
3, 287612, Note_off_c, 1, 33, 100
3, 287616, Note_on_c, 1, 36, 80
3, 287996, Note_off_c, 1, 36, 100
3, 288000, Note_on_c, 1, 35, 80
3, 288380, Note_off_c, 1, 38, 100
3, 288380, Note_off_c, 1, 35, 100
3, 288384, Note_on_c, 1, 43, 80
3, 288384, Note_on_c, 1, 31, 80
3, 288764, Note_off_c, 1, 43, 100
3, 288764, Note_off_c, 1, 31, 100
3, 289152, Note_on_c, 1, 47, 80
3, 289152, Note_on_c, 1, 43, 80
3, 289532, Note_off_c, 1, 47, 100
3, 289532, Note_off_c, 1, 43, 100
3, 289920, Note_on_c, 1, 47, 80
3, 289920, Note_on_c, 1, 43, 80
3, 289920, Note_on_c, 1, 50, 80
3, 290300, Note_off_c, 1, 47, 100
3, 290300, Note_off_c, 1, 43, 100
3, 290300, Note_off_c, 1, 50, 100
3, 290688, Note_on_c, 1, 55, 80
3, 290688, Note_on_c, 1, 50, 80
3, 290688, Note_on_c, 1, 47, 80
3, 290688, Note_on_c, 1, 43, 80
3, 291068, Note_off_c, 1, 55, 100
3, 291068, Note_off_c, 1, 50, 100
3, 291068, Note_off_c, 1, 47, 100
3, 291068, Note_off_c, 1, 43, 100
3, 291456, Note_on_c, 1, 55, 83
3, 291456, Note_on_c, 1, 50, 83
3, 291456, Note_on_c, 1, 47, 83
3, 291836, Note_off_c, 1, 55, 100
3, 291836, Note_off_c, 1, 50, 100
3, 291836, Note_off_c, 1, 47, 100
3, 291840, Note_on_c, 1, 55, 87
3, 291840, Note_on_c, 1, 49, 87
3, 291840, Note_on_c, 1, 46, 87
3, 292220, Note_off_c, 1, 55, 100
3, 292220, Note_off_c, 1, 49, 100
3, 292220, Note_off_c, 1, 46, 100
3, 292224, Note_on_c, 1, 55, 91
3, 292224, Note_on_c, 1, 50, 91
3, 292224, Note_on_c, 1, 47, 91
3, 292604, Note_off_c, 1, 55, 100
3, 292604, Note_off_c, 1, 50, 100
3, 292604, Note_off_c, 1, 47, 100
3, 292608, Note_on_c, 1, 55, 95
3, 292608, Note_on_c, 1, 49, 95
3, 292608, Note_on_c, 1, 46, 95
3, 292988, Note_off_c, 1, 55, 100
3, 292988, Note_off_c, 1, 49, 100
3, 292988, Note_off_c, 1, 46, 100
3, 292992, Note_on_c, 1, 55, 98
3, 292992, Note_on_c, 1, 50, 98
3, 292992, Note_on_c, 1, 47, 98
3, 293372, Note_off_c, 1, 55, 100
3, 293372, Note_off_c, 1, 50, 100
3, 293372, Note_off_c, 1, 47, 100
3, 293376, Note_on_c, 1, 55, 102
3, 293376, Note_on_c, 1, 49, 102
3, 293376, Note_on_c, 1, 46, 102
3, 293756, Note_off_c, 1, 55, 100
3, 293756, Note_off_c, 1, 49, 100
3, 293756, Note_off_c, 1, 46, 100
3, 293760, Note_on_c, 1, 55, 106
3, 293760, Note_on_c, 1, 50, 106
3, 293760, Note_on_c, 1, 47, 106
3, 294140, Note_off_c, 1, 55, 100
3, 294140, Note_off_c, 1, 50, 100
3, 294140, Note_off_c, 1, 47, 100
3, 294144, Note_on_c, 1, 55, 80
3, 294144, Note_on_c, 1, 49, 80
3, 294144, Note_on_c, 1, 46, 80
3, 294524, Note_off_c, 1, 55, 100
3, 294524, Note_off_c, 1, 49, 100
3, 294524, Note_off_c, 1, 46, 100
3, 294528, Note_on_c, 1, 55, 80
3, 294528, Note_on_c, 1, 50, 80
3, 294528, Note_on_c, 1, 47, 80
3, 294908, Note_off_c, 1, 55, 100
3, 294908, Note_off_c, 1, 50, 100
3, 294908, Note_off_c, 1, 47, 100
3, 294912, Note_on_c, 1, 55, 80
3, 294912, Note_on_c, 1, 52, 80
3, 294912, Note_on_c, 1, 48, 80
3, 296060, Note_off_c, 1, 48, 100
3, 296060, Note_off_c, 1, 52, 100
3, 296060, Note_off_c, 1, 55, 100
3, 296064, Note_on_c, 1, 60, 80
3, 296064, Note_on_c, 1, 48, 80
3, 296444, Note_off_c, 1, 60, 100
3, 296444, Note_off_c, 1, 48, 100
3, 296448, Note_on_c, 1, 59, 80
3, 296448, Note_on_c, 1, 50, 80
3, 296828, Note_off_c, 1, 59, 100
3, 296828, Note_off_c, 1, 50, 100
3, 296832, Note_on_c, 1, 57, 80
3, 296832, Note_on_c, 1, 50, 80
3, 297212, Note_off_c, 1, 57, 100
3, 297212, Note_off_c, 1, 50, 100
3, 297600, Note_on_c, 1, 55, 81
3, 297600, Note_on_c, 1, 50, 81
3, 297600, Note_on_c, 1, 47, 81
3, 297980, Note_off_c, 1, 55, 100
3, 297980, Note_off_c, 1, 50, 100
3, 297980, Note_off_c, 1, 47, 100
3, 297984, Note_on_c, 1, 55, 82
3, 297984, Note_on_c, 1, 49, 82
3, 297984, Note_on_c, 1, 46, 82
3, 298364, Note_off_c, 1, 55, 100
3, 298364, Note_off_c, 1, 49, 100
3, 298364, Note_off_c, 1, 46, 100
3, 298368, Note_on_c, 1, 55, 83
3, 298368, Note_on_c, 1, 50, 83
3, 298368, Note_on_c, 1, 47, 83
3, 298748, Note_off_c, 1, 55, 100
3, 298748, Note_off_c, 1, 50, 100
3, 298748, Note_off_c, 1, 47, 100
3, 298752, Note_on_c, 1, 55, 85
3, 298752, Note_on_c, 1, 49, 85
3, 298752, Note_on_c, 1, 46, 85
3, 299132, Note_off_c, 1, 55, 100
3, 299132, Note_off_c, 1, 49, 100
3, 299132, Note_off_c, 1, 46, 100
3, 299136, Note_on_c, 1, 55, 86
3, 299136, Note_on_c, 1, 50, 86
3, 299136, Note_on_c, 1, 47, 86
3, 299516, Note_off_c, 1, 55, 100
3, 299516, Note_off_c, 1, 50, 100
3, 299516, Note_off_c, 1, 47, 100
3, 299520, Note_on_c, 1, 55, 87
3, 299520, Note_on_c, 1, 49, 87
3, 299520, Note_on_c, 1, 46, 87
3, 299900, Note_off_c, 1, 55, 100
3, 299900, Note_off_c, 1, 49, 100
3, 299900, Note_off_c, 1, 46, 100
3, 299904, Note_on_c, 1, 55, 88
3, 299904, Note_on_c, 1, 50, 88
3, 299904, Note_on_c, 1, 47, 88
3, 300284, Note_off_c, 1, 55, 100
3, 300284, Note_off_c, 1, 50, 100
3, 300284, Note_off_c, 1, 47, 100
3, 300288, Note_on_c, 1, 55, 90
3, 300288, Note_on_c, 1, 49, 90
3, 300288, Note_on_c, 1, 46, 90
3, 300668, Note_off_c, 1, 55, 100
3, 300668, Note_off_c, 1, 49, 100
3, 300668, Note_off_c, 1, 46, 100
3, 300672, Note_on_c, 1, 55, 91
3, 300672, Note_on_c, 1, 50, 91
3, 300672, Note_on_c, 1, 47, 91
3, 301052, Note_off_c, 1, 55, 100
3, 301052, Note_off_c, 1, 50, 100
3, 301052, Note_off_c, 1, 47, 100
3, 301056, Note_on_c, 1, 59, 92
3, 301056, Note_on_c, 1, 53, 92
3, 301056, Note_on_c, 1, 50, 92
3, 302204, Note_off_c, 1, 50, 100
3, 302204, Note_off_c, 1, 53, 100
3, 302204, Note_off_c, 1, 59, 100
3, 302208, Note_on_c, 1, 55, 96
3, 302208, Note_on_c, 1, 50, 96
3, 302208, Note_on_c, 1, 47, 96
3, 302588, Note_off_c, 1, 55, 100
3, 302588, Note_off_c, 1, 50, 100
3, 302588, Note_off_c, 1, 47, 100
3, 302592, Note_on_c, 1, 60, 97
3, 302592, Note_on_c, 1, 55, 97
3, 302592, Note_on_c, 1, 52, 97
3, 303740, Note_off_c, 1, 52, 100
3, 303740, Note_off_c, 1, 55, 100
3, 303740, Note_off_c, 1, 60, 100
3, 303744, Note_on_c, 1, 58, 101
3, 303744, Note_on_c, 1, 52, 101
3, 303744, Note_on_c, 1, 49, 101
3, 304124, Note_off_c, 1, 58, 100
3, 304124, Note_off_c, 1, 52, 100
3, 304124, Note_off_c, 1, 49, 100
3, 304128, Note_on_c, 1, 58, 102
3, 304128, Note_on_c, 1, 52, 102
3, 304128, Note_on_c, 1, 61, 102
3, 305276, Note_off_c, 1, 52, 100
3, 305276, Note_off_c, 1, 58, 100
3, 305276, Note_off_c, 1, 61, 100
3, 305280, Note_on_c, 1, 61, 106
3, 305280, Note_on_c, 1, 58, 106
3, 305280, Note_on_c, 1, 52, 106
3, 306044, Note_off_c, 1, 61, 100
3, 306044, Note_off_c, 1, 58, 100
3, 306044, Note_off_c, 1, 52, 100
3, 306048, Note_on_c, 1, 61, 108
3, 306048, Note_on_c, 1, 58, 108
3, 306048, Note_on_c, 1, 52, 108
3, 306428, Note_off_c, 1, 61, 100
3, 306428, Note_off_c, 1, 58, 100
3, 306428, Note_off_c, 1, 52, 100
3, 306432, Control_c, 1, 64, 127
3, 306432, Note_on_c, 1, 50, 100
3, 306556, Note_off_c, 1, 50, 100
3, 306560, Note_on_c, 1, 59, 100
3, 306684, Note_off_c, 1, 59, 100
3, 306688, Note_on_c, 1, 62, 100
3, 306812, Note_off_c, 1, 62, 100
3, 306816, Note_on_c, 1, 52, 99
3, 306940, Note_off_c, 1, 52, 100
3, 306944, Note_on_c, 1, 58, 99
3, 307068, Note_off_c, 1, 58, 100
3, 307072, Note_on_c, 1, 61, 99
3, 307192, Control_c, 1, 64, 0
3, 307196, Note_off_c, 1, 61, 100
3, 307200, Control_c, 1, 64, 127
3, 307200, Note_on_c, 1, 50, 98
3, 307324, Note_off_c, 1, 50, 100
3, 307328, Note_on_c, 1, 59, 98
3, 307452, Note_off_c, 1, 59, 100
3, 307456, Note_on_c, 1, 62, 97
3, 307580, Note_off_c, 1, 62, 100
3, 307584, Note_on_c, 1, 49, 97
3, 307708, Note_off_c, 1, 49, 100
3, 307712, Note_on_c, 1, 58, 97
3, 307836, Note_off_c, 1, 58, 100
3, 307840, Note_on_c, 1, 64, 96
3, 307960, Control_c, 1, 64, 0
3, 307964, Note_off_c, 1, 64, 100
3, 307968, Control_c, 1, 64, 127
3, 307968, Note_on_c, 1, 50, 96
3, 308092, Note_off_c, 1, 50, 100
3, 308096, Note_on_c, 1, 59, 96
3, 308220, Note_off_c, 1, 59, 100
3, 308224, Note_on_c, 1, 62, 95
3, 308348, Note_off_c, 1, 62, 100
3, 308352, Note_on_c, 1, 40, 95
3, 308728, Control_c, 1, 64, 0
3, 308732, Note_off_c, 1, 40, 100
3, 308736, Control_c, 1, 64, 127
3, 308736, Note_on_c, 1, 38, 94
3, 309116, Note_off_c, 1, 38, 100
3, 309120, Note_on_c, 1, 37, 92
3, 309496, Control_c, 1, 64, 0
3, 309500, Note_off_c, 1, 37, 100
3, 309504, Control_c, 1, 64, 127
3, 309504, Note_on_c, 1, 38, 91
3, 309884, Note_off_c, 1, 38, 100
3, 309888, Note_on_c, 1, 52, 80
3, 310012, Note_off_c, 1, 52, 100
3, 310016, Note_on_c, 1, 58, 80
3, 310140, Note_off_c, 1, 58, 100
3, 310144, Note_on_c, 1, 61, 80
3, 310264, Control_c, 1, 64, 0
3, 310268, Note_off_c, 1, 61, 100
3, 310272, Control_c, 1, 64, 127
3, 310272, Note_on_c, 1, 50, 80
3, 310396, Note_off_c, 1, 50, 100
3, 310400, Note_on_c, 1, 59, 80
3, 310524, Note_off_c, 1, 59, 100
3, 310528, Note_on_c, 1, 62, 80
3, 310652, Note_off_c, 1, 62, 100
3, 310656, Note_on_c, 1, 49, 80
3, 310780, Note_off_c, 1, 49, 100
3, 310784, Note_on_c, 1, 58, 80
3, 310908, Note_off_c, 1, 58, 100
3, 310912, Note_on_c, 1, 64, 80
3, 311032, Control_c, 1, 64, 0
3, 311036, Note_off_c, 1, 64, 100
3, 311040, Control_c, 1, 64, 127
3, 311040, Note_on_c, 1, 50, 80
3, 311164, Note_off_c, 1, 50, 100
3, 311168, Note_on_c, 1, 59, 80
3, 311292, Note_off_c, 1, 59, 100
3, 311296, Note_on_c, 1, 62, 80
3, 311420, Note_off_c, 1, 62, 100
3, 311424, Note_on_c, 1, 40, 80
3, 311800, Control_c, 1, 64, 0
3, 311804, Note_off_c, 1, 40, 100
3, 311808, Control_c, 1, 64, 127
3, 311808, Note_on_c, 1, 38, 80
3, 312188, Note_off_c, 1, 38, 100
3, 312192, Note_on_c, 1, 37, 80
3, 312568, Control_c, 1, 64, 0
3, 312572, Note_off_c, 1, 37, 100
3, 312576, Note_on_c, 1, 38, 80
3, 312956, Note_off_c, 1, 38, 100
3, 312960, Note_on_c, 1, 40, 83
3, 313340, Note_off_c, 1, 40, 100
3, 313344, Note_on_c, 1, 38, 87
3, 313724, Note_off_c, 1, 38, 100
3, 313728, Note_on_c, 1, 37, 91
3, 314108, Note_off_c, 1, 37, 100
3, 314112, Note_on_c, 1, 38, 95
3, 314492, Note_off_c, 1, 38, 100
3, 314496, Note_on_c, 1, 37, 99
3, 314876, Note_off_c, 1, 37, 100
3, 314880, Note_on_c, 1, 38, 103
3, 315260, Note_off_c, 1, 38, 100
3, 315264, Note_on_c, 1, 37, 107
3, 315644, Note_off_c, 1, 37, 100
3, 315648, Note_on_c, 1, 50, 111
3, 315648, Note_on_c, 1, 38, 111
3, 319488, Note_on_c, 1, 57, 80
3, 319868, Note_off_c, 1, 57, 100
3, 319872, Note_on_c, 1, 57, 80
3, 320252, Note_off_c, 1, 57, 100
3, 320256, Note_on_c, 1, 57, 80
3, 320636, Note_off_c, 1, 57, 100
3, 320640, Note_on_c, 1, 55, 80
3, 320828, Note_off_c, 1, 55, 100
3, 321024, Note_on_c, 1, 55, 80
3, 321404, Note_off_c, 1, 55, 100
3, 321408, Note_on_c, 1, 54, 80
3, 321788, Note_off_c, 1, 50, 100
3, 321788, Note_off_c, 1, 54, 100
3, 321792, Note_on_c, 1, 53, 80
3, 322172, Note_off_c, 1, 53, 100
3, 322176, Note_on_c, 1, 52, 80
3, 322556, Note_off_c, 1, 52, 100
3, 322560, Note_on_c, 1, 51, 80
3, 322940, Note_off_c, 1, 51, 100
3, 322944, Note_on_c, 1, 51, 80
3, 323324, Note_off_c, 1, 51, 100
3, 323328, Note_on_c, 1, 51, 80
3, 323708, Note_off_c, 1, 51, 100
3, 323712, Note_on_c, 1, 50, 80
3, 324092, Note_off_c, 1, 50, 100
3, 324096, Note_on_c, 1, 49, 80
3, 324476, Note_off_c, 1, 49, 100
3, 324480, Note_on_c, 1, 48, 80
3, 324860, Note_off_c, 1, 48, 100
3, 324864, Note_on_c, 1, 48, 80
3, 325244, Note_off_c, 1, 48, 100
3, 325248, Note_on_c, 1, 47, 80
3, 325628, Note_off_c, 1, 47, 100
3, 325632, Note_on_c, 1, 46, 80
3, 326012, Note_off_c, 1, 46, 100
3, 326016, Note_on_c, 1, 45, 83
3, 326396, Note_off_c, 1, 45, 100
3, 326400, Note_on_c, 1, 44, 87
3, 326780, Note_off_c, 1, 44, 100
3, 326784, Note_on_c, 1, 43, 90
3, 326972, Note_off_c, 1, 38, 100
3, 326972, Note_off_c, 1, 43, 100
3, 326976, Note_on_c, 1, 50, 92
3, 326976, Note_on_c, 1, 38, 92
3, 327164, Note_off_c, 1, 50, 100
3, 327164, Note_off_c, 1, 38, 100
3, 327168, Note_on_c, 1, 55, 94
3, 327168, Note_on_c, 1, 43, 94
3, 327548, Note_off_c, 1, 55, 100
3, 327548, Note_off_c, 1, 43, 100
3, 327552, Note_on_c, 1, 55, 97
3, 327932, Note_off_c, 1, 55, 100
3, 327936, Note_on_c, 1, 61, 101
3, 327936, Note_on_c, 1, 55, 101
3, 328316, Note_off_c, 1, 61, 100
3, 328316, Note_off_c, 1, 55, 100
3, 328320, Note_on_c, 1, 62, 104
3, 328320, Note_on_c, 1, 54, 104
3, 328508, Note_off_c, 1, 62, 100
3, 328508, Note_off_c, 1, 54, 100
3, 328512, Note_on_c, 1, 47, 106
3, 328700, Note_off_c, 1, 47, 100
3, 328704, Note_on_c, 1, 52, 108
3, 329084, Note_off_c, 1, 52, 100
3, 329088, Note_on_c, 1, 52, 111
3, 329468, Note_off_c, 1, 52, 100
3, 329472, Note_on_c, 1, 58, 110
3, 329472, Note_on_c, 1, 52, 110
3, 329852, Note_off_c, 1, 58, 100
3, 329852, Note_off_c, 1, 52, 100
3, 329856, Note_on_c, 1, 59, 110
3, 329856, Note_on_c, 1, 50, 110
3, 330044, Note_off_c, 1, 59, 100
3, 330044, Note_off_c, 1, 50, 100
3, 330048, Note_on_c, 1, 43, 110
3, 330236, Note_off_c, 1, 43, 100
3, 330240, Note_on_c, 1, 48, 110
3, 330620, Note_off_c, 1, 48, 100
3, 330624, Note_on_c, 1, 48, 110
3, 330624, Note_on_c, 1, 36, 110
3, 331004, Note_off_c, 1, 48, 100
3, 331004, Note_off_c, 1, 36, 100
3, 331008, Note_on_c, 1, 48, 110
3, 331008, Note_on_c, 1, 42, 110
3, 331388, Note_off_c, 1, 48, 100
3, 331388, Note_off_c, 1, 42, 100
3, 331392, Note_on_c, 1, 47, 110
3, 331392, Note_on_c, 1, 43, 110
3, 331580, Note_off_c, 1, 47, 100
3, 331580, Note_off_c, 1, 43, 100
3, 331584, Note_on_c, 1, 40, 110
3, 331772, Note_off_c, 1, 40, 100
3, 331776, Note_on_c, 1, 45, 110
3, 332156, Note_off_c, 1, 45, 100
3, 332160, Note_on_c, 1, 45, 110
3, 332160, Note_on_c, 1, 42, 110
3, 332540, Note_off_c, 1, 45, 100
3, 332540, Note_off_c, 1, 42, 100
3, 332544, Control_c, 1, 64, 127
3, 332544, Note_on_c, 1, 38, 70
3, 332668, Note_off_c, 1, 38, 100
3, 332672, Note_on_c, 1, 45, 70
3, 332796, Note_off_c, 1, 45, 100
3, 332800, Note_on_c, 1, 50, 70
3, 332924, Note_off_c, 1, 50, 100
3, 332928, Note_on_c, 1, 54, 70
3, 333052, Note_off_c, 1, 54, 100
3, 333056, Note_on_c, 1, 50, 70
3, 333180, Note_off_c, 1, 50, 100
3, 333184, Note_on_c, 1, 45, 70
3, 333304, Control_c, 1, 64, 0
3, 333308, Note_off_c, 1, 45, 100
3, 333312, Control_c, 1, 64, 127
3, 333312, Note_on_c, 1, 38, 70
3, 333436, Note_off_c, 1, 38, 100
3, 333440, Note_on_c, 1, 45, 70
3, 333564, Note_off_c, 1, 45, 100
3, 333568, Note_on_c, 1, 50, 70
3, 333692, Note_off_c, 1, 50, 100
3, 333696, Note_on_c, 1, 54, 70
3, 333820, Note_off_c, 1, 54, 100
3, 333824, Note_on_c, 1, 50, 70
3, 333948, Note_off_c, 1, 50, 100
3, 333952, Note_on_c, 1, 45, 70
3, 334072, Control_c, 1, 64, 0
3, 334076, Note_off_c, 1, 45, 100
3, 334080, Control_c, 1, 64, 127
3, 334080, Note_on_c, 1, 38, 70
3, 334204, Note_off_c, 1, 38, 100
3, 334208, Note_on_c, 1, 45, 70
3, 334332, Note_off_c, 1, 45, 100
3, 334336, Note_on_c, 1, 50, 70
3, 334460, Note_off_c, 1, 50, 100
3, 334464, Note_on_c, 1, 54, 70
3, 334588, Note_off_c, 1, 54, 100
3, 334592, Note_on_c, 1, 50, 70
3, 334716, Note_off_c, 1, 50, 100
3, 334720, Note_on_c, 1, 45, 70
3, 334840, Control_c, 1, 64, 0
3, 334844, Note_off_c, 1, 45, 100
3, 334848, Control_c, 1, 64, 127
3, 334848, Note_on_c, 1, 38, 70
3, 334972, Note_off_c, 1, 38, 100
3, 334976, Note_on_c, 1, 45, 70
3, 335100, Note_off_c, 1, 45, 100
3, 335104, Note_on_c, 1, 50, 70
3, 335228, Note_off_c, 1, 50, 100
3, 335232, Note_on_c, 1, 54, 70
3, 335356, Note_off_c, 1, 54, 100
3, 335360, Note_on_c, 1, 50, 70
3, 335484, Note_off_c, 1, 50, 100
3, 335488, Note_on_c, 1, 45, 70
3, 335608, Control_c, 1, 64, 0
3, 335612, Note_off_c, 1, 45, 100
3, 335616, Control_c, 1, 64, 127
3, 335616, Note_on_c, 1, 38, 70
3, 335740, Note_off_c, 1, 38, 100
3, 335744, Note_on_c, 1, 45, 70
3, 335868, Note_off_c, 1, 45, 100
3, 335872, Note_on_c, 1, 50, 70
3, 335996, Note_off_c, 1, 50, 100
3, 336000, Note_on_c, 1, 54, 70
3, 336124, Note_off_c, 1, 54, 100
3, 336128, Note_on_c, 1, 50, 70
3, 336252, Note_off_c, 1, 50, 100
3, 336256, Note_on_c, 1, 45, 70
3, 336376, Control_c, 1, 64, 0
3, 336380, Note_off_c, 1, 45, 100
3, 336384, Control_c, 1, 64, 127
3, 336384, Note_on_c, 1, 38, 70
3, 336508, Note_off_c, 1, 38, 100
3, 336512, Note_on_c, 1, 45, 70
3, 336636, Note_off_c, 1, 45, 100
3, 336640, Note_on_c, 1, 50, 70
3, 336764, Note_off_c, 1, 50, 100
3, 336768, Note_on_c, 1, 54, 70
3, 336892, Note_off_c, 1, 54, 100
3, 336896, Note_on_c, 1, 50, 70
3, 337020, Note_off_c, 1, 50, 100
3, 337024, Note_on_c, 1, 45, 70
3, 337144, Control_c, 1, 64, 0
3, 337148, Note_off_c, 1, 45, 100
3, 337152, Control_c, 1, 64, 127
3, 337152, Note_on_c, 1, 38, 70
3, 337276, Note_off_c, 1, 38, 100
3, 337280, Note_on_c, 1, 45, 70
3, 337404, Note_off_c, 1, 45, 100
3, 337408, Note_on_c, 1, 50, 70
3, 337532, Note_off_c, 1, 50, 100
3, 337536, Note_on_c, 1, 54, 70
3, 337660, Note_off_c, 1, 54, 100
3, 337664, Note_on_c, 1, 50, 70
3, 337788, Note_off_c, 1, 50, 100
3, 337792, Note_on_c, 1, 45, 70
3, 337912, Control_c, 1, 64, 0
3, 337916, Note_off_c, 1, 45, 100
3, 337920, Control_c, 1, 64, 127
3, 337920, Note_on_c, 1, 38, 70
3, 338044, Note_off_c, 1, 38, 100
3, 338048, Note_on_c, 1, 45, 70
3, 338172, Note_off_c, 1, 45, 100
3, 338176, Note_on_c, 1, 50, 70
3, 338300, Note_off_c, 1, 50, 100
3, 338304, Note_on_c, 1, 54, 70
3, 338428, Note_off_c, 1, 54, 100
3, 338432, Note_on_c, 1, 50, 70
3, 338556, Note_off_c, 1, 50, 100
3, 338560, Note_on_c, 1, 45, 70
3, 338680, Control_c, 1, 64, 0
3, 338684, Note_off_c, 1, 45, 100
3, 338688, Note_on_c, 1, 38, 80
3, 339068, Note_off_c, 1, 38, 100
3, 346752, Note_on_c, 1, 50, 80
3, 346752, Note_on_c, 1, 48, 80
3, 347132, Note_off_c, 1, 50, 100
3, 347132, Note_off_c, 1, 48, 100
3, 347136, Note_on_c, 1, 50, 80
3, 347136, Note_on_c, 1, 47, 80
3, 347516, Note_off_c, 1, 50, 100
3, 347516, Note_off_c, 1, 47, 100
3, 347520, Note_on_c, 1, 50, 80
3, 347520, Note_on_c, 1, 45, 80
3, 347900, Note_off_c, 1, 50, 100
3, 347900, Note_off_c, 1, 45, 100
3, 347904, Note_on_c, 1, 50, 80
3, 347904, Note_on_c, 1, 43, 80
3, 348668, Note_off_c, 1, 50, 100
3, 348668, Note_off_c, 1, 43, 100
3, 350592, Note_on_c, 1, 50, 80
3, 350592, Note_on_c, 1, 42, 80
3, 350972, Note_off_c, 1, 50, 100
3, 350972, Note_off_c, 1, 42, 100
3, 350976, Note_on_c, 1, 50, 80
3, 350976, Note_on_c, 1, 43, 80
3, 351356, Note_off_c, 1, 50, 100
3, 351356, Note_off_c, 1, 43, 100
3, 351360, Note_on_c, 1, 50, 80
3, 351360, Note_on_c, 1, 43, 80
3, 351740, Note_off_c, 1, 50, 100
3, 351740, Note_off_c, 1, 43, 100
3, 351744, Note_on_c, 1, 50, 80
3, 351744, Note_on_c, 1, 42, 80
3, 352124, Note_off_c, 1, 50, 100
3, 352124, Note_off_c, 1, 42, 100
3, 352128, Note_on_c, 1, 50, 80
3, 352128, Note_on_c, 1, 40, 80
3, 352508, Note_off_c, 1, 50, 100
3, 352508, Note_off_c, 1, 40, 100
3, 352512, Note_on_c, 1, 38, 80
3, 352608, Note_on_c, 1, 50, 80
3, 354044, Note_off_c, 1, 38, 100
3, 354044, Note_off_c, 1, 50, 100
3, 355968, Note_on_c, 1, 50, 80
3, 355968, Note_on_c, 1, 38, 80
3, 356348, Note_off_c, 1, 50, 100
3, 356348, Note_off_c, 1, 38, 100
3, 356352, Note_on_c, 1, 50, 80
3, 356352, Note_on_c, 1, 38, 80
3, 356732, Note_off_c, 1, 50, 100
3, 356732, Note_off_c, 1, 38, 100
3, 356736, Note_on_c, 1, 50, 80
3, 356736, Note_on_c, 1, 38, 80
3, 357116, Note_off_c, 1, 50, 100
3, 357116, Note_off_c, 1, 38, 100
3, 357120, Note_on_c, 1, 52, 80
3, 357120, Note_on_c, 1, 40, 80
3, 357884, Note_off_c, 1, 52, 100
3, 357884, Note_off_c, 1, 40, 100
3, 359808, Note_on_c, 1, 60, 80
3, 359808, Note_on_c, 1, 54, 80
3, 360188, Note_off_c, 1, 60, 100
3, 360188, Note_off_c, 1, 54, 100
3, 360192, Note_on_c, 1, 59, 80
3, 360192, Note_on_c, 1, 55, 80
3, 360572, Note_off_c, 1, 59, 100
3, 360572, Note_off_c, 1, 55, 100
3, 360576, Note_on_c, 1, 59, 80
3, 360576, Note_on_c, 1, 52, 80
3, 360956, Note_off_c, 1, 59, 100
3, 360956, Note_off_c, 1, 52, 100
3, 360960, Note_on_c, 1, 57, 80
3, 360960, Note_on_c, 1, 48, 80
3, 361724, Note_off_c, 1, 57, 100
3, 361724, Note_off_c, 1, 48, 100
3, 361728, Note_on_c, 1, 50, 80
3, 361728, Note_on_c, 1, 38, 80
3, 363260, Note_off_c, 1, 50, 100
3, 363260, Note_off_c, 1, 38, 100
3, 363264, Note_on_c, 1, 47, 80
3, 363360, Note_on_c, 1, 50, 80
3, 363456, Note_on_c, 1, 55, 80
3, 363552, Note_on_c, 1, 59, 80
3, 365180, Note_off_c, 1, 47, 100
3, 365180, Note_off_c, 1, 50, 100
3, 365180, Note_off_c, 1, 55, 100
3, 365180, Note_off_c, 1, 59, 100
3, 365952, Note_on_c, 1, 60, 80
3, 365952, Note_on_c, 1, 54, 80
3, 366332, Note_off_c, 1, 60, 100
3, 366332, Note_off_c, 1, 54, 100
3, 366336, Note_on_c, 1, 59, 80
3, 366336, Note_on_c, 1, 55, 80
3, 366716, Note_off_c, 1, 59, 100
3, 366716, Note_off_c, 1, 55, 100
3, 366720, Note_on_c, 1, 59, 80
3, 366720, Note_on_c, 1, 52, 80
3, 367100, Note_off_c, 1, 59, 100
3, 367100, Note_off_c, 1, 52, 100
3, 367104, Note_on_c, 1, 57, 80
3, 367104, Note_on_c, 1, 48, 80
3, 367868, Note_off_c, 1, 57, 100
3, 367868, Note_off_c, 1, 48, 100
3, 367872, Note_on_c, 1, 38, 80
3, 369020, Note_off_c, 1, 38, 100
3, 369024, Note_on_c, 1, 40, 80
3, 369212, Note_off_c, 1, 40, 100
3, 369216, Note_on_c, 1, 42, 80
3, 369404, Note_off_c, 1, 42, 100
3, 369408, Note_on_c, 1, 43, 80
3, 369788, Note_off_c, 1, 43, 100
3, 369792, Note_on_c, 1, 45, 80
3, 370172, Note_off_c, 1, 45, 100
3, 370176, Note_on_c, 1, 47, 80
3, 370556, Note_off_c, 1, 47, 100
3, 370560, Note_on_c, 1, 48, 80
3, 370748, Note_off_c, 1, 48, 100
3, 370752, Note_on_c, 1, 47, 80
3, 370940, Note_off_c, 1, 47, 100
3, 370944, Control_c, 1, 64, 127
3, 370944, Note_on_c, 1, 45, 80
3, 370944, Note_on_c, 1, 38, 80
3, 371040, Note_on_c, 1, 47, 80
3, 371132, Note_off_c, 1, 45, 100
3, 371136, Note_on_c, 1, 45, 80
3, 371228, Note_off_c, 1, 47, 100
3, 371232, Note_on_c, 1, 47, 80
3, 371324, Note_off_c, 1, 45, 100
3, 371328, Note_on_c, 1, 45, 80
3, 371420, Note_off_c, 1, 47, 100
3, 371424, Note_on_c, 1, 47, 80
3, 371516, Note_off_c, 1, 45, 100
3, 371520, Note_on_c, 1, 45, 80
3, 371612, Note_off_c, 1, 47, 100
3, 371616, Note_on_c, 1, 47, 80
3, 371704, Control_c, 1, 64, 0
3, 371708, Note_off_c, 1, 45, 100
3, 371712, Control_c, 1, 64, 127
3, 371712, Note_on_c, 1, 45, 80
3, 371804, Note_off_c, 1, 47, 100
3, 371808, Note_on_c, 1, 47, 80
3, 371900, Note_off_c, 1, 45, 100
3, 371904, Note_on_c, 1, 45, 80
3, 371996, Note_off_c, 1, 47, 100
3, 372000, Note_on_c, 1, 47, 80
3, 372092, Note_off_c, 1, 45, 100
3, 372096, Note_on_c, 1, 45, 80
3, 372188, Note_off_c, 1, 47, 100
3, 372192, Note_on_c, 1, 47, 80
3, 372284, Note_off_c, 1, 45, 100
3, 372288, Note_on_c, 1, 45, 80
3, 372380, Note_off_c, 1, 47, 100
3, 372384, Note_on_c, 1, 47, 80
3, 372472, Control_c, 1, 64, 0
3, 372476, Note_off_c, 1, 45, 100
3, 372480, Control_c, 1, 64, 127
3, 372480, Note_on_c, 1, 45, 80
3, 372572, Note_off_c, 1, 47, 100
3, 372576, Note_on_c, 1, 47, 80
3, 372668, Note_off_c, 1, 45, 100
3, 372672, Note_on_c, 1, 45, 80
3, 372764, Note_off_c, 1, 47, 100
3, 372768, Note_on_c, 1, 47, 80
3, 372860, Note_off_c, 1, 45, 100
3, 372864, Note_on_c, 1, 45, 80
3, 372956, Note_off_c, 1, 47, 100
3, 372960, Note_on_c, 1, 47, 80
3, 373052, Note_off_c, 1, 45, 100
3, 373056, Note_on_c, 1, 45, 80
3, 373148, Note_off_c, 1, 47, 100
3, 373152, Note_on_c, 1, 47, 80
3, 373240, Control_c, 1, 64, 0
3, 373244, Note_off_c, 1, 45, 100
3, 373248, Control_c, 1, 64, 127
3, 373248, Note_on_c, 1, 45, 80
3, 373340, Note_off_c, 1, 47, 100
3, 373344, Note_on_c, 1, 47, 80
3, 373436, Note_off_c, 1, 45, 100
3, 373440, Note_on_c, 1, 45, 80
3, 373532, Note_off_c, 1, 47, 100
3, 373536, Note_on_c, 1, 47, 80
3, 373628, Note_off_c, 1, 45, 100
3, 373632, Note_on_c, 1, 45, 80
3, 373724, Note_off_c, 1, 47, 100
3, 373728, Note_on_c, 1, 47, 80
3, 373820, Note_off_c, 1, 45, 100
3, 373824, Note_on_c, 1, 45, 80
3, 373916, Note_off_c, 1, 47, 100
3, 373920, Note_on_c, 1, 47, 80
3, 374008, Control_c, 1, 64, 0
3, 374012, Note_off_c, 1, 45, 100
3, 374016, Control_c, 1, 64, 127
3, 374016, Note_on_c, 1, 45, 80
3, 374108, Note_off_c, 1, 47, 100
3, 374112, Note_on_c, 1, 47, 80
3, 374204, Note_off_c, 1, 45, 100
3, 374208, Note_on_c, 1, 45, 80
3, 374300, Note_off_c, 1, 47, 100
3, 374304, Note_on_c, 1, 47, 80
3, 374396, Note_off_c, 1, 45, 100
3, 374400, Note_on_c, 1, 45, 80
3, 374492, Note_off_c, 1, 47, 100
3, 374496, Note_on_c, 1, 47, 80
3, 374588, Note_off_c, 1, 45, 100
3, 374592, Note_on_c, 1, 45, 80
3, 374684, Note_off_c, 1, 47, 100
3, 374688, Note_on_c, 1, 47, 80
3, 374776, Control_c, 1, 64, 0
3, 374780, Note_off_c, 1, 45, 100
3, 374784, Control_c, 1, 64, 127
3, 374784, Note_on_c, 1, 45, 80
3, 374876, Note_off_c, 1, 47, 100
3, 374880, Note_on_c, 1, 47, 80
3, 374972, Note_off_c, 1, 45, 100
3, 374976, Note_on_c, 1, 45, 80
3, 375068, Note_off_c, 1, 47, 100
3, 375072, Note_on_c, 1, 47, 80
3, 375164, Note_off_c, 1, 45, 100
3, 375168, Note_on_c, 1, 45, 80
3, 375260, Note_off_c, 1, 47, 100
3, 375264, Note_on_c, 1, 47, 80
3, 375356, Note_off_c, 1, 45, 100
3, 375360, Note_on_c, 1, 45, 80
3, 375452, Note_off_c, 1, 47, 100
3, 375456, Note_on_c, 1, 47, 80
3, 375544, Control_c, 1, 64, 0
3, 375548, Note_off_c, 1, 45, 100
3, 375552, Control_c, 1, 64, 127
3, 375552, Note_on_c, 1, 45, 80
3, 375644, Note_off_c, 1, 47, 100
3, 375648, Note_on_c, 1, 47, 80
3, 375740, Note_off_c, 1, 45, 100
3, 375744, Note_on_c, 1, 45, 80
3, 375836, Note_off_c, 1, 47, 100
3, 375840, Note_on_c, 1, 47, 80
3, 375932, Note_off_c, 1, 45, 100
3, 375936, Note_on_c, 1, 45, 80
3, 376028, Note_off_c, 1, 47, 100
3, 376032, Note_on_c, 1, 47, 80
3, 376124, Note_off_c, 1, 45, 100
3, 376128, Note_on_c, 1, 45, 80
3, 376220, Note_off_c, 1, 47, 100
3, 376224, Note_on_c, 1, 47, 80
3, 376312, Control_c, 1, 64, 0
3, 376316, Note_off_c, 1, 45, 100
3, 376320, Control_c, 1, 64, 127
3, 376320, Note_on_c, 1, 45, 80
3, 376412, Note_off_c, 1, 47, 100
3, 376416, Note_on_c, 1, 47, 80
3, 376508, Note_off_c, 1, 45, 100
3, 376512, Note_on_c, 1, 45, 80
3, 376604, Note_off_c, 1, 47, 100
3, 376608, Note_on_c, 1, 47, 80
3, 376700, Note_off_c, 1, 45, 100
3, 376704, Note_on_c, 1, 45, 80
3, 376796, Note_off_c, 1, 47, 100
3, 376800, Note_on_c, 1, 47, 80
3, 376892, Note_off_c, 1, 45, 100
3, 376896, Note_on_c, 1, 45, 80
3, 376988, Note_off_c, 1, 47, 100
3, 376992, Note_on_c, 1, 47, 80
3, 377080, Control_c, 1, 64, 0
3, 377084, Note_off_c, 1, 45, 100
3, 377088, Control_c, 1, 64, 127
3, 377088, Note_on_c, 1, 45, 80
3, 377180, Note_off_c, 1, 47, 100
3, 377184, Note_on_c, 1, 47, 80
3, 377276, Note_off_c, 1, 45, 100
3, 377280, Note_on_c, 1, 45, 80
3, 377372, Note_off_c, 1, 47, 100
3, 377376, Note_on_c, 1, 47, 80
3, 377468, Note_off_c, 1, 45, 100
3, 377472, Note_on_c, 1, 45, 80
3, 377564, Note_off_c, 1, 47, 100
3, 377568, Note_on_c, 1, 47, 80
3, 377660, Note_off_c, 1, 45, 100
3, 377664, Note_on_c, 1, 45, 80
3, 377756, Note_off_c, 1, 47, 100
3, 377760, Note_on_c, 1, 47, 80
3, 377848, Control_c, 1, 64, 0
3, 377852, Note_off_c, 1, 45, 100
3, 377856, Control_c, 1, 64, 127
3, 377856, Note_on_c, 1, 45, 80
3, 377948, Note_off_c, 1, 47, 100
3, 377952, Note_on_c, 1, 47, 80
3, 378044, Note_off_c, 1, 45, 100
3, 378048, Note_on_c, 1, 45, 80
3, 378140, Note_off_c, 1, 47, 100
3, 378144, Note_on_c, 1, 47, 80
3, 378236, Note_off_c, 1, 45, 100
3, 378240, Note_on_c, 1, 45, 80
3, 378332, Note_off_c, 1, 47, 100
3, 378336, Note_on_c, 1, 47, 80
3, 378428, Note_off_c, 1, 45, 100
3, 378432, Note_on_c, 1, 45, 80
3, 378524, Note_off_c, 1, 47, 100
3, 378528, Note_on_c, 1, 47, 80
3, 378616, Control_c, 1, 64, 0
3, 378620, Note_off_c, 1, 45, 100
3, 378624, Control_c, 1, 64, 127
3, 378624, Note_on_c, 1, 45, 80
3, 378716, Note_off_c, 1, 47, 100
3, 378720, Note_on_c, 1, 47, 80
3, 378812, Note_off_c, 1, 45, 100
3, 378816, Note_on_c, 1, 45, 80
3, 378908, Note_off_c, 1, 47, 100
3, 378912, Note_on_c, 1, 47, 80
3, 379004, Note_off_c, 1, 45, 100
3, 379008, Note_on_c, 1, 45, 80
3, 379100, Note_off_c, 1, 47, 100
3, 379104, Note_on_c, 1, 47, 80
3, 379196, Note_off_c, 1, 45, 100
3, 379200, Note_on_c, 1, 45, 80
3, 379292, Note_off_c, 1, 47, 100
3, 379296, Note_on_c, 1, 47, 80
3, 379384, Control_c, 1, 64, 0
3, 379388, Note_off_c, 1, 45, 100
3, 379392, Control_c, 1, 64, 127
3, 379392, Note_on_c, 1, 45, 80
3, 379484, Note_off_c, 1, 47, 100
3, 379488, Note_on_c, 1, 47, 80
3, 379580, Note_off_c, 1, 45, 100
3, 379584, Note_on_c, 1, 45, 80
3, 379676, Note_off_c, 1, 47, 100
3, 379680, Note_on_c, 1, 47, 80
3, 379772, Note_off_c, 1, 45, 100
3, 379776, Note_on_c, 1, 45, 80
3, 379868, Note_off_c, 1, 47, 100
3, 379872, Note_on_c, 1, 47, 80
3, 379964, Note_off_c, 1, 45, 100
3, 379968, Note_on_c, 1, 45, 80
3, 380060, Note_off_c, 1, 47, 100
3, 380064, Note_on_c, 1, 47, 80
3, 380152, Control_c, 1, 64, 0
3, 380156, Note_off_c, 1, 45, 100
3, 380160, Note_on_c, 1, 45, 80
3, 380252, Note_off_c, 1, 47, 100
3, 380256, Control_c, 1, 64, 127
3, 380256, Note_on_c, 1, 47, 80
3, 380348, Note_off_c, 1, 45, 100
3, 380352, Note_on_c, 1, 45, 80
3, 380444, Note_off_c, 1, 47, 100
3, 380448, Note_on_c, 1, 47, 80
3, 380540, Note_off_c, 1, 45, 100
3, 380544, Note_on_c, 1, 45, 80
3, 380636, Note_off_c, 1, 47, 100
3, 380640, Note_on_c, 1, 47, 80
3, 380732, Note_off_c, 1, 45, 100
3, 380736, Note_on_c, 1, 45, 80
3, 380828, Note_off_c, 1, 47, 100
3, 380832, Note_on_c, 1, 47, 80
3, 380924, Note_off_c, 1, 45, 100
3, 380928, Note_on_c, 1, 45, 80
3, 381016, Control_c, 1, 64, 0
3, 381020, Note_off_c, 1, 47, 100
3, 381024, Control_c, 1, 64, 127
3, 381024, Note_on_c, 1, 47, 80
3, 381116, Note_off_c, 1, 45, 100
3, 381120, Note_on_c, 1, 45, 80
3, 381212, Note_off_c, 1, 47, 100
3, 381216, Note_on_c, 1, 47, 80
3, 381308, Note_off_c, 1, 45, 100
3, 381312, Note_on_c, 1, 45, 80
3, 381404, Note_off_c, 1, 47, 100
3, 381408, Note_on_c, 1, 47, 80
3, 381500, Note_off_c, 1, 45, 100
3, 381504, Note_on_c, 1, 43, 80
3, 381596, Note_off_c, 1, 47, 100
3, 381600, Note_on_c, 1, 45, 80
3, 381692, Note_off_c, 1, 38, 100
3, 381692, Note_off_c, 1, 43, 100
3, 381696, Note_on_c, 1, 43, 80
3, 381696, Note_on_c, 1, 31, 80
3, 381784, Control_c, 1, 64, 0
3, 381788, Note_off_c, 1, 45, 100
3, 382076, Note_off_c, 1, 43, 100
3, 382076, Note_off_c, 1, 31, 100
3, 382464, Note_on_c, 1, 53, 80
3, 382652, Note_off_c, 1, 53, 100
3, 382656, Note_on_c, 1, 51, 80
3, 382844, Note_off_c, 1, 51, 100
3, 382848, Note_on_c, 1, 50, 80
3, 383036, Note_off_c, 1, 50, 100
3, 383040, Note_on_c, 1, 51, 80
3, 383228, Note_off_c, 1, 51, 100
3, 383232, Note_on_c, 1, 50, 80
3, 383612, Note_off_c, 1, 50, 100
3, 384384, Note_on_c, 1, 62, 80
3, 384384, Note_on_c, 1, 66, 80
3, 384764, Note_off_c, 1, 62, 100
3, 384764, Note_off_c, 1, 66, 100
3, 384768, Note_on_c, 1, 55, 80
3, 384768, Note_on_c, 1, 67, 80
3, 385148, Note_off_c, 1, 55, 100
3, 385148, Note_off_c, 1, 67, 100
3, 385536, Note_on_c, 1, 53, 80
3, 385724, Note_off_c, 1, 53, 100
3, 385728, Note_on_c, 1, 51, 80
3, 385916, Note_off_c, 1, 51, 100
3, 385920, Note_on_c, 1, 50, 80
3, 386108, Note_off_c, 1, 50, 100
3, 386112, Note_on_c, 1, 51, 80
3, 386300, Note_off_c, 1, 51, 100
3, 386304, Note_on_c, 1, 50, 80
3, 386684, Note_off_c, 1, 50, 100
3, 387456, Note_on_c, 1, 78, 80
3, 387456, Note_on_c, 1, 74, 80
3, 387836, Note_off_c, 1, 78, 100
3, 387836, Note_off_c, 1, 74, 100
3, 387840, Note_on_c, 1, 79, 80
3, 387840, Note_on_c, 1, 67, 80
3, 388220, Note_off_c, 1, 79, 100
3, 388220, Note_off_c, 1, 67, 100
3, 388608, Note_on_c, 1, 53, 80
3, 388796, Note_off_c, 1, 53, 100
3, 388800, Note_on_c, 1, 51, 81
3, 388988, Note_off_c, 1, 51, 100
3, 388992, Note_on_c, 1, 50, 82
3, 389180, Note_off_c, 1, 50, 100
3, 389184, Note_on_c, 1, 51, 83
3, 389372, Note_off_c, 1, 51, 100
3, 389376, Note_on_c, 1, 53, 84
3, 389564, Note_off_c, 1, 53, 100
3, 389568, Note_on_c, 1, 51, 85
3, 389756, Note_off_c, 1, 51, 100
3, 389760, Note_on_c, 1, 50, 87
3, 389948, Note_off_c, 1, 50, 100
3, 389952, Note_on_c, 1, 51, 88
3, 390140, Note_off_c, 1, 51, 100
3, 390144, Note_on_c, 1, 53, 89
3, 390332, Note_off_c, 1, 53, 100
3, 390336, Note_on_c, 1, 51, 90
3, 390524, Note_off_c, 1, 51, 100
3, 390528, Note_on_c, 1, 50, 91
3, 390716, Note_off_c, 1, 50, 100
3, 390720, Note_on_c, 1, 51, 93
3, 390908, Note_off_c, 1, 51, 100
3, 390912, Note_on_c, 1, 53, 94
3, 391100, Note_off_c, 1, 53, 100
3, 391104, Note_on_c, 1, 51, 95
3, 391292, Note_off_c, 1, 51, 100
3, 391296, Note_on_c, 1, 50, 96
3, 391484, Note_off_c, 1, 50, 100
3, 391488, Note_on_c, 1, 51, 97
3, 391676, Note_off_c, 1, 51, 100
3, 391680, Note_on_c, 1, 53, 98
3, 391868, Note_off_c, 1, 53, 100
3, 391872, Note_on_c, 1, 51, 100
3, 392060, Note_off_c, 1, 51, 100
3, 392064, Note_on_c, 1, 50, 101
3, 392252, Note_off_c, 1, 50, 100
3, 392256, Note_on_c, 1, 51, 102
3, 392444, Note_off_c, 1, 51, 100
3, 392448, Note_on_c, 1, 53, 103
3, 392636, Note_off_c, 1, 53, 100
3, 392640, Note_on_c, 1, 51, 104
3, 392828, Note_off_c, 1, 51, 100
3, 392832, Note_on_c, 1, 50, 106
3, 393020, Note_off_c, 1, 50, 100
3, 393024, Note_on_c, 1, 51, 107
3, 393212, Note_off_c, 1, 51, 100
3, 393216, Note_on_c, 1, 53, 108
3, 393404, Note_off_c, 1, 53, 100
3, 393408, Note_on_c, 1, 51, 109
3, 393596, Note_off_c, 1, 51, 100
3, 393600, Note_on_c, 1, 50, 110
3, 393788, Note_off_c, 1, 50, 100
3, 393792, Note_on_c, 1, 51, 111
3, 393980, Note_off_c, 1, 51, 100
3, 393984, Control_c, 1, 64, 127
3, 393984, Note_on_c, 1, 50, 110
3, 393984, Note_on_c, 1, 38, 110
3, 394364, Note_off_c, 1, 50, 100
3, 394364, Note_off_c, 1, 38, 100
3, 394368, Note_on_c, 1, 54, 110
3, 394744, Control_c, 1, 64, 0
3, 394752, Control_c, 1, 64, 127
3, 395132, Note_off_c, 1, 54, 100
3, 395136, Note_on_c, 1, 57, 110
3, 395512, Control_c, 1, 64, 0
3, 395520, Control_c, 1, 64, 127
3, 395900, Note_off_c, 1, 57, 100
3, 395904, Note_on_c, 1, 60, 110
3, 396280, Control_c, 1, 64, 0
3, 396288, Control_c, 1, 64, 127
3, 396668, Note_off_c, 1, 60, 100
3, 396672, Note_on_c, 1, 66, 110
3, 397048, Control_c, 1, 64, 0
3, 397056, Control_c, 1, 64, 127
3, 397436, Note_off_c, 1, 66, 100
3, 397440, Note_on_c, 1, 69, 110
3, 397816, Control_c, 1, 64, 0
3, 397820, Note_off_c, 1, 69, 100
3, 397824, Control_c, 1, 64, 127
3, 397824, Note_on_c, 1, 72, 110
3, 398204, Note_off_c, 1, 72, 100
3, 398208, Note_on_c, 1, 78, 110
3, 398584, Control_c, 1, 64, 0
3, 398588, Note_off_c, 1, 78, 100
3, 398592, Control_c, 1, 64, 127
3, 398592, Note_on_c, 1, 81, 110
3, 398972, Note_off_c, 1, 81, 100
3, 398976, Note_on_c, 1, 83, 110
3, 399352, Control_c, 1, 64, 0
3, 399356, Note_off_c, 1, 83, 100
3, 399360, Control_c, 1, 64, 127
3, 399360, Note_on_c, 1, 86, 110
3, 399740, Note_off_c, 1, 86, 100
3, 399744, Note_on_c, 1, 78, 110
3, 400120, Control_c, 1, 64, 0
3, 400124, Note_off_c, 1, 78, 100
3, 400128, Note_on_c, 1, 79, 80
3, 400508, Note_off_c, 1, 79, 100
3, 400512, Note_on_c, 1, 67, 80
3, 400892, Note_off_c, 1, 67, 100
3, 401280, Note_on_c, 1, 62, 80
3, 401660, Note_off_c, 1, 62, 100
3, 402048, Note_on_c, 1, 55, 80
3, 402428, Note_off_c, 1, 55, 100
3, 402816, Note_on_c, 1, 50, 80
3, 403196, Note_off_c, 1, 50, 100
3, 403200, Control_c, 1, 64, 127
3, 403584, Note_on_c, 1, 43, 80
3, 403960, Control_c, 1, 64, 0
3, 403964, Note_off_c, 1, 43, 100
3, 403968, Control_c, 1, 64, 127
3, 403968, Note_on_c, 1, 40, 80
3, 404156, Note_off_c, 1, 40, 100
3, 404160, Note_on_c, 1, 38, 81
3, 404348, Note_off_c, 1, 38, 100
3, 404352, Note_on_c, 1, 37, 82
3, 404540, Note_off_c, 1, 37, 100
3, 404544, Note_on_c, 1, 38, 83
3, 404728, Control_c, 1, 64, 0
3, 404732, Note_off_c, 1, 38, 100
3, 404736, Note_on_c, 1, 40, 85
3, 404924, Note_off_c, 1, 40, 100
3, 404928, Note_on_c, 1, 38, 86
3, 405116, Note_off_c, 1, 38, 100
3, 405120, Note_on_c, 1, 37, 87
3, 405308, Note_off_c, 1, 37, 100
3, 405312, Note_on_c, 1, 38, 89
3, 405500, Note_off_c, 1, 38, 100
3, 405504, Note_on_c, 1, 40, 90
3, 405692, Note_off_c, 1, 40, 100
3, 405696, Note_on_c, 1, 38, 91
3, 405884, Note_off_c, 1, 38, 100
3, 405888, Note_on_c, 1, 37, 92
3, 406076, Note_off_c, 1, 37, 100
3, 406080, Note_on_c, 1, 38, 94
3, 406268, Note_off_c, 1, 38, 100
3, 406272, Control_c, 1, 64, 127
3, 406272, Note_on_c, 1, 40, 95
3, 406460, Note_off_c, 1, 40, 100
3, 406464, Note_on_c, 1, 38, 96
3, 406652, Note_off_c, 1, 38, 100
3, 406656, Note_on_c, 1, 37, 98
3, 406844, Note_off_c, 1, 37, 100
3, 406848, Note_on_c, 1, 38, 99
3, 407032, Control_c, 1, 64, 0
3, 407036, Note_off_c, 1, 38, 100
3, 407040, Control_c, 1, 64, 127
3, 407040, Note_on_c, 1, 40, 100
3, 407228, Note_off_c, 1, 40, 100
3, 407232, Note_on_c, 1, 38, 101
3, 407420, Note_off_c, 1, 38, 100
3, 407424, Note_on_c, 1, 37, 103
3, 407612, Note_off_c, 1, 37, 100
3, 407616, Note_on_c, 1, 38, 104
3, 407800, Control_c, 1, 64, 0
3, 407804, Note_off_c, 1, 38, 100
3, 407808, Control_c, 1, 64, 127
3, 407808, Note_on_c, 1, 40, 105
3, 407996, Note_off_c, 1, 40, 100
3, 408000, Note_on_c, 1, 38, 107
3, 408188, Note_off_c, 1, 38, 100
3, 408192, Note_on_c, 1, 37, 108
3, 408380, Note_off_c, 1, 37, 100
3, 408384, Note_on_c, 1, 38, 109
3, 408568, Control_c, 1, 64, 0
3, 408572, Note_off_c, 1, 38, 100
3, 408576, Control_c, 1, 64, 127
3, 408576, Note_on_c, 1, 40, 110
3, 408764, Note_off_c, 1, 40, 100
3, 408768, Note_on_c, 1, 38, 112
3, 408956, Note_off_c, 1, 38, 100
3, 408960, Note_on_c, 1, 37, 113
3, 409148, Note_off_c, 1, 37, 100
3, 409152, Note_on_c, 1, 38, 114
3, 409336, Control_c, 1, 64, 0
3, 409340, Note_off_c, 1, 38, 100
3, 409344, Control_c, 1, 64, 127
3, 409344, Note_on_c, 1, 40, 116
3, 409532, Note_off_c, 1, 40, 100
3, 409536, Note_on_c, 1, 38, 117
3, 409724, Note_off_c, 1, 38, 100
3, 409728, Note_on_c, 1, 37, 118
3, 409916, Note_off_c, 1, 37, 100
3, 409920, Note_on_c, 1, 38, 120
3, 410104, Control_c, 1, 64, 0
3, 410108, Note_off_c, 1, 38, 100
3, 410112, Control_c, 1, 64, 127
3, 410872, Control_c, 1, 64, 0
3, 410880, Control_c, 1, 64, 127
3, 410880, Note_on_c, 1, 40, 120
3, 411068, Note_off_c, 1, 40, 100
3, 411072, Note_on_c, 1, 38, 120
3, 411260, Note_off_c, 1, 38, 100
3, 411264, Note_on_c, 1, 37, 120
3, 411452, Note_off_c, 1, 37, 100
3, 411456, Note_on_c, 1, 38, 120
3, 411640, Control_c, 1, 64, 0
3, 411644, Note_off_c, 1, 38, 100
3, 411648, Control_c, 1, 64, 127
3, 412408, Control_c, 1, 64, 0
3, 412416, Note_on_c, 1, 43, 120
3, 412416, Note_on_c, 1, 31, 120
3, 412796, Note_off_c, 1, 43, 100
3, 412796, Note_off_c, 1, 31, 100
3, 412800, Note_on_c, 1, 43, 120
3, 412800, Note_on_c, 1, 31, 120
3, 413180, Note_off_c, 1, 43, 100
3, 413180, Note_off_c, 1, 31, 100
3, 415488, Note_on_c, 1, 43, 120
3, 415488, Note_on_c, 1, 31, 120
3, 415868, Note_off_c, 1, 43, 100
3, 415868, Note_off_c, 1, 31, 100
3, 415872, Note_on_c, 1, 43, 120
3, 415872, Note_on_c, 1, 31, 120
3, 416252, Note_off_c, 1, 43, 100
3, 416252, Note_off_c, 1, 31, 100
3, 418560, Note_on_c, 1, 43, 80
3, 418560, Note_on_c, 1, 31, 80
3, 418940, Note_off_c, 1, 43, 100
3, 418940, Note_off_c, 1, 31, 100
3, 420096, Note_on_c, 1, 43, 80
3, 420096, Note_on_c, 1, 31, 80
3, 420476, Note_off_c, 1, 43, 100
3, 420476, Note_off_c, 1, 31, 100
3, 421632, Note_on_c, 1, 43, 74
3, 421632, Note_on_c, 1, 31, 74
3, 422012, Note_off_c, 1, 43, 100
3, 422012, Note_off_c, 1, 31, 100
3, 422400, Note_on_c, 1, 43, 71
3, 422400, Note_on_c, 1, 31, 71
3, 422780, Note_off_c, 1, 43, 100
3, 422780, Note_off_c, 1, 31, 100
3, 422780, End_track
0, 0, End_of_file
